<svg xmlns="http://www.w3.org/2000/svg" width="12" height="12"><title>checkbox_light_on</title><desc>Created with Sketch.</desc><g fill="none"><g><path id="Path" fill="#fff" d="M11.25 3.66L5.8 9.1c-.1.12-.23.17-.38.17s-.27-.05-.38-.16L2.16 6.24C2.06 6.13 2 6 2 5.85s.05-.27.16-.38l.74-.74c.1-.1.23-.16.38-.16s.27.05.38.16L5.42 6.5l4.33-4.34c.1-.1.24-.16.4-.16.13 0 .26.05.37.16l.73.74c.1.1.17.23.17.38s-.06.27-.17.38z"/><path fill="#E4E4E4" d="M10 6.7v2.25c0 .57-.2 1.05-.6 1.45-.4.4-.88.6-1.45.6h-5.9C1.48 11 1 10.8.6 10.4.2 10 0 9.52 0 8.95v-5.9C0 2.48.2 2 .6 1.6c.4-.4.88-.6 1.45-.6h5.9c.3 0 .58.06.84.18.06.03.1.1.1.16.03.08 0 .15-.05.2l-.35.35c-.05.04-.1.07-.16.07-.02 0-.04 0-.07-.02-.1-.03-.2-.04-.32-.04h-5.9c-.32 0-.58.12-.8.34-.23.23-.34.5-.34.8v5.9c0 .33.12.6.34.82.23.22.5.33.8.33h5.9c.33 0 .6-.12.82-.34.22-.23.33-.5.33-.8v-1.8c0-.07 0-.12.05-.17l.46-.46c.06-.05.1-.07.17-.07.03 0 .06 0 .1.02.08.03.13.1.13.2z"/></g></g></svg>