<svg xmlns="http://www.w3.org/2000/svg" width="48" height="48" xmlns:xlink="http://www.w3.org/1999/xlink"><defs><linearGradient id="i"><stop offset="0" stop-color="#babdb6"/><stop offset="1" stop-color="#93978d"/></linearGradient><linearGradient id="h"><stop offset="0" stop-color="#fff"/><stop offset=".5" stop-color="#fff" stop-opacity="0"/><stop offset=".75" stop-color="#fff" stop-opacity=".502"/><stop offset="1" stop-color="#fff" stop-opacity="0"/></linearGradient><linearGradient id="g"><stop offset="0" stop-color="#fff"/><stop offset="1" stop-color="#fff" stop-opacity="0"/></linearGradient><linearGradient id="f"><stop offset="0" stop-color="#e9b96e"/><stop offset="1" stop-color="#c17d11"/></linearGradient><linearGradient id="d"><stop offset="0"/><stop offset="1" stop-opacity="0"/></linearGradient><linearGradient id="e"><stop offset="0" stop-color="#fff"/><stop offset="1" stop-color="#ccc"/></linearGradient><linearGradient><stop offset="0" stop-color="#de9523"/><stop offset="1" stop-color="#a36d18"/></linearGradient><linearGradient><stop offset="0" stop-color="#fbf0e0"/><stop offset="1" stop-color="#f0ce99"/></linearGradient><linearGradient id="a"><stop offset="0"/><stop offset=".196"/><stop offset="1" stop-opacity="0"/></linearGradient><linearGradient id="b"><stop offset="0" stop-color="#fff"/><stop offset="1" stop-color="#fff" stop-opacity=".686"/></linearGradient><linearGradient id="c"><stop offset="0" stop-color="#eaba6f"/><stop offset="1" stop-color="#b97a1b"/></linearGradient><linearGradient><stop offset="0" stop-color="#e9b96e"/><stop offset="1" stop-color="#f1d19e"/></linearGradient><linearGradient><stop offset="0" stop-color="#875a13"/><stop offset="1" stop-color="#d79020"/></linearGradient><radialGradient id="j" cx="22.93" cy="35.373" r="17.577" xlink:href="#a" gradientUnits="userSpaceOnUse" gradientTransform="matrix(1 0 0 .333 0 23.582)" fx="22.93" fy="35.373"/><linearGradient id="l" x1="18.707" x2="30.015" y1="19.912" y2="47.388" xlink:href="#b" gradientUnits="userSpaceOnUse" gradientTransform="matrix(1.25 0 0 1.251 -5.396 -6.505)"/><linearGradient id="k" x1="24.99" x2="24.99" y1="34.005" y2="22.585" xlink:href="#c" gradientUnits="userSpaceOnUse" gradientTransform="matrix(1.25 0 0 1.251 -5.396 -6.505)"/><radialGradient cx="23.944" cy="20.8" r="6.429" xlink:href="#d" gradientUnits="userSpaceOnUse" gradientTransform="matrix(1.353 0 0 .636 -8.459 3.413)" fx="23.944" fy="20.8"/><radialGradient cx="21.579" cy="9.026" r="9.586" xlink:href="#e" gradientUnits="userSpaceOnUse" gradientTransform="matrix(.749 0 0 .394 6.227 10.093)" fx="21.579" fy="9.026"/><radialGradient cx="23.944" cy="20.8" r="6.429" xlink:href="#d" gradientUnits="userSpaceOnUse" gradientTransform="matrix(1.353 0 0 .636 -8.459 3.413)" fx="23.944" fy="20.8"/><radialGradient cx="21.579" cy="9.811" r="9.586" xlink:href="#e" gradientUnits="userSpaceOnUse" gradientTransform="matrix(.749 0 0 .394 6.227 10.093)" fx="21.579" fy="9.811"/><linearGradient id="m" x1="13.668" x2="39.106" y1="8.011" y2="13.941" xlink:href="#f" gradientUnits="userSpaceOnUse" gradientTransform="matrix(1.227 0 0 1.448 -5.384 -8.773)"/><linearGradient id="o" x1="23.682" x2="23.682" y1="14.497" y2="7.307" xlink:href="#g" gradientUnits="userSpaceOnUse" gradientTransform="matrix(1.227 0 0 1.432 -5.384 -8.556)"/><linearGradient id="p" x1="23.682" x2="23.682" y1="14.497" y2="8.622" xlink:href="#g" gradientUnits="userSpaceOnUse" gradientTransform="matrix(1.199 0 0 -.553 -4.514 20.865)"/><linearGradient id="q" x1="22.496" x2="22.274" y1="17.229" y2="-.253" xlink:href="#h" gradientUnits="userSpaceOnUse" gradientTransform="matrix(0 1.227 -1.999 0 39.544 -20.696)"/><linearGradient id="n" x1="6.391" x2="41.795" y1="6.776" y2="6.776" xlink:href="#i" gradientUnits="userSpaceOnUse"/></defs><g><path fill="url(#j)" d="M40.5 35.37a17.58 5.86 0 1 1-35.15 0 17.58 5.86 0 1 1 35.16 0z" transform="matrix(1.389 0 0 1.389 -8.097 -9.954)" opacity=".57" color="#000" display="block" overflow="visible"/><path fill="url(#k)" stroke="#a0670c" d="M4.06 12.6h39.92l-.06 25.92c0 1.66-1.35 3-3.03 3H6.96c-1.68 0-3.03-1.34-3.03-3l.12-25.92z" color="#000" display="block" overflow="visible"/><path fill="none" stroke="url(#l)" d="M5.3 13.82h37.4l-.2 24.75c0 .9-.72 1.6-1.6 1.6H6.83c-.9 0-1.6-.7-1.6-1.6l.05-24.75z" opacity=".481" color="#000" display="block" overflow="visible"/><path fill="url(#m)" fill-rule="evenodd" stroke="#8f5902" d="M4 12.6L10.95 2l25.9-.14 7.2 10.52L4 12.6z" stroke-linejoin="round"/><path fill="none" stroke="#fff" stroke-opacity=".502" d="M6.6 11.25l5.22-7.93 24.34-.12 5.4 7.9-34.97.15z"/><path fill="none" stroke="#8f5902" d="M23.26 2.22v10.1"/><path fill="#d3d7cf" fill-opacity=".502" fill-rule="evenodd" stroke="url(#n)" d="M8.8 5.27h30.46l2.03 3H6.9l1.9-3z" color="#000" overflow="visible"/><path fill="#d3d7cf" fill-opacity=".502" fill-rule="evenodd" stroke="#babdb6" d="M21.08 2.1l-1.55 9.97v9.4c2.7-.3 5.4-3.8 8.1-3.24v-6.75L25.52 2l-4.45.1z"/><path fill="url(#o)" fill-rule="evenodd" d="M21.08 1.9L19.7 12.74h7.92L25.52 1.9H21.1z"/><path fill="url(#p)" fill-rule="evenodd" d="M20.1 15.73l-.34-3.1h8l-.36 3.46-7.3-.37z"/><g fill-opacity=".584" font-size="12" font-family="Tahoma"><g><path d="M20.25 28.5l3.16 9.74-3.16 1.03-.2.06c-.16.06-.3.07-.4.04-.13-.04-.2-.1-.24-.23-.06-.2 0-.36.16-.48.14-.1.22-.17.24-.2.03 0 .04-.04.06-.1.03-.1.02-.22-.03-.4l-2.32-7.12c-.05-.17-.1-.28-.2-.34-.04-.03-.07-.05-.1-.05s-.14 0-.3 0c-.22 0-.36-.1-.42-.3-.04-.12-.02-.23.05-.32.07-.1.2-.17.36-.23l.18-.06 3.17-1.03z" style="text-align:start;line-height:100%"/><path d="M24.2 35.74l-1.84-5.63c-.1-.34-.25-.6-.42-.77-.1-.1-.2-.18-.32-.22-.1-.02-.27-.02-.48 0l-.25-.8c.24-.08.45-.14.64-.18.62-.12 1.3-.06 2 .2s1.3.68 1.8 1.3c.5.6.9 1.34 1.18 2.2.3.96.4 1.88.3 2.75-.1.87-.43 1.63-.95 2.28-.26.3-.5.55-.77.72-.25.16-.6.32-1.05.47l-.25-.77c.18-.12.3-.2.37-.28.06-.08.1-.17.14-.28.04-.12.05-.26.04-.4-.02-.14-.07-.33-.15-.58z" style="text-align:start;line-height:100%"/></g><path d="M28.1 34.46c.33-.1.63-.08.93.07.3.15.5.4.6.7.1.32.08.63-.07.92-.15.3-.4.5-.7.6-.32.1-.63.08-.92-.07-.3-.15-.5-.4-.6-.7-.1-.32-.08-.62.07-.92.16-.3.4-.5.7-.6z" style="text-align:start;line-height:100%"/><g><path d="M30.8 25.1l2.87-.94 4.7 7.73c.08.13.17.25.25.34.07.08.2.12.36.13.14 0 .24.04.3.08.07.03.12.1.15.2.08.23-.07.42-.44.54l-3.57 1.14c-.14.05-.26.05-.37 0-.1-.03-.18-.1-.22-.22-.03-.1-.03-.18 0-.24 0-.06.08-.14.2-.26.07-.08.12-.15.14-.22.02-.07 0-.15-.02-.23-.02-.08-.05-.15-.1-.2l-.55-.97-1.98.65-.08-.9 1.6-.53-3.2-5.37-.04-.76z" style="text-align:start;line-height:100%"/><path d="M30.9 27.06l.83 1.36.23 5c0 .16.03.3.07.4.1.3.3.47.63.5l.28.04c.18.02.3.1.35.28.07.24-.06.4-.4.53l-1.82.58c-.18.06-.33.07-.45.03-.13-.04-.2-.13-.26-.25-.04-.14.03-.3.2-.45.17-.15.3-.27.36-.37.07-.1.13-.2.18-.36.08-.24.1-.53.08-.88l-.3-6.4z" style="text-align:start;line-height:100%"/></g><path d="M40.47 30.5c.32-.1.62-.08.92.08.3.15.5.38.6.7.1.3.07.62-.08.92-.15.3-.4.5-.7.6-.32.1-.63.07-.92-.08-.3-.15-.5-.38-.6-.7-.1-.32-.08-.62.07-.92.15-.3.4-.5.7-.6z" style="text-align:start;line-height:100%"/></g><path fill="url(#q)" fill-rule="evenodd" d="M38.55 5.23L8.47 4.86 6.1 8.6l34.84-.2-2.4-3.17z"/></g></svg>