<svg xmlns="http://www.w3.org/2000/svg" width="48" height="48" xmlns:xlink="http://www.w3.org/1999/xlink" version="1"><defs><linearGradient id="e"><stop offset="0" stop-color="#fa0"/><stop offset="1" stop-color="#f40"/></linearGradient><linearGradient><stop offset="0" stop-color="#d0efff" stop-opacity=".525"/><stop offset="1" stop-color="#fff" stop-opacity="0"/></linearGradient><linearGradient id="c"><stop offset="0" stop-color="#fff"/><stop offset="1" stop-color="#fff" stop-opacity=".258"/></linearGradient><linearGradient id="a"><stop offset="0" stop-opacity=".608"/><stop offset="1" stop-opacity="0"/></linearGradient><linearGradient id="d"><stop offset="0" stop-color="#fff"/><stop offset="1" stop-color="#b8b8b8"/></linearGradient><linearGradient id="b"><stop offset="0" stop-color="#9cbcde"/><stop offset=".6" stop-color="#5e83b2"/><stop offset="1" stop-color="#204a87"/></linearGradient><radialGradient cx="26.517" cy="24.665" r="19.799" xlink:href="#a" gradientUnits="userSpaceOnUse" fx="26.517" fy="24.665"/><radialGradient cx="19.017" cy="20.93" r="22.376" xlink:href="#b" gradientUnits="userSpaceOnUse" gradientTransform="matrix(1.032 -.669 .622 .965 -16.224 11.181)" fx="19.017" fy="20.93"/><linearGradient x1="23.909" x2="23.909" y1=".798" y2="46.853" xlink:href="#c" gradientUnits="userSpaceOnUse"/><radialGradient cx="-19.516" cy="16.856" r="8.754" xlink:href="#d" gradientUnits="userSpaceOnUse" gradientTransform="matrix(4.446 0 0 6.867 67.251 -104.668)" fx="-19.516" fy="16.856"/><radialGradient cx="26.517" cy="24.665" r="19.799" xlink:href="#a" gradientUnits="userSpaceOnUse" fx="26.517" fy="24.665"/><radialGradient cx="19.017" cy="20.93" r="22.376" xlink:href="#b" gradientUnits="userSpaceOnUse" gradientTransform="matrix(1.032 -.669 .622 .965 -16.224 11.181)" fx="19.017" fy="20.93"/><linearGradient x1="23.909" x2="23.909" y1=".798" y2="46.853" xlink:href="#c" gradientUnits="userSpaceOnUse"/><radialGradient cx="-19.516" cy="16.856" r="8.754" xlink:href="#d" gradientUnits="userSpaceOnUse" gradientTransform="matrix(4.446 0 0 6.867 67.251 -104.668)" fx="-19.516" fy="16.856"/><radialGradient cx="19.017" cy="20.93" r="22.376" xlink:href="#b" gradientUnits="userSpaceOnUse" gradientTransform="matrix(1.032 -.669 .622 .965 -16.224 11.181)" fx="19.017" fy="20.93"/><linearGradient x1="23.909" x2="23.909" y1=".798" y2="46.853" xlink:href="#c" gradientUnits="userSpaceOnUse"/><radialGradient cx="-19.516" cy="16.856" r="8.754" xlink:href="#d" gradientUnits="userSpaceOnUse" gradientTransform="matrix(4.446 0 0 6.867 67.251 -104.668)" fx="-19.516" fy="16.856"/><linearGradient x1="23.909" x2="23.909" y1=".798" y2="46.853" xlink:href="#c" gradientUnits="userSpaceOnUse"/><radialGradient cx="19.017" cy="20.93" r="22.376" xlink:href="#b" gradientUnits="userSpaceOnUse" gradientTransform="matrix(1.032 -.669 .622 .965 -16.224 11.181)" fx="19.017" fy="20.93"/><radialGradient cx="-19.516" cy="16.856" r="8.754" xlink:href="#d" gradientUnits="userSpaceOnUse" gradientTransform="matrix(4.446 0 0 6.867 67.251 -104.668)" fx="-19.516" fy="16.856"/><radialGradient cx="-19.516" cy="16.856" r="8.754" xlink:href="#d" gradientUnits="userSpaceOnUse" gradientTransform="matrix(4.446 0 0 6.867 67.251 -104.668)" fx="-19.516" fy="16.856"/><radialGradient id="f" cx="26.517" cy="24.665" r="19.799" xlink:href="#a" gradientUnits="userSpaceOnUse" fx="26.517" fy="24.665"/><radialGradient id="g" cx="19.017" cy="20.93" r="22.376" xlink:href="#e" gradientUnits="userSpaceOnUse" gradientTransform="matrix(1.032 -.669 .622 .965 -16.224 11.181)" fx="19.017" fy="20.93"/><linearGradient id="h" x1="23.909" x2="23.909" y1=".798" y2="46.853" xlink:href="#c" gradientUnits="userSpaceOnUse"/><radialGradient cx="-19.516" cy="16.856" r="8.754" xlink:href="#d" gradientUnits="userSpaceOnUse" gradientTransform="matrix(4.446 0 0 6.867 67.251 -104.668)" fx="-19.516" fy="16.856"/><radialGradient cx="-19.516" cy="16.856" r="8.754" xlink:href="#d" gradientUnits="userSpaceOnUse" gradientTransform="matrix(1.4 0 0 2.146 35.635 -31.582)" fx="-19.516" fy="16.856"/><radialGradient id="i" cx="-19.516" cy="16.856" r="8.754" xlink:href="#d" gradientUnits="userSpaceOnUse" gradientTransform="matrix(4.843 0 0 7.38 118.793 -111.527)" fx="-19.516" fy="16.856"/></defs><g><path fill="url(#f)" fill-rule="evenodd" d="M46.32 24.67a19.8 19.8 0 1 1-39.6 0 19.8 19.8 0 1 1 39.6 0z" transform="matrix(.986 0 0 .363 -1.13 31.414)" color="#000" overflow="visible"/><path fill="url(#g)" stroke="#924000" stroke-width="2.196" d="M45.8 23.83a21.88 21.88 0 1 1-43.77 0 21.88 21.88 0 1 1 43.76 0z" transform="matrix(.912 0 0 .909 2.147 -.668)"/><path fill="none" stroke="url(#h)" stroke-width="2.458" d="M45.8 23.83a21.88 21.88 0 1 1-43.77 0 21.88 21.88 0 1 1 43.76 0z" transform="matrix(.814 0 0 .814 4.548 1.613)" opacity=".96"/><path fill="url(#i)" d="M23.48 7.28c-2.63.02-5.24.63-7.7 1.47-.3 1.92.06 3.95.17 5.75 2.25-1.35 4.85-2.55 7.55-2.27 1.36.1 2.6 1.3 2.38 2.7-.32 2.13-2.4 3.25-3.8 4.64-1.37 1.23-2.6 2.83-2.55 4.75-.06.67-.14 1.52.84 1.2 2 0 4 0 6 0 .03-1.12.2-2.36 1.12-3.16 1.84-1.85 4.3-3.4 5.06-6.04.72-2.5.13-5.6-2.1-7.2-1.98-1.5-4.57-1.83-6.98-1.84zM19.6 27.86l.13 6.56h6.64l-.14-6.56H19.6z" style="text-align:start;line-height:125%" font-size="34.153" font-weight="bold" font-family="Bitstream Vera Sans"/></g></svg>