<svg xmlns="http://www.w3.org/2000/svg" width="48" height="48" xmlns:xlink="http://www.w3.org/1999/xlink"><defs><linearGradient id="e"><stop offset="0" stop-opacity=".376"/><stop offset="1" stop-opacity=".251"/></linearGradient><linearGradient id="d"><stop offset="0"/><stop offset="1" stop-opacity=".251"/></linearGradient><linearGradient id="c"><stop offset="0" stop-opacity=".251"/><stop offset="1" stop-opacity="0"/></linearGradient><linearGradient id="b"><stop offset="0" stop-color="#fff"/><stop offset="1" stop-color="#fff" stop-opacity="0"/></linearGradient><linearGradient><stop offset="0"/><stop offset="1" stop-opacity="0"/></linearGradient><linearGradient id="a"><stop offset="0" stop-opacity=".251"/><stop offset="1" stop-opacity="0"/></linearGradient><linearGradient x1="23.929" x2="41.317" y1="41.942" y2="29.228" xlink:href="#a" gradientUnits="userSpaceOnUse"/><linearGradient x1="30.21" x2="38.045" y1="37.335" y2="28.335" xlink:href="#a" gradientUnits="userSpaceOnUse"/><linearGradient id="j" x1="30.21" x2="38.045" y1="37.335" y2="28.335" xlink:href="#a" gradientUnits="userSpaceOnUse" gradientTransform="matrix(1.016 0 0 1.016 -.152 -.166)"/><linearGradient id="h" x1="23.181" x2="45.926" y1="41.355" y2="28.998" xlink:href="#b" gradientUnits="userSpaceOnUse" gradientTransform="matrix(1.016 0 0 1.016 -.37 -.383)"/><linearGradient id="i" x1="4.442" x2="11.357" y1="21.417" y2="42.692" xlink:href="#c" gradientUnits="userSpaceOnUse" gradientTransform="matrix(1.016 0 0 1.016 .201 .045)"/><linearGradient x1="42.143" x2="30.638" y1="20.301" y2="11.087" xlink:href="#d" gradientUnits="userSpaceOnUse"/><linearGradient id="g" x1="42.143" x2="18.281" y1="20.301" y2="8.801" xlink:href="#e" gradientUnits="userSpaceOnUse" gradientTransform="matrix(1.016 0 0 1.016 -.37 -.383)"/><linearGradient id="f" x1="18.643" x2="41.357" y1="43" y2="29.857" xlink:href="#c" gradientUnits="userSpaceOnUse" gradientTransform="matrix(1.016 0 0 1.016 -.37 -.383)"/></defs><g color="#000"><path fill="url(#f)" fill-rule="evenodd" d="M2.6 25.3c0 11.78 9.57 21.33 21.35 21.33 10.22 0 18.78-7.22 20.86-16.82l-8.88-2.15c-1.1 5.6-6.04 9.84-11.97 9.84-6.73 0-12.2-5.47-12.2-12.2H2.62z" overflow="visible" enable-background="accumulate"/><path fill="url(#g)" fill-rule="evenodd" d="M11.75 25.3c0-6.73 5.46-12.2 12.2-12.2 1.85 0 3.62.44 5.2 1.2l-4.4 5.6 20.52 1.37L39.15.95l-4.42 5.9c-3.16-1.84-6.86-2.88-10.8-2.88-11.77 0-21.32 9.56-21.32 21.33" overflow="visible" enable-background="accumulate"/><path fill="none" stroke="#fff" stroke-opacity=".502" stroke-width="2.5" d="M23.22 37.84c-6.73 0-12.2-5.46-12.2-12.2 0-6.72 5.47-12.18 12.2-12.18 1.86 0 3.62.43 5.2 1.17l-4.4 5.6 20.53 1.4L38.42 1.3l-4.4 5.9c-3.17-1.84-6.87-2.88-10.8-2.88-11.78 0-21.34 9.55-21.34 21.33 0 11.78 9.56 21.33 21.34 21.33" overflow="visible" enable-background="accumulate"/><path fill="none" stroke="url(#h)" stroke-opacity=".502" stroke-width="2.5" d="M23.22 46.98c10.22 0 18.78-7.2 20.86-16.82L35.18 28c-1.08 5.6-6.03 9.84-11.96 9.84" overflow="visible" enable-background="accumulate"/><path fill="url(#i)" fill-rule="evenodd" d="M39.66 1.35l-4.4 5.9c-3.18-1.84-6.88-2.85-10.8-2.85C12.67 4.4 3.1 13.96 3.1 25.73c0 7.36 3.72 13.85 9.4 17.7-4.56-3.93-7.47-9.7-7.47-16.17C5.05 15.48 14.6 5.9 26.4 5.9c3.92 0 7.62 1.03 10.78 2.88l3.37-4.48-.9-2.95zm-10.5 14l-3.9 4.95 2.97.2 3.37-4.26c-.8-.37-1.6-.7-2.45-.9z" overflow="visible" enable-background="accumulate"/><path fill="url(#j)" fill-rule="evenodd" d="M36.07 27.87c-1.1 5.6-6.04 9.84-11.97 9.84-2.38 0-4.6-.7-6.48-1.9 2.2 2.1 5.14 3.44 8.42 3.44C31.97 39.24 36.9 35 38 29.4l6.7 1.6c.1-.32.18-.63.26-.97l-8.9-2.16z" overflow="visible" enable-background="accumulate"/></g></svg>