<svg xmlns="http://www.w3.org/2000/svg" width="48" height="48" xmlns:xlink="http://www.w3.org/1999/xlink"><defs><linearGradient id="f"><stop offset="0" stop-color="#ffa6a6"/><stop offset="1" stop-color="#eeeeec" stop-opacity="0"/></linearGradient><linearGradient id="e"><stop offset="0" stop-color="#f15c2b"/><stop offset="1" stop-color="#c00"/></linearGradient><linearGradient id="d"><stop offset="0" stop-color="#eeeeec" stop-opacity="0"/><stop offset=".5" stop-color="#eeeeec" stop-opacity="0"/><stop offset="1" stop-color="#eeeeec"/></linearGradient><linearGradient><stop offset="0" stop-color="#fff"/><stop offset="1" stop-color="#d5d5d0"/></linearGradient><linearGradient id="c"><stop offset="0" stop-color="#fff" stop-opacity="0"/><stop offset="1" stop-color="#ff7100"/></linearGradient><linearGradient id="b"><stop offset="0" stop-color="#a40000" stop-opacity="0"/><stop offset="1" stop-color="#a40000"/></linearGradient><linearGradient id="a"><stop offset="0" stop-color="#ef2929"/><stop offset="1" stop-color="#c00" stop-opacity="0"/></linearGradient><linearGradient><stop offset="0" stop-color="#ef2929"/><stop offset="1" stop-color="#ef2929"/></linearGradient><linearGradient x1="24.63" x2="13.171" y1="23.342" y2="23.805" xlink:href="#a" gradientUnits="userSpaceOnUse" gradientTransform="matrix(1.12 0 0 1.121 -5.024 -2.604)"/><linearGradient x1="13.171" x2="21.621" y1="24.5" y2="24.5" xlink:href="#b" gradientUnits="userSpaceOnUse" gradientTransform="matrix(1.12 0 0 1.121 -5.024 -2.604)"/><linearGradient x1="20.838" x2="43.057" y1="21.03" y2="21.03" xlink:href="#c" gradientUnits="userSpaceOnUse" gradientTransform="matrix(.858 0 0 .857 -5.812 6.719)"/><linearGradient x1="24.63" x2="13.171" y1="23.342" y2="23.805" xlink:href="#a" gradientUnits="userSpaceOnUse" gradientTransform="matrix(1.12 0 0 1.121 -5.024 -2.604)"/><linearGradient x1="13.171" x2="21.621" y1="24.5" y2="24.5" xlink:href="#b" gradientUnits="userSpaceOnUse" gradientTransform="matrix(1.12 0 0 1.121 -5.024 -2.604)"/><linearGradient x1="20.838" x2="43.057" y1="21.03" y2="21.03" xlink:href="#c" gradientUnits="userSpaceOnUse" gradientTransform="matrix(.858 0 0 .857 -5.812 6.719)"/><linearGradient x1="20.838" x2="43.057" y1="21.03" y2="21.03" xlink:href="#c" gradientUnits="userSpaceOnUse" gradientTransform="matrix(.858 0 0 .857 -2.812 6.318)"/><linearGradient x1="24.63" x2="13.224" y1="23.342" y2="23.437" xlink:href="#a" gradientUnits="userSpaceOnUse" gradientTransform="matrix(1.12 0 0 1.121 -2.024 -3.005)"/><linearGradient x1="14.553" x2="21.621" y1="24.5" y2="24.5" xlink:href="#b" gradientUnits="userSpaceOnUse" gradientTransform="matrix(1.12 0 0 1.121 -2.024 -3.005)"/><linearGradient x1="24.63" x2="13.224" y1="23.342" y2="23.437" xlink:href="#a" gradientUnits="userSpaceOnUse" gradientTransform="matrix(1.12 0 0 1.121 -2.024 -3.005)"/><linearGradient x1="14.553" x2="21.621" y1="24.5" y2="24.5" xlink:href="#b" gradientUnits="userSpaceOnUse" gradientTransform="matrix(1.12 0 0 1.121 -2.024 -3.005)"/><linearGradient x1="20.838" x2="43.057" y1="21.03" y2="21.03" xlink:href="#c" gradientUnits="userSpaceOnUse" gradientTransform="matrix(.858 0 0 .857 -2.812 6.318)"/><radialGradient cx="23.734" cy="23.543" r="20.948" xlink:href="#d" fx="23.734" fy="23.543" gradientUnits="userSpaceOnUse"/><radialGradient id="g" cx=".438" cy=".425" r="25.584" xlink:href="#e" fx=".438" fy=".425" gradientUnits="userSpaceOnUse"/><linearGradient id="h" x1="-.002" x2="1.649" y1="-25.211" y2="34.03" xlink:href="#f" gradientUnits="userSpaceOnUse"/></defs><g color="#000" stroke-linecap="round"><path fill="url(#g)" stroke="#a40000" stroke-width="2.256" d="M22.1 13.56l-7 .3.33 7-6.58-2.4-2.38 6.58-5.15-4.74-4.72 5.17-2.96-6.35-6.34 2.98-.3-7-7 .32 2.4-6.58-6.57-2.38 4.73-5.16-5.17-4.72 6.34-2.95-2.97-6.34 7-.3-.33-7 6.58 2.4 2.38-6.6 5.16 4.75 4.72-5.17 2.95 6.35 6.34-2.98.3 7 7-.32L18.47-8l6.58 2.4L20.3-.46l5.2 4.72-6.37 2.95 2.98 6.34z" transform="matrix(.886 0 0 .886 23.712 23.627)" overflow="visible"/><path fill="none" stroke="url(#h)" stroke-width="1.27" d="M22.1 13.56l-7 .3.33 7-6.58-2.4-2.38 6.58-5.15-4.74-4.72 5.17-2.96-6.35-6.34 2.98-.3-7-7 .32 2.4-6.58-6.57-2.38 4.73-5.16-5.17-4.72 6.34-2.95-2.97-6.34 7-.3-.33-7 6.58 2.4 2.38-6.6 5.16 4.75 4.72-5.17 2.95 6.35 6.34-2.98.3 7 7-.32L18.47-8l6.58 2.4L20.3-.46l5.2 4.72-6.37 2.95 2.98 6.34z" transform="matrix(.787 0 0 .787 23.683 23.639)" overflow="visible"/></g></svg>