<svg xmlns="http://www.w3.org/2000/svg" width="48" height="48" xmlns:xlink="http://www.w3.org/1999/xlink" enable-background="new 0 0 792 612"><defs><defs><circle id="a" cx="176.807" cy="299.395" r="75.223"/></defs><clipPath id="b"><use width="792" height="612" overflow="visible" xlink:href="#a"/></clipPath></defs><use width="792" height="612" fill="#f47735" overflow="visible" xlink:href="#a" transform="matrix(.319 0 0 .319 -32.411 -71.522)"/><g fill="#fff" clip-path="url(#b)" transform="matrix(.319 0 0 .319 -32.411 -71.522)"><path d="M147.66 304.04l24.5 24.5-38.56 38.55-24.5-24.5z"/><path d="M147.66 304.04l24.5 24.5-38.56 38.55-24.5-24.5z"/><path d="M147.66 304.04l24.5 24.5-38.56 38.55-24.5-24.5z"/><path d="M147.66 304.04l24.5 24.5-38.56 38.55-24.5-24.5z"/><path d="M147.66 304.04l24.5 24.5-38.56 38.55-24.5-24.5z"/><path d="M147.66 304.04l24.5 24.5-38.56 38.55-24.5-24.5z"/><path d="M147.66 304.04l24.5 24.5-38.56 38.55-24.5-24.5z"/></g><path fill="#4b494b" d="M22.6 17.8L24 24l4.77-4.78L24 24l6.22 1.4-1.4-6.2-4.8 4.76 4.8-4.78-6.22-1.4"/><path fill="#42454f" d="M28.24 11.5l8.17 8.16-8.82 8.83-8.17-8.18z"/><path fill="#fff" d="M28.57 11.82l1.4 6.2 4.77-4.76-4.78 4.77 6.23 1.4-1.42-6.2L30 17.98l4.78-4.78-6.2-1.4"/><path fill="#fff" d="M24 24l6.2 1.4 7.36-7.35 2.7 8.77-10.6 10.58-9.37-2.04-7.66-7.64-2.03-9.38L21.2 7.76l8.77 2.68-7.35 7.35L24 24"/></svg>