<svg xmlns="http://www.w3.org/2000/svg" width="48" height="48" xmlns:xlink="http://www.w3.org/1999/xlink"><defs><linearGradient id="i"><stop offset="0" stop-color="#eeeeec" stop-opacity=".453"/><stop offset="1" stop-color="#eeeeec" stop-opacity="0"/></linearGradient><linearGradient id="h"><stop offset="0" stop-color="#eeeeec" stop-opacity=".59"/><stop offset="1" stop-color="#eeeeec" stop-opacity="0"/></linearGradient><linearGradient id="g"><stop offset="0" stop-color="#eeeeec"/><stop offset="1" stop-color="#eeeeec" stop-opacity="0"/></linearGradient><linearGradient id="d"><stop offset="0" stop-color="#f46565"/><stop offset="1" stop-color="#f46565" stop-opacity="0"/></linearGradient><linearGradient id="e"><stop offset="0" stop-color="#ef2929"/><stop offset=".268" stop-color="#ff7171"/><stop offset="1" stop-color="#c00"/></linearGradient><linearGradient id="f"><stop offset="0" stop-color="#b50000"/><stop offset="1" stop-color="#ff3a3a"/></linearGradient><linearGradient id="c"><stop offset="0" stop-color="#c0c6ba"/><stop offset="1" stop-color="#d3d7cf" stop-opacity="0"/></linearGradient><linearGradient id="b"><stop offset="0" stop-color="#a40000"/><stop offset="1" stop-color="#ef2929"/></linearGradient><linearGradient><stop offset="0" stop-color="#ef2929"/><stop offset="1" stop-color="#ef2929"/></linearGradient><linearGradient id="a"><stop offset="0" stop-color="#2e3436" stop-opacity=".773"/><stop offset="1" stop-color="#2e3436" stop-opacity="0"/></linearGradient><linearGradient id="l" x1="16.127" x2="16.095" y1="20.302" y2="36.111" xlink:href="#a" gradientUnits="userSpaceOnUse" gradientTransform="matrix(.957 0 0 .895 1.037 4.941)"/><linearGradient id="o" x1="16.127" x2="16.095" y1="20.302" y2="36.111" xlink:href="#a" gradientUnits="userSpaceOnUse" gradientTransform="matrix(-.957 0 0 .895 48.231 4.99)"/><linearGradient id="p" x1="25.135" x2="24.985" y1="46.96" y2="15.607" xlink:href="#b" gradientUnits="userSpaceOnUse" gradientTransform="matrix(.957 0 0 .895 1.037 4.941)"/><linearGradient id="m" x1="25.135" x2="24.927" y1="46.96" y2="14.752" xlink:href="#b" gradientUnits="userSpaceOnUse" gradientTransform="matrix(.957 0 0 .895 1.037 4.941)"/><linearGradient id="k" x1="24.957" x2="44.092" y1="35.204" y2="29.426" xlink:href="#c" gradientUnits="userSpaceOnUse"/><linearGradient id="n" x1="13.364" x2="14.827" y1="42.19" y2="7.856" xlink:href="#d" gradientUnits="userSpaceOnUse"/><linearGradient id="q" x1="13.364" x2="14.878" y1="42.19" y2="8.399" xlink:href="#d" gradientUnits="userSpaceOnUse" gradientTransform="matrix(-1 0 0 1 49.365 .032)"/><linearGradient id="x" x1="33.281" x2="36.456" y1="1.511" y2="6.885" xlink:href="#e" gradientUnits="userSpaceOnUse" gradientTransform="matrix(1.059 .236 -.199 1.259 .967 -7.303)"/><linearGradient id="v" x1="29.471" x2="26.39" y1="3.298" y2="10.954" xlink:href="#f" gradientUnits="userSpaceOnUse" gradientTransform="matrix(1.006 .224 -.189 1.195 2.437 -7.046)"/><linearGradient id="y" x1="38.978" x2="35.323" y1="9.251" y2="-.202" xlink:href="#g" gradientUnits="userSpaceOnUse"/><linearGradient x1="18.866" x2="23.761" y1="1.115" y2="11.528" xlink:href="#e" gradientUnits="userSpaceOnUse" gradientTransform="matrix(.983 .184 -.184 .983 2.78 -3.58)"/><linearGradient x1="14.89" x2="21.589" y1="1.835" y2="12.565" xlink:href="#f" gradientUnits="userSpaceOnUse" gradientTransform="matrix(.983 .184 -.184 .983 2.281 -3.674)"/><linearGradient x1="24.502" x2="19.036" y1="12.976" y2="-1.331" xlink:href="#g" gradientUnits="userSpaceOnUse"/><linearGradient id="j" x1="34.524" x2="31.985" y1="42.061" y2="32.854" xlink:href="#c" gradientUnits="userSpaceOnUse" gradientTransform="matrix(-1 0 0 1 47.985 -.029)"/><linearGradient x1="14.89" x2="21.589" y1="1.835" y2="12.565" xlink:href="#f" gradientUnits="userSpaceOnUse" gradientTransform="matrix(.983 .184 -.184 .983 2.281 -3.674)"/><linearGradient x1="18.866" x2="23.761" y1="1.115" y2="11.528" xlink:href="#e" gradientUnits="userSpaceOnUse" gradientTransform="matrix(.983 .184 -.184 .983 2.78 -3.58)"/><linearGradient x1="24.502" x2="19.036" y1="12.976" y2="-1.331" xlink:href="#g" gradientUnits="userSpaceOnUse"/><linearGradient id="u" x1="24.502" x2="19.036" y1="12.976" y2="-1.331" xlink:href="#g" gradientUnits="userSpaceOnUse" gradientTransform="matrix(1.189 0 .11 1 -5.884 0)"/><linearGradient id="t" x1="18.866" x2="23.761" y1="1.115" y2="11.528" xlink:href="#e" gradientUnits="userSpaceOnUse" gradientTransform="matrix(1.189 .184 -.111 .983 -2.973 -3.58)"/><linearGradient id="r" x1="14.89" x2="21.589" y1="1.835" y2="12.565" xlink:href="#f" gradientUnits="userSpaceOnUse" gradientTransform="matrix(1.189 .184 -.111 .983 -3.577 -3.674)"/><linearGradient id="s" x1="12.983" x2="22.436" y1=".999" y2="12.809" xlink:href="#h" gradientUnits="userSpaceOnUse"/><linearGradient id="w" x1="32.818" x2="23.861" y1="3.205" y2="12.958" xlink:href="#i" gradientUnits="userSpaceOnUse"/></defs><g><path fill="#eeeeec" fill-rule="evenodd" stroke="#2e3436" stroke-width="1.5" d="M24.86 9.86l-21.43 6.1V38l21.6 9.44L44.58 38V15.96l-19.7-6.1z"/><path fill="url(#j)" fill-rule="evenodd" d="M24.93 46.83V22.68L3.9 14.75v22.88l21.03 9.2z"/><path fill="url(#k)" fill-rule="evenodd" d="M24.96 47V22.82l19.13-8.05v22.88L24.95 47z"/><path fill="none" stroke="#fff" d="M4.45 15.32v22.02l20.6 9 18.5-8.87V15.44l-39.1-.12z"/><path fill="#2e3436" fill-opacity=".314" fill-rule="evenodd" d="M24.93 29.1l19.22-8.14v-4.1l-19.22 7.78v4.47z"/><path fill="#2e3436" fill-opacity=".188" fill-rule="evenodd" d="M24.9 29.24l-21-8.2V16.7l21 8.07v4.47z"/><path fill="#eeeeec" fill-rule="evenodd" stroke="#2e3436" stroke-width="1.5" d="M24.94 5.4L1.52 12.54v4.47l23.42 8.95 21.54-8.95v-4.47L24.94 5.4z"/><path fill="none" stroke="#fff" d="M24.83 6.44L2.47 13.27v3.06l22.36 8.53 20.57-8.53v-3.06L24.83 6.44z"/><path fill="#2e3436" fill-opacity=".251" fill-rule="evenodd" d="M24.96 25.52L46 16.74V13l-21.04 8.04v4.48z"/><path fill="#2e3436" fill-opacity=".125" fill-rule="evenodd" d="M25 25.52l-23-8.9V13l23 8.04v4.48z"/><path fill="url(#l)" fill-rule="evenodd" d="M13.8 22.1l3.5 1.3-.7 19.9-2.8-1.22V22.1z"/><path fill="url(#m)" fill-rule="evenodd" stroke="#a40000" d="M10.06 15.95l1.2 26 4.8 2.2-1.22-26.4 24-8.22-5.07-1.56-23.7 7.98z" stroke-linejoin="round"/><path fill="none" stroke="url(#n)" d="M11.07 16.57l1.1 24.68 2.74 1.34-1-25.5 22.08-7.6-2.28-.6-22.63 7.67z" stroke-linejoin="round"/><path fill="url(#o)" fill-rule="evenodd" d="M35.47 22.16l-3.5 1.28.7 19.9 2.8-1.2V22.15z"/><path fill="url(#p)" fill-rule="evenodd" stroke="#a40000" d="M39.2 15.94l-1.08 25.9-4.8 2.18 1.1-26.3L10.68 9.3l5.08-1.57 23.46 8.2z" color="#000" stroke-linejoin="round" overflow="visible"/><path fill="none" stroke="url(#q)" d="M38.3 16.6l-1.1 24.68-2.75 1.34 1.03-25.5-22.1-7.58 2.3-.6 22.6 7.66z" stroke-linejoin="round"/><path fill="url(#r)" fill-rule="evenodd" stroke="#a40000" d="M21.8 13.28l4.7-1.4C13.16 8.1 13.1 1.9 17.87.44l-5.12.1c-4.05.83-3 8.92 9.04 12.73z"/><path fill="none" stroke="url(#s)" d="M21.75 12.3c.96-.17 4.08-.65 2.68-.13C12.13 8 13.83 3.4 14.67 1.6c-.27-.14-.66-.13-1.97 0-2 .45-2.35 6.53 9.05 10.7z"/><path fill="url(#t)" fill-rule="evenodd" stroke="#a40000" d="M13.76.53c4.05-.85 8.1 12.66 8.13 12.6l5.24-1.2C27.12 11.9 23.2-.38 19.16.46l-5.4.06z"/><path fill="none" stroke="url(#u)" stroke-opacity=".528" d="M17.5 1.42c1.6 1.6 4.46 8.54 5.06 10.6l3.1-.45c-.33-1.38-3.08-9.2-5.96-10.18l-2.2.02z" color="#000" overflow="visible"/><path fill="url(#v)" fill-rule="evenodd" stroke="#a40000" d="M35.35 9.92l4.7-2.12c-2.87 2.38-9.9 2.58-11.5 2.8 1.02-1.6 5.24-8 8.82-9.04L32.4 2.72c-3.82 1.13-8.44 8.6-9.56 10.45 1.74-.25 9.35-.48 12.5-3.25z" color="#000" overflow="visible"/><path fill="none" stroke="url(#w)" d="M24.22 12.78c1.57-2.57 5.65-8.58 9.48-9.62"/><path fill="url(#x)" fill-rule="evenodd" stroke="#a40000" d="M35.25 10.5l4.85-1.43c2.44-3.4.82-8.07-3.2-7.6L32 2.8c4-.4 5.7 4.3 3.25 7.7z" color="#000" overflow="visible"/><path fill="none" stroke="url(#y)" stroke-opacity=".528" d="M37.05 8.9l2.45-.72c1.84-3.44-.08-5.76-2.05-5.8l-1.87.5c1.1.66 2.33 3.7 1.47 6.03z" color="#000" overflow="visible"/></g></svg>