<svg xmlns="http://www.w3.org/2000/svg" width="64" height="64" xmlns:xlink="http://www.w3.org/1999/xlink"><defs><linearGradient id="b"><stop offset="0" stop-color="#fce94f"/><stop offset="1" stop-color="#dda100"/></linearGradient><linearGradient id="a"><stop offset="0" stop-color="#729fcf"/><stop offset="1" stop-color="#204a87"/></linearGradient><radialGradient id="c" cx="30.59" cy="33.454" r="22.801" xlink:href="#a" fx="30.59" fy="33.454" gradientTransform="matrix(-1.494 -.003 .003 -1.435 79.432 79.211)" gradientUnits="userSpaceOnUse"/><radialGradient id="d" cx="31.091" cy="31.323" r="22.981" xlink:href="#b" fx="31.091" fy="31.323" gradientTransform="matrix(-1.369 -.017 .018 -1.421 73.093 76.379)" gradientUnits="userSpaceOnUse"/></defs><g><path fill="url(#c)" stroke="#20425e" stroke-width="1.5" d="M15.87 8.57c0-4.1 1.1-6.33 7.18-7.4 4.13-.7 9.43-.8 14.36 0 3.9.65 7.2 3.55 7.2 7.4V22.1c0 3.97-3.2 7.22-7.2 7.22H23.06c-4.87 0-8.98 4.15-8.98 8.84v6.5H9.14c-4.18 0-6.6-3-7.63-7.22-1.37-5.65-1.3-7.96 0-13.37 1.15-4.72 4.8-7.2 8.98-7.2H30.24v-2.88H15.87V8.56z"/><path fill="#fff" stroke="#20425e" d="M22.1 7.68c0-1.53 1.25-2.77 2.78-2.77 1.52 0 2.76 1.25 2.76 2.78 0 1.52-1.24 2.76-2.76 2.76-1.53 0-2.77-1.24-2.77-2.76z" color="#000" overflow="visible"/><path fill="none" stroke="#eeeeec" stroke-opacity=".502" d="M22.8 2.47c3.82-.67 10.15-.63 14.73.12 3.62.6 5.72 2.8 5.72 6.38l.12 13.14c0 3.68-3.2 6-6.9 6H23.14c-4.52 0-10.22 3.72-10.22 8.9v6.26H8.34c-3.87 0-4.7-2.8-5.66-6.7-1.28-5.24-.87-7.85.35-12.87 1.07-4.37 3.75-5.5 7.62-5.5H31.7l-.24-5.38-14.27-.35V7.44c-.12-2.5 1.58-3.95 5.6-4.97z"/><path fill="none" stroke="#eeeeec" stroke-opacity=".502" d="M21.15 7.7c0-2.1 1.68-3.77 3.76-3.77s3.76 1.68 3.76 3.76c0 2.06-1.68 3.74-3.75 3.74-2.07 0-3.75-1.68-3.75-3.75z" color="#000" overflow="visible"/><path fill="url(#d)" stroke="#b58609" stroke-width="1.5" d="M47.64 55.2c0 4.13-1.1 6.38-7.24 7.45-4.17.73-9.5.82-14.48 0-3.93-.64-7.24-3.57-7.24-7.45V41.56c0-4 3.2-7.28 7.24-7.28H40.4c4.9 0 9.05-4.18 9.05-8.9V18.8h4.98c4.2 0 6.66 3.04 7.7 7.28 1.38 5.7 1.32 8.02 0 13.48-1.16 4.76-4.85 7.27-9.06 7.27H33.16v2.9h14.48v5.45z" color="#000" overflow="visible"/><path fill="#fff" stroke="#b58609" d="M41.35 56.1c0 1.54-1.25 2.8-2.8 2.8-1.52 0-2.77-1.26-2.77-2.8 0-1.53 1.25-2.78 2.78-2.78 1.54 0 2.8 1.25 2.8 2.78z" color="#000" overflow="visible"/><path fill="none" stroke="#eeeeec" stroke-opacity=".753" d="M40.66 61.35c-3.86.68-10.24.64-14.85-.12-3.64-.6-5.76-2.83-5.76-6.44l-.12-13.26c0-3.7 3.22-6.04 6.96-6.04H40.3c4.57 0 10.3-3.76 10.3-8.98v-6.3h4.63c3.9 0 4.75 2.8 5.7 6.74 1.3 5.3.88 7.92-.35 12.98-1.07 4.42-3.77 5.56-7.68 5.56H31.7l.22 5.42 14.4.36v5.06c.1 2.5-1.6 3.98-5.66 5z"/><path fill="none" stroke="#eeeeec" stroke-opacity=".502" d="M42.32 56.1c0 2.08-1.7 3.78-3.8 3.78-2.08 0-3.77-1.7-3.77-3.8 0-2.08 1.7-3.77 3.78-3.77 2.1 0 3.8 1.7 3.8 3.8z" color="#000" overflow="visible"/></g></svg>