<svg xmlns="http://www.w3.org/2000/svg" width="20" height="20" xmlns:xlink="http://www.w3.org/1999/xlink" version="1"><defs><linearGradient id="c"><stop offset="0" stop-color="#faa824"/><stop offset="1" stop-color="#f6ff45"/></linearGradient><linearGradient id="b"><stop offset="0" stop-color="#b85100"/><stop offset="1" stop-color="#733300"/></linearGradient><linearGradient id="a"><stop offset="0" stop-color="#ffcf4c"/><stop offset="1" stop-color="#fdb900"/></linearGradient><radialGradient cx="9.382" cy="11.484" r="10.058" xlink:href="#a" fx="9.382" fy="11.484" gradientTransform="matrix(1 0 0 .957 0 .491)" gradientUnits="userSpaceOnUse"/><linearGradient x1="14.023" x2="5.392" y1="3.803" y2="16.036" xlink:href="#b" gradientUnits="userSpaceOnUse"/><linearGradient x1="12" x2="7" y1="16" y2="5" xlink:href="#c" gradientUnits="userSpaceOnUse"/></defs><g><path fill="none" stroke="#767676" stroke-width="1.8" d="M10 1c.4 0 2.3 6.12 2.65 6.36.33.24 6.73.16 6.86.55.14.4-5.1 4.1-5.22 4.5-.13.38 1.93 6.45 1.6 6.7-.34.23-5.47-3.6-5.88-3.6-.4 0-5.54 3.83-5.88 3.6-.33-.25 1.73-6.32 1.6-6.7C5.6 12 .36 8.3.5 7.9.6 7.53 7 7.6 7.34 7.37 7.7 7.12 9.6 1 10 1z"/></g></svg>