<svg xmlns="http://www.w3.org/2000/svg" width="20" height="20" xmlns:xlink="http://www.w3.org/1999/xlink" version="1"><defs><linearGradient id="c"><stop offset="0" stop-color="#faa824"/><stop offset="1" stop-color="#f6ff45"/></linearGradient><linearGradient id="b"><stop offset="0" stop-color="#b85100"/><stop offset="1" stop-color="#733300"/></linearGradient><linearGradient id="a"><stop offset="0" stop-color="#ffcf4c"/><stop offset="1" stop-color="#fdb900"/></linearGradient><radialGradient cx="9.382" cy="11.484" r="10.058" xlink:href="#a" fx="9.382" fy="11.484" gradientTransform="matrix(1 0 0 .957 0 .491)" gradientUnits="userSpaceOnUse"/><linearGradient x1="14.023" x2="5.392" y1="3.803" y2="16.036" xlink:href="#b" gradientUnits="userSpaceOnUse"/><linearGradient x1="12" x2="7" y1="16" y2="5" xlink:href="#c" gradientUnits="userSpaceOnUse"/><linearGradient id="i" x1="12" x2="7" y1="16" y2="5" gradientUnits="userSpaceOnUse" xlink:href="#d"/><linearGradient x1="14.023" x2="5.392" y1="3.803" y2="16.036" gradientUnits="userSpaceOnUse" xlink:href="#e"/><radialGradient cx="9.382" cy="11.484" r="10.058" gradientUnits="userSpaceOnUse" gradientTransform="matrix(1 0 0 .957 0 .491)" fy="11.484" fx="9.382" xlink:href="#f"/><linearGradient id="f"><stop offset="0" stop-color="#ffcf4c"/><stop offset="1" stop-color="#fdb900"/></linearGradient><linearGradient id="e"><stop offset="0" stop-color="#b85100"/><stop offset="1" stop-color="#733300"/></linearGradient><linearGradient id="d"><stop offset="0" stop-color="#faa824"/><stop offset="1" stop-color="#f6ff45"/></linearGradient><clipPath id="h"><path d="M-5-1h15v22H-5z"/></clipPath><clipPath id="g"><path d="M10-2h15v22H10z"/></clipPath></defs><g><path fill="none" stroke="#767676" stroke-width="1.4" d="M10 0c.4 0 2.3 6.12 2.65 6.36.33.24 6.73.16 6.86.55.14.4-5.1 4.1-5.22 4.5-.13.38 1.93 6.45 1.6 6.7-.34.23-5.47-3.6-5.88-3.6-.4 0-5.54 3.83-5.88 3.6-.33-.25 1.73-6.32 1.6-6.7C5.6 11 .36 7.3.5 6.9.6 6.53 7 6.6 7.34 6.37 7.7 6.12 9.6 0 10 0z" transform="translate(0 1)" clip-path="url(#g)"/><g clip-path="url(#h)"><path fill="url(#i)" fill-rule="evenodd" stroke="#e67e02" d="M10 0c.4 0 2.3 6.12 2.65 6.36.33.24 6.73.16 6.86.55.14.4-5.1 4.1-5.22 4.5-.13.38 1.93 6.45 1.6 6.7-.34.23-5.47-3.6-5.88-3.6-.4 0-5.54 3.83-5.88 3.6-.33-.25 1.73-6.32 1.6-6.7C5.6 11 .36 7.3.5 6.9.6 6.53 7 6.6 7.34 6.37 7.7 6.12 9.6 0 10 0z" transform="translate(0 1)"/></g></g></svg>