<svg xmlns="http://www.w3.org/2000/svg" width="48" height="48" xmlns:xlink="http://www.w3.org/1999/xlink"><defs><linearGradient id="c"><stop offset="0" stop-color="#2541b2"/><stop offset="1"/></linearGradient><linearGradient id="b"><stop offset="0" stop-color="#fff"/><stop offset="1" stop-color="#dadada"/></linearGradient><linearGradient id="a"><stop offset="0" stop-color="#5b9ee7"/><stop offset="1" stop-color="#1e62ba"/></linearGradient><linearGradient id="d" x1="1.962" x2="46.24" y1="6.445" y2="39.881" xlink:href="#a" gradientUnits="userSpaceOnUse" gradientTransform="matrix(.839 -.225 .225 .839 -2.284 8.307)"/><linearGradient id="f" x1="18.789" x2="44.447" y1="22.948" y2="31.029" xlink:href="#b" gradientUnits="userSpaceOnUse"/><linearGradient id="e" x1="19.214" x2="26.488" y1="8.188" y2="20.045" xlink:href="#c" gradientUnits="userSpaceOnUse"/></defs><g><path fill-rule="evenodd" d="M38.42 4.06c-.2 0-.38.02-.56.07l-33.22 8.9c-1.5.4-2.25 2.4-1.7 4.47L9.5 41.9c.3 1.16 1.8 1.78 3.28 1.38l33.2-8.9c1.48-.4 2.42-1.66 2.1-2.82l-6.52-24.4c-.48-1.82-1.8-3.08-3.12-3.1z" opacity=".3" color="#000" overflow="visible" enable-background="accumulate"/><path fill="url(#d)" fill-rule="evenodd" stroke="url(#e)" d="M3.76 27.5L.68 16.02c-.55-2.07.2-4.07 1.7-4.47l33.2-8.9c1.5-.4 3.14.96 3.7 3.03L42.4 17.4 3.76 27.5z" color="#000" overflow="visible" enable-background="accumulate"/><path fill="url(#f)" fill-rule="evenodd" stroke="#000" d="M42.23 16.8l3.6 13.3c.3 1.16-.65 2.4-2.15 2.8l-33.2 8.9c-1.5.4-2.94-.2-3.25-1.36L3.57 26.86" color="#000" overflow="visible" enable-background="accumulate"/><g fill="#204a87" font-size="6.973" text-anchor="middle" font-family="Arial Black"><path d="M8.05 12.28l1.5-.4.45 1.7 1.63-.45-.46-1.7 1.5-.4 1.3 4.84-1.5.4-.52-1.95-1.64.44.54 1.95-1.5.4-1.3-4.82z" style="text-align:center;line-height:100%"/><path d="M13.63 10.8l1.34-.37.25.9-1.34.37-.25-.9z" style="text-align:center;line-height:100%"/><path d="M14 12.12l1.33-.36.94 3.5-1.34.35-.94-3.48z" style="text-align:center;line-height:100%"/><path d="M16.78 13.7l1.43-.4.3 1.1c.12.42.12.76 0 1.04-.1.28-.33.57-.7.86l-.46-.5c.23-.2.37-.36.43-.5.07-.14.08-.3.05-.46l-.68.18-.36-1.33z" style="text-align:center;line-height:100%"/><path d="M20.7 10.32l1.27-.34.13.5c.13-.25.27-.45.43-.6.16-.13.36-.23.62-.3.28-.08.52-.1.7-.03.2.05.37.16.52.33.15-.28.3-.5.46-.62.15-.13.35-.23.6-.3.38-.1.7-.06.97.1.27.17.47.5.6.97l.6 2.2-1.35.35-.54-2c-.03-.15-.1-.26-.18-.32-.12-.1-.25-.12-.38-.1-.16.05-.27.15-.34.3-.06.13-.06.32 0 .57l.5 1.8-1.36.37-.5-1.93c-.05-.15-.1-.25-.12-.3-.05-.08-.12-.14-.2-.18-.1-.04-.18-.05-.28-.02-.15.04-.26.13-.33.28-.06.14-.05.34.02.6l.48 1.8-1.35.35-.94-3.48z" style="text-align:center;line-height:100%"/><path d="M27.06 8.6l1.42-.36 1.35 2.13.04-2.5 1.32-.36-.4 4.12c-.04.47-.12.8-.24 1-.18.27-.5.47-.98.6-.2.05-.5.1-.92.15l-.36-.9c.2 0 .44-.02.67-.08.16-.06.28-.13.36-.23.08-.1.12-.25.14-.45l-2.4-3.1z" style="text-align:center;line-height:100%"/><path d="M7.65 21.33L8.9 21l.15.57c.12-.28.27-.5.43-.65.17-.15.4-.27.66-.34.37-.1.7-.07.96.1.27.16.47.48.6.94l.6 2.22-1.36.36-.52-1.92c-.06-.22-.14-.37-.24-.44-.1-.07-.24-.08-.38-.04-.17.04-.28.14-.35.3-.07.14-.06.37.03.7l.45 1.67-1.34.36-.95-3.5z" style="text-align:center;line-height:100%"/><path d="M13.68 20.93l-1.32.2c0-.23.02-.42.07-.58.06-.15.16-.3.3-.44.1-.1.27-.18.47-.28.2-.1.43-.18.7-.24.4-.1.72-.17.97-.2.26 0 .5.02.7.12.13.07.26.2.37.35.1.17.2.33.24.5l.4 1.54c.06.15.1.28.15.37.04.1.12.2.23.32l-1.26.33c-.07-.08-.12-.14-.15-.18-.03-.05-.07-.12-.1-.2-.14.2-.28.37-.44.5-.2.15-.46.27-.77.36-.42.12-.76.1-1.03-.03-.27-.14-.44-.34-.52-.63-.07-.26-.05-.5.06-.72.1-.2.36-.4.76-.6.48-.25.78-.4.92-.48.14-.08.28-.18.43-.3-.04-.16-.1-.26-.2-.3-.08-.06-.2-.06-.38 0-.22.05-.37.13-.46.23-.06.07-.1.2-.12.36zm1.36.4c-.17.1-.35.22-.53.32-.25.15-.4.27-.45.36-.06.1-.08.2-.05.28.03.1.1.2.18.23.1.06.2.06.35.03.15-.04.28-.12.4-.22.1-.1.17-.2.2-.33.02-.12 0-.26-.04-.43l-.06-.22z" style="text-align:center;line-height:100%"/><path d="M16.67 18.92l1.26-.34.13.5c.13-.25.27-.45.43-.6.15-.13.36-.23.62-.3.27-.08.5-.1.7-.03.2.05.36.16.5.33.16-.28.32-.5.47-.62.14-.13.34-.23.6-.3.37-.1.7-.06.97.1.27.17.47.5.6.97l.58 2.2-1.34.35-.53-2c-.04-.15-.1-.26-.18-.32-.14-.1-.26-.12-.4-.1-.16.05-.27.14-.34.28-.06.14-.06.34 0 .6l.5 1.8-1.35.36-.5-1.93c-.05-.15-.1-.25-.12-.3-.05-.08-.12-.14-.2-.18-.1-.04-.18-.05-.27-.02-.15.04-.26.13-.33.28-.06.14-.06.34 0 .6l.5 1.8-1.36.35-.93-3.48z" style="text-align:center;line-height:100%"/><path d="M27.86 18.15l-2.7.72c.1.2.2.36.3.44.18.12.37.15.58.1.13-.04.25-.1.35-.2.05-.06.1-.16.17-.3l1.35-.22c-.1.4-.28.73-.53.95-.25.23-.64.42-1.18.56-.46.12-.84.15-1.14.1-.3-.07-.58-.22-.83-.46-.25-.23-.43-.54-.53-.93-.15-.54-.1-1.03.17-1.46.25-.43.7-.73 1.3-.9.5-.13.92-.16 1.25-.08.33.07.6.23.84.48.22.24.4.6.52 1.06l.04.15zm-1.54-.28c-.1-.25-.2-.4-.36-.5-.14-.08-.3-.1-.5-.04-.2.05-.35.18-.43.4-.05.1-.06.28-.03.5l1.32-.36z" style="text-align:center;line-height:100%"/><path d="M29.87 13.95l1.34-.35.26.9-1.35.37-.23-.92z" style="text-align:center;line-height:100%"/><path d="M30.23 15.3l1.34-.37.94 3.5-1.34.35-.93-3.5z" style="text-align:center;line-height:100%"/><path d="M32.87 17.3l1.3-.5c.1.15.2.24.32.28.1.05.25.04.4 0 .2-.05.32-.12.4-.23.06-.07.08-.16.06-.24-.03-.1-.1-.15-.2-.18-.1 0-.3 0-.62.02-.5.04-.84.06-1.04.03-.2-.02-.38-.1-.55-.22-.17-.13-.28-.3-.34-.52-.05-.23-.03-.44.06-.65.1-.2.24-.37.45-.52.22-.14.53-.27.92-.38.42-.1.74-.16.95-.15.22 0 .4.07.58.17.17.1.33.25.48.45l-1.24.47c-.08-.1-.15-.17-.24-.2-.13-.05-.26-.05-.4 0-.17.03-.27.1-.32.16-.06.07-.08.15-.05.22 0 .1.07.14.17.16.1.02.3 0 .6-.03.46-.07.8-.1 1.06-.06.24.03.44.12.6.25.16.14.27.3.32.5.05.2.05.42-.03.65-.07.22-.22.42-.45.6-.23.2-.57.34-1.03.46-.64.17-1.12.2-1.44.1-.32-.1-.56-.33-.73-.64z" style="text-align:center;line-height:100%"/></g><g fill="#eeeeec" font-size="6.973" text-anchor="middle" font-family="Arial Black"><path d="M7.65 12l1.5-.4.44 1.7 1.62-.43-.45-1.7 1.5-.4 1.3 4.83-1.5.4-.53-1.95-1.63.44.53 1.94-1.5.4L7.66 12z" style="text-align:center;line-height:100%"/><path d="M13.23 10.52l1.34-.36.24.9-1.33.37-.24-.9z" style="text-align:center;line-height:100%"/><path d="M13.6 11.85l1.33-.36.93 3.5-1.34.35-.93-3.5z" style="text-align:center;line-height:100%"/><path d="M16.37 13.42l1.44-.38.3 1.1c.1.4.1.75 0 1.03s-.33.57-.7.86l-.46-.5c.22-.2.36-.36.43-.5.06-.14.08-.3.05-.46l-.7.2-.35-1.35z" style="text-align:center;line-height:100%"/><path d="M20.3 10.05l1.26-.34.14.52c.12-.26.26-.46.42-.6.16-.14.37-.24.63-.3.28-.1.5-.1.7-.04.2.06.36.17.52.33.15-.27.3-.48.45-.6.15-.13.36-.23.6-.3.4-.1.7-.07.98.1.27.16.47.48.6.96l.6 2.2-1.36.36-.53-2c-.04-.16-.1-.26-.18-.33-.12-.1-.25-.13-.38-.1-.16.05-.28.14-.34.28-.07.14-.07.33 0 .6l.5 1.8-1.36.35-.52-1.93c-.04-.15-.07-.25-.1-.3-.06-.08-.13-.14-.2-.17-.1-.04-.2-.04-.28-.02-.15.05-.26.14-.33.3-.06.13-.06.33 0 .6l.5 1.8-1.35.35-.94-3.5z" style="text-align:center;line-height:100%"/><path d="M26.66 8.35l1.42-.38 1.34 2.13.05-2.5 1.32-.36-.4 4.1c-.04.48-.12.8-.25 1-.18.28-.5.48-.98.6-.2.06-.5.1-.92.17l-.35-.9c.2 0 .43-.02.67-.08.16-.04.27-.1.35-.2.08-.1.13-.26.15-.47l-2.4-3.1z" style="text-align:center;line-height:100%"/><path d="M7.24 21.06l1.25-.33.15.57c.12-.28.26-.5.43-.65.16-.15.38-.26.66-.34.37-.1.7-.05.96.1.27.17.46.5.6.95l.58 2.22-1.35.36-.5-1.92c-.07-.2-.15-.35-.26-.42-.1-.07-.23-.1-.38-.05-.17.04-.3.14-.35.3-.07.14-.06.38.02.7l.45 1.67-1.34.36-.94-3.5z" style="text-align:center;line-height:100%"/><path d="M13.28 20.66l-1.32.2c0-.23 0-.42.07-.57.05-.17.16-.3.3-.45.1-.1.26-.2.47-.3.2-.1.43-.17.68-.24.4-.1.73-.16 1-.18.24-.02.47.02.67.12.14.06.27.18.4.34.1.17.18.33.22.5l.42 1.54c.03.17.08.3.12.38.05.1.13.2.24.32l-1.26.34c-.08-.08-.13-.14-.16-.18-.03-.04-.06-.1-.1-.2-.13.2-.28.37-.43.5-.2.15-.46.27-.78.36-.42.1-.76.1-1.03-.04-.27-.13-.45-.34-.52-.63-.07-.26-.05-.5.06-.7.1-.23.36-.43.76-.63.47-.23.78-.4.92-.47.14-.08.28-.18.43-.3-.04-.15-.1-.26-.2-.3-.08-.06-.2-.06-.38 0-.22.05-.38.13-.47.23-.07.08-.1.2-.12.36zm1.35.4c-.17.1-.34.22-.53.33-.25.13-.4.25-.46.34-.05.1-.07.18-.04.28.02.1.08.18.17.22.1.05.2.06.36.02.15-.04.28-.12.38-.22.12-.1.2-.22.22-.34.02-.12 0-.26-.03-.43l-.07-.2z" style="text-align:center;line-height:100%"/><path d="M16.27 18.65l1.25-.34.14.52c.12-.26.26-.46.42-.6.16-.14.37-.24.63-.3.3-.1.52-.1.7-.04.2.05.37.17.53.33.15-.27.3-.48.45-.6.15-.14.36-.23.6-.3.4-.1.7-.07.98.1.27.16.47.48.6.96l.6 2.2-1.36.36-.53-2c-.04-.16-.1-.27-.2-.33-.1-.1-.24-.13-.37-.1-.16.05-.27.14-.34.28s-.06.33 0 .6l.5 1.8-1.36.35-.5-1.93c-.06-.15-.1-.25-.12-.3-.06-.08-.13-.14-.2-.17-.1-.04-.18-.04-.28-.02-.15.05-.26.14-.33.3-.07.13-.07.33 0 .6l.48 1.8-1.34.35-.93-3.5z" style="text-align:center;line-height:100%"/><path d="M27.45 17.88l-2.7.72c.1.2.2.36.32.44.17.1.36.14.57.1.13-.05.24-.1.35-.2.05-.07.1-.17.16-.3l1.36-.23c-.1.42-.3.74-.53.97-.26.23-.65.4-1.18.55-.47.13-.85.16-1.15.1-.3-.06-.58-.2-.83-.44s-.42-.55-.53-.94c-.13-.54-.08-1.03.18-1.47.26-.43.7-.73 1.32-.9.5-.13.92-.16 1.25-.08.33.06.6.22.83.47.23.25.4.6.53 1.06l.05.15zm-1.53-.27c-.1-.25-.22-.4-.36-.5-.14-.08-.3-.1-.5-.04-.2.05-.35.18-.44.4-.05.1-.06.3-.02.5l1.32-.35z" style="text-align:center;line-height:100%"/><path d="M29.47 13.7l1.34-.37.25.9-1.34.37-.23-.9z" style="text-align:center;line-height:100%"/><path d="M29.82 15.02l1.34-.36.94 3.5-1.34.36-.94-3.5z" style="text-align:center;line-height:100%"/><path d="M32.47 17.02l1.3-.48c.1.14.2.23.32.28.1.04.25.04.4 0 .2-.06.32-.13.4-.24.06-.07.08-.15.06-.24-.03-.1-.1-.16-.22-.18-.08-.02-.28-.02-.6 0-.5.06-.84.07-1.04.05-.2 0-.38-.1-.55-.22-.17-.13-.28-.3-.34-.5-.05-.25-.04-.46.05-.66.1-.2.24-.38.45-.53.22-.15.52-.28.92-.38.42-.12.73-.17.95-.16.2 0 .4.07.57.17.17.1.33.25.48.45l-1.24.47c-.06-.1-.14-.17-.23-.2-.12-.05-.26-.05-.4 0-.16.03-.26.1-.32.16-.05.08-.07.16-.05.24.02.08.1.13.18.15.1 0 .3 0 .6-.04.47-.07.82-.1 1.06-.06.24.04.44.12.6.26.16.13.27.3.32.5.06.2.05.4-.02.64-.07.22-.22.43-.45.6-.24.2-.58.34-1.03.47-.64.17-1.12.2-1.44.1-.32-.12-.56-.33-.73-.65z" style="text-align:center;line-height:100%"/></g><path fill="none" stroke="#000" stroke-width="1.8" d="M9.45 38.15L42.8 29" stroke-dasharray="1.8,1.8"/><path fill="none" stroke="#90b4db" d="M4.54 26.73L1.67 16.3c-.5-1.82.18-3.57 1.5-3.93l32.07-8.7c1.32-.35 2.78.84 3.27 2.67l2.93 10.63" color="#000" overflow="visible" enable-background="accumulate"/><path fill="none" stroke="#fff" d="M41.43 17.23l3.3 11.7c.5 1.83-.4 2.87-1.72 3.22l-32.05 8.7c-1.32.36-2.78-.83-3.27-2.66L4.6 26.83" color="#000" overflow="visible" enable-background="accumulate"/></g></svg>