<svg xmlns="http://www.w3.org/2000/svg" width="48" height="48" xmlns:xlink="http://www.w3.org/1999/xlink"><defs><linearGradient id="o"><stop offset="0"/><stop offset="1" stop-color="#444642"/></linearGradient><linearGradient id="n"><stop offset="0" stop-color="#888a85"/><stop offset="1" stop-color="#888a85" stop-opacity="0"/></linearGradient><linearGradient id="m"><stop offset="0" stop-color="#fff"/><stop offset="1" stop-color="#555753"/></linearGradient><linearGradient id="l"><stop offset="0" stop-color="#2e3436"/><stop offset=".304" stop-color="#2e3436"/><stop offset="1" stop-color="#2e3436" stop-opacity="0"/></linearGradient><linearGradient id="k"><stop offset="0" stop-color="#748388"/><stop offset="1" stop-color="#2e3436"/></linearGradient><linearGradient><stop offset="0" stop-color="#eeeeec" stop-opacity=".376"/><stop offset="1" stop-color="#eeeeec" stop-opacity="0"/></linearGradient><linearGradient id="j"><stop offset="0" stop-color="#eeeeec"/><stop offset="1" stop-color="#eeeeec" stop-opacity="0"/></linearGradient><linearGradient id="i"><stop offset="0" stop-color="#2e3436" stop-opacity=".502"/><stop offset="1" stop-color="#2e3436" stop-opacity="0"/></linearGradient><linearGradient id="h"><stop offset="0"/><stop offset="1" stop-color="#7f7f7f"/></linearGradient><linearGradient id="g"><stop offset="0" stop-color="#888a85"/><stop offset="1" stop-color="#363734"/></linearGradient><linearGradient id="f"><stop offset="0" stop-color="#3f3f3f"/><stop offset="1"/></linearGradient><linearGradient id="e"><stop offset="0" stop-opacity="0"/><stop offset="1"/></linearGradient><linearGradient id="d"><stop offset="0" stop-color="#6e706b" stop-opacity="0"/><stop offset=".286" stop-color="#5c5e59"/><stop offset="1" stop-color="#2e3436" stop-opacity="0"/></linearGradient><linearGradient id="c"><stop offset="0" stop-color="#fff"/><stop offset="1" stop-color="#a3a397"/></linearGradient><linearGradient id="b"><stop offset="0" stop-color="#181b1d"/><stop offset="1" stop-color="#555753"/></linearGradient><linearGradient id="a"><stop offset="0" stop-color="#696969"/><stop offset=".433" stop-color="#717171"/><stop offset=".866" stop-color="#373737"/><stop offset="1" stop-color="#2c2c2c"/></linearGradient><linearGradient id="u" x1="22.952" x2="25.161" y1="8" y2="26.19" xlink:href="#a" gradientUnits="userSpaceOnUse" gradientTransform="matrix(.97 0 0 .97 .023 .016)"/><radialGradient id="q" cx="24.927" cy="45.103" r="23.236" xlink:href="#b" fx="24.927" fy="45.103" gradientTransform="matrix(2.829 -.215 .093 1.227 -50.535 -8.046)" gradientUnits="userSpaceOnUse"/><linearGradient id="x" x1="29.709" x2="29.39" y1="30.86" y2="26.336" xlink:href="#c" gradientUnits="userSpaceOnUse" gradientTransform="matrix(.97 0 0 .97 .023 .016)"/><linearGradient id="B" x1="8.349" x2="1.81" y1="25.665" y2="25.665" xlink:href="#d" gradientUnits="userSpaceOnUse" gradientTransform="matrix(.97 0 0 .97 .023 .016)"/><linearGradient id="t" x1="22.215" x2="20.086" y1="33.889" y2="19.462" xlink:href="#e" gradientUnits="userSpaceOnUse" gradientTransform="matrix(.97 0 0 .97 .404 .111)"/><linearGradient id="v" x1="14.293" x2="19.363" y1="8.024" y2="29.657" xlink:href="#f" gradientUnits="userSpaceOnUse" gradientTransform="matrix(.97 0 0 .97 .023 .016)"/><linearGradient id="z" x1="14.198" x2="20.849" y1="7.444" y2="11.952" xlink:href="#g" gradientUnits="userSpaceOnUse" gradientTransform="matrix(.97 0 0 .97 .023 .386)"/><linearGradient id="A" x1="14.198" x2="20.849" y1="7.444" y2="11.952" xlink:href="#g" gradientUnits="userSpaceOnUse" gradientTransform="matrix(.97 0 0 .97 15.475 -1.107)"/><linearGradient id="E" x1="23.656" x2="21.6" y1="3.158" y2=".018" xlink:href="#h" gradientUnits="userSpaceOnUse" gradientTransform="matrix(.97 0 0 .97 .023 .016)"/><linearGradient id="w" x1="27.859" x2="28.447" y1="12.326" y2="16.113" xlink:href="#i" gradientUnits="userSpaceOnUse" gradientTransform="matrix(.97 0 0 .97 .023 .016)"/><linearGradient id="s" x1="2.037" x2="42.792" y1="11.492" y2="48.063" xlink:href="#j" gradientUnits="userSpaceOnUse" gradientTransform="matrix(.97 0 0 .97 .023 .016)"/><radialGradient id="D" cx="20.359" cy="2.531" r="9.519" xlink:href="#k" fx="20.359" fy="2.531" gradientTransform="matrix(.595 -.333 .106 .19 7.372 9.846)" gradientUnits="userSpaceOnUse"/><radialGradient id="p" cx="27.095" cy="43.381" r="23.857" xlink:href="#l" fx="27.095" fy="43.381" gradientTransform="matrix(1 0 0 .285 0 30.999)" gradientUnits="userSpaceOnUse"/><linearGradient id="y" x1="27.005" x2="27.957" y1="24.541" y2="31.505" xlink:href="#m" gradientUnits="userSpaceOnUse"/><linearGradient id="C" x1="19.908" x2="15.906" y1="11.798" y2="8.75" xlink:href="#n" gradientUnits="userSpaceOnUse"/><linearGradient id="F" x1="19.908" x2="15.906" y1="11.798" y2="8.75" xlink:href="#n" gradientUnits="userSpaceOnUse" gradientTransform="translate(15.426 -1.417)"/><linearGradient id="r" x1="3.405" x2="4.495" y1="45.171" y2="10.512" xlink:href="#o" gradientUnits="userSpaceOnUse"/></defs><g><path fill="url(#p)" fill-rule="evenodd" d="M50.95 43.38a23.86 6.8 0 1 1-47.7 0 23.86 6.8 0 1 1 47.7 0z" transform="matrix(.929 -.093 .087 .985 -2.894 .837)" color="#000" overflow="visible"/><path fill="url(#q)" fill-rule="evenodd" stroke="url(#r)" d="M.76 12.9v27.8c1.44.42 3.7 3.38 4.45 4.43.6.84 2 1.2 2.92.8 11.6-.9 23.17-3.1 34.75-5.8.95-.4 1.6-1 1.83-1.9 0 0 .6-26-.62-28.35-.64-1.22-1.26-2.08-4.7-3.12-8.93-.23-24.33 1.4-36.75 3.55C1.4 10.47.8 11.35.76 12.9z"/><path fill="none" stroke="url(#s)" stroke-opacity=".502" d="M1.68 13.53l-.24 26.43c1.37.4 3.53 3.23 4.26 4.24.58.8 1.92 1.15 2.8.77 11.1-.88 22.78-3.23 33.9-5.83.9-.38 1.2-.47 1.44-1.3 0 0 .6-24.95-.6-27.22-.6-1.17-1.2-2-4.5-3-8.58-.2-23.35 1.35-35.26 3.4-1.18.16-1.76 1-1.8 2.5z"/><path fill="url(#t)" fill-rule="evenodd" d="M7.2 15.34c.28 1.24.62 11.62.53 12.9-.08 1.2.48 1.75 1.46 1.9 13.43 1.82 23.68-1.36 34.7-4.23.82-.2 1.34-1 1.43-1.98.1-1.1.14-11 .1-12.64l-42.37-.43c1.57 1 3.83 3.23 4.13 4.5z"/><path fill="url(#u)" fill-rule="evenodd" stroke="url(#v)" d="M2.55 10.4s4.28 1.9 5.8 4.47c.62 1.06.43 7.8.22 11-.08 1.18.48 1.74 1.46 1.88 13.44 1.83 23.7-1.35 34.7-4.22.83-.22 1.34-1.02 1.44-2 .3-2.92.02-9.6-.5-10.76-1.17-2.73-3.9-3.9-6.37-4-8.7-.4-24.9 1.3-36.75 3.64z" stroke-linejoin="bevel"/><path fill="none" stroke="#eeeeec" stroke-opacity=".376" stroke-miterlimit="4.4" d="M5.24 10.8s2.55 1.4 3.98 3.8c.58 1 .53 7.7.33 10.7-.07 1.1.44 1.7 1.37 1.77 11.98.87 22.87-1.74 32.66-4.25.78-.2 1.5-1 1.6-1.93.27-2.76.07-8.6-.4-9.72-1.1-2.56-4-3.86-6.3-3.83-8.2.12-22.3 1.67-33.24 3.44z"/><path fill="url(#w)" fill-rule="evenodd" d="M19.6 12.33c7.16 2.38 16.82.1 15-2.2l1.25-.63c2.6 1.74 1.7 5.07-3.2 6.15-5.7 1.26-10.46-.5-13.58-2.72l.53-.6z"/><path fill-rule="evenodd" d="M25.47 26.93l6.92-1.06-.1 5.96-6.93 1.15.1-6.05z"/><path fill="url(#x)" fill-rule="evenodd" stroke="url(#y)" d="M24.68 26.06l6.65-1.02-.1 5.73-6.64 1.1.08-5.8z"/><path fill="#eeeeec" fill-rule="evenodd" stroke="url(#z)" d="M12.86 10.54l2.77 2.87 4.8-1.3-1-3.22-2.05-1.3-3.23.3-1.3 2.66z"/><path fill="#eeeeec" fill-rule="evenodd" stroke="url(#A)" d="M28.3 9.05l2.78 2.86 4.8-1.28-1-3.23-2.04-1.3-3.24.27-1.3 2.68z"/><path fill="url(#B)" fill-rule="evenodd" d="M1.87 41.02L1.7 13.68c1.35-.7 5.34.72 6.42 3.97l-.17 27.98H6.58c-1.72-1.5-3.2-3.84-4.7-4.6z"/><path fill="url(#C)" fill-rule="evenodd" d="M15.9 12.82l.44-3.02 2.7-.55.87 2.52-4 1.05z"/><path fill="url(#D)" fill-rule="evenodd" stroke="url(#E)" d="M15.83 8.28c.05-3.54 1.28-7.1 7.56-7.67 6.5-.57 10.1 2.2 9.92 6.1-.44 1.12-1.63.88-2.27.3 0 0-.97-4.5-7.02-3.78-6.56.77-5.9 5.06-5.9 5.06-.47.5-1.92.66-2.3 0z"/><path fill="url(#F)" fill-rule="evenodd" d="M31.33 11.4l.43-3 2.7-.57.87 2.53-4 1.04z"/></g></svg>