<svg xmlns="http://www.w3.org/2000/svg" width="48" height="48" xmlns:xlink="http://www.w3.org/1999/xlink"><defs><linearGradient id="a"><stop offset="0" stop-color="#787974"/><stop offset="1" stop-color="#787974" stop-opacity="0"/></linearGradient><radialGradient id="j" cx="97.468" cy="-405.912" r="358.446" xlink:href="#a" gradientUnits="userSpaceOnUse" gradientTransform="matrix(.021 0 0 .028 323.367 -435.104)" fx="97.468" fy="-405.912"/><linearGradient x1="-27.007" x2="-34.7" y1="-37.55" y2="-4.449" xlink:href="#b" gradientUnits="userSpaceOnUse"/><linearGradient x1="-25.137" x2="-35.653" y1="-1.249" y2="-24.884" xlink:href="#c" gradientUnits="userSpaceOnUse"/><linearGradient x1="11.149" x2="4.963" y1="-43.997" y2="-8.308" xlink:href="#d" gradientUnits="userSpaceOnUse"/><linearGradient id="i"><stop offset="0"/><stop offset="1" stop-opacity="0"/></linearGradient><linearGradient id="d"><stop offset="0" stop-color="#fff"/><stop offset="1" stop-color="#fff" stop-opacity="0"/></linearGradient><linearGradient id="b"><stop offset="0" stop-color="#fff"/><stop offset="1" stop-color="#fff" stop-opacity="0"/></linearGradient><linearGradient id="h"><stop offset="0" stop-color="#edd400"/><stop offset="1" stop-color="#edd400" stop-opacity="0"/></linearGradient><linearGradient id="c"><stop offset="0" stop-color="#fcaf3e"/><stop offset="1" stop-color="#fcaf3e" stop-opacity="0"/></linearGradient><linearGradient id="g"><stop offset="0" stop-color="#fce94f"/><stop offset="1" stop-color="#fce94f" stop-opacity="0"/></linearGradient><linearGradient id="f"><stop offset="0" stop-color="#eeeeec"/><stop offset="1" stop-color="#eeeeec" stop-opacity="0"/></linearGradient><linearGradient id="e"><stop offset="0" stop-color="#fff"/><stop offset="1" stop-color="#fff" stop-opacity="0"/></linearGradient><linearGradient x1="14.261" x2="16.852" y1="9.286" y2="16.269" xlink:href="#e" gradientUnits="userSpaceOnUse" gradientTransform="translate(-1.609 3.097)"/><linearGradient x1="14.261" x2="16.852" y1="9.286" y2="16.269" xlink:href="#e" gradientUnits="userSpaceOnUse" gradientTransform="translate(3.555 .969)"/><linearGradient x1="14.261" x2="16.852" y1="9.286" y2="16.269" xlink:href="#e" gradientUnits="userSpaceOnUse" gradientTransform="translate(9.264 3.495)"/><linearGradient x1="14.261" x2="16.852" y1="9.286" y2="16.269" xlink:href="#e" gradientUnits="userSpaceOnUse" gradientTransform="translate(8.497 -2.331)"/><linearGradient x1="14.261" x2="16.852" y1="9.286" y2="16.269" xlink:href="#e" gradientUnits="userSpaceOnUse" gradientTransform="translate(14.463 2.014)"/><linearGradient x1="14.261" x2="16.852" y1="9.286" y2="16.269" xlink:href="#e" gradientUnits="userSpaceOnUse" gradientTransform="matrix(.751 0 0 1 -.197 7.613)"/><linearGradient x1="14.261" x2="16.852" y1="9.286" y2="16.269" xlink:href="#e" gradientUnits="userSpaceOnUse" gradientTransform="matrix(1.284 0 0 1 14.62 4.452)"/><linearGradient x1="14.261" x2="16.852" y1="9.286" y2="16.269" xlink:href="#e" gradientUnits="userSpaceOnUse" gradientTransform="matrix(.834 0 0 1 14.876 8.57)"/><linearGradient x1="14.261" x2="16.852" y1="9.286" y2="16.269" xlink:href="#e" gradientUnits="userSpaceOnUse" gradientTransform="matrix(1.462 0 0 1.262 -5.687 1.81)"/><linearGradient x1="14.261" x2="16.852" y1="9.286" y2="16.269" xlink:href="#e" gradientUnits="userSpaceOnUse" gradientTransform="matrix(1.107 0 0 1 6.384 6.5)"/><linearGradient x1="14.261" x2="16.852" y1="9.286" y2="16.269" xlink:href="#e" gradientUnits="userSpaceOnUse" gradientTransform="translate(1.708 -5.784)"/><linearGradient x1="14.261" x2="16.852" y1="9.286" y2="16.269" xlink:href="#e" gradientUnits="userSpaceOnUse" gradientTransform="matrix(-.976 0 0 1 53.948 8.564)"/><linearGradient x1="14.261" x2="16.852" y1="9.286" y2="16.269" xlink:href="#e" gradientUnits="userSpaceOnUse" gradientTransform="translate(16.14 24.664)"/><linearGradient x1="14.261" x2="16.852" y1="9.286" y2="16.269" xlink:href="#e" gradientUnits="userSpaceOnUse" gradientTransform="translate(-.932 25.872)"/><linearGradient x1="14.261" x2="16.852" y1="9.286" y2="16.269" xlink:href="#e" gradientUnits="userSpaceOnUse" gradientTransform="translate(5.357 23.869)"/><linearGradient x1="14.261" x2="16.852" y1="9.286" y2="16.269" xlink:href="#e" gradientUnits="userSpaceOnUse" gradientTransform="translate(11.19 26.52)"/><linearGradient x1="14.261" x2="16.852" y1="9.286" y2="16.269" xlink:href="#e" gradientUnits="userSpaceOnUse" gradientTransform="translate(10.306 19.273)"/><linearGradient x1="14.261" x2="16.852" y1="9.286" y2="16.269" xlink:href="#e" gradientUnits="userSpaceOnUse" gradientTransform="matrix(.751 0 0 1 .229 30.763)"/><linearGradient x1="14.261" x2="16.852" y1="9.286" y2="16.269" xlink:href="#e" gradientUnits="userSpaceOnUse" gradientTransform="matrix(1.284 0 0 1 16.671 27.227)"/><linearGradient x1="14.261" x2="16.852" y1="9.286" y2="16.269" xlink:href="#e" gradientUnits="userSpaceOnUse" gradientTransform="matrix(.834 0 0 1 17.053 31.47)"/><linearGradient x1="14.261" x2="16.852" y1="9.286" y2="16.269" xlink:href="#e" gradientUnits="userSpaceOnUse" gradientTransform="matrix(1.462 0 0 1.262 -4.011 24.96)"/><linearGradient x1="14.261" x2="16.852" y1="9.286" y2="16.269" xlink:href="#e" gradientUnits="userSpaceOnUse" gradientTransform="matrix(1.107 0 0 1 8.185 29.526)"/><linearGradient x1="14.261" x2="16.852" y1="9.286" y2="16.269" xlink:href="#e" gradientUnits="userSpaceOnUse" gradientTransform="translate(4.208 21.305)"/><linearGradient x1="14.261" x2="16.852" y1="9.286" y2="16.269" xlink:href="#e" gradientUnits="userSpaceOnUse" gradientTransform="matrix(-.976 0 0 1 56.124 32.089)"/><linearGradient x1="6.665" x2="41.404" y1="13.803" y2="13.803" xlink:href="#f" gradientUnits="userSpaceOnUse" gradientTransform="matrix(.992 0 0 .991 1.129 5.404)"/><linearGradient x1="14.261" x2="16.852" y1="9.286" y2="16.269" xlink:href="#e" gradientUnits="userSpaceOnUse" gradientTransform="translate(14.463 2.014)"/><linearGradient x1="14.261" x2="16.852" y1="9.286" y2="16.269" xlink:href="#e" gradientUnits="userSpaceOnUse" gradientTransform="translate(8.497 -2.331)"/><linearGradient x1="14.261" x2="16.852" y1="9.286" y2="16.269" xlink:href="#e" gradientUnits="userSpaceOnUse" gradientTransform="translate(-1.609 3.097)"/><linearGradient x1="14.261" x2="16.852" y1="9.286" y2="16.269" xlink:href="#e" gradientUnits="userSpaceOnUse" gradientTransform="translate(3.555 .969)"/><linearGradient x1="14.261" x2="16.852" y1="9.286" y2="16.269" xlink:href="#e" gradientUnits="userSpaceOnUse" gradientTransform="translate(9.264 3.495)"/><linearGradient x1="14.261" x2="16.852" y1="9.286" y2="16.269" xlink:href="#e" gradientUnits="userSpaceOnUse" gradientTransform="matrix(.751 0 0 1 -.197 7.613)"/><linearGradient x1="14.261" x2="16.852" y1="9.286" y2="16.269" xlink:href="#e" gradientUnits="userSpaceOnUse" gradientTransform="matrix(1.284 0 0 1 14.62 4.452)"/><linearGradient x1="14.261" x2="16.852" y1="9.286" y2="16.269" xlink:href="#e" gradientUnits="userSpaceOnUse" gradientTransform="matrix(.834 0 0 1 14.876 8.57)"/><linearGradient x1="14.261" x2="16.852" y1="9.286" y2="16.269" xlink:href="#e" gradientUnits="userSpaceOnUse" gradientTransform="matrix(1.462 0 0 1.262 -5.687 1.81)"/><linearGradient x1="14.261" x2="16.852" y1="9.286" y2="16.269" xlink:href="#e" gradientUnits="userSpaceOnUse" gradientTransform="matrix(1.107 0 0 1 6.384 6.5)"/><linearGradient x1="14.261" x2="16.852" y1="9.286" y2="16.269" xlink:href="#e" gradientUnits="userSpaceOnUse" gradientTransform="matrix(-.976 0 0 1 53.948 8.564)"/><linearGradient x1="6.665" x2="41.404" y1="13.803" y2="13.803" xlink:href="#f" gradientUnits="userSpaceOnUse" gradientTransform="matrix(.992 0 0 .991 1.129 5.404)"/><linearGradient x1="6.665" x2="41.404" y1="13.803" y2="13.803" xlink:href="#f" gradientUnits="userSpaceOnUse" gradientTransform="matrix(.992 0 0 .991 4.379 10.654)"/><linearGradient x1="14.261" x2="16.852" y1="9.286" y2="16.269" xlink:href="#e" gradientUnits="userSpaceOnUse" gradientTransform="matrix(1.107 0 0 1 9.634 11.75)"/><linearGradient x1="14.261" x2="16.852" y1="9.286" y2="16.269" xlink:href="#e" gradientUnits="userSpaceOnUse" gradientTransform="matrix(1.462 0 0 1.262 -2.437 7.06)"/><linearGradient x1="14.261" x2="16.852" y1="9.286" y2="16.269" xlink:href="#e" gradientUnits="userSpaceOnUse" gradientTransform="matrix(.834 0 0 1 18.126 13.82)"/><linearGradient x1="14.261" x2="16.852" y1="9.286" y2="16.269" xlink:href="#e" gradientUnits="userSpaceOnUse" gradientTransform="matrix(.751 0 0 1 3.053 12.863)"/><linearGradient x1="14.261" x2="16.852" y1="9.286" y2="16.269" xlink:href="#e" gradientUnits="userSpaceOnUse" gradientTransform="translate(12.514 8.745)"/><linearGradient x1="14.261" x2="16.852" y1="9.286" y2="16.269" xlink:href="#e" gradientUnits="userSpaceOnUse" gradientTransform="translate(6.805 6.219)"/><linearGradient x1="14.261" x2="16.852" y1="9.286" y2="16.269" xlink:href="#e" gradientUnits="userSpaceOnUse" gradientTransform="translate(1.641 8.347)"/><linearGradient x1="14.261" x2="16.852" y1="9.286" y2="16.269" xlink:href="#e" gradientUnits="userSpaceOnUse" gradientTransform="translate(.842 -3.998)"/><linearGradient x1="37" x2="53.75" y1="-21.75" y2="9" xlink:href="#g" gradientUnits="userSpaceOnUse"/><linearGradient x1="37" x2="53.75" y1="-21.75" y2="9" xlink:href="#g" gradientUnits="userSpaceOnUse" gradientTransform="matrix(.889 0 0 .618 -4.771 39.814)"/><linearGradient x1="38.858" x2="53.75" y1="-18.407" y2="9" xlink:href="#g" gradientUnits="userSpaceOnUse" gradientTransform="matrix(.606 0 0 .711 -.225 42.195)"/><linearGradient x1="37" x2="53.75" y1="-21.75" y2="9" xlink:href="#g" gradientUnits="userSpaceOnUse" gradientTransform="matrix(.414 0 0 .779 -1.911 36.879)"/><linearGradient x1="-25.137" x2="-35.653" y1="-1.249" y2="-24.884" xlink:href="#c" gradientUnits="userSpaceOnUse"/><linearGradient x1="14.261" x2="16.852" y1="9.286" y2="16.269" xlink:href="#e" gradientUnits="userSpaceOnUse" gradientTransform="translate(17.338 3.416)"/><linearGradient x1="14.261" x2="16.852" y1="9.286" y2="16.269" xlink:href="#e" gradientUnits="userSpaceOnUse" gradientTransform="translate(13.401 1.353)"/><linearGradient x1="14.261" x2="16.852" y1="9.286" y2="16.269" xlink:href="#e" gradientUnits="userSpaceOnUse" gradientTransform="translate(-7.5 1.709)"/><linearGradient x1="14.261" x2="16.852" y1="9.286" y2="16.269" xlink:href="#e" gradientUnits="userSpaceOnUse" gradientTransform="translate(-.727 2.481)"/><linearGradient x1="23.304" x2="29.75" y1="29.116" y2="46.093" xlink:href="#h" gradientUnits="userSpaceOnUse"/><linearGradient x1="14.261" x2="16.852" y1="9.286" y2="16.269" xlink:href="#e" gradientUnits="userSpaceOnUse" gradientTransform="translate(13.401 1.353)"/><linearGradient x1="14.261" x2="16.852" y1="9.286" y2="16.269" xlink:href="#e" gradientUnits="userSpaceOnUse" gradientTransform="translate(1.641 8.347)"/><linearGradient x1="14.261" x2="16.852" y1="9.286" y2="16.269" xlink:href="#e" gradientUnits="userSpaceOnUse" gradientTransform="translate(6.805 6.219)"/><linearGradient x1="14.261" x2="16.852" y1="9.286" y2="16.269" xlink:href="#e" gradientUnits="userSpaceOnUse" gradientTransform="translate(12.514 8.745)"/><linearGradient x1="14.261" x2="16.852" y1="9.286" y2="16.269" xlink:href="#e" gradientUnits="userSpaceOnUse" gradientTransform="matrix(.751 0 0 1 3.053 12.863)"/><linearGradient x1="14.261" x2="16.852" y1="9.286" y2="16.269" xlink:href="#e" gradientUnits="userSpaceOnUse" gradientTransform="matrix(.834 0 0 1 18.126 13.82)"/><linearGradient x1="14.261" x2="16.852" y1="9.286" y2="16.269" xlink:href="#e" gradientUnits="userSpaceOnUse" gradientTransform="matrix(1.462 0 0 1.262 -2.437 7.06)"/><linearGradient x1="14.261" x2="16.852" y1="9.286" y2="16.269" xlink:href="#e" gradientUnits="userSpaceOnUse" gradientTransform="matrix(1.107 0 0 1 9.634 11.75)"/><linearGradient x1="14.261" x2="16.852" y1="9.286" y2="16.269" xlink:href="#e" gradientUnits="userSpaceOnUse" gradientTransform="matrix(1.107 0 0 1 .795 6.094)"/><linearGradient x1="14.261" x2="16.852" y1="9.286" y2="16.269" xlink:href="#e" gradientUnits="userSpaceOnUse" gradientTransform="matrix(1.462 0 0 1.262 -11.276 1.403)"/><linearGradient x1="14.261" x2="16.852" y1="9.286" y2="16.269" xlink:href="#e" gradientUnits="userSpaceOnUse" gradientTransform="matrix(.834 0 0 1 9.287 8.163)"/><linearGradient x1="14.261" x2="16.852" y1="9.286" y2="16.269" xlink:href="#e" gradientUnits="userSpaceOnUse" gradientTransform="matrix(.751 0 0 1 -5.786 7.206)"/><linearGradient x1="14.261" x2="16.852" y1="9.286" y2="16.269" xlink:href="#e" gradientUnits="userSpaceOnUse" gradientTransform="translate(3.675 3.088)"/><linearGradient x1="14.261" x2="16.852" y1="9.286" y2="16.269" xlink:href="#e" gradientUnits="userSpaceOnUse" gradientTransform="translate(-2.034 .562)"/><linearGradient x1="14.261" x2="16.852" y1="9.286" y2="16.269" xlink:href="#e" gradientUnits="userSpaceOnUse" gradientTransform="translate(-7.198 2.69)"/><linearGradient x1="14.261" x2="16.852" y1="9.286" y2="16.269" xlink:href="#e" gradientUnits="userSpaceOnUse" gradientTransform="translate(4.562 -4.303)"/><linearGradient x1="14.261" x2="16.852" y1="9.286" y2="16.269" xlink:href="#e" gradientUnits="userSpaceOnUse" gradientTransform="translate(88.493 -9.698)"/><linearGradient x1="14.261" x2="16.852" y1="9.286" y2="16.269" xlink:href="#e" gradientUnits="userSpaceOnUse" gradientTransform="matrix(1.462 0 0 1.262 56.255 -12.394)"/><linearGradient x1="14.261" x2="16.852" y1="9.286" y2="16.269" xlink:href="#e" gradientUnits="userSpaceOnUse" gradientTransform="matrix(1.284 0 0 1 79.369 -3.194)"/><linearGradient x1="-25.137" x2="-35.653" y1="-1.249" y2="-24.884" xlink:href="#c" gradientUnits="userSpaceOnUse"/><linearGradient x1="14.261" x2="16.852" y1="9.286" y2="16.269" xlink:href="#e" gradientUnits="userSpaceOnUse" gradientTransform="translate(-7.198 2.69)"/><linearGradient x1="14.261" x2="16.852" y1="9.286" y2="16.269" xlink:href="#e" gradientUnits="userSpaceOnUse" gradientTransform="translate(-2.034 .562)"/><linearGradient x1="14.261" x2="16.852" y1="9.286" y2="16.269" xlink:href="#e" gradientUnits="userSpaceOnUse" gradientTransform="translate(3.675 3.088)"/><linearGradient x1="14.261" x2="16.852" y1="9.286" y2="16.269" xlink:href="#e" gradientUnits="userSpaceOnUse" gradientTransform="matrix(.751 0 0 1 -5.786 7.206)"/><linearGradient x1="14.261" x2="16.852" y1="9.286" y2="16.269" xlink:href="#e" gradientUnits="userSpaceOnUse" gradientTransform="matrix(.834 0 0 1 9.287 8.163)"/><linearGradient x1="14.261" x2="16.852" y1="9.286" y2="16.269" xlink:href="#e" gradientUnits="userSpaceOnUse" gradientTransform="matrix(1.462 0 0 1.262 -11.276 1.403)"/><linearGradient x1="14.261" x2="16.852" y1="9.286" y2="16.269" xlink:href="#e" gradientUnits="userSpaceOnUse" gradientTransform="matrix(1.107 0 0 1 .795 6.094)"/><linearGradient x1="14.261" x2="16.852" y1="9.286" y2="16.269" xlink:href="#e" gradientUnits="userSpaceOnUse" gradientTransform="matrix(-.976 0 0 1 123.116 -5.446)"/><linearGradient x1="14.261" x2="16.852" y1="9.286" y2="16.269" xlink:href="#e" gradientUnits="userSpaceOnUse" gradientTransform="translate(57.977 -10.569)"/><linearGradient x1="-25.137" x2="-35.653" y1="-1.249" y2="-24.884" xlink:href="#c" gradientUnits="userSpaceOnUse"/><radialGradient cx="-35.002" cy="-1.144" r="17.501" xlink:href="#i" fx="-35.002" fy="-1.144" gradientTransform="matrix(1 0 0 .566 0 -.497)" gradientUnits="userSpaceOnUse"/><linearGradient x1="-27.007" x2="-34.7" y1="-37.55" y2="-4.449" xlink:href="#b" gradientUnits="userSpaceOnUse"/><linearGradient x1="11.149" x2="4.963" y1="-43.997" y2="-8.308" xlink:href="#d" gradientUnits="userSpaceOnUse"/><linearGradient x1="11.149" x2="4.963" y1="-43.997" y2="-8.308" xlink:href="#d" gradientUnits="userSpaceOnUse"/><linearGradient x1="-25.137" x2="-35.653" y1="-1.249" y2="-24.884" xlink:href="#c" gradientUnits="userSpaceOnUse"/><linearGradient x1="-27.007" x2="-34.7" y1="-37.55" y2="-4.449" xlink:href="#b" gradientUnits="userSpaceOnUse"/></defs><g><path fill="#eaece8" d="M47 23.8a23.05 23.05 0 1 1-46.08 0 23.05 23.05 0 1 1 46.1 0z"/><g><path fill="#787974" fill-rule="evenodd" d="M13.7 4.05c.07.3-.22.67-.5 1.02-.33.46-.52.77-.12 1.16.24.24.98.03 1.22-.07.55-.22 1.15-.4 1.7-.6.42-.18.73-.24 1.16-.35.5-.1.97.1 1.16.35.1.15-.8.84-.9.88-.4.2-.8.38-1.2.48-.53.14-1 .3-1.5.42-.53.1-.9.26-1.37.54-.58.35-1.07.87-1.56 1.36-.48.47-.64.97-.5 1.57.15.56.37.77.9.87.58.12.86-.16 1.15-.54.37-.5.5-1.13.95-1.57.37-.36.62-.7 1.02-1.02.4-.3.72-.46 1.23-.34.42.1.76.52 1.22.62.4.07.96-.45 1.3-.62.07-.03.13-.1.2-.13.35-.24.94-.14 1.36-.14.46 0 .84.22 1.22.4.46.24.86.22 1.3.55.46.35.7.62.95 1.1.22.44.32.72.68 1.08.38.38.95.62 1.36 1.02.24.24.4.9.48 1.23.12.5.23 1.03 0 1.5-.26.52-.57 1-.82 1.5s-.94.9-1.36 1.22c-.6.44-1.28.47-1.84 1.02-.64.64-.7 1.02-1.3 1.9-.43.67.1.96.62.82.56-.14 1.08-.26 1.63-.4.1-.03.2-.05.28-.07.68-.18 1.22-.73 1.9-.9.85-.2 2.63 1.1 3.4 1.57.6.36-.12 1.08-.4 1.22-.55.26-1.08.33-1.7.33-.4 0-.85-.12-1.23-.2-.52-.1-.88-.1-1.3.2-.45.35-.4.78-.13 1.23.27.44.7.75.82 1.22.13.6-.34.9-.76 1.16-.42.25-1.15-.07-1.63-.07-.6 0-1.2.32-1.7.68-.22.17-.4 1.05-.47 1.3-.02.08-.05.18-.07.27-.16.66.05 1 .27 1.56.17.4.56.78.75 1.16.24.47.4.78.14 1.3-.22.42-.3.78-.4 1.2-.1.32.34 1.14.47 1.44.23.62 0 .73-.42 1.16-.38.38-.94.47-1.36.68-.4.2-1.16-.04-1.57-.14-.45-.1-.88.1-1.22.28-.55.27-.55.54-.95 0-.43-.58-.8-1.17-.96-1.84-.02-.1-.04-.18-.07-.27-.1-.46-.06-1.02-.06-1.5 0-.5.12-.93.12-1.43 0-.54-1.28.48-1.63.6-.17.08-.33.15-.5.22-.67.3-.6.9-.6 1.5 0 .58.34 1.02.34 1.63 0 .58-.7.75-1.15.75-.68 0-1-.78-1.44-1.23-.44-.44-1.18-.93-1.43-1.44-.36-.72-.5-1.13.27-1.7.43-.32 1.04-.38 1.36-.8.34-.47.82-1.1 0-1.3-.56-.15-.78-.34-1.43-.2-.1 0-.22.03-.34.06-1.13.22-1.12.12-2.2-.4-.75-.4-1-.97-1.55-1.5-.5-.5-.8-1.2-.95-1.84-.15-.6-.33-1.2-.48-1.77-.12-.47-.13-1.06-.13-1.56s-.15-1.04-.15-1.56c0-.57 0-1.14 0-1.7 0-.58.07-1.08.07-1.64 0-.47.1-1.05.2-1.5 0-.04 0-.08 0-.13 0-.57.34-1.17.55-1.7.18-.45.46-.93.68-1.35.22-.44.44-.82.74-1.22.32-.44.67-.88 1-1.3.6-.7 1.22-1.37 1.92-1.97.4-.35.6-.93 1.1-1.3.58-.44 1.1-.9 1.7-1.35.44-.33.84-.72 1.15-1.22.24-.4.38-.8.74-1.15.1-.1.4-.23.5-.28z" opacity=".106"/><path fill="#787974" fill-rule="evenodd" d="M32.47 12.76c-.66.16-1.97.38-2.86.2-.67-.13-.7-.5-1.35.14-.05.05-.1.1-.14.14-.4.4-.46.47-.46 1.1 0 .4 0 .77-.07 1.14-.08.4-.02 1 .07 1.36.13.54.2.92.47 1.43.22.4.3.74.7 1.02.48.36 1.16.46 1.7.67.37.15 1 .07 1.42.07.54 0 .6.06.6.68 0 .53-.98 1.28-1.28 1.77-.32.53-.2.95 0 1.55.15.45.25.9.34 1.36.1.5.23.85.6 1.24.43.4 1.2-.04 1.58.48.2.26.2.7.2 1.02 0 .54.18.8.68.54.46-.23.8-.2 1.16-.68.33-.45.5-1 .75-1.5.22-.44.6-.47 1.1-.47.44 0 .8.12 1.28 0 .7-.18.8-.4 1.3-.9.62-.6.54-1.05.67-1.82.06-.34-.06-.77-.13-1.08-.03-.1-.05-.18-.07-.27-.1-.38-.93-.4-1.23-.4-.65 0-1.63-.34-2.24-.5-.3-.07-1.18-1.1-1.43-1.35-.36-.36-.43-.63-.54-1.1-.14-.55-.07-1.13-.2-1.7-.17-.62.02-.98-.48-1.5-.36-.34-.6-.83-.7-1.28-.07-.43-.47-.9-.8-1.15-.24-.18-.27-.14-.6-.2z" opacity=".189"/><path fill="#787974" fill-rule="evenodd" d="M42.94 16.7c-.35.02-.7.45-1.02.76-.3.3-.2.8-.2 1.22 0 .44.1.93.2 1.36.1.37.43.84.68 1.1.38.36.86.58 1.36.67.66.12 1.03.2 1.3-.47.18-.45.27-.77.27-1.3 0-.46-.02-.82-.14-1.28-.15-.56-.33-.84-.82-1.1-.36-.17-.72-.58-1.02-.8-.18-.14-.4-.14-.62-.14z" opacity=".183"/><path fill="#f3f4f2" fill-rule="evenodd" d="M21.38 37.93c.37-.25 1.44-1.35 2.17-1.9.15-.1.28-.23.4-.34.75-.62 1.38-1.6 1.92-2.4.84-1.26 1.2-2.4 1.5-3.8.35-1.8.44-.6.06.54-.06.18-.1.36-.13.54-.2.75-.26 1.54-.55 2.25-.38.96-1.1 1.8-1.36 2.8-.14.52-.32 1.18-.2 1.62.12.53.9-.64 1.42-.8.7-.25.88-.4.88.4 0 .48-.24 1.14-.34 1.63-.17.83 2.2.13 2.72 0 1.72-.43 2.9-1.02 4.3-2.18 1.52-1.28 2.8-2.67 4.2-4.08 1.14-1.14 1.68-1.85.96.07-.07.17-.14.35-.2.53-.07.18-.14.36-.2.54-.4 1-1.07 2.12-1.98 2.73-1.42.94-2.34 2.7-3.88 3.46-.63.32-1.28.44-1.9.75-.64.33 1.22.55 1.56.63 3.4.75-2.77 1.08-3.54 1.08-1.28 0-1.9-.25-2.92.35-.35.2 1.6 1 1.7 1.02.8.16 1.5.68 2.38.68 1.45 0-3.03.46-4.3.14-1.05-.27-2.05-.5-3.12-.76-.54-.13-1.08-.05-1.56.07-.1.03.07 1.4.07 1.58 0 1-.27 1.8-.75.34-.26-.8-.75-1.6-.75-2.45 0-.53-.7.8-1.02 1.22-.45.6-1.33 1.45-1.5 1.5-.02 0 .44-.96.6-1.65.14-.5.98-1.9.42-2.04-.52-.12-1.23-.02-1.77-.12-.8-.16-1.63-.3-2.38-.68-1.44-.72-3.7-1.38-5.24-1.77-.14-.04-2.48-2.55-.27-.34 1.45 1.45 3.73 2.44 5.77 2.44.66 0 1.64-.26 2.25-.4.37-.1.88-.66 1.3-.83.44-.17-.72-.64-1.03-1-.12-.14-.24-.28-.35-.42-1.22-1.46-1.65-3.48-3.06-4.9-.24-.22-3.55-4.1-1.98-2.78 1.62 1.35 3.12 2.55 4.5 4.15.7.82 1.3 1.88 1.96 2.72.67.84.53-.18.34-.75-.4-1.23-.2-2.93-.2-4.22 0-1.7.87 1.75.95 2.04.2.85.65 1.95 1.3 1.1.66-.9.74-1.06.74.06 0 .1 0 .18 0 .27 0 .42 0 .9.08 1.36z" opacity=".472"/><path fill="#787974" fill-rule="evenodd" d="M41.3 22.97c.15.14.28.64.28 1.08 0 .2-1.12 1.06-1.3 1.23-.32.33-.38.88-.47 1.3-.1.53-.23.9-.12 1.42.1.44.27.9.47 1.3.25.48.6.73 1.02 1.15.47.47 1.05.47 1.64.6.75.2-.43.9-.6 1.03-.46.34-.9.45-1.16.95-.3.6.3.8.68.96.4.15 1.03-.58 1.22-.83.26-.34.68-.73.68-1.16 0-.4.2-.85.2-1.35 0-.46.1-.96.2-1.36.16-.6.38-.85.76-1.23.3-.3.3-1.06.2-1.43-.1-.43-.37-.8-.47-1.23-.1-.4-.6-.65-.94-.73-.4-.1-.97-.84-1.23-1.1-.35-.35-.5-.6-1.02-.6z" opacity=".117"/><path fill="none" stroke="#000" stroke-width=".9978999999999999" d="M11.72 21.2c-.02-.02.04 0 0 0z"/><path fill="#938f8b" fill-rule="evenodd" d="M20.08 4.73c.3-.07.98-.3 1.43-.4.6-.15 1.2.2 1.78.2.06 0 .44.75 1.1.75.08 0 .17 0 .26 0 .4 0 .88.33 1.16.6.27.28.02.94-.14 1.1-.43.43-.82.13-1.15-.2-.35-.36-.54-.5-1-.62-.48-.12-1-.04-1.44.07-.56.14-.93.27-1.57.27-.22 0-.88-.93-.96-1.1-.14-.27.37-.62.54-.67z" opacity=".2"/><path fill="#938f8b" fill-rule="evenodd" d="M28.32 5.9c.33.08 1.1.06 1.63-.08.6-.15 1.55-.22 2.18-.07.38.1 2.7.56 1.63 1.1-.53.26-1.1.32-1.57.6-.57.35.68.48.95.48.72 0 .3.87.13 1.16-.27.43-.08 1.12 0 1.55.1.5.94.4 1.36.4.6 0 1.08.1 1.43.55.3.42.74.84.55 1.23-.2.4-1.23.48-1.57.48-.26 0-1.28-1.3-1.43-1.42-.4-.34-.85-.03-1.22.06-.66.17-1.15-.67-1.57-1.02-.44-.37-.72-.9-.95-1.36-.3-.57.18-.8-.68-.8-.53 0-.82-.12-1.22-.42-.55-.4-.96-.25-.96-1.02 0-.68.04-.88.62-1.23.18-.12.43-.06.68-.2z" opacity=".289"/><path fill="url(#j)" fill-rule="evenodd" d="M323.88-456.2c.05.2-.13.4-.28.6-.2.28-.3.46-.08.7.14.13.58 0 .72-.05.32-.13.67-.23 1-.36.24-.1.42-.15.67-.2.3-.08.58.05.7.2.06.08-.47.48-.53.5-.24.13-.47.22-.72.3-.3.06-.57.16-.87.23-.3.06-.53.15-.8.3-.34.22-.63.52-.92.8-.27.3-.37.58-.28.93.08.34.2.46.52.52.34.07.5-.1.68-.32.22-.3.3-.66.56-.92.2-.2.36-.42.6-.6.23-.18.42-.27.7-.2.26.07.46.3.73.36.23.05.56-.26.76-.36.04-.02.08-.05.12-.08.2-.13.55-.08.8-.08.27 0 .5.13.72.24.26.14.5.13.75.32.28.2.42.36.56.64.13.27.2.43.4.64.22.22.56.36.8.6.14.14.23.53.28.72.07.3.14.6 0 .87-.15.32-.33.6-.48.9-.15.28-.55.52-.8.7-.34.27-.75.28-1.08.6-.37.38-.4.6-.75 1.13-.26.38.04.55.36.48.33-.08.64-.15.96-.23.06-.02.1-.03.16-.04.4-.1.72-.42 1.12-.52.5-.12 1.54.65 2 .93.35.2-.07.63-.24.7-.32.17-.64.2-1 .2-.24 0-.5-.06-.72-.1-.3-.07-.52-.07-.76.1-.27.2-.23.47-.08.73.16.26.4.45.48.72.1.35-.2.53-.44.68-.25.15-.67-.04-.96-.04-.36 0-.7.18-1 .4-.12.1-.24.6-.27.76-.02.05-.03.1-.04.16-.1.38.03.58.17.9.1.25.32.47.44.7.14.27.23.45.1.75-.14.24-.2.45-.25.7-.05.2.2.67.28.85.14.36 0 .42-.24.67-.23.22-.57.28-.8.4-.24.12-.7-.02-.93-.08-.27-.06-.52.06-.72.16-.32.16-.32.32-.56 0-.26-.33-.47-.68-.57-1.07 0-.06-.02-.1-.04-.16-.07-.27-.05-.6-.05-.88 0-.3.08-.56.08-.85 0-.32-.75.28-.95.36-.1.05-.2.1-.28.13-.4.17-.36.53-.36.88s.2.6.2.96c0 .35-.4.44-.68.44-.4 0-.57-.45-.84-.7-.25-.27-.7-.55-.84-.85-.2-.43-.28-.67.16-1 .26-.2.6-.23.8-.48.2-.26.48-.64 0-.76-.33-.07-.45-.18-.84-.1-.06 0-.13.02-.2.03-.66.13-.65.07-1.27-.24-.45-.23-.6-.57-.92-.88-.3-.3-.45-.7-.55-1.08-.1-.36-.2-.7-.28-1.04-.07-.28-.08-.63-.08-.92 0-.3-.1-.6-.1-.92 0-.33 0-.66 0-1 0-.33.05-.63.05-.95 0-.27.06-.6.12-.87 0-.02 0-.05 0-.08 0-.34.2-.7.32-1 .1-.26.26-.54.4-.8.12-.25.25-.47.43-.7.2-.27.4-.53.6-.77.34-.42.7-.8 1.1-1.16.25-.2.37-.54.65-.76.35-.26.65-.53 1-.8.26-.2.5-.42.68-.7.14-.25.22-.48.44-.7.05-.04.23-.13.28-.15z" opacity=".178" transform="matrix(1.705 0 0 1.705 -538.419 781.598)"/><path fill="#fff" d="M20.33 24.54a1.15 1.15 0 1 1-2.3 0 1.15 1.15 0 1 1 2.3 0z" opacity=".617"/><path fill="#fff" d="M9.17 15.4a.6.6 0 1 1-1.2 0 .6.6 0 1 1 1.2 0z" opacity=".544"/><path fill="#c2c3be" d="M37 23.25a1.15 1.15 0 1 1-2.3 0 1.15 1.15 0 1 1 2.3 0z" opacity=".544"/><path fill="#c2c3be" d="M28.3 40.67a1.15 1.15 0 1 1-2.3 0 1.15 1.15 0 1 1 2.3 0z" opacity=".567"/><path fill="#fff" d="M35.66 23.4a.73.73 0 1 1-1.47 0 .73.73 0 1 1 1.46 0z" opacity=".617"/><path fill="#fff" d="M21.28 41.54a.6.6 0 1 1-1.2 0 .6.6 0 1 1 1.2 0z" opacity=".617"/><path fill="#fff" d="M32.8 33.47a.73.73 0 1 1-1.47 0 .73.73 0 1 1 1.47 0z" opacity=".617"/><path fill="#fff" d="M41.64 14a.73.73 0 1 1-1.46 0 .73.73 0 1 1 1.46 0z" opacity=".617"/><path fill="#fff" d="M36.47 15.37a.73.73 0 1 1-1.46 0 .73.73 0 1 1 1.47 0z" opacity=".617"/><path fill="#fff" d="M38.5 7.75a.73.73 0 1 1-1.45 0 .73.73 0 1 1 1.46 0z" opacity=".617"/><path fill="#fff" d="M23.4 30.34a.73.73 0 1 1-1.46 0 .73.73 0 1 1 1.47 0z" opacity=".617"/><path fill="#fff" fill-rule="evenodd" d="M21.36 38.32c.34-.24 1.33-1.24 2-1.75.15-.1.27-.2.4-.3.67-.57 1.26-1.46 1.76-2.2.78-1.15 1.12-2.2 1.4-3.48.32-1.64.4-.55.05.5-.06.15-.1.32-.13.5-.17.67-.24 1.4-.5 2.04-.36.88-1.03 1.64-1.26 2.56-.13.5-.3 1.08-.2 1.5.13.48.85-.6 1.33-.75.67-.22.83-.36.83.37 0 .44-.22 1.05-.3 1.5-.17.76 2.02.1 2.5 0 1.6-.4 2.7-.94 3.98-2 1.43-1.17 2.6-2.44 3.92-3.74 1.05-1.04 1.55-1.7.88.07-.06.16-.12.33-.2.5-.05.16-.1.33-.17.5-.35.9-1 1.93-1.83 2.48-1.32.87-2.17 2.47-3.6 3.18-.58.3-1.18.4-1.76.7-.6.28 1.13.5 1.45.56 3.15.7-2.57 1-3.3 1-1.18 0-1.77-.25-2.7.3-.32.2 1.5.92 1.57.94.74.14 1.4.62 2.2.62 1.35 0-2.8.4-3.96.12-.97-.24-1.9-.44-2.9-.68-.5-.12-1-.05-1.44.06-.1.02.06 1.3.06 1.43 0 .93-.25 1.65-.7.32-.24-.72-.7-1.48-.7-2.25 0-.48-.64.74-.93 1.12-.43.55-1.25 1.34-1.4 1.37-.02.02.4-.85.57-1.48.12-.47.9-1.74.37-1.87-.48-.12-1.14-.03-1.64-.12-.73-.15-1.5-.3-2.2-.63-1.34-.65-3.42-1.26-4.86-1.6-.13-.05-2.3-2.35-.25-.33 1.34 1.34 3.45 2.25 5.35 2.25.6 0 1.5-.24 2.08-.38.34-.08.82-.6 1.2-.75.4-.17-.66-.6-.95-.94-.1-.12-.2-.25-.3-.37-1.14-1.35-1.54-3.2-2.85-4.5-.2-.2-3.28-3.75-1.83-2.55 1.5 1.24 2.9 2.34 4.16 3.8.65.75 1.2 1.72 1.83 2.5.62.76.48-.17.3-.7-.37-1.12-.18-2.68-.18-3.86 0-1.56.8 1.6.88 1.86.2.78.6 1.78 1.2 1 .62-.8.7-.97.7.06 0 .08 0 .17 0 .25 0 .4-.03.83.06 1.25z"/><g fill="#a3a4a0" opacity=".317"><path d="M34.1 16.5a3 2.86 0 1 1-6.02 0 3 2.86 0 1 1 6.03 0z"/><path d="M37.42 23.3a3 2.86 0 1 1-6.03 0 3 2.86 0 1 1 6.02 0z"/><path d="M40.77 23.2a1.96 1.86 0 1 1-3.92 0 1.96 1.86 0 1 1 3.92 0z"/><path d="M23.98 13.82a4.67 4.44 0 1 1-9.35 0 4.67 4.44 0 1 1 9.35 0z"/><path d="M14.97 24.32a5.43 5.15 0 1 1-10.85 0 5.43 5.15 0 1 1 10.85 0z"/><path d="M20.84 29.1a4.22 4 0 1 1-8.44 0 4.22 4 0 1 1 8.44 0z"/><path d="M18.13 17.87a4.22 4 0 1 1-8.44 0 4.22 4 0 1 1 8.43 0z"/></g><path fill="#fff" d="M22.57 40.45a1.13 1.13 0 1 1-2.26 0 1.13 1.13 0 1 1 2.27 0z"/></g><path fill="none" stroke="#888a85" stroke-width=".99828" d="M47.05 23.97a23.05 23.05 0 1 1-46.1 0 23.05 23.05 0 1 1 46.1 0z"/><path fill="none" stroke="#fff" stroke-width=".9999199999999999" d="M37 6.24c13.66 10.03 11.35 31.1-4.16 37.92-7.2 3.17-15.55 2.25-21.9-2.4C-2.7 31.74-.4 10.68 15.1 3.86 22.3.67 30.64 1.58 37 6.23z" stroke-linecap="square"/></g></svg>