<svg xmlns="http://www.w3.org/2000/svg" width="48" height="48" xmlns:xlink="http://www.w3.org/1999/xlink"><defs><linearGradient id="e"><stop offset="0" stop-color="#555753"/><stop offset="1"/></linearGradient><linearGradient id="d"><stop offset="0" stop-color="#fff"/><stop offset="1" stop-color="#dfdfdb"/></linearGradient><linearGradient id="c"><stop offset="0" stop-color="#2e3436" stop-opacity=".649"/><stop offset="1" stop-color="#2e3436" stop-opacity="0"/></linearGradient><linearGradient id="b"><stop offset="0" stop-color="#2e3436"/><stop offset="1" stop-color="#2e3436" stop-opacity=".247"/></linearGradient><linearGradient id="a"><stop offset="0" stop-color="#fce94f"/><stop offset="1" stop-color="#fbb011"/></linearGradient><radialGradient id="j" cx="27.252" cy="18.473" r="13.891" xlink:href="#a" fx="27.252" fy="18.473" gradientTransform="matrix(-1.613 1.399 -.979 -1.128 88.059 3.63)" gradientUnits="userSpaceOnUse"/><radialGradient id="i" cx="27.603" cy="18.722" r="12.413" xlink:href="#b" fx="27.603" fy="18.722" gradientTransform="matrix(-1.123 1.101 -1.06 -1.082 77.571 9.899)" gradientUnits="userSpaceOnUse"/><linearGradient id="f" x1="-12.973" x2="-27.598" y1="38.217" y2="37.657" xlink:href="#c" gradientUnits="userSpaceOnUse" gradientTransform="translate(.077 1.412)"/><linearGradient id="g" x1="14.784" x2="36.98" y1="10.198" y2="35.129" xlink:href="#d" gradientUnits="userSpaceOnUse"/><linearGradient id="h" x1="15.125" x2="39.629" y1="7.081" y2="34.945" xlink:href="#e" gradientUnits="userSpaceOnUse"/></defs><g><path fill="url(#f)" d="M-27.75 32.46h15.83v8.95h-15.83z" transform="rotate(-41.867)" color="#000" overflow="visible"/><path fill-opacity=".621" d="M48 23a20 20 0 1 1-40 0 20 20 0 1 1 40 0z" color="#000" overflow="visible"/><path fill="url(#g)" stroke="url(#h)" stroke-width="1.859" d="M43.14 22.57a17.05 18.3 0 1 1-34.1 0 17.05 18.3 0 1 1 34.1 0z" transform="matrix(1.115 0 0 1.039 -3.084 -2.453)" color="#000" stroke-linejoin="round" overflow="visible"/><path fill="#729fcf" d="M26 7c-7.73 0-14 6.27-14 14s6.27 14 14 14 14-6.27 14-14S33.73 7 26 7zm0 5c4.97 0 9 4.03 9 9s-4.03 9-9 9-9-4.03-9-9 4.03-9 9-9z" color="#000" overflow="visible"/><path fill="#729fcf" d="M31 21a5 5 0 1 1-10 0 5 5 0 1 1 10 0z" color="#000" overflow="visible"/><path fill="url(#i)" fill-rule="evenodd" d="M8 22.35l.75 6.12 8.74-1.07-6.8 6.57c1.7 1.6 2.95 3.37 5.72 4.44l5.96-7.27 1.08 8.85 6.12-.75L27.24 20 8 22.35z"/><path fill="url(#j)" fill-rule="evenodd" stroke="#5c2800" stroke-width="1.5" d="M7.18 18.75l-.66 6.06 8.66.96-14.2 11.2 3.82 4.76 14.25-11.26-.96 8.77 6.05.67 2.1-19.05-19.07-2.1z"/><path fill="none" stroke="#eeeeec" stroke-opacity=".8" d="M8.36 20.07l-.42 3.6 10.48 1.24-15.7 12.25L5.05 40l15.7-12.6-1.26 10.8 3.5.3 1.85-16.55-16.47-1.88z"/></g></svg>