<svg xmlns="http://www.w3.org/2000/svg" width="32" height="32" xmlns:osb="http://www.openswatchbook.org/uri/2009/osb" xmlns:xlink="http://www.w3.org/1999/xlink"><defs><linearGradient><stop offset="0" stop-color="#fd4903"/><stop offset="1" stop-color="#9b2d01"/></linearGradient><linearGradient><stop offset="0" stop-color="#fd4703" stop-opacity=".498"/><stop offset="1" stop-color="#fd4703" stop-opacity="0"/></linearGradient><linearGradient><stop offset="0" stop-color="#fd4703"/><stop offset="1" stop-color="#fd4703" stop-opacity="0"/></linearGradient><linearGradient osb:paint="gradient"><stop offset="0" stop-color="#fd4703"/><stop offset="1" stop-color="#fd4703" stop-opacity="0"/></linearGradient><linearGradient><stop offset="0" stop-color="#fd4703"/><stop offset="1" stop-color="#fd4703" stop-opacity="0"/></linearGradient><linearGradient><stop offset="0" stop-color="#fd4703" stop-opacity=".498"/><stop offset="1" stop-color="#fd4703" stop-opacity="0"/></linearGradient><linearGradient osb:paint="solid"><stop offset="0"/></linearGradient><marker orient="auto" overflow="visible"><path fill-rule="evenodd" stroke="#000" stroke-width=".8pt" d="M-10 0l-4 4L0 0l-14-4 4 4z"/></marker><linearGradient x1="1" x2="16" y1="1" y2="16" xlink:href="#a" gradientUnits="userSpaceOnUse" gradientTransform="matrix(1.058 0 0 1.06 -.935 -.964)"/><linearGradient id="a"><stop offset="0" stop-color="#fd4703"/><stop offset="1" stop-color="#fd4703" stop-opacity="0"/></linearGradient></defs><g fill="#fd4903" stroke="#000" stroke-width=".5"><path d="M0 18c0-1 0-3 0-4C1 13 13 1 14 0c1 0 3 0 4 0C17 1 1 17 0 18z"/><path d="M0 9c0-1 0-3 0-4 1-1 4-4 5-5 1 0 3 0 4 0-1 1-8 8-9 9z"/></g></svg>