<svg xmlns="http://www.w3.org/2000/svg" width="48" height="48" xmlns:xlink="http://www.w3.org/1999/xlink"><defs><linearGradient id="j"><stop offset="0" stop-color="#8f5902"/><stop offset="1" stop-color="#3e2600"/></linearGradient><linearGradient id="i"><stop offset="0" stop-color="#fff"/><stop offset="1" stop-color="#bebeb5"/></linearGradient><linearGradient id="h"><stop offset="0" stop-color="#3a3a3a"/><stop offset="1"/></linearGradient><linearGradient id="g"><stop offset="0" stop-color="#2e3436"/><stop offset="1" stop-color="#2e3436" stop-opacity="0"/></linearGradient><linearGradient id="a"><stop offset="0" stop-color="#ff8686"/><stop offset="1" stop-color="#c00"/></linearGradient><linearGradient id="b"><stop offset="0" stop-color="#a40000"/><stop offset="1" stop-color="#a40000" stop-opacity="0"/></linearGradient><linearGradient id="c"><stop offset="0" stop-color="#ffabab"/><stop offset="1" stop-color="#eeeeec" stop-opacity="0"/></linearGradient><linearGradient id="d"><stop offset="0" stop-color="#eeeeec"/><stop offset="1" stop-color="#eeeeec" stop-opacity="0"/></linearGradient><linearGradient id="e"><stop offset="0" stop-color="#eeeeec"/><stop offset="1" stop-color="#eeeeec" stop-opacity="0"/></linearGradient><linearGradient id="f"><stop offset="0" stop-color="#e2facb"/><stop offset="1" stop-color="#73d216"/></linearGradient><radialGradient id="o" cx="-10.304" cy="20.458" r="5.609" xlink:href="#a" gradientUnits="userSpaceOnUse" gradientTransform="matrix(2.143 1.56 -1.607 2.222 85.401 2.621)" fx="-10.304" fy="20.458"/><linearGradient id="p" x1="24.607" x2="24.607" y1="31.508" y2="22.722" xlink:href="#b" gradientUnits="userSpaceOnUse" gradientTransform="matrix(1.292 -.005 .005 1.292 2.491 2.055)"/><linearGradient id="q" x1="21.479" x2="20.089" y1="8.099" y2="26.585" xlink:href="#c" gradientUnits="userSpaceOnUse" gradientTransform="matrix(1.192 -.005 .005 1.128 9.958 14.814)"/><radialGradient id="r" cx="28.676" cy="18.224" r="2.409" xlink:href="#d" gradientUnits="userSpaceOnUse" gradientTransform="matrix(1.11 -.665 .302 .505 1.641 36.353)" fx="28.676" fy="18.224"/><radialGradient id="s" cx="18.886" cy="20.808" r="2.886" xlink:href="#e" gradientUnits="userSpaceOnUse" gradientTransform="matrix(1.253 .312 -.369 1.479 11.561 -7.731)" fx="18.886" fy="20.808"/><radialGradient id="t" cx="-14.5" cy="10.075" r="5" xlink:href="#f" gradientUnits="userSpaceOnUse" gradientTransform="matrix(1.292 -.005 .003 .747 49.753 7.344)" fx="-14.5" fy="10.075"/><radialGradient id="m" cx="33.714" cy="45.571" r="13.143" xlink:href="#g" fx="33.714" fy="45.571" gradientTransform="matrix(1 0 0 .293 0 32.197)" gradientUnits="userSpaceOnUse"/><radialGradient id="n" cx="6" cy="6.69" r="15" xlink:href="#h" fx="6" fy="6.69" gradientTransform="matrix(-1.948 0 0 -1.867 17.689 18.488)" gradientUnits="userSpaceOnUse"/><linearGradient x1="15.262" x2="14.437" y1="40.714" y2="44.079" xlink:href="#i" gradientUnits="userSpaceOnUse" gradientTransform="matrix(1.042 0 0 1.043 -1.016 -2.066)"/><linearGradient id="l" x1="1.524" x2="41" y1="1.02" y2="39.5" xlink:href="#j" gradientUnits="userSpaceOnUse"/><linearGradient id="u" x1="15.262" x2="14.437" y1="40.714" y2="44.079" xlink:href="#i" gradientUnits="userSpaceOnUse" gradientTransform="matrix(1.042 0 0 1.043 -1.016 -2.066)"/><radialGradient id="k" cx="33.714" cy="45.571" r="13.143" xlink:href="#g" gradientUnits="userSpaceOnUse" gradientTransform="matrix(1 0 0 .293 0 32.197)" fx="33.714" fy="45.571"/></defs><g><path fill="url(#k)" fill-rule="evenodd" d="M46.86 45.57a13.14 3.86 0 1 1-26.3 0 13.14 3.86 0 1 1 26.3 0z" transform="matrix(.822 .322 -.31 .867 .628 -7.764)" color="#000" overflow="visible"/><rect width="39" height="37.5" x="1" y="1" fill="#c17d11" fill-rule="evenodd" stroke="url(#l)" stroke-width="2" color="#000" ry="2.73" stroke-linecap="round" overflow="visible"/><path fill="url(#m)" fill-rule="evenodd" d="M46.86 45.57a13.14 3.86 0 1 1-26.3 0 13.14 3.86 0 1 1 26.3 0z" transform="matrix(.826 0 0 .833 6.863 6.81)" color="#000" overflow="visible"/><path fill="url(#n)" fill-rule="evenodd" d="M6 6h30v28H6z" color="#000" overflow="visible"/><path fill="#eeeeec" fill-rule="evenodd" d="M16.78 9.1c-.5 0-1 .22-1.34.53-1.67 1.5-3.13 4.3-4.35 7.62-.4 1.05-.74 2.14-1.04 3.25-.93.45-1.8.95-2.56 1.5-.36.27-.55.7-.5 1.16.05.44.33.82.75 1 .42.17.9.12 1.25-.16.1-.08.23-.14.34-.22-.22 1.36-.34 2.7-.34 3.97 0 .45.24.87.63 1.1.38.22.86.22 1.24 0 .4-.23.64-.65.63-1.1 0-1.66.28-3.54.72-5.44 1.46-.58 3.1-1.1 4.7-1.52.95-.24 1.88-.43 2.77-.6.8 3.3 1.36 6.23 1.36 6.23.02.5.33.9.78 1.1.45.2.96.1 1.32-.22.35-.33.5-.85.34-1.3 0 0-.53-2.88-1.34-6.2.67-.08 1.26-.13 1.56-.12.7 0 1.26-.53 1.28-1.22.02-.7-.53-1.27-1.22-1.28-.58-.02-1.38.07-2.28.18-.02-.06 0-.12-.03-.18-.6-2.14-1.27-4.2-2.03-5.72-.4-.76-.78-1.4-1.4-1.88-.32-.24-.74-.46-1.26-.47zm0 2.87c.14.18.22.26.4.62.6 1.17 1.28 3.1 1.85 5.12-.86.17-1.76.38-2.72.62-1.07.28-2.16.6-3.24.97.13-.38.24-.8.38-1.18 1.03-2.82 2.4-5.1 3.34-6.15z"/><g><path fill="#e9b96e" fill-rule="evenodd" stroke="#8f5902" d="M35.96 27c-1.33-9.05 3.22-12.4 3.22-12.4l3.48 2.37S37.52 21 35.96 27z"/><path fill="url(#o)" fill-rule="evenodd" stroke="#a40000" d="M35.84 24.97c-6.05-4.82-13.96-1.85-13.77 4.2.2 5.88 4.1 16.1 6.45 16.22 3.5.16 3.44-1.4 5.85-1.25 2.23.16 2.76 1.2 5.17 1.2 2.4-.02 7.36-10.27 7.17-16.63-.18-6.18-4.34-8.62-10.86-3.75z" transform="translate(.714 .429)"/><path fill="url(#p)" fill-rule="evenodd" d="M44.35 34.16c1.48-5.13-21.17-4.78-19.9.27 1.28 5.06 3 9.3 4.16 9.38 3.43.28 3.38-1.3 5.75-1.03 2.2.23 2.7 1.1 5.08 1.1 1.18-.02 3.44-4.58 4.92-9.7z" transform="translate(.714 .429)"/><path fill="none" stroke="url(#q)" d="M35.85 26.08c-6.8-5.22-13.32-1.6-12.95 3.73.38 5.55 4.02 14 6.2 14.1 3.2.16 3.16-1.2 5.4-1.07 2.05.13 2.54 1.05 4.76 1.04 2.23 0 6.72-8.86 6.6-14.52-.1-5.72-3.6-8.16-10-3.27z" transform="translate(.714 .429)"/><path fill="url(#r)" fill-rule="evenodd" d="M35.86 27.14c.66-.93 3.32-2.33 4.58-2.66.7.1 1.18.42 1.64 1.05-1.96.4-3.47 2.46-4 2.97-.5-.46-2.22-1.36-2.22-1.36z" transform="translate(.714 .429)"/><path fill="url(#s)" fill-rule="evenodd" d="M23.6 29.45c.42-.76 1.22-1.7 2-2.36 0 0 .87.7 1.28 1.32-1 .87-1.6 1.64-2.04 2.76-.48-.48-1.25-1.73-1.25-1.73zm1.78 2.06c.42-.75 1.03-1.74 2-2.35 0 0 .87.72 1.28 1.33-1 .87-1.6 1.64-2.03 2.76-.5-.48-1.25-1.73-1.25-1.73zm.64-4.82c.57-.65 1.63-1.55 2.54-2.03 0 0 .94.58 1.2 1.26-.96.6-1.82 1.47-2.5 2.13-.37-.57-1.24-1.35-1.24-1.35zm1.8 1.8c.58-.64 1.54-1.56 2.45-2.04 0 0 .8 1.04 1.36 1.6-1 .75-1.8 1.16-2.45 2.16-.37-.57-1.35-1.7-1.35-1.7z" transform="translate(.714 .429)"/><path fill="url(#t)" fill-rule="evenodd" stroke="#4e9a06" d="M36.88 17.4c-3.9-6.43-5.9-5.82-11.65-5.1 2.8 5.18 4.22 6.76 11.65 5.1z" transform="translate(.714 .429)"/></g><path fill="none" stroke="#e9b96e" d="M2.5 37.5V4.57c-.03-1.95.84-2.05 2.26-2.07h34.16"/><g fill-rule="evenodd"><path fill="url(#u)" stroke="#2e3436" d="M6.4 41.64l14.54 6.04c3.86-.48 4.67-4.2 1.6-6.1L7.5 36.97c-2.32.45-2.9 2.86-1.1 4.66z" transform="translate(0 -1)"/><path fill="#babdb6" d="M23.73 44.22c-.5 1.83-2.3 2.57-3.2 1.33-.42-.58-.53-1.46-.3-2.3.52-1.84 2.3-2.58 3.2-1.33.43.57.54 1.45.3 2.3z" color="#000" overflow="visible"/></g></g></svg>