<svg xmlns="http://www.w3.org/2000/svg" width="48" height="48" xmlns:xlink="http://www.w3.org/1999/xlink"><defs><linearGradient id="g"><stop offset="0" stop-color="#2e3436"/><stop offset="1" stop-color="#2e3436" stop-opacity="0"/></linearGradient><linearGradient id="f"><stop offset="0" stop-color="#fff"/><stop offset="1" stop-color="#c9c9c2"/></linearGradient><linearGradient id="e"><stop offset="0" stop-color="#2e3436"/><stop offset="1" stop-color="#2e3436" stop-opacity="0"/></linearGradient><linearGradient id="d"><stop offset="0" stop-color="#748388"/><stop offset="1" stop-color="#2e3436"/></linearGradient><linearGradient id="c"><stop offset="0" stop-color="#fff"/><stop offset="1" stop-color="#fff" stop-opacity="0"/></linearGradient><linearGradient id="b"><stop offset="0" stop-color="#6c6c6c"/><stop offset="1" stop-color="#1d1d1d"/></linearGradient><linearGradient id="a"><stop offset="0" stop-color="#6f726b"/><stop offset="1" stop-color="#e5e6e4"/></linearGradient><linearGradient id="i" x1="23.214" x2="22.929" y1="36.286" y2="45.714" xlink:href="#a" gradientUnits="userSpaceOnUse" gradientTransform="matrix(1 0 0 .924 0 -4.199)"/><radialGradient id="m" cx="24" cy="16" r="20" xlink:href="#b" fx="24" fy="16" gradientTransform="matrix(.95 0 0 .82 1.2 1.878)" gradientUnits="userSpaceOnUse"/><linearGradient id="n" x1="17.928" x2="18.529" y1="8.65" y2="30.196" xlink:href="#c" gradientUnits="userSpaceOnUse" gradientTransform="matrix(.903 0 0 .903 47.625 7.453)"/><linearGradient id="o" x1="21.922" x2="26.888" y1="7.997" y2="27.78" xlink:href="#c" gradientUnits="userSpaceOnUse" gradientTransform="matrix(.903 0 0 .903 47.625 7.453)"/><linearGradient id="p" x1="22.074" x2="31.012" y1="5.729" y2="19.348" xlink:href="#c" gradientUnits="userSpaceOnUse" gradientTransform="matrix(.903 0 0 .903 47.625 7.453)"/><linearGradient id="q" x1="17.802" x2="27.439" y1="4.615" y2="7.219" xlink:href="#c" gradientUnits="userSpaceOnUse" gradientTransform="matrix(.903 0 0 .903 47.625 7.453)"/><linearGradient id="r" x1="16.712" x2="20.716" y1="4.569" y2="3.353" xlink:href="#c" gradientUnits="userSpaceOnUse" gradientTransform="matrix(.903 0 0 .903 47.625 7.453)"/><linearGradient id="s" x1="16.84" x2="15.258" y1="4.69" y2="2.986" xlink:href="#c" gradientUnits="userSpaceOnUse" gradientTransform="matrix(.903 0 0 .903 47.625 7.453)"/><linearGradient id="t" x1="13.618" x2="6.782" y1="3.576" y2="6.5" xlink:href="#c" gradientUnits="userSpaceOnUse" gradientTransform="matrix(.903 0 0 .903 47.625 7.453)"/><linearGradient id="u" x1="8.838" x2="7.756" y1="5.982" y2="9.131" xlink:href="#c" gradientUnits="userSpaceOnUse" gradientTransform="matrix(.903 0 0 .903 47.625 7.453)"/><linearGradient id="v" x1="8.136" x2="7.297" y1="9.373" y2="28.461" xlink:href="#c" gradientUnits="userSpaceOnUse" gradientTransform="matrix(.903 0 0 .903 47.625 7.453)"/><linearGradient id="w" x1="13.299" x2="12.624" y1="9.714" y2="31.308" xlink:href="#c" gradientUnits="userSpaceOnUse" gradientTransform="matrix(.903 0 0 .903 47.625 7.453)"/><linearGradient id="x" x1="17.412" x2="17.412" y1="11.954" y2="3.414" xlink:href="#c" gradientUnits="userSpaceOnUse"/><linearGradient id="y" x1="17.412" x2="17.412" y1="11.922" y2="3.446" xlink:href="#c" gradientUnits="userSpaceOnUse"/><linearGradient id="z" x1="17.412" x2="17.412" y1="11.912" y2="3.456" xlink:href="#c" gradientUnits="userSpaceOnUse"/><linearGradient id="A" x1="17.177" x2="17.196" y1="11.91" y2="3.458" xlink:href="#c" gradientUnits="userSpaceOnUse"/><linearGradient id="B" x1="17.412" x2="17.412" y1="11.928" y2="3.44" xlink:href="#c" gradientUnits="userSpaceOnUse"/><linearGradient id="C" x1="17.412" x2="17.412" y1="11.948" y2="3.42" xlink:href="#c" gradientUnits="userSpaceOnUse"/><linearGradient id="j" x1="30.683" x2="30.111" y1="39.443" y2="32.402" xlink:href="#d" gradientUnits="userSpaceOnUse" gradientTransform="matrix(1 0 0 .924 0 1.015)"/><linearGradient id="l" x1=".889" x2="46.349" y1=".833" y2="29.532" xlink:href="#d" gradientUnits="userSpaceOnUse"/><linearGradient id="k" x1=".889" x2="46.349" y1=".833" y2="29.532" xlink:href="#d" gradientUnits="userSpaceOnUse" gradientTransform="matrix(.802 0 0 1.231 4.365 -10.598)"/><radialGradient id="h" cx="23.714" cy="42.952" r="19.587" xlink:href="#e" fx="23.714" fy="42.952" gradientTransform="matrix(1 0 0 .345 0 28.124)" gradientUnits="userSpaceOnUse"/><radialGradient id="D" cx="27.316" cy="38.604" r="10.631" xlink:href="#f" fx="27.316" fy="38.604" gradientTransform="matrix(1.52 -.33 .149 .708 -19.305 21.754)" gradientUnits="userSpaceOnUse"/><linearGradient id="E" x1="38.688" x2="38.744" y1="30.984" y2="32.79" xlink:href="#g" gradientUnits="userSpaceOnUse" gradientTransform="translate(0 -.095)"/></defs><g><path fill="url(#h)" fill-rule="evenodd" d="M43.3 42.95a19.6 6.76 0 1 1-39.17 0 19.6 6.76 0 1 1 39.17 0z" transform="matrix(1.144 0 0 .665 -3.548 10.915)" color="#000" overflow="visible"/><path fill="url(#i)" fill-rule="evenodd" stroke="url(#j)" stroke-width="1.5" d="M17.16 25.9c-.1 6.72-.45 9.37-7.83 12.54h28.6C31.17 36 30.3 32.54 30.5 25.9H17.15z" color="#000" stroke-linecap="round" overflow="visible"/><path fill="none" stroke="#eeeeec" stroke-opacity=".534" d="M18.1 29.2c.13 3.2-.5 5.05-2.8 7.3l16.66-.1c-1.8-1.86-2.37-3.23-2.63-7.18L18.1 29.2z" color="#000" stroke-linecap="round" overflow="visible"/><path fill="#c0c1be" fill-rule="evenodd" stroke="url(#k)" d="M9.58 37.5h28.08v3H9.58z" color="#000" stroke-linecap="round" overflow="visible"/><path fill="none" stroke="#2e3436" stroke-width="3" d="M38.1 41.67c7.26-.6 8.88-2.82 8.26-5.2-.72-2.84-7.6-2.53-8.15-6.97"/><path fill="none" stroke="#eeeeec" stroke-width="1.5" d="M37.68 41.5c6.2.16 9.9-2.24 8.66-5.2-1.14-2.7-7.6-2.4-8.15-6.84"/><rect width="46" height="29" x="1" y="1" fill="#c0c1be" fill-rule="evenodd" stroke="url(#l)" stroke-width="2" color="#000" ry="1.305" stroke-linecap="round" overflow="visible"/><rect width="38" height="20" x="5" y="5" fill="url(#m)" fill-rule="evenodd" ry="0" color="#000" overflow="visible"/><rect width="43" height="26" x="2.5" y="2.5" fill="none" stroke="#eeeeec" stroke-opacity=".696" ry="0" stroke-linecap="round" overflow="visible" color="#000"/><rect width="39" height="21" x="4.5" y="4.5" fill="none" stroke="#000" ry="0" color="#000" stroke-linecap="round" overflow="visible"/><g fill="none"><path stroke="url(#n)" stroke-width=".783" d="M62.77 11.63c1.92 3.66 3 20.95 1.04 24.12" transform="matrix(.639 0 0 .639 -16.464 .249)"/><path stroke="url(#o)" stroke-width=".783" d="M62.83 11.4c6.34 2.9 12.52 15.6 7.1 22.22" transform="matrix(.639 0 0 .639 -16.464 .249)"/><path stroke="url(#p)" stroke-width=".783" d="M62.72 11.4c8.53.4 14.6 9.64 12.1 15.87" transform="matrix(.639 0 0 .639 -16.464 .249)"/><path stroke="url(#q)" stroke-width=".783" d="M62.77 11.47c5.42-.77 7.66.98 9.52 3" transform="matrix(.639 0 0 .639 -16.464 .249)"/><path stroke="url(#r)" stroke-width=".783" d="M62.83 11.47c.87-.93 2.62-1 3.4-.77" transform="matrix(.639 0 0 .639 -16.464 .249)"/><path stroke="url(#s)" stroke-width=".783" d="M62.72 11.58c-.16-1.04-.6-1.26-1.2-1.32" transform="matrix(.639 0 0 .639 -16.464 .249)"/><path stroke="url(#t)" stroke-width=".783" d="M62.72 11.58c-2.24-1.1-5.2-.82-7.66 1.04" transform="matrix(.639 0 0 .639 -16.464 .249)"/><path stroke="url(#u)" stroke-width=".783" d="M62.72 11.63c-3.66-.1-8.42.5-11.5 5.74" transform="matrix(.639 0 0 .639 -16.464 .249)"/><path stroke="url(#v)" stroke-width=".783" d="M62.72 11.58c-9.57 2.18-15.92 14.82-8.1 21.33" transform="matrix(.639 0 0 .639 -16.464 .249)"/><path stroke="url(#w)" stroke-width=".783" d="M62.66 11.58c-4.6 3.66-9.18 19.96-3.22 23.9" transform="matrix(.639 0 0 .639 -16.464 .249)"/><path stroke="url(#x)" stroke-width=".879" d="M27.25 7.68a9.84 4.15 0 1 1-19.68 0 9.84 4.15 0 1 1 19.68 0z" transform="matrix(.545 0 0 .594 14.105 4.952)" color="#000" stroke-linecap="round" stroke-linejoin="round" overflow="visible"/><path stroke="url(#y)" stroke-width=".655" d="M27.25 7.68a9.84 4.15 0 1 1-19.68 0 9.84 4.15 0 1 1 19.68 0z" transform="matrix(.721 0 0 .809 11.08 5.259)" color="#000" stroke-linecap="round" stroke-linejoin="round" overflow="visible"/><path stroke="url(#z)" stroke-width=".583" d="M27.25 7.68a9.84 4.15 0 1 1-19.68 0 9.84 4.15 0 1 1 19.68 0z" transform="matrix(.813 0 0 .905 9.49 7.1)" color="#000" stroke-linecap="round" stroke-linejoin="round" overflow="visible"/><path stroke="url(#A)" stroke-width=".577" d="M27.25 7.68a9.84 4.15 0 1 1-19.68 0 9.84 4.15 0 1 1 19.68 0z" transform="matrix(.808 0 0 .931 9.6 9.353)" color="#000" stroke-linecap="round" stroke-linejoin="round" overflow="visible"/><path stroke="url(#B)" stroke-width=".7" d="M27.25 7.68a9.84 4.15 0 1 1-19.68 0 9.84 4.15 0 1 1 19.68 0z" transform="matrix(.673 0 0 .758 11.967 13.196)" color="#000" stroke-linecap="round" stroke-linejoin="round" overflow="visible"/><path stroke="url(#C)" stroke-width=".877" d="M27.25 7.68a9.84 4.15 0 1 1-19.68 0 9.84 4.15 0 1 1 19.68 0z" transform="matrix(.522 0 0 .624 14.542 15.559)" color="#000" stroke-linecap="round" stroke-linejoin="round" overflow="visible"/></g><path fill="#4e9a06" fill-rule="evenodd" d="M43 27.5a1.5 1.5 0 1 1-3 0 1.5 1.5 0 1 1 3 0z" color="#000" overflow="visible"/><path fill="none" stroke="#d3d7cf" d="M7.5 6.54h4v3.96h-4z" color="#000" stroke-linecap="round" overflow="visible"/><path fill="none" stroke="#d3d7cf" d="M36.5 14.54h4v3.96h-4z" color="#000" stroke-linecap="round" overflow="visible"/><path fill="none" stroke="#d3d7cf" d="M36.5 18.5h4v3.96h-4z" color="#000" stroke-linecap="round" overflow="visible"/><path fill="url(#D)" fill-rule="evenodd" stroke="#2e3436" d="M40.37 38.8c-6.06-4.84-18.42-1.7-18.23 4.65.15 4.8 7.77 4.36 11.85 3.3 3.53-.93 12.37-3.18 6.37-7.96z"/><path fill="url(#E)" fill-rule="evenodd" d="M37.05 30.95l1.2 1.74 5.57-.1c-1.94-.7-2.3-.95-3.16-1.7l-3.6.05z"/></g></svg>