<svg xmlns="http://www.w3.org/2000/svg" width="20" height="15" xmlns:xlink="http://www.w3.org/1999/xlink"><defs><linearGradient id="a"><stop offset="0" stop-color="#ab0300"/><stop offset="1" stop-color="#ff3600"/></linearGradient><linearGradient id="b" x1="10" x2="10" y1="15" xlink:href="#a" gradientUnits="userSpaceOnUse"/></defs><g><path fill="url(#b)" d="M0 0h20v15H0z" transform="translate(0 -1037.362) translate(0 1037.362)"/><path fill="none" stroke="#d20000" stroke-width="1.6" d="M.76 0c0 4.74 0 9.48 0 14.22 6.15 0 12.3 0 18.44 0 0-4.74 0-9.48 0-14.22"/><g fill="none" stroke-width="1.044"><path stroke="#000" stroke-opacity=".307" d="M6.88 1044.7h.5l2.45 2.32 2.46-2.3h.48l-2.95 2.76z" transform="matrix(.958 0 0 .951 .576 -985.664)"/><path stroke="#fff" d="M6.88 1044.25c.17 0 .33 0 .5 0 .8.77 1.63 1.54 2.45 2.3.82-.76 1.64-1.53 2.46-2.3.16 0 .32 0 .48 0-.98.92-1.96 1.84-2.95 2.77-.98-.93-1.96-1.85-2.95-2.77z" transform="matrix(.958 0 0 .951 .576 -985.664)"/></g><g fill="none" stroke-width="1.044"><path stroke="#000" stroke-opacity=".307" d="M6.88 1044.7h.5l2.45 2.32 2.46-2.3h.48l-2.95 2.76z" transform="matrix(.958 0 0 .951 .584 -989.629)"/><path stroke="#fff" d="M6.88 1044.25c.17 0 .33 0 .5 0 .8.77 1.63 1.54 2.45 2.3.82-.76 1.64-1.53 2.46-2.3.16 0 .32 0 .48 0-.98.92-1.96 1.84-2.95 2.77-.98-.93-1.96-1.85-2.95-2.77z" transform="matrix(.958 0 0 .951 .584 -989.629)"/></g></g></svg>