<svg xmlns="http://www.w3.org/2000/svg" width="48" height="48"><defs><linearGradient id="a" x1="1.039" x2="4.754" y1="188.612" y2="188.612" gradientUnits="userSpaceOnUse" gradientTransform="matrix(1.022 0 0 1.022 -.562 -172.767)"><stop offset="0" stop-color="#B4BFCC"/><stop offset=".169" stop-color="#ECEFF2"/><stop offset=".242" stop-color="#F6F7FA"/><stop offset=".386" stop-color="#D8DCE1"/><stop offset=".699" stop-color="#8C96A2"/><stop offset=".742" stop-color="#818C99"/><stop offset="1" stop-color="#B4BFCC"/></linearGradient><radialGradient id="b" cx="44.901" cy="1106.304" r="8.663" gradientUnits="userSpaceOnUse" gradientTransform="matrix(1.022 0 0 1.385 -.562 -1516.595)" fy="1106.304" fx="44.901"><stop offset="0" stop-color="#FFAF33"/><stop offset=".329" stop-color="#FEAD32"/><stop offset=".501" stop-color="#F9A52E"/><stop offset=".637" stop-color="#F19726"/><stop offset=".754" stop-color="#E7841C"/><stop offset=".854" stop-color="#D96D10"/></radialGradient><radialGradient id="c" cx="46.116" cy="182.995" r="13.683" gradientUnits="userSpaceOnUse" fy="182.995" fx="46.116"><stop offset="0" stop-color="#FAFAFA"/><stop offset=".238" stop-color="#F7E2CF"/><stop offset=".596" stop-color="#F4C093"/><stop offset=".861" stop-color="#F2AB6E"/><stop offset="1" stop-color="#F1A360"/></radialGradient><radialGradient id="d" cx="20.442" cy="1102.39" r="16.456" gradientUnits="userSpaceOnUse" gradientTransform="matrix(1.022 0 0 1.385 -.562 -1516.595)" fy="1102.39" fx="20.442"><stop offset=".258" stop-color="#F1872B"/><stop offset=".294" stop-color="#EF8427"/><stop offset=".515" stop-color="#E77411"/><stop offset=".729" stop-color="#E26B04"/><stop offset=".927" stop-color="#E06800"/></radialGradient><radialGradient id="e" cx="-31.126" cy="1083.686" r="60.708" gradientUnits="userSpaceOnUse" gradientTransform="matrix(1.022 0 0 1.385 -.562 -1516.595)" fy="1083.686" fx="-31.126"><stop offset="0" stop-color="#FAAF3D"/><stop offset=".126" stop-color="#F7A636"/><stop offset=".697" stop-color="#EB811B"/><stop offset="1" stop-color="#E67311"/></radialGradient><radialGradient id="f" cx="7.281" cy="1099.962" r="19.252" gradientUnits="userSpaceOnUse" gradientTransform="matrix(1 0 0 1.355 0 -1314.858)" fy="1099.962" fx="7.281"><stop offset="0" stop-color="#FAAF3D"/><stop offset=".047" stop-color="#F9AC3B"/><stop offset=".67" stop-color="#F3871D"/><stop offset="1" stop-color="#F17912"/></radialGradient><radialGradient id="g" cx="15.027" cy="177.013" r="22.242" gradientUnits="userSpaceOnUse" fy="177.013" fx="15.027"><stop offset="0" stop-color="#FAFAFA"/><stop offset=".127" stop-color="#FAF9F8"/><stop offset=".173" stop-color="#F9F5F1"/><stop offset=".206" stop-color="#F9EEE6"/><stop offset=".233" stop-color="#F8E5D5"/><stop offset=".255" stop-color="#F7D8BF"/><stop offset=".275" stop-color="#F5C9A3"/><stop offset=".293" stop-color="#F3B784"/><stop offset=".309" stop-color="#F1A360"/><stop offset=".425" stop-color="#F1A462"/><stop offset=".469" stop-color="#F2A869"/><stop offset=".502" stop-color="#F2AF75"/><stop offset=".528" stop-color="#F3B986"/><stop offset=".55" stop-color="#F5C59C"/><stop offset=".567" stop-color="#F6D2B3"/><stop offset="1" stop-color="#E67311"/></radialGradient></defs><g><path fill="none" stroke="#41464c" d="M4.3 5.32v37.93c-.04.38-.92.68-1.96.68-1.05 0-1.87-.3-1.84-.68V5.32c0-.37.9-.68 1.96-.68 1.04 0 1.87.3 1.83.68"/><path fill="none" stroke="#994408" stroke-width="1.2" d="M47.3 17.3c-2.02 1.77-4.96 4.75-8.7 3.16-1.23-.54-2.2-.86-3-1.07l-2.1-1.65c1.38.35 3.86.15 5.14-.7 1.48-.96 3.45-3 5-4.8.28.58.75 1.36 1.3 1.86.7.63 1.62 1.96 2.36 3.2z"/><path fill="none" stroke="#994408" stroke-width="1.2" d="M35.6 19.4c-1.88-.5-2.84-.4-4.13-.78-3.36-1.02-4.38-.5-6.22-1.87-2-1.5-4.6-2.77-5.04-3-5.77-3.15-9.22-2.36-10.93-2.6-.1-.05-2.4-3.66-2.4-3.73 0 0 3.04-2.05 3.42-2.3.17.02 2.78-1.7 10.88 2.64 1.56.98 3.33 3.15 5.28 4.36 3.52 2.18 5.9 4.95 9.05 7.22l.1.05z"/><path fill="none" stroke="#994408" stroke-width="1.2" d="M35.6 19.4c-1.88-.5-2.84-.4-4.13-.78-3.36-1.02-4.38-.5-6.22-1.87-2-1.5-4.6-2.77-5.04-3-5.77-3.15-9.22-2.36-10.93-2.6-.1-.05-2.4-3.66-2.4-3.73 0 0 3.04-2.05 3.42-2.3.17.02 2.78-1.7 10.88 2.64 1.56.98 3.33 3.15 5.28 4.36 3.52 2.18 5.9 4.95 9.05 7.22l.1.05z"/><circle cx="10.792" cy="177.028" r="1.194" fill="none" stroke="#994408" stroke-width=".979" transform="matrix(1.022 0 0 1.022 -.562 -172.767)"/><path fill="url(#a)" d="M4.3 5.32v37.65c-.04.37-.92.67-1.96.67-1.05 0-1.87-.3-1.84-.67V5.32c0-.37.9-.68 1.96-.68 1.04 0 1.87.3 1.83.68"/><path fill="none" stroke="#41464c" stroke-width=".7" d="M4.17 4.96c1.74.47 5.8 2.2 5.33 3.16"/><path fill="url(#b)" d="M47.3 17.3c-2.02 1.77-4.96 4.75-8.7 3.16-1.23-.54-2.2-.86-3-1.07l-2.1-1.65c1.38.35 3.86.15 5.14-.7 1.48-.96 3.45-3 5-4.8.28.58.75 1.36 1.3 1.86.7.63 1.62 1.96 2.36 3.2z"/><g transform="matrix(1.022 0 0 1.022 -.562 -172.767)"><radialGradient cx="46.116" cy="182.995" r="13.683" gradientUnits="userSpaceOnUse" fy="182.995" fx="46.116"><stop offset="0" stop-color="#FAFAFA"/><stop offset=".238" stop-color="#F7E2CF"/><stop offset=".596" stop-color="#F4C093"/><stop offset=".861" stop-color="#F2AB6E"/><stop offset="1" stop-color="#F1A360"/></radialGradient><path fill="url(#c)" d="M42.98 181.34c-1.04 1.2-3 3.35-4.6 4.4-1.08.7-2.84.85-4.03.78l-.96-.06 1.98 1.55.06.03c.9.24 1.84.58 2.9 1.03 3.4 1.44 6.1-.96 8.08-2.72l.42-.36-.13-.22c-.8-1.3-1.6-2.4-2.16-2.9-.5-.45-.85-1.05-1.07-1.47l-.2-.4-.3.34zm.18.7c.24.4.54.87.97 1.26.5.43 1.2 1.42 1.92 2.57 0 0-.03.03-.03.03-1.86 1.65-4.4 3.9-7.45 2.6-1.05-.45-2-.78-2.9-1.02-.06-.05-.45-.35-.46-.36 1.18-.04 2.56-.27 3.5-.88 1.54-1 3.36-2.95 4.46-4.2z"/></g><path fill="url(#d)" d="M26.13 11.9c-.42-.32-.68.57-.64 1.24.05 1.04.58 4.2 1.04 4.35 1.2.47 2.4.36 4.93 1.12 1.3.4 2.24.27 4.12.77l-.1-.06c-3.15-2.27-5.52-5.04-9.04-7.22-.1-.07-.22-.14-.33-.22z"/><path fill="url(#e)" d="M26.54 17.5c-.42-.17-.83-.4-1.3-.75-1.98-1.5-4.4-2.67-4.84-2.9-.77-.4.12-6.43.78-6.1 1.47.93 3.13 2.92 4.95 4.15-.42-.32-.68.57-.64 1.24.05 1.04.58 4.2 1.04 4.35z"/><g transform="matrix(1.022 0 0 1.022 -.562 -172.767)"><radialGradient cx="7.281" cy="1099.962" r="19.252" gradientUnits="userSpaceOnUse" gradientTransform="matrix(1 0 0 1.355 0 -1314.858)" fy="1099.962" fx="7.281"><stop offset="0" stop-color="#FAAF3D"/><stop offset=".047" stop-color="#F9AC3B"/><stop offset=".67" stop-color="#F3871D"/><stop offset="1" stop-color="#F17912"/></radialGradient><path fill="url(#f)" d="M21.28 176.64c-7.93-4.25-10.48-2.56-10.66-2.6-.38.26-3.34 2.26-3.34 2.26 0 .07 2.24 3.6 2.34 3.65 1.68.24 5.05-.54 10.7 2.54l.2.1c-.75-.4.1-6.3.76-5.96zm-10.5 1.58c-.65 0-1.18-.53-1.18-1.2 0-.65.53-1.2 1.2-1.2.65 0 1.18.55 1.18 1.2 0 .67-.53 1.2-1.2 1.2z"/></g><g transform="matrix(1.022 0 0 1.022 -.562 -172.767)"><radialGradient cx="15.027" cy="177.013" r="22.242" gradientUnits="userSpaceOnUse" fy="177.013" fx="15.027"><stop offset="0" stop-color="#FAFAFA"/><stop offset=".127" stop-color="#FAF9F8"/><stop offset=".173" stop-color="#F9F5F1"/><stop offset=".206" stop-color="#F9EEE6"/><stop offset=".233" stop-color="#F8E5D5"/><stop offset=".255" stop-color="#F7D8BF"/><stop offset=".275" stop-color="#F5C9A3"/><stop offset=".293" stop-color="#F3B784"/><stop offset=".309" stop-color="#F1A360"/><stop offset=".425" stop-color="#F1A462"/><stop offset=".469" stop-color="#F2A869"/><stop offset=".502" stop-color="#F2AF75"/><stop offset=".528" stop-color="#F3B986"/><stop offset=".55" stop-color="#F5C59C"/><stop offset=".567" stop-color="#F6D2B3"/><stop offset="1" stop-color="#E67311"/></radialGradient><path fill="url(#g)" d="M10.75 174l-.15.06-3.33 2.26 2.35 3.64h.14l1.17.05c1.86.03 4.95.07 9.4 2.5l.3.14c.8.43 2.96 1.54 4.63 2.8 1.1.8 1.88.94 3.07 1.14l3.04.7 1.7.3s2.22.42 2.22.42l-3.7-3.1c-1.57-1.36-3.18-2.78-5.15-4-1-.63-1.96-1.5-2.87-2.35-.82-.77-1.58-1.47-2.3-1.9-4.6-2.48-8.34-3.4-10.53-2.64zm10.23 3.16c.65.4 1.4 1.1 2.17 1.8.95.9 1.92 1.8 2.98 2.45 1.93 1.2 3.52 2.6 5.07 3.97 0 0 1.12.93 1.95 1.63-.06-.02-1.66-.32-1.66-.32l-3.06-.7c-1.2-.2-1.85-.3-2.83-1.03-1.7-1.28-3.88-2.4-4.7-2.83l-.3-.16c-4.57-2.48-7.75-2.52-9.66-2.55 0 0-.7-.02-1-.04-.12-.2-1.6-2.48-1.85-2.88.15-.1 2.84-1.92 2.84-1.92v.02c2.04-.72 5.6.2 10.04 2.58z"/></g><path fill="none" stroke="#41464c" stroke-width=".7" d="M9.5 8.12C9 9.16 3.8 4.96 4.17 4.96"/></g></svg>