<svg xmlns="http://www.w3.org/2000/svg" width="16" height="16"><g stroke="#eeeeec" color="#000" stroke-linecap="round"><path fill="#2e3436" stroke-width="1.014" d="M7.5.5C3.64.5.5 3.62.5 7.48c0 3.86 3.14 7 7 7s7-3.14 7-7S11.35.5 7.5.5z" overflow="visible"/><path fill="#eeeeec" stroke-width="1.014" d="M7.5 3.3c2.3 0 4.2 1.9 4.2 4.2 0 2.33-1.9 4.22-4.2 4.22-2.32 0-4.2-1.9-4.2-4.2 0-2.33 1.88-4.22 4.2-4.22z" overflow="visible"/><path fill="#2e3436" d="M6.5 3.54v2.9h-1V8.5h1v2h2.06v-2h2.96V6.44H8.56v-2.9H6.5z" overflow="visible"/></g></svg>