<svg xmlns="http://www.w3.org/2000/svg" width="16" height="16" xmlns:xlink="http://www.w3.org/1999/xlink"><defs><linearGradient id="b"><stop offset="0" stop-color="#616e72"/><stop offset="1" stop-color="#2e3436"/></linearGradient><linearGradient id="a"><stop offset="0" stop-color="#e5e5e2"/><stop offset="1" stop-color="#b7b7af"/></linearGradient><linearGradient id="c" x1="8.363" x2="14.402" y1="2.767" y2="18.439" xlink:href="#a" gradientUnits="userSpaceOnUse" gradientTransform="matrix(1.004 -.16 .16 1.004 -1.67 1.118)"/><linearGradient id="d" x1="11.994" x2="9.529" y1="1.556" y2="13.661" xlink:href="#b" gradientUnits="userSpaceOnUse" gradientTransform="matrix(1.004 -.16 .16 1.004 -1.67 1.118)"/></defs><g><path fill="#0c0c0c" fill-opacity=".502" d="M8.04 1.8c-1.73-1.24-4.42-.47-6 1.7C.47 5.7.6 8.46 2.32 9.7c1.24.9 3.15.5 4.6-.43l1.9 1.38-1.2 1.67 1.7 1.25 1.23-1.68 1.64 1.18-1.23 1.68 1.75 1.26 3.26-4.44-6.9-5c.67-1.84.32-3.78-1.04-4.77zM6.36 4.33c.8.58.97 1.68.4 2.48-.58.8-1.68.97-2.47.4-.8-.6-1-1.7-.43-2.5.57-.8 1.7-.95 2.5-.38z" color="#000" overflow="visible" enable-background="accumulate"/><path fill="url(#c)" stroke="url(#d)" stroke-width=".5" d="M7.43.9c-1.73-1.26-4.4-.5-6 1.7C-.13 4.75 0 7.52 1.72 8.77c1.25.9 3.16.5 4.62-.43l1.9 1.38-1.2 1.67 1.7 1.25 1.22-1.68 1.64 1.2-1.2 1.67 1.73 1.26 3.27-4.44-6.9-5C9.14 3.82 8.8 1.88 7.43.9zM5.76 3.4c.8.58.96 1.68.4 2.48-.58.8-1.68.97-2.48.4-.8-.6-1-1.7-.42-2.5.57-.8 1.7-.95 2.5-.37z" color="#000" overflow="visible" enable-background="accumulate"/><path fill="#fff" d="M4.86.6c-.68.14-1.3.48-1.8.85C2.02 2.2 1.33 3.1 1.33 3.1 3.2 1.8 4.92.94 6.4 1.86c1.74 1.08 1.8 3.2 1.14 4.78l6.85 4.93.62-.84L8.2 5.8c.12-.3.35-.65.4-1.48.08-1.08-.2-2.48-1.57-3.34-.7-.44-1.5-.53-2.17-.4z" style="text-indent:0;text-align:start;line-height:normal;text-transform:none;block-progression:tb;-inkscape-font-specification:Sans" color="#000" overflow="visible" enable-background="accumulate" font-family="Sans"/><path fill="none" stroke="#555753" stroke-width=".5" d="M11.9 14.66l3-4.07"/><path fill="#888a85" d="M.93 7.5c2.14 1.58 3.76 1.2 5.63-.26l-.24.83s-1.77 1.2-3.2 1.02C1.6 8.9.93 7.5.93 7.5z"/><path fill="#888a85" d="M6.53 7.28l2.7 2.03-.7.36-2.4-1.63z" color="#000" overflow="visible" enable-background="accumulate"/></g></svg>