<svg xmlns="http://www.w3.org/2000/svg" width="48" height="48" xmlns:xlink="http://www.w3.org/1999/xlink"><defs><linearGradient id="c"><stop offset="0" stop-color="#fff"/><stop offset="1" stop-color="#cbcbc5"/></linearGradient><linearGradient id="b"><stop offset="0" stop-color="#2e3436"/><stop offset=".5" stop-color="#2e3436"/><stop offset="1" stop-color="#2e3436" stop-opacity="0"/></linearGradient><linearGradient id="a"><stop offset="0" stop-color="#b9ef87"/><stop offset=".75" stop-color="#80da28"/><stop offset="1" stop-color="#569e0f"/></linearGradient><radialGradient cx="18.143" cy="19" r="22.548" xlink:href="#a" fx="18.143" fy="19" gradientUnits="userSpaceOnUse"/><radialGradient cx="22.524" cy="22.619" r="22.048" xlink:href="#b" fx="22.524" fy="22.619" gradientUnits="userSpaceOnUse"/><linearGradient x1="13.476" x2="34.476" y1="12.786" y2="34.69" xlink:href="#c" gradientUnits="userSpaceOnUse"/></defs><g><path fill="none" stroke="#ed2728" stroke-width="1.02.959" d="M2.1 31.3L6.45 20l8.08-4.46L24.56 20l8.32 12.93 8.5 3.54 4.54-7.13"/><g><path stroke="#fff" stroke-width=".9981999999999999" d="M-.42 29.5v4.03H3.6V29.5H-.42z"/></g><g><path stroke="#fff" stroke-width=".9970999999999999" d="M21.6 18.36v4.13h4.14v-4.14H21.6z"/></g><g><path stroke="#fff" stroke-width=".9981999999999999" d="M3.52 18.47v4.03h4.03v-4.03H3.52z"/></g><g><path stroke="#fff" stroke-width=".9981999999999999" d="M12.58 14.45v4.03h4.02v-4.03h-4.02z"/></g><path stroke="#fff" d="M30.5 30.5h4v4h-4z"/><path stroke="#fff" d="M38.5 34.5h4v4h-4z"/><path stroke="#fff" d="M44.5 26.5h4v4h-4z"/></g></svg>