<svg xmlns="http://www.w3.org/2000/svg" width="48" height="48" xmlns:xlink="http://www.w3.org/1999/xlink"><defs><radialGradient id="c" cx="1144.115" cy="270.045" r="34.057" gradientUnits="userSpaceOnUse" fy="270.045" fx="1144.115"><stop offset="0" stop-color="#D3E0E0"/><stop offset="1" stop-color="#9DA8B2"/></radialGradient><radialGradient id="d" cx="1180.527" cy="270.474" r="33.867" gradientUnits="userSpaceOnUse" fy="270.474" fx="1180.527"><stop offset="0" stop-color="#BAD1D7"/><stop offset=".826" stop-color="#6D7580"/><stop offset="1" stop-color="#41454C"/></radialGradient><radialGradient id="e" cx="1147.141" cy="243.53" r="45.69" gradientUnits="userSpaceOnUse" fy="243.53" fx="1147.141"><stop offset="0" stop-color="#fff"/><stop offset="1" stop-color="#8794A0"/></radialGradient><radialGradient id="f" cx="1155.454" cy="245.608" r="32.803" xlink:href="#a" gradientUnits="userSpaceOnUse" fx="1155.454" fy="245.608"/><radialGradient cx="1155.454" cy="245.608" r="32.802" gradientUnits="userSpaceOnUse" fy="245.608" fx="1155.454"><stop offset=".006" stop-color="#fff"/><stop offset=".444" stop-color="#C5D2D4"/><stop offset="1" stop-color="#A7B8BE"/></radialGradient><radialGradient id="a" cx="1155.454" cy="245.608" r="32.803" gradientUnits="userSpaceOnUse" fy="245.608" fx="1155.454"><stop offset=".006" stop-color="#fff"/><stop offset=".444" stop-color="#C5D2D4"/><stop offset="1" stop-color="#A7B8BE"/></radialGradient><radialGradient id="g" cx="1155.454" cy="245.608" r="32.803" xlink:href="#a" gradientUnits="userSpaceOnUse" fx="1155.454" fy="245.608"/><radialGradient id="h" cx="1165.2" cy="277.609" r="32.222" gradientUnits="userSpaceOnUse" fy="277.609" fx="1165.2"><stop offset="0" stop-color="#BAD1D7"/><stop offset=".826" stop-color="#6D7580"/><stop offset="1" stop-color="#41454C"/></radialGradient><radialGradient id="i" cx="1134.333" cy="280.077" r="33.016" gradientUnits="userSpaceOnUse" fy="280.077" fx="1134.333"><stop offset="0" stop-color="#D3E0E0"/><stop offset="1" stop-color="#9DA8B2"/></radialGradient><radialGradient id="j" cx="1139.739" cy="256.539" r="29.377" gradientUnits="userSpaceOnUse" fy="256.539" fx="1139.739"><stop offset="0" stop-color="#fff"/><stop offset="1" stop-color="#8794A0"/></radialGradient><radialGradient id="k" cx="1144.827" cy="259.199" r="20.621" xlink:href="#b" gradientUnits="userSpaceOnUse" fx="1144.827" fy="259.199"/><radialGradient id="b" cx="1144.827" cy="259.199" r="20.621" gradientUnits="userSpaceOnUse" fy="259.199" fx="1144.827"><stop offset=".006" stop-color="#fff"/><stop offset=".444" stop-color="#C5D2D4"/><stop offset="1" stop-color="#A7B8BE"/></radialGradient><radialGradient id="l" cx="1144.827" cy="259.199" r="20.621" xlink:href="#b" gradientUnits="userSpaceOnUse" fx="1144.827" fy="259.199"/></defs><g><path fill="none" stroke="#2d3335" stroke-width=".25" d="M30.56 39.33v-27"/><path fill="none" stroke="#2d3335" stroke-width=".25" d="M43.27 34.53V9.63"/><path fill="url(#c)" d="M1146.34 245.32l20.34 2.8v25.97l-20.34-4.57v-24.2z" transform="matrix(1.04 0 0 1.04 -1183.154 -245.831)"/><path fill="url(#d)" d="M1166.67 248.13l12.22-2.58v23.92l-12.23 4.62v-25.97z" transform="matrix(1.04 0 0 1.04 -1183.154 -245.831)"/><path fill="url(#e)" d="M1166.67 248.13l-20.33-2.8 12.95-2.22 19.6 2.45-12.23 2.58z" transform="matrix(1.04 0 0 1.04 -1183.154 -245.831)"/><g transform="matrix(1.04 0 0 1.04 -1183.154 -245.831)"><radialGradient cx="1155.454" cy="245.608" r="32.803" gradientUnits="userSpaceOnUse" fy="245.608" fx="1155.454"><stop offset=".006" stop-color="#fff"/><stop offset=".444" stop-color="#C5D2D4"/><stop offset="1" stop-color="#A7B8BE"/></radialGradient><path fill="url(#f)" d="M1146.27 245.82l20.34 2.8.14-1-20.33-2.8-.13 1z"/></g><g><path fill="url(#g)" d="M1166.17 248.13h1v25.96h-1z" transform="matrix(1.04 0 0 1.04 -1183.154 -245.831)"/></g><path fill="none" stroke="#44484c" stroke-width=".99944" d="M9.4 9.4v25.2l21.16 4.73 12.7-4.8V9.63L22.9 7.1 9.4 9.4z"/><path fill="none" stroke="#2d3335" stroke-width=".25" d="M30.56 39.33l12.7-4.8"/><path fill="none" stroke="#2d3335" stroke-width=".25" d="M14.67 45.34l11.7-4.43"/><path fill="none" stroke="#ed2728" stroke-width="2" d="M47.26 36.88L21 47.23" stroke-linecap="round"/><path fill="none" stroke="#2d3335" stroke-width=".25" d="M9.4 34.6V9.4"/><path fill="none" stroke="#2d3335" stroke-width=".25" d="M14.67 45.34V25.86"/><path fill="none" stroke="#2d3335" stroke-width=".25" d="M.5 41.7V23.17"/><path fill="none" stroke="#2d3335" stroke-width=".25" d="M26.38 40.9V22.73"/><path fill="url(#h)" d="M1162.66 275.6l-11.26 4.26v-18.72l11.26-3.02v17.5z" transform="matrix(1.04 0 0 1.04 -1183.154 -245.831)"/><path fill="url(#i)" d="M1151.4 279.86l-13.6-3.5v-17.8l13.6 2.58v18.72z" transform="matrix(1.04 0 0 1.04 -1183.154 -245.831)"/><path fill="url(#j)" d="M1151.4 261.14l-13.6-2.6 11.6-2.72 13.26 2.3-11.26 3.02z" transform="matrix(1.04 0 0 1.04 -1183.154 -245.831)"/><g transform="matrix(1.04 0 0 1.04 -1183.154 -245.831)"><radialGradient cx="1144.827" cy="259.199" r="20.621" gradientUnits="userSpaceOnUse" fy="259.199" fx="1144.827"><stop offset=".006" stop-color="#fff"/><stop offset=".444" stop-color="#C5D2D4"/><stop offset="1" stop-color="#A7B8BE"/></radialGradient><path fill="url(#k)" d="M1151.38 260.63c-.22-.04-13.5-2.57-13.5-2.57l-.18.98 13.72 2.62 11.37-3.05-.27-.96s-10.93 2.93-11.15 3z"/></g><g><path fill="url(#l)" d="M1150.9 261.14h1v18.73h-1z" transform="matrix(1.04 0 0 1.04 -1183.154 -245.831)"/></g><path fill="none" stroke="#44484c" stroke-width=".99944" d="M.5 23.16V41.7l14.17 3.64 11.7-4.43V22.73l-13.78-2.4L.5 23.16z"/><path fill="none" stroke="#eeeeec" d="M30.46 12.28L42.94 9.9"/></g></svg>