<svg xmlns="http://www.w3.org/2000/svg" width="48" height="48" xmlns:xlink="http://www.w3.org/1999/xlink"><defs><linearGradient id="j"><stop offset="0" stop-color="#f8ecf9"/><stop offset="1" stop-color="#fb00c8"/></linearGradient><linearGradient id="c"><stop offset="0" stop-color="#f3f3f3"/><stop offset="1" stop-color="#7d7d7d"/></linearGradient><linearGradient id="h"><stop offset="0" stop-color="#eff9ec"/><stop offset="1" stop-color="#95fb00"/></linearGradient><linearGradient id="i"><stop offset="0" stop-color="#f9ecec"/><stop offset="1" stop-color="#fb0000"/></linearGradient><linearGradient id="k"><stop offset="0" stop-color="#f9f9ec"/><stop offset="1" stop-color="#cedf00"/></linearGradient><linearGradient id="g"><stop offset="0" stop-color="#f5ecf9"/><stop offset="1" stop-color="#a100fb"/></linearGradient><linearGradient id="l"><stop offset="0" stop-color="#ecf2f9"/><stop offset="1" stop-color="#006efb"/></linearGradient><linearGradient id="m"><stop offset="0" stop-color="#f5f9ec"/><stop offset="1" stop-color="#13fb00"/></linearGradient><linearGradient><stop offset="0" stop-color="#d89800"/><stop offset="1" stop-color="#ffe242"/></linearGradient><linearGradient id="f"><stop offset="0" stop-color="#5f5f5f"/><stop offset="1"/></linearGradient><linearGradient id="e"><stop offset="0" stop-color="#fff"/><stop offset="1" stop-color="#fff" stop-opacity=".502"/></linearGradient><linearGradient id="d"><stop offset="0" stop-color="#fff" stop-opacity="0"/><stop offset="1" stop-color="#ffb7b7"/></linearGradient><linearGradient id="b"><stop offset="0" stop-color="#f9f4ec"/><stop offset=".701" stop-color="#fcde98"/><stop offset="1" stop-color="#fb9900"/></linearGradient><linearGradient id="a"><stop offset="0" stop-color="#fff"/><stop offset="1" stop-color="#aac1d9"/></linearGradient><radialGradient cx="14.002" cy="13.179" r="5.348" xlink:href="#a" fx="14.002" fy="13.179" gradientTransform="matrix(5.786 0 0 7.128 -67.006 -84.776)" gradientUnits="userSpaceOnUse"/><radialGradient cx="14.002" cy="19.413" r="6.117" xlink:href="#a" fx="14.002" fy="19.413" gradientTransform="matrix(5.058 0 0 6.232 -56.823 -111.815)" gradientUnits="userSpaceOnUse"/><radialGradient cx="14.002" cy="4.925" r="9.612" xlink:href="#a" fx="14.002" fy="4.925" gradientTransform="matrix(3.219 0 0 3.966 -31.069 -10.372)" gradientUnits="userSpaceOnUse"/><radialGradient cx="14.002" cy="19.691" r="6.265" xlink:href="#a" fx="14.002" fy="19.691" gradientTransform="matrix(4.939 0 0 6.084 -55.151 -110.649)" gradientUnits="userSpaceOnUse"/><radialGradient cx="14.002" cy="12.457" r="8.983" xlink:href="#a" fx="14.002" fy="12.457" gradientTransform="matrix(3.382 .651 -.802 4.167 -19.261 -53.317)" gradientUnits="userSpaceOnUse"/><radialGradient cx="14.002" cy="8.346" r="9.769" xlink:href="#a" fx="14.002" fy="8.346" gradientTransform="matrix(3.167 0 0 3.902 -30.144 -23.41)" gradientUnits="userSpaceOnUse"/><radialGradient cx="14.002" cy="9.158" r="9.96" xlink:href="#a" fx="14.002" fy="9.158" gradientTransform="matrix(3.107 0 0 3.827 -29.496 -25.891)" gradientUnits="userSpaceOnUse"/><radialGradient cx="14.002" cy="3.376" r="8.996" xlink:href="#a" fx="14.002" fy="3.376" gradientTransform="matrix(3.439 0 0 4.237 -34.155 -5.145)" gradientUnits="userSpaceOnUse"/><radialGradient cx="14.002" cy="8.505" r="6.308" xlink:href="#a" fx="14.002" fy="8.505" gradientTransform="matrix(4.811 -.956 1.177 5.927 -66.884 -28.227)" gradientUnits="userSpaceOnUse"/><radialGradient cx="14.002" cy="9.158" r="9.96" xlink:href="#a" gradientUnits="userSpaceOnUse" gradientTransform="matrix(3.107 0 0 3.827 -29.496 -25.891)" fx="14.002" fy="9.158"/><radialGradient cx="14.002" cy="8.505" r="6.308" xlink:href="#a" gradientUnits="userSpaceOnUse" gradientTransform="matrix(4.811 -.956 1.177 5.927 -66.884 -28.227)" fx="14.002" fy="8.505"/><radialGradient cx="14.002" cy="8.346" r="9.769" xlink:href="#a" gradientUnits="userSpaceOnUse" gradientTransform="matrix(3.167 0 0 3.902 -30.144 -23.41)" fx="14.002" fy="8.346"/><radialGradient cx="14.002" cy="12.457" r="8.983" xlink:href="#a" gradientUnits="userSpaceOnUse" gradientTransform="matrix(3.382 .651 -.802 4.167 -19.261 -53.317)" fx="14.002" fy="12.457"/><radialGradient cx="14.002" cy="19.691" r="6.265" xlink:href="#a" gradientUnits="userSpaceOnUse" gradientTransform="matrix(4.939 0 0 6.084 -55.151 -110.649)" fx="14.002" fy="19.691"/><radialGradient cx="14.002" cy="4.925" r="9.612" xlink:href="#a" gradientUnits="userSpaceOnUse" gradientTransform="matrix(3.219 0 0 3.966 -31.069 -10.372)" fx="14.002" fy="4.925"/><radialGradient cx="14.002" cy="19.413" r="6.117" xlink:href="#a" gradientUnits="userSpaceOnUse" gradientTransform="matrix(5.058 0 0 6.232 -56.823 -111.815)" fx="14.002" fy="19.413"/><radialGradient cx="19.74" cy="12.95" r="20.542" xlink:href="#b" fx="19.74" fy="12.95" gradientTransform="matrix(1.152 -.057 .072 1.453 -4.042 -.992)" gradientUnits="userSpaceOnUse"/><radialGradient cx="19.74" cy="12.95" r="20.542" xlink:href="#b" gradientUnits="userSpaceOnUse" gradientTransform="matrix(1.53 -.265 .335 1.928 -20.544 -.288)" fx="19.74" fy="12.95"/><radialGradient id="p" cx="19.74" cy="12.95" r="20.542" xlink:href="#c" gradientUnits="userSpaceOnUse" gradientTransform="matrix(1.094 .127 -.16 1.38 5.679 -3.042)" fx="19.74" fy="12.95"/><radialGradient cx="19.74" cy="12.95" r="20.542" xlink:href="#b" gradientUnits="userSpaceOnUse" gradientTransform="matrix(1.15 -.095 .119 1.45 -4.509 -.098)" fx="19.74" fy="12.95"/><radialGradient cx="19.74" cy="12.95" r="20.542" xlink:href="#b" gradientUnits="userSpaceOnUse" gradientTransform="matrix(1.146 .133 -.168 1.445 4.424 -5.933)" fx="19.74" fy="12.95"/><radialGradient cx="19.74" cy="12.95" r="20.542" xlink:href="#b" gradientUnits="userSpaceOnUse" gradientTransform="matrix(1.14 -.181 .228 1.436 -5.098 3.324)" fx="19.74" fy="12.95"/><radialGradient cx="19.74" cy="12.95" r="20.542" xlink:href="#b" gradientUnits="userSpaceOnUse" gradientTransform="matrix(1.154 .025 -.032 1.454 -1.78 -1.613)" fx="19.74" fy="12.95"/><radialGradient cx="19.74" cy="12.95" r="20.542" xlink:href="#b" gradientUnits="userSpaceOnUse" gradientTransform="matrix(1.129 -.236 .297 1.424 -8.032 4.872)" fx="19.74" fy="12.95"/><radialGradient cx="19.74" cy="12.95" r="20.542" xlink:href="#b" gradientUnits="userSpaceOnUse" gradientTransform="matrix(1.153 .045 -.057 1.453 -3.347 -3.301)" fx="19.74" fy="12.95"/><radialGradient cx="19.74" cy="12.95" r="20.542" xlink:href="#b" gradientUnits="userSpaceOnUse" gradientTransform="matrix(1.153 .054 -.068 1.453 -1.166 -5.7)" fx="19.74" fy="12.95"/><radialGradient cx="19.74" cy="12.95" r="20.542" xlink:href="#b" gradientUnits="userSpaceOnUse" gradientTransform="matrix(1.133 -.218 .275 1.428 -10.502 2.7)" fx="19.74" fy="12.95"/><radialGradient cx="19.74" cy="12.95" r="20.542" xlink:href="#b" gradientUnits="userSpaceOnUse" gradientTransform="matrix(1.435 -.766 .965 1.808 -26.638 21.013)" fx="19.74" fy="12.95"/><linearGradient x1="23.322" x2="24.544" y1=".399" y2="45.983" xlink:href="#d" gradientUnits="userSpaceOnUse"/><linearGradient x1="9.49" x2="40.879" y1="11.259" y2="40.957" xlink:href="#e" gradientUnits="userSpaceOnUse"/><linearGradient id="r" x1="25.787" x2="40.8" y1="12.566" y2="12.566" xlink:href="#f" gradientUnits="userSpaceOnUse" gradientTransform="matrix(.942 0 0 .943 3.176 .187)"/><linearGradient id="C" x1="8.58" x2="24.321" y1="39.441" y2="39.441" xlink:href="#f" gradientUnits="userSpaceOnUse" gradientTransform="matrix(.925 .18 -.18 .925 7.935 .325)"/><linearGradient id="t" x1="2.507" x2="14.711" y1="28.63" y2="28.63" xlink:href="#f" gradientUnits="userSpaceOnUse" gradientTransform="matrix(.942 0 0 .943 .476 1.52)"/><linearGradient id="v" x1="6.157" x2="25.683" y1="18.077" y2="18.077" xlink:href="#f" gradientUnits="userSpaceOnUse" gradientTransform="matrix(.942 0 0 .943 1.523 1.52)"/><linearGradient id="x" x1="13.393" x2="31.749" y1="10.082" y2="10.082" xlink:href="#f" gradientUnits="userSpaceOnUse" gradientTransform="matrix(.942 0 0 .943 1.047 .092)"/><linearGradient id="q" x1="10.203" x2="25.683" y1="6.18" y2="27.191" xlink:href="#g" gradientUnits="userSpaceOnUse" gradientTransform="matrix(.942 0 0 .943 3.176 .187)"/><linearGradient id="B" x1="10.203" x2="25.683" y1="6.18" y2="27.191" xlink:href="#h" gradientUnits="userSpaceOnUse" gradientTransform="matrix(.925 .18 -.18 .925 7.935 .325)"/><linearGradient id="s" x1="10.203" x2="25.683" y1="6.18" y2="27.191" xlink:href="#i" gradientUnits="userSpaceOnUse" gradientTransform="matrix(.942 0 0 .943 .476 1.52)"/><linearGradient id="u" x1="10.203" x2="25.683" y1="6.18" y2="27.191" xlink:href="#j" gradientUnits="userSpaceOnUse" gradientTransform="matrix(.942 0 0 .943 1.523 1.52)"/><linearGradient id="w" x1="10.203" x2="25.683" y1="6.18" y2="27.191" xlink:href="#k" gradientUnits="userSpaceOnUse" gradientTransform="matrix(.942 0 0 .943 1.047 .092)"/><linearGradient x1="9.49" x2="40.879" y1="11.259" y2="40.957" xlink:href="#e" gradientUnits="userSpaceOnUse" gradientTransform="matrix(.895 .295 -.295 .895 10.366 -11.082)"/><linearGradient id="D" x1="9.49" x2="40.879" y1="11.259" y2="40.957" xlink:href="#e" gradientUnits="userSpaceOnUse" gradientTransform="matrix(.942 0 0 .943 2.189 3.329)"/><linearGradient id="F" x1="9.49" x2="40.879" y1="11.259" y2="40.957" xlink:href="#e" gradientUnits="userSpaceOnUse" gradientTransform="matrix(.942 0 0 .943 1.999 2.758)"/><linearGradient id="y" x1="9.49" x2="40.879" y1="11.259" y2="40.957" xlink:href="#e" gradientUnits="userSpaceOnUse" gradientTransform="matrix(.929 .159 -.159 .929 5.901 -2.882)"/><linearGradient id="I" x1="9.49" x2="40.879" y1="11.259" y2="40.957" xlink:href="#e" gradientUnits="userSpaceOnUse" gradientTransform="matrix(.942 0 0 .943 1.047 .092)"/><linearGradient id="n" x1="10.203" x2="25.683" y1="6.18" y2="27.191" xlink:href="#l" gradientUnits="userSpaceOnUse" gradientTransform="matrix(.942 0 0 .943 .952 .949)"/><linearGradient id="o" x1="6.157" x2="25.683" y1="18.077" y2="18.077" xlink:href="#f" gradientUnits="userSpaceOnUse" gradientTransform="matrix(.942 0 0 .943 .952 .949)"/><linearGradient id="E" x1="9.49" x2="40.879" y1="11.259" y2="40.957" xlink:href="#e" gradientUnits="userSpaceOnUse" gradientTransform="matrix(.942 0 0 .943 .952 .949)"/><linearGradient id="H" x1="9.49" x2="40.879" y1="11.259" y2="40.957" xlink:href="#e" gradientUnits="userSpaceOnUse" gradientTransform="matrix(.942 0 0 .943 .476 1.52)"/><linearGradient id="J" x1="9.49" x2="40.879" y1="11.259" y2="40.957" xlink:href="#e" gradientUnits="userSpaceOnUse" gradientTransform="matrix(.925 .18 -.18 .925 7.935 .325)"/><linearGradient id="z" x1="10.203" x2="25.683" y1="6.18" y2="27.191" xlink:href="#m" gradientUnits="userSpaceOnUse" gradientTransform="matrix(.942 0 0 .943 2.951 2.472)"/><linearGradient id="A" x1="6.157" x2="25.683" y1="18.077" y2="18.077" xlink:href="#f" gradientUnits="userSpaceOnUse" gradientTransform="matrix(.942 0 0 .943 2.951 2.472)"/><linearGradient id="G" x1="9.49" x2="40.879" y1="11.259" y2="40.957" xlink:href="#e" gradientUnits="userSpaceOnUse" gradientTransform="matrix(.942 0 0 .943 3.176 .187)"/><radialGradient id="K" cx="19.74" cy="12.95" r="20.542" xlink:href="#b" gradientUnits="userSpaceOnUse" gradientTransform="matrix(1.53 -.265 .335 1.928 -20.544 -.288)" fx="19.74" fy="12.95"/><linearGradient id="L" x1="9.49" x2="40.879" y1="11.259" y2="40.957" xlink:href="#e" gradientUnits="userSpaceOnUse" gradientTransform="matrix(.895 .295 -.295 .895 10.366 -11.082)"/></defs><g><path fill="#4e9a06" fill-rule="evenodd" stroke="#000" d="M30.1 4.36l5.56 8.5c-5.5-2.44-11.04-4.47-17.07-2.13l11.5-6.37z"/><path fill="url(#n)" fill-rule="evenodd" stroke="url(#o)" d="M7.22 15.48c1.12-3 2.68-5.8 4.48-8.05l6.22 9.8 5.58 2.6 1.2 7.22-8.5 1.5-1.03-9.75-7.95-3.32z" overflow="visible" enable-background="accumulate"/><path fill="url(#p)" fill-rule="evenodd" stroke="#000" d="M37.5 43.92c-3.5 3.05-8.27 4.05-13.25 3.22-1.2-.2-2.35-.5-3.44-.9l6.7-6.35 7.22-1.83 2.8 5.85z" overflow="visible" enable-background="accumulate"/><path fill="url(#q)" fill-rule="evenodd" stroke="url(#r)" d="M33.66 4.66c2.75 2.1 5.37 5.24 7.36 8.8l.14.18-5.67 5.18-5.38.58-2.18-7.93 5.72-6.8z" overflow="visible" enable-background="accumulate"/><path fill="url(#s)" fill-rule="evenodd" stroke="url(#t)" d="M6.1 39.67l4.5-7.78 3.13-.83.14-9.35-7.37-4.38C4.76 20.6 3.63 24.3 3.37 27.92c-.35 4.88.66 8.88 2.73 11.75z" overflow="visible" enable-background="accumulate"/><path fill="url(#u)" fill-rule="evenodd" stroke="url(#v)" d="M25.9 21.78l5.83-.1L28.7 32.9l-3 4.15-6.82-6.63 8.48-1.46-1.47-7.18z" overflow="visible" enable-background="accumulate"/><path fill="url(#w)" fill-rule="evenodd" stroke="url(#x)" d="M24.06 18.66l-.66-8.2 7.1-5.75C28.36 2.36 25.9.75 23.48.57c-3.1-.24-6.42 1.5-9.35 4.48l4.9 10.27 5.03 3.36z" overflow="visible" enable-background="accumulate"/><path fill="none" stroke="url(#y)" stroke-opacity=".502" stroke-width=".987" d="M27 22.67l3.55.05-2.34 8.75-2.5 4.17-4.67-4.6 7.53-1.47-1.57-6.9z" overflow="visible" enable-background="accumulate"/><path fill="url(#z)" fill-rule="evenodd" stroke="url(#A)" d="M35.4 22.84l7.5.42c.13 2.02.35 4.58.16 6.6-.47 4.8-2.17 8.4-4.63 11.15l-3.33-5.73-6.98 1.24 3.77-5.45 3.5-8.2z" overflow="visible" enable-background="accumulate"/><path fill="url(#B)" fill-rule="evenodd" stroke="url(#C)" d="M23.24 39.25C20.62 42.5 17.1 46.8 16.86 47c-2.54-1-6-3.2-8.2-5.7l4.12-8.14 3.52-.4 6.94 6.5z" overflow="visible" enable-background="accumulate"/><path fill="none" stroke="url(#D)" stroke-opacity=".502" stroke-width=".987" d="M36 23.9l6.15.3c.12 1.9.14 3.46-.05 5.37-.44 4.53-1.18 7.35-3.5 9.96l-2.96-5.42-5.73.98 2.7-3.14L36 23.9z" overflow="visible" enable-background="accumulate"/><path fill="none" stroke="url(#E)" stroke-opacity=".502" stroke-width=".987" d="M8.3 15c1.07-2.16 1.68-3.84 3.38-5.97l5.87 9.25 5.36 2.37.85 5.56-6.6 1.33-1.05-9.58L8.3 15z" overflow="visible" enable-background="accumulate"/><path fill="none" stroke="url(#F)" stroke-opacity=".502" stroke-width=".987" d="M36.28 43.57c-3.35 3.08-8.26 3.33-13.66 2.1l5.56-5.04 6.05-1.54 2.05 4.47z" overflow="visible" enable-background="accumulate"/><path fill="none" stroke="url(#G)" stroke-opacity=".502" stroke-width=".987" d="M33.77 6c2.6 2 4.5 4.27 6.37 7.63l-4.93 4.3-4.3.55-1.86-6.9L33.77 6z" overflow="visible" enable-background="accumulate"/><path fill="none" stroke="url(#H)" stroke-opacity=".502" stroke-width=".987" d="M6.08 37.97l3.88-6.68 2.75-.88.15-8.25-5.82-3.47c-1.64 3.07-2.32 5.9-2.57 9.32-.33 4.6.14 6.95 1.62 9.95z" overflow="visible" enable-background="accumulate"/><path fill="none" stroke="url(#I)" stroke-opacity=".502" stroke-width=".987" d="M22.87 16.72l-.53-6.7 6.9-5.23c-2.02-2.23-3.38-2.9-5.67-3.06-2.92-.23-5.5.84-8.25 3.66l4.6 9.3 2.95 2.02z" overflow="visible" enable-background="accumulate"/><path fill="none" stroke="url(#J)" stroke-opacity=".502" stroke-width=".987" d="M21.94 39.37l-5.25 6.46c-2.06-1-4.73-2.56-6.84-4.6l3.7-7.32 2.5-.04 5.88 5.5z" overflow="visible" enable-background="accumulate"/><g><path fill="url(#K)" fill-rule="evenodd" stroke="#000" d="M43.2 14.07c1.15 1.98 1.84 3.48 2.67 5.6L35.6 21.36l7.6-7.28z" overflow="visible" enable-background="accumulate" transform="matrix(.983 .185 -.185 .983 3.48 -6.329)"/><path fill="none" stroke="url(#L)" stroke-opacity=".502" stroke-width=".987" d="M42.96 15.45c.96 1.33 1.27 2.23 1.6 3.5l-5.96.9 4.36-4.4z" overflow="visible" enable-background="accumulate" transform="matrix(.983 .185 -.185 .983 3.48 -6.329)"/></g></g></svg>