<svg xmlns="http://www.w3.org/2000/svg" width="48" height="48" xmlns:xlink="http://www.w3.org/1999/xlink" viewBox="0 0 45.238 43.682" overflow="visible" enable-background="new 0 0 45.238 43.682" version="1"><defs><linearGradient id="a"><stop offset="0" stop-color="#d3d7cf"/><stop offset="1" stop-color="#fff"/></linearGradient><linearGradient x1="23.201" x2="22.286" y1="3.505" y2="32.37" xlink:href="#a" gradientUnits="userSpaceOnUse" gradientTransform="matrix(.796 0 0 .796 2.338 7.026)"/><linearGradient id="b"><stop offset="0" stop-color="#2e3436"/><stop offset="1" stop-color="#2e3436" stop-opacity="0"/></linearGradient><linearGradient id="g" x1="10.276" x2="14.832" y1="35.035" y2="37.582" xlink:href="#b" gradientUnits="userSpaceOnUse" gradientTransform="matrix(.995 .096 -.096 .995 3.765 -.664)"/><linearGradient id="c"><stop offset="0" stop-color="#fff"/><stop offset="1" stop-color="#8e8e8e"/></linearGradient><radialGradient id="f" cx="3.299" cy="3.416" r="2.751" xlink:href="#c" fx="3.299" fy="3.416" gradientUnits="userSpaceOnUse"/><linearGradient id="d"><stop offset="0" stop-color="#fff"/><stop offset="1" stop-color="#eeeeec" stop-opacity="0"/></linearGradient><linearGradient x1="7.5" x2="7.5" y1="14.032" y2="1.148" xlink:href="#d" gradientUnits="userSpaceOnUse" gradientTransform="matrix(1.146 0 0 1.146 24.382 28.316)"/><linearGradient id="e"><stop offset="0" stop-color="#dfeaa1"/><stop offset="1" stop-color="#9db029"/></linearGradient><linearGradient x1="13.697" x2="13.697" y1="6.887" y2="1.744" xlink:href="#e" gradientUnits="userSpaceOnUse" gradientTransform="matrix(1.022 0 0 1.195 -1.473 -1.504)"/><linearGradient x1="7.5" x2="7.5" y1="14.032" y2="1.148" xlink:href="#d" gradientUnits="userSpaceOnUse" gradientTransform="matrix(1.146 0 0 1.146 48.784 18.071)"/><linearGradient x1="7.5" x2="7.5" y1="14.032" y2="1.148" xlink:href="#d" gradientUnits="userSpaceOnUse" gradientTransform="matrix(1.146 0 0 1.146 48.784 18.071)"/></defs><path fill="none" stroke="#2d3335" stroke-width=".8"/><path fill="url(#f)" fill-rule="evenodd" stroke="#2e3436" stroke-width=".452" d="M6.25 3.9a2.36 2.36 0 1 1-4.72 0 2.36 2.36 0 1 1 4.72 0z" transform="matrix(3.127 0 0 3.127 -3.141 23.609)" color="#000" stroke-linecap="round" overflow="visible"/><path fill="url(#g)" fill-rule="evenodd" d="M9.12 36.66c3.26 1.13 4.77 3.96 4.77 3.96 1.05-1.04 1.92-2.15 1.8-3.6-1.26-.88-3.33-1.7-4.94-1.82l-1.64 1.46z"/><path fill="#fff" fill-rule="evenodd" stroke="#2e3436" stroke-width="1.072" d="M13.33 5.66V22.3h7l-11 13.8 23.34-13.8h7.35V5.67h-26.7z" color="#000" stroke-linejoin="round" overflow="visible"/><path fill="none" stroke="#2e3436" stroke-opacity=".125" stroke-width="2.144" d="M13.33 5.66V22.3h7l-11 13.8 23.34-13.8h7.35V5.67h-26.7z" color="#000" stroke-linejoin="round" overflow="visible"/><path fill="none" stroke="#2e3436" stroke-opacity=".125" stroke-width="3.216" d="M13.33 5.66V22.3h7l-11 13.8 23.34-13.8h7.35V5.67h-26.7z" color="#000" stroke-linejoin="round" overflow="visible"/><path fill="none" stroke="#2e3436" stroke-opacity=".125" stroke-width="4.288" d="M13.33 5.66V22.3h7l-11 13.8 23.34-13.8h7.35V5.67h-26.7z" color="#000" stroke-linejoin="round" overflow="visible"/><path fill="none" stroke="#2e3436" stroke-opacity=".125" stroke-width="5.36" d="M13.33 5.66V22.3h7l-11 13.8 23.34-13.8h7.35V5.67h-26.7z" color="#000" stroke-linejoin="round" overflow="visible"/><path fill="none" stroke="#2e3436" stroke-opacity=".125" stroke-width="6.432" d="M13.33 5.66V22.3h7l-11 13.8 23.34-13.8h7.35V5.67h-26.7z" color="#000" stroke-linejoin="round" overflow="visible"/><path fill="none" stroke="#2e3436" stroke-opacity=".125" stroke-width="7.504" d="M13.33 5.66V22.3h7l-11 13.8 23.34-13.8h7.35V5.67h-26.7z" color="#000" stroke-linejoin="round" overflow="visible"/></svg>