<svg xmlns="http://www.w3.org/2000/svg" width="48" height="48" xmlns:xlink="http://www.w3.org/1999/xlink"><defs><linearGradient id="a"><stop offset="0" stop-color="#d3d7cf"/><stop offset="1" stop-color="#fff"/></linearGradient><linearGradient id="s" x1="23.201" x2="22.741" y1="3.505" y2="26.46" xlink:href="#a" gradientUnits="userSpaceOnUse" gradientTransform="matrix(1.209 0 0 1.332 -8.567 -1.977)"/><linearGradient id="b"><stop offset="0" stop-color="#2e3436"/><stop offset="1" stop-color="#2e3436" stop-opacity="0"/></linearGradient><linearGradient id="r" x1="10.276" x2="14.832" y1="35.035" y2="37.582" xlink:href="#b" gradientUnits="userSpaceOnUse" gradientTransform="matrix(1.6 .153 -.154 1.596 4.385 -22.438)"/><linearGradient id="c"><stop offset="0" stop-color="#fff"/><stop offset="1" stop-color="#8e8e8e"/></linearGradient><radialGradient id="q" cx="3.299" cy="3.416" r="2.751" xlink:href="#c" fx="3.299" fy="3.416" gradientUnits="userSpaceOnUse"/><linearGradient x1="13.697" x2="13.697" y1="6.887" y2="1.744" xlink:href="#d" gradientUnits="userSpaceOnUse" gradientTransform="matrix(.952 0 0 1.113 -1.145 -.473)"/><linearGradient><stop offset="0" stop-color="#ef2929"/><stop offset="1" stop-color="#f57900"/></linearGradient><linearGradient id="d"><stop offset="0" stop-color="#dfeaa1"/><stop offset="1" stop-color="#9db029"/></linearGradient><linearGradient x1="13.697" x2="13.697" y1="6.887" y2="1.744" xlink:href="#d" gradientUnits="userSpaceOnUse" gradientTransform="matrix(.625 0 0 .638 -.648 .021)"/><linearGradient x1="13.697" x2="13.697" y1="6.887" y2="1.744" xlink:href="#d" gradientUnits="userSpaceOnUse" gradientTransform="matrix(.625 0 0 .638 20.28 22.163)"/><linearGradient x1="13.697" x2="13.697" y1="6.887" y2="1.744" xlink:href="#d" gradientUnits="userSpaceOnUse" gradientTransform="matrix(1.01 0 0 1.181 23.479 7.845)"/><linearGradient x1="13.697" x2="13.697" y1="6.887" y2="1.744" xlink:href="#d" gradientUnits="userSpaceOnUse" gradientTransform="matrix(.952 0 0 1.113 -1.145 -.473)"/><radialGradient cx="24.063" cy="42.698" r="21.016" xlink:href="#e" fx="24.063" fy="42.698" gradientTransform="matrix(1 0 0 .267 0 31.282)" gradientUnits="userSpaceOnUse"/><linearGradient id="e"><stop offset="0" stop-color="#2e3436" stop-opacity=".691"/><stop offset="1" stop-color="#2e3436" stop-opacity="0"/></linearGradient><linearGradient id="t" x1="24" x2="24" y1="29.167" y2="8.341" xlink:href="#f" gradientUnits="userSpaceOnUse" gradientTransform="matrix(.956 0 0 .956 .997 -.003)"/><linearGradient id="f"><stop offset="0" stop-color="#672179"/><stop offset="1" stop-color="#c666bc"/></linearGradient><linearGradient id="u" x1="32" x2="48.063" y1="7.746" y2="7.746" xlink:href="#g" gradientUnits="userSpaceOnUse" gradientTransform="matrix(.956 0 0 .956 .997 -.003)"/><linearGradient id="g"><stop offset="0" stop-color="#894f98"/><stop offset="1" stop-color="#321c37"/></linearGradient><linearGradient id="v" x1="12.77" x2="6.802" y1="8.325" y2="4.77" xlink:href="#h" gradientUnits="userSpaceOnUse" gradientTransform="matrix(.956 0 0 .956 .997 -.003)"/><linearGradient id="h"><stop offset="0" stop-color="#361f3c"/><stop offset="1" stop-color="#6a3d76"/></linearGradient><linearGradient id="w" x1="24.389" x2="33.325" y1="19.365" y2="5.016" xlink:href="#i" gradientUnits="userSpaceOnUse" gradientTransform="matrix(.956 0 0 .956 .997 -.003)"/><linearGradient id="i"><stop offset="0" stop-color="#6f2b8c"/><stop offset="1" stop-color="#ad7fa8"/></linearGradient><linearGradient id="x" x1="24.516" x2="32.563" y1="14.73" y2="1.016" xlink:href="#j" gradientUnits="userSpaceOnUse" gradientTransform="matrix(.956 0 0 .956 .997 -.003)"/><linearGradient id="j"><stop offset="0" stop-color="#361f3c"/><stop offset="1" stop-color="#894f99"/></linearGradient><linearGradient id="y" x1="18.238" x2="24.573" y1="2.256" y2="29.779" xlink:href="#k" gradientUnits="userSpaceOnUse"/><linearGradient id="k"><stop offset="0" stop-color="#fff"/><stop offset="1" stop-color="#fff" stop-opacity="0"/></linearGradient><linearGradient id="z" x1="27.069" x2="26.266" y1="13.164" y2="44.864" xlink:href="#l" gradientUnits="userSpaceOnUse" gradientTransform="matrix(.956 0 0 .956 .997 -.003)"/><linearGradient id="l"><stop offset="0" stop-color="#ffd00d"/><stop offset=".5" stop-color="#ff8841"/><stop offset="1" stop-color="#a40000"/></linearGradient><linearGradient id="A" x1="24.911" x2="23.853" y1="13.164" y2="46.705" xlink:href="#m" gradientUnits="userSpaceOnUse" gradientTransform="matrix(.956 0 0 .956 .997 -.003)"/><linearGradient id="m"><stop offset="0" stop-color="#ffec6c"/><stop offset=".625" stop-color="#ffa337"/><stop offset="1" stop-color="#c36000"/></linearGradient><linearGradient id="B" x1="24.496" x2="24.018" y1="30.877" y2="44.528" xlink:href="#n" gradientUnits="userSpaceOnUse"/><linearGradient id="n"><stop offset="0" stop-color="#fce94f"/><stop offset="1" stop-color="#fce94f" stop-opacity="0"/></linearGradient><linearGradient id="C" x1="34.189" x2="47.531" y1="4.512" y2="10.175" xlink:href="#o" gradientUnits="userSpaceOnUse"/><linearGradient id="o"><stop offset="0" stop-color="#c4a000"/><stop offset="1" stop-color="#c4a000" stop-opacity="0"/></linearGradient><linearGradient id="D" x1="14.634" x2="26.324" y1="4.512" y2="22.746" xlink:href="#o" gradientUnits="userSpaceOnUse"/><linearGradient id="E" x1="33.046" x2="21.182" y1="4.195" y2="22.564" xlink:href="#p" gradientUnits="userSpaceOnUse"/><linearGradient id="p"><stop offset="0" stop-color="#ffd412"/><stop offset="1" stop-color="#c4a000" stop-opacity="0"/></linearGradient><radialGradient cx="24.063" cy="42.698" r="21.016" fy="42.698" fx="24.063" gradientTransform="matrix(1 0 0 .267 0 31.282)" gradientUnits="userSpaceOnUse" xlink:href="#e"/></defs><g><path fill="url(#q)" fill-rule="evenodd" stroke="#2e3436" stroke-width=".299" d="M6.25 3.9a2.36 2.36 0 1 1-4.72 0 2.36 2.36 0 1 1 4.72 0z" transform="matrix(5.028 0 0 5.015 -6.72 16.483)" color="#000" stroke-linecap="round" overflow="visible"/><path fill="url(#r)" fill-rule="evenodd" d="M13 37.4c5.24 1.82 7.66 6.36 7.66 6.36 1.7-1.67 3.1-3.45 2.9-5.8-2-1.38-5.33-2.67-7.92-2.88L13 37.4z"/><path fill="url(#s)" fill-rule="evenodd" stroke="#2e3436" stroke-width="1.186" d="M7.4.75v23.37h9.38L13.8 35.84l19.45-11.72h9.83V.75z" color="#000" stroke-linejoin="round" overflow="visible"/><path fill="none" stroke="#fff" stroke-width=".791" stroke-miterlimit="6" d="M8.4 1.55v21.48h9.35L15.5 33.68l17.38-10.65h9.16V1.55z" color="#000" overflow="visible"/><text x="9.905" y="8.952" style="line-height:125%;-inkscape-font-specification:Tahoma;text-align:start" font-size="12" letter-spacing="0" word-spacing="0" font-family="Tahoma" writing-mode="lr"/><g><path fill="url(#t)" fill-rule="evenodd" stroke="#361f3c" d="M23.9 45.46L46.42 14.3 34.77 7.16l-10.82 17.9-10.82-17.9L1.48 14.3l22.4 31.16z" transform="matrix(.489 0 0 .489 13.984 2.539)"/><path fill="url(#u)" fill-rule="evenodd" stroke="#361f3c" d="M46.5 14.28l-6.1-9.25-8-4.3 2.26 6.55 11.83 7z" color="#000" stroke-linejoin="bevel" overflow="visible" transform="matrix(.489 0 0 .489 13.984 2.539)"/><path fill="#5c3566" fill-rule="evenodd" stroke="#361f3c" stroke-width="0.49" d="M20.38 6.13l1.25-3.33 4.1 6.75-.03 5.2-5.32-8.62z" stroke-linejoin="bevel"/><path fill="#ad7fa8" fill-rule="evenodd" stroke="url(#v)" d="M1.17 14.3L7.5 4.9 15.65.74l-2.4 6.42L1.18 14.3z" stroke-linejoin="bevel" transform="matrix(.489 0 0 .489 13.984 2.539)"/><path fill="url(#w)" fill-rule="evenodd" stroke="url(#x)" d="M34.76 7.28L32.2.48l-8.07 14.15-.24 10.5L34.75 7.3z" color="#000" stroke-linejoin="bevel" overflow="visible" transform="matrix(.489 0 0 .489 13.984 2.539)"/><path fill="none" stroke="#fce94f" stroke-width="0.49" d="M25.67 24L36 9.65l-4.86-2.9-5.44 8.98-5.47-9-4.84 2.92L25.66 24z"/><path fill="none" stroke="url(#y)" d="M23.9 42.26l19.73-27.44-8.18-4.9-11.3 18.58L12.37 9.93l-8.18 4.9 19.7 27.43z" transform="matrix(.489 0 0 .489 13.984 2.539)"/><path fill="url(#z)" fill-rule="evenodd" stroke="url(#A)" d="M39.83 21.74c.4-1.85.5-3.66-.84-5.7-.26 4.06-1.5 3-2.36 6.15-.43-4.4-1.98-5.4-2.05-9.13-3.1 5.3.15 9.22-3.67 13.92-.8-2.4 1.3-5.05-.6-7.48-1.85 7.04-4.1 3.4-5.9 10.35-.46-1.38-1.1-2.72-1.94-3.9-.92 1.9-2.06 3.55-1.46 5.74-4.33-4.9-.48-7.3-2.98-11.63-.68 4.1-1.97 2.54-2.83 6.33-1.1-1.38-.85-2.72-1.1-4.26-.66-1.8-1.37-2.03-2.38-3.63 1.05 6.4-1.9 4.1-1.28 6.52L23.9 43.78l15.93-22.04z" transform="matrix(.489 0 0 .489 13.984 2.539)"/><path fill="none" stroke="url(#B)" d="M39.43 21.3c-.1-1.08.42-1.95-.3-3.4-.9 3.38-2.07 2.3-2.82 5-.6-4.02-1.8-3.86-2.05-7.6-.3 4.86-.4 9.75-3.7 13.8-1.35-2.6-.03-5.35.1-8.3-2.93 7.62-3.92 2.56-6.3 11.76-.4-1.2-1.07-3.93-1.8-4.95-.78 1.65-1.76 3.92-1.24 5.8-5-4.88-2.65-7.63-3.1-11.6-1.07 3.53-2.12 2.32-2.87 6-2.57-2.64-.54-5.03-2.75-7.15.18 3.06-1.4 2.36-1.22 4.26L23.83 42.3l15.6-20.98z" transform="matrix(.489 0 0 .489 13.984 2.539)"/><path fill="none" stroke="#fce94f" stroke-width=".245" d="M15.6 8.54l2.3-3.3 3.02-1.6-.83 2.23-4.5 2.67z"/><path fill="none" stroke="url(#C)" stroke-width=".5" d="M44.7 12.58l-4.85-7.1-6.2-3.27 1.74 4.74 9.3 5.64z" color="#000" overflow="visible" transform="matrix(.489 0 0 .489 13.984 2.539)"/><path fill="none" stroke="url(#D)" stroke-width=".5" d="M13.87 7.25l1.94-4.98 7.48 12.45v7.78l-9.4-15.25z" transform="matrix(.489 0 0 .489 13.984 2.539)"/><path fill="none" stroke="url(#E)" stroke-width=".5" d="M33.9 7.13L32.1 2.2l-7.24 12.46-.18 7.65L33.9 7.14z" color="#000" overflow="visible" transform="matrix(.489 0 0 .489 13.984 2.539)"/></g></g></svg>