<svg xmlns="http://www.w3.org/2000/svg" width="48" height="48" xmlns:xlink="http://www.w3.org/1999/xlink"><defs><linearGradient id="b"><stop offset="0" stop-color="#d3d7cf" stop-opacity="0"/><stop offset="1" stop-color="#fff"/></linearGradient><linearGradient id="k" x1="10.276" x2="14.832" y1="35.035" y2="37.582" xlink:href="#a" gradientUnits="userSpaceOnUse" gradientTransform="matrix(.83 .08 -.08 .83 32.237 10.835)"/><linearGradient id="j" x1="23.201" x2="22.286" y1="3.505" y2="32.37" xlink:href="#b" gradientUnits="userSpaceOnUse" gradientTransform="matrix(.834 0 0 .834 8.261 2.896)"/><radialGradient id="i" cx="3.299" cy="3.416" r="2.751" xlink:href="#c" gradientUnits="userSpaceOnUse" fx="3.299" fy="3.416"/><linearGradient id="d"><stop offset="0" stop-color="#d3d7cf"/><stop offset="1" stop-color="#fff"/></linearGradient><linearGradient x1="23.201" x2="22.286" y1="3.505" y2="32.37" xlink:href="#d" gradientUnits="userSpaceOnUse" gradientTransform="matrix(1.061 0 0 1.061 -.75 1.576)"/><linearGradient id="c"><stop offset="0" stop-color="#fff"/><stop offset="1" stop-color="#8e8e8e"/></linearGradient><radialGradient cx="3.299" cy="3.416" r="2.751" xlink:href="#c" fx="3.299" fy="3.416" gradientUnits="userSpaceOnUse"/><linearGradient id="a"><stop offset="0" stop-color="#2e3436"/><stop offset="1" stop-color="#2e3436" stop-opacity="0"/></linearGradient><linearGradient x1="10.276" x2="14.832" y1="35.035" y2="37.582" xlink:href="#a" gradientUnits="userSpaceOnUse" gradientTransform="matrix(.83 .08 -.08 .83 48.219 1.972)"/><linearGradient id="e"><stop offset="0" stop-color="#dfeaa1"/><stop offset="1" stop-color="#9db029"/></linearGradient><linearGradient x1="13.697" x2="13.697" y1="6.887" y2="1.744" xlink:href="#e" gradientUnits="userSpaceOnUse" gradientTransform="matrix(.625 0 0 .638 -.648 .021)"/><linearGradient x1="29.863" x2="29.681" y1="20.676" y2="16.231" xlink:href="#e" gradientUnits="userSpaceOnUse" gradientTransform="matrix(.664 0 0 .677 10.383 11.901)"/><linearGradient x1="10.276" x2="14.832" y1="35.035" y2="37.582" xlink:href="#a" gradientUnits="userSpaceOnUse" gradientTransform="matrix(.881 .085 -.085 .881 50.413 3.668)"/><radialGradient id="f" cx="3.299" cy="3.416" r="2.751" xlink:href="#c" gradientUnits="userSpaceOnUse" fx="3.299" fy="3.416"/><linearGradient id="g" x1="10.276" x2="14.832" y1="35.035" y2="37.582" xlink:href="#a" gradientUnits="userSpaceOnUse" gradientTransform="matrix(.83 .08 -.08 .83 48.237 1.549)"/><linearGradient id="h" x1="23.201" x2="22.286" y1="3.505" y2="32.37" xlink:href="#d" gradientUnits="userSpaceOnUse" gradientTransform="matrix(1.061 0 0 1.061 -.731 1.153)"/></defs><g><path fill="url(#f)" fill-rule="evenodd" stroke="#2e3436" stroke-width=".575" d="M6.25 3.9a2.36 2.36 0 1 1-4.72 0 2.36 2.36 0 1 1 4.72 0z" transform="matrix(2.608 0 0 2.608 -3.245 18.499)" color="#000" stroke-linecap="round" overflow="visible"/><path fill="url(#g)" fill-rule="evenodd" d="M6.98 29.38c2.72.94 3.98 3.3 3.98 3.3.88-.86 1.6-1.8 1.5-3-1.04-.73-2.77-1.4-4.1-1.5l-1.38 1.2z"/><path fill="url(#h)" fill-rule="evenodd" stroke="#2e3436" stroke-width="1.5" d="M10.6.66V15.3h6.45L6.9 28.7l21.5-13.4h6.8V.65H10.6z" color="#000" stroke-linejoin="round" overflow="visible"/><path fill="none" stroke="#fff" stroke-miterlimit="6" d="M11.75 1.83v12.3h8.17l-7.86 9.83 15.87-9.82h6.05V1.84H11.75z" color="#000" overflow="visible"/><path fill="url(#i)" fill-rule="evenodd" stroke="#2e3436" stroke-width=".575" d="M6.25 3.9a2.36 2.36 0 1 1-4.72 0 2.36 2.36 0 1 1 4.72 0z" transform="matrix(2.608 0 0 2.608 26.541 30.899)" color="#000" stroke-linecap="round" overflow="visible"/><path fill="url(#j)" fill-rule="evenodd" stroke="#2e3436" stroke-width="1.5" d="M19.28 4.6v14.63h6.46L37.2 41.4l-.1-22.17h6.78V4.6h-24.6z" color="#000" stroke-linejoin="round" overflow="visible"/><path fill="none" stroke="#fff" stroke-miterlimit="6" d="M20.44 5.77v12.3h5.98l9.76 18.88.44-18.87h6.05V5.78H20.44z" color="#000" overflow="visible"/><path fill="url(#k)" fill-rule="evenodd" d="M36.7 41.96c2.73.94 3.98 3.3 3.98 3.3.9-.86 1.6-1.8 1.5-3-1.04-.73-2.76-1.4-4.1-1.5l-1.38 1.2z"/></g></svg>