<svg xmlns="http://www.w3.org/2000/svg" width="48" height="48" xmlns:xlink="http://www.w3.org/1999/xlink"><defs><linearGradient id="d"><stop offset="0" stop-color="#760000"/><stop offset="1" stop-color="#a40000" stop-opacity="0"/></linearGradient><linearGradient id="c"><stop offset="0" stop-color="#bb0e0e"/><stop offset=".5" stop-color="#ef2929"/><stop offset="1" stop-color="#ef2929" stop-opacity="0"/></linearGradient><linearGradient id="b"><stop offset="0" stop-color="#fff"/><stop offset="1" stop-color="#b9b9b1"/></linearGradient><linearGradient id="a"><stop offset="0" stop-color="#fdcd87"/><stop offset="1" stop-color="#e88c03"/></linearGradient><linearGradient id="e" x1="3.767" x2="42.299" y1="8.094" y2="43.022" xlink:href="#a" gradientUnits="userSpaceOnUse"/><radialGradient id="n" cx="2.7" cy="6.357" r="2.916" xlink:href="#b" fx="2.7" fy="6.357" gradientUnits="userSpaceOnUse" gradientTransform="matrix(.919 0 0 1.141 .243 -.889)"/><linearGradient id="f" x1="25.357" x2="6.857" y1="22.464" y2="10.179" xlink:href="#c" gradientUnits="userSpaceOnUse" gradientTransform="matrix(.915 0 0 .914 1.664 2.131)"/><linearGradient id="g" x1="13.303" x2="7.639" y1="10.565" y2="6.725" xlink:href="#d" gradientUnits="userSpaceOnUse" gradientTransform="matrix(.915 0 0 .914 1.664 2.131)"/><linearGradient id="h" x1="25.357" x2="6.857" y1="22.464" y2="10.179" xlink:href="#c" gradientUnits="userSpaceOnUse" gradientTransform="matrix(0 .885 -.885 0 50.452 -.316)"/><linearGradient id="i" x1="15.367" x2="10.822" y1="11.423" y2="8.536" xlink:href="#d" gradientUnits="userSpaceOnUse" gradientTransform="matrix(0 .885 -.885 0 50.452 -.316)"/><linearGradient id="j" x1="25.357" x2="6.857" y1="22.464" y2="10.179" xlink:href="#c" gradientUnits="userSpaceOnUse" gradientTransform="matrix(-.729 -.205 .205 -.729 42.973 48.894)"/><linearGradient id="k" x1="15.5" x2="10.558" y1="12.893" y2="8.545" xlink:href="#d" gradientUnits="userSpaceOnUse" gradientTransform="matrix(-.729 -.205 .205 -.729 42.973 48.894)"/><linearGradient id="l" x1="25.357" x2="6.857" y1="22.464" y2="10.179" xlink:href="#c" gradientUnits="userSpaceOnUse" gradientTransform="matrix(.135 -.806 .805 .135 3.248 44.408)"/><linearGradient id="m" x1="15.879" x2="10.637" y1="11.655" y2="7.7" xlink:href="#d" gradientUnits="userSpaceOnUse" gradientTransform="matrix(.135 -.806 .805 .135 3.248 44.408)"/></defs><g><path fill="url(#e)" stroke="#000" d="M3.2 6.6l41.46-3.65-1.52 40.57-34.17-.28z"/><path fill="none" stroke="#eeeeec" stroke-opacity=".698" d="M4.3 7.48l39.26-3.46-1.43 38.43-32.37-.26z"/><path fill="#eeeeec" stroke="#2e3436" stroke-width=".75274" d="M6.84 7.02a3.17 3.17 0 1 1-6.34 0 3.17 3.17 0 1 1 6.34 0z" color="#000" stroke-linejoin="bevel" overflow="visible" enable-background="accumulate"/><path fill="#eeeeec" stroke="#2e3436" stroke-width=".75274" d="M47.64 3.53a3.17 3.17 0 1 1-6.34 0 3.17 3.17 0 1 1 6.34 0z" color="#000" stroke-linejoin="bevel" overflow="visible" enable-background="accumulate"/><path fill="#eeeeec" stroke="#2e3436" stroke-width=".75274" d="M12.45 42.66a3.17 3.17 0 1 1-6.34 0 3.17 3.17 0 1 1 6.35 0z" color="#000" stroke-linejoin="bevel" overflow="visible" enable-background="accumulate"/><path fill="#eeeeec" stroke="#2e3436" stroke-width=".75274" d="M45.46 43.17a3.17 3.17 0 1 1-6.34 0 3.17 3.17 0 1 1 6.34 0z" color="#000" stroke-linejoin="bevel" overflow="visible" enable-background="accumulate"/><path fill="url(#f)" stroke="url(#g)" d="M24.53 22.76l-1.1-10.9-2.9 4.9-13.28-9.7L4 11.52l13.8 9.56-2.48 4.12z"/><path fill="url(#h)" stroke="url(#i)" d="M30.48 21.82l10.56-1.08-4.74-2.78 7.2-10.12-4.3-3.16-7.08 10.63-3.98-2.4z"/><path fill="url(#j)" stroke="url(#k)" d="M29.38 27.3l-1.57 8.95L31.2 33l6.67 8.27 3.6-2.8-7.1-8.3 2.9-2.73z"/><path fill="url(#l)" stroke="url(#m)" d="M24.8 27.3l-9.76-.63 3.9 3.26-8.12 8.1 3.43 3.55 8.07-8.6 3.26 2.8z"/><path fill="url(#n)" stroke="#2e3436" stroke-width=".617" d="M6.2 6.9a2.6 2.6 0 1 1-5.2 0 2.6 2.6 0 1 1 5.2 0z" transform="matrix(1.216 0 0 1.216 23.355 16.643)" color="#000" stroke-linejoin="bevel" overflow="visible" enable-background="accumulate"/><path fill="none" stroke="#eeeeec" stroke-width=".7529399999999999" d="M30.05 25.02a2.3 2.3 0 1 1-4.62 0 2.3 2.3 0 1 1 4.62 0z" color="#000" stroke-linejoin="bevel" overflow="visible" enable-background="accumulate"/></g></svg>