<svg xmlns="http://www.w3.org/2000/svg" width="48" height="48" xmlns:xlink="http://www.w3.org/1999/xlink"><defs><linearGradient id="a"><stop offset="0" stop-color="#2e3436" stop-opacity=".502"/><stop offset="1" stop-color="#2e3436" stop-opacity="0"/></linearGradient><linearGradient x1="10.276" x2="14.832" y1="35.035" y2="37.582" xlink:href="#a" gradientUnits="userSpaceOnUse" gradientTransform="matrix(1.056 .101 -.101 1.056 58.929 -13.826)"/><linearGradient id="b"><stop offset="0" stop-color="#fff"/><stop offset="1" stop-color="#8e8e8e"/></linearGradient><radialGradient cx="3.299" cy="3.416" r="2.751" xlink:href="#b" fx="3.299" fy="3.416" gradientUnits="userSpaceOnUse"/><linearGradient id="g"><stop offset="0" stop-color="#646b76"/><stop offset="1" stop-color="#2b2e33"/></linearGradient><linearGradient id="f"><stop offset="0" stop-color="#2e3436"/><stop offset="1" stop-color="#2e3436" stop-opacity="0"/></linearGradient><linearGradient id="e"><stop offset="0" stop-color="#fc0"/><stop offset="1" stop-color="#f90"/></linearGradient><linearGradient id="h" x1="302.977" x2="391.446" y1="19.39" y2="47.767" gradientUnits="userSpaceOnUse"><stop offset=".006" stop-color="#fff"/><stop offset=".517" stop-color="#DAE1ED"/><stop offset="1" stop-color="#98A3B3"/></linearGradient><radialGradient id="i" cx="317.679" cy="51.577" r="41.703" gradientUnits="userSpaceOnUse" fy="51.577" fx="317.679"><stop offset="0" stop-color="#fff"/><stop offset="1" stop-color="#8794A0"/></radialGradient><radialGradient id="d" cx="163.401" cy="23.486" r="6.238" gradientUnits="userSpaceOnUse" gradientTransform="matrix(-1 0 0 1 492.494 0)" fy="23.486" fx="163.401"><stop offset="0" stop-color="#fff"/><stop offset=".764" stop-color="#F17912"/><stop offset="1" stop-color="#8C3E0C"/></radialGradient><linearGradient x1="320.147" x2="325.126" y1="14.129" y2="29.816" xlink:href="#c" gradientUnits="userSpaceOnUse"/><linearGradient id="c" x1="320.147" x2="325.126" y1="14.129" y2="29.816" gradientUnits="userSpaceOnUse"><stop offset=".118" stop-color="#fff"/><stop offset=".183" stop-color="#FFFDF9"/><stop offset=".27" stop-color="#FEF5E8"/><stop offset=".369" stop-color="#FEEACC"/><stop offset=".478" stop-color="#FDDAA5"/><stop offset=".593" stop-color="#FBC573"/><stop offset=".702" stop-color="#FAAF3D"/><stop offset=".86" stop-color="#F17912"/></linearGradient><linearGradient x1="320.147" x2="325.126" y1="14.129" y2="29.816" xlink:href="#c" gradientUnits="userSpaceOnUse"/><linearGradient x1="320.147" x2="325.126" y1="14.129" y2="29.816" gradientUnits="userSpaceOnUse"><stop offset=".118" stop-color="#fff"/><stop offset=".183" stop-color="#FFFDF9"/><stop offset=".27" stop-color="#FEF5E8"/><stop offset=".369" stop-color="#FEEACC"/><stop offset=".478" stop-color="#FDDAA5"/><stop offset=".593" stop-color="#FBC573"/><stop offset=".702" stop-color="#FAAF3D"/><stop offset=".86" stop-color="#F17912"/></linearGradient><linearGradient x1="320.147" x2="325.126" y1="14.129" y2="29.816" xlink:href="#c" gradientUnits="userSpaceOnUse"/><radialGradient cx="163.401" cy="23.486" r="6.238" xlink:href="#d" gradientUnits="userSpaceOnUse" gradientTransform="matrix(-1 0 0 1 492.494 0)" fx="163.401" fy="23.486"/><radialGradient cx="163.401" cy="23.486" r="6.238" gradientUnits="userSpaceOnUse" gradientTransform="matrix(-1 0 0 1 492.494 0)" fy="23.486" fx="163.401"><stop offset="0" stop-color="#fff"/><stop offset=".764" stop-color="#F17912"/><stop offset="1" stop-color="#8C3E0C"/></radialGradient><radialGradient id="l" cx="163.401" cy="23.486" r="6.238" xlink:href="#d" gradientUnits="userSpaceOnUse" gradientTransform="matrix(-1 0 0 1 492.494 0)" fx="163.401" fy="23.486"/><linearGradient id="j" x1="313.703" x2="326.418" y1="15.797" y2="24.241" xlink:href="#e" gradientUnits="userSpaceOnUse" gradientTransform="matrix(1.217 .307 -.307 1.218 -363.71 -100.965)"/><radialGradient id="k" cx="32.857" cy="35.857" r="5" xlink:href="#f" fx="32.857" fy="35.857" gradientTransform="matrix(1 0 0 .486 0 18.441)" gradientUnits="userSpaceOnUse"/><linearGradient id="m" x1="308.594" x2="337.439" y1="17.036" y2="31.733" xlink:href="#g" gradientUnits="userSpaceOnUse"/><linearGradient id="n" x1="10.276" x2="14.832" y1="35.035" y2="37.582" xlink:href="#a" gradientUnits="userSpaceOnUse" gradientTransform="matrix(1.056 .101 -.101 1.056 23.331 -9.058)"/></defs><g><path fill="url(#h)" d="M347.76 27.6l-26.66 9.04-19.2-18.33 23.05-3.3 22.8 12.6z" transform="matrix(1.019 0 0 1.779 -307.429 -17.538)"/><path fill="url(#i)" d="M301.9 18.3v12.23l19.2 6.1-19.2-18.32z" transform="matrix(1.019 0 0 1.779 -307.429 -17.538)"/><path fill="url(#j)" d="M33.33 31.3L16.57 14.07c-4.14-1.85-5.68-.34-6.57 2l15.66 19.55 7.67-4.32z"/><path fill="url(#k)" d="M37.86 35.86a5 2.43 0 1 1-10 0 5 2.43 0 1 1 10 0z" transform="matrix(.999 -.052 .052 .999 -3.686 1.92)" color="#000" overflow="visible"/><circle cx="330.407" cy="25.335" r="4.912" fill="url(#l)" stroke="#3f1c08" stroke-width=".796" transform="matrix(1.217 .307 -.307 1.218 -365.234 -101.878)"/><path fill="none" stroke="url(#m)" stroke-width="1.139" d="M301.9 30.53V18.3l23.05-3.3 22.8 12.6-26.65 9.04-19.2-6.1z" transform="matrix(.997 0 0 1.74 -300.171 -16.521)"/><path fill="url(#n)" fill-rule="evenodd" d="M29 30.55c3.48 1.2 5.07 4.2 5.07 4.2 1.13-1.1 2.05-2.3 1.92-3.84-1.34-.9-3.54-1.76-5.24-1.9L29 30.55z"/><path fill="#d3d7cf" fill-rule="evenodd" stroke="#2e3436" d="M30.98.63v9.8h3.96l-5.37 19.8 13.36-19.8h4.55V.64h-16.5z" color="#000" stroke-linejoin="round" overflow="visible"/><path fill="none" stroke="#fff" stroke-miterlimit="7" d="M32.03 1.53V9.4h4.35L32.2 24.45 42.5 9.52l3.84-.1V1.5h-14.3z" color="#000" overflow="visible"/><path fill="#f57900" fill-rule="evenodd" d="M33 3h12v5H33z" color="#000" overflow="visible"/></g></svg>