<svg xmlns="http://www.w3.org/2000/svg" width="48" height="48" xmlns:xlink="http://www.w3.org/1999/xlink"><defs><linearGradient id="a"><stop offset="0" stop-color="#d3d7cf"/><stop offset="1" stop-color="#fff"/></linearGradient><linearGradient id="j" x1="23.201" x2="22.286" y1="3.505" y2="32.37" xlink:href="#a" gradientUnits="userSpaceOnUse" gradientTransform="matrix(1.061 0 0 1.061 .327 .629)"/><linearGradient id="b"><stop offset="0" stop-color="#2e3436"/><stop offset="1" stop-color="#2e3436" stop-opacity="0"/></linearGradient><linearGradient id="i" x1="10.276" x2="14.832" y1="35.035" y2="37.582" xlink:href="#b" gradientUnits="userSpaceOnUse" gradientTransform="matrix(1.056 .101 -.101 1.056 4.072 -.255)"/><linearGradient id="c"><stop offset="0" stop-color="#fff"/><stop offset="1" stop-color="#8e8e8e"/></linearGradient><radialGradient id="h" cx="3.299" cy="3.416" r="2.751" xlink:href="#c" fx="3.299" fy="3.416" gradientUnits="userSpaceOnUse"/><linearGradient id="d"><stop offset="0" stop-color="#eeeeec"/><stop offset="1" stop-color="#eeeeec" stop-opacity="0"/></linearGradient><linearGradient x1="14.66" x2="8.418" y1="14.525" y2="8.051" xlink:href="#d" gradientUnits="userSpaceOnUse" gradientTransform="matrix(1.059 0 0 1.059 -31.866 41.299)"/><linearGradient id="e"><stop offset="0" stop-color="#eeeeec" stop-opacity=".502"/><stop offset="1" stop-color="#fff" stop-opacity=".753"/></linearGradient><linearGradient x1="3.951" x2="18.85" y1="4.049" y2="19.25" xlink:href="#e" gradientUnits="userSpaceOnUse" gradientTransform="translate(-31.135 41.989)"/><linearGradient id="f" x1="208.958" x2="182.122" y1="247.744" y2="206.743" gradientUnits="userSpaceOnUse"><stop offset="0" stop-color="#8EA3B2"/><stop offset="1" stop-color="#DCE6E9"/></linearGradient><linearGradient x1="208.278" x2="182.122" y1="246.343" y2="206.743" xlink:href="#f" gradientUnits="userSpaceOnUse" gradientTransform="matrix(.562 -.033 0 .554 -128.012 -63.888)"/><linearGradient id="g"><stop offset="0" stop-color="#dfeaa1"/><stop offset="1" stop-color="#9db029"/></linearGradient><linearGradient x1="13.697" x2="13.697" y1="6.887" y2="1.744" xlink:href="#g" gradientUnits="userSpaceOnUse" gradientTransform="matrix(1.085 0 0 1.268 -1.514 -.765)"/><linearGradient id="k" x1="208.278" x2="182.122" y1="246.343" y2="206.743" xlink:href="#f" gradientUnits="userSpaceOnUse" gradientTransform="matrix(.562 -.033 0 .554 -128.012 -63.888)"/><linearGradient id="l" x1="3.951" x2="18.85" y1="4.049" y2="19.25" xlink:href="#e" gradientUnits="userSpaceOnUse" gradientTransform="translate(-31.135 41.989)"/><linearGradient id="m" x1="14.66" x2="8.418" y1="14.525" y2="8.051" xlink:href="#d" gradientUnits="userSpaceOnUse" gradientTransform="matrix(1.059 0 0 1.059 -31.866 41.299)"/></defs><g><path fill="none" stroke="#2d3335" stroke-width=".849"/><path fill="url(#h)" fill-rule="evenodd" stroke="#2e3436" stroke-width=".452" d="M6.25 3.9a2.36 2.36 0 1 1-4.72 0 2.36 2.36 0 1 1 4.72 0z" transform="matrix(3.318 0 0 3.318 -3.256 25.5)" color="#000" stroke-linecap="round" overflow="visible"/><path fill="url(#i)" fill-rule="evenodd" d="M9.75 39.35c3.47 1.2 5.06 4.2 5.06 4.2 1.14-1.1 2.06-2.28 1.93-3.83-1.33-.92-3.52-1.78-5.23-1.92l-1.75 1.55z"/><path fill="url(#j)" fill-rule="evenodd" stroke="#2e3436" stroke-width="2" d="M14.34 2.8v18.62h8.22L9.66 38.48 37 21.42h8.62V2.8h-31.3z" color="#000" stroke-linejoin="round" overflow="visible"/><path fill="none" stroke="#fff" stroke-miterlimit="6" d="M15.83 4.3v15.65h10.4L16.2 32.45l20.2-12.5h7.7V4.3H15.83z" color="#000" overflow="visible"/><g><path fill="#2e3436" fill-opacity=".502" d="M40.32 20.06c0-.3 0-.6 0-.9l2.5-1.32c-.13-.8-.34-1.56-.63-2.3l-2.85.15c-.13-.27-.28-.53-.44-.77l1.53-2.44c-.5-.6-1.05-1.16-1.66-1.65l-2.37 1.58c-.25-.15-.5-.3-.78-.43l.1-2.86c-.35-.12-.72-.24-1.1-.33-.37-.08-.75-.16-1.13-.2l-1.3 2.54c-.28 0-.57 0-.86 0L30 8.68c-.76.14-1.5.36-2.23.65l.17 2.8c-.26.13-.52.28-.76.44l-2.4-1.47c-.6.47-1.15 1.02-1.64 1.62l1.57 2.3c-.15.25-.3.5-.43.77l-2.84-.13c-.13.35-.24.7-.34 1.07-.1.37-.2.74-.24 1.1l2.53 1.27c-.02.3-.02.6 0 .88l-2.5 1.25c.12.74.33 1.47.6 2.18l2.84-.08c.14.26.3.5.45.75l-1.52 2.3c.5.6 1.05 1.16 1.66 1.66l2.37-1.46c.26.16.5.32.78.46l-.12 2.8c.36.14.74.27 1.12.38.38.12.76.2 1.14.28L31.5 28c.3.03.6.04.88.03l1.32 2.56c.77-.1 1.52-.3 2.24-.55l-.15-2.86c.25-.14.5-.28.74-.44l2.4 1.62c.6-.48 1.14-1.03 1.62-1.64L39 24.3c.16-.26.3-.52.44-.8l2.84.17c.13-.36.25-.73.34-1.1.1-.4.18-.8.24-1.2l-2.54-1.3zm-8.47 2.6c-1.7-.02-3.1-1.42-3.1-3.12 0-1.7 1.4-3.06 3.1-3.05 1.7 0 3.1 1.4 3.1 3.12 0 1.72-1.4 3.1-3.1 3.05z"/><path fill="url(#k)" stroke="#2e3436" d="M-11.17 53.96v-.9l2.5-1.32-.63-2.3-2.84.14-.44-.76 1.52-2.43-1.67-1.66-2.36 1.6-.77-.44.1-2.86-2.24-.55-1.28 2.54h-.87l-1.34-2.47-2.22.64.17 2.8-.76.45-2.42-1.47-1.63 1.64 1.57 2.3-.44.76-2.84-.1-.57 2.16L-28.1 53v.88l-2.5 1.24.62 2.18 2.83-.1.45.77-1.5 2.3 1.65 1.66 2.36-1.46.8.45-.13 2.8 2.25.66L-20 61.9l.9.03 1.3 2.56 2.25-.55-.15-2.87.75-.42 2.4 1.62 1.62-1.64-1.56-2.46.45-.77 2.84.17.57-2.3-2.54-1.3zm-8.47 2.6c-1.7-.03-3.1-1.43-3.1-3.12 0-1.7 1.4-3.06 3.1-3.05 1.7 0 3.1 1.4 3.1 3.12 0 1.72-1.4 3.08-3.1 3.05z" stroke-linecap="round" stroke-linejoin="round" transform="translate(50.008 -35.418)"/><path fill="none" stroke="url(#l)" stroke-opacity=".753" stroke-width=".5" d="M-11.9 54.54l.04-2 2.35-1.2-.35-1.13-2.7.13-.9-1.65 1.55-2.18-.83-.82-2.33 1.54-1.53-.95.07-2.72-1.13-.28-1.06 2.5-1.86-.03-1.3-2.33-1.1.3.18 2.6-1.52.96-2.33-1.47-.84.87 1.53 2.14-.8 1.7-2.8-.22-.2 1.1 2.4 1.13.1 1.8-2.45 1.27.27.97 2.63-.1 1.07 1.6-1.58 2.18.87.8 2.2-1.4 1.66.9-.15 2.66 1.04.27 1.22-2.2 1.88-.14 1.3 2.62 1-.37-.18-2.63 1.65-1 2.28 1.67.67-.83-1.45-2.2.95-1.87 2.65.3.3-1.17-2.46-1.1z" stroke-linecap="round" stroke-linejoin="round" transform="translate(50.008 -35.418)"/><path fill="none" stroke="url(#m)" d="M-19.6 57.56c-2.3-.04-4.15-1.92-4.15-4.18 0-2.27 1.85-4.1 4.14-4.07 2.27.02 4.13 1.9 4.13 4.2 0 2.28-1.86 4.1-4.14 4.06z" stroke-linecap="round" stroke-linejoin="round" transform="translate(50.008 -35.418)"/></g></g></svg>