<svg xmlns="http://www.w3.org/2000/svg" width="48" height="48" xmlns:xlink="http://www.w3.org/1999/xlink"><defs><linearGradient id="a"><stop offset="0" stop-color="#fff"/><stop offset="1" stop-color="#8e8e8e"/></linearGradient><radialGradient id="d" cx="3.299" cy="3.416" r="2.751" xlink:href="#a" fx="3.299" fy="3.416" gradientUnits="userSpaceOnUse"/><linearGradient id="b"><stop offset="0" stop-color="#d3d7cf"/><stop offset="1" stop-color="#fff"/></linearGradient><linearGradient x1="23.201" x2="22.286" y1="3.505" y2="32.37" xlink:href="#b" gradientUnits="userSpaceOnUse" gradientTransform="matrix(1.061 0 0 1.061 46.279 6.201)"/><linearGradient id="e" x1="1287.725" x2="1263.349" y1="1679.832" y2="1679.832" gradientUnits="userSpaceOnUse" gradientTransform="translate(-1239.728 -1655.769)"><stop offset=".213" stop-color="#DBDFE1"/><stop offset="1" stop-color="#A1ACB3"/></linearGradient><linearGradient id="c"><stop offset="0" stop-color="#dfeaa1"/><stop offset="1" stop-color="#9db029"/></linearGradient><linearGradient x1="13.697" x2="13.697" y1="6.887" y2="1.744" xlink:href="#c" gradientUnits="userSpaceOnUse" gradientTransform="matrix(.521 .168 0 .638 -.485 2.799)"/><linearGradient x1="13.697" x2="13.697" y1="6.887" y2="1.744" xlink:href="#c" gradientUnits="userSpaceOnUse" gradientTransform="matrix(-.521 .168 0 .638 48.407 2.731)"/><linearGradient x1="23.201" x2="22.286" y1="3.505" y2="32.37" xlink:href="#b" gradientUnits="userSpaceOnUse" gradientTransform="matrix(1.061 0 0 1.061 46.279 6.201)"/><linearGradient id="f" x1="23.201" x2="22.286" y1="3.505" y2="32.37" xlink:href="#b" gradientUnits="userSpaceOnUse" gradientTransform="matrix(.66 0 0 .66 -7.608 9.693)"/><linearGradient x1="23.201" x2="22.286" y1="3.505" y2="32.37" xlink:href="#b" gradientUnits="userSpaceOnUse" gradientTransform="matrix(-.66 0 0 .66 55.672 9.82)"/><linearGradient id="h" x1="23.201" x2="22.286" y1="3.505" y2="32.37" xlink:href="#b" gradientUnits="userSpaceOnUse" gradientTransform="matrix(-.66 0 0 .66 55.545 9.947)"/><radialGradient id="g" cx="3.299" cy="3.416" r="2.751" xlink:href="#a" gradientUnits="userSpaceOnUse" fx="3.299" fy="3.416"/></defs><g><path fill="url(#d)" fill-rule="evenodd" stroke="#2e3436" stroke-width=".685" d="M6.25 3.9a2.36 2.36 0 1 1-4.72 0 2.36 2.36 0 1 1 4.72 0z" transform="matrix(1.46 0 0 1.46 10.512 34.098)" color="#000" stroke-linecap="round" overflow="visible"/><path fill="url(#e)" d="M23.75.06H48v48H23.75z"/><path fill="none" stroke="#eeeeec" stroke-width="3" stroke-dashoffset="1" d="M24 .03v47.94"/><path fill="none" stroke="#2d3335" stroke-width=".849"/><path fill="none" stroke="#2d3335" stroke-width=".849"/><path fill="none" stroke="#2e3436" stroke-dashoffset="1" d="M24 0v47.94"/><path fill="url(#f)" fill-rule="evenodd" stroke="#2e3436" stroke-width="1.5" d="M1.12 1.65v29.17l5.83-2.98 9.12 11.53-1.4-13.7 5.93-3.04V11.05L1.12 1.65z" color="#000" stroke-linejoin="round" overflow="visible"/><path fill="none" stroke="#fff" stroke-miterlimit="6" d="M2.36 3.72l.2 24.8 4.38-2.36 7.1 8.36-1.16-9.63 6.76-3.18v-9.75L2.36 3.72z" color="#000" overflow="visible"/><path fill="url(#g)" fill-rule="evenodd" stroke="#2e3436" stroke-width=".685" d="M6.25 3.9a2.36 2.36 0 1 1-4.72 0 2.36 2.36 0 1 1 4.72 0z" transform="matrix(1.46 0 0 1.46 25.94 34.161)" color="#000" stroke-linecap="round" overflow="visible"/><path fill="url(#h)" fill-rule="evenodd" stroke="#2e3436" stroke-width="1.5" d="M46.82 1.9v29.18l-5.83-3-9.13 11.54 1.4-13.68-5.93-3.05V11.3l19.48-9.4z" color="#000" stroke-linejoin="round" overflow="visible"/><path fill="none" stroke="#fff" stroke-miterlimit="6" d="M45.58 3.97l-.2 24.8L41 26.42l-7.1 8.35 1.16-9.62-6.76-3.18v-9.75l17.28-8.25z" color="#000" overflow="visible"/></g></svg>