<svg xmlns="http://www.w3.org/2000/svg" width="48" height="48" xmlns:xlink="http://www.w3.org/1999/xlink" viewBox="0 0 45.238 43.682" overflow="visible" enable-background="new 0 0 45.238 43.682" version="1"><defs><linearGradient id="a"><stop offset="0" stop-color="#d3d7cf"/><stop offset="1" stop-color="#fff"/></linearGradient><linearGradient x1="23.201" x2="22.286" y1="3.505" y2="32.37" xlink:href="#a" gradientUnits="userSpaceOnUse" gradientTransform="translate(.236 .169)"/><linearGradient id="b"><stop offset="0" stop-color="#2e3436"/><stop offset="1" stop-color="#2e3436" stop-opacity="0"/></linearGradient><linearGradient id="i" x1="10.276" x2="14.832" y1="35.035" y2="37.582" xlink:href="#b" gradientUnits="userSpaceOnUse" gradientTransform="matrix(.995 .096 -.096 .995 3.765 -.664)"/><linearGradient id="c"><stop offset="0" stop-color="#fff"/><stop offset="1" stop-color="#8e8e8e"/></linearGradient><radialGradient id="h" cx="3.299" cy="3.416" r="2.751" xlink:href="#c" fx="3.299" fy="3.416" gradientUnits="userSpaceOnUse"/><linearGradient id="d"><stop offset="0" stop-color="#fff"/><stop offset="1" stop-color="#eeeeec" stop-opacity="0"/></linearGradient><linearGradient x1="7.5" x2="7.5" y1="14.032" y2="1.148" xlink:href="#d" gradientUnits="userSpaceOnUse" gradientTransform="matrix(1.146 0 0 1.146 24.382 28.316)"/><linearGradient id="e"><stop offset="0" stop-color="#dfeaa1"/><stop offset="1" stop-color="#9db029"/></linearGradient><linearGradient x1="13.697" x2="13.697" y1="6.887" y2="1.744" xlink:href="#e" gradientUnits="userSpaceOnUse" gradientTransform="matrix(1.022 0 0 1.195 -1.473 -1.504)"/><linearGradient x1="7.5" x2="7.5" y1="14.032" y2="1.148" xlink:href="#d" gradientUnits="userSpaceOnUse" gradientTransform="matrix(1.146 0 0 1.146 48.784 18.071)"/><radialGradient cx="23.857" cy="40" r="17.143" fy="40" fx="23.857" gradientTransform="matrix(1 0 0 .5 0 20)" gradientUnits="userSpaceOnUse" xlink:href="#f"/><linearGradient id="f"><stop offset="0"/><stop offset="1" stop-opacity="0"/></linearGradient><radialGradient cx="20.935" cy="12.593" r="19.968" xlink:href="#g" fx="20.935" fy="12.593" gradientTransform="matrix(-1.365 .03 -.039 -1.761 108.185 -2.358)" gradientUnits="userSpaceOnUse"/><linearGradient id="g"><stop offset="0" stop-color="#ef2929"/><stop offset="1" stop-color="#c00"/></linearGradient><radialGradient cx="23.857" cy="40" r="17.143" fy="40" fx="23.857" gradientTransform="matrix(1 0 0 .5 0 20)" gradientUnits="userSpaceOnUse" xlink:href="#f"/><radialGradient id="k" cx="20.935" cy="12.593" r="19.968" xlink:href="#g" gradientUnits="userSpaceOnUse" gradientTransform="matrix(-1.365 .03 -.039 -1.761 108.185 -2.358)" fx="20.935" fy="12.593"/><linearGradient x1="23.201" x2="22.286" y1="3.505" y2="32.37" xlink:href="#a" gradientUnits="userSpaceOnUse" gradientTransform="translate(.236 .169)"/><linearGradient id="j" x1="23.201" x2="22.286" y1="3.505" y2="32.37" xlink:href="#a" gradientUnits="userSpaceOnUse" gradientTransform="matrix(1.077 0 0 .957 -2.367 1.757)"/></defs><path fill="none" stroke="#2d3335" stroke-width=".8"/><path fill="url(#h)" fill-rule="evenodd" stroke="#2e3436" stroke-width=".452" d="M6.25 3.9a2.36 2.36 0 1 1-4.72 0 2.36 2.36 0 1 1 4.72 0z" transform="matrix(3.127 0 0 3.127 -3.141 23.609)" color="#000" stroke-linecap="round" overflow="visible"/><path fill="url(#i)" fill-rule="evenodd" d="M9.12 36.66c3.26 1.13 4.77 3.96 4.77 3.96 1.05-1.04 1.92-2.15 1.8-3.6-1.26-.88-3.33-1.7-4.94-1.82l-1.64 1.46z"/><path fill="url(#j)" fill-rule="evenodd" stroke="#2e3436" stroke-width="1.885" d="M11.86 3.72v17.6h8.34L9.4 35.57 34.87 21.3h8.75V3.73z" color="#000" stroke-linejoin="round" overflow="visible"/><path fill="none" stroke="#fff" stroke-width=".942" stroke-miterlimit="6" d="M13.36 5.05V19.9h9.97L13.3 32.3l20.95-12.4h7.8V5.06z" color="#000" overflow="visible"/><g><path fill="url(#k)" stroke="#a40000" stroke-width="1.525" d="M82.97-37.94c-11.6 0-21.03 9.43-21.03 21.04 0 11.6 9.42 21.04 21.03 21.04C94.6 4.14 104-5.3 104-16.9c0-11.6-9.4-21.04-21.03-21.04zm-.03 5.3c8.7 0 15.76 7.04 15.76 15.7 0 3.22-1 6.2-2.67 8.7L74.25-30c2.5-1.66 5.47-2.64 8.7-2.64zM70.26-26.2L92.2-4.26c-2.6 1.9-5.78 3.04-9.26 3.04-8.7 0-15.76-7.04-15.76-15.7 0-3.47 1.17-6.66 3.08-9.26z" stroke-linecap="round" transform="matrix(.618 0 0 .618 -24.059 24.702)"/><path fill="none" stroke="#fff" stroke-width="1.382" d="M46.7 27.2c0 10.03-8.2 18.16-18.34 18.16S10 37.23 10 27.2c0-10 8.22-18.13 18.36-18.13C38.5 9.07 46.7 17.2 46.7 27.2z" transform="matrix(.678 0 0 .685 7.981 -4.422)" opacity=".554" stroke-linecap="round"/><path fill="none" stroke="#fff" stroke-width=".62.525" d="M21.24 6.46L34.97 20.2" opacity=".478" stroke-linecap="round"/><path fill="#fff" fill-rule="evenodd" d="M14.13 12.1c0 1.45 3.6.44 3.62 1.23-.03-1.2 1.32-3.8 1.63-4.34l5.77 5.57c-.04-1.16 4.13-.08 4.05-1.33l-6.87-7.1c1.02-.54 3.42-1.4 4.92-1.3 5.5.14 9.33 5.25 9.34 8.73l-.4 3.34c-.07 1.25 3.9-.13 3.78.87.27-.77.6-2.34.53-4.15-.03-6.44-5.45-12.5-13.3-12.64-5.73.08-10.36 3.36-11.94 7.68-.1.02-.98 1.46-1.13 3.43z" opacity=".306"/></g></svg>