<svg xmlns="http://www.w3.org/2000/svg" width="48" height="48" xmlns:xlink="http://www.w3.org/1999/xlink"><defs><linearGradient id="d"><stop offset="0" stop-color="#ffd1b5"/><stop offset="1" stop-color="#fff" stop-opacity="0"/></linearGradient><linearGradient id="c"><stop offset="0" stop-color="#ffab8c"/><stop offset=".5" stop-color="#f64200"/><stop offset="1" stop-color="#c50f0f"/></linearGradient><linearGradient id="b"><stop offset="0" stop-color="#2e3436"/><stop offset="1" stop-color="#2e3436" stop-opacity="0"/></linearGradient><linearGradient id="a"><stop offset="0" stop-color="#d4d4cf"/><stop offset=".25" stop-color="#fff"/><stop offset=".5" stop-color="#eeeeec"/><stop offset="1" stop-color="#858577"/></linearGradient><linearGradient id="f" x1="7.906" x2="41.219" y1="32.531" y2="32.531" xlink:href="#a" gradientUnits="userSpaceOnUse" gradientTransform="matrix(1.04 0 0 1.04 -2.92 -1.88)"/><radialGradient id="e" cx="24.571" cy="41.607" r="17.357" xlink:href="#b" fx="24.571" fy="41.607" gradientTransform="matrix(1 0 0 .36 0 26.625)" gradientUnits="userSpaceOnUse"/><radialGradient id="g" cx="18.783" cy="15.124" r="13.202" xlink:href="#c" fx="18.783" fy="15.124" gradientTransform="matrix(1 -.013 .032 2.542 -3.142 -22.787)" gradientUnits="userSpaceOnUse"/><radialGradient cx="29.214" cy="18.571" r="2.929" xlink:href="#d" fx="29.214" fy="18.571" gradientTransform="matrix(1 0 0 1.732 0 -13.589)" gradientUnits="userSpaceOnUse"/><radialGradient cx="29.214" cy="18.571" r="2.929" xlink:href="#d" gradientUnits="userSpaceOnUse" gradientTransform="matrix(1 0 0 1.732 0 -13.589)" fx="29.214" fy="18.571"/><radialGradient id="h" cx="29.214" cy="18.571" r="2.929" xlink:href="#d" gradientUnits="userSpaceOnUse" gradientTransform="matrix(1 0 0 1.732 0 -13.589)" fx="29.214" fy="18.571"/></defs><g color="#000"><path fill="url(#e)" d="M41.93 41.6a17.36 6.25 0 1 1-34.72 0 17.36 6.25 0 1 1 34.73 0z" transform="matrix(1.1 0 0 1.102 1.973 -4.986)" overflow="visible" enable-background="accumulate"/><path fill="url(#f)" stroke="#2e3436" stroke-opacity=".995" d="M22.63 19.05c-8.66 0-15.67 3.53-15.67 7.9L5.7 36.3c0 4.72 7.57 8.55 16.93 8.55 9.35 0 16.93-3.83 16.93-8.55l-1.24-9.36c0-4.36-7.04-7.9-15.7-7.9z" overflow="visible" enable-background="accumulate"/><path fill="#eeeeec" fill-opacity=".515" d="M36.93 26.96a14.5 6.4 0 1 1-29 0 14.5 6.4 0 1 1 29 0z" overflow="visible" enable-background="accumulate"/><path fill="none" stroke="#eeeeec" stroke-opacity=".995" d="M22.63 20.13c-8.13 0-14.7 3.24-14.7 7.23l-1.2 8.57c0 4.32 7.12 7.83 15.9 7.83 8.78 0 15.9-3.5 15.9-7.83l-1.17-8.57c0-4-6.6-7.23-14.73-7.23z" overflow="visible" enable-background="accumulate"/><path fill="url(#g)" stroke="#a40000" stroke-opacity=".995" d="M22.7 1.3c-6.5 0-11.75 2.34-11.75 7.52L10 23.2c0 3.97 5.68 7.78 12.7 7.78 7 0 12.92-3.14 12.7-7.78l-.93-14.38c0-5.18-5.28-7.53-11.77-7.53z" overflow="visible" enable-background="accumulate"/><path fill="none" stroke="#ffa6a6" stroke-opacity=".995" d="M22.7 2.24c-5.98 0-10.82 2.2-10.82 7.04L11 22.75c0 3.72 5.24 7.28 11.7 7.28 6.46 0 11.9-2.94 11.7-7.28l-.85-13.47c0-4.84-4.87-7.04-10.85-7.04z" overflow="visible" enable-background="accumulate"/><path fill="#eeeeec" fill-opacity=".515" d="M33 6.07a10.04 4 0 1 1-20.07 0 10.04 4 0 1 1 20.07 0z" overflow="visible" enable-background="accumulate"/><path fill="url(#h)" d="M32.14 18.57a2.93 5.07 0 1 1-5.85 0 2.93 5.07 0 1 1 5.84 0z" transform="matrix(1.873 0 0 1.873 -25.582 -16.074)" overflow="visible" enable-background="accumulate"/></g></svg>