<svg xmlns="http://www.w3.org/2000/svg" width="48" height="48" xmlns:xlink="http://www.w3.org/1999/xlink"><defs><linearGradient id="a"><stop offset="0" stop-color="#d3d7cf"/><stop offset="1" stop-color="#fff"/></linearGradient><linearGradient id="i" x1="23.201" x2="22.286" y1="3.505" y2="32.37" xlink:href="#a" gradientUnits="userSpaceOnUse" gradientTransform="matrix(1.061 0 0 1.061 -.75 1.576)"/><linearGradient id="b"><stop offset="0" stop-color="#2e3436"/><stop offset="1" stop-color="#2e3436" stop-opacity="0"/></linearGradient><linearGradient id="h" x1="10.276" x2="14.832" y1="35.035" y2="37.582" xlink:href="#b" gradientUnits="userSpaceOnUse" gradientTransform="matrix(1.056 .101 -.101 1.056 2.995 .692)"/><linearGradient id="c"><stop offset="0" stop-color="#fff"/><stop offset="1" stop-color="#8e8e8e"/></linearGradient><radialGradient id="g" cx="3.299" cy="3.416" r="2.751" xlink:href="#c" fx="3.299" fy="3.416" gradientUnits="userSpaceOnUse"/><linearGradient id="d"><stop offset="0" stop-color="#eeeeec"/><stop offset="1" stop-color="#eeeeec" stop-opacity="0"/></linearGradient><linearGradient x1="14.66" x2="8.418" y1="14.525" y2="8.051" xlink:href="#d" gradientUnits="userSpaceOnUse" gradientTransform="matrix(1.059 0 0 1.059 23.42 23.728)"/><linearGradient id="e"><stop offset="0" stop-color="#eeeeec" stop-opacity=".502"/><stop offset="1" stop-color="#fff" stop-opacity=".753"/></linearGradient><linearGradient x1="3.951" x2="18.85" y1="4.049" y2="19.25" xlink:href="#e" gradientUnits="userSpaceOnUse" gradientTransform="translate(24.151 24.418)"/><linearGradient id="f" x1="208.958" x2="182.122" y1="247.744" y2="206.743" gradientUnits="userSpaceOnUse"><stop offset="0" stop-color="#8EA3B2"/><stop offset="1" stop-color="#DCE6E9"/></linearGradient><linearGradient x1="208.278" x2="182.122" y1="246.343" y2="206.743" xlink:href="#f" gradientUnits="userSpaceOnUse" gradientTransform="matrix(.562 -.033 0 .554 -72.726 -81.46)"/><linearGradient><stop offset="0" stop-color="#dfeaa1"/><stop offset="1" stop-color="#9db029"/></linearGradient></defs><g><path fill="url(#g)" fill-rule="evenodd" stroke="#2e3436" stroke-width=".452" d="M6.25 3.9a2.36 2.36 0 1 1-4.72 0 2.36 2.36 0 1 1 4.72 0z" transform="matrix(3.318 0 0 3.318 -4.333 26.446)" color="#000" stroke-linecap="round" overflow="visible"/><path fill="url(#h)" fill-rule="evenodd" d="M8.67 40.3c3.47 1.2 5.07 4.2 5.07 4.2 1.12-1.1 2.04-2.3 1.9-3.84-1.32-.92-3.5-1.77-5.22-1.9L8.67 40.3z"/><path fill="url(#i)" fill-rule="evenodd" stroke="#2e3436" stroke-width="2" d="M13.27 3.75v18.6h8.22L8.56 39.44l27.37-17.07h8.62V3.76h-31.3z" color="#000" stroke-linejoin="round" overflow="visible"/><path fill="none" stroke="#fff" stroke-miterlimit="6" d="M14.75 5.23V20.9h10.4l-10 12.5 20.18-12.5h7.7V5.23H14.75z" color="#000" overflow="visible"/><path d="M21.42 17.02v-2c-.3.02-.66.05-1.1.1-.45.04-.8.1-1.08.2-.32.1-.6.24-.8.45-.22.2-.32.5-.32.86 0 .4.1.73.35.94.23.2.57.32 1.02.32.38 0 .73-.1 1.04-.26.3-.17.6-.37.88-.62zm0 1.02c-.1.07-.23.17-.4.3-.17.14-.33.24-.5.32-.2.1-.4.2-.6.26-.2.06-.5.1-.86.1-.3 0-.58-.06-.85-.18-.26-.1-.5-.27-.7-.47-.2-.2-.35-.45-.47-.74-.1-.3-.17-.6-.17-.92 0-.5.1-.92.32-1.28.2-.35.54-.63 1-.84.4-.2.9-.3 1.44-.4.56-.06 1.16-.1 1.8-.14v-.24c0-.28-.05-.52-.13-.7-.1-.17-.22-.3-.38-.4-.15-.1-.34-.16-.57-.2-.22-.03-.45-.04-.7-.04-.27 0-.6.04-1 .12-.37.1-.75.2-1.13.37h-.07V11.7c.22-.06.55-.13.97-.2.42-.08.83-.12 1.24-.12.5 0 .92.04 1.26.1.35.1.65.23.93.44.26.2.46.45.6.77.12.3.18.7.18 1.15v4.96h-1.2v-.76zm7.76-2.88c0-.87-.13-1.52-.4-1.97-.26-.46-.68-.7-1.27-.7-.32 0-.66.1-1 .25-.34.15-.65.35-.92.6v4.15c.3.15.58.26.8.32.25.06.52.1.8.1.62 0 1.1-.23 1.47-.67.35-.44.53-1.14.53-2.1zm1.26-.1c0 1.2-.3 2.14-.86 2.87-.58.72-1.3 1.08-2.17 1.08-.38 0-.72-.04-1-.13-.27-.1-.55-.23-.82-.4l-.08.34h-1.15V8.7h1.23v3.6c.3-.26.64-.5 1-.68.36-.18.76-.27 1.22-.27.82 0 1.46.33 1.93 1 .48.64.7 1.55.7 2.7z" style="text-align:start;line-height:125%" font-size="12" font-family="Tahoma"/><path fill="#f57900" fill-rule="evenodd" d="M31.86 6h2v15h-2z" color="#000" overflow="visible"/></g></svg>