<svg xmlns="http://www.w3.org/2000/svg" width="48" height="48" xmlns:xlink="http://www.w3.org/1999/xlink"><defs><linearGradient id="g"><stop offset="0" stop-color="#2e3436" stop-opacity=".502"/><stop offset="1" stop-color="#2e3436" stop-opacity="0"/></linearGradient><linearGradient id="f"><stop offset="0" stop-color="#647f8e"/><stop offset="1" stop-color="#bac8cf"/></linearGradient><linearGradient id="a"><stop offset="0" stop-color="#d3d7cf"/><stop offset="1" stop-color="#fff"/></linearGradient><linearGradient x1="23.201" x2="22.286" y1="3.505" y2="32.37" xlink:href="#a" gradientUnits="userSpaceOnUse" gradientTransform="matrix(1.061 0 0 1.061 46.279 6.201)"/><linearGradient id="b"><stop offset="0" stop-color="#2e3436"/><stop offset="1" stop-color="#2e3436" stop-opacity="0"/></linearGradient><linearGradient x1="10.276" x2="14.832" y1="35.035" y2="37.582" xlink:href="#b" gradientUnits="userSpaceOnUse" gradientTransform="matrix(.709 .068 -.068 .709 37.191 14.62)"/><linearGradient id="c"><stop offset="0" stop-color="#fff"/><stop offset="1" stop-color="#8e8e8e"/></linearGradient><radialGradient id="k" cx="3.299" cy="3.416" r="2.751" xlink:href="#c" fx="3.299" fy="3.416" gradientUnits="userSpaceOnUse"/><linearGradient id="e"><stop offset="0" stop-color="#ef8229"/><stop offset="1" stop-color="#c00"/></linearGradient><linearGradient x1="13.697" x2="13.697" y1="6.887" y2="1.744" xlink:href="#d" gradientUnits="userSpaceOnUse" gradientTransform="matrix(.952 0 0 1.113 -1.145 -.473)"/><linearGradient><stop offset="0" stop-color="#ef2929"/><stop offset="1" stop-color="#f57900"/></linearGradient><linearGradient id="d"><stop offset="0" stop-color="#dfeaa1"/><stop offset="1" stop-color="#9db029"/></linearGradient><linearGradient x1="13.697" x2="13.697" y1="6.887" y2="1.744" xlink:href="#d" gradientUnits="userSpaceOnUse" gradientTransform="matrix(.625 0 0 .638 -.648 .021)"/><linearGradient x1="13.697" x2="13.697" y1="6.887" y2="1.744" xlink:href="#d" gradientUnits="userSpaceOnUse" gradientTransform="matrix(.625 0 0 .638 20.28 22.163)"/><linearGradient x1="13.697" x2="13.697" y1="6.887" y2="1.744" xlink:href="#d" gradientUnits="userSpaceOnUse" gradientTransform="matrix(1.01 0 0 1.181 23.479 7.845)"/><linearGradient x1="13.697" x2="13.697" y1="6.887" y2="1.744" xlink:href="#d" gradientUnits="userSpaceOnUse" gradientTransform="matrix(.56 0 0 .655 23.172 24.092)"/><linearGradient x1="10.786" x2="14.803" y1="26.156" y2="44.442" xlink:href="#e" gradientUnits="userSpaceOnUse" gradientTransform="translate(-24 24.952)"/><radialGradient id="m" cx="3.299" cy="3.416" r="2.751" xlink:href="#c" gradientUnits="userSpaceOnUse" fx="3.299" fy="3.416"/><radialGradient id="h" cx="3.299" cy="3.416" r="2.751" xlink:href="#c" gradientUnits="userSpaceOnUse" fx="3.299" fy="3.416"/><radialGradient id="i" cx="3.299" cy="3.416" r="2.751" xlink:href="#c" gradientUnits="userSpaceOnUse" fx="3.299" fy="3.416"/><linearGradient id="l" x1="22.985" x2="22.286" y1="6.1" y2="32.37" xlink:href="#a" gradientUnits="userSpaceOnUse" gradientTransform="matrix(1.061 0 0 1.061 46.279 6.201)"/><linearGradient id="j" x1="12.286" x2="26.714" y1="17.143" y2="32.429" xlink:href="#f" gradientUnits="userSpaceOnUse"/><linearGradient id="n" x1="23.201" x2="22.286" y1="3.505" y2="32.37" xlink:href="#a" gradientUnits="userSpaceOnUse" gradientTransform="matrix(1.061 0 0 1.061 46.279 6.201)"/><linearGradient x1="10.786" x2="14.803" y1="26.156" y2="44.442" xlink:href="#e" gradientUnits="userSpaceOnUse" gradientTransform="translate(-24 24.952)"/><linearGradient id="o" x1="10.786" x2="14.803" y1="26.156" y2="44.442" xlink:href="#e" gradientUnits="userSpaceOnUse" gradientTransform="translate(-24 24.952)"/><linearGradient x1="22.714" x2="26.143" y1="29.143" y2="36.571" xlink:href="#g" gradientUnits="userSpaceOnUse" gradientTransform="matrix(.961 -.276 .276 .961 -9.136 6.757)"/></defs><g><path fill="url(#h)" fill-rule="evenodd" stroke="#2e3436" stroke-width="1.087" d="M6.25 3.9a2.36 2.36 0 1 1-4.72 0 2.36 2.36 0 1 1 4.72 0z" transform="matrix(1.379 0 0 1.379 32.826 16.033)" color="#000" stroke-linecap="round" overflow="visible"/><path fill="url(#i)" fill-rule="evenodd" stroke="#2e3436" stroke-width="1.118" d="M6.25 3.9a2.36 2.36 0 1 1-4.72 0 2.36 2.36 0 1 1 4.72 0z" transform="matrix(.895 0 0 .895 9.092 13.262)" color="#000" stroke-linecap="round" overflow="visible"/><path fill="url(#j)" fill-rule="evenodd" stroke="#000" stroke-width="1.5" d="M12.14 16.57l26.15 4.86 3.13 19.28-37.57-9 8.28-15.13z"/><path fill="none" stroke="#2d3335" stroke-width=".849"/><path fill="url(#k)" fill-rule="evenodd" stroke="#2e3436" stroke-width=".673" d="M6.25 3.9a2.36 2.36 0 1 1-4.72 0 2.36 2.36 0 1 1 4.72 0z" transform="matrix(2.228 0 0 2.228 32.272 31.909)" color="#000" stroke-linecap="round" overflow="visible"/><g color="#000"><path fill="url(#l)" fill-rule="evenodd" stroke="#2e3436" stroke-width="3.213" d="M60.3 11.13v18.6h9.36l12.1 16.4.3-16.4h9.53v-18.6H60.3z" stroke-linejoin="round" overflow="visible" transform="matrix(.622 0 0 .622 -9.716 11.667)"/><path fill="none" stroke="#fff" stroke-width=".62.606" stroke-miterlimit="6" d="M28.7 19.5v9.75h5.48l6.2 8.35v-8.35h5.92V19.5H28.7z" overflow="visible"/></g><path fill="url(#m)" fill-rule="evenodd" stroke="#2e3436" stroke-width="1.087" d="M6.25 3.9a2.36 2.36 0 1 1-4.72 0 2.36 2.36 0 1 1 4.72 0z" transform="matrix(1.379 0 0 1.379 -1.269 26.319)" color="#000" stroke-linecap="round" overflow="visible"/><g color="#000"><path fill="url(#n)" fill-rule="evenodd" stroke="#2e3436" stroke-width="3.213" d="M60.3 8.38v18.6h9.36L93.7 52.55 82.05 27h9.54V8.37H60.3z" stroke-linejoin="round" overflow="visible" transform="matrix(.622 0 0 .622 -36.416 -3.96)"/><path fill="none" stroke="#fff" stroke-width=".62.606" stroke-miterlimit="6" d="M2 2.17v9.74H7.5L19.8 25.7 13.68 11.9h5.93V2.18H2z" overflow="visible"/></g><g><path fill="url(#o)" fill-rule="evenodd" stroke="#7c0000" stroke-width="1.695" d="M5.73 64.96c-14.43 5.8-14.8-.74-15.02-5.65h4.82l-8.88-8.78-9.16 8.4h4.75c0 10.44 8.98 21.15 23.5 6.04z" transform="matrix(.013 .789 .993 .03 -27.977 17.487)"/><path fill="none" stroke="#fcaf3e" stroke-width="1.13" stroke-miterlimit="6" d="M.32 67.98c-11.77 2.94-10.67-7.47-10.9-9.9h3.04l-5.9-5.8-5.93 5.4 2.85.05c-.5 9.44 6.38 18.88 16.84 10.25z" transform="matrix(.013 .789 .993 .03 -27.977 17.487)"/></g></g></svg>