<svg xmlns="http://www.w3.org/2000/svg" width="48" height="48" xmlns:ns="&ns_ai;" xmlns:xlink="http://www.w3.org/1999/xlink"><defs><linearGradient id="w"><stop offset="0" stop-color="#fff" stop-opacity=".251"/><stop offset="1" stop-opacity=".506"/></linearGradient><linearGradient id="a" x1="111.165" x2="111.165" y1="402.034" y2="403.444" gradientUnits="userSpaceOnUse"><stop offset="0" stop-color="#BABDB6"/><stop offset="1" stop-color="#545652"/></linearGradient><linearGradient id="O" x1="111.165" x2="111.165" y1="402.034" y2="403.444" xlink:href="#a" gradientUnits="userSpaceOnUse" gradientTransform="matrix(.505 0 0 .513 -28.348 -223.507)"/><linearGradient id="b" x1="105.516" x2="116.824" y1="409.506" y2="409.506" gradientUnits="userSpaceOnUse"><stop offset="0" stop-color="#545652"/><stop offset=".286" stop-color="#888A85"/><stop offset=".635" stop-color="#888A85"/><stop offset="1" stop-color="#545652"/></linearGradient><linearGradient id="N" x1="105.516" x2="116.824" y1="409.506" y2="409.506" xlink:href="#b" gradientUnits="userSpaceOnUse" gradientTransform="matrix(.505 0 0 .513 -28.348 -223.507)"/><linearGradient id="c" x1="105.517" x2="116.825" y1="408.746" y2="408.746" gradientUnits="userSpaceOnUse"><stop offset="0" stop-color="#545652"/><stop offset=".286" stop-color="#888A85"/><stop offset=".635" stop-color="#888A85"/><stop offset="1" stop-color="#545652"/></linearGradient><linearGradient id="M" x1="105.517" x2="116.825" y1="408.746" y2="408.746" xlink:href="#c" gradientUnits="userSpaceOnUse" gradientTransform="matrix(.505 0 0 .513 -28.348 -223.507)"/><linearGradient id="d" x1="105.516" x2="116.825" y1="408.908" y2="408.908" gradientUnits="userSpaceOnUse"><stop offset="0" stop-color="#545652"/><stop offset=".286" stop-color="#888A85"/><stop offset=".635" stop-color="#888A85"/><stop offset="1" stop-color="#545652"/></linearGradient><linearGradient id="L" x1="105.516" x2="116.825" y1="408.908" y2="408.908" xlink:href="#d" gradientUnits="userSpaceOnUse" gradientTransform="matrix(.505 0 0 .513 -28.348 -223.507)"/><linearGradient id="e" x1="105.517" x2="116.824" y1="405.265" y2="405.265" gradientUnits="userSpaceOnUse"><stop offset="0" stop-color="#545652"/><stop offset=".286" stop-color="#888A85"/><stop offset=".635" stop-color="#888A85"/><stop offset="1" stop-color="#545652"/></linearGradient><linearGradient id="K" x1="105.517" x2="116.824" y1="405.265" y2="405.265" xlink:href="#e" gradientUnits="userSpaceOnUse" gradientTransform="matrix(.505 0 0 .513 -28.348 -223.507)"/><linearGradient id="f" x1="105.517" x2="116.825" y1="404.161" y2="404.161" gradientUnits="userSpaceOnUse"><stop offset="0" stop-color="#545652"/><stop offset=".286" stop-color="#888A85"/><stop offset=".635" stop-color="#888A85"/><stop offset="1" stop-color="#545652"/></linearGradient><linearGradient id="J" x1="105.517" x2="116.825" y1="404.161" y2="404.161" xlink:href="#f" gradientUnits="userSpaceOnUse" gradientTransform="matrix(.505 0 0 .513 -28.348 -223.507)"/><linearGradient id="g" x1="105.516" x2="116.825" y1="404.348" y2="404.348" gradientUnits="userSpaceOnUse"><stop offset="0" stop-color="#545652"/><stop offset=".286" stop-color="#888A85"/><stop offset=".635" stop-color="#888A85"/><stop offset="1" stop-color="#545652"/></linearGradient><linearGradient id="I" x1="105.516" x2="116.825" y1="404.348" y2="404.348" xlink:href="#g" gradientUnits="userSpaceOnUse" gradientTransform="matrix(.505 0 0 .513 -28.348 -223.507)"/><linearGradient id="h" x1="105.517" x2="116.824" y1="407.217" y2="407.217" gradientUnits="userSpaceOnUse"><stop offset="0" stop-color="#545652"/><stop offset=".286" stop-color="#888A85"/><stop offset=".635" stop-color="#888A85"/><stop offset="1" stop-color="#545652"/></linearGradient><linearGradient id="H" x1="105.517" x2="116.824" y1="407.217" y2="407.217" xlink:href="#h" gradientUnits="userSpaceOnUse"/><linearGradient id="i" x1="105.517" x2="116.825" y1="406.136" y2="406.136" gradientUnits="userSpaceOnUse"><stop offset="0" stop-color="#545652"/><stop offset=".286" stop-color="#888A85"/><stop offset=".635" stop-color="#888A85"/><stop offset="1" stop-color="#545652"/></linearGradient><linearGradient id="G" x1="105.517" x2="116.825" y1="406.136" y2="406.136" xlink:href="#i" gradientUnits="userSpaceOnUse"/><linearGradient id="j" x1="105.517" x2="116.825" y1="406.309" y2="406.309" gradientUnits="userSpaceOnUse"><stop offset="0" stop-color="#545652"/><stop offset=".286" stop-color="#888A85"/><stop offset=".635" stop-color="#888A85"/><stop offset="1" stop-color="#545652"/></linearGradient><linearGradient id="F" x1="105.517" x2="116.825" y1="406.309" y2="406.309" xlink:href="#j" gradientUnits="userSpaceOnUse"/><radialGradient id="k" cx="110.936" cy="384.101" r="49.543" gradientUnits="userSpaceOnUse" gradientTransform="matrix(1 0 0 1.085 0 -34.977)" fy="384.101" fx="110.936"><stop offset="0" stop-color="#888A85"/><stop offset="1" stop-color="#545652"/></radialGradient><radialGradient id="E" cx="110.936" cy="384.101" r="49.543" xlink:href="#k" gradientUnits="userSpaceOnUse" gradientTransform="matrix(.505 0 0 .557 -28.348 -241.465)" fx="110.936" fy="384.101"/><radialGradient id="l" cx="116.566" cy="388.978" r="26.146" gradientUnits="userSpaceOnUse" gradientTransform="matrix(1 0 0 1.085 0 -34.977)" fy="388.978" fx="116.566"><stop offset="0" stop-color="#fff"/><stop offset="1" stop-color="#F5F2C4"/></radialGradient><radialGradient id="D" cx="116.566" cy="388.978" r="26.146" xlink:href="#l" gradientUnits="userSpaceOnUse" gradientTransform="matrix(.505 0 0 .557 -28.348 -241.465)" fx="116.566" fy="388.978"/><linearGradient id="m" x1="106.368" x2="115.906" y1="409.508" y2="409.508" gradientUnits="userSpaceOnUse"><stop offset="0" stop-color="#EFEEEC"/><stop offset=".601" stop-color="#BABDB6"/></linearGradient><linearGradient id="C" x1="106.368" x2="115.906" y1="409.508" y2="409.508" xlink:href="#m" gradientUnits="userSpaceOnUse" gradientTransform="matrix(.505 0 0 .513 -28.348 -223.507)"/><linearGradient id="n" x1="106.368" x2="115.904" y1="405.266" y2="405.266" gradientUnits="userSpaceOnUse"><stop offset="0" stop-color="#EFEEEC"/><stop offset=".601" stop-color="#BABDB6"/></linearGradient><linearGradient id="B" x1="106.368" x2="115.904" y1="405.266" y2="405.266" xlink:href="#n" gradientUnits="userSpaceOnUse" gradientTransform="matrix(.505 0 0 .513 -28.348 -223.507)"/><linearGradient id="o" x1="106.368" x2="115.904" y1="407.218" y2="407.218" gradientUnits="userSpaceOnUse"><stop offset="0" stop-color="#EFEEEC"/><stop offset=".601" stop-color="#BABDB6"/></linearGradient><linearGradient id="A" x1="106.368" x2="115.904" y1="407.218" y2="407.218" xlink:href="#o" gradientUnits="userSpaceOnUse" gradientTransform="matrix(.505 0 0 .513 -28.348 -223.507)"/><radialGradient id="p" cx="111.45" cy="398.607" r="15.925" gradientUnits="userSpaceOnUse" gradientTransform="matrix(1 0 0 1.085 0 -34.977)" fy="398.607" fx="111.45"><stop offset="0" stop-color="#fff"/><stop offset=".079" stop-color="#FEFEF8"/><stop offset=".182" stop-color="#FDFBE7"/><stop offset=".298" stop-color="#FAF5CA"/><stop offset=".424" stop-color="#F5EEA2"/><stop offset=".559" stop-color="#F0E473"/><stop offset=".698" stop-color="#E9D73B"/><stop offset=".809" stop-color="#E4CD10"/></radialGradient><radialGradient id="z" cx="111.45" cy="398.607" r="15.925" xlink:href="#p" gradientUnits="userSpaceOnUse" gradientTransform="matrix(.505 0 0 .557 -28.348 -241.465)" fx="111.45" fy="398.607"/><linearGradient><stop offset="0" stop-color="#74726e"/><stop offset="1" stop-color="#5d5b58" stop-opacity="0"/></linearGradient><linearGradient id="y"><stop offset="0" stop-color="#b0b1ae"/><stop offset="1" stop-color="#232423"/></linearGradient><linearGradient id="x"><stop offset="0" stop-color="#2e3436" stop-opacity=".619"/><stop offset="1" stop-color="#2e3436" stop-opacity="0"/></linearGradient><linearGradient id="u"><stop offset="0" stop-color="#fff"/><stop offset="1" stop-color="#fff" stop-opacity="0"/></linearGradient><linearGradient id="t"><stop offset="0" stop-color="#fff"/><stop offset="1" stop-color="#fff" stop-opacity="0"/></linearGradient><linearGradient id="s"><stop offset="0" stop-color="#fff"/><stop offset="1" stop-color="#fff" stop-opacity="0"/></linearGradient><linearGradient id="r"><stop offset="0" stop-color="#fff"/><stop offset="1" stop-color="#fff" stop-opacity="0"/></linearGradient><linearGradient id="q"><stop offset="0" stop-color="#fff"/><stop offset="1" stop-color="#fff" stop-opacity="0"/></linearGradient><linearGradient id="v"><stop offset="0" stop-color="#fff"/><stop offset="1" stop-color="#fff" stop-opacity="0"/></linearGradient><linearGradient id="R" x1="288.375" x2="288.375" y1="-440.906" y2="-433.483" xlink:href="#q" gradientUnits="userSpaceOnUse"/><linearGradient id="S" x1="288.375" x2="290.234" y1="-440.906" y2="-434.281" xlink:href="#r" gradientUnits="userSpaceOnUse"/><linearGradient id="T" x1="288.757" x2="287.336" y1="-440.906" y2="-434.281" xlink:href="#s" gradientUnits="userSpaceOnUse"/><linearGradient id="U" x1="280.5" x2="280.5" y1="-441" y2="-429.91" xlink:href="#t" gradientUnits="userSpaceOnUse"/><linearGradient id="V" x1="290.573" x2="289.322" y1="-439.985" y2="-436.707" xlink:href="#u" gradientUnits="userSpaceOnUse"/><linearGradient id="W" x1="287.932" x2="289.108" y1="-440.906" y2="-434.281" xlink:href="#s" gradientUnits="userSpaceOnUse"/><linearGradient id="ac" x1="289.145" x2="289.811" y1="-434.281" y2="-437.594" xlink:href="#s" gradientUnits="userSpaceOnUse"/><linearGradient id="ab" x1="290.202" x2="289.395" y1="-434.926" y2="-438.19" xlink:href="#u" gradientUnits="userSpaceOnUse"/><linearGradient id="aa" x1="279.991" x2="280.5" y1="-428.091" y2="-436.631" xlink:href="#v" gradientUnits="userSpaceOnUse"/><linearGradient id="Z" x1="289.363" x2="288.375" y1="-434.281" y2="-438.971" xlink:href="#s" gradientUnits="userSpaceOnUse"/><linearGradient id="Y" x1="288.375" x2="289.473" y1="-432.314" y2="-437.594" xlink:href="#r" gradientUnits="userSpaceOnUse"/><linearGradient id="X" x1="289.899" x2="290.121" y1="-432.84" y2="-439.69" xlink:href="#q" gradientUnits="userSpaceOnUse"/><linearGradient id="ae" x1="281.064" x2="281.316" y1="-444.191" y2="-414.085" xlink:href="#w" gradientUnits="userSpaceOnUse" gradientTransform="matrix(.987 0 0 .876 -252.974 406.452)"/><linearGradient id="ad" x1="287.347" x2="288.375" y1="-434.73" y2="-437.888" xlink:href="#s" gradientUnits="userSpaceOnUse"/><radialGradient id="P" cx="23.335" cy="44.42" r="18.562" xlink:href="#x" fx="23.335" fy="44.42" gradientTransform="matrix(1 0 0 .193 0 35.854)" gradientUnits="userSpaceOnUse"/><linearGradient id="Q" x1="24" x2="23.296" y1="12.498" y2="45.056" xlink:href="#y" gradientUnits="userSpaceOnUse" gradientTransform="matrix(.673 0 0 .674 7.998 15.415)"/></defs><g><g><path fill="url(#z)" stroke="#babdb6" stroke-width=".737" d="M27.83-28.17c2.8 0 5.08 2.25 5.08 5.34 0 1.97-.84 2.74-1.65 3.98-.26.4-.5 1.43-.9 2.23-.3.66-1.42 1.03-2.52 1.03s-2.2-.36-2.53-1.02c-.38-.8-.62-1.84-.88-2.23-.82-1.24-1.66-2-1.66-3.98 0-3.1 2.27-5.34 5.07-5.34z" ns:knockout="Off" transform="translate(-3.75 28.5)"/><path fill="url(#A)" d="M29.9-14.34c-.48.36-1.28.6-2.07.6-.78 0-1.58-.24-2.06-.6-.68-.6-.2-.97.17-.7.5.3 1.2.48 1.9.48s1.4-.18 1.88-.47c.4-.28.86.1.18.7z" ns:knockout="Off" transform="translate(-3.75 28.5)"/><path fill="url(#B)" d="M25.94-16.03c.5.28 1.2.46 1.9.46s1.4-.18 1.88-.46c.4-.3.86.13.18.73-.48.36-1.28.56-2.07.56-.78 0-1.58-.2-2.06-.56-.68-.6-.2-1.02.17-.73z" ns:knockout="Off" transform="translate(-3.75 28.5)"/><path fill="url(#C)" d="M29.8-12.97c-.5.35-1.18.52-1.97.52-.78 0-1.47-.17-1.95-.52-.68-.6-.32-1.3.06-1.02.5.3 1.2.47 1.9.47s1.4-.17 1.88-.46c.4-.27.75.43.07 1.03z" ns:knockout="Off" transform="translate(-3.75 28.5)"/><path fill="#babdb6" stroke="#babdb6" stroke-width=".732" d="M26.73 12.33l-.08.26s.08-.22.08-.27z" ns:knockout="Off"/><path fill="#babdb6" stroke="#babdb6" stroke-width=".732" d="M23.68 14.86c-.92-.1-1.76-.48-2.05-1.05.3.58 1.13.97 2.05 1.06z" ns:knockout="Off"/><path fill="#fff" d="M27 3.42c.45 1.62-.7 3.43-2.55 4.06-1.86.62-3.73-.18-4.18-1.8-.45-1.6.7-3.42 2.55-4.05 1.86-.63 3.73.17 4.18 1.8z" ns:knockout="Off" opacity=".5"/><path fill="url(#D)" d="M22.95-22.83c0 1.55.55 2.33 1.2 3.24l.42.63c.15.22.28.6.43 1.04 0 0 .47 1.2.47 1.2.3.62 1.4.93 2.36.93s2.07-.3 2.37-.92l.47-1.2c.15-.45.28-.83.43-1.05 0 0-.02 0-.03.02.06-.08.18-.24.46-.65.64-.9 1.2-1.67 1.2-3.23 0-2.93-2.1-5.14-4.9-5.14-2.78 0-4.88 2.2-4.88 5.14zm2.85 5.92l-.45-1.18c-.16-.47-.3-.87-.48-1.13l-.43-.65c-.65-.9-1.12-1.57-1.12-2.98 0-2.7 1.94-4.73 4.5-4.73 2.6 0 4.53 2.04 4.53 4.73 0 1.4-.47 2.07-1.12 2.98 0 0-.43.63-.43.63-.18.27-.32.67-.48 1.14 0 0-.45 1.17-.45 1.17-.16.33-1 .7-2.04.7s-1.87-.37-2.03-.7z" ns:knockout="Off" transform="translate(-3.75 28.5)"/><path fill="url(#E)" d="M22.57-22.83c0 1.7.62 2.57 1.28 3.5l.42.6c.12.18.24.55.38.94.14.42.3.87.5 1.27.37.8 1.62 1.14 2.68 1.14 1.07 0 2.32-.34 2.7-1.13.2-.4.35-.85.5-1.26.12-.38.25-.75.37-.93l.42-.6c.66-.93 1.27-1.8 1.27-3.5 0-3.1-2.32-5.55-5.27-5.55-2.95 0-5.26 2.44-5.26 5.55zm2.9 6.1c-.18-.37-.34-.8-.47-1.2-.15-.44-.28-.82-.43-1.04l-.43-.62c-.64-.9-1.2-1.68-1.2-3.23 0-2.93 2.1-5.14 4.9-5.14 2.78 0 4.88 2.2 4.88 5.14 0 1.55-.55 2.33-1.2 3.24l-.42.63c-.15.22-.28.6-.43 1.04-.14.4-.3.83-.47 1.2-.26.54-1.26.93-2.37.93-1.1 0-2.1-.4-2.36-.92z" ns:knockout="Off" transform="translate(-3.75 28.5)"/><g transform="matrix(.505 0 0 .513 -32.098 -195.007)"><linearGradient x1="105.517" x2="116.825" y1="406.309" y2="406.309" gradientUnits="userSpaceOnUse"><stop offset="0" stop-color="#545652"/><stop offset=".286" stop-color="#888A85"/><stop offset=".635" stop-color="#888A85"/><stop offset="1" stop-color="#545652"/></linearGradient><path fill="url(#F)" d="M116.58 403.83c0 .1-.16.5-.16.5l-.23.45c-.66 1.3-2.82 2-5.03 2-2.22 0-4.38-.7-5.03-2 0 0-.2-.38-.2-.48-.32 0-.03 1.7 0 1.93 0 .1.2.47.2.47.6 1.1 2.32 1.88 4.2 2.05.28.03.55.04.83.04 2.2 0 4.37-.8 5.02-2.1l.2-.47s.18-.4.18-.48c.05-.23.33-1.92 0-1.92zm-1.2 3.56c-.98.7-2.6 1.18-4.2 1.18-1.62 0-3.25-.5-4.24-1.2-1.38-1.15-.43-1.88.36-1.33 1 .56 2.44.9 3.87.9 1.42 0 2.86-.34 3.86-.9.8-.55 1.75.18.36 1.34z" enable-background="new" ns:knockout="Off" ns:isolated="yes"/><linearGradient x1="105.517" x2="116.825" y1="406.136" y2="406.136" gradientUnits="userSpaceOnUse"><stop offset="0" stop-color="#545652"/><stop offset=".286" stop-color="#888A85"/><stop offset=".635" stop-color="#888A85"/><stop offset="1" stop-color="#545652"/></linearGradient><path fill="url(#G)" d="M116.2 403.78l-.13.4-.2.4c-.55 1.07-2.47 1.8-4.7 1.8s-4.16-.73-4.7-1.8c0 0-.4-.9-.4-.9l-.5.4c-.08.12-.3.43 0 2.22 0-.07.25.6.25.6.62 1.17 2.4 2.06 4.5 2.25 0 0 .85.04.85.04 2.1 0 4.55-.72 5.35-2.3l.2-.5c0 .02.24-.65.24-.65.3-1.72.08-2.02 0-2.14l-.42-.52-.33.7zm.06 1.56c0 .12-.02.2-.04.34 0 0-.16.35-.16.35l-.22.5c-.53 1.07-2.5 1.86-4.67 1.86l-.8-.05c-1.83-.17-3.4-.9-3.9-1.85l-.16-.34c-.02-.22-.05-.4-.07-.6 1.08 1.2 3.24 1.63 4.94 1.63 1.8 0 4.1-.5 5.1-1.86z" ns:knockout="Off"/><linearGradient x1="105.517" x2="116.824" y1="407.217" y2="407.217" gradientUnits="userSpaceOnUse"><stop offset="0" stop-color="#545652"/><stop offset=".286" stop-color="#888A85"/><stop offset=".635" stop-color="#888A85"/><stop offset="1" stop-color="#545652"/></linearGradient><path fill="url(#H)" d="M106 405.83c-.12.2-.45.9.7 1.88 1.12.8 2.86 1.28 4.47 1.28 1.6 0 3.35-.5 4.43-1.25l.03-.02c1.16-.97.82-1.68.7-1.87-.3-.44-.97-.5-1.5-.12-.94.53-2.32.85-3.66.85-1.35 0-2.73-.32-3.7-.86-.5-.36-1.16-.3-1.46.13zm1.14 1.23c-.53-.45-.54-.73-.52-.76.02-.04.23-.1.48.08 1.1.62 2.6.97 4.07.97 1.46 0 2.97-.35 4.03-.95.3-.2.5-.14.52-.1 0 0 0 0 0 .02 0 .08-.08.35-.55.75-.97.67-2.54 1.1-4 1.1-1.48 0-3.06-.43-4.03-1.1z" ns:knockout="Off"/></g><path fill="url(#I)" d="M27.83-14.65c1.12 0 2.2-.37 2.54-1.03l.12-.23.07-.27c.02-.1.17-.98 0-.98l-.16.45c-.32.66-1.45 1.03-2.57 1.03-1.12 0-2.25-.37-2.57-1.03l-.16-.45c-.17 0-.03.87 0 .98 0 .05.1.25.1.25 0 .05.1.24.1.24.32.66 1.4 1.03 2.53 1.03zm-1.95-1.38c.5.28 1.23.46 1.95.46s1.45-.18 1.96-.46c.38-.3.87.13.17.73-.5.36-1.33.56-2.14.56-.8 0-1.63-.2-2.13-.56-.7-.6-.22-1.02.18-.73z" ns:isolated="yes" ns:knockout="Off" enable-background="new" transform="translate(-3.75 28.5)"/><path fill="url(#J)" d="M24.9-17.26c-.03.06-.15.2 0 1.13 0-.04.13.3.13.3-.02-.1.1.25.1.25.4.84 1.7 1.14 2.7 1.14 1 0 2.3-.3 2.7-1.14l.12-.23.1-.3c.17-.95.05-1.1 0-1.16l-.2-.27-.16.3-.17.45c-.25.5-1.27.9-2.4.9s-2.14-.4-2.4-.92l-.28-.75-.24.3zm.56 1.5c0-.02-.08-.2-.08-.2-.02-.06-.1-.24-.1-.24 0-.1-.02-.16-.03-.23.5.65 1.6.96 2.58.96 1 0 2.1-.3 2.6-.95-.02.07-.03.14-.04.22l-.1.23-.1.2c-.26.54-1.24.92-2.37.92-1.12 0-2.1-.38-2.37-.92z" ns:knockout="Off" transform="translate(-3.75 28.5)"/><path fill="url(#K)" d="M25.23-16.13c-.14.2-.12.58.35 1 .53.37 1.4.6 2.25.6.87 0 1.72-.23 2.24-.6.5-.42.5-.8.37-1-.16-.23-.5-.27-.76-.07-.47.26-1.17.43-1.85.43-.68 0-1.37-.17-1.86-.44H26c-.28-.2-.6-.16-.77.07zm.57.66c-.26-.23-.28-.4-.26-.42.02-.02.12-.04.24.04.55.3 1.3.5 2.05.5.74 0 1.5-.2 2.04-.5.13-.08.24-.06.26-.03.02.04 0 .2-.28.44-.45.3-1.23.52-2.02.52-.8 0-1.57-.2-2.03-.53z" ns:knockout="Off" transform="translate(-3.75 28.5)"/><path fill="url(#L)" d="M30.47-14.94l-.1.25c-.33.67-1.42 1.08-2.54 1.08-.13 0-.27 0-.4-.02-.96-.1-1.84-.48-2.13-1.05-.17 0-.02 1.33 0 1.45.32.66 1.42 1.07 2.53 1.07 1.12 0 2.2-.4 2.54-1.07.02-.12.27-1.7.1-1.7zm-.6 1.97c-.52.35-1.23.52-2.04.52-.8 0-1.52-.17-2.02-.52-.7-.6-.32-1.3.08-1.02.5.3 1.23.47 1.95.47s1.45-.17 1.96-.46c.38-.27.75.43.06 1.03z" enable-background="new" ns:knockout="Off" ns:isolated="yes" transform="translate(-3.75 28.5)"/><path fill="url(#M)" d="M30.3-15.02l-.1.25c-.27.54-1.27.94-2.37.94h-.4c-.92-.1-1.72-.48-1.97-.96l-.14-.25-.2.24c-.2.26 0 1.57 0 1.58v.06c.4.82 1.66 1.18 2.7 1.18 1.07 0 2.32-.36 2.72-1.18v-.02l.02-.04c.06-.37.26-1.6.08-1.83l-.2-.26-.14.28zm.02.7c-.03.33-.1.74-.13.98-.3.55-1.28.95-2.37.95-1.08 0-2.07-.38-2.35-.93-.03-.16-.07-.6-.07-.92.43.43 1.16.74 2 .82 0 0 .43.02.43.02.93 0 1.97-.3 2.5-.93z" ns:knockout="Off" transform="translate(-3.75 28.5)"/><path fill="url(#N)" d="M25.33-14.05c-.2.3-.13.8.36 1.24.52.36 1.26.56 2.13.56.88 0 1.62-.2 2.13-.56.5-.44.57-.96.37-1.25-.15-.23-.42-.28-.65-.1-.47.26-1.17.42-1.85.42-.68 0-1.37-.16-1.86-.44-.22-.16-.48-.1-.64.12zm.58.9c-.3-.26-.33-.55-.26-.66 0-.03.05-.08.14-.02.55.32 1.3.5 2.05.5.74 0 1.5-.18 2.04-.5.1-.06.14 0 .16 0 .02.04.03.08.03.14 0 .14-.1.34-.32.54-.45.32-1.1.5-1.9.5-.8 0-1.47-.18-1.93-.5z" ns:knockout="Off" transform="translate(-3.75 28.5)"/><path fill="url(#O)" d="M29.6-17.25c-.52.57-.92.9-1.77.9-.84 0-1.27-.35-1.76-.9.1-.13 1.13.32 1.75.32.63 0 1.66-.46 1.78-.32z" ns:knockout="Off" transform="translate(-3.75 28.5)"/><g><path fill="#545652" d="M22.76 10.36v.72l.1.12c.1.1.2.2.36.27 0 .13 0 .3 0 .3h.37v-.64h-.2c-.1 0-.18-.1-.26-.2 0 0 0-.02 0-.02 0-.1 0-.54 0-.54h-.38z" ns:knockout="Off"/></g><g><path fill="#545652" d="M24.95 10.36s0 .43 0 .55c0 0 0 .02 0 .02-.1.1-.18.2-.28.2h-.18v.64h.36s0-.16 0-.3c.15-.06.28-.17.36-.26l.1-.12v-.72h-.37z" ns:knockout="Off"/></g></g><path fill="url(#P)" fill-rule="evenodd" d="M41.9 44.42a18.56 3.58 0 1 1-37.13 0 18.56 3.58 0 1 1 37.13 0z" transform="matrix(.781 0 0 .782 5.465 10.761)" overflow="visible"/><path fill="#c4c5c2" stroke="url(#Q)" stroke-width="1.5" stroke-miterlimit="2" d="M37.4 30.83c.38.6 1.1 1.97 1.1 2.7 0 1.52-1 2.8-2.4 3.5.17.47.34.95.34 1.47 0 2.5-2.3 4.54-5.13 4.54-.84 0-1.6-.24-2.32-.57-.63 1.88-2.5 3.3-4.84 3.3-2.33 0-4.2-1.42-4.84-3.3-.7.33-1.48.57-2.33.57-2.83 0-5.13-2.03-5.13-4.54 0-.52.17-1 .35-1.47-1.4-.7-2.4-1.98-2.4-3.5 0-.83.26-2.74.68-3.43-.45-.64-.68-1.34-.68-2.1 0-1.52 1-2.8 2.4-3.5-.18-.47-.35-.95-.35-1.48 0-2.5 2.3-4.53 5.13-4.53.86 0 1.62.23 2.34.56.62-1.88 2.5-3.3 4.83-3.3s4.2 1.42 4.84 3.3c.7-.33 1.47-.57 2.33-.57 2.82 0 5.12 2.02 5.12 4.52 0 .53-.17 1-.35 1.48 1.4.7 2.4 1.98 2.4 3.5 0 .7-.74 2.26-1.1 2.83z"/><g><path fill="#c4c5c2" d="M27.8 20.07a3.63 3.2 0 1 1-7.25 0 3.63 3.2 0 1 1 7.25 0z"/><path fill="url(#R)" d="M291.7-437.6a3.3 3.3 0 1 1-6.64 0 3.3 3.3 0 1 1 6.63 0z" transform="matrix(1.095 0 0 .969 -291.589 444.099)"/></g><path fill="#c4c5c2" d="M14.32 22.5h20.73v8.26H14.32z"/><path fill="#c4c5c2" d="M17.43 28a3.1 2.75 0 1 1-6.22 0 3.1 2.75 0 1 1 6.23 0z"/><g><path fill="#c4c5c2" d="M35.05 22.82a3.63 3.2 0 1 1-7.25 0 3.63 3.2 0 1 1 7.25 0z"/><path fill="url(#S)" d="M291.7-437.6a3.3 3.3 0 1 1-6.64 0 3.3 3.3 0 1 1 6.63 0z" transform="matrix(1.095 0 0 .969 -284.337 446.85)"/></g><g><path fill="#c4c5c2" d="M20.55 22.82a3.63 3.2 0 1 1-7.26 0 3.63 3.2 0 1 1 7.25 0z"/><path fill="url(#T)" d="M291.7-437.6a3.3 3.3 0 1 1-6.64 0 3.3 3.3 0 1 1 6.63 0z" transform="matrix(1.095 0 0 .969 -298.841 446.85)"/></g><g><path fill="#c4c5c2" d="M23.1 19.8c-3.7 0-6.7 2.66-6.7 5.95 0 2.17 1.4 3.97 3.36 5h6.7c1.97-1.03 3.37-2.86 3.37-5.03 0-3.28-3.03-5.93-6.74-5.93z"/><path fill="url(#U)" d="M280.5-441c-3.6 0-6.5 2.9-6.5 6.5 0 2.38 1.34 4.37 3.25 5.5h6.5c1.9-1.13 3.25-3.12 3.25-5.5 0-3.6-2.9-6.5-6.5-6.5z" transform="matrix(1.036 0 0 .917 -267.557 424.051)"/></g><path fill="url(#V)" d="M291.7-437.6a3.3 3.3 0 1 1-6.64 0 3.3 3.3 0 1 1 6.63 0z" transform="matrix(.939 0 0 .83 -256.333 391.333)"/><g><path fill="#c4c5c2" d="M31.82 27.1a4.14 3.67 0 1 1-8.3 0 4.14 3.67 0 1 1 8.3 0z"/><path fill="url(#W)" d="M291.7-437.6a3.3 3.3 0 1 1-6.64 0 3.3 3.3 0 1 1 6.63 0z" transform="matrix(1.251 0 0 1.108 -333.067 511.53)"/></g><g><path fill="#c4c5c2" d="M27.8 41.52c0-2.47-3.03-4-5.45-2.78-1.12.57-1.82 1.63-1.82 2.78 0 2.47 3.03 4.02 5.45 2.78 1.12-.57 1.8-1.63 1.8-2.78z"/><path fill="url(#X)" d="M291.7-437.6a3.3 3.3 0 1 1-6.64 0 3.3 3.3 0 1 1 6.63 0z" transform="matrix(1.095 0 0 -.969 -291.602 -382.513)"/></g><path fill="#c4c5c2" d="M14.3 39.08h20.73v-8.25H14.3z"/><path fill="#c4c5c2" d="M17.42 33.58c0-2.12-2.6-3.44-4.67-2.38-.96.5-1.55 1.4-1.55 2.38 0 2.1 2.6 3.44 4.66 2.38.96-.5 1.56-1.4 1.56-2.38z"/><g><path fill="#c4c5c2" d="M35.04 38.77c0-2.47-3.02-4-5.44-2.78-1.12.56-1.8 1.62-1.8 2.77 0 2.47 3 4.02 5.43 2.78 1.12-.57 1.8-1.63 1.8-2.78z"/><path fill="url(#Y)" d="M291.7-437.6a3.3 3.3 0 1 1-6.64 0 3.3 3.3 0 1 1 6.63 0z" transform="matrix(1.095 0 0 -.969 -284.35 -385.264)"/></g><g><path fill="#c4c5c2" d="M20.53 38.77c0-2.47-3.02-4-5.44-2.78-1.13.56-1.82 1.62-1.82 2.77 0 2.47 3.02 4.02 5.44 2.78 1.12-.57 1.8-1.63 1.8-2.78z"/><path fill="url(#Z)" d="M291.7-437.6a3.3 3.3 0 1 1-6.64 0 3.3 3.3 0 1 1 6.63 0z" transform="matrix(1.095 0 0 -.969 -298.854 -385.264)"/></g><g><path fill="#c4c5c2" d="M23.08 41.8c-3.7 0-6.7-2.68-6.7-5.96 0-2.17 1.4-3.98 3.37-5h6.7c1.97 1.02 3.37 2.86 3.37 5.03 0 3.28-3.03 5.93-6.74 5.93z"/><path fill="url(#aa)" d="M280.5-441c-3.6 0-6.5 2.9-6.5 6.5 0 2.38 1.34 4.37 3.25 5.5h6.5c1.9-1.13 3.25-3.12 3.25-5.5 0-3.6-2.9-6.5-6.5-6.5z" transform="matrix(1.036 0 0 -.917 -267.569 -362.465)"/></g><path fill="url(#ab)" d="M291.7-437.6a3.3 3.3 0 1 1-6.64 0 3.3 3.3 0 1 1 6.63 0z" transform="matrix(.939 0 0 -.83 -256.345 -329.746)"/><g><path fill="#c4c5c2" d="M29.03 32.63c0-2.82-3.46-4.6-6.22-3.17-1.27.65-2.06 1.86-2.06 3.17 0 2.82 3.45 4.6 6.22 3.18 1.28-.65 2.07-1.86 2.07-3.17z"/><path fill="url(#ac)" d="M291.7-437.6a3.3 3.3 0 1 1-6.64 0 3.3 3.3 0 1 1 6.63 0z" transform="matrix(1.251 0 0 -1.108 -335.863 -451.791)"/></g><g><path fill="#c4c5c2" d="M35.58 30.6c0-2.8-3.46-4.57-6.22-3.16-1.28.65-2.07 1.86-2.07 3.17 0 2.84 3.44 4.6 6.2 3.2 1.3-.67 2.08-1.88 2.08-3.2z"/><path fill="url(#ad)" d="M291.7-437.6a3.3 3.3 0 1 1-6.64 0 3.3 3.3 0 1 1 6.63 0z" transform="matrix(1.251 0 0 -1.108 -329.314 -453.809)"/></g><path fill="url(#ae)" stroke="#fff" stroke-opacity=".502" stroke-miterlimit="2" d="M11.48 30.18c-.68.67-.8 2.4-.8 3.4 0 1.3 1.1 2.42 2.4 3.06-.17.43-.43 1-.43 1.48 0 2.28 1.87 4.04 4.56 4.04.8 0 1.8-.5 2.47-.8.66 2.2 2.1 3.56 4.27 3.56 2.16 0 3.8-1.4 4.45-3.53.65.3 1.88.78 2.68.78 2.63 0 4.3-1.78 4.3-4.06 0-.48-.27-1.15-.45-1.58 1.3-.64 2.4-1.58 2.4-2.97 0-.92-.57-1.7-1.2-2.77.6-1.1 1.22-2.03 1.22-3 0-1.38-1.1-2.33-2.4-2.96.17-.43.45-1.1.45-1.58 0-2.28-2.1-4-4.7-4-.8 0-1.64.43-2.3.73-.64-2.13-2.22-3.36-4.38-3.36-2.16 0-3.68 1.17-4.34 3.37-.66-.3-1.53-.72-2.33-.72-2.68 0-4.7 1.7-4.7 3.98 0 .48.27 1.17.45 1.6-1.3.63-2.4 1.65-2.4 2.95 0 .97.14 1.72.78 2.38z"/><path fill="#9fa19d" fill-rule="evenodd" d="M36.77 23.7c0 2.4-3.3 3.33-3.3 3.33s2.37-1.46 2.36-3.32c0 0 .94 0 .94 0z"/><path fill="#363734" fill-rule="evenodd" d="M29.46 43.2c-2.6-.43-3.03-4.2-3.03-4.2s1.16 2.85 3.18 3.17c0 0-.14 1.03-.14 1.03z"/><path fill="#565854" fill-rule="evenodd" d="M36.03 37.65c-2.57.65-4.45-2.63-4.45-2.63s2.2 2.14 4.18 1.62c0 0 .27 1 .27 1z"/></g></svg>