<svg xmlns="http://www.w3.org/2000/svg" width="48" height="48" xmlns:xlink="http://www.w3.org/1999/xlink" version="1"><defs><linearGradient id="e"><stop offset="0"/><stop offset="1" stop-opacity="0"/></linearGradient><linearGradient id="d"><stop offset="0"/><stop offset="1" stop-opacity="0"/></linearGradient><linearGradient id="c"><stop offset="0" stop-color="#fff"/><stop offset="1" stop-color="#fff" stop-opacity="0"/></linearGradient><linearGradient id="b"><stop offset="0" stop-color="#5b90c8"/><stop offset=".316" stop-color="#8fb0d1"/><stop offset="1" stop-color="#34679d"/></linearGradient><linearGradient id="a"><stop offset="0" stop-color="#729fcf"/><stop offset=".316" stop-color="#a5bfda"/><stop offset="1" stop-color="#376ca4"/></linearGradient><linearGradient><stop offset="0"/><stop offset="1" stop-color="#c9c9c9"/></linearGradient><linearGradient><stop offset="0" stop-color="#c1c1c1"/><stop offset="1" stop-color="#acacac"/></linearGradient><linearGradient><stop offset="0" stop-color="#ffd1d1"/><stop offset=".5" stop-color="#ff1d1d"/><stop offset="1" stop-color="#6f0000"/></linearGradient><linearGradient><stop offset="0" stop-color="#fff"/><stop offset=".329" stop-color="#fff" stop-opacity=".69"/><stop offset=".658" stop-color="#c2c2c2" stop-opacity=".34"/><stop offset="1" stop-color="#fff" stop-opacity="0"/></linearGradient><linearGradient><stop offset="0" stop-color="#959791"/><stop offset=".5" stop-color="#f8f8f8"/><stop offset="1" stop-color="#8c8c8c"/></linearGradient><linearGradient><stop offset="0" stop-color="#f5f5f5" stop-opacity=".09"/><stop offset=".263" stop-color="#fff" stop-opacity=".9"/><stop offset=".748" stop-color="#c7c7c7" stop-opacity=".46"/><stop offset="1" stop-color="#fff" stop-opacity=".78"/></linearGradient><linearGradient x1="28.245" x2="28.245" y1="60.446" y2="68.225" xlink:href="#a" gradientUnits="userSpaceOnUse" gradientTransform="matrix(-.493 -.717 .717 -.493 -9.268 79.419)"/><linearGradient x1="28.245" x2="28.245" y1="60.446" y2="68.225" xlink:href="#b" gradientUnits="userSpaceOnUse" gradientTransform="matrix(-.493 -.717 .717 -.493 -9.268 79.419)"/><linearGradient x1="28.245" x2="28.245" y1="60.446" y2="68.225" xlink:href="#a" gradientUnits="userSpaceOnUse" gradientTransform="matrix(-.493 -.717 .717 -.493 -9.268 79.419)"/><linearGradient x1="55.876" x2="38.061" y1="62.402" y2="62.827" xlink:href="#c" gradientUnits="userSpaceOnUse" gradientTransform="matrix(-.493 -.717 .717 -.493 -9.268 79.419)"/><linearGradient x1="2.875" x2="12.875" y1="23.625" y2="11.125" xlink:href="#d" gradientUnits="userSpaceOnUse"/><linearGradient x1="14.431" x2="8.198" y1="19.955" y2="13.484" xlink:href="#e" gradientUnits="userSpaceOnUse" gradientTransform="matrix(1.405 .19 -.176 1.219 -1.266 -13.659)"/></defs><g><path fill="none" stroke="#ef2929" d="M30.5 36.34V48.6"/><path fill="none" stroke="#ef2929" d="M17.33-.06l.17 9.46"/><path fill="none" stroke="#ef2929" d="M3.5 12.92v22.25"/><path fill="none" stroke="#ef2929" d="M44.5 12.8v22.24"/><path fill="none" stroke="#eeeeec" stroke-width="4" d="M3.44 21.52c14.5-18.42 27.43 23.44 41.62 1.5"/><path fill="none" stroke="#000" stroke-width="2" d="M3.25 21.5C17.77 3.08 30.68 44.94 44.87 23"/><path fill="#babdb6" fill-rule="evenodd" stroke="#2e3436" stroke-width="1.0044" d="M5.87 21.62a2.62 2.62 0 1 1-5.25 0 2.62 2.62 0 1 1 5.25 0z" color="#000" overflow="visible"/><path fill="#babdb6" fill-rule="evenodd" stroke="#2e3436" stroke-width="1.0044" d="M47.37 23a2.62 2.62 0 1 1-5.24 0 2.62 2.62 0 1 1 5.24 0z" color="#000" overflow="visible"/><path fill="#babdb6" fill-rule="evenodd" stroke="#2e3436" stroke-width="1.0044" d="M20.25 4.13a2.62 2.62 0 1 1-5.25 0 2.62 2.62 0 1 1 5.25 0z" color="#000" overflow="visible"/><path fill="#babdb6" fill-rule="evenodd" stroke="#2e3436" stroke-width="1.0044" d="M33.37 44a2.62 2.62 0 1 1-5.24 0 2.62 2.62 0 1 1 5.24 0z" color="#000" overflow="visible"/><path fill="none" stroke="#ef2929" d="M4 32.58h40" stroke-dasharray="1,1"/><path fill="none" stroke="#eeeeec" stroke-width="3" d="M12.08 10.35a11.58 12.83 0 0 1 5.9 11.23" color="#000" overflow="visible"/><path fill="none" stroke="#ef2929" d="M26.44 21.5H2.14L20.92.33"/><path fill="none" stroke="#ef2929" d="M12.12 10.16A11.58 12.83 0 0 1 18 21.4" color="#000" stroke-dasharray="1, 1" overflow="visible"/><path fill="none" stroke="#ef2929" d="M44.33.06l.17 9.2"/><path fill="none" stroke="#eeeeec" stroke-width="4.512" d="M12.12 9.83A11.58 12.83 0 0 1 18 21.06" transform="matrix(-.653 0 0 -.677 46.249 38.123)" color="#000" overflow="visible"/><path fill="none" stroke="#ef2929" d="M32.45 23.5H44.5L27.98 47.92"/><path fill="none" stroke="#ef2929" stroke-width="1.504" d="M12.12 9.83A11.58 12.83 0 0 1 18 21.06" transform="matrix(-.653 0 0 -.677 46.037 37.759)" color="#000" stroke-dasharray="1.50407652, 1.50407652" overflow="visible"/></g></svg>