<svg xmlns="http://www.w3.org/2000/svg" width="48" height="48"><defs><radialGradient id="a" cx="4.542" cy="216.083" r="48.903" gradientUnits="userSpaceOnUse" fy="216.083" fx="4.542" gradientTransform="matrix(1.053 0 0 1.053 -1.456 -212.489)"><stop offset="0" stop-color="#fff"/><stop offset="1" stop-color="#8794A0"/></radialGradient><radialGradient id="b" cx="22.909" cy="208.947" r="25.779" gradientUnits="userSpaceOnUse" fy="208.947" fx="22.909" gradientTransform="matrix(1.053 0 0 1.053 -1.456 -212.489)"><stop offset="0" stop-color="#fff"/><stop offset="1" stop-color="#8794A0"/></radialGradient><radialGradient id="c" cx="43.724" cy="240.432" r="24.058" gradientUnits="userSpaceOnUse" fy="240.432" fx="43.724" gradientTransform="matrix(1.053 0 0 1.053 -1.456 -212.489)"><stop offset="0" stop-color="#CCD0D3"/><stop offset="1" stop-color="#8794A0"/></radialGradient></defs><g><path fill="#eeeeec" fill-opacity=".519" stroke="#949aa1" stroke-width=".8" d="M32.76 34.8c8.26-.98 14.67-8 14.67-16.55C47.43 9.05 40 1.6 30.8 1.6c-7.08 0-13.13 4.43-15.53 10.68L.85 16.9l1.5 19.08L14.9 46.7l17.7-8.6.2-4.06" color="#000" overflow="visible"/><path fill="none" stroke="#949aa1" stroke-width=".79695" d="M.85 16.9l13.57 9.32.5 20.48"/><path fill="url(#a)" d="M29.56 20.38l4.13-1.72-14.53-7.8-3.9 1.4c-1.38 4.52 4.87 7.4 14.3 8.12z"/><path fill="url(#b)" d="M32.8 34.04c-1 .22-2.02.33-3.06.33-8.76 0-15.86-7.1-15.86-15.86 0-2.28.52-4.25 1.4-6.23-1.4 4.5 4.86 7.4 14.28 8.1-1.84 3.42-3.37 11.65 3.24 13.67z"/><path fill="url(#c)" d="M32.8 34.04c-6.6-2.02-5.08-10.25-3.24-13.66l4.13-1.72-.9 15.38z"/><path fill="none" stroke="#77818c" stroke-width=".8" d="M32.8 34.04c-6.6-2.02-5.08-10.25-3.24-13.66"/><path fill="none" stroke="#c7d5d6" stroke-width=".8" d="M29.56 20.38l4.13-1.72"/><path fill="none" stroke="#f7f7f7" stroke-width=".8" d="M15.27 12.27c-1.38 4.5 4.87 7.4 14.3 8.1"/><path fill="none" stroke="#192333" stroke-width=".8" d="M32.8 34.04l.9-15.38-14.53-7.8-3.9 1.4c-.88 2-1.4 3.96-1.4 6.25 0 8.77 7.1 15.87 15.87 15.87 1.04 0 2.06-.1 3.06-.33z"/><path fill="none" stroke="#949aa1" stroke-width=".8" d="M14.42 26.22l.83-.32"/></g></svg>