<svg xmlns="http://www.w3.org/2000/svg" width="48" height="48"><defs><radialGradient id="b" cx="926.788" cy="446.142" r="12.441" gradientUnits="userSpaceOnUse" gradientTransform="matrix(0 1 1 0 641.588 -676.85)" fy="446.142" fx="926.788"><stop offset="0" stop-color="#fff"/><stop offset=".685" stop-color="#2E659E"/><stop offset="1" stop-color="#1D3E63"/></radialGradient><radialGradient id="a" cx="924.068" cy="447.908" r="7.057" gradientUnits="userSpaceOnUse" gradientTransform="matrix(0 -1 1 0 641.588 1176.364)" fy="447.908" fx="924.068"><stop offset="0" stop-color="#fff"/><stop offset=".09" stop-color="#DBE8F2"/><stop offset=".248" stop-color="#A2C3DE"/><stop offset=".395" stop-color="#75A6CD"/><stop offset=".525" stop-color="#5591C2"/><stop offset=".634" stop-color="#4185BB"/><stop offset=".708" stop-color="#3A80B8"/><stop offset="1" stop-color="#244A87"/></radialGradient><linearGradient id="e" x1="1084.118" x2="1091.154" y1="259.901" y2="275.02" gradientUnits="userSpaceOnUse"><stop offset=".006" stop-color="#fff"/><stop offset=".517" stop-color="#F3907D"/><stop offset="1" stop-color="#ED2728"/></linearGradient><linearGradient id="d" x1="1083.192" x2="1088.992" y1="264.299" y2="269.528" gradientUnits="userSpaceOnUse"><stop offset="0" stop-color="#F8C9CA"/><stop offset=".066" stop-color="#F4B6B1"/><stop offset=".201" stop-color="#E88879"/><stop offset=".389" stop-color="#D74433"/><stop offset=".539" stop-color="#CB1009"/><stop offset=".656" stop-color="#CE120B"/><stop offset=".787" stop-color="#D61612"/><stop offset=".925" stop-color="#E31F1F"/><stop offset="1" stop-color="#ED2728"/></linearGradient><linearGradient id="c" x1="1098.989" x2="1086.432" y1="263.594" y2="260.081" gradientUnits="userSpaceOnUse"><stop offset=".006" stop-color="#FBD9CE"/><stop offset=".07" stop-color="#F8BAA9"/><stop offset=".164" stop-color="#F49280"/><stop offset=".266" stop-color="#F17060"/><stop offset=".373" stop-color="#EF554A"/><stop offset=".489" stop-color="#EE413A"/><stop offset=".618" stop-color="#EE3230"/><stop offset=".77" stop-color="#ED2A2A"/><stop offset="1" stop-color="#ED2728"/></linearGradient><linearGradient id="j" x1="1067.668" x2="1079.122" y1="257.856" y2="257.856" gradientUnits="userSpaceOnUse"><stop offset="0" stop-color="#fff"/><stop offset=".065" stop-color="#EDF3EC"/><stop offset=".197" stop-color="#C0D3BB"/><stop offset=".383" stop-color="#779F6D"/><stop offset=".539" stop-color="#357126"/><stop offset=".707" stop-color="#387627"/><stop offset=".895" stop-color="#3F8429"/><stop offset="1" stop-color="#45902B"/></linearGradient><linearGradient id="i" x1="1066.604" x2="1080.598" y1="265.307" y2="261.301" gradientUnits="userSpaceOnUse"><stop offset="0" stop-color="#fff"/><stop offset=".039" stop-color="#F2F8EF"/><stop offset=".178" stop-color="#C6E0B9"/><stop offset=".319" stop-color="#A1CB8C"/><stop offset=".459" stop-color="#83BA66"/><stop offset=".597" stop-color="#6BAD49"/><stop offset=".734" stop-color="#5AA335"/><stop offset=".869" stop-color="#509E28"/><stop offset="1" stop-color="#4D9C24"/></linearGradient><linearGradient id="h" x1="1069.906" x2="1066.69" y1="263.386" y2="251.441" gradientUnits="userSpaceOnUse"><stop offset="0" stop-color="#EFEEEC"/><stop offset="1" stop-color="#709E2E"/></linearGradient><linearGradient id="g" x1="1067.455" x2="1074.735" y1="257.612" y2="255.492" gradientUnits="userSpaceOnUse"><stop offset="0" stop-color="#fff"/><stop offset=".065" stop-color="#EDF3EC"/><stop offset=".197" stop-color="#C0D3BB"/><stop offset=".383" stop-color="#779F6D"/><stop offset=".539" stop-color="#357126"/><stop offset=".707" stop-color="#387627"/><stop offset=".895" stop-color="#3F8429"/><stop offset="1" stop-color="#45902B"/></linearGradient><linearGradient id="f" x1="1073.559" x2="1073.047" y1="262.188" y2="269.104" gradientUnits="userSpaceOnUse"><stop offset=".006" stop-color="#357126"/><stop offset=".186" stop-color="#387627"/><stop offset=".388" stop-color="#3F8429"/><stop offset=".5" stop-color="#45902B"/><stop offset="1" stop-color="#fff"/></linearGradient></defs><g><g><path fill="none" stroke="#3065a0" stroke-width=".6996000000000001" d="M3.13 7l24.82-5.4 16.9 9.78-2.4 25.44-24.6 9.62L5.2 31.24 3.14 7z"/></g><path fill="none" stroke="#3065a0" stroke-width=".8" d="M27.95 1.6v23.66"/><path fill="none" stroke="#3065a0" stroke-width=".8" d="M27.95 25.26l-22.74 6"/><path fill="none" stroke="#3065a0" stroke-width=".8" d="M42.46 36.82l-14.5-11.56"/><g transform="matrix(1.169 0 0 1.169 -1244.953 -283.936)"><circle cx="1090.647" cy="254.133" r="5.022" fill="none" stroke="#152a4c" stroke-width="1.711"/><radialGradient cx="924.068" cy="447.908" r="7.057" gradientUnits="userSpaceOnUse" gradientTransform="matrix(0 -1 1 0 641.588 1176.364)" fy="447.908" fx="924.068"><stop offset="0" stop-color="#fff"/><stop offset=".09" stop-color="#DBE8F2"/><stop offset=".248" stop-color="#A2C3DE"/><stop offset=".395" stop-color="#75A6CD"/><stop offset=".525" stop-color="#5591C2"/><stop offset=".634" stop-color="#4185BB"/><stop offset=".708" stop-color="#3A80B8"/><stop offset="1" stop-color="#244A87"/></radialGradient><circle cx="1090.647" cy="254.133" r="5.022" fill="url(#a)"/><g><radialGradient cx="926.788" cy="446.142" r="12.441" gradientUnits="userSpaceOnUse" gradientTransform="matrix(0 1 1 0 641.588 -676.85)" fy="446.142" fx="926.788"><stop offset="0" stop-color="#fff"/><stop offset=".685" stop-color="#2E659E"/><stop offset="1" stop-color="#1D3E63"/></radialGradient><path fill="url(#b)" d="M1085.62 254.13c0 1.34.52 2.6 1.47 3.55.94.95 2.2 1.48 3.55 1.48 1.34 0 2.6-.53 3.55-1.48.95-.94 1.47-2.2 1.47-3.55 0-2.77-2.25-5.02-5.02-5.02-2.78 0-5.03 2.26-5.03 5.03zm9.54 0c0 1.2-.47 2.34-1.32 3.2-.86.84-2 1.3-3.2 1.3-1.2 0-2.33-.46-3.18-1.3-.86-.86-1.33-2-1.33-3.2 0-2.5 2.03-4.5 4.52-4.5 2.48 0 4.5 2 4.5 4.5z"/></g></g><g transform="matrix(1.061 0 0 1.061 -1124.315 -253.33)"><path fill="none" stroke="#400708" stroke-width="1.884" d="M1087.8 258.15l-7.94 11.8c-.37.54.02 1.62.93 2.48.84.8 1.84 1.14 2.4.87l12.02-8.14.15-.1c.65-.7-.5-2.8-2.57-4.76-2.07-1.94-4.26-2.97-4.9-2.28l-.1.13z"/><linearGradient x1="1098.989" x2="1086.432" y1="263.594" y2="260.081" gradientUnits="userSpaceOnUse"><stop offset=".006" stop-color="#FBD9CE"/><stop offset=".07" stop-color="#F8BAA9"/><stop offset=".164" stop-color="#F49280"/><stop offset=".266" stop-color="#F17060"/><stop offset=".373" stop-color="#EF554A"/><stop offset=".489" stop-color="#EE413A"/><stop offset=".618" stop-color="#EE3230"/><stop offset=".77" stop-color="#ED2A2A"/><stop offset="1" stop-color="#ED2728"/></linearGradient><path fill="url(#c)" d="M1087.9 258.02c-.64.68.5 2.8 2.57 4.75 2.07 1.94 4.26 2.97 4.9 2.3.65-.7-.5-2.82-2.57-4.77-2.07-1.94-4.26-2.97-4.9-2.28z"/><linearGradient x1="1083.192" x2="1088.992" y1="264.299" y2="269.528" gradientUnits="userSpaceOnUse"><stop offset="0" stop-color="#F8C9CA"/><stop offset=".066" stop-color="#F4B6B1"/><stop offset=".201" stop-color="#E88879"/><stop offset=".389" stop-color="#D74433"/><stop offset=".539" stop-color="#CB1009"/><stop offset=".656" stop-color="#CE120B"/><stop offset=".787" stop-color="#D61612"/><stop offset=".925" stop-color="#E31F1F"/><stop offset="1" stop-color="#ED2728"/></linearGradient><path fill="url(#d)" d="M1095.22 265.16l-12.02 8.14c-.56.27-1.57-.07-2.4-.87-.92-.86-1.32-1.94-.94-2.5l7.93-11.78c-.42.8.7 2.8 2.65 4.62 1.94 1.82 4 2.84 4.77 2.4z"/><g><linearGradient x1="1084.118" x2="1091.154" y1="259.901" y2="275.02" gradientUnits="userSpaceOnUse"><stop offset=".006" stop-color="#fff"/><stop offset=".517" stop-color="#F3907D"/><stop offset="1" stop-color="#ED2728"/></linearGradient><path fill="url(#e)" d="M1088.45 257.8c-.24 0-.43.08-.55.2 0 .03-.1.15-.1.15-.03.02-7.94 11.8-7.94 11.8-.1.13-.14.3-.14.5 0 .6.4 1.36 1.07 1.98.93.88 1.9 1.1 2.4.87l12.02-8.14.18-.12.03-.03c.08-.1.13-.3.12-.5-.03-1-1.14-2.68-2.75-4.2-1.62-1.52-3.37-2.52-4.35-2.5zm4 2.87c1.48 1.4 2.58 3 2.6 3.84 0 0-.02.15-.02.2-.04.02-.1.05-.1.05l-11.98 8.1c-.24.13-1-.03-1.8-.78-.56-.52-.93-1.17-.93-1.62 0-.1.02-.17.06-.22 6.87-10.24 7.8-11.62 7.93-11.86 0 .05-.03.1-.03.1l.1-.12s.05-.04.2-.05c.83-.02 2.5.97 4 2.37z"/></g></g><g transform="matrix(1.061 0 0 1.061 -1124.315 -253.33)"><path fill="none" stroke="#202526" stroke-width="1.696" d="M1067.64 265.86v.05l1.28-17.07 10.1 13.76.1.2c.3.95-2.06 2.46-5.23 3.37-3.18.9-5.97.87-6.24-.1l-.02-.2z"/><linearGradient x1="1073.559" x2="1073.047" y1="262.188" y2="269.104" gradientUnits="userSpaceOnUse"><stop offset=".006" stop-color="#357126"/><stop offset=".186" stop-color="#387627"/><stop offset=".388" stop-color="#3F8429"/><stop offset=".5" stop-color="#45902B"/><stop offset="1" stop-color="#fff"/></linearGradient><path fill="url(#f)" d="M1067.66 266.08c.27.96 3.06 1 6.23.1 3.16-.92 5.5-2.43 5.23-3.4-.28-.94-3.07-.98-6.23-.07-3.17.9-5.52 2.43-5.24 3.38z"/><linearGradient x1="1067.455" x2="1074.735" y1="257.612" y2="255.492" gradientUnits="userSpaceOnUse"><stop offset="0" stop-color="#fff"/><stop offset=".065" stop-color="#EDF3EC"/><stop offset=".197" stop-color="#C0D3BB"/><stop offset=".383" stop-color="#779F6D"/><stop offset=".539" stop-color="#357126"/><stop offset=".707" stop-color="#387627"/><stop offset=".895" stop-color="#3F8429"/><stop offset="1" stop-color="#45902B"/></linearGradient><path fill="url(#g)" d="M1079.02 262.6c-.6-.77-3.2-.74-6.12.1-2.93.84-5.16 2.2-5.26 3.16v.05l1.28-17.07 10.1 13.76z"/><linearGradient x1="1069.906" x2="1066.69" y1="263.386" y2="251.441" gradientUnits="userSpaceOnUse"><stop offset="0" stop-color="#EFEEEC"/><stop offset="1" stop-color="#709E2E"/></linearGradient><path fill="url(#h)" d="M1068.92 248.83l1.38 14.83c-1.25.57-2.66 1.7-2.66 2.2l1.28-17.03z"/><g><linearGradient x1="1066.604" x2="1080.598" y1="265.307" y2="261.301" gradientUnits="userSpaceOnUse"><stop offset="0" stop-color="#fff"/><stop offset=".039" stop-color="#F2F8EF"/><stop offset=".178" stop-color="#C6E0B9"/><stop offset=".319" stop-color="#A1CB8C"/><stop offset=".459" stop-color="#83BA66"/><stop offset=".597" stop-color="#6BAD49"/><stop offset=".734" stop-color="#5AA335"/><stop offset=".869" stop-color="#509E28"/><stop offset="1" stop-color="#4D9C24"/></linearGradient><path fill="url(#i)" d="M1072.95 262.66c-2.56.73-4.67 1.88-5.24 2.86l.35.2c.52-.88 2.58-2 5-2.68 2.3-.66 4.5-.84 5.52-.44l.14-.37c-1.1-.43-3.35-.26-5.75.43z"/></g><g><linearGradient x1="1067.668" x2="1079.122" y1="257.856" y2="257.856" gradientUnits="userSpaceOnUse"><stop offset="0" stop-color="#fff"/><stop offset=".065" stop-color="#EDF3EC"/><stop offset=".197" stop-color="#C0D3BB"/><stop offset=".383" stop-color="#779F6D"/><stop offset=".539" stop-color="#357126"/><stop offset=".707" stop-color="#387627"/><stop offset=".895" stop-color="#3F8429"/><stop offset="1" stop-color="#45902B"/></linearGradient><path fill="url(#j)" d="M1067.67 265.87v.2c.3.96 3.13.96 6.2.07 2.95-.84 4.7-2 5.13-2.8 0 0 .12-.4.12-.4l-.02-.14-.1-.2c-.02-.03-9.65-13.13-9.65-13.13l-.4-.56-1.28 16.97zm1.68-15.55c.75 1.02 9.22 12.55 9.22 12.55l.06.13c-.02-.05-.07.1-.07.1-.3.56-1.85 1.7-4.82 2.55-3.47 1-5.43.6-5.55.34 0-.04-.02-.1-.02-.14 0-.03 1.08-14.32 1.17-15.54z"/></g></g><path fill="none" stroke="#fff" stroke-width="1.4" d="M3.13 7l13.75 12.24"/><path fill="none" stroke="#fff" stroke-width="1.4" d="M16.88 19.24l.96 27.2"/><path fill="none" stroke="#fff" stroke-width="1.4" d="M16.88 19.24l27.98-7.86"/><circle cx="1062.213" cy="245.279" r="1.496" fill="#3065a0" transform="matrix(1.061 0 0 1.061 -1124.315 -253.33)"/><circle cx="1064.176" cy="268.138" r="1.496" fill="#3065a0" transform="matrix(1.061 0 0 1.061 -1124.315 -253.33)"/><circle cx="1076.077" cy="282.451" r="1.497" fill="#3065a0" transform="matrix(1.061 0 0 1.061 -1124.315 -253.33)"/><circle cx="1099.269" cy="273.383" r="1.497" fill="#3065a0" transform="matrix(1.061 0 0 1.061 -1124.315 -253.33)"/><circle cx="1101.533" cy="249.414" r="1.497" fill="#3065a0" transform="matrix(1.061 0 0 1.061 -1124.315 -253.33)"/><circle cx="1085.597" cy="240.213" r="1.497" fill="#3065a0" transform="matrix(1.061 0 0 1.061 -1124.315 -253.33)"/><circle cx="1075.171" cy="256.819" r="1.497" fill="#3065a0" transform="matrix(1.061 0 0 1.061 -1124.315 -253.33)"/><path fill="none" stroke="#3065a0" stroke-width=".7" d="M16.88 19.24l.96 27.2"/><path fill="none" stroke="#3065a0" stroke-width=".7" d="M16.88 19.24l27.98-7.86"/><path fill="none" stroke="#3065a0" stroke-width=".7" d="M3.13 7l13.75 12.24"/></g></svg>