<svg xmlns="http://www.w3.org/2000/svg" width="48" height="48" xmlns:xlink="http://www.w3.org/1999/xlink"><defs><linearGradient id="e"><stop offset="0" stop-color="#7f4700"/><stop offset="1" stop-color="#ffb913"/></linearGradient><linearGradient id="d"><stop offset="0" stop-color="#3465a4"/><stop offset="1" stop-color="#729fcf"/></linearGradient><linearGradient id="b"><stop offset="0" stop-color="#5f5f5f"/><stop offset="1"/></linearGradient><linearGradient id="c"><stop offset="0" stop-color="#fff"/><stop offset="1" stop-color="#fff" stop-opacity=".502"/></linearGradient><linearGradient><stop offset="0" stop-color="#fff" stop-opacity="0"/><stop offset="1" stop-color="#ffb7b7"/></linearGradient><linearGradient id="a"><stop offset="0" stop-color="#fffae6"/><stop offset=".701" stop-color="#ff9f07"/><stop offset="1" stop-color="#c78300"/></linearGradient><linearGradient><stop offset="0" stop-color="#fff"/><stop offset="1" stop-color="#aac1d9"/></linearGradient><radialGradient cx="19.74" cy="12.95" r="20.542" xlink:href="#a" gradientUnits="userSpaceOnUse" gradientTransform="matrix(1.53 -.265 .335 1.928 -19.029 -.692)" fx="19.74" fy="12.95"/><radialGradient cx="19.74" cy="12.95" r="20.542" xlink:href="#a" gradientUnits="userSpaceOnUse" gradientTransform="matrix(1.094 .127 -.16 1.38 5.679 -3.042)" fx="19.74" fy="12.95"/><linearGradient x1="25.787" x2="40.8" y1="12.566" y2="12.566" xlink:href="#b" gradientUnits="userSpaceOnUse" gradientTransform="matrix(.942 0 0 .943 3.681 -.318)"/><linearGradient x1="8.58" x2="24.321" y1="39.441" y2="39.441" xlink:href="#b" gradientUnits="userSpaceOnUse" gradientTransform="matrix(.925 .18 -.18 .925 7.935 .325)"/><linearGradient x1="2.507" x2="14.711" y1="28.63" y2="28.63" xlink:href="#b" gradientUnits="userSpaceOnUse" gradientTransform="matrix(.942 0 0 .943 .476 1.52)"/><linearGradient x1="6.157" x2="25.683" y1="18.077" y2="18.077" xlink:href="#b" gradientUnits="userSpaceOnUse" gradientTransform="matrix(.942 0 0 .943 1.523 1.52)"/><linearGradient x1="13.393" x2="31.749" y1="10.082" y2="10.082" xlink:href="#b" gradientUnits="userSpaceOnUse" gradientTransform="matrix(.942 0 0 .943 1.047 .092)"/><linearGradient x1="10.203" x2="25.683" y1="6.18" y2="27.191" xlink:href="#a" gradientUnits="userSpaceOnUse" gradientTransform="matrix(.942 0 0 .943 3.681 -.318)"/><linearGradient x1="10.203" x2="25.683" y1="6.18" y2="27.191" xlink:href="#a" gradientUnits="userSpaceOnUse" gradientTransform="matrix(.925 .18 -.18 .925 7.935 .325)"/><linearGradient x1="10.203" x2="25.683" y1="6.18" y2="27.191" xlink:href="#a" gradientUnits="userSpaceOnUse" gradientTransform="matrix(.942 0 0 .943 .476 1.52)"/><linearGradient x1="10.203" x2="25.683" y1="6.18" y2="27.191" xlink:href="#a" gradientUnits="userSpaceOnUse" gradientTransform="matrix(.942 0 0 .943 1.523 1.52)"/><linearGradient x1="10.203" x2="25.683" y1="6.18" y2="27.191" xlink:href="#a" gradientUnits="userSpaceOnUse" gradientTransform="matrix(.942 0 0 .943 1.047 .092)"/><linearGradient x1="9.49" x2="40.879" y1="11.259" y2="40.957" xlink:href="#c" gradientUnits="userSpaceOnUse" gradientTransform="matrix(.895 .295 -.295 .895 11.882 -11.486)"/><linearGradient x1="9.49" x2="40.879" y1="11.259" y2="40.957" xlink:href="#c" gradientUnits="userSpaceOnUse" gradientTransform="matrix(.942 0 0 .943 2.189 3.329)"/><linearGradient x1="9.49" x2="40.879" y1="11.259" y2="40.957" xlink:href="#c" gradientUnits="userSpaceOnUse" gradientTransform="matrix(.942 0 0 .943 1.999 2.758)"/><linearGradient x1="9.49" x2="40.879" y1="11.259" y2="40.957" xlink:href="#c" gradientUnits="userSpaceOnUse" gradientTransform="matrix(.929 .159 -.159 .929 5.901 -2.882)"/><linearGradient x1="9.49" x2="40.879" y1="11.259" y2="40.957" xlink:href="#c" gradientUnits="userSpaceOnUse" gradientTransform="matrix(.942 0 0 .943 1.047 .092)"/><linearGradient x1="10.203" x2="25.683" y1="6.18" y2="27.191" xlink:href="#a" gradientUnits="userSpaceOnUse" gradientTransform="matrix(.942 0 0 .943 .952 .949)"/><linearGradient x1="6.157" x2="25.683" y1="18.077" y2="18.077" xlink:href="#b" gradientUnits="userSpaceOnUse" gradientTransform="matrix(.942 0 0 .943 .952 .949)"/><linearGradient x1="9.49" x2="40.879" y1="11.259" y2="40.957" xlink:href="#c" gradientUnits="userSpaceOnUse" gradientTransform="matrix(.942 0 0 .943 .952 .949)"/><linearGradient x1="9.49" x2="40.879" y1="11.259" y2="40.957" xlink:href="#c" gradientUnits="userSpaceOnUse" gradientTransform="matrix(.942 0 0 .943 .476 1.52)"/><linearGradient x1="9.49" x2="40.879" y1="11.259" y2="40.957" xlink:href="#c" gradientUnits="userSpaceOnUse" gradientTransform="matrix(.925 .18 -.18 .925 7.935 .325)"/><linearGradient x1="10.203" x2="25.683" y1="6.18" y2="27.191" xlink:href="#a" gradientUnits="userSpaceOnUse" gradientTransform="matrix(.942 0 0 .943 2.951 2.472)"/><linearGradient x1="6.157" x2="25.683" y1="18.077" y2="18.077" xlink:href="#b" gradientUnits="userSpaceOnUse" gradientTransform="matrix(.942 0 0 .943 2.951 2.472)"/><linearGradient x1="9.49" x2="40.879" y1="11.259" y2="40.957" xlink:href="#c" gradientUnits="userSpaceOnUse" gradientTransform="matrix(.942 0 0 .943 3.681 -.318)"/><linearGradient x1="30.31" x2="30.502" y1="5.574" y2="10.22" xlink:href="#d" gradientUnits="userSpaceOnUse"/><linearGradient x1="8.723" x2="35.48" y1="8.9" y2="38.353" xlink:href="#b" gradientUnits="userSpaceOnUse" gradientTransform="matrix(.942 0 0 .943 1.523 1.52)"/><radialGradient cx="18.252" cy="16.628" r="21.734" xlink:href="#a" fx="18.252" fy="16.628" gradientTransform="matrix(1.126 -.012 .018 1.366 -2.596 -6.687)" gradientUnits="userSpaceOnUse"/><radialGradient cx="18.252" cy="16.628" r="21.734" xlink:href="#a" gradientUnits="userSpaceOnUse" gradientTransform="matrix(1.03 -.012 .016 1.366 1.265 -6.889)" fx="18.252" fy="16.628"/><linearGradient x1="8.723" x2="35.48" y1="8.9" y2="38.353" xlink:href="#b" gradientUnits="userSpaceOnUse" gradientTransform="matrix(.862 0 0 .943 5.034 1.318)"/><radialGradient id="j" cx="18.252" cy="16.628" r="21.734" xlink:href="#a" gradientUnits="userSpaceOnUse" gradientTransform="matrix(.818 -.01 .013 1.131 5.86 -5.726)" fx="18.252" fy="16.628"/><linearGradient id="k" x1="8.723" x2="35.48" y1="8.9" y2="38.353" xlink:href="#b" gradientUnits="userSpaceOnUse" gradientTransform="matrix(.685 0 0 .78 8.852 1.066)"/><radialGradient id="h" cx="18.252" cy="16.628" r="21.734" xlink:href="#a" gradientUnits="userSpaceOnUse" gradientTransform="matrix(.905 -.011 .014 1.201 3.139 -.326)" fx="18.252" fy="16.628"/><linearGradient id="i" x1="8.723" x2="35.48" y1="8.9" y2="38.353" xlink:href="#b" gradientUnits="userSpaceOnUse" gradientTransform="matrix(.757 0 0 .828 6.448 6.885)"/><linearGradient id="f" x1="18.996" x2="43.634" y1="26.686" y2="26.686" xlink:href="#e" gradientUnits="userSpaceOnUse" gradientTransform="matrix(.952 0 0 .839 .342 6.67)"/><linearGradient id="g" x1="12.531" x2="43.431" y1="21.837" y2="22.645" xlink:href="#b" gradientUnits="userSpaceOnUse" gradientTransform="matrix(.952 0 0 .839 .342 6.67)"/></defs><g><path fill="url(#f)" fill-rule="evenodd" stroke="url(#g)" d="M7.56 26.87l2.3-5.35 2.3 3.82 4.15-5L21.13 24l4.7-3.34 5.1 3.6 4.03-3.08 3.2 5.1 2.8-2.1.47 5.5-5.87 9.75-21.16-1.34-6.27-6.45-.57-4.73z"/><path fill="none" stroke="#fff" stroke-opacity=".376" d="M8.14 28.13l1.8-4.5 2.18 3.47 4.35-5.35 4.6 3.42 4.7-3.33 5.1 3.6 3.8-2.8 3.13 5.18 2.3-1.7-.03 4.95-4.58 9.54-21.17-1.35-6.25-6.44.06-4.67z" overflow="visible" enable-background="accumulate"/><path fill="url(#h)" fill-rule="evenodd" stroke="url(#i)" d="M41.02 28.04l-2.63 3.1-3.97-3.4-4.64 6.14-4.54-7.46-5.4 8-4.8-7.58-4.52 4.1-2.9-4.9c-.28 1.6-.47 3.17-.47 4.72 0 11.42 10.8 16.8 17.04 16.8 7.5 0 17.06-5.38 17.06-16.8 0-.93-.12-1.8-.24-2.72z" overflow="visible" enable-background="accumulate"/><path fill="url(#j)" fill-rule="evenodd" stroke="url(#k)" d="M40.1 19.38l-2.37 2.9-3.57-3.2-4.2 5.78-4.1-7.02-4.9 7.52-4.33-7.13-4.08 3.87-2.6-4.6C11.9 8.25 19.42.4 24.9.4 31.2.44 38.9 9.46 40.12 19.4z" overflow="visible" enable-background="accumulate"/><path fill="none" stroke="#fff" stroke-opacity=".502" d="M39.07 19.15l-1.35 1.74-3.74-3.32-3.96 5.5-4.08-7.36-4.9 7.82-4.22-6.96-4.07 4-1.77-3.25c1.83-8.55 8.93-15.9 14-15.9 5.82.03 12.96 8.52 14.1 17.72z" overflow="visible" enable-background="accumulate"/><path fill="none" stroke="#fff" stroke-opacity=".502" d="M40.18 30.6l-1.54 1.96-4.1-3.37-4.82 6.72-4.4-7.72-5.44 8.2-4.95-8.04-4.76 4.1-2-3.47c-.26 1.45.2 2.17.22 3.58.06 8.04 9.7 14 15.8 14 6.84 0 15.84-5.46 15.84-13.86 0-.84.25-1.27.14-2.12z" overflow="visible" enable-background="accumulate"/></g></svg>