<svg xmlns="http://www.w3.org/2000/svg" width="48" height="48" xmlns:xlink="http://www.w3.org/1999/xlink"><defs><linearGradient id="d"><stop offset="0" stop-color="#729fcf"/><stop offset="1" stop-color="#204a87"/></linearGradient><linearGradient id="c"><stop offset="0" stop-color="#2e3436"/><stop offset="1" stop-color="#2e3436" stop-opacity="0"/></linearGradient><linearGradient id="b"><stop offset="0" stop-color="#fff"/><stop offset="1" stop-color="#eeeeec" stop-opacity="0"/></linearGradient><linearGradient><stop offset="0" stop-color="#b9ec95"/><stop offset="1" stop-color="#656565"/></linearGradient><linearGradient id="a"><stop offset="0" stop-color="#2e3436" stop-opacity=".398"/><stop offset="1" stop-color="#2e3436" stop-opacity="0"/></linearGradient><linearGradient><stop offset="0" stop-color="#b8f18f"/><stop offset="1" stop-color="#6ab800"/></linearGradient><linearGradient id="f" x1="13.016" x2="17.677" y1="24.461" y2="23.032" xlink:href="#a" gradientUnits="userSpaceOnUse" gradientTransform="matrix(-.98 0 0 .98 43.361 .848)"/><linearGradient id="h" x1="9.69" x2="12.635" y1="4.834" y2="9.342" xlink:href="#b" gradientUnits="userSpaceOnUse" gradientTransform="matrix(-.805 -.559 -.559 .805 54.932 11.61)"/><radialGradient id="e" cx="22.349" cy="43.968" r="18.476" xlink:href="#c" fx="22.349" fy="43.968" gradientTransform="matrix(1 0 0 .249 0 33.014)" gradientUnits="userSpaceOnUse"/><linearGradient id="g" x1="11.747" x2="28.412" y1="12.767" y2="12.486" xlink:href="#d" gradientUnits="userSpaceOnUse"/></defs><g><path fill="url(#e)" d="M40.83 43.97a18.48 4.6 0 1 1-36.96 0 18.48 4.6 0 1 1 36.96 0z" transform="matrix(-1.009 0 0 1.062 45.149 -3.778)" color="#000" overflow="visible"/><path fill="#3465a4" stroke="#122a4d" stroke-width="1.5" d="M36.93.76C10.33 5.22 3.4 25.16 3.1 41.44c-.04 2.67 4.67 5.48 10.84 5.75 6.16.27 11.42-2.1 11.42-5 0-6.66 1.2-20.1 19.82-21.16" color="#000" overflow="visible"/><path fill="url(#f)" fill-rule="evenodd" d="M41.5 20.54c-4.33-3.1-5.83-8.4-7.2-10.64-6.7.62-11.92 28.12-9.1 27.3 1.5-8.12 9.04-14.24 16.3-16.66z"/><path fill="url(#g)" stroke="#122a4d" stroke-width="1.235" d="M29.33 12.5a9.17 4 0 1 1-18.35 0 9.17 4 0 1 1 18.35 0z" transform="matrix(-.479 -1.121 -1.12 .456 64.114 27.886)" color="#000" overflow="visible"/><path fill="#fce94f" stroke="#987c00" stroke-width="1.5" d="M34.22 24.06c-3.94 2.22-6.28 5.3-7.47 8.6-8.2 2.84-16.4-.84-21.04-6.95 2.25-6.63 7.75-15.48 14.68-18.9-.2 5.55 6.26 15.96 13.84 17.26z" color="#000" overflow="visible"/><path fill="none" stroke="#fff" stroke-opacity=".682" d="M33.23 2.94c-.33 6.8 2.2 12.95 7.36 17.73-14.22 1.72-16.7 14.88-16.5 21.6.08 2.38-6.42 3.8-9.42 3.74-4.33-.08-10.4-1.95-10.46-4.62-.3-14.45 8.3-34.56 29-38.44z" color="#000" overflow="visible"/><path fill="none" stroke="#122a4d" stroke-width="1.235" d="M22.67 5.13c-2.16 1.57-.9 6.84 2.8 11.78 3.7 4.95 8.46 7.7 10.63 6.12" color="#000" overflow="visible"/><path fill="none" stroke="url(#h)" d="M43.95 20.55c2.25-.87 2.27-5.77.05-10.93-2.2-5.16-5.84-8.65-8.1-7.78" color="#000" overflow="visible"/><path fill="none" stroke="#122a4d" stroke-width="1.235" d="M5.34 26.4c1.5 5.86 15.5 11.14 21.17 7.22" color="#000" overflow="visible"/><path fill="none" stroke="#fff" stroke-opacity=".314" stroke-width="5" d="M7.9 40.76C8 26.1 17.7 10.66 29.62 7.8" stroke-linecap="round"/><path fill="none" stroke="#fff" stroke-opacity=".314" stroke-width="3" d="M7.7 40.86c.1-14.67 9.82-30.1 21.73-32.96" stroke-linecap="round"/><path fill="none" stroke="#fff" stroke-opacity=".314" d="M7.62 40.86c.1-14.67 9.8-30.1 21.7-32.96" stroke-linecap="round"/></g></svg>