<svg xmlns="http://www.w3.org/2000/svg" width="48" height="48" xmlns:xlink="http://www.w3.org/1999/xlink"><defs><radialGradient id="q" cx="1128.896" cy="188.253" r="12.435" gradientUnits="userSpaceOnUse" gradientTransform="matrix(1 .015 -.015 1 -126.445 -98.989)" fy="188.253" fx="1128.896"><stop offset="0" stop-color="#D6E1E6"/><stop offset=".579" stop-color="#8994A2"/><stop offset=".888" stop-color="#77818C"/></radialGradient><radialGradient id="p" cx="1128.898" cy="188.254" r="12.433" gradientUnits="userSpaceOnUse" gradientTransform="matrix(1 .015 -.015 1 -126.445 -98.989)" fy="188.254" fx="1128.898"><stop offset="0" stop-color="#D6E1E6"/><stop offset=".579" stop-color="#8994A2"/><stop offset=".888" stop-color="#77818C"/></radialGradient><radialGradient id="o" cx="1128.899" cy="188.25" r="12.438" gradientUnits="userSpaceOnUse" gradientTransform="matrix(1 .015 -.015 1 -126.445 -98.989)" fy="188.25" fx="1128.899"><stop offset="0" stop-color="#D6E1E6"/><stop offset=".579" stop-color="#8994A2"/><stop offset=".888" stop-color="#77818C"/></radialGradient><radialGradient id="n" cx="1128.898" cy="188.251" r="12.434" gradientUnits="userSpaceOnUse" gradientTransform="matrix(1 .015 -.015 1 -126.445 -98.989)" fy="188.251" fx="1128.898"><stop offset="0" stop-color="#D6E1E6"/><stop offset=".579" stop-color="#8994A2"/><stop offset=".888" stop-color="#77818C"/></radialGradient><radialGradient id="m" cx="1128.898" cy="188.25" r="12.435" gradientUnits="userSpaceOnUse" gradientTransform="matrix(1 .015 -.015 1 -126.445 -98.989)" fy="188.25" fx="1128.898"><stop offset="0" stop-color="#D6E1E6"/><stop offset=".579" stop-color="#8994A2"/><stop offset=".888" stop-color="#77818C"/></radialGradient><radialGradient id="l" cx="1128.898" cy="188.252" r="12.434" gradientUnits="userSpaceOnUse" gradientTransform="matrix(1 .015 -.015 1 -126.445 -98.989)" fy="188.252" fx="1128.898"><stop offset="0" stop-color="#D6E1E6"/><stop offset=".579" stop-color="#8994A2"/><stop offset=".888" stop-color="#77818C"/></radialGradient><radialGradient id="k" cx="1128.898" cy="188.247" r="12.436" gradientUnits="userSpaceOnUse" gradientTransform="matrix(1 .015 -.015 1 -126.445 -98.989)" fy="188.247" fx="1128.898"><stop offset="0" stop-color="#D6E1E6"/><stop offset=".579" stop-color="#8994A2"/><stop offset=".888" stop-color="#77818C"/></radialGradient><radialGradient id="j" cx="1128.898" cy="188.251" r="12.433" gradientUnits="userSpaceOnUse" gradientTransform="matrix(1 .015 -.015 1 -126.445 -98.989)" fy="188.251" fx="1128.898"><stop offset="0" stop-color="#D6E1E6"/><stop offset=".579" stop-color="#8994A2"/><stop offset=".888" stop-color="#77818C"/></radialGradient><radialGradient id="i" cx="1128.897" cy="188.253" r="12.435" gradientUnits="userSpaceOnUse" gradientTransform="matrix(1 .015 -.015 1 -126.445 -98.989)" fy="188.253" fx="1128.897"><stop offset="0" stop-color="#D6E1E6"/><stop offset=".579" stop-color="#8994A2"/><stop offset=".888" stop-color="#77818C"/></radialGradient><radialGradient id="h" cx="1128.898" cy="188.251" r="12.434" gradientUnits="userSpaceOnUse" gradientTransform="matrix(1 .015 -.015 1 -126.445 -98.989)" fy="188.251" fx="1128.898"><stop offset="0" stop-color="#D6E1E6"/><stop offset=".579" stop-color="#8994A2"/><stop offset=".888" stop-color="#77818C"/></radialGradient><radialGradient id="g" cx="1128.899" cy="188.251" r="12.432" gradientUnits="userSpaceOnUse" gradientTransform="matrix(1 .015 -.015 1 -126.445 -98.989)" fy="188.251" fx="1128.899"><stop offset="0" stop-color="#D6E1E6"/><stop offset=".579" stop-color="#8994A2"/><stop offset=".888" stop-color="#77818C"/></radialGradient><radialGradient id="f" cx="1128.898" cy="188.252" r="12.436" gradientUnits="userSpaceOnUse" gradientTransform="matrix(1 .015 -.015 1 -126.445 -98.989)" fy="188.252" fx="1128.898"><stop offset="0" stop-color="#D6E1E6"/><stop offset=".579" stop-color="#8994A2"/><stop offset=".888" stop-color="#77818C"/></radialGradient><radialGradient id="e" cx="1128.899" cy="188.251" r="12.434" gradientUnits="userSpaceOnUse" gradientTransform="matrix(1 .015 -.015 1 -126.445 -98.989)" fy="188.251" fx="1128.899"><stop offset="0" stop-color="#D6E1E6"/><stop offset=".579" stop-color="#8994A2"/><stop offset=".888" stop-color="#77818C"/></radialGradient><radialGradient id="d" cx="1128.898" cy="188.252" r="12.434" gradientUnits="userSpaceOnUse" gradientTransform="matrix(1 .015 -.015 1 -126.445 -98.989)" fy="188.252" fx="1128.898"><stop offset="0" stop-color="#D6E1E6"/><stop offset=".579" stop-color="#8994A2"/><stop offset=".888" stop-color="#77818C"/></radialGradient><radialGradient id="c" cx="1128.898" cy="188.252" r="12.434" gradientUnits="userSpaceOnUse" gradientTransform="matrix(1 .015 -.015 1 -126.445 -98.989)" fy="188.252" fx="1128.898"><stop offset="0" stop-color="#D6E1E6"/><stop offset=".579" stop-color="#8994A2"/><stop offset=".888" stop-color="#77818C"/></radialGradient><radialGradient id="b" cx="1128.898" cy="188.252" r="12.435" gradientUnits="userSpaceOnUse" gradientTransform="matrix(1 .015 -.015 1 -126.445 -98.989)" fy="188.252" fx="1128.898"><stop offset="0" stop-color="#D6E1E6"/><stop offset=".579" stop-color="#8994A2"/><stop offset=".888" stop-color="#77818C"/></radialGradient><radialGradient id="a" cx="1128.898" cy="188.252" r="12.434" gradientUnits="userSpaceOnUse" gradientTransform="matrix(1 .015 -.015 1 -126.445 -98.989)" fy="188.252" fx="1128.898"><stop offset="0" stop-color="#D6E1E6"/><stop offset=".579" stop-color="#8994A2"/><stop offset=".888" stop-color="#77818C"/></radialGradient><linearGradient id="r" x1="1002.862" x2="1002.862" y1="107.147" y2="95.182" gradientUnits="userSpaceOnUse"><stop offset="0" stop-color="#fff"/><stop offset=".489" stop-color="#6aa0ce"/><stop offset="1" stop-color="#4b94c4"/></linearGradient><radialGradient id="s" cx="1252.482" cy="95.422" r="14.495" gradientUnits="userSpaceOnUse" gradientTransform="matrix(.879 0 0 1 -1079.76 -92.799)" fy="95.422" fx="1252.482"><stop offset=".006" stop-color="#e5f0f7"/><stop offset=".466" stop-color="#6a99ce"/><stop offset=".803" stop-color="#60a0cb"/><stop offset="1" stop-color="#428ec1"/></radialGradient><radialGradient id="t" cx="1128.898" cy="188.252" r="12.434" xlink:href="#a" gradientUnits="userSpaceOnUse" gradientTransform="matrix(1 .015 -.015 1 -126.445 -98.989)" fx="1128.898" fy="188.252"/><radialGradient id="u" cx="1128.898" cy="188.252" r="12.435" xlink:href="#b" gradientUnits="userSpaceOnUse" gradientTransform="matrix(1 .015 -.015 1 -126.445 -98.989)" fx="1128.898" fy="188.252"/><radialGradient id="v" cx="1128.898" cy="188.252" r="12.434" xlink:href="#c" gradientUnits="userSpaceOnUse" gradientTransform="matrix(1 .015 -.015 1 -126.445 -98.989)" fx="1128.898" fy="188.252"/><radialGradient id="w" cx="1128.898" cy="188.252" r="12.434" xlink:href="#d" gradientUnits="userSpaceOnUse" gradientTransform="matrix(1 .015 -.015 1 -126.445 -98.989)" fx="1128.898" fy="188.252"/><radialGradient id="x" cx="1128.899" cy="188.251" r="12.434" xlink:href="#e" gradientUnits="userSpaceOnUse" gradientTransform="matrix(1 .015 -.015 1 -126.445 -98.989)" fx="1128.899" fy="188.251"/><radialGradient id="y" cx="1128.898" cy="188.252" r="12.436" xlink:href="#f" gradientUnits="userSpaceOnUse" gradientTransform="matrix(1 .015 -.015 1 -126.445 -98.989)" fx="1128.898" fy="188.252"/><radialGradient id="z" cx="1128.899" cy="188.251" r="12.432" xlink:href="#g" gradientUnits="userSpaceOnUse" gradientTransform="matrix(1 .015 -.015 1 -126.445 -98.989)" fx="1128.899" fy="188.251"/><radialGradient id="A" cx="1128.898" cy="188.251" r="12.434" xlink:href="#h" gradientUnits="userSpaceOnUse" gradientTransform="matrix(1 .015 -.015 1 -126.445 -98.989)" fx="1128.898" fy="188.251"/><radialGradient id="B" cx="1128.897" cy="188.253" r="12.435" xlink:href="#i" gradientUnits="userSpaceOnUse" gradientTransform="matrix(1 .015 -.015 1 -126.445 -98.989)" fx="1128.897" fy="188.253"/><radialGradient id="C" cx="1128.898" cy="188.251" r="12.433" xlink:href="#j" gradientUnits="userSpaceOnUse" gradientTransform="matrix(1 .015 -.015 1 -126.445 -98.989)" fx="1128.898" fy="188.251"/><radialGradient id="D" cx="1128.898" cy="188.247" r="12.436" xlink:href="#k" gradientUnits="userSpaceOnUse" gradientTransform="matrix(1 .015 -.015 1 -126.445 -98.989)" fx="1128.898" fy="188.247"/><radialGradient id="E" cx="1128.898" cy="188.252" r="12.434" xlink:href="#l" gradientUnits="userSpaceOnUse" gradientTransform="matrix(1 .015 -.015 1 -126.445 -98.989)" fx="1128.898" fy="188.252"/><radialGradient id="F" cx="1128.898" cy="188.25" r="12.435" xlink:href="#m" gradientUnits="userSpaceOnUse" gradientTransform="matrix(1 .015 -.015 1 -126.445 -98.989)" fx="1128.898" fy="188.25"/><radialGradient id="G" cx="1128.898" cy="188.251" r="12.434" xlink:href="#n" gradientUnits="userSpaceOnUse" gradientTransform="matrix(1 .015 -.015 1 -126.445 -98.989)" fx="1128.898" fy="188.251"/><radialGradient id="H" cx="1128.899" cy="188.25" r="12.438" xlink:href="#o" gradientUnits="userSpaceOnUse" gradientTransform="matrix(1 .015 -.015 1 -126.445 -98.989)" fx="1128.899" fy="188.25"/><radialGradient id="I" cx="1128.898" cy="188.254" r="12.433" xlink:href="#p" gradientUnits="userSpaceOnUse" gradientTransform="matrix(1 .015 -.015 1 -126.445 -98.989)" fx="1128.898" fy="188.254"/><radialGradient id="J" cx="1128.896" cy="188.253" r="12.435" xlink:href="#q" gradientUnits="userSpaceOnUse" gradientTransform="matrix(1 .015 -.015 1 -126.445 -98.989)" fx="1128.896" fy="188.253"/><linearGradient id="K" x1="1002.862" x2="1002.862" y1="107.147" y2="95.182" xlink:href="#r" gradientUnits="userSpaceOnUse"/><radialGradient id="L" cx="1249.743" cy="96.071" r="14.495" xlink:href="#s" gradientUnits="userSpaceOnUse" gradientTransform="matrix(1.115 .355 -.233 .732 -1351.403 -503.051)" fx="1249.743" fy="96.071"/></defs><g><g transform="matrix(1.024 0 0 1.024 -1003.38 -86.975)"><circle cx="1002.655" cy="112.106" r="10.726" fill="#fff"/><g><radialGradient cx="1128.898" cy="188.252" r="12.434" gradientUnits="userSpaceOnUse" gradientTransform="matrix(1 .015 -.015 1 -126.445 -98.989)" fy="188.252" fx="1128.898"><stop offset="0" stop-color="#D6E1E6"/><stop offset=".579" stop-color="#8994A2"/><stop offset=".888" stop-color="#77818C"/></radialGradient><path fill="url(#t)" d="M1001.44 103.08c-4.8 2.27-8.84 7.5-8.98 11.64-.02.77.08 1.46.32 2.07l.42-.18c-.2-.55-.3-1.18-.3-1.88.15-4 4.06-9.05 8.73-11.25 2.28-1.1 4.46-1.33 5.96-.67l.17-.4c-1.65-.74-3.9-.5-6.33.65z"/></g><g><radialGradient cx="1128.898" cy="188.252" r="12.435" gradientUnits="userSpaceOnUse" gradientTransform="matrix(1 .015 -.015 1 -126.445 -98.989)" fy="188.252" fx="1128.898"><stop offset="0" stop-color="#D6E1E6"/><stop offset=".579" stop-color="#8994A2"/><stop offset=".888" stop-color="#77818C"/></radialGradient><path fill="url(#u)" d="M1002.74 102.47c-5.14.2-9.6 3-10.63 6.67l.45.12c.95-3.42 5.34-6.14 10.2-6.34 3.95-.16 7.45 1.34 8.93 3.82l.4-.24c-1.58-2.6-5.24-4.2-9.34-4.03z"/></g><g><radialGradient cx="1128.898" cy="188.252" r="12.434" gradientUnits="userSpaceOnUse" gradientTransform="matrix(1 .015 -.015 1 -126.445 -98.989)" fy="188.252" fx="1128.898"><stop offset="0" stop-color="#D6E1E6"/><stop offset=".579" stop-color="#8994A2"/><stop offset=".888" stop-color="#77818C"/></radialGradient><path fill="url(#v)" d="M995.36 103.94l.32.32c1.6-1.6 4.46-2.07 7.5-1.26 5.13 1.4 9.56 5.77 9.85 9.76l-.05 1.25.45.1.05-1.38c-.3-4.23-4.8-8.7-10.2-10.15-3.18-.86-6.22-.34-7.92 1.37z"/></g><g><radialGradient cx="1128.898" cy="188.252" r="12.434" gradientUnits="userSpaceOnUse" gradientTransform="matrix(1 .015 -.015 1 -126.445 -98.989)" fy="188.252" fx="1128.898"><stop offset="0" stop-color="#D6E1E6"/><stop offset=".579" stop-color="#8994A2"/><stop offset=".888" stop-color="#77818C"/></radialGradient><path fill="url(#w)" d="M999.54 101.6l.13.44c.4-.13.9-.12 1.45.03 3.07.83 6.83 5.76 8.37 10.98 1 3.48.94 6.18-.2 7.22l.3.33c1.3-1.17 1.4-3.97.32-7.67-1.57-5.36-5.47-10.43-8.7-11.3-.62-.17-1.2-.17-1.68-.02z"/></g><g><radialGradient cx="1128.899" cy="188.251" r="12.434" gradientUnits="userSpaceOnUse" gradientTransform="matrix(1 .015 -.015 1 -126.445 -98.989)" fy="188.251" fx="1128.899"><stop offset="0" stop-color="#D6E1E6"/><stop offset=".579" stop-color="#8994A2"/><stop offset=".888" stop-color="#77818C"/></radialGradient><path fill="url(#x)" d="M1002.78 102.43c-2.44 2.46-5.07 8.6-5.85 13.65-.48 3.1-.2 5.23.82 5.82l.23-.4c-.64-.36-1.13-1.97-.6-5.35.76-4.98 3.34-11 5.72-13.4.7-.7 1.24-1 1.68-.92l.08-.45c-.6-.1-1.27.24-2.08 1.05z"/></g><g><radialGradient cx="1128.898" cy="188.252" r="12.436" gradientUnits="userSpaceOnUse" gradientTransform="matrix(1 .015 -.015 1 -126.445 -98.989)" fy="188.252" fx="1128.898"><stop offset="0" stop-color="#D6E1E6"/><stop offset=".579" stop-color="#8994A2"/><stop offset=".888" stop-color="#77818C"/></radialGradient><path fill="url(#y)" d="M999.08 103.24c-.02 1.1 1.62 2 3.72 2.03 2.1.04 3.77-.8 3.8-1.9 0-1.12-1.63-2.02-3.74-2.05-2.1-.03-3.76.8-3.78 1.92zm.45 0c0-.82 1.54-1.5 3.33-1.47 1.8.03 3.3.75 3.27 1.58 0 .83-1.53 1.5-3.32 1.47-1.78-.03-3.28-.75-3.27-1.57z"/></g><g><radialGradient cx="1128.899" cy="188.251" r="12.432" gradientUnits="userSpaceOnUse" gradientTransform="matrix(1 .015 -.015 1 -126.445 -98.989)" fy="188.251" fx="1128.899"><stop offset="0" stop-color="#D6E1E6"/><stop offset=".579" stop-color="#8994A2"/><stop offset=".888" stop-color="#77818C"/></radialGradient><path fill="url(#z)" d="M998.1 102.17c-1.36.7-2.13 1.64-2.14 2.67-.03 2.1 3 3.84 6.8 3.9 1.8.03 3.5-.33 4.8-1 1.33-.7 2.08-1.65 2.1-2.7.02-2.02-3.08-3.8-6.8-3.85-1.76-.03-3.45.3-4.75.97zm-1.7 2.68c.03-.86.7-1.66 1.9-2.27 1.23-.62 2.9-.96 4.56-.93 3.4.05 6.37 1.64 6.34 3.4 0 .86-.67 1.68-1.86 2.3-1.22.63-2.85.96-4.58.94-3.53-.07-6.38-1.6-6.35-3.45z"/></g><g><radialGradient cx="1128.898" cy="188.251" r="12.434" gradientUnits="userSpaceOnUse" gradientTransform="matrix(1 .015 -.015 1 -126.445 -98.989)" fy="188.251" fx="1128.898"><stop offset="0" stop-color="#D6E1E6"/><stop offset=".579" stop-color="#8994A2"/><stop offset=".888" stop-color="#77818C"/></radialGradient><path fill="url(#A)" d="M992.1 109.75c-.05 3.84 4.66 7.03 10.5 7.12l1.45-.04-.03-.45-1.42.04c-5.6-.1-10.1-3.07-10.03-6.66 0-.4.08-.84.22-1.25l-.44-.14c-.15.46-.24.93-.25 1.4z"/></g><g><radialGradient cx="1128.897" cy="188.253" r="12.435" gradientUnits="userSpaceOnUse" gradientTransform="matrix(1 .015 -.015 1 -126.445 -98.989)" fy="188.253" fx="1128.897"><stop offset="0" stop-color="#D6E1E6"/><stop offset=".579" stop-color="#8994A2"/><stop offset=".888" stop-color="#77818C"/></radialGradient><path fill="url(#B)" d="M1012.5 108.5c.2.5.3 1.04.3 1.58-.05 3.3-3.75 5.94-8.78 6.3l.03.45c5.28-.38 9.15-3.22 9.2-6.75 0-.6-.1-1.18-.3-1.75l-.44.16z"/></g><g><radialGradient cx="1128.898" cy="188.251" r="12.433" gradientUnits="userSpaceOnUse" gradientTransform="matrix(1 .015 -.015 1 -126.445 -98.989)" fy="188.251" fx="1128.898"><stop offset="0" stop-color="#D6E1E6"/><stop offset=".579" stop-color="#8994A2"/><stop offset=".888" stop-color="#77818C"/></radialGradient><path fill="url(#C)" d="M1013.16 112.42c-.06 4.15-4.7 7.34-10.58 7.25-5.8-.1-10.5-3.5-10.43-7.58l-.45-.02c-.07 4.34 4.8 7.95 10.88 8.04 6.12.1 10.97-3.3 11.04-7.7h-.46z"/></g><g><radialGradient cx="1128.898" cy="188.247" r="12.436" gradientUnits="userSpaceOnUse" gradientTransform="matrix(1 .015 -.015 1 -126.445 -98.989)" fy="188.247" fx="1128.898"><stop offset="0" stop-color="#D6E1E6"/><stop offset=".579" stop-color="#8994A2"/><stop offset=".888" stop-color="#77818C"/></radialGradient><path fill="url(#D)" d="M992.75 116.8c1.5 3.14 5.4 5.3 9.76 5.37 4.12.06 7.77-1.63 9.54-4.4l-.38-.25c-1.7 2.65-5.2 4.26-9.14 4.2-4.2-.07-7.95-2.12-9.36-5.12l-.4.2z"/></g><g><radialGradient cx="1128.898" cy="188.252" r="12.434" gradientUnits="userSpaceOnUse" gradientTransform="matrix(1 .015 -.015 1 -126.445 -98.989)" fy="188.252" fx="1128.898"><stop offset="0" stop-color="#D6E1E6"/><stop offset=".579" stop-color="#8994A2"/><stop offset=".888" stop-color="#77818C"/></radialGradient><path fill="url(#E)" d="M1003.8 116.63c.1 4-.1 5.76-.27 5.97l.13.4c.24 0 .74-.04.6-6.38h-.45z"/></g><g><radialGradient cx="1128.898" cy="188.25" r="12.435" gradientUnits="userSpaceOnUse" gradientTransform="matrix(1 .015 -.015 1 -126.445 -98.989)" fy="188.25" fx="1128.898"><stop offset="0" stop-color="#D6E1E6"/><stop offset=".579" stop-color="#8994A2"/><stop offset=".888" stop-color="#77818C"/></radialGradient><path fill="url(#F)" d="M1003.36 108.52l.26 3.53.2 4.58h.45l-.2-4.6-.26-3.55-.44.04z" opacity=".75"/></g><g><radialGradient cx="1128.898" cy="188.251" r="12.434" gradientUnits="userSpaceOnUse" gradientTransform="matrix(1 .015 -.015 1 -126.445 -98.989)" fy="188.251" fx="1128.898"><stop offset="0" stop-color="#D6E1E6"/><stop offset=".579" stop-color="#8994A2"/><stop offset=".888" stop-color="#77818C"/></radialGradient><path fill="url(#G)" d="M1002.35 101.16l-.08.42c.2.2.68 2.28 1.1 6.94l.44-.04c-.64-7.37-1.23-7.33-1.45-7.32z"/></g><g><radialGradient cx="1128.899" cy="188.25" r="12.438" gradientUnits="userSpaceOnUse" gradientTransform="matrix(1 .015 -.015 1 -126.445 -98.989)" fy="188.25" fx="1128.899"><stop offset="0" stop-color="#D6E1E6"/><stop offset=".579" stop-color="#8994A2"/><stop offset=".888" stop-color="#77818C"/></radialGradient><path fill="url(#H)" d="M993.57 107.18c-.03 1.98 1.7 3.84 4.52 4.86l.14-.42c-2.63-.96-4.25-2.66-4.22-4.43 0-.8.45-1.73 1.15-2.45l-.33-.32c-.78.82-1.25 1.85-1.27 2.75z"/></g><g opacity=".75"><radialGradient cx="1128.898" cy="188.254" r="12.433" gradientUnits="userSpaceOnUse" gradientTransform="matrix(1 .015 -.015 1 -126.445 -98.989)" fy="188.254" fx="1128.898"><stop offset="0" stop-color="#D6E1E6"/><stop offset=".579" stop-color="#8994A2"/><stop offset=".888" stop-color="#77818C"/></radialGradient><path fill="url(#I)" d="M1002.7 112.4c-1.58-.03-3.12-.3-4.46-.78l-.15.42c1.38.5 2.96.78 4.58.8 2.45.05 4.76-.48 6.5-1.5l-.22-.38c-1.68.96-3.9 1.48-6.27 1.44z"/></g><g><radialGradient cx="1128.896" cy="188.253" r="12.435" gradientUnits="userSpaceOnUse" gradientTransform="matrix(1 .015 -.015 1 -126.445 -98.989)" fy="188.253" fx="1128.896"><stop offset="0" stop-color="#D6E1E6"/><stop offset=".579" stop-color="#8994A2"/><stop offset=".888" stop-color="#77818C"/></radialGradient><path fill="url(#J)" d="M1010.42 105.04c.73.76 1.1 1.6 1.1 2.42-.03 1.33-.93 2.57-2.56 3.5l.23.4c1.75-1.02 2.74-2.4 2.76-3.9.02-.93-.4-1.88-1.22-2.73l-.32.3z"/></g><circle cx="1002.655" cy="112.106" r="10.726" fill="none" stroke="#676d73" stroke-width=".683"/></g><path fill="url(#K)" stroke="#40200c" stroke-width=".781" d="M1025.86 107.3h-46l8.9-12.12h28l9.1 12.12z" transform="matrix(1.024 0 0 1.024 -1003.38 -86.975)"/><path fill="url(#L)" stroke="#204a87" stroke-width=".7" d="M38.67 16c-2.45 0-5.77-8.9-14.9-8.9-9.14 0-12.28 8.4-14.74 8.4"/></g></svg>