<svg xmlns="http://www.w3.org/2000/svg" width="48" height="48" xmlns:xlink="http://www.w3.org/1999/xlink"><defs><linearGradient id="b"><stop offset="0" stop-color="#729fcf"/><stop offset="1" stop-color="#3465a4"/></linearGradient><radialGradient id="a" cx="294.624" cy="80.627" r="48.777" fx="294.624" fy="80.627" gradientUnits="userSpaceOnUse"><stop offset="0" stop-color="#BAD1D7"/><stop offset=".185" stop-color="#cbd9dd"/><stop offset=".265" stop-color="#dce1e4"/><stop offset=".826" stop-color="#6D7580"/><stop offset="1" stop-color="#41454C"/></radialGradient><linearGradient id="c" x1="7.809" x2="41" y1="24.027" y2="24.027" xlink:href="#a" gradientUnits="userSpaceOnUse"/><linearGradient id="d" x1="15.157" x2="34.172" y1="2.796" y2="16.938" xlink:href="#b" gradientUnits="userSpaceOnUse"/></defs><g><path fill="url(#c)" stroke="#2e3436" stroke-width="1.035" d="M40.48 10.62v25.36c.36 8.64-11.65 11.7-16.74 11.52-5.2-.18-15.4-2.28-15.4-11V10.6C8.44 3.57 19.12.5 24.58.56c5.46.03 15.94 2.64 15.9 10.07z"/><path fill="url(#d)" fill-rule="evenodd" stroke="#2e3436" stroke-miterlimit="6" stroke-dashoffset="1" d="M40.4 10.07a16 9.44 0 1 1-32.02 0 16 9.44 0 1 1 32.03 0z" color="#000" stroke-linecap="round" overflow="visible"/><path fill="none" stroke="#fff" stroke-opacity=".502" stroke-width="1.035" d="M39.57 14.84V35.3c.34 8.68-10.78 11.37-15.6 11.2-4.9-.17-14.73-1.75-14.73-10.7l.08-20.97c1.64 2.38 7 5.93 15.32 5.8 8.38-.14 13.58-3.77 14.93-5.8z"/><path fill="none" stroke="#b2cfe7" stroke-opacity=".627" stroke-width="1.089" stroke-miterlimit="6" stroke-dashoffset="1" d="M40.4 10.07a16 9.44 0 1 1-32.02 0 16 9.44 0 1 1 32.03 0z" transform="matrix(.937 0 0 .9 1.645 .939)" color="#000" overflow="visible" stroke-linecap="round"/></g></svg>