<svg xmlns="http://www.w3.org/2000/svg" width="48" height="48" xmlns:xlink="http://www.w3.org/1999/xlink"><defs><linearGradient id="a"><stop offset="0" stop-color="#b6cde6"/><stop offset="1" stop-color="#3465a4"/></linearGradient><radialGradient id="c" cx="3.299" cy="3.416" r="2.751" xlink:href="#a" fx="3.299" fy="3.416" gradientUnits="userSpaceOnUse"/><linearGradient><stop offset="0" stop-color="#eeeeec" stop-opacity=".502"/><stop offset="1" stop-color="#fff" stop-opacity=".753"/></linearGradient><linearGradient x1="208.958" x2="182.122" y1="247.744" y2="206.743" gradientUnits="userSpaceOnUse"><stop offset="0" stop-color="#8EA3B2"/><stop offset="1" stop-color="#DCE6E9"/></linearGradient><linearGradient id="b" x1="928.462" x2="949.113" y1="1677.34" y2="1712.672" gradientUnits="userSpaceOnUse" gradientTransform="translate(-904.22 -1655.897)"><stop offset="0" stop-color="#FEF3DC"/><stop offset="1" stop-color="#FAAF3E"/></linearGradient><radialGradient id="d" cx="3.299" cy="3.416" r="2.751" xlink:href="#a" gradientUnits="userSpaceOnUse" fx="3.299" fy="3.416"/><radialGradient id="e" cx="3.299" cy="3.416" r="2.751" xlink:href="#a" gradientUnits="userSpaceOnUse" fx="3.299" fy="3.416"/><radialGradient id="f" cx="3.299" cy="3.416" r="2.751" xlink:href="#a" gradientUnits="userSpaceOnUse" fx="3.299" fy="3.416"/><radialGradient id="g" cx="3.299" cy="3.416" r="2.751" xlink:href="#a" gradientUnits="userSpaceOnUse" fx="3.299" fy="3.416"/><radialGradient id="h" cx="3.299" cy="3.416" r="2.751" xlink:href="#a" gradientUnits="userSpaceOnUse" fx="3.299" fy="3.416"/><radialGradient id="i" cx="3.299" cy="3.416" r="2.751" xlink:href="#a" gradientUnits="userSpaceOnUse" fx="3.299" fy="3.416"/><radialGradient id="j" cx="3.299" cy="3.416" r="2.751" xlink:href="#a" gradientUnits="userSpaceOnUse" fx="3.299" fy="3.416"/><radialGradient id="k" cx="3.299" cy="3.416" r="2.751" xlink:href="#a" gradientUnits="userSpaceOnUse" fx="3.299" fy="3.416"/></defs><g><path fill="url(#b)" d="M45 15.16c-.63.18-1.53 2.6-3.32 5.18-2.14 3.1-8.36 6.24-9.1 6.98-.75.75-2.22 2.07-4.15 3.26-1.18.72-6.87 2.65-8.2 4.2-.48.58-1.82 1.48-2.2 2.18-.3.5-.72 1.83-1.84 2.95-1.13 1.13-2.92 2.02-3.07 2.4-.15.37-2.04 3.5-2.3 3.9-.53.85-1.9.28-1.4-.83.53-1.13 2.02-3.48 1.9-3.78-.1-.3-.44-.28-.74-.1-.3.2-3.33 4-3.9 4.54-.7.67-2-.2-1.3-1.08.45-.6 3.86-4.4 3.66-4.68-.35-.47-5.52 2.9-6.05 3.16-.74.36-1.53-.8-.7-1.52.67-.56 5.67-3.43 5.4-3.8-.25-.38-5.6 1.7-6.04 1.78-.75.15-1.27-.85-.63-1.47.54-.5 5.35-2 6-2.67.55-.55 1.82-1.44 1.6-1.92-.3-.62-2.42-.42-3.13-.38-1.65.08-1.27-1.63.57-1.76 1.05-.08 2.13-.36 2.85-.67.8-.33 1.7-.75 2.84-.75 1.45 0 2.8.74 3.1.56 2.16-1.37 5.85-6.24 8.5-8.17 1.9-1.37 4.36-1.7 5.38-2.92 1.18-1.4 4.6-7 5.18-8.22C38.88-.35 45.9 1.7 47.54 1.7" opacity=".5"/><path fill="#709ec3" stroke="#224b87" d="M31.2 23.05L41.24 7.38l4.57-1.52-.72 4.4-13.87 12.8z"/><path fill="#709ec3" stroke="#224b87" d="M16.26 34.06l10.47-10.38 4.48-.63-2.14 3.85-12.8 7.16z"/><path fill="#fff" d="M26.73 23.68L16.26 34.06 28 25.42l-1.27-1.74z"/><path fill="#a0c6de" d="M28 25.42l3.2-2.37-4.47.63L28 25.42z"/><path fill="#6b8599" d="M28 25.42l1.06 1.48 2.15-3.85-3.2 2.37z"/><path fill="#a0c6de" d="M16.26 34.06L28 25.42l1.06 1.48-12.8 7.16z"/><path fill="#fff" d="M41.23 7.38l2 1.5L31.2 23.04 41.24 7.38z"/><path fill="#a0c6de" d="M43.23 8.87l2.57-3-4.57 1.5 2 1.5z"/><path fill="#a0c6de" d="M45.08 10.25l-1.85-1.38L31.2 23.05l13.88-12.8z"/><path fill="#6b8599" d="M45.8 5.86l-.72 4.4-1.85-1.4 2.57-3z"/><path fill="none" stroke="#d99357" stroke-width="1.5" d="M45 15.16c-.63.18-1.53 2.6-3.32 5.18-2.14 3.1-8.36 6.24-9.1 6.98-.75.75-2.22 2.07-4.15 3.26-1.18.72-6.87 2.65-8.2 4.2-.48.58-1.82 1.48-2.2 2.18-.3.5-.72 1.83-1.84 2.95-1.13 1.13-2.92 2.02-3.07 2.4-.15.37-2.04 3.5-2.3 3.9-.53.85-1.9.28-1.4-.83.53-1.13 2.02-3.48 1.9-3.78-.1-.3-.44-.28-.74-.1-.3.2-3.33 4-3.9 4.54-.7.67-2-.2-1.3-1.08.45-.6 3.86-4.4 3.66-4.68-.35-.47-5.52 2.9-6.05 3.16-.74.36-1.53-.8-.7-1.52.67-.56 5.67-3.43 5.4-3.8-.25-.38-5.6 1.7-6.04 1.78-.75.15-1.27-.85-.63-1.47.54-.5 5.35-2 6-2.67.55-.55 1.82-1.44 1.6-1.92-.3-.62-2.42-.42-3.13-.38-1.65.08-1.27-1.63.57-1.76 1.05-.08 2.13-.36 2.85-.67.8-.33 1.7-.75 2.84-.75 1.45 0 2.8.74 3.1.56 2.16-1.37 5.85-6.24 8.5-8.17 1.9-1.37 4.36-1.7 5.38-2.92 1.18-1.4 4.6-7 5.18-8.22C38.88-.35 45.9 1.7 47.54 1.7"/><path fill="url(#c)" fill-rule="evenodd" stroke="#15335f" stroke-width=".943" d="M6.25 3.9a2.36 2.36 0 1 1-4.72 0 2.36 2.36 0 1 1 4.72 0z" transform="matrix(1.06 0 0 1.06 16.304 19.852)" color="#000" stroke-linecap="round" overflow="visible"/><path fill="url(#d)" fill-rule="evenodd" stroke="#15335f" stroke-width=".943" d="M6.25 3.9a2.36 2.36 0 1 1-4.72 0 2.36 2.36 0 1 1 4.72 0z" transform="matrix(1.06 0 0 1.06 23.876 16.138)" color="#000" stroke-linecap="round" overflow="visible"/><path fill="url(#e)" fill-rule="evenodd" stroke="#15335f" stroke-width=".943" d="M6.25 3.9a2.36 2.36 0 1 1-4.72 0 2.36 2.36 0 1 1 4.72 0z" transform="matrix(1.06 0 0 1.06 28.019 9.281)" color="#000" stroke-linecap="round" overflow="visible"/><path fill="url(#f)" fill-rule="evenodd" stroke="#15335f" stroke-width=".943" d="M6.25 3.9a2.36 2.36 0 1 1-4.72 0 2.36 2.36 0 1 1 4.72 0z" transform="matrix(1.06 0 0 1.06 31.876 13.852)" color="#000" stroke-linecap="round" overflow="visible"/><path fill="url(#g)" fill-rule="evenodd" stroke="#15335f" stroke-width=".943" d="M6.25 3.9a2.36 2.36 0 1 1-4.72 0 2.36 2.36 0 1 1 4.72 0z" transform="matrix(1.06 0 0 1.06 26.59 19.566)" color="#000" stroke-linecap="round" overflow="visible"/><path fill="url(#h)" fill-rule="evenodd" stroke="#15335f" stroke-width=".943" d="M6.25 3.9a2.36 2.36 0 1 1-4.72 0 2.36 2.36 0 1 1 4.72 0z" transform="matrix(1.06 0 0 1.06 19.447 24.709)" color="#000" stroke-linecap="round" overflow="visible"/><path fill="url(#i)" fill-rule="evenodd" stroke="#15335f" stroke-width=".943" d="M6.25 3.9a2.36 2.36 0 1 1-4.72 0 2.36 2.36 0 1 1 4.72 0z" transform="matrix(1.06 0 0 1.06 22.876 28.138)" color="#000" stroke-linecap="round" overflow="visible"/><path fill="url(#j)" fill-rule="evenodd" stroke="#15335f" stroke-width=".943" d="M6.25 3.9a2.36 2.36 0 1 1-4.72 0 2.36 2.36 0 1 1 4.72 0z" transform="matrix(1.06 0 0 1.06 29.447 23.138)" color="#000" stroke-linecap="round" overflow="visible"/><path fill="url(#k)" fill-rule="evenodd" stroke="#15335f" stroke-width=".943" d="M6.25 3.9a2.36 2.36 0 1 1-4.72 0 2.36 2.36 0 1 1 4.72 0z" transform="matrix(1.06 0 0 1.06 36.876 17.852)" color="#000" stroke-linecap="round" overflow="visible"/><path fill="#3465a4" fill-rule="evenodd" stroke="#204a87" stroke-width="2" stroke-dashoffset="1" d="M1 1.16V15h8.63l9.36 7.13-.5-7.13h6.22V1.16H1z" color="#000" stroke-linecap="round" overflow="visible"/><path fill="#eeeeec" d="M7.78 11.52H4.32v-.73h1.3V6.03H4.3V5.4c.5 0 .85-.07 1.08-.2.23-.15.36-.4.4-.8h.72v6.4h1.26v.72zm5.7 0H9.1v-1c.3-.3.6-.58.9-.86.27-.27.54-.55.8-.85.55-.58.9-1.06 1.1-1.4.2-.37.3-.74.3-1.12 0-.2-.03-.37-.1-.52-.05-.15-.13-.27-.24-.37-.1-.1-.24-.18-.4-.22-.13-.05-.3-.07-.47-.07-.18 0-.35.03-.52.07-.17.04-.34.1-.5.16-.13.05-.26.12-.38.2-.13.07-.23.14-.3.2h-.05V4.7c.2-.1.47-.18.82-.28.35-.1.68-.14 1-.14.65 0 1.17.18 1.54.53.4.36.58.83.58 1.43 0 .28-.04.53-.1.77-.07.23-.16.45-.27.65-.1.2-.25.4-.4.62-.18.2-.35.4-.54.6-.3.32-.63.65-1 1-.36.35-.65.63-.87.83h3.47v.82zm2.47 0H14.8v-1.36h1.15v1.36zm3.34-6.4c-.18 0-.35 0-.52.05-.17.04-.34.1-.5.16-.16.06-.3.13-.4.2-.12.07-.22.13-.3.2h-.06v-1c.2-.12.48-.22.84-.3.35-.1.7-.15 1-.15.33 0 .6.03.85.1.25.06.46.17.66.3.2.15.37.34.47.55.1.22.16.47.16.76 0 .38-.14.72-.4 1.02-.25.3-.56.48-.92.56v.07c.15.03.3.07.48.14.17.06.33.17.47.3.15.14.27.32.36.53.08.2.13.47.13.78 0 .33-.06.63-.17.9-.1.26-.26.5-.46.7-.2.22-.45.4-.75.5-.3.1-.62.16-1 .16-.35 0-.7-.04-1.05-.13-.35-.08-.64-.18-.88-.3v-1h.07c.2.14.46.28.8.4.33.14.67.2 1 .2.2 0 .4-.02.58-.08.2-.06.36-.17.5-.3.12-.14.22-.3.28-.47.07-.16.1-.38.1-.63 0-.26-.03-.47-.1-.64-.08-.15-.2-.28-.32-.38-.13-.1-.3-.16-.47-.2-.2-.03-.38-.05-.6-.05h-.4v-.8h.3c.44 0 .8-.1 1.06-.3.27-.2.4-.5.4-.88 0-.2-.04-.34-.1-.47-.07-.13-.16-.23-.27-.3-.12-.1-.26-.15-.4-.18-.15-.03-.3-.04-.47-.04z" style="text-align:start;line-height:125%" font-size="12" font-family="Tahoma"/><path fill="none" stroke="#729fcf" stroke-dashoffset="1" d="M2.5 2.52v10.93h7.6L17.33 19l-.5-5.55h6.54V2.52H2.5z" color="#000" stroke-linecap="round" overflow="visible"/></g></svg>