<svg xmlns="http://www.w3.org/2000/svg" width="48" height="48"><defs><linearGradient id="a" x1="928.462" x2="949.113" y1="1677.34" y2="1712.672" gradientUnits="userSpaceOnUse" gradientTransform="translate(-904.22 -1655.897)"><stop offset="0" stop-color="#FEF3DC"/><stop offset="1" stop-color="#FAAF3E"/></linearGradient></defs><g><path fill="url(#a)" d="M45 15.16c-.63.18-1.53 2.6-3.32 5.18-2.14 3.1-8.36 6.24-9.1 6.98-.75.75-2.22 2.07-4.15 3.26-1.18.72-6.87 2.65-8.2 4.2-.48.58-1.82 1.48-2.2 2.18-.3.5-.72 1.83-1.84 2.95-1.13 1.13-2.92 2.02-3.07 2.4-.15.37-2.04 3.5-2.3 3.9-.53.85-1.9.28-1.4-.83.53-1.13 2.02-3.48 1.9-3.78-.1-.3-.44-.28-.74-.1-.3.2-3.33 4-3.9 4.54-.7.67-2-.2-1.3-1.08.45-.6 3.86-4.4 3.66-4.68-.35-.47-5.52 2.9-6.05 3.16-.74.36-1.53-.8-.7-1.52.67-.56 5.67-3.43 5.4-3.8-.25-.38-5.6 1.7-6.04 1.78-.75.15-1.27-.85-.63-1.47.54-.5 5.35-2 6-2.67.55-.55 1.82-1.44 1.6-1.92-.3-.62-2.42-.42-3.13-.38-1.65.08-1.27-1.63.57-1.76 1.05-.08 2.13-.36 2.85-.67.8-.33 1.7-.75 2.84-.75 1.45 0 2.8.74 3.1.56 2.16-1.37 5.85-6.24 8.5-8.17 1.9-1.37 4.36-1.7 5.38-2.92 1.18-1.4 4.6-7 5.18-8.22C38.88-.35 45.9 1.7 47.54 1.7" opacity=".5"/><path fill="#709ec3" stroke="#224b87" d="M31.2 23.05L41.24 7.38l4.57-1.52-.72 4.4-13.87 12.8z"/><path fill="#709ec3" stroke="#224b87" d="M16.26 34.06l10.47-10.38 4.48-.63-2.14 3.85-12.8 7.16z"/><path fill="#fff" d="M26.73 23.68L16.26 34.06 28 25.42l-1.27-1.74z"/><path fill="#a0c6de" d="M28 25.42l3.2-2.37-4.47.63L28 25.42z"/><path fill="#6b8599" d="M28 25.42l1.06 1.48 2.15-3.85-3.2 2.37z"/><path fill="#a0c6de" d="M16.26 34.06L28 25.42l1.06 1.48-12.8 7.16z"/><path fill="#fff" d="M41.23 7.38l2 1.5L31.2 23.04 41.24 7.38z"/><path fill="#a0c6de" d="M43.23 8.87l2.57-3-4.57 1.5 2 1.5z"/><path fill="#a0c6de" d="M45.08 10.25l-1.85-1.38L31.2 23.05l13.88-12.8z"/><path fill="#6b8599" d="M45.8 5.86l-.72 4.4-1.85-1.4 2.57-3z"/><path fill="none" stroke="#d99357" stroke-width="1.5" d="M45 15.16c-.63.18-1.53 2.6-3.32 5.18-2.14 3.1-8.36 6.24-9.1 6.98-.75.75-2.22 2.07-4.15 3.26-1.18.72-6.87 2.65-8.2 4.2-.48.58-1.82 1.48-2.2 2.18-.3.5-.72 1.83-1.84 2.95-1.13 1.13-2.92 2.02-3.07 2.4-.15.37-2.04 3.5-2.3 3.9-.53.85-1.9.28-1.4-.83.53-1.13 2.02-3.48 1.9-3.78-.1-.3-.44-.28-.74-.1-.3.2-3.33 4-3.9 4.54-.7.67-2-.2-1.3-1.08.45-.6 3.86-4.4 3.66-4.68-.35-.47-5.52 2.9-6.05 3.16-.74.36-1.53-.8-.7-1.52.67-.56 5.67-3.43 5.4-3.8-.25-.38-5.6 1.7-6.04 1.78-.75.15-1.27-.85-.63-1.47.54-.5 5.35-2 6-2.67.55-.55 1.82-1.44 1.6-1.92-.3-.62-2.42-.42-3.13-.38-1.65.08-1.27-1.63.57-1.76 1.05-.08 2.13-.36 2.85-.67.8-.33 1.7-.75 2.84-.75 1.45 0 2.8.74 3.1.56 2.16-1.37 5.85-6.24 8.5-8.17 1.9-1.37 4.36-1.7 5.38-2.92 1.18-1.4 4.6-7 5.18-8.22C38.88-.35 45.9 1.7 47.54 1.7"/></g></svg>