<svg xmlns="http://www.w3.org/2000/svg" width="48" height="48"><defs><linearGradient x1="1239.725" x2="1263.851" y1="1679.832" y2="1679.832" gradientUnits="userSpaceOnUse" gradientTransform="translate(-1236.908 -1654.707)"><stop offset=".213" stop-color="#DBDFE1"/><stop offset="1" stop-color="#A1ACB3"/></linearGradient><linearGradient id="a" x1="1287.725" x2="1263.349" y1="1679.832" y2="1679.832" gradientUnits="userSpaceOnUse" gradientTransform="translate(-1239.794 -1655.737)"><stop offset=".213" stop-color="#DBDFE1"/><stop offset="1" stop-color="#A1ACB3"/></linearGradient><linearGradient id="b" x1="1241.02" x2="1242.769" y1="1687.923" y2="1689.015" gradientUnits="userSpaceOnUse" gradientTransform="translate(-1239.794 -1655.737)"><stop offset=".006" stop-color="#F3D196"/><stop offset=".13" stop-color="#F3CD90"/><stop offset=".282" stop-color="#F2C380"/><stop offset=".448" stop-color="#F1B367"/><stop offset=".623" stop-color="#F09D46"/><stop offset=".68" stop-color="#F0943B"/></linearGradient><radialGradient id="c" cx="1153.467" cy="1590.333" r=".862" gradientUnits="userSpaceOnUse" gradientTransform="matrix(.994 -.112 .112 .994 -1320.622 -1420.907)" fy="1590.333" fx="1153.467"><stop offset="0" stop-color="#F3D196"/><stop offset=".129" stop-color="#F3D196"/><stop offset="1" stop-color="#EE8424"/></radialGradient><radialGradient id="d" cx="1159.817" cy="1584.506" r=".985" gradientUnits="userSpaceOnUse" gradientTransform="matrix(.994 -.112 .112 .994 -1320.622 -1420.907)" fy="1584.506" fx="1159.817"><stop offset="0" stop-color="#F3D196"/><stop offset=".129" stop-color="#F3D196"/><stop offset="1" stop-color="#EE8424"/></radialGradient><radialGradient id="e" cx="3275.529" cy="1027.678" r="2.14" gradientUnits="userSpaceOnUse" gradientTransform="matrix(-.816 .579 .579 .816 2093.343 -2717.683)" fy="1027.678" fx="3275.529"><stop offset="0" stop-color="#F3D196"/><stop offset=".129" stop-color="#F3D196"/><stop offset="1" stop-color="#EE8424"/></radialGradient><linearGradient id="f" x1="1255.402" x2="1260.924" y1="1699.412" y2="1699.857" gradientUnits="userSpaceOnUse" gradientTransform="translate(-1239.794 -1655.737)"><stop offset=".006" stop-color="#F3A453"/><stop offset=".343" stop-color="#F3D196"/><stop offset=".466" stop-color="#F3D196"/><stop offset="1" stop-color="#EE8424"/></linearGradient><linearGradient id="g" x1="2875.382" x2="2869.747" y1="1700.031" y2="1699.378" gradientTransform="matrix(-1 0 0 1 2901.845 -1655.737)" gradientUnits="userSpaceOnUse"><stop offset="0" stop-color="#F4B167"/><stop offset=".292" stop-color="#F3D196"/><stop offset=".421" stop-color="#F3D196"/><stop offset="1" stop-color="#EE8424"/></linearGradient><radialGradient id="h" cx="1258.47" cy="1695.058" r="3.231" gradientUnits="userSpaceOnUse" fy="1695.058" fx="1258.47" gradientTransform="translate(-1239.794 -1655.737)"><stop offset="0" stop-color="#F3D196"/><stop offset=".129" stop-color="#F3D196"/><stop offset="1" stop-color="#EE8424"/></radialGradient><radialGradient id="i" cx="2877.746" cy="1695.28" r="2.856" gradientUnits="userSpaceOnUse" gradientTransform="matrix(-1 0 0 1 2905.583 -1655.737)" fy="1695.28" fx="2877.746"><stop offset="0" stop-color="#F3D196"/><stop offset=".129" stop-color="#F3D196"/><stop offset="1" stop-color="#EE8424"/></radialGradient><radialGradient id="j" cx="1375.465" cy="1688.701" r="7.266" gradientUnits="userSpaceOnUse" gradientTransform="matrix(1.108 0 0 1 -1502.586 -1655.737)" fy="1688.701" fx="1375.465"><stop offset="0" stop-color="#F3D196"/><stop offset=".197" stop-color="#F3D196"/><stop offset="1" stop-color="#EE8424"/></radialGradient><radialGradient id="k" cx="1261.758" cy="1684.266" r="6.379" gradientUnits="userSpaceOnUse" fy="1684.266" fx="1261.758" gradientTransform="translate(-1239.794 -1655.737)"><stop offset="0" stop-color="#F3D196"/><stop offset="1" stop-color="#EE8324"/></radialGradient><linearGradient id="l" x1="1162.623" x2="1164.548" y1="1580.968" y2="1583.292" gradientTransform="matrix(.994 -.112 .112 .994 -1320.622 -1420.907)" gradientUnits="userSpaceOnUse"><stop offset="0" stop-color="#F4B167"/><stop offset=".292" stop-color="#F3D196"/><stop offset=".421" stop-color="#F3D196"/><stop offset="1" stop-color="#EE8424"/></linearGradient><linearGradient id="m" x1="1155.712" x2="1157.381" y1="1586.855" y2="1588.653" gradientTransform="matrix(.994 -.112 .112 .994 -1320.622 -1420.907)" gradientUnits="userSpaceOnUse"><stop offset="0" stop-color="#F4B167"/><stop offset=".292" stop-color="#F3D196"/><stop offset=".421" stop-color="#F3D196"/><stop offset="1" stop-color="#EE8424"/></linearGradient><linearGradient id="n" x1="1556.729" x2="1555.484" y1="1943.885" y2="1945.458" gradientTransform="matrix(.937 .349 -.349 .937 -733.062 -2332.753)" gradientUnits="userSpaceOnUse"><stop offset=".006" stop-color="#F0943B"/><stop offset=".388" stop-color="#F3D196"/><stop offset=".534" stop-color="#F3D196"/><stop offset="1" stop-color="#F0943B"/></linearGradient><radialGradient id="o" cx="2778.583" cy="1773.828" r=".862" gradientUnits="userSpaceOnUse" gradientTransform="matrix(-.994 -.112 -.112 .994 3004.202 -1420.907)" fy="1773.828" fx="2778.583"><stop offset="0" stop-color="#F3D196"/><stop offset=".129" stop-color="#F3D196"/><stop offset="1" stop-color="#EE8424"/></radialGradient><radialGradient id="p" cx="2785.106" cy="1767.922" r="1.003" gradientUnits="userSpaceOnUse" gradientTransform="matrix(-.994 -.112 -.112 .994 3004.202 -1420.907)" fy="1767.922" fx="2785.106"><stop offset="0" stop-color="#F3D196"/><stop offset=".129" stop-color="#F3D196"/><stop offset="1" stop-color="#EE8424"/></radialGradient><radialGradient id="q" cx="1941.697" cy="1974.644" r="1.927" gradientUnits="userSpaceOnUse" gradientTransform="matrix(.816 .579 -.579 .816 -409.763 -2717.683)" fy="1974.644" fx="1941.697"><stop offset="0" stop-color="#F3D196"/><stop offset=".129" stop-color="#F3D196"/><stop offset="1" stop-color="#EE8424"/></radialGradient><radialGradient id="r" cx="1262.079" cy="1672.956" r="9.268" gradientUnits="userSpaceOnUse" fy="1672.956" fx="1262.079" gradientTransform="translate(-1239.794 -1655.737)"><stop offset="0" stop-color="#F3D196"/><stop offset=".197" stop-color="#F3D196"/><stop offset="1" stop-color="#EE8424"/></radialGradient><linearGradient id="s" x1="2787.74" x2="2789.665" y1="1764.462" y2="1766.785" gradientTransform="matrix(-.994 -.112 -.112 .994 3004.202 -1420.907)" gradientUnits="userSpaceOnUse"><stop offset="0" stop-color="#F4B167"/><stop offset=".292" stop-color="#F3D196"/><stop offset=".421" stop-color="#F3D196"/><stop offset="1" stop-color="#EE8424"/></linearGradient><linearGradient id="t" x1="2780.829" x2="2782.498" y1="1770.349" y2="1772.147" gradientTransform="matrix(-.994 -.112 -.112 .994 3004.202 -1420.907)" gradientUnits="userSpaceOnUse"><stop offset="0" stop-color="#F4B167"/><stop offset=".292" stop-color="#F3D196"/><stop offset=".421" stop-color="#F3D196"/><stop offset="1" stop-color="#EE8424"/></linearGradient><radialGradient id="u" cx="2801.842" cy="1668.428" r="3.049" gradientUnits="userSpaceOnUse" gradientTransform="matrix(-1.137 0 0 1 3207.878 -1655.737)" fy="1668.428" fx="2801.842"><stop offset="0" stop-color="#F3D196"/><stop offset=".129" stop-color="#F3D196"/><stop offset="1" stop-color="#EE8424"/></radialGradient><radialGradient id="v" cx="2900.348" cy="1660.462" r="5.506" gradientUnits="userSpaceOnUse" gradientTransform="matrix(-1 0 0 1 2923.325 -1655.737)" fy="1660.462" fx="2900.348"><stop offset="0" stop-color="#F3D196"/><stop offset=".197" stop-color="#F3D196"/><stop offset="1" stop-color="#EE8424"/></radialGradient></defs><g><path fill="url(#a)" d="M23.68.1h24.25v48H23.68z"/><g fill="none" stroke="#66330d" stroke-width="1.2"><path d="M4.67 30.82c.04-.1.05-.17.02-.2-.53-.08-1.5-.37-1.6-.6-.1-.2-.73.3-1.5 1.55-1.7 2.85-.73 4.12-.63 4.2.1.06 3.52-4.5 3.7-4.95z"/><path d="M3.57 29.3c.3-.07 1.03.12 1.42.74.05.1-.3.64-.46.64-.14 0-1.42-.4-1.48-.57-.07-.16.2-.75.5-.8z"/><path d="M9.62 22.6c.5-.03 1.44.78 1.46 1.63 0 .24-.55.8-.94.82-.22.02-1.5-1-1.52-1.33-.03-.4.6-1.12 1-1.13z"/><path d="M17.56 14.56c-1.78-.18-2.82 1.9-2.9 2.4-.04.22 2.15 1.7 2.43 2.3.15.33.46-4.7.46-4.7z"/><path d="M15.57 47.76c.05-3.76.27-7.4.7-7.68.98-.67 4.7-.1 5.22.8.28.5-.1 3.58-.65 6.88"/><path d="M32.28 47.76c-.05-3.76-.26-7.4-.7-7.68-.98-.67-4.7-.1-5.22.8-.3.5.1 3.58.64 6.88"/><path d="M22.1 38.5c.3.32-.45 2.4-.7 2.5-1.2.58-4.3.07-4.77-.72-.33-.55-.04-2.5.4-2.7 1.15-.52 4.67.47 5.07.9z"/><path d="M25.96 38.5c-.3.32.45 2.4.7 2.5 1.2.58 4.3.07 4.77-.72.33-.55.04-2.5-.4-2.7-1.14-.52-4.67.47-5.07.9z"/><path d="M30.1 29.6c.22.1 1.63 7.3 1.28 7.84-.2.47-4.27 1.25-7.33 1.26-3.06 0-7.14-.8-7.33-1.26-.34-.55 1.06-7.75 1.3-7.84H30.1z"/><path d="M24.05 30.74c2.23.02 5.55-.4 5.86-.95.15-.26 0-2.58-.37-2.76-.76-.4-3.54-.58-5.5-.5h.03c-1.95-.08-4.73.1-5.5.5-.36.18-.5 2.5-.37 2.75.3.54 3.62.96 5.85.94z"/><path d="M14.97 17.02c.37-.06 2.2 1.8 2.02 2.04-.52.6-5.04 4.9-5.85 5.22-.23.1-1.8-1.5-1.58-1.77 1.32-1.73 4.77-5.38 5.4-5.48z"/><path d="M8.6 23.58c.12.18.98 1.14 1.6 1.48.23.13-4.64 4.94-5.07 5.03-.4.07-1.62-.6-1.66-.9-.04-.34 5.1-5.8 5.13-5.62z"/><path d="M43.45 30.82c-.04-.1-.05-.17-.03-.2.52-.08 1.5-.37 1.6-.6.1-.2.73.3 1.48 1.55 1.73 2.85.75 4.12.64 4.2-.1.06-3.52-4.5-3.7-4.95z"/><path d="M44.54 29.3c-.3-.07-1.03.12-1.4.74-.08.1.26.64.43.64.15 0 1.42-.4 1.48-.57.07-.16-.2-.75-.5-.8z"/><path d="M38.5 22.6c-.5-.03-1.45.78-1.47 1.63 0 .24.56.8.94.82.22.02 1.5-1 1.52-1.33.03-.4-.6-1.12-1-1.13z"/><path d="M30.56 14.56c1.77-.18 2.82 1.9 2.9 2.4.03.22-2.15 1.7-2.44 2.3-.15.33-.46-4.7-.46-4.7z"/><path d="M24.06 27.38c2.34 0 5.3-.12 5.5-.37.44-.52 1.12-5.94 1.42-7.35.08-.37.1-5.05-.5-5.3-1.2-.5-4.4-1.1-6.43-1.08-2.02-.02-5.2.6-6.42 1.1-.58.23-.58 4.9-.5 5.28.3 1.4 1 6.83 1.42 7.36.2.26 3.17.38 5.5.38z"/><path d="M33.14 17.02c-.36-.06-2.2 1.8-2 2.04.5.6 5.02 4.9 5.82 5.22.24.1 1.8-1.5 1.58-1.77-1.3-1.73-4.76-5.38-5.4-5.48z"/><path d="M39.5 23.58c-.1.18-.96 1.14-1.58 1.48-.23.13 4.63 4.94 5.06 5.03.4.07 1.62-.6 1.66-.9.04-.34-5.1-5.8-5.13-5.62z"/><path d="M21.2 11c-.23.1-.2 2.28-.03 2.48.18.2 1.73.5 2.88.5s2.7-.3 2.88-.5c.17-.2.2-2.37-.04-2.48h-5.7z"/><path d="M24.05 11.4c-.93 0-2.78-.07-2.97-.3-.5-.6-1.55-2.05-1.72-4.68-.07-1 .26-2.27 1-3.24.9-1.2 3.15-1.34 3.68-1.34.54 0 2.8.15 3.7 1.34.73.97 1.06 2.25 1 3.24-.18 2.63-1.22 4.1-1.73 4.7-.17.2-2.03.27-2.95.27z"/></g><path fill="url(#b)" stroke="#66330d" stroke-width=".25" d="M4.67 30.82c.04-.1.05-.17.02-.2-.53-.08-1.5-.37-1.6-.6-.1-.2-.73.3-1.5 1.55-1.7 2.85-.73 4.12-.63 4.2.1.06 3.52-4.5 3.7-4.95z"/><path fill="url(#c)" stroke="#66330d" stroke-width=".25" d="M3.58 29.3c.3-.07 1.02.13 1.4.74.07.1-.27.64-.44.64-.14 0-1.4-.4-1.48-.57-.07-.16.2-.75.52-.8z"/><path fill="url(#d)" stroke="#66330d" stroke-width=".25" d="M9.62 22.6c.5-.03 1.44.8 1.47 1.63 0 .24-.57.8-.96.82-.2.02-1.5-1-1.52-1.33-.03-.4.6-1.12 1-1.13z"/><path fill="url(#e)" stroke="#66330d" stroke-width=".25" d="M17.56 14.56c-1.78-.17-2.82 1.9-2.9 2.4-.03.22 2.15 1.7 2.43 2.3.15.33.46-4.7.46-4.7z"/><path fill="url(#f)" stroke="#66330d" stroke-width=".25" d="M15.57 47.76c.05-3.76.27-7.4.7-7.68.98-.67 4.7-.1 5.23.8.28.5-.1 3.58-.65 6.88"/><path fill="url(#g)" stroke="#66330d" stroke-width=".25" d="M32.28 47.76c-.05-3.76-.26-7.4-.7-7.68-.98-.67-4.7-.1-5.22.8-.3.5.1 3.58.64 6.88"/><path fill="url(#h)" stroke="#66330d" stroke-width=".25" d="M22.1 38.5c.3.32-.45 2.4-.7 2.52-1.2.56-4.3.05-4.77-.74-.33-.55-.04-2.5.4-2.7 1.15-.52 4.67.47 5.07.92z"/><path fill="url(#i)" stroke="#66330d" stroke-width=".25" d="M25.96 38.5c-.3.32.45 2.4.7 2.52 1.2.56 4.3.05 4.77-.74.33-.55.04-2.5-.4-2.7-1.14-.52-4.67.47-5.07.92z"/><path fill="url(#j)" stroke="#66330d" stroke-width=".25" d="M30.1 29.6c.22.1 1.63 7.3 1.28 7.84-.2.47-4.27 1.25-7.33 1.26-3.06 0-7.14-.8-7.32-1.26-.35-.55 1.05-7.75 1.3-7.84h12.06z"/><path fill="url(#k)" stroke="#66330d" stroke-width=".25" d="M24.05 30.74c2.23.02 5.55-.4 5.86-.95.15-.25 0-2.58-.37-2.76-.76-.38-3.54-.58-5.5-.5h.03c-1.95-.08-4.73.12-5.5.5-.36.18-.5 2.5-.37 2.75.3.54 3.62.96 5.85.94z"/><path fill="url(#l)" stroke="#66330d" stroke-width=".25" d="M14.97 17.02c.37-.06 2.2 1.8 2.02 2.04-.52.6-5.04 4.9-5.85 5.22-.23.1-1.8-1.5-1.58-1.77 1.32-1.73 4.77-5.38 5.4-5.48z"/><path fill="url(#m)" stroke="#66330d" stroke-width=".25" d="M8.6 23.58c.12.18.98 1.14 1.6 1.48.23.14-4.64 4.94-5.07 5.03-.4.07-1.62-.6-1.66-.9-.04-.34 5.1-5.8 5.13-5.62z"/><path fill="url(#n)" stroke="#66330d" stroke-width=".25" d="M43.45 30.82c-.04-.1-.05-.17-.03-.2.52-.08 1.5-.37 1.6-.6.1-.2.73.3 1.48 1.55 1.73 2.85.75 4.12.64 4.2-.1.06-3.52-4.5-3.7-4.95z"/><path fill="url(#o)" stroke="#66330d" stroke-width=".25" d="M44.54 29.3c-.3-.07-1.03.13-1.4.74-.08.1.26.64.43.64.15 0 1.42-.4 1.48-.57.07-.16-.2-.75-.5-.8z"/><path fill="url(#p)" stroke="#66330d" stroke-width=".25" d="M38.5 22.6c-.5-.03-1.45.8-1.47 1.63 0 .24.56.8.94.82.22.02 1.5-1 1.52-1.33.03-.4-.6-1.12-1-1.13z"/><path fill="url(#q)" stroke="#66330d" stroke-width=".25" d="M30.56 14.56c1.77-.17 2.82 1.9 2.9 2.4.03.22-2.15 1.7-2.44 2.3-.15.33-.46-4.7-.46-4.7z"/><path fill="url(#r)" stroke="#66330d" stroke-width=".25" d="M24.06 27.38c2.34 0 5.3-.1 5.5-.37.44-.5 1.12-5.94 1.42-7.35.08-.37.1-5.05-.5-5.3-1.2-.5-4.4-1.1-6.42-1.08-2.03-.02-5.2.6-6.42 1.1-.6.23-.6 4.9-.5 5.28.3 1.4.98 6.84 1.4 7.36.22.26 3.18.38 5.52.38z"/><path fill="url(#s)" stroke="#66330d" stroke-width=".25" d="M33.14 17.02c-.36-.06-2.2 1.8-2 2.04.5.6 5.02 4.9 5.83 5.22.23.1 1.78-1.5 1.58-1.77-1.32-1.73-4.77-5.38-5.4-5.48z"/><path fill="url(#t)" stroke="#66330d" stroke-width=".25" d="M39.5 23.58c-.1.18-.96 1.14-1.58 1.48-.23.14 4.63 4.94 5.06 5.03.4.07 1.63-.6 1.66-.9.04-.34-5.08-5.8-5.13-5.62z"/><path fill="url(#u)" stroke="#66330d" stroke-width=".25" d="M21.2 11c-.22.1-.2 2.28-.03 2.48.18.2 1.73.52 2.88.52s2.7-.3 2.88-.52c.17-.2.2-2.37-.04-2.47h-5.7z"/><path fill="url(#v)" stroke="#66330d" stroke-width=".25" d="M24.05 11.4c-.93 0-2.78-.07-2.97-.3-.5-.6-1.55-2.05-1.72-4.68-.07-1 .26-2.27 1-3.24.9-1.2 3.15-1.34 3.68-1.34.54 0 2.8.15 3.7 1.34.73.97 1.06 2.25 1 3.24-.18 2.63-1.22 4.1-1.73 4.7-.17.2-2.03.27-2.95.27z"/><g><path fill="#fff" d="M22.6.1h3v48h-3z"/></g><g><path d="M23.86.1h.5v48h-.5z"/></g></g></svg>