<svg xmlns="http://www.w3.org/2000/svg" width="48" height="48" xmlns:xlink="http://www.w3.org/1999/xlink"><defs><linearGradient id="a"><stop offset="0" stop-color="#eeeeec"/><stop offset="1" stop-color="#eeeeec" stop-opacity="0"/></linearGradient><linearGradient id="g" x1="14.66" x2="8.418" y1="14.525" y2="8.051" xlink:href="#a" gradientUnits="userSpaceOnUse" gradientTransform="matrix(1.163 0 0 1.163 21.87 20.89)"/><linearGradient id="b"><stop offset="0" stop-color="#eeeeec" stop-opacity=".502"/><stop offset="1" stop-color="#fff" stop-opacity=".753"/></linearGradient><linearGradient id="f" x1="3.951" x2="18.85" y1="4.049" y2="19.25" xlink:href="#b" gradientUnits="userSpaceOnUse" gradientTransform="matrix(1.099 0 0 1.099 22.673 21.648)"/><linearGradient id="c" x1="208.958" x2="182.122" y1="247.744" y2="206.743" gradientUnits="userSpaceOnUse"><stop offset="0" stop-color="#8EA3B2"/><stop offset="1" stop-color="#DCE6E9"/></linearGradient><linearGradient id="e" x1="208.278" x2="182.122" y1="246.343" y2="206.743" xlink:href="#c" gradientUnits="userSpaceOnUse" gradientTransform="matrix(.617 -.036 0 .609 -83.768 -94.682)"/><linearGradient id="d" x1="928.462" x2="949.113" y1="1677.34" y2="1712.672" gradientUnits="userSpaceOnUse" gradientTransform="translate(-904.22 -1655.897)"><stop offset="0" stop-color="#FEF3DC"/><stop offset="1" stop-color="#FAAF3E"/></linearGradient></defs><g><path fill="url(#d)" d="M45 15.16c-.63.18-1.53 2.6-3.32 5.18-2.14 3.1-8.36 6.24-9.1 6.98-.75.75-2.22 2.07-4.15 3.26-1.18.72-6.87 2.65-8.2 4.2-.48.58-1.82 1.48-2.2 2.18-.3.5-.72 1.83-1.84 2.95-1.13 1.13-2.92 2.02-3.07 2.4-.15.37-2.04 3.5-2.3 3.9-.53.85-1.9.28-1.4-.83.53-1.13 2.02-3.48 1.9-3.78-.1-.3-.44-.28-.74-.1-.3.2-3.33 4-3.9 4.54-.7.67-2-.2-1.3-1.08.45-.6 3.86-4.4 3.66-4.68-.35-.47-5.52 2.9-6.05 3.16-.74.36-1.53-.8-.7-1.52.67-.56 5.67-3.43 5.4-3.8-.25-.38-5.6 1.7-6.04 1.78-.75.15-1.27-.85-.63-1.47.54-.5 5.35-2 6-2.67.55-.55 1.82-1.44 1.6-1.92-.3-.62-2.42-.42-3.13-.38-1.65.08-1.27-1.63.57-1.76 1.05-.08 2.13-.36 2.85-.67.8-.33 1.7-.75 2.84-.75 1.45 0 2.8.74 3.1.56 2.16-1.37 5.85-6.24 8.5-8.17 1.9-1.37 4.36-1.7 5.38-2.92 1.18-1.4 4.6-7 5.18-8.22C38.88-.35 45.9 1.7 47.54 1.7" opacity=".5"/><path fill="#709ec3" stroke="#224b87" d="M31.2 23.05L41.24 7.38l4.57-1.52-.72 4.4-13.87 12.8z"/><path fill="#709ec3" stroke="#224b87" d="M16.26 34.06l10.47-10.38 4.48-.63-2.14 3.85-12.8 7.16z"/><path fill="#fff" d="M26.73 23.68L16.26 34.06 28 25.42l-1.27-1.74z"/><path fill="#a0c6de" d="M28 25.42l3.2-2.37-4.47.63L28 25.42z"/><path fill="#6b8599" d="M28 25.42l1.06 1.48 2.15-3.85-3.2 2.37z"/><path fill="#a0c6de" d="M16.26 34.06L28 25.42l1.06 1.48-12.8 7.16z"/><path fill="#fff" d="M41.23 7.38l2 1.5L31.2 23.04 41.24 7.38z"/><path fill="#a0c6de" d="M43.23 8.87l2.57-3-4.57 1.5 2 1.5z"/><path fill="#a0c6de" d="M45.08 10.25l-1.85-1.38L31.2 23.05l13.88-12.8z"/><path fill="#6b8599" d="M45.8 5.86l-.72 4.4-1.85-1.4 2.57-3z"/><path fill="none" stroke="#d99357" stroke-width="1.5" d="M45 15.16c-.63.18-1.53 2.6-3.32 5.18-2.14 3.1-8.36 6.24-9.1 6.98-.75.75-2.22 2.07-4.15 3.26-1.18.72-6.87 2.65-8.2 4.2-.48.58-1.82 1.48-2.2 2.18-.3.5-.72 1.83-1.84 2.95-1.13 1.13-2.92 2.02-3.07 2.4-.15.37-2.04 3.5-2.3 3.9-.53.85-1.9.28-1.4-.83.53-1.13 2.02-3.48 1.9-3.78-.1-.3-.44-.28-.74-.1-.3.2-3.33 4-3.9 4.54-.7.67-2-.2-1.3-1.08.45-.6 3.86-4.4 3.66-4.68-.35-.47-5.52 2.9-6.05 3.16-.74.36-1.53-.8-.7-1.52.67-.56 5.67-3.43 5.4-3.8-.25-.38-5.6 1.7-6.04 1.78-.75.15-1.27-.85-.63-1.47.54-.5 5.35-2 6-2.67.55-.55 1.82-1.44 1.6-1.92-.3-.62-2.42-.42-3.13-.38-1.65.08-1.27-1.63.57-1.76 1.05-.08 2.13-.36 2.85-.67.8-.33 1.7-.75 2.84-.75 1.45 0 2.8.74 3.1.56 2.16-1.37 5.85-6.24 8.5-8.17 1.9-1.37 4.36-1.7 5.38-2.92 1.18-1.4 4.6-7 5.18-8.22C38.88-.35 45.9 1.7 47.54 1.7"/><path fill="#2e3436" fill-opacity=".502" d="M46.23 36.47c.02-.33.02-.67 0-1l2.75-1.44c-.14-.87-.37-1.72-.68-2.52l-3.13.16c-.14-.28-.3-.56-.48-.83l1.66-2.68c-.55-.66-1.15-1.26-1.83-1.8l-2.6 1.74c-.27-.18-.56-.34-.85-.5l.1-3.13c-.38-.14-.78-.26-1.2-.36-.42-.1-.83-.17-1.25-.23l-1.4 2.8c-.32 0-.64 0-.96 0l-1.46-2.72c-.84.16-1.66.4-2.45.72l.18 3.07c-.28.14-.56.3-.83.48l-2.64-1.6c-.66.52-1.26 1.13-1.8 1.8l1.72 2.52c-.17.27-.33.55-.48.83l-3.1-.13c-.16.4-.3.78-.4 1.2-.1.4-.18.8-.25 1.2l2.8 1.4c-.03.3-.02.62 0 .94l-2.76 1.37c.13.82.36 1.62.67 2.4l3.1-.1c.17.28.33.56.5.83l-1.66 2.53c.56.67 1.17 1.28 1.84 1.83l2.6-1.6c.27.17.56.34.85.5l-.15 3.06c.4.15.82.3 1.24.42.4.12.82.22 1.24.3l1.4-2.72c.33.03.65.04.98.03l1.44 2.8c.85-.1 1.68-.3 2.47-.58l-.17-3.15c.28-.14.56-.3.82-.47l2.63 1.78c.67-.52 1.27-1.12 1.8-1.8l-1.7-2.7c.17-.26.33-.54.47-.84l3.12.17c.14-.4.26-.8.37-1.2.1-.45.2-.88.26-1.32l-2.8-1.43zm-9.3 2.87c-1.87-.04-3.4-1.58-3.4-3.44 0-1.87 1.52-3.36 3.4-3.35 1.88 0 3.4 1.55 3.4 3.44 0 1.88-1.52 3.38-3.4 3.34z"/><path fill="url(#e)" stroke="#2e3436" d="M44.6 34.8v-1l2.75-1.44-.68-2.53-3.13.16-.48-.85 1.67-2.67-1.83-1.8-2.6 1.74-.85-.48.1-3.14-2.45-.6-1.4 2.8h-.96l-1.46-2.72-2.46.7.18 3.08-.83.5-2.64-1.62-1.8 1.8 1.72 2.53-.48.83-3.1-.13-.65 2.4 2.8 1.38v.96l-2.76 1.38.68 2.4 3.1-.1.5.83-1.66 2.54 1.83 1.8 2.6-1.6.86.5-.14 3.08 2.48.73 1.4-2.72 1 .03 1.43 2.8 2.47-.58-.17-3.15.82-.47 2.63 1.78 1.8-1.8-1.72-2.7.48-.85 3.12.16.63-2.52-2.8-1.44zm-9.3 2.87c-1.88-.04-3.4-1.58-3.4-3.44 0-1.87 1.52-3.37 3.4-3.35 1.88 0 3.4 1.55 3.4 3.44 0 1.88-1.52 3.38-3.4 3.35z" stroke-linecap="round" stroke-linejoin="round"/><path fill="none" stroke="url(#f)" stroke-opacity=".753" stroke-width=".5" d="M43.82 35.44l.03-2.2 2.6-1.3-.4-1.26-2.97.14L42.1 29l1.7-2.4-.9-.9-2.57 1.7-1.68-1.04.07-3-1.25-.3-1.16 2.73-2.03-.03-1.44-2.56-1.2.33.2 2.86-1.67 1.04-2.56-1.62-.92.97 1.67 2.34-.9 1.85-3.04-.24-.24 1.22 2.64 1.23.13 1.97-2.7 1.4.3 1.07 2.9-.13 1.16 1.8-1.75 2.38.95.86L30.2 41l1.85 1-.16 2.93 1.13.3 1.35-2.43 2.06-.14 1.43 2.87 1.1-.4-.2-2.9 1.8-1.1 2.52 1.83.73-.9-1.6-2.4 1.05-2.07 2.9.33.33-1.3-2.68-1.2z" stroke-linecap="round" stroke-linejoin="round"/><path fill="none" stroke="url(#g)" d="M35.33 38.76c-2.5-.05-4.54-2.1-4.54-4.6 0-2.5 2.02-4.5 4.53-4.47 2.5 0 4.55 2.07 4.55 4.6 0 2.5-2.04 4.5-4.55 4.46z" stroke-linecap="round" stroke-linejoin="round"/></g></svg>