<svg xmlns="http://www.w3.org/2000/svg" width="48" height="48" xmlns:xlink="http://www.w3.org/1999/xlink"><defs><linearGradient id="g"><stop offset="0" stop-color="#fff"/><stop offset="1" stop-color="#fff" stop-opacity="0"/></linearGradient><linearGradient id="f"><stop offset="0" stop-color="#fef088"/><stop offset=".5" stop-color="#fde63a"/><stop offset="1" stop-color="#dac203"/></linearGradient><linearGradient id="e"><stop offset="0" stop-color="#dac203"/><stop offset=".5" stop-color="#fdec69"/><stop offset="1" stop-color="#fdef7e"/></linearGradient><linearGradient id="a"><stop offset="0"/><stop offset="1" stop-opacity="0"/></linearGradient><radialGradient id="h" cx="22.571" cy="30.857" r="15.571" xlink:href="#a" fx="22.571" fy="30.857" gradientTransform="matrix(1 0 0 .651 0 10.758)" gradientUnits="userSpaceOnUse"/><linearGradient id="d"><stop offset="0" stop-color="#b30000"/><stop offset=".5" stop-color="#ff5c5c"/><stop offset="1" stop-color="#c30000"/></linearGradient><linearGradient id="c"><stop offset="0" stop-color="#c17d10"/><stop offset="1" stop-color="#9b650c"/></linearGradient><linearGradient id="b"><stop offset="0" stop-color="#c4a000"/><stop offset="1" stop-color="#c4a000" stop-opacity="0"/></linearGradient><linearGradient id="l" x1="9.105" x2="10.147" y1="38.828" y2="30.141" xlink:href="#b" gradientUnits="userSpaceOnUse" gradientTransform="matrix(.904 -.522 .833 1.442 -20.878 -10.695)"/><linearGradient id="m" x1="19.616" x2="18.486" y1="39.253" y2="29.909" xlink:href="#b" gradientUnits="userSpaceOnUse" gradientTransform="matrix(.904 -.522 .833 1.443 -20.909 -10.75)"/><linearGradient id="n" x1="15.097" x2="14.045" y1="36.968" y2="29" xlink:href="#b" gradientUnits="userSpaceOnUse" gradientTransform="matrix(.904 -.522 .881 1.525 -25.098 -12.688)"/><linearGradient id="o" x1="14.045" x2="14.045" y1="37.576" y2="29" xlink:href="#b" gradientUnits="userSpaceOnUse" gradientTransform="matrix(.904 -.522 .837 1.449 -17.87 -12.699)"/><linearGradient id="p" x1="16.929" x2="14.045" y1="34.011" y2="29" xlink:href="#b" gradientUnits="userSpaceOnUse" gradientTransform="matrix(.904 -.522 .9 1.558 -23.154 -15.587)"/><linearGradient id="i" x1="12.233" x2="16.871" y1="12.363" y2="17.111" xlink:href="#c" gradientUnits="userSpaceOnUse" gradientTransform="matrix(1.009 .274 -.27 1.021 -1.398 -7.265)"/><linearGradient id="r" x1="10.615" x2="2.007" y1="28.123" y2="27.235" xlink:href="#d" gradientUnits="userSpaceOnUse" gradientTransform="matrix(1.229 0 0 1.229 -4.209 -8.705)"/><linearGradient id="q" x1="11.997" x2="17.774" y1="19.592" y2="16.235" xlink:href="#e" gradientUnits="userSpaceOnUse" gradientTransform="matrix(1.06 0 0 1.05 -4.832 -1.209)"/><radialGradient id="k" cx="20.764" cy="19.541" r="14.8" xlink:href="#f" fx="20.764" fy="19.541" gradientTransform="matrix(.469 -.226 .589 1.223 -5.982 1.595)" gradientUnits="userSpaceOnUse"/><linearGradient id="j" x1="9.562" x2="14.767" y1="6.953" y2="14.2" xlink:href="#g" gradientUnits="userSpaceOnUse" gradientTransform="matrix(1.044 0 0 1.044 -4.486 -1.063)"/></defs><g><path fill="url(#h)" d="M38.14 30.86a15.57 10.14 0 1 1-31.14 0 15.57 10.14 0 1 1 31.14 0z" transform="matrix(1.499 0 0 .862 -9.759 12.961)" opacity=".474" color="#000" overflow="visible"/><path fill="url(#i)" fill-rule="evenodd" stroke="#8f5902" stroke-width="1.006" d="M2.74.8c1.8-.92 4.3 0 5.23 1.62l4.35 9.9c.93 1.62.66 3.52-.6 4.25-1.24.73-3 .02-3.92-1.6L1.62 6.24C.7 4.62.97 1.7 2.74.8z" stroke-linecap="round"/><path fill="none" stroke="url(#j)" stroke-width="1.006" d="M3.3 1.8c1.47-.83 2.93-.2 3.85 1.4L11.8 13.7l-2.55 1.5L2.68 6c-.9-1.6-.92-3.36.6-4.2z" opacity=".423" stroke-linecap="round"/><path fill="url(#k)" fill-rule="evenodd" stroke="#c4a000" d="M10.95 22.74c-.83 4.47.66 14.56 6.53 20.56 4.54.15 14.6-3.57 21.44-10.65-9.64-4.7-16.22-16.4-21.34-13.87l-6.63 3.96z"/><path fill="none" stroke="url(#l)" d="M12.57 24.38c2.46 6.55 2.6 13.35 7.5 18.7" stroke-linecap="round"/><path fill="none" stroke="#fff" d="M12.14 23.38c-.96.53-.17 13.08 5.83 18.8 7.7-.2 16.2-6.68 19.2-9.23-9.92-6.25-15.58-15.4-19.3-13.13l-5.73 3.56z" opacity=".462"/><path fill="none" stroke="url(#m)" d="M20.4 22.2c.92-.8 6.02 6.35 15.68 12.92" stroke-linecap="round"/><path fill="none" stroke="url(#n)" d="M14.32 22.8c3.88 5.6 3.1 12.98 9.23 18.9" stroke-linecap="round"/><path fill="none" stroke="url(#o)" d="M19.5 22.72s8.55 13.65 11.7 15.77" stroke-linecap="round"/><path fill="none" stroke="url(#p)" d="M15.67 22.12c3.6 3.04 9.08 14.78 11.8 18.25" stroke-linecap="round"/><path fill="url(#q)" fill-rule="evenodd" stroke="#c4a000" stroke-width="1.01" d="M4.4 17.8l11.97-6.85c.62 2.48-.36 3.38 1.87 7.46l-8.26 4.74C8.46 19.5 6.26 19.58 4.4 17.8z" stroke-linecap="round" stroke-linejoin="round"/><path fill="none" stroke="#fff" d="M10.18 21.12c-.85-1.48-2.68-2.34-3.84-3.27l9.14-5.15c-.02 1.55.6 3.23.9 4.72l-6.2 3.7z" opacity=".247"/><rect width="13.589" height="3.612" x="-4.829" y="22.077" fill="url(#r)" fill-rule="evenodd" stroke="#690000" rx="1.044" stroke-linecap="round" transform="rotate(-30.003)" ry="1.044"/><path fill="#fff" fill-rule="evenodd" stroke="#8f5902" stroke-width=".63.585" d="M5.74 4c-.26 1-1.52 1.35-2.26.62-.34-.35-.48-.85-.35-1.3C3.4 2.3 4.66 1.95 5.4 2.7c.34.34.47.84.34 1.3z" stroke-linecap="round" stroke-linejoin="round"/><path fill="#fff" fill-rule="evenodd" d="M24.47 41.28s1.58-.52 2.27-.98c-1.3-2.03-3.55-6.16-5.64-9.27 1.25 6.83 3.37 10.25 3.37 10.25z" opacity=".317"/><path fill="#fff" fill-rule="evenodd" d="M28.03 39.72l2.12-1.14c-2.03-1.93-7.8-10.56-7.8-10.56l5.68 11.7z" opacity=".317"/><path fill="#fff" fill-rule="evenodd" d="M32.75 36.93l2.54-1.82c-3.33-1.38-12.1-10.3-12.1-10.3 2.48 3.14 7.06 8.98 9.55 12.13z" opacity=".317"/><path fill="#fff" fill-rule="evenodd" d="M36.4 34.35l1.76-1.47C34.7 31.3 25.12 22.53 25.12 22.53s6.34 9.6 11.28 11.82z" opacity=".317"/><path fill="#fff" fill-rule="evenodd" d="M20.97 42.34s1.25-.3 2.13-.47c-1.52-1.3-3.97-4.64-5.32-9 .55 7.2 3.2 9.47 3.2 9.47z" opacity=".317"/><path fill="#fff" fill-rule="evenodd" d="M17.83 42.76s1.3-.02 1.3-.02c-2.4-2.63-3.28-5.6-4.63-9.82-.13 4.9 3.33 9.84 3.33 9.84z" opacity=".317"/></g></svg>