<svg xmlns="http://www.w3.org/2000/svg" width="48" height="48" xmlns:xlink="http://www.w3.org/1999/xlink"><defs><radialGradient id="a" cx="1074.363" cy="115.519" r="11.574" gradientUnits="userSpaceOnUse" fy="115.519" fx="1074.363"><stop offset="0" stop-color="#fff"/><stop offset="1" stop-color="#F17912"/></radialGradient><radialGradient id="b" cx="1026.428" cy="45.078" r="43.481" gradientUnits="userSpaceOnUse" gradientTransform="matrix(1 .027 -.027 1 33.84 34.533)" fy="45.078" fx="1026.428"><stop offset="0" stop-color="#fff" stop-opacity=".66"/><stop offset="1" stop-color="#8994a2" stop-opacity=".68"/></radialGradient><radialGradient id="c" cx="1076.217" cy="100.262" r="13.947" gradientUnits="userSpaceOnUse" fy="100.262" fx="1076.217" gradientTransform="translate(-1057.986 -93.694)"><stop offset="0" stop-color="#fff"/><stop offset="1" stop-color="#F17912"/></radialGradient><radialGradient id="d" cx="1074.363" cy="115.519" r="11.574" xlink:href="#a" gradientUnits="userSpaceOnUse" fx="1074.363" fy="115.519"/><radialGradient id="e" cx="1026.428" cy="45.078" r="43.481" xlink:href="#b" gradientUnits="userSpaceOnUse" gradientTransform="matrix(1 .027 -.027 1 33.84 34.533)" fx="1026.428" fy="45.078"/><radialGradient cx="1076.217" cy="100.262" r="13.947" xlink:href="#c" gradientUnits="userSpaceOnUse" gradientTransform="translate(-1057.986 -93.694)" fx="1076.217" fy="100.262"/><radialGradient id="f" cx="1076.217" cy="100.262" r="13.947" xlink:href="#c" gradientUnits="userSpaceOnUse" gradientTransform="matrix(1.031 0 0 1.143 -1090.698 -98.477)" fx="1076.217" fy="100.262"/></defs><g><g transform="matrix(1.031 0 0 1.143 -1090.698 -98.477)" opacity=".5"><radialGradient cx="1074.363" cy="115.519" r="11.574" gradientUnits="userSpaceOnUse" fy="115.519" fx="1074.363"><stop offset="0" stop-color="#fff"/><stop offset="1" stop-color="#F17912"/></radialGradient><path fill="url(#d)" d="M1092.25 106.6c-.14 6.16-5.17 11.1-11.36 11.1-6.18 0-11.2-4.9-11.36-11.03"/><path fill="none" stroke="#99440f" stroke-width=".645" d="M1069.53 106.6c0-1.9 5.08-3.44 11.36-3.44 6.26 0 11.34 1.54 11.34 3.45"/><path fill="none" stroke="#99440f" stroke-width=".645" d="M1092.24 106.56c-.14 6.15-5.17 11.1-11.36 11.1-6.17 0-11.2-4.92-11.35-11.05"/></g><path fill="url(#e)" stroke="#4c5159" stroke-width=".645" d="M1086.52 114.56l-28.18-6.7 17.48-6.74 28.02 4.3-17.32 9.14z" transform="matrix(1.031 0 0 1.143 -1090.698 -98.477)"/><path fill="url(#f)" stroke="#99440f" stroke-width=".7" d="M35.3 22.22c0 2.18-5.23 3.9-11.7 3.9-6.46 0-11.7-1.75-11.7-3.93v.08c0-.12 0-.24 0-.36 0-7.16 5.24-12.97 11.7-12.97 6.47 0 11.72 5.8 11.72 12.97 0 .1 0 .2 0 .3z"/></g></svg>