<svg xmlns="http://www.w3.org/2000/svg" width="48" height="48" xmlns:xlink="http://www.w3.org/1999/xlink"><defs><linearGradient id="e"><stop offset="0" stop-color="#fdc36f"/><stop offset="1" stop-color="#ed8e03"/></linearGradient><linearGradient id="d"><stop offset="0" stop-color="#2e3436"/><stop offset="1" stop-color="#2e3436" stop-opacity="0"/></linearGradient><linearGradient id="c"><stop offset="0" stop-color="#f57900"/><stop offset="1" stop-color="#7c3d00"/></linearGradient><linearGradient id="b"><stop offset="0" stop-color="#653200"/><stop offset="1" stop-color="#f57900"/></linearGradient><linearGradient><stop offset="0" stop-color="#bc5d00"/><stop offset="1" stop-color="#f57900" stop-opacity="0"/></linearGradient><linearGradient id="a"><stop offset="0" stop-color="#f57900"/><stop offset="1" stop-color="#f57900" stop-opacity="0"/></linearGradient><radialGradient cx="1182.248" cy="1658.428" r="3.295" gradientUnits="userSpaceOnUse" fy="1658.428" fx="1182.248" gradientTransform="translate(-1156.642 -1655.956)"><stop offset="0" stop-color="#e6e6e6"/><stop offset="1" stop-color="#a5a5a5"/></radialGradient><linearGradient x1="27.224" x2="26.517" y1="22.165" y2="32.115" xlink:href="#a" gradientUnits="userSpaceOnUse" gradientTransform="matrix(1.519 0 0 1.52 -13.422 -18.237)"/><linearGradient id="h" x1="11.38" x2="18.509" y1="26.888" y2="26.853" xlink:href="#b" gradientUnits="userSpaceOnUse"/><radialGradient id="g" cx="27.344" cy=".839" r="7.788" xlink:href="#c" fx="27.344" fy=".839" gradientTransform="matrix(1.382 -.051 .029 .786 -10.482 2.995)" gradientUnits="userSpaceOnUse"/><radialGradient id="f" cx="26.794" cy="44.666" r="15.784" xlink:href="#d" fx="26.794" fy="44.666" gradientTransform="matrix(1 0 0 .218 0 34.947)" gradientUnits="userSpaceOnUse"/><radialGradient id="i" cx="24.188" cy="22.75" r="23.5" xlink:href="#e" fx="24.188" fy="22.75" gradientTransform="matrix(1 0 0 .967 0 .756)" gradientUnits="userSpaceOnUse"/></defs><g><path fill="url(#f)" d="M42.58 44.67a15.78 3.43 0 1 1-31.57 0 15.78 3.43 0 1 1 31.58 0z" transform="matrix(1.414 0 0 1.583 -12.594 -28.127)" color="#000" overflow="visible" enable-background="accumulate"/><path fill="url(#g)" stroke="#5f2a00" d="M20.2.52L19.95 10l14.57.25-.84-9.2s-1.4-.64-3.3-.3C29.2.95 26.8 2 25.8 2c-1 0-5.6-1.48-5.6-1.48z" stroke-linejoin="bevel"/><path fill="url(#h)" stroke="#4c2200" stroke-width=".777" d="M20.3 26.9a4.27 1.74 0 1 1-8.53 0 4.27 1.74 0 1 1 8.53 0z" transform="matrix(1.007 .793 -.766 1.043 9.811 -19.569)" color="#000" overflow="visible" enable-background="accumulate"/><path fill="url(#i)" stroke="#833b00" d="M1.16 17.64c3.64-.75 9.04 3.44 8.3 7.22l3.05-3.6c1.17 6.78 3.94 14.8 4.24 20.34 0 0 3.55 3.9 12.04 3.3l6.1-1.93 3.03-3.68 1.7-19.2 2.46 1.77 3.96-2.48 1.18-4.6-6.6-10.75L33.23.83l-5.06 6.45c-6.2-.05-7.75-6.76-7.75-6.76-3.44.4-5.88 1.56-7.75 2.54-1.97 2.33-9.3 8.88-11.5 14.58z" stroke-linejoin="bevel"/><path fill="none" stroke="#eeeeec" d="M3.85 17.38c.57-3.1 8.46-11.75 9.8-12.6 1.28-.8 3.3-1.74 6.7-2.34"/><path fill="#f57900" d="M9.22 21.02l5.52-6.22c.55 2.38.4 4.58-2.3 6.14l-2.46 2.23z"/><path fill="none" stroke="#ce5c00" d="M13.9 19c1.6 9.16 4.96 15.6 4.74 23.6" stroke-dasharray="2, 2"/><path fill="#d3d7cf" d="M24.4 2.24c-.08 1.16.28 1.6.6 2.12l2.83-.2c-.68-.7-.7-1.36-.7-2.02z"/><path fill="#ce5c00" stroke="#000" d="M39.4 20.07L39.3 13l6.3 6-3.58 2.38z" stroke-linejoin="bevel"/><path fill="#fdc574" stroke="#000" d="M28.4 7.54l2.76 12.88 8.4-.5 1.1-15.76z" stroke-linejoin="bevel"/><path fill="#fcaf3e" stroke="#000" d="M33.23.88l-5.2 6.7L40.4 4.12z" stroke-linejoin="bevel"/><path fill="#fcaf3e" stroke="#000" d="M31.3 20.27L34.66 43l3.43-4 1.52-19.4z" stroke-linejoin="bevel"/><path fill="#f57900" stroke="#000" d="M30.96 20.12l-2.32 24.7L34.8 43z" stroke-linejoin="bevel"/><path fill="#fcaf3e" stroke="#000" d="M40.05 13.2L45.6 19l1.12-4.18-6.16-10.76z" stroke-linejoin="bevel"/></g></svg>