<svg xmlns="http://www.w3.org/2000/svg" width="48" height="48"><g stroke-dashoffset=".7" color="#000"><path fill="#fcaf3e" fill-opacity=".254" stroke="#fcaf3e" d="M27.88 14.2a13.7 13.7 0 1 1-27.37 0 13.7 13.7 0 1 1 27.38 0z" stroke-dasharray="2,1" overflow="visible" enable-background="accumulate"/><path fill="#ad7fa8" fill-opacity=".254" stroke="#ad7fa8" d="M47.53 15.22a13.7 13.7 0 1 1-27.38 0 13.7 13.7 0 1 1 27.38 0z" stroke-dasharray="2, 1" overflow="visible" enable-background="accumulate"/><path fill="#729fcf" fill-opacity=".254" stroke="#729fcf" d="M29.85 31.74a13.7 13.7 0 1 1-27.38 0 13.7 13.7 0 1 1 27.38 0z" stroke-dasharray="2, 1" overflow="visible" enable-background="accumulate"/><path fill="#8ae234" fill-opacity=".254" stroke="#8ae234" d="M45.46 34a13.7 13.7 0 1 1-27.38 0 13.7 13.7 0 1 1 27.38 0z" stroke-dasharray="2, 1" overflow="visible" enable-background="accumulate"/><path fill="#2e3436" stroke="#eeeeec" stroke-width=".9999" d="M12.48 7.5a3.03 3.03 0 1 1-6.07 0 3.03 3.03 0 1 1 6.08 0z" overflow="visible" enable-background="accumulate"/><path fill="#2e3436" stroke="#eeeeec" stroke-width=".9999" d="M24.48 9.56a3.03 3.03 0 1 1-6.06 0 3.03 3.03 0 1 1 6.06 0z" overflow="visible" enable-background="accumulate"/><path fill="#2e3436" stroke="#eeeeec" stroke-width=".9999" d="M10.5 17.5a3.03 3.03 0 1 1-6.05 0 3.03 3.03 0 1 1 6.06 0z" overflow="visible" enable-background="accumulate"/><path fill="#2e3436" stroke="#eeeeec" stroke-width=".9999" d="M20.46 21.5a3.03 3.03 0 1 1-6.06 0 3.03 3.03 0 1 1 6.06 0z" overflow="visible" enable-background="accumulate"/><path fill="#2e3436" stroke="#eeeeec" stroke-width=".9999" d="M37.56 7.5a3.03 3.03 0 1 1-6.06 0 3.03 3.03 0 1 1 6.06 0z" overflow="visible" enable-background="accumulate"/><path fill="#2e3436" stroke="#eeeeec" stroke-width=".9999" d="M44.48 16.48a3.03 3.03 0 1 1-6.06 0 3.03 3.03 0 1 1 6.06 0z" overflow="visible" enable-background="accumulate"/><path fill="#2e3436" stroke="#eeeeec" stroke-width=".9999" d="M33.52 19.5a3.03 3.03 0 1 1-6.06 0 3.03 3.03 0 1 1 6.06 0z" overflow="visible" enable-background="accumulate"/><path fill="#2e3436" stroke="#eeeeec" stroke-width=".9999" d="M38.52 28.5a3.03 3.03 0 1 1-6.06 0 3.03 3.03 0 1 1 6.06 0z" overflow="visible" enable-background="accumulate"/><path fill="#2e3436" stroke="#eeeeec" stroke-width=".9999" d="M42.5 37.5a3.03 3.03 0 1 1-6.05 0 3.03 3.03 0 1 1 6.06 0z" overflow="visible" enable-background="accumulate"/><path fill="#2e3436" stroke="#eeeeec" stroke-width=".9999" d="M31.5 40.57a3.03 3.03 0 1 1-6.06 0 3.03 3.03 0 1 1 6.06 0z" overflow="visible" enable-background="accumulate"/><path fill="#2e3436" stroke="#eeeeec" stroke-width=".9999" d="M25.5 32.44a3.03 3.03 0 1 1-6.07 0 3.03 3.03 0 1 1 6.06 0z" overflow="visible" enable-background="accumulate"/><path fill="#2e3436" stroke="#eeeeec" stroke-width=".9999" d="M18.47 39.4a3.03 3.03 0 1 1-6.06 0 3.03 3.03 0 1 1 6.07 0z" overflow="visible" enable-background="accumulate"/><path fill="#2e3436" stroke="#eeeeec" stroke-width=".9999" d="M12.5 29.56a3.03 3.03 0 1 1-6.05 0 3.03 3.03 0 1 1 6.06 0z" overflow="visible" enable-background="accumulate"/></g></svg>