<svg xmlns="http://www.w3.org/2000/svg" width="48" height="48" xmlns:xlink="http://www.w3.org/1999/xlink"><defs><linearGradient id="a"><stop offset="0" stop-color="#fff"/><stop offset="1" stop-color="#fff" stop-opacity="0"/></linearGradient><linearGradient id="o" x1="48.25" x2="48.25" y1="54.75" y2="71.25" xlink:href="#a" gradientUnits="userSpaceOnUse" gradientTransform="matrix(.719 0 0 .719 -1.897 -20.686)"/><linearGradient id="n" x1="60.169" x2="60.441" y1="40.12" y2="43.87" xlink:href="#b" gradientUnits="userSpaceOnUse" gradientTransform="matrix(.737 0 0 .771 -8.532 7.122)"/><linearGradient id="c"><stop offset="0" stop-color="#729fcf"/><stop offset="1" stop-color="#2b5582"/></linearGradient><linearGradient id="m" x1="49.853" x2="62.768" y1="64.26" y2="64.26" xlink:href="#c" gradientUnits="userSpaceOnUse" gradientTransform="matrix(.719 0 0 .719 -1.897 -22.425)"/><linearGradient id="d"><stop offset="0" stop-color="#aeaeae"/><stop offset="1" stop-color="#c4c4c4" stop-opacity="0"/></linearGradient><linearGradient id="l" x1="61.872" x2="61.872" y1="29.615" y2="41.459" xlink:href="#d" gradientUnits="userSpaceOnUse" gradientTransform="matrix(.889 0 0 .719 -18.298 9.472)"/><linearGradient id="b"><stop offset="0" stop-color="#f2f2f2"/><stop offset="1" stop-color="#c3c3c3"/></linearGradient><linearGradient id="k" x1="53.169" x2="69.691" y1="24.245" y2="24.245" xlink:href="#b" gradientUnits="userSpaceOnUse" gradientTransform="matrix(.719 0 0 .719 -7.696 9.472)"/><linearGradient id="e"><stop offset="0" stop-color="#729fcf"/><stop offset="1" stop-color="#3c74b1"/></linearGradient><linearGradient id="j" x1="52.718" x2="67.466" y1="2.316" y2="2.316" xlink:href="#e" gradientUnits="userSpaceOnUse" gradientTransform="matrix(.862 0 0 .581 -16.257 11.013)"/><linearGradient id="f"><stop offset="0" stop-color="#fff"/><stop offset="1" stop-color="#fff" stop-opacity="0"/></linearGradient><linearGradient x1="13.236" x2="7.752" y1="37.752" y2="42.282" xlink:href="#f" gradientUnits="userSpaceOnUse" gradientTransform="matrix(.852 0 0 .852 -1.675 3.754)"/><linearGradient id="g"><stop offset="0" stop-color="#696969"/><stop offset="1"/></linearGradient><radialGradient cx="15.415" cy="35.357" r="7.579" xlink:href="#g" fx="15.415" fy="35.357" gradientTransform="matrix(.995 0 0 .969 -4.583 .166)" gradientUnits="userSpaceOnUse"/><linearGradient id="h"><stop offset="0" stop-color="#bdbdbd"/><stop offset=".333" stop-color="#e2e2e2"/><stop offset=".667" stop-color="#a3a3a3"/><stop offset="1" stop-color="#ddd"/></linearGradient><linearGradient x1="19.395" x2="23.109" y1="30.001" y2="33.439" xlink:href="#h" gradientUnits="userSpaceOnUse" gradientTransform="translate(-3.907 -1.803)"/><linearGradient id="i"><stop offset="0" stop-color="#6e3d09"/><stop offset=".242" stop-color="#ea8113"/><stop offset=".621" stop-color="#5c3307"/><stop offset="1" stop-color="#e07c12"/></linearGradient><linearGradient x1="28.059" x2="33.437" y1="18.868" y2="23.743" xlink:href="#i" gradientUnits="userSpaceOnUse" gradientTransform="translate(-3.907 -1.803)"/></defs><g><g transform="matrix(.988 -.91 .91 .988 -36.442 29.528)" color="#000"><path fill="url(#j)" stroke="#204a87" stroke-width=".745" d="M35.13 7.35c-3.06.1-5.5 1.06-5.5 2.22 0 .28 0 3.3 0 3.57 0 1.23 2.68 2.23 5.95 2.23s5.92-1 5.92-2.23c0-.27 0-3.3 0-3.57 0-1.22-2.65-2.22-5.92-2.22-.15 0-.3 0-.45 0z" stroke-linecap="round" overflow="visible"/><path fill="#3465a4" d="M40.4 13.6a4.76.7 0 1 1-9.52 0 4.76.7 0 1 1 9.53 0z" overflow="visible"/><path fill="url(#k)" stroke="#5a5a5a" stroke-width=".745" d="M27.93 39.16l1.04-21.35 2.5-3.66c1.96-.63 6.72-.63 8.5 0l2.48 3.03 2.62 22.5-17.14-.5z" stroke-linecap="round" overflow="visible"/><path fill="url(#l)" d="M28.83 38.9s2.6-9.54 7.54-9.54c5.1 0 8.17 9.92 8.17 9.92l-15.7-.38z" overflow="visible"/><path fill="url(#m)" d="M29.18 20.5l-.3 6.47c1.67-1.07 12-1.26 14.35.4l-.7-6.6c-1.4-.96-10.6-1.48-13.35-.27z" overflow="visible"/><path fill="none" stroke="#fff" stroke-width=".745" d="M29.05 38.22l.88-20.2L31.77 15c1.8-.6 6.2-.6 7.84 0l1.97 2.53 2.46 21.25-14.98-.56z" opacity=".594" stroke-linecap="round" overflow="visible"/><rect width="19.974" height="3.928" x="26.513" y="37.536" fill="url(#n)" stroke="#5a5a5a" stroke-width=".745" rx=".884" ry=".884" stroke-linecap="round" overflow="visible"/><path fill="#fff" d="M29.4 18c1.87-1.37 9.1-1.66 12.72-.6l-2.34-2.9c-2.48-.66-5.93-.37-8.28.07L29.4 18z" overflow="visible"/><path fill="url(#o)" d="M31.17 17.42v15.45l3.24-3.6-.35-12.57-2.88.72z" opacity=".861" overflow="visible"/><g fill="#e6e7e6" opacity=".578"><path d="M31 9.38v3.24s.62-.35 1-.36V9c-.48.07-1 .38-1 .38z" opacity=".411" overflow="visible"/><path d="M33 8.76V12s.62-.08 1-.1V8.6c-.5 0-1 .16-1 .16z" overflow="visible"/><path d="M35 8.56v3.3s.57 0 1 0V8.54c-.5-.05-1 .03-1 .03z" opacity=".444" overflow="visible"/></g></g></g></svg>