<svg xmlns="http://www.w3.org/2000/svg" width="48" height="48" xmlns:xlink="http://www.w3.org/1999/xlink"><defs><linearGradient id="g"><stop offset="0"/><stop offset="1" stop-opacity="0"/></linearGradient><linearGradient><stop offset="0" stop-color="#4d84d5"/><stop offset="1" stop-color="#204a87"/></linearGradient><linearGradient><stop offset="0" stop-color="#478bed"/><stop offset="1" stop-color="#204a87"/></linearGradient><linearGradient id="f"><stop offset="0" stop-color="#ffa3a3"/><stop offset="1" stop-color="#ee4646"/></linearGradient><linearGradient><stop offset="0" stop-color="#184177"/><stop offset="1" stop-color="#3465a4"/></linearGradient><linearGradient><stop offset="0" stop-color="#fff" stop-opacity=".216"/><stop offset="1" stop-color="#fff" stop-opacity="0"/></linearGradient><linearGradient><stop offset="0" stop-color="#4099f9"/><stop offset="1" stop-color="#0659b2"/></linearGradient><linearGradient><stop offset="0" stop-color="#3465a4"/><stop offset="1" stop-color="#204a87"/></linearGradient><linearGradient><stop offset="0" stop-color="#8bbdfb"/><stop offset=".204" stop-color="#3b83dd"/><stop offset=".25" stop-color="#a3d0ff"/><stop offset=".375" stop-color="#a8dcff"/><stop offset=".437" stop-color="#4797ff"/><stop offset="1" stop-color="#114586"/></linearGradient><linearGradient id="a"><stop offset="0" stop-color="#f68383"/><stop offset="1" stop-color="#da1414"/></linearGradient><linearGradient x1="7.867" x2="47.206" y1="1.256" y2="9.287" gradientTransform="translate(-.039 -.844)" gradientUnits="userSpaceOnUse" xlink:href="#a"/><linearGradient x1="11.179" x2="37.393" y1="8.929" y2="8.929" xlink:href="#b" gradientUnits="userSpaceOnUse" gradientTransform="matrix(1.005 0 0 1.004 -.353 .675)"/><linearGradient id="b"><stop offset="0" stop-color="#fb8b8b"/><stop offset=".204" stop-color="#dd3b3b"/><stop offset=".25" stop-color="#ffa3a3"/><stop offset=".375" stop-color="#ffa8a8"/><stop offset=".437" stop-color="#ff4747"/><stop offset="1" stop-color="#861111"/></linearGradient><linearGradient><stop offset="0" stop-color="#498ce1"/><stop offset="1" stop-color="#204a87"/></linearGradient><linearGradient id="j" x1="24.734" x2="47.825" y1="8.905" y2="34.833" xlink:href="#c" gradientUnits="userSpaceOnUse" gradientTransform="matrix(1.003 0 0 -1.003 -.249 52.865)"/><linearGradient id="c"><stop offset="0" stop-color="#7e0c0c"/><stop offset="1" stop-color="#ec3a3a"/></linearGradient><linearGradient id="k" x1=".714" x2="24.536" y1="16.911" y2="28.089" xlink:href="#d" gradientUnits="userSpaceOnUse" gradientTransform="matrix(1.003 0 0 -1.003 -.249 52.865)"/><linearGradient id="d"><stop offset="0" stop-color="#f28686"/><stop offset="1" stop-color="#e41d1d"/></linearGradient><linearGradient id="l" x1="17.323" x2="16.652" y1="10.667" y2="34.345" xlink:href="#e" gradientUnits="userSpaceOnUse" gradientTransform="matrix(.717 .15 0 .717 -2.998 10.465)"/><linearGradient id="e"><stop offset="0" stop-color="#fff" stop-opacity=".216"/><stop offset="1" stop-color="#fff" stop-opacity="0"/></linearGradient><linearGradient id="m" x1="11.179" x2="37.393" y1="8.929" y2="8.929" gradientTransform="matrix(1.005 0 0 -1.004 -.041 22.827)" gradientUnits="userSpaceOnUse" xlink:href="#b"/><linearGradient id="i" x1="-.163" x2="48.449" y1="16.75" y2="16.75" xlink:href="#a" gradientUnits="userSpaceOnUse" gradientTransform="matrix(1.004 0 0 1 -.203 0)"/><linearGradient id="n" x1="15.733" x2="32.87" y1="7.942" y2="10.949" xlink:href="#f" gradientUnits="userSpaceOnUse"/><radialGradient id="h" cx="24.345" cy="39.59" r="23.385" xlink:href="#g" fx="24.345" fy="39.59" gradientTransform="matrix(1 0 0 .351 0 25.695)" gradientUnits="userSpaceOnUse"/></defs><g><path fill="url(#h)" d="M47.73 39.6a23.4 8.2 0 1 1-46.77 0 23.4 8.2 0 1 1 46.77 0z" transform="matrix(1.014 0 0 1 -.67 0)" color="#000" overflow="visible" enable-background="accumulate"/><path fill="url(#i)" stroke="#cf7272" d="M24.48 23.96L.14 17.06l23.84-7.52 23.97 7.25z" stroke-linejoin="bevel"/><path fill="url(#j)" stroke="#872020" stroke-width=".5" d="M.3 36.02l24.13 8.06 23.42-8.4V17.1l-23.37 7.24L.3 17.42z"/><path fill="url(#k)" d="M.54 17.78V35.8l23.9 8.03.07-19.2z"/><path fill="url(#l)" d="M1.1 36.46L.88 32.5l7.06-12.65L18 22.4 9.7 38.95z"/><path fill="url(#m)" stroke="#872020" stroke-width=".5" d="M11.44 16.3c0 1.4 5.72 3.44 12.78 3.44C31.27 19.74 37 17.7 37 16.3l.28-7.38H11.44z" color="#000" overflow="visible" enable-background="accumulate"/><path fill="url(#n)" stroke="#872020" stroke-width=".42" d="M37.5 9.36a13.07 2.2 0 1 1-26.14 0 13.07 2.2 0 1 1 26.14 0z" transform="matrix(.991 0 0 1.427 .135 -4.732)" color="#000" stroke-linejoin="bevel" overflow="visible" enable-background="accumulate"/></g></svg>