<svg xmlns="http://www.w3.org/2000/svg" width="48" height="48" xmlns:xlink="http://www.w3.org/1999/xlink" version="1"><defs><linearGradient id="d"><stop offset="0"/><stop offset="1" stop-opacity="0"/></linearGradient><linearGradient id="a" x1="97.967" x2="124.216" y1="54.748" y2="54.054" gradientUnits="userSpaceOnUse" gradientTransform="translate(-65.05 -40.617)"><stop offset="0" stop-color="#fff"/><stop offset=".105" stop-color="#ECEEF0"/><stop offset=".317" stop-color="#BBC2C8"/><stop offset=".539" stop-color="#828F99"/><stop offset=".858" stop-color="#8895A0"/><stop offset="1" stop-color="#8D9BA6"/></linearGradient><linearGradient id="b" x1="105.015" x2="100.976" y1="53.14" y2="51.033" gradientUnits="userSpaceOnUse" gradientTransform="translate(-65.05 -40.617)"><stop offset="0" stop-color="#EFEEEC"/><stop offset="1" stop-color="#98A7B2"/></linearGradient><linearGradient id="c" x1="100.512" x2="122.106" y1="48.775" y2="75.352" gradientUnits="userSpaceOnUse"><stop offset="0" stop-color="#FAFAFA"/><stop offset=".579" stop-color="#828B99"/><stop offset=".78" stop-color="#868F9D"/><stop offset=".957" stop-color="#939EAD"/><stop offset="1" stop-color="#98A4B2"/></linearGradient><linearGradient id="f" x1="97.967" x2="124.216" y1="54.748" y2="54.054" xlink:href="#a" gradientUnits="userSpaceOnUse" gradientTransform="translate(-65.05 -40.617)"/><linearGradient id="g" x1="105.015" x2="100.976" y1="53.14" y2="51.033" xlink:href="#b" gradientUnits="userSpaceOnUse" gradientTransform="translate(-65.05 -40.617)"/><linearGradient id="h" x1="100.512" x2="122.106" y1="48.775" y2="75.352" xlink:href="#c" gradientUnits="userSpaceOnUse"/><linearGradient id="e" x1="24.375" x2="43.455" y1="29.988" y2="44.129" xlink:href="#d" gradientUnits="userSpaceOnUse" gradientTransform="translate(2)"/></defs><g><path fill="url(#e)" fill-rule="evenodd" d="M15.73 43.56l24.67-9.8 9.4 13.1-34.07-3.3z"/><g><path fill="url(#f)" d="M65.07 25.5c0 5.35-6.6 9.27-19.1 9.27-11 0-18.1-4.16-18.1-9.15.02-.2.07-.4.16-.58L46.08-6.94c.22-.4.57-.4.8 0l18.04 31.9c.1.14.14.34.15.55z" transform="translate(-25.043 8.67)"/><path fill="url(#g)" d="M46.76-7.28l-12.46 40c-5.28-1.7-7-5.9-6.27-7.68L46.5-7.28h.26z" transform="translate(-25.043 8.67)"/><path fill="none" stroke="#192333" d="M39.5 32.8c.4.7.6 1.44.6 2.2 0 4.77-8.32 8.45-18.6 8.45-10.26 0-18.58-3.68-18.58-8.45 0-.9.3-1.75.82-2.56l17.8-31.08L39.5 32.8z"/><g transform="translate(-25.043 8.67) translate(-65.05 -40.617)"><linearGradient x1="100.512" x2="122.106" y1="48.775" y2="75.352" gradientUnits="userSpaceOnUse"><stop offset="0" stop-color="#FAFAFA"/><stop offset=".579" stop-color="#828B99"/><stop offset=".78" stop-color="#868F9D"/><stop offset=".957" stop-color="#939EAD"/><stop offset="1" stop-color="#98A4B2"/></linearGradient><path fill="url(#h)" d="M111.2 35.07l-16.95 29.6c-.5.74-.74 1.5-.74 2.27 0 4.4 8.12 7.95 18.1 7.95 9.98 0 18.1-3.57 18.1-7.96 0-.65-.2-1.3-.54-1.94 0 0-17.52-30.7-17.52-30.7l-.43.77zM94.5 66.94c0-.57.2-1.15.58-1.72l.06-.1s15.68-27.36 16.5-28.8c.83 1.45 16.65 29.17 16.65 29.17.26.47.4.96.4 1.44 0 3.7-8 6.95-17.1 6.95-9.1 0-17.1-3.25-17.1-6.96z"/></g></g></g></svg>