<svg xmlns="http://www.w3.org/2000/svg" width="48" height="48"><defs><radialGradient id="b" cx="24.976" cy="226.437" r="27.115" gradientUnits="userSpaceOnUse" fy="226.437" fx="24.976" gradientTransform="matrix(1.301 -.199 .063 .411 -21.048 -52.603)"><stop offset="0" stop-color="#fff"/><stop offset="1" stop-color="#0069be"/></radialGradient><radialGradient id="a" cx="23.052" cy="219.851" r="31.145" gradientUnits="userSpaceOnUse" fy="219.851" fx="23.052" gradientTransform="matrix(1.051 -.225 .105 .493 -24.798 -74.754)"><stop offset="0" stop-color="#fff"/><stop offset="1" stop-color="#e8d700"/></radialGradient><radialGradient id="c" cx="19.611" cy="205.6" r="15.566" gradientUnits="userSpaceOnUse" fy="205.6" fx="19.611" gradientTransform="matrix(1.332 -.385 .299 1.033 -69.636 -191.744)"><stop offset="0" stop-color="#fff"/><stop offset="1" stop-color="#ED8E8F"/></radialGradient><linearGradient><stop offset="0" stop-color="#ffd61d"/><stop offset=".5" stop-color="#c1a81b"/><stop offset="1" stop-color="#fce94f"/></linearGradient></defs><g color="#000"><path fill="url(#a)" stroke="#524300" d="M32.14 14c2.9 6.05-.42 11.23 2.47 16l-23.94 4.3c-2.36-4.36.94-9.3-1.83-14.74L32.13 14z" overflow="visible"/><path fill="url(#b)" stroke="#11284a" d="M36.6 33.34c2.24 3.73 5.45 7.04 10.85 9.34L22.97 47.5c-5.3-2.4-8.35-5.92-10.47-9.87l24.1-4.3z" overflow="visible"/><path fill="url(#c)" stroke="#4f0000" d="M7.2 16.5C5.64 12.65 3.63 9.08.07 6.37l23-4.73c3.45 2.47 5.53 5.66 7.13 9.12l-23 5.74z" overflow="visible"/></g></svg>