<svg xmlns="http://www.w3.org/2000/svg" width="48" height="48" xmlns:xlink="http://www.w3.org/1999/xlink"><defs><linearGradient id="e"><stop offset="0" stop-color="#fed08d"/><stop offset="1" stop-color="#f57900"/></linearGradient><linearGradient><stop offset="0" stop-color="#be6900" stop-opacity="0"/><stop offset=".445" stop-color="#be6900" stop-opacity="0"/><stop offset=".673" stop-color="#be6900" stop-opacity=".475"/><stop offset="1" stop-color="#be6900" stop-opacity="0"/></linearGradient><linearGradient id="d"><stop offset="0" stop-color="#2e3436" stop-opacity=".392"/><stop offset="1" stop-color="#2e3436" stop-opacity="0"/></linearGradient><linearGradient id="c"><stop offset="0" stop-color="#fbfdff"/><stop offset="1" stop-color="#8bafe5"/></linearGradient><linearGradient id="b"><stop offset="0" stop-color="#00419e" stop-opacity="0"/><stop offset=".445" stop-color="#00419e" stop-opacity="0"/><stop offset=".673" stop-color="#00419e" stop-opacity=".474"/><stop offset="1" stop-color="#00419e" stop-opacity="0"/></linearGradient><linearGradient id="a"><stop offset="0" stop-color="#fff"/><stop offset="1" stop-color="#fff" stop-opacity="0"/></linearGradient><radialGradient cx="10.511" cy="14.044" r="10.719" xlink:href="#a" fx="10.511" fy="14.044" gradientUnits="userSpaceOnUse" gradientTransform="matrix(.813 .62 -.607 .795 10.485 -3.642)"/><radialGradient cx="11.551" cy="14.333" r="10.719" xlink:href="#a" gradientUnits="userSpaceOnUse" fx="11.551" fy="14.333" gradientTransform="matrix(.693 .436 -.532 .847 11.172 -2.837)"/><radialGradient cx="14.36" cy="19.118" r="9.104" xlink:href="#b" fx="14.36" fy="19.118" gradientTransform="matrix(.784 .559 -1.087 1.525 24.181 -18.374)" gradientUnits="userSpaceOnUse"/><radialGradient cx="14.36" cy="19.118" r="9.104" xlink:href="#b" gradientUnits="userSpaceOnUse" gradientTransform="matrix(.842 .6 -1.168 1.639 46.425 -9.501)" fx="14.36" fy="19.118"/><linearGradient x1="4.54" x2="44.793" y1="9.17" y2="35.012" xlink:href="#c" gradientUnits="userSpaceOnUse" gradientTransform="matrix(1 0 0 1.007 0 -.268)"/><linearGradient id="h" x1="4.54" x2="44.793" y1="9.17" y2="35.012" xlink:href="#c" gradientUnits="userSpaceOnUse" gradientTransform="matrix(1.004 0 0 1.009 .396 -3.491)"/><radialGradient id="g" cx="14.36" cy="19.118" r="9.104" xlink:href="#b" gradientUnits="userSpaceOnUse" gradientTransform="matrix(.787 .56 -1.091 1.529 24.662 -21.645)" fx="14.36" fy="19.118"/><radialGradient id="f" cx="10.511" cy="14.044" r="10.719" xlink:href="#a" gradientUnits="userSpaceOnUse" gradientTransform="matrix(.813 .62 -.607 .795 10.485 -3.642)" fx="10.511" fy="14.044"/><radialGradient id="j" cx="11.994" cy="44.137" r="10.876" xlink:href="#d" fx="11.994" fy="44.137" gradientTransform="matrix(1 0 0 .439 0 24.75)" gradientUnits="userSpaceOnUse"/><radialGradient id="i" cx="11.994" cy="44.137" r="10.876" xlink:href="#d" fx="11.994" fy="44.137" gradientTransform="matrix(1 0 0 .439 0 24.75)" gradientUnits="userSpaceOnUse"/><radialGradient id="k" cx="11.994" cy="44.137" r="10.876" xlink:href="#d" gradientUnits="userSpaceOnUse" gradientTransform="matrix(1 0 0 .439 0 24.75)" fx="11.994" fy="44.137"/><linearGradient id="l" x1="-1.864" x2="19.922" y1="16.956" y2="30.364" xlink:href="#e" gradientUnits="userSpaceOnUse" gradientTransform="matrix(.952 0 0 .875 25.554 4.325)"/></defs><g><path fill="#729fcf" fill-rule="evenodd" stroke="#132c51" stroke-width="2" d="M20.97 24.54c-1.43-.86-3.9 1.15-8 1.2-6.8-.02-11.95-5.33-11.95-11.88C1.02 7.3 6.36 2 12.94 2c3.3 0 6.27 1.33 8.5 3.6 3.26 2.98 3.18 8.42 4.9 9.04" color="#000" stroke-linejoin="round" overflow="visible"/><path fill="#f90" fill-rule="evenodd" stroke="#7c3700" stroke-width="2" d="M26.34 14.5l9.14-2.02 7.8 4.14 3.52 11.46-3.43 7.12-9.3 3.2-9.38-4.2-4.05-10" color="#000" stroke-linejoin="round" overflow="visible"/><path fill="url(#f)" fill-rule="evenodd" d="M23.5 17a10.6 10.6 0 1 1-21.2 0 10.6 10.6 0 1 1 21.2 0z" transform="matrix(1.063 0 0 1.063 -.83 -4.239)" color="#000" overflow="visible"/><path fill="url(#g)" fill-rule="evenodd" d="M6.24 23.07c3.7.4 7.46-.93 11.27-5.18 3.83-4.26 4.5-8.2 4.22-11.2 2.3 1.5 2.75 5.2 2.75 8.04 0 5.67-4.94 10.5-10.85 10.5-2.95 0-5.44-.3-7.38-2.17z" color="#000" overflow="visible"/><path fill="none" stroke="url(#h)" d="M21.43 23.55c-1.6-.96-4.55 1-8.44 1.07-6.48-.03-10.8-4.5-10.8-10.77C2.2 7.57 6.72 2.9 13 2.9c3.14 0 5.7 1.17 7.83 3.34" color="#000" stroke-linejoin="round" overflow="visible"/><path fill="none" stroke="url(#h)" d="M20.83 6.24c3.1 2.87 3.58 8.72 5.2 9.32" color="#000" stroke-linejoin="round" overflow="visible"/><path fill="url(#i)" d="M22.87 44.14a10.88 4.78 0 1 1-21.75 0 10.88 4.78 0 1 1 21.75 0z" transform="matrix(1.103 0 0 .942 1.766 1.926)" color="#000" overflow="visible"/><path fill="url(#j)" d="M22.87 44.14a10.88 4.78 0 1 1-21.75 0 10.88 4.78 0 1 1 21.75 0z" transform="matrix(1.103 0 0 .942 19.766 1.926)" color="#000" overflow="visible"/><path fill="url(#k)" d="M22.87 44.14a10.88 4.78 0 1 1-21.75 0 10.88 4.78 0 1 1 21.75 0z" transform="matrix(.782 0 0 .523 14.126 20.403)" color="#000" overflow="visible"/><path fill="#fcaf3e" fill-rule="evenodd" d="M20.84 24l4.47 2.76v7.3l-4.46-10.05z"/><path fill="#fcaf3e" fill-rule="evenodd" d="M25.82 14.8l9.76-2.02-4.78 3.86-4.98-1.83z"/><path fill="#ce5c00" fill-rule="evenodd" d="M46.32 27.98l-4.12-4.84 1.03-6.72 3.1 11.56z"/><path fill="#b24f00" fill-rule="evenodd" d="M43.3 34.2l-9.07 3.92 3.1-5.12 5.96 1.2z"/><path fill="#ff8814" fill-rule="evenodd" d="M30.9 16.6l-5.7 10.16 12 6.5 4.88-10.06-11.18-6.6z"/><path fill="#fdc879" fill-rule="evenodd" d="M25.97 14.8L21 23.97l4.16 2.95 5.7-10.36-4.9-1.73z"/><path fill="#e47000" fill-rule="evenodd" d="M43.2 16.56l-7.52-3.92-4.9 3.92 11.5 6.72.92-6.72z"/><path fill="#984400" fill-rule="evenodd" d="M43.27 34.4l3.2-6.35-4.4-5.15-4.92 10.34 6.12 1.17z"/><path fill="#e47000" fill-rule="evenodd" d="M25.33 33.9l9 4.16 2.9-4.96-12.1-6.43.2 7.23z"/><path fill="none" stroke="url(#l)" d="M25.98 15.35l9.7-2.36 7.56 3.9 3.06 10.68-3.23 6.85-8.73 3.47-8.9-4.14-4.24-10.2" color="#000" stroke-linejoin="round" overflow="visible"/></g></svg>