<svg xmlns="http://www.w3.org/2000/svg" width="48" height="48" xmlns:xlink="http://www.w3.org/1999/xlink"><defs><linearGradient id="p" x1="103.99" x2="118.07" y1="229.561" y2="229.189" gradientUnits="userSpaceOnUse"><stop offset="0" stop-color="#fff"/><stop offset="1" stop-color="#cd0feb"/></linearGradient><linearGradient id="o" x1="107.77" x2="105.604" y1="228.699" y2="227.569" gradientUnits="userSpaceOnUse"><stop offset="0" stop-color="#fff"/><stop offset="1" stop-color="#bb4ff6"/></linearGradient><radialGradient id="n" cx="-64.877" cy="220.876" r="14.119" fx="-64.877" fy="220.876" gradientTransform="matrix(-1 0 0 1 55.359 0)" gradientUnits="userSpaceOnUse"><stop offset="0" stop-color="#c3ff88"/><stop offset="1" stop-color="#3f7c05"/></radialGradient><radialGradient id="a" cx="114.888" cy="165.633" r="36.407" fx="114.888" fy="165.633" gradientUnits="userSpaceOnUse"><stop offset="0" stop-color="#efeeec" stop-opacity=".433"/><stop offset="1" stop-color="#8794A0"/></radialGradient><radialGradient id="h" cx="114.328" cy="171.99" r="55.614" gradientUnits="userSpaceOnUse" fy="171.99" fx="114.328"><stop offset=".006" stop-color="#fff"/><stop offset="1" stop-color="#EFEEEC"/></radialGradient><radialGradient id="g" cx="118.36" cy="201.173" r="25.109" gradientUnits="userSpaceOnUse" fy="201.173" fx="118.36"><stop offset="0" stop-color="#BABDB6"/><stop offset=".826" stop-color="#545652"/><stop offset="1" stop-color="#2D3335"/></radialGradient><radialGradient id="f" cx="114.324" cy="171.986" r="55.631" gradientUnits="userSpaceOnUse" fy="171.986" fx="114.324"><stop offset="0" stop-color="#fff"/><stop offset="1" stop-color="#EFEEEC"/></radialGradient><radialGradient id="e" cx="105.153" cy="165.035" r="24.157" gradientUnits="userSpaceOnUse" fy="165.035" fx="105.153"><stop offset="0" stop-color="#fff"/><stop offset="1" stop-color="#545652"/></radialGradient><radialGradient id="d" cx="137.673" cy="202.162" r="44.368" fx="137.673" fy="202.162" gradientUnits="userSpaceOnUse"><stop offset="0" stop-color="#BAD1D7"/><stop offset=".826" stop-color="#6D7580"/><stop offset="1" stop-color="#41454C"/></radialGradient><radialGradient id="c" cx="103.865" cy="160.998" r="62.509" fx="103.865" fy="160.998" gradientUnits="userSpaceOnUse"><stop offset="0" stop-color="#fff"/><stop offset="1" stop-color="#8794A0"/></radialGradient><radialGradient id="b" cx="110.686" cy="201.857" r="48.528" fx="110.686" fy="201.857" gradientUnits="userSpaceOnUse"><stop offset="0" stop-color="#BAD1D7"/><stop offset="1" stop-color="#8794A0"/></radialGradient><radialGradient id="x" cx="28.52" cy="25.868" r="17.591" xlink:href="#a" fx="28.52" fy="25.868" gradientTransform="matrix(1 .02 -.025 1.233 .66 -6.972)" gradientUnits="userSpaceOnUse"/><radialGradient id="y" cx="110.686" cy="201.857" r="48.528" xlink:href="#b" gradientUnits="userSpaceOnUse" fx="110.686" fy="201.857"/><radialGradient id="z" cx="103.865" cy="160.998" r="62.509" xlink:href="#c" gradientUnits="userSpaceOnUse" fx="103.865" fy="160.998"/><radialGradient id="A" cx="137.673" cy="202.162" r="44.368" xlink:href="#d" gradientUnits="userSpaceOnUse" fx="137.673" fy="202.162"/><radialGradient id="B" cx="105.153" cy="165.035" r="24.157" xlink:href="#e" gradientUnits="userSpaceOnUse" fx="105.153" fy="165.035"/><radialGradient id="C" cx="114.324" cy="171.986" r="55.631" xlink:href="#f" gradientUnits="userSpaceOnUse" fx="114.324" fy="171.986"/><radialGradient id="D" cx="118.36" cy="201.173" r="25.109" xlink:href="#g" gradientUnits="userSpaceOnUse" fx="118.36" fy="201.173"/><radialGradient id="E" cx="114.328" cy="171.99" r="55.614" xlink:href="#h" gradientUnits="userSpaceOnUse" fx="114.328" fy="171.99"/><linearGradient id="l" x1="103.99" x2="118.07" y1="229.561" y2="229.189" gradientUnits="userSpaceOnUse"><stop offset="0" stop-color="#fff"/><stop offset="1" stop-color="#EBD30F"/></linearGradient><linearGradient id="m" x1="107.77" x2="105.604" y1="228.699" y2="227.569" gradientUnits="userSpaceOnUse"><stop offset="0" stop-color="#EFEEEC"/><stop offset="1" stop-color="#F6E94F"/></linearGradient><linearGradient id="v" x1="105.57" x2="115.738" y1="226.415" y2="240.775" gradientUnits="userSpaceOnUse"><stop offset="0" stop-color="#FAFAFA"/><stop offset=".579" stop-color="#F6E94F"/><stop offset=".693" stop-color="#F3E54B"/><stop offset=".793" stop-color="#EAD740"/><stop offset=".888" stop-color="#DBC32F"/><stop offset=".98" stop-color="#C8A61A"/><stop offset="1" stop-color="#C3A016"/></linearGradient><radialGradient id="k" cx="-37.291" cy="214.005" r="19.446" gradientUnits="userSpaceOnUse" gradientTransform="matrix(-1 0 0 .847 55.653 28.519)" fy="214.005" fx="-37.291"><stop offset="0" stop-color="#fff"/><stop offset="1" stop-color="#224987"/></radialGradient><linearGradient id="j" x1="-100.206" x2="-83.826" y1="222.647" y2="222.647" gradientTransform="translate(191.69)" gradientUnits="userSpaceOnUse"><stop offset=".028" stop-color="#84A8C9"/><stop offset=".108" stop-color="#88ABCB"/><stop offset=".191" stop-color="#95B5CE"/><stop offset=".253" stop-color="#A3C0D3"/><stop offset=".294" stop-color="#9CBBD0"/><stop offset=".355" stop-color="#88ACCA"/><stop offset=".427" stop-color="#6A94BE"/><stop offset=".508" stop-color="#4177AF"/><stop offset=".511" stop-color="#3F76AF"/><stop offset=".736" stop-color="#224987"/><stop offset=".829" stop-color="#244D8A"/><stop offset=".924" stop-color="#2A5794"/><stop offset="1" stop-color="#3065A0"/></linearGradient><radialGradient id="i" cx="-64.877" cy="220.876" r="14.119" gradientUnits="userSpaceOnUse" gradientTransform="matrix(-1 0 0 1 55.359 0)" fy="220.876" fx="-64.877"><stop offset="0" stop-color="#ff8e6b"/><stop offset=".826" stop-color="#A40E0A"/><stop offset="1" stop-color="#660D0B"/></radialGradient><radialGradient id="F" cx="-64.877" cy="220.876" r="14.119" xlink:href="#i" gradientUnits="userSpaceOnUse" gradientTransform="matrix(-1 0 0 1 55.359 0)" fx="-64.877" fy="220.876"/><linearGradient id="G" x1="-100.206" x2="-83.826" y1="222.647" y2="222.647" xlink:href="#j" gradientUnits="userSpaceOnUse" gradientTransform="matrix(.565 .177 -.177 .565 132.227 -74.467)"/><radialGradient id="H" cx="-37.291" cy="214.005" r="19.446" xlink:href="#k" gradientUnits="userSpaceOnUse" gradientTransform="matrix(-.565 -.177 -.15 .479 50.328 -82.367)" fx="-37.291" fy="214.005"/><linearGradient id="I" x1="103.99" x2="118.07" y1="229.561" y2="229.189" xlink:href="#l" gradientUnits="userSpaceOnUse" gradientTransform="matrix(.542 -.181 .181 .542 -83.22 -63.382)"/><linearGradient id="J" x1="107.77" x2="105.604" y1="228.699" y2="227.569" xlink:href="#m" gradientUnits="userSpaceOnUse" gradientTransform="matrix(.542 -.181 .181 .542 -83.22 -63.382)"/><radialGradient id="w" cx="-64.877" cy="220.876" r="14.119" xlink:href="#n" gradientUnits="userSpaceOnUse" gradientTransform="matrix(-1 0 0 1 55.359 0)" fx="-64.877" fy="220.876"/><linearGradient id="L" x1="107.77" x2="105.604" y1="228.699" y2="227.569" xlink:href="#o" gradientUnits="userSpaceOnUse" gradientTransform="matrix(.387 .027 -.027 .387 6.658 -80.669)"/><linearGradient id="K" x1="103.99" x2="118.07" y1="229.561" y2="229.189" xlink:href="#p" gradientUnits="userSpaceOnUse" gradientTransform="matrix(.387 .027 -.027 .387 6.658 -80.669)"/><radialGradient id="s" cx="294.624" cy="80.627" r="48.777" fx="294.624" fy="80.627" gradientUnits="userSpaceOnUse"><stop offset="0" stop-color="#BAD1D7"/><stop offset=".826" stop-color="#6D7580"/><stop offset="1" stop-color="#41454C"/></radialGradient><radialGradient id="r" cx="257.459" cy="35.376" r="68.717" fx="257.459" fy="35.376" gradientUnits="userSpaceOnUse"><stop offset="0" stop-color="#fff"/><stop offset="1" stop-color="#8794A0"/></radialGradient><radialGradient id="q" cx="264.957" cy="80.291" r="53.348" fx="264.957" fy="80.291" gradientUnits="userSpaceOnUse"><stop offset="0" stop-color="#BAD1D7"/><stop offset="1" stop-color="#8794A0"/></radialGradient><radialGradient id="M" cx="264.957" cy="80.291" r="53.348" xlink:href="#q" gradientUnits="userSpaceOnUse" fx="264.957" fy="80.291"/><radialGradient id="N" cx="257.459" cy="35.376" r="68.717" xlink:href="#r" gradientUnits="userSpaceOnUse" fx="257.459" fy="35.376"/><radialGradient id="O" cx="294.624" cy="80.627" r="48.777" xlink:href="#s" gradientUnits="userSpaceOnUse" fx="294.624" fy="80.627"/><linearGradient x1="28.831" x2="27.864" y1="26.111" y2="18.499" gradientTransform="translate(54.142 -3.99)" xlink:href="#t" gradientUnits="userSpaceOnUse"/><linearGradient id="t"><stop offset="0"/><stop offset="1" stop-opacity="0"/></linearGradient><radialGradient cx="24.057" cy="12.669" r="10.413" xlink:href="#u" fx="24.057" fy="12.669" gradientTransform="matrix(1 0 0 .524 0 6.029)" gradientUnits="userSpaceOnUse"/><linearGradient id="u"><stop offset="0" stop-color="#fff" stop-opacity=".722"/><stop offset="1" stop-color="#fff" stop-opacity="0"/></linearGradient><radialGradient id="P" cx="24.057" cy="12.669" r="10.413" xlink:href="#u" gradientUnits="userSpaceOnUse" gradientTransform="matrix(1 0 0 .524 0 6.029)" fx="24.057" fy="12.669"/><radialGradient id="Q" cx="-64.877" cy="220.876" r="14.119" xlink:href="#v" gradientUnits="userSpaceOnUse" gradientTransform="matrix(-1 0 0 1 55.359 0)" fx="-64.877" fy="220.876"/></defs><g><circle cx="122.958" cy="224.694" r="9.443" fill="url(#w)" stroke="#2b5604" stroke-width="1.371" transform="matrix(.365 0 0 .365 -16.274 -56.564)"/><g fill="none" stroke="url(#x)"><path d="M29 25.46L8 30.48"/><path d="M28.6 25.5L42.2 35.5"/><path d="M28.7 3.3l.05 22.22"/></g><g opacity=".3"><path fill="url(#y)" d="M118.5 197.74l-10.9-13.13-1.8-20.94 11.9 10.56.8 23.52z" transform="matrix(1.046 0 0 1.046 -104.166 -163.352)"/><path fill="url(#z)" d="M141.84 167.45l-24.15 6.77-11.9-10.56 21.43-4.65 14.6 8.45z" transform="matrix(1.046 0 0 1.046 -104.166 -163.352)"/><path fill="url(#A)" d="M139.76 189.42l-21.26 8.32-.8-23.52 24.14-6.77-2.08 21.97z" transform="matrix(1.046 0 0 1.046 -104.166 -163.352)"/><g transform="matrix(1.046 0 0 1.046 -104.166 -163.352)"><radialGradient cx="105.153" cy="165.035" r="24.157" gradientUnits="userSpaceOnUse" fy="165.035" fx="105.153"><stop offset="0" stop-color="#fff"/><stop offset="1" stop-color="#545652"/></radialGradient><path fill="url(#B)" d="M117.7 174.22l-11.9-10.56" enable-background="new"/><radialGradient cx="114.324" cy="171.986" r="55.631" gradientUnits="userSpaceOnUse" fy="171.986" fx="114.324"><stop offset="0" stop-color="#fff"/><stop offset="1" stop-color="#EFEEEC"/></radialGradient><path fill="url(#C)" d="M105.5 164l11.88 10.56.6-.68-11.9-10.57-.6.7z"/></g><g transform="matrix(1.046 0 0 1.046 -104.166 -163.352)"><radialGradient cx="118.36" cy="201.173" r="25.109" gradientUnits="userSpaceOnUse" fy="201.173" fx="118.36"><stop offset="0" stop-color="#BABDB6"/><stop offset=".826" stop-color="#545652"/><stop offset="1" stop-color="#2D3335"/></radialGradient><path fill="url(#D)" d="M118.5 197.74l-.8-23.52" enable-background="new"/><radialGradient cx="114.328" cy="171.99" r="55.614" gradientUnits="userSpaceOnUse" fy="171.99" fx="114.328"><stop offset=".006" stop-color="#fff"/><stop offset="1" stop-color="#EFEEEC"/></radialGradient><path fill="url(#E)" d="M117.64 174.22h.9v23.52h-.9z"/></g><path fill="none" stroke="#192333" stroke-width="1.0038" d="M6.5 7.83l22.4-4.85 15.3 8.82L42 34.78l-22.23 8.7L8.36 29.75 6.5 7.83z"/></g><circle cx="122.958" cy="224.694" r="9.443" fill="url(#F)" stroke="#470907" stroke-width=".899" transform="matrix(.556 0 0 .556 -49.376 -105.92)"/><g transform="matrix(1.177 0 0 1.177 -46.233 -245.095)"><radialGradient cx="-62.017" cy="217.679" r="17.176" gradientUnits="userSpaceOnUse" gradientTransform="matrix(-1 0 0 1 55.359 0)" fy="217.679" fx="-62.017"><stop offset="0" stop-color="#fff"/><stop offset="1" stop-color="#A42522"/></radialGradient></g><g><path fill="url(#G)" d="M47.6 30.02l-3.08 9.83c-.25.82-.96 1.5-2.06 1.84-2.2.68-5.13-.24-6.54-2.05-.7-.9-.96-1.7-.7-2.53l3.12-10" transform="translate(-.067)"/><path fill="url(#H)" d="M40.07 26.36c-2.08.32-2.53 1.75-1 3.2 1.53 1.45 4.46 2.36 6.54 2.04 2.1-.3 2.54-1.75 1-3.2-1.52-1.44-4.45-2.36-6.53-2.04z" transform="translate(-.067)"/><path fill="none" stroke="#003745" stroke-width=".5" d="M47.4 30.43l-2.95 9.42c-.25.82-.96 1.5-2.06 1.84-2.2.68-5.14-.24-6.55-2.06-.7-.9-.96-1.7-.7-2.52l3-9.6c.18-.56.8-1 1.85-1.16 2.08-.32 5 .6 6.54 2.04.77.73 1.04 1.45.86 2.03z"/></g><g><path fill="url(#I)" d="M25.2 42.3c.52 1.54-1.02 3.32-4.65 4.54-3.2 1.07-5.67.55-6.15-.9-.02-.06-.02-.13 0-.18L16.5 34.7c.03-.13.13-.16.23-.07l8.35 7.5c.04.05.07.1.1.16z" transform="translate(0 .337)"/><path fill="url(#J)" d="M16.7 34.54l.26 12.84c-1.7.02-2.6-1.04-2.57-1.62l2.2-11.2.1-.02z" transform="translate(0 .337)"/><path fill="none" stroke="#540" stroke-width=".5" d="M24.9 42.28c.2.16.32.36.4.58.46 1.38-1.6 3.26-4.58 4.26-3 1-5.76.74-6.23-.64-.1-.26-.1-.54-.02-.83l2.16-10.76 8.27 7.38z"/></g><g><path fill="url(#K)" d="M47.13 13.85c-.08 1.1-1.5 1.83-4.1 1.65-2.3-.17-3.7-1.13-3.62-2.17 0-.04.03-.1.05-.12l4.2-6.36c.06-.08.14-.07.18 0l3.28 6.9c.02.03.03.07.03.1z"/><path fill="url(#L)" d="M43.8 6.78l-3.16 8.12c-1.08-.43-1.37-1.33-1.2-1.7l4.32-6.43h.05z"/><path fill="none" stroke="#5c3566" stroke-width=".5" d="M47.04 13.56c.07.15.1.3.1.46-.08 1-1.86 1.64-4 1.5-2.12-.17-3.8-1.05-3.73-2.04.03-.2.1-.36.22-.52l4.16-6.2 3.26 6.8z"/></g><g><path fill="url(#M)" d="M273.55 75.76l-12-14.42-1.98-23.04 13.08 11.6.9 25.86z" transform="matrix(.204 .072 -.072 .204 -45.898 -23.089)"/><path fill="url(#N)" d="M299.2 42.47l-26.55 7.44-13.07-11.6 23.56-5.1 16.06 9.27z" transform="matrix(.204 .072 -.072 .204 -45.898 -23.089)"/><path fill="url(#O)" d="M296.92 66.62l-23.37 9.14-.9-25.85 26.55-7.43-2.28 24.15z" transform="matrix(.204 .072 -.072 .204 -45.898 -23.089)"/><path fill="none" stroke="#3f3131" stroke-width=".42.414" d="M4.3 3.5l5.16.73 2.6 3S10.6 10.43 9.85 12l-5.4.14L3 8.34z"/></g><g color="#000"><path fill="#fcaf3e" stroke="#934200" stroke-width=".3.682" d="M9.93 26.4C6.63 25 3.2 25.65 2.2 27.9c-.96 2.24.92 5.22 4.2 6.65 3.28 1.42 6.75.76 7.72-1.48.97-2.24-.9-5.2-4.2-6.64zm-1.24 3c1.48.65 2.25 2.1 2.28 2.1.06.04-1.55.27-3.04-.37-1.5-.65-2.35-2-2.35-1.98 0 0 1.6-.4 3.1.26z" overflow="visible"/><path fill="url(#P)" d="M34.47 12.67c0 3-4.66 5.46-10.4 5.46-5.76 0-10.43-2.45-10.43-5.46 0-3 4.67-5.46 10.42-5.46s10.4 2.46 10.4 5.47z" transform="matrix(.292 .057 -.057 .292 .474 21.976)" overflow="visible"/></g><circle cx="122.958" cy="224.694" r="9.443" fill="url(#Q)" stroke="#470907" stroke-width="1.844" transform="matrix(.271 0 0 .271 -4.671 -57.447)"/></g></svg>