<svg xmlns="http://www.w3.org/2000/svg" width="48" height="48" xmlns:xlink="http://www.w3.org/1999/xlink"><defs><linearGradient id="f"><stop offset="0" stop-color="#eeeeec"/><stop offset="1" stop-color="#eeeeec" stop-opacity="0"/></linearGradient><linearGradient id="e"><stop offset="0" stop-color="#ce5c00" stop-opacity=".722"/><stop offset="1" stop-color="#ce5c00" stop-opacity="0"/></linearGradient><linearGradient><stop offset="0"/><stop offset="1" stop-opacity="0"/></linearGradient><linearGradient id="c"><stop offset="0" stop-color="#eeeeec"/><stop offset="1" stop-color="#eeeeec" stop-opacity="0"/></linearGradient><linearGradient id="d" x1="924.846" x2="924.846" y1="113.555" y2="100.623" gradientUnits="userSpaceOnUse" gradientTransform="translate(-900.846 -82.884)"><stop offset="0" stop-color="#fff"/><stop offset=".668" stop-color="#FAAF3E"/><stop offset="1" stop-color="#F88017"/></linearGradient><linearGradient id="a" x1="919.246" x2="921.458" y1="112.538" y2="102.428" gradientUnits="userSpaceOnUse"><stop offset="0" stop-color="#F17912"/><stop offset=".427" stop-color="#CE5C0B"/><stop offset="1" stop-color="#40200C"/></linearGradient><linearGradient id="b" x1="929.85" x2="941.769" y1="109.412" y2="106.154" gradientUnits="userSpaceOnUse" gradientTransform="translate(-900.846 -82.884)"><stop offset="0" stop-color="#faaf3e" stop-opacity="0"/><stop offset=".607" stop-color="#fff"/><stop offset="1" stop-color="#f6e9d0" stop-opacity="0"/></linearGradient><linearGradient x1="937.42" x2="933.185" y1="112.15" y2="102.686" gradientUnits="userSpaceOnUse"><stop offset="0" stop-color="#F17912"/><stop offset=".427" stop-color="#CE5C0B"/><stop offset="1" stop-color="#40200C"/></linearGradient><linearGradient x1="929.913" x2="928.44" y1="108.661" y2="100.618" gradientUnits="userSpaceOnUse"><stop offset="0" stop-color="#F17912"/><stop offset=".427" stop-color="#CE5C0B"/><stop offset="1" stop-color="#40200C"/></linearGradient><linearGradient x1="929.913" x2="928.44" y1="108.661" y2="100.618" gradientUnits="userSpaceOnUse"><stop offset="0" stop-color="#F17912"/><stop offset=".427" stop-color="#CE5C0B"/><stop offset="1" stop-color="#40200C"/></linearGradient><linearGradient x1="937.42" x2="933.185" y1="112.15" y2="102.686" gradientUnits="userSpaceOnUse"><stop offset="0" stop-color="#F17912"/><stop offset=".427" stop-color="#CE5C0B"/><stop offset="1" stop-color="#40200C"/></linearGradient><linearGradient x1="919.246" x2="921.458" y1="112.538" y2="102.428" gradientUnits="userSpaceOnUse"><stop offset="0" stop-color="#F17912"/><stop offset=".427" stop-color="#CE5C0B"/><stop offset="1" stop-color="#40200C"/></linearGradient><linearGradient x1="919.246" x2="921.458" y1="112.538" y2="102.428" xlink:href="#a" gradientUnits="userSpaceOnUse" gradientTransform="translate(-900.846 -82.884)"/><linearGradient x1="930.679" x2="941.769" y1="108.514" y2="106.154" xlink:href="#b" gradientUnits="userSpaceOnUse" gradientTransform="matrix(.919 0 0 .919 -859.755 -89.931)"/><linearGradient x1="27.238" x2="19.429" y1="20.73" y2="25.238" xlink:href="#c" gradientUnits="userSpaceOnUse"/><linearGradient x1="924.846" x2="924.846" y1="113.555" y2="100.623" xlink:href="#d" gradientUnits="userSpaceOnUse" gradientTransform="translate(-900.846 -82.884)"/><linearGradient x1="27.238" x2="19.429" y1="20.73" y2="25.238" xlink:href="#c" gradientUnits="userSpaceOnUse"/><linearGradient id="i" x1="27.238" x2="19.429" y1="20.73" y2="25.238" xlink:href="#c" gradientUnits="userSpaceOnUse" gradientTransform="matrix(1.005 0 0 1.621 -.004 -12.678)"/><linearGradient id="g" x1="924.846" x2="924.846" y1="113.555" y2="100.623" xlink:href="#d" gradientUnits="userSpaceOnUse" gradientTransform="matrix(1.005 0 0 1.621 -905.752 -147.052)"/><linearGradient id="j" x1="29.093" x2="33.775" y1="23.492" y2="21.968" xlink:href="#e" gradientUnits="userSpaceOnUse"/><linearGradient id="h" x1="27.075" x2="28.29" y1="18.957" y2="35.062" xlink:href="#f" gradientUnits="userSpaceOnUse"/></defs><g><path fill="url(#g)" stroke="#40200c" d="M47.1 37.3s-6.96.05-9.68 0c-4.36-.05-8.02-9.77-8.02-9.77s-4.34 9.78-11.2 9.78c-4.08 0-17.04 0-17.04 0l9.44-17.9s6.6 0 8.47 0c4.48 0 7.1-4.7 8.64-5.9.78 1.24 2.74 5.9 6.7 5.9.43 0 4.3 0 4.3 0l8.4 17.9z"/><path fill="none" stroke="url(#h)" d="M45.38 36.15s-5.5.3-7.95.25c-3.92-.06-7.98-10.7-7.98-10.7S24.4 36.2 18.2 36.2c-3.66 0-15.32 0-15.32 0l8.37-15.9s6.13.14 7.82.14c4.03 0 7.28-4.4 8.67-5.5.7 1.12 2.84 5.5 6.4 5.5.4 0 3.87 0 3.87 0l7.38 15.7z"/><path fill="url(#i)" fill-rule="evenodd" d="M19.9 19.84c4.57-.82 7.8-5.8 7.8-5.8s1.6 11 1.85 12.6c-1.85 3.9-6.4 9.53-10.53 10.08.2-2.26.77-15.54.9-16.88z"/><path fill="none" stroke="#ce5c00" d="M20.04 20.16l-.7 15.98" stroke-dasharray="1.00000037, 1.00000037"/><path fill="url(#j)" fill-rule="evenodd" d="M33.2 19.6c-2.4-.57-5.5-5.3-5.5-5.3s1.83 11.02 1.57 12.6c1.73 3.65 5.06 9.86 8.2 9.9-.46-1.56-3.9-15.67-4.27-17.2z"/><path fill="none" stroke="#ce5c00" d="M27.8 14.28l1.6 12.42" stroke-linecap="round"/><path fill="none" stroke="#ce5c00" d="M33.02 19.68l4.47 16.9" stroke-dasharray="1.00000037, 1.00000037"/></g></svg>