<svg xmlns="http://www.w3.org/2000/svg" width="48" height="48" xmlns:xlink="http://www.w3.org/1999/xlink"><defs><linearGradient id="c"><stop offset="0" stop-color="#a7c2e4"/><stop offset="1" stop-color="#2360af"/></linearGradient><linearGradient id="b"><stop offset="0" stop-color="#eeeeec"/><stop offset="1" stop-color="#eeeeec" stop-opacity="0"/></linearGradient><linearGradient id="a"><stop offset="0" stop-color="#8ab0dc"/><stop offset="1" stop-color="#3165a1"/></linearGradient><linearGradient x1="1011.632" x2="1031.486" y1="1677.312" y2="1711.281" gradientUnits="userSpaceOnUse" gradientTransform="translate(-988.16 -1655.317)"><stop offset="0" stop-color="#FEF3DC"/><stop offset="1" stop-color="#FAAF3E"/></linearGradient><linearGradient id="f" x1="-.302" x2="47.657" y1="19.812" y2="25.812" xlink:href="#a" gradientUnits="userSpaceOnUse" gradientTransform="matrix(.985 0 0 .985 .36 .342)"/><linearGradient x1="-.302" x2="47.657" y1="19.812" y2="25.812" xlink:href="#a" gradientUnits="userSpaceOnUse" gradientTransform="translate(-2.57 -10.026)"/><linearGradient id="g" x1="21.988" x2="41.564" y1="11.616" y2="38.206" xlink:href="#b" gradientUnits="userSpaceOnUse" gradientTransform="matrix(.988 0 0 .988 .213 .234)"/><linearGradient id="d" x1="36.648" x2="33.598" y1="14.108" y2="34.774" xlink:href="#c" gradientUnits="userSpaceOnUse"/><linearGradient id="i" x1="34.846" x2="31.47" y1="13.683" y2="34.355" xlink:href="#c" gradientUnits="userSpaceOnUse" gradientTransform="matrix(1.143 0 0 1 -5.064 0)"/><linearGradient id="e" x1="19.113" x2="15.695" y1="11.726" y2="33.344" xlink:href="#c" gradientUnits="userSpaceOnUse"/><linearGradient id="h" x1="17.766" x2="14.209" y1="11.496" y2="32.853" xlink:href="#c" gradientUnits="userSpaceOnUse" gradientTransform="matrix(1.152 0 0 1 -2.622 0)"/></defs><g><path fill="url(#d)" stroke="#204a87" d="M33 34.26l.37-2.4c.14.03.37-.03.68-.32.3-.3.66-.78 1-1.43.65-1.3 1.23-3.2 1.53-5.37.3-2.16.26-4.17-.02-5.6-.14-.72-.34-1.3-.56-1.66-.22-.37-.42-.5-.6-.52l.38-2.34c.72.1 1.26.63 1.64 1.25.37.62.63 1.38.8 2.3.37 1.84.42 4.24.05 6.82-.36 2.6-1.06 4.87-1.9 6.54-.44.84-.9 1.53-1.43 2-.53.5-1.22.86-1.93.76z" color="#000" overflow="visible"/><path fill="url(#e)" stroke="#204a87" d="M14.4 32.83l.4-2.64c.17.02.42-.05.76-.37.35-.32.74-.86 1.1-1.57.74-1.44 1.4-3.55 1.72-5.93.33-2.38.3-4.6-.02-6.18-.16-.8-.38-1.42-.63-1.82-.24-.4-.47-.54-.65-.58l.4-2.58c.8.12 1.42.7 1.84 1.37.42.68.7 1.53.9 2.54.4 2.02.46 4.67.05 7.52-.4 2.84-1.18 5.37-2.14 7.2-.47.92-.98 1.67-1.58 2.2-.6.55-1.35.94-2.15.83z" color="#000" overflow="visible"/><path fill="url(#f)" stroke="#204a87" d="M11.16 10c-2.83.27-5.16 1.3-6.9 2.87-2.3 2.08-3.52 4.97-3.68 7.9-.17 2.94.7 5.96 2.6 8.3 1.92 2.36 4.9 4 8.7 4.17h.02l24.8 1.57c5.6.4 9.56-3.9 10.5-8.5.48-2.28.26-4.72-.9-6.82-1.2-2.1-3.35-3.76-6.32-4.4L14.3 10.04c-1.02-.18-2.1-.08-3.14-.04zm2.56 2.93h.06l25.58 5.04c2.27.5 3.57 1.6 4.34 2.96.77 1.37.97 3.1.62 4.8-.7 3.4-3.4 6.4-7.42 6.12l-24.84-1.57h-.03c-3.05-.12-5.16-1.35-6.56-3.07-1.4-1.72-2.07-4-1.94-6.24.13-2.24 1.04-4.4 2.7-5.9 1.65-1.5 4.05-2.4 7.5-2.13z"/><path fill="none" stroke="url(#g)" stroke-width=".7" d="M11.27 10.88c-2.62.25-4.78 1.2-6.38 2.65-2.14 1.92-3.27 4.6-3.43 7.3-.15 2.7.66 5.5 2.42 7.68 1.76 2.18 4.52 3.7 8.02 3.85h.03l24.58 1.52c5.17.35 8.84-3.6 9.7-7.85.45-2.12.25-4.38-.84-6.3-1.1-1.94-2.96-3.2-5.7-3.8l-25.53-5c-.95-.17-1.94-.08-2.9-.04z"/><path fill="url(#h)" stroke="#204a87" d="M13.8 32.84c-.93-.1-1.7-.72-2.18-1.4-.48-.68-.8-1.55-1.04-2.56-.46-2.03-.48-4.67-.02-7.52.47-2.85 1.34-5.37 2.43-7.2.54-.92 1.12-1.65 1.8-2.2.7-.53 1.55-.9 2.47-.8l-.52 2.68c-.9.26-1.5 1.07-2.03 1.86-.85 1.43-1.6 3.54-1.98 5.93-.38 2.38-.33 4.6.02 6.18.18.8.45 1.43.73 1.83.27.4.5.54.68.56l-.4 2.64z" color="#000" overflow="visible"/><path fill="url(#i)" stroke="#204a87" d="M32.23 33.85c-.82-.1-1.5-.65-1.92-1.27-.42-.62-.7-1.4-.92-2.32-.4-1.84-.43-4.23-.02-6.82.42-2.58 1.2-4.87 2.16-6.53.5-.82 1-1.5 1.62-1.97.6-.5 1.37-.83 2.2-.73l-.47 2.42c-.8.24-1.33.97-1.8 1.7-.76 1.3-1.43 3.2-1.77 5.36-.34 2.16-.3 4.17.02 5.6.16.72.4 1.3.65 1.66.25.37.45.5.6.5l-.34 2.4z" color="#000" overflow="visible"/></g></svg>