<svg xmlns="http://www.w3.org/2000/svg" width="48" height="48" xmlns:xlink="http://www.w3.org/1999/xlink"><defs><linearGradient id="c"><stop offset="0" stop-color="#ccc5aa"/><stop offset="1" stop-color="#b1a57c"/></linearGradient><linearGradient id="b"><stop offset="0" stop-color="#88804f"/><stop offset="1" stop-color="#726935"/></linearGradient><linearGradient id="a"><stop offset="0" stop-color="#6d633f"/><stop offset="1" stop-color="#9f905c"/></linearGradient><linearGradient><stop offset="0" stop-color="#fff" stop-opacity="0"/><stop offset=".5" stop-color="#fff"/><stop offset="1" stop-color="#fff" stop-opacity="0"/></linearGradient><marker orient="auto" overflow="visible"><path fill-rule="evenodd" stroke="#000" stroke-width=".4pt" d="M2.3 0l-3.45 2v-4L2.3 0z"/></marker><marker orient="auto" overflow="visible"><path fill-rule="evenodd" stroke="#000" stroke-width=".8pt" d="M4.62 0L-2.3 4v-8l6.92 4z"/></marker><marker orient="auto" overflow="visible"><path fill-rule="evenodd" stroke="#000" stroke-width=".8pt" d="M-10 0l-4 4L0 0l-14-4 4 4z"/></marker><linearGradient id="e" x1="12.644" x2="15.785" y1="29.132" y2="42.402" xlink:href="#a" gradientUnits="userSpaceOnUse"/><linearGradient id="f" x1="35.93" x2="41.432" y1="24.774" y2="35.187" xlink:href="#b" gradientUnits="userSpaceOnUse"/><radialGradient id="d" cx="23.914" cy="18.778" r="23.3" xlink:href="#c" fx="23.914" fy="18.778" gradientTransform="matrix(.789 -.273 .182 .526 1.635 16.726)" gradientUnits="userSpaceOnUse"/></defs><g><path fill="url(#d)" fill-rule="evenodd" d="M.6 25.4l.74 12.7c.85 2.03 2.38 2.7 4.02 3.15l23.7 6.34c3.1-.02 5.27-.93 7-2.27l9.55-15.17s1.02-.22 1.24-.8c.2-.6-.38-1.53-.38-1.53l.75-8.76c-.36-2.05-1.93-3.5-3.9-4.75L21.17 7.98c-2.48-.4-4.87-.15-7.08 1.6L.6 25.4z"/><path fill="url(#e)" fill-rule="evenodd" d="M1.1 25.55l27.75 7.9c3.5 5 3.34 11.5.4 13.5l-24.9-6.56C2.9 40 2.3 38.8 1.9 37.9l-.8-12.37z"/><path fill="url(#f)" fill-rule="evenodd" d="M28.95 33.66l14.27-19.2c1.32 1.32 3 1.63 3.6 5.12l-.25 7.84c.53 1.1.05 3.3-1.28 3.9L35.77 45c-1.88 1.5-4.5 1.84-6.63 2.02 2.2-1.6 3.42-7.73-.2-13.38z"/><path fill="none" stroke="#403a25" stroke-width="1.56" d="M.85 25.25l.72 12.55c.84 2.03 2.35 2.7 3.98 3.14l23.48 6.28c3.05 0 5.2-.9 6.94-2.24l9-13.5c1.74.2 2.87-2.82 1.6-4.35l.43-8.15c-.37-2.03-1.92-3.47-3.87-4.7L31.36 10.9 21.2 8c-2.45-.4-4.82-.16-7 1.56L.85 25.26z"/><path fill="#ef2929" fill-rule="evenodd" stroke="#eeeeec" stroke-width="2" d="M26.86 1.37l3.1 8.18-8.9-1.5 5.8-6.68z"/><path fill="none" stroke="#eeeeec" stroke-width="4" d="M24.5 15.56l1.7-10.2"/><path fill="none" stroke="#eeeeec" stroke-width="4" d="M10.86 16.07c6.66 2.03 8.9-3.18 13.9-1.52 5.02 1.65 3.5 6.73 9.97 8.82" stroke-linecap="round"/><path fill="none" stroke="#ef2929" stroke-width="2" d="M24.6 14.62l1.56-9.1"/><path fill="#ef2929" fill-rule="evenodd" d="M26.9 1.68l2.94 7.72-8.4-1.4 5.46-6.32z"/><path fill="none" stroke="#ef2929" stroke-width="2" d="M10.92 16c6.67 2.03 8.9-3.17 13.9-1.52 5.02 1.65 3.5 6.73 9.97 8.82" stroke-linecap="round"/></g></svg>