<svg xmlns="http://www.w3.org/2000/svg" width="48" height="48" xmlns:xlink="http://www.w3.org/1999/xlink"><defs><linearGradient id="e"><stop offset="0" stop-color="#2e3436"/><stop offset="1" stop-color="#2e3436" stop-opacity="0"/></linearGradient><linearGradient id="d"><stop offset="0" stop-color="#fff"/><stop offset="1" stop-color="#eeeeec" stop-opacity="0"/></linearGradient><linearGradient id="c"><stop offset="0" stop-color="#b9ec95"/><stop offset="1" stop-color="#656565"/></linearGradient><linearGradient id="b"><stop offset="0" stop-color="#2e3436" stop-opacity=".398"/><stop offset="1" stop-color="#2e3436" stop-opacity="0"/></linearGradient><linearGradient id="a"><stop offset="0" stop-color="#b8f18f"/><stop offset="1" stop-color="#6ab800"/></linearGradient><linearGradient id="g" x1="16.041" x2="29.658" y1="12.093" y2="46.505" xlink:href="#a" gradientUnits="userSpaceOnUse" gradientTransform="matrix(.98 0 0 .98 .432 .848)"/><linearGradient id="i" x1="13.016" x2="17.677" y1="24.461" y2="23.032" xlink:href="#b" gradientUnits="userSpaceOnUse" gradientTransform="matrix(.98 0 0 .98 .432 .848)"/><linearGradient id="h" x1="18.814" x2="19.781" y1="8.803" y2="21.577" xlink:href="#c" gradientUnits="userSpaceOnUse"/><linearGradient id="j" x1="9.69" x2="12.635" y1="4.834" y2="9.342" xlink:href="#d" gradientUnits="userSpaceOnUse" gradientTransform="matrix(.979 -.053 .053 .979 .033 1.534)"/><radialGradient id="f" cx="22.349" cy="43.968" r="18.476" xlink:href="#e" fx="22.349" fy="43.968" gradientTransform="matrix(1 0 0 .249 0 33.014)" gradientUnits="userSpaceOnUse"/></defs><g><path fill="url(#f)" d="M40.83 43.97a18.48 4.6 0 1 1-36.96 0 18.48 4.6 0 1 1 36.96 0z" transform="matrix(1.009 0 0 1.062 -1.356 -3.778)" color="#000" overflow="visible"/><path fill="url(#g)" stroke="#1d3f00" stroke-width="1.5" d="M21.72 2.1C32.9 11.7 40.4 25.16 40.68 41.43c.05 2.67-4.66 5.48-10.82 5.75-6.17.27-11.43-2.1-11.42-5 0-6.66-.64-15.24-14.58-26.97" color="#000" overflow="visible"/><path fill="url(#h)" stroke="#1d3f00" stroke-width="1.235" d="M29.33 12.5a9.17 4 0 1 1-18.35 0 9.17 4 0 1 1 18.35 0z" transform="matrix(.996 -.702 .714 .976 -16.325 10.568)" color="#000" overflow="visible"/><path fill="url(#i)" fill-rule="evenodd" d="M5.72 16.35c4.14.23 9.87-2.94 11.77-4.73 1.08-1.04 1.1 25.58 1.1 25.58-1.6-8.12-6-15-12.88-20.85z"/><g fill="none" stroke-linecap="round"><path stroke="#fff" stroke-opacity=".769" stroke-width=".92.09" d="M22.35 10.5C30.12 17.7 35.4 31 35.98 41.7"/><path stroke="#eeeeec" stroke-opacity=".627" stroke-width="2.7600000000000002.269" d="M22.4 10.64c7.76 7.2 13.04 20.5 13.63 31.2"/><path stroke="#eeeeec" stroke-opacity=".251" stroke-width="4.6000000000000005.449" d="M22.43 10.9c7.77 7.18 13.05 20.5 13.63 31.2"/></g><path fill="none" stroke="#fff" stroke-opacity=".682" d="M23.14 5.22c-.4 2.4-1.44 4.34-5.8 7.52-4.34 3.17-7.2 4.2-9.28 4.6C17.98 26 19.7 35.17 19.7 42.27c-.02 2.38 6.4 3.8 9.42 3.74 4.33-.08 10.52-1.95 10.45-4.62-.28-11.6-5.24-26.56-16.43-36.16z" color="#000" overflow="visible"/><path fill="none" stroke="url(#j)" d="M4.7 14.9c-1.47-1.92 1.08-6.1 5.68-9.33 4.6-3.23 9.5-4.3 10.97-2.37" color="#000" overflow="visible"/></g></svg>