<svg xmlns="http://www.w3.org/2000/svg" width="48" height="48" xmlns:xlink="http://www.w3.org/1999/xlink"><defs><linearGradient id="a"><stop offset="0" stop-color="#2e3436"/><stop offset="1" stop-color="#2e3436" stop-opacity="0"/></linearGradient><linearGradient id="f" x1="2.452" x2="40.321" y1="44.983" y2="35.269" xlink:href="#a" gradientUnits="userSpaceOnUse" gradientTransform="translate(-.75 -2.411)"/><linearGradient id="b"><stop offset="0" stop-color="#590b08"/><stop offset="1" stop-opacity="0"/></linearGradient><linearGradient id="k" x1="8.071" x2="8.071" y1="3.993" y2="15.429" xlink:href="#b" gradientUnits="userSpaceOnUse" gradientTransform="matrix(-.339 1.309 -1.295 -.335 55.128 19.501)"/><linearGradient id="c" x1="-95.827" x2="-81.455" y1="297.608" y2="297.608" gradientTransform="matrix(0 -1.064 -1.352 0 410.498 -83.416)" gradientUnits="userSpaceOnUse"><stop offset="0" stop-color="#e96712" stop-opacity="0"/><stop offset=".622" stop-color="#D52E0C"/><stop offset="1" stop-color="#CB1009"/></linearGradient><linearGradient id="j" x1="-95.827" x2="-81.455" y1="297.608" y2="297.608" xlink:href="#c" gradientUnits="userSpaceOnUse" gradientTransform="matrix(1.03 .267 .339 -1.309 30.224 440.03)"/><radialGradient id="e" cx="997.802" cy="333.159" r="20.817" gradientUnits="userSpaceOnUse" gradientTransform="matrix(1 -.245 0 1.154 -979.124 -101.027)" fy="333.159" fx="997.802"><stop offset="0"/><stop offset="1" stop-opacity="0"/></radialGradient><linearGradient id="i" x1="987.41" x2="1027.354" y1="283.781" y2="244.642" gradientUnits="userSpaceOnUse"><stop offset=".006" stop-color="#414951"/><stop offset=".125" stop-color="#3C454E"/><stop offset=".285" stop-color="#313A45"/><stop offset=".467" stop-color="#202938"/><stop offset=".534" stop-color="#192333"/><stop offset=".723" stop-color="#2C3541"/><stop offset=".892" stop-color="#3B434C"/><stop offset="1" stop-color="#414951"/></linearGradient><linearGradient id="h" x1="1015.583" x2="1018.824" y1="207.749" y2="214.619" xlink:href="#d" gradientUnits="userSpaceOnUse" gradientTransform="matrix(.966 .259 -.259 .966 75.448 -206.591)"/><linearGradient id="d" x1="1015.583" x2="1018.824" y1="207.749" y2="214.619" gradientTransform="matrix(.966 .259 -.259 .966 75.448 -206.591)" gradientUnits="userSpaceOnUse"><stop offset="0" stop-color="#ED2829"/><stop offset="1" stop-color="#CB1009"/></linearGradient><linearGradient id="g" x1="1015.583" x2="1018.824" y1="207.749" y2="214.619" xlink:href="#d" gradientUnits="userSpaceOnUse" gradientTransform="matrix(.966 .259 -.259 .966 75.448 -206.591)"/><linearGradient x1="1013.657" x2="1014.284" y1="267.806" y2="278.781" gradientUnits="userSpaceOnUse"><stop offset="0" stop-color="#fff"/><stop offset=".147" stop-color="#FCFCFC"/><stop offset=".276" stop-color="#F1F1F1"/><stop offset=".397" stop-color="#DFDFDF"/><stop offset=".514" stop-color="#C6C6C6"/><stop offset=".629" stop-color="#A5A5A5"/><stop offset=".741" stop-color="#7D7D7D"/><stop offset=".851" stop-color="#4E4E4E"/><stop offset=".957" stop-color="#181818"/><stop offset="1"/></linearGradient><linearGradient id="l" x1="-95.827" x2="-81.455" y1="297.608" y2="297.608" xlink:href="#c" gradientUnits="userSpaceOnUse" gradientTransform="matrix(.719 .784 .996 -.914 -199.349 377.414)"/><linearGradient id="m" x1="8.071" x2="8.071" y1="3.993" y2="15.429" xlink:href="#b" gradientUnits="userSpaceOnUse" gradientTransform="matrix(-.996 .914 -.904 -.985 50.213 38.027)"/><linearGradient id="n" x1="-95.827" x2="-81.455" y1="297.608" y2="297.608" xlink:href="#c" gradientUnits="userSpaceOnUse" gradientTransform="matrix(-.168 1.051 1.335 .213 -389.766 69.314)"/><linearGradient id="o" x1="8.071" x2="8.071" y1="3.993" y2="15.429" xlink:href="#b" gradientUnits="userSpaceOnUse" gradientTransform="matrix(-1.335 -.213 .211 -1.321 31.224 54.071)"/><linearGradient x1="2.746" x2="40.472" y1="42.116" y2="32.116" xlink:href="#e" gradientUnits="userSpaceOnUse"/></defs><g><path fill="url(#f)" d="M45 31.73c0 1.6-9.88 5.34-22.08 8.33-12.2 3-22.07 4.1-22.07 2.5 0-1.6 9.88-5.34 22.07-8.33 12.2-3 22.08-4.1 22.08-2.5z"/><g transform="translate(-979.124 -238.637)"><linearGradient x1="1015.583" x2="1018.824" y1="207.749" y2="214.619" gradientTransform="matrix(.966 .259 -.259 .966 75.448 -206.591)" gradientUnits="userSpaceOnUse"><stop offset="0" stop-color="#ED2829"/><stop offset="1" stop-color="#CB1009"/></linearGradient><path fill="url(#g)" d="M988.94 277.66c.32-.2.67-.42 1.03-.67 10.73-7.28 21.2-17.58 23.5-19.74.96-.9 1.76-1.7 2.52-2.6.1-.17.08-.73.58-1.62.5-.9.34-1.73 1.36-3.6 1.6-2.7 1.14-2.9 1.45-3.38.85-1.08 1.43-2.55 1.85-3.08.4-.53-.8-1.03-1.6-1-.75.34-1.45.56-1.92.54-.86-.06-4.5-.06-6.96 1.06-5.44 2.5-17.5 13.93-22.63 21.6-.5.78-1.02 1.66-1.42 2.33-.25.53.06 1.12-.08 1.6-.14.46-1.22 2.6-1.67 3.66-.44 1.05-.47 2.8.08 3.4.56.62 1.12 1.57 3.03 1.1 1.92-.48 1.27.04.86.4z"/><path fill="#cb1009" d="M1013.76 256.85c.15-.16.32-.32.48-.48.5-.5.84-1.03 1.23-1.58.14-.2.03-.32.1-.56.08-.2.23-.37.35-.56.25-.4.15-.97.3-1.4.06-.22.25-.44.35-.64.1-.2.15-.42.25-.63.2-.44.47-.87.6-1.35.1-.3-.05-.28-.12-.54-.06-.23.12-.5.26-.67.35-.4.88-.85 1.08-1.32.13-.28.13-.6.27-.9.14-.25.4-.47.54-.7.35-.54.67-1.1.97-1.65.13-.22.28-.47.37-.7.07-.2.17-.53.03-.7-.22-.25-.95-.24-1.25-.22-.4.03-.8.3-1.34.45-.32.06-4.8-.62-9 1.9-.42.27 4.8-2.13 6.92-1.54.2.04-1.4.57-4.16 2.5-2.74 1.94-7.96 5-8.62 6.9-.66 1.87-.35 5.54-1.22 6.9-.86 1.38-1.78 2.8-3.7 4.84-1.94 2.03-6.37 3.7-8.3 4.62-1.93.92-4.57 3.16-4.77 3.77-.2.6-.6 2.16.33 3.37.94 1.22 1.7 1.05 3.22.7 1.5-.33 1.2.03 1.18.13-.04.1 7.82-5.8 9.7-7.4 1.9-1.62 13.74-12.27 13.98-12.52z"/><path fill="#b3090a" d="M1018.7 245.9c.35-.52.44-1.6-.48-1.44-.93.15-4.37 1.26-6.83 3.17-2.47 1.92-2.73 2.85-3.24 5.93-.18.96-5.18 5.72-6.35 7.13-1.25 1.48-2.38 2.86-3.5 3.9-1.1 1.05-3 2.46-7.75 5.5-1.94 1.2-3.7 3.74-3.2 4.2 1.5 1.47 4.1 1.06 5.75 0 1.64-1.04 20.1-17.03 21.2-18.5 1.1-1.46 1.67-5.44 2.36-6.6.75-1.3 1.77-2.92 2.04-3.3z"/><path fill="#a40e0a" d="M1017.45 247c.4-.57-1-1.76-2.92-.84-1.92.9-4.1 1.56-5.73 6.67-.8 2.63-3.87 5.23-5.5 8.2-1 1.84 1 3.67 8.13-3.1 3.2-2.94 3.48-4.07 3.78-5.54.3-1.5 1.25-3.97 2.25-5.4z"/><g fill="none" stroke-width=".4"><path stroke="#7f0c07" d="M1017.62 248.77c-2.8 1.9-4.97 3.66-12.6 11.17-7.65 7.5-11.9 11.37-18.42 16.6"/><path stroke="#f8170f" d="M986.88 276.9c6.44-5.16 10.58-8.9 18.46-16.63 7.76-7.63 9.86-9.32 12.53-11.12"/><path stroke="#7f0c07" d="M1018.86 245.3c-1.5.47-5.22 1.97-8.36 4.58-3.13 2.62-6 5.23-10.25 9.48-4.25 4.24-9.54 9.8-15.15 14.9"/><path stroke="#f8170f" d="M985.4 274.58c4.28-3.88 8.36-8.02 11.96-11.66l3.2-3.24c4-4 6.87-6.65 10.23-9.45 2.96-2.47 6.54-3.98 8.2-4.48"/><path stroke="#7f0c07" d="M1017.23 243.55c-2.3.6-4.18.52-8.3 3.07-4.1 2.55-13.9 12.74-16.6 15.4-2.67 2.7-5.34 6.54-5.34 6.54"/><path stroke="#f8170f" d="M987.36 268.82c.03-.04 2.7-3.85 5.3-6.47l1.46-1.46c3.74-3.8 11.54-11.72 15.05-13.9 3.2-1.97 5-2.34 6.74-2.7l1.44-.3"/></g><path fill="#fff" d="M1023.55 239.43c-.8.72-1.5 1.3-1.95 1.56-1.37.75-3 1.57-3.87 1.52-.86-.06-4.5-.06-6.96 1.06-5.44 2.5-17.5 13.93-22.63 21.6-5.13 7.7-4.22 10.03-5.84 12.06-.93 1.16-1.57 2.2-2.52 3.4-.73.9 2.16 1.8 3.3.88 3.47-2.77 4.68-3 6.9-4.53 10.8-5.52 15.57-3.92 22.83-11.5 2.5-2.6 1.48-8.28 7.66-17.75 1.84-2.82 3.64-5.63 5.4-7.7 1.46-1.74-.75-2.07-2.3-.62z"/><path fill="url(#h)" d="M988.94 277.66c.32-.2.67-.42 1.03-.67 9.64-4.76 15.7-4.2 22.84-11.5 2.26-2.3 3.1-9.66 3.87-10.57.1-.17.13-1.43.63-2.32.5-.88 0-1.67.65-3.15.9-2.02 1.13-2.9 1.44-3.4.85-1.07 1.43-2.54 1.85-3.07.4-.53-.8-1.03-1.6-1-.75.34-1.45.56-1.92.54-.86-.06-4.5-.06-6.96 1.06-5.44 2.5-17.5 13.93-22.63 21.6-.5.78-1 1.66-1.4 2.33-.27.53.04 1.12-.1 1.6-.14.46-1.22 2.6-1.67 3.66-.44 1.05-.47 2.8.1 3.4.54.62 1.1 1.57 3 1.1 1.93-.48 1.28.04.87.4z"/><path fill="#cb1009" d="M1013.76 256.85c.15-.16.32-.32.48-.48.5-.5.84-1.03 1.23-1.58.14-.2.03-.32.1-.56.08-.2.23-.37.35-.56.25-.4.15-.97.3-1.4.06-.22.25-.44.35-.64.1-.2.15-.42.25-.63.2-.44.47-.87.6-1.35.1-.3-.05-.28-.12-.54-.06-.23.12-.5.26-.67.35-.4.88-.85 1.08-1.32.13-.28.13-.6.27-.9.14-.25.4-.47.54-.7.35-.54.67-1.1.97-1.65.13-.22.28-.47.37-.7.07-.2.17-.53.03-.7-.22-.25-.95-.24-1.25-.22-.4.03-.8.3-1.34.45-.32.06-4.8-.62-9 1.9-.42.27 4.8-2.13 6.92-1.54.2.04-1.4.57-4.16 2.5-2.74 1.94-6.04 3.65-6.7 5.53-.66 1.88-2.27 6.9-3.14 8.28-.86 1.37-1.78 2.8-3.7 4.82-1.94 2.04-6.37 3.72-8.3 4.63-1.93.92-4.57 3.16-4.77 3.77-.2.6-.6 2.16.33 3.37.94 1.22 1.7 1.04 3.22.7 1.5-.33 1.2.03 1.18.13-.04.1 7.82-5.8 9.7-7.4 1.9-1.62 13.74-12.27 13.98-12.52z"/><path fill="#b3090a" d="M1018.7 245.9c.35-.52.44-1.6-.48-1.44-.93.15-4.37 1.26-6.83 3.17-2.47 1.92-2.73 2.85-3.24 5.93-.18.96-2.9 6.87-4.07 8.28-1.27 1.5-3.77 4.02-4.88 5.07-1.1 1.06-3.35 1.2-8.1 4.22-1.95 1.22-4.26 2.7-3.77 3.2 1.5 1.45 3.92.67 5.75 0 14.82-5.52 19.2-5.95 22-17.77.44-1.8.87-6.2 1.56-7.36.75-1.3 1.77-2.92 2.04-3.3z"/><path fill="#a40e0a" d="M1017.45 247c.4-.57-1-1.76-2.92-.84-1.92.9-5.36 3.4-5.73 6.67-1.8 13.78-12.75 15.43-14.38 18.4-1 1.84 9.32-.3 16.44-7.05 3.2-2.96 4.05-10.32 4.35-11.8.3-1.47 1.25-3.95 2.25-5.37z"/><g><linearGradient x1="987.41" x2="1027.354" y1="283.781" y2="244.642" gradientUnits="userSpaceOnUse"><stop offset=".006" stop-color="#414951"/><stop offset=".125" stop-color="#3C454E"/><stop offset=".285" stop-color="#313A45"/><stop offset=".467" stop-color="#202938"/><stop offset=".534" stop-color="#192333"/><stop offset=".723" stop-color="#2C3541"/><stop offset=".892" stop-color="#3B434C"/><stop offset="1" stop-color="#414951"/></linearGradient><path fill="url(#i)" d="M1020.12 247.54c-3.78 5.87-4.82 9.95-5.57 12.94-.53 2.1-.9 3.6-2.03 4.74-4.28 4.38-6.93 5.35-12.7 7.47-2.6.94-5.8 2.1-10 3.92-.07.04-2.24 1.37-2.24 1.37-1.37.77-2.78 1.58-5.42 3.75l.5.62c2.6-2.13 3.98-2.92 5.32-3.7l2.22-1.35c4.13-1.76 7.32-2.94 9.9-3.88 5.7-2.1 8.58-3.15 13-7.66 1.26-1.3 1.66-2.9 2.22-5.1.75-2.94 1.76-6.95 5.47-12.7 1.93-3 3.8-5.87 5.58-7.94l-.6-.52c-1.82 2.1-3.7 5-5.66 8.02z"/></g><path fill="none" stroke="#4c5159" stroke-width=".8" d="M1023.75 239.24c-.87.8-1.65 1.47-2.15 1.75-1.37.75-3 1.57-3.87 1.52-.86-.06-4.5-.06-6.96 1.06-5.44 2.5-17.5 13.93-22.63 21.6-5.13 7.7-4.22 10.03-5.84 12.06-1 1.26-1.68 2.38-2.78 3.7"/><g fill="none" stroke-width=".4"><path stroke="#7f0c07" d="M1017.62 248.77c-2.8 1.9-2.8 5.97-10.45 13.48-7.64 7.5-14.04 9.06-20.57 14.28"/><path stroke="#f8170f" d="M986.88 276.9c6.44-5.16 12.73-6.58 20.6-14.33 7.77-7.63 7.72-11.62 10.4-13.42"/><path stroke="#7f0c07" d="M1018.86 245.3c-1.5.47-5.22 1.97-8.36 4.58-3.13 2.62-4.34 6.02-8.6 10.26-4.23 4.25-11.2 9-16.8 14.1"/><path stroke="#f8170f" d="M985.4 274.58c4.28-3.88 9.23-7.46 12.72-10.27l4.12-3.83c4-4 5.2-7.44 8.55-10.24 2.96-2.47 6.54-3.98 8.2-4.48"/><path stroke="#7f0c07" d="M1017.23 243.55c-2.3.6-4.18.52-8.3 3.07-4.1 2.55-13.9 12.74-16.6 15.4-2.67 2.7-5.34 6.54-5.34 6.54"/><path stroke="#f8170f" d="M987.36 268.82c.03-.04 2.7-3.85 5.3-6.47l1.46-1.46c3.74-3.8 11.54-11.72 15.05-13.9 3.2-1.97 5-2.34 6.74-2.7l1.44-.3"/></g></g><path fill="url(#j)" stroke="url(#k)" d="M32.65 23.6l8.42 2.18.96-3.7 5.58 7.02-8.4 2.84.83-3.18L32 26.68l.65-3.08z" color="#000" stroke-linejoin="round" overflow="visible"/><path fill="url(#l)" stroke="url(#m)" d="M29.12 29.25l5.88 6.4 2.8-2.57.88 8.9-8.6-2.17 2.43-2.2-5.6-6.13 2.22-2.22z" color="#000" stroke-linejoin="round" overflow="visible"/><path fill="url(#n)" stroke="url(#o)" d="M25 32.1l-1.36 8.58 3.76.6-6.45 6.22-3.62-8.1 3.24.53 1.3-8.2 3.14.36z" color="#000" stroke-linejoin="round" overflow="visible"/></g></svg>