<svg xmlns="http://www.w3.org/2000/svg" width="48" height="48"><defs><linearGradient x1="928.462" x2="949.113" y1="1677.34" y2="1712.672" gradientUnits="userSpaceOnUse" gradientTransform="matrix(1.01 0 0 1.01 -913.396 -1673.032)"><stop offset="0" stop-color="#FEF3DC"/><stop offset="1" stop-color="#FAAF3E"/></linearGradient></defs><g><path fill="#d1f3ae" d="M45.4 14.9c-.64.18-1.55 2.63-3.36 5.23-2.16 3.12-8.44 6.3-9.2 7.05-.75.76-2.23 2.1-4.2 3.3-1.17.7-6.92 2.67-8.26 4.24-.5.58-1.84 1.5-2.24 2.2-.3.5-.72 1.84-1.85 2.97-1.14 1.12-2.95 2.03-3.1 2.4-.15.38-2.06 3.53-2.32 3.94-.54.86-1.92.3-1.4-.83s2.02-3.5 1.9-3.8c-.1-.32-.44-.28-.75-.1-.3.2-3.34 4.04-3.9 4.58-.7.68-2.05-.2-1.35-1.1.47-.58 3.9-4.43 3.7-4.7-.34-.5-5.56 2.92-6.1 3.18-.76.36-1.56-.8-.7-1.53.66-.57 5.7-3.48 5.45-3.85-.26-.38-5.68 1.72-6.1 1.8-.77.15-1.3-.85-.65-1.48.55-.52 5.4-2 6.07-2.7.54-.55 1.83-1.45 1.6-1.94-.3-.63-2.44-.42-3.16-.38-1.67.08-1.3-1.64.57-1.78 1.07-.08 2.15-.36 2.88-.67.8-.34 1.73-.77 2.87-.77 1.46 0 2.83.75 3.12.57 2.2-1.38 5.9-6.3 8.6-8.25 1.92-1.38 4.4-1.72 5.43-2.95 1.2-1.42 4.66-7.08 5.24-8.3 5-12 12.1-9.92 13.76-9.92" opacity=".5"/><path fill="#709ec3" stroke="#224b87" d="M31.2 23.05L41.24 7.38l4.57-1.52-.72 4.4-13.87 12.8z"/><path fill="#709ec3" stroke="#224b87" d="M16.26 34.06l10.47-10.38 4.48-.63-2.14 3.85-12.8 7.16z"/><path fill="#fff" d="M26.73 23.68L16.26 34.06 28 25.42l-1.27-1.74z"/><path fill="#a0c6de" d="M28 25.42l3.2-2.37-4.47.63L28 25.42z"/><path fill="#6b8599" d="M28 25.42l1.06 1.48 2.15-3.85-3.2 2.37z"/><path fill="#a0c6de" d="M16.26 34.06L28 25.42l1.06 1.48-12.8 7.16z"/><path fill="#fff" d="M41.23 7.38l2 1.5L31.2 23.04 41.24 7.38z"/><path fill="#a0c6de" d="M43.23 8.87l2.57-3-4.57 1.5 2 1.5z"/><path fill="#a0c6de" d="M45.08 10.25l-1.85-1.38L31.2 23.05l13.88-12.8z"/><path fill="#6b8599" d="M45.8 5.86l-.72 4.4-1.85-1.4 2.57-3z"/><path fill="none" stroke="#4e9a06" d="M45.4 14.9c-.64.18-1.55 2.63-3.36 5.23-2.16 3.12-8.44 6.3-9.2 7.05-.75.76-2.23 2.1-4.2 3.3-1.17.7-6.92 2.67-8.26 4.24-.5.58-1.84 1.5-2.24 2.2-.3.5-.72 1.84-1.85 2.97-1.14 1.12-2.95 2.03-3.1 2.4-.15.38-2.06 3.53-2.32 3.94-.54.86-1.92.3-1.4-.83s2.02-3.5 1.9-3.8c-.1-.32-.44-.28-.75-.1-.3.2-3.34 4.04-3.9 4.58-.7.68-2.05-.2-1.35-1.1.47-.58 3.9-4.43 3.7-4.7-.34-.5-5.56 2.92-6.1 3.18-.76.36-1.56-.8-.7-1.53.66-.57 5.7-3.48 5.45-3.85-.26-.38-5.68 1.72-6.1 1.8-.77.15-1.3-.85-.65-1.48.55-.52 5.4-2 6.07-2.7.54-.55 1.83-1.45 1.6-1.94-.3-.63-2.44-.42-3.16-.38-1.67.08-1.3-1.64.57-1.78 1.07-.08 2.15-.36 2.88-.67.8-.34 1.73-.77 2.87-.77 1.46 0 2.83.75 3.12.57 2.2-1.38 5.9-6.3 8.6-8.25 1.92-1.38 4.4-1.72 5.43-2.95 1.2-1.42 4.66-7.08 5.24-8.3 5-12 12.1-9.92 13.76-9.92"/><path fill="none" stroke="#4e9a06" stroke-width=".5" d="M16.68 29.36c2.2-1 5.16 4.32 3.7 5.35"/><path fill="none" stroke="#4e9a06" stroke-width=".5" d="M19.86 25.92c2.37-1.24 5.56 5.3 4 6.58"/><path fill="none" stroke="#4e9a06" stroke-width=".5" d="M22.82 23.1c2.82-1.5 6.6 6.46 4.75 8"/><path fill="none" stroke="#4e9a06" stroke-width=".5" d="M27.54 20.5c2.73-1.37 6.42 5.94 4.62 7.36"/><path fill="none" stroke="#4e9a06" stroke-width=".5" d="M30.5 17.38c3.24-1.46 7.6 6.27 5.46 7.76"/><path fill="none" stroke="#4e9a06" stroke-width=".5" d="M33.18 12.94c3.15-1.76 9.17 5.68 7.24 9"/><path fill="none" stroke="#4e9a06" stroke-width=".5" d="M35.54 8.36c4.9-1.58 9.54 4.67 8.5 8.43"/><path fill="none" stroke="#4e9a06" stroke-width=".5" d="M40.5 2.54c2.65 1.25 6.05 7.08 4.92 12.57"/></g></svg>