<svg xmlns="http://www.w3.org/2000/svg" width="48" height="48"><g fill="none" stroke-width="1.5"><path stroke="#dd3893" d="M49.72 2.37s-5.7 5.44-11.7 10.05c-3.6 2.75-8.26 5.62-9.17 5.7-.9.1-4 .5-4.93-.64-.93-1.12-1.5-3.6-.4-4.62s2.92-.9 3.9.8c1 1.73.55 4.63.37 5.88-.18 1.25-1.27 4.72-2.82 9.1-.92 2.6-2.48 7.08-2.7 8.6-.22 1.5.3 8.92.46 16.63.2 9.43.13 19.28.13 19.28"/><path stroke="#4e9a06" d="M36.47-.97s1.8 15.47 1.7 20.4c-.1 4.9-.98 8.07-1.9 10.15" color="#000" overflow="visible" enable-background="accumulate"/><path stroke="#322087" d="M18.55-1.24c.58.6 1.46 2.45 1.28 4.84-.2 2.4-7.48 6.75-9.2 10.12-2 3.94-3.26 6.8-1.36 10.7 1.9 3.93 9.45 6.7 9.37 10.3-.04 2.1-.43 6.1-.5 11.86-.1 11.35.15 26.5.15 26.5" color="#000" overflow="visible" enable-background="accumulate"/><path stroke="#f57900" d="M13.83-.75s-1.06 6.87-.98 10.15c.07 3.28 1.54 8.26 3.98 10.72 1.93 1.96 7.16 3.6 8.03 4.1.86.5 4.33 2.43 6.5 2.3 2.15-.1 4.73-2.37 4.3-4.84-.44-2.48-4.12-3.1-5.98-2.67-1.86.44-5.07 4.9-5.52 6.92-.46 2.03-.72 4.52.48 7.5.86 2.16 1.4 3.9 2.14 8.37.74 4.46.6 31.3.6 31.3" color="#000" overflow="visible" enable-background="accumulate"/><path stroke="#3465a4" d="M.6-.9C3 1.75 5.9 10.16 8.02 14.42c1.6 3.2 3.92 5.44 5.7 5.93 1.77.5 3.55.5 5.3-.5 1.74-.98 3.44-3.4 3.25-5.48-.2-2.1-1.6-3.16-3.57-3.26-1.98-.1-3.6 1.26-2.7 4.17.88 2.9 4.64 9.27 4.63 14.28 0 3.65 3.28 9.84 3.64 10.87.36 1.04.5 5.98.47 9.18-.03 3.7.24 23.46.24 23.46" color="#000" overflow="visible" enable-background="accumulate"/><path stroke="#edd400" d="M23.92-.97c.82 4.54 3.94 11.48 5.7 13.46 1.74 1.96 4.88 5.34 7.2 5.04 2.32-.3 4.5-2.32 4.35-4.65-.15-2.34-3.17-4.44-6-4.02-2.84.4-5.25 4.4-5.68 7.14-.43 2.74 1.38 11.83 1.37 16.15-.02 4.32-1.25 7.34-1.33 10.52-.08 3.17.24 30.33.24 30.33" color="#000" overflow="visible" enable-background="accumulate"/><path stroke="#8ae234" d="M29.57-.57c-4.6 4.6-6.6 12.67-7.68 16.6-1.08 3.92-3.2 7.7-3.84 8.2-.64.5-1.66 2.4-3 2.4-1.32 0-3.14-.86-3.22-2.1-.07-1.26 1.23-2.4 2.7-2.42 1.47 0 4.97 1.54 6.16 5 1.18 3.45-.23 4.78-.47 10.83-.25 6.06.3 35.22.3 35.22" color="#000" overflow="visible" enable-background="accumulate"/><path stroke="#4e9a06" d="M36.26 29.58c-.68 1.5-1.38 2.45-1.82 3.1-.44.63-3.74 2.64-5.5 2.16-1.78-.48-3.47-1.93-3-3.98.47-2.05 2.76-2.6 4.75-2 8.75 7.1.9 12.68 1.43 44.35" color="#000" overflow="visible" enable-background="accumulate"/></g></svg>