<svg xmlns="http://www.w3.org/2000/svg" width="48" height="48" xmlns:xlink="http://www.w3.org/1999/xlink"><defs><linearGradient id="a"><stop offset="0" stop-color="#8f5902" stop-opacity=".795"/><stop offset="1" stop-color="#8f5902" stop-opacity="0"/></linearGradient><linearGradient id="c" x1="35.029" x2="35.127" y1="106.203" y2="127.132" gradientUnits="userSpaceOnUse" gradientTransform="matrix(.691 -.691 .691 .691 -73.476 -38.282)"><stop offset=".006" stop-color="#DC9F3F"/><stop offset="1" stop-color="#9E671A"/></linearGradient><radialGradient id="d" cx="9.212" cy="120.177" r="30.371" gradientUnits="userSpaceOnUse" fy="120.177" fx="9.212"><stop offset="0" stop-color="#E6A845"/><stop offset="1" stop-color="#8F5810"/></radialGradient><radialGradient id="e" cx="25.869" cy="140.959" r="28.806" gradientUnits="userSpaceOnUse" fy="140.959" fx="25.869"><stop offset="0" stop-color="#A66B0E"/><stop offset="1" stop-color="#804E0E"/></radialGradient><radialGradient id="f" cx="12.646" cy="131.899" r="23.384" gradientUnits="userSpaceOnUse" fy="131.899" fx="12.646"><stop offset="0" stop-color="#A66B0E"/><stop offset="1" stop-color="#804E0E"/></radialGradient><radialGradient id="g" cx="26.894" cy="123" r="28.696" gradientUnits="userSpaceOnUse" fy="123" fx="26.894"><stop offset="0" stop-color="#A66B0E"/><stop offset="1" stop-color="#804E0E"/></radialGradient><radialGradient id="h" cx="20.906" cy="126.067" r="15.981" gradientUnits="userSpaceOnUse" fy="126.067" fx="20.906"><stop offset="0" stop-color="#A66B0E"/><stop offset="1" stop-color="#804E0E"/></radialGradient><radialGradient id="i" cx="35.484" cy="125.074" r="14.954" gradientUnits="userSpaceOnUse" fy="125.074" fx="35.484"><stop offset="0" stop-color="#A66B0E"/><stop offset="1" stop-color="#804E0E"/></radialGradient><linearGradient id="j" x1="25.776" x2="33.369" y1="100.592" y2="127.969" gradientUnits="userSpaceOnUse"><stop offset=".006" stop-color="#DC9F3F"/><stop offset="1" stop-color="#9E671A"/></linearGradient><radialGradient id="k" cx="27.112" cy="109.128" r="22.409" gradientUnits="userSpaceOnUse" fy="109.128" fx="27.112"><stop offset="0" stop-color="#A66B0E"/><stop offset="1" stop-color="#804E0E"/></radialGradient><linearGradient id="l" x1="28.021" x2="36.101" y1="104.652" y2="106.112" gradientUnits="userSpaceOnUse" gradientTransform="matrix(.691 -.691 .691 .691 -73.476 -38.282)"><stop offset=".006" stop-color="#D3963A"/><stop offset=".573" stop-color="#BA7F2D"/><stop offset=".725" stop-color="#BB802E"/><stop offset="1" stop-color="#D5983C"/></linearGradient><radialGradient id="m" cx="37.329" cy="128.635" r="21.227" gradientUnits="userSpaceOnUse" fy="128.635" fx="37.329"><stop offset="0" stop-color="#A66B0E"/><stop offset="1" stop-color="#804E0E"/></radialGradient><radialGradient id="n" cx="18.766" cy="130.641" r="10.789" gradientUnits="userSpaceOnUse" fy="130.641" fx="18.766"><stop offset="0" stop-color="#A66B0E"/><stop offset="1" stop-color="#73460D"/></radialGradient><radialGradient id="o" cx="21.929" cy="128.183" r="21.149" gradientUnits="userSpaceOnUse" fy="128.183" fx="21.929"><stop offset="0" stop-color="#A66B0E"/><stop offset="1" stop-color="#804E0E"/></radialGradient><radialGradient id="p" cx="21.879" cy="122.321" r="13.867" gradientUnits="userSpaceOnUse" fy="122.321" fx="21.879"><stop offset="0" stop-color="#A66B0E"/><stop offset="1" stop-color="#804E0E"/></radialGradient><radialGradient id="q" cx="30.057" cy="128.695" r="7.297" gradientUnits="userSpaceOnUse" fy="128.695" fx="30.057"><stop offset="0" stop-color="#A66B0E"/><stop offset="1" stop-color="#73460D"/></radialGradient><radialGradient id="r" cx="35.975" cy="117.33" r="11.575" gradientUnits="userSpaceOnUse" fy="117.33" fx="35.975" gradientTransform="matrix(.691 -.691 .691 .691 -73.476 -38.282)"><stop offset="0" stop-color="#A66B0E"/><stop offset="1" stop-color="#804E0E"/></radialGradient><linearGradient id="b" x1="31.571" x2="45.286" y1="17.469" y2="6.326" xlink:href="#a" gradientUnits="userSpaceOnUse"/></defs><g><path fill="url(#b)" fill-rule="evenodd" d="M22.43 5.3L32.7 21.56l11.6 7.14c-4.14-8.4-.68-16.17 3.84-23.84-8.73-2.46-17.36-3.2-25.7.43z"/><path fill="none" stroke="#eeeeec" stroke-opacity=".502" stroke-width="2.94.072" d="M46.5 25.42l-6.7 19.15-15.02.5-23.7-22.75 13.1-14.14 9.2-6.4 23.13 23.64z"/><g fill="none" stroke="#0078ff" stroke-width="1.024" opacity=".5"><path d="M14.56 8.56l20.2 20.25 12.12-3"/><path d="M25.15 45.46l9.6-16.65"/></g><g fill="#8f5810" stroke="#59370a" stroke-width="1.536"><path d="M32 18.35L22.75 5.4l-.63.35-.62.5.54.84c-1.54.67-3.73 2.27-5.27 3.5l-.45-.6-.68.4-.54.45 8.33 12-7.44 9.6.34.32.28-.07L27.9 42.88l.92-.06.47-.94-8.6-8.18 5.66-1.33 10.6 9.92 1.17-.1.47-1.24L28.34 30.8l1.37-2.44 4.35 3.3.6-.12.4-.8-4.52-3.84 2.33-4.1 9 7.23 1.05-.23.38-.96-9.25-8.12L32 18.35zm-1.97 1.1l-5.07 2.12-3.58-4.78c1.52-1.03 3.8-2.24 5.1-2.83l3.55 5.47z"/><path d="M16.75 10.6z"/></g><path fill="url(#c)" d="M30.4 20L21.47 6.25l.63-.5 9.5 14.1c.98 1.26 4.24 4.04 4.24 4.04l7.07 5.9-1.04.23-9-7.24L30.4 20z"/><path fill="url(#d)" d="M13.53 115.98l12.36-1.56.88.36 1.16-.17 5.2 2.14-.13.67 1.1.43-11.97 3.1-8.6-4.95z" transform="matrix(.691 -.691 .691 .691 -73.476 -38.282)"/><path fill="url(#e)" d="M23.77 138.54l-.1-17.53-1.44.4.3 17.7 1.24-.56z" transform="matrix(.691 -.691 .691 .691 -73.476 -38.282)"/><path fill="url(#f)" d="M14.64 132.18l-.83-15.58.9.52.65 15.68-.7-.62z" transform="matrix(.691 -.691 .691 .691 -73.476 -38.282)"/><path fill="url(#g)" d="M26.46 122.97l.75 5.54.53.35-.55-6.08-.72.2z" transform="matrix(.691 -.691 .691 .691 -73.476 -38.282)"/><path fill="url(#h)" d="M21.13 123.45l-6.33-3.92-.1-2.4 6.35 3.67.08 2.65z" transform="matrix(.691 -.691 .691 .691 -73.476 -38.282)"/><path fill="url(#i)" d="M33.84 120.92l-10.14 2.82-.02-2.73 10.3-2.8-.14 2.72z" transform="matrix(.691 -.691 .691 .691 -73.476 -38.282)"/><path fill="url(#j)" d="M26.78 114.78l2.5-15.02-.73-.07-2.66 14.72.88.36z" transform="matrix(.691 -.691 .691 .691 -73.476 -38.282)"/><path fill="url(#k)" d="M29.27 99.76l.78.2-2.1 14.65-1.17.18 2.5-15.02z" transform="matrix(.691 -.691 .691 .691 -73.476 -38.282)"/><path fill="url(#l)" d="M22.02 7.1c-1.77.77-4.37 2.75-5.9 4l4.48 6.25c1.38-1.08 4.32-2.68 5.9-3.38L22 7.1z"/><path fill="url(#m)" d="M34.1 118.16l-11.97 3.27v-.5l11.97-3.1v.33z" transform="matrix(.691 -.691 .691 .691 -73.476 -38.282)"/><path fill="none" stroke="#f2ce91" stroke-width=".5" d="M25.3 29.94l6.14-10.4"/><path fill="url(#n)" d="M16.37 132.45l-.3-12.13-1.27-.8.55 13.28 1.02-.35z" transform="matrix(.691 -.691 .691 .691 -73.476 -38.282)"/><path fill="url(#o)" d="M22.23 121.4l.3 17.7-.92-.8-.55-17.5 1.18.6z" transform="matrix(.691 -.691 .691 .691 -73.476 -38.282)"/><path fill="url(#p)" d="M22.13 121.43l-8.57-4.98-.03-.47 8.6 4.94v.5z" transform="matrix(.691 -.691 .691 .691 -73.476 -38.282)"/><path fill="url(#q)" d="M27.18 122.77l.55 6.08.87-.28-.5-6.06-.92.27z" transform="matrix(.691 -.691 .691 .691 -73.476 -38.282)"/><path fill="url(#r)" d="M31.6 19.86c.98 1.25 4.24 4.04 4.24 4.04l7.07 5.9.38-.96-9.25-8.12L32 18.35 22.75 5.4l-.63.35 9.3 13.8.2.3z"/><path fill="none" stroke="#f2ce91" stroke-width=".5" d="M31.4 19.55l-9.3-13.8"/><path fill="none" stroke="#b38b48" stroke-width=".5" d="M38.13 42.2L25.3 29.95"/><path fill="none" stroke="#d9b982" stroke-width=".5" d="M15.96 32.46l9.35-2.52"/><path fill="none" stroke="#0078ff" stroke-width=".98.024" d="M46.88 25.8l-6.72 19.16-15 .5L1.43 22.7 14.56 8.57l9.2-6.4L46.88 25.8z"/><path fill="none" stroke="#0078ff" stroke-width=".98.024" d="M1.44 22.7l10.35-6L23.75 2.17"/><path fill="none" stroke="#0078ff" d="M40.16 44.96L11.8 16.7"/><path fill="#0079ff" d="M38.73 44.96l1.43-1.44 1.44 1.44-1.44 1.43z"/><path fill="#0079ff" d="M45.45 25.8l1.43-1.43 1.44 1.44-1.44 1.44z"/><path fill="#0079ff" d="M23.7 45.46l1.45-1.43 1.43 1.43-1.43 1.44z"/><path fill="#0079ff" d="M0 22.7l1.44-1.43 1.44 1.44-1.44 1.44z"/><path fill="#0079ff" d="M10.36 16.7l1.43-1.43 1.43 1.44-1.44 1.44z"/><path fill="#0079ff" d="M22.33 2.16L23.76.73l1.44 1.43-1.44 1.43z"/><path fill="#0079ff" d="M13.13 8.56l1.43-1.43L16 8.56 14.56 10z"/></g></svg>