<svg xmlns="http://www.w3.org/2000/svg" width="48" height="48" xmlns:xlink="http://www.w3.org/1999/xlink" version="1" viewBox="0 0 612 792" enable-background="new 0 0 612 792"><defs><linearGradient id="a"><stop offset="0" stop-color="#d8d8d8"/><stop offset="1" stop-color="#777"/></linearGradient><radialGradient cx="130.505" cy="278.947" r="321.103" xlink:href="#a" fx="130.505" fy="278.947" gradientTransform="translate(-233.357 -.011)" gradientUnits="userSpaceOnUse"/><linearGradient id="j" x1="28.245" x2="28.245" y1="60.446" y2="68.225" xlink:href="#b" gradientUnits="userSpaceOnUse" gradientTransform="matrix(-.493 -.717 .717 -.493 -9.268 79.419)"/><linearGradient id="b"><stop offset="0" stop-color="#729fcf"/><stop offset=".316" stop-color="#a5bfda"/><stop offset="1" stop-color="#376ca4"/></linearGradient><linearGradient id="k" x1="28.245" x2="28.245" y1="60.446" y2="68.225" xlink:href="#c" gradientUnits="userSpaceOnUse" gradientTransform="matrix(-.493 -.717 .717 -.493 -9.268 79.419)"/><linearGradient id="c"><stop offset="0" stop-color="#5b90c8"/><stop offset=".316" stop-color="#8fb0d1"/><stop offset="1" stop-color="#34679d"/></linearGradient><linearGradient id="l" x1="28.245" x2="28.245" y1="60.446" y2="68.225" xlink:href="#b" gradientUnits="userSpaceOnUse" gradientTransform="matrix(-.493 -.717 .717 -.493 -9.268 79.419)"/><linearGradient><stop offset="0" stop-color="#729fcf"/><stop offset=".316" stop-color="#a5bfda"/><stop offset="1" stop-color="#376ca4"/></linearGradient><linearGradient x1="55.876" x2="38.061" y1="62.402" y2="62.827" xlink:href="#d" gradientUnits="userSpaceOnUse" gradientTransform="matrix(-.493 -.717 .717 -.493 -9.268 79.419)"/><linearGradient id="d"><stop offset="0" stop-color="#fff"/><stop offset="1" stop-color="#fff" stop-opacity="0"/></linearGradient><linearGradient id="m" x1="55.876" x2="38.061" y1="62.402" y2="62.827" gradientTransform="matrix(-.493 -.717 .717 -.493 -9.268 79.419)" gradientUnits="userSpaceOnUse" xlink:href="#d"/><radialGradient id="i" cx="761.749" cy="-236.428" r="9.241" fx="761.749" fy="-236.428" gradientTransform="matrix(.99 -.472 .243 1.925 -677.27 824.388)" gradientUnits="userSpaceOnUse"><stop offset=".006" stop-color="#E8B96D"/><stop offset=".461" stop-color="#C17D10"/><stop offset="1" stop-color="#8F5811"/></radialGradient><radialGradient id="h" cx="18.994" cy="115.145" r="14.304" gradientTransform="matrix(1.013 -.113 .22 1.97 -28.164 -207.169)" fx="18.994" fy="115.145" gradientUnits="userSpaceOnUse"><stop offset=".006" stop-color="#CC8E27"/><stop offset=".348" stop-color="#C17D10"/><stop offset="1" stop-color="#8F5811"/></radialGradient><radialGradient id="g" cx="30.789" cy="111.727" r="14.304" gradientTransform="matrix(1.019 0 0 1.983 -1.764 -210.371)" fx="30.789" fy="111.727" gradientUnits="userSpaceOnUse"><stop offset=".006" stop-color="#CC8E27"/><stop offset=".348" stop-color="#C17D10"/><stop offset="1" stop-color="#8F5811"/></radialGradient><linearGradient id="f" x1="12.8" x2="34.554" y1="108.74" y2="125.695" gradientTransform="matrix(1.019 0 0 1.983 -1.764 -210.371)" gradientUnits="userSpaceOnUse"><stop offset=".006" stop-color="#C17D10"/><stop offset="1" stop-color="#8F5811"/></linearGradient><radialGradient id="e" cx="14.979" cy="105.103" r="30.283" gradientTransform="matrix(1.019 0 0 1.983 -1.764 -210.371)" fx="14.979" fy="105.103" gradientUnits="userSpaceOnUse"><stop offset=".006" stop-color="#E8B96D"/><stop offset=".461" stop-color="#C17D10"/><stop offset="1" stop-color="#8F5811"/></radialGradient></defs><g><path fill="none" stroke="#72470e" stroke-width="16.5.2" d="M560.54 510.88c19.24-16.38 64.6-61 108.42-158.88-16.74 8.28-78.8 30.7-114.74 40.7 36.3-43.8 38.5-59.67 50.16-101.25-46.6 54.67-82.08 53.26-108.63 57.22 23.17-28.7 71.48-89.37 89.85-154.9-48 53.62-108.92 83.1-137.7 97.68 6.32-9.2 46.84-91.72 62.6-148.47-67.82 80.56-87.6 96.9-111.37 101.73 14.2-24.56 51.12-87.92 65.33-135.03-49.08 34.32-79.6 70.2-104.77 79.46 21.07-30.5 41.5-71.5 61.23-137.68-49 56.92-63.3 71.37-102.07 100.62 28.77-36.54 23.54-63.98 40.24-123.55-57.6 70.62-64.2 91.72-86.26 116.25 16.95-27.24 33.96-71.57 42.86-117.2-28.32 44.03-52.43 73.3-101.46 132.9 19.42-34.6 53.38-92.86 57.42-145.56-31.53 59.8-76.44 111-109.2 165.27 9.64-15.34 14.98-45.63 18.57-75.66-26.24 46.6-42.82 91.04-79.57 137 7-18.74 19.82-62.12 26.1-103.37-30.98 56.2-55.93 101.48-94.47 147.47 18.77-46.3 23.86-83.45 25.5-106.15C20.6 258.8-23.5 309.87-78.17 370.3l307.95 408.56 330.77-267.98z" stroke-linecap="square"/><path fill="url(#e)" d="M39.78 30.97c1.17-1 3.92-3.7 6.57-9.63-1 .5-4.77 1.86-6.95 2.47 2.2-2.64 2.33-3.6 3.04-6.13-2.82 3.32-4.97 3.23-6.58 3.47 1.4-1.74 4.33-5.4 5.44-9.4-2.9 3.26-6.6 5.05-8.34 5.93.38-.55 2.84-5.55 3.8-9-4.12 4.9-5.32 5.88-6.76 6.17.86-1.5 3.1-5.33 3.96-8.18-2.97 2.08-4.82 4.25-6.35 4.8 1.3-1.83 2.53-4.32 3.72-8.33-2.97 3.45-3.83 4.32-6.18 6.1 1.74-2.22 1.42-3.88 2.44-7.5-3.5 4.3-3.9 5.57-5.23 7.05 1.02-1.65 2.06-4.33 2.6-7.1-1.72 2.67-3.18 4.44-6.15 8.06 1.17-2.1 3.23-5.63 3.48-8.83-1.9 3.64-4.64 6.74-6.62 10.03.58-.93.9-2.77 1.12-4.6-1.6 2.84-2.6 5.53-4.82 8.32.42-1.14 1.2-3.77 1.58-6.27-1.87 3.4-3.4 6.15-5.72 8.94 1.14-2.8 1.44-5.06 1.54-6.43-2.3 4.8-4.97 7.9-8.3 11.55L19.75 47.2l20.04-16.23z" transform="matrix(16.5 0 0 16.5 -95.893 -.169)"/><path fill="url(#f)" d="M44.25 24.32c-3.37 3.26-6.47 4.66-8.26 5.16.12-.16.26-.33.4-.5-.52.2-1 .4-1.4.5 1.7-2.04 4.1-4.5 5.55-7.15-1.6 1.03-3.35.64-5.4 2.1.2-.23.4-.52.63-.85-.52.2-1.06.45-1.63.86 1.23-1.52 3.14-4.77 5.22-9.2-2.13 1.92-5.1 3.95-6.36 4.6.1-.13.26-.44.48-.87-.6.38-1.1.68-1.46.87.32-.48 1.75-3.5 3.1-7.12-3 3.34-4.84 4.8-6.07 5.04.08-.14.2-.34.3-.58-.5.3-.93.5-1.3.58.7-1.22 3.24-6.63 4.6-10.14-1.73 1.74-4.33 3.9-5.66 3.9.12-.16.25-.3.37-.45-.53.3-1 .46-1.38.46 1.26-1.52 1.9-2.15 3.1-4.82-1.67 1.8-3.43 3.14-5.1 4.38.5-.6.88-1.16 1.22-1.7-.74.6-1.48 1.16-2.2 1.7 1.4-1.76 2.02-3 2.87-5.27-2.4 2.68-3.76 3.6-4.86 4.84.22-.53.47-1 .8-1.72-.7.65-1.28 1.15-1.8 1.72.35-.8.74-1.46 1.38-3.17-1.05 1.56-2.36 3.35-3.82 5.12.3-.65.6-1.45.95-2.5-.6.83-1.26 1.66-1.94 2.5.45-.98.9-2.33 1.6-4.36-1.16 1.92-2.53 4.03-4 6.22.44-.72.87-2.14 1.7-4.15-.83 1.35-1.74 2.74-2.7 4.16.1-.15.18-.33.27-.54-.83 1.28-1.7 2.56-2.5 3.55.22-.6.7-1.75 1.2-3.07-.74 1.1-1.5 2.2-2.2 3.07.17-.44.48-1.2.84-2.14-1.1 1.8-2.36 3.7-3.4 4.96.56-1.4 1.05-2.4 1.57-3.63-.87 1.36-1.78 2.67-2.57 3.62.74-1.84 1.35-3 2.1-4.87-2.34 3.43-4.14 5.45-6.58 8.14l17.62 23.4 15.8-12.8c2.02-1.47 6.26-5.07 8.9-9.85z" transform="matrix(16.5 0 0 16.5 -95.893 -.169)"/><path fill="url(#g)" d="M26.1 34.34c2.94-3.53 7.5-7.97 8.7-12.76-2.77 5.62-5.9 3.28-9.8 6.1 1.87-2.32 4.95-7.67 8.18-14.93-2.02 2.94-8.68 7.65-11 8.83.5-.74 3.03-6.08 5.04-11.97-5.35 6.3-8.37 8.84-10.3 9.24" transform="matrix(16.5 0 0 16.5 -95.893 -.169)"/><path fill="url(#h)" d="M15.46 41.02c2.52-3.84 6.56-8.76 7.2-13.65-2.1 5.9-5.47 3.92-9.04 7.14 1.6-2.5 4.07-8.15 6.47-15.73-1.7 3.15-7.8 8.57-9.96 10 .42-.8 2.33-6.38 3.68-12.46-4.6 6.85-7.34 9.72-9.2 10.32" transform="matrix(16.5 0 0 16.5 -95.893 -.169)"/><path fill="url(#i)" d="M19.66 22.9c1.46-2.88 3.8-6.76 4.15-9.9-1.2 4.07-3.2 3.57-5.28 6.3.92-1.87 2.33-5.87 3.7-11.03-.98 2.3-4.54 6.92-5.8 8.26.23-.58 1.32-4.42 2.06-8.44-2.67 5.18-4.26 7.52-5.35 8.3" transform="matrix(16.5 0 0 16.5 -95.893 -.169)"/><path fill="none" stroke="#72470e" stroke-width="11.549999999999999" d="M106.22 118.02C95.18 148.05 75.36 195.22 50 227.4" stroke-linecap="square"/><path fill="none" stroke="#72470e" stroke-width="11.549999999999999" d="M659.65 289.6c-18.75 25.73-58.43 120.07-77.18 124.4" stroke-linecap="square"/><path fill="none" stroke="#72470e" stroke-width="11.549999999999999" d="M586.87 246.7c-22.04 49.33-65.05 126.57-71.66 126.57" stroke-linecap="square"/><path fill="none" stroke="#72470e" stroke-width="11.549999999999999" d="M559.3 175.95c-23.12 25.7-54 60.06-77.15 79.36" stroke-linecap="square"/><path fill="none" stroke="#72470e" stroke-width="11.549999999999999" d="M436.95 88C416 124.45 374.1 190.9 363.08 203.8" stroke-linecap="square"/><path fill="none" stroke="#804f10" stroke-width="11.549999999999999" d="M464.5 195.22c-17.63 23.6-50.7 85.8-58.42 90.08" stroke-linecap="square"/><path fill="none" stroke="#72470e" stroke-width="11.549999999999999" d="M234.1 25.8c-6.63 21.43-19.87 100.82-29.8 117.96" stroke-linecap="square"/><path fill="none" stroke="#72470e" stroke-width="11.549999999999999" d="M366.4 62.24c-14.35 42.95-39.7 124.44-51.83 137.3" stroke-linecap="square"/><path fill="none" stroke="#804f10" stroke-width="11.549999999999999" d="M499.54 287.6c-16.3 34.57-63.67 97.9-68.1 97.9" stroke-linecap="square"/><path fill="none" stroke="#72470e" stroke-width="11.549999999999999" d="M560.22 348.04c-13.32 17.28-56.26 112.37-62.18 118.1" stroke-linecap="square"/><path fill="none" stroke="#804f10" stroke-width="11.549999999999999" d="M468.6 385.1c-20.48 35.43-84.2 137.26-84.2 137.26" stroke-linecap="square"/></g><path fill="none" stroke="#eeeeec" stroke-width="42.464" d="M189.4 633.35c3.92-71.2 132.9-13.93 163.52-73.02 14.18-27.35-24.35-144.74 31.64-193.73" stroke-linecap="round"/><path fill="none" stroke="#ef2929" stroke-width="14.155" d="M189.4 633.35c3.92-71.2 132.9-13.93 163.52-73.02 14.18-27.35-24.35-144.74 31.64-193.73" stroke-linecap="round"/><g color="#000"><path fill="#e7e7e7" fill-rule="evenodd" stroke="#7d7d7d" stroke-width="9.597560000000001" d="M464.53 276.5c-8.63-7.34-37.24 13.03-64.4 45-27.18 31.97-35.94 69.22-34.04 70.83 2.1 1.8 37.23-13.04 64.4-45 27.17-31.98 42.66-63.5 34.03-70.84z" overflow="visible"/><g stroke="#3465a4" stroke-width="1.139"><path fill="none" d="M611.06 193.4c40-30.13 76.16-88.9 80.73-131.3 1.25-11.62 0-21.23-3.7-28.07" overflow="visible"/><path fill="#729fcf" fill-rule="evenodd" d="M645.86 158.62c-3.42-7.35-13.74-5.43-23.03 4.3-8.9 9.3-13.72 22.48-10.98 30.07l17.17-16.78z" overflow="visible"/></g><path fill="url(#j)" fill-rule="evenodd" stroke="#3465a4" stroke-width=".908" d="M18.3 27.05c2.95 4.15 5.84 7.75 8.23 10.33l3.87-2.66c-1.77-3.55-4.5-8.14-7.83-12.97-6-8.73-11.96-15.37-14.32-16.16-.07-.03-.17-.06-.23-.07-.05 0-.12 0-.16 0-.06 0-.15 0-.2.02-.02 0-.06 0-.07 0-.03.02-.05.04-.07.05 0 0-.02 0-.02 0 0 .02 0 .03-.02.03 0 0-.04.03-.05.04 0 0-.02.05-.03.06-.04.04-.08.12-.1.18-.02.05-.05.1-.06.16 0 .06 0 .16-.02.24-.1 2.48 3.98 10.4 9.98 19.14.38.54.74 1.08 1.1 1.6z" overflow="visible" transform="matrix(-10.513 -1.071 -1.071 10.513 747.143 -8.117)"/><path fill="url(#k)" fill-rule="evenodd" stroke="#3465a4" stroke-width=".908" d="M13.74 20.85c.75 1.05 1.52 2.06 2.26 3l5.4-3.72c-.87-1.46-1.85-3-2.92-4.53C13.42 8.24 8.18 2.77 5.94 2.3c-.02-.02-.07-.02-.1-.03 0 0-.05 0-.07 0-.05-.02-.12-.02-.16-.02 0 0-.04 0-.06 0-.05.02-.12.03-.16.05-.02 0-.06 0-.07 0 0 .02-.05.05-.07.06 0 0-.02.02-.02.02s0 0-.02.02c-.02 0-.06.04-.08.05 0 0-.02.05-.03.06-.03.05-.07.1-.1.15 0 .02-.02.05-.03.06 0 .05-.04.12-.05.16 0 .02-.02.07-.02.1 0 0-.02.05-.02.07-.35 2.28 2.9 9.1 7.95 16.47.33.46.63.9.94 1.35z" overflow="visible" transform="matrix(-10.513 -1.071 -1.071 10.513 747.143 -8.117)"/><path fill="url(#l)" fill-rule="evenodd" stroke="#3465a4" stroke-width=".908" d="M6.2 8.02l3.82-2.63C8 3.12 6.16 1.72 5.18 1.77c0 0-.03 0-.04 0 0 0-.03 0-.04 0 0 0-.03 0-.03 0-.04.02-.1.04-.13.05 0 0-.02.02-.02.02s-.03 0-.04 0c0 0-.02.02-.02.02s-.03 0-.03.02c0 0-.02 0-.03 0 0 0-.02.02-.02.02s-.02.02-.03.02c0 0-.02 0-.02.02 0 0 0 .03-.02.03-.04.03-.08.08-.1.1 0 .02 0 .04 0 .04s-.02.03-.03.04c0 0 0 .03 0 .03-.42.9.24 3.12 1.63 5.82z" overflow="visible" transform="matrix(-10.513 -1.071 -1.071 10.513 747.143 -8.117)"/><path fill="none" stroke="url(#m)" stroke-width=".908" d="M15.42 21.24c.2.27.38.52.56.78l3.75-2.58c-.5-.78-1.23-2.05-1.77-2.86C11.74 7.26 5.66 2.6 5.4 2.78c-.28.2 2.17 7.48 8.5 16.28.37.52 1.16 1.68 1.52 2.18z" opacity=".357" stroke-linecap="round" stroke-linejoin="round" overflow="visible" transform="matrix(-10.513 -1.071 -1.071 10.513 747.143 -8.117)"/></g></svg>