<svg xmlns="http://www.w3.org/2000/svg" width="48" height="48" xmlns:xlink="http://www.w3.org/1999/xlink"><defs><radialGradient id="c" cx="38.921" cy="39.927" r="34.589" fx="38.921" fy="39.927" gradientTransform="matrix(-1 0 0 1 55.359 0)" gradientUnits="userSpaceOnUse"><stop offset="0" stop-color="#fff"/><stop offset="1" stop-color="#8D9BA6"/></radialGradient><radialGradient id="b" cx="33.161" cy="46.365" r="28.435" fx="33.161" fy="46.365" gradientTransform="matrix(-1 0 0 1 55.359 0)" gradientUnits="userSpaceOnUse"><stop offset="0" stop-color="#fff"/><stop offset=".09" stop-color="#F9FAFA"/><stop offset=".211" stop-color="#E8EBED"/><stop offset=".35" stop-color="#CCD2D7"/><stop offset=".5" stop-color="#A5B0B8"/><stop offset=".579" stop-color="#8E9CA6"/><stop offset="1" stop-color="#505359"/></radialGradient><linearGradient id="a"><stop offset="0"/><stop offset="1" stop-opacity="0"/></linearGradient><radialGradient id="f" cx="24.205" cy="40.568" r="18.837" xlink:href="#a" fx="24.205" fy="40.568" gradientTransform="matrix(1 0 0 .263 0 29.898)" gradientUnits="userSpaceOnUse"/><linearGradient><stop offset="0" stop-opacity=".502"/><stop offset="1" stop-color="#2e3436" stop-opacity="0"/></linearGradient><linearGradient><stop offset="0" stop-color="#eeeeec" stop-opacity="0"/><stop offset=".5" stop-color="#eeeeec" stop-opacity=".67"/><stop offset="1" stop-color="#eeeeec" stop-opacity="0"/></linearGradient><linearGradient x1="100.512" x2="122.106" y1="48.775" y2="75.352" gradientUnits="userSpaceOnUse"><stop offset="0" stop-color="#FAFAFA"/><stop offset=".579" stop-color="#828B99"/><stop offset=".78" stop-color="#868F9D"/><stop offset=".957" stop-color="#939EAD"/><stop offset="1" stop-color="#98A4B2"/></linearGradient><linearGradient x1="105.015" x2="100.976" y1="53.14" y2="51.033" gradientUnits="userSpaceOnUse" gradientTransform="translate(-65.05 -40.617)"><stop offset="0" stop-color="#fff" stop-opacity=".165"/><stop offset="1" stop-color="#fff" stop-opacity="0"/></linearGradient><linearGradient x1="97.967" x2="124.216" y1="54.748" y2="54.054" gradientUnits="userSpaceOnUse" gradientTransform="translate(-65.05 -40.617)"><stop offset="0" stop-color="#fff"/><stop offset=".105" stop-color="#ECEEF0"/><stop offset=".317" stop-color="#BBC2C8"/><stop offset=".539" stop-color="#828F99"/><stop offset=".858" stop-color="#8895A0"/><stop offset="1" stop-color="#8D9BA6"/></linearGradient><radialGradient id="g" cx="33.161" cy="46.365" r="28.435" xlink:href="#b" gradientUnits="userSpaceOnUse" gradientTransform="matrix(-1 0 0 1 55.359 0)" fx="33.161" fy="46.365"/><radialGradient cx="38.921" cy="39.927" r="34.589" xlink:href="#c" gradientUnits="userSpaceOnUse" gradientTransform="matrix(-1 0 0 1 55.359 0)" fx="38.921" fy="39.927"/><radialGradient cx="33.161" cy="46.365" r="28.435" xlink:href="#b" gradientUnits="userSpaceOnUse" gradientTransform="matrix(-1 0 0 1 55.359 0)" fx="33.161" fy="46.365"/><radialGradient cx="38.921" cy="39.927" r="34.589" xlink:href="#c" gradientUnits="userSpaceOnUse" gradientTransform="matrix(-1 0 0 1 55.359 0)" fx="38.921" fy="39.927"/><radialGradient cx="33.161" cy="46.365" r="28.435" xlink:href="#b" gradientUnits="userSpaceOnUse" gradientTransform="matrix(-1 0 0 1 55.359 0)" fx="33.161" fy="46.365"/><radialGradient cx="38.921" cy="39.927" r="34.589" xlink:href="#c" gradientUnits="userSpaceOnUse" gradientTransform="matrix(-1 0 0 1 55.359 0)" fx="38.921" fy="39.927"/><radialGradient cx="33.161" cy="46.365" r="28.435" xlink:href="#b" gradientUnits="userSpaceOnUse" gradientTransform="matrix(-1 0 0 1 55.359 0)" fx="33.161" fy="46.365"/><radialGradient cx="38.921" cy="39.927" r="34.589" xlink:href="#c" gradientUnits="userSpaceOnUse" gradientTransform="matrix(-1 0 0 1 55.359 0)" fx="38.921" fy="39.927"/><radialGradient id="e" cx="24.205" cy="40.568" r="18.837" xlink:href="#a" gradientUnits="userSpaceOnUse" gradientTransform="matrix(1 0 0 .263 0 29.898)" fx="24.205" fy="40.568"/><radialGradient id="d" cx="24.205" cy="40.568" r="18.837" xlink:href="#a" gradientUnits="userSpaceOnUse" gradientTransform="matrix(1 0 0 .263 0 29.898)" fx="24.205" fy="40.568"/><radialGradient cx="38.921" cy="39.927" r="34.589" xlink:href="#c" gradientUnits="userSpaceOnUse" gradientTransform="matrix(-1 0 0 1 55.359 0)" fx="38.921" fy="39.927"/><radialGradient cx="38.921" cy="39.927" r="34.589" gradientUnits="userSpaceOnUse" gradientTransform="matrix(-1 0 0 1 55.359 0)" fy="39.927" fx="38.921"><stop offset="0" stop-color="#fff"/><stop offset="1" stop-color="#8D9BA6"/></radialGradient><radialGradient cx="38.921" cy="39.927" r="34.589" xlink:href="#c" gradientUnits="userSpaceOnUse" gradientTransform="matrix(-.539 0 0 .539 43.005 -4.085)" fx="38.921" fy="39.927"/><radialGradient cx="38.921" cy="39.927" r="34.589" xlink:href="#c" gradientUnits="userSpaceOnUse" gradientTransform="matrix(-.517 0 0 .517 42.403 -2.909)" fx="38.921" fy="39.927"/><radialGradient cx="38.921" cy="39.927" r="34.589" xlink:href="#c" gradientUnits="userSpaceOnUse" gradientTransform="matrix(-1 0 0 1 55.359 0)" fx="38.921" fy="39.927"/><radialGradient cx="38.921" cy="39.927" r="34.589" gradientUnits="userSpaceOnUse" gradientTransform="matrix(-1 0 0 1 55.359 0)" fy="39.927" fx="38.921"><stop offset="0" stop-color="#fff"/><stop offset="1" stop-color="#8D9BA6"/></radialGradient><radialGradient id="h" cx="38.921" cy="39.927" r="34.589" xlink:href="#c" gradientUnits="userSpaceOnUse" gradientTransform="matrix(-.691 0 0 .691 32.596 -15.198)" fx="38.921" fy="39.927"/><radialGradient cx="38.921" cy="39.927" r="34.589" xlink:href="#c" gradientUnits="userSpaceOnUse" gradientTransform="matrix(-.658 0 0 .658 31.693 -13.435)" fx="38.921" fy="39.927"/><radialGradient cx="38.921" cy="39.927" r="34.589" xlink:href="#c" gradientUnits="userSpaceOnUse" gradientTransform="matrix(-.68 0 0 .68 32.295 -14.61)" fx="38.921" fy="39.927"/><radialGradient cx="38.921" cy="39.927" r="34.589" xlink:href="#c" gradientUnits="userSpaceOnUse" gradientTransform="matrix(-1 0 0 1 55.359 0)" fx="38.921" fy="39.927"/><radialGradient cx="38.921" cy="39.927" r="34.589" gradientUnits="userSpaceOnUse" gradientTransform="matrix(-1 0 0 1 55.359 0)" fy="39.927" fx="38.921"><stop offset="0" stop-color="#fff"/><stop offset="1" stop-color="#8D9BA6"/></radialGradient><radialGradient cx="38.921" cy="39.927" r="34.589" xlink:href="#c" gradientUnits="userSpaceOnUse" gradientTransform="matrix(-.362 0 0 .362 50.891 8.787)" fx="38.921" fy="39.927"/><radialGradient cx="38.921" cy="39.927" r="34.589" xlink:href="#c" gradientUnits="userSpaceOnUse" gradientTransform="matrix(-.33 0 0 .33 49.988 10.55)" fx="38.921" fy="39.927"/><radialGradient cx="33.161" cy="46.365" r="28.435" xlink:href="#b" gradientUnits="userSpaceOnUse" gradientTransform="matrix(-1 0 0 1 55.359 0)" fx="33.161" fy="46.365"/><radialGradient cx="33.161" cy="46.365" r="28.435" xlink:href="#b" gradientUnits="userSpaceOnUse" gradientTransform="matrix(-1 0 0 1 55.359 0)" fx="33.161" fy="46.365"/><radialGradient cx="38.921" cy="39.927" r="34.589" xlink:href="#c" gradientUnits="userSpaceOnUse" gradientTransform="matrix(-.468 0 0 .468 41.052 -.271)" fx="38.921" fy="39.927"/><radialGradient cx="38.921" cy="39.927" r="34.589" xlink:href="#c" gradientUnits="userSpaceOnUse" gradientTransform="matrix(-.288 0 0 .288 48.641 12.808)" fx="38.921" fy="39.927"/><radialGradient id="k" cx="33.161" cy="46.365" r="28.435" xlink:href="#b" gradientUnits="userSpaceOnUse" gradientTransform="matrix(-1 0 0 1 55.359 0)" fx="33.161" fy="46.365"/><radialGradient id="l" cx="38.921" cy="39.927" r="34.589" xlink:href="#c" gradientUnits="userSpaceOnUse" gradientTransform="matrix(-.288 0 0 .288 48.641 12.808)" fx="38.921" fy="39.927"/><radialGradient id="i" cx="33.161" cy="46.365" r="28.435" xlink:href="#b" gradientUnits="userSpaceOnUse" gradientTransform="matrix(-1 0 0 1 55.359 0)" fx="33.161" fy="46.365"/><radialGradient id="j" cx="38.921" cy="39.927" r="34.589" xlink:href="#c" gradientUnits="userSpaceOnUse" gradientTransform="matrix(-.468 0 0 .468 41.052 -.271)" fx="38.921" fy="39.927"/></defs><g><path fill="url(#d)" fill-rule="evenodd" d="M43.04 40.57a18.84 4.95 0 1 1-37.67 0 18.84 4.95 0 1 1 37.67 0z" transform="matrix(.302 0 0 .302 34.524 23.26)"/><path fill="url(#e)" fill-rule="evenodd" d="M43.04 40.57a18.84 4.95 0 1 1-37.67 0 18.84 4.95 0 1 1 37.67 0z" transform="matrix(.474 0 0 .474 17.189 16.191)"/><path fill="url(#f)" fill-rule="evenodd" d="M43.04 40.57a18.84 4.95 0 1 1-37.67 0 18.84 4.95 0 1 1 37.67 0z" transform="matrix(.638 0 0 .638 -3.097 9.165)"/><g><circle cx="27.679" cy="54.053" r="19.018" fill="url(#g)" stroke="#192333" stroke-width="1.448" transform="matrix(.691 0 0 .691 -5.643 -15.198)"/><path fill="url(#h)" d="M13.48 9.35C6.42 9.35.68 15.1.68 22.15c0 7.04 5.74 12.78 12.8 12.78 7.05 0 12.8-5.74 12.8-12.8 0-7.04-5.75-12.78-12.8-12.78zm0 24.7c-6.57 0-11.9-5.34-11.9-11.9 0-6.58 5.33-11.92 11.9-11.92 6.56 0 11.9 5.34 11.9 11.9 0 6.58-5.34 11.92-11.9 11.92z"/></g><g transform="translate(.381 1.016)"><circle cx="27.679" cy="54.053" r="19.018" fill="url(#i)" stroke="#192333" stroke-width="2.061" transform="matrix(.485 0 0 .485 14.665 -1.197)"/><path fill="url(#j)" d="M28.1 16.36c-4.78 0-8.67 3.9-8.67 8.67 0 4.78 3.9 8.67 8.67 8.67 4.78 0 8.66-3.9 8.66-8.67 0-4.78-3.88-8.67-8.66-8.67zm0 16.54c-4.34 0-7.87-3.53-7.87-7.87s3.53-7.87 7.87-7.87c4.33 0 7.86 3.53 7.86 7.87s-3.53 7.87-7.86 7.87z"/></g><g transform="translate(1.079 1.143)"><circle cx="27.679" cy="54.053" r="19.018" fill="url(#k)" stroke="#192333" stroke-width="3.307" transform="matrix(.302 0 0 .302 32.297 12.035)"/><path fill="url(#l)" d="M40.67 23.05c-2.94 0-5.34 2.4-5.34 5.33 0 2.94 2.4 5.34 5.34 5.34S46 31.32 46 28.38s-2.4-5.33-5.33-5.33zm0 9.92c-2.54 0-4.6-2.06-4.6-4.6 0-2.52 2.06-4.58 4.6-4.58 2.53 0 4.6 2.05 4.6 4.58 0 2.53-2.07 4.6-4.6 4.6z"/></g></g></svg>