<svg xmlns="http://www.w3.org/2000/svg" width="48" height="48" xmlns:xlink="http://www.w3.org/1999/xlink"><defs><linearGradient id="e"><stop offset="0" stop-color="#eeeeec"/><stop offset="1" stop-color="#eeeeec" stop-opacity="0"/></linearGradient><linearGradient id="d"><stop offset="0" stop-color="#2e3436"/><stop offset="1" stop-color="#2e3436" stop-opacity="0"/></linearGradient><linearGradient id="c"><stop offset="0" stop-color="#888a85"/><stop offset="1" stop-color="#888a85" stop-opacity="0"/></linearGradient><linearGradient id="b"><stop offset="0" stop-color="#888a85"/><stop offset="1" stop-color="#ebebea"/></linearGradient><linearGradient id="a"><stop offset="0" stop-color="#3f7d04"/><stop offset="1" stop-color="#73d216"/></linearGradient><linearGradient x1="12.46" x2="15.849" y1="18.236" y2="36.903" xlink:href="#a" gradientUnits="userSpaceOnUse" gradientTransform="matrix(.89 0 0 1.013 1.044 -.603)"/><linearGradient x1="26.079" x2="41.182" y1="15.284" y2="24.141" xlink:href="#a" gradientUnits="userSpaceOnUse" gradientTransform="matrix(.935 0 0 1.013 2.075 -.603)"/><linearGradient id="h" x1="20.317" x2="46.724" y1="10.659" y2="30.469" xlink:href="#b" gradientUnits="userSpaceOnUse"/><linearGradient id="f" x1="5.206" x2="14.219" y1="28.496" y2="33.067" xlink:href="#c" gradientUnits="userSpaceOnUse"/><linearGradient id="g" x1="7.238" x2="15.108" y1="23.67" y2="28.75" xlink:href="#d" gradientUnits="userSpaceOnUse"/><linearGradient id="i" x1="12.093" x2="4.156" y1="10.217" y2="21.138" xlink:href="#e" gradientUnits="userSpaceOnUse"/></defs><g color="#000" stroke-linecap="round"><path fill="url(#f)" fill-rule="evenodd" stroke="url(#g)" d="M.7 22.5c0 8.65 6.23 15.7 13.9 15.7v-7.56c-3.98 0-7.22-3.65-7.22-8.15" overflow="visible"/><path fill="url(#h)" fill-rule="evenodd" stroke="#2e3436" d="M7.38 22.55c0-4.5 5.4-9.02 9.95-8.82 3.96.16 11.34-.26 18.98 8.53l-2.94 2.9L47.5 31.5l-1.6-16.48-3.74 2.95c-9.23-9.2-15.32-11.3-25.03-11.13C9.25 6.98.7 13.88.7 22.54" overflow="visible"/><path fill="none" stroke="url(#i)" d="M6.46 22.24c.07-6.34 7.18-9.78 11.73-9.6 3.95.18 12.73.97 19.48 9.7l-2.64 2.52L46.2 29.8l-1.23-12.74L42 19.3C34 11.25 28.4 8.2 19.6 7.8c-8.77-.38-17.7 5.27-17.84 14.9" overflow="visible"/></g></svg>