<svg xmlns="http://www.w3.org/2000/svg" width="48" height="48" xmlns:xlink="http://www.w3.org/1999/xlink"><defs><linearGradient id="b"><stop offset="0" stop-color="#fedba7"/><stop offset="1" stop-color="#fdbf64"/></linearGradient><linearGradient id="a"><stop offset="0" stop-color="#ffa54c"/><stop offset="1" stop-color="#f57900"/></linearGradient><linearGradient x1="14.929" x2="35.357" y1="17.929" y2="27.929" xlink:href="#a" gradientUnits="userSpaceOnUse" gradientTransform="matrix(.864 0 0 .863 3.346 6.117)"/><linearGradient x1="3.823" x2="38.031" y1="26.354" y2="26.143" xlink:href="#b" gradientUnits="userSpaceOnUse" gradientTransform="matrix(.967 0 0 .966 .802 .898)"/><linearGradient id="c" x1="14.929" x2="35.357" y1="17.929" y2="27.929" xlink:href="#a" gradientUnits="userSpaceOnUse" gradientTransform="matrix(.876 0 0 1.59 2.781 -14.092)"/><linearGradient id="d" x1="3.823" x2="38.031" y1="26.354" y2="26.143" xlink:href="#b" gradientUnits="userSpaceOnUse" gradientTransform="matrix(.98 0 0 1.779 .201 -23.71)"/></defs><g><path fill="url(#c)" fill-rule="evenodd" stroke="url(#d)" stroke-width="1.5" d="M2.47 22.47l22.2-16.65 9.64 7.9 6.44 12.17-15.86 13.9-22.4-17.33z" stroke-linejoin="round"/><path fill="none" stroke="#8b3b00" stroke-width="1.5" d="M24.18 22.22l12.22 9.56" stroke-dasharray="1.5,1.5"/><path fill="none" stroke="#8b3b00" stroke-width="1.5" d="M13.12 12.92l11.34 9.04"/><path fill="none" stroke="#8b3b00" stroke-width="1.5" d="M35.5 12.98l-23.57 18.6"/><path fill="none" stroke="#8b3b00" stroke-width="1.5" d="M23.97 21.5l17.5 4.75"/><path fill="none" stroke="#000" stroke-width="1.5" d="M35.6 13.1l11.6 9.6-6.6 5.14" stroke-linejoin="round" stroke-dasharray="1.5,1.5"/><path fill="none" stroke="#000" stroke-width="1.4" d="M.5 22.4L24.8 4.34l10.73 8.5 6.62 13.66L24.8 41.25.5 22.4z" stroke-linejoin="round"/></g></svg>