<svg xmlns="http://www.w3.org/2000/svg" width="48" height="48" xmlns:xlink="http://www.w3.org/1999/xlink"><defs><linearGradient id="c"><stop offset="0" stop-color="#ffff30"/><stop offset="1" stop-color="#ffbf27"/></linearGradient><linearGradient id="a"><stop offset="0" stop-color="#ffff30"/><stop offset="1" stop-color="#ffbf27"/></linearGradient><radialGradient cx="16.917" cy="23.36" r="8.666" fy="23.36" fx="16.917" gradientTransform="matrix(.712 -.702 1.853 1.879 -38.389 -15.119)" gradientUnits="userSpaceOnUse" xlink:href="#a"/><radialGradient id="e" cx="32.912" cy="33.049" r="8.666" xlink:href="#b" fx="32.912" fy="33.049" gradientTransform="matrix(.16 -.987 2.57 .416 -43.94 49.205)" gradientUnits="userSpaceOnUse"/><linearGradient id="b"><stop offset="0" stop-color="#ffff30"/><stop offset="1" stop-color="#ffbf27"/></linearGradient><radialGradient cx="16.917" cy="23.36" r="8.666" fy="23.36" fx="16.917" gradientTransform="matrix(.712 -.702 1.853 1.879 -38.389 -15.119)" gradientUnits="userSpaceOnUse" xlink:href="#b"/><radialGradient id="d" cx="16.917" cy="23.36" r="8.666" xlink:href="#c" gradientUnits="userSpaceOnUse" gradientTransform="matrix(.712 -.702 1.853 1.879 -38.421 -8.518)" fx="16.917" fy="23.36"/><radialGradient id="f" cx="1.924" cy="29.746" r="8.666" xlink:href="#a" gradientUnits="userSpaceOnUse" gradientTransform="matrix(.997 -.081 .21 2.566 9.92 -30.17)" fx="1.924" fy="29.746"/></defs><g><path fill="none" stroke="#729fcf" stroke-width="3" d="M22.16 19.87l24.4 4.8" color="#000" stroke-linecap="round" overflow="visible" enable-background="accumulate"/><path fill="none" stroke="#3465a4" d="M22.83 21.13l23.78 4.63" color="#000" stroke-linecap="round" overflow="visible" enable-background="accumulate"/><path fill="none" stroke="#729fcf" stroke-width="3" d="M3.5 1.56l18.22 18.1 2.55 25.72" stroke-linecap="round"/><path fill="none" stroke="#3465a4" d="M2.57 2.03l18.2 18.1 2.56 25.72" stroke-linecap="round"/><path fill="none" stroke="#fff" stroke-width=".5" d="M3.76 1L22.3 19.2l24.06 4.63"/><g color="#000" font-family="Sans"><path d="M.73 6.63c-.8.7-.8 1.94-.16 2.53l9.58 9.78-2.23 2 9.02 2.4-2.05-8.65-1.95 1.78-9.7-9.86c-.33-.35-1.72-.68-2.52 0z" style="text-indent:0;text-align:start;line-height:normal;text-transform:none;block-progression:tb;-inkscape-font-specification:Sans" overflow="visible" enable-background="accumulate"/><path fill="url(#d)" stroke="#000" stroke-width=".5" d="M.84 7.26c-.8.7-.8 1.94-.16 2.52l9.58 9.78-2.23 2.02 9.02 2.38L15 15.3l-1.94 1.8-9.7-9.85c-.34-.35-1.72-.7-2.52 0z" style="text-indent:0;text-align:start;line-height:normal;text-transform:none;block-progression:tb;-inkscape-font-specification:Sans" overflow="visible" enable-background="accumulate" transform="translate(.152 -1.667)"/></g><g color="#000" font-family="Sans"><path d="M24.15 27.18c-.23 1.03.5 2.03 1.36 2.13L39 31.58l-.6 2.94 8.7-3.38-6.76-5.78-.5 2.6-13.65-2.26c-.5-.08-1.8.46-2.05 1.5z" style="text-indent:0;text-align:start;line-height:normal;text-transform:none;block-progression:tb;-inkscape-font-specification:Sans" overflow="visible" enable-background="accumulate"/><path fill="url(#e)" stroke="#000" stroke-width=".5" d="M23.82 26.6c-.24 1.05.5 2.05 1.35 2.15L38.67 31l-.6 2.94 8.7-3.4L40 24.8l-.5 2.58-13.65-2.24c-.48-.1-1.8.46-2.03 1.5z" style="text-indent:0;text-align:start;line-height:normal;text-transform:none;block-progression:tb;-inkscape-font-specification:Sans" overflow="visible" enable-background="accumulate" transform="translate(.859 -.455)"/></g><g color="#000" font-family="Sans"><path d="M15.75 23.44c-1.06.04-1.84 1-1.72 1.86l1.3 13.63-3 .17 5.5 7.52 3.85-8-2.64.16-1.32-13.76c-.05-.48-.9-1.62-1.97-1.58z" style="text-indent:0;text-align:start;line-height:normal;text-transform:none;block-progression:tb;-inkscape-font-specification:Sans" overflow="visible" enable-background="accumulate"/><path fill="url(#f)" stroke="#000" stroke-width=".5" d="M16.15 23.5c-1.06.03-1.84 1-1.7 1.85l1.28 13.63-3 .17 5.5 7.52 3.85-8-2.63.16-1.33-13.76c-.04-.48-.9-1.62-1.97-1.58z" style="text-indent:0;text-align:start;line-height:normal;text-transform:none;block-progression:tb;-inkscape-font-specification:Sans" overflow="visible" enable-background="accumulate" transform="translate(.354 -.859)"/></g></g></svg>