<svg xmlns="http://www.w3.org/2000/svg" width="48" height="48" xmlns:xlink="http://www.w3.org/1999/xlink"><defs><linearGradient id="b"><stop offset="0" stop-color="#fedba7"/><stop offset="1" stop-color="#fdbf64"/></linearGradient><linearGradient id="a"><stop offset="0" stop-color="#ffa54c"/><stop offset="1" stop-color="#f57900"/></linearGradient><linearGradient x1="14.929" x2="35.357" y1="17.929" y2="27.929" xlink:href="#a" gradientUnits="userSpaceOnUse" gradientTransform="matrix(.864 0 0 .863 3.346 6.117)"/><linearGradient x1="2.131" x2="46.011" y1="26.143" y2="26.143" xlink:href="#b" gradientUnits="userSpaceOnUse" gradientTransform="matrix(.967 0 0 .966 .802 .898)"/><linearGradient x1="14.929" x2="35.357" y1="17.929" y2="27.929" xlink:href="#a" gradientUnits="userSpaceOnUse" gradientTransform="matrix(.864 0 0 .863 3.346 3.356)"/><linearGradient x1="2.131" x2="46.011" y1="26.143" y2="26.143" xlink:href="#b" gradientUnits="userSpaceOnUse" gradientTransform="matrix(.967 0 0 .966 .802 -1.863)"/><linearGradient x1="14.929" x2="35.357" y1="17.929" y2="27.929" xlink:href="#a" gradientUnits="userSpaceOnUse" gradientTransform="matrix(.864 0 0 .863 3.346 3.356)"/><linearGradient x1="2.131" x2="43.833" y1="26.143" y2="25.899" xlink:href="#b" gradientUnits="userSpaceOnUse" gradientTransform="matrix(.967 0 0 .966 .802 -1.863)"/><linearGradient x1="14.929" x2="35.357" y1="17.929" y2="27.929" xlink:href="#a" gradientUnits="userSpaceOnUse" gradientTransform="matrix(.881 -.508 .508 .88 -8.669 17.329)"/><linearGradient x1="2.131" x2="43.833" y1="26.143" y2="25.899" xlink:href="#b" gradientUnits="userSpaceOnUse" gradientTransform="matrix(.986 -.569 .569 .985 -14.336 13.504)"/><linearGradient x1="14.929" x2="35.357" y1="17.929" y2="27.929" xlink:href="#a" gradientUnits="userSpaceOnUse" gradientTransform="matrix(.881 -.508 .508 .88 -8.669 17.329)"/><linearGradient x1="2.131" x2="43.833" y1="26.143" y2="25.899" xlink:href="#b" gradientUnits="userSpaceOnUse" gradientTransform="matrix(.986 -.569 .569 .985 -14.336 13.504)"/><linearGradient id="c" x1="24.317" x2="24.1" y1="14.076" y2="32.393" xlink:href="#a" gradientUnits="userSpaceOnUse" gradientTransform="matrix(.845 -.573 .948 1.05 -17.934 14.976)"/><linearGradient id="d" x1="26.388" x2="26.289" y1="18.241" y2="33.925" xlink:href="#b" gradientUnits="userSpaceOnUse" gradientTransform="matrix(.946 -.642 1.061 1.175 -26.16 10.312)"/></defs><g><path fill="url(#c)" fill-rule="evenodd" stroke="url(#d)" d="M3.87 39.13l10.97-25.18 29.84-2.68-9.5 24.76-31.3 3.1z" stroke-linejoin="round"/><path fill="none" stroke="#8b3b00" d="M35.84 36.68l-21.5-23.82" stroke-dasharray="1,1"/><path fill="none" stroke="#000" stroke-width="1.5" d="M2.06 39.97l43.63-29.6"/><path fill="none" stroke="#000" d="M1.94 40.38l12.48-27.44 31.9-2.65-10.2 26.68-34.18 3.4z" stroke-linejoin="round"/></g></svg>