<svg xmlns="http://www.w3.org/2000/svg" width="48" height="48" xmlns:xlink="http://www.w3.org/1999/xlink"><defs><linearGradient><stop offset="0" stop-color="#fedba7"/><stop offset="1" stop-color="#fdbf64"/></linearGradient><linearGradient id="a"><stop offset="0" stop-color="#ffde57"/><stop offset="1" stop-color="#f60"/></linearGradient><radialGradient cx="-4.789" cy="-4.426" r="21.26" xlink:href="#a" gradientUnits="userSpaceOnUse" gradientTransform="matrix(.684 .599 -.659 .752 -4.432 1.772)" fx="-4.789" fy="-4.426"/><radialGradient cx="-4.789" cy="-4.426" r="21.26" xlink:href="#a" gradientUnits="userSpaceOnUse" gradientTransform="matrix(.684 .599 -.659 .752 -4.432 1.772)" fx="-4.789" fy="-4.426"/><radialGradient cx="-4.789" cy="-4.426" r="21.26" xlink:href="#a" gradientUnits="userSpaceOnUse" gradientTransform="matrix(.684 .599 -.659 .752 -4.432 1.772)" fx="-4.789" fy="-4.426"/><radialGradient id="b" cx="-4.789" cy="-4.426" r="21.26" xlink:href="#a" gradientUnits="userSpaceOnUse" gradientTransform="matrix(.764 .67 -.737 .841 15.34 23.959)" fx="-4.789" fy="-4.426"/></defs><g stroke-linejoin="round"><g fill-rule="evenodd" stroke="#000" stroke-width=".45"><path fill="#2e2e2e" d="M.55 19.56L8.35 6.4 6.4 15.42.56 19.56z"/><path fill="#6d6d6d" d="M8.27 6.28l9.35 1.33L22.36.7l-14.1 5.6z"/><path fill="#7a7a7a" d="M22.52.6L31 5.12l5.84-1.1L22.52.6z"/><path fill="#767676" d="M36.7 3.95l5.67 9.34 3.42 1.86-9.1-11.2z"/><path fill="#7a7a7a" d="M45.95 15l-3.58-1.8 5.14 11.53L45.96 15z"/><path fill="#7f7f7f" d="M47.66 24.5l-7 3.35 2.72 9.65 4.28-13z"/><path fill="#4a4a4a" d="M43.38 37.73l-11.3 3.66 1.42 4.9 9.88-8.57z"/><path fill="#313131" d="M33.65 46.3l-1.7-5-11.22 6.32 12.92-1.33z"/><path d="M21.04 47.62l-9.42-3.2-3.1-3.26 12.52 6.46z"/><path d="M8.66 41.24l-6.6-7.48 2.48-4.5 4.12 11.98z"/><path d="M1.97 33.76L.4 19.28l4.14 10.2-2.57 4.28z"/><path fill="#6e6e6e" d="M6.33 15.7l2.1-9.42L18 7.84 6.33 15.7z"/><path fill="#929292" d="M17.77 7.76l4.98-7 8.33 4.5-13.3 2.5z"/><path fill="#979797" d="M31.16 5.2l5.68-1.17 5.6 9.5-11.28-8.34z"/><path fill="#a3a3a3" d="M42.6 13.6L40.66 28l7.08-3.27L42.6 13.6z"/><path fill="#7f7f7f" d="M40.9 27.77l-8.8 13.78 11.44-3.9-2.65-9.88z"/><path fill="#505050" d="M32.25 41.3l-11.3 6.4-4.35-9.58 15.65 3.2z"/><path fill="#2d2d2d" d="M16.76 38.12l-7.94 3.43 12.07 6.07-4.14-9.5z"/><path fill="#414141" d="M16.53 38.04l-7.8 3.58-4.58-12.45 12.38 8.87z"/><path fill="#303030" d="M4.3 29.48l2.18-13.93-6 4.28 3.82 9.65z"/><path fill="#737373" d="M6.33 15.55l9.1 7.08-10.9 6.62 1.8-13.7z"/><path fill="#999" d="M6.48 15.63L17.93 7.7l-2.57 15.1-8.88-7.17z"/><path fill="#c7c7c7" d="M17.93 7.7L31.4 5.2l-.94 10.97L17.93 7.7z"/><path fill="#cdcdcd" d="M30.46 16.17l12-2.88-1.73 14.94-10.27-12.07z"/><path fill="#f0f0f0" d="M30.54 16.1l-12.6-8.4L15.35 23l15.18-6.93z"/><path fill="#a4a4a4" d="M15.28 22.7l1.32 15.42 11.2-8.1-12.52-7.3z"/><path fill="#9f9f9f" d="M27.8 30.1l4.45 11.37 8.72-13.78-13.16 2.4z"/><path fill="#fff" d="M27.74 30.18L30.38 16l10.35 12.24-13 1.94z"/><path fill="#c0c0c0" d="M42.5 13.33l-11.22-8.1-.78 11.13 12-3.03z"/><path fill="#fff" d="M27.9 30.44L30.47 16l-15.2 6.6 12.6 7.84z"/><path fill="#757575" d="M15.36 22.55l1.32 15.5-12.3-8.65 10.98-6.85z"/><path fill="#868686" d="M16.64 37.97l11.3-7.7 4.35 11.35-15.66-3.65z"/></g><path fill="url(#b)" fill-rule="evenodd" stroke="#ed6900" stroke-width=".5" d="M21 47.62l-9.25-3.25-2.85-2.85-6.98-8.02L.5 19.1 8.3 6.17 22.5.62 17.74 7.5l-2.18 14.75L16.6 37.8l4.4 9.82z" color="#000" overflow="visible"/><path fill="none" stroke="#ed6900" stroke-width=".5" d="M8.27 6.04l9.76 1.6 4.75-7-14.5 5.4z"/><path fill="none" stroke="#ed6900" stroke-width=".5" d="M21.04 47.37l-9.42-3.2-3.1-3.26 12.52 6.47z"/><path fill="none" stroke="#ed6900" stroke-width=".5" d="M8.66 41l-6.6-7.48L4.53 29l4.12 12z"/><path fill="none" stroke="#ed6900" stroke-width=".5" d="M1.97 33.52L.4 19.04l4.14 10.2-2.57 4.28z"/><path fill="none" stroke="#ed6900" stroke-width=".5" d="M6.33 15.46l2.1-9.42L18 7.6 6.33 15.45z"/><path fill="none" stroke="#ed6900" stroke-width=".5" d="M16.76 37.88L8.82 41.3l12.07 6.07-4.14-9.5z"/><path fill="none" stroke="#ed6900" stroke-width=".5" d="M16.53 37.8l-7.8 3.58-4.58-12.46 12.38 8.88z"/><path fill="none" stroke="#ed6900" stroke-width=".5" d="M4.3 29.23L6.48 15.3l-6 4.28 3.82 9.65z"/><path fill="none" stroke="#ed6900" stroke-width=".5" d="M6.33 15.3l9.1 7.08L4.54 29l1.8-13.7z"/><path fill="none" stroke="#ed6900" stroke-width=".5" d="M6.48 15.38l11.45-7.94-2.57 15.1-8.88-7.16z"/><path fill="none" stroke="#ed6900" stroke-width=".5" d="M15.36 22.3l1.32 15.5-12.3-8.64 10.98-6.85z"/><path fill="none" stroke="#000" d="M8 6.2L22.45.6l14.32 3.44 9.03 11.12 1.55 9.56-3.9 12.84-9.65 8.62-13.07 1.25-9.2-3.13-2.95-2.98-6.12-7.2L.64 19.08 8 6.18z"/></g></svg>