<svg xmlns="http://www.w3.org/2000/svg" width="48" height="48" xmlns:xlink="http://www.w3.org/1999/xlink"><defs><linearGradient id="a"><stop offset="0" stop-color="#9a7e00"/><stop offset="1" stop-color="#643e00"/></linearGradient><linearGradient id="f" x1="6.509" x2="10.484" y1="32.061" y2="36.162" xlink:href="#a" gradientUnits="userSpaceOnUse"/><linearGradient id="c"><stop offset="0" stop-color="#fedba7"/><stop offset="1" stop-color="#fdbf64"/></linearGradient><linearGradient id="b"><stop offset="0" stop-color="#ffa54c"/><stop offset="1" stop-color="#f57900"/></linearGradient><linearGradient x1="14.929" x2="35.357" y1="17.929" y2="27.929" xlink:href="#b" gradientUnits="userSpaceOnUse" gradientTransform="matrix(.864 0 0 .863 3.346 6.117)"/><linearGradient x1="2.131" x2="46.011" y1="26.143" y2="26.143" xlink:href="#c" gradientUnits="userSpaceOnUse" gradientTransform="matrix(.967 0 0 .966 .802 .898)"/><linearGradient x1="14.929" x2="35.357" y1="17.929" y2="27.929" xlink:href="#b" gradientUnits="userSpaceOnUse" gradientTransform="matrix(.864 0 0 .863 3.346 6.117)"/><linearGradient x1="2.131" x2="46.011" y1="26.143" y2="26.143" xlink:href="#c" gradientUnits="userSpaceOnUse" gradientTransform="matrix(.967 0 0 .966 .802 .898)"/><linearGradient id="d" x1="14.929" x2="35.357" y1="17.929" y2="27.929" xlink:href="#b" gradientUnits="userSpaceOnUse" gradientTransform="matrix(.906 0 0 1.955 2.335 -21.026)"/><linearGradient id="e" x1="2.131" x2="46.011" y1="26.143" y2="26.143" xlink:href="#c" gradientUnits="userSpaceOnUse" gradientTransform="matrix(1.014 0 0 2.189 -.332 -32.857)"/><linearGradient id="g" x1="6.509" x2="10.484" y1="32.061" y2="36.162" xlink:href="#a" gradientUnits="userSpaceOnUse"/><linearGradient id="h" x1="6.509" x2="10.484" y1="32.061" y2="36.162" xlink:href="#a" gradientUnits="userSpaceOnUse"/><linearGradient id="i" x1="6.509" x2="10.484" y1="32.061" y2="36.162" xlink:href="#a" gradientUnits="userSpaceOnUse"/></defs><g><path fill="url(#d)" fill-rule="evenodd" stroke="url(#e)" stroke-width="1.4" d="M2.34 23.95L25.12 3.97l20.7 19.98L24.97 44.5 2.34 23.94z" stroke-linejoin="round"/><path fill="none" stroke="#6b2d00" stroke-width="2" d="M36.2 12.2L12.55 34.87"/><path fill="none" stroke="#000" stroke-width="1.4" d="M.58 23.9L25.04 2.23l22.5 21.65-22.5 22.57L.58 23.9z" stroke-linejoin="round"/><g color="#000" stroke-linejoin="round"><path fill="#fce94f" fill-rule="evenodd" stroke="url(#f)" stroke-width=".738" d="M10.86 34a2.3 2.3 0 1 1-4.57 0 2.3 2.3 0 1 1 4.56 0z" transform="matrix(1.354 0 0 1.354 .964 -11.183)" overflow="visible"/><path fill="none" stroke="#fff" stroke-width=".7476300000000001" d="M14.78 34.84a2.2 2.15 0 1 1-4.43 0 2.2 2.15 0 1 1 4.43 0z" overflow="visible"/></g><g color="#000" stroke-linejoin="round"><path fill="#fce94f" fill-rule="evenodd" stroke="url(#g)" stroke-width=".738" d="M10.86 34a2.3 2.3 0 1 1-4.57 0 2.3 2.3 0 1 1 4.56 0z" transform="matrix(1.354 0 0 1.354 8.837 -18.611)" overflow="visible"/><path fill="none" stroke="#fff" stroke-width=".7476300000000001" d="M22.65 27.4a2.2 2.15 0 1 1-4.42 0 2.2 2.15 0 1 1 4.42 0z" overflow="visible"/></g><g color="#000" stroke-linejoin="round"><path fill="#fce94f" fill-rule="evenodd" stroke="url(#h)" stroke-width=".738" d="M10.86 34a2.3 2.3 0 1 1-4.57 0 2.3 2.3 0 1 1 4.56 0z" transform="matrix(1.354 0 0 1.354 16.964 -26.103)" overflow="visible"/><path fill="none" stroke="#fff" stroke-width=".7476300000000001" d="M30.78 19.92a2.2 2.15 0 1 1-4.43 0 2.2 2.15 0 1 1 4.43 0z" overflow="visible"/></g><g color="#000" stroke-linejoin="round"><path fill="#fce94f" fill-rule="evenodd" stroke="url(#i)" stroke-width=".738" d="M10.86 34a2.3 2.3 0 1 1-4.57 0 2.3 2.3 0 1 1 4.56 0z" transform="matrix(1.354 0 0 1.354 24.075 -33.405)" overflow="visible"/><path fill="none" stroke="#fff" stroke-width=".7476300000000001" d="M37.9 12.62a2.2 2.15 0 1 1-4.43 0 2.2 2.15 0 1 1 4.42 0z" overflow="visible"/></g></g></svg>