<svg xmlns="http://www.w3.org/2000/svg" width="48" height="48" xmlns:xlink="http://www.w3.org/1999/xlink" version="1"><defs><linearGradient id="f"><stop offset="0" stop-color="#2e3436"/><stop offset="1" stop-color="#2e3436" stop-opacity="0"/></linearGradient><linearGradient><stop offset="0" stop-color="#ef2929"/><stop offset="1" stop-color="#9d0b0b"/></linearGradient><linearGradient id="d"><stop offset="0" stop-color="#f0f0f0"/><stop offset="1" stop-color="#f0f0f0" stop-opacity="0"/></linearGradient><linearGradient id="e"><stop offset="0" stop-color="#fff"/><stop offset="1" stop-color="#eeeeec" stop-opacity="0"/></linearGradient><radialGradient id="c" cx="294.624" cy="80.627" r="48.777" fx="294.624" fy="80.627" gradientUnits="userSpaceOnUse"><stop offset="0" stop-color="#BAD1D7"/><stop offset=".826" stop-color="#6D7580"/><stop offset="1" stop-color="#41454C"/></radialGradient><radialGradient id="b" cx="257.459" cy="35.376" r="68.717" fx="257.459" fy="35.376" gradientUnits="userSpaceOnUse"><stop offset="0" stop-color="#fff"/><stop offset="1" stop-color="#8794A0"/></radialGradient><radialGradient id="a" cx="264.957" cy="80.291" r="53.348" fx="264.957" fy="80.291" gradientUnits="userSpaceOnUse"><stop offset="0" stop-color="#BAD1D7"/><stop offset="1" stop-color="#8794A0"/></radialGradient><radialGradient id="h" cx="264.957" cy="80.291" r="53.348" xlink:href="#a" gradientUnits="userSpaceOnUse" fx="264.957" fy="80.291"/><radialGradient id="i" cx="296.889" cy="31.019" r="68.717" xlink:href="#b" gradientUnits="userSpaceOnUse" gradientTransform="matrix(-.454 .133 -.054 -.225 204.717 -28.7)" fx="296.889" fy="31.019"/><radialGradient id="j" cx="294.624" cy="80.627" r="48.777" xlink:href="#c" gradientUnits="userSpaceOnUse" gradientTransform="matrix(.923 0 0 .924 -205.891 -24.873)" fx="294.624" fy="80.627"/><linearGradient id="k" x1="16.601" x2="17.363" y1="19.748" y2="45.175" xlink:href="#d" gradientUnits="userSpaceOnUse" gradientTransform="matrix(.883 0 0 .883 31.144 4.927)"/><linearGradient id="l" x1="14.107" x2="39.798" y1="4.772" y2="45.693" xlink:href="#e" gradientUnits="userSpaceOnUse" gradientTransform="matrix(.883 0 0 .883 31.144 4.927)"/><linearGradient id="g" x1="11.401" x2="39.368" y1="41.943" y2="43.547" xlink:href="#f" gradientUnits="userSpaceOnUse" gradientTransform="matrix(1.034 0 0 1.377 -.003 -18.203)"/></defs><g><path fill="url(#g)" fill-rule="evenodd" d="M14.7 47.83L42 42l-12.3-4.97-15 10.8z"/><g><path fill="url(#h)" d="M278 75.57l-16.45-14.23-1.98-23.04 18.78 12.2-.35 25.07z" transform="matrix(.764 0 0 .821 -197.637 -14.862)"/><path fill="url(#i)" d="M72.67-5.25l-21.7 26.6L33.8 10.5l16.12-2.22L72.67-5.25z" transform="matrix(.828 0 0 .888 -27.159 7.225)"/><path fill="url(#j)" d="M67.9 35.05l-17.08 9.87.22-23.16L72.9-5.02l-5 40.07z" transform="matrix(.828 0 0 .888 -27.159 7.225)"/><path fill="none" stroke="#f0f0f0" stroke-width="1.166" d="M51 21.78L72.38-4.7" stroke-linecap="round" transform="matrix(.828 0 0 .888 -27.159 7.225)"/><path fill="none" stroke="url(#k)" stroke-width="1.166" d="M34.4 11.24l16.52 10.6-.34 22.6" stroke-linecap="round" transform="matrix(.828 0 0 .888 -27.159 7.225)"/><path fill="none" stroke="url(#l)" stroke-width="1.749" d="M34.6 11.45l15.43-2.68L72.4-4.57l-4.7 39.7-16.94 9.28L36.5 31.5l-1.9-20.05z" transform="matrix(.828 0 0 .888 -27.159 7.225)"/><path fill="none" stroke="#3f3131" stroke-width="1.166" d="M33.55 10.7l16.27-2.55 23.5-14.38-5.07 41.66-17.58 9.98L35.55 31.9l-2-21.17z" transform="matrix(.828 0 0 .888 -27.159 7.225)"/></g><path fill="#ef2929" fill-rule="evenodd" stroke="#eeeeec" stroke-width="1.00116" d="M37.5 4a3.5 3.5 0 1 1-7 0 3.5 3.5 0 1 1 7 0z" color="#000" stroke-linecap="round" overflow="visible"/><g><path fill="#eeeeec" stroke="#000" stroke-width="1.04.446" d="M36.4 20.82l3.42-4.23 3.6 6.55 2.83-1.55-3.6-6.56 5.4-.6L34.52 3.6l1.9 17.22z" stroke-linejoin="round"/><path fill="#d3d7cf" fill-rule="evenodd" d="M34.4 5l9.3 17.05 1-.63-3.47-6.8 4.66-.45L34.4 5z"/></g></g></svg>