<svg xmlns="http://www.w3.org/2000/svg" width="48" height="48" xmlns:xlink="http://www.w3.org/1999/xlink"><defs><linearGradient id="a"><stop offset="0" stop-color="#d3d7cf"/><stop offset="1" stop-color="#fff"/></linearGradient><linearGradient id="g" x1="23.201" x2="22.741" y1="3.505" y2="26.46" xlink:href="#a" gradientUnits="userSpaceOnUse" gradientTransform="matrix(.627 0 0 .693 -4.127 -.679)"/><linearGradient id="b"><stop offset="0" stop-color="#2e3436"/><stop offset="1" stop-color="#2e3436" stop-opacity="0"/></linearGradient><linearGradient id="f" x1="10.276" x2="14.832" y1="35.035" y2="37.582" xlink:href="#b" gradientUnits="userSpaceOnUse" gradientTransform="matrix(.83 .08 -.08 .83 2.592 -11.32)"/><linearGradient id="c"><stop offset="0" stop-color="#fff"/><stop offset="1" stop-color="#8e8e8e"/></linearGradient><radialGradient id="e" cx="3.299" cy="3.416" r="2.751" xlink:href="#c" fx="3.299" fy="3.416" gradientUnits="userSpaceOnUse"/><linearGradient x1="13.697" x2="13.697" y1="6.887" y2="1.744" xlink:href="#d" gradientUnits="userSpaceOnUse" gradientTransform="matrix(.952 0 0 1.113 -1.145 -.473)"/><linearGradient><stop offset="0" stop-color="#ef2929"/><stop offset="1" stop-color="#f57900"/></linearGradient><linearGradient id="d"><stop offset="0" stop-color="#dfeaa1"/><stop offset="1" stop-color="#9db029"/></linearGradient><linearGradient x1="13.697" x2="13.697" y1="6.887" y2="1.744" xlink:href="#d" gradientUnits="userSpaceOnUse" gradientTransform="matrix(.625 0 0 .638 -.648 .021)"/><linearGradient x1="13.697" x2="13.697" y1="6.887" y2="1.744" xlink:href="#d" gradientUnits="userSpaceOnUse" gradientTransform="matrix(.625 0 0 .638 20.28 22.163)"/><linearGradient x1="13.697" x2="13.697" y1="6.887" y2="1.744" xlink:href="#d" gradientUnits="userSpaceOnUse" gradientTransform="matrix(1.01 0 0 1.181 23.479 7.845)"/><linearGradient x1="13.697" x2="13.697" y1="6.887" y2="1.744" xlink:href="#d" gradientUnits="userSpaceOnUse" gradientTransform="matrix(.952 0 0 1.113 -1.145 -.473)"/><radialGradient id="h" cx="3.299" cy="3.416" r="2.751" xlink:href="#c" gradientUnits="userSpaceOnUse" fx="3.299" fy="3.416"/><linearGradient id="i" x1="10.276" x2="14.832" y1="35.035" y2="37.582" xlink:href="#b" gradientUnits="userSpaceOnUse" gradientTransform="matrix(.83 .08 -.08 .83 27.258 10.775)"/><linearGradient id="j" x1="23.201" x2="22.741" y1="3.505" y2="26.46" xlink:href="#a" gradientUnits="userSpaceOnUse" gradientTransform="matrix(.627 0 0 .693 20.54 21.416)"/><radialGradient id="k" cx="3.299" cy="3.416" r="2.751" xlink:href="#c" gradientUnits="userSpaceOnUse" fx="3.299" fy="3.416"/><linearGradient id="l" x1="10.276" x2="14.832" y1="35.035" y2="37.582" xlink:href="#b" gradientUnits="userSpaceOnUse" gradientTransform="matrix(.83 .08 -.08 .83 18.608 -4.356)"/><linearGradient id="m" x1="23.201" x2="22.741" y1="3.505" y2="26.46" xlink:href="#a" gradientUnits="userSpaceOnUse" gradientTransform="matrix(.627 0 0 .693 11.889 6.285)"/></defs><g><path fill="url(#e)" fill-rule="evenodd" stroke="#2e3436" stroke-width=".575" d="M6.25 3.9a2.36 2.36 0 1 1-4.72 0 2.36 2.36 0 1 1 4.72 0z" transform="matrix(2.608 0 0 2.608 -3.168 8.922)" color="#000" stroke-linecap="round" overflow="visible"/><path fill="url(#f)" fill-rule="evenodd" d="M7.05 19.8c2.73.95 4 3.3 4 3.3.87-.86 1.6-1.8 1.5-3-1.06-.73-2.78-1.4-4.12-1.5l-1.38 1.2z"/><path fill="url(#g)" fill-rule="evenodd" stroke="#2e3436" stroke-width="1.186" d="M4.16.74V12.9h4.86L7.48 19l10.08-6.1h5.1V.74z" color="#000" stroke-linejoin="round" overflow="visible"/><path fill="none" stroke="#fff" stroke-width=".791" stroke-miterlimit="6" d="M5.04 1.7v10.24h6.14l-1.9 4.73 7.92-4.73h4.55V1.7z" color="#000" overflow="visible"/><path fill="url(#h)" fill-rule="evenodd" stroke="#2e3436" stroke-width=".575" d="M6.25 3.9a2.36 2.36 0 1 1-4.72 0 2.36 2.36 0 1 1 4.72 0z" transform="matrix(2.608 0 0 2.608 21.498 31.017)" color="#000" stroke-linecap="round" overflow="visible"/><path fill="url(#i)" fill-rule="evenodd" d="M31.72 41.9c2.73.94 3.98 3.3 3.98 3.3.9-.86 1.6-1.8 1.5-3-1.04-.73-2.76-1.4-4.1-1.5l-1.38 1.2z"/><path fill="url(#j)" fill-rule="evenodd" stroke="#2e3436" stroke-width="1.186" d="M28.83 22.84V35h4.86l-1.55 6.1L42.23 35h5.1V22.83z" color="#000" stroke-linejoin="round" overflow="visible"/><path fill="none" stroke="#fff" stroke-width=".791" stroke-miterlimit="6" d="M29.7 23.8v10.23h6.15l-1.92 4.74 7.94-4.74h4.55V23.8z" color="#000" overflow="visible"/><path fill="url(#k)" fill-rule="evenodd" stroke="#2e3436" stroke-width=".575" d="M6.25 3.9a2.36 2.36 0 1 1-4.72 0 2.36 2.36 0 1 1 4.72 0z" transform="matrix(2.608 0 0 2.608 12.848 15.886)" color="#000" stroke-linecap="round" overflow="visible"/><path fill="url(#l)" fill-rule="evenodd" d="M23.07 26.77c2.73.94 3.98 3.3 3.98 3.3.9-.87 1.6-1.8 1.5-3-1.04-.73-2.76-1.4-4.1-1.5l-1.38 1.2z"/><path fill="url(#m)" fill-rule="evenodd" stroke="#2e3436" stroke-width="1.186" d="M20.18 7.7v12.16h4.86l-1.54 6.1 10.08-6.1h5.1V7.7z" color="#000" stroke-linejoin="round" overflow="visible"/><path fill="none" stroke="#fff" stroke-width=".791" stroke-miterlimit="6" d="M21.05 8.67V18.9h6.15l-1.92 4.73 7.94-4.73h4.55V8.67z" color="#000" overflow="visible"/><text x="9.905" y="8.952" style="line-height:125%;-inkscape-font-specification:Tahoma;text-align:start" font-size="12" letter-spacing="0" word-spacing="0" font-family="Tahoma" writing-mode="lr"/><g style="line-height:125%" font-size="40" letter-spacing="0" word-spacing="0" font-family="Sans"><path d="M14.46 11.47H13.3v-7.4c-.28.26-.65.53-1.1.8-.46.26-.86.46-1.23.6V4.33c.65-.3 1.22-.68 1.7-1.1.5-.45.84-.87 1.04-1.28h.76z"/></g><g style="line-height:125%" font-size="40" letter-spacing="0" word-spacing="0" font-family="Sans"><path d="M32.63 17.46v1.12h-6.26c0-.28.04-.55.14-.8.17-.44.42-.86.77-1.27.35-.4.86-.88 1.52-1.43 1.02-.84 1.72-1.5 2.08-2 .36-.5.55-.96.55-1.4 0-.46-.17-.85-.5-1.17-.33-.32-.76-.47-1.3-.47-.55 0-1 .16-1.33.5-.34.34-.5.8-.5 1.4l-1.2-.13c.07-.9.38-1.57.92-2.04.53-.46 1.25-.7 2.15-.7.9 0 1.63.25 2.16.76.53.5.8 1.13.8 1.87 0 .37-.1.74-.24 1.1-.17.38-.42.76-.78 1.17-.36.4-.96.96-1.8 1.66-.7.6-1.14 1-1.34 1.2-.2.2-.36.42-.5.63z"/></g><g style="line-height:125%" font-size="40" letter-spacing="0" word-spacing="0" font-family="Sans"><path d="M35.06 31.58l1.17-.16c.13.66.36 1.14.68 1.43.33.3.72.43 1.18.43.55 0 1-.2 1.4-.57.37-.37.55-.84.55-1.4 0-.53-.17-.97-.52-1.32-.34-.34-.78-.52-1.32-.52-.22 0-.5.05-.82.13l.13-1.03c.07 0 .13 0 .18 0 .5 0 .94-.12 1.33-.37.4-.26.6-.66.6-1.2 0-.43-.14-.78-.43-1.06-.28-.28-.66-.42-1.1-.42-.47 0-.84.14-1.14.43-.3.28-.5.7-.6 1.28l-1.15-.2c.14-.8.47-1.4.97-1.82.5-.42 1.13-.64 1.88-.64.52 0 1 .12 1.43.34.43.22.77.52 1 .9.23.4.34.8.34 1.23 0 .4-.1.78-.33 1.1-.22.35-.54.62-.97.82.56.13 1 .4 1.3.8.3.4.47.92.47 1.53 0 .83-.3 1.53-.9 2.1-.6.58-1.37.87-2.3.87-.83 0-1.52-.25-2.07-.75-.54-.5-.86-1.14-.94-1.92z"/></g></g></svg>