<svg xmlns="http://www.w3.org/2000/svg" width="48" height="48" xmlns:xlink="http://www.w3.org/1999/xlink"><defs><linearGradient><stop offset="0" stop-color="#fedba7"/><stop offset="1" stop-color="#fdbf64"/></linearGradient><linearGradient id="a"><stop offset="0" stop-color="#ffde57"/><stop offset="1" stop-color="#f60"/></linearGradient><radialGradient cx="-4.789" cy="-4.426" r="21.26" xlink:href="#a" gradientUnits="userSpaceOnUse" gradientTransform="matrix(.684 .599 -.659 .752 -4.432 1.772)" fx="-4.789" fy="-4.426"/><radialGradient cx="-4.789" cy="-4.426" r="21.26" xlink:href="#a" gradientUnits="userSpaceOnUse" gradientTransform="matrix(.684 .599 -.659 .752 -4.432 1.772)" fx="-4.789" fy="-4.426"/><radialGradient cx="-4.789" cy="-4.426" r="21.26" xlink:href="#a" gradientUnits="userSpaceOnUse" gradientTransform="matrix(.684 .599 -.659 .752 -4.432 1.772)" fx="-4.789" fy="-4.426"/><radialGradient id="b" cx="-4.789" cy="-4.426" r="21.26" xlink:href="#a" gradientUnits="userSpaceOnUse" gradientTransform="matrix(.67 -.764 .841 .737 24.002 32.749)" fx="-4.789" fy="-4.426"/></defs><g stroke-linejoin="round"><g fill-rule="evenodd" stroke="#000" stroke-width=".45"><path fill="#2e2e2e" d="M19.6 47.54l-13.16-7.8 9.04 1.94 4.13 5.86z"/><path fill="#6d6d6d" d="M6.33 39.8l1.32-9.33-6.93-4.74 5.6 14.08z"/><path fill="#7a7a7a" d="M.65 25.57l4.5-8.5-1.08-5.82L.65 25.57z"/><path fill="#767676" d="M4 11.4l9.33-5.68L15.2 2.3 4 11.4z"/><path fill="#7a7a7a" d="M15.05 2.14l-1.8 3.58L24.8.58l-9.73 1.56z"/><path fill="#7f7f7f" d="M24.54.43l3.35 7 9.64-2.72-13-4.27z"/><path fill="#4a4a4a" d="M37.78 4.7L41.43 16l4.9-1.4-8.55-9.9z"/><path fill="#313131" d="M46.34 14.44l-4.98 1.7 6.3 11.22-1.32-12.92z"/><path d="M47.66 27.05l-3.2 9.42-3.26 3.1 6.46-12.52z"/><path d="M41.28 39.43l-7.47 6.6-4.5-2.48 11.98-4.12z"/><path d="M33.8 46.12l-14.47 1.56 10.2-4.13 4.28 2.57z"/><path fill="#6e6e6e" d="M15.75 41.76l-9.42-2.1 1.55-9.58 7.87 11.68z"/><path fill="#929292" d="M7.8 30.32l-7-4.98L5.32 17l2.5 13.32z"/><path fill="#979797" d="M5.24 16.93l-1.17-5.68 9.5-5.6-8.33 11.28z"/><path fill="#a3a3a3" d="M13.64 5.5l14.4 1.93L24.8.35 13.64 5.5z"/><path fill="#7f7f7f" d="M27.8 7.2L41.6 16 37.7 4.55 27.8 7.2z"/><path fill="#505050" d="M41.36 15.84l6.38 11.3-9.58 4.35 3.2-15.66z"/><path fill="#2d2d2d" d="M38.16 31.33l3.43 7.94 6.06-12.07-9.5 4.13z"/><path fill="#414141" d="M38.1 31.56l3.57 7.8-12.46 4.58 8.9-12.38z"/><path fill="#303030" d="M29.52 43.78L15.6 41.6l4.27 6 9.65-3.82z"/><path fill="#737373" d="M15.6 41.76l7.07-9.1 6.62 10.9-13.7-1.8z"/><path fill="#999" d="M15.67 41.6L7.73 30.16l15.1 2.57-7.16 8.87z"/><path fill="#c7c7c7" d="M7.73 30.16L5.23 16.7l10.98.93-8.47 12.53z"/><path fill="#cdcdcd" d="M16.2 17.63l-2.87-12 14.95 1.72L16.2 17.63z"/><path fill="#f0f0f0" d="M16.14 17.55l-8.4 12.6 15.32 2.58-6.92-15.18z"/><path fill="#a4a4a4" d="M22.75 32.8l15.4-1.3-8.08-11.22-7.32 12.53z"/><path fill="#9f9f9f" d="M30.15 20.28l11.36-4.44-13.77-8.72 2.42 13.16z"/><path fill="#fff" d="M30.22 20.35L16.06 17.7 28.28 7.36l1.94 13z"/><path fill="#c0c0c0" d="M13.37 5.6l-8.1 11.2 11.14.8-3.03-12z"/><path fill="#fff" d="M30.48 20.2l-14.44-2.6 6.6 15.22 7.84-12.62z"/><path fill="#757575" d="M22.6 32.73l15.5-1.32-8.65 12.3-6.85-10.97z"/><path fill="#868686" d="M38 31.45l-7.7-11.3 11.37-4.35L38 31.45z"/></g><path fill="url(#b)" fill-rule="evenodd" stroke="#ed6900" stroke-width=".5" d="M47.66 27.1l-3.24 9.23-2.86 2.86-8.02 6.97-14.4 1.42-12.92-7.82-5.56-14.2 6.88 4.78 14.75 2.18 15.56-1.06 9.8-4.4z" color="#000" overflow="visible"/><path fill="none" stroke="#ed6900" stroke-width=".5" d="M6.08 39.8l1.6-9.74-7-4.75 5.4 14.5z"/><path fill="none" stroke="#ed6900" stroke-width=".5" d="M47.4 27.05l-3.18 9.42-3.27 3.1 6.46-12.52z"/><path fill="none" stroke="#ed6900" stroke-width=".5" d="M41.03 39.43l-7.47 6.6-4.52-2.48 12-4.12z"/><path fill="none" stroke="#ed6900" stroke-width=".5" d="M33.56 46.12l-14.48 1.56 10.2-4.13 4.28 2.57z"/><path fill="none" stroke="#ed6900" stroke-width=".5" d="M15.5 41.76l-9.42-2.1 1.56-9.58 7.86 11.68z"/><path fill="none" stroke="#ed6900" stroke-width=".5" d="M37.92 31.33l3.42 7.94L47.4 27.2l-9.48 4.13z"/><path fill="none" stroke="#ed6900" stroke-width=".5" d="M37.84 31.56l3.58 7.8-12.45 4.58 8.87-12.38z"/><path fill="none" stroke="#ed6900" stroke-width=".5" d="M29.28 43.78L15.34 41.6l4.3 6 9.64-3.82z"/><path fill="none" stroke="#ed6900" stroke-width=".5" d="M15.34 41.76l7.1-9.1 6.6 10.9-13.7-1.8z"/><path fill="none" stroke="#ed6900" stroke-width=".5" d="M15.42 41.6L7.48 30.16l15.1 2.57-7.16 8.87z"/><path fill="none" stroke="#ed6900" stroke-width=".5" d="M22.35 32.73l15.5-1.32-8.65 12.3-6.85-10.97z"/><path fill="none" stroke="#000" d="M6.23 40.08L.63 25.65 4.1 11.33 15.2 2.3 24.77.74l12.85 3.9 8.62 9.65 1.26 13.06-3.14 9.2-2.97 2.95-7.2 6.13-15.05 1.82-12.9-7.37z"/></g></svg>