<svg xmlns="http://www.w3.org/2000/svg" width="48" height="48" xmlns:xlink="http://www.w3.org/1999/xlink"><defs><radialGradient id="m" cx="605.714" cy="486.648" r="117.143" xlink:href="#a" gradientUnits="userSpaceOnUse" gradientTransform="matrix(-2.774 0 0 1.97 112.762 -872.885)" fx="605.714" fy="486.648"/><linearGradient id="a"><stop offset="0"/><stop offset="1" stop-opacity="0"/></linearGradient><radialGradient id="l" cx="605.714" cy="486.648" r="117.143" xlink:href="#a" gradientUnits="userSpaceOnUse" gradientTransform="matrix(2.774 0 0 1.97 -1891.633 -872.885)" fx="605.714" fy="486.648"/><linearGradient id="b"><stop offset="0" stop-opacity="0"/><stop offset=".5"/><stop offset="1" stop-opacity="0"/></linearGradient><linearGradient id="k" x1="302.857" x2="302.857" y1="366.648" y2="609.505" xlink:href="#b" gradientUnits="userSpaceOnUse" gradientTransform="matrix(2.774 0 0 1.97 -1892.179 -872.885)"/><linearGradient id="j"><stop offset="0" stop-color="#fff"/><stop offset=".5" stop-color="#e6e6e6"/><stop offset=".75" stop-color="#fff"/><stop offset=".842" stop-color="#e1e1e1"/><stop offset="1" stop-color="#fff"/></linearGradient><linearGradient id="i"><stop offset="0" stop-color="#fff" stop-opacity=".255"/><stop offset="1" stop-color="#fff"/></linearGradient><linearGradient id="h"><stop offset="0"/><stop offset="1" stop-opacity="0"/></linearGradient><linearGradient id="g"><stop offset="0" stop-color="#fff"/><stop offset="1" stop-color="#fff" stop-opacity="0"/></linearGradient><linearGradient id="f"><stop offset="0" stop-color="#e4e4e4"/><stop offset="1" stop-color="#d3d3d3"/></linearGradient><linearGradient id="e"><stop offset="0" stop-color="#eee"/><stop offset="1" stop-color="#eee" stop-opacity="0"/></linearGradient><linearGradient id="d"><stop offset="0" stop-color="#bbb"/><stop offset="1" stop-color="#9f9f9f"/></linearGradient><linearGradient id="c"><stop offset="0" stop-color="#838383"/><stop offset="1" stop-color="#bbb" stop-opacity="0"/></linearGradient><linearGradient id="p" x1="7.063" x2="24.688" y1="35.281" y2="35.281" gradientTransform="translate(.795 -1.326)" gradientUnits="userSpaceOnUse" xlink:href="#c"/><linearGradient id="n" x1="7.605" x2="36.183" y1="28.481" y2="40.944" gradientUnits="userSpaceOnUse" xlink:href="#d"/><linearGradient id="q" x1="12.277" x2="12.222" y1="37.206" y2="33.759" gradientUnits="userSpaceOnUse" xlink:href="#e"/><radialGradient id="o" cx="15.571" cy="2.959" r="20.936" gradientUnits="userSpaceOnUse" gradientTransform="matrix(1.286 .782 -.711 1.17 -2.354 -4.877)" fy="2.959" fx="15.571" xlink:href="#f"/><linearGradient id="s" x1="12.378" x2="44.096" y1="4.433" y2="47.621" gradientUnits="userSpaceOnUse" xlink:href="#g"/><radialGradient cx="23.202" cy="27.096" r="23.555" gradientUnits="userSpaceOnUse" gradientTransform="matrix(1 0 0 .651 0 9.456)" fy="27.096" fx="23.202" xlink:href="#h"/><linearGradient id="r" x1="23.688" x2="23.688" y1="11.319" y2="26.357" gradientUnits="userSpaceOnUse" xlink:href="#i"/><linearGradient id="t" x1="33.431" x2="21.748" y1="31.965" y2="11.781" xlink:href="#j" gradientUnits="userSpaceOnUse"/></defs><g><g color="#000"><path fill="url(#k)" d="M-1559.25-150.7h1339.63v478.36h-1339.63z" opacity=".402" overflow="visible" transform="matrix(.025 0 0 .021 45.691 36.154)"/><path fill="url(#l)" d="M-219.62-150.68s0 478.33 0 478.33c142.88.9 345.4-107.17 345.4-239.2 0-132.02-159.44-239.13-345.4-239.13z" opacity=".402" overflow="visible" transform="matrix(.025 0 0 .021 45.691 36.154)"/><path fill="url(#m)" d="M-1559.25-150.68s0 478.33 0 478.33c-142.88.9-345.4-107.17-345.4-239.2 0-132.02 159.43-239.13 345.4-239.13z" opacity=".402" overflow="visible" transform="matrix(.025 0 0 .021 45.691 36.154)"/></g><path fill="none" stroke="#535353" stroke-width="2" d="M11.3 7.96c-.64 0-1.05.3-1.3.85 0 0-6.46 17.1-6.46 17.1s-.25.68-.25 1.8c0 0 0 9.64 0 9.64 0 1.08.64 1.63 1.64 1.63H43.5c1 0 1.6-.72 1.6-1.85v-9.65s.1-.77-.1-1.3l-6.7-17.2c-.2-.52-.65-1-1.14-1H11.3z" stroke-linejoin="round" stroke-linecap="round"/><path fill="url(#n)" fill-rule="evenodd" d="M3.27 27l.77-.7 37.6.07 3.47.3v10.45c0 1.13-.6 1.85-1.58 1.85H4.94c-1 0-1.67-.55-1.67-1.63V27z"/><path fill="url(#o)" fill-rule="evenodd" d="M3.55 25.9c-.72 1.48 0 2.4 1.03 2.4 0 0 39 0 39 0 1.12-.02 1.85-1 1.43-2.14l-6.7-17.2c-.2-.52-.66-1-1.14-1H11.3c-.63 0-1.04.3-1.3.85 0 0-6.45 17.1-6.45 17.1z"/><path fill="url(#p)" fill-rule="evenodd" d="M7.86 31.17h17.62v5.57H7.86z" color="#000" overflow="visible"/><path fill="url(#q)" fill-rule="evenodd" d="M7.86 36.74s0-4 0-4c1.83 3.16 8.3 4 12.94 4 0 0-12.94 0-12.94 0z" opacity=".811"/><path fill="#fff" fill-rule="evenodd" d="M44.8 25.63c.06 1.25-.42 2.3-1.33 2.34 0 0-38.1 0-38.1 0-1.3 0-1.88-.32-2.1-.87.1.95.83 1.65 2.1 1.65 0 0 38.1 0 38.1 0 1.08-.03 1.76-1.42 1.36-3l-.03-.12z"/><path fill="url(#r)" fill-rule="evenodd" d="M10.97 10.16c-.05.2-.2.38-.2.6 0 .94.6 1.78 1.36 2.58.24-.15.36-.35.62-.5-.94-.8-1.55-1.7-1.78-2.68zm26.66 0c-.23.97-.85 1.87-1.8 2.68.3.16.42.37.67.54.76-.8 1.3-1.68 1.3-2.63 0-.2-.13-.4-.17-.6zm2.18 8.43c-.6 4.03-7.3 7.24-15.52 7.24-8.2 0-14.86-3.2-15.5-7.2-.03.18-.12.38-.12.58 0 4.32 7 7.84 15.62 7.84 8.64 0 15.66-3.52 15.66-7.84 0-.2-.1-.42-.13-.63z" opacity=".691" color="#000" overflow="visible"/><path fill="#fff" fill-opacity=".458" fill-rule="evenodd" d="M8.66 25.77a1.37 1.02 0 1 1-2.74 0 1.37 1.02 0 1 1 2.74 0z" color="#000" overflow="visible"/><path fill="#fff" fill-opacity=".458" fill-rule="evenodd" d="M42.54 25.68a1.37 1.02 0 1 1-2.74 0 1.37 1.02 0 1 1 2.74 0z" color="#000" overflow="visible"/><path fill="none" stroke="url(#s)" d="M11.64 8.42c-.6 0-1 .28-1.23.8 0 0-6.4 16.6-6.4 16.6s-.25.65-.25 1.7c0 0 0 9.3 0 9.3 0 1.36.45 1.63 1.6 1.63h37.68c1.33 0 1.54-.32 1.54-1.84v-9.28s.1-.74-.1-1.26L37.9 9.26c-.2-.5-.57-.83-1.03-.84H11.64z" stroke-linecap="round" stroke-linejoin="round"/><path fill="none" stroke="#fff" stroke-opacity=".424" d="M40.5 31.43v5.02" stroke-linecap="square"/><path fill="none" stroke="#fff" stroke-opacity=".424" d="M38.5 31.5v5" stroke-linecap="square"/><path fill="none" stroke="#fff" stroke-opacity=".424" d="M36.5 31.5v5" stroke-linecap="square"/><path fill="none" stroke="#fff" stroke-opacity=".424" d="M34.5 31.5v5" stroke-linecap="square"/><path fill="none" stroke="#fff" stroke-opacity=".424" d="M32.5 31.5v5" stroke-linecap="square"/><path fill="none" stroke="#fff" stroke-opacity=".424" d="M30.5 31.5v5" stroke-linecap="square"/><path fill="none" stroke="#000" d="M39.5 31.48v5.02" opacity=".097" stroke-linecap="square"/><path fill="none" stroke="#000" d="M37.5 31.54v5.02" opacity=".097" stroke-linecap="square"/><path fill="none" stroke="#000" d="M35.5 31.54v5.02" opacity=".097" stroke-linecap="square"/><path fill="none" stroke="#000" d="M33.5 31.54v5.02" opacity=".097" stroke-linecap="square"/><path fill="none" stroke="#000" d="M31.5 31.54v5.02" opacity=".097" stroke-linecap="square"/><path fill="#fff" fill-rule="evenodd" d="M7.88 31.2v5.52h12.56l-12.22-.34-.35-5.2z" opacity=".44"/><path fill="url(#t)" fill-rule="evenodd" d="M39.88 19.56a14.88 6.7 0 1 1-29.76 0 14.88 6.7 0 1 1 29.76 0z" transform="matrix(1.038 0 0 1.061 -1.633 -2.095)" opacity=".206" color="#000" overflow="visible"/></g></svg>