<svg xmlns="http://www.w3.org/2000/svg" width="48" height="48"><defs><marker orient="auto" overflow="visible"><path fill-rule="evenodd" stroke="#000" stroke-width=".8pt" d="M-10 0l-4 4L0 0l-14-4 4 4z"/></marker></defs><g><path fill="none" stroke="#ed2728" stroke-width="3" d="M13.08 22.5c7.35-4.24 14.98-3.75 22.7 0"/><path fill="none" stroke="#a40000" stroke-width="2" d="M11.9 22.83l5.38-8.22"/><path fill="#ef2929" stroke="#a40000" stroke-width=".61.638" d="M20.1 8.9l.26 7.2-6.38-3.34L20.1 8.9z" color="#000" overflow="visible"/><path fill="none" stroke="#000" stroke-width="3" d="M1.14 40.9C3.97 30.86 8 26.43 12.18 23"/><g><path fill="#ed2728" stroke="#ed2728" stroke-width="4" d="M11.4 22.1h1.1v1.1h-1.1z"/><path stroke="#000" stroke-width="2.5" d="M11.47 22.28h1v1h-1z"/></g><path fill="none" stroke="#a40000" stroke-width="2" d="M36.26 22.78l-5.37-8.22"/><path fill="none" stroke="#000" stroke-width="3" d="M47.08 41.23c-2.83-10.04-6.85-14.47-11.04-17.9"/><path fill="#ef2929" stroke="#a40000" stroke-width=".61.638" d="M28.38 9.15l-.25 7.18L34.5 13l-6.12-3.85z" color="#000" overflow="visible"/><g><path fill="#ed2728" stroke="#ed2728" stroke-width="4" d="M36.8 22.44h-1.07v1.08h1.08z"/><path stroke="#000" stroke-width="2.5" d="M36.76 22.62h-1v1h1z"/></g></g></svg>