<svg xmlns="http://www.w3.org/2000/svg" width="48" height="48" xmlns:xlink="http://www.w3.org/1999/xlink"><defs><linearGradient id="d"><stop offset="0" stop-color="#fff"/><stop offset="1" stop-color="#fff" stop-opacity="0"/></linearGradient><linearGradient id="c"><stop offset="0"/><stop offset=".358" stop-opacity="0"/><stop offset=".66" stop-opacity="0"/><stop offset="1"/></linearGradient><linearGradient id="a"><stop offset="0" stop-color="#1a65d1"/><stop offset=".25" stop-color="#74aaf7"/><stop offset=".75" stop-color="#74aaf7"/><stop offset="1" stop-color="#1a65d1"/></linearGradient><radialGradient id="b" cx="309.748" cy="439.215" r="24.293" gradientUnits="userSpaceOnUse" fy="439.215" fx="309.748" gradientTransform="matrix(1.041 0 0 1.041 -251.997 -439.278)"><stop offset="0" stop-color="#fff"/><stop offset="1" stop-color="#6fb7ff"/></radialGradient><linearGradient id="f" x1="8.781" x2="10.81" y1="29.236" y2="43.273" xlink:href="#a" gradientUnits="userSpaceOnUse" gradientTransform="matrix(.866 0 0 .865 5.617 -10.96)"/><radialGradient id="g" cx="25.567" cy="40.914" r="20.063" xlink:href="#b" fx="25.567" fy="40.914" gradientTransform="matrix(1.077 -.204 .151 .797 -6.091 -3.006)" gradientUnits="userSpaceOnUse"/><linearGradient id="e" x1="2.5" x2="5.429" y1="25.679" y2="42.929" xlink:href="#c" gradientUnits="userSpaceOnUse"/><linearGradient x1="31.214" x2="23.929" y1="37.643" y2="27.571" xlink:href="#d" gradientUnits="userSpaceOnUse" gradientTransform="translate(-.929 -.429)"/><linearGradient x1="31.214" x2="23.929" y1="37.643" y2="27.571" xlink:href="#d" gradientUnits="userSpaceOnUse" gradientTransform="translate(9.929 -3.321)"/><linearGradient x1="31.214" x2="23.929" y1="37.643" y2="27.571" xlink:href="#d" gradientUnits="userSpaceOnUse" gradientTransform="matrix(.998 .066 -.066 .998 5.718 -5.108)"/><linearGradient x1="31" x2="27.357" y1="32.571" y2="24.714" xlink:href="#d" gradientUnits="userSpaceOnUse" gradientTransform="translate(-.929 -.429)"/><linearGradient x1="31" x2="27.357" y1="32.571" y2="24.714" xlink:href="#d" gradientUnits="userSpaceOnUse" gradientTransform="matrix(.993 -.115 .115 .993 .931 5.152)"/></defs><g><path fill="url(#e)" fill-rule="evenodd" d="M.43 26.36l27.5 12.5L47.5 34l-35.43-9.8L.43 26.37z"/><g fill="#edd400" fill-rule="evenodd"><path stroke="#c4a000" stroke-width=".72.393" d="M7.85 28.45c0-1.54-1.66-2.5-3-1.73-.62.36-1 1.02-1 1.73 0 1.54 1.67 2.5 3 1.74.62-.37 1-1.03 1-1.75z" overflow="visible" enable-background="accumulate"/><path stroke="#c4a000" d="M5.94 34.75l-2.42-3.9h4.8l-2.38 3.9z"/><path stroke="#edd400" d="M5.84 29.42v2.12"/></g><path fill="#6fb7ff" fill-rule="evenodd" stroke="#173662" stroke-width=".75" d="M11.48 24.5L.36 26.1c1.82 1.7 4.57 1.67 6.46 1.1l1.78-1.3 2.88-1.4z"/><path fill="url(#f)" fill-rule="evenodd" stroke="#173662" stroke-width=".75" d="M17.84 25.58l-11.1 1.65c3.44-1.87 4.05-15.27 7.5-14.07l18.6-1.1-15 13.52z"/><g fill="#edd400" fill-rule="evenodd"><path stroke="#c4a000" stroke-width="3" d="M11.86 24.36v4.2" stroke-linecap="square"/><path stroke="#c4a000" stroke-width=".72.393" d="M13.82 24.18c0-1.54-1.67-2.5-3-1.74-.62.36-1 1.02-1 1.74 0 1.54 1.67 2.5 3 1.73.62-.35 1-1 1-1.72z" overflow="visible" enable-background="accumulate"/><path stroke="#c4a000" d="M11.9 32.45l-2.42-3.9h4.8l-2.37 3.9z"/><path stroke="#edd400" d="M11.8 24.98v4.2"/></g><g fill="#edd400" fill-rule="evenodd"><path stroke="#c4a000" stroke-width="3" d="M15.36 16.96v5.1" stroke-linecap="square"/><path stroke="#c4a000" stroke-width=".72.393" d="M13.4 16.5a2 2 180 1 1 4 0 2 2 180 1 1-4 0z" overflow="visible" enable-background="accumulate"/><path stroke="#c4a000" d="M15.3 27.5l2.44-3.9h-4.8l2.37 3.9z"/><path stroke="#edd400" d="M15.4 17.72v6.67"/></g><path fill="url(#g)" fill-rule="evenodd" stroke="#173662" stroke-width=".75" d="M33.15 12.04l-19 1.2c5.95 1.46.98 20.14 13.9 25.56l19.15-4.68c-12.3-2.93-8.07-21.26-14.05-22.08z"/><path fill="none" stroke="#c4a000" stroke-width="3" d="M19.52 15.1V10" stroke-linecap="square"/><path fill="#fce94f" fill-rule="evenodd" stroke="#c4a000" stroke-width=".72.393" d="M21.48 15.55a2 2 0 1 1-4 0 2 2 0 1 1 4 0z" overflow="visible" enable-background="accumulate"/><path fill="#fce94f" fill-rule="evenodd" stroke="#c4a000" d="M19.57 4.55l-2.42 3.9h4.8l-2.38-3.9z"/><path fill="none" stroke="#fce94f" d="M19.47 14.33V7.67"/><path fill="none" stroke="#c4a000" stroke-width="3" d="M26.23 14.52v-5.1" stroke-linecap="square"/><path fill="#fce94f" fill-rule="evenodd" stroke="#c4a000" stroke-width=".72.393" d="M28.18 14.97a2 2 0 1 1-4 0 2 2 0 1 1 4 0z" overflow="visible" enable-background="accumulate"/><path fill="#fce94f" fill-rule="evenodd" stroke="#c4a000" d="M26.28 3.97l-2.43 3.9h4.8l-2.37-3.9z"/><path fill="none" stroke="#fce94f" d="M26.17 13.75V7.1"/><path fill="none" stroke="#c4a000" stroke-width="3" d="M32.75 13.96v-5.1" stroke-linecap="square"/><path fill="#fce94f" fill-rule="evenodd" stroke="#c4a000" stroke-width=".72.393" d="M34.7 14.4a2 2 0 1 1-4 0 2 2 0 1 1 4 0z" overflow="visible" enable-background="accumulate"/><path fill="#fce94f" fill-rule="evenodd" stroke="#c4a000" d="M32.8 3.4l-2.43 3.9h4.8L32.8 3.4z"/><path fill="none" stroke="#fce94f" d="M32.7 13.2V6.53"/><path fill="none" stroke="#c4a000" stroke-width="3" d="M22.5 26.36v-4.44" stroke-linecap="square"/><path fill="#fce94f" fill-rule="evenodd" stroke="#c4a000" stroke-width=".72.393" d="M24.45 26.6a2 2 0 1 1-4 0 2 2 0 1 1 4 0z" overflow="visible" enable-background="accumulate"/><path fill="#fce94f" fill-rule="evenodd" stroke="#c4a000" d="M22.55 18.35l-2.43 3.9h4.8l-2.37-3.9z"/><path fill="none" stroke="#fce94f" d="M22.44 25.4v-4.2"/><path fill="none" stroke="#c4a000" stroke-width="3" d="M29.1 25.33v-4.25" stroke-linecap="square"/><path fill="#fce94f" fill-rule="evenodd" stroke="#c4a000" stroke-width=".72.393" d="M31.05 25.53a2 2 0 1 1-4 0 2 2 0 1 1 4 0z" overflow="visible" enable-background="accumulate"/><path fill="#fce94f" fill-rule="evenodd" stroke="#c4a000" d="M29.15 17.26l-2.43 3.9h4.8l-2.37-3.9z"/><path fill="none" stroke="#fce94f" d="M29.05 24.53v-4.2"/><path fill="none" stroke="#c4a000" stroke-width="3" d="M35.52 24.33v-4.18" stroke-linecap="square"/><path fill="#fce94f" fill-rule="evenodd" stroke="#c4a000" stroke-width=".72.393" d="M37.48 24.52a2 2 0 1 1-4 0 2 2 0 1 1 4 0z" overflow="visible" enable-background="accumulate"/><path fill="#fce94f" fill-rule="evenodd" stroke="#c4a000" d="M35.57 16.25l-2.43 3.9h4.8l-2.37-3.9z"/><path fill="none" stroke="#fce94f" d="M35.47 23.72v-4.2"/><path fill="#fce94f" fill-rule="evenodd" stroke="#c4a000" stroke-width=".72.393" d="M31.33 35.52a2 2 0 1 1-4 0 2 2 0 1 1 4 0z" overflow="visible" enable-background="accumulate"/><path fill="#fce94f" fill-rule="evenodd" stroke="#c4a000" d="M29.42 29.22L27 33.12h4.8l-2.38-3.9z"/><path fill="none" stroke="#fce94f" d="M29.32 34.55v-2.12"/><path fill="#fce94f" fill-rule="evenodd" stroke="#c4a000" stroke-width=".72.393" d="M38.45 33.76a2 2 0 1 1-4 0 2 2 0 1 1 4 0z" overflow="visible" enable-background="accumulate"/><path fill="#fce94f" fill-rule="evenodd" stroke="#c4a000" d="M36.54 27.46l-2.42 3.9h4.8l-2.38-3.9z"/><path fill="none" stroke="#fce94f" d="M36.44 32.8v-2.13"/><path fill="#fce94f" fill-rule="evenodd" stroke="#c4a000" stroke-width=".72.393" d="M45.28 32.14a2 2 0 1 1-4 0 2 2 0 1 1 4 0z" overflow="visible" enable-background="accumulate"/><path fill="#fce94f" fill-rule="evenodd" stroke="#c4a000" d="M43.37 25.85l-2.43 3.9h4.8l-2.37-3.9z"/><path fill="none" stroke="#fce94f" d="M43.27 31.17v-2.12"/></g></svg>