<svg xmlns="http://www.w3.org/2000/svg" width="48" height="48" xmlns:xlink="http://www.w3.org/1999/xlink"><defs><linearGradient id="a"><stop offset="0" stop-color="#2e3436"/><stop offset="1" stop-color="#2e3436" stop-opacity="0"/></linearGradient><radialGradient id="b" cx="23.663" cy="23.352" r="23.102" xlink:href="#a" fx="23.663" fy="23.352" gradientTransform="matrix(1.034 0 0 .877 -.63 6.515)" gradientUnits="userSpaceOnUse"/></defs><g><path fill="url(#b)" d="M.47 21.62c10.88-2.93 19.72-8.3 28-14.37-.13 7.9 6.2 16.66 18.75 24.14-3.87 2.93-7.9 5.67-13.16 7.1L27 35.05l4.2 4.8c-5.08 3.8-10.15 4.88-15.22 6.9.24-4.4-3.3-7-6.74-9.66l4.44-4.45-5.85 2.6C6.28 30.56 4.86 25.8.47 21.63z"/><path fill="#8fa0b2" stroke="#204a87" d="M.47 17.18c10.88-2.93 19.72-8.3 28-14.37-.13 7.9 6.2 16.67 18.75 24.15-3.87 2.94-7.9 5.68-13.16 7.1L27 30.62l4.2 4.82c-5.08 3.8-10.15 4.86-15.22 6.9.24-4.42-3.3-7.02-6.74-9.67l4.44-4.44-5.85 2.62C6.28 26.1 4.86 21.36.47 17.18z"/><path fill="#abb580" stroke="#425134" d="M13.6 12.45c1.06.63 2.4 1.94 2.15 3.2-.87 1.06-.87 2.36-1.07 3.63-.32 1.2-1.6 1.82-1.95 3-.4 1.3.24 2.6 1.14 3.52.86.9 1.4 2.75 2.97 2.42 1.4-.28 2.27-1.53 2.93-2.7.27-.55.76-.9 1.3-1.02 0 0-.67-3.92.3-5.02 1.1-1.28 3.2.24 4.17-1.15 1.12-1.58-.44-3.7.63-5.33.9-1.35 4.6-1.57 4.6-1.57s-2.83 1.3-3.35 2.6c-.82 2.1 2.4 4.86 1.05 6.65-1.04 1.37-4.04-.7-5.12.63-.9 1.12.38 4.27.38 4.27.74.7 1.25 1.63 1.55 2.6.67 1.22.15 2.58.05 3.84 1.16 1.93 2.93 2.45 2.8 5.12l2.95-1.86-3.97-4.5 6.96 3.35c5.12-1.3 9.03-4.17 12.96-7.04-11.6-7.44-18.25-15.26-18.7-24.35-4.67 3.85-9.8 6.53-14.7 9.75z"/><path fill="none" stroke="#fff" stroke-opacity=".314" d="M5.53 15.77c2.9 3.93 4.9 8.23 6.12 12.85"/><path fill="none" stroke="#fff" stroke-opacity=".314" d="M12.17 30.35c3.88 2.3 6.5 5.94 8.72 10.03"/><path fill="none" stroke="#fff" stroke-opacity=".314" d="M10.13 13.94c7.16 8.2 7.5 17.36 14.37 25.34"/><path fill="none" stroke="#fff" stroke-opacity=".314" d="M14.94 11.64c2.3 7.32 7.45 13.47 12.22 19.23"/><path fill="none" stroke="#fff" stroke-opacity=".314" d="M18.75 9.4c4.8 8.76 11.4 16.47 17.82 24.3"/><path fill="none" stroke="#fff" stroke-opacity=".314" d="M23.87 6.36c4.08 9.28 11.05 17.35 18.5 24"/><path fill="none" stroke="#fff" stroke-opacity=".314" d="M3.92 20.94c8.85-3.52 17.63-7.17 25.33-12.85" color="#000" overflow="visible" enable-background="accumulate"/><path fill="none" stroke="#fff" stroke-opacity=".314" d="M6.2 26.17c8.8-3.62 17.47-7.53 25.67-12.86" color="#000" overflow="visible" enable-background="accumulate"/><path fill="none" stroke="#fff" stroke-opacity=".314" d="M13.53 28.57c1.24.53 22.76-10.02 22.2-10.55" color="#000" overflow="visible" enable-background="accumulate"/><path fill="none" stroke="#fff" stroke-opacity=".314" d="M12.33 35.15c9.64-3.87 17.64-9.38 25.96-14.57" color="#000" overflow="visible" enable-background="accumulate"/><path fill="none" stroke="#fff" stroke-opacity=".314" d="M15.46 39.07c4.33-1.85 9.36-2.85 12.7-5.95" color="#000" overflow="visible" enable-background="accumulate"/><path fill="none" stroke="#fff" stroke-opacity=".314" d="M30.92 31.9c4.34-1.84 9.36-2.84 12.7-5.94" color="#000" overflow="visible" enable-background="accumulate"/><path fill="none" stroke="#425134" d="M17.22 12.95l3.44-3.4 2.93 3.8"/><path fill="none" stroke="#425134" d="M22.07 11.83l2.35-2.22 2 2.5"/><path fill="none" stroke="#425134" d="M16.26 16.7l3.44-3.4 2.93 3.8"/><path fill="none" stroke="#425134" d="M17.15 19.18l2.1-1.94 1.78 2.17"/><path fill="none" stroke="#eeeeec" stroke-width="3" d="M2.07 18.55c5.8 3.64 10.74-1.82 14.5.5 4.35 2.7-3.58 12.74 3.08 15.06 8.04 2.8 3.53-11.54 9.4-11.96 2.7-.2 6.8 3.6 6.8 3.6"/><path fill="none" stroke="#000" stroke-width="1.5" d="M2.07 18.55c5.8 3.64 10.74-1.82 14.5.5 4.35 2.7-3.58 12.74 3.08 15.06 8.04 2.8 3.53-11.54 9.4-11.96 2.7-.2 6.8 3.6 6.8 3.6" stroke-dasharray="1.5,1.5"/><path stroke="#537335" d="M30.22 23.43l4.53.98 2-3.3 3.3.95-3.2 3.27 5.1 1.1-2.45 2.8-3.64-2-2.65 3.7-2.84-1.26 3.6-3.54-4.75-.83z"/></g></svg>