<svg xmlns="http://www.w3.org/2000/svg" width="48" height="48" xmlns:xlink="http://www.w3.org/1999/xlink"><defs><linearGradient id="e"><stop offset="0" stop-opacity=".721"/><stop offset="1" stop-opacity="0"/></linearGradient><linearGradient id="d"><stop offset="0" stop-color="#c17d11"/><stop offset="1" stop-color="#a0680e"/></linearGradient><linearGradient><stop offset="0" stop-color="#8f5902"/><stop offset="1" stop-color="#8f5902" stop-opacity="0"/></linearGradient><linearGradient id="c"><stop offset="0" stop-color="#8f5902"/><stop offset="1" stop-color="#4d3001"/></linearGradient><linearGradient id="a"><stop offset="0" stop-color="#f2d6ab"/><stop offset=".761" stop-color="#e9b96e"/><stop offset="1" stop-color="#cb881f"/></linearGradient><radialGradient id="o" cx="19.596" cy="10.713" r="11.322" xlink:href="#a" fx="19.596" fy="10.713" gradientTransform="matrix(1.301 -.014 .011 1.043 -8.225 .057)" gradientUnits="userSpaceOnUse"/><radialGradient id="r" cx="10.323" cy="11.048" r="4.316" xlink:href="#a" fx="10.323" fy="11.048" gradientTransform="matrix(1.204 -.021 .025 1.42 -5.065 -4.802)" gradientUnits="userSpaceOnUse"/><radialGradient id="j" cx="27.357" cy="5.989" r="4.316" xlink:href="#b" fx="27.357" fy="5.989" gradientTransform="matrix(1.069 -.021 .028 1.42 -1.465 -4.802)" gradientUnits="userSpaceOnUse"/><linearGradient id="b"><stop offset="0" stop-color="#f2d6ab"/><stop offset=".761" stop-color="#e9b96e"/><stop offset="1" stop-color="#cb881f"/></linearGradient><radialGradient cx="10.323" cy="11.048" r="4.316" fy="11.048" fx="10.323" gradientTransform="matrix(1.152 -.02 .024 1.359 -8.801 -10.86)" gradientUnits="userSpaceOnUse" xlink:href="#b"/><radialGradient id="p" cx="14.026" cy="24.361" r="7.094" xlink:href="#b" fx="14.026" fy="24.361" gradientTransform="matrix(1.043 .262 -.188 .748 .818 3.19)" gradientUnits="userSpaceOnUse"/><radialGradient id="m" cx="25.982" cy="27.584" r="10.892" xlink:href="#b" fx="25.982" fy="27.584" gradientTransform="matrix(1.142 -.02 .019 1.082 -6.122 -1.22)" gradientUnits="userSpaceOnUse"/><radialGradient id="g" cx="35.034" cy="18.896" r="5.08" xlink:href="#b" fx="35.034" fy="18.896" gradientTransform="matrix(1.045 0 0 1.164 -3.084 -3.035)" gradientUnits="userSpaceOnUse"/><linearGradient id="s" x1="6.83" x2="15.538" y1="11.929" y2="11.929" xlink:href="#c" gradientUnits="userSpaceOnUse" gradientTransform="matrix(1.045 0 0 1.045 -3.084 -.702)"/><linearGradient id="k" x1="26.514" x2="34.459" y1="2.545" y2="6.94" xlink:href="#c" gradientUnits="userSpaceOnUse" gradientTransform="matrix(1.045 0 0 1.045 -3.084 -.702)"/><linearGradient id="u" x1="25.083" x2="30.74" y1="14.416" y2="18.76" xlink:href="#c" gradientUnits="userSpaceOnUse" gradientTransform="matrix(1.045 0 0 1.045 -3.084 -.702)"/><linearGradient id="q" x1="11.335" x2="18.099" y1="18.826" y2="30.14" xlink:href="#c" gradientUnits="userSpaceOnUse" gradientTransform="matrix(.987 0 0 .986 -3.094 1.003)"/><linearGradient id="h" x1="36.419" x2="39.861" y1="17.718" y2="21.91" xlink:href="#c" gradientUnits="userSpaceOnUse" gradientTransform="matrix(1.045 0 0 1.045 -3.084 -.702)"/><linearGradient id="n" x1="26.651" x2="34.95" y1="26.836" y2="36.079" xlink:href="#c" gradientUnits="userSpaceOnUse" gradientTransform="matrix(1.045 0 0 1.045 -3.084 -.702)"/><radialGradient id="t" cx="26.523" cy="16.012" r="3.965" xlink:href="#d" fx="26.523" fy="16.012" gradientTransform="matrix(.973 -.381 .479 1.222 -8.846 6.581)" gradientUnits="userSpaceOnUse"/><radialGradient id="i" cx="31.54" cy="39.604" r="5.784" xlink:href="#b" fx="31.54" fy="39.604" gradientTransform="matrix(.911 -.428 .516 1.098 -19.501 8.223)" gradientUnits="userSpaceOnUse"/><radialGradient id="l" cx="21.6" cy="42.439" r="6.783" xlink:href="#b" fx="21.6" fy="42.439" gradientTransform="matrix(.961 0 0 .813 .157 6.298)" gradientUnits="userSpaceOnUse"/><radialGradient id="f" cx="23.964" cy="43.964" r="17.036" xlink:href="#e" fx="23.964" fy="43.964" gradientTransform="matrix(1 0 0 .22 0 34.287)" gradientUnits="userSpaceOnUse"/></defs><g><path fill="url(#f)" d="M41 43.96a17.04 3.75 0 1 1-34.07 0 17.04 3.75 0 1 1 34.07 0z" transform="matrix(.961 0 0 1.044 1.229 -1.72)" color="#000" overflow="visible" enable-background="accumulate"/><path fill="#e9b96e" stroke="#8f5902" stroke-width=".5" d="M14.47 33.05c-1.32.12-3.37 1.25-3.27 2.72.1 1.48 2.47 2.67 3.92 2.4 1.44-.24 2.87-2 2.6-3.3-.24-1.3-1.92-1.94-3.25-1.82z"/><path fill="url(#g)" stroke="url(#h)" stroke-width=".5" d="M29.38 18.03c.36-1.83 2.86-3.56 3.83-3.82.97-.25 2.5-.56 4.34 1.08 1.83 1.63 1.98 3.35 1.82 4.45-.17 1.1-3.17 4.9-3.9 5.45-.73.54-2.43-.73-3.82-1.82-1.4-1.08-2.62-3.5-2.26-5.33z"/><path fill="url(#i)" stroke="#8f5902" stroke-width=".5" d="M35.5 32.7c.33.94.3 2.22.15 4.3-.15 2.06-.8 4.83-.95 5.74-.14.9-1.85 1.77-3.48 1.9-1.64.12-2.93-.58-3.8-1.2-.88-.65-3.57-8-1.6-10.88 2-2.88 9.34-.77 9.67.15z"/><path fill="url(#j)" stroke="url(#k)" stroke-width=".5" d="M23.46 4.33c.2-2.77 3.72-5.44 7.07-3.27 3.35 2.16 2.63 6 .32 7.38-2.3 1.4-7.6-1.34-7.4-4.1z" color="#000" overflow="visible" enable-background="accumulate"/><path fill="url(#l)" stroke="#8f5902" stroke-width=".5" d="M15.62 36.07c-.14.8-.9 2.6-.96 3.96-.07 1.35.03 3.37.6 4.2.56.85 2.9 1.87 5.1 1.85 2.2 0 4-.27 4.44-1.04.46-.77 1.52-5.9 2.4-6.5-3.43-3.02-7.34-3.6-11.58-2.47z"/><path fill="url(#m)" stroke="url(#n)" stroke-width=".5" d="M34.12 35.93c2.08-2.93 2.33-4.22 2.37-6.17.04-1.95-1.24-5.33-2.17-6.54-1.25-1.62-2.74-3.3-4.75-3.9-2-.6-8.2-.76-10.98 1.2-2.76 1.97-3.47 5.73-4 8.4-.54 2.66-.46 4.9.36 7 .83 2.13 4.07 3.52 7.55 4.24 3.5.7 9.76-1.73 11.62-4.23z"/><path fill="url(#o)" stroke="#8f5902" stroke-width=".5" d="M11.64 20.8c-.47-.6-.9-1.5-1.32-2.33-.43-.83-1.1-5.63 0-7.92 1.6-3.32 4.3-5.73 7.07-6.38 2.75-.65 6.88-.38 9.94 1.27 2.42 1.3 4.58 4.4 4.77 5.27.2.9.98 2.7.7 4.47-.36 2.4-1.88 4.8-2.27 5.15-.4.33-2.65 1.5-4.54 2.16-1.9.66-4.63 1-7.13.84-2.5-.15-6.76-1.95-7.23-2.53z"/><path fill="url(#p)" stroke="url(#q)" stroke-width=".5" d="M16.57 22.8c-.97-.94-5.43-3.4-7.35-3.4-1.93 0-4.38 1.18-4.96 3.34-.6 2.16-.3 4.5.64 5.37.93.9 7.82 2.8 9.22 2.7 1.4-.1 2.55-1.15 3.06-3.05.5-1.9.37-4.02-.6-4.96z"/><path d="M20.5 14.57a1.77 1.77 0 1 1-3.53 0 1.77 1.77 0 1 1 3.53 0z" color="#000" overflow="visible" enable-background="accumulate"/><path d="M30.37 10.6a1.56 1.56 0 1 1-3.1 0 1.56 1.56 0 1 1 3.1 0z" color="#000" overflow="visible" enable-background="accumulate"/><path fill="#fff" d="M18.76 14.1a.82.82 0 1 1-1.63 0 .82.82 0 1 1 1.63 0z" color="#000" overflow="visible" enable-background="accumulate"/><path fill="#fff" d="M28.84 10.2a.7.7 0 1 1-1.42 0 .7.7 0 1 1 1.42 0z" color="#000" overflow="visible" enable-background="accumulate"/><path fill="url(#r)" stroke="url(#s)" stroke-width=".5" d="M12.1 7.97C10 5.6 7.03 6.9 5.63 8.44c-1.4 1.54-1.6 4.45-.95 5.65.66 1.2 3.74 3.16 5.28 2.68s4.3-6.43 2.16-8.8z"/><path fill="none" stroke="#ef2929" stroke-width="1.4" d="M30.36 38.57c.28-1.56 1.2-5.9.18-9.33-1.08-3.66-4.5-6.1-5.23-6.44" color="#000" stroke-dasharray="2.8,1.4" overflow="visible" enable-background="accumulate"/><path fill="none" stroke="#ef2929" stroke-width="1.4" stroke-dashoffset="1.12" d="M25.2 22.53c.43-1.8 1.6-5.78.58-9.85-.9-3.63-4.24-7.12-7.4-8.3" color="#000" stroke-dasharray="2.8, 1.4" overflow="visible" enable-background="accumulate"/><path fill="url(#t)" stroke="url(#u)" stroke-width=".5" d="M24.83 13.3c2.25-1.03 4.22.3 4.65 1.95.42 1.64-.04 3.95-2.27 4.8-2.2.85-4.7.2-5.22-1.63-.53-1.85.6-4.1 2.85-5.12z" color="#000" overflow="visible" enable-background="accumulate"/><path d="M27.94 14.46c.28.78-.88 1.78-2.1 1.8-.56 0-.98-.22-1.1-.6-.3-.77.88-1.77 2.1-1.78.55 0 .97.2 1.1.58z" color="#000" overflow="visible" enable-background="accumulate"/><path fill="none" stroke="#e9b96e" d="M9.95 16.94c1.97-2.46 4-4.9 2-9.13" color="#000" overflow="visible" enable-background="accumulate"/><path fill="none" stroke="#ef2929" stroke-width="1.4" d="M9.95 16.94c1.97-2.46 4-4.9 2-9.13" color="#000" stroke-dasharray="2.8,1.4" overflow="visible" enable-background="accumulate"/><path fill="none" stroke="#e9b96e" d="M14.17 30.82c2.52-.8 4.5-3.68 2.64-7.97"/><path fill="none" stroke="#ef2929" stroke-width="1.5" stroke-dashoffset="1.2" d="M14.17 30.82c2.52-.8 4.5-3.68 2.64-7.97" color="#000" stroke-dasharray="3,1.5" overflow="visible" enable-background="accumulate"/><path fill="none" stroke="#000" stroke-width=".5" d="M24 18.47c1 .64 2.46.55 2.8-2.56.8 2.4 1.66 1.9 2.3.7"/><path fill="none" stroke="#e9b96e" d="M15.14 36.7c2.9 3.4 6.9 3.68 11.15 3.3" color="#000" overflow="visible" enable-background="accumulate"/><path fill="none" stroke="#ef2929" stroke-width="1.4" stroke-dashoffset="1.12" d="M15.14 36.7c2.9 3.4 6.9 3.68 11.15 3.3" color="#000" stroke-dasharray="2.8,1.4" overflow="visible" enable-background="accumulate"/></g></svg>