<svg xmlns="http://www.w3.org/2000/svg" width="48" height="48" xmlns:xlink="http://www.w3.org/1999/xlink"><defs><linearGradient id="j"><stop offset="0" stop-color="#204a87"/><stop offset="1" stop-color="#b5d3ff"/></linearGradient><linearGradient id="i"><stop offset="0" stop-color="#babdb6"/><stop offset="1" stop-color="#8f9489"/></linearGradient><linearGradient id="h"><stop offset="0" stop-color="#a3d0ff"/><stop offset="1" stop-color="#5092ff"/></linearGradient><linearGradient id="f"><stop offset="0" stop-color="#eeeeec"/><stop offset="1" stop-color="#ccccc6"/></linearGradient><linearGradient id="d"><stop offset="0" stop-color="#eeeeec"/><stop offset="1" stop-color="#c9c9c2"/></linearGradient><linearGradient id="b"><stop offset="0" stop-color="#babdb6"/><stop offset="1" stop-color="#8b9084"/></linearGradient><linearGradient id="a"><stop offset="0" stop-color="#3e413b"/><stop offset=".294" stop-color="#7c7f78"/><stop offset=".505" stop-color="#dddedb"/><stop offset=".755" stop-color="#a9a9a8"/><stop offset="1" stop-color="#ccc"/></linearGradient><linearGradient id="o" x1="37.354" x2="41.028" y1="42.21" y2="39.028" xlink:href="#a" gradientUnits="userSpaceOnUse" gradientTransform="matrix(1.033 0 0 1.033 -1.084 -.32)"/><linearGradient id="l" x1="37.657" x2="41.035" y1="42.311" y2="39.194" xlink:href="#a" gradientUnits="userSpaceOnUse" gradientTransform="matrix(.912 0 -.039 .91 -23.704 -31.635)"/><linearGradient id="u" x1="15.304" x2="22.476" y1="32.191" y2="42.545" xlink:href="#b" gradientUnits="userSpaceOnUse" gradientTransform="matrix(1.007 0 0 1.007 -.002 -.396)"/><linearGradient id="s" x1="40.608" x2="46.619" y1="24.312" y2="33.706" xlink:href="#c" gradientUnits="userSpaceOnUse" gradientTransform="matrix(1.007 0 0 1.007 -.002 -.396)"/><linearGradient id="c"><stop offset="0" stop-color="#babdb6"/><stop offset="1" stop-color="#8b9084"/></linearGradient><linearGradient x1="14.748" x2="22.476" y1="32.595" y2="42.545" gradientTransform="translate(-14.849 -30.271)" gradientUnits="userSpaceOnUse" xlink:href="#c"/><linearGradient id="t" x1="2.478" x2="19.702" y1="8.186" y2="29.955" xlink:href="#d" gradientUnits="userSpaceOnUse" gradientTransform="matrix(1.007 0 0 1.007 -.002 -.396)"/><linearGradient id="m" x1="21.216" x2="44.552" y1="4.853" y2="23.036" xlink:href="#e" gradientUnits="userSpaceOnUse" gradientTransform="matrix(1.007 0 0 1.007 -.002 -.396)"/><linearGradient id="e"><stop offset="0" stop-color="#eeeeec"/><stop offset="1" stop-color="#c9c9c2"/></linearGradient><linearGradient x1="2.478" x2="19.702" y1="8.186" y2="29.955" gradientTransform="translate(-.054 -7.263)" gradientUnits="userSpaceOnUse" xlink:href="#e"/><linearGradient id="n" x1="6.422" x2="24.339" y1="9.364" y2="9.516" xlink:href="#f" gradientUnits="userSpaceOnUse" gradientTransform="matrix(1.007 0 0 1.007 -.002 -.396)"/><linearGradient id="r" x1="16.928" x2="38.583" y1="22.9" y2="22.85" xlink:href="#g" gradientUnits="userSpaceOnUse" gradientTransform="matrix(1.007 0 0 1.007 -.002 -.396)"/><linearGradient id="g"><stop offset="0" stop-color="#eeeeec"/><stop offset="1" stop-color="#ccccc6"/></linearGradient><linearGradient x1="6.422" x2="24.339" y1="9.364" y2="9.516" gradientTransform="translate(-5.21 -6.296)" gradientUnits="userSpaceOnUse" xlink:href="#g"/><radialGradient id="p" cx="18.082" cy="23.587" r="11.463" xlink:href="#h" fx="18.082" fy="23.587" gradientTransform="matrix(1.065 -.018 .013 .807 -1.363 2.774)" gradientUnits="userSpaceOnUse"/><linearGradient id="k" x1="10.657" x2="23.84" y1="15.12" y2="10.675" xlink:href="#i" gradientUnits="userSpaceOnUse" gradientTransform="matrix(1.007 0 0 1.007 -.002 -.396)"/><radialGradient cx="18.082" cy="23.587" r="11.463" xlink:href="#h" gradientUnits="userSpaceOnUse" gradientTransform="matrix(.974 -.016 .012 .737 .589 4.227)" fx="18.082" fy="23.587"/><linearGradient id="q" x1="8.803" x2="31.891" y1="18.954" y2="18.954" xlink:href="#j" gradientUnits="userSpaceOnUse"/></defs><g><path fill="#d3d7cf" d="M34.95 18.95L24.37 9.03 7.43 12.2l8.54 12z"/><path fill="url(#k)" d="M7.53 12.3l16.84-3.27-.3 7.63L9.1 19.4z"/><path fill="url(#l)" stroke="#555753" stroke-width=".75" d="M6.36-1.46L2.66-1 10.6 9.35l5.82-.76z"/><path fill="#d3d7cf" stroke="#555753" stroke-width=".5" d="M47.18 33.8l.54-11.72-6.88 2-2.98-2.97.12 11.7 3.07 3z" color="#000" stroke-linejoin="bevel" overflow="visible" enable-background="accumulate"/><path fill="#d3d7cf" stroke="#555753" stroke-width=".5" d="M19.08 4.3v4.17l2.54-1.98z" color="#000" stroke-linejoin="bevel" overflow="visible" enable-background="accumulate"/><path fill="url(#m)" stroke="#888a85" stroke-width=".5" d="M23 3.9L47.73 22.2l-7.06 1.95L19.2 4.38z" color="#000" stroke-linejoin="bevel" overflow="visible" enable-background="accumulate"/><path fill="url(#n)" stroke="#555753" stroke-width=".5" d="M5.5 9.12l2.42 3.06L24.26 9.1l-2.98-2.9z" stroke-linejoin="bevel"/><path fill="#babdb6" stroke="#555753" stroke-width=".5" d="M20.7 40.32l18.62-6.4-.1-11.17-18.95 5z" color="#000" stroke-linejoin="bevel" overflow="visible" enable-background="accumulate"/><path fill="url(#o)" stroke="#555753" stroke-width=".75" d="M32 29.76c-1.75-.23-3.87 1.5-3.56 3.1L45.7 54.6l5.4-5.17z"/><path fill="url(#p)" stroke="url(#q)" stroke-width=".5" d="M9.05 16.26l2.6-1.44s1.4.54 2.1.44c.9-.14 2.4-1.36 2.4-1.36s1.57.5 2.34.34c.7-.16 1.8-1.2 1.8-1.2s1.24.5 1.88.4c.6-.08 1.63-.9 1.63-.9s.47 1.55 1.1 1.97c.37.28 1.37.2 1.37.2s.53 1.3 1.04 1.72c.53.42 1.9.7 1.9.7l.6 1.67 1.84 2.04-16.58 4.52z"/><path fill="url(#r)" stroke="#555753" stroke-width=".5" d="M16.62 22.5c.25 0 17.6-4.4 17.6-4.4l5 4.6-18.56 5.34z" color="#000" stroke-linejoin="bevel" overflow="visible" enable-background="accumulate"/><path fill="url(#s)" d="M40.75 24.35l.35 11.14 5.9-1.84.5-11.3z" color="#000" overflow="visible" enable-background="accumulate"/><path fill="#d3d7cf" stroke="#555753" stroke-width=".5" d="M.25 7.84l.53 11.2L15.16 45.6l7.6-2.93-.46-13z" stroke-linejoin="bevel"/><path fill="url(#t)" stroke="#888a85" stroke-width=".5" d="M4.27 7.17l18.17 22.6-7.24 2.06L.3 7.86z" stroke-linejoin="bevel"/><path fill="url(#u)" d="M15.16 32.08l.1 13.28 7.27-2.9s-.1-12.47-.35-12.36c-.26.1-7.02 1.98-7.02 1.98z"/></g></svg>