<svg xmlns="http://www.w3.org/2000/svg" width="48" height="48"><defs><linearGradient id="a" x1="829.001" x2="836.353" y1="164.608" y2="167.919" gradientUnits="userSpaceOnUse"><stop offset=".006" stop-color="#DCE6E9"/><stop offset="1" stop-color="#A2AFBF"/></linearGradient><linearGradient id="b" x1="856.615" x2="863.966" y1="160.702" y2="163.884" gradientUnits="userSpaceOnUse"><stop offset=".006" stop-color="#DCE6E9"/><stop offset="1" stop-color="#A2AFBF"/></linearGradient><linearGradient id="c" x1="829.041" x2="834.147" y1="162.898" y2="179.098" gradientUnits="userSpaceOnUse"><stop offset=".006" stop-color="#fff"/><stop offset="1" stop-color="#AFBBC2"/></linearGradient><linearGradient id="d" x1="861.29" x2="843.251" y1="201.634" y2="165.729" gradientUnits="userSpaceOnUse" gradientTransform="matrix(1.022 0 0 1.022 -840.324 -163.327)"><stop offset=".006" stop-color="#ACB7BE"/><stop offset="1" stop-color="#828C98"/></linearGradient><linearGradient id="e" x1="832.749" x2="865.325" y1="165.421" y2="164.189" gradientUnits="userSpaceOnUse" gradientTransform="matrix(1.022 0 0 1.022 -840.324 -163.327)"><stop offset=".006" stop-color="#DCE6E9"/><stop offset="1" stop-color="#A2AFBF"/></linearGradient><linearGradient id="f" x1="860.948" x2="859.011" y1="179.684" y2="167.887" gradientUnits="userSpaceOnUse" gradientTransform="matrix(1.022 0 0 1.022 -840.324 -163.327)"><stop offset=".006" stop-color="#fff"/><stop offset="1" stop-color="#AFBBC2"/></linearGradient><linearGradient id="g" x1="847.324" x2="856.99" y1="198.832" y2="202.152" gradientUnits="userSpaceOnUse" gradientTransform="matrix(1.022 0 0 1.022 -840.324 -163.327)"><stop offset=".006" stop-color="#DCE6E9"/><stop offset="1" stop-color="#A2AFBF"/></linearGradient><linearGradient id="h" x1="835.714" x2="842.229" y1="200.019" y2="207.239" gradientUnits="userSpaceOnUse"><stop offset=".006" stop-color="#fff"/><stop offset="1" stop-color="#AFBBC2"/></linearGradient><linearGradient id="i" x1="835.455" x2="855.706" y1="200.777" y2="166.088" gradientUnits="userSpaceOnUse" gradientTransform="matrix(1.022 0 0 1.022 -840.324 -163.327)"><stop offset="0" stop-color="#B2BDC8"/><stop offset=".073" stop-color="#97A3B2"/><stop offset=".157" stop-color="#B2BDC8"/><stop offset=".416" stop-color="#CCDBDE"/><stop offset=".691" stop-color="#CCDBDE"/><stop offset="1" stop-color="#8994A2"/></linearGradient></defs><g><path fill="none" stroke="#2b2f33" stroke-width="1.5" d="M41.4 14.86l-6.07-3.3s-.48-2.35-.72-2.87c-.45.05-.9.1-1.42.18l-3.2.5-.1 28.94c0 .72 0 1.34.06 1.87l5.5 3v1.64l-15.6 2.2-6.07-3.3v-1.68c6.05-.92 5.3-3.1 5.44-7.7l.08-23.43c-3.7.8-3.88 2-5.43 7.8l-1.56.24-6.1-3.32.7-10.7 1.05-.15 2.1 1.15h.02c.26 0 .52-.04.8-.08 1-.13 20.03-2.8 21.43-3 1.4-.2 1.96-.3 2.98-1.9L36.34.8l6.13 3.32c.05 2.03.2 5.7.56 10.34l-1.63.4z"/><path fill="url(#a)" d="M836.13 167.8l-1.04.14-5.97-3.24 1.04-.15 5.96 3.26z" transform="matrix(1.022 0 0 1.022 -840.324 -163.327)"/><path fill="url(#b)" d="M863.96 163.9l-1.12.14-5.92-3.24 1.04-.15 6 3.24z" transform="matrix(1.022 0 0 1.022 -840.324 -163.327)"/><path fill="url(#c)" d="M834.43 178.42l-5.98-3.25.68-10.47 5.96 3.24-.67 10.48z" transform="matrix(1.022 0 0 1.022 -840.324 -163.327)"/><path fill="url(#d)" d="M19.83 45.4v1.65l15.62-2.2V43.2c-4.67.28-5.57.15-5.57-4.88l.1-28.94 3.2-.5C39.24 8 40 8.46 41.4 14.86l1.64-.4c-.37-4.64-.52-8.32-.56-10.34l-1.15.15c-.63 1.3-1.57 1.7-2.97 1.9-1.4.2-20.44 2.88-21.44 3-1 .14-1.9.32-2.9-1.04l-1.05.13-.67 10.7 1.55-.22c1.74-6.5 1.78-7.24 6.9-8.1l4.6-.63-.08 29.03c0 3 .43 5.46-5.44 6.38z"/><path fill="url(#e)" d="M14.03 8.13c1 1.36 1.9 1.18 2.9 1.05 1-.13 20.03-2.8 21.43-3 1.4-.2 2.34-.6 2.97-1.9L35.28.95c-1.02 1.6-1.57 1.7-2.98 1.9-1.4.2-20.43 2.88-21.44 3-.27.05-.53.1-.8.1l3.97 2.17z"/><path fill="url(#f)" d="M41.4 14.86l-6.07-3.3s-.48-2.35-.72-2.87c4.77-.57 5.53.3 6.8 6.16z"/><path fill="url(#g)" d="M35.45 43.2c-4 .24-5.24.18-5.5-3l5.5 3z"/><path fill="url(#h)" d="M841.8 205.9l-5.93-3.25v-1.63l5.93 3.28v1.6z" transform="matrix(1.022 0 0 1.022 -840.324 -163.327)"/><path fill="url(#i)" d="M19.27 10.93c.45-.1.94-.2 1.5-.28l4.57-.63-.07 29c0 3.02.43 5.47-5.44 6.4l-6.06-3.36c6.05-.92 5.3-3.1 5.44-7.7l.08-23.43z"/><path fill="none" stroke="#fff" stroke-width=".6" d="M19.28 10.93c.44-.1.93-.2 1.48-.28l4.58-.63-.07 29c0 3.02.43 5.47-5.44 6.4l-6.06-3.36"/><path fill="none" stroke="#fff" stroke-width=".5987399999999999" d="M6.9 4.95l6.07 3.3-.68 10.72"/><path fill="none" stroke="#dce6e9" stroke-width=".6" d="M41.33 4.27c-.63 1.3-1.57 1.7-2.97 1.9-1.4.2-20.44 2.88-21.44 3-1 .14-1.9.32-2.9-1.04l-1.05.13"/><path fill="none" stroke="#fff" stroke-width=".6" d="M35.28.96l6.05 3.3"/><path fill="none" stroke="#fff" stroke-width=".6" d="M19.83 45.4v1.65"/><path fill="none" stroke="#dce6e9" stroke-width=".6" d="M35.45 43.2c-4 .24-5.24.18-5.5-3"/><path fill="none" stroke="#becbd4" stroke-width=".6" d="M34.6 8.7c4.77-.57 5.53.3 6.8 6.16"/></g></svg>