<svg xmlns="http://www.w3.org/2000/svg" width="48" height="48" xmlns:xlink="http://www.w3.org/1999/xlink"><defs><linearGradient id="a"><stop offset="0" stop-color="#3f7d04"/><stop offset="1" stop-color="#73d216"/></linearGradient><linearGradient id="c" x1="12.46" x2="15.849" y1="18.236" y2="36.903" xlink:href="#a" gradientUnits="userSpaceOnUse" gradientTransform="matrix(.89 0 0 1.013 1.044 -.603)"/><linearGradient id="b" x1="26.079" x2="41.182" y1="15.284" y2="24.141" xlink:href="#a" gradientUnits="userSpaceOnUse" gradientTransform="matrix(.935 0 0 1.013 2.075 -.603)"/></defs><g color="#000"><path fill="none" stroke="#214200" stroke-width="2" d="M21.13 11.77l.4 6.27c2.53.22 11.1.18 15.97 6.47l-2.46 2.42 11.75 5.25-1.34-13.68-3.1 2.45c-7.68-7.66-14.78-9.67-21.23-9.18z" stroke-linecap="round" overflow="visible"/><path fill="url(#b)" fill-rule="evenodd" d="M21.07 11.83l.4 6.28c2.54.23 9.97-.82 16.06 6.57l-2.27 2.2 11.76 5.27-1.62-13.58L42.3 21c-7.68-7.64-14.77-9.66-21.23-9.17z" overflow="visible"/><path fill="none" stroke="#eeeeec" stroke-opacity=".753" d="M23.02 12.32l.54 4.6c3.07.23 10.84 2.44 14.55 7.8l-1.98 2.03 10.28 4.58-1.42-11.7-2.7 2c-6.84-6.84-13.83-9.72-19.26-9.3z" stroke-linecap="round" overflow="visible"/><path fill="none" stroke="#214200" stroke-width="2" d="M19.44 37.78c-6.4 0-11.58-5.84-11.58-13.04 0-7.2 5.2-13.03 11.58-13.03m0 19.8c-3.32 0-6-3.02-6-6.76 0-3.73 2.68-6.76 6-6.76" stroke-linecap="round" overflow="visible"/><path fill="none" stroke="#214200" stroke-width="2" d="M19.38 31.56c3.32 0 6-3.03 6-6.76 0-3.74-2.7-6.74-6.3-6.73-6.1.04-12.22 1.8-17.92 6.8l-.06-7.64c5.87-3.98 10.18-5.5 18.02-5.43 6.65.05 11.84 5.8 11.84 13s-5.2 13.03-11.58 13.03" stroke-linecap="round" overflow="visible"/><path fill="url(#c)" fill-rule="evenodd" d="M19.4 37.84C13 37.84 7.8 32 7.8 24.8c0-7.2 5.2-13.02 11.6-13.02m0 19.8c-3.33 0-6.02-3.04-6.02-6.77 0-3.73 2.7-6.76 6-6.76" overflow="visible"/><path fill="#73d216" fill-rule="evenodd" d="M19.33 31.62c3.32 0 6-3.03 6-6.76 0-3.74-2.7-6.74-6.3-6.72-6.1.03-12.22 1.8-17.92 6.78l-.05-7.62c5.87-3.98 10.18-5.5 18.02-5.44 6.65.05 11.83 5.8 11.83 13S25.72 37.9 19.33 37.9" overflow="visible"/><path fill="none" stroke="#214200" d="M19.04 11.23c7.35 0 11.78 8.18 12.23 11.5" stroke-linecap="round" overflow="visible"/><path fill="none" stroke="#214200" d="M8.2 20.8c3.88-2.6 9.1-2.95 12.73-1.9" stroke-linecap="round" overflow="visible"/><path fill="none" stroke="#eeeeec" stroke-opacity=".753" d="M8.7 21.57c-.15.53-.47 1.7-.5 2.53-.22 6.66 4.37 13.3 11.1 13.3 6.6 0 11.08-5.93 11.1-12.73 0-5.6-5.03-12.47-11.8-12.4-7.05.1-11.82 1.58-17.05 5.32v6.3c6.06-4.27 11.04-7.26 18.05-6.32 4.12.56 6.3 3.95 6.26 7.3-.05 4.58-3.27 7.05-6.44 7.14-4.56-.07-6.56-3.94-6.43-7.46.07-2.34.87-4.03 2.2-5.26" stroke-linecap="round" overflow="visible"/></g></svg>