<svg xmlns="http://www.w3.org/2000/svg" width="48" height="48" xmlns:xlink="http://www.w3.org/1999/xlink"><defs><linearGradient id="d"><stop offset="0" stop-color="#ce5c00"/><stop offset="1" stop-color="#ce5c00" stop-opacity="0"/></linearGradient><linearGradient><stop offset="0" stop-color="#eeeeec" stop-opacity=".502"/><stop offset="1" stop-color="#eeeeec" stop-opacity="0"/></linearGradient><linearGradient id="c"><stop offset="0" stop-color="#eeeeec" stop-opacity=".502"/><stop offset="1" stop-color="#eeeeec" stop-opacity="0"/></linearGradient><linearGradient><stop offset="0" stop-color="#590b08"/><stop offset="1" stop-opacity="0"/></linearGradient><linearGradient x1="-95.827" x2="-81.455" y1="297.608" y2="297.608" gradientTransform="matrix(0 -1.064 -1.352 0 410.498 -83.416)" gradientUnits="userSpaceOnUse"><stop offset="0" stop-color="#e96712" stop-opacity="0"/><stop offset=".622" stop-color="#D52E0C"/><stop offset="1" stop-color="#CB1009"/></linearGradient><linearGradient id="b"><stop offset="0" stop-color="#fedba7"/><stop offset="1" stop-color="#fdbf64"/></linearGradient><linearGradient id="a"><stop offset="0" stop-color="#ffa54c"/><stop offset="1" stop-color="#f57900"/></linearGradient><linearGradient x1="14.929" x2="35.357" y1="17.929" y2="27.929" xlink:href="#a" gradientUnits="userSpaceOnUse" gradientTransform="matrix(.864 0 0 .863 51.703 -8.597)"/><linearGradient x1="2.131" x2="46.011" y1="26.143" y2="26.143" xlink:href="#b" gradientUnits="userSpaceOnUse" gradientTransform="matrix(.967 0 0 .966 49.159 -13.817)"/><linearGradient x1="13.664" x2="34.635" y1="19.056" y2="31.123" xlink:href="#a" gradientUnits="userSpaceOnUse" gradientTransform="matrix(.395 0 0 .38 .518 13.558)"/><linearGradient x1="13.664" x2="34.635" y1="19.056" y2="31.123" xlink:href="#a" gradientUnits="userSpaceOnUse" gradientTransform="matrix(.395 0 0 .38 10.571 8.425)"/><linearGradient x1="13.664" x2="34.635" y1="19.056" y2="31.123" xlink:href="#a" gradientUnits="userSpaceOnUse" gradientTransform="matrix(.395 0 0 .38 10.34 18.492)"/><linearGradient x1="13.664" x2="34.635" y1="19.056" y2="31.123" xlink:href="#a" gradientUnits="userSpaceOnUse" gradientTransform="matrix(.395 0 0 .38 20.393 13.359)"/><linearGradient x1="13.664" x2="34.635" y1="19.056" y2="31.123" xlink:href="#a" gradientUnits="userSpaceOnUse" gradientTransform="matrix(.395 0 0 .38 20.241 3.387)"/><linearGradient x1="13.664" x2="34.635" y1="19.056" y2="31.123" xlink:href="#a" gradientUnits="userSpaceOnUse" gradientTransform="matrix(.395 0 0 .38 30.063 8.321)"/><linearGradient x1="13.664" x2="34.635" y1="19.056" y2="31.123" xlink:href="#a" gradientUnits="userSpaceOnUse" gradientTransform="matrix(.395 0 0 .38 19.933 23.297)"/><linearGradient x1="13.664" x2="34.635" y1="19.056" y2="31.123" xlink:href="#a" gradientUnits="userSpaceOnUse" gradientTransform="matrix(.395 0 0 .38 29.986 18.164)"/><linearGradient x1="13.664" x2="34.635" y1="19.056" y2="31.123" xlink:href="#a" gradientUnits="userSpaceOnUse" gradientTransform="matrix(.395 0 0 .38 39.656 13.126)"/><linearGradient x1="16.5" x2="9.929" y1="36.643" y2="40.214" xlink:href="#c" gradientUnits="userSpaceOnUse" gradientTransform="translate(0 -.286)"/><linearGradient x1="14.5" x2="13.357" y1="35.571" y2="40.357" xlink:href="#c" gradientUnits="userSpaceOnUse" gradientTransform="translate(4.179 1.857)"/><linearGradient x1="14.214" x2="13.643" y1="35.5" y2="44.5" xlink:href="#c" gradientUnits="userSpaceOnUse" gradientTransform="translate(9.964 -11)"/><linearGradient x1="15.786" x2="10.643" y1="35.786" y2="41.643" xlink:href="#c" gradientUnits="userSpaceOnUse" gradientTransform="translate(6.393 -11.607)"/><linearGradient x1="17.143" x2="13.357" y1="35.357" y2="40.357" xlink:href="#c" gradientUnits="userSpaceOnUse" gradientTransform="translate(13.321 -2.357)"/><linearGradient x1="18.5" x2="19" y1="34.786" y2="40.714" xlink:href="#c" gradientUnits="userSpaceOnUse" gradientTransform="translate(15.893 .214)"/><linearGradient x1="23.643" x2="15.714" y1="35.714" y2="36.857" xlink:href="#c" gradientUnits="userSpaceOnUse" gradientTransform="translate(-6.964 -4.107)"/><linearGradient x1="44.786" x2="36.214" y1="35.893" y2="34.214" xlink:href="#d" gradientUnits="userSpaceOnUse" gradientTransform="translate(0 -.286)"/><linearGradient x1="44.5" x2="38.143" y1="38.036" y2="33" xlink:href="#d" gradientUnits="userSpaceOnUse" gradientTransform="translate(-12.214 -8.107)"/><linearGradient x1="44.714" x2="37.143" y1="37.464" y2="32.786" xlink:href="#d" gradientUnits="userSpaceOnUse" gradientTransform="translate(-17.286 3.393)"/><linearGradient id="e" x1="16.5" x2="9.929" y1="36.643" y2="40.214" xlink:href="#c" gradientUnits="userSpaceOnUse" gradientTransform="translate(0 -.286)"/><linearGradient id="f" x1="14.5" x2="13.357" y1="35.571" y2="40.357" xlink:href="#c" gradientUnits="userSpaceOnUse" gradientTransform="translate(4.179 1.857)"/><linearGradient id="g" x1="14.214" x2="13.643" y1="35.5" y2="44.5" xlink:href="#c" gradientUnits="userSpaceOnUse" gradientTransform="translate(9.964 -11)"/><linearGradient id="h" x1="15.786" x2="10.643" y1="35.786" y2="41.643" xlink:href="#c" gradientUnits="userSpaceOnUse" gradientTransform="translate(6.393 -11.607)"/><linearGradient id="i" x1="17.143" x2="13.357" y1="35.357" y2="40.357" xlink:href="#c" gradientUnits="userSpaceOnUse" gradientTransform="translate(13.321 -2.357)"/><linearGradient id="j" x1="18.5" x2="19" y1="34.786" y2="40.714" xlink:href="#c" gradientUnits="userSpaceOnUse" gradientTransform="translate(15.893 .214)"/><linearGradient id="k" x1="23.643" x2="15.714" y1="35.714" y2="36.857" xlink:href="#c" gradientUnits="userSpaceOnUse" gradientTransform="translate(-6.964 -4.107)"/><linearGradient id="l" x1="44.786" x2="36.214" y1="35.893" y2="34.214" xlink:href="#d" gradientUnits="userSpaceOnUse" gradientTransform="translate(0 -.286)"/><linearGradient id="m" x1="44.5" x2="38.143" y1="38.036" y2="33" xlink:href="#d" gradientUnits="userSpaceOnUse" gradientTransform="translate(-12.214 -8.107)"/><linearGradient id="n" x1="44.714" x2="37.143" y1="37.464" y2="32.786" xlink:href="#d" gradientUnits="userSpaceOnUse" gradientTransform="translate(-17.286 3.393)"/></defs><g><path fill="#d3d7cf" fill-rule="evenodd" d="M24 19L1.14 30.5 24.2 42.43l22.87-12.07L24 19z"/><path fill="none" stroke="#fff" d="M24 20.2L3.47 30.53l20.74 10.7 20.55-10.83L24 20.2z"/><path fill="none" stroke="#555753" d="M13.36 24.64l22.2 11.72"/><path fill="none" stroke="#555753" d="M34.9 24.57L12.67 36.3"/><path fill="none" stroke="#555753" d="M24 19.03L1.16 30.53l23.07 11.93L47.08 30.4 24 19.02z"/><g><path fill="#f90" fill-rule="evenodd" d="M24.25 10.18l-5.15 5.06-6.2 3.2L6.8 20l-5.78 4.1 6.12 5.6 5.2.1 6.4 1.24 5.35 4.7 4.86-.67 5.75-4.37 6.85-1.57 5.4-5.2-5.6-4.56-6.8-1.18-6.05-2.97-4.25-5.07z"/><path fill="none" stroke="#ab4c00" d="M13.02 18.3l5.92 1.42 4.9 4.27 5.6 6.48 5.72-.12"/><path fill="none" stroke="#ab4c00" d="M34.55 18.2l-7.27 1.76-3.52 3.95-5.3-.03-6.12 6.06"/><path fill="none" stroke="#ab4c00" d="M6.6 19.96l4.78 6.1 7.02-2.12 3.38 4.9 7.26 6.27"/><path fill="none" stroke="#ab4c00" d="M41.32 19.75l-7.55 2.1-4.6 8.66-7.45-1.73-2.9 2.55"/><path fill="none" stroke="#ab4c00" d="M7.07 29.68l4.3-3.64 7.56-6.5 5.57-9"/><path fill="none" stroke="#ab4c00" d="M24.3 10.92l3.1 9.1 6.52 1.75 7.54 7.55"/><path fill="none" stroke="#652d00" stroke-width="1.5" d="M24.4 9.96l-6.37 6.07-5.2 2.5-6.2 1.54-5.52 4.2 6.02 5.52 5.22.12 6.35 1.38 5.48 4.6 4.88-.95 5.74-4.3 6.8-1.44 5.44-5.08-5.7-4.43-6.77-1.43-6-2.87-4.18-5.44z"/><path fill="url(#e)" fill-rule="evenodd" d="M8.8 39l3.2-1.2 4.86-1.44-4.65 4.43L8.8 39z" transform="translate(0 -11.464)"/><path fill="url(#f)" fill-rule="evenodd" d="M12.96 41.14l5.43-4.93 2.78 4.1-2.36 2-5.86-1.16z" transform="translate(0 -11.464)"/><path fill="url(#g)" fill-rule="evenodd" d="M19.46 30.93l4.72-7.57 2.36 7.78-3 3.3-4.08-3.5z" transform="translate(0 -11.464)"/><path fill="url(#h)" fill-rule="evenodd" d="M18.1 28.18l4.36-4.07-3.78 6.58-4.07-1 3.5-1.5z" transform="translate(0 -11.464)"/><path fill="url(#i)" fill-rule="evenodd" d="M24.4 35.43L27.53 32l5.5 1.5-3.86 7.07-4.8-5.14z" transform="translate(0 -11.464)"/><path fill="url(#j)" fill-rule="evenodd" d="M30.1 41.57l3.94-7.5 6.07 6.14-5.56 1.23-4.43.14z" transform="translate(0 -11.464)"/><path fill="url(#k)" fill-rule="evenodd" d="M7.75 33.1l5.5-2.85 4.36 1.3-6.28 5.2-3.57-3.64z" transform="translate(0 -11.464)"/><path fill="url(#l)" fill-rule="evenodd" d="M35.2 33.4l5.73-1.5 5 3.5-4.57 4.5-6.15-6.5z" transform="translate(0 -11.464)"/><path fill="url(#m)" fill-rule="evenodd" d="M25 23.36l3.07 4.07 4.86 2.28-5.3 1.1L25 23.35z" transform="translate(0 -11.464)"/><path fill="url(#n)" fill-rule="evenodd" d="M19.14 35.8h4.15l5.13 5.56-6.3-1.43-3-4.14z" transform="translate(0 -11.464)"/></g></g></svg>