<svg xmlns="http://www.w3.org/2000/svg" width="48" height="48"><defs><radialGradient id="a" cx="14.979" cy="105.103" r="30.283" gradientUnits="userSpaceOnUse" fy="105.103" fx="14.979" gradientTransform="matrix(1.019 0 0 1.983 -1.764 -210.371)"><stop offset=".006" stop-color="#E8B96D"/><stop offset=".461" stop-color="#C17D10"/><stop offset="1" stop-color="#8F5811"/></radialGradient><linearGradient id="b" x1="12.8" x2="34.554" y1="108.74" y2="125.695" gradientUnits="userSpaceOnUse" gradientTransform="matrix(1.019 0 0 1.983 -1.764 -210.371)"><stop offset=".006" stop-color="#C17D10"/><stop offset="1" stop-color="#8F5811"/></linearGradient><radialGradient id="c" cx="30.789" cy="111.727" r="14.304" gradientUnits="userSpaceOnUse" fy="111.727" fx="30.789" gradientTransform="matrix(1.019 0 0 1.983 -1.764 -210.371)"><stop offset=".006" stop-color="#CC8E27"/><stop offset=".348" stop-color="#C17D10"/><stop offset="1" stop-color="#8F5811"/></radialGradient><radialGradient id="d" cx="18.994" cy="115.145" r="14.304" gradientUnits="userSpaceOnUse" fy="115.145" fx="18.994" gradientTransform="matrix(1.013 -.113 .22 1.97 -28.164 -207.169)"><stop offset=".006" stop-color="#CC8E27"/><stop offset=".348" stop-color="#C17D10"/><stop offset="1" stop-color="#8F5811"/></radialGradient><radialGradient id="e" cx="761.749" cy="-236.428" r="9.241" gradientUnits="userSpaceOnUse" gradientTransform="matrix(.99 -.472 .243 1.925 -677.27 824.388)" fy="-236.428" fx="761.749"><stop offset=".006" stop-color="#E8B96D"/><stop offset=".461" stop-color="#C17D10"/><stop offset="1" stop-color="#8F5811"/></radialGradient></defs><g><path fill="none" stroke="#72470e" stroke-width="1.2" d="M39.78 30.97c1.17-1 3.92-3.7 6.57-9.63-1 .5-4.77 1.86-6.95 2.47 2.2-2.64 2.33-3.6 3.04-6.13-2.82 3.32-4.97 3.23-6.58 3.47 1.4-1.74 4.33-5.4 5.44-9.4-2.9 3.26-6.6 5.05-8.34 5.93.38-.55 2.84-5.55 3.8-9-4.12 4.9-5.32 5.88-6.76 6.17.86-1.5 3.1-5.33 3.96-8.18-2.97 2.08-4.82 4.25-6.35 4.8 1.3-1.83 2.53-4.32 3.72-8.33-2.97 3.45-3.83 4.32-6.18 6.1 1.74-2.22 1.42-3.88 2.44-7.5-3.5 4.3-3.9 5.57-5.23 7.05 1.02-1.65 2.06-4.33 2.6-7.1-1.72 2.67-3.18 4.44-6.15 8.06 1.17-2.1 3.23-5.63 3.48-8.83-1.9 3.64-4.64 6.74-6.62 10.03.58-.93.9-2.77 1.12-4.6-1.6 2.84-2.6 5.53-4.82 8.32.42-1.14 1.2-3.77 1.58-6.27-1.87 3.4-3.4 6.15-5.72 8.94 1.14-2.8 1.44-5.06 1.54-6.43-2.3 4.8-4.97 7.9-8.3 11.55L19.75 47.2l20.04-16.23z" stroke-linecap="square"/><path fill="url(#a)" d="M39.78 30.97c1.17-1 3.92-3.7 6.57-9.63-1 .5-4.77 1.86-6.95 2.47 2.2-2.64 2.33-3.6 3.04-6.13-2.82 3.32-4.97 3.23-6.58 3.47 1.4-1.74 4.33-5.4 5.44-9.4-2.9 3.26-6.6 5.05-8.34 5.93.38-.55 2.84-5.55 3.8-9-4.12 4.9-5.32 5.88-6.76 6.17.86-1.5 3.1-5.33 3.96-8.18-2.97 2.08-4.82 4.25-6.35 4.8 1.3-1.83 2.53-4.32 3.72-8.33-2.97 3.45-3.83 4.32-6.18 6.1 1.74-2.22 1.42-3.88 2.44-7.5-3.5 4.3-3.9 5.57-5.23 7.05 1.02-1.65 2.06-4.33 2.6-7.1-1.72 2.67-3.18 4.44-6.15 8.06 1.17-2.1 3.23-5.63 3.48-8.83-1.9 3.64-4.64 6.74-6.62 10.03.58-.93.9-2.77 1.12-4.6-1.6 2.84-2.6 5.53-4.82 8.32.42-1.14 1.2-3.77 1.58-6.27-1.87 3.4-3.4 6.15-5.72 8.94 1.14-2.8 1.44-5.06 1.54-6.43-2.3 4.8-4.97 7.9-8.3 11.55L19.75 47.2l20.04-16.23z"/><path fill="url(#b)" d="M44.25 24.32c-3.37 3.26-6.47 4.66-8.26 5.16.12-.16.26-.33.4-.5-.52.2-1 .4-1.4.5 1.7-2.04 4.1-4.5 5.55-7.15-1.6 1.03-3.35.64-5.4 2.1.2-.23.4-.52.63-.85-.52.2-1.06.45-1.63.86 1.23-1.52 3.14-4.77 5.22-9.2-2.13 1.92-5.1 3.95-6.36 4.6.1-.13.26-.44.48-.87-.6.38-1.1.68-1.46.87.32-.48 1.75-3.5 3.1-7.12-3 3.34-4.84 4.8-6.07 5.04.08-.14.2-.34.3-.58-.5.3-.93.5-1.3.58.7-1.22 3.24-6.63 4.6-10.14-1.73 1.74-4.33 3.9-5.66 3.9.12-.16.25-.3.37-.45-.53.3-1 .46-1.38.46 1.26-1.52 1.9-2.15 3.1-4.82-1.67 1.8-3.43 3.14-5.1 4.38.5-.6.88-1.16 1.22-1.7-.74.6-1.48 1.16-2.2 1.7 1.4-1.76 2.02-3 2.87-5.27-2.4 2.68-3.76 3.6-4.86 4.84.22-.53.47-1 .8-1.72-.7.65-1.28 1.15-1.8 1.72.35-.8.74-1.46 1.38-3.17-1.05 1.56-2.36 3.35-3.82 5.12.3-.65.6-1.45.95-2.5-.6.83-1.26 1.66-1.94 2.5.45-.98.9-2.33 1.6-4.36-1.16 1.92-2.53 4.03-4 6.22.44-.72.87-2.14 1.7-4.15-.83 1.35-1.74 2.74-2.7 4.16.1-.15.18-.33.27-.54-.83 1.28-1.7 2.56-2.5 3.55.22-.6.7-1.75 1.2-3.07-.74 1.1-1.5 2.2-2.2 3.07.17-.44.48-1.2.84-2.14-1.1 1.8-2.36 3.7-3.4 4.96.56-1.4 1.05-2.4 1.57-3.63-.87 1.36-1.78 2.67-2.57 3.62.74-1.84 1.35-3 2.1-4.87-2.34 3.43-4.14 5.45-6.58 8.14l17.62 23.4 15.8-12.8c2.02-1.47 6.26-5.07 8.9-9.85z"/><path fill="url(#c)" d="M26.1 34.34c2.94-3.53 7.5-7.97 8.7-12.76-2.77 5.62-5.9 3.28-9.8 6.1 1.87-2.32 4.95-7.67 8.18-14.93-2.02 2.94-8.68 7.65-11 8.83.5-.74 3.03-6.08 5.04-11.97-5.35 6.3-8.37 8.84-10.3 9.24"/><path fill="url(#d)" d="M15.46 41.02c2.52-3.84 6.56-8.76 7.2-13.65-2.1 5.9-5.47 3.92-9.04 7.14 1.6-2.5 4.07-8.15 6.47-15.73-1.7 3.15-7.8 8.57-9.96 10 .42-.8 2.33-6.38 3.68-12.46-4.6 6.85-7.34 9.72-9.2 10.32"/><path fill="url(#e)" d="M19.66 22.9c1.46-2.88 3.8-6.76 4.15-9.9-1.2 4.07-3.2 3.57-5.28 6.3.92-1.87 2.33-5.87 3.7-11.03-.98 2.3-4.54 6.92-5.8 8.26.23-.58 1.32-4.42 2.06-8.44-2.67 5.18-4.26 7.52-5.35 8.3"/><path fill="none" stroke="#72470e" stroke-width=".7" d="M12.25 7.16c-.67 1.82-1.87 4.68-3.4 6.63" stroke-linecap="square"/><path fill="none" stroke="#72470e" stroke-width=".7" d="M45.8 17.56c-1.15 1.56-3.55 7.28-4.7 7.54" stroke-linecap="square"/><path fill="none" stroke="#72470e" stroke-width=".7" d="M41.38 14.96c-1.34 3-3.94 7.67-4.34 7.67" stroke-linecap="square"/><path fill="none" stroke="#72470e" stroke-width=".7" d="M39.7 10.67c-1.4 1.56-3.26 3.64-4.67 4.8" stroke-linecap="square"/><path fill="none" stroke="#72470e" stroke-width=".7" d="M32.3 5.34c-1.28 2.2-3.8 6.24-4.48 7.02" stroke-linecap="square"/><path fill="none" stroke="#804f10" stroke-width=".7" d="M33.96 11.84c-1.07 1.43-3.07 5.2-3.54 5.46" stroke-linecap="square"/><path fill="none" stroke="#72470e" stroke-width=".7" d="M20 1.57c-.4 1.3-1.2 6.1-1.8 7.15" stroke-linecap="square"/><path fill="none" stroke="#72470e" stroke-width=".7" d="M28.02 3.78c-.87 2.6-2.4 7.54-3.14 8.32" stroke-linecap="square"/><path fill="none" stroke="#804f10" stroke-width=".7" d="M36.1 17.44c-1 2.1-3.87 5.93-4.14 5.93" stroke-linecap="square"/><path fill="none" stroke="#72470e" stroke-width=".7" d="M39.76 21.1c-.8 1.05-3.4 6.8-3.76 7.16" stroke-linecap="square"/><path fill="none" stroke="#804f10" stroke-width=".7" d="M34.2 23.35c-1.23 2.15-5.1 8.32-5.1 8.32" stroke-linecap="square"/></g></svg>