<svg xmlns="http://www.w3.org/2000/svg" width="48" height="48" xmlns:xlink="http://www.w3.org/1999/xlink"><defs><linearGradient id="f"><stop offset="0" stop-color="#fff"/><stop offset="1" stop-color="#a7bdce"/></linearGradient><linearGradient id="e"><stop offset="0"/><stop offset="1" stop-opacity="0"/></linearGradient><linearGradient><stop offset="0" stop-opacity=".577"/><stop offset="1" stop-opacity="0"/></linearGradient><radialGradient cx="257.459" cy="35.376" r="68.717" fx="257.459" fy="35.376" gradientUnits="userSpaceOnUse"><stop offset="0" stop-opacity="0"/><stop offset="1" stop-color="#8794a0" stop-opacity="0"/></radialGradient><radialGradient id="d" cx="257.459" cy="35.376" r="68.717" gradientUnits="userSpaceOnUse" fy="35.376" fx="257.459"><stop offset="0"/><stop offset="1" stop-color="#8794a0" stop-opacity="0"/></radialGradient><linearGradient id="a"><stop offset="0" stop-opacity=".594"/><stop offset="1" stop-opacity="0"/></linearGradient><radialGradient cx="279.388" cy="41.553" r="19.813" xlink:href="#a" fx="279.388" fy="41.553" gradientTransform="matrix(.837 -.536 .375 .586 30.067 166.892)" gradientUnits="userSpaceOnUse"/><linearGradient id="c"><stop offset="0" stop-color="#fff"/><stop offset="1" stop-color="#bfd0dc"/></linearGradient><radialGradient id="b" cx="257.459" cy="35.376" r="68.717" fx="257.459" fy="35.376" gradientUnits="userSpaceOnUse"><stop offset="0" stop-color="#eeeff1"/><stop offset="1" stop-color="#8794A0"/></radialGradient><linearGradient><stop offset="0" stop-color="#fedba7"/><stop offset="1" stop-color="#fdbf64"/></linearGradient><linearGradient><stop offset="0" stop-color="#ffa54c"/><stop offset="1" stop-color="#f57900"/></linearGradient><linearGradient x1="14.243" x2="33.941" y1="21.433" y2="31.535" xlink:href="#b" gradientUnits="userSpaceOnUse"/><linearGradient x1="18.378" x2="37.729" y1="19.266" y2="29.671" xlink:href="#c" gradientUnits="userSpaceOnUse"/><linearGradient x1="14.243" x2="33.941" y1="21.433" y2="31.535" xlink:href="#b" gradientUnits="userSpaceOnUse"/><linearGradient x1="18.378" x2="37.729" y1="19.266" y2="29.671" xlink:href="#c" gradientUnits="userSpaceOnUse"/><linearGradient x1="14.243" x2="33.941" y1="21.433" y2="31.535" xlink:href="#b" gradientUnits="userSpaceOnUse"/><linearGradient x1="18.378" x2="37.729" y1="19.266" y2="29.671" xlink:href="#c" gradientUnits="userSpaceOnUse"/><linearGradient x1="14.243" x2="33.941" y1="21.433" y2="31.535" xlink:href="#b" gradientUnits="userSpaceOnUse"/><linearGradient x1="18.378" x2="37.729" y1="19.266" y2="29.671" xlink:href="#c" gradientUnits="userSpaceOnUse"/><linearGradient x1="14.243" x2="33.941" y1="21.433" y2="31.535" xlink:href="#b" gradientUnits="userSpaceOnUse" gradientTransform="matrix(.891 0 0 .887 24.89 18.069)"/><linearGradient x1="18.378" x2="37.729" y1="19.266" y2="29.671" xlink:href="#c" gradientUnits="userSpaceOnUse" gradientTransform="matrix(.891 0 0 .887 24.89 18.069)"/><linearGradient x1="14.243" x2="33.941" y1="21.433" y2="31.535" xlink:href="#b" gradientUnits="userSpaceOnUse" gradientTransform="matrix(.891 0 0 .887 2.857 4.299)"/><linearGradient x1="18.378" x2="37.729" y1="19.266" y2="29.671" xlink:href="#c" gradientUnits="userSpaceOnUse" gradientTransform="matrix(.891 0 0 .887 2.857 4.299)"/><radialGradient cx="24.293" cy="32.32" r="18.457" xlink:href="#d" fx="24.293" fy="32.32" gradientTransform="matrix(-1 0 0 -.5 48.586 46.99)" gradientUnits="userSpaceOnUse"/><radialGradient cx="24.293" cy="32.32" r="18.457" xlink:href="#d" gradientUnits="userSpaceOnUse" gradientTransform="matrix(-1 0 0 -.5 48.586 46.99)" fx="24.293" fy="32.32"/><linearGradient x1="14.243" x2="33.941" y1="21.433" y2="31.535" xlink:href="#b" gradientUnits="userSpaceOnUse" gradientTransform="matrix(.891 0 0 .887 2.857 4.299)"/><linearGradient x1="18.378" x2="37.729" y1="19.266" y2="29.671" xlink:href="#c" gradientUnits="userSpaceOnUse" gradientTransform="matrix(.891 0 0 .887 2.857 4.299)"/><linearGradient x1="6.541" x2="46.401" y1="25.639" y2="38.51" xlink:href="#b" gradientUnits="userSpaceOnUse" gradientTransform="matrix(1.038 0 0 1.042 -.972 -2.936)"/><linearGradient x1="6.541" x2="46.401" y1="25.639" y2="38.51" xlink:href="#c" gradientUnits="userSpaceOnUse" gradientTransform="matrix(1.038 0 0 1.042 -.972 -2.936)"/><linearGradient id="g" x1="24.106" x2="24.106" y1="22.979" y2="38.071" xlink:href="#e" gradientUnits="userSpaceOnUse" gradientTransform="matrix(.889 0 0 .596 2.937 17.296)"/><linearGradient id="h" x1="6.541" x2="46.401" y1="25.639" y2="38.51" xlink:href="#b" gradientUnits="userSpaceOnUse" gradientTransform="matrix(.923 0 0 .88 1.58 1.235)"/><linearGradient id="i" x1="6.541" x2="46.401" y1="25.639" y2="38.51" xlink:href="#c" gradientUnits="userSpaceOnUse" gradientTransform="matrix(.923 0 0 .88 1.58 1.235)"/><linearGradient x1="5.649" x2="41.934" y1="29.75" y2="29.75" xlink:href="#f" gradientUnits="userSpaceOnUse"/><linearGradient x1="5.649" x2="41.934" y1="29.75" y2="29.75" xlink:href="#f" gradientUnits="userSpaceOnUse"/><linearGradient x1="5.649" x2="41.934" y1="29.75" y2="29.75" xlink:href="#f" gradientUnits="userSpaceOnUse"/><linearGradient x1="5.649" x2="41.934" y1="29.75" y2="29.75" xlink:href="#f" gradientUnits="userSpaceOnUse"/><linearGradient x1="5.649" x2="41.934" y1="29.75" y2="29.75" xlink:href="#f" gradientUnits="userSpaceOnUse"/><linearGradient x1="5.649" x2="41.934" y1="29.75" y2="29.75" xlink:href="#f" gradientUnits="userSpaceOnUse"/><linearGradient id="o" x1="5.649" x2="41.934" y1="29.75" y2="29.75" xlink:href="#f" gradientUnits="userSpaceOnUse" gradientTransform="matrix(1.06 0 0 1 -1.418 0)"/><linearGradient id="n" x1="5.649" x2="41.934" y1="29.75" y2="29.75" xlink:href="#f" gradientUnits="userSpaceOnUse" gradientTransform="matrix(1.06 0 0 1 -1.418 0)"/><linearGradient id="m" x1="5.649" x2="41.934" y1="29.75" y2="29.75" xlink:href="#f" gradientUnits="userSpaceOnUse" gradientTransform="matrix(1.06 0 0 1.034 -2.632 -1.223)"/><linearGradient id="l" x1="5.649" x2="41.934" y1="29.75" y2="29.75" xlink:href="#f" gradientUnits="userSpaceOnUse" gradientTransform="matrix(1.06 0 0 1.034 -2.132 -1.223)"/><linearGradient id="k" x1="5.649" x2="41.934" y1="29.75" y2="29.75" xlink:href="#f" gradientUnits="userSpaceOnUse" gradientTransform="matrix(1.06 0 0 1.034 -.703 -1.223)"/><linearGradient id="j" x1="5.649" x2="41.934" y1="29.75" y2="29.75" xlink:href="#f" gradientUnits="userSpaceOnUse" gradientTransform="matrix(1.06 0 0 1.034 -.864 -1.223)"/></defs><g><path fill="url(#g)" d="M7.45 31h33.7l4.62 9H2.97l4.48-9z" color="#000" overflow="visible"/><path fill="url(#h)" stroke="url(#i)" d="M9.1 23.48l28.64-.2L45 35.77l-42.15.16L9.1 23.48z" color="#000" stroke-linecap="round" stroke-linejoin="round" overflow="visible"/><path fill="none" stroke="url(#j)" d="M14.5 23l-4.24 12.85"/><path fill="none" stroke="url(#k)" d="M21.02 23.07l-1.97 13"/><path fill="none" stroke="url(#l)" d="M25.87 23.07l2.2 13"/><path fill="none" stroke="url(#m)" d="M31.8 23.07l4.24 12.85"/><path fill="none" stroke="url(#n)" d="M6.54 26.5h33.88"/><path fill="none" stroke="url(#o)" d="M5.08 30.5H42.5"/><path fill="none" stroke="#2e3436" d="M8.5 22.6l29.84-.06L46.5 36.7l-45 .07 7-14.17z" color="#000" stroke-linecap="round" stroke-linejoin="round" overflow="visible"/></g></svg>