<svg xmlns="http://www.w3.org/2000/svg" width="48" height="48" xmlns:xlink="http://www.w3.org/1999/xlink"><defs><radialGradient id="a" cx="824.329" cy="111.252" r="46.312" gradientUnits="userSpaceOnUse" fy="111.252" fx="824.329" gradientTransform="translate(-823.738 -75.782)"><stop offset=".006" stop-color="#FAAF3E"/><stop offset=".646" stop-color="#F17912"/><stop offset="1" stop-color="#DD680E"/></radialGradient><radialGradient id="b" cx="804.052" cy="127.362" r="71.221" gradientUnits="userSpaceOnUse" fy="127.362" fx="804.052"><stop offset=".006" stop-color="#FAAF3E"/><stop offset=".646" stop-color="#F17912"/><stop offset="1" stop-color="#DD680E"/></radialGradient><radialGradient id="l" cx="824.33" cy="111.252" r="46.307" gradientUnits="userSpaceOnUse" fy="111.252" fx="824.33"><stop offset=".006" stop-color="#FAAF3E"/><stop offset=".646" stop-color="#F17912"/><stop offset="1" stop-color="#DD680E"/></radialGradient><radialGradient id="k" cx="824.325" cy="111.253" r="46.316" gradientUnits="userSpaceOnUse" fy="111.253" fx="824.325"><stop offset=".006" stop-color="#FAAF3E"/><stop offset=".646" stop-color="#F17912"/><stop offset="1" stop-color="#DD680E"/></radialGradient><radialGradient id="j" cx="824.328" cy="111.251" r="46.31" gradientUnits="userSpaceOnUse" fy="111.251" fx="824.328"><stop offset=".006" stop-color="#FAAF3E"/><stop offset=".646" stop-color="#F17912"/><stop offset="1" stop-color="#DD680E"/></radialGradient><radialGradient id="i" cx="824.328" cy="111.253" r="46.311" gradientUnits="userSpaceOnUse" fy="111.253" fx="824.328"><stop offset=".006" stop-color="#FAAF3E"/><stop offset=".646" stop-color="#F17912"/><stop offset="1" stop-color="#DD680E"/></radialGradient><radialGradient id="h" cx="824.328" cy="111.252" r="46.311" gradientUnits="userSpaceOnUse" fy="111.252" fx="824.328"><stop offset=".006" stop-color="#FAAF3E"/><stop offset=".646" stop-color="#F17912"/><stop offset="1" stop-color="#DD680E"/></radialGradient><radialGradient id="g" cx="824.326" cy="111.252" r="46.315" gradientUnits="userSpaceOnUse" fy="111.252" fx="824.326"><stop offset=".006" stop-color="#FAAF3E"/><stop offset=".646" stop-color="#F17912"/><stop offset="1" stop-color="#DD680E"/></radialGradient><radialGradient id="f" cx="824.327" cy="111.253" r="46.314" gradientUnits="userSpaceOnUse" fy="111.253" fx="824.327"><stop offset=".006" stop-color="#FAAF3E"/><stop offset=".646" stop-color="#F17912"/><stop offset="1" stop-color="#DD680E"/></radialGradient><radialGradient id="e" cx="824.325" cy="111.252" r="46.319" gradientUnits="userSpaceOnUse" fy="111.252" fx="824.325"><stop offset=".006" stop-color="#FAAF3E"/><stop offset=".646" stop-color="#F17912"/><stop offset="1" stop-color="#DD680E"/></radialGradient><radialGradient id="d" cx="824.331" cy="111.252" r="46.304" gradientUnits="userSpaceOnUse" fy="111.252" fx="824.331"><stop offset=".006" stop-color="#FAAF3E"/><stop offset=".646" stop-color="#F17912"/><stop offset="1" stop-color="#DD680E"/></radialGradient><radialGradient id="c" cx="824.328" cy="111.252" r="46.311" gradientUnits="userSpaceOnUse" fy="111.252" fx="824.328"><stop offset=".006" stop-color="#FAAF3E"/><stop offset=".646" stop-color="#F17912"/><stop offset="1" stop-color="#DD680E"/></radialGradient><radialGradient cx="824.329" cy="111.252" r="46.312" xlink:href="#a" gradientUnits="userSpaceOnUse" gradientTransform="translate(-823.738 -75.782)" fx="824.329" fy="111.252"/><radialGradient cx="804.052" cy="127.362" r="71.221" xlink:href="#b" gradientUnits="userSpaceOnUse" fx="804.052" fy="127.362"/><radialGradient cx="824.328" cy="111.252" r="46.311" xlink:href="#c" gradientUnits="userSpaceOnUse" fx="824.328" fy="111.252"/><radialGradient cx="824.331" cy="111.252" r="46.304" xlink:href="#d" gradientUnits="userSpaceOnUse" fx="824.331" fy="111.252"/><radialGradient cx="824.325" cy="111.252" r="46.319" xlink:href="#e" gradientUnits="userSpaceOnUse" fx="824.325" fy="111.252"/><radialGradient cx="824.327" cy="111.253" r="46.314" xlink:href="#f" gradientUnits="userSpaceOnUse" fx="824.327" fy="111.253"/><radialGradient cx="824.326" cy="111.252" r="46.315" xlink:href="#g" gradientUnits="userSpaceOnUse" fx="824.326" fy="111.252"/><radialGradient cx="824.328" cy="111.252" r="46.311" xlink:href="#h" gradientUnits="userSpaceOnUse" fx="824.328" fy="111.252"/><radialGradient cx="824.328" cy="111.253" r="46.311" xlink:href="#i" gradientUnits="userSpaceOnUse" fx="824.328" fy="111.253"/><radialGradient cx="824.328" cy="111.251" r="46.31" xlink:href="#j" gradientUnits="userSpaceOnUse" fx="824.328" fy="111.251"/><radialGradient cx="824.325" cy="111.253" r="46.316" xlink:href="#k" gradientUnits="userSpaceOnUse" fx="824.325" fy="111.253"/><radialGradient cx="824.33" cy="111.252" r="46.307" xlink:href="#l" gradientUnits="userSpaceOnUse" fx="824.33" fy="111.252"/><radialGradient cx="804.052" cy="127.362" r="71.221" xlink:href="#b" gradientUnits="userSpaceOnUse" fx="804.052" fy="127.362"/><radialGradient cx="824.328" cy="111.252" r="46.311" xlink:href="#c" gradientUnits="userSpaceOnUse" fx="824.328" fy="111.252"/><radialGradient cx="824.331" cy="111.252" r="46.304" xlink:href="#d" gradientUnits="userSpaceOnUse" fx="824.331" fy="111.252"/><radialGradient cx="824.325" cy="111.252" r="46.319" xlink:href="#e" gradientUnits="userSpaceOnUse" fx="824.325" fy="111.252"/><radialGradient cx="824.327" cy="111.253" r="46.314" xlink:href="#f" gradientUnits="userSpaceOnUse" fx="824.327" fy="111.253"/><radialGradient cx="824.326" cy="111.252" r="46.315" xlink:href="#g" gradientUnits="userSpaceOnUse" fx="824.326" fy="111.252"/><radialGradient cx="824.328" cy="111.252" r="46.311" xlink:href="#h" gradientUnits="userSpaceOnUse" fx="824.328" fy="111.252"/><radialGradient cx="824.328" cy="111.253" r="46.311" xlink:href="#i" gradientUnits="userSpaceOnUse" fx="824.328" fy="111.253"/><radialGradient cx="824.328" cy="111.251" r="46.31" xlink:href="#j" gradientUnits="userSpaceOnUse" fx="824.328" fy="111.251"/><radialGradient cx="824.325" cy="111.253" r="46.316" xlink:href="#k" gradientUnits="userSpaceOnUse" fx="824.325" fy="111.253"/><radialGradient cx="824.33" cy="111.252" r="46.307" xlink:href="#l" gradientUnits="userSpaceOnUse" fx="824.33" fy="111.252"/><radialGradient cx="824.329" cy="111.252" r="46.312" xlink:href="#a" gradientUnits="userSpaceOnUse" gradientTransform="matrix(1.046 0 0 1.046 -921.689 -100.566)" fx="824.329" fy="111.252"/><linearGradient id="z" x1="84.022" x2="75.07" y1="233.44" y2="233.44" xlink:href="#m" gradientUnits="userSpaceOnUse" gradientTransform="matrix(0 -1 -1 0 259.812 95.129)"/><linearGradient id="m" x1="84.022" x2="75.07" y1="233.44" y2="233.44" gradientTransform="matrix(0 -1 -1 0 259.812 95.129)" gradientUnits="userSpaceOnUse"><stop offset="0" stop-color="#E96712"/><stop offset=".648" stop-color="#D4290C"/><stop offset="1" stop-color="#CB1009"/></linearGradient><radialGradient id="n" cx="824.329" cy="111.252" r="46.312" xlink:href="#a" gradientUnits="userSpaceOnUse" gradientTransform="translate(-823.738 -75.782)" fx="824.329" fy="111.252"/><radialGradient id="o" cx="804.052" cy="127.362" r="71.221" xlink:href="#b" gradientUnits="userSpaceOnUse" fx="804.052" fy="127.362"/><radialGradient id="p" cx="824.328" cy="111.252" r="46.311" xlink:href="#c" gradientUnits="userSpaceOnUse" fx="824.328" fy="111.252"/><radialGradient id="q" cx="824.331" cy="111.252" r="46.304" xlink:href="#d" gradientUnits="userSpaceOnUse" fx="824.331" fy="111.252"/><radialGradient id="r" cx="824.325" cy="111.252" r="46.319" xlink:href="#e" gradientUnits="userSpaceOnUse" fx="824.325" fy="111.252"/><radialGradient id="s" cx="824.327" cy="111.253" r="46.314" xlink:href="#f" gradientUnits="userSpaceOnUse" fx="824.327" fy="111.253"/><radialGradient id="t" cx="824.326" cy="111.252" r="46.315" xlink:href="#g" gradientUnits="userSpaceOnUse" fx="824.326" fy="111.252"/><radialGradient id="u" cx="824.328" cy="111.252" r="46.311" xlink:href="#h" gradientUnits="userSpaceOnUse" fx="824.328" fy="111.252"/><radialGradient id="v" cx="824.328" cy="111.253" r="46.311" xlink:href="#i" gradientUnits="userSpaceOnUse" fx="824.328" fy="111.253"/><radialGradient id="w" cx="824.328" cy="111.251" r="46.31" xlink:href="#j" gradientUnits="userSpaceOnUse" fx="824.328" fy="111.251"/><radialGradient id="x" cx="824.325" cy="111.253" r="46.316" xlink:href="#k" gradientUnits="userSpaceOnUse" fx="824.325" fy="111.253"/><radialGradient id="y" cx="824.33" cy="111.252" r="46.307" xlink:href="#l" gradientUnits="userSpaceOnUse" fx="824.33" fy="111.252"/></defs><g><g><path fill-opacity=".376" d="M41.1 2.84c-.17 0-.3.04-.45.1C32.13 5.9 10.57 17 .87 24.45c-.65.5-.62 1.28-.4 1.9.33 1 3.4 6.17 5.78 9.26.37.5 1.95-.5 1.75-1-.62-1.5-2.9-6.17-2.63-6.56.62-.48 1.2-.92 1.8-1.38.52.86 1.7 2.97 3.54 6.6.14.24 1.15-.37 1-.63-.1-.22-2.64-5.16-3.42-6.78.9-.66 1.8-1.32 2.68-1.94.62.98 2.1 3.5 3.88 7 .13.25 1.14-.4 1-.65-.12-.23-3.04-5.67-3.75-7.1.83-.58 1.66-1.17 2.5-1.72.64.98 2.3 3.64 4.2 7.13.14.24 1.15-.4 1-.67-1.32-2.4-3.48-6-4.12-7.15.86-.55 1.7-1.08 2.53-1.6.58.84 2.37 3.6 4.45 7.16.13.25 1.15-.38 1-.63-1.7-2.68-3.74-6.28-4.28-7.24.83-.5 1.68-.97 2.5-1.43.52.7 2.33 3.32 4.53 7.1.13.24 1.14-.38 1-.63-1.33-2.43-3.75-6-4.44-7.1.84-.46 1.68-.88 2.5-1.3.58.75 2.36 3.22 4.66 6.83.13.25 1.08-.28.94-.53-1.48-2.54-3.74-5.7-4.5-6.87.84-.44 1.7-.88 2.53-1.28.43.6 2.06 2.93 4.65 6.65.13.25 1.07-.27.93-.53-.6-1.14-3.45-5.13-4.47-6.66.83-.37 1.64-.77 2.45-1.14.68.9 2.68 3.6 4.6 6.28.12.24 1.1-.3.93-.53-.92-1.44-3.4-4.77-4.43-6.2.8-.37 1.62-.73 2.43-1.07.8.96 2.65 3.25 4.47 5.8.13.26 1.1-.28.94-.52-.9-1.38-3.22-4.34-4.3-5.77.83-.35 1.68-.67 2.5-1 .68.8 2.32 2.78 4.16 5.37.13.25 1.1-.3.94-.53-1.7-2.38-3.25-4.3-4-5.28.4-.17.8-.32 1.22-.48.44-.2 3.87 4.25 4.4 4.75.2.2 1.65-.77 1.38-1.22-1.47-2.48-4.56-6.8-5.25-7.6-.52-.58-1.08-.74-1.56-.7z"/><g><g fill="none" stroke="#803912" stroke-width="1.242"><path d="M8.1 23.12c.03.26 3.63 7.23 3.77 7.5.14.24-.87.87-1 .62-2.23-4.38-3.76-7.12-3.93-7.3-.1-.13 1.12-.94 1.15-.82z"/><path d="M11.96 20.57c.05.25 3.9 7.42 4.04 7.67.14.26-.87.9-1 .64-2.23-4.38-4.04-7.3-4.2-7.5-.12-.12 1.14-.94 1.16-.8z"/><path d="M15.56 18.23c.05.25 2.86 4.87 4.4 7.67.14.25-.87.88-1 .63-2.3-4.25-4.36-7.4-4.53-7.6-.1-.1 1.1-.83 1.13-.7z"/><path d="M22.83 13.88c.05.25 3.18 4.77 4.72 7.57.14.25-.87.88-1 .63-2.46-4.2-4.68-7.38-4.85-7.57-.1-.1 1.1-.75 1.13-.62z"/><path d="M26.37 11.9c.05.26 3.08 4.42 4.85 7.46.15.25-.8.78-.94.54-2.62-4.12-4.9-7.18-5.06-7.37-.1-.13 1.13-.75 1.15-.62z"/><path d="M29.9 9.96c.05.25 4.22 6 4.93 7.37.14.26-.8.8-.93.54-2.82-4.05-4.92-7.06-5.1-7.25-.1-.13 1.08-.8 1.1-.66z"/><path d="M33.4 8.3c.05.26 3.8 5.16 4.95 6.97.15.24-.8.78-.93.53-2.2-3.1-4.9-6.72-5.07-6.9-.1-.14 1.03-.72 1.05-.6z"/><path d="M36.88 6.66c.05.26 3.72 4.8 4.87 6.6.15.24-.8.78-.94.54-2.2-3.1-4.92-6.37-5.1-6.56-.1-.13 1.16-.7 1.18-.58z"/><path d="M40.58 5.33c.04.25 2.12 2.73 4.47 6 .17.24-.8.8-.94.54-2.2-3.1-4.5-5.83-4.66-6.02-.1-.13 1.1-.65 1.14-.52z"/><path d="M19.18 15.83c.12.23 2.73 4.82 4.62 7.83.15.24-.87.88-1 .63-2.36-4.04-4.63-7.56-4.8-7.75-.1-.13 1.07-.9 1.18-.72z"/></g><path fill="url(#n)" stroke="#803912" stroke-width=".669" d="M40.28 19.28c.4-.2 3.7 4.05 4.2 4.53.2.2 1.6-.72 1.33-1.15-1.4-2.37-4.36-6.52-5.02-7.26-.66-.76-1.37-.8-1.92-.6-8.14 2.82-28.73 13.46-38 20.57-.62.48-.58 1.22-.38 1.82.32.92 3.24 5.88 5.52 8.84.36.46 1.87-.46 1.67-.94-.6-1.43-2.77-5.92-2.52-6.3C18 28.93 28.55 23.84 40.28 19.3z" transform="matrix(1.046 0 0 1.046 .143 -14.586)"/><g transform="matrix(1.046 0 0 1.046 -861.487 -93.854)"><radialGradient cx="804.052" cy="127.362" r="71.221" gradientUnits="userSpaceOnUse" fy="127.362" fx="804.052"><stop offset=".006" stop-color="#FAAF3E"/><stop offset=".646" stop-color="#F17912"/><stop offset="1" stop-color="#DD680E"/></radialGradient><path fill="url(#o)" d="M863.54 93.9c-11.92 4.64-22.52 9.77-35.42 19.7l-.16.12-.1.17s-.25.75-.25.75c0 .67.4 1.67 1.95 5.13l.58 1.3s0-.08.02-.1c.1.24.2.53.2.53l.82-.47-.22-.33-.58-1.3c-1.26-2.8-1.86-4.2-1.86-4.75l.1-.26s0-.03.02-.05c.03-.02.05-.04.05-.04 12.8-9.85 23.35-14.95 35.22-19.57.4-.18.9.24 3.5 3.38 0 0 .73.86.73.86l.7-.6-.74-.83c-2.78-3.34-3.48-4.1-4.56-3.63z"/></g><g transform="matrix(1.046 0 0 1.046 -861.487 -93.854)"><radialGradient cx="824.328" cy="111.252" r="46.311" gradientUnits="userSpaceOnUse" fy="111.252" fx="824.328"><stop offset=".006" stop-color="#FAAF3E"/><stop offset=".646" stop-color="#F17912"/><stop offset="1" stop-color="#DD680E"/></radialGradient><path fill="url(#p)" d="M831.33 111.83c.05.24 3.5 6.92 3.62 7.16.13.23-.83.83-.95.6-2.14-4.2-3.6-6.8-3.76-7-.1-.12 1.07-.9 1.1-.77z"/><radialGradient cx="824.331" cy="111.252" r="46.304" gradientUnits="userSpaceOnUse" fy="111.252" fx="824.331"><stop offset=".006" stop-color="#FAAF3E"/><stop offset=".646" stop-color="#F17912"/><stop offset="1" stop-color="#DD680E"/></radialGradient><path fill="url(#q)" d="M835.04 109.4c.04.23 3.73 7.1 3.86 7.33.13.24-.83.84-.95.6-2.14-4.18-3.87-6.97-4.03-7.16-.1-.12 1.1-.9 1.12-.77z"/><radialGradient cx="824.325" cy="111.252" r="46.319" gradientUnits="userSpaceOnUse" fy="111.252" fx="824.325"><stop offset=".006" stop-color="#FAAF3E"/><stop offset=".646" stop-color="#F17912"/><stop offset="1" stop-color="#DD680E"/></radialGradient><path fill="url(#r)" d="M838.48 107.15c.04.24 2.73 4.66 4.2 7.34.13.23-.83.83-.95.6-2.2-4.07-4.17-7.08-4.34-7.26-.1-.13 1.06-.8 1.08-.7z"/><radialGradient cx="824.327" cy="111.253" r="46.314" gradientUnits="userSpaceOnUse" fy="111.253" fx="824.327"><stop offset=".006" stop-color="#FAAF3E"/><stop offset=".646" stop-color="#F17912"/><stop offset="1" stop-color="#DD680E"/></radialGradient><path fill="url(#s)" d="M845.43 103c.05.23 3.04 4.55 4.5 7.23.14.24-.82.84-.95.6-2.35-4.02-4.47-7.05-4.63-7.23-.1-.12 1.06-.73 1.08-.6z"/><radialGradient cx="824.326" cy="111.252" r="46.315" gradientUnits="userSpaceOnUse" fy="111.252" fx="824.326"><stop offset=".006" stop-color="#FAAF3E"/><stop offset=".646" stop-color="#F17912"/><stop offset="1" stop-color="#DD680E"/></radialGradient><path fill="url(#t)" d="M848.8 101.1c.06.25 2.96 4.23 4.65 7.14.14.24-.77.75-.9.5-2.5-3.92-4.68-6.85-4.84-7.04-.1-.12 1.1-.7 1.1-.6z"/><radialGradient cx="824.328" cy="111.252" r="46.311" gradientUnits="userSpaceOnUse" fy="111.252" fx="824.328"><stop offset=".006" stop-color="#FAAF3E"/><stop offset=".646" stop-color="#F17912"/><stop offset="1" stop-color="#DD680E"/></radialGradient><path fill="url(#u)" d="M852.2 99.25c.04.24 4.02 5.74 4.7 7.05.13.24-.77.75-.9.5-2.7-3.86-4.7-6.74-4.85-6.92-.1-.12 1.02-.75 1.04-.63z"/><radialGradient cx="824.328" cy="111.253" r="46.311" gradientUnits="userSpaceOnUse" fy="111.253" fx="824.328"><stop offset=".006" stop-color="#FAAF3E"/><stop offset=".646" stop-color="#F17912"/><stop offset="1" stop-color="#DD680E"/></radialGradient><path fill="url(#v)" d="M855.54 97.67c.04.24 3.62 4.92 4.72 6.65.15.23-.77.75-.9.52-2.1-2.97-4.67-6.43-4.83-6.62-.1-.12.98-.67 1-.55z"/><radialGradient cx="824.328" cy="111.251" r="46.31" gradientUnits="userSpaceOnUse" fy="111.251" fx="824.328"><stop offset=".006" stop-color="#FAAF3E"/><stop offset=".646" stop-color="#F17912"/><stop offset="1" stop-color="#DD680E"/></radialGradient><path fill="url(#w)" d="M858.86 96.1c.04.24 3.55 4.58 4.65 6.3.16.24-.76.75-.88.52-2.1-2.97-4.72-6.1-4.88-6.27-.1-.12 1.1-.68 1.12-.55z"/><radialGradient cx="824.325" cy="111.253" r="46.316" gradientUnits="userSpaceOnUse" fy="111.253" fx="824.325"><stop offset=".006" stop-color="#FAAF3E"/><stop offset=".646" stop-color="#F17912"/><stop offset="1" stop-color="#DD680E"/></radialGradient><path fill="url(#x)" d="M862.4 94.83c.04.24 2.03 2.6 4.27 5.73.16.23-.77.75-.9.52-2.1-2.97-4.3-5.58-4.46-5.76-.1-.12 1.07-.62 1.1-.5z"/><radialGradient cx="824.33" cy="111.252" r="46.307" gradientUnits="userSpaceOnUse" fy="111.252" fx="824.33"><stop offset=".006" stop-color="#FAAF3E"/><stop offset=".646" stop-color="#F17912"/><stop offset="1" stop-color="#DD680E"/></radialGradient><path fill="url(#y)" d="M841.94 104.86c.1.22 2.6 4.6 4.4 7.5.16.22-.82.83-.94.6-2.26-3.86-4.42-7.23-4.58-7.4-.1-.13 1.02-.88 1.12-.7z"/></g></g></g><g><path fill="#cb1009" stroke="#590b08" stroke-width=".50048" d="M32.46 47.17c.45.46 1.2.46 1.66 0L47.35 35v.02c.1-.1.18-.26.18-.43 0-.33-.27-.6-.6-.6h-27.3c-.32 0-.58.27-.58.6 0 .15.06.3.17.4l.02.03c2.97 3.06 13.22 12.14 13.22 12.14z"/><path fill="url(#z)" d="M23.06 23.62v-7.37s-1.13-3.97-1.8-4.4c-.97-.63-2-.74-2-.74h8.77s3.24.35 4.46 1.9c.42.56 1 1.77 1 1.77v8.85H23.05z" transform="matrix(1.36 0 0 1.36 -5.164 7.455)"/><path fill="none" stroke="#590b08" stroke-width=".50048" d="M26.2 34v-4.45.52c0-4.44-3.23-7.5-5.18-7.5H31.6c5.34 0 8.8 2.33 8.8 6.33V34"/><path fill="none" stroke="#f62724" stroke-width=".9996" d="M33.3 46.52c-1.53-1.36-9.1-8.32-12.62-11.65"/><path fill="none" stroke="#f62724" stroke-width=".9996" d="M27.26 34v-4.45"/></g></g></svg>