<svg xmlns="http://www.w3.org/2000/svg" width="48" height="48" xmlns:xlink="http://www.w3.org/1999/xlink"><defs><linearGradient id="l"><stop offset="0" stop-color="#eeeeec"/><stop offset="1" stop-color="#c9c9c2"/></linearGradient><linearGradient id="k"><stop offset="0" stop-color="#ef2929"/><stop offset="1" stop-color="#9a0c0c"/></linearGradient><linearGradient id="j"><stop offset="0" stop-color="#710000"/><stop offset="1" stop-color="#710000" stop-opacity="0"/></linearGradient><linearGradient><stop offset="0" stop-color="#f34545"/><stop offset="1" stop-color="#c00c0c"/></linearGradient><linearGradient><stop offset="0" stop-color="#f44e4e" stop-opacity="0"/><stop offset=".406" stop-color="#f34545" stop-opacity="0"/><stop offset=".901" stop-color="#d03b3b"/><stop offset="1" stop-color="#f33c3c" stop-opacity="0"/></linearGradient><linearGradient id="i"><stop offset="0" stop-color="#c00c0c"/><stop offset="1" stop-color="#930909"/></linearGradient><linearGradient id="h"><stop offset="0" stop-color="#fff"/><stop offset="1" stop-color="#c1c1c1"/></linearGradient><linearGradient id="e"><stop offset="0" stop-color="#ef2929"/><stop offset="1" stop-color="#920b0b"/></linearGradient><linearGradient id="d"><stop offset="0" stop-color="#ef2929"/><stop offset="1" stop-color="#af0d0d"/></linearGradient><linearGradient><stop offset="0" stop-color="#dbb718"/><stop offset="1" stop-color="#9e830c"/></linearGradient><radialGradient id="u" cx="16.062" cy="12.389" r="7.266" xlink:href="#a" fx="16.062" fy="12.389" gradientTransform="matrix(.812 .098 -.03 .994 -.864 2.334)" gradientUnits="userSpaceOnUse"/><linearGradient id="a"><stop offset="0" stop-color="#fff"/><stop offset="1" stop-color="#c4c4be"/></linearGradient><linearGradient id="v" x1="11.524" x2="24.843" y1="6.607" y2="19.486" xlink:href="#b" gradientUnits="userSpaceOnUse" gradientTransform="matrix(.812 .098 -.027 .893 -.906 3.751)"/><linearGradient id="b"><stop offset="0" stop-color="#888a85"/><stop offset="1" stop-color="#5c5e5a"/></linearGradient><radialGradient cx="22.648" cy="8.241" r="5.256" xlink:href="#c" fx="22.648" fy="8.241" gradientTransform="matrix(1.473 -.018 .16 .627 -12.025 3.057)" gradientUnits="userSpaceOnUse"/><linearGradient id="c"><stop offset="0" stop-color="#c4a000"/><stop offset="1" stop-color="#c4a000" stop-opacity="0"/></linearGradient><linearGradient><stop offset="0" stop-color="#4f595c"/><stop offset=".214" stop-color="#6c7a7e"/><stop offset="1" stop-color="#232829"/></linearGradient><radialGradient cx="22.848" cy="8.308" r="5.256" xlink:href="#c" fx="22.848" fy="8.308" gradientTransform="matrix(1.622 .051 -.041 .435 -13.88 3.069)" gradientUnits="userSpaceOnUse"/><radialGradient cx="98.64" cy="27.939" r="25.13" xlink:href="#d" fx="98.64" fy="27.939" gradientTransform="matrix(.899 .403 -.332 .739 18.643 -22.151)" gradientUnits="userSpaceOnUse"/><radialGradient id="p" cx="22.525" cy="45.684" r="25.13" xlink:href="#e" fx="22.525" fy="45.684" gradientTransform="matrix(.882 -.665 .325 .432 -12.187 15.403)" gradientUnits="userSpaceOnUse"/><linearGradient id="f"><stop offset="0" stop-color="#ef2929"/><stop offset="1" stop-color="#af0d0d"/></linearGradient><radialGradient cx="98.64" cy="27.939" r="25.13" fy="27.939" fx="98.64" gradientTransform="matrix(.899 .403 -.332 .739 -49.284 -45.651)" gradientUnits="userSpaceOnUse" xlink:href="#f"/><linearGradient id="g"><stop offset="0" stop-color="#ef2929"/><stop offset="1" stop-color="#920b0b"/></linearGradient><radialGradient cx="22.525" cy="45.684" r="25.13" fy="45.684" fx="22.525" gradientTransform="matrix(.936 -.308 .15 .457 -6.913 -2.569)" gradientUnits="userSpaceOnUse" xlink:href="#g"/><linearGradient id="r" x1="10.96" x2="25.506" y1="24.238" y2="24.238" xlink:href="#h" gradientUnits="userSpaceOnUse" gradientTransform="matrix(1.061 -.36 .361 1.063 -11.087 3.937)"/><linearGradient id="q" x1="10.821" x2="38.607" y1="16.998" y2="16.998" xlink:href="#i" gradientUnits="userSpaceOnUse" gradientTransform="matrix(1.061 -.36 .361 1.063 -11.087 3.937)"/><linearGradient id="s" x1="13.435" x2="37.224" y1="11.483" y2="11.483" xlink:href="#j" gradientUnits="userSpaceOnUse"/><linearGradient id="t" x1="25.657" x2="25.911" y1="8.719" y2="16.295" xlink:href="#k" gradientUnits="userSpaceOnUse" gradientTransform="matrix(1.061 -.36 .348 1.026 -10.993 4.213)"/><linearGradient id="o" x1="15.482" x2="20.479" y1="39.797" y2="39.797" xlink:href="#l" gradientUnits="userSpaceOnUse" gradientTransform="matrix(.947 -.322 .322 .947 -6.605 7.581)"/><radialGradient cx="20.87" cy="54.457" r="16.18" fy="54.457" fx="20.87" gradientTransform="matrix(1.284 -.011 .007 1.347 -3.096 -48.865)" gradientUnits="userSpaceOnUse" xlink:href="#m"/><linearGradient id="m"><stop offset="0" stop-color="#fff"/><stop offset=".705" stop-color="#fff"/><stop offset="1" stop-color="#fcaf3e"/></linearGradient><radialGradient id="n" cx="20.87" cy="54.457" r="16.18" fy="54.457" fx="20.87" gradientTransform="matrix(1.284 -.011 .007 1.347 -3.096 -48.865)" gradientUnits="userSpaceOnUse" xlink:href="#m"/></defs><g><path fill="url(#n)" fill-rule="evenodd" stroke="#ce5c00" stroke-width="3.819" d="M46.14 23.93a21.93 21.93 0 1 1-43.85 0 21.93 21.93 0 1 1 43.84 0z" transform="matrix(.524 0 0 .524 22.775 22.841)" color="#000" stroke-dasharray="3.81889124, 3.81889124" overflow="visible" enable-background="accumulate"/><path fill="none" stroke="#000" d="M23.6 41.56c.52 2.5-.45 4.1-1.82 5.47" color="#000" stroke-linecap="round" overflow="visible" enable-background="accumulate"/><path fill="none" stroke="#000" d="M24.53 41.3c.8 2.1 2.1 3.38 3.63 4.26" color="#000" stroke-linecap="round" overflow="visible" enable-background="accumulate"/><path fill="none" stroke="#fff" d="M23.38 40.9c.5 2.48-.46 4.1-1.82 5.46" color="#000" stroke-linecap="round" overflow="visible" enable-background="accumulate"/><path fill="none" stroke="#fff" d="M24.3 40.63c.8 2.1 2.1 3.38 3.64 4.26" color="#000" stroke-linecap="round" overflow="visible" enable-background="accumulate"/><path fill="url(#o)" stroke="#888a85" stroke-width=".5" d="M20.36 38.06l2.07 4.34c1.24.66 2.88.1 3.47-1.25l-1.36-4.77c-1.62-.57-3.54.1-4.18 1.68z"/><path fill="none" stroke="#000" d="M34.33 20.53c1.4 4.27-10.9 13.4-11.03 17.3" stroke-linecap="round"/><path fill="none" stroke="#fff" d="M33.95 20.18c1.4 4.27-10.92 13.4-11.04 17.3" stroke-linecap="round"/><path fill="none" stroke="#000" d="M14.3 28.82c1 3.68 6.44 7.05 7.5 9.35" color="#000" stroke-linecap="round" overflow="visible" enable-background="accumulate"/><path fill="none" stroke="#fff" d="M14.93 28.6c1 3.7 6.44 7.06 7.5 9.36" color="#000" stroke-linecap="round" overflow="visible" enable-background="accumulate"/><path fill="url(#p)" stroke="#720000" stroke-width=".5" d="M5.9 32.73c-1.5-.5-4.22-2.43-5-4.68-.65-1.85-.55-4.94.6-8.03 1.1-2.96 3.18-5.92 6-7.65l27.24-3.02c3.6-.33 6.12.53 8.06 1.03.4.12 1.8-.86 2.2.28.25.74-2.44 2.78-2.74 3.25-.3.5-4.72 4.33-9.62 7.8-5.74 4.08-12.1 7.85-12.7 8.12-.62.27-3.24 2-5.2 2.78-2 .8-7.36.64-8.85.13z" color="#000" overflow="visible" enable-background="accumulate"/><path fill="url(#q)" stroke="#720000" stroke-width=".5" d="M8.84 21.42c-.25-2-1.35-10.04-1.46-11.14-.2-2.48 6.3-7.07 11.26-8.4C23.6.55 27.86-.27 31.06 1.33c.9.37 1.2.82 1.43 1.6.8 2.54 2.62 7.6 3.06 8.57.4.94 2.08 2.26 2.08 2.26L24.02 24.18c-3.27 1.6-9.65 2.67-13.1 1.96-.85-.17-1.63-.77-2.04-1.98-.37-1.1.05-2-.04-2.74z" color="#000" overflow="visible" enable-background="accumulate"/><path fill="url(#r)" d="M8.57 21.7c1.35 3.17 8.87 3.36 17.56-.2l-2.4 2.96C18.48 26.33 10.13 27.8 8.7 24z"/><path fill="#c00" stroke="#720000" stroke-width=".5" d="M15.9 32.1c1.9-1.6 7.17-6.86 9-9 1.96-2.32 5.43-6.22 9.1-8.83 3.65-2.62 10.18-4.65 10.92-3.8.74.85-5.32 5.95-10.1 9.68C30.05 23.9 21 29.3 15.9 32.1z" color="#000" overflow="visible" enable-background="accumulate"/><path fill="none" stroke="#fff" d="M6.2 13.35l1.32.33" stroke-linecap="round"/><path fill="none" stroke="#fff" d="M3.2 16.46c.97-.26 1.86-.37 2.65-.3" stroke-linecap="round"/><path fill="none" stroke="#fff" d="M1.1 21.4c.52-1.38 1.7-1.72 2.65-1.95" stroke-linecap="round"/><path fill="none" stroke="#fff" d="M.64 26.08c.24-1.27 1-2.03 1.88-2.68" stroke-linecap="round"/><path fill="none" stroke="#fff" d="M2.76 30.8c-.15-.95.13-1.84.57-2.7" stroke-linecap="round"/><path fill="none" stroke="#fff" d="M7.6 33.23c-.53-.78-1.1-1.76-1.26-2.8" stroke-linecap="round"/><path fill="none" stroke="#fff" d="M12.5 33.3L10 31.4" stroke-linecap="round"/><path fill="none" stroke="#fff" d="M16.72 31.45l-2.24-.8" stroke-linecap="round"/><path fill="none" stroke="#fff" d="M20.16 28c1.8-.02 2.93-1.1 4.15-2" stroke-linecap="round"/><path fill="none" stroke="#fff" d="M24.73 23.16l2.6-.18" stroke-linecap="round"/><path fill="none" stroke="#fff" d="M28.72 19.12l2.16.5" stroke-linecap="round"/><path fill="none" stroke="#fff" d="M32.8 15.3c1.2-.35 2.62.1 3.1.83" stroke-linecap="round"/><path fill="none" stroke="#fff" d="M38.55 12.07c.73.17 1.42.8 1.8 1.35" stroke-linecap="round"/><path fill="none" stroke="#fff" d="M42.63 10.6c.9.6 1 1.32.97 1.96" stroke-linecap="round"/><path fill="url(#s)" d="M37.22 11.48a11.9 5 0 1 1-23.78 0 11.9 5 0 1 1 23.78 0z" transform="matrix(.968 -.329 .304 .896 -7.912 5.259)" color="#000" overflow="visible" enable-background="accumulate"/><path fill="url(#t)" d="M18.76 3.94c-5.6 1.9-9.37 5.74-8.42 8.54.03.08.08.14.1.22 2.4.84 6.64.53 11.17-1 4.2-1.42 7.55-3.5 9.13-5.5-.02-.2-.07-.4-.13-.6-.95-2.8-6.25-3.56-11.84-1.66z" color="#000" overflow="visible" enable-background="accumulate"/><path fill="#2e3436" d="M13.97 10.75c-.7-.1-1.3.47-1.3 1.27-.03.7.37 1.33.93 1.54l-.58 2.48-1.57.5c-.2-.48-.6-.85-1.1-.9-.7-.1-1.28.5-1.3 1.3-.03.78.52 1.5 1.22 1.6.38.04.7-.1.95-.37l1.5 1.16.1 2.48c-.62.03-1.1.57-1.13 1.3-.04.8.5 1.5 1.2 1.57.72.1 1.33-.46 1.35-1.26 0-.43-.16-.84-.42-1.13l1.64-1.37 2.1.8c-.03.1-.04.23-.04.34-.03.8.52 1.5 1.23 1.58.7.08 1.28-.47 1.3-1.27.03-.8-.52-1.52-1.22-1.6-.2-.03-.4.02-.56.1l-.8-2.23 1-1.56c.2.18.45.3.72.34.7.1 1.3-.5 1.3-1.3.03-.8-.5-1.52-1.22-1.6-.65-.08-1.18.43-1.28 1.13l-2-.02-1.45-2.12c.37-.2.63-.63.65-1.15.02-.8-.53-1.5-1.23-1.58z" color="#000" overflow="visible" enable-background="accumulate"/><path fill="url(#u)" stroke="url(#v)" stroke-width=".52" d="M12.72 10.85c-.7-.08-1.28.47-1.3 1.27-.03.7.38 1.33.94 1.54l-.58 2.48-1.57.5c-.2-.47-.6-.85-1.1-.9-.7-.1-1.28.5-1.3 1.3-.02.8.52 1.5 1.23 1.6.37.04.7-.1.95-.37l1.5 1.17.1 2.47c-.62.04-1.12.57-1.14 1.3-.02.8.53 1.5 1.23 1.58.7.08 1.3-.47 1.34-1.27.02-.42-.16-.83-.42-1.13L14.23 21l2.1.8c-.03.1-.04.24-.05.34-.02.8.53 1.5 1.23 1.58.7.1 1.3-.47 1.32-1.27.03-.8-.52-1.52-1.22-1.6-.2-.03-.4.02-.57.1l-.8-2.23 1.02-1.55c.2.18.44.3.7.33.7.1 1.3-.5 1.3-1.3.04-.8-.5-1.5-1.2-1.6-.66-.08-1.2.43-1.3 1.14l-2-.02-1.45-2.14c.38-.2.64-.63.65-1.15.02-.8-.52-1.5-1.23-1.58z" color="#000" overflow="visible" enable-background="accumulate"/></g></svg>