<svg xmlns="http://www.w3.org/2000/svg" width="48" height="48" xmlns:xlink="http://www.w3.org/1999/xlink"><defs><linearGradient id="h"><stop offset="0" stop-color="#fcaf3e" stop-opacity="0"/><stop offset=".463" stop-color="#fcaf3e" stop-opacity="0"/><stop offset="1" stop-color="#fcaf3e"/></linearGradient><linearGradient id="g"><stop offset="0" stop-color="#fce94f"/><stop offset="1" stop-color="#fce94f" stop-opacity="0"/></linearGradient><linearGradient id="a"><stop offset="0" stop-color="#fff"/><stop offset="1" stop-color="#fff" stop-opacity="0"/></linearGradient><linearGradient id="s" x1="13.236" x2="7.752" y1="37.752" y2="42.282" xlink:href="#a" gradientUnits="userSpaceOnUse" gradientTransform="matrix(.639 0 0 .639 -1.348 2.818)"/><linearGradient id="b"><stop offset="0" stop-color="#696969"/><stop offset="1"/></linearGradient><radialGradient id="r" cx="15.415" cy="35.357" r="7.579" xlink:href="#b" gradientUnits="userSpaceOnUse" gradientTransform="matrix(.746 0 0 .727 -3.528 .127)" fx="15.415" fy="35.357"/><linearGradient id="c"><stop offset="0" stop-color="#bdbdbd"/><stop offset=".333" stop-color="#e2e2e2"/><stop offset=".667" stop-color="#a3a3a3"/><stop offset="1" stop-color="#ddd"/></linearGradient><linearGradient id="q" x1="19.395" x2="23.109" y1="30.001" y2="33.439" xlink:href="#c" gradientUnits="userSpaceOnUse" gradientTransform="matrix(.75 0 0 .75 -3.021 -1.35)"/><linearGradient id="d"><stop offset="0" stop-color="#6e3d09"/><stop offset=".242" stop-color="#ea8113"/><stop offset=".621" stop-color="#5c3307"/><stop offset="1" stop-color="#e07c12"/></linearGradient><linearGradient id="p" x1="28.059" x2="33.437" y1="18.868" y2="23.743" xlink:href="#d" gradientUnits="userSpaceOnUse" gradientTransform="matrix(.75 0 0 .75 -3.021 -1.35)"/><linearGradient id="f"><stop offset="0" stop-color="#545f63"/><stop offset="1" stop-color="#2e3436"/></linearGradient><linearGradient id="e"><stop offset="0" stop-color="#e8e9e7"/><stop offset="1" stop-color="#7f8578"/></linearGradient><radialGradient cx="8.12" cy="33.511" r="2.582" xlink:href="#e" gradientUnits="userSpaceOnUse" fx="8.12" fy="33.511"/><linearGradient x1="6.723" x2="10.363" y1="32.25" y2="35.862" xlink:href="#f" gradientUnits="userSpaceOnUse"/><radialGradient id="j" cx="8.12" cy="33.511" r="2.582" xlink:href="#e" gradientUnits="userSpaceOnUse" fx="8.12" fy="33.511"/><linearGradient id="k" x1="6.723" x2="10.363" y1="32.25" y2="35.862" xlink:href="#f" gradientUnits="userSpaceOnUse"/><radialGradient id="l" cx="8.12" cy="33.511" r="2.582" xlink:href="#e" gradientUnits="userSpaceOnUse" fx="8.12" fy="33.511"/><linearGradient id="m" x1="6.723" x2="10.363" y1="32.25" y2="35.862" xlink:href="#f" gradientUnits="userSpaceOnUse"/><radialGradient id="n" cx="8.12" cy="33.511" r="2.582" xlink:href="#e" gradientUnits="userSpaceOnUse" fx="8.12" fy="33.511"/><linearGradient id="o" x1="6.723" x2="10.363" y1="32.25" y2="35.862" xlink:href="#f" gradientUnits="userSpaceOnUse"/><linearGradient x1="20.16" x2="10.571" y1="43.714" y2="16.136" xlink:href="#g" gradientUnits="userSpaceOnUse"/><linearGradient x1="1.619" x2="25.775" y1="23.708" y2="23.708" xlink:href="#h" gradientUnits="userSpaceOnUse"/><linearGradient id="i" x1="10.285" x2="21.299" y1="3.708" y2="44.47" xlink:href="#h" gradientUnits="userSpaceOnUse" gradientTransform="translate(.476 .286)"/></defs><g color="#000"><path fill="url(#i)" fill-rule="evenodd" stroke="#ce5c00" stroke-width="2" d="M17.9 2.14c5.3 2.43 6.58 7.1 5.1 10.34-1.43 3.14-5.55 6.8-5.48 11.8.1 6.34 3 7.53 5.24 9.53 2.7 2.4 3.68 8.04.53 10.68-2.97 2.47-7.6 2.66-10.97-.77-3.2-3.23-9.28-6.7-9.23-19.5.02-7.52 1.76-11.28 4.8-17.1 1.6-3.07 6.12-6.74 10-4.96z" stroke-dasharray="1.99999999, 1.99999999" overflow="visible"/><g stroke-linejoin="round"><path fill="url(#j)" fill-rule="evenodd" stroke="url(#k)" stroke-width=".593" d="M10.86 34a2.3 2.3 0 1 1-4.57 0 2.3 2.3 0 1 1 4.56 0z" transform="matrix(1.688 0 0 1.688 .131 -47.732)" overflow="visible"/><path fill="none" stroke="#eeeeec" stroke-opacity=".502" stroke-width=".94" d="M11.3 34a2.73 2.65 0 1 1-5.45 0 2.73 2.65 0 1 1 5.45 0z" transform="matrix(1.048 0 0 1.079 5.608 -27.034)" overflow="visible"/></g><g stroke-linejoin="round"><path fill="url(#l)" fill-rule="evenodd" stroke="url(#m)" stroke-width=".593" d="M10.86 34a2.3 2.3 0 1 1-4.57 0 2.3 2.3 0 1 1 4.56 0z" transform="matrix(1.688 0 0 1.688 -4.345 -33.018)" overflow="visible"/><path fill="none" stroke="#eeeeec" stroke-opacity=".502" stroke-width=".94" d="M11.3 34a2.73 2.65 0 1 1-5.45 0 2.73 2.65 0 1 1 5.45 0z" transform="matrix(1.048 0 0 1.079 1.132 -12.32)" overflow="visible"/></g><g stroke-linejoin="round"><path fill="url(#n)" fill-rule="evenodd" stroke="url(#o)" stroke-width=".593" d="M10.86 34a2.3 2.3 0 1 1-4.57 0 2.3 2.3 0 1 1 4.56 0z" transform="matrix(1.688 0 0 1.688 2.893 -18.732)" overflow="visible"/><path fill="none" stroke="#eeeeec" stroke-opacity=".502" stroke-width=".94" d="M11.3 34a2.73 2.65 0 1 1-5.45 0 2.73 2.65 0 1 1 5.45 0z" transform="matrix(1.048 0 0 1.079 8.37 1.966)" overflow="visible"/></g><g><path fill="url(#p)" stroke="#673907" stroke-width="1.043" d="M14.65 16.94l3.05 2.85c5.4-5.3 13.33-18 13.33-18 .32-.9-.8-1.5-1.38-.87 0 0-10.27 10.57-15 16z" stroke-linecap="round" overflow="visible" transform="matrix(.959 0 0 .959 17.69 15.392)"/><path fill="url(#q)" stroke="#888a85" stroke-width="1.043" d="M8.95 24.6l1.68 1.46L17 20.54l.2-.53h.83c-.33-1.18-2.2-3.3-3.62-3.3l.08.82-.5.3-5.03 6.8z" stroke-linecap="round" overflow="visible" transform="matrix(.959 0 0 .959 17.69 15.392)"/><path fill="url(#r)" d="M1.23 30.54c4.95 0 8.7.6 9.42-3 .58-2.92-3.42-4.3-5.4-1.7-1.9 2.48-4.02 4.7-4.02 4.7z" overflow="visible" transform="matrix(.959 0 0 .959 17.69 15.392)"/><path fill="#fff" d="M25.73 40.4a.77.77 0 1 1-1.54 0 .77.77 0 1 1 1.53 0z" opacity=".528" overflow="visible"/><path fill="#fff" d="M32.9 33.4a.7.7 0 1 1-1.42 0 .7.7 0 1 1 1.4 0z" overflow="visible"/><path fill="none" stroke="#fff" stroke-width=".96.043" d="M31.22 34.38l-3.8 4.42" stroke-linecap="round" stroke-linejoin="round" overflow="visible"/><path fill="url(#s)" d="M2.2 30.05S4.73 28.82 5.8 27c.38-.66 1.24-.1.7.54-1.13 1.4-4.27 2.5-4.27 2.5z" opacity=".428" overflow="visible" transform="matrix(.959 0 0 .959 17.69 15.392)"/><path fill="#fff" d="M46.76 16.74a.2.2 0 1 1-.43 0 .2.2 0 1 1 .43 0z" opacity=".533" overflow="visible"/></g></g></svg>