<svg xmlns="http://www.w3.org/2000/svg" width="48" height="48" xmlns:xlink="http://www.w3.org/1999/xlink"><defs><linearGradient id="b"><stop offset="0" stop-color="#2541b2"/><stop offset="1"/></linearGradient><linearGradient id="c"><stop offset="0" stop-color="#fff"/><stop offset="1" stop-color="#dadada"/></linearGradient><linearGradient id="a"><stop offset="0" stop-color="#5b9ee7"/><stop offset="1" stop-color="#1e62ba"/></linearGradient><linearGradient id="n" x1="1.962" x2="46.24" y1="6.445" y2="39.881" xlink:href="#a" gradientUnits="userSpaceOnUse" gradientTransform="matrix(.668 -.179 .179 .667 7.799 20.011)"/><linearGradient id="o" x1="19.214" x2="26.488" y1="8.188" y2="20.045" xlink:href="#b" gradientUnits="userSpaceOnUse" gradientTransform="matrix(.796 0 0 .795 9.617 13.404)"/><linearGradient id="p" x1="18.789" x2="44.447" y1="22.948" y2="31.029" xlink:href="#c" gradientUnits="userSpaceOnUse" gradientTransform="matrix(.796 0 0 .795 9.617 13.404)"/><radialGradient cx="20.87" cy="54.457" r="16.18" fy="54.457" fx="20.87" gradientTransform="matrix(1.284 -.011 .007 1.347 -3.096 -48.865)" gradientUnits="userSpaceOnUse" xlink:href="#d"/><linearGradient id="d"><stop offset="0" stop-color="#fff"/><stop offset=".705" stop-color="#fff"/><stop offset="1" stop-color="#fcaf3e"/></linearGradient><radialGradient id="g" cx="20.87" cy="54.457" r="16.18" fy="54.457" fx="20.87" gradientTransform="matrix(1.284 -.011 .007 1.347 -3.096 -48.865)" gradientUnits="userSpaceOnUse" xlink:href="#d"/><radialGradient id="l" cx="8.12" cy="33.511" r="2.582" xlink:href="#e" gradientUnits="userSpaceOnUse" fx="8.12" fy="33.511"/><linearGradient id="e"><stop offset="0" stop-color="#e8e9e7"/><stop offset="1" stop-color="#7f8578"/></linearGradient><linearGradient id="m" x1="6.723" x2="10.363" y1="32.25" y2="35.862" xlink:href="#f" gradientUnits="userSpaceOnUse"/><linearGradient id="f"><stop offset="0" stop-color="#545f63"/><stop offset="1" stop-color="#2e3436"/></linearGradient><radialGradient id="j" cx="8.12" cy="33.511" r="2.582" xlink:href="#e" gradientUnits="userSpaceOnUse" fx="8.12" fy="33.511"/><linearGradient><stop offset="0" stop-color="#e8e9e7"/><stop offset="1" stop-color="#7f8578"/></linearGradient><linearGradient id="k" x1="6.723" x2="10.363" y1="32.25" y2="35.862" xlink:href="#f" gradientUnits="userSpaceOnUse"/><radialGradient id="h" cx="8.12" cy="33.511" r="2.582" xlink:href="#e" gradientUnits="userSpaceOnUse" fx="8.12" fy="33.511"/><linearGradient><stop offset="0" stop-color="#e8e9e7"/><stop offset="1" stop-color="#7f8578"/></linearGradient><linearGradient id="i" x1="6.723" x2="10.363" y1="32.25" y2="35.862" xlink:href="#f" gradientUnits="userSpaceOnUse"/></defs><g><path fill="url(#g)" fill-rule="evenodd" stroke="#ce5c00" stroke-width="2.368" d="M46.14 23.93a21.93 21.93 0 1 1-43.85 0 21.93 21.93 0 1 1 43.84 0z" transform="matrix(.845 0 0 .845 -.986 -.602)" color="#000" stroke-dasharray="2.36809945, 2.36809945" overflow="visible" enable-background="accumulate"/><g color="#000" stroke-linejoin="round"><path fill="url(#h)" fill-rule="evenodd" stroke="url(#i)" stroke-width=".547" d="M10.86 34c0 1.26-1.03 2.3-2.3 2.3-1.25 0-2.27-1.04-2.27-2.3 0-1.26 1-2.3 2.27-2.3 1.26 0 2.3 1.04 2.3 2.3z" transform="matrix(1.828 0 0 1.826 -.428 -51.768)" overflow="visible"/><path fill="none" stroke="#eeeeec" stroke-opacity=".502" stroke-width=".869" d="M11.3 34c0 1.46-1.22 2.65-2.73 2.65-1.5 0-2.72-1.2-2.72-2.65 0-1.46 1.22-2.65 2.72-2.65 1.5 0 2.73 1.2 2.73 2.65z" transform="matrix(1.135 0 0 1.167 5.503 -29.373)" overflow="visible"/></g><g color="#000" stroke-linejoin="round"><path fill="url(#j)" fill-rule="evenodd" stroke="url(#k)" stroke-width=".547" d="M10.86 34c0 1.26-1.03 2.3-2.3 2.3-1.25 0-2.27-1.04-2.27-2.3 0-1.26 1-2.3 2.27-2.3 1.26 0 2.3 1.04 2.3 2.3z" transform="matrix(1.828 0 0 1.826 11.146 -46.884)" overflow="visible"/><path fill="none" stroke="#eeeeec" stroke-opacity=".502" stroke-width=".869" d="M11.3 34c0 1.46-1.22 2.65-2.73 2.65-1.5 0-2.72-1.2-2.72-2.65 0-1.46 1.22-2.65 2.72-2.65 1.5 0 2.73 1.2 2.73 2.65z" transform="matrix(1.135 0 0 1.167 17.077 -24.489)" overflow="visible"/></g><g color="#000" stroke-linejoin="round"><path fill="url(#l)" fill-rule="evenodd" stroke="url(#m)" stroke-width=".547" d="M10.86 34c0 1.26-1.03 2.3-2.3 2.3-1.25 0-2.27-1.04-2.27-2.3 0-1.26 1-2.3 2.27-2.3 1.26 0 2.3 1.04 2.3 2.3z" transform="matrix(1.828 0 0 1.826 -5.533 -37.758)" overflow="visible"/><path fill="none" stroke="#eeeeec" stroke-opacity=".502" stroke-width=".869" d="M11.3 34c0 1.46-1.22 2.65-2.73 2.65-1.5 0-2.72-1.2-2.72-2.65 0-1.46 1.22-2.65 2.72-2.65 1.5 0 2.73 1.2 2.73 2.65z" transform="matrix(1.135 0 0 1.167 .398 -15.363)" overflow="visible"/></g><path fill-rule="evenodd" d="M40.2 16.64c-.14 0-.3 0-.44.05L13.3 23.76c-1.18.32-1.78 1.9-1.33 3.55l5.2 19.42c.24.92 1.42 1.4 2.6 1.1l26.43-7.1c1.2-.3 1.94-1.3 1.7-2.23l-5.2-19.4c-.4-1.45-1.44-2.45-2.5-2.46z" opacity=".3" color="#000" overflow="visible" enable-background="accumulate"/><path fill="url(#n)" fill-rule="evenodd" stroke="url(#o)" d="M12.6 35.28l-2.44-9.13c-.44-1.65.16-3.24 1.35-3.56l26.44-7.08c1.2-.32 2.5.75 2.95 2.4l2.5 9.33-30.8 8.03z" color="#000" overflow="visible" enable-background="accumulate"/><path fill="url(#p)" fill-rule="evenodd" stroke="#000" d="M43.25 26.77l2.85 10.58c.25.92-.5 1.9-1.7 2.23l-26.43 7.07c-1.2.32-2.35-.16-2.6-1.08l-2.9-10.8" color="#000" overflow="visible" enable-background="accumulate"/><g fill="#204a87" font-size="6.973" text-anchor="middle" font-family="Arial Black"><path d="M16.03 23.17l1.2-.32.35 1.35 1.3-.35-.36-1.34 1.2-.3 1.02 3.83-1.2.32-.4-1.56-1.3.34.4 1.56-1.18.3-1.03-3.83z" style="text-align:center;line-height:100%"/><path d="M20.47 21.98l1.07-.28.2.72-1.07.3-.2-.74z" style="text-align:center;line-height:100%"/><path d="M20.76 23.04l1.06-.28.75 2.78-1.07.28-.74-2.78z" style="text-align:center;line-height:100%"/><path d="M22.98 24.3l1.14-.3.23.87c.1.32.1.6 0 .82-.08.2-.26.44-.55.67l-.37-.4c.17-.15.3-.28.34-.4.05-.1.06-.23.04-.36l-.54.15-.28-1.05z" style="text-align:center;line-height:100%"/><path d="M26.1 21.6l1-.26.12.4c.1-.2.2-.36.33-.47.13-.1.3-.2.5-.25.23-.06.4-.07.56-.02.16.04.3.13.42.26.12-.22.24-.4.36-.5.12-.1.3-.17.5-.22.3-.08.55-.06.76.07.22.15.38.4.48.78l.47 1.75-1.08.28-.43-1.57c-.04-.13-.1-.22-.16-.26-.1-.08-.2-.1-.3-.08-.13.03-.22.1-.27.2-.06.12-.06.28 0 .48l.38 1.44-1.07.28-.4-1.53c-.04-.12-.07-.2-.1-.24-.04-.07-.1-.1-.16-.14-.07-.04-.14-.04-.2-.02-.14.03-.22.1-.28.22-.05.1-.05.27 0 .5l.4 1.4-1.08.3-.75-2.8z" style="text-align:center;line-height:100%"/><path d="M31.17 20.26l1.13-.3 1.07 1.7.03-2 1.06-.28-.3 3.27c-.05.37-.1.63-.2.8-.15.2-.4.36-.8.46-.15.06-.4.1-.72.14l-.3-.72c.18 0 .36 0 .55-.06.1-.04.2-.1.27-.17.06-.1.1-.2.1-.37l-1.9-2.47z" style="text-align:center;line-height:100%"/><path d="M15.7 30.37l1-.26.12.46c.1-.23.22-.4.35-.52.13-.12.3-.2.52-.27.3-.08.54-.05.76.08.2.13.37.38.47.75l.47 1.77-1.07.28-.4-1.53c-.06-.17-.13-.3-.2-.34-.1-.06-.2-.07-.3-.04-.14.04-.23.1-.3.23-.04.12-.03.3.03.56l.36 1.34-1.07.3-.74-2.8z" style="text-align:center;line-height:100%"/><path d="M20.5 30.05l-1.04.17c0-.2 0-.35.06-.47.04-.12.12-.24.24-.35.08-.08.2-.15.37-.23.16-.08.34-.14.54-.2.32-.08.6-.13.8-.15.2 0 .38.02.53.1.12.05.22.14.3.27.1.12.16.25.2.4l.33 1.2c.03.15.07.25.1.32.04.07.1.15.2.25l-1 .27c-.07-.06-.1-.1-.13-.14-.03-.04-.05-.1-.1-.17-.1.17-.2.3-.33.4-.17.13-.38.22-.63.3-.33.08-.6.07-.8-.04-.23-.1-.36-.28-.43-.5-.04-.22-.03-.4.06-.58.1-.17.3-.33.6-.5.4-.17.63-.3.74-.36.1-.07.23-.14.34-.23-.03-.13-.08-.22-.15-.25-.08-.04-.18-.04-.32 0-.17.04-.3.1-.37.18-.04.06-.08.16-.1.3zm1.1.32c-.14.1-.28.17-.43.26-.2.1-.33.2-.37.28-.04.08-.06.15-.04.23.03.08.07.14.15.18.08.05.17.05.3.02.1-.03.2-.1.3-.17.08-.1.14-.18.16-.27.02-.1 0-.2-.03-.34l-.04-.17z" style="text-align:center;line-height:100%"/><path d="M22.9 28.45l1-.27.1.4c.1-.2.2-.36.34-.47.12-.1.3-.18.5-.24.22-.06.4-.07.56-.02.15.04.28.13.4.26.13-.22.25-.4.37-.5.12-.1.28-.17.48-.22.3-.08.56-.06.78.07.2.14.37.4.47.77l.47 1.75-1.07.28-.43-1.58c-.03-.13-.08-.2-.14-.26-.1-.07-.2-.1-.3-.07-.14.04-.23.1-.28.22-.05.1-.05.27 0 .47l.4 1.44-1.08.28-.4-1.53c-.05-.1-.08-.2-.1-.23-.04-.07-.1-.1-.16-.14-.06-.03-.13-.03-.2 0-.13.02-.22.1-.27.2-.06.12-.06.28 0 .5l.38 1.42-1.06.28-.75-2.78z" style="text-align:center;line-height:100%"/><path d="M31.8 27.84l-2.14.57c.06.18.14.3.24.36.14.1.3.12.45.07.1-.03.2-.08.28-.16.05-.04.1-.12.14-.22l1.08-.2c-.1.34-.23.6-.42.77-.2.18-.5.33-.93.45-.37.1-.68.12-.92.07-.24-.04-.46-.16-.66-.35-.2-.2-.34-.45-.42-.75-.1-.44-.07-.83.14-1.17.2-.35.55-.58 1.04-.72.4-.1.73-.13 1-.07.26.05.48.18.67.38.18.2.32.47.42.84l.03.12zm-1.22-.22c-.08-.2-.18-.33-.3-.4-.1-.06-.23-.07-.38-.04-.17.05-.3.15-.35.32-.05.1-.05.23-.03.4l1.06-.28z" style="text-align:center;line-height:100%"/><path d="M33.4 24.5l1.07-.28.2.72-1.07.3-.2-.74z" style="text-align:center;line-height:100%"/><path d="M33.7 25.56l1.05-.28.75 2.78-1.07.28-.74-2.78z" style="text-align:center;line-height:100%"/><path d="M35.8 27.16l1.03-.4c.07.13.16.2.25.23.1.03.2.02.34 0 .14-.05.24-.1.3-.2.06-.05.07-.12.05-.2-.02-.06-.07-.1-.17-.13-.06-.02-.22 0-.48 0-.4.05-.67.05-.83.04-.16 0-.3-.07-.44-.17s-.23-.24-.27-.4c-.06-.2-.05-.37.02-.53.07-.16.2-.3.36-.4.17-.13.4-.23.73-.3.34-.1.6-.14.76-.13.18 0 .33.05.46.12.14.07.26.2.38.36l-.98.37c-.05-.08-.1-.14-.2-.16-.1-.04-.2-.04-.3 0-.13.03-.22.07-.26.13-.04.06-.06.12-.04.18.02.06.07.1.15.12.07.02.24 0 .48-.02.36-.06.64-.07.83-.05.2.03.36.1.48.2.13.1.22.24.26.4.04.16.04.33-.02.5-.06.2-.18.35-.36.5-.2.14-.46.26-.82.36-.5.13-.9.15-1.15.06-.25-.08-.44-.25-.58-.5z" style="text-align:center;line-height:100%"/></g><g fill="#eeeeec" font-size="6.973" text-anchor="middle" font-family="Arial Black"><path d="M15.7 22.96l1.2-.32.35 1.34 1.3-.34-.36-1.35 1.2-.33 1.02 3.85-1.2.3-.4-1.54-1.3.35.4 1.55-1.18.32-1.03-3.84z" style="text-align:center;line-height:100%"/><path d="M20.15 21.77l1.07-.3.2.74-1.07.3-.2-.73z" style="text-align:center;line-height:100%"/><path d="M20.43 22.83l1.07-.3.75 2.8-1.07.28-.75-2.77z" style="text-align:center;line-height:100%"/><path d="M22.66 24.08l1.14-.3.23.87c.1.33.1.6 0 .82-.08.23-.26.45-.55.68l-.38-.4c.18-.15.3-.28.35-.4.05-.1.06-.23.04-.36l-.56.14-.28-1.06z" style="text-align:center;line-height:100%"/><path d="M25.8 21.4l1-.27.1.4c.1-.2.2-.36.33-.47.13-.1.3-.2.5-.25.22-.05.4-.06.56 0 .14.03.28.12.4.25.12-.23.24-.4.36-.5.12-.1.28-.17.5-.23.3-.08.54-.05.76.08.22.13.37.4.47.77l.46 1.74-1.07.3-.43-1.6c-.04-.1-.1-.2-.15-.25-.1-.07-.2-.1-.3-.07-.13.03-.22.1-.28.22-.05.1-.05.27 0 .47l.4 1.43-1.08.3-.4-1.54c-.04-.13-.07-.2-.1-.25-.04-.05-.1-.1-.16-.12-.07-.03-.14-.04-.22-.02-.12.04-.2.1-.26.22-.05.12-.05.28 0 .5l.4 1.4-1.08.3-.75-2.78z" style="text-align:center;line-height:100%"/><path d="M30.85 20.04l1.12-.3 1.08 1.7.03-2 1.05-.28-.3 3.27c-.04.38-.1.64-.2.8-.15.2-.4.37-.8.47-.14.04-.38.08-.72.13l-.27-.72c.17 0 .35 0 .53-.06.13-.03.22-.1.3-.17.05-.07.1-.2.1-.36l-1.9-2.46z" style="text-align:center;line-height:100%"/><path d="M15.38 30.16l1-.27.12.45c.1-.23.22-.4.35-.52.13-.12.3-.2.52-.27.3-.08.55-.05.77.08.2.13.37.38.46.74l.48 1.77-1.07.3-.4-1.54c-.05-.16-.12-.28-.2-.33-.1-.06-.2-.07-.3-.04-.13.03-.23.1-.28.23-.05.12-.05.3.02.56l.36 1.34-1.07.28-.75-2.78z" style="text-align:center;line-height:100%"/><path d="M20.2 29.84l-1.06.17c0-.18 0-.34.05-.46.04-.12.12-.24.24-.35.08-.1.2-.17.37-.24.17-.08.35-.14.55-.2.32-.08.58-.13.8-.15.2 0 .37.03.53.1.12.06.22.15.3.28.1.13.16.26.2.4l.33 1.22c.04.13.08.23.1.3.05.07.1.16.2.26l-1 .27c-.06-.06-.1-.1-.13-.15-.02-.03-.05-.1-.08-.16-.1.17-.23.3-.35.4-.17.12-.38.22-.63.3-.33.08-.6.07-.82-.04-.2-.1-.35-.27-.4-.5-.06-.2-.05-.4.04-.57.1-.16.3-.32.6-.48.38-.2.63-.3.74-.38.1-.06.22-.14.34-.22-.03-.14-.08-.22-.15-.26-.07-.04-.17-.04-.3 0-.18.05-.3.1-.38.2-.07.05-.1.15-.1.28zm1.07.3c-.14.1-.28.2-.42.27-.2.13-.33.22-.37.3-.05.07-.06.14-.04.22.02.08.07.14.15.18.06.03.15.04.27 0 .1-.02.22-.08.3-.17.1-.08.14-.17.17-.27.02-.1 0-.2-.03-.34l-.03-.17z" style="text-align:center;line-height:100%"/><path d="M22.57 28.24l1-.27.1.4c.1-.2.22-.36.35-.47.12-.1.3-.2.5-.25.22-.06.4-.07.56-.02.15.04.28.13.4.26.13-.24.25-.4.37-.5.12-.1.28-.18.48-.24.3-.08.56-.05.77.08.22.13.38.4.48.77l.47 1.75-1.07.3-.43-1.6c-.03-.12-.08-.2-.15-.26-.1-.08-.2-.1-.3-.08-.13.04-.22.1-.27.22-.05.1-.05.27 0 .47l.4 1.44-1.08.3-.42-1.54c-.03-.13-.06-.2-.08-.25-.04-.06-.1-.1-.17-.13-.06-.03-.14-.04-.2-.02-.13.04-.22.1-.28.22-.05.12-.05.28 0 .5l.4 1.4-1.08.3-.75-2.78z" style="text-align:center;line-height:100%"/><path d="M31.48 27.63l-2.14.57c.06.17.14.28.24.35.13.1.28.1.45.07.1-.03.2-.08.28-.16.06-.05.1-.12.15-.22l1.08-.2c-.1.33-.23.6-.42.77-.2.2-.5.34-.92.45-.37.1-.68.13-.92.08s-.46-.17-.66-.36c-.2-.18-.34-.43-.42-.74-.12-.43-.07-.82.14-1.17.2-.34.55-.58 1.04-.7.4-.1.73-.14 1-.08.26.06.48.2.66.38.2.2.33.48.43.85l.03.13zm-1.23-.22c-.07-.2-.17-.33-.28-.4-.12-.06-.25-.07-.4-.03-.16.05-.28.15-.35.3-.04.1-.05.25-.02.42l1.05-.3z" style="text-align:center;line-height:100%"/><path d="M33.08 24.3l1.07-.3.2.73-1.08.3-.2-.74z" style="text-align:center;line-height:100%"/><path d="M33.36 25.35l1.07-.3.75 2.8-1.07.28-.74-2.78z" style="text-align:center;line-height:100%"/><path d="M35.47 26.94l1.03-.38c.08.1.17.2.26.22.1.03.2.03.34 0 .14-.04.24-.1.3-.18.05-.07.07-.13.05-.2-.02-.08-.08-.12-.17-.15-.06 0-.23 0-.5.02-.37.03-.65.04-.8.03-.17-.02-.3-.08-.45-.2-.13-.1-.22-.23-.27-.4-.04-.18-.03-.35.04-.5.07-.17.2-.3.36-.43.17-.1.4-.2.73-.3.32-.1.57-.13.74-.12.17 0 .33.05.46.13.14.08.26.2.38.36l-.98.37c-.06-.07-.12-.12-.2-.15-.1-.03-.2-.03-.32 0s-.2.08-.24.14c-.05.04-.06.1-.04.16.02.07.06.1.14.13.08 0 .24 0 .5-.04.35-.05.63-.07.82-.04.2.02.36.1.48.2.13.1.22.24.26.4.04.16.03.33-.02.5-.06.18-.18.35-.36.5-.2.14-.46.26-.82.36-.5.13-.9.16-1.15.07-.25-.1-.45-.26-.58-.5z" style="text-align:center;line-height:100%"/></g><path fill="none" stroke="#000" stroke-width="1.8" d="M17.14 43.75l26.56-7.27" stroke-dasharray="1.80000001, 1.80000001"/><path fill="none" stroke="#90b4db" d="M13.23 34.66l-2.28-8.28c-.4-1.46.14-2.85 1.2-3.13l25.52-6.93c1.06-.28 2.22.67 2.6 2.12l2.33 8.46" color="#000" overflow="visible" enable-background="accumulate"/><path fill="none" stroke="#fff" d="M42.6 27.1l2.63 9.3c.4 1.47-.3 2.3-1.36 2.58L18.34 45.9c-1.06.28-2.22-.66-2.6-2.12l-2.45-9.02" color="#000" overflow="visible" enable-background="accumulate"/></g></svg>