<svg xmlns="http://www.w3.org/2000/svg" width="48" height="48" xmlns:xlink="http://www.w3.org/1999/xlink"><defs><linearGradient id="a"><stop offset="0" stop-color="#fcaf3e" stop-opacity="0"/><stop offset=".463" stop-color="#fcaf3e" stop-opacity="0"/><stop offset="1" stop-color="#fcaf3e"/></linearGradient><radialGradient id="i" cx="15.567" cy="24.145" r="16.18" xlink:href="#a" gradientUnits="userSpaceOnUse" gradientTransform="matrix(.379 .003 -.005 .663 7.83 5.816)" fx="15.567" fy="24.145"/><linearGradient id="b"><stop offset="0" stop-color="#590b08"/><stop offset="1" stop-opacity="0"/></linearGradient><linearGradient id="k" x1="8.07" x2="8.03" y1="9.314" y2="15.392" xlink:href="#b" gradientUnits="userSpaceOnUse" gradientTransform="matrix(.012 1.805 -1.771 .012 40.628 22.446)"/><linearGradient id="f" x1="-95.827" x2="-81.455" y1="297.608" y2="297.608" gradientTransform="matrix(0 -1.064 -1.352 0 410.498 -83.416)" gradientUnits="userSpaceOnUse"><stop offset="0" stop-color="#e96712" stop-opacity="0"/><stop offset=".5" stop-color="#ef0909"/><stop offset="1" stop-color="#f57900"/></linearGradient><linearGradient id="d"><stop offset="0" stop-color="#73d216"/><stop offset="1" stop-color="#8ae234" stop-opacity="0"/></linearGradient><linearGradient id="c"><stop offset="0" stop-color="#c17d11"/><stop offset="1" stop-color="#eeeeec" stop-opacity="0"/></linearGradient><linearGradient id="e"><stop offset="0" stop-color="#fce94f" stop-opacity="0"/><stop offset=".732" stop-color="#fce94f" stop-opacity="0"/><stop offset="1" stop-color="#fce94f"/></linearGradient><linearGradient id="g" x1="21.095" x2="10.349" y1="9.88" y2="32.356" xlink:href="#c" gradientUnits="userSpaceOnUse"/><linearGradient id="h" x1="21.095" x2="10.349" y1="9.88" y2="32.356" xlink:href="#d" gradientUnits="userSpaceOnUse" gradientTransform="matrix(-1 0 0 1 48.42 .152)"/><radialGradient cx="13.3" cy="21.817" r="12.013" xlink:href="#e" gradientUnits="userSpaceOnUse" gradientTransform="matrix(.38 -.002 .004 .811 8.474 4.21)" fx="13.3" fy="21.817"/><linearGradient id="j" x1="13.271" x2="34.331" y1="35.535" y2="35.853" xlink:href="#f" gradientUnits="userSpaceOnUse"/><radialGradient id="l" cx="15.567" cy="24.145" r="16.18" xlink:href="#a" gradientUnits="userSpaceOnUse" gradientTransform="matrix(.379 .003 -.005 .663 7.83 5.816)" fx="15.567" fy="24.145"/></defs><g><path fill="#8c6215" stroke="#e9b96e" d="M23.5 11c-.38.37-.14 2.42-.47 4.9-.4 3-3.67 7.5-3.92 8.3-.25.8-.8 2.3-1.75 3.84-.58.94-3.9 4.4-4.28 5.98-.14.6-.76 1.72-.8 2.36 0 .45.17 1.56-.2 2.76-.4 1.2-1.34 2.5-1.32 2.82.03.32-.17 3.24-.2 3.62-.08.8-1.25.9-1.3-.08-.03-1 .16-3.22-.02-3.4-.2-.16-.42 0-.56.23-.14.24-.9 4.05-1.1 4.64-.25.73-1.5.6-1.33-.3.1-.57 1.14-4.53.9-4.66-.42-.2-2.86 4.1-3.14 4.47-.4.53-1.38 0-1.05-.83.26-.64 2.77-4.5 2.45-4.68-.32-.17-3.37 3.27-3.65 3.48-.47.38-1.2-.14-.97-.8.2-.57 3.06-3.38 3.3-4.1.17-.6.74-1.7.4-1.95-.43-.35-1.85.57-2.34.85C1 39.1.64 37.75 1.9 37c.72-.45 1.38-1.04 1.78-1.52.44-.53.94-1.17 1.74-1.58 1.03-.52 2.26-.5 2.4-.72 1.04-1.77 1.88-6.58 3.07-8.93.83-1.67 2.45-2.8 2.73-4.04.33-1.42.73-6.67.7-7.73C13.53 2.2 19.23 1.1 20.4.5"/><path fill="#4e9a06" stroke="#8ae234" d="M24.9 11.06c.4.36.14 2.42.47 4.9.4 2.98 3.67 7.5 3.93 8.3.25.8.82 2.28 1.76 3.83.57.93 3.9 4.4 4.27 5.98.14.58.76 1.7.8 2.35.08 2.7-2.05 3.57-.9 6.27 1.17 2.7 3.6 5.18 5.53 4.56 1-.32-2-4.47-1.85-6.88.15-2.4.87-3.6 2.6-1.97 2.2 2.55 2.4 5.1 3.18 7.64 2.88-2.2 2.56-5.06 1.68-8.03-.84-1.58-3.05-3.5-5.77-4.77-1.06-1.76-1.9-6.58-3.1-8.92-.83-1.66-2.45-2.8-2.73-4.03-.33-1.43-.73-6.68-.7-7.75.8-10.27-4.9-11.36-6.08-11.96"/><path fill="none" stroke="url(#g)" d="M23 10c-.54.95-.64 3.8-1.07 6.02-.55 2.9-3 6.15-3.22 6.88-.22.73-1.5 3.27-2.34 4.68-.52.85-3.27 3.66-3.93 5.55l-3.22-.7c.45-1.86 1.5-5.53 2.47-7.52.57-1.15 2.5-3.13 2.86-4.22.6-1.87.78-7.2.75-8.16-.72-9.3 4-10.48 5.43-11.03"/><path fill="none" stroke="url(#h)" d="M25.43 10.14c.53.96.63 3.8 1.06 6.03.54 2.9 2.98 6.15 3.2 6.88.25.73 1.5 3.28 2.36 4.68.52.85 3.27 3.67 3.93 5.55l3.2-.7c-.43-1.86-1.48-5.53-2.45-7.52-.57-1.16-2.5-3.14-2.86-4.23-.62-1.87-.8-7.2-.76-8.16.72-9.3-4-10.48-5.43-11.03"/><path fill="url(#i)" fill-rule="evenodd" stroke="#ce5c00" stroke-width="2" d="M19.24 21.87a5.62 10.83 0 1 1-11.24 0 5.62 10.83 0 1 1 11.24 0z" transform="matrix(.944 .33 -.33 .944 10.463 -3.207)" color="#000" stroke-dasharray="2.00000007,2.00000007" overflow="visible"/><path fill="url(#j)" stroke="url(#k)" d="M13.26 35.45l11.52-.08-.04-5.08 9.54 7.1-9.78 6.56-.03-4.38-11 .07-.2-4.2z" color="#000" stroke-linejoin="round" overflow="visible"/><path fill="url(#l)" fill-rule="evenodd" stroke="#ce5c00" stroke-width="2" d="M19.24 21.87a5.62 10.83 0 1 1-11.24 0 5.62 10.83 0 1 1 11.24 0z" transform="matrix(-.944 .33 .33 .944 37.759 -3.302)" color="#000" stroke-dasharray="2.00000007, 2.00000007" overflow="visible"/></g></svg>