<svg xmlns="http://www.w3.org/2000/svg" width="48" height="48" xmlns:xlink="http://www.w3.org/1999/xlink"><defs><linearGradient id="a"><stop offset="0" stop-color="#fff"/><stop offset=".463" stop-color="#fff"/><stop offset="1" stop-color="#fcaf3e"/></linearGradient><radialGradient cx="11.601" cy="15.944" r="16.18" xlink:href="#a" gradientUnits="userSpaceOnUse" gradientTransform="matrix(.668 .016 -.015 .681 4.209 .396)" fx="11.601" fy="15.944"/><linearGradient id="e"><stop offset="0" stop-color="#fff"/><stop offset=".5" stop-color="#fff"/><stop offset="1" stop-color="#fce94f"/></linearGradient><linearGradient id="b"><stop offset="0" stop-color="#fce94f" stop-opacity="0"/><stop offset=".5" stop-color="#fce94f" stop-opacity="0"/><stop offset="1" stop-color="#fce94f"/></linearGradient><radialGradient cx="11.42" cy="11.431" r="12.013" xlink:href="#b" fx="11.42" fy="11.431" gradientUnits="userSpaceOnUse"/><linearGradient id="d"><stop offset="0" stop-color="#545f63"/><stop offset="1" stop-color="#2e3436"/></linearGradient><linearGradient id="c"><stop offset="0" stop-color="#e8e9e7"/><stop offset="1" stop-color="#7f8578"/></linearGradient><radialGradient cx="8.12" cy="33.511" r="2.582" xlink:href="#c" fx="8.12" fy="33.511" gradientUnits="userSpaceOnUse"/><radialGradient cx="8.12" cy="33.511" r="2.582" xlink:href="#c" gradientUnits="userSpaceOnUse" fx="8.12" fy="33.511"/><radialGradient cx="8.12" cy="33.511" r="2.582" xlink:href="#c" gradientUnits="userSpaceOnUse" fx="8.12" fy="33.511"/><radialGradient cx="8.12" cy="33.511" r="2.582" xlink:href="#c" gradientUnits="userSpaceOnUse" fx="8.12" fy="33.511"/><radialGradient cx="8.12" cy="33.511" r="2.582" xlink:href="#c" gradientUnits="userSpaceOnUse" fx="8.12" fy="33.511"/><radialGradient cx="8.12" cy="33.511" r="2.582" xlink:href="#c" gradientUnits="userSpaceOnUse" fx="8.12" fy="33.511"/><radialGradient cx="8.12" cy="33.511" r="2.582" xlink:href="#c" gradientUnits="userSpaceOnUse" fx="8.12" fy="33.511"/><linearGradient x1="6.723" x2="10.363" y1="32.25" y2="35.862" xlink:href="#d" gradientUnits="userSpaceOnUse"/><radialGradient cx="8.12" cy="33.511" r="2.582" xlink:href="#c" gradientUnits="userSpaceOnUse" fx="8.12" fy="33.511"/><linearGradient x1="6.723" x2="10.363" y1="32.25" y2="35.862" xlink:href="#d" gradientUnits="userSpaceOnUse"/><radialGradient cx="8.12" cy="33.511" r="2.582" xlink:href="#c" gradientUnits="userSpaceOnUse" fx="8.12" fy="33.511"/><linearGradient x1="6.723" x2="10.363" y1="32.25" y2="35.862" xlink:href="#d" gradientUnits="userSpaceOnUse"/><radialGradient cx="8.12" cy="33.511" r="2.582" xlink:href="#c" gradientUnits="userSpaceOnUse" fx="8.12" fy="33.511"/><linearGradient x1="6.723" x2="10.363" y1="32.25" y2="35.862" xlink:href="#d" gradientUnits="userSpaceOnUse"/><radialGradient cx="8.12" cy="33.511" r="2.582" xlink:href="#c" gradientUnits="userSpaceOnUse" fx="8.12" fy="33.511"/><linearGradient x1="6.723" x2="10.363" y1="32.25" y2="35.862" xlink:href="#d" gradientUnits="userSpaceOnUse"/><radialGradient cx="8.12" cy="33.511" r="2.582" xlink:href="#c" gradientUnits="userSpaceOnUse" fx="8.12" fy="33.511"/><linearGradient x1="6.723" x2="10.363" y1="32.25" y2="35.862" xlink:href="#d" gradientUnits="userSpaceOnUse"/><radialGradient cx="8.12" cy="33.511" r="2.582" xlink:href="#c" gradientUnits="userSpaceOnUse" fx="8.12" fy="33.511"/><linearGradient x1="6.723" x2="10.363" y1="32.25" y2="35.862" xlink:href="#d" gradientUnits="userSpaceOnUse"/><radialGradient cx="8.12" cy="33.511" r="2.582" xlink:href="#c" gradientUnits="userSpaceOnUse" fx="8.12" fy="33.511"/><linearGradient x1="6.723" x2="10.363" y1="32.25" y2="35.862" xlink:href="#d" gradientUnits="userSpaceOnUse"/><radialGradient cx="8.12" cy="33.511" r="2.582" xlink:href="#c" gradientUnits="userSpaceOnUse" fx="8.12" fy="33.511"/><linearGradient x1="6.723" x2="10.363" y1="32.25" y2="35.862" xlink:href="#d" gradientUnits="userSpaceOnUse"/><radialGradient cx="8.12" cy="33.511" r="2.582" xlink:href="#c" gradientUnits="userSpaceOnUse" fx="8.12" fy="33.511"/><linearGradient x1="6.723" x2="10.363" y1="32.25" y2="35.862" xlink:href="#d" gradientUnits="userSpaceOnUse"/><radialGradient cx="8.12" cy="33.511" r="2.582" xlink:href="#c" gradientUnits="userSpaceOnUse" fx="8.12" fy="33.511"/><linearGradient x1="6.723" x2="10.363" y1="32.25" y2="35.862" xlink:href="#d" gradientUnits="userSpaceOnUse"/><radialGradient cx="8.12" cy="33.511" r="2.582" xlink:href="#c" gradientUnits="userSpaceOnUse" fx="8.12" fy="33.511"/><linearGradient x1="6.723" x2="10.363" y1="32.25" y2="35.862" xlink:href="#d" gradientUnits="userSpaceOnUse"/><radialGradient cx="8.12" cy="33.511" r="2.582" xlink:href="#c" gradientUnits="userSpaceOnUse" fx="8.12" fy="33.511"/><linearGradient x1="6.723" x2="10.363" y1="32.25" y2="35.862" xlink:href="#d" gradientUnits="userSpaceOnUse"/><radialGradient cx="8.12" cy="33.511" r="2.582" xlink:href="#c" gradientUnits="userSpaceOnUse" fx="8.12" fy="33.511"/><linearGradient x1="6.723" x2="10.363" y1="32.25" y2="35.862" xlink:href="#d" gradientUnits="userSpaceOnUse"/><radialGradient cx="8.12" cy="33.511" r="2.582" xlink:href="#c" gradientUnits="userSpaceOnUse" fx="8.12" fy="33.511"/><linearGradient x1="6.723" x2="10.363" y1="32.25" y2="35.862" xlink:href="#d" gradientUnits="userSpaceOnUse"/><radialGradient cx="8.12" cy="33.511" r="2.582" xlink:href="#c" gradientUnits="userSpaceOnUse" fx="8.12" fy="33.511"/><linearGradient x1="6.723" x2="10.363" y1="32.25" y2="35.862" xlink:href="#d" gradientUnits="userSpaceOnUse"/><radialGradient cx="8.12" cy="33.511" r="2.582" xlink:href="#c" gradientUnits="userSpaceOnUse" fx="8.12" fy="33.511"/><linearGradient x1="6.723" x2="10.363" y1="32.25" y2="35.862" xlink:href="#d" gradientUnits="userSpaceOnUse"/><radialGradient cx="8.12" cy="33.511" r="2.582" xlink:href="#c" gradientUnits="userSpaceOnUse" fx="8.12" fy="33.511"/><linearGradient x1="6.723" x2="10.363" y1="32.25" y2="35.862" xlink:href="#d" gradientUnits="userSpaceOnUse"/><radialGradient cx="8.12" cy="33.511" r="2.582" xlink:href="#c" gradientUnits="userSpaceOnUse" fx="8.12" fy="33.511"/><linearGradient x1="6.723" x2="10.363" y1="32.25" y2="35.862" xlink:href="#d" gradientUnits="userSpaceOnUse"/><radialGradient cx="8.12" cy="33.511" r="2.582" xlink:href="#c" gradientUnits="userSpaceOnUse" fx="8.12" fy="33.511"/><linearGradient x1="6.723" x2="10.363" y1="32.25" y2="35.862" xlink:href="#d" gradientUnits="userSpaceOnUse"/><radialGradient cx="8.12" cy="33.511" r="2.582" xlink:href="#c" gradientUnits="userSpaceOnUse" fx="8.12" fy="33.511"/><linearGradient x1="6.723" x2="10.363" y1="32.25" y2="35.862" xlink:href="#d" gradientUnits="userSpaceOnUse"/><radialGradient cx="8.12" cy="33.511" r="2.582" xlink:href="#c" gradientUnits="userSpaceOnUse" fx="8.12" fy="33.511"/><linearGradient x1="6.723" x2="10.363" y1="32.25" y2="35.862" xlink:href="#d" gradientUnits="userSpaceOnUse"/><radialGradient cx="8.12" cy="33.511" r="2.582" xlink:href="#c" gradientUnits="userSpaceOnUse" fx="8.12" fy="33.511"/><linearGradient x1="6.723" x2="10.363" y1="32.25" y2="35.862" xlink:href="#d" gradientUnits="userSpaceOnUse"/><radialGradient cx="8.12" cy="33.511" r="2.582" xlink:href="#c" gradientUnits="userSpaceOnUse" fx="8.12" fy="33.511"/><linearGradient x1="6.723" x2="10.363" y1="32.25" y2="35.862" xlink:href="#d" gradientUnits="userSpaceOnUse"/><radialGradient cx="8.12" cy="33.511" r="2.582" xlink:href="#c" gradientUnits="userSpaceOnUse" fx="8.12" fy="33.511"/><linearGradient x1="6.723" x2="10.363" y1="32.25" y2="35.862" xlink:href="#d" gradientUnits="userSpaceOnUse"/><radialGradient cx="8.12" cy="33.511" r="2.582" xlink:href="#c" gradientUnits="userSpaceOnUse" fx="8.12" fy="33.511"/><linearGradient x1="6.723" x2="10.363" y1="32.25" y2="35.862" xlink:href="#d" gradientUnits="userSpaceOnUse"/><radialGradient cx="8.12" cy="33.511" r="2.582" xlink:href="#c" gradientUnits="userSpaceOnUse" fx="8.12" fy="33.511"/><linearGradient x1="6.723" x2="10.363" y1="32.25" y2="35.862" xlink:href="#d" gradientUnits="userSpaceOnUse"/><radialGradient cx="8.12" cy="33.511" r="2.582" xlink:href="#c" gradientUnits="userSpaceOnUse" fx="8.12" fy="33.511"/><linearGradient x1="6.723" x2="10.363" y1="32.25" y2="35.862" xlink:href="#d" gradientUnits="userSpaceOnUse"/><radialGradient cx="8.12" cy="33.511" r="2.582" xlink:href="#c" gradientUnits="userSpaceOnUse" fx="8.12" fy="33.511"/><linearGradient x1="6.723" x2="10.363" y1="32.25" y2="35.862" xlink:href="#d" gradientUnits="userSpaceOnUse"/><radialGradient cx="8.12" cy="33.511" r="2.582" xlink:href="#c" gradientUnits="userSpaceOnUse" fx="8.12" fy="33.511"/><linearGradient x1="6.723" x2="10.363" y1="32.25" y2="35.862" xlink:href="#d" gradientUnits="userSpaceOnUse"/><radialGradient cx="8.12" cy="33.511" r="2.582" xlink:href="#c" gradientUnits="userSpaceOnUse" fx="8.12" fy="33.511"/><linearGradient x1="6.723" x2="10.363" y1="32.25" y2="35.862" xlink:href="#d" gradientUnits="userSpaceOnUse"/><radialGradient cx="8.12" cy="33.511" r="2.582" xlink:href="#c" gradientUnits="userSpaceOnUse" fx="8.12" fy="33.511"/><linearGradient x1="6.723" x2="10.363" y1="32.25" y2="35.862" xlink:href="#d" gradientUnits="userSpaceOnUse"/><radialGradient cx="8.12" cy="33.511" r="2.582" xlink:href="#c" gradientUnits="userSpaceOnUse" fx="8.12" fy="33.511"/><linearGradient x1="6.723" x2="10.363" y1="32.25" y2="35.862" xlink:href="#d" gradientUnits="userSpaceOnUse"/><radialGradient cx="8.12" cy="33.511" r="2.582" xlink:href="#c" gradientUnits="userSpaceOnUse" fx="8.12" fy="33.511"/><linearGradient x1="6.723" x2="10.363" y1="32.25" y2="35.862" xlink:href="#d" gradientUnits="userSpaceOnUse"/><radialGradient cx="8.12" cy="33.511" r="2.582" xlink:href="#c" gradientUnits="userSpaceOnUse" fx="8.12" fy="33.511"/><linearGradient x1="6.723" x2="10.363" y1="32.25" y2="35.862" xlink:href="#d" gradientUnits="userSpaceOnUse"/><radialGradient cx="8.12" cy="33.511" r="2.582" xlink:href="#c" gradientUnits="userSpaceOnUse" fx="8.12" fy="33.511"/><linearGradient x1="6.723" x2="10.363" y1="32.25" y2="35.862" xlink:href="#d" gradientUnits="userSpaceOnUse"/><radialGradient cx="8.12" cy="33.511" r="2.582" xlink:href="#c" gradientUnits="userSpaceOnUse" fx="8.12" fy="33.511"/><linearGradient x1="6.723" x2="10.363" y1="32.25" y2="35.862" xlink:href="#d" gradientUnits="userSpaceOnUse"/><radialGradient cx="8.12" cy="33.511" r="2.582" xlink:href="#c" gradientUnits="userSpaceOnUse" fx="8.12" fy="33.511"/><linearGradient x1="6.723" x2="10.363" y1="32.25" y2="35.862" xlink:href="#d" gradientUnits="userSpaceOnUse"/><radialGradient cx="8.12" cy="33.511" r="2.582" xlink:href="#c" gradientUnits="userSpaceOnUse" fx="8.12" fy="33.511"/><linearGradient x1="6.723" x2="10.363" y1="32.25" y2="35.862" xlink:href="#d" gradientUnits="userSpaceOnUse"/><radialGradient cx="8.12" cy="33.511" r="2.582" xlink:href="#c" gradientUnits="userSpaceOnUse" fx="8.12" fy="33.511"/><linearGradient x1="6.723" x2="10.363" y1="32.25" y2="35.862" xlink:href="#d" gradientUnits="userSpaceOnUse"/><radialGradient cx="8.12" cy="33.511" r="2.582" xlink:href="#c" gradientUnits="userSpaceOnUse" fx="8.12" fy="33.511"/><linearGradient x1="6.723" x2="10.363" y1="32.25" y2="35.862" xlink:href="#d" gradientUnits="userSpaceOnUse"/><radialGradient cx="8.12" cy="33.511" r="2.582" xlink:href="#c" gradientUnits="userSpaceOnUse" fx="8.12" fy="33.511"/><linearGradient x1="6.723" x2="10.363" y1="32.25" y2="35.862" xlink:href="#d" gradientUnits="userSpaceOnUse"/><radialGradient cx="8.12" cy="33.511" r="2.582" xlink:href="#c" gradientUnits="userSpaceOnUse" fx="8.12" fy="33.511"/><linearGradient x1="6.723" x2="10.363" y1="32.25" y2="35.862" xlink:href="#d" gradientUnits="userSpaceOnUse"/><radialGradient cx="8.12" cy="33.511" r="2.582" xlink:href="#c" gradientUnits="userSpaceOnUse" fx="8.12" fy="33.511"/><linearGradient x1="6.723" x2="10.363" y1="32.25" y2="35.862" xlink:href="#d" gradientUnits="userSpaceOnUse"/><radialGradient cx="8.12" cy="33.511" r="2.582" xlink:href="#c" gradientUnits="userSpaceOnUse" fx="8.12" fy="33.511"/><linearGradient x1="6.723" x2="10.363" y1="32.25" y2="35.862" xlink:href="#d" gradientUnits="userSpaceOnUse"/><radialGradient cx="8.12" cy="33.511" r="2.582" xlink:href="#c" gradientUnits="userSpaceOnUse" fx="8.12" fy="33.511"/><linearGradient x1="6.723" x2="10.363" y1="32.25" y2="35.862" xlink:href="#d" gradientUnits="userSpaceOnUse"/><radialGradient cx="11.42" cy="11.431" r="12.013" xlink:href="#e" gradientUnits="userSpaceOnUse" fx="11.42" fy="11.431"/><radialGradient id="p" cx="8.12" cy="33.511" r="2.582" xlink:href="#c" gradientUnits="userSpaceOnUse" fx="8.12" fy="33.511"/><linearGradient id="q" x1="6.723" x2="10.363" y1="32.25" y2="35.862" xlink:href="#d" gradientUnits="userSpaceOnUse"/><radialGradient id="r" cx="8.12" cy="33.511" r="2.582" xlink:href="#c" gradientUnits="userSpaceOnUse" fx="8.12" fy="33.511"/><linearGradient id="s" x1="6.723" x2="10.363" y1="32.25" y2="35.862" xlink:href="#d" gradientUnits="userSpaceOnUse"/><radialGradient id="t" cx="8.12" cy="33.511" r="2.582" xlink:href="#c" gradientUnits="userSpaceOnUse" fx="8.12" fy="33.511"/><linearGradient id="u" x1="6.723" x2="10.363" y1="32.25" y2="35.862" xlink:href="#d" gradientUnits="userSpaceOnUse"/><radialGradient id="v" cx="8.12" cy="33.511" r="2.582" xlink:href="#c" gradientUnits="userSpaceOnUse" fx="8.12" fy="33.511"/><linearGradient id="w" x1="6.723" x2="10.363" y1="32.25" y2="35.862" xlink:href="#d" gradientUnits="userSpaceOnUse"/><radialGradient id="x" cx="8.12" cy="33.511" r="2.582" xlink:href="#c" gradientUnits="userSpaceOnUse" fx="8.12" fy="33.511"/><linearGradient id="y" x1="6.723" x2="10.363" y1="32.25" y2="35.862" xlink:href="#d" gradientUnits="userSpaceOnUse"/><radialGradient id="h" cx="8.12" cy="33.511" r="2.582" xlink:href="#c" gradientUnits="userSpaceOnUse" fx="8.12" fy="33.511"/><linearGradient id="i" x1="6.723" x2="10.363" y1="32.25" y2="35.862" xlink:href="#d" gradientUnits="userSpaceOnUse"/><radialGradient id="j" cx="8.12" cy="33.511" r="2.582" xlink:href="#c" gradientUnits="userSpaceOnUse" fx="8.12" fy="33.511"/><linearGradient id="k" x1="6.723" x2="10.363" y1="32.25" y2="35.862" xlink:href="#d" gradientUnits="userSpaceOnUse"/><radialGradient id="l" cx="8.12" cy="33.511" r="2.582" xlink:href="#c" gradientUnits="userSpaceOnUse" fx="8.12" fy="33.511"/><linearGradient id="m" x1="6.723" x2="10.363" y1="32.25" y2="35.862" xlink:href="#d" gradientUnits="userSpaceOnUse"/><radialGradient id="n" cx="8.12" cy="33.511" r="2.582" xlink:href="#c" gradientUnits="userSpaceOnUse" fx="8.12" fy="33.511"/><linearGradient id="o" x1="6.723" x2="10.363" y1="32.25" y2="35.862" xlink:href="#d" gradientUnits="userSpaceOnUse"/><radialGradient cx="21.075" cy="23.978" r="16.18" xlink:href="#a" gradientUnits="userSpaceOnUse" gradientTransform="matrix(1.128 1.125 -.646 .652 -36.535 -14.365)" fx="21.075" fy="23.978"/><radialGradient id="g" cx="43.436" cy="-17.797" r="16.18" xlink:href="#f" gradientUnits="userSpaceOnUse" gradientTransform="matrix(1.128 1.125 -.646 .652 -36.535 -14.365)" fx="43.436" fy="-17.797"/><linearGradient id="f"><stop offset="0" stop-color="#fff"/><stop offset=".463" stop-color="#fff"/><stop offset="1" stop-color="#fcaf3e"/></linearGradient><radialGradient cx="21.075" cy="23.978" r="16.18" fy="23.978" fx="21.075" gradientTransform="matrix(1.128 1.125 -.646 .652 15.846 -16.709)" gradientUnits="userSpaceOnUse" xlink:href="#f"/></defs><g color="#000"><path fill="url(#g)" fill-rule="evenodd" stroke="#ce5c00" stroke-width="2" d="M23.46 3.4C19.26.15 9.76.5 5.23 5.06c-5 5.05-3.66 16.18-.95 19.1C7.1 27.2 14.94 27 18.18 30.26c2.94 3 1.86 7.95 3.9 11.13 2.2 3.4 6.83 5.55 10.2 5.6 8.2.1 14.84-6.64 14.84-14.84 0-3.12-1.14-8.5-3.74-10.67-4.23-3.56-10.98-3.15-12.8-4.35-3.54-2.28-1.63-9.47-7.12-13.74z" stroke-dasharray="1.99999997999999990, 1.99999997999999990" overflow="visible" enable-background="accumulate"/><path fill="url(#h)" fill-rule="evenodd" stroke="url(#i)" stroke-width=".88" d="M10.86 34a2.3 2.3 0 1 1-4.57 0 2.3 2.3 0 1 1 4.56 0z" transform="matrix(1.136 0 0 1.136 -.15 -29.278)" stroke-linejoin="round" overflow="visible"/><path fill="none" stroke="#eeeeec" stroke-opacity=".502" stroke-width="1.632" d="M11.3 34a2.73 2.65 0 1 1-5.45 0 2.73 2.65 0 1 1 5.45 0z" transform="matrix(.604 0 0 .622 4.406 -11.795)" stroke-linejoin="round" overflow="visible"/><path fill="url(#j)" fill-rule="evenodd" stroke="url(#k)" stroke-width=".88" d="M10.86 34a2.3 2.3 0 1 1-4.57 0 2.3 2.3 0 1 1 4.56 0z" transform="matrix(1.136 0 0 1.136 5.362 -23.37)" stroke-linejoin="round" overflow="visible"/><path fill="none" stroke="#eeeeec" stroke-opacity=".502" stroke-width="1.717" d="M11.3 34a2.73 2.65 0 1 1-5.45 0 2.73 2.65 0 1 1 5.45 0z" transform="matrix(.574 0 0 .591 10.175 -4.841)" stroke-linejoin="round" overflow="visible"/><path fill="url(#l)" fill-rule="evenodd" stroke="url(#m)" stroke-width=".88" d="M10.86 34a2.3 2.3 0 1 1-4.57 0 2.3 2.3 0 1 1 4.56 0z" transform="matrix(1.136 0 0 1.136 9.945 -30.966)" stroke-linejoin="round" overflow="visible"/><path fill="none" stroke="#eeeeec" stroke-opacity=".502" stroke-width="1.732" d="M11.3 34a2.73 2.65 0 1 1-5.45 0 2.73 2.65 0 1 1 5.45 0z" transform="matrix(.569 0 0 .586 14.802 -12.259)" stroke-linejoin="round" overflow="visible"/><path fill="url(#n)" fill-rule="evenodd" stroke="url(#o)" stroke-width=".88" d="M10.86 34a2.3 2.3 0 1 1-4.57 0 2.3 2.3 0 1 1 4.56 0z" transform="matrix(1.136 0 0 1.136 -1.368 -18.941)" stroke-linejoin="round" overflow="visible"/><path fill="none" stroke="#eeeeec" stroke-opacity=".502" stroke-width="1.632" d="M11.3 34a2.73 2.65 0 1 1-5.45 0 2.73 2.65 0 1 1 5.45 0z" transform="matrix(.604 0 0 .622 3.188 -1.458)" stroke-linejoin="round" overflow="visible"/><path fill="url(#p)" fill-rule="evenodd" stroke="url(#q)" stroke-width=".88" d="M10.86 34a2.3 2.3 0 1 1-4.57 0 2.3 2.3 0 1 1 4.56 0z" transform="matrix(1.136 0 0 1.136 21.782 -7.378)" stroke-linejoin="round" overflow="visible"/><path fill="none" stroke="#eeeeec" stroke-opacity=".502" stroke-width="1.717" d="M11.3 34a2.73 2.65 0 1 1-5.45 0 2.73 2.65 0 1 1 5.45 0z" transform="matrix(.574 0 0 .591 26.595 11.151)" stroke-linejoin="round" overflow="visible"/><path fill="url(#r)" fill-rule="evenodd" stroke="url(#s)" stroke-width=".88" d="M10.86 34a2.3 2.3 0 1 1-4.57 0 2.3 2.3 0 1 1 4.56 0z" transform="matrix(1.136 0 0 1.136 26.365 -14.974)" stroke-linejoin="round" overflow="visible"/><path fill="none" stroke="#eeeeec" stroke-opacity=".502" stroke-width="1.732" d="M11.3 34a2.73 2.65 0 1 1-5.45 0 2.73 2.65 0 1 1 5.45 0z" transform="matrix(.569 0 0 .586 31.221 3.733)" stroke-linejoin="round" overflow="visible"/><path fill="none" stroke="#eeeeec" stroke-opacity=".502" stroke-width="1.397" d="M11.3 34a2.73 2.65 0 1 1-5.45 0 2.73 2.65 0 1 1 5.45 0z" transform="matrix(.706 0 0 .726 28.513 15.302)" stroke-linejoin="round" overflow="visible"/><path fill="url(#t)" fill-rule="evenodd" stroke="url(#u)" stroke-width=".88" d="M10.86 34a2.3 2.3 0 1 1-4.57 0 2.3 2.3 0 1 1 4.56 0z" transform="matrix(1.136 0 0 1.136 16.511 -.409)" stroke-linejoin="round" overflow="visible"/><path fill="none" stroke="#eeeeec" stroke-opacity=".502" stroke-width="1.632" d="M11.3 34a2.73 2.65 0 1 1-5.45 0 2.73 2.65 0 1 1 5.45 0z" transform="matrix(.604 0 0 .622 21.068 17.073)" stroke-linejoin="round" overflow="visible"/><path fill="url(#v)" fill-rule="evenodd" stroke="url(#w)" stroke-width=".88" d="M10.86 34a2.3 2.3 0 1 1-4.57 0 2.3 2.3 0 1 1 4.56 0z" transform="matrix(1.136 0 0 1.136 25.511 2.084)" stroke-linejoin="round" overflow="visible"/><path fill="none" stroke="#eeeeec" stroke-opacity=".502" stroke-width="1.632" d="M11.3 34a2.73 2.65 0 1 1-5.45 0 2.73 2.65 0 1 1 5.45 0z" transform="matrix(.604 0 0 .622 30.068 19.566)" stroke-linejoin="round" overflow="visible"/><path fill="url(#x)" fill-rule="evenodd" stroke="url(#y)" stroke-width=".88" d="M10.86 34a2.3 2.3 0 1 1-4.57 0 2.3 2.3 0 1 1 4.56 0z" transform="matrix(1.136 0 0 1.136 30.32 -5.217)" stroke-linejoin="round" overflow="visible"/><path fill="none" stroke="#eeeeec" stroke-opacity=".502" stroke-width="1.717" d="M11.3 34a2.73 2.65 0 1 1-5.45 0 2.73 2.65 0 1 1 5.45 0z" transform="matrix(.574 0 0 .591 35.133 13.312)" stroke-linejoin="round" overflow="visible"/><path fill="#2e3436" fill-rule="evenodd" d="M22.13 17.4v3.85h-3.85v3.85h3.85v3.86H26V25.1h3.85v-3.85H26V17.4h-3.87z" overflow="visible"/><path fill="none" d="M22.56 16.67v5h-5v3h5v5h3v-5h5v-3h-5v-5h-3z" overflow="visible"/></g></svg>