<svg xmlns="http://www.w3.org/2000/svg" width="48" height="48" xmlns:xlink="http://www.w3.org/1999/xlink" version="1" viewBox="0 0 612 792" enable-background="new 0 0 612 792"><defs><linearGradient id="k"><stop offset="0" stop-color="#729fcf"/><stop offset=".2" stop-color="#729fcf" stop-opacity="0"/><stop offset=".4" stop-color="#729fcf"/><stop offset=".6" stop-color="#729fcf" stop-opacity="0"/><stop offset=".8" stop-color="#729fcf"/><stop offset="1" stop-color="#729fcf" stop-opacity="0"/></linearGradient><linearGradient id="j"><stop offset="0" stop-color="#fff" stop-opacity=".502"/><stop offset="1" stop-color="#729fcf" stop-opacity=".502"/></linearGradient><linearGradient><stop offset="0" stop-color="#465052"/><stop offset=".497" stop-color="#353b3d"/><stop offset="1"/></linearGradient><linearGradient x1="340.353" x2="335.096" y1="475.421" y2="457.896" xlink:href="#a" gradientUnits="userSpaceOnUse"/><radialGradient cx="339.367" cy="453.958" r="95.967" xlink:href="#b" gradientUnits="userSpaceOnUse" gradientTransform="matrix(1.017 0 0 1 -5.605 0)"/><radialGradient cx="351.672" cy="481.788" r="33.5" xlink:href="#c" gradientUnits="userSpaceOnUse" gradientTransform="matrix(1.017 0 0 1 -5.605 0)"/><radialGradient cx="359.026" cy="475.631" r="18.771" xlink:href="#d" gradientUnits="userSpaceOnUse" gradientTransform="matrix(1.017 0 0 1 -5.605 0)"/><radialGradient cx="352.289" cy="458.565" r="26.958" xlink:href="#e" gradientUnits="userSpaceOnUse" gradientTransform="matrix(.481 .881 -.314 .166 327.089 72.261)"/><radialGradient cx="334.403" cy="452.116" r="21.01" xlink:href="#f" gradientUnits="userSpaceOnUse" gradientTransform="matrix(-.514 .863 -.175 -.101 585.923 209.356)"/><radialGradient cx="335.654" cy="485.615" r="26.517" xlink:href="#g" gradientUnits="userSpaceOnUse" gradientTransform="matrix(1.007 -.141 .101 .693 -51.073 196.57)"/><radialGradient cx="347.987" cy="479.824" r="13.794" xlink:href="#h" gradientUnits="userSpaceOnUse" gradientTransform="matrix(.986 -.245 .174 .679 -78.438 239.297)"/><linearGradient id="a" x1="340.353" x2="335.096" y1="475.421" y2="457.896" gradientUnits="userSpaceOnUse"><stop offset="0" stop-color="#D8B08D" stop-opacity=".75"/><stop offset=".203" stop-color="#E9CFB5" stop-opacity=".385"/><stop offset=".749" stop-color="#fff" stop-opacity="0"/></linearGradient><radialGradient id="b" cx="339.367" cy="453.958" r="95.967" gradientTransform="matrix(1.017 0 0 1 -5.605 0)" gradientUnits="userSpaceOnUse"><stop offset="0" stop-color="#CDA183" stop-opacity=".75"/><stop offset=".141" stop-color="#E9CFB5" stop-opacity=".385"/><stop offset=".607" stop-color="#fff" stop-opacity="0"/></radialGradient><radialGradient id="c" cx="351.672" cy="481.788" r="33.5" gradientTransform="matrix(1.017 0 0 1 -5.605 0)" gradientUnits="userSpaceOnUse"><stop offset="0" stop-color="#161002" stop-opacity=".89"/><stop offset=".331" stop-color="#3F2E01" stop-opacity=".385"/><stop offset=".749" stop-color="#4C2F04" stop-opacity="0"/></radialGradient><radialGradient id="d" cx="359.026" cy="475.631" r="18.771" gradientTransform="matrix(1.017 0 0 1 -5.605 0)" gradientUnits="userSpaceOnUse"><stop offset=".037" stop-color="#443A22"/><stop offset=".429" stop-color="#1F1000" stop-opacity=".385"/><stop offset="1" stop-color="#4E3107" stop-opacity="0"/></radialGradient><radialGradient id="e" cx="352.289" cy="458.565" r="26.958" gradientTransform="matrix(.481 .881 -.314 .166 327.089 72.261)" gradientUnits="userSpaceOnUse"><stop offset=".037" stop-color="#8A756F"/><stop offset=".429" stop-color="#633812" stop-opacity=".385"/><stop offset="1" stop-color="#6F4C39" stop-opacity="0"/></radialGradient><radialGradient id="f" cx="334.403" cy="452.116" r="21.01" gradientTransform="matrix(-.514 .863 -.175 -.101 585.923 209.356)" gradientUnits="userSpaceOnUse"><stop offset="0" stop-color="#ECE7E8" stop-opacity=".52"/><stop offset=".203" stop-color="#DED8CD" stop-opacity=".385"/><stop offset=".749" stop-color="#603E14" stop-opacity="0"/></radialGradient><radialGradient id="g" cx="335.654" cy="485.615" r="26.517" gradientTransform="matrix(1.007 -.141 .101 .693 -51.073 196.57)" gradientUnits="userSpaceOnUse"><stop offset="0" stop-color="#CD925D"/><stop offset=".749" stop-color="#fff" stop-opacity="0"/></radialGradient><radialGradient id="h" cx="347.987" cy="479.824" r="13.794" gradientTransform="matrix(.986 -.245 .174 .679 -78.438 239.297)" gradientUnits="userSpaceOnUse"><stop offset="0" stop-color="#CD925D"/><stop offset=".749" stop-color="#fff" stop-opacity="0"/></radialGradient><linearGradient x1="-12.053" x2="-9.09" y1="16.643" y2="16.643" xlink:href="#i" gradientUnits="userSpaceOnUse"/><linearGradient id="i"><stop offset="0" stop-color="#ab6b00"/><stop offset="1" stop-color="#764a00"/></linearGradient><linearGradient x1="-12.053" x2="-9.09" y1="16.643" y2="16.643" xlink:href="#i" gradientUnits="userSpaceOnUse"/><linearGradient><stop offset="0" stop-color="#ab6b00"/><stop offset="1" stop-color="#764a00"/></linearGradient><linearGradient x1="-12.053" x2="-9.09" y1="16.643" y2="16.643" xlink:href="#i" gradientUnits="userSpaceOnUse"/><linearGradient><stop offset="0" stop-color="#ab6b00"/><stop offset="1" stop-color="#764a00"/></linearGradient><linearGradient x1="-12.053" x2="-9.09" y1="16.643" y2="16.643" xlink:href="#i" gradientUnits="userSpaceOnUse"/><linearGradient><stop offset="0" stop-color="#ab6b00"/><stop offset="1" stop-color="#764a00"/></linearGradient><linearGradient x1="-12.053" x2="-9.09" y1="16.643" y2="16.643" xlink:href="#i" gradientUnits="userSpaceOnUse"/><linearGradient><stop offset="0" stop-color="#ab6b00"/><stop offset="1" stop-color="#764a00"/></linearGradient><linearGradient x1="-12.053" x2="-9.09" y1="16.643" y2="16.643" xlink:href="#i" gradientUnits="userSpaceOnUse"/><linearGradient><stop offset="0" stop-color="#ab6b00"/><stop offset="1" stop-color="#764a00"/></linearGradient><linearGradient x1="-12.053" x2="-9.09" y1="16.643" y2="16.643" xlink:href="#i" gradientUnits="userSpaceOnUse"/><linearGradient><stop offset="0" stop-color="#ab6b00"/><stop offset="1" stop-color="#764a00"/></linearGradient><linearGradient x1="-12.053" x2="-9.09" y1="16.643" y2="16.643" xlink:href="#i" gradientUnits="userSpaceOnUse"/><linearGradient><stop offset="0" stop-color="#ab6b00"/><stop offset="1" stop-color="#764a00"/></linearGradient><linearGradient x1="-12.053" x2="-9.09" y1="16.643" y2="16.643" xlink:href="#i" gradientUnits="userSpaceOnUse"/><linearGradient><stop offset="0" stop-color="#ab6b00"/><stop offset="1" stop-color="#764a00"/></linearGradient><linearGradient x1="-12.053" x2="-9.09" y1="16.643" y2="16.643" xlink:href="#i" gradientUnits="userSpaceOnUse"/><linearGradient><stop offset="0" stop-color="#ab6b00"/><stop offset="1" stop-color="#764a00"/></linearGradient><linearGradient x1="-12.053" x2="-9.09" y1="16.643" y2="16.643" xlink:href="#i" gradientUnits="userSpaceOnUse"/><linearGradient><stop offset="0" stop-color="#ab6b00"/><stop offset="1" stop-color="#764a00"/></linearGradient><linearGradient x1="-12.053" x2="-9.09" y1="16.643" y2="16.643" xlink:href="#i" gradientUnits="userSpaceOnUse"/><linearGradient><stop offset="0" stop-color="#ab6b00"/><stop offset="1" stop-color="#764a00"/></linearGradient><linearGradient x1="-12.053" x2="-9.09" y1="16.643" y2="16.643" xlink:href="#i" gradientUnits="userSpaceOnUse"/><linearGradient><stop offset="0" stop-color="#ab6b00"/><stop offset="1" stop-color="#764a00"/></linearGradient><linearGradient x1="-12.053" x2="-9.09" y1="16.643" y2="16.643" xlink:href="#i" gradientUnits="userSpaceOnUse"/><linearGradient><stop offset="0" stop-color="#ab6b00"/><stop offset="1" stop-color="#764a00"/></linearGradient><linearGradient x1="-12.053" x2="-9.09" y1="16.643" y2="16.643" xlink:href="#i" gradientUnits="userSpaceOnUse"/><linearGradient><stop offset="0" stop-color="#ab6b00"/><stop offset="1" stop-color="#764a00"/></linearGradient><linearGradient x1="-12.053" x2="-9.09" y1="16.643" y2="16.643" xlink:href="#i" gradientUnits="userSpaceOnUse"/><linearGradient><stop offset="0" stop-color="#ab6b00"/><stop offset="1" stop-color="#764a00"/></linearGradient><linearGradient x1="-12.053" x2="-9.09" y1="16.643" y2="16.643" xlink:href="#i" gradientUnits="userSpaceOnUse"/><linearGradient><stop offset="0" stop-color="#ab6b00"/><stop offset="1" stop-color="#764a00"/></linearGradient><linearGradient x1="-12.053" x2="-9.09" y1="16.643" y2="16.643" xlink:href="#i" gradientUnits="userSpaceOnUse"/><linearGradient><stop offset="0" stop-color="#ab6b00"/><stop offset="1" stop-color="#764a00"/></linearGradient><linearGradient x1="-12.053" x2="-9.09" y1="16.643" y2="16.643" gradientUnits="userSpaceOnUse" xlink:href="#i"/><linearGradient x1="888.744" x2="876.696" y1="648.2" y2="648.2" gradientUnits="userSpaceOnUse" gradientTransform="translate(-855.345 -636.771)"><stop offset="0" stop-color="#fff" stop-opacity="0"/><stop offset="1" stop-color="#acd5f9"/></linearGradient><linearGradient><stop offset="0" stop-color="#9cc8f7" stop-opacity="0"/><stop offset="1" stop-color="#9cc8f7"/></linearGradient><radialGradient cx="16.657" cy="18.991" r="19.681" xlink:href="#j" fx="16.657" fy="18.991" gradientUnits="userSpaceOnUse"/><radialGradient cx="23.866" cy="23.92" r="23.92" xlink:href="#k" fx="23.866" fy="23.92" gradientUnits="userSpaceOnUse"/><linearGradient x1="23.201" x2="22.286" y1="3.505" y2="32.37" gradientTransform="matrix(8.819 0 0 8.816 248.659 170.49)" gradientUnits="userSpaceOnUse" xlink:href="#l"/><linearGradient id="l"><stop offset="0" stop-color="#d3d7cf"/><stop offset="1" stop-color="#fff"/></linearGradient><linearGradient x1="23.201" x2="22.286" y1="3.505" y2="32.37" gradientTransform="matrix(10.927 0 0 10.924 225.326 97.449)" gradientUnits="userSpaceOnUse" xlink:href="#l"/></defs><path fill-opacity=".251" fill-rule="evenodd" d="M-84.4 789.1c260.64-77.9 495.44-75.22 782.57 0L525.45 486.34c-152.88-38.5-304.8-41.64-449.15 0L-84.4 789.1z"/><path fill="#d3d7cf" fill-rule="evenodd" stroke="#555753" stroke-width="16.5" d="M-84.4 745.5c260.64-77.9 495.44-75.22 782.57 0L525.45 442.72c-152.88-38.5-304.8-41.64-449.15 0L-84.4 745.5z" stroke-linejoin="round"/><path fill="none" stroke="#fff" stroke-opacity=".502" stroke-width="16.5" d="M-51.54 718.26c235.35-66.3 452.17-60.75 716.02.83L515.7 457.77c-143.16-36.28-299.75-39.43-428.56-.83l-138.68 261.3z"/><path fill="none" stroke="#c4a000" stroke-width="49.5" d="M336.6 548.58C336.57 370.12 329.53 193 104 57.9" stroke-linecap="round"/><path fill="none" stroke="#fef4a7" stroke-width="33" d="M336.6 548.58C336.57 370.12 329.53 193 104 57.9" stroke-linecap="round"/><path fill="none" stroke="#ef2929" stroke-width="16.5" d="M337.6 553.47V348.2"/><path fill="#ef2929" d="M361.15 552.5a23.56 23.46 0 1 1-47.1 0 23.56 23.46 0 1 1 47.1 0z" color="#000" overflow="visible" enable-background="accumulate"/><path fill="none" stroke="#ef2929" stroke-width="16.5" d="M306.22 283.68L235.57 90.85"/><path fill="#ef2929" d="M328 274.72c6.24 16.96-8.3 34.27-26.17 31.16-8.3-1.44-15.2-7.2-18.08-15.08-6.22-16.96 8.32-34.27 26.18-31.16 8.3 1.44 15.2 7.2 18.08 15.08z" color="#000" overflow="visible" enable-background="accumulate"/><path fill="none" stroke="#ef2929" stroke-width="16.5" d="M210.67 139.22L49.94 10.72"/><path fill="#ef2929" d="M224.65 120.32c14.15 11.3 10.72 33.6-6.18 40.16-7.85 3.05-16.74 1.68-23.3-3.58-14.16-11.3-10.72-33.6 6.17-40.16 7.86-3.04 16.74-1.68 23.3 3.58z" color="#000" overflow="visible" enable-background="accumulate"/></svg>