<svg xmlns="http://www.w3.org/2000/svg" width="48" height="48" xmlns:xlink="http://www.w3.org/1999/xlink" version="1" viewBox="0 0 612 792" enable-background="new 0 0 612 792"><defs><linearGradient id="k"><stop offset="0" stop-color="#729fcf"/><stop offset=".2" stop-color="#729fcf" stop-opacity="0"/><stop offset=".4" stop-color="#729fcf"/><stop offset=".6" stop-color="#729fcf" stop-opacity="0"/><stop offset=".8" stop-color="#729fcf"/><stop offset="1" stop-color="#729fcf" stop-opacity="0"/></linearGradient><linearGradient id="j"><stop offset="0" stop-color="#fff" stop-opacity=".502"/><stop offset="1" stop-color="#729fcf" stop-opacity=".502"/></linearGradient><linearGradient><stop offset="0" stop-color="#465052"/><stop offset=".497" stop-color="#353b3d"/><stop offset="1"/></linearGradient><linearGradient x1="340.353" x2="335.096" y1="475.421" y2="457.896" xlink:href="#a" gradientUnits="userSpaceOnUse"/><radialGradient cx="339.367" cy="453.958" r="95.967" xlink:href="#b" gradientUnits="userSpaceOnUse" gradientTransform="matrix(1.017 0 0 1 -5.605 0)"/><radialGradient cx="351.672" cy="481.788" r="33.5" xlink:href="#c" gradientUnits="userSpaceOnUse" gradientTransform="matrix(1.017 0 0 1 -5.605 0)"/><radialGradient cx="359.026" cy="475.631" r="18.771" xlink:href="#d" gradientUnits="userSpaceOnUse" gradientTransform="matrix(1.017 0 0 1 -5.605 0)"/><radialGradient cx="352.289" cy="458.565" r="26.958" xlink:href="#e" gradientUnits="userSpaceOnUse" gradientTransform="matrix(.481 .881 -.314 .166 327.089 72.261)"/><radialGradient cx="334.403" cy="452.116" r="21.01" xlink:href="#f" gradientUnits="userSpaceOnUse" gradientTransform="matrix(-.514 .863 -.175 -.101 585.923 209.356)"/><radialGradient cx="335.654" cy="485.615" r="26.517" xlink:href="#g" gradientUnits="userSpaceOnUse" gradientTransform="matrix(1.007 -.141 .101 .693 -51.073 196.57)"/><radialGradient cx="347.987" cy="479.824" r="13.794" xlink:href="#h" gradientUnits="userSpaceOnUse" gradientTransform="matrix(.986 -.245 .174 .679 -78.438 239.297)"/><linearGradient id="a" x1="340.353" x2="335.096" y1="475.421" y2="457.896" gradientUnits="userSpaceOnUse"><stop offset="0" stop-color="#D8B08D" stop-opacity=".75"/><stop offset=".203" stop-color="#E9CFB5" stop-opacity=".385"/><stop offset=".749" stop-color="#fff" stop-opacity="0"/></linearGradient><radialGradient id="b" cx="339.367" cy="453.958" r="95.967" gradientTransform="matrix(1.017 0 0 1 -5.605 0)" gradientUnits="userSpaceOnUse"><stop offset="0" stop-color="#CDA183" stop-opacity=".75"/><stop offset=".141" stop-color="#E9CFB5" stop-opacity=".385"/><stop offset=".607" stop-color="#fff" stop-opacity="0"/></radialGradient><radialGradient id="c" cx="351.672" cy="481.788" r="33.5" gradientTransform="matrix(1.017 0 0 1 -5.605 0)" gradientUnits="userSpaceOnUse"><stop offset="0" stop-color="#161002" stop-opacity=".89"/><stop offset=".331" stop-color="#3F2E01" stop-opacity=".385"/><stop offset=".749" stop-color="#4C2F04" stop-opacity="0"/></radialGradient><radialGradient id="d" cx="359.026" cy="475.631" r="18.771" gradientTransform="matrix(1.017 0 0 1 -5.605 0)" gradientUnits="userSpaceOnUse"><stop offset=".037" stop-color="#443A22"/><stop offset=".429" stop-color="#1F1000" stop-opacity=".385"/><stop offset="1" stop-color="#4E3107" stop-opacity="0"/></radialGradient><radialGradient id="e" cx="352.289" cy="458.565" r="26.958" gradientTransform="matrix(.481 .881 -.314 .166 327.089 72.261)" gradientUnits="userSpaceOnUse"><stop offset=".037" stop-color="#8A756F"/><stop offset=".429" stop-color="#633812" stop-opacity=".385"/><stop offset="1" stop-color="#6F4C39" stop-opacity="0"/></radialGradient><radialGradient id="f" cx="334.403" cy="452.116" r="21.01" gradientTransform="matrix(-.514 .863 -.175 -.101 585.923 209.356)" gradientUnits="userSpaceOnUse"><stop offset="0" stop-color="#ECE7E8" stop-opacity=".52"/><stop offset=".203" stop-color="#DED8CD" stop-opacity=".385"/><stop offset=".749" stop-color="#603E14" stop-opacity="0"/></radialGradient><radialGradient id="g" cx="335.654" cy="485.615" r="26.517" gradientTransform="matrix(1.007 -.141 .101 .693 -51.073 196.57)" gradientUnits="userSpaceOnUse"><stop offset="0" stop-color="#CD925D"/><stop offset=".749" stop-color="#fff" stop-opacity="0"/></radialGradient><radialGradient id="h" cx="347.987" cy="479.824" r="13.794" gradientTransform="matrix(.986 -.245 .174 .679 -78.438 239.297)" gradientUnits="userSpaceOnUse"><stop offset="0" stop-color="#CD925D"/><stop offset=".749" stop-color="#fff" stop-opacity="0"/></radialGradient><linearGradient x1="-12.053" x2="-9.09" y1="16.643" y2="16.643" xlink:href="#i" gradientUnits="userSpaceOnUse"/><linearGradient id="i"><stop offset="0" stop-color="#ab6b00"/><stop offset="1" stop-color="#764a00"/></linearGradient><linearGradient x1="-12.053" x2="-9.09" y1="16.643" y2="16.643" xlink:href="#i" gradientUnits="userSpaceOnUse"/><linearGradient><stop offset="0" stop-color="#ab6b00"/><stop offset="1" stop-color="#764a00"/></linearGradient><linearGradient x1="-12.053" x2="-9.09" y1="16.643" y2="16.643" xlink:href="#i" gradientUnits="userSpaceOnUse"/><linearGradient><stop offset="0" stop-color="#ab6b00"/><stop offset="1" stop-color="#764a00"/></linearGradient><linearGradient x1="-12.053" x2="-9.09" y1="16.643" y2="16.643" xlink:href="#i" gradientUnits="userSpaceOnUse"/><linearGradient><stop offset="0" stop-color="#ab6b00"/><stop offset="1" stop-color="#764a00"/></linearGradient><linearGradient x1="-12.053" x2="-9.09" y1="16.643" y2="16.643" xlink:href="#i" gradientUnits="userSpaceOnUse"/><linearGradient><stop offset="0" stop-color="#ab6b00"/><stop offset="1" stop-color="#764a00"/></linearGradient><linearGradient x1="-12.053" x2="-9.09" y1="16.643" y2="16.643" xlink:href="#i" gradientUnits="userSpaceOnUse"/><linearGradient><stop offset="0" stop-color="#ab6b00"/><stop offset="1" stop-color="#764a00"/></linearGradient><linearGradient x1="-12.053" x2="-9.09" y1="16.643" y2="16.643" xlink:href="#i" gradientUnits="userSpaceOnUse"/><linearGradient><stop offset="0" stop-color="#ab6b00"/><stop offset="1" stop-color="#764a00"/></linearGradient><linearGradient x1="-12.053" x2="-9.09" y1="16.643" y2="16.643" xlink:href="#i" gradientUnits="userSpaceOnUse"/><linearGradient><stop offset="0" stop-color="#ab6b00"/><stop offset="1" stop-color="#764a00"/></linearGradient><linearGradient x1="-12.053" x2="-9.09" y1="16.643" y2="16.643" xlink:href="#i" gradientUnits="userSpaceOnUse"/><linearGradient><stop offset="0" stop-color="#ab6b00"/><stop offset="1" stop-color="#764a00"/></linearGradient><linearGradient x1="-12.053" x2="-9.09" y1="16.643" y2="16.643" xlink:href="#i" gradientUnits="userSpaceOnUse"/><linearGradient><stop offset="0" stop-color="#ab6b00"/><stop offset="1" stop-color="#764a00"/></linearGradient><linearGradient x1="-12.053" x2="-9.09" y1="16.643" y2="16.643" xlink:href="#i" gradientUnits="userSpaceOnUse"/><linearGradient><stop offset="0" stop-color="#ab6b00"/><stop offset="1" stop-color="#764a00"/></linearGradient><linearGradient x1="-12.053" x2="-9.09" y1="16.643" y2="16.643" xlink:href="#i" gradientUnits="userSpaceOnUse"/><linearGradient><stop offset="0" stop-color="#ab6b00"/><stop offset="1" stop-color="#764a00"/></linearGradient><linearGradient x1="-12.053" x2="-9.09" y1="16.643" y2="16.643" xlink:href="#i" gradientUnits="userSpaceOnUse"/><linearGradient><stop offset="0" stop-color="#ab6b00"/><stop offset="1" stop-color="#764a00"/></linearGradient><linearGradient x1="-12.053" x2="-9.09" y1="16.643" y2="16.643" xlink:href="#i" gradientUnits="userSpaceOnUse"/><linearGradient><stop offset="0" stop-color="#ab6b00"/><stop offset="1" stop-color="#764a00"/></linearGradient><linearGradient x1="-12.053" x2="-9.09" y1="16.643" y2="16.643" xlink:href="#i" gradientUnits="userSpaceOnUse"/><linearGradient><stop offset="0" stop-color="#ab6b00"/><stop offset="1" stop-color="#764a00"/></linearGradient><linearGradient x1="-12.053" x2="-9.09" y1="16.643" y2="16.643" xlink:href="#i" gradientUnits="userSpaceOnUse"/><linearGradient><stop offset="0" stop-color="#ab6b00"/><stop offset="1" stop-color="#764a00"/></linearGradient><linearGradient x1="-12.053" x2="-9.09" y1="16.643" y2="16.643" xlink:href="#i" gradientUnits="userSpaceOnUse"/><linearGradient><stop offset="0" stop-color="#ab6b00"/><stop offset="1" stop-color="#764a00"/></linearGradient><linearGradient x1="-12.053" x2="-9.09" y1="16.643" y2="16.643" xlink:href="#i" gradientUnits="userSpaceOnUse"/><linearGradient><stop offset="0" stop-color="#ab6b00"/><stop offset="1" stop-color="#764a00"/></linearGradient><linearGradient x1="-12.053" x2="-9.09" y1="16.643" y2="16.643" gradientUnits="userSpaceOnUse" xlink:href="#i"/><linearGradient x1="888.744" x2="876.696" y1="648.2" y2="648.2" gradientUnits="userSpaceOnUse" gradientTransform="translate(-855.345 -636.771)"><stop offset="0" stop-color="#fff" stop-opacity="0"/><stop offset="1" stop-color="#acd5f9"/></linearGradient><linearGradient><stop offset="0" stop-color="#9cc8f7" stop-opacity="0"/><stop offset="1" stop-color="#9cc8f7"/></linearGradient><radialGradient cx="16.657" cy="18.991" r="19.681" xlink:href="#j" fx="16.657" fy="18.991" gradientUnits="userSpaceOnUse"/><radialGradient cx="23.866" cy="23.92" r="23.92" xlink:href="#k" fx="23.866" fy="23.92" gradientUnits="userSpaceOnUse"/><radialGradient cx="824.329" cy="111.252" r="46.312" gradientUnits="userSpaceOnUse" fy="111.252" fx="824.329" gradientTransform="translate(-823.738 -75.782)"><stop offset=".006" stop-color="#FAAF3E"/><stop offset=".646" stop-color="#F17912"/><stop offset="1" stop-color="#DD680E"/></radialGradient><radialGradient cx="804.052" cy="127.362" r="71.221" gradientUnits="userSpaceOnUse" fy="127.362" fx="804.052"><stop offset=".006" stop-color="#FAAF3E"/><stop offset=".646" stop-color="#F17912"/><stop offset="1" stop-color="#DD680E"/></radialGradient><radialGradient cx="824.328" cy="111.252" r="46.311" gradientUnits="userSpaceOnUse" fy="111.252" fx="824.328"><stop offset=".006" stop-color="#FAAF3E"/><stop offset=".646" stop-color="#F17912"/><stop offset="1" stop-color="#DD680E"/></radialGradient><radialGradient cx="824.331" cy="111.252" r="46.304" gradientUnits="userSpaceOnUse" fy="111.252" fx="824.331"><stop offset=".006" stop-color="#FAAF3E"/><stop offset=".646" stop-color="#F17912"/><stop offset="1" stop-color="#DD680E"/></radialGradient><radialGradient cx="824.325" cy="111.252" r="46.319" gradientUnits="userSpaceOnUse" fy="111.252" fx="824.325"><stop offset=".006" stop-color="#FAAF3E"/><stop offset=".646" stop-color="#F17912"/><stop offset="1" stop-color="#DD680E"/></radialGradient><radialGradient cx="824.327" cy="111.253" r="46.314" gradientUnits="userSpaceOnUse" fy="111.253" fx="824.327"><stop offset=".006" stop-color="#FAAF3E"/><stop offset=".646" stop-color="#F17912"/><stop offset="1" stop-color="#DD680E"/></radialGradient><radialGradient cx="824.326" cy="111.252" r="46.315" gradientUnits="userSpaceOnUse" fy="111.252" fx="824.326"><stop offset=".006" stop-color="#FAAF3E"/><stop offset=".646" stop-color="#F17912"/><stop offset="1" stop-color="#DD680E"/></radialGradient><radialGradient cx="824.328" cy="111.252" r="46.311" gradientUnits="userSpaceOnUse" fy="111.252" fx="824.328"><stop offset=".006" stop-color="#FAAF3E"/><stop offset=".646" stop-color="#F17912"/><stop offset="1" stop-color="#DD680E"/></radialGradient><radialGradient cx="824.328" cy="111.253" r="46.311" gradientUnits="userSpaceOnUse" fy="111.253" fx="824.328"><stop offset=".006" stop-color="#FAAF3E"/><stop offset=".646" stop-color="#F17912"/><stop offset="1" stop-color="#DD680E"/></radialGradient><radialGradient cx="824.328" cy="111.251" r="46.31" gradientUnits="userSpaceOnUse" fy="111.251" fx="824.328"><stop offset=".006" stop-color="#FAAF3E"/><stop offset=".646" stop-color="#F17912"/><stop offset="1" stop-color="#DD680E"/></radialGradient><radialGradient cx="824.325" cy="111.253" r="46.316" gradientUnits="userSpaceOnUse" fy="111.253" fx="824.325"><stop offset=".006" stop-color="#FAAF3E"/><stop offset=".646" stop-color="#F17912"/><stop offset="1" stop-color="#DD680E"/></radialGradient><radialGradient cx="824.33" cy="111.252" r="46.307" gradientUnits="userSpaceOnUse" fy="111.252" fx="824.33"><stop offset=".006" stop-color="#FAAF3E"/><stop offset=".646" stop-color="#F17912"/><stop offset="1" stop-color="#DD680E"/></radialGradient></defs><path fill-opacity=".251" fill-rule="evenodd" d="M-84.4 792.64c260.64-77.9 495.44-75.22 782.57 0L525.45 489.87c-152.88-38.5-304.8-41.64-449.15 0L-84.4 792.64z"/><path fill="#d3d7cf" fill-rule="evenodd" stroke="#555753" stroke-width="16.5" d="M-84.4 749.03c260.64-77.9 495.44-75.22 782.57 0L525.45 446.27c-152.88-38.5-304.8-41.65-449.15 0L-84.4 749.03z" stroke-linejoin="round"/><path fill="#fff" fill-opacity=".543" stroke="#ef2929" stroke-width="16.5" d="M504 549.8a190.93 76.9 0 1 1-381.86 0 190.93 76.9 0 1 1 381.86 0z" color="#000" overflow="visible" enable-background="accumulate" stroke-dasharray="2, 1"/><path fill="none" stroke="#fff" stroke-opacity=".502" stroke-width="16.5" d="M-51.54 721.8c235.35-66.32 452.17-60.75 716.02.83L515.7 461.33c-143.16-36.3-299.75-39.45-428.56-.84L-51.54 721.8z"/><path fill="#fce94f" fill-rule="evenodd" stroke="#c4a000" stroke-width="8.967" d="M70.74 568.54C48.92 503.2 50.6 453.22 76.9 392.72c4.75-10.9-12.47-19.8-20.23-5.8-33.02 59.55-28.2 123.02-9.46 187.97 4.76 16.44 28.44 8.32 23.54-6.36z"/><path fill="#fce94f" fill-rule="evenodd" stroke="#ef2929" stroke-width="8.967" d="M253.7 498.94c-21.8-71.86-20.12-126.8 6.18-193.32 4.74-12-12.47-21.76-20.23-6.37-33.02 65.47-28.22 135.26-9.47 206.67 4.75 18.1 28.43 9.16 23.53-6.98z"/><path fill="#fce94f" fill-rule="evenodd" stroke="#c4a000" stroke-width="8.967" d="M291.6 434.78c-9.6-83.45 1.2-143.83 38.16-212.44 6.67-12.37-8.68-26.36-18.9-10.8-43.42 66.2-50.27 144.2-43.63 226.58 1.68 20.86 26.52 15.4 24.37-3.34z"/><path fill="#fce94f" fill-rule="evenodd" stroke="#ef2929" stroke-width="8.967" d="M213.48 546.03c-5.9-70.32 7.5-120.37 47.44-176.1 7.2-10.05-7.5-22.48-18.4-9.93C196.26 413.42 186 478.4 189 547.7c.77 17.55 25.8 14.1 24.48-1.67z"/><path fill="#fce94f" fill-rule="evenodd" stroke="#c4a000" stroke-width="8.967" d="M242.9 630.92c-16.4-60.22-10.63-104.9 20.53-157.23 5.62-9.44-10.8-18.67-19.7-6.7-37.77 50.98-38.18 108.25-24.8 167.88 3.4 15.1 27.65 9.56 23.97-3.96z"/><path fill="#fce94f" fill-rule="evenodd" stroke="#ef2929" stroke-width="8.967" d="M439.57 509.84c-6.45-74.83 6.6-128.22 46.1-187.85 7.13-10.76-7.7-23.88-18.47-10.44-45.87 57.2-55.64 126.48-52.1 200.23.9 18.67 25.92 14.84 24.47-1.96z"/><path fill="#fce94f" fill-rule="evenodd" stroke="#c4a000" stroke-width="8.967" d="M477.64 592.38c-5.2-83.84 8.74-143.57 49.27-210.14 7.32-12-7.28-26.8-18.3-11.8-46.83 63.84-57.77 141.37-55.46 224 .58 20.92 25.67 16.76 24.5-2.06z"/><path fill="#fce94f" fill-rule="evenodd" stroke="#c4a000" stroke-width="8.967" d="M560.9 538.92c-7-99.87 16.88-167.56 60.16-250.44 6.7-12.82-9.14-32.35-17.92-17.58-48.66 81.8-70.88 168.47-67.74 266.93.72 22.32 26.93 21.44 25.5 1.1z"/><path fill="#fce94f" fill-rule="evenodd" stroke="#ef2929" stroke-width="8.967" d="M316.02 545.14c-5.92-70.3 7.5-120.37 47.44-176.1 7.2-10.05-7.52-22.47-18.4-9.92-46.28 53.42-56.54 118.4-53.52 187.7.76 17.54 25.8 14.1 24.48-1.68z"/><path fill="#fce94f" fill-rule="evenodd" stroke="#c4a000" stroke-width="8.967" d="M142.34 591.75c-21.82-71.86-20.14-126.8 6.16-193.32 4.74-12-12.47-21.76-20.23-6.37-33.02 65.48-28.22 135.26-9.46 206.68 4.75 18.08 28.44 9.15 23.54-7z"/><path fill="#fce94f" fill-rule="evenodd" stroke="#c4a000" stroke-width="8.967" d="M549.83 652.75C528 580.9 529.7 525.95 556 459.43c4.74-12-12.48-21.77-20.24-6.38-33.02 65.48-28.22 135.26-9.46 206.68 4.75 18.08 28.43 9.15 23.53-6.98z"/><path fill="#fce94f" fill-rule="evenodd" stroke="#c4a000" stroke-width="8.967" d="M91.5 653.87c-5.92-70.32 7.5-120.37 47.44-176.1 7.2-10.05-7.52-22.48-18.4-9.93-46.28 53.42-56.54 118.4-53.52 187.7.76 17.54 25.8 14.1 24.48-1.67z"/><path fill="#fce94f" fill-rule="evenodd" stroke="#ef2929" stroke-width="8.967" d="M391.15 554.87c-5.92-70.32 7.5-120.37 47.44-176.1 7.2-10.05-7.53-22.48-18.4-9.93-46.28 53.42-56.54 118.4-53.53 187.7.77 17.54 25.8 14.1 24.48-1.67z"/><path fill="#fce94f" fill-rule="evenodd" stroke="#c4a000" stroke-width="8.967" d="M356.17 649.05c-3.48-56 10.5-94.22 49.44-134.5 7.02-7.25-6.36-18.4-16.88-9.5-44.8 37.85-56.26 88.15-55.46 143.06.2 13.92 23.7 13.52 22.9.95z"/></svg>