<svg xmlns="http://www.w3.org/2000/svg" width="48" height="48"><g stroke-width=".5" color="#000" stroke-linejoin="bevel"><path fill="#6093c9" stroke="#204a87" d="M37 8.8l-8.5-2.36-2.3 3.47 8.13 3.68z" overflow="visible" enable-background="accumulate"/><path fill="#edd400" stroke="#9b7f00" d="M28.17 6.9l-7.9-2.24-2.7 3.68 7.5 2.02 1.2-.58z" overflow="visible" enable-background="accumulate"/><path fill="#729fcf" stroke="#204a87" d="M34.4 12.26l-8.9-2.6-2.45 3.68 8.47 4.04z" overflow="visible" enable-background="accumulate"/><path fill="#fce94f" stroke="#9b7f00" d="M25.03 10.32L16.98 8.1 13.96 12l7.36 2.12 1.85-.95z" overflow="visible" enable-background="accumulate"/><path fill="#edd400" stroke="#9b7f00" d="M16.28 9L8.76 6.9 5.2 11.14l6.9 2.02 2-1.24z" overflow="visible" enable-background="accumulate"/><path fill="#6093c9" stroke="#204a87" d="M12.02 13.13l-7.27-2.07-4.42 5.17L9 19z" overflow="visible" enable-background="accumulate"/><path fill="#729fcf" stroke="#204a87" d="M21.27 14.16l-8.17-2.4-4.05 5.54 9.1 2.73z" overflow="visible" enable-background="accumulate"/><path fill="#bcd1e9" stroke="#204a87" d="M31.6 15.8l-9.42-2.84-3.8 5.7 9.7 2.98z" overflow="visible" enable-background="accumulate"/><path fill="#3465a4" stroke="#204a87" d="M27.68 26.4l.45-4.8-9.7-2.98-.17 1.37L9.1 17.2l-.05 1.73-8.68-2.8.18 1.5z" overflow="visible" enable-background="accumulate"/><path fill="#c4a000" stroke="#9b7f00" d="M17.02 8.17l-.04-1.2L8.8 4.55v2.4l7.48 2.1z" overflow="visible" enable-background="accumulate"/><path fill="#fdf4a5" stroke="#9b7f00" d="M20.32 2.47L12.48.27l-3.56 4.3 8.1 2.28z" overflow="visible" enable-background="accumulate"/><path stroke="#9b7f00" d="M20.37 2.4l-3.4 4.53.1 1.24.57.1 2.6-3.53z" overflow="visible" enable-background="accumulate"/><path stroke="#204a87" d="M37.05 8.8l-2.76 4.83.1-1.37-3 5.25.2-1.7-3.5 5.88-.42 4.7 9.4-16.56z" overflow="visible" enable-background="accumulate"/><path fill="#6093c9" stroke="#204a87" d="M47.65 30.3l-8.5-2.36-2.32 3.47 8.14 3.68z" overflow="visible" enable-background="accumulate"/><path fill="#f57900" stroke="#a04000" d="M38.8 28.4l-7.87-2.24-2.73 3.68 7.52 2.02 1.2-.58z" overflow="visible" enable-background="accumulate"/><path fill="#729fcf" stroke="#204a87" d="M45.05 33.76l-8.92-2.6-2.44 3.68 8.46 4.04z" overflow="visible" enable-background="accumulate"/><path fill="#fcaf3e" stroke="#a04000" d="M35.68 31.82l-8.06-2.23-3 3.9 7.34 2.12 1.86-.95z" overflow="visible" enable-background="accumulate"/><path fill="#f57900" stroke="#a04000" d="M26.92 30.5l-7.52-2.1-3.55 4.25 6.9 2.02 1.98-1.24z" overflow="visible" enable-background="accumulate"/><path fill="#6093c9" stroke="#204a87" d="M22.67 34.63l-7.27-2.07-4.42 5.17 8.67 2.76z" overflow="visible" enable-background="accumulate"/><path fill="#729fcf" stroke="#204a87" d="M31.92 35.66l-8.18-2.4-4.05 5.54 9.08 2.73z" overflow="visible" enable-background="accumulate"/><path fill="#bcd1e9" stroke="#204a87" d="M42.24 37.3l-9.4-2.84-3.8 5.7 9.7 2.98z" overflow="visible" enable-background="accumulate"/><path fill="#3465a4" stroke="#204a87" d="M38.32 47.9l.45-4.8-9.7-2.98-.17 1.37-9.17-2.78-.04 1.73-8.68-2.8.17 1.5z" overflow="visible" enable-background="accumulate"/><path fill="#ce5c00" stroke="#a04000" d="M27.66 29.67l-.04-1.2-8.18-2.43v2.4l7.48 2.1z" overflow="visible" enable-background="accumulate"/><path fill="#fcaf3e" stroke="#a04000" d="M30.97 23.97l-7.85-2.2-3.55 4.3 8.1 2.28z" overflow="visible" enable-background="accumulate"/><path stroke="#a04000" d="M31 23.9l-3.38 4.53.08 1.24.58.1 2.6-3.53z" overflow="visible" enable-background="accumulate"/><path stroke="#204a87" d="M47.7 30.3l-2.77 4.83.12-1.37-3 5.25.2-1.7-3.52 5.88-.4 4.7 9.4-16.56z" overflow="visible" enable-background="accumulate"/></g></svg>