<svg xmlns="http://www.w3.org/2000/svg" width="48" height="48" xmlns:xlink="http://www.w3.org/1999/xlink"><defs><linearGradient x1="6.509" x2="10.484" y1="32.061" y2="36.162" xlink:href="#a" gradientUnits="userSpaceOnUse"/><linearGradient id="a"><stop offset="0" stop-color="#9a7e00"/><stop offset="1" stop-color="#643e00"/></linearGradient><linearGradient x1="6.509" x2="10.484" y1="32.061" y2="36.162" xlink:href="#a" gradientUnits="userSpaceOnUse"/><linearGradient><stop offset="0" stop-color="#9a7e00"/><stop offset="1" stop-color="#643e00"/></linearGradient><linearGradient x1="6.509" x2="10.484" y1="32.061" y2="36.162" xlink:href="#a" gradientUnits="userSpaceOnUse"/><linearGradient><stop offset="0" stop-color="#9a7e00"/><stop offset="1" stop-color="#643e00"/></linearGradient><linearGradient x1="6.509" x2="10.484" y1="32.061" y2="36.162" xlink:href="#a" gradientUnits="userSpaceOnUse"/><linearGradient><stop offset="0" stop-color="#9a7e00"/><stop offset="1" stop-color="#643e00"/></linearGradient><linearGradient x1="6.509" x2="10.484" y1="32.061" y2="36.162" xlink:href="#a" gradientUnits="userSpaceOnUse"/><linearGradient><stop offset="0" stop-color="#9a7e00"/><stop offset="1" stop-color="#643e00"/></linearGradient><linearGradient x1="6.509" x2="10.484" y1="32.061" y2="36.162" xlink:href="#a" gradientUnits="userSpaceOnUse"/><linearGradient><stop offset="0" stop-color="#9a7e00"/><stop offset="1" stop-color="#643e00"/></linearGradient><linearGradient x1="6.509" x2="10.484" y1="32.061" y2="36.162" xlink:href="#a" gradientUnits="userSpaceOnUse"/><linearGradient><stop offset="0" stop-color="#9a7e00"/><stop offset="1" stop-color="#643e00"/></linearGradient><linearGradient x1="6.509" x2="10.484" y1="32.061" y2="36.162" xlink:href="#a" gradientUnits="userSpaceOnUse"/><linearGradient><stop offset="0" stop-color="#9a7e00"/><stop offset="1" stop-color="#643e00"/></linearGradient><linearGradient x1="6.509" x2="10.484" y1="32.061" y2="36.162" xlink:href="#a" gradientUnits="userSpaceOnUse"/><linearGradient><stop offset="0" stop-color="#9a7e00"/><stop offset="1" stop-color="#643e00"/></linearGradient><linearGradient x1="6.509" x2="10.484" y1="32.061" y2="36.162" xlink:href="#a" gradientUnits="userSpaceOnUse"/><linearGradient><stop offset="0" stop-color="#9a7e00"/><stop offset="1" stop-color="#643e00"/></linearGradient><linearGradient x1="6.509" x2="10.484" y1="32.061" y2="36.162" xlink:href="#a" gradientUnits="userSpaceOnUse"/><linearGradient><stop offset="0" stop-color="#9a7e00"/><stop offset="1" stop-color="#643e00"/></linearGradient><linearGradient x1="6.509" x2="10.484" y1="32.061" y2="36.162" xlink:href="#a" gradientUnits="userSpaceOnUse"/><linearGradient x1="6.509" x2="10.484" y1="32.061" y2="36.162" xlink:href="#a" gradientUnits="userSpaceOnUse"/><linearGradient x1="6.509" x2="10.484" y1="32.061" y2="36.162" xlink:href="#a" gradientUnits="userSpaceOnUse"/><linearGradient x1="6.509" x2="10.484" y1="32.061" y2="36.162" xlink:href="#a" gradientUnits="userSpaceOnUse"/><linearGradient x1="6.509" x2="10.484" y1="32.061" y2="36.162" xlink:href="#a" gradientUnits="userSpaceOnUse"/><linearGradient x1="6.509" x2="10.484" y1="32.061" y2="36.162" xlink:href="#a" gradientUnits="userSpaceOnUse"/><linearGradient x1="6.509" x2="10.484" y1="32.061" y2="36.162" xlink:href="#a" gradientUnits="userSpaceOnUse"/><linearGradient x1="6.509" x2="10.484" y1="32.061" y2="36.162" xlink:href="#a" gradientUnits="userSpaceOnUse"/><linearGradient x1="6.509" x2="10.484" y1="32.061" y2="36.162" xlink:href="#a" gradientUnits="userSpaceOnUse"/><linearGradient x1="6.509" x2="10.484" y1="32.061" y2="36.162" xlink:href="#a" gradientUnits="userSpaceOnUse"/><linearGradient x1="6.509" x2="10.484" y1="32.061" y2="36.162" xlink:href="#a" gradientUnits="userSpaceOnUse"/><linearGradient x1="6.509" x2="10.484" y1="32.061" y2="36.162" xlink:href="#a" gradientUnits="userSpaceOnUse"/><linearGradient x1="6.509" x2="10.484" y1="32.061" y2="36.162" xlink:href="#a" gradientUnits="userSpaceOnUse"/><linearGradient x1="6.509" x2="10.484" y1="32.061" y2="36.162" xlink:href="#a" gradientUnits="userSpaceOnUse"/><linearGradient x1="6.509" x2="10.484" y1="32.061" y2="36.162" xlink:href="#a" gradientUnits="userSpaceOnUse"/><linearGradient x1="6.509" x2="10.484" y1="32.061" y2="36.162" xlink:href="#a" gradientUnits="userSpaceOnUse"/></defs><g><g stroke="#555753" stroke-width=".219" stroke-linejoin="bevel"><path fill="#fff" d="M27.9 10.88l-2.88-.84-.02 3.5 4.67 2.68.73-1.22-3.3-1.13z" color="#000" overflow="visible" enable-background="accumulate"/><path fill="#fff" d="M42.83 12.72l-4.88-1.3-1.7 2.82 5.18 1.54z" color="#000" overflow="visible" enable-background="accumulate"/><path fill="#fff" d="M47.86 12.12l-4.96-1.48-1.57 2.9 5.1 1.57z" color="#000" overflow="visible" enable-background="accumulate"/><path fill="#fff" d="M33.5 10.64l-4.48-1.28-1.8 2.6 4.7 1.44z" color="#000" overflow="visible" enable-background="accumulate"/><path fill="#fff" d="M37.95 10.24l-4.5-1.28-1.8 2.6 4.7 1.43z" color="#000" overflow="visible" enable-background="accumulate"/><path fill="#fff" d="M17 7.48l3.07 1-1.83 2.23-3.17-1.1z" color="#000" overflow="visible" enable-background="accumulate"/><path fill="#fff" d="M24.97 8.9l-4.5-1.28-2.44 2.75 4.65 1.55z" color="#000" overflow="visible" enable-background="accumulate"/><path fill="#fff" d="M39.4 19.95l1.1-3.36-4.25-1.32-1.86 3.1z" color="#000" overflow="visible" enable-background="accumulate"/><path fill="#fff" d="M46.23 16.9l-5.03-1.62-1.68 3.16 5.2 1.68z" color="#000" overflow="visible" enable-background="accumulate"/><path fill="#fff" d="M36.27 14.74l-4.7-1.4-1.98 2.9 4.8 1.56z" color="#000" overflow="visible" enable-background="accumulate"/><path fill="#fff" d="M18.03 10.67l-3.35-1.14-2.4 2.56 4.1 1.3z" color="#000" overflow="visible" enable-background="accumulate"/><path fill="#fff" d="M18.08 10.7l-1.78 1.92 1.84.57z" color="#000" overflow="visible" enable-background="accumulate"/><path fill="none" d="M17.36 14.34l-1-.37-1.14 1.3 1 .38z" color="#000" overflow="visible" enable-background="accumulate"/><path fill="#fff" d="M17.4 14.27l-5.1-1.7-4.33 4.66 3.12 1.24 5.15-2.82z" color="#000" overflow="visible" enable-background="accumulate"/><path fill="#fff" d="M16.2 15.65l-2.42-.88-2.7 3.1 4.5 1.5z" color="#000" overflow="visible" enable-background="accumulate"/><path fill="#fff" d="M22.7 14.94l-4.62-1.48-2.65 3.06 4.74 1.65z" color="#000" overflow="visible" enable-background="accumulate"/><path fill="#fff" d="M34.3 18.87l-4.74-1.64-1.8 2.75 4.64 2.22z" color="#000" overflow="visible" enable-background="accumulate"/><path fill="#fff" d="M39 21.03l-4.66-1.62-1.96 3.37 5.18 1.78z" color="#000" overflow="visible" enable-background="accumulate"/><path fill="#fff" d="M44.55 22.13l-5.18-1.68-1.83 3.43 5.36 1.85z" color="#000" overflow="visible" enable-background="accumulate"/><path fill="#fff" d="M42.77 26.74l-5.3-1.92L36 27.65l5.1 3z" color="#000" overflow="visible" enable-background="accumulate"/><path fill="#fff" d="M29.62 15.08l-4.6-1.52-2.27 3.03 4.78 1.64z" color="#000" overflow="visible" enable-background="accumulate"/><path fill="#fff" d="M27.5 18.94l-4.75-1.6-2.5 3.28 4.95 1.78z" color="#000" overflow="visible" enable-background="accumulate"/><path fill="#fff" d="M32.35 21.6l-4.9-1.78-2.22 3.5 5.06 1.84z" color="#000" overflow="visible" enable-background="accumulate"/><path fill="#fff" d="M37.25 25.2l-4.92-1.82-1.7 3 4.7 1.64.74-.47z" color="#000" overflow="visible" enable-background="accumulate"/><path fill="#fff" d="M41.15 29.56l-5.57-2.1-1.53 2.98 5.3 3.3z" color="#000" overflow="visible" enable-background="accumulate"/><path fill="#fff" d="M35.3 27.98l-5.04-1.8-1.88 3.18 4.6 1.7 1.15-.76z" color="#000" overflow="visible" enable-background="accumulate"/><path fill="#fff" d="M29.82 26.9l-4.7-1.7-2.2 3.46 4.3 1.64 1.24-1z" color="#000" overflow="visible" enable-background="accumulate"/><path fill="#fff" d="M25.1 24.32l-4.8-1.78-2.68 3.66 5 1.92z" color="#000" overflow="visible" enable-background="accumulate"/><path fill="#fff" d="M20.2 21.06l-4.72-1.68-2.76 3.46 4.87 1.82z" color="#000" overflow="visible" enable-background="accumulate"/><path fill="#fff" d="M14.55 20.5l-3.43-1.26-1.52 1.8 3.04 1.1.05.8z" color="#000" overflow="visible" enable-background="accumulate"/><path fill="#fff" d="M11.07 18.5l-4.34-1.64-1.18 1.28 2.37.9.1 1.28 1.1.4z" color="#000" overflow="visible" enable-background="accumulate"/><path fill="#fff" d="M7.87 19l-4.52-1.64-3.27 3.4 4.56 1.8z" color="#000" overflow="visible" enable-background="accumulate"/><path fill="#fff" d="M12.64 22.2l-4.6-1.88-3.24 3.63 4.77 1.95z" color="#000" overflow="visible" enable-background="accumulate"/><path fill="#fff" d="M17.65 25.87l-4.88-1.9-3.04 3.84 4.97 2.03z" color="#000" overflow="visible" enable-background="accumulate"/><path fill="#fff" d="M22.4 28.92l-4.7-1.8-2.97 4.06 5.3 2.1z" color="#000" overflow="visible" enable-background="accumulate"/><path fill="#fff" d="M27.17 30.27l-4.55-1.68-2.76 4.2 5.42 2.24z" color="#000" overflow="visible" enable-background="accumulate"/><path fill="#fff" d="M32.94 31.1l-5.1-1.94-2.53 4.5L31 35.88z" color="#000" overflow="visible" enable-background="accumulate"/><path fill="#fff" d="M39.4 32.45l-5.9-2.32-2.36 4.64 6.06 2.42z" color="#000" overflow="visible" enable-background="accumulate"/><path fill="#d3d7cf" d="M36.94 41.06l.3-3.9-6.08-2.42-.1 1.1-5.73-2.24-.02 1.4-5.4-2.28.04.54-5.2-2.12.02-1.3-5.1-2.1-.1-1.87-4.8-1.9-.14-1.43-4.6-1.82.62 5.08z"/><path fill="#d3d7cf" d="M46.44 15.08l-5.16-1.52-.08 1.75 5.03 1.56z" color="#000" overflow="visible" enable-background="accumulate"/><path fill="#d3d7cf" d="M41.02 15.65l-4.75-1.4v1.06l4.2 1.26z" color="#000" overflow="visible" enable-background="accumulate"/><path fill="#d3d7cf" d="M36.32 13l-.07 1.77-4.7-1.44.05-1.78z" color="#000" overflow="visible" enable-background="accumulate"/><path fill="#d3d7cf" d="M31.55 13.3l-4.36-1.32-.1 2.35 3.16.94z" color="#000" overflow="visible" enable-background="accumulate"/><path fill="#d3d7cf" d="M22.68 11.92l.02 3.06-4.64-1.52-.03-3.12z" color="#000" overflow="visible" enable-background="accumulate"/><path fill="#d3d7cf" d="M18.08 13.2l-1.83-.6.1.8-4.07-1.3.03.5 5.06 1.67.7-.84z" color="#000" overflow="visible" enable-background="accumulate"/><path fill="#d3d7cf" d="M22.7 16.62l4.83 1.65-.03.67-4.75-1.54z" color="#000" overflow="visible" enable-background="accumulate"/><path fill="#d3d7cf" d="M29.6 16.25l-.04 1.05 4.83 1.57-.04-1.07z" color="#000" overflow="visible" enable-background="accumulate"/><path fill="#d3d7cf" d="M39.37 19.95l-5-1.55-.06 1.05 4.68 1.6.4-.6z" color="#000" overflow="visible" enable-background="accumulate"/><path fill="#d3d7cf" d="M44.68 20.12l-5.2-1.6-.1 1.93 5.17 1.65z" color="#000" overflow="visible" enable-background="accumulate"/><path fill="#d3d7cf" d="M42.9 25.73l-5.4-1.85-.02.6-5.15-1.74-.03.64 4.98 1.85.18-.4 5.34 1.9z" color="#000" overflow="visible" enable-background="accumulate"/><path fill="#d3d7cf" d="M30.3 26.24l-.04-.98-5.1-1.98.02-.9-4.95-1.76-.06-2.42-4.77-1.64.13 2.85 4.75 1.7.02 1.47 4.83 1.75.02.9 4.67 1.72z" color="#000" overflow="visible" enable-background="accumulate"/><path fill="#d3d7cf" d="M15.56 19.35l-4.52-1.48.05 1.34 3.42 1.3z" color="#000" overflow="visible" enable-background="accumulate"/><path fill="#d3d7cf" d="M22.62 28.6v-.48l-5-1.92.05.94 4.72 1.78z" color="#000" overflow="visible" enable-background="accumulate"/><path fill="#d3d7cf" d="M17.6 25.87l-.08-1.2-4.8-1.76.05 1.08z" color="#000" overflow="visible" enable-background="accumulate"/><path fill="#d3d7cf" d="M47.2 17.5l.63-5.38-1.4 3-.2 1.8-1.52 3.16-.17 2.1-1.65 3.58-.08.98-1.73 3.93.08-1.1-1.9 4.26.14-1.38-2.2 4.78-.26 3.83z" color="#000" overflow="visible" enable-background="accumulate"/><path fill="#d3d7cf" d="M37.97 11.4l.1-1.23-1.77 2.86v1.27z" color="#000" overflow="visible" enable-background="accumulate"/><path fill="#173560" d="M36.27 14.7l-1.93 3.13.05.7 1.9-3.25z" color="#000" overflow="visible" enable-background="accumulate"/><path fill="#d3d7cf" d="M34.3 18.84l-1.92 3.2v-.5l-2.12 3.7.05 1 .37.06 1.63-2.85.05-.68 1.96-3.36z" color="#000" overflow="visible" enable-background="accumulate"/><path fill="#d3d7cf" d="M29.6 17.3l.04-2.26-2.1 3.23-.04.7-2.32 3.5v.8l2.27-3.45.28.13z" color="#000" overflow="visible" enable-background="accumulate"/><path fill="#d3d7cf" d="M24.97 13.63l.08-4.74-2.4 3.08v3.06l-2.45 3.2v2.45l2.53-3.27.02-.8z" color="#000" overflow="visible" enable-background="accumulate"/><path fill="#d3d7cf" d="M25.15 25.26l.03-.94-2.58 3.86.02.44.3.1z" color="#000" overflow="visible" enable-background="accumulate"/><path fill="#d3d7cf" d="M20.33 22.6l-.1-1.5-2.7 3.7.1 1.47z" color="#000" overflow="visible" enable-background="accumulate"/><path fill="#d3d7cf" d="M17.7 27.24l-.1-1.2-2.9 3.82.06 1.32z" color="#000" overflow="visible" enable-background="accumulate"/><path fill="#d3d7cf" d="M11.07 18.54l-2 2.18.58.3 1.44-1.74z" color="#000" overflow="visible" enable-background="accumulate"/><path fill="#d3d7cf" d="M8.02 20.4l-.15-1.36-3.25 3.53.15 1.4z" color="#000" overflow="visible" enable-background="accumulate"/><path fill="#d3d7cf" d="M12.64 22.24L9.57 25.9l.1 1.9 3.07-3.75z" color="#000" overflow="visible" enable-background="accumulate"/></g><path fill="#ef2929" stroke="#fff" stroke-width=".50292" d="M7.06 20.46a1.8 1.74 0 1 1-3.58 0 1.8 1.74 0 1 1 3.58 0z" color="#000" stroke-linejoin="round" overflow="visible"/><path fill="#ef2929" stroke="#fff" stroke-width=".50292" d="M24.13 10.46a1.8 1.74 0 1 1-3.57 0 1.8 1.74 0 1 1 3.57 0z" color="#000" stroke-linejoin="round" overflow="visible"/><path fill="#ef2929" stroke="#fff" stroke-width=".50292" d="M45.5 14.57a1.8 1.74 0 1 1-3.6 0 1.8 1.74 0 1 1 3.6 0z" color="#000" stroke-linejoin="round" overflow="visible"/><path fill="#ef2929" stroke="#fff" stroke-width=".50292" d="M28.92 31.1a1.8 1.74 0 1 1-3.58 0 1.8 1.74 0 1 1 3.58 0z" color="#000" stroke-linejoin="round" overflow="visible"/><path fill="#ef2929" stroke="#fff" stroke-width=".50292" d="M16.67 15.1a1.8 1.74 0 1 1-3.58 0 1.8 1.74 0 1 1 3.57 0z" color="#000" stroke-linejoin="round" overflow="visible"/><path fill="#ef2929" stroke="#fff" stroke-width=".50292" d="M23.42 19.9a1.8 1.74 0 1 1-3.58 0 1.8 1.74 0 1 1 3.58 0z" color="#000" stroke-linejoin="round" overflow="visible"/><path fill="#ef2929" stroke="#fff" stroke-width=".50292" d="M39.13 20.2a1.8 1.74 0 1 1-3.57 0 1.8 1.74 0 1 1 3.57 0z" color="#000" stroke-linejoin="round" overflow="visible"/><path fill="#ef2929" stroke="#fff" stroke-width=".50292" d="M38.28 27.3a1.8 1.74 0 1 1-3.58 0 1.8 1.74 0 1 1 3.58 0z" color="#000" stroke-linejoin="round" overflow="visible"/><path fill="#ef2929" stroke="#fff" stroke-width=".50292" d="M15.13 25.23a1.8 1.74 0 1 1-3.57 0 1.8 1.74 0 1 1 3.57 0z" color="#000" stroke-linejoin="round" overflow="visible" enable-background="accumulate"/><path fill="#ef2929" stroke="#fff" stroke-width=".50292" d="M31.1 23.74a1.8 1.74 0 1 1-3.6 0 1.8 1.74 0 1 1 3.6 0z" color="#000" stroke-linejoin="round" overflow="visible"/><path fill="#ef2929" stroke="#fff" stroke-width=".50292" d="M32.78 14.63a1.8 1.74 0 1 1-3.58 0 1.8 1.74 0 1 1 3.58 0z" color="#000" stroke-linejoin="round" overflow="visible"/></g></svg>