<svg xmlns="http://www.w3.org/2000/svg" width="48" height="48" xmlns:xlink="http://www.w3.org/1999/xlink"><defs><linearGradient id="a"><stop offset="0" stop-color="#ff0202"/><stop offset=".153" stop-color="#f0de11"/><stop offset=".321" stop-color="#20e12a"/><stop offset=".486" stop-color="#03fff7"/><stop offset=".666" stop-color="#0556ff"/><stop offset=".833" stop-color="#ab10ff"/><stop offset="1" stop-color="#f40000"/></linearGradient><radialGradient cx="-19.117" cy="20.322" r="17.549" xlink:href="#a" fx="-19.117" fy="20.322" gradientTransform="matrix(1 0 0 .63 0 7.516)" gradientUnits="userSpaceOnUse"/><radialGradient cx="22.571" cy="30.857" r="15.571" xlink:href="#b" fx="22.571" fy="30.857" gradientTransform="matrix(1 0 0 .651 0 10.758)" gradientUnits="userSpaceOnUse"/><linearGradient id="b"><stop offset="0"/><stop offset="1" stop-opacity="0"/></linearGradient><linearGradient id="c"><stop offset="0" stop-color="#c17d10"/><stop offset="1" stop-color="#9b650c"/></linearGradient><linearGradient id="d"><stop offset="0" stop-color="#fff"/><stop offset="1" stop-color="#fff" stop-opacity="0"/></linearGradient><linearGradient id="e"><stop offset="0" stop-color="#fef088"/><stop offset=".5" stop-color="#fde63a"/><stop offset="1" stop-color="#dac203"/></linearGradient><linearGradient id="f"><stop offset="0" stop-color="#c4a000"/><stop offset="1" stop-color="#c4a000" stop-opacity="0"/></linearGradient><linearGradient id="g"><stop offset="0" stop-color="#dac203"/><stop offset=".5" stop-color="#fdec69"/><stop offset="1" stop-color="#fdef7e"/></linearGradient><linearGradient id="h"><stop offset="0" stop-color="#b30000"/><stop offset=".5" stop-color="#ff5c5c"/><stop offset="1" stop-color="#c30000"/></linearGradient><linearGradient id="i" x1="12.233" x2="16.871" y1="12.363" y2="17.111" xlink:href="#c" gradientUnits="userSpaceOnUse" gradientTransform="matrix(.966 .262 -.259 .978 58.61 -26.695)"/><linearGradient id="j" x1="9.562" x2="14.767" y1="6.953" y2="14.2" xlink:href="#d" gradientUnits="userSpaceOnUse" gradientTransform="translate(55.653 -20.755)"/><radialGradient id="k" cx="20.764" cy="19.541" r="14.8" xlink:href="#e" gradientUnits="userSpaceOnUse" gradientTransform="matrix(.449 -.216 .564 1.172 54.22 -18.209)" fx="20.764" fy="19.541"/><linearGradient id="l" x1="9.105" x2="10.147" y1="38.828" y2="30.141" xlink:href="#f" gradientUnits="userSpaceOnUse" gradientTransform="matrix(.866 -.5 .797 1.381 39.953 -29.98)"/><linearGradient id="m" x1="19.616" x2="18.486" y1="39.253" y2="29.909" xlink:href="#f" gradientUnits="userSpaceOnUse" gradientTransform="matrix(.866 -.5 .798 1.382 39.923 -30.033)"/><linearGradient id="n" x1="15.097" x2="14.045" y1="36.968" y2="29" xlink:href="#f" gradientUnits="userSpaceOnUse" gradientTransform="matrix(.866 -.5 .843 1.461 35.912 -31.889)"/><linearGradient id="o" x1="14.045" x2="14.045" y1="37.576" y2="29" xlink:href="#f" gradientUnits="userSpaceOnUse" gradientTransform="matrix(.866 -.5 .801 1.388 42.834 -31.9)"/><linearGradient id="p" x1="16.929" x2="14.045" y1="34.011" y2="29" xlink:href="#f" gradientUnits="userSpaceOnUse" gradientTransform="matrix(.866 -.5 .861 1.492 37.773 -34.666)"/><linearGradient id="q" x1="11.997" x2="17.774" y1="19.592" y2="16.235" xlink:href="#g" gradientUnits="userSpaceOnUse" gradientTransform="matrix(1.015 0 0 1.006 55.321 -20.895)"/><linearGradient id="r" x1="10.615" x2="2.007" y1="28.123" y2="27.235" xlink:href="#h" gradientUnits="userSpaceOnUse" gradientTransform="matrix(1.177 0 0 1.177 57.754 4.545)"/></defs><g><g stroke="#204a87" stroke-width=".25" stroke-linejoin="bevel"><path fill="#cef3aa" d="M27.9 19.9l-2.88-.8-.02 3.26 4.67 2.5.73-1.13-3.3-1.05z" color="#000" overflow="visible" enable-background="accumulate"/><path fill="#fff" d="M42.83 21.6l-4.88-1.2-1.7 2.62 5.18 1.44z" color="#000" overflow="visible" enable-background="accumulate"/><path fill="#fff" d="M47.86 21.05l-4.96-1.38-1.57 2.7 5.1 1.46z" color="#000" overflow="visible" enable-background="accumulate"/><path fill="#fff" d="M33.5 19.67l-4.48-1.18-1.8 2.4 4.7 1.34z" color="#000" overflow="visible" enable-background="accumulate"/><path fill="#fff" d="M37.95 19.3l-4.5-1.2-1.8 2.42 4.7 1.34z" color="#000" overflow="visible" enable-background="accumulate"/><path fill="#b20fe8" d="M17 16.74l3.07.93-1.83 2.07-3.17-1.03z" color="#000" overflow="visible" enable-background="accumulate"/><path fill="#fedba7" d="M24.97 18.05l-4.5-1.2-2.44 2.57 4.65 1.44z" color="#000" overflow="visible" enable-background="accumulate"/><path fill="#fff" d="M39.4 28.33l1.1-3.12-4.25-1.2-1.86 2.86z" color="#000" overflow="visible" enable-background="accumulate"/><path fill="#fff" d="M46.23 25.5L41.2 24l-1.68 2.93 5.2 1.56z" color="#000" overflow="visible" enable-background="accumulate"/><path fill="#fff" d="M36.27 23.5l-4.7-1.32-1.98 2.7 4.8 1.45z" color="#000" overflow="visible" enable-background="accumulate"/><path fill="#b20fe8" d="M18.03 19.7l-3.35-1.06-2.4 2.38 4.1 1.22z" color="#000" overflow="visible" enable-background="accumulate"/><path fill="#05fdec" d="M18.08 19.74l-1.78 1.78 1.84.53z" color="#000" overflow="visible" enable-background="accumulate"/><path fill="none" d="M17.36 23.1l-1-.33L15.22 24l1 .33z" color="#000" overflow="visible" enable-background="accumulate"/><path fill="#ad7fa8" d="M17.4 23.05l-5.1-1.6-4.33 4.35 3.12 1.16 5.15-2.63z" color="#000" overflow="visible" enable-background="accumulate"/><path fill="#8ae234" d="M16.2 24.33l-2.42-.8-2.7 2.87 4.5 1.4z" color="#000" overflow="visible" enable-background="accumulate"/><path fill="#fdef7e" d="M22.7 23.68l-4.62-1.38-2.65 2.84 4.74 1.54z" color="#000" overflow="visible" enable-background="accumulate"/><path fill="#fff" d="M34.3 27.33l-4.74-1.53-1.8 2.56 4.64 2.07z" color="#000" overflow="visible" enable-background="accumulate"/><path fill="#fff" d="M39 29.33l-4.66-1.5-1.96 3.13 5.18 1.66z" color="#000" overflow="visible" enable-background="accumulate"/><path fill="#fff" d="M44.55 30.37l-5.18-1.57-1.83 3.2 5.36 1.7z" color="#000" overflow="visible" enable-background="accumulate"/><path fill="#fff" d="M42.77 34.65l-5.3-1.78L36 35.5l5.1 2.77z" color="#000" overflow="visible" enable-background="accumulate"/><path fill="#fef4aa" d="M29.62 23.8l-4.6-1.4-2.27 2.8 4.78 1.54z" color="#000" overflow="visible" enable-background="accumulate"/><path fill="#fbc4c4" d="M27.5 27.4l-4.75-1.5-2.5 3.06 4.95 1.66z" color="#000" overflow="visible" enable-background="accumulate"/><path fill="#fff" d="M32.35 29.87l-4.9-1.66-2.22 3.26 5.06 1.72z" color="#000" overflow="visible" enable-background="accumulate"/><path fill="#fff" d="M37.25 33.2l-4.92-1.68-1.7 2.78 4.7 1.54.74-.44z" color="#000" overflow="visible" enable-background="accumulate"/><path fill="#fff" d="M41.15 37.27l-5.57-1.97-1.53 2.8 5.3 3.05z" color="#000" overflow="visible" enable-background="accumulate"/><path fill="#fff" d="M35.3 35.8l-5.04-1.68-1.88 2.97 4.6 1.58 1.15-.72z" color="#000" overflow="visible" enable-background="accumulate"/><path fill="#fee4be" d="M29.82 34.8l-4.7-1.6-2.2 3.23 4.3 1.53 1.24-.94z" color="#000" overflow="visible" enable-background="accumulate"/><path fill="#fdf088" d="M25.1 32.4l-4.8-1.66-2.68 3.4 5 1.8z" color="#000" overflow="visible" enable-background="accumulate"/><path fill="#fdd395" d="M20.2 29.36l-4.72-1.56-2.76 3.22 4.87 1.7z" color="#000" overflow="visible" enable-background="accumulate"/><path fill="#8ae234" d="M14.55 28.83l-3.43-1.15-1.52 1.65 3.04 1.04.05.75z" color="#000" overflow="visible" enable-background="accumulate"/><path fill="#05fdec" d="M11.07 27l-4.34-1.54-1.18 1.2 2.37.83.1 1.18 1.1.37z" color="#000" overflow="visible" enable-background="accumulate"/><path fill="#ad7fa8" d="M7.87 27.46l-4.52-1.53-3.27 3.15 4.56 1.7z" color="#000" overflow="visible" enable-background="accumulate"/><path fill="#05fdec" d="M12.64 30.43l-4.6-1.75-3.24 3.37 4.77 1.82z" color="#000" overflow="visible" enable-background="accumulate"/><path fill="#afeb75" d="M17.65 33.84l-4.88-1.76-3.04 3.57 4.97 1.87z" color="#000" overflow="visible" enable-background="accumulate"/><path fill="#c2f095" d="M22.4 36.68l-4.7-1.7-2.97 3.8 5.3 1.96z" color="#000" overflow="visible" enable-background="accumulate"/><path fill="#cef3aa" d="M27.17 37.93l-4.55-1.56-2.76 3.9 5.42 2.1z" color="#000" overflow="visible" enable-background="accumulate"/><path fill="#fff" d="M32.94 38.7l-5.1-1.8-2.53 4.2L31 43.14z" color="#000" overflow="visible" enable-background="accumulate"/><path fill="#fff" d="M39.4 39.96l-5.9-2.15-2.36 4.32 6.06 2.25z" color="#000" overflow="visible" enable-background="accumulate"/><path fill="#3465a4" d="M36.94 47.96l.3-3.62-6.08-2.25-.1 1.02-5.73-2.1-.02 1.32-5.4-2.13.04.5-5.2-1.96.02-1.22-5.1-1.93-.1-1.76-4.8-1.76-.14-1.34-4.6-1.7.62 4.73z"/><path fill="#3465a4" d="M46.44 23.8l-5.16-1.4L41.2 24l5.03 1.44z" color="#000" overflow="visible" enable-background="accumulate"/><path fill="#3465a4" d="M41.02 24.33l-4.75-1.3v1l4.2 1.15z" color="#000" overflow="visible" enable-background="accumulate"/><path fill="#3465a4" d="M36.32 21.86l-.07 1.66-4.7-1.34.05-1.66z" color="#000" overflow="visible" enable-background="accumulate"/><path fill="#3465a4" d="M31.55 22.14l-4.36-1.22-.1 2.18 3.16.88z" color="#000" overflow="visible" enable-background="accumulate"/><path fill="#3465a4" d="M22.68 20.86l.02 2.85-4.64-1.4-.03-2.9z" color="#000" overflow="visible" enable-background="accumulate"/><path fill="#3465a4" d="M18.08 22.05l-1.83-.56.1.74-4.07-1.22.03.47 5.06 1.55.7-.78z" color="#000" overflow="visible" enable-background="accumulate"/><path fill="#3465a4" d="M22.7 25.24l4.83 1.53-.03.63-4.75-1.44z" color="#000" overflow="visible" enable-background="accumulate"/><path fill="#3465a4" d="M29.6 24.9l-.04.96 4.83 1.47-.04-1z" color="#000" overflow="visible" enable-background="accumulate"/><path fill="#3465a4" d="M39.37 28.33l-5-1.43-.06.96 4.68 1.5.4-.56z" color="#000" overflow="visible" enable-background="accumulate"/><path fill="#3465a4" d="M44.68 28.5l-5.2-1.5-.1 1.8 5.17 1.53z" color="#000" overflow="visible" enable-background="accumulate"/><path fill="#3465a4" d="M42.9 33.7L37.5 32l-.02.55-5.15-1.62-.03.6 4.98 1.7.18-.36 5.34 1.78z" color="#000" overflow="visible" enable-background="accumulate"/><path fill="#3465a4" d="M30.3 34.18l-.04-.9-5.1-1.85.02-.85-4.95-1.62-.06-2.25-4.77-1.52.13 2.65 4.75 1.57.02 1.37 4.83 1.63.02.84 4.67 1.6z" color="#000" overflow="visible" enable-background="accumulate"/><path fill="#3465a4" d="M15.56 27.77l-4.52-1.37.05 1.25 3.42 1.18z" color="#000" overflow="visible" enable-background="accumulate"/><path fill="#3465a4" d="M22.62 36.37v-.44l-5-1.78.05.87 4.72 1.66z" color="#000" overflow="visible" enable-background="accumulate"/><path fill="#3465a4" d="M17.6 33.84l-.08-1.13-4.8-1.62.05 1z" color="#000" overflow="visible" enable-background="accumulate"/><path d="M47.2 26.05l.63-5-1.4 2.78-.2 1.7-1.52 2.93-.17 1.94-1.65 3.34-.08.9-1.73 3.67.08-1.03-1.9 3.97.14-1.28-2.2 4.44-.26 3.56z" color="#000" overflow="visible" enable-background="accumulate"/><path fill="#173560" d="M37.97 20.4l.1-1.16-1.77 2.65v1.18z" color="#000" overflow="visible" enable-background="accumulate"/><path fill="#173560" d="M36.27 23.46l-1.93 2.9.05.66L36.3 24z" color="#000" overflow="visible" enable-background="accumulate"/><path d="M34.3 27.3l-1.92 2.97v-.47l-2.12 3.44.05.94.37.06 1.63-2.66.05-.62 1.96-3.13z" color="#000" overflow="visible" enable-background="accumulate"/><path d="M29.6 25.86l.04-2.1-2.1 3-.04.67-2.32 3.25v.75l2.27-3.22.28.13z" color="#000" overflow="visible" enable-background="accumulate"/><path d="M24.97 22.46l.08-4.4-2.4 2.86v2.85l-2.45 2.97v2.28L22.73 26l.02-.76z" color="#000" overflow="visible" enable-background="accumulate"/><path fill="#173560" d="M25.15 33.27l.03-.87L22.6 36l.02.4.3.1z" color="#000" overflow="visible" enable-background="accumulate"/><path d="M20.33 30.8l-.1-1.4-2.7 3.43.1 1.38z" color="#000" overflow="visible" enable-background="accumulate"/><path d="M17.7 35.12L17.6 34l-2.9 3.55.06 1.22z" color="#000" overflow="visible" enable-background="accumulate"/><path fill="#173560" d="M11.07 27.02l-2 2.03.58.28 1.44-1.62z" color="#000" overflow="visible" enable-background="accumulate"/><path d="M8.02 28.74l-.15-1.25-3.25 3.27.15 1.3z" color="#000" overflow="visible" enable-background="accumulate"/><path d="M12.64 30.46l-3.07 3.4.1 1.8 3.07-3.5z" color="#000" overflow="visible" enable-background="accumulate"/></g><g transform="matrix(-.707 0 0 .707 90.692 13.988)"><path fill="url(#i)" fill-rule="evenodd" stroke="#8f5902" stroke-width="1.006" d="M62.57-18.98c1.73-.88 4.12 0 5 1.56l4.18 9.48c.9 1.56.63 3.37-.57 4.08-1.2.7-2.87 0-3.76-1.54l-5.92-8.36c-.88-1.55-.63-4.36 1.07-5.22z" stroke-linecap="round"/><path fill="none" stroke="url(#j)" stroke-width="1.006" d="M63.1-18.02c1.42-.8 2.82-.2 3.7 1.34l4.44 10.1-2.43 1.4-6.3-8.8c-.86-1.55-.86-3.23.6-4.04z" opacity=".423" stroke-linecap="round"/><path fill="url(#k)" fill-rule="evenodd" stroke="#c4a000" d="M70.43 2.04c-.8 4.3.64 13.95 6.26 19.7 4.34.13 13.98-3.43 20.52-10.2C88 7.02 81.7-4.2 76.8-1.76l-6.37 3.8z"/><path fill="none" stroke="url(#l)" d="M72 3.6c2.34 6.28 2.48 12.8 7.17 17.93" stroke-linecap="round"/><path fill="none" stroke="#fff" d="M71.57 2.66c-.9.5-.16 12.52 5.6 18 7.37-.2 15.5-6.4 18.38-8.84C86.05 5.84 80.62-2.94 77.07-.75l-5.5 3.4z" opacity=".462"/><path fill="none" stroke="url(#m)" d="M79.5 1.52c.87-.75 5.75 6.1 15 12.38" stroke-linecap="round"/><path fill="none" stroke="url(#n)" d="M73.67 2.1c3.7 5.36 2.96 12.43 8.84 18.1" stroke-linecap="round"/><path fill="none" stroke="url(#o)" d="M78.64 2.02s8.17 13.07 11.18 15.1" stroke-linecap="round"/><path fill="none" stroke="url(#p)" d="M74.95 1.45c3.45 2.9 8.7 14.16 11.3 17.47" stroke-linecap="round"/><path fill="url(#q)" fill-rule="evenodd" stroke="#c4a000" stroke-width="1.01" d="M64.16-2.7l11.46-6.55c.6 2.38-.34 3.24 1.8 7.15l-7.9 4.52c-1.46-3.48-3.58-3.4-5.36-5.1z" stroke-linecap="round" stroke-linejoin="round"/><path fill="none" stroke="#fff" d="M69.7.5c-.82-1.43-2.57-2.25-3.68-3.14l8.75-4.93c-.02 1.48.57 3.1.88 4.52L69.7.5z" opacity=".247"/><rect width="13.015" height="3.46" x="57.161" y="34.027" fill="url(#r)" fill-rule="evenodd" stroke="#690000" rx="1" ry="1" transform="rotate(-30.003)" stroke-linecap="round"/><path fill="#fff" fill-rule="evenodd" stroke="#8f5902" stroke-width=".6.655" d="M65.45-15.9c-.18.7-.9 1.1-1.6.92-.68-.2-1.1-.9-.9-1.6.18-.68.9-1.1 1.58-.9.7.18 1.1.9.92 1.58z" stroke-linecap="round" stroke-linejoin="round"/><path fill="#fff" fill-rule="evenodd" d="M83.4 19.8s1.5-.5 2.16-.94c-1.23-1.95-3.4-5.9-5.4-8.88 1.2 6.54 3.23 9.82 3.23 9.82z" opacity=".317"/><path fill="#fff" fill-rule="evenodd" d="M86.8 18.3l2.02-1.08C86.88 15.36 81.35 7.1 81.35 7.1l5.44 11.2z" opacity=".317"/><path fill="#fff" fill-rule="evenodd" d="M91.3 15.63l2.45-1.74C90.57 12.55 82.15 4 82.15 4c2.4 3.02 6.78 8.62 9.16 11.63z" opacity=".317"/><path fill="#fff" fill-rule="evenodd" d="M94.8 13.16l1.7-1.4C93.18 10.25 84 1.83 84 1.83s6.08 9.2 10.8 11.32z" opacity=".317"/><path fill="#fff" fill-rule="evenodd" d="M80.03 20.82s1.2-.28 2.04-.46c-1.46-1.24-3.8-4.44-5.1-8.6.54 6.88 3.06 9.06 3.06 9.06z" opacity=".317"/><path fill="#fff" fill-rule="evenodd" d="M77.02 21.2s1.25 0 1.25 0c-2.3-2.52-3.14-5.36-4.43-9.4-.13 4.68 3.18 9.4 3.18 9.4z" opacity=".317"/></g></g></svg>