<svg xmlns="http://www.w3.org/2000/svg" width="48" height="48" xmlns:xlink="http://www.w3.org/1999/xlink"><defs><linearGradient id="b" x1="7.598" x2="12.404" y1="7.681" y2="12.336" xlink:href="#a" gradientUnits="userSpaceOnUse" gradientTransform="matrix(1.125 -.292 .292 1.124 47.126 26.974)"/><linearGradient id="a"><stop offset="0" stop-color="#eeeeec"/><stop offset="1" stop-color="#d2d2cc"/></linearGradient></defs><g><path fill="#5e92c8" stroke="#204a87" stroke-width=".25" d="M27.9 14l-2.88-.66-.02 2.7 4.67 2.05.73-.95-3.3-.87z" color="#000" stroke-linejoin="bevel" overflow="visible" enable-background="accumulate"/><path fill="#99badc" stroke="#204a87" stroke-width=".25" d="M42.83 15.4l-4.88-1-1.7 2.17 5.18 1.18z" color="#000" stroke-linejoin="bevel" overflow="visible" enable-background="accumulate"/><path fill="#bcd1e9" stroke="#204a87" stroke-width=".25" d="M47.86 14.94L42.9 13.8l-1.57 2.23 5.1 1.2z" color="#000" stroke-linejoin="bevel" overflow="visible" enable-background="accumulate"/><path fill="#729fcf" stroke="#204a87" stroke-width=".25" d="M33.5 13.8l-4.48-.97-1.8 1.98 4.7 1.12z" color="#000" stroke-linejoin="bevel" overflow="visible" enable-background="accumulate"/><path fill="#a1c0df" stroke="#204a87" stroke-width=".25" d="M37.95 13.5l-4.5-.98-1.8 1.98 4.7 1.1z" color="#000" stroke-linejoin="bevel" overflow="visible" enable-background="accumulate"/><path fill="#729fcf" stroke="#204a87" stroke-width=".25" d="M17 11.38l3.07.78-1.83 1.7-3.17-.85z" color="#000" stroke-linejoin="bevel" overflow="visible" enable-background="accumulate"/><path fill="#b3cbe5" stroke="#204a87" stroke-width=".25" d="M24.97 12.47l-4.5-.98-2.44 2.1 4.65 1.2z" color="#000" stroke-linejoin="bevel" overflow="visible" enable-background="accumulate"/><path fill="#729fcf" stroke="#204a87" stroke-width=".25" d="M39.4 20.95l1.1-2.58-4.25-1-1.86 2.37z" color="#000" stroke-linejoin="bevel" overflow="visible" enable-background="accumulate"/><path fill="#99badc" stroke="#204a87" stroke-width=".25" d="M46.23 18.6l-5.03-1.23-1.68 2.42 5.2 1.28z" color="#000" stroke-linejoin="bevel" overflow="visible" enable-background="accumulate"/><path fill="#729fcf" stroke="#204a87" stroke-width=".25" d="M36.27 16.95l-4.7-1.08-1.98 2.25 4.8 1.18z" color="#000" stroke-linejoin="bevel" overflow="visible" enable-background="accumulate"/><path fill="#729fcf" stroke="#204a87" stroke-width=".25" d="M18.03 13.83l-3.35-.87-2.4 1.96 4.1 1z" color="#000" stroke-linejoin="bevel" overflow="visible" enable-background="accumulate"/><path fill="#729fcf" stroke="#204a87" stroke-width=".25" d="M18.08 13.86l-1.78 1.47 1.84.44z" color="#000" stroke-linejoin="bevel" overflow="visible" enable-background="accumulate"/><path fill="none" stroke="#204a87" stroke-width=".25" d="M17.36 16.65l-1-.3-1.14 1.02 1 .28z" color="#000" stroke-linejoin="bevel" overflow="visible" enable-background="accumulate"/><path fill="#4581bf" stroke="#204a87" stroke-width=".25" d="M17.4 16.6l-5.1-1.32-4.33 3.58 3.12.96 5.15-2.17z" color="#000" stroke-linejoin="bevel" overflow="visible" enable-background="accumulate"/><path fill="#729fcf" stroke="#204a87" stroke-width=".25" d="M16.2 17.65l-2.42-.67-2.7 2.37 4.5 1.17z" color="#000" stroke-linejoin="bevel" overflow="visible" enable-background="accumulate"/><path fill="#91b4da" stroke="#204a87" stroke-width=".25" d="M22.7 17.1l-4.62-1.13-2.65 2.35 4.74 1.27z" color="#000" stroke-linejoin="bevel" overflow="visible" enable-background="accumulate"/><path fill="#729fcf" stroke="#204a87" stroke-width=".25" d="M34.3 20.13l-4.74-1.27-1.8 2.12 4.64 1.7z" color="#000" stroke-linejoin="bevel" overflow="visible" enable-background="accumulate"/><path fill="#729fcf" stroke="#204a87" stroke-width=".25" d="M39 21.78l-4.66-1.24-1.96 2.58 5.18 1.37z" color="#000" stroke-linejoin="bevel" overflow="visible" enable-background="accumulate"/><path fill="#729fcf" stroke="#204a87" stroke-width=".25" d="M44.55 22.63l-5.18-1.3-1.83 2.64 5.36 1.42z" color="#000" stroke-linejoin="bevel" overflow="visible" enable-background="accumulate"/><path fill="#729fcf" stroke="#204a87" stroke-width=".25" d="M42.77 26.17l-5.3-1.48L36 26.85l5.1 2.3z" color="#000" stroke-linejoin="bevel" overflow="visible" enable-background="accumulate"/><path fill="#83abd5" stroke="#204a87" stroke-width=".25" d="M29.62 17.2l-4.6-1.15-2.27 2.32 4.78 1.27z" color="#000" stroke-linejoin="bevel" overflow="visible" enable-background="accumulate"/><path fill="#729fcf" stroke="#204a87" stroke-width=".25" d="M27.5 20.18l-4.75-1.24-2.5 2.53 4.95 1.37z" color="#000" stroke-linejoin="bevel" overflow="visible" enable-background="accumulate"/><path fill="#729fcf" stroke="#204a87" stroke-width=".25" d="M32.35 22.22l-4.9-1.37-2.22 2.68 5.06 1.42z" color="#000" stroke-linejoin="bevel" overflow="visible" enable-background="accumulate"/><path fill="#729fcf" stroke="#204a87" stroke-width=".25" d="M37.25 24.98l-4.92-1.4-1.7 2.3 4.7 1.27.74-.37z" color="#000" stroke-linejoin="bevel" overflow="visible" enable-background="accumulate"/><path fill="#85acd6" stroke="#204a87" stroke-width=".25" d="M41.15 28.33l-5.57-1.62-1.53 2.3 5.3 2.53z" color="#000" stroke-linejoin="bevel" overflow="visible" enable-background="accumulate"/><path fill="#6294ca" stroke="#204a87" stroke-width=".25" d="M35.3 27.12l-5.04-1.4-1.88 2.46 4.6 1.3 1.15-.58z" color="#000" stroke-linejoin="bevel" overflow="visible" enable-background="accumulate"/><path fill="#4e86c3" stroke="#204a87" stroke-width=".25" d="M29.82 26.3l-4.7-1.32-2.2 2.66 4.3 1.26 1.24-.77z" color="#000" stroke-linejoin="bevel" overflow="visible" enable-background="accumulate"/><path fill="#6093c9" stroke="#204a87" stroke-width=".25" d="M25.1 24.3l-4.8-1.36-2.68 2.8 5 1.48z" color="#000" stroke-linejoin="bevel" overflow="visible" enable-background="accumulate"/><path fill="#729fcf" stroke="#204a87" stroke-width=".25" d="M20.2 21.8l-4.72-1.28-2.76 2.65 4.87 1.4z" color="#000" stroke-linejoin="bevel" overflow="visible" enable-background="accumulate"/><path fill="#5c90c8" stroke="#204a87" stroke-width=".25" d="M14.55 21.37l-3.43-.96L9.6 21.8l3.04.85.05.62z" color="#000" stroke-linejoin="bevel" overflow="visible" enable-background="accumulate"/><path fill="#95b8db" stroke="#204a87" stroke-width=".25" d="M11.07 19.84l-4.34-1.26-1.18.98 2.37.7.1.98 1.1.3z" color="#000" stroke-linejoin="bevel" overflow="visible" enable-background="accumulate"/><path fill="#afc9e3" stroke="#204a87" stroke-width=".25" d="M7.87 20.23l-4.52-1.26-3.27 2.6 4.56 1.4z" color="#000" stroke-linejoin="bevel" overflow="visible" enable-background="accumulate"/><path fill="#97b9dc" stroke="#204a87" stroke-width=".25" d="M12.64 22.68l-4.6-1.44-3.24 2.78 4.77 1.5z" color="#000" stroke-linejoin="bevel" overflow="visible" enable-background="accumulate"/><path fill="#729fcf" stroke="#204a87" stroke-width=".25" d="M17.65 25.5l-4.88-1.45L9.73 27l4.97 1.54z" color="#000" stroke-linejoin="bevel" overflow="visible" enable-background="accumulate"/><path fill="#6093c9" stroke="#204a87" stroke-width=".25" d="M22.4 27.84l-4.7-1.4-2.97 3.13 5.3 1.63z" color="#000" stroke-linejoin="bevel" overflow="visible" enable-background="accumulate"/><path fill="#729fcf" stroke="#204a87" stroke-width=".25" d="M27.17 28.87l-4.55-1.3-2.76 3.24 5.42 1.74z" color="#000" stroke-linejoin="bevel" overflow="visible" enable-background="accumulate"/><path fill="#8bb0d8" stroke="#204a87" stroke-width=".25" d="M32.94 29.52l-5.1-1.5-2.53 3.46 5.68 1.7z" color="#000" stroke-linejoin="bevel" overflow="visible" enable-background="accumulate"/><path fill="#a1c0df" stroke="#204a87" stroke-width=".25" d="M39.4 30.55l-5.9-1.78-2.36 3.56 6.06 1.86z" color="#000" stroke-linejoin="bevel" overflow="visible" enable-background="accumulate"/><path fill="#3465a4" stroke="#204a87" stroke-width=".25" d="M36.94 37.16l.3-3-6.08-1.85-.1.86-5.73-1.73-.02 1.08-5.4-1.74.04.4-5.2-1.62.02-1-5.1-1.6-.1-1.45-4.8-1.45-.14-1.1-4.6-1.4.62 3.9z" stroke-linejoin="bevel"/><path fill="#3465a4" stroke="#204a87" stroke-width=".25" d="M46.44 17.2l-5.16-1.15-.08 1.34 5.03 1.18z" color="#000" stroke-linejoin="bevel" overflow="visible" enable-background="accumulate"/><path fill="#3465a4" stroke="#204a87" stroke-width=".25" d="M41.02 17.65l-4.75-1.08v.82l4.2.95z" color="#000" stroke-linejoin="bevel" overflow="visible" enable-background="accumulate"/><path fill="#3465a4" stroke="#204a87" stroke-width=".25" d="M36.32 15.6L36.25 17l-4.7-1.1.05-1.38z" color="#000" stroke-linejoin="bevel" overflow="visible" enable-background="accumulate"/><path fill="#3465a4" stroke="#204a87" stroke-width=".25" d="M31.55 15.85l-4.36-1-.1 1.8 3.16.7z" color="#000" stroke-linejoin="bevel" overflow="visible" enable-background="accumulate"/><path fill="#3465a4" stroke="#204a87" stroke-width=".25" d="M22.68 14.8l.02 2.34-4.64-1.17-.03-2.4z" color="#000" stroke-linejoin="bevel" overflow="visible" enable-background="accumulate"/><path fill="#3465a4" stroke="#204a87" stroke-width=".25" d="M18.08 15.77l-1.83-.47.1.62-4.07-1 .03.38 5.06 1.3.7-.65z" color="#000" stroke-linejoin="bevel" overflow="visible" enable-background="accumulate"/><path fill="#3465a4" stroke="#204a87" stroke-width=".25" d="M22.7 18.4l4.83 1.26-.03.52-4.75-1.2z" color="#000" stroke-linejoin="bevel" overflow="visible" enable-background="accumulate"/><path fill="#3465a4" stroke="#204a87" stroke-width=".25" d="M29.6 18.12l-.04.8 4.83 1.2-.04-.82z" color="#000" stroke-linejoin="bevel" overflow="visible" enable-background="accumulate"/><path fill="#3465a4" stroke="#204a87" stroke-width=".25" d="M39.37 20.95l-5-1.18-.06.8L39 21.8l.4-.46z" color="#000" stroke-linejoin="bevel" overflow="visible" enable-background="accumulate"/><path fill="#3465a4" stroke="#204a87" stroke-width=".25" d="M44.68 21.08l-5.2-1.24-.1 1.5 5.17 1.26z" color="#000" stroke-linejoin="bevel" overflow="visible" enable-background="accumulate"/><path fill="#3465a4" stroke="#204a87" stroke-width=".25" d="M42.9 25.4l-5.4-1.43-.02.47-5.15-1.34-.03.5 4.98 1.4.18-.3 5.34 1.47z" color="#000" stroke-linejoin="bevel" overflow="visible" enable-background="accumulate"/><path fill="#3465a4" stroke="#204a87" stroke-width=".25" d="M30.3 25.78l-.04-.75-5.1-1.52.02-.7-4.95-1.33-.06-1.86-4.77-1.25.13 2.2 4.75 1.28.02 1.14 4.83 1.34.02.7 4.67 1.32z" color="#000" stroke-linejoin="bevel" overflow="visible" enable-background="accumulate"/><path fill="#3465a4" stroke="#204a87" stroke-width=".25" d="M15.56 20.5l-4.52-1.15.05 1.04 3.42.97z" color="#000" stroke-linejoin="bevel" overflow="visible" enable-background="accumulate"/><path fill="#3465a4" stroke="#204a87" stroke-width=".25" d="M22.62 27.58v-.36l-5-1.47.05.72 4.72 1.37z" color="#000" stroke-linejoin="bevel" overflow="visible" enable-background="accumulate"/><path fill="#3465a4" stroke="#204a87" stroke-width=".25" d="M17.6 25.5l-.08-.93-4.8-1.35.05.83z" color="#000" stroke-linejoin="bevel" overflow="visible" enable-background="accumulate"/><path stroke="#204a87" stroke-width=".25" d="M47.2 19.07l.63-4.13-1.4 2.3-.2 1.4-1.52 2.42-.17 1.6-1.65 2.76-.08.75-1.73 3 .08-.84-1.9 3.28.14-1.05-2.2 3.66-.26 2.96z" color="#000" stroke-linejoin="bevel" overflow="visible" enable-background="accumulate"/><path fill="#173560" stroke="#204a87" stroke-width=".25" d="M37.97 14.4l.1-.95-1.77 2.2v.97z" color="#000" stroke-linejoin="bevel" overflow="visible" enable-background="accumulate"/><path fill="#173560" stroke="#204a87" stroke-width=".25" d="M36.27 16.93l-1.93 2.4.05.54 1.9-2.5z" color="#000" stroke-linejoin="bevel" overflow="visible" enable-background="accumulate"/><path stroke="#204a87" stroke-width=".25" d="M34.3 20.1l-1.92 2.46v-.4L30.26 25l.05.78.37.05 1.63-2.2.05-.5 1.96-2.6z" color="#000" stroke-linejoin="bevel" overflow="visible" enable-background="accumulate"/><path stroke="#204a87" stroke-width=".25" d="M29.6 18.92l.04-1.73-2.1 2.46-.04.55-2.32 2.7v.6l2.27-2.65.28.1z" color="#000" stroke-linejoin="bevel" overflow="visible" enable-background="accumulate"/><path stroke="#204a87" stroke-width=".25" d="M24.97 16.1l.08-3.63-2.4 2.37v2.35l-2.45 2.44v1.88l2.53-2.5.02-.62z" color="#000" stroke-linejoin="bevel" overflow="visible" enable-background="accumulate"/><path fill="#173560" stroke="#204a87" stroke-width=".25" d="M25.15 25.03l.03-.72-2.58 2.97.02.34.3.1z" color="#000" stroke-linejoin="bevel" overflow="visible" enable-background="accumulate"/><path stroke="#204a87" stroke-width=".25" d="M20.33 23l-.1-1.17-2.7 2.84.1 1.13z" color="#000" stroke-linejoin="bevel" overflow="visible" enable-background="accumulate"/><path stroke="#204a87" stroke-width=".25" d="M17.7 26.55l-.1-.93-2.9 2.94.06 1z" color="#000" stroke-linejoin="bevel" overflow="visible" enable-background="accumulate"/><path fill="#173560" stroke="#204a87" stroke-width=".25" d="M11.07 19.87l-2 1.68.58.23 1.44-1.34z" color="#000" stroke-linejoin="bevel" overflow="visible" enable-background="accumulate"/><path stroke="#204a87" stroke-width=".25" d="M8.02 21.3l-.15-1.04-3.25 2.7.15 1.1z" color="#000" stroke-linejoin="bevel" overflow="visible" enable-background="accumulate"/><path stroke="#204a87" stroke-width=".25" d="M12.64 22.7l-3.07 2.82.1 1.47 3.07-2.9z" color="#000" stroke-linejoin="bevel" overflow="visible" enable-background="accumulate"/><path stroke="#fff" stroke-width="1.0017" d="M47.28 34.24a13.2 13.2 0 1 1-26.42 0 13.2 13.2 0 1 1 26.42 0z" color="#000" overflow="visible" enable-background="accumulate"/><g color="#000"><path fill="none" stroke="#000" stroke-width="1.0017" d="M36.97 33.96c.38 1.46-.5 2.95-1.96 3.33-1.45.37-2.95-.5-3.33-1.97-.38-1.46.5-2.95 1.96-3.33 1.47-.38 2.96.5 3.34 1.96zm-5.04-8.5c-.84.22-1.35 1.08-1.13 1.93l.65 2.48c-.06.3-.1.56-.24.67-.1.1-.3.1-.52.1l-2.4-1.42c-.78-.45-1.77-.2-2.2.57-.46.76-.2 1.75.56 2.2L29 33.38c.12.2.2.4.18.56-.02.16-.14.33-.33.5l-2.58.67c-.85.23-1.35 1.1-1.13 1.93.22.85 1.08 1.36 1.93 1.14l2.48-.65c.3.06.57.1.68.23.1.12.1.32.1.54l-1.43 2.4c-.45.77-.2 1.75.57 2.2.77.45 1.75.2 2.2-.57l1.38-2.35c.2-.13.4-.22.56-.2.17.02.34.15.5.33l.68 2.6c.22.84 1.08 1.35 1.93 1.13.86-.22 1.36-1.08 1.14-1.93l-.65-2.5c.05-.28.08-.55.23-.66.1-.1.32-.1.54-.1l2.4 1.43c.77.44 1.76.2 2.2-.58.46-.77.2-1.76-.56-2.2l-2.34-1.4c-.14-.2-.22-.4-.2-.55.02-.16.15-.32.33-.5l2.57-.66c.85-.23 1.36-1.1 1.13-1.94-.22-.85-1.08-1.35-1.92-1.13l-2.5.64c-.3-.05-.55-.08-.66-.23-.1-.12-.1-.32-.1-.54l1.42-2.4c.45-.77.2-1.76-.57-2.2-.76-.46-1.75-.2-2.2.56L35.6 29.3c-.22.14-.4.23-.57.2-.16 0-.33-.14-.5-.32l-.67-2.58c-.22-.85-1.08-1.36-1.93-1.14z" overflow="visible" enable-background="accumulate"/><path fill="url(#b)" fill-rule="evenodd" stroke="#888a85" stroke-width=".398" d="M60.48 33.1c.3 1.15-.4 2.34-1.56 2.64-1.16.3-2.35-.4-2.65-1.56-.3-1.16.4-2.35 1.56-2.65 1.16-.3 2.35.4 2.65 1.56zm-4-6.77c-.68.18-1.08.86-.9 1.54l.5 1.97c-.04.24-.06.45-.18.54-.1.07-.25.07-.43.07l-1.9-1.13c-.62-.35-1.4-.15-1.76.46-.35.6-.15 1.4.46 1.75l1.87 1.1c.1.16.17.32.16.44-.03.13-.13.26-.28.4l-2.05.53c-.68.18-1.08.86-.9 1.53.17.68.86 1.08 1.53.9l1.98-.5c.24.04.45.06.54.18.07.1.07.26.07.43l-1.14 1.92c-.36.6-.15 1.4.46 1.75.6.36 1.4.15 1.75-.45l1.1-1.87c.16-.1.3-.18.44-.16.14.02.27.12.4.26l.54 2.06c.17.67.86 1.07 1.53.9.68-.18 1.08-.86.9-1.53l-.5-1.97c.03-.24.06-.45.17-.54.1-.08.26-.08.43-.08l1.92 1.13c.6.35 1.38.15 1.74-.46.36-.62.15-1.4-.46-1.76l-1.86-1.1c-.1-.16-.18-.32-.16-.44.02-.13.12-.26.26-.4l2.06-.53c.67-.18 1.07-.86.9-1.53-.18-.68-.86-1.08-1.54-.9l-1.97.5c-.24-.03-.45-.06-.54-.18-.07-.1-.07-.25-.07-.42l1.12-1.92c.36-.6.16-1.4-.45-1.75-.6-.36-1.4-.15-1.75.45l-1.1 1.87c-.17.1-.32.17-.44.15-.13-.02-.26-.12-.4-.26L58 27.22c-.17-.67-.85-1.07-1.53-.9z" overflow="visible" enable-background="accumulate" transform="matrix(1.257 0 0 1.257 -39.274 -8.266)"/></g></g></svg>