<svg xmlns="http://www.w3.org/2000/svg" width="48" height="48" xmlns:xlink="http://www.w3.org/1999/xlink"><defs><linearGradient x1="13.236" x2="7.752" y1="37.752" y2="42.282" gradientTransform="matrix(.852 0 0 .852 -1.675 3.754)" gradientUnits="userSpaceOnUse" xlink:href="#a"/><radialGradient cx="15.415" cy="35.357" r="7.579" fy="35.357" fx="15.415" gradientTransform="matrix(.995 0 0 .969 -4.583 .166)" gradientUnits="userSpaceOnUse" xlink:href="#b"/><linearGradient x1="19.395" x2="23.109" y1="30.001" y2="33.439" gradientTransform="translate(-3.907 -1.803)" gradientUnits="userSpaceOnUse" xlink:href="#c"/><linearGradient x1="28.059" x2="33.437" y1="18.868" y2="23.743" gradientTransform="translate(-3.907 -1.803)" gradientUnits="userSpaceOnUse" xlink:href="#d"/><linearGradient x1="13.774" x2="12.139" y1="32.913" y2="5.594" gradientUnits="userSpaceOnUse" xlink:href="#e"/><linearGradient x1="27.68" x2="27.68" y1="35.535" y2="77.516" gradientUnits="userSpaceOnUse" xlink:href="#f"/><radialGradient cx="16.098" cy="13.38" r="18.109" gradientUnits="userSpaceOnUse" gradientTransform="matrix(.496 .951 -.914 .483 17.781 -4.463)" fy="13.38" fx="16.098" xlink:href="#g"/><radialGradient cx="24.205" cy="40.568" r="18.837" gradientUnits="userSpaceOnUse" gradientTransform="matrix(1 0 0 .263 0 29.898)" fy="40.568" fx="24.205" xlink:href="#h"/><radialGradient cx="33.161" cy="46.365" r="28.435" gradientUnits="userSpaceOnUse" gradientTransform="matrix(-1 0 0 1 55.359 0)" fy="46.365" fx="33.161"><stop offset="0" stop-color="#fff"/><stop offset="1" stop-color="#6e6e6e"/></radialGradient><linearGradient id="h"><stop offset="0"/><stop offset="1" stop-opacity="0"/></linearGradient><linearGradient id="d"><stop offset="0" stop-color="#6e3d09"/><stop offset=".242" stop-color="#ea8113"/><stop offset=".621" stop-color="#5c3307"/><stop offset="1" stop-color="#e07c12"/></linearGradient><linearGradient id="c"><stop offset="0" stop-color="#bdbdbd"/><stop offset=".333" stop-color="#e2e2e2"/><stop offset=".667" stop-color="#a3a3a3"/><stop offset="1" stop-color="#ddd"/></linearGradient><linearGradient id="b"><stop offset="0" stop-color="#696969"/><stop offset="1"/></linearGradient><linearGradient id="a"><stop offset="0" stop-color="#fff"/><stop offset="1" stop-color="#fff" stop-opacity="0"/></linearGradient><linearGradient id="g"><stop offset="0" stop-color="#ffd83c"/><stop offset="1" stop-color="#e25a00"/></linearGradient><linearGradient id="f"><stop offset="0" stop-color="#eeeeec" stop-opacity=".753"/><stop offset="1" stop-color="#eeeeec" stop-opacity="0"/></linearGradient><linearGradient id="e"><stop offset="0" stop-color="#ce5c00"/><stop offset="1" stop-color="#873c00" stop-opacity="0"/></linearGradient><linearGradient x1="27.68" x2="27.68" y1="35.535" y2="77.516" xlink:href="#f" gradientUnits="userSpaceOnUse"/><radialGradient cx="16.098" cy="13.38" r="18.109" xlink:href="#g" gradientUnits="userSpaceOnUse" gradientTransform="matrix(.496 .951 -.914 .483 -5.342 -31.289)" fx="16.098" fy="13.38"/><linearGradient x1="13.774" x2="12.139" y1="32.913" y2="5.594" xlink:href="#e" gradientUnits="userSpaceOnUse" gradientTransform="translate(-23.123 -26.826)"/><linearGradient id="i" x1="28.059" x2="33.437" y1="18.868" y2="23.743" xlink:href="#d" gradientUnits="userSpaceOnUse" gradientTransform="translate(-3.907 -1.803)"/><linearGradient id="j" x1="19.395" x2="23.109" y1="30.001" y2="33.439" xlink:href="#c" gradientUnits="userSpaceOnUse" gradientTransform="translate(-3.907 -1.803)"/><radialGradient id="k" cx="15.415" cy="35.357" r="7.579" xlink:href="#b" gradientUnits="userSpaceOnUse" gradientTransform="matrix(.995 0 0 .969 -4.583 .166)" fx="15.415" fy="35.357"/><linearGradient id="l" x1="13.236" x2="7.752" y1="37.752" y2="42.282" xlink:href="#a" gradientUnits="userSpaceOnUse" gradientTransform="matrix(.852 0 0 .852 -1.675 3.754)"/></defs><g><g stroke="#204a87" stroke-width=".25" stroke-linejoin="bevel"><path fill="#5e92c8" d="M27.9 24.56l-2.88-.65-.02 2.7 4.67 2.06.73-.94-3.3-.86z" color="#000" overflow="visible" enable-background="accumulate"/><path fill="#99badc" d="M42.83 25.98l-4.88-1-1.7 2.16 5.18 1.2z" color="#000" overflow="visible" enable-background="accumulate"/><path fill="#bcd1e9" d="M47.86 25.5L42.9 24.4l-1.57 2.22 5.1 1.2z" color="#000" overflow="visible" enable-background="accumulate"/><path fill="#729fcf" d="M33.5 24.38l-4.48-.98-1.8 1.98 4.7 1.1z" color="#000" overflow="visible" enable-background="accumulate"/><path fill="#a1c0df" d="M37.95 24.07l-4.5-.98-1.8 1.98 4.7 1.1z" color="#000" overflow="visible" enable-background="accumulate"/><path fill="#729fcf" d="M17 21.95l3.07.78-1.83 1.7-3.17-.85z" color="#000" overflow="visible" enable-background="accumulate"/><path fill="#b3cbe5" d="M24.97 23.04l-4.5-.98-2.44 2.1 4.65 1.2z" color="#000" overflow="visible" enable-background="accumulate"/><path fill="#729fcf" d="M39.4 31.53l1.1-2.58-4.25-1-1.86 2.36z" color="#000" overflow="visible" enable-background="accumulate"/><path fill="#99badc" d="M46.23 29.18l-5.03-1.24-1.68 2.42 5.2 1.3z" color="#000" overflow="visible" enable-background="accumulate"/><path fill="#729fcf" d="M36.27 27.53l-4.7-1.1-1.98 2.26 4.8 1.17z" color="#000" overflow="visible" enable-background="accumulate"/><path fill="#729fcf" d="M18.03 24.4l-3.35-.87-2.4 1.96 4.1 1z" color="#000" overflow="visible" enable-background="accumulate"/><path fill="#729fcf" d="M18.08 24.43L16.3 25.9l1.84.44z" color="#000" overflow="visible" enable-background="accumulate"/><path fill="none" d="M17.36 27.22l-1-.3-1.14 1.02 1 .28z" color="#000" overflow="visible" enable-background="accumulate"/><path fill="#4581bf" d="M17.4 27.17l-5.1-1.32-4.33 3.6 3.12.94 5.15-2.18z" color="#000" overflow="visible" enable-background="accumulate"/><path fill="#729fcf" d="M16.2 28.22l-2.42-.67-2.7 2.38 4.5 1.16z" color="#000" overflow="visible" enable-background="accumulate"/><path fill="#91b4da" d="M22.7 27.68l-4.62-1.13-2.65 2.34 4.74 1.26z" color="#000" overflow="visible" enable-background="accumulate"/><path fill="#729fcf" d="M34.3 30.7l-4.74-1.26-1.8 2.1 4.64 1.7z" color="#000" overflow="visible" enable-background="accumulate"/><path fill="#729fcf" d="M39 32.35l-4.66-1.24-1.96 2.6 5.18 1.36z" color="#000" overflow="visible" enable-background="accumulate"/><path fill="#729fcf" d="M44.55 33.2l-5.18-1.3-1.83 2.64 5.36 1.42z" color="#000" overflow="visible" enable-background="accumulate"/><path fill="#729fcf" d="M42.77 36.74l-5.3-1.47L36 37.43l5.1 2.3z" color="#000" overflow="visible" enable-background="accumulate"/><path fill="#83abd5" d="M29.62 27.78l-4.6-1.16-2.27 2.33 4.78 1.26z" color="#000" overflow="visible" enable-background="accumulate"/><path fill="#729fcf" d="M27.5 30.75l-4.75-1.24-2.5 2.54 4.95 1.37z" color="#000" overflow="visible" enable-background="accumulate"/><path fill="#729fcf" d="M32.35 32.8l-4.9-1.38-2.22 2.7 5.06 1.4z" color="#000" overflow="visible" enable-background="accumulate"/><path fill="#729fcf" d="M37.25 35.55l-4.92-1.4-1.7 2.3 4.7 1.27.74-.36z" color="#000" overflow="visible" enable-background="accumulate"/><path fill="#85acd6" d="M41.15 38.9l-5.57-1.62-1.53 2.3 5.3 2.52z" color="#000" overflow="visible" enable-background="accumulate"/><path fill="#6294ca" d="M35.3 37.7l-5.04-1.4-1.88 2.45 4.6 1.3 1.15-.58z" color="#000" overflow="visible" enable-background="accumulate"/><path fill="#4e86c3" d="M29.82 36.87l-4.7-1.32-2.2 2.66 4.3 1.27 1.24-.77z" color="#000" overflow="visible" enable-background="accumulate"/><path fill="#6093c9" d="M25.1 34.88l-4.8-1.37-2.68 2.82 5 1.47z" color="#000" overflow="visible" enable-background="accumulate"/><path fill="#729fcf" d="M20.2 32.38l-4.72-1.3-2.76 2.66 4.87 1.4z" color="#000" overflow="visible" enable-background="accumulate"/><path fill="#5c90c8" d="M14.55 31.94l-3.43-.96-1.52 1.37 3.04.85.05.62z" color="#000" overflow="visible" enable-background="accumulate"/><path fill="#95b8db" d="M11.07 30.42l-4.34-1.27-1.18.98 2.37.7.1.98 1.1.32z" color="#000" overflow="visible" enable-background="accumulate"/><path fill="#afc9e3" d="M7.87 30.8l-4.52-1.26-3.27 2.6 4.56 1.4z" color="#000" overflow="visible" enable-background="accumulate"/><path fill="#97b9dc" d="M12.64 33.25l-4.6-1.44-3.24 2.8 4.77 1.5z" color="#000" overflow="visible" enable-background="accumulate"/><path fill="#729fcf" d="M17.65 36.07l-4.88-1.45-3.04 2.94 4.97 1.55z" color="#000" overflow="visible" enable-background="accumulate"/><path fill="#6093c9" d="M22.4 38.4l-4.7-1.38-2.97 3.12 5.3 1.63z" color="#000" overflow="visible" enable-background="accumulate"/><path fill="#729fcf" d="M27.17 39.45l-4.55-1.3-2.76 3.23 5.42 1.73z" color="#000" overflow="visible" enable-background="accumulate"/><path fill="#8bb0d8" d="M32.94 40.1l-5.1-1.5-2.53 3.45 5.68 1.7z" color="#000" overflow="visible" enable-background="accumulate"/><path fill="#a1c0df" d="M39.4 41.12l-5.9-1.78-2.36 3.56 6.06 1.86z" color="#000" overflow="visible" enable-background="accumulate"/><path fill="#3465a4" d="M36.94 47.73l.3-3-6.08-1.85-.1.85L25.33 42l-.02 1.08-5.4-1.75.04.4-5.2-1.6.02-1.02-5.1-1.6-.1-1.43-4.8-1.45-.14-1.1-4.6-1.4.62 3.9z"/><path fill="#3465a4" d="M46.44 27.78l-5.16-1.16-.08 1.34 5.03 1.2z" color="#000" overflow="visible" enable-background="accumulate"/><path fill="#3465a4" d="M41.02 28.22l-4.75-1.08v.82l4.2.96z" color="#000" overflow="visible" enable-background="accumulate"/><path fill="#3465a4" d="M36.32 26.18l-.07 1.37-4.7-1.1.05-1.37z" color="#000" overflow="visible" enable-background="accumulate"/><path fill="#3465a4" d="M31.55 26.42l-4.36-1-.1 1.8 3.16.72z" color="#000" overflow="visible" enable-background="accumulate"/><path fill="#3465a4" d="M22.68 25.36l.02 2.35-4.64-1.15-.03-2.4z" color="#000" overflow="visible" enable-background="accumulate"/><path fill="#3465a4" d="M18.08 26.34l-1.83-.46.1.6-4.07-1 .03.4 5.06 1.3.7-.66z" color="#000" overflow="visible" enable-background="accumulate"/><path fill="#3465a4" d="M22.7 28.97l4.83 1.27-.03.5-4.75-1.18z" color="#000" overflow="visible" enable-background="accumulate"/><path fill="#3465a4" d="M29.6 28.7l-.04.8 4.83 1.2-.04-.83z" color="#000" overflow="visible" enable-background="accumulate"/><path fill="#3465a4" d="M39.37 31.53l-5-1.2-.06.8L39 32.4l.4-.47z" color="#000" overflow="visible" enable-background="accumulate"/><path fill="#3465a4" d="M44.68 31.65l-5.2-1.23-.1 1.5 5.17 1.26z" color="#000" overflow="visible" enable-background="accumulate"/><path fill="#3465a4" d="M42.9 35.96l-5.4-1.42-.02.47-5.15-1.33-.03.5 4.98 1.4.18-.3 5.34 1.47z" color="#000" overflow="visible" enable-background="accumulate"/><path fill="#3465a4" d="M30.3 36.35l-.04-.75-5.1-1.52.02-.7-4.95-1.34-.06-1.86-4.77-1.26.13 2.2 4.75 1.28.02 1.14 4.83 1.34.02.7 4.67 1.3z" color="#000" overflow="visible" enable-background="accumulate"/><path fill="#3465a4" d="M15.56 31.06l-4.52-1.13.05 1.03 3.42.98z" color="#000" overflow="visible" enable-background="accumulate"/><path fill="#3465a4" d="M22.62 38.16v-.37l-5-1.48.05.73 4.72 1.36z" color="#000" overflow="visible" enable-background="accumulate"/><path fill="#3465a4" d="M17.6 36.07l-.08-.93-4.8-1.34.05.82z" color="#000" overflow="visible" enable-background="accumulate"/><path d="M47.2 29.64l.63-4.13-1.4 2.3-.2 1.4-1.52 2.43-.17 1.6L42.88 36l-.08.74-1.73 3.02.08-.86-1.9 3.28.14-1.06-2.2 3.67-.26 2.93z" color="#000" overflow="visible" enable-background="accumulate"/><path fill="#173560" d="M37.97 24.97l.1-.95-1.77 2.2v.97z" color="#000" overflow="visible" enable-background="accumulate"/><path fill="#173560" d="M36.27 27.5l-1.93 2.4.05.54 1.9-2.5z" color="#000" overflow="visible" enable-background="accumulate"/><path d="M34.3 30.67l-1.92 2.46v-.4l-2.12 2.85.05.77.37.05 1.63-2.2.05-.5 1.96-2.6z" color="#000" overflow="visible" enable-background="accumulate"/><path d="M29.6 29.5l.04-1.74-2.1 2.48-.04.54-2.32 2.68v.62l2.27-2.66.28.1z" color="#000" overflow="visible" enable-background="accumulate"/><path d="M24.97 26.67l.08-3.63-2.4 2.37v2.36L20.2 30.2v1.9l2.53-2.5.02-.63z" color="#000" overflow="visible" enable-background="accumulate"/><path fill="#173560" d="M25.15 35.6l.03-.72-2.58 2.97.02.33.3.08z" color="#000" overflow="visible" enable-background="accumulate"/><path d="M20.33 33.56l-.1-1.16-2.7 2.84.1 1.14z" color="#000" overflow="visible" enable-background="accumulate"/><path d="M17.7 37.12l-.1-.93-2.9 2.94.06 1z" color="#000" overflow="visible" enable-background="accumulate"/><path fill="#173560" d="M11.07 30.44l-2 1.68.58.23L11.1 31z" color="#000" overflow="visible" enable-background="accumulate"/><path d="M8.02 31.86l-.15-1.03-3.25 2.7.15 1.1z" color="#000" overflow="visible" enable-background="accumulate"/><path d="M12.64 33.28l-3.07 2.8.1 1.48 3.07-2.9z" color="#000" overflow="visible" enable-background="accumulate"/></g><g color="#000"><path fill="url(#i)" stroke="#673907" stroke-width="1.272" d="M19.65 22.6l4.07 3.8c7.2-7.08 17.78-24 17.78-24 .43-1.2-1.1-2-1.85-1.16 0 0-13.7 14.1-20 21.35z" stroke-linecap="round" overflow="visible" transform="matrix(.786 .028 -.028 .786 14.984 -1.173)"/><path fill="url(#j)" stroke="#888a85" stroke-width="1.272" d="M12.05 32.8l2.25 1.95 8.5-7.37.26-.7 1.1-.02c-.44-1.57-2.94-4.4-4.82-4.4l.08 1.1-.67.38-6.7 9.07z" stroke-linecap="round" overflow="visible" transform="matrix(.786 .028 -.028 .786 14.984 -1.173)"/><path fill="url(#k)" d="M1.76 40.72c6.6 0 11.62.8 12.56-4.02.77-3.87-4.56-5.72-7.2-2.27-2.54 3.33-5.36 6.3-5.36 6.3z" overflow="visible" transform="matrix(.786 .028 -.028 .786 14.984 -1.173)"/><path fill="#fff" d="M22.9 26.46c-.03.46-.42.82-.88.8-.46 0-.83-.4-.8-.86 0-.46.4-.82.86-.8.46 0 .82.4.8.86z" opacity=".528" overflow="visible"/><path fill="#fff" d="M31 19.08c-.03.42-.4.76-.8.74-.44 0-.78-.37-.76-.8 0-.42.37-.76.8-.74.43 0 .76.37.75.8z" overflow="visible"/><path fill="none" stroke="#fff" stroke-width=".79.272" d="M29.13 20.1l-4.34 4.7" stroke-linecap="round" stroke-linejoin="round" overflow="visible"/><path fill="url(#l)" d="M3.07 40.07s3.34-1.64 4.77-4.1c.5-.85 1.64-.1.94.75-1.52 1.86-5.7 3.35-5.7 3.35z" opacity=".428" overflow="visible" transform="matrix(.786 .028 -.028 .786 14.984 -1.173)"/><path fill="#fff" d="M46.77 1.45c0 .12-.1.23-.24.22-.13 0-.23-.1-.22-.24 0-.13.12-.23.25-.23s.23.12.22.25z" opacity=".533" overflow="visible"/></g></g></svg>