<svg xmlns="http://www.w3.org/2000/svg" width="48" height="48" xmlns:xlink="http://www.w3.org/1999/xlink"><defs><linearGradient id="a"><stop offset="0" stop-color="#4a80c5"/><stop offset="1" stop-color="#3465a4"/></linearGradient><linearGradient id="d" x1="17.22" x2="32.469" y1="16.102" y2="19.84" xlink:href="#a" gradientUnits="userSpaceOnUse"/><linearGradient id="e" x1="13.887" x2="40.348" y1="27.871" y2="27.366" xlink:href="#b" gradientUnits="userSpaceOnUse"/><linearGradient id="b"><stop offset="0" stop-color="#4a80c5"/><stop offset="1" stop-color="#3465a4"/></linearGradient><linearGradient x1="17.22" x2="32.469" y1="16.102" y2="19.84" gradientTransform="translate(-16.816 -12.7)" gradientUnits="userSpaceOnUse" xlink:href="#b"/><linearGradient id="c"><stop offset="0" stop-color="#4a80c5"/><stop offset="1" stop-color="#3465a4"/></linearGradient><linearGradient x1="17.22" x2="32.469" y1="16.102" y2="19.84" gradientTransform="translate(-16.816 -12.7)" gradientUnits="userSpaceOnUse" xlink:href="#c"/></defs><g stroke="#204a87" stroke-width=".25" stroke-linejoin="bevel"><path fill="#081322" d="M.1 22.6l.2 2.52 9.95 16.97 37.58-11.47.3-1.97z" color="#000" overflow="visible" enable-background="accumulate"/><path fill="#729fcf" d="M.15 22.57l6.28-1.38 34.03 1.7 7.52 5.77L10.44 39.8z"/><path fill="#93b6da" d="M12.7 16.2l-6.76 1.4 7.84 10.14 26.94-6.8-7.75-5.67z" color="#000" overflow="visible" enable-background="accumulate"/><path fill="#a5c2e0" d="M12.53 11.76l15.1-2.85 5.52 3.88-16.34 3.25z" color="#000" overflow="visible" enable-background="accumulate"/><path fill="#112646" d="M6.56 23.73l-.53-6.23 7.8 10.24.35 6.86z" color="#000" overflow="visible" enable-background="accumulate"/><path fill="#112646" d="M12.5 11.62l4.44 4.45.3 7.4-4.4-4.86z" color="#000" overflow="visible" enable-background="accumulate"/><path fill="url(#d)" d="M17.25 23.42l-.3-7.43 16.2-3.18-.4 6.95z" color="#000" overflow="visible" enable-background="accumulate"/><path fill="url(#e)" d="M13.73 27.74l27-6.8-.54 6.44L14.2 34.5z" color="#000" overflow="visible" enable-background="accumulate"/></g></svg>