<svg xmlns="http://www.w3.org/2000/svg" width="48" height="48"><defs><linearGradient><stop offset="0" stop-color="#ef2929"/><stop offset="1" stop-color="#eaef29"/></linearGradient><linearGradient><stop offset="0" stop-color="#ce5c00"/><stop offset="1" stop-color="#ce5c00" stop-opacity="0"/></linearGradient><linearGradient><stop offset="0" stop-color="#ce5c00"/><stop offset="1" stop-color="#ce5c00" stop-opacity="0"/></linearGradient><linearGradient><stop offset="0" stop-color="#ce5c00"/><stop offset="1" stop-color="#ce5c00" stop-opacity="0"/></linearGradient><linearGradient><stop offset="0" stop-color="#eeeeec" stop-opacity=".502"/><stop offset="1" stop-color="#eeeeec" stop-opacity="0"/></linearGradient><linearGradient><stop offset="0" stop-color="#eeeeec" stop-opacity=".502"/><stop offset="1" stop-color="#eeeeec" stop-opacity="0"/></linearGradient><linearGradient><stop offset="0" stop-color="#eeeeec" stop-opacity=".502"/><stop offset="1" stop-color="#eeeeec" stop-opacity="0"/></linearGradient><linearGradient><stop offset="0" stop-color="#eeeeec" stop-opacity=".502"/><stop offset="1" stop-color="#eeeeec" stop-opacity="0"/></linearGradient><linearGradient><stop offset="0" stop-color="#eeeeec" stop-opacity=".502"/><stop offset="1" stop-color="#eeeeec" stop-opacity="0"/></linearGradient><linearGradient><stop offset="0" stop-color="#eeeeec" stop-opacity=".502"/><stop offset="1" stop-color="#eeeeec" stop-opacity="0"/></linearGradient><linearGradient><stop offset="0" stop-color="#eeeeec" stop-opacity=".502"/><stop offset="1" stop-color="#eeeeec" stop-opacity="0"/></linearGradient></defs><g><path fill="none" stroke="#eeeeec" stroke-width="2" d="M24.47 15.05l-6.36.16-5 2.44-6.06 1.6-5.78 4.08 6.13 5.6 5.18.1L19 30.28l5.33 4.7 4.85-.67 5.75-4.36 6.84-1.57 3.25-6.8-3.44-2.96-6.8-1.17-6.06-2.96z"/><path fill="none" stroke="#eeeeec" stroke-width="2" d="M13.24 17.5l5.93 1.43 4.9 4.28 5.6 6.5 5.7-.13" color="#000" overflow="visible" enable-background="accumulate"/><path fill="none" stroke="#eeeeec" stroke-width="2" d="M34.78 17.43l-7.27 1.74L24 23.12l-5.3-.03-6.12 6.04" color="#000" overflow="visible" enable-background="accumulate"/><path fill="none" stroke="#eeeeec" stroke-width="2" d="M6.83 19.18l4.77 6.1 7.02-2.13 3.38 4.9 7.26 6.27"/><path fill="none" stroke="#eeeeec" stroke-width="2" d="M41.54 18.96L34 21.06l-4.6 8.67-7.46-1.75-2.9 2.55" color="#000" overflow="visible" enable-background="accumulate"/><path fill="none" stroke="#eeeeec" stroke-width="2" d="M7.3 28.9l4.28-3.65 7.57-6.5 5.57-3.5"/><path fill="none" stroke="#eeeeec" stroke-width="2" d="M24.53 15.14l3.1 4.1 6.52 1.74 7.54 7.55" color="#000" overflow="visible" enable-background="accumulate"/><path fill="none" stroke="#eeeeec" stroke-width="2" d="M24.62 15.24h-6.37l-5.2 2.5-6.2 1.55-5.52 4.17L7.35 29l5.2.13 6.36 1.38 5.5 4.6 4.88-.94 5.74-4.3 6.8-1.44 5.44-5.1-5.68-4.42-6.8-1.42-6-2.87z" color="#000" overflow="visible" enable-background="accumulate"/><path fill="none" stroke="#eeeeec" stroke-width="2" d="M9 26.75l3.22-1.22 4.86-1.43-4.64 4.43L9 26.75z"/><path fill="none" stroke="#eeeeec" stroke-width="2" d="M13.2 28.9l5.42-4.94 2.78 4.07-2.36 2-5.85-1.14z"/><path fill="none" stroke="#eeeeec" stroke-width="2" d="M24.62 23.18l3.14-3.43 5.5 1.5-3.86 7.07-4.78-5.14z"/><path fill="none" stroke="#eeeeec" stroke-width="2" d="M30.33 29.32l3.93-7.5 6.07 6.14-5.57 1.22-4.43.14z"/><path fill="none" stroke="#eeeeec" stroke-width="2" d="M7.97 20.85l5.5-2.85 4.36 1.28-6.3 5.22-3.56-3.65z"/><path fill="none" stroke="#eeeeec" stroke-width="2" d="M35.44 21.14l5.7-1.5 5 3.5-4.56 4.5-6.14-6.5z"/><path fill="none" stroke="#eeeeec" stroke-width="2" d="M19.37 23.53h4.14l5.15 5.57-6.28-1.42-3-4.15z"/><g stroke="#204a87" stroke-width=".25" stroke-linejoin="bevel"><path fill="#5e92c8" d="M27.9 18.94l-2.88-.65-.02 2.68 4.67 2.06.73-.94-3.3-.87z" color="#000" overflow="visible" enable-background="accumulate"/><path fill="#99badc" d="M42.83 20.36l-4.88-1-1.7 2.16 5.18 1.18z" color="#000" overflow="visible" enable-background="accumulate"/><path fill="#bcd1e9" d="M47.86 19.9l-4.96-1.14-1.57 2.22 5.1 1.2z" color="#000" overflow="visible" enable-background="accumulate"/><path fill="#729fcf" d="M33.5 18.76l-4.48-.98-1.8 1.98 4.7 1.1z" color="#000" overflow="visible" enable-background="accumulate"/><path fill="#a1c0df" d="M37.95 18.45l-4.5-.98-1.8 1.98 4.7 1.1z" color="#000" overflow="visible" enable-background="accumulate"/><path fill="#729fcf" d="M17 16.33l3.07.78-1.83 1.7-3.17-.84z" color="#000" overflow="visible" enable-background="accumulate"/><path fill="#b3cbe5" d="M24.97 17.42l-4.5-.98-2.44 2.1 4.65 1.2z" color="#000" overflow="visible" enable-background="accumulate"/><path fill="#729fcf" d="M39.4 25.9l1.1-2.58-4.25-1-1.86 2.37z" color="#000" overflow="visible" enable-background="accumulate"/><path fill="#99badc" d="M46.23 23.56l-5.03-1.24-1.68 2.42 5.2 1.3z" color="#000" overflow="visible" enable-background="accumulate"/><path fill="#729fcf" d="M36.27 21.9l-4.7-1.08-1.98 2.25 4.8 1.18z" color="#000" overflow="visible" enable-background="accumulate"/><path fill="#729fcf" d="M18.03 18.78l-3.35-.87-2.4 1.97 4.1 1z" color="#000" overflow="visible" enable-background="accumulate"/><path fill="#729fcf" d="M18.08 18.8L16.3 20.3l1.84.44z" color="#000" overflow="visible" enable-background="accumulate"/><path fill="none" d="M17.36 21.6l-1-.3-1.14 1.02 1 .28z" color="#000" overflow="visible" enable-background="accumulate"/><path fill="#4581bf" d="M17.4 21.54l-5.1-1.3-4.33 3.57 3.12.97 5.15-2.17z" color="#000" overflow="visible" enable-background="accumulate"/><path fill="#729fcf" d="M16.2 22.6l-2.42-.67-2.7 2.37 4.5 1.16z" color="#000" overflow="visible" enable-background="accumulate"/><path fill="#91b4da" d="M22.7 22.06l-4.62-1.14-2.65 2.35 4.74 1.27z" color="#000" overflow="visible" enable-background="accumulate"/><path fill="#729fcf" d="M34.3 25.08l-4.74-1.27-1.8 2.13 4.64 1.7z" color="#000" overflow="visible" enable-background="accumulate"/><path fill="#729fcf" d="M39 26.73l-4.66-1.24-1.96 2.57 5.18 1.37z" color="#000" overflow="visible" enable-background="accumulate"/><path fill="#729fcf" d="M44.55 27.58l-5.18-1.3-1.83 2.64 5.36 1.42z" color="#000" overflow="visible" enable-background="accumulate"/><path fill="#729fcf" d="M42.77 31.12l-5.3-1.48L36 31.8l5.1 2.3z" color="#000" overflow="visible" enable-background="accumulate"/><path fill="#83abd5" d="M29.62 22.16L25.02 21l-2.27 2.32 4.78 1.27z" color="#000" overflow="visible" enable-background="accumulate"/><path fill="#729fcf" d="M27.5 25.13l-4.75-1.24-2.5 2.52 4.95 1.37z" color="#000" overflow="visible" enable-background="accumulate"/><path fill="#729fcf" d="M32.35 27.17l-4.9-1.37-2.22 2.68 5.06 1.42z" color="#000" overflow="visible" enable-background="accumulate"/><path fill="#729fcf" d="M37.25 29.93l-4.92-1.4-1.7 2.3 4.7 1.27.74-.37z" color="#000" overflow="visible" enable-background="accumulate"/><path fill="#85acd6" d="M41.15 33.28l-5.57-1.62-1.53 2.3 5.3 2.52z" color="#000" overflow="visible" enable-background="accumulate"/><path fill="#6294ca" d="M35.3 32.07l-5.04-1.4-1.88 2.46 4.6 1.3 1.15-.58z" color="#000" overflow="visible" enable-background="accumulate"/><path fill="#4e86c3" d="M29.82 31.24l-4.7-1.3-2.2 2.65 4.3 1.25 1.24-.77z" color="#000" overflow="visible" enable-background="accumulate"/><path fill="#6093c9" d="M25.1 29.26l-4.8-1.37-2.68 2.8 5 1.47z" color="#000" overflow="visible" enable-background="accumulate"/><path fill="#729fcf" d="M20.2 26.75l-4.72-1.3-2.76 2.67 4.87 1.4z" color="#000" overflow="visible" enable-background="accumulate"/><path fill="#5c90c8" d="M14.55 26.32l-3.43-.96-1.52 1.37 3.04.85.05.62z" color="#000" overflow="visible" enable-background="accumulate"/><path fill="#95b8db" d="M11.07 24.8l-4.34-1.27-1.18.98 2.37.7.1 1 1.1.3z" color="#000" overflow="visible" enable-background="accumulate"/><path fill="#afc9e3" d="M7.87 25.18l-4.52-1.26-3.27 2.6 4.56 1.4z" color="#000" overflow="visible" enable-background="accumulate"/><path fill="#97b9dc" d="M12.64 27.63l-4.6-1.44-3.24 2.77 4.77 1.5z" color="#000" overflow="visible" enable-background="accumulate"/><path fill="#729fcf" d="M17.65 30.44L12.77 29l-3.04 2.94 4.97 1.55z" color="#000" overflow="visible" enable-background="accumulate"/><path fill="#6093c9" d="M22.4 32.8l-4.7-1.4-2.97 3.12 5.3 1.63z" color="#000" overflow="visible" enable-background="accumulate"/><path fill="#729fcf" d="M27.17 33.82l-4.55-1.3-2.76 3.24 5.42 1.73z" color="#000" overflow="visible" enable-background="accumulate"/><path fill="#8bb0d8" d="M32.94 34.47l-5.1-1.5-2.53 3.46 5.68 1.7z" color="#000" overflow="visible" enable-background="accumulate"/><path fill="#a1c0df" d="M39.4 35.5l-5.9-1.78-2.36 3.56 6.06 1.86z" color="#000" overflow="visible" enable-background="accumulate"/><path fill="#3465a4" d="M36.94 42.1l.3-3-6.08-1.84-.1.85-5.73-1.72-.02 1.08-5.4-1.75.04.42-5.2-1.63.02-1-5.1-1.6-.1-1.46L4.77 29l-.14-1.1-4.6-1.4.62 3.9z"/><path fill="#3465a4" d="M46.44 22.16L41.28 21l-.08 1.34 5.03 1.2z" color="#000" overflow="visible" enable-background="accumulate"/><path fill="#3465a4" d="M41.02 22.6l-4.75-1.08v.82l4.2.96z" color="#000" overflow="visible" enable-background="accumulate"/><path fill="#3465a4" d="M36.32 20.56l-.07 1.37-4.7-1.1.05-1.38z" color="#000" overflow="visible" enable-background="accumulate"/><path fill="#3465a4" d="M31.55 20.8l-4.36-1-.1 1.8 3.16.7z" color="#000" overflow="visible" enable-background="accumulate"/><path fill="#3465a4" d="M22.68 19.74l.02 2.35-4.64-1.18-.03-2.4z" color="#000" overflow="visible" enable-background="accumulate"/><path fill="#3465a4" d="M18.08 20.72l-1.83-.47.1.62-4.07-1 .03.38 5.06 1.3.7-.65z" color="#000" overflow="visible" enable-background="accumulate"/><path fill="#3465a4" d="M22.7 23.35l4.83 1.26-.03.53-4.75-1.2z" color="#000" overflow="visible" enable-background="accumulate"/><path fill="#3465a4" d="M29.6 23.07l-.04.8 4.83 1.2-.04-.82z" color="#000" overflow="visible" enable-background="accumulate"/><path fill="#3465a4" d="M39.37 25.9l-5-1.18-.06.8L39 26.75l.4-.46z" color="#000" overflow="visible" enable-background="accumulate"/><path fill="#3465a4" d="M44.68 26.03l-5.2-1.24-.1 1.5 5.17 1.25z" color="#000" overflow="visible" enable-background="accumulate"/><path fill="#3465a4" d="M42.9 30.34l-5.4-1.42-.02.47-5.15-1.36-.03.5 4.98 1.4.18-.3 5.34 1.48z" color="#000" overflow="visible" enable-background="accumulate"/><path fill="#3465a4" d="M30.3 30.73l-.04-.75-5.1-1.52.02-.7-4.95-1.34-.06-1.86-4.77-1.26.13 2.2 4.75 1.28.02 1.14 4.83 1.34.02.7 4.67 1.3z" color="#000" overflow="visible" enable-background="accumulate"/><path fill="#3465a4" d="M15.56 25.44l-4.52-1.14.05 1.04 3.42.98z" color="#000" overflow="visible" enable-background="accumulate"/><path fill="#3465a4" d="M22.62 32.53v-.36l-5-1.47.05.72 4.72 1.37z" color="#000" overflow="visible" enable-background="accumulate"/><path fill="#3465a4" d="M17.6 30.44l-.08-.92-4.8-1.35.05.83z" color="#000" overflow="visible" enable-background="accumulate"/><path d="M47.2 24.02l.63-4.13-1.4 2.3-.2 1.38L44.7 26l-.17 1.6-1.65 2.77-.08.75-1.73 3 .08-.84-1.9 3.28.14-1.06-2.2 3.66-.26 2.95z" color="#000" overflow="visible" enable-background="accumulate"/><path fill="#173560" d="M37.97 19.35l.1-.95-1.77 2.2v.97z" color="#000" overflow="visible" enable-background="accumulate"/><path fill="#173560" d="M36.27 21.88l-1.93 2.4.05.54 1.9-2.5z" color="#000" overflow="visible" enable-background="accumulate"/><path d="M34.3 25.05L32.4 27.5v-.38l-2.12 2.83.05.78.37.05 1.63-2.2.05-.5 1.96-2.6z" color="#000" overflow="visible" enable-background="accumulate"/><path d="M29.6 23.87l.04-1.73-2.1 2.47-.04.56-2.32 2.68v.62l2.27-2.66.28.1z" color="#000" overflow="visible" enable-background="accumulate"/><path d="M24.97 21.05l.08-3.63-2.4 2.37v2.34L20.2 24.6v1.87l2.53-2.5.02-.62z" color="#000" overflow="visible" enable-background="accumulate"/><path fill="#173560" d="M25.15 29.98l.03-.72-2.58 2.96.02.34.3.08z" color="#000" overflow="visible" enable-background="accumulate"/><path d="M20.33 27.94l-.1-1.16-2.7 2.84.1 1.13z" color="#000" overflow="visible" enable-background="accumulate"/><path d="M17.7 31.5l-.1-.93-2.9 2.94.06 1.02z" color="#000" overflow="visible" enable-background="accumulate"/><path fill="#173560" d="M11.07 24.82l-2 1.68.58.23 1.44-1.34z" color="#000" overflow="visible" enable-background="accumulate"/><path d="M8.02 26.24l-.15-1.03-3.25 2.72.15 1.08z" color="#000" overflow="visible" enable-background="accumulate"/><path d="M12.64 27.66l-3.07 2.8.1 1.48 3.07-2.9z" color="#000" overflow="visible" enable-background="accumulate"/></g><g fill="none"><path d="M24.47 9.4l-5.14 5.06-6.22 3.18-6.06 1.6-5.78 4.08 6.13 5.6 5.18.1L19 30.28l5.33 4.7 4.85-.67 5.75-4.36 6.84-1.57 5.42-5.2-5.62-4.56-6.8-1.17-6.06-2.96-4.25-5.08z"/><path stroke="#8ae234" d="M13.24 17.5l5.93 1.43 4.9 4.28 5.6 6.5 5.7-.13" color="#000" overflow="visible" enable-background="accumulate"/><path stroke="#8ae234" d="M34.78 17.43l-7.27 1.74L24 23.12l-5.3-.03-6.12 6.04" color="#000" overflow="visible" enable-background="accumulate"/><path stroke="#8ae234" d="M6.83 19.18l4.77 6.1 7.02-2.13 3.38 4.9 7.26 6.27"/><path stroke="#8ae234" d="M41.54 18.96L34 21.06l-4.6 8.67-7.46-1.75-2.9 2.55" color="#000" overflow="visible" enable-background="accumulate"/><path stroke="#8ae234" d="M7.3 28.9l4.28-3.65 7.57-6.5 5.57-3.85"/><path stroke="#8ae234" d="M24.53 15.1l3.1 4.13 6.52 1.75 7.54 7.55" color="#000" overflow="visible" enable-background="accumulate"/><path stroke="#8ae234" d="M24.62 15.2l-6.37.04-5.2 2.5-6.2 1.55-5.52 4.17L7.35 29l5.2.13 6.36 1.38 5.5 4.6 4.88-.94 5.74-4.3 6.8-1.44 5.44-5.1-5.68-4.42-6.8-1.42-6-2.87z" color="#000" overflow="visible" enable-background="accumulate"/><path d="M9 26.75l3.22-1.22 4.86-1.43-4.64 4.43L9 26.75z"/><path d="M13.2 28.9l5.42-4.94 2.78 4.07-2.36 2-5.85-1.14z"/><path d="M19.7 18.68l4.7-7.58 2.36 7.8-3 3.28-4.07-3.5z"/><path d="M18.33 15.93l4.36-4.08-3.8 6.58-4.07-1 3.5-1.5z"/><path d="M24.62 23.18l3.14-3.43 5.5 1.5-3.86 7.07-4.78-5.14z"/><path d="M30.33 29.32l3.93-7.5 6.07 6.14-5.57 1.22-4.43.14z"/><path d="M7.97 20.85l5.5-2.85 4.36 1.28-6.3 5.22-3.56-3.65z"/><path d="M35.44 21.14l5.7-1.5 5 3.5-4.56 4.5-6.14-6.5z"/><path d="M25.22 11.1l3.07 4.08 4.85 2.28-5.28 1.07-2.65-7.43z"/><path d="M19.37 23.53h4.14l5.15 5.57-6.28-1.42-3-4.15z"/></g></g></svg>