<svg xmlns="http://www.w3.org/2000/svg" width="48" height="48" xmlns:xlink="http://www.w3.org/1999/xlink"><defs><linearGradient id="a"><stop offset="0" stop-color="#ff0202"/><stop offset=".153" stop-color="#f0de11"/><stop offset=".321" stop-color="#20e12a"/><stop offset=".486" stop-color="#03fff7"/><stop offset=".666" stop-color="#0556ff"/><stop offset=".833" stop-color="#ab10ff"/><stop offset="1" stop-color="#f40000"/></linearGradient><radialGradient cx="-19.117" cy="20.322" r="17.549" xlink:href="#a" fx="-19.117" fy="20.322" gradientTransform="matrix(1 0 0 .63 0 7.516)" gradientUnits="userSpaceOnUse"/></defs><g stroke="#204a87" stroke-width=".25" stroke-linejoin="bevel"><path fill="#8ae234" d="M27.9 11.8l-2.88-.77-.02 3.25 4.67 2.5.73-1.13-3.3-1.06z" color="#000" overflow="visible" enable-background="accumulate"/><path fill="#ad7fa8" d="M42.83 13.53l-4.88-1.22-1.7 2.64 5.18 1.44z" color="#000" overflow="visible" enable-background="accumulate"/><path fill="#b20fe8" d="M47.86 12.97L42.9 11.6l-1.57 2.68 5.1 1.47z" color="#000" overflow="visible" enable-background="accumulate"/><path fill="#ad7fa8" d="M33.5 11.6l-4.48-1.2-1.8 2.4 4.7 1.36z" color="#000" overflow="visible" enable-background="accumulate"/><path fill="#ad7fa8" d="M37.95 11.22l-4.5-1.2-1.8 2.42 4.7 1.34z" color="#000" overflow="visible" enable-background="accumulate"/><path fill="#b20fe8" d="M17 8.65l3.07.94-1.83 2.06-3.17-1.04z" color="#000" overflow="visible" enable-background="accumulate"/><path fill="#fcaf3e" d="M24.97 9.97l-4.5-1.2-2.44 2.57 4.65 1.44z" color="#000" overflow="visible" enable-background="accumulate"/><path fill="#05fdec" d="M39.4 20.25l1.1-3.12-4.25-1.22-1.86 2.88z" color="#000" overflow="visible" enable-background="accumulate"/><path fill="#ad7fa8" d="M46.23 17.4l-5.03-1.5-1.68 2.95 5.2 1.56z" color="#000" overflow="visible" enable-background="accumulate"/><path fill="#05fdec" d="M36.27 15.4l-4.7-1.3-1.98 2.7 4.8 1.45z" color="#000" overflow="visible" enable-background="accumulate"/><path fill="#b20fe8" d="M18.03 11.62l-3.35-1.06-2.4 2.38 4.1 1.22z" color="#000" overflow="visible" enable-background="accumulate"/><path fill="#05fdec" d="M18.08 11.66l-1.78 1.78 1.84.53z" color="#000" overflow="visible" enable-background="accumulate"/><path fill="none" d="M17.36 15.03l-1-.34-1.14 1.2 1 .35z" color="#000" overflow="visible" enable-background="accumulate"/><path fill="#ad7fa8" d="M17.4 14.97l-5.1-1.6-4.33 4.35 3.12 1.16 5.15-2.63z" color="#000" overflow="visible" enable-background="accumulate"/><path fill="#8ae234" d="M16.2 16.25l-2.42-.8-2.7 2.86 4.5 1.42z" color="#000" overflow="visible" enable-background="accumulate"/><path fill="#fce94f" d="M22.7 15.6l-4.62-1.38-2.65 2.84 4.74 1.54z" color="#000" overflow="visible" enable-background="accumulate"/><path fill="#fcaf3e" d="M34.3 19.25l-4.74-1.53-1.8 2.56 4.64 2.07z" color="#000" overflow="visible" enable-background="accumulate"/><path fill="#8ae234" d="M39 21.25l-4.66-1.5-1.96 3.13 5.18 1.65z" color="#000" overflow="visible" enable-background="accumulate"/><path fill="#05fdec" d="M44.55 22.28l-5.18-1.56-1.83 3.2 5.36 1.7z" color="#000" overflow="visible" enable-background="accumulate"/><path fill="#05fdec" d="M42.77 26.57l-5.3-1.8L36 27.42l5.1 2.8z" color="#000" overflow="visible" enable-background="accumulate"/><path fill="#fce94f" d="M29.62 15.72l-4.6-1.4-2.27 2.8 4.78 1.54z" color="#000" overflow="visible" enable-background="accumulate"/><path fill="#ef2929" d="M27.5 19.3l-4.75-1.5-2.5 3.08 4.95 1.65z" color="#000" overflow="visible" enable-background="accumulate"/><path fill="#fce94f" d="M32.35 21.78l-4.9-1.65-2.22 3.25 5.06 1.72z" color="#000" overflow="visible" enable-background="accumulate"/><path fill="#8ae234" d="M37.25 25.13l-4.92-1.7-1.7 2.8 4.7 1.52.74-.43z" color="#000" overflow="visible" enable-background="accumulate"/><path fill="#05fdec" d="M41.15 29.2l-5.57-1.98-1.53 2.8 5.3 3.05z" color="#000" overflow="visible" enable-background="accumulate"/><path fill="#8ae234" d="M35.3 27.72l-5.04-1.68L28.38 29l4.6 1.6 1.15-.72z" color="#000" overflow="visible" enable-background="accumulate"/><path fill="#fcaf3e" d="M29.82 26.72l-4.7-1.6-2.2 3.23 4.3 1.53 1.24-.94z" color="#000" overflow="visible" enable-background="accumulate"/><path fill="#fce94f" d="M25.1 24.32l-4.8-1.66-2.68 3.4 5 1.8z" color="#000" overflow="visible" enable-background="accumulate"/><path fill="#fcaf3e" d="M20.2 21.28l-4.72-1.56-2.76 3.22 4.87 1.7z" color="#000" overflow="visible" enable-background="accumulate"/><path fill="#8ae234" d="M14.55 20.75l-3.43-1.15-1.52 1.65 3.04 1.03.05.75z" color="#000" overflow="visible" enable-background="accumulate"/><path fill="#05fdec" d="M11.07 18.9L6.73 17.4l-1.18 1.18 2.37.85.1 1.2 1.1.37z" color="#000" overflow="visible" enable-background="accumulate"/><path fill="#ad7fa8" d="M7.87 19.38l-4.52-1.53L.08 21l4.56 1.7z" color="#000" overflow="visible" enable-background="accumulate"/><path fill="#05fdec" d="M12.64 22.35l-4.6-1.75-3.24 3.37 4.77 1.82z" color="#000" overflow="visible" enable-background="accumulate"/><path fill="#8ae234" d="M17.65 25.75L12.77 24l-3.04 3.57 4.97 1.87z" color="#000" overflow="visible" enable-background="accumulate"/><path fill="#8ae234" d="M22.4 28.6l-4.7-1.7-2.97 3.8 5.3 1.96z" color="#000" overflow="visible" enable-background="accumulate"/><path fill="#8ae234" d="M27.17 29.85l-4.55-1.56-2.76 3.9 5.42 2.1z" color="#000" overflow="visible" enable-background="accumulate"/><path fill="#05fdec" d="M32.94 30.63l-5.1-1.8L25.3 33 31 35.08z" color="#000" overflow="visible" enable-background="accumulate"/><path fill="#ad7fa8" d="M39.4 31.88l-5.9-2.16-2.36 4.32 6.06 2.25z" color="#000" overflow="visible" enable-background="accumulate"/><path fill="#3465a4" d="M36.94 39.88l.3-3.62L31.15 34l-.1 1.04-5.73-2.1-.02 1.32-5.4-2.13.04.5-5.2-1.97.02-1.22-5.1-1.94-.1-1.75L4.77 24l-.14-1.34-4.6-1.7.62 4.73z"/><path fill="#3465a4" d="M46.44 15.72l-5.16-1.4-.08 1.62 5.03 1.44z" color="#000" overflow="visible" enable-background="accumulate"/><path fill="#3465a4" d="M41.02 16.25l-4.75-1.3v1l4.2 1.14z" color="#000" overflow="visible" enable-background="accumulate"/><path fill="#3465a4" d="M36.32 13.78l-.07 1.66-4.7-1.35.05-1.66z" color="#000" overflow="visible" enable-background="accumulate"/><path fill="#3465a4" d="M31.55 14.06l-4.36-1.22-.1 2.18 3.16.88z" color="#000" overflow="visible" enable-background="accumulate"/><path fill="#3465a4" d="M22.68 12.78l.02 2.85-4.64-1.4-.03-2.92z" color="#000" overflow="visible" enable-background="accumulate"/><path fill="#3465a4" d="M18.08 13.97l-1.83-.56.1.76-4.07-1.22.03.47 5.06 1.57.7-.78z" color="#000" overflow="visible" enable-background="accumulate"/><path fill="#3465a4" d="M22.7 17.16l4.83 1.53-.03.6-4.75-1.42z" color="#000" overflow="visible" enable-background="accumulate"/><path fill="#3465a4" d="M29.6 16.8l-.04.98 4.83 1.47-.04-1z" color="#000" overflow="visible" enable-background="accumulate"/><path fill="#3465a4" d="M39.37 20.25l-5-1.44-.06.98 4.68 1.5.4-.56z" color="#000" overflow="visible" enable-background="accumulate"/><path fill="#3465a4" d="M44.68 20.4l-5.2-1.5-.1 1.82 5.17 1.53z" color="#000" overflow="visible" enable-background="accumulate"/><path fill="#3465a4" d="M42.9 25.63l-5.4-1.72-.02.57-5.15-1.62-.03.6 4.98 1.7.18-.37 5.34 1.8z" color="#000" overflow="visible" enable-background="accumulate"/><path fill="#3465a4" d="M30.3 26.1l-.04-.9-5.1-1.85.02-.85-4.95-1.62-.06-2.25-4.77-1.54.13 2.65 4.75 1.56.02 1.4 4.83 1.62.02.84 4.67 1.6z" color="#000" overflow="visible" enable-background="accumulate"/><path fill="#3465a4" d="M15.56 19.7l-4.52-1.4.05 1.26 3.42 1.2z" color="#000" overflow="visible" enable-background="accumulate"/><path fill="#3465a4" d="M22.62 28.3v-.45l-5-1.78.05.87 4.72 1.66z" color="#000" overflow="visible" enable-background="accumulate"/><path fill="#3465a4" d="M17.6 25.75l-.08-1.12-4.8-1.63.05 1z" color="#000" overflow="visible" enable-background="accumulate"/><path d="M47.2 17.97l.63-5-1.4 2.78-.2 1.7-1.52 2.93-.17 1.94-1.65 3.34-.08.9-1.73 3.66.08-1.03-1.9 3.96.14-1.28-2.2 4.44-.26 3.56z" color="#000" overflow="visible" enable-background="accumulate"/><path fill="#173560" d="M37.97 12.3l.1-1.14-1.77 2.65V15z" color="#000" overflow="visible" enable-background="accumulate"/><path fill="#173560" d="M36.27 15.38l-1.93 2.9.05.66 1.9-3.03z" color="#000" overflow="visible" enable-background="accumulate"/><path d="M34.3 19.22L32.4 22.2v-.48l-2.12 3.44.05.94.37.06 1.63-2.66.05-.62 1.96-3.13z" color="#000" overflow="visible" enable-background="accumulate"/><path d="M29.6 17.78l.04-2.1-2.1 3-.04.67-2.32 3.25v.75l2.27-3.22.28.12z" color="#000" overflow="visible" enable-background="accumulate"/><path d="M24.97 14.38l.08-4.4-2.4 2.86v2.85l-2.45 2.96v2.28l2.53-3.03.02-.74z" color="#000" overflow="visible" enable-background="accumulate"/><path fill="#173560" d="M25.15 25.2l.03-.88-2.58 3.6.02.4.3.1z" color="#000" overflow="visible" enable-background="accumulate"/><path d="M20.33 22.72l-.1-1.4-2.7 3.43.1 1.38z" color="#000" overflow="visible" enable-background="accumulate"/><path d="M17.7 27.04l-.1-1.13-2.9 3.57.06 1.22z" color="#000" overflow="visible" enable-background="accumulate"/><path fill="#173560" d="M11.07 18.94l-2 2.03.58.28 1.44-1.62z" color="#000" overflow="visible" enable-background="accumulate"/><path d="M8.02 20.66l-.15-1.25-3.25 3.3.15 1.3z" color="#000" overflow="visible" enable-background="accumulate"/><path d="M12.64 22.38l-3.07 3.4.1 1.8 3.07-3.5z" color="#000" overflow="visible" enable-background="accumulate"/></g></svg>