<svg xmlns="http://www.w3.org/2000/svg" width="48" height="48" xmlns:xlink="http://www.w3.org/1999/xlink"><defs><linearGradient id="b" x1="219.174" x2="248.416" y1="455.632" y2="479.557" gradientTransform="translate(-216.016 -443.219)" gradientUnits="userSpaceOnUse"><stop offset="0" stop-color="#fff"/><stop offset=".074" stop-color="#FEF2DF"/><stop offset=".235" stop-color="#FCD18F"/><stop offset=".388" stop-color="#FAAF3E"/><stop offset="1" stop-color="#CE5C0B"/></linearGradient><linearGradient id="c" x1="222.849" x2="252.586" y1="459.717" y2="481.389" gradientUnits="userSpaceOnUse"><stop offset="0" stop-color="#fff"/><stop offset=".074" stop-color="#FEF2DF"/><stop offset=".235" stop-color="#FCD18F"/><stop offset=".388" stop-color="#FAAF3E"/><stop offset="1" stop-color="#CE5C0B"/></linearGradient><linearGradient id="d" x1="235.056" x2="240.632" y1="460.675" y2="481.961" gradientTransform="translate(-216.016 -443.219)" gradientUnits="userSpaceOnUse"><stop offset=".399" stop-color="#fff"/><stop offset=".561" stop-color="#FCFDFD"/><stop offset=".678" stop-color="#F3F7F8"/><stop offset=".782" stop-color="#E3ECEF"/><stop offset=".877" stop-color="#CDDDE2"/><stop offset=".966" stop-color="#B0CAD2"/><stop offset="1" stop-color="#A3C1CB"/></linearGradient><linearGradient id="a" x1="-1936.649" x2="-1949.212" y1="1282.36" y2="1282.36" gradientUnits="userSpaceOnUse" gradientTransform="matrix(-.5 -.866 -.866 .5 382.857 -1864.536)"><stop offset="0" stop-color="#FAAF3E"/><stop offset="1" stop-color="#E96712"/></linearGradient><linearGradient id="g" x1="225.629" x2="225.803" y1="453.475" y2="454.137" gradientUnits="userSpaceOnUse"><stop offset=".399" stop-color="#fff"/><stop offset=".561" stop-color="#FCFDFD"/><stop offset=".678" stop-color="#F3F7F8"/><stop offset=".782" stop-color="#E3ECEF"/><stop offset=".877" stop-color="#CDDDE2"/><stop offset=".966" stop-color="#B0CAD2"/><stop offset="1" stop-color="#A3C1CB"/></linearGradient><linearGradient id="e" x1="-1936.649" x2="-1949.212" y1="1282.36" y2="1282.36" gradientTransform="matrix(-.5 -.866 -.866 .5 166.841 -2307.755)" gradientUnits="userSpaceOnUse" xlink:href="#a"/><linearGradient id="f" x1="28.823" x2="35.566" y1="11.716" y2="20.47" gradientUnits="userSpaceOnUse" xlink:href="#a"/></defs><g><g><path fill="url(#b)" stroke="#7f390b" stroke-width="1.5" d="M17.77 9.9L33.1 6.67c.47-.1.9.22.93.7l2.37 27.48c.05.48-.3.95-.77 1.04l-30.94 8c-.48.08-.9-.23-.94-.7L1.3 13.92c-.02-.12 0-.24.03-.35l1.75-4.55 11.98-2.3 2.7 3.16z" stroke-linecap="round" stroke-linejoin="round" transform="translate(-.629 -5.918)"/><g transform="translate(-.629 -5.918) translate(-216.016 -443.219)"><linearGradient x1="222.849" x2="252.586" y1="459.717" y2="481.389" gradientUnits="userSpaceOnUse"><stop offset="0" stop-color="#fff"/><stop offset=".074" stop-color="#FEF2DF"/><stop offset=".235" stop-color="#FCD18F"/><stop offset=".388" stop-color="#FAAF3E"/><stop offset="1" stop-color="#CE5C0B"/></linearGradient><path fill="url(#c)" d="M249.04 450.2s-14.83 3.1-15.3 3.2c-.3-.33-2.7-3.13-2.7-3.13l-11.7 2.24-1.74 4.5V457.15l2.45 29.1s.23.45.23.45.5.1.5.1l30.7-7.92c.4-.07.68-.45.64-.85l-2.35-27.28s-.24-.44-.24-.44-.5-.1-.5-.1l-.08-.02.1.02zm-15.38 4.08s14.8-3.1 15.3-3.2c.03.5 2.33 27.02 2.33 27.02s-29.9 7.68-30.43 7.82c-.05-.54-2.43-28.7-2.43-28.74.04-.12 1.36-3.54 1.5-3.93.37-.07 10.32-1.98 10.78-2.06.28.32 2.7 3.13 2.7 3.13l.24-.05z"/></g><path fill="url(#d)" stroke="#525b66" stroke-width="1.5" d="M36.65 34.8c-.07.48-.53.97-1.02 1.1l-30.94 8c-.5.12-.86-.16-.8-.65L7 21.33c.06-.48.52-.97 1.02-1.1l30.93-8c.5-.1.85.17.78.65L36.65 34.8z" transform="translate(-.629 -5.918)"/><path fill="url(#e)" d="M32.6 26.25l-4.15-7.17s-1.73-2.16-4.22-3c-4.56-1.58-8.9-.14-8.9-.14l7.66-2.53s5.67-2.02 11.74-.66c3.85.86 5.4 3.14 5.4 3.14l2.6 4.5-10.15 5.87z" transform="translate(-.629 -5.918)"/><path fill="url(#f)" stroke="#590b08" d="M41.3 18.47L46.74 16c.25-.08.52.06.6.32.04.12.02.26-.04.37v-.02l-7.17 13.8c-.25.5-.84.67-1.3.42 0 0-13.73-7.33-13.7-7.32h-.03c-.1-.06-.2-.17-.24-.3-.08-.25.06-.52.32-.6l4.45-1.62c-2.74-5.63-9.02-6.12-13.7-5.35-.27.1-.47.17-.6.24l7.66-2.53c3.58-1.23 14.14-3.38 18.3 5.07z" transform="translate(-.629 -5.918)"/><path fill="none" stroke="#faaf3e" d="M38.87 24.1L25.5 16.94"/><path fill="none" stroke="#faaf3e" d="M29.8 14.97l-1.24-2.02"/><path fill="none" stroke="#faaf3e" d="M28.56 12.95c-1.55-2.47-3.4-3.62-8.53-4.2" stroke-linecap="round"/><path fill="url(#g)" stroke="#faaf3e" stroke-width="2" d="M4.6 11.56l10.2-1.95" transform="translate(-.629 -5.918)"/></g><g stroke="#204a87" stroke-width=".25" stroke-linejoin="bevel"><path fill="#5e92c8" d="M30.38 27.17l-2.55-.57-.03 2.37 4.13 1.83.65-.83-2.93-.77z" color="#000" overflow="visible" enable-background="accumulate"/><path fill="#99badc" d="M43.56 28.43l-4.3-.9-1.5 1.92 4.57 1.05z" color="#000" overflow="visible" enable-background="accumulate"/><path fill="#bcd1e9" d="M48 28.02l-4.37-1-1.4 1.95 4.53 1.08z" color="#000" overflow="visible" enable-background="accumulate"/><path fill="#729fcf" d="M35.33 27l-3.97-.85-1.6 1.75 4.16.98z" color="#000" overflow="visible" enable-background="accumulate"/><path fill="#a1c0df" d="M39.25 26.74l-3.97-.87-1.6 1.76 4.16.98z" color="#000" overflow="visible" enable-background="accumulate"/><path fill="#729fcf" d="M20.73 24.87l2.72.68-1.62 1.5-2.8-.74z" color="#000" overflow="visible" enable-background="accumulate"/><path fill="#b3cbe5" d="M27.78 25.83l-4-.87-2.13 1.87 4.1 1.05z" color="#000" overflow="visible" enable-background="accumulate"/><path fill="#729fcf" d="M40.53 33.33l.98-2.28-3.75-.9-1.64 2.1z" color="#000" overflow="visible" enable-background="accumulate"/><path fill="#99badc" d="M46.57 31.25l-4.44-1.1-1.5 2.15 4.6 1.14z" color="#000" overflow="visible" enable-background="accumulate"/><path fill="#729fcf" d="M37.77 29.8l-4.15-.96-1.76 1.98 4.25 1.05z" color="#000" overflow="visible" enable-background="accumulate"/><path fill="#729fcf" d="M21.65 27.03l-2.97-.77L16.56 28l3.63.88z" color="#000" overflow="visible" enable-background="accumulate"/><path fill="#729fcf" d="M21.7 27.06l-1.58 1.3 1.62.4z" color="#000" overflow="visible" enable-background="accumulate"/><path fill="none" d="M21.05 29.52l-.9-.25-1 .9.9.24z" color="#000" overflow="visible" enable-background="accumulate"/><path fill="#4581bf" d="M21.08 29.48l-4.5-1.17-3.83 3.18 2.76.85 4.57-1.92z" color="#000" overflow="visible" enable-background="accumulate"/><path fill="#729fcf" d="M20.03 30.4l-2.15-.58-2.4 2.1 4 1.02z" color="#000" overflow="visible" enable-background="accumulate"/><path fill="#91b4da" d="M25.77 29.93l-4.08-1L19.33 31l4.2 1.12z" color="#000" overflow="visible" enable-background="accumulate"/><path fill="#729fcf" d="M36 32.6l-4.16-1.12-1.6 1.87 4.1 1.5z" color="#000" overflow="visible" enable-background="accumulate"/><path fill="#729fcf" d="M40.2 34.06l-4.14-1.1-1.73 2.3 4.58 1.2z" color="#000" overflow="visible" enable-background="accumulate"/><path fill="#729fcf" d="M45.1 34.8l-4.6-1.13L38.9 36l4.73 1.25z" color="#000" overflow="visible" enable-background="accumulate"/><path fill="#729fcf" d="M43.52 37.94l-4.7-1.3-1.28 1.9 4.5 2.04z" color="#000" overflow="visible" enable-background="accumulate"/><path fill="#83abd5" d="M31.9 30.02L27.82 29l-2 2.05 4.2 1.12z" color="#000" overflow="visible" enable-background="accumulate"/><path fill="#729fcf" d="M30.02 32.65l-4.2-1.1-2.2 2.24 4.37 1.2z" color="#000" overflow="visible" enable-background="accumulate"/><path fill="#729fcf" d="M34.3 34.45l-4.33-1.2L28 35.6l4.48 1.27z" color="#000" overflow="visible" enable-background="accumulate"/><path fill="#729fcf" d="M38.64 36.9l-4.36-1.24-1.5 2.03 4.15 1.1.66-.32z" color="#000" overflow="visible" enable-background="accumulate"/><path fill="#85acd6" d="M42.08 39.85l-4.93-1.43-1.34 2.03 4.68 2.23z" color="#000" overflow="visible" enable-background="accumulate"/><path fill="#6294ca" d="M36.9 38.78l-4.44-1.23-1.67 2.17 4.05 1.16 1.03-.52z" color="#000" overflow="visible" enable-background="accumulate"/><path fill="#4e86c3" d="M32.07 38.05l-4.15-1.16-1.96 2.34 3.8 1.12 1.1-.7z" color="#000" overflow="visible" enable-background="accumulate"/><path fill="#6093c9" d="M27.9 36.3l-4.25-1.2-2.37 2.47 4.43 1.3z" color="#000" overflow="visible" enable-background="accumulate"/><path fill="#729fcf" d="M23.56 34.08l-4.17-1.14-2.45 2.35 4.3 1.22z" color="#000" overflow="visible" enable-background="accumulate"/><path fill="#5c90c8" d="M18.57 33.7l-3.04-.85-1.34 1.2 2.68.76.04.56z" color="#000" overflow="visible" enable-background="accumulate"/><path fill="#95b8db" d="M15.5 32.35l-3.84-1.12-1.05.87 2.1.6.1.88.98.27z" color="#000" overflow="visible" enable-background="accumulate"/><path fill="#afc9e3" d="M12.66 32.7l-4-1.13-2.9 2.3 4.05 1.24z" color="#000" overflow="visible" enable-background="accumulate"/><path fill="#97b9dc" d="M16.88 34.86l-4.06-1.28-2.88 2.46 4.22 1.33z" color="#000" overflow="visible" enable-background="accumulate"/><path fill="#729fcf" d="M21.3 37.34L17 36.07l-2.7 2.6 4.4 1.37z" color="#000" overflow="visible" enable-background="accumulate"/><path fill="#6093c9" d="M25.5 39.42l-4.15-1.23-2.62 2.75 4.67 1.44z" color="#000" overflow="visible" enable-background="accumulate"/><path fill="#729fcf" d="M29.72 40.33l-4-1.14-2.46 2.84 4.8 1.53z" color="#000" overflow="visible" enable-background="accumulate"/><path fill="#8bb0d8" d="M34.83 40.9l-4.52-1.32-2.22 3.06 5 1.5z" color="#000" overflow="visible" enable-background="accumulate"/><path fill="#a1c0df" d="M40.53 41.8l-5.2-1.56-2.1 3.15 5.36 1.63z" color="#000" overflow="visible" enable-background="accumulate"/><path fill="#3465a4" d="M38.36 47.65L38.6 45l-5.35-1.63-.1.75-5.05-1.53-.02.95-4.8-1.55.05.36-4.6-1.43.02-.9-4.5-1.4-.1-1.3-4.23-1.26-.13-.98-4.07-1.25.54 3.45z"/><path fill="#3465a4" d="M46.76 30.02L42.2 29l-.07 1.18 4.44 1.05z" color="#000" overflow="visible" enable-background="accumulate"/><path fill="#3465a4" d="M41.97 30.4l-4.2-.95v.73l3.72.85z" color="#000" overflow="visible" enable-background="accumulate"/><path fill="#3465a4" d="M37.82 28.6l-.07 1.22-4.15-.98.04-1.2z" color="#000" overflow="visible" enable-background="accumulate"/><path fill="#3465a4" d="M33.6 28.8l-3.86-.88-.07 1.6 2.8.64z" color="#000" overflow="visible" enable-background="accumulate"/><path fill="#3465a4" d="M25.75 27.88l.02 2.07-4.1-1.02-.02-2.12z" color="#000" overflow="visible" enable-background="accumulate"/><path fill="#3465a4" d="M21.7 28.75l-1.63-.4.1.53-3.6-.9v.36l4.48 1.14.62-.57z" color="#000" overflow="visible" enable-background="accumulate"/><path fill="#3465a4" d="M25.77 31.07l4.27 1.12-.02.45-4.2-1.05z" color="#000" overflow="visible" enable-background="accumulate"/><path fill="#3465a4" d="M31.86 30.82l-.02.7 4.27 1.08-.02-.73z" color="#000" overflow="visible" enable-background="accumulate"/><path fill="#3465a4" d="M40.5 33.33l-4.42-1.05-.04.7 4.13 1.1.34-.4z" color="#000" overflow="visible" enable-background="accumulate"/><path fill="#3465a4" d="M45.2 33.44l-4.6-1.1-.07 1.33 4.56 1.12z" color="#000" overflow="visible" enable-background="accumulate"/><path fill="#3465a4" d="M43.63 37.25L38.87 36l-.03.4-4.56-1.18-.02.44 4.4 1.25.16-.26 4.72 1.3z" color="#000" overflow="visible" enable-background="accumulate"/><path fill="#3465a4" d="M32.48 37.6l-.02-.67-4.52-1.34.02-.63-4.38-1.18-.04-1.66-4.22-1.1.1 1.93 4.2 1.14.03 1 4.27 1.2.02.6 4.13 1.17z" color="#000" overflow="visible" enable-background="accumulate"/><path fill="#3465a4" d="M19.46 32.92l-4-1 .05.9 3.04.88z" color="#000" overflow="visible" enable-background="accumulate"/><path fill="#3465a4" d="M25.7 39.2v-.33l-4.42-1.3.05.64 4.17 1.22z" color="#000" overflow="visible" enable-background="accumulate"/><path fill="#3465a4" d="M21.26 37.34l-.07-.82-4.25-1.18.04.73z" color="#000" overflow="visible" enable-background="accumulate"/><path d="M47.44 31.67l.55-3.65-1.24 2.03-.2 1.23-1.33 2.14-.16 1.42-1.46 2.44-.06.66L42 40.6l.08-.75-1.66 2.9.1-.94-1.93 3.25-.24 2.6z" color="#000" overflow="visible" enable-background="accumulate"/><path fill="#173560" d="M39.28 27.54l.1-.85-1.6 1.93v.87z" color="#000" overflow="visible" enable-background="accumulate"/><path fill="#173560" d="M37.77 29.77l-1.7 2.12.04.47 1.7-2.2z" color="#000" overflow="visible" enable-background="accumulate"/><path d="M36.04 32.58l-1.7 2.17v-.35l-1.88 2.5.04.7.32.04 1.44-1.94.04-.45 1.74-2.28z" color="#000" overflow="visible" enable-background="accumulate"/><path d="M31.86 31.53L31.9 30l-1.86 2.2-.02.47-2.06 2.37v.55l2-2.36.26.1z" color="#000" overflow="visible" enable-background="accumulate"/><path d="M27.78 29.04l.07-3.2-2.12 2.08V30l-2.17 2.17v1.66l2.24-2.2.02-.56z" color="#000" overflow="visible" enable-background="accumulate"/><path fill="#173560" d="M27.94 36.93l.02-.63-2.28 2.62.02.3.26.06z" color="#000" overflow="visible" enable-background="accumulate"/><path d="M23.68 35.13l-.1-1.02-2.4 2.5.1 1.02z" color="#000" overflow="visible" enable-background="accumulate"/><path d="M21.35 38.28l-.1-.82-2.55 2.6.05.9z" color="#000" overflow="visible" enable-background="accumulate"/><path fill="#173560" d="M15.5 32.37l-1.77 1.48.5.2 1.28-1.18z" color="#000" overflow="visible" enable-background="accumulate"/><path d="M12.8 33.63l-.14-.92-2.87 2.4.12.97z" color="#000" overflow="visible" enable-background="accumulate"/><path d="M16.88 34.88l-2.72 2.5.1 1.3 2.7-2.57z" color="#000" overflow="visible" enable-background="accumulate"/></g></g></svg>