<svg xmlns="http://www.w3.org/2000/svg" width="48" height="48"><g stroke-linejoin="bevel"><path fill="#3465a4" stroke="#204a87" stroke-width=".25" d="M8.05 15.14l2.23 2.64-.08-1.32 2.45 2.8-.2-4.9 2.8 3.02.17 4.74 2.98 3.4.1 3.28-3-3.56-.65.22-2.02-2.4v-.67l-2.5-2.95V18.4l-2.37-2.73z" color="#000" overflow="visible" enable-background="accumulate"/><path fill="#729fcf" stroke="#204a87" stroke-width=".25" d="M6.77 15.9l-.7-.93.04 1.14z" color="#000" overflow="visible" enable-background="accumulate"/><path fill="#729fcf" stroke="#204a87" stroke-width=".25" d="M16.2 13.56l2.86-.6-2.9-2.9z" color="#000" overflow="visible" enable-background="accumulate"/><path fill="#3465a4" stroke="#204a87" stroke-width=".25" d="M22.14 15.76l3.24 2.9-.04 5.1-3.25-3.3z" color="#000" overflow="visible" enable-background="accumulate"/><path fill="#3465a4" stroke="#204a87" stroke-width=".25" d="M18.58 32.18l-.1-2.9 3.3 3.82v3.2z" color="#000" overflow="visible" enable-background="accumulate"/><path fill="#3465a4" stroke="#204a87" stroke-width=".25" d="M31.84 26.3v-1.36l3.82 3.55-.1 1.3z" color="#000" overflow="visible" enable-background="accumulate"/><path fill="#729fcf" stroke="#204a87" stroke-width=".25" d="M11.56 34.25l7.06-2.02 3.16 4-7.24 2.14z" color="#000" overflow="visible" enable-background="accumulate"/><path fill="#3465a4" stroke="#204a87" stroke-width=".25" d="M28.85 14.44l5.88-1.27-.17 3.77-2.37.57z" color="#000" overflow="visible" enable-background="accumulate"/><path fill="#729fcf" stroke="#204a87" stroke-width=".25" d="M25.74 27.92l6.1-1.62 3.73 3.55-6.72 1.9z" color="#000" overflow="visible" enable-background="accumulate"/><path fill="#729fcf" stroke="#204a87" stroke-width=".25" d="M18.58 29.37l6.76-1.9 3.42 3.7-6.93 1.9z" color="#000" overflow="visible" enable-background="accumulate"/><path fill="#729fcf" stroke="#204a87" stroke-width=".25" d="M40.4 25.3l3.42-1.02 4.17 3.3-6.02 1.62z" color="#000" overflow="visible" enable-background="accumulate"/><path fill="#729fcf" stroke="#204a87" stroke-width=".25" d="M31.92 25.02l6.2-1.62 4 3.34-6.46 1.7z" color="#000" overflow="visible" enable-background="accumulate"/><path fill="#204a87" stroke="#204a87" stroke-width=".25" d="M38.47 23.7l5.57-1.44-.22 2.1-3.42.93z" color="#000" overflow="visible" enable-background="accumulate"/><path fill="#729fcf" stroke="#204a87" stroke-width=".25" d="M.2 17.38l1.66-.4.13 2.9z" color="#000" overflow="visible" enable-background="accumulate"/><path fill="#729fcf" stroke="#204a87" stroke-width=".25" d="M1.8 17.07l6.1-1.3 2.43 2.67-6.6 1.36z" color="#000" overflow="visible" enable-background="accumulate"/><path fill="#729fcf" stroke="#204a87" stroke-width=".25" d="M3.96 20.9l6.32-1.45 2.5 2.94-6.67 1.53z" color="#000" overflow="visible" enable-background="accumulate"/><path fill="#729fcf" stroke="#204a87" stroke-width=".25" d="M6.25 24.67c.17 0 6.58-1.45 6.58-1.45l2.02 2.24-6.1 2.46z" color="#000" overflow="visible" enable-background="accumulate"/><path fill="#729fcf" stroke="#204a87" stroke-width=".25" d="M8.66 26.96l6.9-1.67 2.98 3.5-7.03 1.84z" color="#000" overflow="visible" enable-background="accumulate"/><path fill="#3465a4" stroke="#204a87" stroke-width=".25" d="M.2 17.38l1.88 2.64-.22-2.95 1.97 2.77.1 1.1 2.27 3 .05.73 2.54 3.38-.1-1.1 2.86 3.6.04 3.7 2.9 4.04.1 2.62L.4 19.67z"/><path fill="#204a87" stroke="#204a87" stroke-width=".25" d="M6.2 23.93l6.67-1.45-.04.83-6.58 1.42z" color="#000" overflow="visible" enable-background="accumulate"/><path fill="#204a87" stroke="#204a87" stroke-width=".25" d="M3.8 19.75l6.62-1.36-.05 1.13-6.4 1.45z" color="#000" overflow="visible" enable-background="accumulate"/><path fill="#204a87" stroke="#204a87" stroke-width=".25" d="M15.3 17.25l6.8-1.5-.05 4.7-6.6 1.6z" color="#000" overflow="visible" enable-background="accumulate"/><path fill="#729fcf" stroke="#204a87" stroke-width=".25" d="M15.5 22.08l6.68-1.62 3.2 3.38-6.93 1.7z" color="#000" overflow="visible" enable-background="accumulate"/><path fill="#729fcf" stroke="#204a87" stroke-width=".25" d="M32.2 17.56l2.45-.62 3.73 3-6.4 1.57z" color="#000" overflow="visible" enable-background="accumulate"/><path fill="#729fcf" stroke="#204a87" stroke-width=".25" d="M38.3 19.93l2-.53 3.83 2.86-5.58 1.45-.4-.35z" color="#000" overflow="visible" enable-background="accumulate"/><path fill="#729fcf" stroke="#204a87" stroke-width=".25" d="M22.1 15.67l6.44-1.54 3.6 3.12-6.67 1.45z" color="#000" overflow="visible" enable-background="accumulate"/><path fill="#729fcf" stroke="#204a87" stroke-width=".25" d="M12.48 14.4l6.58-1.4 3 2.7-6.86 1.68z" color="#000" overflow="visible" enable-background="accumulate"/><path fill="#729fcf" stroke="#204a87" stroke-width=".25" d="M10.24 16.5l2.28-.57.13 3.38z" color="#000" overflow="visible" enable-background="accumulate"/><path fill="#729fcf" stroke="#204a87" stroke-width=".25" d="M8.1 15.14l4.47-.92-.1 1.8-2.23.53v1.14z" color="#000" overflow="visible" enable-background="accumulate"/><path fill="#729fcf" stroke="#204a87" stroke-width=".25" d="M6.9 16.02l-.87-1.05 5.7-1.14.4.43L8 15.2v.56z" color="#000" overflow="visible" enable-background="accumulate"/><path fill="#729fcf" stroke="#204a87" stroke-width=".25" d="M16.25 10.18l2.68-.66.1 3.43z" color="#000" overflow="visible" enable-background="accumulate"/><path fill="#729fcf" stroke="#204a87" stroke-width=".25" d="M18.93 7.15l6.4-1.2 3.3 2.47L22 9.74z" color="#000" overflow="visible" enable-background="accumulate"/><path fill="#729fcf" stroke="#204a87" stroke-width=".25" d="M28.6 11.2l2.75-.67 3.47 2.64-5.92 1.27-.4-.4z" color="#000" overflow="visible" enable-background="accumulate"/><path fill="#204a87" stroke="#204a87" stroke-width=".25" d="M22.14 15.7l-.18-5.96 6.76-1.32-.22 5.76z" color="#000" overflow="visible" enable-background="accumulate"/><path fill="#3465a4" stroke="#204a87" stroke-width=".25" d="M19.06 12.95l-.22-5.84 3.12 2.64.1 6.02z" color="#000" overflow="visible" enable-background="accumulate"/><path stroke="#fce94f" stroke-width=".5" d="M28.88 8.4l-6.9 1.22.08 6.1-6.8 1.62.2 4.85 9.13 1.77-6.1 1.53.03 3.3-6.97 1.86.03 3.62 7-1.97-.1-2.83 1-.22 8.53.97-.66-.72 5.07 1.2-3.63 1.05-.05-.66-7 2v3.15l-7.22 2.03.1 2.63 33-9.9.28-3.44-3.43.9-1.9-1.7 3.5-.9-2.07-1.6.1-2.17-5.5 1.52-.5-.4.24-3.28-6.37 1.56 4.34-3.25L34.67 17l-2.5.3v-.14l-.13.03-3.4-2.95.25-5.84zm-6.32 7.57l8.9 1.34-6.1 1.4-.02 4.68-2.37-3.5-.4-3.9zm18.4 10l.85.8-6.14 1.67-.03 1.25-1.94-1.6-.33-1.88 7.6-.25z" color="#000" overflow="visible" enable-background="accumulate"/></g></svg>