<svg xmlns="http://www.w3.org/2000/svg" width="48" height="48"><g><path fill="#729fcf" stroke="#204a87" stroke-width=".25" d="M47.93 24.55L19.75 17.8 3.42 28.36.1 31.14l37.35 12z" stroke-linejoin="bevel"/><path fill="#729fcf" stroke="#204a87" stroke-width=".25" d="M43.46 31.8l-5.48-1.6-2.07 3.05 5.77 1.66z" color="#000" stroke-linejoin="bevel" overflow="visible" enable-background="accumulate"/><path fill="#729fcf" stroke="#204a87" stroke-width=".25" d="M39.9 26.2l-5.15-1.4-1.24 1.66 4.6 2.48z" color="#000" stroke-linejoin="bevel" overflow="visible" enable-background="accumulate"/><path fill="#729fcf" stroke="#204a87" stroke-width=".25" d="M38.1 27.74l-5.3-1.5-2.28 2.95 5.64 1.44z" color="#000" stroke-linejoin="bevel" overflow="visible" enable-background="accumulate"/><path fill="#729fcf" stroke="#204a87" stroke-width=".25" d="M10.42 21.28l-1.28-.42-2.95 2.4 4.5 1.13z" color="#000" stroke-linejoin="bevel" overflow="visible" enable-background="accumulate"/><path fill="#729fcf" stroke="#204a87" stroke-width=".25" d="M35.66 12.87L30.4 11.8l-2.32 2.1 5.47 1.33z" color="#000" stroke-linejoin="bevel" overflow="visible" enable-background="accumulate"/><path fill="#729fcf" stroke="#204a87" stroke-width=".25" d="M33.47 16.14l-5.43-1.2-2.66 2.4 5.72 1.37z" color="#000" stroke-linejoin="bevel" overflow="visible" enable-background="accumulate"/><path fill="#729fcf" stroke="#204a87" stroke-width=".25" d="M19.58 10.3l-3.98-.83-2.7 1.9 4.82 1.04z" color="#000" stroke-linejoin="bevel" overflow="visible" enable-background="accumulate"/><path fill="#729fcf" stroke="#204a87" stroke-width=".25" d="M24.27 10.67l-3.9-.87-2.7 2.03 5.2 1.04z" color="#000" stroke-linejoin="bevel" overflow="visible" enable-background="accumulate"/><path fill="#729fcf" stroke="#204a87" stroke-width=".25" d="M30.36 10.88l-5.14-.95-2.53 2.15 5.34 1z" color="#000" stroke-linejoin="bevel" overflow="visible" enable-background="accumulate"/><path fill="#729fcf" stroke="#204a87" stroke-width=".25" d="M17.38 12.58c-.16 0-4.55-1-4.55-1L9.76 13.7l5.1 1.16z" color="#000" stroke-linejoin="bevel" overflow="visible" enable-background="accumulate"/><path fill="#729fcf" stroke="#204a87" stroke-width=".25" d="M22.2 13.4l-4.57-1-2.86 2.17 5.27 1.2z" color="#000" stroke-linejoin="bevel" overflow="visible" enable-background="accumulate"/><path fill="#729fcf" stroke="#204a87" stroke-width=".25" d="M27.95 14.07l-5.18-1.16-2.82 2.25 5.48 1.28z" color="#000" stroke-linejoin="bevel" overflow="visible" enable-background="accumulate"/><path fill="#3465a4" stroke="#204a87" stroke-width=".25" d="M35.95 33.25l.25-2.52-5.6-1.58.55-10.52-5.77-1.3.1-.94-5.6-1.3.03.83-5.17-1.36v.4l-5-1.27.94 10.64-4.43-1 .12 1.17 3.98 1.17.5-.4 3.6 1.06.83-.7 4.85 1.45-.08 1.04 4.4 1.36 1-1.12L30.56 32z" color="#000" stroke-linejoin="bevel" overflow="visible" enable-background="accumulate"/><path fill="#729fcf" stroke="#204a87" stroke-width=".25" d="M35.95 33.42l-5.43-1.53L28 35.02l5.8 1.74z" color="#000" stroke-linejoin="bevel" overflow="visible" enable-background="accumulate"/><path fill="#729fcf" stroke="#204a87" stroke-width=".25" d="M22.6 32.34l-5.1-1.53 2.8-2.85 4.2 1.24z" color="#000" stroke-linejoin="bevel" overflow="visible" enable-background="accumulate"/><path fill="#729fcf" stroke="#204a87" stroke-width=".25" d="M30.6 29.7l-5.3-1.46-2.65 2.94 5.47 1.62z" color="#000" stroke-linejoin="bevel" overflow="visible" enable-background="accumulate"/><path fill="#729fcf" stroke="#204a87" stroke-width=".25" d="M10.42 25.63L6.4 24.5 3.2 27l4.6 1.36z" color="#000" stroke-linejoin="bevel" overflow="visible" enable-background="accumulate"/><path fill="#729fcf" stroke="#204a87" stroke-width=".25" d="M14.48 26.33l-3.64-1.07-3.15 2.7 4.75 1.36z" color="#000" stroke-linejoin="bevel" overflow="visible" enable-background="accumulate"/><path fill="#729fcf" stroke="#204a87" stroke-width=".25" d="M20.04 27.04l-4.77-1.4-2.9 2.77 5 1.4z" color="#000" stroke-linejoin="bevel" overflow="visible" enable-background="accumulate"/><path fill="#3465a4" stroke="#204a87" stroke-width=".25" d="M33.5 16.22V15.2l-5.55-1.25.1 1.07z" color="#000" stroke-linejoin="bevel" overflow="visible" enable-background="accumulate"/><path fill="#3465a4" stroke="#204a87" stroke-width=".25" d="M28 14.07v-1l-5.4-1.1.13.98z" color="#000" stroke-linejoin="bevel" overflow="visible" enable-background="accumulate"/><path fill="#3465a4" stroke="#204a87" stroke-width=".25" d="M22.73 12.9l-5.18-1.1v.6l4.68 1.05z" color="#000" stroke-linejoin="bevel" overflow="visible" enable-background="accumulate"/><path fill="#3465a4" stroke="#204a87" stroke-width=".25" d="M17.55 12.33l-4.9-1.04.1.45 4.55.95z" color="#000" stroke-linejoin="bevel" overflow="visible" enable-background="accumulate"/><path fill="#3465a4" stroke="#204a87" stroke-width=".25" d="M33.8 37.56l-.04-.8L28.08 35l.04-2.2-5.5-1.62v1.24l-5.2-1.57-.08-1.08-4.97-1.36.08 1-4.8-1.45.08.5-4.52-1.4.18 1.36z" color="#000" stroke-linejoin="bevel" overflow="visible" enable-background="accumulate"/><path fill="#0d1e37" stroke="#204a87" stroke-width=".25" d="M34.83 24.8l.92-12-2.24 2.43-.03 1-2.32 2.44-.46 10.44 2.23-2.8.62.16z" color="#000" stroke-linejoin="bevel" overflow="visible" enable-background="accumulate"/><path fill="#0d1e37" stroke="#204a87" stroke-width=".25" d="M39.77 28.45l.12-2.2-1.83 2.86.04-1.4-1.98 3.03-.13 2.52 1.94-3.06.46.1z" color="#000" stroke-linejoin="bevel" overflow="visible" enable-background="accumulate"/><path fill="#0d1e37" stroke="#204a87" stroke-width=".25" d="M30.44 31.93l.13-2.24-2.5 3.14.05 2.1z" color="#000" stroke-linejoin="bevel" overflow="visible" enable-background="accumulate"/><path fill="#0d1e37" stroke="#204a87" stroke-width=".25" d="M20.16 28.03L20.08 27l-2.74 2.86.1 1z" color="#000" stroke-linejoin="bevel" overflow="visible" enable-background="accumulate"/><path fill="#0d1e37" stroke="#204a87" stroke-width=".25" d="M43.37 31.84l.04.7-1.8 3.32v-1.03z" color="#000" stroke-linejoin="bevel" overflow="visible" enable-background="accumulate"/><path fill="#0d1e37" stroke="#204a87" stroke-width=".25" d="M35.95 33.3l-.08 1.1-2.07 3.12v-.87z" color="#000" stroke-linejoin="bevel" overflow="visible" enable-background="accumulate"/><path fill="#3465a4" stroke="#204a87" stroke-width=".25" d="M41.55 35.9l-5.64-1.57.1-1.08 5.67 1.66z" color="#000" stroke-linejoin="bevel" overflow="visible" enable-background="accumulate"/><path fill="#0d1e37" stroke="#204a87" stroke-width=".25" d="M30.44 11.8l-.04-1-2.4 2.23.04.92z" color="#000" stroke-linejoin="bevel" overflow="visible" enable-background="accumulate"/><path fill="#0d1e37" stroke="#204a87" stroke-width=".25" d="M27.9 15.02l.1-.95-2.57 2.32.04.98z" color="#000" stroke-linejoin="bevel" overflow="visible" enable-background="accumulate"/><g fill="none"><path stroke="#eeeeec" stroke-width="2" d="M25.35 2.44c-3.27-.45-6.78-.64-9.9.46-2.08.73-5.9 1.75-5.35 3.9 1.1 4.14 8.67.3 12.83 1.4 3.04.8 5.58 4.54 8.64 3.8 2.45-.6 5.46-3.5 4.74-5.92-1.07-3.7-7.13-3.1-10.95-3.64z"/><path stroke="#ef2929" d="M25.35 2.44c-3.27-.45-6.78-.64-9.9.46-2.08.73-5.9 1.75-5.35 3.9 1.1 4.14 8.67.3 12.83 1.4 3.04.8 5.58 4.54 8.64 3.8 2.45-.6 5.46-3.5 4.74-5.92-1.07-3.7-7.13-3.1-10.95-3.64z"/></g></g></svg>