<svg xmlns="http://www.w3.org/2000/svg" width="48" height="48" xmlns:xlink="http://www.w3.org/1999/xlink"><defs><linearGradient id="b" x1="11.482" x2=".24" y1="18.736" y2="17.522" gradientTransform="translate(25.86 -17.958)" xlink:href="#a" gradientUnits="userSpaceOnUse"/><linearGradient id="a"><stop offset="0" stop-color="#115971"/><stop offset="1" stop-color="#2e3436"/></linearGradient><linearGradient id="c" x1="1.857" x2="11.004" y1="27.027" y2="33.241" gradientTransform="translate(25.86 -17.958)" xlink:href="#a" gradientUnits="userSpaceOnUse"/><linearGradient id="d" x1="6.136" x2="6.136" y1="47.793" y2="36.222" gradientTransform="translate(25.86 -17.958)" xlink:href="#a" gradientUnits="userSpaceOnUse"/><linearGradient id="e" x1="14.286" x2="23.21" y1="15.558" y2="21.201" gradientTransform="translate(25.86 -17.958)" xlink:href="#a" gradientUnits="userSpaceOnUse"/><linearGradient id="f" x1="22.825" x2="13.083" y1="27.173" y2="33.03" gradientTransform="translate(25.86 -17.958)" xlink:href="#a" gradientUnits="userSpaceOnUse"/><linearGradient id="g" x1="15.976" x2="20.422" y1="37.226" y2="47.868" gradientTransform="translate(25.86 -17.958)" xlink:href="#a" gradientUnits="userSpaceOnUse"/><linearGradient id="h" x1="35.52" x2="24.583" y1="6.845" y2="4.559" gradientTransform="translate(25.86 -17.958)" xlink:href="#a" gradientUnits="userSpaceOnUse"/><linearGradient id="i" x1="35.578" x2="25.38" y1="29.079" y2="31.007" gradientTransform="translate(25.86 -17.958)" xlink:href="#a" gradientUnits="userSpaceOnUse"/><linearGradient id="j" x1="44.608" x2="39.518" y1="10.778" y2=".778" gradientTransform="translate(25.86 -17.958)" xlink:href="#a" gradientUnits="userSpaceOnUse"/><linearGradient id="k" x1="45.48" x2="39.452" y1="13.341" y2="22.341" xlink:href="#a" gradientUnits="userSpaceOnUse" gradientTransform="translate(25.788 -17.072)"/><linearGradient id="l" x1="47.394" x2="35.424" y1="40.406" y2="43.691" gradientTransform="translate(25.86 -17.958)" xlink:href="#a" gradientUnits="userSpaceOnUse"/><linearGradient id="m" x1="23.391" x2="12.735" y1="4.956" y2="6.242" gradientTransform="translate(25.86 -17.958)" xlink:href="#a" gradientUnits="userSpaceOnUse"/><linearGradient id="n" x1="32.429" x2="28.976" y1="23.277" y2="12.492" gradientTransform="translate(25.86 -17.958)" xlink:href="#a" gradientUnits="userSpaceOnUse"/><linearGradient id="o" x1="33.616" x2="26.841" y1="47.05" y2="37.55" gradientTransform="translate(25.86 -17.958)" xlink:href="#a" gradientUnits="userSpaceOnUse"/><linearGradient id="p" x1="46.755" x2="38.024" y1="26.744" y2="33.53" gradientTransform="translate(25.86 -17.958)" xlink:href="#a" gradientUnits="userSpaceOnUse"/><linearGradient id="q" x1="3.049" x2="9.341" y1="1.131" y2="11.346" gradientTransform="translate(25.86 -17.958)" xlink:href="#a" gradientUnits="userSpaceOnUse"/></defs><g><g fill-rule="evenodd" stroke="#eeeeec"><path fill="url(#b)" d="M25.27-.76l7.64-5.7-.4 3.87 5.67.63-.54 5.16-5.66-.63-.4 3.87-6.3-7.2z" transform="translate(-26.415 17.93)"/><path fill="url(#c)" d="M37.8 15.8l-9.4 1.28 2.16-3.15-4.7-3.24 2.88-4.2 4.7 3.22 2.17-3.15 2.2 9.24z" transform="translate(-26.415 17.93)"/><path fill="url(#d)" d="M32.3 17.27l6.33 7.54-3.98-.16-.26 5.9-5.32-.23.26-5.88-3.98-.17 6.95-6.98z" transform="translate(-26.415 17.93)"/><path fill="url(#e)" d="M50.07 3.62l-9.03 1.92 1.98-3.35-4.66-3L41-5.25l4.66 2.98 1.97-3.35 2.44 9.25z" transform="translate(-26.415 17.93)"/><path fill="url(#f)" d="M38.18 15.47l2.93-9.24L43.1 9.6l5.03-2.93 2.63 4.5-5.04 2.94 1.95 3.38-9.47-2z" transform="translate(-26.415 17.93)"/><path fill="url(#g)" d="M46.8 30.6l-9.04-3.9 3.72-1.64-2.3-5.4 4.94-2.17 2.3 5.4 3.72-1.65-3.35 9.36z" transform="translate(-26.415 17.93)"/><path fill="url(#h)" d="M49.8-13.44l7.87-5.12-.66 3.83 5.5 1.02-.86 5.08-5.5-1.02-.66 3.83-5.67-7.64z" transform="translate(-26.415 17.93)"/><path fill="url(#i)" d="M50.15 13.2l5.52-7.1.63 3.57 5.32-.93.83 4.76-5.32.93.62 3.56-7.6-4.8z" transform="translate(-26.415 17.93)"/><path fill="url(#j)" d="M65.16-17.83l8.8 3.07-3.3 1.8 2.67 4.9-4.4 2.4-2.67-4.93-3.3 1.8 2.2-9.03z" transform="translate(-26.415 17.93)"/><path fill="url(#k)" d="M64.72 6.04l-1.38-9.12 3.1 2.06 3.07-4.63 4.14 2.74-3.07 4.62 3.1 2.06-8.95 2.26z" transform="translate(-26.415 17.93)"/><path fill="url(#l)" d="M60.54 25.96l5.63-8.78 1.1 4.06 6.05-1.64 1.46 5.4-6.05 1.65 1.1 4.06-9.3-4.74z" transform="translate(-26.415 17.93)"/><path fill="url(#m)" d="M37.68-11.52l5.92-6.9.45 3.64 5.43-.7.6 4.86-5.4.68.44 3.64-7.44-5.22z" transform="translate(-26.415 17.93)"/><path fill="url(#n)" d="M54.6-6.46l8.3 5.12-3.76 1.12 1.66 5.68-5.02 1.5-1.66-5.68-3.76 1.12 4.23-8.86z" transform="translate(-26.415 17.93)"/><path fill="url(#o)" d="M52.17 18.8l9.8 2.08-3.3 2.35 3.53 4.9-4.36 3.12-3.52-4.88-3.27 2.35 1.12-9.93z" transform="translate(-26.415 17.93)"/><path fill="url(#p)" d="M73.46 8.16L71.8 17.5l-2.34-3-4.5 3.5-3.13-4.04 4.5-3.5L64 7.44l9.46.72z" transform="translate(-26.415 17.93)"/><path fill="url(#q)" d="M35.76-6.08l-9.7-2.76L29.5-11l-3.2-5.14L30.9-19l3.2 5.15L37.57-16l-1.8 9.92z" transform="translate(-26.415 17.93)"/></g><g stroke="#204a87" stroke-width=".291" stroke-linejoin="bevel"><path fill="#5e92c8" d="M27.1 16.05l-2.3-.6-.02 2.5 3.7 1.9.6-.87-2.64-.8z" color="#000" overflow="visible" enable-background="accumulate"/><path fill="#99badc" d="M38.95 17.36l-3.87-.93-1.36 2 4.13 1.1z" color="#000" overflow="visible" enable-background="accumulate"/><path fill="#bcd1e9" d="M42.95 16.93l-3.93-1.05-1.26 2.06 4.07 1.12z" color="#000" overflow="visible" enable-background="accumulate"/><path fill="#729fcf" d="M31.55 15.88l-3.57-.9-1.44 1.83 3.74 1.04z" color="#000" overflow="visible" enable-background="accumulate"/><path fill="#a1c0df" d="M35.08 15.6l-3.57-.92-1.43 1.85 3.74 1.02z" color="#000" overflow="visible" enable-background="accumulate"/><path fill="#729fcf" d="M18.42 13.63l2.44.72-1.45 1.58-2.52-.8z" color="#000" overflow="visible" enable-background="accumulate"/><path fill="#b3cbe5" d="M24.76 14.63l-3.6-.9-1.92 1.96 3.7 1.1z" color="#000" overflow="visible" enable-background="accumulate"/><path fill="#729fcf" d="M36.23 22.5l.88-2.4-3.38-.92-1.47 2.2z" color="#000" overflow="visible" enable-background="accumulate"/><path fill="#99badc" d="M41.66 20.33l-4-1.15-1.33 2.25 4.12 1.2z" color="#000" overflow="visible" enable-background="accumulate"/><path fill="#729fcf" d="M33.74 18.8l-3.73-1-1.57 2.08 3.82 1.1z" color="#000" overflow="visible" enable-background="accumulate"/><path fill="#729fcf" d="M19.24 15.9l-2.67-.8-1.9 1.8 3.26.94z" color="#000" overflow="visible" enable-background="accumulate"/><path fill="#729fcf" d="M19.28 15.93l-1.4 1.36 1.44.4z" color="#000" overflow="visible" enable-background="accumulate"/><path fill="none" d="M18.7 18.5l-.8-.25-.9.93.8.26z" color="#000" overflow="visible" enable-background="accumulate"/><path fill="#4581bf" d="M18.73 18.46l-4.04-1.22-3.46 3.33 2.48.88 4.1-2z" color="#000" overflow="visible" enable-background="accumulate"/><path fill="#729fcf" d="M17.8 19.44l-1.94-.62-2.16 2.2 3.6 1.08z" color="#000" overflow="visible" enable-background="accumulate"/><path fill="#91b4da" d="M22.95 18.94l-3.67-1.05-2.1 2.17 3.76 1.17z" color="#000" overflow="visible" enable-background="accumulate"/><path fill="#729fcf" d="M32.16 21.74l-3.75-1.17-1.43 1.96 3.7 1.58z" color="#000" overflow="visible" enable-background="accumulate"/><path fill="#729fcf" d="M35.92 23.27l-3.7-1.15-1.57 2.4 4.12 1.27z" color="#000" overflow="visible" enable-background="accumulate"/><path fill="#729fcf" d="M40.33 24.06l-4.12-1.2-1.45 2.45 4.27 1.32z" color="#000" overflow="visible" enable-background="accumulate"/><path fill="#729fcf" d="M38.9 27.34l-4.2-1.36-1.16 2 4.04 2.14z" color="#000" overflow="visible" enable-background="accumulate"/><path fill="#83abd5" d="M28.45 19.04l-3.65-1.08L23 20.1l3.8 1.2z" color="#000" overflow="visible" enable-background="accumulate"/><path fill="#729fcf" d="M26.77 21.8L23 20.63 21 23l3.94 1.25z" color="#000" overflow="visible" enable-background="accumulate"/><path fill="#729fcf" d="M30.63 23.68l-3.9-1.27-1.77 2.5 4.02 1.32z" color="#000" overflow="visible" enable-background="accumulate"/><path fill="#729fcf" d="M34.52 26.24l-3.9-1.3-1.37 2.14 3.73 1.17.6-.33z" color="#000" overflow="visible" enable-background="accumulate"/><path fill="#85acd6" d="M37.62 29.35l-4.43-1.5-1.22 2.12 4.2 2.35z" color="#000" overflow="visible" enable-background="accumulate"/><path fill="#6294ca" d="M32.96 28.23l-4-1.3-1.5 2.28 3.66 1.23.92-.55z" color="#000" overflow="visible" enable-background="accumulate"/><path fill="#4e86c3" d="M28.62 27.46l-3.74-1.22-1.76 2.46 3.42 1.18 1-.72z" color="#000" overflow="visible" enable-background="accumulate"/><path fill="#6093c9" d="M24.86 25.62l-3.8-1.27-2.15 2.6 4 1.37z" color="#000" overflow="visible" enable-background="accumulate"/><path fill="#729fcf" d="M20.96 23.3l-3.75-1.2-2.18 2.47 3.87 1.3z" color="#000" overflow="visible" enable-background="accumulate"/><path fill="#5c90c8" d="M16.47 22.9l-2.73-.9-1.2 1.27 2.4.8.06.57z" color="#000" overflow="visible" enable-background="accumulate"/><path fill="#95b8db" d="M13.7 21.48l-3.44-1.17-.95.92 1.9.64.08.9.88.3z" color="#000" overflow="visible" enable-background="accumulate"/><path fill="#afc9e3" d="M11.16 21.84l-3.6-1.18-2.6 2.42 3.64 1.3z" color="#000" overflow="visible" enable-background="accumulate"/><path fill="#97b9dc" d="M14.95 24.1l-3.65-1.33-2.58 2.58 3.8 1.4z" color="#000" overflow="visible" enable-background="accumulate"/><path fill="#729fcf" d="M18.93 26.72l-3.87-1.34-2.42 2.73 3.96 1.44z" color="#000" overflow="visible" enable-background="accumulate"/><path fill="#6093c9" d="M22.7 28.9l-3.73-1.3-2.35 2.9 4.2 1.5z" color="#000" overflow="visible" enable-background="accumulate"/><path fill="#729fcf" d="M26.5 29.85l-3.6-1.2-2.2 3 4.3 1.6z" color="#000" overflow="visible" enable-background="accumulate"/><path fill="#8bb0d8" d="M31.1 30.45l-4.06-1.4-2 3.22 4.5 1.58z" color="#000" overflow="visible" enable-background="accumulate"/><path fill="#a1c0df" d="M36.23 31.4l-4.68-1.64-1.9 3.3 4.83 1.72z" color="#000" overflow="visible" enable-background="accumulate"/><path fill="#3465a4" d="M34.28 37.53l.22-2.77-4.82-1.72-.08.8-4.55-1.62-.02 1-4.3-1.62.03.38-4.14-1.5.02-.94-4.04-1.48-.1-1.34-3.8-1.34-.13-1.03-3.65-1.3.5 3.62z"/><path fill="#3465a4" d="M41.83 19.04l-4.1-1.08-.07 1.25 4 1.1z" color="#000" overflow="visible" enable-background="accumulate"/><path fill="#3465a4" d="M37.52 19.44l-3.78-1v.77l3.35.9z" color="#000" overflow="visible" enable-background="accumulate"/><path fill="#3465a4" d="M33.78 17.55l-.06 1.27L30 17.8l.03-1.27z" color="#000" overflow="visible" enable-background="accumulate"/><path fill="#3465a4" d="M30 17.77l-3.48-.93-.06 1.66 2.5.68z" color="#000" overflow="visible" enable-background="accumulate"/><path fill="#3465a4" d="M22.93 16.8l.02 2.17-3.7-1.08v-2.24z" color="#000" overflow="visible" enable-background="accumulate"/><path fill="#3465a4" d="M19.28 17.7l-1.45-.43.08.57-3.23-.93.02.37 4 1.2.56-.6z" color="#000" overflow="visible" enable-background="accumulate"/><path fill="#3465a4" d="M22.95 20.14l3.84 1.17-.03.5L23 20.7z" color="#000" overflow="visible" enable-background="accumulate"/><path fill="#3465a4" d="M28.43 19.88l-.02.74 3.85 1.12-.02-.76z" color="#000" overflow="visible" enable-background="accumulate"/><path fill="#3465a4" d="M36.2 22.5l-3.97-1.1-.05.75 3.72 1.15.3-.43z" color="#000" overflow="visible" enable-background="accumulate"/><path fill="#3465a4" d="M40.43 22.63l-4.14-1.15-.07 1.4 4.1 1.16z" color="#000" overflow="visible" enable-background="accumulate"/><path fill="#3465a4" d="M39.02 26.62l-4.3-1.3v.42l-4.1-1.25-.04.45 3.96 1.3.15-.27 4.23 1.36z" color="#000" overflow="visible" enable-background="accumulate"/><path fill="#3465a4" d="M28.98 26.98l-.02-.7-4.06-1.4.02-.65L21 23l-.06-1.74-3.8-1.17.1 2.02 3.8 1.2v1.05l3.84 1.25.02.64 3.72 1.22z" color="#000" overflow="visible" enable-background="accumulate"/><path fill="#3465a4" d="M17.27 22.08l-3.6-1.06.05.96 2.73.9z" color="#000" overflow="visible" enable-background="accumulate"/><path fill="#3465a4" d="M22.9 28.66v-.34l-4-1.36.05.67 3.76 1.27z" color="#000" overflow="visible" enable-background="accumulate"/><path fill="#3465a4" d="M18.9 26.72l-.07-.86-3.8-1.25.03.78z" color="#000" overflow="visible" enable-background="accumulate"/><path d="M42.44 20.76l.5-3.83-1.1 2.13-.18 1.3-1.2 2.24-.15 1.5-1.3 2.55-.07.7-1.37 2.8.06-.8-1.5 3.04.1-1-1.74 3.4-.2 2.73z" color="#000" overflow="visible" enable-background="accumulate"/><path fill="#173560" d="M35.1 16.43l.08-.9-1.42 2.05v.9z" color="#000" overflow="visible" enable-background="accumulate"/><path fill="#173560" d="M33.74 18.77L32.2 21l.05.5 1.5-2.32z" color="#000" overflow="visible" enable-background="accumulate"/><path d="M32.18 21.72L30.65 24v-.37l-1.7 2.63.06.72.3.05L30.57 25l.05-.48 1.55-2.4z" color="#000" overflow="visible" enable-background="accumulate"/><path d="M28.43 20.62l.04-1.6-1.68 2.3-.03.5-1.85 2.48v.58l1.8-2.47.23.1z" color="#000" overflow="visible" enable-background="accumulate"/><path d="M24.76 18l.06-3.37-1.9 2.2v2.18l-1.96 2.3v1.73l2-2.32.04-.56z" color="#000" overflow="visible" enable-background="accumulate"/><path fill="#173560" d="M24.9 26.3l.02-.68-2.05 2.75.02.3.22.08z" color="#000" overflow="visible" enable-background="accumulate"/><path d="M21.07 24.4L21 23.32l-2.17 2.63.08 1.06z" color="#000" overflow="visible" enable-background="accumulate"/><path d="M18.97 27.7l-.08-.86-2.3 2.73.04.93z" color="#000" overflow="visible" enable-background="accumulate"/><path fill="#173560" d="M13.7 21.5l-1.58 1.56.45.2 1.15-1.23z" color="#000" overflow="visible" enable-background="accumulate"/><path d="M11.28 22.82l-.12-.96-2.6 2.5.14 1.02z" color="#000" overflow="visible" enable-background="accumulate"/><path d="M14.95 24.13l-2.44 2.6.1 1.38 2.44-2.67z" color="#000" overflow="visible" enable-background="accumulate"/></g></g></svg>