<svg xmlns="http://www.w3.org/2000/svg" width="48" height="48"><g><g stroke="#204a87" stroke-width=".226" stroke-linejoin="bevel"><path fill="#5e92c8" d="M26.8 14.35l-2.7-.6v2.5l4.32 1.9.68-.86-3.07-.82z" color="#000" overflow="visible" enable-background="accumulate"/><path fill="#99badc" d="M40.64 15.67l-4.52-.94-1.6 2.02 4.83 1.1z" color="#000" overflow="visible" enable-background="accumulate"/><path fill="#bcd1e9" d="M45.32 15.24l-4.6-1.06-1.47 2.06L44 17.37z" color="#000" overflow="visible" enable-background="accumulate"/><path fill="#729fcf" d="M32 14.18l-4.18-.9-1.67 1.84 4.36 1.03z" color="#000" overflow="visible" enable-background="accumulate"/><path fill="#a1c0df" d="M36.12 13.9l-4.17-.92-1.68 1.85 4.36 1.03z" color="#000" overflow="visible" enable-background="accumulate"/><path fill="#729fcf" d="M16.66 11.93l2.85.72-1.7 1.58-2.94-.8z" color="#000" overflow="visible" enable-background="accumulate"/><path fill="#b3cbe5" d="M24.06 12.94l-4.2-.92L17.62 14l4.33 1.1z" color="#000" overflow="visible" enable-background="accumulate"/><path fill="#729fcf" d="M37.46 20.82l1.03-2.4-3.97-.93-1.72 2.2z" color="#000" overflow="visible" enable-background="accumulate"/><path fill="#99badc" d="M43.8 18.64l-4.67-1.15-1.55 2.24 4.8 1.2z" color="#000" overflow="visible" enable-background="accumulate"/><path fill="#729fcf" d="M34.56 17.1l-4.36-1-1.85 2.1 4.46 1.1z" color="#000" overflow="visible" enable-background="accumulate"/><path fill="#729fcf" d="M17.6 14.2l-3.1-.8-2.23 1.8 3.8.95z" color="#000" overflow="visible" enable-background="accumulate"/><path fill="#729fcf" d="M17.66 14.23L16 15.6l1.7.4z" color="#000" overflow="visible" enable-background="accumulate"/><path fill="none" d="M17 16.82l-.94-.26-1.06.93.94.25z" color="#000" overflow="visible" enable-background="accumulate"/><path fill="#4581bf" d="M17.02 16.77l-4.73-1.22-4.03 3.33 2.9.9 4.8-2.03z" color="#000" overflow="visible" enable-background="accumulate"/><path fill="#729fcf" d="M15.9 17.75l-2.24-.62-2.52 2.2 4.2 1.1z" color="#000" overflow="visible" enable-background="accumulate"/><path fill="#91b4da" d="M21.95 17.25l-4.3-1.05-2.46 2.18 4.4 1.17z" color="#000" overflow="visible" enable-background="accumulate"/><path fill="#729fcf" d="M32.7 20.06l-4.37-1.18-1.68 1.97 4.3 1.58z" color="#000" overflow="visible" enable-background="accumulate"/><path fill="#729fcf" d="M37.1 21.6l-4.34-1.16-1.82 2.4 4.82 1.27z" color="#000" overflow="visible" enable-background="accumulate"/><path fill="#729fcf" d="M42.25 22.38l-4.82-1.2-1.7 2.45 5 1.32z" color="#000" overflow="visible" enable-background="accumulate"/><path fill="#729fcf" d="M40.6 25.67l-4.94-1.37-1.34 2 4.72 2.15z" color="#000" overflow="visible" enable-background="accumulate"/><path fill="#83abd5" d="M28.37 17.35l-4.26-1.08-2.1 2.16 4.43 1.17z" color="#000" overflow="visible" enable-background="accumulate"/><path fill="#729fcf" d="M26.4 20.1L22 18.95l-2.32 2.35 4.6 1.27z" color="#000" overflow="visible" enable-background="accumulate"/><path fill="#729fcf" d="M30.92 22l-4.56-1.27-2.06 2.5 4.7 1.3z" color="#000" overflow="visible" enable-background="accumulate"/><path fill="#729fcf" d="M35.47 24.56l-4.58-1.3-1.6 2.14 4.37 1.18.7-.34z" color="#000" overflow="visible" enable-background="accumulate"/><path fill="#85acd6" d="M39.1 27.68l-5.2-1.5-1.4 2.12 4.9 2.35z" color="#000" overflow="visible" enable-background="accumulate"/><path fill="#6294ca" d="M33.65 26.55l-4.68-1.3-1.75 2.3 4.27 1.2 1.07-.54z" color="#000" overflow="visible" enable-background="accumulate"/><path fill="#4e86c3" d="M28.57 25.8l-4.36-1.24-2.06 2.47 4 1.18 1.16-.7z" color="#000" overflow="visible" enable-background="accumulate"/><path fill="#6093c9" d="M24.18 23.94l-4.46-1.27-2.5 2.6 4.66 1.38z" color="#000" overflow="visible" enable-background="accumulate"/><path fill="#729fcf" d="M19.63 21.6l-4.4-1.18-2.55 2.46 4.53 1.3z" color="#000" overflow="visible" enable-background="accumulate"/><path fill="#5c90c8" d="M14.38 21.2l-3.2-.88-1.4 1.27 2.83.78.05.58z" color="#000" overflow="visible" enable-background="accumulate"/><path fill="#95b8db" d="M11.14 19.8L7.12 18.6l-1.1.9 2.2.66.1.9 1.03.3z" color="#000" overflow="visible" enable-background="accumulate"/><path fill="#afc9e3" d="M8.17 20.15l-4.2-1.17L.95 21.4l4.24 1.3z" color="#000" overflow="visible" enable-background="accumulate"/><path fill="#97b9dc" d="M12.6 22.43L8.35 21.1l-3.02 2.58 4.43 1.4z" color="#000" overflow="visible" enable-background="accumulate"/><path fill="#729fcf" d="M17.26 25.04l-4.53-1.34-2.83 2.73 4.62 1.44z" color="#000" overflow="visible" enable-background="accumulate"/><path fill="#6093c9" d="M21.66 27.22l-4.36-1.3-2.75 2.9 4.9 1.52z" color="#000" overflow="visible" enable-background="accumulate"/><path fill="#729fcf" d="M26.1 28.18l-4.22-1.2-2.56 3 5.03 1.6z" color="#000" overflow="visible" enable-background="accumulate"/><path fill="#8bb0d8" d="M31.47 28.78l-4.75-1.4-2.35 3.22 5.27 1.6z" color="#000" overflow="visible" enable-background="accumulate"/><path fill="#a1c0df" d="M37.46 29.74L32 28.1l-2.2 3.3 5.62 1.72z" color="#000" overflow="visible" enable-background="accumulate"/><path fill="#3465a4" d="M35.18 35.88l.26-2.78-5.63-1.73-.08.8-5.32-1.6-.03 1-5.03-1.64.05.4-4.85-1.52.02-.93-4.72-1.5-.1-1.33L5.3 23.7l-.15-1.03-4.26-1.3.56 3.62z"/><path fill="#3465a4" d="M44 17.35l-4.8-1.08-.07 1.24 4.68 1.12z" color="#000" overflow="visible" enable-background="accumulate"/><path fill="#3465a4" d="M38.97 17.75l-4.4-1v.76l3.9.9z" color="#000" overflow="visible" enable-background="accumulate"/><path fill="#3465a4" d="M34.6 15.86l-.07 1.27-4.36-1.03.05-1.27z" color="#000" overflow="visible" enable-background="accumulate"/><path fill="#3465a4" d="M30.17 16.08l-4.05-.94-.07 1.67 2.93.7z" color="#000" overflow="visible" enable-background="accumulate"/><path fill="#3465a4" d="M21.93 15.1l.02 2.18-4.3-1.08-.04-2.23z" color="#000" overflow="visible" enable-background="accumulate"/><path fill="#3465a4" d="M17.66 16l-1.7-.43.1.58-3.8-.94.03.37 4.7 1.2.64-.6z" color="#000" overflow="visible" enable-background="accumulate"/><path fill="#3465a4" d="M21.95 18.45l4.48 1.17-.02.48L22 19z" color="#000" overflow="visible" enable-background="accumulate"/><path fill="#3465a4" d="M28.35 18.2l-.02.73 4.48 1.13-.02-.77z" color="#000" overflow="visible" enable-background="accumulate"/><path fill="#3465a4" d="M37.43 20.82l-4.65-1.1-.04.74 4.33 1.15.36-.42z" color="#000" overflow="visible" enable-background="accumulate"/><path fill="#3465a4" d="M42.37 20.94l-4.84-1.15-.07 1.38 4.8 1.18z" color="#000" overflow="visible" enable-background="accumulate"/><path fill="#3465a4" d="M40.72 24.95l-5-1.32-.04.43-4.8-1.25v.47l4.6 1.32.18-.3 4.96 1.37z" color="#000" overflow="visible" enable-background="accumulate"/><path fill="#3465a4" d="M29 25.3l-.03-.7-4.74-1.4.02-.65-4.6-1.25-.05-1.72-4.43-1.18.12 2.04 4.4 1.2.02 1.05 4.5 1.24v.65l4.35 1.2z" color="#000" overflow="visible" enable-background="accumulate"/><path fill="#3465a4" d="M15.3 20.4l-4.18-1.06.05.96 3.2.9z" color="#000" overflow="visible" enable-background="accumulate"/><path fill="#3465a4" d="M21.88 26.98v-.33l-4.65-1.37.05.67 4.38 1.27z" color="#000" overflow="visible" enable-background="accumulate"/><path fill="#3465a4" d="M17.2 25.04l-.06-.86-4.46-1.25.05.77z" color="#000" overflow="visible" enable-background="accumulate"/><path d="M44.72 19.07l.57-3.83-1.3 2.13-.2 1.3-1.4 2.25-.17 1.5-1.54 2.55-.08.7-1.6 2.8.07-.8-1.76 3.05.12-.98-2.04 3.4-.24 2.74z" color="#000" overflow="visible" enable-background="accumulate"/><path fill="#173560" d="M36.14 14.73l.1-.88-1.66 2.03v.92z" color="#000" overflow="visible" enable-background="accumulate"/><path fill="#173560" d="M34.56 17.08l-1.8 2.23.05.52 1.78-2.33z" color="#000" overflow="visible" enable-background="accumulate"/><path d="M32.74 20.03l-1.8 2.28v-.35l-1.97 2.64.05.7.34.05 1.5-2.03.06-.48 1.82-2.4z" color="#000" overflow="visible" enable-background="accumulate"/><path d="M28.35 18.93l.05-1.6-1.97 2.3-.02.5-2.15 2.5v.57l2.1-2.47.28.1z" color="#000" overflow="visible" enable-background="accumulate"/><path d="M24.06 16.32l.07-3.38-2.23 2.2v2.18l-2.27 2.28v1.75l2.35-2.32.02-.58z" color="#000" overflow="visible" enable-background="accumulate"/><path fill="#173560" d="M24.23 24.6l.02-.66-2.4 2.76.03.3.26.08z" color="#000" overflow="visible" enable-background="accumulate"/><path d="M19.75 22.72l-.1-1.08-2.5 2.64.08 1.05z" color="#000" overflow="visible" enable-background="accumulate"/><path d="M17.3 26.03l-.1-.87-2.68 2.74.05.93z" color="#000" overflow="visible" enable-background="accumulate"/><path fill="#173560" d="M11.14 19.82L9.3 21.37l.53.22 1.34-1.26z" color="#000" overflow="visible" enable-background="accumulate"/><path d="M8.32 21.13l-.15-.95-3.02 2.5.15 1.02z" color="#000" overflow="visible" enable-background="accumulate"/><path d="M12.6 22.45l-2.85 2.62.1 1.36 2.85-2.68z" color="#000" overflow="visible" enable-background="accumulate"/></g><g fill="none" stroke="#fff" stroke-width="1.808" stroke-linecap="round"><path d="M1.15 17.65L45.1 30.23"/><path d="M6.74 14.56l40.1 9.5"/><path d="M4.45 32.9L29.13 8.07"/><path d="M21.53 37.1L39.3 10.97"/></g><path fill="none" stroke="#ef2929" d="M1.15 17.65L45.1 30.23" stroke-dasharray="1.99999999, 0.99999999"/><path fill="none" stroke="#ef2929" d="M6.74 14.56l40.1 9.5" stroke-dasharray="1.99999999, 0.99999999"/><path fill="none" stroke="#ef2929" d="M4.45 32.9L29.13 8.07" stroke-dasharray="1.99999999, 0.99999999"/><path fill="none" stroke="#ef2929" d="M21.53 37.1L39.3 10.97" stroke-dasharray="1.99999999, 0.99999999"/></g></svg>