<svg xmlns="http://www.w3.org/2000/svg" width="48" height="48"><g><g stroke="#204a87" stroke-width=".25" stroke-linejoin="bevel"><path fill="#5e92c8" d="M27.9 24.62l-2.88-.64-.02 2.68 4.67 2.07.73-.94-3.3-.88z" color="#000" overflow="visible" enable-background="accumulate"/><path fill="#99badc" d="M42.83 26.04l-4.88-1-1.7 2.16 5.18 1.2z" color="#000" overflow="visible" enable-background="accumulate"/><path fill="#bcd1e9" d="M47.86 25.58l-4.96-1.14-1.57 2.22 5.1 1.22z" color="#000" overflow="visible" enable-background="accumulate"/><path fill="#729fcf" d="M33.5 24.44l-4.48-.98-1.8 2 4.7 1.1z" color="#000" overflow="visible" enable-background="accumulate"/><path fill="#a1c0df" d="M37.95 24.13l-4.5-.98-1.8 2 4.7 1.1z" color="#000" overflow="visible" enable-background="accumulate"/><path fill="#729fcf" d="M17 22.02l3.07.77-1.83 1.7-3.17-.86z" color="#000" overflow="visible" enable-background="accumulate"/><path fill="#b3cbe5" d="M24.97 23.1l-4.5-.98-2.44 2.12 4.65 1.18z" color="#000" overflow="visible" enable-background="accumulate"/><path fill="#729fcf" d="M39.4 31.6l1.1-2.6-4.25-1-1.86 2.38z" color="#000" overflow="visible" enable-background="accumulate"/><path fill="#99badc" d="M46.23 29.24L41.2 28l-1.68 2.43 5.2 1.3z" color="#000" overflow="visible" enable-background="accumulate"/><path fill="#729fcf" d="M36.27 27.6l-4.7-1.1-1.98 2.25 4.8 1.2z" color="#000" overflow="visible" enable-background="accumulate"/><path fill="#729fcf" d="M18.03 24.47l-3.35-.88-2.4 1.95 4.1 1z" color="#000" overflow="visible" enable-background="accumulate"/><path fill="#729fcf" d="M18.08 24.5l-1.78 1.47 1.84.43z" color="#000" overflow="visible" enable-background="accumulate"/><path fill="none" d="M17.36 27.28l-1-.28-1.14 1 1 .3z" color="#000" overflow="visible" enable-background="accumulate"/><path fill="#4581bf" d="M17.4 27.23l-5.1-1.32-4.33 3.6 3.12.96 5.15-2.17z" color="#000" overflow="visible" enable-background="accumulate"/><path fill="#729fcf" d="M16.2 28.3l-2.42-.68-2.7 2.37 4.5 1.15z" color="#000" overflow="visible" enable-background="accumulate"/><path fill="#91b4da" d="M22.7 27.75l-4.62-1.14-2.65 2.36 4.74 1.26z" color="#000" overflow="visible" enable-background="accumulate"/><path fill="#729fcf" d="M34.3 30.77l-4.74-1.27-1.8 2.12 4.64 1.7z" color="#000" overflow="visible" enable-background="accumulate"/><path fill="#729fcf" d="M39 32.42l-4.66-1.24-1.96 2.58 5.18 1.37z" color="#000" overflow="visible" enable-background="accumulate"/><path fill="#729fcf" d="M44.55 33.27l-5.18-1.3-1.83 2.64 5.36 1.43z" color="#000" overflow="visible" enable-background="accumulate"/><path fill="#729fcf" d="M42.77 36.8l-5.3-1.47L36 37.5l5.1 2.3z" color="#000" overflow="visible" enable-background="accumulate"/><path fill="#83abd5" d="M29.62 27.85l-4.6-1.16-2.27 2.3 4.78 1.27z" color="#000" overflow="visible" enable-background="accumulate"/><path fill="#729fcf" d="M27.5 30.82l-4.75-1.24-2.5 2.53 4.95 1.37z" color="#000" overflow="visible" enable-background="accumulate"/><path fill="#729fcf" d="M32.35 32.85l-4.9-1.36-2.22 2.67 5.06 1.42z" color="#000" overflow="visible" enable-background="accumulate"/><path fill="#729fcf" d="M37.25 35.62l-4.92-1.4-1.7 2.3 4.7 1.26.74-.36z" color="#000" overflow="visible" enable-background="accumulate"/><path fill="#85acd6" d="M41.15 38.97l-5.57-1.63-1.53 2.3 5.3 2.53z" color="#000" overflow="visible" enable-background="accumulate"/><path fill="#6294ca" d="M35.3 37.76l-5.04-1.4-1.88 2.45 4.6 1.33 1.15-.6z" color="#000" overflow="visible" enable-background="accumulate"/><path fill="#4e86c3" d="M29.82 36.93l-4.7-1.3-2.2 2.64 4.3 1.27 1.24-.78z" color="#000" overflow="visible" enable-background="accumulate"/><path fill="#6093c9" d="M25.1 34.94l-4.8-1.36-2.68 2.8 5 1.48z" color="#000" overflow="visible" enable-background="accumulate"/><path fill="#729fcf" d="M20.2 32.44l-4.72-1.3-2.76 2.67 4.87 1.4z" color="#000" overflow="visible" enable-background="accumulate"/><path fill="#5c90c8" d="M14.55 32l-3.43-.95-1.52 1.37 3.04.85.05.62z" color="#000" overflow="visible" enable-background="accumulate"/><path fill="#95b8db" d="M11.07 30.48l-4.34-1.26-1.18.98 2.37.7.1.97 1.1.3z" color="#000" overflow="visible" enable-background="accumulate"/><path fill="#afc9e3" d="M7.87 30.87L3.35 29.6.08 32.2l4.56 1.4z" color="#000" overflow="visible" enable-background="accumulate"/><path fill="#97b9dc" d="M12.64 33.32l-4.6-1.45-3.24 2.8 4.77 1.5z" color="#000" overflow="visible" enable-background="accumulate"/><path fill="#729fcf" d="M17.65 36.13l-4.88-1.44-3.04 2.93 4.97 1.55z" color="#000" overflow="visible" enable-background="accumulate"/><path fill="#6093c9" d="M22.4 38.48l-4.7-1.4-2.97 3.13 5.3 1.63z" color="#000" overflow="visible" enable-background="accumulate"/><path fill="#729fcf" d="M27.17 39.5l-4.55-1.28-2.76 3.23 5.42 1.72z" color="#000" overflow="visible" enable-background="accumulate"/><path fill="#8bb0d8" d="M32.94 40.16l-5.1-1.5-2.53 3.46 5.68 1.7z" color="#000" overflow="visible" enable-background="accumulate"/><path fill="#a1c0df" d="M39.4 41.2l-5.9-1.8-2.36 3.57 6.06 1.86z" color="#000" overflow="visible" enable-background="accumulate"/><path fill="#3465a4" d="M36.94 47.8l.3-3-6.08-1.86-.1.85-5.73-1.73-.02 1.08-5.4-1.76.04.4-5.2-1.62.02-1-5.1-1.6-.1-1.45-4.8-1.44-.14-1.12-4.6-1.4.62 3.9z"/><path fill="#3465a4" d="M46.44 27.85l-5.16-1.16-.08 1.33 5.03 1.2z" color="#000" overflow="visible" enable-background="accumulate"/><path fill="#3465a4" d="M41.02 28.3l-4.75-1.1v.83l4.2.95z" color="#000" overflow="visible" enable-background="accumulate"/><path fill="#3465a4" d="M36.32 26.25l-.07 1.37-4.7-1.1.05-1.38z" color="#000" overflow="visible" enable-background="accumulate"/><path fill="#3465a4" d="M31.55 26.48l-4.36-1-.1 1.8 3.16.72z" color="#000" overflow="visible" enable-background="accumulate"/><path fill="#3465a4" d="M22.68 25.42l.02 2.35-4.64-1.16-.03-2.4z" color="#000" overflow="visible" enable-background="accumulate"/><path fill="#3465a4" d="M18.08 26.4l-1.83-.46.1.62-4.07-1 .03.38 5.06 1.3.7-.65z" color="#000" overflow="visible" enable-background="accumulate"/><path fill="#3465a4" d="M22.7 29.04l4.83 1.26-.03.52-4.75-1.2z" color="#000" overflow="visible" enable-background="accumulate"/><path fill="#3465a4" d="M29.6 28.75l-.04.8 4.83 1.22-.04-.83z" color="#000" overflow="visible" enable-background="accumulate"/><path fill="#3465a4" d="M39.37 31.6l-5-1.2-.06.8L39 32.44l.4-.46z" color="#000" overflow="visible" enable-background="accumulate"/><path fill="#3465a4" d="M44.68 31.72l-5.2-1.24-.1 1.5 5.17 1.26z" color="#000" overflow="visible" enable-background="accumulate"/><path fill="#3465a4" d="M42.9 36.03l-5.4-1.42-.02.47-5.15-1.34-.03.5 4.98 1.4.18-.3 5.34 1.47z" color="#000" overflow="visible" enable-background="accumulate"/><path fill="#3465a4" d="M30.3 36.42l-.04-.75-5.1-1.53.02-.7-4.95-1.33-.06-1.85-4.77-1.27.13 2.2 4.75 1.3.02 1.12 4.83 1.34.02.7 4.67 1.32z" color="#000" overflow="visible" enable-background="accumulate"/><path fill="#3465a4" d="M15.56 31.13L11.04 30 11.1 31l3.42.98z" color="#000" overflow="visible" enable-background="accumulate"/><path fill="#3465a4" d="M22.62 38.22v-.36l-5-1.47.05.7 4.72 1.38z" color="#000" overflow="visible" enable-background="accumulate"/><path fill="#3465a4" d="M17.6 36.13l-.08-.93-4.8-1.34.05.83z" color="#000" overflow="visible" enable-background="accumulate"/><path d="M47.2 29.7l.63-4.12-1.4 2.3-.2 1.4-1.52 2.4-.17 1.6-1.65 2.77-.08.75-1.73 3.02.08-.85-1.9 3.28.14-1.06-2.2 3.65-.26 2.94z" color="#000" overflow="visible" enable-background="accumulate"/><path fill="#173560" d="M37.97 25.04l.1-.96-1.77 2.2v.98z" color="#000" overflow="visible" enable-background="accumulate"/><path fill="#173560" d="M36.27 27.57l-1.93 2.4.05.54 1.9-2.5z" color="#000" overflow="visible" enable-background="accumulate"/><path d="M34.3 30.74L32.4 33.2v-.4l-2.12 2.84.05.78.37.05 1.63-2.2.05-.5 1.96-2.6z" color="#000" overflow="visible" enable-background="accumulate"/><path d="M29.6 29.55l.04-1.73-2.1 2.48-.04.54-2.32 2.7v.6l2.27-2.65.28.1z" color="#000" overflow="visible" enable-background="accumulate"/><path d="M24.97 26.74l.08-3.64-2.4 2.38v2.34l-2.45 2.45v1.9l2.53-2.5.02-.63z" color="#000" overflow="visible" enable-background="accumulate"/><path fill="#173560" d="M25.15 35.67l.03-.73-2.58 2.97.02.35.3.07z" color="#000" overflow="visible" enable-background="accumulate"/><path d="M20.33 33.63l-.1-1.16-2.7 2.84.1 1.14z" color="#000" overflow="visible" enable-background="accumulate"/><path d="M17.7 37.2l-.1-.94-2.9 2.94.06 1z" color="#000" overflow="visible" enable-background="accumulate"/><path fill="#173560" d="M11.07 30.5l-2 1.68.58.24 1.44-1.35z" color="#000" overflow="visible" enable-background="accumulate"/><path d="M8.02 31.93l-.15-1.04-3.25 2.7.15 1.1z" color="#000" overflow="visible" enable-background="accumulate"/><path d="M12.64 33.34l-3.07 2.82.1 1.47 3.07-2.9z" color="#000" overflow="visible" enable-background="accumulate"/></g><path fill="none" stroke="#ef2929" stroke-width="1.5" d="M24.32 15.9v11.13" color="#000" overflow="visible"/><path fill="#ef2929" stroke="#eeeeec" stroke-width="1.00015" d="M27.43 15.77a3.1 3.1 0 1 1-6.2 0 3.1 3.1 0 1 1 6.2 0z" color="#000" stroke-linecap="round" overflow="visible"/><path fill="none" stroke="#ef2929" stroke-width="1.5" d="M9.82 10.6l29.04 10.24"/><path fill="none" stroke="#ef2929" stroke-width="1.5" d="M38.86 10.6L9.82 20.84"/><path fill="none" stroke="#ef2929" stroke-width="1.5" d="M24.32 5.22v11.7" color="#000" overflow="visible"/><path fill="#ef2929" fill-rule="evenodd" d="M7.27 9.43l4.58 3.77 2.32-3.12-6.9-.65z"/><path fill="#ef2929" fill-rule="evenodd" d="M42.92 8.88l-4.56 3.78-2.33-3.12 6.9-.66z"/><path fill="#ef2929" fill-rule="evenodd" d="M6.78 21.7l4.57-3.77 2.33 3.12-6.9.66z"/><path fill="#ef2929" fill-rule="evenodd" d="M42.43 22.26l-4.57-3.78-2.33 3.1 6.9.68z"/><path fill="#ef2929" fill-rule="evenodd" d="M24.5.14l2.26 6.62-5.08-.02 2.8-6.6z"/></g></svg>