<svg xmlns="http://www.w3.org/2000/svg" width="48" height="48"><g stroke="#204a87" stroke-width=".25" stroke-linejoin="bevel"><path fill="#558bc5" d="M.1 22.18l23.02-5.47 21.33 9.22 3.34 2.7L10.6 40.6z" color="#000" overflow="visible" enable-background="accumulate"/><path fill="#729fcf" d="M1.12 21.94l5.16-1.28L8 23.3l-5.4 1.27z"/><path fill="#729fcf" d="M6.32 20.7l-1.6-2.3L6 18.13z" color="#000" overflow="visible" enable-background="accumulate"/><path fill="#729fcf" d="M8.04 23.36l5.16-1.3.74 1-2 6.03z" color="#000" overflow="visible" enable-background="accumulate"/><path fill="#729fcf" d="M6.1 30.5l5.85-1.58 2.2 3.2-6 1.76z" color="#000" overflow="visible" enable-background="accumulate"/><path fill="#729fcf" d="M14.18 32.13l5.6-1.66 2.7 3.4-5.94 1.77z" color="#000" overflow="visible" enable-background="accumulate"/><path fill="#729fcf" d="M19.75 30.44l5.53-1.55-2.67-3-3 .83z" color="#000" overflow="visible" enable-background="accumulate"/><path fill="#729fcf" d="M13.13 22.07l4.93-1.35-2.03-2.36-3.17.78z" color="#000" overflow="visible" enable-background="accumulate"/><path fill="#729fcf" d="M25.08 16.24l-2.13-2.03 2.2-.46z" color="#000" overflow="visible" enable-background="accumulate"/><path fill="#729fcf" d="M20.7 17.28l4.5-1 2.2 2.12-4.55 1.1z" color="#000" overflow="visible" enable-background="accumulate"/><path fill="#729fcf" d="M31.76 17.25l.13-2.6 1.55-.4 2.5 2z" color="#000" overflow="visible" enable-background="accumulate"/><path fill="#729fcf" d="M27.47 18.43l4.36-1.18 1 .94-.3 5.02z" color="#000" overflow="visible" enable-background="accumulate"/><path fill="#729fcf" d="M27.7 24.5l4.87-1.38 2.9 2.8-4.96 1.45z" color="#000" overflow="visible" enable-background="accumulate"/><path fill="#729fcf" d="M35.5 25.95c.14 0 4.7-1.45 4.7-1.45l3.37 2.9-4.93 1.5z" color="#000" overflow="visible" enable-background="accumulate"/><path fill="#729fcf" d="M40.26 24.5l4.52-1.3-3.2-2.5-.98.33z" color="#000" overflow="visible" enable-background="accumulate"/><path fill="#a6c2e1" d="M5.7 15.76l5.1-1.18 1.96 2.3-5.43 1.18z" color="#000" overflow="visible" enable-background="accumulate"/><path fill="#a6c2e1" d="M25.1 11.55l2.4 2 4.46-1.1-2.5-1.9z" color="#000" overflow="visible" enable-background="accumulate"/><path fill="#a6c2e1" d="M32.87 18.16l4.76-1.32 3.1 2.5-4.96 1.32z" color="#000" overflow="visible" enable-background="accumulate"/><path fill="#3465a4" d="M2.64 24.6l5.43-1.28.2 2.6L3 27.3z" color="#000" overflow="visible" enable-background="accumulate"/><path fill="#3465a4" d="M8.04 23.36L7.4 18l5.36-1.2.4 5.27z" color="#000" overflow="visible" enable-background="accumulate"/><path fill="#3465a4" d="M22.85 19.58l4.6-1.15-.1 2.56-4.53 1.14z" color="#000" overflow="visible" enable-background="accumulate"/><path fill="#3465a4" d="M27.44 18.5v-4.96L32 12.5l-.2 4.78z" color="#000" overflow="visible" enable-background="accumulate"/><path fill="#3465a4" d="M35.5 26l.3-5.34 5.03-1.35-.54 5.2z" color="#000" overflow="visible" enable-background="accumulate"/><path fill="#3465a4" d="M13.2 22.04l4.9-1.35.03 2.55-4.36-.4z" color="#000" overflow="visible" enable-background="accumulate"/><path fill="#3465a4" d="M31.9 17.18l4.04-.94.04 1.04-3.07.95z" color="#000" overflow="visible" enable-background="accumulate"/><path fill="#3465a4" d="M14.1 32.13l-.4-5.67 5.94-1.48.1 5.43z" color="#000" overflow="visible" enable-background="accumulate"/><path fill="#a6c2e1" d="M11.4 23.52l2.34 3.07L19.6 25l-2.5-2.96z" color="#000" overflow="visible" enable-background="accumulate"/><path fill="#3465a4" d="M8.4 36.75l-.23-2.9 5.94-1.66.18 2.86z" color="#000" overflow="visible" enable-background="accumulate"/><path fill="#3465a4" d="M16.67 38.6l-.1-3.03 5.9-1.7v2.8z" color="#000" overflow="visible" enable-background="accumulate"/><path fill="#3465a4" d="M25.28 28.9l-.03 2.82-3.68 1.05-1.76-2.33z" color="#000" overflow="visible" enable-background="accumulate"/><path fill="#3465a4" d="M30.37 30.1l.14-2.76 5-1.4-.27 2.75z" color="#000" overflow="visible" enable-background="accumulate"/><path fill="#3465a4" d="M38.37 31.62l.24-2.77 4.97-1.48-.4 2.67z" color="#000" overflow="visible" enable-background="accumulate"/><path fill="#3465a4" d="M40.33 24.5l4.5-1.35-.42 2.74-1.95.56z" color="#000" overflow="visible" enable-background="accumulate"/><path fill="#142e53" d="M1.22 22l.3 2.74 1.6 2.56-.48-2.76z" color="#000" overflow="visible" enable-background="accumulate"/><path fill="#142e53" d="M4.73 18.33l.3 2.66 1.22-.38z" color="#000" overflow="visible" enable-background="accumulate"/><path fill="#142e53" d="M8.07 23.36l.2 2.53 2.33 3.5 1.25-.5z" color="#000" overflow="visible" enable-background="accumulate"/><path fill="#142e53" d="M11.44 23.52l.5 5.44 2.2 3.2-.43-5.63z" color="#000" overflow="visible" enable-background="accumulate"/><path fill="#142e53" d="M6.15 30.5l.33 2.9 1.93 3.45-.2-3z" color="#000" overflow="visible" enable-background="accumulate"/><path fill="#142e53" d="M14.08 32.13l.2 2.97 2.4 3.44-.14-2.97z" color="#000" overflow="visible" enable-background="accumulate"/><path fill="#142e53" d="M6.2 20.62l-.5-4.9 1.66 2.3.7 5.4z" color="#000" overflow="visible" enable-background="accumulate"/><path fill="#142e53" d="M25.1 16.27l.08-4.76 2.26 2.07-.03 4.9z" color="#000" overflow="visible" enable-background="accumulate"/><path fill="#142e53" d="M22.98 16.78V14.2l2.1 2.07z" color="#000" overflow="visible" enable-background="accumulate"/><path fill="#142e53" d="M20.7 19.88l-.04-2.63 2.26 2.36-.1 2.5z" color="#000" overflow="visible" enable-background="accumulate"/><path fill="#142e53" d="M27.4 21.03l.04-2.6 5.1 4.72-2.23.64z" color="#000" overflow="visible" enable-background="accumulate"/><path fill="#142e53" d="M32.5 23.12l.4-4.93 2.94 2.6-.34 5.2z" color="#000" overflow="visible" enable-background="accumulate"/><path fill="#142e53" d="M27.64 27.27l.1-2.8 2.8 2.93-.2 2.8z" color="#000" overflow="visible" enable-background="accumulate"/><path fill="#142e53" d="M35.23 28.72L35.5 26l3.07 2.9-.23 2.82z" color="#000" overflow="visible" enable-background="accumulate"/></g></svg>