<svg xmlns="http://www.w3.org/2000/svg" width="48" height="48"><defs><radialGradient id="b" cx="762.581" cy="252.457" r="59.307" gradientUnits="userSpaceOnUse" gradientTransform="matrix(1.141 0 0 1 -142.822 0)" fy="252.457" fx="762.581"><stop offset="0" stop-color="#fff"/><stop offset=".826" stop-color="#A1AEBF"/><stop offset="1" stop-color="#838B99"/></radialGradient><linearGradient id="a" x1="788.728" x2="749.256" y1="258.156" y2="258.156" gradientUnits="userSpaceOnUse"><stop offset="0" stop-color="#fff"/><stop offset=".433" stop-color="#98A2B2"/><stop offset=".635" stop-color="#8D97A6"/><stop offset="1" stop-color="#B7C3CA"/></linearGradient></defs><g><g transform="matrix(1.23 0 0 1.234 -921.922 -298.02)"><linearGradient x1="788.728" x2="749.256" y1="258.156" y2="258.156" gradientUnits="userSpaceOnUse"><stop offset="0" stop-color="#fff"/><stop offset=".433" stop-color="#98A2B2"/><stop offset=".635" stop-color="#8D97A6"/><stop offset="1" stop-color="#B7C3CA"/></linearGradient><path fill="url(#a)" d="M755.18 261.04c7.5-3.8 19.64-3.8 27.14 0 2.07 1.06 3.56 2.3 4.48 3.6 2.42-3.42.94-7.4-4.48-10.13-7.5-3.78-19.65-3.78-27.14 0-5.42 2.75-6.9 6.72-4.5 10.14.94-1.3 2.42-2.54 4.5-3.6z"/><radialGradient cx="762.581" cy="252.457" r="59.307" gradientUnits="userSpaceOnUse" gradientTransform="matrix(1.141 0 0 1 -142.822 0)" fy="252.457" fx="762.581"><stop offset="0" stop-color="#fff"/><stop offset=".826" stop-color="#A1AEBF"/><stop offset="1" stop-color="#838B99"/></radialGradient><path fill="url(#b)" d="M755.18 268.24c7.5 3.8 19.64 3.8 27.14 0 2.07-1.05 3.56-2.28 4.48-3.6-.92-1.3-2.4-2.55-4.48-3.6-7.5-3.8-19.65-3.8-27.14 0-2.08 1.06-3.56 2.3-4.5 3.6.94 1.32 2.42 2.55 4.5 3.6z"/><path fill="#192333" d="M755.18 268.24c7.5 3.8 19.64 3.8 27.14 0 2.07-1.05 3.56-2.28 4.48-3.6-.92-1.3-2.4-2.55-4.48-3.6-7.5-3.8-19.65-3.8-27.14 0-2.08 1.06-3.56 2.3-4.5 3.6.94 1.32 2.42 2.55 4.5 3.6z"/></g><path fill="none" stroke="#becbd4" stroke-width=".6" d="M46.2 28.6c-1.15-1.63-2.97-3.15-5.53-4.45-9.22-4.68-24.17-4.68-33.4 0-2.55 1.3-4.38 2.83-5.5 4.45"/><path fill="none" stroke="#5d6166" stroke-width=".7" d="M40.67 16.1c9.22 4.67 9.22 12.26 0 16.94-9.22 4.68-24.17 4.68-33.4 0-9.22-4.68-9.22-12.27 0-16.95 9.23-4.7 24.18-4.7 33.4 0z"/></g></svg>