<svg xmlns="http://www.w3.org/2000/svg" width="48" height="48" xmlns:xlink="http://www.w3.org/1999/xlink"><defs><linearGradient id="a"><stop offset="0" stop-color="#fce94f"/><stop offset="1" stop-color="#fce94f" stop-opacity="0"/></linearGradient><radialGradient id="b" cx="2.803" cy="3.579" r="1.793" xlink:href="#a" fx="2.803" fy="3.579" gradientUnits="userSpaceOnUse"/></defs><g><path fill="url(#b)" d="M4.6 3.58a1.8 1.8 0 1 1-3.6 0 1.8 1.8 0 1 1 3.6 0z" transform="matrix(5.225 0 0 5.225 12.399 -1.635)" color="#000" overflow="visible" enable-background="accumulate"/><path fill="none" stroke="#4e9a06" stroke-width="2" d="M2.58 3.33c22.43 7.4 32.7 18.5 41.6 41"/><path fill="#ddf7c5" stroke="#4e9a06" d="M4.6 3.58a1.8 1.8 0 1 1-3.6 0 1.8 1.8 0 1 1 3.6 0z" color="#000" overflow="visible" enable-background="accumulate"/><path fill="#ddf7c5" stroke="#4e9a06" d="M46.06 44.84a1.8 1.8 0 1 1-3.58 0 1.8 1.8 0 1 1 3.58 0z" color="#000" overflow="visible" enable-background="accumulate"/><path fill="none" stroke="#204a87" stroke-width="2" d="M45.13 16.43C27 14.25 16.18 18.58 2.53 31.27"/><path fill="#729fcf" stroke="#204a87" d="M44.05 15.82c-.58 1.25.4 2.67 1.78 2.55.63-.05 1.2-.44 1.47-1.02.6-1.25-.4-2.66-1.77-2.55-.64.05-1.2.45-1.48 1.02z" color="#000" overflow="visible" enable-background="accumulate"/><path fill="#729fcf" stroke="#204a87" d="M.73 30.67c-.58 1.25.4 2.66 1.78 2.55.65-.06 1.2-.45 1.48-1.03.6-1.26-.4-2.67-1.77-2.56-.63.06-1.2.45-1.47 1.03z" color="#000" overflow="visible" enable-background="accumulate"/><path fill="#fce94f" stroke="#c4a000" stroke-width=".9982599999999999" d="M24.7 15.9c-.84 1.78.56 3.8 2.52 3.63.9-.08 1.7-.64 2.1-1.46.83-1.78-.57-3.8-2.53-3.63-.92.08-1.72.63-2.1 1.46z" color="#000" overflow="visible" enable-background="accumulate"/></g></svg>