<svg xmlns="http://www.w3.org/2000/svg" width="48" height="48" xmlns:xlink="http://www.w3.org/1999/xlink"><defs><linearGradient id="d"><stop offset="0" stop-color="#fff"/><stop offset="1" stop-color="#fff" stop-opacity="0"/></linearGradient><linearGradient id="b"><stop offset="0"/><stop offset="1" stop-opacity="0"/></linearGradient><linearGradient id="a"><stop offset="0"/><stop offset="1" stop-opacity="0"/></linearGradient><linearGradient id="c"><stop offset="0"/><stop offset="1" stop-opacity="0"/></linearGradient><linearGradient id="h"><stop offset="0" stop-color="#773500"/><stop offset="1" stop-color="#ce5c00"/></linearGradient><linearGradient id="i"><stop offset="0" stop-color="#ffe97a"/><stop offset="1" stop-color="#ffd815"/></linearGradient><linearGradient id="e"><stop offset="0" stop-color="#fce94f"/><stop offset="1" stop-color="#fce94f" stop-opacity="0"/></linearGradient><linearGradient id="g"><stop offset="0" stop-color="#fff92c"/><stop offset="1" stop-color="#fce94f" stop-opacity="0"/></linearGradient><linearGradient id="f"><stop offset="0" stop-color="#fce94f"/><stop offset="1" stop-color="#fce94f" stop-opacity="0"/></linearGradient><radialGradient id="j" cx="22.429" cy="28.843" r="11" xlink:href="#a" gradientUnits="userSpaceOnUse" gradientTransform="matrix(-1.579 -.137 -.039 -.381 59.746 41.971)" fx="22.429" fy="28.843"/><radialGradient id="k" cx="27.464" cy="33" r="16.25" xlink:href="#b" gradientUnits="userSpaceOnUse" gradientTransform="matrix(.904 -.811 .248 .359 -5.351 44.435)" fx="27.464" fy="33"/><radialGradient id="l" cx="22.607" cy="16.719" r="6.607" xlink:href="#c" gradientUnits="userSpaceOnUse" gradientTransform="matrix(.826 .625 -1.193 2.832 24.764 -42.439)" fx="22.607" fy="16.719"/><radialGradient id="r" cx="23.784" cy="23.879" r="12.493" xlink:href="#d" gradientUnits="userSpaceOnUse" gradientTransform="matrix(.931 .235 -.016 1.054 2.197 -6.657)" fx="23.784" fy="23.879"/><linearGradient id="q" x1="12.576" x2="23.486" y1="45.929" y2="27.191" xlink:href="#e" gradientUnits="userSpaceOnUse" gradientTransform="matrix(.905 .229 -.016 1.055 3.353 -7.127)"/><linearGradient id="p" x1="41.618" x2="21.567" y1="16.988" y2="19.867" xlink:href="#f" gradientUnits="userSpaceOnUse" gradientTransform="matrix(.905 .229 -.016 1.055 3.353 -7.127)"/><radialGradient id="o" cx="16.44" cy="15.549" r="13.359" xlink:href="#g" gradientUnits="userSpaceOnUse" gradientTransform="matrix(.905 .229 -.018 1.191 3.34 -9.302)" fx="16.44" fy="15.549"/><radialGradient id="n" cx="26.921" cy="32.545" r="16.061" xlink:href="#h" gradientUnits="userSpaceOnUse" gradientTransform="matrix(.905 .229 -.016 1.055 3.353 -7.127)" fx="26.921" fy="32.545"/><radialGradient id="m" cx="22.981" cy="24.478" r="19.137" xlink:href="#i" gradientUnits="userSpaceOnUse" gradientTransform="matrix(.555 .269 -.224 1.158 16.47 -10.564)" fx="22.981" fy="24.478"/></defs><g><path fill="url(#j)" d="M5.77 25.88l1 1.7L25.7 29.3l-.63-5.38z"/><path fill="url(#k)" d="M41.88 20l.75 1.8-28.5 26.32-1.4-1.72z"/><path fill="url(#l)" d="M30.95.68l.94 1.75-7.82 18.54-4.44-2.56z"/><path fill="url(#m)" stroke="#f57900" d="M30.65.48L6.8 25.38l17.3 1.43-11.33 19.62L40.74 20.5 22.6 18.88z"/><path fill="#ce5c00" d="M21.94 19.48l1.44-1.1L31.04.75l-.8-.7z"/><path fill="url(#n)" d="M13.18 46.75l-.77-.78 27.14-25L42 20.1z"/><path fill="#ce5c00" d="M5.6 25.84l2.45-.88 16.82 1.4-1.72.97z"/><path fill="url(#o)" d="M5.6 25.84L30.23-.06 29 3 8.04 24.9z"/><path fill="url(#p)" d="M22 19.43l1.47-1 18.38 1.63-2.45 1z"/><path fill="url(#q)" d="M12.36 46.06L23.2 27.23l1.76-.9-10.1 17.37z"/><path fill="url(#r)" d="M23.64 10.8L12.3 23.4l14.3 1.26L20.7 36.5l14.96-14.68-16.05-1.27z"/><path fill="none" stroke="#fff" stroke-opacity=".582" stroke-width=".5" d="M28.68 3.5L8.23 24.7l17 1.5-9.9 17.2 23.42-22.1-17.25-1.73z"/></g></svg>