<svg xmlns="http://www.w3.org/2000/svg" width="48" height="48"><defs><radialGradient id="b" cx="9.829" cy="405.94" r="24.876" gradientUnits="userSpaceOnUse" fy="405.94" fx="9.829"><stop offset="0" stop-color="#fff"/><stop offset="1" stop-color="#8794A0"/></radialGradient><radialGradient id="c" cx="40.7" cy="431.185" r="42.061" gradientUnits="userSpaceOnUse" fy="431.185" fx="40.7"><stop offset="0" stop-color="#fff"/><stop offset="1" stop-color="#8794A0"/></radialGradient><linearGradient id="d" x1="24.006" x2="22.685" y1="396.148" y2="395.576" gradientUnits="userSpaceOnUse" gradientTransform="matrix(1.032 0 0 1.032 -.795 -397.438)"><stop offset=".129" stop-color="#626873"/><stop offset=".872" stop-color="#626873"/><stop offset="1" stop-color="#626873"/></linearGradient><linearGradient id="e" x1="14.69" x2="14.086" y1="390.505" y2="399.65" gradientUnits="userSpaceOnUse" gradientTransform="matrix(1.032 0 0 1.032 -.795 -397.438)"><stop offset="0" stop-color="#9098A0"/><stop offset=".129" stop-color="#737B87"/><stop offset=".27" stop-color="#737B87"/><stop offset=".416" stop-color="#C2C8CC"/><stop offset=".472" stop-color="#C2C8CC"/><stop offset=".596" stop-color="#737B87"/></linearGradient><radialGradient id="f" cx="27.979" cy="432.582" r="35.832" gradientUnits="userSpaceOnUse" fy="432.582" fx="27.979"><stop offset="0" stop-color="#fff"/><stop offset="1" stop-color="#8794A0"/></radialGradient><radialGradient id="g" cx="18.814" cy="408.56" r="9.982" gradientUnits="userSpaceOnUse" fy="408.56" fx="18.814"><stop offset="0" stop-color="#8794A0"/><stop offset="1" stop-color="#41474C"/></radialGradient><linearGradient id="h" x1="39.969" x2="44.739" y1="409.976" y2="410.634" gradientUnits="userSpaceOnUse" gradientTransform="matrix(1.032 0 0 1.032 -.795 -397.438)"><stop offset="0" stop-color="#737B87"/><stop offset=".048" stop-color="#757D89"/><stop offset=".615" stop-color="#89919A"/><stop offset="1" stop-color="#9098A0"/></linearGradient><radialGradient id="i" cx="10.333" cy="415.386" r="11.234" gradientUnits="userSpaceOnUse" fy="415.386" fx="10.333" gradientTransform="matrix(1.032 0 0 1.032 -.795 -397.438)"><stop offset="0" stop-color="#B9BFC3"/><stop offset=".464" stop-color="#747B83"/><stop offset=".579" stop-color="#626973"/><stop offset=".763" stop-color="#51575F"/><stop offset="1" stop-color="#373B40"/></radialGradient><linearGradient id="j" x1="29.966" x2="30.829" y1="414.991" y2="403.43" gradientUnits="userSpaceOnUse" gradientTransform="matrix(1.032 0 0 1.032 -.795 -397.438)"><stop offset=".315" stop-color="#A1AAB3"/><stop offset=".412" stop-color="#A5AEB7"/><stop offset=".517" stop-color="#B2BBC2"/><stop offset=".625" stop-color="#C8CFD5"/><stop offset=".646" stop-color="#CDD4D9"/><stop offset=".697" stop-color="#CDD4D9"/><stop offset=".809" stop-color="#A1AAB3"/><stop offset="1" stop-color="#BAC2C9"/></linearGradient><radialGradient id="k" cx="28.221" cy="416.579" r="11.604" gradientUnits="userSpaceOnUse" fy="416.579" fx="28.221" gradientTransform="matrix(1.032 0 0 1.032 -.795 -397.438)"><stop offset="0" stop-color="#B9BFC3"/><stop offset=".464" stop-color="#747B83"/><stop offset=".579" stop-color="#626973"/><stop offset=".763" stop-color="#51575F"/><stop offset="1" stop-color="#373B40"/></radialGradient><linearGradient id="l" x1="15.992" x2="12.5" y1="423.902" y2="418.621" gradientUnits="userSpaceOnUse"><stop offset="0" stop-color="#4B5159"/><stop offset=".479" stop-color="#5C636D"/><stop offset="1" stop-color="#737B87"/></linearGradient><linearGradient id="m" x1="35.215" x2="28.57" y1="425.769" y2="419.123" gradientUnits="userSpaceOnUse"><stop offset="0" stop-color="#4B5159"/><stop offset=".479" stop-color="#5C636D"/><stop offset="1" stop-color="#737B87"/></linearGradient><radialGradient id="a" cx="15.756" cy="398.709" r="36" gradientUnits="userSpaceOnUse" fy="398.709" fx="15.756" gradientTransform="matrix(1.032 0 0 1.032 -.795 -397.438)"><stop offset="0" stop-color="#fff"/><stop offset=".283" stop-color="#EBF6FF"/><stop offset=".786" stop-color="#BFE2FF"/></radialGradient><radialGradient id="n" cx="10.364" cy="394.279" r="80.555" gradientUnits="userSpaceOnUse" fy="394.279" fx="10.364"><stop offset="0" stop-color="#fff"/><stop offset=".438" stop-color="#EBF6FF"/><stop offset="1" stop-color="#CCE8FF"/></radialGradient><linearGradient id="o" x1="32.031" x2="37.824" y1="401.305" y2="401.305" gradientUnits="userSpaceOnUse" gradientTransform="matrix(1.032 0 0 1.032 -.795 -397.438)"><stop offset="0" stop-color="#9098A0"/><stop offset=".129" stop-color="#737B87"/><stop offset=".27" stop-color="#737B87"/><stop offset=".405" stop-color="#C2C8CC"/><stop offset=".472" stop-color="#C2C8CC"/><stop offset=".596" stop-color="#737B87"/></linearGradient><linearGradient id="p" x1="24.599" x2="29.844" y1="401.678" y2="401.678" gradientUnits="userSpaceOnUse" gradientTransform="matrix(1.032 0 0 1.032 -.795 -397.438)"><stop offset="0" stop-color="#9098A0"/><stop offset=".129" stop-color="#737B87"/><stop offset=".27" stop-color="#737B87"/><stop offset=".405" stop-color="#C2C8CC"/><stop offset=".472" stop-color="#C2C8CC"/><stop offset=".596" stop-color="#737B87"/></linearGradient><radialGradient id="q" cx="35.049" cy="392.715" r="4.323" gradientUnits="userSpaceOnUse" fy="392.715" fx="35.049" gradientTransform="matrix(1.032 0 0 1.032 -.795 -397.438)"><stop offset="0" stop-color="#575D66"/><stop offset=".421" stop-color="#575D66"/><stop offset=".686" stop-color="#626872"/><stop offset="1" stop-color="#737B87"/></radialGradient><radialGradient id="r" cx="27.502" cy="396.293" r="2.331" gradientUnits="userSpaceOnUse" fy="396.293" fx="27.502" gradientTransform="matrix(1.032 0 0 1.032 -.795 -397.438)"><stop offset="0" stop-color="#575D66"/><stop offset=".421" stop-color="#575D66"/><stop offset=".686" stop-color="#626872"/><stop offset="1" stop-color="#737B87"/></radialGradient><radialGradient id="s" cx="-1571.12" cy="-1022.399" r="2.067" gradientUnits="userSpaceOnUse" gradientTransform="matrix(.643 0 0 .613 1037.28 1022.701)" fy="-1022.399" fx="-1571.12"><stop offset=".006" stop-color="#F5F8FA"/><stop offset=".152" stop-color="#F5F8FA"/><stop offset=".613" stop-color="#B0B6BD"/><stop offset="1" stop-color="#737B87"/></radialGradient><radialGradient id="t" cx="-1559.409" cy="-1028.648" r="3.116" gradientUnits="userSpaceOnUse" gradientTransform="matrix(.643 0 0 .613 1037.28 1022.701)" fy="-1028.648" fx="-1559.409"><stop offset=".006" stop-color="#F5F8FA"/><stop offset=".152" stop-color="#F5F8FA"/><stop offset=".613" stop-color="#B0B6BD"/><stop offset="1" stop-color="#737B87"/></radialGradient></defs><g><path fill="url(#a)" stroke="#3065a0" d="M5.05 1.77c2.37-.48 17.22.58 19.36 1.08 1.66.38 2.05 4.86 2.05 4.86.03.65 2.3.65 2.54-.17.92-3.06 4.45-4.14 7.7-4.14 3.07 0 7.05 2 7.17 5.24.12 3.24-2.35 3.78-2.5 4.55-.18.77-.15 3.2.26 3.62.4.4 2.5.26 3.23 1.17.82 1.02.58 6.45 1.02 6.98.44.53 1.03.55 1.5 1.37.5.82.2 9.6.2 9.6S46.06 43.5 45 44.1c-1.05.6-4.46-.43-5.27.27-3.7 3.22-9.5 4.15-13.97-1.44-.48-.6-4.93-1.1-5.68-.54-2 1.44-5.05 2.53-7.9 2.32-2.73-.2-4.92-1.5-6.43-4.24-.5-.9-3.2-.27-3.9-1.1-.7-.85-.52-9.23-.35-9.95.18-.7 1.06-2.4 1.22-3 .15-.6.22-9.5-.12-9.98-.34-.5-1.22-.53-1.66-.77-.6-.34-.5-13 4.13-13.9z"/><path fill="url(#b)" d="M42.9 411.28l-34.3-3.1-2.33 5.85 34.75 3.43 1.9-6.18" transform="matrix(1.032 0 0 1.032 -.795 -397.438)"/><path fill="url(#c)" d="M41.2 424.02L6.07 420.1l.2-6.35 34.75 3.7.18 6.57z" transform="matrix(1.032 0 0 1.032 -.795 -397.438)"/><path fill="#9098a0" d="M43.37 34.54l-1.63 5.76-.2-6.78 1.96-6.38-.13 7.4z"/><g fill="none" stroke-width=".775"><path stroke="#ced3d9" stroke-width="1.03" d="M5.66 29.7l35.9 3.82"/><path stroke="#717880" stroke-width="1.03" d="M41.55 33.52l1.95-6.38"/><path stroke="#717880" stroke-width="1.03" d="M41.55 33.52l.2 6.78"/></g><path fill="url(#d)" d="M24.16 9.68l-2.07 5.8c0-.17 0-.35 0-.53 0-4.7.5-8.52 1.15-8.52.37 0 .7 1.27.9 3.25z"/><path fill="url(#e)" d="M22.1 15.5c0-.2 0-.37 0-.55 0-4.7.5-8.52 1.15-8.52L6.98 5.5c-1.12 0-2.02 3.8-2.02 8.8l17.13 1.2z"/><path fill="none" stroke="#575c66" stroke-width=".6983400000000001" d="M5.66 29.7l2.43-5.77 35.4 3.2-.13 7.4-1.63 5.77-36.27-4.06.2-6.55z"/><path fill="url(#f)" d="M20.15 414.7l-13-1.27.06-14.46 13.33.9-.38 14.84z" transform="matrix(1.032 0 0 1.032 -.795 -397.438)"/><path fill="#7f858c" d="M20 30.7l1.44-4.87.13-10.38-1.17-.08L20 30.7z"/><path fill="url(#g)" d="M11.08 399.22v4.9l5.26.27v-4.72l-5.26-.46z" transform="matrix(1.032 0 0 1.032 -.795 -397.438)"/><path fill="none" stroke="#a8b1bf" stroke-width=".6983400000000001" d="M16.08 15.17v4.86l-5.44-.26V14.7"/><path fill="none" stroke="#7f858c" d="M20 30.68l.4-15.16"/><path fill="none" stroke="#575c66" stroke-width=".6983400000000001" d="M21.44 25.83l.13-10.38-14.92-1-.07 14.9L20 30.7"/><path fill="url(#h)" d="M40.4 26.65c0-.5-.02-1.06 0-1.63.07-3.02.52-5.4 1-5.34.4.06.45 2.5.45 4.72v3.8l-1.36 3.85-.1-5.4z"/><path fill="url(#i)" d="M19.37 36.08c.1 2.76-2.36 5-5.5 5-3.1 0-5.73-2.24-5.82-5v-.7c-.1-2.75 2.36-4.98 5.48-4.98 3.13 0 5.74 2.23 5.84 5v.68z"/><path fill="url(#j)" d="M40.4 26.65c0-.5-.02-1.06 0-1.63.07-3.02.52-5.4 1-5.34L21.5 18.22c-.6.05-1.1 2.2-1.16 5.04 0 .56-.18 6.37-.16 6.88l20.33 1.9-.1-5.4z"/><path fill="url(#k)" d="M38 37.84c.1 2.8-2.4 5.1-5.6 5.1-3.18 0-5.85-2.3-5.94-5.1v-.7c-.1-2.83 2.4-5.1 5.6-5.1 3.2 0 5.86 2.27 5.95 5.1v.7z"/><path fill="none" stroke="#575c66" stroke-width=".7" d="M22.1 15.5L4.95 14.3c0-5 .9-8.8 2.02-8.8l16.27.93c.37 0 .7 1.27.9 3.25l-2.06 5.8z"/><g transform="matrix(1.032 0 0 1.032 -.795 -397.438)"><path fill="#40454c" d="M13.67 416.7c-2.24 0-4 1.6-3.94 3.56.07 1.98 1.95 3.58 4.2 3.58 2.23 0 4-1.6 3.92-3.58-.07-1.97-1.94-3.57-4.18-3.57zm.24 7.1c-2.02 0-3.7-1.44-3.77-3.22-.06-1.8 1.53-3.23 3.55-3.23 2.02 0 3.7 1.44 3.78 3.23.06 1.78-1.53 3.23-3.55 3.23z"/><linearGradient x1="15.992" x2="12.5" y1="423.902" y2="418.621" gradientUnits="userSpaceOnUse"><stop offset="0" stop-color="#4B5159"/><stop offset=".479" stop-color="#5C636D"/><stop offset="1" stop-color="#737B87"/></linearGradient><circle cx="13.792" cy="420.575" r="3.231" fill="url(#l)"/></g><g transform="matrix(1.032 0 0 1.032 -.795 -397.438)"><path fill="#40454c" d="M31.6 418.32c-2.28 0-4.08 1.63-4 3.65.06 2.02 1.98 3.65 4.26 3.65 2.3 0 4.1-1.63 4.02-3.65-.07-2.02-1.98-3.65-4.27-3.65zm.25 7.27c-2.06 0-3.8-1.5-3.86-3.3-.07-1.83 1.55-3.3 3.62-3.3 2.07 0 3.8 1.47 3.86 3.3.06 1.8-1.56 3.3-3.63 3.3z"/><linearGradient x1="35.215" x2="28.57" y1="425.769" y2="419.123" gradientUnits="userSpaceOnUse"><stop offset="0" stop-color="#4B5159"/><stop offset=".479" stop-color="#5C636D"/><stop offset="1" stop-color="#737B87"/></linearGradient><circle cx="31.736" cy="422.289" r="3.299" fill="url(#m)"/></g><g transform="matrix(1.032 0 0 1.032 -.795 -397.438)"><radialGradient cx="10.364" cy="394.279" r="80.555" gradientUnits="userSpaceOnUse" fy="394.279" fx="10.364"><stop offset="0" stop-color="#fff"/><stop offset=".438" stop-color="#EBF6FF"/><stop offset="1" stop-color="#CCE8FF"/></radialGradient><path fill="url(#n)" d="M5.75 387.2c-.74.13-1.4.7-1.97 1.65-1.38 2.32-1.86 6.44-1.86 9.27l.1 1.7.36.08c.44.13.98.3 1.3.74.05.08.33.7.33 4.37 0 2.65-.13 5.4-.15 5.73-.05.13-.55 1.36-.55 1.36l-.6 1.45c-.12.62-.16 2.37-.16 3.87 0 1.28.03 4.37.33 5.24l.1.3h.2l1.3.18c.94.07 1.9.14 2.28.82 1.32 2.4 3.23 3.65 5.84 3.85 2.37.2 5.24-.66 7.3-2.16.94-.68 5.5-.22 6.2.63 1.77 2.23 3.85 3.47 6.17 3.68 2.27.2 4.7-.65 6.64-2.35.57-.5 1.67-.4 2.94-.3 1.03.1 1.75.13 2.1 0l.17-.04.1-.13c.66-.9 1.68-4.98 2.17-7.34 0-.1.08-4.7.08-4.7 0-2.44-.07-3.9-.2-4.33l-.05-.13-.68-.56-.75-.64c-.2-.25-.26-.92-.37-2.75-.13-2.15-.26-3.48-.55-3.94-.28-.36-.82-.5-1.78-.67-.6-.1-1.05-.2-1.32-.46-.32-.3-.5-1.24-.5-2.47l.1-1.5c.08-.4.4-.68.8-1 .7-.55 1.62-1.3 1.62-3.1v-.2c-.1-2.96-3.88-4.6-6.45-4.6-1.38 0-5.96.27-7 3.65-.22.77-1.33 1.07-2.25.96-1.06-.13-1.17-.72-1.18-.9-.12-1.2-.65-3.93-1.55-4.23-2.13-.5-16.4-1.5-18.6-1.06zM2.92 398.1c0-2.18.36-6.47 1.72-8.76.4-.7.85-1.1 1.3-1.2 2-.4 15.98.6 18.04 1.03.22.23.75 1.57.9 3.35.05.72.62 1.65 2.07 1.82 1.36.16 2.94-.35 3.34-1.66.82-2.72 4.82-2.93 6.02-2.93 2.17 0 5.37 1.42 5.45 3.64 0 0 0 .17 0 .17 0 1.3-.6 1.8-1.25 2.33-.44.36-1 .8-1.15 1.55 0 0-.13 1.72-.13 1.72 0 1.58.27 2.65.8 3.18.5.5 1.16.6 1.86.72.66.12 1.06.22 1.17.3.15.3.28 2.62.33 3.38.12 2.08.2 2.83.66 3.4l.88.73c.04.03.3.23.37.28.08.33.15 1.5.15 3.95l-.07 4.57c-.6 2.87-1.44 5.87-1.9 6.7-.18.02-.57.02-1.55-.06-1.5-.12-2.8-.23-3.68.54-1.74 1.52-3.9 2.3-5.9 2.1-2.03-.18-3.87-1.3-5.48-3.3-1-1.27-6.17-1.82-7.56-.8-1.87 1.35-4.47 2.13-6.64 1.97-2.24-.16-3.9-1.25-5.03-3.32-.64-1.16-2-1.26-3.08-1.34 0 0-.48-.06-.78-.1-.14-.7-.23-2.44-.23-4.62 0-1.9.06-3.28.12-3.6l.57-1.36c.45-1.12.57-1.4.6-1.53.05-.3.18-3.52.18-5.92 0-4.2-.35-4.72-.5-4.94-.43-.6-1.03-.85-1.53-1-.02-.34-.05-.94-.05-.94zm1.9 12.8c.02-.03.02-.05.02-.07 0 0 0 .04 0 .08zm0 .05s0-.02 0-.04c0 0 0 .04 0 .04z"/></g><path fill="#fff" d="M1.5 14.52c-1.4-2.9 10.83-6.5 13.63-7.45 1.94-.67 7.26-4.34 9.34-3.26-2.66 2.32-6.43 5.48-9.36 7.45-2.46 1.67-4.92 3.95-7.67 5.15-2.4 1.05-4.73-.18-5.92-1.88z" opacity=".3"/><path fill="#fff" d="M43.3 18.84c-1.76 1.28-3.92 5.22-4.24 7.12-.6 3.6-4.1 6-6.2 9-1.43 2-6.84 4.44-8.93 5.6-.8.43 2.43.98 4.77 3.5 4.96 3.5 8.17.4 10.33-.47.9-.37 4.78-.83 5.52-1.43 1.33-1.07 1.64-5.97 1.8-7.48 1.27-11.17-1.9-6.85-1.83-12.26 0-.82.1-2.83-.12-3.6-.22-.75-.67-1.22-1.1 0" opacity=".3"/><path fill="none" stroke="#717880" stroke-width=".8" d="M40.5 32.05l-.1-5.4c0-.5-.02-1.06 0-1.63.07-3.02.52-5.4 1-5.34"/><path fill="none" stroke="#575c66" stroke-width=".7" d="M41.4 19.68L21.5 18.22c-.6.05-1.1 2.2-1.16 5.04 0 .56-.18 6.37-.16 6.88l20.33 1.9 1.35-3.83v-3.8c0-2.2-.05-4.66-.44-4.72z"/><path fill="url(#o)" d="M37.66 19.72c0 1-1.02 1.82-2.27 1.82-1.27 0-2.28-.82-2.28-1.82v-7.57h4.54v7.57z"/><path fill="url(#p)" d="M29.83 19.16c0 .98-1 1.77-2.2 1.77-1.24 0-2.23-.8-2.23-1.77v-5.63h4.42v5.63z"/><path fill="url(#q)" stroke="#575d66" stroke-width=".5" d="M40.2 10c0 1.34-2.15 2.44-4.8 2.44-2.68 0-4.83-1.1-4.83-2.45 0-1.7 2.15-3.1 4.82-3.1 2.65 0 4.8 1.4 4.8 3.1z"/><path fill="url(#r)" stroke="#575d66" stroke-width=".5" d="M30.22 12.83c0 .74-1.17 1.33-2.6 1.33-1.44 0-2.6-.6-2.6-1.33 0-.9 1.16-1.66 2.6-1.66 1.43 0 2.6.75 2.6 1.66z"/><path fill="none" stroke="#575c66" stroke-width=".7" d="M37.66 12.15v7.57c0 1-1.02 1.82-2.27 1.82-1.27 0-2.28-.82-2.28-1.82v-7.57h-.02c-1.5-.42-2.53-1.23-2.53-2.16 0-1.7 2.16-3.1 4.82-3.1 2.65 0 4.8 1.4 4.8 3.1 0 .92-1.02 1.73-2.53 2.15z"/><path fill="none" stroke="#575c66" stroke-width=".7" d="M29.83 13.53v5.63c0 .98-1 1.77-2.2 1.77-1.24 0-2.23-.8-2.23-1.77v-5.63c-.24-.2-.38-.44-.38-.7 0-.9 1.16-1.66 2.6-1.66 1.43 0 2.6.75 2.6 1.66 0 .26-.14.5-.38.7z"/><circle cx="27.522" cy="396.5" r="1.39" fill="url(#s)" transform="matrix(1.032 0 0 1.032 -.795 -397.438)" opacity=".7"/><ellipse cx="35.048" cy="392.99" fill="url(#t)" transform="matrix(1.032 0 0 1.032 -.795 -397.438)" ry=".956" rx="2.096" opacity=".7"/><path fill="none" stroke="#575c66" stroke-width=".7" d="M19.37 36.08c.1 2.76-2.36 5-5.5 5-3.1 0-5.73-2.24-5.82-5v-.7c-.1-2.75 2.36-4.98 5.48-4.98 3.13 0 5.74 2.23 5.84 5v.68z"/><path fill="none" stroke="#575c66" stroke-width=".7" d="M38 37.84c.1 2.8-2.4 5.1-5.6 5.1-3.18 0-5.85-2.3-5.94-5.1v-.7c-.1-2.83 2.4-5.1 5.6-5.1 3.18 0 5.86 2.27 5.95 5.1v.7z"/></g></svg>