<svg xmlns="http://www.w3.org/2000/svg" width="48" height="48"><defs><linearGradient><stop offset="0" stop-color="#590b08"/><stop offset="1" stop-opacity="0"/></linearGradient><linearGradient x1="-95.827" x2="-81.455" y1="297.608" y2="297.608" gradientTransform="matrix(0 -1.064 -1.352 0 410.498 -83.416)" gradientUnits="userSpaceOnUse"><stop offset="0" stop-color="#e96712" stop-opacity="0"/><stop offset=".622" stop-color="#D52E0C"/><stop offset="1" stop-color="#CB1009"/></linearGradient><marker orient="auto" overflow="visible"><path fill-rule="evenodd" stroke="#000" stroke-width=".8pt" d="M-10 0l-4 4L0 0l-14-4 4 4z"/></marker></defs><g><path fill="none" stroke="#eeeeec" stroke-width="5" d="M2.48 24.16c2.53-6.4 6.2-10.68 10.6-11.12" stroke-linecap="round"/><path fill="none" stroke="#eeeeec" stroke-width="5" d="M45.9 2.28C43.26 8.22 39.4 12.2 34.8 12.6" stroke-linecap="round"/><path fill="none" stroke="#eeeeec" stroke-width="5" d="M2.38 45.43c9.22-25.03 29.97 1.7 43.3-19.57" stroke-linecap="round"/><path fill="none" stroke="#ef2929" stroke-width="2" d="M15.58 13.12l16.85-.4" stroke-dasharray="2.00000056, 2.00000056"/><path fill="none" stroke="#000" stroke-width="3" d="M2.4 24.26c2.53-6.4 6.2-10.68 10.6-11.12" stroke-linecap="round"/><path fill="none" stroke="#000" stroke-width="3" d="M45.82 2.38c-2.66 5.95-6.5 9.92-11.13 10.33" stroke-linecap="round"/><path fill="#ef2929" fill-rule="evenodd" d="M16.12 13.26a2.3 2.3 0 1 1-4.62 0 2.3 2.3 0 1 1 4.62 0z" color="#000" overflow="visible"/><path fill="#ef2929" fill-rule="evenodd" d="M36.5 12.7a2.3 2.3 0 1 1-4.6 0 2.3 2.3 0 1 1 4.6 0z" color="#000" overflow="visible"/><path fill="none" stroke="#000" stroke-width="3" d="M2.3 45.53c9.22-25.03 29.97 1.7 43.28-19.57" stroke-linecap="round"/></g></svg>