<svg xmlns="http://www.w3.org/2000/svg" width="48" height="48" xmlns:xlink="http://www.w3.org/1999/xlink"><defs><radialGradient cx="3.299" cy="3.416" r="2.751" xlink:href="#a" fx="3.299" fy="3.416" gradientUnits="userSpaceOnUse"/><linearGradient id="c"><stop offset="0" stop-color="#d3d7cf"/><stop offset="1" stop-color="#fff"/></linearGradient><linearGradient id="a"><stop offset="0" stop-color="#fff"/><stop offset="1" stop-color="#8e8e8e"/></linearGradient><linearGradient x1="1287.725" x2="1263.349" y1="1679.832" y2="1679.832" gradientUnits="userSpaceOnUse" gradientTransform="translate(-1239.728 -1655.769)"><stop offset=".213" stop-color="#DBDFE1"/><stop offset="1" stop-color="#A1ACB3"/></linearGradient><linearGradient id="b"><stop offset="0" stop-color="#dfeaa1"/><stop offset="1" stop-color="#9db029"/></linearGradient><linearGradient x1="13.697" x2="13.697" y1="6.887" y2="1.744" xlink:href="#b" gradientUnits="userSpaceOnUse" gradientTransform="matrix(.521 .168 0 .638 -.485 2.799)"/><linearGradient x1="13.697" x2="13.697" y1="6.887" y2="1.744" xlink:href="#b" gradientUnits="userSpaceOnUse" gradientTransform="matrix(-.521 .168 0 .638 48.407 2.731)"/><linearGradient x1="13.697" x2="13.697" y1="6.887" y2="1.744" xlink:href="#b" gradientUnits="userSpaceOnUse" gradientTransform="matrix(-.521 .168 0 .638 48.407 2.731)"/><linearGradient x1="23.201" x2="22.286" y1="3.505" y2="32.37" xlink:href="#c" gradientUnits="userSpaceOnUse" gradientTransform="matrix(.992 0 0 1.061 -53.747 -.521)"/><linearGradient x1="23.201" x2="22.286" y1="3.505" y2="32.37" xlink:href="#c" gradientUnits="userSpaceOnUse" gradientTransform="matrix(.992 0 0 1.061 -7.638 9.153)"/><linearGradient x1="23.201" x2="22.286" y1="3.505" y2="32.37" xlink:href="#c" gradientUnits="userSpaceOnUse" gradientTransform="matrix(.992 0 0 1.061 -7.638 9.153)"/><linearGradient x1="23.201" x2="22.286" y1="3.505" y2="32.37" xlink:href="#c" gradientUnits="userSpaceOnUse" gradientTransform="matrix(.992 0 0 1.061 -1.8 3.924)"/><linearGradient id="d" x1="82.95" x2="60.326" y1="24.728" y2="38.499" xlink:href="#c" gradientUnits="userSpaceOnUse" gradientTransform="matrix(.916 0 0 .992 -46.043 1.552)"/><linearGradient id="e" x1="82.95" x2="60.326" y1="24.728" y2="38.499" xlink:href="#c" gradientUnits="userSpaceOnUse" gradientTransform="matrix(.916 0 0 .992 -46.043 -4.303)"/><linearGradient id="f" x1="82.95" x2="60.326" y1="24.728" y2="38.499" xlink:href="#c" gradientUnits="userSpaceOnUse" gradientTransform="matrix(.916 0 0 .992 -46.043 -11.111)"/><linearGradient id="g" x1="82.95" x2="60.326" y1="24.728" y2="38.499" xlink:href="#c" gradientUnits="userSpaceOnUse" gradientTransform="matrix(.916 0 0 .992 -46.133 -18.464)"/><radialGradient id="h" cx="3.299" cy="3.416" r="2.751" xlink:href="#a" gradientUnits="userSpaceOnUse" fx="3.299" fy="3.416"/></defs><g color="#000"><path fill="url(#d)" fill-rule="evenodd" stroke="#2e3436" stroke-width="2" d="M4.5 32.06L21.8 21.1l25.43 11.22L30.8 44.8l-8.98-4.2-18.12.45 10.9-4-10.1-5z" stroke-linejoin="round" overflow="visible"/><path fill="none" stroke="#fff" stroke-miterlimit="7" d="M22 22.84L7.3 31.96l9.4 4.9-6.55 2.84 12.3-.4 8.03 4.1 14.6-10.67L22 22.83z" overflow="visible"/><path fill="url(#e)" fill-rule="evenodd" stroke="#2e3436" stroke-width="2" d="M4.5 26.2L21.8 15.25l25.43 11.22L30.8 38.94l-8.98-4.2-18.03 5.8 10.8-9.35-10.1-5z" stroke-linejoin="round" overflow="visible"/><path fill="none" stroke="#fff" stroke-miterlimit="7" d="M22 16.98L7.3 26.1l9.4 4.9-6.64 6.02 12.4-3.56 8.02 4.08 14.6-10.66L22 16.98z" overflow="visible"/><path fill="url(#f)" fill-rule="evenodd" stroke="#2e3436" stroke-width="2" d="M4.5 19.4L21.8 8.43l25.43 11.22L30.8 32.13l-8.98-4.2L3.7 39.2l10.9-14.82-10.1-5z" stroke-linejoin="round" overflow="visible"/><path fill="none" stroke="#fff" stroke-miterlimit="7" d="M22 10.17L7.3 19.3l9.4 4.9-7.9 10.28 13.1-7.83 8.58 4.08 14.6-10.66L22 10.17z" overflow="visible"/><path fill="url(#g)" fill-rule="evenodd" stroke="#2e3436" stroke-width="2" d="M4.4 12.04L21.74 1.08 47.16 12.3 30.7 24.8l-8.96-4.2L3.8 37.75l10.72-20.7-10.12-5z" stroke-linejoin="round" overflow="visible"/><path fill="none" stroke="#fff" stroke-miterlimit="7" d="M21.9 2.82L7.2 11.94l9.42 4.9-8.7 15.55L21.7 19l8.67 4.36L45 12.72l-23.1-9.9z" overflow="visible"/><path fill="url(#h)" fill-rule="evenodd" stroke="#2e3436" stroke-width=".74" d="M6.25 3.9a2.36 2.36 0 1 1-4.72 0 2.36 2.36 0 1 1 4.72 0z" transform="matrix(2.026 0 0 2.026 -2.355 31.314)" stroke-linecap="round" overflow="visible"/></g></svg>