<svg xmlns="http://www.w3.org/2000/svg" width="48" height="48" xmlns:xlink="http://www.w3.org/1999/xlink"><defs><linearGradient id="a" x1="1097.176" x2="1099.262" y1="182.992" y2="179.317" gradientUnits="userSpaceOnUse" gradientTransform="matrix(1.015 0 0 1.015 -1073.384 -162.074)"><stop offset=".006" stop-color="#BEC6CA"/><stop offset=".893" stop-color="#899099"/></linearGradient><linearGradient id="b" x1="1079.588" x2="1068.418" y1="172.449" y2="190.534" gradientUnits="userSpaceOnUse" gradientTransform="matrix(1.015 0 0 1.015 -1073.384 -162.074)"><stop offset=".006" stop-color="#ACB5BE"/><stop offset=".197" stop-color="#C3CDD5"/><stop offset=".742" stop-color="#C3CDD5"/><stop offset="1" stop-color="#A1A9B2"/></linearGradient><linearGradient id="c" x1="1072.471" x2="1066.373" y1="176.66" y2="184.198" gradientUnits="userSpaceOnUse" gradientTransform="matrix(1.015 0 0 1.015 -1073.384 -162.074)"><stop offset="0" stop-color="#C8D2D8"/><stop offset=".421" stop-color="#D4DDDF"/><stop offset=".612" stop-color="#D4DDDF"/><stop offset="1" stop-color="#B7C1CA"/></linearGradient><linearGradient id="d" x1="1069.678" x2="1066.847" y1="178.874" y2="183.194" gradientUnits="userSpaceOnUse" gradientTransform="matrix(1.015 0 0 1.015 -1073.384 -162.074)"><stop offset="0" stop-color="#D4DDDF"/><stop offset=".528" stop-color="#fff"/><stop offset="1" stop-color="#D4DDDF"/></linearGradient><linearGradient x1="127.493" x2="129.579" y1="22.605" y2="18.931" gradientUnits="userSpaceOnUse" gradientTransform="matrix(1.012 0 0 1.242 -88.62 -3.302)"><stop offset=".006" stop-color="#BEC6CA"/><stop offset=".893" stop-color="#899099"/></linearGradient><linearGradient x1="109.905" x2="98.735" y1="12.062" y2="30.147" gradientUnits="userSpaceOnUse" gradientTransform="matrix(1.012 0 0 1.242 -88.62 -3.302)"><stop offset=".006" stop-color="#ACB5BE"/><stop offset=".197" stop-color="#C3CDD5"/><stop offset=".742" stop-color="#C3CDD5"/><stop offset="1" stop-color="#A1A9B2"/></linearGradient><linearGradient x1="102.788" x2="96.691" y1="16.273" y2="23.811" gradientUnits="userSpaceOnUse" gradientTransform="matrix(1.012 0 0 1.242 -88.62 -3.302)"><stop offset="0" stop-color="#C8D2D8"/><stop offset=".421" stop-color="#D4DDDF"/><stop offset=".612" stop-color="#D4DDDF"/><stop offset="1" stop-color="#B7C1CA"/></linearGradient><linearGradient x1="99.995" x2="97.165" y1="18.487" y2="22.808" gradientUnits="userSpaceOnUse" gradientTransform="matrix(1.012 0 0 1.242 -88.62 -3.302)"><stop offset="0" stop-color="#D4DDDF"/><stop offset=".528" stop-color="#fff"/><stop offset="1" stop-color="#D4DDDF"/></linearGradient><linearGradient x1="1097.176" x2="1099.262" y1="182.992" y2="179.317" xlink:href="#a" gradientUnits="userSpaceOnUse" gradientTransform="matrix(1.015 0 0 1.015 -1073.384 -162.074)"/><linearGradient x1="1079.588" x2="1068.418" y1="172.449" y2="190.534" xlink:href="#b" gradientUnits="userSpaceOnUse" gradientTransform="matrix(1.015 0 0 1.015 -1073.384 -162.074)"/><linearGradient x1="1072.471" x2="1066.373" y1="176.66" y2="184.198" xlink:href="#c" gradientUnits="userSpaceOnUse" gradientTransform="matrix(1.015 0 0 1.015 -1073.384 -162.074)"/><linearGradient x1="1069.678" x2="1066.847" y1="178.874" y2="183.194" xlink:href="#d" gradientUnits="userSpaceOnUse" gradientTransform="matrix(1.015 0 0 1.015 -1073.384 -162.074)"/><linearGradient id="h" x1="1069.678" x2="1066.847" y1="178.874" y2="183.194" xlink:href="#d" gradientUnits="userSpaceOnUse" gradientTransform="matrix(.852 0 0 1.243 -899.883 -204.12)"/><linearGradient id="g" x1="1072.471" x2="1066.373" y1="176.66" y2="184.198" xlink:href="#c" gradientUnits="userSpaceOnUse" gradientTransform="matrix(.852 0 0 1.243 -899.883 -204.12)"/><linearGradient id="f" x1="1079.588" x2="1068.418" y1="172.449" y2="190.534" xlink:href="#b" gradientUnits="userSpaceOnUse" gradientTransform="matrix(1.074 0 0 1.447 -1137.948 -243.024)"/><linearGradient id="e" x1="1097.176" x2="1099.262" y1="182.992" y2="179.317" xlink:href="#a" gradientUnits="userSpaceOnUse" gradientTransform="matrix(1.074 0 0 1.447 -1137.948 -243.024)"/></defs><g><path fill="url(#e)" d="M47.62 27.96c-.23-7.9-5.1-13.85-12.14-12.8-1 .15-2 .4-2.98.8l15.12 12z"/><path fill="none" stroke="#a40e0a" stroke-width=".7" d="M37.7 20.07c-1.18-5.15-7.82-8.67-12.87-7.27-7.3 2.02-12.94 8.15-15.14 17.32"/><path fill="url(#f)" d="M16.48 41.24l-16-26.1C6.93 6.9 15.16 6 24.07 8.72c2.37 2.4 8.37 4.77 15.1 6.53l-.3-.05c-1.06-.2-2.2-.22-3.38-.04-8.38 1.25-16.72 10.8-18.63 21.32-.32 1.74-.43 3.2-.37 4.76z"/><path fill="url(#g)" d="M1.7 13.48l22.7 8.13c-4.48 4.97-7.02 11.13-7.37 13.97L1.7 13.47z"/><path fill="url(#h)" d="M21.28 25.27c-1.06 1.8-2.56 4.25-3.43 7.1L1.7 13.46l19.58 11.8z"/><path fill="none" stroke="#363f4c" stroke-width=".5" d="M23.6 8.57c3.74 3.6 8.83 4.92 15.55 6.68"/><path fill="none" stroke="#363f4c" stroke-width=".5" d="M16.48 41.24l-16-26.1"/><path fill="none" stroke="#363f4c" stroke-width=".5" d="M32.5 15.95l15.12 12"/><path fill="none" stroke="#ed2829" stroke-width=".7" d="M31.5 13.16c-1.88-.6-4.88-.86-6.67-.37C17.53 14.8 11.9 20.94 9.7 30.1"/><path fill="none" stroke="#ed2829" stroke-width=".7" d="M27.33 11.45c-2.46-1.1-6.03-1.4-9.08-.76-6.73 1.4-11.8 5.57-13.73 10.93"/><path fill="none" stroke="#ed2829" stroke-width=".7" d="M24.14 9.4c-.75-1.47-8.52-2.5-12.9-1.53C5.12 9.2 2.43 12.57.67 15.3"/><path fill="none" stroke="#ed2829" d="M47.62 27.96c-.23-7.9-5.1-13.85-12.14-12.8-8.38 1.25-16.72 10.8-18.63 21.32-.32 1.74-.43 3.2-.37 4.76"/></g></svg>