<svg xmlns="http://www.w3.org/2000/svg" width="48" height="48" xmlns:xlink="http://www.w3.org/1999/xlink"><defs><linearGradient id="a"><stop offset="0" stop-color="#2e3436"/><stop offset="1" stop-color="#2e3436" stop-opacity="0"/></linearGradient><linearGradient><stop offset="0" stop-color="#3465a4" stop-opacity="0"/><stop offset=".5" stop-color="#a9c5e2"/><stop offset="1" stop-color="#3465a4" stop-opacity="0"/></linearGradient><linearGradient id="b" x1="20.381" x2="33.619" y1="47.143" y2="36.476" xlink:href="#a" gradientUnits="userSpaceOnUse"/></defs><g><path fill="url(#b)" fill-rule="evenodd" d="M20.38 45.43l6.95-2.67 4.1-7.9 1.43.66L30 42.57l12-1.24.48 1.34-12.96 2.47-7.9 2.86-1.24-2.57z"/><path fill="#183969" fill-rule="evenodd" d="M13.4-.03c-.5.04-.94.33-1.18.78s-.25 1 0 1.44l2.84 5.5-7.2-1.64c-.13-.03-.28-.04-.42-.03-.76.04-1.35.62-1.4 1.38-.06.76.44 1.45 1.18 1.6l9.84 2.22 6.16 7.97-.13 9.08L17.2 23l-4.42-4.44-.72-6.18c-.08-.78-.75-1.37-1.53-1.35-.42.02-.82.2-1.1.53-.27.32-.4.74-.34 1.16l.46 4.03-5.53-2.56c-.22-.12-.47-.18-.72-.17-.7.03-1.27.53-1.4 1.22-.12.7.24 1.38.88 1.66l7.3 3.38 3.33 3.2-6 2.77L2.3 23.2c-.26-.17-.57-.25-.87-.23-.67.03-1.25.5-1.4 1.16-.15.65.16 1.33.75 1.65l4.22 2.5-3.3 3.06c-.47.35-.68.9-.58 1.47.1.57.5 1.05 1.06 1.2.55.15 1.15-.04 1.53-.47l4.4-4.06c.04-.02.1-.04.15-.06.2-.1.37-.25.5-.43l6.97-3.25 7.25 6.5-2.94 13.97c-.17.8.35 1.6 1.16 1.77.8.17 1.6-.35 1.77-1.16l2.8-13.24 7.6.4 7.57 5.13s.02.02.03.02H41s.02.03.03.04l4.25 5.56c.3.48.84.74 1.4.7.57-.07 1.1-.42 1.3-.95.2-.53.06-1.15-.32-1.56l-3.32-4.3 2.88-1.3c.72-.27 1.12-1.05.9-1.8-.2-.75-.95-1.2-1.7-1.06-.15.02-.3.06-.42.12l-3.84 1.72-5.6-3.78 4.94-3.88 4.75.97c.54.13 1.1-.03 1.47-.44.37-.4.5-1 .3-1.54-.17-.52-.63-.88-1.18-.96l-3.37-.7L46 20.8c.25-.48.24-1.05-.06-1.5-.3-.45-.84-.72-1.38-.7-.54.05-1 .37-1.25.86l-3.05 6.25c-.3.15-.52.37-.66.68l-5.88 4.6-5.5-.32 6.9-7.63.07-.06 7.86-5.44 4.06-1.6c.8-.2 1.27-1 1.07-1.8-.22-.8-1.02-1.3-1.83-1.1-.12.03-.25.07-.37.13l-1.97.78.22-4.38c.03-.43-.13-.85-.44-1.15-.3-.3-.7-.46-1.14-.43-.77.05-1.38.67-1.4 1.44l-.32 5.97-5.16 3.57.38-3.78 3.72-8.38c.22-.5.18-1.06-.13-1.5-.3-.44-.84-.67-1.38-.62-.55.04-1.03.4-1.24.9l-2.66 5.97-1.6-2.4c-.3-.5-.86-.76-1.43-.7-.53.07-.97.4-1.2.88-.2.5-.16 1.05.14 1.48l2.78 4.2-.63 6.4-6.44 7.15.12-9.5 2.7-9.37 5.55-7.16c.37-.47.43-1.1.16-1.63-.28-.52-.85-.85-1.44-.8-.45.02-.84.24-1.1.6L28.1 5.74l-1.2-4.63C26.7.36 25.96-.14 25.18 0c-.43.07-.8.33-1 .7-.24.34-.3.77-.2 1.18l1.9 7.3-1.77 6.26-5-6.47-.1-.13L14.87.8c-.26-.54-.85-.88-1.46-.83z"/><g fill="none" stroke="#3465a4" stroke-width="2" stroke-linecap="round"><path d="M21.25 46.2l3.07-14.48.16-13.33-6.8-8.8-10.4-2.34"/><path d="M24.75 31.72l9.06-10.05 8.28-5.73 4.22-1.68"/><path d="M24.48 18.52l2.74-9.56-2.03-7.73"/><path d="M33.75 21.67l.7-7.4-3.08-4.6"/><path d="M17.68 9.74L13.3 1.2"/><path d="M27.22 8.77l5.8-7.46"/><path d="M34.44 14.47l3.8-8.57"/><path d="M42.14 15.82l.35-6.6"/><path d="M24.75 31.72l9.17.5 7.18-5.64 3.3-6.75"/><path d="M40.75 26.72l5.55 1.13"/><path d="M33.75 32.3l8 5.42 4.47 5.8"/><path d="M41.75 37.72l4.62-2.06"/><path d="M24.75 31.72l-9.02-8.06-8.32 3.86-5 4.65"/><path d="M15.86 23.8l-4.8-4.87-7.92-3.67"/><path d="M11.1 19.1l-.78-6.82"/><path d="M7.17 27.72l-5.92-3.5"/></g><path fill="none" stroke="#729fcf" d="M20.78 46.2l3.16-16.1.16-13.23-6.13-7.83L7.3 6.88" stroke-linecap="round"/><path fill="none" stroke="#729fcf" d="M25.03 30.96l8.2-9 9.33-6.4 4.22-1.68" stroke-linecap="round"/><path fill="none" stroke="#729fcf" d="M24.38 17l2.65-8.23-2.13-7.54" stroke-linecap="round"/><path fill="none" stroke="#729fcf" d="M33.37 21.77l.8-8.73-2.33-3.75" stroke-linecap="round"/><path fill="none" stroke="#729fcf" d="M18.16 9.36L13.78.83" stroke-linecap="round"/><path fill="none" stroke="#729fcf" d="M27.03 8.3l5.9-7.37" stroke-linecap="round"/><path fill="none" stroke="#729fcf" d="M34.63 13.04l3.43-7.52" stroke-linecap="round"/><path fill="none" stroke="#729fcf" d="M41.86 16.2l.35-7.18" stroke-linecap="round"/><path fill="none" stroke="#729fcf" d="M23.98 31.25l9.85.7L41 26.28l3.4-6.85" stroke-linecap="round"/><path fill="none" stroke="#729fcf" d="M41.22 26.34l5.56 1.13" stroke-linecap="round"/><path fill="none" stroke="#729fcf" d="M34.22 31.9l7.53 5.25 4.95 6" stroke-linecap="round"/><path fill="none" stroke="#729fcf" d="M41.75 37.25l4.7-1.97" stroke-linecap="round"/><path fill="none" stroke="#729fcf" d="M23.9 30.4l-7.7-7.12-8.3 3.85-5 4.66" stroke-linecap="round"/><path fill="none" stroke="#729fcf" d="M16.33 23.4l-4.8-4.85-7.9-3.67" stroke-linecap="round"/><path fill="none" stroke="#729fcf" d="M11.6 18.72l-.8-6.82" stroke-linecap="round"/><path fill="none" stroke="#729fcf" d="M7.65 27.34l-5.92-3.5" stroke-linecap="round"/></g></svg>