<svg xmlns="http://www.w3.org/2000/svg" width="48" height="48" xmlns:xlink="http://www.w3.org/1999/xlink"><defs><linearGradient id="a"><stop offset="0" stop-color="#c3c9be"/><stop offset=".181" stop-color="#fff"/><stop offset=".539" stop-color="#bbc2b5"/><stop offset="1" stop-color="#4f5748"/></linearGradient><linearGradient id="b" x1="6.319" x2="24.171" y1="25.882" y2="25.882" xlink:href="#a" gradientUnits="userSpaceOnUse" gradientTransform="matrix(.931 0 0 .931 1.417 1.867)"/><linearGradient id="c" x1="26.33" x2="45.065" y1="30.471" y2="34.34" xlink:href="#a" gradientUnits="userSpaceOnUse" gradientTransform="matrix(.931 0 0 .931 1.417 1.867)"/></defs><g><path fill="none" stroke="#eeeeec" stroke-width="2.5" d="M16.5 38.65l8.27-4.06" color="#000" stroke-linejoin="bevel" overflow="visible" enable-background="accumulate"/><path fill="none" stroke="#eeeeec" stroke-width="2.5" d="M45.16 37.67l-6.45-1.82" color="#000" stroke-linejoin="bevel" overflow="visible" enable-background="accumulate"/><path fill="none" stroke="#eeeeec" stroke-width="2.5" d="M28.83 14.63l-.2 11.7" color="#000" stroke-linejoin="bevel" overflow="visible" enable-background="accumulate"/><path fill="none" stroke="#eeeeec" stroke-width="2.5" d="M1.23 15.2l.7 18.4L34.1 45.04l11.06-7.36L46.7 18" color="#000" stroke-linejoin="bevel" overflow="visible" enable-background="accumulate"/><path fill="none" stroke="#eeeeec" stroke-width="2.5" d="M46.77 18.06L14.2 11.83 1.22 15.2" stroke-linejoin="bevel"/><path fill="url(#b)" fill-rule="evenodd" stroke="#000" d="M24.22 33.46c0 1.47-3.87 2.67-8.65 2.67-4.77 0-8.64-1.2-8.64-2.67L6.5 15.84l18.28-.06-.56 17.68z" color="#000" overflow="visible" enable-background="accumulate"/><path fill="none" stroke="#eeeeec" stroke-width="2.5" d="M16.57 38.86l-.2-20.17 12.74-4.07" color="#000" stroke-linejoin="bevel" overflow="visible" enable-background="accumulate"/><path fill="none" stroke="#4f950c" stroke-width=".75" d="M16.6 38.57l8.27-4.06" color="#000" stroke-linejoin="bevel" overflow="visible" enable-background="accumulate"/><path fill="none" stroke="#4f950c" stroke-width=".75" d="M45.26 37.6l-6.44-1.83" color="#000" stroke-linejoin="bevel" overflow="visible" enable-background="accumulate"/><path fill="none" stroke="#4f950c" stroke-width=".75" d="M28.94 14.55l-.2 11.7" color="#000" stroke-linejoin="bevel" overflow="visible" enable-background="accumulate"/><path fill="url(#c)" fill-rule="evenodd" stroke="#000" d="M41.16 38.03c-.08 2.87-4.6 4.25-10.07 4.04-5.48-.2-10.13-2.27-10.05-4.9l10.73-18.8 9.38 19.66z" color="#000" overflow="visible" enable-background="accumulate"/><path fill="none" stroke="#eeeeec" stroke-width="2.5" d="M1.23 15.2l34.05 7.84 11.5-4.98" stroke-linejoin="bevel"/><path fill="#d3d7cf" fill-rule="evenodd" stroke="#000" stroke-width=".538" d="M25.93 11.4a9.8 2.54 0 1 1-19.57 0 9.8 2.54 0 1 1 19.57 0z" transform="matrix(.934 0 0 .924 .564 5.287)" color="#000" overflow="visible" enable-background="accumulate"/><path fill="none" stroke="#4f950c" stroke-width=".75" d="M16.68 38.78l-.2-20.17 12.74-4.05" color="#000" stroke-linejoin="bevel" overflow="visible" enable-background="accumulate"/><path fill="none" stroke="#4f950c" stroke-width=".75" d="M1.33 15.1l34.05 7.86 11.5-4.98-32.6-6.23L1.34 15.1z" stroke-linejoin="bevel"/><path fill="none" stroke="#4f950c" stroke-width=".75" d="M1.33 15.1l.7 18.43L34.2 44.95l11.06-7.36 1.54-19.7" color="#000" stroke-linejoin="bevel" overflow="visible" enable-background="accumulate"/></g></svg>