<svg xmlns="http://www.w3.org/2000/svg" width="48" height="48" xmlns:xlink="http://www.w3.org/1999/xlink"><defs><linearGradient id="b"><stop offset="0" stop-color="#c7c7c7"/><stop offset="1" stop-color="#979797"/></linearGradient><linearGradient id="a"><stop offset="0" stop-color="#efefef"/><stop offset="1" stop-color="#b7b7b7"/></linearGradient><marker orient="auto" overflow="visible"><path fill-rule="evenodd" stroke="#000" stroke-width=".4pt" d="M2.3 0l-3.45 2v-4L2.3 0z"/></marker><marker orient="auto" overflow="visible"><path fill-rule="evenodd" d="M-10.7-4.44L1.34-.02-10.7 4.4c1.93-2.6 1.92-6.18 0-8.84z" font-size="12"/></marker><radialGradient id="c" cx="7.435" cy="17.974" r="7.507" xlink:href="#a" fx="7.435" fy="17.974" gradientTransform="matrix(1.636 3.637 -2.363 1.063 38.407 -35.886)" gradientUnits="userSpaceOnUse"/><radialGradient id="e" cx="8.314" cy=".205" r="16.972" xlink:href="#a" fx="8.314" fy=".205" gradientTransform="matrix(1.425 .355 -.244 .98 -2.864 5.915)" gradientUnits="userSpaceOnUse"/><radialGradient id="d" cx="18.818" cy="21.156" r="11.34" xlink:href="#b" fx="18.818" fy="21.156" gradientTransform="matrix(1.309 1.436 -1.172 1.069 19.111 -30.014)" gradientUnits="userSpaceOnUse"/></defs><g><g fill="none" stroke="#eeeeec" stroke-width="3.146"><path fill-rule="evenodd" d="M5.14 3.16L2.3 5.7l-.78-3.73 3.62 1.2z"/></g><path fill="none" stroke="#eeeeec" stroke-width="3" d="M7.22 8.7L3.27 3.84"/><g fill="none" stroke="#eeeeec" stroke-width="4.181"><path fill-rule="evenodd" d="M30.5 6.88L25.54 5.3 28.58 4l1.93 2.9z"/></g><path fill="none" stroke="#eeeeec" stroke-width="3" d="M26.8 9.34l1.3-3.68"/><g fill="none" stroke="#eeeeec" stroke-width="3.146"><path fill-rule="evenodd" d="M42.1 10.17l2.13 3.16L45.9 9.9l-3.8.27z"/></g><path fill="none" stroke="#eeeeec" stroke-width="3" d="M38.53 15.02l5-3.72"/><path fill="none" stroke="#eeeeec" stroke-width="3" d="M15.3 42.18l7.07 2.22-4.32 1.86-2.74-4.08z"/><path fill="none" stroke="#eeeeec" stroke-width="3" d="M20.56 38.73l-1.82 5.17"/><path fill="none" stroke="#eeeeec" stroke-width="2.8499999999999996.146" d="M8.78 9a1.26 1.26 0 1 1-2.52 0 1.26 1.26 0 1 1 2.52 0z" stroke-linejoin="round" overflow="visible" enable-background="accumulate"/><path fill="none" stroke="#eeeeec" stroke-width="2.8499999999999996.146" d="M28.1 9.23a1.26 1.26 0 1 1-2.53 0 1.26 1.26 0 1 1 2.52 0z" stroke-linejoin="round" overflow="visible" enable-background="accumulate"/><path fill="none" stroke="#eeeeec" stroke-width="2.8499999999999996.146" d="M39.67 14.95a1.26 1.26 0 1 1-2.52 0 1.26 1.26 0 1 1 2.52 0z" stroke-linejoin="round" overflow="visible" enable-background="accumulate"/><path fill="none" stroke="#eeeeec" stroke-width="2.8499999999999996.146" d="M21.83 38.52a1.26 1.26 0 1 1-2.52 0 1.26 1.26 0 1 1 2.53 0z" stroke-linejoin="round" overflow="visible" enable-background="accumulate"/><g fill="none" stroke="#eeeeec" stroke-width="2.22"><path fill-rule="evenodd" d="M40.95 44.7l3.5-4.13 1.82 5.1-5.32-.98z"/></g><path fill="none" stroke="#eeeeec" stroke-width="3" d="M35 36.76l9.6 7.43"/><path fill="none" stroke="#eeeeec" stroke-width="2.8499999999999996.146" d="M33.42 36.46c0-.97 1.05-1.58 1.9-1.1.38.23.62.65.62 1.1 0 .97-1.05 1.57-1.9 1.1-.38-.24-.62-.65-.62-1.1z" stroke-linejoin="round" overflow="visible" enable-background="accumulate"/><g fill="none" stroke="#eeeeec" stroke-width="3.146"><path fill-rule="evenodd" d="M6.68 36.08L5.7 32.4 3 35.08l3.68 1z"/></g><path fill="none" stroke="#eeeeec" stroke-width="3" d="M11.65 32.68L5.7 34.54"/><path fill="none" stroke="#eeeeec" stroke-width="2.8499999999999996.146" d="M10.54 32.37c.32-.92 1.5-1.14 2.15-.4.28.33.37.8.22 1.23-.32.9-1.5 1.14-2.14.4-.3-.33-.4-.8-.24-1.23z" stroke-linejoin="round" overflow="visible" enable-background="accumulate"/><path fill="url(#c)" fill-rule="evenodd" stroke="#555753" d="M11.84 32.25L7.2 8.5l10.7 10.53 2.67 19.7-8.73-6.48z" stroke-linejoin="round"/><path fill="url(#d)" fill-rule="evenodd" stroke="#555753" d="M17.95 19.03l20.67-4.07-4.3 21.28-13.75 2.48-2.62-19.7z" stroke-linejoin="round"/><path fill="none" stroke="#fff" stroke-opacity=".502" d="M19 19.92l18.36-3.73-3.9 19.3-12.04 2-2.4-17.58z"/><path fill="url(#e)" fill-rule="evenodd" stroke="#555753" d="M7.26 8.5l19.56.6 11.85 5.75L18 19.05 7.27 8.5z" stroke-linejoin="round"/><path fill="none" stroke="#fff" stroke-opacity=".502" d="M26.27 10l9.37 4.5L18.3 18 9.7 9.67l16.6.34z"/><path fill="none" stroke="#fff" stroke-opacity=".502" d="M8.8 11.4l8.2 8.13 2.3 17.26-6.6-5.37L8.8 11.4z"/><path fill="#c00" fill-rule="evenodd" stroke="#c00" d="M7.14 8.52L3.2 3.68"/><path fill="#c00" fill-rule="evenodd" stroke="#c00" d="M38.45 14.86l5-3.73"/><path fill="#c00" fill-rule="evenodd" d="M14.24 41.16L23.28 44l-5.53 2.38-3.5-5.22z"/><path fill="#c00" fill-rule="evenodd" stroke="#c00" d="M20.48 38.56l-1.82 5.17"/><path fill="#c00" fill-rule="evenodd" d="M8.7 8.83a1.26 1.26 0 1 1-2.52 0 1.26 1.26 0 1 1 2.52 0z" overflow="visible" enable-background="accumulate"/><path fill="#c00" fill-rule="evenodd" d="M28 9.06a1.26 1.26 0 1 1-2.5 0 1.26 1.26 0 1 1 2.5 0z" overflow="visible" enable-background="accumulate"/><path fill="#c00" fill-rule="evenodd" d="M39.6 14.8a1.26 1.26 0 1 1-2.53 0 1.26 1.26 0 1 1 2.52 0z" overflow="visible" enable-background="accumulate"/><path fill="#c00" fill-rule="evenodd" d="M21.75 38.35a1.26 1.26 0 1 1-2.52 0 1.26 1.26 0 1 1 2.52 0z" overflow="visible" enable-background="accumulate"/><g><path fill="#c00" fill-rule="evenodd" d="M40.87 44.52l3.5-4.1 1.8 5.08-5.3-.98z"/></g><path fill="#c00" fill-rule="evenodd" stroke="#c00" d="M34.9 36.6l9.6 7.42"/><path fill="#c00" fill-rule="evenodd" d="M33.34 36.3c0-.98 1.05-1.6 1.9-1.1.38.22.62.64.62 1.1 0 .96-1.05 1.57-1.9 1.08-.38-.22-.62-.64-.62-1.1z" overflow="visible" enable-background="accumulate"/><g><path fill="#c00" fill-rule="evenodd" d="M6.6 35.9l-.97-3.67-2.7 2.7 3.67.98z"/></g><path fill="#c00" fill-rule="evenodd" stroke="#c00" d="M11.57 32.5L5.6 34.4"/><path fill="#c00" fill-rule="evenodd" d="M10.46 32.2c.32-.9 1.5-1.14 2.15-.4.3.34.4.8.24 1.23-.32.92-1.5 1.15-2.14.4-.3-.33-.4-.8-.24-1.23z" overflow="visible" enable-background="accumulate"/><g><path fill="#c00" fill-rule="evenodd" d="M5.54 2.82l-3.6 3.22-1-4.74 4.6 1.52z"/></g><path fill="#c00" fill-rule="evenodd" stroke="#c00" d="M26.73 9.18L28 5.5"/><g><path fill="#c00" fill-rule="evenodd" d="M30.43 6.72l-4.98-1.58L28.5 3.8l1.93 2.92z"/></g><g><path fill="#c00" fill-rule="evenodd" d="M42 10l2.15 3.17 1.66-3.43L42 10z"/></g></g></svg>