<svg xmlns="http://www.w3.org/2000/svg" width="48" height="48" xmlns:xlink="http://www.w3.org/1999/xlink"><defs><linearGradient id="l"><stop offset="0" stop-color="#fff"/><stop offset="1" stop-color="#fff" stop-opacity="0"/></linearGradient><linearGradient id="k"><stop offset="0" stop-color="#eeeeec"/><stop offset="1" stop-color="#eeeeec" stop-opacity="0"/></linearGradient><linearGradient id="j"><stop offset="0" stop-color="#2e3436"/><stop offset="1" stop-color="#2e3436" stop-opacity="0"/></linearGradient><linearGradient id="i"><stop offset="0"/><stop offset="1" stop-color="#2e3436"/></linearGradient><linearGradient id="h"><stop offset="0" stop-color="#987c00"/><stop offset="1" stop-color="#c4a000" stop-opacity="0"/></linearGradient><linearGradient id="g"><stop offset="0" stop-color="#2e3436"/><stop offset="1" stop-color="#2e3436" stop-opacity="0"/></linearGradient><linearGradient id="f"><stop offset="0" stop-color="#c9cdc3"/><stop offset="1" stop-color="#fff"/></linearGradient><linearGradient id="e"><stop offset="0" stop-color="#2e3436"/><stop offset="1" stop-color="#2e3436" stop-opacity="0"/></linearGradient><linearGradient id="d"><stop offset="0" stop-color="#555753"/><stop offset="1" stop-color="#2e3436"/></linearGradient><linearGradient id="c"><stop offset="0" stop-color="#2e3436"/><stop offset="1" stop-color="#9d9f9b"/></linearGradient><linearGradient id="b"><stop offset="0" stop-color="#f0f0f0"/><stop offset="1" stop-color="#7c8770"/></linearGradient><linearGradient id="a"><stop offset="0" stop-color="#e2e2e2"/><stop offset="1" stop-color="#a8b0a0"/></linearGradient><linearGradient x1="3.746" x2="20.087" y1="7.578" y2="37.546" xlink:href="#a" gradientUnits="userSpaceOnUse" gradientTransform="matrix(.89 0 0 .891 .075 1.683)"/><linearGradient id="n" x1="16.065" x2="28.341" y1="1.343" y2="36.403" xlink:href="#b" gradientUnits="userSpaceOnUse" gradientTransform="matrix(.89 0 0 .891 .075 1.74)"/><linearGradient id="p" x1="6.039" x2="14.448" y1="11.225" y2="27.999" xlink:href="#c" gradientUnits="userSpaceOnUse"/><linearGradient x1="1.46" x2="19.643" y1="8.34" y2="39.197" xlink:href="#d" gradientUnits="userSpaceOnUse" gradientTransform="matrix(.89 0 0 .891 .075 1.74)"/><linearGradient x1="12" x2="13.206" y1="21.365" y2="22.635" xlink:href="#e" gradientUnits="userSpaceOnUse" gradientTransform="matrix(.89 0 0 .891 .075 1.74)"/><linearGradient id="o" x1="8.169" x2="15.212" y1="10.719" y2="25.882" xlink:href="#f" gradientUnits="userSpaceOnUse"/><linearGradient id="q" x1="23.238" x2="24.317" y1="28.698" y2="32.444" xlink:href="#g" gradientUnits="userSpaceOnUse" gradientTransform="translate(0 2.032)"/><linearGradient id="s" x1="24.952" x2="26.667" y1="28.095" y2="31.587" xlink:href="#h" gradientUnits="userSpaceOnUse" gradientTransform="translate(0 2.032)"/><linearGradient id="r" x1="25.143" x2="25.143" y1="25.016" y2="29.714" xlink:href="#i" gradientUnits="userSpaceOnUse" gradientTransform="translate(0 2.032)"/><linearGradient id="m" x1="23.429" x2="62.857" y1="33.556" y2="54.254" xlink:href="#j" gradientUnits="userSpaceOnUse" gradientTransform="matrix(1 -.024 .024 1 -20.992 -5.784)"/><linearGradient x1="23.175" x2="28.317" y1="11.905" y2="22.508" xlink:href="#k" gradientUnits="userSpaceOnUse"/><linearGradient id="u" x1="23.175" x2="28.317" y1="11.905" y2="22.508" xlink:href="#k" gradientUnits="userSpaceOnUse"/><linearGradient id="t" x1="19.333" x2="21.342" y1="6.339" y2="19.165" xlink:href="#l" gradientUnits="userSpaceOnUse"/></defs><g><path fill="url(#m)" fill-rule="evenodd" d="M-.34 28.77l20.15 9.8 1.4-.38 19.95 9.76 6.84-3.4-20.3-8.66 1.76-.45L7.3 26.5l-7.64 2.27z"/><path fill="url(#n)" fill-rule="evenodd" stroke="#555753" stroke-width="1.5" d="M19.4 36.7L.73 27.76V15.27s.48-8.63 6.02-10.2l10.62-2c1.2-.04 3.94.37 4.76.72 7.75 3.22 7.9 14.6 7.9 14.6v15.45L19.4 36.7z" color="#000" stroke-linejoin="bevel" overflow="visible"/><path fill="url(#o)" fill-rule="evenodd" stroke="url(#p)" stroke-width="2.017" d="M17.65 19.46a6.76 10.25 0 1 1-13.52 0 6.76 10.25 0 1 1 13.52 0z" transform="matrix(.739 -.045 .045 .745 .849 5.068)" color="#000" stroke-linejoin="bevel" overflow="visible"/><path fill="none" stroke="#fff" d="M19.5 35.38L1.96 26.86V16s.33-8.7 5.23-9.66l11.5-2.28c5.15.75 8.94 4.6 10.15 13.4l.2 15.56-9.52 2.36z"/><path fill="url(#q)" fill-rule="evenodd" d="M20.13 31.5l9.27-2.1-.13 3.74-9.08 2.23-.07-3.88z"/><path fill="url(#r)" fill-rule="evenodd" d="M20.13 28.38l9.27-2.35-.13 5.08-9.08 2.23-.07-4.95z"/><path fill="#fce94f" fill-rule="evenodd" stroke="#c4a000" d="M29.02 29.65l18.8 6.73-8.58 2.8-17.78-7.56 7.56-1.97z" stroke-linejoin="bevel"/><path fill="none" stroke="#eeeeec" d="M29 30.7l13.45 4.96-4.88 1.72L24.6 31.8l4.4-1.1z"/><path fill="url(#s)" fill-rule="evenodd" d="M20.2 31.5l8.94-2.42 4.7 2.03-8.76 3-4.9-2.6z"/><path fill="none" stroke="#000" d="M31.3 30.35l-3.24 1.08"/><path fill="none" stroke="#000" d="M34.76 31.65l-3.24 1.08"/><path fill="none" stroke="#000" d="M38.44 32.98l-3.23 1.08"/><path fill="none" stroke="#000" d="M42.06 34.32l-3.23 1.08"/><path fill="none" stroke="#000" d="M45.62 35.52l-3.24 1.08"/><path fill="#d3d7cf" fill-rule="evenodd" stroke="#555753" d="M35.75 37.14l8.12-2.66 3.75 1.2-.13 2.22c-2.13 5.03-4.52 5.3-7.82 3.05l-3.93-1.9v-1.9z"/><path fill="#fff" fill-rule="evenodd" d="M36.25 37.52l7.56-2.54L47.06 36l-7.18 2.86-3.62-1.34z"/><path fill="#888a85" fill-rule="evenodd" d="M39.94 38.95l7.17-2.98.14 1.78c-2.53 5.77-4.88 4.08-7.24 2.8l-.06-1.6z"/><path fill="url(#t)" fill-rule="evenodd" d="M19.02 3.6L8.6 5.46c8.2 2.14 10.67 6.04 10.67 14.8l10.14-2.2C29.3 9.8 24.2 4.34 19.03 3.6z"/><g fill-rule="evenodd"><path fill="#ef2929" stroke="#7f0000" stroke-width=".85.182" d="M20.55 13.3l5.17-.95 5.8 8.95c-.95 2.14-2.26 2.47-3.55 2.96l-5.6 1.5c.1-3.37-.2-8.9-1.82-12.45z"/><path fill="#a40000" d="M22.68 25.38c.84-.6 2.1-.52 2.25-2.27l6.17-1.73c-.52 1.1-1.4 1.94-2.66 2.5l-5.76 1.5z"/><path fill="url(#u)" d="M20.5 12.44l4.26 11.37 7.3-1.9-6.16-10.47-5.4 1z" transform="matrix(.845 -.025 .025 .845 3.392 3.669)"/></g></g></svg>