<svg xmlns="http://www.w3.org/2000/svg" width="48" height="48" xmlns:xlink="http://www.w3.org/1999/xlink"><defs><linearGradient id="d"><stop offset="0" stop-color="#2e3436" stop-opacity=".392"/><stop offset="1" stop-color="#2e3436" stop-opacity="0"/></linearGradient><linearGradient id="c"><stop offset="0" stop-color="#fbfdff"/><stop offset="1" stop-color="#8bafe5"/></linearGradient><linearGradient id="b"><stop offset="0" stop-color="#00419e" stop-opacity="0"/><stop offset=".445" stop-color="#00419e" stop-opacity="0"/><stop offset=".673" stop-color="#00419e" stop-opacity=".474"/><stop offset="1" stop-color="#00419e" stop-opacity="0"/></linearGradient><linearGradient id="a"><stop offset="0" stop-color="#fff"/><stop offset="1" stop-color="#fff" stop-opacity="0"/></linearGradient><radialGradient cx="10.511" cy="14.044" r="10.719" xlink:href="#a" fx="10.511" fy="14.044" gradientUnits="userSpaceOnUse" gradientTransform="matrix(.813 .62 -.607 .795 10.485 -3.642)"/><radialGradient cx="11.551" cy="14.333" r="10.719" xlink:href="#a" gradientUnits="userSpaceOnUse" fx="11.551" fy="14.333" gradientTransform="matrix(.693 .436 -.532 .847 11.172 -2.837)"/><radialGradient cx="14.36" cy="19.118" r="9.104" xlink:href="#b" fx="14.36" fy="19.118" gradientTransform="matrix(.784 .559 -1.087 1.525 24.181 -18.374)" gradientUnits="userSpaceOnUse"/><radialGradient cx="14.36" cy="19.118" r="9.104" xlink:href="#b" gradientUnits="userSpaceOnUse" gradientTransform="matrix(.842 .6 -1.168 1.639 46.425 -9.501)" fx="14.36" fy="19.118"/><linearGradient x1="4.54" x2="44.793" y1="9.17" y2="35.012" xlink:href="#c" gradientUnits="userSpaceOnUse" gradientTransform="matrix(1 0 0 1.007 0 -.268)"/><linearGradient id="i" x1="4.54" x2="44.793" y1="9.17" y2="35.012" xlink:href="#c" gradientUnits="userSpaceOnUse" gradientTransform="matrix(1.004 0 0 1.009 .396 -3.491)"/><radialGradient id="h" cx="14.36" cy="19.118" r="9.104" xlink:href="#b" gradientUnits="userSpaceOnUse" gradientTransform="matrix(.845 .602 -1.172 1.644 46.985 -12.749)" fx="14.36" fy="19.118"/><radialGradient id="g" cx="14.36" cy="19.118" r="9.104" xlink:href="#b" gradientUnits="userSpaceOnUse" gradientTransform="matrix(.787 .56 -1.091 1.529 24.662 -21.645)" fx="14.36" fy="19.118"/><radialGradient id="f" cx="11.551" cy="14.333" r="10.719" xlink:href="#a" gradientUnits="userSpaceOnUse" gradientTransform="matrix(.693 .436 -.532 .847 11.172 -2.837)" fx="11.551" fy="14.333"/><radialGradient id="e" cx="10.511" cy="14.044" r="10.719" xlink:href="#a" gradientUnits="userSpaceOnUse" gradientTransform="matrix(.813 .62 -.607 .795 10.485 -3.642)" fx="10.511" fy="14.044"/><radialGradient id="k" cx="11.994" cy="44.137" r="10.876" xlink:href="#d" fx="11.994" fy="44.137" gradientTransform="matrix(1 0 0 .439 0 24.75)" gradientUnits="userSpaceOnUse"/><radialGradient id="j" cx="11.994" cy="44.137" r="10.876" xlink:href="#d" fx="11.994" fy="44.137" gradientTransform="matrix(1 0 0 .439 0 24.75)" gradientUnits="userSpaceOnUse"/><radialGradient id="l" cx="11.994" cy="44.137" r="10.876" xlink:href="#d" gradientUnits="userSpaceOnUse" gradientTransform="matrix(1 0 0 .439 0 24.75)" fx="11.994" fy="44.137"/></defs><g color="#000"><path fill="#729fcf" fill-rule="evenodd" stroke="#132c51" stroke-width="2" d="M34.6 12.94c7.42 0 12.8 5.68 12.8 12.67 0 7-5.62 12.68-12.55 12.68-3.46 0-6.6-1.4-9-3.88-3.33-3.43-3.44-9-4.88-9.86-1.43-.86-3.9 1.15-8 1.2-6.8-.02-11.95-5.33-11.95-11.88C1.02 7.3 6.36 2 12.94 2c3.3 0 6.27 1.33 8.5 3.6 3.26 2.98 3.18 8.42 4.9 9.04 1.7.62 4.9-1.65 8.25-1.7z" stroke-linejoin="round" overflow="visible"/><path fill="url(#e)" fill-rule="evenodd" d="M23.5 17a10.6 10.6 0 1 1-21.2 0 10.6 10.6 0 1 1 21.2 0z" transform="matrix(1.063 0 0 1.063 -.83 -4.239)" overflow="visible"/><path fill="url(#f)" fill-rule="evenodd" d="M23.5 17a10.6 10.6 0 1 1-21.2 0 10.6 10.6 0 1 1 21.2 0z" transform="matrix(1.145 0 0 1.144 19.996 6.136)" overflow="visible"/><path fill="url(#g)" fill-rule="evenodd" d="M6.24 23.07c3.7.4 7.46-.93 11.27-5.18 3.83-4.26 4.5-8.2 4.22-11.2 2.3 1.5 2.75 5.2 2.75 8.04 0 5.67-4.94 10.5-10.85 10.5-2.95 0-5.44-.3-7.38-2.17z" overflow="visible"/><path fill="url(#h)" fill-rule="evenodd" d="M27.2 35.3c3.98.43 8-1 12.1-5.56 4.1-4.57 4.82-8.8 4.53-12.02 2.45 1.6 2.95 5.58 2.95 8.63 0 6.1-5.3 11.3-11.66 11.3-3.17 0-5.85-.35-7.93-2.35z" overflow="visible"/><path fill="none" stroke="url(#i)" d="M34.82 13.88c7.08 0 11.52 5.08 11.52 11.8 0 6.7-4.67 11.5-11.27 11.5-3.3 0-6.1-1-8.4-3.35-3.17-3.3-3.55-9.27-5.24-10.28-1.6-.96-4.55 1-8.44 1.07-6.48-.03-10.8-4.5-10.8-10.77C2.2 7.57 6.72 2.9 13 2.9c3.14 0 5.7 1.17 7.83 3.34 3.1 2.87 3.58 8.72 5.2 9.32 1.65.6 5.58-1.63 8.8-1.68z" stroke-linejoin="round" overflow="visible"/><path fill="url(#j)" d="M22.87 44.14a10.88 4.78 0 1 1-21.75 0 10.88 4.78 0 1 1 21.75 0z" transform="matrix(1.103 0 0 .942 1.766 1.926)" overflow="visible"/><path fill="url(#k)" d="M22.87 44.14a10.88 4.78 0 1 1-21.75 0 10.88 4.78 0 1 1 21.75 0z" transform="matrix(1.103 0 0 .942 19.766 1.926)" overflow="visible"/><path fill="url(#l)" d="M22.87 44.14a10.88 4.78 0 1 1-21.75 0 10.88 4.78 0 1 1 21.75 0z" transform="matrix(.782 0 0 .523 14.126 20.403)" overflow="visible"/></g></svg>