<svg xmlns="http://www.w3.org/2000/svg" width="48" height="48" xmlns:xlink="http://www.w3.org/1999/xlink"><defs><radialGradient id="b" cx="2904.187" cy="1661.127" r="5.506" gradientUnits="userSpaceOnUse" gradientTransform="matrix(-1.513 3.324 2.025 .924 1046.526 -11168.13)" fy="1661.127" fx="2904.187"><stop offset="0" stop-color="#F3D196"/><stop offset=".197" stop-color="#F3D196"/><stop offset="1" stop-color="#EE8424"/></radialGradient><linearGradient id="a"><stop offset="0" stop-color="#f90"/><stop offset="1" stop-color="#ce5c00"/></linearGradient><linearGradient id="c" x1="1287.725" x2="1263.349" y1="1679.832" y2="1679.832" gradientUnits="userSpaceOnUse" gradientTransform="matrix(1.008 0 0 1 -1249.846 -1655.832)"><stop offset=".213" stop-color="#DBDFE1"/><stop offset="1" stop-color="#A1ACB3"/></linearGradient><linearGradient x1="9.444" x2="18.349" y1="23.69" y2="38.421" xlink:href="#a" gradientUnits="userSpaceOnUse" gradientTransform="matrix(-1 0 0 1 48.056 -.008)"/><linearGradient x1="9.444" x2="18.349" y1="23.69" y2="38.421" xlink:href="#a" gradientUnits="userSpaceOnUse" gradientTransform="matrix(-1 0 0 1 48.119 .056)"/><radialGradient id="d" cx="2904.187" cy="1661.127" r="5.506" xlink:href="#b" gradientUnits="userSpaceOnUse" gradientTransform="matrix(1.513 3.324 -2.025 .924 -997.455 -11167.89)" fx="2904.187" fy="1661.127"/></defs><g><path fill="url(#c)" d="M23.55 0H48v48H23.54z"/><path fill="url(#b)" stroke="#66330d" stroke-width="1.5" d="M19.06 2.2l-5.1 10.48-8.47-.04 4.17 8.83L2 37.2l17.06 8.5V2.2z" color="#000" overflow="visible"/><path fill="none" stroke="#fff" stroke-width="3" d="M23.5-.06v48"/><path fill="none" stroke="#000" d="M23.56 0v48"/><path fill="none" stroke="#ffd8a0" stroke-miterlimit="4.6" d="M17.74 7.7l-2.98 6.32-7.28-.15 3.58 7.63L3.6 36.7l14.14 7.1V7.7z"/><path fill="url(#d)" stroke="#66330d" stroke-width="1.5" d="M30 2.45l5.12 10.48 8.46-.04-4.18 8.8 7.67 15.76L30 45.93V2.45z" color="#000" overflow="visible"/><path fill="none" stroke="#ffd8a0" stroke-miterlimit="4.6" d="M31.33 7.94l2.98 6.32 7.3-.14-3.6 7.62 7.48 15.2-14.15 7.1V7.94z"/></g></svg>