<svg xmlns="http://www.w3.org/2000/svg" width="48" height="48" xmlns:xlink="http://www.w3.org/1999/xlink"><defs><linearGradient><stop offset="0" stop-color="#590b08"/><stop offset="1" stop-opacity="0"/></linearGradient><linearGradient x1="-95.827" x2="-81.455" y1="297.608" y2="297.608" gradientTransform="matrix(0 -1.064 -1.352 0 410.498 -83.416)" gradientUnits="userSpaceOnUse"><stop offset="0" stop-color="#e96712" stop-opacity="0"/><stop offset=".622" stop-color="#D52E0C"/><stop offset="1" stop-color="#CB1009"/></linearGradient><linearGradient id="b"><stop offset="0" stop-color="#fedba7"/><stop offset="1" stop-color="#fdbf64"/></linearGradient><linearGradient id="a"><stop offset="0" stop-color="#ffa54c"/><stop offset="1" stop-color="#f57900"/></linearGradient><linearGradient x1="14.929" x2="35.357" y1="17.929" y2="27.929" xlink:href="#a" gradientUnits="userSpaceOnUse" gradientTransform="matrix(.864 0 0 .863 51.703 -8.597)"/><linearGradient x1="2.131" x2="46.011" y1="26.143" y2="26.143" xlink:href="#b" gradientUnits="userSpaceOnUse" gradientTransform="matrix(.967 0 0 .966 49.159 -13.817)"/><linearGradient id="c" x1="13.664" x2="34.635" y1="19.056" y2="31.123" xlink:href="#a" gradientUnits="userSpaceOnUse" gradientTransform="matrix(.395 0 0 .38 .518 13.558)"/><linearGradient id="d" x1="13.664" x2="34.635" y1="19.056" y2="31.123" xlink:href="#a" gradientUnits="userSpaceOnUse" gradientTransform="matrix(.395 0 0 .38 10.571 8.425)"/><linearGradient id="e" x1="13.664" x2="34.635" y1="19.056" y2="31.123" xlink:href="#a" gradientUnits="userSpaceOnUse" gradientTransform="matrix(.395 0 0 .38 10.34 18.492)"/><linearGradient id="f" x1="13.664" x2="34.635" y1="19.056" y2="31.123" xlink:href="#a" gradientUnits="userSpaceOnUse" gradientTransform="matrix(.395 0 0 .38 20.393 13.359)"/><linearGradient id="g" x1="13.664" x2="34.635" y1="19.056" y2="31.123" xlink:href="#a" gradientUnits="userSpaceOnUse" gradientTransform="matrix(.395 0 0 .38 20.241 3.387)"/><linearGradient id="h" x1="13.664" x2="34.635" y1="19.056" y2="31.123" xlink:href="#a" gradientUnits="userSpaceOnUse" gradientTransform="matrix(.395 0 0 .38 30.063 8.321)"/><linearGradient id="i" x1="13.664" x2="34.635" y1="19.056" y2="31.123" xlink:href="#a" gradientUnits="userSpaceOnUse" gradientTransform="matrix(.395 0 0 .38 19.933 23.297)"/><linearGradient id="j" x1="13.664" x2="34.635" y1="19.056" y2="31.123" xlink:href="#a" gradientUnits="userSpaceOnUse" gradientTransform="matrix(.395 0 0 .38 29.986 18.164)"/><linearGradient id="k" x1="13.664" x2="34.635" y1="19.056" y2="31.123" xlink:href="#a" gradientUnits="userSpaceOnUse" gradientTransform="matrix(.395 0 0 .38 39.656 13.126)"/></defs><g stroke-linejoin="round"><g fill-rule="evenodd" stroke="#8b3b00" stroke-width="1.273"><path fill="url(#c)" d="M.16 23.1L9.9 10 20 23.16 9.98 27.98l-9.82-4.9z" transform="matrix(.786 0 0 .786 .356 4.953)"/><path fill="url(#d)" d="M9.85 9.95l10.18 5.46 9.93.26-9.93 7.2L9.85 9.95z" transform="matrix(.786 0 0 .786 .356 4.953)"/><path fill="url(#e)" d="M9.98 28.02l9.82-5.1 10.02 5.17L20.07 47 9.97 28.03z" transform="matrix(.786 0 0 .786 .356 4.953)"/><path fill="url(#f)" d="M20.04 22.9l9.8-7 10.03 11.97-10.02-.1-9.8-4.88z" transform="matrix(.786 0 0 .786 .356 4.953)"/><path fill="url(#g)" d="M19.88 15.28l9.82-7.45 10.02 8.8-10.02-.64-9.82-.72z" transform="matrix(.786 0 0 .786 .356 4.953)"/><path fill="url(#h)" d="M29.7 15.85l9.82.64 9.57-9.3L39.5 27.9l-9.8-12.07z" transform="matrix(.786 0 0 .786 .356 4.953)"/><path fill="url(#i)" d="M20.03 46.92l9.36-19.18 9.92 8.43-7.57.37-11.72 10.38z" transform="matrix(.786 0 0 .786 .356 4.953)"/><path fill="url(#j)" d="M29.63 27.7l9.8.18 10.04-.12-10.03 8.55-9.8-8.6z" transform="matrix(.786 0 0 .786 .356 4.953)"/><path fill="url(#k)" d="M39.3 27.93L49.1 7.1l10.04 20.8-10.03-.35-9.8.38z" transform="matrix(.786 0 0 .786 .356 4.953)"/></g><path fill="none" stroke="#000" d="M.6 23.1l7.5-10.23 7.94 4.17 7.6-5.83 7.86 6.63 7.43-7.4 7.86 16.45-7.23-.24-7.93 6.8-6.43.24-9.1 8.17-7.86-14.73L.6 23.1z"/></g></svg>