<svg xmlns="http://www.w3.org/2000/svg" width="48" height="48"><g><path fill="#e1e9f3" d="M.06 23.98c0-7.97 0-15.94 0-23.9 15.94 0 31.88 0 47.83 0 0 15.93 0 31.87 0 47.82-15.96 0-31.9 0-47.84 0 0-7.97 0-15.95 0-23.92z"/><path fill="#aac9de" d="M.13 47.75c-.87-.95 2.03-1.83.24-2.35 1-1.25 2.48-4.47 1.54-4.88-.57 2.67-2.88.42-1.9-1.3.35-1.02 1.3-2.38.15-2.34-.08-4.4-.2-8.8.06-13.2 1.04 1.25 1.8.8.7-.44-1.6-2.64-.35-5.64 1.47-7.76 1-2.35 3.4-2.12 4.96-.62 2-.04-1.53-1.4.24-2.42-1.34 1.03-4.3-.13-2.05-1.55 1.96-1.95 4.63.6 3.97 2.55 2.33.9 5.06 2.9 2.42 5.16-.85 1.55 2.03 5.44 1.43 2.05-.3-2.12 1.17-4.05 3.33-3.14 3.18.78.5 5.12.7 7.4.83.9 3.13.7 3.2 2.8.46.76.87 4.58-.16 3.06-.44-1.38-2.3-1.43-3.03-2.9-1.3-.67-3.73 1.17-1.15 1.53 1.24.53.75 1.9.94-.02 2.53.62-.02 4.63-1.75 2.35-2.06 1.14 4.65 2.77 1.03 3.47-1.24.07-3.9-.33-4.28.66 2.92-1.1.97 4.95 3.73 2.82 2.98-1.2 2.88-5 5.02-7.02 1.07-2.6 7.1-2.25 5.44 1.2-.6 1.1-2.64 2.9-2.06 3.6 1.02-1.74 2.98-4.3 4.08-1.26-.05 1.2-1.1 2.56.65 1.2 2.37-1.74 5.74-.4 7.65.24.92 1.78 2.58-4.24.5-1.3-2.67.34-5.56-.7-8-1.2-2.14-1.4 2-3.9-.9-4.24-.92-1.08-.5-5.14-2.6-2.68-1.95 2.52-6.3.66-5.73-2.47-.83-2.35-1.45-6.8 2.4-6.22.98.07 3.92-.8 2-1.9 1.96-2.02 2.87 3.2 4.35 2.2 1.33 2.22 4.4 3.12 4.6 6.05.45 1.12 3.38 2.05 1.64.13-1.68-2.14-1.58-5.23-4.17-6.76-.75-1.13-2.8-1-1.72-2.45.5-2.23-1.04-4.34-1.3-6.12.9-2.2 3.64 1.8 2.9-.9-1.27-1.7 1.02-1.12 1.1-2.1-1.3-.14-1.92-1.15-.2-.84 2.67-.08.94-3.7-.76-3.95.85-.83.9-1.73 1.9-1.33 1.66-1.42 3.74.9 5.74-.33.9-.28 2.64.48.8.2-1.16.65.66 1.2-1.05 1.27-.7 1.23.45 3.05.9.94 1.22-1.9 3.53-.96 4.64-.25-.56-2.8 3.7-3.6 4.04-.8.05 2.3-.14 4.62.04 6.94-.02 2.68.06 5.38.02 8.04-.05 1.93-4.5 1.63-1.3 1.87 2.2.4.62 3.63-.57 1.32-.87-.24-2.9 2.82-1.98 3.1 1.2-1.98 4.9-1.8 3.95 1.12-.34 3.78.1 7.58-.13 11.38-.06 3.44.1 6.9.1 10.33-.7 3.4-4.86 2.14-7.3 2.03-2.82-.15-5.64.45-8.44 0-1.43-.44-2-3.4-3.83-2.22.68.7 3.38 2.65.8 2.4-5.16-.02-10.3.08-15.45-.14 1.2-1.72 2.95-3.45 2.93-5.6-.54-1.17-1.8-3.43-1.55-.84.2 1.37-1.64 4.5-2.58 3.3.2-.8 2.08-3.07.05-2.05-1.67-1.03-2.97 2.7-3.62 1.2 1.94-1.83-2.86-.23-.9.75 3.13-.86 2.9 5-.2 3.3-2.56.1-5.14-.02-7.72-.07zm6.5-1.5c-1.56-.9 1.14 1.33 0 0zm-3.12-1.7c.5-.52 2.4.33 1.87-1.48C4.9 40.67.95 45 3.5 44.55zM18.3 41c-.08-2.87-1.37 1.47.04.5 0-.16-.02-.32-.03-.5zm-6.7-.4c.67-.23 3.9.42 1.88-.4-2.3.17-3.96-4.7-5.3-3.76 1.03 1.2 1.4 5.02 3.43 4.15zm-5.4-.84C6.8 38 3.12 37.8 5 39.56c.22.36.87.67 1.17.2zm38.6-1.07c-.6-1.43-.46-2.37.54-1.44-1.56-1.6-3.48-3.33-2.38-5.78.27-1.7-1.14-2.65-.63-4.16-1.23-1-3.4-2.27-3.8-3.23-.98 1.4.17 4.93-2.42 3.56-.14 1.17 2.1 1.98 2.75 2.85 1.95 1.46-.43 5.1 1.52 5.96 1.8-2.7 2.64 2.02 4.43 2.23zm-3.68-3.97c-1.03-1.44 1.48.34 0 0zm-1.6-6.47c-.56-2.1 1.6.52.3.2l-.3-.2zm-8.9 10.06c.54-2.94-2.32.54 0 0zm-23.03-.38c.06-1.62-1.17.46 0 0zm19.63-1.23c-.74-1.16-.36 1.2 0 0zM2.4 35.68c1.37-1.62-.66-1.93-.62-.02-.08.77.56.92.6.02zm-1-1.3c-.36-2.48-.42 2.08 0 0zm6.62-.98c.08-1.05-1.63.95 0 0zM3.06 31.4c-.7-1.48-.03 1.46 0 0zm7.03-2.68c.24-.75-.32-2.32 1.18-1.18.7.63 2.06 1.52.76.13-1.24-.76.36-4.88-1.25-3.82-.3 2.34-2.6 3.7-4.7 2.7-2.54 1.3 1.63.7 2.16 1.88.5.42 1.25.74 1.83.28zm-6.36-4.16c-.92-1.86-1.06.62-.1.57l.07-.2.04-.37zm37.53-.74c2.04-1.47-4-2.3-.83-.92.07.7-.28 1.48.83.92zM9.1 20.9c1.6-1.06.93-3.97.87-5.18-2.4-1.33-3.44 2.54-1.43 3.64.42.83-1.48 2.3.57 1.54zm35.1-3.3c-.73-1.55-1.56-.4-.08.23.22.3.92.1.1-.24zm-1.7-1.37c-.48-1.35-4.06-.73-1.33-.06.43.12.9.26 1.34.06zm-2.85-1.42c-.83-1-1 1.2 0 0zm-8.28-3.07c-.9-1.23-2.3-.3-.43.1.2.17.97.48.43-.1zm15.08-7.9c-.7-2.08-2.7.4 0 0zM.08 43.38c.3-1.4.05 1.75 0 0zm18.1-10c-1.2-1.64 2.53-2.17.9-.3-.15.3-.62.64-.9.3zM27.9 31c-1.07-1.85 1.46 1.33 0 0zm-5.72-13.34c-1.43-2.2 1.3-2.62 1.6-.53-.27.57-1.05.66-1.6.53zm5.87-1.26c-1.67-.27-2.17-4.74.05-3.33-1.2 1 .78 2.23-.05 3.33zM.5 15.05c.6-3.43 1.13 3.26 0 0zm16.75.5c1.37-1.6 2.02 1.1 0 0zm2.87-1c-.73-3.43-4.58.78-6.74-.68C11.2 12.8 9.93 10.6 8.4 8.83 6.98 6.47 11.33 5.6 12.9 4.6c-.5-2.03 3.28-1 3.74-1.9-.87.02-3.3-.26-1.47-1.3-.26-1.92-2.33 1.98-2.6 2-1.3.3-1.42 1.7-2.6 1.22-1.04.94-2.42.58-2.42 2.05-1.9.75-1.35-1.4-.28-1.97C6.2 3.6 4.57 2.8 5.37 1 4.76.7 2.02 1.23 3.52.16 5.84.1 8.73-.3 10.47.85c1.2-1.72 4.35-.23 6.37-.73 3.2.16 6.37-.08 9.55.24.93.02 4.85-.72 2.53.78-1.15.8-2.83 2.45-.28 2.64 3.48-.35-1.98 1.75-.03 3.45.76 2.5-3.2 1.63-4.4 1.56-.94.9-5-1.32-2.77.74 2.6 1.16 1.7 5.93-1.3 5zm-8.58-6.1c-.84-.9-.73 1.32 0 0zm5.52-.04c.96-.2 3.73-.27 1.44-1.1-1.76-.46-5.44-1-5.94.34 1.54-.04 2.97 1.7 4.5.77zm9.38-1.24c2.83-.5-3.6-.77-.85.23.3-.04.57-.14.84-.24zM24.42.58c-.28-.67-.54 1.27 0 0zM1.25 13.3c.13-1.07 2.16-4.14 1.42-1.4-.23.6-.57 1.58-1.42 1.4zm-.4-1.82c-.28-1.36 1.22.78 0 0zM4.3 11c-2.27-1.32.04-6.37 1.22-4.14-.27 1.03 2.54 2.72.1 3.74-.36.3-.84.5-1.32.4zm-.35-5.58c-1.03-2 1.7.73 0 0zm-1.22-.5c-.1-1.58 1.3.82 0 0zm27.76-.6c0-1.97 1.86.7 0 0z"/><path fill="#8fb6d0" d="M.2 47.76c1.17-.12-.67-1.42.88-1.02-.38-1.02.4-4.36 1.13-2.06 2.02.86 4.66-1.86 6.78-.02 2.43.73 1.18 4.85-.95 2.84-.48-.86-2.85-2.28-1.25-.55-.32 2.1-3.97.43-5.62.73-.32 0-.64.03-.95.08zm14.16.04c1.3-.8 4.25-2.3 4.75-1.7-1.5-.87-1.92-3.12-.4-3.92.76-1.75-1.76-3.47-1.7-3.74 2.3-2.07 2.27-5.8 5.06-7.5 1.17-1.64 5.44-.96 3.37 1.1.02 1.9-1.04 3.46-3.04 2.87-.96.34-.75 1.74.2.88.52.76 1.5 4.5 1.83 1.87.26-2.46 2.43-.1 2.36 1.25.42 1.3 1.65.86 1.2-.38 1.52 2.28 5.32-.83 2.38-2.1 1.2-1.3 4.52-1.04 5.26.85.33.5-2.22.23-.7 1.14 2.2-.04 4.97-.6 6.38-2.66 1.16 2.57 4.17 2.96 6.02 4.22.83 2.28.78 5.58-.27 7.53-2.16 1.14-4.5-.38-6.66-.03-1.95-1.6-3 .98-5.2.4-2.74.77-3.82-1.7-5.6-2.95-2.25-1.23-1.45.62-.7 1.84.06 2.17-3.92.8-5.5 1-2.97.3-6.02-.12-8.96.1l-.08-.06zm13.33-.26c-.74-.45-4.24-1.06-3.1-.06 1.02.16 2.08.37 3.1.06zm.1-6.13c-.2-1.52-.25 1.7 0 0zm13.24-.45c.04-1.22-2.88-1.63-.86-.58.17.3.85 1.8.86.58zm1.84.54c-.6-2.06-2.32.3 0 0zm-19.36-2.16c-1.16-1.7-2 .64 0 0zm9.18-1.27c-.62-1.5-.43 1.24 0 0zm-16.36 7.2c-1.7-2.74 2.35-.36 0 0zm-3.2-1.24c.44-.9 1.9-4.52 1.8-1.63-.4.7-.9 1.54-1.8 1.63zm-6.77-.7c-1.08-.53-3.16-2.38-3.66-.26-.67-.7-.6-4.45-1.7-1.98-2.05 1.1-.17-4.9-.03-2.85-.2 1.8 2.83-.96 1.23-1.93.42-.98 1.4-3.73-.3-1.72-.76-.52-.6-4.2-1.13-1.47.2 1 .2 4.14-.7 3.47.02-2.7.6-5.43-.14-8.08-.26-2.84 2.63-3.56 4.7-3.37-1.4-1.13-.67-2 .75-2.36-1.35.27-3.44 2.37-4.5-.18-.55-.8-1-2.76.43-2.45-2.4-1.58.48-3.1 2.07-3.2-2.88-2.3 2.36-4.2 3.82-1.8.97 1.24-1.43 3.53.92 3.93.07 1.2-1.36 4 1.04 2.46 1-.8 2-3.4 2.96-.85.3 2.35-1.25-.9-1.74.78-.27 2.06.25 5.7-3.07 5.06-1.17.05-5.03-1-4.62.14 2.8.68 5.45 2.56 8.3 2.4 1.75.46 6.38-.52 5.24 2.46-1 .14-1.18-.7-1.43.72-.7 1.5-5.42-.1-2.26.97 2.47-.08 1.5 2.16-.34 2.17-1.56.23-4.4-3.22-2.24-3.25-.83-1.87-2.88-1.4-2.74.64-.1 1.28-1.8 2.86-.2 3.27-.1 1.33-.66 3.53-2.12 1.96-2.05 1.25 1.78 2.24 2.97 1.66 1.62-.74 2.77 1.4 3.35 1.4 1.15-.86 3.6.55 1.25 1.12-1.27.16-2.72-.5-3.97.83-.64.37-1.42.6-2.13.3zM3.2 39.07c2.2-1.34-2.12.48 0 0zm.04-6.75c.7-2.75-2.25.18 0 0zM2.2 30.05c-.72-3.07-1.3 1.24 0 0zm-.62-2.57c.82-1.48-1.14.75 0 0zm2-6.85c.3-1.8-1.04 1.47 0 0zm13.27 22.72c-.35-1.6 1.02-.4.36.25l-.35-.26zm.55-.97c-1.88-1.3.78-1.8 0 0zm-5.54-2.98c-1.1-1.06-3.76-4.58-2.93-4.88.9 1.6 5.38 1.05 4.54 2.96-2.73-.5 1.96 1.27-.22 2.24-.5.15-1-.03-1.4-.33zm34.08-.47c.23-2.95-4.8-4.37-2.75-7.52-.2-2.02.43-4.9-2.2-5.18-2.85-1.7 1.76-2.4 3-3.1 1.3-1.1 4.2-2.63 4 .38-.4 5.12-.02 10.27-.1 15.42-.62.12-1.44.6-1.96 0zm-.2-9.15c-.47-1.3-2.54-2.4-1.2-.32.2.45.9 1.1 1.2.32zm-37.6 9.15c-.5-1.48 1.42.4 0 0zm30.07-1.68c-.62-2.84 3.06.33 0 0zm6.2-.1c-.85-1.4 1.4.86 0 0zm-18.6-1.24c-.73-1.46 1.8-2.68 1.03-1.26 1.63.22-.36 1.6-1.03 1.27zm8.74-.55c-1.14-2.32-5.4 1.1-5.04-2.83-.43-1.48 1.43-2.56-.8-2.68-2.2-.93-.18-5.02-.85-5.03-.97 1.47-2.2 1.97-3.47.97 1.85 2.02-1.9-.4-1.16.8 2.57.28.65 2.62-1.1 1.73-2.68-1.13-1.62-5-2.66-7.3-.9-1.95.98-1.45 1.87-.67-.57-1.25-.15-2.28 1.32-1.2 1.5-.64 4.08-3.08 5.2-.12 2.22 1.5 4.92 3.1 5.42 6 .93.66 4 3.3.93 2.34-1.35-.55-2.53 3.66-1.2 1.3 2.2-1.66 4.7 1.17 6.2 2.57.94 2.5-2.4 4.96-4.66 4.15zm-4.6-11.52c.46-1.64-1.1-1.12-.42.24 0 .55.64.1.43-.24zm-3.93-3.1c.27-1.58-1.6 1 0 0zm-9.32 14.2c.06-1.68 1.6.22 0 0zm1.7-1.66c-.27-2.36 2.13-.9 0 0zm-.7-2.64c.15-1.58.86 1.3 0 0zM19 29.4c-2.76-.6.13-5.9 1.1-2.35.76.9.73 4.1-1.1 2.34zm-5.7-.35c-2.63-1.3.2-5.17-1.97-6.12-.25-1.92 2.76-.15 2.1 1.37.6 1.75 1.2-1.42.35-2-1.04-1.36.78-3.24.54-3.65-1.15-1.44 4.75-1.88 3.62.55-.38 2.27-.4 4.5-1.23 6.58 2.03 1.34-1.94 2.53-3.18 3.12l-.23.15zm1.6-7.7c.6-1.7-1.6.06 0 0zm-3.47 7.47c-.35-1.4 1.44.6 0 0zm25.77-2.46c-.2-1.5.8 1 0 0zm-1.57-1.1c-1.87-.85-2.05-4.07-.94-4.05-2.18-1.23-4.1-3.12-5.35-5.27-.97-2.64 3.84-2.47 1.75-4.77-1.08-.9.7-2.13-.57-3.07.78-1.44 4.12-1.42 2.66-3.6.04-1.57-2.57-3.93.34-3.3 2.07-1.54 1.4 2.92 2.98 1.07-.4-.98-.8-.93.65-1.12 1.7-.05-.47 2.38 1.02 3.35 1.05.77.92.2.8-.24 1.62.38 4.14.33 3.06-1.85 1.08-.96 4.4 3.97 4.2.7-1.2-.53-2.84-.77-1.7-2.23.87-2.54 5 .6 3 2.5-.03 2.87.48 5.74.2 8.6.7 2.28.27 7.38-3.25 5.5-1.66-.7-3.8-4.87-5.4-2.75.76 2.1 4.32 1.3 5.38 3.64 1.67 2.12-1.37 5.3-3.6 3.83-.74-.93-3.52-.84-1.9.42 2.43.45-1.48 1.34-1.42 2.8-.65.17-1.26-.22-1.9-.15zm1.77-6.07c-.74-1.1-.97 1 0 0zm-3.5-2.24c1.8-.52-1.45-.07 0 0zm10.2-2.48c1.9-1.98-2.1.53 0 0zm-9.15-1.64c-2.52-1.78-.32.97 0 0zm4.64-1.32c-.73-2.1-1.07.97.24.33l-.05-.2-.2-.13zm-1.24-3.46c.46-1.1-1.33-3.35-.94-1 .06.12.94 1.77.94 1zm4.66-.3c-.18-1.62-2.22.6 0 0zm-2.3-1.94c-.83-.96-1 1.05 0 0zm-7.03-2.85c1.33-1.4-1.2.06 0 0zM.26 25.07c-1.84-2.86 2.37-.05 0 0zM46.9 20.2c-.04-2.75 2.06.66 0 0zm-36.28-1.35c-2.3-1.48 2.68-2.38 1.04-.12-.26.26-.73.4-1.04.12zm11.6-1.38c-.48-3.1 3.14.52 0 0zm-10.13-.8c-1.53-.6-5.24-2.2-4.36-3.75 1.5 1.53 4.7 1.1 5.2 3.56-.2.2-.57.2-.85.18zm13.15 0c-.63-.72 1.63.05.35.02l-.35-.02zM.68 14.84c.45-1.65.17 1.76 0 0zm19.5-.36c-.22-1.82 1.6.95 0 0zm1.5-.73c-2.28.64-1.5-3.24-1.22-3.02-.52 1.77-5.04 2.87-4.27.52.8-.55-2.05-.33-.73 1 2.17 2.28-3.38 1.95-3.97.12-.28-1.06-3.85-2.97-1.35-3.6 1.7-.02 4.75-1.96 5.3.76 2.38-2.08 6.23-.86 7.28 2 .38.8.46 3.2-1.06 2.22zM14.1 12.7c-.4-1.53-1.2 1 0 0zm-.74-1.27c.72-1.27-.47-.57-.3.18l.3-.17zm4.7.15c.53-1.52-1.37-.35 0 0zm8.4 2.44c-.33-2 1.77.8 0 0zm2.53-.76c-1.8-1.42 2.6-2.5.8-.46.05.6-.28 1.3-.8.46zM4.83 12.5c-.28-2.52 5.8-2.65 3.5-.34-1.14.37-2.35.12-3.5.34zm22.98-1.68c-1.02-2.35 4.04-1.25 1.27.05-.4.15-.9.16-1.28-.05zM5.46 9.78c-2.14-1.33 1.15-3.2.7-.6.42.58-.84 1.6-.7.6zm21.2-.56c-1.8-2.2-6.22 1.08-7.12-2.1 1.95-1.64-1.94.42-2.9-.32-2.36-1.06-4.2.33-6.05 1.45-2.3.54-1.72-2.22.1-2.3 1.65-1 3.15-.74 4.25-2.24 1.14-.18 3.6-1.3 1.06-1.1-3.04-.32 1.18-3.2 2.65-2.3 1.37-.4 2.1.26 2.72 1.45-.6-2.25 2.74-2.06 2.37-.02.86-2.42 3.52.03 4.58-1.64 2.13.17-.73 1.84-1.43 2.38-1.3-.08 2.08 1.46.98 2.8-1.5 2.58-5.3.48-6.5-1.56-.9-1.27-3.47.2-1.08.36.18 2.54 3.4 2.86 5.13 3.37 1.25-.62 3.4 1.23 1.23 1.77zM20.1 1.5c-1.12-1.28-1.44 1.27 0 0zM6.57 6.4c.05-1.7 1.53.73 0 0zm14.95-1c-1.37-1.35 1.34.37 0 0zM8.26 4.94c-1.55-1-3.12-2.8-2.65-4.3C2.87.1 7.58-.62 8.3.26c1.13.38 2.08 1.66 2.54.04 1.54-1.14 4.88.62 2.12 1.86 0 1.43-2.63 1.68-3.67 2.75l-.52.12-.52-.07zm4.6-.68c.95-2.12 2.22.53 0 0zM39.2 3.8c.73-1.64 2.82.44.45.18l-.24-.05-.2-.12zm.7-1.27c1.08-1.3-.1 1.37 0 0zM35.1.4c-1.58.23.2-.75 0 0z"/><path fill="#6babc9" d="M3.05 47.76c-2.28-.6-.74-3.4 1.08-3 2-1.2 6.37-.5 6.1 2.38-1.66 2.32-3.85-1.68-4.55-1.78.5 1.07 2.3 3.02-.1 2.6-.85-.03-1.68-.16-2.53-.2zm13-.16c.84-.9.72 1.15 0 0zm1.47-.22c-.02-1.5 4.07-.4 1.8-1.53-1.17-2.63-.2-5.75-.86-8.43.38-2.8 2.02-5.34 4.3-6.9 2.02-.96 2 .82.42 1.42-.15.72.05 2.3-.8.97-1.2 1.08-1.63 3.3-.7 4.03-1.14 1.96 2.9 5.2 3.7 2.26.46-3.08 2.07 1.57 1.92 2.83.22 1.87 1.83 5.62-1.6 4.88-2.37-.5-3.64 1.75-6.1.93-.38-.16-2.47.14-2.08-.45zm6.45-16.28c-.34-1.67-1 1.1 0 0zm-.18 16.7c.74-.92 3.43.46 1.08.07-.37 0-.73 0-1.1-.07zm4.7-.43c-1.14-1.7 1.6.7.33.2l-.34-.2zm3.63.4c.77-.64 1.37.43 0 0zm3.15 0c-2.26-1.5-5.1-2.23-7.2-3.87-1.1-1.44.42-4.9 1.65-3.02.7-1.1 1.57-1.02 2-2.14 2.43.72 4.53-.3 6.9-.87 1.76-.18 2.55-3.2 3.76-.74 1.24 2.82 5.93 1.37 5.52 5.05-.8 1.72.88 5.86-2.02 5.48-.65-1.8-.4 1.13-1.92.3-1.86-1.12-4.32.05-5.4-2.58-.72-2.46.4 3.42-1.73 2-.13-1.04-1.02 1.44-1.57.4zm-.87-2.45c-.74-1.1-.32 1.57 0 0zm8.65-1.12c-.34-1.5-1.7-.44-.3.16.74 1.06.65.35.3-.16zm-1.74-1.48c-1.2-1.4.77-1.9 1.32-1.23.3-2.3-2.15-.84-3.42-1.95 1.44.68.94 2.4 2.1 3.17zm-40.1 4.9c-.16-1.45 1.48.23 0 0zm30.25-.54c.3-1.23.9.87 0 0zm-30.43-1.6c.26-2.6 1.94-.4 0 0zm5.3-2.27c-1.48.34-1.34-3.08-2.8-1.2-3.2-.06 0-5.18 1.57-2.16 1.58.42 6.02-1.26 4.76 1.9-.8 1.02-2.17 2.07-3.53 1.47zm7.2.14c.7-.38 1.15-3.3 1.37-1.2-.22.57-.64 1.44-1.4 1.2zm-.58-1.53c-.7-1.47 1.5.54 0 0zm-2.03.15c.73-1.84 1.97.6 0 0zM.3 41.1c-.98-1.04 1.2-2.05.3-.27.26.23.24.9-.3.26zm11.76-1.68c-2.2-.75-2.1-4.98.77-3.22 1.76 1.07-1.72.96-.18 1.5 1.33.97 1.42 2.6-.6 1.72zM1.2 39.25c.23-1.3 1.06 1.03 0 0zm44.84-.4c.42-2.78-4.8-4.16-2.65-6.92.25-1-.66-5.16.7-2.76.62 1.43 2.55 1.23 1.35-.48-.52-2.52-4.62-1.46-4.6-3.5.87-2.12 3.73-.78 4.27-2.94 1.7-1.54 3.7.14 2.78 2.08 0 4.3-.32 8.64.12 12.93.05 1.1-.88 2.03-1.98 1.6zm-2.36-13.32c-.8-1.67-1.18 1.16 0 0zM5.74 38.7c.32-1.25.97.9 0 0zm27.55.04c-.2-1.05-.52-1.85-1.5-1.94-.2-2.07 5.32-.2 2.97.72-2.15-1.9.45 2.26-1.48 1.22zm-30.38-.8c-1.74-2.58 2.23-5.83-.53-8.2-1.46-1.7-.7-4.47 1.5-2.33 1.68.24 5.84.8 3.6 3.2-.52 1.48-.15 3.54-1.7 4.34.7 1.47.88 3.66-1.45 2.9-.45.3-1.05.85-1.43.1zM.06 36.5c-.38-1.67 1.17-2.26.6-.27-.02.56-.75 1.52-.6.27zm9.52-.36c-.73-1.43 1.3 0 0 0zm25.17-.8c-1.43.1-.8-3.17-2.38-1.02-2.6 1.04-2.82-2.73-2.12-4.26-3.1.02-2.8-3.6-1.78-5.6-1.4.65-2.8 2.6-3.48.02-1.23.34-2.1 2.38-3.45 1.43.77.62 4.5 1.52 1.95 2.36-3.2.5-2.9-2.93-3.37-4.88-.73-1.24-.98-4.85.8-2.47 1.72.95 2.12-.8 2.28-1.98 1.45.43 2.22-1.24 3.9-.12 2.82 1.2 4.87 3.4 6.3 6.06.54 1.04 3.7 3.28.8 2.54-2.23-1.76-1.55 2.42-2.2 2.6 1.8-3.08 5.5-1.16 7 1.26.78 2.25-2.07 4.8-4.25 4.07zm.66-3.07c-.42-1.7-.2 1.77 0 0zm-5.63-7.33c1.3-.58-.65-3.75-.24-1.4 0 .35-.93 2.32.24 1.4zm-2.8-3.2c-.8-.57-.74-1.87-1.13-1.7-2.24.53.44 2.33 1.12 1.7zm-18.3 13.5c-.42-1.84 1.62.73 0 0zm1.85-.6c-.3-1.12-2.45-2.85-.06-1.94 3-.32 2.93 4 .06 1.93zm-8.84.23c-.9-.84.63-3.82.57-1.32-.06.47-.14 1.02-.57 1.32zm11.6-2.07c-1.94 1.23-6.3-2.78-3.04-3.63 1.53.8 6.12-.6 5.43 1.93-1.82-1.06-1.7 0-1.53 1.56-.04.47-.62.4-.85.14zM1.03 31.2c.63-2.22 1.9 1.06 0 0zm-.86-1.34c-.23-1.18.2-4.65 1.02-1.7.1.68-.15 1.7-1.02 1.7zm18.98-.54c-.7-.74-.5-2.13-1.16-2.53 1.4-2.9 3.4 1.98 2.23 3.08-.42 0-.75-.3-1.06-.56zm-5.74-.36c-1.77-1.06-1.6-4.58 1.04-3.43 2-.97.05-3.38.9-5.15.87-1.4-2.96-2.57-.05-2.8 1.4-.32 2.83 1.75 1.2 2.5 2.97.28-.85 2.8.36 3.88-.55 1.22-.48 2.67-.33 3.55-.9.83-2.48.3-3.13 1.46zm-5.35-2.6c-1.66-.04-4.58-.74-3.8-2.64 1.16-.44 1.95-1.65.1-1.67-2.9-1.38 3-4.17 2.38-1.58-.75.52-3.78 1.25-1.3 1.37 1.4-.6 2.12 1.35 3.3-.16 2.65-.18 1.66 5.62-.68 4.7zm4.1-1.34c.74-2.43 1.75.06.03.16l-.02-.16zm23.5-.02c-1.55-.8-2.25-3.5-.6-3.66-1.62-1.37-3.65-2.16-4.62-4.25-1.8-1.28-1.1-4.06 1.18-3.62.34-1.3.63-1.52-.56-2.36.22-1.22.1-2.27-.15-3.2 1.42-.7 2.07 1.87 2-.13 1-1.25.96-3.36 1.62-4.26.65 1.6 3.43-.5 2.23 1.9.18.78.63 3.43 1.83 2.37-.12-.92-.96-4.12.6-1.96 2.14 2.04 4.7-1.6 6.93-1.1 2.82-.8.77 3.8 1.7 5.2-.56 2.53 1.44 6.15-1.28 7.72-2.53.67-3.58-2.4-5.73-3.23-1.24-2.6-2.82 1.25-.5 1.6 2.52.52 6.24 2.82 3.5 5.55-1.4 1.8-2.85.33-4.04-.46-2.05-.53-2.17 2.2-.07 1.88-.9-.06-2.37 3.6-4.05 2zm2.22-4.98c.88-2.45-4.07-.3-1.08-.46.28-.02 1.08 1.2 1.07.46zm4.88-.74c-.65-1.1-.9 1.1 0 0zm-2.93-1.4c.16-2-1.92-.5 0 0zm-5.74-.85c1.85.32-.56-2.62-.08-.5-2.26-.9-1.33 1.14.08.5zm1.77-1.56c2.2-2.06-1.76-.28 0 0zm-2.3-.6c.1-1.68-1.26.95 0 0zM44 14.64c2.25-.4-2.08-1.56-.4.18.15 0 .27-.14.4-.18zm-8.2-1.6c-.9-1.03-4.23-1.08-1.46.04.36.13 2.77 1.12 1.47-.04zm4.17-1c.33-1.48-3.2-3.25-1.25-.98.3.4.6 1.07 1.25.97zm3.63-2c.76-1.7-1.38-.18 0 0zm-1.43-1.17c.22-1.06 3.84-1.58 1.37-2.2-1.23.04-2.08.76-1.87 1.54-1.16 1.54-.85 1.14.5.66zm-7.58-.12c-.52-1.95-1.8-.06 0 0zm1.45-2.15c-.83-1.53-1.24.97 0 0zm-36 18.3c-.4-1.77 1.36.17 0 0zm3.1-1.46c.1-1.48-2.9.63-2.2-1.63-.67-.95-.83-2.2.08-.64 1.34 1.5 1.13-.9.5-1.56.2-1.44-1.23.14-.64-1.4 1.52-2 4.06 1.2 1.84 2.45-.17 1 2.43 2.47.4 2.8zm8.42-.65c-1.6-.48.14-.73.44-.08l-.43.07zm2.5-.1c-1.9-2.3 1.84-.48 0 0zm-2.6-1.9c0-1.8 1.05 1.06 0 0zm2.4-.38c-.85-2.63 2.23.34 0 0zm33.12-.3c.07-2 1.85-.43 0 0zm-25.55-.55c-1.33-.84 2.1-.9.28.2l-.14-.05-.15-.15zM6.4 19.24c-1.94.55-3.24-3.35-1.32-2.3-3.04 1.04 2.8 1.27 1.3 2.3zm4.36-.85c-1.92-2.38 3.06.6.06.14l-.05-.13zm-5.02-.84c-.35-2.05 3.22-.02.56.23-.2 0-.37-.17-.56-.24zm16.62-.18c.4-1.48 1.8.64 0 0zm-19.58-.82c-1.23-1.1 2.3-3.85 1.46-1.47-1.5-.44-.25 1.62-1.46 1.46zm9.3-.05c-.86-.58-4.52-1.28-2.1-2.4.72-.17 4.6 2.74 2.1 2.4zm-6.97-.72c-.38-2 1.63-1.02 0 0zm15.05-1.53c.63-1.08.93.95 0 0zm-12.3-.4c-1.67-1.48 2 .92 0 0zm13.93-.1c-.1-1.03-2.62-.74-.64-1.44.26-.54-1.86-.2-.57-1.22 1.8-1.83 3.07 2.53 1.57 2.86l-.36-.2zm-8.97-.38c-.35-1.64-4.77-3.1-2.7-4.56 1.83-.6 1.4 3.42 2.5 1.08-.8-1.2-.4-2.18 1.22-1.72.95.32 4.44 2.63 3.94.76.62-.78 3.86 1.5 1.6 2.8-.77 1.1-.76-2.98-2.25-1.33-1.07 1.27-3.84-1.05-2.35 1.26.93 2.6-1.47.44-1.26-.98-1.4-.6-.37 2.38.2 3.1-.35.02-.6-.28-.9-.4zm16.04-.5c-1.04-3 2.98.62 0 0zm-21.16-.92c-1.38-2.73 3.74.06 0 0zm20.07-1.3c-.32-2.23 3.76-.3.93.15-.3.07-.67.06-.93-.14zm-7.5-1.1c-.27-1.9 1.73 1.7 0 0zm1.98-.96c-1.03-.25-3.57-1.4-1.48-1.82 1.13-1.33 3.5.75 3.56 1.24-.4.42-1.62 1.47-2.07.57zm3.9.14c.12-1.8 2.08 1.33.14.1l-.1-.1h-.03zM9.7 8.14c-2.37-3.06 5-.76.34.17l-.34-.16zm22.25-.98c.02-1.76 1.5.46 0 0zM11.8 6.64c-2.33-1.87 3.88-1.2.94.12-.26.3-.76.2-.94-.12zm5.07.15c-3.4 1.02-3.15-4.73.2-3.5 2.74-1.1-1.1-.74-2-1.18.66-1.92 3.56-2.6 4.28-.44 1.43.24 2 1.35.22 1.35-1.38 1.1.4 4.8-2.7 3.76zm1.17-3c-.36-.76-1.1.87 0 0zm8.17 2.4c-2.14.57-5.06-2.35-1.7-2.68.18-1.23.23-2.6 1.45-1 .94.78 3.15 4.1.26 3.68zM8.56 5c.16-1.9-3.4-1.83-1.96-3.7C6.54.1 3.7.23 6-.14c1.6-.64 3.85 1.76 4.25 1.5.12-2.15 5.2-1.52 3.17.27-2.15-.8.24 1.18-1.6 1.6-1.46.04-2.1 1.8-3.27 1.77zm35.36-.56c-2.6-1.92 2.86-.44.65.02h-.3l-.34-.02zm-31-.33c1.08-1.55 1.85.42 0 0zm33.44-1.06c-3.5-.22-.6-5.28 1.27-2.22.58.78 0 3.83-1.26 2.22zm.94-1.22c-.32-2.4-2.95 1.43 0 0zm-20.62.4c-2.4-1.15 1.08-1.8.76.24-.23.24-.58-.1-.76-.23zm15.5.14c-.73-1.44 1.3 0 0 0zM22 1.62c-2.6-3.3 3.08-.52 0 0z"/><path fill="#5794b4" d="M3.1 47.78c-1.9-.58-1.2-3.1.64-2.8 1.97-1.3 4.7 4 1.33 2.97-.65-.05-1.3-.2-1.96-.17zm5.14.02c-2.18-.93-2.63-4.93.48-3.04 1.66.82 2.44 4.07-.48 3.04zm11.85-.03c-2.63-.4 1.8-.88 2.25-1.06-1.9-.05-4.68-1.36-2.34-3.15-1.25-1.15-.55-2.58-.36-4.2 2.44-.33 1.97 4.34 4.55 3.2 1.14-1.07 2.87 2 1.9-.22-.12-1.62 1.4 2.24 1.46 3.1-.24 2.87-4.06.32-4.66.27 1.63 2.62-1.08 2.45-2.8 2.07zm15.33 0c.95-1.2-2.22-1.66-.97-2.82-1.28.2-2.4 1.45-2.63.14-3.18-.55-2.34-5.2.8-5.04 1.34-.75 3.76-2.03 4.73-1.68 1.33 1.47 3.25-3.74 4.86-1.48.57 2.94 5.26 1.64 5.5 4.4-.62 2.1 1.02 5.32-1.23 6.5-1-1.14-3.02-2.3-3.97-4.1-1.37-.7 2.3 2.5 1.1 3.87-.1.42-.66-1.72-1.85-1.02-2.25 1.06-2.84-1.63-3.8-2.38.48 1.2.14 3.33-1.62 2.55-.2.43-.1 1.7-.93 1.06zm1.92-4.5c-1.3-1.53-1.7.45 0 0zm3.76-1.02c-.83-2.06 2.56.57 1.6-1.78-.77-1.15-2.33.03-3.5-1 .73.4 1.2 2.63 1.9 2.78zm-7.9-1.03c-.6-1.7-.55 1.4 0 0zm11.12 5.9c-.02-1.9 1.3 1.08 0 0zM1.1 45.3c.12-2.24 1.7-.44 0 0zm27.22-1.42c-1.17-2.1 1.5-1.17.76.24-.35.2-.68.2-.76-.24zm-21.95-.7c-3.73-1.26 1.8-5.92 3.46-2.83 1.16 1.5-2.37 3.85-3.46 2.83zm-4-1.28C0 38.95 7.1 38.6 4.23 41.62c-.52.4-1.26.56-1.88.28zm-1.1-2.55c-.1-1.37 1.24.86 0 0zm11.34-.04c-1.4.08-2.88-3.44-.58-1.83.7.27 2.62 2.22.6 1.84zm33.5-.44c.3-2.8-4.74-4.3-2.62-7.13.45-1.07-.57-5.24.6-2.5.25 2.46 2.9.68 1.3-.8-.92-1.42-2.7-3.16-2.57-4.56 1.7.43 3.8-3.97 5.18-1.23-.18 4.7-.25 9.47-.03 14.2-.06.95-.45 2.95-1.85 2.02zm-12.9-.24c-1.6-2.72 2.27.22 0 0zm-29.9-.6c-2.5-2.2 2-5.5-.6-7.88-1.04-1.42.07-4.27 1.66-2.02 1 1.64 3.93-1.3 3.33 1.24-1.05 1.55-.34 4.4-2.12 5.87 2.18 1.7-.75 3.04-2.27 2.8zm31.62-.46c-2.65-1.6 1.8-1.45.27.13l-.28-.14zm-2.84-.37c-1.13-1.78 2.53-1.16.56 0l-.18.04-.38-.05zM.06 36.5c.37-1.72.25 1.48 0 0zm11.14.2c-2.25-1.1 2-.23 0 0zm8.53-.92c-1.13-.98 1.28-4.2.74-1.43-.08.35.1 2.44-.74 1.43zm14.83-.6c-1.67.07 1.15-2.78-1.1-1.74-2.1 2.57-4.77-1.4-2.2-2.9 1.47-.55 2.54-1.33 3.47-2.22 2.17.52 5.56 2.8 3.7 5.32-.8 1.2-2.43 2.28-3.87 1.53zm2.68-1.52c-1.15-1.45-1.27 1.15 0 0zM35.7 33c.14-1.05 1.04-4.17-.96-3.06.55.78.76 1.37.04 2.38 0 .47.52.68.92.67zm-3.13-.7c-.65-1.28-.66 1.18 0 0zm6.3-.22c.06-1.63-.96 1.25 0 0zM10.72 34.7c-2.15-3.03 4.3-.22.4.36-.2-.02-.27-.22-.4-.35zM1.78 34c-.94-2.45 1.47-.05 0 0zm9.7-1.5c-3.17.25-2.47-4.65.53-3.33 1.5-.05 2 3.12.25 1.24-.1.9 1.36 3.2-.76 2.1zm-.2-2.28c-.32-1.76-1.4.86 0 0zm9.7 2.15c.55-1.27 1.6-.3 0 0zm-6.58-2.2c-.06-1.73 1.4 1.14 0 0zm16.07-.06c-3.36-.2-3.3-5.3-.18-5.74.76-1.07-1.48-3.65-.92-1.17.3 1.7-2.22 1.28-3.02 2.06-1.08-.6-2.3-3.13-2.34-.35-1.9 2.74-4.92-2.35-1.52-3.02 1.62.5 3.58-1.35 3.73 1 .58-.2 2.08-1.58.44-1.88-.3-2.63 4.07-.87 4.65.8 1.18 2 1.87 4.06 4.1 5.2-.1 1.24-4.08-1.7-2.8 1.1.25 1.2-1 2.3-2.15 2zm-.97-9.03c-.6-1.53-1.27.65 0 0zm-9.1 8.27c-2.28.48-1.6-5.42-.78-2.08.38.6 1.1 1.3.77 2.08zm-19.7-.8c-1.72-.63.4-2.98.3-.5.08.15.07.97-.3.5zM13 27.9c-.7-2.44 4.95-2.18 2.83-.13-.7-.44-2.03-1.7-1.38 0-.32.5-1.03.4-1.45.12zm8.48.13c-1.8-1.32.64-2.58 1.7-1.3 2.77 1.04-.76 1.56-1.7 1.3zm21.95-.94c-.92-.6-4.32-1.83-1.56-2.37.76.28 2.64 1.5 1.56 2.36zM12.05 27c-.77-1.97 2.34-.47 0 0zm-3.7-.76c-.3-1.56 2.6.8 0 0zm-1.7-.96c.34-1.98.66 1.46 0 0zm-1.1.3c-1.25-1.67 1.6-.1 0 0zm4.07-.32c-.63-1.6-2.75-3.1.08-3.25.3-.47.28 2.56-.08 3.25zm27.58-.1c-2.02.7-4.45-3.37-2-3.5-.76-1.68-3.33-1.82-3.78-3.98-1.35-.83-3.4-4.17-.45-3.77.77.6 3.85 1.2 1.48.33-2.55-2.56 2.97-1.9 3.3.27.4 2.08 1.28-1.77-.37-1.96-1.27-1-5.5.2-3.55-2.57 1.3.17 1.42-.72 1.9-1.26 1.9 1.06-.63-3.25 1.6-1.75 2.48.2 2.66 5 4.42 4.58.82-1.52-2.74-1.94-.7-2.9 1.8.3 3.1.57 4.6 1.37.02-1.45 2-2.38.95-3.7.3-1.52 3.9-.95 2.15.5.44 1.24-.93 3.25.96 3.73-.42 2.32 1.38 5.36-1.06 7.08-2.76.12-4.95-2.75-6.83-4.45-1.8 1.15-.84 3.5 1.3 3.12 3.12-.1 4.54 4.44 1.67 5.87-1.94 1.07-1.67-1.98-3.57-1-1.55-.38-2.03-4.44-3.56-1.6 1.58-.03 2.72 1.1 2.6 2.9.1 1.17 2.6.3.7.7-1.06.2-.83 2.04-1.74 1.98zm-.34-3.5c-.76-1.58-.25 1.45 0 0zm5.7-2.12c-.03-1.73-4.05-.14-.95 0 .33.04.65.05.97 0zm-4.1-1.63c1.84 1 1.08-2.56 0-.37-.08 0-.6 1.03 0 .37zm-4.55-.82c2.03.6-.25-3.05 0-.67-1.96-1.06-1.6 1.13 0 .68zm10.06-2.42c2.65.53-.43-2.88-.63-.35-.38.53.38.88.63.35zm2.3-1.4c.47-1.53-3.42-1.08-1.02-.67.25.28.52 1.02 1 .7zm-.76-3.7c-.5-2.24-1.72-.1 0 0zM20.15 22.93c-.28-1.78 1.1 1.14 0 0zm-17.38-1c-1.63-.64 1.25.12 0 0zM16.6 22c-2-1.53 2.14-1.3.46.16l-.24-.03-.2-.12zM.07 20.48c.7-1.33.77 1.86 0 0zm13.8-.32c-.13-1.9 1.52 1 0 0zm33.35-.47c.88-2.73.66 1.36 0 0zm-31.64 0c-.56-1.33 1.7.52 0 0zm.88-.74c.54-1.3 1.02 1.07 0 0zm-5.57-.64c-1.9-1.8 2.68.12.13.3l-.1-.14-.03-.16zm4.38.16c-.16-1.96 2.04 1.12 0 0zM12.3 16.5c-2.04-.43 2.17-.7.15.05l-.13-.04zm-3.25-1.23c-.12-2.6 3.85 1.03.76.16-.26 0-.5-.1-.75-.16zM13 13.72c-.1-1.42 1.64.55 0 0zm8.82-.03c.54-1.2 1 .87 0 0zm7.14-.84c-.72-2.34 1.7-.37 0 0zm-7.83-.12c1.07-.5-.25-1.8-.7-.68-.03-3.57 4.38 1.56.73.7l-.03-.02zm-9.32-.5c-.5-2.54 1.9-.02 0 0zm3.02-1.67c-.65-.63-2.9-3.03-.52-2.3.68 1.2 3.74 1.42 1.25 2.32l-.32.03-.4-.06zm13.23.1c-.48-1.98 3.2-.24.57.06-.2.07-.38-.04-.57-.05zm-8.7-.45c-1.68-1.3 1.58-.54 0 .16v-.16zM9.8 9.78c-1.56-1.6 2.75.78.12.1l-.1-.08-.02-.02zm10.53-.3c.18-1.46 1.04 1.5 0 0zm1.96-1c.07-.98-2.96-.86-.64-1.83 2.25-.85 2.98 3.26.63 1.84zm3.93.27c-.67-1.75 1.67.34 0 0zm16.55-.22c-.28-1.48 1.03.25.35.3l-.35-.3zm-3.26-.3c.58-1.7 3.3.77.67.1-.24.04-.46-.06-.68-.1zM9.77 7.98c-1.53-1.77 3.46-.95.98 0l-.5.03L9.78 8zm23.27-.1c-.9-1.63 1.83-.2 0 0zm-13.4-.36c.15-1.32 1.08.74 0 0zM15 6.04c-3.26-.65 2.87-4.38 1.17-1.1-.02.57-.43 2.33-1.17 1.1zm-3.56.1c.23-1.95 2.7.65.36.2-.15-.03-.26-.1-.36-.2zm14.85-.1c-1.2.63-3.54-1.64-1.03-1.04.75-.2 3.47 1.15 1.02 1.05zM9.04 4.45c-.5-.9-.1-1.88-1.5-1.64C7.7 1.22 5.85.54 5.75.03c2.62-1.62 3.48 2.5 5.84 2.1-.45-.75-1.42-2.9.43-1.3 1.52 1.48-2.43 4.2-2.98 3.6zm37.23.2c.8-1.95 1.67 1.42 0 0zm.15-1.72c-.04-1.94 1.97 1.8.04.05l-.04-.05zm-27.63 0c.8-1.35.63.43 0 0zm-2.03-.6c-2.72-1.74 3.5-3.1 1.72-.16-.56.22-1.15.16-1.73.15zm30.8-.02c-.7-1.6 1.3.07 0 0zM12.7 1.55c-2.57-1.4 2.46-1.82.96-.12-.28.16-.65.3-.96.12zm32.13-.25c-1.27-1.7.85-.73.52.2l-.2-.04-.32-.16zM45.9.67c-1.13-1.35 3.14.3.38.06-.13-.02-.26-.04-.4-.06z"/><path fill="#2e8baf" d="M3.2 47.82c-2.2-2.12 3.05-4.3 2.98-1.15 2.26 2.15-2.17.84-2.98 1.15zm5.06-.1c-1.2-.48-2.94-4.14-.37-2.9.83 1.35 3.03.9 1.78 3.1-.44.3-1-.02-1.42-.2zm11.93 0c.84-1.4 4.44.44 1.42.2-.48-.07-.95-.17-1.43-.2zm26.68-.9c-2.3-.8-4.14-2.72-5.4-4.7 1.2-.42 2.2-1.14.9-2.35-.17-1.7 2.93-.72 1.5.66 1 .72 1.44-2.46 2.88-.84 1.84.83 1.34 4.2-.6 4.55 1.07.06 2.8 2.92.72 2.68zm-21.97-.18c-.94-.87-3.82-2.66-3.14-3.27 1.9.27 4.3-1.17 5.22 1.48 1.44 1.22-1.3 1.1-1.77 1.92l-.3-.13zm-2.2-.12c-2.02 1.3-4.96-2.97-1.6-2.63.37.2 2.96 3 1.6 2.62zm17.4-.2c.1-1.75-2.12-1.47-1.55-3.33-.6-2.26-.47 2.06-1.53-.05-.83-1.52-2.93 1.17-.76.94.03.82 2.5.62.48 1.28-1.68 1.3-3.1-2.97-3.04-.4-1.07-.67-2.16-.1-2.83-1.66-2.83-1.03 1.95-2.76 2.17-1.86.07-1.98 3.16-3.2 4.3-2.37 1.3.5-.93 2.53.7 1.83 2.34-2.07 2.34 2.86 4.34 3.37 1.18 1.63-.96 2.5-2.27 2.22zM6.4 43.08c-3.6-1.57 2.5-5.56 3.64-2.28.4 1.73-2.35 2.46-3.63 2.28zm13.02-.1c-.44-.97 1.73-1.12.35-2.03.1-2.88 3.8 2.33 1.45 1.64-.58.18-1.17.48-1.8.38zM2.38 41.73c-1.9-2.26 3.83-3.5 1.87-.52-.4.57-1.25 1.07-1.87.53zm38.27-1.7c-3.6-.86 1.2-5.5 2.06-1.98 0 1-.93 2.34-2.05 2zm-28.92-1.62c-1.83-.8-.6-1.76.62-.66 1.1.56-.04 2-.62.67zm34.48.44c.47-2.8-5.28-4.74-2.26-7.37 1.87-.7 3.1-2.8.8-3.92-2.5-1.95.76-7.6 3.1-4.7.17 2.62.13 5.58-.5 7.85 1.25 1 .22 3.34.55 4.9 0 1.05 0 2.1 0 3.17-.58-.08-1.13.17-1.7.07zm-12.98-.57c-.03-1.65 1 1.04 0 0zM3.1 37.7c-2.92-2.24 4.02-4.65 1.1-5.73-1.96-.6-2.24-5.38.24-3.18 2.53.98 3.57 4.07 1.2 5.86-.87 1.02 1.36 3.6-1.07 2.82-.76-.4-.97.92-1.48.2zm31.93-.36c-1.45-1.43 1.24-.26.17.02l-.13-.02h-.04zm-.35-2.23c-1.55-.2.95-1.6.03-1.95 1.53-.68 1.6 3.55-.02 1.96zm-24.04-.54c-1.87-2.56 3.45-.1.47.4l-.25-.17-.2-.24zm20.24-.44c-.6-2.7 2.23.8 0 0zm1.35-.4c-2.6-.62-.3-3.68.5-2.67-.44-2 2.85-1.34 1.42.38-.4.8-.7 2.56-1.92 2.3zm.44-1.17c.46-1.78-1.7 1 0 0zm1.32-1.7c-.97-1.23-.12 1.77 0 0zM3.3 33.28c-.55-1.7 1.32-.27 0 0zm32.56-.4c-.9-.52.93-1.85.12-.5 1.82-1.02 1.2 1.1-.12.5zm-25.34-.74c-1.96-.15.15-3.5.37-1 2.57-.44 1.48 2.36-.38 1zm26.4-1.1c1.14-2.87.93 1.9 0 0zm6.74-.98c-.64-1.82 1.34.32.16.1l-.1-.06-.06-.04zm-7.93.08c.24-1.53 1.42.9 0 0zm-23.78-.18c1.2-1.45 1.8 1.16 0 0zm18.8-.17c-2.86-.17-3.7-4.6-.75-4.94-.02-2.14 1.43-2.26 2.27-.56-.22 1.74-.1 3.6-.16 5.13-.3.4-.88.58-1.36.38zm3.27-.6c-.6-1.87 2.22.82 0 0zM.24 27.93c-1.25-2.4 1.74-.26 0 0zm21.07-.16c-1.2-.4.43-2.37.34-.64 2.53-.96 1.42 2.08-.33.64zm-6.06-.27c.42-1.5 1.38 1.08 0 0zm26.3-1.35c-2.35-1.64 3.12-.95.67.3l-.23-.05-.43-.25zm-18.96-.72c-.05-1.4-.8-.52-.82-.3-2.63-1.67 3.34-4.05 2-.76-.24.1-1 2.2-1.18 1.06zm4-.35c-2.13-1.42 2.27-1.36.13.05l-.1-.05zm10.47-.05c-.68.77-1.86-1.35-.6-.87-1.54-3 4.15-.22.86 1l-.25-.13zm5.68-.36c-.93-2.9 1.94.87 0 0zm-14.98-1.1c-.53-3.43 2.86 1.2 0 0zm-2.58-.26c-1.7-.14.94-2.22.25-.64.54.24.5 1.44-.25.65zm9.83-.2c-2.2-1.3 1.03-1.1.44.3l-.18-.1-.26-.2zm-26.62-.23c.2-1.7 1.26.95 0 0zm32.63-.6c.34-1.46 1.15.95 0 0zm-5.67-.16c-.4-1.3.65-2.93.97-.84 0 .5-.35 1.5-.97.85zm1.73-.1c-.84-.95-.08-2.95.73-1.15.98.67.37 1.97-.74 1.15zm5.16-.32c-.35-2.1-5.75.75-4.23-3.07 1.65-.82 3.35 2.58 5 .46.14-1.4-1.84 1.1-2.55-.74-2.23-3.25 3.84-1.8 3.77.58-.28 1.37-2.02 1.47-.95 3-.3.27-.75-.14-1.05-.22zm-14.08-.2c-1.85-2.22 1.82-.6 0 0zm-28.05-1c.78-1.2.32 1.47 0 0zm33.27-.44c-2.8-1.16 3-2.28 1.22.1-.12.72-.96.16-1.23-.1zm1.67-1.3c-2.4-.2-4.47-1.38-4.94-3.77.18-3.2 5.02 1.4 2.35 1.54 1.26 2.14 3.78-.4 4.2-1.98.33-3.06-4.28-1.78-4.82-3.47.9-.83 4.67-1.9 2.46-3.42 2.35.7 5.44 3.42 4.9 5.9-.92 1.77.26 4.6-2.58 4.84-.54.66-.75 1.13-1.58.37zM11 18.1c-1.72-1.64 2 .13.2.4-.06-.13-.12-.27-.2-.4zm34.27-.38c-2.5-.15-1.95-4 .47-3.44 2.22-1.23-2.67-4.1.5-3.23C48.36 12 48 14.5 47.7 16.5c-.97.24-1.42 1.92-2.43 1.22zm-33.03-1.35c-1.36-.72 1.76-.07.1 0h-.1zm22.08-1.05c-1.9-1.13 2.65-2.56.83-.38.1.6-.5.84-.83.38zm-24.94-.38c2.17-1.76 1.87 1.64 0 0zm32.4.1c-1.36-.5-1.08-2.54-1.9-3.48.4-3.58 4.9-.26 3.63 2.2-.08.87-.77 1.8-1.7 1.28zm-9.56-.82c-2.08-2.1 3.64-1.06.74.07-.22.1-.56.13-.74-.08zm11.93-.9c.2-1.86 1.55.4 0 0zm-22.87-.73c.53-2.3 2.3.48 0 0zm-.6-1.03c.27-2.43 1.93.56 0 0zm-5.8-1.2c-1.38-.55-.04-2.73.22-.8.02.07.25 1.02-.2.8zm.97.06c-.6-1.75 2.28-.96 0 0zm23.02-.64c-1.2-1.13 1.75-.5 1.63-.56-.24.42-1.48 1.66-1.63.55zM22.5 8.6c.75-1.16-2.7-.76-.6-1.6 1-.93 1.38 1.66 2.36.75-.44.44-1.06 1.18-1.77.86zM9.94 8.1c-.08-2.2 2.57.44 0 0zm15.33-2.3c-.74-.8 2.2.16.07 0h-.07zM14.73 5.2c-.1-2.8 1.95.23 0 0zm-5.6-1.5c-.46-2.1 4.07-.75.94-.2-.25.2-.6.44-.93.2zm-.9-1.06C10.13.86 4.1.4 6.9 0c1.73-.77 4.4 2.45 1.33 2.66zm7.82-.64c.25-1.65 2.88-2.23 1.6-.2-.44.38-1.07.28-1.6.2zm-3.3-.72c-1.37-2.5 3.07.7 0 0z"/><path fill="#1273a4" d="M3.64 47.74c-2.5-2.2 1.98-4.03 2.77-1.2 1.46 2.3-1.72.88-2.76 1.2zm4.7.04c-1.84-.73-2.62-4.9-.12-2.4.3.47 1.75 3 .12 2.4zm38.45-1.06c-.75-2.22-6.3-2.5-4.83-5 2.5.5-1.15-3.82 1.82-2.9.14.7.26 3.36.94 1.37 1.94-3.2 5.28 3.72 1.44 3.83.83.63 3.1 2.54.6 2.7zm-25.63-.7c-2.08-1.47 3.6.6 0 0zm20.96-.2c-2.44.23-4.8-3.12-3.48-5.26 2-.22 2.65 3.24 3.97 4.44.06.28 0 1.04-.5.8zM31.9 43.14c.84-3.18 1.9 2.13 0 0zm-25.54-.1c-3.57-1.66 2.82-5.17 3.4-1.83-.07 1.33-2.4 2.24-3.4 1.83zm28.67-.23c-3.04-.8-.18-5.18 2.18-4.08 1.54 1.87-1.4 3.68-2.5 1.57-.04.55 1.75 3 .33 2.52zm2.25-.53c-1.14-1.56 1.68.18 0 0zm-34.9-.57c-1.9-2.26 3.83-3.5 1.87-.52-.4.57-1.25 1.07-1.87.53zm38.4-1.57c-3.45-.8.62-5.38 1.83-2.1.13 1.02-.77 2.14-1.83 2.1zm5.43-1.32c.38-2.8-4.46-4.27-2.64-7.16 1.5-.75 4.2-2.46 1.43-3.74-2.26-1.87-.45-7.05 2.6-5.77.5 2.12.43 4.64.18 6.77-1 1.7.7 3.34.1 5.4-.45 1.67 1.26 5.23-1.67 4.5zm-2-4.67c-.48-1.5-1.6.07 0 0zm1.08-.72c-.4-1.56-1.7 1.33 0 0zM3.08 37.7c-2.83-2.28 4.2-4.52 1.1-5.84-1.56-.64-1.5-3.8.42-1.93 2.2.84 2.7 3.62.62 4.84-.03 1.15 1.27 3.3-.77 2.63-.43.2-.87.55-1.36.3zm31.17-2.9c.06-1 1.37.88 0 0zm-3.15-.7c-1.55-1.5 1.52-.44.34.02l-.34-.02zm1.3-.28c-1.7-1.43 2.76-1.4.3.03l-.16.06-.15-.08zm-1.5-1.2c-1.02-3.1 2.87-.64 0 0zm12.76-2.54c-.64-1.82 1.34.32.16.1l-.1-.06-.06-.04zm-12.8-.33c-2.27.24-4.12-4.55-.93-4.08 2.4-2.3-1.32 4.85 2.32 3.26-.18.32-1.16 1.58-1.4.82zm-9.13-1.95c-.2-1.4 2.4.57.1 0h-.1zm19.9-1.65c-2.1-1.57 2.65 0 .15.12l-.1-.1-.04-.02zm-4.58-1.12c-2.7 0 .32-4.5 1-1.4.03.55-.1 2.02-1 1.4zm5.7-.38c-.8-1.73 1.64.28 0 0zm-7.7-1.55c-3-2.14 2.05.3 0 0zm.28-1c-.4-1.3.65-2.93.97-.84 0 .5-.35 1.5-.97.85zm1.73-.1c-1.24-2.15.8-2.27 1.18-.3.02.67-.82.58-1.18.3zm5.26-.28c-.35-2.2 1.86 1.34 0 0zm-3.72-.92c-2-.52.5-4.27.84-1.6 2.6.13.33 1.6-.84 1.6zm2.03-.2c-.02-1.86 3.2.14 1.13-.4-.32-.38-1.2.92-1.13.4zm-7.26-.56c-2.8-1.16 3-2.28 1.22.1-.12.72-.96.16-1.23-.1zm9.75-.67c.04-1.88-4.24.5-2.93-2.35-1.24-1.73 2.65-.08 3.28.42.85.36 1 2.86-.36 1.93zm-8.08-.63c-2.18.5-5.62-2.84-2.88-4.1 1.42.65 1.4 1.66.32 1.62.6 2.4 3.83.2 3.98-1.55-.06-1.52 1.9-2.63 2.04-3.03 1.46.18 1.25 1.85.4 2.63.26 1.9-.9 4.2-2.3 4.23 0 .67-1.33.8-1.56.2zm10.2-1.03c-3.12-.63-.56-4.45 1.67-4.05 1.67.4 1.17 3.72-.7 2.38.55.95.5 2.33-.96 1.68zm-10.92-2.38c-1.64-1.62 2.5-1.96.68.07l-.35.06-.33-.14zm7.47-.28c-1.33-.54-1.23-2.55-1.98-3.56 1.16-2.58 3.8.48 3.64 2.24.03.88-.73 1.87-1.67 1.32zm-9.7-1.28c-.2-2.3 3.34.88.48.48-.23-.07-.42-.25-.48-.48zm2.86-1.24c-3.23-1 1.55-4.52 1.52-1.18.03 1.22-.22 1.7-1.52 1.18zM9.92 3.12c1.26-2.1 2.2.9 0 0zm-1.54-.46C10.3 1.3 5 .4 7.9 0c1.6.06 2.75 2.5.48 2.66zm4.4-1.32c-1.87-2.27 2.85-.28.37.15-.13-.06-.25-.1-.38-.16z"/><path fill="#004a7c" d="M4.32 47.76c1.18-.82 1.72.55 0 0zm1.12-.9c-2.25.65-.2-3.6.07-.75.06.18.43 1.1-.06.75zm1.64-.97c-2.06-1 1.42-1.5.5.24l-.27-.12-.22-.13zM47 45.6c-2.2-.35-.2-2.1.42-.3.14.3-.2.65-.4.3zm-1.3-2.28c-1.15-.4-4.27.93-3.34-1.45.92-.52 3.65.5 2.4-1.5.37-2.4 4.08.95 1.1.18-1.57.7 3.22.35 1.7 2.22-.35.96-1.16 1.73-1.86.55zm-38.9-.18c-1.84-1.53 1.57-.42.35.03l-.36-.03zm32.1-.85c-.28-2.45 2.9.9.27.25-.13-.05-.2-.17-.28-.26zm-33.46-.73c.62-2.26.44 1.7 0 0zm-3-.75c.68-3.16 3.53.95.1.84-.3-.17-.2-.6-.1-.84zm40.4-.18c-1.73-2.06 1.87.16 0 0zM40.88 40c-1.37-2.76 3-.35 0 0zm-1.65-1.36c-.64-2.1 3.74-.62.88-.07-.23.14-.62.3-.87.07zm7.64-.5c-2.55-1.14-2.44-4.66-.4-5.8-1.06-.2-3.67-.08-1.55-1.54 2.56-1.5 4 2 2.8 3.93-.16.68.92 4.68-.85 3.4zm-43.94-.7c-.1-1.2 1.45-2.25 1-3.23 2.2-.78.05 2.24.03 3.27-.25.33-.76.17-1.03-.04zM43.73 30c-.18-1.8 1 1.08 0 0zm3.24 0c-1.07-1.77-4.6-4.58-1.78-6.33.9.92-.5 3.02 1.63 2.84-1.27 1.94 2.17 1.44.94 3.26-.15.27-.54.46-.8.23zm-.87-2.66c-.05-1.46-.96.94 0 0zm-16.47 1.64c-2.44-1.82 2.6-.74.35.2l-.35-.2zm17.95-1.35c-.68-1.32.97-.3 0 0zm-.18-1.5c-2.27-1.33 2.6-1.1 0 0zm-10.35-1.3c-1.8-1.76.95-3.13.65-.45.04.36-.32.66-.65.44zm10.36-.53c-1.42-.92 1.46-1.47.3-.13.73.28-.15.47-.3.13zm-10.17-2.36c-.7-3.03 2.06 1.18 0 0zm-1.33-.98c-1.4-.96.86-.33 0 0zm2.5-.54c-1.68-2.93 2.3-.13 0 0zm-5.35-1.03c-.2-1.68 2.86.88.34.08-.12-.03-.23-.06-.35-.1zm1.7-.95c-.8-.12-3.22-.8-1.1-1.02 2.28-.1 3.3-2.7 4.12-4.63 1.92-1.33 1.7 1.3.24 1.93-1.68 1.1 1.67 1.8-.17 2.83-1.75.06-1.52 2.47-3.08.9zm8.36.38c-.12-1.76 1.58-.12 0 0zm-1.5-.08c.97-1.55 1.84-.04 0 0zm-.93-.3c-1.4-2.02 3.54-1.7.9-.2-.18.25-.63.5-.9.2zm4.23-.9c-2.22.08.37-3.43.68-1.05 1.15.65.37 1.67-.68 1.04zm-10.53-2.37c-1.66-2.78 2.3.5 0 0zm6.96-.38c-1.4-.02.94-1.87-.65-1.67.3-2.7 4.08 2.72.74 1.7l-.1-.03zM7.57.77c-2.38-1.14 2.65-.3 0 0z"/></g></svg>