<svg xmlns="http://www.w3.org/2000/svg" width="48" height="48" xmlns:xlink="http://www.w3.org/1999/xlink"><defs><linearGradient id="n"><stop offset="0" stop-color="#2e3436"/><stop offset="1" stop-color="#2e3436" stop-opacity="0"/></linearGradient><linearGradient id="m"><stop offset="0" stop-color="#c8a142"/><stop offset="1" stop-color="#ab8832"/></linearGradient><linearGradient id="l"><stop offset="0" stop-color="#442b01"/><stop offset="1" stop-color="#734801"/></linearGradient><linearGradient id="j"><stop offset="0" stop-color="#c8a142"/><stop offset="1" stop-color="#916012"/></linearGradient><linearGradient><stop offset="0" stop-color="#e8eae6"/><stop offset="1" stop-color="#a5ae9d"/></linearGradient><linearGradient id="b"><stop offset="0" stop-color="#2e3436"/><stop offset="1" stop-color="#2e3436" stop-opacity="0"/></linearGradient><linearGradient><stop offset="0" stop-color="#73796d"/><stop offset="1" stop-color="#cdcfca"/></linearGradient><linearGradient id="a"><stop offset="0" stop-color="#73796d"/><stop offset="1" stop-color="#abaea6"/></linearGradient><linearGradient id="p" x1="9.417" x2="32.89" y1="29.418" y2="26.488" xlink:href="#a" gradientUnits="userSpaceOnUse" gradientTransform="translate(-3.758 -.857)"/><radialGradient cx="-64.877" cy="220.876" r="14.119" fx="-64.877" fy="220.876" gradientTransform="matrix(-1 0 0 1 55.359 0)" gradientUnits="userSpaceOnUse"><stop offset="0" stop-color="#ff8e6b"/><stop offset=".826" stop-color="#A40E0A"/><stop offset="1" stop-color="#660D0B"/></radialGradient><radialGradient cx="-62.017" cy="217.679" r="17.176" gradientUnits="userSpaceOnUse" gradientTransform="matrix(-1 0 0 1 55.359 0)" fy="217.679" fx="-62.017"><stop offset="0" stop-color="#fff"/><stop offset="1" stop-color="#A42522"/></radialGradient><linearGradient id="d" x1="-100.206" x2="-83.826" y1="222.647" y2="222.647" gradientUnits="userSpaceOnUse" gradientTransform="translate(191.69)"><stop offset=".028" stop-color="#84A8C9"/><stop offset=".108" stop-color="#88ABCB"/><stop offset=".191" stop-color="#95B5CE"/><stop offset=".253" stop-color="#A3C0D3"/><stop offset=".294" stop-color="#9CBBD0"/><stop offset=".355" stop-color="#88ACCA"/><stop offset=".427" stop-color="#6A94BE"/><stop offset=".508" stop-color="#4177AF"/><stop offset=".511" stop-color="#3F76AF"/><stop offset=".736" stop-color="#224987"/><stop offset=".829" stop-color="#244D8A"/><stop offset=".924" stop-color="#2A5794"/><stop offset="1" stop-color="#3065A0"/></linearGradient><radialGradient id="e" cx="-37.291" cy="214.005" r="19.446" fx="-37.291" fy="214.005" gradientTransform="matrix(-1 0 0 .847 55.653 28.519)" gradientUnits="userSpaceOnUse"><stop offset="0" stop-color="#fff"/><stop offset="1" stop-color="#224987"/></radialGradient><radialGradient id="f" cx="-38.266" cy="214.142" r="20.102" gradientUnits="userSpaceOnUse" gradientTransform="matrix(-1 0 0 1 55.653 0)" fy="214.142" fx="-38.266"><stop offset="0" stop-color="#fff"/><stop offset="1" stop-color="#3065A0"/></radialGradient><radialGradient id="g" cx="96.07" cy="217.459" r="30.602" gradientUnits="userSpaceOnUse" gradientTransform="matrix(1 0 0 .847 0 28.519)" fy="217.459" fx="96.07"><stop offset="0" stop-color="#fff"/><stop offset=".066" stop-color="#F4F7FA"/><stop offset=".182" stop-color="#D7E1EC"/><stop offset=".335" stop-color="#A7BDD7"/><stop offset=".516" stop-color="#668DB9"/><stop offset=".652" stop-color="#3065A0"/><stop offset=".916" stop-color="#1A3A6B"/></radialGradient><linearGradient id="c" x1="103.99" x2="118.07" y1="229.561" y2="229.189" gradientUnits="userSpaceOnUse"><stop offset="0" stop-color="#fff"/><stop offset=".078" stop-color="#FEFDEC"/><stop offset=".236" stop-color="#FCF7BB"/><stop offset=".459" stop-color="#F8ED6D"/><stop offset=".539" stop-color="#F6E94F"/><stop offset=".641" stop-color="#F5E84A"/><stop offset=".755" stop-color="#F3E43E"/><stop offset=".876" stop-color="#F0DD29"/><stop offset="1" stop-color="#EBD30F"/><stop offset="1" stop-color="#EBD30F"/></linearGradient><linearGradient id="h" x1="107.77" x2="105.604" y1="228.699" y2="227.569" gradientUnits="userSpaceOnUse"><stop offset="0" stop-color="#EFEEEC"/><stop offset="1" stop-color="#F6E94F"/></linearGradient><linearGradient id="i" x1="105.57" x2="115.738" y1="226.415" y2="240.775" gradientUnits="userSpaceOnUse"><stop offset="0" stop-color="#FAFAFA"/><stop offset=".579" stop-color="#F6E94F"/><stop offset=".693" stop-color="#F3E54B"/><stop offset=".793" stop-color="#EAD740"/><stop offset=".888" stop-color="#DBC32F"/><stop offset=".98" stop-color="#C8A61A"/><stop offset="1" stop-color="#C3A016"/></linearGradient><radialGradient id="o" cx="24.821" cy="39.036" r="21.679" xlink:href="#b" fx="24.821" fy="39.036" gradientTransform="matrix(1 0 0 .417 0 22.765)" gradientUnits="userSpaceOnUse"/><linearGradient x1="103.99" x2="118.07" y1="229.561" y2="229.189" xlink:href="#c" gradientUnits="userSpaceOnUse" gradientTransform="matrix(1.137 0 0 1.137 -153.806 -236.883)"/><linearGradient x1="-100.206" x2="-83.826" y1="222.647" y2="222.647" xlink:href="#d" gradientUnits="userSpaceOnUse" gradientTransform="matrix(.757 0 0 .757 45.57 -141.204)"/><radialGradient cx="-37.291" cy="214.005" r="19.446" xlink:href="#e" gradientUnits="userSpaceOnUse" gradientTransform="matrix(-.757 0 0 .642 -57.443 -119.608)" fx="-37.291" fy="214.005"/><radialGradient cx="-38.266" cy="214.142" r="20.102" xlink:href="#f" gradientUnits="userSpaceOnUse" gradientTransform="matrix(-1 0 0 1 55.653 0)" fx="-38.266" fy="214.142"/><radialGradient cx="96.07" cy="217.459" r="30.602" xlink:href="#g" gradientUnits="userSpaceOnUse" gradientTransform="matrix(1 0 0 .847 0 28.519)" fx="96.07" fy="217.459"/><linearGradient x1="103.99" x2="118.07" y1="229.561" y2="229.189" xlink:href="#c" gradientUnits="userSpaceOnUse" gradientTransform="matrix(1.137 0 0 1.137 -153.806 -236.883)"/><linearGradient x1="107.77" x2="105.604" y1="228.699" y2="227.569" xlink:href="#h" gradientUnits="userSpaceOnUse" gradientTransform="matrix(1.137 0 0 1.137 -153.806 -236.883)"/><linearGradient x1="105.57" x2="115.738" y1="226.415" y2="240.775" xlink:href="#i" gradientUnits="userSpaceOnUse"/><linearGradient id="r" x1="3.745" x2="42.916" y1="12.034" y2="12.034" xlink:href="#j" gradientUnits="userSpaceOnUse" gradientTransform="translate(-3.687)"/><linearGradient id="s" x1="3.745" x2="42.916" y1="12.034" y2="12.034" xlink:href="#k" gradientUnits="userSpaceOnUse" gradientTransform="translate(-3.687)"/><linearGradient id="k"><stop offset="0" stop-color="#c8a142"/><stop offset="1" stop-color="#916012"/></linearGradient><linearGradient x1="3.745" x2="42.916" y1="12.034" y2="12.034" gradientTransform="translate(-3.745 -1.42)" gradientUnits="userSpaceOnUse" xlink:href="#k"/><linearGradient id="q" x1="15.652" x2="21.852" y1="8.977" y2="16.301" xlink:href="#l" gradientUnits="userSpaceOnUse" gradientTransform="translate(-3.687)"/><linearGradient id="v" x1="23.228" x2="40.512" y1="42.568" y2="42.568" xlink:href="#m" gradientUnits="userSpaceOnUse" gradientTransform="translate(-3.687)"/><linearGradient id="t" x1="24.749" x2="24.799" y1="40.07" y2="44.06" xlink:href="#n" gradientUnits="userSpaceOnUse" gradientTransform="translate(-3.687)"/><linearGradient id="u" x1="24.749" x2="24.799" y1="40.07" y2="44.06" xlink:href="#n" gradientUnits="userSpaceOnUse" gradientTransform="translate(7.374 -1.768)"/><radialGradient cx="-37.291" cy="214.005" r="19.446" xlink:href="#e" gradientUnits="userSpaceOnUse" gradientTransform="matrix(-.69 0 0 .585 -13.162 -104.07)" fx="-37.291" fy="214.005"/><linearGradient x1="-100.206" x2="-83.826" y1="222.647" y2="222.647" xlink:href="#d" gradientUnits="userSpaceOnUse" gradientTransform="matrix(.69 0 0 .69 80.701 -123.748)"/><linearGradient x1="103.99" x2="118.07" y1="229.561" y2="229.189" xlink:href="#c" gradientUnits="userSpaceOnUse" gradientTransform="matrix(1.137 0 0 1.137 -153.806 -236.883)"/><linearGradient x1="107.77" x2="105.604" y1="228.699" y2="227.569" xlink:href="#h" gradientUnits="userSpaceOnUse" gradientTransform="matrix(1.137 0 0 1.137 -153.806 -236.883)"/><linearGradient x1="105.57" x2="115.738" y1="226.415" y2="240.775" xlink:href="#i" gradientUnits="userSpaceOnUse"/><linearGradient x1="107.77" x2="105.604" y1="228.699" y2="227.569" xlink:href="#h" gradientUnits="userSpaceOnUse" gradientTransform="matrix(.69 0 0 .69 -50.421 -127.61)"/><linearGradient x1="103.99" x2="118.07" y1="229.561" y2="229.189" xlink:href="#c" gradientUnits="userSpaceOnUse" gradientTransform="matrix(.69 0 0 .69 -50.421 -127.61)"/></defs><g><path fill="url(#o)" d="M46.5 39.04a21.68 9.04 0 1 1-43.36 0 21.68 9.04 0 1 1 43.36 0z" transform="matrix(1.099 0 0 1.194 -3.239 -9.382)" color="#000" overflow="visible" enable-background="accumulate"/><path fill="url(#p)" stroke="#000" stroke-width=".5" d="M3.9 24.9l7.4 13.7 28.77-5.03c.6-.32.97-.9 1.18-2L29.87 20.54 4.72 23.3c-.56.35-1 .8-.83 1.6z" stroke-linejoin="bevel"/><path fill="url(#q)" stroke="#000" stroke-width=".5" d="M3.68 23.52l7.8-15.98 25.33-.78c.58-.03 1.03.44 1.47.96l-8.3 13.05z" stroke-linejoin="bevel"/><path fill="#babdb6" d="M29.58 21.13l-.56 7.73 10.66 12.37 1.4-9.04z"/><path fill="#d5be9b" d="M4.44 22.9l25.2-2.6 3.8-5.8-30.17 2.58z"/><path fill="#cca363" d="M29.64 20.3l8.43-12.67-4-5.5-8.22 13.13z"/><path fill="url(#r)" stroke="#492e01" stroke-width=".5" d="M38.42 7.85l-4.26-5.6c-.33-.47-1.34-.6-2.04-.58L9.4 2.77c-1.7-.12-4.57 1.5-5.14 3.53l-3.5 8.67c-.37.66-.73 2.4-.13 2.97L3.5 23.7l6.4-12.65c.68-1.16 2.13-2.2 3.57-2.35l22.7-1.62c.67-.06 1.7-.1 2.25.77z" stroke-linejoin="bevel"/><path fill="#eeeeec" fill-opacity=".304" d="M4.45 6.33L9 11.73c1-1.57 2.12-3.05 4.58-3.48l-4.4-5.22c-1.9.07-4 1.6-4.73 3.3z"/><path fill="#d3d7cf" d="M29.07 28.46c-.2 0-23.33 3.08-23.33 3.08l4.8 8.78 26-3.73z"/><path fill="#eeeeec" stroke="#204a87" stroke-width=".666" d="M23.5 18.25v13.73c0 1.2-.66 2.4-1.98 3.3-2.63 1.83-6.9 1.83-9.53 0-1.33-.9-2-1.86-2-3.06h.02V18.24c0-.83.66-1.68 1.98-2.32 2.63-1.3 6.9-1.3 9.52 0 1.32.64 1.98 1.48 1.97 2.33z"/><path fill="#eeeeec" stroke="#ef2929" stroke-width=".772" d="M35.63 32.66c.18.3.27.63.27.96 0 2.1-3.67 3.74-8.2 3.74-4.54 0-8.22-1.63-8.22-3.74 0-.4.13-.77.37-1.13l7.86-13.74 7.93 13.9z"/><path fill="none" stroke="#3465a4" stroke-width=".415" d="M22.78 17.5a6.16 2.27 0 1 1-12.32 0 6.16 2.27 0 1 1 12.32 0z" transform="matrix(1.039 0 0 1.4 -.591 8.609)" color="#000" overflow="visible" enable-background="accumulate"/><path fill="none" stroke="#c00" stroke-width=".337" d="M22.78 17.5a6.16 2.27 0 1 1-12.32 0 6.16 2.27 0 1 1 12.32 0z" transform="matrix(1.358 0 0 1.625 5.209 5.285)" color="#000" overflow="visible" enable-background="accumulate"/><path fill="url(#s)" stroke="#492e01" stroke-width=".5" d="M41.15 31.2l-.25 8.25c.06 1.26-1.25 1.9-2.56 2.13l-24.67 3.76c-1.83.58-4.5.4-5.42-1.58L2.18 32.43c-.07-7.3.17-8.67 2.6-9.05-.86.24-.96.85-.67 1.74l4.96 9.94c.63 1.72 2.7 2.48 4.24 2.1l26.06-4.27c1.02-.35 2.03-.63 1.8-1.7z" color="#000" stroke-linejoin="bevel" overflow="visible" enable-background="accumulate"/><path fill="#eeeeec" fill-opacity=".304" d="M8.73 34.83l-.3 8.62c1.38 2.03 3.1 2.15 4.95 1.62l.58-7.78c-1.82.67-4.07.04-5.23-2.47z" color="#000" overflow="visible" enable-background="accumulate"/><path fill="none" stroke="#e9b96e" stroke-width=".5" d="M37.06 6.72l-3.1-4.06c-.3-.44-1.27-.56-1.93-.54L9.53 3.3c-1.6-.1-4.3 1.4-4.84 3.33l-3.42 8.5c-.34.63-.68 2.26-.1 2.8l2.38 4.73L9.6 10.54c.63-1.1 2-2.08 3.36-2.2l21.36-1.8c.65-.04 1.92-.14 2.74.18z" stroke-linejoin="bevel"/><path fill="none" stroke="#e9b96e" stroke-width=".5" d="M40.85 32.32l-.34 6.77c.06 1.22-1.46 1.8-2.73 2l-24.25 3.85c-1.12.26-3.85.34-4.76-1.28L2.74 32.25c-.08-7.07.72-7.4.8-8.1-.7.97.48 1.82.76 2.38l4.55 9.07c.6 1.42 2.82 2.5 4.3 2.12l25.92-4.22c.68-.08 1.7-.35 1.78-1.18z" color="#000" stroke-linejoin="bevel" overflow="visible" enable-background="accumulate"/><path fill="#eeeeec" stroke="#555753" stroke-width=".75" d="M18.38 38.4c1.75-.8 3.6-1.2 5.6-1.04l.05 3.03-5.65 1z"/><path fill="#eeeeec" stroke="#555753" stroke-width=".75" d="M29.38 36.8c1.8-.9 3.7-1.1 5.6-1.05l.05 3.04-5.65 1z"/><path fill="url(#t)" d="M19.6 39.92h2.98v4.1H19.6z" color="#000" overflow="visible" enable-background="accumulate"/><path fill="url(#u)" d="M30.66 38.15h2.98v4.1h-2.98z" color="#000" overflow="visible" enable-background="accumulate"/><path fill="url(#v)" stroke="#603c01" stroke-width=".5" d="M19.8 39.86l2.94 7.23c5.93 1.6 10.48.17 13.84-3.03l-3.02-6.47c-.9-.3-1.78-.5-2.68.7l1.24 2.65c.47.93.56 1.9.16 2.32-.96 1-4.68 1.67-6.7 1.1-.42-.1-1.1-.8-1.38-1.44l-1.67-3.7c-.85-.62-1.8-.07-2.74.63z"/><path fill="#ddc489" d="M20.05 39.92l2.78 6.87 2.98.54c-2.14-.9-3.3-4-4.8-8.03z"/><path fill="#ddc489" d="M31.2 38.36c1.07 2.24 1.4 3.66 1.5 4.48.18 1.53-4.43 2.04-5.9 1.95 3.35 1.53 7.18-.2 7.44-1.44.24-1.13-1.1-4.1-2-5.75-.5.1-.9.3-1.03.76z" color="#000" overflow="visible" enable-background="accumulate"/><path fill="none" stroke="#3465a4" stroke-width=".461" d="M22.78 17.5a6.16 2.27 0 1 1-12.32 0 6.16 2.27 0 1 1 12.32 0z" transform="matrix(1.039 0 0 1.133 -.439 -2.029)" color="#000" overflow="visible" enable-background="accumulate"/></g></svg>