<svg xmlns="http://www.w3.org/2000/svg" width="48" height="48" xmlns:xlink="http://www.w3.org/1999/xlink"><defs><linearGradient id="n"><stop offset="0" stop-color="#2e3436"/><stop offset="1" stop-color="#2e3436" stop-opacity="0"/></linearGradient><linearGradient id="m"><stop offset="0" stop-color="#c8a142"/><stop offset="1" stop-color="#ab8832"/></linearGradient><linearGradient id="l"><stop offset="0" stop-color="#442b01"/><stop offset="1" stop-color="#734801"/></linearGradient><linearGradient id="j"><stop offset="0" stop-color="#c8a142"/><stop offset="1" stop-color="#916012"/></linearGradient><linearGradient><stop offset="0" stop-color="#e8eae6"/><stop offset="1" stop-color="#a5ae9d"/></linearGradient><linearGradient id="b"><stop offset="0" stop-color="#2e3436"/><stop offset="1" stop-color="#2e3436" stop-opacity="0"/></linearGradient><linearGradient><stop offset="0" stop-color="#73796d"/><stop offset="1" stop-color="#cdcfca"/></linearGradient><linearGradient id="a"><stop offset="0" stop-color="#73796d"/><stop offset="1" stop-color="#abaea6"/></linearGradient><linearGradient id="E" x1="9.417" x2="32.89" y1="29.418" y2="26.488" xlink:href="#a" gradientUnits="userSpaceOnUse" gradientTransform="matrix(1.029 0 0 1.029 -.088 -2.29)"/><radialGradient cx="-64.877" cy="220.876" r="14.119" fx="-64.877" fy="220.876" gradientTransform="matrix(-1 0 0 1 55.359 0)" gradientUnits="userSpaceOnUse"><stop offset="0" stop-color="#ff8e6b"/><stop offset=".826" stop-color="#A40E0A"/><stop offset="1" stop-color="#660D0B"/></radialGradient><radialGradient cx="-62.017" cy="217.679" r="17.176" gradientUnits="userSpaceOnUse" gradientTransform="matrix(-1 0 0 1 55.359 0)" fy="217.679" fx="-62.017"><stop offset="0" stop-color="#fff"/><stop offset="1" stop-color="#A42522"/></radialGradient><linearGradient id="d" x1="-100.206" x2="-83.826" y1="222.647" y2="222.647" gradientUnits="userSpaceOnUse" gradientTransform="translate(191.69)"><stop offset=".028" stop-color="#84A8C9"/><stop offset=".108" stop-color="#88ABCB"/><stop offset=".191" stop-color="#95B5CE"/><stop offset=".253" stop-color="#A3C0D3"/><stop offset=".294" stop-color="#9CBBD0"/><stop offset=".355" stop-color="#88ACCA"/><stop offset=".427" stop-color="#6A94BE"/><stop offset=".508" stop-color="#4177AF"/><stop offset=".511" stop-color="#3F76AF"/><stop offset=".736" stop-color="#224987"/><stop offset=".829" stop-color="#244D8A"/><stop offset=".924" stop-color="#2A5794"/><stop offset="1" stop-color="#3065A0"/></linearGradient><radialGradient id="e" cx="-37.291" cy="214.005" r="19.446" fx="-37.291" fy="214.005" gradientTransform="matrix(-1 0 0 .847 55.653 28.519)" gradientUnits="userSpaceOnUse"><stop offset="0" stop-color="#fff"/><stop offset="1" stop-color="#224987"/></radialGradient><radialGradient id="f" cx="-38.266" cy="214.142" r="20.102" gradientUnits="userSpaceOnUse" gradientTransform="matrix(-1 0 0 1 55.653 0)" fy="214.142" fx="-38.266"><stop offset="0" stop-color="#fff"/><stop offset="1" stop-color="#3065A0"/></radialGradient><radialGradient id="g" cx="96.07" cy="217.459" r="30.602" gradientUnits="userSpaceOnUse" gradientTransform="matrix(1 0 0 .847 0 28.519)" fy="217.459" fx="96.07"><stop offset="0" stop-color="#fff"/><stop offset=".066" stop-color="#F4F7FA"/><stop offset=".182" stop-color="#D7E1EC"/><stop offset=".335" stop-color="#A7BDD7"/><stop offset=".516" stop-color="#668DB9"/><stop offset=".652" stop-color="#3065A0"/><stop offset=".916" stop-color="#1A3A6B"/></radialGradient><linearGradient id="c" x1="103.99" x2="118.07" y1="229.561" y2="229.189" gradientUnits="userSpaceOnUse"><stop offset="0" stop-color="#fff"/><stop offset=".078" stop-color="#FEFDEC"/><stop offset=".236" stop-color="#FCF7BB"/><stop offset=".459" stop-color="#F8ED6D"/><stop offset=".539" stop-color="#F6E94F"/><stop offset=".641" stop-color="#F5E84A"/><stop offset=".755" stop-color="#F3E43E"/><stop offset=".876" stop-color="#F0DD29"/><stop offset="1" stop-color="#EBD30F"/><stop offset="1" stop-color="#EBD30F"/></linearGradient><linearGradient id="h" x1="107.77" x2="105.604" y1="228.699" y2="227.569" gradientUnits="userSpaceOnUse"><stop offset="0" stop-color="#EFEEEC"/><stop offset="1" stop-color="#F6E94F"/></linearGradient><linearGradient id="i" x1="105.57" x2="115.738" y1="226.415" y2="240.775" gradientUnits="userSpaceOnUse"><stop offset="0" stop-color="#FAFAFA"/><stop offset=".579" stop-color="#F6E94F"/><stop offset=".693" stop-color="#F3E54B"/><stop offset=".793" stop-color="#EAD740"/><stop offset=".888" stop-color="#DBC32F"/><stop offset=".98" stop-color="#C8A61A"/><stop offset="1" stop-color="#C3A016"/></linearGradient><radialGradient id="D" cx="24.821" cy="39.036" r="21.679" xlink:href="#b" fx="24.821" fy="39.036" gradientTransform="matrix(1 0 0 .417 0 22.765)" gradientUnits="userSpaceOnUse"/><linearGradient x1="103.99" x2="118.07" y1="229.561" y2="229.189" xlink:href="#c" gradientUnits="userSpaceOnUse" gradientTransform="matrix(1.137 0 0 1.137 -153.806 -236.883)"/><linearGradient x1="-100.206" x2="-83.826" y1="222.647" y2="222.647" xlink:href="#d" gradientUnits="userSpaceOnUse" gradientTransform="matrix(.757 0 0 .757 45.57 -141.204)"/><radialGradient cx="-37.291" cy="214.005" r="19.446" xlink:href="#e" gradientUnits="userSpaceOnUse" gradientTransform="matrix(-.757 0 0 .642 -57.443 -119.608)" fx="-37.291" fy="214.005"/><radialGradient cx="-38.266" cy="214.142" r="20.102" xlink:href="#f" gradientUnits="userSpaceOnUse" gradientTransform="matrix(-1 0 0 1 55.653 0)" fx="-38.266" fy="214.142"/><radialGradient cx="96.07" cy="217.459" r="30.602" xlink:href="#g" gradientUnits="userSpaceOnUse" gradientTransform="matrix(1 0 0 .847 0 28.519)" fx="96.07" fy="217.459"/><linearGradient x1="103.99" x2="118.07" y1="229.561" y2="229.189" xlink:href="#c" gradientUnits="userSpaceOnUse" gradientTransform="matrix(1.137 0 0 1.137 -153.806 -236.883)"/><linearGradient x1="107.77" x2="105.604" y1="228.699" y2="227.569" xlink:href="#h" gradientUnits="userSpaceOnUse" gradientTransform="matrix(1.137 0 0 1.137 -153.806 -236.883)"/><linearGradient x1="105.57" x2="115.738" y1="226.415" y2="240.775" xlink:href="#i" gradientUnits="userSpaceOnUse"/><linearGradient id="G" x1="3.745" x2="42.916" y1="12.034" y2="12.034" xlink:href="#j" gradientUnits="userSpaceOnUse" gradientTransform="matrix(1.029 0 0 1.029 -.015 -1.407)"/><linearGradient id="T" x1="3.745" x2="42.916" y1="12.034" y2="12.034" xlink:href="#k" gradientUnits="userSpaceOnUse" gradientTransform="matrix(1.029 0 0 1.029 -.015 -1.407)"/><linearGradient id="k"><stop offset="0" stop-color="#c8a142"/><stop offset="1" stop-color="#916012"/></linearGradient><linearGradient x1="3.745" x2="42.916" y1="12.034" y2="12.034" gradientTransform="translate(-3.745 -1.42)" gradientUnits="userSpaceOnUse" xlink:href="#k"/><linearGradient id="F" x1="15.652" x2="21.852" y1="8.977" y2="16.301" xlink:href="#l" gradientUnits="userSpaceOnUse" gradientTransform="matrix(1.029 0 0 1.029 -.015 -1.407)"/><linearGradient id="W" x1="23.228" x2="40.512" y1="42.568" y2="42.568" xlink:href="#m" gradientUnits="userSpaceOnUse" gradientTransform="matrix(1.029 0 0 1.029 -.015 -1.407)"/><linearGradient id="U" x1="24.749" x2="24.799" y1="40.07" y2="44.06" xlink:href="#n" gradientUnits="userSpaceOnUse" gradientTransform="matrix(1.029 0 0 1.029 -.015 -1.407)"/><linearGradient id="V" x1="24.749" x2="24.799" y1="40.07" y2="44.06" xlink:href="#n" gradientUnits="userSpaceOnUse" gradientTransform="matrix(1.029 0 0 1.029 11.373 -3.227)"/><linearGradient x1="22.136" x2="23.635" y1="2.342" y2="2.241" xlink:href="#o" gradientUnits="userSpaceOnUse" gradientTransform="matrix(1.009 .295 -.295 1.009 30.545 -13.303)"/><linearGradient id="o"><stop offset="0" stop-color="#b3baac"/><stop offset=".5" stop-color="#fff"/><stop offset="1" stop-color="#a3ac9b"/></linearGradient><linearGradient x1="7.113" x2="40.758" y1="42.219" y2="12.621" xlink:href="#p" gradientUnits="userSpaceOnUse" gradientTransform="matrix(.964 .469 -.469 .964 36.159 -16.204)"/><linearGradient id="p"><stop offset="0" stop-color="#fff"/><stop offset=".232" stop-color="#c6c6c6"/><stop offset=".333" stop-color="#999"/><stop offset=".5" stop-color="#fff"/><stop offset=".633" stop-color="#bbb"/><stop offset=".76" stop-color="#f0f0f0"/><stop offset=".908" stop-color="#c0c0c0"/><stop offset="1" stop-color="#ebebeb"/></linearGradient><linearGradient x1="19.748" x2="13.89" y1="29.514" y2="46.939" xlink:href="#q" gradientUnits="userSpaceOnUse" gradientTransform="matrix(1.009 .295 -.295 1.009 30.545 -13.303)"/><linearGradient id="q"><stop offset="0" stop-color="#d3d7cf"/><stop offset="1" stop-color="#d3d7cf" stop-opacity="0"/></linearGradient><linearGradient x1="22.136" x2="23.635" y1="2.342" y2="2.241" xlink:href="#o" gradientUnits="userSpaceOnUse" gradientTransform="matrix(1.009 .295 -.295 1.009 30.545 -13.303)"/><linearGradient x1="7.113" x2="40.758" y1="42.219" y2="12.621" xlink:href="#p" gradientUnits="userSpaceOnUse" gradientTransform="matrix(.964 .469 -.469 .964 36.159 -16.204)"/><linearGradient x1="19.748" x2="13.89" y1="29.514" y2="46.939" xlink:href="#q" gradientUnits="userSpaceOnUse" gradientTransform="matrix(1.009 .295 -.295 1.009 30.545 -13.303)"/><radialGradient cx="824.329" cy="111.252" r="46.312" xlink:href="#r" gradientUnits="userSpaceOnUse" gradientTransform="translate(-823.738 -75.782)" fx="824.329" fy="111.252"/><radialGradient id="r" cx="824.329" cy="111.252" r="46.312" gradientUnits="userSpaceOnUse" fy="111.252" fx="824.329" gradientTransform="translate(-823.738 -75.782)"><stop offset=".006" stop-color="#FAAF3E"/><stop offset=".646" stop-color="#F17912"/><stop offset="1" stop-color="#DD680E"/></radialGradient><radialGradient cx="804.052" cy="127.362" r="71.221" xlink:href="#s" gradientUnits="userSpaceOnUse" fx="804.052" fy="127.362"/><radialGradient id="s" cx="804.052" cy="127.362" r="71.221" gradientUnits="userSpaceOnUse" fy="127.362" fx="804.052"><stop offset=".006" stop-color="#FAAF3E"/><stop offset=".646" stop-color="#F17912"/><stop offset="1" stop-color="#DD680E"/></radialGradient><radialGradient cx="824.328" cy="111.252" r="46.311" xlink:href="#t" gradientUnits="userSpaceOnUse" fx="824.328" fy="111.252"/><radialGradient id="t" cx="824.328" cy="111.252" r="46.311" gradientUnits="userSpaceOnUse" fy="111.252" fx="824.328"><stop offset=".006" stop-color="#FAAF3E"/><stop offset=".646" stop-color="#F17912"/><stop offset="1" stop-color="#DD680E"/></radialGradient><radialGradient cx="824.331" cy="111.252" r="46.304" xlink:href="#u" gradientUnits="userSpaceOnUse" fx="824.331" fy="111.252"/><radialGradient id="u" cx="824.331" cy="111.252" r="46.304" gradientUnits="userSpaceOnUse" fy="111.252" fx="824.331"><stop offset=".006" stop-color="#FAAF3E"/><stop offset=".646" stop-color="#F17912"/><stop offset="1" stop-color="#DD680E"/></radialGradient><radialGradient cx="824.325" cy="111.252" r="46.319" xlink:href="#v" gradientUnits="userSpaceOnUse" fx="824.325" fy="111.252"/><radialGradient id="v" cx="824.325" cy="111.252" r="46.319" gradientUnits="userSpaceOnUse" fy="111.252" fx="824.325"><stop offset=".006" stop-color="#FAAF3E"/><stop offset=".646" stop-color="#F17912"/><stop offset="1" stop-color="#DD680E"/></radialGradient><radialGradient cx="824.327" cy="111.253" r="46.314" xlink:href="#w" gradientUnits="userSpaceOnUse" fx="824.327" fy="111.253"/><radialGradient id="w" cx="824.327" cy="111.253" r="46.314" gradientUnits="userSpaceOnUse" fy="111.253" fx="824.327"><stop offset=".006" stop-color="#FAAF3E"/><stop offset=".646" stop-color="#F17912"/><stop offset="1" stop-color="#DD680E"/></radialGradient><radialGradient cx="824.326" cy="111.252" r="46.315" xlink:href="#x" gradientUnits="userSpaceOnUse" fx="824.326" fy="111.252"/><radialGradient id="x" cx="824.326" cy="111.252" r="46.315" gradientUnits="userSpaceOnUse" fy="111.252" fx="824.326"><stop offset=".006" stop-color="#FAAF3E"/><stop offset=".646" stop-color="#F17912"/><stop offset="1" stop-color="#DD680E"/></radialGradient><radialGradient cx="824.328" cy="111.252" r="46.311" xlink:href="#y" gradientUnits="userSpaceOnUse" fx="824.328" fy="111.252"/><radialGradient id="y" cx="824.328" cy="111.252" r="46.311" gradientUnits="userSpaceOnUse" fy="111.252" fx="824.328"><stop offset=".006" stop-color="#FAAF3E"/><stop offset=".646" stop-color="#F17912"/><stop offset="1" stop-color="#DD680E"/></radialGradient><radialGradient cx="824.328" cy="111.253" r="46.311" xlink:href="#z" gradientUnits="userSpaceOnUse" fx="824.328" fy="111.253"/><radialGradient id="z" cx="824.328" cy="111.253" r="46.311" gradientUnits="userSpaceOnUse" fy="111.253" fx="824.328"><stop offset=".006" stop-color="#FAAF3E"/><stop offset=".646" stop-color="#F17912"/><stop offset="1" stop-color="#DD680E"/></radialGradient><radialGradient cx="824.328" cy="111.251" r="46.31" xlink:href="#A" gradientUnits="userSpaceOnUse" fx="824.328" fy="111.251"/><radialGradient id="A" cx="824.328" cy="111.251" r="46.31" gradientUnits="userSpaceOnUse" fy="111.251" fx="824.328"><stop offset=".006" stop-color="#FAAF3E"/><stop offset=".646" stop-color="#F17912"/><stop offset="1" stop-color="#DD680E"/></radialGradient><radialGradient cx="824.325" cy="111.253" r="46.316" xlink:href="#B" gradientUnits="userSpaceOnUse" fx="824.325" fy="111.253"/><radialGradient id="B" cx="824.325" cy="111.253" r="46.316" gradientUnits="userSpaceOnUse" fy="111.253" fx="824.325"><stop offset=".006" stop-color="#FAAF3E"/><stop offset=".646" stop-color="#F17912"/><stop offset="1" stop-color="#DD680E"/></radialGradient><radialGradient cx="824.33" cy="111.252" r="46.307" xlink:href="#C" gradientUnits="userSpaceOnUse" fx="824.33" fy="111.252"/><radialGradient id="C" cx="824.33" cy="111.252" r="46.307" gradientUnits="userSpaceOnUse" fy="111.252" fx="824.33"><stop offset=".006" stop-color="#FAAF3E"/><stop offset=".646" stop-color="#F17912"/><stop offset="1" stop-color="#DD680E"/></radialGradient><radialGradient id="H" cx="824.329" cy="111.252" r="46.312" xlink:href="#r" gradientUnits="userSpaceOnUse" gradientTransform="translate(-823.738 -75.782)" fx="824.329" fy="111.252"/><radialGradient id="I" cx="804.052" cy="127.362" r="71.221" xlink:href="#s" gradientUnits="userSpaceOnUse" fx="804.052" fy="127.362"/><radialGradient id="J" cx="824.328" cy="111.252" r="46.311" xlink:href="#t" gradientUnits="userSpaceOnUse" fx="824.328" fy="111.252"/><radialGradient id="K" cx="824.331" cy="111.252" r="46.304" xlink:href="#u" gradientUnits="userSpaceOnUse" fx="824.331" fy="111.252"/><radialGradient id="L" cx="824.325" cy="111.252" r="46.319" xlink:href="#v" gradientUnits="userSpaceOnUse" fx="824.325" fy="111.252"/><radialGradient id="M" cx="824.327" cy="111.253" r="46.314" xlink:href="#w" gradientUnits="userSpaceOnUse" fx="824.327" fy="111.253"/><radialGradient id="N" cx="824.326" cy="111.252" r="46.315" xlink:href="#x" gradientUnits="userSpaceOnUse" fx="824.326" fy="111.252"/><radialGradient id="O" cx="824.328" cy="111.252" r="46.311" xlink:href="#y" gradientUnits="userSpaceOnUse" fx="824.328" fy="111.252"/><radialGradient id="P" cx="824.328" cy="111.253" r="46.311" xlink:href="#z" gradientUnits="userSpaceOnUse" fx="824.328" fy="111.253"/><radialGradient id="Q" cx="824.328" cy="111.251" r="46.31" xlink:href="#A" gradientUnits="userSpaceOnUse" fx="824.328" fy="111.251"/><radialGradient id="R" cx="824.325" cy="111.253" r="46.316" xlink:href="#B" gradientUnits="userSpaceOnUse" fx="824.325" fy="111.253"/><radialGradient id="S" cx="824.33" cy="111.252" r="46.307" xlink:href="#C" gradientUnits="userSpaceOnUse" fx="824.33" fy="111.252"/></defs><g><path fill="url(#D)" d="M46.5 39.04a21.68 9.04 0 1 1-43.36 0 21.68 9.04 0 1 1 43.36 0z" transform="matrix(1.131 0 0 1.229 -3.349 -11.066)" color="#000" overflow="visible" enable-background="accumulate"/><path fill="url(#E)" stroke="#000" stroke-width=".5" d="M7.78 24.22l7.64 14.1 29.6-5.16c.63-.34 1-.93 1.22-2.06l-11.7-11.36-25.9 2.84c-.58.36-1.02.8-.86 1.64z" stroke-linejoin="bevel"/><path fill="url(#F)" stroke="#000" stroke-width=".5" d="M7.57 22.8L15.6 6.36l26.07-.8c.6-.03 1.06.45 1.5 1l-8.52 13.43z" stroke-linejoin="bevel"/><path fill="#babdb6" d="M34.23 20.35l-.57 7.95 10.97 12.74 1.45-9.3z"/><path fill="#d5be9b" d="M8.35 22.15L34.3 19.5l3.9-5.98-31.05 2.65z"/><path fill="#cca363" d="M34.3 19.5l8.68-13.05-4.1-5.67-8.5 13.52z"/><path fill="url(#G)" stroke="#492e01" stroke-width=".5" d="M43.34 6.68L38.94.9c-.33-.47-1.37-.6-2.1-.6L13.47 1.45C11.7 1.32 8.76 3 8.16 5.08L4.57 14c-.38.7-.75 2.47-.13 3.06L7.37 23l6.6-13.03c.7-1.2 2.2-2.28 3.68-2.42L41 5.88c.7-.06 1.77-.1 2.34.8z" stroke-linejoin="bevel"/><path fill="#eeeeec" fill-opacity=".304" d="M8.37 5.1l4.7 5.58c1-1.63 2.16-3.15 4.7-3.6L13.24 1.7c-1.98.08-4.13 1.66-4.88 3.4z"/><path fill="#d3d7cf" d="M33.7 27.9c-.2 0-24 3.16-24 3.16l4.93 9.05 26.78-3.84z"/><g><path fill-opacity=".376" d="M40.6 17.7c-.12 0-.22.02-.33.06-6.5 2.26-22.92 10.73-30.3 16.4-.5.38-.48.98-.32 1.46.25.74 2.6 4.7 4.4 7.04.3.37 1.5-.38 1.34-.76-.48-1.13-2.2-4.7-2-5 .46-.36.9-.7 1.37-1.05.4.66 1.28 2.26 2.7 5.03.1.2.86-.28.75-.48-.1-.16-2.02-3.93-2.62-5.16.7-.5 1.38-1 2.05-1.48.47.75 1.6 2.66 2.95 5.33.1.18.87-.3.77-.5-.1-.18-2.32-4.32-2.86-5.4.65-.45 1.28-.9 1.9-1.32.5.74 1.8 2.76 3.23 5.43.1.2.86-.3.76-.5-1.02-1.83-2.67-4.56-3.15-5.45.65-.4 1.28-.82 1.93-1.2.43.63 1.8 2.74 3.38 5.44.1.18.88-.3.76-.48-1.3-2.06-2.85-4.8-3.26-5.53.63-.4 1.27-.75 1.9-1.1.4.54 1.77 2.53 3.45 5.4.1.2.88-.28.78-.47-1.02-1.86-2.87-4.56-3.4-5.4.65-.36 1.3-.68 1.92-1 .44.57 1.8 2.45 3.55 5.2.1.2.82-.2.7-.4-1.1-1.93-2.83-4.34-3.42-5.24.65-.34 1.3-.67 1.93-.98.34.45 1.58 2.24 3.55 5.07.1.18.82-.22.72-.42-.45-.86-2.63-3.9-3.4-5.07.62-.28 1.23-.6 1.86-.87.5.68 2.04 2.73 3.5 4.8.1.17.83-.23.7-.42-.7-1.1-2.6-3.63-3.37-4.73.63-.27 1.24-.54 1.87-.8.6.72 2 2.47 3.4 4.42.1.18.83-.23.72-.4-.7-1.07-2.46-3.32-3.28-4.42.63-.26 1.27-.5 1.9-.76.52.62 1.77 2.12 3.18 4.1.1.18.84-.23.7-.4-1.3-1.82-2.47-3.28-3.04-4.03.3-.13.62-.25.93-.37.32-.15 2.94 3.24 3.35 3.62.15.15 1.25-.6 1.05-.93-1.13-1.9-3.48-5.2-4-5.8-.4-.43-.83-.56-1.2-.53z"/><g><g fill="none" stroke="#803912" stroke-width="1.242"><path d="M15.46 33.14c.04.2 2.78 5.5 2.88 5.7.1.2-.66.68-.76.5-1.7-3.35-2.86-5.44-3-5.58-.08-.1.86-.7.88-.62z"/><path d="M18.4 31.2c.05.2 3 5.65 3.1 5.85.1.2-.67.67-.77.48-1.7-3.34-3.08-5.57-3.2-5.7-.1-.1.87-.73.88-.63z"/><path d="M21.16 29.4c.03.2 2.17 3.72 3.35 5.86.1.2-.66.67-.76.48-1.75-3.24-3.32-5.64-3.45-5.78-.1-.1.84-.65.86-.55z"/><path d="M26.7 26.1c.03.2 2.42 3.63 3.6 5.77.1.2-.67.67-.77.48-1.88-3.2-3.57-5.62-3.7-5.77-.08-.1.85-.58.87-.48z"/><path d="M29.4 24.6c.03.2 2.34 3.36 3.7 5.68.1.2-.63.6-.73.4-2-3.13-3.73-5.46-3.86-5.6-.07-.1.87-.58.9-.48z"/><path d="M32.1 23.12c.02.2 3.2 4.57 3.74 5.6.1.2-.6.6-.7.42-2.16-3.1-3.76-5.38-3.9-5.53-.07-.08.83-.58.85-.48z"/><path d="M34.75 21.86c.04.2 2.9 3.92 3.77 5.3.12.18-.6.6-.7.4-1.7-2.36-3.74-5.12-3.87-5.26-.1-.1.78-.54.8-.44z"/><path d="M37.4 20.6c.03.2 2.83 3.65 3.7 5.03.13.18-.6.6-.7.4-1.68-2.35-3.77-4.84-3.9-5-.08-.1.88-.53.9-.43z"/><path d="M40.22 19.6c.03.18 1.62 2.06 3.4 4.56.13.18-.6.6-.7.4-1.7-2.35-3.44-4.43-3.57-4.58-.08-.1.85-.5.87-.4z"/><path d="M23.9 27.6c.1.16 2.1 3.66 3.53 5.95.12.2-.66.67-.76.48-1.8-3.07-3.52-5.75-3.65-5.9-.1-.1.8-.7.9-.54z"/></g><path fill="url(#H)" stroke="#803912" stroke-width=".669" d="M40.28 19.28c.4-.2 3.7 4.05 4.2 4.53.2.2 1.6-.72 1.33-1.15-1.4-2.37-4.36-6.52-5.02-7.26-.66-.76-1.37-.8-1.92-.6-8.14 2.82-28.73 13.46-38 20.57-.62.48-.58 1.22-.38 1.82.32.92 3.24 5.88 5.52 8.84.36.46 1.87-.46 1.67-.94-.6-1.43-2.77-5.92-2.52-6.3C18 28.93 28.55 23.84 40.28 19.3z" transform="matrix(.797 0 0 .797 9.406 4.409)"/><g transform="matrix(.797 0 0 .797 -647.113 -55.989)"><radialGradient cx="804.052" cy="127.362" r="71.221" gradientUnits="userSpaceOnUse" fy="127.362" fx="804.052"><stop offset=".006" stop-color="#FAAF3E"/><stop offset=".646" stop-color="#F17912"/><stop offset="1" stop-color="#DD680E"/></radialGradient><path fill="url(#I)" d="M863.54 93.9c-11.92 4.64-22.52 9.77-35.42 19.7l-.16.12-.1.17s-.25.75-.25.75c0 .67.4 1.67 1.95 5.13l.58 1.3s0-.08.02-.1c.1.24.2.53.2.53l.82-.47-.22-.33-.58-1.3c-1.26-2.8-1.86-4.2-1.86-4.75l.1-.26s0-.03.02-.05c.03-.02.05-.04.05-.04 12.8-9.85 23.35-14.95 35.22-19.57.4-.18.9.24 3.5 3.38 0 0 .73.86.73.86l.7-.6-.74-.83c-2.78-3.34-3.48-4.1-4.56-3.63z"/></g><g transform="matrix(.797 0 0 .797 -647.113 -55.989)"><radialGradient cx="824.328" cy="111.252" r="46.311" gradientUnits="userSpaceOnUse" fy="111.252" fx="824.328"><stop offset=".006" stop-color="#FAAF3E"/><stop offset=".646" stop-color="#F17912"/><stop offset="1" stop-color="#DD680E"/></radialGradient><path fill="url(#J)" d="M831.33 111.83c.05.24 3.5 6.92 3.62 7.16.13.23-.83.83-.95.6-2.14-4.2-3.6-6.8-3.76-7-.1-.12 1.07-.9 1.1-.77z"/><radialGradient cx="824.331" cy="111.252" r="46.304" gradientUnits="userSpaceOnUse" fy="111.252" fx="824.331"><stop offset=".006" stop-color="#FAAF3E"/><stop offset=".646" stop-color="#F17912"/><stop offset="1" stop-color="#DD680E"/></radialGradient><path fill="url(#K)" d="M835.04 109.4c.04.23 3.73 7.1 3.86 7.33.13.24-.83.84-.95.6-2.14-4.18-3.87-6.97-4.03-7.16-.1-.12 1.1-.9 1.12-.77z"/><radialGradient cx="824.325" cy="111.252" r="46.319" gradientUnits="userSpaceOnUse" fy="111.252" fx="824.325"><stop offset=".006" stop-color="#FAAF3E"/><stop offset=".646" stop-color="#F17912"/><stop offset="1" stop-color="#DD680E"/></radialGradient><path fill="url(#L)" d="M838.48 107.15c.04.24 2.73 4.66 4.2 7.34.13.23-.83.83-.95.6-2.2-4.07-4.17-7.08-4.34-7.26-.1-.13 1.06-.8 1.08-.7z"/><radialGradient cx="824.327" cy="111.253" r="46.314" gradientUnits="userSpaceOnUse" fy="111.253" fx="824.327"><stop offset=".006" stop-color="#FAAF3E"/><stop offset=".646" stop-color="#F17912"/><stop offset="1" stop-color="#DD680E"/></radialGradient><path fill="url(#M)" d="M845.43 103c.05.23 3.04 4.55 4.5 7.23.14.24-.82.84-.95.6-2.35-4.02-4.47-7.05-4.63-7.23-.1-.12 1.06-.73 1.08-.6z"/><radialGradient cx="824.326" cy="111.252" r="46.315" gradientUnits="userSpaceOnUse" fy="111.252" fx="824.326"><stop offset=".006" stop-color="#FAAF3E"/><stop offset=".646" stop-color="#F17912"/><stop offset="1" stop-color="#DD680E"/></radialGradient><path fill="url(#N)" d="M848.8 101.1c.06.25 2.96 4.23 4.65 7.14.14.24-.77.75-.9.5-2.5-3.92-4.68-6.85-4.84-7.04-.1-.12 1.1-.7 1.1-.6z"/><radialGradient cx="824.328" cy="111.252" r="46.311" gradientUnits="userSpaceOnUse" fy="111.252" fx="824.328"><stop offset=".006" stop-color="#FAAF3E"/><stop offset=".646" stop-color="#F17912"/><stop offset="1" stop-color="#DD680E"/></radialGradient><path fill="url(#O)" d="M852.2 99.25c.04.24 4.02 5.74 4.7 7.05.13.24-.77.75-.9.5-2.7-3.86-4.7-6.74-4.85-6.92-.1-.12 1.02-.75 1.04-.63z"/><radialGradient cx="824.328" cy="111.253" r="46.311" gradientUnits="userSpaceOnUse" fy="111.253" fx="824.328"><stop offset=".006" stop-color="#FAAF3E"/><stop offset=".646" stop-color="#F17912"/><stop offset="1" stop-color="#DD680E"/></radialGradient><path fill="url(#P)" d="M855.54 97.67c.04.24 3.62 4.92 4.72 6.65.15.23-.77.75-.9.52-2.1-2.97-4.67-6.43-4.83-6.62-.1-.12.98-.67 1-.55z"/><radialGradient cx="824.328" cy="111.251" r="46.31" gradientUnits="userSpaceOnUse" fy="111.251" fx="824.328"><stop offset=".006" stop-color="#FAAF3E"/><stop offset=".646" stop-color="#F17912"/><stop offset="1" stop-color="#DD680E"/></radialGradient><path fill="url(#Q)" d="M858.86 96.1c.04.24 3.55 4.58 4.65 6.3.16.24-.76.75-.88.52-2.1-2.97-4.72-6.1-4.88-6.27-.1-.12 1.1-.68 1.12-.55z"/><radialGradient cx="824.325" cy="111.253" r="46.316" gradientUnits="userSpaceOnUse" fy="111.253" fx="824.325"><stop offset=".006" stop-color="#FAAF3E"/><stop offset=".646" stop-color="#F17912"/><stop offset="1" stop-color="#DD680E"/></radialGradient><path fill="url(#R)" d="M862.4 94.83c.04.24 2.03 2.6 4.27 5.73.16.23-.77.75-.9.52-2.1-2.97-4.3-5.58-4.46-5.76-.1-.12 1.07-.62 1.1-.5z"/><radialGradient cx="824.33" cy="111.252" r="46.307" gradientUnits="userSpaceOnUse" fy="111.252" fx="824.33"><stop offset=".006" stop-color="#FAAF3E"/><stop offset=".646" stop-color="#F17912"/><stop offset="1" stop-color="#DD680E"/></radialGradient><path fill="url(#S)" d="M841.94 104.86c.1.22 2.6 4.6 4.4 7.5.16.22-.82.83-.94.6-2.26-3.86-4.42-7.23-4.58-7.4-.1-.13 1.02-.88 1.12-.7z"/></g></g></g><path fill="url(#T)" stroke="#492e01" stroke-width=".5" d="M46.14 30.72l-.25 8.48c.05 1.3-1.3 1.98-2.65 2.2l-25.4 3.86c-1.88.6-4.62.43-5.58-1.62L6.03 31.98c-.08-7.5.17-8.93 2.68-9.3-.9.23-1 .86-.7 1.78l5.1 10.23c.66 1.76 2.8 2.54 4.37 2.14l26.83-4.4c1.05-.34 2.1-.63 1.84-1.72z" color="#000" stroke-linejoin="bevel" overflow="visible" enable-background="accumulate"/><path fill="#eeeeec" fill-opacity=".304" d="M12.76 34.45l-.3 8.88c1.42 2.1 3.2 2.2 5.1 1.66l.6-8.02c-1.88.7-4.2.06-5.4-2.53z" color="#000" overflow="visible" enable-background="accumulate"/><path fill="none" stroke="#e9b96e" stroke-width=".5" d="M41.93 5.5l-3.2-4.17c-.3-.45-1.3-.58-1.97-.56L13.6 2c-1.67-.12-4.44 1.45-5 3.42l-3.5 8.76c-.35.64-.7 2.3-.1 2.88l2.44 4.86 6.2-12.48c.67-1.12 2.1-2.14 3.48-2.27l22-1.83c.66-.06 1.97-.15 2.8.17z" stroke-linejoin="bevel"/><path fill="none" stroke="#e9b96e" stroke-width=".5" d="M45.83 31.87l-.35 6.97c.06 1.26-1.5 1.86-2.8 2.07l-25 3.96c-1.13.28-3.94.36-4.88-1.3L6.6 31.78c-.08-7.28.74-7.62.83-8.36-.7 1.02.5 1.9.78 2.46l4.7 9.34c.62 1.46 2.9 2.58 4.43 2.2L44 33.07c.7-.08 1.76-.36 1.83-1.2z" color="#000" stroke-linejoin="bevel" overflow="visible" enable-background="accumulate"/><path fill="#eeeeec" stroke="#555753" stroke-width=".75" d="M22.7 38.12c1.8-.8 3.7-1.23 5.78-1.07l.04 3.13-5.8 1.03z"/><path fill="#eeeeec" stroke="#555753" stroke-width=".75" d="M34.03 36.46c1.84-.92 3.8-1.1 5.77-1.06l.04 3.12-5.8 1.03z"/><path fill="url(#U)" d="M23.96 39.7h3.06v4.2h-3.06z" color="#000" overflow="visible" enable-background="accumulate"/><path fill="url(#V)" d="M35.34 37.87h3.07v4.2h-3.06z" color="#000" overflow="visible" enable-background="accumulate"/><path fill="url(#W)" stroke="#603c01" stroke-width=".5" d="M24.16 39.62l3.03 7.45c6.1 1.66 10.78.2 14.23-3.1l-3.1-6.67c-.92-.3-1.83-.5-2.75.7l1.27 2.75c.48.95.58 1.95.16 2.38-.97 1.04-4.8 1.73-6.9 1.14-.42-.12-1.12-.83-1.4-1.5l-1.72-3.8c-.87-.63-1.84-.06-2.82.65z"/><path fill="#ddc489" d="M24.42 39.7l2.86 7.06 3.07.57c-2.2-.92-3.4-4.1-4.94-8.27z"/><path fill="#ddc489" d="M35.9 38.08c1.1 2.3 1.43 3.77 1.54 4.62.2 1.58-4.55 2.1-6.06 2 3.44 1.6 7.38-.2 7.65-1.47.25-1.16-1.13-4.2-2.06-5.92-.52.1-.93.3-1.06.78z" color="#000" overflow="visible" enable-background="accumulate"/></g></svg>