<svg xmlns="http://www.w3.org/2000/svg" width="48" height="48" xmlns:xlink="http://www.w3.org/1999/xlink"><defs><linearGradient id="n"><stop offset="0" stop-color="#2e3436"/><stop offset="1" stop-color="#2e3436" stop-opacity="0"/></linearGradient><linearGradient id="m"><stop offset="0" stop-color="#c8a142"/><stop offset="1" stop-color="#ab8832"/></linearGradient><linearGradient id="l"><stop offset="0" stop-color="#442b01"/><stop offset="1" stop-color="#734801"/></linearGradient><linearGradient id="j"><stop offset="0" stop-color="#c8a142"/><stop offset="1" stop-color="#916012"/></linearGradient><linearGradient><stop offset="0" stop-color="#e8eae6"/><stop offset="1" stop-color="#a5ae9d"/></linearGradient><linearGradient id="b"><stop offset="0" stop-color="#2e3436"/><stop offset="1" stop-color="#2e3436" stop-opacity="0"/></linearGradient><linearGradient><stop offset="0" stop-color="#73796d"/><stop offset="1" stop-color="#cdcfca"/></linearGradient><linearGradient id="a"><stop offset="0" stop-color="#73796d"/><stop offset="1" stop-color="#abaea6"/></linearGradient><linearGradient id="p" x1="9.417" x2="32.89" y1="29.418" y2="26.488" xlink:href="#a" gradientUnits="userSpaceOnUse" gradientTransform="translate(-.071 -.857)"/><radialGradient cx="-64.877" cy="220.876" r="14.119" fx="-64.877" fy="220.876" gradientTransform="matrix(-1 0 0 1 55.359 0)" gradientUnits="userSpaceOnUse"><stop offset="0" stop-color="#ff8e6b"/><stop offset=".826" stop-color="#A40E0A"/><stop offset="1" stop-color="#660D0B"/></radialGradient><radialGradient cx="-62.017" cy="217.679" r="17.176" gradientUnits="userSpaceOnUse" gradientTransform="matrix(-1 0 0 1 55.359 0)" fy="217.679" fx="-62.017"><stop offset="0" stop-color="#fff"/><stop offset="1" stop-color="#A42522"/></radialGradient><linearGradient id="d" x1="-100.206" x2="-83.826" y1="222.647" y2="222.647" gradientUnits="userSpaceOnUse" gradientTransform="translate(191.69)"><stop offset=".028" stop-color="#84A8C9"/><stop offset=".108" stop-color="#88ABCB"/><stop offset=".191" stop-color="#95B5CE"/><stop offset=".253" stop-color="#A3C0D3"/><stop offset=".294" stop-color="#9CBBD0"/><stop offset=".355" stop-color="#88ACCA"/><stop offset=".427" stop-color="#6A94BE"/><stop offset=".508" stop-color="#4177AF"/><stop offset=".511" stop-color="#3F76AF"/><stop offset=".736" stop-color="#224987"/><stop offset=".829" stop-color="#244D8A"/><stop offset=".924" stop-color="#2A5794"/><stop offset="1" stop-color="#3065A0"/></linearGradient><radialGradient id="e" cx="-37.291" cy="214.005" r="19.446" fx="-37.291" fy="214.005" gradientTransform="matrix(-1 0 0 .847 55.653 28.519)" gradientUnits="userSpaceOnUse"><stop offset="0" stop-color="#fff"/><stop offset="1" stop-color="#224987"/></radialGradient><radialGradient id="f" cx="-38.266" cy="214.142" r="20.102" gradientUnits="userSpaceOnUse" gradientTransform="matrix(-1 0 0 1 55.653 0)" fy="214.142" fx="-38.266"><stop offset="0" stop-color="#fff"/><stop offset="1" stop-color="#3065A0"/></radialGradient><radialGradient id="g" cx="96.07" cy="217.459" r="30.602" gradientUnits="userSpaceOnUse" gradientTransform="matrix(1 0 0 .847 0 28.519)" fy="217.459" fx="96.07"><stop offset="0" stop-color="#fff"/><stop offset=".066" stop-color="#F4F7FA"/><stop offset=".182" stop-color="#D7E1EC"/><stop offset=".335" stop-color="#A7BDD7"/><stop offset=".516" stop-color="#668DB9"/><stop offset=".652" stop-color="#3065A0"/><stop offset=".916" stop-color="#1A3A6B"/></radialGradient><linearGradient id="c" x1="103.99" x2="118.07" y1="229.561" y2="229.189" gradientUnits="userSpaceOnUse"><stop offset="0" stop-color="#fff"/><stop offset=".078" stop-color="#FEFDEC"/><stop offset=".236" stop-color="#FCF7BB"/><stop offset=".459" stop-color="#F8ED6D"/><stop offset=".539" stop-color="#F6E94F"/><stop offset=".641" stop-color="#F5E84A"/><stop offset=".755" stop-color="#F3E43E"/><stop offset=".876" stop-color="#F0DD29"/><stop offset="1" stop-color="#EBD30F"/><stop offset="1" stop-color="#EBD30F"/></linearGradient><linearGradient id="h" x1="107.77" x2="105.604" y1="228.699" y2="227.569" gradientUnits="userSpaceOnUse"><stop offset="0" stop-color="#EFEEEC"/><stop offset="1" stop-color="#F6E94F"/></linearGradient><linearGradient id="i" x1="105.57" x2="115.738" y1="226.415" y2="240.775" gradientUnits="userSpaceOnUse"><stop offset="0" stop-color="#FAFAFA"/><stop offset=".579" stop-color="#F6E94F"/><stop offset=".693" stop-color="#F3E54B"/><stop offset=".793" stop-color="#EAD740"/><stop offset=".888" stop-color="#DBC32F"/><stop offset=".98" stop-color="#C8A61A"/><stop offset="1" stop-color="#C3A016"/></linearGradient><radialGradient id="o" cx="24.821" cy="39.036" r="21.679" xlink:href="#b" fx="24.821" fy="39.036" gradientTransform="matrix(1 0 0 .417 0 22.765)" gradientUnits="userSpaceOnUse"/><linearGradient x1="103.99" x2="118.07" y1="229.561" y2="229.189" xlink:href="#c" gradientUnits="userSpaceOnUse" gradientTransform="matrix(1.137 0 0 1.137 -153.806 -236.883)"/><linearGradient id="s" x1="-100.206" x2="-83.826" y1="222.647" y2="222.647" xlink:href="#d" gradientUnits="userSpaceOnUse" gradientTransform="matrix(.757 0 0 .757 45.57 -141.204)"/><radialGradient id="t" cx="-37.291" cy="214.005" r="19.446" xlink:href="#e" gradientUnits="userSpaceOnUse" gradientTransform="matrix(-.757 0 0 .642 -57.443 -119.608)" fx="-37.291" fy="214.005"/><radialGradient id="u" cx="-38.266" cy="214.142" r="20.102" xlink:href="#f" gradientUnits="userSpaceOnUse" gradientTransform="matrix(-1 0 0 1 55.653 0)" fx="-38.266" fy="214.142"/><radialGradient id="v" cx="96.07" cy="217.459" r="30.602" xlink:href="#g" gradientUnits="userSpaceOnUse" gradientTransform="matrix(1 0 0 .847 0 28.519)" fx="96.07" fy="217.459"/><linearGradient id="w" x1="103.99" x2="118.07" y1="229.561" y2="229.189" xlink:href="#c" gradientUnits="userSpaceOnUse" gradientTransform="matrix(1.137 0 0 1.137 -153.806 -236.883)"/><linearGradient id="x" x1="107.77" x2="105.604" y1="228.699" y2="227.569" xlink:href="#h" gradientUnits="userSpaceOnUse" gradientTransform="matrix(1.137 0 0 1.137 -153.806 -236.883)"/><linearGradient id="y" x1="105.57" x2="115.738" y1="226.415" y2="240.775" xlink:href="#i" gradientUnits="userSpaceOnUse"/><linearGradient id="r" x1="3.745" x2="42.916" y1="12.034" y2="12.034" xlink:href="#j" gradientUnits="userSpaceOnUse"/><linearGradient id="z" x1="3.745" x2="42.916" y1="12.034" y2="12.034" xlink:href="#k" gradientUnits="userSpaceOnUse"/><linearGradient id="k"><stop offset="0" stop-color="#c8a142"/><stop offset="1" stop-color="#916012"/></linearGradient><linearGradient x1="3.745" x2="42.916" y1="12.034" y2="12.034" gradientTransform="translate(-3.745 -1.42)" gradientUnits="userSpaceOnUse" xlink:href="#k"/><linearGradient id="q" x1="15.652" x2="21.852" y1="8.977" y2="16.301" xlink:href="#l" gradientUnits="userSpaceOnUse"/><linearGradient id="C" x1="23.228" x2="40.512" y1="42.568" y2="42.568" xlink:href="#m" gradientUnits="userSpaceOnUse"/><linearGradient id="A" x1="24.749" x2="24.799" y1="40.07" y2="44.06" xlink:href="#n" gradientUnits="userSpaceOnUse"/><linearGradient id="B" x1="24.749" x2="24.799" y1="40.07" y2="44.06" xlink:href="#n" gradientUnits="userSpaceOnUse" gradientTransform="translate(11.061 -1.768)"/></defs><g><path fill="url(#o)" d="M46.5 39.04a21.68 9.04 0 1 1-43.36 0 21.68 9.04 0 1 1 43.36 0z" transform="matrix(1.099 0 0 1.194 -3.239 -9.382)" color="#000" overflow="visible" enable-background="accumulate"/><path fill="url(#p)" stroke="#000" stroke-width=".5" d="M7.57 24.9L15 38.6l28.76-5.03c.6-.32.97-.9 1.17-2L33.55 20.54 8.4 23.3c-.55.35-1 .8-.83 1.6z" stroke-linejoin="bevel"/><path fill="url(#q)" stroke="#000" stroke-width=".5" d="M7.37 23.52l7.8-15.98 25.32-.78c.57-.03 1.02.44 1.46.96l-8.3 13.05z" stroke-linejoin="bevel"/><path fill="#babdb6" d="M33.26 21.13l-.55 7.73 10.67 12.37 1.4-9.04z"/><path fill="#d5be9b" d="M8.12 22.9l25.2-2.6 3.8-5.8-30.16 2.58z"/><path fill="#cca363" d="M33.33 20.3l8.43-12.67-4-5.5-8.22 13.13z"/><path fill="url(#r)" stroke="#492e01" stroke-width=".5" d="M42.1 7.85l-4.25-5.6c-.33-.47-1.34-.6-2.04-.58L13.1 2.77c-1.7-.12-4.56 1.5-5.13 3.53l-3.5 8.67c-.37.66-.74 2.4-.13 2.97l2.86 5.77 6.4-12.65c.68-1.16 2.14-2.2 3.58-2.35l22.68-1.62c.7-.06 1.72-.1 2.27.77z" stroke-linejoin="bevel"/><path fill="#eeeeec" fill-opacity=".304" d="M8.14 6.33l4.56 5.4c1-1.57 2.1-3.05 4.56-3.48l-4.38-5.22c-1.92.07-4 1.6-4.74 3.3z"/><path fill="#d3d7cf" d="M32.76 28.46c-.2 0-23.34 3.08-23.34 3.08l4.8 8.78 26-3.73z"/><g><path fill="url(#s)" d="M-17.9 18.66v13.17c0 1.1-.6 2.2-1.82 3.04-2.43 1.68-6.35 1.68-8.77 0-1.2-.84-1.8-1.7-1.8-2.8v-13.4" transform="matrix(.911 0 0 .911 42.866 4.914)"/><path fill="url(#t)" d="M-28.5 17.06c-2.4 1.2-2.4 3.1 0 4.3 2.43 1.18 6.35 1.18 8.77 0 2.42-1.2 2.42-3.1 0-4.3-2.42-1.18-6.34-1.18-8.76 0z" transform="matrix(.911 0 0 .911 42.866 4.914)"/><g transform="matrix(.69 0 0 .69 -47.857 -123.723)"><radialGradient cx="-38.266" cy="214.142" r="20.102" fx="-38.266" fy="214.142" gradientTransform="matrix(-1 0 0 1 55.653 0)" gradientUnits="userSpaceOnUse"><stop offset="0" stop-color="#fff"/><stop offset="1" stop-color="#3065A0"/></radialGradient><path fill="url(#u)" d="M107.38 212.34v16.07c0 1.4-.78 2.7-2.2 3.68-3.05 2.1-7.98 2.1-11.02 0-1.43-1-2.2-2-2.2-3.37v-16.28l.87.46v15.83c0 1.16.47 1.77 1.72 2.63 2.82 1.96 7.4 1.96 10.24 0 1.23-.86 1.7-1.77 1.7-2.92v-15.55l.88-.5z"/></g><g transform="matrix(.69 0 0 .69 -47.857 -123.434)"><radialGradient cx="96.07" cy="217.459" r="30.602" fx="96.07" fy="217.459" gradientTransform="matrix(1 0 0 .847 0 28.519)" gradientUnits="userSpaceOnUse"><stop offset="0" stop-color="#fff"/><stop offset=".066" stop-color="#F4F7FA"/><stop offset=".182" stop-color="#D7E1EC"/><stop offset=".335" stop-color="#A7BDD7"/><stop offset=".516" stop-color="#668DB9"/><stop offset=".652" stop-color="#3065A0"/><stop offset=".916" stop-color="#1A3A6B"/></radialGradient><path fill="url(#v)" d="M93.98 208.92c-1.58.77-2.44 1.8-2.44 2.92 0 1.1.86 2.15 2.44 2.92 3.14 1.54 8.26 1.54 11.4 0 1.57-.77 2.44-1.8 2.44-2.92 0-1.1-.87-2.15-2.44-2.92-3.14-1.54-8.26-1.54-11.4 0zm.6 5.3c-1.3-.65-2.03-1.5-2.03-2.38 0-.89.72-1.73 2.03-2.37 2.8-1.37 7.38-1.37 10.2 0 1.3.64 2.03 1.5 2.03 2.37 0 .89-.7 1.73-2.02 2.37-2.8 1.38-7.4 1.38-10.2 0zm-.6-5.3z"/></g><path fill="none" stroke="#003745" stroke-width=".66521" d="M26.55 22.4v11.5c0 1-.55 2.02-1.66 2.78-2.2 1.53-5.8 1.53-8 0-1.1-.77-1.65-1.56-1.65-2.56v-11.7c0-.7.56-1.42 1.66-1.96 2.2-1.08 5.8-1.08 8 0 1.1.54 1.65 1.24 1.65 1.95z"/></g><g><g><path fill="url(#w)" d="M-15.98 31.02c0 3.26-4.03 5.65-11.65 5.65-6.7 0-11.04-2.54-11.04-5.58 0-.14.05-.26.1-.36l11-19.5c.14-.24.36-.24.5 0l11 19.44c.05.1.08.2.1.34z" transform="matrix(.607 0 0 .607 46.621 16.167)"/><path fill="url(#x)" d="M-27.15 11.03l-7.6 24.4c-3.2-1.06-4.26-3.62-3.82-4.7l11.27-19.7h.15z" transform="matrix(.607 0 0 .607 46.621 16.167)"/><path fill="none" stroke="#540" stroke-width=".61.272" d="M36.72 34.5c.15.25.23.52.23.8 0 1.77-3.08 3.13-6.9 3.13-3.8 0-6.87-1.37-6.87-3.13 0-.33.1-.65.3-.95l6.6-11.5 6.64 11.64z"/><g transform="matrix(.69 0 0 .69 -46.739 -127.621)"><linearGradient x1="105.57" x2="115.738" y1="226.415" y2="240.775" gradientUnits="userSpaceOnUse"><stop offset="0" stop-color="#FAFAFA"/><stop offset=".579" stop-color="#F6E94F"/><stop offset=".693" stop-color="#F3E54B"/><stop offset=".793" stop-color="#EAD740"/><stop offset=".888" stop-color="#DBC32F"/><stop offset=".98" stop-color="#C8A61A"/><stop offset="1" stop-color="#C3A016"/></linearGradient><path fill="url(#y)" d="M111.1 219l-9.1 15.88c-.27.4-.4.8-.4 1.22 0 2.35 4.35 4.27 9.7 4.27 5.36 0 9.7-1.92 9.7-4.27 0-.35-.1-.7-.28-1.04 0 0-9.4-16.46-9.4-16.46l-.22.4zm-8.96 17.1c0-.3.1-.6.3-.92l.03-.05s8.4-14.68 8.86-15.45c.44.77 8.92 15.65 8.92 15.65.15.25.22.52.22.77 0 2-4.28 3.73-9.17 3.73-4.88 0-9.16-1.74-9.16-3.73z"/></g></g></g><path fill="url(#z)" stroke="#492e01" stroke-width=".5" d="M44.84 31.2l-.25 8.25c.05 1.26-1.26 1.9-2.57 2.13l-24.67 3.76c-1.83.58-4.5.4-5.43-1.58L5.87 32.43c-.08-7.3.17-8.67 2.6-9.05-.87.24-.97.85-.68 1.74l4.95 9.94c.63 1.72 2.7 2.48 4.24 2.1l26.05-4.27c1.02-.35 2.02-.63 1.8-1.7z" stroke-linejoin="bevel" color="#000" overflow="visible" enable-background="accumulate"/><path fill="#eeeeec" fill-opacity=".304" d="M12.4 34.83l-.28 8.62c1.38 2.03 3.1 2.15 4.95 1.62l.58-7.78c-1.83.67-4.08.04-5.24-2.47z" color="#000" overflow="visible" enable-background="accumulate"/><path fill="none" stroke="#e9b96e" stroke-width=".5" d="M40.75 6.72l-3.1-4.06c-.32-.44-1.27-.56-1.93-.54L13.22 3.3c-1.62-.1-4.3 1.4-4.84 3.33l-3.4 8.5c-.35.63-.7 2.26-.12 2.8l2.38 4.73 6.03-12.12c.65-1.1 2.02-2.08 3.38-2.2L38 6.53c.65-.04 1.93-.14 2.75.18z" stroke-linejoin="bevel"/><path fill="none" stroke="#e9b96e" stroke-width=".5" d="M44.53 32.32l-.34 6.77c.05 1.22-1.47 1.8-2.74 2L17.2 44.95c-1.1.26-3.84.34-4.75-1.28L6.42 32.25c-.07-7.07.72-7.4.8-8.1-.68.97.48 1.82.77 2.38l4.53 9.07c.6 1.42 2.83 2.5 4.3 2.12l25.92-4.22c.68-.08 1.7-.35 1.78-1.18z" color="#000" stroke-linejoin="bevel" overflow="visible" enable-background="accumulate"/><path fill="#eeeeec" stroke="#555753" stroke-width=".75" d="M22.07 38.4c1.75-.8 3.6-1.2 5.6-1.04l.04 3.03-5.63 1z"/><path fill="#eeeeec" stroke="#555753" stroke-width=".75" d="M33.07 36.8c1.8-.9 3.68-1.1 5.6-1.05l.04 3.04-5.63 1z"/><path fill="url(#A)" d="M23.28 39.92h2.98v4.1h-2.98z" color="#000" overflow="visible" enable-background="accumulate"/><path fill="url(#B)" d="M34.34 38.15h2.98v4.1h-2.98z" color="#000" overflow="visible" enable-background="accumulate"/><path fill="url(#C)" stroke="#603c01" stroke-width=".5" d="M23.48 39.86l2.95 7.23c5.93 1.6 10.48.17 13.83-3.03l-3-6.47c-.9-.3-1.8-.5-2.7.7l1.25 2.65c.48.93.57 1.9.17 2.32-.96 1-4.68 1.67-6.7 1.1-.42-.1-1.1-.8-1.4-1.44l-1.65-3.7c-.85-.62-1.8-.07-2.74.63z"/><path fill="#ddc489" d="M23.74 39.92l2.78 6.87 2.98.54c-2.15-.9-3.3-4-4.8-8.03z"/><path fill="#ddc489" d="M34.9 38.36c1.06 2.24 1.38 3.66 1.48 4.48.2 1.53-4.42 2.04-5.88 1.95 3.34 1.53 7.16-.2 7.43-1.44.24-1.13-1.1-4.1-2-5.75-.5.1-.9.3-1.04.76z" color="#000" overflow="visible" enable-background="accumulate"/></g></svg>