<svg xmlns="http://www.w3.org/2000/svg" width="48" height="48" xmlns:xlink="http://www.w3.org/1999/xlink"><defs><linearGradient id="g" x1="28.059" x2="33.437" y1="18.868" y2="23.743" xlink:href="#a" gradientUnits="userSpaceOnUse" gradientTransform="matrix(.75 0 0 .75 -3.021 -1.35)"/><linearGradient id="a"><stop offset="0" stop-color="#6e3d09"/><stop offset=".242" stop-color="#ea8113"/><stop offset=".621" stop-color="#5c3307"/><stop offset="1" stop-color="#e07c12"/></linearGradient><linearGradient id="h" x1="19.395" x2="23.109" y1="30.001" y2="33.439" xlink:href="#b" gradientUnits="userSpaceOnUse" gradientTransform="matrix(.75 0 0 .75 -3.021 -1.35)"/><linearGradient id="b"><stop offset="0" stop-color="#bdbdbd"/><stop offset=".333" stop-color="#e2e2e2"/><stop offset=".667" stop-color="#a3a3a3"/><stop offset="1" stop-color="#ddd"/></linearGradient><radialGradient id="i" cx="15.415" cy="35.357" r="7.579" xlink:href="#c" gradientUnits="userSpaceOnUse" gradientTransform="matrix(.746 0 0 .727 -3.528 .127)" fx="15.415" fy="35.357"/><linearGradient id="c"><stop offset="0" stop-color="#696969"/><stop offset="1"/></linearGradient><linearGradient id="j" x1="13.236" x2="7.752" y1="37.752" y2="42.282" xlink:href="#d" gradientUnits="userSpaceOnUse" gradientTransform="matrix(.639 0 0 .639 -1.348 2.818)"/><linearGradient id="d"><stop offset="0" stop-color="#fff"/><stop offset="1" stop-color="#fff" stop-opacity="0"/></linearGradient><radialGradient id="f" cx="-30.47" cy="17.962" r="18.623" xlink:href="#e" fx="-30.47" fy="17.962" gradientTransform="matrix(.834 .215 -.468 1.811 41.194 -7.905)" gradientUnits="userSpaceOnUse"/><linearGradient id="e"><stop offset="0" stop-color="#b5e9ff"/><stop offset="1" stop-color="#4c9cbe"/></linearGradient></defs><g color="#000"><path fill="url(#f)" stroke="#3465a4" stroke-dashoffset=".4" d="M16.72 1.08c5.56 2.54 6.9 7.46 5.36 10.86-1.5 3.3-5.84 7.16-5.76 12.42.1 6.66 3.16 7.9 5.5 10.02 2.84 2.52 3.88 8.44.56 11.2-3.1 2.6-7.96 2.82-11.52-.8-3.36-3.4-9.76-7.05-9.7-20.52C1.17 16.36 3 12.4 6.2 6.28c1.7-3.22 6.44-7.08 10.52-5.2z" stroke-linejoin="round" stroke-dasharray="2.00000004, 1.00000002" overflow="visible" enable-background="accumulate"/><g><path fill="url(#g)" stroke="#673907" stroke-width=".992" d="M14.65 16.94l3.05 2.85c5.4-5.3 13.33-18 13.33-18 .32-.9-.8-1.5-1.38-.87 0 0-10.27 10.57-15 16z" stroke-linecap="round" overflow="visible" transform="matrix(1.008 0 0 1.008 16.074 12.09)"/><path fill="url(#h)" stroke="#888a85" stroke-width=".992" d="M8.95 24.6l1.68 1.46L17 20.54l.2-.53h.83c-.33-1.18-2.2-3.3-3.62-3.3l.08.82-.5.3-5.03 6.8z" stroke-linecap="round" overflow="visible" transform="matrix(1.008 0 0 1.008 16.074 12.09)"/><path fill="url(#i)" d="M1.23 30.54c4.95 0 8.7.6 9.42-3 .58-2.92-3.42-4.3-5.4-1.7-1.9 2.48-4.02 4.7-4.02 4.7z" overflow="visible" transform="matrix(1.008 0 0 1.008 16.074 12.09)"/><path fill="#fff" d="M24.53 38.4c0 .43-.36.8-.8.8-.45 0-.8-.37-.8-.8 0-.46.35-.82.8-.82.44 0 .8.36.8.8z" opacity=".528" overflow="visible"/><path fill="#fff" d="M32.06 31.02c0 .4-.33.74-.75.74-.4 0-.73-.33-.73-.74 0-.4.33-.75.74-.75.43 0 .76.34.76.75z" overflow="visible"/><path fill="none" stroke="#fff" stroke-width="1.00192" d="M30.3 32.05l-4 4.64" stroke-linecap="round" stroke-linejoin="round" overflow="visible"/><path fill="url(#j)" d="M2.2 30.05S4.73 28.82 5.8 27c.38-.66 1.24-.1.7.54-1.13 1.4-4.27 2.5-4.27 2.5z" opacity=".428" overflow="visible" transform="matrix(1.008 0 0 1.008 16.074 12.09)"/><path fill="#fff" d="M46.65 13.52c0 .12-.1.22-.23.22-.12 0-.22-.1-.22-.22 0-.13.1-.23.22-.23s.23.1.23.22z" opacity=".533" overflow="visible"/></g><path fill="#fff" fill-opacity=".351" d="M11.18 10.88c-2.04 4.4-3.06 8.23-4.28 7.66-1.23-.57-2.2-5.33-.16-9.72 2.04-4.4 6.33-6.76 7.55-6.2 1.22.58-1.08 3.87-3.12 8.26z" overflow="visible" enable-background="accumulate"/><path fill="#fff" fill-opacity=".557" d="M10.22 10.35c-1.1 2.38-1.65 4.45-2.3 4.14-.68-.32-1.2-2.9-.1-5.26 1.1-2.38 3.42-3.66 4.1-3.35.65.3-.6 2.08-1.7 4.45z" overflow="visible" enable-background="accumulate"/></g></svg>