<svg xmlns="http://www.w3.org/2000/svg" width="48" height="48" xmlns:xlink="http://www.w3.org/1999/xlink"><defs><linearGradient id="d"><stop offset="0" stop-color="#2e3436"/><stop offset="1" stop-color="#2e3436" stop-opacity="0"/></linearGradient><linearGradient id="c"><stop offset="0" stop-color="#fff" stop-opacity=".237"/><stop offset="1" stop-color="#fff" stop-opacity="0"/></linearGradient><linearGradient id="b"><stop offset="0" stop-color="#66788c"/><stop offset="1" stop-color="#c7cbdf"/></linearGradient><linearGradient id="a"><stop offset="0" stop-color="#e2ebf5"/><stop offset="1" stop-color="#4781d4"/></linearGradient><radialGradient id="g" cx="22.5" cy="18.643" r="5.286" xlink:href="#a" fx="22.5" fy="18.643" gradientUnits="userSpaceOnUse"/><radialGradient id="h" cx="22.5" cy="18.643" r="5.286" xlink:href="#a" gradientUnits="userSpaceOnUse" fx="22.5" fy="18.643"/><radialGradient id="i" cx="22.5" cy="18.643" r="5.286" xlink:href="#a" gradientUnits="userSpaceOnUse" fx="22.5" fy="18.643"/><radialGradient id="j" cx="22.5" cy="18.643" r="5.286" xlink:href="#a" gradientUnits="userSpaceOnUse" fx="22.5" fy="18.643"/><radialGradient id="k" cx="22.5" cy="18.643" r="5.286" xlink:href="#a" gradientUnits="userSpaceOnUse" fx="22.5" fy="18.643"/><radialGradient id="l" cx="22.5" cy="18.643" r="5.286" xlink:href="#a" gradientUnits="userSpaceOnUse" fx="22.5" fy="18.643"/><radialGradient id="m" cx="22.5" cy="18.643" r="5.286" xlink:href="#a" gradientUnits="userSpaceOnUse" fx="22.5" fy="18.643"/><radialGradient id="n" cx="22.5" cy="18.643" r="5.286" xlink:href="#a" gradientUnits="userSpaceOnUse" fx="22.5" fy="18.643"/><radialGradient id="o" cx="22.5" cy="18.643" r="5.286" xlink:href="#a" gradientUnits="userSpaceOnUse" fx="22.5" fy="18.643"/><radialGradient id="p" cx="22.5" cy="18.643" r="5.286" xlink:href="#a" gradientUnits="userSpaceOnUse" fx="22.5" fy="18.643"/><radialGradient id="q" cx="22.5" cy="18.643" r="5.286" xlink:href="#a" gradientUnits="userSpaceOnUse" fx="22.5" fy="18.643"/><radialGradient id="r" cx="22.5" cy="18.643" r="5.286" xlink:href="#a" gradientUnits="userSpaceOnUse" fx="22.5" fy="18.643"/><radialGradient id="s" cx="22.5" cy="18.643" r="5.286" xlink:href="#a" gradientUnits="userSpaceOnUse" fx="22.5" fy="18.643"/><radialGradient id="t" cx="22.5" cy="18.643" r="5.286" xlink:href="#a" gradientUnits="userSpaceOnUse" fx="22.5" fy="18.643"/><radialGradient id="u" cx="22.5" cy="18.643" r="5.286" xlink:href="#a" gradientUnits="userSpaceOnUse" fx="22.5" fy="18.643"/><radialGradient id="ax" cx="22.5" cy="18.643" r="5.286" xlink:href="#a" gradientUnits="userSpaceOnUse" fx="22.5" fy="18.643"/><radialGradient id="v" cx="22.5" cy="18.643" r="5.286" xlink:href="#a" gradientUnits="userSpaceOnUse" fx="22.5" fy="18.643"/><radialGradient id="w" cx="22.5" cy="18.643" r="5.286" xlink:href="#a" gradientUnits="userSpaceOnUse" fx="22.5" fy="18.643"/><radialGradient id="aw" cx="22.5" cy="18.643" r="5.286" xlink:href="#a" gradientUnits="userSpaceOnUse" fx="22.5" fy="18.643"/><radialGradient id="x" cx="22.5" cy="18.643" r="5.286" xlink:href="#a" gradientUnits="userSpaceOnUse" fx="22.5" fy="18.643"/><radialGradient id="y" cx="22.5" cy="18.643" r="5.286" xlink:href="#a" gradientUnits="userSpaceOnUse" fx="22.5" fy="18.643"/><radialGradient id="z" cx="22.5" cy="18.643" r="5.286" xlink:href="#a" gradientUnits="userSpaceOnUse" fx="22.5" fy="18.643"/><radialGradient id="A" cx="22.5" cy="18.643" r="5.286" xlink:href="#a" gradientUnits="userSpaceOnUse" fx="22.5" fy="18.643"/><radialGradient id="B" cx="22.5" cy="18.643" r="5.286" xlink:href="#a" gradientUnits="userSpaceOnUse" fx="22.5" fy="18.643"/><radialGradient id="C" cx="22.5" cy="18.643" r="5.286" xlink:href="#a" gradientUnits="userSpaceOnUse" fx="22.5" fy="18.643"/><radialGradient id="D" cx="22.5" cy="18.643" r="5.286" xlink:href="#a" gradientUnits="userSpaceOnUse" fx="22.5" fy="18.643"/><radialGradient id="E" cx="22.5" cy="18.643" r="5.286" xlink:href="#a" gradientUnits="userSpaceOnUse" fx="22.5" fy="18.643"/><radialGradient id="ay" cx="22.5" cy="18.643" r="5.286" xlink:href="#a" gradientUnits="userSpaceOnUse" fx="22.5" fy="18.643"/><radialGradient id="F" cx="22.5" cy="18.643" r="5.286" xlink:href="#a" gradientUnits="userSpaceOnUse" fx="22.5" fy="18.643"/><radialGradient id="G" cx="22.5" cy="18.643" r="5.286" xlink:href="#a" gradientUnits="userSpaceOnUse" fx="22.5" fy="18.643"/><radialGradient id="H" cx="22.5" cy="18.643" r="5.286" xlink:href="#a" gradientUnits="userSpaceOnUse" fx="22.5" fy="18.643"/><radialGradient id="I" cx="22.5" cy="18.643" r="5.286" xlink:href="#a" gradientUnits="userSpaceOnUse" fx="22.5" fy="18.643"/><radialGradient id="J" cx="22.5" cy="18.643" r="5.286" xlink:href="#a" gradientUnits="userSpaceOnUse" fx="22.5" fy="18.643"/><radialGradient id="K" cx="22.5" cy="18.643" r="5.286" xlink:href="#a" gradientUnits="userSpaceOnUse" fx="22.5" fy="18.643"/><radialGradient id="L" cx="22.5" cy="18.643" r="5.286" xlink:href="#a" gradientUnits="userSpaceOnUse" fx="22.5" fy="18.643"/><radialGradient id="M" cx="22.5" cy="18.643" r="5.286" xlink:href="#a" gradientUnits="userSpaceOnUse" fx="22.5" fy="18.643"/><radialGradient id="N" cx="22.5" cy="18.643" r="5.286" xlink:href="#a" gradientUnits="userSpaceOnUse" fx="22.5" fy="18.643"/><radialGradient id="O" cx="22.5" cy="18.643" r="5.286" xlink:href="#a" gradientUnits="userSpaceOnUse" fx="22.5" fy="18.643"/><radialGradient id="P" cx="22.5" cy="18.643" r="5.286" xlink:href="#a" gradientUnits="userSpaceOnUse" fx="22.5" fy="18.643"/><radialGradient id="Q" cx="22.5" cy="18.643" r="5.286" xlink:href="#a" gradientUnits="userSpaceOnUse" fx="22.5" fy="18.643"/><radialGradient id="R" cx="22.5" cy="18.643" r="5.286" xlink:href="#a" gradientUnits="userSpaceOnUse" fx="22.5" fy="18.643"/><radialGradient id="S" cx="22.5" cy="18.643" r="5.286" xlink:href="#a" gradientUnits="userSpaceOnUse" fx="22.5" fy="18.643"/><radialGradient id="az" cx="22.5" cy="18.643" r="5.286" xlink:href="#a" gradientUnits="userSpaceOnUse" fx="22.5" fy="18.643"/><radialGradient id="T" cx="22.5" cy="18.643" r="5.286" xlink:href="#a" gradientUnits="userSpaceOnUse" fx="22.5" fy="18.643"/><radialGradient id="U" cx="22.5" cy="18.643" r="5.286" xlink:href="#a" gradientUnits="userSpaceOnUse" fx="22.5" fy="18.643"/><radialGradient id="V" cx="22.5" cy="18.643" r="5.286" xlink:href="#a" gradientUnits="userSpaceOnUse" fx="22.5" fy="18.643"/><radialGradient id="W" cx="22.5" cy="18.643" r="5.286" xlink:href="#a" gradientUnits="userSpaceOnUse" fx="22.5" fy="18.643"/><radialGradient id="X" cx="22.5" cy="18.643" r="5.286" xlink:href="#a" gradientUnits="userSpaceOnUse" fx="22.5" fy="18.643"/><radialGradient id="Y" cx="22.5" cy="18.643" r="5.286" xlink:href="#a" gradientUnits="userSpaceOnUse" fx="22.5" fy="18.643"/><radialGradient id="Z" cx="22.5" cy="18.643" r="5.286" xlink:href="#a" gradientUnits="userSpaceOnUse" fx="22.5" fy="18.643"/><radialGradient id="aa" cx="22.5" cy="18.643" r="5.286" xlink:href="#a" gradientUnits="userSpaceOnUse" fx="22.5" fy="18.643"/><radialGradient id="ab" cx="22.5" cy="18.643" r="5.286" xlink:href="#a" gradientUnits="userSpaceOnUse" fx="22.5" fy="18.643"/><radialGradient id="ac" cx="22.5" cy="18.643" r="5.286" xlink:href="#a" gradientUnits="userSpaceOnUse" fx="22.5" fy="18.643"/><radialGradient id="ad" cx="22.5" cy="18.643" r="5.286" xlink:href="#a" gradientUnits="userSpaceOnUse" fx="22.5" fy="18.643"/><radialGradient id="ae" cx="22.5" cy="18.643" r="5.286" xlink:href="#a" gradientUnits="userSpaceOnUse" fx="22.5" fy="18.643"/><radialGradient id="av" cx="22.5" cy="18.643" r="5.286" xlink:href="#a" gradientUnits="userSpaceOnUse" fx="22.5" fy="18.643"/><radialGradient id="af" cx="22.5" cy="18.643" r="5.286" xlink:href="#a" gradientUnits="userSpaceOnUse" fx="22.5" fy="18.643"/><radialGradient id="ag" cx="22.5" cy="18.643" r="5.286" xlink:href="#a" gradientUnits="userSpaceOnUse" fx="22.5" fy="18.643"/><radialGradient id="ah" cx="22.5" cy="18.643" r="5.286" xlink:href="#a" gradientUnits="userSpaceOnUse" fx="22.5" fy="18.643"/><radialGradient id="ai" cx="22.5" cy="18.643" r="5.286" xlink:href="#a" gradientUnits="userSpaceOnUse" fx="22.5" fy="18.643"/><radialGradient id="aj" cx="22.5" cy="18.643" r="5.286" xlink:href="#a" gradientUnits="userSpaceOnUse" fx="22.5" fy="18.643"/><radialGradient id="ak" cx="22.5" cy="18.643" r="5.286" xlink:href="#a" gradientUnits="userSpaceOnUse" fx="22.5" fy="18.643"/><radialGradient id="al" cx="22.5" cy="18.643" r="5.286" xlink:href="#a" gradientUnits="userSpaceOnUse" fx="22.5" fy="18.643"/><radialGradient id="am" cx="22.5" cy="18.643" r="5.286" xlink:href="#a" gradientUnits="userSpaceOnUse" fx="22.5" fy="18.643"/><radialGradient id="an" cx="22.5" cy="18.643" r="5.286" xlink:href="#a" gradientUnits="userSpaceOnUse" fx="22.5" fy="18.643"/><radialGradient id="ao" cx="22.5" cy="18.643" r="5.286" xlink:href="#a" gradientUnits="userSpaceOnUse" fx="22.5" fy="18.643"/><radialGradient id="ap" cx="22.5" cy="18.643" r="5.286" xlink:href="#a" gradientUnits="userSpaceOnUse" fx="22.5" fy="18.643"/><radialGradient id="aq" cx="22.5" cy="18.643" r="5.286" xlink:href="#a" gradientUnits="userSpaceOnUse" fx="22.5" fy="18.643"/><radialGradient id="ar" cx="22.5" cy="18.643" r="5.286" xlink:href="#a" gradientUnits="userSpaceOnUse" fx="22.5" fy="18.643"/><radialGradient id="as" cx="22.5" cy="18.643" r="5.286" xlink:href="#a" gradientUnits="userSpaceOnUse" fx="22.5" fy="18.643"/><radialGradient id="at" cx="22.5" cy="18.643" r="5.286" xlink:href="#a" gradientUnits="userSpaceOnUse" fx="22.5" fy="18.643"/><radialGradient id="au" cx="22.5" cy="18.643" r="5.286" xlink:href="#a" gradientUnits="userSpaceOnUse" fx="22.5" fy="18.643"/><linearGradient id="f" x1="19.813" x2="20.001" y1="1.036" y2="47.086" xlink:href="#b" gradientUnits="userSpaceOnUse"/><radialGradient id="aA" cx="29.587" cy="31.283" r="9.491" xlink:href="#b" fx="29.587" fy="31.283" gradientTransform="matrix(3.623 -1.041 .932 3.248 -109.182 -27.988)" gradientUnits="userSpaceOnUse"/><linearGradient id="aB" x1="34.951" x2="33.84" y1="30.12" y2="23.655" xlink:href="#c" gradientUnits="userSpaceOnUse" gradientTransform="matrix(.952 0 0 .953 2.736 1.762)"/><radialGradient id="e" cx="24.749" cy="43.707" r="17.274" xlink:href="#d" fx="24.749" fy="43.707" gradientTransform="matrix(1 0 0 .231 0 33.611)" gradientUnits="userSpaceOnUse"/></defs><g><path fill="url(#e)" fill-rule="evenodd" d="M42.02 43.7a17.27 4 0 1 1-34.54 0 17.27 4 0 1 1 34.54 0z" transform="translate(0 .202)" color="#000" overflow="visible" enable-background="accumulate"/><path fill="url(#f)" fill-rule="evenodd" stroke="#000" stroke-width="1.178" d="M31.62 23.96a11.62 23.54 0 1 1-23.24 0 11.62 23.54 0 1 1 23.24 0z" transform="matrix(.766 0 0 .94 7.569 .227)" color="#000" overflow="visible" enable-background="accumulate"/><path fill="none" stroke="#eeeeec" stroke-opacity=".502" stroke-width="1.242" d="M31.62 23.96a11.62 23.54 0 1 1-23.24 0 11.62 23.54 0 1 1 23.24 0z" transform="matrix(.725 0 0 .895 8.638 1.214)" color="#000" overflow="visible" enable-background="accumulate"/><g color="#000"><path fill="none" stroke="#204a87" stroke-width="2.43.701" d="M21.82 5.82c-1.18 0-2.14.96-2.14 2.14 0 .04 0 .08 0 .13-1.1.07-2 .98-2 2.1 0 .36.1.7.27 1-.17-.05-.35-.05-.54-.05-1.14 0-2.06.92-2.1 2.06-1.03.17-1.82 1.04-1.82 2.1 0 .06.03.1.03.16-.94.22-1.65 1.05-1.65 2.06 0 .27.07.5.16.74-1.06.13-1.88 1.03-1.88 2.12 0 .15.02.3.05.43-.55.4-.92 1.02-.92 1.75 0 .36.08.7.23 1-.46.4-.76.97-.76 1.63 0 .57.24 1.1.6 1.48-.36.38-.6.9-.6 1.47 0 .74.37 1.4.94 1.8-.05.18-.1.35-.1.55 0 .97.64 1.8 1.53 2.07-.02.04 0 .08 0 .13 0 1.1.83 2 1.9 2.1 0 1.18.97 2.13 2.14 2.13.25 0 .5-.04.72-.12.23.92 1.1 1.6 2.1 1.6.37 0 .72-.1 1.03-.27.38.55 1 .9 1.73.9.6 0 1.2-.27 1.58-.7.4.43.95.7 1.56.7.86 0 1.6-.5 1.94-1.22.3.17.67.25 1.05.25 1.18 0 2.14-.94 2.14-2.12 0 0 0-.02 0-.04.17.05.36.08.55.08 1.18 0 2.14-.96 2.14-2.14 0-.15-.03-.27-.06-.4.06 0 .12 0 .18 0 1.18 0 2.14-.95 2.14-2.13 0-.33-.1-.63-.23-.92.75-.33 1.28-1.1 1.28-1.96 0-.5-.14-.95-.43-1.3.38-.4.62-.9.62-1.5 0-.8-.48-1.52-1.16-1.88.4-.38.6-.94.6-1.53 0-1.12-.84-2.03-1.93-2.13-.06-.14-.14-.28-.24-.4.17-.3.28-.67.28-1.05 0-1.03-.74-1.9-1.7-2.1 0 0 0-.02 0-.04 0-.97-.66-1.8-1.54-2.07.02-.1.05-.18.05-.3 0-1.08-.8-1.97-1.86-2.1 0-.02 0-.03 0-.04 0-1.05-.8-1.92-1.8-2.1-.07-1.04-.9-1.9-1.96-1.98-.04-1.14-.96-2.06-2.12-2.06z" overflow="visible" enable-background="accumulate"/><path fill="url(#g)" fill-rule="evenodd" d="M28.43 19.8a4.8 4.8 0 1 1-9.57 0 4.8 4.8 0 1 1 9.57 0z" transform="matrix(.447 0 0 .447 1.115 21.669)" overflow="visible" enable-background="accumulate"/><path fill="url(#h)" fill-rule="evenodd" d="M28.43 19.8a4.8 4.8 0 1 1-9.57 0 4.8 4.8 0 1 1 9.57 0z" transform="matrix(.447 0 0 .447 2.643 23.851)" overflow="visible" enable-background="accumulate"/><path fill="url(#i)" fill-rule="evenodd" d="M28.43 19.8a4.8 4.8 0 1 1-9.57 0 4.8 4.8 0 1 1 9.57 0z" transform="matrix(.447 0 0 .447 4.563 25.946)" overflow="visible" enable-background="accumulate"/><path fill="url(#j)" fill-rule="evenodd" d="M28.43 19.8a4.8 4.8 0 1 1-9.57 0 4.8 4.8 0 1 1 9.57 0z" transform="matrix(.447 0 0 .447 7.357 27.43)" overflow="visible" enable-background="accumulate"/><path fill="url(#k)" fill-rule="evenodd" d="M28.43 19.8a4.8 4.8 0 1 1-9.57 0 4.8 4.8 0 1 1 9.57 0z" transform="matrix(.447 0 0 .447 10.15 28.041)" overflow="visible" enable-background="accumulate"/><path fill="url(#l)" fill-rule="evenodd" d="M28.43 19.8a4.8 4.8 0 1 1-9.57 0 4.8 4.8 0 1 1 9.57 0z" transform="matrix(.447 0 0 .447 13.292 28.041)" overflow="visible" enable-background="accumulate"/><path fill="url(#m)" fill-rule="evenodd" d="M28.43 19.8a4.8 4.8 0 1 1-9.57 0 4.8 4.8 0 1 1 9.57 0z" transform="matrix(.447 0 0 .447 16.26 27.08)" overflow="visible" enable-background="accumulate"/><path fill="url(#n)" fill-rule="evenodd" d="M28.43 19.8a4.8 4.8 0 1 1-9.57 0 4.8 4.8 0 1 1 9.57 0z" transform="matrix(.447 0 0 .447 18.967 24.986)" overflow="visible" enable-background="accumulate"/><path fill="url(#o)" fill-rule="evenodd" d="M28.43 19.8a4.8 4.8 0 1 1-9.57 0 4.8 4.8 0 1 1 9.57 0z" transform="matrix(.447 0 0 .447 21.236 22.454)" overflow="visible" enable-background="accumulate"/><path fill="url(#p)" fill-rule="evenodd" d="M28.43 19.8a4.8 4.8 0 1 1-9.57 0 4.8 4.8 0 1 1 9.57 0z" transform="matrix(.447 0 0 .447 22.283 19.573)" overflow="visible" enable-background="accumulate"/><path fill="url(#q)" fill-rule="evenodd" d="M28.43 19.8a4.8 4.8 0 1 1-9.57 0 4.8 4.8 0 1 1 9.57 0z" transform="matrix(.447 0 0 .447 22.458 16.78)" overflow="visible" enable-background="accumulate"/><path fill="url(#r)" fill-rule="evenodd" d="M28.43 19.8a4.8 4.8 0 1 1-9.57 0 4.8 4.8 0 1 1 9.57 0z" transform="matrix(.447 0 0 .447 21.934 13.375)" overflow="visible" enable-background="accumulate"/><path fill="url(#s)" fill-rule="evenodd" d="M28.43 19.8a4.8 4.8 0 1 1-9.57 0 4.8 4.8 0 1 1 9.57 0z" transform="matrix(.447 0 0 .447 20.014 9.796)" overflow="visible" enable-background="accumulate"/><path fill="url(#t)" fill-rule="evenodd" d="M28.43 19.8a4.8 4.8 0 1 1-9.57 0 4.8 4.8 0 1 1 9.57 0z" transform="matrix(.447 0 0 .447 20.189 12.153)" overflow="visible" enable-background="accumulate"/><path fill="url(#u)" fill-rule="evenodd" d="M28.43 19.8a4.8 4.8 0 1 1-9.57 0 4.8 4.8 0 1 1 9.57 0z" transform="matrix(.447 0 0 .447 17.134 12.153)" overflow="visible" enable-background="accumulate"/><path fill="url(#v)" fill-rule="evenodd" d="M28.43 19.8a4.8 4.8 0 1 1-9.57 0 4.8 4.8 0 1 1 9.57 0z" transform="matrix(.447 0 0 .447 11.284 10.407)" overflow="visible" enable-background="accumulate"/><path fill="url(#w)" fill-rule="evenodd" d="M28.43 19.8a4.8 4.8 0 1 1-9.57 0 4.8 4.8 0 1 1 9.57 0z" transform="matrix(.447 0 0 .447 8.841 11.629)" overflow="visible" enable-background="accumulate"/><path fill="url(#x)" fill-rule="evenodd" d="M28.43 19.8a4.8 4.8 0 1 1-9.57 0 4.8 4.8 0 1 1 9.57 0z" transform="matrix(.447 0 0 .447 3.777 12.241)" overflow="visible" enable-background="accumulate"/><path fill="url(#y)" fill-rule="evenodd" d="M28.43 19.8a4.8 4.8 0 1 1-9.57 0 4.8 4.8 0 1 1 9.57 0z" transform="matrix(.447 0 0 .447 1.683 11.543)" overflow="visible" enable-background="accumulate"/><path fill="url(#z)" fill-rule="evenodd" d="M28.43 19.8a4.8 4.8 0 1 1-9.57 0 4.8 4.8 0 1 1 9.57 0z" transform="matrix(.447 0 0 .447 .81 13.725)" overflow="visible" enable-background="accumulate"/><path fill="url(#A)" fill-rule="evenodd" d="M28.43 19.8a4.8 4.8 0 1 1-9.57 0 4.8 4.8 0 1 1 9.57 0z" transform="matrix(.447 0 0 .447 .285 16.344)" overflow="visible" enable-background="accumulate"/><path fill="url(#B)" fill-rule="evenodd" d="M28.43 19.8a4.8 4.8 0 1 1-9.57 0 4.8 4.8 0 1 1 9.57 0z" transform="matrix(.447 0 0 .447 .285 19.311)" overflow="visible" enable-background="accumulate"/><path fill="url(#C)" fill-rule="evenodd" d="M28.43 19.8a4.8 4.8 0 1 1-9.57 0 4.8 4.8 0 1 1 9.57 0z" transform="matrix(.447 0 0 .447 3.079 17.828)" overflow="visible" enable-background="accumulate"/><path fill="url(#D)" fill-rule="evenodd" d="M28.43 19.8a4.8 4.8 0 1 1-9.57 0 4.8 4.8 0 1 1 9.57 0z" transform="matrix(.447 0 0 .447 3.777 14.772)" overflow="visible" enable-background="accumulate"/><path fill="url(#E)" fill-rule="evenodd" d="M28.43 19.8a4.8 4.8 0 1 1-9.57 0 4.8 4.8 0 1 1 9.57 0z" transform="matrix(.447 0 0 .447 6.745 14.598)" overflow="visible" enable-background="accumulate"/><path fill="url(#F)" fill-rule="evenodd" d="M28.43 19.8a4.8 4.8 0 1 1-9.57 0 4.8 4.8 0 1 1 9.57 0z" transform="matrix(.447 0 0 .447 13.554 13.463)" overflow="visible" enable-background="accumulate"/><path fill="url(#G)" fill-rule="evenodd" d="M28.43 19.8a4.8 4.8 0 1 1-9.57 0 4.8 4.8 0 1 1 9.57 0z" transform="matrix(.447 0 0 .447 16.959 14.248)" overflow="visible" enable-background="accumulate"/><path fill="url(#H)" fill-rule="evenodd" d="M28.43 19.8a4.8 4.8 0 1 1-9.57 0 4.8 4.8 0 1 1 9.57 0z" transform="matrix(.447 0 0 .447 19.926 16.256)" overflow="visible" enable-background="accumulate"/><path fill="url(#I)" fill-rule="evenodd" d="M28.43 19.8a4.8 4.8 0 1 1-9.57 0 4.8 4.8 0 1 1 9.57 0z" transform="matrix(.447 0 0 .447 18.879 19.835)" overflow="visible" enable-background="accumulate"/><path fill="url(#J)" fill-rule="evenodd" d="M28.43 19.8a4.8 4.8 0 1 1-9.57 0 4.8 4.8 0 1 1 9.57 0z" transform="matrix(.447 0 0 .447 16.959 22.629)" overflow="visible" enable-background="accumulate"/><path fill="url(#K)" fill-rule="evenodd" d="M28.43 19.8a4.8 4.8 0 1 1-9.57 0 4.8 4.8 0 1 1 9.57 0z" transform="matrix(.447 0 0 .447 13.885 24.124)" overflow="visible" enable-background="accumulate"/><path fill="url(#L)" fill-rule="evenodd" d="M28.43 19.8a4.8 4.8 0 1 1-9.57 0 4.8 4.8 0 1 1 9.57 0z" transform="matrix(.447 0 0 .447 10.586 24.724)" overflow="visible" enable-background="accumulate"/><path fill="url(#M)" fill-rule="evenodd" d="M28.43 19.8a4.8 4.8 0 1 1-9.57 0 4.8 4.8 0 1 1 9.57 0z" transform="matrix(.447 0 0 .447 7.269 23.589)" overflow="visible" enable-background="accumulate"/><path fill="url(#N)" fill-rule="evenodd" d="M28.43 19.8a4.8 4.8 0 1 1-9.57 0 4.8 4.8 0 1 1 9.57 0z" transform="matrix(.447 0 0 .447 4.563 21.669)" overflow="visible" enable-background="accumulate"/><path fill="url(#O)" fill-rule="evenodd" d="M28.43 19.8a4.8 4.8 0 1 1-9.57 0 4.8 4.8 0 1 1 9.57 0z" transform="matrix(.447 0 0 .447 6.047 17.915)" overflow="visible" enable-background="accumulate"/><path fill="url(#P)" fill-rule="evenodd" d="M28.43 19.8a4.8 4.8 0 1 1-9.57 0 4.8 4.8 0 1 1 9.57 0z" transform="matrix(.447 0 0 .447 7.706 20.185)" overflow="visible" enable-background="accumulate"/><path fill="url(#Q)" fill-rule="evenodd" d="M28.43 19.8a4.8 4.8 0 1 1-9.57 0 4.8 4.8 0 1 1 9.57 0z" transform="matrix(.447 0 0 .447 11.132 21.843)" overflow="visible" enable-background="accumulate"/><path fill="url(#R)" fill-rule="evenodd" d="M28.43 19.8a4.8 4.8 0 1 1-9.57 0 4.8 4.8 0 1 1 9.57 0z" transform="matrix(.447 0 0 .447 14.188 20.883)" overflow="visible" enable-background="accumulate"/><path fill="url(#S)" fill-rule="evenodd" d="M28.43 19.8a4.8 4.8 0 1 1-9.57 0 4.8 4.8 0 1 1 9.57 0z" transform="matrix(.447 0 0 .447 16.609 18.176)" overflow="visible" enable-background="accumulate"/><path fill="url(#T)" fill-rule="evenodd" d="M28.43 19.8a4.8 4.8 0 1 1-9.57 0 4.8 4.8 0 1 1 9.57 0z" transform="matrix(.447 0 0 .447 11.896 19.137)" overflow="visible" enable-background="accumulate"/><path fill="url(#U)" fill-rule="evenodd" d="M28.43 19.8a4.8 4.8 0 1 1-9.57 0 4.8 4.8 0 1 1 9.57 0z" transform="matrix(.447 0 0 .447 8.666 17.478)" overflow="visible" enable-background="accumulate"/><path fill="url(#V)" fill-rule="evenodd" d="M28.43 19.8a4.8 4.8 0 1 1-9.57 0 4.8 4.8 0 1 1 9.57 0z" transform="matrix(.447 0 0 .447 11.634 16.256)" overflow="visible" enable-background="accumulate"/><path fill="url(#W)" fill-rule="evenodd" d="M28.43 19.8a4.8 4.8 0 1 1-9.57 0 4.8 4.8 0 1 1 9.57 0z" transform="matrix(.447 0 0 .447 15.678 19.908)" overflow="visible" enable-background="accumulate"/><path fill="url(#X)" fill-rule="evenodd" d="M28.43 19.8a4.8 4.8 0 1 1-9.57 0 4.8 4.8 0 1 1 9.57 0z" transform="matrix(.447 0 0 .447 10.388 20.293)" overflow="visible" enable-background="accumulate"/><path fill="url(#Y)" fill-rule="evenodd" d="M28.43 19.8a4.8 4.8 0 1 1-9.57 0 4.8 4.8 0 1 1 9.57 0z" transform="matrix(.447 0 0 .447 8.465 22.7)" overflow="visible" enable-background="accumulate"/><path fill="url(#Z)" fill-rule="evenodd" d="M28.43 19.8a4.8 4.8 0 1 1-9.57 0 4.8 4.8 0 1 1 9.57 0z" transform="matrix(.447 0 0 .447 3.751 19.618)" overflow="visible" enable-background="accumulate"/><path fill="url(#aa)" fill-rule="evenodd" d="M28.43 19.8a4.8 4.8 0 1 1-9.57 0 4.8 4.8 0 1 1 9.57 0z" transform="matrix(.447 0 0 .447 18.083 16.923)" overflow="visible" enable-background="accumulate"/><path fill="url(#ab)" fill-rule="evenodd" d="M28.43 19.8a4.8 4.8 0 1 1-9.57 0 4.8 4.8 0 1 1 9.57 0z" transform="matrix(.447 0 0 .447 15.005 24.124)" overflow="visible" enable-background="accumulate"/><path fill="url(#ac)" fill-rule="evenodd" d="M28.43 19.8a4.8 4.8 0 1 1-9.57 0 4.8 4.8 0 1 1 9.57 0z" transform="matrix(.447 0 0 .447 4.704 10.435)" overflow="visible" enable-background="accumulate"/><path fill="url(#ad)" fill-rule="evenodd" d="M28.43 19.8a4.8 4.8 0 1 1-9.57 0 4.8 4.8 0 1 1 9.57 0z" transform="matrix(.447 0 0 .447 7.15 9.346)" overflow="visible" enable-background="accumulate"/><path fill="url(#ae)" fill-rule="evenodd" d="M28.43 19.8a4.8 4.8 0 1 1-9.57 0 4.8 4.8 0 1 1 9.57 0z" transform="matrix(.447 0 0 .447 3.422 8.685)" overflow="visible" enable-background="accumulate"/><path fill="url(#af)" fill-rule="evenodd" d="M28.43 19.8a4.8 4.8 0 1 1-9.57 0 4.8 4.8 0 1 1 9.57 0z" transform="matrix(.447 0 0 .447 10.139 8.101)" overflow="visible" enable-background="accumulate"/><path fill="url(#ag)" fill-rule="evenodd" d="M28.43 19.8a4.8 4.8 0 1 1-9.57 0 4.8 4.8 0 1 1 9.57 0z" transform="matrix(.447 0 0 .447 13.442 8.801)" overflow="visible" enable-background="accumulate"/><path fill="url(#ah)" fill-rule="evenodd" d="M28.43 19.8a4.8 4.8 0 1 1-9.57 0 4.8 4.8 0 1 1 9.57 0z" transform="matrix(.447 0 0 .447 16.239 9.346)" overflow="visible" enable-background="accumulate"/><path fill="url(#ai)" fill-rule="evenodd" d="M28.43 19.8a4.8 4.8 0 1 1-9.57 0 4.8 4.8 0 1 1 9.57 0z" transform="matrix(.447 0 0 .447 18.295 7.634)" overflow="visible" enable-background="accumulate"/><path fill="url(#aj)" fill-rule="evenodd" d="M28.43 19.8a4.8 4.8 0 1 1-9.57 0 4.8 4.8 0 1 1 9.57 0z" transform="matrix(.447 0 0 .447 16.822 5.263)" overflow="visible" enable-background="accumulate"/><path fill="url(#ak)" fill-rule="evenodd" d="M28.43 19.8a4.8 4.8 0 1 1-9.57 0 4.8 4.8 0 1 1 9.57 0z" transform="matrix(.447 0 0 .447 14.958 3.124)" overflow="visible" enable-background="accumulate"/><path fill="url(#al)" fill-rule="evenodd" d="M28.43 19.8a4.8 4.8 0 1 1-9.57 0 4.8 4.8 0 1 1 9.57 0z" transform="matrix(.447 0 0 .447 13.21 1.18)" overflow="visible" enable-background="accumulate"/><path fill="url(#am)" fill-rule="evenodd" d="M28.43 19.8a4.8 4.8 0 1 1-9.57 0 4.8 4.8 0 1 1 9.57 0z" transform="matrix(.447 0 0 .447 9.248 1.374)" overflow="visible" enable-background="accumulate"/><path fill="url(#an)" fill-rule="evenodd" d="M28.43 19.8a4.8 4.8 0 1 1-9.57 0 4.8 4.8 0 1 1 9.57 0z" transform="matrix(.447 0 0 .447 6.842 4.446)" overflow="visible" enable-background="accumulate"/><path fill="url(#ao)" fill-rule="evenodd" d="M28.43 19.8a4.8 4.8 0 1 1-9.57 0 4.8 4.8 0 1 1 9.57 0z" transform="matrix(.447 0 0 .447 5.053 6.468)" overflow="visible" enable-background="accumulate"/><path fill="url(#ap)" fill-rule="evenodd" d="M28.43 19.8a4.8 4.8 0 1 1-9.57 0 4.8 4.8 0 1 1 9.57 0z" transform="matrix(.447 0 0 .447 11.229 -.881)" overflow="visible" enable-background="accumulate"/><path fill="url(#aq)" fill-rule="evenodd" d="M28.43 19.8a4.8 4.8 0 1 1-9.57 0 4.8 4.8 0 1 1 9.57 0z" transform="matrix(.447 0 0 .447 11.695 2.269)" overflow="visible" enable-background="accumulate"/><path fill="url(#ar)" fill-rule="evenodd" d="M28.43 19.8a4.8 4.8 0 1 1-9.57 0 4.8 4.8 0 1 1 9.57 0z" transform="matrix(.447 0 0 .447 9.365 5.263)" overflow="visible" enable-background="accumulate"/><path fill="url(#as)" fill-rule="evenodd" d="M28.43 19.8a4.8 4.8 0 1 1-9.57 0 4.8 4.8 0 1 1 9.57 0z" transform="matrix(.447 0 0 .447 11.812 5.457)" overflow="visible" enable-background="accumulate"/><path fill="url(#at)" fill-rule="evenodd" d="M28.43 19.8a4.8 4.8 0 1 1-9.57 0 4.8 4.8 0 1 1 9.57 0z" transform="matrix(.447 0 0 .447 14.217 5.457)" overflow="visible" enable-background="accumulate"/><path fill="url(#au)" fill-rule="evenodd" d="M28.43 19.8a4.8 4.8 0 1 1-9.57 0 4.8 4.8 0 1 1 9.57 0z" transform="matrix(.447 0 0 .447 9.597 10.084)" overflow="visible" enable-background="accumulate"/><path fill="url(#av)" fill-rule="evenodd" d="M28.43 19.8a4.8 4.8 0 1 1-9.57 0 4.8 4.8 0 1 1 9.57 0z" transform="matrix(.447 0 0 .447 7.692 7.09)" overflow="visible" enable-background="accumulate"/><path fill="url(#aw)" fill-rule="evenodd" d="M28.43 19.8a4.8 4.8 0 1 1-9.57 0 4.8 4.8 0 1 1 9.57 0z" transform="matrix(.447 0 0 .447 8.027 11.989)" overflow="visible" enable-background="accumulate"/><path fill="url(#ax)" fill-rule="evenodd" d="M28.43 19.8a4.8 4.8 0 1 1-9.57 0 4.8 4.8 0 1 1 9.57 0z" transform="matrix(.447 0 0 .447 13.817 11.717)" overflow="visible" enable-background="accumulate"/><path fill="url(#ay)" fill-rule="evenodd" d="M28.43 19.8a4.8 4.8 0 1 1-9.57 0 4.8 4.8 0 1 1 9.57 0z" transform="matrix(.447 0 0 .447 10.325 13.987)" overflow="visible" enable-background="accumulate"/><path fill="url(#az)" fill-rule="evenodd" d="M28.43 19.8a4.8 4.8 0 1 1-9.57 0 4.8 4.8 0 1 1 9.57 0z" transform="matrix(.447 0 0 .447 14.34 16.78)" overflow="visible" enable-background="accumulate"/><path fill="none" stroke="#d0f1ff" stroke-width=".81.234" d="M21.78 5.8c-1.18 0-2.14.95-2.14 2.13 0 .04 0 .08 0 .13-1.1.08-2 1-2 2.1 0 .37.1.7.26 1-.17-.04-.35-.04-.53-.04-1.16 0-2.08.92-2.12 2.06-1.02.16-1.8 1.03-1.8 2.1 0 .05 0 .1 0 .15-.93.22-1.64 1.05-1.64 2.06 0 .26.07.5.16.73-1.06.13-1.9 1.03-1.9 2.12 0 .15.04.3.06.43-.55.4-.9 1-.9 1.74 0 .36.06.7.22 1-.47.4-.77.97-.77 1.63 0 .57.24 1.1.6 1.48-.36.38-.6.9-.6 1.47 0 .74.37 1.4.94 1.8-.04.18-.1.35-.1.55 0 .97.66 1.8 1.54 2.07 0 .04 0 .08 0 .13 0 1.1.84 2 1.9 2.1.03 1.18.98 2.13 2.16 2.13.24 0 .5-.05.7-.13.25.92 1.1 1.6 2.1 1.6.38 0 .74-.1 1.05-.27.4.54 1 .9 1.73.9.62 0 1.2-.28 1.58-.7.4.42.94.7 1.56.7.85 0 1.6-.5 1.94-1.23.3.17.66.25 1.04.25 1.18 0 2.14-.94 2.14-2.12 0 0 0-.03 0-.05.18.05.37.08.56.08 1.2 0 2.15-.95 2.15-2.13 0-.15-.03-.27-.05-.4.06 0 .1 0 .17 0 1.2 0 2.15-.95 2.15-2.13 0-.33-.1-.63-.23-.92.74-.33 1.26-1.1 1.26-1.96 0-.5-.15-.94-.43-1.3.37-.4.6-.9.6-1.48 0-.82-.46-1.53-1.14-1.9.38-.37.6-.93.6-1.52 0-1.1-.84-2.02-1.93-2.12-.07-.14-.16-.28-.26-.4.2-.3.3-.67.3-1.05 0-1.04-.74-1.9-1.72-2.1 0-.02 0-.03 0-.05 0-.97-.65-1.8-1.53-2.07.02-.1.05-.2.05-.3 0-1.1-.8-1.98-1.86-2.12 0 0 0-.02 0-.03 0-1.05-.77-1.92-1.78-2.1-.08-1.04-.9-1.9-1.97-1.98-.05-1.14-.97-2.06-2.12-2.06z" overflow="visible" enable-background="accumulate"/></g><path fill="url(#aA)" fill-rule="evenodd" stroke="#000" d="M24.86 1C28.1 5.37 32.1 15 31.7 24.9c-.4 9.86-6.16 18.04-7.5 19.92 6.9-.43 17.2-8.23 17.12-18C41.24 17.13 31.5 2.58 24.86 1z"/><path fill="none" stroke="#eeeeec" stroke-opacity=".651" d="M27.34 3.23C29.8 7.78 33.1 17 32.74 25.16c-.32 8.14-5.52 16.92-6.63 18.47 5.68-1.03 14.22-8.52 14.16-16.6-.06-7.98-8.16-21.15-12.92-23.8z"/><path fill="url(#aB)" fill-rule="evenodd" d="M31.12 33.83c3.44.23 6.5-7.63 9.7-7.13C38.3 15.4 34.03 8.06 26.6 4.18c3.43 8 8.75 13.64 4.52 29.65z"/></g></svg>