<svg xmlns="http://www.w3.org/2000/svg" width="48" height="48" xmlns:xlink="http://www.w3.org/1999/xlink"><defs><linearGradient id="d"><stop offset="0" stop-color="#82aad5"/><stop offset="1" stop-color="#5088c4"/></linearGradient><linearGradient id="c"><stop offset="0" stop-color="#eeeeec" stop-opacity=".753"/><stop offset="1" stop-color="#eeeeec" stop-opacity="0"/></linearGradient><linearGradient id="b"><stop offset="0" stop-color="#3465a4"/><stop offset="1" stop-color="#3465a4" stop-opacity="0"/></linearGradient><linearGradient id="a"><stop offset="0" stop-color="#eeeeec"/><stop offset="1" stop-color="#babdb6"/></linearGradient><linearGradient id="e" x1=".008" x2="37.516" y1="24.386" y2="24.386" xlink:href="#a" gradientUnits="userSpaceOnUse" gradientTransform="matrix(1.118 0 0 1 2.988 0)"/><radialGradient id="g" cx="27.005" cy="37.774" r="5.591" xlink:href="#b" fx="27.005" fy="37.774" gradientTransform="matrix(1.746 .268 .169 1.219 -26.715 -16.427)" gradientUnits="userSpaceOnUse"/><radialGradient cx="21.492" cy="27.238" r="4.032" xlink:href="#c" fx="21.492" fy="27.238" gradientTransform="matrix(1 0 0 .63 0 10.08)" gradientUnits="userSpaceOnUse"/><linearGradient id="f" x1="12.611" x2="30.246" y1="18.413" y2="32.571" xlink:href="#d" gradientUnits="userSpaceOnUse" gradientTransform="matrix(1.362 0 0 1.296 -2.245 -7.668)"/></defs><g><path fill="url(#e)" fill-rule="evenodd" stroke="#000" d="M3.56 8.32c17.76 1 31.52-2.37 40.82-7.43l-.15 37.7c-10.03 6.93-25.78 9.46-40.6 9.27L3.56 8.32z"/><path fill="none" stroke="#555753" d="M26.7 7.17V45.4"/><path fill="none" stroke="#555753" d="M3.7 28.57c16.6 1.84 34.15-2.67 40.6-8.44"/><path fill="url(#f)" fill-rule="evenodd" stroke="#204a87" d="M14.48 15.45c10.8.64 19.17-1.54 24.82-4.84l-.1 24.56c-6.1 4.5-15.66 6.15-24.67 6.03l-.05-25.75z"/><path fill="#729fcf" fill-rule="evenodd" stroke="#2a62b4" d="M27.93 14.8c1.12 7 9.68 9.46 9.86 16.45.07 3.46-3.73 11.52-11.43 8.9" color="#000" overflow="visible"/><path fill="#729fcf" fill-rule="evenodd" stroke="#2a62b4" d="M21.75 15.68c.08 8.23 3.9 11.04 3.97 14.77.08 3.5-3.88 7.02-3.9 10.33"/><path fill="none" stroke="#2a62b4" d="M33.64 13.23c-.96 4.86 1.3 11.93 1.3 11.93" color="#000" overflow="visible"/><path fill="none" stroke="#2a62b4" d="M14.8 22.6c8.55-2.13 12.44-.4 16.67-1.3 4.24-.9 3.55-4.04 7.96-4.94"/><path fill="none" stroke="#2a62b4" d="M14.92 30.84c7.26-2.8 7.95 1.87 17.8.25 6.36-1.05.35-5.1 6.84-6.5"/><path fill="none" stroke="#2a62b4" d="M14.66 36.88c7.26-2.8 10.04 1.94 16.86 1.23 5.1-.52 5.36-5.58 7.17-6.08"/><path fill="url(#g)" fill-rule="evenodd" d="M34.16 34.2a5.6 3.5 0 1 1-11.18 0 5.6 3.5 0 1 1 11.18 0z" transform="matrix(.913 -.794 .892 .714 -25.46 33.747)" color="#000" overflow="visible"/></g></svg>