<svg xmlns="http://www.w3.org/2000/svg" width="48" height="48" xmlns:xlink="http://www.w3.org/1999/xlink"><defs><radialGradient id="h" cx="114.888" cy="165.633" r="36.407" fx="114.888" fy="165.633" gradientUnits="userSpaceOnUse"><stop offset="0" stop-color="#efeeec" stop-opacity=".433"/><stop offset="1" stop-color="#8794A0"/></radialGradient><radialGradient cx="87.105" cy="220.009" r="5.976" gradientUnits="userSpaceOnUse" gradientTransform="translate(29.871 -24.189)" fy="220.009" fx="87.105"><stop offset="0" stop-color="#fff"/><stop offset=".219" stop-color="#F9D0AE"/><stop offset=".415" stop-color="#F5AB6D"/><stop offset=".579" stop-color="#F2903E"/><stop offset=".704" stop-color="#F07F21"/><stop offset=".775" stop-color="#EF7916"/><stop offset="1" stop-color="#CE5B0E"/></radialGradient><radialGradient cx="56.94" cy="220.716" r="3.676" fx="56.94" fy="220.716" gradientTransform="matrix(-1 0 0 1 174.769 -24.189)" gradientUnits="userSpaceOnUse"><stop offset="0" stop-color="#fff"/><stop offset=".219" stop-color="#F9D0AE"/><stop offset=".415" stop-color="#F5AB6D"/><stop offset=".579" stop-color="#F2903E"/><stop offset=".704" stop-color="#F07F21"/><stop offset=".775" stop-color="#EF7916"/><stop offset="1" stop-color="#CE5B0E"/></radialGradient><radialGradient cx="108.365" cy="211.694" r="5.976" gradientUnits="userSpaceOnUse" gradientTransform="translate(29.871 -24.189)" fy="211.694" fx="108.365"><stop offset="0" stop-color="#fff"/><stop offset=".219" stop-color="#F9D0AE"/><stop offset=".415" stop-color="#F5AB6D"/><stop offset=".579" stop-color="#F2903E"/><stop offset=".704" stop-color="#F07F21"/><stop offset=".775" stop-color="#EF7916"/><stop offset="1" stop-color="#CE5B0E"/></radialGradient><radialGradient cx="35.68" cy="212.401" r="3.676" fx="35.68" fy="212.401" gradientTransform="matrix(-1 0 0 1 174.769 -24.189)" gradientUnits="userSpaceOnUse"><stop offset="0" stop-color="#fff"/><stop offset=".219" stop-color="#F9D0AE"/><stop offset=".415" stop-color="#F5AB6D"/><stop offset=".579" stop-color="#F2903E"/><stop offset=".704" stop-color="#F07F21"/><stop offset=".775" stop-color="#EF7916"/><stop offset="1" stop-color="#CE5B0E"/></radialGradient><radialGradient cx="76.195" cy="206.884" r="5.977" gradientUnits="userSpaceOnUse" gradientTransform="translate(29.871 -24.189)" fy="206.884" fx="76.195"><stop offset="0" stop-color="#fff"/><stop offset=".219" stop-color="#F9D0AE"/><stop offset=".415" stop-color="#F5AB6D"/><stop offset=".579" stop-color="#F2903E"/><stop offset=".704" stop-color="#F07F21"/><stop offset=".775" stop-color="#EF7916"/><stop offset="1" stop-color="#CE5B0E"/></radialGradient><radialGradient cx="67.85" cy="207.592" r="3.676" fx="67.85" fy="207.592" gradientTransform="matrix(-1 0 0 1 174.769 -24.189)" gradientUnits="userSpaceOnUse"><stop offset="0" stop-color="#fff"/><stop offset=".219" stop-color="#F9D0AE"/><stop offset=".415" stop-color="#F5AB6D"/><stop offset=".579" stop-color="#F2903E"/><stop offset=".704" stop-color="#F07F21"/><stop offset=".775" stop-color="#EF7916"/><stop offset="1" stop-color="#CE5B0E"/></radialGradient><radialGradient cx="86.291" cy="196.491" r="5.977" gradientUnits="userSpaceOnUse" gradientTransform="translate(29.871 -24.189)" fy="196.491" fx="86.291"><stop offset="0" stop-color="#fff"/><stop offset=".219" stop-color="#F9D0AE"/><stop offset=".415" stop-color="#F5AB6D"/><stop offset=".579" stop-color="#F2903E"/><stop offset=".704" stop-color="#F07F21"/><stop offset=".775" stop-color="#EF7916"/><stop offset="1" stop-color="#CE5B0E"/></radialGradient><radialGradient cx="57.752" cy="197.199" r="3.676" fx="57.752" fy="197.199" gradientTransform="matrix(-1 0 0 1 174.769 -24.189)" gradientUnits="userSpaceOnUse"><stop offset="0" stop-color="#fff"/><stop offset=".219" stop-color="#F9D0AE"/><stop offset=".415" stop-color="#F5AB6D"/><stop offset=".579" stop-color="#F2903E"/><stop offset=".704" stop-color="#F07F21"/><stop offset=".775" stop-color="#EF7916"/><stop offset="1" stop-color="#CE5B0E"/></radialGradient><radialGradient cx="110.441" cy="189.72" r="5.976" gradientUnits="userSpaceOnUse" gradientTransform="translate(29.871 -24.189)" fy="189.72" fx="110.441"><stop offset="0" stop-color="#fff"/><stop offset=".219" stop-color="#F9D0AE"/><stop offset=".415" stop-color="#F5AB6D"/><stop offset=".579" stop-color="#F2903E"/><stop offset=".704" stop-color="#F07F21"/><stop offset=".775" stop-color="#EF7916"/><stop offset="1" stop-color="#CE5B0E"/></radialGradient><radialGradient cx="33.604" cy="190.427" r="3.676" fx="33.604" fy="190.427" gradientTransform="matrix(-1 0 0 1 174.769 -24.189)" gradientUnits="userSpaceOnUse"><stop offset="0" stop-color="#fff"/><stop offset=".219" stop-color="#F9D0AE"/><stop offset=".415" stop-color="#F5AB6D"/><stop offset=".579" stop-color="#F2903E"/><stop offset=".704" stop-color="#F07F21"/><stop offset=".775" stop-color="#EF7916"/><stop offset="1" stop-color="#CE5B0E"/></radialGradient><radialGradient cx="95.831" cy="181.284" r="5.976" gradientUnits="userSpaceOnUse" gradientTransform="translate(29.871 -24.189)" fy="181.284" fx="95.831"><stop offset="0" stop-color="#fff"/><stop offset=".219" stop-color="#F9D0AE"/><stop offset=".415" stop-color="#F5AB6D"/><stop offset=".579" stop-color="#F2903E"/><stop offset=".704" stop-color="#F07F21"/><stop offset=".775" stop-color="#EF7916"/><stop offset="1" stop-color="#CE5B0E"/></radialGradient><radialGradient cx="48.213" cy="181.991" r="3.676" fx="48.213" fy="181.991" gradientTransform="matrix(-1 0 0 1 174.769 -24.189)" gradientUnits="userSpaceOnUse"><stop offset="0" stop-color="#fff"/><stop offset=".219" stop-color="#F9D0AE"/><stop offset=".415" stop-color="#F5AB6D"/><stop offset=".579" stop-color="#F2903E"/><stop offset=".704" stop-color="#F07F21"/><stop offset=".775" stop-color="#EF7916"/><stop offset="1" stop-color="#CE5B0E"/></radialGradient><radialGradient id="m" cx="74.396" cy="185.927" r="5.977" gradientUnits="userSpaceOnUse" gradientTransform="translate(29.871 -24.189)" fy="185.927" fx="74.396"><stop offset="0" stop-color="#fff"/><stop offset=".219" stop-color="#F9D0AE"/><stop offset=".415" stop-color="#F5AB6D"/><stop offset=".579" stop-color="#F2903E"/><stop offset=".704" stop-color="#F07F21"/><stop offset=".775" stop-color="#EF7916"/><stop offset="1" stop-color="#CE5B0E"/></radialGradient><radialGradient id="l" cx="69.649" cy="186.635" r="3.676" fx="69.649" fy="186.635" gradientTransform="matrix(-1 0 0 1 174.769 -24.189)" gradientUnits="userSpaceOnUse"><stop offset="0" stop-color="#fff"/><stop offset=".219" stop-color="#F9D0AE"/><stop offset=".415" stop-color="#F5AB6D"/><stop offset=".579" stop-color="#F2903E"/><stop offset=".704" stop-color="#F07F21"/><stop offset=".775" stop-color="#EF7916"/><stop offset="1" stop-color="#CE5B0E"/></radialGradient><radialGradient id="g" cx="114.328" cy="171.99" r="55.614" gradientUnits="userSpaceOnUse" fy="171.99" fx="114.328"><stop offset=".006" stop-color="#fff"/><stop offset="1" stop-color="#EFEEEC"/></radialGradient><radialGradient id="f" cx="118.36" cy="201.173" r="25.109" gradientUnits="userSpaceOnUse" fy="201.173" fx="118.36"><stop offset="0" stop-color="#BABDB6"/><stop offset=".826" stop-color="#545652"/><stop offset="1" stop-color="#2D3335"/></radialGradient><radialGradient id="e" cx="114.324" cy="171.986" r="55.631" gradientUnits="userSpaceOnUse" fy="171.986" fx="114.324"><stop offset="0" stop-color="#fff"/><stop offset="1" stop-color="#EFEEEC"/></radialGradient><radialGradient id="d" cx="105.153" cy="165.035" r="24.157" gradientUnits="userSpaceOnUse" fy="165.035" fx="105.153"><stop offset="0" stop-color="#fff"/><stop offset="1" stop-color="#545652"/></radialGradient><radialGradient id="c" cx="137.673" cy="202.162" r="44.368" fx="137.673" fy="202.162" gradientUnits="userSpaceOnUse"><stop offset="0" stop-color="#BAD1D7"/><stop offset=".826" stop-color="#6D7580"/><stop offset="1" stop-color="#41454C"/></radialGradient><radialGradient id="b" cx="103.865" cy="160.998" r="62.509" fx="103.865" fy="160.998" gradientUnits="userSpaceOnUse"><stop offset="0" stop-color="#fff"/><stop offset="1" stop-color="#8794A0"/></radialGradient><radialGradient id="a" cx="110.686" cy="201.857" r="48.528" fx="110.686" fy="201.857" gradientUnits="userSpaceOnUse"><stop offset="0" stop-color="#BAD1D7"/><stop offset="1" stop-color="#8794A0"/></radialGradient><radialGradient cx="95.96" cy="202.196" r="5.977" gradientUnits="userSpaceOnUse" gradientTransform="translate(29.871 -24.189)" fy="202.196" fx="95.96"><stop offset="0" stop-color="#fff"/><stop offset=".219" stop-color="#F9D0AE"/><stop offset=".415" stop-color="#F5AB6D"/><stop offset=".579" stop-color="#F2903E"/><stop offset=".704" stop-color="#F07F21"/><stop offset=".775" stop-color="#EF7916"/><stop offset="1" stop-color="#CE5B0E"/></radialGradient><radialGradient cx="48.084" cy="202.904" r="3.676" fx="48.084" fy="202.904" gradientTransform="matrix(-1 0 0 1 174.769 -24.189)" gradientUnits="userSpaceOnUse"><stop offset="0" stop-color="#fff"/><stop offset=".219" stop-color="#F9D0AE"/><stop offset=".415" stop-color="#F5AB6D"/><stop offset=".579" stop-color="#F2903E"/><stop offset=".704" stop-color="#F07F21"/><stop offset=".775" stop-color="#EF7916"/><stop offset="1" stop-color="#CE5B0E"/></radialGradient><radialGradient cx="110.686" cy="201.857" r="48.528" xlink:href="#a" gradientUnits="userSpaceOnUse" fx="110.686" fy="201.857"/><radialGradient cx="103.865" cy="160.998" r="62.509" xlink:href="#b" gradientUnits="userSpaceOnUse" fx="103.865" fy="160.998"/><radialGradient cx="137.673" cy="202.162" r="44.368" xlink:href="#c" gradientUnits="userSpaceOnUse" fx="137.673" fy="202.162"/><radialGradient cx="105.153" cy="165.035" r="24.157" xlink:href="#d" gradientUnits="userSpaceOnUse" fx="105.153" fy="165.035"/><radialGradient cx="114.324" cy="171.986" r="55.631" xlink:href="#e" gradientUnits="userSpaceOnUse" fx="114.324" fy="171.986"/><radialGradient cx="118.36" cy="201.173" r="25.109" xlink:href="#f" gradientUnits="userSpaceOnUse" fx="118.36" fy="201.173"/><radialGradient cx="114.328" cy="171.99" r="55.614" xlink:href="#g" gradientUnits="userSpaceOnUse" fx="114.328" fy="171.99"/><radialGradient cx="28.52" cy="25.868" r="17.591" xlink:href="#h" fx="28.52" fy="25.868" gradientTransform="matrix(1 .02 -.025 1.233 .66 -6.972)" gradientUnits="userSpaceOnUse"/><radialGradient cx="110.686" cy="201.857" r="48.528" xlink:href="#a" gradientUnits="userSpaceOnUse" fx="110.686" fy="201.857"/><radialGradient cx="103.865" cy="160.998" r="62.509" xlink:href="#b" gradientUnits="userSpaceOnUse" fx="103.865" fy="160.998"/><radialGradient cx="137.673" cy="202.162" r="44.368" xlink:href="#c" gradientUnits="userSpaceOnUse" fx="137.673" fy="202.162"/><radialGradient cx="105.153" cy="165.035" r="24.157" xlink:href="#d" gradientUnits="userSpaceOnUse" fx="105.153" fy="165.035"/><radialGradient cx="114.324" cy="171.986" r="55.631" xlink:href="#e" gradientUnits="userSpaceOnUse" fx="114.324" fy="171.986"/><radialGradient cx="118.36" cy="201.173" r="25.109" xlink:href="#f" gradientUnits="userSpaceOnUse" fx="118.36" fy="201.173"/><radialGradient cx="114.328" cy="171.99" r="55.614" xlink:href="#g" gradientUnits="userSpaceOnUse" fx="114.328" fy="171.99"/><radialGradient id="r" cx="33.161" cy="46.365" r="28.435" xlink:href="#i" gradientUnits="userSpaceOnUse" gradientTransform="matrix(-1 0 0 1 55.359 0)" fx="33.161" fy="46.365"/><radialGradient id="i" cx="33.161" cy="46.365" r="28.435" fx="33.161" fy="46.365" gradientTransform="matrix(-1 0 0 1 55.359 0)" gradientUnits="userSpaceOnUse"><stop offset="0" stop-color="#fff"/><stop offset=".09" stop-color="#F9FAFA"/><stop offset=".211" stop-color="#E8EBED"/><stop offset=".35" stop-color="#CCD2D7"/><stop offset=".5" stop-color="#A5B0B8"/><stop offset=".579" stop-color="#8E9CA6"/><stop offset="1" stop-color="#505359"/></radialGradient><radialGradient id="s" cx="38.921" cy="39.927" r="34.589" xlink:href="#j" gradientUnits="userSpaceOnUse" gradientTransform="matrix(-.288 0 0 .288 48.641 12.808)" fx="38.921" fy="39.927"/><radialGradient id="j" cx="38.921" cy="39.927" r="34.589" fx="38.921" fy="39.927" gradientTransform="matrix(-1 0 0 1 55.359 0)" gradientUnits="userSpaceOnUse"><stop offset="0" stop-color="#fff"/><stop offset="1" stop-color="#8D9BA6"/></radialGradient><radialGradient cx="24.205" cy="40.568" r="18.837" xlink:href="#k" gradientUnits="userSpaceOnUse" gradientTransform="matrix(1 0 0 .263 0 29.898)" fx="24.205" fy="40.568"/><linearGradient id="k"><stop offset="0"/><stop offset="1" stop-opacity="0"/></linearGradient><radialGradient id="n" cx="69.649" cy="186.635" r="3.676" xlink:href="#l" gradientUnits="userSpaceOnUse" gradientTransform="matrix(-1 0 0 1 174.769 -24.189)" fx="69.649" fy="186.635"/><radialGradient id="o" cx="74.396" cy="185.927" r="5.977" xlink:href="#m" gradientUnits="userSpaceOnUse" gradientTransform="translate(29.871 -24.189)" fx="74.396" fy="185.927"/><radialGradient id="v" cx="69.649" cy="186.635" r="3.676" xlink:href="#l" gradientUnits="userSpaceOnUse" gradientTransform="matrix(-1 0 0 1 174.769 -24.189)" fx="69.649" fy="186.635"/><radialGradient id="w" cx="74.396" cy="185.927" r="5.977" xlink:href="#m" gradientUnits="userSpaceOnUse" gradientTransform="translate(29.871 -24.189)" fx="74.396" fy="185.927"/><radialGradient id="t" cx="69.649" cy="186.635" r="3.676" xlink:href="#l" gradientUnits="userSpaceOnUse" gradientTransform="matrix(-1 0 0 1 174.769 -24.189)" fx="69.649" fy="186.635"/><radialGradient id="u" cx="74.396" cy="185.927" r="5.977" xlink:href="#m" gradientUnits="userSpaceOnUse" gradientTransform="translate(29.871 -24.189)" fx="74.396" fy="185.927"/><radialGradient id="x" cx="69.649" cy="186.635" r="3.676" xlink:href="#l" gradientUnits="userSpaceOnUse" gradientTransform="matrix(-1 0 0 1 174.769 -24.189)" fx="69.649" fy="186.635"/><radialGradient id="y" cx="74.396" cy="185.927" r="5.977" xlink:href="#m" gradientUnits="userSpaceOnUse" gradientTransform="translate(29.871 -24.189)" fx="74.396" fy="185.927"/><radialGradient id="z" cx="69.649" cy="186.635" r="3.676" xlink:href="#l" gradientUnits="userSpaceOnUse" gradientTransform="matrix(-1 0 0 1 174.769 -24.189)" fx="69.649" fy="186.635"/><radialGradient id="A" cx="74.396" cy="185.927" r="5.977" xlink:href="#m" gradientUnits="userSpaceOnUse" gradientTransform="translate(29.871 -24.189)" fx="74.396" fy="185.927"/><radialGradient id="p" cx="69.649" cy="186.635" r="3.676" xlink:href="#l" gradientUnits="userSpaceOnUse" gradientTransform="matrix(-1 0 0 1 174.769 -24.189)" fx="69.649" fy="186.635"/><radialGradient id="q" cx="74.396" cy="185.927" r="5.977" xlink:href="#m" gradientUnits="userSpaceOnUse" gradientTransform="translate(29.871 -24.189)" fx="74.396" fy="185.927"/><radialGradient id="B" cx="69.649" cy="186.635" r="3.676" xlink:href="#l" gradientUnits="userSpaceOnUse" gradientTransform="matrix(-1 0 0 1 174.769 -24.189)" fx="69.649" fy="186.635"/><radialGradient id="C" cx="74.396" cy="185.927" r="5.977" xlink:href="#m" gradientUnits="userSpaceOnUse" gradientTransform="translate(29.871 -24.189)" fx="74.396" fy="185.927"/><radialGradient id="D" cx="69.649" cy="186.635" r="3.676" xlink:href="#l" gradientUnits="userSpaceOnUse" gradientTransform="matrix(-1 0 0 1 174.769 -24.189)" fx="69.649" fy="186.635"/><radialGradient id="E" cx="74.396" cy="185.927" r="5.977" xlink:href="#m" gradientUnits="userSpaceOnUse" gradientTransform="translate(29.871 -24.189)" fx="74.396" fy="185.927"/><radialGradient id="F" cx="69.649" cy="186.635" r="3.676" xlink:href="#l" gradientUnits="userSpaceOnUse" gradientTransform="matrix(-1 0 0 1 174.769 -24.189)" fx="69.649" fy="186.635"/><radialGradient id="G" cx="74.396" cy="185.927" r="5.977" xlink:href="#m" gradientUnits="userSpaceOnUse" gradientTransform="translate(29.871 -24.189)" fx="74.396" fy="185.927"/><radialGradient id="H" cx="69.649" cy="186.635" r="3.676" xlink:href="#l" gradientUnits="userSpaceOnUse" gradientTransform="matrix(-1 0 0 1 174.769 -24.189)" fx="69.649" fy="186.635"/><radialGradient id="I" cx="74.396" cy="185.927" r="5.977" xlink:href="#m" gradientUnits="userSpaceOnUse" gradientTransform="translate(29.871 -24.189)" fx="74.396" fy="185.927"/></defs><g><g transform="matrix(1.43 0 0 1.429 -118.17 -217.821)"><circle cx="105.791" cy="163.658" r="2.464" fill="none" stroke="#59270b" stroke-width="1.259"/><circle cx="105.791" cy="163.658" r="2.464" fill="url(#n)"/><g><radialGradient cx="74.396" cy="185.927" r="5.977" gradientUnits="userSpaceOnUse" gradientTransform="translate(29.871 -24.189)" fy="185.927" fx="74.396"><stop offset="0" stop-color="#fff"/><stop offset=".219" stop-color="#F9D0AE"/><stop offset=".415" stop-color="#F5AB6D"/><stop offset=".579" stop-color="#F2903E"/><stop offset=".704" stop-color="#F07F21"/><stop offset=".775" stop-color="#EF7916"/><stop offset="1" stop-color="#CE5B0E"/></radialGradient><path fill="url(#o)" d="M103.33 163.66c0 1.36 1.1 2.46 2.46 2.46 1.35 0 2.45-1.1 2.45-2.46 0-1.36-1.1-2.47-2.46-2.47-1.37 0-2.47 1.1-2.47 2.46zm.3 0c0-1.2.97-2.15 2.16-2.15 1.18 0 2.14.97 2.14 2.16 0 1.18-.96 2.15-2.15 2.15-1.2 0-2.16-.96-2.16-2.14z"/></g></g><g transform="matrix(1.169 0 0 1.169 -102.101 -175.405)"><circle cx="105.791" cy="163.658" r="2.464" fill="none" stroke="#59270b" stroke-width="1.539"/><circle cx="105.791" cy="163.658" r="2.464" fill="url(#p)"/><g><radialGradient cx="74.396" cy="185.927" r="5.977" gradientUnits="userSpaceOnUse" gradientTransform="translate(29.871 -24.189)" fy="185.927" fx="74.396"><stop offset="0" stop-color="#fff"/><stop offset=".219" stop-color="#F9D0AE"/><stop offset=".415" stop-color="#F5AB6D"/><stop offset=".579" stop-color="#F2903E"/><stop offset=".704" stop-color="#F07F21"/><stop offset=".775" stop-color="#EF7916"/><stop offset="1" stop-color="#CE5B0E"/></radialGradient><path fill="url(#q)" d="M103.33 163.66c0 1.36 1.1 2.46 2.46 2.46 1.35 0 2.45-1.1 2.45-2.46 0-1.36-1.1-2.47-2.46-2.47-1.37 0-2.47 1.1-2.47 2.46zm.3 0c0-1.2.97-2.15 2.16-2.15 1.18 0 2.14.97 2.14 2.16 0 1.18-.96 2.15-2.15 2.15-1.2 0-2.16-.96-2.16-2.14z"/></g></g><g transform="matrix(1.367 0 0 1.366 -30.919 -14.753)"><circle cx="27.679" cy="54.053" r="19.018" fill="url(#r)" stroke="#192333" stroke-width="2.42" transform="matrix(.302 0 0 .302 32.297 12.035)"/><path fill="url(#s)" d="M40.67 23.05c-2.94 0-5.34 2.4-5.34 5.33 0 2.94 2.4 5.34 5.34 5.34S46 31.32 46 28.38s-2.4-5.33-5.33-5.33zm0 9.92c-2.54 0-4.6-2.06-4.6-4.6 0-2.52 2.06-4.58 4.6-4.58 2.53 0 4.6 2.05 4.6 4.58 0 2.53-2.07 4.6-4.6 4.6z"/></g><g transform="matrix(1.43 0 0 1.429 -124.45 -190.591)"><circle cx="105.791" cy="163.658" r="2.464" fill="none" stroke="#59270b" stroke-width="1.259"/><circle cx="105.791" cy="163.658" r="2.464" fill="url(#t)"/><g><radialGradient cx="74.396" cy="185.927" r="5.977" fx="74.396" fy="185.927" gradientTransform="translate(29.871 -24.189)" gradientUnits="userSpaceOnUse"><stop offset="0" stop-color="#fff"/><stop offset=".219" stop-color="#F9D0AE"/><stop offset=".415" stop-color="#F5AB6D"/><stop offset=".579" stop-color="#F2903E"/><stop offset=".704" stop-color="#F07F21"/><stop offset=".775" stop-color="#EF7916"/><stop offset="1" stop-color="#CE5B0E"/></radialGradient><path fill="url(#u)" d="M103.33 163.66c0 1.36 1.1 2.46 2.46 2.46 1.35 0 2.45-1.1 2.45-2.46 0-1.36-1.1-2.47-2.46-2.47-1.37 0-2.47 1.1-2.47 2.46zm.3 0c0-1.2.97-2.15 2.16-2.15 1.18 0 2.14.97 2.14 2.16 0 1.18-.96 2.15-2.15 2.15-1.2 0-2.16-.96-2.16-2.14z"/></g></g><g transform="matrix(1.43 0 0 1.429 -142.815 -221.482)"><circle cx="105.791" cy="163.658" r="2.464" fill="none" stroke="#59270b" stroke-width="1.259"/><circle cx="105.791" cy="163.658" r="2.464" fill="url(#v)"/><g><radialGradient cx="74.396" cy="185.927" r="5.977" fx="74.396" fy="185.927" gradientTransform="translate(29.871 -24.189)" gradientUnits="userSpaceOnUse"><stop offset="0" stop-color="#fff"/><stop offset=".219" stop-color="#F9D0AE"/><stop offset=".415" stop-color="#F5AB6D"/><stop offset=".579" stop-color="#F2903E"/><stop offset=".704" stop-color="#F07F21"/><stop offset=".775" stop-color="#EF7916"/><stop offset="1" stop-color="#CE5B0E"/></radialGradient><path fill="url(#w)" d="M103.33 163.66c0 1.36 1.1 2.46 2.46 2.46 1.35 0 2.45-1.1 2.45-2.46 0-1.36-1.1-2.47-2.46-2.47-1.37 0-2.47 1.1-2.47 2.46zm.3 0c0-1.2.97-2.15 2.16-2.15 1.18 0 2.14.97 2.14 2.16 0 1.18-.96 2.15-2.15 2.15-1.2 0-2.16-.96-2.16-2.14z"/></g></g><g transform="matrix(1.43 0 0 1.429 -110.26 -200.415)"><circle cx="105.791" cy="163.658" r="2.464" fill="none" stroke="#59270b" stroke-width="1.259"/><circle cx="105.791" cy="163.658" r="2.464" fill="url(#x)"/><g><radialGradient cx="74.396" cy="185.927" r="5.977" gradientUnits="userSpaceOnUse" gradientTransform="translate(29.871 -24.189)" fy="185.927" fx="74.396"><stop offset="0" stop-color="#fff"/><stop offset=".219" stop-color="#F9D0AE"/><stop offset=".415" stop-color="#F5AB6D"/><stop offset=".579" stop-color="#F2903E"/><stop offset=".704" stop-color="#F07F21"/><stop offset=".775" stop-color="#EF7916"/><stop offset="1" stop-color="#CE5B0E"/></radialGradient><path fill="url(#y)" d="M103.33 163.66c0 1.36 1.1 2.46 2.46 2.46 1.35 0 2.45-1.1 2.45-2.46 0-1.36-1.1-2.47-2.46-2.47-1.37 0-2.47 1.1-2.47 2.46zm.3 0c0-1.2.97-2.15 2.16-2.15 1.18 0 2.14.97 2.14 2.16 0 1.18-.96 2.15-2.15 2.15-1.2 0-2.16-.96-2.16-2.14z"/></g></g><g transform="matrix(1.43 0 0 1.429 -144.218 -199.566)"><circle cx="105.791" cy="163.658" r="2.464" fill="none" stroke="#59270b" stroke-width="1.259"/><circle cx="105.791" cy="163.658" r="2.464" fill="url(#z)"/><g><radialGradient cx="74.396" cy="185.927" r="5.977" fx="74.396" fy="185.927" gradientTransform="translate(29.871 -24.189)" gradientUnits="userSpaceOnUse"><stop offset="0" stop-color="#fff"/><stop offset=".219" stop-color="#F9D0AE"/><stop offset=".415" stop-color="#F5AB6D"/><stop offset=".579" stop-color="#F2903E"/><stop offset=".704" stop-color="#F07F21"/><stop offset=".775" stop-color="#EF7916"/><stop offset="1" stop-color="#CE5B0E"/></radialGradient><path fill="url(#A)" d="M103.33 163.66c0 1.36 1.1 2.46 2.46 2.46 1.35 0 2.45-1.1 2.45-2.46 0-1.36-1.1-2.47-2.46-2.47-1.37 0-2.47 1.1-2.47 2.46zm.3 0c0-1.2.97-2.15 2.16-2.15 1.18 0 2.14.97 2.14 2.16 0 1.18-.96 2.15-2.15 2.15-1.2 0-2.16-.96-2.16-2.14z"/></g></g><g transform="matrix(1.801 0 0 1.8 -160.946 -264.224)"><circle cx="105.791" cy="163.658" r="2.464" fill="none" stroke="#59270b"/><circle cx="105.791" cy="163.658" r="2.464" fill="url(#B)"/><g><radialGradient cx="74.396" cy="185.927" r="5.977" fx="74.396" fy="185.927" gradientTransform="translate(29.871 -24.189)" gradientUnits="userSpaceOnUse"><stop offset="0" stop-color="#fff"/><stop offset=".219" stop-color="#F9D0AE"/><stop offset=".415" stop-color="#F5AB6D"/><stop offset=".579" stop-color="#F2903E"/><stop offset=".704" stop-color="#F07F21"/><stop offset=".775" stop-color="#EF7916"/><stop offset="1" stop-color="#CE5B0E"/></radialGradient><path fill="url(#C)" d="M103.33 163.66c0 1.36 1.1 2.46 2.46 2.46 1.35 0 2.45-1.1 2.45-2.46 0-1.36-1.1-2.47-2.46-2.47-1.37 0-2.47 1.1-2.47 2.46zm.3 0c0-1.2.97-2.15 2.16-2.15 1.18 0 2.14.97 2.14 2.16 0 1.18-.96 2.15-2.15 2.15-1.2 0-2.16-.96-2.16-2.14z"/></g></g><g transform="matrix(1.43 0 0 1.429 -109.29 -212.301)"><circle cx="105.791" cy="163.658" r="2.464" fill="none" stroke="#59270b" stroke-width="1.259"/><circle cx="105.791" cy="163.658" r="2.464" fill="url(#D)"/><g><radialGradient cx="74.396" cy="185.927" r="5.977" gradientUnits="userSpaceOnUse" gradientTransform="translate(29.871 -24.189)" fy="185.927" fx="74.396"><stop offset="0" stop-color="#fff"/><stop offset=".219" stop-color="#F9D0AE"/><stop offset=".415" stop-color="#F5AB6D"/><stop offset=".579" stop-color="#F2903E"/><stop offset=".704" stop-color="#F07F21"/><stop offset=".775" stop-color="#EF7916"/><stop offset="1" stop-color="#CE5B0E"/></radialGradient><path fill="url(#E)" d="M103.33 163.66c0 1.36 1.1 2.46 2.46 2.46 1.35 0 2.45-1.1 2.45-2.46 0-1.36-1.1-2.47-2.46-2.47-1.37 0-2.47 1.1-2.47 2.46zm.3 0c0-1.2.97-2.15 2.16-2.15 1.18 0 2.14.97 2.14 2.16 0 1.18-.96 2.15-2.15 2.15-1.2 0-2.16-.96-2.16-2.14z"/></g></g><g transform="matrix(1.021 0 0 1.021 -98.15 -143.939)"><circle cx="105.791" cy="163.658" r="2.464" fill="none" stroke="#59270b" stroke-width="1.763"/><circle cx="105.791" cy="163.658" r="2.464" fill="url(#F)"/><g><radialGradient cx="74.396" cy="185.927" r="5.977" fx="74.396" fy="185.927" gradientTransform="translate(29.871 -24.189)" gradientUnits="userSpaceOnUse"><stop offset="0" stop-color="#fff"/><stop offset=".219" stop-color="#F9D0AE"/><stop offset=".415" stop-color="#F5AB6D"/><stop offset=".579" stop-color="#F2903E"/><stop offset=".704" stop-color="#F07F21"/><stop offset=".775" stop-color="#EF7916"/><stop offset="1" stop-color="#CE5B0E"/></radialGradient><path fill="url(#G)" d="M103.33 163.66c0 1.36 1.1 2.46 2.46 2.46 1.35 0 2.45-1.1 2.45-2.46 0-1.36-1.1-2.47-2.46-2.47-1.37 0-2.47 1.1-2.47 2.46zm.3 0c0-1.2.97-2.15 2.16-2.15 1.18 0 2.14.97 2.14 2.16 0 1.18-.96 2.15-2.15 2.15-1.2 0-2.16-.96-2.16-2.14z"/></g></g><g transform="matrix(1.207 0 0 1.206 -100.904 -193.241)"><circle cx="105.791" cy="163.658" r="2.464" fill="none" stroke="#59270b" stroke-width="1.492"/><circle cx="105.791" cy="163.658" r="2.464" fill="url(#H)"/><g><radialGradient cx="74.396" cy="185.927" r="5.977" fx="74.396" fy="185.927" gradientTransform="translate(29.871 -24.189)" gradientUnits="userSpaceOnUse"><stop offset="0" stop-color="#fff"/><stop offset=".219" stop-color="#F9D0AE"/><stop offset=".415" stop-color="#F5AB6D"/><stop offset=".579" stop-color="#F2903E"/><stop offset=".704" stop-color="#F07F21"/><stop offset=".775" stop-color="#EF7916"/><stop offset="1" stop-color="#CE5B0E"/></radialGradient><path fill="url(#I)" d="M103.33 163.66c0 1.36 1.1 2.46 2.46 2.46 1.35 0 2.45-1.1 2.45-2.46 0-1.36-1.1-2.47-2.46-2.47-1.37 0-2.47 1.1-2.47 2.46zm.3 0c0-1.2.97-2.15 2.16-2.15 1.18 0 2.14.97 2.14 2.16 0 1.18-.96 2.15-2.15 2.15-1.2 0-2.16-.96-2.16-2.14z"/></g></g></g></svg>