<svg xmlns="http://www.w3.org/2000/svg" width="48" height="48" xmlns:xlink="http://www.w3.org/1999/xlink"><defs><linearGradient id="c"><stop offset="0" stop-color="#b0b4bb"/><stop offset="1" stop-color="#d3d5d8"/></linearGradient><linearGradient id="b"><stop offset="0" stop-color="#d3d4d8"/><stop offset="1" stop-color="#f5f5f6"/></linearGradient><linearGradient id="a"><stop offset="0" stop-color="#7f8590"/><stop offset="1" stop-color="#c2c5ca"/></linearGradient><linearGradient id="e" x1="23.826" x2="44.469" y1="19.257" y2="37.614" xlink:href="#a" gradientUnits="userSpaceOnUse"/><linearGradient id="d" x1="18.111" x2="34.397" y1="4.471" y2="16.9" xlink:href="#b" gradientUnits="userSpaceOnUse"/><linearGradient id="f" x1="1.254" x2="22.969" y1="11.4" y2="46.257" xlink:href="#c" gradientUnits="userSpaceOnUse"/></defs><g><path fill="url(#d)" fill-rule="evenodd" d="M46.48 8.7L39.1 12l-3.8 5.43-12.14 1.47-3.24-3.64-9.36-.15L.4 10.46l9.93-1.4 8.12-5.5L23 .9l10.14 3.65L38.7 7.5l7.78 1.2z" color="#000" overflow="visible" enable-background="accumulate"/><path fill="url(#e)" fill-rule="evenodd" d="M23.67 47.26l3.2-8.8-3.16-9.43-.3-9.9 12.22-1.47 3.8-5.4 7.33-3.44.93 8.18-1.16 12.6-1.54 8.44-5.26 3.02-6.1 2.47-9.95 3.73z"/><path fill="url(#f)" fill-rule="evenodd" d="M23.13 19.1l.23 9.9 3.17 9.43-3.08 8.78-2.06-1.97L12.1 44l-6.4-8.74-1.95-5.03V21.4L.45 10.5l10.07 4.8 9.36.15 3.25 3.64z" color="#000" overflow="visible" enable-background="accumulate"/><path fill="none" stroke="#000" d="M5.6 35.37l6.43 8.74 9.28 1.25 2.25 1.93 9.9-3.7 6.1-2.5 5.27-3 1.55-8.43 1.16-12.6-.93-8.3-7.8-1.22L33.2 4.6 23.1.94 18.5 3.58l-8.12 5.5L.5 10.6l3.17 10.9v8.82l1.94 5.03z"/><path fill="none" stroke="#000" d="M.5 10.47l10.2 4.8 9.37.15 3.33 3.63"/><path fill="none" stroke="#000" d="M46.6 8.84l-7.35 3.33-3.8 5.4-12.2 1.48"/><path fill="none" stroke="#000" d="M23.47 47.2l3.25-8.8-3.17-9.45-.3-9.9"/><path fill="none" stroke="#000" stroke-width=".5" d="M11.95 44.1l1.08-11.9-.93-10.36-1.46-6.58 8.66-5.5 7.2-3.4 6.87-1.54"/><path fill="none" stroke="#000" stroke-width=".5" d="M21.23 45.2l-4.72-11 .17-8.42L20 15.48l6.26-1 9.05-6.33 3.5-.55"/><path fill="none" stroke="#000" stroke-width=".5" d="M33.3 43.72l-1.55-9.35 1.4-9.36 2.3-7.5"/><path fill="none" stroke="#000" stroke-width=".5" d="M39.56 41.1l2.1-7.82-.55-8.9-1.77-12.13"/><path fill="none" stroke="#000" stroke-width=".5" d="M3.67 21.53l8.28.23 4.8 4.25 6.8 2.95 9.6-3.94 7.96-.53 6.43-7.04"/><path fill="none" stroke="#000" stroke-width=".5" d="M3.36 30.27l9.75 1.85 3.4 2.17 10.22 4.24 5.1-4.1 9.83-1.08 4.8-3.7"/><path fill="none" stroke="#000" stroke-width=".5" d="M10.17 9.15l8.9.62 7.1 4.64 9.22 3.18"/><path fill="none" stroke="#000" stroke-width=".5" d="M39.25 12.1l-4.02-3.95L26.4 6.3l-8.1-2.87"/></g></svg>