<svg xmlns="http://www.w3.org/2000/svg" width="48" height="48" xmlns:xlink="http://www.w3.org/1999/xlink"><defs><linearGradient id="d"><stop offset="0" stop-color="#994b00"/><stop offset="1" stop-color="#f57900"/></linearGradient><linearGradient id="c"><stop offset="0" stop-color="#ff8929"/><stop offset="1" stop-color="#ffdbbe"/></linearGradient><linearGradient id="b"><stop offset="0" stop-color="#ffb874"/><stop offset="1" stop-color="#ff9c3b"/></linearGradient><linearGradient id="a"><stop offset="0" stop-color="#2e3436"/><stop offset="1" stop-color="#2e3436" stop-opacity="0"/></linearGradient><linearGradient><stop offset="0" stop-color="#fff"/><stop offset="1" stop-color="#eeeeec" stop-opacity="0"/></linearGradient><linearGradient><stop offset="0" stop-color="#b9ec95"/><stop offset="1" stop-color="#656565"/></linearGradient><linearGradient><stop offset="0" stop-color="#b8f18f"/><stop offset="1" stop-color="#6ab800"/></linearGradient><radialGradient id="e" cx="22.349" cy="43.968" r="18.476" xlink:href="#a" fx="22.349" fy="43.968" gradientTransform="matrix(1 0 0 .249 0 33.014)" gradientUnits="userSpaceOnUse"/><linearGradient id="g" x1="13.089" x2="13.197" y1="3.714" y2="13.048" xlink:href="#b" gradientUnits="userSpaceOnUse"/><linearGradient id="h" x1="3.046" x2="22.763" y1="9.17" y2="9.17" xlink:href="#c" gradientUnits="userSpaceOnUse"/><radialGradient id="f" cx="18.086" cy="35.749" r="18.915" xlink:href="#d" fx="18.086" fy="35.749" gradientTransform="matrix(.686 -.212 .433 1.4 -8.873 -7.846)" gradientUnits="userSpaceOnUse"/></defs><g><path fill="url(#e)" d="M40.83 43.97a18.48 4.6 0 1 1-36.96 0 18.48 4.6 0 1 1 36.96 0z" transform="matrix(1.009 0 0 1.062 -1.356 -3.778)" color="#000" overflow="visible"/><path fill="url(#f)" stroke="#9c4600" d="M21.72 2.1C32.9 11.7 40.4 25.16 40.68 41.43c.05 2.67-4.66 5.48-10.82 5.75-6.17.27-11.43-2.1-11.42-5 0-6.66-.64-15.24-14.58-26.97" color="#000" overflow="visible"/><path fill="url(#g)" d="M21.7 2.13c1.6 2.15-1.23 6.8-6.27 10.35-5.05 3.56-10.42 4.7-12 2.53-1.58-2.14 1.24-6.78 6.3-10.33 5.03-3.56 10.4-4.7 11.98-2.54z" color="#000" overflow="visible"/><path fill="none" stroke="#ce5c00" d="M3.55 15.07C1.97 12.9 4.78 8.27 9.83 4.72c5.05-3.56 10.42-4.7 12-2.54" color="#000" overflow="visible"/><path fill="none" stroke="#fdd08d" d="M22.35 10.5C30.12 17.7 35.4 31 35.98 41.7" stroke-linecap="round"/><path fill="none" stroke="#fdd08d" stroke-opacity=".387" stroke-width="3" d="M22.35 10.5C30.12 17.7 35.4 31 35.98 41.7" stroke-linecap="round"/><path fill="none" stroke="#fdd08d" stroke-opacity=".387" stroke-width="6" d="M22.35 10.5C30.12 17.7 35.4 31 35.98 41.7" stroke-linecap="round"/><path fill="none" stroke="#fcaf3e" d="M22.58 4.04c10.12 9 16.9 21.67 17.15 36.95.04 2.5-4.2 5.14-9.8 5.4-5.57.25-10.32-2-10.32-4.7.02-6.25-.56-14.3-13.17-25.33" color="#000" overflow="visible"/><path fill="none" stroke="#fee5c1" d="M22.38 3.62c8.2 7.8 16.92 19.8 17.33 38.86"/><path fill="none" stroke="url(#h)" d="M21.82 2.18c1.58 2.16-1.23 6.8-6.28 10.35-5.05 3.56-10.42 4.7-12 2.54" color="#000" stroke-linecap="round" overflow="visible"/></g><g><path fill-opacity=".307" d="M27.3 3.53l-2.36.1a.75.75 0 1 0 .03 1.5l1.72-.07 3.18 3.13-2 .6a.75.75 0 0 0-.13.07.75.75 0 0 0-.28 0 .75.75 0 0 0-.44 1.22l.34.43.13 3.7a.75.75 0 0 0 0 .02l-8.8-1.47a.75.75 0 0 0-.57.13.75.75 0 0 0-.44.97l-2.23 7.1a.75.75 0 0 0 0 .03l-8.8-.97.74-1.37a.76.76 0 1 0-1.3-.75L4.93 20a.75.75 0 0 0-.22 0 .75.75 0 0 0-.47 1.22l4.78 6.37a.75.75 0 0 0 .56.34l3.68 2.56-1.47 4.16a.75.75 0 0 0-.6 1.03l1.96 5.74a.76.76 0 0 0 .37.84.76.76 0 0 0 .8.25l4.5 2.06a.75.75 0 0 0 .4.06.76.76 0 0 0 .83-.97l1.16-2.4 2.03 3.5a.76.76 0 0 0 .88.7.75.75 0 0 0 .06 0 .76.76 0 0 0 .02 0 .75.75 0 0 0 .34-.16l3.4-2.84 2.2 2.06a.75.75 0 0 0 1.43-.44l-.04-.15 1.4-2.13 2.57 1.97a.75.75 0 0 0 .75.48.75.75 0 0 0 .06 0 .75.75 0 0 0 .03 0 .75.75 0 0 0 .66-.37l1.75-3.15 2.72 2.2.03.02a.75.75 0 0 0 .03.03.75.75 0 0 0 .03 0 .75.75 0 0 0 .02.06.75.75 0 0 0 .04 0 .75.75 0 0 0 .03.03.75.75 0 0 0 .02 0 .75.75 0 0 0 1.12-.6l2.28-3.28a.75.75 0 0 0 .44-1.06l-2.25-6.94 1.04-4.84a.75.75 0 0 0 .1-1.07l-4.35-6.58-5.4-11.25a.75.75 0 0 0-.83-.4L27.7 3.6a.75.75 0 0 0-.4-.1zm3.67 3.66l.75.42-.25.07-.5-.5zm2.6 1.42l1.02 2.16-1.9-1.87.86-.28zm-2.5.8l3 2.96-1.57.12a.75.75 0 1 0 .13 1.5l2.74-.25 2.2 3.66-3.35-.96a.75.75 0 0 0-.1-.03l-5.18-6.34 2.12-.65zm-2.13 3.05l3.97 4.84-2.46 3.1-1.47-4.93a.75.75 0 0 0 .06-.35l-.1-2.65zM19.8 14.5l7.23 1.2-.72 3.2-2.58 1.98-3.9-6.38zm-1.08 1.1l3.3 5.43-4.96-.12 1.66-5.3zm9.37 2.15l.6 2.06-.9-.74.3-1.3zm6.68.44l3.13.86-2.43 4.78-.7-5.65zm-1.4.93l.9 7.03-4.44 5.4 1.04-9.12.1-.32 2.4-3zm5.74.84l3.22 4.9-3.9-.28a.75.75 0 0 0-.22 0 .75.75 0 1 0 .1 1.5l4.46.3-.78 3.7-6.03-3.82 3.16-6.3zm-12.18.34l2.37 2-2.02 6.2-4.44-.8 1.54-5.45 2.56-1.94zM6.37 21.54l8.07.88-1.47 1.57a.75.75 0 0 0 .1 1.12l.12 3.5-2.54-1.76 1.68-2.53a.75.75 0 1 0-1.25-.8l-1.54 2.28-3.2-4.25zm11.25.88l5.13.13-1.2 4.22-3.93-4.34zm-1.2.9l2.74 3.04-3.13-1.28.38-1.75zm-1.76 1.04l-.04.13-.06-.03.1-.1zm2 2.6l4.53 1.84.08 3.34-4.62-5.18zm-1.25.8l5.6 6.32-4.72 2.47-.44-1.9 1.13-.54a.75.75 0 1 0-.63-1.35l-.84.4-.7-2.77a.75.75 0 0 0 0-.04l.6-2.6zm19.38.1l2.34 6.35-6.74-.95 4.4-5.4zm1.84.63l2.76 1.75-.63-.03a.75.75 0 0 0-.44-.1.75.75 0 0 0-.33.12.75.75 0 0 0-.22.2.75.75 0 0 0-.03.02.75.75 0 0 0 0 .03.75.75 0 0 0-.2.47l-.9-2.47zm-13.93.7l4.1.77L24.85 36l-2-1.84-.15-5zm5.9.1l-.44 4.17-1.3 1.06 1.73-5.22zM40 31.76l1.88.03.06.03 1.94 6-1.4-.24-.2-2.65a.75.75 0 0 0-.16-.4L40 31.75zm-.88 1.28l1.7 2.2.15 2.1a.75.75 0 0 0-.03 0 .75.75 0 0 0 0 1.5l.12.05.16 1.93-2.1-1.7v-3.6a.75.75 0 0 0 .1-.4l-.1-2.07zm-25.15.06l.15.68-.5.22.35-.9zm18.4 1.93l3.7.53-1.45.8-2.24-1.33zm-17.9.22l.2.75-.76-.47.57-.28zm13.78.03L29.63 42l-1.13-1.03a.75.75 0 0 0-.2-.13l-2.18-3.72 2.13-1.84zm-5.94.4l2.07 1.95a.75.75 0 0 0 0 .1l-.75 4.7-1.8-3.05.5-3.7zm-1.55.2l-.44 3.46a.75.75 0 0 0 0 .38l-1.1 2.34-.64-1.06a.75.75 0 0 0-.72-1.3l-1-1.76 3.9-2.06zM31 36l3.1 1.8.87 3.7-1.56-1.2L31 36zm6.63.38v2.87a.75.75 0 0 0 .1.38l-1.17 2.1-.97-4.2 2.02-1.16zm-24.44.46l1.6 1.03-.7 1.6-.9-2.63zm17.1.97l1.6 2.9-.77 1.2-.82-4.1zm12.3 1.3l.68.12-.62.87-.07-1zm-26.73.12l.54.97-1.18.42.65-1.4zm9.8.06l1.27 2.16L25.06 43l.6-3.72zM17.1 41.5l.5.88-1.28-.6.8-.28z" style="text-indent:0;text-align:start;line-height:normal;text-transform:none;block-progression:tb;-inkscape-font-specification:Sans" color="#000" overflow="visible" enable-background="accumulate" font-family="Sans"/><g fill="none" stroke="#a5c2e0" stroke-width=".5" stroke-linecap="round"><path d="M24.95 4.38l2.38-.1 6.3 3.53-5.53 1.72.2 5.62-9.73-1.62-2.57 8.3-10.57-1.15 1.33-2.38"/><path d="M32.57 13.24l3.24-.3 3.34 5.73L34 17.14 30.1 22l-3.15-2.67-3.24 2.48-1.8 6.5-8.1-3.35.2 5.15-4.38-3.05 2.1-3.15"/><path d="M16.67 33.43l-4.3 2 3.44 2.2 6.2-3.25 2.95 2.76 3.9-3.33 9.63 1.34-.2-4.2 4.3.1 1.13-5.33-5.32-.37"/><path d="M18.1 40.38l-3.72 1.33 4.76 2.2 2-4.2 2.96 5.06 3.9-3.24L30.67 44l2.1-3.24 3.6 2.76 2.2-3.9L42 42.38l2.57-3.7-3.52-.58"/><path d="M4.86 20.76l4.76 6.38"/><path d="M13.52 24.48L16 21.8l-1.9 8.4"/><path d="M15.9 21.62l6 6.67"/><path d="M23.52 22l-5.14-8.38"/><path d="M26.95 19.43L28 14.76l2 6.86"/><path d="M33.8 17.24l-6.18-7.62"/><path d="M34 7.8l5.43 11.25"/><path d="M35.62 12.86l-8.57-8.48"/><path d="M16.2 21.62l7.5.2"/><path d="M12.3 35.52l1.8-5.04 1.7 7.23"/><path d="M21.9 28.2l.2 6-8.2-9.25"/><path d="M25.14 37.43L30.3 21.8"/><path d="M28.86 33.7l1.33-12"/><path d="M27.62 29.33L22.1 28.3"/><path d="M33.9 17.24l1.15 9.14-6.1 7.43"/><path d="M38.2 34.95l-3.15-8.57 4-7.9 4.76 7.23"/><path d="M42.57 31.33l-7.52-4.76"/><path d="M11.9 35.43l2.2 6.38"/><path d="M15.8 37.52l-1.9 4.1"/><path d="M19.33 43.9l-3.62-6.47"/><path d="M21.05 39.43l.66-5.05"/><path d="M25.24 37.14L24 44.76"/><path d="M27.9 41.62l-2.76-4.67"/><path d="M29.05 34l3.7 6.67"/><path d="M30.86 44.3L28.76 34"/><path d="M38.38 39.24v-4.3"/><path d="M36.2 43.43l-1.44-6.1L29.14 34"/><path d="M34.76 37.14l3.53-2"/><path d="M44.86 38.38l-2.38-7.33"/><path d="M42.1 42.48l-.58-7.53-3.14-4.1"/></g></g></svg>