<svg xmlns="http://www.w3.org/2000/svg" width="48" height="48" xmlns:xlink="http://www.w3.org/1999/xlink"><defs><linearGradient id="g" x1="23.201" x2="22.286" y1="3.505" y2="32.37" xlink:href="#a" gradientUnits="userSpaceOnUse" gradientTransform="matrix(1.061 0 0 1.061 11.512 1.186)"/><linearGradient id="a"><stop offset="0" stop-color="#d3d7cf"/><stop offset="1" stop-color="#fff"/></linearGradient><linearGradient id="b"><stop offset="0" stop-color="#dfeaa1"/><stop offset="1" stop-color="#9db029"/></linearGradient><linearGradient x1="13.697" x2="13.697" y1="6.887" y2="1.744" xlink:href="#b" gradientUnits="userSpaceOnUse" gradientTransform="matrix(.625 0 0 .638 19.852 21.36)"/><linearGradient id="d"><stop offset="0" stop-color="#fedba7"/><stop offset="1" stop-color="#fdbf64"/></linearGradient><linearGradient id="c"><stop offset="0" stop-color="#ffa54c"/><stop offset="1" stop-color="#f57900"/></linearGradient><linearGradient x1="14.929" x2="35.357" y1="17.929" y2="27.929" xlink:href="#c" gradientUnits="userSpaceOnUse" gradientTransform="matrix(.864 0 0 .863 3.346 -8.883)"/><linearGradient x1="2.131" x2="46.011" y1="26.143" y2="26.143" xlink:href="#d" gradientUnits="userSpaceOnUse" gradientTransform="matrix(.967 0 0 .966 .802 -14.102)"/><linearGradient id="e" x1="14.929" x2="35.357" y1="17.929" y2="27.929" xlink:href="#c" gradientUnits="userSpaceOnUse" gradientTransform="matrix(.864 0 0 .863 3.346 -8.883)"/><linearGradient id="f" x1="2.131" x2="46.011" y1="26.143" y2="26.143" xlink:href="#d" gradientUnits="userSpaceOnUse" gradientTransform="matrix(.967 0 0 .966 .802 -14.102)"/></defs><g><g><path fill="url(#e)" fill-rule="evenodd" stroke="url(#f)" stroke-width="1.074" d="M3.35 10.96l21.58-8.63 19.87 8.63-19.87 9-21.58-9z" stroke-linejoin="round" transform="matrix(.931 0 0 .931 -1.034 27.91)"/><g fill="none" stroke="#8b3b00" stroke-width=".991"><path d="M11.68 33.35L33 42.6"/><path d="M31.92 33.38L10.6 42.64"/></g><path fill="none" stroke="#000" stroke-width=".93.074" d="M.27 38.08l21.98-9 20.22 9-20.22 9.4-21.98-9.4z" stroke-linejoin="round"/></g><g color="#000" stroke-linejoin="round"><path fill="#fce94f" fill-rule="evenodd" stroke="#947900" stroke-width=".9975599999999999" d="M25.97 29.37a3.73 3.73 0 1 1-7.47 0 3.73 3.73 0 1 1 7.47 0z" overflow="visible"/><path fill="none" stroke="#fff" stroke-width="1.00436" d="M24.83 29.32a2.7 2.7 0 1 1-5.42 0 2.7 2.7 0 1 1 5.43 0z" overflow="visible"/></g><path fill="url(#g)" fill-rule="evenodd" stroke="#2e3436" stroke-width="1.5" d="M22.83.7V15.3h6.46l-6.87 13.4 18.22-13.4h6.78V.7h-24.6z" color="#000" stroke-linejoin="round" overflow="visible"/><path fill="none" stroke="#fff" stroke-miterlimit="6" d="M24 1.86v12.3h8.17L25.3 25.43l14.87-11.25h6.05V1.87H24z" color="#000" overflow="visible"/></g></svg>