<svg xmlns="http://www.w3.org/2000/svg" width="48" height="48" xmlns:xlink="http://www.w3.org/1999/xlink"><defs><linearGradient id="a"><stop offset="0" stop-color="#9a7e00"/><stop offset="1" stop-color="#643e00"/></linearGradient><linearGradient id="j" x1="6.509" x2="10.484" y1="32.061" y2="36.162" xlink:href="#a" gradientUnits="userSpaceOnUse"/><linearGradient id="b"><stop offset="0" stop-color="#fce94f"/><stop offset="1" stop-color="#fef7bc"/></linearGradient><linearGradient id="d"><stop offset="0" stop-color="#fedba7"/><stop offset="1" stop-color="#fdbf64"/></linearGradient><linearGradient id="c"><stop offset="0" stop-color="#ffa54c"/><stop offset="1" stop-color="#f57900"/></linearGradient><linearGradient id="i" x1="34.214" x2="1.115" y1="44.549" y2="45.868" xlink:href="#b" gradientUnits="userSpaceOnUse" gradientTransform="matrix(.802 0 0 .802 10.744 -10.137)"/><linearGradient id="e" x1="11.029" x2="19.514" y1="19.582" y2="22.532" xlink:href="#c" gradientUnits="userSpaceOnUse" gradientTransform="matrix(.683 0 0 .74 21.902 16.269)"/><linearGradient id="f" x1="3.411" x2="46.011" y1="26.143" y2="26.143" xlink:href="#d" gradientUnits="userSpaceOnUse" gradientTransform="matrix(.765 0 0 .828 19.89 11.792)"/><linearGradient id="g" x1="12.724" x2="21.251" y1="18.539" y2="21.926" xlink:href="#c" gradientUnits="userSpaceOnUse" gradientTransform="matrix(.683 0 0 .74 2.884 5.032)"/><linearGradient id="h" x1="3.707" x2="46.011" y1="26.143" y2="26.143" xlink:href="#d" gradientUnits="userSpaceOnUse" gradientTransform="matrix(.765 0 0 .828 .872 .555)"/><linearGradient id="k" x1="6.509" x2="10.484" y1="32.061" y2="36.162" xlink:href="#a" gradientUnits="userSpaceOnUse"/><linearGradient id="l" x1="6.509" x2="10.484" y1="32.061" y2="36.162" xlink:href="#a" gradientUnits="userSpaceOnUse"/><linearGradient id="m" x1="6.509" x2="10.484" y1="32.061" y2="36.162" xlink:href="#a" gradientUnits="userSpaceOnUse"/><linearGradient id="n" x1="6.509" x2="10.484" y1="32.061" y2="36.162" xlink:href="#a" gradientUnits="userSpaceOnUse"/><linearGradient id="o" x1="6.509" x2="10.484" y1="32.061" y2="36.162" xlink:href="#a" gradientUnits="userSpaceOnUse"/></defs><g><path fill="url(#e)" fill-rule="evenodd" stroke="url(#f)" d="M22.33 33.3L39.17 26l6.24 3.12-16.1 7.46-6.97-3.3z" stroke-linejoin="round"/><path fill="none" stroke="#8b3b00" d="M30.06 28.9l8.33 4.26"/><path fill="none" stroke="#000" d="M20.37 33.26l18.67-8.3 7.9 4.26-17.62 8.28-8.95-4.24z" stroke-linejoin="round"/><path fill="url(#g)" fill-rule="evenodd" stroke="url(#h)" d="M3 22.05l17-7.35 6.17 2.98-16.25 7.45-6.9-3.08z" stroke-linejoin="round"/><path fill="none" stroke="#8b3b00" d="M11.05 17.68l8.33 4.25"/><path fill="none" stroke="#000" d="M1.35 22.03l18.67-8.3 7.9 4.25-17.62 8.28-8.95-4.23z" stroke-linejoin="round"/><path fill="url(#i)" fill-rule="evenodd" stroke="#8b3b00" d="M10 26.18l17.5-8.13 11.55 7.24-18.35 7.86L10 26.18z" stroke-linejoin="round"/><path fill="none" stroke="#8b3b00" d="M20.6 32.95l-.7-10.66 10.78 6.53-3.33-10.9" stroke-linejoin="round"/><g color="#000" stroke-linejoin="round"><path fill="#fce94f" fill-rule="evenodd" stroke="url(#j)" stroke-width=".914" d="M10.86 34a2.3 2.3 0 1 1-4.57 0 2.3 2.3 0 1 1 4.56 0z" transform="matrix(1.094 0 0 1.094 .625 -11.187)" overflow="visible"/><path fill="none" stroke="#fff" stroke-width=".50292" d="M11.8 26a1.8 1.74 0 1 1-3.6 0 1.8 1.74 0 1 1 3.6 0z" overflow="visible"/></g><g color="#000" stroke-linejoin="round"><path fill="#fce94f" fill-rule="evenodd" stroke="url(#k)" stroke-width=".914" d="M10.86 34a2.3 2.3 0 1 1-4.57 0 2.3 2.3 0 1 1 4.56 0z" transform="matrix(1.094 0 0 1.094 10.625 -15.187)" overflow="visible"/><path fill="none" stroke="#fff" stroke-width=".50292" d="M21.8 22a1.8 1.74 0 1 1-3.6 0 1.8 1.74 0 1 1 3.6 0z" overflow="visible"/></g><g color="#000" stroke-linejoin="round"><path fill="#fce94f" fill-rule="evenodd" stroke="url(#l)" stroke-width=".914" d="M10.86 34a2.3 2.3 0 1 1-4.57 0 2.3 2.3 0 1 1 4.56 0z" transform="matrix(1.094 0 0 1.094 18.625 -19.187)" overflow="visible"/><path fill="none" stroke="#fff" stroke-width=".50292" d="M29.8 18a1.8 1.74 0 1 1-3.6 0 1.8 1.74 0 1 1 3.6 0z" overflow="visible"/></g><g color="#000" stroke-linejoin="round"><path fill="#fce94f" fill-rule="evenodd" stroke="url(#m)" stroke-width=".914" d="M10.86 34a2.3 2.3 0 1 1-4.57 0 2.3 2.3 0 1 1 4.56 0z" transform="matrix(1.094 0 0 1.094 10.625 -4.187)" overflow="visible"/><path fill="none" stroke="#fff" stroke-width=".50292" d="M21.8 33a1.8 1.74 0 1 1-3.6 0 1.8 1.74 0 1 1 3.6 0z" overflow="visible"/></g><g color="#000" stroke-linejoin="round"><path fill="#fce94f" fill-rule="evenodd" stroke="url(#n)" stroke-width=".914" d="M10.86 34a2.3 2.3 0 1 1-4.57 0 2.3 2.3 0 1 1 4.56 0z" transform="matrix(1.094 0 0 1.094 21.115 -8.61)" overflow="visible"/><path fill="none" stroke="#fff" stroke-width=".50292" d="M32.28 28.57a1.8 1.74 0 1 1-3.58 0 1.8 1.74 0 1 1 3.58 0z" overflow="visible"/></g><g color="#000" stroke-linejoin="round"><path fill="#fce94f" fill-rule="evenodd" stroke="url(#o)" stroke-width=".914" d="M10.86 34a2.3 2.3 0 1 1-4.57 0 2.3 2.3 0 1 1 4.56 0z" transform="matrix(1.094 0 0 1.094 29.625 -12.187)" overflow="visible"/><path fill="none" stroke="#fff" stroke-width=".50292" d="M40.8 25a1.8 1.74 0 1 1-3.6 0 1.8 1.74 0 1 1 3.6 0z" overflow="visible"/></g></g></svg>