<svg xmlns="http://www.w3.org/2000/svg" width="48" height="48"><defs><radialGradient id="e" cx="320.195" cy="430.994" r="25.116" gradientUnits="userSpaceOnUse" fy="430.994" fx="320.195"><stop offset="0" stop-color="#BABDB6"/><stop offset=".826" stop-color="#545652"/><stop offset="1" stop-color="#2D3335"/></radialGradient><radialGradient id="d" cx="307.004" cy="394.856" r="24.063" gradientUnits="userSpaceOnUse" fy="394.856" fx="307.004"><stop offset="0" stop-color="#fff"/><stop offset="1" stop-color="#545652"/></radialGradient><radialGradient id="c" cx="339.66" cy="431.983" r="43.676" gradientUnits="userSpaceOnUse" fy="431.983" fx="339.66"><stop offset="0" stop-color="#BAD1D7"/><stop offset=".826" stop-color="#6D7580"/><stop offset="1" stop-color="#41454C"/></radialGradient><radialGradient id="b" cx="305.712" cy="390.819" r="62.509" gradientUnits="userSpaceOnUse" fy="390.819" fx="305.712"><stop offset="0" stop-color="#fff"/><stop offset="1" stop-color="#8794A0"/></radialGradient><radialGradient id="a" cx="312.533" cy="431.678" r="48.527" gradientUnits="userSpaceOnUse" fy="431.678" fx="312.533"><stop offset="0" stop-color="#BAD1D7"/><stop offset="1" stop-color="#8794A0"/></radialGradient><linearGradient id="f" x1="330.177" x2="331.303" y1="404.341" y2="405.121" gradientUnits="userSpaceOnUse"><stop offset="0" stop-color="#CFDBE6"/><stop offset=".876" stop-color="#6D7480"/><stop offset="1" stop-color="#828C99"/></linearGradient><radialGradient cx="312.533" cy="431.678" r="48.527" fx="312.533" fy="431.678" gradientUnits="userSpaceOnUse"><stop offset="0" stop-color="#BAD1D7"/><stop offset="1" stop-color="#8794A0"/></radialGradient><radialGradient cx="305.712" cy="390.819" r="62.509" fx="305.712" fy="390.819" gradientUnits="userSpaceOnUse"><stop offset="0" stop-color="#fff"/><stop offset="1" stop-color="#8794A0"/></radialGradient><radialGradient cx="339.66" cy="431.983" r="43.676" fx="339.66" fy="431.983" gradientUnits="userSpaceOnUse"><stop offset="0" stop-color="#BAD1D7"/><stop offset=".826" stop-color="#6D7580"/><stop offset="1" stop-color="#41454C"/></radialGradient></defs><g><path fill="url(#a)" d="M320.35 427.56l-10.9-13.13-1.8-20.95 11.8 10.56.9 23.52z" transform="matrix(1.178 0 0 1.178 -361.277 -456.996)"/><path fill="url(#b)" d="M343.68 397.27l-24.15 6.77-11.9-10.56 21.44-4.65 14.6 8.44z" transform="matrix(1.178 0 0 1.178 -361.277 -456.996)"/><path fill="url(#c)" stroke="#2e3436" stroke-width="1.061" d="M341.6 419.24l-21.25 8.32 4.34-20.9 18.98-9.4-2.07 21.98z" transform="matrix(1.178 0 0 1.178 -361.277 -456.996)"/><g transform="matrix(1.178 0 0 1.178 -361.277 -456.996)" opacity=".4"><radialGradient cx="307.004" cy="394.856" r="24.063" fx="307.004" fy="394.856" gradientUnits="userSpaceOnUse"><stop offset="0" stop-color="#fff"/><stop offset="1" stop-color="#545652"/></radialGradient><path fill="url(#d)" d="M319.46 404.04l-11.82-10.56" enable-background="new"/></g><g transform="matrix(1.178 0 0 1.178 -361.277 -456.996)" opacity=".4"><radialGradient cx="320.195" cy="430.994" r="25.116" fx="320.195" fy="430.994" gradientUnits="userSpaceOnUse"><stop offset="0" stop-color="#BABDB6"/><stop offset=".826" stop-color="#545652"/><stop offset="1" stop-color="#2D3335"/></radialGradient><path fill="url(#e)" d="M320.35 427.56l-.9-23.52" enable-background="new"/></g><path fill="none" stroke="#192333" stroke-width="1.00182" d="M1.25 6.66L26.5 1.2l17.23 9.92-2.45 25.9-25.05 9.8L3.37 31.34 1.25 6.65z"/><path fill="#737b87" d="M.02 5.43h2.45v2.45H.02z"/><path fill="#737b87" d="M2.17 30.22h2.45v2.45H2.17z"/><path fill="none" stroke="#2e3436" d="M16.3 46.7L15 19l28.57-8"/><path fill="#737b87" d="M15 45.6h2.45v2.44H15z"/><path fill="#737b87" d="M39.7 35.74h2.44v2.45H39.7z"/><path fill="#737b87" d="M42.5 9.9h2.45v2.45H42.5z"/><path fill="#737b87" d="M25.28-.04h2.45V2.4h-2.45z"/><path fill="none" d="M1.25 6.66L15.18 19.1l1.05 27.7"/><g stroke="#2e3436" stroke-width="1.273"><path fill="#2e3436" d="M40.82 5.3c1.1-2.65-1.37-3.6-3.28-.73-1.33 2-18.98 28.5-18.98 28.5L16 38.57l4.13-4.3S39.9 6.56 40.83 5.3z"/></g><path fill="none" stroke="#ed2728" stroke-width="1.5" d="M37.48 6.5c-.28-.54 2.74-.9 3.33-.85 2.3.23 6.1 2 6.47 4.42.57 3.73-4.32 6.3-7.4 6.92-5.64 1.1-12.37.44-17.44-1.94-5.13-2.4-9.5-3.1-13.28-.32-2.2 1.6-3.48 4.47-.8 6.56 4.06 3.16 11.57 1.92 12.8.8"/><g transform="matrix(1.178 0 0 1.178 -361.277 -456.996)"><linearGradient x1="330.177" x2="331.303" y1="404.341" y2="405.121" gradientUnits="userSpaceOnUse"><stop offset="0" stop-color="#CFDBE6"/><stop offset=".876" stop-color="#6D7480"/><stop offset="1" stop-color="#828C99"/></linearGradient><path fill="url(#f)" d="M338.5 391.52c-1.1 1.65-15.6 23.4-15.6 23.4l-2.1 4.53 3.38-3.54s15.6-21.64 16.38-22.7c2.17-2.94-.26-4.4-2.07-1.68zm.95 2.08c-.65.93-1.4 1.52-1.7 1.32-.3-.2-.02-1.13.62-2.07.65-.93 1.4-1.53 1.7-1.32.3.2.02 1.13-.62 2.07z"/></g><path fill="#fff" d="M38.73 6.8c-.76 1.1-1.66 1.8-2 1.55-.36-.24-.02-1.33.74-2.43s1.66-1.8 2-1.56c.36.24.02 1.33-.74 2.44z"/><path fill="none" stroke="#ed2728" d="M40.8 5.65c-.58-.06-3.63.33-3.32.84.26.42.5.45.5.45"/><path fill="#ed2728" d="M13.96 17.88h2.45v2.45h-2.44z"/><path fill="#ed2728" d="M20 20.55h2.45V23H20z"/><g><path fill="none" stroke="#8893a0" stroke-width=".50032" d="M40.8 5.07c1.06-2.57-1.35-3.5-3.2-.72-1.3 1.94-18.37 27.58-18.37 27.58l-2.48 5.33 4-4.17s18.4-25.53 19.3-26.76"/></g></g></svg>