<svg xmlns="http://www.w3.org/2000/svg" width="48" height="48" xmlns:xlink="http://www.w3.org/1999/xlink"><defs><linearGradient id="i"><stop offset="0" stop-color="#10dfff"/><stop offset="1" stop-color="#fd0000"/></linearGradient><radialGradient cx="25.188" cy="41.625" r="18.063" gradientUnits="userSpaceOnUse" gradientTransform="matrix(1 0 0 .325 0 28.086)" fy="41.625" fx="25.188" xlink:href="#a"/><linearGradient x1="298.479" x2="298.869" y1="13.6" y2="13.803" gradientUnits="userSpaceOnUse" xlink:href="#b"/><linearGradient x1="298.479" x2="298.869" y1="13.6" y2="13.803" gradientUnits="userSpaceOnUse" xlink:href="#c"/><radialGradient cx="34.376" cy="37.5" r="8.389" gradientUnits="userSpaceOnUse" gradientTransform="matrix(1 0 0 1.06 0 -2.3)" fy="37.5" fx="34.376" xlink:href="#d"/><linearGradient x1="20.288" x2="24.326" y1="6.46" y2="23.943" gradientUnits="userSpaceOnUse" xlink:href="#e"/><linearGradient x1="20.288" x2="24.326" y1="6.46" y2="23.943" gradientUnits="userSpaceOnUse" xlink:href="#e"/><linearGradient x1="7.185" x2="25.152" y1="31.057" y2="50.775" gradientTransform="matrix(1.162 0 0 .992 -2.431 .266)" gradientUnits="userSpaceOnUse" xlink:href="#d"/><linearGradient x1="13.825" x2="7.67" y1="40.069" y2="2.326" gradientTransform="matrix(1.162 0 0 .992 -2.667 .064)" gradientUnits="userSpaceOnUse" xlink:href="#d"/><linearGradient x1="39.62" x2="-3.533" y1="44.541" y2="-11.889" gradientTransform="matrix(1.162 0 0 .992 -5.112 .064)" gradientUnits="userSpaceOnUse" xlink:href="#f"/><linearGradient x1="292.972" x2="296.94" y1="4.759" y2="10.711" gradientTransform="matrix(4.053 0 0 4.137 -1175.535 -11.905)" gradientUnits="userSpaceOnUse" xlink:href="#g"/><linearGradient x1="292.972" x2="296.94" y1="4.759" y2="10.711" gradientTransform="matrix(-4.128 0 0 4.137 1244.465 -11.905)" gradientUnits="userSpaceOnUse" xlink:href="#g"/><linearGradient x1="296.486" x2="296.529" y1="15.507" y2="9.877" gradientTransform="matrix(3.638 0 0 3.47 -1056.116 -16.007)" gradientUnits="userSpaceOnUse" xlink:href="#d"/><linearGradient x1="296.762" x2="297.798" y1="12.012" y2="10.947" gradientTransform="matrix(3.624 0 0 3.624 -1053.179 -16.847)" gradientUnits="userSpaceOnUse" xlink:href="#d"/><linearGradient x1="294.595" x2="297.185" y1="12.188" y2="13.34" gradientUnits="userSpaceOnUse" xlink:href="#d"/><linearGradient x1="22.225" x2="24.19" y1="23.843" y2="22.861" gradientUnits="userSpaceOnUse" xlink:href="#h"/><linearGradient id="h" x1="68.175" x2="74.587" y1="21.425" y2="27.837" gradientUnits="userSpaceOnUse"><stop offset="0" stop-color="#BABDB6"/><stop offset="1" stop-color="#EEEEEC"/></linearGradient><radialGradient id="d" cx="165.061" cy="23.333" r="7.285" gradientUnits="userSpaceOnUse" gradientTransform="matrix(1 0 0 1.01 0 -.16)"><stop offset="0" stop-color="#EF3535"/><stop offset="0" stop-color="#c91a1a"/><stop offset="1" stop-color="#ff4c4c"/></radialGradient><linearGradient id="g" x1="292.972" x2="296.94" y1="4.759" y2="10.711" gradientUnits="userSpaceOnUse"><stop offset="0" stop-color="#EEEEEC"/><stop offset="1" stop-color="#fff"/></linearGradient><radialGradient id="f" cx="165.061" cy="23.333" r="7.285" gradientTransform="matrix(1 0 0 1.01 0 -.16)" gradientUnits="userSpaceOnUse"><stop offset="0" stop-color="#EF3535"/><stop offset="1" stop-color="#a40000" stop-opacity="0"/></radialGradient><linearGradient id="e"><stop offset="0" stop-color="#e2e2e2"/><stop offset="1" stop-color="#d8d8d8"/></linearGradient><linearGradient id="c"><stop offset="0" stop-color="#df2a2a"/><stop offset="1" stop-color="#df2a2a" stop-opacity="0"/></linearGradient><linearGradient id="b"><stop offset="0" stop-color="#9a0c00"/><stop offset="1" stop-color="#9a0c00" stop-opacity="0"/></linearGradient><linearGradient id="a"><stop offset="0"/><stop offset="1" stop-opacity="0"/></linearGradient><linearGradient id="x" x1="39.62" x2="-3.533" y1="44.541" y2="-11.889" xlink:href="#f" gradientUnits="userSpaceOnUse" gradientTransform="matrix(.729 -.68 .581 .622 -8.185 25.994)"/><linearGradient id="w" x1="296.762" x2="297.798" y1="12.012" y2="10.947" xlink:href="#d" gradientUnits="userSpaceOnUse" gradientTransform="matrix(2.273 -2.121 2.121 2.273 -675.232 628.615)"/><radialGradient id="t" cx="34.376" cy="37.5" r="8.389" xlink:href="#d" gradientUnits="userSpaceOnUse" gradientTransform="matrix(.627 -.585 .62 .665 -6.363 21.521)" fx="34.376" fy="37.5"/><linearGradient id="s" x1="13.825" x2="7.67" y1="40.069" y2="2.326" xlink:href="#d" gradientUnits="userSpaceOnUse" gradientTransform="matrix(.729 -.68 .581 .622 -6.652 24.563)"/><linearGradient id="r" x1="7.185" x2="25.152" y1="31.057" y2="50.775" xlink:href="#d" gradientUnits="userSpaceOnUse" gradientTransform="matrix(.729 -.68 .581 .622 -6.386 24.551)"/><linearGradient id="p" x1="20.288" x2="24.326" y1="6.46" y2="23.943" xlink:href="#e" gradientUnits="userSpaceOnUse" gradientTransform="matrix(.627 -.585 .585 .627 -5.017 22.962)"/><linearGradient id="o" x1="292.972" x2="296.94" y1="4.759" y2="10.711" xlink:href="#g" gradientUnits="userSpaceOnUse" gradientTransform="matrix(2.542 -2.372 2.42 2.594 -749.059 703.304)"/><linearGradient id="n" x1="296.486" x2="296.529" y1="15.507" y2="9.877" xlink:href="#d" gradientUnits="userSpaceOnUse" gradientTransform="matrix(2.281 -2.129 2.031 2.176 -676.582 630.86)"/><linearGradient id="l" x1="20.288" x2="24.326" y1="6.46" y2="23.943" xlink:href="#e" gradientUnits="userSpaceOnUse" gradientTransform="matrix(.627 -.585 .585 .627 -5.017 22.962)"/><linearGradient id="k" x1="292.972" x2="296.94" y1="4.759" y2="10.711" xlink:href="#g" gradientUnits="userSpaceOnUse" gradientTransform="matrix(-2.588 2.415 2.42 2.594 768.313 -712.64)"/><linearGradient id="u" x1="298.479" x2="298.869" y1="13.6" y2="13.803" xlink:href="#c" gradientUnits="userSpaceOnUse"/><linearGradient id="v" x1="298.479" x2="298.869" y1="13.6" y2="13.803" xlink:href="#b" gradientUnits="userSpaceOnUse"/><linearGradient id="q" x1="22.225" x2="24.19" y1="23.843" y2="22.861" xlink:href="#h" gradientUnits="userSpaceOnUse"/><linearGradient id="m" x1="294.595" x2="297.185" y1="12.188" y2="13.34" xlink:href="#d" gradientUnits="userSpaceOnUse"/><linearGradient id="y" x1="-.571" x2="21.143" y1="27.286" y2="27.286" xlink:href="#i" gradientUnits="userSpaceOnUse"/><linearGradient id="j" x1="47.143" x2="20.286" y1="5.857" y2="19.429" xlink:href="#i" gradientUnits="userSpaceOnUse"/></defs><g><path fill="none" stroke="#fff" stroke-width="4" d="M20.43 20C27.56 8.13 36.9 15.44 47.57 5.7"/><path fill="none" stroke="#fff" stroke-width="4" d="M20.14 20.3c-4.6 11-11.7 13.96-19.7 14"/><path fill="none" stroke="url(#j)" stroke-width="2" d="M20.43 20C27.56 8.13 36.9 15.44 47.57 5.7"/><path fill="url(#k)" stroke="#888a85" d="M17.36 4c.17-.1.35-.17.52-.24 1.7 1 4.9.62 5.45 2.66 1.33 6.24 2.73 12.52 4.1 18.77-.37.52-.8 1-1.25 1.46-.98.96-2.13 1.76-3.4 2.3-1.83-8.3-3.68-16.64-5.42-24.97z" stroke-linecap="round" stroke-linejoin="round"/><path fill="url(#l)" d="M18.97 5.56c.03.33.23.8.25 1.13 1.4 6.6 2.77 13.23 4.16 19.82.1.2.08 1.1.55.6.8-.53 1.62-1.1 2.15-1.94-1.28-6.1-2.64-12.2-3.92-18.28-.02-.44-.3-.82-.74-.85-.8-.2-1.65-.43-2.45-.6v.1z"/><path fill="url(#m)" stroke="#9a0c00" stroke-width=".328" d="M294.73 13.67l1.02-1.7 1.3.33-.65 1.08-1.27 1.34z" transform="matrix(2.281 -2.129 2.031 2.176 -676.582 630.86)" stroke-linecap="round" stroke-linejoin="round"/><path fill="url(#n)" d="M23.56 27.93c-.48 1.02.43 2 .52 3 .2.64.2 1.38.48 2 .3.33 1.08.6 1.18-.03.2-1.53.12-3.1-.26-4.6-.14-.45-.02-1.03-.28-1.4-.67-.03-1.26.56-1.64 1.03z"/><path fill="url(#o)" stroke="#888a85" d="M4.06 16.4c-.1.16-.17.33-.26.5.9 1.75.33 4.87 2.3 5.6 6.1 1.8 12.23 3.66 18.33 5.5.54-.33 1.05-.7 1.53-1.13 1-.9 1.86-1.97 2.47-3.17-8.1-2.46-16.24-4.93-24.37-7.3z" stroke-linecap="round" stroke-linejoin="round"/><path fill="url(#p)" d="M5.44 18.18c.42.94.24 2.08.78 3 6.06 1.83 12.15 3.62 18.2 5.46.92-.54 1.6-1.36 2.2-2.2-.56-.37-1.25-.42-1.85-.68-6.28-1.84-12.6-3.66-18.86-5.54-.08-.08-.4-.17-.46-.04z"/><path fill="url(#q)" d="M24.2 23.84a.98.98 0 1 1-1.97 0 .98.98 0 1 1 1.96 0z" transform="matrix(.614 -.573 .585 .627 -4.72 22.889)" color="#000" overflow="visible"/><path fill="url(#r)" stroke="#a40000" d="M23.8 31.6c3.04-.8 6.06 2.1 6.75 6.5.7 4.4-1.2 8.64-4.25 9.45-3.04.8-6.06-2.1-6.75-6.5-.68-4.4 1.22-8.63 4.25-9.45zm.44 2.8c-1.34.36-2.5 2.98-2.04 5.94.46 2.96 2.32 4.77 3.66 4.4 1.35-.35 2.5-2.97 2.05-5.93-.45-2.95-2.3-4.76-3.66-4.4z"/><path fill="url(#s)" d="M21.86 33.76c-.98 1.37-1.43 3.03-1.7 4.5-.08.88.06 1.64.1 2.54.3 2.47 1.67 4.83 4.05 5.7 1.25.54 2.87-.28 3.73-1.52.77-1 1-2.3 1.34-3.35.12-1.04.03-1.93-.05-3-.3-2.6-1.6-5.23-4.17-6.1-1.12-.28-2.42.22-3.3 1.23zm.86.32c1.4-1.02 3.3-.7 4.13.5 1.35 1.43 1.9 3.47 1.94 5.5-.07 1.72-.5 3.68-2.02 4.98-.85.8-2.05.85-2.9.42-1.88-1.23-2.97-3.42-3.07-5.75-.03-1.75.33-3.68 1.54-5.24.13-.14.25-.28.38-.42z"/><path fill="url(#t)" stroke="#a40000" d="M31.72 24.2c-1.02 2.98 1.68 6.2 6.03 7.2 4.34.98 8.7-.63 9.72-3.6 1.02-2.98-1.68-6.2-6.02-7.18-4.35-1-8.7.62-9.73 3.6zm2.77.64c.44-1.32 3.13-2.3 6.05-1.63 2.93.68 4.6 2.65 4.15 3.97-.45 1.32-3.14 2.3-6.06 1.63-2.93-.67-4.6-2.64-4.15-3.96z"/><path fill="url(#u)" stroke="url(#v)" stroke-width=".322" d="M299.27 13.67l-1.02-1.7-1.3.33.65 1.08 1.27 1.34z" transform="matrix(2.273 -2.121 2.121 2.273 -675.232 628.615)" stroke-linecap="round" stroke-linejoin="round"/><path fill="url(#w)" d="M27.73 25.18c-.15.37-.52.72-.55 1.1 1.4.32 2.9.72 4.25.97.86.08 1.73.15 2.6.12-.36-1.3-1.7-2-2.96-2.15-.9-.22-1.76-.84-2.68-.55-.27.1-.52.27-.67.5z"/><path fill="url(#x)" d="M33.04 23.17c-.82 1.03-1.18 2.37-.64 3.4.7 2.15 2.86 3.32 5.03 3.77 1.48.2 2.94.7 4.5.24 1.46-.28 3.2-.77 4.03-2.24.7-1.15.5-2.44-.06-3.43-.97-1.8-2.92-2.75-4.95-3.15-.95-.2-1.94-.4-2.9-.45-1.28.13-2.63.5-3.88 1-.4.23-.83.5-1.13.87zm.98.5c1.06-1.07 2.46-1.43 3.78-1.45 1.2 0 2.32-.05 3.42.32 1.74.5 3.2 1.7 4.02 3.25.44 1.13-.24 2.53-1.43 3.22-1.37 1.02-3 .84-4.47.9-1.8-.03-3.57-.76-4.8-1.98-.57-.65-1.28-1.35-1.32-2.3-.05-.6.26-1.48.82-1.97z"/><path fill="none" stroke="url(#y)" stroke-width="2" d="M20.14 20.3c-4.6 11-11.7 13.96-19.7 14"/></g></svg>