<svg xmlns="http://www.w3.org/2000/svg" width="48" height="48" xmlns:xlink="http://www.w3.org/1999/xlink"><defs><linearGradient id="n"><stop offset="0" stop-color="#70dd09"/><stop offset="1" stop-color="#346604"/></linearGradient><linearGradient id="m"><stop offset="0" stop-color="#8ae234"/><stop offset="1" stop-color="#fff"/></linearGradient><linearGradient id="l"><stop offset="0" stop-color="#f1d3a4"/><stop offset="1" stop-color="#f1d3a4" stop-opacity="0"/></linearGradient><linearGradient id="k"><stop offset="0" stop-color="#f1d3a4"/><stop offset="1" stop-color="#f1d3a4" stop-opacity="0"/></linearGradient><linearGradient id="j"><stop offset="0" stop-color="#f1d3a4"/><stop offset="1" stop-color="#f1d3a4" stop-opacity="0"/></linearGradient><linearGradient id="i"><stop offset="0" stop-color="#f1d3a4"/><stop offset="1" stop-color="#f1d3a4" stop-opacity="0"/></linearGradient><linearGradient id="h"><stop offset="0" stop-color="#2e3436"/><stop offset=".5" stop-color="#2e3436"/><stop offset="1" stop-color="#2e3436" stop-opacity="0"/></linearGradient><linearGradient id="g"><stop offset="0" stop-color="#c17d11"/><stop offset="1" stop-color="#c17d11" stop-opacity="0"/></linearGradient><linearGradient id="f"><stop offset="0" stop-color="#c17d11"/><stop offset="1" stop-color="#c17d11" stop-opacity="0"/></linearGradient><linearGradient id="e"><stop offset="0" stop-color="#c17d11"/><stop offset="1" stop-color="#c17d11" stop-opacity="0"/></linearGradient><linearGradient id="d"><stop offset="0" stop-color="#c17d11"/><stop offset="1" stop-color="#c17d11" stop-opacity="0"/></linearGradient><linearGradient id="c"><stop offset="0" stop-color="#ccc"/><stop offset="1" stop-color="#fff"/></linearGradient><linearGradient id="b"><stop offset="0" stop-color="#690000"/><stop offset="1" stop-color="#a40000"/></linearGradient><linearGradient id="a"><stop offset="0" stop-color="#a40000"/><stop offset="1" stop-color="#ef2929"/></linearGradient><linearGradient id="s" x1="71.428" x2="260.692" y1="272.25" y2="156.457" xlink:href="#a" gradientUnits="userSpaceOnUse"/><linearGradient id="r" x1="285.326" x2="61.48" y1="250.202" y2="251.23" xlink:href="#b" gradientUnits="userSpaceOnUse" gradientTransform="matrix(.158 0 0 .153 -3.591 -4.353)"/><linearGradient id="t" x1="32.509" x2="36.11" y1="16.202" y2="19.586" xlink:href="#c" gradientUnits="userSpaceOnUse" gradientTransform="matrix(1.046 0 0 1.046 -2.607 -1.028)"/><radialGradient id="F" cx="24.016" cy="34.439" r="2.197" xlink:href="#d" fx="24.016" fy="34.439" gradientTransform="matrix(1 0 0 1.345 4.445 -14.754)" gradientUnits="userSpaceOnUse"/><radialGradient id="E" cx="35.608" cy="30.853" r="2.879" xlink:href="#e" fx="35.608" fy="30.853" gradientTransform="matrix(1 0 0 .991 0 -1.548)" gradientUnits="userSpaceOnUse"/><radialGradient id="C" cx="14.294" cy="26.56" r="2.525" xlink:href="#f" fx="14.294" fy="26.56" gradientTransform="matrix(1 0 0 1.43 -2.98 -13.239)" gradientUnits="userSpaceOnUse"/><radialGradient id="D" cx="23.883" cy="20.415" r="1.476" xlink:href="#g" fx="23.883" fy="20.415" gradientTransform="matrix(1 0 0 1.338 0 -8.72)" gradientUnits="userSpaceOnUse"/><radialGradient id="q" cx="24.622" cy="40.272" r="20.834" xlink:href="#h" fx="24.622" fy="40.272" gradientTransform="matrix(1 0 0 .732 0 10.788)" gradientUnits="userSpaceOnUse"/><linearGradient id="u" x1="8.889" x2="10.91" y1="20.877" y2="28.252" xlink:href="#i" gradientUnits="userSpaceOnUse"/><linearGradient id="B" x1="23.587" x2="22.678" y1="15.423" y2="20.473" xlink:href="#j" gradientUnits="userSpaceOnUse"/><linearGradient id="y" x1="28.234" x2="25.759" y1="26.989" y2="38.959" xlink:href="#k" gradientUnits="userSpaceOnUse"/><linearGradient id="x" x1="33.992" x2="32.224" y1="26.332" y2="31.787" xlink:href="#l" gradientUnits="userSpaceOnUse"/><linearGradient id="G" x1="16.824" x2="19.844" y1="30.094" y2="25.498" xlink:href="#m" gradientUnits="userSpaceOnUse"/><linearGradient id="H" x1="17.077" x2="20.046" y1="26.407" y2="29.437" xlink:href="#n" gradientUnits="userSpaceOnUse"/><linearGradient id="z" x1="19.414" x2="16.358" y1="27.048" y2="31.008" xlink:href="#m" gradientUnits="userSpaceOnUse" gradientTransform="matrix(-.017 .74 -.744 -.017 39.852 4.162)"/><linearGradient id="A" x1="17.077" x2="20.046" y1="26.407" y2="29.437" xlink:href="#n" gradientUnits="userSpaceOnUse" gradientTransform="matrix(-.017 .74 -.744 -.017 39.852 4.162)"/><linearGradient id="v" x1="37.674" x2="29.047" y1="27.114" y2="23.73" xlink:href="#o" gradientUnits="userSpaceOnUse" gradientTransform="translate(.354 -.859)"/><linearGradient id="o"><stop offset="0" stop-color="#8ae234"/><stop offset="1" stop-color="#fff"/></linearGradient><linearGradient id="w" x1="28.996" x2="40.098" y1="22.619" y2="26.862" xlink:href="#p" gradientUnits="userSpaceOnUse" gradientTransform="translate(.354 -.859)"/><linearGradient id="p"><stop offset="0" stop-color="#70dd09"/><stop offset="1" stop-color="#346604"/></linearGradient></defs><g><path fill="url(#q)" d="M45.46 40.27a20.83 15.25 0 1 1-41.67 0 20.83 15.25 0 1 1 41.66 0z" transform="matrix(1.046 0 0 1 -2.195 -7.475)" color="#000" overflow="visible" enable-background="accumulate"/><path fill="url(#r)" stroke="#860000" d="M44.28 21.48c0 7.73-5.32 23.8-20.86 23.54C9.4 44.78 2.05 29.97 2.16 22.24c.05-3.53 11.63-6.36 21.3-6.36 9.7 0 20.82 2.78 20.82 5.6z"/><path fill="none" stroke="#ef2929" d="M42.97 21.9c0 7.23-5 22.3-19.56 22.05-13.14-.22-20.03-14.1-19.93-21.34.05-3.3 10.9-5.96 20-5.96 9.06 0 19.5 2.6 19.5 5.26z"/><path fill="url(#s)" stroke="#640000" stroke-width="5.299" d="M281.85 222.95a110.77 91.14 0 1 1-221.55 0 110.77 91.14 0 1 1 221.55 0z" transform="matrix(.191 0 0 .186 -9.487 -19.886)"/><path fill="none" stroke="#f36868" stroke-width=".8999999999999999.564" d="M43.47 21.58a20.2 16.14 0 1 1-40.4 0 20.2 16.14 0 1 1 40.4 0z"/><path fill="url(#t)" stroke="#555753" d="M45.28.53c-1.02.07-1.63 1-3.2 2.37-1.56 1.38-3.4 3.85-5.37 6.63-1.95 2.78-5.03 9.58-9.3 9.6-4.3.03-9.36 2.24-10.56 5.15-1.2 2.9.53 5.37 2.6 5.9 2.1.53 5.67-.12 8.34-1.46 2.66-1.34 4.08-3.44 5.6-5.87 1.5-2.42 4.26-7.17 6.27-10.32 2-3.16 4.3-5.88 6.2-7.48 1.93-1.6 1.8-2.66 1.5-3.28-.3-.62-1.06-1.32-2.07-1.24z"/><path fill="none" stroke="#eeeeec" d="M36.4 11.62c-1.84 2.6-4.87 8.5-8.86 8.54-4 .02-8.92 2.3-9.78 4.52-.86 2.24.65 4 2.6 4.5 1.94.5 5.48-.7 7.4-1.73 1.9-1.04 4.43-4.6 5.83-6.85 1.4-2.26 3.6-6 5.47-8.93 1.87-2.94 2.77-4.34 4.56-5.83 1.8-1.5 3.56-3.64 2.37-4.4C44.24.37 38.24 9 36.4 11.63z"/><path fill="#2e3436" fill-opacity=".309" d="M19.48 29.84c-1.04-4.5 3.35-8.65 9.04-10.25-3.73.02-8.3 1.3-10.15 3.2-3.32 3.15-.9 6.62 1.1 7.04z"/><path fill="#ecc07d" fill-opacity=".624" d="M41.57 25.65a18.16 11.7 0 1 1-36.32 0 18.16 11.7 0 1 1 36.32 0z" color="#000" overflow="visible" enable-background="accumulate"/><path fill="url(#u)" stroke="#8f5902" d="M8.6 20.12l-3.95 3.9L7.48 28l3.68.86 3.18-4.14-2.17-4.04z" color="#000" overflow="visible" enable-background="accumulate"/><path fill="url(#v)" stroke="url(#w)" d="M29.04 23.76c-.52-.84-.38-3.1 1.16-3.54l10.56 3.6c.4 1.26.78 2.54-.96 3.67z" color="#000" overflow="visible" enable-background="accumulate"/><path fill="url(#x)" stroke="#8f5902" d="M35.32 22.42l-4.6 1.68-2.05 4.3 3.8 3.98 4.9-1.67 1.8-4.56z"/><path fill="url(#y)" stroke="#8f5902" d="M28.38 26.2l-5.34 1.44.5 4.87 2.78 2.57 4.8-2.04.1-4.58z" color="#000" overflow="visible" enable-background="accumulate"/><path fill="url(#z)" stroke="url(#A)" d="M17.74 14.42l1.9 2.55c.3.67 0 1.46-.83 1.66l-2.9-1.1c-.68-1.62.67-2.86 1.84-3.1z"/><path fill="url(#B)" stroke="#8f5902" d="M23.7 14.77l-3.86 1.1.43 3.54 2.06 1.84 3.48-1.54.02-3.33z" color="#000" overflow="visible" enable-background="accumulate"/><path fill="url(#C)" d="M11 28.35c-.1-.2-2.2-4.44-2.2-4.44l3.17-2.77 1.87 3.6z"/><path fill="url(#D)" d="M22.4 20.57v-3.25l2.9-.7.06 2.85z"/><path fill="url(#E)" d="M32.73 31.9l2.02-5.72 3.74.05-1.58 4.1z"/><path fill="url(#F)" d="M26.52 34.5l-.26-4.88 4.4-1-.05 4.08z"/><path fill="url(#G)" stroke="url(#H)" d="M14.55 29.36l4.1-4.54c.88-.43 1.96-.06 2.26 1.06l-2.1 5.86c-2.16.95-3.87-.82-4.25-2.38z"/></g></svg>