<svg xmlns="http://www.w3.org/2000/svg" width="48" height="48" xmlns:xlink="http://www.w3.org/1999/xlink" version="1"><defs><linearGradient id="n" x1="-12.102" x2="-14.822" y1="40.63" y2="38.588" xlink:href="#a" gradientUnits="userSpaceOnUse" gradientTransform="matrix(1.375 0 0 1.375 37.997 -32.101)"/><linearGradient id="h" x1="-23.858" x2="-30.237" y1="54.406" y2="39.205" xlink:href="#a" gradientUnits="userSpaceOnUse" gradientTransform="matrix(1.375 0 0 1.375 55.157 -29.275)"/><linearGradient id="i" x1="5.356" x2="-12.898" y1="35.88" y2="35.88" xlink:href="#a" gradientUnits="userSpaceOnUse" gradientTransform="matrix(1.375 0 0 1.375 37.997 -32.101)"/><linearGradient id="a"><stop offset="0" stop-color="#fce94f"/><stop offset="1" stop-color="#fef7bc"/></linearGradient><linearGradient id="j" x1="-6.995" x2="-12.423" y1="39.562" y2="29.954" xlink:href="#a" gradientUnits="userSpaceOnUse" gradientTransform="matrix(1.375 0 0 1.375 22.488 -33.031)"/><linearGradient id="k" x1="268.877" x2="260.424" y1="68.921" y2="44.574" xlink:href="#b" gradientUnits="userSpaceOnUse" gradientTransform="matrix(1.154 0 0 1.154 -298.378 -38.032)"/><linearGradient id="l" x1="265.379" x2="293.963" y1="38.297" y2="40.562" xlink:href="#c" gradientUnits="userSpaceOnUse" gradientTransform="matrix(1.154 0 0 1.154 -298.378 -38.032)"/><linearGradient id="m" x1="296.008" x2="275.717" y1="66.334" y2="51.394" xlink:href="#d" gradientUnits="userSpaceOnUse" gradientTransform="matrix(1.154 0 0 1.154 -298.378 -38.032)"/><linearGradient id="g"><stop offset="0" stop-color="#f0f0f0"/><stop offset="1" stop-color="#f0f0f0" stop-opacity="0"/></linearGradient><linearGradient id="f"><stop offset="0" stop-color="#fff"/><stop offset="1" stop-color="#eeeeec" stop-opacity="0"/></linearGradient><linearGradient id="e"><stop offset="0" stop-opacity=".633"/><stop offset="1" stop-opacity="0"/></linearGradient><radialGradient id="d" cx="294.624" cy="80.627" r="48.777" fx="294.624" fy="80.627" gradientUnits="userSpaceOnUse"><stop offset="0" stop-color="#eed8a3"/><stop offset="1" stop-color="#dd8f00"/></radialGradient><radialGradient id="c" cx="257.459" cy="35.376" r="68.717" fx="257.459" fy="35.376" gradientUnits="userSpaceOnUse"><stop offset="0" stop-color="#ffeeba"/><stop offset="1" stop-color="#ecc13b"/></radialGradient><radialGradient id="b" cx="264.957" cy="80.291" r="53.348" fx="264.957" fy="80.291" gradientUnits="userSpaceOnUse"><stop offset="0" stop-color="#ffcd92"/><stop offset="1" stop-color="#ffbf28"/></radialGradient><linearGradient x1="26.22" x2="43.015" y1="36.124" y2="42.537" xlink:href="#e" gradientUnits="userSpaceOnUse" gradientTransform="translate(2.138 .238)"/><radialGradient cx="264.957" cy="80.291" r="53.348" xlink:href="#b" gradientUnits="userSpaceOnUse" fx="264.957" fy="80.291"/><radialGradient cx="257.459" cy="35.376" r="68.717" xlink:href="#c" gradientUnits="userSpaceOnUse" fx="257.459" fy="35.376"/><radialGradient cx="294.624" cy="80.627" r="48.777" xlink:href="#d" gradientUnits="userSpaceOnUse" fx="294.624" fy="80.627"/><linearGradient x1="14.107" x2="39.69" y1="4.772" y2="43.606" xlink:href="#f" gradientUnits="userSpaceOnUse" gradientTransform="translate(-47.206 .356)"/><linearGradient x1="16.601" x2="17.363" y1="19.142" y2="45.175" xlink:href="#g" gradientUnits="userSpaceOnUse" gradientTransform="translate(-47.206 .356)"/></defs><g><path fill="url(#h)" fill-rule="evenodd" d="M12.07 23.17l11.06 1.92.84 22.02c-3.7 1.15-8 .47-10.72-1.85l-1.18-22.1z"/><path fill="url(#i)" fill-rule="evenodd" d="M18.26 17.24L43.7 9.52c1.5 1.08 2.98 4.22 3.46 7.18l-24.44 8.27-4.46-7.73z"/><path fill="url(#j)" fill-rule="evenodd" d="M5.53 5.7l13.02 11.06-6 6.36-11.4-11.17c.5-3.23 2.04-5.2 4.38-6.26z"/><path fill="url(#k)" d="M13.36 44.97L3.44 32.73l-2.12-20.2 11 10.45 1.04 22z"/><path fill="url(#l)" d="M42.96 9.17L18.2 17.1 5.9 6 28.34.25l14.6 8.9z"/><path fill="url(#m)" d="M44.25 38.83l-20.1 7.94-1.2-22.32 23.6-8.26-2.3 22.63z"/><path fill="none" stroke="#fff" stroke-opacity=".8" d="M2.4 12.7l2.03 19.93 9.7 11.65c1.94 2.2 5.75 2.77 8.98 2.1l20.22-7.77 2.2-22.34c.23-2.07-.5-4.14-2.73-6.2L28.2 1.78 5.7 6.73c-2.44 1-3.5 3.45-3.3 5.96z"/><path fill="url(#n)" fill-rule="evenodd" d="M18.18 17.13c-2.77 1.05-4.8 2.98-5.72 6.2 3.12 2.35 6.55 2.86 10.3 1.48-.22-2.15-2.1-5.75-4.58-7.67z" color="#000" overflow="visible"/><path fill="none" stroke="#8b3b00" d="M6.14 6.26l12.03 10.48c-2.35.7-5.9 3.78-5.82 6.25L1.47 12.57" stroke-linecap="round"/><path fill="none" stroke="#8b3b00" d="M42.85 9.5l-24.37 7.35c2.65 2.34 4.35 5.03 4.44 8.07l23.3-8.62" stroke-linecap="round"/><path fill="none" stroke="#8b3b00" d="M23.67 46.9l-.72-22.12c-3.8 1.56-7.7 1.03-10.67-1.73l1.02 21.67" stroke-linecap="round"/><path fill="none" stroke="#000" d="M5.78 5.67l22.57-5 15.02 8.7c1.94 1.27 3.5 4.15 3.35 6.63L44.2 39.42 24 46.88c-3.53 1.43-8.05.73-10.62-1.8L3.34 32.88l-1.9-20.74c-.22-2.6 1.3-5.7 4.34-6.47z"/></g></svg>