<svg xmlns="http://www.w3.org/2000/svg" width="48" height="48" xmlns:xlink="http://www.w3.org/1999/xlink"><defs><linearGradient id="a"><stop offset="0" stop-color="#676c72"/><stop offset="1" stop-color="#36383c"/></linearGradient><linearGradient id="b" x1=".811" x2="34.199" y1="89.237" y2="118.414" gradientUnits="userSpaceOnUse"><stop offset=".006" stop-color="#fff"/><stop offset=".421" stop-color="#FAAF3D"/><stop offset="1" stop-color="#F17912"/></linearGradient><linearGradient id="c" x1="28.308" x2="20.807" y1="127.269" y2="98.268" gradientUnits="userSpaceOnUse"><stop offset=".006" stop-color="#fff"/><stop offset=".421" stop-color="#FAAF3D"/><stop offset="1" stop-color="#F17912"/></linearGradient><linearGradient id="d" x1="3.411" x2="20.651" y1="112.832" y2="151.402" gradientUnits="userSpaceOnUse"><stop offset=".006" stop-color="#fff"/><stop offset=".421" stop-color="#C3CAD4"/><stop offset="1" stop-color="#A0A8B2"/></linearGradient><linearGradient id="e" x1="6.163" x2="57.831" y1="102.658" y2="137.841" gradientUnits="userSpaceOnUse"><stop offset=".006" stop-color="#fff"/><stop offset=".421" stop-color="#C3CAD4"/><stop offset="1" stop-color="#A0A8B2"/></linearGradient><linearGradient id="f" x1="5.015" x2="37.493" y1="111.37" y2="155.658" gradientUnits="userSpaceOnUse"><stop offset=".006" stop-color="#fff"/><stop offset=".421" stop-color="#C3CAD4"/><stop offset="1" stop-color="#A0A8B2"/></linearGradient><linearGradient id="g" x1="7.019" x2="49.834" y1="106.786" y2="148.123" gradientUnits="userSpaceOnUse"><stop offset=".006" stop-color="#fff"/><stop offset=".421" stop-color="#C3CAD4"/><stop offset="1" stop-color="#A0A8B2"/></linearGradient><linearGradient id="h" x1="6.455" x2="37.329" y1="104.748" y2="139.767" xlink:href="#a" gradientUnits="userSpaceOnUse"/></defs><g><path fill="url(#b)" d="M5.33 111.97l1.96-6.85 9.36-4.4 12.56-.42 10.24 3.83 3.63 6.74-5.54 6.44-12.47 2.83-12.85-2.02-6.92-6.13z" transform="matrix(1.11 0 0 1.11 -3.222 -110.872)"/><path fill="url(#c)" d="M5.33 111.97l1.96-6.85 9.36-4.4 12.56-.42 10.24 3.83 3.63 6.74-5.54 6.44-12.47 2.83-12.85-2.02-6.92-6.13z" transform="matrix(1.11 0 0 1.11 -3.222 -110.872)"/><path fill="url(#d)" d="M12.96 140.83l-6.47-6.6-1.17-22.26 6.92 6.14.7 22.73z" transform="matrix(1.11 0 0 1.11 -3.222 -110.872)"/><path fill="url(#e)" d="M41.58 132.92l-5.4 7.1 1.38-22.7 5.53-6.45-1.52 22.05z" transform="matrix(1.11 0 0 1.11 -3.222 -110.872)"/><path fill="url(#f)" d="M12.25 118.1l12.84 2.03v23.06l-12.14-2.37-.7-22.72z" transform="matrix(1.11 0 0 1.11 -3.222 -110.872)"/><path fill="url(#g)" d="M37.56 117.3l-12.47 2.83v23.06L36.16 140l1.4-22.7z" transform="matrix(1.11 0 0 1.11 -3.222 -110.872)"/><path fill="none" stroke="#676c72" d="M38.46 19.3l-1.54 25.2"/><path fill="none" stroke="#676c72" d="M24.94 22.35L24.5 48"/><path fill="none" stroke="#676c72" d="M10.38 20.18l.78 25.2"/><path fill="none" stroke="#ce5b0b" stroke-width="1.00011" d="M44.6 12.15L29.2.42l9.26 18.88L15.26.88l9.37 21.54L4.87 5.77l5.5 14.4" stroke-linejoin="bevel"/><path fill="none" stroke="url(#h)" stroke-width="1.352" d="M5.33 111.97l1.96-6.85 9.36-4.4 12.56-.42 10.24 3.83 3.63 6.74-1.52 22.05-5.4 7.1-11.2 3.17-12.02-2.37-6.47-6.6-1.17-22.26z" transform="matrix(1.11 0 0 1.11 -3.222 -110.872)"/><path fill="none" stroke="#676c72" stroke-width=".7004100000000001" d="M2.7 13.37l7.68 6.8 14.25 2.25 13.83-3.12 6.14-7.15"/></g></svg>