<svg xmlns="http://www.w3.org/2000/svg" width="48" height="48" xmlns:xlink="http://www.w3.org/1999/xlink"><defs><linearGradient id="b"><stop offset="0" stop-color="#fedba7"/><stop offset="1" stop-color="#fdbf64"/></linearGradient><linearGradient id="a"><stop offset="0" stop-color="#ffa54c"/><stop offset="1" stop-color="#f57900"/></linearGradient><linearGradient x1="14.929" x2="35.357" y1="17.929" y2="27.929" xlink:href="#a" gradientUnits="userSpaceOnUse" gradientTransform="matrix(.864 0 0 .863 3.346 6.117)"/><linearGradient x1="2.131" x2="46.011" y1="26.143" y2="26.143" xlink:href="#b" gradientUnits="userSpaceOnUse" gradientTransform="matrix(.967 0 0 .966 .802 .898)"/><linearGradient id="c" x1="14.929" x2="35.357" y1="17.929" y2="27.929" xlink:href="#a" gradientUnits="userSpaceOnUse" gradientTransform="matrix(.778 0 0 1.125 5.951 .592)"/></defs><g><path fill="none" stroke="#ef2929" stroke-width="2" d="M10.78 31.02L3.2 42.44" stroke-linecap="round"/><path fill="none" stroke="#ef2929" stroke-width="2" d="M20.02 8.02l10.67 5.2" stroke-linecap="round"/><path fill="none" stroke="#075fd1" stroke-width="2" d="M29.35 7.77l-9.75 5.46" stroke-linecap="round"/><path fill="url(#c)" fill-rule="evenodd" stroke="#5f2a00" stroke-width="1.5" d="M7.14 36.75l17.48-26.3L41 28.7 7.13 36.74z" stroke-linejoin="round" overflow="visible"/><path fill="none" stroke="#fdc676" d="M9.56 35.02l15.14-22.9 14.27 15.85-29.4 7.05z" overflow="visible"/><path fill="none" stroke="#73d216" stroke-width="2" d="M24.64 10.46l-.17-5.8" stroke-linecap="round" overflow="visible" enable-background="accumulate"/><path fill="none" stroke="#075fd1" stroke-width="2" d="M.94 36.06l13.2.76" stroke-linecap="round"/><path fill="none" stroke="#ef2929" stroke-width="2" d="M34.05 27.4l13.2 2.28" stroke-linecap="round"/><path fill="none" stroke="#075fd1" stroke-width="2" d="M39.65 24.02l3 9.97" stroke-linecap="round"/><path fill="none" stroke="#73d216" stroke-width="2" d="M42.7 21.87l-3.1 13.18" stroke-linecap="round" overflow="visible" enable-background="accumulate"/><path fill="none" stroke="#73d216" stroke-width="2" d="M3.55 31.1l7.23 10.58" stroke-linecap="round"/></g></svg>