<svg xmlns="http://www.w3.org/2000/svg" width="48" height="48" xmlns:xlink="http://www.w3.org/1999/xlink"><defs><linearGradient id="d"><stop offset="0" stop-color="#fdf39c"/><stop offset="1" stop-color="#fce741"/></linearGradient><linearGradient id="c"><stop offset="0" stop-color="#fce94f"/><stop offset="1" stop-color="#fce94f" stop-opacity="0"/></linearGradient><linearGradient id="b"><stop offset="0" stop-color="#fdce89"/><stop offset="1" stop-color="#fb9f18"/></linearGradient><linearGradient id="a"><stop offset="0" stop-color="#fff" stop-opacity=".441"/><stop offset="1" stop-color="#fff" stop-opacity="0"/></linearGradient><radialGradient cx="25.196" cy="19.589" r="14.232" xlink:href="#a" fx="25.196" fy="19.589" gradientTransform="matrix(1 0 0 .621 0 7.423)" gradientUnits="userSpaceOnUse"/><radialGradient id="e" cx="23.309" cy="16.573" r="23.313" xlink:href="#b" fx="23.309" fy="16.573" gradientTransform="matrix(1 0 0 .895 0 2.51)" gradientUnits="userSpaceOnUse"/><radialGradient cx="22.905" cy="20.095" r="10.834" xlink:href="#c" fx="22.905" fy="20.095" gradientTransform="matrix(1 0 0 .874 42.929 3.172)" gradientUnits="userSpaceOnUse"/><radialGradient id="f" cx="22.834" cy="16.908" r="10.834" xlink:href="#d" fx="22.834" fy="16.908" gradientTransform="matrix(1 0 0 .874 0 2.529)" gradientUnits="userSpaceOnUse"/></defs><g><path fill="url(#e)" d="M.78 16.3c8.88-5.78 16.96-9.93 25.65-13.25 7.3 5.77 13.38 11.4 20.98 19.74-10.04 5.5-19.55 13.72-29.06 21.98C12.78 34.46 7.12 24.4.78 16.3z"/><path fill="url(#f)" d="M12.07 17.64c4-2.7 8.1-5.17 12.48-7.02 3.44 3 6.5 6.34 9.2 10-4.9 2.6-8.87 5.8-12.94 8.94-2.45-4-5.22-8-8.73-11.92z"/><path fill="none" stroke="#ce5c00" stroke-width=".5" d="M7.2 12.4c7.38 7.15 13.33 16.1 18.76 25.68"/><path fill="none" stroke="#ce5c00" stroke-width=".5" d="M13.33 8.98c2.95 2.8 6.64 5.52 9.55 8.86 3.87 4.46 6.64 9.7 10.1 14.72"/><path fill="none" stroke="#ce5c00" stroke-width=".5" d="M18.9 6.32c3.25 2.4 6.7 5.03 10.26 8.83 3.48 3.7 7.07 8.6 9.93 12.75"/><path fill="none" stroke="#ce5c00" stroke-width=".5" d="M3.9 14.4c6.88 7.52 12.74 16.9 18.3 26.85"/><path fill="none" stroke="#ce5c00" stroke-width=".5" d="M10.34 10.77c8.03 6.56 13.9 15.23 19.16 24.5"/><path fill="none" stroke="#ce5c00" stroke-width=".5" d="M16.1 7.7c2.92 2 6.54 4.77 9.87 8.5 4.2 4.7 8.02 10.5 10.17 13.7"/><path fill="none" stroke="#ce5c00" stroke-width=".5" d="M21.5 5.35c8.87 5.95 14.94 13.25 20.43 20.82"/><path fill="none" stroke="#ce5c00" stroke-width=".5" d="M23.75 4.02C31.33 9.1 39.13 17.77 44.7 24.38"/><path fill="none" stroke="#ce5c00" stroke-width=".5" d="M2.26 18.2C11.24 11.9 21.1 6.92 28.33 4.62"/><path fill="none" stroke="#ce5c00" stroke-width=".5" d="M3.97 20.44C14.8 11.62 24.07 8.1 30.3 6.32"/><path fill="none" stroke="#ce5c00" stroke-width=".5" d="M5.48 22.9C17.88 12.12 27.98 9.17 32.33 8"/><path fill="none" stroke="#ce5c00" stroke-width=".5" d="M7.4 25.55c12-11.28 21.6-13.7 26.9-15.7"/><path fill="none" stroke="#ce5c00" stroke-width=".5" d="M9.2 28.77c3.2-3.02 10.05-8.97 15.13-11.64 3.95-2.1 10.42-4.44 12.24-5.08"/><path fill="none" stroke="#ce5c00" stroke-width=".5" d="M11.23 32.2c4.97-4.34 9.75-8.68 14.9-11.83 4.8-2.93 10-4.52 12.9-6.02"/><path fill="none" stroke="#ce5c00" stroke-width=".5" d="M13.45 36.04C17.97 32.12 23.13 27.4 28.3 24c4.04-2.67 10.45-5.83 13.47-7"/><path fill="none" stroke="#ce5c00" stroke-width=".5" d="M15.86 40.23c9.74-9.2 20.54-16.54 28.6-20.35"/><path fill="none" stroke="#612b00" d="M.78 16.3c8.88-5.78 16.96-9.93 25.65-13.25 7.3 5.77 13.38 11.4 20.98 19.74-10.04 5.5-19.55 13.72-29.06 21.98C12.78 34.46 7.12 24.4.78 16.3z"/><path fill="none" stroke="#c4a000" stroke-width=".5" d="M18.52 13.55c1.52 1.35 3.02 2.75 4.36 4.3 1.78 2.04 3.32 4.25 4.8 6.52"/><path fill="none" stroke="#c4a000" stroke-width=".5" d="M15.4 15.45c3.32 3.45 6.24 7.27 8.92 11.32"/><path fill="none" stroke="#c4a000" stroke-width=".5" d="M21.6 11.9c1.45 1.27 2.94 2.7 4.37 4.3 1.73 1.93 3.4 4.05 4.9 6.1"/><path fill="none" stroke="#c4a000" stroke-width=".5" d="M13.97 20c4.85-3.6 9.15-5.8 12.77-7.32"/><path fill="none" stroke="#c4a000" stroke-width=".5" d="M16.16 22.74c2.72-2.17 5.66-4.3 8.17-5.6 1.38-.74 3.06-1.5 4.74-2.2"/><path fill="none" stroke="#c4a000" stroke-width=".5" d="M18.48 25.95c2.5-2.07 5.03-3.98 7.65-5.58 1.75-1.06 3.55-1.95 5.26-2.72"/><path fill="none" stroke="#5f2a00" stroke-width="1.5" d="M12.07 17.64c4-2.7 8.1-5.17 12.48-7.02 3.44 3 6.5 6.34 9.2 10-4.9 2.6-8.87 5.8-12.94 8.94-2.45-4-5.22-8-8.73-11.92z" stroke-dasharray="3,1.5"/><path fill="none" stroke="#fff" stroke-width=".5" d="M1.67 16.6c8.54-5.57 16.3-9.56 24.67-12.75C33.36 9.4 39.2 14.8 46.52 22.83c-9.67 5.3-18.82 13.2-27.96 21.15-5.35-9.92-10.8-19.6-16.9-27.4z"/></g></svg>