<svg xmlns="http://www.w3.org/2000/svg" width="48" height="48" xmlns:xlink="http://www.w3.org/1999/xlink"><defs><linearGradient id="h"><stop offset="0" stop-color="#888a85"/><stop offset="1" stop-color="#888a85" stop-opacity="0"/></linearGradient><linearGradient id="e"><stop offset="0" stop-color="#f2f2f2"/><stop offset="1" stop-color="#c8c8c8"/></linearGradient><linearGradient id="g"><stop offset="0" stop-color="#8c8c8c"/><stop offset="1" stop-color="#181818"/></linearGradient><linearGradient id="f"><stop offset="0" stop-color="#ededed"/><stop offset=".812" stop-color="#9d9d9d"/><stop offset=".95" stop-color="#dedede"/><stop offset="1" stop-color="#ababab"/></linearGradient><linearGradient id="a"><stop offset="0" stop-color="#8c8c8c"/><stop offset=".873" stop-color="#181818"/><stop offset=".967" stop-color="#8c8c8c"/><stop offset="1" stop-color="#262626"/></linearGradient><linearGradient id="c"><stop offset="0" stop-color="#8c8c8c"/><stop offset=".747" stop-color="#181818"/><stop offset=".945" stop-color="#8c8c8c"/><stop offset="1" stop-color="#262626"/></linearGradient><linearGradient id="b"><stop offset="0" stop-color="#ededed"/><stop offset="1" stop-color="#929292"/></linearGradient><linearGradient id="d"><stop offset="0" stop-color="#8c8c8c"/><stop offset=".301" stop-color="#cecece"/><stop offset="1" stop-color="#434343"/></linearGradient><radialGradient cx="-305.066" cy="860.433" r="130.279" fx="-385.29" fy="863.649" xlink:href="#a" gradientUnits="userSpaceOnUse" gradientTransform="matrix(1 0 0 .354 0 555.893)"/><radialGradient cx="-311.632" cy="734.865" r="85.297" fx="-311.632" fy="734.865" xlink:href="#b" gradientUnits="userSpaceOnUse" gradientTransform="matrix(1 0 0 .297 0 524.697)"/><radialGradient cx="-311.632" cy="734.865" r="85.297" fx="-311.632" fy="734.865" xlink:href="#c" gradientUnits="userSpaceOnUse" gradientTransform="matrix(1 0 0 .297 0 524.697)"/><linearGradient x1="-356.21" x2="-249.023" y1="834.109" y2="834.109" xlink:href="#d" gradientUnits="userSpaceOnUse" gradientTransform="translate(860.634 77.612)"/><linearGradient x1="-356.21" x2="-249.023" y1="834.109" y2="834.109" xlink:href="#d" gradientUnits="userSpaceOnUse" gradientTransform="translate(857.777 106.408)"/><filter color-interpolation-filters="sRGB"><feGaussianBlur stdDeviation=".461"/></filter><radialGradient cx="-305.066" cy="860.433" r="130.279" fx="-305.066" fy="860.433" xlink:href="#e" gradientUnits="userSpaceOnUse" gradientTransform="matrix(1 0 0 .356 0 553.741)"/><filter width="1.289" height="1.433" x="-.145" y="-.216" color-interpolation-filters="sRGB"><feGaussianBlur stdDeviation="6.396"/></filter><filter id="k" width="1.186" height="1.597" x="-.093" y="-.299" color-interpolation-filters="sRGB"><feGaussianBlur stdDeviation="6.158"/></filter><filter color-interpolation-filters="sRGB"><feGaussianBlur stdDeviation="4.948"/></filter><radialGradient cx="195.895" cy="544.231" r="77.031" fx="195.895" fy="544.231" xlink:href="#f" gradientUnits="userSpaceOnUse" gradientTransform="matrix(.856 -.562 1.086 1.652 -557.67 -253.562)"/><radialGradient cx="54.145" cy="348.717" r="29.673" fx="50.399" fy="338.797" xlink:href="#g" gradientUnits="userSpaceOnUse" gradientTransform="matrix(1 0 0 1.885 0 -308.277)"/><radialGradient cx="467.729" cy="561.615" r="88.315" fx="467.729" fy="561.615" xlink:href="#f" gradientUnits="userSpaceOnUse" gradientTransform="matrix(.615 .54 -1.089 1.242 797.274 -398.452)"/><radialGradient cx="59.131" cy="346.241" r="29.673" fx="55.31" fy="332.559" xlink:href="#g" gradientUnits="userSpaceOnUse" gradientTransform="matrix(1 0 0 1.885 0 -308.277)"/><radialGradient cx="-311.632" cy="734.865" r="85.297" fx="-311.632" fy="734.865" xlink:href="#b" gradientUnits="userSpaceOnUse" gradientTransform="matrix(.989 0 0 .398 748.579 236.889)"/><radialGradient cx="-311.632" cy="734.865" r="85.297" fx="-311.632" fy="734.865" xlink:href="#c" gradientUnits="userSpaceOnUse" gradientTransform="matrix(.989 0 0 .398 748.579 236.889)"/><radialGradient cx="-305.066" cy="860.433" r="130.279" fx="-305.066" fy="860.433" xlink:href="#e" gradientUnits="userSpaceOnUse" gradientTransform="matrix(.997 0 0 .447 746.233 220.341)"/><radialGradient cx="-305.066" cy="860.433" r="130.279" fx="-385.29" fy="863.649" xlink:href="#a" gradientUnits="userSpaceOnUse" gradientTransform="matrix(.997 0 0 .444 746.233 223.04)"/><linearGradient x1="-356.21" x2="-249.023" y1="834.109" y2="834.109" xlink:href="#d" gradientUnits="userSpaceOnUse" gradientTransform="translate(744.637 -258.792)"/><linearGradient x1="-356.21" x2="-249.023" y1="834.109" y2="834.109" xlink:href="#d" gradientUnits="userSpaceOnUse" gradientTransform="translate(857.777 106.408)"/><radialGradient cx="59.813" cy="340.842" r="29.673" fx="55.991" fy="327.159" xlink:href="#g" gradientUnits="userSpaceOnUse" gradientTransform="matrix(.885 -.347 .461 .888 169.162 -234.406)"/><radialGradient cx="467.729" cy="561.615" r="88.315" fx="467.729" fy="561.615" xlink:href="#f" gradientUnits="userSpaceOnUse" gradientTransform="matrix(.682 .452 -.912 1.378 518.029 -783.674)"/><radialGradient cx="51.104" cy="353.039" r="29.673" fx="47.358" fy="343.119" xlink:href="#g" gradientUnits="userSpaceOnUse" gradientTransform="matrix(.359 .65 -.911 .603 358.662 -226.984)"/><radialGradient cx="195.895" cy="544.231" r="77.031" fx="195.895" fy="544.231" xlink:href="#f" gradientUnits="userSpaceOnUse" gradientTransform="matrix(.974 -.315 .608 1.881 -428.919 -777.5)"/><linearGradient x1="-356.21" x2="-249.023" y1="834.109" y2="834.109" xlink:href="#d" gradientUnits="userSpaceOnUse" gradientTransform="translate(857.777 106.408)"/><linearGradient x1="-356.21" x2="-249.023" y1="834.109" y2="834.109" xlink:href="#d" gradientUnits="userSpaceOnUse" gradientTransform="translate(754.637 -248.79)"/><radialGradient cx="-311.632" cy="734.865" r="85.297" fx="-311.632" fy="734.865" xlink:href="#b" gradientUnits="userSpaceOnUse" gradientTransform="matrix(.989 0 0 .398 758.579 246.891)"/><radialGradient cx="-311.632" cy="734.865" r="85.297" fx="-311.632" fy="734.865" xlink:href="#c" gradientUnits="userSpaceOnUse" gradientTransform="matrix(.989 0 0 .398 758.579 246.891)"/><radialGradient cx="59.813" cy="340.842" r="29.673" fx="55.991" fy="327.159" xlink:href="#g" gradientUnits="userSpaceOnUse" gradientTransform="matrix(.885 -.347 .461 .888 179.162 -224.403)"/><radialGradient cx="467.729" cy="561.615" r="88.315" fx="467.729" fy="561.615" xlink:href="#f" gradientUnits="userSpaceOnUse" gradientTransform="matrix(.682 .452 -.912 1.378 528.029 -773.671)"/><radialGradient cx="51.104" cy="353.039" r="29.673" fx="47.358" fy="343.119" xlink:href="#g" gradientUnits="userSpaceOnUse" gradientTransform="matrix(.359 .65 -.911 .603 368.662 -216.981)"/><radialGradient cx="195.895" cy="544.231" r="77.031" fx="195.895" fy="544.231" xlink:href="#f" gradientUnits="userSpaceOnUse" gradientTransform="matrix(.974 -.315 .608 1.881 -418.919 -767.498)"/><radialGradient cx="-303.304" cy="854.508" r="130.279" fx="-303.304" fy="854.508" xlink:href="#e" gradientUnits="userSpaceOnUse" gradientTransform="matrix(1.025 -.01 .004 .447 760.717 227.239)"/><radialGradient cx="-303.304" cy="854.508" r="130.279" fx="-383.528" fy="857.724" xlink:href="#a" gradientUnits="userSpaceOnUse" gradientTransform="matrix(1.025 -.01 .004 .447 760.717 227.238)"/><filter color-interpolation-filters="sRGB"><feGaussianBlur stdDeviation=".863"/></filter><radialGradient cx="-303.304" cy="854.508" r="130.279" fx="-303.304" fy="854.508" xlink:href="#e" gradientUnits="userSpaceOnUse" gradientTransform="matrix(1.025 -.01 .004 .447 760.717 227.239)"/><radialGradient cx="-303.304" cy="854.508" r="130.279" fx="-383.528" fy="857.724" xlink:href="#a" gradientUnits="userSpaceOnUse" gradientTransform="matrix(1.025 -.01 .004 .447 760.717 227.238)"/><linearGradient x1="-356.21" x2="-249.023" y1="834.109" y2="834.109" xlink:href="#d" gradientUnits="userSpaceOnUse" gradientTransform="translate(857.777 106.408)"/><radialGradient cx="195.895" cy="544.231" r="77.031" fx="195.895" fy="544.231" xlink:href="#f" gradientUnits="userSpaceOnUse" gradientTransform="matrix(.974 -.315 .608 1.881 -418.919 -767.498)"/><radialGradient cx="51.104" cy="353.039" r="29.673" fx="47.358" fy="343.119" xlink:href="#g" gradientUnits="userSpaceOnUse" gradientTransform="matrix(.359 .65 -.911 .603 368.662 -216.981)"/><radialGradient cx="467.729" cy="561.615" r="88.315" fx="467.729" fy="561.615" xlink:href="#f" gradientUnits="userSpaceOnUse" gradientTransform="matrix(.682 .452 -.912 1.378 528.029 -773.671)"/><radialGradient cx="59.813" cy="340.842" r="29.673" fx="55.991" fy="327.159" xlink:href="#g" gradientUnits="userSpaceOnUse" gradientTransform="matrix(.885 -.347 .461 .888 179.162 -224.403)"/><linearGradient x1="-356.21" x2="-249.023" y1="834.109" y2="834.109" xlink:href="#d" gradientUnits="userSpaceOnUse" gradientTransform="translate(754.637 -248.79)"/><radialGradient cx="-311.632" cy="734.865" r="85.297" fx="-311.632" fy="734.865" xlink:href="#b" gradientUnits="userSpaceOnUse" gradientTransform="matrix(.989 0 0 .398 758.579 246.891)"/><radialGradient cx="-311.632" cy="734.865" r="85.297" fx="-311.632" fy="734.865" xlink:href="#c" gradientUnits="userSpaceOnUse" gradientTransform="matrix(.989 0 0 .398 758.579 246.891)"/><radialGradient cx="-303.304" cy="854.508" r="130.279" fx="-303.304" fy="854.508" xlink:href="#e" gradientUnits="userSpaceOnUse" gradientTransform="matrix(1.025 -.01 .004 .447 760.717 227.239)"/><radialGradient cx="-303.304" cy="854.508" r="130.279" fx="-383.528" fy="857.724" xlink:href="#a" gradientUnits="userSpaceOnUse" gradientTransform="matrix(1.025 -.01 .004 .447 760.717 227.238)"/><linearGradient x1="-356.21" x2="-249.023" y1="834.109" y2="834.109" xlink:href="#d" gradientUnits="userSpaceOnUse" gradientTransform="translate(857.777 106.408)"/><radialGradient cx="195.895" cy="544.231" r="77.031" fx="195.895" fy="544.231" xlink:href="#f" gradientUnits="userSpaceOnUse" gradientTransform="matrix(.974 -.315 .608 1.881 -418.919 -767.498)"/><radialGradient cx="51.104" cy="353.039" r="29.673" fx="47.358" fy="343.119" xlink:href="#g" gradientUnits="userSpaceOnUse" gradientTransform="matrix(.359 .65 -.911 .603 368.662 -216.981)"/><radialGradient cx="467.729" cy="561.615" r="88.315" fx="467.729" fy="561.615" xlink:href="#f" gradientUnits="userSpaceOnUse" gradientTransform="matrix(.682 .452 -.912 1.378 528.029 -773.671)"/><radialGradient cx="59.813" cy="340.842" r="29.673" fx="55.991" fy="327.159" xlink:href="#g" gradientUnits="userSpaceOnUse" gradientTransform="matrix(.885 -.347 .461 .888 179.162 -224.403)"/><linearGradient x1="-356.21" x2="-249.023" y1="834.109" y2="834.109" xlink:href="#d" gradientUnits="userSpaceOnUse" gradientTransform="translate(754.637 -248.79)"/><radialGradient cx="-311.632" cy="734.865" r="85.297" fx="-311.632" fy="734.865" xlink:href="#b" gradientUnits="userSpaceOnUse" gradientTransform="matrix(.989 0 0 .398 758.579 246.891)"/><radialGradient cx="-311.632" cy="734.865" r="85.297" fx="-311.632" fy="734.865" xlink:href="#c" gradientUnits="userSpaceOnUse" gradientTransform="matrix(.989 0 0 .398 758.579 246.891)"/><radialGradient cx="-303.304" cy="854.508" r="130.279" fx="-303.304" fy="854.508" xlink:href="#e" gradientUnits="userSpaceOnUse" gradientTransform="matrix(1.025 -.01 .004 .447 760.717 227.239)"/><radialGradient cx="-303.304" cy="854.508" r="130.279" fx="-383.528" fy="857.724" xlink:href="#a" gradientUnits="userSpaceOnUse" gradientTransform="matrix(1.025 -.01 .004 .447 760.717 227.238)"/><linearGradient x1="-356.21" x2="-249.023" y1="834.109" y2="834.109" xlink:href="#d" gradientUnits="userSpaceOnUse" gradientTransform="translate(857.777 106.408)"/><radialGradient cx="195.895" cy="544.231" r="77.031" fx="195.895" fy="544.231" xlink:href="#f" gradientUnits="userSpaceOnUse" gradientTransform="matrix(.974 -.315 .608 1.881 -418.919 -767.498)"/><radialGradient cx="51.104" cy="353.039" r="29.673" fx="47.358" fy="343.119" xlink:href="#g" gradientUnits="userSpaceOnUse" gradientTransform="matrix(.359 .65 -.911 .603 368.662 -216.981)"/><radialGradient cx="467.729" cy="561.615" r="88.315" fx="467.729" fy="561.615" xlink:href="#f" gradientUnits="userSpaceOnUse" gradientTransform="matrix(.682 .452 -.912 1.378 528.029 -773.671)"/><radialGradient cx="59.813" cy="340.842" r="29.673" fx="55.991" fy="327.159" xlink:href="#g" gradientUnits="userSpaceOnUse" gradientTransform="matrix(.885 -.347 .461 .888 179.162 -224.403)"/><linearGradient x1="-356.21" x2="-249.023" y1="834.109" y2="834.109" xlink:href="#d" gradientUnits="userSpaceOnUse" gradientTransform="translate(754.637 -248.79)"/><radialGradient cx="-311.632" cy="734.865" r="85.297" fx="-311.632" fy="734.865" xlink:href="#b" gradientUnits="userSpaceOnUse" gradientTransform="matrix(.989 0 0 .398 758.579 246.891)"/><radialGradient cx="-311.632" cy="734.865" r="85.297" fx="-311.632" fy="734.865" xlink:href="#c" gradientUnits="userSpaceOnUse" gradientTransform="matrix(.989 0 0 .398 758.579 246.891)"/><radialGradient cx="-311.632" cy="734.865" r="85.297" fx="-311.632" fy="734.865" xlink:href="#b" gradientUnits="userSpaceOnUse" gradientTransform="matrix(.989 0 0 .398 737.233 250.448)"/><radialGradient cx="-311.632" cy="734.865" r="85.297" fx="-311.632" fy="734.865" xlink:href="#c" gradientUnits="userSpaceOnUse" gradientTransform="matrix(.989 0 0 .398 737.233 250.448)"/><radialGradient cx="59.813" cy="340.842" r="29.673" fx="55.991" fy="327.159" xlink:href="#g" gradientUnits="userSpaceOnUse" gradientTransform="matrix(.885 -.347 .461 .888 179.162 -224.403)"/><radialGradient cx="467.729" cy="561.615" r="88.315" fx="467.729" fy="561.615" xlink:href="#f" gradientUnits="userSpaceOnUse" gradientTransform="matrix(.682 .452 -.912 1.378 528.029 -773.671)"/><radialGradient cx="51.104" cy="353.039" r="29.673" fx="47.358" fy="343.119" xlink:href="#g" gradientUnits="userSpaceOnUse" gradientTransform="matrix(.359 .65 -.911 .603 368.662 -216.981)"/><radialGradient cx="195.895" cy="544.231" r="77.031" fx="195.895" fy="544.231" xlink:href="#f" gradientUnits="userSpaceOnUse" gradientTransform="matrix(.974 -.315 .608 1.881 -418.919 -767.498)"/><radialGradient cx="-303.304" cy="854.508" r="130.279" fx="-303.304" fy="854.508" xlink:href="#e" gradientUnits="userSpaceOnUse" gradientTransform="matrix(1.025 -.01 .004 .447 739.372 230.796)"/><radialGradient cx="-303.304" cy="854.508" r="130.279" fx="-383.528" fy="857.724" xlink:href="#a" gradientUnits="userSpaceOnUse" gradientTransform="matrix(1.025 -.01 .004 .447 739.372 230.795)"/><linearGradient id="o" x1="-356.21" x2="-249.023" y1="834.109" y2="834.109" xlink:href="#d" gradientUnits="userSpaceOnUse" gradientTransform="translate(733.292 -245.233)"/><linearGradient x1="-356.21" x2="-249.023" y1="834.109" y2="834.109" xlink:href="#d" gradientUnits="userSpaceOnUse" gradientTransform="translate(857.777 106.408)"/><radialGradient id="n" cx="467.729" cy="561.615" r="88.315" xlink:href="#f" gradientUnits="userSpaceOnUse" gradientTransform="matrix(.061 .04 -.081 .123 38.174 -69.822)" fx="467.729" fy="561.615"/><radialGradient id="m" cx="51.104" cy="353.039" r="29.673" xlink:href="#g" gradientUnits="userSpaceOnUse" gradientTransform="matrix(.044 .081 -.113 .075 42.642 -28.66)" fx="47.358" fy="343.119"/><radialGradient id="i" cx="-303.304" cy="854.508" r="130.279" xlink:href="#e" gradientUnits="userSpaceOnUse" gradientTransform="matrix(.088 -.001 0 .039 63.226 9.446)" fx="-303.304" fy="854.508"/><radialGradient id="j" cx="-303.304" cy="854.508" r="130.279" xlink:href="#a" gradientUnits="userSpaceOnUse" gradientTransform="matrix(.088 -.001 0 .039 63.226 9.446)" fx="-383.528" fy="857.724"/><radialGradient id="l" cx="195.895" cy="544.231" r="77.031" xlink:href="#f" gradientUnits="userSpaceOnUse" gradientTransform="matrix(.087 -.028 .054 .167 -37.624 -68.724)" fx="195.895" fy="544.231"/><radialGradient cx="51.104" cy="353.039" r="29.673" xlink:href="#g" gradientUnits="userSpaceOnUse" gradientTransform="matrix(-.054 .071 .097 .088 -5.65 -29.706)" fx="47.358" fy="343.119"/><linearGradient id="p" x1="4.41" x2="6.192" y1="2.331" y2="5.321" xlink:href="#h" gradientUnits="userSpaceOnUse" gradientTransform="matrix(1.032 0 0 1.032 -.025 -.985)"/><radialGradient id="q" cx="51.104" cy="353.039" r="29.673" xlink:href="#g" gradientUnits="userSpaceOnUse" gradientTransform="matrix(-.058 .072 .098 .093 -5.072 -32.985)" fx="47.358" fy="343.119"/><linearGradient id="r" x1="7.357" x2="3.514" y1="2.449" y2="5.589" xlink:href="#h" gradientUnits="userSpaceOnUse" gradientTransform="matrix(-1.016 -.18 -.18 1.016 32.113 1.707)"/></defs><path fill="url(#i)" stroke="url(#j)" stroke-width=".863" d="M47.54 42.92a10.95 4.7 0 0 1-21.9 0 10.95 4.7 0 1 1 21.9 0z" stroke-linecap="round" stroke-linejoin="round"/><path fill="#666" fill-opacity=".591" d="M-232.34 747.8a79.3 24.75 0 1 1-158.6 0 79.3 24.75 0 1 1 158.6 0z" transform="matrix(.095 0 0 .115 66.428 -42.901)" filter="url(#k)"/><path fill="none" stroke="url(#l)" stroke-width="2.5" d="M4.04 4.3C-1.8 9.56 2.26 22.7 9 28.23" stroke-linecap="round"/><path fill="url(#m)" stroke="#2e3436" d="M7.23 4.78C5.4 6 3.26 6.16 2.76 5.08 2.26 4 3.5 1.9 5.33.68c2-1.04 5.04 2.04 1.9 4.1z"/><path fill="none" stroke="url(#n)" stroke-width="2.5" d="M27.45 6.4c5.43 6.8-1.66 18.85-10.22 22.55" stroke-linecap="round"/><path stroke="#eeeeec" d="M37.4 24.25c-1.35.1-2.68.5-3.87 1.13-2.38 1.26-4.46 3.27-6.44 5.34-1.98 2.07-3.85 4.2-5.54 5.72-1.7 1.5-3.12 2.24-4.1 2.15-1.57-.15-2.44-.86-3.1-2.3-.5-1.1-.75-2.67-.64-4.52 1.38-.1 2.83-.62 4.34-1.6a1.5 1.5 0 1 0-1.62-2.5c-1.6 1.05-2.74 1.22-3.7 1.07-.94-.15-1.85-.73-2.83-1.63a1.5 1.5 0 0 0-1.24-.37 1.5 1.5 0 0 0-.8 2.63c.85.76 1.8 1.45 2.9 1.9-.2 2.34.1 4.5.9 6.28 1 2.2 3 3.8 5.56 4.03 2.4.2 4.43-1.2 6.34-2.9 1.92-1.72 3.78-3.9 5.7-5.9 1.9-1.98 3.84-3.8 5.68-4.77 1.83-.97 3.4-1.2 5.25-.28 1.95.97 2.34 1.87 2.36 3 .02 1.13-.63 2.7-1.65 4.2-2.04 3-5.3 5.64-5.3 5.64l1.87 2.34s3.52-2.78 5.94-6.3c1.2-1.78 2.2-3.78 2.16-5.95-.03-2.18-1.38-4.33-4.03-5.64-1.37-.68-2.77-.9-4.12-.8z" style="text-indent:0;text-align:start;line-height:normal;text-transform:none;block-progression:tb;-inkscape-font-specification:Sans" color="#000" overflow="visible" enable-background="accumulate" font-family="Sans"/><path fill="none" stroke="#fff" stroke-opacity=".495" stroke-width=".543" d="M42.32 36.8a5.88 1.76 0 1 1-11.76 0 5.88 1.76 0 1 1 11.76 0z" transform="matrix(1.695 0 0 2.001 -25.063 -30.779)" color="#000" overflow="visible" enable-background="accumulate"/><path fill="url(#o)" stroke="#555753" stroke-width="11.591" d="M377.58 553.4v59.9c-1.14 11.93 30.53 17.04 53.27 17.43 29.3 0 52.92-11.14 52.92-17-.34-19.97-.16-40.26-.16-60.34z" transform="matrix(.086 0 0 .086 -.563 -10.466)"/><path fill="#888a85" stroke="#2e3436" stroke-width="1.294" d="M43.23 36.8a6.76 2.43 0 1 1-13.53 0 6.76 2.43 0 1 1 13.53 0z" stroke-linecap="round" stroke-linejoin="round"/><path fill="none" stroke="#eeeeec" d="M42.32 36.8a5.88 1.76 0 1 1-11.76 0 5.88 1.76 0 1 1 11.76 0z" transform="matrix(.956 0 0 .873 1.553 4.59)" color="#000" overflow="visible" enable-background="accumulate"/><path fill="none" stroke="url(#p)" stroke-width=".75" d="M6.82 4.35c-1.38.92-2.96 1.03-3.33.23-.38-.8.53-2.36 1.9-3.28C6.9.54 9.16 2.83 6.82 4.35z"/><path fill="url(#q)" stroke="#2e3436" d="M23.97 6.12c1.6 1.53 3.66 2.05 4.34 1.07.7-.98-.15-3.26-1.74-4.8-1.8-1.36-5.33 1.15-2.6 3.72z"/><path fill="none" stroke="url(#r)" stroke-width=".75" d="M24.44 5.77c1.2 1.14 2.74 1.53 3.24.8.5-.72-.12-2.4-1.3-3.56-1.35-1-3.98.86-1.94 2.77z"/></svg>