<svg xmlns="http://www.w3.org/2000/svg" width="48" height="48"><g><path fill="#939da6" stroke="#939da6" stroke-width="4" d="M45.04 32.54h.92v.92h-.92z"/><path fill="#939da6" stroke="#939da6" stroke-width="4" d="M2 32.54h.93v.92H2z"/><path fill="none" stroke="#67727d" stroke-width="3" d="M2.47 33c.06-7 4-15.5 11.36-14.92C29.5 19.33 20.15 38.3 37.2 40.56c6.85.9 8.44-3.38 8.3-7.56" stroke-dasharray="3,3"/><path fill="none" stroke="#000" stroke-width="1.00368" d="M2.47 33L14 18.35l23.4 22.07L45.5 33"/><path stroke="#000" stroke-width="2" d="M2 32.53h.94v.95H2z"/><path stroke="#000" stroke-width="2" d="M45.03 32.53h.94v.95h-.94z"/><path stroke="#000" stroke-width="2" d="M36.8 39.95h.93v.94h-.94z"/><path stroke="#000" stroke-width="2" d="M13.52 17.88h.94v.95h-.94z"/></g></svg>