<svg xmlns="http://www.w3.org/2000/svg" width="48" height="48" xmlns:xlink="http://www.w3.org/1999/xlink"><defs><linearGradient id="i"><stop offset="0" stop-color="#fedba7"/><stop offset="1" stop-color="#fdbf64"/></linearGradient><linearGradient id="h"><stop offset="0" stop-color="#ffa54c"/><stop offset="1" stop-color="#f57900"/></linearGradient><radialGradient id="g" cx="165.061" cy="23.333" r="7.285" gradientUnits="userSpaceOnUse" gradientTransform="matrix(1 0 0 1.01 0 -.16)"><stop offset="0" stop-color="#EF3535"/><stop offset="1" stop-color="#a40000" stop-opacity="0"/></radialGradient><linearGradient id="f"><stop offset="0" stop-color="#9a0c00"/><stop offset="1" stop-color="#9a0c00" stop-opacity="0"/></linearGradient><linearGradient id="e"><stop offset="0" stop-color="#df2a2a"/><stop offset="1" stop-color="#df2a2a" stop-opacity="0"/></linearGradient><linearGradient id="d" x1="68.175" x2="74.587" y1="21.425" y2="27.837" gradientUnits="userSpaceOnUse"><stop offset="0" stop-color="#BABDB6"/><stop offset="1" stop-color="#EEEEEC"/></linearGradient><radialGradient id="c" cx="165.061" cy="23.333" r="7.285" gradientTransform="matrix(1 0 0 1.01 0 -.16)" gradientUnits="userSpaceOnUse"><stop offset="0" stop-color="#EF3535"/><stop offset="0" stop-color="#c91a1a"/><stop offset="1" stop-color="#ff4c4c"/></radialGradient><linearGradient id="b"><stop offset="0" stop-color="#e2e2e2"/><stop offset="1" stop-color="#d8d8d8"/></linearGradient><linearGradient id="a" x1="292.972" x2="296.94" y1="4.759" y2="10.711" gradientUnits="userSpaceOnUse"><stop offset="0" stop-color="#EEEEEC"/><stop offset="1" stop-color="#fff"/></linearGradient><linearGradient id="l" x1="294.032" x2="296.94" y1="6.311" y2="10.711" xlink:href="#a" gradientUnits="userSpaceOnUse" gradientTransform="matrix(0 -4.128 -4.137 0 66.182 1233.171)"/><linearGradient id="m" x1="20.288" x2="24.326" y1="6.46" y2="23.943" xlink:href="#b" gradientUnits="userSpaceOnUse" gradientTransform="matrix(0 1 -1 0 54.277 -11.295)"/><linearGradient id="n" x1="294.595" x2="297.185" y1="12.188" y2="13.34" xlink:href="#c" gradientUnits="userSpaceOnUse"/><linearGradient id="o" x1="296.486" x2="296.529" y1="15.507" y2="9.877" xlink:href="#c" gradientUnits="userSpaceOnUse" gradientTransform="matrix(0 3.638 -3.47 0 70.284 -1067.41)"/><linearGradient id="p" x1="292.972" x2="296.94" y1="4.759" y2="10.711" xlink:href="#a" gradientUnits="userSpaceOnUse" gradientTransform="matrix(0 4.053 -4.137 0 66.182 -1186.829)"/><linearGradient id="q" x1="20.288" x2="24.326" y1="6.46" y2="23.943" xlink:href="#b" gradientUnits="userSpaceOnUse" gradientTransform="matrix(0 1 -1 0 54.277 -11.295)"/><linearGradient id="r" x1="22.225" x2="24.19" y1="23.843" y2="22.861" xlink:href="#d" gradientUnits="userSpaceOnUse"/><linearGradient id="s" x1="7.185" x2="25.152" y1="31.057" y2="50.775" xlink:href="#c" gradientUnits="userSpaceOnUse" gradientTransform="matrix(0 1.162 -.992 0 54.011 -13.725)"/><linearGradient id="t" x1="13.825" x2="7.67" y1="40.069" y2="2.326" xlink:href="#c" gradientUnits="userSpaceOnUse" gradientTransform="matrix(0 1.162 -.992 0 54.213 -13.962)"/><radialGradient id="u" cx="34.376" cy="37.5" r="8.389" xlink:href="#c" gradientUnits="userSpaceOnUse" gradientTransform="matrix(0 1 -1.06 0 56.576 -11.295)" fx="34.376" fy="37.5"/><linearGradient id="v" x1="298.479" x2="298.869" y1="13.6" y2="13.803" xlink:href="#e" gradientUnits="userSpaceOnUse"/><linearGradient id="w" x1="298.479" x2="298.869" y1="13.6" y2="13.803" xlink:href="#f" gradientUnits="userSpaceOnUse"/><linearGradient id="x" x1="296.762" x2="297.798" y1="12.012" y2="10.947" xlink:href="#c" gradientUnits="userSpaceOnUse" gradientTransform="matrix(0 3.624 -3.624 0 71.124 -1064.473)"/><linearGradient id="y" x1="39.62" x2="-3.533" y1="44.541" y2="-11.889" xlink:href="#g" gradientUnits="userSpaceOnUse" gradientTransform="matrix(0 1.162 -.992 0 54.213 -16.407)"/><linearGradient x1="14.929" x2="35.357" y1="17.929" y2="27.929" xlink:href="#h" gradientUnits="userSpaceOnUse" gradientTransform="matrix(.864 0 0 .863 3.346 6.117)"/><linearGradient x1="2.131" x2="46.011" y1="26.143" y2="26.143" xlink:href="#i" gradientUnits="userSpaceOnUse" gradientTransform="matrix(.967 0 0 .966 .802 .898)"/><linearGradient id="j" x1="14.929" x2="35.357" y1="17.929" y2="27.929" xlink:href="#h" gradientUnits="userSpaceOnUse" gradientTransform="matrix(.806 0 0 .805 6.876 10.97)"/><linearGradient id="k" x1="2.131" x2="46.011" y1="26.143" y2="26.143" xlink:href="#i" gradientUnits="userSpaceOnUse" gradientTransform="matrix(.903 0 0 .901 4.501 6.099)"/></defs><g><path fill="url(#j)" fill-rule="evenodd" stroke="url(#k)" d="M6.88 29.5l20.15-8.06 18.55 8.05-18.55 8.38-20.15-8.4z" stroke-linejoin="round"/><path fill="none" stroke="#8b3b00" d="M32.02 29.12h14.43" stroke-dasharray="1.00000005, 1.00000005"/><path fill="none" stroke="#000" d="M5.06 29.46l22.04-9.02 20.28 9.02-20.28 9.4-22.04-9.4z" stroke-linejoin="round"/><path fill="none" stroke="#000" d="M5.2 29.12h16.55"/><g><path fill="url(#l)" stroke="#888a85" stroke-width="1.326" d="M36.9 21.2c-3.22-1.9-7.13-4.7-10.35-6.6-.15-.74-.23-1.5-.24-2.25-.03-1.58.2-3.2.74-4.72 4.28 2.53 13.86 8.4 18.13 10.94-2.88 1-6.8 2.32-8.27 2.64z" stroke-linecap="round" stroke-linejoin="round" transform="matrix(.686 .312 -.312 .686 6.764 2.537)"/><path fill="url(#m)" d="M41.86 18.02c-3.37-2.04-9.85-5.9-13.2-7.94-.26-.06-1.02-.8-.95 0-.2 1.1-.34 2.26-.05 3.37 3.1 1.88 6.6 4.1 9.7 5.96 1.33-.3 3.07-1.1 4.5-1.38z" transform="matrix(.686 .312 -.312 .686 6.764 2.537)"/><path fill="url(#n)" stroke="#9a0c00" stroke-width=".373" d="M297.04 12.3l-.64 1.08-1.27 1.34-.4-1.05 1.02-1.7 1.3.33z" transform="matrix(-1.135 2.496 -2.38 -1.083 388.011 -707.778)" stroke-linecap="round" stroke-linejoin="round"/><path fill="url(#o)" d="M27.3 9.1c-.48-1.2-2.03-1.2-2.96-1.9-.7-.36-1.34-.96-2.1-1.2-.5-.02-1.35.43-.9 1.02 1.15 1.38 2.54 2.56 4.13 3.44.5.23.9.8 1.4.87.57-.54.53-1.5.44-2.22z" transform="matrix(.686 .312 -.312 .686 6.764 2.537)"/><path fill="url(#p)" stroke="#888a85" stroke-width="1.326" d="M52.65 1.67c-.07-.2-.14-.4-.22-.62-2.2-.64-4.4-3.6-6.6-2.47-6.38 3.75-12.85 7.48-19.28 11.2-.15.74-.23 1.48-.24 2.22-.03 1.56.2 3.16.74 4.64 8.55-4.96 17.12-9.92 25.6-14.97z" stroke-linecap="round" stroke-linejoin="round" transform="matrix(.686 .312 -.312 .686 6.764 2.537)"/><path fill="url(#q)" d="M50.03 1.43c-1.13-.4-1.96-1.45-3.16-1.72C40.47 3.43 34.1 7.2 27.7 10.9c-.24 1.2-.08 2.42.17 3.6.74-.2 1.33-.74 2.03-1.03 6.57-3.9 13.13-7.82 19.72-11.68.15-.02.48-.22.4-.37z" transform="matrix(.686 .312 -.312 .686 6.764 2.537)"/><path fill="url(#r)" d="M24.2 23.84a.98.98 0 1 1-1.97 0 .98.98 0 1 1 1.96 0z" transform="matrix(-.306 .672 -.686 -.312 47.305 11.883)" color="#000" overflow="visible"/><path fill="url(#s)" stroke="#a40000" stroke-width="1.326" d="M24 6.4c-1.74 3.24-6.62 3.5-10.92.58-4.3-2.9-6.4-7.9-4.68-11.14 1.73-3.23 6.6-3.5 10.9-.58 4.3 2.92 6.4 7.9 4.7 11.15zm-2.75-1.85C22 3.1 20.7.05 17.8-1.92c-2.88-1.96-5.9-1.82-6.66-.38-.77 1.43.54 4.5 3.43 6.46 2.9 1.97 5.9 1.83 6.68.4z" transform="matrix(.686 .312 -.312 .686 6.764 2.537)"/><path fill="url(#t)" d="M23.7 3.03c-.4-1.92-1.46-3.63-2.5-5.05-.68-.75-1.44-1.24-2.24-1.9C16.6-5.65 13.5-6.37 10.9-5c-1.46.6-2.06 2.64-1.7 4.36.26 1.46 1.17 2.68 1.8 3.82.8.92 1.63 1.55 2.6 2.33 2.47 1.82 5.75 2.8 8.5 1.3 1.15-.72 1.76-2.23 1.6-3.77zm-.97.47C22.48 5.52 20.7 6.86 19 6.63c-2.28.02-4.43-1.15-6.22-2.73-1.4-1.4-2.73-3.35-2.64-5.66 0-1.36.9-2.43 1.96-2.82 2.53-.6 5.27.2 7.34 1.97 1.52 1.35 2.9 3.18 3.24 5.46.02.2.04.43.05.64z" transform="matrix(.686 .312 -.312 .686 6.764 2.537)"/><path fill="url(#u)" stroke="#a40000" stroke-width="1.326" d="M24 19.04c-1.74-3.24-6.62-3.5-10.92-.58s-6.4 7.9-4.68 11.14c1.73 3.24 6.6 3.5 10.9.58 4.3-2.92 6.4-7.9 4.7-11.14zm-2.75 1.85c.76 1.43-.54 4.5-3.44 6.46-2.88 1.96-5.9 1.82-6.66.4-.77-1.45.54-4.52 3.43-6.48 2.9-1.97 5.9-1.82 6.68-.4z" transform="matrix(.686 .312 -.312 .686 6.764 2.537)"/><path fill="url(#v)" stroke="url(#w)" stroke-width=".366" d="M296.96 12.3l.64 1.08 1.27 1.34.4-1.05-1.02-1.7-1.3.33z" transform="matrix(-1.131 2.486 -2.486 -1.131 387.671 -705.501)" stroke-linecap="round" stroke-linejoin="round"/><path fill="url(#x)" d="M26.34 14.86c-.2-.43-.2-1.02-.5-1.34-1.4.95-2.92 1.9-4.2 2.85-.77.67-1.5 1.35-2.18 2.12 1.4.72 3.07.12 4.2-.83.9-.6 2.1-.83 2.6-1.84.1-.3.16-.65.08-.97z" transform="matrix(.686 .312 -.312 .686 6.764 2.537)"/><path fill="url(#y)" d="M23.83 21c-.23-1.53-1.1-2.9-2.4-3.26-2.4-1.13-5.1-.2-7.22 1.28-1.33 1.1-2.92 1.94-3.76 3.64-.92 1.48-1.9 3.35-1.3 5.22.43 1.52 1.68 2.37 2.97 2.68 2.32.6 4.7-.3 6.65-1.7.9-.66 1.88-1.34 2.7-2.12.9-1.2 1.64-2.64 2.22-4.1.1-.52.24-1.1.16-1.65zm-1.2.42c.05 1.76-.75 3.24-1.78 4.38-.97 1.03-1.8 2.02-3 2.66-1.82 1.08-3.98 1.4-5.96.84-1.34-.53-2-2.23-1.63-3.8.23-1.97 1.67-3.2 2.8-4.52 1.44-1.5 3.5-2.44 5.5-2.5 1 0 2.17-.03 3.02.7.54.4 1.05 1.37 1.02 2.24z" transform="matrix(.686 .312 -.312 .686 6.764 2.537)"/></g><path fill="none" stroke="#000" d="M20.75 29.12h11.4"/></g></svg>