<svg xmlns="http://www.w3.org/2000/svg" width="48" height="48" xmlns:xlink="http://www.w3.org/1999/xlink"><defs><linearGradient id="a"><stop offset="0" stop-color="#9a7e00"/><stop offset="1" stop-color="#643e00"/></linearGradient><linearGradient x1="6.509" x2="10.484" y1="32.061" y2="36.162" xlink:href="#a" gradientUnits="userSpaceOnUse"/><linearGradient id="b"><stop offset="0" stop-color="#fce94f"/><stop offset="1" stop-color="#fef7bc"/></linearGradient><linearGradient id="d"><stop offset="0" stop-color="#fedba7"/><stop offset="1" stop-color="#fdbf64"/></linearGradient><linearGradient id="c"><stop offset="0" stop-color="#ffa54c"/><stop offset="1" stop-color="#f57900"/></linearGradient><linearGradient id="e" x1="21.336" x2="11.882" y1="36.222" y2="53.077" xlink:href="#b" gradientUnits="userSpaceOnUse" gradientTransform="matrix(-.802 0 0 1.363 37.553 -35.11)"/><linearGradient id="f" x1="11.029" x2="19.514" y1="19.582" y2="22.532" xlink:href="#c" gradientUnits="userSpaceOnUse" gradientTransform="matrix(-.703 0 0 1.294 26.747 8.982)"/><linearGradient id="g" x1="3.411" x2="46.011" y1="26.143" y2="26.143" xlink:href="#d" gradientUnits="userSpaceOnUse" gradientTransform="matrix(-.787 0 0 1.449 28.818 1.152)"/><linearGradient id="h" x1="12.724" x2="21.251" y1="18.539" y2="21.926" xlink:href="#c" gradientUnits="userSpaceOnUse" gradientTransform="matrix(-.722 0 0 1.329 46.077 -10.797)"/><linearGradient id="i" x1="3.707" x2="46.011" y1="26.143" y2="26.143" xlink:href="#d" gradientUnits="userSpaceOnUse" gradientTransform="matrix(-.808 0 0 1.488 48.204 -18.838)"/><linearGradient x1="6.509" x2="10.484" y1="32.061" y2="36.162" xlink:href="#a" gradientUnits="userSpaceOnUse"/><linearGradient x1="6.509" x2="10.484" y1="32.061" y2="36.162" xlink:href="#a" gradientUnits="userSpaceOnUse"/><linearGradient x1="6.509" x2="10.484" y1="32.061" y2="36.162" xlink:href="#a" gradientUnits="userSpaceOnUse"/><linearGradient x1="6.509" x2="10.484" y1="32.061" y2="36.162" xlink:href="#a" gradientUnits="userSpaceOnUse"/><linearGradient x1="6.509" x2="10.484" y1="32.061" y2="36.162" xlink:href="#a" gradientUnits="userSpaceOnUse"/></defs><g><path fill="url(#e)" fill-rule="evenodd" stroke="#8b3b00" d="M38.3 26.57l-17.5-13.8-11.55 12.3L27.6 38.43l10.7-11.87z" stroke-linejoin="round"/><path fill="url(#f)" fill-rule="evenodd" stroke="url(#g)" d="M26.3 38.75L8.97 26.03 2.55 31.5l16.57 13.03 7.18-5.78z" stroke-linejoin="round"/><path fill="none" stroke="#8b3b00" d="M18.23 31.22l-8.33 7.2"/><path fill="none" stroke="#000" d="M27.93 38.6L9.26 24.52l-7.9 7.22L18.97 45.8l8.95-7.2z" stroke-linejoin="round"/><path fill="url(#h)" fill-rule="evenodd" stroke="url(#i)" d="M45.94 19.77L28 6.57l-6.53 5.34 17.17 13.4 7.3-5.53z" stroke-linejoin="round"/><path fill="none" stroke="#8b3b00" d="M37.25 12.13l-8.33 7.22"/><path fill="none" stroke="#000" d="M46.95 19.52L28.28 5.42l-7.9 7.23L38 26.7l8.95-7.18z" stroke-linejoin="round"/></g></svg>