<svg xmlns="http://www.w3.org/2000/svg" width="48" height="48" xmlns:xlink="http://www.w3.org/1999/xlink"><defs><radialGradient id="O" cx="-36.893" cy="141.342" r="6.838" gradientUnits="userSpaceOnUse" gradientTransform="matrix(0 1 1 0 -101.603 66.342)" fy="141.342" fx="-36.893"><stop offset="0" stop-color="#fff"/><stop offset=".685" stop-color="#2E659E"/><stop offset="1" stop-color="#1D3E63"/></radialGradient><radialGradient id="N" cx="79.228" cy="142.313" r="3.879" gradientUnits="userSpaceOnUse" gradientTransform="matrix(0 -1 1 0 -101.603 109.973)" fy="142.313" fx="79.228"><stop offset="0" stop-color="#fff"/><stop offset=".09" stop-color="#DBE8F2"/><stop offset=".248" stop-color="#A2C3DE"/><stop offset=".395" stop-color="#75A6CD"/><stop offset=".525" stop-color="#5591C2"/><stop offset=".634" stop-color="#4185BB"/><stop offset=".708" stop-color="#3A80B8"/><stop offset="1" stop-color="#244A87"/></radialGradient><radialGradient id="K" cx="-64.987" cy="123.7" r="6.838" gradientUnits="userSpaceOnUse" gradientTransform="matrix(0 1 1 0 -101.603 66.342)" fy="123.7" fx="-64.987"><stop offset="0" stop-color="#fff"/><stop offset=".685" stop-color="#2E659E"/><stop offset="1" stop-color="#1D3E63"/></radialGradient><radialGradient id="J" cx="107.321" cy="124.671" r="3.879" gradientUnits="userSpaceOnUse" gradientTransform="matrix(0 -1 1 0 -101.603 109.973)" fy="124.671" fx="107.321"><stop offset="0" stop-color="#fff"/><stop offset=".09" stop-color="#DBE8F2"/><stop offset=".248" stop-color="#A2C3DE"/><stop offset=".395" stop-color="#75A6CD"/><stop offset=".525" stop-color="#5591C2"/><stop offset=".634" stop-color="#4185BB"/><stop offset=".708" stop-color="#3A80B8"/><stop offset="1" stop-color="#244A87"/></radialGradient><linearGradient id="G" x1="-22.755" x2="-10.123" y1="-163.853" y2="-161.865" gradientTransform="matrix(.984 -.18 .18 .984 67.777 167.547)" gradientUnits="userSpaceOnUse"><stop offset="0" stop-color="#fff"/><stop offset="1" stop-color="#B7D0DC"/></linearGradient><linearGradient id="F" x1="310.325" x2="304.558" y1="53.231" y2="40.416" gradientTransform="matrix(-.59 -.764 .764 -.59 164.048 293.129)" gradientUnits="userSpaceOnUse"><stop offset="0" stop-color="#A0C6DE"/><stop offset="1" stop-color="#fff"/></linearGradient><linearGradient id="E" x1="26.735" x2="43.514" y1="29.662" y2="32.304" gradientUnits="userSpaceOnUse"><stop offset="0" stop-color="#fff"/><stop offset="1" stop-color="#B7D0DC"/></linearGradient><linearGradient id="D" x1="-188.613" x2="-194.38" y1="-97.87" y2="-110.685" gradientTransform="matrix(.448 -.725 .725 .448 192.533 -51.795)" gradientUnits="userSpaceOnUse"><stop offset="0" stop-color="#A0C6DE"/><stop offset="1" stop-color="#fff"/></linearGradient><linearGradient id="a" x1="-61.587" x2="-48.956" y1="32.016" y2="34.004" gradientTransform="matrix(.969 .247 -.247 .969 95.855 .48)" gradientUnits="userSpaceOnUse"><stop offset="0" stop-color="#fff"/><stop offset="1" stop-color="#B7D0DC"/></linearGradient><linearGradient x1="-61.587" x2="-48.956" y1="32.016" y2="34.004" xlink:href="#a" gradientUnits="userSpaceOnUse" gradientTransform="matrix(.969 .247 -.247 .969 95.855 .48)"/><radialGradient id="b" cx="-55.248" cy="138.608" r="6.838" gradientUnits="userSpaceOnUse" gradientTransform="matrix(0 1 1 0 -101.603 66.342)" fy="138.608" fx="-55.248"><stop offset="0" stop-color="#fff"/><stop offset=".685" stop-color="#2E659E"/><stop offset="1" stop-color="#1D3E63"/></radialGradient><radialGradient cx="-55.248" cy="138.608" r="6.838" xlink:href="#b" gradientUnits="userSpaceOnUse" gradientTransform="matrix(0 1 1 0 -101.603 66.342)" fx="-55.248" fy="138.608"/><radialGradient id="c" cx="97.582" cy="139.579" r="3.879" gradientUnits="userSpaceOnUse" gradientTransform="matrix(0 -1 1 0 -101.603 109.973)" fy="139.579" fx="97.582"><stop offset="0" stop-color="#fff"/><stop offset=".09" stop-color="#DBE8F2"/><stop offset=".248" stop-color="#A2C3DE"/><stop offset=".395" stop-color="#75A6CD"/><stop offset=".525" stop-color="#5591C2"/><stop offset=".634" stop-color="#4185BB"/><stop offset=".708" stop-color="#3A80B8"/><stop offset="1" stop-color="#244A87"/></radialGradient><radialGradient cx="97.582" cy="139.579" r="3.879" xlink:href="#c" gradientUnits="userSpaceOnUse" gradientTransform="matrix(0 -1 1 0 -101.603 109.973)" fx="97.582" fy="139.579"/><linearGradient id="d" x1="153.899" x2="148.133" y1="-71.644" y2="-84.458" gradientTransform="matrix(-.183 -.796 .796 -.183 116.592 137.117)" gradientUnits="userSpaceOnUse"><stop offset="0" stop-color="#A0C6DE"/><stop offset="1" stop-color="#fff"/></linearGradient><linearGradient x1="153.899" x2="148.133" y1="-71.644" y2="-84.458" xlink:href="#d" gradientUnits="userSpaceOnUse" gradientTransform="matrix(-.183 -.796 .796 -.183 145.093 126.955)"/><radialGradient id="h" cx="294.624" cy="80.627" r="48.777" fx="294.624" fy="80.627" gradientUnits="userSpaceOnUse"><stop offset="0" stop-color="#BAD1D7"/><stop offset=".826" stop-color="#6D7580"/><stop offset="1" stop-color="#41454C"/></radialGradient><radialGradient id="g" cx="257.459" cy="35.376" r="68.717" fx="257.459" fy="35.376" gradientUnits="userSpaceOnUse"><stop offset="0" stop-color="#fff"/><stop offset="1" stop-color="#8794A0"/></radialGradient><radialGradient id="f" cx="264.957" cy="80.291" r="53.348" fx="264.957" fy="80.291" gradientUnits="userSpaceOnUse"><stop offset="0" stop-color="#BAD1D7"/><stop offset="1" stop-color="#8794A0"/></radialGradient><linearGradient id="e"><stop offset="0" stop-opacity=".633"/><stop offset="1" stop-opacity="0"/></linearGradient><linearGradient id="r" x1="776.865" x2="777.995" y1="541.731" y2="543.105" gradientUnits="userSpaceOnUse"><stop offset=".247" stop-color="#fff"/><stop offset=".301" stop-color="#F3F4F5"/><stop offset=".508" stop-color="#CBD0D6"/><stop offset=".701" stop-color="#AFB9C2"/><stop offset=".871" stop-color="#9EAAB6"/><stop offset="1" stop-color="#99A5B3"/></linearGradient><linearGradient id="q" x1="779.324" x2="780.542" y1="541.802" y2="543.042" gradientUnits="userSpaceOnUse"><stop offset=".247" stop-color="#fff"/><stop offset=".301" stop-color="#F3F4F5"/><stop offset=".508" stop-color="#CBD0D6"/><stop offset=".701" stop-color="#AFB9C2"/><stop offset=".871" stop-color="#9EAAB6"/><stop offset="1" stop-color="#99A5B3"/></linearGradient><linearGradient id="p" x1="781.786" x2="783.049" y1="541.8" y2="543.019" gradientUnits="userSpaceOnUse"><stop offset=".247" stop-color="#fff"/><stop offset=".301" stop-color="#F3F4F5"/><stop offset=".508" stop-color="#CBD0D6"/><stop offset=".701" stop-color="#AFB9C2"/><stop offset=".871" stop-color="#9EAAB6"/><stop offset="1" stop-color="#99A5B3"/></linearGradient><linearGradient id="o" x1="777.438" x2="777.438" y1="541.401" y2="543.071" gradientUnits="userSpaceOnUse"><stop offset=".455" stop-color="#D0D5DA"/><stop offset=".826" stop-color="#99A5B3"/><stop offset="1" stop-color="#9DA9B6"/></linearGradient><linearGradient id="n" x1="779.938" x2="779.938" y1="541.401" y2="543.071" gradientUnits="userSpaceOnUse"><stop offset=".455" stop-color="#D0D5DA"/><stop offset=".826" stop-color="#99A5B3"/><stop offset="1" stop-color="#9DA9B6"/></linearGradient><linearGradient id="m" x1="782.435" x2="782.435" y1="541.401" y2="543.071" gradientUnits="userSpaceOnUse"><stop offset=".455" stop-color="#D0D5DA"/><stop offset=".826" stop-color="#99A5B3"/><stop offset="1" stop-color="#9DA9B6"/></linearGradient><linearGradient id="l" x1="771.22" x2="771.22" y1="561.378" y2="544.373" gradientUnits="userSpaceOnUse"><stop offset="0" stop-color="#fff"/><stop offset=".41" stop-color="#fff"/><stop offset=".592" stop-color="#FBFCFA"/><stop offset=".775" stop-color="#EEEFEB"/><stop offset=".957" stop-color="#D9DCD5"/><stop offset="1" stop-color="#D3D7CF"/></linearGradient><linearGradient id="k" x1="771.219" x2="771.219" y1="542.046" y2="562.616" gradientUnits="userSpaceOnUse"><stop offset="0" stop-color="#ADBBCA"/><stop offset=".348" stop-color="#fff"/><stop offset=".674" stop-color="#fff"/><stop offset=".759" stop-color="#FBFCFC"/><stop offset=".844" stop-color="#EFF2F5"/><stop offset=".929" stop-color="#DAE2E8"/><stop offset="1" stop-color="#C3D2DD"/></linearGradient><linearGradient id="j" x1="771.219" x2="771.219" y1="540.617" y2="562.616" gradientUnits="userSpaceOnUse"><stop offset="0" stop-color="#E8ECED"/><stop offset=".348" stop-color="#fff"/><stop offset=".674" stop-color="#fff"/></linearGradient><linearGradient id="s" x1="784.5" x2="784.5" y1="586.057" y2="551.017" gradientUnits="userSpaceOnUse" gradientTransform="translate(-757.06 -539.628)"><stop offset="0" stop-color="#709EC3"/><stop offset=".383" stop-color="#72A0C4"/><stop offset=".521" stop-color="#79A3C6"/><stop offset=".619" stop-color="#83ABCA"/><stop offset=".698" stop-color="#94B5D0"/><stop offset=".766" stop-color="#A9C3D9"/><stop offset=".827" stop-color="#C6D6E5"/><stop offset=".88" stop-color="#E5ECF2"/><stop offset=".916" stop-color="#fff"/></linearGradient><linearGradient id="t" x1="784.5" x2="784.5" y1="556.36" y2="586.157" gradientUnits="userSpaceOnUse" gradientTransform="translate(-757.06 -539.628)"><stop offset="0" stop-color="#6395BF"/><stop offset=".09" stop-color="#CCDBE8"/><stop offset=".674" stop-color="#fff"/><stop offset=".728" stop-color="#FBFDFE"/><stop offset=".781" stop-color="#EFF5F8"/><stop offset=".835" stop-color="#DBEAF2"/><stop offset=".889" stop-color="#BED9E8"/><stop offset=".943" stop-color="#9AC6DC"/><stop offset=".997" stop-color="#6FAFCE"/><stop offset="1" stop-color="#6CADCD"/></linearGradient><linearGradient id="u" x1="800.531" x2="800.531" y1="556.321" y2="557.73" gradientUnits="userSpaceOnUse"><stop offset=".455" stop-color="#D9ADAE"/><stop offset=".944" stop-color="#CB1009"/></linearGradient><linearGradient id="v" x1="799.813" x2="801.373" y1="556.137" y2="558.064" gradientUnits="userSpaceOnUse"><stop offset=".247" stop-color="#fff"/><stop offset=".34" stop-color="#E8C8B7"/><stop offset=".472" stop-color="#CE896F"/><stop offset=".599" stop-color="#BA5942"/><stop offset=".719" stop-color="#AB3825"/><stop offset=".829" stop-color="#A22214"/><stop offset=".926" stop-color="#9B150B"/><stop offset="1" stop-color="#991109"/></linearGradient><linearGradient id="w" x1="797.254" x2="797.254" y1="556.27" y2="557.833" gradientUnits="userSpaceOnUse"><stop offset=".455" stop-color="#A0C6DE"/><stop offset=".944" stop-color="#3165A1"/></linearGradient><linearGradient id="x" x1="796.481" x2="797.996" y1="556.142" y2="557.876" gradientUnits="userSpaceOnUse"><stop offset=".247" stop-color="#fff"/><stop offset=".253" stop-color="#FCFDFE"/><stop offset=".401" stop-color="#AEBDD5"/><stop offset=".533" stop-color="#7392BA"/><stop offset=".644" stop-color="#4875A9"/><stop offset=".731" stop-color="#3066A0"/><stop offset=".781" stop-color="#27609D"/><stop offset="1" stop-color="#355787"/></linearGradient><linearGradient id="y" x1="793.975" x2="793.975" y1="556.27" y2="557.833" gradientUnits="userSpaceOnUse"><stop offset=".455" stop-color="#A0C6DE"/><stop offset=".944" stop-color="#3165A1"/></linearGradient><linearGradient id="z" x1="793.256" x2="794.664" y1="556.108" y2="557.905" gradientUnits="userSpaceOnUse"><stop offset=".247" stop-color="#fff"/><stop offset=".253" stop-color="#FCFDFE"/><stop offset=".401" stop-color="#AEBDD5"/><stop offset=".533" stop-color="#7392BA"/><stop offset=".644" stop-color="#4875A9"/><stop offset=".731" stop-color="#3066A0"/><stop offset=".781" stop-color="#27609D"/><stop offset="1" stop-color="#355787"/></linearGradient><linearGradient id="B" x1="767.066" x2="802.103" y1="559.555" y2="584.711" gradientUnits="userSpaceOnUse"><stop offset="0" stop-color="#263D4C"/><stop offset=".348" stop-color="#446D8C"/><stop offset="1" stop-color="#698499"/></linearGradient><linearGradient id="A" x1="784.5" x2="784.5" y1="584.578" y2="559.512" gradientUnits="userSpaceOnUse"><stop offset="0" stop-color="#fff"/><stop offset=".41" stop-color="#fff"/><stop offset=".592" stop-color="#FBFCFA"/><stop offset=".775" stop-color="#EEEFEB"/><stop offset=".957" stop-color="#D9DCD5"/><stop offset="1" stop-color="#D3D7CF"/></linearGradient><linearGradient id="i" x1="84.022" x2="75.07" y1="233.44" y2="233.44" gradientTransform="matrix(0 -1 -1 0 259.812 95.129)" gradientUnits="userSpaceOnUse"><stop offset="0" stop-color="#E96712"/><stop offset=".648" stop-color="#D4290C"/><stop offset="1" stop-color="#CB1009"/></linearGradient><linearGradient x1="26.22" x2="43.015" y1="36.124" y2="42.537" xlink:href="#e" gradientUnits="userSpaceOnUse" gradientTransform="translate(-1.867 .513)"/><radialGradient cx="264.957" cy="80.291" r="53.348" xlink:href="#f" gradientUnits="userSpaceOnUse" fx="264.957" fy="80.291"/><radialGradient cx="257.459" cy="35.376" r="68.717" xlink:href="#g" gradientUnits="userSpaceOnUse" fx="257.459" fy="35.376"/><radialGradient cx="294.624" cy="80.627" r="48.777" xlink:href="#h" gradientUnits="userSpaceOnUse" fx="294.624" fy="80.627"/><linearGradient id="C" x1="84.022" x2="75.07" y1="233.44" y2="233.44" xlink:href="#i" gradientUnits="userSpaceOnUse" gradientTransform="matrix(0 -1 -1 0 259.812 95.129)"/><linearGradient id="H" x1="153.899" x2="148.133" y1="-71.644" y2="-84.458" xlink:href="#d" gradientUnits="userSpaceOnUse" gradientTransform="matrix(-.163 -.707 .707 -.163 101.695 139.861)"/><linearGradient id="I" x1="-61.587" x2="-48.956" y1="32.016" y2="34.004" xlink:href="#a" gradientUnits="userSpaceOnUse" gradientTransform="matrix(.969 .247 -.247 .969 95.855 .48)"/><radialGradient id="L" cx="97.582" cy="139.579" r="3.879" xlink:href="#c" gradientUnits="userSpaceOnUse" gradientTransform="matrix(0 -1 1 0 -101.603 109.973)" fx="97.582" fy="139.579"/><radialGradient id="M" cx="-55.248" cy="138.608" r="6.838" xlink:href="#b" gradientUnits="userSpaceOnUse" gradientTransform="matrix(0 1 1 0 -101.603 66.342)" fx="-55.248" fy="138.608"/></defs><g><g transform="translate(-757.06 -539.628)"><path fill="none" stroke="#3e444c" stroke-width="1.5" d="M784.63 561.65c0 .52-.42.94-.94.94h-24.95c-.52 0-.94-.43-.94-.95v-20.1c0-.5.43-.93.95-.93h24.94c.5 0 .93.4.93.93v20.1z"/><linearGradient x1="771.219" x2="771.219" y1="540.617" y2="562.616" gradientUnits="userSpaceOnUse"><stop offset="0" stop-color="#E8ECED"/><stop offset=".348" stop-color="#fff"/><stop offset=".674" stop-color="#fff"/></linearGradient><path fill="url(#j)" d="M784.63 561.65c0 .52-.42.94-.94.94h-24.95c-.52 0-.94-.43-.94-.95v-20.1c0-.5.43-.93.95-.93h24.94c.5 0 .93.4.93.93v20.1z"/><linearGradient x1="771.219" x2="771.219" y1="542.046" y2="562.616" gradientUnits="userSpaceOnUse"><stop offset="0" stop-color="#ADBBCA"/><stop offset=".348" stop-color="#fff"/><stop offset=".674" stop-color="#fff"/><stop offset=".759" stop-color="#FBFCFC"/><stop offset=".844" stop-color="#EFF2F5"/><stop offset=".929" stop-color="#DAE2E8"/><stop offset="1" stop-color="#C3D2DD"/></linearGradient><path fill="url(#k)" d="M784.63 561.65c0 .52-.42.94-.94.94h-24.95c-.52 0-.94-.43-.94-.95v-18.6c0-.5.43-.93.95-.93h24.94c.5 0 .93.4.93.93v18.6z"/><linearGradient x1="771.22" x2="771.22" y1="561.378" y2="544.373" gradientUnits="userSpaceOnUse"><stop offset="0" stop-color="#fff"/><stop offset=".41" stop-color="#fff"/><stop offset=".592" stop-color="#FBFCFA"/><stop offset=".775" stop-color="#EEEFEB"/><stop offset=".957" stop-color="#D9DCD5"/><stop offset="1" stop-color="#D3D7CF"/></linearGradient><path fill="url(#l)" stroke="#77818c" stroke-width=".7" d="M783.53 561.13c0 .17-.14.3-.3.3h-24c-.2 0-.33-.13-.33-.3v-16.48c0-.17.14-.3.32-.3h24c.17 0 .3.13.3.3v16.48z"/><linearGradient x1="782.435" x2="782.435" y1="541.401" y2="543.071" gradientUnits="userSpaceOnUse"><stop offset=".455" stop-color="#D0D5DA"/><stop offset=".826" stop-color="#99A5B3"/><stop offset="1" stop-color="#9DA9B6"/></linearGradient><circle cx="782.436" cy="542.427" r="1.02" fill="url(#m)" stroke="#3e444c" stroke-width=".25"/><linearGradient x1="779.938" x2="779.938" y1="541.401" y2="543.071" gradientUnits="userSpaceOnUse"><stop offset=".455" stop-color="#D0D5DA"/><stop offset=".826" stop-color="#99A5B3"/><stop offset="1" stop-color="#9DA9B6"/></linearGradient><circle cx="779.938" cy="542.427" r="1.02" fill="url(#n)" stroke="#3e444c" stroke-width=".25"/><linearGradient x1="777.438" x2="777.438" y1="541.401" y2="543.071" gradientUnits="userSpaceOnUse"><stop offset=".455" stop-color="#D0D5DA"/><stop offset=".826" stop-color="#99A5B3"/><stop offset="1" stop-color="#9DA9B6"/></linearGradient><circle cx="777.438" cy="542.427" r="1.02" fill="url(#o)" stroke="#3e444c" stroke-width=".25"/><g><linearGradient x1="781.786" x2="783.049" y1="541.8" y2="543.019" gradientUnits="userSpaceOnUse"><stop offset=".247" stop-color="#fff"/><stop offset=".301" stop-color="#F3F4F5"/><stop offset=".508" stop-color="#CBD0D6"/><stop offset=".701" stop-color="#AFB9C2"/><stop offset=".871" stop-color="#9EAAB6"/><stop offset="1" stop-color="#99A5B3"/></linearGradient><path fill="url(#p)" d="M781.54 542.43c0 .5.4.9.9.9s.9-.4.9-.9-.4-.9-.9-.9-.9.4-.9.9zm.25 0c0-.36.28-.65.64-.65.35 0 .64.3.64.65 0 .35-.3.64-.64.64-.36 0-.65-.3-.65-.64z"/></g><g><linearGradient x1="779.324" x2="780.542" y1="541.802" y2="543.042" gradientUnits="userSpaceOnUse"><stop offset=".247" stop-color="#fff"/><stop offset=".301" stop-color="#F3F4F5"/><stop offset=".508" stop-color="#CBD0D6"/><stop offset=".701" stop-color="#AFB9C2"/><stop offset=".871" stop-color="#9EAAB6"/><stop offset="1" stop-color="#99A5B3"/></linearGradient><path fill="url(#q)" d="M779.04 542.43c0 .5.4.9.9.9s.9-.4.9-.9-.4-.9-.9-.9-.9.4-.9.9zm.25 0c0-.36.28-.65.64-.65.35 0 .64.3.64.65 0 .35-.3.64-.64.64-.36 0-.65-.3-.65-.64z"/></g><g><linearGradient x1="776.865" x2="777.995" y1="541.731" y2="543.105" gradientUnits="userSpaceOnUse"><stop offset=".247" stop-color="#fff"/><stop offset=".301" stop-color="#F3F4F5"/><stop offset=".508" stop-color="#CBD0D6"/><stop offset=".701" stop-color="#AFB9C2"/><stop offset=".871" stop-color="#9EAAB6"/><stop offset="1" stop-color="#99A5B3"/></linearGradient><path fill="url(#r)" d="M776.54 542.43c0 .5.4.9.9.9s.9-.4.9-.9-.4-.9-.9-.9-.9.4-.9.9zm.25 0c0-.36.28-.65.64-.65.35 0 .64.3.64.65 0 .35-.3.64-.64.64-.36 0-.65-.3-.65-.64z"/></g></g><path fill="none" stroke="#192433" stroke-width="2" d="M46.35 45.25c0 .68-.55 1.23-1.23 1.23H9.76c-.68 0-1.23-.55-1.23-1.23v-29c0-.68.55-1.23 1.23-1.23h35.36c.68 0 1.23.55 1.23 1.23v29z"/><path fill="url(#s)" d="M46.35 45.25c0 .68-.55 1.23-1.23 1.23H9.76c-.68 0-1.23-.55-1.23-1.23v-29c0-.68.55-1.23 1.23-1.23h35.36c.68 0 1.23.55 1.23 1.23v29z"/><path fill="url(#t)" d="M46.35 45.25c0 .68-.55 1.23-1.23 1.23H9.76c-.68 0-1.23-.55-1.23-1.23V18c0-.68.55-1.23 1.23-1.23h35.36c.68 0 1.23.55 1.23 1.23v27.25z"/><circle cx="800.532" cy="557.024" r="1.337" fill="url(#u)" stroke="#4c0b08" stroke-width=".4" transform="translate(-757.06 -539.628)"/><g transform="translate(-757.06 -539.628)"><linearGradient x1="799.813" x2="801.373" y1="556.137" y2="558.064" gradientUnits="userSpaceOnUse"><stop offset=".247" stop-color="#fff"/><stop offset=".34" stop-color="#E8C8B7"/><stop offset=".472" stop-color="#CE896F"/><stop offset=".599" stop-color="#BA5942"/><stop offset=".719" stop-color="#AB3825"/><stop offset=".829" stop-color="#A22214"/><stop offset=".926" stop-color="#9B150B"/><stop offset="1" stop-color="#991109"/></linearGradient><path fill="url(#v)" d="M799.4 557.02c0 .63.5 1.14 1.13 1.14.63 0 1.14-.5 1.14-1.14 0-.62-.5-1.13-1.14-1.13-.62 0-1.13.5-1.13 1.12zm.43 0c0-.38.3-.7.7-.7.4 0 .7.32.7.7 0 .4-.3.7-.7.7-.4 0-.7-.3-.7-.7z"/></g><circle cx="797.253" cy="557.024" r="1.337" fill="url(#w)" stroke="#1f324c" stroke-width=".4" transform="translate(-757.06 -539.628)"/><g transform="translate(-757.06 -539.628)"><linearGradient x1="796.481" x2="797.996" y1="556.142" y2="557.876" gradientUnits="userSpaceOnUse"><stop offset=".247" stop-color="#fff"/><stop offset=".253" stop-color="#FCFDFE"/><stop offset=".401" stop-color="#AEBDD5"/><stop offset=".533" stop-color="#7392BA"/><stop offset=".644" stop-color="#4875A9"/><stop offset=".731" stop-color="#3066A0"/><stop offset=".781" stop-color="#27609D"/><stop offset="1" stop-color="#355787"/></linearGradient><path fill="url(#x)" d="M796.1 557.02c0 .64.52 1.15 1.15 1.15.64 0 1.15-.5 1.15-1.15 0-.63-.5-1.14-1.15-1.14-.63 0-1.15.5-1.15 1.14zm.45 0c0-.38.3-.7.7-.7.4 0 .7.32.7.7 0 .4-.3.7-.7.7-.4 0-.7-.3-.7-.7z"/></g><circle cx="793.974" cy="557.024" r="1.337" fill="url(#y)" stroke="#1f324c" stroke-width=".4" transform="translate(-757.06 -539.628)"/><g transform="translate(-757.06 -539.628)"><linearGradient x1="793.256" x2="794.664" y1="556.108" y2="557.905" gradientUnits="userSpaceOnUse"><stop offset=".247" stop-color="#fff"/><stop offset=".253" stop-color="#FCFDFE"/><stop offset=".401" stop-color="#AEBDD5"/><stop offset=".533" stop-color="#7392BA"/><stop offset=".644" stop-color="#4875A9"/><stop offset=".731" stop-color="#3066A0"/><stop offset=".781" stop-color="#27609D"/><stop offset="1" stop-color="#355787"/></linearGradient><path fill="url(#z)" d="M792.84 557.02c0 .63.5 1.14 1.13 1.14.63 0 1.14-.5 1.14-1.14 0-.62-.5-1.13-1.13-1.13-.62 0-1.13.5-1.13 1.12zm.43 0c0-.38.32-.7.7-.7.4 0 .7.32.7.7 0 .4-.3.7-.7.7-.38 0-.7-.3-.7-.7z"/></g><g transform="translate(-757.06 -539.628)"><linearGradient x1="784.5" x2="784.5" y1="584.578" y2="559.512" gradientUnits="userSpaceOnUse"><stop offset="0" stop-color="#fff"/><stop offset=".41" stop-color="#fff"/><stop offset=".592" stop-color="#FBFCFA"/><stop offset=".775" stop-color="#EEEFEB"/><stop offset=".957" stop-color="#D9DCD5"/><stop offset="1" stop-color="#D3D7CF"/></linearGradient><path fill="url(#A)" d="M801.97 584.2c0 .22-.18.4-.4.4h-34.13c-.23 0-.4-.18-.4-.4v-24.25c0-.23.17-.4.4-.4h34.13c.22 0 .4.17.4.4v24.25z" enable-background="new"/><linearGradient x1="767.066" x2="802.103" y1="559.555" y2="584.711" gradientUnits="userSpaceOnUse"><stop offset="0" stop-color="#263D4C"/><stop offset=".348" stop-color="#446D8C"/><stop offset="1" stop-color="#698499"/></linearGradient><path fill="url(#B)" d="M767.44 559.04c-.5 0-.9.4-.9.9v24.25c0 .5.4.9.9.9h34.13c.5 0 .9-.4.9-.9v-24.25c0-.5-.4-.9-.9-.9h-34.13zm34.27.83c0 .18 0 24.22 0 24.4-.17 0-34.23 0-34.4 0 0-.18 0-24.22 0-24.4.17 0 34.23 0 34.4 0z"/></g><g><path fill="#cb1009" stroke="#590b08" stroke-width=".5" d="M25.67 27.35c.33.34.88.34 1.22 0l9.72-8.94c.08-.06.13-.17.13-.3 0-.23-.2-.43-.43-.43H16.24c-.24 0-.43.2-.43.43 0 .12.05.23.13.3l.02.02c2.2 2.25 9.72 8.93 9.72 8.93z"/><path fill="url(#C)" d="M23.06 23.62v-7.37s-1.13-3.97-1.8-4.4c-.97-.63-2-.74-2-.74h8.77s3.24.35 4.46 1.9c.42.56 1 1.77 1 1.77v8.85H23.05z" transform="translate(-2 -1.856)"/><path fill="none" stroke="#590b08" stroke-width=".5" d="M21.06 17.67V14.4v.37c0-3.26-2.37-5.52-3.8-5.52h7.77c3.93 0 6.46 1.72 6.46 4.66v3.77"/><path fill="none" stroke="#f62724" d="M26.28 26.87c-1.12-1-6.7-6.12-9.28-8.57"/><path fill="none" stroke="#f62724" d="M21.84 17.67V14.4"/></g><path fill="url(#D)" d="M26.2 38.65c.84.06 10.05.47 11.1.54-.13.87-.32 3.1-.44 3.92-.95-.14-11-2.08-12.04-2.22l1.4-2.25z"/><g transform="matrix(.852 0 0 .852 2.578 13.962)"><linearGradient x1="26.735" x2="43.514" y1="29.662" y2="32.304" gradientUnits="userSpaceOnUse"><stop offset="0" stop-color="#fff"/><stop offset="1" stop-color="#B7D0DC"/></linearGradient><path fill="url(#E)" d="M25.33 32.85l16 2.83.92-7.3-13.73-.7-3.2 5.17zm2.4-3.88c.97.06 11.77.54 13 .63-.14 1.03-.36 3.66-.5 4.6-1.12-.15-12.9-2.43-14.13-2.6l1.63-2.63z"/></g><path fill="url(#F)" d="M14.66 35.02c.4-.86 4.5-10.46 5-11.55.88.5 3.18 1.6 4 2.04-.53.97-6.6 10.83-7.18 11.9L14.66 35z"/><g transform="matrix(.966 0 0 .966 -1.002 20.082)"><linearGradient x1="-22.755" x2="-10.123" y1="-163.853" y2="-161.865" gradientTransform="matrix(.984 -.18 .18 .984 67.777 167.547)" gradientUnits="userSpaceOnUse"><stop offset="0" stop-color="#fff"/><stop offset="1" stop-color="#B7D0DC"/></linearGradient><path fill="url(#G)" d="M19 19.1L27.3 5.1l-6.5-3.45-5.5 12.6L19 19.1zm-2.8-3.63c.42-.9 4.68-10.82 5.2-11.96.9.53 3.3 1.66 4.13 2.13-.54 1-6.83 11.2-7.42 12.3l-1.9-2.46z"/></g><path fill="url(#H)" d="M21.67 36.68c.66-.57 7.78-7 8.62-7.73.53.75 2.04 2.55 2.54 3.24-.8.58-9.67 6.5-10.55 7.16l-.63-2.68z"/><g transform="matrix(.888 0 0 .888 -1.864 18.071)"><linearGradient x1="-61.587" x2="-48.956" y1="32.016" y2="34.004" gradientTransform="matrix(.969 .247 -.247 .969 95.855 .48)" gradientUnits="userSpaceOnUse"><stop offset="0" stop-color="#fff"/><stop offset="1" stop-color="#B7D0DC"/></linearGradient><path fill="url(#I)" d="M27.52 25.4l13.36-9.23-4.47-5.85-10.25 9.15 1.37 5.93zm-1.03-4.45c.73-.64 8.75-7.9 9.7-8.7.6.84 2.3 2.87 2.87 3.64-.9.67-10.9 7.32-11.88 8.07l-.7-3.02z"/></g><g transform="matrix(.966 0 0 .966 -1.002 20.082)"><circle cx="23.701" cy="3.661" r="2.761" fill="none" stroke="#152a4c" stroke-width="1.988"/><radialGradient cx="107.321" cy="124.671" r="3.879" gradientUnits="userSpaceOnUse" gradientTransform="matrix(0 -1 1 0 -101.603 109.973)" fy="124.671" fx="107.321"><stop offset="0" stop-color="#fff"/><stop offset=".09" stop-color="#DBE8F2"/><stop offset=".248" stop-color="#A2C3DE"/><stop offset=".395" stop-color="#75A6CD"/><stop offset=".525" stop-color="#5591C2"/><stop offset=".634" stop-color="#4185BB"/><stop offset=".708" stop-color="#3A80B8"/><stop offset="1" stop-color="#244A87"/></radialGradient><circle cx="23.701" cy="3.661" r="2.761" fill="url(#J)"/><g><radialGradient cx="-64.987" cy="123.7" r="6.838" gradientUnits="userSpaceOnUse" gradientTransform="matrix(0 1 1 0 -101.603 66.342)" fy="123.7" fx="-64.987"><stop offset="0" stop-color="#fff"/><stop offset=".685" stop-color="#2E659E"/><stop offset="1" stop-color="#1D3E63"/></radialGradient><path fill="url(#K)" d="M20.94 3.66c0 .74.28 1.43.8 1.95.53.53 1.22.82 1.96.82s1.43-.3 1.95-.8c.53-.53.8-1.22.8-1.96C26.46 2.14 25.24.9 23.7.9c-1.52 0-2.76 1.24-2.76 2.76zm5.08 0c0 .62-.24 1.2-.68 1.64-.44.44-1.02.68-1.64.68-.62 0-1.2-.24-1.64-.68-.44-.44-.68-1.02-.68-1.64 0-1.28 1.04-2.32 2.32-2.32 1.28 0 2.32 1.04 2.32 2.32z"/></g></g><g transform="matrix(.888 0 0 .888 -1.864 18.071)"><circle cx="38.609" cy="13.4" r="2.761" fill="none" stroke="#152a4c" stroke-width="2.161"/><radialGradient cx="97.582" cy="139.579" r="3.879" gradientUnits="userSpaceOnUse" gradientTransform="matrix(0 -1 1 0 -101.603 109.973)" fy="139.579" fx="97.582"><stop offset="0" stop-color="#fff"/><stop offset=".09" stop-color="#DBE8F2"/><stop offset=".248" stop-color="#A2C3DE"/><stop offset=".395" stop-color="#75A6CD"/><stop offset=".525" stop-color="#5591C2"/><stop offset=".634" stop-color="#4185BB"/><stop offset=".708" stop-color="#3A80B8"/><stop offset="1" stop-color="#244A87"/></radialGradient><circle cx="38.609" cy="13.4" r="2.761" fill="url(#L)"/><g><radialGradient cx="-55.248" cy="138.608" r="6.838" gradientUnits="userSpaceOnUse" gradientTransform="matrix(0 1 1 0 -101.603 66.342)" fy="138.608" fx="-55.248"><stop offset="0" stop-color="#fff"/><stop offset=".685" stop-color="#2E659E"/><stop offset="1" stop-color="#1D3E63"/></radialGradient><path fill="url(#M)" d="M35.84 13.4c0 .73.3 1.43.8 1.95.54.52 1.23.8 1.97.8s1.44-.28 1.96-.8.8-1.2.8-1.95c0-1.52-1.23-2.76-2.75-2.76s-2.76 1.24-2.76 2.76zm5.1 0c0 .62-.25 1.2-.7 1.64-.43.44-1 .68-1.63.68-.6 0-1.2-.24-1.63-.68-.44-.44-.7-1.02-.7-1.64 0-1.28 1.06-2.32 2.34-2.32 1.3 0 2.33 1.04 2.33 2.32z"/></g></g><g transform="matrix(.852 0 0 .852 2.578 13.962)"><circle cx="41.343" cy="31.755" r="2.761" fill="none" stroke="#152a4c" stroke-width="2.253"/><radialGradient cx="79.228" cy="142.313" r="3.879" gradientUnits="userSpaceOnUse" gradientTransform="matrix(0 -1 1 0 -101.603 109.973)" fy="142.313" fx="79.228"><stop offset="0" stop-color="#fff"/><stop offset=".09" stop-color="#DBE8F2"/><stop offset=".248" stop-color="#A2C3DE"/><stop offset=".395" stop-color="#75A6CD"/><stop offset=".525" stop-color="#5591C2"/><stop offset=".634" stop-color="#4185BB"/><stop offset=".708" stop-color="#3A80B8"/><stop offset="1" stop-color="#244A87"/></radialGradient><circle cx="41.343" cy="31.755" r="2.761" fill="url(#N)"/><g><radialGradient cx="-36.893" cy="141.342" r="6.838" gradientUnits="userSpaceOnUse" gradientTransform="matrix(0 1 1 0 -101.603 66.342)" fy="141.342" fx="-36.893"><stop offset="0" stop-color="#fff"/><stop offset=".685" stop-color="#2E659E"/><stop offset="1" stop-color="#1D3E63"/></radialGradient><path fill="url(#O)" d="M38.58 31.75c0 .74.28 1.44.8 1.95.53.53 1.22.82 1.96.82s1.43-.3 1.95-.82.8-1.2.8-1.95c0-1.52-1.23-2.76-2.76-2.76-1.52 0-2.76 1.23-2.76 2.75zm5.08 0c0 .63-.24 1.2-.68 1.65-.44.43-1.02.68-1.64.68-.62 0-1.2-.24-1.64-.68-.44-.44-.68-1.02-.68-1.65 0-1.27 1.04-2.32 2.32-2.32 1.28 0 2.32 1.05 2.32 2.32z"/></g></g></g></svg>