<svg xmlns="http://www.w3.org/2000/svg" width="48" height="48" xmlns:xlink="http://www.w3.org/1999/xlink"><defs><linearGradient id="a"><stop offset="0" stop-color="#fff"/><stop offset="1" stop-color="#bfd0dc"/></linearGradient><linearGradient id="d" x1="4.492" x2="46.335" y1="25.08" y2="24.778" xlink:href="#a" gradientUnits="userSpaceOnUse" gradientTransform="matrix(.988 0 0 1.298 -.983 -10.24)"/><radialGradient id="b" cx="257.459" cy="35.376" r="68.717" fx="257.459" fy="35.376" gradientUnits="userSpaceOnUse"><stop offset="0" stop-color="#eeeff1"/><stop offset="1" stop-color="#8794A0"/></radialGradient><linearGradient id="c" x1="4.492" x2="46.335" y1="25.08" y2="24.778" xlink:href="#b" gradientUnits="userSpaceOnUse" gradientTransform="matrix(.988 0 0 1.298 -.983 -10.24)"/><linearGradient><stop offset="0" stop-color="#fedba7"/><stop offset="1" stop-color="#fdbf64"/></linearGradient><linearGradient><stop offset="0" stop-color="#ffa54c"/><stop offset="1" stop-color="#f57900"/></linearGradient></defs><g color="#000"><path fill="none" stroke="#2e3436" stroke-width="3" d="M1.46 22.35C8.32 16 15.2 9.6 25.02 9.55l21.52 12.72C36.96 23.4 22.74 34.94 17.9 40.6L1.47 22.36z" stroke-linecap="round" stroke-linejoin="round" overflow="visible"/><path fill="url(#c)" stroke="url(#d)" d="M1.52 22.22c6.86-6.35 13.73-12.76 23.56-12.8L46.6 22.14c-8.77 1.97-20.82 9.42-28.64 18.34L1.52 22.22z" stroke-linecap="round" stroke-linejoin="round" overflow="visible"/><path fill="none" stroke="#eeeeec" stroke-opacity=".753" stroke-width="3" d="M31.93 15.62c1.7 1.28-.92 5.38-6.14 9.3-4.3 3.2-12.52 3.92-13.8 1.9-1.55-2.5.4-8.17 5.96-11.43 5.38-3.16 11.8-1.4 13.97.22z" overflow="visible"/><path fill="#fff" fill-opacity=".286" fill-rule="evenodd" stroke="#ef2929" stroke-width="1.7" stroke-dashoffset=".85" d="M32.15 15.77c1.7 1.28-.92 5.37-6.14 9.3-4.3 3.2-12.5 3.9-13.77 1.9-1.56-2.5.38-8.18 5.95-11.44 5.38-3.15 11.8-1.4 13.97.24z" stroke-dasharray="3.4,1.7" overflow="visible"/></g></svg>