<svg xmlns="http://www.w3.org/2000/svg" width="48" height="48"><g><path fill="#939da6" stroke="#939da6" stroke-width="3" d="M1.5 25.36h.97v.97H1.5z"/><path fill="#939da6" stroke="#939da6" stroke-width="3" d="M45.6 25.36h.96v.97h-.97z"/><path fill="#939da6" stroke="#939da6" stroke-width="3" d="M41.1 32.96h.96v.96h-.96z"/><path fill="#939da6" stroke="#939da6" stroke-width="3" d="M13.3 10.36h.97v.97h-.97z"/><path fill="none" stroke="#939da6" stroke-width="2" d="M1.98 25.85l11.8-15 27.8 22.6 4.5-7.6"/><path fill="none" stroke="#000" stroke-width=".7" d="M1.98 25.85C5.28 14.3 11.36 7.3 20.36 12.62c4.1 2.42 7.82 8.33 13.84 15.85 7.56 9.43 11.87 3.7 11.87-2.62"/><path stroke="#000" stroke-width="1.5" d="M1.5 25.36h.97v.97H1.5z"/><path stroke="#000" stroke-width="1.5" d="M45.6 25.36h.96v.97h-.97z"/><path stroke="#000" stroke-width="1.5" d="M41.1 32.96h.96v.96h-.96z"/><path fill="#ed2829" stroke="#ed2829" stroke-width="2" d="M44.53 30.34h.97v.96h-.97z"/><path fill="#ed2829" stroke="#ed2829" stroke-width="2" d="M36.38 30.82h.96v.97h-.96z"/><path fill="#ed2829" stroke="#ed2829" stroke-width="2" d="M21.8 13.54h.97v.97h-.97z"/><path fill="#ed2829" stroke="#ed2829" stroke-width="2" d="M7.36 13.54h.97v.97h-.97z"/><path stroke="#000" stroke-width="1.5" d="M13.3 10.36h.97v.97h-.97z"/></g></svg>