<svg xmlns="http://www.w3.org/2000/svg" width="48" height="48" xmlns:xlink="http://www.w3.org/1999/xlink"><defs><linearGradient id="d"><stop offset="0" stop-color="#2e3436" stop-opacity="0"/><stop offset=".661" stop-color="#2e3436" stop-opacity=".55"/><stop offset="1" stop-color="#2e3436" stop-opacity="0"/></linearGradient><linearGradient id="c"><stop offset="0" stop-color="#eeeeec"/><stop offset="1" stop-color="#eeeeec" stop-opacity="0"/></linearGradient><linearGradient id="b"><stop offset="0" stop-color="#eeeeec"/><stop offset="1" stop-color="#eeeeec" stop-opacity="0"/></linearGradient><linearGradient id="a"><stop offset="0" stop-color="#fcaf3e"/><stop offset=".683" stop-color="#fdd497"/><stop offset=".856" stop-color="#fcaf3e"/><stop offset=".937" stop-color="#ea9920"/><stop offset="1" stop-color="#b56d03"/></linearGradient><radialGradient id="f" cx="23.953" cy="18.657" r="23.96" xlink:href="#a" fx="23.953" fy="18.657" gradientTransform="matrix(1 .009 -.006 .679 .102 6.372)" gradientUnits="userSpaceOnUse"/><radialGradient id="g" cx="23.929" cy="11.295" r="7.929" xlink:href="#b" fx="23.929" fy="11.295" gradientTransform="matrix(1 0 0 .316 0 7.721)" gradientUnits="userSpaceOnUse"/><radialGradient id="h" cx="24.143" cy="28.152" r="11.071" xlink:href="#c" fx="24.143" fy="28.152" gradientTransform="matrix(1 0 0 .227 0 21.772)" gradientUnits="userSpaceOnUse"/><radialGradient id="e" cx="24" cy="39.393" r="72.873" xlink:href="#d" fx="24" fy="39.393" gradientTransform="matrix(.328 0 0 .201 15.977 25.244)" gradientUnits="userSpaceOnUse"/></defs><g><path fill="url(#e)" fill-rule="evenodd" d="M31.7 33.18c0 2.66-3.5 4.82-7.84 4.82S16 35.84 16 33.18s3.52-4.82 7.86-4.82 7.85 2.16 7.85 4.82zm16.1 0c0 8.1-10.73 14.68-23.94 14.68-13.22 0-23.93-6.57-23.93-14.68 0-8.1 10.7-14.68 23.93-14.68 13.2 0 23.93 6.57 23.93 14.68z" color="#000" overflow="visible" enable-background="accumulate"/><path fill="url(#f)" fill-rule="evenodd" d="M24.17 19.03l-5.3.72-1.3 1.05.52.6 5.68.97 4.12-.72 2.42-.98-3.6-1.24zm-.26-14.2L14.04 6.5l-10.6 6.28-2.95 12.1L9.7 35.9 24 38.8l13.67-2.76 9.75-10.92-1.44-8.3-2.55-4.65-5.35-3.86-8.12-2.28z"/><path fill="none" stroke="#000" stroke-width=".5" d="M14.36 6.68l2.16 2.1 2.3 4 .84 4.17-.92 3"/><path fill="none" stroke="#000" stroke-width=".5" d="M19.8 16.95c.3-.13 4.24-.85 4.24-.85"/><path fill="none" stroke="#000" stroke-width=".5" d="M18.74 12.64L15 15.12"/><path fill="none" stroke="#000" stroke-width=".5" d="M6.63 11.2l4.65.72 3.8 3.14 1.7 4.05-.13.93"/><path fill="none" stroke="#000" stroke-width=".5" d="M11.4 12.05l-.84 4.58"/><path fill="none" stroke="#000" stroke-width=".5" d="M15.08 15.45l-.4 2.88"/><path fill="none" stroke="#000" stroke-width=".5" d="M10.3 16.23l4.65 2.16 1.83 1.7.98.7"/><path fill="none" stroke="#000" stroke-width=".5" d="M1.73 20.68l4.18-3.14"/><path fill="none" stroke="#000" stroke-width=".5" d="M11.8 23.43l-6.34-5.95"/><path fill="none" stroke="#000" stroke-width=".5" d="M17.56 21.2l-2.22-.32-3.67 2.55L9 28.2l-.8 6.22"/><path fill="none" stroke="#000" stroke-width=".5" d="M23.9 22.58l.08 16.6" stroke-linejoin="bevel"/><path fill="none" stroke="#000" stroke-width=".5" d="M8.86 28.2l14.8 3.08"/><path fill="none" stroke="#000" stroke-width=".5" d="M23.9 5.1L24 19.45" stroke-linejoin="bevel"/><path fill="none" stroke="#000" stroke-width=".5" d="M24.14 6.07l3.57 1.8-3.84.27" stroke-linejoin="bevel"/><path fill="none" stroke="#000" stroke-width=".5" d="M24.3 11.43l3.56-3.57 2-1.86 3.64 5.2-5.64-3.4.7 5.4z" stroke-linejoin="bevel"/><path fill="none" stroke="#000" stroke-width=".5" d="M24.14 15.14l4.43-2-.14 4z" stroke-linejoin="bevel"/><path fill="none" stroke="#000" stroke-width=".5" d="M28.5 13.2l5.14-2.06 5.15-1.28-8.73-3.72" stroke-linejoin="bevel"/><path fill="none" stroke="#000" stroke-width=".5" d="M24.3 19.14l4.27-2.28 3.57-1-3.43-2.72" stroke-linejoin="bevel"/><path fill="none" stroke="#000" stroke-width=".5" d="M33.43 11.57l-1.5 4.36 1.14 2z" stroke-linejoin="bevel"/><path fill="none" stroke="#000" stroke-width=".5" d="M33.64 11.36l2.57 3.85 2.44-5.4 5.3 5.9-7.87-.34-2.36 4.14 6.87 2.64 3.57-6.43 1.57 5.23-12.5 3 .44-4.57L28 21.7l5.36 2.23-7.07 1.78-2.16 4.37 6.36-2.36.93 4.66-7.3 4.64 7.23-.3 7.2-3.77-7.27-.64 6.77-5 .64 5.7 4.44-6.2-2.64-4.66L38 27.3l-4.86-3.37-2.57 3.7-4.28-2 1.77-3.7" stroke-linejoin="bevel"/><path fill="none" stroke="#000" stroke-width=".5" d="M36.2 15.3l4.44 6.77" stroke-linejoin="bevel"/><path fill="none" stroke="#000" stroke-width=".5" d="M45.7 20.86l-2.63 5.93 4.43-1.44z" stroke-linejoin="bevel"/><path fill="none" stroke="#000" stroke-width=".5" d="M43 30.07l.07-3.2-5.28.42-7.16.34" stroke-linejoin="bevel"/><path fill="none" stroke="#000" stroke-width=".5" d="M23.93 24.5l3 1.14-2.93.3" stroke-linejoin="bevel"/><path fill="none" stroke="#000" stroke-width=".5" d="M23.8 30.07l7.7 2.3-.14 4.56" stroke-linejoin="bevel"/><path fill="none" stroke="#000" stroke-width=".5" d="M36.43 15.3l-3.5 2.4" stroke-linejoin="bevel"/><path fill="none" stroke="#000" stroke-width=".5" d="M37.7 36.2l1-3.34 2.73-1"/><path fill="none" stroke="#000" stroke-width=".5" d="M44 13.43v2.43l2.07 2.43"/><path fill="none" stroke="#000" stroke-width=".5" d="M28.14 16.86l1.93 3.7L31.7 16"/><path fill="none" stroke="#000" stroke-width=".5" d="M33.57 19.57l-.64-2L29.86 21"/><path fill="none" stroke="#b35000" d="M23.9 4.98l-9.87 1.64-10.6 6.28L.48 25 9.7 36.05 24 38.93l13.67-2.74 9.75-10.94-1.44-8.3-2.55-4.65-5.35-3.85-8.12-2.3z"/><path fill="none" stroke="#000" d="M24.17 19.18l-5.3.72-1.3 1.04.52.6 5.68.97 4.12-.7 2.42-1-3.6-1.23z" stroke-linejoin="bevel"/><path fill="url(#g)" fill-rule="evenodd" d="M31.86 13.04c0 1.32-3.55.53-7.93.53s-7.93.8-7.93-.53 3.55-4.25 7.93-4.25 7.93 2.9 7.93 4.24z" color="#000" overflow="visible" enable-background="accumulate"/><path fill="url(#h)" fill-rule="evenodd" d="M35.2 26.4c0-1.3-4.94-.53-11.06-.53-6.1 0-11.07-.78-11.07.54 0 1.33 4.96 4.26 11.07 4.26 6.12 0 11.07-2.93 11.07-4.25z" color="#000" overflow="visible" enable-background="accumulate"/></g></svg>