<svg xmlns="http://www.w3.org/2000/svg" width="48" height="48" xmlns:xlink="http://www.w3.org/1999/xlink"><defs><linearGradient id="h"><stop offset="0" stop-color="#2e3436"/><stop offset="1" stop-color="#2e3436" stop-opacity="0"/></linearGradient><linearGradient id="g"><stop offset="0" stop-color="#2e3436"/><stop offset="1" stop-color="#2e3436" stop-opacity="0"/></linearGradient><linearGradient id="e"><stop offset="0" stop-color="#babdb6" stop-opacity="0"/><stop offset="1" stop-color="#d3d7cf"/></linearGradient><linearGradient id="f"><stop offset="0" stop-color="#babdb6" stop-opacity="0"/><stop offset="1" stop-color="#d3d7cf"/></linearGradient><linearGradient id="d"><stop offset="0" stop-color="#eeeeec"/><stop offset="1" stop-color="#d3d7cf"/></linearGradient><linearGradient id="a"><stop offset="0" stop-color="#e02b2b"/><stop offset="1" stop-color="#e02b2b" stop-opacity="0"/></linearGradient><linearGradient x1="9.757" x2="17.85" y1="12.525" y2="31.675" xlink:href="#a" gradientUnits="userSpaceOnUse" gradientTransform="matrix(-.95 0 0 -1.251 51.681 56.182)"/><linearGradient id="c"><stop offset="0" stop-color="#fedba7"/><stop offset="1" stop-color="#fdbf64"/></linearGradient><linearGradient id="b"><stop offset="0" stop-color="#ffa54c"/><stop offset="1" stop-color="#f57900"/></linearGradient><linearGradient x1="14.929" x2="35.357" y1="17.929" y2="27.929" xlink:href="#b" gradientUnits="userSpaceOnUse" gradientTransform="matrix(.864 0 0 .863 3.346 6.117)"/><linearGradient x1="2.131" x2="46.011" y1="26.143" y2="26.143" xlink:href="#c" gradientUnits="userSpaceOnUse" gradientTransform="matrix(.967 0 0 .966 .802 .898)"/><linearGradient x1="14.929" x2="35.357" y1="17.929" y2="27.929" xlink:href="#b" gradientUnits="userSpaceOnUse" gradientTransform="matrix(.597 0 0 .857 9.751 4.118)"/><linearGradient x1="9.757" x2="17.85" y1="12.525" y2="31.675" xlink:href="#a" gradientUnits="userSpaceOnUse" gradientTransform="matrix(.95 0 0 1.251 -3.168 -4.812)"/><linearGradient id="n" x1="40.576" x2="36.091" y1="26.92" y2="9.11" xlink:href="#d" gradientUnits="userSpaceOnUse"/><linearGradient id="i" x1="16.882" x2="36.203" y1="5.504" y2="9.123" xlink:href="#e" gradientUnits="userSpaceOnUse"/><linearGradient id="k" x1="40.576" x2="36.091" y1="26.92" y2="9.11" xlink:href="#d" gradientUnits="userSpaceOnUse" gradientTransform="matrix(-1 0 0 -1 47.996 48.004)"/><linearGradient id="l" x1="17.359" x2="36.203" y1="5.694" y2="9.123" xlink:href="#f" gradientUnits="userSpaceOnUse" gradientTransform="matrix(-1 0 0 -1 47.996 48.004)"/><linearGradient id="o" x1="14.929" x2="35.357" y1="17.929" y2="27.929" xlink:href="#b" gradientUnits="userSpaceOnUse" gradientTransform="matrix(.597 0 0 .857 9.751 4.118)"/><linearGradient id="j" x1="29.93" x2="14.502" y1="9.599" y2="8.171" xlink:href="#g" gradientUnits="userSpaceOnUse"/><linearGradient id="m" x1="15.222" x2="29.304" y1="40.977" y2="44.31" xlink:href="#h" gradientUnits="userSpaceOnUse"/></defs><g color="#000"><path fill="url(#i)" stroke="url(#j)" stroke-width="1.492" d="M39.08 6.3C35.02 2.84 29.75.75 24 .75c-7.7 0-14.52 3.74-18.75 9.5l7.2 5.34C15.04 12 19.24 9.7 24 9.7c3.24 0 6.23 1.08 8.62 2.9" stroke-linecap="round" overflow="visible"/><path fill="url(#k)" stroke="#2e3436" stroke-width="1.492" d="M15.37 35.4C11.93 32.8 9.7 28.67 9.7 24c0-2.07.14-5.34 1.3-6.7l3.67 3.12 2.58-17.67L1.3 8.97l3.04 2.67C1.9 14.68.74 18.66.74 24c0 7.1 3.18 13.43 8.18 17.7" stroke-linecap="round" overflow="visible"/><path fill="url(#l)" stroke="url(#m)" stroke-width="1.492" d="M8.92 41.7c4.06 3.46 9.33 5.55 15.08 5.55 7.7 0 14.52-3.74 18.75-9.5l-7.2-5.34c-2.6 3.58-6.8 5.9-11.55 5.9-3.24 0-6.23-1.08-8.63-2.9" stroke-linecap="round" overflow="visible"/><path fill="url(#n)" stroke="#2e3436" stroke-width="1.492" d="M32.62 12.6c3.45 2.6 5.68 6.75 5.68 11.4 0 2.07-.15 5.34-1.32 6.7l-3.65-3.12-2.58 17.67 15.96-6.22-3.05-2.67c2.46-3.04 3.6-7 3.6-12.36 0-7.08-3.17-13.43-8.17-17.7" stroke-linecap="round" overflow="visible"/><g><path fill="url(#o)" fill-rule="evenodd" stroke="#5f2a00" stroke-width="1.242" d="M8.4 23.8l16.32-9.6 15 9.6-15 10.02-16.3-10z" stroke-linejoin="round" overflow="visible" transform="matrix(1.208 0 0 -1.208 -5 53.012)"/><path fill="none" stroke="#fdc676" stroke-width="1.0018799999999999" d="M7 24.22l17.85 10.5 16.4-10.5-16.4-10.94L7 24.22z" overflow="visible"/></g></g></svg>