<svg xmlns="http://www.w3.org/2000/svg" width="48" height="48" xmlns:xlink="http://www.w3.org/1999/xlink"><defs><linearGradient id="b"><stop offset="0" stop-color="#2f4664"/><stop offset="1" stop-color="#3e5d84" stop-opacity="0"/></linearGradient><linearGradient id="a"><stop offset="0" stop-color="#fff"/><stop offset="1" stop-color="#fff" stop-opacity="0"/></linearGradient><linearGradient id="c"><stop offset="0" stop-color="#b8c7d9"/><stop offset=".321" stop-color="#54769c"/><stop offset=".491" stop-color="#b8c8d9"/><stop offset=".691" stop-color="#54769c"/><stop offset="1" stop-color="#b8c8d9"/></linearGradient><radialGradient cx="24.277" cy="30.201" r="7.528" xlink:href="#a" gradientUnits="userSpaceOnUse" gradientTransform="matrix(1 0 0 .295 0 21.304)" fx="24.277" fy="30.201"/><radialGradient cx="24.277" cy="30.201" r="7.528" xlink:href="#a" gradientUnits="userSpaceOnUse" gradientTransform="matrix(1 0 0 .295 0 21.304)" fx="24.277" fy="30.201"/><radialGradient cx="19.998" cy="41.295" r="5.494" xlink:href="#b" gradientUnits="userSpaceOnUse" gradientTransform="matrix(1.371 0 0 -.363 -3.148 41.369)" fx="19.998" fy="41.295"/><radialGradient cx="19.998" cy="41.295" r="5.494" xlink:href="#b" gradientUnits="userSpaceOnUse" gradientTransform="matrix(.83 0 0 .363 7.717 6.189)" fx="19.998" fy="41.295"/><radialGradient cx="23.402" cy="37.269" r="24.405" xlink:href="#c" gradientUnits="userSpaceOnUse" gradientTransform="matrix(1 0 0 .573 0 1.625)" spreadMethod="pad" fx="23.402" fy="37.269"/><radialGradient cx="24.277" cy="30.201" r="7.528" xlink:href="#a" gradientUnits="userSpaceOnUse" gradientTransform="matrix(1 0 0 .295 0 21.304)" fx="24.277" fy="30.201"/><radialGradient cx="23.402" cy="37.269" r="24.405" xlink:href="#c" gradientUnits="userSpaceOnUse" gradientTransform="matrix(1 0 0 .573 0 1.625)" spreadMethod="pad" fx="23.402" fy="37.269"/><radialGradient id="e" cx="24.277" cy="30.201" r="7.528" xlink:href="#a" gradientUnits="userSpaceOnUse" gradientTransform="matrix(1 0 0 .295 0 21.304)" fx="24.277" fy="30.201"/><radialGradient cx="24.277" cy="30.201" r="7.528" xlink:href="#a" gradientUnits="userSpaceOnUse" gradientTransform="matrix(1 0 0 .295 0 21.304)" fx="24.277" fy="30.201"/><radialGradient id="g" cx="24.277" cy="30.201" r="7.528" xlink:href="#a" gradientUnits="userSpaceOnUse" gradientTransform="matrix(1 0 0 .295 0 21.304)" fx="24.277" fy="30.201"/><radialGradient cx="19.998" cy="41.295" r="5.494" xlink:href="#b" gradientUnits="userSpaceOnUse" gradientTransform="matrix(.83 0 0 .363 7.717 6.189)" fx="19.998" fy="41.295"/><radialGradient cx="19.998" cy="41.295" r="5.494" xlink:href="#b" gradientUnits="userSpaceOnUse" gradientTransform="matrix(1.371 0 0 -.363 -3.148 41.369)" fx="19.998" fy="41.295"/><radialGradient id="i" cx="19.998" cy="41.295" r="5.494" xlink:href="#b" gradientUnits="userSpaceOnUse" gradientTransform="matrix(1.371 0 0 -.42 -3.148 44.074)" fx="19.998" fy="41.295"/><radialGradient id="h" cx="19.998" cy="41.295" r="5.494" xlink:href="#b" gradientUnits="userSpaceOnUse" gradientTransform="matrix(.977 0 0 .563 4.773 -2.608)" fx="19.998" fy="41.295"/><radialGradient id="d" cx="23.402" cy="37.269" r="24.405" xlink:href="#c" gradientUnits="userSpaceOnUse" gradientTransform="matrix(1 0 0 .664 0 -2.01)" spreadMethod="pad" fx="23.402" fy="37.269"/><radialGradient id="f" cx="24.277" cy="30.201" r="7.528" xlink:href="#a" gradientUnits="userSpaceOnUse" gradientTransform="matrix(1 0 0 .295 0 21.304)" fx="24.277" fy="30.201"/></defs><g><path fill="url(#d)" fill-rule="evenodd" d="M24.08 8.76c4.64 1.2 4.07 4.12 11.1 8 5.36 2.94 9.56 2.2 12.52 4.7-4.6 2.3-5.54 5.73-11.17 10.18-5.3 4.17-7.76 3.27-12.92 7.72-4.86-5.74-7.8-3.4-13.04-7.38-5.25-4-4.73-7.7-10.28-9.85 2.3-2.52 7.15-2.06 11.27-5.1 5.72-4.2 9.55-7.3 12.53-8.27z"/><path fill="url(#e)" d="M31.8 30.2a7.53 2.22 0 1 1-15.05 0 7.53 2.22 0 1 1 15.06 0z" transform="matrix(1 0 0 1.293 0 -8.555)" color="#000" overflow="visible"/><path fill="url(#f)" d="M31.8 30.2a7.53 2.22 0 1 1-15.05 0 7.53 2.22 0 1 1 15.06 0z" transform="matrix(.698 0 0 1.293 7.151 -23.236)" color="#000" overflow="visible"/><path fill="url(#g)" d="M31.8 30.2a7.53 2.22 0 1 1-15.05 0 7.53 2.22 0 1 1 15.06 0z" transform="matrix(.357 0 0 1.293 15.679 -15.69)" color="#000" overflow="visible"/><path fill="url(#h)" d="M29.47 22.74c-1.1 1.1-2.13-2.56-5.02-2.56-3.3 0-4.46 3.53-5.25 2.63-1.1-1.25 1.6-4.38 5.08-4.46 3.12-.07 6.26 3.34 5.2 4.4z" color="#000" overflow="visible"/><path fill="url(#i)" d="M32.8 24.6c-1.83-1.08-3.53 2.58-8.3 2.58-5.44 0-7.36-3.53-8.68-2.63-1.83 1.25 2.67 4.4 8.4 4.47 5.14.07 10.35-3.34 8.57-4.4z" color="#000" overflow="visible"/><g fill="none" stroke="#264a71" stroke-width=".44"><path d="M11.56 31.92c2.45-2.04 2.85-3.85 4.72-5.28 1.87-1.44 2.98.6 4.15-.08 1.16-.68 3.1-4.6 4.2-5.28 1.1-.68 3.32.83 3.97 0 .64-.83 2.04-3.92 3.6-4.83 1.6-.9 2 .83 3-.15"/><path d="M37.32 31.8c-2.45-2.05-2.86-3.86-4.73-5.3-1.87-1.43-2.98.6-4.15-.07-1.17-.68-3.1-4.6-4.2-5.28-1.1-.68-3.33.83-3.97 0-.64-.83-2.04-3.92-3.62-4.83-1.57-.9-1.98.83-2.97-.15"/><path d="M6.9 27.16c3.02-1.73 4.25-4.52 5.88-5.58 1.63-1.06 4.84-.98 6.13-1.88 1.3-.9 4.1-4 5.6-4.9 1.53-.9 2.35-.16 3.4-.4 1.05-.2 1.7-.97 2.15-1.57"/><path d="M18.03 35.23c2.34-1.43 4.67-5.28 6.07-6.18 1.4-.9 4.5-1.36 5.55-2.1 1.05-.77 4.84-4.77 5.9-5.6 1.04-.83 4.02.08 5.36-1.96"/><path d="M41.35 26.83c-3.03-1.74-3.74-4-5.37-5.06-1.64-1.06-4.6-1.13-5.9-2.04-1.28-.9-4.3-3.84-5.83-4.75-1.52-.9-2.45-.38-3.5-.6-1.05-.23-2.23-1.28-2.7-1.88"/><path d="M30.73 35.42c-3.1-1.73-5.26-5.88-6.07-6.18-1.5-.56-4.5-1.36-5.55-2.1-1.04-.77-4.83-4.77-5.88-5.6-1.05-.83-4.03.08-5.37-1.96"/></g><path fill="none" stroke="#000" d="M24.38 8.85c3.85 1.07 5.25 3.72 10.97 7.86 4.96 3.6 9.82 2.62 12.78 5.1-6.98 2.25-6.07 5.82-11 9.66-5.83 4.5-8.58 3.14-13.35 8.5-3.3-4.56-6.5-4.04-12.4-7.9-5.52-3.6-5.5-7.83-11.06-9.84 2.3-2.52 7.27-1.1 12.05-5.1 6.08-5.06 7.34-7.3 12-8.27z"/></g></svg>