<svg xmlns="http://www.w3.org/2000/svg" width="48" height="48" xmlns:xlink="http://www.w3.org/1999/xlink"><defs><linearGradient id="a"><stop offset="0" stop-opacity=".502"/><stop offset="1" stop-opacity="0"/></linearGradient><linearGradient id="d" x1="5.786" x2="3.429" y1="36.214" y2="30.786" xlink:href="#a" gradientUnits="userSpaceOnUse" gradientTransform="translate(0 .357)"/><linearGradient id="c" x1="5.786" x2="7.571" y1="36.214" y2="40" xlink:href="#a" gradientUnits="userSpaceOnUse" gradientTransform="translate(0 .357)"/><linearGradient id="b" x1="5.786" x2="3.429" y1="36.214" y2="30.786" xlink:href="#a" gradientUnits="userSpaceOnUse" gradientTransform="translate(16.679 8.464)"/></defs><g><path fill="url(#b)" fill-rule="evenodd" d="M22.54 44.68l-8.8-5.64 10.44-3.58-1.64 9.22z"/><path fill="url(#c)" fill-rule="evenodd" d="M5.93 36.43l5.2 3.93 18.73-9.3L18 29.65l-12.07 6.8z" overflow="visible" enable-background="accumulate"/><path fill="url(#d)" fill-rule="evenodd" d="M5.86 36.57L-.2 31.43l9-2.3-2.94 7.44z"/><path fill="#fff" fill-rule="evenodd" stroke="#555753" d="M25.12 3.3l-2.2.67s-.53.86-.92.98c-.4.13-1.38-.28-1.38-.28l-15.4 4.7s-.53.96-.92 1.06c-.38.1-1.18-.4-1.18-.4l-2.48.76L6 35.97 29.47 24.6 25.12 3.3z" stroke-linejoin="bevel"/><path fill="#b6ffa7" fill-rule="evenodd" d="M7.7 23.3l16.94-5.1 1.07 4.6-16.9 5.34-1.1-4.85z" color="#000" overflow="visible" enable-background="accumulate"/><path fill="#b6ffa7" fill-rule="evenodd" d="M5.43 13.36L22.3 8.5l.9 4.86-16.63 5-1.14-5z" color="#000" overflow="visible" enable-background="accumulate"/><path fill="none" stroke="#302e48" d="M12.07 20.7l-2.36.66 1.5 7.43" color="#000" overflow="visible" enable-background="accumulate"/><path fill="none" stroke="#babdb6" stroke-width="2" d="M4.57 10.97l5.2 23.32" stroke-dasharray="2,2"/><path fill="none" stroke="#302e48" d="M20.1 18.55a4.2 2.43-16 1 1-8.12 2.33 4.2 2.43-16 1 1 8.1-2.33z" overflow="visible" enable-background="accumulate"/><path fill="#d3d7cf" fill-rule="evenodd" stroke="#2e3436" d="M6.06 36.04l9.7-13.98 23.86-10.32L29.47 24.7 6.07 36.05z" stroke-linejoin="bevel"/><path fill="#babdb6" fill-rule="evenodd" stroke="#888a85" stroke-width="2" stroke-dashoffset=".8" d="M12.04 32.08l8.23-11.6" stroke-dasharray="2,2"/><path fill="none" stroke="#babdb6" stroke-width="2" d="M22.13 5.5l5.6 21.9" color="#000" stroke-dasharray="2, 2" overflow="visible" enable-background="accumulate"/><path fill="#fff" fill-rule="evenodd" stroke="#555753" d="M15.76 22.12l6.83 22.1 2.78-1.35s.43-.97.8-1.13c.35-.16 1.2.17 1.2.17l16.45-7.87s.3-.94.65-1.13c.37-.2 1.44.12 1.44.12l1.94-.93-8.52-20.4L15.76 22.1z" stroke-linejoin="bevel"/><path fill="none" stroke="#babdb6" stroke-width="2" d="M19.2 21.25l6.7 20.2" stroke-dasharray="2,2"/><path fill="none" stroke="#babdb6" stroke-width="2" d="M36.58 13.44l7.72 19" stroke-dasharray="2, 2" overflow="visible" enable-background="accumulate" color="#000"/><path fill="#b6ffa7" fill-rule="evenodd" d="M21.04 23.57l15.92-6.7 1.93 4.92-16.36 6.4-1.5-4.63z"/><path fill="#b6ffa7" fill-rule="evenodd" d="M23.8 31.86l16.56-7L42 29.64l-16.86 7.22-1.35-5z"/><path fill="none" stroke="#302e48" d="M27.75 17.36l1.07 3"/><path fill="none" stroke="#302e48" d="M26.18 33.43L31.75 31l1.7 4.57-5.77 2.5-1.5-4.64z"/><path fill="none" stroke="#302e48" d="M33.1 26.32l5.58-2.43 1.7 4.56-5.77 2.5-1.5-4.64z"/><path fill="none" stroke="#302e48" d="M9.82 10.36l7-2.22 1.14 4.57-6.92 2.3-1.22-4.64z"/><path fill="none" stroke="#302e48" d="M14.46 13.86l.93 3.57"/><path fill="none" stroke="#302e48" d="M28.8 20.5l-2.6 3.57 4.1 1.3 2.4-3.44-3.9-1.43z"/><path fill="none" stroke="#302e48" d="M32.43 21.8l2.43-1L36.2 25"/><path fill="none" stroke="#302e48" d="M30.36 25.57l.7 2.07L27.65 29l1.22 3.36"/></g></svg>