<svg xmlns="http://www.w3.org/2000/svg" width="48" height="48" xmlns:xlink="http://www.w3.org/1999/xlink"><defs><linearGradient id="m"><stop offset="0" stop-color="#005298" stop-opacity=".757"/><stop offset="1" stop-color="#005298" stop-opacity="0"/></linearGradient><linearGradient><stop offset="0" stop-color="#dbf5ff" stop-opacity=".243"/><stop offset=".669" stop-color="#bdecff" stop-opacity=".405"/><stop offset="1" stop-color="#559ab6"/></linearGradient><linearGradient id="k"><stop offset="0" stop-color="#fff" stop-opacity=".667"/><stop offset="1" stop-color="#fff" stop-opacity="0"/></linearGradient><radialGradient cx="24.619" cy="14.832" r="17.976" gradientTransform="matrix(1.009 0 0 1.009 0 8.743)" fy="14.832" fx="24.619" gradientUnits="userSpaceOnUse" xlink:href="#a"/><radialGradient cx="24.619" cy="14.832" r="17.976" fy="14.832" fx="24.619" gradientUnits="userSpaceOnUse" xlink:href="#a"/><linearGradient x1="1.582" x2="4.472" y1="11.347" y2="10.046" gradientTransform="matrix(1.009 0 0 1.009 0 8.743)" gradientUnits="userSpaceOnUse" xlink:href="#b"/><radialGradient cx="4.464" cy="15.279" r="8.867" gradientTransform="matrix(1.009 0 0 1.009 0 8.743)" fy="15.279" fx="4.464" gradientUnits="userSpaceOnUse" xlink:href="#c"/><radialGradient cx="36.947" cy="12.435" r="12.918" gradientTransform="matrix(1.009 0 0 1.009 0 8.743)" fy="12.435" fx="36.947" gradientUnits="userSpaceOnUse" xlink:href="#d"/><radialGradient cx="1002.977" cy="-1767.609" r="3.358" fy="-1767.609" fx="1002.977" gradientTransform="matrix(.678 -1.253 .293 .159 -120.691 1563.54)" gradientUnits="userSpaceOnUse" xlink:href="#e"/><radialGradient cx="3.65" cy="25.666" r="16.436" gradientTransform="matrix(1.009 0 0 1.009 0 8.743)" fy="25.666" fx="3.65" gradientUnits="userSpaceOnUse" xlink:href="#f"/><radialGradient cx="21.974" cy="6.552" r="3.592" gradientTransform="matrix(1.009 0 0 1.009 0 8.743)" fy="6.552" fx="21.974" gradientUnits="userSpaceOnUse" xlink:href="#g"/><radialGradient cx="21.484" cy="5.065" r="7.232" gradientTransform="matrix(1.009 0 0 1.009 0 8.743)" fy="5.065" fx="21.484" gradientUnits="userSpaceOnUse" xlink:href="#h"/><radialGradient cx="22.131" cy="5.154" r="2.122" gradientTransform="matrix(1.009 0 0 1.009 0 8.743)" fy="5.154" fx="22.131" gradientUnits="userSpaceOnUse" xlink:href="#i"/><radialGradient cx="4.019" cy="35.203" r="22.264" gradientTransform="matrix(1.009 0 0 1.009 0 8.743)" fy="35.203" fx="4.019" gradientUnits="userSpaceOnUse" xlink:href="#j"/><linearGradient id="b" x1="1.582" x2="4.472" y1="11.347" y2="10.046" gradientUnits="userSpaceOnUse"><stop offset="0" stop-color="#737B87"/><stop offset=".29" stop-color="#BBC2CA"/><stop offset=".547" stop-color="#BBC2CA"/><stop offset=".743" stop-color="#9EA6B3"/><stop offset="1" stop-color="#838B97"/></linearGradient><radialGradient id="l" cx="21.434" cy="-3.174" r="35.217" fx="21.434" fy="-3.174" gradientUnits="userSpaceOnUse"><stop offset=".224" stop-color="#8D9299"/><stop offset=".376" stop-color="#E0E3E5"/><stop offset=".498" stop-color="#DDE0E3"/><stop offset=".604" stop-color="#D0D4D8"/><stop offset=".704" stop-color="#BDC1CA"/><stop offset=".8" stop-color="#A3AAB7"/><stop offset=".816" stop-color="#9EA6B3"/><stop offset=".927" stop-color="#737B87"/><stop offset="1" stop-color="#9EA6B3"/></radialGradient><radialGradient id="a" cx="24.619" cy="14.832" r="17.976" fx="24.619" fy="14.832" gradientUnits="userSpaceOnUse"><stop offset=".106" stop-color="#F3F4F4"/><stop offset=".38" stop-color="#D6D9DD"/><stop offset=".67" stop-color="#9EA6B3"/><stop offset="1" stop-color="#4d5462"/></radialGradient><radialGradient id="c" cx="4.464" cy="15.279" r="8.867" fx="4.464" fy="15.279" gradientUnits="userSpaceOnUse"><stop offset="0" stop-color="#fff"/><stop offset=".34" stop-color="#FDFDFD"/><stop offset=".513" stop-color="#F4F4F5"/><stop offset=".648" stop-color="#E5E6E7"/><stop offset=".763" stop-color="#D0D3D6"/><stop offset=".866" stop-color="#B5BBC1"/><stop offset=".959" stop-color="#98A1AB"/><stop offset="1" stop-color="#8893A0"/></radialGradient><radialGradient cx="24.759" cy="11.482" r="14.104" fx="24.759" fy="11.482" gradientUnits="userSpaceOnUse"><stop offset="0" stop-color="#fff"/><stop offset=".447" stop-color="#F2F3F4"/><stop offset=".558" stop-color="#DDE2E5"/><stop offset=".626" stop-color="#CED5DB"/><stop offset=".832" stop-color="#BBC2CA"/><stop offset=".988" stop-color="#A6ADBA"/><stop offset="1" stop-color="#A4ACB8"/></radialGradient><radialGradient id="d" cx="36.947" cy="12.435" r="12.918" fx="36.947" fy="12.435" gradientUnits="userSpaceOnUse"><stop offset="0" stop-color="#F3F4F4"/><stop offset=".376" stop-color="#E0E3E5"/><stop offset=".506" stop-color="#DDE0E3"/><stop offset=".618" stop-color="#D0D4D8"/><stop offset=".725" stop-color="#BDC1CA"/><stop offset=".827" stop-color="#A3AAB7"/><stop offset=".844" stop-color="#9EA6B3"/><stop offset=".927" stop-color="#737B87"/><stop offset="1" stop-color="#8D9299"/></radialGradient><radialGradient id="e" cx="1002.977" cy="-1767.609" r="3.358" fx="1002.977" fy="-1767.609" gradientTransform="matrix(.672 -1.242 .291 .157 -119.602 1540.764)" gradientUnits="userSpaceOnUse"><stop offset="0" stop-color="#fff"/><stop offset=".5" stop-color="#fff"/><stop offset="1" stop-color="#fff" stop-opacity="0"/></radialGradient><radialGradient cx="12.057" cy="10.16" r="8.432" fx="12.057" fy="10.16" gradientUnits="userSpaceOnUse"><stop offset="0" stop-color="#9EA6B3"/><stop offset="1" stop-color="#737B87"/></radialGradient><radialGradient cx="141.352" cy="-1421.644" r="13.92" fx="141.352" fy="-1421.644" gradientTransform="matrix(1.307 -.011 0 .415 -163.059 596.829)" gradientUnits="userSpaceOnUse"><stop offset=".179" stop-color="#98A4B3"/><stop offset=".693" stop-color="#ADB6C1"/><stop offset="1" stop-color="#D4DBDF"/></radialGradient><radialGradient cx="143.255" cy="-1406.636" r="19.146" fx="143.255" fy="-1406.636" gradientTransform="matrix(1.307 -.011 0 .415 -163.059 596.829)" gradientUnits="userSpaceOnUse"><stop offset="0" stop-color="#E0E3E5"/><stop offset=".48" stop-color="#CED5DB"/><stop offset=".698" stop-color="#BBC2CA"/><stop offset=".818" stop-color="#A6ADBA"/><stop offset=".827" stop-color="#A4ACB8"/></radialGradient><radialGradient id="f" cx="3.65" cy="25.666" r="16.436" fx="3.65" fy="25.666" gradientUnits="userSpaceOnUse"><stop offset=".006" stop-color="#9EA6B3"/><stop offset=".872" stop-color="#4C5159"/><stop offset="1" stop-color="#737B87"/></radialGradient><radialGradient id="g" cx="21.974" cy="6.552" r="3.592" fx="21.974" fy="6.552" gradientUnits="userSpaceOnUse"><stop offset=".006" stop-color="#9EA6B3"/><stop offset=".659" stop-color="#4C5159"/><stop offset="1" stop-color="#737B87"/></radialGradient><radialGradient id="h" cx="21.484" cy="5.065" r="7.232" fx="21.484" fy="5.065" gradientUnits="userSpaceOnUse"><stop offset="0" stop-color="#E0E3E5"/><stop offset=".151" stop-color="#DDE0E3"/><stop offset=".283" stop-color="#D0D4D8"/><stop offset=".408" stop-color="#BDC1CA"/><stop offset=".527" stop-color="#A3AAB7"/><stop offset=".547" stop-color="#9EA6B3"/><stop offset="1" stop-color="#737B87"/></radialGradient><radialGradient id="i" cx="22.131" cy="5.154" r="2.122" fx="22.131" fy="5.154" gradientUnits="userSpaceOnUse"><stop offset="0" stop-color="#E0E3E5"/><stop offset=".151" stop-color="#DDE0E3"/><stop offset=".283" stop-color="#D0D4D8"/><stop offset=".408" stop-color="#BDC1CA"/><stop offset=".527" stop-color="#A3AAB7"/><stop offset=".547" stop-color="#9EA6B3"/><stop offset="1" stop-color="#737B87"/></radialGradient><radialGradient id="j" cx="4.019" cy="35.203" r="22.264" fx="4.019" fy="35.203" gradientUnits="userSpaceOnUse"><stop offset=".006" stop-color="#9EA6B3"/><stop offset=".872" stop-color="#4C5159"/><stop offset="1" stop-color="#737B87"/></radialGradient><radialGradient id="u" cx="17.857" cy="19.25" r="12.679" xlink:href="#k" fx="17.857" fy="19.25" gradientTransform="matrix(1 0 0 .359 0 12.336)" gradientUnits="userSpaceOnUse"/><linearGradient id="o" x1="1.582" x2="4.472" y1="11.347" y2="10.046" xlink:href="#b" gradientUnits="userSpaceOnUse" gradientTransform="matrix(1.009 0 0 1.009 .006 1012.827)"/><radialGradient id="p" cx="21.434" cy="-3.174" r="35.217" xlink:href="#l" gradientUnits="userSpaceOnUse" fx="21.434" fy="-3.174"/><radialGradient id="q" cx="36.947" cy="12.435" r="12.918" xlink:href="#d" gradientUnits="userSpaceOnUse" gradientTransform="matrix(1.009 0 0 1.009 .006 1012.827)" fx="36.947" fy="12.435"/><radialGradient id="r" cx="1002.977" cy="-1767.609" r="3.358" xlink:href="#e" gradientUnits="userSpaceOnUse" gradientTransform="matrix(.678 -1.253 .293 .159 -120.686 2567.624)" fx="1002.977" fy="-1767.609"/><radialGradient id="s" cx="21.974" cy="6.552" r="3.592" xlink:href="#g" gradientUnits="userSpaceOnUse" gradientTransform="matrix(1.009 0 0 1.009 .006 1012.827)" fx="21.974" fy="6.552"/><radialGradient id="t" cx="21.484" cy="5.065" r="7.232" xlink:href="#h" gradientUnits="userSpaceOnUse" gradientTransform="matrix(1.009 0 0 1.009 .006 1012.827)" fx="21.484" fy="5.065"/><radialGradient id="n" cx="23.304" cy="38.938" r="20.804" xlink:href="#m" fx="23.304" fy="38.938" gradientTransform="matrix(1 0 0 .208 0 30.832)" gradientUnits="userSpaceOnUse"/></defs><g><path fill="url(#n)" d="M44.1 38.94a20.8 4.33 0 1 1-41.6 0 20.8 4.33 0 1 1 41.6 0z" transform="matrix(1.157 0 0 1.309 -2.892 -11.149)" color="#000" overflow="visible" enable-background="accumulate"/><g><g fill="none" stroke="#2b2e33" stroke-width="1.419"><path d="M8.77 15.76c-1.3-.38-3.03-.78-4.35-.6-.52.03-.9 2.1 1.9 5.6"/><path d="M5.14 24.18c-3.5-4.03-4.04-6.52-3.88-9.12.04-.62.8-1.72 2.5-2.06 2.3-.44 5.32.52 6.67.6"/></g><path fill="url(#o)" d="M3.97 1019.74c-.53.04-1.03 2.05 1.94 5.75-.46 1.1-.88 2.28-1.2 3.48-3.57-4.13-4.12-6.67-3.96-9.33.04-.64.82-1.77 2.57-2.1 2.34-.47 5.43.52 6.8.6-.63.4-1 .8-1.14 1.13-.14.3-.33.67-.55 1.08-1.3-.4-3.08-.8-4.43-.62z" transform="matrix(.978 0 0 .977 .538 -981.134)"/><g transform="matrix(.987 0 0 .986 .544 8.398)"><radialGradient cx="21.434" cy="-3.174" r="35.217" gradientUnits="userSpaceOnUse" fy="-3.174" fx="21.434"><stop offset=".224" stop-color="#8D9299"/><stop offset=".376" stop-color="#E0E3E5"/><stop offset=".498" stop-color="#DDE0E3"/><stop offset=".604" stop-color="#D0D4D8"/><stop offset=".704" stop-color="#BDC1CA"/><stop offset=".8" stop-color="#A3AAB7"/><stop offset=".816" stop-color="#9EA6B3"/><stop offset=".927" stop-color="#737B87"/><stop offset="1" stop-color="#9EA6B3"/></radialGradient><path fill="url(#p)" d="M34.56 6.4c-.45-1.12-3.65-3.43-12.9-3.43h-.14C12.88 2.97 9.4 5.24 8.87 6.4 7.4 9.57.83 19.57 6.25 25.46c.75.75 2.95 2.12 3.84 2.95 2.18 1.34 5.6 2.6 11.5 2.6 11.25-.07 12.05-3.8 15.34-5.55 5.42-5.9-1.06-15.83-2.38-19.07zM21.74 3.3c-14.5 23.92-7.25 11.95 0 0z"/></g><path fill="none" stroke="#2b2e33" stroke-width=".70168" d="M34.65 14.7c-.44-1.1-3.6-3.37-12.72-3.37h-.15c-8.53 0-11.96 2.23-12.48 3.37-1.45 3.14-7.94 13-2.6 18.8.76.75 2.92 2.1 3.8 2.92 2.17 1.32 5.53 2.56 11.35 2.56 11.1-.07 11.9-3.75 15.15-5.47 5.35-5.8-1.05-15.6-2.35-18.8z"/><path fill="url(#q)" d="M33.3 1036.34c0-1 .86-4.45 3.82-4.45.76 0 .83-.08 1.13-.5.23-.32 2.2-5.1 3.8-6.1.67-.4 1.95-.4 3.33-.18 1.03.16 2.3.5 2.3.83 0 .4-.64.6-1.5.8-.83.2-1.74.22-2.64 2.28-1 2.3-.74 4.42-2.2 6.54-1.2 1.76-3.57 3.6-6.7 3.33-.88-.08-1.33-1.5-1.33-2.56z" transform="matrix(.978 0 0 .977 .538 -981.134)"/><path fill="url(#r)" d="M43.18 1026.3c.54.3-.03 2.42-1.3 4.75-1.25 2.32-2.7 3.96-3.25 3.67-.54-.3.03-2.42 1.3-4.74 1.25-2.33 2.7-3.97 3.25-3.68z" opacity=".8" transform="matrix(.978 0 0 .977 .538 -981.134)"/><path fill="none" stroke="#2b2e33" stroke-width=".70168" d="M36.84 27.02c.74 0 .8-.07 1.1-.47.23-.32 2.15-5 3.73-5.95.65-.4 1.9-.4 3.24-.2 1.03.17 2.26.5 2.26.8 0 .4-.6.6-1.45.8-.8.2-1.7.2-2.58 2.23-.97 2.25-.73 4.3-2.16 6.4-1.18 1.7-3.5 3.52-6.54 3.24"/><path fill="none" stroke="#2b2e33" stroke-width=".98.432" d="M20.96 12.74c0-.22-2.33-1.92-2.33-2.35 0-.32 1.25-1.17 1.46-1.25.16-.08 1.2-.06 1.85-.06.66 0 1.7-.03 1.85.05.22.08 1.46.93 1.46 1.24 0 .42-2.32 2.12-2.32 2.34"/><path fill="url(#s)" d="M25.28 1014.87c0 .43-1.95 2.18-1.95 2.4 0 .17.6.48 1.02.48.42 0-.32.18-.8 0-.5-.18-.4-.3-1.07-.3s-1.7.55-2.5.55c-.78 0-1.1-.3-.4-.37.67-.08.88-.08.88-.36 0-.22-1.95-1.97-1.95-2.4" transform="matrix(.978 0 0 .977 .538 -981.134)"/><path fill="url(#t)" d="M21.9 1015.83c-1.86 0-3.4-.55-3.4-.96 0-.33 1.28-1.2 1.5-1.28.17-.08 1.22-.07 1.9-.07.67 0 1.72 0 1.9.06.2.08 1.48.94 1.48 1.27 0 .4-1.53.96-3.4.96z" transform="matrix(.978 0 0 .977 .538 -981.134)"/><path fill="#626a73" d="M45.2 21.45c-1.96.18-2.34-.27-2.73-.48.48-.32 1.33.1 1.9.16.58.07 1.72.2.83.32z"/></g><path fill="#c8eeff" fill-opacity=".392" stroke="#a40000" stroke-width="1.5" d="M24.2 9.07l9.94 4.88 13.36 7.42v.7l-6.8 9.86c-2.48 3.03-5.64 5.33-9.1 6.28l-4.26 1.15c-5.8.84-11.58.55-17.37-2.1L6.12 34.2 4.3 29.84.9 18.4.6 14.74l2.9-2L19.9 8.8c.8-.17 3.38-.14 4.27.27z"/><path fill="url(#u)" d="M30.54 19.25a12.68 4.55 0 1 1-25.36 0 12.68 4.55 0 1 1 25.36 0z" transform="matrix(.393 .207 -.308 .497 10.057 19.695)" color="#000" overflow="visible" enable-background="accumulate"/><path fill="#fff" fill-opacity=".515" d="M1.5 14.83c5.3 3.58 13.44 5.47 23.75 3.5.6-3.2-.57-6.1-2.7-8.83l-1.92-.08L4.3 13.08z"/></g></svg>