<svg xmlns="http://www.w3.org/2000/svg" width="48" height="48" xmlns:xlink="http://www.w3.org/1999/xlink"><defs><linearGradient id="e" x1="1107.307" x2="1095.363" y1="176.419" y2="189.594" xlink:href="#a" gradientUnits="userSpaceOnUse" gradientTransform="matrix(1.015 0 0 1.368 -1097.372 -228.877)"/><linearGradient id="b" x1="1069.678" x2="1066.847" y1="178.874" y2="183.194" gradientUnits="userSpaceOnUse" gradientTransform="matrix(1.015 0 0 1.015 -1073.384 -162.074)"><stop offset="0" stop-color="#D4DDDF"/><stop offset=".528" stop-color="#fff"/><stop offset="1" stop-color="#D4DDDF"/></linearGradient><linearGradient x1="1069.678" x2="1066.847" y1="178.874" y2="183.194" xlink:href="#b" gradientUnits="userSpaceOnUse" gradientTransform="matrix(1.015 0 0 1.015 -1073.384 -162.074)"/><linearGradient id="c" x1="1072.471" x2="1066.373" y1="176.66" y2="184.198" gradientUnits="userSpaceOnUse" gradientTransform="matrix(1.015 0 0 1.015 -1073.384 -162.074)"><stop offset="0" stop-color="#C8D2D8"/><stop offset=".421" stop-color="#D4DDDF"/><stop offset=".612" stop-color="#D4DDDF"/><stop offset="1" stop-color="#B7C1CA"/></linearGradient><linearGradient x1="1072.471" x2="1066.373" y1="176.66" y2="184.198" xlink:href="#c" gradientUnits="userSpaceOnUse" gradientTransform="matrix(1.015 0 0 1.015 -1073.384 -162.074)"/><linearGradient id="a" x1="1079.588" x2="1068.418" y1="172.449" y2="190.534" gradientUnits="userSpaceOnUse" gradientTransform="matrix(1.015 0 0 1.015 -1073.384 -162.074)"><stop offset=".006" stop-color="#ACB5BE"/><stop offset=".197" stop-color="#C3CDD5"/><stop offset=".742" stop-color="#C3CDD5"/><stop offset="1" stop-color="#A1A9B2"/></linearGradient><linearGradient x1="1079.588" x2="1068.418" y1="172.449" y2="190.534" xlink:href="#a" gradientUnits="userSpaceOnUse" gradientTransform="matrix(1.015 0 0 1.015 -1073.384 -162.074)"/><linearGradient id="d" x1="1097.176" x2="1099.262" y1="182.992" y2="179.317" gradientUnits="userSpaceOnUse" gradientTransform="matrix(1.015 0 0 1.015 -1073.384 -162.074)"><stop offset=".006" stop-color="#BEC6CA"/><stop offset=".893" stop-color="#899099"/></linearGradient><linearGradient x1="1097.176" x2="1099.262" y1="182.992" y2="179.317" xlink:href="#d" gradientUnits="userSpaceOnUse" gradientTransform="matrix(1.015 0 0 1.015 -1073.384 -162.074)"/><linearGradient x1="1107.307" x2="1095.363" y1="176.419" y2="189.594" xlink:href="#a" gradientUnits="userSpaceOnUse" gradientTransform="matrix(1.015 0 0 1.368 -1103.265 -230.413)"/></defs><g><path fill="none" stroke="#eeeeec" stroke-opacity=".502" stroke-width="3" d="M11.08 12.5C20.76 17.4 26.06 29 36.5 34.54" stroke-linecap="round"/><path fill="url(#e)" d="M5.3 20.93c5.4-5.33 14.36-4.04 21.56-8.5 3.1 2.57 9.2 9.6 14.35 13.2-7.7 5.24-15.57 4.12-21.27 9.87-4.02-4.03-9.6-11.24-14.64-14.57z" color="#000" overflow="visible" enable-background="accumulate"/><path fill="#eeeeec" fill-opacity=".502" fill-rule="evenodd" d="M20.22 6.8c-.7.05-1.26.6-1.34 1.32-.08.73.34 1.42 1 1.63 1.5.5 2.95 1.34 4.42 2.4-2.66 1.3-5.54 1.77-8.66 2.47-3.28.74-6.8 1.76-10.18 4.28-.97-.67-1.97-1.3-3.04-1.84-.26-.14-.55-.2-.83-.16-.64.1-1.14.6-1.23 1.25-.1.66.23 1.3.8 1.6.68.34 1.35.74 2 1.15-.97.97-1.94 2.08-2.86 3.38-.47.67-.34 1.62.3 2.12.65.5 1.55.36 2.03-.3.96-1.38 1.93-2.5 2.92-3.45 2.66 2.16 5.12 4.8 7.64 7.57 1.58 1.73 3.2 3.5 4.94 5.18-.8.97-1.52 2.1-2.12 3.38-.27.48-.26 1.1.03 1.56.3.48.8.74 1.34.7.53-.07 1-.42 1.18-.95.5-1.06 1.08-1.94 1.73-2.73 1.9 1.65 3.94 3.18 6.26 4.4.46.3 1.03.3 1.5 0 .45-.28.7-.8.67-1.37-.04-.56-.37-1.06-.86-1.28-1.97-1.05-3.76-2.34-5.45-3.78 2.17-1.6 4.87-2.57 7.95-3.6 3.44-1.14 7.3-2.28 11-4.43 1.43.97 2.9 1.83 4.48 2.54.48.28 1.07.24 1.52-.1.44-.32.68-.9.6-1.46-.1-.57-.5-1.02-1.02-1.2-.98-.43-1.93-.97-2.86-1.55 1.1-.82 2.17-1.74 3.2-2.8.47-.46.6-1.17.33-1.76-.26-.6-.86-.94-1.48-.85-.32.05-.6.2-.84.44-1.2 1.27-2.5 2.3-3.83 3.2-2.7-2.1-5.23-4.6-7.74-7.07-1.48-1.48-2.93-2.95-4.43-4.3.55-.46 1.08-.98 1.6-1.56.43-.44.55-1.12.3-1.7-.24-.56-.8-.9-1.4-.86-.36.02-.7.2-.95.47-.6.67-1.23 1.22-1.87 1.72-1.95-1.53-3.98-2.8-6.2-3.57-.18-.07-.37-.1-.56-.1zm6.58 7.4c1.62 1.4 3.27 3 4.97 4.67 2.2 2.18 4.5 4.42 7 6.44-3.03 1.56-6.2 2.55-9.26 3.57-3.3 1.1-6.57 2.33-9.25 4.5-1.72-1.65-3.36-3.42-5-5.22-2.35-2.56-4.7-5.14-7.35-7.37 2.67-1.8 5.43-2.57 8.33-3.22 3.44-.77 7.1-1.34 10.57-3.37z"/><path fill="none" stroke="#c00" stroke-width=".893" d="M1.7 18.5c9.68 4.92 14.97 16.5 25.4 22.05" stroke-linecap="round"/><path fill="none" stroke="#c00" stroke-width=".828" d="M20.23 8.4c8.82 3.07 15.6 15.48 26.07 20.18" stroke-linecap="round"/><path fill="none" stroke="#c00" stroke-width=".893" d="M46.2 21.74c-10.03 10.36-23.93 6.85-29 17.78" stroke-linecap="round"/><path fill="none" stroke="#c00" stroke-width=".828" d="M29.77 9.9c-8.35 9.12-19.34 2.56-28.4 15.4" stroke-linecap="round"/><path fill="none" stroke="#c00" stroke-width=".893" d="M11 12.5C20.7 17.43 26 29 36.43 34.56" stroke-linecap="round"/><path fill="none" stroke="#000" stroke-width=".5" d="M5.38 20.98c5.6-5.76 14.36-3.97 21.57-8.43 2.9 2.36 9.63 9.54 14.28 13.15-6.72 4.44-15.5 4.1-21.2 9.85-3.9-3.74-11.57-13.1-14.66-14.57z" color="#000" overflow="visible" enable-background="accumulate"/></g></svg>