<svg xmlns="http://www.w3.org/2000/svg" width="48" height="48" xmlns:xlink="http://www.w3.org/1999/xlink"><defs><linearGradient id="l"><stop offset="0" stop-color="#2e3436" stop-opacity=".502"/><stop offset="1" stop-color="#2e3436" stop-opacity="0"/></linearGradient><linearGradient id="a"><stop offset="0" stop-color="#fff"/><stop offset="1" stop-color="#fff" stop-opacity="0"/></linearGradient><linearGradient id="s" x1="13.236" x2="7.752" y1="37.752" y2="42.282" xlink:href="#a" gradientUnits="userSpaceOnUse" gradientTransform="matrix(.639 0 0 .639 -1.348 2.818)"/><linearGradient id="b"><stop offset="0" stop-color="#696969"/><stop offset="1"/></linearGradient><radialGradient id="r" cx="15.415" cy="35.357" r="7.579" xlink:href="#b" gradientUnits="userSpaceOnUse" gradientTransform="matrix(.746 0 0 .727 -3.528 .127)" fx="15.415" fy="35.357"/><linearGradient id="c"><stop offset="0" stop-color="#bdbdbd"/><stop offset=".333" stop-color="#e2e2e2"/><stop offset=".667" stop-color="#a3a3a3"/><stop offset="1" stop-color="#ddd"/></linearGradient><linearGradient id="q" x1="19.395" x2="23.109" y1="30.001" y2="33.439" xlink:href="#c" gradientUnits="userSpaceOnUse" gradientTransform="matrix(.75 0 0 .75 -3.021 -1.35)"/><linearGradient id="d"><stop offset="0" stop-color="#6e3d09"/><stop offset=".242" stop-color="#ea8113"/><stop offset=".621" stop-color="#5c3307"/><stop offset="1" stop-color="#e07c12"/></linearGradient><linearGradient id="p" x1="28.059" x2="33.437" y1="18.868" y2="23.743" xlink:href="#d" gradientUnits="userSpaceOnUse" gradientTransform="matrix(.75 0 0 .75 -3.021 -1.35)"/><linearGradient id="k"><stop offset="0" stop-color="#2e3436"/><stop offset="1" stop-color="#2e3436" stop-opacity="0"/></linearGradient><linearGradient x1="33.92" x2=".244" y1="9.648" y2="17.468" xlink:href="#e" gradientUnits="userSpaceOnUse" gradientTransform="matrix(.981 .192 -.192 .981 9.982 1.665)"/><linearGradient id="e" x1="-165.82" x2="-170.229" y1="-93.99" y2="-103.786" gradientTransform="matrix(-.574 -.819 .819 -.574 -6.75 -152.536)" gradientUnits="userSpaceOnUse"><stop offset="0" stop-color="#6F87A0"/><stop offset="1" stop-color="#fff" stop-opacity="0"/></linearGradient><linearGradient x1="-166.481" x2="-171.122" y1="-94.298" y2="-103.789" xlink:href="#e" gradientUnits="userSpaceOnUse" gradientTransform="matrix(1.431 -2.565 2.494 1.44 516.803 -270.092)"/><radialGradient id="j" cx="306.715" cy="308.31" r="15.121" gradientUnits="userSpaceOnUse" gradientTransform="matrix(0 1 1 0 -222.639 187.377)" fy="308.31" fx="306.715"><stop offset="0" stop-color="#fff"/><stop offset=".685" stop-color="#2C669D"/><stop offset="1" stop-color="#1D3E63"/></radialGradient><radialGradient id="i" cx="215.199" cy="310.457" r="8.577" gradientUnits="userSpaceOnUse" gradientTransform="matrix(0 -1 1 0 -222.639 712.158)" fy="310.457" fx="215.199"><stop offset="0" stop-color="#fff"/><stop offset=".096" stop-color="#D8E7F1"/><stop offset=".253" stop-color="#9FC3DC"/><stop offset=".398" stop-color="#72A6CC"/><stop offset=".527" stop-color="#5292C0"/><stop offset=".635" stop-color="#3E85B9"/><stop offset=".708" stop-color="#3781B6"/><stop offset="1" stop-color="#254A87"/></radialGradient><linearGradient id="h"><stop offset="0"/><stop offset="1" stop-opacity="0"/></linearGradient><linearGradient id="g"><stop offset="0" stop-color="#fff"/><stop offset="1" stop-color="#bfd0dc"/></linearGradient><radialGradient id="f" cx="257.459" cy="35.376" r="68.717" fx="257.459" fy="35.376" gradientUnits="userSpaceOnUse"><stop offset="0" stop-color="#eeeff1"/><stop offset="1" stop-color="#8794A0"/></radialGradient><linearGradient x1="6.541" x2="46.401" y1="25.639" y2="38.51" xlink:href="#f" gradientUnits="userSpaceOnUse" gradientTransform="matrix(1.038 0 0 1.042 -.972 -2.936)"/><linearGradient x1="6.541" x2="46.401" y1="25.639" y2="38.51" xlink:href="#g" gradientUnits="userSpaceOnUse" gradientTransform="matrix(1.038 0 0 1.042 -.972 -2.936)"/><linearGradient x1="24.106" x2="24.106" y1="22.979" y2="38.071" xlink:href="#h" gradientUnits="userSpaceOnUse" gradientTransform="matrix(.931 0 0 .624 51.043 1.668)"/><linearGradient x1="-166.481" x2="-171.122" y1="-94.298" y2="-103.789" xlink:href="#e" gradientUnits="userSpaceOnUse" gradientTransform="matrix(1.431 -2.565 2.494 1.44 516.803 -270.092)"/><linearGradient x1="33.92" x2=".244" y1="9.648" y2="17.468" xlink:href="#e" gradientUnits="userSpaceOnUse" gradientTransform="matrix(.981 .192 -.192 .981 9.982 1.665)"/><radialGradient cx="215.199" cy="310.457" r="8.577" xlink:href="#i" gradientUnits="userSpaceOnUse" gradientTransform="matrix(0 -1 1 0 -222.639 712.158)" fx="215.199" fy="310.457"/><radialGradient cx="306.715" cy="308.31" r="15.121" xlink:href="#j" gradientUnits="userSpaceOnUse" gradientTransform="matrix(0 1 1 0 -222.639 187.377)" fx="306.715" fy="308.31"/><linearGradient x1="-166.481" x2="-171.122" y1="-94.298" y2="-103.789" xlink:href="#e" gradientUnits="userSpaceOnUse" gradientTransform="matrix(2.724 -1.1 1.039 2.686 521.397 85.484)"/><linearGradient x1="33.92" x2=".244" y1="9.648" y2="17.468" xlink:href="#e" gradientUnits="userSpaceOnUse" gradientTransform="matrix(.644 .765 -.765 .644 -43.782 -20.779)"/><radialGradient cx="215.199" cy="310.457" r="8.577" xlink:href="#i" gradientUnits="userSpaceOnUse" gradientTransform="matrix(0 -1 1 0 -222.639 712.158)" fx="215.199" fy="310.457"/><radialGradient cx="306.715" cy="308.31" r="15.121" xlink:href="#j" gradientUnits="userSpaceOnUse" gradientTransform="matrix(0 1 1 0 -222.639 187.377)" fx="306.715" fy="308.31"/><linearGradient x1="6.541" x2="46.401" y1="25.639" y2="38.51" xlink:href="#f" gradientUnits="userSpaceOnUse" gradientTransform="matrix(.966 0 0 .921 52.48 -12.999)"/><linearGradient x1="6.541" x2="46.401" y1="25.639" y2="38.51" xlink:href="#g" gradientUnits="userSpaceOnUse" gradientTransform="matrix(.966 0 0 .921 52.48 -12.999)"/><linearGradient x1="-40.276" x2="-24.453" y1="27.911" y2="59.39" xlink:href="#f" gradientUnits="userSpaceOnUse" gradientTransform="matrix(.966 0 0 .921 52.48 -12.999)"/><linearGradient x1="-34.865" x2="-17.038" y1="22.848" y2="56.963" xlink:href="#g" gradientUnits="userSpaceOnUse" gradientTransform="matrix(.966 0 0 .921 52.48 -12.999)"/><linearGradient x1="-40.276" x2="-24.453" y1="27.911" y2="59.39" xlink:href="#f" gradientUnits="userSpaceOnUse" gradientTransform="matrix(.966 0 0 .921 52.48 -12.999)"/><linearGradient x1="-34.865" x2="-17.038" y1="22.848" y2="56.963" xlink:href="#g" gradientUnits="userSpaceOnUse" gradientTransform="matrix(.966 0 0 .921 52.48 -12.999)"/><linearGradient x1="-40.276" x2="-24.453" y1="27.911" y2="59.39" xlink:href="#f" gradientUnits="userSpaceOnUse" gradientTransform="matrix(.951 0 0 .907 52.28 -12.812)"/><linearGradient x1="-34.865" x2="-17.038" y1="22.848" y2="56.963" xlink:href="#g" gradientUnits="userSpaceOnUse" gradientTransform="matrix(.951 0 0 .907 52.28 -12.812)"/><linearGradient id="m" x1="-40.276" x2="-24.453" y1="27.911" y2="59.39" xlink:href="#f" gradientUnits="userSpaceOnUse" gradientTransform="matrix(.951 0 0 .907 52.28 -12.812)"/><linearGradient id="n" x1="-34.865" x2="-17.038" y1="22.848" y2="56.963" xlink:href="#g" gradientUnits="userSpaceOnUse" gradientTransform="matrix(.951 0 0 .907 52.28 -12.812)"/><linearGradient x1="35.313" x2="35.313" y1="30.625" y2="40.75" xlink:href="#k" gradientUnits="userSpaceOnUse"/><linearGradient id="o" x1="34.125" x2="20" y1="36.813" y2="12.188" xlink:href="#l" gradientUnits="userSpaceOnUse" gradientTransform="matrix(.883 0 0 .883 .051 5.601)"/></defs><g><g color="#000" stroke-linecap="round" stroke-linejoin="round"><path fill="none" stroke="#2e3436" stroke-width="1.72.324" d="M.88 20.57c5.25-2.9 19.67-9.73 22.82-11.2C35.87 13.4 41.14 24.5 41.48 35c-3.45 1.87-20.4 10.7-23.43 12.3-.33-7.63-3.35-21.9-17.17-26.75z" overflow="visible"/><path fill="url(#m)" stroke="url(#n)" stroke-width="1.162" d="M2.42 16.6C8.16 13.42 23.74 6.52 27.2 4.9 40.47 9.35 46 20.88 46.6 33.2c-3.76 2.04-22.16 11.32-25.46 13.08-.5-7.67-5.68-26.13-18.72-29.7z" overflow="visible" transform="matrix(.86 0 0 .86 .588 6.179)"/></g><path fill="url(#o)" fill-rule="evenodd" stroke="#eeeeec" d="M12.08 18.07c5.24 2.5 11.06 9.1 11.92 13.68l-5.85 2.65 12.36 4.42 6.3-13.03-6.4 3.08c-.73-4.63-4.7-12.22-11.03-14.23l-7.3 3.42z"/><g color="#000"><path fill="url(#p)" stroke="#673907" stroke-width="1.32" d="M14.65 16.94l3.05 2.85c5.4-5.3 13.33-18 13.33-18 .32-.9-.8-1.5-1.38-.87 0 0-10.27 10.57-15 16z" stroke-linecap="round" overflow="visible" transform="matrix(.757 0 0 .757 24.222 -.03)"/><path fill="url(#q)" stroke="#888a85" stroke-width="1.32" d="M8.95 24.6l1.68 1.46L17 20.54l.2-.53h.83c-.33-1.18-2.2-3.3-3.62-3.3l.08.82-.5.3-5.03 6.8z" stroke-linecap="round" overflow="visible" transform="matrix(.757 0 0 .757 24.222 -.03)"/><path fill="url(#r)" d="M1.23 30.54c4.95 0 8.7.6 9.42-3 .58-2.92-3.42-4.3-5.4-1.7-1.9 2.48-4.02 4.7-4.02 4.7z" overflow="visible" transform="matrix(.757 0 0 .757 24.222 -.03)"/><path fill="#fff" d="M30.57 19.7a.6.6 0 1 1-1.2 0 .6.6 0 1 1 1.2 0z" opacity=".528" overflow="visible"/><path fill="#fff" d="M36.22 14.16a.56.56 0 1 1-1.12 0 .56.56 0 1 1 1.12 0z" overflow="visible"/><path fill="none" stroke="#fff" stroke-width=".76.32" d="M34.9 14.96l-3 3.5" stroke-linecap="round" stroke-linejoin="round" overflow="visible"/><path fill="url(#s)" d="M2.2 30.05S4.73 28.82 5.8 27c.38-.66 1.24-.1.7.54-1.13 1.4-4.27 2.5-4.27 2.5z" opacity=".428" overflow="visible" transform="matrix(.757 0 0 .757 24.222 -.03)"/><path fill="#fff" d="M47.18 1.04a.17.17 0 1 1-.34 0 .17.17 0 1 1 .34 0z" opacity=".533" overflow="visible"/></g></g></svg>