<svg xmlns="http://www.w3.org/2000/svg" width="48" height="48" xmlns:xlink="http://www.w3.org/1999/xlink"><defs><linearGradient x1="4.727" x2="61.464" y1="501.393" y2="522.143" gradientUnits="userSpaceOnUse"><stop offset=".096" stop-color="#EAEEF1"/><stop offset=".815" stop-color="#A0A8B2"/></linearGradient><radialGradient cx="25.178" cy="495.197" r="15.88" xlink:href="#a" gradientUnits="userSpaceOnUse" fx="25.178" fy="495.197" gradientTransform="matrix(1.063 0 0 1.064 -1.666 -505.983)"/><radialGradient cx="8.46" cy="511.546" r="18.834" gradientUnits="userSpaceOnUse" fy="511.546" fx="8.46"><stop offset=".096" stop-color="#EAEEF1"/><stop offset=".815" stop-color="#A0A8B2"/></radialGradient><radialGradient cx="17.152" cy="492.425" r="7.183" gradientUnits="userSpaceOnUse" fy="492.425" fx="17.152" gradientTransform="matrix(1.063 0 0 1.064 -1.666 -505.983)"><stop offset=".096" stop-color="#EAEEF1"/><stop offset=".815" stop-color="#A0A8B2"/></radialGradient><radialGradient cx="14.063" cy="509.653" r="15.786" gradientUnits="userSpaceOnUse" fy="509.653" fx="14.063"><stop offset=".096" stop-color="#EAEEF1"/><stop offset=".815" stop-color="#A0A8B2"/></radialGradient><radialGradient cx="12.657" cy="526.55" r="26.832" gradientUnits="userSpaceOnUse" fy="526.55" fx="12.657"><stop offset=".096" stop-color="#EAEEF1"/><stop offset=".815" stop-color="#A0A8B2"/></radialGradient><radialGradient cx="29.616" cy="503.102" r="12.952" gradientUnits="userSpaceOnUse" fy="503.102" fx="29.616" gradientTransform="matrix(1.063 0 0 1.064 -1.666 -505.983)"><stop offset=".096" stop-color="#EAEEF1"/><stop offset=".815" stop-color="#A0A8B2"/></radialGradient><radialGradient id="a" cx="25.178" cy="495.197" r="15.88" gradientUnits="userSpaceOnUse" fy="495.197" fx="25.178"><stop offset=".096" stop-color="#EAEEF1"/><stop offset=".815" stop-color="#A0A8B2"/></radialGradient><radialGradient id="b" cx="25.178" cy="495.197" r="15.88" xlink:href="#a" gradientUnits="userSpaceOnUse" fx="25.178" fy="495.197" gradientTransform="matrix(1.063 0 0 1.203 -1.706 -581.102)"/></defs><g><path fill="url(#b)" d="M27.85 36.44c5.24-4.22 12.28-4.68 20.07-4.86-8.1-2.1-11.8-22.55-22.36-22.55-2.86 0-4.52.93-7.73 4.56l-5.18-3.9-2.77 7.52-6.96-6.02-2.5 10.92L8.2 28.3l4.22 8.4 3.95 7.85 3.57-5.85 4.94 1.54 3-3.8z"/><path fill="none" stroke="#676c72" stroke-width=".75" d="M36.26 32.84c-9.67-9.27-7.53-27.17-18.4-19.17"/><path fill="none" stroke="#676c72" stroke-width=".75" d="M12.44 36.78l3.36-6.5 5.8-1c1.92-2.7 3.78-5.9 7.9-7.27 5.4-1.8 7.93 3.2 12.03 3.84"/><path fill="none" stroke="#676c72" stroke-width=".75" d="M3.07 11.5L8.4 22.8l7.2 7.3 4.44 8.52"/><path fill="none" stroke="#676c72" stroke-width=".75" d="M8.22 28.38l.07-5.5 5.1-.4 3.43-2.1c3.52-4.42 4.15-8.8 9.05-10.1 2.5-.68 5.25.43 8.34 4.13"/><path fill="none" stroke="#676c72" d="M.47 22.53l7.75 5.85 4.22 8.4 3.95 7.86 3.35-5.86 4.84 1.53 3.78-4.13c10.9-6.45 13.4-3.4 19.58-4.5"/><path fill="none" stroke="#676c72" stroke-width=".75" d="M9.8 17.37l3.2 4.86 8.8 6.84 2.4 10.42"/><path fill="none" stroke="#676c72" stroke-width=".75" d="M13.23 10.57l3.62 9.7 7.52 4.9L28.9 36.4"/><path fill="none" stroke="#ed2728" stroke-width="2" d="M48.42 30.7c-9.95-2.58-11.8-21.42-22.36-22.55-1.38-.15-2.7.34-3.94.92l-3.8 3.63-5.22-3.84-3.43 7.16-6.2-5.86L.5 22.7"/></g></svg>