<svg xmlns="http://www.w3.org/2000/svg" width="48" height="48" xmlns:xlink="http://www.w3.org/1999/xlink"><defs><linearGradient id="d"><stop offset="0" stop-color="#590b08"/><stop offset="1" stop-color="#590b08" stop-opacity="0"/></linearGradient><linearGradient id="c"><stop offset="0" stop-color="#676c72"/><stop offset="1" stop-color="#2a2c2e"/></linearGradient><radialGradient id="a" cx="27.462" cy="64.743" r="12.032" fx="27.462" fy="64.743" gradientUnits="userSpaceOnUse"><stop offset=".096" stop-color="#eaeef1" stop-opacity=".753"/><stop offset=".815" stop-color="#a0a8b2" stop-opacity=".753"/></radialGradient><linearGradient id="e" x1="29.336" x2="15.586" y1="66.927" y2="82.927" gradientUnits="userSpaceOnUse"><stop offset=".096" stop-color="#EAEEF1"/><stop offset=".815" stop-color="#A0A8B2"/></linearGradient><linearGradient x1="23.532" x2="23.532" y1="63.395" y2="55.327" gradientUnits="userSpaceOnUse" gradientTransform="matrix(1.035 0 0 1.035 -.33 -50.997)"><stop offset="0" stop-color="#fff" stop-opacity="0"/><stop offset=".472" stop-color="#E86712"/><stop offset=".8" stop-color="#D52E0C"/><stop offset="1" stop-color="#CB1009"/></linearGradient><radialGradient cx="27.462" cy="64.743" r="12.032" xlink:href="#a" gradientUnits="userSpaceOnUse" fx="27.462" fy="64.743" gradientTransform="matrix(1.035 0 0 1.035 -.33 -39.745)"/><radialGradient id="b" cx="27.462" cy="64.743" r="12.032" gradientUnits="userSpaceOnUse" fy="64.743" fx="27.462"><stop offset=".096" stop-color="#eaeef1" stop-opacity=".502"/><stop offset=".815" stop-color="#A0A8B2"/></radialGradient><radialGradient cx="27.462" cy="64.743" r="12.032" xlink:href="#b" gradientUnits="userSpaceOnUse" fx="27.462" fy="64.743" gradientTransform="matrix(1.035 0 0 1.035 -.33 -39.745)"/><radialGradient id="f" cx="19.915" cy="65.94" r="12.032" xlink:href="#a" gradientUnits="userSpaceOnUse" gradientTransform="matrix(1.486 .292 -.257 1.307 7.588 -68.755)" fx="19.915" fy="65.94"/><linearGradient id="g" x1="24.142" x2="24.142" y1="23.458" y2="47.997" xlink:href="#c" gradientUnits="userSpaceOnUse" gradientTransform="translate(0 -5.235)"/><linearGradient x1="26.001" x2="25.75" y1="12.847" y2="15.228" xlink:href="#d" gradientUnits="userSpaceOnUse"/></defs><g><path fill="none" stroke="#676c72" stroke-width=".7961900000000001" d="M46.78 31.33l-23.1 10.93L1.5 30.92l23-8.35 22.28 8.76z"/><path fill="url(#e)" d="M45.53 73.74L23.2 84.3 1.77 73.34 24 65.27l21.53 8.47z" transform="matrix(1.035 0 0 1.035 -.33 -44.98)"/><g fill="none" stroke="#737880" stroke-width=".483"><path d="M30.1 39.22L7.8 28.62"/><path d="M36.02 36.42L13.7 26.5"/><path d="M41.62 33.77l-22.4-9.3"/><path d="M17.52 39.12l23.12-10.2"/><path d="M11.82 36.2l23.12-9.53"/><path d="M6.52 33.48l23.05-8.92"/></g><path fill="none" stroke="#ef2929" stroke-width="1.5" d="M24.95 16.86V28" color="#000" overflow="visible"/><path fill="url(#f)" stroke="url(#g)" d="M13.45 25.43c-2.85 2.1-6.7 3.8-11.95 5.5 8.15 4.15 6.18 2.55 10.23 4.6 4.53 2.3 2.85 2.1 11.94 6.73 9.8-4.63 8.48-4.53 12.38-6.54 3.02-1.43 2.16-.33 10.73-4.4-5.23-1.78-8.72-3.67-11.5-5.6-4.74-3.3-7.23-7-11.1-7-4 0-7.4 3.98-10.73 6.7z"/><g fill="none" stroke="#737880" stroke-width=".725"><path d="M36.05 35.72c-1.26-1.68-3.7-5.17-5.9-9.47-2.36-4.55-4.74-7.8-6.97-7.47"/><path d="M30 39.14C25.14 34.9 22.2 27.8 18.03 26.07c-3.54-1.5-6.5 2.64-10.18 2.5"/><path d="M41.6 33.65c-3.78-2.9-4.95-5.83-8.52-9.6"/><path d="M17.52 38.96c5.57-4.17 7.62-10.6 12.62-12.7 3.7-1.58 6.53 2.5 10.36 2.5"/><path d="M11.73 35.54c2.1-2.35 3.17-4.52 6.3-9.47 2.32-3.7 4.13-6.63 5.98-7.13 1.3-.36 3 .46 3 .46"/><path d="M6.43 33.3c3.4-2.1 6.94-7.73 9.27-9.83"/></g><path fill="#ef2929" stroke="#eeeeec" stroke-width="1.00015" d="M28.07 16.74a3.1 3.1 0 1 1-6.2 0 3.1 3.1 0 1 1 6.2 0z" color="#000" stroke-linecap="round" overflow="visible"/><path fill="none" stroke="#ef2929" stroke-width="1.5" d="M10.45 11.57L39.5 21.8"/><path fill="none" stroke="#ef2929" stroke-width="1.5" d="M39.5 11.57L10.45 21.8"/><path fill="none" stroke="#ef2929" stroke-width="1.5" d="M24.95 6.2v11.7" color="#000" overflow="visible"/><path fill="#ef2929" fill-rule="evenodd" d="M7.9 10.4l4.6 3.77 2.3-3.12-6.9-.65z"/><path fill="#ef2929" fill-rule="evenodd" d="M43.56 9.85L39 13.63l-2.34-3.12 6.9-.65z"/><path fill="#ef2929" fill-rule="evenodd" d="M7.4 22.68L12 18.9l2.3 3.13-6.9.65z"/><path fill="#ef2929" fill-rule="evenodd" d="M43.06 23.23l-4.56-3.78-2.33 3.1 6.9.68z"/><path fill="#ef2929" fill-rule="evenodd" d="M25.13 1.1l2.27 6.63-5.1-.02 2.83-6.6z"/></g></svg>