<svg xmlns="http://www.w3.org/2000/svg" width="48" height="48" xmlns:xlink="http://www.w3.org/1999/xlink"><defs><linearGradient><stop offset="0" stop-color="#888a85"/><stop offset=".5" stop-color="#888a85"/><stop offset="1" stop-color="#585955"/></linearGradient><linearGradient><stop offset="0" stop-color="#ffcbcb"/><stop offset="1" stop-color="#ffb2b2"/></linearGradient><linearGradient id="e"><stop offset="0" stop-color="#ef2929"/><stop offset="1" stop-color="#a40000"/></linearGradient><linearGradient id="d"><stop offset="0" stop-color="#2e3436"/><stop offset="1" stop-color="#2e3436" stop-opacity="0"/></linearGradient><linearGradient id="c"><stop offset="0" stop-color="#76868b"/><stop offset="1" stop-color="#2e3436"/></linearGradient><linearGradient id="b"><stop offset="0" stop-color="#fff"/><stop offset="1" stop-color="#c9c9c3"/></linearGradient><linearGradient id="a"><stop offset="0" stop-color="#444d50"/><stop offset="1" stop-opacity="0"/></linearGradient><radialGradient id="m" cx="23.621" cy="49.292" r="23.315" xlink:href="#a" fx="23.621" fy="49.292" gradientTransform="matrix(1.418 -.018 .008 .969 -10.115 -7.143)" gradientUnits="userSpaceOnUse"/><radialGradient id="g" cx="17.95" cy="18.444" r="23.219" xlink:href="#b" fx="17.95" fy="18.444" gradientTransform="matrix(1.102 .002 -.002 .652 -1.788 9.596)" gradientUnits="userSpaceOnUse"/><linearGradient id="h" x1="9.213" x2="40.07" y1="15.937" y2="35.269" xlink:href="#c" gradientUnits="userSpaceOnUse"/><radialGradient id="f" cx="23.929" cy="25.857" r="22.786" xlink:href="#d" fx="23.929" fy="25.857" gradientTransform="matrix(1 0 0 .558 0 11.429)" gradientUnits="userSpaceOnUse"/><linearGradient id="i" x1="5.488" x2="13.515" y1="19.334" y2="20.512" xlink:href="#e" gradientUnits="userSpaceOnUse" gradientTransform="matrix(1 0 0 1.09 0 -2.269)"/><linearGradient id="j" x1="21.976" x2="22.728" y1="11.156" y2="18.177" xlink:href="#e" gradientUnits="userSpaceOnUse"/><linearGradient id="l" x1="36.33" x2="43.888" y1="14.817" y2="13.554" xlink:href="#e" gradientUnits="userSpaceOnUse"/><linearGradient id="k" x1="31.564" x2="32.32" y1="31.309" y2="38.834" xlink:href="#e" gradientUnits="userSpaceOnUse"/></defs><g><path fill="url(#f)" d="M46.7 25.86a22.8 12.7 0 1 1-45.56 0 22.8 12.7 0 1 1 45.57 0z" transform="matrix(1.028 0 0 .844 .427 13.721)" color="#000" overflow="visible" enable-background="accumulate"/><path fill="url(#g)" stroke="url(#h)" stroke-width=".831" d="M46.7 25.86a22.8 12.7 0 1 1-45.56 0 22.8 12.7 0 1 1 45.57 0z" transform="matrix(1.028 0 0 1.409 -.431 -13.625)" color="#000" stroke-linecap="round" stroke-linejoin="round" overflow="visible" enable-background="accumulate"/><path fill="url(#i)" d="M13.67 17.46c-1.76-3.72-9.08-3.4-12.1 2.3-.96 4.17-.06 8.38 3.28 12.55 1.53-7.74 7.1-11.9 10.8-9.5-.92-.94-3-2.9-1.98-5.34z"/><path fill="url(#j)" d="M18.74 19.33c1.24.13 2.7-.38 4.22-1.14 1.55-3.54 3.4-8.5-.1-12.8-2.98-.05-6.53 1-9.82 2.1 3.64 1.5 6.45 6.02 5.7 11.83z"/><path fill="url(#k)" d="M24.18 24.58c1.8 5.86.9 10.85-.4 15.57 5.4.45 10.85-1.57 14.4-3.62-1.57-5.47-3.3-10.54-8.36-12.6-1.93.4-3.75.68-5.64.65z"/><path fill="url(#l)" d="M46.46 18.88c-2.78-3.2-9.44-2.57-11.45 1.86-.4.98-1.7 2.05-2.53 2.36-.8-1.32-1.3-3.15-1.3-4.88 0-4.52 3.93-8.66 7.85-8.66 2.73 1.64 6.05 4.56 7.44 9.32z" color="#000" overflow="visible" enable-background="accumulate"/><path fill="url(#m)" d="M46.7 25.86a22.8 12.7 0 1 1-45.56 0 22.8 12.7 0 1 1 45.57 0z" transform="matrix(.485 0 0 .475 12.614 6.604)" color="#000" overflow="visible" enable-background="accumulate"/><path fill="none" stroke="#fff" stroke-opacity=".622" stroke-width=".433" d="M46.7 25.86a22.8 12.7 0 1 1-45.56 0 22.8 12.7 0 1 1 45.57 0z" transform="matrix(.993 0 0 1.345 .343 -11.992)" stroke-linejoin="round" color="#000" overflow="visible" enable-background="accumulate" stroke-linecap="round"/><path fill="none" stroke="#fff" stroke-opacity=".511" stroke-width="1.3" d="M46.7 25.86a22.8 12.7 0 1 1-45.56 0 22.8 12.7 0 1 1 45.57 0z" transform="matrix(.717 0 0 .825 6.745 -2.135)" stroke-linejoin="round" color="#000" overflow="visible" enable-background="accumulate" stroke-linecap="round"/><path fill="none" stroke="#fff" stroke-opacity=".338" stroke-width="3.9" d="M46.7 25.86a22.8 12.7 0 1 1-45.56 0 22.8 12.7 0 1 1 45.57 0z" transform="matrix(.717 0 0 .825 6.745 -2.135)" stroke-linejoin="round" color="#000" overflow="visible" enable-background="accumulate" stroke-linecap="round"/><path fill="#eeeeec" stroke="#888a85" d="M9.75 32.04c.23-2.9 1.8-6.28 5.5-7.07 1.87 1.25 4.18 1.8 6.72 1.97-1.37 3.2-2.6 6.36-1.97 9.3-4.74.72-8.47-.5-10.25-4.2z"/><g fill="none" stroke="#000"><path d="M13 24.1l.34 4.07"/><path d="M10.94 26.02l4.38-.06"/></g><g fill="none" stroke="#000"><path d="M19.9 27.54l2.22 3.44"/><path d="M19 30.22l3.83-2.12"/></g><g fill="none" stroke="#000"><path d="M9.13 28.53l2.22 3.44"/><path d="M8.22 31.2l3.83-2.1"/></g><g fill="none" stroke="#000"><path d="M18.73 32.74l2.7 3.07"/><path d="M18.23 35.53l3.48-2.67"/></g><g fill="none" stroke="#000"><path d="M10.74 32.67l2.22 3.44"/><path d="M9.83 35.35l3.84-2.12"/></g><g fill="none" stroke="#000"><path d="M14.83 34.6l2.22 3.43"/><path d="M13.92 37.27l3.84-2.12"/></g><g fill="none" stroke="#000"><path d="M16.9 24.5l2.22 3.43"/><path d="M16 27.17l3.83-2.12"/></g></g></svg>