<svg xmlns="http://www.w3.org/2000/svg" width="48" height="48" xmlns:xlink="http://www.w3.org/1999/xlink" version="1"><defs><linearGradient id="a"><stop offset="0"/><stop offset="1" stop-opacity="0"/></linearGradient><radialGradient id="c" cx="33.161" cy="46.365" r="28.435" fx="33.161" fy="46.365" gradientTransform="matrix(-1 0 0 1 55.359 0)" gradientUnits="userSpaceOnUse"><stop offset="0" stop-color="#fff"/><stop offset=".09" stop-color="#F9FAFA"/><stop offset=".211" stop-color="#E8EBED"/><stop offset=".35" stop-color="#CCD2D7"/><stop offset=".5" stop-color="#A5B0B8"/><stop offset=".579" stop-color="#8E9CA6"/><stop offset="1" stop-color="#505359"/></radialGradient><radialGradient id="d" cx="38.921" cy="39.927" r="34.589" fx="38.921" fy="39.927" gradientTransform="matrix(-1 0 0 1 55.359 0)" gradientUnits="userSpaceOnUse"><stop offset="0" stop-color="#fff"/><stop offset="1" stop-color="#8D9BA6"/></radialGradient><radialGradient id="b" cx="24.205" cy="40.568" r="18.837" xlink:href="#a" fx="24.205" fy="40.568" gradientTransform="matrix(1 0 0 .263 0 29.898)" gradientUnits="userSpaceOnUse"/></defs><g><path fill="url(#b)" fill-rule="evenodd" d="M43.04 40.57a18.84 4.95 0 1 1-37.67 0 18.84 4.95 0 1 1 37.67 0z" transform="matrix(1.12 0 0 1.12 -3.139 -2.84)"/><circle cx="27.679" cy="54.053" r="19.018" fill="url(#c)" stroke="#192333" transform="matrix(1.12 0 0 1.12 -7.09 -38.523)"/><g transform="matrix(1.12 0 0 1.12 -7.09 -38.523)"><radialGradient cx="38.921" cy="39.927" r="34.589" fx="38.921" fy="39.927" gradientTransform="matrix(-1 0 0 1 55.359 0)" gradientUnits="userSpaceOnUse"><stop offset="0" stop-color="#fff"/><stop offset="1" stop-color="#8D9BA6"/></radialGradient><path fill="url(#d)" d="M27.68 35.53c-10.2 0-18.52 8.3-18.52 18.52 0 10.2 8.3 18.52 18.52 18.52 10.2 0 18.52-8.3 18.52-18.52 0-10.2-8.3-18.52-18.52-18.52zm0 36.04c-9.66 0-17.52-7.86-17.52-17.52s7.86-17.52 17.52-17.52S45.2 44.4 45.2 54.05s-7.86 17.52-17.52 17.52z"/></g></g></svg>