<svg xmlns="http://www.w3.org/2000/svg" width="48" height="48" xmlns:xlink="http://www.w3.org/1999/xlink"><defs><linearGradient id="m"><stop offset="0" stop-color="#babbb8"/><stop offset="1" stop-color="#888a85" stop-opacity="0"/></linearGradient><linearGradient id="l"><stop offset="0" stop-color="#fff"/><stop offset="1" stop-color="#fff" stop-opacity="0"/></linearGradient><linearGradient id="i"><stop offset="0" stop-color="#eeeeec"/><stop offset="1" stop-color="#eeeeec" stop-opacity="0"/></linearGradient><linearGradient id="h"><stop offset="0" stop-opacity=".607"/><stop offset="1" stop-opacity="0"/></linearGradient><linearGradient id="g"><stop offset="0" stop-color="#ef2929"/><stop offset="1" stop-color="#ef2929" stop-opacity="0"/></linearGradient><linearGradient id="k"><stop offset="0" stop-color="#fff"/><stop offset="1" stop-color="#cdcdcd"/></linearGradient><linearGradient><stop offset="0" stop-color="#888a85"/><stop offset="1" stop-color="#888a85" stop-opacity="0"/></linearGradient><linearGradient id="f"><stop offset="0" stop-color="#9d9d90"/><stop offset="1" stop-color="#575757"/></linearGradient><linearGradient id="n"><stop offset="0" stop-color="#fff"/><stop offset=".122" stop-color="#aeaeae"/><stop offset=".19" stop-color="#c2c2c2"/><stop offset=".346" stop-color="#fbfbfb"/><stop offset=".482" stop-color="#f8f8f7"/><stop offset=".624" stop-color="#9d9d9d"/><stop offset=".873" stop-color="#e1e1e1"/><stop offset="1" stop-color="#c7c7c1"/></linearGradient><linearGradient id="e"><stop offset="0" stop-color="#464f52"/><stop offset="1" stop-color="#2e3436"/></linearGradient><linearGradient id="d"><stop offset="0" stop-color="#7a7a7a"/><stop offset="1"/></linearGradient><linearGradient id="c"><stop offset="0" stop-color="#b1b1b1"/><stop offset="1" stop-color="#5e5e5e"/></linearGradient><linearGradient id="b"><stop offset="0" stop-color="#555753"/><stop offset="1" stop-color="#eeeeec"/></linearGradient><linearGradient id="a"><stop offset="0" stop-color="#eeeeec"/><stop offset="1" stop-color="#898989"/></linearGradient><radialGradient id="p" cx="25.799" cy="17.198" r="10.658" xlink:href="#a" fx="25.799" fy="17.198" gradientTransform="matrix(.965 -.536 .411 .808 -6.281 18.113)" gradientUnits="userSpaceOnUse"/><linearGradient id="u" x1="22.723" x2="34.489" y1="4.251" y2="11.036" xlink:href="#b" gradientUnits="userSpaceOnUse" gradientTransform="matrix(.962 0 0 .962 -.269 .776)"/><linearGradient id="q" x1="19.975" x2="41.291" y1="19.665" y2="19.665" xlink:href="#c" gradientUnits="userSpaceOnUse"/><linearGradient id="w" x1="27.061" x2="33.38" y1="3.245" y2="6.816" xlink:href="#d" gradientUnits="userSpaceOnUse" gradientTransform="matrix(.962 0 0 .962 .074 .089)"/><linearGradient id="v" x1="25.811" x2="34.63" y1="4.674" y2="4.674" xlink:href="#e" gradientUnits="userSpaceOnUse" gradientTransform="matrix(.962 0 0 .962 .074 .089)"/><linearGradient id="s" x1="8.554" x2="25.78" y1="22.71" y2="32.913" xlink:href="#f" gradientUnits="userSpaceOnUse" gradientTransform="matrix(.962 0 0 .962 .074 .089)"/><radialGradient id="y" cx="30.632" cy="9.09" r="9.276" xlink:href="#g" fx="30.632" fy="9.09" gradientTransform="matrix(1.721 1.568 -1.271 1.395 -9.988 -54.394)" gradientUnits="userSpaceOnUse"/><radialGradient id="o" cx="22.274" cy="42.242" r="17.779" xlink:href="#h" fx="22.274" fy="42.242" gradientTransform="matrix(1 0 0 .313 0 29.041)" gradientUnits="userSpaceOnUse"/><radialGradient cx="37.727" cy="31.079" r="2.61" xlink:href="#i" fx="37.727" fy="31.079" gradientTransform="matrix(1.351 .87 -4.861 7.554 105.72 -223.28)" gradientUnits="userSpaceOnUse"/><radialGradient cx="21.483" cy="22.169" r="21.156" xlink:href="#j" gradientUnits="userSpaceOnUse" gradientTransform="matrix(1.087 0 0 1.087 23.644 3.327)" fx="21.483" fy="22.169"/><linearGradient id="j"><stop offset="0" stop-color="#ffae00"/><stop offset="1" stop-color="#ff3600"/></linearGradient><radialGradient cx="21.483" cy="22.169" r="21.156" fy="22.169" fx="21.483" gradientTransform="matrix(.225 .13 -.13 .225 20.847 19.322)" gradientUnits="userSpaceOnUse" xlink:href="#j"/><linearGradient id="z" x1="20.921" x2="30.105" y1="31.049" y2="31.449" xlink:href="#k" gradientUnits="userSpaceOnUse" gradientTransform="matrix(.46 .268 -.266 .464 20.239 7.628)"/><linearGradient id="t" x1="23.858" x2="6.262" y1="31.137" y2="19.47" xlink:href="#l" gradientUnits="userSpaceOnUse"/><linearGradient id="x" x1="30.935" x2="28.342" y1="1.957" y2="6.048" xlink:href="#m" gradientUnits="userSpaceOnUse" gradientTransform="matrix(.947 0 0 1.008 1.7 -.064)"/><linearGradient id="r" x1="11.635" x2="26.919" y1="17.854" y2="26.036" xlink:href="#n" gradientUnits="userSpaceOnUse"/><radialGradient cx="37.727" cy="31.079" r="2.61" xlink:href="#i" gradientUnits="userSpaceOnUse" gradientTransform="matrix(1.351 .87 -4.861 7.554 102.184 -225.654)" fx="37.727" fy="31.079"/></defs><g><path fill="url(#o)" d="M40.05 42.24a17.78 5.56 0 1 1-35.55 0 17.78 5.56 0 1 1 35.55 0z" transform="matrix(.938 0 0 1 -4.82 .404)" color="#000" overflow="visible" enable-background="accumulate"/><path fill="url(#p)" stroke="url(#q)" stroke-width="1.105" d="M40.76 19.67a10.13 7.96 0 1 1-20.25 0 10.13 7.96 0 1 1 20.26 0z" transform="matrix(.798 .444 -.461 .769 9.782 -17.423)" color="#000" stroke-linecap="round" overflow="visible" enable-background="accumulate"/><path fill="none" stroke="#eeeeec" stroke-width="1.235" d="M40.76 19.67a10.13 7.96 0 1 1-20.25 0 10.13 7.96 0 1 1 20.26 0z" transform="matrix(.714 .397 -.412 .688 11.389 -14.394)" color="#000" stroke-linecap="round" overflow="visible" enable-background="accumulate"/><path fill="url(#r)" stroke="url(#s)" d="M16.84 7.25c1 6.62 9 10.64 16 9.24L16.66 45.3c-7.9 1.94-15.74-2.8-16-9.25z" color="#000" stroke-linecap="round" overflow="visible" enable-background="accumulate"/><path fill="none" stroke="url(#t)" d="M16.47 9.8c1.98 5.3 8.6 8.56 14.65 7.75L16.07 44.4C9.02 46.15 2 41.9 1.77 36.15z" color="#000" stroke-linecap="round" overflow="visible" enable-background="accumulate"/><path fill="url(#u)" d="M21.66 4.2c.73 4.74 6.5 7.42 11.5 6.4l.2 1.07c-5.65 1.4-12.42-2.55-12.6-7.17z" color="#000" overflow="visible" enable-background="accumulate"/><path fill="url(#v)" stroke="url(#w)" d="M27.6 1.14c1.85-1.6 5.8 1.08 5.24 3.27l-2.22 4.02c-2.2.54-5.17-1.47-5.25-3.26z" color="#000" stroke-linecap="round" overflow="visible" enable-background="accumulate"/><path fill="none" stroke="url(#x)" d="M28.18 1.92c1.33-1.23 4.17.83 3.76 2.5l-1.6 3.08c-1.57.4-3.7-1.13-3.75-2.5z" color="#000" stroke-linecap="round" overflow="visible" enable-background="accumulate"/><path fill="#eeeeec" d="M31.5 6.4c-.8 1.4-2.2 1.74-2.5.64-.15-.5 0-1.22.36-1.86.8-1.38 2.2-1.74 2.5-.64.14.5 0 1.22-.37 1.87z" color="#000" overflow="visible" enable-background="accumulate"/><path fill="#d34545" stroke="#861e1e" d="M21.15 37.26c-1 .34-2.05.4-3.12-.2-2.9-1.63-3.88-7.23-1.16-11.96 2.73-4.73 8.68-6.08 10.62-5.38 1.93.7 1.72 1.52 2.08 2.6z" color="#000" stroke-linecap="round" overflow="visible" enable-background="accumulate"/><path fill="url(#y)" d="M30.4 6.84l9.3 26.1 12.4-21.1-20.7-6.48c-.66-.05-1.2.87-1 1.48z"/><path fill="url(#z)" stroke="#888a85" d="M22.26 35.38c-.72.25-1.5.42-2.3 0-2.12-1.2-2.83-5.32-.84-8.8 2-3.48 6.35-4.48 7.77-3.96 1.4.5 1.25 1.12 1.52 1.9z" color="#000" stroke-linecap="round" overflow="visible" enable-background="accumulate"/></g></svg>