<svg xmlns="http://www.w3.org/2000/svg" width="48" height="48" xmlns:xlink="http://www.w3.org/1999/xlink"><defs><linearGradient id="s"><stop offset="0" stop-color="#eeeeec"/><stop offset="1" stop-color="#eeeeec" stop-opacity="0"/></linearGradient><linearGradient id="r"><stop offset="0"/><stop offset="1" stop-opacity="0"/></linearGradient><linearGradient id="q"><stop offset="0" stop-color="#f4eff3"/><stop offset=".403" stop-color="#6a6a6a"/><stop offset=".467" stop-color="#4c4243"/><stop offset="1" stop-color="#404040"/></linearGradient><linearGradient id="l"><stop offset="0"/><stop offset=".5" stop-color="#bababa"/><stop offset="1" stop-color="#a1a1a1"/></linearGradient><linearGradient id="k"><stop offset="0" stop-color="#838383"/><stop offset="1"/></linearGradient><linearGradient id="i"><stop offset="0" stop-color="#585657"/><stop offset="1" stop-color="#b7b5ba"/></linearGradient><linearGradient id="h"><stop offset="0" stop-color="#c2c2c4"/><stop offset="1" stop-color="#716f70"/></linearGradient><linearGradient><stop offset="0" stop-color="#737670"/><stop offset="1"/></linearGradient><linearGradient id="d"><stop offset="0" stop-color="#d3d3d3"/><stop offset=".437" stop-color="#d6d6d6"/><stop offset="1" stop-color="#a3a3a3"/></linearGradient><linearGradient id="c"><stop offset="0" stop-color="#fff"/><stop offset="1" stop-color="#fff" stop-opacity="0"/></linearGradient><linearGradient id="b"><stop offset="0" stop-color="#bababa"/><stop offset=".252" stop-color="#fff"/><stop offset=".477" stop-color="#a8a8a8"/><stop offset=".68" stop-color="#5c5c5c"/><stop offset="1" stop-color="#fff"/></linearGradient><linearGradient id="a"><stop offset="0" stop-color="#dfe0dd"/><stop offset="1" stop-color="#7e8276"/></linearGradient><linearGradient id="u" x1="9.76" x2="41.372" y1="3.446" y2="39.625" xlink:href="#a" gradientUnits="userSpaceOnUse" gradientTransform="matrix(1.027 0 0 1.027 -1.012 -1.248)"/><linearGradient x1="33.978" x2="22.72" y1="15.17" y2="14.81" xlink:href="#b" gradientUnits="userSpaceOnUse"/><linearGradient id="x" x1="40.616" x2="42.151" y1="6.271" y2="7.449" xlink:href="#c" gradientUnits="userSpaceOnUse" gradientTransform="matrix(1.027 0 0 1.027 -1.012 -1.248)"/><linearGradient id="y" x1="39.357" x2="43.321" y1="9.589" y2="9.482" xlink:href="#d" gradientUnits="userSpaceOnUse" gradientTransform="matrix(1.027 0 0 1.027 -1.012 -1.248)"/><linearGradient id="z" x1="39.107" x2="42.036" y1="23.125" y2="22.911" xlink:href="#e" gradientUnits="userSpaceOnUse" gradientTransform="matrix(1.027 0 0 1.027 -1.012 -1.248)"/><linearGradient id="e"><stop offset="0" stop-color="#d3d3d3"/><stop offset=".437" stop-color="#d6d6d6"/><stop offset="1" stop-color="#a3a3a3"/></linearGradient><linearGradient x1="39.357" x2="43.321" y1="9.589" y2="9.482" gradientTransform="translate(-39.357 -7.964)" gradientUnits="userSpaceOnUse" xlink:href="#e"/><linearGradient id="w" x1="38.143" x2="40.929" y1="35.375" y2="35.196" xlink:href="#f" gradientUnits="userSpaceOnUse" gradientTransform="matrix(1.027 0 0 1.027 -1.012 -1.248)"/><linearGradient id="f"><stop offset="0" stop-color="#d3d3d3"/><stop offset=".437" stop-color="#d6d6d6"/><stop offset="1" stop-color="#a3a3a3"/></linearGradient><linearGradient x1="39.357" x2="43.321" y1="9.589" y2="9.482" gradientTransform="translate(-39.357 -7.964)" gradientUnits="userSpaceOnUse" xlink:href="#f"/><linearGradient id="g"><stop offset="0" stop-color="#d3d3d3"/><stop offset=".437" stop-color="#d6d6d6"/><stop offset="1" stop-color="#a3a3a3"/></linearGradient><linearGradient x1="39.357" x2="43.321" y1="9.589" y2="9.482" gradientTransform="translate(-39.357 -7.964)" gradientUnits="userSpaceOnUse" xlink:href="#g"/><linearGradient x1="68.616" x2="71.473" y1="14.893" y2="12.571" xlink:href="#h" gradientUnits="userSpaceOnUse" gradientTransform="translate(6.893)"/><linearGradient x1="68.465" x2="68.652" y1="15.732" y2="17.839" xlink:href="#i" gradientUnits="userSpaceOnUse" gradientTransform="translate(2.732 .018)"/><linearGradient x1="68.465" x2="68.652" y1="15.732" y2="17.839" xlink:href="#j" gradientUnits="userSpaceOnUse" gradientTransform="translate(2.732 .018)"/><linearGradient id="j"><stop offset="0" stop-color="#585657"/><stop offset="1" stop-color="#b7b5ba"/></linearGradient><linearGradient x1="68.465" x2="68.652" y1="15.732" y2="17.839" gradientTransform="translate(-67.644 -15.455)" gradientUnits="userSpaceOnUse" xlink:href="#j"/><linearGradient x1="80.211" x2="81.449" y1="13.703" y2="13.703" xlink:href="#k" gradientUnits="userSpaceOnUse"/><linearGradient x1="77.085" x2="78.645" y1="18.963" y2="19.948" xlink:href="#l" gradientUnits="userSpaceOnUse"/><linearGradient x1="77.085" x2="78.645" y1="18.963" y2="19.948" gradientTransform="matrix(1.686 0 0 1.684 -103.723 -4.314)" xlink:href="#m" gradientUnits="userSpaceOnUse"/><linearGradient id="m"><stop offset="0"/><stop offset=".5" stop-color="#bababa"/><stop offset="1" stop-color="#a1a1a1"/></linearGradient><linearGradient x1="72.436" x2="72.731" y1="15.763" y2="17.855" xlink:href="#n" gradientUnits="userSpaceOnUse" gradientTransform="matrix(1.686 0 0 1.684 -99.118 -4.284)"/><linearGradient id="n"><stop offset="0" stop-color="#585657"/><stop offset="1" stop-color="#b7b5ba"/></linearGradient><linearGradient x1="68.616" x2="71.473" y1="14.893" y2="12.571" xlink:href="#o" gradientUnits="userSpaceOnUse" gradientTransform="matrix(1.686 0 0 1.684 -92.104 -4.314)"/><linearGradient id="o"><stop offset="0" stop-color="#c2c2c4"/><stop offset="1" stop-color="#716f70"/></linearGradient><linearGradient x1="80.211" x2="81.449" y1="13.703" y2="13.703" xlink:href="#p" gradientUnits="userSpaceOnUse"/><linearGradient id="p"><stop offset="0" stop-color="#838383"/><stop offset="1"/></linearGradient><linearGradient x1="80.211" x2="81.449" y1="13.703" y2="13.703" gradientTransform="matrix(1.686 0 0 1.684 -103.723 -4.314)" gradientUnits="userSpaceOnUse" xlink:href="#p"/><linearGradient x1="23.238" x2="34.307" y1="16.427" y2="15.195" xlink:href="#b" gradientUnits="userSpaceOnUse"/><linearGradient x1="25.31" x2="32.927" y1="11.087" y2="21.83" xlink:href="#q" gradientUnits="userSpaceOnUse"/><radialGradient id="t" cx="25.75" cy="40.75" r="19.75" xlink:href="#r" fx="25.75" fy="40.75" gradientTransform="matrix(1 0 0 .367 0 25.791)" gradientUnits="userSpaceOnUse"/><linearGradient id="v" x1="17.974" x2="17.477" y1="22.286" y2="44.357" xlink:href="#s" gradientUnits="userSpaceOnUse"/><linearGradient x1="33.978" x2="22.72" y1="15.17" y2="14.81" xlink:href="#b" gradientUnits="userSpaceOnUse"/><linearGradient x1="80.211" x2="81.449" y1="13.703" y2="13.703" xlink:href="#p" gradientUnits="userSpaceOnUse" gradientTransform="matrix(1.686 0 0 1.684 -103.723 -4.314)"/><linearGradient x1="68.616" x2="71.473" y1="14.893" y2="12.571" xlink:href="#o" gradientUnits="userSpaceOnUse" gradientTransform="matrix(1.686 0 0 1.684 -92.104 -4.314)"/><linearGradient x1="72.436" x2="72.731" y1="15.763" y2="17.855" xlink:href="#n" gradientUnits="userSpaceOnUse" gradientTransform="matrix(1.686 0 0 1.684 -99.118 -4.284)"/><linearGradient x1="77.085" x2="78.645" y1="18.963" y2="19.948" xlink:href="#m" gradientUnits="userSpaceOnUse" gradientTransform="matrix(1.686 0 0 1.684 -103.723 -4.314)"/><linearGradient x1="25.31" x2="32.927" y1="11.087" y2="21.83" xlink:href="#q" gradientUnits="userSpaceOnUse"/><linearGradient x1="23.238" x2="34.307" y1="16.427" y2="15.195" xlink:href="#b" gradientUnits="userSpaceOnUse"/><linearGradient id="E" x1="77.085" x2="78.645" y1="18.963" y2="19.948" xlink:href="#m" gradientUnits="userSpaceOnUse" gradientTransform="matrix(1.966 0 0 1.964 -125.581 -8.737)"/><linearGradient id="D" x1="72.436" x2="72.731" y1="15.763" y2="17.855" xlink:href="#n" gradientUnits="userSpaceOnUse" gradientTransform="matrix(1.966 0 0 1.964 -120.211 -8.701)"/><linearGradient id="C" x1="68.616" x2="71.473" y1="14.893" y2="12.571" xlink:href="#o" gradientUnits="userSpaceOnUse" gradientTransform="matrix(1.966 0 0 1.964 -112.032 -8.737)"/><linearGradient id="B" x1="80.211" x2="81.449" y1="13.703" y2="13.703" xlink:href="#p" gradientUnits="userSpaceOnUse" gradientTransform="matrix(1.966 0 0 1.964 -125.581 -8.737)"/><linearGradient id="F" x1="25.31" x2="32.927" y1="11.087" y2="21.83" xlink:href="#q" gradientUnits="userSpaceOnUse"/><linearGradient id="G" x1="23.238" x2="34.307" y1="16.427" y2="15.195" xlink:href="#b" gradientUnits="userSpaceOnUse"/><linearGradient id="A" x1="33.978" x2="22.72" y1="15.17" y2="14.81" xlink:href="#b" gradientUnits="userSpaceOnUse"/></defs><g><path fill="url(#t)" d="M45.5 40.75a19.75 7.25 0 1 1-39.5 0 19.75 7.25 0 1 1 39.5 0z" transform="matrix(1.238 -.166 .165 1.346 -14.246 -13.04)" color="#000" overflow="visible" enable-background="accumulate"/><path fill="#555753" d="M7.4 33.27L4.9.8l3.95 1.45 2.54 43.32z"/><path fill="#888a85" d="M4.9.8L32.56.26l12.3 1.1-36.06.77z" color="#000" overflow="visible" enable-background="accumulate"/><path fill="none" stroke="#555753" stroke-width=".5" d="M11.34 45.47l-4-12.14L4.9.85 32.77.27l12.3 1.15z" stroke-linejoin="round"/><path fill="none" stroke="#daded7" stroke-width=".5" d="M8.8 2.2L4.8.84" stroke-linecap="round"/><path fill="url(#u)" stroke="url(#v)" stroke-width=".5" d="M45 1.42l-3.05 38.34-30.56 5.97-2.6-43.6z" color="#000" stroke-linejoin="round" overflow="visible" enable-background="accumulate"/><path fill="none" stroke="#2e3436" stroke-width=".5" d="M7.07 33.3l4.43 12.4 30.3-6.06" stroke-linecap="round"/><path fill="#fff" fill-opacity=".192" stroke="#2e3436" stroke-width=".5" d="M12.12 6.3c.08-.73.35-1.08 1.03-1.15l28.33-.93c.47 0 1.05.5 1.04 1.1l-2.5 31.48c.03.75-.36 1.2-1.03 1.46l-24.34 4.5c-.5-.02-.9-.26-1.1-.87z" color="#000" overflow="visible" enable-background="accumulate"/><path fill="url(#w)" stroke="#555753" stroke-width=".5" d="M38.06 33.64l-.22 2.75 3.42-.37.22-2.72z" color="#000" stroke-linejoin="round" overflow="visible" enable-background="accumulate"/><path fill="#fff" d="M9.13 2.2a.32.32 0 1 1-.65 0 .32.32 0 1 1 .65 0z" color="#000" overflow="visible" enable-background="accumulate"/><path fill="none" stroke="url(#x)" stroke-width=".5" d="M14.74 42.5c-.3 0-.6-.35-.65-.9L12.66 6.77c-.1-.8.13-1.07 1.03-1.14l27.8-.92c.45.06.75.25.8.7" color="#000" stroke-linecap="round" overflow="visible" enable-background="accumulate"/><g stroke-width=".5"><path fill="url(#y)" stroke="#555753" d="M39.8 7.37l-.12 2.65 3.67-.15.22-2.68z" color="#000" stroke-linejoin="round" overflow="visible" enable-background="accumulate"/><path fill="none" stroke="#fff" d="M40.04 7.7l3.3-.14" stroke-linecap="round"/></g><g stroke-width=".5"><path fill="url(#z)" stroke="#555753" d="M39.05 21.2l-.22 2.72 3.5-.3.25-2.7z" color="#000" stroke-linejoin="round" overflow="visible" enable-background="accumulate"/><path fill="none" stroke="#fff" d="M39.27 21.54l3.1-.22" stroke-linecap="round"/></g><path fill="none" stroke="#fff" stroke-width=".5" d="M38.2 34.12l3.1-.33" stroke-linecap="round"/><path fill="#2e3436" stroke="url(#A)" stroke-width=".27" d="M33.94 15.2a5.45 6.1 0 1 1-10.9 0 5.45 6.1 0 1 1 10.9 0z" transform="matrix(1.607 .892 -.904 1.626 -4.246 -27.771)" color="#000" overflow="visible" enable-background="accumulate"/><path fill="none" stroke="#888a85" stroke-width=".321" d="M33.94 15.2a5.45 6.1 0 1 1-10.9 0 5.45 6.1 0 1 1 10.9 0z" transform="matrix(1.352 .75 -.76 1.368 .845 -19.811)" color="#000" stroke-dasharray="0.3214525, 0.64290501" overflow="visible" enable-background="accumulate"/><path stroke="#000" stroke-width=".401" d="M33.94 15.2a5.45 6.1 0 1 1-10.9 0 5.45 6.1 0 1 1 10.9 0z" transform="matrix(1.085 .602 -.61 1.098 6.171 -11.489)" color="#000" overflow="visible" enable-background="accumulate"/><path fill="url(#B)" d="M32.2 19.04l.1-3.28c.54.32 1.68 1.54 2.1 2.42l-.5 3.13c-.54-.65-1.1-1.93-1.7-2.26z"/><path fill="url(#C)" d="M28.98 17.65l-.8-3.1c-3.82.5-5.83 2.44-6.93 5.14l2.77 1.37c1.53-1.58 3.3-2.7 4.96-3.42z" color="#000" overflow="visible" enable-background="accumulate"/><path fill="url(#D)" d="M20.63 21.92c-.14 1.35-.27 3.25.83 4.93l2.94-1.2c-.67-1.1-.38-1.94-.23-3.04z" color="#000" overflow="visible" enable-background="accumulate"/><path fill="#fff" d="M24.18 25.63l-2.73 1.24c.6 1.27 1.8 2.2 3.07 2.86l1.67-2.03c-.92-.6-1.67-1.08-2.02-2.07z" color="#000" overflow="visible" enable-background="accumulate"/><path fill="url(#E)" d="M26.1 27.6c1.6.6 3.2 1.28 4.87 1.46l-2.35 1.3c-.73.18-2.9-.04-4.14-.66z" color="#000" overflow="visible" enable-background="accumulate"/><path fill="none" d="M28.27 15.04c1.4-.18 3.2.43 3.9.98l.66 2.88c-1-1-2.84-1.63-4-1.7z" color="#000" overflow="visible" enable-background="accumulate"/><path d="M33.14 25.54c-2.14 3.86-7.17 4.22-9.05.65-.88-1.66-.8-3.78.2-5.57 2.13-3.86 7.16-4.22 9.04-.65.87 1.65.8 3.77-.2 5.56z" color="#000" overflow="visible" enable-background="accumulate"/><path fill="url(#F)" stroke="url(#G)" stroke-width=".611" d="M33.94 15.2a5.45 6.1 0 1 1-10.9 0 5.45 6.1 0 1 1 10.9 0z" transform="matrix(.711 .395 -.4 .72 16.766 1.993)" color="#000" overflow="visible" enable-background="accumulate"/><path fill="none" stroke="#eeeeec" stroke-width=".321" d="M33.94 15.2a5.45 6.1 0 1 1-10.9 0 5.45 6.1 0 1 1 10.9 0z" transform="matrix(1.352 .75 -.76 1.368 .845 -19.811)" color="#000" stroke-dasharray="0.32145251, 2.5716201" overflow="visible" enable-background="accumulate"/></g></svg>