<svg xmlns="http://www.w3.org/2000/svg" width="48" height="48"><g><path fill="#5682c3" d="M.28 20.72c-.9-1.83.4-4-.3-5.84.6-2.13.98-4.7 2.97-6 2.78-1.06 5.78.05 8.33 1.2 1.64-.53 4 1.75 4.35 1.98.85-1.15 3.93.1 3.78 1.46 2.6 1.27 5.35 2.22 7.9 3.6.83 1.35 3.37.87 3.8 2.36-1.7.12-3.12-1.05-4.77-1.24 2.14 1.14 4.4 2 6.5 3.22-3.93-.92-7.56-2.75-11.3-4.25-.63-.64-2.97-1.45-3.13-1.2 3.58 2.03 7.55 3.28 11.14 5.28 1.8 1.06 3.6 2.65 5.78 2.63.93.5 1.7 1.3 2.72.94 1 .28.67.77-.17.77.8.57 1.92 1.7.18.9-1.93-.44 1.2.92 1.65 1.1.66.75 3.8 1.1 2-.23-1.07-.3-1.33-1.17-.1-.3.8.1.9-.53 2 .07.77.13 2.04.67.5.4-2.18-.42.34.93.46 1.66.85.67 4.85 1.8 2.8 2.95-1.84-.44-3.17-2.17-5.08-2.38-.3-.02 2.25 1.7.38.95-1.86-1.18-4.35-1.34-5.9-2.98-.07-.13 3 .77.94-.18-1.23-.38-2.44-1.26-3.7-1.3.77.7 1.35 1 0 .58-.95-.4-1.66-.28-.35.35 1.6.73 4.58 2.4 5 3.2-2.9-.87-5.52-2.55-8.5-3.15-1 1.1 2.68.57.73 1.38-.5 1.2 2.3 1.3 1.62 2.56.68.14 2.76 1.84.88.87-.74-.7-3.12-.88-1.06.02 2.27.82 4.33 2.56 6.85 2.45 1.82-.1 3.52 1 5.1 1.8.98.5 1.5 1.16.1.63-2.44-.53-5.03-.9-7.1-2.42-4.26-1.83-8.52-3.62-12.8-5.37-1.66-1.3-4.08-1.2-5.84-2.45-3.52-1.48-6.97-3.1-10.55-4.43-1.16 1.32-2.27-1.93-3.2-.54-1.52-.32-3.26-.1-4.6-1.06z"/><path fill="#8bb0d8" d="M30.76 31.27c.1 0 .14-.05.13-.12-.04-.16-2.18-.98-2.54-.98-.22 0-.2.03.05.2.17.1.34.23.4.26.12.1 1.78.63 1.96.64z"/><path fill="#8bb0d8" d="M27.58 30c.2-.15-.37-.52-1.13-.72-.7-.2-.86-.2-.76.04.06.15 1.77.77 1.88.68z"/><path fill="#8bb0d8" d="M24.8 27.14c.26.04.38.02.26-.03-.1-.04-.3-.2-.4-.32-.16-.18-.28-.24-.5-.23-.45.03-.5.43-.05.5.15 0 .46.05.7.1z"/><path fill="#8bb0d8" d="M22.32 26c.28 0 .34-.18.1-.27-.1-.04-.34-.3-.5-.57l-.33-.5-.73.06c-.66.05-.77.02-1.58-.36-.54-.25-.96-.4-1.08-.36-.38.1-.02.38.8.63.55.17.82.3.92.45.15.23 1.97.93 2.38.92z"/><path fill="#8bb0d8" d="M15.7 23.16c.06-.04.04-.1-.05-.14-.1-.04-.2-.02-.2.04-.03.06 0 .12.05.14.05.03.15 0 .2-.04z"/><path fill="#8bb0d8" d="M16.76 23.56c.06-.04-.03-.13-.23-.2-.2-.08-.3-.07-.3 0s.12.17.22.2c.1.05.25.05.3 0z"/><path fill="#8bb0d8" d="M13.53 22c.15-.27-.16-1.14-.4-1.1-.1.02-.17.14-.18.26-.02.18-.12.23-.45.24-.23 0-.42.04-.44.07-.03.1.6.5.97.63.3.1.4.08.5-.1z"/><path fill="#8bb0d8" d="M11.88 21.26c.05-.3-.22-.6-.4-.45-.1.07-.26.1-.4.07-.13-.03-.34-.04-.45-.02-.16.03 0 .12.5.32.6.23.72.25.75.1z"/><path fill="#8bb0d8" d="M8.14 19.3c.27 0 .3-.04.22-.16-.06-.08-.08-.16-.05-.17.05 0 .23-.05.43-.08.32-.08.35-.1.34-.42-.02-.65-.13-.78-.93-1.18-.68-.33-.83-.37-1.37-.32-.55.04-.62.08-.66.34 0 .16-.02.3 0 .33.07.16.8.55 1.26.67.5.12.52.14.38.34-.1.12-.27.2-.4.2-.22-.03-.2 0 .04.16.16.1.32.2.36.24.04.02.22.04.4.04z"/><path fill="#8bb0d8" d="M12.38 19.87c.13-.22.2-.44.16-.5-.04-.04-.6-.3-1.22-.56l-1.15-.47-.5.26-.5.25.28.34c.2.26.45.4 1.07.65.57.22.83.37.87.5.1.3.7.02.98-.48z"/><path fill="#8bb0d8" d="M17.98 22.7c.3 0 .45.06.64.24.16.16.33.24.48.22.15 0 .8.24 1.73.67 1.67.77 2.07.87 2.2.56.05-.16-.02-.26-.3-.42-.2-.12-.53-.33-.73-.47-.24-.17-.58-.3-1.1-.4-.97-.18-2.2-.77-2.53-1.2-.22-.3-.33-.34-.92-.46-.37-.08-1-.26-1.42-.4-.72-.27-1.18-.24-.68.03.14.08.3.24.37.36.06.12.48.4.94.65.46.24.85.47.87.5.04.1 0 .1.45.1z"/><path fill="#8bb0d8" d="M2.65 16.53c.16-.1.2-.1.43.17.38.42 1.56.85 1.98.7.3-.1.3-.13.22-.3-.05-.13-.28-.35-.5-.52-.35-.26-.44-.3-.76-.2-.3.06-.42.03-.6-.13-.2-.18-.32-.2-.74-.05-.27.1-.5.2-.53.24-.05.14.3.2.5.1z"/><path fill="#8bb0d8" d="M14.2 20.77c.17-.08.26-.2.22-.27-.07-.16-.9-.55-1.03-.5-.17.1-.1.43.1.62.3.28.4.3.7.15z"/><path fill="#8bb0d8" d="M32.28 26.33c0-.18-.26-.36-.52-.36-.28 0-.16.25.2.38.2.08.3.07.32-.02z"/><path fill="#8bb0d8" d="M41.54 29.5c.07 0 .03-.1-.08-.22-.14-.17-.28-.23-.56-.24-.2 0-.73-.14-1.17-.3-.45-.2-.75-.26-.7-.18.1.12 2.18.9 2.5.93z"/><path fill="#8bb0d8" d="M47.04 31.22c.05-.12-.65-.48-.94-.48-.17 0-.18.02-.08.16.15.2.97.46 1.02.32z"/><path fill="#8bb0d8" d="M31.85 25.24c.25-.04-.1-.3-.8-.56-.53-.2-.7-.18-.6.06.07.14 1.2.55 1.4.5z"/><path fill="#8bb0d8" d="M26.33 22.92c.16-.2-.5-.6-1.13-.7-.6-.1-.8-.02-.5.2.33.23 1.54.6 1.63.5z"/><path fill="#8bb0d8" d="M28.64 23.85c0-.17-.35-.4-.62-.4-.3 0-.16.25.24.4.25.1.37.1.38 0z"/><path fill="#8bb0d8" d="M19.92 20.2c.35.05.42.05.22-.04-.16-.07-.33-.25-.4-.4-.1-.34-.3-.43-.45-.24-.1.08-.28.08-.55-.03-.23-.1-.52-.17-.64-.16-.52 0 .9.67 1.82.85z"/><path fill="#8bb0d8" d="M22.97 21.36c.05-.12-.18-.32-.5-.44-.25-.1-.46-.03-.38.13.05.15.83.42.87.3z"/><path fill="#8bb0d8" d="M23.6 21.6c.03-.07-.02-.14-.1-.17-.1-.04-.2-.02-.2.04-.03.06.02.13.1.17.1.03.2 0 .2-.05z"/><path fill="#8bb0d8" d="M29.7 21.7c-.04-.1-1.73-.78-1.83-.73-.05.02.35.2.9.42.53.2.96.33.94.3z"/><path fill="#8bb0d8" d="M13.04 13.85c0-.02-.4-.2-.9-.37l-.94-.34.66.32c.63.3 1.15.48 1.18.4z"/><path fill="#8bb0d8" d="M17.17 15.5c.2 0 .2-.02-.1-.2-.4-.25-1.8-.78-2.36-.9-.35-.07-.4-.06-.26.07.23.2 2.42 1.05 2.73 1.04z"/><path fill="#8bb0d8" d="M21.3 16.24c.03-.06-.05-.14-.16-.18-.1-.05-.25-.05-.3 0-.07.04 0 .12.16.18.14.06.28.06.3 0z"/><path fill="#8bb0d8" d="M38.37 34c0-.07-.28-.22-.6-.34-.6-.24-.8-.5-.3-.43.36.04.98.5 1.08.78.04.15.03.2-.04.18-.05-.02-.12-.1-.13-.17z"/><path fill="#8bb0d8" d="M35.9 32.1c-.1-.13-.06-.16.2-.16.36 0 1.28.48 1.23.64-.04.14-1.28-.27-1.43-.48z"/><path fill="#8bb0d8" d="M33.05 30.9c-.07-.38 1.24-.12 1.63.3.13.16.23.33.2.4-.04.12-1.8-.55-1.83-.7z"/><path fill="#8bb0d8" d="M39.3 30.8c-.12-.35.16-.4.63-.13.43.25.46.34.17.47-.24.1-.72-.1-.8-.35z"/></g></svg>