<svg xmlns="http://www.w3.org/2000/svg" width="48" height="48" xmlns:xlink="http://www.w3.org/1999/xlink"><defs><linearGradient id="f"><stop offset="0" stop-color="#2e3436" stop-opacity=".502"/><stop offset="1" stop-color="#2e3436" stop-opacity="0"/></linearGradient><linearGradient id="e"><stop offset="0" stop-color="#9ea4ac"/><stop offset="1" stop-color="#bec2c8"/></linearGradient><linearGradient id="d"><stop offset="0" stop-color="#fff"/><stop offset="1" stop-color="#c0d4d9"/></linearGradient><linearGradient id="c"><stop offset="0" stop-color="#fff"/><stop offset="1" stop-color="#fff" stop-opacity="0"/></linearGradient><radialGradient id="b" cx="264.957" cy="80.291" r="53.348" fx="264.957" fy="80.291" gradientUnits="userSpaceOnUse"><stop offset="0" stop-color="#BAD1D7"/><stop offset="1" stop-color="#8794A0"/></radialGradient><radialGradient id="a" cx="294.624" cy="80.627" r="48.777" gradientUnits="userSpaceOnUse" fy="80.627" fx="294.624"><stop offset="0" stop-color="#BAD1D7"/><stop offset=".185" stop-color="#cbd9dd"/><stop offset=".265" stop-color="#dce1e4"/><stop offset=".826" stop-color="#6D7580"/><stop offset="1" stop-color="#41454C"/></radialGradient><radialGradient cx="294.624" cy="80.627" r="48.777" fx="294.624" fy="80.627" gradientUnits="userSpaceOnUse"><stop offset="0" stop-color="#BAD1D7"/><stop offset=".185" stop-color="#cbd9dd"/><stop offset=".265" stop-color="#dce1e4"/><stop offset=".826" stop-color="#6D7580"/><stop offset="1" stop-color="#41454C"/></radialGradient><linearGradient><stop offset="0" stop-opacity=".633"/><stop offset="1" stop-opacity="0"/></linearGradient><radialGradient cx="96.07" cy="217.459" r="30.602" fx="96.07" fy="217.459" gradientTransform="matrix(1 0 0 .847 0 28.519)" gradientUnits="userSpaceOnUse"><stop offset="0" stop-color="#fff"/><stop offset=".066" stop-color="#F4F7FA"/><stop offset=".182" stop-color="#D7E1EC"/><stop offset=".335" stop-color="#A7BDD7"/><stop offset=".516" stop-color="#668DB9"/><stop offset=".652" stop-color="#3065A0"/><stop offset=".916" stop-color="#1A3A6B"/></radialGradient><radialGradient cx="-38.266" cy="214.142" r="20.102" fx="-38.266" fy="214.142" gradientTransform="matrix(-1 0 0 1 55.653 0)" gradientUnits="userSpaceOnUse"><stop offset="0" stop-color="#fff"/><stop offset="1" stop-color="#3065A0"/></radialGradient><radialGradient cx="-37.291" cy="214.005" r="19.446" gradientUnits="userSpaceOnUse" gradientTransform="matrix(-1 0 0 .847 55.653 28.519)" fy="214.005" fx="-37.291"><stop offset="0" stop-color="#fff"/><stop offset="1" stop-color="#224987"/></radialGradient><linearGradient x1="-100.206" x2="-83.826" y1="222.647" y2="222.647" gradientTransform="translate(191.69)" gradientUnits="userSpaceOnUse"><stop offset=".028" stop-color="#84A8C9"/><stop offset=".108" stop-color="#88ABCB"/><stop offset=".191" stop-color="#95B5CE"/><stop offset=".253" stop-color="#A3C0D3"/><stop offset=".294" stop-color="#9CBBD0"/><stop offset=".355" stop-color="#88ACCA"/><stop offset=".427" stop-color="#6A94BE"/><stop offset=".508" stop-color="#4177AF"/><stop offset=".511" stop-color="#3F76AF"/><stop offset=".736" stop-color="#224987"/><stop offset=".829" stop-color="#244D8A"/><stop offset=".924" stop-color="#2A5794"/><stop offset="1" stop-color="#3065A0"/></linearGradient><linearGradient id="g" x1="10.343" x2="37.468" y1="25.075" y2="25.075" xlink:href="#a" gradientUnits="userSpaceOnUse" gradientTransform="matrix(.938 0 0 .938 -6.545 .034)"/><linearGradient id="h" x1="13.581" x2="25.942" y1="5.055" y2="10.712" xlink:href="#b" gradientUnits="userSpaceOnUse" gradientTransform="matrix(.938 0 0 .938 -6.545 .034)"/><linearGradient id="i" x1="99.669" x2="99.145" y1="214.562" y2="239.751" xlink:href="#c" gradientUnits="userSpaceOnUse"/><linearGradient id="j" x1="99.669" x2="99.145" y1="214.562" y2="239.751" xlink:href="#c" gradientUnits="userSpaceOnUse"/><linearGradient id="k" x1="99.678" x2="99.678" y1="207.766" y2="215.915" xlink:href="#d" gradientUnits="userSpaceOnUse"/><linearGradient id="l" x1="99.678" x2="99.678" y1="207.766" y2="215.915" xlink:href="#d" gradientUnits="userSpaceOnUse"/><linearGradient id="m" x1="9.049" x2="35.789" y1="25.829" y2="31.385" xlink:href="#e" gradientUnits="userSpaceOnUse" gradientTransform="matrix(1 0 0 .949 0 .772)"/><linearGradient id="n" x1="27.476" x2="38.873" y1="21.192" y2="23.616" xlink:href="#f" gradientUnits="userSpaceOnUse"/></defs><g><path fill="url(#g)" d="M28.6 5.64v27c0 2.26-1.25 4.52-3.73 6.24-4.97 3.44-13.02 3.44-18 0-2.47-1.72-3.72-3.5-3.72-5.77V5.65" color="#000" overflow="visible"/><path fill="url(#h)" d="M6.88 2.36c-4.96 2.43-4.96 6.37 0 8.8 4.97 2.43 13 2.43 17.98 0 4.96-2.43 4.96-6.36 0-8.8-4.97-2.42-13-2.42-17.98 0z" color="#000" overflow="visible"/><g fill="url(#i)" transform="matrix(1.634 0 0 1.583 -146.97 -328.659)"><radialGradient cx="-38.266" cy="214.142" r="20.102" gradientUnits="userSpaceOnUse" gradientTransform="matrix(-1 0 0 1 55.653 0)" fy="214.142" fx="-38.266"><stop fill="url(#i)" offset="0" stop-color="#fff"/><stop fill="url(#i)" offset="1" stop-color="#3065A0"/></radialGradient><path fill="url(#j)" d="M107.38 212.34v16.07c0 1.4-.78 2.7-2.2 3.68-3.05 2.1-7.98 2.1-11.02 0-1.43-1-2.2-2-2.2-3.37v-16.28l.87.46v15.83c0 1.16.47 1.77 1.72 2.63 2.82 1.96 7.4 1.96 10.24 0 1.23-.86 1.7-1.77 1.7-2.92v-15.55l.88-.5z"/></g><g fill="url(#k)" transform="matrix(1.553 0 0 1.553 -138.835 -321.697)"><radialGradient cx="96.07" cy="217.459" r="30.602" gradientUnits="userSpaceOnUse" gradientTransform="matrix(1 0 0 .847 0 28.519)" fy="217.459" fx="96.07"><stop fill="url(#k)" offset="0" stop-color="#fff"/><stop fill="url(#k)" offset=".066" stop-color="#F4F7FA"/><stop fill="url(#k)" offset=".182" stop-color="#D7E1EC"/><stop fill="url(#k)" offset=".335" stop-color="#A7BDD7"/><stop fill="url(#k)" offset=".516" stop-color="#668DB9"/><stop fill="url(#k)" offset=".652" stop-color="#3065A0"/><stop fill="url(#k)" offset=".916" stop-color="#1A3A6B"/></radialGradient><path fill="url(#l)" d="M93.98 208.92c-1.58.77-2.44 1.8-2.44 2.92 0 1.12.86 2.15 2.44 2.92 3.14 1.54 8.26 1.54 11.4 0 1.57-.77 2.44-1.8 2.44-2.92 0-1.1-.87-2.15-2.44-2.92-3.14-1.54-8.26-1.54-11.4 0zm.6 5.3c-1.3-.65-2.03-1.5-2.03-2.38 0-.88.72-1.73 2.03-2.37 2.8-1.37 7.4-1.37 10.2 0 1.3.64 2.03 1.5 2.03 2.37 0 .88-.7 1.73-2.02 2.37-2.8 1.38-7.4 1.38-10.2 0zm-.6-5.3z"/></g><path fill="none" stroke="#003745" stroke-width="1.035" d="M28.58 6.77c0-1.6-1.23-3.2-3.72-4.4-4.97-2.43-13-2.43-17.98 0-2.48 1.2-3.72 2.8-3.72 4.4"/><path fill="none" stroke="#003745" stroke-width="1.035" d="M3.15 6.75V33.1c0 2.27 1.23 4.06 3.72 5.78 4.97 3.44 13.02 3.44 18 0 2.47-1.72 3.7-3.98 3.7-6.23V6.75"/><path fill="url(#m)" stroke="#003745" stroke-width="1.5" d="M.78 29.4l8.44-3.96c11.9 3.75 19.37-.2 19.7-5.02v-2.76L33.2 15l14.17 7.63-26.55 20.4L.78 29.4z" color="#000" overflow="visible"/><path fill="none" stroke="#eeeeec" stroke-width="1.035" d="M2.87 29.45l6.32-2.9c10.8 3.64 20.27-.2 20.7-5.6V18.1l3.37-2.1 12.47 6.78-24.82 19.05L2.87 29.45z" color="#000" overflow="visible"/><path fill="url(#n)" fill-rule="evenodd" d="M18.82 27.06C19.22 27.06 34 29 34 29c4.53-3.1 7.67-6.42 5-10.6l-7.9-2-2.4 1.3-.1 3.94c.14 3.96-5.75 4.37-9.78 5.42z"/></g></svg>