<svg xmlns="http://www.w3.org/2000/svg" width="48" height="48" xmlns:xlink="http://www.w3.org/1999/xlink"><defs><radialGradient id="a" cx="979.047" cy="144.58" r="27.826" fx="979.047" fy="144.58" gradientTransform="matrix(1.592 0 0 1.113 -1552.905 -148.057)" gradientUnits="userSpaceOnUse"><stop offset=".006" stop-color="#F4F8F8"/><stop offset=".84" stop-color="#778ba5"/><stop offset="1" stop-color="#566982"/></radialGradient><linearGradient id="b" x1="985.351" x2="1021.256" y1="185.478" y2="185.478" gradientUnits="userSpaceOnUse" gradientTransform="matrix(1.21 0 0 1.21 -1189.72 -198.61)"><stop offset="0" stop-color="#D7D8D8"/><stop offset=".152" stop-color="#fff"/><stop offset=".388" stop-color="#98A2B2"/><stop offset=".629" stop-color="#B7C3CA"/><stop offset=".786" stop-color="#B7C3CA"/><stop offset=".944" stop-color="#8D97A6"/><stop offset="1" stop-color="#B7C3CA"/></linearGradient><linearGradient id="c" x1="45.708" x2="4.299" y1="12.047" y2="12.475" xlink:href="#a" gradientUnits="userSpaceOnUse" gradientTransform="translate(0 .557)"/></defs><g><path fill="url(#b)" stroke="#363f4c" d="M45.94 4.08V28.8c0 1.47-1.5 3.5-5.92 4.47-8.3 1.83-11.12-.24-18.26 8.2-7.4 8.7-19.27 7.03-19.27.34V16.34"/><path fill="url(#c)" stroke="#ed2829" d="M38.74 1c7 0 11.34 5.14 1.28 7.35-8.3 1.83-11.12-.24-18.26 8.2-7.4 8.7-19.27 7.03-19.27.34C2.5 9.85 18 1 38.73 1z"/><path fill="none" stroke="#ed2829" d="M9.48 21.93V47.4"/></g></svg>