<svg xmlns="http://www.w3.org/2000/svg" width="48" height="48"><g><g><path fill="#98827c" d="M15.48 47.85c-3.65-.4-6.07-3.9-6.6-7.32-.72-2.56-.26-5.77-2.5-7.63-1.25-1.37-2.9-3.67-1.27-5.37 3.56-2.96 5.22-7.38 7.33-11.34 1.37-2.02 3.65-3 5.56-4.38-.52-2.86.1-5.73.3-8.6-1.45-1.86 1.23-4.53 2.54-1.98 2.25 2.5 2.06 6.48 4.8 8.58 3.46 2.3 7.9 1.3 11.66 2.78 1.93.54 5.1.28 5.56 2.8-.47 2.06-2.7 3.25-4.1 4.72-.7 1.76 2.3 2.9 3.1 4.4 2.04 2.05 3.77 4.84 3.1 7.84-.4 3.3-2.57 6.1-5.33 7.87-4.13 3.07-8.83 5.34-13.67 7.05-3.4 1-7 1.16-10.48.57z"/><path fill="#956358" d="M15.7 47.4c-2.84-.34-5.43-2.4-5.98-5.28-.94-2.6-.88-5.48-1.9-8.03-1.03-1.73-3.45-3.06-3-5.34.9-1.45 2.47-2.4 3.3-3.94 1.8-2.55 3.07-5.4 4.5-8.15.92-1.87 2.85-2.72 4.5-3.76 1.93-1.3 1.07-3.7 1.27-5.62.05-2.05.1-4.1.3-6.15 3.04-.45 3.1 3.9 4.4 5.8.58 2.76 3.03 4.2 5.58 4.76 3 .46 6.04.72 9 1.5 1.83.24 6.5 1.18 3.94 3.7-1.7 1.17-5.2 3.32-2.5 5.44 2.16 2.34 5.04 4.58 5.5 7.94.25 3.42-1.35 6.93-4.3 8.78-4.33 3.5-9.4 6.03-14.63 7.88-3.24.95-6.7 1.16-10 .45zM8.95 29.97c-.15-1.64-2.58-1-.73.04.17.17.77.43.74-.04z"/><path fill="#88574d" d="M16.22 47.38c-3-.24-5.7-2.36-6.5-5.28-1.02-2.72-.7-5.84-2.1-8.4-1.12-1.6-3.9-3.54-2.28-5.64 3.84-2.96 5.23-7.8 7.6-11.8 1.25-2.22 4.5-2.34 5.47-4.73-.7-2.72 1.04-5.32.63-8.06C18 2.12 19.58-.17 20.43 2c1.34 1.65.62 4.3 1.45 5.7 1.93-1.4 1.76 2.6 3.78 2.83 2.2.98 4.08 3.32 6.73 2.35 2.5-.1 4.9.96 7.4 1.22 2.54-.45 3 3.17.36 3.15-2.7.72-3.46 4-.86 5.34 1.97 2.18 4.6 4.27 5.08 7.34.1 2.82-.7 5.9-2.86 7.82-2.34.65 1.08-1.98.38-3.15-.87-2.02.3-5.15-1.72-6.45-2.1.1-2.05 3.35-3.82 4.4-1.58 2.07-3.46 3.84-5.4 5.54-1.2 1.73.65 1.5 1.65.62 1.53-.58 1.45 2.3 3.32 1.47 1-.33 2.73.02 1 .9-3.24 2.37-6.98 3.9-10.65 5.43-3.2 1.12-6.7 1.47-10.05.85zM9.6 29.95c.52-1.97-4.08-3.32-2.54-.7.95.76 2.6 2.9 3.3 2.52-.2-.63-.5-1.22-.77-1.82zm22.17.2c.68-2.92-2.96.66-.52.9.3-.2.52-.54.52-.9zm-19.33-2.4c1.1-1.62 5.23-1.95 4.03-4.5-1.66-1.6-4.07 0-5.14 1.57-.7 1.12-3.3 3.24-.52 3.32.57 0 1.2 0 1.64-.4zm14.53-3.72c.23-2.74-4.32-.8-1.74.67.65.1 1.24-.3 1.74-.67zm-8.5-3.94c2.2-1.25 5.1-.54 7.07-2.23-1.02-1.03 1.6-4.7-.53-3.87-1.28 1.65-5-3-4.32.5.95 2.48-1.73 3.38-3.04 4.8-1.1 1.1-.3 1.36.82.8z"/><path fill="#774e45" d="M14.96 46.9c-3.2-.47-5.3-3.56-5.7-6.6-.75-2.8-.27-6.37-2.94-8.2-1.32-.6-2.3-4.5-.22-3.55 1.67 1.04 2.86 3.95 4.74 3.97.17-1.2-2.64-4.6.05-3.45 2.2 2.73 4.3-1.16 6.72-1.62 2.25-1.16 4.76-1.42 7.22-1.78 3.22.23 3.36-4.32.48-4.62-1.07 2.53-4.7 1.27-5.8 3.5-1.4 2.05-1.8-1.66-2.22-2.7 2.17-2.7 6.26-1.37 8.78-3.43.63-1.83 1.07-5-.85-6.23-.98-.17-3 .87-2.22-1.1.6-1.98-2.3-.6-1.17.7-1.68 1.23-5.02 1.33-5.78 4-.62.68.94 2.3-.7 1.68-.2 1.75 1.98 4.82-1.42 4.6-2.7.73-3.6 3.86-6 5.07-1.25-2.04 1.94-3.62 2.54-5.5 1.3-2.3 1.56-5.38 4.1-6.8 1.62-1.32 5-1.8 3.72-4.5.5-2.76 1.6-5.47.66-8.3.16-2.38 2.64 1.9 2.18 2.98-.08 1.67.03 4.67 2.1 3.4 1.56 2.22 4.98 3.56 6.55 5.23 2.78-.96 5.67-.14 8.44.36 1.62-.4 5.22 1.6 2.33 2.67-1.53.9-4.6 2.26-3.52 4.32 2.55 1.73 4.4 4.28 6.38 6.6.97 1.25.6 4.93.14 4.98-.47-2.14-.57-4.97-2.25-6.42-3.04-1.12-4.24 2.37-5.33 4.43-1.3 2.54-3.32 4.47-5.58 6.13-2.25 1.78-3.84 4.18-5.5 6.46-1.1.13-3.8 1.86-1.18 1.88 2.32-.9 4.44-2.42 7.04-2.18 1.03-.12 3.34-1.18 3.6-.57-2.34 1.77-5.22 2.64-7.84 3.93-3.67 1.4-7.77 1.63-11.58.63zm6.8-12.02c-.84-1.7-1.56 2.2-.1.2l.1-.2zm-7.96-1.55c1.06.1 4.16-2.22 1.47-1.3-.98.1-4.1 1.35-2.9 1.78.5-.14.95-.32 1.43-.47zm17.56-1.63c1.16-.96 1.53-5-.4-4.5-.7.92-2.15 5.57.4 4.5zm-11.88-1.12c2.78-1.58-2.77-.02-1.02.53.35-.14.67-.37 1.02-.52z"/><path fill="#6d443b" d="M15.5 46.7c-3.12-.17-5.4-2.98-5.94-5.9-.94-2.72-.16-6.22-2.64-8.2-1.1-.75-2.87-3.77-1.22-4 2.4 1.28 3.7 3.93 5.9 5.28 2.33.07 4.44-1.36 6.55-2.26 1.03-.5 4.04-2.07 1.28-1.88-2.26 1.02-4.37 2.25-6.67 3.15-1.84.65-2.86-2.44-2.26-3.5.7 1.6 2.32 2.73 3.8 1.1 3.68-2.57 8.1-3.7 12.35-4.84 2.7-1.14 1.56-4.53 1.04-6.34 1.6-.84.9-2.2-.62-2.28-.86-1.4-.42-4.2.44-5.04.94 1.3 1.38 3.85 3.3 1.73 3.1-1.12 6.2.84 9.34.57 1.95.25 1.33 2.5-.42 2.35-1.72 1.32-4.12 3.35-5.4 4.22 1.36 2.34-.97 5.35-3.06 3.04-1.48 1.92-1.28 4.66-2.13 6.88-1.08 1.78 1.57 4.03 2.24 1.5.28-1.74 3.83-2.83 2.85-.3-1.4 2.28-4.08 3.3-5.7 5.4-2.2 1.95-4.67 3.63-7.36 4.78-2.26 1.32-5.92-.76-7.33 1.62-.28 1.93 1.9 2.53 3.17 2.13 2.35 1.2 5.1-.2 7.48.48-1.2.9-3.17.65-4.7.75-1.45-.03-2.9-.2-4.32-.42zm4.82-9.64c2.73-.23 6.03-1.7 6.5-4.68-.52-2.2-2.4-.57-3 .54-2.4.58-5.3 1.3-5.68 4.2.27 1.06 1.64.3 2.18-.06zm6.7 8.48c1.9-1.62.88.87 0 0zm7.5-16.3c-1.28-1.5 2.05-3.8 1.5-1.16-.34.47-.72 1.63-1.5 1.17zM8.13 25.6c.14-1.1 2.57-3.02 1.4-.7-.06.6-2.4 2.7-1.4.7zM35.7 23c-.8-3.43 5.25-.35 2.97 1.35-1.2.9-4.07.9-2.97-1.36zm-17.07-.4c-.03-3.06 3.96-2.02 5.85-2.96 2.12.58-1.44 3.1-2.7 3-1.03.25-2.13.23-3.15-.05zm-7.52-1.86c.84-1.56 1.2-4.82 3.33-4.78-1.5 1.57 2.17 5.4-1.4 5.17-.46-.06-2.12.55-1.93-.4zm7.62-9.62c-.86-2.62 1.63-5.2.46-7.8-.76-1.63 1.02-2.4 1.22-.47.56 2.62 1.34 5.8.28 8.3-.47.76-1.74 1.17-1.95-.03zm4.52-1.35c-.3-2.22 1.54 1.8 0 0z"/><path fill="#59342e" d="M11.93 45.07c-2.3-2.37-2.55-5.88-3.08-8.96 0-2.77-3-4.1-3.84-6.5.6-2.3 2.67 1.4 3.74 1.78 1.28 2.2 3.5 3.33 5.9 2.6 1.5 1 3.06-.26 4.28-.16-.05 1.75-4.5 3.9-1.32 4.86 1.48.4 2.66-1.28 3.94-.05 2.43-1.44 4.92-3.46 5.8-6.27.34-1.3-.34-5.3-1.64-2.68-1.43 1.82-3.83 1.77-5.56 3.1-1.8.68-1.36-1.27.08-1.38 2.66-.9.52-3.37-1.3-1.74-1.37.53-4.6 2.54-4.84 1.66 2.27-1.5 4.82-2.83 7.5-3.38 2.37.28 3.86-1.36 5.93-1.92 1-.6 2.38-2.56 1.94-.14-.46 2.83-1.04 5.67-1.87 8.4-1.72 4.5-6.4 8.27-11.4 7.35-2.04-.23-3.86-1.5-4.74-3.36-1.4-.2-.08 2.93.03 3.96.08.33 1.72 3.88.47 2.84zm20.8-22.25c-2.7-.72-3.93-3.15-4.13-5.68-.35-2.52 2.5-3.65 4.6-3.4 2.24.07 4.37.95 6.62.96 2.27 2-2.84 1.56-3.93 2.28-.85 1.5-3.02 2.76-2.14 4.53.5.8-.38 2.86-1.03 1.32zm3.85-.24c-1.22-2.17 2.4-.16 0 0zm-17-.47c-.68-2.6 5.28-2.02 2.77-.06-.87.32-1.9.48-2.77.07zm-7.9-2.06c.1-1.1 1.33-4.3 2-3.06-.3.84-.44 4.47-2 3.06zm7.07-9.27c.25-1.88.62-6.1 1.83-6.42.74 2.25.46 5.55-.92 7.28-.48.04-.84-.43-.9-.86zm.54-8.55c-.54-1.53 1.1.44 0 0z"/><path fill="#2f1916" d="M15.2 40.77c-1.75-1.57-4.26-3.24-4.17-5.86 1.53-1.1 5.74 1.34 2.85 2.5.5 2.2 5.3 1.4 4.7 3.6-1.12.25-2.28-.02-3.38-.23zm-6.92-7.6c-1.25-1-.28-3.87.76-1.34.6 1 .86 3.55-.76 1.34zm-2.34-2c-.7-.83-1.03-3.73.2-1.43.38.5 1.3 2.52-.2 1.42zm16.7-2.05c-1.28-1.9 3.38.56.6.28-.23-.04-.4-.18-.6-.28zm-1.7-7.67c-.32-2.05 3.22.4.7.3-.25 0-.54-.08-.7-.3zm10.5-1.02c-.06-1.84 2.38 1.6 0 0zm-2.12-3.1c-1.17-3.05 4.56-4.2 5.32-1.33-.15 2.14-3.42 1.98-5 1.5-.1-.05-.2-.1-.32-.17zM19.5 9.96c.2-1.6.2 1.58 0 0zm.62-4.34c.05-2.66 1.33 1.65.04.8-.05-.27-.04-.54-.04-.8z"/></g></g></svg>