<svg xmlns="http://www.w3.org/2000/svg" width="48" height="48"><g><g><path fill="#c9998a" d="M25.2 47.74c-.7-1.9.9-3.82.65-5.8.28-2.3-1.2-4.4-.54-6.6-.2-1.75-1.17-3.12-1.24-4.93-.7-2.54-1.92 2.08-1.46 3.14.8 1.47.94 3.1.53 4.72-.4 2.1.66 4.43.25 6.3-.94.87-1.83 3.4-3.34 2.26-.78-2.05 2.63-3.2 1.16-5.44-.85-2.2-1.5-4.45-1.62-6.8-.9-2-.74-4.18-1.07-6.3-.88-4.28 1.56-8.38 1.04-12.65-1.06 2.03-2.6 3.7-4.44 5.03-1.16 1.54-1.37 4.17-3.24 4.93-.94-2.2 1.4-4.04 2.12-5.96.6-2.24 2.23-3.94 3.55-5.7.46-2.07-.76-5.43 2.28-5.9 2.34-.3 2.57-2.45 1.83-4.25C20.8 1.6 23.4-1.3 25.28.93c2 1.6-.37 3.8.8 5.52C27.5 7.74 30.02 7.5 31.1 9.3c.04 1.9 1.17 3.42 1.63 5.2 1.98 1.74 2.38 4.47 2.98 6.88.62 1.45 2.4 4.44.42 5.25-.88-.46.04-2.88-1.44-2.44-.14 2.03-1.17-1.02-.64-1.85.14-2.37-2.76-3.32-3.34-5.55-.46-.66-2.15-3.93-2.3-1.54-.88 2.82.05 5.74.45 8.57.57 2.25.45 4.63-.44 6.78-.43 1.92.08 3.88.15 5.83 0 2.35-1.16 4.52-1.26 6.86.42 1.73.6 4.85-2.12 4.44z"/><path fill="#a39a95" d="M25.45 47.67c.6-.27.54.1 0 0zm-.34-.07c-.24-2.2 1-4.27.8-6.5-.14-2.03-1.16-3.96-.58-6-.4-1.57-1.07-2.94-1.24-4.58-.22-.8-.54-2-.87-.54-1.17 1.84-.57 3.86.08 5.72.1 2.24-.5 4.48.04 6.7.88 1.92-.77 3.27-2.03 4.5-.22-.45-1.68-.6-.92.08-1.8-1.6 2.3-3.03 1.04-4.98-.63-2.4-1.73-4.73-1.77-7.26-.74-1.82-.97-3.77-1.04-5.72-.48-2.3-.27-4.64.25-6.9.44-2.15 1-4.33.68-6.53-1.15 1.87-2.4 3.7-4.33 4.86-1.2 1.67-1.64 3.82-3.22 5.24-.64-.66 1.54-2.72.14-2.76 1.55-2.1 2.18-4.73 3.73-6.8 1.72-1.48 2.32-3.6 1.76-5.73.13-2.6 3.28-2 4.36-3.76.5-1.84-1.2-3.93.2-5.72 1.74-2.05 4.6.62 3.88 2.78-1 1.5-.12 3.52 1.7 3.66 2.03.38 4 1.68 3.7 3.98.8 1.87 1.57 3.67 2.85 5.23 1.05 2.1 1 4.56 2.2 6.57.77.75.62 4.28-.66 2.94-.2-1.5.1-1.22.24-.16.84-2.02-1.1-3.64-1.52-5.5-.3-1.4-.15-4.22-1.97-4.16-.3 1.02-.9.23-1.4.66.22 2.02 2.56 2.67 3.05 4.5.57 1.1-.64 2.7.9 2.3 1.08 1.15-.9-.56-.47.93-.7.96-.66-1.96-.6-2.6.12-2.27-2.74-2.86-3.13-5.03-.66-1-.07-.88.46-1.45-.6-1.02-1.22-2.94-2.33-3.1-.65.7 1.54 3.87.08 1.96-1.25.04-.9 2.83-1.12 3.98.32 2.44.74 4.84 1.14 7.24.17 1.85-.15 3.76-.98 5.43-.06 1.87.36 3.7.3 5.6-.1 2.13-.95 4.16-1.25 6.26.26 1.32.77 4.9-1.2 4.35-.27-.55-.75.07-.94.32zM21.6 45c.8-.8.28-3.74.05-1.35-.03.36-.72 1.2-.06 1.36zm4.8-.5c.84-.94-.36-2-.2-.42.04-.06.1 1 .2.42zm-3.33-1.13c-.1-.56-.43.53 0 0zm3.76-.9c.67-1.92 1.2-4.1.84-6.1-.5-1.88-1.94.15-1.12 1.23.27 1.66.15 3.35.15 5.03l.06-.1.07-.07zm.74-5.7c0-.24.22.04 0 0zm-5.84 5.06c-.03-.87-.36.58 0 0zm.04-.52c.34-1.6-.74-3.25.24-4.78-.5-.75-2.16-2.26-1.83-.2.32 1.7.53 3.9 1.5 5.2zM36.7 25.35c.04-.9-.35.5 0 0zm-.05-.67c0-.9-.3.24 0 0zM13.5 23.1c-.1-1.6 1.38-3.1 2.83-4 .7-.4 3.15-2.66 1.27-2.44-.7.55-1.8.83-.86-.26-1.73.38-1.4 2.86-2.6 3.94-.27.68-1.8 2.28-.64 2.75zm19.17-7.17c.22-.45-.47.14 0 0zm-13.9-.2c.74-.66.85-3.48.07-2.9-.1.68-1.77 3.18-.07 2.9zm-.5-1.77c-.07-.35-.13.58 0 0zm8.85-1.85c.7-.4-.37-2.1 1.1-1 .88.86 1.64-.1 2.32-.18.08-1.86-2.45-3.23-2.57-.66-1-2.08-1.93 1.62-.85 1.85zm3.15-1.07c-.43-.54.5.2 0 0zm-11.46-.3c.26-1.48-.46-.45-.17.3zm4.16 0c.07-1.36-.85-2.67-1.46-.87-.06.88.6 1 1.46.86zm1.08-.22c1.63-.63 2.5-2.64.13-1.64-.82.26-.53 1.5-.66 1.78l.22-.04.32-.1zm4.26-1.44c-.05-.92-1.1.2 0 0zm-.97-.24c.27-.97-.5.72 0 0zm-2.93-.6c.8-.52.6-2.32-.46-1.32-.83-.74-1.15 2.3 0 .87.86-.6-.18.8.46.45zm-1.6-.3c0-.4-.3.23 0 0zm.53-2.04c.1-.4-.4.33 0 0zm.68-.43c.36-1.54-1.25.8 0 0zm-.24-.72c-.7-.3.15.26 0 0zm.6-.4c1.65-.35-.6-2.48-.28-1.65 1.54.5-1.86 1.43.13 1.8zM22.25 4c0-.62-.48.1 0 0zm.7-.06c0-.67-.54.24 0 0zm.13-.96c.1-.86 2.4-1.67.33-1.8-1.36.2 1.34.44-.3.7-1.42-.34.13 1.8-.04 1.1zM11.7 24.96c-.17-.22.1-.18 0 0z"/><path fill="#b68778" d="M25.45 47.67c.6-.27.54.1 0 0zm-.34-.07c-.27-1.78.9-3.47.76-5.28.53-2.33-1.12-4.45-.55-6.73.13-1.88-1.2-3.2-1.17-5.1-.2-.76-.6-2.2-.88-.66-1.2 1.84-.75 3.88-.05 5.78.27 2.27-.64 4.55.13 6.77.8 1.94-.92 3.35-2.13 4.56-.62-.96-1.02 0-1.3-.28.07-2 2.83-3.47 1.26-5.6-.74-2.17-1.42-4.4-1.57-6.7-.72-1.8-.88-3.7-.97-5.6-.96-3.94.9-7.75 1.07-11.66.2-1.02-.17-1.9-.84-.65-.68 2.05-2.74 2.8-3.92 4.43-1 1.3-1.83 4.44-3.1 4.47.13-.53 1.24-2.64.4-2.6 1.48-1.98 2.1-4.45 3.5-6.45 2.06-1.58 2.28-4.08 1.96-6.4.57-2.2 3.93-1.58 4.4-3.66-.12-1.92-1.45-4.87.96-5.9 2.07-.75 3.45 1.94 2.9 3.66-1.4 2.37 1.46 3.6 3.36 3.94 2.56.53 1.53 3.6 2.94 5.06.56 2.34 2.84 3.9 2.95 6.43.1 2.1 1.78 3.77 1.78 5.82-.02 1.9-1.74 1.22-1.14-.4.06.9.32 1.57.43.16.04-1.92-1.7-3.42-1.84-5.37.2-1.26-1.12-4.96-2.3-2.66-2-.9.07 2.33.92 2.65 1.64.6 1.13 3.8 1.5 3.92.9-.07 1.35 1.18.26.34.03 1-.57 1.57-.7.2.37-2.22-.4-4.15-2.23-5.4-.6-1.13-1.93-2.67-.46-3.13-.6-1.02-1.22-2.94-2.33-3.1-.66.7 1.55 3.86.08 1.96-1.32.04-1.06 2.85-1.17 4.03.36 2.4.75 4.8 1.15 7.2.17 1.87-.15 3.8-1.04 5.45.25 1.56.1 3.15.4 4.7.03 2.42-.8 4.74-1.28 7.08.25 1.32.82 5.22-1.4 4.27-.4-.2-.66.35-.7.45zM21.6 45c.8-.8.28-3.74.05-1.35-.03.36-.72 1.2-.06 1.36zm4.8-.5c.84-.94-.36-2-.2-.42.04-.06.1 1 .2.42zm-3.33-1.13c-.1-.56-.43.53 0 0zm3.76-.9c.67-1.92 1.2-4.1.84-6.1-.5-1.88-1.94.15-1.12 1.23.27 1.66.15 3.35.15 5.03l.06-.1.07-.07zm.74-5.7c0-.24.22.04 0 0zm-5.84 5.06c-.03-.87-.36.58 0 0zm.04-.52c.34-1.6-.74-3.25.24-4.78-.5-.75-2.16-2.26-1.83-.2.32 1.7.53 3.9 1.5 5.2zM36.7 25.35c.04-.9-.35.5 0 0zm-.05-.67c0-.9-.3.24 0 0zM13.5 23.1c-.1-1.6 1.38-3.1 2.83-4 .7-.4 3.15-2.66 1.27-2.44-.7.55-1.8.83-.86-.26-1.73.38-1.4 2.86-2.6 3.94-.27.68-1.8 2.28-.64 2.75zm10.87-4.53c1.4-.17 3.65.43 3.35-1.6.76-1.75-1.83-3.57-.55-5.05.87-.4-.65-1.6.7-1.02.76.8 1.63.57 2.1.2 1.67-.1-1.14-3.92-1.7-1.7-.17 1.34-.34.62-1.02.16-.94.22 1.34-3.5-.6-1.7-.4 2.08-2.97-.3-3 1.9.06 1.17-1.08 1.4-.82-.05-.43-1.88-1.36.13-1.45.8-.94-.64-1.06-3-1.56-.83-.46 1.8-.08 3.64.04 5.45.5 1.67-.47 3.9 2.05 3.45.83.05 1.65.02 2.47 0zm5.9-7.54c-.43-.54.5.2 0 0zm-3.56 0c.04-.2.04.18 0 0zm.05-.5c0-.2.07.1 0 0zm-2.25-.26c.62-.66 2.14-1.94.75-.47-.23.2-.46.37-.75.47zm2.3 0c.03-.2.03.18 0 0zm5.87 5.66c.22-.45-.47.14 0 0zm-13.9-.2c.74-.66.85-3.48.07-2.9-.1.68-1.77 3.18-.07 2.9zm-.5-1.77c-.07-.35-.13.58 0 0zm.54-3.22c.26-1.5-.46-.46-.17.3zm9.5-1.68c-.05-.92-1.1.2 0 0zm-3.9-.84c.8-.52.6-2.32-.46-1.32-.83-.74-1.15 2.3 0 .87.86-.6-.18.8.46.45zm-1.6-.3c0-.4-.3.23 0 0zm.53-2.04c.1-.4-.4.33 0 0zm.68-.43c.36-1.54-1.25.8 0 0zm-.56-.52c-.2-.28-.87.12-.27.04zm.32-.2c-.7-.3.15.26 0 0zm.6-.4c1.65-.35-.6-2.48-.28-1.65 1.54.5-1.86 1.43.13 1.8zM22.25 4c0-.62-.48.1 0 0zm.7-.06c0-.67-.54.24 0 0zm.13-.96c-.08-.94 2.33-1.32.55-1.84-1.8.18 1.1.46-.52.74-1.42-.34.13 1.8-.04 1.1zM11.7 24.96c-.17-.22.1-.18 0 0z"/><path fill="#9e7367" d="M24.94 47.23c.7-2.96 1.57-6.2.4-9.15-.35-2 .37-4.03-1-5.82-.1-.75-.26-3.27-.88-3-.77 1.62-1.54 3.64-.5 5.4.86 2.2-.33 4.56.1 6.83.82 1.7.5 3.3-.9 4.47-.66.3 1.36-2.33.8-3.24-1.5-.87-.14-3-.52-4.45.93-1.8 0-4.42-2.24-3.1-.78.53-.14 1.46-.37.05-.6-1.86-1.17-3.7-1.08-5.67-.46-2.13-.54-4.32-.03-6.45.4-2.43 1.22-4.9.9-7.4-.44-.32-1.06 1.42-.5-.08.7-.8.5-4.18-.72-3-.48 1.17-.64 2.92-.7 3.77-1.32-1.85-2.52 1.13-3.06 2.38-.52 1.1-1.5 3.3-2.04 3.48 1.25-1.87 1.9-4.06 3.1-5.96 1.9-1.4 2.54-3.82 1.9-6 .25-2.47 3.78-1.95 4.53-3.92-.06-1.9-1.45-4.55.63-5.88 2.1-1.18 3.8 1.64 3.13 3.5-.36 1.3-1.02 2.73-2.62 2.47-.16 1.25-1.3-.5-1 .97.7 1.06.12 1.65-.96 1.1-1.23-.16-.1 2.6-.68.83-.96-1.7-1.23 2.43-.96 3.3-.08 1.78.72 4.12.38 5.52.67.46 2.62.35 3.8.4 1.1-.27 3.76.4 3.64-.96.32-1.63.27-3.2.53-4.75-.43-.4-1.6.76-.7-.34.37-.62.97-1.78 1.67-.7-1.07-.08.25 2.04-.46 2.95-.86 2.17-.63 4.46-.06 6.66.26 2.68 1.25 5.43.27 8.08-.9 1.58-.5 3.27-.4 4.97.46.85-.13 4.34-.1 1.8.14-2.25-3.16-.34-2.27 1.27.2 2.38.8 4.84-.1 7.17-.5.75-.3 2.12-.04 2.08-.43-.4-.73.7-.9.4zm-2.28-5.68c-.3-1.9-.52 1.44 0 0zM18.9 11.72c.12-1 1.3-4.23-.65-2.24-.35.7-.45 2.2.65 2.24zm2.37-3.76c.23-.5-.53.14 0 0zM23.72 6c1.57-1.12 1.37-3.06 1.3-4.47-1.1-1.97-3.92.2-2.17 1.8-.42 1.2.5.23.4.32.84.64-1.55 1.2.07 1.13-.97 0 .2.98-.65 1.2.27.25.75.2 1.05.02zm-.26-.95c.1-.63.66.33 0 0zm0-1.86c.27-1.1 1.54.37.08.02l-.07-.03zm.85-.76c-1.42.26 0-.72.22.06-.07-.02-.14-.04-.2-.06zm.35-.14c-.08-.25.15.1 0 0zM22.5 5.56c.65-.58-1-.33 0 0zm-.2-1.26c1.16-1.7-1.53-.36 0 0zm.17-1.53c-.73-.73-.5.48 0 0zm4.47 44.2c.16-1.55-.55-4.44.45-5.12-.67 1.67.67 3.44-.23 5.04zm-5.83-.04c.1-.4.37.24 0 0zm-1.26-.38c-.22-1.02 2.38-3.8 1.07-1.6-.07.78-.7 1.4-1.06 1.6zm8.26-7.8c.04-.2.04.18 0 0zm.1-.56c.02-.2.02.18 0 0zm8.02-11.7c-.12-.7.4-2.25.2-.66l-.06.35zm.4-.2c.57-.88-.22-3.56-.36-2.15-.3-1.9-1.4-3.46-1.68-5.38-.1-2.1-1.94-3.36-2.74-5.15-1.36-1.5-.37-4.44-2.6-5.2-.68-.02-2.72.04-1.46-.47-.24-1.1-3.16-.63-2.16-2.15.74 1.96 3.1 1.56 4.63 2.63 1.56 1.1.7 3.3 1.98 4.68.74 2.2 2.76 3.8 2.94 6.22.17 2.23 1.83 4.05 1.75 6.28-.03.24-.07.55-.3.7zm-.4-3.24c-.3-.38.18.57 0 0zm-24.08 2.2c-.26-1.23.38.34 0 0zm22.42-.42c.16-.62.2.54 0 0zm-.3-.04c.07-.5.3.1 0 0zm-21.86-.3c-.2-.8 1.2-2.3.52-.65-.07.25-.17.7-.52.65zm22.14-.32c-.14-.42.3.18 0 0zm.42-.34c-1.03-.06.4-.12 0 0zm-.92-.38c-.2-.9.5-1.96.1-.47-.16.03.05.84-.1.46zm-20-.92c-.18-1.8 2.47-3.34 3.1-3.74-1.32.87-3.14 2.92-3.1 3.74zm17.16-6.22c.1-.92 1.07.25 0 0zm.72-.6c-.4-.96-2.23-3.15-1.25-3.45.4 1 2.44 2.9 1.25 3.46zm-8.7-6.2C22.8 8.1 25.8 8 26.55 8.15c-.9.85-2.6-.1-3.35 1.4z"/><path fill="#4f4530" d="M25.98 43.38c0-.2.08.1 0 0zm-.04-1.17c.04-.18.04.2 0 0zm.15-.12c-.27-.73-.3-3.73-.05-1.47.02.48.3 1.04.04 1.48zm-.95-5.4c1-2-1.05-3.83-.92-5.88-.18-.86-.7-2.74-1.06-.9-1.02 1.38-.4 3.4-.95 4.6-1.2 1.14-3.06.5-2.9-1.18-.9-1.97-.28-4.26-.9-6.33-.2-2.93.86-5.73 1.2-8.6 2.72.47 5.5.24 8.26 0 .5 2.54.84 5.12 1.25 7.66.43 2.3-1.27 4.27-.9 6.47.34 1.7-.43 3.54-2.46 3-.78-.2-.62 2.58-.62 1.14zM17.5 14.63c.07-.65.6-3.67.53-1.62-.16.4-.15 1.6-.52 1.62zm8.06-11.47c.17-1.9-1.48-3.02-3.16-2.4 1.65-1.63 4.42.7 3.16 2.4zm-3.52-.06c.2-.4.56.2 0 0zm1.68-.08c.12-.38.48.2 0 0zm-1.97-.6c.3-.56.42.5 0 0zm2.1-.16c.45-.18.3.2 0 0z"/><path fill="#443b2a" d="M26.04 35.5c-1.57-1.78-1.6-4.22-2.27-6.37-.73.25-1.6 2.8-1.32 4.1.65 2.16-3.5 2.43-3.1.07-.86-1.97-.28-4.22-.9-6.26-.2-2.9.9-5.68 1.17-8.54 1.03.9-1.1 3.28-.23 3.62.4-1.08.66-1.12.15.03-.45.7.04 2.45.55 1.2.87.57.4 1.4.02 1.28 1.18 1.33-.3 2.7.64 4.23 2.24-.52-.5-3.84 1.33-4.6 1.22-.7 2.53 1.35 3.62.13.62.4 1.56 1.3 1.88 1.06.14.78-.37.6-.94.96.1 1.25 1.35-.76 1.9.26.05-1.47-.83-3.26-.53-4.85-.37-1.02-.9-2.26-.14-3.36.4 2.6.86 5.22 1.2 7.84.38 2.23-1.36 4.13-.9 6.3.28 1.47-.26 3.36-2.16 2.9zm.48-8.92c-.2-.3-.3.34 0 0zm.58-.72c-.2-.93-.07.7 0 0zm-.25.14c-.1-.16-.06.16 0 0zm.03-.53c-.3-.32-.1.27 0 0zm1.34-2.56c-.13-.36-.16.23 0 0zM19.9 20.9c.03-.8.2.13 0 0zm.6-.77c-.8-1.55 1.14-1.53.47-.17l-.25.14-.2.04zm4.67-.1c-.8-1.63.9-.86.14.08l-.13-.08z"/><path fill="#373123" d="M26.2 35.52c-1.92-1.68-1.65-4.4-2.48-6.6-1.28 1.12-1.15 3.5-1.47 5.24-.8 1.56-3.1.76-2.88-.9-.87-1.8-.2-3.94-.9-5.83 0-1.1-.3-2.92.6-3.5-.2 1.75.05 3.47.33 5.2.02 1 .67 1.5-.17 2.4.3.54 1.54.68.2.98 1.37.62 3.03-1.02 1.72-1 1.58-1.18 1.92-3.12 1.73-4.97-.28-.74-.98-2.06.57-1.98.92 1.26 2.2 2.63 2.77 4.13.18.96 2.24.92 1.06 2.12-.88.5-.93 2.03.03.95 1.4-1.5.65 1.8.78 2.6.24.8-1.25 1.3-1.88 1.17zm-5.18-2.55c-1.08-.6-1.8.18-.27.1-.1.05.47.04.27-.1zm6.8-1.1c.38-.68-.57.3 0 0zm.13-1.22c.07-.48.32.12 0 0zm.3-.27c.03-1.4.37.1 0 .08v-.08zm-1.66-1.5c.07-.43.6.14 0 0zm2.36-1.13c-.03-.4.2.23 0 0zm.08-.33c0-.27.05.2 0 0zm0-1.3c0-.2.07.1 0 0zm-2.98-.64c.04-.4.15.18 0 0zm2.34-3.26c-.14-.78.3.67 0 0zm-7.82-2.38c-.1-.65.38-1.66.14-.36l-.14.36zm7.42-.2c-.1-.42.15.2 0 0zm-.02-.26c0-.27.06.2 0 0zm-.07-.23c-.03-.46.15.35 0 0z"/></g></g></svg>