<svg xmlns="http://www.w3.org/2000/svg" width="48" height="48"><g><g><path fill="#9c9997" d="M15.27 42.58c.56-4.64 2.58-8.92 3.6-13.46-1.68 2.77-3 5.75-4.93 8.37-.36-2.9 2.47-4.88 2.66-7.67-2.36 2.35-3.9 5.42-6.2 7.8-1.54-.4 1.06-3 1.53-4.1 1.57-2.4 3.25-4.72 4.6-7.23-1.16.38-2.6 2.05-3.88 2.96-1.22.64-2.7 3.1-3.8 2.47.58-1.87 2.83-2.78 3.96-4.38.72-.55 2.96-3.03.75-1.44-3.36 2.1-6.7 4.24-10.24 6 1.2-3.18 5.3-3.4 7.04-6.1-2.44.57-4.48 2.32-6.9 2.83-1.5-.88 3.44-1.93 2.1-2.28-1.1.35-3.85 2.1-4.1.98 2.7-1.8 5.95-2.5 8.65-4.3 2.57-1.22 5.24-2.26 7.8-3.5 2.02-2.2-1.47-4.1-1.65-6.28 0-2.92 3.66-3.22 5.86-3 2.6-.06 5.27-.7 7.33-2.35 2.66-1.26 5.66-1.22 8.52-1.56 2.14-2.47 5.72-3.17 8.8-2.53 2.13 1.1.9 4.08-.93 4.78-1.96.34-4.1.57-5.74 1.92-2.17 1.37-1.02 3.8 1.24 3.98 1.48-.1 2.58 3.12.56 1.8-1.28-.76-2.86-2.92-4.42-1.54 1.6.94 5.3 3.23 3.88 4.85-1.74-.66-2.26-4.28-4.55-3.04 2 2.1 3.4 4.83 4.3 7.55-2.22.2-2.97-2.73-3.7-4.4-.97-2.56-4.76-3.6-6.63-1.46 0 2.43 4.46.44 4.9 3.26.1 2.56 4.06 4.7 1.98 7.47-1.4 2.58-5.68.03-4.1-2.43 1.1-2.7-1.06-5.48-3.9-5.07-2.8.07-5.5 1.98-7.15 4.12-.92 2.1-1.08 4.44-2.08 6.52-1.05 3.08-2.16 6.15-3.25 9.22-.84-.38-.37-2.03-.92-.37-.17.6-.36 1.3-.98 1.6zM20 16.23c1.52-.76-1.27-2.8-.4-.65-.02.24.1.65.4.65z"/><path fill="#86827b" d="M15.45 42.24c.5-4.62 2.56-8.85 3.58-13.34-1.7 2.37-2.73 5.15-4.44 7.52-1.38-.3.8-2.9 1.15-3.9.7-.82 1.94-4.5.28-2.27-1.88 2.3-3.48 4.8-5.4 7.07-1.66-.62 1.15-2.87 1.47-4.02 1.54-2.4 3.24-4.68 4.64-7.17-2.62 1.46-4.85 3.5-7 5.55-1.86-.02 1.12-2.2 1.6-2.77.92-1.03 3.62-3.1 3.22-3.64-3.26 1.86-6.38 3.93-9.6 5.84-2.5-.27 1.93-2.32 2.6-3.02 1-.76 3.4-2.12 3.4-2.7-2.74.9-5.12 2.67-7.94 3.28.16-1.53 3.26-1.3 2.96-2.6-1.45.53-4.18 2.13-4.96 1.5 5.4-2.76 10.9-5.35 16.47-7.72 2.55-1.53-.03-4.1-1-5.73-.96-3.05 2.46-4.17 4.82-3.67 3-.14 6.18-.66 8.54-2.68 2.82-1.53 6.35-.3 9.1-2.07 2-1.55 4.66-2.53 7.18-1.78 3.1.8 1.15 4.74-1.34 4.67-2.37.37-6.7 1.8-5.75 4.82 1.07 1.2 4.68 1.25 3.9 3.4-1.86-.65-3.3-3.28-5.57-2.27.87 1.2 3.43 1.9 4.1 3.77 1 2.7-1.8 0-2.35-1.1-.48-1.67-3.48-1.27-1.6.3 1.3 2.06 3.3 4.2 3.35 6.65-1.6-.05-2.32-2.17-2.97-3.47-.74-2.13-2.76-4.3-5.23-3.64-1.83-.18-2.93 2.9-.55 2.32 3.35.3 4.06 4.1 5.75 6.3 1.44 2.4-1.73 6-3.9 3.48-2.15-2.2 1.74-5.67-1.62-7.24-2.5-.76-5.56-.54-7.6 1.33-2.4 1.46-3.1 4.27-3.7 6.8-1.2 3.63-2.47 7.24-3.8 10.82-.76.14-.14-2.4-.83-.46-.26.63-.38 1.4-.97 1.84zm1.56-1.3c-.42.17.67.57 0 0zm.25-.87c-.43.17.66.57 0 0zm-1.27-6.46c.6-.57-.1-.43-.14.03l.14-.02zm1.94 0c.1-.87-.32.6 0 0zm-.52-3.05c-.4.2.16.86 0 0zm.34-.28c1.3-.76.03-1.85 0 0zm1.43-.57c.8-1.1-.44.04 0 0zM12 28.76c-.14-.52-.2.6 0 0zm7.48-.15c.45-1.33-.4.47 0 0zm-7.23-.17c-.16-.2 0 .27 0 0zm6.64-.2c1.08-.58-.77-1.26 0 0zm-15.48.06c-.28-.28.02.4 0 0zm9.17-.16c1.5-.57.56-1.76 0 0zm6.96 0c.15-.44-.3.13 0 0zm-5.8-.15c.86-.22.5-1.1 0 0zm6.02-.44c.6-.3-.35-.36 0 0zm-1.5-.14c-.3-.53 0 .9 0 0zm1.66-.6c-.24-.2.07.37 0 0zm-4.56-.23c.32-.7-.53.28 0 0zm-.9-.22c.07-.46-.43.45 0 0zm1.38-.26c.1-.72-.36.45 0 0zm-1-.02c.45-.95-.75.45 0 0zm1.5-.24c.92-1.16-.7.33 0 0zm3.8-.03c-.1-.25-.1.26 0 0zm-4.82-.16c.27-.75-.64.3 0 0zm1.52-.32c.05-.67-.35.43 0 0zm-1.06-.2c-.2-.72-.2.57 0 0zm4.5-.04c.6-.4-.35-.36 0 0zm-11.9-.04c-.22-.35-.07.55 0 0zm8.9-.22c-.1-.83-.23.6 0 0zm-1.12.03c.3-.54-.52.18 0 0zm-7.13-.1c-.16-.4-.16.37 0 0zm1-.37c.36-.53-.97.84 0 0zm10.44-.14c-.32-.12.2.35 0 0zm-7.6-.58c.1-.47-.78.82 0 0zm-.94-.02c1.05.03.2-.4 0 0zm1.64-.38l-.1.07.1-.07zm.5-.16c-.62-.2-.05.72 0 0zm10.44-.05c-.47-1.38-1.03 1.06 0 0zm-10.77-.1c.07-.58-.48.76 0 0zm.78-.06c-.33-.26-.63.92 0 0zm20.4-1.22c.06.38-.33-.12 0 0zm-.28-1l-.1-.02.1.03zm-11.33-.38c-.02-.52-.36.73 0 0zm-2.23-.05c1.5-.17-.33-.68 0 0zm-.9-.64c-.52-.26.1.45 0 0zm.42-.2c-.12-.7-.2.5 0 0zm.92-.22c.65-.85-.73.36 0 0zm-2.13-.13c-.05-.7-.24.5 0 0zm.23-.5c-.3-.52 0 .8 0 0zm.4-2.25c1.7-.82-1.46-3.1-.5-.62.05.26.2.57.5.62zm6.3-2.3c-.23-.6-.22.55 0 0zm-.27-.23c.3-1.86-1.82.4 0 0zM12.84 28.8c-.03-.3.2.22 0 0z"/><path fill="#827c76" d="M15.62 42.04c.47-4.5 2.2-8.7 3.5-13-1.4 1.04-1.88 3.23-2.9 4.74-.5.9-2.5 4.4-1.86 1.66.44-2.37 3.12-4.4 2.9-6.68-2.08 2.47-4.07 5.06-5.78 7.8-1.04 1.1-2.1.02-.87-.87 2.13-3.42 4.43-6.7 6.52-10.12-2.2 1.78-4.9 3-6.5 5.43-1 1.1-2.44.57-.8-.6 1.7-1.7 4.15-2.82 4.94-5.24-3.8 2.1-7.36 4.64-11.26 6.58 1.24-2.7 4.5-3.3 6.48-5.3 1.78-1.22-.98-.8-1.6-.02-1.5.7-4.12 2.36-5.17 1.8.75-.8 3.58-1.47 2.9-2.2-1.7.58-3.28 1.6-5.12 1.65 4.48-2.5 9.22-4.55 13.9-6.64 1.88-.5 4.7-2.26 3.24-4.5-1.56-1.46-2.9-4.94-.1-5.85 3.02-.9 6.5.55 9.23-1.5 2.38-1.38 5.05-2.62 7.88-2.37 2.9.02 4.86-2.5 7.57-3.04 2.1-.67 6.36.2 4.68 3.18-1.15 1.93-3.57 1.67-5.33 2.4-2.2.36-5.12 3.85-1.7 4.82 1.12.06 3.4 1.88 2.3 2.4-1.58-.57-3.6-3.3-5.2-1.8 1.55 1.05 4.97 3.15 4.06 4.73-1.9-.35-2.7-4.48-4.72-3.03 1.53 2.35 3.5 4.53 4.2 7.3-1.83 1-2.8-2.6-3.45-3.9-.8-2.25-3.5-3.65-5.7-2.5-1.86.52-1.05 2.4.68 2.1 3.08.4 3.16 3.67 4.95 5.26 1.3 1.8.58 5.1-1.86 5.4-3.43-.6-1.75-4.47-1.8-6.6-1.22-2.77-4.7-2.13-6.95-1.68-2.17 1.62-4.9 3-5.18 6.04-.65 2.98-2 5.75-2.87 8.68-.4 1.2-1.36 3.85-1.6 4.05.3-.95-.75.7-.2-.64-.37-1.7-.9 2.15-1.38 2.04zm.7-2.48c.1-1.14-.26.52 0 0zm-.76-5.1c1.1-.68.1-1.92-.1-.22-.15.05-.35 1.05.1.22zm3.5-.37c.6-.56-.12-.43-.08 0h.08zm-1.17-.26c.63-.2-.28-.5 0 0zm-9.34-1.47c-.24-.2.07.38 0 0zm8.33-.8c-.7.4.74.68 0 0zm.2-.47c-.24-.13.1.28 0 0zm.3-.38c1.26.02 1.44-3.5.47-1.26-.24.38-.47.8-.47 1.26zm-5.83-1.6c.62-.64-.6.22 0 0zm-7.7-1.07c-.27-.2.02.35 0 0zm14.12-.16c-.2-.2.04.27 0 0zm1.8-.25c1.36-1-.9-1.46 0 0zm-1.53-.08c.67-.93-.83.2 0 0zm-3.3-.6c.4-.9-.4.4 0 0zm3.6-.1c-.4.08.3.97 0 0zm.9-.14c-.26-.24.08.4 0 0zm-4.06-.24c-.3-.65-.05.54 0 0zm-8.16-.03c-.27-.2.06.37 0 0zm7.27-.06c1.77-.4-.67-.8 0 0zm5.6-.1c.64-.76-.07-1.97-.14-.46l.14.46zm-4.17-.15c-.07-.6-.26.43 0 0zm.42-.2c1.26-.98-.97-.22 0 0zm-.94-.43c1.46-.64-1-.5 0 0zm1.44-.1c.93-1.16-.85.4 0 0zm-7.58-.17c.34-.38-.47.25 0 0zm-.76-.2c-.56-.45-.1.82 0 0zm8.87-.14c.1-.73-.44.44 0 0zm-8.27-.08c.8-.07 3.86-1.65 1.57-.82-.55.2-1.1.45-1.57.82zm8.58-.34c1-.1-.34-.28 0 0zm-.98-.2c-.2-1.02-.3.62 0 0zM12.54 24c1.06-.13 1.44-1.33.23-.4 0-.12-.88.56-.23.4zm5.94-.4c-.3-.1.13.32 0 0zm6.04-.4c-.16-1.45-1.08.9 0 0zm-10.78-.15c.2-.83-.43.48 0 0zm.56-.5c-.24-.4-.16.57 0 0zm20.73-.2c-.38-.32.22.5 0 0zm-19.65-.1c.77-.57-1.32.6 0 0zm19.58-.6c-.55-.45.2.53 0 0zm-9.3.1c.65-.58-.8.3 0 0zm-1.03-.25c.03-.54-.4.3 0 0zm.88-.12c-.36-.08.27.3 0 0zm9.32-.18c.56-1.03-1.17-.55 0 0zm-13.1-.37c-.18-.45-.18.45 0 0zm-2.96-.4c-.2-.3-.04.4 0 0zm2.6-.06c-.2-.3-.03.37 0 0zm-.23-.04c1.6-.18-1.12-.75 0 0zm2.23 0c0-.75-.3.5 0 0zm9.4-.13c.64.18.13-.52 0 0zm-12.47-.5c.92 0-.13-.62 0 0zm1.62 0c.53-.92-.8.37 0 0zm-.36-.38c.98-.78-1-.25 0 0zm-2.13-.2c.24-.52-.52.27 0 0zm.24-.6c-.35-.44 0 .57 0 0zm1.4.02c-.27-.2.06.37 0 0zm-1.17-.8c-.14-.33-.08.37 0 0zm6.07-.74c-.5.05.92.46 0 0zm.92-.1c.25-1.5-1.34-5.52-1.83-2.17-.04 1 .6 2.4 1.82 2.16zm-.34-.77c-.1-.5.52.34 0 0zm-.87-.4c-.78-1.1 1.12.2 0 0zm.33.96c-.36-.3.05.48 0 0zM20.15 16c1.5-1.1-1.75-2.7-.6-.37-.05.35.37 1.02.6.37zm4.1-.53c-.04-.27-.1.2 0 0zm3.95-.9c.35-2.12-2.08-.58 0 0zm-3.35-.67c-.05-.38-.2.3 0 0zm-6.36-2.6c-.25.1.33.08 0 0zm12.05-1.88c-.12-.38-.2.32 0 0zm3.75-1.48c.02-.5-.55.77 0 0zM16.86 29.8c-.55-.53.43-.26 0 0zm.4-.75c-.47-.48.44-.33 0 0zm-4.78-1.2c-.3-.75.54-.23 0 0zm.6-.58c-.2-.35.3.1 0 0z"/><path fill="#5e5854" d="M15.84 41.46c.85-1.26.37-2.37.42-3.1.74-2.57 1.78-5.04 2.37-7.63.84-2.13 2.12-4.27 1.82-6.64-1.02 3.94-4.4 6.87-5.07 10.94-.36 1.17-2 1.94-.87.13 1.12-2.57 2.64-4.94 3.76-7.5-2.28 1.83-3.4 4.65-5.44 6.7-.37.72-2.48 3.72-2.44 1.93 1.06-2.52 3.14-4.44 4.28-6.92.76-.8 3.04-3.68 1.52-3.7-.88 1.87-3.2 1.83-4.3 3.8-.95 1.22-3.95 3.17-1.67.78 1.77-1.86 4.23-3 5.7-5.15-1.2-1.1-3.05 1.64-4.53 1.98-2.2 1.37-4.4 2.77-6.7 3.98C4.65 28.76 8 28.44 9.33 27c.74-.32 1.94-2.03.28-1.16-2 .83-4.97 2.72-6.5 2.64.67-.78 3.97-1.8 2.86-2.53-1.56.47-2.95 1.68-4.66 1.5 4.54-2.32 9.18-4.44 13.8-6.57 1.92-.4 4.98-2.38 2.9-4.42-1.1-1.43-2.63-3.86-.8-5.33 1.98-1.12 4.4-.43 6.55-.76 3.46-.26 5.95-3.34 9.46-3.44 2.2-.24 4.64-.13 6.37-1.75 2.03-1.32 4.72-2.13 7.04-1.13 2.38 1.88-.18 5.1-2.72 4.43-2 .54-6.16 2.62-4.7 4.94 1.3 1.08 4.05 1.2 3.83 3.4-1.8-.63-3.74-3.55-5.6-2.33 1.12 1.8 4.33 2.25 4.36 4.68-2.07.64-2.2-3.4-4.4-3.26-1.57 1.13 1.8 2.68 1.96 4.27.17 1.35 2.1 3.26 1.63 4.1-3-.95-2.83-4.78-4.98-6.56-1.5-1-5.6-1.16-5.32 1.33 1.5 1.53 4.78.28 5.24 3.3.4 2.1 2.9 3.62 2 5.9-.73 3.06-5.42 1.7-4.5-1.27.26-1.63 1.04-3.97-.82-4.96-2.57-1.23-5.8-.6-7.9 1.3-2.4 1.46-3.03 4.15-3.6 6.7-1.02 2.77-2.08 5.54-2.93 8.4-.7.1-1.32 2.56-1.13.82-.57.63-.7 1.52-1.18 2.2zm-5.16-5.1c.06-.76-.4.86 0 0zm7.8-.58c.88-1.58-.53-.46-.1.48l.07-.07.04-.42zm-.64-.3c.7-.84-.43-.04 0 0zm.73-2.22c-.3-.6.08 1.3 0 0zm-9.22-1.53c-.03-.26-.1.2 0 0zm9.17-.1c-.38-.12.38.9 0 0zm-8.33-1.26c-.27-.2.02.35 0 0zm9.48-.67c.25-.73-.4.54 0 0zm.5-1.93c-.2-.18.06.28 0 0zM4.7 27.62c.26-.56-.5.44 0 0zm5.57-.28c.42-1.04-.62.14 0 0zm25.7-.2c-.45-.87.3 1.46 0 0zm-15.6.17c.58-.56-.26-.36-.16.04l.18-.03zm-13.54-.6c.97.18.14-.54 0 0zm12.14-.44c-.24-.12.1.3 0 0zm.72-.1c-.18.17.26.05 0 0zm-11.57-.2c.1-.48-.82.85 0 0zm10.17-.18c.46-.57-.46.26 0 0zm-9.68-.2c-.38-.2.07.45 0 0zM7 25.6c.95 0-.05-.42 0 0zm2.34-.33c-.03-.57-.75.94 0 0zm-1.54.03c2.65-1.17 5.94-1.17 8-3.45-1.77.44-3.25 1.63-5.04 2.03-1.03.38-2.05.8-2.96 1.42zm4.9-1.77c.14-.63.58.1 0 0zm8.5 1.8c.23-.8-.66.23 0 0zm-2.36-.03c.57-.58-.6.17 0 0zm17.06-.14c-.2-.2.03.32 0 0zm-18.54-.16c.3-.76-.55.32 0 0zm-5.1-.33c-.42-.86-.37.83 0 0zm9 .07h-.12.13zm-9.8-.15c1.3-.62-1.07.3 0 0zm6.35-.05c.28-.87-.53.34 0 0zm-6.92-.1c-.2-.22-.07.3 0 0zm7.26-.36c-.2-.2.03.33 0 0zm-6.4 0c-.18-.28-.1.36 0 0zm7.62-.1c-.22-.6-.1.48 0 0zm2.04-.2c-.58-.17.5.62 0 0zm-2.95.02c1.06-.83-.67.06 0 0zm-8.02-.13c-.17-.17 0 .25 0 0zm24.02-.02c-.17-.36-.17.38 0 0zm-12.14-.06c-.07-.7-.3.44 0 0zm12.6-.05c1.15-.6-.74-2.98.04-.9l.02.44-.07.45zm-10.58-.1c1.5-.9-1.6-.3-.22 0h.22zm-6.64-.3c-.47-.05.28.5 0 0zm1.1.15c-.1-.33-.1.32 0 0zm-1.63-.1c.37-.7-.42.16 0 0zm-5.08-.2c1-.05 0-.37 0 0zm3.9-.3c-.3-.15.1.33 0 0zm4.15-.1c.27-.56-.52.14 0 0zm4.43-.22c.02-1.1-.62.76 0 0zm-8.72 0c-.17-.17 0 .25 0 0zm6.8-.12c.48-.72-.82.72 0 0zm-1.2-.06c-.1-.38-.15.32 0 0zm-6.87-.16c.15-.56-.57.58 0 0zm10.9.04c.65-1.77-2 .4 0 0zm1.06-.4c-.18-.7-.13.7 0 0zm-9.83 0c-.15-.26-.1.32 0 0zm-.7-.57c1 .37.42-.7 0 0zm3.5-.05c-.26-1.78-1.7.34 0 0zm12.7-.26c-.42 0 .28.37 0 0zm-10.46.1c-.25-.6-.22.56 0 0zm-.55-.27c1.88-.98-2.1-1.38-.3.12l.16-.03.13-.1zm-4.2-.1c-.12-.32-.12.32 0 0zm.62-.05c.04-.52-.4.3 0 0zm5.76-.05c.3-.97-.5.55 0 0zm-.55-.36c-.28-.16.1.32 0 0zm-2.54-.2c1.44-.18-.5-.88 0 0zm-.8-.6c1.24-.74-.98-.86 0 0zm1.57-.53c.47-.76-.67.2 0 0zm-.7-.58c.35-.54-.54.23 0 0zm-.46-.25c.87-.78-.82.25 0 0zm7.77-.2c.45-.65-.53.24 0 0zm-.9-.32c2.2-.8 2.28-4.64.1-5.47-2.46-.5-5.17 2.93-2.86 4.8.75.7 1.83.65 2.77.67zm.6-1.93c-.04-.63.38.4 0 0zm.72-.24c.08-.48.32.36 0 0zm-4.7-.1c.07-.27.17.23 0 0zm.85-.1c-.33-.08.24-.08 0 0zm3.98 2.12c1.06-.82-.6-.7 0 0zm-8.2-.73c1.73-.75-1.27-3.36-.55-.86.02.33.16.76.54.85zm2.55 0c-.04-.25-.1.2 0 0zm14.1-2.3c-.45-.25-.28 1.18 0 0zm2.85.14c.03-.34-.2.2 0 0zm-9.35-.05c.6-.47-.63-.07 0 0zm-.23-.1c-.03-.46-.24.36 0 0zM37 13.3c-.4.17.48.98 0 0zm-2.73-.4c.42-1-.8 1.15 0 0zm-15.7-.34c-.02-.72-.4.4 0 0zm16.15-.28c.47-.27-.43-.02 0 0zm-16.82-.33c-.35-.25.13.4 0 0zm17.48-.1c1.3-.5-1-.12 0 0zm-17.98-.43c.8-.53-.1-.5-.18 0h.18zm1.2 0c.12-.83-.4-.27-.07.07l.07-.07zm2.2 0c.2-.47-.53.33 0 0zM36 11.3h-.13.12zm-11.04-.22c-.2-.3-.05.4 0 0zm.58-.1c-.2-.9-.8.47 0 0zm-3.04-.06c-.03-.43-.27.5 0 0zm6.37-.2c-.17-.5-.24.45 0 0zm4.06-.6l-.1-.06.1.06zm4.44-.35c-.46-.34.1.56 0 0zm-6.68-.13c-.1-1.66-1.7.55 0 0zm6.9-.1c.3-.4-.44.2 0 0zm-1.8-.22c.9-.33-.32-.93 0 0zm-3.75-.55c.07-.58-.4.35 0 0zm-.57-.46c-.1-.32-.14.26 0 0zM34 8.23c1.25.4.07-1.1 0 0zm.96-.5c-.2-.56-.28.4 0 0zm4.98-.47c1.44-.16-.53-.3 0 0zm-.87 0c-.2-.75-.32.54 0 0zm-1.42-.3c-.46-.47-.05.74 0 0zm4-.5c-.48-.32-.34.6 0 0zm.6-.23c.18-.55-.9.9 0 0zM9.74 37.98c-.1-.32.3.12 0 0zm6.14-3.9c-.13-1.14 1.94-2.98.6-.9-.2.3-.4.6-.6.9zm1.24-2.3c-.2-.32-.14 1.2 0 0zm.23-.4c.55-.78-.57.33 0 0zm-9.1 1c-.1-.3.25.12 0 0zm9.23-1.65c-.1-.32.3.12 0 0zm.47-.36c-.03-.62.7-.56 0 0zm.4-.7c-.2-.6.5-.05 0 0zm.6-.28c-.63-.52.42-.25 0 0zm-.26-.7c.08-.96 1.08-.63 0 0zm-7-.1c-.05-.45.43.06 0 0zm1.8-.23c.12-.67.85-.1 0 0zm-9.98-.33c.14-.24.1.3 0 0zm10.62-.17c.02-.32.16.2 0 0zm-.47-1.33c.15-.53.55.27 0 0zm-7.75-.4c.03-.35.27.18 0 0zm8.3-.05c.45-.64 1.14-.9 0 0z"/><path fill="#47423c" d="M16.57 39.83c-.2-.23.28 0 0 0zm.54-.17c-.23-.62.42-.2 0 0zM17 38.8c1.4-2.84 1.42-6.2 3.03-8.95 1.48-1.16-.16-3.54 1.5-4.66.26-1.82-1.64.5-.78-1.3 1.36-1.35.84-3.04-1.17-3.04-1.65.13 2.05 1.06.3 2.06-1.64 1.2-1.75 3.3-3.2 4.68-1.54 1.8-3.04 3.64-4.18 5.73-.58.95-1.65 2-.5.32 1.9-2.98 3.96-5.85 5.75-8.9 1.55-.96-.98-.66 0-1.78.96-2.76-2.35-.1-3.2.5-1.02.73-3.3 2.2-3.53 2.48 1.54-1.2-.3-1.36-1.08-.43-1.05.53-3.52 2.06-3.8 1.63C9 25.5 12 24.1 15.13 22.97c1.58-.85 3.14-4.78 4.88-3.42.08 3.07 5.2-.27 1.96-1.4-2.47-.1-5.06-1.46-5.43-4.13-.46-1 .34-3.27 1.5-1.74-.9-2.24 4.8-1.8 3.45.67.3 1.87.25 5.58 3.06 4.72 1.93 1.46 4.66-.12 4.52-2.5.56-2.58-4.3-3.93-1.52-6.2C30.9 6.62 35.3 7.48 38.92 5.9c2-2.23 5.6-2.73 8.22-1.28 1.34 1.5-1.6 2.2-2.05 3.4-2.7-.04-5.06 1.08-6.45 3.4-1.3 2.8 2.8 2.25 3.76 4.07 1.45 2.22-1.9-.93-3.02-.74-1.5.02-2.37-2.15-2.28-2.52-.84.85-2.45 3.42-.03 2.7 1.93.43 4.6 2.73 4.3 4.33-1.85-.54-2.34-4-4.7-3.1 1.46 2.46 3.2 4.78 4.32 7.42-.66 1.46-2.7-1.37-2.9-2.54-.5-2-1.9-3.88-4.1-4.08-2.8-.48-4.03 2.2-4.97 4.17-1.88.54-5.77-1.66-5.64 1.8.9 1.05 2.9-.68.82.42-2.46 1.5-2.8 4.36-3.17 6.87-.96 2.36-2.94 4.33-3.1 7-.17.6-.46 1.2-.97 1.57zm2.58-6.98c-.18-.2-.05.95 0 0zm.3-.7c.48-1-.42.4 0 0zm.76-.92c-.16.14.24.02 0 0zm.8-2.4c-.46-.33.4.95 0 0zm-5-.2c.95-.13-.2-1.06 0 0zm5.26-.4c.56-.8-.66.4 0 0zm-.45-.28c-.36-.3.15.6 0 0zm-3.93-.63c-.37-.14.32.67 0 0zm-.16-.2c.74-.04.1-.62 0 0zm4.77-1.38c-.2-.65-.1.5 0 0zm-8.62-.66c-.27-.25-.03.93 0 0zm9.32-.56c-.58-1.38-1.18.97 0 0zm-4.17-.6c-.16-.23-.06.28 0 0zm3.72-.2c1.57-.2-.66-1.15 0 0zm-1.32-1.55c-.08-.3-.14.26 0 0zm8.27-.7c.15-.54-.58.7 0 0zm-4.76-.13l-.1.1.1-.1zm5.18-.2c1.1-.4-.3-.97 0 0zm8.7-.62c-.1-.37-.18.33 0 0zm-13.76-.3c-.16-.36-.16.38 0 0zm-.5-.13c-.75-1.42-2 0 0 0zm-.83-.9c-.15-.62-.28.4 0 0zm7.04-1.62c2.03-.8-.53-1.4-.2-.15l.2.15zm.08-1.04c.1-.3.1.34 0 0zm-10.1.65c1.7-.75-1.54-3.07-.67-.84 0 .33.14 1.6.66.85zm10.7-.88c.45-.43-.5-.1 0 0zm-.08-.73c.56-.96-.7.63 0 0zm9.56-.1c-.15-.44-.2.36 0 0zm-10.1-.07c1.5-.97-1.26-.66 0 0zm9.5-.12c.13-1.1-1 .37 0 0zm-6.2-.7c3.15-1.74 4.55-5.64 8-6.95 1.3.95 2.34-1.05.5-.6-2.3.9-5.27 1.48-6.74 3.5.6-1.24 3.18-.97 1.55.44-1.33.83-3.68 1.63-3.33 3.62zm-16.23-.02c-.18-.2.05.3 0 0zm3-.52c-.3-.04.47.7 0 0zm9.64-.24c1.9-1.25-2.96-3.47-1.22-1.26.25.5.55 1.24 1.22 1.26zm7.8-.3c-.16.14.24.02 0 0zm-17.2-.33c.18-.63-.48.34 0 0zm12.36-.27c1.23-1.65-1.4.68 0 0zm5.4-.1c-.2-.2.03.33 0 0zm-6.5-.1c3.18.6.85-5.3-.36-2.98.98.7-.24 2.4.36 2.97zm-.15-2.12c-.08-.53.43.32 0 0zm-11.6 1.8c-.17-.16 0 .26 0 0zm10.84-.03c.2-.65-.37.36 0 0zm.8-.3c-.27-.44-.1.55 0 0zm7.68-.7c-.85-.12.3.86 0 0zm-8.22.47c-.07-.58-.3.5 0 0zm-.5-.38c-.27-.43-.15.52 0 0zm.6 0c-.16-.2-.03.33 0 0zm6.93-.17c-.26-.4 0 .62 0 0zm-6.73 0c.26-1.86-2.94.16-.38-.14h.2l.17.14zm2.58-.4c-.4-.1.25.38 0 0zm4.9-.4c2.32-.66-.45-1.64 0 0zm-4.35-.6c-.16.15.24.03 0 0zm-.45-.13c2.62-.82-2.3-1.15 0 0zm6.65-.3c-.13-.4-.2.5 0 0zm-10.65-.27c-.3-.34.02.57 0 0zm10.87-.23c.33-1.12-.48.62 0 0zm.4-.22c.27-.5-.64.34 0 0zm4.24-.2c.2-1.25-1.46-.18 0 0zM36.7 7.4c2.4-.58-1.62-.48 0 0zM47 6.32c-.57-1.62-1.67.72 0 0zm-6.1-.12c1.77-.4-.7-.4 0 0zm3.87-.8c-.2-.77-.52.47 0 0zm-.98-.73c-.1-.98-1.13.08 0 0zm-.9-.1c-.12-.78-.74.34 0 0zm-26.45 33.3c-.23-.8.45-.24 0 0zm-2.63-.8c1.1-3.3 3.24-6.1 4.48-9.32-1.94.18-1.82 3.6-3.6 3.48 1.8-2.15 3.6-4.36 4.96-6.77 1.2.28-.98 2.66-1.2 3.65-1.6 2.9-3 5.92-4.53 8.83l-.07.1-.04.04zm.86-5.95c-.3.23.46.06 0 0zm4.34-4.8c.04-.65-.55 1 0 0zm.8-1.67c.34-.56-.75.5 0 0zM18.28 37.2c0-.25.17.17 0 0zm-7.8-.1c.7-.8 1.87-3.74 2.48-3.1-.74 1.1-1.58 2.13-2.48 3.1zm7.9-.46c-.55-.9.44.22 0 0zm.92-2.9c-.4-1.07.52.2 0 0zm.2-.5c-.58-.64.85-.4 0 0zm-2.97-.3c.12-.77.48-.24 0 0zm1.46-.37c-.38-.9.48-.3 0 0zm.33-1.12c-.35-.53.5-.28 0 0zm-8.78-.27c.1-.98.38.26 0 0zm.3-.26c-.1-.56.42.3 0 0zm.24-.23c-.14-1.44 2.65-1.22.67-.28l-.32.17-.36.1zm25.1-.32c-2.4-1.35-2.58-5.5 0-6.77 1.68.33-2.33 2.53.3 1.75 2.7-1.67 3.05 3.27 1.22 4.4-.4.37-.95.62-1.52.63zm.85-2.87c1.05-1.12-1.25-.8 0 0zM10.3 30.06c.1-.7.25.1 0 0zm4.6-.15c-.17-.47.48.24 0 0zm-9.47-.2c.52-.53 1.22-.67 0 0zm9.76-.13c-.37-1.26.56.33 0 0zm4.3-.4c-.43-.58.52-.3 0 0zm.65-.02c-.25-.15.18-.07 0 0zm-4.6-.25c-.1-.74.38.47 0 0zm-12.02-.48c.5-.87.37.36 0 0zm4.5.08c.08-.56.35.42 0 0zm8.6.02c-.22-.67.5-.18 0 0zm2.54-.4c-.68-.95.53.07 0 0zm-18.84 0c.12-.5.38.42 0 0zm8.12-.56c.3-.44.6-.23 0 0zm5.55-.4c.22-1.5 1.62-.03 0 0zm1.05-.07c.5-.84.8-.35 0 0zm-4.7-.2c-.02-.9.93.4 0 0zm-.95-.04c.05-.52.47.36 0 0zm-3.3-.13c-.12-.66.62.05 0 0zm-3.44 0c.03-.42.3.23 0 0zm.45-.22c.34-.72.72-.1 0 0zm17.1 0c.1-.2.03.27 0 0zm-9.12-.12c.22-1.28 1.27.5 0 0zm-7.54 0c-.06-.44.3.2 0 0zm.83-.1c1.17-1.17 1.3.3 0 0zm2.38.05c.2-.7.9.13 0 0zm-2.8-.16c.28-.77.16.3 0 0zm11.35 0c-.27-.44.5.06 0 0zm-11.1-.14c.1-.63.54.1 0 0zm3.5-.2c-.1-.44.37.2 0 0zm7.93-.2c.05-.76.63.4 0 0zm-10.3-.1c.3-.66.46.2 0 0zm2.8-.02c.6-.8 1.45-.17 0 0zm5.5-.07c-.17-.7.5.3 0 0zm-.73-.1c.13-.67.22.14 0 0zm.3-.3c.2-1 2.6-1.1.75-.37l-.37.2-.37.18zm1.1 0c.14-.76.9.16 0 0zm-7.57-.2c.04-.77.38.22 0 0zm.7-.28c.65-.78 2-.55.44-.17l-.45.17zm1.1 0c-.25-.6.5-.03 0 0zm6.62-.17c.04-.57.35.33 0 0zm.63-.47c.47-.96.45.86 0 0zm.6-.18c.03-1.2 1.17.46 0 0zm7.18-.1c.5-.7.45.7 0 0zm10.45.06c-2.33-.28-.97-5.27.55-2.35.35.76.52 2.07-.54 2.35zm-.14-2.47c.14-.7-.44.04-.14.16l.14-.15zm-.24-.78c-.67-.1.2.65 0 0zm.44.05c-.15-.27-.1.3 0 0zm-22.6 2.95c.2-.44.34.46 0 0zm4.47-.1c.3-1.72 1.63.4 0 0zm-5.82-.1c.9-.4 2.7-1.58 3.3-1-1.07.44-2.2.6-3.3 1zm1.85-.72c-.17-.17 0 .25 0 0zm23.8.7c-1.5-.3-.08-3.06-.1-.74.04.25.07.5.1.74zm-17.96-.05c0-.25.16.17 0 0zM12.5 23c.04-.7.6 0 0 0zm7.75-.2c.1-.2.03.25 0 0zm.27-.06c-.06-.3.24.2 0 0zm.45-.03c-.82-.2 0-.62 0 0zm-7.8-.06c.07-.35.16.3 0 0zm.86-.36c.95-.94-.02.46 0 0zm3.42-.17c.1-.2.04.27 0 0zm11.34-.05c-.23-1.9 4.82-3.22 2.8-.77-.85.48-1.86.58-2.8.77zm1.9-.72c1.04-.66-.52 0 0 0zm1.56-1.18c-.23-.5-.2.5 0 0zM14.9 22.02c-.08-.5.35.1 0 0zm6.3-.25c.1-.4.3.96 0 0zm-5.43-.12c-.02-.43.34.3 0 0zm.5-.26c.5-1.4 1 1.02 0 0zm-1.4-.3c.23-.52.58.34 0 0zm.9-.5c-.08-.36.26.06 0 0zm.5-.08c-.06-.48.32.15 0 0zm4.25-.57c-.34-.36.43.02 0 0zm1.74-.66c-1.07-.97.46.03 0 0zm-3.36-.6c-.2-.78.67.34 0 0zm2.3-.08c0-1.33 1.1.64 0 0zm1.9-2.02c.1-.2.03.26 0 0zm.52-.28c-.64-.84.88.2 0 0zm-1.2-3.02c-.3-1 1.03.25 0 0zm17.45-2.46c.34-1.06.28.38 0 0zm1.03-1.08c.03-.46.5.3 0 0z"/><path fill="#423c38" d="M17.35 38.56c-.4-1 1.23-2.18 0 0zM14 36.66c-.2-1.16 1.85-3 .6-.87-.17.3-.36.6-.6.86zm-3.17-.04c0-.25.17.17 0 0zm7.85-2.23c-.27-.35.4-.1 0 0zm-6.82-.47c.4-1.18 1.13-1 0 0zm7.1-.44c-.72-.37.47-.14 0 0zm.9-.43c-.25-.16.17-.07 0 0zm.04-.16c-.24-.44.42-.15 0 0zm-4.02-.1c-.1-.28.24.13 0 0zm.14-.28c-.4-.65.5-.33 0 0zm1.97.07c-.43-.3.4-.08 0 0zm2.18-.5c.7-2.36.75-4.86 1.5-7.2.33-1.14 1.84-3.2 0-3.8 1.98.54 1.63-2.73 3.58-2.55 2.46-.22 5.1-1.77 3.7-4.53-.22-1.3-2.5-2.73-1.94-3.63 1.54.4 2.47 2.95 4.07 2 .77 1.77 3.04-2.32 2.18.32-1.1 2.63 2.16-.2 2.65-1.1.6-.7 2.64-3 2.6-2.3-1.1 2.04-2.48 3.93-3.62 5.95 2.68-1.17 5.22 1.3 6.7 3.25-.57 2.05-2.3-1.8-3.36-2.3-1.2-.9-2.4.4-.87 1.26.92 2.06 3.55 4.2 3.04 6.4-2.04-.53-2.06-3-2.88-4.57-1.34-2.25-4.67-3.03-6.8-1.5-.95 2.07-2.18 4.58-4.8 2.98-2.87-.18-2.7 3.25-4.06 4.9-.58 2.15-.6 4.4-1.68 6.4zm7.9-10.8c-.14-.98-.2.66 0 0zm.55-.33c-.17-.17 0 .25 0 0zm-4.2-.5c-.08-1.4-.7.96 0 0zm.47-.43c-.35-.27.25.8 0 0zm13.6.03c.2-1.04-.62.62 0 0zm.3-.1c-.23-.2.08.37 0 0zm-14.32-1.2c-.16-.6-.3.48 0 0zm4.4-.14c-.06-.8-.7.38 0 0zm8.36-.44c-.5-.13.32.4 0 0zm-7.92-.44c-.1-.26-.1.26 0 0zm3.93-.83c-.27-.2.1.3 0 0zm-3.13-.18c2.66-.1-.62-4.72-.5-1.47-.14.5-.33 1.53.5 1.47zm-.32-1.5c.05-.5.38.4 0 0zm.8-2.6c.38-.73-.7.25 0 0zM19.77 31.82c-.45-.46.46-.32 0 0zm-6.45-.05c-.14-.34.23 0 0 0zm3.12 0c1.1-1.34 1.94-5.54 2.83-5.4-.55 2-2.04 3.52-2.83 5.4zm2.95-6c-.28-.27-.04.92 0 0zm-1.04 5.74c-.17-.62.4-.2 0 0zm-4.57-.53c.37-1.34.17.43 0 0zm1.17.3c-.34-.5.5.08 0 0zm.62-.7c-.5-.9 1.03-.25 0 0zm19.73-.2c-2.54-.8-2.74-5.5.5-5.18 2.64-.15 2.23 3.92.43 4.9-.27.16-.6.26-.92.28zm.66-1.5c-.1-.38-.1.4 0 0zm.07-1.02c1.23-1.7-1.56-1.3 0 0zm-2.24-1.43c-.48.17.64.37 0 0zm-23.28 3.9c.45-1.14 1.46-.25 0 0zm3.74-.1c-.25-.7.5.13 0 0zm2.1-.57c.1-.93.52-.14 0 0zm-1.62-.23l.25-.3-.25.3zm4.52-1.33c-.25-.16.17-.08 0 0zm1.17-.04c.25-.24-.1.4 0 0zm-15.66-.18c1.27-.57 4.2-2.25 4.54-2.1-1.47.8-2.9 1.68-4.54 2.1zm11.2-.08c-.12-.57.76-.15 0 0zm1.75-.1c-.34-.55.44-.24 0 0zm2.84-.1c-.72-1.35 1.53-.4 0 0zm-5.35-.65c-.28-.95.52.07 0 0zm-.94-.1c.1-.56.43.4 0 0zm2.3.02c-.15-.64.6-.04 0 0zm.7-.25c.28-1.16 1.12-.67 0 0zm-2.5-.1c-.3-.67.54-.07 0 0zm.53-.47c-.22-.44.42.22 0 0zm-9.68-.17c.26-.92.3.2 0 0zm14.84-.02c-.3-.87.7.4 0 0zm-11.7-.2c.2-.5 1.46-.5.45-.1l-.43.1zm2.54-.12c-.08-.37.26.05 0 0zm6.22-.06c-.5-.74.48-.26 0 0zm3-.1c-.8-.98 1.28-.8 0 0zm-3.2-.15c-.14-.63.56-.16 0 0zm.95-.07c-.17-.9.36.46 0 0zm-.24-.38c-.42-.76.43 0 0 0zm16.46.05c-.7-1.85 2.66.35.26 0-.1 0-.18 0-.27 0zm.3-.87c-.45.08.37.4 0 0zm-14.84.76c-.27-.76.36.22 0 0zm-8.6-.02c.03-.72.6-.03 0 0zm1.16-.07c.1-.3.14.27 0 0zm5.32-.04c-.3-.6.53-.18 0 0zm-5.7-.3c.52-.75 3.44-1.22 1.3-.2-.4.15-.85.26-1.3.2zm1.17-.16c.8-.6-.65.22 0 0zm3.9.1c.18-1.7 1.7-.04 0 0zm3.5-.07c-1-1.5 1.54-.8 0 0zm-2.17-.04c.93-1.6-2.5-4.34.2-4.7 1.36.05 1.5 1.48.1 1.32 1.1 1.28 1.24 2.38-.3 3.38zm.38-.6l-.07.1.08-.1zm.2-.75c.65-.83-.46-.1 0 0zm-.35-.38c-.16-.2-.03.32 0 0zm.7-.17c-.06-.43-.2.58 0 0zm.7 1.84c-.17-.53.3.24 0 0zm-1.87 0c-.03-.32.2.22 0 0zm6-.25c.32-.68.47.13 0 0zm-8.82-.2c.58-1.16.32.4 0 0zm6.13.02c-1.1-.76.74.2 0 0zm12.4.04c-1.7-.23-1.27-4.72-.02-2.07.66.5 1.3 1.86.03 2.08zm-16.78-.05c.02-.25.14.16 0 0zm2.63-.05c-.04-.5.4.48 0 0zm3.78.03c.26-.5.28 1 0 0zm1.33-.26c.12-.92.25.2 0 0zm-6.7-.07l.1-.2-.1.2zm6.9-.24c-.28-.9.55.22 0 0zm10.4.02c-1.1-.62.1-2.77.08-.75v.38l-.1.37zm-18.2-.12c-.06-.38.27.2 0 0zM16 22.27c-.1-.8.37.35 0 0zm-2.57-.2c.05-.4.27.3 0 0zm15.36-.02c.63-.87 2.98-3.3 3.24-1.05-.75 1.1-2.24.45-3.25 1.05zm1.8-.6c1.24-.1-.86-.48 0 0zm.6-.98c-.22-.4-.52 1.27 0 0zM16.54 21.9c-.08-.35.26.07 0 0zm-2.73 0c0-.25.17.17 0 0zm3.07-.16c-.3-.4.45.14 0 0zm-.48-.4c.02-.47.3.34 0 0zm17.5-.52c.02-.57.52.3 0 0zm-1.14-1.03c-.35-.8.54-.33 0 0zM19.8 19c-.37-.52.55-.27 0 0zm3.82-.45c-1.16-.3.1-.64.26-.08l-.26.08zm-2.2-.08c-.22-.88.5.4 0 0zm.65-.2c-1.3-1.76-4.53-.27-5.25-2.97-.87-1.18-.2-4.1 1.62-2.72-.87-1.6 1.92-2.1 2.3-.6 1.23-.15-.53 2.6.73 3.34.3.95.67 1.93.6 2.94zm-2.7-1.5c-.2-.94-1.16-.4 0 0zm.67-.38c1.68-.57-.56-4.3-.72-1.68.02.6.13 1.34.72 1.67zm1-1c.78-.63-.8-.75 0 0zm-3.68-1.87c.8-.7-.4-.3 0 0zm2.15-1.9c-.1-.97-.2.57 0 0zm1.2 6.32c.17-.2.04.32 0 0zm3.8-.3c-.74.08-.18-.55 0 0zm-3.4-.03c.1-.2.04.25 0 0zm22.6-.46c-2.1-1.5-4.45-2.53-6.65-3.84-.1-1.66 1.23-3.2 2.58-4-2.76 1.46-1.23 5.7 1.64 5.24.98.7 1.73 1.64 2.43 2.6zm-2.05-1.6c-.03-.42-.24.38 0 0zm-3.7-1.73c-.24-.64-.5.27 0 0zm-.53-.5c-.3-.1.2.35 0 0zm-7.18-1.62c-.12-1.32-3.62-1.87-1.73-3.23 1.1.72 1.4 2.08 1.74 3.24zm-1.27-2.14c.82-.7-.58.15 0 0zm9.67 1.9c.2-.84 1.1-.42 0 0zm-20.97-.27c-.38-.58.5.2 0 0zm17.13-.1c-.82-1.4 3.05-2.27 1.06-.7-.27.3-.6.66-1.06.7zm-14.36-.05c-.03-.62.45.18 0 0zm10.16-.27c0-.25.17.17 0 0zm3.58-.37c.35-.2-.3.74 0 0zm5.4-.25c-.23-.8.92-.37 0 0zm-5.17-.06c-1.26-1.38 2.5-1.13.37-.18-.1.1-.24.12-.36.17zm-4.98-.34c0-.25.17.17 0 0zm.28 0c-.23-.6.46.26 0 0zm1.45-.25c-.52-.5.54.13 0 0zm-.3-.34c.1-.2.03.25 0 0zm10.52-.03c.14-.55.44.4 0 0zM30.44 9c-.77-.16-.23-.4.1-.05l-.1.05zm3.03-.22c.23 0-.17.4 0 0zm3.8-.03c-.17-1.85 1.58.77 0 0zm6.15-.36c-.95-.33-2.58-2.57-.44-1.63.62.2 1.63 1.37.44 1.62zm-7.92-.16c.14-1.2 1.6-.2 0 0zm3.86-.08c-.05-.4.3.33 0 0zm1.4-.02c.08-.3.13.27 0 0zm-8.4-.08c.38-1.48 3.4-1.14 3.65-.96-1.16.47-2.4.78-3.63.96zm.37-.2c-.1-.5-.3.5 0 0zm8.46.12c.05-.68.67.36 0 0zm-4.32-.18c-.38-1.38.92.8 0 0zm2.94 0c.17-.8.34.54 0 0zm-9.52-.07c.6-.62.5.17 0 0zm7.08-.1c-.32-1.35.97.64 0 0zm6.97.1c-1.64-.9 1.98-1 .18-.73-.34-.2-.23.6-.18.74zM40.2 7.6c.3-1.13.83.8 0 0zM46 7.4c-.66-.98.58.36 0 0zm-7.7-.3c.65-2.88 4.22-2.6 6.5-3.05 1.27-.06 2.9 2.47.6 1.3-2.5-.52-4.96.6-7.1 1.76zm8.58-1.54c-.25-.52-.58.4 0 0zm-5.6-.27c-.24-.38-.1.57 0 0zm4.13-.1c.22-.55-.47.28 0 0zm.7-.04c-.1-.76-.38.44 0 0zM44.9 4.9c-.15-.2 0 .25 0 0zm-3.75 1.36c.2-.63.36.53 0 0zm2.43-.02c.08-1.84 1.7.64 0 0zm1.82-.3c0-.54.8.98 0 0zm-.42-.2c-.16-.44.4.3 0 0zm1.55-.84c.1-.68.26.56 0 0zm-3.85-.78c-.17-.48.45.34 0 0z"/><path fill="#2b2622" d="M17.33 38.4c.1-1.24.75-.84 0 0zm-3.3-1.73c-.35-.12.24-.13 0 0zm.08-.33c-.54-.9.48-.23 0 0zm.28-.54c-.34-.58.55-.2 0 0zm.2-.52c-.04-.55.65-.03 0 0zm-2.15-2.33c0-.86.44-.18 0 0zm22.47-2.7c-2.43-.34-.9-6.17.7-3.9-.03.86.55 2.37.46.6 1-2.85 2.16 2.57.37 3-.42.34-1 .43-1.53.3zm.98-.6l-.1-.07.1.07zm-17.7-1.28c-.13-.92.9-.57 0 0zm-12.83-.72c.2-.8.15.4 0 0zm.28-.1c.75-1.12 1.6.06 0 0zm15.12-.4c-.6-.9.65.45 0 0zm-1.88-.26c-.04-.66.74-.35 0 0zm14.7-.75c-.56-1.63 1.04-1.2 0 0zm-12 .2c-.8-.3.5-.28 0 0zm-12.6-.52c-.08-.5.34.1 0 0zm10.37-.33c-.06-.43.3.2 0 0zm2.33-.1c-.56-.46.53-.3 0 0zm-11.7 0c.35-.13.6-.22 0 0zm10.62-.17c-.26-.15.17-.06 0 0zm-3.2-.05c-.17-.27.3.03 0 0zm-7.4-.1c-.16-.38.34.1 0 0zm24.64-.33c-.1-3.15 2.75 1.2 0 0zm6.27-.53c-1.56.06-3.73-3.74-1.22-2.9.72.8 1.05 1.86 1.23 2.9zm-2.7-2.66c-.1-.3-.1.3 0 0zm-16.1 2.78c-.45-1.18 2.1-3.53 1-1.07.05.56-.25 1.47-1 1.07zm-9.5-.22c.73-.75 1.87-.44.3-.06l-.3.06zm8.14-.05c-.43-.5.44-.34 0 0zM23.5 24c.12-.2.05.26 0 0zm-5.98-.15c.1-.35.18.3 0 0zm16.5-.28c-1.47.3-.5-3.1-.1-1.12 1.13-.57.85.97.1 1.12zm-16.07 0c-.43-.43.47.16 0 0zm3.57-.05c-.13-.62.62.76 0 0zm-.72-.12c-.75-.64.85.22 0 0zm-1.88-.27c.82-1.04-1.7-4.33.1-2 .87.6 1.45 1.85-.1 2zm-.56.05c.15-.22.02.3 0 0zm17.2-.2c-.75 0 .23-.55 0 0zm-16.8-.14c-.28-.5.47.18 0 0zm-.23-.14c-.03-.33.2.2 0 0zm-.68-.12c-.02-.5.34.3 0 0zm17.52-.3c-.9-.53.7-.24 0 0zm-6.55-.24c.7-1.4 1.55.86 0 0zm5.06-.06c.04-.78.84.24 0 0zm1.45-.23c-.96-.27.6-.35 0 0zm-7.2-.2c-1.92.18-4.6-2.9-1.4-3.07 2.44-.5 4.68-2.45 5.05-5 1.5-2.15.2 2.28 1.54.72 1.5-.9 2.73-3.26 4.2-3.52-.36 1.9-4.2 3.13-2.88 5 1.23-.83 2.44-.88 3.7-.06 1.52-.6.93 2.67.05.57-.87-1.45-3.56.42-1.12.82 1.14.7.7 3.6-.44 1.4-1.83-1.84-5.5-1.94-6.92.44-.72.8-1.65 1.56-1.8 2.7zm9.75-2.5c-.24-.18.06.3 0 0zm-8.77-.44c.1-1.24-1 .9 0 0zm-1.22-.08c.2-1.18-.45.54 0 0zm9.5-.16c0-1.35-.92.33 0 0zm-1.04-.83c-.35-.26.4 1.08 0 0zm-3-.48c-.33-.65-.3.7 0 0zm2.2-.06c-.26-.22.07.37 0 0zm-.42-.36c-.28-.63-.34.58 0 0zm-3.7-1.6c-.08-.24-.08.27 0 0zm-.73 6.46c.27-2.05 2.18.37 0 0zm-1.84-.18c-.23-1.6 1.8.13 0 0zm-7.1-.08c-.7.05-.75-.6 0 0zm8.4.07c-.26-.53.5.04 0 0zm2.13 0c-.25-1.86 1.82.2 0 0zm-3.93-.1c.03-.4.24.4 0 0zm-5.13-.05c.1-.26.1.25 0 0zm11.9 0c.05-.26.18.18 0 0zM20 21c-1.43-.65.66-.53 0 0zm10.45-.12c-.12-.65.5.2 0 0zm4.63 0c-.9-.12.05-.58 0 0zm-1.04-.18c-.04-.35.26.2 0 0zm-10.4-.06c-.2-.35.3.12 0 0zm5.63-.22c0-.25.17.17 0 0zm9.45-.1c-.64-.38 1.43.37 0 0zm-7.92-.04c-.9-.88 1.23.1 0 0zm2.73 0c-.04-.44.4.4 0 0zm-2.1-.22c.57-1.54 1.62.68 0 0zm-7.57-.15c-.06-.76.43.5 0 0zm6.15 0c.03-.67.2.13 0 0zm12.48 0c-1.64.64-2.76-3.44-.74-1.1.28.36.53.72.74 1.1zM18.9 18.03c2.54-1.46.95-5.14.02-6.17 2.7-.65 1.77 2.88 2.2 4.26.34 2.14-2.1-.04-2.22 1.92zm9.95-.5c-1.47-1.07.96-.12 0 0zm-8.56-.07c.1-.33.1.32 0 0zm9-.28c0-.7.55.42 0 0zm14.3-.1c-1.32-1.32-5-2.8-5.36-3.34 2.1.44 4.1 1.62 5.36 3.35zm-25.1-.3c-1.9 0-2.93-4.93-.64-3.88 2.12-.67 2.1 2.53.83 3.53.3.2.3 1.04-.2.34zm-.76-.8c-.03-.26-.1.2 0 0zm-.6-1.6c-.3-.24.4.98 0 0zm11.97 1.9c-.65-1.06 1.34-.34 0 0zm5.3-.92c.34-.97.14.4 0 0zm6.74-.7c.26-.42.2.44 0 0zm-12.18-.58c.76-1.5-2.65-2-1.35-3.4.93.8 2.08 2.1 1.36 3.4zm6.3.28c-.07-.57.4.33 0 0zm5.18-.06c-.04-.53.52.9 0 0zm-.52-.14c-1.37 0 .66-.37 0 0zm-4.32-.25c-.36-.8.6.37 0 0zm-4.22-.54c0-.25.17.17 0 0zm-.3-.1c.1-.25.1.26 0 0zm6.26-.6c-.58-1.1 1.25-.9 0 0zm-6.37-.34c.03-.63.38.76 0 0zM20.1 11.8c-.5-.47.56-.06 0 0zm17.64-.47c.05-.8.6.37 0 0zm-19-.12c1.08-1.22 1.6.8 0 0zm11.2-.17c-1.15-.22.26-1.3 0 0zm8.2-.14c.33-1.54 1.7-.92.24-.06l-.12.03-.1.02zm-3.1-.16c.07-1.93 1.92-.04 0 0zm-9.38-.43c-.06-.63.37.4 0 0zm3.25-.2c-.7.3-.32-.52 0 0zm5.62-.22c.24-.72.2.6 0 0zm-7.5-.1c.18-1.23 1.33.26 0 0zm7.16-.15c-.64-.54.52-.6 0 0zm-6.5.08c0-.24.13.17 0 0zm8.96-.6c-.16-1 .8.4 0 0zm-1.48-.06c-.2-.94 1.14-.1 0 0zm3.36.02c-.33-1.2 1.35.02 0 0zm-1.17-.45c-.58-1.1.97.07 0 0zm-1.96-.5c-.43-.36.52.12 0 0zm.4-.37c.23-.38.1.45 0 0zm1.17 0c.28-.4.05.58 0 0zm-6.62 0c-.02-.68.58.14 0 0zm3.24-.17c.08-.55.3.45 0 0zm.74-.08c.1-.8.48.47 0 0zm6.1-.04c-.03-.48.5.7 0 0zm2.37-.06c.56-1 .8.92 0 0zm-5.53-.03c.06-.27.16.23 0 0zm-2.48-.13c.45-.58.52.65 0 0zm3.6-.08c-.1-1.35 3.07-2.6 2.64-1.7-.9.5-1.66 1.28-2.63 1.7zm2.83-.04c-.08-.94.5.56 0 0zm3.5-.03c-1.42-.46.88-1.5 0 0zM33.84 7c.57-.6 1.02.22 0 0zm1.86-.08c.14-.48.74 1.02 0 0zm.7 0c.3-1.02.76.68 0 0zm5.8-.02c-.8-.5.72.17 0 0zm-4.3-.2c.46-.77.8.65 0 0zm3.34-.54c-.06-.44.3.15 0 0zm4.12-.72c.45-.55.25.68 0 0zm-4.02-.03c-.03-.64.5.06 0 0zm1.86 0c0-.26.18.16 0 0zm3.32-.16c-.7-.63 1.3.68 0 0zm-3.83 0c.13-.44.3.3 0 0zm1.4-.36c-.76-1.6 1.87.42 0 0zm1.43.02c-.02-.44.25.35 0 0zm-2.24-.14c.2-.47.13.5 0 0zm2.26-.56c.1-1.15.46.32 0 0z"/></g></g></svg>