<svg xmlns="http://www.w3.org/2000/svg" width="48" height="48" xmlns:xlink="http://www.w3.org/1999/xlink"><defs><linearGradient id="h"><stop offset="0" stop-color="#320000"/><stop offset="1" stop-color="#6a0000"/></linearGradient><linearGradient id="g"><stop offset="0"/><stop offset="1" stop-opacity="0"/></linearGradient><linearGradient id="f"><stop offset="0" stop-color="#340000"/><stop offset="1" stop-color="#730000"/></linearGradient><linearGradient id="e"><stop offset="0" stop-color="#ef2929"/><stop offset="1" stop-color="#ef2929" stop-opacity="0"/></linearGradient><linearGradient id="d"><stop offset="0" stop-color="#eeeeec"/><stop offset="1" stop-color="#b7b7af"/></linearGradient><linearGradient id="c"><stop offset="0" stop-color="#85907a"/><stop offset="1" stop-color="#d3d7cf"/></linearGradient><linearGradient id="b"><stop offset="0"/><stop offset="1" stop-color="#a40000"/></linearGradient><linearGradient id="a"><stop offset="0" stop-color="#bc0000"/><stop offset=".242" stop-color="#b30000"/><stop offset="1" stop-color="#300"/></linearGradient><radialGradient id="i" cx="28.036" cy="14.75" r="17.464" xlink:href="#a" fx="28.036" fy="14.75" gradientUnits="userSpaceOnUse" gradientTransform="matrix(1.278 -.003 .003 1.217 -7.844 -3.103)"/><linearGradient id="j" x1="32.497" x2="32.256" y1="15.687" y2="31.905" xlink:href="#b" gradientUnits="userSpaceOnUse"/><linearGradient id="l" x1="31.898" x2="31.816" y1="14.497" y2="31.912" xlink:href="#c" gradientUnits="userSpaceOnUse"/><linearGradient id="k" x1="32.07" x2="32.07" y1="21.393" y2="31.536" xlink:href="#d" gradientUnits="userSpaceOnUse"/><linearGradient id="m" x1="13.169" x2="35.35" y1="7.217" y2="34.406" xlink:href="#e" gradientUnits="userSpaceOnUse"/><linearGradient x1="90.51" x2="91.116" y1="43.934" y2="52.066" xlink:href="#f" gradientUnits="userSpaceOnUse" gradientTransform="translate(-6.616 -.202)"/><linearGradient id="n" x1="90.51" x2="91.116" y1="43.934" y2="52.066" xlink:href="#f" gradientUnits="userSpaceOnUse" gradientTransform="matrix(.9 0 0 .901 -55.373 -6.712)"/><radialGradient cx="23.714" cy="41.786" r="16.929" xlink:href="#g" fx="23.714" fy="41.786" gradientTransform="matrix(1 0 0 .329 0 28.033)" gradientUnits="userSpaceOnUse"/><linearGradient id="o" x1="19.991" x2="20.139" y1="33.246" y2="39.496" xlink:href="#h" gradientUnits="userSpaceOnUse" gradientTransform="matrix(1.004 0 0 1.004 -.534 -.204)"/></defs><g><path fill="url(#i)" stroke="#570000" stroke-width=".547" d="M42.57 19.96a17.46 17.46 0 1 1-34.93 0 17.46 17.46 0 1 1 34.93 0z" transform="matrix(.916 0 0 .911 -.316 -1.94)" color="#000" overflow="visible" enable-background="accumulate"/><path fill="url(#j)" d="M38.64 23.04a7.14 8.96 0 1 1-14.28 0 7.14 8.96 0 1 1 14.28 0z" transform="matrix(1.075 0 0 1.057 -3.993 -6.597)" color="#000" overflow="visible" enable-background="accumulate"/><path fill="url(#k)" d="M38.64 23.04a7.14 8.96 0 1 1-14.28 0 7.14 8.96 0 1 1 14.28 0z" transform="matrix(1.003 0 0 .937 -2.148 -3.845)" color="#000" overflow="visible" enable-background="accumulate"/><path fill="url(#l)" d="M38.64 23.04a7.14 8.96 0 1 1-14.28 0 7.14 8.96 0 1 1 14.28 0z" transform="matrix(.848 0 0 .792 2.82 -.631)" color="#000" overflow="visible" enable-background="accumulate"/><path fill="#fff" d="M34.32 17.68a5.47 6.4 0 1 1-10.94 0 5.47 6.4 0 1 1 10.94 0z" color="#000" overflow="visible" enable-background="accumulate"/><path fill="none" stroke="url(#m)" stroke-width=".57" d="M42.57 19.96a17.46 17.46 0 1 1-34.93 0 17.46 17.46 0 1 1 34.93 0z" transform="matrix(.879 0 0 .875 .594 -1.22)" color="#000" overflow="visible" enable-background="accumulate"/><path fill="#590000" d="M8.32 38.55L20 35.15l6.6.62 11.22 4.35-14.95 5.9z" color="#000" overflow="visible" enable-background="accumulate"/><path fill="#7a0000" d="M26.32 34.27c.1 1.26.38 2.73 1.55 3.98l-1.44.37-.84-3.32z" color="#000" overflow="visible" enable-background="accumulate"/><path fill="url(#n)" d="M25.08 32.75l3.3-.55c-3.1 1.84-2.76 5.1-.67 7.58l-2.15.77c-1.08-2.4-2.28-5.1-.47-7.8z" color="#000" overflow="visible" enable-background="accumulate"/><path fill="#350000" d="M25.16 33c-1.52 2.34-.62 5.62.4 7.57l-2.38-1.1-.4-7.1z" color="#000" overflow="visible" enable-background="accumulate"/><path fill="#7d0000" d="M19.36 32.6l3.85.17c-.15 2.37-.05 4.7.46 6.94l-2.32.76z" color="#000" overflow="visible" enable-background="accumulate"/><path fill="url(#o)" d="M16.4 31.8c3.4 2.14 3.52 4.7 1.33 6.8l3.66 1.86c.03-2.1 1-5.35-1.65-7.6z" color="#000" overflow="visible" enable-background="accumulate"/><path fill="#380000" d="M14.14 29.97l.22-.66c2.13 1.5 4.84 2.16 7.55 1.9v1.64c-2.7.34-6.3-.78-7.76-2.87z"/><path fill="#720000" d="M21.86 31.2c4.03.38 6.58-.27 9.26-1.84l.38.84c-2.38 2.13-5.77 3.3-9.64 2.66z" color="#000" overflow="visible" enable-background="accumulate"/><path fill="#320000" d="M8.32 38.53l.04 1.7 14.5 7.67.03-1.9z" color="#000" overflow="visible" enable-background="accumulate"/><path fill="#520000" d="M22.87 46l14.93-5.92-.05 1.72-14.86 6.1z" color="#000" overflow="visible" enable-background="accumulate"/></g></svg>