<svg xmlns="http://www.w3.org/2000/svg" width="48" height="48" xmlns:xlink="http://www.w3.org/1999/xlink"><defs><linearGradient id="a"><stop offset="0" stop-color="#2e3436"/><stop offset="1" stop-color="#2e3436" stop-opacity="0"/></linearGradient><radialGradient id="b" cx="24.032" cy="39.524" r="23.841" xlink:href="#a" fx="24.032" fy="39.524" gradientTransform="matrix(1 0 0 .345 0 25.893)" gradientUnits="userSpaceOnUse"/></defs><g><path fill="url(#b)" d="M47.87 39.52a23.84 8.22 0 1 1-47.68 0 23.84 8.22 0 1 1 47.67 0z" color="#000" overflow="visible" enable-background="accumulate"/><path fill="#c4a000" stroke="#7c6500" stroke-width=".5" d="M18.52 9.72l.75 12L25.7.15z" stroke-linejoin="bevel"/><path fill="#e8da63" stroke="#7c6500" stroke-width=".5" d="M25.6.14L37.42 15.5l-18.05 6.28z" color="#000" stroke-linejoin="bevel" overflow="visible" enable-background="accumulate"/><path fill="#adbdc6" stroke="#5c7281" stroke-width=".5" d="M30.24 6.08l5.14-1.6 2.1 11.07z" color="#000" stroke-linejoin="bevel" overflow="visible" enable-background="accumulate"/><path fill="#e8da63" stroke="#7c6500" stroke-width=".5" d="M37.42 15.5L47.9 29.36 31.1 35.9z" color="#000" stroke-linejoin="bevel" overflow="visible" enable-background="accumulate"/><path fill="#adbdc6" stroke="#5c7281" stroke-width=".5" d="M19.32 21.83l18.1-6.28 2.74 13.07z" color="#000" stroke-linejoin="bevel" overflow="visible" enable-background="accumulate"/><path fill="#475563" stroke="#5c7281" stroke-width=".5" d="M19.37 21.83L31.04 35.7l9.07-7.08z" color="#000" stroke-linejoin="bevel" overflow="visible" enable-background="accumulate"/><path fill="#475563" stroke="#5c7281" stroke-width=".5" d="M24 41.58l-3.28-3.6 10.42-2.13z" color="#000" stroke-linejoin="bevel" overflow="visible" enable-background="accumulate"/><path fill="#c4a000" stroke="#7c6500" stroke-width=".5" d="M12.74 29.36l6.58-7.58-6.48 21.6z" color="#000" stroke-linejoin="bevel" overflow="visible" enable-background="accumulate"/><path fill="#475563" stroke="#5c7281" stroke-width=".5" d="M19.42 21.78l-6.58 7.48L.22 15.5z" color="#000" stroke-linejoin="bevel" overflow="visible" enable-background="accumulate"/><path fill="#adbdc6" stroke="#5c7281" stroke-width=".5" d="M.42 15.65l18.1-5.88.75 12.2z" color="#000" stroke-linejoin="bevel" overflow="visible" enable-background="accumulate"/><path fill="#e8da63" stroke="#7c6500" stroke-width=".5" d="M19.37 21.78l-6.63 21.55 18.65-7.48z" color="#000" stroke-linejoin="bevel" overflow="visible" enable-background="accumulate"/></g></svg>