<svg xmlns="http://www.w3.org/2000/svg" width="48" height="48" xmlns:xlink="http://www.w3.org/1999/xlink"><defs><linearGradient id="a"><stop offset="0" stop-color="#2e3436"/><stop offset="1" stop-color="#2e3436" stop-opacity="0"/></linearGradient><radialGradient id="b" cx="24.032" cy="39.524" r="23.841" xlink:href="#a" fx="24.032" fy="39.524" gradientTransform="matrix(1 0 0 .345 0 25.893)" gradientUnits="userSpaceOnUse"/></defs><g><path fill="url(#b)" d="M47.87 39.52a23.84 8.22 0 1 1-47.68 0 23.84 8.22 0 1 1 47.67 0z" transform="matrix(.812 0 0 .812 4.586 4.139)" color="#000" overflow="visible" enable-background="accumulate"/><path fill="#888a85" stroke="#5c7281" stroke-width=".5" d="M19.64 12.03l.6 9.76 5.23-17.55z" stroke-linejoin="bevel"/><path fill="#eeeeec" stroke="#5c7281" stroke-width=".5" d="M25.4 4.25L35 16.73l-14.68 5.1z" color="#000" stroke-linejoin="bevel" overflow="visible" enable-background="accumulate"/><path fill="#d3d7cf" stroke="#5c7281" stroke-width=".5" d="M29.16 9.07l4.17-1.3 1.7 9z" color="#000" stroke-linejoin="bevel" overflow="visible" enable-background="accumulate"/><path fill="#eeeeec" stroke="#5c7281" stroke-width=".5" d="M35 16.73L43.5 28l-13.66 5.3z" color="#000" stroke-linejoin="bevel" overflow="visible" enable-background="accumulate"/><path fill="#d3d7cf" stroke="#5c7281" stroke-width=".5" d="M20.28 21.87l14.7-5.1 2.24 10.6z" color="#000" stroke-linejoin="bevel" overflow="visible" enable-background="accumulate"/><path fill="#babdb6" stroke="#5c7281" stroke-width=".5" d="M20.32 21.87l9.48 11.27 7.38-5.76z" color="#000" stroke-linejoin="bevel" overflow="visible" enable-background="accumulate"/><path fill="#babdb6" stroke="#5c7281" stroke-width=".5" d="M24.1 37.92L21.4 35l8.46-1.74z" color="#000" stroke-linejoin="bevel" overflow="visible" enable-background="accumulate"/><path fill="#888a85" stroke="#5c7281" stroke-width=".5" d="M14.94 28l5.34-6.17-5.26 17.54z" color="#000" stroke-linejoin="bevel" overflow="visible" enable-background="accumulate"/><path fill="#babdb6" stroke="#5c7281" stroke-width=".5" d="M20.36 21.83l-5.34 6.08L4.77 16.74z" color="#000" stroke-linejoin="bevel" overflow="visible" enable-background="accumulate"/><path fill="#d3d7cf" stroke="#5c7281" stroke-width=".5" d="M4.93 16.85l14.7-4.78.6 9.93z" color="#000" stroke-linejoin="bevel" overflow="visible" enable-background="accumulate"/><path fill="#eeeeec" stroke="#5c7281" stroke-width=".5" d="M20.32 21.83l-5.38 17.5 15.15-6.07z" color="#000" stroke-linejoin="bevel" overflow="visible" enable-background="accumulate"/><path fill="#eeeeec" fill-opacity=".333" stroke="#ef2929" d="M18.03 10L25.4.9l4.5 5.2 5.28-2.02 2.3 11.4 10.04 13.68-16.15 6.78-7.06 5.77-2.58-1.85L13 43.5l-.77-14.24L.67 15.94z"/></g></svg>