<svg xmlns="http://www.w3.org/2000/svg" width="48" height="48"><defs><radialGradient id="a" cx="1125.395" cy="613.743" r="27.279" gradientUnits="userSpaceOnUse" fy="613.743" fx="1125.395"><stop offset=".264" stop-color="#fff"/><stop offset=".285" stop-color="#F6F7F8"/><stop offset=".347" stop-color="#E3E6E8"/><stop offset=".418" stop-color="#D5D9DD"/><stop offset=".505" stop-color="#CCD2D7"/><stop offset=".657" stop-color="#CAD0D5"/><stop offset="1" stop-color="#78828C"/></radialGradient></defs><g><circle cx="1131.193" cy="619.511" r="21.458" fill="url(#a)" stroke="#41464c" stroke-width=".92" transform="matrix(1.087 0 0 1.087 -1204.851 -648.944)"/><path d="M33.06 45.77c1.7-1.04 3.1-2.67 4.16-4.77 2.52-.85 4.57-1.96 5.97-3.22h-.02c-2.53 3.53-6.04 6.33-10.12 8"/><path d="M47.56 23.85c0 1.1-.45 2.15-1.26 3.13.04 4.15-1.15 7.9-3.25 10.92l.14-.12c2.74-3.82 4.36-8.52 4.36-13.6v-.33z"/><path d="M46.3 26.98c0-.36-.02-.7-.04-1.07-.2-3.5-1.27-6.9-2.98-9.95-1.14 1.42-3.2 2.67-5.9 3.63.84 2.5 1.44 5.1 1.73 7.77.16 1.33.23 2.6.22 3.84 3.16-1.12 5.6-2.57 6.98-4.22z"/><path d="M24.5 2.75c3.92.6 7.6 2.15 10.8 4.4-.7.77-1.9 1.45-3.43 1.98-2.17-2.8-4.67-5-7.3-6.35l-.07-.03z"/><path d="M14.16 3.16c-.4.27-.74.56-1 .86 2.87-1.2 6.16-1.75 9.7-1.46.55.04 1.1.1 1.64.2l.07.02c-1.1-.57-2.25-.98-3.4-1.2-.6-.13-1.16-.2-1.7-.22-1.87.4-3.64 1-5.3 1.8z"/><path d="M39.32 31.2c-3.1 1.07-6.88 1.83-11.05 2.13 0 3.8-.2 7.06-.53 9.5 3.54-.27 6.78-.9 9.48-1.83 1.33-2.62 2.08-5.97 2.1-9.8z"/><path d="M26.48 10.17c.56 3.22 1.04 7.08 1.35 11.3 3.6-.28 6.9-.94 9.55-1.9-1.32-3.9-3.23-7.5-5.5-10.44-1.53.52-3.37.88-5.4 1.04z"/><path d="M43.08 10.44c-1.95-2.27-4.4-4.14-7.2-5.47V4.9c.07.23.1.44.1.66 0 .56-.24 1.1-.68 1.58 3.3 2.3 6.05 5.35 7.98 8.8.66-.8 1.02-1.68 1.02-2.58 0-.77-.26-1.5-.73-2.2l-.5-.72z"/><path d="M4.94 11.1c-.5.72-.75 1.48-.75 2.26 0 .5.1 1 .3 1.48 2.03-3.4 4.88-6.25 8.24-8.33-.16-.3-.24-.6-.24-.94 0-.54.23-1.06.65-1.54-1.06.44-2.07.98-3 1.6C8.1 7.15 6.36 9 4.94 11.1z"/><path d="M1.3 25.53c-.25-.55-.37-1.1-.37-1.68 0 .1 0 .22 0 .33 0 1.6.16 3.18.47 4.7-.12-1.1-.16-2.2-.1-3.35"/><path d="M26.04 47.43c-.6.04-1.2.07-1.8.07-1.24 0-2.47-.1-3.66-.3-1.42-.4-2.53-2.12-3.28-4.76 2.18.33 4.5.5 6.94.5 1.2 0 2.36-.04 3.5-.12-.38 2.73-.95 4.4-1.7 4.6z"/><path d="M17.36 21.1c-.17 1-.34 2-.47 3.05-.44 3.1-.64 6.04-.65 8.74 2.5.37 5.18.57 8 .57 1.37 0 2.7-.05 4.02-.14 0-2.7-.07-5.64-.24-8.75-.05-1.06-.12-2.1-.2-3.12-1.16.08-2.36.13-3.6.13-2.4 0-4.72-.18-6.87-.5z"/><path d="M24.52 2.73C23.06 4.27 21.64 6.8 20.4 10c1.2.16 2.5.26 3.84.26.77 0 1.5-.03 2.24-.1-.57-3.24-1.24-5.83-1.93-7.44h-.03z"/><path d="M27.32 1.07c-.92.1-1.87.67-2.8 1.66h.03c-.5-1.13-1-1.78-1.48-1.84h.03c.38-.02.76-.03 1.14-.03 1.04 0 2.07.07 3.07.2h.02z"/><path d="M12.5 44.32c-1.52-1.2-2.75-2.65-3.7-4.3-1.4-.66-2.6-1.42-3.5-2.24 1.9 2.63 4.32 4.85 7.12 6.5l.07.04z"/><path d="M6.37 30c-.02 3.77.8 7.2 2.43 10.02 2.3 1.08 5.22 1.92 8.5 2.42-.7-2.48-1.06-5.76-1.05-9.55-3.88-.6-7.28-1.6-9.9-2.88V30h.02z"/><path d="M1.3 25.53c.7 1.7 2.5 3.23 5.07 4.5V30c0-1.7.17-3.5.52-5.33.4-2.12 1-4.16 1.8-6.1-2.1-1.06-3.57-2.34-4.2-3.73-1.54 2.6-2.6 5.5-3.02 8.6-.1.7-.16 1.4-.2 2.1z"/><path d="M20.4 10c-2.02-.28-3.77-.77-5.12-1.4-2.7 2.72-5 6.14-6.57 9.96 2.27 1.14 5.25 2.02 8.66 2.53.75-4.16 1.8-7.96 3.03-11.1z"/><path d="M24.3 2.8c-3.24 1.07-6.34 3.1-9.02 5.8-1.25-.6-2.14-1.3-2.54-2.1 3.43-2.12 7.4-3.44 11.56-3.7z"/><path d="M24.57 2.78c1.08-.05 2.16-.04 3.25.05 2.92.24 5.63.98 8.07 2.14l-.03-.06c-.2-.62-.75-1.22-1.54-1.74l-.04-.02c-.8-.4-1.65-.73-2.5-1.02-.75-.12-1.52-.18-2.32-.18-1.66 0-3.33.27-4.96.8l.05.04z"/></g></svg>