<svg xmlns="http://www.w3.org/2000/svg" width="48" height="48" xmlns:ns="&ns_ai;" xmlns:xlink="http://www.w3.org/1999/xlink"><defs><linearGradient id="g"><stop offset="0" stop-color="#ef2929"/><stop offset="1" stop-color="#ef2929" stop-opacity="0"/></linearGradient><linearGradient id="c"><stop offset="0" stop-color="#f3f4ff"/><stop offset="1" stop-color="#9193af"/></linearGradient><linearGradient id="e"><stop offset="0" stop-color="#a0a0a0"/><stop offset="1" stop-color="#fff"/></linearGradient><linearGradient id="d"><stop offset="0" stop-color="#fffffd"/><stop offset="1" stop-color="#cbcbc9"/></linearGradient><linearGradient id="f"><stop offset="0" stop-color="#9497b3"/><stop offset="1" stop-color="#4c4059"/></linearGradient><linearGradient id="b"><stop offset="0" stop-color="#9aa29a"/><stop offset="1" stop-color="#b5beb5"/></linearGradient><linearGradient id="a"><stop offset="0"/><stop offset="1" stop-opacity="0"/></linearGradient><radialGradient id="h" cx="31.113" cy="19.009" r="8.662" xlink:href="#a" fx="31.113" fy="19.009" gradientUnits="userSpaceOnUse"/><linearGradient id="i" x1="8.916" x2="9.886" y1="37.197" y2="52.091" xlink:href="#b" gradientUnits="userSpaceOnUse" gradientTransform="matrix(3.215 0 0 .998 -33.511 -20.871)"/><radialGradient id="m" cx="11.329" cy="10.584" r="15.532" xlink:href="#c" gradientUnits="userSpaceOnUse" fx="11.329" fy="10.584"/><radialGradient id="k" cx="11.902" cy="10.045" r="29.293" xlink:href="#d" gradientUnits="userSpaceOnUse" fx="11.902" fy="10.045"/><linearGradient id="l" x1="6.342" x2="22.218" y1="7.789" y2="25.884" xlink:href="#e" gradientUnits="userSpaceOnUse"/><radialGradient id="j" cx="8.747" cy="6.828" r="29.89" xlink:href="#f" gradientUnits="userSpaceOnUse" fx="8.747" fy="6.828"/><linearGradient id="n" x1="25.464" x2="12.356" y1="112.507" y2="123.412" xlink:href="#g" gradientUnits="userSpaceOnUse"/><linearGradient id="o" x1="25.464" x2="12.356" y1="112.507" y2="123.412" xlink:href="#g" gradientUnits="userSpaceOnUse"/></defs><g><path fill="url(#h)" fill-rule="evenodd" d="M39.77 19a8.66 8.66 0 1 1-17.32 0 8.66 8.66 0 1 1 17.32 0z" transform="matrix(2.638 0 0 1.255 -58.31 13.744)" color="#000" overflow="visible"/><path fill="url(#i)" fill-rule="evenodd" d="M18.44.74L3.66 17.92l1.3 1.28L18.43.74z" color="#000" overflow="visible"/><path fill="#fefefe" fill-rule="evenodd" d="M18.3.65L5.14 18.92l1.9 1.66L18.3.65z"/><path fill="url(#j)" fill-rule="evenodd" stroke="#605773" stroke-width=".679" d="M31.16 16.9a14.9 14.9 0 1 1-29.82 0 14.9 14.9 0 1 1 29.82 0z" transform="matrix(1.473 0 0 1.473 -.107 -2.409)" stroke-linecap="round" stroke-linejoin="round"/><path fill="url(#k)" fill-rule="evenodd" stroke="url(#l)" stroke-width=".691" d="M31.16 16.9a14.9 14.9 0 1 1-29.82 0 14.9 14.9 0 1 1 29.82 0z" transform="matrix(1.198 0 0 1.198 4.272 2.153)" stroke-linecap="round" stroke-linejoin="round"/><path fill="none" stroke="#000" stroke-width="3" d="M19.28 29.94l3.05-4.63" stroke-linecap="round"/><path fill="#b6b9b1" fill-rule="evenodd" d="M25.38 8.3a1.75 1.75 0 1 1-3.5 0 1.75 1.75 0 1 1 3.5 0z"/><path fill="#b6b9b1" fill-rule="evenodd" d="M25.38 36.3a1.75 1.75 0 1 1-3.5 0 1.75 1.75 0 1 1 3.5 0z"/><path fill="#b6b9b1" fill-rule="evenodd" d="M11.37 22.3a1.75 1.75 0 1 1-3.5 0 1.75 1.75 0 1 1 3.5 0z"/><path fill="#b6b9b1" fill-rule="evenodd" d="M39.38 22.3a1.75 1.75 0 1 1-3.5 0 1.75 1.75 0 1 1 3.5 0z"/><path fill="none" stroke="url(#m)" stroke-width=".716" d="M31.16 16.9a14.9 14.9 0 1 1-29.82 0 14.9 14.9 0 1 1 29.82 0z" transform="matrix(1.397 0 0 1.397 1.128 -1.214)" stroke-linecap="round" stroke-linejoin="round"/><path fill="none" stroke="#000" stroke-width="2" d="M37.45 27.7L26.1 23.4" stroke-linecap="round"/><g fill="url(#n)" transform="matrix(.833 .654 -.654 .833 85.76 -96.257)"><path fill="url(#o)" stroke="#fff" stroke-width=".755" d="M28.02 114.98c-1.12-.42-2.28-.67-3.44-.72-6.08-.3-10.77 4.5-10.46 10.73l-3.23-.18c-.4-8.05 5.66-14.27 13.5-13.87 2 .1 4 .63 5.83 1.53l.02-.02 1.14-4.98 5.65 11.37-13.5-.1 4.47-3.77z" ns:knockout="Off"/></g><path fill="none" stroke="#babdb6" stroke-width="2" d="M22.13 20.62l-9.28-7.8" stroke-linecap="round"/><path fill="#f3f3f3" fill-rule="evenodd" stroke="#000" stroke-width=".9989699999999999" d="M26.8 22.65a2.6 2.6 0 1 1-5.2 0 2.6 2.6 0 1 1 5.2 0z" stroke-linecap="round" stroke-linejoin="round"/></g></svg>