<svg xmlns="http://www.w3.org/2000/svg" width="48" height="48" xmlns:xlink="http://www.w3.org/1999/xlink"><defs><linearGradient id="j"><stop offset="0" stop-opacity="0"/><stop offset=".5" stop-opacity=".515"/><stop offset="1" stop-opacity="0"/></linearGradient><radialGradient id="i" cx="33.161" cy="46.365" r="28.435" gradientUnits="userSpaceOnUse" gradientTransform="matrix(-1 0 0 1 55.359 0)" fy="46.365" fx="33.161"><stop offset="0" stop-color="#fff"/><stop offset=".09" stop-color="#F9FAFA"/><stop offset=".211" stop-color="#E8EBED"/><stop offset=".35" stop-color="#CCD2D7"/><stop offset=".5" stop-color="#A5B0B8"/><stop offset=".579" stop-color="#8E9CA6"/><stop offset="1" stop-color="#505359"/></radialGradient><linearGradient id="g"><stop offset="0"/><stop offset="1" stop-opacity="0"/></linearGradient><linearGradient id="f"><stop offset="0"/><stop offset="1" stop-opacity="0"/></linearGradient><linearGradient id="e"><stop offset="0" stop-color="#fff" stop-opacity=".722"/><stop offset="1" stop-color="#fff" stop-opacity="0"/></linearGradient><radialGradient cx="38.921" cy="39.927" r="34.589" fx="38.921" fy="39.927" gradientTransform="matrix(-1 0 0 1 55.359 0)" gradientUnits="userSpaceOnUse"><stop offset="0" stop-color="#fff"/><stop offset="1" stop-color="#8D9BA6"/></radialGradient><radialGradient id="a" cx="33.161" cy="46.365" r="28.435" gradientUnits="userSpaceOnUse" gradientTransform="matrix(-1 0 0 1 55.359 0)" fy="46.365" fx="33.161"><stop offset="0" stop-color="#fff"/><stop offset=".09" stop-color="#F9FAFA"/><stop offset=".211" stop-color="#E8EBED"/><stop offset=".35" stop-color="#CCD2D7"/><stop offset=".5" stop-color="#A5B0B8"/><stop offset=".579" stop-color="#8E9CA6"/><stop offset="1" stop-color="#505359"/></radialGradient><radialGradient id="b" cx="33.161" cy="46.365" r="28.435" xlink:href="#a" gradientUnits="userSpaceOnUse" gradientTransform="matrix(-1 0 0 1 55.359 0)" fy="46.365" fx="33.161" spreadMethod="pad"><stop offset="0" stop-color="#fff"/><stop offset=".09" stop-color="#F9FAFA"/><stop offset=".211" stop-color="#E8EBED"/><stop offset=".35" stop-color="#CCD2D7"/><stop offset=".5" stop-color="#A5B0B8"/><stop offset=".579" stop-color="#8E9CA6"/><stop offset="1" stop-color="#505359"/></radialGradient><radialGradient id="c" cx="33.161" cy="46.365" r="28.435" xlink:href="#b" gradientUnits="userSpaceOnUse" gradientTransform="matrix(-1 0 0 1 55.359 0)" fy="46.365" fx="33.161" spreadMethod="pad"><stop offset="0" stop-color="#fff"/><stop offset=".09" stop-color="#F9FAFA"/><stop offset=".211" stop-color="#E8EBED"/><stop offset=".35" stop-color="#CCD2D7"/><stop offset=".5" stop-color="#A5B0B8"/><stop offset=".579" stop-color="#8E9CA6"/><stop offset="1" stop-color="#505359"/></radialGradient><radialGradient id="h" cx="33.161" cy="46.365" r="28.435" fx="33.161" fy="46.365" gradientTransform="matrix(-1 0 0 1 55.359 0)" gradientUnits="userSpaceOnUse" xlink:href="#c" spreadMethod="pad"><stop offset="0" stop-color="#575a61"/><stop offset="1" stop-color="#a6adbb"/></radialGradient><linearGradient id="d"><stop offset="0"/><stop offset="1" stop-opacity="0"/></linearGradient><radialGradient cx="24.205" cy="40.568" r="18.837" xlink:href="#d" fx="24.205" fy="40.568" gradientTransform="matrix(1 0 0 .263 0 29.898)" gradientUnits="userSpaceOnUse"/><radialGradient id="l" cx="24.057" cy="12.669" r="10.413" xlink:href="#e" fx="24.057" fy="12.669" gradientTransform="matrix(1 0 0 .524 0 6.029)" gradientUnits="userSpaceOnUse"/><radialGradient cx="24.057" cy="12.669" r="10.413" xlink:href="#e" gradientUnits="userSpaceOnUse" gradientTransform="matrix(1 0 0 .524 0 6.029)" fx="24.057" fy="12.669"/><linearGradient id="m" x1="28.831" x2="27.864" y1="26.111" y2="18.499" xlink:href="#f" gradientUnits="userSpaceOnUse"/><radialGradient cx="24.057" cy="12.669" r="10.413" xlink:href="#e" gradientUnits="userSpaceOnUse" gradientTransform="matrix(1 0 0 .524 0 6.029)" fx="24.057" fy="12.669"/><linearGradient x1="7.218" x2="9.766" y1="40.963" y2="30.263" xlink:href="#g" gradientUnits="userSpaceOnUse"/><radialGradient cx="33.161" cy="46.365" r="28.435" xlink:href="#h" gradientUnits="userSpaceOnUse" gradientTransform="matrix(-1 0 0 1 55.359 0)" spreadMethod="pad" fx="33.161" fy="46.365"/><radialGradient cx="33.161" cy="46.365" r="28.435" xlink:href="#i" gradientUnits="userSpaceOnUse" gradientTransform="matrix(-1 0 0 1 55.359 0)" spreadMethod="pad" fx="33.161" fy="46.365"/><radialGradient id="k" cx="23.697" cy="39.598" r="22.692" xlink:href="#j" fx="23.697" fy="39.598" gradientTransform="matrix(1 0 0 .541 0 18.17)" gradientUnits="userSpaceOnUse"/></defs><g><path fill="url(#k)" d="M46.4 39.6a22.7 12.28 0 1 1-45.4 0 22.7 12.28 0 1 1 45.4 0z" transform="matrix(1 0 0 1.158 0 -15.66)" color="#000" overflow="visible"/><path fill="#a5b0b9" d="M23.86 10.7C11.8 10.7 2 17.14 2 25.12 2 33.1 11.8 39.6 23.87 39.6c12.05 0 21.84-6.5 21.84-14.47 0-7.98-9.8-14.44-21.84-14.44zm.18 10.58c5.47 0 9.8 3.33 9.88 3.28.26.05-4.4 2.85-9.88 2.85-5.46 0-9.9-2.88-9.9-2.84 0-.04 4.44-3.28 9.9-3.28z" color="#000" overflow="visible"/><g fill="none" stroke="#50687c"><path d="M41.75 20.03a18.28 9.53 0 1 1-36.56 0 18.28 9.53 0 1 1 36.55 0z" color="#000" overflow="visible"/><path d="M37.97 19.75a14.47 7.47 0 1 1-28.94 0 14.47 7.47 0 1 1 28.94 0z" color="#000" overflow="visible"/><path d="M34.9 21.4a11.4 5.8 0 1 1-22.8 0 11.4 5.8 0 1 1 22.8 0z" color="#000" overflow="visible"/><path d="M13.38 24c1.56-3.75 6.3-4.94 10.74-4.94s9.25 2.94 10.32 4.32"/><path d="M39.07 14.3c3.63 2.03 5.84 4.9 5.84 7.98 0 6.18-9.58 11.2-21.4 11.2-11.82 0-21.4-5.02-21.4-11.2 0-3.1 2.14-5.88 6.02-7.9" color="#000" overflow="visible"/><path d="M45.78 25.25c0 6.8-9.9 12.3-22.12 12.3s-22.13-5.5-22.13-12.3" color="#000" overflow="visible"/><path d="M24.56 10.5c-1.25 4.25-.37 10.06-.25 11.44"/><path d="M14.2 11.63c3.74 2.18 5.05 10.18 3.05 11.62"/><path d="M35.13 12.3c-6.32 1.5-5.38 9.64-5.13 10.82"/><path d="M5.2 16.5c4.86-1.7 7.1 1.7 8 2.75.86 1.06 1.55 4 .8 5.44"/><path d="M43.63 18.2c-3.38-2.57-6.07-.76-7.26-.14-1.22.65-3.56 3.5-3.43 6.25"/><path d="M44.7 29.38c-.2-4.07-2.25-5.33-3.83-6.25-2.98-1.76-6.93.06-8.06 1.43"/><path d="M1.44 25.75c1.44-3.3 4.7-4.35 6.7-4.38 3.1-.03 5.36 2.32 6.1 3.57"/><path d="M30.8 26c5.4.8 6.45 9.44 4.82 12"/><path d="M14.44 25.44c-6.25.93-6.88 10-5.7 11.3"/><path d="M22.2 27.47c-.8 3.94-.62 9.5 0 12.62"/></g><path fill="none" stroke="#192333" stroke-width=".971" d="M23.44 10.23c-12.05 0-21.85 6.7-21.85 14.94 0 8.25 9.8 14.97 21.84 14.97 12.05 0 21.72-6.6 21.84-14.97.12-8.25-9.8-14.94-21.84-14.94zm.18 11.53c5.47 0 9.8 2.88 9.88 2.83.27.03-4.4 2.93-9.88 2.93-5.46 0-9.9-3-9.9-2.94 0-.05 4.44-2.84 9.9-2.84z" color="#000" overflow="visible"/><path fill="url(#l)" d="M34.47 12.67a10.4 5.46 0 1 1-20.83 0 10.4 5.46 0 1 1 20.83 0z" transform="matrix(.977 -.215 .215 .977 -11.643 9.5)" color="#000" overflow="visible"/><path fill="url(#m)" fill-rule="evenodd" d="M33.46 24.3c3.16-1.43 4.03-3.88 2.73-6.32-.6-1.13-13.08-2.44-17.24 4.02 3.73-1 11.63 1 14.5 2.3z"/></g></svg>