<svg xmlns="http://www.w3.org/2000/svg" width="48" height="48" xmlns:xlink="http://www.w3.org/1999/xlink"><defs><linearGradient id="a" x1="7.062" x2="47.062" y1="215.161" y2="175.161" gradientUnits="userSpaceOnUse"><stop offset=".101" stop-color="#fff" stop-opacity="0"/><stop offset="1" stop-color="#f8c792"/></linearGradient><linearGradient id="b" x1="18.168" x2="99.022" y1="204.108" y2="142.109" gradientUnits="userSpaceOnUse"><stop offset="0" stop-color="#fff" stop-opacity="0"/><stop offset="1" stop-color="#F39336"/></linearGradient><radialGradient id="e" cx="1429.137" cy="1904.913" r="6.994" gradientUnits="userSpaceOnUse" gradientTransform="matrix(-.869 -.495 -.495 .869 2192.817 -734.313)" fy="1904.913" fx="1429.137"><stop offset="0" stop-color="#fff"/><stop offset=".764" stop-color="#F17912"/><stop offset="1" stop-color="#8C3E0C"/></radialGradient><radialGradient id="f" cx="1426.381" cy="1886.947" r="6.992" gradientUnits="userSpaceOnUse" gradientTransform="matrix(-.869 -.495 -.495 .869 2192.817 -734.313)" fy="1886.947" fx="1426.381"><stop offset="0" stop-color="#fff"/><stop offset=".764" stop-color="#F17912"/><stop offset="1" stop-color="#8C3E0C"/></radialGradient><radialGradient id="g" cx="1422.603" cy="1870.492" r="6.993" gradientUnits="userSpaceOnUse" gradientTransform="matrix(-.869 -.495 -.495 .869 2192.817 -734.313)" fy="1870.492" fx="1422.603"><stop offset="0" stop-color="#fff"/><stop offset=".764" stop-color="#F17912"/><stop offset="1" stop-color="#8C3E0C"/></radialGradient><radialGradient id="h" cx="1414.863" cy="1859.662" r="6.994" gradientUnits="userSpaceOnUse" gradientTransform="matrix(-.869 -.495 -.495 .869 2192.817 -734.313)" fy="1859.662" fx="1414.863"><stop offset="0" stop-color="#fff"/><stop offset=".764" stop-color="#F17912"/><stop offset="1" stop-color="#8C3E0C"/></radialGradient><linearGradient x1="18.168" x2="99.022" y1="204.108" y2="142.109" gradientUnits="userSpaceOnUse"><stop offset="0" stop-color="#fff"/><stop offset="1" stop-color="#F39336"/></linearGradient><linearGradient x1="7.062" x2="47.062" y1="215.161" y2="175.161" gradientUnits="userSpaceOnUse"><stop offset=".101" stop-color="#fff"/><stop offset="1" stop-color="#F4A754"/></linearGradient><linearGradient id="d" x1="-2.938" x2="40.919" y1="227.161" y2="184.018" xlink:href="#a" gradientUnits="userSpaceOnUse" gradientTransform="matrix(1.027 0 0 1.027 -2.476 -180.368)"/><linearGradient id="c" x1="3.454" x2="42.879" y1="222.537" y2="183.109" xlink:href="#b" gradientUnits="userSpaceOnUse" gradientTransform="matrix(1.027 0 0 1.027 -2.476 -180.368)"/></defs><g><path fill="url(#c)" d="M-2.48 42.02l7.97 7.82c12.7-12.46 19.9-30.4 37.58-36.48L40.5 2.5C20.18 7.92 11 27.7-2.47 42.02z"/><path fill="url(#d)" d="M-.92 41.98c1.12 1.1 5.2 5.1 6.37 6.26 12.17-12.26 19.4-29.26 36.3-35.64-.35-1.48-1.66-7.04-2.06-8.7C20.86 9.85 11.75 28.3-.93 42z"/><circle cx="8.314" cy="215.638" r="5.507" fill="url(#e)" transform="matrix(1.027 0 0 1.027 -2.476 -180.368)" opacity=".6"/><circle cx="19.604" cy="201.394" r="5.506" fill="url(#f)" transform="matrix(1.027 0 0 1.027 -2.476 -180.368)" opacity=".7"/><circle cx="31.033" cy="188.968" r="5.507" fill="url(#g)" transform="matrix(1.027 0 0 1.027 -2.476 -180.368)" opacity=".75"/><circle cx="43.118" cy="183.392" r="5.507" fill="url(#h)" stroke="#3f1c08" stroke-width=".974" transform="matrix(1.027 0 0 1.027 -2.476 -180.368)"/></g></svg>