<svg xmlns="http://www.w3.org/2000/svg" width="48" height="48" xmlns:xlink="http://www.w3.org/1999/xlink"><defs><linearGradient id="a"><stop offset="0" stop-color="#ff8d1e"/><stop offset="1" stop-color="#ffe4c9"/></linearGradient><linearGradient x1=".429" x2="47.143" y1="13" y2="33" xlink:href="#a" gradientUnits="userSpaceOnUse"/><linearGradient x1=".429" x2="47.143" y1="13" y2="33" xlink:href="#a" gradientUnits="userSpaceOnUse" gradientTransform="translate(-63 -9.857)"/><linearGradient id="b" x1="106.429" x2="66.286" y1="33" y2="31.714" xlink:href="#a" gradientUnits="userSpaceOnUse" gradientTransform="translate(-63 -9.857)"/></defs><g color="#000"><path fill="url(#b)" fill-rule="evenodd" stroke="#000" stroke-width="2" d="M1.57 2.43c11 4.14 31.57 4.43 42.3-1.3l.27 42.16c-11.64 5.27-28.26 5.43-39.85 0L1.56 2.42z" overflow="visible"/><path fill="none" stroke="#eeeeec" d="M3.14 4.58c10 3.38 29.08 3.27 39.2-1.33l.26 38.93c-10.75 4.87-26.24 5.03-36.95 0l-2.5-37.6z" overflow="visible"/><path fill="none" stroke="#954200" d="M2.7 13c10.44 3.86 30.16 3.86 40.87-.86" stroke-linejoin="bevel" overflow="visible"/><path fill="none" stroke="#954200" d="M2.86 23.03C13.3 26.9 33 26.9 43.7 22.17" stroke-linejoin="bevel" overflow="visible"/><path fill="none" stroke="#954200" d="M3.64 33.32c10.43 3.85 30.15 3.85 40.86-.86" stroke-linejoin="bevel" overflow="visible"/><path fill="none" stroke="#954200" d="M11.43 4.86L13.57 46" stroke-linejoin="bevel" overflow="visible"/><path fill="none" stroke="#954200" d="M22.43 5.93l.86 41.14" stroke-linejoin="bevel" overflow="visible"/><path fill="none" stroke="#954200" d="M33.3 5.3l.27 40.27" stroke-linejoin="bevel" overflow="visible"/><path fill="none" stroke="#954200" d="M2.57 3.86c4 8.75 32.3 33.47 40.14 38.57" stroke-linejoin="bevel" overflow="visible"/><path fill="none" stroke="#954200" d="M11.5 5c4.1 6.1 27.2 24.2 33.43 28" stroke-linejoin="bevel" overflow="visible"/><path fill="none" stroke="#954200" d="M22.3 6.3c2.48 3.2 18.13 13.3 22 16.13" stroke-linejoin="bevel" overflow="visible"/><path fill="none" stroke="#954200" d="M33.3 5.5c1 1.7 8.26 6.45 10.27 7.43" stroke-linejoin="bevel" overflow="visible"/><path fill="none" stroke="#954200" d="M2.5 13.43C6 20.47 28.3 41.3 34.07 46" stroke-linejoin="bevel" overflow="visible"/><path fill="none" stroke="#954200" d="M3.3 23c3 5.45 17.33 20.83 20.4 24" stroke-linejoin="bevel" overflow="visible"/><path fill="none" stroke="#954200" d="M3.7 33.5C4.75 36.3 12 44.16 14 45.8" stroke-linejoin="bevel" overflow="visible"/></g></svg>