<svg xmlns="http://www.w3.org/2000/svg" width="48" height="48" xmlns:xlink="http://www.w3.org/1999/xlink"><defs><linearGradient id="a"><stop offset="0" stop-color="#e4e7e9"/><stop offset="1" stop-color="#7e8689"/></linearGradient><radialGradient id="b" cx="20.613" cy="24.143" r="20.506" xlink:href="#a" fx="20.613" fy="24.143" gradientTransform="matrix(.937 .455 -.548 1.128 14.515 -12.473)" gradientUnits="userSpaceOnUse"/></defs><g><path fill="url(#b)" fill-rule="evenodd" stroke="#000" stroke-width="1.5" d="M40.37 1.07c-22.34 3-35.1 14.87-39.5 29.5 6.72 9.37 18.77 15.4 34.42 16.65-2.43-14.63-1.86-34.9 5.07-46.15z"/><path fill="none" stroke="#555753" stroke-width="1.5" d="M19.14 9.57c-3.5 10.03-.72 25.95 2.86 34" stroke-linecap="round"/><path fill="none" stroke="#555753" stroke-width="1.5" d="M19.3 9.14c2.67 2.72 8.64 5.97 14.56 5.86" stroke-linecap="round"/><path fill="none" stroke="#555753" stroke-width="1.5" d="M7.07 20.78c4.4 7 19.5 11.4 25.43 11.3" stroke-linecap="round"/><path fill="none" stroke="#555753" stroke-width="1.5" d="M9.43 37.14C12.13 31.94 28.7 18.1 34 15.3" stroke-linecap="round"/><path fill="none" stroke="#555753" stroke-width="1.5" d="M8.86 36.7C6.56 32.44 6 25.87 6.86 21" stroke-linecap="round" color="#000" overflow="visible"/><path fill="none" stroke="#555753" stroke-width="1.5" d="M22.43 43.57c2.43-5.43 4.7-8.57 9.86-11.43" stroke-linecap="round" color="#000" overflow="visible"/><path fill="none" stroke="#eeeeec" stroke-opacity=".627" d="M38.04 2.68C17.97 5.38 6.36 17.48 2.4 30.63 8.43 39.06 19.55 44.48 33.6 45.6c-2.18-13.15-1.1-31.8 4.42-42.92z"/></g></svg>