<svg xmlns="http://www.w3.org/2000/svg" width="48" height="48" xmlns:xlink="http://www.w3.org/1999/xlink"><defs><linearGradient id="a"><stop offset="0" stop-color="#fff"/><stop offset="1" stop-color="#bfd0dc"/></linearGradient><linearGradient id="d" x1="4.492" x2="46.335" y1="25.08" y2="24.778" xlink:href="#a" gradientUnits="userSpaceOnUse" gradientTransform="matrix(.988 0 0 1.154 -.983 -6.321)"/><radialGradient id="b" cx="257.459" cy="35.376" r="68.717" fx="257.459" fy="35.376" gradientUnits="userSpaceOnUse"><stop offset="0" stop-color="#eeeff1"/><stop offset="1" stop-color="#8794A0"/></radialGradient><linearGradient id="c" x1="4.492" x2="46.335" y1="25.08" y2="24.778" xlink:href="#b" gradientUnits="userSpaceOnUse" gradientTransform="matrix(.988 0 0 1.154 -.983 -6.321)"/><linearGradient><stop offset="0" stop-color="#fedba7"/><stop offset="1" stop-color="#fdbf64"/></linearGradient><linearGradient><stop offset="0" stop-color="#ffa54c"/><stop offset="1" stop-color="#f57900"/></linearGradient></defs><g color="#000" stroke-linecap="round" stroke-linejoin="round"><path fill="none" stroke="#2e3436" stroke-width="3" d="M1.46 22.65C8.32 17 15.2 11.3 25.02 11.27l21.52 11.3c-1.7.02-4.37.5-6.46 1.62-3.66-2.48-10.15-5.18-16.44-2-6.53 3.32-2.3 9.2-.07 11.18-3.27 1.5-4.56 3.9-5.66 5.5L1.47 22.66z" overflow="visible"/><path fill="url(#c)" stroke="url(#d)" d="M1.52 22.54C8.38 16.9 15.25 11.2 25.08 11.16l21.52 11.3c-1.7.02-4.37.48-6.46 1.62-3.66-2.47-10.34-4.92-16.44-2-6.6 3.2-2.3 9.2-.08 11.18-3.27 1.5-4.55 3.9-5.66 5.5L1.52 22.55z" overflow="visible"/></g></svg>