<svg xmlns="http://www.w3.org/2000/svg" width="48" height="48" xmlns:xlink="http://www.w3.org/1999/xlink"><defs><linearGradient id="i"><stop offset="0" stop-color="#777973"/><stop offset="1" stop-color="#777973" stop-opacity="0"/></linearGradient><linearGradient id="g"><stop offset="0" stop-color="#616161"/><stop offset="1" stop-color="#a0a0a0"/></linearGradient><linearGradient id="d"><stop offset="0" stop-color="#a2a59c"/><stop offset="1" stop-color="#535750"/></linearGradient><linearGradient id="a"><stop offset="0" stop-color="#fff"/><stop offset="1" stop-color="#fcfcff" stop-opacity="0"/></linearGradient><linearGradient id="p" x1="11.492" x2="17.199" y1="1.654" y2="26.729" gradientUnits="userSpaceOnUse" gradientTransform="matrix(1.236 0 0 .896 -1.082 2.831)" xlink:href="#a"/><linearGradient id="f"><stop offset="0" stop-color="#fff"/><stop offset="1" stop-color="#fff" stop-opacity="0"/></linearGradient><linearGradient id="e"><stop offset="0" stop-color="#32342f" stop-opacity=".546"/><stop offset="1" stop-color="#32342f" stop-opacity="0"/></linearGradient><linearGradient id="h"><stop offset="0" stop-color="#a9aaa7"/><stop offset="1" stop-color="#676964"/></linearGradient><linearGradient id="c"><stop offset="0" stop-color="#777973"/><stop offset="1" stop-color="#cbccca"/></linearGradient><linearGradient id="b"><stop offset="0" stop-color="#748f48"/><stop offset="1" stop-color="#1f2816"/></linearGradient><linearGradient id="m" x1="23.119" x2="22.441" y1="9.583" y2="34.226" xlink:href="#b" gradientUnits="userSpaceOnUse" gradientTransform="matrix(.95 0 0 .966 1.244 .255)"/><linearGradient id="k" x1="29.87" x2="24.842" y1="32.286" y2="14.158" xlink:href="#c" gradientUnits="userSpaceOnUse" gradientTransform="matrix(.957 0 0 .952 1.023 .133)"/><linearGradient id="l" x1="8.653" x2="21.305" y1="9.587" y2="32.498" xlink:href="#d" gradientUnits="userSpaceOnUse" gradientTransform="matrix(.957 0 0 .952 1.023 .133)"/><radialGradient id="j" cx="24.042" cy="42.242" r="17.577" xlink:href="#e" fx="24.042" fy="42.242" gradientTransform="matrix(1 0 0 .305 0 29.375)" gradientUnits="userSpaceOnUse"/><linearGradient id="o" x1="20.339" x2="48.845" y1="19.637" y2="49.731" xlink:href="#f" gradientUnits="userSpaceOnUse" gradientTransform="matrix(.954 0 0 .948 1.142 1.206)"/><linearGradient id="n" x1="11.048" x2="26.178" y1="9.146" y2="30.343" xlink:href="#g" gradientUnits="userSpaceOnUse" gradientTransform="matrix(.998 0 0 .99 .104 .07)"/><linearGradient id="r" x1="40.253" x2="36.452" y1="42.319" y2="38" xlink:href="#h" gradientUnits="userSpaceOnUse" gradientTransform="matrix(1 0 0 .745 0 9.569)"/><radialGradient id="q" cx="37.496" cy="39.51" r="2.51" xlink:href="#i" fx="37.496" fy="39.51" gradientTransform="matrix(1 0 0 .738 0 9.844)" gradientUnits="userSpaceOnUse"/></defs><g><path fill="url(#j)" fill-rule="evenodd" d="M41.62 42.24a17.58 5.35 0 1 1-35.16 0 17.58 5.35 0 1 1 35.16 0z" transform="matrix(1.127 0 0 .856 -2.892 5.687)"/><rect width="44.996" height="38.999" x="1.503" y="3.502" fill="url(#k)" fill-rule="evenodd" stroke="url(#l)" stroke-linejoin="round" rx="4.852" stroke-linecap="round" ry="4.852"/><rect width="37.088" height="29.022" x="5.496" y="7.483" fill="url(#m)" fill-rule="evenodd" stroke="url(#n)" stroke-width=".995" ry="1.645" rx="1.645" stroke-linecap="round" stroke-linejoin="round"/><g fill="none" stroke="#181f10" stroke-width="1.001" opacity=".256"><path d="M8.02 11.5H40"/><path d="M8.02 13.5H40"/><path d="M8.02 15.5H40"/><path d="M8.02 17.5H40"/><path d="M8.02 19.5H40"/><path d="M8.02 21.5H40"/><path d="M8.02 23.5H40"/><path d="M8.02 25.5H40"/><path d="M8.02 27.5H40"/><path d="M8.02 29.5H40"/><path d="M8.02 31.5H40"/><path d="M8.02 33.5H40"/></g><rect width="42.945" height="37.001" x="2.554" y="4.501" fill="none" stroke="url(#o)" rx="3.791" opacity=".764" stroke-linecap="round" stroke-linejoin="round" ry="3.791"/><path fill="#fff" stroke="#6ed66e" stroke-opacity=".279" stroke-width="1pt" d="M11.63 20.68v-3.05l8.98 4.06v1.84l-8.98 4.1v-3.06l6.97-1.85-6.98-2.05zm18.9 10.03v1.98H19.6V30.7h10.92" style="text-align:start;line-height:125.00000%" font-size="18.585" font-weight="bold" font-family="Bitstream Vera Sans Mono"/><path fill="url(#p)" fill-rule="evenodd" d="M7.63 8c-.53 0-1.58.2-1.58 1.03l.12 16.5C23.84 24.6 20.3 17.3 42 13.64l-.06-4.34c-.08-1.13-.54-1.24-1.6-1.23L7.63 8z" opacity=".531"/><rect width="34.026" height="26.057" x="6.989" y="8.981" fill="none" stroke="#000" stroke-width="2" ry=".118" rx=".118" stroke-linecap="round" stroke-linejoin="round" opacity=".714"/><rect width="4.02" height="2.959" x="35.486" y="37.515" fill="url(#q)" fill-rule="evenodd" stroke="url(#r)" rx=".358" ry=".56" stroke-linecap="round"/><rect width="2" height="2" x="32" y="38" fill="#93d94c" fill-rule="evenodd" rx=".56" ry=".56"/><path fill="#fff" d="M33.25 38.7a.56.56 0 1 1-1.13 0 .56.56 0 1 1 1.13 0z" color="#000" overflow="visible"/></g></svg>