<svg xmlns="http://www.w3.org/2000/svg" width="48" height="48" xmlns:xlink="http://www.w3.org/1999/xlink"><defs><linearGradient id="f"><stop offset="0" stop-color="#fff"/><stop offset="1" stop-color="#fff" stop-opacity="0"/></linearGradient><linearGradient id="a"><stop offset="0" stop-color="#fff"/><stop offset="1" stop-color="#fff" stop-opacity="0"/></linearGradient><linearGradient x1="25.119" x2="34.193" y1="6.873" y2="15.929" xlink:href="#a" gradientUnits="userSpaceOnUse" gradientTransform="translate(-18.441 -28.203)"/><linearGradient id="b"><stop offset="0" stop-color="#ef2929"/><stop offset="1" stop-color="#c00"/></linearGradient><linearGradient x1="24.806" x2="37.811" y1="6.534" y2="19.904" xlink:href="#b" gradientUnits="userSpaceOnUse" gradientTransform="translate(-18.441 -28.203)"/><linearGradient id="e"><stop offset="0" stop-color="#82aad5"/><stop offset="1" stop-color="#5088c4"/></linearGradient><linearGradient><stop offset="0" stop-color="#eeeeec" stop-opacity=".753"/><stop offset="1" stop-color="#eeeeec" stop-opacity="0"/></linearGradient><linearGradient id="d"><stop offset="0" stop-color="#3465a4"/><stop offset="1" stop-color="#3465a4" stop-opacity="0"/></linearGradient><linearGradient id="c"><stop offset="0" stop-color="#eeeeec"/><stop offset="1" stop-color="#babdb6"/></linearGradient><linearGradient id="g" x1=".008" x2="37.516" y1="24.386" y2="24.386" xlink:href="#c" gradientUnits="userSpaceOnUse" gradientTransform="matrix(1.118 0 0 1 2.988 0)"/><radialGradient id="i" cx="27.005" cy="37.774" r="5.591" xlink:href="#d" fx="27.005" fy="37.774" gradientTransform="matrix(1.746 .268 .169 1.219 -26.715 -16.427)" gradientUnits="userSpaceOnUse"/><linearGradient id="h" x1="12.611" x2="30.246" y1="18.413" y2="32.571" xlink:href="#e" gradientUnits="userSpaceOnUse" gradientTransform="matrix(1.362 0 0 1.296 -2.245 -7.668)"/><linearGradient id="k" x1="25.119" x2="37.469" y1="6.873" y2="19.562" xlink:href="#f" gradientUnits="userSpaceOnUse" gradientTransform="matrix(1.81 .179 -.179 1.81 -26.378 -2.523)"/><linearGradient id="j" x1="24.806" x2="37.811" y1="6.534" y2="19.904" xlink:href="#b" gradientUnits="userSpaceOnUse" gradientTransform="matrix(1.762 .174 -.174 1.762 -24.944 -1.743)"/></defs><g><path fill="url(#g)" fill-rule="evenodd" stroke="#000" d="M3.56 8.32c17.76 1 31.52-2.37 40.82-7.43l-.15 37.7c-10.03 6.93-25.78 9.46-40.6 9.27L3.56 8.32z"/><path fill="none" stroke="#555753" d="M26.7 7.17V45.4"/><path fill="none" stroke="#555753" d="M3.7 28.57c16.6 1.84 34.15-2.67 40.6-8.44"/><path fill="url(#h)" fill-rule="evenodd" stroke="#204a87" d="M14.48 15.45c10.8.64 19.17-1.54 24.82-4.84l-.1 24.56c-6.1 4.5-15.66 6.15-24.67 6.03l-.05-25.75z"/><path fill="#729fcf" fill-rule="evenodd" stroke="#2a62b4" d="M27.93 14.8c1.12 7 9.68 9.46 9.86 16.45.07 3.46-3.73 11.52-11.43 8.9" color="#000" overflow="visible"/><path fill="#729fcf" fill-rule="evenodd" stroke="#2a62b4" d="M21.75 15.68c.08 8.23 3.9 11.04 3.97 14.77.08 3.5-3.88 7.02-3.9 10.33"/><path fill="none" stroke="#2a62b4" d="M33.64 13.23c-.96 4.86 1.3 11.93 1.3 11.93" color="#000" overflow="visible"/><path fill="none" stroke="#2a62b4" d="M14.8 22.6c8.55-2.13 12.44-.4 16.67-1.3 4.24-.9 3.55-4.04 7.96-4.94"/><path fill="none" stroke="#2a62b4" d="M14.92 30.84c7.26-2.8 7.95 1.87 17.8.25 6.36-1.05.35-5.1 6.84-6.5"/><path fill="none" stroke="#2a62b4" d="M14.66 36.88c7.26-2.8 10.04 1.94 16.86 1.23 5.1-.52 5.36-5.58 7.17-6.08"/><path fill="url(#i)" fill-rule="evenodd" d="M34.16 34.2a5.6 3.5 0 1 1-11.18 0 5.6 3.5 0 1 1 11.18 0z" transform="matrix(.913 -.794 .892 .714 -25.46 33.747)" color="#000" overflow="visible"/><path fill="url(#j)" stroke="#a40000" d="M19.78 12.23l-4.9 3.97 8.5 10.35-10.35 8.43 4.02 4.9 10.34-8.43 8.43 10.28 4.9-4.02-8.5-10.28 10.36-8.5-4.04-4.83-10.3 8.43-8.48-10.3z" color="#000" stroke-linecap="round" overflow="visible"/><path fill="none" stroke="url(#k)" d="M19.65 13.48l-3.5 2.8 8.52 10.44-10.37 8.3 2.9 3.55 10.33-8.55L36 40.3l3.44-2.7-8.4-10.3 10.17-8.45-2.72-3.47-10.32 8.43-8.5-10.32z" color="#000" stroke-linecap="round" overflow="visible"/></g></svg>