<svg xmlns="http://www.w3.org/2000/svg" width="48" height="48" xmlns:xlink="http://www.w3.org/1999/xlink"><defs><linearGradient id="n"><stop offset="0" stop-color="#2e3436"/><stop offset="1" stop-color="#2e3436" stop-opacity="0"/></linearGradient><linearGradient id="m"><stop offset="0" stop-color="#c8a142"/><stop offset="1" stop-color="#ab8832"/></linearGradient><linearGradient id="l"><stop offset="0" stop-color="#442b01"/><stop offset="1" stop-color="#734801"/></linearGradient><linearGradient id="j"><stop offset="0" stop-color="#c8a142"/><stop offset="1" stop-color="#916012"/></linearGradient><linearGradient><stop offset="0" stop-color="#e8eae6"/><stop offset="1" stop-color="#a5ae9d"/></linearGradient><linearGradient id="b"><stop offset="0" stop-color="#2e3436"/><stop offset="1" stop-color="#2e3436" stop-opacity="0"/></linearGradient><linearGradient><stop offset="0" stop-color="#73796d"/><stop offset="1" stop-color="#cdcfca"/></linearGradient><linearGradient id="a"><stop offset="0" stop-color="#73796d"/><stop offset="1" stop-color="#abaea6"/></linearGradient><linearGradient id="H" x1="9.417" x2="32.89" y1="29.418" y2="26.488" xlink:href="#a" gradientUnits="userSpaceOnUse" gradientTransform="matrix(.892 0 0 .892 -3.357 4.417)"/><radialGradient cx="-64.877" cy="220.876" r="14.119" fx="-64.877" fy="220.876" gradientTransform="matrix(-1 0 0 1 55.359 0)" gradientUnits="userSpaceOnUse"><stop offset="0" stop-color="#ff8e6b"/><stop offset=".826" stop-color="#A40E0A"/><stop offset="1" stop-color="#660D0B"/></radialGradient><radialGradient cx="-62.017" cy="217.679" r="17.176" gradientUnits="userSpaceOnUse" gradientTransform="matrix(-1 0 0 1 55.359 0)" fy="217.679" fx="-62.017"><stop offset="0" stop-color="#fff"/><stop offset="1" stop-color="#A42522"/></radialGradient><linearGradient id="d" x1="-100.206" x2="-83.826" y1="222.647" y2="222.647" gradientUnits="userSpaceOnUse" gradientTransform="translate(191.69)"><stop offset=".028" stop-color="#84A8C9"/><stop offset=".108" stop-color="#88ABCB"/><stop offset=".191" stop-color="#95B5CE"/><stop offset=".253" stop-color="#A3C0D3"/><stop offset=".294" stop-color="#9CBBD0"/><stop offset=".355" stop-color="#88ACCA"/><stop offset=".427" stop-color="#6A94BE"/><stop offset=".508" stop-color="#4177AF"/><stop offset=".511" stop-color="#3F76AF"/><stop offset=".736" stop-color="#224987"/><stop offset=".829" stop-color="#244D8A"/><stop offset=".924" stop-color="#2A5794"/><stop offset="1" stop-color="#3065A0"/></linearGradient><radialGradient id="e" cx="-37.291" cy="214.005" r="19.446" fx="-37.291" fy="214.005" gradientTransform="matrix(-1 0 0 .847 55.653 28.519)" gradientUnits="userSpaceOnUse"><stop offset="0" stop-color="#fff"/><stop offset="1" stop-color="#224987"/></radialGradient><radialGradient id="f" cx="-38.266" cy="214.142" r="20.102" gradientUnits="userSpaceOnUse" gradientTransform="matrix(-1 0 0 1 55.653 0)" fy="214.142" fx="-38.266"><stop offset="0" stop-color="#fff"/><stop offset="1" stop-color="#3065A0"/></radialGradient><radialGradient id="g" cx="96.07" cy="217.459" r="30.602" gradientUnits="userSpaceOnUse" gradientTransform="matrix(1 0 0 .847 0 28.519)" fy="217.459" fx="96.07"><stop offset="0" stop-color="#fff"/><stop offset=".066" stop-color="#F4F7FA"/><stop offset=".182" stop-color="#D7E1EC"/><stop offset=".335" stop-color="#A7BDD7"/><stop offset=".516" stop-color="#668DB9"/><stop offset=".652" stop-color="#3065A0"/><stop offset=".916" stop-color="#1A3A6B"/></radialGradient><linearGradient id="c" x1="103.99" x2="118.07" y1="229.561" y2="229.189" gradientUnits="userSpaceOnUse"><stop offset="0" stop-color="#fff"/><stop offset=".078" stop-color="#FEFDEC"/><stop offset=".236" stop-color="#FCF7BB"/><stop offset=".459" stop-color="#F8ED6D"/><stop offset=".539" stop-color="#F6E94F"/><stop offset=".641" stop-color="#F5E84A"/><stop offset=".755" stop-color="#F3E43E"/><stop offset=".876" stop-color="#F0DD29"/><stop offset="1" stop-color="#EBD30F"/><stop offset="1" stop-color="#EBD30F"/></linearGradient><linearGradient id="h" x1="107.77" x2="105.604" y1="228.699" y2="227.569" gradientUnits="userSpaceOnUse"><stop offset="0" stop-color="#EFEEEC"/><stop offset="1" stop-color="#F6E94F"/></linearGradient><linearGradient id="i" x1="105.57" x2="115.738" y1="226.415" y2="240.775" gradientUnits="userSpaceOnUse"><stop offset="0" stop-color="#FAFAFA"/><stop offset=".579" stop-color="#F6E94F"/><stop offset=".693" stop-color="#F3E54B"/><stop offset=".793" stop-color="#EAD740"/><stop offset=".888" stop-color="#DBC32F"/><stop offset=".98" stop-color="#C8A61A"/><stop offset="1" stop-color="#C3A016"/></linearGradient><radialGradient id="G" cx="24.821" cy="39.036" r="21.679" xlink:href="#b" fx="24.821" fy="39.036" gradientTransform="matrix(1 0 0 .417 0 22.765)" gradientUnits="userSpaceOnUse"/><linearGradient x1="103.99" x2="118.07" y1="229.561" y2="229.189" xlink:href="#c" gradientUnits="userSpaceOnUse" gradientTransform="matrix(1.137 0 0 1.137 -153.806 -236.883)"/><linearGradient x1="-100.206" x2="-83.826" y1="222.647" y2="222.647" xlink:href="#d" gradientUnits="userSpaceOnUse" gradientTransform="matrix(.757 0 0 .757 45.57 -141.204)"/><radialGradient cx="-37.291" cy="214.005" r="19.446" xlink:href="#e" gradientUnits="userSpaceOnUse" gradientTransform="matrix(-.757 0 0 .642 -57.443 -119.608)" fx="-37.291" fy="214.005"/><radialGradient cx="-38.266" cy="214.142" r="20.102" xlink:href="#f" gradientUnits="userSpaceOnUse" gradientTransform="matrix(-1 0 0 1 55.653 0)" fx="-38.266" fy="214.142"/><radialGradient cx="96.07" cy="217.459" r="30.602" xlink:href="#g" gradientUnits="userSpaceOnUse" gradientTransform="matrix(1 0 0 .847 0 28.519)" fx="96.07" fy="217.459"/><linearGradient x1="103.99" x2="118.07" y1="229.561" y2="229.189" xlink:href="#c" gradientUnits="userSpaceOnUse" gradientTransform="matrix(1.137 0 0 1.137 -153.806 -236.883)"/><linearGradient x1="107.77" x2="105.604" y1="228.699" y2="227.569" xlink:href="#h" gradientUnits="userSpaceOnUse" gradientTransform="matrix(1.137 0 0 1.137 -153.806 -236.883)"/><linearGradient x1="105.57" x2="115.738" y1="226.415" y2="240.775" xlink:href="#i" gradientUnits="userSpaceOnUse"/><linearGradient id="J" x1="3.745" x2="42.916" y1="12.034" y2="12.034" xlink:href="#j" gradientUnits="userSpaceOnUse" gradientTransform="matrix(.892 0 0 .892 -3.293 5.182)"/><linearGradient id="K" x1="3.745" x2="42.916" y1="12.034" y2="12.034" xlink:href="#k" gradientUnits="userSpaceOnUse" gradientTransform="matrix(.892 0 0 .892 -3.293 5.182)"/><linearGradient id="k"><stop offset="0" stop-color="#c8a142"/><stop offset="1" stop-color="#916012"/></linearGradient><linearGradient x1="3.745" x2="42.916" y1="12.034" y2="12.034" gradientTransform="translate(-3.745 -1.42)" gradientUnits="userSpaceOnUse" xlink:href="#k"/><linearGradient id="I" x1="15.652" x2="21.852" y1="8.977" y2="16.301" xlink:href="#l" gradientUnits="userSpaceOnUse" gradientTransform="matrix(.892 0 0 .892 -3.293 5.182)"/><linearGradient id="N" x1="23.228" x2="40.512" y1="42.568" y2="42.568" xlink:href="#m" gradientUnits="userSpaceOnUse" gradientTransform="matrix(.892 0 0 .892 -3.293 5.182)"/><linearGradient id="L" x1="24.749" x2="24.799" y1="40.07" y2="44.06" xlink:href="#n" gradientUnits="userSpaceOnUse" gradientTransform="matrix(.892 0 0 .892 -3.293 5.182)"/><linearGradient id="M" x1="24.749" x2="24.799" y1="40.07" y2="44.06" xlink:href="#n" gradientUnits="userSpaceOnUse" gradientTransform="matrix(.892 0 0 .892 6.574 3.605)"/><linearGradient x1="14.363" x2="17.749" y1="18.72" y2="29.437" xlink:href="#o" gradientUnits="userSpaceOnUse" gradientTransform="matrix(-1 .01 -.01 -1 61.081 46.593)"/><linearGradient id="o"><stop offset="0" stop-color="#a5b0b8" stop-opacity=".502"/><stop offset="1" stop-color="#a5b0b8" stop-opacity="0"/></linearGradient><linearGradient x1="15.694" x2="19.059" y1="16.627" y2="30.592" xlink:href="#p" gradientUnits="userSpaceOnUse" gradientTransform="matrix(-1 .01 -.01 -1 61.081 46.593)"/><linearGradient id="p"><stop offset="0" stop-color="#192333" stop-opacity=".502"/><stop offset="1" stop-color="#192333" stop-opacity="0"/></linearGradient><radialGradient cx="33.161" cy="46.365" r="28.435" xlink:href="#q" gradientUnits="userSpaceOnUse" gradientTransform="matrix(-1 0 0 1 55.359 0)" fx="33.161" fy="46.365"/><radialGradient id="q" cx="33.161" cy="46.365" r="28.435" gradientUnits="userSpaceOnUse" gradientTransform="matrix(-1 0 0 1 55.359 0)" fy="46.365" fx="33.161"><stop offset="0" stop-color="#fffe5c"/><stop offset="1" stop-color="#ae9600"/></radialGradient><linearGradient x1="14.363" x2="17.749" y1="18.72" y2="29.437" gradientTransform="matrix(-.819 -.009 -.009 .821 45.261 3.437)" gradientUnits="userSpaceOnUse" xlink:href="#o"/><linearGradient x1="15.694" x2="19.059" y1="16.627" y2="30.592" gradientTransform="matrix(-.819 -.009 -.009 .821 45.261 3.437)" gradientUnits="userSpaceOnUse" xlink:href="#p"/><linearGradient x1="14.363" x2="17.749" y1="18.72" y2="29.437" xlink:href="#o" gradientUnits="userSpaceOnUse" gradientTransform="matrix(-.819 -.009 -.009 .821 45.261 3.437)"/><linearGradient x1="15.694" x2="19.059" y1="16.627" y2="30.592" xlink:href="#p" gradientUnits="userSpaceOnUse" gradientTransform="matrix(-.819 -.009 -.009 .821 45.261 3.437)"/><radialGradient cx="33.161" cy="46.365" r="28.435" xlink:href="#q" gradientUnits="userSpaceOnUse" gradientTransform="matrix(-1 0 0 1 55.359 0)" fx="33.161" fy="46.365"/><linearGradient x1="14.363" x2="17.749" y1="18.72" y2="29.437" xlink:href="#o" gradientUnits="userSpaceOnUse" gradientTransform="matrix(-.819 -.009 -.009 .821 43.948 3.437)"/><linearGradient x1="15.694" x2="19.059" y1="16.627" y2="30.592" xlink:href="#p" gradientUnits="userSpaceOnUse" gradientTransform="matrix(-.819 -.009 -.009 .821 43.948 3.437)"/><radialGradient cx="33.161" cy="46.365" r="28.435" xlink:href="#q" gradientUnits="userSpaceOnUse" gradientTransform="matrix(-1 0 0 1 55.359 0)" fx="33.161" fy="46.365"/><linearGradient x1="22.136" x2="23.635" y1="2.342" y2="2.241" xlink:href="#r" gradientUnits="userSpaceOnUse" gradientTransform="matrix(1.009 .295 -.295 1.009 8.036 -6.708)"/><linearGradient id="r"><stop offset="0" stop-color="#b3baac"/><stop offset=".5" stop-color="#fff"/><stop offset="1" stop-color="#a3ac9b"/></linearGradient><linearGradient x1="7.113" x2="40.758" y1="42.219" y2="12.621" xlink:href="#s" gradientUnits="userSpaceOnUse" gradientTransform="matrix(.964 .469 -.469 .964 13.649 -9.61)"/><linearGradient id="s"><stop offset="0" stop-color="#fff"/><stop offset=".232" stop-color="#c6c6c6"/><stop offset=".333" stop-color="#999"/><stop offset=".5" stop-color="#fff"/><stop offset=".633" stop-color="#bbb"/><stop offset=".76" stop-color="#f0f0f0"/><stop offset=".908" stop-color="#c0c0c0"/><stop offset="1" stop-color="#ebebeb"/></linearGradient><linearGradient x1="19.748" x2="13.89" y1="29.514" y2="46.939" xlink:href="#t" gradientUnits="userSpaceOnUse" gradientTransform="matrix(1.009 .295 -.295 1.009 8.036 -6.708)"/><linearGradient id="t"><stop offset="0" stop-color="#d3d7cf"/><stop offset="1" stop-color="#d3d7cf" stop-opacity="0"/></linearGradient><linearGradient x1="22.136" x2="23.635" y1="2.342" y2="2.241" xlink:href="#r" gradientUnits="userSpaceOnUse" gradientTransform="matrix(1.009 .295 -.295 1.009 53.831 -13.874)"/><linearGradient x1="7.113" x2="40.758" y1="42.219" y2="12.621" xlink:href="#s" gradientUnits="userSpaceOnUse" gradientTransform="matrix(.964 .469 -.469 .964 59.444 -16.776)"/><linearGradient x1="19.748" x2="13.89" y1="29.514" y2="46.939" xlink:href="#t" gradientUnits="userSpaceOnUse" gradientTransform="matrix(1.009 .295 -.295 1.009 53.831 -13.874)"/><linearGradient x1="22.136" x2="23.635" y1="2.342" y2="2.241" xlink:href="#r" gradientUnits="userSpaceOnUse" gradientTransform="matrix(1.009 .295 -.295 1.009 53.831 -13.874)"/><linearGradient x1="7.113" x2="40.758" y1="42.219" y2="12.621" xlink:href="#s" gradientUnits="userSpaceOnUse" gradientTransform="matrix(.964 .469 -.469 .964 59.444 -16.776)"/><linearGradient x1="19.748" x2="13.89" y1="29.514" y2="46.939" xlink:href="#t" gradientUnits="userSpaceOnUse" gradientTransform="matrix(1.009 .295 -.295 1.009 53.831 -13.874)"/><radialGradient cx="824.329" cy="111.252" r="46.312" xlink:href="#u" gradientUnits="userSpaceOnUse" gradientTransform="translate(-823.738 -75.782)" fx="824.329" fy="111.252"/><radialGradient id="u" cx="824.329" cy="111.252" r="46.312" gradientUnits="userSpaceOnUse" fy="111.252" fx="824.329" gradientTransform="translate(-823.738 -75.782)"><stop offset=".006" stop-color="#FAAF3E"/><stop offset=".646" stop-color="#F17912"/><stop offset="1" stop-color="#DD680E"/></radialGradient><radialGradient cx="804.052" cy="127.362" r="71.221" xlink:href="#v" gradientUnits="userSpaceOnUse" fx="804.052" fy="127.362"/><radialGradient id="v" cx="804.052" cy="127.362" r="71.221" gradientUnits="userSpaceOnUse" fy="127.362" fx="804.052"><stop offset=".006" stop-color="#FAAF3E"/><stop offset=".646" stop-color="#F17912"/><stop offset="1" stop-color="#DD680E"/></radialGradient><radialGradient cx="824.328" cy="111.252" r="46.311" xlink:href="#w" gradientUnits="userSpaceOnUse" fx="824.328" fy="111.252"/><radialGradient id="w" cx="824.328" cy="111.252" r="46.311" gradientUnits="userSpaceOnUse" fy="111.252" fx="824.328"><stop offset=".006" stop-color="#FAAF3E"/><stop offset=".646" stop-color="#F17912"/><stop offset="1" stop-color="#DD680E"/></radialGradient><radialGradient cx="824.331" cy="111.252" r="46.304" xlink:href="#x" gradientUnits="userSpaceOnUse" fx="824.331" fy="111.252"/><radialGradient id="x" cx="824.331" cy="111.252" r="46.304" gradientUnits="userSpaceOnUse" fy="111.252" fx="824.331"><stop offset=".006" stop-color="#FAAF3E"/><stop offset=".646" stop-color="#F17912"/><stop offset="1" stop-color="#DD680E"/></radialGradient><radialGradient cx="824.325" cy="111.252" r="46.319" xlink:href="#y" gradientUnits="userSpaceOnUse" fx="824.325" fy="111.252"/><radialGradient id="y" cx="824.325" cy="111.252" r="46.319" gradientUnits="userSpaceOnUse" fy="111.252" fx="824.325"><stop offset=".006" stop-color="#FAAF3E"/><stop offset=".646" stop-color="#F17912"/><stop offset="1" stop-color="#DD680E"/></radialGradient><radialGradient cx="824.327" cy="111.253" r="46.314" xlink:href="#z" gradientUnits="userSpaceOnUse" fx="824.327" fy="111.253"/><radialGradient id="z" cx="824.327" cy="111.253" r="46.314" gradientUnits="userSpaceOnUse" fy="111.253" fx="824.327"><stop offset=".006" stop-color="#FAAF3E"/><stop offset=".646" stop-color="#F17912"/><stop offset="1" stop-color="#DD680E"/></radialGradient><radialGradient cx="824.326" cy="111.252" r="46.315" xlink:href="#A" gradientUnits="userSpaceOnUse" fx="824.326" fy="111.252"/><radialGradient id="A" cx="824.326" cy="111.252" r="46.315" gradientUnits="userSpaceOnUse" fy="111.252" fx="824.326"><stop offset=".006" stop-color="#FAAF3E"/><stop offset=".646" stop-color="#F17912"/><stop offset="1" stop-color="#DD680E"/></radialGradient><radialGradient cx="824.328" cy="111.252" r="46.311" xlink:href="#B" gradientUnits="userSpaceOnUse" fx="824.328" fy="111.252"/><radialGradient id="B" cx="824.328" cy="111.252" r="46.311" gradientUnits="userSpaceOnUse" fy="111.252" fx="824.328"><stop offset=".006" stop-color="#FAAF3E"/><stop offset=".646" stop-color="#F17912"/><stop offset="1" stop-color="#DD680E"/></radialGradient><radialGradient cx="824.328" cy="111.253" r="46.311" xlink:href="#C" gradientUnits="userSpaceOnUse" fx="824.328" fy="111.253"/><radialGradient id="C" cx="824.328" cy="111.253" r="46.311" gradientUnits="userSpaceOnUse" fy="111.253" fx="824.328"><stop offset=".006" stop-color="#FAAF3E"/><stop offset=".646" stop-color="#F17912"/><stop offset="1" stop-color="#DD680E"/></radialGradient><radialGradient cx="824.328" cy="111.251" r="46.31" xlink:href="#D" gradientUnits="userSpaceOnUse" fx="824.328" fy="111.251"/><radialGradient id="D" cx="824.328" cy="111.251" r="46.31" gradientUnits="userSpaceOnUse" fy="111.251" fx="824.328"><stop offset=".006" stop-color="#FAAF3E"/><stop offset=".646" stop-color="#F17912"/><stop offset="1" stop-color="#DD680E"/></radialGradient><radialGradient cx="824.325" cy="111.253" r="46.316" xlink:href="#E" gradientUnits="userSpaceOnUse" fx="824.325" fy="111.253"/><radialGradient id="E" cx="824.325" cy="111.253" r="46.316" gradientUnits="userSpaceOnUse" fy="111.253" fx="824.325"><stop offset=".006" stop-color="#FAAF3E"/><stop offset=".646" stop-color="#F17912"/><stop offset="1" stop-color="#DD680E"/></radialGradient><radialGradient cx="824.33" cy="111.252" r="46.307" xlink:href="#F" gradientUnits="userSpaceOnUse" fx="824.33" fy="111.252"/><radialGradient id="F" cx="824.33" cy="111.252" r="46.307" gradientUnits="userSpaceOnUse" fy="111.252" fx="824.33"><stop offset=".006" stop-color="#FAAF3E"/><stop offset=".646" stop-color="#F17912"/><stop offset="1" stop-color="#DD680E"/></radialGradient><radialGradient id="O" cx="824.329" cy="111.252" r="46.312" xlink:href="#u" gradientUnits="userSpaceOnUse" gradientTransform="translate(-823.738 -75.782)" fx="824.329" fy="111.252"/><radialGradient id="P" cx="804.052" cy="127.362" r="71.221" xlink:href="#v" gradientUnits="userSpaceOnUse" fx="804.052" fy="127.362"/><radialGradient id="Q" cx="824.328" cy="111.252" r="46.311" xlink:href="#w" gradientUnits="userSpaceOnUse" fx="824.328" fy="111.252"/><radialGradient id="R" cx="824.331" cy="111.252" r="46.304" xlink:href="#x" gradientUnits="userSpaceOnUse" fx="824.331" fy="111.252"/><radialGradient id="S" cx="824.325" cy="111.252" r="46.319" xlink:href="#y" gradientUnits="userSpaceOnUse" fx="824.325" fy="111.252"/><radialGradient id="T" cx="824.327" cy="111.253" r="46.314" xlink:href="#z" gradientUnits="userSpaceOnUse" fx="824.327" fy="111.253"/><radialGradient id="U" cx="824.326" cy="111.252" r="46.315" xlink:href="#A" gradientUnits="userSpaceOnUse" fx="824.326" fy="111.252"/><radialGradient id="V" cx="824.328" cy="111.252" r="46.311" xlink:href="#B" gradientUnits="userSpaceOnUse" fx="824.328" fy="111.252"/><radialGradient id="W" cx="824.328" cy="111.253" r="46.311" xlink:href="#C" gradientUnits="userSpaceOnUse" fx="824.328" fy="111.253"/><radialGradient id="X" cx="824.328" cy="111.251" r="46.31" xlink:href="#D" gradientUnits="userSpaceOnUse" fx="824.328" fy="111.251"/><radialGradient id="Y" cx="824.325" cy="111.253" r="46.316" xlink:href="#E" gradientUnits="userSpaceOnUse" fx="824.325" fy="111.253"/><radialGradient id="Z" cx="824.33" cy="111.252" r="46.307" xlink:href="#F" gradientUnits="userSpaceOnUse" fx="824.33" fy="111.252"/></defs><g><path fill="url(#G)" d="M46.5 39.04a21.68 9.04 0 1 1-43.36 0 21.68 9.04 0 1 1 43.36 0z" transform="matrix(.98 0 0 1.065 -3.119 -3.187)" color="#000" overflow="visible" enable-background="accumulate"/><path fill="url(#H)" stroke="#000" stroke-width=".446" d="M3.46 27.4l6.62 12.22 25.66-4.5c.53-.28.86-.8 1.05-1.77L26.63 23.5 4.2 25.97c-.5.3-.88.7-.74 1.42z" stroke-linejoin="bevel"/><path fill="url(#I)" stroke="#000" stroke-width=".446" d="M3.28 26.17l6.96-14.27 22.6-.7c.5 0 .9.4 1.3.87l-7.4 11.64z" stroke-linejoin="bevel"/><path fill="#babdb6" d="M26.38 24.03l-.5 6.9 9.5 11.03 1.27-8.06z"/><path fill="#d5be9b" d="M3.95 25.6l22.5-2.3 3.36-5.18-26.88 2.3z"/><path fill="#cca363" d="M26.44 23.3L33.96 12 30.4 7.07l-7.34 11.7z"/><path fill="url(#J)" stroke="#492e01" stroke-width=".446" d="M34.27 12.2l-3.8-5.02c-.3-.4-1.2-.53-1.82-.5l-20.27.97C6.86 7.55 4.3 9 3.8 10.8L.67 18.55c-.33.6-.65 2.13-.1 2.65l2.54 5.13 5.72-11.3c.6-1.03 1.9-1.97 3.2-2.08l20.23-1.45c.6-.05 1.53-.1 2.02.7z" stroke-linejoin="bevel"/><path fill="#eeeeec" fill-opacity=".304" d="M3.97 10.83l4.07 4.82c.88-1.4 1.88-2.73 4.07-3.1L8.2 7.87c-1.7.06-3.58 1.43-4.23 2.95z"/><path fill="#d3d7cf" d="M25.93 30.57c-.18 0-20.82 2.74-20.82 2.74l4.3 7.85 23.2-3.33z"/><path fill="url(#K)" stroke="#492e01" stroke-width=".446" d="M36.7 33.02l-.22 7.35c.05 1.13-1.1 1.7-2.28 1.9l-22 3.35c-1.64.53-4.02.37-4.85-1.4l-5.4-10.1c-.08-6.5.14-7.75 2.32-8.08-.78.2-.87.76-.6 1.55l4.4 8.86c.57 1.54 2.43 2.2 3.8 1.86l23.24-3.8c.92-.3 1.8-.55 1.6-1.5z" color="#000" stroke-linejoin="bevel" overflow="visible" enable-background="accumulate"/><path fill="#eeeeec" fill-opacity=".304" d="M7.78 36.25l-.26 7.7c1.23 1.8 2.77 1.9 4.42 1.44l.5-6.95c-1.62.6-3.62.04-4.66-2.2z" color="#000" overflow="visible" enable-background="accumulate"/><path fill="none" stroke="#e9b96e" stroke-width=".446" d="M33.06 11.18l-2.78-3.63c-.27-.38-1.12-.5-1.7-.48L8.47 8.13c-1.42-.1-3.82 1.26-4.3 2.97l-3.04 7.6c-.3.54-.6 2-.1 2.48l2.13 4.2 5.38-10.8c.57-.97 1.8-1.85 3-1.97l19.06-1.58c.6-.04 1.72-.12 2.46.16z" stroke-linejoin="bevel"/><path fill="none" stroke="#e9b96e" stroke-width=".446" d="M36.43 34l-.3 6.05c.05 1.1-1.3 1.6-2.44 1.8l-21.65 3.43c-1 .23-3.43.3-4.24-1.14l-5.36-10.2c-.07-6.3.64-6.6.72-7.23-.62.9.42 1.65.67 2.15l4.06 8.1c.53 1.25 2.5 2.22 3.83 1.88l23.1-3.77c.62-.07 1.54-.3 1.6-1.05z" color="#000" stroke-linejoin="bevel" overflow="visible" enable-background="accumulate"/><path fill="#eeeeec" stroke="#555753" stroke-width=".669" d="M16.4 39.43c1.55-.7 3.2-1.07 5-.92l.03 2.7-5.03.9z"/><path fill="#eeeeec" stroke="#555753" stroke-width=".669" d="M26.2 38c1.6-.8 3.3-.96 5-.93l.04 2.7-5.03.9z"/><path fill="url(#L)" d="M17.48 40.8h2.66v3.64h-2.66z" color="#000" overflow="visible" enable-background="accumulate"/><path fill="url(#M)" d="M27.34 39.22H30v3.64h-2.66z" color="#000" overflow="visible" enable-background="accumulate"/><path fill="url(#N)" stroke="#603c01" stroke-width=".446" d="M17.65 40.74l2.63 6.45c5.3 1.43 9.35.15 12.34-2.7l-2.68-5.78c-.8-.25-1.6-.43-2.4.62l1.1 2.37c.43.84.5 1.7.15 2.08-.86.9-4.18 1.5-6 .98-.36-.1-.96-.72-1.22-1.3L20.1 40.2c-.76-.56-1.6-.07-2.45.56z"/><path fill="#ddc489" d="M17.88 40.8l2.48 6.12 2.66.5c-1.92-.8-2.94-3.57-4.28-7.17z"/><path fill="#ddc489" d="M27.83 39.4c.95 2 1.24 3.27 1.33 4 .17 1.37-3.94 1.82-5.25 1.73 3 1.38 6.4-.16 6.64-1.27.2-1-.98-3.65-1.78-5.13-.46.07-.8.25-.93.67z" color="#000" overflow="visible" enable-background="accumulate"/><g><path fill-opacity=".376" d="M43.55 8.13c-.1 0-.2.03-.28.06-5.32 1.84-18.78 8.78-24.84 13.43-.4.3-.38.8-.25 1.2.2.6 2.12 3.84 3.6 5.77.24.3 1.23-.3 1.1-.63-.38-.93-1.8-3.85-1.64-4.1.4-.3.76-.57 1.14-.85.3.53 1.05 1.85 2.2 4.1.08.17.7-.22.63-.38-.07-.13-1.65-3.22-2.14-4.23.56-.4 1.13-.8 1.68-1.2.38.6 1.3 2.18 2.42 4.37.08.16.7-.25.62-.4-.07-.15-1.9-3.55-2.34-4.44.52-.36 1.04-.73 1.56-1.07.4.6 1.45 2.27 2.63 4.45.1.16.7-.24.63-.4-.83-1.5-2.18-3.75-2.58-4.47.54-.34 1.06-.67 1.58-1 .36.53 1.48 2.26 2.78 4.47.08.16.7-.24.62-.4-1.06-1.67-2.34-3.92-2.67-4.52.5-.3 1.03-.6 1.55-.9.32.45 1.45 2.08 2.83 4.44.08.15.7-.24.62-.4-.83-1.5-2.34-3.73-2.77-4.42.52-.3 1.04-.55 1.56-.82.35.47 1.46 2 2.9 4.27.08.16.67-.17.58-.33-.92-1.6-2.33-3.56-2.8-4.3.52-.26 1.05-.54 1.57-.8.28.38 1.3 1.84 2.9 4.16.1.16.68-.17.6-.33-.37-.7-2.16-3.2-2.8-4.16.52-.25 1.02-.5 1.53-.73.42.56 1.67 2.24 2.87 3.92.08.15.68-.2.58-.34-.57-.9-2.13-2.98-2.77-3.88.5-.22 1-.45 1.52-.66.5.6 1.66 2.03 2.8 3.63.07.15.68-.18.58-.34-.55-.85-2-2.7-2.67-3.6.5-.2 1.03-.4 1.55-.62.42.5 1.44 1.74 2.6 3.36.07.15.68-.2.58-.34-1.07-1.48-2.03-2.68-2.5-3.3.25-.1.5-.2.76-.3.26-.1 2.4 2.67 2.74 2.98.13.12 1.03-.48.86-.76-.92-1.55-2.85-4.26-3.28-4.74-.32-.37-.67-.47-.97-.45z"/><g><g fill="none" stroke="#803912" stroke-width="1.242"><path d="M22.94 20.8c.03.15 2.28 4.5 2.36 4.66.1.16-.54.55-.62.4-1.4-2.74-2.35-4.45-2.45-4.57-.07-.08.7-.6.7-.5z"/><path d="M25.36 19.2c.03.15 2.44 4.63 2.52 4.8.1.15-.54.54-.62.38-1.4-2.73-2.53-4.56-2.63-4.67-.07-.07.72-.58.73-.5z"/><path d="M27.6 17.73c.03.16 1.8 3.04 2.75 4.8.1.15-.54.54-.62.4-1.44-2.67-2.73-4.63-2.83-4.75-.07-.08.7-.53.7-.45z"/><path d="M32.15 15.02c.02.15 1.98 2.98 2.94 4.73.08.15-.55.54-.64.4-1.53-2.64-2.92-4.62-3.02-4.74-.07-.07.7-.46.7-.38z"/><path d="M34.35 13.8c.03.15 1.93 2.74 3.03 4.64.1.16-.5.5-.58.34-1.64-2.57-3.06-4.5-3.17-4.6-.07-.08.7-.47.72-.4z"/><path d="M36.56 12.57c.03.16 2.63 3.75 3.08 4.6.08.17-.5.5-.6.34C37.3 15 36 13.1 35.9 13c-.07-.08.67-.5.68-.4z"/><path d="M38.74 11.54c.03.16 2.37 3.22 3.1 4.35.1.14-.5.47-.6.32-1.37-1.93-3.05-4.2-3.15-4.32-.08-.08.63-.44.64-.36z"/><path d="M40.9 10.5c.04.17 2.33 3 3.05 4.13.1.15-.5.5-.58.34-1.38-1.94-3.08-3.98-3.2-4.1-.06-.07.73-.44.74-.36z"/><path d="M43.22 9.68c.03.16 1.33 1.7 2.8 3.75.1.15-.5.5-.6.33-1.37-1.93-2.8-3.63-2.9-3.75-.07-.07.7-.4.7-.32z"/><path d="M29.86 16.24c.08.14 1.7 3 2.9 4.88.08.16-.56.55-.64.4-1.47-2.52-2.88-4.7-3-4.83-.06-.1.68-.58.74-.46z"/></g><path fill="url(#O)" stroke="#803912" stroke-width=".669" d="M40.28 19.28c.4-.2 3.7 4.05 4.2 4.53.2.2 1.6-.72 1.33-1.15-1.4-2.37-4.36-6.52-5.02-7.26-.66-.76-1.37-.8-1.92-.6-8.14 2.82-28.73 13.46-38 20.57-.62.48-.58 1.22-.38 1.82.32.92 3.24 5.88 5.52 8.84.36.46 1.87-.46 1.67-.94-.6-1.43-2.77-5.92-2.52-6.3C18 28.93 28.55 23.84 40.28 19.3z" transform="matrix(.653 0 0 .653 17.968 -2.751)"/><g transform="matrix(.653 0 0 .653 -519.933 -52.237)"><radialGradient cx="804.052" cy="127.362" r="71.221" gradientUnits="userSpaceOnUse" fy="127.362" fx="804.052"><stop offset=".006" stop-color="#FAAF3E"/><stop offset=".646" stop-color="#F17912"/><stop offset="1" stop-color="#DD680E"/></radialGradient><path fill="url(#P)" d="M863.54 93.9c-11.92 4.64-22.52 9.77-35.42 19.7l-.16.12-.1.17s-.25.75-.25.75c0 .67.4 1.67 1.95 5.13l.58 1.3s0-.08.02-.1c.1.24.2.53.2.53l.82-.47-.22-.33-.58-1.3c-1.26-2.8-1.86-4.2-1.86-4.75l.1-.26s0-.03.02-.05c.03-.02.05-.04.05-.04 12.8-9.85 23.35-14.95 35.22-19.57.4-.18.9.24 3.5 3.38 0 0 .73.86.73.86l.7-.6-.74-.83c-2.78-3.34-3.48-4.1-4.56-3.63z"/></g><g transform="matrix(.653 0 0 .653 -519.933 -52.237)"><radialGradient cx="824.328" cy="111.252" r="46.311" gradientUnits="userSpaceOnUse" fy="111.252" fx="824.328"><stop offset=".006" stop-color="#FAAF3E"/><stop offset=".646" stop-color="#F17912"/><stop offset="1" stop-color="#DD680E"/></radialGradient><path fill="url(#Q)" d="M831.33 111.83c.05.24 3.5 6.92 3.62 7.16.13.23-.83.83-.95.6-2.14-4.2-3.6-6.8-3.76-7-.1-.12 1.07-.9 1.1-.77z"/><radialGradient cx="824.331" cy="111.252" r="46.304" gradientUnits="userSpaceOnUse" fy="111.252" fx="824.331"><stop offset=".006" stop-color="#FAAF3E"/><stop offset=".646" stop-color="#F17912"/><stop offset="1" stop-color="#DD680E"/></radialGradient><path fill="url(#R)" d="M835.04 109.4c.04.23 3.73 7.1 3.86 7.33.13.24-.83.84-.95.6-2.14-4.18-3.87-6.97-4.03-7.16-.1-.12 1.1-.9 1.12-.77z"/><radialGradient cx="824.325" cy="111.252" r="46.319" gradientUnits="userSpaceOnUse" fy="111.252" fx="824.325"><stop offset=".006" stop-color="#FAAF3E"/><stop offset=".646" stop-color="#F17912"/><stop offset="1" stop-color="#DD680E"/></radialGradient><path fill="url(#S)" d="M838.48 107.15c.04.24 2.73 4.66 4.2 7.34.13.23-.83.83-.95.6-2.2-4.07-4.17-7.08-4.34-7.26-.1-.13 1.06-.8 1.08-.7z"/><radialGradient cx="824.327" cy="111.253" r="46.314" gradientUnits="userSpaceOnUse" fy="111.253" fx="824.327"><stop offset=".006" stop-color="#FAAF3E"/><stop offset=".646" stop-color="#F17912"/><stop offset="1" stop-color="#DD680E"/></radialGradient><path fill="url(#T)" d="M845.43 103c.05.23 3.04 4.55 4.5 7.23.14.24-.82.84-.95.6-2.35-4.02-4.47-7.05-4.63-7.23-.1-.12 1.06-.73 1.08-.6z"/><radialGradient cx="824.326" cy="111.252" r="46.315" gradientUnits="userSpaceOnUse" fy="111.252" fx="824.326"><stop offset=".006" stop-color="#FAAF3E"/><stop offset=".646" stop-color="#F17912"/><stop offset="1" stop-color="#DD680E"/></radialGradient><path fill="url(#U)" d="M848.8 101.1c.06.25 2.96 4.23 4.65 7.14.14.24-.77.75-.9.5-2.5-3.92-4.68-6.85-4.84-7.04-.1-.12 1.1-.7 1.1-.6z"/><radialGradient cx="824.328" cy="111.252" r="46.311" gradientUnits="userSpaceOnUse" fy="111.252" fx="824.328"><stop offset=".006" stop-color="#FAAF3E"/><stop offset=".646" stop-color="#F17912"/><stop offset="1" stop-color="#DD680E"/></radialGradient><path fill="url(#V)" d="M852.2 99.25c.04.24 4.02 5.74 4.7 7.05.13.24-.77.75-.9.5-2.7-3.86-4.7-6.74-4.85-6.92-.1-.12 1.02-.75 1.04-.63z"/><radialGradient cx="824.328" cy="111.253" r="46.311" gradientUnits="userSpaceOnUse" fy="111.253" fx="824.328"><stop offset=".006" stop-color="#FAAF3E"/><stop offset=".646" stop-color="#F17912"/><stop offset="1" stop-color="#DD680E"/></radialGradient><path fill="url(#W)" d="M855.54 97.67c.04.24 3.62 4.92 4.72 6.65.15.23-.77.75-.9.52-2.1-2.97-4.67-6.43-4.83-6.62-.1-.12.98-.67 1-.55z"/><radialGradient cx="824.328" cy="111.251" r="46.31" gradientUnits="userSpaceOnUse" fy="111.251" fx="824.328"><stop offset=".006" stop-color="#FAAF3E"/><stop offset=".646" stop-color="#F17912"/><stop offset="1" stop-color="#DD680E"/></radialGradient><path fill="url(#X)" d="M858.86 96.1c.04.24 3.55 4.58 4.65 6.3.16.24-.76.75-.88.52-2.1-2.97-4.72-6.1-4.88-6.27-.1-.12 1.1-.68 1.12-.55z"/><radialGradient cx="824.325" cy="111.253" r="46.316" gradientUnits="userSpaceOnUse" fy="111.253" fx="824.325"><stop offset=".006" stop-color="#FAAF3E"/><stop offset=".646" stop-color="#F17912"/><stop offset="1" stop-color="#DD680E"/></radialGradient><path fill="url(#Y)" d="M862.4 94.83c.04.24 2.03 2.6 4.27 5.73.16.23-.77.75-.9.52-2.1-2.97-4.3-5.58-4.46-5.76-.1-.12 1.07-.62 1.1-.5z"/><radialGradient cx="824.33" cy="111.252" r="46.307" gradientUnits="userSpaceOnUse" fy="111.252" fx="824.33"><stop offset=".006" stop-color="#FAAF3E"/><stop offset=".646" stop-color="#F17912"/><stop offset="1" stop-color="#DD680E"/></radialGradient><path fill="url(#Z)" d="M841.94 104.86c.1.22 2.6 4.6 4.4 7.5.16.22-.82.83-.94.6-2.26-3.86-4.42-7.23-4.58-7.4-.1-.13 1.02-.88 1.12-.7z"/></g></g></g><path fill="#eeeeec" fill-rule="evenodd" stroke="#000" d="M34.93 16.92l2.65 11.68 2.08-5.33 5.97-.24-10.7-6.1z"/></g></svg>