<svg xmlns="http://www.w3.org/2000/svg" width="48" height="48"><defs><radialGradient id="i" cx="1956.151" cy="691.02" r="12.478" gradientUnits="userSpaceOnUse" fy="691.02" fx="1956.151"><stop offset="0" stop-color="#fff"/><stop offset=".255" stop-color="#F2F4F5"/><stop offset=".616" stop-color="#E7EBED"/><stop offset="1" stop-color="#E3E8EA"/></radialGradient><radialGradient id="h" cx="1956.151" cy="691.019" r="12.588" gradientUnits="userSpaceOnUse" fy="691.019" fx="1956.151"><stop offset="0" stop-color="#575F66"/><stop offset=".039" stop-color="#595E64"/><stop offset=".168" stop-color="#545657"/><stop offset=".301" stop-color="#454545"/><stop offset=".435" stop-color="#323232"/><stop offset=".571" stop-color="#1E1E1E"/><stop offset=".709" stop-color="#121111"/><stop offset=".85" stop-color="#090909"/><stop offset="1"/></radialGradient><radialGradient id="g" cx="1956.151" cy="691.021" r="12.477" gradientUnits="userSpaceOnUse" fy="691.021" fx="1956.151"><stop offset="0" stop-color="#fff"/><stop offset=".255" stop-color="#F2F4F5"/><stop offset=".616" stop-color="#E7EBED"/><stop offset="1" stop-color="#E3E8EA"/></radialGradient><radialGradient id="f" cx="1956.151" cy="691.019" r="12.587" gradientUnits="userSpaceOnUse" fy="691.019" fx="1956.151"><stop offset="0" stop-color="#575F66"/><stop offset=".039" stop-color="#595E64"/><stop offset=".168" stop-color="#545657"/><stop offset=".301" stop-color="#454545"/><stop offset=".435" stop-color="#323232"/><stop offset=".571" stop-color="#1E1E1E"/><stop offset=".709" stop-color="#121111"/><stop offset=".85" stop-color="#090909"/><stop offset="1"/></radialGradient><radialGradient id="e" cx="1956.151" cy="691.019" r="12.479" gradientUnits="userSpaceOnUse" fy="691.019" fx="1956.151"><stop offset="0" stop-color="#fff"/><stop offset=".255" stop-color="#F2F4F5"/><stop offset=".616" stop-color="#E7EBED"/><stop offset="1" stop-color="#E3E8EA"/></radialGradient><radialGradient id="d" cx="1956.151" cy="691.019" r="12.587" gradientUnits="userSpaceOnUse" fy="691.019" fx="1956.151"><stop offset="0" stop-color="#575F66"/><stop offset=".039" stop-color="#595E64"/><stop offset=".168" stop-color="#545657"/><stop offset=".301" stop-color="#454545"/><stop offset=".435" stop-color="#323232"/><stop offset=".571" stop-color="#1E1E1E"/><stop offset=".709" stop-color="#121111"/><stop offset=".85" stop-color="#090909"/><stop offset="1"/></radialGradient><radialGradient id="c" cx="1956.152" cy="691.019" r="12.586" gradientUnits="userSpaceOnUse" fy="691.019" fx="1956.152"><stop offset="0" stop-color="#575F66"/><stop offset=".039" stop-color="#595E64"/><stop offset=".168" stop-color="#545657"/><stop offset=".301" stop-color="#454545"/><stop offset=".435" stop-color="#323232"/><stop offset=".571" stop-color="#1E1E1E"/><stop offset=".709" stop-color="#121111"/><stop offset=".85" stop-color="#090909"/><stop offset="1"/></radialGradient><radialGradient id="b" cx="1956.15" cy="691.019" r="12.586" gradientUnits="userSpaceOnUse" fy="691.019" fx="1956.15"><stop offset="0" stop-color="#575F66"/><stop offset=".039" stop-color="#595E64"/><stop offset=".168" stop-color="#545657"/><stop offset=".301" stop-color="#454545"/><stop offset=".435" stop-color="#323232"/><stop offset=".571" stop-color="#1E1E1E"/><stop offset=".709" stop-color="#121111"/><stop offset=".85" stop-color="#090909"/><stop offset="1"/></radialGradient><radialGradient id="a" cx="1956.152" cy="691.019" r="12.478" gradientUnits="userSpaceOnUse" fy="691.019" fx="1956.152"><stop offset="0" stop-color="#fff"/><stop offset=".255" stop-color="#F2F4F5"/><stop offset=".616" stop-color="#E7EBED"/><stop offset="1" stop-color="#E3E8EA"/></radialGradient></defs><g><g transform="matrix(1.17 0 0 1.17 -2260.76 -787.383)"><radialGradient cx="1956.152" cy="691.019" r="12.478" gradientUnits="userSpaceOnUse" fy="691.019" fx="1956.152"><stop offset="0" stop-color="#fff"/><stop offset=".255" stop-color="#F2F4F5"/><stop offset=".616" stop-color="#E7EBED"/><stop offset="1" stop-color="#E3E8EA"/></radialGradient><path fill="url(#a)" d="M1943.9 693.98c3.45-.5 7.54-2.34 12.25-2.96.27-4.08-.38-8.03-2.3-10.27-3.7.62-6.9 2.1-10.75 2.88.73 4.4.88 7.62.8 10.35z"/><radialGradient cx="1956.15" cy="691.019" r="12.586" gradientUnits="userSpaceOnUse" fy="691.019" fx="1956.15"><stop offset="0" stop-color="#575F66"/><stop offset=".039" stop-color="#595E64"/><stop offset=".168" stop-color="#545657"/><stop offset=".301" stop-color="#454545"/><stop offset=".435" stop-color="#323232"/><stop offset=".571" stop-color="#1E1E1E"/><stop offset=".709" stop-color="#121111"/><stop offset=".85" stop-color="#090909"/><stop offset="1"/></radialGradient><path fill="url(#b)" d="M1943.9 693.98c.08-2.73-.08-5.96-.8-10.35-1.45.3-2.98.48-4.68.48h-5.34v10h9.25c.5 0 1.04-.04 1.58-.12z"/><radialGradient cx="1956.152" cy="691.019" r="12.586" gradientUnits="userSpaceOnUse" fy="691.019" fx="1956.152"><stop offset="0" stop-color="#575F66"/><stop offset=".039" stop-color="#595E64"/><stop offset=".168" stop-color="#545657"/><stop offset=".301" stop-color="#454545"/><stop offset=".435" stop-color="#323232"/><stop offset=".571" stop-color="#1E1E1E"/><stop offset=".709" stop-color="#121111"/><stop offset=".85" stop-color="#090909"/><stop offset="1"/></radialGradient><path fill="url(#c)" d="M1956.15 691.02c3.6-.47 7.53-.22 11.82 1.9.36-2.87-.16-6.28-2.56-10.76-4.74-1.82-8.34-1.94-11.55-1.4 1.92 2.23 2.57 6.18 2.3 10.26z"/><radialGradient cx="1956.151" cy="691.019" r="12.587" gradientUnits="userSpaceOnUse" fy="691.019" fx="1956.151"><stop offset="0" stop-color="#575F66"/><stop offset=".039" stop-color="#595E64"/><stop offset=".168" stop-color="#545657"/><stop offset=".301" stop-color="#454545"/><stop offset=".435" stop-color="#323232"/><stop offset=".571" stop-color="#1E1E1E"/><stop offset=".709" stop-color="#121111"/><stop offset=".85" stop-color="#090909"/><stop offset="1"/></radialGradient><path fill="url(#d)" d="M1943.12 704.1c2.32 0 6.16-1.18 10.6-1.72.63-2.6 1.58-5.6 2.06-8.27.18-1 .3-2.05.37-3.08-4.7.62-8.8 2.47-12.24 2.96-.1 3.73-.63 6.55-.78 10.13z"/><radialGradient cx="1956.151" cy="691.019" r="12.479" gradientUnits="userSpaceOnUse" fy="691.019" fx="1956.151"><stop offset="0" stop-color="#fff"/><stop offset=".255" stop-color="#F2F4F5"/><stop offset=".616" stop-color="#E7EBED"/><stop offset="1" stop-color="#E3E8EA"/></radialGradient><path fill="url(#e)" d="M1953.7 702.38c-4.42.54-8.26 1.73-10.58 1.73-.02.58-.04 1.16-.04 1.78v8.23h10v-7.77c0-1.08.27-2.45.63-3.95z"/><radialGradient cx="1956.151" cy="691.019" r="12.587" gradientUnits="userSpaceOnUse" fy="691.019" fx="1956.151"><stop offset="0" stop-color="#575F66"/><stop offset=".039" stop-color="#595E64"/><stop offset=".168" stop-color="#545657"/><stop offset=".301" stop-color="#454545"/><stop offset=".435" stop-color="#323232"/><stop offset=".571" stop-color="#1E1E1E"/><stop offset=".709" stop-color="#121111"/><stop offset=".85" stop-color="#090909"/><stop offset="1"/></radialGradient><path fill="url(#f)" d="M1953.7 702.38c-.35 1.5-.62 2.87-.62 3.95v7.78h10v-6.28c0-1.78.42-3.35 1.02-4.85-3.53-1.03-7.12-1-10.38-.6z"/><radialGradient cx="1956.151" cy="691.021" r="12.477" gradientUnits="userSpaceOnUse" fy="691.021" fx="1956.151"><stop offset="0" stop-color="#fff"/><stop offset=".255" stop-color="#F2F4F5"/><stop offset=".616" stop-color="#E7EBED"/><stop offset="1" stop-color="#E3E8EA"/></radialGradient><path fill="url(#g)" d="M1956.15 691.02c-.07 1.03-.2 2.07-.37 3.1-.48 2.67-1.43 5.67-2.07 8.26 3.28-.4 6.87-.44 10.4.6 1.28-3.25 3.4-6.16 3.87-10.06-4.3-2.12-8.23-2.37-11.82-1.9z"/><radialGradient cx="1956.151" cy="691.019" r="12.588" gradientUnits="userSpaceOnUse" fy="691.019" fx="1956.151"><stop offset="0" stop-color="#575F66"/><stop offset=".039" stop-color="#595E64"/><stop offset=".168" stop-color="#545657"/><stop offset=".301" stop-color="#454545"/><stop offset=".435" stop-color="#323232"/><stop offset=".571" stop-color="#1E1E1E"/><stop offset=".709" stop-color="#121111"/><stop offset=".85" stop-color="#090909"/><stop offset="1"/></radialGradient><path fill="url(#h)" d="M1943.12 704.1h-10.04v10h10v-8.22c0-.62.02-1.2.04-1.77z"/><radialGradient cx="1956.151" cy="691.02" r="12.478" gradientUnits="userSpaceOnUse" fy="691.02" fx="1956.151"><stop offset="0" stop-color="#fff"/><stop offset=".255" stop-color="#F2F4F5"/><stop offset=".616" stop-color="#E7EBED"/><stop offset="1" stop-color="#E3E8EA"/></radialGradient><path fill="url(#i)" d="M1943.12 704.1c.15-3.57.7-6.4.8-10.12-.55.08-1.08.13-1.6.13h-9.24v10h10.03c.02 0 .02 0 .02 0z"/></g><path fill="none" stroke="#000" stroke-width=".5" d="M.17 12.75H6.4c11.85 0 17.2-7.8 31.58-2.28 8.35 15.64-2.73 20.12-2.73 30v7.36H.17V12.75z"/><circle cx="1958.083" cy="689.108" r="14.34" fill="none" stroke="#fff" stroke-width="3.42" transform="matrix(1.17 0 0 1.17 -2260.76 -787.383)"/><circle cx="1958.083" cy="689.108" r="14.34" fill="none" stroke="#ed2728" stroke-width="1.71" transform="matrix(1.17 0 0 1.17 -2260.76 -787.383)" stroke-dasharray="1.70999363,1.70999363"/></g></svg>