<svg xmlns="http://www.w3.org/2000/svg" width="48" height="48" xmlns:xlink="http://www.w3.org/1999/xlink"><defs><linearGradient id="a" x1="292.972" x2="296.94" y1="4.759" y2="10.711" gradientUnits="userSpaceOnUse"><stop offset="0" stop-color="#EEEEEC"/><stop offset="1" stop-color="#fff"/></linearGradient><linearGradient id="b"><stop offset="0" stop-color="#e2e2e2"/><stop offset="1" stop-color="#d8d8d8"/></linearGradient><radialGradient id="c" cx="165.061" cy="23.333" r="7.285" gradientUnits="userSpaceOnUse" gradientTransform="matrix(1 0 0 1.01 0 -.16)"><stop offset="0" stop-color="#EF3535"/><stop offset="0" stop-color="#c91a1a"/><stop offset="1" stop-color="#ff4c4c"/></radialGradient><linearGradient id="d" x1="68.175" x2="74.587" y1="21.425" y2="27.837" gradientUnits="userSpaceOnUse"><stop offset="0" stop-color="#BABDB6"/><stop offset="1" stop-color="#EEEEEC"/></linearGradient><linearGradient id="e"><stop offset="0" stop-color="#df2a2a"/><stop offset="1" stop-color="#df2a2a" stop-opacity="0"/></linearGradient><linearGradient id="f"><stop offset="0" stop-color="#9a0c00"/><stop offset="1" stop-color="#9a0c00" stop-opacity="0"/></linearGradient><radialGradient id="g" cx="165.061" cy="23.333" r="7.285" gradientTransform="matrix(1 0 0 1.01 0 -.16)" gradientUnits="userSpaceOnUse"><stop offset="0" stop-color="#EF3535"/><stop offset="1" stop-color="#a40000" stop-opacity="0"/></radialGradient><linearGradient x1="292.972" x2="296.94" y1="4.759" y2="10.711" xlink:href="#a" gradientUnits="userSpaceOnUse" gradientTransform="matrix(-1.244 -2.232 -2.235 1.248 412.152 672.238)"/><linearGradient x1="20.288" x2="24.326" y1="6.46" y2="23.943" xlink:href="#b" gradientUnits="userSpaceOnUse" gradientTransform="matrix(.301 .541 -.54 .302 30.522 3.043)"/><linearGradient id="j" x1="294.595" x2="297.185" y1="12.188" y2="13.34" xlink:href="#c" gradientUnits="userSpaceOnUse"/><linearGradient x1="296.486" x2="296.529" y1="15.507" y2="9.877" xlink:href="#c" gradientUnits="userSpaceOnUse" gradientTransform="matrix(1.097 1.967 -1.875 1.047 -279.24 -572.746)"/><linearGradient x1="292.972" x2="296.94" y1="4.759" y2="10.711" xlink:href="#a" gradientUnits="userSpaceOnUse" gradientTransform="matrix(1.222 2.191 -2.235 1.248 -317.461 -636.07)"/><linearGradient x1="20.288" x2="24.326" y1="6.46" y2="23.943" xlink:href="#b" gradientUnits="userSpaceOnUse" gradientTransform="matrix(.301 .541 -.54 .302 30.522 3.043)"/><linearGradient id="n" x1="22.225" x2="24.19" y1="23.843" y2="22.861" xlink:href="#d" gradientUnits="userSpaceOnUse"/><linearGradient x1="7.185" x2="25.152" y1="31.057" y2="50.775" xlink:href="#c" gradientUnits="userSpaceOnUse" gradientTransform="matrix(.35 .628 -.536 .299 29.645 1.809)"/><linearGradient x1="13.825" x2="7.67" y1="40.069" y2="2.326" xlink:href="#c" gradientUnits="userSpaceOnUse" gradientTransform="matrix(.35 .628 -.536 .299 29.683 1.621)"/><radialGradient cx="34.376" cy="37.5" r="8.389" xlink:href="#c" gradientUnits="userSpaceOnUse" gradientTransform="matrix(.301 .541 -.573 .32 31.764 2.349)" fx="34.376" fy="37.5"/><linearGradient id="r" x1="298.479" x2="298.869" y1="13.6" y2="13.803" xlink:href="#e" gradientUnits="userSpaceOnUse"/><linearGradient id="s" x1="298.479" x2="298.869" y1="13.6" y2="13.803" xlink:href="#f" gradientUnits="userSpaceOnUse"/><linearGradient x1="296.762" x2="297.798" y1="12.012" y2="10.947" xlink:href="#c" gradientUnits="userSpaceOnUse" gradientTransform="matrix(1.093 1.959 -1.958 1.093 -277.901 -571.412)"/><linearGradient x1="39.62" x2="-3.533" y1="44.541" y2="-11.889" xlink:href="#g" gradientUnits="userSpaceOnUse" gradientTransform="matrix(.35 .628 -.536 .299 28.946 .299)"/><linearGradient id="u" x1="39.62" x2="-3.533" y1="44.541" y2="-11.889" xlink:href="#g" gradientUnits="userSpaceOnUse" gradientTransform="matrix(.093 .886 -.757 .08 34.509 -10.305)"/><linearGradient id="t" x1="296.762" x2="297.798" y1="12.012" y2="10.947" xlink:href="#c" gradientUnits="userSpaceOnUse" gradientTransform="matrix(.29 2.764 -2.763 .291 -36.441 -810.922)"/><radialGradient id="q" cx="34.376" cy="37.5" r="8.389" xlink:href="#c" gradientUnits="userSpaceOnUse" gradientTransform="matrix(.08 .763 -.808 .085 36.72 -6.596)" fx="34.376" fy="37.5"/><linearGradient id="p" x1="13.825" x2="7.67" y1="40.069" y2="2.326" xlink:href="#c" gradientUnits="userSpaceOnUse" gradientTransform="matrix(.093 .886 -.757 .08 34.705 -8.44)"/><linearGradient id="o" x1="7.185" x2="25.152" y1="31.057" y2="50.775" xlink:href="#c" gradientUnits="userSpaceOnUse" gradientTransform="matrix(.093 .886 -.757 .08 34.57 -8.244)"/><linearGradient id="m" x1="20.288" x2="24.326" y1="6.46" y2="23.943" xlink:href="#b" gradientUnits="userSpaceOnUse" gradientTransform="matrix(.08 .763 -.762 .08 34.967 -6.411)"/><linearGradient id="l" x1="292.972" x2="296.94" y1="4.759" y2="10.711" xlink:href="#a" gradientUnits="userSpaceOnUse" gradientTransform="matrix(.324 3.091 -3.153 .332 -49.997 -903.834)"/><linearGradient id="k" x1="296.486" x2="296.529" y1="15.507" y2="9.877" xlink:href="#c" gradientUnits="userSpaceOnUse" gradientTransform="matrix(.291 2.774 -2.646 .279 -37.316 -813.094)"/><linearGradient id="i" x1="20.288" x2="24.326" y1="6.46" y2="23.943" xlink:href="#b" gradientUnits="userSpaceOnUse" gradientTransform="matrix(.08 .763 -.762 .08 34.967 -6.411)"/><linearGradient id="h" x1="292.972" x2="296.94" y1="4.759" y2="10.711" xlink:href="#a" gradientUnits="userSpaceOnUse" gradientTransform="matrix(-.33 -3.148 -3.153 .332 143.596 941.665)"/></defs><g><path fill="#babdb6" d="M6.34 30.5L4.27 6.4l13.68 12.15.94 27.05z"/><path fill="#babdb6" d="M17.95 18.55L4.27 6.4l24.66-5.34 16.8 9.7z"/><path fill="#2e3436" d="M4.57 7.05l6.8 5.84.38 12.12-6.23-6.23z"/><path fill="#2e3436" d="M11.68 24.95l6.86 7.1.38 13.28-6.92-8.3z"/><path fill="#555753" d="M11.3 12.76L24.83 9.2l-7.75-4.88-12.45 2.8z" color="#000" overflow="visible" enable-background="accumulate"/><path fill="#555753" d="M24.63 9.14l11.62-2.92 9.15 5.34-12.64 2.92z" color="#000" overflow="visible" enable-background="accumulate"/><path fill="none" stroke="#000" d="M4 6.64l24.93-5.22 16.86 9.85-2.5 25.3-24.47 9.38-12.6-15.32L4 6.63z"/><path d="M18.8 45.27l1.14-25.7 25.58-7.9-29.96 4.96z"/><path fill="none" stroke="#fff" stroke-opacity=".396" d="M5.18 7.47l23.66-4.95 16 9.34-2.37 23.97-23.2 8.9L7.3 30.2 5.18 7.48z"/><path fill="none" stroke="#ef2929" d="M45.52 11.68l-29.96 4.95 3.23 28.64" stroke-dasharray="2,1"/><path fill="url(#h)" stroke="#000" d="M36.46 19.78c-.03.17-.07.33-.1.5-1.64.67-3.1 3.15-4.85 2.45-5.16-2.4-10.4-4.78-15.6-7.16-.17-.56-.3-1.13-.36-1.7-.16-1.2-.1-2.47.18-3.66 6.92 3.18 13.86 6.34 20.74 9.58z" stroke-linecap="round" stroke-linejoin="round"/><path fill="url(#i)" d="M34.47 20.08c-.25-.15-.7-.27-.94-.43-5.47-2.54-10.94-5.14-16.4-7.7-.2-.02-.82-.54-.7.07-.07.86-.1 1.76.22 2.58 5.04 2.37 10.1 4.68 15.15 7.04.32.23.74.23 1-.07.6-.47 1.2-.95 1.75-1.43l-.06-.05-.03-.02z"/><path fill="url(#j)" stroke="#9a0c00" stroke-width=".184" d="M297.04 12.3l-.64 1.08-1.27 1.34-.4-1.05 1.02-1.7 1.3.33z" transform="matrix(.291 2.774 -2.646 .279 -37.316 -813.094)" stroke-linecap="round" stroke-linejoin="round"/><path fill="url(#k)" d="M16.04 11.32c-.47-.9-1.65-.76-2.4-1.23-.6-.22-1.12-.62-1.7-.76-.4.03-1 .45-.62.86 1 .96 2.14 1.75 3.42 2.3.4.13.75.53 1.14.54.4-.45.3-1.2.16-1.72z"/><path fill="url(#l)" stroke="#000" d="M34.77 3.6c-.07-.15-.15-.3-.22-.45-1.73-.3-3.66-2.4-5.23-1.36-4.57 3.37-9.2 6.74-13.8 10.1-.06.57-.06 1.14 0 1.7.08 1.2.4 2.4.92 3.48C22.56 12.6 28.7 8.14 34.77 3.6z" stroke-linecap="round" stroke-linejoin="round"/><path fill="url(#m)" d="M32.74 3.63c-.88-.2-1.6-.95-2.54-1.05-4.58 3.34-9.14 6.72-13.7 10.06-.1.93.12 1.86.4 2.74.55-.2.96-.67 1.46-.95 4.7-3.5 9.4-7.02 14.1-10.5.12 0 .36-.2.28-.3z"/><path fill="url(#n)" d="M24.2 23.84a.98.98 0 1 1-1.97 0 .98.98 0 1 1 1.96 0z" transform="matrix(.078 .747 -.762 .08 34.859 -6.16)" color="#000" overflow="visible"/><path fill="url(#o)" stroke="#a40000" stroke-width=".5" d="M13.3 9.52c-1.06 2.6-4.77 3.2-8.28 1.32C1.52 8.96-.48 5.32.56 2.72 1.62.12 5.32-.48 8.84 1.4c3.5 1.88 5.5 5.5 4.45 8.12zm-2.24-1.2c.46-1.15-.78-3.4-3.14-4.65-2.36-1.26-4.65-.9-5.12.24-.47 1.17.77 3.4 3.14 4.67 2.36 1.26 4.65.9 5.12-.24z"/><path fill="url(#p)" d="M12.8 6.97c-.45-1.44-1.4-2.65-2.3-3.65-.6-.52-1.2-.83-1.87-1.28C6.7.94 4.3.64 2.4 1.87c-1.06.6-1.36 2.18-.94 3.47.3 1.08 1.1 1.95 1.68 2.76.68.64 1.36 1.05 2.16 1.57 2.03 1.18 4.6 1.67 6.6.3.8-.64 1.15-1.84.9-3zm-.7.44c-.03 1.57-1.28 2.73-2.58 2.7-1.75.2-3.48-.53-4.97-1.6-1.2-.96-2.35-2.32-2.47-4.1-.1-1.03.5-1.92 1.27-2.3 1.88-.67 4.03-.27 5.75.9 1.27.92 2.46 2.2 2.9 3.92.04.16.08.32.1.5z"/><path fill="url(#q)" stroke="#a40000" stroke-width=".5" d="M14.3 19.15c-1.57-2.33-5.32-2.13-8.36.44-3.05 2.56-4.24 6.53-2.68 8.86 1.58 2.33 5.32 2.14 8.37-.43 3.05-2.57 4.24-6.55 2.67-8.88zm-1.94 1.64c.7 1.02-.05 3.47-2.1 5.2-2.05 1.72-4.36 1.86-5.06.83-.7-1.04.06-3.48 2.1-5.2 2.05-1.74 4.37-1.88 5.06-.84z"/><path fill="url(#r)" stroke="url(#s)" stroke-width=".18" d="M297.6 13.38l1.27 1.34.4-1.05-1.02-1.7-1.3.33z" transform="matrix(.29 2.764 -2.763 .291 -36.441 -810.922)" stroke-linecap="round" stroke-linejoin="round"/><path fill="url(#t)" d="M15.76 15.78c-.18-.3-.23-.76-.5-.98-.98.83-2.06 1.67-2.97 2.5-.53.58-1.05 1.16-1.5 1.8 1.13.45 2.36-.15 3.14-.96.64-.53 1.54-.8 1.83-1.6.06-.25.08-.52 0-.76z"/><path fill="url(#u)" d="M14.34 20.65c-.3-1.14-1.06-2.12-2.08-2.28-1.92-.67-3.92.25-5.4 1.56-.95.95-2.1 1.7-2.6 3.08-.58 1.2-1.17 2.7-.57 4.1.44 1.1 1.46 1.66 2.47 1.8 1.8.27 3.54-.6 4.92-1.84.64-.57 1.32-1.17 1.88-1.83.6-.98 1.05-2.14 1.37-3.3.04-.4.1-.86 0-1.28zm-.9.43c.2 1.34-.3 2.53-1 3.48-.65.87-1.2 1.7-2.06 2.27-1.3.97-2.92 1.38-4.48 1.12-1.05-.3-1.68-1.54-1.54-2.76.02-1.54 1.02-2.6 1.78-3.7.97-1.25 2.46-2.13 3.98-2.34.78-.07 1.66-.2 2.37.3.44.26.9.95.95 1.62z"/><path fill="#888a85" d="M18.9 45.6l1.2-26.16 25.63-8.68-2.4 25.27z"/><path d="M18.48 32.95l13.84-5.4-.5 12.96-13.03 4.83z" color="#000" overflow="visible" enable-background="accumulate"/><path d="M32.32 27.56l.44-13.08 12.64-3-1.08 11.44z" color="#000" overflow="visible" enable-background="accumulate"/><path fill="none" stroke="#ef2929" d="M18.8 45.27l1.14-25.7 25.58-7.9" stroke-dasharray="2,1"/></g></svg>