<svg xmlns="http://www.w3.org/2000/svg" width="48" height="48" xmlns:xlink="http://www.w3.org/1999/xlink"><defs><linearGradient id="f"><stop offset="0" stop-color="#343434"/><stop offset="1"/></linearGradient><linearGradient id="j" x1="10.389" x2=".019" y1="16.749" y2="16.961" xlink:href="#a" gradientUnits="userSpaceOnUse" gradientTransform="translate(-1.019 -9.833)"/><linearGradient id="i" x1="8.663" x2="18.656" y1="353.79" y2="353.79" xlink:href="#b" gradientUnits="userSpaceOnUse" gradientTransform="matrix(1.286 0 0 1.286 -10.907 -447.149)"/><linearGradient id="k" x1=".57" x2="20.57" y1="17.695" y2="17.695" xlink:href="#c" gradientUnits="userSpaceOnUse" gradientTransform="translate(-1.019 -9.833)"/><linearGradient id="a"><stop offset="0" stop-color="#590b08"/><stop offset="1" stop-color="#590b08" stop-opacity="0"/></linearGradient><linearGradient id="m" x1="10.389" x2=".019" y1="16.749" y2="16.961" xlink:href="#a" gradientUnits="userSpaceOnUse" gradientTransform="matrix(-1 0 0 1 46.177 -9.821)"/><linearGradient id="b" x1="13.377" x2="18.656" y1="353.79" y2="353.79" gradientUnits="userSpaceOnUse" gradientTransform="translate(-1.282 -334.358)"><stop offset="0" stop-color="#fff" stop-opacity="0"/><stop offset=".472" stop-color="#E96712"/><stop offset=".814" stop-color="#D4290C"/><stop offset="1" stop-color="#CB1009"/></linearGradient><linearGradient id="l" x1="8.663" x2="18.656" y1="353.79" y2="353.79" xlink:href="#b" gradientUnits="userSpaceOnUse" gradientTransform="matrix(-1.286 0 0 1.286 56.065 -447.136)"/><linearGradient id="c"><stop offset="0" stop-color="#ed2728" stop-opacity="0"/><stop offset="1" stop-color="#ff8521"/></linearGradient><linearGradient id="n" x1=".57" x2="20.57" y1="17.695" y2="17.695" xlink:href="#c" gradientUnits="userSpaceOnUse" gradientTransform="matrix(-1 0 0 1 46.177 -9.821)"/><linearGradient id="d" x1="13.675" x2="36.296" y1="364.182" y2="364.182" gradientUnits="userSpaceOnUse"><stop offset="0" stop-color="#fff" stop-opacity="0"/><stop offset=".303" stop-color="#ED2728"/><stop offset=".697" stop-color="#ED2728"/><stop offset="1" stop-color="#fff" stop-opacity="0"/></linearGradient><linearGradient id="o" x1="11.574" x2="38.96" y1="364.182" y2="364.182" xlink:href="#d" gradientUnits="userSpaceOnUse" gradientTransform="translate(-1.872 -346.605)"/><linearGradient id="e"><stop offset="0" stop-color="#ae7cbb"/><stop offset="1" stop-color="#5c3566"/></linearGradient><linearGradient x1="6.758" x2="10.429" y1="32.271" y2="35.906" xlink:href="#e" gradientUnits="userSpaceOnUse"/><radialGradient cx="1723.045" cy="823.962" r="18.517" gradientUnits="userSpaceOnUse" fy="823.962" fx="1723.045"><stop offset="0" stop-color="#575F66"/><stop offset=".039" stop-color="#595E64"/><stop offset=".168" stop-color="#545657"/><stop offset=".301" stop-color="#454545"/><stop offset=".435" stop-color="#323232"/><stop offset=".571" stop-color="#1E1E1E"/><stop offset=".709" stop-color="#121111"/><stop offset=".85" stop-color="#090909"/><stop offset="1"/></radialGradient><radialGradient cx="1723.045" cy="823.962" r="12.596" gradientUnits="userSpaceOnUse" fy="823.962" fx="1723.045"><stop offset="0" stop-color="#fff"/><stop offset=".259" stop-color="#FCFDFD"/><stop offset="1" stop-color="#F8FAFA"/></radialGradient><radialGradient cx="1723.044" cy="823.962" r="12.597" gradientUnits="userSpaceOnUse" fy="823.962" fx="1723.044"><stop offset="0" stop-color="#fff"/><stop offset=".259" stop-color="#FCFDFD"/><stop offset="1" stop-color="#F8FAFA"/></radialGradient><radialGradient cx="1723.044" cy="823.962" r="18.517" gradientUnits="userSpaceOnUse" fy="823.962" fx="1723.044"><stop offset="0" stop-color="#575F66"/><stop offset=".039" stop-color="#595E64"/><stop offset=".168" stop-color="#545657"/><stop offset=".301" stop-color="#454545"/><stop offset=".435" stop-color="#323232"/><stop offset=".571" stop-color="#1E1E1E"/><stop offset=".709" stop-color="#121111"/><stop offset=".85" stop-color="#090909"/><stop offset="1"/></radialGradient><linearGradient x1="6.758" x2="10.429" y1="32.271" y2="35.906" xlink:href="#e" gradientUnits="userSpaceOnUse"/><linearGradient x1="6.758" x2="10.429" y1="32.271" y2="35.906" xlink:href="#e" gradientUnits="userSpaceOnUse"/><linearGradient x1="6.758" x2="10.429" y1="32.271" y2="35.906" xlink:href="#e" gradientUnits="userSpaceOnUse"/><linearGradient x1="6.758" x2="10.429" y1="32.271" y2="35.906" xlink:href="#e" gradientUnits="userSpaceOnUse"/><radialGradient id="h" cx="23.492" cy="31.826" r="11.81" xlink:href="#f" fx="23.492" fy="31.826" gradientTransform="matrix(3 0 0 2.134 -46.984 -27.66)" gradientUnits="userSpaceOnUse"/><radialGradient id="g" cx="23" cy="40.247" r="11" xlink:href="#f" fx="23" fy="40.247" gradientTransform="matrix(0 -2.392 2.961 0 -96.19 94.777)" gradientUnits="userSpaceOnUse"/></defs><g><path fill="#fff" stroke="#000" d="M.5 18.77h8l14.93 21.6 14.1-21.6h9.97V47.5H.5V18.77z"/><path fill="url(#g)" fill-rule="evenodd" d="M1 19.27h7.38l14.62 21H1v-21z"/><path fill="url(#h)" d="M23.5 40.27h23.6V47H23.5z" color="#000" overflow="visible"/><path fill="url(#i)" stroke="url(#j)" d="M-.5 5.4h13.6V.8c0-.16.12-.3.3-.3.07 0 .15.03.2.1 1.6 1.54 6.3 6.85 6.3 6.85.25.24.25.63 0 .86l-6.3 6.88c-.3.36-.5.14-.5-.22V10.6H-.5"/><path fill="none" stroke="url(#k)" d="M.05 6.37H14.1V2.6l4.95 5.28-4.94 5.24.1-3.55H.05" stroke-linejoin="round"/><path fill="url(#l)" stroke="url(#m)" d="M45.66 5.4h-13.6V.83c0-.17-.12-.3-.3-.3-.07 0-.15.03-.2.08l-.02.02c-1.58 1.53-6.3 6.84-6.3 6.84-.23.24-.23.63 0 .87l6.3 6.86c.32.35.53.13.53-.23V10.6h13.6"/><path fill="none" stroke="url(#n)" d="M45.1 6.4H31.06V2.6L26.1 7.9l4.95 5.23-.1-3.54h14.16" stroke-linejoin="round"/><path stroke="#eeeeec" d="M5.54 16.03h4.96v4.9H5.54z"/><path fill="url(#o)" d="M9.7 17.5l.32 1.97 26.76-.03.3-2-27.37.05z"/><path fill="#ef2929" stroke="#eeeeec" d="M17.73 15.85h4.95v4.9h-4.95z"/><path fill="#ef2929" stroke="#eeeeec" d="M23.25 15.88h4.96v4.9h-4.95z"/><path stroke="#eeeeec" d="M35.2 15.85h4.97v4.9H35.2z"/></g></svg>