<svg xmlns="http://www.w3.org/2000/svg" width="48" height="48" xmlns:xlink="http://www.w3.org/1999/xlink"><defs><linearGradient id="c"><stop offset="0" stop-color="#464f52"/><stop offset=".635" stop-color="#2a2f32"/><stop offset="1"/></linearGradient><linearGradient id="a"><stop offset="0" stop-color="#fff"/><stop offset=".5" stop-color="#fff"/><stop offset="1" stop-color="#d8d8d8"/></linearGradient><radialGradient id="h" cx="23.923" cy="25.963" r="12.387" xlink:href="#a" fx="23.923" fy="25.963" gradientTransform="matrix(-1.855 0 0 -1.883 68.289 72.951)" gradientUnits="userSpaceOnUse"/><radialGradient id="f" cx="23.923" cy="25.963" r="12.387" xlink:href="#b" fx="23.923" fy="25.963" gradientTransform="matrix(-1.855 0 0 -1.883 68.289 72.951)" gradientUnits="userSpaceOnUse"/><linearGradient id="b"><stop offset="0" stop-color="#fff"/><stop offset=".5" stop-color="#fff"/><stop offset="1" stop-color="#d8d8d8"/></linearGradient><radialGradient cx="23.923" cy="25.963" r="12.387" fy="25.963" fx="23.923" gradientTransform="matrix(-1.855 0 0 -1.883 68.396 59.665)" gradientUnits="userSpaceOnUse" xlink:href="#b"/><radialGradient id="g" cx="24.256" cy="28.389" r="17.149" xlink:href="#c" fx="24.256" fy="28.389" gradientTransform="matrix(-1.412 -.025 .024 -1.364 57.821 62.968)" gradientUnits="userSpaceOnUse"/><radialGradient id="e" cx="24.256" cy="28.389" r="17.149" xlink:href="#d" fx="24.256" fy="28.389" gradientTransform="matrix(-1.412 -.025 .024 -1.364 57.821 62.968)" gradientUnits="userSpaceOnUse"/><linearGradient id="d"><stop offset="0" stop-color="#464f52"/><stop offset=".635" stop-color="#2a2f32"/><stop offset="1"/></linearGradient><radialGradient cx="24.256" cy="28.389" r="17.149" fy="28.389" fx="24.256" gradientTransform="matrix(-1.412 -.025 .024 -1.364 57.928 62.872)" gradientUnits="userSpaceOnUse" xlink:href="#d"/></defs><g stroke="#000" stroke-linejoin="round"><path fill="url(#e)" d="M22.22 39.5s-2.26 3.4-4.3 2.9c-2.07-.5-3.85-2.8-3.6-6.57.28-3.76 2.07-5.84 4.16-6.14 2.08-.3 4.02 3.3 4.02 3.3.27-3.12.86-6.2 1.4-9.32 2.96.53 6 1.1 9.07 1.37 0 0-3.63 1.94-3.33 4.02.3 2.08 2.38 3.88 6.15 4.14 3.75.28 6.05-1.5 6.56-3.56.5-2.05-2.9-4.3-2.9-4.3 2.87-.16 5.56-.73 8.15-1.7l-.1 19.93c0 2.22-1.78 4-4 4l-19.33.1c-1.24-2.6-1.8-5.3-1.95-8.16z" color="#000" overflow="visible" enable-background="accumulate"/><path fill="url(#f)" d="M39.32 25.33s3.4 2.26 2.9 4.3c-.5 2.06-2.8 3.85-6.58 3.58-3.76-.25-5.84-2.05-6.14-4.13-.3-2.08 3.32-4.02 3.32-4.02-3.08-.27-6.1-.84-9.05-1.37.62-2.87 1.2-5.77 1.54-8.67 0 0 2 3.77 4.1 3.48 2.1-.3 4.17-1.8 4.15-6.15-.03-4.33-1.5-6.07-3.57-6.57s-4.34 2.97-4.34 2.97c-.1-2.88-.6-5.65-1.72-8.28l19.44.12c2.2 0 3.98 1.8 4 4l.1 19.07c-2.58.97-5.27 1.54-8.14 1.7z" color="#000" overflow="visible" enable-background="accumulate"/><path fill="url(#g)" d="M25.78 8.87s2.28-3.46 4.34-2.96 3.55 2.24 3.57 6.58c.02 4.33-2.04 5.85-4.15 6.14-2.1.3-4.1-3.47-4.1-3.47-.33 2.9-.92 5.8-1.54 8.67-3.03-.64-5.98-1.24-8.94-1.58 0 0 3.76-2 3.47-4.1-.3-2.1-1.8-4.16-6.14-4.14-4.35.02-6.1 1.5-6.6 3.57-.48 2.06 2.98 4.34 2.98 4.34-2.88.1-5.64.62-8.3 1.67L.5 4.7c0-2.2 1.78-3.97 4-4L24.06.6c1.1 2.63 1.62 5.4 1.72 8.27z"/><path fill="url(#h)" d="M8.68 21.7S5.22 19.4 5.7 17.35c.5-2.07 2.25-3.55 6.6-3.57 4.32-.04 5.84 2.02 6.13 4.13.3 2.1-3.47 4.1-3.47 4.1 2.96.34 5.9.94 8.95 1.58-.54 3.12-1.13 6.2-1.4 9.34 0 0-1.94-3.62-4.02-3.32-2.1.3-3.88 2.38-4.15 6.14-.26 3.77 1.52 6.07 3.58 6.57s4.32-2.9 4.32-2.9c.15 2.88.7 5.57 1.95 8.17L4.5 47.5c-2.22 0-4-1.78-4-4L.4 23.36c2.64-1.05 5.4-1.57 8.28-1.67z"/></g></svg>