<svg xmlns="http://www.w3.org/2000/svg" width="48" height="48" xmlns:xlink="http://www.w3.org/1999/xlink"><defs><linearGradient id="b"><stop offset="0" stop-color="#2e3436" stop-opacity=".649"/><stop offset="1" stop-color="#2e3436" stop-opacity="0"/></linearGradient><linearGradient id="a"><stop offset="0" stop-color="#fff"/><stop offset="1" stop-color="#fff" stop-opacity="0"/></linearGradient><linearGradient id="c" x1="639.318" x2="661.485" y1="211.098" y2="211.098" gradientUnits="userSpaceOnUse" gradientTransform="matrix(1.031 0 0 1.032 -657.306 -195.035)"><stop offset="0" stop-color="#98A6B2"/><stop offset=".236" stop-color="#DCE4E8"/><stop offset="1" stop-color="#77828C"/></linearGradient><radialGradient id="d" cx="681.372" cy="-307.123" r="34.227" gradientUnits="userSpaceOnUse" gradientTransform="matrix(1.177 0 0 .779 -813.114 243.963)" fy="-307.123" fx="681.372"><stop offset="0" stop-color="#fff"/><stop offset=".826" stop-color="#B0BCC8"/><stop offset="1" stop-color="#8D96A6"/></radialGradient><radialGradient id="e" cx="1609.221" cy="-290.257" r="43.988" gradientUnits="userSpaceOnUse" gradientTransform="matrix(-1.141 0 0 .755 2477.606 425.584)" fy="-290.257" fx="1609.221"><stop offset="0" stop-color="#fff"/><stop offset=".135" stop-color="#F6F7F7"/><stop offset=".356" stop-color="#DDE0E3"/><stop offset=".636" stop-color="#B5BBC1"/><stop offset=".961" stop-color="#7E8892"/><stop offset="1" stop-color="#77818C"/></radialGradient><radialGradient id="f" cx="656.56" cy="-297.819" r="27.241" gradientUnits="userSpaceOnUse" gradientTransform="matrix(1 0 0 .755 0 425.584)" fy="-297.819" fx="656.56"><stop offset="0" stop-color="#fff"/><stop offset=".098" stop-color="#F9F9FA"/><stop offset=".23" stop-color="#E8EAEC"/><stop offset=".382" stop-color="#CCD0D6"/><stop offset=".547" stop-color="#A5ADB7"/><stop offset=".652" stop-color="#8893A0"/><stop offset=".916" stop-color="#737B87"/></radialGradient><linearGradient id="g" x1="645.356" x2="665.874" y1="216.747" y2="216.747" gradientUnits="userSpaceOnUse" gradientTransform="matrix(1.031 0 0 1.032 -657.306 -195.035)"><stop offset="0" stop-color="#BECCD4"/><stop offset=".101" stop-color="#DEE5E9"/><stop offset=".199" stop-color="#F6F8F9"/><stop offset=".258" stop-color="#fff"/><stop offset=".4" stop-color="#F9FAFB"/><stop offset=".596" stop-color="#E7EDEF"/><stop offset=".822" stop-color="#CAD7DB"/><stop offset=".826" stop-color="#C9D7DB"/><stop offset="1" stop-color="#A5AFBE"/></linearGradient><linearGradient id="i" x1="645.354" x2="666.104" y1="209.73" y2="209.73" gradientUnits="userSpaceOnUse"><stop offset="0"/><stop offset="1"/></linearGradient><linearGradient id="h" x1="645.356" x2="666.105" y1="224.644" y2="224.644" gradientUnits="userSpaceOnUse"><stop offset="0"/><stop offset=".023" stop-color="#0C0C0C"/><stop offset=".058" stop-color="#1A1A1A"/><stop offset=".099" stop-color="#363636"/><stop offset=".146" stop-color="#595A5A"/><stop offset=".198" stop-color="#7D7E7F"/><stop offset=".253" stop-color="#9B9FA2"/><stop offset=".258" stop-color="#9DA1A5"/><stop offset=".285" stop-color="#919396"/><stop offset=".324" stop-color="#7D7E7F"/><stop offset=".366" stop-color="#666767"/><stop offset=".412" stop-color="#4E4F4E"/><stop offset=".462" stop-color="#393939"/><stop offset=".518" stop-color="#252525"/><stop offset=".581" stop-color="#161616"/><stop offset=".658" stop-color="#0E0E0E"/><stop offset=".761" stop-color="#060606"/><stop offset="1"/></linearGradient><linearGradient id="l" x1="3184.297" x2="3184.297" y1="4233.011" y2="4244.284" gradientTransform="matrix(-.707 .707 -.707 -.707 5922.02 972.06)" gradientUnits="userSpaceOnUse"><stop offset="0" stop-color="#E96712"/><stop offset=".648" stop-color="#D4290C"/><stop offset="1" stop-color="#CB1009"/></linearGradient><linearGradient id="k" x1="662.96" x2="678.598" y1="218.783" y2="228.292" xlink:href="#a" gradientUnits="userSpaceOnUse"/><radialGradient id="j" cx="667.862" cy="234.334" r="9.422" xlink:href="#b" fx="667.862" fy="234.334" gradientTransform="matrix(.765 .569 -.482 .648 270.073 -300.117)" gradientUnits="userSpaceOnUse"/></defs><g><path fill="url(#c)" d="M24.94 8.64v21.52c0 1.7-1.1 3.4-3.34 4.7-4.47 2.58-11.7 2.58-16.17 0-2.23-1.3-3.35-3-3.35-4.7V8.64"/><path fill="url(#d)" d="M21.6 5.54c4.46 1.7 4.46 4.47 0 6.18-4.46 1.7-11.7 1.7-16.16 0-4.46-1.7-4.46-4.47 0-6.18 4.46-1.7 11.7-1.7 16.16 0z"/><g transform="matrix(1.031 0 0 1.032 -657.306 -195.035)"><radialGradient cx="1609.221" cy="-290.257" r="43.988" gradientUnits="userSpaceOnUse" gradientTransform="matrix(-1.141 0 0 .755 2477.606 425.584)" fy="-290.257" fx="1609.221"><stop offset="0" stop-color="#fff"/><stop offset=".135" stop-color="#F6F7F7"/><stop offset=".356" stop-color="#DDE0E3"/><stop offset=".636" stop-color="#B5BBC1"/><stop offset=".961" stop-color="#7E8892"/><stop offset="1" stop-color="#77818C"/></radialGradient><path fill="url(#e)" d="M660.08 218.32v-19.47l.92-.47v19.94c0 1.58-1.08 3.08-3.05 4.22-4.17 2.43-10.97 2.43-15.14 0-1.96-1.14-3.04-2.64-3.03-4.22v-19.86l.92.42v19.44c-.02 1.32.92 2.6 2.63 3.6 3.9 2.24 10.2 2.24 14.1 0 1.7-1 2.65-2.28 2.65-3.6z"/></g><g transform="matrix(1.031 0 0 1.032 -657.306 -195.035)"><radialGradient cx="656.56" cy="-297.819" r="27.241" gradientUnits="userSpaceOnUse" gradientTransform="matrix(1 0 0 .755 0 425.584)" fy="-297.819" fx="656.56"><stop offset="0" stop-color="#fff"/><stop offset=".098" stop-color="#F9F9FA"/><stop offset=".23" stop-color="#E8EAEC"/><stop offset=".382" stop-color="#CCD0D6"/><stop offset=".547" stop-color="#A5ADB7"/><stop offset=".652" stop-color="#8893A0"/><stop offset=".916" stop-color="#737B87"/></radialGradient><path fill="url(#f)" d="M642.68 194.35c-2.13.82-3.3 1.9-3.3 3.1 0 1.17 1.17 2.27 3.3 3.08 4.26 1.63 11.18 1.63 15.43 0 2.14-.8 3.3-1.9 3.3-3.1 0-1.17-1.16-2.26-3.3-3.08-4.24-1.62-11.16-1.62-15.42 0zm.53 5.7c-1.84-.7-2.86-1.63-2.86-2.6 0-.98 1.02-1.9 2.87-2.6 3.97-1.53 10.42-1.53 14.38 0 1.85.7 2.87 1.62 2.87 2.6 0 .97-1.02 1.9-2.87 2.6-3.96 1.52-10.4 1.52-14.37 0zm-.52-5.7z"/></g><path fill="none" stroke="#192333" d="M2.1 8.64c0-1.12 1.1-2.24 3.34-3.1 4.46-1.7 11.7-1.7 16.16 0 2.23.86 3.34 1.97 3.34 3.1"/><path fill="none" stroke="#192333" d="M24.95 8.64v21.52c0 1.7-1.1 3.4-3.34 4.7-4.45 2.58-11.7 2.58-16.16 0-2.23-1.3-3.34-3-3.34-4.7V8.64"/><path fill="url(#g)" d="M8.3 19.65c4.9.47 10.46.18 14.53-.87 6.2-1.62 6.88-4.47 6.88-5.62v24.06c0 1.15-.66 4-6.87 5.62-4.07 1.05-9.63 1.34-14.52.87V19.66z"/><path fill="none" stroke="#192333" d="M29.7 13.16c0-.7-.24-2.07-1.9-3.4"/><path fill="none" stroke="#192333" d="M8.3 19.65c4.9.47 10.46.18 14.53-.87 6.2-1.62 6.88-4.47 6.88-5.62v24.06c0 1.15-.66 4-6.87 5.62-4.07 1.05-9.63 1.34-14.52.87V19.66z"/><g transform="matrix(1.031 0 0 1.032 -657.306 -195.035)"><linearGradient x1="645.356" x2="666.105" y1="224.644" y2="224.644" gradientUnits="userSpaceOnUse"><stop offset="0"/><stop offset=".023" stop-color="#0C0C0C"/><stop offset=".058" stop-color="#1A1A1A"/><stop offset=".099" stop-color="#363636"/><stop offset=".146" stop-color="#595A5A"/><stop offset=".198" stop-color="#7D7E7F"/><stop offset=".253" stop-color="#9B9FA2"/><stop offset=".258" stop-color="#9DA1A5"/><stop offset=".285" stop-color="#919396"/><stop offset=".324" stop-color="#7D7E7F"/><stop offset=".366" stop-color="#666767"/><stop offset=".412" stop-color="#4E4F4E"/><stop offset=".462" stop-color="#393939"/><stop offset=".518" stop-color="#252525"/><stop offset=".581" stop-color="#161616"/><stop offset=".658" stop-color="#0E0E0E"/><stop offset=".761" stop-color="#060606"/><stop offset="1"/></linearGradient><path fill="url(#h)" stroke="#000" stroke-width=".97" d="M662.9 217.63c-.9.47-2.03.9-3.47 1.3-3.94 1-9.33 1.3-14.07.83v11.7c4.74.45 10.13.16 14.07-.86 1.44-.37 2.58-.8 3.47-1.3v-11.67z"/><linearGradient x1="645.354" x2="666.104" y1="209.73" y2="209.73" gradientUnits="userSpaceOnUse"><stop offset="0"/><stop offset="1"/></linearGradient><path fill="url(#i)" stroke="#000" stroke-width=".97" d="M662.9 217.63V206c2.83-1.5 3.2-3.32 3.2-4.17v11.64c0 .85-.37 2.65-3.2 4.16z"/></g><g transform="matrix(1.031 0 0 1.032 -657.306 -195.035)"><path fill="url(#j)" d="M681.9 234.33l-8.57-4.1 4.1-1.8c.3-.17.04-.6-.34-.58l-12.78.28c-.48 0-.7.18-.7.42l-.54 6.4-.02.22c-.03.3.1.45.73.16l3.15-1.6 8.14 5.76"/><path fill="none" stroke="url(#k)" stroke-width="1.939" d="M676.92 218.8s-12.62.26-12.62.26c-.92 0-1.6.5-1.6 1.17l-.54 6.57c0 .04 0 .08 0 .12 0 .48.24.72.4.83.5.35 1.12.06 1.4-.06 0 0 2.16-1.1 2.77-1.4.67.46 7.14 5.03 7.14 5.03l9.4-5.4s-6.2-2.97-8.3-3.98c1.2-.53 2.6-1.16 2.6-1.16.38-.22.58-.55.58-.9 0-.1-.02-.17-.04-.26-.13-.5-.63-.86-1.18-.85z"/><linearGradient x1="3184.297" x2="3184.297" y1="4233.011" y2="4244.284" gradientTransform="matrix(-.707 .707 -.707 -.707 5922.02 972.06)" gradientUnits="userSpaceOnUse"><stop offset="0" stop-color="#E96712"/><stop offset=".648" stop-color="#D4290C"/><stop offset="1" stop-color="#CB1009"/></linearGradient><path fill="url(#l)" stroke="#590b08" stroke-width=".582" d="M681.74 226l-8.57-4.08 4.1-1.8c.3-.18.04-.6-.33-.58l-12.78.27c-.47 0-.7.2-.7.43l-.54 6.42-.02.2c-.02.3.1.46.73.16l3.17-1.58 8.13 5.75"/><path fill="none" stroke="#ed2728" stroke-width=".582" d="M680.97 226.47l-9.6-4.57s2.53-1.12 3.57-1.58c-2.65.06-9.66.2-10.58.23-.06 0-.2.05-.2.13-.07.94-.36 4.4-.45 5.46.6-.3 3.16-1.6 3.16-1.6s8 5.68 8.7 6.16"/></g></g></svg>