<svg xmlns="http://www.w3.org/2000/svg" width="48" height="48" xmlns:xlink="http://www.w3.org/1999/xlink"><defs><linearGradient id="f"><stop offset="0" stop-color="#99badd"/><stop offset="1" stop-color="#5d92c9"/></linearGradient><linearGradient><stop offset="0" stop-color="#729fcf"/><stop offset=".5" stop-color="#729fcf"/><stop offset="1" stop-color="#2c5581"/></linearGradient><linearGradient id="a"><stop offset="0" stop-color="#ae7cbb"/><stop offset="1" stop-color="#5c3566"/></linearGradient><linearGradient x1="6.758" x2="10.429" y1="32.271" y2="35.906" xlink:href="#a" gradientUnits="userSpaceOnUse"/><radialGradient id="b" cx="1723.045" cy="823.962" r="18.517" gradientUnits="userSpaceOnUse" fy="823.962" fx="1723.045"><stop offset="0" stop-color="#575F66"/><stop offset=".039" stop-color="#595E64"/><stop offset=".168" stop-color="#545657"/><stop offset=".301" stop-color="#454545"/><stop offset=".435" stop-color="#323232"/><stop offset=".571" stop-color="#1E1E1E"/><stop offset=".709" stop-color="#121111"/><stop offset=".85" stop-color="#090909"/><stop offset="1"/></radialGradient><radialGradient id="c" cx="1723.045" cy="823.962" r="12.596" gradientUnits="userSpaceOnUse" fy="823.962" fx="1723.045"><stop offset="0" stop-color="#fff"/><stop offset=".259" stop-color="#FCFDFD"/><stop offset="1" stop-color="#F8FAFA"/></radialGradient><radialGradient id="d" cx="1723.044" cy="823.962" r="12.597" gradientUnits="userSpaceOnUse" fy="823.962" fx="1723.044"><stop offset="0" stop-color="#fff"/><stop offset=".259" stop-color="#FCFDFD"/><stop offset="1" stop-color="#F8FAFA"/></radialGradient><radialGradient id="e" cx="1723.044" cy="823.962" r="18.517" gradientUnits="userSpaceOnUse" fy="823.962" fx="1723.044"><stop offset="0" stop-color="#575F66"/><stop offset=".039" stop-color="#595E64"/><stop offset=".168" stop-color="#545657"/><stop offset=".301" stop-color="#454545"/><stop offset=".435" stop-color="#323232"/><stop offset=".571" stop-color="#1E1E1E"/><stop offset=".709" stop-color="#121111"/><stop offset=".85" stop-color="#090909"/><stop offset="1"/></radialGradient><linearGradient x1="6.758" x2="10.429" y1="32.271" y2="35.906" xlink:href="#a" gradientUnits="userSpaceOnUse"/><radialGradient id="g" cx="1723.045" cy="823.962" r="18.517" xlink:href="#b" gradientUnits="userSpaceOnUse" fx="1723.045" fy="823.962"/><radialGradient id="h" cx="1723.045" cy="823.962" r="12.596" xlink:href="#c" gradientUnits="userSpaceOnUse" fx="1723.045" fy="823.962"/><radialGradient id="i" cx="1723.044" cy="823.962" r="12.597" xlink:href="#d" gradientUnits="userSpaceOnUse" fx="1723.044" fy="823.962"/><radialGradient id="j" cx="1723.044" cy="823.962" r="18.517" xlink:href="#e" gradientUnits="userSpaceOnUse" fx="1723.044" fy="823.962"/><linearGradient x1="6.758" x2="10.429" y1="32.271" y2="35.906" xlink:href="#a" gradientUnits="userSpaceOnUse"/><linearGradient x1="6.758" x2="10.429" y1="32.271" y2="35.906" xlink:href="#a" gradientUnits="userSpaceOnUse"/><linearGradient x1="6.758" x2="10.429" y1="32.271" y2="35.906" xlink:href="#a" gradientUnits="userSpaceOnUse"/><radialGradient id="k" cx="26.578" cy="20.953" r="19.234" xlink:href="#f" fx="26.578" fy="20.953" gradientUnits="userSpaceOnUse" gradientTransform="matrix(1.057 0 0 1.057 -1.506 -.616)"/></defs><g><g><path fill="url(#g)" d="M1720.25 846h-18.94v-18.94l21.74-3.1-2.8 22.04z" transform="matrix(1.075 0 0 1.075 -1824.467 -864.786)"/><path fill="url(#h)" d="M1723.04 823.96l-21.73 3.1v-18.94h18.95l2.8 15.84z" transform="matrix(1.075 0 0 1.075 -1824.467 -864.786)"/><path fill="url(#i)" d="M1739.2 846h-18.95l2.8-22.04 16.14 3.1V846z" transform="matrix(1.075 0 0 1.075 -1824.467 -864.786)"/><path fill="url(#j)" d="M1739.2 827.06l-16.16-3.1-2.8-15.84h18.95v18.94z" transform="matrix(1.075 0 0 1.075 -1824.467 -864.786)"/><path fill="none" stroke="#000" stroke-width=".9.114" d="M3.43 3.47h40.72v40.7H3.43z"/></g><path fill="url(#k)" stroke="#183866" stroke-width="1.5" d="M26.63 2l-6.94 9.5 3.46.07v6.54H16.9l-.05-3.33-9.8 6.7 10.1 6.94-.03-3.52 6.04.03v6.32l-3.37.03 6.73 9.8 6.93-10.1h-3.53V24.9l6.54.04v3.4l9.64-6.73-9.53-6.96-.04 3.47h-6.57v-6.47l3.44-.03L26.63 2z"/></g></svg>