<svg xmlns="http://www.w3.org/2000/svg" width="48" height="48" xmlns:xlink="http://www.w3.org/1999/xlink"><defs><linearGradient id="a"><stop offset="0" stop-color="#2e3436"/><stop offset="1" stop-color="#2e3436" stop-opacity="0"/></linearGradient><linearGradient id="b" x1="33.714" x2="36.603" y1="39.556" y2="43.81" xlink:href="#a" gradientUnits="userSpaceOnUse"/><linearGradient id="c" x1="33.714" x2="36.254" y1="39.556" y2="43.048" xlink:href="#a" gradientUnits="userSpaceOnUse" gradientTransform="matrix(-1 0 0 1 49.937 .127)"/></defs><g><path fill="#d3d7cf" fill-rule="evenodd" stroke="#000" d="M10 33l15 11.44 16-9.9-16-8L10 33z" stroke-linejoin="round"/><path fill="#d3d7cf" fill-rule="evenodd" stroke="#000" d="M25 26.54l5.3-13.97L20.62.63l21.55 6.8 5.4 10.28-7 17.3L25 26.54z" stroke-linejoin="round"/><path fill="#fff" fill-rule="evenodd" d="M25.65 26.22l5.14-13.7 16.18 5.2-6.8 16.63-14.53-8.13z"/><path fill-rule="evenodd" d="M35.6 22.67l8.37 3.1-3.87 8.64-7.7-4 3.2-7.73z" color="#000" overflow="visible"/><path fill="#eeeeec" fill-rule="evenodd" stroke="#000" d="M10 33L1.94 14.65l17.36-4.2L25 27l-15 6z" stroke-linejoin="round"/><path fill="none" stroke="#eeeeec" stroke-width="3" d="M24.87 44.46l3.5-10.87 18.6-9.1-6.53 10.47-15.57 9.5z" stroke-linejoin="round"/><path fill-rule="evenodd" d="M6.06 24.03l8.26-2.66 2.92 8.7-7.3 2.03-3.88-8.07z"/><path fill="none" stroke="#eeeeec" stroke-width="3" d="M10.25 33.06L.9 20.48l19.65 14.2 4.32 9.86-14.62-11.48z" stroke-linejoin="round"/><path fill="#888a85" fill-rule="evenodd" stroke="#000" d="M24.94 44.5l3.5-10.88 18.6-9.1L40.52 35l-15.56 9.5z" stroke-linejoin="round"/><path fill="#babdb6" fill-rule="evenodd" stroke="#000" d="M10.3 33.1L.96 20.5l19.67 14.2 4.32 9.87L10.3 33.1z" stroke-linejoin="round"/><path fill-rule="evenodd" d="M7.05 28.44l6.98 4.83 2.3 4.5-6.36-4.5-2.92-4.83z"/><path fill-rule="evenodd" d="M11.3 28.44l9.14 5.78 1.85 4.7-8.27-5.65-2.73-4.83z"/><path fill-rule="evenodd" d="M28.57 33.65l8.5-4-1.4 4.83-8.8 4.57 1.7-5.4z" color="#000" overflow="visible"/><path fill-rule="evenodd" d="M35.62 34.35l8.2-4-2.6 4.95-7 3.43 1.4-4.38z" color="#000" overflow="visible"/><path fill-rule="evenodd" d="M11.08 12.8l8.2-2.48 2.6 8.95-7.56 2.3-3.24-8.78z"/><path fill-rule="evenodd" d="M30.35 12.32l8.32 2.73-3.1 7.8-7.7-3.04 2.48-7.48z" color="#000" overflow="visible"/><path fill-rule="evenodd" d="M35.1 10.13l9.92 2.92 2.03 4.7-8.32-2.73-3.62-4.9z" color="#000" overflow="visible"/><path fill-rule="evenodd" d="M21.62 1.27L31.22 4l4.18 6.3-8.83-2.68-4.95-6.35z" color="#000" overflow="visible"/><path fill="url(#b)" fill-rule="evenodd" d="M25.02 44.95l4.82 3.18 18.35-11.3L41 35.17l-16 9.78z"/><path fill="url(#c)" fill-rule="evenodd" d="M24.92 45.08l-6.6 2.8L2.44 35.74l7.7-2.3L24.9 45.1z"/></g></svg>