<svg xmlns="http://www.w3.org/2000/svg" width="48" height="48" xmlns:xlink="http://www.w3.org/1999/xlink"><defs><linearGradient id="b"><stop offset="0" stop-color="#fff"/><stop offset="1" stop-color="#729fcf"/></linearGradient><linearGradient id="a"><stop offset="0" stop-color="#ffde57"/><stop offset="1" stop-color="#f60"/></linearGradient><radialGradient id="e" cx="-4.789" cy="-4.426" r="21.26" xlink:href="#a" gradientUnits="userSpaceOnUse" gradientTransform="matrix(.672 .589 -.647 .74 22.147 23.718)" fx="-4.789" fy="-4.426"/><radialGradient cx="24.893" cy="24.5" r="18.623" xlink:href="#b" fx="24.893" fy="24.5" gradientTransform="matrix(1 0 0 1.094 0 -2.302)" gradientUnits="userSpaceOnUse"/><linearGradient id="c"><stop offset="0" stop-color="#fff"/><stop offset="1" stop-color="#bcbcbc"/></linearGradient><radialGradient id="d" cx="24.893" cy="24.5" r="18.623" fy="24.5" fx="24.893" gradientTransform="matrix(1 0 0 1.094 0 -2.302)" gradientUnits="userSpaceOnUse" xlink:href="#c"/></defs><g stroke-linejoin="round"><path fill="#ce5c00" stroke="#2e3436" stroke-width="1.5" d="M25.03 1.3l7.42 7.63 3.33 13.54-3.64 14.3-8.55 9.37-13.5-24.88z"/><path fill="url(#d)" stroke="#888a85" stroke-width=".949" stroke-dashoffset=".38" d="M42.8 24.5a17.9 19.64 0 1 1-35.8 0 17.9 19.64 0 1 1 35.8 0z" transform="matrix(1.025 .409 -.373 .934 8.115 -9.13)" color="#000" stroke-dasharray="1.89879756, 0.94939878" overflow="visible" enable-background="accumulate"/><g><path fill="none" stroke="#2e3436" stroke-width="2.12.832" d="M22.73 45.58l-8.6-3.03-2.67-2.66-6.5-7.48L3.63 19 10.9 6.96l13.24-5.18-4.45 6.4-2.05 13.76 1 14.5 4.08 9.14z" color="#000" overflow="visible"/><path fill="url(#e)" fill-rule="evenodd" stroke="#ed6900" stroke-width=".472" d="M27.12 44.54L19 41.68l-2.5-2.5-6.14-7.07L9.1 19.45l6.87-11.37 12.48-4.9-4.2 6.06-1.92 12.98.93 13.7 3.86 8.64z" color="#000" overflow="visible" transform="matrix(1.06 0 0 1.059 -6.016 -1.662)"/><path fill="none" stroke="#ed6900" stroke-width=".50032" d="M10.88 6.75l9.1 1.5 4.4-6.53-13.5 5.03z"/><path fill="none" stroke="#ed6900" stroke-width=".50032" d="M22.77 45.28L14 42.3l-2.9-3.05 11.67 6.03z"/><path fill="none" stroke="#ed6900" stroke-width=".50032" d="M11.24 39.33l-6.16-6.97 2.32-4.2 3.84 11.17z"/><path fill="none" stroke="#ed6900" stroke-width=".50032" d="M5 32.36l-1.44-13.5 3.84 9.5-2.4 4z"/><path fill="none" stroke="#ed6900" stroke-width=".50032" d="M9.07 15.53l1.95-8.78 8.92 1.45-10.87 7.33z"/><path fill="none" stroke="#ed6900" stroke-width=".50032" d="M18.78 36.42l-7.4 3.2 11.24 5.66-3.84-8.86z"/><path fill="none" stroke="#ed6900" stroke-width=".50032" d="M18.56 36.35L11.3 39.7 7.05 28.07l11.52 8.27z"/><path fill="none" stroke="#ed6900" stroke-width=".50032" d="M7.18 28.37L9.2 15.4l-5.57 3.98 3.55 9z"/><path fill="none" stroke="#ed6900" stroke-width=".50032" d="M9.07 15.4l8.48 6.6L7.4 28.14 9.07 15.4z"/><path fill="none" stroke="#ed6900" stroke-width=".50032" d="M9.2 15.46l10.67-7.4-2.4 14.07-8.26-6.67z"/><path fill="none" stroke="#ed6900" stroke-width=".50032" d="M17.48 21.92l1.23 14.43L7.26 28.3l10.23-6.38z"/></g></g></svg>