<svg xmlns="http://www.w3.org/2000/svg" width="48" height="48" xmlns:xlink="http://www.w3.org/1999/xlink"><defs><radialGradient id="s" cx="24.893" cy="24.5" r="18.623" xlink:href="#a" fx="24.893" fy="24.5" gradientTransform="matrix(1 0 0 1.094 0 -2.302)" gradientUnits="userSpaceOnUse"/><radialGradient id="w" cx="34.328" cy="459.265" r="2.869" xlink:href="#b" gradientUnits="userSpaceOnUse" gradientTransform="matrix(-1 0 0 1 55.359 0)" fx="34.328" fy="459.265"/><radialGradient id="b" cx="34.328" cy="459.265" r="2.869" gradientUnits="userSpaceOnUse" gradientTransform="matrix(-1 0 0 1 55.359 0)" fy="459.265" fx="34.328"><stop offset="0" stop-color="#fff"/><stop offset=".004" stop-color="#FDFDFE"/><stop offset=".107" stop-color="#C7D5E5"/><stop offset=".212" stop-color="#98B3CF"/><stop offset=".315" stop-color="#7297BD"/><stop offset=".417" stop-color="#5481B0"/><stop offset=".517" stop-color="#3F72A6"/><stop offset=".615" stop-color="#3268A0"/><stop offset=".708" stop-color="#2E659E"/><stop offset="1" stop-color="#193766"/></radialGradient><radialGradient id="x" cx="20.523" cy="458.587" r="4.066" xlink:href="#c" gradientUnits="userSpaceOnUse" fx="20.523" fy="458.587"/><radialGradient id="c" cx="20.523" cy="458.587" r="4.066" gradientUnits="userSpaceOnUse" fy="458.587" fx="20.523"><stop offset="0" stop-color="#fff"/><stop offset=".685" stop-color="#2E659E"/><stop offset="1" stop-color="#1D3E63"/></radialGradient><linearGradient id="u" x1="9.496" x2="4.889" y1="470.609" y2="468.235" xlink:href="#d" gradientUnits="userSpaceOnUse"/><linearGradient id="d" x1="21.592" x2="16.606" y1="460.478" y2="449.398" gradientUnits="userSpaceOnUse"><stop offset="0" stop-color="#88a9c3"/><stop offset="1" stop-color="#fff" stop-opacity="0"/></linearGradient><linearGradient id="e" x1="21.166" x2="16.757" y1="459.607" y2="449.81" gradientUnits="userSpaceOnUse" gradientTransform="translate(-3.513 -450.695)"><stop offset="0" stop-color="#6F87A0"/><stop offset="1" stop-color="#fff" stop-opacity="0"/></linearGradient><linearGradient id="t" x1="6.328" x2="-1.866" y1="19.519" y2="16.009" gradientTransform="matrix(1.112 0 0 1.112 2.807 -11.924)" gradientUnits="userSpaceOnUse" xlink:href="#e"/><linearGradient id="v" x1="9.496" x2="4.889" y1="470.609" y2="468.235" gradientUnits="userSpaceOnUse" xlink:href="#d"/><radialGradient id="C" cx="34.328" cy="459.265" r="2.869" xlink:href="#f" gradientUnits="userSpaceOnUse" gradientTransform="matrix(-1 0 0 1 55.359 0)" fx="34.328" fy="459.265"/><radialGradient id="f" cx="34.328" cy="459.265" r="2.869" gradientUnits="userSpaceOnUse" gradientTransform="matrix(-1 0 0 1 55.359 0)" fy="459.265" fx="34.328"><stop offset="0" stop-color="#fff"/><stop offset=".004" stop-color="#FDFDFE"/><stop offset=".107" stop-color="#C7D5E5"/><stop offset=".212" stop-color="#98B3CF"/><stop offset=".315" stop-color="#7297BD"/><stop offset=".417" stop-color="#5481B0"/><stop offset=".517" stop-color="#3F72A6"/><stop offset=".615" stop-color="#3268A0"/><stop offset=".708" stop-color="#2E659E"/><stop offset="1" stop-color="#193766"/></radialGradient><radialGradient id="D" cx="20.523" cy="458.587" r="4.066" xlink:href="#g" gradientUnits="userSpaceOnUse" fx="20.523" fy="458.587"/><radialGradient id="g" cx="20.523" cy="458.587" r="4.066" gradientUnits="userSpaceOnUse" fy="458.587" fx="20.523"><stop offset="0" stop-color="#fff"/><stop offset=".685" stop-color="#2E659E"/><stop offset="1" stop-color="#1D3E63"/></radialGradient><linearGradient id="A" x1="9.496" x2="4.889" y1="470.609" y2="468.235" xlink:href="#h" gradientUnits="userSpaceOnUse"/><linearGradient id="h" x1="21.592" x2="16.606" y1="460.478" y2="449.398" gradientUnits="userSpaceOnUse"><stop offset="0" stop-color="#88a9c3"/><stop offset="1" stop-color="#fff" stop-opacity="0"/></linearGradient><linearGradient id="B" x1="9.496" x2="4.889" y1="470.609" y2="468.235" gradientUnits="userSpaceOnUse" xlink:href="#h"/><linearGradient id="z" x1="6.328" x2="-1.866" y1="19.519" y2="16.009" gradientTransform="matrix(1.033 .412 -.412 1.033 38.655 -15.13)" gradientUnits="userSpaceOnUse" xlink:href="#i"/><linearGradient id="i" x1="21.166" x2="16.757" y1="459.607" y2="449.81" gradientUnits="userSpaceOnUse" gradientTransform="translate(-3.513 -450.695)"><stop offset="0" stop-color="#6F87A0"/><stop offset="1" stop-color="#fff" stop-opacity="0"/></linearGradient><linearGradient id="a"><stop offset="0" stop-color="#fff"/><stop offset="1" stop-color="#bcbcbc"/></linearGradient><radialGradient id="y" cx="24.893" cy="24.5" r="18.623" fy="24.5" fx="24.893" gradientTransform="matrix(1 0 0 1.094 0 -2.302)" gradientUnits="userSpaceOnUse" xlink:href="#a"/><radialGradient id="I" cx="34.328" cy="459.265" r="2.869" xlink:href="#j" gradientUnits="userSpaceOnUse" gradientTransform="matrix(-1 0 0 1 55.359 0)" fx="34.328" fy="459.265"/><radialGradient id="j" cx="34.328" cy="459.265" r="2.869" gradientUnits="userSpaceOnUse" gradientTransform="matrix(-1 0 0 1 55.359 0)" fy="459.265" fx="34.328"><stop offset="0" stop-color="#fff"/><stop offset=".004" stop-color="#FDFDFE"/><stop offset=".107" stop-color="#C7D5E5"/><stop offset=".212" stop-color="#98B3CF"/><stop offset=".315" stop-color="#7297BD"/><stop offset=".417" stop-color="#5481B0"/><stop offset=".517" stop-color="#3F72A6"/><stop offset=".615" stop-color="#3268A0"/><stop offset=".708" stop-color="#2E659E"/><stop offset="1" stop-color="#193766"/></radialGradient><radialGradient id="J" cx="20.523" cy="458.587" r="4.066" xlink:href="#k" gradientUnits="userSpaceOnUse" fx="20.523" fy="458.587"/><radialGradient id="k" cx="20.523" cy="458.587" r="4.066" gradientUnits="userSpaceOnUse" fy="458.587" fx="20.523"><stop offset="0" stop-color="#fff"/><stop offset=".685" stop-color="#2E659E"/><stop offset="1" stop-color="#1D3E63"/></radialGradient><linearGradient id="G" x1="9.496" x2="4.889" y1="470.609" y2="468.235" xlink:href="#l" gradientUnits="userSpaceOnUse"/><linearGradient id="l" x1="21.592" x2="16.606" y1="460.478" y2="449.398" gradientUnits="userSpaceOnUse"><stop offset="0" stop-color="#88a9c3"/><stop offset="1" stop-color="#fff" stop-opacity="0"/></linearGradient><linearGradient id="H" x1="9.496" x2="4.889" y1="470.609" y2="468.235" gradientUnits="userSpaceOnUse" xlink:href="#l"/><linearGradient id="F" x1="6.328" x2="-1.866" y1="19.519" y2="16.009" gradientTransform="matrix(1.037 .401 -.401 1.037 13.819 7.844)" gradientUnits="userSpaceOnUse" xlink:href="#m"/><linearGradient id="m" x1="21.166" x2="16.757" y1="459.607" y2="449.81" gradientUnits="userSpaceOnUse" gradientTransform="translate(-3.513 -450.695)"><stop offset="0" stop-color="#6F87A0"/><stop offset="1" stop-color="#fff" stop-opacity="0"/></linearGradient><linearGradient id="r"><stop offset="0" stop-color="#fff" stop-opacity="0"/><stop offset="1" stop-color="#729fcf"/></linearGradient><radialGradient id="E" cx="24.893" cy="24.5" r="18.623" fy="24.5" fx="24.893" gradientTransform="matrix(1 0 0 1.094 0 -2.302)" gradientUnits="userSpaceOnUse" xlink:href="#a"/><radialGradient id="O" cx="34.328" cy="459.265" r="2.869" xlink:href="#n" gradientUnits="userSpaceOnUse" gradientTransform="matrix(-1 0 0 1 55.359 0)" fx="34.328" fy="459.265"/><radialGradient id="n" cx="34.328" cy="459.265" r="2.869" gradientUnits="userSpaceOnUse" gradientTransform="matrix(-1 0 0 1 55.359 0)" fy="459.265" fx="34.328"><stop offset="0" stop-color="#fff"/><stop offset=".004" stop-color="#FDFDFE"/><stop offset=".107" stop-color="#C7D5E5"/><stop offset=".212" stop-color="#98B3CF"/><stop offset=".315" stop-color="#7297BD"/><stop offset=".417" stop-color="#5481B0"/><stop offset=".517" stop-color="#3F72A6"/><stop offset=".615" stop-color="#3268A0"/><stop offset=".708" stop-color="#2E659E"/><stop offset="1" stop-color="#193766"/></radialGradient><radialGradient id="P" cx="20.523" cy="458.587" r="4.066" xlink:href="#o" gradientUnits="userSpaceOnUse" fx="20.523" fy="458.587"/><radialGradient id="o" cx="20.523" cy="458.587" r="4.066" gradientUnits="userSpaceOnUse" fy="458.587" fx="20.523"><stop offset="0" stop-color="#fff"/><stop offset=".685" stop-color="#2E659E"/><stop offset="1" stop-color="#1D3E63"/></radialGradient><linearGradient id="M" x1="9.496" x2="4.889" y1="470.609" y2="468.235" xlink:href="#p" gradientUnits="userSpaceOnUse"/><linearGradient id="p" x1="21.592" x2="16.606" y1="460.478" y2="449.398" gradientUnits="userSpaceOnUse"><stop offset="0" stop-color="#88a9c3"/><stop offset="1" stop-color="#fff" stop-opacity="0"/></linearGradient><linearGradient id="N" x1="9.496" x2="4.889" y1="470.609" y2="468.235" gradientUnits="userSpaceOnUse" xlink:href="#p"/><linearGradient id="L" x1="6.328" x2="-1.866" y1="19.519" y2="16.009" gradientTransform="matrix(.854 .712 -.712 .854 43.349 15.227)" gradientUnits="userSpaceOnUse" xlink:href="#q"/><linearGradient id="q" x1="21.166" x2="16.757" y1="459.607" y2="449.81" gradientUnits="userSpaceOnUse" gradientTransform="translate(-3.513 -450.695)"><stop offset="0" stop-color="#6F87A0"/><stop offset="1" stop-color="#fff" stop-opacity="0"/></linearGradient><radialGradient id="K" cx="24.893" cy="24.5" r="18.623" fy="24.5" fx="24.893" gradientTransform="matrix(1 0 0 1.094 0 -2.302)" gradientUnits="userSpaceOnUse" xlink:href="#a"/><radialGradient cx="24.893" cy="24.5" r="18.623" xlink:href="#r" gradientUnits="userSpaceOnUse" gradientTransform="matrix(1 0 0 1.094 0 -2.302)" fx="24.893" fy="24.5"/><linearGradient x1="6.328" x2="-1.866" y1="19.519" y2="16.009" xlink:href="#m" gradientUnits="userSpaceOnUse" gradientTransform="matrix(1.037 .401 -.401 1.037 22.676 -.584)"/><linearGradient x1="9.496" x2="4.889" y1="470.609" y2="468.235" xlink:href="#l" gradientUnits="userSpaceOnUse"/><linearGradient x1="9.496" x2="4.889" y1="470.609" y2="468.235" xlink:href="#l" gradientUnits="userSpaceOnUse"/><radialGradient cx="34.328" cy="459.265" r="2.869" xlink:href="#j" gradientUnits="userSpaceOnUse" gradientTransform="matrix(-1 0 0 1 55.359 0)" fx="34.328" fy="459.265"/><radialGradient cx="20.523" cy="458.587" r="4.066" xlink:href="#k" gradientUnits="userSpaceOnUse" fx="20.523" fy="458.587"/><radialGradient id="Q" cx="24.893" cy="24.5" r="18.623" xlink:href="#a" gradientUnits="userSpaceOnUse" gradientTransform="matrix(1 0 0 1.094 0 -2.302)" fx="24.893" fy="24.5"/><linearGradient id="R" x1="6.328" x2="-1.866" y1="19.519" y2="16.009" xlink:href="#m" gradientUnits="userSpaceOnUse" gradientTransform="matrix(1.037 .401 -.401 1.037 26.319 -4.727)"/><linearGradient id="T" x1="9.496" x2="4.889" y1="470.609" y2="468.235" xlink:href="#l" gradientUnits="userSpaceOnUse"/><linearGradient id="S" x1="9.496" x2="4.889" y1="470.609" y2="468.235" xlink:href="#l" gradientUnits="userSpaceOnUse"/><radialGradient id="U" cx="34.328" cy="459.265" r="2.869" xlink:href="#j" gradientUnits="userSpaceOnUse" gradientTransform="matrix(-1 0 0 1 55.359 0)" fx="34.328" fy="459.265"/><radialGradient id="V" cx="20.523" cy="458.587" r="4.066" xlink:href="#k" gradientUnits="userSpaceOnUse" fx="20.523" fy="458.587"/></defs><g><path fill="url(#s)" stroke="#888a85" stroke-width="2.612" stroke-dashoffset="1.045" d="M42.8 24.5a17.9 19.64 0 1 1-35.8 0 17.9 19.64 0 1 1 35.8 0z" transform="matrix(.401 0 0 .365 2.192 2.173)" stroke-linejoin="round" stroke-dasharray="5.22317003000000040, 2.61158502000000010" color="#000" overflow="visible" enable-background="accumulate"/><path fill="url(#t)" d="M1.87 5.08c.77.3 9.36 3.6 10.34 3.98-.4.8-1.27 2.86-1.64 3.6C9.7 12.2.8 7.23-.14 6.75l2-1.68z"/><g fill="url(#u)" transform="matrix(1.112 0 0 1.112 -1.1 -513.13)" color="#000" overflow="visible"><linearGradient x1="-187.844" x2="-192.831" y1="353.518" y2="342.438" gradientTransform="matrix(.766 -.643 .643 .766 -71.234 80.032)" gradientUnits="userSpaceOnUse"><stop fill="url(#u)" offset="0" stop-color="#88A9C3"/><stop fill="url(#u)" offset="1" stop-color="#fff"/></linearGradient><path fill="url(#v)" d="M0 468.23l10.93 5.9 2.42-5.08-9.8-3.8L0 468.22zm2.67-2.25c.7.3 8.42 3.23 9.3 3.58-.37.72-1.15 2.57-1.5 3.23-.76-.4-8.76-4.88-9.6-5.3l1.8-1.52z" overflow="visible"/></g><g transform="matrix(1.112 0 0 1.112 -11.818 -500.859)"><circle cx="21.513" cy="460.337" r="2.072" fill="none" stroke="#152a4c" stroke-width="1.349"/><circle cx="21.513" cy="460.337" r="2.072" fill="url(#w)"/><g><radialGradient cx="20.523" cy="458.587" r="4.066" gradientUnits="userSpaceOnUse" fy="458.587" fx="20.523"><stop offset="0" stop-color="#fff"/><stop offset=".685" stop-color="#2E659E"/><stop offset="1" stop-color="#1D3E63"/></radialGradient><path fill="url(#x)" d="M19.44 460.34c0 1.14.93 2.07 2.07 2.07.57 0 1.1-.2 1.48-.6.4-.4.6-.9.6-1.46 0-.56-.2-1.08-.6-1.47-.4-.4-.9-.6-1.47-.6-1.13 0-2.06.92-2.06 2.07zm.15 0c0-1.06.85-1.92 1.9-1.92.53 0 1 .2 1.37.56.36.36.56.84.56 1.36 0 .5-.2 1-.56 1.35-.36.36-.84.56-1.36.56-1.05 0-1.9-.86-1.9-1.92z"/></g></g><path fill="url(#y)" stroke="#888a85" stroke-width="2.612" stroke-dashoffset="1.045" d="M42.8 24.5a17.9 19.64 0 1 1-35.8 0 17.9 19.64 0 1 1 35.8 0z" transform="matrix(.373 .149 -.135 .339 32.858 -2.266)" stroke-linejoin="round" stroke-dasharray="5.22317003000000040, 2.61158502000000010" color="#000" overflow="visible" enable-background="accumulate"/><path fill="url(#z)" d="M31.48.32c.6.57 7.37 6.8 8.13 7.53-.66.58-2.24 2.17-2.85 2.7-.64-.7-7.06-8.62-7.76-9.4L31.47.3z"/><g fill="url(#A)" transform="matrix(1.033 .412 -.412 1.033 220.812 -482.08)" color="#000" overflow="visible"><linearGradient x1="-187.844" x2="-192.831" y1="353.518" y2="342.438" gradientTransform="matrix(.766 -.643 .643 .766 -71.234 80.032)" gradientUnits="userSpaceOnUse"><stop fill="url(#u)" offset="0" stop-color="#88A9C3"/><stop fill="url(#u)" offset="1" stop-color="#fff"/></linearGradient><path fill="url(#B)" d="M0 468.23l10.93 5.9 2.42-5.08-9.8-3.8L0 468.22zm2.67-2.25c.7.3 8.42 3.23 9.3 3.58-.37.72-1.15 2.57-1.5 3.23-.76-.4-8.76-4.88-9.6-5.3l1.8-1.52z" overflow="visible"/></g><g transform="matrix(1.033 .412 -.412 1.033 206.221 -474.752)"><circle cx="21.513" cy="460.337" r="2.072" fill="none" stroke="#152a4c" stroke-width="1.349"/><circle cx="21.513" cy="460.337" r="2.072" fill="url(#C)"/><g><radialGradient cx="20.523" cy="458.587" r="4.066" gradientUnits="userSpaceOnUse" fy="458.587" fx="20.523"><stop offset="0" stop-color="#fff"/><stop offset=".685" stop-color="#2E659E"/><stop offset="1" stop-color="#1D3E63"/></radialGradient><path fill="url(#D)" d="M19.44 460.34c0 1.14.93 2.07 2.07 2.07.57 0 1.1-.2 1.48-.6.4-.4.6-.9.6-1.46 0-.56-.2-1.08-.6-1.47-.4-.4-.9-.6-1.47-.6-1.13 0-2.06.92-2.06 2.07zm.15 0c0-1.06.85-1.92 1.9-1.92.53 0 1 .2 1.37.56.36.36.56.84.56 1.36 0 .5-.2 1-.56 1.35-.36.36-.84.56-1.36.56-1.05 0-1.9-.86-1.9-1.92z"/></g></g><path fill="url(#E)" stroke="#888a85" stroke-width="2.612" stroke-dashoffset="1.045" d="M42.8 24.5a17.9 19.64 0 1 1-35.8 0 17.9 19.64 0 1 1 35.8 0z" transform="matrix(.374 .145 -.132 .341 8.165 20.772)" stroke-linejoin="round" stroke-dasharray="5.22317003000000040, 2.61158502000000010" color="#000" overflow="visible" enable-background="accumulate"/><path fill="url(#F)" d="M6.82 23.37c.6.57 7.44 6.72 8.2 7.44-.65.6-2.2 2.2-2.82 2.76-.65-.7-7.15-8.56-7.87-9.34l2.5-.85z"/><g fill="url(#G)" transform="matrix(1.037 .401 -.401 1.037 190.774 -461.101)" color="#000" overflow="visible"><linearGradient x1="-187.844" x2="-192.831" y1="353.518" y2="342.438" gradientTransform="matrix(.766 -.643 .643 .766 -71.234 80.032)" gradientUnits="userSpaceOnUse"><stop fill="url(#u)" offset="0" stop-color="#88A9C3"/><stop fill="url(#u)" offset="1" stop-color="#fff"/></linearGradient><path fill="url(#H)" d="M0 468.23l10.93 5.9 2.42-5.08-9.8-3.8L0 468.22zm2.67-2.25c.7.3 8.42 3.23 9.3 3.58-.37.72-1.15 2.57-1.5 3.23-.76-.4-8.76-4.88-9.6-5.3l1.8-1.52z" overflow="visible"/></g><g transform="matrix(1.037 .401 -.401 1.037 176.496 -453.381)"><circle cx="21.513" cy="460.337" r="2.072" fill="none" stroke="#152a4c" stroke-width="1.349"/><circle cx="21.513" cy="460.337" r="2.072" fill="url(#I)"/><g><radialGradient cx="20.523" cy="458.587" r="4.066" gradientUnits="userSpaceOnUse" fy="458.587" fx="20.523"><stop offset="0" stop-color="#fff"/><stop offset=".685" stop-color="#2E659E"/><stop offset="1" stop-color="#1D3E63"/></radialGradient><path fill="url(#J)" d="M19.44 460.34c0 1.14.93 2.07 2.07 2.07.57 0 1.1-.2 1.48-.6.4-.4.6-.9.6-1.46 0-.56-.2-1.08-.6-1.47-.4-.4-.9-.6-1.47-.6-1.13 0-2.06.92-2.06 2.07zm.15 0c0-1.06.85-1.92 1.9-1.92.53 0 1 .2 1.37.56.36.36.56.84.56 1.36 0 .5-.2 1-.56 1.35-.36.36-.84.56-1.36.56-1.05 0-1.9-.86-1.9-1.92z"/></g></g><path fill="url(#K)" stroke="#888a85" stroke-width="2.612" stroke-dashoffset="1.045" d="M42.8 24.5a17.9 19.64 0 1 1-35.8 0 17.9 19.64 0 1 1 35.8 0z" transform="matrix(.308 .257 -.234 .281 33.853 25.664)" stroke-linejoin="round" stroke-dasharray="5.22317003000000040, 2.61158502000000010" color="#000" overflow="visible" enable-background="accumulate"/><path fill="url(#L)" d="M31.75 27.7c.4.73 4.9 8.74 5.4 9.67-.83.35-2.82 1.37-3.57 1.7-.4-.88-4.03-10.4-4.47-11.37h2.65z"/><g fill="url(#M)" transform="matrix(.854 .712 -.712 .854 361.171 -372.345)" color="#000" overflow="visible"><linearGradient x1="-187.844" x2="-192.831" y1="353.518" y2="342.438" gradientTransform="matrix(.766 -.643 .643 .766 -71.234 80.032)" gradientUnits="userSpaceOnUse"><stop fill="url(#u)" offset="0" stop-color="#88A9C3"/><stop fill="url(#u)" offset="1" stop-color="#fff"/></linearGradient><path fill="url(#N)" d="M0 468.23l10.93 5.9 2.42-5.08-9.8-3.8L0 468.22zm2.67-2.25c.7.3 8.42 3.23 9.3 3.58-.37.72-1.15 2.57-1.5 3.23-.76-.4-8.76-4.88-9.6-5.3l1.8-1.52z" overflow="visible"/></g><g transform="matrix(.854 .712 -.712 .854 345.175 -369.627)"><circle cx="21.513" cy="460.337" r="2.072" fill="none" stroke="#152a4c" stroke-width="1.349"/><circle cx="21.513" cy="460.337" r="2.072" fill="url(#O)"/><g><radialGradient cx="20.523" cy="458.587" r="4.066" gradientUnits="userSpaceOnUse" fy="458.587" fx="20.523"><stop offset="0" stop-color="#fff"/><stop offset=".685" stop-color="#2E659E"/><stop offset="1" stop-color="#1D3E63"/></radialGradient><path fill="url(#P)" d="M19.44 460.34c0 1.14.93 2.07 2.07 2.07.57 0 1.1-.2 1.48-.6.4-.4.6-.9.6-1.46 0-.56-.2-1.08-.6-1.47-.4-.4-.9-.6-1.47-.6-1.13 0-2.06.92-2.06 2.07zm.15 0c0-1.06.85-1.92 1.9-1.92.53 0 1 .2 1.37.56.36.36.56.84.56 1.36 0 .5-.2 1-.56 1.35-.36.36-.84.56-1.36.56-1.05 0-1.9-.86-1.9-1.92z"/></g></g><path fill="url(#Q)" stroke="#888a85" stroke-width="2.612" stroke-dashoffset="1.045" d="M42.8 24.5a17.9 19.64 0 1 1-35.8 0 17.9 19.64 0 1 1 35.8 0z" transform="matrix(.374 .145 -.132 .341 20.665 8.201)" stroke-linejoin="round" stroke-dasharray="5.22317003000000040, 2.61158502000000010" color="#000" overflow="visible" enable-background="accumulate"/><path fill="url(#R)" d="M19.32 10.8c.6.57 7.44 6.7 8.2 7.44-.65.6-2.2 2.2-2.82 2.75-.65-.72-7.15-8.57-7.87-9.35l2.5-.85z"/><g fill="url(#S)" transform="matrix(1.037 .401 -.401 1.037 203.274 -473.673)" color="#000" overflow="visible"><linearGradient x1="-187.844" x2="-192.831" y1="353.518" y2="342.438" gradientUnits="userSpaceOnUse" gradientTransform="matrix(.766 -.643 .643 .766 -71.234 80.032)"><stop fill="url(#u)" offset="0" stop-color="#88A9C3"/><stop fill="url(#u)" offset="1" stop-color="#fff"/></linearGradient><path fill="url(#T)" d="M0 468.23l10.93 5.9 2.42-5.08-9.8-3.8L0 468.22zm2.67-2.25c.7.3 8.42 3.23 9.3 3.58-.37.72-1.15 2.57-1.5 3.23-.76-.4-8.76-4.88-9.6-5.3l1.8-1.52z" overflow="visible"/></g><g transform="matrix(1.037 .401 -.401 1.037 188.996 -465.953)"><circle cx="21.513" cy="460.337" r="2.072" fill="none" stroke="#152a4c" stroke-width="1.349"/><circle cx="21.513" cy="460.337" r="2.072" fill="url(#U)"/><g><radialGradient cx="20.523" cy="458.587" r="4.066" fx="20.523" fy="458.587" gradientUnits="userSpaceOnUse"><stop offset="0" stop-color="#fff"/><stop offset=".685" stop-color="#2E659E"/><stop offset="1" stop-color="#1D3E63"/></radialGradient><path fill="url(#V)" d="M19.44 460.34c0 1.14.93 2.07 2.07 2.07.57 0 1.1-.2 1.48-.6.4-.4.6-.9.6-1.46 0-.56-.2-1.08-.6-1.47-.4-.4-.9-.6-1.47-.6-1.13 0-2.06.92-2.06 2.07zm.15 0c0-1.06.85-1.92 1.9-1.92.53 0 1 .2 1.37.56.36.36.56.84.56 1.36 0 .5-.2 1-.56 1.35-.36.36-.84.56-1.36.56-1.05 0-1.9-.86-1.9-1.92z"/></g></g></g></svg>