<svg xmlns="http://www.w3.org/2000/svg" width="48" height="48" xmlns:xlink="http://www.w3.org/1999/xlink"><defs><linearGradient id="a"><stop offset="0" stop-color="#fff"/><stop offset="1" stop-color="#729fcf"/></linearGradient><linearGradient><stop offset="0" stop-color="#ffde57"/><stop offset="1" stop-color="#f60"/></linearGradient><radialGradient cx="24.893" cy="24.5" r="18.623" xlink:href="#a" fx="24.893" fy="24.5" gradientTransform="matrix(1 0 0 1.094 0 -2.302)" gradientUnits="userSpaceOnUse"/><linearGradient id="b"><stop offset="0" stop-color="#fff"/><stop offset="1" stop-color="#bcbcbc"/></linearGradient><radialGradient id="e" cx="24.893" cy="24.5" r="18.623" fy="24.5" fx="24.893" gradientTransform="matrix(1 0 0 1.094 0 -2.302)" gradientUnits="userSpaceOnUse" xlink:href="#b"/><radialGradient id="c" cx="34.328" cy="459.265" r="2.869" gradientUnits="userSpaceOnUse" gradientTransform="matrix(-1 0 0 1 55.359 0)" fy="459.265" fx="34.328"><stop offset="0" stop-color="#fff"/><stop offset=".004" stop-color="#FDFDFE"/><stop offset=".107" stop-color="#C7D5E5"/><stop offset=".212" stop-color="#98B3CF"/><stop offset=".315" stop-color="#7297BD"/><stop offset=".417" stop-color="#5481B0"/><stop offset=".517" stop-color="#3F72A6"/><stop offset=".615" stop-color="#3268A0"/><stop offset=".708" stop-color="#2E659E"/><stop offset="1" stop-color="#193766"/></radialGradient><radialGradient id="d" cx="20.523" cy="458.587" r="4.066" gradientUnits="userSpaceOnUse" fy="458.587" fx="20.523"><stop offset="0" stop-color="#fff"/><stop offset=".685" stop-color="#2E659E"/><stop offset="1" stop-color="#1D3E63"/></radialGradient><radialGradient id="f" cx="34.328" cy="459.265" r="2.869" xlink:href="#c" gradientUnits="userSpaceOnUse" gradientTransform="matrix(-1 0 0 1 55.359 0)" fx="34.328" fy="459.265"/><radialGradient id="g" cx="20.523" cy="458.587" r="4.066" xlink:href="#d" gradientUnits="userSpaceOnUse" fx="20.523" fy="458.587"/><radialGradient id="h" cx="34.328" cy="459.265" r="2.869" xlink:href="#c" gradientUnits="userSpaceOnUse" gradientTransform="matrix(-1 0 0 1 55.359 0)" fx="34.328" fy="459.265"/><radialGradient id="i" cx="20.523" cy="458.587" r="4.066" xlink:href="#d" gradientUnits="userSpaceOnUse" fx="20.523" fy="458.587"/><radialGradient id="j" cx="34.328" cy="459.265" r="2.869" xlink:href="#c" gradientUnits="userSpaceOnUse" gradientTransform="matrix(-1 0 0 1 55.359 0)" fx="34.328" fy="459.265"/><radialGradient id="k" cx="20.523" cy="458.587" r="4.066" xlink:href="#d" gradientUnits="userSpaceOnUse" fx="20.523" fy="458.587"/><radialGradient id="l" cx="34.328" cy="459.265" r="2.869" xlink:href="#c" gradientUnits="userSpaceOnUse" gradientTransform="matrix(-1 0 0 1 55.359 0)" fx="34.328" fy="459.265"/><radialGradient id="m" cx="20.523" cy="458.587" r="4.066" xlink:href="#d" gradientUnits="userSpaceOnUse" fx="20.523" fy="458.587"/><radialGradient id="n" cx="34.328" cy="459.265" r="2.869" xlink:href="#c" gradientUnits="userSpaceOnUse" gradientTransform="matrix(-1 0 0 1 55.359 0)" fx="34.328" fy="459.265"/><radialGradient id="o" cx="20.523" cy="458.587" r="4.066" xlink:href="#d" gradientUnits="userSpaceOnUse" fx="20.523" fy="458.587"/><radialGradient id="p" cx="34.328" cy="459.265" r="2.869" xlink:href="#c" gradientUnits="userSpaceOnUse" gradientTransform="matrix(-1 0 0 1 55.359 0)" fx="34.328" fy="459.265"/><radialGradient id="q" cx="20.523" cy="458.587" r="4.066" xlink:href="#d" gradientUnits="userSpaceOnUse" fx="20.523" fy="458.587"/><radialGradient id="r" cx="34.328" cy="459.265" r="2.869" xlink:href="#c" gradientUnits="userSpaceOnUse" gradientTransform="matrix(-1 0 0 1 55.359 0)" fx="34.328" fy="459.265"/><radialGradient id="s" cx="20.523" cy="458.587" r="4.066" xlink:href="#d" gradientUnits="userSpaceOnUse" fx="20.523" fy="458.587"/><radialGradient id="t" cx="34.328" cy="459.265" r="2.869" xlink:href="#c" gradientUnits="userSpaceOnUse" gradientTransform="matrix(-1 0 0 1 55.359 0)" fx="34.328" fy="459.265"/><radialGradient id="u" cx="20.523" cy="458.587" r="4.066" xlink:href="#d" gradientUnits="userSpaceOnUse" fx="20.523" fy="458.587"/><radialGradient id="v" cx="34.328" cy="459.265" r="2.869" xlink:href="#c" gradientUnits="userSpaceOnUse" gradientTransform="matrix(-1 0 0 1 55.359 0)" fx="34.328" fy="459.265"/><radialGradient id="w" cx="20.523" cy="458.587" r="4.066" xlink:href="#d" gradientUnits="userSpaceOnUse" fx="20.523" fy="458.587"/><radialGradient id="x" cx="34.328" cy="459.265" r="2.869" xlink:href="#c" gradientUnits="userSpaceOnUse" gradientTransform="matrix(-1 0 0 1 55.359 0)" fx="34.328" fy="459.265"/><radialGradient id="y" cx="20.523" cy="458.587" r="4.066" xlink:href="#d" gradientUnits="userSpaceOnUse" fx="20.523" fy="458.587"/><radialGradient id="z" cx="34.328" cy="459.265" r="2.869" xlink:href="#c" gradientUnits="userSpaceOnUse" gradientTransform="matrix(-1 0 0 1 55.359 0)" fx="34.328" fy="459.265"/><radialGradient id="A" cx="20.523" cy="458.587" r="4.066" xlink:href="#d" gradientUnits="userSpaceOnUse" fx="20.523" fy="458.587"/><radialGradient id="D" cx="34.328" cy="459.265" r="2.869" xlink:href="#c" gradientUnits="userSpaceOnUse" gradientTransform="matrix(-1 0 0 1 55.359 0)" fx="34.328" fy="459.265"/><radialGradient id="E" cx="20.523" cy="458.587" r="4.066" xlink:href="#d" gradientUnits="userSpaceOnUse" fx="20.523" fy="458.587"/><radialGradient id="B" cx="34.328" cy="459.265" r="2.869" xlink:href="#c" gradientUnits="userSpaceOnUse" gradientTransform="matrix(-1 0 0 1 55.359 0)" fx="34.328" fy="459.265"/><radialGradient id="C" cx="20.523" cy="458.587" r="4.066" xlink:href="#d" gradientUnits="userSpaceOnUse" fx="20.523" fy="458.587"/><radialGradient id="F" cx="34.328" cy="459.265" r="2.869" xlink:href="#c" gradientUnits="userSpaceOnUse" gradientTransform="matrix(-1 0 0 1 55.359 0)" fx="34.328" fy="459.265"/><radialGradient id="G" cx="20.523" cy="458.587" r="4.066" xlink:href="#d" gradientUnits="userSpaceOnUse" fx="20.523" fy="458.587"/><radialGradient id="H" cx="34.328" cy="459.265" r="2.869" xlink:href="#c" gradientUnits="userSpaceOnUse" gradientTransform="matrix(-1 0 0 1 55.359 0)" fx="34.328" fy="459.265"/><radialGradient id="I" cx="20.523" cy="458.587" r="4.066" xlink:href="#d" gradientUnits="userSpaceOnUse" fx="20.523" fy="458.587"/><radialGradient id="J" cx="34.328" cy="459.265" r="2.869" xlink:href="#c" gradientUnits="userSpaceOnUse" gradientTransform="matrix(-1 0 0 1 55.359 0)" fx="34.328" fy="459.265"/><radialGradient id="K" cx="20.523" cy="458.587" r="4.066" xlink:href="#d" gradientUnits="userSpaceOnUse" fx="20.523" fy="458.587"/><radialGradient id="L" cx="34.328" cy="459.265" r="2.869" xlink:href="#c" gradientUnits="userSpaceOnUse" gradientTransform="matrix(-1 0 0 1 55.359 0)" fx="34.328" fy="459.265"/><radialGradient id="M" cx="20.523" cy="458.587" r="4.066" xlink:href="#d" gradientUnits="userSpaceOnUse" fx="20.523" fy="458.587"/><radialGradient id="N" cx="34.328" cy="459.265" r="2.869" xlink:href="#c" gradientUnits="userSpaceOnUse" gradientTransform="matrix(-1 0 0 1 55.359 0)" fx="34.328" fy="459.265"/><radialGradient id="O" cx="20.523" cy="458.587" r="4.066" xlink:href="#d" gradientUnits="userSpaceOnUse" fx="20.523" fy="458.587"/><radialGradient id="P" cx="34.328" cy="459.265" r="2.869" xlink:href="#c" gradientUnits="userSpaceOnUse" gradientTransform="matrix(-1 0 0 1 55.359 0)" fx="34.328" fy="459.265"/><radialGradient id="Q" cx="20.523" cy="458.587" r="4.066" xlink:href="#d" gradientUnits="userSpaceOnUse" fx="20.523" fy="458.587"/><radialGradient id="R" cx="34.328" cy="459.265" r="2.869" xlink:href="#c" gradientUnits="userSpaceOnUse" gradientTransform="matrix(-1 0 0 1 55.359 0)" fx="34.328" fy="459.265"/><radialGradient id="S" cx="20.523" cy="458.587" r="4.066" xlink:href="#d" gradientUnits="userSpaceOnUse" fx="20.523" fy="458.587"/><radialGradient id="T" cx="34.328" cy="459.265" r="2.869" xlink:href="#c" gradientUnits="userSpaceOnUse" gradientTransform="matrix(-1 0 0 1 55.359 0)" fx="34.328" fy="459.265"/><radialGradient id="U" cx="20.523" cy="458.587" r="4.066" xlink:href="#d" gradientUnits="userSpaceOnUse" fx="20.523" fy="458.587"/><radialGradient id="V" cx="34.328" cy="459.265" r="2.869" xlink:href="#c" gradientUnits="userSpaceOnUse" gradientTransform="matrix(-1 0 0 1 55.359 0)" fx="34.328" fy="459.265"/><radialGradient id="W" cx="20.523" cy="458.587" r="4.066" xlink:href="#d" gradientUnits="userSpaceOnUse" fx="20.523" fy="458.587"/><radialGradient id="X" cx="34.328" cy="459.265" r="2.869" xlink:href="#c" gradientUnits="userSpaceOnUse" gradientTransform="matrix(-1 0 0 1 55.359 0)" fx="34.328" fy="459.265"/><radialGradient id="Y" cx="20.523" cy="458.587" r="4.066" xlink:href="#d" gradientUnits="userSpaceOnUse" fx="20.523" fy="458.587"/><radialGradient id="Z" cx="34.328" cy="459.265" r="2.869" xlink:href="#c" gradientUnits="userSpaceOnUse" gradientTransform="matrix(-1 0 0 1 55.359 0)" fx="34.328" fy="459.265"/><radialGradient id="aa" cx="20.523" cy="458.587" r="4.066" xlink:href="#d" gradientUnits="userSpaceOnUse" fx="20.523" fy="458.587"/><radialGradient id="ah" cx="34.328" cy="459.265" r="2.869" xlink:href="#c" gradientUnits="userSpaceOnUse" gradientTransform="matrix(-1 0 0 1 55.359 0)" fx="34.328" fy="459.265"/><radialGradient id="ai" cx="20.523" cy="458.587" r="4.066" xlink:href="#d" gradientUnits="userSpaceOnUse" fx="20.523" fy="458.587"/><radialGradient id="af" cx="34.328" cy="459.265" r="2.869" xlink:href="#c" gradientUnits="userSpaceOnUse" gradientTransform="matrix(-1 0 0 1 55.359 0)" fx="34.328" fy="459.265"/><radialGradient id="ag" cx="20.523" cy="458.587" r="4.066" xlink:href="#d" gradientUnits="userSpaceOnUse" fx="20.523" fy="458.587"/><radialGradient id="ad" cx="34.328" cy="459.265" r="2.869" xlink:href="#c" gradientUnits="userSpaceOnUse" gradientTransform="matrix(-1 0 0 1 55.359 0)" fx="34.328" fy="459.265"/><radialGradient id="ae" cx="20.523" cy="458.587" r="4.066" xlink:href="#d" gradientUnits="userSpaceOnUse" fx="20.523" fy="458.587"/><radialGradient id="ab" cx="34.328" cy="459.265" r="2.869" xlink:href="#c" gradientUnits="userSpaceOnUse" gradientTransform="matrix(-1 0 0 1 55.359 0)" fx="34.328" fy="459.265"/><radialGradient id="ac" cx="20.523" cy="458.587" r="4.066" xlink:href="#d" gradientUnits="userSpaceOnUse" fx="20.523" fy="458.587"/><radialGradient id="aj" cx="34.328" cy="459.265" r="2.869" xlink:href="#c" gradientUnits="userSpaceOnUse" gradientTransform="matrix(-1 0 0 1 55.359 0)" fx="34.328" fy="459.265"/><radialGradient id="ak" cx="20.523" cy="458.587" r="4.066" xlink:href="#d" gradientUnits="userSpaceOnUse" fx="20.523" fy="458.587"/><radialGradient id="al" cx="34.328" cy="459.265" r="2.869" xlink:href="#c" gradientUnits="userSpaceOnUse" gradientTransform="matrix(-1 0 0 1 55.359 0)" fx="34.328" fy="459.265"/><radialGradient id="am" cx="20.523" cy="458.587" r="4.066" xlink:href="#d" gradientUnits="userSpaceOnUse" fx="20.523" fy="458.587"/><radialGradient id="an" cx="34.328" cy="459.265" r="2.869" xlink:href="#c" gradientUnits="userSpaceOnUse" gradientTransform="matrix(-1 0 0 1 55.359 0)" fx="34.328" fy="459.265"/><radialGradient id="ao" cx="20.523" cy="458.587" r="4.066" xlink:href="#d" gradientUnits="userSpaceOnUse" fx="20.523" fy="458.587"/><radialGradient id="ap" cx="34.328" cy="459.265" r="2.869" xlink:href="#c" gradientUnits="userSpaceOnUse" gradientTransform="matrix(-1 0 0 1 55.359 0)" fx="34.328" fy="459.265"/><radialGradient id="aq" cx="20.523" cy="458.587" r="4.066" xlink:href="#d" gradientUnits="userSpaceOnUse" fx="20.523" fy="458.587"/><radialGradient id="ar" cx="34.328" cy="459.265" r="2.869" xlink:href="#c" gradientUnits="userSpaceOnUse" gradientTransform="matrix(-1 0 0 1 55.359 0)" fx="34.328" fy="459.265"/><radialGradient id="as" cx="20.523" cy="458.587" r="4.066" xlink:href="#d" gradientUnits="userSpaceOnUse" fx="20.523" fy="458.587"/><radialGradient id="at" cx="34.328" cy="459.265" r="2.869" xlink:href="#c" gradientUnits="userSpaceOnUse" gradientTransform="matrix(-1 0 0 1 55.359 0)" fx="34.328" fy="459.265"/><radialGradient id="au" cx="20.523" cy="458.587" r="4.066" xlink:href="#d" gradientUnits="userSpaceOnUse" fx="20.523" fy="458.587"/><radialGradient id="av" cx="34.328" cy="459.265" r="2.869" xlink:href="#c" gradientUnits="userSpaceOnUse" gradientTransform="matrix(-1 0 0 1 55.359 0)" fx="34.328" fy="459.265"/><radialGradient id="aw" cx="20.523" cy="458.587" r="4.066" xlink:href="#d" gradientUnits="userSpaceOnUse" fx="20.523" fy="458.587"/><radialGradient id="ax" cx="34.328" cy="459.265" r="2.869" xlink:href="#c" gradientUnits="userSpaceOnUse" gradientTransform="matrix(-1 0 0 1 55.359 0)" fx="34.328" fy="459.265"/><radialGradient id="ay" cx="20.523" cy="458.587" r="4.066" xlink:href="#d" gradientUnits="userSpaceOnUse" fx="20.523" fy="458.587"/><radialGradient id="az" cx="34.328" cy="459.265" r="2.869" xlink:href="#c" gradientUnits="userSpaceOnUse" gradientTransform="matrix(-1 0 0 1 55.359 0)" fx="34.328" fy="459.265"/><radialGradient id="aA" cx="20.523" cy="458.587" r="4.066" xlink:href="#d" gradientUnits="userSpaceOnUse" fx="20.523" fy="458.587"/></defs><g><path fill="url(#e)" stroke="#888a85" stroke-width=".833" stroke-dashoffset=".333" d="M42.8 24.5a17.9 19.64 0 1 1-35.8 0 17.9 19.64 0 1 1 35.8 0z" transform="matrix(1.168 .466 -.425 1.064 6.225 -12.933)" stroke-linejoin="round" stroke-dasharray="1.66678034, 0.83339017" color="#000" overflow="visible" enable-background="accumulate"/><g transform="matrix(1.234 -.287 .287 1.234 -154.603 -538.375)"><circle cx="21.513" cy="460.337" r="2.072" fill="none" stroke="#152a4c" stroke-width="1.184"/><circle cx="21.513" cy="460.337" r="2.072" fill="url(#f)"/><g><radialGradient cx="20.523" cy="458.587" r="4.066" gradientUnits="userSpaceOnUse" fy="458.587" fx="20.523"><stop offset="0" stop-color="#fff"/><stop offset=".685" stop-color="#2E659E"/><stop offset="1" stop-color="#1D3E63"/></radialGradient><path fill="url(#g)" d="M19.44 460.34c0 1.14.93 2.07 2.07 2.07.57 0 1.1-.2 1.48-.6.4-.4.6-.9.6-1.46 0-.56-.2-1.08-.6-1.47-.4-.4-.9-.6-1.47-.6-1.13 0-2.06.92-2.06 2.07zm.15 0c0-1.06.85-1.92 1.9-1.92.53 0 1 .2 1.37.56.36.36.56.84.56 1.36 0 .5-.2 1-.56 1.35-.36.36-.84.56-1.36.56-1.05 0-1.9-.86-1.9-1.92z"/></g></g><g transform="matrix(1.234 -.287 .287 1.234 -154.766 -542.688)"><circle cx="21.513" cy="460.337" r="2.072" fill="none" stroke="#152a4c" stroke-width="1.184"/><circle cx="21.513" cy="460.337" r="2.072" fill="url(#h)"/><g><radialGradient cx="20.523" cy="458.587" r="4.066" fx="20.523" fy="458.587" gradientUnits="userSpaceOnUse"><stop offset="0" stop-color="#fff"/><stop offset=".685" stop-color="#2E659E"/><stop offset="1" stop-color="#1D3E63"/></radialGradient><path fill="url(#i)" d="M19.44 460.34c0 1.14.93 2.07 2.07 2.07.57 0 1.1-.2 1.48-.6.4-.4.6-.9.6-1.46 0-.56-.2-1.08-.6-1.47-.4-.4-.9-.6-1.47-.6-1.13 0-2.06.92-2.06 2.07zm.15 0c0-1.06.85-1.92 1.9-1.92.53 0 1 .2 1.37.56.36.36.56.84.56 1.36 0 .5-.2 1-.56 1.35-.36.36-.84.56-1.36.56-1.05 0-1.9-.86-1.9-1.92z"/></g></g><g transform="matrix(1.234 -.287 .287 1.234 -155.091 -534.144)"><circle cx="21.513" cy="460.337" r="2.072" fill="none" stroke="#152a4c" stroke-width="1.184"/><circle cx="21.513" cy="460.337" r="2.072" fill="url(#j)"/><g><radialGradient cx="20.523" cy="458.587" r="4.066" gradientUnits="userSpaceOnUse" fy="458.587" fx="20.523"><stop offset="0" stop-color="#fff"/><stop offset=".685" stop-color="#2E659E"/><stop offset="1" stop-color="#1D3E63"/></radialGradient><path fill="url(#k)" d="M19.44 460.34c0 1.14.93 2.07 2.07 2.07.57 0 1.1-.2 1.48-.6.4-.4.6-.9.6-1.46 0-.56-.2-1.08-.6-1.47-.4-.4-.9-.6-1.47-.6-1.13 0-2.06.92-2.06 2.07zm.15 0c0-1.06.85-1.92 1.9-1.92.53 0 1 .2 1.37.56.36.36.56.84.56 1.36 0 .5-.2 1-.56 1.35-.36.36-.84.56-1.36.56-1.05 0-1.9-.86-1.9-1.92z"/></g></g><g transform="matrix(1.234 -.287 .287 1.234 -152.202 -547.734)"><circle cx="21.513" cy="460.337" r="2.072" fill="none" stroke="#152a4c" stroke-width="1.184"/><circle cx="21.513" cy="460.337" r="2.072" fill="url(#l)"/><g><radialGradient cx="20.523" cy="458.587" r="4.066" fx="20.523" fy="458.587" gradientUnits="userSpaceOnUse"><stop offset="0" stop-color="#fff"/><stop offset=".685" stop-color="#2E659E"/><stop offset="1" stop-color="#1D3E63"/></radialGradient><path fill="url(#m)" d="M19.44 460.34c0 1.14.93 2.07 2.07 2.07.57 0 1.1-.2 1.48-.6.4-.4.6-.9.6-1.46 0-.56-.2-1.08-.6-1.47-.4-.4-.9-.6-1.47-.6-1.13 0-2.06.92-2.06 2.07zm.15 0c0-1.06.85-1.92 1.9-1.92.53 0 1 .2 1.37.56.36.36.56.84.56 1.36 0 .5-.2 1-.56 1.35-.36.36-.84.56-1.36.56-1.05 0-1.9-.86-1.9-1.92z"/></g></g><g transform="matrix(1.234 -.287 .287 1.234 -152.08 -540.653)"><circle cx="21.513" cy="460.337" r="2.072" fill="none" stroke="#152a4c" stroke-width="1.184"/><circle cx="21.513" cy="460.337" r="2.072" fill="url(#n)"/><g><radialGradient cx="20.523" cy="458.587" r="4.066" gradientUnits="userSpaceOnUse" fy="458.587" fx="20.523"><stop offset="0" stop-color="#fff"/><stop offset=".685" stop-color="#2E659E"/><stop offset="1" stop-color="#1D3E63"/></radialGradient><path fill="url(#o)" d="M19.44 460.34c0 1.14.93 2.07 2.07 2.07.57 0 1.1-.2 1.48-.6.4-.4.6-.9.6-1.46 0-.56-.2-1.08-.6-1.47-.4-.4-.9-.6-1.47-.6-1.13 0-2.06.92-2.06 2.07zm.15 0c0-1.06.85-1.92 1.9-1.92.53 0 1 .2 1.37.56.36.36.56.84.56 1.36 0 .5-.2 1-.56 1.35-.36.36-.84.56-1.36.56-1.05 0-1.9-.86-1.9-1.92z"/></g></g><g transform="matrix(1.234 -.287 .287 1.234 -151.918 -534.388)"><circle cx="21.513" cy="460.337" r="2.072" fill="none" stroke="#152a4c" stroke-width="1.184"/><circle cx="21.513" cy="460.337" r="2.072" fill="url(#p)"/><g><radialGradient cx="20.523" cy="458.587" r="4.066" fx="20.523" fy="458.587" gradientUnits="userSpaceOnUse"><stop offset="0" stop-color="#fff"/><stop offset=".685" stop-color="#2E659E"/><stop offset="1" stop-color="#1D3E63"/></radialGradient><path fill="url(#q)" d="M19.44 460.34c0 1.14.93 2.07 2.07 2.07.57 0 1.1-.2 1.48-.6.4-.4.6-.9.6-1.46 0-.56-.2-1.08-.6-1.47-.4-.4-.9-.6-1.47-.6-1.13 0-2.06.92-2.06 2.07zm.15 0c0-1.06.85-1.92 1.9-1.92.53 0 1 .2 1.37.56.36.36.56.84.56 1.36 0 .5-.2 1-.56 1.35-.36.36-.84.56-1.36.56-1.05 0-1.9-.86-1.9-1.92z"/></g></g><g transform="matrix(1.234 -.287 .287 1.234 -152.325 -529.017)"><circle cx="21.513" cy="460.337" r="2.072" fill="none" stroke="#152a4c" stroke-width="1.184"/><circle cx="21.513" cy="460.337" r="2.072" fill="url(#r)"/><g><radialGradient cx="20.523" cy="458.587" r="4.066" gradientUnits="userSpaceOnUse" fy="458.587" fx="20.523"><stop offset="0" stop-color="#fff"/><stop offset=".685" stop-color="#2E659E"/><stop offset="1" stop-color="#1D3E63"/></radialGradient><path fill="url(#s)" d="M19.44 460.34c0 1.14.93 2.07 2.07 2.07.57 0 1.1-.2 1.48-.6.4-.4.6-.9.6-1.46 0-.56-.2-1.08-.6-1.47-.4-.4-.9-.6-1.47-.6-1.13 0-2.06.92-2.06 2.07zm.15 0c0-1.06.85-1.92 1.9-1.92.53 0 1 .2 1.37.56.36.36.56.84.56 1.36 0 .5-.2 1-.56 1.35-.36.36-.84.56-1.36.56-1.05 0-1.9-.86-1.9-1.92z"/></g></g><g transform="matrix(1.234 -.287 .287 1.234 -148.5 -552.208)"><circle cx="21.513" cy="460.337" r="2.072" fill="none" stroke="#152a4c" stroke-width="1.184"/><circle cx="21.513" cy="460.337" r="2.072" fill="url(#t)"/><g><radialGradient cx="20.523" cy="458.587" r="4.066" fx="20.523" fy="458.587" gradientUnits="userSpaceOnUse"><stop offset="0" stop-color="#fff"/><stop offset=".685" stop-color="#2E659E"/><stop offset="1" stop-color="#1D3E63"/></radialGradient><path fill="url(#u)" d="M19.44 460.34c0 1.14.93 2.07 2.07 2.07.57 0 1.1-.2 1.48-.6.4-.4.6-.9.6-1.46 0-.56-.2-1.08-.6-1.47-.4-.4-.9-.6-1.47-.6-1.13 0-2.06.92-2.06 2.07zm.15 0c0-1.06.85-1.92 1.9-1.92.53 0 1 .2 1.37.56.36.36.56.84.56 1.36 0 .5-.2 1-.56 1.35-.36.36-.84.56-1.36.56-1.05 0-1.9-.86-1.9-1.92z"/></g></g><g transform="matrix(1.234 -.287 .287 1.234 -149.477 -546.187)"><circle cx="21.513" cy="460.337" r="2.072" fill="none" stroke="#152a4c" stroke-width="1.184"/><circle cx="21.513" cy="460.337" r="2.072" fill="url(#v)"/><g><radialGradient cx="20.523" cy="458.587" r="4.066" gradientUnits="userSpaceOnUse" fy="458.587" fx="20.523"><stop offset="0" stop-color="#fff"/><stop offset=".685" stop-color="#2E659E"/><stop offset="1" stop-color="#1D3E63"/></radialGradient><path fill="url(#w)" d="M19.44 460.34c0 1.14.93 2.07 2.07 2.07.57 0 1.1-.2 1.48-.6.4-.4.6-.9.6-1.46 0-.56-.2-1.08-.6-1.47-.4-.4-.9-.6-1.47-.6-1.13 0-2.06.92-2.06 2.07zm.15 0c0-1.06.85-1.92 1.9-1.92.53 0 1 .2 1.37.56.36.36.56.84.56 1.36 0 .5-.2 1-.56 1.35-.36.36-.84.56-1.36.56-1.05 0-1.9-.86-1.9-1.92z"/></g></g><g transform="matrix(1.234 -.287 .287 1.234 -148.826 -541.142)"><circle cx="21.513" cy="460.337" r="2.072" fill="none" stroke="#152a4c" stroke-width="1.184"/><circle cx="21.513" cy="460.337" r="2.072" fill="url(#x)"/><g><radialGradient cx="20.523" cy="458.587" r="4.066" fx="20.523" fy="458.587" gradientUnits="userSpaceOnUse"><stop offset="0" stop-color="#fff"/><stop offset=".685" stop-color="#2E659E"/><stop offset="1" stop-color="#1D3E63"/></radialGradient><path fill="url(#y)" d="M19.44 460.34c0 1.14.93 2.07 2.07 2.07.57 0 1.1-.2 1.48-.6.4-.4.6-.9.6-1.46 0-.56-.2-1.08-.6-1.47-.4-.4-.9-.6-1.47-.6-1.13 0-2.06.92-2.06 2.07zm.15 0c0-1.06.85-1.92 1.9-1.92.53 0 1 .2 1.37.56.36.36.56.84.56 1.36 0 .5-.2 1-.56 1.35-.36.36-.84.56-1.36.56-1.05 0-1.9-.86-1.9-1.92z"/></g></g><g transform="matrix(1.234 -.287 .287 1.234 -148.337 -534.957)"><circle cx="21.513" cy="460.337" r="2.072" fill="none" stroke="#152a4c" stroke-width="1.184"/><circle cx="21.513" cy="460.337" r="2.072" fill="url(#z)"/><g><radialGradient cx="20.523" cy="458.587" r="4.066" gradientUnits="userSpaceOnUse" fy="458.587" fx="20.523"><stop offset="0" stop-color="#fff"/><stop offset=".685" stop-color="#2E659E"/><stop offset="1" stop-color="#1D3E63"/></radialGradient><path fill="url(#A)" d="M19.44 460.34c0 1.14.93 2.07 2.07 2.07.57 0 1.1-.2 1.48-.6.4-.4.6-.9.6-1.46 0-.56-.2-1.08-.6-1.47-.4-.4-.9-.6-1.47-.6-1.13 0-2.06.92-2.06 2.07zm.15 0c0-1.06.85-1.92 1.9-1.92.53 0 1 .2 1.37.56.36.36.56.84.56 1.36 0 .5-.2 1-.56 1.35-.36.36-.84.56-1.36.56-1.05 0-1.9-.86-1.9-1.92z"/></g></g><g transform="matrix(1.234 -.287 .287 1.234 -149.883 -523.809)"><circle cx="21.513" cy="460.337" r="2.072" fill="none" stroke="#152a4c" stroke-width="1.184"/><circle cx="21.513" cy="460.337" r="2.072" fill="url(#B)"/><g><radialGradient cx="20.523" cy="458.587" r="4.066" gradientUnits="userSpaceOnUse" fy="458.587" fx="20.523"><stop offset="0" stop-color="#fff"/><stop offset=".685" stop-color="#2E659E"/><stop offset="1" stop-color="#1D3E63"/></radialGradient><path fill="url(#C)" d="M19.44 460.34c0 1.14.93 2.07 2.07 2.07.57 0 1.1-.2 1.48-.6.4-.4.6-.9.6-1.46 0-.56-.2-1.08-.6-1.47-.4-.4-.9-.6-1.47-.6-1.13 0-2.06.92-2.06 2.07zm.15 0c0-1.06.85-1.92 1.9-1.92.53 0 1 .2 1.37.56.36.36.56.84.56 1.36 0 .5-.2 1-.56 1.35-.36.36-.84.56-1.36.56-1.05 0-1.9-.86-1.9-1.92z"/></g></g><g transform="matrix(1.234 -.287 .287 1.234 -148.093 -528.936)"><circle cx="21.513" cy="460.337" r="2.072" fill="none" stroke="#152a4c" stroke-width="1.184"/><circle cx="21.513" cy="460.337" r="2.072" fill="url(#D)"/><g><radialGradient cx="20.523" cy="458.587" r="4.066" fx="20.523" fy="458.587" gradientUnits="userSpaceOnUse"><stop offset="0" stop-color="#fff"/><stop offset=".685" stop-color="#2E659E"/><stop offset="1" stop-color="#1D3E63"/></radialGradient><path fill="url(#E)" d="M19.44 460.34c0 1.14.93 2.07 2.07 2.07.57 0 1.1-.2 1.48-.6.4-.4.6-.9.6-1.46 0-.56-.2-1.08-.6-1.47-.4-.4-.9-.6-1.47-.6-1.13 0-2.06.92-2.06 2.07zm.15 0c0-1.06.85-1.92 1.9-1.92.53 0 1 .2 1.37.56.36.36.56.84.56 1.36 0 .5-.2 1-.56 1.35-.36.36-.84.56-1.36.56-1.05 0-1.9-.86-1.9-1.92z"/></g></g><g transform="matrix(1.234 -.287 .287 1.234 -144.513 -554.975)"><circle cx="21.513" cy="460.337" r="2.072" fill="none" stroke="#152a4c" stroke-width="1.184"/><circle cx="21.513" cy="460.337" r="2.072" fill="url(#F)"/><g><radialGradient cx="20.523" cy="458.587" r="4.066" gradientUnits="userSpaceOnUse" fy="458.587" fx="20.523"><stop offset="0" stop-color="#fff"/><stop offset=".685" stop-color="#2E659E"/><stop offset="1" stop-color="#1D3E63"/></radialGradient><path fill="url(#G)" d="M19.44 460.34c0 1.14.93 2.07 2.07 2.07.57 0 1.1-.2 1.48-.6.4-.4.6-.9.6-1.46 0-.56-.2-1.08-.6-1.47-.4-.4-.9-.6-1.47-.6-1.13 0-2.06.92-2.06 2.07zm.15 0c0-1.06.85-1.92 1.9-1.92.53 0 1 .2 1.37.56.36.36.56.84.56 1.36 0 .5-.2 1-.56 1.35-.36.36-.84.56-1.36.56-1.05 0-1.9-.86-1.9-1.92z"/></g></g><g transform="matrix(1.234 -.287 .287 1.234 -145.408 -548.953)"><circle cx="21.513" cy="460.337" r="2.072" fill="none" stroke="#152a4c" stroke-width="1.184"/><circle cx="21.513" cy="460.337" r="2.072" fill="url(#H)"/><g><radialGradient cx="20.523" cy="458.587" r="4.066" fx="20.523" fy="458.587" gradientUnits="userSpaceOnUse"><stop offset="0" stop-color="#fff"/><stop offset=".685" stop-color="#2E659E"/><stop offset="1" stop-color="#1D3E63"/></radialGradient><path fill="url(#I)" d="M19.44 460.34c0 1.14.93 2.07 2.07 2.07.57 0 1.1-.2 1.48-.6.4-.4.6-.9.6-1.46 0-.56-.2-1.08-.6-1.47-.4-.4-.9-.6-1.47-.6-1.13 0-2.06.92-2.06 2.07zm.15 0c0-1.06.85-1.92 1.9-1.92.53 0 1 .2 1.37.56.36.36.56.84.56 1.36 0 .5-.2 1-.56 1.35-.36.36-.84.56-1.36.56-1.05 0-1.9-.86-1.9-1.92z"/></g></g><g transform="matrix(1.234 -.287 .287 1.234 -145.245 -542.932)"><circle cx="21.513" cy="460.337" r="2.072" fill="none" stroke="#152a4c" stroke-width="1.184"/><circle cx="21.513" cy="460.337" r="2.072" fill="url(#J)"/><g><radialGradient cx="20.523" cy="458.587" r="4.066" gradientUnits="userSpaceOnUse" fy="458.587" fx="20.523"><stop offset="0" stop-color="#fff"/><stop offset=".685" stop-color="#2E659E"/><stop offset="1" stop-color="#1D3E63"/></radialGradient><path fill="url(#K)" d="M19.44 460.34c0 1.14.93 2.07 2.07 2.07.57 0 1.1-.2 1.48-.6.4-.4.6-.9.6-1.46 0-.56-.2-1.08-.6-1.47-.4-.4-.9-.6-1.47-.6-1.13 0-2.06.92-2.06 2.07zm.15 0c0-1.06.85-1.92 1.9-1.92.53 0 1 .2 1.37.56.36.36.56.84.56 1.36 0 .5-.2 1-.56 1.35-.36.36-.84.56-1.36.56-1.05 0-1.9-.86-1.9-1.92z"/></g></g><g transform="matrix(1.234 -.287 .287 1.234 -144.676 -537.968)"><circle cx="21.513" cy="460.337" r="2.072" fill="none" stroke="#152a4c" stroke-width="1.184"/><circle cx="21.513" cy="460.337" r="2.072" fill="url(#L)"/><g><radialGradient cx="20.523" cy="458.587" r="4.066" fx="20.523" fy="458.587" gradientUnits="userSpaceOnUse"><stop offset="0" stop-color="#fff"/><stop offset=".685" stop-color="#2E659E"/><stop offset="1" stop-color="#1D3E63"/></radialGradient><path fill="url(#M)" d="M19.44 460.34c0 1.14.93 2.07 2.07 2.07.57 0 1.1-.2 1.48-.6.4-.4.6-.9.6-1.46 0-.56-.2-1.08-.6-1.47-.4-.4-.9-.6-1.47-.6-1.13 0-2.06.92-2.06 2.07zm.15 0c0-1.06.85-1.92 1.9-1.92.53 0 1 .2 1.37.56.36.36.56.84.56 1.36 0 .5-.2 1-.56 1.35-.36.36-.84.56-1.36.56-1.05 0-1.9-.86-1.9-1.92z"/></g></g><g transform="matrix(1.234 -.287 .287 1.234 -144.432 -532.272)"><circle cx="21.513" cy="460.337" r="2.072" fill="none" stroke="#152a4c" stroke-width="1.184"/><circle cx="21.513" cy="460.337" r="2.072" fill="url(#N)"/><g><radialGradient cx="20.523" cy="458.587" r="4.066" gradientUnits="userSpaceOnUse" fy="458.587" fx="20.523"><stop offset="0" stop-color="#fff"/><stop offset=".685" stop-color="#2E659E"/><stop offset="1" stop-color="#1D3E63"/></radialGradient><path fill="url(#O)" d="M19.44 460.34c0 1.14.93 2.07 2.07 2.07.57 0 1.1-.2 1.48-.6.4-.4.6-.9.6-1.46 0-.56-.2-1.08-.6-1.47-.4-.4-.9-.6-1.47-.6-1.13 0-2.06.92-2.06 2.07zm.15 0c0-1.06.85-1.92 1.9-1.92.53 0 1 .2 1.37.56.36.36.56.84.56 1.36 0 .5-.2 1-.56 1.35-.36.36-.84.56-1.36.56-1.05 0-1.9-.86-1.9-1.92z"/></g></g><g transform="matrix(1.234 -.287 .287 1.234 -144.92 -526.495)"><circle cx="21.513" cy="460.337" r="2.072" fill="none" stroke="#152a4c" stroke-width="1.184"/><circle cx="21.513" cy="460.337" r="2.072" fill="url(#P)"/><g><radialGradient cx="20.523" cy="458.587" r="4.066" fx="20.523" fy="458.587" gradientUnits="userSpaceOnUse"><stop offset="0" stop-color="#fff"/><stop offset=".685" stop-color="#2E659E"/><stop offset="1" stop-color="#1D3E63"/></radialGradient><path fill="url(#Q)" d="M19.44 460.34c0 1.14.93 2.07 2.07 2.07.57 0 1.1-.2 1.48-.6.4-.4.6-.9.6-1.46 0-.56-.2-1.08-.6-1.47-.4-.4-.9-.6-1.47-.6-1.13 0-2.06.92-2.06 2.07zm.15 0c0-1.06.85-1.92 1.9-1.92.53 0 1 .2 1.37.56.36.36.56.84.56 1.36 0 .5-.2 1-.56 1.35-.36.36-.84.56-1.36.56-1.05 0-1.9-.86-1.9-1.92z"/></g></g><g transform="matrix(1.234 -.287 .287 1.234 -145.408 -521.124)"><circle cx="21.513" cy="460.337" r="2.072" fill="none" stroke="#152a4c" stroke-width="1.184"/><circle cx="21.513" cy="460.337" r="2.072" fill="url(#R)"/><g><radialGradient cx="20.523" cy="458.587" r="4.066" gradientUnits="userSpaceOnUse" fy="458.587" fx="20.523"><stop offset="0" stop-color="#fff"/><stop offset=".685" stop-color="#2E659E"/><stop offset="1" stop-color="#1D3E63"/></radialGradient><path fill="url(#S)" d="M19.44 460.34c0 1.14.93 2.07 2.07 2.07.57 0 1.1-.2 1.48-.6.4-.4.6-.9.6-1.46 0-.56-.2-1.08-.6-1.47-.4-.4-.9-.6-1.47-.6-1.13 0-2.06.92-2.06 2.07zm.15 0c0-1.06.85-1.92 1.9-1.92.53 0 1 .2 1.37.56.36.36.56.84.56 1.36 0 .5-.2 1-.56 1.35-.36.36-.84.56-1.36.56-1.05 0-1.9-.86-1.9-1.92z"/></g></g><g transform="matrix(1.234 -.287 .287 1.234 -140.282 -556.277)"><circle cx="21.513" cy="460.337" r="2.072" fill="none" stroke="#152a4c" stroke-width="1.184"/><circle cx="21.513" cy="460.337" r="2.072" fill="url(#T)"/><g><radialGradient cx="20.523" cy="458.587" r="4.066" fx="20.523" fy="458.587" gradientUnits="userSpaceOnUse"><stop offset="0" stop-color="#fff"/><stop offset=".685" stop-color="#2E659E"/><stop offset="1" stop-color="#1D3E63"/></radialGradient><path fill="url(#U)" d="M19.44 460.34c0 1.14.93 2.07 2.07 2.07.57 0 1.1-.2 1.48-.6.4-.4.6-.9.6-1.46 0-.56-.2-1.08-.6-1.47-.4-.4-.9-.6-1.47-.6-1.13 0-2.06.92-2.06 2.07zm.15 0c0-1.06.85-1.92 1.9-1.92.53 0 1 .2 1.37.56.36.36.56.84.56 1.36 0 .5-.2 1-.56 1.35-.36.36-.84.56-1.36.56-1.05 0-1.9-.86-1.9-1.92z"/></g></g><g transform="matrix(1.234 -.287 .287 1.234 -140.933 -550.906)"><circle cx="21.513" cy="460.337" r="2.072" fill="none" stroke="#152a4c" stroke-width="1.184"/><circle cx="21.513" cy="460.337" r="2.072" fill="url(#V)"/><g><radialGradient cx="20.523" cy="458.587" r="4.066" gradientUnits="userSpaceOnUse" fy="458.587" fx="20.523"><stop offset="0" stop-color="#fff"/><stop offset=".685" stop-color="#2E659E"/><stop offset="1" stop-color="#1D3E63"/></radialGradient><path fill="url(#W)" d="M19.44 460.34c0 1.14.93 2.07 2.07 2.07.57 0 1.1-.2 1.48-.6.4-.4.6-.9.6-1.46 0-.56-.2-1.08-.6-1.47-.4-.4-.9-.6-1.47-.6-1.13 0-2.06.92-2.06 2.07zm.15 0c0-1.06.85-1.92 1.9-1.92.53 0 1 .2 1.37.56.36.36.56.84.56 1.36 0 .5-.2 1-.56 1.35-.36.36-.84.56-1.36.56-1.05 0-1.9-.86-1.9-1.92z"/></g></g><g transform="matrix(1.234 -.287 .287 1.234 -140.933 -545.536)"><circle cx="21.513" cy="460.337" r="2.072" fill="none" stroke="#152a4c" stroke-width="1.184"/><circle cx="21.513" cy="460.337" r="2.072" fill="url(#X)"/><g><radialGradient cx="20.523" cy="458.587" r="4.066" fx="20.523" fy="458.587" gradientUnits="userSpaceOnUse"><stop offset="0" stop-color="#fff"/><stop offset=".685" stop-color="#2E659E"/><stop offset="1" stop-color="#1D3E63"/></radialGradient><path fill="url(#Y)" d="M19.44 460.34c0 1.14.93 2.07 2.07 2.07.57 0 1.1-.2 1.48-.6.4-.4.6-.9.6-1.46 0-.56-.2-1.08-.6-1.47-.4-.4-.9-.6-1.47-.6-1.13 0-2.06.92-2.06 2.07zm.15 0c0-1.06.85-1.92 1.9-1.92.53 0 1 .2 1.37.56.36.36.56.84.56 1.36 0 .5-.2 1-.56 1.35-.36.36-.84.56-1.36.56-1.05 0-1.9-.86-1.9-1.92z"/></g></g><g transform="matrix(1.234 -.287 .287 1.234 -140.444 -539.595)"><circle cx="21.513" cy="460.337" r="2.072" fill="none" stroke="#152a4c" stroke-width="1.184"/><circle cx="21.513" cy="460.337" r="2.072" fill="url(#Z)"/><g><radialGradient cx="20.523" cy="458.587" r="4.066" gradientUnits="userSpaceOnUse" fy="458.587" fx="20.523"><stop offset="0" stop-color="#fff"/><stop offset=".685" stop-color="#2E659E"/><stop offset="1" stop-color="#1D3E63"/></radialGradient><path fill="url(#aa)" d="M19.44 460.34c0 1.14.93 2.07 2.07 2.07.57 0 1.1-.2 1.48-.6.4-.4.6-.9.6-1.46 0-.56-.2-1.08-.6-1.47-.4-.4-.9-.6-1.47-.6-1.13 0-2.06.92-2.06 2.07zm.15 0c0-1.06.85-1.92 1.9-1.92.53 0 1 .2 1.37.56.36.36.56.84.56 1.36 0 .5-.2 1-.56 1.35-.36.36-.84.56-1.36.56-1.05 0-1.9-.86-1.9-1.92z"/></g></g><g transform="matrix(1.234 -.287 .287 1.234 -141.095 -518.52)"><circle cx="21.513" cy="460.337" r="2.072" fill="none" stroke="#152a4c" stroke-width="1.184"/><circle cx="21.513" cy="460.337" r="2.072" fill="url(#ab)"/><g><radialGradient cx="20.523" cy="458.587" r="4.066" gradientUnits="userSpaceOnUse" fy="458.587" fx="20.523"><stop offset="0" stop-color="#fff"/><stop offset=".685" stop-color="#2E659E"/><stop offset="1" stop-color="#1D3E63"/></radialGradient><path fill="url(#ac)" d="M19.44 460.34c0 1.14.93 2.07 2.07 2.07.57 0 1.1-.2 1.48-.6.4-.4.6-.9.6-1.46 0-.56-.2-1.08-.6-1.47-.4-.4-.9-.6-1.47-.6-1.13 0-2.06.92-2.06 2.07zm.15 0c0-1.06.85-1.92 1.9-1.92.53 0 1 .2 1.37.56.36.36.56.84.56 1.36 0 .5-.2 1-.56 1.35-.36.36-.84.56-1.36.56-1.05 0-1.9-.86-1.9-1.92z"/></g></g><g transform="matrix(1.234 -.287 .287 1.234 -140.526 -522.833)"><circle cx="21.513" cy="460.337" r="2.072" fill="none" stroke="#152a4c" stroke-width="1.184"/><circle cx="21.513" cy="460.337" r="2.072" fill="url(#ad)"/><g><radialGradient cx="20.523" cy="458.587" r="4.066" fx="20.523" fy="458.587" gradientUnits="userSpaceOnUse"><stop offset="0" stop-color="#fff"/><stop offset=".685" stop-color="#2E659E"/><stop offset="1" stop-color="#1D3E63"/></radialGradient><path fill="url(#ae)" d="M19.44 460.34c0 1.14.93 2.07 2.07 2.07.57 0 1.1-.2 1.48-.6.4-.4.6-.9.6-1.46 0-.56-.2-1.08-.6-1.47-.4-.4-.9-.6-1.47-.6-1.13 0-2.06.92-2.06 2.07zm.15 0c0-1.06.85-1.92 1.9-1.92.53 0 1 .2 1.37.56.36.36.56.84.56 1.36 0 .5-.2 1-.56 1.35-.36.36-.84.56-1.36.56-1.05 0-1.9-.86-1.9-1.92z"/></g></g><g transform="matrix(1.234 -.287 .287 1.234 -140.037 -528.285)"><circle cx="21.513" cy="460.337" r="2.072" fill="none" stroke="#152a4c" stroke-width="1.184"/><circle cx="21.513" cy="460.337" r="2.072" fill="url(#af)"/><g><radialGradient cx="20.523" cy="458.587" r="4.066" gradientUnits="userSpaceOnUse" fy="458.587" fx="20.523"><stop offset="0" stop-color="#fff"/><stop offset=".685" stop-color="#2E659E"/><stop offset="1" stop-color="#1D3E63"/></radialGradient><path fill="url(#ag)" d="M19.44 460.34c0 1.14.93 2.07 2.07 2.07.57 0 1.1-.2 1.48-.6.4-.4.6-.9.6-1.46 0-.56-.2-1.08-.6-1.47-.4-.4-.9-.6-1.47-.6-1.13 0-2.06.92-2.06 2.07zm.15 0c0-1.06.85-1.92 1.9-1.92.53 0 1 .2 1.37.56.36.36.56.84.56 1.36 0 .5-.2 1-.56 1.35-.36.36-.84.56-1.36.56-1.05 0-1.9-.86-1.9-1.92z"/></g></g><g transform="matrix(1.234 -.287 .287 1.234 -140.363 -533.981)"><circle cx="21.513" cy="460.337" r="2.072" fill="none" stroke="#152a4c" stroke-width="1.184"/><circle cx="21.513" cy="460.337" r="2.072" fill="url(#ah)"/><g><radialGradient cx="20.523" cy="458.587" r="4.066" fx="20.523" fy="458.587" gradientUnits="userSpaceOnUse"><stop offset="0" stop-color="#fff"/><stop offset=".685" stop-color="#2E659E"/><stop offset="1" stop-color="#1D3E63"/></radialGradient><path fill="url(#ai)" d="M19.44 460.34c0 1.14.93 2.07 2.07 2.07.57 0 1.1-.2 1.48-.6.4-.4.6-.9.6-1.46 0-.56-.2-1.08-.6-1.47-.4-.4-.9-.6-1.47-.6-1.13 0-2.06.92-2.06 2.07zm.15 0c0-1.06.85-1.92 1.9-1.92.53 0 1 .2 1.37.56.36.36.56.84.56 1.36 0 .5-.2 1-.56 1.35-.36.36-.84.56-1.36.56-1.05 0-1.9-.86-1.9-1.92z"/></g></g><g transform="matrix(1.234 -.287 .287 1.234 -136.376 -558.311)"><circle cx="21.513" cy="460.337" r="2.072" fill="none" stroke="#152a4c" stroke-width="1.184"/><circle cx="21.513" cy="460.337" r="2.072" fill="url(#aj)"/><g><radialGradient cx="20.523" cy="458.587" r="4.066" gradientUnits="userSpaceOnUse" fy="458.587" fx="20.523"><stop offset="0" stop-color="#fff"/><stop offset=".685" stop-color="#2E659E"/><stop offset="1" stop-color="#1D3E63"/></radialGradient><path fill="url(#ak)" d="M19.44 460.34c0 1.14.93 2.07 2.07 2.07.57 0 1.1-.2 1.48-.6.4-.4.6-.9.6-1.46 0-.56-.2-1.08-.6-1.47-.4-.4-.9-.6-1.47-.6-1.13 0-2.06.92-2.06 2.07zm.15 0c0-1.06.85-1.92 1.9-1.92.53 0 1 .2 1.37.56.36.36.56.84.56 1.36 0 .5-.2 1-.56 1.35-.36.36-.84.56-1.36.56-1.05 0-1.9-.86-1.9-1.92z"/></g></g><g transform="matrix(1.234 -.287 .287 1.234 -136.701 -517.381)"><circle cx="21.513" cy="460.337" r="2.072" fill="none" stroke="#152a4c" stroke-width="1.184"/><circle cx="21.513" cy="460.337" r="2.072" fill="url(#al)"/><g><radialGradient cx="20.523" cy="458.587" r="4.066" fx="20.523" fy="458.587" gradientUnits="userSpaceOnUse"><stop offset="0" stop-color="#fff"/><stop offset=".685" stop-color="#2E659E"/><stop offset="1" stop-color="#1D3E63"/></radialGradient><path fill="url(#am)" d="M19.44 460.34c0 1.14.93 2.07 2.07 2.07.57 0 1.1-.2 1.48-.6.4-.4.6-.9.6-1.46 0-.56-.2-1.08-.6-1.47-.4-.4-.9-.6-1.47-.6-1.13 0-2.06.92-2.06 2.07zm.15 0c0-1.06.85-1.92 1.9-1.92.53 0 1 .2 1.37.56.36.36.56.84.56 1.36 0 .5-.2 1-.56 1.35-.36.36-.84.56-1.36.56-1.05 0-1.9-.86-1.9-1.92z"/></g></g><g transform="matrix(1.234 -.287 .287 1.234 -136.539 -522.914)"><circle cx="21.513" cy="460.337" r="2.072" fill="none" stroke="#152a4c" stroke-width="1.184"/><circle cx="21.513" cy="460.337" r="2.072" fill="url(#an)"/><g><radialGradient cx="20.523" cy="458.587" r="4.066" gradientUnits="userSpaceOnUse" fy="458.587" fx="20.523"><stop offset="0" stop-color="#fff"/><stop offset=".685" stop-color="#2E659E"/><stop offset="1" stop-color="#1D3E63"/></radialGradient><path fill="url(#ao)" d="M19.44 460.34c0 1.14.93 2.07 2.07 2.07.57 0 1.1-.2 1.48-.6.4-.4.6-.9.6-1.46 0-.56-.2-1.08-.6-1.47-.4-.4-.9-.6-1.47-.6-1.13 0-2.06.92-2.06 2.07zm.15 0c0-1.06.85-1.92 1.9-1.92.53 0 1 .2 1.37.56.36.36.56.84.56 1.36 0 .5-.2 1-.56 1.35-.36.36-.84.56-1.36.56-1.05 0-1.9-.86-1.9-1.92z"/></g></g><g transform="matrix(1.234 -.287 .287 1.234 -136.539 -552.94)"><circle cx="21.513" cy="460.337" r="2.072" fill="none" stroke="#152a4c" stroke-width="1.184"/><circle cx="21.513" cy="460.337" r="2.072" fill="url(#ap)"/><g><radialGradient cx="20.523" cy="458.587" r="4.066" fx="20.523" fy="458.587" gradientUnits="userSpaceOnUse"><stop offset="0" stop-color="#fff"/><stop offset=".685" stop-color="#2E659E"/><stop offset="1" stop-color="#1D3E63"/></radialGradient><path fill="url(#aq)" d="M19.44 460.34c0 1.14.93 2.07 2.07 2.07.57 0 1.1-.2 1.48-.6.4-.4.6-.9.6-1.46 0-.56-.2-1.08-.6-1.47-.4-.4-.9-.6-1.47-.6-1.13 0-2.06.92-2.06 2.07zm.15 0c0-1.06.85-1.92 1.9-1.92.53 0 1 .2 1.37.56.36.36.56.84.56 1.36 0 .5-.2 1-.56 1.35-.36.36-.84.56-1.36.56-1.05 0-1.9-.86-1.9-1.92z"/></g></g><g transform="matrix(1.234 -.287 .287 1.234 -136.701 -547.489)"><circle cx="21.513" cy="460.337" r="2.072" fill="none" stroke="#152a4c" stroke-width="1.184"/><circle cx="21.513" cy="460.337" r="2.072" fill="url(#ar)"/><g><radialGradient cx="20.523" cy="458.587" r="4.066" gradientUnits="userSpaceOnUse" fy="458.587" fx="20.523"><stop offset="0" stop-color="#fff"/><stop offset=".685" stop-color="#2E659E"/><stop offset="1" stop-color="#1D3E63"/></radialGradient><path fill="url(#as)" d="M19.44 460.34c0 1.14.93 2.07 2.07 2.07.57 0 1.1-.2 1.48-.6.4-.4.6-.9.6-1.46 0-.56-.2-1.08-.6-1.47-.4-.4-.9-.6-1.47-.6-1.13 0-2.06.92-2.06 2.07zm.15 0c0-1.06.85-1.92 1.9-1.92.53 0 1 .2 1.37.56.36.36.56.84.56 1.36 0 .5-.2 1-.56 1.35-.36.36-.84.56-1.36.56-1.05 0-1.9-.86-1.9-1.92z"/></g></g><g transform="matrix(1.234 -.287 .287 1.234 -136.213 -528.285)"><circle cx="21.513" cy="460.337" r="2.072" fill="none" stroke="#152a4c" stroke-width="1.184"/><circle cx="21.513" cy="460.337" r="2.072" fill="url(#at)"/><g><radialGradient cx="20.523" cy="458.587" r="4.066" fx="20.523" fy="458.587" gradientUnits="userSpaceOnUse"><stop offset="0" stop-color="#fff"/><stop offset=".685" stop-color="#2E659E"/><stop offset="1" stop-color="#1D3E63"/></radialGradient><path fill="url(#au)" d="M19.44 460.34c0 1.14.93 2.07 2.07 2.07.57 0 1.1-.2 1.48-.6.4-.4.6-.9.6-1.46 0-.56-.2-1.08-.6-1.47-.4-.4-.9-.6-1.47-.6-1.13 0-2.06.92-2.06 2.07zm.15 0c0-1.06.85-1.92 1.9-1.92.53 0 1 .2 1.37.56.36.36.56.84.56 1.36 0 .5-.2 1-.56 1.35-.36.36-.84.56-1.36.56-1.05 0-1.9-.86-1.9-1.92z"/></g></g><g transform="matrix(1.234 -.287 .287 1.234 -136.457 -533.33)"><circle cx="21.513" cy="460.337" r="2.072" fill="none" stroke="#152a4c" stroke-width="1.184"/><circle cx="21.513" cy="460.337" r="2.072" fill="url(#av)"/><g><radialGradient cx="20.523" cy="458.587" r="4.066" gradientUnits="userSpaceOnUse" fy="458.587" fx="20.523"><stop offset="0" stop-color="#fff"/><stop offset=".685" stop-color="#2E659E"/><stop offset="1" stop-color="#1D3E63"/></radialGradient><path fill="url(#aw)" d="M19.44 460.34c0 1.14.93 2.07 2.07 2.07.57 0 1.1-.2 1.48-.6.4-.4.6-.9.6-1.46 0-.56-.2-1.08-.6-1.47-.4-.4-.9-.6-1.47-.6-1.13 0-2.06.92-2.06 2.07zm.15 0c0-1.06.85-1.92 1.9-1.92.53 0 1 .2 1.37.56.36.36.56.84.56 1.36 0 .5-.2 1-.56 1.35-.36.36-.84.56-1.36.56-1.05 0-1.9-.86-1.9-1.92z"/></g></g><g transform="matrix(1.234 -.287 .287 1.234 -136.539 -543.013)"><circle cx="21.513" cy="460.337" r="2.072" fill="none" stroke="#152a4c" stroke-width="1.184"/><circle cx="21.513" cy="460.337" r="2.072" fill="url(#ax)"/><g><radialGradient cx="20.523" cy="458.587" r="4.066" fx="20.523" fy="458.587" gradientUnits="userSpaceOnUse"><stop offset="0" stop-color="#fff"/><stop offset=".685" stop-color="#2E659E"/><stop offset="1" stop-color="#1D3E63"/></radialGradient><path fill="url(#ay)" d="M19.44 460.34c0 1.14.93 2.07 2.07 2.07.57 0 1.1-.2 1.48-.6.4-.4.6-.9.6-1.46 0-.56-.2-1.08-.6-1.47-.4-.4-.9-.6-1.47-.6-1.13 0-2.06.92-2.06 2.07zm.15 0c0-1.06.85-1.92 1.9-1.92.53 0 1 .2 1.37.56.36.36.56.84.56 1.36 0 .5-.2 1-.56 1.35-.36.36-.84.56-1.36.56-1.05 0-1.9-.86-1.9-1.92z"/></g></g><g transform="matrix(1.234 -.287 .287 1.234 -136.864 -537.317)"><circle cx="21.513" cy="460.337" r="2.072" fill="none" stroke="#152a4c" stroke-width="1.184"/><circle cx="21.513" cy="460.337" r="2.072" fill="url(#az)"/><g><radialGradient cx="20.523" cy="458.587" r="4.066" gradientUnits="userSpaceOnUse" fy="458.587" fx="20.523"><stop offset="0" stop-color="#fff"/><stop offset=".685" stop-color="#2E659E"/><stop offset="1" stop-color="#1D3E63"/></radialGradient><path fill="url(#aA)" d="M19.44 460.34c0 1.14.93 2.07 2.07 2.07.57 0 1.1-.2 1.48-.6.4-.4.6-.9.6-1.46 0-.56-.2-1.08-.6-1.47-.4-.4-.9-.6-1.47-.6-1.13 0-2.06.92-2.06 2.07zm.15 0c0-1.06.85-1.92 1.9-1.92.53 0 1 .2 1.37.56.36.36.56.84.56 1.36 0 .5-.2 1-.56 1.35-.36.36-.84.56-1.36.56-1.05 0-1.9-.86-1.9-1.92z"/></g></g></g></svg>