<svg xmlns="http://www.w3.org/2000/svg" width="48" height="48" xmlns:xlink="http://www.w3.org/1999/xlink"><defs><linearGradient id="a"><stop offset="0" stop-color="#2e3436"/><stop offset="1"/></linearGradient><linearGradient id="g" x1="1.238" x2="46.524" y1="38.048" y2="38.476" xlink:href="#a" gradientUnits="userSpaceOnUse" gradientTransform="translate(.31 -6.03)"/><linearGradient id="b"><stop offset="0" stop-color="#d3d7cf"/><stop offset="1" stop-color="#fff"/></linearGradient><linearGradient x1="3.295" x2="41.179" y1="38.285" y2="38.285" xlink:href="#b" gradientUnits="userSpaceOnUse" gradientTransform="translate(71.489 22.113)"/><linearGradient id="c"><stop offset="0" stop-color="#d3d7cf"/><stop offset="1" stop-color="#fff"/></linearGradient><linearGradient id="f" x1="23.201" x2="22.286" y1="3.505" y2="32.37" xlink:href="#c" gradientUnits="userSpaceOnUse" gradientTransform="matrix(.868 0 0 .868 18.204 1.36)"/><linearGradient id="d"><stop offset="0" stop-color="#dfeaa1"/><stop offset="1" stop-color="#9db029"/></linearGradient><linearGradient x1="13.697" x2="13.697" y1="6.887" y2="1.744" xlink:href="#d" gradientUnits="userSpaceOnUse" gradientTransform="matrix(.625 0 0 .638 19.375 -12.551)"/><linearGradient><stop offset="0" stop-color="#fedba7"/><stop offset="1" stop-color="#fdbf64"/></linearGradient><linearGradient><stop offset="0" stop-color="#ffa54c"/><stop offset="1" stop-color="#f57900"/></linearGradient><linearGradient x1="13.697" x2="13.697" y1="6.887" y2="1.744" xlink:href="#d" gradientUnits="userSpaceOnUse" gradientTransform="matrix(.625 0 0 .638 19.375 -12.551)"/><linearGradient x1="13.697" x2="13.697" y1="6.887" y2="1.744" xlink:href="#d" gradientUnits="userSpaceOnUse" gradientTransform="matrix(.433 0 0 .638 -.285 -.128)"/><linearGradient x1="13.697" x2="13.697" y1="6.887" y2="1.744" xlink:href="#d" gradientUnits="userSpaceOnUse" gradientTransform="matrix(.433 0 0 .638 28.715 -.092)"/><linearGradient x1="13.697" x2="13.697" y1="6.887" y2="1.744" xlink:href="#d" gradientUnits="userSpaceOnUse" gradientTransform="matrix(.433 0 0 .638 -.285 -.128)"/><linearGradient x1="13.697" x2="13.697" y1="6.887" y2="1.744" xlink:href="#d" gradientUnits="userSpaceOnUse" gradientTransform="matrix(.433 0 0 .638 -.285 -.128)"/><linearGradient x1="13.697" x2="13.697" y1="6.887" y2="1.744" xlink:href="#d" gradientUnits="userSpaceOnUse" gradientTransform="matrix(.504 0 0 .743 25.613 -.194)"/><linearGradient x1="23.201" x2="22.286" y1="3.505" y2="32.37" xlink:href="#c" gradientUnits="userSpaceOnUse" gradientTransform="matrix(-.868 0 0 .868 30.184 1.153)"/><linearGradient x1="23.201" x2="22.286" y1="3.505" y2="32.37" xlink:href="#c" gradientUnits="userSpaceOnUse" gradientTransform="matrix(.868 0 0 .868 72.657 .33)"/><linearGradient id="e" x1="3.322" x2="47.698" y1="32.644" y2="32.644" xlink:href="#b" gradientUnits="userSpaceOnUse"/></defs><g><path fill="url(#e)" fill-rule="evenodd" stroke="#000" d="M28.55 18.04l18.65 14.3-22.17 14.9-24.1-14.9 20.48-14.3 3.65 27.43 3.5-27.43z" color="#000" stroke-linejoin="round" overflow="visible"/><path fill="none" stroke="#fff" d="M2.63 32.1l18.1-12.18 4.22 25.96 4.46-25.62 16.12 11.97L25.3 46 2.63 32.1z" color="#000" overflow="visible"/><path fill="none" stroke="#2d3335" stroke-width=".849"/><g color="#000" stroke-linejoin="round"><path fill="#ad7fa8" fill-rule="evenodd" stroke="#5c3566" stroke-width=".9975599999999999" d="M32.57 18.77a3.73 3.73 0 1 1-7.47 0 3.73 3.73 0 1 1 7.47 0z" overflow="visible"/><path fill="none" stroke="#fff" stroke-width="1.00436" d="M31.43 18.72a2.7 2.7 0 1 1-5.42 0 2.7 2.7 0 1 1 5.43 0z" overflow="visible"/></g><path fill="url(#f)" fill-rule="evenodd" stroke="#2e3436" stroke-width="1.5" d="M27.47.96v11.97h5.28l-4.3 5.83 13.6-5.83h5.54V.96H27.46z" color="#000" stroke-linejoin="round" overflow="visible"/><path fill="none" stroke="#fff" stroke-miterlimit="6" d="M28.42 1.9V12h6.68l-2.88 3.9 9.44-3.9h4.95V1.9H28.43z" color="#000" overflow="visible"/><path fill="url(#g)" fill-rule="evenodd" d="M1.55 32.03l13.27 8.27 8.46-8.22-10.75-7.65-10.98 7.6zm25.7.77l7.7 7.66 11.74-8.08-8.3-7-11.15 7.42z"/></g></svg>