<svg xmlns="http://www.w3.org/2000/svg" width="48" height="48" xmlns:xlink="http://www.w3.org/1999/xlink"><defs><linearGradient id="a"><stop offset="0" stop-color="#226c29"/><stop offset="1" stop-color="#a1de97"/></linearGradient><linearGradient id="b"><stop offset="0" stop-color="#ddddd8"/><stop offset="1" stop-color="#fff"/></linearGradient><linearGradient id="d" x1="19.533" x2="20.032" y1="20.558" y2="32.698" xlink:href="#a" gradientUnits="userSpaceOnUse"/><linearGradient id="c" x1="21.016" x2="21.016" y1="18.442" y2="32.728" xlink:href="#b" gradientUnits="userSpaceOnUse" gradientTransform="matrix(1.249 0 0 1.249 -2.339 -4.071)"/></defs><g><path fill="url(#c)" fill-rule="evenodd" d="M1.07 26.54c19.43-17.13 36.4-7.46 45.68 2.54C37.17 46.28 8.3 39.3 1.07 26.54z"/><path fill="url(#d)" d="M27.24 25.5a7.2 7.2 0 1 1-14.4 0 7.2 7.2 0 1 1 14.4 0z" transform="matrix(1.431 0 0 1.431 -6.412 -10.245)" color="#000" overflow="visible"/><path fill="#2c5803" fill-opacity=".506" d="M29.4 32.25l-4.33-2.6 2.26 4.52-3.4-3.7.88 4.95-2.22-4.52-.54 5-.87-4.95-1.92 4.65.56-5-3.15 3.92 1.95-4.65-4.14 2.88 3.2-3.9-4.8 1.6 4.16-2.87-5.04.18 4.8-1.56-4.9-1.25 5.05-.15-4.34-2.57 4.87 1.27-3.44-3.7 4.32 2.6-2.25-4.5 3.4 3.7-.88-4.96 2.23 4.53.54-5.02.85 4.97 1.93-4.66-.56 5 3.16-3.92-1.95 4.65 4.14-2.9-3.2 3.92 4.8-1.6-4.16 2.86 5.05-.18-4.8 1.57 4.9 1.24-5.05.17 4.34 2.57-4.88-1.28 3.44 3.7z" color="#000" overflow="visible"/><path fill="#2e3436" d="M24.94 26.42a3.3 3.3 0 1 1-6.58 0 3.3 3.3 0 1 1 6.58 0z" color="#000" overflow="visible"/><path fill="#eeeeec" fill-opacity=".716" fill-rule="evenodd" d="M20.42 24.24s.55-2.93.8-4.28c2.13.08 5.86 1.27 6.73 2.38-.55 1.34-1.5 3-1.9 4.04-2.06-1.35-3.65-2.06-5.63-2.14z"/><path fill="#2e3436" fill-rule="evenodd" d="M.16 27.15c23.1-13.68 34.96-7.5 42.46 1.85 1.48.06 4.3.08 5.32.3-3.1-6.8-12.77-13.63-25.22-13.63S.12 27.4.16 27.15z"/><path fill="#2e3436" fill-rule="evenodd" d="M6.98 32.9c10.56 5.75 26.23 6.54 35.96.6.44.18 1.82.73 2.46 1.04-17.25 8.9-30.66 4.96-38.42-1.64z"/><path fill="#2e3436" fill-rule="evenodd" d="M46.6 16.55C32.4 6.25 16.27 1.4 1.28 17.8c12.76-6.86 22.4-11.63 45.34-1.25z"/><path fill="#fff" fill-opacity=".75" fill-rule="evenodd" d="M3.02 26.78c3-2.95 9.25-4.34 9.25-4.34l-.94 3.45s-5.2-.47-8.3.88z"/></g></svg>