<svg xmlns="http://www.w3.org/2000/svg" width="48" height="48" xmlns:xlink="http://www.w3.org/1999/xlink"><defs><linearGradient id="a"><stop offset="0" stop-color="#fbcf67"/><stop offset=".254" stop-color="#ebf768"/><stop offset=".365" stop-color="#b2f06a"/><stop offset=".5" stop-color="#6de1bf"/><stop offset=".635" stop-color="#70b2df"/><stop offset=".759" stop-color="#9076ef"/><stop offset=".865" stop-color="#e575f7"/><stop offset="1" stop-color="#ff74bf"/></linearGradient><linearGradient x1="23.315" x2="22.902" y1="2.758" y2="4.589" gradientUnits="userSpaceOnUse"><stop offset="0" stop-color="#BECBD4"/><stop offset=".226" stop-color="#B9C4CE"/><stop offset=".472" stop-color="#A8B3BC"/><stop offset=".728" stop-color="#8F98A1"/><stop offset=".99" stop-color="#6E7782"/><stop offset="1" stop-color="#6C7680"/></linearGradient><linearGradient x1="20.636" x2="34.705" y1="8.087" y2="15.375" gradientUnits="userSpaceOnUse"><stop offset="0" stop-color="#fff"/><stop offset=".213" stop-color="#FBFCFC"/><stop offset=".446" stop-color="#ECEFF2"/><stop offset=".688" stop-color="#D7DDE4"/><stop offset=".935" stop-color="#B6C3CF"/><stop offset="1" stop-color="#AEBCCA"/></linearGradient><radialGradient id="b" cx="23.691" cy="16.917" r="21.484" xlink:href="#a" fx="23.691" fy="16.917" gradientTransform="matrix(1.286 -.176 .093 .684 -9.039 12.649)" gradientUnits="userSpaceOnUse"/></defs><g><path fill="none" stroke="#2e3436" d="M28.4 9.54l-2.03.2-7-.14-.95.24-4.9 2.83-1.08 1L5.7 18.9l-3.06 4.22-2 2.28.98 4.5 2.1 2.5 3.55 1.78 4.93.9 8.7-.32 7 1.88 3.85.4 4 .45 2.42-2.6 1.53-2.32-.07-4.35.07-.65 2.9-2.1 2.64-3.14 2.14-1.8-2.1-3.28-1.74-2.82-4.32-1.9-3.67-1.5-7.14-1.5z"/><path fill="url(#b)" d="M28.4 9.54l-2.03.2-7-.14-.95.24-4.9 2.83-1.08 1L5.7 18.9l-3.06 4.22-2 2.28.98 4.5 2.1 2.5 3.55 1.78 4.93.9 8.7-.32 7 1.88 3.85.4 4 .45 2.42-2.6 1.53-2.32-.07-4.35.07-.65 2.9-2.1 2.64-3.14 2.14-1.8-2.1-3.28-1.74-2.82-4.32-1.9-3.67-1.5-7.14-1.5z"/><g fill="none" stroke="#000" stroke-opacity=".227" stroke-width=".919"><path d="M38.05 24.3l.24 4.7-2.44 1.4-2.8-6.13z"/><path d="M35.86 30.4l-2.8-6.13-5.14 3.2 3.86 3.64z"/><path d="M38.05 24.3l-5-.03-3.98-6.04 8.24-.85z"/><path d="M33.06 24.27l-4-6.04-8.4 3.96 7.26 5.27z"/><path d="M29.07 18.23l8.24-.85-4.88-5.35-7.83 1.36z"/><path d="M39.15 12.62L43 17.1l-5.7.28-4.88-5.35z"/><path d="M35.48 11.12l3.67 1.5-6.73-.6-4.07-2.4z"/><path d="M43.5 14.53l1.72 2.8-2.2-.23-3.87-4.48z"/><path d="M44.25 22.34l-1.73 3.22-2.88 2.1.38-3.34z"/><path d="M47.33 20.63l-2.13 1.8-2.68 3.13 1.73-3.22z"/><path d="M43 17.1l1.25 5.24-4.23 1.98-2.7-6.94z"/><path d="M45.22 17.34l2.1 3.3-3.07 1.7L43 17.1z"/><path d="M40.02 24.32l-.46 4-1.5-4.02-.75-6.92z"/><path d="M38.3 29l1.35 3.68-2.95 2.6-.84-4.9z"/><path d="M39.56 28.32l.1 4.36L38.28 29l-.25-4.7z"/><path d="M35.86 30.4l.84 4.87-4.96.1.04-4.26z"/><path d="M36.7 35.27l-1 2.3-4-.44.04-1.76z"/><path d="M39.65 32.68L38.12 35l-2.42 2.57 1-2.3z"/><path d="M27.92 27.47l-1.75 5.22-6.12-2.14.62-8.37z"/><path d="M31.78 31.1l-.04 4.27-5.57-2.68 1.75-5.23z"/><path d="M26.17 32.7l1.68 4.03-7-1.9-.8-4.27z"/><path d="M31.74 35.37l-.04 1.76-3.85-.4-1.68-4.04z"/><path d="M28.35 9.63l4.07 2.4-7.83 1.36-3.76-3.03z"/><path d="M20.84 10.37l3.75 3.02-8.43 3.02-3.77-2.67z"/><path d="M24.6 13.4l4.47 4.83-8.4 3.96-4.5-5.78z"/><path d="M16.17 16.42l4.5 5.77-8.7 4.07-3.32-5.2z"/><path d="M12.4 13.75l3.77 2.67-7.52 4.65-3-2.06z"/><path d="M5.66 19l3 2.07-5.32 4.9-.74-2.76z"/><path d="M8.65 21.07l3.3 5.2-4.9 2.46-3.7-2.76z"/><path d="M20.67 22.2l-.62 8.36-6.9 1.48-1.2-5.77z"/><path d="M20.05 30.56l.8 4.28-8.7.32 1-3.12z"/><path d="M11.96 26.27l1.18 5.77-6.66 1.17.57-4.47z"/><path d="M13.14 32.04l-1 3.12-4.9-.88-.76-1.07z"/><path d="M7.05 28.73l-.57 4.48-4.9-3.23 1.76-4z"/><path d="M2.6 23.2l.74 2.77-1.76 4L.6 25.5z"/><path d="M6.48 33.2l.75 1.08L3.7 32.5l-2.12-2.53z"/><path d="M18.37 9.95l.95-.24 1.52.67-8.44 3.38 1.06-.98z"/><path d="M19.32 9.7l7 .13-5.48.54-1.52-.66z"/></g></g></svg>