<svg xmlns="http://www.w3.org/2000/svg" width="48" height="48" xmlns:xlink="http://www.w3.org/1999/xlink"><defs><linearGradient id="B"><stop offset="0" stop-color="#8ae234" stop-opacity="0"/><stop offset=".807" stop-color="#4e9a06" stop-opacity="0"/><stop offset="1" stop-color="#4e9a06"/></linearGradient><linearGradient id="A"><stop offset="0"/><stop offset="1" stop-color="#fff"/></linearGradient><linearGradient id="z"><stop offset="0" stop-color="#888a85"/><stop offset="1" stop-color="#eeeeec"/></linearGradient><linearGradient id="y"><stop offset="0" stop-color="#eeeeec"/><stop offset="1" stop-color="#d3d7cf"/></linearGradient><linearGradient id="n"><stop offset="0" stop-color="#74726e"/><stop offset="1" stop-color="#5d5b58" stop-opacity="0"/></linearGradient><linearGradient id="m"><stop offset="0" stop-color="#5d5b58"/><stop offset="1" stop-color="#5d5b58" stop-opacity="0"/></linearGradient><linearGradient id="f"><stop offset="0" stop-color="#888a85"/><stop offset="1" stop-color="#51534f"/></linearGradient><linearGradient><stop offset="0" stop-color="#2e3436" stop-opacity=".619"/><stop offset="1" stop-color="#2e3436" stop-opacity="0"/></linearGradient><linearGradient id="k"><stop offset="0" stop-color="#fff"/><stop offset="1" stop-color="#fff" stop-opacity="0"/></linearGradient><linearGradient id="j"><stop offset="0" stop-color="#fff"/><stop offset="1" stop-color="#fff" stop-opacity="0"/></linearGradient><linearGradient id="i"><stop offset="0" stop-color="#fff"/><stop offset="1" stop-color="#fff" stop-opacity="0"/></linearGradient><linearGradient id="h"><stop offset="0" stop-color="#fff"/><stop offset="1" stop-color="#fff" stop-opacity="0"/></linearGradient><linearGradient id="g"><stop offset="0" stop-color="#fff"/><stop offset="1" stop-color="#fff" stop-opacity="0"/></linearGradient><linearGradient id="l"><stop offset="0" stop-color="#fff"/><stop offset="1" stop-color="#fff" stop-opacity="0"/></linearGradient><linearGradient x1="10.276" x2="14.832" y1="35.035" y2="37.582" xlink:href="#a" gradientUnits="userSpaceOnUse" gradientTransform="matrix(.83 .08 -.08 .83 86.174 1.704)"/><linearGradient id="a"><stop offset="0" stop-color="#2e3436"/><stop offset="1" stop-color="#2e3436" stop-opacity="0"/></linearGradient><linearGradient x1="23.201" x2="22.286" y1="3.505" y2="32.37" xlink:href="#b" gradientUnits="userSpaceOnUse" gradientTransform="matrix(-.834 0 0 .834 120.203 -6.058)"/><linearGradient id="b"><stop offset="0" stop-color="#d3d7cf"/><stop offset="1" stop-color="#fff"/></linearGradient><radialGradient cx="3.299" cy="3.416" r="2.751" xlink:href="#c" gradientUnits="userSpaceOnUse" fx="3.299" fy="3.416"/><linearGradient id="c"><stop offset="0" stop-color="#fff"/><stop offset="1" stop-color="#8e8e8e"/></linearGradient><linearGradient x1="23.201" x2="22.286" y1="3.505" y2="32.37" xlink:href="#b" gradientUnits="userSpaceOnUse" gradientTransform="matrix(-.495 0 0 .495 22.228 .012)"/><linearGradient x1="10.276" x2="14.832" y1="35.035" y2="37.582" xlink:href="#a" gradientUnits="userSpaceOnUse" gradientTransform="matrix(.492 .047 -.047 .493 15.218 -.091)"/><radialGradient cx="3.299" cy="3.416" r="2.751" xlink:href="#c" fx="3.299" fy="3.416" gradientUnits="userSpaceOnUse"/><linearGradient><stop offset="0" stop-color="#fff"/><stop offset="1" stop-color="#8e8e8e"/></linearGradient><radialGradient cx="3.299" cy="3.416" r="2.751" fy="3.416" fx="3.299" gradientUnits="userSpaceOnUse" xlink:href="#c"/><linearGradient x1="10.276" x2="14.832" y1="35.035" y2="37.582" xlink:href="#a" gradientUnits="userSpaceOnUse" gradientTransform="matrix(.501 .048 -.048 .501 26.188 17.5)"/><linearGradient x1="23.201" x2="22.286" y1="3.505" y2="32.37" xlink:href="#b" gradientUnits="userSpaceOnUse" gradientTransform="matrix(.503 0 0 .504 24.972 17.615)"/><radialGradient cx="3.299" cy="3.416" r="2.751" xlink:href="#c" gradientUnits="userSpaceOnUse" fx="3.299" fy="3.416"/><linearGradient x1="10.276" x2="14.832" y1="35.035" y2="37.582" xlink:href="#a" gradientUnits="userSpaceOnUse" gradientTransform="matrix(.501 .048 -.048 .501 26.129 -.295)"/><linearGradient x1="23.201" x2="22.286" y1="3.505" y2="32.37" xlink:href="#b" gradientUnits="userSpaceOnUse" gradientTransform="matrix(.503 0 0 .504 24.913 -.18)"/><radialGradient cx="3.299" cy="3.416" r="2.751" xlink:href="#c" gradientUnits="userSpaceOnUse" fx="3.299" fy="3.416"/><linearGradient x1="10.276" x2="14.832" y1="35.035" y2="37.582" xlink:href="#a" gradientUnits="userSpaceOnUse" gradientTransform="matrix(.501 .048 -.048 .501 14.992 11.785)"/><linearGradient x1="23.201" x2="22.286" y1="3.505" y2="32.37" xlink:href="#b" gradientUnits="userSpaceOnUse" gradientTransform="matrix(-.503 0 0 -.504 22.375 48.281)"/><radialGradient cx="3.299" cy="3.416" r="2.751" xlink:href="#c" gradientUnits="userSpaceOnUse" fx="3.299" fy="3.416"/><radialGradient cx="3.299" cy="3.416" r="2.751" xlink:href="#c" gradientUnits="userSpaceOnUse" fx="3.299" fy="3.416"/><linearGradient x1="-95.827" x2="-81.455" y1="297.608" y2="297.608" xlink:href="#d" gradientUnits="userSpaceOnUse" gradientTransform="matrix(.719 .784 .996 -.914 -199.349 377.414)"/><linearGradient id="d" x1="-95.827" x2="-81.455" y1="297.608" y2="297.608" gradientTransform="matrix(0 -1.064 -1.352 0 410.498 -83.416)" gradientUnits="userSpaceOnUse"><stop offset="0" stop-color="#e96712" stop-opacity="0"/><stop offset=".622" stop-color="#D52E0C"/><stop offset="1" stop-color="#CB1009"/></linearGradient><linearGradient x1="8.071" x2="8.071" y1="3.993" y2="15.429" xlink:href="#e" gradientUnits="userSpaceOnUse" gradientTransform="matrix(-.996 .914 -.904 -.985 50.213 38.027)"/><linearGradient id="e"><stop offset="0" stop-color="#590b08"/><stop offset="1" stop-opacity="0"/></linearGradient><linearGradient x1="20.73" x2="23.296" y1="29.815" y2="45.056" xlink:href="#f" gradientUnits="userSpaceOnUse" gradientTransform="matrix(.743 0 0 .743 -1.065 .298)"/><linearGradient x1="287.517" x2="289.676" y1="-439.753" y2="-436.322" xlink:href="#g" gradientUnits="userSpaceOnUse"/><linearGradient x1="286.512" x2="289.854" y1="-441.291" y2="-436.145" xlink:href="#h" gradientUnits="userSpaceOnUse"/><linearGradient x1="285.941" x2="289.391" y1="-439.939" y2="-436.443" xlink:href="#i" gradientUnits="userSpaceOnUse"/><linearGradient x1="275.942" x2="279.975" y1="-437.105" y2="-431.918" xlink:href="#j" gradientUnits="userSpaceOnUse"/><linearGradient x1="286.666" x2="289.766" y1="-439.484" y2="-436.707" xlink:href="#k" gradientUnits="userSpaceOnUse"/><linearGradient x1="284.802" x2="288.9" y1="-441.233" y2="-436.831" xlink:href="#i" gradientUnits="userSpaceOnUse"/><linearGradient x1="286.246" x2="290.121" y1="-434.732" y2="-439.69" xlink:href="#g" gradientUnits="userSpaceOnUse"/><linearGradient x1="287.147" x2="289.473" y1="-434.809" y2="-437.594" xlink:href="#h" gradientUnits="userSpaceOnUse"/><linearGradient x1="286.014" x2="288.375" y1="-435.546" y2="-438.971" xlink:href="#i" gradientUnits="userSpaceOnUse"/><linearGradient x1="276.614" x2="283.463" y1="-431" y2="-438.722" xlink:href="#l" gradientUnits="userSpaceOnUse"/><linearGradient x1="286.295" x2="289.395" y1="-435.628" y2="-438.19" xlink:href="#k" gradientUnits="userSpaceOnUse"/><linearGradient x1="286.415" x2="290.078" y1="-435.784" y2="-439.289" xlink:href="#i" gradientUnits="userSpaceOnUse"/><linearGradient x1="286.415" x2="288.375" y1="-435.784" y2="-437.888" xlink:href="#i" gradientUnits="userSpaceOnUse"/><linearGradient x1="271.022" x2="285.029" y1="-441.052" y2="-431.97" xlink:href="#l" gradientUnits="userSpaceOnUse" gradientTransform="matrix(1.09 0 0 .966 -289.155 431.622)"/><linearGradient x1="29.124" x2="27.356" y1="38.897" y2="34.879" xlink:href="#m" gradientUnits="userSpaceOnUse" gradientTransform="matrix(.751 0 0 .751 -1.265 .109)"/><linearGradient x1="29.124" x2="27.356" y1="38.897" y2="34.879" xlink:href="#n" gradientUnits="userSpaceOnUse" gradientTransform="matrix(.689 -.3 .3 .689 -4.33 6.099)"/><radialGradient cx="3.299" cy="3.416" r="2.751" xlink:href="#c" gradientUnits="userSpaceOnUse" fx="3.299" fy="3.416"/><linearGradient x1="20.73" x2="23.296" y1="29.815" y2="45.056" xlink:href="#f" gradientUnits="userSpaceOnUse" gradientTransform="matrix(.743 0 0 .743 -1.065 .298)"/><linearGradient x1="287.517" x2="289.676" y1="-439.753" y2="-436.322" xlink:href="#g" gradientUnits="userSpaceOnUse"/><linearGradient x1="286.512" x2="289.854" y1="-441.291" y2="-436.145" xlink:href="#h" gradientUnits="userSpaceOnUse"/><linearGradient x1="285.941" x2="289.391" y1="-439.939" y2="-436.443" xlink:href="#i" gradientUnits="userSpaceOnUse"/><linearGradient x1="275.942" x2="279.975" y1="-437.105" y2="-431.918" xlink:href="#j" gradientUnits="userSpaceOnUse"/><linearGradient x1="286.666" x2="289.766" y1="-439.484" y2="-436.707" xlink:href="#k" gradientUnits="userSpaceOnUse"/><linearGradient x1="284.802" x2="288.9" y1="-441.233" y2="-436.831" xlink:href="#i" gradientUnits="userSpaceOnUse"/><linearGradient x1="286.246" x2="290.121" y1="-434.732" y2="-439.69" xlink:href="#g" gradientUnits="userSpaceOnUse"/><linearGradient x1="287.147" x2="289.473" y1="-434.809" y2="-437.594" xlink:href="#h" gradientUnits="userSpaceOnUse"/><linearGradient x1="286.014" x2="288.375" y1="-435.546" y2="-438.971" xlink:href="#i" gradientUnits="userSpaceOnUse"/><linearGradient x1="276.614" x2="283.463" y1="-431" y2="-438.722" xlink:href="#l" gradientUnits="userSpaceOnUse"/><linearGradient x1="286.295" x2="289.395" y1="-435.628" y2="-438.19" xlink:href="#k" gradientUnits="userSpaceOnUse"/><linearGradient x1="286.415" x2="290.078" y1="-435.784" y2="-439.289" xlink:href="#i" gradientUnits="userSpaceOnUse"/><linearGradient x1="286.415" x2="288.375" y1="-435.784" y2="-437.888" xlink:href="#i" gradientUnits="userSpaceOnUse"/><linearGradient x1="271.022" x2="285.029" y1="-441.052" y2="-431.97" xlink:href="#l" gradientUnits="userSpaceOnUse" gradientTransform="matrix(1.09 0 0 .966 -289.155 431.622)"/><linearGradient x1="29.124" x2="27.356" y1="38.897" y2="34.879" xlink:href="#m" gradientUnits="userSpaceOnUse" gradientTransform="matrix(.751 0 0 .751 -1.265 .109)"/><linearGradient x1="29.124" x2="27.356" y1="38.897" y2="34.879" xlink:href="#n" gradientUnits="userSpaceOnUse" gradientTransform="matrix(.689 -.3 .3 .689 -4.33 6.099)"/><radialGradient cx="3.299" cy="3.416" r="2.751" xlink:href="#c" gradientUnits="userSpaceOnUse" fx="3.299" fy="3.416"/><linearGradient x1="20.73" x2="23.296" y1="29.815" y2="45.056" xlink:href="#f" gradientUnits="userSpaceOnUse" gradientTransform="matrix(.743 0 0 .743 -1.065 .298)"/><linearGradient x1="287.517" x2="289.676" y1="-439.753" y2="-436.322" xlink:href="#g" gradientUnits="userSpaceOnUse"/><linearGradient x1="286.512" x2="289.854" y1="-441.291" y2="-436.145" xlink:href="#h" gradientUnits="userSpaceOnUse"/><linearGradient x1="285.941" x2="289.391" y1="-439.939" y2="-436.443" xlink:href="#i" gradientUnits="userSpaceOnUse"/><linearGradient x1="275.942" x2="279.975" y1="-437.105" y2="-431.918" xlink:href="#j" gradientUnits="userSpaceOnUse"/><linearGradient x1="286.666" x2="289.766" y1="-439.484" y2="-436.707" xlink:href="#k" gradientUnits="userSpaceOnUse"/><linearGradient x1="284.802" x2="288.9" y1="-441.233" y2="-436.831" xlink:href="#i" gradientUnits="userSpaceOnUse"/><linearGradient x1="286.246" x2="290.121" y1="-434.732" y2="-439.69" xlink:href="#g" gradientUnits="userSpaceOnUse"/><linearGradient x1="287.147" x2="289.473" y1="-434.809" y2="-437.594" xlink:href="#h" gradientUnits="userSpaceOnUse"/><linearGradient x1="286.014" x2="288.375" y1="-435.546" y2="-438.971" xlink:href="#i" gradientUnits="userSpaceOnUse"/><linearGradient x1="276.614" x2="283.463" y1="-431" y2="-438.722" xlink:href="#l" gradientUnits="userSpaceOnUse"/><linearGradient x1="286.295" x2="289.395" y1="-435.628" y2="-438.19" xlink:href="#k" gradientUnits="userSpaceOnUse"/><linearGradient x1="286.415" x2="290.078" y1="-435.784" y2="-439.289" xlink:href="#i" gradientUnits="userSpaceOnUse"/><linearGradient x1="286.415" x2="288.375" y1="-435.784" y2="-437.888" xlink:href="#i" gradientUnits="userSpaceOnUse"/><linearGradient x1="271.022" x2="285.029" y1="-441.052" y2="-431.97" xlink:href="#l" gradientUnits="userSpaceOnUse" gradientTransform="matrix(1.09 0 0 .966 -289.155 431.622)"/><linearGradient x1="29.124" x2="27.356" y1="38.897" y2="34.879" xlink:href="#m" gradientUnits="userSpaceOnUse" gradientTransform="matrix(.751 0 0 .751 -1.265 .109)"/><linearGradient x1="29.124" x2="27.356" y1="38.897" y2="34.879" xlink:href="#n" gradientUnits="userSpaceOnUse" gradientTransform="matrix(.689 -.3 .3 .689 -4.33 6.099)"/><radialGradient cx="3.299" cy="3.416" r="2.751" xlink:href="#c" gradientUnits="userSpaceOnUse" fx="3.299" fy="3.416"/><linearGradient x1="20.73" x2="23.296" y1="29.815" y2="45.056" xlink:href="#f" gradientUnits="userSpaceOnUse" gradientTransform="matrix(.743 0 0 .743 -1.065 .298)"/><linearGradient x1="287.517" x2="289.676" y1="-439.753" y2="-436.322" xlink:href="#g" gradientUnits="userSpaceOnUse"/><linearGradient x1="286.512" x2="289.854" y1="-441.291" y2="-436.145" xlink:href="#h" gradientUnits="userSpaceOnUse"/><linearGradient x1="285.941" x2="289.391" y1="-439.939" y2="-436.443" xlink:href="#i" gradientUnits="userSpaceOnUse"/><linearGradient x1="275.942" x2="279.975" y1="-437.105" y2="-431.918" xlink:href="#j" gradientUnits="userSpaceOnUse"/><linearGradient x1="286.666" x2="289.766" y1="-439.484" y2="-436.707" xlink:href="#k" gradientUnits="userSpaceOnUse"/><linearGradient x1="284.802" x2="288.9" y1="-441.233" y2="-436.831" xlink:href="#i" gradientUnits="userSpaceOnUse"/><linearGradient x1="286.246" x2="290.121" y1="-434.732" y2="-439.69" xlink:href="#g" gradientUnits="userSpaceOnUse"/><linearGradient x1="287.147" x2="289.473" y1="-434.809" y2="-437.594" xlink:href="#h" gradientUnits="userSpaceOnUse"/><linearGradient x1="286.014" x2="288.375" y1="-435.546" y2="-438.971" xlink:href="#i" gradientUnits="userSpaceOnUse"/><linearGradient x1="276.614" x2="283.463" y1="-431" y2="-438.722" xlink:href="#l" gradientUnits="userSpaceOnUse"/><linearGradient x1="286.295" x2="289.395" y1="-435.628" y2="-438.19" xlink:href="#k" gradientUnits="userSpaceOnUse"/><linearGradient x1="286.415" x2="290.078" y1="-435.784" y2="-439.289" xlink:href="#i" gradientUnits="userSpaceOnUse"/><linearGradient x1="286.415" x2="288.375" y1="-435.784" y2="-437.888" xlink:href="#i" gradientUnits="userSpaceOnUse"/><linearGradient x1="271.022" x2="285.029" y1="-441.052" y2="-431.97" xlink:href="#l" gradientUnits="userSpaceOnUse" gradientTransform="matrix(1.09 0 0 .966 -289.155 431.622)"/><linearGradient x1="29.124" x2="27.356" y1="38.897" y2="34.879" xlink:href="#m" gradientUnits="userSpaceOnUse" gradientTransform="matrix(.751 0 0 .751 -1.265 .109)"/><linearGradient x1="29.124" x2="27.356" y1="38.897" y2="34.879" xlink:href="#n" gradientUnits="userSpaceOnUse" gradientTransform="matrix(.689 -.3 .3 .689 -4.33 6.099)"/><radialGradient cx="3.299" cy="3.416" r="2.751" xlink:href="#c" gradientUnits="userSpaceOnUse" fx="3.299" fy="3.416"/><linearGradient id="T" x1="29.124" x2="27.356" y1="38.897" y2="34.879" gradientTransform="matrix(.917 -.399 .399 .917 -4.08 7.972)" gradientUnits="userSpaceOnUse" xlink:href="#o"/><linearGradient id="S" x1="29.124" x2="27.356" y1="38.897" y2="34.879" gradientUnits="userSpaceOnUse" xlink:href="#p"/><linearGradient id="D" x1="20.73" x2="23.296" y1="29.815" y2="45.056" gradientTransform="matrix(.989 0 0 .989 .265 .251)" gradientUnits="userSpaceOnUse" xlink:href="#q"/><radialGradient id="C" cx="23.335" cy="44.42" r="18.562" gradientUnits="userSpaceOnUse" gradientTransform="matrix(1 0 0 .193 0 35.854)" fy="44.42" fx="23.335" xlink:href="#r"/><linearGradient id="Q" x1="286.415" x2="288.375" y1="-435.784" y2="-437.888" gradientUnits="userSpaceOnUse" xlink:href="#s"/><linearGradient id="R" x1="271.022" x2="285.029" y1="-441.052" y2="-431.97" gradientTransform="matrix(1.452 0 0 1.286 -383.21 574.384)" gradientUnits="userSpaceOnUse" xlink:href="#t"/><linearGradient id="K" x1="286.246" x2="290.121" y1="-434.732" y2="-439.69" gradientUnits="userSpaceOnUse" xlink:href="#u"/><linearGradient id="L" x1="287.147" x2="289.473" y1="-434.809" y2="-437.594" gradientUnits="userSpaceOnUse" xlink:href="#v"/><linearGradient id="M" x1="286.014" x2="288.375" y1="-435.546" y2="-438.971" gradientUnits="userSpaceOnUse" xlink:href="#s"/><linearGradient id="N" x1="276.614" x2="283.463" y1="-431" y2="-438.722" gradientUnits="userSpaceOnUse" xlink:href="#t"/><linearGradient id="O" x1="286.295" x2="289.395" y1="-435.628" y2="-438.19" gradientUnits="userSpaceOnUse" xlink:href="#w"/><linearGradient id="P" x1="286.415" x2="290.078" y1="-435.784" y2="-439.289" gradientUnits="userSpaceOnUse" xlink:href="#s"/><linearGradient id="J" x1="284.802" x2="288.9" y1="-441.233" y2="-436.831" gradientUnits="userSpaceOnUse" xlink:href="#s"/><linearGradient id="I" x1="286.666" x2="289.766" y1="-439.484" y2="-436.707" gradientUnits="userSpaceOnUse" xlink:href="#w"/><linearGradient id="H" x1="275.942" x2="279.975" y1="-437.105" y2="-431.918" gradientUnits="userSpaceOnUse" xlink:href="#x"/><linearGradient id="G" x1="285.941" x2="289.391" y1="-439.939" y2="-436.443" gradientUnits="userSpaceOnUse" xlink:href="#s"/><linearGradient id="F" x1="286.512" x2="289.854" y1="-441.291" y2="-436.145" gradientUnits="userSpaceOnUse" xlink:href="#v"/><linearGradient id="E" x1="287.517" x2="289.676" y1="-439.753" y2="-436.322" gradientUnits="userSpaceOnUse" xlink:href="#u"/><linearGradient id="t"><stop offset="0" stop-color="#fff"/><stop offset="1" stop-color="#fff" stop-opacity="0"/></linearGradient><linearGradient id="u"><stop offset="0" stop-color="#fff"/><stop offset="1" stop-color="#fff" stop-opacity="0"/></linearGradient><linearGradient id="v"><stop offset="0" stop-color="#fff"/><stop offset="1" stop-color="#fff" stop-opacity="0"/></linearGradient><linearGradient id="s"><stop offset="0" stop-color="#fff"/><stop offset="1" stop-color="#fff" stop-opacity="0"/></linearGradient><linearGradient id="x"><stop offset="0" stop-color="#fff"/><stop offset="1" stop-color="#fff" stop-opacity="0"/></linearGradient><linearGradient id="w"><stop offset="0" stop-color="#fff"/><stop offset="1" stop-color="#fff" stop-opacity="0"/></linearGradient><linearGradient id="r"><stop offset="0" stop-color="#2e3436" stop-opacity=".619"/><stop offset="1" stop-color="#2e3436" stop-opacity="0"/></linearGradient><linearGradient id="q"><stop offset="0" stop-color="#888a85"/><stop offset="1" stop-color="#51534f"/></linearGradient><linearGradient id="p"><stop offset="0" stop-color="#5d5b58"/><stop offset="1" stop-color="#5d5b58" stop-opacity="0"/></linearGradient><linearGradient id="o"><stop offset="0" stop-color="#74726e"/><stop offset="1" stop-color="#5d5b58" stop-opacity="0"/></linearGradient><linearGradient id="V" x1="19.105" x2="47.62" y1="25.414" y2="51.222" xlink:href="#y" gradientUnits="userSpaceOnUse"/><linearGradient id="U" x1="15.989" x2="15.785" y1="48.715" y2="22.666" xlink:href="#z" gradientUnits="userSpaceOnUse"/><linearGradient id="X" x1="24.607" x2="44.875" y1="27.237" y2="47.974" xlink:href="#A" gradientUnits="userSpaceOnUse"/><radialGradient cx="23.335" cy="44.42" r="18.562" xlink:href="#r" gradientUnits="userSpaceOnUse" gradientTransform="matrix(1 0 0 .193 0 35.854)" fx="23.335" fy="44.42"/><linearGradient x1="20.73" x2="23.296" y1="29.815" y2="45.056" xlink:href="#q" gradientUnits="userSpaceOnUse" gradientTransform="matrix(.989 0 0 .989 .265 .251)"/><linearGradient x1="287.517" x2="289.676" y1="-439.753" y2="-436.322" xlink:href="#u" gradientUnits="userSpaceOnUse"/><linearGradient x1="286.512" x2="289.854" y1="-441.291" y2="-436.145" xlink:href="#v" gradientUnits="userSpaceOnUse"/><linearGradient x1="285.941" x2="289.391" y1="-439.939" y2="-436.443" xlink:href="#s" gradientUnits="userSpaceOnUse"/><linearGradient x1="275.942" x2="279.975" y1="-437.105" y2="-431.918" xlink:href="#x" gradientUnits="userSpaceOnUse"/><linearGradient x1="286.666" x2="289.766" y1="-439.484" y2="-436.707" xlink:href="#w" gradientUnits="userSpaceOnUse"/><linearGradient x1="284.802" x2="288.9" y1="-441.233" y2="-436.831" xlink:href="#s" gradientUnits="userSpaceOnUse"/><linearGradient x1="286.246" x2="290.121" y1="-434.732" y2="-439.69" xlink:href="#u" gradientUnits="userSpaceOnUse"/><linearGradient x1="287.147" x2="289.473" y1="-434.809" y2="-437.594" xlink:href="#v" gradientUnits="userSpaceOnUse"/><linearGradient x1="286.014" x2="288.375" y1="-435.546" y2="-438.971" xlink:href="#s" gradientUnits="userSpaceOnUse"/><linearGradient x1="276.614" x2="283.463" y1="-431" y2="-438.722" xlink:href="#t" gradientUnits="userSpaceOnUse"/><linearGradient x1="286.295" x2="289.395" y1="-435.628" y2="-438.19" xlink:href="#w" gradientUnits="userSpaceOnUse"/><linearGradient x1="286.415" x2="290.078" y1="-435.784" y2="-439.289" xlink:href="#s" gradientUnits="userSpaceOnUse"/><linearGradient x1="286.415" x2="288.375" y1="-435.784" y2="-437.888" xlink:href="#s" gradientUnits="userSpaceOnUse"/><linearGradient x1="271.022" x2="285.029" y1="-441.052" y2="-431.97" xlink:href="#t" gradientUnits="userSpaceOnUse" gradientTransform="matrix(1.452 0 0 1.286 -383.21 574.384)"/><linearGradient x1="29.124" x2="27.356" y1="38.897" y2="34.879" xlink:href="#p" gradientUnits="userSpaceOnUse"/><linearGradient x1="29.124" x2="27.356" y1="38.897" y2="34.879" xlink:href="#o" gradientUnits="userSpaceOnUse" gradientTransform="matrix(.917 -.399 .399 .917 -4.08 7.972)"/><linearGradient x1="29.124" x2="27.356" y1="38.897" y2="34.879" xlink:href="#o" gradientUnits="userSpaceOnUse" gradientTransform="matrix(.917 -.399 .399 .917 -54.003 6.24)"/><linearGradient x1="29.124" x2="27.356" y1="38.897" y2="34.879" xlink:href="#p" gradientUnits="userSpaceOnUse" gradientTransform="translate(-49.922 -1.733)"/><linearGradient x1="271.022" x2="285.029" y1="-441.052" y2="-431.97" xlink:href="#t" gradientUnits="userSpaceOnUse" gradientTransform="matrix(1.452 0 0 1.286 -433.132 572.652)"/><radialGradient id="W" cx="24.803" cy="22.491" r="9.718" xlink:href="#B" fx="24.803" fy="22.491" gradientTransform="matrix(1.322 .015 -.016 1.44 -7.616 -11.273)" gradientUnits="userSpaceOnUse"/></defs><g><g><path fill="url(#C)" fill-rule="evenodd" d="M41.9 44.42c0 1.98-8.3 3.58-18.57 3.58-10.25 0-18.56-1.6-18.56-3.58s8.3-3.58 18.56-3.58c10.26 0 18.57 1.6 18.57 3.58z" transform="matrix(1.148 0 0 1.148 -3.293 -6.664)" color="#000" overflow="visible"/><path fill="#c4c5c2" stroke="url(#D)" stroke-width="1.5" stroke-miterlimit="2" d="M43.5 22.88c.55.86 1.58 2.9 1.58 3.94 0 2.25-1.46 4.13-3.53 5.16.27.7.52 1.4.52 2.16 0 3.68-3.38 6.66-7.53 6.66-1.26 0-2.4-.35-3.44-.83-.92 2.76-3.7 4.82-7.1 4.82-3.43 0-6.2-2.07-7.12-4.83-1.04.48-2.17.83-3.43.83-4.16 0-7.54-2.98-7.54-6.66 0-.77.26-1.47.53-2.16-2.07-1.03-3.53-2.9-3.53-5.16 0-1.2.4-4 1-5-.65-.96-.98-2-.98-3.08 0-2.24 1.46-4.13 3.53-5.16-.27-.7-.52-1.4-.52-2.16 0-3.67 3.38-6.65 7.53-6.65 1.26 0 2.4.34 3.44.83.92-2.76 3.7-4.83 7.1-4.83 3.43 0 6.2 2.07 7.12 4.83 1.04-.5 2.17-.83 3.43-.83 4.16 0 7.54 2.98 7.54 6.65 0 .77-.26 1.47-.53 2.16 2.07 1.03 3.53 2.92 3.53 5.16 0 1.02-1.08 3.3-1.6 4.14z" transform="translate(.164 -.083)"/><g><path fill="#c4c5c2" d="M29.4 7.18c0 2.6-2.4 4.7-5.34 4.7s-5.33-2.1-5.33-4.7 2.4-4.7 5.33-4.7c2.94 0 5.33 2.1 5.33 4.7z"/><path fill="url(#E)" d="M291.7-437.6c0 1.84-1.5 3.32-3.32 3.32-1.83 0-3.32-1.48-3.32-3.3 0-1.84 1.5-3.33 3.3-3.33 1.84 0 3.33 1.48 3.33 3.3z" transform="matrix(1.61 0 0 1.423 -439.934 629.44)"/></g><path fill="#c4c5c2" d="M9.72 10.58H40.2l-.02 12.1H9.73z"/><path fill="#c4c5c2" d="M14.42 18.56c0 2.23-2.04 4.04-4.57 4.04-2.52 0-4.57-1.8-4.57-4.04 0-2.23 2.05-4.04 4.57-4.04 2.53 0 4.57 1.8 4.57 4.04z"/><g><path fill="#c4c5c2" d="M40.05 11.22c0 2.6-2.38 4.7-5.33 4.7-2.94 0-5.33-2.1-5.33-4.7s2.38-4.7 5.32-4.7c2.95 0 5.33 2.1 5.33 4.7z"/><path fill="url(#F)" d="M291.7-437.6c0 1.84-1.5 3.32-3.32 3.32-1.83 0-3.32-1.48-3.32-3.3 0-1.84 1.5-3.33 3.3-3.33 1.84 0 3.33 1.48 3.33 3.3z" transform="matrix(1.61 0 0 1.423 -429.273 633.478)"/></g><g><path fill="#c4c5c2" d="M18.73 11.22c0 2.6-2.4 4.7-5.33 4.7-2.94 0-5.33-2.1-5.33-4.7s2.4-4.7 5.33-4.7c2.94 0 5.33 2.1 5.33 4.7z"/><path fill="url(#G)" d="M291.7-437.6c0 1.84-1.5 3.32-3.32 3.32-1.83 0-3.32-1.48-3.32-3.3 0-1.84 1.5-3.33 3.3-3.33 1.84 0 3.33 1.48 3.33 3.3z" transform="matrix(1.61 0 0 1.423 -450.595 633.478)"/></g><g><path fill="#c4c5c2" d="M22.55 6.47c-5.45 0-9.85 3.93-9.85 8.75 0 3.2 2.05 5.84 4.95 7.36h9.85c2.9-1.52 4.95-4.2 4.95-7.4 0-4.82-4.45-8.7-9.9-8.7z"/><path fill="url(#H)" d="M280.5-441c-3.6 0-6.5 2.9-6.5 6.5 0 2.38 1.34 4.37 3.25 5.5h6.5c1.9-1.13 3.25-3.12 3.25-5.5 0-3.6-2.9-6.5-6.5-6.5z" transform="matrix(1.523 0 0 1.346 -404.603 600.012)"/></g><path fill="url(#I)" d="M291.7-437.6c0 1.84-1.5 3.32-3.32 3.32-1.83 0-3.32-1.48-3.32-3.3 0-1.84 1.5-3.33 3.3-3.33 1.84 0 3.33 1.48 3.33 3.3z" transform="matrix(1.38 0 0 1.219 -388.106 551.985)"/><g><path fill="#c4c5c2" d="M35.8 17.33c0 2.97-2.74 5.38-6.1 5.38-3.37 0-6.1-2.4-6.1-5.37 0-2.98 2.73-5.4 6.1-5.4 3.36 0 6.1 2.42 6.1 5.4z"/><path fill="url(#J)" d="M291.7-437.6c0 1.84-1.5 3.32-3.32 3.32-1.83 0-3.32-1.48-3.32-3.3 0-1.84 1.5-3.33 3.3-3.33 1.84 0 3.33 1.48 3.33 3.3z" transform="matrix(1.84 0 0 1.626 -500.918 728.416)"/></g><g><path fill="#c4c5c2" d="M29.37 38.3c0-2.6-2.38-4.7-5.33-4.7-2.94 0-5.33 2.1-5.33 4.7s2.4 4.7 5.34 4.7c2.95 0 5.33-2.1 5.33-4.7z"/><path fill="url(#K)" d="M291.7-437.6c0 1.84-1.5 3.32-3.32 3.32-1.83 0-3.32-1.48-3.32-3.3 0-1.84 1.5-3.33 3.3-3.33 1.84 0 3.33 1.48 3.33 3.3z" transform="matrix(1.61 0 0 -1.423 -439.952 -583.957)"/></g><path fill="#c4c5c2" d="M9.7 34.9h30.47V22.8H9.7z"/><path fill="#c4c5c2" d="M14.4 26.93c0-2.23-2.04-4.04-4.57-4.04-2.52 0-4.57 1.8-4.57 4.03 0 2.23 2.05 4.03 4.57 4.03 2.53 0 4.57-1.8 4.57-4.03z"/><g><path fill="#c4c5c2" d="M40.03 34.26c0-2.6-2.38-4.7-5.33-4.7-2.94 0-5.33 2.1-5.33 4.7s2.4 4.7 5.33 4.7c2.95 0 5.33-2.1 5.33-4.7z"/><path fill="url(#L)" d="M291.7-437.6c0 1.84-1.5 3.32-3.32 3.32-1.83 0-3.32-1.48-3.32-3.3 0-1.84 1.5-3.33 3.3-3.33 1.84 0 3.33 1.48 3.33 3.3z" transform="matrix(1.61 0 0 -1.423 -429.291 -587.995)"/></g><g><path fill="#c4c5c2" d="M18.7 34.26c0-2.6-2.37-4.7-5.32-4.7-2.94 0-5.33 2.1-5.33 4.7s2.4 4.7 5.33 4.7c2.95 0 5.33-2.1 5.33-4.7z"/><path fill="url(#M)" d="M291.7-437.6c0 1.84-1.5 3.32-3.32 3.32-1.83 0-3.32-1.48-3.32-3.3 0-1.84 1.5-3.33 3.3-3.33 1.84 0 3.33 1.48 3.33 3.3z" transform="matrix(1.61 0 0 -1.423 -450.613 -587.995)"/></g><g><path fill="#c4c5c2" d="M22.53 39c-5.45 0-9.85-3.92-9.85-8.73 0-3.2 2.06-5.84 4.95-7.36h9.85c2.9 1.53 4.95 4.22 4.95 7.4 0 4.83-4.45 8.7-9.9 8.7z"/><path fill="url(#N)" d="M280.5-441c-3.6 0-6.5 2.9-6.5 6.5 0 2.38 1.34 4.37 3.25 5.5h6.5c1.9-1.13 3.25-3.12 3.25-5.5 0-3.6-2.9-6.5-6.5-6.5z" transform="matrix(1.523 0 0 -1.346 -404.622 -554.529)"/></g><path fill="url(#O)" d="M291.7-437.6c0 1.84-1.5 3.32-3.32 3.32-1.83 0-3.32-1.48-3.32-3.3 0-1.84 1.5-3.33 3.3-3.33 1.84 0 3.33 1.48 3.33 3.3z" transform="matrix(1.38 0 0 -1.219 -388.124 -506.501)"/><g><path fill="#c4c5c2" d="M31.68 25.45c0-2.98-2.73-5.4-6.1-5.4-3.36 0-6.1 2.42-6.1 5.4 0 2.97 2.74 5.38 6.1 5.38 3.37 0 6.1-2.4 6.1-5.38z"/><path fill="url(#P)" d="M291.7-437.6c0 1.84-1.5 3.32-3.32 3.32-1.83 0-3.32-1.48-3.32-3.3 0-1.84 1.5-3.33 3.3-3.33 1.84 0 3.33 1.48 3.33 3.3z" transform="matrix(1.84 0 0 -1.626 -505.027 -685.643)"/></g><g><path fill="#c4c5c2" d="M41.3 22.48c0-2.97-2.72-5.38-6.1-5.38-3.36 0-6.1 2.4-6.1 5.38s2.74 5.4 6.1 5.4c3.38 0 6.1-2.42 6.1-5.4z"/><path fill="url(#Q)" d="M291.7-437.6c0 1.84-1.5 3.32-3.32 3.32-1.83 0-3.32-1.48-3.32-3.3 0-1.84 1.5-3.33 3.3-3.33 1.84 0 3.33 1.48 3.33 3.3z" transform="matrix(1.84 0 0 -1.626 -495.401 -688.605)"/></g><path fill="url(#R)" stroke="#fff" stroke-opacity=".502" stroke-miterlimit="2" d="M5.5 22.05c-1 .98-1.17 3.52-1.17 4.97 0 1.9 1.6 3.58 3.53 4.5-.25.64-.64 1.48-.64 2.18 0 3.35 2.76 5.93 6.7 5.93 1.18 0 2.65-.7 3.62-1.16.98 3.23 3.1 5.2 6.28 5.2s5.6-2.05 6.55-5.17c.97.44 2.77 1.16 3.95 1.16 3.86 0 6.33-2.6 6.33-5.96 0-.7-.42-1.7-.67-2.3 1.92-.95 3.54-2.33 3.54-4.38 0-1.34-.85-2.48-1.76-4.06.88-1.6 1.77-2.98 1.77-4.4 0-2.04-1.6-3.42-3.53-4.36.25-.62.67-1.6.67-2.3C40.67 8.53 37.6 6 33.74 6c-1.17 0-2.4.63-3.36 1.07-.94-3.13-3.26-4.93-6.44-4.93-3.18 0-5.4 1.72-6.38 4.95-.97-.45-2.25-1.08-3.42-1.08-3.94 0-6.9 2.5-6.9 5.85 0 .7.4 1.7.64 2.33-1.92.94-3.54 2.43-3.54 4.34 0 1.4.23 2.5 1.17 3.48z" transform="translate(.164 -.083)"/><path fill="#888a85" fill-rule="evenodd" d="M42.72 12.33c0 3.53-4.86 4.88-4.86 4.88s3.5-2.12 3.47-4.86c0 0 1.4 0 1.4 0z"/><path fill="url(#S)" fill-rule="evenodd" d="M31.8 41.03c-3.83-.63-4.44-6.15-4.44-6.15s1.7 4.18 4.68 4.64c0 0-.23 1.5-.23 1.5z" transform="translate(.164 -.083)"/><path fill="url(#T)" fill-rule="evenodd" d="M41.46 32.9c-3.76.95-6.53-3.87-6.53-3.87s3.23 3.14 6.14 2.38c0 0 .4 1.5.4 1.5z" transform="translate(.164 -.083)"/></g><path fill="none" stroke="#fff" stroke-miterlimit="6" d="M108.02-3.18v12.3h-5.98L92.3 28l-.45-18.87H85.8v-12.3H108z" color="#000" overflow="visible"/><path fill="url(#U)" stroke="#2e3436" stroke-width="1.018" stroke-miterlimit="2" d="M18.2 19.22h21.33c1.56 0 2.97.9 3.93 1.73l4.08 3.54-2.7 19.68c-.38 2.82-2.36 5.32-5.3 5.32l-20.47 2.4-4.6-3.94c-1.04-.9-1.58-2.3-1.58-3.78V24.54c0-2.95 2.36-5.32 5.3-5.32z" transform="matrix(.964 -.265 0 1 0 0)" color="#000" overflow="visible" enable-background="accumulate"/><rect width="31.957" height="30.275" x="17.353" y="23.113" fill="url(#V)" stroke="#2e3436" stroke-width="1.018" stroke-miterlimit="2" transform="matrix(.964 -.265 0 1 0 0)" enable-background="accumulate" ry="5.319" overflow="visible" color="#000"/><rect width="24.383" height="23.131" x="21.45" y="26.72" fill="#2e3436" transform="matrix(.964 -.265 0 1 0 0)" ry="4.064" color="#000" overflow="visible" enable-background="accumulate"/><path fill="url(#W)" d="M39.3 15.9c-.3.66-.6 1.25-.82 1.6.54.85 1.58 2.88 1.58 3.94 0 2.24-1.46 4.13-3.53 5.15.27.68.52 1.4.52 2.16 0 3.67-3.38 6.65-7.53 6.65-1.27 0-2.4-.34-3.44-.82-.75 2.25-2.73 4.04-5.28 4.62l-.18-14.42 2.66-4.53z"/><rect width="30.002" height="28.431" x="18.331" y="24.038" fill="none" stroke="#fff" stroke-width="1.018" stroke-miterlimit="2" ry="4.229" transform="matrix(.964 -.265 0 1 0 0)" overflow="visible" enable-background="accumulate" color="#000"/><path fill="none" stroke="#4e9a06" stroke-width="3" stroke-miterlimit="2" d="M39.3 15.9c-.3.66-.6 1.25-.82 1.6.54.85 1.58 2.88 1.58 3.94 0 2.24-1.46 4.13-3.53 5.15.27.68.52 1.4.52 2.16 0 3.67-3.38 6.65-7.53 6.65-1.27 0-2.4-.34-3.44-.82-.75 2.25-2.73 4.04-5.28 4.62"/><path fill="none" stroke="#8ae234" stroke-width="1.5" stroke-miterlimit="2" d="M39.3 15.9c-.3.66-.6 1.25-.82 1.6.54.85 1.58 2.88 1.58 3.94 0 2.24-1.46 4.13-3.53 5.15.27.68.52 1.4.52 2.16 0 3.67-3.38 6.65-7.53 6.65-1.27 0-2.4-.34-3.44-.82-.75 2.25-2.73 4.04-5.28 4.62"/><path fill="none" stroke="#eeeeec" stroke-width=".5" stroke-miterlimit="2" d="M39.3 15.9c-.3.66-.6 1.25-.82 1.6.54.85 1.58 2.88 1.58 3.94 0 2.24-1.46 4.13-3.53 5.15.27.68.52 1.4.52 2.16 0 3.67-3.38 6.65-7.53 6.65-1.27 0-2.4-.34-3.44-.82-.75 2.25-2.73 4.04-5.28 4.62"/><rect width="24.383" height="23.131" x="21.45" y="26.72" fill="none" stroke="url(#X)" stroke-width="2.037" stroke-miterlimit="2" transform="matrix(.964 -.265 0 1 0 0)" ry="4.064" overflow="visible" enable-background="accumulate" color="#000"/></g></svg>