<svg xmlns="http://www.w3.org/2000/svg" width="48" height="48" xmlns:xlink="http://www.w3.org/1999/xlink"><defs><linearGradient id="k"><stop offset="0" stop-color="#eeeeec"/><stop offset="1" stop-color="#eeeeec" stop-opacity="0"/></linearGradient><linearGradient id="j"><stop offset="0" stop-color="#74726e"/><stop offset="1" stop-color="#5d5b58" stop-opacity="0"/></linearGradient><linearGradient id="i"><stop offset="0" stop-color="#5d5b58"/><stop offset="1" stop-color="#5d5b58" stop-opacity="0"/></linearGradient><linearGradient id="h"><stop offset="0" stop-color="#888a85"/><stop offset="1" stop-color="#51534f"/></linearGradient><linearGradient id="g"><stop offset="0" stop-color="#2e3436" stop-opacity=".619"/><stop offset="1" stop-color="#2e3436" stop-opacity="0"/></linearGradient><linearGradient id="e"><stop offset="0" stop-color="#fff"/><stop offset="1" stop-color="#fff" stop-opacity="0"/></linearGradient><linearGradient id="d"><stop offset="0" stop-color="#fff"/><stop offset="1" stop-color="#fff" stop-opacity="0"/></linearGradient><linearGradient id="c"><stop offset="0" stop-color="#fff"/><stop offset="1" stop-color="#fff" stop-opacity="0"/></linearGradient><linearGradient id="b"><stop offset="0" stop-color="#fff"/><stop offset="1" stop-color="#fff" stop-opacity="0"/></linearGradient><linearGradient id="a"><stop offset="0" stop-color="#fff"/><stop offset="1" stop-color="#fff" stop-opacity="0"/></linearGradient><linearGradient id="f"><stop offset="0" stop-color="#fff"/><stop offset="1" stop-color="#fff" stop-opacity="0"/></linearGradient><linearGradient id="n" x1="287.517" x2="289.676" y1="-439.753" y2="-436.322" xlink:href="#a" gradientUnits="userSpaceOnUse"/><linearGradient id="o" x1="286.512" x2="289.854" y1="-441.291" y2="-436.145" xlink:href="#b" gradientUnits="userSpaceOnUse"/><linearGradient id="p" x1="285.941" x2="289.391" y1="-439.939" y2="-436.443" xlink:href="#c" gradientUnits="userSpaceOnUse"/><linearGradient id="q" x1="275.942" x2="279.975" y1="-437.105" y2="-431.918" xlink:href="#d" gradientUnits="userSpaceOnUse"/><linearGradient id="r" x1="286.666" x2="289.766" y1="-439.484" y2="-436.707" xlink:href="#e" gradientUnits="userSpaceOnUse"/><linearGradient id="s" x1="284.802" x2="288.9" y1="-441.233" y2="-436.831" xlink:href="#c" gradientUnits="userSpaceOnUse"/><linearGradient id="y" x1="286.415" x2="290.078" y1="-435.784" y2="-439.289" xlink:href="#c" gradientUnits="userSpaceOnUse"/><linearGradient id="x" x1="286.295" x2="289.395" y1="-435.628" y2="-438.19" xlink:href="#e" gradientUnits="userSpaceOnUse"/><linearGradient id="w" x1="276.614" x2="283.463" y1="-431" y2="-438.722" xlink:href="#f" gradientUnits="userSpaceOnUse"/><linearGradient id="v" x1="286.014" x2="288.375" y1="-435.546" y2="-438.971" xlink:href="#c" gradientUnits="userSpaceOnUse"/><linearGradient id="u" x1="287.147" x2="289.473" y1="-434.809" y2="-437.594" xlink:href="#b" gradientUnits="userSpaceOnUse"/><linearGradient id="t" x1="286.246" x2="290.121" y1="-434.732" y2="-439.69" xlink:href="#a" gradientUnits="userSpaceOnUse"/><linearGradient id="A" x1="271.022" x2="285.029" y1="-441.052" y2="-431.97" xlink:href="#f" gradientUnits="userSpaceOnUse" gradientTransform="matrix(.827 0 0 .733 -208.069 337.419)"/><linearGradient id="z" x1="286.415" x2="288.375" y1="-435.784" y2="-437.888" xlink:href="#c" gradientUnits="userSpaceOnUse"/><radialGradient id="l" cx="23.335" cy="44.42" r="18.562" xlink:href="#g" fx="23.335" fy="44.42" gradientTransform="matrix(1 0 0 .193 0 35.854)" gradientUnits="userSpaceOnUse"/><linearGradient id="m" x1="20.73" x2="23.296" y1="29.815" y2="45.056" xlink:href="#h" gradientUnits="userSpaceOnUse" gradientTransform="matrix(.564 0 0 .564 10.474 9.93)"/><linearGradient id="B" x1="29.124" x2="27.356" y1="38.897" y2="34.879" xlink:href="#i" gradientUnits="userSpaceOnUse" gradientTransform="matrix(.57 0 0 .57 10.323 9.787)"/><linearGradient id="C" x1="29.124" x2="27.356" y1="38.897" y2="34.879" xlink:href="#j" gradientUnits="userSpaceOnUse" gradientTransform="matrix(.522 -.228 .228 .523 7.997 14.334)"/><linearGradient id="E" x1="20.73" x2="23.296" y1="29.815" y2="45.056" xlink:href="#h" gradientUnits="userSpaceOnUse" gradientTransform="matrix(.961 0 0 .961 .926 .882)"/><radialGradient id="D" cx="24" cy="22.782" r="21.261" xlink:href="#k" fx="24" fy="22.782" gradientTransform="matrix(1 0 0 1.041 0 -.944)" gradientUnits="userSpaceOnUse"/></defs><g><path fill="url(#l)" fill-rule="evenodd" d="M41.9 44.42a18.56 3.58 0 1 1-37.13 0 18.56 3.58 0 1 1 37.13 0z" transform="matrix(1.148 0 0 1.148 -3.457 -6.581)" color="#000" overflow="visible"/><path fill="#c4c5c2" stroke="url(#m)" stroke-width="1.5" stroke-miterlimit="2" d="M35.12 22.84c.3.5.9 1.65.9 2.25 0 1.27-.84 2.34-2.02 2.93.16.4.3.8.3 1.23 0 2.1-1.93 3.8-4.3 3.8-.7 0-1.36-.2-1.95-.48-.53 1.58-2.1 2.76-4.05 2.76-1.95 0-3.53-1.18-4.06-2.76-.6.28-1.24.48-1.95.48-2.38 0-4.3-1.7-4.3-3.8 0-.44.13-.84.3-1.23-1.2-.6-2.02-1.66-2.02-2.94 0-.7.22-2.3.57-2.87-.37-.54-.56-1.13-.56-1.75 0-1.28.82-2.36 2-2.95-.16-.4-.3-.8-.3-1.23 0-2.1 1.93-3.8 4.3-3.8.7 0 1.36.2 1.95.48.53-1.58 2.1-2.75 4.06-2.75 1.95 0 3.53 1.17 4.06 2.75.6-.28 1.24-.47 1.96-.47 2.36 0 4.3 1.7 4.3 3.8 0 .44-.15.84-.3 1.23 1.17.6 2 1.67 2 2.95 0 .58-.6 1.88-.9 2.36z"/><g><path fill="#c4c5c2" d="M26.98 13.98c0 1.48-1.36 2.7-3.03 2.7-1.68 0-3.04-1.22-3.04-2.7 0-1.48 1.37-2.7 3.05-2.7 1.67 0 3.03 1.22 3.03 2.7z"/><path fill="url(#n)" d="M291.7-437.6c0 1.84-1.5 3.32-3.32 3.32-1.83 0-3.32-1.48-3.32-3.3 0-1.84 1.5-3.33 3.3-3.33 1.84 0 3.33 1.48 3.33 3.3z" transform="matrix(.917 0 0 .812 -240.491 368.876)"/></g><path fill="#c4c5c2" d="M15.77 15.87h17.36v6.9H15.77z"/><path fill="#c4c5c2" d="M18.37 20.48a2.6 2.3 0 1 1-5.2 0 2.6 2.3 0 1 1 5.2 0z"/><g><path fill="#c4c5c2" d="M33.06 16.28c0 1.5-1.36 2.7-3.04 2.7-1.67 0-3.03-1.2-3.03-2.7 0-1.48 1.35-2.68 3.02-2.68 1.68 0 3.04 1.2 3.04 2.68z"/><path fill="url(#o)" d="M291.7-437.6c0 1.84-1.5 3.32-3.32 3.32-1.83 0-3.32-1.48-3.32-3.3 0-1.84 1.5-3.33 3.3-3.33 1.84 0 3.33 1.48 3.33 3.3z" transform="matrix(.917 0 0 .812 -234.415 371.18)"/></g><g><path fill="#c4c5c2" d="M20.9 16.28c0 1.5-1.35 2.7-3.03 2.7-1.68 0-3.04-1.2-3.04-2.7 0-1.48 1.36-2.68 3.04-2.68s3.04 1.2 3.04 2.68z"/><path fill="url(#p)" d="M291.7-437.6c0 1.84-1.5 3.32-3.32 3.32-1.83 0-3.32-1.48-3.32-3.3 0-1.84 1.5-3.33 3.3-3.33 1.84 0 3.33 1.48 3.33 3.3z" transform="matrix(.917 0 0 .812 -246.567 371.18)"/></g><g><path fill="#c4c5c2" d="M23.12 13.6c-3.1 0-5.62 2.23-5.62 4.98 0 1.82 1.18 3.33 2.83 4.2h5.6c1.66-.87 2.83-2.4 2.83-4.22 0-2.75-2.53-4.97-5.64-4.97z"/><path fill="url(#q)" d="M280.5-441c-3.6 0-6.5 2.9-6.5 6.5 0 2.38 1.34 4.37 3.25 5.5h6.5c1.9-1.13 3.25-3.12 3.25-5.5 0-3.6-2.9-6.5-6.5-6.5z" transform="matrix(.868 0 0 .768 -220.355 352.085)"/></g><path fill="url(#r)" d="M291.7-437.6a3.3 3.3 0 1 1-6.64 0 3.3 3.3 0 1 1 6.63 0z" transform="matrix(.786 0 0 .695 -210.953 324.69)"/><g><path fill="#c4c5c2" d="M30.45 19.68c0 1.7-1.56 3.07-3.47 3.07-1.92 0-3.48-1.38-3.48-3.07 0-1.7 1.56-3.07 3.48-3.07 1.9 0 3.47 1.38 3.47 3.08z"/><path fill="url(#s)" d="M291.7-437.6c0 1.84-1.5 3.32-3.32 3.32-1.83 0-3.32-1.48-3.32-3.3 0-1.84 1.5-3.33 3.3-3.33 1.84 0 3.33 1.48 3.33 3.3z" transform="matrix(1.049 0 0 .927 -275.238 425.321)"/></g><g><path fill="#c4c5c2" d="M26.97 31.63c0-1.48-1.36-2.68-3.03-2.68-1.68 0-3.04 1.2-3.04 2.68 0 1.5 1.36 2.7 3.04 2.7 1.67 0 3.03-1.2 3.03-2.7z"/><path fill="url(#t)" d="M291.7-437.6c0 1.84-1.5 3.32-3.32 3.32-1.83 0-3.32-1.48-3.32-3.3 0-1.84 1.5-3.33 3.3-3.33 1.84 0 3.33 1.48 3.33 3.3z" transform="matrix(.917 0 0 -.812 -240.501 -323.264)"/></g><path fill="#c4c5c2" d="M15.76 29.74h17.36v-6.9H15.76z"/><path fill="#c4c5c2" d="M18.36 25.14c0-1.78-2.17-2.88-3.9-2-.8.4-1.3 1.17-1.3 2 0 1.77 2.16 2.88 3.9 2 .8-.42 1.3-1.18 1.3-2z"/><g><path fill="#c4c5c2" d="M33.05 29.33c0-1.48-1.36-2.7-3.04-2.7-1.66 0-3.02 1.22-3.02 2.7 0 1.48 1.36 2.7 3.03 2.7 1.7 0 3.05-1.22 3.05-2.7z"/><path fill="url(#u)" d="M291.7-437.6c0 1.84-1.5 3.32-3.32 3.32-1.83 0-3.32-1.48-3.32-3.3 0-1.84 1.5-3.33 3.3-3.33 1.84 0 3.33 1.48 3.33 3.3z" transform="matrix(.917 0 0 -.812 -234.425 -325.568)"/></g><g><path fill="#c4c5c2" d="M20.9 29.33c0-1.48-1.36-2.7-3.04-2.7s-3.04 1.22-3.04 2.7c0 1.48 1.36 2.7 3.04 2.7s3.04-1.22 3.04-2.7z"/><path fill="url(#v)" d="M291.7-437.6c0 1.84-1.5 3.32-3.32 3.32-1.83 0-3.32-1.48-3.32-3.3 0-1.84 1.5-3.33 3.3-3.33 1.84 0 3.33 1.48 3.33 3.3z" transform="matrix(.917 0 0 -.812 -246.577 -325.568)"/></g><g><path fill="#c4c5c2" d="M23.1 32.02c-3.1 0-5.6-2.24-5.6-5 0-1.8 1.17-3.32 2.82-4.2h5.6c1.66.88 2.83 2.42 2.83 4.24 0 2.74-2.53 4.96-5.64 4.96z"/><path fill="url(#w)" d="M280.5-441c-3.6 0-6.5 2.9-6.5 6.5 0 2.38 1.34 4.37 3.25 5.5h6.5c1.9-1.13 3.25-3.12 3.25-5.5 0-3.6-2.9-6.5-6.5-6.5z" transform="matrix(.868 0 0 -.768 -220.365 -306.473)"/></g><path fill="url(#x)" d="M291.7-437.6a3.3 3.3 0 1 1-6.64 0 3.3 3.3 0 1 1 6.63 0z" transform="matrix(.786 0 0 -.695 -210.964 -279.077)"/><g><path fill="#c4c5c2" d="M28.1 24.4c0-1.7-1.55-3.08-3.47-3.08-1.9 0-3.47 1.37-3.47 3.07 0 1.68 1.56 3.06 3.47 3.06 1.92 0 3.47-1.38 3.47-3.07z"/><path fill="url(#y)" d="M291.7-437.6c0 1.84-1.5 3.32-3.32 3.32-1.83 0-3.32-1.48-3.32-3.3 0-1.84 1.5-3.33 3.3-3.33 1.84 0 3.33 1.48 3.33 3.3z" transform="matrix(1.049 0 0 -.927 -277.58 -381.254)"/></g><g><path fill="#c4c5c2" d="M33.6 22.7c0-1.7-1.56-3.07-3.48-3.07S26.65 21 26.65 22.7c0 1.7 1.55 3.07 3.47 3.07 1.92 0 3.47-1.38 3.47-3.07z"/><path fill="url(#z)" d="M291.7-437.6c0 1.84-1.5 3.32-3.32 3.32-1.83 0-3.32-1.48-3.32-3.3 0-1.84 1.5-3.33 3.3-3.33 1.84 0 3.33 1.48 3.33 3.3z" transform="matrix(1.049 0 0 -.927 -272.094 -382.944)"/></g><path fill="url(#A)" stroke="#fff" stroke-opacity=".502" stroke-miterlimit="2" d="M13.46 22.36c-.56.56-.67 2-.67 2.84 0 1.1.9 2.04 2 2.57-.14.36-.36.84-.36 1.24 0 1.92 1.57 3.4 3.82 3.4.67 0 1.5-.42 2.06-.67.56 1.84 1.77 2.97 3.58 2.97 1.8 0 3.2-1.18 3.73-2.95.55.25 1.58.66 2.25.66 2.2 0 3.6-1.48 3.6-3.4 0-.4-.23-.95-.37-1.3 1.1-.54 2.02-1.33 2.02-2.5 0-.77-.48-1.42-1-2.32.5-.9 1-1.7 1-2.5 0-1.17-.9-1.96-2-2.5.14-.35.38-.9.38-1.3 0-1.92-1.75-3.36-3.95-3.36-.67 0-1.36.36-1.9.6-.55-1.77-1.87-2.8-3.68-2.8-1.82 0-3.1 1-3.64 2.83-.55-.26-1.28-.62-1.95-.62-2.25 0-3.93 1.43-3.93 3.34 0 .4.22.98.36 1.34-1.08.54-2 1.4-2 2.48 0 .8.13 1.43.66 1.98z"/><path fill="#888a85" fill-rule="evenodd" d="M34.58 16.87c0 2-2.78 2.78-2.78 2.78s2-1.22 2-2.78c0 0 .78 0 .78 0z"/><path fill="url(#B)" fill-rule="evenodd" d="M28.45 33.2c-2.2-.37-2.54-3.52-2.54-3.52s1 2.38 2.68 2.65c0 0-.13.86-.13.86z"/><path fill="url(#C)" fill-rule="evenodd" d="M33.95 28.55c-2.14.54-3.72-2.2-3.72-2.2s1.84 1.8 3.5 1.35c0 0 .22.85.22.85z"/><path fill="url(#D)" stroke="url(#E)" stroke-width="1.5" stroke-miterlimit="2" d="M42.96 22.88c.53.83 1.53 2.8 1.53 3.83 0 2.2-1.43 4.03-3.44 5.02.27.67.5 1.36.5 2.1 0 3.58-3.28 6.47-7.32 6.47-1.22 0-2.32-.34-3.34-.82-.9 2.7-3.58 4.7-6.9 4.7-3.33 0-6.03-2-6.92-4.7-1 .48-2.1.8-3.34.8-4.04 0-7.32-2.88-7.32-6.45 0-.75.24-1.44.5-2.1-2-1-3.43-2.84-3.43-5.02 0-1.15.37-3.88.97-4.86-.64-.92-.96-1.92-.96-3 0-2.17 1.43-4 3.44-5-.27-.67-.5-1.35-.5-2.1 0-3.57 3.28-6.47 7.32-6.47 1.22 0 2.32.34 3.34.8C18 3.4 20.68 1.4 24 1.4c3.33 0 6.03 2 6.92 4.68 1-.47 2.1-.8 3.34-.8 4.04 0 7.32 2.9 7.32 6.46 0 .75-.24 1.43-.5 2.1 2 1 3.43 2.83 3.43 5 0 1-1.04 3.22-1.54 4.04z" stroke-dasharray="3,1.5"/></g></svg>