<svg xmlns="http://www.w3.org/2000/svg" width="48" height="48" xmlns:xlink="http://www.w3.org/1999/xlink"><defs><linearGradient id="e"><stop offset="0" stop-color="#fcaf3e"/><stop offset="1" stop-color="#f57900"/></linearGradient><linearGradient id="c"><stop offset="0" stop-color="#729fcf" stop-opacity="0"/><stop offset=".651" stop-color="#729fcf" stop-opacity="0"/><stop offset="1" stop-color="#729fcf"/></linearGradient><linearGradient id="a"><stop offset="0" stop-color="#fff"/><stop offset="1" stop-color="#bfd0dc"/></linearGradient><linearGradient x1="4.492" x2="46.335" y1="25.08" y2="24.778" xlink:href="#a" gradientUnits="userSpaceOnUse" gradientTransform="matrix(.988 0 0 1.154 -.983 -6.321)"/><radialGradient id="b" cx="257.459" cy="35.376" r="68.717" fx="257.459" fy="35.376" gradientUnits="userSpaceOnUse"><stop offset="0" stop-color="#eeeff1"/><stop offset="1" stop-color="#8794A0"/></radialGradient><linearGradient x1="4.492" x2="46.335" y1="25.08" y2="24.778" xlink:href="#b" gradientUnits="userSpaceOnUse" gradientTransform="matrix(.988 0 0 1.154 -.983 -6.321)"/><linearGradient><stop offset="0" stop-color="#fedba7"/><stop offset="1" stop-color="#fdbf64"/></linearGradient><linearGradient><stop offset="0" stop-color="#ffa54c"/><stop offset="1" stop-color="#f57900"/></linearGradient><radialGradient cx="31.079" cy="27.778" r="13.505" xlink:href="#c" fx="31.079" fy="27.778" gradientTransform="matrix(1 0 0 .873 0 3.526)" gradientUnits="userSpaceOnUse"/><radialGradient cx="31.079" cy="27.778" r="13.505" xlink:href="#c" gradientUnits="userSpaceOnUse" gradientTransform="matrix(1 0 0 .873 0 3.526)" fx="31.079" fy="27.778"/><radialGradient cx="31.079" cy="27.778" r="13.505" xlink:href="#c" gradientUnits="userSpaceOnUse" gradientTransform="matrix(1.182 0 0 1.187 -54.068 -13.563)" fx="31.079" fy="27.778"/><radialGradient cx="31.079" cy="27.778" r="13.505" xlink:href="#c" gradientUnits="userSpaceOnUse" gradientTransform="matrix(1 0 0 .873 0 3.526)" fx="31.079" fy="27.778"/><radialGradient cx="31.079" cy="27.778" r="13.505" xlink:href="#c" gradientUnits="userSpaceOnUse" gradientTransform="matrix(1.182 0 0 1.187 -11.281 -8.278)" fx="31.079" fy="27.778"/><radialGradient cx="31.079" cy="27.778" r="13.505" xlink:href="#c" gradientUnits="userSpaceOnUse" gradientTransform="matrix(1.182 0 0 1.187 -55.712 -12.928)" fx="31.079" fy="27.778"/><radialGradient cx="31.079" cy="27.778" r="13.505" xlink:href="#c" gradientUnits="userSpaceOnUse" gradientTransform="matrix(1.182 0 0 1.187 -55.725 -12.913)" fx="31.079" fy="27.778"/><radialGradient id="h" cx="31.079" cy="27.778" r="13.505" xlink:href="#c" gradientUnits="userSpaceOnUse" gradientTransform="matrix(1.182 0 0 1.187 -11.522 -9.309)" fx="31.079" fy="27.778"/><radialGradient cx="31.079" cy="27.778" r="13.505" xlink:href="#d" gradientUnits="userSpaceOnUse" gradientTransform="matrix(1 0 0 .873 0 3.526)" fx="31.079" fy="27.778"/><linearGradient id="d"><stop offset="0" stop-color="#729fcf" stop-opacity="0"/><stop offset=".651" stop-color="#729fcf" stop-opacity="0"/><stop offset="1" stop-color="#729fcf"/></linearGradient><radialGradient id="f" cx="31.079" cy="27.778" r="13.505" xlink:href="#c" gradientUnits="userSpaceOnUse" gradientTransform="matrix(1.182 0 0 1.187 -11.471 -9.358)" fx="31.079" fy="27.778"/><linearGradient id="g" x1="1.194" x2="45.12" y1="17.621" y2="20.045" xlink:href="#e" gradientUnits="userSpaceOnUse"/></defs><g><path fill="url(#f)" d="M40.78 23.6c0 3.24-6.94 5.9-15.5 5.9-8.56 0-15.5-2.66-15.5-5.9 0 8.57 6.94 15.5 15.5 15.5 8.56 0 15.5-6.93 15.5-15.5z" color="#000" overflow="visible" enable-background="accumulate"/><path fill="none" stroke="#204a87" d="M9.78 23.8c0 8.55 6.94 15.5 15.5 15.5 8.56 0 15.5-6.95 15.5-15.5" color="#000" overflow="visible" enable-background="accumulate"/><path fill="url(#g)" stroke="#a04800" d="M4 34.6l15.8-5.34c-12.75-2.2-13.47-7.93-2.13-10.4 11.87-2.57 20.73 1.53 23.1 3.3l5.96-2.1-19.05-8.38-27.1 5.46z"/><path fill="none" stroke="#fdd59a" d="M4.74 33.23l11.98-4.07c-11.43-1.98-9.75-9.08.44-11.3 10.66-2.3 21.98 1.52 24.12 3.1l2.7-.94-16.35-7.28-25.88 5.2z"/><path fill="url(#h)" d="M25.22 8.18c-8.56 0-15.5 6.94-15.5 15.5 0 3.23 6.94 5.88 15.5 5.88 8.56 0 15.5-2.65 15.5-5.88 0-8.56-6.94-15.5-15.5-15.5z" color="#000" overflow="visible" enable-background="accumulate"/><path fill="none" stroke="#204a87" stroke-opacity=".691" stroke-width="1.284" d="M26.4 38.42c-4.94-1.64-8.43-5.78-8.43-10.64 0-6.3 5.87-11.4 13.1-11.4 6.08 0 11.2 3.6 12.68 8.46z" transform="matrix(1.182 0 0 .513 -11.536 9.426)" color="#000" stroke-dasharray="1.28380004000000000, 1.28380004000000000" overflow="visible" enable-background="accumulate"/><path fill="none" stroke="#204a87" d="M40.8 24.1c0-8.57-6.93-15.5-15.5-15.5-8.55 0-15.5 6.93-15.5 15.5" color="#000" overflow="visible" enable-background="accumulate"/></g></svg>