<svg xmlns="http://www.w3.org/2000/svg" width="48" height="48" xmlns:xlink="http://www.w3.org/1999/xlink"><defs><linearGradient id="n"><stop offset="0" stop-color="#74726e"/><stop offset="1" stop-color="#5d5b58" stop-opacity="0"/></linearGradient><linearGradient id="m"><stop offset="0" stop-color="#5d5b58"/><stop offset="1" stop-color="#5d5b58" stop-opacity="0"/></linearGradient><linearGradient id="f"><stop offset="0" stop-color="#888a85"/><stop offset="1" stop-color="#51534f"/></linearGradient><linearGradient><stop offset="0" stop-color="#2e3436" stop-opacity=".619"/><stop offset="1" stop-color="#2e3436" stop-opacity="0"/></linearGradient><linearGradient id="k"><stop offset="0" stop-color="#fff"/><stop offset="1" stop-color="#fff" stop-opacity="0"/></linearGradient><linearGradient id="j"><stop offset="0" stop-color="#fff"/><stop offset="1" stop-color="#fff" stop-opacity="0"/></linearGradient><linearGradient id="i"><stop offset="0" stop-color="#fff"/><stop offset="1" stop-color="#fff" stop-opacity="0"/></linearGradient><linearGradient id="h"><stop offset="0" stop-color="#fff"/><stop offset="1" stop-color="#fff" stop-opacity="0"/></linearGradient><linearGradient id="g"><stop offset="0" stop-color="#fff"/><stop offset="1" stop-color="#fff" stop-opacity="0"/></linearGradient><linearGradient id="l"><stop offset="0" stop-color="#fff"/><stop offset="1" stop-color="#fff" stop-opacity="0"/></linearGradient><linearGradient x1="10.276" x2="14.832" y1="35.035" y2="37.582" xlink:href="#a" gradientUnits="userSpaceOnUse" gradientTransform="matrix(.83 .08 -.08 .83 86.174 1.704)"/><linearGradient id="a"><stop offset="0" stop-color="#2e3436"/><stop offset="1" stop-color="#2e3436" stop-opacity="0"/></linearGradient><linearGradient x1="23.201" x2="22.286" y1="3.505" y2="32.37" xlink:href="#b" gradientUnits="userSpaceOnUse" gradientTransform="matrix(-.834 0 0 .834 120.203 -6.058)"/><linearGradient id="b"><stop offset="0" stop-color="#d3d7cf"/><stop offset="1" stop-color="#fff"/></linearGradient><radialGradient cx="3.299" cy="3.416" r="2.751" xlink:href="#c" gradientUnits="userSpaceOnUse" fx="3.299" fy="3.416"/><linearGradient id="c"><stop offset="0" stop-color="#fff"/><stop offset="1" stop-color="#8e8e8e"/></linearGradient><linearGradient x1="23.201" x2="22.286" y1="3.505" y2="32.37" xlink:href="#b" gradientUnits="userSpaceOnUse" gradientTransform="matrix(-.495 0 0 .495 22.228 .012)"/><linearGradient x1="10.276" x2="14.832" y1="35.035" y2="37.582" xlink:href="#a" gradientUnits="userSpaceOnUse" gradientTransform="matrix(.492 .047 -.047 .493 15.218 -.091)"/><radialGradient cx="3.299" cy="3.416" r="2.751" xlink:href="#c" fx="3.299" fy="3.416" gradientUnits="userSpaceOnUse"/><linearGradient><stop offset="0" stop-color="#fff"/><stop offset="1" stop-color="#8e8e8e"/></linearGradient><radialGradient cx="3.299" cy="3.416" r="2.751" fy="3.416" fx="3.299" gradientUnits="userSpaceOnUse" xlink:href="#c"/><linearGradient x1="10.276" x2="14.832" y1="35.035" y2="37.582" xlink:href="#a" gradientUnits="userSpaceOnUse" gradientTransform="matrix(.501 .048 -.048 .501 26.188 17.5)"/><linearGradient x1="23.201" x2="22.286" y1="3.505" y2="32.37" xlink:href="#b" gradientUnits="userSpaceOnUse" gradientTransform="matrix(.503 0 0 .504 24.972 17.615)"/><radialGradient cx="3.299" cy="3.416" r="2.751" xlink:href="#c" gradientUnits="userSpaceOnUse" fx="3.299" fy="3.416"/><linearGradient x1="10.276" x2="14.832" y1="35.035" y2="37.582" xlink:href="#a" gradientUnits="userSpaceOnUse" gradientTransform="matrix(.501 .048 -.048 .501 26.129 -.295)"/><linearGradient x1="23.201" x2="22.286" y1="3.505" y2="32.37" xlink:href="#b" gradientUnits="userSpaceOnUse" gradientTransform="matrix(.503 0 0 .504 24.913 -.18)"/><radialGradient cx="3.299" cy="3.416" r="2.751" xlink:href="#c" gradientUnits="userSpaceOnUse" fx="3.299" fy="3.416"/><linearGradient x1="10.276" x2="14.832" y1="35.035" y2="37.582" xlink:href="#a" gradientUnits="userSpaceOnUse" gradientTransform="matrix(.501 .048 -.048 .501 14.992 11.785)"/><linearGradient x1="23.201" x2="22.286" y1="3.505" y2="32.37" xlink:href="#b" gradientUnits="userSpaceOnUse" gradientTransform="matrix(-.503 0 0 -.504 22.375 48.281)"/><radialGradient cx="3.299" cy="3.416" r="2.751" xlink:href="#c" gradientUnits="userSpaceOnUse" fx="3.299" fy="3.416"/><radialGradient cx="3.299" cy="3.416" r="2.751" xlink:href="#c" gradientUnits="userSpaceOnUse" fx="3.299" fy="3.416"/><linearGradient x1="-95.827" x2="-81.455" y1="297.608" y2="297.608" xlink:href="#d" gradientUnits="userSpaceOnUse" gradientTransform="matrix(.719 .784 .996 -.914 -199.349 377.414)"/><linearGradient id="d" x1="-95.827" x2="-81.455" y1="297.608" y2="297.608" gradientTransform="matrix(0 -1.064 -1.352 0 410.498 -83.416)" gradientUnits="userSpaceOnUse"><stop offset="0" stop-color="#e96712" stop-opacity="0"/><stop offset=".622" stop-color="#D52E0C"/><stop offset="1" stop-color="#CB1009"/></linearGradient><linearGradient x1="8.071" x2="8.071" y1="3.993" y2="15.429" xlink:href="#e" gradientUnits="userSpaceOnUse" gradientTransform="matrix(-.996 .914 -.904 -.985 50.213 38.027)"/><linearGradient id="e"><stop offset="0" stop-color="#590b08"/><stop offset="1" stop-opacity="0"/></linearGradient><linearGradient id="aS" x1="20.73" x2="23.296" y1="29.815" y2="45.056" xlink:href="#f" gradientUnits="userSpaceOnUse" gradientTransform="matrix(.743 0 0 .743 -1.065 .298)"/><linearGradient id="aT" x1="287.517" x2="289.676" y1="-439.753" y2="-436.322" xlink:href="#g" gradientUnits="userSpaceOnUse"/><linearGradient id="aU" x1="286.512" x2="289.854" y1="-441.291" y2="-436.145" xlink:href="#h" gradientUnits="userSpaceOnUse"/><linearGradient id="aV" x1="285.941" x2="289.391" y1="-439.939" y2="-436.443" xlink:href="#i" gradientUnits="userSpaceOnUse"/><linearGradient id="aW" x1="275.942" x2="279.975" y1="-437.105" y2="-431.918" xlink:href="#j" gradientUnits="userSpaceOnUse"/><linearGradient id="aX" x1="286.666" x2="289.766" y1="-439.484" y2="-436.707" xlink:href="#k" gradientUnits="userSpaceOnUse"/><linearGradient id="aY" x1="284.802" x2="288.9" y1="-441.233" y2="-436.831" xlink:href="#i" gradientUnits="userSpaceOnUse"/><linearGradient id="aZ" x1="286.246" x2="290.121" y1="-434.732" y2="-439.69" xlink:href="#g" gradientUnits="userSpaceOnUse"/><linearGradient id="ba" x1="287.147" x2="289.473" y1="-434.809" y2="-437.594" xlink:href="#h" gradientUnits="userSpaceOnUse"/><linearGradient id="bb" x1="286.014" x2="288.375" y1="-435.546" y2="-438.971" xlink:href="#i" gradientUnits="userSpaceOnUse"/><linearGradient id="bc" x1="276.614" x2="283.463" y1="-431" y2="-438.722" xlink:href="#l" gradientUnits="userSpaceOnUse"/><linearGradient id="bd" x1="286.295" x2="289.395" y1="-435.628" y2="-438.19" xlink:href="#k" gradientUnits="userSpaceOnUse"/><linearGradient id="be" x1="286.415" x2="290.078" y1="-435.784" y2="-439.289" xlink:href="#i" gradientUnits="userSpaceOnUse"/><linearGradient id="bf" x1="286.415" x2="288.375" y1="-435.784" y2="-437.888" xlink:href="#i" gradientUnits="userSpaceOnUse"/><linearGradient id="bg" x1="271.022" x2="285.029" y1="-441.052" y2="-431.97" xlink:href="#l" gradientUnits="userSpaceOnUse" gradientTransform="matrix(1.09 0 0 .966 -289.155 431.622)"/><linearGradient id="bh" x1="29.124" x2="27.356" y1="38.897" y2="34.879" xlink:href="#m" gradientUnits="userSpaceOnUse" gradientTransform="matrix(.751 0 0 .751 -1.265 .109)"/><linearGradient id="bi" x1="29.124" x2="27.356" y1="38.897" y2="34.879" xlink:href="#n" gradientUnits="userSpaceOnUse" gradientTransform="matrix(.689 -.3 .3 .689 -4.33 6.099)"/><radialGradient id="bj" cx="3.299" cy="3.416" r="2.751" xlink:href="#c" gradientUnits="userSpaceOnUse" fx="3.299" fy="3.416"/><linearGradient id="aA" x1="20.73" x2="23.296" y1="29.815" y2="45.056" xlink:href="#f" gradientUnits="userSpaceOnUse" gradientTransform="matrix(.743 0 0 .743 -1.065 .298)"/><linearGradient id="aB" x1="287.517" x2="289.676" y1="-439.753" y2="-436.322" xlink:href="#g" gradientUnits="userSpaceOnUse"/><linearGradient id="aC" x1="286.512" x2="289.854" y1="-441.291" y2="-436.145" xlink:href="#h" gradientUnits="userSpaceOnUse"/><linearGradient id="aD" x1="285.941" x2="289.391" y1="-439.939" y2="-436.443" xlink:href="#i" gradientUnits="userSpaceOnUse"/><linearGradient id="aE" x1="275.942" x2="279.975" y1="-437.105" y2="-431.918" xlink:href="#j" gradientUnits="userSpaceOnUse"/><linearGradient id="aF" x1="286.666" x2="289.766" y1="-439.484" y2="-436.707" xlink:href="#k" gradientUnits="userSpaceOnUse"/><linearGradient id="aG" x1="284.802" x2="288.9" y1="-441.233" y2="-436.831" xlink:href="#i" gradientUnits="userSpaceOnUse"/><linearGradient id="aH" x1="286.246" x2="290.121" y1="-434.732" y2="-439.69" xlink:href="#g" gradientUnits="userSpaceOnUse"/><linearGradient id="aI" x1="287.147" x2="289.473" y1="-434.809" y2="-437.594" xlink:href="#h" gradientUnits="userSpaceOnUse"/><linearGradient id="aJ" x1="286.014" x2="288.375" y1="-435.546" y2="-438.971" xlink:href="#i" gradientUnits="userSpaceOnUse"/><linearGradient id="aK" x1="276.614" x2="283.463" y1="-431" y2="-438.722" xlink:href="#l" gradientUnits="userSpaceOnUse"/><linearGradient id="aL" x1="286.295" x2="289.395" y1="-435.628" y2="-438.19" xlink:href="#k" gradientUnits="userSpaceOnUse"/><linearGradient id="aM" x1="286.415" x2="290.078" y1="-435.784" y2="-439.289" xlink:href="#i" gradientUnits="userSpaceOnUse"/><linearGradient id="aN" x1="286.415" x2="288.375" y1="-435.784" y2="-437.888" xlink:href="#i" gradientUnits="userSpaceOnUse"/><linearGradient id="aO" x1="271.022" x2="285.029" y1="-441.052" y2="-431.97" xlink:href="#l" gradientUnits="userSpaceOnUse" gradientTransform="matrix(1.09 0 0 .966 -289.155 431.622)"/><linearGradient id="aP" x1="29.124" x2="27.356" y1="38.897" y2="34.879" xlink:href="#m" gradientUnits="userSpaceOnUse" gradientTransform="matrix(.751 0 0 .751 -1.265 .109)"/><linearGradient id="aQ" x1="29.124" x2="27.356" y1="38.897" y2="34.879" xlink:href="#n" gradientUnits="userSpaceOnUse" gradientTransform="matrix(.689 -.3 .3 .689 -4.33 6.099)"/><radialGradient id="aR" cx="3.299" cy="3.416" r="2.751" xlink:href="#c" gradientUnits="userSpaceOnUse" fx="3.299" fy="3.416"/><linearGradient x1="20.73" x2="23.296" y1="29.815" y2="45.056" xlink:href="#f" gradientUnits="userSpaceOnUse" gradientTransform="matrix(.743 0 0 .743 -1.065 .298)"/><linearGradient x1="287.517" x2="289.676" y1="-439.753" y2="-436.322" xlink:href="#g" gradientUnits="userSpaceOnUse"/><linearGradient x1="286.512" x2="289.854" y1="-441.291" y2="-436.145" xlink:href="#h" gradientUnits="userSpaceOnUse"/><linearGradient x1="285.941" x2="289.391" y1="-439.939" y2="-436.443" xlink:href="#i" gradientUnits="userSpaceOnUse"/><linearGradient x1="275.942" x2="279.975" y1="-437.105" y2="-431.918" xlink:href="#j" gradientUnits="userSpaceOnUse"/><linearGradient x1="286.666" x2="289.766" y1="-439.484" y2="-436.707" xlink:href="#k" gradientUnits="userSpaceOnUse"/><linearGradient x1="284.802" x2="288.9" y1="-441.233" y2="-436.831" xlink:href="#i" gradientUnits="userSpaceOnUse"/><linearGradient x1="286.246" x2="290.121" y1="-434.732" y2="-439.69" xlink:href="#g" gradientUnits="userSpaceOnUse"/><linearGradient x1="287.147" x2="289.473" y1="-434.809" y2="-437.594" xlink:href="#h" gradientUnits="userSpaceOnUse"/><linearGradient x1="286.014" x2="288.375" y1="-435.546" y2="-438.971" xlink:href="#i" gradientUnits="userSpaceOnUse"/><linearGradient x1="276.614" x2="283.463" y1="-431" y2="-438.722" xlink:href="#l" gradientUnits="userSpaceOnUse"/><linearGradient x1="286.295" x2="289.395" y1="-435.628" y2="-438.19" xlink:href="#k" gradientUnits="userSpaceOnUse"/><linearGradient x1="286.415" x2="290.078" y1="-435.784" y2="-439.289" xlink:href="#i" gradientUnits="userSpaceOnUse"/><linearGradient x1="286.415" x2="288.375" y1="-435.784" y2="-437.888" xlink:href="#i" gradientUnits="userSpaceOnUse"/><linearGradient x1="271.022" x2="285.029" y1="-441.052" y2="-431.97" xlink:href="#l" gradientUnits="userSpaceOnUse" gradientTransform="matrix(1.09 0 0 .966 -289.155 431.622)"/><linearGradient x1="29.124" x2="27.356" y1="38.897" y2="34.879" xlink:href="#m" gradientUnits="userSpaceOnUse" gradientTransform="matrix(.751 0 0 .751 -1.265 .109)"/><linearGradient x1="29.124" x2="27.356" y1="38.897" y2="34.879" xlink:href="#n" gradientUnits="userSpaceOnUse" gradientTransform="matrix(.689 -.3 .3 .689 -4.33 6.099)"/><radialGradient cx="3.299" cy="3.416" r="2.751" xlink:href="#c" gradientUnits="userSpaceOnUse" fx="3.299" fy="3.416"/><linearGradient id="ai" x1="20.73" x2="23.296" y1="29.815" y2="45.056" xlink:href="#f" gradientUnits="userSpaceOnUse" gradientTransform="matrix(.743 0 0 .743 -1.065 .298)"/><linearGradient id="aj" x1="287.517" x2="289.676" y1="-439.753" y2="-436.322" xlink:href="#g" gradientUnits="userSpaceOnUse"/><linearGradient id="ak" x1="286.512" x2="289.854" y1="-441.291" y2="-436.145" xlink:href="#h" gradientUnits="userSpaceOnUse"/><linearGradient id="al" x1="285.941" x2="289.391" y1="-439.939" y2="-436.443" xlink:href="#i" gradientUnits="userSpaceOnUse"/><linearGradient id="am" x1="275.942" x2="279.975" y1="-437.105" y2="-431.918" xlink:href="#j" gradientUnits="userSpaceOnUse"/><linearGradient id="an" x1="286.666" x2="289.766" y1="-439.484" y2="-436.707" xlink:href="#k" gradientUnits="userSpaceOnUse"/><linearGradient id="ao" x1="284.802" x2="288.9" y1="-441.233" y2="-436.831" xlink:href="#i" gradientUnits="userSpaceOnUse"/><linearGradient id="ap" x1="286.246" x2="290.121" y1="-434.732" y2="-439.69" xlink:href="#g" gradientUnits="userSpaceOnUse"/><linearGradient id="aq" x1="287.147" x2="289.473" y1="-434.809" y2="-437.594" xlink:href="#h" gradientUnits="userSpaceOnUse"/><linearGradient id="ar" x1="286.014" x2="288.375" y1="-435.546" y2="-438.971" xlink:href="#i" gradientUnits="userSpaceOnUse"/><linearGradient id="as" x1="276.614" x2="283.463" y1="-431" y2="-438.722" xlink:href="#l" gradientUnits="userSpaceOnUse"/><linearGradient id="at" x1="286.295" x2="289.395" y1="-435.628" y2="-438.19" xlink:href="#k" gradientUnits="userSpaceOnUse"/><linearGradient id="au" x1="286.415" x2="290.078" y1="-435.784" y2="-439.289" xlink:href="#i" gradientUnits="userSpaceOnUse"/><linearGradient id="av" x1="286.415" x2="288.375" y1="-435.784" y2="-437.888" xlink:href="#i" gradientUnits="userSpaceOnUse"/><linearGradient id="aw" x1="271.022" x2="285.029" y1="-441.052" y2="-431.97" xlink:href="#l" gradientUnits="userSpaceOnUse" gradientTransform="matrix(1.09 0 0 .966 -289.155 431.622)"/><linearGradient id="ax" x1="29.124" x2="27.356" y1="38.897" y2="34.879" xlink:href="#m" gradientUnits="userSpaceOnUse" gradientTransform="matrix(.751 0 0 .751 -1.265 .109)"/><linearGradient id="ay" x1="29.124" x2="27.356" y1="38.897" y2="34.879" xlink:href="#n" gradientUnits="userSpaceOnUse" gradientTransform="matrix(.689 -.3 .3 .689 -4.33 6.099)"/><radialGradient id="az" cx="3.299" cy="3.416" r="2.751" xlink:href="#c" gradientUnits="userSpaceOnUse" fx="3.299" fy="3.416"/><linearGradient id="Q" x1="20.73" x2="23.296" y1="29.815" y2="45.056" xlink:href="#f" gradientUnits="userSpaceOnUse" gradientTransform="matrix(.743 0 0 .743 -1.065 .298)"/><linearGradient id="R" x1="287.517" x2="289.676" y1="-439.753" y2="-436.322" xlink:href="#g" gradientUnits="userSpaceOnUse"/><linearGradient id="S" x1="286.512" x2="289.854" y1="-441.291" y2="-436.145" xlink:href="#h" gradientUnits="userSpaceOnUse"/><linearGradient id="T" x1="285.941" x2="289.391" y1="-439.939" y2="-436.443" xlink:href="#i" gradientUnits="userSpaceOnUse"/><linearGradient id="U" x1="275.942" x2="279.975" y1="-437.105" y2="-431.918" xlink:href="#j" gradientUnits="userSpaceOnUse"/><linearGradient id="V" x1="286.666" x2="289.766" y1="-439.484" y2="-436.707" xlink:href="#k" gradientUnits="userSpaceOnUse"/><linearGradient id="W" x1="284.802" x2="288.9" y1="-441.233" y2="-436.831" xlink:href="#i" gradientUnits="userSpaceOnUse"/><linearGradient id="X" x1="286.246" x2="290.121" y1="-434.732" y2="-439.69" xlink:href="#g" gradientUnits="userSpaceOnUse"/><linearGradient id="Y" x1="287.147" x2="289.473" y1="-434.809" y2="-437.594" xlink:href="#h" gradientUnits="userSpaceOnUse"/><linearGradient id="Z" x1="286.014" x2="288.375" y1="-435.546" y2="-438.971" xlink:href="#i" gradientUnits="userSpaceOnUse"/><linearGradient id="aa" x1="276.614" x2="283.463" y1="-431" y2="-438.722" xlink:href="#l" gradientUnits="userSpaceOnUse"/><linearGradient id="ab" x1="286.295" x2="289.395" y1="-435.628" y2="-438.19" xlink:href="#k" gradientUnits="userSpaceOnUse"/><linearGradient id="ac" x1="286.415" x2="290.078" y1="-435.784" y2="-439.289" xlink:href="#i" gradientUnits="userSpaceOnUse"/><linearGradient id="ad" x1="286.415" x2="288.375" y1="-435.784" y2="-437.888" xlink:href="#i" gradientUnits="userSpaceOnUse"/><linearGradient id="ae" x1="271.022" x2="285.029" y1="-441.052" y2="-431.97" xlink:href="#l" gradientUnits="userSpaceOnUse" gradientTransform="matrix(1.09 0 0 .966 -289.155 431.622)"/><linearGradient id="af" x1="29.124" x2="27.356" y1="38.897" y2="34.879" xlink:href="#m" gradientUnits="userSpaceOnUse" gradientTransform="matrix(.751 0 0 .751 -1.265 .109)"/><linearGradient id="ag" x1="29.124" x2="27.356" y1="38.897" y2="34.879" xlink:href="#n" gradientUnits="userSpaceOnUse" gradientTransform="matrix(.689 -.3 .3 .689 -4.33 6.099)"/><radialGradient id="ah" cx="3.299" cy="3.416" r="2.751" xlink:href="#c" gradientUnits="userSpaceOnUse" fx="3.299" fy="3.416"/><linearGradient id="P" x1="29.124" x2="27.356" y1="38.897" y2="34.879" gradientTransform="matrix(.917 -.399 .399 .917 -4.08 7.972)" gradientUnits="userSpaceOnUse" xlink:href="#o"/><linearGradient id="O" x1="29.124" x2="27.356" y1="38.897" y2="34.879" gradientUnits="userSpaceOnUse" xlink:href="#p"/><linearGradient id="z" x1="20.73" x2="23.296" y1="29.815" y2="45.056" gradientTransform="matrix(.989 0 0 .989 .265 .251)" gradientUnits="userSpaceOnUse" xlink:href="#q"/><radialGradient id="y" cx="23.335" cy="44.42" r="18.562" gradientUnits="userSpaceOnUse" gradientTransform="matrix(1 0 0 .193 0 35.854)" fy="44.42" fx="23.335" xlink:href="#r"/><linearGradient id="M" x1="286.415" x2="288.375" y1="-435.784" y2="-437.888" gradientUnits="userSpaceOnUse" xlink:href="#s"/><linearGradient id="N" x1="271.022" x2="285.029" y1="-441.052" y2="-431.97" gradientTransform="matrix(1.452 0 0 1.286 -383.21 574.384)" gradientUnits="userSpaceOnUse" xlink:href="#t"/><linearGradient id="G" x1="286.246" x2="290.121" y1="-434.732" y2="-439.69" gradientUnits="userSpaceOnUse" xlink:href="#u"/><linearGradient id="H" x1="287.147" x2="289.473" y1="-434.809" y2="-437.594" gradientUnits="userSpaceOnUse" xlink:href="#v"/><linearGradient id="I" x1="286.014" x2="288.375" y1="-435.546" y2="-438.971" gradientUnits="userSpaceOnUse" xlink:href="#s"/><linearGradient id="J" x1="276.614" x2="283.463" y1="-431" y2="-438.722" gradientUnits="userSpaceOnUse" xlink:href="#t"/><linearGradient id="K" x1="286.295" x2="289.395" y1="-435.628" y2="-438.19" gradientUnits="userSpaceOnUse" xlink:href="#w"/><linearGradient id="L" x1="286.415" x2="290.078" y1="-435.784" y2="-439.289" gradientUnits="userSpaceOnUse" xlink:href="#s"/><linearGradient id="F" x1="284.802" x2="288.9" y1="-441.233" y2="-436.831" gradientUnits="userSpaceOnUse" xlink:href="#s"/><linearGradient id="E" x1="286.666" x2="289.766" y1="-439.484" y2="-436.707" gradientUnits="userSpaceOnUse" xlink:href="#w"/><linearGradient id="D" x1="275.942" x2="279.975" y1="-437.105" y2="-431.918" gradientUnits="userSpaceOnUse" xlink:href="#x"/><linearGradient id="C" x1="285.941" x2="289.391" y1="-439.939" y2="-436.443" gradientUnits="userSpaceOnUse" xlink:href="#s"/><linearGradient id="B" x1="286.512" x2="289.854" y1="-441.291" y2="-436.145" gradientUnits="userSpaceOnUse" xlink:href="#v"/><linearGradient id="A" x1="287.517" x2="289.676" y1="-439.753" y2="-436.322" gradientUnits="userSpaceOnUse" xlink:href="#u"/><linearGradient id="t"><stop offset="0" stop-color="#fff"/><stop offset="1" stop-color="#fff" stop-opacity="0"/></linearGradient><linearGradient id="u"><stop offset="0" stop-color="#fff"/><stop offset="1" stop-color="#fff" stop-opacity="0"/></linearGradient><linearGradient id="v"><stop offset="0" stop-color="#fff"/><stop offset="1" stop-color="#fff" stop-opacity="0"/></linearGradient><linearGradient id="s"><stop offset="0" stop-color="#fff"/><stop offset="1" stop-color="#fff" stop-opacity="0"/></linearGradient><linearGradient id="x"><stop offset="0" stop-color="#fff"/><stop offset="1" stop-color="#fff" stop-opacity="0"/></linearGradient><linearGradient id="w"><stop offset="0" stop-color="#fff"/><stop offset="1" stop-color="#fff" stop-opacity="0"/></linearGradient><linearGradient id="r"><stop offset="0" stop-color="#2e3436" stop-opacity=".619"/><stop offset="1" stop-color="#2e3436" stop-opacity="0"/></linearGradient><linearGradient id="q"><stop offset="0" stop-color="#888a85"/><stop offset="1" stop-color="#51534f"/></linearGradient><linearGradient id="p"><stop offset="0" stop-color="#5d5b58"/><stop offset="1" stop-color="#5d5b58" stop-opacity="0"/></linearGradient><linearGradient id="o"><stop offset="0" stop-color="#74726e"/><stop offset="1" stop-color="#5d5b58" stop-opacity="0"/></linearGradient></defs><g><g><path fill="url(#y)" fill-rule="evenodd" d="M41.9 44.42c0 1.98-8.3 3.58-18.57 3.58-10.25 0-18.56-1.6-18.56-3.58s8.3-3.58 18.56-3.58c10.26 0 18.57 1.6 18.57 3.58z" transform="matrix(1.148 0 0 1.148 -3.293 -6.664)" color="#000" overflow="visible"/><path fill="#c4c5c2" stroke="url(#z)" stroke-width="1.5" stroke-miterlimit="2" d="M43.5 22.88c.55.86 1.58 2.9 1.58 3.94 0 2.25-1.46 4.13-3.53 5.16.27.7.52 1.4.52 2.16 0 3.68-3.38 6.66-7.53 6.66-1.26 0-2.4-.35-3.44-.83-.92 2.76-3.7 4.82-7.1 4.82-3.43 0-6.2-2.07-7.12-4.83-1.04.48-2.17.83-3.43.83-4.16 0-7.54-2.98-7.54-6.66 0-.77.26-1.47.53-2.16-2.07-1.03-3.53-2.9-3.53-5.16 0-1.2.4-4 1-5-.65-.96-.98-2-.98-3.08 0-2.24 1.46-4.13 3.53-5.16-.27-.7-.52-1.4-.52-2.16 0-3.67 3.38-6.65 7.53-6.65 1.26 0 2.4.34 3.44.83.92-2.76 3.7-4.83 7.1-4.83 3.43 0 6.2 2.07 7.12 4.83 1.04-.5 2.17-.83 3.43-.83 4.16 0 7.54 2.98 7.54 6.65 0 .77-.26 1.47-.53 2.16 2.07 1.03 3.53 2.92 3.53 5.16 0 1.02-1.08 3.3-1.6 4.14z" transform="translate(.164 -.083)"/><g><path fill="#c4c5c2" d="M29.4 7.18c0 2.6-2.4 4.7-5.34 4.7s-5.33-2.1-5.33-4.7 2.4-4.7 5.33-4.7c2.94 0 5.33 2.1 5.33 4.7z"/><path fill="url(#A)" d="M291.7-437.6c0 1.84-1.5 3.32-3.32 3.32-1.83 0-3.32-1.48-3.32-3.3 0-1.84 1.5-3.33 3.3-3.33 1.84 0 3.33 1.48 3.33 3.3z" transform="matrix(1.61 0 0 1.423 -439.934 629.44)"/></g><path fill="#c4c5c2" d="M9.72 10.58H40.2l-.02 12.1H9.73z"/><path fill="#c4c5c2" d="M14.42 18.56c0 2.23-2.04 4.04-4.57 4.04-2.52 0-4.57-1.8-4.57-4.04 0-2.23 2.05-4.04 4.57-4.04 2.53 0 4.57 1.8 4.57 4.04z"/><g><path fill="#c4c5c2" d="M40.05 11.22c0 2.6-2.38 4.7-5.33 4.7-2.94 0-5.33-2.1-5.33-4.7s2.38-4.7 5.32-4.7c2.95 0 5.33 2.1 5.33 4.7z"/><path fill="url(#B)" d="M291.7-437.6c0 1.84-1.5 3.32-3.32 3.32-1.83 0-3.32-1.48-3.32-3.3 0-1.84 1.5-3.33 3.3-3.33 1.84 0 3.33 1.48 3.33 3.3z" transform="matrix(1.61 0 0 1.423 -429.273 633.478)"/></g><g><path fill="#c4c5c2" d="M18.73 11.22c0 2.6-2.4 4.7-5.33 4.7-2.94 0-5.33-2.1-5.33-4.7s2.4-4.7 5.33-4.7c2.94 0 5.33 2.1 5.33 4.7z"/><path fill="url(#C)" d="M291.7-437.6c0 1.84-1.5 3.32-3.32 3.32-1.83 0-3.32-1.48-3.32-3.3 0-1.84 1.5-3.33 3.3-3.33 1.84 0 3.33 1.48 3.33 3.3z" transform="matrix(1.61 0 0 1.423 -450.595 633.478)"/></g><g><path fill="#c4c5c2" d="M22.55 6.47c-5.45 0-9.85 3.93-9.85 8.75 0 3.2 2.05 5.84 4.95 7.36h9.85c2.9-1.52 4.95-4.2 4.95-7.4 0-4.82-4.45-8.7-9.9-8.7z"/><path fill="url(#D)" d="M280.5-441c-3.6 0-6.5 2.9-6.5 6.5 0 2.38 1.34 4.37 3.25 5.5h6.5c1.9-1.13 3.25-3.12 3.25-5.5 0-3.6-2.9-6.5-6.5-6.5z" transform="matrix(1.523 0 0 1.346 -404.603 600.012)"/></g><path fill="url(#E)" d="M291.7-437.6c0 1.84-1.5 3.32-3.32 3.32-1.83 0-3.32-1.48-3.32-3.3 0-1.84 1.5-3.33 3.3-3.33 1.84 0 3.33 1.48 3.33 3.3z" transform="matrix(1.38 0 0 1.219 -388.106 551.985)"/><g><path fill="#c4c5c2" d="M35.8 17.33c0 2.97-2.74 5.38-6.1 5.38-3.37 0-6.1-2.4-6.1-5.37 0-2.98 2.73-5.4 6.1-5.4 3.36 0 6.1 2.42 6.1 5.4z"/><path fill="url(#F)" d="M291.7-437.6c0 1.84-1.5 3.32-3.32 3.32-1.83 0-3.32-1.48-3.32-3.3 0-1.84 1.5-3.33 3.3-3.33 1.84 0 3.33 1.48 3.33 3.3z" transform="matrix(1.84 0 0 1.626 -500.918 728.416)"/></g><g><path fill="#c4c5c2" d="M29.37 38.3c0-2.6-2.38-4.7-5.33-4.7-2.94 0-5.33 2.1-5.33 4.7s2.4 4.7 5.34 4.7c2.95 0 5.33-2.1 5.33-4.7z"/><path fill="url(#G)" d="M291.7-437.6c0 1.84-1.5 3.32-3.32 3.32-1.83 0-3.32-1.48-3.32-3.3 0-1.84 1.5-3.33 3.3-3.33 1.84 0 3.33 1.48 3.33 3.3z" transform="matrix(1.61 0 0 -1.423 -439.952 -583.957)"/></g><path fill="#c4c5c2" d="M9.7 34.9h30.47V22.8H9.7z"/><path fill="#c4c5c2" d="M14.4 26.93c0-2.23-2.04-4.04-4.57-4.04-2.52 0-4.57 1.8-4.57 4.03 0 2.23 2.05 4.03 4.57 4.03 2.53 0 4.57-1.8 4.57-4.03z"/><g><path fill="#c4c5c2" d="M40.03 34.26c0-2.6-2.38-4.7-5.33-4.7-2.94 0-5.33 2.1-5.33 4.7s2.4 4.7 5.33 4.7c2.95 0 5.33-2.1 5.33-4.7z"/><path fill="url(#H)" d="M291.7-437.6c0 1.84-1.5 3.32-3.32 3.32-1.83 0-3.32-1.48-3.32-3.3 0-1.84 1.5-3.33 3.3-3.33 1.84 0 3.33 1.48 3.33 3.3z" transform="matrix(1.61 0 0 -1.423 -429.291 -587.995)"/></g><g><path fill="#c4c5c2" d="M18.7 34.26c0-2.6-2.37-4.7-5.32-4.7-2.94 0-5.33 2.1-5.33 4.7s2.4 4.7 5.33 4.7c2.95 0 5.33-2.1 5.33-4.7z"/><path fill="url(#I)" d="M291.7-437.6c0 1.84-1.5 3.32-3.32 3.32-1.83 0-3.32-1.48-3.32-3.3 0-1.84 1.5-3.33 3.3-3.33 1.84 0 3.33 1.48 3.33 3.3z" transform="matrix(1.61 0 0 -1.423 -450.613 -587.995)"/></g><g><path fill="#c4c5c2" d="M22.53 39c-5.45 0-9.85-3.92-9.85-8.73 0-3.2 2.06-5.84 4.95-7.36h9.85c2.9 1.53 4.95 4.22 4.95 7.4 0 4.83-4.45 8.7-9.9 8.7z"/><path fill="url(#J)" d="M280.5-441c-3.6 0-6.5 2.9-6.5 6.5 0 2.38 1.34 4.37 3.25 5.5h6.5c1.9-1.13 3.25-3.12 3.25-5.5 0-3.6-2.9-6.5-6.5-6.5z" transform="matrix(1.523 0 0 -1.346 -404.622 -554.529)"/></g><path fill="url(#K)" d="M291.7-437.6c0 1.84-1.5 3.32-3.32 3.32-1.83 0-3.32-1.48-3.32-3.3 0-1.84 1.5-3.33 3.3-3.33 1.84 0 3.33 1.48 3.33 3.3z" transform="matrix(1.38 0 0 -1.219 -388.124 -506.501)"/><g><path fill="#c4c5c2" d="M31.68 25.45c0-2.98-2.73-5.4-6.1-5.4-3.36 0-6.1 2.42-6.1 5.4 0 2.97 2.74 5.38 6.1 5.38 3.37 0 6.1-2.4 6.1-5.38z"/><path fill="url(#L)" d="M291.7-437.6c0 1.84-1.5 3.32-3.32 3.32-1.83 0-3.32-1.48-3.32-3.3 0-1.84 1.5-3.33 3.3-3.33 1.84 0 3.33 1.48 3.33 3.3z" transform="matrix(1.84 0 0 -1.626 -505.027 -685.643)"/></g><g><path fill="#c4c5c2" d="M41.3 22.48c0-2.97-2.72-5.38-6.1-5.38-3.36 0-6.1 2.4-6.1 5.38s2.74 5.4 6.1 5.4c3.38 0 6.1-2.42 6.1-5.4z"/><path fill="url(#M)" d="M291.7-437.6c0 1.84-1.5 3.32-3.32 3.32-1.83 0-3.32-1.48-3.32-3.3 0-1.84 1.5-3.33 3.3-3.33 1.84 0 3.33 1.48 3.33 3.3z" transform="matrix(1.84 0 0 -1.626 -495.401 -688.605)"/></g><path fill="url(#N)" stroke="#fff" stroke-opacity=".502" stroke-miterlimit="2" d="M5.5 22.05c-1 .98-1.17 3.52-1.17 4.97 0 1.9 1.6 3.58 3.53 4.5-.25.64-.64 1.48-.64 2.18 0 3.35 2.76 5.93 6.7 5.93 1.18 0 2.65-.7 3.62-1.16.98 3.23 3.1 5.2 6.28 5.2s5.6-2.05 6.55-5.17c.97.44 2.77 1.16 3.95 1.16 3.86 0 6.33-2.6 6.33-5.96 0-.7-.42-1.7-.67-2.3 1.92-.95 3.54-2.33 3.54-4.38 0-1.34-.85-2.48-1.76-4.06.88-1.6 1.77-2.98 1.77-4.4 0-2.04-1.6-3.42-3.53-4.36.25-.62.67-1.6.67-2.3C40.67 8.53 37.6 6 33.74 6c-1.17 0-2.4.63-3.36 1.07-.94-3.13-3.26-4.93-6.44-4.93-3.18 0-5.4 1.72-6.38 4.95-.97-.45-2.25-1.08-3.42-1.08-3.94 0-6.9 2.5-6.9 5.85 0 .7.4 1.7.64 2.33-1.92.94-3.54 2.43-3.54 4.34 0 1.4.23 2.5 1.17 3.48z" transform="translate(.164 -.083)"/><path fill="#888a85" fill-rule="evenodd" d="M42.72 12.33c0 3.53-4.86 4.88-4.86 4.88s3.5-2.12 3.47-4.86c0 0 1.4 0 1.4 0z"/><path fill="url(#O)" fill-rule="evenodd" d="M31.8 41.03c-3.83-.63-4.44-6.15-4.44-6.15s1.7 4.18 4.68 4.64c0 0-.23 1.5-.23 1.5z" transform="translate(.164 -.083)"/><path fill="url(#P)" fill-rule="evenodd" d="M41.46 32.9c-3.76.95-6.53-3.87-6.53-3.87s3.23 3.14 6.14 2.38c0 0 .4 1.5.4 1.5z" transform="translate(.164 -.083)"/></g><g><path fill="#c4c5c2" stroke="url(#Q)" stroke-width="1.5" stroke-miterlimit="2" d="M31.42 17.3c.4.64 1.18 2.17 1.18 2.96 0 1.7-1.1 3.1-2.65 3.88.2.5.4 1.04.4 1.62 0 2.76-2.55 5-5.67 5-.95 0-1.8-.26-2.58-.63-.7 2.08-2.77 3.63-5.34 3.63s-4.65-1.55-5.34-3.63c-.8.37-1.64.63-2.58.63-3.13 0-5.66-2.24-5.66-5 0-.58.18-1.1.4-1.62C2 23.36.9 21.94.9 20.26c0-.9.3-3 .75-3.76-.5-.72-.74-1.5-.74-2.3 0-1.7 1.1-3.12 2.65-3.9-.2-.5-.4-1.03-.4-1.6 0-2.77 2.55-5 5.67-5 .95 0 1.8.25 2.58.6.7-2.06 2.77-3.6 5.34-3.6s4.65 1.54 5.34 3.6c.8-.35 1.65-.6 2.6-.6 3.12 0 5.65 2.23 5.65 5 0 .57-.18 1.1-.4 1.6 1.57.78 2.67 2.2 2.67 3.9 0 .76-.82 2.46-1.2 3.1z" transform="matrix(.542 0 0 .542 30.128 26.979)"/><g><path fill="#c4c5c2" d="M41.27 30.05c0 1.06-.97 1.92-2.17 1.92s-2.17-.86-2.17-1.92.97-1.92 2.17-1.92 2.17.86 2.17 1.92z"/><path fill="url(#R)" d="M291.7-437.6c0 1.84-1.5 3.32-3.32 3.32-1.83 0-3.32-1.48-3.32-3.3 0-1.84 1.5-3.33 3.3-3.33 1.84 0 3.33 1.48 3.33 3.3z" transform="matrix(.655 0 0 .579 -149.755 283.368)"/></g><path fill="#c4c5c2" d="M33.33 31.38h12.4v4.93h-12.4z"/><path fill="#c4c5c2" d="M35.24 34.83c0 .9-.83 1.64-1.86 1.64-1.03 0-1.86-.73-1.86-1.64 0-.9.83-1.64 1.86-1.64 1.03 0 1.86.72 1.86 1.63z"/><g><path fill="#c4c5c2" d="M45.6 31.7c0 1.05-.96 1.9-2.16 1.9-1.2 0-2.17-.85-2.17-1.9 0-1.07.97-1.93 2.17-1.93s2.17.86 2.17 1.92z"/><path fill="url(#S)" d="M291.7-437.6c0 1.84-1.5 3.32-3.32 3.32-1.83 0-3.32-1.48-3.32-3.3 0-1.84 1.5-3.33 3.3-3.33 1.84 0 3.33 1.48 3.33 3.3z" transform="matrix(.655 0 0 .579 -145.415 285.012)"/></g><g><path fill="#c4c5c2" d="M36.93 31.7c0 1.05-.97 1.9-2.17 1.9s-2.17-.85-2.17-1.9c0-1.07.96-1.93 2.16-1.93 1.2 0 2.17.86 2.17 1.92z"/><path fill="url(#T)" d="M291.7-437.6c0 1.84-1.5 3.32-3.32 3.32-1.83 0-3.32-1.48-3.32-3.3 0-1.84 1.5-3.33 3.3-3.33 1.84 0 3.33 1.48 3.33 3.3z" transform="matrix(.655 0 0 .579 -154.095 285.012)"/></g><g><path fill="#c4c5c2" d="M38.5 29.78c-2.23 0-4.02 1.6-4.02 3.57 0 1.3.83 2.37 2 3h4.02c1.18-.63 2.02-1.72 2.02-3.02 0-1.96-1.8-3.55-4.03-3.55z"/><path fill="url(#U)" d="M280.5-441c-3.6 0-6.5 2.9-6.5 6.5 0 2.38 1.34 4.37 3.25 5.5h6.5c1.9-1.13 3.25-3.12 3.25-5.5 0-3.6-2.9-6.5-6.5-6.5z" transform="matrix(.62 0 0 .548 -135.372 271.387)"/></g><path fill="url(#V)" d="M291.7-437.6c0 1.84-1.5 3.32-3.32 3.32-1.83 0-3.32-1.48-3.32-3.3 0-1.84 1.5-3.33 3.3-3.33 1.84 0 3.33 1.48 3.33 3.3z" transform="matrix(.562 0 0 .496 -128.655 251.831)"/><g><path fill="#c4c5c2" d="M43.85 34.47c0 1.2-1.1 2.2-2.5 2.2-1.36 0-2.47-1-2.47-2.2 0-1.2 1.1-2.2 2.48-2.2s2.5 1 2.5 2.2z"/><path fill="url(#W)" d="M291.7-437.6c0 1.84-1.5 3.32-3.32 3.32-1.83 0-3.32-1.48-3.32-3.3 0-1.84 1.5-3.33 3.3-3.33 1.84 0 3.33 1.48 3.33 3.3z" transform="matrix(.749 0 0 .662 -174.592 323.665)"/></g><g><path fill="#c4c5c2" d="M41.26 42.62c0-1.06-.97-1.92-2.17-1.92s-2.18.86-2.18 1.92.97 1.92 2.17 1.92 2.16-.86 2.16-1.92z"/><path fill="url(#X)" d="M291.7-437.6c0 1.84-1.5 3.32-3.32 3.32-1.83 0-3.32-1.48-3.32-3.3 0-1.84 1.5-3.33 3.3-3.33 1.84 0 3.33 1.48 3.33 3.3z" transform="matrix(.655 0 0 -.579 -149.762 -210.704)"/></g><path fill="#c4c5c2" d="M33.33 41.28h12.4v-4.93h-12.4z"/><path fill="#c4c5c2" d="M35.24 37.84c0-.9-.84-1.64-1.87-1.64-1.02 0-1.86.73-1.86 1.64 0 .9.85 1.64 1.87 1.64 1.03 0 1.87-.73 1.87-1.64z"/><g><path fill="#c4c5c2" d="M45.6 40.98c0-1.06-.97-1.92-2.17-1.92s-2.17.86-2.17 1.92.97 1.9 2.17 1.9 2.17-.84 2.17-1.9z"/><path fill="url(#Y)" d="M291.7-437.6c0 1.84-1.5 3.32-3.32 3.32-1.83 0-3.32-1.48-3.32-3.3 0-1.84 1.5-3.33 3.3-3.33 1.84 0 3.33 1.48 3.33 3.3z" transform="matrix(.655 0 0 -.579 -145.422 -212.348)"/></g><g><path fill="#c4c5c2" d="M36.92 40.98c0-1.06-.97-1.92-2.17-1.92s-2.17.86-2.17 1.92.97 1.9 2.17 1.9 2.17-.84 2.17-1.9z"/><path fill="url(#Z)" d="M291.7-437.6c0 1.84-1.5 3.32-3.32 3.32-1.83 0-3.32-1.48-3.32-3.3 0-1.84 1.5-3.33 3.3-3.33 1.84 0 3.33 1.48 3.33 3.3z" transform="matrix(.655 0 0 -.579 -154.102 -212.348)"/></g><g><path fill="#c4c5c2" d="M38.48 42.88c-2.22 0-4-1.6-4-3.56 0-1.3.82-2.37 2-3h4c1.2.63 2.03 1.72 2.03 3.02 0 1.96-1.8 3.54-4.02 3.54z"/><path fill="url(#aa)" d="M280.5-441c-3.6 0-6.5 2.9-6.5 6.5 0 2.38 1.34 4.37 3.25 5.5h6.5c1.9-1.13 3.25-3.12 3.25-5.5 0-3.6-2.9-6.5-6.5-6.5z" transform="matrix(.62 0 0 -.548 -135.379 -198.723)"/></g><path fill="url(#ab)" d="M291.7-437.6c0 1.84-1.5 3.32-3.32 3.32-1.83 0-3.32-1.48-3.32-3.3 0-1.84 1.5-3.33 3.3-3.33 1.84 0 3.33 1.48 3.33 3.3z" transform="matrix(.562 0 0 -.496 -128.662 -179.167)"/><g><path fill="#c4c5c2" d="M42.17 37.1c0-1.2-1.1-2.2-2.48-2.2s-2.5 1-2.5 2.2c0 1.2 1.12 2.18 2.5 2.18 1.36 0 2.47-.98 2.47-2.2z"/><path fill="url(#ac)" d="M291.7-437.6c0 1.84-1.5 3.32-3.32 3.32-1.83 0-3.32-1.48-3.32-3.3 0-1.84 1.5-3.33 3.3-3.33 1.84 0 3.33 1.48 3.33 3.3z" transform="matrix(.749 0 0 -.662 -176.266 -252.104)"/></g><g><path fill="#c4c5c2" d="M46.1 35.9c0-1.22-1.12-2.2-2.5-2.2-1.36 0-2.47.98-2.47 2.2 0 1.2 1.1 2.18 2.48 2.18s2.5-.98 2.5-2.2z"/><path fill="url(#ad)" d="M291.7-437.6c0 1.84-1.5 3.32-3.32 3.32-1.83 0-3.32-1.48-3.32-3.3 0-1.84 1.5-3.33 3.3-3.33 1.84 0 3.33 1.48 3.33 3.3z" transform="matrix(.749 0 0 -.662 -172.346 -253.31)"/></g><path fill="url(#ae)" stroke="#fff" stroke-opacity=".502" stroke-miterlimit="2" d="M2.87 16.67C2.13 17.4 2 19.32 2 20.4c0 1.44 1.2 2.7 2.64 3.4-.2.47-.48 1.1-.48 1.63 0 2.52 2.07 4.45 5.04 4.45.88 0 1.98-.53 2.7-.87.75 2.44 2.34 3.92 4.73 3.92 2.4 0 4.2-1.55 4.92-3.9.73.35 2.1.9 2.97.9 2.9 0 4.76-1.97 4.76-4.5 0-.52-.32-1.26-.5-1.73 1.43-.7 2.65-1.75 2.65-3.3 0-1-.64-1.86-1.32-3.05.67-1.2 1.34-2.23 1.34-3.3 0-1.53-1.2-2.57-2.66-3.27.2-.47.5-1.2.5-1.74 0-2.52-2.3-4.4-5.2-4.4-.88 0-1.8.46-2.52.8-.7-2.35-2.45-3.7-4.84-3.7-2.4 0-4.06 1.3-4.8 3.72-.72-.34-1.68-.8-2.56-.8-2.96 0-5.2 1.86-5.2 4.38 0 .53.3 1.3.5 1.76C3.2 11.5 2 12.63 2 14.06c0 1.06.17 1.88.87 2.6z" transform="matrix(.542 0 0 .542 30.128 26.979)"/><path fill="#888a85" fill-rule="evenodd" d="M46.77 32.1c0 1.43-1.98 1.98-1.98 1.98s1.4-.87 1.4-1.98c0 0 .57 0 .57 0z"/><path fill="url(#af)" fill-rule="evenodd" d="M22.63 30.93c-2.88-.47-3.34-4.62-3.34-4.62s1.27 3.15 3.5 3.5c0 0-.17 1.13-.17 1.13z" transform="matrix(.542 0 0 .542 30.128 26.979)"/><path fill="url(#ag)" fill-rule="evenodd" d="M29.88 24.82c-2.83.72-4.9-2.9-4.9-2.9s2.42 2.36 4.6 1.8c0 0 .3 1.1.3 1.1z" transform="matrix(.542 0 0 .542 30.128 26.979)"/></g><path fill="url(#ah)" fill-rule="evenodd" stroke="#2e3436" stroke-width=".726" d="M6.25 3.9a2.36 2.36 0 1 1-4.72 0 2.36 2.36 0 1 1 4.72 0z" transform="matrix(1.377 0 0 1.377 33.935 31.211)" color="#000" stroke-linecap="round" overflow="visible"/><g><path fill="#c4c5c2" stroke="url(#ai)" stroke-width="1.5" stroke-miterlimit="2" d="M31.42 17.3c.4.64 1.18 2.17 1.18 2.96 0 1.7-1.1 3.1-2.65 3.88.2.5.4 1.04.4 1.62 0 2.76-2.55 5-5.67 5-.95 0-1.8-.26-2.58-.63-.7 2.08-2.77 3.63-5.34 3.63s-4.65-1.55-5.34-3.63c-.8.37-1.64.63-2.58.63-3.13 0-5.66-2.24-5.66-5 0-.58.18-1.1.4-1.62C2 23.36.9 21.94.9 20.26c0-.9.3-3 .75-3.76-.5-.72-.74-1.5-.74-2.3 0-1.7 1.1-3.12 2.65-3.9-.2-.5-.4-1.03-.4-1.6 0-2.77 2.55-5 5.67-5 .95 0 1.8.25 2.58.6.7-2.06 2.77-3.6 5.34-3.6s4.65 1.54 5.34 3.6c.8-.35 1.65-.6 2.6-.6 3.12 0 5.65 2.23 5.65 5 0 .57-.18 1.1-.4 1.6 1.57.78 2.67 2.2 2.67 3.9 0 .76-.82 2.46-1.2 3.1z" transform="matrix(.542 0 0 .542 1.254 1.17)"/><g><path fill="#c4c5c2" d="M12.4 4.24c0 1.06-.98 1.92-2.17 1.92-1.2 0-2.17-.86-2.17-1.92s.97-1.92 2.17-1.92 2.17.86 2.17 1.92z"/><path fill="url(#aj)" d="M291.7-437.6c0 1.84-1.5 3.32-3.32 3.32-1.83 0-3.32-1.48-3.32-3.3 0-1.84 1.5-3.33 3.3-3.33 1.84 0 3.33 1.48 3.33 3.3z" transform="matrix(.655 0 0 .579 -178.629 257.559)"/></g><path fill="#c4c5c2" d="M4.46 5.57h12.4v4.93H4.46z"/><path fill="#c4c5c2" d="M6.37 9.02c0 .9-.83 1.64-1.86 1.64-1.02 0-1.85-.73-1.85-1.64 0-.9.83-1.64 1.86-1.64 1.04 0 1.87.73 1.87 1.64z"/><g><path fill="#c4c5c2" d="M16.74 5.88c0 1.06-.98 1.92-2.17 1.92-1.2 0-2.17-.86-2.17-1.92s.97-1.9 2.17-1.9 2.17.84 2.17 1.9z"/><path fill="url(#ak)" d="M291.7-437.6c0 1.84-1.5 3.32-3.32 3.32-1.83 0-3.32-1.48-3.32-3.3 0-1.84 1.5-3.33 3.3-3.33 1.84 0 3.33 1.48 3.33 3.3z" transform="matrix(.655 0 0 .579 -174.289 259.203)"/></g><g><path fill="#c4c5c2" d="M8.06 5.88c0 1.06-.98 1.92-2.17 1.92-1.2 0-2.18-.86-2.18-1.92s.97-1.9 2.17-1.9c1.18 0 2.16.84 2.16 1.9z"/><path fill="url(#al)" d="M291.7-437.6c0 1.84-1.5 3.32-3.32 3.32-1.83 0-3.32-1.48-3.32-3.3 0-1.84 1.5-3.33 3.3-3.33 1.84 0 3.33 1.48 3.33 3.3z" transform="matrix(.655 0 0 .579 -182.969 259.203)"/></g><g><path fill="#c4c5c2" d="M9.6 3.97c-2.2 0-4 1.6-4 3.57 0 1.3.84 2.37 2.02 3h4c1.2-.63 2.02-1.72 2.02-3.02 0-1.96-1.8-3.55-4.03-3.55z"/><path fill="url(#am)" d="M280.5-441c-3.6 0-6.5 2.9-6.5 6.5 0 2.38 1.34 4.37 3.25 5.5h6.5c1.9-1.13 3.25-3.12 3.25-5.5 0-3.6-2.9-6.5-6.5-6.5z" transform="matrix(.62 0 0 .548 -164.246 245.578)"/></g><path fill="url(#an)" d="M291.7-437.6c0 1.84-1.5 3.32-3.32 3.32-1.83 0-3.32-1.48-3.32-3.3 0-1.84 1.5-3.33 3.3-3.33 1.84 0 3.33 1.48 3.33 3.3z" transform="matrix(.562 0 0 .496 -157.529 226.022)"/><g><path fill="#c4c5c2" d="M14.97 8.66c0 1.2-1.1 2.2-2.48 2.2s-2.5-1-2.5-2.2c0-1.2 1.12-2.2 2.5-2.2 1.36 0 2.47 1 2.47 2.2z"/><path fill="url(#ao)" d="M291.7-437.6c0 1.84-1.5 3.32-3.32 3.32-1.83 0-3.32-1.48-3.32-3.3 0-1.84 1.5-3.33 3.3-3.33 1.84 0 3.33 1.48 3.33 3.3z" transform="matrix(.749 0 0 .662 -203.466 297.856)"/></g><g><path fill="#c4c5c2" d="M12.4 16.8c0-1.05-.98-1.9-2.18-1.9-1.2 0-2.17.85-2.17 1.9 0 1.07.97 1.93 2.17 1.93s2.17-.86 2.17-1.92z"/><path fill="url(#ap)" d="M291.7-437.6c0 1.84-1.5 3.32-3.32 3.32-1.83 0-3.32-1.48-3.32-3.3 0-1.84 1.5-3.33 3.3-3.33 1.84 0 3.33 1.48 3.33 3.3z" transform="matrix(.655 0 0 -.579 -178.636 -236.513)"/></g><path fill="#c4c5c2" d="M4.45 15.48h12.4v-4.94H4.46z"/><path fill="#c4c5c2" d="M6.36 12.03c0-.9-.83-1.64-1.86-1.64-1.03 0-1.86.72-1.86 1.63 0 .9.83 1.64 1.86 1.64 1.03 0 1.86-.73 1.86-1.64z"/><g><path fill="#c4c5c2" d="M16.73 15.17c0-1.06-.97-1.92-2.17-1.92s-2.17.86-2.17 1.92.96 1.9 2.16 1.9c1.2 0 2.17-.84 2.17-1.9z"/><path fill="url(#aq)" d="M291.7-437.6c0 1.84-1.5 3.32-3.32 3.32-1.83 0-3.32-1.48-3.32-3.3 0-1.84 1.5-3.33 3.3-3.33 1.84 0 3.33 1.48 3.33 3.3z" transform="matrix(.655 0 0 -.579 -174.296 -238.157)"/></g><g><path fill="#c4c5c2" d="M8.05 15.17c0-1.06-.97-1.92-2.17-1.92s-2.17.86-2.17 1.92.98 1.9 2.18 1.9c1.2 0 2.17-.84 2.17-1.9z"/><path fill="url(#ar)" d="M291.7-437.6c0 1.84-1.5 3.32-3.32 3.32-1.83 0-3.32-1.48-3.32-3.3 0-1.84 1.5-3.33 3.3-3.33 1.84 0 3.33 1.48 3.33 3.3z" transform="matrix(.655 0 0 -.579 -182.976 -238.157)"/></g><g><path fill="#c4c5c2" d="M9.6 17.07c-2.2 0-4-1.6-4-3.56 0-1.3.83-2.36 2-2.98h4.02c1.18.62 2.02 1.7 2.02 3 0 1.97-1.82 3.55-4.03 3.55z"/><path fill="url(#as)" d="M280.5-441c-3.6 0-6.5 2.9-6.5 6.5 0 2.38 1.34 4.37 3.25 5.5h6.5c1.9-1.13 3.25-3.12 3.25-5.5 0-3.6-2.9-6.5-6.5-6.5z" transform="matrix(.62 0 0 -.548 -164.253 -224.532)"/></g><path fill="url(#at)" d="M291.7-437.6c0 1.84-1.5 3.32-3.32 3.32-1.83 0-3.32-1.48-3.32-3.3 0-1.84 1.5-3.33 3.3-3.33 1.84 0 3.33 1.48 3.33 3.3z" transform="matrix(.562 0 0 -.496 -157.536 -204.976)"/><g><path fill="#c4c5c2" d="M13.3 11.3c0-1.22-1.1-2.2-2.48-2.2-1.37 0-2.48.98-2.48 2.2 0 1.2 1.1 2.18 2.48 2.18 1.37 0 2.48-1 2.48-2.2z"/><path fill="url(#au)" d="M291.7-437.6c0 1.84-1.5 3.32-3.32 3.32-1.83 0-3.32-1.48-3.32-3.3 0-1.84 1.5-3.33 3.3-3.33 1.84 0 3.33 1.48 3.33 3.3z" transform="matrix(.749 0 0 -.662 -205.14 -277.913)"/></g><g><path fill="#c4c5c2" d="M17.22 10.08c0-1.2-1.1-2.2-2.48-2.2-1.37 0-2.48 1-2.48 2.2 0 1.2 1.1 2.2 2.48 2.2 1.37 0 2.48-1 2.48-2.2z"/><path fill="url(#av)" d="M291.7-437.6c0 1.84-1.5 3.32-3.32 3.32-1.83 0-3.32-1.48-3.32-3.3 0-1.84 1.5-3.33 3.3-3.33 1.84 0 3.33 1.48 3.33 3.3z" transform="matrix(.749 0 0 -.662 -201.22 -279.119)"/></g><path fill="url(#aw)" stroke="#fff" stroke-opacity=".502" stroke-miterlimit="2" d="M2.87 16.67C2.13 17.4 2 19.32 2 20.4c0 1.44 1.2 2.7 2.64 3.4-.2.47-.48 1.1-.48 1.63 0 2.52 2.07 4.45 5.04 4.45.88 0 1.98-.53 2.7-.87.75 2.44 2.34 3.92 4.73 3.92 2.4 0 4.2-1.55 4.92-3.9.73.35 2.1.9 2.97.9 2.9 0 4.76-1.97 4.76-4.5 0-.52-.32-1.26-.5-1.73 1.43-.7 2.65-1.75 2.65-3.3 0-1-.64-1.86-1.32-3.05.67-1.2 1.34-2.23 1.34-3.3 0-1.53-1.2-2.57-2.66-3.27.2-.47.5-1.2.5-1.74 0-2.52-2.3-4.4-5.2-4.4-.88 0-1.8.46-2.52.8-.7-2.35-2.45-3.7-4.84-3.7-2.4 0-4.06 1.3-4.8 3.72-.72-.34-1.68-.8-2.56-.8-2.96 0-5.2 1.86-5.2 4.38 0 .53.3 1.3.5 1.76C3.2 11.5 2 12.63 2 14.06c0 1.06.17 1.88.87 2.6z" transform="matrix(.542 0 0 .542 1.254 1.17)"/><path fill="#888a85" fill-rule="evenodd" d="M17.9 6.28c0 1.44-1.98 2-1.98 2s1.42-.88 1.4-2c0 0 .58 0 .58 0z"/><path fill="url(#ax)" fill-rule="evenodd" d="M22.63 30.93c-2.88-.47-3.34-4.62-3.34-4.62s1.27 3.15 3.5 3.5c0 0-.17 1.13-.17 1.13z" transform="matrix(.542 0 0 .542 1.254 1.17)"/><path fill="url(#ay)" fill-rule="evenodd" d="M29.88 24.82c-2.83.72-4.9-2.9-4.9-2.9s2.42 2.36 4.6 1.8c0 0 .3 1.1.3 1.1z" transform="matrix(.542 0 0 .542 1.254 1.17)"/></g><path fill="url(#az)" fill-rule="evenodd" stroke="#2e3436" stroke-width=".726" d="M6.25 3.9a2.36 2.36 0 1 1-4.72 0 2.36 2.36 0 1 1 4.72 0z" transform="matrix(1.377 0 0 1.377 5.061 5.402)" color="#000" stroke-linecap="round" overflow="visible"/><g><path fill="#c4c5c2" stroke="url(#aA)" stroke-width="1.5" stroke-miterlimit="2" d="M31.42 17.3c.4.64 1.18 2.17 1.18 2.96 0 1.7-1.1 3.1-2.65 3.88.2.5.4 1.04.4 1.62 0 2.76-2.55 5-5.67 5-.95 0-1.8-.26-2.58-.63-.7 2.08-2.77 3.63-5.34 3.63s-4.65-1.55-5.34-3.63c-.8.37-1.64.63-2.58.63-3.13 0-5.66-2.24-5.66-5 0-.58.18-1.1.4-1.62C2 23.36.9 21.94.9 20.26c0-.9.3-3 .75-3.76-.5-.72-.74-1.5-.74-2.3 0-1.7 1.1-3.12 2.65-3.9-.2-.5-.4-1.03-.4-1.6 0-2.77 2.55-5 5.67-5 .95 0 1.8.25 2.58.6.7-2.06 2.77-3.6 5.34-3.6s4.65 1.54 5.34 3.6c.8-.35 1.65-.6 2.6-.6 3.12 0 5.65 2.23 5.65 5 0 .57-.18 1.1-.4 1.6 1.57.78 2.67 2.2 2.67 3.9 0 .76-.82 2.46-1.2 3.1z" transform="matrix(.542 0 0 .542 29.421 1.228)"/><g><path fill="#c4c5c2" d="M40.56 4.3c0 1.06-.97 1.92-2.17 1.92S36.2 5.36 36.2 4.3s.97-1.92 2.17-1.92 2.16.86 2.16 1.92z"/><path fill="url(#aB)" d="M291.7-437.6c0 1.84-1.5 3.32-3.32 3.32-1.83 0-3.32-1.48-3.32-3.3 0-1.84 1.5-3.33 3.3-3.33 1.84 0 3.33 1.48 3.33 3.3z" transform="matrix(.655 0 0 .579 -150.462 257.617)"/></g><path fill="#c4c5c2" d="M32.63 5.63h12.4v4.93h-12.4z"/><path fill="#c4c5c2" d="M34.54 9.08c0 .9-.84 1.64-1.87 1.64-1.02 0-1.86-.74-1.86-1.64 0-.9.85-1.65 1.87-1.65 1.03 0 1.87.74 1.87 1.65z"/><g><path fill="#c4c5c2" d="M44.9 5.94c0 1.06-.97 1.92-2.17 1.92S40.56 7 40.56 5.94s.97-1.92 2.17-1.92 2.17.86 2.17 1.92z"/><path fill="url(#aC)" d="M291.7-437.6c0 1.84-1.5 3.32-3.32 3.32-1.83 0-3.32-1.48-3.32-3.3 0-1.84 1.5-3.33 3.3-3.33 1.84 0 3.33 1.48 3.33 3.3z" transform="matrix(.655 0 0 .579 -146.122 259.261)"/></g><g><path fill="#c4c5c2" d="M36.22 5.94c0 1.06-.97 1.92-2.17 1.92S31.88 7 31.88 5.94s.97-1.92 2.17-1.92 2.17.86 2.17 1.92z"/><path fill="url(#aD)" d="M291.7-437.6c0 1.84-1.5 3.32-3.32 3.32-1.83 0-3.32-1.48-3.32-3.3 0-1.84 1.5-3.33 3.3-3.33 1.84 0 3.33 1.48 3.33 3.3z" transform="matrix(.655 0 0 .579 -154.802 259.261)"/></g><g><path fill="#c4c5c2" d="M37.78 4.03c-2.22 0-4 1.6-4 3.57 0 1.3.83 2.37 2 3h4c1.2-.63 2.03-1.72 2.03-3.02 0-1.96-1.8-3.55-4.02-3.55z"/><path fill="url(#aE)" d="M280.5-441c-3.6 0-6.5 2.9-6.5 6.5 0 2.38 1.34 4.37 3.25 5.5h6.5c1.9-1.13 3.25-3.12 3.25-5.5 0-3.6-2.9-6.5-6.5-6.5z" transform="matrix(.62 0 0 .548 -136.079 245.636)"/></g><path fill="url(#aF)" d="M291.7-437.6c0 1.84-1.5 3.32-3.32 3.32-1.83 0-3.32-1.48-3.32-3.3 0-1.84 1.5-3.33 3.3-3.33 1.84 0 3.33 1.48 3.33 3.3z" transform="matrix(.562 0 0 .496 -129.362 226.08)"/><g><path fill="#c4c5c2" d="M43.14 8.72c0 1.2-1.1 2.2-2.48 2.2-1.37 0-2.48-1-2.48-2.2 0-1.2 1.1-2.2 2.48-2.2 1.37 0 2.48 1 2.48 2.2z"/><path fill="url(#aG)" d="M291.7-437.6c0 1.84-1.5 3.32-3.32 3.32-1.83 0-3.32-1.48-3.32-3.3 0-1.84 1.5-3.33 3.3-3.33 1.84 0 3.33 1.48 3.33 3.3z" transform="matrix(.749 0 0 .662 -175.299 297.914)"/></g><g><path fill="#c4c5c2" d="M40.55 16.87c0-1.06-.97-1.92-2.17-1.92s-2.17.86-2.17 1.92 1 1.92 2.18 1.92c1.2 0 2.17-.87 2.17-1.93z"/><path fill="url(#aH)" d="M291.7-437.6c0 1.84-1.5 3.32-3.32 3.32-1.83 0-3.32-1.48-3.32-3.3 0-1.84 1.5-3.33 3.3-3.33 1.84 0 3.33 1.48 3.33 3.3z" transform="matrix(.655 0 0 -.579 -150.469 -236.455)"/></g><path fill="#c4c5c2" d="M32.62 15.53h12.4V10.6h-12.4z"/><path fill="#c4c5c2" d="M34.53 12.1c0-.92-.84-1.65-1.86-1.65-1.03 0-1.86.73-1.86 1.64 0 .9.84 1.63 1.87 1.63 1.02 0 1.86-.73 1.86-1.64z"/><g><path fill="#c4c5c2" d="M44.9 15.22c0-1.05-.98-1.9-2.18-1.9-1.2 0-2.17.85-2.17 1.9 0 1.06.98 1.92 2.17 1.92 1.2 0 2.17-.86 2.17-1.92z"/><path fill="url(#aI)" d="M291.7-437.6c0 1.84-1.5 3.32-3.32 3.32-1.83 0-3.32-1.48-3.32-3.3 0-1.84 1.5-3.33 3.3-3.33 1.84 0 3.33 1.48 3.33 3.3z" transform="matrix(.655 0 0 -.579 -146.129 -238.099)"/></g><g><path fill="#c4c5c2" d="M36.2 15.22c0-1.05-.96-1.9-2.16-1.9-1.2 0-2.17.85-2.17 1.9 0 1.06.98 1.92 2.17 1.92 1.2 0 2.17-.86 2.17-1.92z"/><path fill="url(#aJ)" d="M291.7-437.6c0 1.84-1.5 3.32-3.32 3.32-1.83 0-3.32-1.48-3.32-3.3 0-1.84 1.5-3.33 3.3-3.33 1.84 0 3.33 1.48 3.33 3.3z" transform="matrix(.655 0 0 -.579 -154.809 -238.099)"/></g><g><path fill="#c4c5c2" d="M37.77 17.13c-2.22 0-4-1.6-4-3.56 0-1.3.83-2.38 2-3h4.02c1.16.62 2 1.72 2 3.02 0 1.95-1.8 3.53-4.03 3.53z"/><path fill="url(#aK)" d="M280.5-441c-3.6 0-6.5 2.9-6.5 6.5 0 2.38 1.34 4.37 3.25 5.5h6.5c1.9-1.13 3.25-3.12 3.25-5.5 0-3.6-2.9-6.5-6.5-6.5z" transform="matrix(.62 0 0 -.548 -136.086 -224.474)"/></g><path fill="url(#aL)" d="M291.7-437.6c0 1.84-1.5 3.32-3.32 3.32-1.83 0-3.32-1.48-3.32-3.3 0-1.84 1.5-3.33 3.3-3.33 1.84 0 3.33 1.48 3.33 3.3z" transform="matrix(.562 0 0 -.496 -129.369 -204.918)"/><g><path fill="#c4c5c2" d="M41.46 11.34c0-1.2-1.1-2.2-2.48-2.2-1.37 0-2.48 1-2.48 2.2 0 1.2 1.1 2.2 2.48 2.2 1.37 0 2.48-1 2.48-2.2z"/><path fill="url(#aM)" d="M291.7-437.6c0 1.84-1.5 3.32-3.32 3.32-1.83 0-3.32-1.48-3.32-3.3 0-1.84 1.5-3.33 3.3-3.33 1.84 0 3.33 1.48 3.33 3.3z" transform="matrix(.749 0 0 -.662 -176.973 -277.855)"/></g><g><path fill="#c4c5c2" d="M45.38 10.14c0-1.2-1.1-2.2-2.48-2.2-1.37 0-2.48 1-2.48 2.2 0 1.2 1.1 2.2 2.48 2.2 1.37 0 2.48-1 2.48-2.2z"/><path fill="url(#aN)" d="M291.7-437.6c0 1.84-1.5 3.32-3.32 3.32-1.83 0-3.32-1.48-3.32-3.3 0-1.84 1.5-3.33 3.3-3.33 1.84 0 3.33 1.48 3.33 3.3z" transform="matrix(.749 0 0 -.662 -173.053 -279.061)"/></g><path fill="url(#aO)" stroke="#fff" stroke-opacity=".502" stroke-miterlimit="2" d="M2.87 16.67C2.13 17.4 2 19.32 2 20.4c0 1.44 1.2 2.7 2.64 3.4-.2.47-.48 1.1-.48 1.63 0 2.52 2.07 4.45 5.04 4.45.88 0 1.98-.53 2.7-.87.75 2.44 2.34 3.92 4.73 3.92 2.4 0 4.2-1.55 4.92-3.9.73.35 2.1.9 2.97.9 2.9 0 4.76-1.97 4.76-4.5 0-.52-.32-1.26-.5-1.73 1.43-.7 2.65-1.75 2.65-3.3 0-1-.64-1.86-1.32-3.05.67-1.2 1.34-2.23 1.34-3.3 0-1.53-1.2-2.57-2.66-3.27.2-.47.5-1.2.5-1.74 0-2.52-2.3-4.4-5.2-4.4-.88 0-1.8.46-2.52.8-.7-2.35-2.45-3.7-4.84-3.7-2.4 0-4.06 1.3-4.8 3.72-.72-.34-1.68-.8-2.56-.8-2.96 0-5.2 1.86-5.2 4.38 0 .53.3 1.3.5 1.76C3.2 11.5 2 12.63 2 14.06c0 1.06.17 1.88.87 2.6z" transform="matrix(.542 0 0 .542 29.421 1.228)"/><path fill="#888a85" fill-rule="evenodd" d="M46.06 6.34c0 1.44-1.98 2-1.98 2s1.43-.88 1.42-2c0 0 .56 0 .56 0z"/><path fill="url(#aP)" fill-rule="evenodd" d="M22.63 30.93c-2.88-.47-3.34-4.62-3.34-4.62s1.27 3.15 3.5 3.5c0 0-.17 1.13-.17 1.13z" transform="matrix(.542 0 0 .542 29.421 1.228)"/><path fill="url(#aQ)" fill-rule="evenodd" d="M29.88 24.82c-2.83.72-4.9-2.9-4.9-2.9s2.42 2.36 4.6 1.8c0 0 .3 1.1.3 1.1z" transform="matrix(.542 0 0 .542 29.421 1.228)"/></g><path fill="url(#aR)" fill-rule="evenodd" stroke="#2e3436" stroke-width=".726" d="M6.25 3.9a2.36 2.36 0 1 1-4.72 0 2.36 2.36 0 1 1 4.72 0z" transform="matrix(1.377 0 0 1.377 33.228 5.461)" color="#000" stroke-linecap="round" overflow="visible"/><path fill="none" stroke="#fff" stroke-miterlimit="6" d="M108.02-3.18v12.3h-5.98L92.3 28l-.45-18.87H85.8v-12.3H108z" color="#000" overflow="visible"/><g><path fill="#c4c5c2" stroke="url(#aS)" stroke-width="1.5" stroke-miterlimit="2" d="M31.42 17.3c.4.64 1.18 2.17 1.18 2.96 0 1.7-1.1 3.1-2.65 3.88.2.5.4 1.04.4 1.62 0 2.76-2.55 5-5.67 5-.95 0-1.8-.26-2.58-.63-.7 2.08-2.77 3.63-5.34 3.63s-4.65-1.55-5.34-3.63c-.8.37-1.64.63-2.58.63-3.13 0-5.66-2.24-5.66-5 0-.58.18-1.1.4-1.62C2 23.36.9 21.94.9 20.26c0-.9.3-3 .75-3.76-.5-.72-.74-1.5-.74-2.3 0-1.7 1.1-3.12 2.65-3.9-.2-.5-.4-1.03-.4-1.6 0-2.77 2.55-5 5.67-5 .95 0 1.8.25 2.58.6.7-2.06 2.77-3.6 5.34-3.6s4.65 1.54 5.34 3.6c.8-.35 1.65-.6 2.6-.6 3.12 0 5.65 2.23 5.65 5 0 .57-.18 1.1-.4 1.6 1.57.78 2.67 2.2 2.67 3.9 0 .76-.82 2.46-1.2 3.1z" transform="matrix(.542 0 0 .542 16.869 18.611)"/><g><path fill="#c4c5c2" d="M28 21.68c0 1.06-.96 1.92-2.16 1.92-1.2 0-2.17-.86-2.17-1.92s.97-1.92 2.17-1.92 2.17.86 2.17 1.92z"/><path fill="url(#aT)" d="M291.7-437.6c0 1.84-1.5 3.32-3.32 3.32-1.83 0-3.32-1.48-3.32-3.3 0-1.84 1.5-3.33 3.3-3.33 1.84 0 3.33 1.48 3.33 3.3z" transform="matrix(.655 0 0 .579 -163.014 275)"/></g><path fill="#c4c5c2" d="M20.07 23h12.4v4.94h-12.4z"/><path fill="#c4c5c2" d="M21.98 26.46c0 .9-.83 1.64-1.86 1.64-1.03 0-1.86-.73-1.86-1.64 0-.9.83-1.64 1.86-1.64 1.03 0 1.86.73 1.86 1.64z"/><g><path fill="#c4c5c2" d="M32.35 23.33c0 1.05-.97 1.9-2.17 1.9S28 24.4 28 23.34c0-1.06.98-1.92 2.18-1.92 1.2 0 2.17.87 2.17 1.93z"/><path fill="url(#aU)" d="M291.7-437.6c0 1.84-1.5 3.32-3.32 3.32-1.83 0-3.32-1.48-3.32-3.3 0-1.84 1.5-3.33 3.3-3.33 1.84 0 3.33 1.48 3.33 3.3z" transform="matrix(.655 0 0 .579 -158.674 276.644)"/></g><g><path fill="#c4c5c2" d="M23.67 23.33c0 1.05-.97 1.9-2.17 1.9s-2.17-.85-2.17-1.9c0-1.06.97-1.92 2.17-1.92s2.17.87 2.17 1.93z"/><path fill="url(#aV)" d="M291.7-437.6c0 1.84-1.5 3.32-3.32 3.32-1.83 0-3.32-1.48-3.32-3.3 0-1.84 1.5-3.33 3.3-3.33 1.84 0 3.33 1.48 3.33 3.3z" transform="matrix(.655 0 0 .579 -167.354 276.644)"/></g><g><path fill="#c4c5c2" d="M25.23 21.42c-2.22 0-4 1.6-4 3.56 0 1.3.82 2.38 2 3h4c1.2-.62 2.03-1.72 2.03-3.02 0-1.96-1.8-3.54-4.03-3.54z"/><path fill="url(#aW)" d="M280.5-441c-3.6 0-6.5 2.9-6.5 6.5 0 2.38 1.34 4.37 3.25 5.5h6.5c1.9-1.13 3.25-3.12 3.25-5.5 0-3.6-2.9-6.5-6.5-6.5z" transform="matrix(.62 0 0 .548 -148.631 263.019)"/></g><path fill="url(#aX)" d="M291.7-437.6c0 1.84-1.5 3.32-3.32 3.32-1.83 0-3.32-1.48-3.32-3.3 0-1.84 1.5-3.33 3.3-3.33 1.84 0 3.33 1.48 3.33 3.3z" transform="matrix(.562 0 0 .496 -141.914 243.463)"/><g><path fill="#c4c5c2" d="M30.6 26.1c0 1.2-1.12 2.2-2.5 2.2-1.36 0-2.48-1-2.48-2.2 0-1.2 1.12-2.2 2.5-2.2 1.36 0 2.47 1 2.47 2.2z"/><path fill="url(#aY)" d="M291.7-437.6c0 1.84-1.5 3.32-3.32 3.32-1.83 0-3.32-1.48-3.32-3.3 0-1.84 1.5-3.33 3.3-3.33 1.84 0 3.33 1.48 3.33 3.3z" transform="matrix(.749 0 0 .662 -187.851 315.297)"/></g><g><path fill="#c4c5c2" d="M28 34.25c0-1.06-.97-1.92-2.17-1.92s-2.17.86-2.17 1.92.98 1.92 2.17 1.92c1.2 0 2.17-.86 2.17-1.92z"/><path fill="url(#aZ)" d="M291.7-437.6c0 1.84-1.5 3.32-3.32 3.32-1.83 0-3.32-1.48-3.32-3.3 0-1.84 1.5-3.33 3.3-3.33 1.84 0 3.33 1.48 3.33 3.3z" transform="matrix(.655 0 0 -.579 -163.021 -219.072)"/></g><path fill="#c4c5c2" d="M20.07 32.92h12.4v-4.94h-12.4z"/><path fill="#c4c5c2" d="M21.98 29.47c0-.9-.84-1.64-1.86-1.64-1.03 0-1.87.74-1.87 1.64 0 .9.84 1.65 1.87 1.65 1.02 0 1.86-.74 1.86-1.65z"/><g><path fill="#c4c5c2" d="M32.34 32.6c0-1.05-.97-1.9-2.17-1.9S28 31.54 28 32.6c0 1.07.98 1.93 2.17 1.93 1.2 0 2.17-.86 2.17-1.92z"/><path fill="url(#ba)" d="M291.7-437.6c0 1.84-1.5 3.32-3.32 3.32-1.83 0-3.32-1.48-3.32-3.3 0-1.84 1.5-3.33 3.3-3.33 1.84 0 3.33 1.48 3.33 3.3z" transform="matrix(.655 0 0 -.579 -158.681 -220.716)"/></g><g><path fill="#c4c5c2" d="M23.66 32.6c0-1.05-.97-1.9-2.17-1.9s-2.18.85-2.18 1.9c0 1.07.98 1.93 2.17 1.93 1.2 0 2.16-.86 2.16-1.92z"/><path fill="url(#bb)" d="M291.7-437.6c0 1.84-1.5 3.32-3.32 3.32-1.83 0-3.32-1.48-3.32-3.3 0-1.84 1.5-3.33 3.3-3.33 1.84 0 3.33 1.48 3.33 3.3z" transform="matrix(.655 0 0 -.579 -167.361 -220.716)"/></g><g><path fill="#c4c5c2" d="M25.22 34.52c-2.22 0-4-1.6-4-3.57 0-1.3.83-2.37 2-3h4.02c1.17.63 2 1.72 2 3.02 0 1.96-1.8 3.55-4.02 3.55z"/><path fill="url(#bc)" d="M280.5-441c-3.6 0-6.5 2.9-6.5 6.5 0 2.38 1.34 4.37 3.25 5.5h6.5c1.9-1.13 3.25-3.12 3.25-5.5 0-3.6-2.9-6.5-6.5-6.5z" transform="matrix(.62 0 0 -.548 -148.638 -207.091)"/></g><path fill="url(#bd)" d="M291.7-437.6c0 1.84-1.5 3.32-3.32 3.32-1.83 0-3.32-1.48-3.32-3.3 0-1.84 1.5-3.33 3.3-3.33 1.84 0 3.33 1.48 3.33 3.3z" transform="matrix(.562 0 0 -.496 -141.921 -187.535)"/><g><path fill="#c4c5c2" d="M28.9 28.73c0-1.2-1.1-2.2-2.47-2.2s-2.48 1-2.48 2.2c0 1.2 1.1 2.2 2.48 2.2 1.37 0 2.48-1 2.48-2.2z"/><path fill="url(#be)" d="M291.7-437.6c0 1.84-1.5 3.32-3.32 3.32-1.83 0-3.32-1.48-3.32-3.3 0-1.84 1.5-3.33 3.3-3.33 1.84 0 3.33 1.48 3.33 3.3z" transform="matrix(.749 0 0 -.662 -189.525 -260.472)"/></g><g><path fill="#c4c5c2" d="M32.83 27.52c0-1.2-1.1-2.2-2.48-2.2-1.37 0-2.48 1-2.48 2.2 0 1.2 1.1 2.2 2.48 2.2 1.37 0 2.48-1 2.48-2.2z"/><path fill="url(#bf)" d="M291.7-437.6c0 1.84-1.5 3.32-3.32 3.32-1.83 0-3.32-1.48-3.32-3.3 0-1.84 1.5-3.33 3.3-3.33 1.84 0 3.33 1.48 3.33 3.3z" transform="matrix(.749 0 0 -.662 -185.605 -261.678)"/></g><path fill="url(#bg)" stroke="#fff" stroke-opacity=".502" stroke-miterlimit="2" d="M2.87 16.67C2.13 17.4 2 19.32 2 20.4c0 1.44 1.2 2.7 2.64 3.4-.2.47-.48 1.1-.48 1.63 0 2.52 2.07 4.45 5.04 4.45.88 0 1.98-.53 2.7-.87.75 2.44 2.34 3.92 4.73 3.92 2.4 0 4.2-1.55 4.92-3.9.73.35 2.1.9 2.97.9 2.9 0 4.76-1.97 4.76-4.5 0-.52-.32-1.26-.5-1.73 1.43-.7 2.65-1.75 2.65-3.3 0-1-.64-1.86-1.32-3.05.67-1.2 1.34-2.23 1.34-3.3 0-1.53-1.2-2.57-2.66-3.27.2-.47.5-1.2.5-1.74 0-2.52-2.3-4.4-5.2-4.4-.88 0-1.8.46-2.52.8-.7-2.35-2.45-3.7-4.84-3.7-2.4 0-4.06 1.3-4.8 3.72-.72-.34-1.68-.8-2.56-.8-2.96 0-5.2 1.86-5.2 4.38 0 .53.3 1.3.5 1.76C3.2 11.5 2 12.63 2 14.06c0 1.06.17 1.88.87 2.6z" transform="matrix(.542 0 0 .542 16.869 18.611)"/><path fill="#888a85" fill-rule="evenodd" d="M33.5 23.73c0 1.43-1.97 1.98-1.97 1.98s1.42-.86 1.42-1.97c0 0 .56 0 .56 0z"/><path fill="url(#bh)" fill-rule="evenodd" d="M22.63 30.93c-2.88-.47-3.34-4.62-3.34-4.62s1.27 3.15 3.5 3.5c0 0-.17 1.13-.17 1.13z" transform="matrix(.542 0 0 .542 16.869 18.611)"/><path fill="url(#bi)" fill-rule="evenodd" d="M29.88 24.82c-2.83.72-4.9-2.9-4.9-2.9s2.42 2.36 4.6 1.8c0 0 .3 1.1.3 1.1z" transform="matrix(.542 0 0 .542 16.869 18.611)"/></g><path fill="url(#bj)" fill-rule="evenodd" stroke="#2e3436" stroke-width=".726" d="M6.25 3.9a2.36 2.36 0 1 1-4.72 0 2.36 2.36 0 1 1 4.72 0z" transform="matrix(1.377 0 0 1.377 20.677 22.844)" color="#000" stroke-linecap="round" overflow="visible"/></g></svg>