<svg xmlns="http://www.w3.org/2000/svg" width="48" height="48" xmlns:xlink="http://www.w3.org/1999/xlink"><defs><linearGradient id="j"><stop offset="0" stop-color="#74726e"/><stop offset="1" stop-color="#5d5b58" stop-opacity="0"/></linearGradient><linearGradient id="i"><stop offset="0" stop-color="#5d5b58"/><stop offset="1" stop-color="#5d5b58" stop-opacity="0"/></linearGradient><linearGradient id="h"><stop offset="0" stop-color="#888a85"/><stop offset="1" stop-color="#51534f"/></linearGradient><linearGradient id="g"><stop offset="0" stop-color="#2e3436" stop-opacity=".619"/><stop offset="1" stop-color="#2e3436" stop-opacity="0"/></linearGradient><linearGradient id="e"><stop offset="0" stop-color="#fff"/><stop offset="1" stop-color="#fff" stop-opacity="0"/></linearGradient><linearGradient id="d"><stop offset="0" stop-color="#fff"/><stop offset="1" stop-color="#fff" stop-opacity="0"/></linearGradient><linearGradient id="c"><stop offset="0" stop-color="#fff"/><stop offset="1" stop-color="#fff" stop-opacity="0"/></linearGradient><linearGradient id="b"><stop offset="0" stop-color="#fff"/><stop offset="1" stop-color="#fff" stop-opacity="0"/></linearGradient><linearGradient id="a"><stop offset="0" stop-color="#fff"/><stop offset="1" stop-color="#fff" stop-opacity="0"/></linearGradient><linearGradient id="f"><stop offset="0" stop-color="#fff"/><stop offset="1" stop-color="#fff" stop-opacity="0"/></linearGradient><linearGradient id="m" x1="287.517" x2="289.676" y1="-439.753" y2="-436.322" xlink:href="#a" gradientUnits="userSpaceOnUse"/><linearGradient id="n" x1="286.512" x2="289.854" y1="-441.291" y2="-436.145" xlink:href="#b" gradientUnits="userSpaceOnUse"/><linearGradient id="o" x1="285.941" x2="289.391" y1="-439.939" y2="-436.443" xlink:href="#c" gradientUnits="userSpaceOnUse"/><linearGradient id="p" x1="275.942" x2="279.975" y1="-437.105" y2="-431.918" xlink:href="#d" gradientUnits="userSpaceOnUse"/><linearGradient id="q" x1="286.666" x2="289.766" y1="-439.484" y2="-436.707" xlink:href="#e" gradientUnits="userSpaceOnUse"/><linearGradient id="r" x1="284.802" x2="288.9" y1="-441.233" y2="-436.831" xlink:href="#c" gradientUnits="userSpaceOnUse"/><linearGradient id="x" x1="286.415" x2="290.078" y1="-435.784" y2="-439.289" xlink:href="#c" gradientUnits="userSpaceOnUse"/><linearGradient id="w" x1="286.295" x2="289.395" y1="-435.628" y2="-438.19" xlink:href="#e" gradientUnits="userSpaceOnUse"/><linearGradient id="v" x1="276.614" x2="283.463" y1="-431" y2="-438.722" xlink:href="#f" gradientUnits="userSpaceOnUse"/><linearGradient id="u" x1="286.014" x2="288.375" y1="-435.546" y2="-438.971" xlink:href="#c" gradientUnits="userSpaceOnUse"/><linearGradient id="t" x1="287.147" x2="289.473" y1="-434.809" y2="-437.594" xlink:href="#b" gradientUnits="userSpaceOnUse"/><linearGradient id="s" x1="286.246" x2="290.121" y1="-434.732" y2="-439.69" xlink:href="#a" gradientUnits="userSpaceOnUse"/><linearGradient id="y" x1="286.415" x2="288.375" y1="-435.784" y2="-437.888" xlink:href="#c" gradientUnits="userSpaceOnUse"/><radialGradient id="k" cx="23.335" cy="44.42" r="18.562" xlink:href="#g" fx="23.335" fy="44.42" gradientTransform="matrix(1 0 0 .193 0 35.854)" gradientUnits="userSpaceOnUse"/><linearGradient id="l" x1="20.73" x2="23.296" y1="29.815" y2="45.056" xlink:href="#h" gradientUnits="userSpaceOnUse" gradientTransform="matrix(.989 0 0 .989 61.598 -5.082)"/><linearGradient id="z" x1="29.124" x2="27.356" y1="38.897" y2="34.879" xlink:href="#i" gradientUnits="userSpaceOnUse" gradientTransform="translate(61.333 -5.333)"/><linearGradient id="A" x1="29.124" x2="27.356" y1="38.897" y2="34.879" xlink:href="#j" gradientUnits="userSpaceOnUse" gradientTransform="matrix(.917 -.399 .399 .917 57.253 2.639)"/><linearGradient id="B" x1="286.415" x2="290.078" y1="-435.784" y2="-439.289" xlink:href="#c" gradientUnits="userSpaceOnUse"/><linearGradient id="C" x1="286.415" x2="290.078" y1="-435.784" y2="-439.289" xlink:href="#c" gradientUnits="userSpaceOnUse"/><linearGradient id="D" x1="286.415" x2="290.078" y1="-435.784" y2="-439.289" xlink:href="#c" gradientUnits="userSpaceOnUse"/><linearGradient id="E" x1="286.415" x2="290.078" y1="-435.784" y2="-439.289" xlink:href="#c" gradientUnits="userSpaceOnUse"/><linearGradient id="F" x1="286.415" x2="290.078" y1="-435.784" y2="-439.289" xlink:href="#c" gradientUnits="userSpaceOnUse"/><linearGradient id="G" x1="286.415" x2="290.078" y1="-435.784" y2="-439.289" xlink:href="#c" gradientUnits="userSpaceOnUse"/><linearGradient id="H" x1="286.415" x2="290.078" y1="-435.784" y2="-439.289" xlink:href="#c" gradientUnits="userSpaceOnUse"/><linearGradient id="I" x1="286.415" x2="290.078" y1="-435.784" y2="-439.289" xlink:href="#c" gradientUnits="userSpaceOnUse"/><linearGradient id="J" x1="286.415" x2="290.078" y1="-435.784" y2="-439.289" xlink:href="#c" gradientUnits="userSpaceOnUse"/><linearGradient id="K" x1="286.415" x2="290.078" y1="-435.784" y2="-439.289" xlink:href="#c" gradientUnits="userSpaceOnUse"/><linearGradient id="L" x1="286.415" x2="290.078" y1="-435.784" y2="-439.289" xlink:href="#c" gradientUnits="userSpaceOnUse"/><linearGradient id="M" x1="286.415" x2="290.078" y1="-435.784" y2="-439.289" xlink:href="#c" gradientUnits="userSpaceOnUse"/><linearGradient id="N" x1="286.415" x2="290.078" y1="-435.784" y2="-439.289" xlink:href="#c" gradientUnits="userSpaceOnUse"/><linearGradient id="O" x1="286.415" x2="290.078" y1="-435.784" y2="-439.289" xlink:href="#c" gradientUnits="userSpaceOnUse"/><linearGradient id="P" x1="286.415" x2="290.078" y1="-435.784" y2="-439.289" xlink:href="#c" gradientUnits="userSpaceOnUse"/><linearGradient id="Q" x1="286.415" x2="290.078" y1="-435.784" y2="-439.289" xlink:href="#c" gradientUnits="userSpaceOnUse"/><linearGradient id="R" x1="286.415" x2="290.078" y1="-435.784" y2="-439.289" xlink:href="#c" gradientUnits="userSpaceOnUse"/><linearGradient id="S" x1="286.295" x2="289.395" y1="-435.628" y2="-438.19" xlink:href="#e" gradientUnits="userSpaceOnUse"/><linearGradient id="T" x1="286.295" x2="289.395" y1="-435.628" y2="-438.19" xlink:href="#e" gradientUnits="userSpaceOnUse"/><linearGradient id="U" x1="286.295" x2="289.395" y1="-435.628" y2="-438.19" xlink:href="#e" gradientUnits="userSpaceOnUse"/><linearGradient id="V" x1="286.415" x2="288.375" y1="-435.784" y2="-437.888" xlink:href="#c" gradientUnits="userSpaceOnUse"/><linearGradient id="W" x1="286.415" x2="288.375" y1="-435.784" y2="-437.888" xlink:href="#c" gradientUnits="userSpaceOnUse"/><linearGradient id="X" x1="286.415" x2="288.375" y1="-435.784" y2="-437.888" xlink:href="#c" gradientUnits="userSpaceOnUse"/><linearGradient id="Y" x1="286.415" x2="288.375" y1="-435.784" y2="-437.888" xlink:href="#c" gradientUnits="userSpaceOnUse"/><linearGradient id="Z" x1="286.415" x2="288.375" y1="-435.784" y2="-437.888" xlink:href="#c" gradientUnits="userSpaceOnUse"/><linearGradient id="aa" x1="286.415" x2="288.375" y1="-435.784" y2="-437.888" xlink:href="#c" gradientUnits="userSpaceOnUse"/><linearGradient id="ab" x1="286.415" x2="288.375" y1="-435.784" y2="-437.888" xlink:href="#c" gradientUnits="userSpaceOnUse"/><linearGradient id="ac" x1="286.415" x2="288.375" y1="-435.784" y2="-437.888" xlink:href="#c" gradientUnits="userSpaceOnUse"/><linearGradient id="ad" x1="286.415" x2="288.375" y1="-435.784" y2="-437.888" xlink:href="#c" gradientUnits="userSpaceOnUse"/><linearGradient id="ae" x1="286.415" x2="288.375" y1="-435.784" y2="-437.888" xlink:href="#c" gradientUnits="userSpaceOnUse"/><linearGradient id="af" x1="286.415" x2="288.375" y1="-435.784" y2="-437.888" xlink:href="#c" gradientUnits="userSpaceOnUse"/><linearGradient id="ag" x1="286.415" x2="288.375" y1="-435.784" y2="-437.888" xlink:href="#c" gradientUnits="userSpaceOnUse"/><linearGradient id="ah" x1="285.941" x2="289.391" y1="-439.939" y2="-436.443" xlink:href="#c" gradientUnits="userSpaceOnUse"/><linearGradient id="ai" x1="285.941" x2="289.391" y1="-439.939" y2="-436.443" xlink:href="#c" gradientUnits="userSpaceOnUse"/><linearGradient id="aj" x1="285.941" x2="289.391" y1="-439.939" y2="-436.443" xlink:href="#c" gradientUnits="userSpaceOnUse"/><linearGradient id="ak" x1="285.941" x2="289.391" y1="-439.939" y2="-436.443" xlink:href="#c" gradientUnits="userSpaceOnUse"/><linearGradient id="al" x1="285.941" x2="289.391" y1="-439.939" y2="-436.443" xlink:href="#c" gradientUnits="userSpaceOnUse"/><linearGradient id="am" x1="285.941" x2="289.391" y1="-439.939" y2="-436.443" xlink:href="#c" gradientUnits="userSpaceOnUse"/><linearGradient id="an" x1="285.941" x2="289.391" y1="-439.939" y2="-436.443" xlink:href="#c" gradientUnits="userSpaceOnUse"/><linearGradient id="ao" x1="285.941" x2="289.391" y1="-439.939" y2="-436.443" xlink:href="#c" gradientUnits="userSpaceOnUse"/><linearGradient id="ap" x1="285.941" x2="289.391" y1="-439.939" y2="-436.443" xlink:href="#c" gradientUnits="userSpaceOnUse"/><linearGradient id="aq" x1="285.941" x2="289.391" y1="-439.939" y2="-436.443" xlink:href="#c" gradientUnits="userSpaceOnUse"/></defs><g><path fill="#2e3436" stroke="#888a85" stroke-width="3" stroke-miterlimit="2" d="M40.88 2.2c-2.75 0-5 1.98-5 4.4 0 .77.24 1.47.63 2.1-.1.28-.14.57-.18.87-1.96.6-3.4 2.2-3.4 4.14 0 .1.03.2.04.3-1.3.26-2.28 1.3-2.28 2.52 0 .67.3 1.27.78 1.73-.1 0-.2 0-.3.03-.32.06-.6.15-.9.26-1.8.67-3.07 2.22-3.07 4.04 0 .8.25 1.57.67 2.22-1.35.2-2.4 1.22-2.4 2.47 0 .18.02.36.06.53.07.3.2.6.4.88-.27.32-.45.68-.57 1.07-.8.7-1.32 1.65-1.43 2.7-.15 0-.3-.06-.46-.06-.86 0-1.62.34-2.15.87-.03-.02-.06-.04-.1-.06-.5-.3-1.06-.52-1.66-.65.65-.46 1.08-1.15 1.08-1.95 0-.76-.4-1.43-.98-1.9.07-.28.1-.6.1-.9 0-1.23-.55-2.34-1.47-3.13.15-.32.25-.68.25-1.05 0-.97-.62-1.82-1.53-2.25.2-.48.33-1 .33-1.56 0-1.4-.8-2.64-1.96-3.45 0-.12.02-.23.02-.35 0-.8-.43-1.5-1.07-1.96.44-.66.7-1.4.7-2.22 0-1.97-1.47-3.65-3.5-4.2.03-.22.06-.46.06-.7 0-2.4-2.23-4.4-4.98-4.4-2.75 0-4.98 2-4.98 4.4 0 1.38.74 2.6 1.85 3.4-.7.47-1.15 1.2-1.15 2.03 0 .96.6 1.78 1.5 2.2-.17.46-.3.95-.3 1.45 0 1.48.85 2.8 2.13 3.58 0 .08-.04.15-.04.23 0 1.23 1 2.24 2.3 2.5-.45.64-.73 1.4-.73 2.2 0 .58.14 1.13.37 1.63-.3.56-.5 1.2-.5 1.86 0 1.62 1.05 3 2.58 3.7 0 .04 0 .07 0 .1 0 1.74 1.15 3.24 2.8 3.95.28.36.65.66 1.05.9 0 .08-.03.14-.03.2 0 1.88 1.32 3.45 3.2 4.08-.15.4-.24.85-.24 1.3 0 2.43 2.2 4.4 4.96 4.4 2.74 0 4.97-1.97 4.97-4.4 0-.05-.03-.1-.03-.16 1.35-.06 2.54-.57 3.4-1.4 0 0 .02 0 .02 0 .12 0 .22.03.33.03 2.62 0 4.75-1.88 4.75-4.2 0-1.03-.45-1.94-1.14-2.67.02-.04.03-.07.04-.1.07-.3.1-.58.1-.88 0-.14-.02-.26-.03-.4.85-.25 1.52-.84 1.8-1.6.86-.78 1.37-1.87 1.37-3.05 0-.18-.04-.35-.07-.53 1.15-.33 2-1.28 2-2.4 0-.5-.18-.98-.47-1.38 1.07-.28 1.97-.87 2.6-1.64 2.23-.36 3.92-2.07 3.92-4.14 0-1.45-.85-2.73-2.1-3.48.1-.04.2-.06.3-.1 1.8-.67 3.04-2.26 3.04-4.08 0-.76-.24-1.46-.63-2.08.17-.44.26-.9.26-1.37 0-2.42-2.2-4.4-4.95-4.4z"/><path fill="url(#k)" fill-rule="evenodd" d="M41.9 44.42a18.56 3.58 0 1 1-37.13 0 18.56 3.58 0 1 1 37.13 0z" transform="matrix(1.148 0 0 1.148 57.876 -11.914)" overflow="visible"/><path fill="#c4c5c2" stroke="url(#l)" stroke-width="1.5" stroke-miterlimit="2" d="M104.84 17.55c.54.86 1.57 2.9 1.57 3.94 0 2.23-1.45 4.12-3.52 5.15.28.7.52 1.4.52 2.16 0 3.68-3.37 6.66-7.53 6.66-1.26 0-2.4-.34-3.44-.83-.9 2.76-3.68 4.83-7.1 4.83-3.43 0-6.2-2.07-7.1-4.83-1.06.5-2.2.83-3.45.83-4.16 0-7.53-2.98-7.53-6.65 0-.76.24-1.46.52-2.15-2.07-1.03-3.54-2.92-3.54-5.16 0-1.2.4-4 1-5.02-.64-.95-.98-1.98-.98-3.07 0-2.24 1.46-4.12 3.53-5.15-.27-.7-.5-1.4-.5-2.16 0-3.7 3.36-6.67 7.52-6.67 1.26 0 2.4.35 3.43.83.92-2.76 3.7-4.82 7.1-4.82 3.43 0 6.2 2.06 7.12 4.82 1.05-.48 2.18-.83 3.44-.83 4.15 0 7.52 2.98 7.52 6.66 0 .76-.25 1.46-.52 2.15 2.07 1.03 3.53 2.9 3.53 5.16 0 1.03-1.08 3.3-1.6 4.15z"/><g><path fill="#c4c5c2" d="M90.55 1.93a5.33 4.7 0 1 1-10.66 0 5.33 4.7 0 1 1 10.65 0z"/><path fill="url(#m)" d="M291.7-437.6a3.3 3.3 0 1 1-6.64 0 3.3 3.3 0 1 1 6.63 0z" transform="matrix(1.61 0 0 1.423 -378.765 624.19)"/></g><path fill="#c4c5c2" d="M70.9 5.33h30.45v12.1H70.9z"/><path fill="#c4c5c2" d="M75.46 13.4a4.57 4.04 0 1 1-9.14 0 4.57 4.04 0 1 1 9.14 0z"/><g><path fill="#c4c5c2" d="M101.22 5.96a5.33 4.7 0 1 1-10.66 0 5.33 4.7 0 1 1 10.66 0z"/><path fill="url(#n)" d="M291.7-437.6a3.3 3.3 0 1 1-6.64 0 3.3 3.3 0 1 1 6.63 0z" transform="matrix(1.61 0 0 1.423 -368.104 628.228)"/></g><g><path fill="#c4c5c2" d="M79.9 5.96a5.33 4.7 0 1 1-10.67 0 5.33 4.7 0 1 1 10.66 0z"/><path fill="url(#o)" d="M291.7-437.6a3.3 3.3 0 1 1-6.64 0 3.3 3.3 0 1 1 6.63 0z" transform="matrix(1.61 0 0 1.423 -389.426 628.228)"/></g><g><path fill="#c4c5c2" d="M83.8 1.33c-5.46 0-9.86 3.94-9.86 8.75 0 3.2 2.05 5.84 4.95 7.36h9.84c2.9-1.52 4.95-4.2 4.95-7.4 0-4.82-4.46-8.7-9.9-8.7z"/><path fill="url(#p)" d="M280.5-441c-3.6 0-6.5 2.9-6.5 6.5 0 2.38 1.34 4.37 3.25 5.5h6.5c1.9-1.13 3.25-3.12 3.25-5.5 0-3.6-2.9-6.5-6.5-6.5z" transform="matrix(1.523 0 0 1.346 -343.434 594.762)"/></g><path fill="url(#q)" d="M291.7-437.6a3.3 3.3 0 1 1-6.64 0 3.3 3.3 0 1 1 6.63 0z" transform="matrix(1.38 0 0 1.219 -326.937 546.734)"/><g><path fill="#c4c5c2" d="M96.67 12.08a6.1 5.38 0 1 1-12.18 0 6.1 5.38 0 1 1 12.17 0z"/><path fill="url(#r)" d="M291.7-437.6a3.3 3.3 0 1 1-6.64 0 3.3 3.3 0 1 1 6.63 0z" transform="matrix(1.84 0 0 1.626 -439.748 723.165)"/></g><g><path fill="#c4c5c2" d="M90.54 33.06c0-3.63-4.45-5.9-8-4.08-1.65.84-2.66 2.4-2.66 4.08 0 3.62 4.44 5.9 8 4.08 1.64-.84 2.66-2.4 2.66-4.08z"/><path fill="url(#s)" d="M291.7-437.6a3.3 3.3 0 1 1-6.64 0 3.3 3.3 0 1 1 6.63 0z" transform="matrix(1.61 0 0 -1.423 -378.783 -589.207)"/></g><path fill="#c4c5c2" d="M70.87 29.65h30.47v-12.1H70.87z"/><path fill="#c4c5c2" d="M75.44 21.58c0-3.1-3.8-5.05-6.85-3.5-1.43.72-2.3 2.06-2.3 3.5 0 3.1 3.8 5.05 6.86 3.5 1.4-.73 2.28-2.06 2.28-3.5z"/><g><path fill="#c4c5c2" d="M101.2 29.02c0-3.63-4.44-5.9-8-4.08-1.64.84-2.66 2.4-2.66 4.08 0 3.63 4.44 5.9 8 4.08 1.64-.84 2.66-2.4 2.66-4.08z"/><path fill="url(#t)" d="M291.7-437.6a3.3 3.3 0 1 1-6.64 0 3.3 3.3 0 1 1 6.63 0z" transform="matrix(1.61 0 0 -1.423 -368.122 -593.245)"/></g><g><path fill="#c4c5c2" d="M79.87 29.02c0-3.63-4.44-5.9-8-4.08-1.64.84-2.66 2.4-2.66 4.08 0 3.63 4.46 5.9 8 4.08 1.66-.84 2.67-2.4 2.67-4.08z"/><path fill="url(#u)" d="M291.7-437.6a3.3 3.3 0 1 1-6.64 0 3.3 3.3 0 1 1 6.63 0z" transform="matrix(1.61 0 0 -1.423 -389.444 -593.245)"/></g><g><path fill="#c4c5c2" d="M83.77 33.65c-5.45 0-9.85-3.93-9.85-8.75 0-3.2 2.05-5.84 4.95-7.36h9.85c2.9 1.52 4.95 4.2 4.95 7.4 0 4.82-4.45 8.7-9.9 8.7z"/><path fill="url(#v)" d="M280.5-441c-3.6 0-6.5 2.9-6.5 6.5 0 2.38 1.34 4.37 3.25 5.5h6.5c1.9-1.13 3.25-3.12 3.25-5.5 0-3.6-2.9-6.5-6.5-6.5z" transform="matrix(1.523 0 0 -1.346 -343.452 -559.779)"/></g><path fill="url(#w)" d="M291.7-437.6a3.3 3.3 0 1 1-6.64 0 3.3 3.3 0 1 1 6.63 0z" transform="matrix(1.38 0 0 -1.219 -326.955 -511.752)"/><g><path fill="#c4c5c2" d="M92.56 20.2c0-4.15-5.08-6.74-9.14-4.67-1.88.97-3.04 2.74-3.04 4.67 0 4.14 5.07 6.73 9.13 4.66 1.9-.96 3.06-2.74 3.06-4.66z"/><path fill="url(#x)" d="M291.7-437.6a3.3 3.3 0 1 1-6.64 0 3.3 3.3 0 1 1 6.63 0z" transform="matrix(1.84 0 0 -1.626 -443.858 -690.893)"/></g><g><path fill="#c4c5c2" d="M102.2 17.23c0-4.14-5.1-6.73-9.15-4.66-1.9.96-3.05 2.74-3.05 4.66 0 4.15 5.08 6.74 9.14 4.67 1.88-.97 3.05-2.74 3.05-4.67z"/><path fill="url(#y)" d="M291.7-437.6a3.3 3.3 0 1 1-6.64 0 3.3 3.3 0 1 1 6.63 0z" transform="matrix(1.84 0 0 -1.626 -434.232 -693.856)"/></g><path fill="#888a85" fill-rule="evenodd" d="M103.9 7.08c0 3.53-4.87 4.88-4.87 4.88s3.5-2.14 3.47-4.87c0 0 1.4-.02 1.4-.02z"/><path fill="url(#z)" fill-rule="evenodd" d="M93.14 35.7c-3.84-.63-4.45-6.15-4.45-6.15s1.7 4.17 4.67 4.64c0 0-.23 1.5-.23 1.5z"/><path fill="url(#A)" fill-rule="evenodd" d="M102.8 27.56c-3.77.95-6.54-3.87-6.54-3.87s3.23 3.14 6.15 2.38c0 0 .4 1.48.4 1.48z"/><g><path fill="#c4c5c2" d="M11.76 7.02c0-3.38-4.14-5.5-7.46-3.8C2.76 4 1.8 5.44 1.8 7c0 3.4 4.16 5.5 7.47 3.8 1.55-.77 2.5-2.22 2.5-3.8z"/><path fill="url(#B)" d="M291.7-437.6a3.3 3.3 0 1 1-6.64 0 3.3 3.3 0 1 1 6.63 0z" transform="matrix(1.503 0 0 -1.328 -426.635 -574.088)"/></g><g><path fill="#c4c5c2" d="M15.24 11.9c0-3.4-4.15-5.5-7.47-3.82-1.54.8-2.5 2.24-2.5 3.8 0 3.4 4.16 5.5 7.48 3.82 1.54-.78 2.5-2.24 2.5-3.8z"/><path fill="url(#C)" d="M291.7-437.6a3.3 3.3 0 1 1-6.64 0 3.3 3.3 0 1 1 6.63 0z" transform="matrix(1.503 0 0 -1.328 -423.159 -569.22)"/></g><g><path fill="#c4c5c2" d="M13.68 16.06c0-3.38-4.15-5.5-7.47-3.8-1.53.78-2.48 2.23-2.48 3.8 0 3.4 4.15 5.5 7.47 3.8 1.53-.77 2.48-2.22 2.48-3.8z"/><path fill="url(#D)" d="M291.7-437.6a3.3 3.3 0 1 1-6.64 0 3.3 3.3 0 1 1 6.63 0z" transform="matrix(1.503 0 0 -1.328 -424.723 -565.048)"/></g><g><path fill="#c4c5c2" d="M17.5 19.9c0-3.4-4.15-5.52-7.47-3.82-1.54.78-2.5 2.24-2.5 3.8 0 3.4 4.16 5.5 7.48 3.82 1.55-.8 2.5-2.24 2.5-3.8z"/><path fill="url(#E)" d="M291.7-437.6a3.3 3.3 0 1 1-6.64 0 3.3 3.3 0 1 1 6.63 0z" transform="matrix(1.503 0 0 -1.328 -420.899 -561.224)"/></g><g><path fill="#c4c5c2" d="M17.33 24.58c0-3.38-4.15-5.5-7.47-3.8-1.54.78-2.5 2.23-2.5 3.8 0 3.4 4.16 5.5 7.48 3.8 1.54-.77 2.5-2.23 2.5-3.8z"/><path fill="url(#F)" d="M291.7-437.6a3.3 3.3 0 1 1-6.64 0 3.3 3.3 0 1 1 6.63 0z" transform="matrix(1.503 0 0 -1.328 -421.073 -556.53)"/></g><g><path fill="#c4c5c2" d="M19.93 27.88c0-3.38-4.14-5.5-7.46-3.8-1.54.78-2.5 2.23-2.5 3.8 0 3.4 4.16 5.5 7.47 3.8 1.55-.77 2.5-2.22 2.5-3.8z"/><path fill="url(#G)" d="M291.7-437.6a3.3 3.3 0 1 1-6.64 0 3.3 3.3 0 1 1 6.63 0z" transform="matrix(1.503 0 0 -1.328 -418.465 -553.227)"/></g><g><path fill="#c4c5c2" d="M19.76 31.88c0-3.38-4.15-5.5-7.47-3.8-1.55.78-2.5 2.23-2.5 3.8 0 3.4 4.15 5.5 7.47 3.8 1.54-.77 2.5-2.23 2.5-3.8z"/><path fill="url(#H)" d="M291.7-437.6a3.3 3.3 0 1 1-6.64 0 3.3 3.3 0 1 1 6.63 0z" transform="matrix(1.503 0 0 -1.328 -418.639 -549.229)"/></g><g><path fill="#c4c5c2" d="M23.6 36.92c0-3.38-4.16-5.5-7.48-3.8-1.54.78-2.5 2.23-2.5 3.8 0 3.4 4.16 5.5 7.48 3.8 1.54-.77 2.5-2.22 2.5-3.8z"/><path fill="url(#I)" d="M291.7-437.6a3.3 3.3 0 1 1-6.64 0 3.3 3.3 0 1 1 6.63 0z" transform="matrix(1.503 0 0 -1.328 -414.814 -544.187)"/></g><g><path fill="#c4c5c2" d="M26.54 42.3c0-3.37-4.15-5.5-7.47-3.8-1.54.8-2.5 2.24-2.5 3.8 0 3.4 4.16 5.52 7.48 3.82 1.54-.78 2.5-2.23 2.5-3.8z"/><path fill="url(#J)" d="M291.7-437.6a3.3 3.3 0 1 1-6.64 0 3.3 3.3 0 1 1 6.63 0z" transform="matrix(1.503 0 0 -1.328 -411.859 -538.798)"/></g><g><path fill="#c4c5c2" d="M31.23 37.8c0-3.4-4.15-5.5-7.46-3.82-1.55.8-2.5 2.24-2.5 3.8 0 3.4 4.15 5.52 7.47 3.82 1.54-.78 2.5-2.23 2.5-3.8z"/><path fill="url(#K)" d="M291.7-437.6a3.3 3.3 0 1 1-6.64 0 3.3 3.3 0 1 1 6.63 0z" transform="matrix(1.503 0 0 -1.328 -407.165 -543.318)"/></g><g><path fill="#c4c5c2" d="M34.02 32.93c0-3.4-4.15-5.5-7.47-3.8-1.54.77-2.5 2.22-2.5 3.8 0 3.38 4.16 5.5 7.48 3.8 1.54-.78 2.5-2.23 2.5-3.8z"/><path fill="url(#L)" d="M291.7-437.6a3.3 3.3 0 1 1-6.64 0 3.3 3.3 0 1 1 6.63 0z" transform="matrix(1.503 0 0 -1.328 -404.384 -548.186)"/></g><g><path fill="#c4c5c2" d="M37.14 27.88c0-3.38-4.14-5.5-7.46-3.8-1.54.78-2.5 2.23-2.5 3.8 0 3.4 4.16 5.5 7.47 3.8 1.55-.77 2.5-2.22 2.5-3.8z"/><path fill="url(#M)" d="M291.7-437.6a3.3 3.3 0 1 1-6.64 0 3.3 3.3 0 1 1 6.63 0z" transform="matrix(1.503 0 0 -1.328 -401.255 -553.227)"/></g><g><path fill="#c4c5c2" d="M37.32 22.67c0-3.4-4.15-5.5-7.47-3.8-1.54.78-2.5 2.23-2.5 3.8 0 3.4 4.16 5.5 7.48 3.8 1.54-.78 2.5-2.23 2.5-3.8z"/><path fill="url(#N)" d="M291.7-437.6a3.3 3.3 0 1 1-6.64 0 3.3 3.3 0 1 1 6.63 0z" transform="matrix(1.503 0 0 -1.328 -401.081 -558.442)"/></g><g><path fill="#c4c5c2" d="M42.2 19.37c0-3.4-4.16-5.5-7.48-3.8-1.54.77-2.5 2.22-2.5 3.8 0 3.38 4.16 5.5 7.48 3.8 1.54-.78 2.5-2.23 2.5-3.8z"/><path fill="url(#O)" d="M291.7-437.6a3.3 3.3 0 1 1-6.64 0 3.3 3.3 0 1 1 6.63 0z" transform="matrix(1.503 0 0 -1.328 -396.214 -561.745)"/></g><g><path fill="#c4c5c2" d="M43.06 13.8c0-3.38-4.15-5.5-7.47-3.8-1.55.78-2.5 2.23-2.5 3.8 0 3.4 4.15 5.5 7.47 3.8 1.54-.77 2.5-2.22 2.5-3.8z"/><path fill="url(#P)" d="M291.7-437.6a3.3 3.3 0 1 1-6.64 0 3.3 3.3 0 1 1 6.63 0z" transform="matrix(1.503 0 0 -1.328 -395.344 -567.308)"/></g><g><path fill="#c4c5c2" d="M46.36 10.15c0-3.38-4.15-5.5-7.47-3.8-1.55.78-2.5 2.23-2.5 3.8 0 3.4 4.15 5.5 7.47 3.8 1.54-.77 2.5-2.23 2.5-3.8z"/><path fill="url(#Q)" d="M291.7-437.6a3.3 3.3 0 1 1-6.64 0 3.3 3.3 0 1 1 6.63 0z" transform="matrix(1.503 0 0 -1.328 -392.041 -570.959)"/></g><g><path fill="#c4c5c2" d="M46 6.68c0-3.4-4.14-5.5-7.46-3.8-1.54.77-2.5 2.22-2.5 3.8 0 3.38 4.16 5.5 7.48 3.8 1.54-.78 2.5-2.23 2.5-3.8z"/><path fill="url(#R)" d="M291.7-437.6a3.3 3.3 0 1 1-6.64 0 3.3 3.3 0 1 1 6.63 0z" transform="matrix(1.503 0 0 -1.328 -392.389 -574.436)"/></g><path fill="url(#S)" d="M291.7-437.6a3.3 3.3 0 1 1-6.64 0 3.3 3.3 0 1 1 6.63 0z" transform="matrix(1.439 0 0 -1.271 -374.687 -538.649)"/><path fill="url(#T)" d="M291.7-437.6a3.3 3.3 0 1 1-6.64 0 3.3 3.3 0 1 1 6.63 0z" transform="matrix(1.439 0 0 -1.271 -384.77 -519.874)"/><path fill="url(#U)" d="M291.7-437.6a3.3 3.3 0 1 1-6.64 0 3.3 3.3 0 1 1 6.63 0z" transform="matrix(1.439 0 0 -1.271 -403.023 -528.392)"/><g><path fill="#c4c5c2" d="M38.98 24.9c0-1.96-2.4-3.2-4.32-2.2-.9.45-1.44 1.3-1.44 2.2 0 1.95 2.4 3.18 4.32 2.2.9-.46 1.44-1.3 1.44-2.2z"/><path fill="url(#V)" d="M291.7-437.6a3.3 3.3 0 1 1-6.64 0 3.3 3.3 0 1 1 6.63 0z" transform="matrix(.869 0 0 -.768 -214.485 -311.186)"/></g><g><path fill="#c4c5c2" d="M31.33 27.33c0-1.96-2.4-3.18-4.32-2.2-.88.45-1.43 1.3-1.43 2.2 0 1.96 2.4 3.18 4.32 2.2.88-.45 1.43-1.3 1.43-2.2z"/><path fill="url(#W)" d="M291.7-437.6a3.3 3.3 0 1 1-6.64 0 3.3 3.3 0 1 1 6.63 0z" transform="matrix(.869 0 0 -.768 -222.134 -308.752)"/></g><g><path fill="#c4c5c2" d="M35.85 30.1c0-1.95-2.4-3.17-4.32-2.2-.9.46-1.44 1.3-1.44 2.2 0 1.97 2.4 3.2 4.3 2.2.9-.44 1.45-1.28 1.45-2.2z"/><path fill="url(#X)" d="M291.7-437.6a3.3 3.3 0 1 1-6.64 0 3.3 3.3 0 1 1 6.63 0z" transform="matrix(.869 0 0 -.768 -217.614 -305.971)"/></g><g><path fill="#c4c5c2" d="M26.46 34.98c0-1.96-2.4-3.18-4.32-2.2-.9.45-1.43 1.3-1.43 2.2 0 1.96 2.4 3.18 4.32 2.2.9-.45 1.44-1.3 1.44-2.2z"/><path fill="url(#Y)" d="M291.7-437.6a3.3 3.3 0 1 1-6.64 0 3.3 3.3 0 1 1 6.63 0z" transform="matrix(.869 0 0 -.768 -227.002 -301.103)"/></g><g><path fill="#c4c5c2" d="M20.9 35.5c0-1.96-2.4-3.18-4.32-2.2-.9.45-1.44 1.3-1.44 2.2 0 1.96 2.4 3.18 4.32 2.2.9-.45 1.44-1.3 1.44-2.2z"/><path fill="url(#Z)" d="M291.7-437.6a3.3 3.3 0 1 1-6.64 0 3.3 3.3 0 1 1 6.63 0z" transform="matrix(.869 0 0 -.768 -232.565 -300.582)"/></g><g><path fill="#c4c5c2" d="M18.64 23.68c0-1.96-2.4-3.18-4.32-2.2-.9.45-1.44 1.3-1.44 2.2 0 1.96 2.4 3.18 4.32 2.2.9-.45 1.44-1.3 1.44-2.2z"/><path fill="url(#aa)" d="M291.7-437.6a3.3 3.3 0 1 1-6.64 0 3.3 3.3 0 1 1 6.63 0z" transform="matrix(.869 0 0 -.768 -234.825 -312.403)"/></g><g><path fill="#c4c5c2" d="M11.5 19.85c0-1.95-2.4-3.18-4.3-2.2-.9.46-1.45 1.3-1.45 2.2 0 1.96 2.4 3.2 4.32 2.2.9-.45 1.44-1.3 1.44-2.2z"/><path fill="url(#ab)" d="M291.7-437.6a3.3 3.3 0 1 1-6.64 0 3.3 3.3 0 1 1 6.63 0z" transform="matrix(.869 0 0 -.768 -241.952 -316.228)"/></g><g><path fill="#c4c5c2" d="M8.2 12.38c0-1.96-2.4-3.18-4.3-2.2-.9.45-1.45 1.3-1.45 2.2 0 1.96 2.4 3.18 4.32 2.2.9-.45 1.44-1.3 1.44-2.2z"/><path fill="url(#ac)" d="M291.7-437.6a3.3 3.3 0 1 1-6.64 0 3.3 3.3 0 1 1 6.63 0z" transform="matrix(.869 0 0 -.768 -245.255 -323.703)"/></g><g><path fill="#c4c5c2" d="M15.5 16.03c0-1.96-2.4-3.18-4.3-2.2-.9.45-1.45 1.3-1.45 2.2 0 1.96 2.4 3.18 4.32 2.2.9-.45 1.44-1.3 1.44-2.2z"/><path fill="url(#ad)" d="M291.7-437.6a3.3 3.3 0 1 1-6.64 0 3.3 3.3 0 1 1 6.63 0z" transform="matrix(.869 0 0 -.768 -237.954 -320.052)"/></g><g><path fill="#c4c5c2" d="M20.73 30.63c0-1.96-2.4-3.18-4.32-2.2-.88.45-1.43 1.3-1.43 2.2 0 1.96 2.4 3.2 4.32 2.2.88-.45 1.43-1.3 1.43-2.2z"/><path fill="url(#ae)" d="M291.7-437.6a3.3 3.3 0 1 1-6.64 0 3.3 3.3 0 1 1 6.63 0z" transform="matrix(.869 0 0 -.768 -232.738 -305.449)"/></g><g><path fill="#c4c5c2" d="M36.54 16.55c0-1.96-2.4-3.18-4.3-2.2-.9.45-1.45 1.3-1.45 2.2 0 1.96 2.4 3.18 4.3 2.2.9-.45 1.44-1.3 1.44-2.2z"/><path fill="url(#af)" d="M291.7-437.6a3.3 3.3 0 1 1-6.64 0 3.3 3.3 0 1 1 6.63 0z" transform="matrix(.869 0 0 -.768 -216.919 -319.531)"/></g><g><path fill="#c4c5c2" d="M33.24 37.24c0-1.96-2.4-3.18-4.32-2.2-.9.45-1.44 1.3-1.44 2.2 0 1.96 2.4 3.18 4.32 2.2.9-.45 1.44-1.3 1.44-2.2z"/><path fill="url(#ag)" d="M291.7-437.6a3.3 3.3 0 1 1-6.64 0 3.3 3.3 0 1 1 6.63 0z" transform="matrix(.869 0 0 -.768 -220.222 -298.844)"/></g><g><path fill="#c4c5c2" d="M12.12 15.58a3.82 3.38 0 1 1-7.65 0 3.82 3.38 0 1 1 7.65 0z"/><path fill="url(#ah)" d="M291.7-437.6a3.3 3.3 0 1 1-6.64 0 3.3 3.3 0 1 1 6.63 0z" transform="matrix(1.154 0 0 1.02 -324.488 461.493)"/></g><g><path fill="#c4c5c2" d="M15.6 26a3.82 3.38 0 1 1-7.65 0 3.82 3.38 0 1 1 7.64 0z"/><path fill="url(#ai)" d="M291.7-437.6a3.3 3.3 0 1 1-6.64 0 3.3 3.3 0 1 1 6.63 0z" transform="matrix(1.154 0 0 1.02 -321.012 471.924)"/></g><g><path fill="#c4c5c2" d="M19.6 34a3.82 3.38 0 1 1-7.65 0 3.82 3.38 0 1 1 7.64 0z"/><path fill="url(#aj)" d="M291.7-437.6a3.3 3.3 0 1 1-6.64 0 3.3 3.3 0 1 1 6.63 0z" transform="matrix(1.154 0 0 1.02 -317.013 479.92)"/></g><g><path fill="#c4c5c2" d="M32.28 35.75a3.82 3.38 0 1 1-7.64 0 3.82 3.38 0 1 1 7.64 0z"/><path fill="url(#ak)" d="M291.7-437.6a3.3 3.3 0 1 1-6.64 0 3.3 3.3 0 1 1 6.63 0z" transform="matrix(1.154 0 0 1.02 -304.323 481.659)"/></g><g><path fill="#c4c5c2" d="M32.98 30.7a3.82 3.38 0 1 1-7.65 0 3.82 3.38 0 1 1 7.65 0z"/><path fill="url(#al)" d="M291.7-437.6a3.3 3.3 0 1 1-6.64 0 3.3 3.3 0 1 1 6.63 0z" transform="matrix(1.154 0 0 1.02 -303.628 476.617)"/></g><g><path fill="#c4c5c2" d="M35.76 23.75a3.82 3.38 0 1 1-7.65 0 3.82 3.38 0 1 1 7.66 0z"/><path fill="url(#am)" d="M291.7-437.6a3.3 3.3 0 1 1-6.64 0 3.3 3.3 0 1 1 6.63 0z" transform="matrix(1.154 0 0 1.02 -300.846 469.664)"/></g><g><path fill="#c4c5c2" d="M40.1 19.58a3.82 3.38 0 1 1-7.64 0 3.82 3.38 0 1 1 7.64 0z"/><path fill="url(#an)" d="M291.7-437.6a3.3 3.3 0 1 1-6.64 0 3.3 3.3 0 1 1 6.63 0z" transform="matrix(1.154 0 0 1.02 -296.5 465.492)"/></g><g><path fill="#c4c5c2" d="M42.54 13.15a3.82 3.38 0 1 1-7.65 0 3.82 3.38 0 1 1 7.64 0z"/><path fill="url(#ao)" d="M291.7-437.6a3.3 3.3 0 1 1-6.64 0 3.3 3.3 0 1 1 6.63 0z" transform="matrix(1.154 0 0 1.02 -294.066 459.06)"/></g><g><path fill="#c4c5c2" d="M44.97 18.02a3.82 3.38 0 1 1-7.64 0 3.82 3.38 0 1 1 7.64 0z"/><path fill="url(#ap)" d="M291.7-437.6a3.3 3.3 0 1 1-6.64 0 3.3 3.3 0 1 1 6.63 0z" transform="matrix(1.154 0 0 1.02 -291.633 463.927)"/></g><g><path fill="#c4c5c2" d="M34.9 36.96a3.82 3.38 0 1 1-7.66 0 3.82 3.38 0 1 1 7.65 0z"/><path fill="url(#aq)" d="M291.7-437.6a3.3 3.3 0 1 1-6.64 0 3.3 3.3 0 1 1 6.63 0z" transform="matrix(1.154 0 0 1.02 -301.715 482.876)"/></g></g></svg>