<svg xmlns="http://www.w3.org/2000/svg" width="48" height="48" xmlns:xlink="http://www.w3.org/1999/xlink"><defs><linearGradient><stop offset="0" stop-color="#fff" stop-opacity="0"/><stop offset=".5" stop-color="#fff" stop-opacity="0"/><stop offset="1" stop-color="#fff"/></linearGradient><linearGradient id="i"><stop offset="0" stop-color="#74726e"/><stop offset="1" stop-color="#5d5b58" stop-opacity="0"/></linearGradient><linearGradient id="h"><stop offset="0" stop-color="#5d5b58"/><stop offset="1" stop-color="#5d5b58" stop-opacity="0"/></linearGradient><linearGradient id="g"><stop offset="0" stop-color="#888a85"/><stop offset="1" stop-color="#51534f"/></linearGradient><linearGradient id="j"><stop offset="0" stop-color="#2e3436" stop-opacity=".619"/><stop offset="1" stop-color="#2e3436" stop-opacity="0"/></linearGradient><linearGradient id="e"><stop offset="0" stop-color="#fff"/><stop offset="1" stop-color="#fff" stop-opacity="0"/></linearGradient><linearGradient id="d"><stop offset="0" stop-color="#fff"/><stop offset="1" stop-color="#fff" stop-opacity="0"/></linearGradient><linearGradient id="c"><stop offset="0" stop-color="#fff"/><stop offset="1" stop-color="#fff" stop-opacity="0"/></linearGradient><linearGradient id="b"><stop offset="0" stop-color="#fff"/><stop offset="1" stop-color="#fff" stop-opacity="0"/></linearGradient><linearGradient id="a"><stop offset="0" stop-color="#fff"/><stop offset="1" stop-color="#fff" stop-opacity="0"/></linearGradient><linearGradient id="f"><stop offset="0" stop-color="#fff"/><stop offset="1" stop-color="#fff" stop-opacity="0"/></linearGradient><linearGradient x1="287.517" x2="289.676" y1="-439.753" y2="-436.322" xlink:href="#a" gradientUnits="userSpaceOnUse"/><linearGradient x1="286.512" x2="289.854" y1="-441.291" y2="-436.145" xlink:href="#b" gradientUnits="userSpaceOnUse"/><linearGradient x1="285.941" x2="289.391" y1="-439.939" y2="-436.443" xlink:href="#c" gradientUnits="userSpaceOnUse"/><linearGradient x1="275.942" x2="279.975" y1="-437.105" y2="-431.918" xlink:href="#d" gradientUnits="userSpaceOnUse"/><linearGradient x1="286.666" x2="289.766" y1="-439.484" y2="-436.707" xlink:href="#e" gradientUnits="userSpaceOnUse"/><linearGradient x1="284.802" x2="288.9" y1="-441.233" y2="-436.831" xlink:href="#c" gradientUnits="userSpaceOnUse"/><linearGradient x1="286.415" x2="290.078" y1="-435.784" y2="-439.289" xlink:href="#c" gradientUnits="userSpaceOnUse"/><linearGradient x1="286.295" x2="289.395" y1="-435.628" y2="-438.19" xlink:href="#e" gradientUnits="userSpaceOnUse"/><linearGradient x1="276.614" x2="283.463" y1="-431" y2="-438.722" xlink:href="#f" gradientUnits="userSpaceOnUse"/><linearGradient x1="286.014" x2="288.375" y1="-435.546" y2="-438.971" xlink:href="#c" gradientUnits="userSpaceOnUse"/><linearGradient x1="287.147" x2="289.473" y1="-434.809" y2="-437.594" xlink:href="#b" gradientUnits="userSpaceOnUse"/><linearGradient x1="286.246" x2="290.121" y1="-434.732" y2="-439.69" xlink:href="#a" gradientUnits="userSpaceOnUse"/><linearGradient x1="271.022" x2="285.029" y1="-441.052" y2="-431.97" xlink:href="#f" gradientUnits="userSpaceOnUse" gradientTransform="matrix(1.452 0 0 1.286 -383.21 574.384)"/><linearGradient x1="286.415" x2="288.375" y1="-435.784" y2="-437.888" xlink:href="#c" gradientUnits="userSpaceOnUse"/><linearGradient x1="20.73" x2="23.296" y1="29.815" y2="45.056" xlink:href="#g" gradientUnits="userSpaceOnUse" gradientTransform="matrix(.989 0 0 .989 -.147 .251)"/><linearGradient x1="29.124" x2="27.356" y1="38.897" y2="34.879" xlink:href="#h" gradientUnits="userSpaceOnUse"/><linearGradient x1="29.124" x2="27.356" y1="38.897" y2="34.879" xlink:href="#i" gradientUnits="userSpaceOnUse" gradientTransform="matrix(.917 -.399 .399 .917 -4.08 7.972)"/><radialGradient cx="23.335" cy="44.42" r="18.562" xlink:href="#j" gradientUnits="userSpaceOnUse" gradientTransform="matrix(1 0 0 .193 0 35.854)" fx="23.335" fy="44.42"/><linearGradient x1="20.73" x2="23.296" y1="29.815" y2="45.056" xlink:href="#g" gradientUnits="userSpaceOnUse" gradientTransform="matrix(.989 0 0 .989 -49.645 2.314)"/><linearGradient x1="287.517" x2="289.676" y1="-439.753" y2="-436.322" xlink:href="#a" gradientUnits="userSpaceOnUse"/><linearGradient x1="286.512" x2="289.854" y1="-441.291" y2="-436.145" xlink:href="#b" gradientUnits="userSpaceOnUse"/><linearGradient x1="285.941" x2="289.391" y1="-439.939" y2="-436.443" xlink:href="#c" gradientUnits="userSpaceOnUse"/><linearGradient x1="275.942" x2="279.975" y1="-437.105" y2="-431.918" xlink:href="#d" gradientUnits="userSpaceOnUse"/><linearGradient x1="286.666" x2="289.766" y1="-439.484" y2="-436.707" xlink:href="#e" gradientUnits="userSpaceOnUse"/><linearGradient x1="284.802" x2="288.9" y1="-441.233" y2="-436.831" xlink:href="#c" gradientUnits="userSpaceOnUse"/><linearGradient x1="286.246" x2="290.121" y1="-434.732" y2="-439.69" xlink:href="#a" gradientUnits="userSpaceOnUse"/><linearGradient x1="287.147" x2="289.473" y1="-434.809" y2="-437.594" xlink:href="#b" gradientUnits="userSpaceOnUse"/><linearGradient x1="286.014" x2="288.375" y1="-435.546" y2="-438.971" xlink:href="#c" gradientUnits="userSpaceOnUse"/><linearGradient x1="276.614" x2="283.463" y1="-431" y2="-438.722" xlink:href="#f" gradientUnits="userSpaceOnUse"/><linearGradient x1="286.295" x2="289.395" y1="-435.628" y2="-438.19" xlink:href="#e" gradientUnits="userSpaceOnUse"/><linearGradient x1="286.415" x2="290.078" y1="-435.784" y2="-439.289" xlink:href="#c" gradientUnits="userSpaceOnUse"/><linearGradient x1="286.415" x2="288.375" y1="-435.784" y2="-437.888" xlink:href="#c" gradientUnits="userSpaceOnUse"/><linearGradient x1="271.022" x2="285.029" y1="-441.052" y2="-431.97" xlink:href="#f" gradientUnits="userSpaceOnUse" gradientTransform="matrix(1.452 0 0 1.286 -433.12 576.447)"/><linearGradient x1="20.73" x2="23.296" y1="29.815" y2="45.056" xlink:href="#g" gradientUnits="userSpaceOnUse" gradientTransform="matrix(.989 0 0 .989 -.147 .251)"/><linearGradient x1="20.73" x2="23.296" y1="29.815" y2="45.056" xlink:href="#g" gradientUnits="userSpaceOnUse" gradientTransform="matrix(.989 0 0 .989 -.147 .251)"/><linearGradient x1="20.73" x2="23.296" y1="29.815" y2="45.056" xlink:href="#g" gradientUnits="userSpaceOnUse" gradientTransform="matrix(.989 0 0 .989 -1.856 .192)"/><linearGradient x1="306.259" x2="313.121" y1="-443.206" y2="-434.582" xlink:href="#k" gradientUnits="userSpaceOnUse" gradientTransform="matrix(1.452 0 0 1.286 -433.12 576.447)"/><linearGradient id="k"><stop offset="0" stop-color="#fff"/><stop offset="1" stop-color="#fff" stop-opacity="0"/></linearGradient><linearGradient x1="271.022" x2="285.029" y1="-441.052" y2="-431.97" gradientTransform="matrix(1.452 0 0 1.286 -387.036 572.71)" gradientUnits="userSpaceOnUse" xlink:href="#k"/><linearGradient id="l"><stop offset="0" stop-color="#fff"/><stop offset="1" stop-color="#fff" stop-opacity="0"/></linearGradient><linearGradient x1="271.022" x2="285.029" y1="-441.052" y2="-431.97" gradientTransform="matrix(1.452 0 0 1.286 -387.036 572.71)" gradientUnits="userSpaceOnUse" xlink:href="#l"/><linearGradient x1="286.666" x2="289.766" y1="-439.484" y2="-436.707" xlink:href="#e" gradientUnits="userSpaceOnUse"/><linearGradient x1="276.614" x2="283.463" y1="-431" y2="-438.722" xlink:href="#f" gradientUnits="userSpaceOnUse"/><linearGradient x1="286.295" x2="289.395" y1="-435.628" y2="-438.19" xlink:href="#e" gradientUnits="userSpaceOnUse"/><linearGradient x1="286.415" x2="288.375" y1="-435.784" y2="-437.888" xlink:href="#c" gradientUnits="userSpaceOnUse"/><linearGradient id="m"><stop offset="0" stop-color="#e9b96e"/><stop offset="1" stop-color="#c17d11"/></linearGradient><linearGradient id="n"><stop offset="0" stop-color="#8f5902"/><stop offset="1" stop-color="#583701"/></linearGradient><linearGradient x1="5.79" x2="38.471" y1="24.926" y2="24.926" gradientTransform="translate(-5.79 -20.041)" gradientUnits="userSpaceOnUse" xlink:href="#m"/><linearGradient x1="22.879" x2="23.032" y1="24.101" y2="29.227" gradientTransform="translate(-5.79 -20.041)" gradientUnits="userSpaceOnUse" xlink:href="#n"/><linearGradient><stop offset="0" stop-color="#2e3436" stop-opacity=".619"/><stop offset="1" stop-color="#2e3436" stop-opacity="0"/></linearGradient><linearGradient><stop offset="0" stop-color="#74726e"/><stop offset="1" stop-color="#5d5b58" stop-opacity="0"/></linearGradient><linearGradient x1="29.124" x2="27.356" y1="38.897" y2="34.879" gradientTransform="matrix(.917 -.399 .399 .917 -4.08 7.972)" gradientUnits="userSpaceOnUse" xlink:href="#o"/><linearGradient x1="29.124" x2="27.356" y1="38.897" y2="34.879" gradientUnits="userSpaceOnUse" xlink:href="#p"/><linearGradient x1="20.73" x2="23.296" y1="29.815" y2="45.056" gradientTransform="matrix(.989 0 0 .989 .265 .251)" gradientUnits="userSpaceOnUse" xlink:href="#q"/><radialGradient cx="23.335" cy="44.42" r="18.562" gradientUnits="userSpaceOnUse" gradientTransform="matrix(1 0 0 .193 0 35.854)" fy="44.42" fx="23.335" xlink:href="#r"/><linearGradient x1="286.415" x2="288.375" y1="-435.784" y2="-437.888" gradientUnits="userSpaceOnUse" xlink:href="#s"/><linearGradient x1="271.022" x2="285.029" y1="-441.052" y2="-431.97" gradientTransform="matrix(1.452 0 0 1.286 -383.21 574.384)" gradientUnits="userSpaceOnUse" xlink:href="#t"/><linearGradient x1="286.246" x2="290.121" y1="-434.732" y2="-439.69" gradientUnits="userSpaceOnUse" xlink:href="#u"/><linearGradient x1="287.147" x2="289.473" y1="-434.809" y2="-437.594" gradientUnits="userSpaceOnUse" xlink:href="#v"/><linearGradient x1="286.014" x2="288.375" y1="-435.546" y2="-438.971" gradientUnits="userSpaceOnUse" xlink:href="#s"/><linearGradient x1="276.614" x2="283.463" y1="-431" y2="-438.722" gradientUnits="userSpaceOnUse" xlink:href="#t"/><linearGradient x1="286.295" x2="289.395" y1="-435.628" y2="-438.19" gradientUnits="userSpaceOnUse" xlink:href="#w"/><linearGradient x1="286.415" x2="290.078" y1="-435.784" y2="-439.289" gradientUnits="userSpaceOnUse" xlink:href="#s"/><linearGradient x1="284.802" x2="288.9" y1="-441.233" y2="-436.831" gradientUnits="userSpaceOnUse" xlink:href="#s"/><linearGradient x1="286.666" x2="289.766" y1="-439.484" y2="-436.707" gradientUnits="userSpaceOnUse" xlink:href="#w"/><linearGradient x1="275.942" x2="279.975" y1="-437.105" y2="-431.918" gradientUnits="userSpaceOnUse" xlink:href="#x"/><linearGradient x1="285.941" x2="289.391" y1="-439.939" y2="-436.443" gradientUnits="userSpaceOnUse" xlink:href="#s"/><linearGradient x1="286.512" x2="289.854" y1="-441.291" y2="-436.145" gradientUnits="userSpaceOnUse" xlink:href="#v"/><linearGradient x1="287.517" x2="289.676" y1="-439.753" y2="-436.322" gradientUnits="userSpaceOnUse" xlink:href="#u"/><linearGradient id="t"><stop offset="0" stop-color="#fff"/><stop offset="1" stop-color="#fff" stop-opacity="0"/></linearGradient><linearGradient id="u"><stop offset="0" stop-color="#fff"/><stop offset="1" stop-color="#fff" stop-opacity="0"/></linearGradient><linearGradient id="v"><stop offset="0" stop-color="#fff"/><stop offset="1" stop-color="#fff" stop-opacity="0"/></linearGradient><linearGradient id="s"><stop offset="0" stop-color="#fff"/><stop offset="1" stop-color="#fff" stop-opacity="0"/></linearGradient><linearGradient id="x"><stop offset="0" stop-color="#fff"/><stop offset="1" stop-color="#fff" stop-opacity="0"/></linearGradient><linearGradient id="w"><stop offset="0" stop-color="#fff"/><stop offset="1" stop-color="#fff" stop-opacity="0"/></linearGradient><linearGradient id="r"><stop offset="0" stop-color="#2e3436" stop-opacity=".619"/><stop offset="1" stop-color="#2e3436" stop-opacity="0"/></linearGradient><linearGradient id="q"><stop offset="0" stop-color="#888a85"/><stop offset="1" stop-color="#51534f"/></linearGradient><linearGradient id="p"><stop offset="0" stop-color="#5d5b58"/><stop offset="1" stop-color="#5d5b58" stop-opacity="0"/></linearGradient><linearGradient id="o"><stop offset="0" stop-color="#74726e"/><stop offset="1" stop-color="#5d5b58" stop-opacity="0"/></linearGradient><linearGradient x1="29.124" x2="27.356" y1="38.897" y2="34.879" xlink:href="#o" gradientUnits="userSpaceOnUse" gradientTransform="matrix(.917 -.399 .399 .917 -5.973 7.758)"/><linearGradient x1="29.124" x2="27.356" y1="38.897" y2="34.879" xlink:href="#p" gradientUnits="userSpaceOnUse" gradientTransform="translate(-1.892 -.215)"/><linearGradient x1="271.022" x2="285.029" y1="-441.052" y2="-431.97" xlink:href="#t" gradientUnits="userSpaceOnUse" gradientTransform="matrix(1.452 0 0 1.286 -385.102 574.169)"/><linearGradient x1="20.73" x2="23.296" y1="29.815" y2="45.056" xlink:href="#q" gradientUnits="userSpaceOnUse" gradientTransform="matrix(.989 0 0 .989 -1.627 .037)"/><linearGradient id="z" x1="20.73" x2="23.296" y1="29.815" y2="45.056" xlink:href="#q" gradientUnits="userSpaceOnUse" gradientTransform="matrix(.989 0 0 .989 -1.627 .037)"/><linearGradient id="A" x1="287.517" x2="289.676" y1="-439.753" y2="-436.322" xlink:href="#u" gradientUnits="userSpaceOnUse"/><linearGradient id="B" x1="286.512" x2="289.854" y1="-441.291" y2="-436.145" xlink:href="#v" gradientUnits="userSpaceOnUse"/><linearGradient id="C" x1="285.941" x2="289.391" y1="-439.939" y2="-436.443" xlink:href="#s" gradientUnits="userSpaceOnUse"/><linearGradient id="D" x1="275.942" x2="279.975" y1="-437.105" y2="-431.918" xlink:href="#x" gradientUnits="userSpaceOnUse"/><linearGradient id="E" x1="286.666" x2="289.766" y1="-439.484" y2="-436.707" xlink:href="#w" gradientUnits="userSpaceOnUse"/><linearGradient id="F" x1="284.802" x2="288.9" y1="-441.233" y2="-436.831" xlink:href="#s" gradientUnits="userSpaceOnUse"/><linearGradient id="G" x1="286.246" x2="290.121" y1="-434.732" y2="-439.69" xlink:href="#u" gradientUnits="userSpaceOnUse"/><linearGradient id="H" x1="287.147" x2="289.473" y1="-434.809" y2="-437.594" xlink:href="#v" gradientUnits="userSpaceOnUse"/><linearGradient id="I" x1="286.014" x2="288.375" y1="-435.546" y2="-438.971" xlink:href="#s" gradientUnits="userSpaceOnUse"/><linearGradient id="J" x1="276.614" x2="283.463" y1="-431" y2="-438.722" xlink:href="#t" gradientUnits="userSpaceOnUse"/><linearGradient id="K" x1="286.295" x2="289.395" y1="-435.628" y2="-438.19" xlink:href="#w" gradientUnits="userSpaceOnUse"/><linearGradient id="L" x1="286.415" x2="290.078" y1="-435.784" y2="-439.289" xlink:href="#s" gradientUnits="userSpaceOnUse"/><linearGradient id="M" x1="286.415" x2="288.375" y1="-435.784" y2="-437.888" xlink:href="#s" gradientUnits="userSpaceOnUse"/><linearGradient id="N" x1="271.022" x2="285.029" y1="-441.052" y2="-431.97" xlink:href="#t" gradientUnits="userSpaceOnUse" gradientTransform="matrix(1.452 0 0 1.286 -385.102 574.169)"/><linearGradient id="O" x1="29.124" x2="27.356" y1="38.897" y2="34.879" xlink:href="#p" gradientUnits="userSpaceOnUse" gradientTransform="translate(-1.892 -.215)"/><linearGradient id="P" x1="29.124" x2="27.356" y1="38.897" y2="34.879" xlink:href="#o" gradientUnits="userSpaceOnUse" gradientTransform="matrix(.917 -.399 .399 .917 -5.973 7.758)"/><radialGradient id="y" cx="23.335" cy="44.42" r="18.562" xlink:href="#r" gradientUnits="userSpaceOnUse" gradientTransform="matrix(1 0 0 .193 0 35.854)" fx="23.335" fy="44.42"/><linearGradient id="Q" x1="20.73" x2="23.296" y1="29.815" y2="45.056" xlink:href="#q" gradientUnits="userSpaceOnUse" gradientTransform="matrix(.989 0 0 .989 -1.627 .037)"/><linearGradient id="R" x1="287.517" x2="289.676" y1="-439.753" y2="-436.322" xlink:href="#u" gradientUnits="userSpaceOnUse"/><linearGradient id="S" x1="286.512" x2="289.854" y1="-441.291" y2="-436.145" xlink:href="#v" gradientUnits="userSpaceOnUse"/><linearGradient id="T" x1="285.941" x2="289.391" y1="-439.939" y2="-436.443" xlink:href="#s" gradientUnits="userSpaceOnUse"/><linearGradient id="U" x1="275.942" x2="279.975" y1="-437.105" y2="-431.918" xlink:href="#x" gradientUnits="userSpaceOnUse"/><linearGradient id="V" x1="286.666" x2="289.766" y1="-439.484" y2="-436.707" xlink:href="#w" gradientUnits="userSpaceOnUse"/><linearGradient id="W" x1="284.802" x2="288.9" y1="-441.233" y2="-436.831" xlink:href="#s" gradientUnits="userSpaceOnUse"/><linearGradient id="X" x1="286.246" x2="290.121" y1="-434.732" y2="-439.69" xlink:href="#u" gradientUnits="userSpaceOnUse"/><linearGradient id="Y" x1="287.147" x2="289.473" y1="-434.809" y2="-437.594" xlink:href="#v" gradientUnits="userSpaceOnUse"/><linearGradient id="Z" x1="286.014" x2="288.375" y1="-435.546" y2="-438.971" xlink:href="#s" gradientUnits="userSpaceOnUse"/><linearGradient id="aa" x1="276.614" x2="283.463" y1="-431" y2="-438.722" xlink:href="#t" gradientUnits="userSpaceOnUse"/><linearGradient id="ab" x1="286.295" x2="289.395" y1="-435.628" y2="-438.19" xlink:href="#w" gradientUnits="userSpaceOnUse"/><linearGradient id="ac" x1="286.415" x2="290.078" y1="-435.784" y2="-439.289" xlink:href="#s" gradientUnits="userSpaceOnUse"/><linearGradient id="ad" x1="286.415" x2="288.375" y1="-435.784" y2="-437.888" xlink:href="#s" gradientUnits="userSpaceOnUse"/><linearGradient id="ae" x1="271.022" x2="285.029" y1="-441.052" y2="-431.97" xlink:href="#t" gradientUnits="userSpaceOnUse" gradientTransform="matrix(1.452 0 0 1.286 -385.102 574.169)"/><linearGradient id="af" x1="29.124" x2="27.356" y1="38.897" y2="34.879" xlink:href="#p" gradientUnits="userSpaceOnUse" gradientTransform="translate(-1.892 -.215)"/><linearGradient id="ag" x1="29.124" x2="27.356" y1="38.897" y2="34.879" xlink:href="#o" gradientUnits="userSpaceOnUse" gradientTransform="matrix(.917 -.399 .399 .917 -5.973 7.758)"/><linearGradient id="ah" x1="20.73" x2="23.296" y1="29.815" y2="45.056" xlink:href="#q" gradientUnits="userSpaceOnUse" gradientTransform="matrix(.989 0 0 .989 -1.627 .037)"/><linearGradient id="ai" x1="287.517" x2="289.676" y1="-439.753" y2="-436.322" xlink:href="#u" gradientUnits="userSpaceOnUse"/><linearGradient id="aj" x1="286.512" x2="289.854" y1="-441.291" y2="-436.145" xlink:href="#v" gradientUnits="userSpaceOnUse"/><linearGradient id="ak" x1="285.941" x2="289.391" y1="-439.939" y2="-436.443" xlink:href="#s" gradientUnits="userSpaceOnUse"/><linearGradient id="al" x1="275.942" x2="279.975" y1="-437.105" y2="-431.918" xlink:href="#x" gradientUnits="userSpaceOnUse"/><linearGradient id="am" x1="286.666" x2="289.766" y1="-439.484" y2="-436.707" xlink:href="#w" gradientUnits="userSpaceOnUse"/><linearGradient id="an" x1="284.802" x2="288.9" y1="-441.233" y2="-436.831" xlink:href="#s" gradientUnits="userSpaceOnUse"/><linearGradient id="ao" x1="286.246" x2="290.121" y1="-434.732" y2="-439.69" xlink:href="#u" gradientUnits="userSpaceOnUse"/><linearGradient id="ap" x1="287.147" x2="289.473" y1="-434.809" y2="-437.594" xlink:href="#v" gradientUnits="userSpaceOnUse"/><linearGradient id="aq" x1="286.014" x2="288.375" y1="-435.546" y2="-438.971" xlink:href="#s" gradientUnits="userSpaceOnUse"/><linearGradient id="ar" x1="276.614" x2="283.463" y1="-431" y2="-438.722" xlink:href="#t" gradientUnits="userSpaceOnUse"/><linearGradient id="as" x1="286.295" x2="289.395" y1="-435.628" y2="-438.19" xlink:href="#w" gradientUnits="userSpaceOnUse"/><linearGradient id="at" x1="286.415" x2="290.078" y1="-435.784" y2="-439.289" xlink:href="#s" gradientUnits="userSpaceOnUse"/><linearGradient id="au" x1="286.415" x2="288.375" y1="-435.784" y2="-437.888" xlink:href="#s" gradientUnits="userSpaceOnUse"/><linearGradient id="av" x1="271.022" x2="285.029" y1="-441.052" y2="-431.97" xlink:href="#t" gradientUnits="userSpaceOnUse" gradientTransform="matrix(1.452 0 0 1.286 -385.102 574.169)"/><linearGradient id="aw" x1="29.124" x2="27.356" y1="38.897" y2="34.879" xlink:href="#p" gradientUnits="userSpaceOnUse" gradientTransform="translate(-1.892 -.215)"/><linearGradient id="ax" x1="29.124" x2="27.356" y1="38.897" y2="34.879" xlink:href="#o" gradientUnits="userSpaceOnUse" gradientTransform="matrix(.917 -.399 .399 .917 -5.973 7.758)"/></defs><g><path fill="url(#y)" fill-rule="evenodd" d="M41.9 44.42a18.56 3.58 0 1 1-37.13 0 18.56 3.58 0 1 1 37.13 0z" transform="matrix(1.287 0 0 1.276 -6.014 -12.941)" color="#000" overflow="visible"/><g><path fill="#c4c5c2" stroke="url(#z)" stroke-width="2.273" stroke-miterlimit="2" d="M41.6 22.67c.55.86 1.6 2.9 1.6 3.94 0 2.25-1.47 4.14-3.54 5.17.27.68.52 1.4.52 2.16 0 3.67-3.38 6.65-7.54 6.65-1.26 0-2.4-.34-3.43-.83-.9 2.76-3.68 4.83-7.1 4.83-3.42 0-6.2-2.07-7.1-4.83-1.05.5-2.2.83-3.45.83-4.15 0-7.53-2.98-7.53-6.65 0-.77.25-1.48.52-2.16C2.47 30.74 1 28.85 1 26.6c0-1.2.4-4 1-5-.64-.95-.97-1.98-.97-3.07 0-2.25 1.46-4.14 3.53-5.16-.28-.7-.52-1.4-.52-2.16 0-3.67 3.37-6.65 7.53-6.65 1.26 0 2.4.35 3.44.83.93-2.76 3.7-4.82 7.12-4.82s6.2 2.06 7.1 4.82c1.05-.48 2.18-.83 3.44-.83 4.16 0 7.53 2.98 7.53 6.66 0 .78-.25 1.48-.52 2.17 2.07 1.02 3.53 2.9 3.53 5.16 0 1.02-1.07 3.3-1.6 4.14z" transform="matrix(.66 0 0 .66 .229 .401)"/><g><path fill="#c4c5c2" d="M18.36 5.17c0 1.72-1.57 3.1-3.52 3.1-1.94 0-3.5-1.38-3.5-3.1 0-1.7 1.56-3.1 3.5-3.1 1.95 0 3.52 1.4 3.52 3.1z"/><path fill="url(#A)" d="M291.7-437.6c0 1.84-1.5 3.32-3.32 3.32-1.83 0-3.32-1.48-3.32-3.3 0-1.84 1.5-3.33 3.3-3.33 1.84 0 3.33 1.48 3.33 3.3z" transform="matrix(1.062 0 0 .939 -291.48 415.736)"/></g><path fill="#c4c5c2" d="M5.3 7.3h20.1v8H5.3z"/><path fill="#c4c5c2" d="M8.22 12.7c0 1.47-1.35 2.67-3 2.67-1.68 0-3.03-1.2-3.03-2.67s1.34-2.66 3-2.66c1.67 0 3.02 1.2 3.02 2.66z"/><g><path fill="#c4c5c2" d="M25.4 7.84c0 1.7-1.58 3.1-3.52 3.1s-3.52-1.4-3.52-3.1c0-1.72 1.58-3.1 3.52-3.1s3.52 1.38 3.52 3.1z"/><path fill="url(#B)" d="M291.7-437.6c0 1.84-1.5 3.32-3.32 3.32-1.83 0-3.32-1.48-3.32-3.3 0-1.84 1.5-3.33 3.3-3.33 1.84 0 3.33 1.48 3.33 3.3z" transform="matrix(1.062 0 0 .939 -284.445 418.4)"/></g><g><path fill="#c4c5c2" d="M11.33 7.84c0 1.7-1.58 3.1-3.52 3.1-1.93 0-3.5-1.4-3.5-3.1 0-1.72 1.57-3.1 3.5-3.1 1.95 0 3.53 1.38 3.53 3.1z"/><path fill="url(#C)" d="M291.7-437.6c0 1.84-1.5 3.32-3.32 3.32-1.83 0-3.32-1.48-3.32-3.3 0-1.84 1.5-3.33 3.3-3.33 1.84 0 3.33 1.48 3.33 3.3z" transform="matrix(1.062 0 0 .939 -298.515 418.4)"/></g><g><path fill="#c4c5c2" d="M13.77 4.64c-3.6 0-6.5 2.6-6.5 5.77 0 2.12 1.36 3.86 3.27 4.87h6.5c1.9-1 3.27-2.78 3.27-4.9 0-3.17-2.93-5.73-6.53-5.73z"/><path fill="url(#D)" d="M280.5-441c-3.6 0-6.5 2.9-6.5 6.5 0 2.38 1.34 4.37 3.25 5.5h6.5c1.9-1.13 3.25-3.12 3.25-5.5 0-3.6-2.9-6.5-6.5-6.5z" transform="matrix(1.005 0 0 .888 -268.167 396.322)"/></g><path fill="url(#E)" d="M291.7-437.6c0 1.84-1.5 3.32-3.32 3.32-1.83 0-3.32-1.48-3.32-3.3 0-1.84 1.5-3.33 3.3-3.33 1.84 0 3.33 1.48 3.33 3.3z" transform="matrix(.911 0 0 .805 -257.279 364.624)"/><g><path fill="#c4c5c2" d="M22.45 11.85c0 1.96-1.8 3.55-4.02 3.55-2.22 0-4.02-1.6-4.02-3.55 0-1.96 1.8-3.55 4.03-3.55 2.22 0 4.02 1.6 4.02 3.55z"/><path fill="url(#F)" d="M291.7-437.6c0 1.84-1.5 3.32-3.32 3.32-1.83 0-3.32-1.48-3.32-3.3 0-1.84 1.5-3.33 3.3-3.33 1.84 0 3.33 1.48 3.33 3.3z" transform="matrix(1.214 0 0 1.073 -331.732 481.067)"/></g><g><path fill="#c4c5c2" d="M18.35 25.47c0-1.72-1.58-3.1-3.52-3.1s-3.52 1.38-3.52 3.1c0 1.7 1.6 3.1 3.53 3.1 1.94 0 3.52-1.4 3.52-3.1z"/><path fill="url(#G)" d="M291.7-437.6c0 1.84-1.5 3.32-3.32 3.32-1.83 0-3.32-1.48-3.32-3.3 0-1.84 1.5-3.33 3.3-3.33 1.84 0 3.33 1.48 3.33 3.3z" transform="matrix(1.062 0 0 -.939 -291.492 -385.089)"/></g><path fill="#c4c5c2" d="M5.28 23.35h20.1v-8H5.28z"/><path fill="#c4c5c2" d="M8.2 17.94c0-1.48-1.34-2.67-3-2.67-1.67 0-3.02 1.2-3.02 2.67S3.53 20.6 5.2 20.6c1.66 0 3-1.2 3-2.66z"/><g><path fill="#c4c5c2" d="M25.38 22.8c0-1.7-1.57-3.1-3.5-3.1-1.96 0-3.53 1.4-3.53 3.1 0 1.72 1.57 3.1 3.52 3.1 1.94 0 3.5-1.38 3.5-3.1z"/><path fill="url(#H)" d="M291.7-437.6c0 1.84-1.5 3.32-3.32 3.32-1.83 0-3.32-1.48-3.32-3.3 0-1.84 1.5-3.33 3.3-3.33 1.84 0 3.33 1.48 3.33 3.3z" transform="matrix(1.062 0 0 -.939 -284.457 -387.753)"/></g><g><path fill="#c4c5c2" d="M11.3 22.8c0-1.7-1.56-3.1-3.5-3.1-1.95 0-3.52 1.4-3.52 3.1 0 1.72 1.57 3.1 3.52 3.1 1.94 0 3.5-1.38 3.5-3.1z"/><path fill="url(#I)" d="M291.7-437.6c0 1.84-1.5 3.32-3.32 3.32-1.83 0-3.32-1.48-3.32-3.3 0-1.84 1.5-3.33 3.3-3.33 1.84 0 3.33 1.48 3.33 3.3z" transform="matrix(1.062 0 0 -.939 -298.527 -387.753)"/></g><g><path fill="#c4c5c2" d="M13.76 26c-3.6 0-6.5-2.6-6.5-5.77 0-2.1 1.36-3.85 3.27-4.86h6.5c1.9 1 3.26 2.78 3.26 4.9 0 3.16-2.94 5.73-6.54 5.73z"/><path fill="url(#J)" d="M280.5-441c-3.6 0-6.5 2.9-6.5 6.5 0 2.38 1.34 4.37 3.25 5.5h6.5c1.9-1.13 3.25-3.12 3.25-5.5 0-3.6-2.9-6.5-6.5-6.5z" transform="matrix(1.005 0 0 -.888 -268.178 -365.675)"/></g><path fill="url(#K)" d="M291.7-437.6c0 1.84-1.5 3.32-3.32 3.32-1.83 0-3.32-1.48-3.32-3.3 0-1.84 1.5-3.33 3.3-3.33 1.84 0 3.33 1.48 3.33 3.3z" transform="matrix(.911 0 0 -.805 -257.29 -333.977)"/><g><path fill="#c4c5c2" d="M19.74 17c0-1.96-1.8-3.55-4.02-3.55-2.22 0-4.02 1.6-4.02 3.55 0 1.96 1.8 3.55 4.02 3.55 2.22 0 4.02-1.6 4.02-3.55z"/><path fill="url(#L)" d="M291.7-437.6c0 1.84-1.5 3.32-3.32 3.32-1.83 0-3.32-1.48-3.32-3.3 0-1.84 1.5-3.33 3.3-3.33 1.84 0 3.33 1.48 3.33 3.3z" transform="matrix(1.214 0 0 -1.073 -334.444 -452.209)"/></g><g><path fill="#c4c5c2" d="M26.1 15.05c0-1.96-1.8-3.55-4.03-3.55-2.22 0-4.02 1.6-4.02 3.55 0 1.96 1.8 3.55 4.02 3.55 2.22 0 4.02-1.6 4.02-3.55z"/><path fill="url(#M)" d="M291.7-437.6c0 1.84-1.5 3.32-3.32 3.32-1.83 0-3.32-1.48-3.32-3.3 0-1.84 1.5-3.33 3.3-3.33 1.84 0 3.33 1.48 3.33 3.3z" transform="matrix(1.214 0 0 -1.073 -328.092 -454.164)"/></g><path fill="url(#N)" stroke="#fff" stroke-opacity=".502" stroke-width="1.516" stroke-miterlimit="2" d="M3.6 21.83c-.98.98-1.17 3.52-1.17 4.98 0 1.9 1.62 3.58 3.54 4.52-.25.63-.64 1.46-.64 2.17 0 3.34 2.76 5.92 6.7 5.92 1.17 0 2.65-.72 3.62-1.16.97 3.22 3.1 5.2 6.28 5.2s5.6-2.06 6.54-5.17c.97.43 2.78 1.15 3.95 1.15 3.87 0 6.34-2.6 6.34-5.96 0-.72-.42-1.7-.67-2.33 1.9-.93 3.52-2.32 3.52-4.36 0-1.34-.84-2.48-1.76-4.06.9-1.6 1.78-2.98 1.78-4.4 0-2.03-1.6-3.4-3.54-4.35.26-.64.68-1.62.68-2.33 0-3.35-3.07-5.87-6.94-5.87-1.17 0-2.38.63-3.35 1.07-.95-3.1-3.28-4.9-6.45-4.9-3.18 0-5.4 1.7-6.38 4.93-.97-.44-2.25-1.07-3.42-1.07-3.94 0-6.9 2.5-6.9 5.84 0 .7.38 1.72.64 2.35-1.93.93-3.55 2.43-3.55 4.33 0 1.4.23 2.5 1.16 3.48z" transform="matrix(.66 0 0 .66 .229 .401)"/><path fill="#888a85" fill-rule="evenodd" d="M27.07 8.45c0 2.33-3.2 3.22-3.2 3.22s2.3-1.4 2.28-3.2c0 0 .92-.02.92-.02z"/><path fill="url(#O)" fill-rule="evenodd" d="M29.9 40.82c-3.82-.63-4.44-6.16-4.44-6.16s1.7 4.18 4.7 4.64c0 0-.25 1.52-.25 1.52z" transform="matrix(.66 0 0 .66 .229 .401)"/><path fill="url(#P)" fill-rule="evenodd" d="M39.57 32.67c-3.77.96-6.53-3.86-6.53-3.86s3.23 3.16 6.14 2.4c0 0 .4 1.47.4 1.47z" transform="matrix(.66 0 0 .66 .229 .401)"/></g><g><path fill="#c4c5c2" stroke="url(#Q)" stroke-width="2.029" stroke-miterlimit="2" d="M41.6 22.67c.55.86 1.6 2.9 1.6 3.94 0 2.25-1.47 4.14-3.54 5.17.27.68.52 1.4.52 2.16 0 3.67-3.38 6.65-7.54 6.65-1.26 0-2.4-.34-3.43-.83-.9 2.76-3.68 4.83-7.1 4.83-3.42 0-6.2-2.07-7.1-4.83-1.05.5-2.2.83-3.45.83-4.15 0-7.53-2.98-7.53-6.65 0-.77.25-1.48.52-2.16C2.47 30.74 1 28.85 1 26.6c0-1.2.4-4 1-5-.64-.95-.97-1.98-.97-3.07 0-2.25 1.46-4.14 3.53-5.16-.28-.7-.52-1.4-.52-2.16 0-3.67 3.37-6.65 7.53-6.65 1.26 0 2.4.35 3.44.83.93-2.76 3.7-4.82 7.12-4.82s6.2 2.06 7.1 4.82c1.05-.48 2.18-.83 3.44-.83 4.16 0 7.53 2.98 7.53 6.66 0 .78-.25 1.48-.52 2.17 2.07 1.02 3.53 2.9 3.53 5.16 0 1.02-1.07 3.3-1.6 4.14z" transform="matrix(.739 0 0 .739 15.22 2.605)"/><g><path fill="#c4c5c2" d="M35.53 8c0 1.9-1.76 3.47-3.94 3.47-2.2 0-3.95-1.56-3.95-3.48 0-1.93 1.76-3.5 3.94-3.5 2.17 0 3.93 1.57 3.93 3.5z"/><path fill="url(#R)" d="M291.7-437.6c0 1.84-1.5 3.32-3.32 3.32-1.83 0-3.32-1.48-3.32-3.3 0-1.84 1.5-3.33 3.3-3.33 1.84 0 3.33 1.48 3.33 3.3z" transform="matrix(1.189 0 0 1.052 -311.399 467.671)"/></g><path fill="#c4c5c2" d="M20.88 10.33H43.4v8.95H20.88z"/><path fill="#c4c5c2" d="M24.26 16.36c0 1.65-1.5 3-3.38 3-1.86 0-3.38-1.35-3.38-3s1.52-2.98 3.38-2.98c1.87 0 3.38 1.33 3.38 2.98z"/><g><path fill="#c4c5c2" d="M43.4 10.97c0 1.93-1.75 3.5-3.93 3.5s-3.94-1.57-3.94-3.5c0-1.92 1.76-3.48 3.94-3.48 2.18 0 3.94 1.55 3.94 3.47z"/><path fill="url(#S)" d="M291.7-437.6c0 1.84-1.5 3.32-3.32 3.32-1.83 0-3.32-1.48-3.32-3.3 0-1.84 1.5-3.33 3.3-3.33 1.84 0 3.33 1.48 3.33 3.3z" transform="matrix(1.189 0 0 1.052 -303.524 470.656)"/></g><g><path fill="#c4c5c2" d="M27.65 10.97c0 1.93-1.77 3.5-3.94 3.5s-3.93-1.57-3.93-3.5c0-1.92 1.76-3.48 3.94-3.48 2.18 0 3.95 1.55 3.95 3.47z"/><path fill="url(#T)" d="M291.7-437.6c0 1.84-1.5 3.32-3.32 3.32-1.83 0-3.32-1.48-3.32-3.3 0-1.84 1.5-3.33 3.3-3.33 1.84 0 3.33 1.48 3.33 3.3z" transform="matrix(1.189 0 0 1.052 -319.274 470.656)"/></g><g><path fill="#c4c5c2" d="M30.35 7.38c-4.03 0-7.28 2.9-7.28 6.47 0 2.36 1.52 4.32 3.66 5.44H34c2.15-1.13 3.67-3.12 3.67-5.48 0-3.56-3.3-6.44-7.32-6.44z"/><path fill="url(#U)" d="M280.5-441c-3.6 0-6.5 2.9-6.5 6.5 0 2.38 1.34 4.37 3.25 5.5h6.5c1.9-1.13 3.25-3.12 3.25-5.5 0-3.6-2.9-6.5-6.5-6.5z" transform="matrix(1.125 0 0 .995 -285.302 445.917)"/></g><path fill="url(#V)" d="M291.7-437.6c0 1.84-1.5 3.32-3.32 3.32-1.83 0-3.32-1.48-3.32-3.3 0-1.84 1.5-3.33 3.3-3.33 1.84 0 3.33 1.48 3.33 3.3z" transform="matrix(1.02 0 0 .901 -273.11 410.424)"/><g><path fill="#c4c5c2" d="M40.03 15.53c0 2.2-2 3.98-4.5 3.98s-4.5-1.77-4.5-3.97 2-3.98 4.5-3.98 4.5 1.78 4.5 3.98z"/><path fill="url(#W)" d="M291.7-437.6c0 1.84-1.5 3.32-3.32 3.32-1.83 0-3.32-1.48-3.32-3.3 0-1.84 1.5-3.33 3.3-3.33 1.84 0 3.33 1.48 3.33 3.3z" transform="matrix(1.36 0 0 1.202 -356.49 540.817)"/></g><g><path fill="#c4c5c2" d="M35.52 30.66c0-1.93-1.77-3.48-3.94-3.48-2.18 0-3.95 1.55-3.95 3.48 0 1.92 1.77 3.48 3.95 3.48 2.17 0 3.94-1.56 3.94-3.48z"/><path fill="url(#X)" d="M291.7-437.6c0 1.84-1.5 3.32-3.32 3.32-1.83 0-3.32-1.48-3.32-3.3 0-1.84 1.5-3.33 3.3-3.33 1.84 0 3.33 1.48 3.33 3.3z" transform="matrix(1.189 0 0 -1.052 -311.413 -429.043)"/></g><path fill="#c4c5c2" d="M20.87 28.3h22.5v-8.95h-22.5z"/><path fill="#c4c5c2" d="M24.25 22.28c0-1.65-1.5-2.98-3.38-2.98-1.87 0-3.38 1.33-3.38 2.98s1.5 3 3.37 3 3.38-1.35 3.38-3z"/><g><path fill="#c4c5c2" d="M43.4 27.67c0-1.92-1.77-3.48-3.94-3.48-2.18 0-3.94 1.55-3.94 3.47 0 1.92 1.76 3.48 3.94 3.48 2.17 0 3.94-1.56 3.94-3.48z"/><path fill="url(#Y)" d="M291.7-437.6c0 1.84-1.5 3.32-3.32 3.32-1.83 0-3.32-1.48-3.32-3.3 0-1.84 1.5-3.33 3.3-3.33 1.84 0 3.33 1.48 3.33 3.3z" transform="matrix(1.189 0 0 -1.052 -303.538 -432.028)"/></g><g><path fill="#c4c5c2" d="M27.64 27.67c0-1.92-1.77-3.48-3.95-3.48s-3.95 1.55-3.95 3.47c0 1.92 1.77 3.48 3.94 3.48s3.94-1.56 3.94-3.48z"/><path fill="url(#Z)" d="M291.7-437.6c0 1.84-1.5 3.32-3.32 3.32-1.83 0-3.32-1.48-3.32-3.3 0-1.84 1.5-3.33 3.3-3.33 1.84 0 3.33 1.48 3.33 3.3z" transform="matrix(1.189 0 0 -1.052 -319.288 -432.028)"/></g><g><path fill="#c4c5c2" d="M30.34 31.26c-4.03 0-7.3-2.9-7.3-6.46 0-2.36 1.53-4.32 3.67-5.45H34c2.14 1.13 3.66 3.12 3.66 5.48 0 3.56-3.3 6.43-7.32 6.43z"/><path fill="url(#aa)" d="M280.5-441c-3.6 0-6.5 2.9-6.5 6.5 0 2.38 1.34 4.37 3.25 5.5h6.5c1.9-1.13 3.25-3.12 3.25-5.5 0-3.6-2.9-6.5-6.5-6.5z" transform="matrix(1.125 0 0 -.995 -285.315 -407.289)"/></g><path fill="url(#ab)" d="M291.7-437.6c0 1.84-1.5 3.32-3.32 3.32-1.83 0-3.32-1.48-3.32-3.3 0-1.84 1.5-3.33 3.3-3.33 1.84 0 3.33 1.48 3.33 3.3z" transform="matrix(1.02 0 0 -.901 -273.123 -371.797)"/><g><path fill="#c4c5c2" d="M37 21.1c0-2.2-2.02-3.97-4.5-3.97-2.5 0-4.5 1.78-4.5 3.98s2 4 4.5 4c2.48 0 4.5-1.8 4.5-4z"/><path fill="url(#ac)" d="M291.7-437.6c0 1.84-1.5 3.32-3.32 3.32-1.83 0-3.32-1.48-3.32-3.3 0-1.84 1.5-3.33 3.3-3.33 1.84 0 3.33 1.48 3.33 3.3z" transform="matrix(1.36 0 0 -1.202 -359.527 -504.193)"/></g><g><path fill="#c4c5c2" d="M44.1 18.92c0-2.2-2-3.98-4.5-3.98-2.48 0-4.5 1.78-4.5 3.98s2.02 3.98 4.5 3.98c2.5 0 4.5-1.78 4.5-3.98z"/><path fill="url(#ad)" d="M291.7-437.6c0 1.84-1.5 3.32-3.32 3.32-1.83 0-3.32-1.48-3.32-3.3 0-1.84 1.5-3.33 3.3-3.33 1.84 0 3.33 1.48 3.33 3.3z" transform="matrix(1.36 0 0 -1.202 -352.414 -506.382)"/></g><path fill="url(#ae)" stroke="#fff" stroke-opacity=".502" stroke-width="1.352" stroke-miterlimit="2" d="M3.6 21.83c-.98.98-1.17 3.52-1.17 4.98 0 1.9 1.62 3.58 3.54 4.52-.25.63-.64 1.46-.64 2.17 0 3.34 2.76 5.92 6.7 5.92 1.17 0 2.65-.72 3.62-1.16.97 3.22 3.1 5.2 6.28 5.2s5.6-2.06 6.54-5.17c.97.43 2.78 1.15 3.95 1.15 3.87 0 6.34-2.6 6.34-5.96 0-.72-.42-1.7-.67-2.33 1.9-.93 3.52-2.32 3.52-4.36 0-1.34-.84-2.48-1.76-4.06.9-1.6 1.78-2.98 1.78-4.4 0-2.03-1.6-3.4-3.54-4.35.26-.64.68-1.62.68-2.33 0-3.35-3.07-5.87-6.94-5.87-1.17 0-2.38.63-3.35 1.07-.95-3.1-3.28-4.9-6.45-4.9-3.18 0-5.4 1.7-6.38 4.93-.97-.44-2.25-1.07-3.42-1.07-3.94 0-6.9 2.5-6.9 5.84 0 .7.38 1.72.64 2.35-1.93.93-3.55 2.43-3.55 4.33 0 1.4.23 2.5 1.16 3.48z" transform="matrix(.739 0 0 .739 15.22 2.605)"/><path fill="#888a85" fill-rule="evenodd" d="M45.27 11.62c0 2.6-3.6 3.6-3.6 3.6s2.6-1.57 2.58-3.6c0 0 1.02 0 1.02 0z"/><path fill="url(#af)" fill-rule="evenodd" d="M29.9 40.82c-3.82-.63-4.44-6.16-4.44-6.16s1.7 4.18 4.7 4.64c0 0-.25 1.52-.25 1.52z" transform="matrix(.739 0 0 .739 15.22 2.605)"/><path fill="url(#ag)" fill-rule="evenodd" d="M39.57 32.67c-3.77.96-6.53-3.86-6.53-3.86s3.23 3.16 6.14 2.4c0 0 .4 1.47.4 1.47z" transform="matrix(.739 0 0 .739 15.22 2.605)"/></g><g><path fill="#c4c5c2" stroke="url(#ah)" stroke-width="1.798" stroke-miterlimit="2" d="M41.6 22.67c.55.86 1.6 2.9 1.6 3.94 0 2.25-1.47 4.14-3.54 5.17.27.68.52 1.4.52 2.16 0 3.67-3.38 6.65-7.54 6.65-1.26 0-2.4-.34-3.43-.83-.9 2.76-3.68 4.83-7.1 4.83-3.42 0-6.2-2.07-7.1-4.83-1.05.5-2.2.83-3.45.83-4.15 0-7.53-2.98-7.53-6.65 0-.77.25-1.48.52-2.16C2.47 30.74 1 28.85 1 26.6c0-1.2.4-4 1-5-.64-.95-.97-1.98-.97-3.07 0-2.25 1.46-4.14 3.53-5.16-.28-.7-.52-1.4-.52-2.16 0-3.67 3.37-6.65 7.53-6.65 1.26 0 2.4.35 3.44.83.93-2.76 3.7-4.82 7.12-4.82s6.2 2.06 7.1 4.82c1.05-.48 2.18-.83 3.44-.83 4.16 0 7.53 2.98 7.53 6.66 0 .78-.25 1.48-.52 2.17 2.07 1.02 3.53 2.9 3.53 5.16 0 1.02-1.07 3.3-1.6 4.14z" transform="matrix(.834 0 0 .834 4.21 8.468)"/><g><path fill="#c4c5c2" d="M27.27 14.37c0 2.17-2 3.92-4.45 3.92s-4.45-1.76-4.45-3.93 2-3.93 4.45-3.93c2.46 0 4.45 1.76 4.45 3.93z"/><path fill="url(#ai)" d="M291.7-437.6c0 1.84-1.5 3.32-3.32 3.32-1.83 0-3.32-1.48-3.32-3.3 0-1.84 1.5-3.33 3.3-3.33 1.84 0 3.33 1.48 3.33 3.3z" transform="matrix(1.342 0 0 1.187 -364.405 533.321)"/></g><path fill="#c4c5c2" d="M10.6 17.18H36v10.1H10.6z"/><path fill="#c4c5c2" d="M14.5 23.73c0 1.86-1.7 3.37-3.8 3.37-2.1 0-3.8-1.5-3.8-3.37 0-1.86 1.7-3.37 3.8-3.37 2.1 0 3.8 1.5 3.8 3.37z"/><g><path fill="#c4c5c2" d="M36.17 17.73c0 2.17-2 3.93-4.45 3.93-2.46 0-4.45-1.76-4.45-3.93s2-3.93 4.45-3.93c2.46 0 4.45 1.76 4.45 3.93z"/><path fill="url(#aj)" d="M291.7-437.6c0 1.84-1.5 3.32-3.32 3.32-1.83 0-3.32-1.48-3.32-3.3 0-1.84 1.5-3.33 3.3-3.33 1.84 0 3.33 1.48 3.33 3.3z" transform="matrix(1.342 0 0 1.187 -355.515 536.69)"/></g><g><path fill="#c4c5c2" d="M18.37 17.73c0 2.17-2 3.93-4.44 3.93-2.46 0-4.45-1.76-4.45-3.93s2-3.93 4.45-3.93 4.44 1.76 4.44 3.93z"/><path fill="url(#ak)" d="M291.7-437.6c0 1.84-1.5 3.32-3.32 3.32-1.83 0-3.32-1.48-3.32-3.3 0-1.84 1.5-3.33 3.3-3.33 1.84 0 3.33 1.48 3.33 3.3z" transform="matrix(1.342 0 0 1.187 -373.295 536.69)"/></g><g><path fill="#c4c5c2" d="M21.5 14.05c-4.55 0-8.23 3.28-8.23 7.3 0 2.66 1.72 4.86 4.13 6.13h8.23c2.4-1.27 4.13-3.5 4.13-6.17 0-4-3.7-7.25-8.26-7.25z"/><path fill="url(#al)" d="M280.5-441c-3.6 0-6.5 2.9-6.5 6.5 0 2.38 1.34 4.37 3.25 5.5h6.5c1.9-1.13 3.25-3.12 3.25-5.5 0-3.6-2.9-6.5-6.5-6.5z" transform="matrix(1.27 0 0 1.123 -334.944 508.769)"/></g><path fill="url(#am)" d="M291.7-437.6c0 1.84-1.5 3.32-3.32 3.32-1.83 0-3.32-1.48-3.32-3.3 0-1.84 1.5-3.33 3.3-3.33 1.84 0 3.33 1.48 3.33 3.3z" transform="matrix(1.151 0 0 1.017 -321.186 468.713)"/><g><path fill="#c4c5c2" d="M32.14 22.55c0 2.48-2.28 4.5-5.08 4.5-2.8 0-5.08-2.02-5.08-4.5s2.27-4.5 5.08-4.5c2.8 0 5.08 2.02 5.08 4.5z"/><path fill="url(#an)" d="M291.7-437.6c0 1.84-1.5 3.32-3.32 3.32-1.83 0-3.32-1.48-3.32-3.3 0-1.84 1.5-3.33 3.3-3.33 1.84 0 3.33 1.48 3.33 3.3z" transform="matrix(1.535 0 0 1.356 -415.27 615.865)"/></g><g><path fill="#c4c5c2" d="M27.26 40.3c0-2.18-2-3.94-4.45-3.94s-4.44 1.76-4.44 3.93c0 2.16 2 3.92 4.45 3.92 2.46 0 4.46-1.76 4.46-3.93z"/><path fill="url(#ao)" d="M291.7-437.6c0 1.84-1.5 3.32-3.32 3.32-1.83 0-3.32-1.48-3.32-3.3 0-1.84 1.5-3.33 3.3-3.33 1.84 0 3.33 1.48 3.33 3.3z" transform="matrix(1.342 0 0 -1.187 -364.42 -478.671)"/></g><path fill="#c4c5c2" d="M10.6 37.47H36v-10.1H10.6z"/><path fill="#c4c5c2" d="M14.5 30.92c0-1.86-1.7-3.36-3.82-3.36-2.1 0-3.8 1.5-3.8 3.36 0 1.87 1.7 3.37 3.8 3.37 2.1 0 3.82-1.5 3.82-3.38z"/><g><path fill="#c4c5c2" d="M36.15 36.92c0-2.17-2-3.93-4.45-3.93s-4.44 1.75-4.44 3.92 2 3.93 4.44 3.93c2.46 0 4.45-1.76 4.45-3.93z"/><path fill="url(#ap)" d="M291.7-437.6c0 1.84-1.5 3.32-3.32 3.32-1.83 0-3.32-1.48-3.32-3.3 0-1.84 1.5-3.33 3.3-3.33 1.84 0 3.33 1.48 3.33 3.3z" transform="matrix(1.342 0 0 -1.187 -355.53 -482.04)"/></g><g><path fill="#c4c5c2" d="M18.36 36.92c0-2.17-2-3.93-4.45-3.93s-4.44 1.75-4.44 3.92 2 3.93 4.45 3.93c2.47 0 4.46-1.76 4.46-3.93z"/><path fill="url(#aq)" d="M291.7-437.6c0 1.84-1.5 3.32-3.32 3.32-1.83 0-3.32-1.48-3.32-3.3 0-1.84 1.5-3.33 3.3-3.33 1.84 0 3.33 1.48 3.33 3.3z" transform="matrix(1.342 0 0 -1.187 -373.31 -482.04)"/></g><g><path fill="#c4c5c2" d="M21.48 40.6c-4.55 0-8.22-3.28-8.22-7.3 0-2.65 1.7-4.86 4.13-6.13h8.2c2.43 1.27 4.14 3.5 4.14 6.17 0 4.02-3.7 7.26-8.26 7.26z"/><path fill="url(#ar)" d="M280.5-441c-3.6 0-6.5 2.9-6.5 6.5 0 2.38 1.34 4.37 3.25 5.5h6.5c1.9-1.13 3.25-3.12 3.25-5.5 0-3.6-2.9-6.5-6.5-6.5z" transform="matrix(1.27 0 0 -1.123 -334.959 -454.119)"/></g><path fill="url(#as)" d="M291.7-437.6c0 1.84-1.5 3.32-3.32 3.32-1.83 0-3.32-1.48-3.32-3.3 0-1.84 1.5-3.33 3.3-3.33 1.84 0 3.33 1.48 3.33 3.3z" transform="matrix(1.151 0 0 -1.017 -321.2 -414.064)"/><g><path fill="#c4c5c2" d="M28.7 29.84c0-2.48-2.26-4.5-5.07-4.5-2.8 0-5.08 2.02-5.08 4.5s2.27 4.5 5.08 4.5c2.8 0 5.08-2.02 5.08-4.5z"/><path fill="url(#at)" d="M291.7-437.6c0 1.84-1.5 3.32-3.32 3.32-1.83 0-3.32-1.48-3.32-3.3 0-1.84 1.5-3.33 3.3-3.33 1.84 0 3.33 1.48 3.33 3.3z" transform="matrix(1.535 0 0 -1.356 -418.697 -563.476)"/></g><g><path fill="#c4c5c2" d="M36.74 27.37c0-2.48-2.28-4.5-5.08-4.5-2.8 0-5.08 2.02-5.08 4.5s2.27 4.5 5.08 4.5c2.8 0 5.08-2.02 5.08-4.5z"/><path fill="url(#au)" d="M291.7-437.6c0 1.84-1.5 3.32-3.32 3.32-1.83 0-3.32-1.48-3.32-3.3 0-1.84 1.5-3.33 3.3-3.33 1.84 0 3.33 1.48 3.33 3.3z" transform="matrix(1.535 0 0 -1.356 -410.669 -565.946)"/></g><path fill="url(#av)" stroke="#fff" stroke-opacity=".502" stroke-width="1.199" stroke-miterlimit="2" d="M3.6 21.83c-.98.98-1.17 3.52-1.17 4.98 0 1.9 1.62 3.58 3.54 4.52-.25.63-.64 1.46-.64 2.17 0 3.34 2.76 5.92 6.7 5.92 1.17 0 2.65-.72 3.62-1.16.97 3.22 3.1 5.2 6.28 5.2s5.6-2.06 6.54-5.17c.97.43 2.78 1.15 3.95 1.15 3.87 0 6.34-2.6 6.34-5.96 0-.72-.42-1.7-.67-2.33 1.9-.93 3.52-2.32 3.52-4.36 0-1.34-.84-2.48-1.76-4.06.9-1.6 1.78-2.98 1.78-4.4 0-2.03-1.6-3.4-3.54-4.35.26-.64.68-1.62.68-2.33 0-3.35-3.07-5.87-6.94-5.87-1.17 0-2.38.63-3.35 1.07-.95-3.1-3.28-4.9-6.45-4.9-3.18 0-5.4 1.7-6.38 4.93-.97-.44-2.25-1.07-3.42-1.07-3.94 0-6.9 2.5-6.9 5.84 0 .7.38 1.72.64 2.35-1.93.93-3.55 2.43-3.55 4.33 0 1.4.23 2.5 1.16 3.48z" transform="matrix(.834 0 0 .834 4.21 8.468)"/><path fill="#888a85" fill-rule="evenodd" d="M38.12 18.64c0 2.94-4.05 4.07-4.05 4.07s2.9-1.77 2.9-4.05c0 0 1.15 0 1.15 0z"/><path fill="url(#aw)" fill-rule="evenodd" d="M29.9 40.82c-3.82-.63-4.44-6.16-4.44-6.16s1.7 4.18 4.7 4.64c0 0-.25 1.52-.25 1.52z" transform="matrix(.834 0 0 .834 4.21 8.468)"/><path fill="url(#ax)" fill-rule="evenodd" d="M39.57 32.67c-3.77.96-6.53-3.86-6.53-3.86s3.23 3.16 6.14 2.4c0 0 .4 1.47.4 1.47z" transform="matrix(.834 0 0 .834 4.21 8.468)"/></g></g></svg>