<svg xmlns="http://www.w3.org/2000/svg" width="48" height="48" xmlns:xlink="http://www.w3.org/1999/xlink"><defs><linearGradient id="d"><stop offset="0" stop-color="#2e3436"/><stop offset="1" stop-color="#2e3436" stop-opacity="0"/></linearGradient><linearGradient><stop offset="0" stop-color="#ffdb19"/><stop offset=".557" stop-color="#ff0707"/><stop offset=".812" stop-color="#6bffff"/><stop offset="1" stop-color="#dfffff"/></linearGradient><linearGradient x1="23.775" x2="23.775" y1="202.3" y2="158.049" gradientUnits="userSpaceOnUse" gradientTransform="translate(-.917 -161.66)"><stop offset="0" stop-color="#E96712"/><stop offset=".648" stop-color="#D4290C"/><stop offset="1" stop-color="#CB1009"/></linearGradient><linearGradient x1="17.424" x2="46.846" y1="20.086" y2="20.086" gradientUnits="userSpaceOnUse" gradientTransform="matrix(.767 0 0 .761 6.565 11.12)"><stop offset="0" stop-color="#fff"/><stop offset="1" stop-color="#B4D8E9"/></linearGradient><radialGradient id="c" cx="294.624" cy="80.627" r="48.777" gradientUnits="userSpaceOnUse" fy="80.627" fx="294.624"><stop offset="0" stop-color="#ebebeb"/><stop offset="1" stop-color="#c5c5c5"/></radialGradient><linearGradient id="a"><stop offset="0" stop-color="#fff"/><stop offset="1" stop-color="#eeeeec" stop-opacity="0"/></linearGradient><linearGradient x1="14.107" x2="39.69" y1="4.772" y2="43.606" xlink:href="#a" gradientUnits="userSpaceOnUse" gradientTransform="matrix(1.058 0 0 1.058 -.956 -.907)"/><linearGradient id="b"><stop offset="0" stop-color="#f0f0f0"/><stop offset="1" stop-color="#f0f0f0" stop-opacity="0"/></linearGradient><linearGradient x1="16.601" x2="17.363" y1="19.142" y2="45.175" xlink:href="#b" gradientUnits="userSpaceOnUse" gradientTransform="matrix(1.058 0 0 1.058 -.956 -.907)"/><radialGradient cx="289.834" cy="61.701" r="48.777" xlink:href="#c" gradientUnits="userSpaceOnUse" gradientTransform="matrix(1.014 -.262 .193 .746 -273.565 69.425)" fx="289.834" fy="61.701"/><linearGradient x1="35.048" x2="42.667" y1="34.952" y2="29.429" xlink:href="#d" gradientUnits="userSpaceOnUse" gradientTransform="translate(-59.143 -2.286)"/><linearGradient x1="12.749" x2="19.049" y1="39.768" y2="39.768" xlink:href="#d" gradientUnits="userSpaceOnUse" gradientTransform="translate(-59.143 -2.286)"/><linearGradient x1="5.217" x2="12.497" y1="20.727" y2="20.727" xlink:href="#d" gradientUnits="userSpaceOnUse" gradientTransform="translate(-59.143 -2.286)"/><linearGradient x1="28.381" x2="31.619" y1="26.381" y2="18.476" xlink:href="#d" gradientUnits="userSpaceOnUse" gradientTransform="translate(-59.143 -2.286)"/><linearGradient x1="24.293" x2="30.338" y1="34.528" y2="34.528" xlink:href="#d" gradientUnits="userSpaceOnUse" gradientTransform="translate(-59.143 -2.286)"/><linearGradient x1="11.206" x2="7.521" y1="9.165" y2="16.498" xlink:href="#d" gradientUnits="userSpaceOnUse" gradientTransform="translate(-59.143 -2.286)"/><linearGradient x1="10.753" x2="16.469" y1="17.796" y2="17.796" xlink:href="#d" gradientUnits="userSpaceOnUse" gradientTransform="translate(-59.143 -2.286)"/><linearGradient x1="20.442" x2="13.683" y1="5.342" y2="10.104" xlink:href="#d" gradientUnits="userSpaceOnUse" gradientTransform="translate(-59.143 -2.286)"/><linearGradient x1="34.476" x2="35.905" y1="26" y2="17.619" xlink:href="#d" gradientUnits="userSpaceOnUse" gradientTransform="translate(-59.143 -2.286)"/><linearGradient x1="29.944" x2="39.499" y1="27.243" y2="27.243" xlink:href="#d" gradientUnits="userSpaceOnUse" gradientTransform="translate(-59.143 -2.286)"/><linearGradient x1="21.556" x2="28.257" y1="19.091" y2="19.091" xlink:href="#d" gradientUnits="userSpaceOnUse" gradientTransform="translate(-59.143 -2.286)"/><linearGradient x1="6.084" x2="15.798" y1="25.588" y2="25.588" xlink:href="#d" gradientUnits="userSpaceOnUse" gradientTransform="translate(-59.143 -2.286)"/><linearGradient x1="5.033" x2="14.216" y1="30.376" y2="30.376" xlink:href="#d" gradientUnits="userSpaceOnUse" gradientTransform="translate(-59.143 -2.286)"/><linearGradient x1="14.952" x2="19.429" y1="30.381" y2="23.143" xlink:href="#d" gradientUnits="userSpaceOnUse" gradientTransform="translate(-59.143 -2.286)"/><linearGradient x1="9.152" x2="18.156" y1="33.162" y2="33.162" xlink:href="#d" gradientUnits="userSpaceOnUse" gradientTransform="translate(-59.143 -2.286)"/><linearGradient x1="17.051" x2="23.09" y1="30.22" y2="30.22" xlink:href="#d" gradientUnits="userSpaceOnUse" gradientTransform="translate(-59.143 -2.286)"/><linearGradient x1="27.81" x2="23.143" y1="31.048" y2="23.714" xlink:href="#d" gradientUnits="userSpaceOnUse" gradientTransform="translate(-59.143 -2.286)"/><linearGradient x1="15.7" x2="20.805" y1="16.537" y2="16.537" xlink:href="#d" gradientUnits="userSpaceOnUse" gradientTransform="translate(-59.143 -2.286)"/><linearGradient x1="28.763" x2="38.017" y1="15.022" y2="15.022" xlink:href="#d" gradientUnits="userSpaceOnUse" gradientTransform="translate(-59.143 -2.286)"/><linearGradient x1="40.19" x2="32.381" y1="14.571" y2="9.524" xlink:href="#d" gradientUnits="userSpaceOnUse" gradientTransform="translate(-59.143 -2.286)"/><linearGradient x1="23.527" x2="31.886" y1="12.509" y2="12.509" xlink:href="#d" gradientUnits="userSpaceOnUse" gradientTransform="translate(-59.143 -2.286)"/><linearGradient x1="37.524" x2="29.429" y1="5.81" y2="8.095" xlink:href="#d" gradientUnits="userSpaceOnUse" gradientTransform="translate(-59.143 -2.286)"/><linearGradient x1="30.386" x2="23.193" y1="5.146" y2="10.193" xlink:href="#d" gradientUnits="userSpaceOnUse" gradientTransform="translate(-59.143 -2.286)"/><linearGradient x1="22.476" x2="20" y1="6.667" y2="14.286" xlink:href="#d" gradientUnits="userSpaceOnUse" gradientTransform="translate(-59.143 -2.286)"/><linearGradient x1="17.307" x2="26.598" y1="38.008" y2="38.008" xlink:href="#d" gradientUnits="userSpaceOnUse" gradientTransform="translate(-59.143 -2.286)"/><linearGradient x1="42" x2="41.048" y1="26.762" y2="17.619" xlink:href="#d" gradientUnits="userSpaceOnUse" gradientTransform="translate(-59.143 -2.286)"/><linearGradient x1="29.971" x2="36.914" y1="35.476" y2="35.476" xlink:href="#d" gradientUnits="userSpaceOnUse" gradientTransform="translate(-59.143 -2.286)"/><linearGradient id="f" x1="14.107" x2="39.69" y1="4.772" y2="43.606" xlink:href="#a" gradientUnits="userSpaceOnUse" gradientTransform="matrix(1.058 0 0 1.058 -.956 -.907)"/><radialGradient id="e" cx="289.834" cy="61.701" r="48.777" xlink:href="#c" gradientUnits="userSpaceOnUse" gradientTransform="matrix(1.014 -.262 .193 .746 -273.565 69.425)" fx="289.834" fy="61.701"/><linearGradient id="g" x1="29.971" x2="36.914" y1="35.476" y2="35.476" xlink:href="#d" gradientUnits="userSpaceOnUse" gradientTransform="translate(-59.143 -2.286)"/><linearGradient id="h" x1="42" x2="41.048" y1="26.762" y2="17.619" xlink:href="#d" gradientUnits="userSpaceOnUse" gradientTransform="translate(-59.143 -2.286)"/><linearGradient id="i" x1="17.307" x2="26.598" y1="38.008" y2="38.008" xlink:href="#d" gradientUnits="userSpaceOnUse" gradientTransform="translate(-59.143 -2.286)"/><linearGradient id="j" x1="22.476" x2="20" y1="6.667" y2="14.286" xlink:href="#d" gradientUnits="userSpaceOnUse" gradientTransform="translate(-59.143 -2.286)"/><linearGradient id="k" x1="30.386" x2="23.193" y1="5.146" y2="10.193" xlink:href="#d" gradientUnits="userSpaceOnUse" gradientTransform="translate(-59.143 -2.286)"/><linearGradient id="l" x1="37.524" x2="29.429" y1="5.81" y2="8.095" xlink:href="#d" gradientUnits="userSpaceOnUse" gradientTransform="translate(-59.143 -2.286)"/><linearGradient id="m" x1="23.527" x2="31.886" y1="12.509" y2="12.509" xlink:href="#d" gradientUnits="userSpaceOnUse" gradientTransform="translate(-59.143 -2.286)"/><linearGradient id="n" x1="40.19" x2="32.381" y1="14.571" y2="9.524" xlink:href="#d" gradientUnits="userSpaceOnUse" gradientTransform="translate(-59.143 -2.286)"/><linearGradient id="o" x1="28.763" x2="38.017" y1="15.022" y2="15.022" xlink:href="#d" gradientUnits="userSpaceOnUse" gradientTransform="translate(-59.143 -2.286)"/><linearGradient id="p" x1="15.7" x2="20.805" y1="16.537" y2="16.537" xlink:href="#d" gradientUnits="userSpaceOnUse" gradientTransform="translate(-59.143 -2.286)"/><linearGradient id="q" x1="27.81" x2="23.143" y1="31.048" y2="23.714" xlink:href="#d" gradientUnits="userSpaceOnUse" gradientTransform="translate(-59.143 -2.286)"/><linearGradient id="r" x1="17.051" x2="23.09" y1="30.22" y2="30.22" xlink:href="#d" gradientUnits="userSpaceOnUse" gradientTransform="translate(-59.143 -2.286)"/><linearGradient id="s" x1="9.152" x2="18.156" y1="33.162" y2="33.162" xlink:href="#d" gradientUnits="userSpaceOnUse" gradientTransform="translate(-59.143 -2.286)"/><linearGradient id="t" x1="14.952" x2="19.429" y1="30.381" y2="23.143" xlink:href="#d" gradientUnits="userSpaceOnUse" gradientTransform="translate(-59.143 -2.286)"/><linearGradient id="u" x1="5.033" x2="14.216" y1="30.376" y2="30.376" xlink:href="#d" gradientUnits="userSpaceOnUse" gradientTransform="translate(-59.143 -2.286)"/><linearGradient id="v" x1="6.084" x2="15.798" y1="25.588" y2="25.588" xlink:href="#d" gradientUnits="userSpaceOnUse" gradientTransform="translate(-59.143 -2.286)"/><linearGradient id="w" x1="21.556" x2="28.257" y1="19.091" y2="19.091" xlink:href="#d" gradientUnits="userSpaceOnUse" gradientTransform="translate(-59.143 -2.286)"/><linearGradient id="x" x1="29.944" x2="39.499" y1="27.243" y2="27.243" xlink:href="#d" gradientUnits="userSpaceOnUse" gradientTransform="translate(-59.143 -2.286)"/><linearGradient id="y" x1="34.476" x2="35.905" y1="26" y2="17.619" xlink:href="#d" gradientUnits="userSpaceOnUse" gradientTransform="translate(-59.143 -2.286)"/><linearGradient id="z" x1="20.442" x2="13.683" y1="5.342" y2="10.104" xlink:href="#d" gradientUnits="userSpaceOnUse" gradientTransform="translate(-59.143 -2.286)"/><linearGradient id="A" x1="10.753" x2="16.469" y1="17.796" y2="17.796" xlink:href="#d" gradientUnits="userSpaceOnUse" gradientTransform="translate(-59.143 -2.286)"/><linearGradient id="B" x1="11.206" x2="7.521" y1="9.165" y2="16.498" xlink:href="#d" gradientUnits="userSpaceOnUse" gradientTransform="translate(-59.143 -2.286)"/><linearGradient id="C" x1="24.293" x2="30.338" y1="34.528" y2="34.528" xlink:href="#d" gradientUnits="userSpaceOnUse" gradientTransform="translate(-59.143 -2.286)"/><linearGradient id="D" x1="28.381" x2="31.619" y1="26.381" y2="18.476" xlink:href="#d" gradientUnits="userSpaceOnUse" gradientTransform="translate(-59.143 -2.286)"/><linearGradient id="E" x1="5.217" x2="12.497" y1="20.727" y2="20.727" xlink:href="#d" gradientUnits="userSpaceOnUse" gradientTransform="translate(-59.143 -2.286)"/><linearGradient id="F" x1="12.749" x2="19.049" y1="39.768" y2="39.768" xlink:href="#d" gradientUnits="userSpaceOnUse" gradientTransform="translate(-59.143 -2.286)"/><linearGradient id="G" x1="35.048" x2="42.667" y1="34.952" y2="29.429" xlink:href="#d" gradientUnits="userSpaceOnUse" gradientTransform="translate(-59.143 -2.286)"/></defs><g><path fill="url(#e)" d="M43.57 37.12L17.7 47.22 5.1 31.33 2.25 6.53 28.14 1l17.95 9.4-2.53 26.74z"/><path fill="#bdbdbd" fill-opacity=".506" fill-rule="evenodd" d="M4.52 31.1l23.12-6.8 15.87 13-25.68 9.82L4.52 31.1z"/><path fill="none" stroke="url(#f)" stroke-width="1.5" d="M3.2 6.9L28.2 1.68l16.93 9.88-2.5 25.36-24.56 9.4L5.44 30.96 3.2 6.9z"/><path fill="none" stroke="#3f3131" d="M1.93 6.03L28.33.5l17.83 10.42-2.64 26.76-25.88 9.93L4.32 31.4 1.92 6.03z"/><path fill="none" stroke="#fff" d="M28.17 2.6l-.37 22.14" stroke-linecap="round"/><path fill="none" stroke="#fff" d="M5.5 31l22.28-6.2" stroke-linecap="round"/><path fill="none" stroke="#fff" d="M27.7 24.7l14.82 11.8" stroke-linecap="round"/><path fill="#eeeeec" fill-opacity=".37" d="M17.72 47.02L4.85 31.35l-1.1-24.2 13.48 11.76.5 28.12z"/><path fill="#3d3d3d" fill-opacity=".136" d="M42.84 37l-24.87 9.72-.28-27.2 27.76-8.25L42.84 37z"/><g><path fill="url(#g)" d="M-22.23 36.6l-.17-2.73c-4.36.48-5.53-2.9-6.77-4.08.1 3.27 2.8 6.46 6.94 6.8z" transform="translate(58.857 2.476)"/><path fill="url(#h)" d="M-17.6 14.68l-1.78 2.08c3.48 2.68 1.96 5.93 2.04 7.64 2.2-2.44 2.5-6.6-.27-9.72z" transform="translate(58.857 2.476)"/><path fill="url(#i)" d="M-32.55 36.84l-1.4-2.35c-3.65 2.42-6.25-.06-7.9-.53 1.62 2.87 5.46 4.48 9.3 2.87z" transform="translate(58.857 2.476)"/><path fill="url(#j)" d="M-40.45 13l2.56-.96C-39.63 8-36.72 5.9-35.97 4.36c-3.1 1.07-5.37 4.57-4.47 8.64z" transform="translate(58.857 2.476)"/><path fill="url(#k)" d="M-36.85 8.04l2.68.52c.62-4.35 4.2-4.63 5.65-5.53-3.2-.72-6.97 1.08-8.33 5z" transform="translate(58.857 2.476)"/><path fill="url(#l)" d="M-30.42 4.95l2.08 1.77c2.68-3.48 5.93-1.96 7.64-2.05-2.44-2.2-6.6-2.48-9.72.28z" transform="translate(58.857 2.476)"/><path fill="url(#m)" d="M-35.62 12.52l2.68.54c.65-4.35 4.23-4.6 5.68-5.5-3.2-.74-6.97 1.03-8.36 4.96z" transform="translate(58.857 2.476)"/><path fill="url(#n)" d="M-26.68 6.2l.4 2.7c4.3-.84 5.74 2.45 7.07 3.52-.4-3.26-3.32-6.23-7.48-6.22z" transform="translate(58.857 2.476)"/><path fill="url(#o)" d="M-30.38 11.54L-29 13.9c3.68-2.38 6.24.14 7.87.63-1.56-2.9-5.4-4.55-9.25-3z" transform="translate(58.857 2.476)"/><path fill="url(#p)" d="M-39.23 18.73l.9-2.58c-4.22-1.23-4-4.82-4.7-6.38-1.15 3.08.1 7.06 3.8 8.96z" transform="translate(58.857 2.476)"/><path fill="url(#q)" d="M-35.9 20.23l-.73 2.63c4.28.97 4.27 4.57 5.06 6.08.97-3.13-.5-7.03-4.32-8.7z" transform="translate(58.857 2.476)"/><path fill="url(#r)" d="M-36.06 24.12l-2.7.46c.96 4.3-2.3 5.8-3.33 7.17 3.26-.46 6.15-3.47 6.04-7.63z" transform="translate(58.857 2.476)"/><path fill="url(#s)" d="M-41 29.28l-2.56-.93c-1.28 4.2-4.86 3.93-6.43 4.6 3.07 1.2 7.06 0 9-3.67z" transform="translate(58.857 2.476)"/><path fill="url(#t)" d="M-38.8 20.36l-2.68.44c.92 4.3-2.34 5.8-3.4 7.15 3.27-.43 6.18-3.42 6.1-7.6z" transform="translate(58.857 2.476)"/><path fill="url(#u)" d="M-44.93 29.42l-1.3-2.4c-3.75 2.3-6.26-.26-7.88-.8 1.5 2.93 5.28 4.67 9.17 3.2z" transform="translate(58.857 2.476)"/><path fill="url(#v)" d="M-43.35 23.12l-2.1-1.73c-2.62 3.52-5.9 2.06-7.6 2.18 2.47 2.15 6.64 2.36 9.7-.46z" transform="translate(58.857 2.476)"/><path fill="url(#w)" d="M-37.6 13.28l.1 2.73c4.37-.32 5.4 3.1 6.6 4.33.02-3.28-2.55-6.57-6.7-7.05z" transform="translate(58.857 2.476)"/><path fill="url(#x)" d="M-19.64 24.23l-2.34-1.42c-2.1 3.87-5.55 2.9-7.22 3.24 2.76 1.78 6.9 1.4 9.56-1.8z" transform="translate(58.857 2.476)"/><path fill="url(#y)" d="M-22.5 14.72l-2.36 1.37c2.38 3.68-.13 6.24-.63 7.87 2.9-1.56 4.56-5.4 3-9.25z" transform="translate(58.857 2.476)"/><path fill="url(#z)" d="M-46.22 7.62l2.66.6c.75-4.33 4.34-4.5 5.8-5.36-3.17-.82-7 .87-8.46 4.76z" transform="translate(58.857 2.476)"/><path fill="url(#A)" d="M-43.18 19.66l.5-2.68c-4.35-.6-4.65-4.18-5.56-5.62-.7 3.2 1.12 6.96 5.06 8.3z" transform="translate(58.857 2.476)"/><path fill="url(#B)" d="M-51.86 14.68l2.57-.9C-50.95 9.7-48 7.63-47.23 6.12c-3.12 1-5.45 4.47-4.62 8.55z" transform="translate(58.857 2.476)"/><path fill="url(#C)" d="M-29.1 36.18l.3-2.7c-4.4-.27-4.97-3.82-6-5.18-.44 3.25 1.66 6.86 5.7 7.88z" transform="translate(58.857 2.476)"/><path fill="url(#D)" d="M-26.45 15.74l-2.6.8c1.5 4.14-1.52 6.08-2.37 7.56 3.17-.88 5.63-4.25 4.97-8.36z" transform="translate(58.857 2.476)"/><path fill="url(#E)" d="M-46.65 21.66l-.3-2.7c-4.34.7-5.68-2.64-6.98-3.74.28 3.27 3.12 6.32 7.28 6.44z" transform="translate(58.857 2.476)"/><path fill="url(#F)" d="M-40.23 41.25l.14-2.73c-4.4 0-5.17-3.5-6.28-4.8-.25 3.27 2.06 6.74 6.15 7.53z" transform="translate(58.857 2.476)"/><path fill="url(#G)" d="M-16.06 27.02l-2.7-.43c-.48 4.36-4.05 4.76-5.46 5.72 3.23.6 6.93-1.32 8.16-5.3z" transform="translate(58.857 2.476)"/></g><path fill="none" stroke="#fff" d="M17 18.96l28.03-7.9" stroke-linecap="round"/><path fill="none" stroke="#fff" d="M2.94 6.65l14.2 12.2.5 27.5" stroke-linecap="round"/></g></svg>