<svg xmlns="http://www.w3.org/2000/svg" width="48" height="48" xmlns:xlink="http://www.w3.org/1999/xlink"><defs><linearGradient id="d"><stop offset="0" stop-color="#d3d7cf"/><stop offset=".5" stop-color="#d3d7cf"/><stop offset="1" stop-color="#bac0b4"/></linearGradient><linearGradient id="y" x1="24.99" x2="12.228" y1="25.193" y2="30.907" xlink:href="#a" gradientUnits="userSpaceOnUse" gradientTransform="matrix(.694 .83 -1.013 .569 41.86 -11.257)"/><linearGradient id="x" x1="39.76" x2="27.174" y1="31.656" y2="24.989" xlink:href="#a" gradientUnits="userSpaceOnUse" gradientTransform="matrix(1.068 .497 .606 -.875 -25.765 46.173)"/><linearGradient id="w" x1="30.257" x2="29.571" y1="13.187" y2="2.806" xlink:href="#a" gradientUnits="userSpaceOnUse" gradientTransform="matrix(.522 -1.05 .86 .636 9.382 39.044)"/><linearGradient id="v" x1="34.723" x2="38.272" y1="20.246" y2="11.674" xlink:href="#a" gradientUnits="userSpaceOnUse" gradientTransform="matrix(1.052 .519 -.634 .862 16.689 -8.533)"/><linearGradient id="u" x1="23.104" x2="18.418" y1="29.107" y2="39.774" xlink:href="#a" gradientUnits="userSpaceOnUse" gradientTransform="matrix(1.052 .519 -.634 .862 12.532 -7.137)"/><linearGradient id="t" x1="27.006" x2="30.746" y1="27.664" y2="37.283" xlink:href="#a" gradientUnits="userSpaceOnUse" gradientTransform="matrix(1.052 .519 -.634 .862 14.903 -8.462)"/><linearGradient x1="17.677" x2="5.171" y1="19.989" y2="15.227" xlink:href="#b" gradientUnits="userSpaceOnUse" gradientTransform="matrix(1.077 -.532 -.649 -.883 11.398 39.768)"/><linearGradient id="b"><stop offset="0" stop-color="#29ef34"/><stop offset="1" stop-color="#ef2929" stop-opacity="0"/></linearGradient><linearGradient id="s" x1="36.351" x2="22.783" y1="24.812" y2="19.669" xlink:href="#a" gradientUnits="userSpaceOnUse" gradientTransform="matrix(1.052 .519 -.634 .862 18.596 -9.903)"/><linearGradient id="a"><stop offset="0" stop-color="#ef2929" stop-opacity=".775"/><stop offset="1" stop-color="#ef2929" stop-opacity="0"/></linearGradient><linearGradient id="r" x1="29.46" x2="18.469" y1="17.475" y2="8.237" xlink:href="#a" gradientUnits="userSpaceOnUse" gradientTransform="matrix(.254 .78 .687 -.779 15.221 1.37)"/><linearGradient id="q" x1="23.186" x2="9.853" y1="16.967" y2="11.062" xlink:href="#a" gradientUnits="userSpaceOnUse" gradientTransform="matrix(.093 -.857 -.712 .044 14.129 43.012)"/><linearGradient id="c"><stop offset="0" stop-color="#fcaf3e"/><stop offset="1" stop-color="#fcaf3e" stop-opacity="0"/></linearGradient><linearGradient id="p" x1="24.99" x2="12.228" y1="25.193" y2="30.907" xlink:href="#a" gradientUnits="userSpaceOnUse" gradientTransform="matrix(1.052 .519 -.634 .862 14.903 -8.462)"/><linearGradient id="o" x1="21.598" x2="7.173" y1="22.626" y2="26.531" xlink:href="#a" gradientUnits="userSpaceOnUse" gradientTransform="matrix(1.052 .519 -.634 .862 17.197 -10.785)"/><linearGradient id="n" x1="39.76" x2="27.174" y1="31.656" y2="24.989" xlink:href="#a" gradientUnits="userSpaceOnUse" gradientTransform="matrix(1.228 0 0 1.006 -5.775 3.791)"/><linearGradient id="m" x1="30.257" x2="29.571" y1="13.187" y2="2.806" xlink:href="#a" gradientUnits="userSpaceOnUse" gradientTransform="matrix(1.228 0 0 -1.006 -6.465 26.522)"/><linearGradient id="l" x1="34.723" x2="38.272" y1="20.246" y2="11.674" xlink:href="#a" gradientUnits="userSpaceOnUse" gradientTransform="matrix(1.228 0 0 1.006 -5.775 3.791)"/><linearGradient id="k" x1="23.104" x2="18.418" y1="29.107" y2="39.774" xlink:href="#a" gradientUnits="userSpaceOnUse" gradientTransform="matrix(1.228 0 0 1.006 -8.846 3.148)"/><linearGradient x1="27.006" x2="30.746" y1="27.664" y2="37.283" xlink:href="#a" gradientUnits="userSpaceOnUse" gradientTransform="matrix(1.258 0 0 1.031 -20.668 -.291)"/><linearGradient id="j" x1="17.677" x2="5.171" y1="19.989" y2="15.227" xlink:href="#a" gradientUnits="userSpaceOnUse" gradientTransform="matrix(1.228 0 0 1.006 -5.775 3.791)"/><linearGradient id="i" x1="36.351" x2="22.783" y1="24.812" y2="19.669" xlink:href="#a" gradientUnits="userSpaceOnUse" gradientTransform="matrix(1.228 0 0 1.006 -10.168 1.63)"/><linearGradient id="h" x1="29.46" x2="18.469" y1="17.475" y2="8.237" xlink:href="#a" gradientUnits="userSpaceOnUse" gradientTransform="matrix(1.011 .697 .571 -.828 -4.998 6.75)"/><linearGradient x1="23.186" x2="9.853" y1="16.967" y2="11.062" xlink:href="#c" gradientUnits="userSpaceOnUse" gradientTransform="matrix(1.258 0 0 1.031 -6.497 3.273)"/><linearGradient id="g" x1="24.99" x2="12.228" y1="25.193" y2="30.907" xlink:href="#a" gradientUnits="userSpaceOnUse" gradientTransform="matrix(1.228 0 0 1.006 -1.689 2.954)"/><linearGradient id="f" x1="21.598" x2="7.173" y1="22.626" y2="26.531" gradientTransform="matrix(1.228 0 0 1.006 -5.775 3.791)" gradientUnits="userSpaceOnUse" xlink:href="#a"/><radialGradient id="e" cx="16.991" cy="17.827" r="23.991" xlink:href="#d" fx="16.991" fy="17.827" gradientTransform="matrix(1.261 -.001 .001 .957 -4.293 2.373)" gradientUnits="userSpaceOnUse"/><linearGradient x1="34.723" x2="38.272" y1="20.246" y2="11.674" xlink:href="#b" gradientUnits="userSpaceOnUse" gradientTransform="matrix(1.077 .532 -.649 .883 32.895 -3.565)"/><linearGradient id="z" x1="17.677" x2="5.171" y1="19.989" y2="15.227" xlink:href="#a" gradientUnits="userSpaceOnUse" gradientTransform="matrix(1.228 0 0 1.006 -2.231 1.041)"/><linearGradient id="A" x1="34.723" x2="38.272" y1="20.246" y2="11.674" xlink:href="#a" gradientUnits="userSpaceOnUse" gradientTransform="matrix(.923 -.724 .503 .944 -3.478 38.645)"/><linearGradient id="B" x1="30.257" x2="29.571" y1="13.187" y2="2.806" xlink:href="#a" gradientUnits="userSpaceOnUse" gradientTransform="matrix(.013 1.173 1.051 -.198 29.558 -15.845)"/></defs><g><path fill="url(#e)" d="M7.5 7.55c11.37-1.8 22.5-1.96 33.35 0 3.12.57 5.23 2.6 5.72 5.72 1.24 7.9 1.02 15.32 0 22.47-.45 3.13-2.58 5.32-5.72 5.7-11.72 1.46-22.88 1.58-33.34 0-3.12-.46-5.07-2.6-5.7-5.7-1.54-7.5-1.74-14.98 0-22.47.7-3.1 2.77-5.25 5.7-5.72z" color="#000" overflow="visible" enable-background="accumulate"/><path fill="none" stroke="#c1c2c0" d="M4.9 8.77V40.8"/><path fill="none" stroke="#c1c2c0" d="M12.58 6.9V42.4"/><path fill="none" stroke="#c1c2c0" d="M20.26 6.36V42.5"/><path fill="none" stroke="#c1c2c0" d="M27.95 6.36v36.22"/><path fill="none" stroke="#c1c2c0" d="M35.64 6.7v35.54"/><path fill="none" stroke="#c1c2c0" d="M43.32 8.36v32.57"/><path stroke="#fff" stroke-width=".5" d="M31.13 9.8c-1.28.12-1.4 1.93-.48 2.6.06.6-.8.57-1.08 1.04-1.08.88-1.77 2.07-2.07 3.43-.53.8-.8 1.72-1.05 2.64-.14.68.48 1.8-.66 1.3-.63-.18-1.15.06-1.6.37-2.13 0-4.25-1.02-6.35-.47-1.5.7-2.8 1.8-4.48 2.15-1.33.36-2.75.32-3.98 1.05-1.04.33-1.98 1.1-2.76 1.6-1 .65-1.86-1.16-2.87-.36-.54.2-.9.73-.43 1.23.46.8.98 1.78 1.82 2.13 1.04.3 2.1 0 2.87-.74.8-.72 1.72-1.12 2.64-1.58.82-.75 1.97-1.57 3.16-1.9.7-.15.27.96.4 1.35-.17.82.2 1.5.85 1.94.55.52 1.36.68 1.85 1.25-.15.63-.9.95-1.34 1.28-.42.43-1.1.57-1.16 1.2.3.9 1.46 1.1 2.2 1.63.96.42 2 1 2.72 1.68-.57.5-.5 1.87.2 2.17.65-.07.75-1 .94-1.53 0-.57.28-1.15.95-.88.9.33 2.1.62 2.66 1.37-.54.33-1.27-.34-1.86.12-.67.04-.95 1.22-.12 1.2 2.1.4 4.32.1 6.33-.63.64-.3.48-1.12 1.02-1.48.52-.47 1.36.35 2.02.3 1.47-.04 2.98-.38 4.37-.86.5-.3.8-1.07.26-1.55-.67-.8-1.22-1.55-1.8-2.42.77-.97 1.67-2.15 1.87-3.54.54-1.78 1.72-3.3 2.15-5.12.5-.48.16-1.44.95-1.65.6-.3 1.43-.3 1.9.16.8.24 1.76-.26 2.46.36.65.42 1.2-.36 1.47-.84.4-.8-.2-1.5-.9-1.8-1.85-1.33-3.65-2.74-5.74-3.66-.65-.5-1.3.46-1.94.63-.57.35-1.4.63-1.6 1.28.28.56.53.73-.24 1.04-.37.35-.03 1.17-.72 1.28-.96.34-2.16-.36-2.67-1.2.87-1.06 1.16-2.62 1.04-4 .5-.55.96-1.22.76-2.04-.18-.84-.83-1.9-1.84-1.55l-.13.03h-.04zm-.8 9.14c.75.12 1.7.4 2.16.92-.57.5-1.65.77-2.44.52-.76-.18-.26-1.28.27-1.44zm-7.65 10.04c1.55.48 3.08 1.12 4.72 1.35.7.2 1.54.2 2.1.64-.74 1.42-.93 3.25-2.16 4.28-.6.4-1.3.33-1.8-.16-.53-.46-1.3-1.17-2.2-1.25-.78-.3-1.68-.7-2.22-1.2-.28-.92.2-2 .62-2.85.24-.34.48-.8.94-.82zm-4.03 1.63c.85-.08.65 1.18.55 1.73-.48.46-1.36-.37-1.76-.57-.8-.63.74-1.06 1.2-1.15zm13.52 1.1c.74.07 1.3.68 1.85 1.03.57.34.66 1.05-.14 1.06-1 .2-2.32.6-3.2-.03-.17-.64.5-1.33.9-1.8.18-.15.36-.25.6-.28z"/><path fill="none" stroke="url(#f)" stroke-width="2" d="M3.93 30.62c4.97-2.96 10.78-3.98 17.3-3.36"/><path fill="none" stroke="url(#g)" stroke-width="2" d="M13.52 34.16c4.18-3.7 9.64-5.6 16.2-6.03"/><path fill="none" stroke="url(#h)" stroke-width="2" d="M18.84 13.07c4.9-2 10.46-1.82 16.57.25"/><path fill="none" stroke="url(#i)" stroke-width="2" d="M16.76 21.7c6.22-.27 10.46 4.7 18.06 4.98"/><path fill="none" stroke="url(#j)" stroke-width="2" d="M.6 19.13c3.74 4.7 9.6 2.85 15.6 4.56"/><path fill="none" stroke="url(#k)" stroke-width="2" d="M19.68 32.77c-5.76 2.28-8.22 5.7-4.2 9.96" color="#000" overflow="visible" enable-background="accumulate"/><path fill="none" stroke="url(#l)" stroke-width="2" d="M37.73 24.5c-5.03-4.05-3.55-7.34 4.1-7.86" color="#000" overflow="visible" enable-background="accumulate"/><path fill="none" stroke="url(#m)" stroke-width="2" d="M31.07 13.4c-5.76 2.28-8.22 5.7-4.2 9.96" color="#000" overflow="visible" enable-background="accumulate"/><path fill="none" stroke="url(#n)" stroke-width="2" d="M27.6 29.48c6.1.43 8.5 7 15.74 6.75"/><path fill="none" stroke="url(#o)" stroke-width="2" d="M8.6 16.3c6.13-.43 11.75 1.15 16.95 4.44"/><path fill="none" stroke="url(#p)" stroke-width="2" d="M8.27 24.7c5.9-1.4 11.8-.73 17.67 1.67"/><path fill="none" stroke="url(#q)" stroke-width="2" d="M7.25 34.93C4.95 32.18 4 28.45 4.2 23.9"/><path fill="none" stroke="url(#r)" stroke-width="2" d="M25.7 9.67c3.64-1.6 6.65-.94 9.15 1.63"/><path fill="none" stroke="url(#s)" stroke-width="2" d="M29.02 18.68c5.5 2.4 6 8.45 12.33 11.9"/><path fill="none" stroke="url(#t)" stroke-width="2" d="M26.15 30.08c-6.86 1.35-7.66 4.8-1.45 8.46" color="#000" overflow="visible" enable-background="accumulate"/><path fill="none" stroke="url(#u)" stroke-width="2" d="M18.3 30.3c-6.37-.5-10.63 1.4-9.87 6.75" color="#000" overflow="visible" enable-background="accumulate"/><path fill="none" stroke="url(#v)" stroke-width="2" d="M40.9 27.6c-1.75-5.6 1.6-7.8 8.46-5" color="#000" overflow="visible" enable-background="accumulate"/><path fill="none" stroke="url(#w)" stroke-width="2" d="M36.56 15.24c-4.4 3.5-8.37 3.42-10.3-2.7" color="#000" overflow="visible" enable-background="accumulate"/><path fill="none" stroke="url(#x)" stroke-width="2" d="M18.73 37.33c5.58 2.1 11.62-2.64 17.77.5"/><path fill="none" stroke="url(#y)" stroke-width="2" d="M19.05 16.66c6.07.74 11.1 3.34 15.23 7.53"/><path fill="none" stroke="url(#z)" stroke-width="2" d="M4.15 16.38c3.73 4.7 9.6 2.85 15.6 4.56"/><path fill="none" stroke="url(#A)" stroke-width="2" d="M39.58 32.42c-5.8-.83-6.34-4.78-.86-9.78" color="#000" overflow="visible" enable-background="accumulate"/><path fill="none" stroke="url(#B)" stroke-width="2" d="M43.66 17.4c-2.45-5.04-6.05-6.7-10.45-2.04" color="#000" overflow="visible" enable-background="accumulate"/><path fill="none" stroke="#555753" d="M7.5 7.55c11.37-1.8 22.5-1.96 33.35 0 3.12.57 5.23 2.6 5.72 5.72 1.24 7.9 1.02 15.32 0 22.47-.45 3.13-2.58 5.32-5.72 5.7-11.72 1.46-22.88 1.58-33.34 0-3.12-.46-5.07-2.6-5.7-5.7-1.54-7.5-1.74-14.98 0-22.47.7-3.1 2.77-5.25 5.7-5.72z" color="#000" overflow="visible" enable-background="accumulate"/></g></svg>