<svg xmlns="http://www.w3.org/2000/svg" width="48" height="48" xmlns:xlink="http://www.w3.org/1999/xlink"><defs><linearGradient><stop offset="0" stop-color="#f40000"/><stop offset=".322" stop-color="#e9ef03"/><stop offset=".666" stop-color="#9fff3e"/><stop offset="1" stop-color="#07c3ff"/></linearGradient><linearGradient id="d"><stop offset="0" stop-color="#2e3436"/><stop offset="1" stop-color="#2e3436" stop-opacity="0"/></linearGradient><linearGradient><stop offset="0" stop-color="#ffdb19"/><stop offset=".557" stop-color="#ff0707"/><stop offset=".812" stop-color="#6bffff"/><stop offset="1" stop-color="#dfffff"/></linearGradient><linearGradient x1="23.775" x2="23.775" y1="202.3" y2="158.049" gradientUnits="userSpaceOnUse" gradientTransform="translate(-.917 -161.66)"><stop offset="0" stop-color="#E96712"/><stop offset=".648" stop-color="#D4290C"/><stop offset="1" stop-color="#CB1009"/></linearGradient><linearGradient x1="17.424" x2="46.846" y1="20.086" y2="20.086" gradientUnits="userSpaceOnUse" gradientTransform="matrix(.767 0 0 .761 6.565 11.12)"><stop offset="0" stop-color="#fff"/><stop offset="1" stop-color="#B4D8E9"/></linearGradient><radialGradient id="c" cx="294.624" cy="80.627" r="48.777" gradientUnits="userSpaceOnUse" fy="80.627" fx="294.624"><stop offset="0" stop-color="#ebebeb"/><stop offset="1" stop-color="#c5c5c5"/></radialGradient><linearGradient id="a"><stop offset="0" stop-color="#fff"/><stop offset="1" stop-color="#eeeeec" stop-opacity="0"/></linearGradient><linearGradient x1="14.107" x2="39.69" y1="4.772" y2="43.606" xlink:href="#a" gradientUnits="userSpaceOnUse" gradientTransform="matrix(1.058 0 0 1.058 -.956 -.907)"/><linearGradient id="b"><stop offset="0" stop-color="#f0f0f0"/><stop offset="1" stop-color="#f0f0f0" stop-opacity="0"/></linearGradient><linearGradient x1="16.601" x2="17.363" y1="19.142" y2="45.175" xlink:href="#b" gradientUnits="userSpaceOnUse" gradientTransform="matrix(1.058 0 0 1.058 -.956 -.907)"/><radialGradient cx="289.834" cy="61.701" r="48.777" xlink:href="#c" gradientUnits="userSpaceOnUse" gradientTransform="matrix(1.014 -.262 .193 .746 -273.565 69.425)" fx="289.834" fy="61.701"/><linearGradient x1="35.048" x2="42.667" y1="34.952" y2="29.429" xlink:href="#d" gradientUnits="userSpaceOnUse" gradientTransform="translate(-59.143 -2.286)"/><linearGradient x1="12.749" x2="19.049" y1="39.768" y2="39.768" xlink:href="#d" gradientUnits="userSpaceOnUse" gradientTransform="translate(-59.143 -2.286)"/><linearGradient x1="5.217" x2="12.497" y1="20.727" y2="20.727" xlink:href="#d" gradientUnits="userSpaceOnUse" gradientTransform="translate(-59.143 -2.286)"/><linearGradient x1="28.381" x2="31.619" y1="26.381" y2="18.476" xlink:href="#d" gradientUnits="userSpaceOnUse" gradientTransform="translate(-59.143 -2.286)"/><linearGradient x1="24.293" x2="30.338" y1="34.528" y2="34.528" xlink:href="#d" gradientUnits="userSpaceOnUse" gradientTransform="translate(-59.143 -2.286)"/><linearGradient x1="11.206" x2="7.521" y1="9.165" y2="16.498" xlink:href="#d" gradientUnits="userSpaceOnUse" gradientTransform="translate(-59.143 -2.286)"/><linearGradient x1="10.753" x2="16.469" y1="17.796" y2="17.796" xlink:href="#d" gradientUnits="userSpaceOnUse" gradientTransform="translate(-59.143 -2.286)"/><linearGradient x1="20.442" x2="13.683" y1="5.342" y2="10.104" xlink:href="#d" gradientUnits="userSpaceOnUse" gradientTransform="translate(-59.143 -2.286)"/><linearGradient x1="34.476" x2="35.905" y1="26" y2="17.619" xlink:href="#d" gradientUnits="userSpaceOnUse" gradientTransform="translate(-59.143 -2.286)"/><linearGradient x1="29.944" x2="39.499" y1="27.243" y2="27.243" xlink:href="#d" gradientUnits="userSpaceOnUse" gradientTransform="translate(-59.143 -2.286)"/><linearGradient x1="21.556" x2="28.257" y1="19.091" y2="19.091" xlink:href="#d" gradientUnits="userSpaceOnUse" gradientTransform="translate(-59.143 -2.286)"/><linearGradient x1="6.084" x2="15.798" y1="25.588" y2="25.588" xlink:href="#d" gradientUnits="userSpaceOnUse" gradientTransform="translate(-59.143 -2.286)"/><linearGradient x1="5.033" x2="14.216" y1="30.376" y2="30.376" xlink:href="#d" gradientUnits="userSpaceOnUse" gradientTransform="translate(-59.143 -2.286)"/><linearGradient x1="14.952" x2="19.429" y1="30.381" y2="23.143" xlink:href="#d" gradientUnits="userSpaceOnUse" gradientTransform="translate(-59.143 -2.286)"/><linearGradient x1="9.152" x2="18.156" y1="33.162" y2="33.162" xlink:href="#d" gradientUnits="userSpaceOnUse" gradientTransform="translate(-59.143 -2.286)"/><linearGradient x1="17.051" x2="23.09" y1="30.22" y2="30.22" xlink:href="#d" gradientUnits="userSpaceOnUse" gradientTransform="translate(-59.143 -2.286)"/><linearGradient x1="27.81" x2="23.143" y1="31.048" y2="23.714" xlink:href="#d" gradientUnits="userSpaceOnUse" gradientTransform="translate(-59.143 -2.286)"/><linearGradient x1="15.7" x2="20.805" y1="16.537" y2="16.537" xlink:href="#d" gradientUnits="userSpaceOnUse" gradientTransform="translate(-59.143 -2.286)"/><linearGradient x1="28.763" x2="38.017" y1="15.022" y2="15.022" xlink:href="#d" gradientUnits="userSpaceOnUse" gradientTransform="translate(-59.143 -2.286)"/><linearGradient x1="40.19" x2="32.381" y1="14.571" y2="9.524" xlink:href="#d" gradientUnits="userSpaceOnUse" gradientTransform="translate(-59.143 -2.286)"/><linearGradient x1="23.527" x2="31.886" y1="12.509" y2="12.509" xlink:href="#d" gradientUnits="userSpaceOnUse" gradientTransform="translate(-59.143 -2.286)"/><linearGradient x1="37.524" x2="29.429" y1="5.81" y2="8.095" xlink:href="#d" gradientUnits="userSpaceOnUse" gradientTransform="translate(-59.143 -2.286)"/><linearGradient x1="30.386" x2="23.193" y1="5.146" y2="10.193" xlink:href="#d" gradientUnits="userSpaceOnUse" gradientTransform="translate(-59.143 -2.286)"/><linearGradient x1="22.476" x2="20" y1="6.667" y2="14.286" xlink:href="#d" gradientUnits="userSpaceOnUse" gradientTransform="translate(-59.143 -2.286)"/><linearGradient x1="17.307" x2="26.598" y1="38.008" y2="38.008" xlink:href="#d" gradientUnits="userSpaceOnUse" gradientTransform="translate(-59.143 -2.286)"/><linearGradient x1="42" x2="41.048" y1="26.762" y2="17.619" xlink:href="#d" gradientUnits="userSpaceOnUse" gradientTransform="translate(-59.143 -2.286)"/><linearGradient x1="29.971" x2="36.914" y1="35.476" y2="35.476" xlink:href="#d" gradientUnits="userSpaceOnUse" gradientTransform="translate(-59.143 -2.286)"/><linearGradient id="o" x1="14.107" x2="39.69" y1="4.772" y2="43.606" xlink:href="#a" gradientUnits="userSpaceOnUse" gradientTransform="matrix(.885 0 0 .885 2.006 .784)"/><radialGradient cx="289.834" cy="61.701" r="48.777" xlink:href="#c" gradientUnits="userSpaceOnUse" gradientTransform="matrix(1.014 -.262 .193 .746 -350.327 63.33)" fx="289.834" fy="61.701"/><radialGradient cx="23.335" cy="44.42" r="18.562" xlink:href="#e" fx="23.335" fy="44.42" gradientTransform="matrix(1 0 0 .193 0 35.854)" gradientUnits="userSpaceOnUse"/><linearGradient id="e"><stop offset="0" stop-color="#2e3436" stop-opacity=".619"/><stop offset="1" stop-color="#2e3436" stop-opacity="0"/></linearGradient><linearGradient x1="20.73" x2="23.296" y1="29.815" y2="45.056" xlink:href="#f" gradientUnits="userSpaceOnUse" gradientTransform="matrix(.989 0 0 .989 -6.623 -9.93)"/><linearGradient id="f"><stop offset="0" stop-color="#888a85"/><stop offset="1" stop-color="#51534f"/></linearGradient><linearGradient x1="287.517" x2="289.676" y1="-439.753" y2="-436.322" xlink:href="#g" gradientUnits="userSpaceOnUse"/><linearGradient id="g"><stop offset="0" stop-color="#fff"/><stop offset="1" stop-color="#fff" stop-opacity="0"/></linearGradient><linearGradient x1="286.512" x2="289.854" y1="-441.291" y2="-436.145" xlink:href="#h" gradientUnits="userSpaceOnUse"/><linearGradient id="h"><stop offset="0" stop-color="#fff"/><stop offset="1" stop-color="#fff" stop-opacity="0"/></linearGradient><linearGradient x1="285.941" x2="289.391" y1="-439.939" y2="-436.443" xlink:href="#i" gradientUnits="userSpaceOnUse"/><linearGradient id="i"><stop offset="0" stop-color="#fff"/><stop offset="1" stop-color="#fff" stop-opacity="0"/></linearGradient><linearGradient x1="275.942" x2="279.975" y1="-437.105" y2="-431.918" xlink:href="#j" gradientUnits="userSpaceOnUse"/><linearGradient id="j"><stop offset="0" stop-color="#fff"/><stop offset="1" stop-color="#fff" stop-opacity="0"/></linearGradient><linearGradient x1="286.666" x2="289.766" y1="-439.484" y2="-436.707" xlink:href="#k" gradientUnits="userSpaceOnUse"/><linearGradient id="k"><stop offset="0" stop-color="#fff"/><stop offset="1" stop-color="#fff" stop-opacity="0"/></linearGradient><linearGradient x1="284.802" x2="288.9" y1="-441.233" y2="-436.831" xlink:href="#i" gradientUnits="userSpaceOnUse"/><linearGradient x1="286.246" x2="290.121" y1="-434.732" y2="-439.69" xlink:href="#g" gradientUnits="userSpaceOnUse"/><linearGradient x1="287.147" x2="289.473" y1="-434.809" y2="-437.594" xlink:href="#h" gradientUnits="userSpaceOnUse"/><linearGradient x1="286.014" x2="288.375" y1="-435.546" y2="-438.971" xlink:href="#i" gradientUnits="userSpaceOnUse"/><linearGradient x1="276.614" x2="283.463" y1="-431" y2="-438.722" xlink:href="#l" gradientUnits="userSpaceOnUse"/><linearGradient id="l"><stop offset="0" stop-color="#fff"/><stop offset="1" stop-color="#fff" stop-opacity="0"/></linearGradient><linearGradient x1="286.295" x2="289.395" y1="-435.628" y2="-438.19" xlink:href="#k" gradientUnits="userSpaceOnUse"/><linearGradient x1="286.415" x2="290.078" y1="-435.784" y2="-439.289" xlink:href="#i" gradientUnits="userSpaceOnUse"/><linearGradient x1="286.415" x2="288.375" y1="-435.784" y2="-437.888" xlink:href="#i" gradientUnits="userSpaceOnUse"/><linearGradient x1="271.022" x2="285.029" y1="-441.052" y2="-431.97" xlink:href="#l" gradientUnits="userSpaceOnUse" gradientTransform="matrix(1.452 0 0 1.286 -390.098 564.203)"/><linearGradient x1="29.124" x2="27.356" y1="38.897" y2="34.879" gradientTransform="translate(-6.889 -10.182)" xlink:href="#m" gradientUnits="userSpaceOnUse"/><linearGradient id="m"><stop offset="0" stop-color="#5d5b58"/><stop offset="1" stop-color="#5d5b58" stop-opacity="0"/></linearGradient><linearGradient x1="29.124" x2="27.356" y1="38.897" y2="34.879" xlink:href="#n" gradientUnits="userSpaceOnUse" gradientTransform="matrix(.917 -.399 .399 .917 -10.969 -2.209)"/><linearGradient id="n"><stop offset="0" stop-color="#74726e"/><stop offset="1" stop-color="#5d5b58" stop-opacity="0"/></linearGradient><radialGradient cx="23.335" cy="44.42" r="18.562" fy="44.42" fx="23.335" gradientTransform="matrix(1 0 0 .193 0 35.854)" gradientUnits="userSpaceOnUse" xlink:href="#e"/><radialGradient id="p" cx="23.335" cy="44.42" r="18.562" xlink:href="#e" gradientUnits="userSpaceOnUse" gradientTransform="matrix(1 0 0 .193 0 35.854)" fx="23.335" fy="44.42"/><linearGradient id="q" x1="20.73" x2="23.296" y1="29.815" y2="45.056" xlink:href="#f" gradientUnits="userSpaceOnUse" gradientTransform="matrix(.989 0 0 .989 -6.623 -9.93)"/><linearGradient id="r" x1="287.517" x2="289.676" y1="-439.753" y2="-436.322" xlink:href="#g" gradientUnits="userSpaceOnUse"/><linearGradient id="s" x1="286.512" x2="289.854" y1="-441.291" y2="-436.145" xlink:href="#h" gradientUnits="userSpaceOnUse"/><linearGradient id="t" x1="285.941" x2="289.391" y1="-439.939" y2="-436.443" xlink:href="#i" gradientUnits="userSpaceOnUse"/><linearGradient id="u" x1="275.942" x2="279.975" y1="-437.105" y2="-431.918" xlink:href="#j" gradientUnits="userSpaceOnUse"/><linearGradient id="v" x1="286.666" x2="289.766" y1="-439.484" y2="-436.707" xlink:href="#k" gradientUnits="userSpaceOnUse"/><linearGradient id="w" x1="284.802" x2="288.9" y1="-441.233" y2="-436.831" xlink:href="#i" gradientUnits="userSpaceOnUse"/><linearGradient id="x" x1="286.246" x2="290.121" y1="-434.732" y2="-439.69" xlink:href="#g" gradientUnits="userSpaceOnUse"/><linearGradient id="y" x1="287.147" x2="289.473" y1="-434.809" y2="-437.594" xlink:href="#h" gradientUnits="userSpaceOnUse"/><linearGradient id="z" x1="286.014" x2="288.375" y1="-435.546" y2="-438.971" xlink:href="#i" gradientUnits="userSpaceOnUse"/><linearGradient id="A" x1="276.614" x2="283.463" y1="-431" y2="-438.722" xlink:href="#l" gradientUnits="userSpaceOnUse"/><linearGradient id="B" x1="286.295" x2="289.395" y1="-435.628" y2="-438.19" xlink:href="#k" gradientUnits="userSpaceOnUse"/><linearGradient id="C" x1="286.415" x2="290.078" y1="-435.784" y2="-439.289" xlink:href="#i" gradientUnits="userSpaceOnUse"/><linearGradient id="D" x1="286.415" x2="288.375" y1="-435.784" y2="-437.888" xlink:href="#i" gradientUnits="userSpaceOnUse"/><linearGradient id="E" x1="271.022" x2="285.029" y1="-441.052" y2="-431.97" xlink:href="#l" gradientUnits="userSpaceOnUse" gradientTransform="matrix(1.452 0 0 1.286 -390.098 564.203)"/><linearGradient id="F" x1="29.124" x2="27.356" y1="38.897" y2="34.879" xlink:href="#m" gradientUnits="userSpaceOnUse" gradientTransform="translate(-6.889 -10.182)"/><linearGradient id="G" x1="29.124" x2="27.356" y1="38.897" y2="34.879" xlink:href="#n" gradientUnits="userSpaceOnUse" gradientTransform="matrix(.917 -.399 .399 .917 -10.969 -2.209)"/></defs><g><path fill="none" stroke="url(#o)" stroke-width="1.5" d="M5.47 7.32L26.4 2.94l14.17 8.26-2.1 21.2-20.53 7.87L7.37 27.43l-1.9-20.1z"/><path fill="none" stroke="#fff" d="M26.37 3.72l-.3 18.5" stroke-linecap="round"/><path fill="none" stroke="#fff" d="M7.42 27.47l18.62-5.18" stroke-linecap="round"/><path fill="none" stroke="#fff" d="M25.98 22.2l12.4 9.86" stroke-linecap="round"/><path fill="none" stroke="#fff" d="M17.03 17.4l23.43-6.62" stroke-linecap="round"/><path fill="none" stroke="#fff" d="M5.26 7.1l11.88 10.2.42 23" stroke-linecap="round"/><path fill="none" stroke="#eeeeec" d="M4.42 6.58L26.5 1.96l14.9 8.72-2.2 22.37-21.64 8.3L6.42 27.8l-2-21.22z"/><g><path fill="url(#p)" fill-rule="evenodd" d="M41.9 44.42c0 1.98-8.3 3.58-18.57 3.58-10.25 0-18.56-1.6-18.56-3.58s8.3-3.58 18.56-3.58c10.26 0 18.57 1.6 18.57 3.58z" transform="matrix(.831 0 0 .831 3.529 -.326)" color="#000" overflow="visible"/><path fill="#c4c5c2" stroke="url(#q)" stroke-width="2.073" stroke-miterlimit="2" d="M36.62 12.7c.54.86 1.57 2.9 1.57 3.94 0 2.25-1.47 4.13-3.54 5.16.28.7.52 1.4.52 2.16 0 3.67-3.37 6.66-7.53 6.66-1.26 0-2.4-.35-3.44-.84-.9 2.77-3.68 4.83-7.1 4.83-3.42 0-6.2-2.05-7.1-4.82-1.05.5-2.18.84-3.44.84-4.16 0-7.53-3-7.53-6.66 0-.77.24-1.47.5-2.16-2.06-1.03-3.52-2.9-3.52-5.16 0-1.2.4-4 1.02-5-.66-.96-1-2-1-3.08 0-2.25 1.47-4.13 3.54-5.16C-.7 2.7-.96 2-.96 1.24c0-3.67 3.38-6.66 7.54-6.66 1.26 0 2.4.35 3.43.84.93-2.77 3.7-4.83 7.12-4.83s6.2 2.05 7.1 4.82c1.05-.5 2.2-.84 3.45-.84 4.15 0 7.53 3 7.53 6.66 0 .77-.25 1.47-.52 2.16 2.07 1.03 3.53 2.9 3.53 5.16 0 1.02-1.07 3.3-1.58 4.14z" transform="matrix(.724 0 0 .724 11.019 11.81)"/><g><path fill="#c4c5c2" d="M27.08 9.66c0 1.88-1.73 3.4-3.86 3.4s-3.85-1.52-3.85-3.4 1.72-3.4 3.85-3.4 3.86 1.52 3.86 3.4z"/><path fill="url(#r)" d="M291.7-437.6c0 1.84-1.5 3.32-3.32 3.32-1.83 0-3.32-1.48-3.32-3.3 0-1.84 1.5-3.33 3.3-3.33 1.84 0 3.33 1.48 3.33 3.3z" transform="matrix(1.166 0 0 1.031 -312.607 460.224)"/></g><path fill="#c4c5c2" d="M12.95 12.16H35v8.77H12.96z"/><path fill="#c4c5c2" d="M16.16 17.94c0 1.62-1.48 2.92-3.3 2.92-1.83 0-3.3-1.3-3.3-2.92 0-1.6 1.47-2.92 3.3-2.92 1.82 0 3.3 1.3 3.3 2.92z"/><g><path fill="#c4c5c2" d="M34.8 12.58c0 1.9-1.73 3.4-3.86 3.4s-3.86-1.5-3.86-3.4c0-1.88 1.73-3.4 3.86-3.4s3.85 1.52 3.85 3.4z"/><path fill="url(#s)" d="M291.7-437.6c0 1.84-1.5 3.32-3.32 3.32-1.83 0-3.32-1.48-3.32-3.3 0-1.84 1.5-3.33 3.3-3.33 1.84 0 3.33 1.48 3.33 3.3z" transform="matrix(1.166 0 0 1.031 -304.886 463.149)"/></g><g><path fill="#c4c5c2" d="M19.37 12.58c0 1.9-1.73 3.4-3.86 3.4-2.12 0-3.85-1.5-3.85-3.4 0-1.88 1.73-3.4 3.86-3.4 2.14 0 3.87 1.52 3.87 3.4z"/><path fill="url(#t)" d="M291.7-437.6c0 1.84-1.5 3.32-3.32 3.32-1.83 0-3.32-1.48-3.32-3.3 0-1.84 1.5-3.33 3.3-3.33 1.84 0 3.33 1.48 3.33 3.3z" transform="matrix(1.166 0 0 1.031 -320.328 463.149)"/></g><g><path fill="#c4c5c2" d="M22.2 9.15c-3.95 0-7.13 2.84-7.13 6.33 0 2.3 1.48 4.22 3.58 5.33h7.13c2.1-1.1 3.58-3.04 3.58-5.35 0-3.5-3.22-6.3-7.17-6.3z"/><path fill="url(#u)" d="M280.5-441c-3.6 0-6.5 2.9-6.5 6.5 0 2.38 1.34 4.37 3.25 5.5h6.5c1.9-1.13 3.25-3.12 3.25-5.5 0-3.6-2.9-6.5-6.5-6.5z" transform="matrix(1.103 0 0 .975 -287.02 438.908)"/></g><path fill="url(#v)" d="M291.7-437.6c0 1.84-1.5 3.32-3.32 3.32-1.83 0-3.32-1.48-3.32-3.3 0-1.84 1.5-3.33 3.3-3.33 1.84 0 3.33 1.48 3.33 3.3z" transform="matrix(.999 0 0 .883 -275.076 404.135)"/><g><path fill="#c4c5c2" d="M31.65 16.95c0 2.16-1.97 3.9-4.4 3.9-2.44 0-4.42-1.74-4.42-3.9 0-2.15 1.98-3.9 4.4-3.9 2.45 0 4.42 1.75 4.42 3.9z"/><path fill="url(#w)" d="M291.7-437.6c0 1.84-1.5 3.32-3.32 3.32-1.83 0-3.32-1.48-3.32-3.3 0-1.84 1.5-3.33 3.3-3.33 1.84 0 3.33 1.48 3.33 3.3z" transform="matrix(1.332 0 0 1.177 -356.735 531.883)"/></g><g><path fill="#c4c5c2" d="M27.07 32.25c0-1.88-1.73-3.4-3.86-3.4-2.12 0-3.85 1.52-3.85 3.4 0 1.9 1.73 3.4 3.86 3.4 2.14 0 3.87-1.5 3.87-3.4z"/><path fill="url(#x)" d="M291.7-437.6c0 1.84-1.5 3.32-3.32 3.32-1.83 0-3.32-1.48-3.32-3.3 0-1.84 1.5-3.33 3.3-3.33 1.84 0 3.33 1.48 3.33 3.3z" transform="matrix(1.166 0 0 -1.031 -312.62 -418.296)"/></g><path fill="#c4c5c2" d="M12.94 29.77H35V21H12.93z"/><path fill="#c4c5c2" d="M16.15 23.97c0-1.6-1.48-2.92-3.3-2.92-1.83 0-3.3 1.3-3.3 2.92 0 1.62 1.47 2.93 3.3 2.93 1.82 0 3.3-1.3 3.3-2.93z"/><g><path fill="#c4c5c2" d="M34.78 29.33c0-1.88-1.73-3.4-3.86-3.4-2.12 0-3.85 1.52-3.85 3.4s1.73 3.4 3.85 3.4c2.13 0 3.86-1.52 3.86-3.4z"/><path fill="url(#y)" d="M291.7-437.6c0 1.84-1.5 3.32-3.32 3.32-1.83 0-3.32-1.48-3.32-3.3 0-1.84 1.5-3.33 3.3-3.33 1.84 0 3.33 1.48 3.33 3.3z" transform="matrix(1.166 0 0 -1.031 -304.899 -421.221)"/></g><g><path fill="#c4c5c2" d="M19.35 29.33c0-1.88-1.72-3.4-3.85-3.4s-3.86 1.52-3.86 3.4 1.73 3.4 3.86 3.4 3.85-1.52 3.85-3.4z"/><path fill="url(#z)" d="M291.7-437.6c0 1.84-1.5 3.32-3.32 3.32-1.83 0-3.32-1.48-3.32-3.3 0-1.84 1.5-3.33 3.3-3.33 1.84 0 3.33 1.48 3.33 3.3z" transform="matrix(1.166 0 0 -1.031 -320.341 -421.221)"/></g><g><path fill="#c4c5c2" d="M22.18 32.77c-3.94 0-7.13-2.85-7.13-6.33 0-2.3 1.5-4.23 3.58-5.33h7.13c2.1 1.1 3.58 3.06 3.58 5.37 0 3.48-3.2 6.3-7.16 6.3z"/><path fill="url(#A)" d="M280.5-441c-3.6 0-6.5 2.9-6.5 6.5 0 2.38 1.34 4.37 3.25 5.5h6.5c1.9-1.13 3.25-3.12 3.25-5.5 0-3.6-2.9-6.5-6.5-6.5z" transform="matrix(1.103 0 0 -.975 -287.033 -396.98)"/></g><path fill="url(#B)" d="M291.7-437.6c0 1.84-1.5 3.32-3.32 3.32-1.83 0-3.32-1.48-3.32-3.3 0-1.84 1.5-3.33 3.3-3.33 1.84 0 3.33 1.48 3.33 3.3z" transform="matrix(.999 0 0 -.883 -275.089 -362.208)"/><g><path fill="#c4c5c2" d="M28.68 23c0-2.15-1.98-3.9-4.4-3.9-2.45 0-4.42 1.75-4.42 3.9s1.97 3.9 4.4 3.9c2.44 0 4.42-1.75 4.42-3.9z"/><path fill="url(#C)" d="M291.7-437.6c0 1.84-1.5 3.32-3.32 3.32-1.83 0-3.32-1.48-3.32-3.3 0-1.84 1.5-3.33 3.3-3.33 1.84 0 3.33 1.48 3.33 3.3z" transform="matrix(1.332 0 0 -1.177 -359.71 -491.919)"/></g><g><path fill="#c4c5c2" d="M35.64 20.86c0-2.15-1.97-3.9-4.4-3.9-2.44 0-4.4 1.75-4.4 3.9s1.96 3.9 4.4 3.9c2.43 0 4.4-1.75 4.4-3.9z"/><path fill="url(#D)" d="M291.7-437.6c0 1.84-1.5 3.32-3.32 3.32-1.83 0-3.32-1.48-3.32-3.3 0-1.84 1.5-3.33 3.3-3.33 1.84 0 3.33 1.48 3.33 3.3z" transform="matrix(1.332 0 0 -1.177 -352.742 -494.064)"/></g><path fill="url(#E)" stroke="#fff" stroke-opacity=".502" stroke-width="1.382" stroke-miterlimit="2" d="M-1.38 11.87c-1 .97-1.18 3.52-1.18 4.97 0 1.9 1.6 3.58 3.53 4.5-.25.64-.64 1.48-.64 2.18 0 3.35 2.76 5.93 6.7 5.93 1.18 0 2.65-.72 3.62-1.16.98 3.22 3.1 5.2 6.28 5.2s5.6-2.07 6.55-5.18c.97.44 2.78 1.16 3.95 1.16 3.86 0 6.33-2.6 6.33-5.96 0-.7-.42-1.7-.67-2.32 1.9-.93 3.53-2.3 3.53-4.36 0-1.34-.85-2.48-1.76-4.07.88-1.6 1.78-2.97 1.78-4.38 0-2.06-1.62-3.44-3.54-4.38.26-.63.68-1.6.68-2.3 0-3.36-3.07-5.9-6.93-5.9-1.17 0-2.4.64-3.36 1.1-.95-3.13-3.27-4.93-6.45-4.93s-5.4 1.7-6.38 4.93C9.7-3.5 8.42-4.14 7.25-4.14 3.3-4.14.35-1.64.35 1.7c0 .7.4 1.72.64 2.35C-.94 5-2.56 6.48-2.56 8.4c0 1.4.23 2.5 1.17 3.47z" transform="matrix(.724 0 0 .724 11.019 11.81)"/><path fill="#888a85" fill-rule="evenodd" d="M36.84 13.43c0 2.55-3.52 3.53-3.52 3.53s2.53-1.55 2.52-3.52c0 0 1 0 1 0z"/><path fill="url(#F)" fill-rule="evenodd" d="M24.92 30.85c-3.84-.63-4.45-6.15-4.45-6.15s1.7 4.17 4.68 4.64c0 0-.23 1.5-.23 1.5z" transform="matrix(.724 0 0 .724 11.019 11.81)"/><path fill="url(#G)" fill-rule="evenodd" d="M34.57 22.7c-3.76.97-6.53-3.85-6.53-3.85s3.23 3.14 6.14 2.38c0 0 .4 1.48.4 1.48z" transform="matrix(.724 0 0 .724 11.019 11.81)"/></g><path fill="#fce94f" stroke="#8e7400" d="M42.55 10.46l4.78-1.75-2.3 22.3-4.7 1.6z"/><path fill="#fce94f" stroke="#8e7400" d="M18.34 42.56l3.9 4.46 22.78-9.8-4.86-3.27z"/><path fill="#fce94f" stroke="#8e7400" d="M16.27 41.84L10.05 44 .58 28.93l4.38-1.12z"/><path fill="none" stroke="#000" d="M22.57 41.43l1.53 2.2"/><path fill="none" stroke="#000" d="M30.38 38.1l1.72 1.6"/><path fill="none" stroke="#000" d="M37.24 35.24l1.8 1.8"/><path fill="none" stroke="#000" d="M42.3 13.9l2.75-1.04"/><path fill="none" stroke="#000" d="M41.62 21.52l2.48-.76"/><path fill="none" stroke="#000" d="M40.86 29.52l2.28-.76"/><path fill="none" stroke="#000" d="M6.57 30.1l-2.67.38"/><path fill="none" stroke="#000" d="M9.9 34.3l-2.95.65"/><path fill="none" stroke="#000" d="M13.62 38.76l-3.05 1.05"/></g></svg>