<svg xmlns="http://www.w3.org/2000/svg" width="48" height="48" xmlns:xlink="http://www.w3.org/1999/xlink"><defs><linearGradient id="e"><stop offset="0" stop-color="#dbb718"/><stop offset="1" stop-color="#9e830c"/></linearGradient><linearGradient id="d"><stop offset="0" stop-color="#fff"/><stop offset="1" stop-color="#c4c4be"/></linearGradient><linearGradient id="c"><stop offset="0" stop-color="#888a85"/><stop offset="1" stop-color="#5c5e5a"/></linearGradient><linearGradient id="b"><stop offset="0" stop-color="#4f595c"/><stop offset=".214" stop-color="#6c7a7e"/><stop offset="1" stop-color="#232829"/></linearGradient><linearGradient id="a"><stop offset="0" stop-color="#c4a000"/><stop offset="1" stop-color="#c4a000" stop-opacity="0"/></linearGradient><radialGradient id="s" cx="22.848" cy="8.308" r="5.256" xlink:href="#a" fx="22.848" fy="8.308" gradientTransform="matrix(1.622 .051 -.041 .435 -13.88 3.069)" gradientUnits="userSpaceOnUse"/><radialGradient id="u" cx="22.648" cy="8.241" r="5.256" xlink:href="#a" fx="22.648" fy="8.241" gradientTransform="matrix(1.473 -.018 .16 .627 -12.025 3.057)" gradientUnits="userSpaceOnUse"/><linearGradient id="t" x1="13.087" x2="28.683" y1="21.736" y2="17.695" xlink:href="#b" gradientUnits="userSpaceOnUse" gradientTransform="matrix(1.003 -.274 .274 1.003 -6.959 5.923)"/><linearGradient id="w" x1="11.524" x2="24.843" y1="6.607" y2="19.486" xlink:href="#c" gradientUnits="userSpaceOnUse" gradientTransform="matrix(1.003 -.274 .274 1.003 -6.959 5.923)"/><radialGradient id="v" cx="16.062" cy="12.389" r="7.266" xlink:href="#d" fx="16.062" fy="12.389" gradientTransform="matrix(1.003 -.274 .305 1.118 -7.394 4.329)" gradientUnits="userSpaceOnUse"/><linearGradient id="x" x1="-.006" x2="48.18" y1="25.304" y2="25.304" xlink:href="#e" gradientUnits="userSpaceOnUse" gradientTransform="matrix(1.003 -.274 .274 1.003 -6.959 5.923)"/><radialGradient cx="3.299" cy="3.416" r="2.751" xlink:href="#f" fx="3.299" fy="3.416" gradientUnits="userSpaceOnUse"/><linearGradient id="f"><stop offset="0" stop-color="#fff"/><stop offset="1" stop-color="#8e8e8e"/></linearGradient><linearGradient x1="10.276" x2="14.832" y1="35.035" y2="37.582" xlink:href="#g" gradientUnits="userSpaceOnUse" gradientTransform="matrix(.555 .053 -.053 .555 25.564 23.188)"/><linearGradient id="g"><stop offset="0" stop-color="#2e3436"/><stop offset="1" stop-color="#2e3436" stop-opacity="0"/></linearGradient><linearGradient x1="23.201" x2="22.286" y1="3.505" y2="32.37" gradientTransform="matrix(.558 0 0 .558 23.595 23.652)" xlink:href="#h" gradientUnits="userSpaceOnUse"/><linearGradient id="h"><stop offset="0" stop-color="#d3d7cf"/><stop offset="1" stop-color="#fff"/></linearGradient><radialGradient cx="3.299" cy="3.416" r="2.751" fy="3.416" fx="3.299" gradientUnits="userSpaceOnUse" xlink:href="#f"/><radialGradient cx="3.299" cy="3.416" r="2.751" xlink:href="#f" gradientUnits="userSpaceOnUse" fx="3.299" fy="3.416"/><radialGradient cx="23.335" cy="44.42" r="18.562" xlink:href="#i" fx="23.335" fy="44.42" gradientTransform="matrix(1 0 0 .193 0 35.854)" gradientUnits="userSpaceOnUse"/><linearGradient id="i"><stop offset="0" stop-color="#2e3436" stop-opacity=".619"/><stop offset="1" stop-color="#2e3436" stop-opacity="0"/></linearGradient><linearGradient x1="20.73" x2="23.296" y1="29.815" y2="45.056" xlink:href="#j" gradientUnits="userSpaceOnUse" gradientTransform="matrix(.989 0 0 .989 9.007 -1.633)"/><linearGradient id="j"><stop offset="0" stop-color="#888a85"/><stop offset="1" stop-color="#51534f"/></linearGradient><linearGradient x1="287.517" x2="289.676" y1="-439.753" y2="-436.322" xlink:href="#k" gradientUnits="userSpaceOnUse"/><linearGradient id="k"><stop offset="0" stop-color="#fff"/><stop offset="1" stop-color="#fff" stop-opacity="0"/></linearGradient><linearGradient x1="286.512" x2="289.854" y1="-441.291" y2="-436.145" xlink:href="#l" gradientUnits="userSpaceOnUse"/><linearGradient id="l"><stop offset="0" stop-color="#fff"/><stop offset="1" stop-color="#fff" stop-opacity="0"/></linearGradient><linearGradient x1="285.941" x2="289.391" y1="-439.939" y2="-436.443" xlink:href="#m" gradientUnits="userSpaceOnUse"/><linearGradient id="m"><stop offset="0" stop-color="#fff"/><stop offset="1" stop-color="#fff" stop-opacity="0"/></linearGradient><linearGradient x1="275.942" x2="279.975" y1="-437.105" y2="-431.918" xlink:href="#n" gradientUnits="userSpaceOnUse"/><linearGradient id="n"><stop offset="0" stop-color="#fff"/><stop offset="1" stop-color="#fff" stop-opacity="0"/></linearGradient><linearGradient x1="286.666" x2="289.766" y1="-439.484" y2="-436.707" xlink:href="#o" gradientUnits="userSpaceOnUse"/><linearGradient id="o"><stop offset="0" stop-color="#fff"/><stop offset="1" stop-color="#fff" stop-opacity="0"/></linearGradient><linearGradient x1="284.802" x2="288.9" y1="-441.233" y2="-436.831" xlink:href="#m" gradientUnits="userSpaceOnUse"/><linearGradient x1="286.246" x2="290.121" y1="-434.732" y2="-439.69" xlink:href="#k" gradientUnits="userSpaceOnUse"/><linearGradient x1="287.147" x2="289.473" y1="-434.809" y2="-437.594" xlink:href="#l" gradientUnits="userSpaceOnUse"/><linearGradient x1="286.014" x2="288.375" y1="-435.546" y2="-438.971" xlink:href="#m" gradientUnits="userSpaceOnUse"/><linearGradient x1="276.614" x2="283.463" y1="-431" y2="-438.722" xlink:href="#p" gradientUnits="userSpaceOnUse"/><linearGradient id="p"><stop offset="0" stop-color="#fff"/><stop offset="1" stop-color="#fff" stop-opacity="0"/></linearGradient><linearGradient x1="286.295" x2="289.395" y1="-435.628" y2="-438.19" xlink:href="#o" gradientUnits="userSpaceOnUse"/><linearGradient x1="286.415" x2="290.078" y1="-435.784" y2="-439.289" xlink:href="#m" gradientUnits="userSpaceOnUse"/><linearGradient x1="286.415" x2="288.375" y1="-435.784" y2="-437.888" xlink:href="#m" gradientUnits="userSpaceOnUse"/><linearGradient x1="271.022" x2="285.029" y1="-441.052" y2="-431.97" xlink:href="#p" gradientUnits="userSpaceOnUse" gradientTransform="matrix(1.452 0 0 1.286 -374.468 572.5)"/><linearGradient x1="29.124" x2="27.356" y1="38.897" y2="34.879" gradientTransform="translate(8.742 -1.884)" xlink:href="#q" gradientUnits="userSpaceOnUse"/><linearGradient id="q"><stop offset="0" stop-color="#5d5b58"/><stop offset="1" stop-color="#5d5b58" stop-opacity="0"/></linearGradient><linearGradient x1="29.124" x2="27.356" y1="38.897" y2="34.879" xlink:href="#r" gradientUnits="userSpaceOnUse" gradientTransform="matrix(.917 -.399 .399 .917 4.662 6.088)"/><linearGradient id="r"><stop offset="0" stop-color="#74726e"/><stop offset="1" stop-color="#5d5b58" stop-opacity="0"/></linearGradient><radialGradient cx="23.335" cy="44.42" r="18.562" fy="44.42" fx="23.335" gradientTransform="matrix(1 0 0 .193 0 35.854)" gradientUnits="userSpaceOnUse" xlink:href="#i"/><radialGradient id="y" cx="23.335" cy="44.42" r="18.562" xlink:href="#i" gradientUnits="userSpaceOnUse" gradientTransform="matrix(1 0 0 .193 0 35.854)" fx="23.335" fy="44.42"/><linearGradient id="z" x1="20.73" x2="23.296" y1="29.815" y2="45.056" xlink:href="#j" gradientUnits="userSpaceOnUse" gradientTransform="matrix(.989 0 0 .989 9.007 -1.633)"/><linearGradient id="A" x1="287.517" x2="289.676" y1="-439.753" y2="-436.322" xlink:href="#k" gradientUnits="userSpaceOnUse"/><linearGradient id="B" x1="286.512" x2="289.854" y1="-441.291" y2="-436.145" xlink:href="#l" gradientUnits="userSpaceOnUse"/><linearGradient id="C" x1="285.941" x2="289.391" y1="-439.939" y2="-436.443" xlink:href="#m" gradientUnits="userSpaceOnUse"/><linearGradient id="D" x1="275.942" x2="279.975" y1="-437.105" y2="-431.918" xlink:href="#n" gradientUnits="userSpaceOnUse"/><linearGradient id="E" x1="286.666" x2="289.766" y1="-439.484" y2="-436.707" xlink:href="#o" gradientUnits="userSpaceOnUse"/><linearGradient id="F" x1="284.802" x2="288.9" y1="-441.233" y2="-436.831" xlink:href="#m" gradientUnits="userSpaceOnUse"/><linearGradient id="G" x1="286.246" x2="290.121" y1="-434.732" y2="-439.69" xlink:href="#k" gradientUnits="userSpaceOnUse"/><linearGradient id="H" x1="287.147" x2="289.473" y1="-434.809" y2="-437.594" xlink:href="#l" gradientUnits="userSpaceOnUse"/><linearGradient id="I" x1="286.014" x2="288.375" y1="-435.546" y2="-438.971" xlink:href="#m" gradientUnits="userSpaceOnUse"/><linearGradient id="J" x1="276.614" x2="283.463" y1="-431" y2="-438.722" xlink:href="#p" gradientUnits="userSpaceOnUse"/><linearGradient id="K" x1="286.295" x2="289.395" y1="-435.628" y2="-438.19" xlink:href="#o" gradientUnits="userSpaceOnUse"/><linearGradient id="L" x1="286.415" x2="290.078" y1="-435.784" y2="-439.289" xlink:href="#m" gradientUnits="userSpaceOnUse"/><linearGradient id="M" x1="286.415" x2="288.375" y1="-435.784" y2="-437.888" xlink:href="#m" gradientUnits="userSpaceOnUse"/><linearGradient id="N" x1="271.022" x2="285.029" y1="-441.052" y2="-431.97" xlink:href="#p" gradientUnits="userSpaceOnUse" gradientTransform="matrix(1.452 0 0 1.286 -374.468 572.5)"/><linearGradient id="O" x1="29.124" x2="27.356" y1="38.897" y2="34.879" xlink:href="#q" gradientUnits="userSpaceOnUse" gradientTransform="translate(8.742 -1.884)"/><linearGradient id="P" x1="29.124" x2="27.356" y1="38.897" y2="34.879" xlink:href="#r" gradientUnits="userSpaceOnUse" gradientTransform="matrix(.917 -.399 .399 .917 4.662 6.088)"/></defs><g><path fill="#e4cc09" stroke="#897100" stroke-width="1.04" d="M13.2 26.36s-3.07-11.1-4.08-14.57c-1.2-4.14 1.72-9.66 3.1-10.38C13.8.6 19.96-.63 24.2 2.72 26 4.2 30.97 13.7 30.97 13.7c-3.76 7.07-9.7 11.26-17.78 12.68z" color="#000" overflow="visible" enable-background="accumulate"/><path fill="none" stroke="#fce94f" stroke-width=".969" d="M13.66 25.38S10.8 15.04 9.86 11.8c-1.12-3.85 1.6-9 2.9-9.66 1.45-.77 7.18-1.9 11.13 1.22 1.7 1.35 6.32 10.2 6.32 10.2-3.5 6.6-9.05 10.5-16.56 11.82z" color="#000" overflow="visible" enable-background="accumulate"/><path fill="url(#s)" d="M30.95 7.52a5.2 2.1 0 1 1-10.38 0 5.2 2.1 0 1 1 10.38 0z" transform="matrix(.861 .203 -.272 .814 -1.466 -8.329)" color="#000" overflow="visible" enable-background="accumulate"/><path fill="url(#t)" stroke="#181818" stroke-width="1.04" d="M11.95 21.97c4.5-4.66 12.15-8.2 18.6-9.92l1.92 5.3-19 10.03z" color="#000" overflow="visible" enable-background="accumulate"/><path fill="url(#u)" d="M30.95 7.52a5.2 2.1 0 1 1-10.38 0 5.2 2.1 0 1 1 10.38 0z" transform="matrix(-.186 .743 .594 .302 11.376 -14.243)" color="#000" overflow="visible" enable-background="accumulate"/><path fill="#2e3436" d="M12.8 7.86c-.87.24-1.38 1.13-1.13 2.03.2.76.9 1.28 1.66 1.25l.15 3.03-1.7 1.3c-.4-.44-1.02-.66-1.62-.5-.87.24-1.37 1.16-1.12 2.06.24.9 1.14 1.44 2 1.2.47-.12.82-.44 1.02-.85l2.18.58.97 2.7c-.72.32-1.12 1.15-.9 1.96.25.9 1.14 1.4 2 1.18.87-.24 1.4-1.14 1.17-2.04-.13-.5-.5-.86-.9-1.07l1.5-2.28 2.77-.1c0 .14.04.28.07.4.26.9 1.15 1.4 2.02 1.17.86-.25 1.37-1.14 1.13-2.04-.25-.9-1.15-1.44-2-1.2-.27.07-.47.2-.65.38l-1.72-2.1.68-2.2c.3.1.63.13.96.04.86-.24 1.36-1.16 1.12-2.06-.24-.9-1.15-1.44-2-1.2-.82.22-1.28 1.03-1.16 1.86l-2.4.93-2.45-1.68c.37-.4.53-1 .37-1.6-.24-.88-1.13-1.4-2-1.16z" color="#000" overflow="visible" enable-background="accumulate"/><path fill="url(#v)" stroke="url(#w)" stroke-width=".52" d="M11.74 7.4c-.86.22-1.37 1.12-1.13 2 .22.8.92 1.3 1.67 1.28l.15 3.02-1.7 1.3c-.4-.44-1-.66-1.62-.5-.86.24-1.36 1.17-1.12 2.06.24.9 1.14 1.44 2 1.2.48-.12.83-.43 1.03-.84l2.2.58.96 2.7c-.73.32-1.14 1.15-.9 1.97.23.9 1.12 1.4 2 1.17.86-.24 1.4-1.14 1.15-2.03-.12-.48-.47-.86-.88-1.06l1.5-2.3 2.77-.08c0 .12.02.26.06.38.24.9 1.13 1.4 2 1.18.87-.24 1.38-1.13 1.13-2.03-.25-.9-1.15-1.45-2.02-1.2-.25.06-.45.2-.64.36l-1.7-2.1.67-2.2c.3.1.64.14.96.05.87-.23 1.37-1.16 1.12-2.05-.24-.9-1.14-1.44-2-1.2-.8.2-1.27 1.03-1.15 1.86l-2.4.93-2.46-1.7c.37-.4.54-1 .38-1.57-.25-.9-1.14-1.4-2-1.17z" color="#000" overflow="visible" enable-background="accumulate"/><path fill="url(#x)" stroke="#796300" stroke-width="1.029" d="M20.83 22.07c4.06-2.42 7-11.95 17.56-12.87 2-.18 6.98-.08 8.84 6.96C49.62 25.24 35.3 33.2 26.5 35.98c-9.74 3.1-25.1.42-25.9-4.35-.83-4.78 12.3-4.84 20.23-9.56z"/><path d="M16.02 31.7c-.8-3.32 4.8-5.8 8.3-6.9 2.87-.88 10.58-4.33 11.6-1.42 1.05 3.02-4.92 8.1-10.73 9.2-3.27.6-8.6 1.56-9.18-.9z" color="#000" overflow="visible" enable-background="accumulate"/><path fill="none" stroke="#edd400" stroke-width=".967" d="M21.58 22.87c3.92-2.27 6.26-11.62 16.4-12.6 1.95-.18 6.58-.27 8.28 6.18 2.18 8.33-11.5 15.93-19.98 18.6-9.4 2.96-24 1.04-24.73-3.35-.72-4.38 12.36-4.4 20.03-8.83z"/><g><path fill="url(#y)" fill-rule="evenodd" d="M41.9 44.42c0 1.98-8.3 3.58-18.57 3.58-10.25 0-18.56-1.6-18.56-3.58s8.3-3.58 18.56-3.58c10.26 0 18.57 1.6 18.57 3.58z" transform="matrix(.603 0 0 .603 21.801 18.995)" color="#000" overflow="visible"/><path fill="#c4c5c2" stroke="url(#z)" stroke-width="2.859" stroke-miterlimit="2" d="M52.25 21c.54.86 1.57 2.9 1.57 3.94 0 2.24-1.46 4.13-3.53 5.16.27.68.5 1.4.5 2.16 0 3.67-3.36 6.65-7.52 6.65-1.26 0-2.4-.33-3.44-.82-.9 2.76-3.7 4.83-7.1 4.83-3.43 0-6.2-2.06-7.1-4.82-1.06.5-2.2.83-3.45.83-4.17 0-7.54-2.97-7.54-6.64 0-.77.24-1.48.5-2.16-2.05-1.03-3.52-2.92-3.52-5.16 0-1.2.4-4 1-5-.65-.96-.98-2-.98-3.08 0-2.25 1.46-4.14 3.53-5.16-.28-.7-.53-1.4-.53-2.16 0-3.68 3.38-6.66 7.54-6.66 1.27 0 2.4.35 3.44.83.92-2.75 3.7-4.8 7.1-4.8 3.43 0 6.2 2.05 7.12 4.8 1.04-.47 2.18-.82 3.44-.82 4.15 0 7.53 2.98 7.53 6.66 0 .77-.25 1.47-.52 2.16 2.08 1.02 3.54 2.9 3.54 5.16 0 1.02-1.08 3.3-1.6 4.14z" transform="matrix(.525 0 0 .525 19.026 23.439)"/><g><path fill="#c4c5c2" d="M38.93 26.24c0 1.36-1.25 2.47-2.8 2.47-1.54 0-2.8-1.1-2.8-2.46 0-1.37 1.26-2.47 2.8-2.47 1.55 0 2.8 1.1 2.8 2.47z"/><path fill="url(#A)" d="M291.7-437.6c0 1.84-1.5 3.32-3.32 3.32-1.83 0-3.32-1.48-3.32-3.3 0-1.84 1.5-3.33 3.3-3.33 1.84 0 3.33 1.48 3.33 3.3z" transform="matrix(.846 0 0 .747 -207.446 352.957)"/></g><path fill="#c4c5c2" d="M28.63 28.05h16v6.36h-16z"/><path fill="#c4c5c2" d="M31.12 32.43c0 1.17-1.08 2.12-2.4 2.12-1.33 0-2.4-.95-2.4-2.12 0-1.17 1.07-2.12 2.4-2.12 1.32 0 2.4.96 2.4 2.13z"/><g><path fill="#c4c5c2" d="M44.52 28.36c0 1.36-1.25 2.47-2.8 2.47-1.54 0-2.8-1.1-2.8-2.47s1.26-2.48 2.8-2.48c1.55 0 2.8 1.1 2.8 2.48z"/><path fill="url(#B)" d="M291.7-437.6c0 1.84-1.5 3.32-3.32 3.32-1.83 0-3.32-1.48-3.32-3.3 0-1.84 1.5-3.33 3.3-3.33 1.84 0 3.33 1.48 3.33 3.3z" transform="matrix(.846 0 0 .747 -201.846 355.078)"/></g><g><path fill="#c4c5c2" d="M33.34 28.36c0 1.36-1.26 2.47-2.8 2.47-1.54 0-2.8-1.1-2.8-2.47s1.26-2.48 2.8-2.48c1.54 0 2.8 1.1 2.8 2.48z"/><path fill="url(#C)" d="M291.7-437.6c0 1.84-1.5 3.32-3.32 3.32-1.83 0-3.32-1.48-3.32-3.3 0-1.84 1.5-3.33 3.3-3.33 1.84 0 3.33 1.48 3.33 3.3z" transform="matrix(.846 0 0 .747 -213.046 355.078)"/></g><g><path fill="#c4c5c2" d="M35.37 25.92c-2.86 0-5.16 2.07-5.16 4.6 0 1.67 1.08 3.06 2.6 3.85h5.17c1.52-.8 2.6-2.2 2.6-3.88 0-2.54-2.34-4.58-5.2-4.58z"/><path fill="url(#D)" d="M280.5-441c-3.6 0-6.5 2.9-6.5 6.5 0 2.38 1.34 4.37 3.25 5.5h6.5c1.9-1.13 3.25-3.12 3.25-5.5 0-3.6-2.9-6.5-6.5-6.5z" transform="matrix(.8 0 0 .707 -188.887 337.5)"/></g><path fill="url(#E)" d="M291.7-437.6c0 1.84-1.5 3.32-3.32 3.32-1.83 0-3.32-1.48-3.32-3.3 0-1.84 1.5-3.33 3.3-3.33 1.84 0 3.33 1.48 3.33 3.3z" transform="matrix(.724 0 0 .64 -180.226 312.286)"/><g><path fill="#c4c5c2" d="M42.24 31.34c0 1.56-1.43 2.83-3.2 2.83-1.76 0-3.2-1.27-3.2-2.83s1.44-2.82 3.2-2.82c1.77 0 3.2 1.26 3.2 2.82z"/><path fill="url(#F)" d="M291.7-437.6c0 1.84-1.5 3.32-3.32 3.32-1.83 0-3.32-1.48-3.32-3.3 0-1.84 1.5-3.33 3.3-3.33 1.84 0 3.33 1.48 3.33 3.3z" transform="matrix(.966 0 0 .853 -239.451 404.9)"/></g><g><path fill="#c4c5c2" d="M38.92 42.6c0-1.35-1.25-2.46-2.8-2.46-1.54 0-2.8 1.1-2.8 2.47s1.26 2.48 2.8 2.48c1.55 0 2.8-1.1 2.8-2.47z"/><path fill="url(#G)" d="M291.7-437.6c0 1.84-1.5 3.32-3.32 3.32-1.83 0-3.32-1.48-3.32-3.3 0-1.84 1.5-3.33 3.3-3.33 1.84 0 3.33 1.48 3.33 3.3z" transform="matrix(.846 0 0 -.747 -207.455 -284.091)"/></g><path fill="#c4c5c2" d="M28.62 40.82h16v-6.36h-16z"/><path fill="#c4c5c2" d="M31.1 36.42c0-1.17-1.07-2.12-2.4-2.12-1.32 0-2.4.95-2.4 2.12 0 1.17 1.08 2.1 2.4 2.1 1.33 0 2.4-.93 2.4-2.1z"/><g><path fill="#c4c5c2" d="M44.5 40.5c0-1.37-1.24-2.48-2.78-2.48-1.55 0-2.8 1.1-2.8 2.47 0 1.36 1.25 2.46 2.8 2.46 1.54 0 2.8-1.1 2.8-2.47z"/><path fill="url(#H)" d="M291.7-437.6c0 1.84-1.5 3.32-3.32 3.32-1.83 0-3.32-1.48-3.32-3.3 0-1.84 1.5-3.33 3.3-3.33 1.84 0 3.33 1.48 3.33 3.3z" transform="matrix(.846 0 0 -.747 -201.855 -286.212)"/></g><g><path fill="#c4c5c2" d="M33.33 40.5c0-1.37-1.26-2.48-2.8-2.48-1.54 0-2.8 1.1-2.8 2.47 0 1.36 1.26 2.46 2.8 2.46 1.54 0 2.8-1.1 2.8-2.47z"/><path fill="url(#I)" d="M291.7-437.6c0 1.84-1.5 3.32-3.32 3.32-1.83 0-3.32-1.48-3.32-3.3 0-1.84 1.5-3.33 3.3-3.33 1.84 0 3.33 1.48 3.33 3.3z" transform="matrix(.846 0 0 -.747 -213.055 -286.212)"/></g><g><path fill="#c4c5c2" d="M35.36 42.92c-2.86 0-5.16-2.06-5.16-4.6 0-1.66 1.07-3.05 2.6-3.85h5.16c1.52.8 2.6 2.2 2.6 3.9 0 2.5-2.34 4.55-5.2 4.55z"/><path fill="url(#J)" d="M280.5-441c-3.6 0-6.5 2.9-6.5 6.5 0 2.38 1.34 4.37 3.25 5.5h6.5c1.9-1.13 3.25-3.12 3.25-5.5 0-3.6-2.9-6.5-6.5-6.5z" transform="matrix(.8 0 0 -.707 -188.897 -268.634)"/></g><path fill="url(#K)" d="M291.7-437.6c0 1.84-1.5 3.32-3.32 3.32-1.83 0-3.32-1.48-3.32-3.3 0-1.84 1.5-3.33 3.3-3.33 1.84 0 3.33 1.48 3.33 3.3z" transform="matrix(.724 0 0 -.64 -180.236 -243.42)"/><g><path fill="#c4c5c2" d="M40.1 36.08c0-1.56-1.44-2.82-3.2-2.82-1.77 0-3.2 1.26-3.2 2.82 0 1.56 1.43 2.83 3.2 2.83 1.76 0 3.2-1.26 3.2-2.82z"/><path fill="url(#L)" d="M291.7-437.6c0 1.84-1.5 3.32-3.32 3.32-1.83 0-3.32-1.48-3.32-3.3 0-1.84 1.5-3.33 3.3-3.33 1.84 0 3.33 1.48 3.33 3.3z" transform="matrix(.966 0 0 -.853 -241.609 -337.458)"/></g><g><path fill="#c4c5c2" d="M45.14 34.53c0-1.56-1.43-2.83-3.2-2.83-1.77 0-3.2 1.27-3.2 2.83s1.43 2.82 3.2 2.82c1.77 0 3.2-1.26 3.2-2.82z"/><path fill="url(#M)" d="M291.7-437.6c0 1.84-1.5 3.32-3.32 3.32-1.83 0-3.32-1.48-3.32-3.3 0-1.84 1.5-3.33 3.3-3.33 1.84 0 3.33 1.48 3.33 3.3z" transform="matrix(.966 0 0 -.853 -236.555 -339.013)"/></g><path fill="url(#N)" stroke="#fff" stroke-opacity=".502" stroke-width="1.906" stroke-miterlimit="2" d="M14.25 20.16c-1 .98-1.18 3.52-1.18 4.98 0 1.9 1.6 3.57 3.54 4.5-.25.64-.64 1.47-.64 2.18 0 3.35 2.76 5.93 6.7 5.93 1.18 0 2.65-.72 3.62-1.16.98 3.2 3.1 5.2 6.28 5.2s5.6-2.07 6.55-5.18c.98.44 2.8 1.16 3.96 1.16 3.86 0 6.34-2.6 6.34-5.96 0-.7-.42-1.7-.68-2.32 1.92-.93 3.54-2.32 3.54-4.36 0-1.34-.85-2.5-1.76-4.07.88-1.6 1.78-2.97 1.78-4.4 0-2.03-1.62-3.4-3.54-4.35.25-.63.67-1.6.67-2.3 0-3.37-3.06-5.9-6.92-5.9-1.17 0-2.38.64-3.35 1.08-.95-3.1-3.27-4.9-6.45-4.9S27.28 2 26.3 5.22c-.97-.44-2.25-1.07-3.42-1.07-3.94 0-6.9 2.5-6.9 5.85 0 .7.4 1.72.64 2.35-1.92.93-3.53 2.43-3.53 4.33 0 1.42.2 2.5 1.15 3.48z" transform="matrix(.525 0 0 .525 19.026 23.439)"/><path fill="#888a85" fill-rule="evenodd" d="M45.96 28.97c0 1.85-2.55 2.56-2.55 2.56s1.84-1.12 1.83-2.56c0 0 .73 0 .73 0z"/><path fill="url(#O)" fill-rule="evenodd" d="M40.55 39.15C36.7 38.52 36.1 33 36.1 33s1.7 4.17 4.68 4.64c0 0-.23 1.5-.23 1.5z" transform="matrix(.525 0 0 .525 19.026 23.439)"/><path fill="url(#P)" fill-rule="evenodd" d="M50.2 31c-3.76.96-6.53-3.86-6.53-3.86s3.23 3.15 6.14 2.4c0 0 .4 1.47.4 1.47z" transform="matrix(.525 0 0 .525 19.026 23.439)"/></g></g></svg>