<svg xmlns="http://www.w3.org/2000/svg" width="48" height="48" xmlns:xlink="http://www.w3.org/1999/xlink"><defs><linearGradient id="j"><stop offset="0" stop-color="#74726e"/><stop offset="1" stop-color="#5d5b58" stop-opacity="0"/></linearGradient><linearGradient id="i"><stop offset="0" stop-color="#5d5b58"/><stop offset="1" stop-color="#5d5b58" stop-opacity="0"/></linearGradient><linearGradient id="h"><stop offset="0" stop-color="#888a85"/><stop offset="1" stop-color="#51534f"/></linearGradient><linearGradient id="g"><stop offset="0" stop-color="#2e3436" stop-opacity=".619"/><stop offset="1" stop-color="#2e3436" stop-opacity="0"/></linearGradient><linearGradient id="e"><stop offset="0" stop-color="#fff"/><stop offset="1" stop-color="#fff" stop-opacity="0"/></linearGradient><linearGradient id="d"><stop offset="0" stop-color="#fff"/><stop offset="1" stop-color="#fff" stop-opacity="0"/></linearGradient><linearGradient id="c"><stop offset="0" stop-color="#fff"/><stop offset="1" stop-color="#fff" stop-opacity="0"/></linearGradient><linearGradient id="b"><stop offset="0" stop-color="#fff"/><stop offset="1" stop-color="#fff" stop-opacity="0"/></linearGradient><linearGradient id="a"><stop offset="0" stop-color="#fff"/><stop offset="1" stop-color="#fff" stop-opacity="0"/></linearGradient><linearGradient id="f"><stop offset="0" stop-color="#fff"/><stop offset="1" stop-color="#fff" stop-opacity="0"/></linearGradient><linearGradient x1="287.517" x2="289.676" y1="-439.753" y2="-436.322" xlink:href="#a" gradientUnits="userSpaceOnUse"/><linearGradient x1="286.512" x2="289.854" y1="-441.291" y2="-436.145" xlink:href="#b" gradientUnits="userSpaceOnUse"/><linearGradient x1="285.941" x2="289.391" y1="-439.939" y2="-436.443" xlink:href="#c" gradientUnits="userSpaceOnUse"/><linearGradient x1="275.942" x2="279.975" y1="-437.105" y2="-431.918" xlink:href="#d" gradientUnits="userSpaceOnUse"/><linearGradient x1="286.666" x2="289.766" y1="-439.484" y2="-436.707" xlink:href="#e" gradientUnits="userSpaceOnUse"/><linearGradient x1="284.802" x2="288.9" y1="-441.233" y2="-436.831" xlink:href="#c" gradientUnits="userSpaceOnUse"/><linearGradient x1="286.415" x2="290.078" y1="-435.784" y2="-439.289" xlink:href="#c" gradientUnits="userSpaceOnUse"/><linearGradient x1="286.295" x2="289.395" y1="-435.628" y2="-438.19" xlink:href="#e" gradientUnits="userSpaceOnUse"/><linearGradient x1="276.614" x2="283.463" y1="-431" y2="-438.722" xlink:href="#f" gradientUnits="userSpaceOnUse"/><linearGradient x1="286.014" x2="288.375" y1="-435.546" y2="-438.971" xlink:href="#c" gradientUnits="userSpaceOnUse"/><linearGradient x1="287.147" x2="289.473" y1="-434.809" y2="-437.594" xlink:href="#b" gradientUnits="userSpaceOnUse"/><linearGradient x1="286.246" x2="290.121" y1="-434.732" y2="-439.69" xlink:href="#a" gradientUnits="userSpaceOnUse"/><linearGradient x1="271.022" x2="285.029" y1="-441.052" y2="-431.97" xlink:href="#f" gradientUnits="userSpaceOnUse" gradientTransform="matrix(1.452 0 0 1.286 -383.21 574.384)"/><linearGradient x1="286.415" x2="288.375" y1="-435.784" y2="-437.888" xlink:href="#c" gradientUnits="userSpaceOnUse"/><radialGradient id="k" cx="23.335" cy="44.42" r="18.562" xlink:href="#g" fx="23.335" fy="44.42" gradientTransform="matrix(1 0 0 .193 0 35.854)" gradientUnits="userSpaceOnUse"/><linearGradient x1="20.73" x2="23.296" y1="29.815" y2="45.056" xlink:href="#h" gradientUnits="userSpaceOnUse" gradientTransform="matrix(.989 0 0 .989 .265 .251)"/><linearGradient x1="29.124" x2="27.356" y1="38.897" y2="34.879" xlink:href="#i" gradientUnits="userSpaceOnUse"/><linearGradient x1="29.124" x2="27.356" y1="38.897" y2="34.879" xlink:href="#j" gradientUnits="userSpaceOnUse" gradientTransform="matrix(.917 -.399 .399 .917 -4.08 7.972)"/><linearGradient x1="20.73" x2="23.296" y1="29.815" y2="45.056" xlink:href="#h" gradientUnits="userSpaceOnUse" gradientTransform="matrix(.989 0 0 .989 .265 .251)"/><linearGradient id="l" x1="287.517" x2="289.676" y1="-439.753" y2="-436.322" xlink:href="#a" gradientUnits="userSpaceOnUse"/><linearGradient id="m" x1="286.512" x2="289.854" y1="-441.291" y2="-436.145" xlink:href="#b" gradientUnits="userSpaceOnUse"/><linearGradient id="n" x1="285.941" x2="289.391" y1="-439.939" y2="-436.443" xlink:href="#c" gradientUnits="userSpaceOnUse"/><linearGradient id="o" x1="275.942" x2="279.975" y1="-437.105" y2="-431.918" xlink:href="#d" gradientUnits="userSpaceOnUse"/><linearGradient id="p" x1="286.666" x2="289.766" y1="-439.484" y2="-436.707" xlink:href="#e" gradientUnits="userSpaceOnUse"/><linearGradient id="q" x1="284.802" x2="288.9" y1="-441.233" y2="-436.831" xlink:href="#c" gradientUnits="userSpaceOnUse"/><linearGradient id="r" x1="286.246" x2="290.121" y1="-434.732" y2="-439.69" xlink:href="#a" gradientUnits="userSpaceOnUse"/><linearGradient id="s" x1="287.147" x2="289.473" y1="-434.809" y2="-437.594" xlink:href="#b" gradientUnits="userSpaceOnUse"/><linearGradient id="t" x1="286.014" x2="288.375" y1="-435.546" y2="-438.971" xlink:href="#c" gradientUnits="userSpaceOnUse"/><linearGradient id="u" x1="276.614" x2="283.463" y1="-431" y2="-438.722" xlink:href="#f" gradientUnits="userSpaceOnUse"/><linearGradient id="v" x1="286.295" x2="289.395" y1="-435.628" y2="-438.19" xlink:href="#e" gradientUnits="userSpaceOnUse"/><linearGradient id="w" x1="286.415" x2="290.078" y1="-435.784" y2="-439.289" xlink:href="#c" gradientUnits="userSpaceOnUse"/><linearGradient id="x" x1="286.415" x2="288.375" y1="-435.784" y2="-437.888" xlink:href="#c" gradientUnits="userSpaceOnUse"/><linearGradient x1="271.022" x2="285.029" y1="-441.052" y2="-431.97" xlink:href="#f" gradientUnits="userSpaceOnUse" gradientTransform="matrix(1.452 0 0 1.286 -383.21 574.384)"/><linearGradient x1="29.124" x2="27.356" y1="38.897" y2="34.879" xlink:href="#i" gradientUnits="userSpaceOnUse"/><linearGradient x1="29.124" x2="27.356" y1="38.897" y2="34.879" xlink:href="#j" gradientUnits="userSpaceOnUse" gradientTransform="matrix(.917 -.399 .399 .917 -4.08 7.972)"/><linearGradient x1="20.73" x2="23.296" y1="29.815" y2="45.056" xlink:href="#h" gradientUnits="userSpaceOnUse" gradientTransform="matrix(.989 0 0 .989 .265 .251)"/><linearGradient x1="287.517" x2="289.676" y1="-439.753" y2="-436.322" xlink:href="#a" gradientUnits="userSpaceOnUse"/><linearGradient x1="286.512" x2="289.854" y1="-441.291" y2="-436.145" xlink:href="#b" gradientUnits="userSpaceOnUse"/><linearGradient x1="285.941" x2="289.391" y1="-439.939" y2="-436.443" xlink:href="#c" gradientUnits="userSpaceOnUse"/><linearGradient x1="275.942" x2="279.975" y1="-437.105" y2="-431.918" xlink:href="#d" gradientUnits="userSpaceOnUse"/><linearGradient x1="286.666" x2="289.766" y1="-439.484" y2="-436.707" xlink:href="#e" gradientUnits="userSpaceOnUse"/><linearGradient x1="284.802" x2="288.9" y1="-441.233" y2="-436.831" xlink:href="#c" gradientUnits="userSpaceOnUse"/><linearGradient x1="286.246" x2="290.121" y1="-434.732" y2="-439.69" xlink:href="#a" gradientUnits="userSpaceOnUse"/><linearGradient x1="287.147" x2="289.473" y1="-434.809" y2="-437.594" xlink:href="#b" gradientUnits="userSpaceOnUse"/><linearGradient x1="286.014" x2="288.375" y1="-435.546" y2="-438.971" xlink:href="#c" gradientUnits="userSpaceOnUse"/><linearGradient x1="276.614" x2="283.463" y1="-431" y2="-438.722" xlink:href="#f" gradientUnits="userSpaceOnUse"/><linearGradient x1="286.295" x2="289.395" y1="-435.628" y2="-438.19" xlink:href="#e" gradientUnits="userSpaceOnUse"/><linearGradient x1="286.415" x2="290.078" y1="-435.784" y2="-439.289" xlink:href="#c" gradientUnits="userSpaceOnUse"/><linearGradient x1="286.415" x2="288.375" y1="-435.784" y2="-437.888" xlink:href="#c" gradientUnits="userSpaceOnUse"/><linearGradient x1="271.022" x2="285.029" y1="-441.052" y2="-431.97" xlink:href="#f" gradientUnits="userSpaceOnUse" gradientTransform="matrix(1.452 0 0 1.286 -383.21 574.384)"/><linearGradient x1="29.124" x2="27.356" y1="38.897" y2="34.879" xlink:href="#i" gradientUnits="userSpaceOnUse"/><linearGradient x1="29.124" x2="27.356" y1="38.897" y2="34.879" xlink:href="#j" gradientUnits="userSpaceOnUse" gradientTransform="matrix(.917 -.399 .399 .917 -4.08 7.972)"/><linearGradient x1="29.124" x2="27.356" y1="38.897" y2="34.879" xlink:href="#j" gradientUnits="userSpaceOnUse" gradientTransform="matrix(.833 -.363 .363 .833 43.632 11.687)"/><linearGradient x1="29.124" x2="27.356" y1="38.897" y2="34.879" xlink:href="#i" gradientUnits="userSpaceOnUse" gradientTransform="matrix(.908 0 0 .908 47.338 4.446)"/><linearGradient x1="271.022" x2="285.029" y1="-441.052" y2="-431.97" xlink:href="#f" gradientUnits="userSpaceOnUse" gradientTransform="matrix(1.318 0 0 1.168 -300.733 526.161)"/><linearGradient x1="29.124" x2="27.356" y1="38.897" y2="34.879" xlink:href="#j" gradientUnits="userSpaceOnUse" gradientTransform="matrix(.833 -.363 .363 .833 -1.505 9.33)"/><linearGradient x1="29.124" x2="27.356" y1="38.897" y2="34.879" xlink:href="#i" gradientUnits="userSpaceOnUse" gradientTransform="matrix(.908 0 0 .908 2.201 2.089)"/><linearGradient id="y" x1="271.022" x2="285.029" y1="-441.052" y2="-431.97" xlink:href="#f" gradientUnits="userSpaceOnUse" gradientTransform="matrix(1.318 0 0 1.168 -345.87 523.804)"/></defs><g><g fill="none" stroke="#888a85" stroke-opacity=".196" stroke-miterlimit="2"><path stroke-width="6" d="M41.8 23.08c.48.78 1.42 2.62 1.42 3.58 0 2.04-1.33 3.75-3.2 4.68.24.63.46 1.27.46 1.97 0 3.34-3.06 6.05-6.84 6.05-1.14 0-2.17-.3-3.12-.75-.83 2.5-3.35 4.38-6.46 4.38-3.1 0-5.62-1.88-6.45-4.38-.94.44-1.97.75-3.1.75-3.8 0-6.85-2.7-6.85-6.04 0-.7.22-1.33.47-1.96-1.88-.93-3.2-2.64-3.2-4.68 0-1.1.35-3.64.9-4.55-.6-.86-.9-1.8-.9-2.78 0-2.04 1.33-3.76 3.2-4.7-.24-.6-.46-1.25-.46-1.95 0-3.34 3.07-6.05 6.84-6.05 1.15 0 2.18.32 3.12.76.84-2.5 3.35-4.38 6.46-4.38 3.1 0 5.62 1.87 6.46 4.38.95-.44 1.97-.76 3.12-.76 3.78 0 6.84 2.7 6.84 6.05 0 .7-.22 1.34-.47 1.96 1.88.93 3.2 2.65 3.2 4.7 0 .92-.98 2.98-1.44 3.75z"/><path stroke-width="5" d="M41.8 23.08c.48.78 1.42 2.62 1.42 3.58 0 2.04-1.33 3.75-3.2 4.68.24.63.46 1.27.46 1.97 0 3.34-3.06 6.05-6.84 6.05-1.14 0-2.17-.3-3.12-.75-.83 2.5-3.35 4.38-6.46 4.38-3.1 0-5.62-1.88-6.45-4.38-.94.44-1.97.75-3.1.75-3.8 0-6.85-2.7-6.85-6.04 0-.7.22-1.33.47-1.96-1.88-.93-3.2-2.64-3.2-4.68 0-1.1.35-3.64.9-4.55-.6-.86-.9-1.8-.9-2.78 0-2.04 1.33-3.76 3.2-4.7-.24-.6-.46-1.25-.46-1.95 0-3.34 3.07-6.05 6.84-6.05 1.15 0 2.18.32 3.12.76.84-2.5 3.35-4.38 6.46-4.38 3.1 0 5.62 1.87 6.46 4.38.95-.44 1.97-.76 3.12-.76 3.78 0 6.84 2.7 6.84 6.05 0 .7-.22 1.34-.47 1.96 1.88.93 3.2 2.65 3.2 4.7 0 .92-.98 2.98-1.44 3.75z"/><path stroke-width="4" d="M41.8 23.08c.48.78 1.42 2.62 1.42 3.58 0 2.04-1.33 3.75-3.2 4.68.24.63.46 1.27.46 1.97 0 3.34-3.06 6.05-6.84 6.05-1.14 0-2.17-.3-3.12-.75-.83 2.5-3.35 4.38-6.46 4.38-3.1 0-5.62-1.88-6.45-4.38-.94.44-1.97.75-3.1.75-3.8 0-6.85-2.7-6.85-6.04 0-.7.22-1.33.47-1.96-1.88-.93-3.2-2.64-3.2-4.68 0-1.1.35-3.64.9-4.55-.6-.86-.9-1.8-.9-2.78 0-2.04 1.33-3.76 3.2-4.7-.24-.6-.46-1.25-.46-1.95 0-3.34 3.07-6.05 6.84-6.05 1.15 0 2.18.32 3.12.76.84-2.5 3.35-4.38 6.46-4.38 3.1 0 5.62 1.87 6.46 4.38.95-.44 1.97-.76 3.12-.76 3.78 0 6.84 2.7 6.84 6.05 0 .7-.22 1.34-.47 1.96 1.88.93 3.2 2.65 3.2 4.7 0 .92-.98 2.98-1.44 3.75z"/><path stroke-width="3" d="M41.8 23.08c.48.78 1.42 2.62 1.42 3.58 0 2.04-1.33 3.75-3.2 4.68.24.63.46 1.27.46 1.97 0 3.34-3.06 6.05-6.84 6.05-1.14 0-2.17-.3-3.12-.75-.83 2.5-3.35 4.38-6.46 4.38-3.1 0-5.62-1.88-6.45-4.38-.94.44-1.97.75-3.1.75-3.8 0-6.85-2.7-6.85-6.04 0-.7.22-1.33.47-1.96-1.88-.93-3.2-2.64-3.2-4.68 0-1.1.35-3.64.9-4.55-.6-.86-.9-1.8-.9-2.78 0-2.04 1.33-3.76 3.2-4.7-.24-.6-.46-1.25-.46-1.95 0-3.34 3.07-6.05 6.84-6.05 1.15 0 2.18.32 3.12.76.84-2.5 3.35-4.38 6.46-4.38 3.1 0 5.62 1.87 6.46 4.38.95-.44 1.97-.76 3.12-.76 3.78 0 6.84 2.7 6.84 6.05 0 .7-.22 1.34-.47 1.96 1.88.93 3.2 2.65 3.2 4.7 0 .92-.98 2.98-1.44 3.75z"/><path stroke-width="2" d="M41.8 23.08c.48.78 1.42 2.62 1.42 3.58 0 2.04-1.33 3.75-3.2 4.68.24.63.46 1.27.46 1.97 0 3.34-3.06 6.05-6.84 6.05-1.14 0-2.17-.3-3.12-.75-.83 2.5-3.35 4.38-6.46 4.38-3.1 0-5.62-1.88-6.45-4.38-.94.44-1.97.75-3.1.75-3.8 0-6.85-2.7-6.85-6.04 0-.7.22-1.33.47-1.96-1.88-.93-3.2-2.64-3.2-4.68 0-1.1.35-3.64.9-4.55-.6-.86-.9-1.8-.9-2.78 0-2.04 1.33-3.76 3.2-4.7-.24-.6-.46-1.25-.46-1.95 0-3.34 3.07-6.05 6.84-6.05 1.15 0 2.18.32 3.12.76.84-2.5 3.35-4.38 6.46-4.38 3.1 0 5.62 1.87 6.46 4.38.95-.44 1.97-.76 3.12-.76 3.78 0 6.84 2.7 6.84 6.05 0 .7-.22 1.34-.47 1.96 1.88.93 3.2 2.65 3.2 4.7 0 .92-.98 2.98-1.44 3.75z"/></g><path fill="url(#k)" fill-rule="evenodd" d="M41.9 44.42a18.56 3.58 0 1 1-37.13 0 18.56 3.58 0 1 1 37.13 0z" transform="matrix(1.148 0 0 1.148 -3.457 -6.581)" color="#000" overflow="visible"/><g><path fill="#c4c5c2" d="M28.9 8.5c0 2.37-2.17 4.3-4.84 4.3-2.68 0-4.85-1.93-4.85-4.3 0-2.35 2.18-4.27 4.86-4.27 2.67 0 4.84 1.92 4.84 4.28z"/><path fill="url(#l)" d="M291.7-437.6c0 1.84-1.5 3.32-3.32 3.32-1.83 0-3.32-1.48-3.32-3.3 0-1.84 1.5-3.33 3.3-3.33 1.84 0 3.33 1.48 3.33 3.3z" transform="matrix(1.463 0 0 1.292 -397.557 573.874)"/></g><path fill="#c4c5c2" d="M10.88 11.78h27.67v11H10.88z"/><path fill="#c4c5c2" d="M15.03 19.1a4.15 3.67 0 1 1-8.3 0 4.15 3.67 0 1 1 8.3 0z"/><g><path fill="#c4c5c2" d="M38.6 12.18c0 2.36-2.18 4.28-4.86 4.28-2.67 0-4.84-1.92-4.84-4.28 0-2.37 2.17-4.28 4.84-4.28 2.68 0 4.85 1.9 4.85 4.28z"/><path fill="url(#m)" d="M291.7-437.6c0 1.84-1.5 3.32-3.32 3.32-1.83 0-3.32-1.48-3.32-3.3 0-1.84 1.5-3.33 3.3-3.33 1.84 0 3.33 1.48 3.33 3.3z" transform="matrix(1.463 0 0 1.292 -387.869 577.54)"/></g><g><path fill="#c4c5c2" d="M19.22 12.18c0 2.36-2.17 4.28-4.85 4.28-2.67 0-4.84-1.92-4.84-4.28 0-2.37 2.17-4.28 4.84-4.28 2.68 0 4.85 1.9 4.85 4.28z"/><path fill="url(#n)" d="M291.7-437.6c0 1.84-1.5 3.32-3.32 3.32-1.83 0-3.32-1.48-3.32-3.3 0-1.84 1.5-3.33 3.3-3.33 1.84 0 3.33 1.48 3.33 3.3z" transform="matrix(1.463 0 0 1.292 -407.245 577.54)"/></g><g><path fill="#c4c5c2" d="M22.6 8.15c-4.95 0-8.95 3.57-8.95 7.94 0 2.9 1.86 5.3 4.5 6.68h8.94c2.62-1.4 4.5-3.83 4.5-6.73 0-4.37-4.05-7.9-9-7.9z"/><path fill="url(#o)" d="M280.5-441c-3.6 0-6.5 2.9-6.5 6.5 0 2.38 1.34 4.37 3.25 5.5h6.5c1.9-1.13 3.25-3.12 3.25-5.5 0-3.6-2.9-6.5-6.5-6.5z" transform="matrix(1.384 0 0 1.222 -365.451 547.157)"/></g><path fill="url(#p)" d="M291.7-437.6a3.3 3.3 0 1 1-6.64 0 3.3 3.3 0 1 1 6.63 0z" transform="matrix(1.253 0 0 1.107 -350.466 503.534)"/><g><path fill="#c4c5c2" d="M34.48 17.9c0 2.7-2.48 4.9-5.53 4.9-3.06 0-5.54-2.2-5.54-4.9s2.5-4.9 5.55-4.9 5.53 2.2 5.53 4.9z"/><path fill="url(#q)" d="M291.7-437.6c0 1.84-1.5 3.32-3.32 3.32-1.83 0-3.32-1.48-3.32-3.3 0-1.84 1.5-3.33 3.3-3.33 1.84 0 3.33 1.48 3.33 3.3z" transform="matrix(1.671 0 0 1.477 -452.922 663.788)"/></g><g><path fill="#c4c5c2" d="M28.88 37.13c0-2.36-2.16-4.28-4.84-4.28-2.67 0-4.84 1.92-4.84 4.28 0 2.36 2.17 4.28 4.84 4.28 2.68 0 4.84-1.9 4.84-4.27z"/><path fill="url(#r)" d="M291.7-437.6c0 1.84-1.5 3.32-3.32 3.32-1.83 0-3.32-1.48-3.32-3.3 0-1.84 1.5-3.33 3.3-3.33 1.84 0 3.33 1.48 3.33 3.3z" transform="matrix(1.463 0 0 -1.292 -397.574 -528.233)"/></g><path fill="#c4c5c2" d="M10.87 33.87h27.67v-11H10.87z"/><path fill="#c4c5c2" d="M15.02 26.53c0-2.82-3.46-4.58-6.23-3.17-1.3.65-2.1 1.86-2.1 3.17 0 2.83 3.47 4.6 6.24 3.18 1.28-.65 2.08-1.86 2.08-3.17z"/><g><path fill="#c4c5c2" d="M38.57 33.46c0-2.36-2.17-4.28-4.84-4.28-2.68 0-4.85 1.92-4.85 4.28 0 2.37 2.17 4.28 4.85 4.28 2.67 0 4.84-1.9 4.84-4.28z"/><path fill="url(#s)" d="M291.7-437.6c0 1.84-1.5 3.32-3.32 3.32-1.83 0-3.32-1.48-3.32-3.3 0-1.84 1.5-3.33 3.3-3.33 1.84 0 3.33 1.48 3.33 3.3z" transform="matrix(1.463 0 0 -1.292 -387.886 -531.899)"/></g><g><path fill="#c4c5c2" d="M19.2 33.46c0-2.36-2.17-4.28-4.84-4.28-2.68 0-4.85 1.92-4.85 4.28 0 2.37 2.18 4.28 4.86 4.28 2.67 0 4.84-1.9 4.84-4.28z"/><path fill="url(#t)" d="M291.7-437.6c0 1.84-1.5 3.32-3.32 3.32-1.83 0-3.32-1.48-3.32-3.3 0-1.84 1.5-3.33 3.3-3.33 1.84 0 3.33 1.48 3.33 3.3z" transform="matrix(1.463 0 0 -1.292 -407.262 -531.899)"/></g><g><path fill="#c4c5c2" d="M22.58 37.5c-4.95 0-8.95-3.57-8.95-7.95 0-2.9 1.87-5.3 4.5-6.68h8.95c2.63 1.38 4.5 3.82 4.5 6.72 0 4.36-4.05 7.9-9 7.9z"/><path fill="url(#u)" d="M280.5-441c-3.6 0-6.5 2.9-6.5 6.5 0 2.38 1.34 4.37 3.25 5.5h6.5c1.9-1.13 3.25-3.12 3.25-5.5 0-3.6-2.9-6.5-6.5-6.5z" transform="matrix(1.384 0 0 -1.222 -365.467 -501.516)"/></g><path fill="url(#v)" d="M291.7-437.6a3.3 3.3 0 1 1-6.64 0 3.3 3.3 0 1 1 6.63 0z" transform="matrix(1.253 0 0 -1.107 -350.482 -457.892)"/><g><path fill="#c4c5c2" d="M30.75 25.28c0-2.7-2.48-4.9-5.54-4.9-3.04 0-5.52 2.2-5.52 4.9s2.48 4.9 5.53 4.9c3.07 0 5.55-2.2 5.55-4.9z"/><path fill="url(#w)" d="M291.7-437.6c0 1.84-1.5 3.32-3.32 3.32-1.83 0-3.32-1.48-3.32-3.3 0-1.84 1.5-3.33 3.3-3.33 1.84 0 3.33 1.48 3.33 3.3z" transform="matrix(1.671 0 0 -1.477 -456.654 -620.609)"/></g><g><path fill="#c4c5c2" d="M39.5 22.6c0-2.7-2.5-4.9-5.54-4.9-3.06 0-5.54 2.2-5.54 4.9s2.48 4.88 5.54 4.88c3.05 0 5.53-2.2 5.53-4.9z"/><path fill="url(#x)" d="M291.7-437.6c0 1.84-1.5 3.32-3.32 3.32-1.83 0-3.32-1.48-3.32-3.3 0-1.84 1.5-3.33 3.3-3.33 1.84 0 3.33 1.48 3.33 3.3z" transform="matrix(1.671 0 0 -1.477 -447.911 -623.299)"/></g><path fill="url(#y)" stroke="#fff" stroke-opacity=".502" stroke-miterlimit="2" d="M7.2 22.1c-.9.9-1.07 3.2-1.07 4.53 0 1.73 1.47 3.25 3.2 4.1-.22.57-.57 1.33-.57 1.97 0 3.04 2.5 5.4 6.1 5.4 1.05 0 2.4-.66 3.27-1.07.9 2.93 2.82 4.73 5.7 4.73 2.9 0 5.1-1.87 5.95-4.7.88.4 2.53 1.05 3.6 1.05 3.5 0 5.75-2.36 5.75-5.4 0-.64-.4-1.53-.62-2.1 1.76-.85 3.23-2.1 3.23-3.97 0-1.22-.77-2.25-1.6-3.7.8-1.45 1.6-2.7 1.6-3.97 0-1.86-1.45-3.12-3.2-3.97.23-.58.6-1.47.6-2.1 0-3.06-2.78-5.35-6.3-5.35-1.05 0-2.15.58-3.03.98-.86-2.83-2.97-4.47-5.86-4.47-2.88 0-4.9 1.56-5.8 4.5-.87-.4-2.03-.98-3.1-.98-3.58 0-6.26 2.26-6.26 5.3 0 .65.35 1.57.58 2.14-1.75.85-3.2 2.2-3.2 3.94 0 1.28.2 2.27 1.04 3.15z"/></g></svg>