<svg xmlns="http://www.w3.org/2000/svg" width="48" height="48" xmlns:xlink="http://www.w3.org/1999/xlink"><defs><linearGradient id="p"><stop offset="0" stop-color="#74726e"/><stop offset="1" stop-color="#5d5b58" stop-opacity="0"/></linearGradient><linearGradient id="o"><stop offset="0" stop-color="#5d5b58"/><stop offset="1" stop-color="#5d5b58" stop-opacity="0"/></linearGradient><linearGradient id="i"><stop offset="0" stop-color="#888a85"/><stop offset="1" stop-color="#51534f"/></linearGradient><linearGradient><stop offset="0" stop-color="#2e3436" stop-opacity=".619"/><stop offset="1" stop-color="#2e3436" stop-opacity="0"/></linearGradient><linearGradient id="m"><stop offset="0" stop-color="#fff"/><stop offset="1" stop-color="#fff" stop-opacity="0"/></linearGradient><linearGradient id="l"><stop offset="0" stop-color="#fff"/><stop offset="1" stop-color="#fff" stop-opacity="0"/></linearGradient><linearGradient id="f"><stop offset="0" stop-color="#fff"/><stop offset="1" stop-color="#fff" stop-opacity="0"/></linearGradient><linearGradient id="k"><stop offset="0" stop-color="#fff"/><stop offset="1" stop-color="#fff" stop-opacity="0"/></linearGradient><linearGradient id="j"><stop offset="0" stop-color="#fff"/><stop offset="1" stop-color="#fff" stop-opacity="0"/></linearGradient><linearGradient id="n"><stop offset="0" stop-color="#fff"/><stop offset="1" stop-color="#fff" stop-opacity="0"/></linearGradient><linearGradient x1="10.276" x2="14.832" y1="35.035" y2="37.582" xlink:href="#a" gradientUnits="userSpaceOnUse" gradientTransform="matrix(.83 .08 -.08 .83 86.174 1.704)"/><linearGradient id="a"><stop offset="0" stop-color="#2e3436"/><stop offset="1" stop-color="#2e3436" stop-opacity="0"/></linearGradient><linearGradient x1="23.201" x2="22.286" y1="3.505" y2="32.37" xlink:href="#b" gradientUnits="userSpaceOnUse" gradientTransform="matrix(-.834 0 0 .834 120.203 -6.058)"/><linearGradient id="b"><stop offset="0" stop-color="#d3d7cf"/><stop offset="1" stop-color="#fff"/></linearGradient><radialGradient cx="3.299" cy="3.416" r="2.751" xlink:href="#c" gradientUnits="userSpaceOnUse" fx="3.299" fy="3.416"/><linearGradient id="c"><stop offset="0" stop-color="#fff"/><stop offset="1" stop-color="#8e8e8e"/></linearGradient><linearGradient x1="23.201" x2="22.286" y1="3.505" y2="32.37" xlink:href="#b" gradientUnits="userSpaceOnUse" gradientTransform="matrix(-.495 0 0 .495 22.228 .012)"/><linearGradient x1="10.276" x2="14.832" y1="35.035" y2="37.582" xlink:href="#a" gradientUnits="userSpaceOnUse" gradientTransform="matrix(.492 .047 -.047 .493 15.218 -.091)"/><radialGradient cx="3.299" cy="3.416" r="2.751" xlink:href="#c" fx="3.299" fy="3.416" gradientUnits="userSpaceOnUse"/><linearGradient><stop offset="0" stop-color="#fff"/><stop offset="1" stop-color="#8e8e8e"/></linearGradient><radialGradient cx="3.299" cy="3.416" r="2.751" fy="3.416" fx="3.299" gradientUnits="userSpaceOnUse" xlink:href="#c"/><linearGradient x1="10.276" x2="14.832" y1="35.035" y2="37.582" xlink:href="#a" gradientUnits="userSpaceOnUse" gradientTransform="matrix(.501 .048 -.048 .501 26.188 17.5)"/><linearGradient x1="23.201" x2="22.286" y1="3.505" y2="32.37" xlink:href="#b" gradientUnits="userSpaceOnUse" gradientTransform="matrix(.503 0 0 .504 24.972 17.615)"/><radialGradient cx="3.299" cy="3.416" r="2.751" xlink:href="#c" gradientUnits="userSpaceOnUse" fx="3.299" fy="3.416"/><linearGradient x1="10.276" x2="14.832" y1="35.035" y2="37.582" xlink:href="#a" gradientUnits="userSpaceOnUse" gradientTransform="matrix(.501 .048 -.048 .501 26.129 -.295)"/><linearGradient x1="23.201" x2="22.286" y1="3.505" y2="32.37" xlink:href="#b" gradientUnits="userSpaceOnUse" gradientTransform="matrix(.503 0 0 .504 24.913 -.18)"/><radialGradient cx="3.299" cy="3.416" r="2.751" xlink:href="#c" gradientUnits="userSpaceOnUse" fx="3.299" fy="3.416"/><linearGradient x1="10.276" x2="14.832" y1="35.035" y2="37.582" xlink:href="#a" gradientUnits="userSpaceOnUse" gradientTransform="matrix(.501 .048 -.048 .501 14.992 11.785)"/><linearGradient x1="23.201" x2="22.286" y1="3.505" y2="32.37" xlink:href="#b" gradientUnits="userSpaceOnUse" gradientTransform="matrix(-.503 0 0 -.504 22.375 48.281)"/><radialGradient cx="3.299" cy="3.416" r="2.751" xlink:href="#c" gradientUnits="userSpaceOnUse" fx="3.299" fy="3.416"/><radialGradient cx="3.299" cy="3.416" r="2.751" xlink:href="#c" gradientUnits="userSpaceOnUse" fx="3.299" fy="3.416"/><linearGradient x1="-95.827" x2="-81.455" y1="297.608" y2="297.608" xlink:href="#d" gradientUnits="userSpaceOnUse" gradientTransform="matrix(.719 .784 .996 -.914 -199.349 377.414)"/><linearGradient id="d" x1="-95.827" x2="-81.455" y1="297.608" y2="297.608" gradientTransform="matrix(0 -1.064 -1.352 0 410.498 -83.416)" gradientUnits="userSpaceOnUse"><stop offset="0" stop-color="#e96712" stop-opacity="0"/><stop offset=".622" stop-color="#D52E0C"/><stop offset="1" stop-color="#CB1009"/></linearGradient><linearGradient x1="8.071" x2="8.071" y1="3.993" y2="15.429" xlink:href="#e" gradientUnits="userSpaceOnUse" gradientTransform="matrix(-.996 .914 -.904 -.985 50.213 38.027)"/><linearGradient id="e"><stop offset="0" stop-color="#590b08"/><stop offset="1" stop-opacity="0"/></linearGradient><linearGradient x1="285.941" x2="289.391" y1="-439.939" y2="-436.443" xlink:href="#f" gradientUnits="userSpaceOnUse"/><radialGradient cx="34.328" cy="459.265" r="2.869" gradientUnits="userSpaceOnUse" gradientTransform="matrix(-1 0 0 1 55.359 0)" fy="459.265" fx="34.328"><stop offset="0" stop-color="#fff"/><stop offset=".004" stop-color="#FDFDFE"/><stop offset=".107" stop-color="#C7D5E5"/><stop offset=".212" stop-color="#98B3CF"/><stop offset=".315" stop-color="#7297BD"/><stop offset=".417" stop-color="#5481B0"/><stop offset=".517" stop-color="#3F72A6"/><stop offset=".615" stop-color="#3268A0"/><stop offset=".708" stop-color="#2E659E"/><stop offset="1" stop-color="#193766"/></radialGradient><radialGradient cx="20.523" cy="458.587" r="4.066" gradientUnits="userSpaceOnUse" fy="458.587" fx="20.523"><stop offset="0" stop-color="#fff"/><stop offset=".685" stop-color="#2E659E"/><stop offset="1" stop-color="#1D3E63"/></radialGradient><radialGradient cx="34.328" cy="459.265" r="2.869" gradientUnits="userSpaceOnUse" gradientTransform="matrix(-1 0 0 1 55.359 0)" fy="459.265" fx="34.328"><stop offset="0" stop-color="#fff"/><stop offset=".004" stop-color="#FDFDFE"/><stop offset=".107" stop-color="#C7D5E5"/><stop offset=".212" stop-color="#98B3CF"/><stop offset=".315" stop-color="#7297BD"/><stop offset=".417" stop-color="#5481B0"/><stop offset=".517" stop-color="#3F72A6"/><stop offset=".615" stop-color="#3268A0"/><stop offset=".708" stop-color="#2E659E"/><stop offset="1" stop-color="#193766"/></radialGradient><radialGradient cx="20.523" cy="458.587" r="4.066" gradientUnits="userSpaceOnUse" fy="458.587" fx="20.523"><stop offset="0" stop-color="#fff"/><stop offset=".685" stop-color="#2E659E"/><stop offset="1" stop-color="#1D3E63"/></radialGradient><radialGradient cx="34.328" cy="459.265" r="2.869" gradientUnits="userSpaceOnUse" gradientTransform="matrix(-1 0 0 1 55.359 0)" fy="459.265" fx="34.328"><stop offset="0" stop-color="#fff"/><stop offset=".004" stop-color="#FDFDFE"/><stop offset=".107" stop-color="#C7D5E5"/><stop offset=".212" stop-color="#98B3CF"/><stop offset=".315" stop-color="#7297BD"/><stop offset=".417" stop-color="#5481B0"/><stop offset=".517" stop-color="#3F72A6"/><stop offset=".615" stop-color="#3268A0"/><stop offset=".708" stop-color="#2E659E"/><stop offset="1" stop-color="#193766"/></radialGradient><radialGradient cx="20.523" cy="458.587" r="4.066" gradientUnits="userSpaceOnUse" fy="458.587" fx="20.523"><stop offset="0" stop-color="#fff"/><stop offset=".685" stop-color="#2E659E"/><stop offset="1" stop-color="#1D3E63"/></radialGradient><radialGradient cx="34.328" cy="459.265" r="2.869" gradientUnits="userSpaceOnUse" gradientTransform="matrix(-1 0 0 1 55.359 0)" fy="459.265" fx="34.328"><stop offset="0" stop-color="#fff"/><stop offset=".004" stop-color="#FDFDFE"/><stop offset=".107" stop-color="#C7D5E5"/><stop offset=".212" stop-color="#98B3CF"/><stop offset=".315" stop-color="#7297BD"/><stop offset=".417" stop-color="#5481B0"/><stop offset=".517" stop-color="#3F72A6"/><stop offset=".615" stop-color="#3268A0"/><stop offset=".708" stop-color="#2E659E"/><stop offset="1" stop-color="#193766"/></radialGradient><radialGradient cx="20.523" cy="458.587" r="4.066" gradientUnits="userSpaceOnUse" fy="458.587" fx="20.523"><stop offset="0" stop-color="#fff"/><stop offset=".685" stop-color="#2E659E"/><stop offset="1" stop-color="#1D3E63"/></radialGradient><radialGradient cx="20.523" cy="458.587" r="4.066" gradientUnits="userSpaceOnUse" fy="458.587" fx="20.523"><stop offset="0" stop-color="#fff"/><stop offset=".685" stop-color="#2E659E"/><stop offset="1" stop-color="#1D3E63"/></radialGradient><radialGradient cx="34.328" cy="459.265" r="2.869" gradientUnits="userSpaceOnUse" gradientTransform="matrix(-1 0 0 1 55.359 0)" fy="459.265" fx="34.328"><stop offset="0" stop-color="#fff"/><stop offset=".004" stop-color="#FDFDFE"/><stop offset=".107" stop-color="#C7D5E5"/><stop offset=".212" stop-color="#98B3CF"/><stop offset=".315" stop-color="#7297BD"/><stop offset=".417" stop-color="#5481B0"/><stop offset=".517" stop-color="#3F72A6"/><stop offset=".615" stop-color="#3268A0"/><stop offset=".708" stop-color="#2E659E"/><stop offset="1" stop-color="#193766"/></radialGradient><radialGradient cx="20.523" cy="458.587" r="4.066" gradientUnits="userSpaceOnUse" fy="458.587" fx="20.523"><stop offset="0" stop-color="#fff"/><stop offset=".685" stop-color="#2E659E"/><stop offset="1" stop-color="#1D3E63"/></radialGradient><radialGradient cx="34.328" cy="459.265" r="2.869" gradientUnits="userSpaceOnUse" gradientTransform="matrix(-1 0 0 1 55.359 0)" fy="459.265" fx="34.328"><stop offset="0" stop-color="#fff"/><stop offset=".004" stop-color="#FDFDFE"/><stop offset=".107" stop-color="#C7D5E5"/><stop offset=".212" stop-color="#98B3CF"/><stop offset=".315" stop-color="#7297BD"/><stop offset=".417" stop-color="#5481B0"/><stop offset=".517" stop-color="#3F72A6"/><stop offset=".615" stop-color="#3268A0"/><stop offset=".708" stop-color="#2E659E"/><stop offset="1" stop-color="#193766"/></radialGradient><linearGradient x1="9.496" x2="4.889" y1="470.609" y2="468.235" xlink:href="#g" gradientUnits="userSpaceOnUse"/><linearGradient id="g" x1="21.592" x2="16.606" y1="460.478" y2="449.398" gradientUnits="userSpaceOnUse"><stop offset="0" stop-color="#88a9c3"/><stop offset="1" stop-color="#fff" stop-opacity="0"/></linearGradient><linearGradient x1="9.496" x2="4.889" y1="470.609" y2="468.235" xlink:href="#g" gradientUnits="userSpaceOnUse"/><linearGradient x1="21.592" x2="16.606" y1="460.478" y2="449.398" gradientUnits="userSpaceOnUse"><stop offset="0" stop-color="#88a9c3"/><stop offset="1" stop-color="#fff" stop-opacity="0"/></linearGradient><linearGradient id="h" x1="21.166" x2="16.757" y1="459.607" y2="449.81" gradientUnits="userSpaceOnUse" gradientTransform="translate(-3.513 -450.695)"><stop offset="0" stop-color="#6F87A0"/><stop offset="1" stop-color="#fff" stop-opacity="0"/></linearGradient><linearGradient x1="20.457" x2="17.948" y1="457.66" y2="453.32" xlink:href="#g" gradientUnits="userSpaceOnUse" gradientTransform="translate(-3.513 -450.695)"/><linearGradient x1="21.592" x2="16.606" y1="460.478" y2="449.398" gradientUnits="userSpaceOnUse"><stop offset="0" stop-color="#88a9c3"/><stop offset="1" stop-color="#fff" stop-opacity="0"/></linearGradient><linearGradient x1="21.166" x2="16.757" y1="459.607" y2="449.81" gradientUnits="userSpaceOnUse" gradientTransform="translate(-3.513 -450.695)"><stop offset="0" stop-color="#6F87A0"/><stop offset="1" stop-color="#fff" stop-opacity="0"/></linearGradient><linearGradient x1="21.166" x2="16.757" y1="459.607" y2="449.81" gradientUnits="userSpaceOnUse" gradientTransform="translate(-3.513 -450.695)"><stop offset="0" stop-color="#6F87A0"/><stop offset="1" stop-color="#fff" stop-opacity="0"/></linearGradient><linearGradient x1="21.166" x2="16.757" y1="459.607" y2="449.81" gradientUnits="userSpaceOnUse" gradientTransform="translate(-3.513 -450.695)"><stop offset="0" stop-color="#6F87A0"/><stop offset="1" stop-color="#fff" stop-opacity="0"/></linearGradient><linearGradient x1="20.457" x2="17.948" y1="457.66" y2="453.32" xlink:href="#g" gradientUnits="userSpaceOnUse" gradientTransform="translate(-3.513 -450.695)"/><linearGradient x1="21.592" x2="16.606" y1="460.478" y2="449.398" gradientUnits="userSpaceOnUse"><stop offset="0" stop-color="#88a9c3"/><stop offset="1" stop-color="#fff" stop-opacity="0"/></linearGradient><linearGradient x1="21.166" x2="16.757" y1="459.607" y2="449.81" gradientUnits="userSpaceOnUse" gradientTransform="translate(-3.513 -450.695)"><stop offset="0" stop-color="#6F87A0"/><stop offset="1" stop-color="#fff" stop-opacity="0"/></linearGradient><linearGradient x1="21.166" x2="16.757" y1="459.607" y2="449.81" gradientUnits="userSpaceOnUse" gradientTransform="translate(-3.513 -450.695)"><stop offset="0" stop-color="#6F87A0"/><stop offset="1" stop-color="#fff" stop-opacity="0"/></linearGradient><linearGradient x1="31.285" x2="32.427" y1="492.087" y2="496.629" xlink:href="#g" gradientUnits="userSpaceOnUse"/><linearGradient x1="21.592" x2="16.606" y1="460.478" y2="449.398" gradientUnits="userSpaceOnUse"><stop offset="0" stop-color="#88a9c3"/><stop offset="1" stop-color="#fff" stop-opacity="0"/></linearGradient><linearGradient x1="31.285" x2="32.427" y1="492.087" y2="496.629" xlink:href="#g" gradientUnits="userSpaceOnUse"/><linearGradient x1="21.592" x2="16.606" y1="460.478" y2="449.398" gradientUnits="userSpaceOnUse"><stop offset="0" stop-color="#88a9c3"/><stop offset="1" stop-color="#fff" stop-opacity="0"/></linearGradient><linearGradient x1="21.166" x2="16.757" y1="459.607" y2="449.81" gradientUnits="userSpaceOnUse" gradientTransform="translate(-3.513 -450.695)"><stop offset="0" stop-color="#6F87A0"/><stop offset="1" stop-color="#fff" stop-opacity="0"/></linearGradient><linearGradient x1="14.077" x2="11.179" y1="489.75" y2="495.436" xlink:href="#g" gradientUnits="userSpaceOnUse"/><linearGradient x1="21.592" x2="16.606" y1="460.478" y2="449.398" gradientUnits="userSpaceOnUse"><stop offset="0" stop-color="#88a9c3"/><stop offset="1" stop-color="#fff" stop-opacity="0"/></linearGradient><linearGradient x1="14.077" x2="11.179" y1="489.75" y2="495.436" xlink:href="#g" gradientUnits="userSpaceOnUse"/><linearGradient x1="21.592" x2="16.606" y1="460.478" y2="449.398" gradientUnits="userSpaceOnUse"><stop offset="0" stop-color="#88a9c3"/><stop offset="1" stop-color="#fff" stop-opacity="0"/></linearGradient><linearGradient x1="10.197" x2="6.095" y1="38.688" y2="46.12" xlink:href="#h" gradientUnits="userSpaceOnUse"/><linearGradient x1="21.166" x2="16.757" y1="459.607" y2="449.81" gradientUnits="userSpaceOnUse" gradientTransform="translate(-3.513 -450.695)"><stop offset="0" stop-color="#6F87A0"/><stop offset="1" stop-color="#fff" stop-opacity="0"/></linearGradient><linearGradient x1="20.457" x2="17.948" y1="457.66" y2="453.32" gradientTransform="translate(-3.513 -450.695)" gradientUnits="userSpaceOnUse" xlink:href="#g"/><linearGradient x1="9.496" x2="4.889" y1="470.609" y2="468.235" xlink:href="#g" gradientUnits="userSpaceOnUse"/><linearGradient x1="20.457" x2="17.948" y1="457.66" y2="453.32" xlink:href="#g" gradientUnits="userSpaceOnUse" gradientTransform="translate(-3.513 -450.695)"/><linearGradient x1="31.285" x2="32.427" y1="492.087" y2="496.629" xlink:href="#g" gradientUnits="userSpaceOnUse"/><linearGradient x1="14.077" x2="11.179" y1="489.75" y2="495.436" xlink:href="#g" gradientUnits="userSpaceOnUse"/><linearGradient id="t" x1="20.73" x2="23.296" y1="29.815" y2="45.056" xlink:href="#i" gradientUnits="userSpaceOnUse" gradientTransform="matrix(.743 0 0 .743 -1.065 .298)"/><linearGradient id="u" x1="287.517" x2="289.676" y1="-439.753" y2="-436.322" xlink:href="#j" gradientUnits="userSpaceOnUse"/><linearGradient id="v" x1="286.512" x2="289.854" y1="-441.291" y2="-436.145" xlink:href="#k" gradientUnits="userSpaceOnUse"/><linearGradient id="w" x1="285.941" x2="289.391" y1="-439.939" y2="-436.443" xlink:href="#f" gradientUnits="userSpaceOnUse"/><linearGradient id="x" x1="275.942" x2="279.975" y1="-437.105" y2="-431.918" xlink:href="#l" gradientUnits="userSpaceOnUse"/><linearGradient id="y" x1="286.666" x2="289.766" y1="-439.484" y2="-436.707" xlink:href="#m" gradientUnits="userSpaceOnUse"/><linearGradient id="z" x1="284.802" x2="288.9" y1="-441.233" y2="-436.831" xlink:href="#f" gradientUnits="userSpaceOnUse"/><linearGradient id="A" x1="286.246" x2="290.121" y1="-434.732" y2="-439.69" xlink:href="#j" gradientUnits="userSpaceOnUse"/><linearGradient id="B" x1="287.147" x2="289.473" y1="-434.809" y2="-437.594" xlink:href="#k" gradientUnits="userSpaceOnUse"/><linearGradient id="C" x1="286.014" x2="288.375" y1="-435.546" y2="-438.971" xlink:href="#f" gradientUnits="userSpaceOnUse"/><linearGradient id="D" x1="276.614" x2="283.463" y1="-431" y2="-438.722" xlink:href="#n" gradientUnits="userSpaceOnUse"/><linearGradient id="E" x1="286.295" x2="289.395" y1="-435.628" y2="-438.19" xlink:href="#m" gradientUnits="userSpaceOnUse"/><linearGradient id="F" x1="286.415" x2="290.078" y1="-435.784" y2="-439.289" xlink:href="#f" gradientUnits="userSpaceOnUse"/><linearGradient id="G" x1="286.415" x2="288.375" y1="-435.784" y2="-437.888" xlink:href="#f" gradientUnits="userSpaceOnUse"/><linearGradient id="H" x1="271.022" x2="285.029" y1="-441.052" y2="-431.97" xlink:href="#n" gradientUnits="userSpaceOnUse" gradientTransform="matrix(1.09 0 0 .966 -289.155 431.622)"/><linearGradient id="I" x1="29.124" x2="27.356" y1="38.897" y2="34.879" xlink:href="#o" gradientUnits="userSpaceOnUse" gradientTransform="matrix(.751 0 0 .751 -1.265 .109)"/><linearGradient id="J" x1="29.124" x2="27.356" y1="38.897" y2="34.879" xlink:href="#p" gradientUnits="userSpaceOnUse" gradientTransform="matrix(.689 -.3 .3 .689 -4.33 6.099)"/></defs><g><use id="r" width="48" height="48" xlink:href="#q" transform="matrix(.708 0 0 .708 .886 -.9)"/><use id="s" width="48" height="48" xlink:href="#r" transform="translate(4.773 7.542)"/><use width="48" height="48" xlink:href="#s" transform="translate(9.31 -1.237)"/><g id="K"><path fill="#c4c5c2" stroke="url(#t)" stroke-width="2.78" stroke-miterlimit="2" d="M31.42 17.3c.4.64 1.18 2.17 1.18 2.96 0 1.7-1.1 3.1-2.65 3.88.2.5.4 1.04.4 1.62 0 2.76-2.55 5-5.67 5-.95 0-1.8-.26-2.58-.63-.7 2.08-2.77 3.63-5.34 3.63s-4.65-1.55-5.34-3.63c-.8.37-1.64.63-2.58.63-3.13 0-5.66-2.24-5.66-5 0-.58.18-1.1.4-1.62C2 23.36.9 21.94.9 20.26c0-.9.3-3 .75-3.76-.5-.72-.74-1.5-.74-2.3 0-1.7 1.1-3.12 2.65-3.9-.2-.5-.4-1.03-.4-1.6 0-2.77 2.55-5 5.67-5 .95 0 1.8.25 2.58.6.7-2.06 2.77-3.6 5.34-3.6s4.65 1.54 5.34 3.6c.8-.35 1.65-.6 2.6-.6 3.12 0 5.65 2.23 5.65 5 0 .57-.18 1.1-.4 1.6 1.57.78 2.67 2.2 2.67 3.9 0 .76-.82 2.46-1.2 3.1z" transform="matrix(.293 0 0 .293 .796 .117)"/><g><path fill="#c4c5c2" d="M6.97 1.53c0 .57-.53 1.04-1.18 1.04-.65 0-1.18-.47-1.18-1.04C4.62.96 5.15.5 5.8.5c.64 0 1.17.46 1.17 1.03z"/><path fill="url(#u)" d="M291.7-437.6c0 1.84-1.5 3.32-3.32 3.32-1.83 0-3.32-1.48-3.32-3.3 0-1.84 1.5-3.33 3.3-3.33 1.84 0 3.33 1.48 3.33 3.3z" transform="matrix(.354 0 0 .313 -96.442 138.713)"/></g><path fill="#c4c5c2" d="M2.53 2.5h6.7v2.66h-6.7z"/><path fill="#c4c5c2" d="M3.5 4.2c0 .5-.46.88-1.02.88-.55 0-1-.4-1-.88 0-.5.45-.9 1-.9.56 0 1 .4 1 .9z"/><g><path fill="#c4c5c2" d="M9.3 2.42c0 .57-.5 1.04-1.16 1.04-.65 0-1.17-.47-1.17-1.04 0-.57.52-1.04 1.17-1.04.65 0 1.17.47 1.17 1.04z"/><path fill="url(#v)" d="M291.7-437.6c0 1.84-1.5 3.32-3.32 3.32-1.83 0-3.32-1.48-3.32-3.3 0-1.84 1.5-3.33 3.3-3.33 1.84 0 3.33 1.48 3.33 3.3z" transform="matrix(.354 0 0 .313 -94.097 139.601)"/></g><g><path fill="#c4c5c2" d="M4.62 2.42c0 .57-.52 1.04-1.17 1.04-.65 0-1.17-.47-1.17-1.04 0-.57.52-1.04 1.17-1.04.65 0 1.17.47 1.17 1.04z"/><path fill="url(#w)" d="M291.7-437.6c0 1.84-1.5 3.32-3.32 3.32-1.83 0-3.32-1.48-3.32-3.3 0-1.84 1.5-3.33 3.3-3.33 1.84 0 3.33 1.48 3.33 3.3z" transform="matrix(.354 0 0 .313 -98.787 139.601)"/></g><g><path fill="#c4c5c2" d="M5.44 1.5c-1.2 0-2.17.86-2.17 1.92 0 .7.45 1.3 1.1 1.62h2.16C7.16 4.7 7.6 4.12 7.6 3.4c0-1.04-.96-1.9-2.16-1.9z"/><path fill="url(#x)" d="M280.5-441c-3.6 0-6.5 2.9-6.5 6.5 0 2.38 1.34 4.37 3.25 5.5h6.5c1.9-1.13 3.25-3.12 3.25-5.5 0-3.6-2.9-6.5-6.5-6.5z" transform="matrix(.335 0 0 .296 -88.672 132.242)"/></g><path fill="url(#y)" d="M291.7-437.6c0 1.84-1.5 3.32-3.32 3.32-1.83 0-3.32-1.48-3.32-3.3 0-1.84 1.5-3.33 3.3-3.33 1.84 0 3.33 1.48 3.33 3.3z" transform="matrix(.304 0 0 .268 -85.04 121.67)"/><g><path fill="#c4c5c2" d="M8.44 4.02c0 .66-.6 1.2-1.35 1.2-.75 0-1.35-.54-1.35-1.2 0-.65.6-1.18 1.34-1.18.73 0 1.34.53 1.34 1.18z"/><path fill="url(#z)" d="M291.7-437.6c0 1.84-1.5 3.32-3.32 3.32-1.83 0-3.32-1.48-3.32-3.3 0-1.84 1.5-3.33 3.3-3.33 1.84 0 3.33 1.48 3.33 3.3z" transform="matrix(.405 0 0 .357 -109.865 160.493)"/></g><g><path fill="#c4c5c2" d="M6.96 8.8c0-.57-.52-1.04-1.17-1.04-.66 0-1.18.47-1.18 1.04 0 .57.52 1.04 1.17 1.04.64 0 1.16-.47 1.16-1.04z"/><path fill="url(#A)" d="M291.7-437.6c0 1.84-1.5 3.32-3.32 3.32-1.83 0-3.32-1.48-3.32-3.3 0-1.84 1.5-3.33 3.3-3.33 1.84 0 3.33 1.48 3.33 3.3z" transform="matrix(.354 0 0 -.313 -96.446 -128.366)"/></g><path fill="#c4c5c2" d="M2.52 7.85h6.7V5.18h-6.7z"/><path fill="#c4c5c2" d="M3.48 6.13c0-.5-.45-.88-1-.88-.56 0-1 .4-1 .88 0 .5.44.9 1 .9.55 0 1-.4 1-.9z"/><g><path fill="#c4c5c2" d="M9.3 7.9c0-.56-.52-1.03-1.17-1.03-.64 0-1.17.47-1.17 1.04 0 .58.53 1.05 1.17 1.05.65 0 1.18-.47 1.18-1.04z"/><path fill="url(#B)" d="M291.7-437.6c0 1.84-1.5 3.32-3.32 3.32-1.83 0-3.32-1.48-3.32-3.3 0-1.84 1.5-3.33 3.3-3.33 1.84 0 3.33 1.48 3.33 3.3z" transform="matrix(.354 0 0 -.313 -94.101 -129.254)"/></g><g><path fill="#c4c5c2" d="M4.62 7.9c0-.56-.53-1.03-1.18-1.03-.64 0-1.17.47-1.17 1.04 0 .58.53 1.05 1.17 1.05.65 0 1.18-.47 1.18-1.04z"/><path fill="url(#C)" d="M291.7-437.6c0 1.84-1.5 3.32-3.32 3.32-1.83 0-3.32-1.48-3.32-3.3 0-1.84 1.5-3.33 3.3-3.33 1.84 0 3.33 1.48 3.33 3.3z" transform="matrix(.354 0 0 -.313 -98.791 -129.254)"/></g><g><path fill="#c4c5c2" d="M5.43 8.83c-1.2 0-2.16-.86-2.16-1.92 0-.7.45-1.28 1.08-1.6h2.17c.64.32 1.1.9 1.1 1.62 0 1.06-1 1.9-2.2 1.9z"/><path fill="url(#D)" d="M280.5-441c-3.6 0-6.5 2.9-6.5 6.5 0 2.38 1.34 4.37 3.25 5.5h6.5c1.9-1.13 3.25-3.12 3.25-5.5 0-3.6-2.9-6.5-6.5-6.5z" transform="matrix(.335 0 0 -.296 -88.676 -121.895)"/></g><path fill="url(#E)" d="M291.7-437.6c0 1.84-1.5 3.32-3.32 3.32-1.83 0-3.32-1.48-3.32-3.3 0-1.84 1.5-3.33 3.3-3.33 1.84 0 3.33 1.48 3.33 3.3z" transform="matrix(.304 0 0 -.268 -85.044 -111.323)"/><g><path fill="#c4c5c2" d="M7.53 5.7c0-.64-.6-1.17-1.34-1.17-.75 0-1.35.53-1.35 1.18 0 .66.6 1.2 1.34 1.2.73 0 1.33-.54 1.33-1.2z"/><path fill="url(#F)" d="M291.7-437.6c0 1.84-1.5 3.32-3.32 3.32-1.83 0-3.32-1.48-3.32-3.3 0-1.84 1.5-3.33 3.3-3.33 1.84 0 3.33 1.48 3.33 3.3z" transform="matrix(.405 0 0 -.357 -110.77 -150.743)"/></g><g><path fill="#c4c5c2" d="M9.65 5.06c0-.65-.6-1.18-1.34-1.18-.74 0-1.34.53-1.34 1.18 0 .65.6 1.18 1.35 1.18.75 0 1.35-.53 1.35-1.18z"/><path fill="url(#G)" d="M291.7-437.6c0 1.84-1.5 3.32-3.32 3.32-1.83 0-3.32-1.48-3.32-3.3 0-1.84 1.5-3.33 3.3-3.33 1.84 0 3.33 1.48 3.33 3.3z" transform="matrix(.405 0 0 -.357 -108.651 -151.395)"/></g><path fill="url(#H)" stroke="#fff" stroke-opacity=".502" stroke-width="1.853" stroke-miterlimit="2" d="M2.87 16.67C2.13 17.4 2 19.32 2 20.4c0 1.44 1.2 2.7 2.64 3.4-.2.47-.48 1.1-.48 1.63 0 2.52 2.07 4.45 5.04 4.45.88 0 1.98-.53 2.7-.87.75 2.44 2.34 3.92 4.73 3.92 2.4 0 4.2-1.55 4.92-3.9.73.35 2.1.9 2.97.9 2.9 0 4.76-1.97 4.76-4.5 0-.52-.32-1.26-.5-1.73 1.43-.7 2.65-1.75 2.65-3.3 0-1-.64-1.86-1.32-3.05.67-1.2 1.34-2.23 1.34-3.3 0-1.53-1.2-2.57-2.66-3.27.2-.47.5-1.2.5-1.74 0-2.52-2.3-4.4-5.2-4.4-.88 0-1.8.46-2.52.8-.7-2.35-2.45-3.7-4.84-3.7-2.4 0-4.06 1.3-4.8 3.72-.72-.34-1.68-.8-2.56-.8-2.96 0-5.2 1.86-5.2 4.38 0 .53.3 1.3.5 1.76C3.2 11.5 2 12.63 2 14.06c0 1.06.17 1.88.87 2.6z" transform="matrix(.293 0 0 .293 .796 .117)"/><path fill="#888a85" fill-rule="evenodd" d="M9.8 2.88c0 .78-1.08 1.08-1.08 1.08s.77-.47.77-1.08c0 0 .3 0 .3 0z"/><path fill="url(#I)" fill-rule="evenodd" d="M22.63 30.93c-2.88-.47-3.34-4.62-3.34-4.62s1.27 3.15 3.5 3.5c0 0-.17 1.13-.17 1.13z" transform="matrix(.293 0 0 .293 .796 .117)"/><path fill="url(#J)" fill-rule="evenodd" d="M29.88 24.82c-2.83.72-4.9-2.9-4.9-2.9s2.42 2.36 4.6 1.8c0 0 .3 1.1.3 1.1z" transform="matrix(.293 0 0 .293 .796 .117)"/></g><path fill="none" stroke="#fff" stroke-miterlimit="6" d="M108.02-3.18v12.3h-5.98L92.3 28l-.45-18.87H85.8v-12.3H108z" color="#000" overflow="visible"/><use id="q" width="48" height="48" xlink:href="#K" transform="translate(6.209 1.445)"/><use id="L" width="48" height="48" xlink:href="#q" transform="matrix(1.062 0 0 1.062 5.688 2.858)"/><use id="M" width="48" height="48" xlink:href="#L" transform="matrix(1.068 0 0 1.068 4.27 4.47)"/><use id="N" width="48" height="48" xlink:href="#M" transform="matrix(1.054 0 0 1.054 -1.993 7.694)"/><use id="O" width="48" height="48" xlink:href="#N" transform="matrix(1.077 0 0 1.077 1.633 5.994)"/><use id="P" width="48" height="48" xlink:href="#O" transform="matrix(1.064 0 0 1.064 4.726 2.549)"/><use width="48" height="48" xlink:href="#P" transform="matrix(1.094 0 0 1.094 3.547 .922)"/><path fill="#eeeeec" d="M5.03 2.78c-1.6.9-2 3.16-.56 3.97 9.85 1.4 15.15 3.64 16.14 6.13.88 2.2.4 4.4-.02 7.8-.4 3.38-.1 7.27 2.33 11.32 3.36 5.57 7.84 8.6 17.77 11.4 3.1-.4 4.4-3.52 2.45-5.9-8.1-2.14-11.77-3.14-15.4-7.53-2.04-2.5-1.46-5.6-1.23-8.9.24-3.42.48-7.76-2.32-11.2-2.8-3.42-8.9-5.62-19.15-7.1z" style="text-indent:0;text-align:start;line-height:normal;text-transform:none;block-progression:tb;-inkscape-font-specification:Sans" color="#000" overflow="visible" enable-background="accumulate" font-family="Sans"/><path fill="none" stroke="#000" d="M4.75 4.76C44.97 10.53 2.2 29.4 41 40.3"/></g></svg>