<svg xmlns="http://www.w3.org/2000/svg" width="48" height="48" xmlns:xlink="http://www.w3.org/1999/xlink"><defs><linearGradient id="n"><stop offset="0" stop-color="#74726e"/><stop offset="1" stop-color="#5d5b58" stop-opacity="0"/></linearGradient><linearGradient id="m"><stop offset="0" stop-color="#5d5b58"/><stop offset="1" stop-color="#5d5b58" stop-opacity="0"/></linearGradient><linearGradient id="f"><stop offset="0" stop-color="#888a85"/><stop offset="1" stop-color="#51534f"/></linearGradient><linearGradient><stop offset="0" stop-color="#2e3436" stop-opacity=".619"/><stop offset="1" stop-color="#2e3436" stop-opacity="0"/></linearGradient><linearGradient id="k"><stop offset="0" stop-color="#fff"/><stop offset="1" stop-color="#fff" stop-opacity="0"/></linearGradient><linearGradient id="j"><stop offset="0" stop-color="#fff"/><stop offset="1" stop-color="#fff" stop-opacity="0"/></linearGradient><linearGradient id="i"><stop offset="0" stop-color="#fff"/><stop offset="1" stop-color="#fff" stop-opacity="0"/></linearGradient><linearGradient id="h"><stop offset="0" stop-color="#fff"/><stop offset="1" stop-color="#fff" stop-opacity="0"/></linearGradient><linearGradient id="g"><stop offset="0" stop-color="#fff"/><stop offset="1" stop-color="#fff" stop-opacity="0"/></linearGradient><linearGradient id="l"><stop offset="0" stop-color="#fff"/><stop offset="1" stop-color="#fff" stop-opacity="0"/></linearGradient><linearGradient x1="10.276" x2="14.832" y1="35.035" y2="37.582" xlink:href="#a" gradientUnits="userSpaceOnUse" gradientTransform="matrix(.83 .08 -.08 .83 86.174 1.704)"/><linearGradient id="a"><stop offset="0" stop-color="#2e3436"/><stop offset="1" stop-color="#2e3436" stop-opacity="0"/></linearGradient><linearGradient x1="23.201" x2="22.286" y1="3.505" y2="32.37" xlink:href="#b" gradientUnits="userSpaceOnUse" gradientTransform="matrix(-.834 0 0 .834 120.203 -6.058)"/><linearGradient id="b"><stop offset="0" stop-color="#d3d7cf"/><stop offset="1" stop-color="#fff"/></linearGradient><radialGradient cx="3.299" cy="3.416" r="2.751" xlink:href="#c" gradientUnits="userSpaceOnUse" fx="3.299" fy="3.416"/><linearGradient id="c"><stop offset="0" stop-color="#fff"/><stop offset="1" stop-color="#8e8e8e"/></linearGradient><linearGradient x1="23.201" x2="22.286" y1="3.505" y2="32.37" xlink:href="#b" gradientUnits="userSpaceOnUse" gradientTransform="matrix(-.495 0 0 .495 22.228 .012)"/><linearGradient x1="10.276" x2="14.832" y1="35.035" y2="37.582" xlink:href="#a" gradientUnits="userSpaceOnUse" gradientTransform="matrix(.492 .047 -.047 .493 15.218 -.091)"/><radialGradient cx="3.299" cy="3.416" r="2.751" xlink:href="#c" fx="3.299" fy="3.416" gradientUnits="userSpaceOnUse"/><linearGradient><stop offset="0" stop-color="#fff"/><stop offset="1" stop-color="#8e8e8e"/></linearGradient><radialGradient cx="3.299" cy="3.416" r="2.751" fy="3.416" fx="3.299" gradientUnits="userSpaceOnUse" xlink:href="#c"/><linearGradient x1="10.276" x2="14.832" y1="35.035" y2="37.582" xlink:href="#a" gradientUnits="userSpaceOnUse" gradientTransform="matrix(.501 .048 -.048 .501 26.188 17.5)"/><linearGradient x1="23.201" x2="22.286" y1="3.505" y2="32.37" xlink:href="#b" gradientUnits="userSpaceOnUse" gradientTransform="matrix(.503 0 0 .504 24.972 17.615)"/><radialGradient cx="3.299" cy="3.416" r="2.751" xlink:href="#c" gradientUnits="userSpaceOnUse" fx="3.299" fy="3.416"/><linearGradient x1="10.276" x2="14.832" y1="35.035" y2="37.582" xlink:href="#a" gradientUnits="userSpaceOnUse" gradientTransform="matrix(.501 .048 -.048 .501 26.129 -.295)"/><linearGradient x1="23.201" x2="22.286" y1="3.505" y2="32.37" xlink:href="#b" gradientUnits="userSpaceOnUse" gradientTransform="matrix(.503 0 0 .504 24.913 -.18)"/><radialGradient cx="3.299" cy="3.416" r="2.751" xlink:href="#c" gradientUnits="userSpaceOnUse" fx="3.299" fy="3.416"/><linearGradient x1="10.276" x2="14.832" y1="35.035" y2="37.582" xlink:href="#a" gradientUnits="userSpaceOnUse" gradientTransform="matrix(.501 .048 -.048 .501 14.992 11.785)"/><linearGradient x1="23.201" x2="22.286" y1="3.505" y2="32.37" xlink:href="#b" gradientUnits="userSpaceOnUse" gradientTransform="matrix(-.503 0 0 -.504 22.375 48.281)"/><radialGradient cx="3.299" cy="3.416" r="2.751" xlink:href="#c" gradientUnits="userSpaceOnUse" fx="3.299" fy="3.416"/><radialGradient cx="3.299" cy="3.416" r="2.751" xlink:href="#c" gradientUnits="userSpaceOnUse" fx="3.299" fy="3.416"/><linearGradient x1="-95.827" x2="-81.455" y1="297.608" y2="297.608" xlink:href="#d" gradientUnits="userSpaceOnUse" gradientTransform="matrix(.719 .784 .996 -.914 -199.349 377.414)"/><linearGradient id="d" x1="-95.827" x2="-81.455" y1="297.608" y2="297.608" gradientTransform="matrix(0 -1.064 -1.352 0 410.498 -83.416)" gradientUnits="userSpaceOnUse"><stop offset="0" stop-color="#e96712" stop-opacity="0"/><stop offset=".622" stop-color="#D52E0C"/><stop offset="1" stop-color="#CB1009"/></linearGradient><linearGradient x1="8.071" x2="8.071" y1="3.993" y2="15.429" xlink:href="#e" gradientUnits="userSpaceOnUse" gradientTransform="matrix(-.996 .914 -.904 -.985 50.213 38.027)"/><linearGradient id="e"><stop offset="0" stop-color="#590b08"/><stop offset="1" stop-opacity="0"/></linearGradient><linearGradient id="aI" x1="20.73" x2="23.296" y1="29.815" y2="45.056" xlink:href="#f" gradientUnits="userSpaceOnUse" gradientTransform="matrix(.743 0 0 .743 -1.065 .298)"/><linearGradient id="aJ" x1="287.517" x2="289.676" y1="-439.753" y2="-436.322" xlink:href="#g" gradientUnits="userSpaceOnUse"/><linearGradient id="aK" x1="286.512" x2="289.854" y1="-441.291" y2="-436.145" xlink:href="#h" gradientUnits="userSpaceOnUse"/><linearGradient id="aL" x1="285.941" x2="289.391" y1="-439.939" y2="-436.443" xlink:href="#i" gradientUnits="userSpaceOnUse"/><linearGradient id="aM" x1="275.942" x2="279.975" y1="-437.105" y2="-431.918" xlink:href="#j" gradientUnits="userSpaceOnUse"/><linearGradient id="aN" x1="286.666" x2="289.766" y1="-439.484" y2="-436.707" xlink:href="#k" gradientUnits="userSpaceOnUse"/><linearGradient id="aO" x1="284.802" x2="288.9" y1="-441.233" y2="-436.831" xlink:href="#i" gradientUnits="userSpaceOnUse"/><linearGradient id="aP" x1="286.246" x2="290.121" y1="-434.732" y2="-439.69" xlink:href="#g" gradientUnits="userSpaceOnUse"/><linearGradient id="aQ" x1="287.147" x2="289.473" y1="-434.809" y2="-437.594" xlink:href="#h" gradientUnits="userSpaceOnUse"/><linearGradient id="aR" x1="286.014" x2="288.375" y1="-435.546" y2="-438.971" xlink:href="#i" gradientUnits="userSpaceOnUse"/><linearGradient id="aS" x1="276.614" x2="283.463" y1="-431" y2="-438.722" xlink:href="#l" gradientUnits="userSpaceOnUse"/><linearGradient id="aT" x1="286.295" x2="289.395" y1="-435.628" y2="-438.19" xlink:href="#k" gradientUnits="userSpaceOnUse"/><linearGradient id="aU" x1="286.415" x2="290.078" y1="-435.784" y2="-439.289" xlink:href="#i" gradientUnits="userSpaceOnUse"/><linearGradient id="aV" x1="286.415" x2="288.375" y1="-435.784" y2="-437.888" xlink:href="#i" gradientUnits="userSpaceOnUse"/><linearGradient id="aW" x1="271.022" x2="285.029" y1="-441.052" y2="-431.97" xlink:href="#l" gradientUnits="userSpaceOnUse" gradientTransform="matrix(1.09 0 0 .966 -289.155 431.622)"/><linearGradient id="aX" x1="29.124" x2="27.356" y1="38.897" y2="34.879" xlink:href="#m" gradientUnits="userSpaceOnUse" gradientTransform="matrix(.751 0 0 .751 -1.265 .109)"/><linearGradient id="aY" x1="29.124" x2="27.356" y1="38.897" y2="34.879" xlink:href="#n" gradientUnits="userSpaceOnUse" gradientTransform="matrix(.689 -.3 .3 .689 -4.33 6.099)"/><radialGradient cx="3.299" cy="3.416" r="2.751" xlink:href="#c" gradientUnits="userSpaceOnUse" fx="3.299" fy="3.416"/><linearGradient id="aZ" x1="20.73" x2="23.296" y1="29.815" y2="45.056" xlink:href="#f" gradientUnits="userSpaceOnUse" gradientTransform="matrix(.743 0 0 .743 -1.065 .298)"/><linearGradient id="ba" x1="287.517" x2="289.676" y1="-439.753" y2="-436.322" xlink:href="#g" gradientUnits="userSpaceOnUse"/><linearGradient id="bb" x1="286.512" x2="289.854" y1="-441.291" y2="-436.145" xlink:href="#h" gradientUnits="userSpaceOnUse"/><linearGradient id="bc" x1="285.941" x2="289.391" y1="-439.939" y2="-436.443" xlink:href="#i" gradientUnits="userSpaceOnUse"/><linearGradient id="bd" x1="275.942" x2="279.975" y1="-437.105" y2="-431.918" xlink:href="#j" gradientUnits="userSpaceOnUse"/><linearGradient id="be" x1="286.666" x2="289.766" y1="-439.484" y2="-436.707" xlink:href="#k" gradientUnits="userSpaceOnUse"/><linearGradient id="bf" x1="284.802" x2="288.9" y1="-441.233" y2="-436.831" xlink:href="#i" gradientUnits="userSpaceOnUse"/><linearGradient id="bg" x1="286.246" x2="290.121" y1="-434.732" y2="-439.69" xlink:href="#g" gradientUnits="userSpaceOnUse"/><linearGradient id="bh" x1="287.147" x2="289.473" y1="-434.809" y2="-437.594" xlink:href="#h" gradientUnits="userSpaceOnUse"/><linearGradient id="bi" x1="286.014" x2="288.375" y1="-435.546" y2="-438.971" xlink:href="#i" gradientUnits="userSpaceOnUse"/><linearGradient id="bj" x1="276.614" x2="283.463" y1="-431" y2="-438.722" xlink:href="#l" gradientUnits="userSpaceOnUse"/><linearGradient id="bk" x1="286.295" x2="289.395" y1="-435.628" y2="-438.19" xlink:href="#k" gradientUnits="userSpaceOnUse"/><linearGradient id="bl" x1="286.415" x2="290.078" y1="-435.784" y2="-439.289" xlink:href="#i" gradientUnits="userSpaceOnUse"/><linearGradient id="bm" x1="286.415" x2="288.375" y1="-435.784" y2="-437.888" xlink:href="#i" gradientUnits="userSpaceOnUse"/><linearGradient id="bn" x1="271.022" x2="285.029" y1="-441.052" y2="-431.97" xlink:href="#l" gradientUnits="userSpaceOnUse" gradientTransform="matrix(1.09 0 0 .966 -289.155 431.622)"/><linearGradient id="bo" x1="29.124" x2="27.356" y1="38.897" y2="34.879" xlink:href="#m" gradientUnits="userSpaceOnUse" gradientTransform="matrix(.751 0 0 .751 -1.265 .109)"/><linearGradient id="bp" x1="29.124" x2="27.356" y1="38.897" y2="34.879" xlink:href="#n" gradientUnits="userSpaceOnUse" gradientTransform="matrix(.689 -.3 .3 .689 -4.33 6.099)"/><radialGradient cx="3.299" cy="3.416" r="2.751" xlink:href="#c" gradientUnits="userSpaceOnUse" fx="3.299" fy="3.416"/><linearGradient id="ar" x1="20.73" x2="23.296" y1="29.815" y2="45.056" xlink:href="#f" gradientUnits="userSpaceOnUse" gradientTransform="matrix(.743 0 0 .743 -1.065 .298)"/><linearGradient id="as" x1="287.517" x2="289.676" y1="-439.753" y2="-436.322" xlink:href="#g" gradientUnits="userSpaceOnUse"/><linearGradient id="at" x1="286.512" x2="289.854" y1="-441.291" y2="-436.145" xlink:href="#h" gradientUnits="userSpaceOnUse"/><linearGradient id="au" x1="285.941" x2="289.391" y1="-439.939" y2="-436.443" xlink:href="#i" gradientUnits="userSpaceOnUse"/><linearGradient id="av" x1="275.942" x2="279.975" y1="-437.105" y2="-431.918" xlink:href="#j" gradientUnits="userSpaceOnUse"/><linearGradient id="aw" x1="286.666" x2="289.766" y1="-439.484" y2="-436.707" xlink:href="#k" gradientUnits="userSpaceOnUse"/><linearGradient id="ax" x1="284.802" x2="288.9" y1="-441.233" y2="-436.831" xlink:href="#i" gradientUnits="userSpaceOnUse"/><linearGradient id="ay" x1="286.246" x2="290.121" y1="-434.732" y2="-439.69" xlink:href="#g" gradientUnits="userSpaceOnUse"/><linearGradient id="az" x1="287.147" x2="289.473" y1="-434.809" y2="-437.594" xlink:href="#h" gradientUnits="userSpaceOnUse"/><linearGradient id="aA" x1="286.014" x2="288.375" y1="-435.546" y2="-438.971" xlink:href="#i" gradientUnits="userSpaceOnUse"/><linearGradient id="aB" x1="276.614" x2="283.463" y1="-431" y2="-438.722" xlink:href="#l" gradientUnits="userSpaceOnUse"/><linearGradient id="aC" x1="286.295" x2="289.395" y1="-435.628" y2="-438.19" xlink:href="#k" gradientUnits="userSpaceOnUse"/><linearGradient id="aD" x1="286.415" x2="290.078" y1="-435.784" y2="-439.289" xlink:href="#i" gradientUnits="userSpaceOnUse"/><linearGradient id="aE" x1="286.415" x2="288.375" y1="-435.784" y2="-437.888" xlink:href="#i" gradientUnits="userSpaceOnUse"/><linearGradient id="aF" x1="271.022" x2="285.029" y1="-441.052" y2="-431.97" xlink:href="#l" gradientUnits="userSpaceOnUse" gradientTransform="matrix(1.09 0 0 .966 -289.155 431.622)"/><linearGradient id="aG" x1="29.124" x2="27.356" y1="38.897" y2="34.879" xlink:href="#m" gradientUnits="userSpaceOnUse" gradientTransform="matrix(.751 0 0 .751 -1.265 .109)"/><linearGradient id="aH" x1="29.124" x2="27.356" y1="38.897" y2="34.879" xlink:href="#n" gradientUnits="userSpaceOnUse" gradientTransform="matrix(.689 -.3 .3 .689 -4.33 6.099)"/><radialGradient cx="3.299" cy="3.416" r="2.751" xlink:href="#c" gradientUnits="userSpaceOnUse" fx="3.299" fy="3.416"/><linearGradient id="aa" x1="20.73" x2="23.296" y1="29.815" y2="45.056" xlink:href="#f" gradientUnits="userSpaceOnUse" gradientTransform="matrix(.743 0 0 .743 -1.065 .298)"/><linearGradient id="ab" x1="287.517" x2="289.676" y1="-439.753" y2="-436.322" xlink:href="#g" gradientUnits="userSpaceOnUse"/><linearGradient id="ac" x1="286.512" x2="289.854" y1="-441.291" y2="-436.145" xlink:href="#h" gradientUnits="userSpaceOnUse"/><linearGradient id="ad" x1="285.941" x2="289.391" y1="-439.939" y2="-436.443" xlink:href="#i" gradientUnits="userSpaceOnUse"/><linearGradient id="ae" x1="275.942" x2="279.975" y1="-437.105" y2="-431.918" xlink:href="#j" gradientUnits="userSpaceOnUse"/><linearGradient id="af" x1="286.666" x2="289.766" y1="-439.484" y2="-436.707" xlink:href="#k" gradientUnits="userSpaceOnUse"/><linearGradient id="ag" x1="284.802" x2="288.9" y1="-441.233" y2="-436.831" xlink:href="#i" gradientUnits="userSpaceOnUse"/><linearGradient id="ah" x1="286.246" x2="290.121" y1="-434.732" y2="-439.69" xlink:href="#g" gradientUnits="userSpaceOnUse"/><linearGradient id="ai" x1="287.147" x2="289.473" y1="-434.809" y2="-437.594" xlink:href="#h" gradientUnits="userSpaceOnUse"/><linearGradient id="aj" x1="286.014" x2="288.375" y1="-435.546" y2="-438.971" xlink:href="#i" gradientUnits="userSpaceOnUse"/><linearGradient id="ak" x1="276.614" x2="283.463" y1="-431" y2="-438.722" xlink:href="#l" gradientUnits="userSpaceOnUse"/><linearGradient id="al" x1="286.295" x2="289.395" y1="-435.628" y2="-438.19" xlink:href="#k" gradientUnits="userSpaceOnUse"/><linearGradient id="am" x1="286.415" x2="290.078" y1="-435.784" y2="-439.289" xlink:href="#i" gradientUnits="userSpaceOnUse"/><linearGradient id="an" x1="286.415" x2="288.375" y1="-435.784" y2="-437.888" xlink:href="#i" gradientUnits="userSpaceOnUse"/><linearGradient id="ao" x1="271.022" x2="285.029" y1="-441.052" y2="-431.97" xlink:href="#l" gradientUnits="userSpaceOnUse" gradientTransform="matrix(1.09 0 0 .966 -289.155 431.622)"/><linearGradient id="ap" x1="29.124" x2="27.356" y1="38.897" y2="34.879" xlink:href="#m" gradientUnits="userSpaceOnUse" gradientTransform="matrix(.751 0 0 .751 -1.265 .109)"/><linearGradient id="aq" x1="29.124" x2="27.356" y1="38.897" y2="34.879" xlink:href="#n" gradientUnits="userSpaceOnUse" gradientTransform="matrix(.689 -.3 .3 .689 -4.33 6.099)"/><radialGradient cx="3.299" cy="3.416" r="2.751" xlink:href="#c" gradientUnits="userSpaceOnUse" fx="3.299" fy="3.416"/><linearGradient id="J" x1="20.73" x2="23.296" y1="29.815" y2="45.056" xlink:href="#f" gradientUnits="userSpaceOnUse" gradientTransform="matrix(.743 0 0 .743 -1.065 .298)"/><linearGradient id="K" x1="287.517" x2="289.676" y1="-439.753" y2="-436.322" xlink:href="#g" gradientUnits="userSpaceOnUse"/><linearGradient id="L" x1="286.512" x2="289.854" y1="-441.291" y2="-436.145" xlink:href="#h" gradientUnits="userSpaceOnUse"/><linearGradient id="M" x1="285.941" x2="289.391" y1="-439.939" y2="-436.443" xlink:href="#i" gradientUnits="userSpaceOnUse"/><linearGradient id="N" x1="275.942" x2="279.975" y1="-437.105" y2="-431.918" xlink:href="#j" gradientUnits="userSpaceOnUse"/><linearGradient id="O" x1="286.666" x2="289.766" y1="-439.484" y2="-436.707" xlink:href="#k" gradientUnits="userSpaceOnUse"/><linearGradient id="P" x1="284.802" x2="288.9" y1="-441.233" y2="-436.831" xlink:href="#i" gradientUnits="userSpaceOnUse"/><linearGradient id="Q" x1="286.246" x2="290.121" y1="-434.732" y2="-439.69" xlink:href="#g" gradientUnits="userSpaceOnUse"/><linearGradient id="R" x1="287.147" x2="289.473" y1="-434.809" y2="-437.594" xlink:href="#h" gradientUnits="userSpaceOnUse"/><linearGradient id="S" x1="286.014" x2="288.375" y1="-435.546" y2="-438.971" xlink:href="#i" gradientUnits="userSpaceOnUse"/><linearGradient id="T" x1="276.614" x2="283.463" y1="-431" y2="-438.722" xlink:href="#l" gradientUnits="userSpaceOnUse"/><linearGradient id="U" x1="286.295" x2="289.395" y1="-435.628" y2="-438.19" xlink:href="#k" gradientUnits="userSpaceOnUse"/><linearGradient id="V" x1="286.415" x2="290.078" y1="-435.784" y2="-439.289" xlink:href="#i" gradientUnits="userSpaceOnUse"/><linearGradient id="W" x1="286.415" x2="288.375" y1="-435.784" y2="-437.888" xlink:href="#i" gradientUnits="userSpaceOnUse"/><linearGradient id="X" x1="271.022" x2="285.029" y1="-441.052" y2="-431.97" xlink:href="#l" gradientUnits="userSpaceOnUse" gradientTransform="matrix(1.09 0 0 .966 -289.155 431.622)"/><linearGradient id="Y" x1="29.124" x2="27.356" y1="38.897" y2="34.879" xlink:href="#m" gradientUnits="userSpaceOnUse" gradientTransform="matrix(.751 0 0 .751 -1.265 .109)"/><linearGradient id="Z" x1="29.124" x2="27.356" y1="38.897" y2="34.879" xlink:href="#n" gradientUnits="userSpaceOnUse" gradientTransform="matrix(.689 -.3 .3 .689 -4.33 6.099)"/><radialGradient cx="3.299" cy="3.416" r="2.751" xlink:href="#c" gradientUnits="userSpaceOnUse" fx="3.299" fy="3.416"/><linearGradient id="s" x1="20.73" x2="23.296" y1="29.815" y2="45.056" xlink:href="#f" gradientUnits="userSpaceOnUse" gradientTransform="matrix(.743 0 0 .743 -1.065 .298)"/><linearGradient id="t" x1="287.517" x2="289.676" y1="-439.753" y2="-436.322" xlink:href="#g" gradientUnits="userSpaceOnUse"/><linearGradient id="u" x1="286.512" x2="289.854" y1="-441.291" y2="-436.145" xlink:href="#h" gradientUnits="userSpaceOnUse"/><linearGradient id="v" x1="285.941" x2="289.391" y1="-439.939" y2="-436.443" xlink:href="#i" gradientUnits="userSpaceOnUse"/><linearGradient id="w" x1="275.942" x2="279.975" y1="-437.105" y2="-431.918" xlink:href="#j" gradientUnits="userSpaceOnUse"/><linearGradient id="x" x1="286.666" x2="289.766" y1="-439.484" y2="-436.707" xlink:href="#k" gradientUnits="userSpaceOnUse"/><linearGradient id="y" x1="284.802" x2="288.9" y1="-441.233" y2="-436.831" xlink:href="#i" gradientUnits="userSpaceOnUse"/><linearGradient id="z" x1="286.246" x2="290.121" y1="-434.732" y2="-439.69" xlink:href="#g" gradientUnits="userSpaceOnUse"/><linearGradient id="A" x1="287.147" x2="289.473" y1="-434.809" y2="-437.594" xlink:href="#h" gradientUnits="userSpaceOnUse"/><linearGradient id="B" x1="286.014" x2="288.375" y1="-435.546" y2="-438.971" xlink:href="#i" gradientUnits="userSpaceOnUse"/><linearGradient id="C" x1="276.614" x2="283.463" y1="-431" y2="-438.722" xlink:href="#l" gradientUnits="userSpaceOnUse"/><linearGradient id="D" x1="286.295" x2="289.395" y1="-435.628" y2="-438.19" xlink:href="#k" gradientUnits="userSpaceOnUse"/><linearGradient id="E" x1="286.415" x2="290.078" y1="-435.784" y2="-439.289" xlink:href="#i" gradientUnits="userSpaceOnUse"/><linearGradient id="F" x1="286.415" x2="288.375" y1="-435.784" y2="-437.888" xlink:href="#i" gradientUnits="userSpaceOnUse"/><linearGradient id="G" x1="271.022" x2="285.029" y1="-441.052" y2="-431.97" xlink:href="#l" gradientUnits="userSpaceOnUse" gradientTransform="matrix(1.09 0 0 .966 -289.155 431.622)"/><linearGradient id="H" x1="29.124" x2="27.356" y1="38.897" y2="34.879" xlink:href="#m" gradientUnits="userSpaceOnUse" gradientTransform="matrix(.751 0 0 .751 -1.265 .109)"/><linearGradient id="I" x1="29.124" x2="27.356" y1="38.897" y2="34.879" xlink:href="#n" gradientUnits="userSpaceOnUse" gradientTransform="matrix(.689 -.3 .3 .689 -4.33 6.099)"/><radialGradient cx="3.299" cy="3.416" r="2.751" xlink:href="#c" gradientUnits="userSpaceOnUse" fx="3.299" fy="3.416"/><radialGradient cx="34.328" cy="459.265" r="2.869" xlink:href="#o" gradientUnits="userSpaceOnUse" gradientTransform="matrix(-1 0 0 1 55.359 0)" fx="34.328" fy="459.265"/><radialGradient id="o" cx="34.328" cy="459.265" r="2.869" gradientUnits="userSpaceOnUse" gradientTransform="matrix(-1 0 0 1 55.359 0)" fy="459.265" fx="34.328"><stop offset="0" stop-color="#fff"/><stop offset=".004" stop-color="#FDFDFE"/><stop offset=".107" stop-color="#C7D5E5"/><stop offset=".212" stop-color="#98B3CF"/><stop offset=".315" stop-color="#7297BD"/><stop offset=".417" stop-color="#5481B0"/><stop offset=".517" stop-color="#3F72A6"/><stop offset=".615" stop-color="#3268A0"/><stop offset=".708" stop-color="#2E659E"/><stop offset="1" stop-color="#193766"/></radialGradient><radialGradient cx="20.523" cy="458.587" r="4.066" xlink:href="#p" gradientUnits="userSpaceOnUse" fx="20.523" fy="458.587"/><radialGradient id="p" cx="20.523" cy="458.587" r="4.066" gradientUnits="userSpaceOnUse" fy="458.587" fx="20.523"><stop offset="0" stop-color="#fff"/><stop offset=".685" stop-color="#2E659E"/><stop offset="1" stop-color="#1D3E63"/></radialGradient><radialGradient cx="34.328" cy="459.265" r="2.869" xlink:href="#o" gradientUnits="userSpaceOnUse" gradientTransform="matrix(-1 0 0 1 55.359 0)" fx="34.328" fy="459.265"/><radialGradient cx="34.328" cy="459.265" r="2.869" gradientUnits="userSpaceOnUse" gradientTransform="matrix(-1 0 0 1 55.359 0)" fy="459.265" fx="34.328"><stop offset="0" stop-color="#fff"/><stop offset=".004" stop-color="#FDFDFE"/><stop offset=".107" stop-color="#C7D5E5"/><stop offset=".212" stop-color="#98B3CF"/><stop offset=".315" stop-color="#7297BD"/><stop offset=".417" stop-color="#5481B0"/><stop offset=".517" stop-color="#3F72A6"/><stop offset=".615" stop-color="#3268A0"/><stop offset=".708" stop-color="#2E659E"/><stop offset="1" stop-color="#193766"/></radialGradient><radialGradient cx="20.523" cy="458.587" r="4.066" xlink:href="#p" gradientUnits="userSpaceOnUse" fx="20.523" fy="458.587"/><radialGradient cx="20.523" cy="458.587" r="4.066" gradientUnits="userSpaceOnUse" fy="458.587" fx="20.523"><stop offset="0" stop-color="#fff"/><stop offset=".685" stop-color="#2E659E"/><stop offset="1" stop-color="#1D3E63"/></radialGradient><radialGradient cx="34.328" cy="459.265" r="2.869" xlink:href="#o" gradientUnits="userSpaceOnUse" gradientTransform="matrix(-1 0 0 1 55.359 0)" fx="34.328" fy="459.265"/><radialGradient cx="34.328" cy="459.265" r="2.869" gradientUnits="userSpaceOnUse" gradientTransform="matrix(-1 0 0 1 55.359 0)" fy="459.265" fx="34.328"><stop offset="0" stop-color="#fff"/><stop offset=".004" stop-color="#FDFDFE"/><stop offset=".107" stop-color="#C7D5E5"/><stop offset=".212" stop-color="#98B3CF"/><stop offset=".315" stop-color="#7297BD"/><stop offset=".417" stop-color="#5481B0"/><stop offset=".517" stop-color="#3F72A6"/><stop offset=".615" stop-color="#3268A0"/><stop offset=".708" stop-color="#2E659E"/><stop offset="1" stop-color="#193766"/></radialGradient><radialGradient cx="20.523" cy="458.587" r="4.066" xlink:href="#p" gradientUnits="userSpaceOnUse" fx="20.523" fy="458.587"/><radialGradient cx="20.523" cy="458.587" r="4.066" gradientUnits="userSpaceOnUse" fy="458.587" fx="20.523"><stop offset="0" stop-color="#fff"/><stop offset=".685" stop-color="#2E659E"/><stop offset="1" stop-color="#1D3E63"/></radialGradient><radialGradient cx="34.328" cy="459.265" r="2.869" xlink:href="#o" gradientUnits="userSpaceOnUse" gradientTransform="matrix(-1 0 0 1 55.359 0)" fx="34.328" fy="459.265"/><radialGradient cx="34.328" cy="459.265" r="2.869" gradientUnits="userSpaceOnUse" gradientTransform="matrix(-1 0 0 1 55.359 0)" fy="459.265" fx="34.328"><stop offset="0" stop-color="#fff"/><stop offset=".004" stop-color="#FDFDFE"/><stop offset=".107" stop-color="#C7D5E5"/><stop offset=".212" stop-color="#98B3CF"/><stop offset=".315" stop-color="#7297BD"/><stop offset=".417" stop-color="#5481B0"/><stop offset=".517" stop-color="#3F72A6"/><stop offset=".615" stop-color="#3268A0"/><stop offset=".708" stop-color="#2E659E"/><stop offset="1" stop-color="#193766"/></radialGradient><radialGradient cx="20.523" cy="458.587" r="4.066" xlink:href="#p" gradientUnits="userSpaceOnUse" fx="20.523" fy="458.587"/><radialGradient cx="20.523" cy="458.587" r="4.066" gradientUnits="userSpaceOnUse" fy="458.587" fx="20.523"><stop offset="0" stop-color="#fff"/><stop offset=".685" stop-color="#2E659E"/><stop offset="1" stop-color="#1D3E63"/></radialGradient><radialGradient cx="20.523" cy="458.587" r="4.066" xlink:href="#p" gradientUnits="userSpaceOnUse" fx="20.523" fy="458.587"/><radialGradient cx="20.523" cy="458.587" r="4.066" gradientUnits="userSpaceOnUse" fy="458.587" fx="20.523"><stop offset="0" stop-color="#fff"/><stop offset=".685" stop-color="#2E659E"/><stop offset="1" stop-color="#1D3E63"/></radialGradient><radialGradient cx="34.328" cy="459.265" r="2.869" xlink:href="#o" gradientUnits="userSpaceOnUse" gradientTransform="matrix(-1 0 0 1 55.359 0)" fx="34.328" fy="459.265"/><radialGradient cx="34.328" cy="459.265" r="2.869" gradientUnits="userSpaceOnUse" gradientTransform="matrix(-1 0 0 1 55.359 0)" fy="459.265" fx="34.328"><stop offset="0" stop-color="#fff"/><stop offset=".004" stop-color="#FDFDFE"/><stop offset=".107" stop-color="#C7D5E5"/><stop offset=".212" stop-color="#98B3CF"/><stop offset=".315" stop-color="#7297BD"/><stop offset=".417" stop-color="#5481B0"/><stop offset=".517" stop-color="#3F72A6"/><stop offset=".615" stop-color="#3268A0"/><stop offset=".708" stop-color="#2E659E"/><stop offset="1" stop-color="#193766"/></radialGradient><radialGradient cx="20.523" cy="458.587" r="4.066" xlink:href="#p" gradientUnits="userSpaceOnUse" fx="20.523" fy="458.587"/><radialGradient cx="20.523" cy="458.587" r="4.066" gradientUnits="userSpaceOnUse" fy="458.587" fx="20.523"><stop offset="0" stop-color="#fff"/><stop offset=".685" stop-color="#2E659E"/><stop offset="1" stop-color="#1D3E63"/></radialGradient><radialGradient cx="34.328" cy="459.265" r="2.869" xlink:href="#o" gradientUnits="userSpaceOnUse" gradientTransform="matrix(-1 0 0 1 55.359 0)" fx="34.328" fy="459.265"/><radialGradient cx="34.328" cy="459.265" r="2.869" gradientUnits="userSpaceOnUse" gradientTransform="matrix(-1 0 0 1 55.359 0)" fy="459.265" fx="34.328"><stop offset="0" stop-color="#fff"/><stop offset=".004" stop-color="#FDFDFE"/><stop offset=".107" stop-color="#C7D5E5"/><stop offset=".212" stop-color="#98B3CF"/><stop offset=".315" stop-color="#7297BD"/><stop offset=".417" stop-color="#5481B0"/><stop offset=".517" stop-color="#3F72A6"/><stop offset=".615" stop-color="#3268A0"/><stop offset=".708" stop-color="#2E659E"/><stop offset="1" stop-color="#193766"/></radialGradient><linearGradient id="bR" x1="9.496" x2="4.889" y1="470.609" y2="468.235" xlink:href="#q" gradientUnits="userSpaceOnUse"/><linearGradient id="q" x1="21.592" x2="16.606" y1="460.478" y2="449.398" gradientUnits="userSpaceOnUse"><stop offset="0" stop-color="#88a9c3"/><stop offset="1" stop-color="#fff" stop-opacity="0"/></linearGradient><linearGradient x1="9.496" x2="4.889" y1="470.609" y2="468.235" xlink:href="#q" gradientUnits="userSpaceOnUse"/><linearGradient x1="21.592" x2="16.606" y1="460.478" y2="449.398" gradientUnits="userSpaceOnUse"><stop offset="0" stop-color="#88a9c3"/><stop offset="1" stop-color="#fff" stop-opacity="0"/></linearGradient><linearGradient x1="6.328" x2="-1.866" y1="19.519" y2="16.009" gradientTransform="translate(-53.18 -7.641)" xlink:href="#r" gradientUnits="userSpaceOnUse"/><linearGradient id="r" x1="21.166" x2="16.757" y1="459.607" y2="449.81" gradientUnits="userSpaceOnUse" gradientTransform="translate(-3.513 -450.695)"><stop offset="0" stop-color="#6F87A0"/><stop offset="1" stop-color="#fff" stop-opacity="0"/></linearGradient><linearGradient x1="20.457" x2="17.948" y1="457.66" y2="453.32" xlink:href="#q" gradientUnits="userSpaceOnUse" gradientTransform="translate(-3.513 -450.695)"/><linearGradient x1="21.592" x2="16.606" y1="460.478" y2="449.398" gradientUnits="userSpaceOnUse"><stop offset="0" stop-color="#88a9c3"/><stop offset="1" stop-color="#fff" stop-opacity="0"/></linearGradient><linearGradient x1="21.166" x2="16.757" y1="459.607" y2="449.81" gradientUnits="userSpaceOnUse" gradientTransform="translate(-3.513 -450.695)"><stop offset="0" stop-color="#6F87A0"/><stop offset="1" stop-color="#fff" stop-opacity="0"/></linearGradient><linearGradient x1="44.392" x2="49.759" y1="911.817" y2="906.347" xlink:href="#r" gradientUnits="userSpaceOnUse" gradientTransform="translate(-60.207 -909.03)"/><linearGradient x1="21.166" x2="16.757" y1="459.607" y2="449.81" gradientUnits="userSpaceOnUse" gradientTransform="translate(-3.513 -450.695)"><stop offset="0" stop-color="#6F87A0"/><stop offset="1" stop-color="#fff" stop-opacity="0"/></linearGradient><linearGradient x1="38.465" x2="44.536" y1="9.451" y2="3.154" gradientTransform="translate(-53.18 -7.641)" xlink:href="#r" gradientUnits="userSpaceOnUse"/><linearGradient x1="21.166" x2="16.757" y1="459.607" y2="449.81" gradientUnits="userSpaceOnUse" gradientTransform="translate(-3.513 -450.695)"><stop offset="0" stop-color="#6F87A0"/><stop offset="1" stop-color="#fff" stop-opacity="0"/></linearGradient><linearGradient x1="20.457" x2="17.948" y1="457.66" y2="453.32" xlink:href="#q" gradientUnits="userSpaceOnUse" gradientTransform="translate(-3.513 -450.695)"/><linearGradient x1="21.592" x2="16.606" y1="460.478" y2="449.398" gradientUnits="userSpaceOnUse"><stop offset="0" stop-color="#88a9c3"/><stop offset="1" stop-color="#fff" stop-opacity="0"/></linearGradient><linearGradient x1="46.456" x2="53.785" y1="930.387" y2="931.119" xlink:href="#r" gradientUnits="userSpaceOnUse" gradientTransform="translate(-3.513 -450.695)"/><linearGradient x1="21.166" x2="16.757" y1="459.607" y2="449.81" gradientUnits="userSpaceOnUse" gradientTransform="translate(-3.513 -450.695)"><stop offset="0" stop-color="#6F87A0"/><stop offset="1" stop-color="#fff" stop-opacity="0"/></linearGradient><linearGradient x1="39.949" x2="51.093" y1="29.046" y2="29.046" gradientTransform="translate(-53.18 -7.641)" xlink:href="#r" gradientUnits="userSpaceOnUse"/><linearGradient x1="21.166" x2="16.757" y1="459.607" y2="449.81" gradientUnits="userSpaceOnUse" gradientTransform="translate(-3.513 -450.695)"><stop offset="0" stop-color="#6F87A0"/><stop offset="1" stop-color="#fff" stop-opacity="0"/></linearGradient><linearGradient id="bF" x1="31.285" x2="32.427" y1="492.087" y2="496.629" xlink:href="#q" gradientUnits="userSpaceOnUse"/><linearGradient x1="21.592" x2="16.606" y1="460.478" y2="449.398" gradientUnits="userSpaceOnUse"><stop offset="0" stop-color="#88a9c3"/><stop offset="1" stop-color="#fff" stop-opacity="0"/></linearGradient><linearGradient x1="31.285" x2="32.427" y1="492.087" y2="496.629" xlink:href="#q" gradientUnits="userSpaceOnUse"/><linearGradient x1="21.592" x2="16.606" y1="460.478" y2="449.398" gradientUnits="userSpaceOnUse"><stop offset="0" stop-color="#88a9c3"/><stop offset="1" stop-color="#fff" stop-opacity="0"/></linearGradient><linearGradient x1="27.718" x2="29.978" y1="42.201" y2="49.53" gradientTransform="translate(-53.18 -7.641)" xlink:href="#r" gradientUnits="userSpaceOnUse"/><linearGradient x1="21.166" x2="16.757" y1="459.607" y2="449.81" gradientUnits="userSpaceOnUse" gradientTransform="translate(-3.513 -450.695)"><stop offset="0" stop-color="#6F87A0"/><stop offset="1" stop-color="#fff" stop-opacity="0"/></linearGradient><linearGradient id="bL" x1="14.077" x2="11.179" y1="489.75" y2="495.436" xlink:href="#q" gradientUnits="userSpaceOnUse"/><linearGradient x1="21.592" x2="16.606" y1="460.478" y2="449.398" gradientUnits="userSpaceOnUse"><stop offset="0" stop-color="#88a9c3"/><stop offset="1" stop-color="#fff" stop-opacity="0"/></linearGradient><linearGradient x1="14.077" x2="11.179" y1="489.75" y2="495.436" xlink:href="#q" gradientUnits="userSpaceOnUse"/><linearGradient x1="21.592" x2="16.606" y1="460.478" y2="449.398" gradientUnits="userSpaceOnUse"><stop offset="0" stop-color="#88a9c3"/><stop offset="1" stop-color="#fff" stop-opacity="0"/></linearGradient><linearGradient x1="10.197" x2="6.095" y1="38.688" y2="46.12" xlink:href="#r" gradientUnits="userSpaceOnUse"/><linearGradient x1="21.166" x2="16.757" y1="459.607" y2="449.81" gradientUnits="userSpaceOnUse" gradientTransform="translate(-3.513 -450.695)"><stop offset="0" stop-color="#6F87A0"/><stop offset="1" stop-color="#fff" stop-opacity="0"/></linearGradient><linearGradient x1="10.197" x2="6.095" y1="38.688" y2="46.12" gradientTransform="translate(-53.18 -7.641)" gradientUnits="userSpaceOnUse" xlink:href="#r"/><linearGradient x1="14.077" x2="11.179" y1="489.75" y2="495.436" gradientUnits="userSpaceOnUse" xlink:href="#q"/><linearGradient x1="31.285" x2="32.427" y1="492.087" y2="496.629" gradientUnits="userSpaceOnUse" xlink:href="#q"/><linearGradient x1="20.457" x2="17.948" y1="457.66" y2="453.32" gradientTransform="translate(-3.513 -450.695)" gradientUnits="userSpaceOnUse" xlink:href="#q"/><linearGradient x1="21.166" x2="16.757" y1="459.607" y2="449.81" gradientTransform="translate(-56.694 -458.336)" gradientUnits="userSpaceOnUse" xlink:href="#r"/><linearGradient x1="20.457" x2="17.948" y1="457.66" y2="453.32" gradientTransform="translate(-56.694 -458.336)" gradientUnits="userSpaceOnUse" xlink:href="#q"/><linearGradient x1="9.496" x2="4.889" y1="470.609" y2="468.235" gradientUnits="userSpaceOnUse" xlink:href="#q"/><linearGradient id="bu" x1="38.465" x2="44.536" y1="9.451" y2="3.154" xlink:href="#r" gradientUnits="userSpaceOnUse" gradientTransform="translate(-53.18 -7.641)"/><linearGradient id="bv" x1="44.392" x2="49.759" y1="911.817" y2="906.347" xlink:href="#r" gradientUnits="userSpaceOnUse" gradientTransform="translate(-60.207 -909.03)"/><radialGradient id="bw" cx="34.328" cy="459.265" r="2.869" xlink:href="#o" gradientUnits="userSpaceOnUse" gradientTransform="matrix(-1 0 0 1 55.359 0)" fx="34.328" fy="459.265"/><radialGradient id="bx" cx="20.523" cy="458.587" r="4.066" xlink:href="#p" gradientUnits="userSpaceOnUse" fx="20.523" fy="458.587"/><linearGradient id="bq" x1="21.166" x2="16.757" y1="459.607" y2="449.81" xlink:href="#r" gradientUnits="userSpaceOnUse" gradientTransform="translate(-56.694 -458.336)"/><linearGradient id="br" x1="20.457" x2="17.948" y1="457.66" y2="453.32" xlink:href="#q" gradientUnits="userSpaceOnUse" gradientTransform="translate(-56.694 -458.336)"/><radialGradient id="bs" cx="34.328" cy="459.265" r="2.869" xlink:href="#o" gradientUnits="userSpaceOnUse" gradientTransform="matrix(-1 0 0 1 55.359 0)" fx="34.328" fy="459.265"/><radialGradient id="bt" cx="20.523" cy="458.587" r="4.066" xlink:href="#p" gradientUnits="userSpaceOnUse" fx="20.523" fy="458.587"/><linearGradient id="bP" x1="6.328" x2="-1.866" y1="19.519" y2="16.009" xlink:href="#r" gradientUnits="userSpaceOnUse" gradientTransform="translate(-53.18 -7.641)"/><linearGradient id="bS" x1="9.496" x2="4.889" y1="470.609" y2="468.235" xlink:href="#q" gradientUnits="userSpaceOnUse"/><linearGradient id="bQ" x1="9.496" x2="4.889" y1="470.609" y2="468.235" xlink:href="#q" gradientUnits="userSpaceOnUse"/><radialGradient id="bT" cx="34.328" cy="459.265" r="2.869" xlink:href="#o" gradientUnits="userSpaceOnUse" gradientTransform="matrix(-1 0 0 1 55.359 0)" fx="34.328" fy="459.265"/><radialGradient id="bU" cx="20.523" cy="458.587" r="4.066" xlink:href="#p" gradientUnits="userSpaceOnUse" fx="20.523" fy="458.587"/><linearGradient id="by" x1="39.949" x2="51.093" y1="29.046" y2="29.046" xlink:href="#r" gradientUnits="userSpaceOnUse" gradientTransform="translate(-53.18 -7.641)"/><linearGradient id="bA" x1="46.456" x2="53.785" y1="930.387" y2="931.119" xlink:href="#r" gradientUnits="userSpaceOnUse" gradientTransform="translate(-3.513 -450.695)"/><linearGradient id="bz" x1="20.457" x2="17.948" y1="457.66" y2="453.32" xlink:href="#q" gradientUnits="userSpaceOnUse" gradientTransform="translate(-3.513 -450.695)"/><radialGradient id="bB" cx="34.328" cy="459.265" r="2.869" xlink:href="#o" gradientUnits="userSpaceOnUse" gradientTransform="matrix(-1 0 0 1 55.359 0)" fx="34.328" fy="459.265"/><radialGradient id="bC" cx="20.523" cy="458.587" r="4.066" xlink:href="#p" gradientUnits="userSpaceOnUse" fx="20.523" fy="458.587"/><linearGradient id="bD" x1="27.718" x2="29.978" y1="42.201" y2="49.53" xlink:href="#r" gradientUnits="userSpaceOnUse" gradientTransform="translate(-53.18 -7.641)"/><linearGradient id="bG" x1="31.285" x2="32.427" y1="492.087" y2="496.629" xlink:href="#q" gradientUnits="userSpaceOnUse"/><linearGradient id="bE" x1="31.285" x2="32.427" y1="492.087" y2="496.629" xlink:href="#q" gradientUnits="userSpaceOnUse"/><radialGradient id="bH" cx="34.328" cy="459.265" r="2.869" xlink:href="#o" gradientUnits="userSpaceOnUse" gradientTransform="matrix(-1 0 0 1 55.359 0)" fx="34.328" fy="459.265"/><radialGradient id="bI" cx="20.523" cy="458.587" r="4.066" xlink:href="#p" gradientUnits="userSpaceOnUse" fx="20.523" fy="458.587"/><linearGradient id="bJ" x1="10.197" x2="6.095" y1="38.688" y2="46.12" xlink:href="#r" gradientUnits="userSpaceOnUse" gradientTransform="translate(-53.18 -7.641)"/><linearGradient id="bM" x1="14.077" x2="11.179" y1="489.75" y2="495.436" xlink:href="#q" gradientUnits="userSpaceOnUse"/><linearGradient id="bK" x1="14.077" x2="11.179" y1="489.75" y2="495.436" xlink:href="#q" gradientUnits="userSpaceOnUse"/><radialGradient id="bN" cx="34.328" cy="459.265" r="2.869" xlink:href="#o" gradientUnits="userSpaceOnUse" gradientTransform="matrix(-1 0 0 1 55.359 0)" fx="34.328" fy="459.265"/><radialGradient id="bO" cx="20.523" cy="458.587" r="4.066" xlink:href="#p" gradientUnits="userSpaceOnUse" fx="20.523" fy="458.587"/></defs><g><g><path fill="#c4c5c2" stroke="url(#s)" stroke-width="1.5" stroke-miterlimit="2" d="M31.42 17.3c.4.64 1.18 2.17 1.18 2.96 0 1.7-1.1 3.1-2.65 3.88.2.5.4 1.04.4 1.62 0 2.76-2.55 5-5.67 5-.95 0-1.8-.26-2.58-.63-.7 2.08-2.77 3.63-5.34 3.63s-4.65-1.55-5.34-3.63c-.8.37-1.64.63-2.58.63-3.13 0-5.66-2.24-5.66-5 0-.58.18-1.1.4-1.62C2 23.36.9 21.94.9 20.26c0-.9.3-3 .75-3.76-.5-.72-.74-1.5-.74-2.3 0-1.7 1.1-3.12 2.65-3.9-.2-.5-.4-1.03-.4-1.6 0-2.77 2.55-5 5.67-5 .95 0 1.8.25 2.58.6.7-2.06 2.77-3.6 5.34-3.6s4.65 1.54 5.34 3.6c.8-.35 1.65-.6 2.6-.6 3.12 0 5.65 2.23 5.65 5 0 .57-.18 1.1-.4 1.6 1.57.78 2.67 2.2 2.67 3.9 0 .76-.82 2.46-1.2 3.1z" transform="matrix(.542 0 0 .542 25.826 28.334)"/><g><path fill="#c4c5c2" d="M36.97 31.4c0 1.06-.97 1.92-2.17 1.92s-2.17-.86-2.17-1.92.97-1.9 2.17-1.9 2.17.84 2.17 1.9z"/><path fill="url(#t)" d="M291.7-437.6c0 1.84-1.5 3.32-3.32 3.32-1.83 0-3.32-1.48-3.32-3.3 0-1.84 1.5-3.33 3.3-3.33 1.84 0 3.33 1.48 3.33 3.3z" transform="matrix(.655 0 0 .579 -154.057 284.723)"/></g><path fill="#c4c5c2" d="M29.03 32.74h12.4v4.93h-12.4z"/><path fill="#c4c5c2" d="M30.94 36.18c0 .9-.83 1.65-1.86 1.65-1.03 0-1.86-.74-1.86-1.65 0-.9.83-1.64 1.86-1.64 1.03 0 1.86.74 1.86 1.64z"/><g><path fill="#c4c5c2" d="M41.3 33.05c0 1.06-.96 1.92-2.16 1.92-1.2 0-2.17-.86-2.17-1.92s.97-1.92 2.17-1.92 2.17.86 2.17 1.92z"/><path fill="url(#u)" d="M291.7-437.6c0 1.84-1.5 3.32-3.32 3.32-1.83 0-3.32-1.48-3.32-3.3 0-1.84 1.5-3.33 3.3-3.33 1.84 0 3.33 1.48 3.33 3.3z" transform="matrix(.655 0 0 .579 -149.717 286.367)"/></g><g><path fill="#c4c5c2" d="M32.63 33.05c0 1.06-.97 1.92-2.17 1.92s-2.17-.86-2.17-1.92.96-1.92 2.16-1.92c1.2 0 2.17.86 2.17 1.92z"/><path fill="url(#v)" d="M291.7-437.6c0 1.84-1.5 3.32-3.32 3.32-1.83 0-3.32-1.48-3.32-3.3 0-1.84 1.5-3.33 3.3-3.33 1.84 0 3.33 1.48 3.33 3.3z" transform="matrix(.655 0 0 .579 -158.397 286.367)"/></g><g><path fill="#c4c5c2" d="M34.18 31.14c-2.2 0-4 1.6-4 3.56 0 1.3.83 2.38 2 3h4.02c1.18-.62 2-1.72 2-3.02 0-1.96-1.8-3.54-4.02-3.54z"/><path fill="url(#w)" d="M280.5-441c-3.6 0-6.5 2.9-6.5 6.5 0 2.38 1.34 4.37 3.25 5.5h6.5c1.9-1.13 3.25-3.12 3.25-5.5 0-3.6-2.9-6.5-6.5-6.5z" transform="matrix(.62 0 0 .548 -139.674 272.742)"/></g><path fill="url(#x)" d="M291.7-437.6c0 1.84-1.5 3.32-3.32 3.32-1.83 0-3.32-1.48-3.32-3.3 0-1.84 1.5-3.33 3.3-3.33 1.84 0 3.33 1.48 3.33 3.3z" transform="matrix(.562 0 0 .496 -132.957 253.186)"/><g><path fill="#c4c5c2" d="M39.54 35.82c0 1.2-1.1 2.2-2.48 2.2-1.37 0-2.48-1-2.48-2.2 0-1.2 1.1-2.2 2.48-2.2 1.37 0 2.48 1 2.48 2.2z"/><path fill="url(#y)" d="M291.7-437.6c0 1.84-1.5 3.32-3.32 3.32-1.83 0-3.32-1.48-3.32-3.3 0-1.84 1.5-3.33 3.3-3.33 1.84 0 3.33 1.48 3.33 3.3z" transform="matrix(.749 0 0 .662 -178.894 325.02)"/></g><g><path fill="#c4c5c2" d="M36.96 43.97c0-1.05-.97-1.9-2.17-1.9s-2.18.85-2.18 1.9c0 1.06.97 1.92 2.17 1.92s2.16-.87 2.16-1.93z"/><path fill="url(#z)" d="M291.7-437.6c0 1.84-1.5 3.32-3.32 3.32-1.83 0-3.32-1.48-3.32-3.3 0-1.84 1.5-3.33 3.3-3.33 1.84 0 3.33 1.48 3.33 3.3z" transform="matrix(.655 0 0 -.579 -154.064 -209.349)"/></g><path fill="#c4c5c2" d="M29.02 42.64h12.4V37.7h-12.4z"/><path fill="#c4c5c2" d="M30.93 39.2c0-.9-.83-1.65-1.86-1.65-1.03 0-1.86.74-1.86 1.65 0 .9.84 1.64 1.87 1.64 1.03 0 1.86-.74 1.86-1.64z"/><g><path fill="#c4c5c2" d="M41.3 42.33c0-1.06-.97-1.92-2.17-1.92s-2.17.87-2.17 1.93.97 1.92 2.17 1.92 2.17-.86 2.17-1.92z"/><path fill="url(#A)" d="M291.7-437.6c0 1.84-1.5 3.32-3.32 3.32-1.83 0-3.32-1.48-3.32-3.3 0-1.84 1.5-3.33 3.3-3.33 1.84 0 3.33 1.48 3.33 3.3z" transform="matrix(.655 0 0 -.579 -149.724 -210.993)"/></g><g><path fill="#c4c5c2" d="M32.62 42.33c0-1.06-.97-1.92-2.17-1.92s-2.17.87-2.17 1.93.97 1.92 2.17 1.92 2.17-.86 2.17-1.92z"/><path fill="url(#B)" d="M291.7-437.6c0 1.84-1.5 3.32-3.32 3.32-1.83 0-3.32-1.48-3.32-3.3 0-1.84 1.5-3.33 3.3-3.33 1.84 0 3.33 1.48 3.33 3.3z" transform="matrix(.655 0 0 -.579 -158.404 -210.993)"/></g><g><path fill="#c4c5c2" d="M34.18 44.24c-2.22 0-4-1.6-4-3.56 0-1.3.82-2.38 2-3h4c1.2.62 2.03 1.72 2.03 3.02 0 1.96-1.8 3.54-4.02 3.54z"/><path fill="url(#C)" d="M280.5-441c-3.6 0-6.5 2.9-6.5 6.5 0 2.38 1.34 4.37 3.25 5.5h6.5c1.9-1.13 3.25-3.12 3.25-5.5 0-3.6-2.9-6.5-6.5-6.5z" transform="matrix(.62 0 0 -.548 -139.681 -197.368)"/></g><path fill="url(#D)" d="M291.7-437.6c0 1.84-1.5 3.32-3.32 3.32-1.83 0-3.32-1.48-3.32-3.3 0-1.84 1.5-3.33 3.3-3.33 1.84 0 3.33 1.48 3.33 3.3z" transform="matrix(.562 0 0 -.496 -132.964 -177.812)"/><g><path fill="#c4c5c2" d="M37.87 38.45c0-1.2-1.1-2.2-2.48-2.2s-2.5 1-2.5 2.2c0 1.2 1.12 2.2 2.5 2.2 1.36 0 2.47-1 2.47-2.2z"/><path fill="url(#E)" d="M291.7-437.6c0 1.84-1.5 3.32-3.32 3.32-1.83 0-3.32-1.48-3.32-3.3 0-1.84 1.5-3.33 3.3-3.33 1.84 0 3.33 1.48 3.33 3.3z" transform="matrix(.749 0 0 -.662 -180.568 -250.749)"/></g><g><path fill="#c4c5c2" d="M41.8 37.24c0-1.2-1.12-2.2-2.5-2.2-1.36 0-2.47 1-2.47 2.2 0 1.2 1.1 2.2 2.48 2.2s2.5-1 2.5-2.2z"/><path fill="url(#F)" d="M291.7-437.6c0 1.84-1.5 3.32-3.32 3.32-1.83 0-3.32-1.48-3.32-3.3 0-1.84 1.5-3.33 3.3-3.33 1.84 0 3.33 1.48 3.33 3.3z" transform="matrix(.749 0 0 -.662 -176.648 -251.955)"/></g><path fill="url(#G)" stroke="#fff" stroke-opacity=".502" stroke-miterlimit="2" d="M2.87 16.67C2.13 17.4 2 19.32 2 20.4c0 1.44 1.2 2.7 2.64 3.4-.2.47-.48 1.1-.48 1.63 0 2.52 2.07 4.45 5.04 4.45.88 0 1.98-.53 2.7-.87.75 2.44 2.34 3.92 4.73 3.92 2.4 0 4.2-1.55 4.92-3.9.73.35 2.1.9 2.97.9 2.9 0 4.76-1.97 4.76-4.5 0-.52-.32-1.26-.5-1.73 1.43-.7 2.65-1.75 2.65-3.3 0-1-.64-1.86-1.32-3.05.67-1.2 1.34-2.23 1.34-3.3 0-1.53-1.2-2.57-2.66-3.27.2-.47.5-1.2.5-1.74 0-2.52-2.3-4.4-5.2-4.4-.88 0-1.8.46-2.52.8-.7-2.35-2.45-3.7-4.84-3.7-2.4 0-4.06 1.3-4.8 3.72-.72-.34-1.68-.8-2.56-.8-2.96 0-5.2 1.86-5.2 4.38 0 .53.3 1.3.5 1.76C3.2 11.5 2 12.63 2 14.06c0 1.06.17 1.88.87 2.6z" transform="matrix(.542 0 0 .542 25.826 28.334)"/><path fill="#888a85" fill-rule="evenodd" d="M42.47 33.45c0 1.43-1.98 2-1.98 2s1.4-.88 1.4-2c0 0 .57 0 .57 0z"/><path fill="url(#H)" fill-rule="evenodd" d="M22.63 30.93c-2.88-.47-3.34-4.62-3.34-4.62s1.27 3.15 3.5 3.5c0 0-.17 1.13-.17 1.13z" transform="matrix(.542 0 0 .542 25.826 28.334)"/><path fill="url(#I)" fill-rule="evenodd" d="M29.88 24.82c-2.83.72-4.9-2.9-4.9-2.9s2.42 2.36 4.6 1.8c0 0 .3 1.1.3 1.1z" transform="matrix(.542 0 0 .542 25.826 28.334)"/></g><g><path fill="#c4c5c2" stroke="url(#J)" stroke-width="1.5" stroke-miterlimit="2" d="M31.42 17.3c.4.64 1.18 2.17 1.18 2.96 0 1.7-1.1 3.1-2.65 3.88.2.5.4 1.04.4 1.62 0 2.76-2.55 5-5.67 5-.95 0-1.8-.26-2.58-.63-.7 2.08-2.77 3.63-5.34 3.63s-4.65-1.55-5.34-3.63c-.8.37-1.64.63-2.58.63-3.13 0-5.66-2.24-5.66-5 0-.58.18-1.1.4-1.62C2 23.36.9 21.94.9 20.26c0-.9.3-3 .75-3.76-.5-.72-.74-1.5-.74-2.3 0-1.7 1.1-3.12 2.65-3.9-.2-.5-.4-1.03-.4-1.6 0-2.77 2.55-5 5.67-5 .95 0 1.8.25 2.58.6.7-2.06 2.77-3.6 5.34-3.6s4.65 1.54 5.34 3.6c.8-.35 1.65-.6 2.6-.6 3.12 0 5.65 2.23 5.65 5 0 .57-.18 1.1-.4 1.6 1.57.78 2.67 2.2 2.67 3.9 0 .76-.82 2.46-1.2 3.1z" transform="matrix(.542 0 0 .542 11.154 6.355)"/><g><path fill="#c4c5c2" d="M22.3 9.42c0 1.06-.98 1.92-2.18 1.92-1.2 0-2.17-.86-2.17-1.92s.98-1.9 2.17-1.9c1.2 0 2.17.84 2.17 1.9z"/><path fill="url(#K)" d="M291.7-437.6c0 1.84-1.5 3.32-3.32 3.32-1.83 0-3.32-1.48-3.32-3.3 0-1.84 1.5-3.33 3.3-3.33 1.84 0 3.33 1.48 3.33 3.3z" transform="matrix(.655 0 0 .579 -168.729 262.744)"/></g><path fill="#c4c5c2" d="M14.36 10.76h12.4v4.93h-12.4z"/><path fill="#c4c5c2" d="M16.27 14.2c0 .9-.84 1.65-1.86 1.65s-1.85-.74-1.85-1.65c0-.9.83-1.64 1.86-1.64 1.03 0 1.87.74 1.87 1.64z"/><g><path fill="#c4c5c2" d="M26.63 11.07c0 1.06-.97 1.92-2.17 1.92s-2.17-.87-2.17-1.93.97-1.92 2.16-1.92c1.2 0 2.17.86 2.17 1.92z"/><path fill="url(#L)" d="M291.7-437.6c0 1.84-1.5 3.32-3.32 3.32-1.83 0-3.32-1.48-3.32-3.3 0-1.84 1.5-3.33 3.3-3.33 1.84 0 3.33 1.48 3.33 3.3z" transform="matrix(.655 0 0 .579 -164.389 264.388)"/></g><g><path fill="#c4c5c2" d="M17.95 11.07c0 1.06-.97 1.92-2.17 1.92s-2.17-.87-2.17-1.93 1-1.92 2.18-1.92c1.2 0 2.17.86 2.17 1.92z"/><path fill="url(#M)" d="M291.7-437.6c0 1.84-1.5 3.32-3.32 3.32-1.83 0-3.32-1.48-3.32-3.3 0-1.84 1.5-3.33 3.3-3.33 1.84 0 3.33 1.48 3.33 3.3z" transform="matrix(.655 0 0 .579 -173.069 264.388)"/></g><g><path fill="#c4c5c2" d="M19.5 9.16c-2.2 0-4 1.6-4 3.56 0 1.3.84 2.38 2.02 3h4c1.2-.62 2.02-1.72 2.02-3.02 0-1.96-1.8-3.54-4.03-3.54z"/><path fill="url(#N)" d="M280.5-441c-3.6 0-6.5 2.9-6.5 6.5 0 2.38 1.34 4.37 3.25 5.5h6.5c1.9-1.13 3.25-3.12 3.25-5.5 0-3.6-2.9-6.5-6.5-6.5z" transform="matrix(.62 0 0 .548 -154.346 250.763)"/></g><path fill="url(#O)" d="M291.7-437.6c0 1.84-1.5 3.32-3.32 3.32-1.83 0-3.32-1.48-3.32-3.3 0-1.84 1.5-3.33 3.3-3.33 1.84 0 3.33 1.48 3.33 3.3z" transform="matrix(.562 0 0 .496 -147.629 231.207)"/><g><path fill="#c4c5c2" d="M24.87 13.85c0 1.2-1.1 2.2-2.48 2.2s-2.5-1-2.5-2.2c0-1.2 1.12-2.2 2.5-2.2 1.36 0 2.47 1 2.47 2.2z"/><path fill="url(#P)" d="M291.7-437.6c0 1.84-1.5 3.32-3.32 3.32-1.83 0-3.32-1.48-3.32-3.3 0-1.84 1.5-3.33 3.3-3.33 1.84 0 3.33 1.48 3.33 3.3z" transform="matrix(.749 0 0 .662 -193.566 303.041)"/></g><g><path fill="#c4c5c2" d="M22.3 22c0-1.06-.98-1.92-2.18-1.92-1.2 0-2.17.86-2.17 1.92s.97 1.9 2.17 1.9 2.17-.84 2.17-1.9z"/><path fill="url(#Q)" d="M291.7-437.6c0 1.84-1.5 3.32-3.32 3.32-1.83 0-3.32-1.48-3.32-3.3 0-1.84 1.5-3.33 3.3-3.33 1.84 0 3.33 1.48 3.33 3.3z" transform="matrix(.655 0 0 -.579 -168.736 -231.328)"/></g><path fill="#c4c5c2" d="M14.35 20.66h12.4v-4.93h-12.4z"/><path fill="#c4c5c2" d="M16.26 17.22c0-.9-.83-1.65-1.86-1.65-1.03 0-1.86.74-1.86 1.65 0 .9.83 1.64 1.86 1.64 1.03 0 1.86-.74 1.86-1.64z"/><g><path fill="#c4c5c2" d="M26.63 20.35c0-1.06-.97-1.92-2.17-1.92s-2.17.86-2.17 1.92.96 1.92 2.16 1.92c1.2 0 2.17-.86 2.17-1.92z"/><path fill="url(#R)" d="M291.7-437.6c0 1.84-1.5 3.32-3.32 3.32-1.83 0-3.32-1.48-3.32-3.3 0-1.84 1.5-3.33 3.3-3.33 1.84 0 3.33 1.48 3.33 3.3z" transform="matrix(.655 0 0 -.579 -164.396 -232.972)"/></g><g><path fill="#c4c5c2" d="M17.95 20.35c0-1.06-.97-1.92-2.17-1.92s-2.17.86-2.17 1.92.98 1.92 2.18 1.92c1.2 0 2.17-.86 2.17-1.92z"/><path fill="url(#S)" d="M291.7-437.6c0 1.84-1.5 3.32-3.32 3.32-1.83 0-3.32-1.48-3.32-3.3 0-1.84 1.5-3.33 3.3-3.33 1.84 0 3.33 1.48 3.33 3.3z" transform="matrix(.655 0 0 -.579 -173.076 -232.972)"/></g><g><path fill="#c4c5c2" d="M19.5 22.26c-2.2 0-4-1.6-4-3.56 0-1.3.83-2.38 2-3h4.02c1.18.62 2 1.72 2 3.02 0 1.96-1.8 3.54-4.02 3.54z"/><path fill="url(#T)" d="M280.5-441c-3.6 0-6.5 2.9-6.5 6.5 0 2.38 1.34 4.37 3.25 5.5h6.5c1.9-1.13 3.25-3.12 3.25-5.5 0-3.6-2.9-6.5-6.5-6.5z" transform="matrix(.62 0 0 -.548 -154.353 -219.347)"/></g><path fill="url(#U)" d="M291.7-437.6c0 1.84-1.5 3.32-3.32 3.32-1.83 0-3.32-1.48-3.32-3.3 0-1.84 1.5-3.33 3.3-3.33 1.84 0 3.33 1.48 3.33 3.3z" transform="matrix(.562 0 0 -.496 -147.636 -199.791)"/><g><path fill="#c4c5c2" d="M23.2 16.47c0-1.2-1.1-2.2-2.48-2.2-1.37 0-2.48 1-2.48 2.2 0 1.2 1.1 2.2 2.48 2.2 1.37 0 2.48-1 2.48-2.2z"/><path fill="url(#V)" d="M291.7-437.6c0 1.84-1.5 3.32-3.32 3.32-1.83 0-3.32-1.48-3.32-3.3 0-1.84 1.5-3.33 3.3-3.33 1.84 0 3.33 1.48 3.33 3.3z" transform="matrix(.749 0 0 -.662 -195.24 -272.728)"/></g><g><path fill="#c4c5c2" d="M27.12 15.26c0-1.2-1.1-2.2-2.48-2.2-1.37 0-2.48 1-2.48 2.2 0 1.2 1.1 2.2 2.48 2.2 1.37 0 2.48-1 2.48-2.2z"/><path fill="url(#W)" d="M291.7-437.6c0 1.84-1.5 3.32-3.32 3.32-1.83 0-3.32-1.48-3.32-3.3 0-1.84 1.5-3.33 3.3-3.33 1.84 0 3.33 1.48 3.33 3.3z" transform="matrix(.749 0 0 -.662 -191.32 -273.934)"/></g><path fill="url(#X)" stroke="#fff" stroke-opacity=".502" stroke-miterlimit="2" d="M2.87 16.67C2.13 17.4 2 19.32 2 20.4c0 1.44 1.2 2.7 2.64 3.4-.2.47-.48 1.1-.48 1.63 0 2.52 2.07 4.45 5.04 4.45.88 0 1.98-.53 2.7-.87.75 2.44 2.34 3.92 4.73 3.92 2.4 0 4.2-1.55 4.92-3.9.73.35 2.1.9 2.97.9 2.9 0 4.76-1.97 4.76-4.5 0-.52-.32-1.26-.5-1.73 1.43-.7 2.65-1.75 2.65-3.3 0-1-.64-1.86-1.32-3.05.67-1.2 1.34-2.23 1.34-3.3 0-1.53-1.2-2.57-2.66-3.27.2-.47.5-1.2.5-1.74 0-2.52-2.3-4.4-5.2-4.4-.88 0-1.8.46-2.52.8-.7-2.35-2.45-3.7-4.84-3.7-2.4 0-4.06 1.3-4.8 3.72-.72-.34-1.68-.8-2.56-.8-2.96 0-5.2 1.86-5.2 4.38 0 .53.3 1.3.5 1.76C3.2 11.5 2 12.63 2 14.06c0 1.06.17 1.88.87 2.6z" transform="matrix(.542 0 0 .542 11.154 6.355)"/><path fill="#888a85" fill-rule="evenodd" d="M27.8 11.47c0 1.44-1.98 2-1.98 2s1.42-.88 1.4-2c0 0 .58 0 .58 0z"/><path fill="url(#Y)" fill-rule="evenodd" d="M22.63 30.93c-2.88-.47-3.34-4.62-3.34-4.62s1.27 3.15 3.5 3.5c0 0-.17 1.13-.17 1.13z" transform="matrix(.542 0 0 .542 11.154 6.355)"/><path fill="url(#Z)" fill-rule="evenodd" d="M29.88 24.82c-2.83.72-4.9-2.9-4.9-2.9s2.42 2.36 4.6 1.8c0 0 .3 1.1.3 1.1z" transform="matrix(.542 0 0 .542 11.154 6.355)"/></g><g><path fill="#c4c5c2" stroke="url(#aa)" stroke-width="1.5" stroke-miterlimit="2" d="M31.42 17.3c.4.64 1.18 2.17 1.18 2.96 0 1.7-1.1 3.1-2.65 3.88.2.5.4 1.04.4 1.62 0 2.76-2.55 5-5.67 5-.95 0-1.8-.26-2.58-.63-.7 2.08-2.77 3.63-5.34 3.63s-4.65-1.55-5.34-3.63c-.8.37-1.64.63-2.58.63-3.13 0-5.66-2.24-5.66-5 0-.58.18-1.1.4-1.62C2 23.36.9 21.94.9 20.26c0-.9.3-3 .75-3.76-.5-.72-.74-1.5-.74-2.3 0-1.7 1.1-3.12 2.65-3.9-.2-.5-.4-1.03-.4-1.6 0-2.77 2.55-5 5.67-5 .95 0 1.8.25 2.58.6.7-2.06 2.77-3.6 5.34-3.6s4.65 1.54 5.34 3.6c.8-.35 1.65-.6 2.6-.6 3.12 0 5.65 2.23 5.65 5 0 .57-.18 1.1-.4 1.6 1.57.78 2.67 2.2 2.67 3.9 0 .76-.82 2.46-1.2 3.1z" transform="matrix(.542 0 0 .542 4.731 22.442)"/><g><path fill="#c4c5c2" d="M15.87 25.5c0 1.07-.97 1.93-2.17 1.93s-2.17-.86-2.17-1.92c0-1.05.97-1.9 2.17-1.9s2.17.85 2.17 1.9z"/><path fill="url(#ab)" d="M291.7-437.6c0 1.84-1.5 3.32-3.32 3.32-1.83 0-3.32-1.48-3.32-3.3 0-1.84 1.5-3.33 3.3-3.33 1.84 0 3.33 1.48 3.33 3.3z" transform="matrix(.655 0 0 .579 -175.152 278.831)"/></g><path fill="#c4c5c2" d="M7.94 26.84h12.4v4.94H7.94z"/><path fill="#c4c5c2" d="M9.85 30.3c0 .9-.84 1.63-1.87 1.63-1.02 0-1.86-.73-1.86-1.64 0-.92.84-1.65 1.86-1.65 1.03 0 1.87.73 1.87 1.64z"/><g><path fill="#c4c5c2" d="M20.2 27.16c0 1.05-.96 1.9-2.16 1.9-1.2 0-2.17-.85-2.17-1.9 0-1.06.97-1.92 2.17-1.92s2.17.86 2.17 1.92z"/><path fill="url(#ac)" d="M291.7-437.6c0 1.84-1.5 3.32-3.32 3.32-1.83 0-3.32-1.48-3.32-3.3 0-1.84 1.5-3.33 3.3-3.33 1.84 0 3.33 1.48 3.33 3.3z" transform="matrix(.655 0 0 .579 -170.812 280.475)"/></g><g><path fill="#c4c5c2" d="M11.53 27.16c0 1.05-.97 1.9-2.17 1.9s-2.17-.85-2.17-1.9c0-1.06.96-1.92 2.16-1.92 1.2 0 2.17.86 2.17 1.92z"/><path fill="url(#ad)" d="M291.7-437.6c0 1.84-1.5 3.32-3.32 3.32-1.83 0-3.32-1.48-3.32-3.3 0-1.84 1.5-3.33 3.3-3.33 1.84 0 3.33 1.48 3.33 3.3z" transform="matrix(.655 0 0 .579 -179.492 280.475)"/></g><g><path fill="#c4c5c2" d="M13.1 25.25c-2.23 0-4.02 1.6-4.02 3.56 0 1.3.84 2.4 2 3h4.02c1.18-.6 2.02-1.7 2.02-3 0-1.97-1.8-3.55-4.03-3.55z"/><path fill="url(#ae)" d="M280.5-441c-3.6 0-6.5 2.9-6.5 6.5 0 2.38 1.34 4.37 3.25 5.5h6.5c1.9-1.13 3.25-3.12 3.25-5.5 0-3.6-2.9-6.5-6.5-6.5z" transform="matrix(.62 0 0 .548 -160.769 266.85)"/></g><path fill="url(#af)" d="M291.7-437.6c0 1.84-1.5 3.32-3.32 3.32-1.83 0-3.32-1.48-3.32-3.3 0-1.84 1.5-3.33 3.3-3.33 1.84 0 3.33 1.48 3.33 3.3z" transform="matrix(.562 0 0 .496 -154.052 247.294)"/><g><path fill="#c4c5c2" d="M18.45 29.93c0 1.2-1.1 2.2-2.48 2.2-1.37 0-2.48-1-2.48-2.2 0-1.2 1.1-2.2 2.47-2.2s2.48 1 2.48 2.2z"/><path fill="url(#ag)" d="M291.7-437.6c0 1.84-1.5 3.32-3.32 3.32-1.83 0-3.32-1.48-3.32-3.3 0-1.84 1.5-3.33 3.3-3.33 1.84 0 3.33 1.48 3.33 3.3z" transform="matrix(.749 0 0 .662 -199.989 319.128)"/></g><g><path fill="#c4c5c2" d="M15.86 38.08c0-1.06-.97-1.92-2.17-1.92s-2.18.86-2.18 1.92S12.5 40 13.7 40c1.2 0 2.16-.86 2.16-1.92z"/><path fill="url(#ah)" d="M291.7-437.6c0 1.84-1.5 3.32-3.32 3.32-1.83 0-3.32-1.48-3.32-3.3 0-1.84 1.5-3.33 3.3-3.33 1.84 0 3.33 1.48 3.33 3.3z" transform="matrix(.655 0 0 -.579 -175.159 -215.241)"/></g><path fill="#c4c5c2" d="M7.93 36.75h12.4v-4.93H7.93z"/><path fill="#c4c5c2" d="M9.84 33.3c0-.9-.84-1.64-1.86-1.64-1.03 0-1.86.74-1.86 1.64 0 .9.83 1.65 1.86 1.65 1.02 0 1.86-.74 1.86-1.65z"/><g><path fill="#c4c5c2" d="M20.2 36.44c0-1.06-.97-1.92-2.17-1.92s-2.17.86-2.17 1.92.98 1.92 2.17 1.92c1.2 0 2.17-.86 2.17-1.92z"/><path fill="url(#ai)" d="M291.7-437.6c0 1.84-1.5 3.32-3.32 3.32-1.83 0-3.32-1.48-3.32-3.3 0-1.84 1.5-3.33 3.3-3.33 1.84 0 3.33 1.48 3.33 3.3z" transform="matrix(.655 0 0 -.579 -170.819 -216.885)"/></g><g><path fill="#c4c5c2" d="M11.52 36.44c0-1.06-.97-1.92-2.17-1.92s-2.17.86-2.17 1.92.98 1.92 2.17 1.92c1.2 0 2.17-.86 2.17-1.92z"/><path fill="url(#aj)" d="M291.7-437.6c0 1.84-1.5 3.32-3.32 3.32-1.83 0-3.32-1.48-3.32-3.3 0-1.84 1.5-3.33 3.3-3.33 1.84 0 3.33 1.48 3.33 3.3z" transform="matrix(.655 0 0 -.579 -179.499 -216.885)"/></g><g><path fill="#c4c5c2" d="M13.08 38.35c-2.22 0-4-1.6-4-3.57 0-1.3.83-2.37 2-3h4.02c1.18.63 2 1.72 2 3.02 0 1.96-1.8 3.55-4.02 3.55z"/><path fill="url(#ak)" d="M280.5-441c-3.6 0-6.5 2.9-6.5 6.5 0 2.38 1.34 4.37 3.25 5.5h6.5c1.9-1.13 3.25-3.12 3.25-5.5 0-3.6-2.9-6.5-6.5-6.5z" transform="matrix(.62 0 0 -.548 -160.776 -203.26)"/></g><path fill="url(#al)" d="M291.7-437.6c0 1.84-1.5 3.32-3.32 3.32-1.83 0-3.32-1.48-3.32-3.3 0-1.84 1.5-3.33 3.3-3.33 1.84 0 3.33 1.48 3.33 3.3z" transform="matrix(.562 0 0 -.496 -154.059 -183.704)"/><g><path fill="#c4c5c2" d="M16.77 32.56c0-1.2-1.1-2.2-2.48-2.2s-2.5 1-2.5 2.2c0 1.2 1.12 2.2 2.5 2.2 1.36 0 2.47-1 2.47-2.2z"/><path fill="url(#am)" d="M291.7-437.6c0 1.84-1.5 3.32-3.32 3.32-1.83 0-3.32-1.48-3.32-3.3 0-1.84 1.5-3.33 3.3-3.33 1.84 0 3.33 1.48 3.33 3.3z" transform="matrix(.749 0 0 -.662 -201.663 -256.641)"/></g><g><path fill="#c4c5c2" d="M20.7 31.35c0-1.2-1.12-2.2-2.5-2.2-1.36 0-2.47 1-2.47 2.2 0 1.2 1.1 2.2 2.48 2.2s2.5-1 2.5-2.2z"/><path fill="url(#an)" d="M291.7-437.6c0 1.84-1.5 3.32-3.32 3.32-1.83 0-3.32-1.48-3.32-3.3 0-1.84 1.5-3.33 3.3-3.33 1.84 0 3.33 1.48 3.33 3.3z" transform="matrix(.749 0 0 -.662 -197.743 -257.847)"/></g><path fill="url(#ao)" stroke="#fff" stroke-opacity=".502" stroke-miterlimit="2" d="M2.87 16.67C2.13 17.4 2 19.32 2 20.4c0 1.44 1.2 2.7 2.64 3.4-.2.47-.48 1.1-.48 1.63 0 2.52 2.07 4.45 5.04 4.45.88 0 1.98-.53 2.7-.87.75 2.44 2.34 3.92 4.73 3.92 2.4 0 4.2-1.55 4.92-3.9.73.35 2.1.9 2.97.9 2.9 0 4.76-1.97 4.76-4.5 0-.52-.32-1.26-.5-1.73 1.43-.7 2.65-1.75 2.65-3.3 0-1-.64-1.86-1.32-3.05.67-1.2 1.34-2.23 1.34-3.3 0-1.53-1.2-2.57-2.66-3.27.2-.47.5-1.2.5-1.74 0-2.52-2.3-4.4-5.2-4.4-.88 0-1.8.46-2.52.8-.7-2.35-2.45-3.7-4.84-3.7-2.4 0-4.06 1.3-4.8 3.72-.72-.34-1.68-.8-2.56-.8-2.96 0-5.2 1.86-5.2 4.38 0 .53.3 1.3.5 1.76C3.2 11.5 2 12.63 2 14.06c0 1.06.17 1.88.87 2.6z" transform="matrix(.542 0 0 .542 4.731 22.442)"/><path fill="#888a85" fill-rule="evenodd" d="M21.37 27.56c0 1.43-1.98 1.98-1.98 1.98s1.42-.87 1.4-1.98c0 0 .57 0 .57 0z"/><path fill="url(#ap)" fill-rule="evenodd" d="M22.63 30.93c-2.88-.47-3.34-4.62-3.34-4.62s1.27 3.15 3.5 3.5c0 0-.17 1.13-.17 1.13z" transform="matrix(.542 0 0 .542 4.731 22.442)"/><path fill="url(#aq)" fill-rule="evenodd" d="M29.88 24.82c-2.83.72-4.9-2.9-4.9-2.9s2.42 2.36 4.6 1.8c0 0 .3 1.1.3 1.1z" transform="matrix(.542 0 0 .542 4.731 22.442)"/></g><g><path fill="#c4c5c2" stroke="url(#ar)" stroke-width="1.5" stroke-miterlimit="2" d="M31.42 17.3c.4.64 1.18 2.17 1.18 2.96 0 1.7-1.1 3.1-2.65 3.88.2.5.4 1.04.4 1.62 0 2.76-2.55 5-5.67 5-.95 0-1.8-.26-2.58-.63-.7 2.08-2.77 3.63-5.34 3.63s-4.65-1.55-5.34-3.63c-.8.37-1.64.63-2.58.63-3.13 0-5.66-2.24-5.66-5 0-.58.18-1.1.4-1.62C2 23.36.9 21.94.9 20.26c0-.9.3-3 .75-3.76-.5-.72-.74-1.5-.74-2.3 0-1.7 1.1-3.12 2.65-3.9-.2-.5-.4-1.03-.4-1.6 0-2.77 2.55-5 5.67-5 .95 0 1.8.25 2.58.6.7-2.06 2.77-3.6 5.34-3.6s4.65 1.54 5.34 3.6c.8-.35 1.65-.6 2.6-.6 3.12 0 5.65 2.23 5.65 5 0 .57-.18 1.1-.4 1.6 1.57.78 2.67 2.2 2.67 3.9 0 .76-.82 2.46-1.2 3.1z" transform="matrix(.542 0 0 .542 27.535 3.762)"/><g><path fill="#c4c5c2" d="M38.68 6.83c0 1.06-.98 1.92-2.17 1.92-1.2 0-2.16-.86-2.16-1.92S35.3 4.9 36.5 4.9s2.18.87 2.18 1.93z"/><path fill="url(#as)" d="M291.7-437.6c0 1.84-1.5 3.32-3.32 3.32-1.83 0-3.32-1.48-3.32-3.3 0-1.84 1.5-3.33 3.3-3.33 1.84 0 3.33 1.48 3.33 3.3z" transform="matrix(.655 0 0 .579 -152.348 260.151)"/></g><path fill="#c4c5c2" d="M30.74 8.16h12.4v4.94h-12.4z"/><path fill="#c4c5c2" d="M32.65 11.6c0 .92-.83 1.65-1.86 1.65-1.04 0-1.87-.73-1.87-1.64 0-.9.83-1.63 1.86-1.63 1.02 0 1.85.73 1.85 1.64z"/><g><path fill="#c4c5c2" d="M43.02 8.48c0 1.06-.98 1.9-2.17 1.9-1.2 0-2.17-.84-2.17-1.9s.97-1.92 2.17-1.92 2.17.86 2.17 1.92z"/><path fill="url(#at)" d="M291.7-437.6c0 1.84-1.5 3.32-3.32 3.32-1.83 0-3.32-1.48-3.32-3.3 0-1.84 1.5-3.33 3.3-3.33 1.84 0 3.33 1.48 3.33 3.3z" transform="matrix(.655 0 0 .579 -148.008 261.795)"/></g><g><path fill="#c4c5c2" d="M34.34 8.48c0 1.06-.98 1.9-2.17 1.9-1.2 0-2.17-.84-2.17-1.9s.97-1.92 2.17-1.92 2.17.86 2.17 1.92z"/><path fill="url(#au)" d="M291.7-437.6c0 1.84-1.5 3.32-3.32 3.32-1.83 0-3.32-1.48-3.32-3.3 0-1.84 1.5-3.33 3.3-3.33 1.84 0 3.33 1.48 3.33 3.3z" transform="matrix(.655 0 0 .579 -156.688 261.795)"/></g><g><path fill="#c4c5c2" d="M35.9 6.57c-2.23 0-4.02 1.6-4.02 3.56 0 1.3.84 2.38 2.02 3h4c1.2-.62 2.02-1.72 2.02-3.02 0-1.95-1.8-3.53-4.03-3.53z"/><path fill="url(#av)" d="M280.5-441c-3.6 0-6.5 2.9-6.5 6.5 0 2.38 1.34 4.37 3.25 5.5h6.5c1.9-1.13 3.25-3.12 3.25-5.5 0-3.6-2.9-6.5-6.5-6.5z" transform="matrix(.62 0 0 .548 -137.965 248.17)"/></g><path fill="url(#aw)" d="M291.7-437.6c0 1.84-1.5 3.32-3.32 3.32-1.83 0-3.32-1.48-3.32-3.3 0-1.84 1.5-3.33 3.3-3.33 1.84 0 3.33 1.48 3.33 3.3z" transform="matrix(.562 0 0 .496 -131.248 228.614)"/><g><path fill="#c4c5c2" d="M41.25 11.25c0 1.2-1.1 2.2-2.48 2.2-1.37 0-2.48-1-2.48-2.2 0-1.2 1.1-2.2 2.47-2.2s2.48 1 2.48 2.2z"/><path fill="url(#ax)" d="M291.7-437.6c0 1.84-1.5 3.32-3.32 3.32-1.83 0-3.32-1.48-3.32-3.3 0-1.84 1.5-3.33 3.3-3.33 1.84 0 3.33 1.48 3.33 3.3z" transform="matrix(.749 0 0 .662 -177.185 300.448)"/></g><g><path fill="#c4c5c2" d="M38.67 19.4c0-1.06-.97-1.92-2.17-1.92s-2.17.86-2.17 1.92.97 1.92 2.17 1.92 2.17-.86 2.17-1.92z"/><path fill="url(#ay)" d="M291.7-437.6c0 1.84-1.5 3.32-3.32 3.32-1.83 0-3.32-1.48-3.32-3.3 0-1.84 1.5-3.33 3.3-3.33 1.84 0 3.33 1.48 3.33 3.3z" transform="matrix(.655 0 0 -.579 -152.355 -233.921)"/></g><path fill="#c4c5c2" d="M30.73 18.07h12.4v-4.93h-12.4z"/><path fill="#c4c5c2" d="M32.64 14.62c0-.9-.83-1.64-1.86-1.64-1.03 0-1.86.74-1.86 1.64 0 .9.83 1.65 1.86 1.65 1.03 0 1.86-.74 1.86-1.65z"/><g><path fill="#c4c5c2" d="M43 17.76c0-1.06-.96-1.92-2.16-1.92-1.2 0-2.17.86-2.17 1.92s.97 1.92 2.17 1.92S43 18.82 43 17.76z"/><path fill="url(#az)" d="M291.7-437.6c0 1.84-1.5 3.32-3.32 3.32-1.83 0-3.32-1.48-3.32-3.3 0-1.84 1.5-3.33 3.3-3.33 1.84 0 3.33 1.48 3.33 3.3z" transform="matrix(.655 0 0 -.579 -148.015 -235.565)"/></g><g><path fill="#c4c5c2" d="M34.33 17.76c0-1.06-.97-1.92-2.17-1.92S30 16.7 30 17.76s.96 1.92 2.16 1.92c1.2 0 2.17-.86 2.17-1.92z"/><path fill="url(#aA)" d="M291.7-437.6c0 1.84-1.5 3.32-3.32 3.32-1.83 0-3.32-1.48-3.32-3.3 0-1.84 1.5-3.33 3.3-3.33 1.84 0 3.33 1.48 3.33 3.3z" transform="matrix(.655 0 0 -.579 -156.695 -235.565)"/></g><g><path fill="#c4c5c2" d="M35.9 19.67c-2.23 0-4.02-1.6-4.02-3.56 0-1.3.83-2.37 2-3h4.02c1.18.63 2.02 1.72 2.02 3.02 0 1.96-1.8 3.55-4.03 3.55z"/><path fill="url(#aB)" d="M280.5-441c-3.6 0-6.5 2.9-6.5 6.5 0 2.38 1.34 4.37 3.25 5.5h6.5c1.9-1.13 3.25-3.12 3.25-5.5 0-3.6-2.9-6.5-6.5-6.5z" transform="matrix(.62 0 0 -.548 -137.972 -221.94)"/></g><path fill="url(#aC)" d="M291.7-437.6c0 1.84-1.5 3.32-3.32 3.32-1.83 0-3.32-1.48-3.32-3.3 0-1.84 1.5-3.33 3.3-3.33 1.84 0 3.33 1.48 3.33 3.3z" transform="matrix(.562 0 0 -.496 -131.255 -202.384)"/><g><path fill="#c4c5c2" d="M39.58 13.88c0-1.2-1.1-2.2-2.48-2.2-1.37 0-2.48 1-2.48 2.2 0 1.2 1.1 2.2 2.48 2.2 1.37 0 2.48-1 2.48-2.2z"/><path fill="url(#aD)" d="M291.7-437.6c0 1.84-1.5 3.32-3.32 3.32-1.83 0-3.32-1.48-3.32-3.3 0-1.84 1.5-3.33 3.3-3.33 1.84 0 3.33 1.48 3.33 3.3z" transform="matrix(.749 0 0 -.662 -178.859 -275.321)"/></g><g><path fill="#c4c5c2" d="M43.5 12.67c0-1.2-1.1-2.2-2.48-2.2-1.37 0-2.48 1-2.48 2.2 0 1.2 1.1 2.2 2.48 2.2 1.37 0 2.48-1 2.48-2.2z"/><path fill="url(#aE)" d="M291.7-437.6c0 1.84-1.5 3.32-3.32 3.32-1.83 0-3.32-1.48-3.32-3.3 0-1.84 1.5-3.33 3.3-3.33 1.84 0 3.33 1.48 3.33 3.3z" transform="matrix(.749 0 0 -.662 -174.939 -276.527)"/></g><path fill="url(#aF)" stroke="#fff" stroke-opacity=".502" stroke-miterlimit="2" d="M2.87 16.67C2.13 17.4 2 19.32 2 20.4c0 1.44 1.2 2.7 2.64 3.4-.2.47-.48 1.1-.48 1.63 0 2.52 2.07 4.45 5.04 4.45.88 0 1.98-.53 2.7-.87.75 2.44 2.34 3.92 4.73 3.92 2.4 0 4.2-1.55 4.92-3.9.73.35 2.1.9 2.97.9 2.9 0 4.76-1.97 4.76-4.5 0-.52-.32-1.26-.5-1.73 1.43-.7 2.65-1.75 2.65-3.3 0-1-.64-1.86-1.32-3.05.67-1.2 1.34-2.23 1.34-3.3 0-1.53-1.2-2.57-2.66-3.27.2-.47.5-1.2.5-1.74 0-2.52-2.3-4.4-5.2-4.4-.88 0-1.8.46-2.52.8-.7-2.35-2.45-3.7-4.84-3.7-2.4 0-4.06 1.3-4.8 3.72-.72-.34-1.68-.8-2.56-.8-2.96 0-5.2 1.86-5.2 4.38 0 .53.3 1.3.5 1.76C3.2 11.5 2 12.63 2 14.06c0 1.06.17 1.88.87 2.6z" transform="matrix(.542 0 0 .542 27.535 3.762)"/><path fill="#888a85" fill-rule="evenodd" d="M44.18 8.88c0 1.43-1.98 1.98-1.98 1.98s1.42-.87 1.4-1.98c0 0 .58 0 .58 0z"/><path fill="url(#aG)" fill-rule="evenodd" d="M22.63 30.93c-2.88-.47-3.34-4.62-3.34-4.62s1.27 3.15 3.5 3.5c0 0-.17 1.13-.17 1.13z" transform="matrix(.542 0 0 .542 27.535 3.762)"/><path fill="url(#aH)" fill-rule="evenodd" d="M29.88 24.82c-2.83.72-4.9-2.9-4.9-2.9s2.42 2.36 4.6 1.8c0 0 .3 1.1.3 1.1z" transform="matrix(.542 0 0 .542 27.535 3.762)"/></g><g><path fill="#c4c5c2" stroke="url(#aI)" stroke-width="1.5" stroke-miterlimit="2" d="M31.42 17.3c.4.64 1.18 2.17 1.18 2.96 0 1.7-1.1 3.1-2.65 3.88.2.5.4 1.04.4 1.62 0 2.76-2.55 5-5.67 5-.95 0-1.8-.26-2.58-.63-.7 2.08-2.77 3.63-5.34 3.63s-4.65-1.55-5.34-3.63c-.8.37-1.64.63-2.58.63-3.13 0-5.66-2.24-5.66-5 0-.58.18-1.1.4-1.62C2 23.36.9 21.94.9 20.26c0-.9.3-3 .75-3.76-.5-.72-.74-1.5-.74-2.3 0-1.7 1.1-3.12 2.65-3.9-.2-.5-.4-1.03-.4-1.6 0-2.77 2.55-5 5.67-5 .95 0 1.8.25 2.58.6.7-2.06 2.77-3.6 5.34-3.6s4.65 1.54 5.34 3.6c.8-.35 1.65-.6 2.6-.6 3.12 0 5.65 2.23 5.65 5 0 .57-.18 1.1-.4 1.6 1.57.78 2.67 2.2 2.67 3.9 0 .76-.82 2.46-1.2 3.1z" transform="matrix(.542 0 0 .542 -.042 .109)"/><g><path fill="#c4c5c2" d="M11.1 3.18c0 1.06-.97 1.92-2.17 1.92s-2.17-.86-2.17-1.92.97-1.92 2.17-1.92 2.17.86 2.17 1.92z"/><path fill="url(#aJ)" d="M291.7-437.6c0 1.84-1.5 3.32-3.32 3.32-1.83 0-3.32-1.48-3.32-3.3 0-1.84 1.5-3.33 3.3-3.33 1.84 0 3.33 1.48 3.33 3.3z" transform="matrix(.655 0 0 .579 -179.925 256.498)"/></g><path fill="#c4c5c2" d="M3.16 4.5h12.4v4.94H3.17z"/><path fill="#c4c5c2" d="M5.07 7.96c0 .9-.83 1.64-1.86 1.64-1.02 0-1.85-.74-1.85-1.64 0-.9.83-1.65 1.86-1.65 1.04 0 1.87.75 1.87 1.66z"/><g><path fill="#c4c5c2" d="M15.44 4.82c0 1.06-.97 1.92-2.17 1.92s-2.17-.86-2.17-1.92.97-1.92 2.17-1.92 2.17.86 2.17 1.92z"/><path fill="url(#aK)" d="M291.7-437.6c0 1.84-1.5 3.32-3.32 3.32-1.83 0-3.32-1.48-3.32-3.3 0-1.84 1.5-3.33 3.3-3.33 1.84 0 3.33 1.48 3.33 3.3z" transform="matrix(.655 0 0 .579 -175.585 258.142)"/></g><g><path fill="#c4c5c2" d="M6.76 4.82c0 1.06-.97 1.92-2.17 1.92S2.4 5.88 2.4 4.82 3.4 2.9 4.6 2.9s2.16.86 2.16 1.92z"/><path fill="url(#aL)" d="M291.7-437.6c0 1.84-1.5 3.32-3.32 3.32-1.83 0-3.32-1.48-3.32-3.3 0-1.84 1.5-3.33 3.3-3.33 1.84 0 3.33 1.48 3.33 3.3z" transform="matrix(.655 0 0 .579 -184.265 258.142)"/></g><g><path fill="#c4c5c2" d="M8.32 2.9c-2.22 0-4 1.6-4 3.58 0 1.3.82 2.37 2 3h4c1.2-.63 2.03-1.72 2.03-3.02 0-1.96-1.8-3.55-4.03-3.55z"/><path fill="url(#aM)" d="M280.5-441c-3.6 0-6.5 2.9-6.5 6.5 0 2.38 1.34 4.37 3.25 5.5h6.5c1.9-1.13 3.25-3.12 3.25-5.5 0-3.6-2.9-6.5-6.5-6.5z" transform="matrix(.62 0 0 .548 -165.542 244.517)"/></g><path fill="url(#aN)" d="M291.7-437.6c0 1.84-1.5 3.32-3.32 3.32-1.83 0-3.32-1.48-3.32-3.3 0-1.84 1.5-3.33 3.3-3.33 1.84 0 3.33 1.48 3.33 3.3z" transform="matrix(.562 0 0 .496 -158.825 224.961)"/><g><path fill="#c4c5c2" d="M13.68 7.6c0 1.2-1.1 2.2-2.5 2.2-1.36 0-2.47-1-2.47-2.2 0-1.2 1.12-2.2 2.5-2.2 1.37 0 2.48 1 2.48 2.2z"/><path fill="url(#aO)" d="M291.7-437.6c0 1.84-1.5 3.32-3.32 3.32-1.83 0-3.32-1.48-3.32-3.3 0-1.84 1.5-3.33 3.3-3.33 1.84 0 3.33 1.48 3.33 3.3z" transform="matrix(.749 0 0 .662 -204.762 296.795)"/></g><g><path fill="#c4c5c2" d="M11.1 15.75c0-1.06-.98-1.92-2.18-1.92-1.2 0-2.17.86-2.17 1.92s.97 1.92 2.17 1.92 2.17-.86 2.17-1.92z"/><path fill="url(#aP)" d="M291.7-437.6c0 1.84-1.5 3.32-3.32 3.32-1.83 0-3.32-1.48-3.32-3.3 0-1.84 1.5-3.33 3.3-3.33 1.84 0 3.33 1.48 3.33 3.3z" transform="matrix(.655 0 0 -.579 -179.932 -237.574)"/></g><path fill="#c4c5c2" d="M3.16 14.4h12.4V9.5H3.16z"/><path fill="#c4c5c2" d="M5.07 10.97c0-.9-.84-1.64-1.87-1.64-1.02 0-1.86.73-1.86 1.64 0 .9.84 1.64 1.86 1.64 1.03 0 1.87-.72 1.87-1.63z"/><g><path fill="#c4c5c2" d="M15.43 14.1c0-1.05-.97-1.9-2.17-1.9s-2.17.85-2.17 1.9c0 1.07.96 1.92 2.16 1.92 1.2 0 2.17-.85 2.17-1.9z"/><path fill="url(#aQ)" d="M291.7-437.6c0 1.84-1.5 3.32-3.32 3.32-1.83 0-3.32-1.48-3.32-3.3 0-1.84 1.5-3.33 3.3-3.33 1.84 0 3.33 1.48 3.33 3.3z" transform="matrix(.655 0 0 -.579 -175.592 -239.218)"/></g><g><path fill="#c4c5c2" d="M6.75 14.1c0-1.05-.97-1.9-2.17-1.9s-2.17.85-2.17 1.9c0 1.07.98 1.92 2.18 1.92 1.2 0 2.17-.85 2.17-1.9z"/><path fill="url(#aR)" d="M291.7-437.6c0 1.84-1.5 3.32-3.32 3.32-1.83 0-3.32-1.48-3.32-3.3 0-1.84 1.5-3.33 3.3-3.33 1.84 0 3.33 1.48 3.33 3.3z" transform="matrix(.655 0 0 -.579 -184.272 -239.218)"/></g><g><path fill="#c4c5c2" d="M8.3 16c-2.2 0-4-1.6-4-3.55 0-1.3.84-2.37 2-3h4.02c1.18.63 2.02 1.72 2.02 3.02 0 1.96-1.8 3.54-4.03 3.54z"/><path fill="url(#aS)" d="M280.5-441c-3.6 0-6.5 2.9-6.5 6.5 0 2.38 1.34 4.37 3.25 5.5h6.5c1.9-1.13 3.25-3.12 3.25-5.5 0-3.6-2.9-6.5-6.5-6.5z" transform="matrix(.62 0 0 -.548 -165.549 -225.593)"/></g><path fill="url(#aT)" d="M291.7-437.6c0 1.84-1.5 3.32-3.32 3.32-1.83 0-3.32-1.48-3.32-3.3 0-1.84 1.5-3.33 3.3-3.33 1.84 0 3.33 1.48 3.33 3.3z" transform="matrix(.562 0 0 -.496 -158.832 -206.037)"/><g><path fill="#c4c5c2" d="M12 10.22c0-1.2-1.1-2.2-2.48-2.2-1.37 0-2.48 1-2.48 2.2 0 1.2 1.1 2.2 2.48 2.2 1.37 0 2.48-1 2.48-2.2z"/><path fill="url(#aU)" d="M291.7-437.6c0 1.84-1.5 3.32-3.32 3.32-1.83 0-3.32-1.48-3.32-3.3 0-1.84 1.5-3.33 3.3-3.33 1.84 0 3.33 1.48 3.33 3.3z" transform="matrix(.749 0 0 -.662 -206.436 -278.974)"/></g><g><path fill="#c4c5c2" d="M15.92 9.02c0-1.2-1.1-2.2-2.48-2.2-1.37 0-2.48 1-2.48 2.2 0 1.2 1.1 2.2 2.48 2.2 1.37 0 2.48-1 2.48-2.2z"/><path fill="url(#aV)" d="M291.7-437.6c0 1.84-1.5 3.32-3.32 3.32-1.83 0-3.32-1.48-3.32-3.3 0-1.84 1.5-3.33 3.3-3.33 1.84 0 3.33 1.48 3.33 3.3z" transform="matrix(.749 0 0 -.662 -202.516 -280.18)"/></g><path fill="url(#aW)" stroke="#fff" stroke-opacity=".502" stroke-miterlimit="2" d="M2.87 16.67C2.13 17.4 2 19.32 2 20.4c0 1.44 1.2 2.7 2.64 3.4-.2.47-.48 1.1-.48 1.63 0 2.52 2.07 4.45 5.04 4.45.88 0 1.98-.53 2.7-.87.75 2.44 2.34 3.92 4.73 3.92 2.4 0 4.2-1.55 4.92-3.9.73.35 2.1.9 2.97.9 2.9 0 4.76-1.97 4.76-4.5 0-.52-.32-1.26-.5-1.73 1.43-.7 2.65-1.75 2.65-3.3 0-1-.64-1.86-1.32-3.05.67-1.2 1.34-2.23 1.34-3.3 0-1.53-1.2-2.57-2.66-3.27.2-.47.5-1.2.5-1.74 0-2.52-2.3-4.4-5.2-4.4-.88 0-1.8.46-2.52.8-.7-2.35-2.45-3.7-4.84-3.7-2.4 0-4.06 1.3-4.8 3.72-.72-.34-1.68-.8-2.56-.8-2.96 0-5.2 1.86-5.2 4.38 0 .53.3 1.3.5 1.76C3.2 11.5 2 12.63 2 14.06c0 1.06.17 1.88.87 2.6z" transform="matrix(.542 0 0 .542 -.042 .109)"/><path fill="#888a85" fill-rule="evenodd" d="M16.6 5.22c0 1.44-1.98 2-1.98 2s1.42-.88 1.42-2c0 0 .56 0 .56 0z"/><path fill="url(#aX)" fill-rule="evenodd" d="M22.63 30.93c-2.88-.47-3.34-4.62-3.34-4.62s1.27 3.15 3.5 3.5c0 0-.17 1.13-.17 1.13z" transform="matrix(.542 0 0 .542 -.042 .109)"/><path fill="url(#aY)" fill-rule="evenodd" d="M29.88 24.82c-2.83.72-4.9-2.9-4.9-2.9s2.42 2.36 4.6 1.8c0 0 .3 1.1.3 1.1z" transform="matrix(.542 0 0 .542 -.042 .109)"/></g><path fill="none" stroke="#fff" stroke-miterlimit="6" d="M108.02-3.18v12.3h-5.98L92.3 28l-.45-18.87H85.8v-12.3H108z" color="#000" overflow="visible"/><g><path fill="#c4c5c2" stroke="url(#aZ)" stroke-width="1.5" stroke-miterlimit="2" d="M31.42 17.3c.4.64 1.18 2.17 1.18 2.96 0 1.7-1.1 3.1-2.65 3.88.2.5.4 1.04.4 1.62 0 2.76-2.55 5-5.67 5-.95 0-1.8-.26-2.58-.63-.7 2.08-2.77 3.63-5.34 3.63s-4.65-1.55-5.34-3.63c-.8.37-1.64.63-2.58.63-3.13 0-5.66-2.24-5.66-5 0-.58.18-1.1.4-1.62C2 23.36.9 21.94.9 20.26c0-.9.3-3 .75-3.76-.5-.72-.74-1.5-.74-2.3 0-1.7 1.1-3.12 2.65-3.9-.2-.5-.4-1.03-.4-1.6 0-2.77 2.55-5 5.67-5 .95 0 1.8.25 2.58.6.7-2.06 2.77-3.6 5.34-3.6s4.65 1.54 5.34 3.6c.8-.35 1.65-.6 2.6-.6 3.12 0 5.65 2.23 5.65 5 0 .57-.18 1.1-.4 1.6 1.57.78 2.67 2.2 2.67 3.9 0 .76-.82 2.46-1.2 3.1z" transform="matrix(.542 0 0 .542 17.577 15.43)"/><g><path fill="#c4c5c2" d="M28.72 18.5c0 1.06-.97 1.92-2.17 1.92s-2.17-.86-2.17-1.92.97-1.92 2.17-1.92 2.17.86 2.17 1.92z"/><path fill="url(#ba)" d="M291.7-437.6c0 1.84-1.5 3.32-3.32 3.32-1.83 0-3.32-1.48-3.32-3.3 0-1.84 1.5-3.33 3.3-3.33 1.84 0 3.33 1.48 3.33 3.3z" transform="matrix(.655 0 0 .579 -162.306 271.819)"/></g><path fill="#c4c5c2" d="M20.78 19.83h12.4v4.93H20.8z"/><path fill="#c4c5c2" d="M22.7 23.28c0 .9-.84 1.64-1.87 1.64-1.03 0-1.86-.73-1.86-1.64 0-.9.83-1.64 1.86-1.64 1.03 0 1.86.73 1.86 1.64z"/><g><path fill="#c4c5c2" d="M33.06 20.14c0 1.06-.97 1.92-2.17 1.92s-2.18-.86-2.18-1.92.97-1.9 2.17-1.9 2.16.84 2.16 1.9z"/><path fill="url(#bb)" d="M291.7-437.6c0 1.84-1.5 3.32-3.32 3.32-1.83 0-3.32-1.48-3.32-3.3 0-1.84 1.5-3.33 3.3-3.33 1.84 0 3.33 1.48 3.33 3.3z" transform="matrix(.655 0 0 .579 -157.966 273.463)"/></g><g><path fill="#c4c5c2" d="M24.38 20.14c0 1.06-.97 1.92-2.17 1.92s-2.16-.86-2.16-1.92.97-1.9 2.17-1.9 2.18.84 2.18 1.9z"/><path fill="url(#bc)" d="M291.7-437.6c0 1.84-1.5 3.32-3.32 3.32-1.83 0-3.32-1.48-3.32-3.3 0-1.84 1.5-3.33 3.3-3.33 1.84 0 3.33 1.48 3.33 3.3z" transform="matrix(.655 0 0 .579 -166.646 273.463)"/></g><g><path fill="#c4c5c2" d="M25.94 18.23c-2.22 0-4.02 1.6-4.02 3.57 0 1.3.84 2.37 2.02 3h4c1.2-.63 2.03-1.72 2.03-3.02 0-1.96-1.82-3.55-4.03-3.55z"/><path fill="url(#bd)" d="M280.5-441c-3.6 0-6.5 2.9-6.5 6.5 0 2.38 1.34 4.37 3.25 5.5h6.5c1.9-1.13 3.25-3.12 3.25-5.5 0-3.6-2.9-6.5-6.5-6.5z" transform="matrix(.62 0 0 .548 -147.923 259.838)"/></g><path fill="url(#be)" d="M291.7-437.6c0 1.84-1.5 3.32-3.32 3.32-1.83 0-3.32-1.48-3.32-3.3 0-1.84 1.5-3.33 3.3-3.33 1.84 0 3.33 1.48 3.33 3.3z" transform="matrix(.562 0 0 .496 -141.206 240.282)"/><g><path fill="#c4c5c2" d="M31.3 22.92c0 1.2-1.12 2.2-2.5 2.2-1.36 0-2.47-1-2.47-2.2 0-1.2 1.1-2.2 2.48-2.2s2.5 1 2.5 2.2z"/><path fill="url(#bf)" d="M291.7-437.6c0 1.84-1.5 3.32-3.32 3.32-1.83 0-3.32-1.48-3.32-3.3 0-1.84 1.5-3.33 3.3-3.33 1.84 0 3.33 1.48 3.33 3.3z" transform="matrix(.749 0 0 .662 -187.143 312.116)"/></g><g><path fill="#c4c5c2" d="M28.7 31.07c0-1.06-.96-1.92-2.16-1.92-1.2 0-2.17.86-2.17 1.92S25.34 33 26.54 33s2.17-.87 2.17-1.93z"/><path fill="url(#bg)" d="M291.7-437.6c0 1.84-1.5 3.32-3.32 3.32-1.83 0-3.32-1.48-3.32-3.3 0-1.84 1.5-3.33 3.3-3.33 1.84 0 3.33 1.48 3.33 3.3z" transform="matrix(.655 0 0 -.579 -162.313 -222.253)"/></g><path fill="#c4c5c2" d="M20.78 29.74h12.4V24.8h-12.4z"/><path fill="#c4c5c2" d="M22.68 26.3c0-.92-.83-1.65-1.86-1.65-1.03 0-1.86.73-1.86 1.64 0 .9.83 1.63 1.86 1.63 1.03 0 1.86-.73 1.86-1.64z"/><g><path fill="#c4c5c2" d="M33.05 29.43c0-1.06-.97-1.92-2.17-1.92s-2.17.87-2.17 1.93.98 1.9 2.18 1.9c1.2 0 2.17-.84 2.17-1.9z"/><path fill="url(#bh)" d="M291.7-437.6c0 1.84-1.5 3.32-3.32 3.32-1.83 0-3.32-1.48-3.32-3.3 0-1.84 1.5-3.33 3.3-3.33 1.84 0 3.33 1.48 3.33 3.3z" transform="matrix(.655 0 0 -.579 -157.973 -223.897)"/></g><g><path fill="#c4c5c2" d="M24.37 29.43c0-1.06-.97-1.92-2.17-1.92s-2.17.87-2.17 1.93.97 1.9 2.17 1.9 2.17-.84 2.17-1.9z"/><path fill="url(#bi)" d="M291.7-437.6c0 1.84-1.5 3.32-3.32 3.32-1.83 0-3.32-1.48-3.32-3.3 0-1.84 1.5-3.33 3.3-3.33 1.84 0 3.33 1.48 3.33 3.3z" transform="matrix(.655 0 0 -.579 -166.653 -223.897)"/></g><g><path fill="#c4c5c2" d="M25.93 31.33c-2.22 0-4-1.6-4-3.56 0-1.3.82-2.37 2-3h4c1.2.63 2.03 1.72 2.03 3.02 0 1.95-1.8 3.53-4.03 3.53z"/><path fill="url(#bj)" d="M280.5-441c-3.6 0-6.5 2.9-6.5 6.5 0 2.38 1.34 4.37 3.25 5.5h6.5c1.9-1.13 3.25-3.12 3.25-5.5 0-3.6-2.9-6.5-6.5-6.5z" transform="matrix(.62 0 0 -.548 -147.93 -210.272)"/></g><path fill="url(#bk)" d="M291.7-437.6c0 1.84-1.5 3.32-3.32 3.32-1.83 0-3.32-1.48-3.32-3.3 0-1.84 1.5-3.33 3.3-3.33 1.84 0 3.33 1.48 3.33 3.3z" transform="matrix(.562 0 0 -.496 -141.213 -190.716)"/><g><path fill="#c4c5c2" d="M29.62 25.55c0-1.2-1.1-2.2-2.48-2.2-1.37 0-2.48 1-2.48 2.2 0 1.2 1.1 2.2 2.48 2.2 1.37 0 2.48-1 2.48-2.2z"/><path fill="url(#bl)" d="M291.7-437.6c0 1.84-1.5 3.32-3.32 3.32-1.83 0-3.32-1.48-3.32-3.3 0-1.84 1.5-3.33 3.3-3.33 1.84 0 3.33 1.48 3.33 3.3z" transform="matrix(.749 0 0 -.662 -188.817 -263.653)"/></g><g><path fill="#c4c5c2" d="M33.54 24.34c0-1.2-1.1-2.2-2.48-2.2-1.37 0-2.48 1-2.48 2.2 0 1.2 1.1 2.2 2.48 2.2 1.37 0 2.48-1 2.48-2.2z"/><path fill="url(#bm)" d="M291.7-437.6c0 1.84-1.5 3.32-3.32 3.32-1.83 0-3.32-1.48-3.32-3.3 0-1.84 1.5-3.33 3.3-3.33 1.84 0 3.33 1.48 3.33 3.3z" transform="matrix(.749 0 0 -.662 -184.897 -264.859)"/></g><path fill="url(#bn)" stroke="#fff" stroke-opacity=".502" stroke-miterlimit="2" d="M2.87 16.67C2.13 17.4 2 19.32 2 20.4c0 1.44 1.2 2.7 2.64 3.4-.2.47-.48 1.1-.48 1.63 0 2.52 2.07 4.45 5.04 4.45.88 0 1.98-.53 2.7-.87.75 2.44 2.34 3.92 4.73 3.92 2.4 0 4.2-1.55 4.92-3.9.73.35 2.1.9 2.97.9 2.9 0 4.76-1.97 4.76-4.5 0-.52-.32-1.26-.5-1.73 1.43-.7 2.65-1.75 2.65-3.3 0-1-.64-1.86-1.32-3.05.67-1.2 1.34-2.23 1.34-3.3 0-1.53-1.2-2.57-2.66-3.27.2-.47.5-1.2.5-1.74 0-2.52-2.3-4.4-5.2-4.4-.88 0-1.8.46-2.52.8-.7-2.35-2.45-3.7-4.84-3.7-2.4 0-4.06 1.3-4.8 3.72-.72-.34-1.68-.8-2.56-.8-2.96 0-5.2 1.86-5.2 4.38 0 .53.3 1.3.5 1.76C3.2 11.5 2 12.63 2 14.06c0 1.06.17 1.88.87 2.6z" transform="matrix(.542 0 0 .542 17.577 15.43)"/><path fill="#888a85" fill-rule="evenodd" d="M34.22 20.54c0 1.44-1.98 2-1.98 2s1.42-.88 1.42-2c0 0 .56 0 .56 0z"/><path fill="url(#bo)" fill-rule="evenodd" d="M22.63 30.93c-2.88-.47-3.34-4.62-3.34-4.62s1.27 3.15 3.5 3.5c0 0-.17 1.13-.17 1.13z" transform="matrix(.542 0 0 .542 17.577 15.43)"/><path fill="url(#bp)" fill-rule="evenodd" d="M29.88 24.82c-2.83.72-4.9-2.9-4.9-2.9s2.42 2.36 4.6 1.8c0 0 .3 1.1.3 1.1z" transform="matrix(.542 0 0 .542 17.577 15.43)"/></g><g transform="translate(43.428 7.012)"><path fill="url(#bq)" d="M-38.75-8.2c.36.65 4.38 7.87 4.82 8.7-.73.32-2.53 1.24-3.2 1.53-.35-.8-3.6-9.37-3.98-10.24h2.35z"/><path fill="url(#br)" d="M-42.23-8.2l4.58 11.53L-32.53 1l-5.06-9.2h-4.63zm3.48 0c.35.65 4.38 7.87 4.82 8.7-.73.32-2.53 1.24-3.2 1.52-.35-.78-3.6-9.36-3.98-10.23h2.35z"/><circle cx="21.513" cy="460.337" r="2.072" fill="none" stroke="#152a4c" stroke-width="1.5" transform="translate(-56.694 -458.336)"/><circle cx="21.513" cy="460.337" r="2.072" fill="url(#bs)" transform="translate(-56.694 -458.336)"/><g transform="translate(-56.694 -458.336)"><radialGradient cx="20.523" cy="458.587" r="4.066" gradientUnits="userSpaceOnUse" fy="458.587" fx="20.523"><stop offset="0" stop-color="#fff"/><stop offset=".685" stop-color="#2E659E"/><stop offset="1" stop-color="#1D3E63"/></radialGradient><path fill="url(#bt)" d="M19.44 460.34c0 1.14.93 2.07 2.07 2.07.57 0 1.1-.2 1.48-.6.4-.4.6-.9.6-1.46 0-.56-.2-1.08-.6-1.47-.4-.4-.9-.6-1.47-.6-1.13 0-2.06.92-2.06 2.07zm.15 0c0-1.06.85-1.92 1.9-1.92.53 0 1 .2 1.37.56.36.36.56.84.56 1.36 0 .5-.2 1-.56 1.35-.36.36-.84.56-1.36.56-1.05 0-1.9-.86-1.9-1.92z"/></g></g><g transform="translate(53.328 9.31)"><path fill="url(#bu)" d="M-8.02-3.2c-.5.55-5.9 6.8-6.55 7.5-.55-.58-2.02-1.96-2.52-2.5.63-.6 7.58-6.57 8.27-7.23l.8 2.22z"/><path fill="url(#bv)" d="M-9.2-6.5l-9.3 8.27 3.95 4 6.92-7.9-1.58-4.36zm1.18 3.3c-.5.55-5.9 6.8-6.55 7.5-.54-.6-2.02-1.96-2.52-2.5.63-.6 7.58-6.58 8.27-7.23l.8 2.22z" color="#000" overflow="visible"/><circle cx="21.513" cy="460.337" r="2.072" fill="none" stroke="#152a4c" stroke-width="1.5" transform="translate(-37.741 -456.931)"/><circle cx="21.513" cy="460.337" r="2.072" fill="url(#bw)" transform="translate(-37.741 -456.931)"/><g transform="translate(-37.741 -456.931)"><radialGradient cx="20.523" cy="458.587" r="4.066" gradientUnits="userSpaceOnUse" fy="458.587" fx="20.523"><stop offset="0" stop-color="#fff"/><stop offset=".685" stop-color="#2E659E"/><stop offset="1" stop-color="#1D3E63"/></radialGradient><path fill="url(#bx)" d="M19.44 460.34c0 1.14.93 2.07 2.07 2.07.57 0 1.1-.2 1.48-.6.4-.4.6-.9.6-1.46 0-.56-.2-1.08-.6-1.47-.4-.4-.9-.6-1.47-.6-1.13 0-2.06.92-2.06 2.07zm.15 0c0-1.06.85-1.92 1.9-1.92.53 0 1 .2 1.37.56.36.36.56.84.56 1.36 0 .5-.2 1-.56 1.35-.36.36-.84.56-1.36.56-1.05 0-1.9-.86-1.9-1.92z"/></g></g><g><path fill="url(#by)" d="M-3.27 23.27c-.75-.03-9-.16-9.96-.2.1-.78.2-2.8.3-3.53.85.1 9.9 1.57 10.84 1.68l-1.17 2.05z" transform="translate(40.659 3.83)"/><g fill="url(#bz)" transform="translate(40.659 3.83) translate(-56.694 -458.336)" color="#000" overflow="visible"><linearGradient x1="374.189" x2="369.202" y1="61.18" y2="50.099" gradientUnits="userSpaceOnUse" gradientTransform="matrix(-.5 .866 -.866 -.5 282.712 186.124)"><stop offset="0" stop-color="#88A9C3"/><stop offset="1" stop-color="#fff"/></linearGradient><path fill="url(#bA)" d="M55.17 478.58l-12.3-1.8-.53 5.6 10.5.22 2.33-4.02zm-1.75 3.02c-.74-.03-9-.15-9.96-.18.1-.8.2-2.8.3-3.54.85.1 9.9 1.57 10.85 1.67l-1.18 2.05z" overflow="visible"/></g><g transform="translate(5.293 -435.244)"><circle cx="21.513" cy="460.337" r="2.072" fill="none" stroke="#152a4c" stroke-width="1.5"/><circle cx="21.513" cy="460.337" r="2.072" fill="url(#bB)"/><g><radialGradient cx="20.523" cy="458.587" r="4.066" fx="20.523" fy="458.587" gradientUnits="userSpaceOnUse"><stop offset="0" stop-color="#fff"/><stop offset=".685" stop-color="#2E659E"/><stop offset="1" stop-color="#1D3E63"/></radialGradient><path fill="url(#bC)" d="M19.44 460.34c0 1.14.93 2.07 2.07 2.07.57 0 1.1-.2 1.48-.6.4-.4.6-.9.6-1.46 0-.56-.2-1.08-.6-1.47-.4-.4-.9-.6-1.47-.6-1.13 0-2.06.92-2.06 2.07zm.15 0c0-1.06.85-1.92 1.9-1.92.53 0 1 .2 1.37.56.36.36.56.84.56 1.36 0 .5-.2 1-.56 1.35-.36.36-.84.56-1.36.56-1.05 0-1.9-.86-1.9-1.92z"/></g></g></g><g><path fill="url(#bD)" d="M-24.3 42.32c-.22-.7-2.93-8.52-3.23-9.42.78-.18 2.7-.77 3.43-.94.2.84 1.9 9.85 2.14 10.77l-2.34-.4z" transform="translate(60.87 6.305)"/><g fill="url(#bE)" transform="translate(60.87 6.305) translate(-56.694 -458.336)" color="#000" overflow="visible"><linearGradient x1="66.343" x2="61.356" y1="-178.057" y2="-189.137" gradientUnits="userSpaceOnUse" gradientTransform="matrix(-.985 -.174 .174 -.985 126.852 325.995)"><stop fill="url(#bF)" offset="0" stop-color="#88A9C3"/><stop fill="url(#bF)" offset="1" stop-color="#fff"/></linearGradient><path fill="url(#bG)" d="M35.83 501.26l-2.5-12.16-5.45 1.4 3.38 9.96 4.57.8zm-3.43-.6c-.23-.72-2.94-8.52-3.23-9.42.78-.2 2.7-.77 3.42-.94.2.84 1.9 9.85 2.13 10.77l-2.33-.4z" overflow="visible"/></g><g transform="translate(13.427 -422.447)"><circle cx="21.513" cy="460.337" r="2.072" fill="none" stroke="#152a4c" stroke-width="1.5"/><circle cx="21.513" cy="460.337" r="2.072" fill="url(#bH)"/><g><radialGradient cx="20.523" cy="458.587" r="4.066" fx="20.523" fy="458.587" gradientUnits="userSpaceOnUse"><stop offset="0" stop-color="#fff"/><stop offset=".685" stop-color="#2E659E"/><stop offset="1" stop-color="#1D3E63"/></radialGradient><path fill="url(#bI)" d="M19.44 460.34c0 1.14.93 2.07 2.07 2.07.57 0 1.1-.2 1.48-.6.4-.4.6-.9.6-1.46 0-.56-.2-1.08-.6-1.47-.4-.4-.9-.6-1.47-.6-1.13 0-2.06.92-2.06 2.07zm.15 0c0-1.06.85-1.92 1.9-1.92.53 0 1 .2 1.37.56.36.36.56.84.56 1.36 0 .5-.2 1-.56 1.35-.36.36-.84.56-1.36.56-1.05 0-1.9-.86-1.9-1.92z"/></g></g></g><g><path fill="url(#bJ)" d="M-47.73 37.65c.34-.67 3.94-8.1 4.38-8.95.68.42 2.45 1.37 3.08 1.76-.45.74-5.6 8.3-6.1 9.13l-1.36-1.95z" transform="translate(54.624 3.359)"/><g fill="url(#bK)" transform="translate(54.624 3.359) translate(-56.694 -458.336)" color="#000" overflow="visible"><linearGradient x1="-165.394" x2="-170.38" y1="-93.119" y2="-104.198" gradientUnits="userSpaceOnUse" gradientTransform="matrix(-.574 -.819 .819 -.574 -3.236 298.158)"><stop fill="url(#bL)" offset="0" stop-color="#88A9C3"/><stop fill="url(#bL)" offset="1" stop-color="#fff"/></linearGradient><path fill="url(#bM)" d="M10.96 498.84l6.82-10.37-4.84-2.86-4.64 9.44 2.66 3.8zm-2-2.85c.34-.68 3.94-8.12 4.38-8.96.68.42 2.46 1.37 3.08 1.76-.45.73-5.6 8.3-6.1 9.13L8.96 496z" overflow="visible"/></g><g transform="translate(-8.405 -427.871)"><circle cx="21.513" cy="460.337" r="2.072" fill="none" stroke="#152a4c" stroke-width="1.5"/><circle cx="21.513" cy="460.337" r="2.072" fill="url(#bN)"/><g><radialGradient cx="20.523" cy="458.587" r="4.066" fx="20.523" fy="458.587" gradientUnits="userSpaceOnUse"><stop offset="0" stop-color="#fff"/><stop offset=".685" stop-color="#2E659E"/><stop offset="1" stop-color="#1D3E63"/></radialGradient><path fill="url(#bO)" d="M19.44 460.34c0 1.14.93 2.07 2.07 2.07.57 0 1.1-.2 1.48-.6.4-.4.6-.9.6-1.46 0-.56-.2-1.08-.6-1.47-.4-.4-.9-.6-1.47-.6-1.13 0-2.06.92-2.06 2.07zm.15 0c0-1.06.85-1.92 1.9-1.92.53 0 1 .2 1.37.56.36.36.56.84.56 1.36 0 .5-.2 1-.56 1.35-.36.36-.84.56-1.36.56-1.05 0-1.9-.86-1.9-1.92z"/></g></g></g><g><path fill="url(#bP)" d="M-54.02 7.65c.7.28 8.42 3.22 9.3 3.58-.37.7-1.16 2.57-1.5 3.22-.76-.38-8.76-4.86-9.6-5.28l1.8-1.52z" transform="translate(65.348 2.711)"/><g fill="url(#bQ)" transform="translate(65.348 2.711) translate(-56.694 -458.336)" color="#000" overflow="visible"><linearGradient x1="-187.844" x2="-192.831" y1="353.518" y2="342.438" gradientUnits="userSpaceOnUse" gradientTransform="matrix(.766 -.643 .643 .766 -71.234 80.032)"><stop fill="url(#bR)" offset="0" stop-color="#88A9C3"/><stop fill="url(#bR)" offset="1" stop-color="#fff"/></linearGradient><path fill="url(#bS)" d="M0 468.23l10.93 5.9 2.42-5.08-9.8-3.8L0 468.22zm2.67-2.25c.7.3 8.42 3.23 9.3 3.58-.37.72-1.15 2.57-1.5 3.23-.76-.4-8.76-4.88-9.6-5.3l1.8-1.52z" overflow="visible"/></g><g transform="translate(-.984 -444.621)"><circle cx="21.513" cy="460.337" r="2.072" fill="none" stroke="#152a4c" stroke-width="1.5"/><circle cx="21.513" cy="460.337" r="2.072" fill="url(#bT)"/><g><radialGradient cx="20.523" cy="458.587" r="4.066" fx="20.523" fy="458.587" gradientUnits="userSpaceOnUse"><stop offset="0" stop-color="#fff"/><stop offset=".685" stop-color="#2E659E"/><stop offset="1" stop-color="#1D3E63"/></radialGradient><path fill="url(#bU)" d="M19.44 460.34c0 1.14.93 2.07 2.07 2.07.57 0 1.1-.2 1.48-.6.4-.4.6-.9.6-1.46 0-.56-.2-1.08-.6-1.47-.4-.4-.9-.6-1.47-.6-1.13 0-2.06.92-2.06 2.07zm.15 0c0-1.06.85-1.92 1.9-1.92.53 0 1 .2 1.37.56.36.36.56.84.56 1.36 0 .5-.2 1-.56 1.35-.36.36-.84.56-1.36.56-1.05 0-1.9-.86-1.9-1.92z"/></g></g></g></g></svg>