<svg xmlns="http://www.w3.org/2000/svg" width="48" height="48" xmlns:xlink="http://www.w3.org/1999/xlink"><defs><linearGradient id="j"><stop offset="0" stop-color="#74726e"/><stop offset="1" stop-color="#5d5b58" stop-opacity="0"/></linearGradient><linearGradient id="i"><stop offset="0" stop-color="#5d5b58"/><stop offset="1" stop-color="#5d5b58" stop-opacity="0"/></linearGradient><linearGradient id="h"><stop offset="0" stop-color="#888a85"/><stop offset="1" stop-color="#51534f"/></linearGradient><linearGradient id="a"><stop offset="0" stop-color="#2e3436" stop-opacity=".619"/><stop offset="1" stop-color="#2e3436" stop-opacity="0"/></linearGradient><linearGradient id="f"><stop offset="0" stop-color="#fff"/><stop offset="1" stop-color="#fff" stop-opacity="0"/></linearGradient><linearGradient id="e"><stop offset="0" stop-color="#fff"/><stop offset="1" stop-color="#fff" stop-opacity="0"/></linearGradient><linearGradient id="d"><stop offset="0" stop-color="#fff"/><stop offset="1" stop-color="#fff" stop-opacity="0"/></linearGradient><linearGradient id="c"><stop offset="0" stop-color="#fff"/><stop offset="1" stop-color="#fff" stop-opacity="0"/></linearGradient><linearGradient id="b"><stop offset="0" stop-color="#fff"/><stop offset="1" stop-color="#fff" stop-opacity="0"/></linearGradient><linearGradient id="g"><stop offset="0" stop-color="#fff"/><stop offset="1" stop-color="#fff" stop-opacity="0"/></linearGradient><radialGradient id="l" cx="23.335" cy="44.42" r="18.562" xlink:href="#a" gradientUnits="userSpaceOnUse" gradientTransform="matrix(1 0 0 .193 0 35.854)" fx="23.335" fy="44.42"/><linearGradient id="n" x1="287.517" x2="289.676" y1="-439.753" y2="-436.322" xlink:href="#b" gradientUnits="userSpaceOnUse"/><linearGradient id="o" x1="286.512" x2="289.854" y1="-441.291" y2="-436.145" xlink:href="#c" gradientUnits="userSpaceOnUse"/><linearGradient id="p" x1="285.941" x2="289.391" y1="-439.939" y2="-436.443" xlink:href="#d" gradientUnits="userSpaceOnUse"/><linearGradient id="q" x1="275.942" x2="279.975" y1="-437.105" y2="-431.918" xlink:href="#e" gradientUnits="userSpaceOnUse"/><linearGradient id="r" x1="286.666" x2="289.766" y1="-439.484" y2="-436.707" xlink:href="#f" gradientUnits="userSpaceOnUse"/><linearGradient id="s" x1="284.802" x2="288.9" y1="-441.233" y2="-436.831" xlink:href="#d" gradientUnits="userSpaceOnUse"/><linearGradient id="t" x1="286.246" x2="290.121" y1="-434.732" y2="-439.69" xlink:href="#b" gradientUnits="userSpaceOnUse"/><linearGradient id="u" x1="287.147" x2="289.473" y1="-434.809" y2="-437.594" xlink:href="#c" gradientUnits="userSpaceOnUse"/><linearGradient id="v" x1="286.014" x2="288.375" y1="-435.546" y2="-438.971" xlink:href="#d" gradientUnits="userSpaceOnUse"/><linearGradient id="w" x1="276.614" x2="283.463" y1="-431" y2="-438.722" xlink:href="#g" gradientUnits="userSpaceOnUse"/><linearGradient id="x" x1="286.295" x2="289.395" y1="-435.628" y2="-438.19" xlink:href="#f" gradientUnits="userSpaceOnUse"/><linearGradient id="y" x1="286.415" x2="290.078" y1="-435.784" y2="-439.289" xlink:href="#d" gradientUnits="userSpaceOnUse"/><linearGradient id="z" x1="286.415" x2="288.375" y1="-435.784" y2="-437.888" xlink:href="#d" gradientUnits="userSpaceOnUse"/><radialGradient id="D" cx="23.335" cy="44.42" r="18.562" xlink:href="#a" gradientUnits="userSpaceOnUse" gradientTransform="matrix(1 0 0 .193 0 35.854)" fx="23.335" fy="44.42"/><linearGradient x1="20.73" x2="23.296" y1="29.815" y2="45.056" xlink:href="#h" gradientUnits="userSpaceOnUse" gradientTransform="matrix(.989 0 0 .989 .265 .251)"/><linearGradient id="F" x1="287.517" x2="289.676" y1="-439.753" y2="-436.322" xlink:href="#b" gradientUnits="userSpaceOnUse"/><linearGradient id="G" x1="286.512" x2="289.854" y1="-441.291" y2="-436.145" xlink:href="#c" gradientUnits="userSpaceOnUse"/><linearGradient id="H" x1="285.941" x2="289.391" y1="-439.939" y2="-436.443" xlink:href="#d" gradientUnits="userSpaceOnUse"/><linearGradient id="I" x1="275.942" x2="279.975" y1="-437.105" y2="-431.918" xlink:href="#e" gradientUnits="userSpaceOnUse"/><linearGradient id="J" x1="286.666" x2="289.766" y1="-439.484" y2="-436.707" xlink:href="#f" gradientUnits="userSpaceOnUse"/><linearGradient id="K" x1="284.802" x2="288.9" y1="-441.233" y2="-436.831" xlink:href="#d" gradientUnits="userSpaceOnUse"/><linearGradient id="L" x1="286.246" x2="290.121" y1="-434.732" y2="-439.69" xlink:href="#b" gradientUnits="userSpaceOnUse"/><linearGradient id="M" x1="287.147" x2="289.473" y1="-434.809" y2="-437.594" xlink:href="#c" gradientUnits="userSpaceOnUse"/><linearGradient id="N" x1="286.014" x2="288.375" y1="-435.546" y2="-438.971" xlink:href="#d" gradientUnits="userSpaceOnUse"/><linearGradient id="O" x1="276.614" x2="283.463" y1="-431" y2="-438.722" xlink:href="#g" gradientUnits="userSpaceOnUse"/><linearGradient id="P" x1="286.295" x2="289.395" y1="-435.628" y2="-438.19" xlink:href="#f" gradientUnits="userSpaceOnUse"/><linearGradient id="Q" x1="286.415" x2="290.078" y1="-435.784" y2="-439.289" xlink:href="#d" gradientUnits="userSpaceOnUse"/><linearGradient id="U" x1="286.415" x2="288.375" y1="-435.784" y2="-437.888" xlink:href="#d" gradientUnits="userSpaceOnUse"/><linearGradient x1="271.022" x2="285.029" y1="-441.052" y2="-431.97" xlink:href="#g" gradientUnits="userSpaceOnUse" gradientTransform="matrix(1.452 0 0 1.286 -383.21 574.384)"/><linearGradient x1="29.124" x2="27.356" y1="38.897" y2="34.879" xlink:href="#i" gradientUnits="userSpaceOnUse"/><linearGradient x1="29.124" x2="27.356" y1="38.897" y2="34.879" xlink:href="#j" gradientUnits="userSpaceOnUse" gradientTransform="matrix(.917 -.399 .399 .917 -4.08 7.972)"/><linearGradient id="C" x1="29.124" x2="27.356" y1="38.897" y2="34.879" xlink:href="#j" gradientUnits="userSpaceOnUse" gradientTransform="matrix(.575 -.25 .25 .575 -3.693 5.223)"/><linearGradient id="B" x1="29.124" x2="27.356" y1="38.897" y2="34.879" xlink:href="#i" gradientUnits="userSpaceOnUse" gradientTransform="matrix(.627 0 0 .627 -1.135 .224)"/><linearGradient id="A" x1="271.022" x2="285.029" y1="-441.052" y2="-431.97" xlink:href="#g" gradientUnits="userSpaceOnUse" gradientTransform="matrix(.91 0 0 .806 -241.434 360.403)"/><linearGradient id="m" x1="20.73" x2="23.296" y1="29.815" y2="45.056" xlink:href="#h" gradientUnits="userSpaceOnUse" gradientTransform="matrix(.62 0 0 .62 -.968 .381)"/><linearGradient id="T" x1="29.124" x2="27.356" y1="38.897" y2="34.879" xlink:href="#j" gradientUnits="userSpaceOnUse" gradientTransform="matrix(.643 -.28 .28 .643 12.764 19.531)"/><linearGradient id="S" x1="29.124" x2="27.356" y1="38.897" y2="34.879" xlink:href="#i" gradientUnits="userSpaceOnUse" gradientTransform="matrix(.702 0 0 .702 15.628 13.937)"/><linearGradient x1="271.022" x2="285.029" y1="-441.052" y2="-431.97" xlink:href="#g" gradientUnits="userSpaceOnUse" gradientTransform="matrix(1.019 0 0 .902 -253.292 417.014)"/><linearGradient id="E" x1="20.73" x2="23.296" y1="29.815" y2="45.056" xlink:href="#h" gradientUnits="userSpaceOnUse" gradientTransform="matrix(.694 0 0 .694 15.814 14.113)"/><linearGradient id="R" x1="271.022" x2="285.029" y1="-441.052" y2="-431.97" xlink:href="#g" gradientUnits="userSpaceOnUse" gradientTransform="matrix(1.019 0 0 .902 -253.41 416.66)"/><linearGradient x1="275.942" x2="279.975" y1="-437.105" y2="-431.918" xlink:href="#e" gradientUnits="userSpaceOnUse"/><linearGradient x1="284.802" x2="288.9" y1="-441.233" y2="-436.831" xlink:href="#d" gradientUnits="userSpaceOnUse"/><linearGradient x1="286.415" x2="290.078" y1="-435.784" y2="-439.289" xlink:href="#d" gradientUnits="userSpaceOnUse"/><linearGradient x1="275.942" x2="279.975" y1="-437.105" y2="-431.918" xlink:href="#e" gradientUnits="userSpaceOnUse" gradientTransform="matrix(1.069 0 0 .944 -313.969 433.584)"/><linearGradient x1="276.614" x2="283.463" y1="-431" y2="-438.722" xlink:href="#g" gradientUnits="userSpaceOnUse"/><linearGradient x1="286.415" x2="288.375" y1="-435.784" y2="-437.888" xlink:href="#d" gradientUnits="userSpaceOnUse"/><linearGradient x1="275.942" x2="279.975" y1="-437.105" y2="-431.918" xlink:href="#e" gradientUnits="userSpaceOnUse"/><linearGradient x1="284.802" x2="288.9" y1="-441.233" y2="-436.831" xlink:href="#d" gradientUnits="userSpaceOnUse"/><linearGradient x1="276.614" x2="283.463" y1="-431" y2="-438.722" xlink:href="#g" gradientUnits="userSpaceOnUse"/><linearGradient x1="286.415" x2="290.078" y1="-435.784" y2="-439.289" xlink:href="#d" gradientUnits="userSpaceOnUse"/><linearGradient x1="286.415" x2="288.375" y1="-435.784" y2="-437.888" xlink:href="#d" gradientUnits="userSpaceOnUse"/><linearGradient x1="276.614" x2="283.463" y1="-431" y2="-438.722" xlink:href="#g" gradientUnits="userSpaceOnUse" gradientTransform="matrix(1.069 0 0 -.944 -319.521 -374.736)"/><linearGradient x1="275.942" x2="279.975" y1="-437.105" y2="-431.918" xlink:href="#e" gradientUnits="userSpaceOnUse" gradientTransform="matrix(1.069 0 0 .944 -319.508 435.469)"/><linearGradient id="V" x1="10.786" x2="14.803" y1="26.156" y2="44.442" xlink:href="#k" gradientUnits="userSpaceOnUse" gradientTransform="translate(-24 24.952)"/><linearGradient id="k"><stop offset="0" stop-color="#ef8229"/><stop offset="1" stop-color="#c00"/></linearGradient></defs><g><path fill="url(#l)" fill-rule="evenodd" d="M41.9 44.42a18.56 3.58 0 1 1-37.13 0 18.56 3.58 0 1 1 37.13 0z" transform="matrix(.72 0 0 .72 -3.302 -3.903)" color="#000" overflow="visible"/><path fill="#c4c5c2" stroke="url(#m)" stroke-width="1.5" stroke-miterlimit="2" d="M26.15 14.57c.34.54.98 1.8.98 2.47 0 1.4-.9 2.6-2.2 3.24.16.43.32.87.32 1.35 0 2.3-2.12 4.18-4.73 4.18-.8 0-1.5-.2-2.15-.5-.58 1.72-2.32 3-4.46 3s-3.87-1.28-4.45-3c-.65.3-1.36.5-2.15.5-2.6 0-4.73-1.86-4.73-4.17 0-.48.16-.92.33-1.35-1.3-.65-2.22-1.83-2.22-3.24 0-.74.25-2.5.64-3.14C.9 13.3.7 12.66.7 11.98c0-1.4.9-2.6 2.2-3.24-.16-.43-.3-.87-.3-1.35 0-2.32 2.1-4.2 4.7-4.2.8 0 1.5.23 2.16.53C10.04 2 11.78.7 13.92.7c2.15 0 3.88 1.3 4.46 3.03.65-.3 1.36-.52 2.15-.52 2.6 0 4.73 1.88 4.73 4.2 0 .47-.16.9-.33 1.34 1.3.64 2.22 1.83 2.22 3.24 0 .64-.68 2.06-1 2.6z"/><g><path fill="#c4c5c2" d="M17.2 4.64c0 1.63-1.5 2.96-3.34 2.96-1.85 0-3.34-1.33-3.34-2.96s1.5-2.95 3.34-2.95c1.85 0 3.34 1.3 3.34 2.94z"/><path fill="url(#n)" d="M291.7-437.6c0 1.84-1.5 3.32-3.32 3.32-1.83 0-3.32-1.48-3.32-3.3 0-1.84 1.5-3.33 3.3-3.33 1.84 0 3.33 1.48 3.33 3.3z" transform="matrix(1.009 0 0 .892 -277.106 394.978)"/></g><path fill="#c4c5c2" d="M4.86 6.9h19.1v7.6H4.86z"/><path fill="#c4c5c2" d="M7.72 11.97a2.87 2.53 0 1 1-5.73 0 2.87 2.53 0 1 1 5.72 0z"/><g><path fill="#c4c5c2" d="M23.9 7.17c0 1.64-1.5 2.96-3.35 2.96S17.2 8.8 17.2 7.17c0-1.63 1.5-2.95 3.35-2.95 1.84 0 3.34 1.32 3.34 2.95z"/><path fill="url(#o)" d="M291.7-437.6c0 1.84-1.5 3.32-3.32 3.32-1.83 0-3.32-1.48-3.32-3.3 0-1.84 1.5-3.33 3.3-3.33 1.84 0 3.33 1.48 3.33 3.3z" transform="matrix(1.009 0 0 .892 -270.421 397.51)"/></g><g><path fill="#c4c5c2" d="M10.52 7.17c0 1.64-1.5 2.96-3.35 2.96-1.84 0-3.34-1.32-3.34-2.96 0-1.63 1.5-2.95 3.34-2.95 1.85 0 3.35 1.32 3.35 2.95z"/><path fill="url(#p)" d="M291.7-437.6c0 1.84-1.5 3.32-3.32 3.32-1.83 0-3.32-1.48-3.32-3.3 0-1.84 1.5-3.33 3.3-3.33 1.84 0 3.33 1.48 3.33 3.3z" transform="matrix(1.009 0 0 .892 -283.791 397.51)"/></g><g><path fill="#c4c5c2" d="M12.95 4.4c-3.42 0-6.18 2.47-6.18 5.5 0 2 1.3 3.65 3.1 4.6h6.18c1.82-.95 3.1-2.64 3.1-4.64 0-3.02-2.78-5.45-6.2-5.45z"/><path fill="url(#q)" d="M280.5-441c-3.6 0-6.5 2.9-6.5 6.5 0 2.38 1.34 4.37 3.25 5.5h6.5c1.9-1.13 3.25-3.12 3.25-5.5 0-3.6-2.9-6.5-6.5-6.5z" transform="matrix(.955 0 0 .844 -254.952 376.526)"/></g><path fill="url(#r)" d="M291.7-437.6a3.3 3.3 0 1 1-6.64 0 3.3 3.3 0 1 1 6.63 0z" transform="matrix(.865 0 0 .764 -244.608 346.409)"/><g><path fill="#c4c5c2" d="M20.97 11.14c0 1.86-1.7 3.37-3.82 3.37-2.1 0-3.82-1.5-3.82-3.36 0-1.87 1.7-3.38 3.82-3.38 2.1 0 3.82 1.5 3.82 3.38z"/><path fill="url(#s)" d="M291.7-437.6c0 1.84-1.5 3.32-3.32 3.32-1.83 0-3.32-1.48-3.32-3.3 0-1.84 1.5-3.33 3.3-3.33 1.84 0 3.33 1.48 3.33 3.3z" transform="matrix(1.154 0 0 1.019 -315.356 457.033)"/></g><g><path fill="#c4c5c2" d="M17.2 24.43c0-1.63-1.5-2.95-3.35-2.95s-3.34 1.32-3.34 2.95c0 1.63 1.5 2.96 3.35 2.96 1.84 0 3.34-1.34 3.34-2.97z"/><path fill="url(#t)" d="M291.7-437.6c0 1.84-1.5 3.32-3.32 3.32-1.83 0-3.32-1.48-3.32-3.3 0-1.84 1.5-3.33 3.3-3.33 1.84 0 3.33 1.48 3.33 3.3z" transform="matrix(1.009 0 0 -.892 -277.118 -365.905)"/></g><path fill="#c4c5c2" d="M4.85 22.16h19.1v-7.6H4.85z"/><path fill="#c4c5c2" d="M7.7 17.1c0-1.95-2.38-3.17-4.3-2.2-.87.46-1.42 1.3-1.42 2.2 0 1.95 2.4 3.17 4.3 2.2.9-.46 1.43-1.3 1.43-2.2z"/><g><path fill="#c4c5c2" d="M23.88 21.9c0-1.63-1.5-2.96-3.35-2.96-1.84 0-3.34 1.33-3.34 2.96s1.5 2.95 3.33 2.95c1.85 0 3.35-1.32 3.35-2.95z"/><path fill="url(#u)" d="M291.7-437.6c0 1.84-1.5 3.32-3.32 3.32-1.83 0-3.32-1.48-3.32-3.3 0-1.84 1.5-3.33 3.3-3.33 1.84 0 3.33 1.48 3.33 3.3z" transform="matrix(1.009 0 0 -.892 -270.433 -368.437)"/></g><g><path fill="#c4c5c2" d="M10.5 21.9c0-1.63-1.5-2.96-3.34-2.96-1.84 0-3.34 1.33-3.34 2.96s1.5 2.95 3.34 2.95c1.85 0 3.34-1.32 3.34-2.95z"/><path fill="url(#v)" d="M291.7-437.6c0 1.84-1.5 3.32-3.32 3.32-1.83 0-3.32-1.48-3.32-3.3 0-1.84 1.5-3.33 3.3-3.33 1.84 0 3.33 1.48 3.33 3.3z" transform="matrix(1.009 0 0 -.892 -283.803 -368.437)"/></g><g><path fill="#c4c5c2" d="M12.94 24.67c-3.42 0-6.18-2.47-6.18-5.5 0-2 1.3-3.65 3.1-4.6h6.18c1.82.95 3.1 2.64 3.1 4.64 0 3.03-2.8 5.47-6.2 5.47z"/><path fill="url(#w)" d="M280.5-441c-3.6 0-6.5 2.9-6.5 6.5 0 2.38 1.34 4.37 3.25 5.5h6.5c1.9-1.13 3.25-3.12 3.25-5.5 0-3.6-2.9-6.5-6.5-6.5z" transform="matrix(.955 0 0 -.844 -254.964 -347.453)"/></g><path fill="url(#x)" d="M291.7-437.6a3.3 3.3 0 1 1-6.64 0 3.3 3.3 0 1 1 6.63 0z" transform="matrix(.865 0 0 -.764 -244.619 -317.336)"/><g><path fill="#c4c5c2" d="M18.4 16.24c0-1.87-1.72-3.38-3.83-3.38-2.1 0-3.8 1.5-3.8 3.38 0 1.86 1.7 3.37 3.8 3.37 2.1 0 3.82-1.5 3.82-3.36z"/><path fill="url(#y)" d="M291.7-437.6c0 1.84-1.5 3.32-3.32 3.32-1.83 0-3.32-1.48-3.32-3.3 0-1.84 1.5-3.33 3.3-3.33 1.84 0 3.33 1.48 3.33 3.3z" transform="matrix(1.154 0 0 -1.019 -317.933 -429.66)"/></g><g><path fill="#c4c5c2" d="M24.43 14.38c0-1.86-1.7-3.38-3.82-3.38-2.1 0-3.8 1.52-3.8 3.38 0 1.86 1.7 3.38 3.8 3.38 2.12 0 3.83-1.52 3.83-3.38z"/><path fill="url(#z)" d="M291.7-437.6c0 1.84-1.5 3.32-3.32 3.32-1.83 0-3.32-1.48-3.32-3.3 0-1.84 1.5-3.33 3.3-3.33 1.84 0 3.33 1.48 3.33 3.3z" transform="matrix(1.154 0 0 -1.019 -311.897 -431.518)"/></g><path fill="url(#A)" stroke="#fff" stroke-opacity=".502" stroke-miterlimit="2" d="M2.32 14.05c-.62.6-.74 2.2-.74 3.12 0 1.2 1 2.24 2.22 2.83-.16.4-.4.92-.4 1.36 0 2.1 1.72 3.72 4.2 3.72.73 0 1.66-.45 2.26-.73.62 2.02 1.95 3.26 3.94 3.26 2 0 3.52-1.28 4.1-3.23.62.27 1.75.72 2.48.72 2.43 0 3.98-1.64 3.98-3.74 0-.44-.27-1.06-.42-1.46 1.2-.58 2.2-1.45 2.2-2.73 0-.84-.52-1.56-1.1-2.55.56-1 1.12-1.87 1.12-2.75 0-1.3-1-2.15-2.2-2.74.15-.4.4-1 .4-1.45 0-2.1-1.92-3.68-4.34-3.68-.73 0-1.5.4-2.1.67-.6-1.95-2.05-3.08-4.04-3.08-2 0-3.4 1.06-4 3.1-.6-.3-1.4-.7-2.15-.7C5.26 4 3.4 5.6 3.4 7.7c0 .44.25 1.07.4 1.47-1.2.6-2.2 1.52-2.2 2.72 0 .88.13 1.57.72 2.18z"/><path fill="#888a85" fill-rule="evenodd" d="M25.55 8c0 2.22-3.05 3.07-3.05 3.07s2.2-1.34 2.18-3.05c0 0 .87 0 .87 0z"/><path fill="url(#B)" fill-rule="evenodd" d="M18.8 25.95c-2.4-.4-2.78-3.85-2.78-3.85s1.07 2.6 2.94 2.9c0 0-.15.95-.15.95z"/><path fill="url(#C)" fill-rule="evenodd" d="M24.87 20.85c-2.37.6-4.1-2.42-4.1-2.42s2.02 1.97 3.85 1.5c0 0 .25.92.25.92z"/><path fill="#f9aeae" fill-opacity=".299" d="M26.2 14.7c.34.53 1 1.8 1 2.46 0 1.4-.92 2.6-2.22 3.24.17.43.32.87.32 1.35 0 2.3-2.1 4.17-4.72 4.17-.8 0-1.5-.2-2.15-.52-.58 1.73-2.32 3.03-4.46 3.03-2.15 0-3.88-1.3-4.46-3.03-.64.3-1.35.52-2.14.52-2.6 0-4.73-1.86-4.73-4.17 0-.48.16-.92.33-1.35-1.3-.65-2.22-1.83-2.22-3.24 0-.75.25-2.5.63-3.14-.4-.6-.62-1.24-.62-1.93 0-1.4.92-2.6 2.22-3.24-.17-.43-.33-.87-.33-1.36 0-2.3 2.12-4.17 4.73-4.17.8 0 1.5.22 2.15.52.58-1.73 2.3-3.02 4.46-3.02 2.14 0 3.88 1.3 4.46 3.02.65-.3 1.36-.52 2.15-.52 2.6 0 4.72 1.87 4.72 4.17 0 .5-.16.93-.33 1.36 1.3.64 2.2 1.83 2.2 3.23 0 .64-.67 2.06-1 2.6z"/><path fill="url(#D)" fill-rule="evenodd" d="M41.9 44.42a18.56 3.58 0 1 1-37.13 0 18.56 3.58 0 1 1 37.13 0z" transform="matrix(.806 0 0 .806 13.202 9.318)" color="#000" overflow="visible"/><path fill="#c4c5c2" stroke="url(#E)" stroke-width="1.5" stroke-miterlimit="2" d="M46.16 30c.38.6 1.1 2.02 1.1 2.76 0 1.57-1.02 2.9-2.47 3.62.18.48.35.98.35 1.52 0 2.57-2.37 4.67-5.3 4.67-.87 0-1.66-.25-2.4-.6-.64 1.95-2.6 3.4-5 3.4s-4.33-1.45-4.97-3.4c-.74.35-1.53.6-2.42.6-2.9 0-5.28-2.1-5.28-4.67 0-.54.17-1.04.36-1.52-1.45-.72-2.48-2.05-2.48-3.62 0-.84.28-2.8.7-3.52-.45-.66-.68-1.38-.68-2.15 0-1.6 1.02-2.9 2.47-3.63-.2-.48-.36-.98-.36-1.52 0-2.58 2.36-4.67 5.28-4.67.88 0 1.68.25 2.4.58.65-1.93 2.6-3.38 5-3.38s4.34 1.45 4.98 3.38c.74-.33 1.53-.58 2.42-.58 2.9 0 5.28 2.1 5.28 4.67 0 .54-.17 1.04-.36 1.52 1.45.72 2.48 2.04 2.48 3.62 0 .7-.76 2.3-1.12 2.9z"/><g><path fill="#c4c5c2" d="M36.1 19c0 1.8-1.68 3.3-3.74 3.3-2.07 0-3.74-1.5-3.74-3.3 0-1.84 1.67-3.32 3.74-3.32 2.06 0 3.74 1.48 3.74 3.3z"/><path fill="url(#F)" d="M291.7-437.6c0 1.84-1.5 3.32-3.32 3.32-1.83 0-3.32-1.48-3.32-3.3 0-1.84 1.5-3.33 3.3-3.33 1.84 0 3.33 1.48 3.33 3.3z" transform="matrix(1.13 0 0 .998 -293.219 455.696)"/></g><path fill="#c4c5c2" d="M22.33 21.42H43.7v8.5H22.34z"/><path fill="#c4c5c2" d="M25.54 27.1a3.2 2.83 0 1 1-6.4 0 3.2 2.83 0 1 1 6.4 0z"/><g><path fill="#c4c5c2" d="M43.58 21.82c0 1.82-1.67 3.3-3.74 3.3-2.07 0-3.74-1.48-3.74-3.3 0-1.83 1.67-3.3 3.74-3.3 2.07 0 3.74 1.47 3.74 3.3z"/><path fill="url(#G)" d="M291.7-437.6c0 1.84-1.5 3.32-3.32 3.32-1.83 0-3.32-1.48-3.32-3.3 0-1.84 1.5-3.33 3.3-3.33 1.84 0 3.33 1.48 3.33 3.3z" transform="matrix(1.13 0 0 .998 -285.736 458.528)"/></g><g><path fill="#c4c5c2" d="M28.62 21.82c0 1.82-1.68 3.3-3.74 3.3-2.07 0-3.74-1.48-3.74-3.3 0-1.83 1.67-3.3 3.74-3.3 2.06 0 3.74 1.47 3.74 3.3z"/><path fill="url(#H)" d="M291.7-437.6c0 1.84-1.5 3.32-3.32 3.32-1.83 0-3.32-1.48-3.32-3.3 0-1.84 1.5-3.33 3.3-3.33 1.84 0 3.33 1.48 3.33 3.3z" transform="matrix(1.13 0 0 .998 -300.702 458.528)"/></g><g><path fill="#c4c5c2" d="M31.4 18.62c-3.84 0-6.93 2.75-6.93 6.13 0 2.24 1.44 4.1 3.48 5.17h6.9c2.04-1.07 3.48-2.96 3.48-5.2 0-3.38-3.12-6.1-6.94-6.1z"/><path fill="url(#I)" d="M280.5-441c-3.6 0-6.5 2.9-6.5 6.5 0 2.38 1.34 4.37 3.25 5.5h6.5c1.9-1.13 3.25-3.12 3.25-5.5 0-3.6-2.9-6.5-6.5-6.5z" transform="matrix(1.069 0 0 .944 -268.42 435.057)"/></g><path fill="url(#J)" d="M291.7-437.6a3.3 3.3 0 1 1-6.64 0 3.3 3.3 0 1 1 6.63 0z" transform="matrix(.968 0 0 .855 -256.843 401.353)"/><g><path fill="#c4c5c2" d="M40.56 26.3c0 2.1-1.9 3.78-4.27 3.78-2.38 0-4.3-1.7-4.3-3.77 0-2.08 1.92-3.77 4.3-3.77 2.35 0 4.26 1.7 4.26 3.78z"/><path fill="url(#K)" d="M291.7-437.6c0 1.84-1.5 3.32-3.32 3.32-1.83 0-3.32-1.48-3.32-3.3 0-1.84 1.5-3.33 3.3-3.33 1.84 0 3.33 1.48 3.33 3.3z" transform="matrix(1.292 0 0 1.141 -336.016 525.157)"/></g><g><path fill="#c4c5c2" d="M36.1 40.92c0-1.82-1.7-3.3-3.75-3.3-2.07 0-3.74 1.48-3.74 3.3 0 1.83 1.68 3.3 3.75 3.3 2.06 0 3.74-1.47 3.74-3.3z"/><path fill="url(#L)" d="M291.7-437.6c0 1.84-1.5 3.32-3.32 3.32-1.83 0-3.32-1.48-3.32-3.3 0-1.84 1.5-3.33 3.3-3.33 1.84 0 3.33 1.48 3.33 3.3z" transform="matrix(1.13 0 0 -.998 -293.232 -395.788)"/></g><path fill="#c4c5c2" d="M22.32 38.5H43.7V30H22.32z"/><path fill="#c4c5c2" d="M25.53 32.82c0-2.18-2.67-3.54-4.8-2.45-1 .5-1.62 1.44-1.62 2.45 0 2.18 2.7 3.55 4.83 2.46 1-.5 1.6-1.45 1.6-2.46z"/><g><path fill="#c4c5c2" d="M43.57 38.1c0-1.84-1.68-3.32-3.74-3.32-2.07 0-3.74 1.48-3.74 3.3 0 1.84 1.66 3.32 3.73 3.32 2.06 0 3.74-1.48 3.74-3.3z"/><path fill="url(#M)" d="M291.7-437.6c0 1.84-1.5 3.32-3.32 3.32-1.83 0-3.32-1.48-3.32-3.3 0-1.84 1.5-3.33 3.3-3.33 1.84 0 3.33 1.48 3.33 3.3z" transform="matrix(1.13 0 0 -.998 -285.749 -398.62)"/></g><g><path fill="#c4c5c2" d="M28.6 38.1c0-1.84-1.67-3.32-3.74-3.32-2.06 0-3.74 1.48-3.74 3.3 0 1.84 1.68 3.32 3.74 3.32 2.07 0 3.74-1.48 3.74-3.3z"/><path fill="url(#N)" d="M291.7-437.6c0 1.84-1.5 3.32-3.32 3.32-1.83 0-3.32-1.48-3.32-3.3 0-1.84 1.5-3.33 3.3-3.33 1.84 0 3.33 1.48 3.33 3.3z" transform="matrix(1.13 0 0 -.998 -300.715 -398.62)"/></g><g><path fill="#c4c5c2" d="M31.37 41.3c-3.82 0-6.9-2.77-6.9-6.15 0-2.24 1.43-4.1 3.46-5.16h6.92c2.03 1.06 3.47 2.94 3.47 5.18 0 3.38-3.12 6.1-6.95 6.1z"/><path fill="url(#O)" d="M280.5-441c-3.6 0-6.5 2.9-6.5 6.5 0 2.38 1.34 4.37 3.25 5.5h6.5c1.9-1.13 3.25-3.12 3.25-5.5 0-3.6-2.9-6.5-6.5-6.5z" transform="matrix(1.069 0 0 -.944 -268.433 -375.149)"/></g><path fill="url(#P)" d="M291.7-437.6a3.3 3.3 0 1 1-6.64 0 3.3 3.3 0 1 1 6.63 0z" transform="matrix(.968 0 0 -.855 -256.855 -341.445)"/><g><path fill="#c4c5c2" d="M37.68 31.7c0-2.1-1.92-3.78-4.28-3.78-2.36 0-4.27 1.7-4.27 3.78s1.9 3.77 4.27 3.77c2.36 0 4.28-1.7 4.28-3.77z"/><path fill="url(#Q)" d="M291.7-437.6c0 1.84-1.5 3.32-3.32 3.32-1.83 0-3.32-1.48-3.32-3.3 0-1.84 1.5-3.33 3.3-3.33 1.84 0 3.33 1.48 3.33 3.3z" transform="matrix(1.292 0 0 -1.141 -338.9 -467.151)"/></g><path fill="url(#R)" stroke="#fff" stroke-opacity=".502" stroke-miterlimit="2" d="M19.37 29.05c-.7.7-.82 2.48-.82 3.5 0 1.33 1.13 2.5 2.48 3.16-.18.45-.45 1.04-.45 1.53 0 2.35 1.93 4.17 4.7 4.17.82 0 1.86-.5 2.54-.82.68 2.27 2.18 3.66 4.4 3.66 2.24 0 3.94-1.45 4.6-3.64.68.3 1.95.82 2.77.82 2.7 0 4.44-1.84 4.44-4.2 0-.48-.3-1.17-.47-1.6 1.34-.67 2.48-1.64 2.48-3.07 0-.95-.6-1.75-1.24-2.86.63-1.13 1.26-2.1 1.26-3.1 0-1.42-1.13-2.4-2.48-3.05.18-.44.47-1.13.47-1.62 0-2.36-2.15-4.13-4.87-4.13-.82 0-1.67.45-2.35.76-.66-2.2-2.3-3.45-4.52-3.45-2.22 0-3.78 1.2-4.47 3.48-.68-.3-1.57-.76-2.4-.76-2.76 0-4.84 1.75-4.84 4.1 0 .5.26 1.2.44 1.65-1.35.66-2.48 1.7-2.48 3.04 0 1 .16 1.77.8 2.45z"/><path fill="#888a85" fill-rule="evenodd" d="M45.5 22.65c0 2.47-3.42 3.42-3.42 3.42s2.45-1.5 2.44-3.4c0 0 .97-.02.97-.02z"/><path fill="url(#S)" fill-rule="evenodd" d="M37.95 42.73c-2.7-.44-3.13-4.32-3.13-4.32s1.2 2.94 3.3 3.27c0 0-.17 1.06-.17 1.06z"/><path fill="url(#T)" fill-rule="evenodd" d="M44.72 37.02c-2.64.67-4.58-2.7-4.58-2.7s2.27 2.2 4.3 1.66c0 0 .28 1.04.28 1.04z"/><path fill="#f9aeae" fill-opacity=".299" d="M31.46 18.56c-3.83 0-6.94 2.74-6.94 6.12 0 2.24 1.44 4.12 3.47 5.2h1.74c-.38.56-.62 1.22-.62 1.93 0 2.1 1.92 3.8 4.28 3.8 2 0 3.67-1.26 4.12-2.92-.98-.7-1.62-1.76-1.62-2.96 0-2.1 1.9-3.8 4.25-3.8.13 0 .27.04.4.05-.05-1.5-1.08-2.82-2.56-3.38 0 0-.04 0-.04 0-.97-2.36-3.5-4.04-6.5-4.04z" color="#000" overflow="visible" enable-background="accumulate"/><g opacity=".819"><path fill="#c4c5c2" d="M44.43 29.62c0-2.1-1.9-3.78-4.27-3.78-2.36 0-4.28 1.7-4.28 3.78s1.92 3.78 4.28 3.78c2.36 0 4.27-1.7 4.27-3.78z"/><path fill="url(#U)" d="M291.7-437.6c0 1.84-1.5 3.32-3.32 3.32-1.83 0-3.32-1.48-3.32-3.3 0-1.84 1.5-3.33 3.3-3.33 1.84 0 3.33 1.48 3.33 3.3z" transform="matrix(1.292 0 0 -1.141 -332.145 -469.23)"/></g><path fill="none" stroke="#ef2929" d="M31.64 18.97c-3.83 0-6.94 2.75-6.94 6.13 0 2.24 1.44 4.12 3.47 5.18h1.75c-.38.57-.63 1.24-.63 1.94 0 2.1 1.9 3.78 4.27 3.78 2.37 0 4.3-1.7 4.3-3.78 0-.74-.25-1.44-.67-2.03 2-.32 3.53-1.83 3.53-3.7 0-1.55-1.04-2.92-2.56-3.5 0 0-.03 0-.03 0-.97-2.35-3.5-4.03-6.5-4.03z" stroke-dasharray="2,1"/><path fill="none" stroke="#ef2929" stroke-dashoffset=".6" d="M12.53 4.18c-3.56 0-6.45 2.56-6.45 5.7 0 2.08 1.34 3.83 3.23 4.83h1.63c-.35.53-.58 1.15-.58 1.8 0 1.95 1.8 3.53 3.98 3.53 2.2 0 4-1.58 4-3.52 0-.68-.23-1.34-.62-1.88 1.87-.3 3.3-1.7 3.3-3.43 0-1.46-.98-2.73-2.4-3.27 0 0-.02 0-.02 0-.9-2.2-3.26-3.75-6.05-3.75z" stroke-dasharray="2,1"/><g><path fill="url(#V)" fill-rule="evenodd" stroke="#7c0000" stroke-width="2.488" d="M5.73 64.96c-14.43 5.8-14.8-.74-15.02-5.65h4.82l-8.88-8.78-9.16 8.4h4.75c0 10.44 8.98 21.15 23.5 6.04z" transform="matrix(-.515 .092 -.248 -.661 35.461 56.508)"/><path fill="none" stroke="#fcaf3e" stroke-width="1.659" stroke-miterlimit="6" d="M.32 67.98c-11.77 2.94-10.67-7.47-10.9-9.9h3.04l-5.9-5.8-5.93 5.4 2.85.05c-.5 9.44 6.38 18.88 16.84 10.25z" transform="matrix(-.515 .092 -.248 -.661 35.461 56.508)"/></g></g></svg>