<svg xmlns="http://www.w3.org/2000/svg" width="48" height="48" xmlns:xlink="http://www.w3.org/1999/xlink"><defs><linearGradient id="b"><stop offset="0" stop-color="#fff"/><stop offset="1" stop-color="#7c7c7c" stop-opacity="0"/></linearGradient><linearGradient id="a"><stop offset="0" stop-color="#6f6f6f"/><stop offset="1"/></linearGradient><linearGradient><stop offset="0" stop-color="#8f5902"/><stop offset="1" stop-color="#8f5902"/></linearGradient><linearGradient><stop offset="0" stop-color="#876100"/><stop offset="1" stop-color="#876100" stop-opacity="0"/></linearGradient><radialGradient id="i" cx="8.05" cy="29.822" r="6.23" xlink:href="#a" fx="8.05" fy="29.822" gradientTransform="matrix(.454 -.215 .806 2.29 -15.281 -49.388)" gradientUnits="userSpaceOnUse"/><radialGradient id="j" cx="8.05" cy="29.822" r="6.23" xlink:href="#a" gradientUnits="userSpaceOnUse" gradientTransform="matrix(.571 -.296 1.271 2.521 -33.104 -50.202)" fx="8.05" fy="29.822"/><radialGradient id="k" cx="8.05" cy="29.822" r="6.23" xlink:href="#a" gradientUnits="userSpaceOnUse" gradientTransform="matrix(.555 -.212 .924 2.408 -25.376 -40.303)" fx="8.05" fy="29.822"/><radialGradient id="l" cx="8.05" cy="29.822" r="6.23" xlink:href="#a" gradientUnits="userSpaceOnUse" gradientTransform="matrix(.478 -.136 .484 2.511 1.031 -58.563)" fx="8.05" fy="29.822"/><radialGradient id="m" cx="8.05" cy="29.822" r="6.23" xlink:href="#a" gradientUnits="userSpaceOnUse" gradientTransform="matrix(.565 -.184 .802 2.451 -9.813 -50.064)" fx="8.05" fy="29.822"/><radialGradient id="n" cx="8.05" cy="29.822" r="6.23" xlink:href="#a" gradientUnits="userSpaceOnUse" gradientTransform="matrix(.561 -.195 .854 2.433 -15.486 -45.046)" fx="8.05" fy="29.822"/><radialGradient id="o" cx="8.05" cy="29.822" r="6.23" xlink:href="#a" gradientUnits="userSpaceOnUse" gradientTransform="matrix(.59 -.069 .302 2.561 10.024 -54.449)" fx="8.05" fy="29.822"/><radialGradient id="p" cx="8.05" cy="29.822" r="6.23" xlink:href="#a" gradientUnits="userSpaceOnUse" gradientTransform="matrix(.561 -.195 .854 2.433 -10.858 -42.579)" fx="8.05" fy="29.822"/><radialGradient id="q" cx="8.05" cy="29.822" r="6.23" xlink:href="#a" gradientUnits="userSpaceOnUse" gradientTransform="matrix(.512 -.3 1.307 2.223 -31.938 -34.465)" fx="8.05" fy="29.822"/><radialGradient cx="8.05" cy="29.822" r="6.23" xlink:href="#a" gradientUnits="userSpaceOnUse" gradientTransform="matrix(-.443 -.209 -.786 2.234 104.472 -48.762)" fx="8.05" fy="29.822"/><radialGradient cx="8.05" cy="29.822" r="6.23" xlink:href="#a" gradientUnits="userSpaceOnUse" gradientTransform="matrix(-.558 -.289 -1.241 2.459 121.862 -49.556)" fx="8.05" fy="29.822"/><radialGradient cx="8.05" cy="29.822" r="6.23" xlink:href="#a" gradientUnits="userSpaceOnUse" gradientTransform="matrix(-.541 -.206 -.902 2.349 114.322 -39.899)" fx="8.05" fy="29.822"/><radialGradient cx="8.05" cy="29.822" r="6.23" xlink:href="#a" gradientUnits="userSpaceOnUse" gradientTransform="matrix(-.466 -.132 -.472 2.449 88.557 -57.713)" fx="8.05" fy="29.822"/><radialGradient cx="8.05" cy="29.822" r="6.23" xlink:href="#a" gradientUnits="userSpaceOnUse" gradientTransform="matrix(-.551 -.179 -.782 2.391 99.137 -49.422)" fx="8.05" fy="29.822"/><radialGradient cx="8.05" cy="29.822" r="6.23" xlink:href="#a" gradientUnits="userSpaceOnUse" gradientTransform="matrix(-.547 -.191 -.833 2.374 104.672 -44.527)" fx="8.05" fy="29.822"/><radialGradient id="t" cx="8.05" cy="29.822" r="6.23" xlink:href="#b" gradientUnits="userSpaceOnUse" gradientTransform="matrix(-.545 -.236 -1.031 2.364 62.198 -38.865)" fx="8.05" fy="29.822"/><radialGradient cx="8.05" cy="29.822" r="6.23" xlink:href="#a" gradientUnits="userSpaceOnUse" gradientTransform="matrix(-.547 -.191 -.833 2.374 100.157 -42.12)" fx="8.05" fy="29.822"/><radialGradient cx="8.05" cy="29.822" r="6.23" xlink:href="#a" gradientUnits="userSpaceOnUse" gradientTransform="matrix(-.5 -.293 -1.276 2.169 120.724 -34.204)" fx="8.05" fy="29.822"/><radialGradient id="r" cx="8.05" cy="29.822" r="6.23" xlink:href="#b" gradientUnits="userSpaceOnUse" gradientTransform="matrix(-.518 -.289 -1.261 2.249 70.662 -44.246)" fx="8.05" fy="29.822"/><radialGradient id="f" cx="8.05" cy="29.822" r="6.23" xlink:href="#b" gradientUnits="userSpaceOnUse" gradientTransform="matrix(-.58 -.128 -.561 2.517 46.928 -57.797)" fx="8.05" fy="29.822"/><radialGradient id="d" cx="8.05" cy="29.822" r="6.23" xlink:href="#b" gradientUnits="userSpaceOnUse" gradientTransform="matrix(-.58 -.128 -.561 2.517 53.224 -58.53)" fx="8.05" fy="29.822"/><radialGradient id="g" cx="8.05" cy="29.822" r="6.23" xlink:href="#b" gradientUnits="userSpaceOnUse" gradientTransform="matrix(-.518 -.289 -1.261 2.249 76.958 -44.978)" fx="8.05" fy="29.822"/><radialGradient id="s" cx="8.05" cy="29.822" r="6.23" xlink:href="#b" gradientUnits="userSpaceOnUse" gradientTransform="matrix(-.545 -.236 -1.031 2.364 68.494 -39.598)" fx="8.05" fy="29.822"/><radialGradient id="c" cx="8.05" cy="29.822" r="6.23" xlink:href="#b" gradientUnits="userSpaceOnUse" gradientTransform="matrix(-.465 -.104 -.45 2.042 55.937 -41.193)" fx="8.05" fy="29.822"/><radialGradient id="e" cx="8.05" cy="29.822" r="6.23" xlink:href="#b" gradientUnits="userSpaceOnUse" gradientTransform="matrix(-.416 -.235 -1.012 1.825 74.987 -30.201)" fx="8.05" fy="29.822"/><radialGradient id="h" cx="8.05" cy="29.822" r="6.23" xlink:href="#b" gradientUnits="userSpaceOnUse" gradientTransform="matrix(-.437 -.192 -.827 1.917 68.194 -25.837)" fx="8.05" fy="29.822"/></defs><g><path fill="#c17d11" stroke="#8f5902" d="M1.86 41.97c15.17-2.5 27.36-3.14 45.42 0l-5.63-14.84c-8.35-3.47-27.57-3.25-34.04 0z"/><path fill="url(#c)" stroke="#888a85" stroke-opacity=".502" d="M37.02 26.27c-.97-4.3-.33-11 2.7-14.7 2.07-1.53 2.63-.23 3.27.9-3.73 4.6-4.48 10.85-3.27 14.48-.9.4-1.8.57-2.7-.68z"/><path fill="url(#d)" stroke="#888a85" stroke-opacity=".502" d="M29.65 24.64c-1.2-5.32-.4-13.56 3.38-18.1 2.57-1.9 3.26-.3 4.06 1.1-4.65 5.66-5.57 13.36-4.07 17.84-1.12.5-2.25.7-3.38-.84z"/><path fill="url(#e)" stroke="#888a85" stroke-opacity=".502" d="M37.68 28.9c.3-4.4 2.82-10.6 6.77-13.26 2.42-.88 2.58.53 2.87 1.8-4.87 3.32-7.36 9.08-7.24 12.92-.98.12-1.9.02-2.4-1.45z"/><path fill="url(#f)" stroke="#888a85" stroke-opacity=".502" d="M23.36 25.37c-1.2-5.3-.4-13.55 3.37-18.1 2.58-1.9 3.27-.3 4.07 1.1-4.64 5.66-5.57 13.36-4.07 17.84-1.12.5-2.24.7-3.37-.83z"/><path fill="url(#g)" stroke="#888a85" stroke-opacity=".502" d="M30.48 27.9c.37-5.44 3.5-13.1 8.43-16.37 3.03-1.08 3.22.66 3.6 2.24-6.08 4.08-9.18 11.2-9.03 15.9-1.22.16-2.35.03-3-1.77z"/><path fill="url(#h)" stroke="#888a85" stroke-opacity=".502" d="M36.9 36.74c-.15-4.42 1.74-10.86 5.42-13.9 2.32-1.1 2.62.28 3.03 1.52-4.52 3.78-6.43 9.77-5.93 13.57-.96.22-1.88.2-2.53-1.2z"/><path fill="url(#i)" stroke="#babdb6" d="M15.43 25.47c.25-5.22-1.55-12.9-5.25-16.58-2.36-1.4-2.7.24-3.16 1.7 4.56 4.6 6.38 11.73 5.78 16.2 1 .3 1.93.3 2.63-1.33z"/><path fill="url(#j)" stroke="#babdb6" d="M14.18 31.7c-.18-6-3.27-14.52-8.46-18.32-3.2-1.3-3.5.6-3.95 2.3 6.4 4.74 9.46 12.67 9.1 17.84 1.32.22 2.55.13 3.3-1.82z"/><path fill="url(#k)" stroke="#babdb6" d="M10.14 38.52c.42-5.44-1.6-13.47-6-17.42-2.82-1.5-3.27.2-3.85 1.7 5.4 4.9 7.45 12.4 6.63 17.04 1.18.33 2.32.37 3.2-1.32z"/><path fill="url(#l)" stroke="#babdb6" d="M21.18 24.33c.95-5.33.22-13.56-2.94-18.07C16.1 4.4 15.54 6 14.9 7.43c3.87 5.6 4.7 13.3 3.5 17.8.93.47 1.86.66 2.78-.9z"/><path fill="url(#m)" stroke="#babdb6" d="M21.7 30.44c.7-5.4-.9-13.53-5.1-17.7-2.76-1.64-3.3.03-3.95 1.5C17.8 19.42 19.48 27 18.42 31.6c1.16.38 2.3.48 3.28-1.16z"/><path fill="url(#n)" stroke="#babdb6" d="M17.72 34.77c.57-5.42-1.2-13.5-5.5-17.58-2.77-1.6-3.26.1-3.9 1.57 5.28 5.07 7.1 12.6 6.15 17.24 1.17.37 2.3.44 3.25-1.23z"/><path fill="url(#o)" stroke="#babdb6" d="M25.02 30.68c1.75-5.16 1.78-13.44-1.5-18.35-2.38-2.15-3.23-.62-4.17.7 4.04 6.1 4.18 13.84 2.23 18.15 1.07.6 2.16.92 3.44-.5z"/><path fill="url(#p)" stroke="#babdb6" d="M22.35 37.24c.57-5.42-1.2-13.5-5.5-17.58-2.77-1.6-3.26.1-3.9 1.58 5.28 5.07 7.1 12.6 6.15 17.23 1.17.36 2.3.43 3.25-1.23z"/><path fill="url(#q)" stroke="#babdb6" d="M16.06 37.45c-.48-5.43-3.78-13.03-8.78-16.2-3.03-1.02-3.2.73-3.53 2.3 6.16 3.97 9.4 11 9.36 15.73 1.22.13 2.36-.02 2.96-1.83z"/><path fill="url(#r)" stroke="#888a85" stroke-opacity=".502" d="M24.18 28.63c.37-5.43 3.5-13.1 8.44-16.37 3-1.07 3.2.66 3.57 2.24-6.08 4.08-9.18 11.2-9.03 15.9-1.22.16-2.35.04-3-1.77z"/><path fill="url(#s)" stroke="#888a85" stroke-opacity=".502" d="M29.5 37.55c-.18-5.45 2.18-13.4 6.76-17.13 2.9-1.38 3.26.33 3.78 1.86-5.64 4.67-8 12.05-7.4 16.74-1.2.27-2.33.25-3.15-1.47z"/><path fill="url(#t)" stroke="#888a85" stroke-opacity=".502" d="M23.2 38.28c-.18-5.45 2.18-13.38 6.76-17.13 2.9-1.37 3.26.34 3.78 1.87-5.63 4.66-8 12.04-7.4 16.73-1.2.27-2.33.26-3.14-1.47z"/></g></svg>