<svg xmlns="http://www.w3.org/2000/svg" width="48" height="48" xmlns:xlink="http://www.w3.org/1999/xlink"><defs><linearGradient id="j"><stop offset="0" stop-color="#74726e"/><stop offset="1" stop-color="#5d5b58" stop-opacity="0"/></linearGradient><linearGradient id="i"><stop offset="0" stop-color="#5d5b58"/><stop offset="1" stop-color="#5d5b58" stop-opacity="0"/></linearGradient><linearGradient id="h"><stop offset="0" stop-color="#888a85"/><stop offset="1" stop-color="#51534f"/></linearGradient><linearGradient id="g"><stop offset="0" stop-color="#2e3436" stop-opacity=".619"/><stop offset="1" stop-color="#2e3436" stop-opacity="0"/></linearGradient><linearGradient id="e"><stop offset="0" stop-color="#fff"/><stop offset="1" stop-color="#fff" stop-opacity="0"/></linearGradient><linearGradient id="d"><stop offset="0" stop-color="#fff"/><stop offset="1" stop-color="#fff" stop-opacity="0"/></linearGradient><linearGradient id="c"><stop offset="0" stop-color="#fff"/><stop offset="1" stop-color="#fff" stop-opacity="0"/></linearGradient><linearGradient id="b"><stop offset="0" stop-color="#fff"/><stop offset="1" stop-color="#fff" stop-opacity="0"/></linearGradient><linearGradient id="a"><stop offset="0" stop-color="#fff"/><stop offset="1" stop-color="#fff" stop-opacity="0"/></linearGradient><linearGradient id="f"><stop offset="0" stop-color="#fff"/><stop offset="1" stop-color="#fff" stop-opacity="0"/></linearGradient><linearGradient id="r" x1="287.517" x2="289.676" y1="-439.753" y2="-436.322" xlink:href="#a" gradientUnits="userSpaceOnUse"/><linearGradient id="s" x1="286.512" x2="289.854" y1="-441.291" y2="-436.145" xlink:href="#b" gradientUnits="userSpaceOnUse"/><linearGradient id="t" x1="285.941" x2="289.391" y1="-439.939" y2="-436.443" xlink:href="#c" gradientUnits="userSpaceOnUse"/><linearGradient id="u" x1="275.942" x2="279.975" y1="-437.105" y2="-431.918" xlink:href="#d" gradientUnits="userSpaceOnUse"/><linearGradient id="v" x1="286.666" x2="289.766" y1="-439.484" y2="-436.707" xlink:href="#e" gradientUnits="userSpaceOnUse"/><linearGradient id="w" x1="284.802" x2="288.9" y1="-441.233" y2="-436.831" xlink:href="#c" gradientUnits="userSpaceOnUse"/><linearGradient id="C" x1="286.415" x2="290.078" y1="-435.784" y2="-439.289" xlink:href="#c" gradientUnits="userSpaceOnUse"/><linearGradient id="B" x1="286.295" x2="289.395" y1="-435.628" y2="-438.19" xlink:href="#e" gradientUnits="userSpaceOnUse"/><linearGradient id="A" x1="276.614" x2="283.463" y1="-431" y2="-438.722" xlink:href="#f" gradientUnits="userSpaceOnUse"/><linearGradient id="z" x1="286.014" x2="288.375" y1="-435.546" y2="-438.971" xlink:href="#c" gradientUnits="userSpaceOnUse"/><linearGradient id="y" x1="287.147" x2="289.473" y1="-434.809" y2="-437.594" xlink:href="#b" gradientUnits="userSpaceOnUse"/><linearGradient id="x" x1="286.246" x2="290.121" y1="-434.732" y2="-439.69" xlink:href="#a" gradientUnits="userSpaceOnUse"/><linearGradient id="E" x1="271.022" x2="285.029" y1="-441.052" y2="-431.97" xlink:href="#f" gradientUnits="userSpaceOnUse" gradientTransform="matrix(1.452 0 0 1.286 -383.21 574.384)"/><linearGradient id="D" x1="286.415" x2="288.375" y1="-435.784" y2="-437.888" xlink:href="#c" gradientUnits="userSpaceOnUse"/><radialGradient id="p" cx="23.335" cy="44.42" r="18.562" xlink:href="#g" fx="23.335" fy="44.42" gradientTransform="matrix(1 0 0 .193 0 35.854)" gradientUnits="userSpaceOnUse"/><linearGradient id="q" x1="20.73" x2="23.296" y1="29.815" y2="45.056" xlink:href="#h" gradientUnits="userSpaceOnUse" gradientTransform="matrix(.989 0 0 .989 .265 .251)"/><linearGradient id="F" x1="29.124" x2="27.356" y1="38.897" y2="34.879" xlink:href="#i" gradientUnits="userSpaceOnUse"/><linearGradient id="G" x1="29.124" x2="27.356" y1="38.897" y2="34.879" xlink:href="#j" gradientUnits="userSpaceOnUse" gradientTransform="matrix(.917 -.399 .399 .917 -4.08 7.972)"/><linearGradient x1="10.276" x2="14.832" y1="35.035" y2="37.582" xlink:href="#k" gradientUnits="userSpaceOnUse" gradientTransform="matrix(.83 .08 -.08 .83 86.174 1.704)"/><linearGradient id="k"><stop offset="0" stop-color="#2e3436"/><stop offset="1" stop-color="#2e3436" stop-opacity="0"/></linearGradient><linearGradient x1="23.201" x2="22.286" y1="3.505" y2="32.37" xlink:href="#l" gradientUnits="userSpaceOnUse" gradientTransform="matrix(-.834 0 0 .834 120.203 -6.058)"/><linearGradient id="l"><stop offset="0" stop-color="#d3d7cf"/><stop offset="1" stop-color="#fff"/></linearGradient><radialGradient cx="3.299" cy="3.416" r="2.751" xlink:href="#m" gradientUnits="userSpaceOnUse" fx="3.299" fy="3.416"/><linearGradient id="m"><stop offset="0" stop-color="#fff"/><stop offset="1" stop-color="#8e8e8e"/></linearGradient><linearGradient x1="23.201" x2="22.286" y1="3.505" y2="32.37" xlink:href="#l" gradientUnits="userSpaceOnUse" gradientTransform="matrix(-.495 0 0 .495 22.228 .012)"/><linearGradient x1="10.276" x2="14.832" y1="35.035" y2="37.582" xlink:href="#k" gradientUnits="userSpaceOnUse" gradientTransform="matrix(.492 .047 -.047 .493 15.218 -.091)"/><radialGradient cx="3.299" cy="3.416" r="2.751" xlink:href="#m" fx="3.299" fy="3.416" gradientUnits="userSpaceOnUse"/><linearGradient><stop offset="0" stop-color="#fff"/><stop offset="1" stop-color="#8e8e8e"/></linearGradient><radialGradient cx="3.299" cy="3.416" r="2.751" fy="3.416" fx="3.299" gradientUnits="userSpaceOnUse" xlink:href="#m"/><linearGradient x1="10.276" x2="14.832" y1="35.035" y2="37.582" xlink:href="#k" gradientUnits="userSpaceOnUse" gradientTransform="matrix(.501 .048 -.048 .501 26.188 17.5)"/><linearGradient x1="23.201" x2="22.286" y1="3.505" y2="32.37" xlink:href="#l" gradientUnits="userSpaceOnUse" gradientTransform="matrix(.503 0 0 .504 24.972 17.615)"/><radialGradient cx="3.299" cy="3.416" r="2.751" xlink:href="#m" gradientUnits="userSpaceOnUse" fx="3.299" fy="3.416"/><linearGradient x1="10.276" x2="14.832" y1="35.035" y2="37.582" xlink:href="#k" gradientUnits="userSpaceOnUse" gradientTransform="matrix(.501 .048 -.048 .501 26.129 -.295)"/><linearGradient x1="23.201" x2="22.286" y1="3.505" y2="32.37" xlink:href="#l" gradientUnits="userSpaceOnUse" gradientTransform="matrix(.503 0 0 .504 24.913 -.18)"/><radialGradient cx="3.299" cy="3.416" r="2.751" xlink:href="#m" gradientUnits="userSpaceOnUse" fx="3.299" fy="3.416"/><linearGradient x1="10.276" x2="14.832" y1="35.035" y2="37.582" xlink:href="#k" gradientUnits="userSpaceOnUse" gradientTransform="matrix(.501 .048 -.048 .501 14.992 11.785)"/><linearGradient x1="23.201" x2="22.286" y1="3.505" y2="32.37" xlink:href="#l" gradientUnits="userSpaceOnUse" gradientTransform="matrix(-.503 0 0 -.504 22.375 48.281)"/><radialGradient cx="3.299" cy="3.416" r="2.751" xlink:href="#m" gradientUnits="userSpaceOnUse" fx="3.299" fy="3.416"/><radialGradient cx="3.299" cy="3.416" r="2.751" xlink:href="#m" gradientUnits="userSpaceOnUse" fx="3.299" fy="3.416"/><linearGradient x1="-95.827" x2="-81.455" y1="297.608" y2="297.608" xlink:href="#n" gradientUnits="userSpaceOnUse" gradientTransform="matrix(.719 .784 .996 -.914 -199.349 377.414)"/><linearGradient id="n" x1="-95.827" x2="-81.455" y1="297.608" y2="297.608" gradientTransform="matrix(0 -1.064 -1.352 0 410.498 -83.416)" gradientUnits="userSpaceOnUse"><stop offset="0" stop-color="#e96712" stop-opacity="0"/><stop offset=".622" stop-color="#D52E0C"/><stop offset="1" stop-color="#CB1009"/></linearGradient><linearGradient x1="8.071" x2="8.071" y1="3.993" y2="15.429" xlink:href="#o" gradientUnits="userSpaceOnUse" gradientTransform="matrix(-.996 .914 -.904 -.985 50.213 38.027)"/><linearGradient id="o"><stop offset="0" stop-color="#590b08"/><stop offset="1" stop-opacity="0"/></linearGradient><linearGradient id="H" x1="-95.827" x2="-81.455" y1="297.608" y2="297.608" gradientTransform="matrix(1.221 1.328 1.691 -1.548 -383.597 615.101)" gradientUnits="userSpaceOnUse" xlink:href="#n"/><linearGradient id="I" x1="8.071" x2="8.071" y1="3.993" y2="15.429" gradientTransform="matrix(-1.691 1.548 -1.535 -1.669 40.01 40.409)" gradientUnits="userSpaceOnUse" xlink:href="#o"/><radialGradient cx="3.299" cy="3.416" r="2.751" xlink:href="#m" gradientUnits="userSpaceOnUse" fx="3.299" fy="3.416"/><linearGradient x1="10.276" x2="14.832" y1="35.035" y2="37.582" xlink:href="#k" gradientUnits="userSpaceOnUse" gradientTransform="matrix(.492 .047 -.047 .493 15.218 -.091)"/><radialGradient cx="3.299" cy="3.416" r="2.751" xlink:href="#m" gradientUnits="userSpaceOnUse" fx="3.299" fy="3.416"/><linearGradient x1="23.201" x2="22.286" y1="3.505" y2="32.37" xlink:href="#l" gradientUnits="userSpaceOnUse" gradientTransform="matrix(-.495 0 0 .495 22.228 .012)"/><radialGradient cx="3.299" cy="3.416" r="2.751" xlink:href="#m" gradientUnits="userSpaceOnUse" fx="3.299" fy="3.416"/><radialGradient cx="3.299" cy="3.416" r="2.751" xlink:href="#m" gradientUnits="userSpaceOnUse" fx="3.299" fy="3.416"/><radialGradient cx="3.299" cy="3.416" r="2.751" xlink:href="#m" gradientUnits="userSpaceOnUse" fx="3.299" fy="3.416"/></defs><g><g><path fill="url(#p)" fill-rule="evenodd" d="M41.9 44.42c0 1.98-8.3 3.58-18.57 3.58-10.25 0-18.56-1.6-18.56-3.58s8.3-3.58 18.56-3.58c10.26 0 18.57 1.6 18.57 3.58z" transform="matrix(.862 0 0 .862 -3.861 -4.833)" color="#000" overflow="visible"/><path fill="#c4c5c2" stroke="url(#q)" stroke-width="1.997" stroke-miterlimit="2" d="M43.5 22.88c.55.86 1.58 2.9 1.58 3.94 0 2.25-1.46 4.13-3.53 5.16.27.7.52 1.4.52 2.16 0 3.68-3.38 6.66-7.53 6.66-1.26 0-2.4-.35-3.44-.83-.92 2.76-3.7 4.82-7.1 4.82-3.43 0-6.2-2.07-7.12-4.83-1.04.48-2.17.83-3.43.83-4.16 0-7.54-2.98-7.54-6.66 0-.77.26-1.47.53-2.16-2.07-1.03-3.53-2.9-3.53-5.16 0-1.2.4-4 1-5-.65-.96-.98-2-.98-3.08 0-2.24 1.46-4.13 3.53-5.16-.27-.7-.52-1.4-.52-2.16 0-3.67 3.38-6.65 7.53-6.65 1.26 0 2.4.34 3.44.83.92-2.76 3.7-4.83 7.1-4.83 3.43 0 6.2 2.07 7.12 4.83 1.04-.5 2.17-.83 3.43-.83 4.16 0 7.54 2.98 7.54 6.65 0 .77-.26 1.47-.53 2.16 2.07 1.03 3.53 2.92 3.53 5.16 0 1.02-1.08 3.3-1.6 4.14z" transform="matrix(.751 0 0 .751 -1.265 .109)"/><g><path fill="#c4c5c2" d="M20.76 5.7c0 1.95-1.8 3.53-4 3.53-2.22 0-4-1.58-4-3.54s1.78-3.55 4-3.55c2.2 0 4 1.6 4 3.54z"/><path fill="url(#r)" d="M291.7-437.6c0 1.84-1.5 3.32-3.32 3.32-1.83 0-3.32-1.48-3.32-3.3 0-1.84 1.5-3.33 3.3-3.33 1.84 0 3.33 1.48 3.33 3.3z" transform="matrix(1.209 0 0 1.069 -331.784 472.883)"/></g><path fill="#c4c5c2" d="M5.9 8.12h22.9v9.1H5.9z"/><path fill="#c4c5c2" d="M9.23 14.02c0 1.68-1.54 3.04-3.43 3.04-1.9 0-3.43-1.36-3.43-3.04C2.37 12.35 3.9 11 5.8 11c1.9 0 3.43 1.35 3.43 3.02z"/><g><path fill="#c4c5c2" d="M28.77 8.72c0 1.96-1.8 3.54-4 3.54-2.22 0-4-1.58-4-3.54 0-1.95 1.78-3.53 4-3.53 2.2 0 4 1.57 4 3.52z"/><path fill="url(#s)" d="M291.7-437.6c0 1.84-1.5 3.32-3.32 3.32-1.83 0-3.32-1.48-3.32-3.3 0-1.84 1.5-3.33 3.3-3.33 1.84 0 3.33 1.48 3.33 3.3z" transform="matrix(1.209 0 0 1.069 -323.776 475.916)"/></g><g><path fill="#c4c5c2" d="M12.75 8.72c0 1.96-1.8 3.54-4 3.54s-4-1.58-4-3.54c0-1.95 1.8-3.53 4-3.53s4 1.57 4 3.52z"/><path fill="url(#t)" d="M291.7-437.6c0 1.84-1.5 3.32-3.32 3.32-1.83 0-3.32-1.48-3.32-3.3 0-1.84 1.5-3.33 3.3-3.33 1.84 0 3.33 1.48 3.33 3.3z" transform="matrix(1.209 0 0 1.069 -339.792 475.916)"/></g><g><path fill="#c4c5c2" d="M15.5 5.12c-4.1 0-7.4 2.95-7.4 6.57 0 2.4 1.55 4.38 3.72 5.52h7.4c2.18-1.14 3.72-3.16 3.72-5.56 0-3.62-3.34-6.54-7.43-6.54z"/><path fill="url(#u)" d="M280.5-441c-3.6 0-6.5 2.9-6.5 6.5 0 2.38 1.34 4.37 3.25 5.5h6.5c1.9-1.13 3.25-3.12 3.25-5.5 0-3.6-2.9-6.5-6.5-6.5z" transform="matrix(1.144 0 0 1.011 -305.245 450.78)"/></g><path fill="url(#v)" d="M291.7-437.6c0 1.84-1.5 3.32-3.32 3.32-1.83 0-3.32-1.48-3.32-3.3 0-1.84 1.5-3.33 3.3-3.33 1.84 0 3.33 1.48 3.33 3.3z" transform="matrix(1.036 0 0 .915 -292.856 414.712)"/><g><path fill="#c4c5c2" d="M25.4 13.53c0 2.23-2.05 4.04-4.57 4.04-2.53 0-4.58-1.8-4.58-4.04 0-2.23 2.05-4.04 4.58-4.04 2.52 0 4.57 1.8 4.57 4.03z"/><path fill="url(#w)" d="M291.7-437.6c0 1.84-1.5 3.32-3.32 3.32-1.83 0-3.32-1.48-3.32-3.3 0-1.84 1.5-3.33 3.3-3.33 1.84 0 3.33 1.48 3.33 3.3z" transform="matrix(1.381 0 0 1.221 -377.562 547.211)"/></g><g><path fill="#c4c5c2" d="M20.75 28.82c0-1.95-1.8-3.54-4-3.54-2.22 0-4 1.6-4 3.54 0 1.96 1.78 3.54 4 3.54 2.2 0 4-1.58 4-3.54z"/><path fill="url(#x)" d="M291.7-437.6c0 1.84-1.5 3.32-3.32 3.32-1.83 0-3.32-1.48-3.32-3.3 0-1.84 1.5-3.33 3.3-3.33 1.84 0 3.33 1.48 3.33 3.3z" transform="matrix(1.209 0 0 -1.069 -331.798 -438.383)"/></g><path fill="#c4c5c2" d="M5.9 26.38h22.88v-9.1H5.9z"/><path fill="#c4c5c2" d="M9.22 20.5c0-1.68-1.54-3.04-3.43-3.04-1.9 0-3.45 1.36-3.45 3.03 0 1.67 1.54 3.03 3.44 3.03 1.88 0 3.42-1.36 3.42-3.04z"/><g><path fill="#c4c5c2" d="M28.76 25.8c0-1.96-1.8-3.55-4-3.55-2.22 0-4 1.6-4 3.54s1.78 3.53 4 3.53c2.2 0 4-1.6 4-3.54z"/><path fill="url(#y)" d="M291.7-437.6c0 1.84-1.5 3.32-3.32 3.32-1.83 0-3.32-1.48-3.32-3.3 0-1.84 1.5-3.33 3.3-3.33 1.84 0 3.33 1.48 3.33 3.3z" transform="matrix(1.209 0 0 -1.069 -323.79 -441.416)"/></g><g><path fill="#c4c5c2" d="M12.74 25.8c0-1.96-1.8-3.55-4-3.55-2.22 0-4 1.6-4 3.54s1.78 3.53 4 3.53c2.2 0 4-1.6 4-3.54z"/><path fill="url(#z)" d="M291.7-437.6c0 1.84-1.5 3.32-3.32 3.32-1.83 0-3.32-1.48-3.32-3.3 0-1.84 1.5-3.33 3.3-3.33 1.84 0 3.33 1.48 3.33 3.3z" transform="matrix(1.209 0 0 -1.069 -339.806 -441.416)"/></g><g><path fill="#c4c5c2" d="M15.5 29.4c-4.1 0-7.4-2.96-7.4-6.58 0-2.4 1.54-4.38 3.7-5.53h7.4c2.18 1.14 3.73 3.16 3.73 5.56 0 3.6-3.34 6.54-7.44 6.54z"/><path fill="url(#A)" d="M280.5-441c-3.6 0-6.5 2.9-6.5 6.5 0 2.38 1.34 4.37 3.25 5.5h6.5c1.9-1.13 3.25-3.12 3.25-5.5 0-3.6-2.9-6.5-6.5-6.5z" transform="matrix(1.144 0 0 -1.011 -305.259 -416.28)"/></g><path fill="url(#B)" d="M291.7-437.6c0 1.84-1.5 3.32-3.32 3.32-1.83 0-3.32-1.48-3.32-3.3 0-1.84 1.5-3.33 3.3-3.33 1.84 0 3.33 1.48 3.33 3.3z" transform="matrix(1.036 0 0 -.915 -292.869 -380.211)"/><g><path fill="#c4c5c2" d="M22.32 18.95c0-2.23-2.05-4.04-4.58-4.04-2.53 0-4.58 1.82-4.58 4.05 0 2.23 2.05 4.04 4.58 4.04 2.53 0 4.58-1.82 4.58-4.05z"/><path fill="url(#C)" d="M291.7-437.6c0 1.84-1.5 3.32-3.32 3.32-1.83 0-3.32-1.48-3.32-3.3 0-1.84 1.5-3.33 3.3-3.33 1.84 0 3.33 1.48 3.33 3.3z" transform="matrix(1.381 0 0 -1.221 -380.648 -514.746)"/></g><g><path fill="#c4c5c2" d="M29.55 16.72c0-2.23-2.05-4.04-4.58-4.04-2.53 0-4.58 1.8-4.58 4.04s2.04 4.05 4.57 4.05c2.53 0 4.58-1.8 4.58-4.05z"/><path fill="url(#D)" d="M291.7-437.6c0 1.84-1.5 3.32-3.32 3.32-1.83 0-3.32-1.48-3.32-3.3 0-1.84 1.5-3.33 3.3-3.33 1.84 0 3.33 1.48 3.33 3.3z" transform="matrix(1.381 0 0 -1.221 -373.419 -516.971)"/></g><path fill="url(#E)" stroke="#fff" stroke-opacity=".502" stroke-width="1.331" stroke-miterlimit="2" d="M5.5 22.05c-1 .98-1.17 3.52-1.17 4.97 0 1.9 1.6 3.58 3.53 4.5-.25.64-.64 1.48-.64 2.18 0 3.35 2.76 5.93 6.7 5.93 1.18 0 2.65-.7 3.62-1.16.98 3.23 3.1 5.2 6.28 5.2s5.6-2.05 6.55-5.17c.97.44 2.77 1.16 3.95 1.16 3.86 0 6.33-2.6 6.33-5.96 0-.7-.42-1.7-.67-2.3 1.92-.95 3.54-2.33 3.54-4.38 0-1.34-.85-2.48-1.76-4.06.88-1.6 1.77-2.98 1.77-4.4 0-2.04-1.6-3.42-3.53-4.36.25-.62.67-1.6.67-2.3C40.67 8.53 37.6 6 33.74 6c-1.17 0-2.4.63-3.36 1.07-.94-3.13-3.26-4.93-6.44-4.93-3.18 0-5.4 1.72-6.38 4.95-.97-.45-2.25-1.08-3.42-1.08-3.94 0-6.9 2.5-6.9 5.85 0 .7.4 1.7.64 2.33-1.92.94-3.54 2.43-3.54 4.34 0 1.4.23 2.5 1.17 3.48z" transform="matrix(.751 0 0 .751 -1.265 .109)"/><path fill="#888a85" fill-rule="evenodd" d="M30.7 9.43c0 2.65-3.66 3.67-3.66 3.67s2.63-1.6 2.6-3.66c0 0 1.06 0 1.06 0z"/><path fill="url(#F)" fill-rule="evenodd" d="M31.8 41.03c-3.83-.63-4.44-6.15-4.44-6.15s1.7 4.18 4.68 4.64c0 0-.23 1.5-.23 1.5z" transform="matrix(.751 0 0 .751 -1.265 .109)"/><path fill="url(#G)" fill-rule="evenodd" d="M41.46 32.9c-3.76.95-6.53-3.87-6.53-3.87s3.23 3.14 6.14 2.38c0 0 .4 1.5.4 1.5z" transform="matrix(.751 0 0 .751 -1.265 .109)"/></g><path fill="none" stroke="#fff" stroke-miterlimit="6" d="M108.02-3.18v12.3h-5.98L92.3 28l-.45-18.87H85.8v-12.3H108z" color="#000" overflow="visible"/><g fill="none" stroke="#eeeeec" stroke-width="3" font-size="40" letter-spacing="0" word-spacing="0" font-family="Tahoma"><path d="M24.47 34.7c-.3 0-.57.02-.86.1-.27.06-.55.15-.83.26-.25.1-.47.22-.66.33-.18.1-.35.22-.5.32h-.1v-1.68c.35-.18.82-.35 1.4-.5.6-.15 1.16-.23 1.7-.23.53 0 1 .07 1.4.18.4.1.76.27 1.08.5.35.25.6.56.8.92.17.36.25.78.25 1.26 0 .65-.2 1.22-.64 1.72s-.95.8-1.55.93v.12c.25.05.52.13.8.25s.55.3.8.5c.23.24.43.53.58.9.16.35.23.78.23 1.3 0 .53-.1 1.02-.27 1.47-.2.45-.45.84-.78 1.2-.35.34-.76.62-1.25.8-.5.2-1.04.28-1.66.28-.58 0-1.17-.07-1.75-.2-.58-.16-1.07-.33-1.47-.53V43.2h.1c.35.24.8.47 1.36.7.56.22 1.12.33 1.68.33.32 0 .64-.05.97-.16.32-.1.6-.28.8-.5.2-.24.38-.5.5-.78.1-.28.15-.64.15-1.06 0-.43-.06-.78-.18-1.06-.13-.27-.3-.5-.52-.65-.22-.16-.5-.27-.8-.33-.3-.06-.63-.1-.98-.1h-.67v-1.3h.52c.7 0 1.3-.18 1.74-.52.45-.33.67-.83.67-1.47 0-.3-.06-.55-.17-.77-.12-.2-.27-.38-.45-.5-.2-.15-.4-.24-.65-.3-.25-.05-.5-.07-.78-.07z" style="line-height:125%;-inkscape-font-specification:Tahoma"/><path d="M30.9 45.37H29V43.1h1.9z" style="line-height:125%;-inkscape-font-specification:Tahoma"/><path d="M37.8 45.37h-5.76v-1.2h2.14v-7.92h-2.14v-1.08c.8 0 1.4-.12 1.8-.35.37-.23.6-.66.64-1.3h1.23v10.65h2.1z" style="line-height:125%;-inkscape-font-specification:Tahoma"/><path d="M46.33 41.3h-1.4v4.07H43.4V41.3h-5.22v-1.66l5.3-6.08h1.45v6.48h1.4zm-2.93-1.26v-4.62l-3.98 4.62z" style="line-height:125%;-inkscape-font-specification:Tahoma"/></g><g font-size="40" letter-spacing="0" word-spacing="0" font-family="Tahoma"><path d="M24.47 34.7c-.3 0-.57.02-.86.1-.27.06-.55.15-.83.26-.25.1-.47.22-.66.33-.18.1-.35.22-.5.32h-.1v-1.68c.35-.18.82-.35 1.4-.5.6-.15 1.16-.23 1.7-.23.53 0 1 .07 1.4.18.4.1.76.27 1.08.5.35.25.6.56.8.92.17.36.25.78.25 1.26 0 .65-.2 1.22-.64 1.72s-.95.8-1.55.93v.12c.25.05.52.13.8.25s.55.3.8.5c.23.24.43.53.58.9.16.35.23.78.23 1.3 0 .53-.1 1.02-.27 1.47-.2.45-.45.84-.78 1.2-.35.34-.76.62-1.25.8-.5.2-1.04.28-1.66.28-.58 0-1.17-.07-1.75-.2-.58-.16-1.07-.33-1.47-.53V43.2h.1c.35.24.8.47 1.36.7.56.22 1.12.33 1.68.33.32 0 .64-.05.97-.16.32-.1.6-.28.8-.5.2-.24.38-.5.5-.78.1-.28.15-.64.15-1.06 0-.43-.06-.78-.18-1.06-.13-.27-.3-.5-.52-.65-.22-.16-.5-.27-.8-.33-.3-.06-.63-.1-.98-.1h-.67v-1.3h.52c.7 0 1.3-.18 1.74-.52.45-.33.67-.83.67-1.47 0-.3-.06-.55-.17-.77-.12-.2-.27-.38-.45-.5-.2-.15-.4-.24-.65-.3-.25-.05-.5-.07-.78-.07z" style="line-height:125%;-inkscape-font-specification:Tahoma"/><path d="M30.9 45.37H29V43.1h1.9z" style="line-height:125%;-inkscape-font-specification:Tahoma"/><path d="M37.8 45.37h-5.76v-1.2h2.14v-7.92h-2.14v-1.08c.8 0 1.4-.12 1.8-.35.37-.23.6-.66.64-1.3h1.23v10.65h2.1z" style="line-height:125%;-inkscape-font-specification:Tahoma"/><path d="M46.33 41.3h-1.4v4.07H43.4V41.3h-5.22v-1.66l5.3-6.08h1.45v6.48h1.4zm-2.93-1.26v-4.62l-3.98 4.62z" style="line-height:125%;-inkscape-font-specification:Tahoma"/></g><path fill="url(#H)" stroke="url(#I)" d="M4.2 25.54l10 10.85 4.75-4.37 1.5 15.1-14.6-3.7 4.1-3.75L.43 29.3l3.8-3.76z" color="#000" stroke-linejoin="round" overflow="visible"/></g></svg>