<svg xmlns="http://www.w3.org/2000/svg" width="48" height="48" xmlns:xlink="http://www.w3.org/1999/xlink"><defs><linearGradient id="r"><stop offset="0" stop-color="#888a85"/><stop offset="1" stop-color="#2e3436"/></linearGradient><linearGradient id="o"><stop offset="0" stop-color="#8f5902"/><stop offset="1" stop-color="#583701"/></linearGradient><linearGradient id="n"><stop offset="0" stop-color="#e9b96e"/><stop offset="1" stop-color="#c17d11"/></linearGradient><linearGradient id="m"><stop offset="0" stop-color="#2e3436"/><stop offset="1" stop-color="#2e3436" stop-opacity="0"/></linearGradient><linearGradient id="j"><stop offset="0" stop-color="#74726e"/><stop offset="1" stop-color="#5d5b58" stop-opacity="0"/></linearGradient><linearGradient id="i"><stop offset="0" stop-color="#5d5b58"/><stop offset="1" stop-color="#5d5b58" stop-opacity="0"/></linearGradient><linearGradient id="h"><stop offset="0" stop-color="#888a85"/><stop offset="1" stop-color="#51534f"/></linearGradient><linearGradient id="g"><stop offset="0" stop-color="#2e3436" stop-opacity=".619"/><stop offset="1" stop-color="#2e3436" stop-opacity="0"/></linearGradient><linearGradient id="e"><stop offset="0" stop-color="#fff"/><stop offset="1" stop-color="#fff" stop-opacity="0"/></linearGradient><linearGradient id="d"><stop offset="0" stop-color="#fff"/><stop offset="1" stop-color="#fff" stop-opacity="0"/></linearGradient><linearGradient id="c"><stop offset="0" stop-color="#fff"/><stop offset="1" stop-color="#fff" stop-opacity="0"/></linearGradient><linearGradient id="b"><stop offset="0" stop-color="#fff"/><stop offset="1" stop-color="#fff" stop-opacity="0"/></linearGradient><linearGradient id="a"><stop offset="0" stop-color="#fff"/><stop offset="1" stop-color="#fff" stop-opacity="0"/></linearGradient><linearGradient id="f"><stop offset="0" stop-color="#fff"/><stop offset="1" stop-color="#fff" stop-opacity="0"/></linearGradient><linearGradient x1="287.517" x2="289.676" y1="-439.753" y2="-436.322" xlink:href="#a" gradientUnits="userSpaceOnUse"/><linearGradient x1="286.512" x2="289.854" y1="-441.291" y2="-436.145" xlink:href="#b" gradientUnits="userSpaceOnUse"/><linearGradient x1="285.941" x2="289.391" y1="-439.939" y2="-436.443" xlink:href="#c" gradientUnits="userSpaceOnUse"/><linearGradient x1="275.942" x2="279.975" y1="-437.105" y2="-431.918" xlink:href="#d" gradientUnits="userSpaceOnUse"/><linearGradient x1="286.666" x2="289.766" y1="-439.484" y2="-436.707" xlink:href="#e" gradientUnits="userSpaceOnUse"/><linearGradient x1="284.802" x2="288.9" y1="-441.233" y2="-436.831" xlink:href="#c" gradientUnits="userSpaceOnUse"/><linearGradient x1="286.415" x2="290.078" y1="-435.784" y2="-439.289" xlink:href="#c" gradientUnits="userSpaceOnUse"/><linearGradient x1="286.295" x2="289.395" y1="-435.628" y2="-438.19" xlink:href="#e" gradientUnits="userSpaceOnUse"/><linearGradient x1="276.614" x2="283.463" y1="-431" y2="-438.722" xlink:href="#f" gradientUnits="userSpaceOnUse"/><linearGradient x1="286.014" x2="288.375" y1="-435.546" y2="-438.971" xlink:href="#c" gradientUnits="userSpaceOnUse"/><linearGradient x1="287.147" x2="289.473" y1="-434.809" y2="-437.594" xlink:href="#b" gradientUnits="userSpaceOnUse"/><linearGradient x1="286.246" x2="290.121" y1="-434.732" y2="-439.69" xlink:href="#a" gradientUnits="userSpaceOnUse"/><linearGradient x1="271.022" x2="285.029" y1="-441.052" y2="-431.97" xlink:href="#f" gradientUnits="userSpaceOnUse" gradientTransform="matrix(1.452 0 0 1.286 -383.21 574.384)"/><linearGradient x1="286.415" x2="288.375" y1="-435.784" y2="-437.888" xlink:href="#c" gradientUnits="userSpaceOnUse"/><radialGradient id="s" cx="23.335" cy="44.42" r="18.562" xlink:href="#g" fx="23.335" fy="44.42" gradientTransform="matrix(1 0 0 .193 0 35.854)" gradientUnits="userSpaceOnUse"/><linearGradient x1="20.73" x2="23.296" y1="29.815" y2="45.056" xlink:href="#h" gradientUnits="userSpaceOnUse" gradientTransform="matrix(.989 0 0 .989 -.147 .251)"/><linearGradient x1="29.124" x2="27.356" y1="38.897" y2="34.879" xlink:href="#i" gradientUnits="userSpaceOnUse"/><linearGradient x1="29.124" x2="27.356" y1="38.897" y2="34.879" xlink:href="#j" gradientUnits="userSpaceOnUse" gradientTransform="matrix(.917 -.399 .399 .917 -4.08 7.972)"/><radialGradient cx="23.335" cy="44.42" r="18.562" xlink:href="#g" gradientUnits="userSpaceOnUse" gradientTransform="matrix(1 0 0 .193 0 35.854)" fx="23.335" fy="44.42"/><linearGradient x1="20.73" x2="23.296" y1="29.815" y2="45.056" xlink:href="#h" gradientUnits="userSpaceOnUse" gradientTransform="matrix(.989 0 0 .989 -49.645 2.314)"/><linearGradient x1="287.517" x2="289.676" y1="-439.753" y2="-436.322" xlink:href="#a" gradientUnits="userSpaceOnUse"/><linearGradient x1="286.512" x2="289.854" y1="-441.291" y2="-436.145" xlink:href="#b" gradientUnits="userSpaceOnUse"/><linearGradient x1="285.941" x2="289.391" y1="-439.939" y2="-436.443" xlink:href="#c" gradientUnits="userSpaceOnUse"/><linearGradient x1="275.942" x2="279.975" y1="-437.105" y2="-431.918" xlink:href="#d" gradientUnits="userSpaceOnUse"/><linearGradient x1="286.666" x2="289.766" y1="-439.484" y2="-436.707" xlink:href="#e" gradientUnits="userSpaceOnUse"/><linearGradient x1="284.802" x2="288.9" y1="-441.233" y2="-436.831" xlink:href="#c" gradientUnits="userSpaceOnUse"/><linearGradient x1="286.246" x2="290.121" y1="-434.732" y2="-439.69" xlink:href="#a" gradientUnits="userSpaceOnUse"/><linearGradient x1="287.147" x2="289.473" y1="-434.809" y2="-437.594" xlink:href="#b" gradientUnits="userSpaceOnUse"/><linearGradient x1="286.014" x2="288.375" y1="-435.546" y2="-438.971" xlink:href="#c" gradientUnits="userSpaceOnUse"/><linearGradient x1="276.614" x2="283.463" y1="-431" y2="-438.722" xlink:href="#f" gradientUnits="userSpaceOnUse"/><linearGradient x1="286.295" x2="289.395" y1="-435.628" y2="-438.19" xlink:href="#e" gradientUnits="userSpaceOnUse"/><linearGradient x1="286.415" x2="290.078" y1="-435.784" y2="-439.289" xlink:href="#c" gradientUnits="userSpaceOnUse"/><linearGradient x1="286.415" x2="288.375" y1="-435.784" y2="-437.888" xlink:href="#c" gradientUnits="userSpaceOnUse"/><linearGradient x1="271.022" x2="285.029" y1="-441.052" y2="-431.97" xlink:href="#f" gradientUnits="userSpaceOnUse" gradientTransform="matrix(1.452 0 0 1.286 -433.12 576.447)"/><linearGradient x1="20.73" x2="23.296" y1="29.815" y2="45.056" xlink:href="#h" gradientUnits="userSpaceOnUse" gradientTransform="matrix(.989 0 0 .989 -.147 .251)"/><linearGradient x1="20.73" x2="23.296" y1="29.815" y2="45.056" xlink:href="#h" gradientUnits="userSpaceOnUse" gradientTransform="matrix(.989 0 0 .989 -.147 .251)"/><linearGradient id="t" x1="20.73" x2="23.296" y1="29.815" y2="45.056" xlink:href="#h" gradientUnits="userSpaceOnUse" gradientTransform="matrix(.989 0 0 .989 -1.856 .192)"/><linearGradient x1="20.73" x2="23.296" y1="29.815" y2="45.056" xlink:href="#h" gradientUnits="userSpaceOnUse" gradientTransform="matrix(.989 0 0 .989 -1.856 .192)"/><linearGradient x1="306.259" x2="313.121" y1="-443.206" y2="-434.582" xlink:href="#k" gradientUnits="userSpaceOnUse" gradientTransform="matrix(1.452 0 0 1.286 -433.12 576.447)"/><linearGradient id="k"><stop offset="0" stop-color="#fff"/><stop offset="1" stop-color="#fff" stop-opacity="0"/></linearGradient><linearGradient x1="271.022" x2="285.029" y1="-441.052" y2="-431.97" gradientTransform="matrix(1.452 0 0 1.286 -387.036 572.71)" gradientUnits="userSpaceOnUse" xlink:href="#k"/><linearGradient id="F" x1="306.44" x2="317.762" y1="-443.544" y2="-433.24" xlink:href="#l" gradientUnits="userSpaceOnUse" gradientTransform="matrix(1.361 0 0 1.206 -404.72 542.015)"/><linearGradient id="l"><stop offset="0" stop-color="#fff"/><stop offset="1" stop-color="#fff" stop-opacity="0"/></linearGradient><linearGradient x1="271.022" x2="285.029" y1="-441.052" y2="-431.97" gradientTransform="matrix(1.452 0 0 1.286 -387.036 572.71)" gradientUnits="userSpaceOnUse" xlink:href="#l"/><linearGradient id="u" x1="287.517" x2="289.676" y1="-439.753" y2="-436.322" xlink:href="#a" gradientUnits="userSpaceOnUse"/><linearGradient id="v" x1="286.512" x2="289.854" y1="-441.291" y2="-436.145" xlink:href="#b" gradientUnits="userSpaceOnUse"/><linearGradient id="w" x1="285.941" x2="289.391" y1="-439.939" y2="-436.443" xlink:href="#c" gradientUnits="userSpaceOnUse"/><linearGradient id="x" x1="275.942" x2="279.975" y1="-437.105" y2="-431.918" xlink:href="#d" gradientUnits="userSpaceOnUse"/><linearGradient x1="286.666" x2="289.766" y1="-439.484" y2="-436.707" xlink:href="#e" gradientUnits="userSpaceOnUse"/><linearGradient id="y" x1="284.802" x2="288.9" y1="-441.233" y2="-436.831" xlink:href="#c" gradientUnits="userSpaceOnUse"/><linearGradient id="z" x1="286.246" x2="290.121" y1="-434.732" y2="-439.69" xlink:href="#a" gradientUnits="userSpaceOnUse"/><linearGradient id="A" x1="287.147" x2="289.473" y1="-434.809" y2="-437.594" xlink:href="#b" gradientUnits="userSpaceOnUse"/><linearGradient id="C" x1="286.014" x2="288.375" y1="-435.546" y2="-438.971" xlink:href="#c" gradientUnits="userSpaceOnUse"/><linearGradient x1="276.614" x2="283.463" y1="-431" y2="-438.722" xlink:href="#f" gradientUnits="userSpaceOnUse"/><linearGradient x1="286.295" x2="289.395" y1="-435.628" y2="-438.19" xlink:href="#e" gradientUnits="userSpaceOnUse"/><linearGradient id="E" x1="286.415" x2="290.078" y1="-435.784" y2="-439.289" xlink:href="#c" gradientUnits="userSpaceOnUse"/><linearGradient x1="286.415" x2="288.375" y1="-435.784" y2="-437.888" xlink:href="#c" gradientUnits="userSpaceOnUse"/><linearGradient id="B" x1="286.014" x2="288.375" y1="-435.546" y2="-438.971" xlink:href="#c" gradientUnits="userSpaceOnUse"/><linearGradient id="D" x1="276.614" x2="283.463" y1="-431" y2="-438.722" xlink:href="#f" gradientUnits="userSpaceOnUse"/><linearGradient id="G" x1="286.415" x2="290.078" y1="-435.784" y2="-439.289" xlink:href="#c" gradientUnits="userSpaceOnUse"/><radialGradient id="H" cx="22.13" cy="26.369" r="15.84" xlink:href="#m" fx="22.13" fy="26.369" gradientTransform="matrix(1 0 0 .26 -.059 20.513)" gradientUnits="userSpaceOnUse"/><linearGradient id="I" x1="5.79" x2="38.471" y1="24.926" y2="24.926" xlink:href="#n" gradientUnits="userSpaceOnUse"/><linearGradient id="J" x1="22.879" x2="23.032" y1="24.101" y2="29.227" xlink:href="#o" gradientUnits="userSpaceOnUse"/><linearGradient id="K" x1="40.497" x2="30.634" y1="36.711" y2="25.633" xlink:href="#p" gradientUnits="userSpaceOnUse" gradientTransform="matrix(.873 0 0 .709 3.864 6.766)"/><linearGradient id="p"><stop offset="0" stop-color="#e9b96e"/><stop offset="1" stop-color="#c17d11"/></linearGradient><linearGradient id="L" x1="35.076" x2="36.408" y1="23.217" y2="37.359" xlink:href="#q" gradientUnits="userSpaceOnUse" gradientTransform="matrix(.873 0 0 .709 3.864 6.766)"/><linearGradient id="q"><stop offset="0" stop-color="#8f5902"/><stop offset="1" stop-color="#583701"/></linearGradient><linearGradient x1="5.79" x2="38.471" y1="24.926" y2="24.926" gradientTransform="translate(-5.79 -20.041)" gradientUnits="userSpaceOnUse" xlink:href="#p"/><linearGradient x1="22.879" x2="23.032" y1="24.101" y2="29.227" gradientTransform="translate(-5.79 -20.041)" gradientUnits="userSpaceOnUse" xlink:href="#q"/><linearGradient id="M" x1="20.962" x2="29.24" y1="22.45" y2="31.289" xlink:href="#r" gradientUnits="userSpaceOnUse"/></defs><g><path fill="url(#s)" fill-rule="evenodd" d="M41.9 44.42a18.56 3.58 0 1 1-37.13 0 18.56 3.58 0 1 1 37.13 0z" transform="matrix(1.148 0 0 1.148 -3.457 -6.581)" color="#000" overflow="visible"/><path fill="#c4c5c2" stroke="url(#t)" stroke-width="1.5" stroke-miterlimit="2" d="M32.54 22.82c4.8 1.4 8.74 4.14 6.9 9.1.26.7.5 1.4.5 2.16 0 3.68-3.37 6.66-7.52 6.66-1.27 0-2.4-.35-3.44-.83-.92 2.77-3.7 4.83-7.1 4.83-3.43 0-6.2-2.06-7.12-4.82-1.04.5-2.17.84-3.43.84-4.16 0-7.54-2.98-7.54-6.66 0-.77.24-1.47.5-2.16-2.03-5.44 2.37-9.1 5.9-9.63-4.18-.98-9.68-3.84-5.87-8.78-1.72-4.82 3.46-8.72 7-8.8 1.27 0 2.4.33 3.45.82.92-2.76 3.7-4.83 7.1-4.83C25.32.7 28.1 2.8 29 5.55c1.04-.5 2.17-.83 3.43-.83 4.16 0 7.54 3 7.54 6.66 0 .77-.25 1.48-.52 2.16 3.94 4.45-1.34 9.52-6.9 9.3z"/><g><path fill="#c4c5c2" d="M27.63 6.32c0 2.6-2.4 4.7-5.33 4.7-2.94 0-5.33-2.1-5.33-4.7s2.4-4.7 5.33-4.7c2.94 0 5.33 2.1 5.33 4.7z"/><path fill="url(#u)" d="M291.7-437.6c0 1.84-1.5 3.32-3.32 3.32-1.83 0-3.32-1.48-3.32-3.3 0-1.84 1.5-3.33 3.3-3.33 1.84 0 3.33 1.48 3.33 3.3z" transform="matrix(1.61 0 0 1.423 -441.689 628.581)"/></g><g><path fill="#c4c5c2" d="M38.3 10.35c0 2.6-2.4 4.7-5.34 4.7s-5.33-2.1-5.33-4.7 2.4-4.7 5.33-4.7c2.95 0 5.33 2.1 5.33 4.7z"/><path fill="url(#v)" d="M291.7-437.6c0 1.84-1.5 3.32-3.32 3.32-1.83 0-3.32-1.48-3.32-3.3 0-1.84 1.5-3.33 3.3-3.33 1.84 0 3.33 1.48 3.33 3.3z" transform="matrix(1.61 0 0 1.423 -431.028 632.619)"/></g><g><path fill="#c4c5c2" d="M16.97 10.35c0 2.6-2.4 4.7-5.33 4.7-2.95 0-5.33-2.1-5.33-4.7s2.4-4.7 5.34-4.7 5.33 2.1 5.33 4.7z"/><path fill="url(#w)" d="M291.7-437.6c0 1.84-1.5 3.32-3.32 3.32-1.83 0-3.32-1.48-3.32-3.3 0-1.84 1.5-3.33 3.3-3.33 1.84 0 3.33 1.48 3.33 3.3z" transform="matrix(1.61 0 0 1.423 -452.35 632.619)"/></g><g><path fill="#c4c5c2" d="M20.87 5.73C15.4 5.73 11 9.66 11 14.47c0 3.2 2.07 5.84 4.96 7.36h9.86c2.9-1.52 4.95-4.2 4.95-7.4 0-4.82-4.45-8.7-9.9-8.7z"/><path fill="url(#x)" d="M280.5-441c-3.6 0-6.5 2.9-6.5 6.5 0 2.38 1.34 4.37 3.25 5.5h6.5c1.9-1.13 3.25-3.12 3.25-5.5 0-3.6-2.9-6.5-6.5-6.5z" transform="matrix(1.523 0 0 1.346 -406.358 599.153)"/></g><g><path fill="#c4c5c2" d="M33.75 16.47c0 2.97-2.73 5.38-6.1 5.38-3.36 0-6.1-2.4-6.1-5.38s2.74-5.4 6.1-5.4c3.37 0 6.1 2.42 6.1 5.4z"/><path fill="url(#y)" d="M291.7-437.6c0 1.84-1.5 3.32-3.32 3.32-1.83 0-3.32-1.48-3.32-3.3 0-1.84 1.5-3.33 3.3-3.33 1.84 0 3.33 1.48 3.33 3.3z" transform="matrix(1.84 0 0 1.626 -502.673 727.556)"/></g><g><path fill="#c4c5c2" d="M27.6 37.45c0-2.6-2.37-4.7-5.32-4.7-2.94 0-5.33 2.1-5.33 4.7s2.4 4.7 5.33 4.7c2.95 0 5.33-2.1 5.33-4.7z"/><path fill="url(#z)" d="M291.7-437.6c0 1.84-1.5 3.32-3.32 3.32-1.83 0-3.32-1.48-3.32-3.3 0-1.84 1.5-3.33 3.3-3.33 1.84 0 3.33 1.48 3.33 3.3z" transform="matrix(1.61 0 0 -1.423 -441.707 -584.817)"/></g><g><path fill="#c4c5c2" d="M38.28 33.4c0-2.6-2.4-4.7-5.33-4.7-2.95 0-5.33 2.1-5.33 4.7s2.38 4.72 5.33 4.72c2.94 0 5.33-2.1 5.33-4.7z"/><path fill="url(#A)" d="M291.7-437.6c0 1.84-1.5 3.32-3.32 3.32-1.83 0-3.32-1.48-3.32-3.3 0-1.84 1.5-3.33 3.3-3.33 1.84 0 3.33 1.48 3.33 3.3z" transform="matrix(1.61 0 0 -1.423 -431.046 -588.855)"/></g><g><path fill="#c4c5c2" d="M17.72 28.7c0-2.6-2.4-4.7-5.33-4.7-2.96 0-5.34 2.1-5.34 4.7s2.38 4.7 5.33 4.7c2.93 0 5.32-2.1 5.32-4.7z"/><path fill="url(#B)" d="M291.7-437.6c0 1.84-1.5 3.32-3.32 3.32-1.83 0-3.32-1.48-3.32-3.3 0-1.84 1.5-3.33 3.3-3.33 1.84 0 3.33 1.48 3.33 3.3z" transform="matrix(1.61 0 0 -1.423 -451.602 -593.569)"/></g><g><path fill="#c4c5c2" d="M16.95 33.4c0-2.6-2.4-4.7-5.33-4.7-2.94 0-5.33 2.1-5.33 4.7s2.38 4.72 5.32 4.72c2.94 0 5.33-2.1 5.33-4.7z"/><path fill="url(#C)" d="M291.7-437.6c0 1.84-1.5 3.32-3.32 3.32-1.83 0-3.32-1.48-3.32-3.3 0-1.84 1.5-3.33 3.3-3.33 1.84 0 3.33 1.48 3.33 3.3z" transform="matrix(1.61 0 0 -1.423 -452.368 -588.855)"/></g><g><path fill="#c4c5c2" d="M18.86 35.98c-4.06 0-7.33-2.92-7.33-6.5 0-2.38 1.53-4.35 3.68-5.48h7.34c2.16 1.13 3.7 3.13 3.7 5.5 0 3.6-3.32 6.48-7.38 6.48z"/><path fill="url(#D)" d="M280.5-441c-3.6 0-6.5 2.9-6.5 6.5 0 2.38 1.34 4.37 3.25 5.5h6.5c1.9-1.13 3.25-3.12 3.25-5.5 0-3.6-2.9-6.5-6.5-6.5z" transform="matrix(1.133 0 0 -1.001 -299.033 -405.58)"/></g><g><path fill="#c4c5c2" d="M29.64 24.6c0-3-2.73-5.4-6.1-5.4-3.36 0-6.1 2.4-6.1 5.4 0 2.96 2.74 5.37 6.1 5.37 3.37 0 6.1-2.4 6.1-5.38z"/><path fill="url(#E)" d="M291.7-437.6c0 1.84-1.5 3.32-3.32 3.32-1.83 0-3.32-1.48-3.32-3.3 0-1.84 1.5-3.33 3.3-3.33 1.84 0 3.33 1.48 3.33 3.3z" transform="matrix(1.84 0 0 -1.626 -506.782 -686.503)"/></g><path fill="url(#F)" stroke="#fff" stroke-opacity=".502" stroke-miterlimit="2" d="M29.53 22.58c4.62 2.32 10.78 3.82 8.57 9 1.9 5.4-3 7.95-6.34 8.04-1.18 0-2.36-1.1-3.34-1.55-.86 2.6-3.34 5.3-6.55 5.3-3.2 0-5.62-2.7-6.48-5.3-1 .46-2.23 1.55-3.4 1.55-3.9 0-7.07-2.8-7.07-6.24 0-.72.22-1.38.48-2.03-1.9-5.1 3.4-7.6 7.3-8.92-4.1-2.2-10.85-3.7-7.27-8.33-1.2-7 5.7-9.5 10.15-6.6 1.56-7.22 10.8-7.57 12.74-.2 5.62-3.5 12 .86 10.03 6.8 3.7 4.17-1.84 7.75-8.82 8.48z" color="#000" overflow="visible" enable-background="accumulate"/><g><path fill="#c4c5c2" d="M36.12 29.2c0-2.46-2.26-4.45-5.03-4.45-2.8 0-5.05 2-5.05 4.44 0 2.45 2.26 4.44 5.04 4.44 2.76 0 5.02-2 5.02-4.45z"/><path fill="url(#G)" d="M291.7-437.6c0 1.84-1.5 3.32-3.32 3.32-1.83 0-3.32-1.48-3.32-3.3 0-1.84 1.5-3.33 3.3-3.33 1.84 0 3.33 1.48 3.33 3.3z" transform="matrix(1.52 0 0 -1.342 -406.962 -558.053)"/></g><path fill="url(#H)" d="M6.78 23.25c9.4 5.15 21.34 5.02 30.58.6.78 1 .74 2.97-.18 4-9.5 5.3-21.38 4.65-30.4-.9-.86-.93-.6-2.7 0-3.7z"/><path fill="url(#I)" stroke="url(#J)" d="M6.84 20.54c8.5 4.3 21.1 4.58 30.58.63.78 1.1.74 3.17-.18 4.26-9.5 5.65-21.38 4.95-30.4-.94-.86-1-.6-2.88 0-3.96z"/><path fill="none" stroke="#f0d09d" stroke-width=".75" d="M7.43 21.82c7.7 3.86 20.96 4.1 29.5.57.24.96.1 1.77-.27 2.4-7.84 5.08-20.66 4.67-29.23-.9-.47-.62-.3-1.53 0-2.08z"/><path fill="#2e3436" fill-opacity=".428" d="M27.78 22.6l-6.54.67c-1.5.15-2.72 1.5-2.72 3v3.87c0 1.5 1.22 2.58 2.72 2.43l6.54-.7c1.5-.14 2.73-1.48 2.73-2.98v-3.85c0-1.5-1.2-2.62-2.72-2.46zm-.68 2.45c.86-.08 1.55.52 1.55 1.37v2.2c0 .85-.7 1.58-1.55 1.67l-3.74.37c-.86.1-1.55-.52-1.55-1.37v-2.16c0-.85.7-1.62 1.56-1.7l3.74-.4z" color="#000" overflow="visible" enable-background="accumulate"/><path fill="url(#K)" stroke="url(#L)" d="M30.66 23.25c4.7 1.43 8.1 3.52 9.25 6.73.44 2.5-.7 4.48-2.88 3.88-1.8-2.65-2.2-4.3-6.38-5.22z" color="#000" overflow="visible" enable-background="accumulate"/><path fill="none" stroke="#f0d09d" stroke-width=".75" d="M31.65 24.7c3.7 1.08 6.37 2.86 7.28 5.3.33 1.93-.26 3.6-1.8 2.8-1.1-2.03-2.2-4-5.5-4.7z" color="#000" overflow="visible" enable-background="accumulate"/><path fill="#eeeeec" stroke="url(#M)" stroke-miterlimit="2" d="M28.9 21.76l-6.54.68c-1.5.16-2.73 1.5-2.73 3v3.87c0 1.52 1.23 2.6 2.73 2.44l6.54-.68c1.5-.16 2.73-1.5 2.73-3v-3.83c0-1.5-1.23-2.62-2.73-2.47zm-.68 2.47c.86-.1 1.55.52 1.55 1.36v2.2c0 .84-.7 1.58-1.55 1.66l-3.74.38c-.86.1-1.55-.5-1.55-1.36V26.3c0-.83.7-1.6 1.55-1.7l3.74-.37z" color="#000" overflow="visible" enable-background="accumulate"/><rect width="4.936" height="1.843" x="25.811" y="29.576" fill="#eeeeec" stroke="#555753" stroke-width="1.005" ry=".54" transform="matrix(.991 -.135 0 1 0 0)" enable-background="accumulate" overflow="visible" color="#000"/></g></svg>