<svg xmlns="http://www.w3.org/2000/svg" width="48" height="48" xmlns:xlink="http://www.w3.org/1999/xlink"><defs><linearGradient id="a"><stop offset="0" stop-color="#2e3436"/><stop offset="1" stop-color="#2e3436" stop-opacity="0"/></linearGradient><radialGradient id="b" cx="23.857" cy="39.25" r="22.214" xlink:href="#a" fx="23.857" fy="39.25" gradientTransform="matrix(1 0 0 .404 0 23.411)" gradientUnits="userSpaceOnUse"/></defs><g><path fill="url(#b)" d="M46.07 39.25a22.2 8.96 0 1 1-44.43 0 22.2 8.96 0 1 1 44.43 0z" transform="matrix(1 0 0 1.554 0 -26.7)" color="#000" overflow="visible" enable-background="accumulate"/><path fill="#d3d7cf" stroke="#000" d="M7.84 7.06l1.02 2.12-1.6 1.45L9.2 19.3l-1.6 2.63-2.3-1.6-1.8-11.5z"/><path fill="#d3d7cf" stroke="#000" d="M9.54 6.2l2.98 4.5-2.38 1.7-.26 7.15-2.72-8.84 1.7-1.52-.93-2.12z"/><path fill="#d3d7cf" stroke="#000" d="M5.04 20.15l2.72 1.87 1.87-2.9 4.6 3.66 2.2 6.04-1.7.93-4.93-3.3-1.1 3.4-2.8.07z"/><path fill="#d3d7cf" stroke="#000" d="M5.72 30.18l3.06-.34 5.87 5.35.93 3.9-9.44-6.8z"/><path fill="#d3d7cf" stroke="#000" d="M9.8 26.52l4.85 3.23.08 5.36-6.2-5.35z"/><path fill="#d3d7cf" stroke="#000" d="M14.73 29.92l1.7-1.27 3.83 1.87 5.44 9.35 1.87-1.2-1.1 6.8-.94.6-10.12-7.05-.92-4.17z"/><path fill="#d3d7cf" stroke="#000" d="M12.35 10.8c.5.08 5.1 2.38 5.1 2.38l-4.25 1.1.6 7.82-4.17-2.97.68-6.8z"/><path fill="#d3d7cf" stroke="#000" d="M14.82 4.17L16.6 5.7l5.53-.5 1.95 4.07-3.9 2.63-2.9 1.1-4.76-2.12-2.9-4.6z"/><path fill="#d3d7cf" stroke="#000" d="M14.48 3.83l2.12 2.12 5.6-.85L25.1 4l1.7-2.38-3.4-1.2z"/><path fill="#d3d7cf" stroke="#000" d="M24.68 4.34l3.74 1.95 5.27-1.96-6.98-2.72z"/><path fill="#d3d7cf" stroke="#000" d="M24.6 4.17l9 4.42-2.37 1L23.9 9l-1.7-3.8z"/><path fill="#d3d7cf" stroke="#000" d="M33.52 4.25l1.62 3.15-1.8 1.1-4.33-2.2z"/><path fill="#d3d7cf" stroke="#000" d="M33.95 4.34l1.27 3.14s-2.46.77-1.95.85c.5.1 9.1 2.47 9.1 2.47l-.1 1.36 2.4.25.6-3.47z"/><path fill="#d3d7cf" stroke="#000" d="M19.66 12.16l2.98 1.6-5.2 2.48 5.1 11.47-2.1 2.82-4.26-1.96-2.3-6.8-.43-7.56z"/><path fill="#d3d7cf" stroke="#000" d="M22.8 13.7l6.13.75 3.9 2.8-.67 5.45-5.78 6.7-3.83-1.94-5.1-11.22z"/><path fill="#d3d7cf" stroke="#000" d="M19.92 12.16l2.63 1.7 6.2.76 3-5-7.5-.6z"/><path fill="#d3d7cf" stroke="#000" d="M31.3 9.7l2.3-1.45 8.85 2.55-.26 1.36-5.62 10.88-4.42-.85.6-4.94-3.75-2.8z"/><path fill="#d3d7cf" stroke="#000" d="M42.1 12.16l2.56.17-2.04 11.9-3.15 2.04-2.9-.17v-3.15z"/><path fill="#d3d7cf" stroke="#000" d="M32.42 22.2l4.16.92.1 3.15-2.14 4.33-8.67 9.35-5.44-9.18 2.2-3.06 4.1 1.88z"/><path fill="#d3d7cf" stroke="#000" d="M27.65 38.25l-1.2 7.3 7.5-7.3.93-7.82z"/><path fill="#d3d7cf" stroke="#000" d="M36.67 26.1l2.8.08-1.1 7.9-4.6 4.34.94-8z"/><path fill="#d3d7cf" stroke="#000" d="M39.3 26.27l3.15-1.8-1.1 7.07-2.98 2.04z"/><path fill="#eeeeec" fill-opacity=".447" d="M4.07 9.33l22.88 10.03-1.02 26.1-19.4-13.1z"/><path fill="#eeeeec" fill-opacity=".697" d="M3.7 9.08l19.82-8 21 8.17-17.86 10.03z" color="#000" overflow="visible" enable-background="accumulate"/></g></svg>