<svg xmlns="http://www.w3.org/2000/svg" width="48" height="48" xmlns:xlink="http://www.w3.org/1999/xlink"><defs><linearGradient id="a"><stop offset="0" stop-color="#2e3436"/><stop offset="1" stop-color="#2e3436" stop-opacity="0"/></linearGradient><radialGradient id="b" cx="23.857" cy="39.25" r="22.214" xlink:href="#a" fx="23.857" fy="39.25" gradientTransform="matrix(1 0 0 .404 0 23.411)" gradientUnits="userSpaceOnUse"/></defs><g><path fill="url(#b)" d="M46.07 39.25a22.2 8.96 0 1 1-44.43 0 22.2 8.96 0 1 1 44.43 0z" transform="matrix(1 0 0 1.554 0 -26.7)" color="#000" overflow="visible" enable-background="accumulate"/><path fill="#d3d7cf" stroke="#2e3436" d="M23.4.37L3.6 8.94l2.65 23.44 19.28 13.75 15.7-14.77 4.1-22.6z"/><path fill="#fff" d="M4.07 9.2L23.43 1 44.7 9.2 24.58 20.94z"/><path fill="#dfdfda" d="M4.2 9.3l20.37 11.63.86 24.7-18.86-13.7z"/><path fill="none" stroke="#000" d="M12.35 10.8c.5.08 5.1 2.38 5.1 2.38l-4.25 1.1.6 7.82-4.17-2.97.68-6.8z"/><path fill="none" stroke="#000" d="M14.82 4.17L16.6 5.7l5.53-.5 1.95 4.07-3.9 2.63-2.9 1.1-4.76-2.12-2.9-4.6z"/><path fill="none" stroke="#000" d="M14.48 3.83l2.12 2.12 5.6-.85L25.1 4l1.7-2.38-3.4-1.2z"/><path fill="none" stroke="#000" d="M24.68 4.34l3.74 1.95 5.27-1.96-6.98-2.72z"/><path fill="none" stroke="#000" d="M24.6 4.17l9 4.42-2.37 1L23.9 9l-1.7-3.8z"/><path fill="none" stroke="#000" d="M33.52 4.25l1.62 3.15-1.8 1.1-4.33-2.2z"/><path fill="none" stroke="#000" d="M33.95 4.34l1.27 3.14s-2.46.77-1.95.85c.5.1 9.1 2.47 9.1 2.47l-.1 1.36 2.4.25.6-3.47z"/><path fill="none" stroke="#000" d="M19.66 12.16l2.98 1.6-5.2 2.48 5.1 11.47-2.1 2.82-4.26-1.96-2.3-6.8-.43-7.56z"/><path fill="none" stroke="#000" d="M22.8 13.7l6.13.75 3.9 2.8-.67 5.45-5.78 6.7-3.83-1.94-5.1-11.22z"/><path fill="none" stroke="#000" d="M19.92 12.16l2.63 1.7 6.2.76 3-5-7.5-.6z"/><path fill="none" stroke="#000" d="M31.3 9.7l2.3-1.45 8.85 2.55-.26 1.36-5.62 10.88-4.42-.85.6-4.94-3.75-2.8z"/><path fill="#ef2929" stroke="#eeeeec" stroke-width=".50065" d="M21.2 7.54a2.82 2.82 0 1 1-5.63 0 2.82 2.82 0 1 1 5.64 0z" color="#000" overflow="visible" enable-background="accumulate"/><path fill="#ef2929" stroke="#eeeeec" stroke-width=".50065" d="M28.14 12.96a2.82 2.82 0 1 1-5.64 0 2.82 2.82 0 1 1 5.64 0z" color="#000" overflow="visible" enable-background="accumulate"/><path fill="#ef2929" stroke="#eeeeec" stroke-width=".50065" d="M36.8 8.82a2.82 2.82 0 1 1-5.66 0 2.82 2.82 0 1 1 5.65 0z" color="#000" overflow="visible" enable-background="accumulate"/><path fill="#ef2929" stroke="#eeeeec" stroke-width=".50065" d="M28.7 5.96a2.82 2.82 0 1 1-5.63 0 2.82 2.82 0 1 1 5.64 0z" color="#000" overflow="visible" enable-background="accumulate"/><path fill="none" stroke="#000" d="M9.57 19.3L6.3 24.06"/><path fill="none" stroke="#000" d="M16.07 28.64c0 .5.5 4.3.5 4.3L13.7 35.5"/><path fill="none" stroke="#000" d="M16.57 32.8L20 36.3"/><path fill="none" stroke="#000" d="M26.57 29.43l-.78 5.5"/><path fill="none" stroke="#000" d="M32.3 22.3l2.77 5.84"/><path fill="none" stroke="#000" d="M33.86 25.64L30.2 31"/><path fill="none" stroke="#000" d="M38.8 18.93l2.34 2.78"/></g></svg>