<svg xmlns="http://www.w3.org/2000/svg" width="48" height="48" xmlns:xlink="http://www.w3.org/1999/xlink"><defs><linearGradient id="d"><stop offset="0" stop-color="#fff"/><stop offset="1" stop-color="#fff" stop-opacity="0"/></linearGradient><linearGradient id="c"><stop offset="0"/><stop offset=".358" stop-opacity="0"/><stop offset=".66" stop-opacity="0"/><stop offset="1"/></linearGradient><linearGradient id="a"><stop offset="0" stop-color="#1a65d1"/><stop offset=".25" stop-color="#74aaf7"/><stop offset=".75" stop-color="#74aaf7"/><stop offset="1" stop-color="#1a65d1"/></linearGradient><radialGradient id="b" cx="309.748" cy="439.215" r="24.293" gradientUnits="userSpaceOnUse" fy="439.215" fx="309.748" gradientTransform="matrix(1.041 0 0 1.041 -251.997 -439.278)"><stop offset="0" stop-color="#fff"/><stop offset="1" stop-color="#6fb7ff"/></radialGradient><linearGradient id="f" x1="8.781" x2="10.81" y1="29.236" y2="43.273" xlink:href="#a" gradientUnits="userSpaceOnUse" gradientTransform="matrix(.866 0 0 .865 5.617 -10.96)"/><radialGradient id="g" cx="25.567" cy="40.914" r="20.063" xlink:href="#b" fx="25.567" fy="40.914" gradientTransform="matrix(1.077 -.204 .151 .797 -6.091 -3.006)" gradientUnits="userSpaceOnUse"/><linearGradient id="e" x1="2.5" x2="5.429" y1="25.679" y2="42.929" xlink:href="#c" gradientUnits="userSpaceOnUse"/><linearGradient x1="31.214" x2="23.929" y1="37.643" y2="27.571" xlink:href="#d" gradientUnits="userSpaceOnUse" gradientTransform="translate(-.929 -.429)"/><linearGradient x1="31.214" x2="23.929" y1="37.643" y2="27.571" xlink:href="#d" gradientUnits="userSpaceOnUse" gradientTransform="translate(9.929 -3.321)"/><linearGradient x1="31.214" x2="23.929" y1="37.643" y2="27.571" xlink:href="#d" gradientUnits="userSpaceOnUse" gradientTransform="matrix(.998 .066 -.066 .998 5.718 -5.108)"/><linearGradient x1="31" x2="27.357" y1="32.571" y2="24.714" xlink:href="#d" gradientUnits="userSpaceOnUse" gradientTransform="translate(-.929 -.429)"/><linearGradient x1="31" x2="27.357" y1="32.571" y2="24.714" xlink:href="#d" gradientUnits="userSpaceOnUse" gradientTransform="matrix(.993 -.115 .115 .993 .931 5.152)"/></defs><g fill-rule="evenodd"><path fill="url(#e)" d="M.43 26.36l27.5 12.5L47.5 34l-35.43-9.8L.43 26.37z"/><path fill="#6fb7ff" stroke="#173662" stroke-width=".75" d="M11.48 24.5L.36 26.1c1.82 1.7 4.57 1.67 6.46 1.1l1.78-1.3 2.88-1.4z"/><path fill="url(#f)" stroke="#173662" stroke-width=".75" d="M17.84 25.58l-11.1 1.65c3.44-1.87 4.05-15.27 7.5-14.07l18.6-1.1-15 13.52z"/><path fill="url(#g)" stroke="#173662" stroke-width=".75" d="M33.15 12.04l-19 1.2c5.95 1.46.98 20.14 13.9 25.56l19.15-4.68c-12.3-2.93-8.07-21.26-14.05-22.08z"/></g></svg>