<svg xmlns="http://www.w3.org/2000/svg" width="48" height="48" xmlns:xlink="http://www.w3.org/1999/xlink"><defs><linearGradient id="a" x1="8.125" x2="34.746" y1="261.617" y2="261.617" gradientUnits="userSpaceOnUse"><stop offset="0" stop-color="#fff"/><stop offset=".668" stop-color="#3778B3"/></linearGradient><linearGradient id="b" x1="-3.258" x2="37.617" y1="281.366" y2="254.616" gradientUnits="userSpaceOnUse"><stop offset="0" stop-color="#fff"/><stop offset=".668" stop-color="#709EC3"/><stop offset="1" stop-color="#3778B3"/></linearGradient><linearGradient id="c" x1="12.767" x2="24.253" y1="253.455" y2="267.811" gradientUnits="userSpaceOnUse"><stop offset="0" stop-color="#fff"/><stop offset=".668" stop-color="#3778B3"/><stop offset="1" stop-color="#224987"/></linearGradient><linearGradient id="j" x1="-2.912" x2="40.82" y1="283.679" y2="256.899" gradientUnits="userSpaceOnUse"><stop offset="0" stop-color="#fff"/><stop offset="1" stop-color="#8D96A0"/></linearGradient><linearGradient id="d" x1="11.491" x2="19.633" y1="263.798" y2="268.817" gradientUnits="userSpaceOnUse"><stop offset="0" stop-color="#fff"/><stop offset=".624" stop-color="#8D96A0"/></linearGradient><linearGradient id="e" x1="-1.978" x2="38.897" y1="283.322" y2="256.572" gradientUnits="userSpaceOnUse"><stop offset="0" stop-color="#fff"/><stop offset=".668" stop-color="#709EC3"/><stop offset="1" stop-color="#3065A0"/></linearGradient><radialGradient id="f" cx="12.204" cy="272.438" r="9.709" fx="12.204" fy="272.438" gradientUnits="userSpaceOnUse"><stop offset="0" stop-color="#224987"/><stop offset=".573" stop-color="#3065A0"/><stop offset="1" stop-color="#709EC3"/></radialGradient><linearGradient id="m" x1="8.125" x2="34.746" y1="261.617" y2="261.617" xlink:href="#a" gradientUnits="userSpaceOnUse" gradientTransform="matrix(1.176 0 0 1.176 -3.686 -289.867)"/><linearGradient id="l" x1="-3.258" x2="37.617" y1="281.366" y2="254.616" xlink:href="#b" gradientUnits="userSpaceOnUse" gradientTransform="matrix(1.176 0 0 1.176 -3.686 -289.867)"/><linearGradient id="k" x1="12.767" x2="24.253" y1="253.455" y2="267.811" xlink:href="#c" gradientUnits="userSpaceOnUse" gradientTransform="matrix(1.176 0 0 1.176 -3.686 -289.867)"/><linearGradient id="i" x1="11.491" x2="19.633" y1="263.798" y2="268.817" xlink:href="#d" gradientUnits="userSpaceOnUse" gradientTransform="matrix(1.176 0 0 1.176 -3.686 -289.867)"/><linearGradient id="h" x1="-1.978" x2="38.897" y1="283.322" y2="256.572" xlink:href="#e" gradientUnits="userSpaceOnUse" gradientTransform="matrix(1.176 0 0 1.176 -3.686 -289.867)"/><radialGradient id="g" cx="12.204" cy="272.438" r="9.709" xlink:href="#f" gradientUnits="userSpaceOnUse" fx="12.204" fy="272.438" gradientTransform="matrix(1.176 0 0 1.176 -3.686 -289.867)"/></defs><g><path fill="none" stroke="#17314c" stroke-width="2" d="M2.04 29C.88 30.28.42 32.14.77 34.1c.67 3.8 4.16 7.15 7.78 7.48 1.77.16 3.34-.4 4.43-1.6 1.15-1.25 1.62-3.1 1.27-5.1-.68-3.78-4.17-7.13-7.78-7.46-1.77-.15-3.34.4-4.43 1.6z"/><path fill="url(#g)" d="M13.44 35.04c.6 3.45-1.55 6-4.82 5.72-3.27-.3-6.43-3.34-7.04-6.8-.6-3.45 1.54-6 4.82-5.7 3.27.28 6.42 3.32 7.04 6.78z" enable-background="new"/><path fill="url(#h)" d="M2.34 29.3c-1.07 1.16-1.5 2.9-1.16 4.74.64 3.62 3.96 6.82 7.4 7.13 1.64.15 3.1-.37 4.1-1.45 1.06-1.17 1.5-2.9 1.16-4.75-.64-3.63-3.97-6.82-7.4-7.13-1.65-.15-3.1.36-4.1 1.45zm6.32 11.05c-3.1-.28-6.1-3.17-6.67-6.45-.3-1.62.04-3.06.95-4.05.82-.9 2.03-1.32 3.4-1.2 3.1.28 6.1 3.18 6.68 6.46.3 1.63-.05 3.07-.96 4.06-.82.9-2.03 1.3-3.4 1.2z"/><path fill="url(#i)" stroke="#212326" stroke-width=".6" d="M45.48 10.3C26.76 9.1 10.53 21.77.53 45.44c-.22.52-.44 1.76.73 2.13 1.13.37 1.74-.52 1.96-1.04 9.52-22.5 24.78-34.5 42.26-33.3.63.05 2.08-.07 2.08-1.3 0-1.24-1.33-1.56-2.08-1.6z"/><g transform="matrix(1.176 0 0 1.176 -3.686 -289.867)"><linearGradient x1="-2.912" x2="40.82" y1="283.679" y2="256.899" gradientUnits="userSpaceOnUse"><stop offset="0" stop-color="#fff"/><stop offset="1" stop-color="#8D96A0"/></linearGradient><path fill="url(#j)" d="M41.78 255.53c-15.7-1-29.52 9.8-37.92 29.67l-.13.62.08.4s.5.4.5.4l.06-.65s-.03-.15-.03-.15l.08-.38c8.3-19.63 21.9-30.3 37.34-29.3l.04-.6zm-37.93 29.7v-.03.03z"/></g><path fill="none" stroke="#17314c" stroke-width="2" d="M13.8 38.78c.8-1.73 8.3-16.96 23.14-20.18 2.35-.48 3.95-2.64 3.95-5.36 0-3.4-2.55-6.63-5.67-7.2-.63-.1-1.24-.1-1.83 0h-.04C14.76 10.32 4.9 23.98 1.54 29.66"/><path fill="url(#k)" d="M2.25 30.08c.84-1.27 2.32-2 4.15-1.84 3.27.3 6.42 3.34 7.03 6.8.23 1.3.08 2.46-.4 3.4l-.03.1c1.4-3.08 9.03-17.55 23.77-20.74h-.03c1.94-.4 3.32-2.18 3.32-4.56 0-3.03-2.23-5.88-4.98-6.4-.54-.08-1.06-.1-1.54 0C18.5 10.3 7.94 20.48 2.24 30.08z" enable-background="new"/><path fill="url(#l)" d="M33.47 6.44C15.02 10.68 5.27 24.2 1.9 29.84c0 0 0 .03 0 .03l.7.44c.78-1.2 2.15-1.8 3.76-1.64 3.1.27 6.1 3.17 6.67 6.45.07.38.1.74.1 1.1 0 .74-.16 1.44-.45 2.05-.02.03-.04.08-.06.1 0 0 .22.08.44.16.15.1.3.2.3.2.02-.02.04-.05.05-.07.02 0 .02-.03.02-.03 1-2.1 8.5-17.17 23.43-20.4 2.16-.44 3.63-2.44 3.63-4.96 0-3.2-2.4-6.25-5.33-6.8-.57-.1-1.14-.1-1.68 0zm.16.8c.43-.07.9-.07 1.37.02 2.57.47 4.65 3.15 4.65 5.98 0 2.12-1.2 3.8-3 4.16C24.2 20.1 16.8 30.83 13.93 35.87c0-.3-.03-.6-.08-.9-.64-3.63-3.97-6.82-7.4-7.13-.93-.1-1.77.07-2.52.38 4.17-6.27 13.53-17.26 29.7-20.98z"/><path fill="url(#m)" d="M5.87 27.8C11.34 19.38 22.75 9.84 35.8 7.5c.37.12.85.4 1.38.8-5.7.97-19.62 5.55-29.2 19.9-.93-.4-2.1-.37-2.1-.37z"/><path fill="none" stroke="#224987" d="M11.66 38.96c.83-.92 1.14-2.26.87-3.77-.55-3.15-3.36-5.92-6.27-6.2-1.26-.1-2.37.28-3.1 1.1-.3.32-.52.7-.68 1.1" stroke-linecap="round"/></g></svg>