<svg xmlns="http://www.w3.org/2000/svg" width="48" height="48" xmlns:xlink="http://www.w3.org/1999/xlink"><defs><linearGradient id="a"><stop offset="0" stop-color="#868b91"/><stop offset="1" stop-color="#45484c"/></linearGradient><linearGradient id="b" x1="15.423" x2="32.122" y1="231.351" y2="213.48" gradientUnits="userSpaceOnUse" gradientTransform="matrix(1.045 0 0 1.045 -2.035 -203.421)"><stop offset=".157" stop-color="#B8C0CC"/><stop offset=".584" stop-color="#F2F4F7"/><stop offset=".904" stop-color="#A1A8B3"/><stop offset="1" stop-color="#B7C3CA"/></linearGradient><linearGradient id="c" x1="7.004" x2="42.71" y1="20.078" y2="30.792" xlink:href="#a" gradientUnits="userSpaceOnUse" gradientTransform="matrix(1.045 0 0 1.045 -1.069 -1.076)"/></defs><g><path fill="url(#b)" d="M35.26 29.28c5.43-1.57 7.46 3.17 12.27 1.9l-18.3-13.87c-1.5.37-6.58-2.62-10.8-1.48-5.65 1.52-11.18 7.3-17.97 8.4l16.06 18.23C28 38.2 29.82 30.85 35.26 29.28z"/><path fill="none" stroke="url(#c)" stroke-width="1.5" d="M.46 24.23c10.63-2.56 12.03-7.13 17.97-8.4 5.4-1.18 7.98 2.15 10.8 1.48 0 0 8.43 7.38 18.3 13.9-4.03 1.45-6.98-3.48-12.27-1.92-7.95 2.36-7.04 8.58-18.73 13.18L.46 24.23z"/><path fill="none" stroke="#f17912" stroke-width="1.5" d="M8.4 33.24c7.44-2.62 9.76-9.78 16.96-11.9 4.78-1.43 7.46 3.03 11.1 1.7"/><g fill="none" stroke="#f17912" stroke-width=".957" stroke-dasharray="0.95715413, 0.95715413"><path d="M8.4 17.85v15.4"/><path d="M12.58 15.63v15.4"/><path d="M16.76 11.9v15.4"/><path d="M20.94 8.17v15.4"/><path d="M25.12 6v15.4"/><path d="M29.3 5.97v15.4"/><path d="M32.95 7.45v14.78"/><path d="M36.46 7.66v15.4"/></g><path fill="none" stroke="#c00" stroke-width="2" d="M8.4 17.85c7.44-2.62 9.76-9.78 16.96-11.9 4.78-1.43 7.46 3.03 11.1 1.7" stroke-linecap="round"/></g></svg>