<svg xmlns="http://www.w3.org/2000/svg" width="48" height="48" xmlns:xlink="http://www.w3.org/1999/xlink"><defs><linearGradient id="a"><stop offset="0" stop-color="#ed2728" stop-opacity="0"/><stop offset="1" stop-color="#ff8521"/></linearGradient><linearGradient id="f" x1="56.299" x2="67.735" y1="20.357" y2="13.718" xlink:href="#a" gradientUnits="userSpaceOnUse" gradientTransform="matrix(1.002 0 0 1.002 -57.369 2.339)"/><linearGradient id="b"><stop offset="0" stop-color="#590b08"/><stop offset="1" stop-color="#590b08" stop-opacity="0"/></linearGradient><linearGradient id="e" x1="61.667" x2="55.724" y1="15.203" y2="20.093" xlink:href="#b" gradientUnits="userSpaceOnUse" gradientTransform="matrix(1.068 0 0 1.07 -61.976 1.495)"/><linearGradient id="c" x1="13.377" x2="18.656" y1="353.79" y2="353.79" gradientUnits="userSpaceOnUse" gradientTransform="translate(-1.282 -334.358)"><stop offset="0" stop-color="#fff" stop-opacity="0"/><stop offset=".472" stop-color="#E96712"/><stop offset=".814" stop-color="#D4290C"/><stop offset="1" stop-color="#CB1009"/></linearGradient><linearGradient id="d" x1="51.722" x2="59.572" y1="357.506" y2="350.531" xlink:href="#c" gradientUnits="userSpaceOnUse" gradientTransform="matrix(1.374 0 0 1.376 -72.538 -466.304)"/><linearGradient x1="14.829" x2="26.722" y1="633.574" y2="633.574" gradientUnits="userSpaceOnUse" gradientTransform="matrix(1.169 0 0 1.169 -4.287 -701.034)"><stop offset="0" stop-color="#fff"/><stop offset=".601" stop-color="#E96712"/><stop offset=".86" stop-color="#D4290C"/><stop offset="1" stop-color="#CB1009"/></linearGradient></defs><g><path fill="none" stroke="#2e3436" stroke-opacity=".314" stroke-width="2" d="M15.2 47.76C14.04 37.1 8.8 30.96 1.64 27.94"/><path fill="none" stroke="#2e3436" stroke-opacity=".471" stroke-width="2" d="M19.33 47.76c.14-9.66-2.13-20.45-6-27.2"/><path fill="none" stroke="#2e3436" stroke-opacity=".627" stroke-width="2" d="M24.34 47.76V17.58"/><path fill="none" stroke="#2e3436" stroke-width="2" d="M33.16 47.9c1.15-10.67 6.4-16.8 13.54-19.83"/><path fill="none" stroke="#2e3436" stroke-opacity=".8" stroke-width="2" d="M29.02 47.9c-.14-9.67 2.14-20.46 6-27.22"/><g stroke-width=".629" color="#000"><path fill="url(#d)" stroke="url(#e)" d="M-.8 27.43c7.92-8.5 12.8-9.62 18.16-10.7l.47 3.65c.02.14.14.24.28.22l4.7-6.4c.16-.22.12-.54-.1-.7 0 0-4.42-3.92-5.9-5.03-.05-.05-.1-.07-.18-.06-.14.03-.24.15-.22.3l.46 3.78c-6.16 1.17-13.1 3.26-20.74 12.08" overflow="visible" transform="matrix(1.417 .723 -.723 1.417 23.767 -23.563)"/><path fill="none" stroke="url(#f)" d="M-2.22 23.44c5.65-5.58 11.94-9.57 19.88-10.37 0 0-.3-2.56-.4-3.42l4.87 4.27s-3.16 4.27-3.8 5.2c-.12-.88-.36-3.18-.36-3.18-3.17.23-11.4 2.38-18.53 10.23" overflow="visible" transform="matrix(1.417 .723 -.723 1.417 23.767 -23.563)"/></g></g></svg>