<svg xmlns="http://www.w3.org/2000/svg" width="48" height="48" xmlns:xlink="http://www.w3.org/1999/xlink"><defs><radialGradient id="b" cx="39.827" cy="123.439" r="5.507" gradientUnits="userSpaceOnUse"><stop offset="0" stop-color="#fff"/><stop offset=".064" stop-color="#FDEED5"/><stop offset=".172" stop-color="#FBD395"/><stop offset=".262" stop-color="#F9BF66"/><stop offset=".331" stop-color="#F7B349"/><stop offset=".371" stop-color="#F7AF3E"/><stop offset=".691" stop-color="#EF7916"/><stop offset="1" stop-color="#A65416"/></radialGradient><linearGradient id="a" x1="37.807" x2="40.397" y1="128.381" y2="126.362" gradientUnits="userSpaceOnUse"><stop offset=".006" stop-color="#F7AF3E"/><stop offset="1" stop-color="#994410"/></linearGradient><radialGradient id="d" cx="3043.88" cy="7217.28" r="3.309" gradientTransform="matrix(-.989 .151 -.151 -.989 4115.845 6772.22)" gradientUnits="userSpaceOnUse"><stop offset="0" stop-color="#fff"/><stop offset=".064" stop-color="#FDEED5"/><stop offset=".172" stop-color="#FBD395"/><stop offset=".262" stop-color="#F9BF66"/><stop offset=".331" stop-color="#F7B349"/><stop offset=".371" stop-color="#F7AF3E"/><stop offset=".691" stop-color="#EF7916"/><stop offset="1" stop-color="#A65416"/></radialGradient><linearGradient id="c" x1="3042.666" x2="3044.223" y1="7220.249" y2="7219.036" gradientUnits="userSpaceOnUse" gradientTransform="matrix(-.989 .151 -.151 -.989 4115.845 6772.22)"><stop offset=".006" stop-color="#9a9a9a"/><stop offset="1" stop-color="#555"/></linearGradient><radialGradient id="f" cx="5361.921" cy="5016.79" r="3.308" gradientTransform="matrix(-.765 -.644 .644 -.765 906.786 7393.486)" gradientUnits="userSpaceOnUse"><stop offset="0" stop-color="#fff"/><stop offset=".064" stop-color="#FDEED5"/><stop offset=".172" stop-color="#FBD395"/><stop offset=".262" stop-color="#F9BF66"/><stop offset=".331" stop-color="#F7B349"/><stop offset=".371" stop-color="#F7AF3E"/><stop offset=".691" stop-color="#EF7916"/><stop offset="1" stop-color="#A65416"/></radialGradient><linearGradient id="e" x1="5360.706" x2="5362.262" y1="5019.758" y2="5018.545" gradientUnits="userSpaceOnUse" gradientTransform="matrix(-.765 -.644 .644 -.765 906.786 7393.486)"><stop offset=".006" stop-color="#F7AF3E"/><stop offset="1" stop-color="#994410"/></linearGradient><radialGradient id="g" cx="4238.554" cy="496.331" r="5.507" gradientTransform="matrix(.409 -.912 .912 .409 -2150.214 3757.324)" gradientUnits="userSpaceOnUse"><stop offset="0" stop-color="#fff"/><stop offset=".064" stop-color="#FDEED5"/><stop offset=".172" stop-color="#FBD395"/><stop offset=".262" stop-color="#F9BF66"/><stop offset=".331" stop-color="#F7B349"/><stop offset=".371" stop-color="#F7AF3E"/><stop offset=".691" stop-color="#EF7916"/><stop offset="1" stop-color="#A65416"/></radialGradient><radialGradient id="h" cx="-2083.664" cy="3695.694" r="5.507" gradientTransform="matrix(.424 .906 -.906 .424 4260.018 439.238)" gradientUnits="userSpaceOnUse"><stop offset="0" stop-color="#fff"/><stop offset="1" stop-color="#5e5e5e"/></radialGradient><radialGradient id="i" cx="4074.888" cy="6708.084" r="4.284" gradientTransform="matrix(-.988 -.156 .156 -.988 3003.856 7356.637)" gradientUnits="userSpaceOnUse"><stop offset="0" stop-color="#fff"/><stop offset=".064" stop-color="#FDEED5"/><stop offset=".172" stop-color="#FBD395"/><stop offset=".262" stop-color="#F9BF66"/><stop offset=".331" stop-color="#F7B349"/><stop offset=".371" stop-color="#F7AF3E"/><stop offset=".691" stop-color="#EF7916"/><stop offset="1" stop-color="#A65416"/></radialGradient><linearGradient x1="37.807" x2="40.397" y1="128.381" y2="126.362" xlink:href="#a" gradientUnits="userSpaceOnUse"/><radialGradient cx="39.827" cy="123.439" r="5.507" xlink:href="#b" gradientUnits="userSpaceOnUse"/><linearGradient x1="3042.666" x2="3044.223" y1="7220.249" y2="7219.036" xlink:href="#c" gradientUnits="userSpaceOnUse" gradientTransform="matrix(-.989 .151 -.151 -.989 4115.845 6772.22)"/><radialGradient cx="3043.88" cy="7217.28" r="3.309" xlink:href="#d" gradientUnits="userSpaceOnUse" gradientTransform="matrix(-.989 .151 -.151 -.989 4115.845 6772.22)"/><linearGradient x1="5360.706" x2="5362.262" y1="5019.758" y2="5018.545" xlink:href="#e" gradientUnits="userSpaceOnUse" gradientTransform="matrix(-.765 -.644 .644 -.765 906.786 7393.486)"/><radialGradient cx="5361.921" cy="5016.79" r="3.308" xlink:href="#f" gradientUnits="userSpaceOnUse" gradientTransform="matrix(-.765 -.644 .644 -.765 906.786 7393.486)"/><radialGradient cx="4238.554" cy="496.331" r="5.507" xlink:href="#g" gradientUnits="userSpaceOnUse" gradientTransform="matrix(.409 -.912 .912 .409 -2150.214 3757.324)"/><radialGradient cx="-2083.664" cy="3695.694" r="5.507" xlink:href="#h" gradientUnits="userSpaceOnUse" gradientTransform="matrix(.424 .906 -.906 .424 4260.018 439.238)"/><radialGradient cx="4074.888" cy="6708.084" r="4.284" xlink:href="#i" gradientUnits="userSpaceOnUse" gradientTransform="matrix(-.988 -.156 .156 -.988 3003.856 7356.637)"/><radialGradient cx="4238.554" cy="496.331" r="5.507" xlink:href="#g" gradientUnits="userSpaceOnUse" gradientTransform="matrix(.409 -.912 .912 .409 -2150.214 3757.324)"/><radialGradient cx="4074.888" cy="6708.084" r="4.284" xlink:href="#i" gradientUnits="userSpaceOnUse" gradientTransform="matrix(-.988 -.156 .156 -.988 3003.856 7356.637)"/><linearGradient x1="37.807" x2="40.397" y1="128.381" y2="126.362" xlink:href="#a" gradientUnits="userSpaceOnUse"/><radialGradient cx="39.827" cy="123.439" r="5.507" xlink:href="#b" gradientUnits="userSpaceOnUse"/><radialGradient cx="-2083.664" cy="3695.694" r="5.507" xlink:href="#h" gradientUnits="userSpaceOnUse" gradientTransform="matrix(.424 .906 -.906 .424 4260.018 439.238)"/><linearGradient x1="3042.666" x2="3044.223" y1="7220.249" y2="7219.036" xlink:href="#c" gradientUnits="userSpaceOnUse" gradientTransform="matrix(-.989 .151 -.151 -.989 4115.845 6772.22)"/><radialGradient cx="3043.88" cy="7217.28" r="3.309" xlink:href="#d" gradientUnits="userSpaceOnUse" gradientTransform="matrix(-.989 .151 -.151 -.989 4115.845 6772.22)"/><linearGradient x1="3042.666" x2="3044.223" y1="7220.249" y2="7219.036" xlink:href="#c" gradientUnits="userSpaceOnUse" gradientTransform="matrix(-.989 .151 -.151 -.989 4115.845 6772.22)"/><radialGradient cx="3043.88" cy="7217.28" r="3.309" xlink:href="#d" gradientUnits="userSpaceOnUse" gradientTransform="matrix(-.989 .151 -.151 -.989 4115.845 6772.22)"/><radialGradient cx="4074.888" cy="6708.084" r="4.284" xlink:href="#i" gradientUnits="userSpaceOnUse" gradientTransform="matrix(-.988 -.156 .156 -.988 3003.856 7356.637)"/><linearGradient x1="5360.706" x2="5362.262" y1="5019.758" y2="5018.545" xlink:href="#e" gradientUnits="userSpaceOnUse" gradientTransform="matrix(-.765 -.644 .644 -.765 906.786 7393.486)"/><radialGradient cx="5361.921" cy="5016.79" r="3.308" xlink:href="#f" gradientUnits="userSpaceOnUse" gradientTransform="matrix(-.765 -.644 .644 -.765 906.786 7393.486)"/><radialGradient cx="4074.888" cy="6708.084" r="4.284" xlink:href="#i" gradientUnits="userSpaceOnUse" gradientTransform="matrix(-.988 -.156 .156 -.988 3003.856 7356.637)"/><linearGradient x1="37.807" x2="40.397" y1="128.381" y2="126.362" xlink:href="#a" gradientUnits="userSpaceOnUse"/><radialGradient cx="39.827" cy="123.439" r="5.507" xlink:href="#b" gradientUnits="userSpaceOnUse"/><linearGradient x1="5360.706" x2="5362.262" y1="5019.758" y2="5018.545" xlink:href="#e" gradientUnits="userSpaceOnUse" gradientTransform="matrix(-.765 -.644 .644 -.765 906.786 7393.486)"/><radialGradient cx="5361.921" cy="5016.79" r="3.308" xlink:href="#f" gradientUnits="userSpaceOnUse" gradientTransform="matrix(-.765 -.644 .644 -.765 906.786 7393.486)"/><radialGradient cx="4238.554" cy="496.331" r="5.507" xlink:href="#g" gradientUnits="userSpaceOnUse" gradientTransform="matrix(.409 -.912 .912 .409 -2150.214 3757.324)"/><radialGradient cx="-2083.664" cy="3695.694" r="5.507" xlink:href="#h" gradientUnits="userSpaceOnUse" gradientTransform="matrix(.424 .906 -.906 .424 4260.018 439.238)"/><linearGradient x1="37.807" x2="40.397" y1="128.381" y2="126.362" xlink:href="#a" gradientUnits="userSpaceOnUse"/><radialGradient cx="39.827" cy="123.439" r="5.507" xlink:href="#b" gradientUnits="userSpaceOnUse"/><linearGradient x1="3042.666" x2="3044.223" y1="7220.249" y2="7219.036" xlink:href="#c" gradientUnits="userSpaceOnUse" gradientTransform="matrix(-.989 .151 -.151 -.989 4115.845 6772.22)"/><radialGradient cx="3043.88" cy="7217.28" r="3.309" xlink:href="#d" gradientUnits="userSpaceOnUse" gradientTransform="matrix(-.989 .151 -.151 -.989 4115.845 6772.22)"/><linearGradient x1="5360.706" x2="5362.262" y1="5019.758" y2="5018.545" xlink:href="#e" gradientUnits="userSpaceOnUse" gradientTransform="matrix(-.765 -.644 .644 -.765 906.786 7393.486)"/><radialGradient cx="5361.921" cy="5016.79" r="3.308" xlink:href="#f" gradientUnits="userSpaceOnUse" gradientTransform="matrix(-.765 -.644 .644 -.765 906.786 7393.486)"/><radialGradient cx="4238.554" cy="496.331" r="5.507" xlink:href="#g" gradientUnits="userSpaceOnUse" gradientTransform="matrix(.409 -.912 .912 .409 -2150.214 3757.324)"/><radialGradient cx="-2083.664" cy="3695.694" r="5.507" xlink:href="#h" gradientUnits="userSpaceOnUse" gradientTransform="matrix(.424 .906 -.906 .424 4260.018 439.238)"/><radialGradient cx="4074.888" cy="6708.084" r="4.284" xlink:href="#i" gradientUnits="userSpaceOnUse" gradientTransform="matrix(-.988 -.156 .156 -.988 3003.856 7356.637)"/><linearGradient x1="3042.666" x2="3044.223" y1="7220.249" y2="7219.036" xlink:href="#c" gradientUnits="userSpaceOnUse" gradientTransform="matrix(-.989 .151 -.151 -.989 4115.845 6772.22)"/><radialGradient cx="3043.88" cy="7217.28" r="3.309" xlink:href="#d" gradientUnits="userSpaceOnUse" gradientTransform="matrix(-.989 .151 -.151 -.989 4115.845 6772.22)"/><radialGradient cx="4074.888" cy="6708.084" r="4.284" xlink:href="#i" gradientUnits="userSpaceOnUse" gradientTransform="matrix(-.988 -.156 .156 -.988 3003.856 7356.637)"/><linearGradient x1="3042.666" x2="3044.223" y1="7220.249" y2="7219.036" xlink:href="#c" gradientUnits="userSpaceOnUse" gradientTransform="matrix(-.989 .151 -.151 -.989 4115.845 6772.22)"/><radialGradient cx="3043.88" cy="7217.28" r="3.309" xlink:href="#d" gradientUnits="userSpaceOnUse" gradientTransform="matrix(-.989 .151 -.151 -.989 4115.845 6772.22)"/><radialGradient cx="4074.888" cy="6708.084" r="4.284" xlink:href="#i" gradientUnits="userSpaceOnUse" gradientTransform="matrix(-.988 -.156 .156 -.988 3003.856 7356.637)"/><radialGradient cx="4074.888" cy="6708.084" r="4.284" xlink:href="#i" gradientUnits="userSpaceOnUse" gradientTransform="matrix(-.988 -.156 .156 -.988 3003.856 7356.637)"/><radialGradient cx="4074.888" cy="6708.084" r="4.284" xlink:href="#i" gradientUnits="userSpaceOnUse" gradientTransform="matrix(-.988 -.156 .156 -.988 3003.856 7356.637)"/><radialGradient cx="4074.888" cy="6708.084" r="4.284" xlink:href="#h" gradientUnits="userSpaceOnUse" gradientTransform="matrix(.435 -1.872 1.872 .435 -14320.323 4719.292)"/><radialGradient cx="4074.888" cy="6708.084" r="4.284" xlink:href="#i" gradientUnits="userSpaceOnUse" gradientTransform="matrix(-.988 -.156 .156 -.988 3003.856 7356.637)"/><radialGradient cx="4074.888" cy="6708.084" r="4.284" xlink:href="#h" gradientUnits="userSpaceOnUse" gradientTransform="matrix(-.698 .487 -.487 -.698 6115.443 2712.008)"/><linearGradient x1="3042.666" x2="3044.223" y1="7220.249" y2="7219.036" xlink:href="#c" gradientUnits="userSpaceOnUse" gradientTransform="matrix(-.989 .151 -.151 -.989 4115.845 6772.22)"/><radialGradient cx="3043.88" cy="7217.28" r="3.309" xlink:href="#d" gradientUnits="userSpaceOnUse" gradientTransform="matrix(-.989 .151 -.151 -.989 4115.845 6772.22)"/><radialGradient cx="3043.88" cy="7217.28" r="3.309" xlink:href="#h" gradientUnits="userSpaceOnUse" gradientTransform="matrix(-.317 1.188 -1.188 -.317 9566.142 -1292.357)"/><linearGradient x1="3042.666" x2="3044.223" y1="7220.249" y2="7219.036" xlink:href="#c" gradientUnits="userSpaceOnUse" gradientTransform="matrix(-.317 1.188 -1.188 -.317 9566.142 -1292.357)"/><radialGradient cx="4074.888" cy="6708.084" r="4.284" xlink:href="#i" gradientUnits="userSpaceOnUse" gradientTransform="matrix(-.988 -.156 .156 -.988 3003.856 7356.637)"/><linearGradient x1="3042.666" x2="3044.223" y1="7220.249" y2="7219.036" xlink:href="#c" gradientUnits="userSpaceOnUse" gradientTransform="matrix(-.989 .151 -.151 -.989 4115.845 6772.22)"/><radialGradient cx="3043.88" cy="7217.28" r="3.309" xlink:href="#d" gradientUnits="userSpaceOnUse" gradientTransform="matrix(-.989 .151 -.151 -.989 4115.845 6772.22)"/><radialGradient cx="3043.88" cy="7217.28" r="3.309" xlink:href="#h" gradientUnits="userSpaceOnUse" gradientTransform="matrix(-1.216 .186 -.186 -1.216 5052.637 8216.633)"/><linearGradient x1="3042.666" x2="3044.223" y1="7220.249" y2="7219.036" xlink:href="#c" gradientUnits="userSpaceOnUse" gradientTransform="matrix(-1.216 .186 -.186 -1.216 5052.637 8216.633)"/><radialGradient cx="4074.888" cy="6708.084" r="4.284" xlink:href="#i" gradientUnits="userSpaceOnUse" gradientTransform="matrix(-.988 -.156 .156 -.988 3003.856 7356.637)"/><radialGradient cx="4074.888" cy="6708.084" r="4.284" xlink:href="#h" gradientUnits="userSpaceOnUse" gradientTransform="matrix(-1.215 -.192 .192 -1.215 3675.639 8948.855)"/><radialGradient cx="-2083.664" cy="3695.694" r="5.507" xlink:href="#h" gradientUnits="userSpaceOnUse" gradientTransform="matrix(.424 .906 -.906 .424 4260.018 439.238)"/><radialGradient cx="-2083.664" cy="3695.694" r="5.507" xlink:href="#h" gradientUnits="userSpaceOnUse" gradientTransform="matrix(.522 1.114 -1.114 .522 5222.845 418.423)"/><radialGradient cx="4238.554" cy="496.331" r="5.507" xlink:href="#g" gradientUnits="userSpaceOnUse" gradientTransform="matrix(.409 -.912 .912 .409 -2150.214 3757.324)"/><radialGradient cx="4238.554" cy="496.331" r="5.507" xlink:href="#h" gradientUnits="userSpaceOnUse" gradientTransform="matrix(.503 -1.122 1.122 .503 -2661.573 4543.759)"/><linearGradient x1="5360.706" x2="5362.262" y1="5019.758" y2="5018.545" xlink:href="#e" gradientUnits="userSpaceOnUse" gradientTransform="matrix(-.765 -.644 .644 -.765 906.786 7393.486)"/><radialGradient cx="5361.921" cy="5016.79" r="3.308" xlink:href="#f" gradientUnits="userSpaceOnUse" gradientTransform="matrix(-.765 -.644 .644 -.765 906.786 7393.486)"/><radialGradient cx="5361.921" cy="5016.79" r="3.308" xlink:href="#h" gradientUnits="userSpaceOnUse" gradientTransform="matrix(-.94 -.792 .792 -.94 1092.609 8977.305)"/><linearGradient x1="5360.706" x2="5362.262" y1="5019.758" y2="5018.545" xlink:href="#c" gradientUnits="userSpaceOnUse" gradientTransform="matrix(-.94 -.792 .792 -.94 1092.609 8977.305)"/><linearGradient x1="3042.666" x2="3044.223" y1="7220.249" y2="7219.036" xlink:href="#c" gradientUnits="userSpaceOnUse" gradientTransform="matrix(-.989 .151 -.151 -.989 4115.845 6772.22)"/><radialGradient cx="3043.88" cy="7217.28" r="3.309" xlink:href="#d" gradientUnits="userSpaceOnUse" gradientTransform="matrix(-.989 .151 -.151 -.989 4115.845 6772.22)"/><radialGradient cx="3043.88" cy="7217.28" r="3.309" xlink:href="#h" gradientUnits="userSpaceOnUse" gradientTransform="matrix(-1.216 .186 -.186 -1.216 5046.607 8235.254)"/><linearGradient x1="3042.666" x2="3044.223" y1="7220.249" y2="7219.036" xlink:href="#c" gradientUnits="userSpaceOnUse" gradientTransform="matrix(-1.216 .186 -.186 -1.216 5046.607 8235.254)"/><linearGradient x1="37.807" x2="40.397" y1="128.381" y2="126.362" xlink:href="#a" gradientUnits="userSpaceOnUse"/><radialGradient cx="39.827" cy="123.439" r="5.507" xlink:href="#b" gradientUnits="userSpaceOnUse"/><radialGradient cx="39.827" cy="123.439" r="5.507" xlink:href="#h" gradientUnits="userSpaceOnUse" gradientTransform="matrix(.881 0 0 .881 -23.498 -77.489)"/><linearGradient x1="37.807" x2="40.397" y1="128.381" y2="126.362" xlink:href="#c" gradientUnits="userSpaceOnUse" gradientTransform="matrix(.881 0 0 .881 -23.498 -77.489)"/><radialGradient cx="-2083.664" cy="3695.694" r="5.507" xlink:href="#h" gradientUnits="userSpaceOnUse" gradientTransform="matrix(.424 .906 -.906 .424 4260.018 439.238)"/><radialGradient cx="-2083.664" cy="3695.694" r="5.507" xlink:href="#h" gradientUnits="userSpaceOnUse" gradientTransform="matrix(1.019 2.175 -2.175 1.019 10198.966 770.431)"/><radialGradient cx="4238.554" cy="496.331" r="5.507" xlink:href="#g" gradientUnits="userSpaceOnUse" gradientTransform="matrix(.409 -.912 .912 .409 -2150.214 3757.324)"/><radialGradient cx="4238.554" cy="496.331" r="5.507" xlink:href="#h" gradientUnits="userSpaceOnUse" gradientTransform="matrix(.825 -1.839 1.839 .825 -4390.019 7406.024)"/><linearGradient x1="5360.706" x2="5362.262" y1="5019.758" y2="5018.545" xlink:href="#e" gradientUnits="userSpaceOnUse" gradientTransform="matrix(-.765 -.644 .644 -.765 906.786 7393.486)"/><radialGradient cx="5361.921" cy="5016.79" r="3.308" xlink:href="#f" gradientUnits="userSpaceOnUse" gradientTransform="matrix(-.765 -.644 .644 -.765 906.786 7393.486)"/><radialGradient cx="5361.921" cy="5016.79" r="3.308" xlink:href="#h" gradientUnits="userSpaceOnUse" gradientTransform="matrix(-.94 -.792 .792 -.94 1103.569 8985.036)"/><linearGradient x1="5360.706" x2="5362.262" y1="5019.758" y2="5018.545" xlink:href="#c" gradientUnits="userSpaceOnUse" gradientTransform="matrix(-.94 -.792 .792 -.94 1103.569 8985.036)"/><linearGradient x1="37.807" x2="40.397" y1="128.381" y2="126.362" xlink:href="#a" gradientUnits="userSpaceOnUse"/><radialGradient cx="39.827" cy="123.439" r="5.507" xlink:href="#b" gradientUnits="userSpaceOnUse"/><radialGradient cx="39.827" cy="123.439" r="5.507" xlink:href="#h" gradientUnits="userSpaceOnUse" gradientTransform="matrix(1.777 1.026 -1.026 1.777 96.953 -231.878)"/><linearGradient x1="37.807" x2="40.397" y1="128.381" y2="126.362" xlink:href="#c" gradientUnits="userSpaceOnUse" gradientTransform="matrix(1.777 1.026 -1.026 1.777 96.953 -231.878)"/><radialGradient cx="4074.888" cy="6708.084" r="4.284" xlink:href="#i" gradientUnits="userSpaceOnUse" gradientTransform="matrix(-.988 -.156 .156 -.988 3003.856 7356.637)"/><radialGradient cx="4074.888" cy="6708.084" r="4.284" xlink:href="#h" gradientUnits="userSpaceOnUse" gradientTransform="matrix(-.847 -.134 .134 -.847 2577.025 6271.342)"/><linearGradient id="r" x1="5360.706" x2="5362.262" y1="5019.758" y2="5018.545" xlink:href="#c" gradientUnits="userSpaceOnUse" gradientTransform="matrix(-.94 -.792 .792 -.94 1092.609 8977.305)"/><radialGradient id="s" cx="5361.921" cy="5016.79" r="3.308" xlink:href="#h" gradientUnits="userSpaceOnUse" gradientTransform="matrix(-.94 -.792 .792 -.94 1092.609 8977.305)"/><linearGradient id="n" x1="37.807" x2="40.397" y1="128.381" y2="126.362" xlink:href="#c" gradientUnits="userSpaceOnUse" gradientTransform="matrix(.881 0 0 .881 -23.498 -77.489)"/><radialGradient id="o" cx="39.827" cy="123.439" r="5.507" xlink:href="#h" gradientUnits="userSpaceOnUse" gradientTransform="matrix(.881 0 0 .881 -23.498 -77.489)"/><linearGradient id="v" x1="3042.666" x2="3044.223" y1="7220.249" y2="7219.036" xlink:href="#c" gradientUnits="userSpaceOnUse" gradientTransform="matrix(-.317 1.188 -1.188 -.317 9566.142 -1292.357)"/><radialGradient id="w" cx="3043.88" cy="7217.28" r="3.309" xlink:href="#h" gradientUnits="userSpaceOnUse" gradientTransform="matrix(-.317 1.188 -1.188 -.317 9566.142 -1292.357)"/><radialGradient id="t" cx="4238.554" cy="496.331" r="5.507" xlink:href="#h" gradientUnits="userSpaceOnUse" gradientTransform="matrix(.503 -1.122 1.122 .503 -2661.573 4543.759)"/><linearGradient id="j" x1="37.807" x2="40.397" y1="128.381" y2="126.362" xlink:href="#c" gradientUnits="userSpaceOnUse" gradientTransform="matrix(1.777 1.026 -1.026 1.777 96.953 -231.878)"/><radialGradient id="k" cx="39.827" cy="123.439" r="5.507" xlink:href="#h" gradientUnits="userSpaceOnUse" gradientTransform="matrix(1.777 1.026 -1.026 1.777 96.953 -231.878)"/><radialGradient id="l" cx="4238.554" cy="496.331" r="5.507" xlink:href="#h" gradientUnits="userSpaceOnUse" gradientTransform="matrix(.825 -1.839 1.839 .825 -4390.019 7406.024)"/><radialGradient id="m" cx="-2083.664" cy="3695.694" r="5.507" xlink:href="#h" gradientUnits="userSpaceOnUse" gradientTransform="matrix(1.019 2.175 -2.175 1.019 10198.966 770.431)"/><linearGradient id="p" x1="3042.666" x2="3044.223" y1="7220.249" y2="7219.036" xlink:href="#c" gradientUnits="userSpaceOnUse" gradientTransform="matrix(-1.216 .186 -.186 -1.216 5046.607 8235.254)"/><radialGradient id="q" cx="3043.88" cy="7217.28" r="3.309" xlink:href="#h" gradientUnits="userSpaceOnUse" gradientTransform="matrix(-1.216 .186 -.186 -1.216 5046.607 8235.254)"/><radialGradient id="u" cx="4074.888" cy="6708.084" r="4.284" xlink:href="#h" gradientUnits="userSpaceOnUse" gradientTransform="matrix(-.847 -.134 .134 -.847 2577.025 6271.342)"/><radialGradient id="x" cx="4074.888" cy="6708.084" r="4.284" xlink:href="#h" gradientUnits="userSpaceOnUse" gradientTransform="matrix(-.698 .487 -.487 -.698 6115.443 2712.008)"/><radialGradient id="y" cx="4074.888" cy="6708.084" r="4.284" xlink:href="#h" gradientUnits="userSpaceOnUse" gradientTransform="matrix(.435 -1.872 1.872 .435 -14320.323 4719.292)"/></defs><g><g><path fill="none" stroke="#555753" stroke-width=".95.582" d="M36.72 25.64c-.36.15-.98 1.28-1.16 1.33.3.65.16 2.14.18 2.6.02.44.08 2.5.08 2.5s2.35 1.42 2.55 1.62c.2.2 1.3 1.25 1.3 1.25s1-1.67 1.4-1.95c.4-.3 1.96-1.2 2.36-1.68.4-.5 1.36-1.5 1.47-1.56.1-.06.6-.34.6-.34l-1.35-4.35-2.1-.3-1.88.25-.2-.15-3.25.77z"/><path fill="#fff" d="M36.76 25.6l3.26-.77.2.15 1.85-.25 2.12.3 1.33 4.34-1.94.65z"/><path fill="url(#j)" d="M39.2 29.72s-1.24-.72-1.63-.56c-.38.16-1.03 1.35-1.23 1.4.32.7.18 2.26.2 2.74.02.48.08 2.64.08 2.64s2.47 1.5 2.7 1.7c.2.23 1.35 1.34 1.35 1.34s1.05-1.75 1.48-2.06c.43-.3 2.08-1.25 2.5-1.77.43-.5 1.43-1.6 1.55-1.64.1-.05.63-.35.63-.35l-1.3.2-6.33-3.63z" transform="matrix(.948 0 0 .948 1.107 -2.004)"/><path fill="url(#k)" d="M39.2 29.72s3.52-.17 4.98-.64c0 0 .65 2.02.8 2.12.16.1 1.2-.03 1.2-.03-.06.55-.5 1.9-.66 2.03-.15.12-.6.75-.8 1.1-.2.35-1.75 1.78-2.12 1.9-.37.14-1.77.6-1.88.78.02-.62.5-2.4.5-2.4l-.64-.73s-1.45-.8-1.4-1.18c.06-.4.3-1.56.28-1.8-.04-.22-.26-1.15-.26-1.15z" transform="matrix(.948 0 0 .948 1.107 -2.004)"/></g><g><path fill="none" stroke="#555753" stroke-width=".95.582" d="M21.42 25c.18.35 1.35.83 1.42 1 .6-.35 2.07-.37 2.52-.43.43-.07 2.43-.33 2.43-.33s1.15-2.43 1.32-2.66c.18-.22 1.1-1.37 1.1-1.37s-1.72-.8-2.04-1.17c-.33-.37-1.36-1.8-1.88-2.15-.52-.35-1.6-1.17-1.67-1.28-.07-.1-.4-.55-.4-.55l-4.1 1.75-.08 2.1.42 1.8-.12.2 1.07 3.1z"/><path fill="#fff" d="M21.42 25l-1.08-3.1.13-.22-.43-1.8.08-2.1 4.1-1.74.84 1.83z"/><path fill="#fff" d="M21.8 23.44s-.56 1.22-.38 1.56c.2.34 1.35.83 1.42 1 .6-.35 2.08-.37 2.52-.43.44-.07 2.43-.33 2.43-.33s1.15-2.43 1.32-2.66c.18-.22 1.1-1.37 1.1-1.37s-1.72-.8-2.04-1.17c-.32-.37-1.36-1.8-1.88-2.15-.52-.35-1.6-1.17-1.67-1.28-.07-.1-.4-.55-.4-.55l.3 1.18-2.74 6.2z"/><path fill="url(#l)" d="M19.84 24.42s-.5-3.43-1.12-4.8c0 0 1.9-.84 2-1 .06-.17-.15-1.17-.15-1.17.54 0 1.9.3 2.04.44.15.13.8.5 1.17.67.36.16 1.92 1.53 2.08 1.88.16.35.74 1.67.94 1.76-.62.05-2.42-.24-2.42-.24l-.63.7s-.63 1.5-1.02 1.48c-.38-.02-1.55-.14-1.78-.1-.22.07-1.1.38-1.1.38z" transform="matrix(.948 0 0 .948 2.974 .294)"/></g><g><path fill="none" stroke="#555753" stroke-width="1.9.11" d="M35.8 1.5c-.45-.1-1.8.57-2 .5-.16.83-1.3 2.16-1.58 2.6-.28.46-1.6 2.46-1.6 2.46S31.93 10 32 10.33c.05.34.37 2.07.37 2.07s2.08-.92 2.67-.93c.58 0 2.68.18 3.4-.02.7-.2 2.3-.55 2.45-.52.13.02.8.07.8.07l1.6-5.07-1.82-1.7-1.96-1.02-.08-.26L35.8 1.5z"/><path fill="#fff" d="M39.4 10.37l-3.6-8.83 3.65 1.44.08.27 1.96 1.02 1.82 1.7-1.62 5.07z"/><path fill="#fff" d="M36.92 3.04S36.25 1.6 35.8 1.5c-.45-.1-1.8.57-2 .5-.16.83-1.3 2.16-1.58 2.6-.28.46-1.6 2.46-1.6 2.46S31.93 10 32 10.33c.05.34.37 2.07.37 2.07s2.08-.92 2.67-.93c.58 0 2.68.18 3.4-.02.7-.2 2.3-.55 2.45-.52.13.02.8.07.8.07l-1.3-.65-3.48-7.3z"/><path fill="url(#m)" d="M35.8 2.9s3.5 2.2 5.22 2.72c0 0-.73 2.38-.64 2.57.1.2 1.17.77 1.17.77-.44.5-1.77 1.5-2 1.5-.23.02-1.08.33-1.5.53-.43.2-2.88.53-3.32.4-.44-.12-2.1-.62-2.33-.5.44-.6 2.1-2 2.1-2l-.14-1.1s-.86-1.74-.54-2.08c.3-.33 1.34-1.3 1.46-1.54.12-.24.53-1.28.53-1.28z" transform="matrix(.948 0 0 .948 2.974 .294)"/></g><g><path fill="none" stroke="#555753" stroke-width=".95.582" d="M9.88 33.7c-.1.12-.1.67-.15.73.26.18.53.76.63.93.1.16.57.9.57.9s1.18.04 1.3.07c.12.03.74.2.74.2s.02-.85.1-1.04c.1-.2.48-.87.53-1.14.04-.27.18-.85.2-.9.04-.04.16-.25.16-.25l-1.44-1.32-.85.34-.64.5-.1-.02-1.05 1z"/><path fill="#fff" d="M9.87 33.66l1.05-.98h.1l.64-.48.86-.34 1.43 1.32-.58.66z"/><path fill="url(#n)" d="M11.2 32.2s-.62 0-.73.15c-.1.14-.1.72-.16.78.28.2.56.8.67.98.1.18.6.97.6.97s1.24.03 1.37.06c.13.03.8.2.8.2s0-.87.1-1.08c.1-.2.5-.9.55-1.2.04-.28.18-.9.2-.94.04-.04.17-.26.17-.26l-.44.35H11.2z" transform="matrix(.948 0 0 .948 -.042 3.023)"/><path fill="url(#o)" d="M11.2 32.2s1.27-.8 1.7-1.3c0 0 .7.6.76.6.08 0 .44-.25.44-.25.1.22.23.8.2.9-.04.07-.07.4-.07.58 0 .17-.27 1.03-.38 1.16-.1.12-.53.6-.53.68-.13-.23-.33-1-.33-1l-.4-.13s-.7 0-.78-.14c-.06-.15-.22-.64-.28-.72-.06-.07-.35-.37-.35-.37z" transform="matrix(.948 0 0 .948 -.042 3.023)"/></g><g><path fill="none" stroke="#555753" stroke-width=".95.582" d="M7.23 26.24c.07-.13 0-.6.03-.64-.23-.12-.53-.57-.64-.7-.1-.1-.58-.67-.58-.67s-.98.12-1.1.1c-.1 0-.63-.05-.63-.05s.1.7.05.86c-.05.17-.28.78-.28 1 0 .24-.04.74-.06.78 0 .04-.08.23-.08.23l1.35.92.66-.4.47-.5h.1l.73-.93z"/><path fill="#fff" d="M4.32 26.56l2.92-.3-.74.95h-.1l-.46.5-.66.4-1.36-.92z"/><path fill="url(#p)" d="M3.9 27.58s.52-.08.6-.2c.07-.14-.02-.63.02-.7-.24-.1-.56-.58-.67-.7-.1-.14-.62-.73-.62-.73s-1.03.13-1.14.12c-.12 0-.7-.07-.7-.07s.1.73.06.9c-.06.2-.3.84-.3 1.08 0 .24-.05.76-.07.8-.03.05-.1.25-.1.25l.3-.35 2.6-.4z" transform="matrix(.948 0 0 .948 2.974 .294)"/><path fill="url(#q)" d="M3.9 27.58s-.94.84-1.25 1.3c0 0-.64-.43-.7-.42-.07.02-.33.28-.33.28-.1-.17-.3-.65-.27-.72 0-.07 0-.35-.03-.5-.02-.13.1-.88.17-1s.36-.57.35-.64c.13.18.4.8.4.8l.34.04s.57-.1.65.03c.07.12.26.5.32.56.07.06.34.28.34.28z" transform="matrix(.948 0 0 .948 2.974 .294)"/></g><g><path fill="none" stroke="#555753" stroke-width=".95.582" d="M43.7 19.6c.13-.02.42-.4.5-.4-.07-.24.07-.76.1-.93 0-.16.12-.9.12-.9s-.74-.64-.8-.73c-.06-.08-.37-.52-.37-.52s-.47.52-.63.6c-.16.08-.77.3-.94.45-.18.14-.58.45-.62.46-.04 0-.23.08-.23.08l.2 1.64.73.24.68.03.05.07 1.2-.06z"/><path fill="#fff" d="M43.7 19.64l-1.2.06-.05-.06-.68-.03-.73-.23-.2-1.63.72-.1 2.15 2z"/><path fill="url(#r)" d="M26.66 10.32s.4.34.54.3c.15-.03.45-.4.52-.42-.06-.26.08-.8.1-.98.03-.17.14-.94.14-.94s-.78-.7-.84-.78c-.06-.1-.4-.56-.4-.56s-.48.56-.65.64c-.17.08-.82.32-1 .47-.18.16-.6.48-.65.5-.05 0-.25.08-.25.08h.47l2.02 1.7z" transform="matrix(.948 0 0 .948 17.912 9.534)"/><path fill="url(#s)" d="M26.66 10.32s-1.26-.16-1.8-.08c0 0-.1-.76-.16-.8-.05-.05-.43-.07-.43-.07.06-.2.3-.65.36-.68.07-.04.27-.24.36-.35.08-.1.72-.52.86-.54.14 0 .67-.1.72-.15-.05.22-.33.83-.33.83l.18.3s.46.36.42.5c-.05.13-.2.53-.2.62 0 .08 0 .42 0 .42z" transform="matrix(.948 0 0 .948 17.912 9.534)"/></g><g><path fill="none" stroke="#555753" stroke-width=".95.582" d="M33.06 41.68c.1.2.82.5.86.6.38-.2 1.27-.22 1.54-.26.27-.04 1.48-.2 1.48-.2s.7-1.48.82-1.62c.1-.14.67-.84.67-.84s-1.05-.5-1.25-.72c-.2-.23-.83-1.1-1.14-1.3-.32-.22-1-.73-1.03-.8-.02-.05-.22-.32-.22-.32l-2.5 1.06-.06 1.28.26 1.1-.08.12.66 1.9z"/><path fill="#fff" d="M33.07 41.7l-.66-1.9.1-.1-.27-1.1.05-1.3 2.5-1.06.5 1.12z"/><path fill="#fff" d="M33.28 40.72s-.33.75-.22.96c.1.2.82.5.86.6.38-.2 1.27-.22 1.54-.26.27-.04 1.48-.2 1.48-.2s.7-1.48.82-1.62c.1-.14.67-.84.67-.84s-1.05-.5-1.25-.72c-.2-.23-.83-1.1-1.14-1.3-.32-.22-.98-.73-1.02-.8-.04-.05-.24-.32-.24-.32l.18.7-1.68 3.8z"/><path fill="url(#t)" d="M29.65 38.96s-.32-2.1-.7-2.93c0 0 1.18-.5 1.23-.6.04-.1-.1-.72-.1-.72.34 0 1.18.2 1.26.28.08.08.5.3.7.4.23.1 1.17.95 1.27 1.16.1.2.47 1.02.6 1.08-.38.02-1.48-.16-1.48-.16l-.4.43s-.37.9-.6.9c-.24-.02-.96-.1-1.1-.06-.13.03-.67.22-.67.22z" transform="matrix(.948 0 0 .948 5.177 3.789)"/></g><g><path fill="none" stroke="#555753" stroke-width=".95.582" d="M25.77 43.94c.1-.08.15-.5.2-.53-.17-.16-.3-.63-.36-.76-.05-.14-.3-.75-.3-.75s-.9-.17-.97-.2c-.1-.04-.54-.24-.54-.24s-.12.62-.2.76c-.1.13-.47.6-.53.78-.07.2-.24.62-.26.65-.02.03-.13.17-.13.17l.9 1.16.68-.15.54-.3.07.03.9-.62z"/><path fill="#fff" d="M25.78 43.98l-.9.62-.08-.03-.54.3-.67.15-.93-1.16.52-.42 2.58.54z"/><path fill="#fff" d="M25.24 43.96s.43.07.53 0c.1-.1.14-.52.2-.55-.17-.16-.3-.63-.36-.76-.05-.14-.3-.75-.3-.75s-.9-.17-.97-.2c-.1-.04-.54-.24-.54-.24s-.12.62-.2.76c-.1.13-.47.6-.53.8-.07.18-.24.6-.27.63-.02.03-.13.17-.13.17l.35-.2 2.22.34z"/><path fill="url(#u)" d="M23.5 46.07s-1.06.46-1.45.77c0 0-.44-.54-.5-.54-.05 0-.35.14-.35.14-.05-.17-.07-.64-.04-.7.03-.04.1-.3.12-.42.02-.13.32-.74.42-.82.1-.1.47-.4.48-.46.06.2.12.8.12.8l.3.13s.52.07.55.2c.02.12.08.5.12.58.04.06.22.32.22.32z" transform="matrix(.948 0 0 .948 2.974 .294)"/></g><g><path fill="none" stroke="#555753" stroke-width=".95.582" d="M23.36 32.88c-.08-.1-.53-.22-.57-.28-.2.16-.74.26-.9.3-.15.06-.86.27-.86.27s-.27.95-.32 1.04c-.05.1-.32.57-.32.57s.67.2.8.3c.15.12.6.58.8.68.22.1.67.32.7.36.02.04.17.2.17.2l1.38-.9-.1-.75-.25-.63.03-.08-.57-1.06z"/><path fill="#fff" d="M23.36 32.85l.58 1.06-.04.1.26.62.1.76-1.4.88-.4-.62z"/><path fill="url(#v)" d="M25.36 37.37s.13-.5.04-.62c-.1-.12-.57-.23-.6-.3-.22.18-.77.28-.94.33-.16.05-.9.28-.9.28s-.3 1-.35 1.1c-.05.1-.33.6-.33.6s.7.2.86.3c.14.13.63.62.85.7.2.1.68.36.7.4.04.03.2.18.2.18l-.2-.43.68-2.53z" transform="matrix(.948 0 0 .948 -.712 -1.957)"/><path fill="url(#w)" d="M25.36 37.37s.4 1.2.68 1.67c0 0-.64.42-.66.48 0 .06.12.42.12.42-.2.02-.7 0-.76-.04-.06-.05-.32-.14-.46-.18-.14-.04-.8-.44-.86-.56-.08-.12-.37-.56-.45-.58.22-.05.9-.05.9-.05l.18-.3s.14-.57.28-.6c.14 0 .57-.03.65-.06.07-.04.38-.2.38-.2z" transform="matrix(.948 0 0 .948 -.712 -1.957)"/></g><g><path fill="none" stroke="#555753" stroke-width=".95.582" d="M10.3 14.03c0-.13-.24-.46-.23-.53-.23 0-.65-.24-.78-.3-.14-.05-.75-.3-.75-.3s-.74.47-.82.5c-.1.04-.55.2-.55.2s.35.53.38.7c.03.15.08.73.17.9.08.2.25.6.25.65 0 .04.02.22.02.22l1.45.2.38-.57.18-.58.08-.04.22-1.05z"/><path fill="#fff" d="M8.08 15.4L10.3 14l-.2 1.05-.08.04-.2.57-.36.57-1.45-.2z"/><path fill="#fff" d="M9.94 14.4s.36-.24.36-.37-.24-.46-.23-.52c-.23 0-.65-.24-.78-.3-.14-.05-.75-.3-.75-.3s-.74.48-.82.5c-.1.04-.55.2-.55.2s.35.53.38.7c.03.15.08.73.17.9.08.2.25.6.25.65 0 .04.02.22.02.22l.12-.38 1.82-1.3z"/><path fill="url(#x)" d="M7.34 14.9s-.43 1.04-.5 1.53c0 0-.67-.1-.72-.06-.05.04-.16.36-.16.36-.15-.1-.48-.4-.5-.47 0-.06-.14-.28-.2-.4-.08-.1-.3-.74-.28-.87.02-.13.08-.6.03-.66.2.1.65.47.65.47l.3-.08s.43-.3.53-.24c.1.07.42.3.5.32.06.02.36.1.36.1z" transform="matrix(.948 0 0 .948 2.974 .294)"/></g><g><path fill="none" stroke="#555753" stroke-width=".95.582" d="M16.46 11.43c.18.22 1.1.4 1.18.53.4-.35 1.46-.57 1.77-.68.32-.1 1.73-.6 1.73-.6s.5-1.92.6-2.1c.1-.2.6-1.17.6-1.17s-1.37-.34-1.66-.56c-.28-.22-1.24-1.12-1.67-1.3-.43-.17-1.34-.62-1.4-.7-.06-.05-.36-.33-.36-.33L14.5 6.38l.23 1.53.57 1.25-.07.17 1.23 2.1z"/><path fill="#fff" d="M18.14 5.7l-1.64 5.7-1.23-2.1.07-.17-.57-1.25-.24-1.54 2.74-1.85z"/><path fill="#fff" d="M16.5 10.24s-.22.96-.04 1.2c.18.2 1.1.4 1.18.52.4-.35 1.46-.57 1.77-.68.32-.1 1.73-.6 1.73-.6s.5-1.93.6-2.1c.1-.2.6-1.17.6-1.17s-1.37-.34-1.66-.56c-.3-.22-1.25-1.12-1.67-1.3-.43-.18-1.34-.62-1.4-.7-.06-.05-.36-.33-.36-.33l.38.83-1.1 4.9z"/><path fill="url(#y)" d="M14.28 10.5s-.87-2.43-1.5-3.34c0 0 1.27-.9 1.3-1.02.03-.13-.27-.83-.27-.83.4-.06 1.44-.04 1.56.04.12.08.66.26.94.33.3.07 1.62.84 1.78 1.07.17.23.78 1.12.94 1.15-.44.1-1.8.15-1.8.15l-.35.6s-.25 1.18-.53 1.22c-.28.05-1.15.12-1.3.2-.16.07-.76.42-.76.42z" transform="matrix(.948 0 0 .948 2.974 .294)"/></g><g fill="none" stroke-width="1.055" stroke-linecap="round"><path stroke="#73d216" stroke-width="0.95" d="M12.9 6.74l4.87 1.98"/><path stroke="#729fcf" stroke-width="0.95" d="M22.2 5.1l-4.43 3.62"/><path stroke="#ef2929" stroke-width="0.95" d="M17.25 3.65l.52 5.07"/></g><g fill="none" stroke-width="1.842" stroke-linecap="round"><path stroke="#73d216" stroke-width="0.54" d="M6.12 17l2.55-2.54"/><path stroke="#729fcf" stroke-width="0.54" d="M12.18 16.3l-3.5-1.84"/><path stroke="#ef2929" stroke-width="0.54" d="M8.02 10.76l.65 3.7"/></g><g fill="none" stroke-width="1.676" stroke-linecap="round"><path stroke="#73d216" stroke-width="0.6" d="M2.15 27.08l3.46-.9"/><path stroke="#729fcf" stroke-width="0.6" d="M6.46 29.3l-.85-3.13"/><path stroke="#ef2929" stroke-width="0.6" d="M5.67 22.38l-.06 3.8"/></g><g fill="none" stroke-width="1.445" stroke-linecap="round"><path stroke="#73d216" stroke-width="0.69" d="M14.16 38.23l-2.5-3.86"/><path stroke="#729fcf" stroke-width="0.69" d="M14.88 30.48l-3.22 3.9"/><path stroke="#ef2929" stroke-width="0.69" d="M6.87 34.2l4.8.17"/></g><g fill="none" stroke-width="1.055" stroke-linecap="round"><path stroke="#73d216" stroke-width="0.95" d="M17.96 33.54l4.36.62"/><path stroke="#729fcf" stroke-width="0.95" d="M24.38 30.38l-2.06 3.78"/><path stroke="#ef2929" stroke-width="0.95" d="M21.65 29.9l.67 4.26"/></g><g fill="none" stroke-width="1.931" stroke-linecap="round"><path stroke="#73d216" stroke-width="0.52" d="M21.8 41.25l2.44 2.44"/><path stroke="#729fcf" stroke-width="0.52" d="M27.6 41.93l-3.36 1.76"/><path stroke="#ef2929" stroke-width="0.52" d="M23.6 47.22l.64-3.53"/></g><g fill="none" stroke-width="1.334" stroke-linecap="round"><path stroke="#73d216" stroke-width="0.75" d="M31.18 36.6l3.52 3.5"/><path stroke="#729fcf" stroke-width="0.75" d="M39.55 37.58L34.7 40.1"/><path stroke="#ef2929" stroke-width="0.75" d="M33.8 45.23l.9-5.12"/></g><g fill="none" stroke-width="1.055" stroke-linecap="round"><path stroke="#73d216" stroke-width="0.95" d="M17.72 19.27l6.42 1.96"/><path stroke="#729fcf" stroke-width="0.95" d="M20.93 27.55l3.2-6.32"/><path stroke="#ef2929" stroke-width="0.95" d="M19.92 14.82l4.22 6.4"/></g><g fill="none" stroke-width="1.055" stroke-linecap="round"><path stroke="#73d216" stroke-width="0.95" d="M37.06 14.2l-.8-6.85"/><path stroke="#729fcf" stroke-width="0.95" d="M43.1 4.52l-6.85 2.83"/><path stroke="#ef2929" stroke-width="0.95" d="M38.36.6l-2.1 6.75"/></g><g fill="none" stroke-width="1.695" stroke-linecap="round"><path stroke="#73d216" stroke-width="0.59" d="M38.67 18.45l3.9-.24"/><path stroke="#729fcf" stroke-width="0.59" d="M44.1 22.24L42.6 18.2"/><path stroke="#ef2929" stroke-width="0.59" d="M44.7 14.72l-2.12 3.5"/></g><g fill="none" stroke-width="1.055" stroke-linecap="round"><path stroke="#73d216" stroke-width="0.95" d="M46.02 31.53l-6.42-1.97"/><path stroke="#729fcf" stroke-width="0.95" d="M42.8 23.24l-3.2 6.32"/><path stroke="#ef2929" stroke-width="0.95" d="M43.8 35.98l-4.2-6.42"/></g></g></svg>