<svg xmlns="http://www.w3.org/2000/svg" width="48" height="48"><defs><radialGradient id="a" cx="15.372" cy="264.458" r="40.675" gradientUnits="userSpaceOnUse" fy="264.458" fx="15.372"><stop offset="0" stop-color="#fff"/><stop offset="1" stop-color="#C2CED4"/></radialGradient><radialGradient id="b" cx="54.538" cy="314.464" r="38.891" gradientUnits="userSpaceOnUse" fy="314.464" fx="54.538"><stop offset="0" stop-color="#fff"/><stop offset="1" stop-color="#8794A0"/></radialGradient><radialGradient id="c" cx="30.402" cy="309.888" r="50.461" gradientUnits="userSpaceOnUse" fy="309.888" fx="30.402"><stop offset="0" stop-color="#fff"/><stop offset="1" stop-color="#8794A0"/></radialGradient></defs><g><path fill="none" stroke="#660c0b" stroke-width=".9954" d="M10.02 22.7l-3.2.56-2.65 2.67-.1-8.62 5.95 5.4z"/><path fill="none" stroke="#660d0d" stroke-width=".9954" d="M40.33 22.75l3.62.82 2.7 2.47-.23-7.93-6.1 4.65z"/><path fill="none" stroke="#660c0b" stroke-width=".9954" d="M21.7 14.98l3.4-1.38 3.42 1.38L25.1 7 21.7 15z"/><path fill="none" stroke="#660c0b" d="M.9 34l5.84 9.2s-3.93-3-3.83-2.94L.5 39.7.9 34z" stroke-linecap="square"/><path fill="none" stroke="#660c0a" d="M37.63 44.73s6.46-4.3 9.76-4.3l-.87-4.06-8.9 8.36z"/><path fill="url(#a)" d="M25.5 277.2l-13.4-6.9 14.53-6.2 13.42 6.58-14.55 6.52z" transform="matrix(1.055 0 0 1.055 -2.396 -261.875)"/><g><g><path fill="none" stroke="#660c0a" stroke-width=".9954" d="M6.17 23.1c4.06 7.18 10.58 14.77 16.52 18.3 7.85 4.65 15.73 4.66 21.08 0l-.5-.54c-5.16 4.5-12.53 4.46-20.2-.1C17.23 37.3 10.8 29.8 6.8 22.72l-.63.37z"/></g><g><path fill="none" stroke="#660c0a" stroke-width=".9954" d="M9.63 43.7c-2.27-.78-4.27-2.02-5.96-3.68l-.52.52c1.77 1.74 3.87 3.04 6.24 3.86 10.6 3.7 26.33-5.73 34.64-20.38l-.65-.36C35.26 38 19.9 47.28 9.62 43.7z"/></g></g><g><g><path fill="#ed2728" d="M6.17 23.1c4.06 7.18 10.58 14.77 16.52 18.3 7.85 4.65 15.73 4.66 21.08 0l-.5-.54c-5.16 4.5-12.53 4.46-20.2-.1C17.23 37.3 10.8 29.8 6.8 22.72l-.63.37z"/></g><g><path fill="#ed2728" d="M9.63 43.7c-2.27-.78-4.27-2.02-5.96-3.68l-.52.52c1.77 1.74 3.87 3.04 6.24 3.86 10.6 3.7 26.33-5.73 34.64-20.38l-.65-.36C35.26 38 19.9 47.28 9.62 43.7z"/></g></g><path fill="#ed2728" d="M10.02 22.7l-3.2.56-2.65 2.67-.1-8.62 5.95 5.4z"/><path fill="#ed2728" d="M40.33 22.75l3.62.82 2.7 2.47-.23-7.93-6.1 4.65z"/><path fill="url(#b)" d="M39.95 286.97l-14.38 6.8-.07-16.56 14.55-6.52-.1 16.3z" transform="matrix(1.055 0 0 1.055 -2.396 -261.875)"/><path fill="none" stroke="#e9eaeb" d="M24.5 30.5l15.34-6.87"/><path fill="url(#c)" d="M25.5 277.2l-13.4-6.9.25 16.3 13.22 7.2-.07-16.6z" transform="matrix(1.055 0 0 1.055 -2.396 -261.875)"/><path fill="none" stroke="#e9eaeb" stroke-width=".9954" d="M10.38 23.24l14.1 7.27.1 17.5"/><path fill="none" stroke="#192333" stroke-width=".79695" d="M10.63 40.4L24.57 48l15.16-7.2.1-17.17-14.14-6.96-15.32 6.57.25 17.17z"/><g><path fill="none" stroke="#660c0b" stroke-width=".9954" d="M24.74 11.92h.73V23.6h-.73z"/></g><g><path fill="#ed2728" d="M24.74 11.92h.73V23.6h-.73z"/></g><path fill="#ed2728" d="M21.7 14.98l3.4-1.38 3.42 1.38L25.1 7 21.7 15z"/><path fill="#ed2728" d="M.9 34l5.84 9.2-3.83-2.94-2.4-.56.4-5.7z"/><path fill="#ed2728" d="M37.63 44.73s6.46-4.3 9.76-4.3l-.87-4.06-8.9 8.36z"/></g></svg>