<svg xmlns="http://www.w3.org/2000/svg" width="16" height="16"><g color="#000"><path fill="#888a85" d="M-.3-.44v16.9h16.77V-.43H-.3zM8 2.46c3.04 0 5.5 2.46 5.5 5.5 0 3.05-2.46 5.54-5.5 5.54S2.47 11 2.47 7.97c0-3.05 2.5-5.5 5.53-5.5z" overflow="visible" enable-background="accumulate"/><path fill="#babdb6" d="M16.4-1.66l-5.18 5.2c.48.34.9.76 1.25 1.24l5.2-5.16-1.26-1.28zM3.54 11.2l-5.2 5.18 1.26 1.28 5.2-5.2c-.5-.34-.9-.78-1.27-1.27z" style="text-indent:0;text-align:start;line-height:normal;text-transform:none;block-progression:tb;-inkscape-font-specification:Sans" overflow="visible" enable-background="accumulate" font-family="Sans"/><path fill="#babdb6" d="M12.38-2.6L7.25 2.54c.24-.03.5-.06.75-.06.56 0 1.08.1 1.6.25 0 0 .02 0 .03 0l4.03-4.06-1.3-1.25zM2.53 7.26l-5.2 5.2 1.3 1.27 4.1-4.1c-.17-.5-.26-1.08-.26-1.65 0-.25.03-.48.06-.72z" style="text-indent:0;text-align:start;line-height:normal;text-transform:none;block-progression:tb;-inkscape-font-specification:Sans" overflow="visible" enable-background="accumulate" font-family="Sans"/><path fill="#babdb6" d="M7.47-2.5L-3.56 8.56l1.28 1.28L8.75-1.22 7.47-2.5z" style="text-indent:0;text-align:start;line-height:normal;text-transform:none;block-progression:tb;-inkscape-font-specification:Sans" overflow="visible" enable-background="accumulate" font-family="Sans"/><path fill="#babdb6" d="M2.7-2.28L-2.4 2.78l1.3 1.28 5.02-5.1L2.7-2.27z" style="text-indent:0;text-align:start;line-height:normal;text-transform:none;block-progression:tb;-inkscape-font-specification:Sans" overflow="visible" enable-background="accumulate" font-family="Sans"/><path fill="#babdb6" d="M17.22 2.47L13.28 6.4c.15.5.22 1.02.22 1.57 0 .28-.02.57-.06.84l5.06-5.08-1.28-1.25zm-10.8 10.8L2.18 17.5l1.27 1.28 5.34-5.34c-.26.04-.52.06-.8.06-.55 0-1.1-.07-1.6-.22z" style="text-indent:0;text-align:start;line-height:normal;text-transform:none;block-progression:tb;-inkscape-font-specification:Sans" overflow="visible" enable-background="accumulate" font-family="Sans"/><path fill="#babdb6" d="M18.1 6.34L7.02 17.4l1.28 1.26L19.38 7.6 18.1 6.33z" style="text-indent:0;text-align:start;line-height:normal;text-transform:none;block-progression:tb;-inkscape-font-specification:Sans" overflow="visible" enable-background="accumulate" font-family="Sans"/><path fill="#babdb6" d="M16.9 12.1l-5.02 5.1 1.24 1.27 5.07-5.1-1.3-1.28z" style="text-indent:0;text-align:start;line-height:normal;text-transform:none;block-progression:tb;-inkscape-font-specification:Sans" overflow="visible" enable-background="accumulate" font-family="Sans"/><path fill="none" stroke="#ef2929" stroke-width="1.042" stroke-dashoffset=".208" d="M14 7.5a6 5.5 0 1 1-12 0 6 5.5 0 1 1 12 0z" transform="matrix(.919 0 0 1.002 .643 .458)" stroke-dasharray="1.04231149,1.04231149" overflow="visible" enable-background="accumulate"/></g></svg>