<svg xmlns="http://www.w3.org/2000/svg" width="16" height="16"><g font-size="12" font-family="Tahoma"><path stroke="#2e3436" d="M5.04 13H.5v-.95h1.7V5.8H.5v-.86c.64 0 1.1-.1 1.4-.28.3-.18.48-.52.52-1.03h.97v8.42h1.64V13z" style="text-align:start;line-height:125%"/><path stroke="#2e3436" d="M8.42 7.3h-1.5V5.5h1.5v1.8z" style="text-align:start;line-height:125%"/><path stroke="#2e3436" d="M8.4 12.65H6.9v-1.8h1.5v1.8z" style="text-align:start;line-height:125%"/><path stroke="#2e3436" d="M15.45 13H10.9v-.95h1.7V5.8h-1.7v-.86c.64 0 1.1-.1 1.42-.28.3-.18.47-.52.5-1.03h.97v8.42h1.65V13z" style="text-align:start;line-height:125%"/><path fill="#eeeeec" d="M5.04 13H.5v-.95h1.7V5.8H.5v-.86c.64 0 1.1-.1 1.4-.28.3-.18.48-.52.52-1.03h.97v8.42h1.64V13z" style="text-align:start;line-height:125%"/><path fill="#eeeeec" d="M8.42 7.3h-1.5V5.5h1.5v1.8z" style="text-align:start;line-height:125%"/><path fill="#eeeeec" d="M8.4 12.65H6.9v-1.8h1.5v1.8z" style="text-align:start;line-height:125%"/><path fill="#eeeeec" d="M15.45 13H10.9v-.95h1.7V5.8h-1.7v-.86c.64 0 1.1-.1 1.42-.28.3-.18.47-.52.5-1.03h.97v8.42h1.65V13z" style="text-align:start;line-height:125%"/></g></svg>