<svg xmlns="http://www.w3.org/2000/svg" width="16" height="16" xmlns:xlink="http://www.w3.org/1999/xlink" viewBox="0 0 15.999999 16" enable-background="new 0 0 628.254 613.516"><defs><linearGradient id="a"><stop offset="0" stop-color="#fff"/><stop offset="1" stop-color="#ababab"/></linearGradient><linearGradient x1="5" x2="7" y1="5" y2="1.488" gradientTransform="translate(-3.073 -.653)" xlink:href="#a" gradientUnits="userSpaceOnUse"/></defs><path fill="#fff" fill-rule="evenodd" stroke="#000" stroke-width=".5" d="M7.87.58c-.65.02-1.3.3-1.7.85l-2.12 3.1 1.58 1.22 2.1-3.1c.05-.05.26-.14.4.02l1.4 1.83-1.48 1.08 4.12 1.35.38-4.4-1.4.97-1.47-2.1-.02-.02C9.2.82 8.52.56 7.86.58z" style="line-height:normal;text-indent:0;text-align:start;text-decoration-line:none;text-decoration-style:solid;text-decoration-color:#000000;text-transform:none;block-progression:tb;white-space:normal;isolation:auto;mix-blend-mode:normal;solid-color:#000000;solid-opacity:1" color="#000" font-family="sans-serif" overflow="visible" enable-background="accumulate"/><path fill="#fff" fill-rule="evenodd" stroke="#000" stroke-width=".5" d="M15 12.76c.37-.53.52-1.22.34-1.88l-1.97-3.92-1.8 1 1.84 3.45c.03.08-.02.3-.23.3l-2.32.05.07-2.14-3.26 3.05 3.2 2.77-.03-1.77 2.42.06h.03c.74-.03 1.34-.4 1.72-.94z" style="line-height:normal;text-indent:0;text-align:start;text-decoration-line:none;text-decoration-style:solid;text-decoration-color:#000000;text-transform:none;block-progression:tb;white-space:normal;isolation:auto;mix-blend-mode:normal;solid-color:#000000;solid-opacity:1" color="#000" font-family="sans-serif" overflow="visible" enable-background="accumulate"/><path fill="#fff" fill-rule="evenodd" stroke="#000" stroke-width=".5" d="M.97 12.45c.3.58.83 1.04 1.5 1.2l4.4.05-.06-2H2.93c-.08-.02-.25-.17-.16-.36l1.06-2.07 1.7 1.02-.65-4.27L.6 7.43l1.63.8-1.27 2.23v.03c-.33.66-.28 1.37 0 1.95z" style="line-height:normal;text-indent:0;text-align:start;text-decoration-line:none;text-decoration-style:solid;text-decoration-color:#000000;text-transform:none;block-progression:tb;white-space:normal;isolation:auto;mix-blend-mode:normal;solid-color:#000000;solid-opacity:1" color="#000" font-family="sans-serif" overflow="visible" enable-background="accumulate"/></svg>