<svg xmlns="http://www.w3.org/2000/svg" width="16" height="16"><g fill="#eeeeec" fill-rule="evenodd" stroke="#2e3436" stroke-linejoin="bevel"><path stroke-width=".5" d="M6.25.76h2v3h-2v-3z" color="#000" stroke-linecap="round" overflow="visible"/><path stroke-width=".5" d="M3.25 6.76v2h-3v-2h3z" color="#000" stroke-linecap="round" overflow="visible"/><path stroke-width=".49979999999999997" d="M9.25 7.76a2 2 0 1 1-4 0 2 2 0 1 1 4 0z" color="#000" stroke-linecap="round" overflow="visible"/><path stroke-width=".5" d="M6.25 14.76h2v-3h-2v3z" color="#000" stroke-linecap="round" overflow="visible"/><path stroke-width=".5" d="M5.13 4.22L3.7 5.64 1.6 3.52 3 2.1l2.13 2.12z" color="#000" stroke-linecap="round" overflow="visible"/><path stroke-width=".5" d="M1.6 12L3 13.42l2.13-2.12L3.7 9.88 1.6 12z" color="#000" stroke-linecap="round" overflow="visible"/><path d="M12 .5l3.44 4.37h-1.9v6.28h1.96l-3.57 4.35-3.44-4.35h2V4.87H8.6L11.98.5z"/></g></svg>