<svg xmlns="http://www.w3.org/2000/svg" width="16" height="16"><g fill-rule="evenodd" color="#000"><path fill="#d4bcd1" stroke="#2e3436" d="M1.5 1.5h13v13h-13z" overflow="visible" enable-background="accumulate"/><path fill="#204a87" d="M11 8a3 3 0 1 1-6 0 3 3 0 1 1 6 0z" overflow="visible" enable-background="accumulate"/><path fill="#a40000" fill-opacity=".502" d="M7.22 11.92C5.4 11.56 4 9.94 4 8c0-1.93 1.37-3.55 3.2-3.92m0 0c.26-.05.53-.08.8-.08 2.2 0 4 1.8 4 4s-1.8 4-4 4c-.27 0-.53-.03-.78-.08" overflow="visible" enable-background="accumulate"/></g></svg>