<svg xmlns="http://www.w3.org/2000/svg" width="16" height="16" xmlns:xlink="http://www.w3.org/1999/xlink"><defs><linearGradient><stop offset="0" stop-color="#fff"/><stop offset=".5" stop-color="#fce94f"/><stop offset="1" stop-color="#fce94f"/></linearGradient><linearGradient id="a"><stop offset="0" stop-color="#414141"/><stop offset=".2" stop-color="#535353"/><stop offset=".5" stop-color="#aeaeae"/><stop offset=".8" stop-color="#535353"/><stop offset="1" stop-color="#a1a1a1"/></linearGradient><linearGradient x1="3" x2="13" y1="1.783" y2="12.1" xlink:href="#a" gradientUnits="userSpaceOnUse" gradientTransform="matrix(.8 0 0 1 .6 -.011)"/></defs><g><path fill="#555753" fill-rule="evenodd" d="M0 14h16V1H0v13z" color="#000" overflow="visible"/><g fill="#eeeeec" color="#000"><path d="M0 13v-.98h1.1V13z" overflow="visible"/><path d="M1.92 13v-.98h1.1V13z" overflow="visible"/><path d="M4 12.98V12h1.1v.98z" overflow="visible"/><path d="M6 12.98V12h1.1v.98z" overflow="visible"/><path d="M8 12.98V12h1.1v.98z" overflow="visible"/><path d="M9.92 13v-.98h1.1V13z" overflow="visible"/><path d="M11.92 13v-.98h1.1V13z" overflow="visible"/><path d="M14 12.98V12h1.1v.98z" overflow="visible"/></g><g fill="#eeeeec" color="#000"><path d="M-.07 3v-.98h1.1V3z" overflow="visible"/><path d="M1.84 3v-.98h1.1V3z" overflow="visible"/><path d="M3.93 2.98V2h1.1v.98z" overflow="visible"/><path d="M5.93 2.98V2h1.1v.98z" overflow="visible"/><path d="M7.93 2.98V2h1.1v.98z" overflow="visible"/><path d="M9.84 3v-.98h1.1V3z" overflow="visible"/><path d="M11.84 3v-.98h1.1V3z" overflow="visible"/><path d="M13.93 2.98V2h1.1v.98z" overflow="visible"/></g><path fill="#888a85" d="M0 11V4.02h4.05V11H0zm12.05 0V4.02H16V11h-3.95zm-7.03 0V4h6.08v7H5.02z" color="#000" overflow="visible"/><path fill="none" stroke="#eeeeec" stroke-opacity=".502" d="M0 10.53h3.52V4.5H.02"/><path fill="none" stroke="#eeeeec" stroke-opacity=".502" d="M16.05 10.5h-3.53v-6h3.53"/><path fill="none" stroke="#eeeeec" stroke-opacity=".502" d="M10.58 10.5H5.52v-6h5.06v6z"/><path fill-rule="evenodd" stroke="#eeeeec" d="M6.5 2.5v2h-2v3h2v2h3v-2h2v-3h-2v-2h-3z" color="#000" overflow="visible" enable-background="accumulate"/><path fill-rule="evenodd" stroke="#eeeeec" d="M4.5 9.5v3h7v-3h-7z" color="#000" overflow="visible" enable-background="accumulate"/></g></svg>