<svg xmlns="http://www.w3.org/2000/svg" width="16" height="16" xmlns:xlink="http://www.w3.org/1999/xlink"><defs><linearGradient id="a"><stop offset="0"/><stop offset="1" stop-color="#fff"/></linearGradient><linearGradient x2="16" y1="14.5" y2="14.5" xlink:href="#a" gradientUnits="userSpaceOnUse" gradientTransform="matrix(.933 0 0 1 .033 0)"/></defs><g><path fill="none" stroke="#2e3436" stroke-width="3" d="M7.5 7.5l-6-6"/><path fill="#eeeeec" fill-rule="evenodd" stroke="#2e3436" stroke-width="2" d="M1 1v3l3-3H1z"/><path fill="#eeeeec" fill-rule="evenodd" stroke="#2e3436" stroke-width="2" d="M8 8V5L5 8h3z"/><g><path fill="none" stroke="#eeeeec" d="M7.5 7.5l-6-6"/><path fill="#eeeeec" fill-rule="evenodd" d="M1 1v3l3-3H1z"/><path fill="#eeeeec" fill-rule="evenodd" d="M8 8V5L5 8h3z"/></g><path fill="#eeeeec" fill-rule="evenodd" d="M0 15.02C5 15.05 15.06 5.35 15.06.04l-.02 14.98H0z"/><path fill="none" stroke="#2e3436" d="M15.5 0l.06 15.53L0 15.5m0-1c6.02 0 14.5-8.48 14.5-14.5" stroke-linejoin="bevel"/></g></svg>