<svg xmlns="http://www.w3.org/2000/svg" width="16" height="16" xmlns:xlink="http://www.w3.org/1999/xlink"><defs><linearGradient><stop offset="0" stop-color="#c6efff" stop-opacity=".479"/><stop offset=".5" stop-color="#c6efff" stop-opacity=".35"/><stop offset="1" stop-color="#c6efff" stop-opacity=".231"/></linearGradient><linearGradient id="f"><stop offset="0" stop-color="#eeeeec"/><stop offset="1" stop-color="#ccccc5"/></linearGradient><linearGradient id="e"><stop offset="0" stop-color="#2e3436"/><stop offset="1" stop-color="#2e3436" stop-opacity="0"/></linearGradient><linearGradient id="d"><stop offset="0" stop-color="#cecec8"/><stop offset=".5" stop-color="#fff"/><stop offset="1" stop-color="#cecec8"/></linearGradient><linearGradient id="c"><stop offset="0" stop-color="#929292"/><stop offset=".5" stop-color="#fff"/><stop offset="1" stop-color="#c5c5c3"/></linearGradient><linearGradient id="b"><stop offset="0" stop-color="#cde"/><stop offset="1" stop-color="#729fcf"/></linearGradient><linearGradient id="a"><stop offset="0" stop-color="#616d72"/><stop offset="1" stop-color="#2e3436"/></linearGradient><linearGradient id="k" x1="1.828" x2="10.994" y1="1.833" y2="11.095" xlink:href="#a" gradientUnits="userSpaceOnUse" gradientTransform="matrix(1.024 0 0 1.024 -.171 -.164)"/><linearGradient id="i" x1="12.433" x2="13.778" y1="10.357" y2="15.763" xlink:href="#a" gradientUnits="userSpaceOnUse"/><radialGradient cx="4.149" cy="5.052" r="6.825" xlink:href="#b" fx="4.149" fy="5.052" gradientUnits="userSpaceOnUse" gradientTransform="matrix(.697 0 0 .697 1.956 1.962)"/><linearGradient id="l" x1="18.247" x2="18.226" y1=".881" y2="-.754" xlink:href="#c" gradientUnits="userSpaceOnUse" gradientTransform="matrix(.869 .869 -.869 .869 -3.351 -3.354)"/><linearGradient x1="10.841" x2="11.942" y1="12.035" y2="10.864" xlink:href="#d" gradientUnits="userSpaceOnUse" gradientTransform="translate(.3 .3)"/><linearGradient x1="15.322" x2="5.99" y1="15.511" y2="14.309" xlink:href="#e" gradientUnits="userSpaceOnUse"/><linearGradient id="j" x1="5.377" x2="10.146" y1="6.71" y2="11.606" xlink:href="#f" gradientUnits="userSpaceOnUse"/><radialGradient id="h" cx="6.001" cy="5.648" r="6.92" xlink:href="#g" fx="6.001" fy="5.648" gradientUnits="userSpaceOnUse" gradientTransform="matrix(1.08 -.018 .018 1.065 -1.769 -1.065)"/><linearGradient id="g"><stop offset="0" stop-color="#ffe3ba"/><stop offset=".5" stop-color="#f9aa36"/><stop offset="1" stop-color="#d37e00"/></linearGradient></defs><g><circle cx="6.457" cy="6.48" r="5.938" fill="url(#h)" color="#000" overflow="visible" enable-background="accumulate"/><path fill="#2e3436" d="M3.3 2c.75-.18-.84 4.34-1.2 4.5C3.87 4.64 6.05 2.77 6.5.94c-1.05.2-2.08.33-3.23 1.05z"/><path fill="#2e3436" d="M8.3 1.77c-.96 1.67-.15 3.74-1.48 5.4.76.4 3.46-4.3 3.88-3.95 1.12.9-1.97-1.9-2.4-1.45z"/><path fill="#2e3436" d="M11.7 3.9C9.84 5.23 9.88 6.66 7.65 9.64 9.1 8.8 10.68 5.83 11.9 7c.2-1.3.3-1.58-.2-3.1z"/><path fill="#2e3436" d="M1.2 8.45C3.25 7.83 4.6 6.2 6.1 4.8 5.3 6.95 4.7 9.13 2.84 11c-.72-.72-1.37-1.5-1.64-2.53z"/><path fill="#2e3436" d="M3.8 10.94c1.4.25 2.38-1.54 3.26-3 .13 1.38.04 2.47-.6 3.62-.9.04-1.77-.14-2.66-.62z"/><path fill="none" stroke="url(#i)" stroke-width="3" d="M14.5 14.5l-3-3" stroke-linecap="round"/><path fill="url(#j)" fill-rule="evenodd" stroke="url(#k)" stroke-width=".5" d="M6.5.28C3.07.28.28 3.08.28 6.5c0 3.43 2.8 6.22 6.22 6.22 3.43 0 6.22-2.8 6.22-6.22 0-3.43-2.8-6.22-6.22-6.22zm0 2c2.33 0 4.22 1.9 4.22 4.22 0 2.33-1.9 4.22-4.22 4.22-2.33 0-4.22-1.9-4.22-4.22 0-2.33 1.9-4.22 4.22-4.22z" color="#000" stroke-linecap="square" overflow="visible"/><path fill="url(#l)" fill-rule="evenodd" d="M11.4 10.07l3.94 3.9c.34 1.05-.27 1.7-1.37 1.37l-3.93-3.9c-.2-1.07.27-1.55 1.37-1.37z" color="#000" overflow="visible"/></g></svg>