<svg xmlns="http://www.w3.org/2000/svg" width="16" height="16"><g><path fill="#eeeeec" fill-rule="evenodd" stroke="#2e3436" d="M.5.5h12v12H.5z" color="#000" overflow="visible" enable-background="accumulate"/><path fill="none" stroke="#2e3436" d="M.47 4.5h12.07"/><path fill="none" stroke="#2e3436" d="M.47 8.5h12.07"/><path fill="none" stroke="#2e3436" d="M5.5.5l2 2.04L5.54 4.5"/><path fill="none" stroke="#2e3436" d="M5.5 4.5l2 2.04L5.54 8.5"/><path fill="none" stroke="#2e3436" d="M5.5 8.5l2 2.04-1.96 1.96"/><path fill="#ef2929" fill-rule="evenodd" d="M1 1v3h4.36l1.5-1.47L5.32 1H1z"/><path fill="#729fcf" fill-rule="evenodd" d="M1 5.02v3h4.35l1.5-1.47L5.3 5.02H1z"/><path fill="#4e9a06" fill-rule="evenodd" d="M1 9v3h4.35l1.5-1.47L5.3 9H1z"/><path fill="#fce94f" fill-rule="evenodd" d="M11.98 1v3h-5.4L8.23 2.5 6.63 1h5.35z"/><path fill="#ad7fa8" fill-rule="evenodd" d="M12 5v3H6.6l1.62-1.46L6.64 5H12z"/><path fill="#8ae234" fill-rule="evenodd" d="M12 9v3H6.56l1.6-1.47L6.63 9H12z"/></g></svg>