<svg xmlns="http://www.w3.org/2000/svg" width="16" height="16" xmlns:xlink="http://www.w3.org/1999/xlink"><defs><linearGradient id="c"><stop offset="0" stop-color="#fff"/><stop offset=".5" stop-color="#fce94f"/><stop offset="1" stop-color="#fce94f"/></linearGradient><linearGradient id="a"><stop offset="0" stop-color="#2e3436"/><stop offset="1"/></linearGradient><linearGradient id="d" x2="16" y2="15" xlink:href="#a" gradientUnits="userSpaceOnUse" gradientTransform="matrix(.813 0 0 1.067 0 -.011)"/><linearGradient id="b"><stop offset="0" stop-color="#414141"/><stop offset=".2" stop-color="#535353"/><stop offset=".5" stop-color="#aeaeae"/><stop offset=".8" stop-color="#535353"/><stop offset="1" stop-color="#a1a1a1"/></linearGradient><linearGradient x1="3" x2="13" y1="1.783" y2="12.1" xlink:href="#b" gradientUnits="userSpaceOnUse" gradientTransform="matrix(.8 0 0 1 .6 -.011)"/><radialGradient id="f" cx="11.694" cy="4.14" r="3.943" xlink:href="#c" fx="11.694" fy="4.14" gradientTransform="matrix(1 0 0 1.017 0 -.07)" gradientUnits="userSpaceOnUse"/><linearGradient id="e" x1="3" x2="13" y1="1.783" y2="12.1" xlink:href="#b" gradientUnits="userSpaceOnUse" gradientTransform="matrix(.698 0 0 1 .906 -.011)"/></defs><g><path fill="url(#d)" fill-rule="evenodd" d="M0 0v16h13V0H0z" color="#000" overflow="visible"/><g fill="#eeeeec" color="#000"><path d="M1 0h.98v1.08H1z" overflow="visible"/><path d="M1 1.9h.98V3H1z" overflow="visible"/><path d="M1.02 4H2v1.08h-.98z" overflow="visible"/><path d="M1.02 6H2v1.08h-.98z" overflow="visible"/><path d="M1.02 8H2v1.08h-.98z" overflow="visible"/><path d="M1 9.9h.98V11H1z" overflow="visible"/><path d="M1 11.9h.98V13H1z" overflow="visible"/><path d="M1.02 14H2v1.08h-.98z" overflow="visible"/></g><g fill="#eeeeec" color="#000"><path d="M11-.1h.98V1H11z" overflow="visible"/><path d="M11 1.82h.98v1.1H11z" overflow="visible"/><path d="M11.02 3.9H12V5h-.98z" overflow="visible"/><path d="M11.02 5.9H12V7h-.98z" overflow="visible"/><path d="M11.02 7.9H12V9h-.98z" overflow="visible"/><path d="M11 9.82h.98v1.1H11z" overflow="visible"/><path d="M11 11.82h.98v1.1H11z" overflow="visible"/><path d="M11.02 13.9H12V15h-.98z" overflow="visible"/></g><path fill="url(#e)" d="M3 0h6.98v4.03H3V0zM3 12h6.98V16H3V12zM3 5h7v6.07H3V5z" color="#000" overflow="visible"/><path fill="none" stroke="#eeeeec" stroke-opacity=".502" d="M3.47 0v3.5H9.5V0"/><path fill="none" stroke="#eeeeec" stroke-opacity=".502" d="M3.5 16.03V12.5h6v3.53"/><path fill="none" stroke="#eeeeec" stroke-opacity=".502" d="M3.5 10.56V5.5h6v5.06h-6z"/><path fill="url(#f)" fill-rule="evenodd" stroke="#a58600" stroke-width=".641" d="M15.32 4.3l-2.1.74.58 2.16-1.9-1.17-1.33 1.8-.26-2.22-2.23.1 1.57-1.6-1.46-1.68 2.22.23.4-2.2 1.2 1.9 2-1.07-.74 2.12 2.06.9z" transform="matrix(1.168 0 0 1.171 -2.407 -.146)" color="#000" overflow="visible"/></g></svg>