<svg xmlns="http://www.w3.org/2000/svg" width="16" height="16"><g color="#000"><path fill="#729fcf" d="M1 1h7v7H1z" overflow="visible" enable-background="accumulate"/><path fill="#4e9a06" d="M4.5 8H8v3.5H4.5z" overflow="visible" enable-background="accumulate"/><path fill="#8ae234" d="M4.5 11.5H8V15H4.5z" overflow="visible" enable-background="accumulate"/><path fill="#73d216" d="M1 8h3.5v3.5H1z" overflow="visible" enable-background="accumulate"/><path fill="#4e9a06" d="M1 11.5h3.5V15H1z" overflow="visible" enable-background="accumulate"/><path fill="#4e9a06" d="M11.5 1H15v3.5h-3.5z" overflow="visible" enable-background="accumulate"/><path fill="#8ae234" d="M11.5 4.5H15V8h-3.5z" overflow="visible" enable-background="accumulate"/><path fill="#73d216" d="M8 1h3.5v3.5H8z" overflow="visible" enable-background="accumulate"/><path fill="#4e9a06" d="M8 4.5h3.5V8H8z" overflow="visible" enable-background="accumulate"/><path fill="#fcaf3e" d="M8 8h2.33v2.33H8z" overflow="visible" enable-background="accumulate"/><path fill="#edd400" d="M10.33 8h2.34v2.33h-2.34z" overflow="visible" enable-background="accumulate"/><path fill="#c4a000" d="M12.67 8H15v2.33h-2.33z" overflow="visible" enable-background="accumulate"/><path fill="#f57900" d="M8 10.34h2.33v2.33H8z" overflow="visible" enable-background="accumulate"/><path fill="#fcaf3e" d="M10.33 10.34h2.34v2.33h-2.34z" overflow="visible" enable-background="accumulate"/><path fill="#fce94f" d="M12.67 10.34H15v2.33h-2.33z" overflow="visible" enable-background="accumulate"/><path fill="#fce94f" d="M8 12.65h2.33v2.33H8z" overflow="visible" enable-background="accumulate"/><path fill="#edd400" d="M10.33 12.65h2.34v2.33h-2.34z" overflow="visible" enable-background="accumulate"/><path fill="#c4a000" d="M12.67 12.65H15v2.33h-2.33z" overflow="visible" enable-background="accumulate"/></g></svg>