<svg xmlns="http://www.w3.org/2000/svg" width="16" height="16"><g fill-rule="evenodd"><path fill="#eeeeec" d="M4 .03h1V15H4z" color="#000" overflow="visible" enable-background="accumulate"/><path fill="#eeeeec" d="M10 0h1v14.97h-1z" color="#000" overflow="visible" enable-background="accumulate"/><path fill="#eeeeec" d="M14.97 4v1H0V4z" color="#000" overflow="visible" enable-background="accumulate"/><path fill="#eeeeec" d="M15 10v1H.03v-1z" color="#000" overflow="visible" enable-background="accumulate"/><path fill="#d3d7cf" stroke="#2e3436" d="M4.5 4.5h6v6h-6z" color="#000" overflow="visible" enable-background="accumulate"/><path d="M0 11h1v-1H0v1zm2 0h1v-1H2v1zm2 0h1v-1H4v1zm2 0h1v-1H6v1zm2 0h1v-1H8v1zm2 0h1v-1h-1v1zm2 0h1v-1h-1v1zm2 0h1v-1h-1v1z"/><path d="M.02 5h1V4h-1v1zm2 0h1V4h-1v1zm2 0h1V4h-1v1zm2 0h1V4h-1v1zm2 0h1V4h-1v1zm2 0h1V4h-1v1zm2 0h1V4h-1v1zm2 0h1V4h-1v1z"/><path d="M4.02.03v1h1v-1h-1zm0 2v1h1v-1h-1zm0 2v1h1v-1h-1zm0 2v1h1v-1h-1zm0 2v1h1v-1h-1zm0 2v1h1v-1h-1zm0 2v1h1v-1h-1zm0 2v1h1v-1h-1z"/><path d="M10 0v1h1V0h-1zm0 2v1h1V2h-1zm0 2v1h1V4h-1zm0 2v1h1V6h-1zm0 2v1h1V8h-1zm0 2v1h1v-1h-1zm0 2v1h1v-1h-1zm0 2v1h1v-1h-1z"/></g></svg>