<svg xmlns="http://www.w3.org/2000/svg" width="16" height="16"><g><path fill="none" stroke="#eeeeec" d="M.5.5h15v15H.5z" color="#000" overflow="visible"/><path fill="#eeeeec" fill-rule="evenodd" stroke="#2e3436" d="M.5 7.5h8v8h-8z" color="#000" overflow="visible"/><path fill="#2e3436" fill-rule="evenodd" d="M2 10h5v4H2z" color="#000" overflow="visible"/><path fill="#729fcf" fill-rule="evenodd" stroke="#204a87" d="M14.14.53l-3.68 3.8-1.28-1.26-.83 4.58 4.77-.46-1.33-1.42 3.7-3.76-1.36-1.5z"/><path fill="#2e3436" fill-rule="evenodd" d="M0 5h1v1H0z" color="#000" overflow="visible"/><path fill="#2e3436" fill-rule="evenodd" d="M0 3h1v1H0z" color="#000" overflow="visible"/><path fill="#2e3436" fill-rule="evenodd" d="M0 1h1v1H0z" color="#000" overflow="visible"/><path fill="#2e3436" fill-rule="evenodd" d="M1 0h1v1H1z" color="#000" overflow="visible"/><path fill="#2e3436" fill-rule="evenodd" d="M3 0h1v1H3z" color="#000" overflow="visible"/><path fill="#2e3436" fill-rule="evenodd" d="M5 0h1v1H5z" color="#000" overflow="visible"/><path fill="#2e3436" fill-rule="evenodd" d="M7 0h1v1H7z" color="#000" overflow="visible"/><path fill="#2e3436" fill-rule="evenodd" d="M9 0h1v1H9z" color="#000" overflow="visible"/><path fill="#2e3436" fill-rule="evenodd" d="M11 0h1v1h-1z" color="#000" overflow="visible"/><path fill="#2e3436" fill-rule="evenodd" d="M15 4h1v1h-1z" color="#000" overflow="visible"/><path fill="#2e3436" fill-rule="evenodd" d="M15 6h1v1h-1z" color="#000" overflow="visible"/><path fill="#2e3436" fill-rule="evenodd" d="M15 8h1v1h-1z" color="#000" overflow="visible"/><path fill="#2e3436" fill-rule="evenodd" d="M15 10h1v1h-1z" color="#000" overflow="visible"/><path fill="#2e3436" fill-rule="evenodd" d="M15 12h1v1h-1z" color="#000" overflow="visible"/><path fill="#2e3436" fill-rule="evenodd" d="M15 14h1v1h-1z" color="#000" overflow="visible"/><path fill="#2e3436" fill-rule="evenodd" d="M14 15h1v1h-1z" color="#000" overflow="visible"/><path fill="#2e3436" fill-rule="evenodd" d="M12 15h1v1h-1z" color="#000" overflow="visible"/><path fill="#2e3436" fill-rule="evenodd" d="M10 15h1v1h-1z" color="#000" overflow="visible"/></g></svg>