<svg xmlns="http://www.w3.org/2000/svg" width="48" height="48" xmlns:xlink="http://www.w3.org/1999/xlink"><defs><linearGradient id="c"><stop offset="0" stop-color="#a40000"/><stop offset="1" stop-color="#ff1717"/></linearGradient><linearGradient id="b"><stop offset="0" stop-color="#ffe69b"/><stop offset="1" stop-color="#fff"/></linearGradient><linearGradient id="a"><stop offset="0"/><stop offset="1" stop-opacity="0"/></linearGradient><radialGradient id="d" cx="23.857" cy="40" r="17.143" xlink:href="#a" gradientUnits="userSpaceOnUse" gradientTransform="matrix(1 0 0 .5 0 20)" fx="23.857" fy="40"/><linearGradient id="f" x1="43.936" x2="20.065" y1="53.836" y2="-8.563" xlink:href="#b" gradientUnits="userSpaceOnUse"/><linearGradient id="e" x1="36.918" x2="19.071" y1="66.288" y2="5.541" xlink:href="#c" gradientUnits="userSpaceOnUse"/></defs><g><path fill="url(#d)" d="M41 40a17.14 8.57 0 1 1-34.3 0A17.14 8.57 0 1 1 41 40z" transform="matrix(1.071 0 0 .525 -.893 22.5)" opacity=".62" color="#000" display="block" overflow="visible"/></g><g><path fill="url(#e)" stroke="#b20000" stroke-width="1.09" d="M46.86 23.93a23.36 23.36 0 1 1-46.72 0 23.36 23.36 0 1 1 46.72 0z" transform="matrix(.918 0 0 .918 2.433 .952)"/><path fill="none" stroke="url(#f)" stroke-width="1.172" d="M49.9 26.64a24 24 0 1 1-47.98 0 24 24 0 1 1 47.98 0z" transform="matrix(.854 0 0 .854 1.884 .178)" opacity=".347"/></g><g><path fill="#efefef" d="M10.08 19.16h27.84v7.18H10.07z"/></g><g><path fill="#fffeff" fill-opacity=".214" d="M43.37 21.72c0 10.83-10.35-6.27-18.67.38-8.13 6.5-20.6 12.2-20.6 1.36C4.1 12.38 12.8 2.1 23.62 2.1c10.84 0 19.75 8.78 19.75 19.62z"/></g></svg>