<svg xmlns="http://www.w3.org/2000/svg" width="48" height="48" xmlns:xlink="http://www.w3.org/1999/xlink"><defs><linearGradient id="a"><stop offset="0"/><stop offset="1" stop-opacity="0"/></linearGradient><radialGradient id="b" cx="17.313" cy="25.531" r="9.688" xlink:href="#a" fx="17.313" fy="25.531" gradientTransform="matrix(1 0 0 .352 0 16.554)" gradientUnits="userSpaceOnUse"/></defs><g><path fill="url(#b)" d="M27 25.53a9.7 3.4 0 1 1-19.38 0 9.7 3.4 0 1 1 19.38 0z" transform="matrix(2.183 0 0 2.183 -13.504 -14.35)" opacity=".409" color="#000" overflow="visible"/><path fill="#f57900" stroke="#914900" stroke-width=".982" d="M46.14 23.43a22 21.2 0 1 1-44.02 0 22 21.2 0 1 1 44.02 0z" transform="matrix(.945 0 0 .98 1.504 -1.557)" stroke-linecap="round" stroke-linejoin="round"/><path fill="none" stroke="#fcaf3e" stroke-width=".982" d="M46.14 23.43a22 21.2 0 1 1-44.02 0 22 21.2 0 1 1 44.02 0z" transform="matrix(.914 0 0 .948 2.381 -.906)" stroke-linecap="round" stroke-linejoin="round"/><path fill="#fff" d="M21.46 10.37c-.12 0-.23.18-.23.4L22.3 25.2c0 .2.1.38.23.38 0 0 .84 0 1.53 0 .23 0 .3.02.5 0 .7 0 1.54 0 1.54 0 .13 0 .24-.17.24-.38l1.06-14.44c0-.2-.1-.36-.23-.36H24.6c-.02 0-.02-.03-.03-.03h-3.1z"/><path fill="#fff" d="M26.66 30.2a2.3 2.3 0 1 1-4.6 0 2.3 2.3 0 1 1 4.6 0z"/><path fill="#fffeff" fill-opacity=".214" d="M43.68 20.48c0 10.83-6.06-4.3-18.68.38C12.28 25.6 4.44 31.3 4.44 20.48S13.24.86 24.06.86c10.83 0 19.62 8.8 19.62 19.62z"/></g></svg>