<svg xmlns="http://www.w3.org/2000/svg" width="48" height="48" xmlns:xlink="http://www.w3.org/1999/xlink"><defs><linearGradient x1="4.191" x2="47.32" y1="11.113" y2="56.052" gradientUnits="userSpaceOnUse"><stop offset="0" stop-color="#D4D4D4"/><stop offset=".398" stop-color="#E2E2E2"/><stop offset="1" stop-color="#fff"/></linearGradient><linearGradient id="a"><stop offset="0"/><stop offset="1" stop-opacity="0"/></linearGradient><radialGradient cx="23.857" cy="40" r="17.143" fy="40" fx="23.857" gradientTransform="matrix(1 0 0 .5 0 20)" gradientUnits="userSpaceOnUse" xlink:href="#a"/><linearGradient x1="8.547" x2="30.851" y1="30.282" y2="48.302" xlink:href="#b" gradientUnits="userSpaceOnUse" gradientTransform="matrix(.899 0 0 .934 1.875 1.194)"/><linearGradient id="b" x1="4.191" x2="47.32" y1="11.113" y2="56.052" gradientUnits="userSpaceOnUse"><stop offset="0" stop-color="#fff"/><stop offset="1" stop-color="#fff" stop-opacity=".34"/></linearGradient><radialGradient id="c" cx="23.857" cy="40" r="17.143" xlink:href="#a" gradientUnits="userSpaceOnUse" gradientTransform="matrix(1 0 0 .5 0 20)" fx="23.857" fy="40"/><linearGradient id="d" x1="8.547" x2="30.851" y1="30.282" y2="48.302" xlink:href="#b" gradientUnits="userSpaceOnUse" gradientTransform="matrix(.899 0 0 .934 1.875 1.194)"/></defs><g><g><g><path fill="url(#c)" d="M41 40a17.14 8.57 0 1 1-34.3 0A17.14 8.57 0 1 1 41 40z" transform="matrix(1.195 0 0 1.195 -4.435 -9.814)" opacity=".62" color="#000" display="block" overflow="visible"/><g stroke="#000" stroke-width=".896"><path fill="none" stroke="none" stroke-width="1.09" d="M50.23 47.7H-2.23V-4.74h52.46V47.7z"/></g><path fill="#c00" stroke="#9f0000" stroke-width="1.001" d="M45.44 38.3l-19-35.38c-.56-1-1.54-1.53-2.63-1.53-1.08 0-2.07.64-2.6 1.63L2.6 38.43c-.42.87-.42 2.07.12 2.94.55.88 1.42 1.3 2.52 1.3h37.58c1.1 0 2.07-.53 2.5-1.4.56-.88.56-1.97.12-2.96z"/><path fill="#eeeeec" d="M7.97 37.77c-.33.55 0 1 .54 1h30.82c.55 0 .88-.45.55-1L24.25 8.27c-.33-.55-.77-.55-1 0L7.98 37.78z"/><g stroke="#000" stroke-width=".896"><path stroke="none" stroke-width="0.97" d="M23.7 35.07c-1.26 0-2.23-.97-2.23-2.23 0-1.36.87-2.24 2.23-2.24 1.36 0 2.14.88 2.23 2.24 0 1.26-.87 2.23-2.23 2.23zm-1.36-5.73l-.58-11.15h3.88l-.58 11.14h-2.8.08z"/></g><path fill="none" stroke="url(#d)" stroke-width=".572" d="M32.32 38.18l-10.17-18.9c-.43-.83-.6-1.1-1.24-1.1-.55 0-.85.4-1.25 1.16l-9.9 18.9c-.58 1.06-.64 1.34-.36 1.8.27.47.63.45 1.96.48h19.6c1.25 0 1.52-.08 1.75-.55.3-.46.17-.83-.38-1.8z" opacity=".5" transform="matrix(1.749 0 0 1.749 -12.739 -29.238)"/></g></g></g></svg>