<svg xmlns="http://www.w3.org/2000/svg" width="48" height="48" xmlns:xlink="http://www.w3.org/1999/xlink"><defs><linearGradient id="h"><stop offset="0"/><stop offset="1" stop-opacity="0"/></linearGradient><linearGradient id="g"><stop offset="0" stop-color="#444542"/><stop offset="1" stop-color="#7f817b"/></linearGradient><linearGradient id="e"><stop offset="0" stop-color="#a40000"/><stop offset="1" stop-color="#690000"/></linearGradient><linearGradient id="c"><stop offset="0"/><stop offset="1" stop-color="#b7b7b7"/></linearGradient><linearGradient id="b"><stop offset="0" stop-color="#747671"/><stop offset="1" stop-color="#1f1f1e"/></linearGradient><linearGradient id="d"><stop offset="0" stop-color="#787b75"/><stop offset="1" stop-color="#3b3c3a"/></linearGradient><linearGradient id="a"><stop offset="0" stop-color="#917c70"/><stop offset="1" stop-color="#5f4317"/></linearGradient><linearGradient id="f"><stop offset="0" stop-opacity=".675"/><stop offset="1" stop-opacity="0"/></linearGradient><radialGradient id="k" cx="22.952" cy="6.051" r="6.118" xlink:href="#a" gradientUnits="userSpaceOnUse" gradientTransform="matrix(1.155 .003 -.007 1.39 -3.468 -2.437)" fx="22.952" fy="6.051"/><radialGradient id="l" cx="22.952" cy="6.051" r="6.118" xlink:href="#a" gradientUnits="userSpaceOnUse" gradientTransform="matrix(1.155 .003 -.007 1.39 -3.468 -2.437)" fx="22.952" fy="6.051"/><linearGradient id="m" x1="19.937" x2="20.433" y1="12.735" y2="29.056" xlink:href="#b" gradientUnits="userSpaceOnUse" gradientTransform="matrix(1.344 0 0 1.34 -14.509 -.852)"/><linearGradient id="n" x1="9.322" x2="14.512" y1="26.351" y2="6.552" xlink:href="#c" gradientUnits="userSpaceOnUse" gradientTransform="matrix(1.413 0 0 1.408 -16.633 -.188)"/><linearGradient id="o" x1="28.571" x2="31.714" y1="17.179" y2="31.107" xlink:href="#d" gradientUnits="userSpaceOnUse" gradientTransform="matrix(1.468 0 0 1.461 -15.918 -4.389)"/><linearGradient id="p" x1="18.365" x2="27.144" y1="27.298" y2="9.084" xlink:href="#c" gradientUnits="userSpaceOnUse" gradientTransform="matrix(1.375 0 0 1.371 -15.62 -.864)"/><linearGradient id="q" x1="22.034" x2="21.282" y1="13.102" y2="22.648" xlink:href="#e" gradientUnits="userSpaceOnUse" gradientTransform="matrix(1.375 0 0 1.371 -15.62 -.864)"/><radialGradient id="r" cx="23.915" cy="13.579" r="2.955" xlink:href="#f" gradientUnits="userSpaceOnUse" gradientTransform="matrix(1 0 0 .368 0 8.588)" fx="23.915" fy="13.579"/><radialGradient id="s" cx="22.619" cy="5.372" r="6.118" xlink:href="#a" gradientUnits="userSpaceOnUse" gradientTransform="matrix(1.384 .017 -.022 1.977 -17.507 -5.358)" fx="22.619" fy="5.372"/><linearGradient id="t" x1="20.706" x2="19.026" y1="21.613" y2="12.319" xlink:href="#g" gradientUnits="userSpaceOnUse" gradientTransform="matrix(1.413 0 0 1.408 -16.633 -.188)"/><linearGradient id="u" x1="21.862" x2="24.758" y1="21.688" y2="13.607" xlink:href="#g" gradientUnits="userSpaceOnUse" gradientTransform="matrix(1.413 0 0 1.408 -16.633 -.188)"/><linearGradient id="v" x1="24.471" x2="26.82" y1="5.523" y2="4.892" xlink:href="#h" gradientUnits="userSpaceOnUse" gradientTransform="matrix(1.413 0 0 1.408 -16.633 -.188)"/><radialGradient id="w" cx="22.952" cy="6.051" r="6.118" xlink:href="#a" gradientUnits="userSpaceOnUse" gradientTransform="matrix(1.155 .003 -.007 1.39 -3.468 -2.437)" fx="22.952" fy="6.051"/><radialGradient id="x" cx="22.952" cy="6.051" r="6.118" xlink:href="#a" gradientUnits="userSpaceOnUse" gradientTransform="matrix(1.155 .003 -.007 1.39 -3.468 -2.437)" fx="22.952" fy="6.051"/><linearGradient id="y" x1="19.937" x2="20.433" y1="12.735" y2="29.056" xlink:href="#b" gradientUnits="userSpaceOnUse" gradientTransform="matrix(1.344 0 0 1.34 -14.509 -.852)"/><linearGradient id="z" x1="9.322" x2="14.512" y1="26.351" y2="6.552" xlink:href="#c" gradientUnits="userSpaceOnUse" gradientTransform="matrix(1.413 0 0 1.408 -16.633 -.188)"/><linearGradient id="A" x1="28.571" x2="31.714" y1="17.179" y2="31.107" xlink:href="#d" gradientUnits="userSpaceOnUse" gradientTransform="matrix(1.468 0 0 1.461 -15.918 -4.389)"/><linearGradient id="B" x1="18.365" x2="27.144" y1="27.298" y2="9.084" xlink:href="#c" gradientUnits="userSpaceOnUse" gradientTransform="matrix(1.375 0 0 1.371 -15.62 -.864)"/><linearGradient id="C" x1="22.034" x2="21.282" y1="13.102" y2="22.648" xlink:href="#e" gradientUnits="userSpaceOnUse" gradientTransform="matrix(1.375 0 0 1.371 -15.62 -.864)"/><radialGradient id="D" cx="23.915" cy="13.579" r="2.955" xlink:href="#f" gradientUnits="userSpaceOnUse" gradientTransform="matrix(1 0 0 .368 0 8.588)" fx="23.915" fy="13.579"/><radialGradient id="E" cx="22.619" cy="5.372" r="6.118" xlink:href="#a" gradientUnits="userSpaceOnUse" gradientTransform="matrix(1.384 .017 -.022 1.977 -17.507 -5.358)" fx="22.619" fy="5.372"/><linearGradient id="F" x1="20.706" x2="19.026" y1="21.613" y2="12.319" xlink:href="#g" gradientUnits="userSpaceOnUse" gradientTransform="matrix(1.413 0 0 1.408 -16.633 -.188)"/><linearGradient id="G" x1="21.862" x2="24.758" y1="21.688" y2="13.607" xlink:href="#g" gradientUnits="userSpaceOnUse" gradientTransform="matrix(1.413 0 0 1.408 -16.633 -.188)"/><linearGradient id="H" x1="24.471" x2="26.82" y1="5.523" y2="4.892" xlink:href="#h" gradientUnits="userSpaceOnUse" gradientTransform="matrix(1.413 0 0 1.408 -16.633 -.188)"/><radialGradient id="I" cx="33.161" cy="46.365" r="28.435" xlink:href="#i" gradientUnits="userSpaceOnUse" gradientTransform="matrix(-1 0 0 1 55.359 0)" fx="33.161" fy="46.365"/><radialGradient id="i" cx="33.161" cy="46.365" r="28.435" fx="33.161" fy="46.365" gradientTransform="matrix(-1 0 0 1 55.359 0)" gradientUnits="userSpaceOnUse"><stop offset="0" stop-color="#fff"/><stop offset=".09" stop-color="#F9FAFA"/><stop offset=".211" stop-color="#E8EBED"/><stop offset=".35" stop-color="#CCD2D7"/><stop offset=".5" stop-color="#A5B0B8"/><stop offset=".579" stop-color="#8E9CA6"/><stop offset="1" stop-color="#505359"/></radialGradient><radialGradient cx="38.921" cy="39.927" r="34.589" xlink:href="#j" gradientUnits="userSpaceOnUse" gradientTransform="matrix(-.288 0 0 .288 48.641 12.808)" fx="38.921" fy="39.927"/><radialGradient id="j" cx="38.921" cy="39.927" r="34.589" fx="38.921" fy="39.927" gradientTransform="matrix(-1 0 0 1 55.359 0)" gradientUnits="userSpaceOnUse"><stop offset="0" stop-color="#fff"/><stop offset="1" stop-color="#8D9BA6"/></radialGradient><radialGradient id="J" cx="38.921" cy="39.927" r="34.589" fy="39.927" fx="38.921" gradientTransform="matrix(-.288 0 0 .288 48.641 12.808)" gradientUnits="userSpaceOnUse" xlink:href="#j"/><radialGradient id="K" cx="33.161" cy="46.365" r="28.435" xlink:href="#i" gradientUnits="userSpaceOnUse" gradientTransform="matrix(-1 0 0 1 55.359 0)" fx="33.161" fy="46.365"/><radialGradient id="L" cx="38.921" cy="39.927" r="34.589" xlink:href="#j" gradientUnits="userSpaceOnUse" gradientTransform="matrix(-.288 0 0 .288 48.641 12.808)" fx="38.921" fy="39.927"/><radialGradient cx="22.952" cy="6.051" r="6.118" xlink:href="#a" gradientUnits="userSpaceOnUse" gradientTransform="matrix(1.155 .003 -.007 1.39 -3.468 -2.437)" fx="22.952" fy="6.051"/><radialGradient cx="22.952" cy="6.051" r="6.118" xlink:href="#a" gradientUnits="userSpaceOnUse" gradientTransform="matrix(1.155 .003 -.007 1.39 -3.468 -2.437)" fx="22.952" fy="6.051"/><linearGradient x1="19.937" x2="20.433" y1="12.735" y2="29.056" xlink:href="#b" gradientUnits="userSpaceOnUse" gradientTransform="matrix(1.344 0 0 1.34 -14.509 -.852)"/><linearGradient x1="9.322" x2="14.512" y1="26.351" y2="6.552" xlink:href="#c" gradientUnits="userSpaceOnUse" gradientTransform="matrix(1.413 0 0 1.408 -16.633 -.188)"/><linearGradient x1="28.571" x2="31.714" y1="17.179" y2="31.107" xlink:href="#d" gradientUnits="userSpaceOnUse" gradientTransform="matrix(1.468 0 0 1.461 -15.918 -4.389)"/><linearGradient x1="18.365" x2="27.144" y1="27.298" y2="9.084" xlink:href="#c" gradientUnits="userSpaceOnUse" gradientTransform="matrix(1.375 0 0 1.371 -15.62 -.864)"/><linearGradient x1="22.034" x2="21.282" y1="13.102" y2="22.648" xlink:href="#e" gradientUnits="userSpaceOnUse" gradientTransform="matrix(1.375 0 0 1.371 -15.62 -.864)"/><radialGradient cx="23.915" cy="13.579" r="2.955" xlink:href="#f" gradientUnits="userSpaceOnUse" gradientTransform="matrix(1 0 0 .368 0 8.588)" fx="23.915" fy="13.579"/><radialGradient cx="22.619" cy="5.372" r="6.118" xlink:href="#a" gradientUnits="userSpaceOnUse" gradientTransform="matrix(1.384 .017 -.022 1.977 -17.507 -5.358)" fx="22.619" fy="5.372"/><linearGradient x1="20.706" x2="19.026" y1="21.613" y2="12.319" xlink:href="#g" gradientUnits="userSpaceOnUse" gradientTransform="matrix(1.413 0 0 1.408 -16.633 -.188)"/><linearGradient x1="21.862" x2="24.758" y1="21.688" y2="13.607" xlink:href="#g" gradientUnits="userSpaceOnUse" gradientTransform="matrix(1.413 0 0 1.408 -16.633 -.188)"/><linearGradient x1="24.471" x2="26.82" y1="5.523" y2="4.892" xlink:href="#h" gradientUnits="userSpaceOnUse" gradientTransform="matrix(1.413 0 0 1.408 -16.633 -.188)"/></defs><g><g><path stroke="#fff" stroke-width="1.32.278" d="M8.3 8.35c-.1 0-.16.03-.23.06l-4.02 1.8c.04 0 .1 0 .14 0-.54.25-1 .78-1.22 1.37L.88 22.23l2.18.5 2-.7.55-1.04.3 3.35 7.78 3.1 2.85-.1 2.38.8 2.8-1.4-3.2-12.8c-.18-1.3-.78-2.26-1.88-2.83l-7.44-2.7c-.27-.07-.6-.1-.88-.07z"/><path fill="url(#k)" stroke="#fff" stroke-width="1.45" d="M30.46 7.06c0 3.6-2.46 6.5-5.48 6.5-3.03 0-5.48-2.9-5.48-6.5 0-3.58 2.45-6.5 5.48-6.5 3.02 0 5.48 2.92 5.48 6.5z" transform="matrix(.363 0 0 .327 -6.475 21.091)" color="#000" stroke-linecap="round" overflow="visible" enable-background="accumulate"/><path d="M3.1 22.93l2.34-8.02.58 5.55-.87 1.7z"/><path fill="url(#l)" stroke="#fff" stroke-width="1.231" d="M30.46 7.06c0 3.6-2.46 6.5-5.48 6.5-3.03 0-5.48-2.9-5.48-6.5 0-3.58 2.45-6.5 5.48-6.5 3.02 0 5.48 2.92 5.48 6.5z" transform="matrix(.428 0 0 .384 8.717 26.198)" color="#000" stroke-linecap="round" overflow="visible" enable-background="accumulate"/><path fill="url(#m)" stroke="url(#n)" stroke-width=".759" d="M1.05 33.52L4.3 17.55c.53-1.48 2.17-2.76 3.5-2.28l13.1 4.38c1.83.54 3.05 2.32 3.5 4.3l4.1 18.76-3.72-1.24L21.4 27.3l-.82 13.25-5.26.87-1.75-3-3.2 1.56-3.23-2.96V24.14L4.68 34.6z" transform="matrix(.658 0 0 .658 .201 .144)"/><path fill="url(#o)" stroke="url(#p)" stroke-width=".759" d="M5.95 15.5l6.08-2.74c.4-.16 1.17-.12 1.7 0l11.3 4.1c1.67.87 2.6 2.33 2.9 4.28l4.83 19.46-4.27 2.04-4.2-18.6c-.4-1.64-1.98-3.5-3.74-4.27L7.8 15.34c-.54-.15-1.38 0-1.85.15z" transform="matrix(.658 0 0 .658 .201 .144)"/><path fill="#eeeeec" d="M8.45 19.02l-.82-8.2 3.12-1.5 4.3 1.5-3.18 1.7-2.1 6.87z"/><path d="M8.94 20.48l-3.06-5.14.72-.38z"/><path fill="url(#q)" d="M14.03 16.9s-1.07.66-1.24 1.22c-.17.54.76 1.26.76 1.26l-1.24 8.16 1 3.33 1.95-2.6-.36-8.73s1.03-.28 1.04-.77c0-.57-.8-1.5-.8-1.5z" transform="matrix(.658 0 0 .658 .201 .144)"/><path fill="url(#r)" d="M26.87 13.58c0 .6-1.32 1.08-2.95 1.08-1.64 0-2.96-.48-2.96-1.08 0-.6 1.32-1.1 2.96-1.1 1.63 0 2.95.5 2.95 1.1z" transform="matrix(1.065 0 0 1.06 -14.13 -3.597)" color="#000" overflow="visible" enable-background="accumulate"/><path fill="url(#s)" stroke="#fff" stroke-width=".759" d="M21.76 7.93c-.58 4.75-2.54 7.56-5.66 7.56s-5.36-4.4-5.65-7.57C10.07 3.78 12.98.38 16.1.38c3.12 0 6.16 3.4 5.66 7.55z" color="#000" stroke-linecap="round" overflow="visible" enable-background="accumulate" transform="matrix(.658 0 0 .658 .201 .144)"/><path d="M7.16 14.23l-1.28-1.38.8-.32z" color="#000" overflow="visible" enable-background="accumulate"/><path fill="url(#t)" d="M11.22 16.44L8.7 18.5l1.62 2.02-1.62 1.53 4.7 8.9z" transform="matrix(.658 0 0 .658 .201 .144)"/><path d="M11.87 12.6l1.8 2.07-1.85 1 1.66 1.63-4.34 3.05z"/><path fill="url(#u)" d="M17.7 18.7l2.5 2.54-2.5 1.33 1.98 2.2-6.28 6.12z" transform="matrix(.658 0 0 .658 .201 .144)"/><path fill="none" stroke="#000" stroke-width=".50094" d="M9.1 20.35l.05 4.98"/><path fill="none" stroke="#888a85" stroke-width=".50094" d="M8.6 20.3l.03 5"/><path fill="url(#v)" d="M17.4 7.16l3.8-.85.06.65-4.57 1.42z" transform="matrix(.658 0 0 .658 .201 .144)"/><path d="M6.9 3.78c.74.07 1.48.16 2.2.66.9-.2 1.98 0 3.12.32 0 0 .06.43-.27.73-.56.53-.77 1.56-1.42 1.55-.72 0-1.36-1.44-1.7-1.54-.2-.06-.4 1.06-.98 1.04-.74-.03-.7-1.75-.94-2.76z"/></g><g><path stroke="#fff" stroke-width="1.32.278" d="M33.75 16.33c-.1 0-.15.03-.22.06l-4.02 1.8c.05-.02.1-.02.15-.03-.54.26-1 .8-1.22 1.38l-2.1 10.66 2.2.52 2-.7.54-1.05.28 3.36 7.8 3.1 2.84-.1 2.37.8 2.8-1.4-3.2-12.8c-.2-1.3-.8-2.26-1.9-2.83l-7.44-2.7c-.26-.07-.6-.1-.88-.07z"/><path fill="url(#w)" stroke="#fff" stroke-width="1.45" d="M30.46 7.06c0 3.6-2.46 6.5-5.48 6.5-3.03 0-5.48-2.9-5.48-6.5 0-3.58 2.45-6.5 5.48-6.5 3.02 0 5.48 2.92 5.48 6.5z" transform="matrix(.363 0 0 .327 18.981 29.072)" color="#000" stroke-linecap="round" overflow="visible" enable-background="accumulate"/><path d="M28.55 30.9l2.34-8 .58 5.53-.88 1.7z"/><path fill="url(#x)" stroke="#fff" stroke-width="1.231" d="M30.46 7.06c0 3.6-2.46 6.5-5.48 6.5-3.03 0-5.48-2.9-5.48-6.5 0-3.58 2.45-6.5 5.48-6.5 3.02 0 5.48 2.92 5.48 6.5z" transform="matrix(.428 0 0 .384 34.173 34.179)" color="#000" stroke-linecap="round" overflow="visible" enable-background="accumulate"/><path fill="url(#y)" stroke="url(#z)" stroke-width=".759" d="M1.05 33.52L4.3 17.55c.53-1.48 2.17-2.76 3.5-2.28l13.1 4.38c1.83.54 3.05 2.32 3.5 4.3l4.1 18.76-3.72-1.24L21.4 27.3l-.82 13.25-5.26.87-1.75-3-3.2 1.56-3.23-2.96V24.14L4.68 34.6z" transform="matrix(.658 0 0 .658 25.657 8.125)"/><path fill="url(#A)" stroke="url(#B)" stroke-width=".759" d="M5.95 15.5l6.08-2.74c.4-.16 1.17-.12 1.7 0l11.3 4.1c1.67.87 2.6 2.33 2.9 4.28l4.83 19.46-4.27 2.04-4.2-18.6c-.4-1.64-1.98-3.5-3.74-4.27L7.8 15.34c-.54-.15-1.38 0-1.85.15z" transform="matrix(.658 0 0 .658 25.657 8.125)"/><path fill="#eeeeec" d="M33.9 27l-.8-8.2 3.1-1.5 4.3 1.5-3.17 1.7-2.1 6.87z"/><path d="M34.4 28.46l-3.06-5.14.7-.38z"/><path fill="url(#C)" d="M14.03 16.9s-1.07.66-1.24 1.22c-.17.54.76 1.26.76 1.26l-1.24 8.16 1 3.33 1.95-2.6-.36-8.73s1.03-.28 1.04-.77c0-.57-.8-1.5-.8-1.5z" transform="matrix(.658 0 0 .658 25.657 8.125)"/><path fill="url(#D)" d="M26.87 13.58c0 .6-1.32 1.08-2.95 1.08-1.64 0-2.96-.48-2.96-1.08 0-.6 1.32-1.1 2.96-1.1 1.63 0 2.95.5 2.95 1.1z" transform="matrix(1.065 0 0 1.06 11.326 4.384)" color="#000" overflow="visible" enable-background="accumulate"/><path fill="url(#E)" stroke="#fff" stroke-width=".759" d="M21.76 7.93c-.58 4.75-2.54 7.56-5.66 7.56s-5.36-4.4-5.65-7.57C10.07 3.78 12.98.38 16.1.38c3.12 0 6.16 3.4 5.66 7.55z" color="#000" stroke-linecap="round" overflow="visible" enable-background="accumulate" transform="matrix(.658 0 0 .658 25.657 8.125)"/><path d="M32.6 22.2l-1.26-1.37.8-.32z" color="#000" overflow="visible" enable-background="accumulate"/><path fill="url(#F)" d="M11.22 16.44L8.7 18.5l1.62 2.02-1.62 1.53 4.7 8.9z" transform="matrix(.658 0 0 .658 25.657 8.125)"/><path d="M37.32 20.58l1.8 2.07-1.84 1 1.65 1.63-4.33 3.05z"/><path fill="url(#G)" d="M17.7 18.7l2.5 2.54-2.5 1.33 1.98 2.2-6.28 6.12z" transform="matrix(.658 0 0 .658 25.657 8.125)"/><path fill="none" stroke="#000" stroke-width=".50094" d="M34.56 28.33l.04 5"/><path fill="none" stroke="#888a85" stroke-width=".50094" d="M34.04 28.28l.05 5"/><path fill="url(#H)" d="M17.4 7.16l3.8-.85.06.65-4.57 1.42z" transform="matrix(.658 0 0 .658 25.657 8.125)"/><path d="M32.37 11.76c.73.07 1.46.16 2.2.66.87-.2 1.97.02 3.1.32 0 0 .06.43-.26.74-.55.53-.77 1.56-1.42 1.55-.7 0-1.36-1.44-1.7-1.54-.2-.08-.4 1.04-.97 1.02-.74-.02-.7-1.75-.93-2.76z"/></g><g transform="matrix(.762 0 0 .761 3.578 21.742)"><circle cx="27.679" cy="54.053" r="19.018" fill="url(#I)" stroke="#192333" stroke-width="4.343" transform="matrix(.302 0 0 .302 32.297 12.035)"/><path fill="url(#J)" d="M40.67 23.05c-2.94 0-5.34 2.4-5.34 5.33 0 2.94 2.4 5.34 5.34 5.34S46 31.32 46 28.38s-2.4-5.33-5.33-5.33zm0 9.92c-2.54 0-4.6-2.06-4.6-4.6 0-2.52 2.06-4.58 4.6-4.58 2.53 0 4.6 2.05 4.6 4.58 0 2.53-2.07 4.6-4.6 4.6z"/></g><g transform="matrix(.762 0 0 .761 -21.777 13.863)"><circle cx="27.679" cy="54.053" r="19.018" fill="url(#K)" stroke="#192333" stroke-width="4.343" transform="matrix(.302 0 0 .302 32.297 12.035)"/><path fill="url(#L)" d="M40.67 23.05c-2.94 0-5.34 2.4-5.34 5.33 0 2.94 2.4 5.34 5.34 5.34S46 31.32 46 28.38s-2.4-5.33-5.33-5.33zm0 9.92c-2.54 0-4.6-2.06-4.6-4.6 0-2.52 2.06-4.58 4.6-4.58 2.53 0 4.6 2.05 4.6 4.58 0 2.53-2.07 4.6-4.6 4.6z"/></g></g></svg>