<svg xmlns="http://www.w3.org/2000/svg" width="48" height="48" xmlns:xlink="http://www.w3.org/1999/xlink"><defs><linearGradient id="k"><stop offset="0"/><stop offset="1" stop-opacity="0"/></linearGradient><linearGradient id="c"><stop offset="0" stop-color="#2c2d2b"/><stop offset="1" stop-color="#4a4c48"/></linearGradient><linearGradient id="j"><stop offset="0" stop-color="#444542"/><stop offset="1" stop-color="#7f817b"/></linearGradient><linearGradient id="a"><stop offset="0" stop-opacity=".581"/><stop offset="1" stop-opacity="0"/></linearGradient><linearGradient id="h"><stop offset="0" stop-color="#a40000"/><stop offset="1" stop-color="#690000"/></linearGradient><linearGradient id="f"><stop offset="0"/><stop offset="1" stop-color="#b7b7b7"/></linearGradient><linearGradient id="b"><stop offset="0"/><stop offset="1" stop-color="#626262"/></linearGradient><linearGradient id="e"><stop offset="0" stop-color="#747671"/><stop offset="1" stop-color="#1f1f1e"/></linearGradient><linearGradient id="g"><stop offset="0" stop-color="#787b75"/><stop offset="1" stop-color="#3b3c3a"/></linearGradient><linearGradient id="d"><stop offset="0" stop-color="#917c70"/><stop offset="1" stop-color="#5f4317"/></linearGradient><linearGradient id="i"><stop offset="0" stop-opacity=".675"/><stop offset="1" stop-opacity="0"/></linearGradient><radialGradient id="ae" cx="23.031" cy="42.949" r="17.923" xlink:href="#a" gradientUnits="userSpaceOnUse" gradientTransform="matrix(1 0 0 .301 0 30.017)" fx="23.031" fy="42.949"/><linearGradient id="af" x1="25.961" x2="28.082" y1="30.423" y2="45.02" xlink:href="#b" gradientUnits="userSpaceOnUse" gradientTransform="matrix(1.168 0 0 1.071 -3.12 -4.042)"/><linearGradient id="ag" x1="21.39" x2="20.875" y1="27.622" y2="43.936" xlink:href="#c" gradientUnits="userSpaceOnUse"/><radialGradient id="ah" cx="22.952" cy="6.051" r="6.118" xlink:href="#d" gradientUnits="userSpaceOnUse" gradientTransform="matrix(1.155 .003 -.007 1.39 -3.468 -2.437)" fx="22.952" fy="6.051"/><radialGradient id="ai" cx="22.952" cy="6.051" r="6.118" xlink:href="#d" gradientUnits="userSpaceOnUse" gradientTransform="matrix(1.155 .003 -.007 1.39 -3.468 -2.437)" fx="22.952" fy="6.051"/><linearGradient id="aj" x1="19.937" x2="20.433" y1="12.735" y2="29.056" xlink:href="#e" gradientUnits="userSpaceOnUse" gradientTransform="matrix(.951 0 0 .952 1.503 -.471)"/><linearGradient id="ak" x1="9.322" x2="14.512" y1="26.351" y2="6.552" xlink:href="#f" gradientUnits="userSpaceOnUse"/><linearGradient id="al" x1="28.571" x2="31.714" y1="17.179" y2="31.107" xlink:href="#g" gradientUnits="userSpaceOnUse" gradientTransform="matrix(1.039 0 0 1.038 .506 -2.984)"/><linearGradient id="am" x1="18.365" x2="27.144" y1="27.298" y2="9.084" xlink:href="#f" gradientUnits="userSpaceOnUse" gradientTransform="matrix(.973 0 0 .974 .717 -.48)"/><linearGradient id="an" x1="22.034" x2="21.282" y1="13.102" y2="22.648" xlink:href="#h" gradientUnits="userSpaceOnUse" gradientTransform="matrix(.973 0 0 .974 .717 -.48)"/><radialGradient id="ao" cx="23.915" cy="13.579" r="2.955" xlink:href="#i" gradientUnits="userSpaceOnUse" gradientTransform="matrix(1 0 0 .368 0 8.588)" fx="23.915" fy="13.579"/><radialGradient id="ap" cx="22.619" cy="5.372" r="6.118" xlink:href="#d" gradientUnits="userSpaceOnUse" gradientTransform="matrix(.979 .012 -.016 1.405 -.619 -3.673)" fx="22.619" fy="5.372"/><linearGradient id="aq" x1="20.706" x2="19.026" y1="21.613" y2="12.319" xlink:href="#j" gradientUnits="userSpaceOnUse"/><linearGradient id="ar" x1="21.862" x2="24.758" y1="21.688" y2="13.607" xlink:href="#j" gradientUnits="userSpaceOnUse"/><linearGradient id="as" x1="24.471" x2="26.82" y1="5.523" y2="4.892" xlink:href="#k" gradientUnits="userSpaceOnUse"/><radialGradient id="A" cx="23.031" cy="42.949" r="17.923" xlink:href="#a" gradientUnits="userSpaceOnUse" gradientTransform="matrix(1 0 0 .301 0 30.017)" fx="23.031" fy="42.949"/><linearGradient id="B" x1="25.961" x2="28.082" y1="30.423" y2="45.02" xlink:href="#b" gradientUnits="userSpaceOnUse" gradientTransform="matrix(1.168 0 0 1.071 -3.12 -4.042)"/><linearGradient id="C" x1="21.39" x2="20.875" y1="27.622" y2="43.936" xlink:href="#c" gradientUnits="userSpaceOnUse"/><radialGradient id="D" cx="22.952" cy="6.051" r="6.118" xlink:href="#d" gradientUnits="userSpaceOnUse" gradientTransform="matrix(1.155 .003 -.007 1.39 -3.468 -2.437)" fx="22.952" fy="6.051"/><radialGradient id="E" cx="22.952" cy="6.051" r="6.118" xlink:href="#d" gradientUnits="userSpaceOnUse" gradientTransform="matrix(1.155 .003 -.007 1.39 -3.468 -2.437)" fx="22.952" fy="6.051"/><linearGradient id="F" x1="19.937" x2="20.433" y1="12.735" y2="29.056" xlink:href="#e" gradientUnits="userSpaceOnUse" gradientTransform="matrix(.951 0 0 .952 1.503 -.471)"/><linearGradient id="G" x1="9.322" x2="14.512" y1="26.351" y2="6.552" xlink:href="#f" gradientUnits="userSpaceOnUse"/><linearGradient id="H" x1="28.571" x2="31.714" y1="17.179" y2="31.107" xlink:href="#g" gradientUnits="userSpaceOnUse" gradientTransform="matrix(1.039 0 0 1.038 .506 -2.984)"/><linearGradient id="I" x1="18.365" x2="27.144" y1="27.298" y2="9.084" xlink:href="#f" gradientUnits="userSpaceOnUse" gradientTransform="matrix(.973 0 0 .974 .717 -.48)"/><linearGradient id="J" x1="22.034" x2="21.282" y1="13.102" y2="22.648" xlink:href="#h" gradientUnits="userSpaceOnUse" gradientTransform="matrix(.973 0 0 .974 .717 -.48)"/><radialGradient id="K" cx="23.915" cy="13.579" r="2.955" xlink:href="#i" gradientUnits="userSpaceOnUse" gradientTransform="matrix(1 0 0 .368 0 8.588)" fx="23.915" fy="13.579"/><radialGradient id="L" cx="22.619" cy="5.372" r="6.118" xlink:href="#d" gradientUnits="userSpaceOnUse" gradientTransform="matrix(.979 .012 -.016 1.405 -.619 -3.673)" fx="22.619" fy="5.372"/><linearGradient id="M" x1="20.706" x2="19.026" y1="21.613" y2="12.319" xlink:href="#j" gradientUnits="userSpaceOnUse"/><linearGradient id="N" x1="21.862" x2="24.758" y1="21.688" y2="13.607" xlink:href="#j" gradientUnits="userSpaceOnUse"/><linearGradient id="O" x1="24.471" x2="26.82" y1="5.523" y2="4.892" xlink:href="#k" gradientUnits="userSpaceOnUse"/><radialGradient id="P" cx="23.031" cy="42.949" r="17.923" xlink:href="#a" gradientUnits="userSpaceOnUse" gradientTransform="matrix(1 0 0 .301 0 30.017)" fx="23.031" fy="42.949"/><linearGradient id="Q" x1="25.961" x2="28.082" y1="30.423" y2="45.02" xlink:href="#b" gradientUnits="userSpaceOnUse" gradientTransform="matrix(1.168 0 0 1.071 -3.12 -4.042)"/><linearGradient id="R" x1="21.39" x2="20.875" y1="27.622" y2="43.936" xlink:href="#c" gradientUnits="userSpaceOnUse"/><radialGradient id="S" cx="22.952" cy="6.051" r="6.118" xlink:href="#d" gradientUnits="userSpaceOnUse" gradientTransform="matrix(1.155 .003 -.007 1.39 -3.468 -2.437)" fx="22.952" fy="6.051"/><radialGradient id="T" cx="22.952" cy="6.051" r="6.118" xlink:href="#d" gradientUnits="userSpaceOnUse" gradientTransform="matrix(1.155 .003 -.007 1.39 -3.468 -2.437)" fx="22.952" fy="6.051"/><linearGradient id="U" x1="19.937" x2="20.433" y1="12.735" y2="29.056" xlink:href="#e" gradientUnits="userSpaceOnUse" gradientTransform="matrix(.951 0 0 .952 1.503 -.471)"/><linearGradient id="V" x1="9.322" x2="14.512" y1="26.351" y2="6.552" xlink:href="#f" gradientUnits="userSpaceOnUse"/><linearGradient id="W" x1="28.571" x2="31.714" y1="17.179" y2="31.107" xlink:href="#g" gradientUnits="userSpaceOnUse" gradientTransform="matrix(1.039 0 0 1.038 .506 -2.984)"/><linearGradient id="X" x1="18.365" x2="27.144" y1="27.298" y2="9.084" xlink:href="#f" gradientUnits="userSpaceOnUse" gradientTransform="matrix(.973 0 0 .974 .717 -.48)"/><linearGradient id="Y" x1="22.034" x2="21.282" y1="13.102" y2="22.648" xlink:href="#h" gradientUnits="userSpaceOnUse" gradientTransform="matrix(.973 0 0 .974 .717 -.48)"/><radialGradient id="Z" cx="23.915" cy="13.579" r="2.955" xlink:href="#i" gradientUnits="userSpaceOnUse" gradientTransform="matrix(1 0 0 .368 0 8.588)" fx="23.915" fy="13.579"/><radialGradient id="aa" cx="22.619" cy="5.372" r="6.118" xlink:href="#d" gradientUnits="userSpaceOnUse" gradientTransform="matrix(.979 .012 -.016 1.405 -.619 -3.673)" fx="22.619" fy="5.372"/><linearGradient id="ab" x1="20.706" x2="19.026" y1="21.613" y2="12.319" xlink:href="#j" gradientUnits="userSpaceOnUse"/><linearGradient id="ac" x1="21.862" x2="24.758" y1="21.688" y2="13.607" xlink:href="#j" gradientUnits="userSpaceOnUse"/><linearGradient id="ad" x1="24.471" x2="26.82" y1="5.523" y2="4.892" xlink:href="#k" gradientUnits="userSpaceOnUse"/><radialGradient id="l" cx="23.031" cy="42.949" r="17.923" xlink:href="#a" gradientUnits="userSpaceOnUse" gradientTransform="matrix(1 0 0 .301 0 30.017)" fx="23.031" fy="42.949"/><linearGradient id="m" x1="25.961" x2="28.082" y1="30.423" y2="45.02" xlink:href="#b" gradientUnits="userSpaceOnUse" gradientTransform="matrix(1.168 0 0 1.071 -3.12 -4.042)"/><linearGradient id="n" x1="21.39" x2="20.875" y1="27.622" y2="43.936" xlink:href="#c" gradientUnits="userSpaceOnUse"/><radialGradient id="o" cx="22.952" cy="6.051" r="6.118" xlink:href="#d" gradientUnits="userSpaceOnUse" gradientTransform="matrix(1.155 .003 -.007 1.39 -3.468 -2.437)" fx="22.952" fy="6.051"/><radialGradient id="p" cx="22.952" cy="6.051" r="6.118" xlink:href="#d" gradientUnits="userSpaceOnUse" gradientTransform="matrix(1.155 .003 -.007 1.39 -3.468 -2.437)" fx="22.952" fy="6.051"/><linearGradient id="q" x1="19.937" x2="20.433" y1="12.735" y2="29.056" xlink:href="#e" gradientUnits="userSpaceOnUse" gradientTransform="matrix(.951 0 0 .952 1.503 -.471)"/><linearGradient id="r" x1="9.322" x2="14.512" y1="26.351" y2="6.552" xlink:href="#f" gradientUnits="userSpaceOnUse"/><linearGradient id="s" x1="28.571" x2="31.714" y1="17.179" y2="31.107" xlink:href="#g" gradientUnits="userSpaceOnUse" gradientTransform="matrix(1.039 0 0 1.038 .506 -2.984)"/><linearGradient id="t" x1="18.365" x2="27.144" y1="27.298" y2="9.084" xlink:href="#f" gradientUnits="userSpaceOnUse" gradientTransform="matrix(.973 0 0 .974 .717 -.48)"/><linearGradient id="u" x1="22.034" x2="21.282" y1="13.102" y2="22.648" xlink:href="#h" gradientUnits="userSpaceOnUse" gradientTransform="matrix(.973 0 0 .974 .717 -.48)"/><radialGradient id="v" cx="23.915" cy="13.579" r="2.955" xlink:href="#i" gradientUnits="userSpaceOnUse" gradientTransform="matrix(1 0 0 .368 0 8.588)" fx="23.915" fy="13.579"/><radialGradient id="w" cx="22.619" cy="5.372" r="6.118" xlink:href="#d" gradientUnits="userSpaceOnUse" gradientTransform="matrix(.979 .012 -.016 1.405 -.619 -3.673)" fx="22.619" fy="5.372"/><linearGradient id="x" x1="20.706" x2="19.026" y1="21.613" y2="12.319" xlink:href="#j" gradientUnits="userSpaceOnUse"/><linearGradient id="y" x1="21.862" x2="24.758" y1="21.688" y2="13.607" xlink:href="#j" gradientUnits="userSpaceOnUse"/><linearGradient id="z" x1="24.471" x2="26.82" y1="5.523" y2="4.892" xlink:href="#k" gradientUnits="userSpaceOnUse"/></defs><g><g><path fill="url(#l)" d="M40.2 42.95c0 2.57-7.68 4.65-17.17 4.65-9.48 0-17.17-2.08-17.17-4.65 0-2.57 7.7-4.65 17.17-4.65 9.5 0 17.17 2.08 17.17 4.65z" transform="matrix(.498 .094 0 .542 17.641 1.172)" color="#000" overflow="visible" enable-background="accumulate"/><path stroke="#fff" stroke-width="1.24.421" d="M27.5 5.55c-.06 0-.1.02-.15.03l-2.68 1.2c.03 0 .07 0 .1 0-.36.17-.67.52-.8.92l-1.4 7.13 1.44.33 1.35-.47.36-.7.2 2.24-2 10.22 2.6.8 1.94-1.23.53-1.8.64 3.55 2.24.66 2.32-1.64L33 18.24l1.57.54 1.87-.94-2.13-8.56c-.12-.86-.52-1.5-1.26-1.9L28.1 5.6c-.2-.04-.42-.06-.6-.03z"/><path fill="url(#m)" d="M27.87 45.96L24.9 28.6l4.14-1.8 2.24 16.62z" transform="matrix(.62 0 0 .62 14.812 -.024)"/><path d="M26.5 27.3l2-1.17 1.75-5.97-1.92.48z"/><path fill="url(#n)" d="M17.96 26.4l-3.24 16.5 4.23 1.24 2.88-10.8L23.96 45l3.9 1.12-1.9-17.37z" transform="matrix(.62 0 0 .62 14.812 -.024)"/><path fill="url(#o)" stroke="#fff" stroke-width="2.173" d="M30.46 7.06c0 3.6-2.46 6.5-5.48 6.5-3.03 0-5.48-2.9-5.48-6.5 0-3.58 2.45-6.5 5.48-6.5 3.02 0 5.48 2.92 5.48 6.5z" transform="matrix(.242 0 0 .219 17.658 14.081)" color="#000" stroke-linecap="round" overflow="visible" enable-background="accumulate"/><path d="M24.04 15.3l1.56-5.37.4 3.7-.6 1.15z"/><path fill="url(#p)" stroke="#fff" stroke-width="1.845" d="M30.46 7.06c0 3.6-2.46 6.5-5.48 6.5-3.03 0-5.48-2.9-5.48-6.5 0-3.58 2.45-6.5 5.48-6.5 3.02 0 5.48 2.92 5.48 6.5z" transform="matrix(.286 0 0 .257 27.79 17.499)" color="#000" stroke-linecap="round" overflow="visible" enable-background="accumulate"/><path fill="url(#q)" stroke="url(#r)" stroke-width=".807" d="M12.52 23.95l2.3-11.35c.37-1.05 1.53-1.96 2.48-1.62l9.26 3.1c1.3.4 2.16 1.66 2.5 3.07l2.88 13.33-2.62-.9-2.4-10.06-.58 9.42-3.72.62-1.24-2.14-2.26 1.12-2.3-2.1v-9.16L15.1 24.7z" transform="matrix(.62 0 0 .62 14.812 -.024)"/><path fill="url(#s)" stroke="url(#t)" stroke-width=".807" d="M16 11.14l4.3-1.94c.28-.1.82-.1 1.2 0l8 2.9c1.17.63 1.83 1.67 2.04 3.05l3.42 13.83-3.02 1.45-2.97-13.2c-.28-1.18-1.4-2.5-2.65-3.05l-9.02-3.15c-.4-.1-.98 0-1.3.1z" transform="matrix(.62 0 0 .62 14.812 -.024)"/><path fill="#eeeeec" d="M27.6 12.7l-.53-5.5 2.08-1 2.87 1-2.12 1.14-1.4 4.6z"/><path d="M27.94 13.67l-2.04-3.44.48-.25z"/><path fill="url(#u)" d="M21.7 12.13s-.76.48-.87.88c-.12.4.54.9.54.9l-.88 5.8.7 2.37 1.38-1.86-.25-6.18s.72-.2.73-.55c0-.4-.57-1.08-.57-1.08z" transform="matrix(.62 0 0 .62 14.812 -.024)"/><path fill="url(#v)" d="M26.87 13.58c0 .6-1.32 1.08-2.95 1.08-1.64 0-2.96-.48-2.96-1.08 0-.6 1.32-1.1 2.96-1.1 1.63 0 2.95.5 2.95 1.1z" transform="matrix(.711 0 0 .709 12.553 -2.445)" color="#000" overflow="visible" enable-background="accumulate"/><path fill="url(#w)" stroke="#fff" stroke-width=".807" d="M27.17 5.77c-.4 3.37-1.8 5.37-4 5.37s-3.8-3.12-4-5.37c-.27-2.95 1.8-5.37 4-5.37s4.36 2.43 4 5.37z" color="#000" stroke-linecap="round" overflow="visible" enable-background="accumulate" transform="matrix(.62 0 0 .62 14.812 -.024)"/><path d="M26.75 9.5l-.85-.94.54-.2z" color="#000" overflow="visible" enable-background="accumulate"/><path fill="url(#x)" d="M19.7 11.82l-1.77 1.46 1.14 1.43-1.14 1.1 3.32 6.32z" transform="matrix(.62 0 0 .62 14.812 -.024)"/><path d="M29.9 8.4l1.2 1.38-1.24.67 1.1 1.1-2.88 2.03z"/><path fill="url(#y)" d="M24.3 13.42l1.77 1.8-1.76.95 1.4 1.57-4.44 4.34z" transform="matrix(.62 0 0 .62 14.812 -.024)"/><path fill="none" stroke="#000" stroke-width=".50034" d="M28.05 13.58l.03 3.34"/><path fill="none" stroke="#888a85" stroke-width=".50034" d="M27.7 13.55l.03 3.34"/><path fill="url(#z)" d="M24.1 5.22l2.67-.6.05.45-3.23 1z" transform="matrix(.62 0 0 .62 14.812 -.024)"/><path d="M26.6 2.5c.48.04.97.1 1.45.44.6-.15 1.32 0 2.07.2 0 0 .04.3-.17.5-.38.36-.52 1.05-.95 1.04-.48 0-.9-.96-1.13-1.03-.15-.04-.27.7-.66.7-.48-.03-.46-1.18-.6-1.86z"/></g><g><path fill="url(#A)" d="M40.2 42.95c0 2.57-7.68 4.65-17.17 4.65-9.48 0-17.17-2.08-17.17-4.65 0-2.57 7.7-4.65 17.17-4.65 9.5 0 17.17 2.08 17.17 4.65z" transform="matrix(.533 .1 0 .58 26.811 12.755)" color="#000" overflow="visible" enable-background="accumulate"/><path stroke="#fff" stroke-width="1.32.262" d="M37.36 17.44c-.06 0-.1.02-.16.04l-2.86 1.3c.02-.02.07-.03.1-.03-.4.2-.72.56-.87 1l-1.5 7.6 1.56.38 1.43-.5.4-.76.2 2.4-2.15 10.94 2.8.86 2.07-1.3.57-1.93.68 3.8 2.38.7 2.48-1.76L43.23 31l1.7.6 2-1-2.3-9.17c-.12-.92-.55-1.6-1.34-2.02L38 17.5c-.2-.05-.44-.07-.64-.04z"/><path fill="url(#B)" d="M27.87 45.96L24.9 28.6l4.14-1.8 2.24 16.62z" transform="matrix(.663 0 0 .663 23.786 11.476)"/><path d="M36.28 40.7l2.14-1.26 1.88-6.38-2.05.5z"/><path fill="url(#C)" d="M17.96 26.4l-3.24 16.5 4.23 1.24 2.88-10.8L23.96 45l3.9 1.12-1.9-17.37z" transform="matrix(.663 0 0 .663 23.786 11.476)"/><path fill="url(#D)" stroke="#fff" stroke-width="2.031" d="M30.46 7.06c0 3.6-2.46 6.5-5.48 6.5-3.03 0-5.48-2.9-5.48-6.5 0-3.58 2.45-6.5 5.48-6.5 3.02 0 5.48 2.92 5.48 6.5z" transform="matrix(.259 0 0 .234 26.83 26.559)" color="#000" stroke-linecap="round" overflow="visible" enable-background="accumulate"/><path d="M33.65 27.86l1.67-5.73.42 3.96-.62 1.2z"/><path fill="url(#E)" stroke="#fff" stroke-width="1.724" d="M30.46 7.06c0 3.6-2.46 6.5-5.48 6.5-3.03 0-5.48-2.9-5.48-6.5 0-3.58 2.45-6.5 5.48-6.5 3.02 0 5.48 2.92 5.48 6.5z" transform="matrix(.306 0 0 .275 37.665 30.214)" color="#000" stroke-linecap="round" overflow="visible" enable-background="accumulate"/><path fill="url(#F)" stroke="url(#G)" stroke-width=".754" d="M12.52 23.95l2.3-11.35c.37-1.05 1.53-1.96 2.48-1.62l9.26 3.1c1.3.4 2.16 1.66 2.5 3.07l2.88 13.33-2.62-.9-2.4-10.06-.58 9.42-3.72.62-1.24-2.14-2.26 1.12-2.3-2.1v-9.16L15.1 24.7z" transform="matrix(.663 0 0 .663 23.786 11.476)"/><path fill="url(#H)" stroke="url(#I)" stroke-width=".754" d="M16 11.14l4.3-1.94c.28-.1.82-.1 1.2 0l8 2.9c1.17.63 1.83 1.67 2.04 3.05l3.42 13.83-3.02 1.45-2.97-13.2c-.28-1.18-1.4-2.5-2.65-3.05l-9.02-3.15c-.4-.1-.98 0-1.3.1z" transform="matrix(.663 0 0 .663 23.786 11.476)"/><path fill="#eeeeec" d="M37.48 25.08l-.6-5.87 2.23-1.06 3.1 1.06-2.28 1.22-1.5 4.92z"/><path d="M37.83 26.12l-2.2-3.68.52-.27z"/><path fill="url(#J)" d="M21.7 12.13s-.76.48-.87.88c-.12.4.54.9.54.9l-.88 5.8.7 2.37 1.38-1.86-.25-6.18s.72-.2.73-.55c0-.4-.57-1.08-.57-1.08z" transform="matrix(.663 0 0 .663 23.786 11.476)"/><path fill="url(#K)" d="M26.87 13.58c0 .6-1.32 1.08-2.95 1.08-1.64 0-2.96-.48-2.96-1.08 0-.6 1.32-1.1 2.96-1.1 1.63 0 2.95.5 2.95 1.1z" transform="matrix(.76 0 0 .758 21.371 8.887)" color="#000" overflow="visible" enable-background="accumulate"/><path fill="url(#L)" stroke="#fff" stroke-width=".754" d="M27.17 5.77c-.4 3.37-1.8 5.37-4 5.37s-3.8-3.12-4-5.37c-.27-2.95 1.8-5.37 4-5.37s4.36 2.43 4 5.37z" color="#000" stroke-linecap="round" overflow="visible" enable-background="accumulate" transform="matrix(.663 0 0 .663 23.786 11.476)"/><path d="M36.55 21.64l-.9-.98.57-.23z" color="#000" overflow="visible" enable-background="accumulate"/><path fill="url(#M)" d="M19.7 11.82l-1.77 1.46 1.14 1.43-1.14 1.1 3.32 6.32z" transform="matrix(.663 0 0 .663 23.786 11.476)"/><path d="M39.9 20.48l1.3 1.48-1.32.72 1.18 1.16-3.1 2.2z"/><path fill="url(#N)" d="M24.3 13.42l1.77 1.8-1.76.95 1.4 1.57-4.44 4.34z" transform="matrix(.663 0 0 .663 23.786 11.476)"/><path fill="none" stroke="#000" stroke-width=".49764" d="M37.94 26.03l.03 3.57"/><path fill="none" stroke="#888a85" stroke-width=".49764" d="M37.57 26l.03 3.56"/><path fill="url(#O)" d="M24.1 5.22l2.67-.6.05.45-3.23 1z" transform="matrix(.663 0 0 .663 23.786 11.476)"/><path d="M36.38 14.17c.52.04 1.04.1 1.57.47.62-.15 1.4 0 2.2.23 0 0 .05.3-.18.52-.4.38-.55 1.1-1 1.1-.52 0-.98-1.02-1.22-1.1-.16-.04-.3.76-.7.74-.53-.02-.5-1.25-.67-1.97z"/></g><g><path fill="url(#P)" d="M40.2 42.95c0 2.57-7.68 4.65-17.17 4.65-9.48 0-17.17-2.08-17.17-4.65 0-2.57 7.7-4.65 17.17-4.65 9.5 0 17.17 2.08 17.17 4.65z" transform="matrix(.531 .1 0 .578 -2.907 1.392)" color="#000" overflow="visible" enable-background="accumulate"/><path stroke="#fff" stroke-width="1.32.273" d="M7.6 6.05c-.07 0-.12.02-.16.04L4.58 7.37c.03 0 .07-.02.1-.02-.38.2-.7.56-.86.98l-1.48 7.6 1.54.36 1.43-.5.4-.75.2 2.4-2.14 10.88 2.77.84 2.07-1.3.56-1.9.68 3.76 2.37.7 2.48-1.74-1.24-9.13 1.7.58 1.97-1-2.26-9.12c-.13-.92-.56-1.6-1.34-2L8.22 6.08c-.2-.05-.43-.07-.62-.05z"/><path fill="url(#Q)" d="M27.87 45.96L24.9 28.6l4.14-1.8 2.24 16.62z" transform="matrix(.66 0 0 .66 -5.919 .119)"/><path d="M6.52 29.2l2.13-1.24 1.87-6.35-2.05.52z"/><path fill="url(#R)" d="M17.96 26.4l-3.24 16.5 4.23 1.24 2.88-10.8L23.96 45l3.9 1.12-1.9-17.37z" transform="matrix(.66 0 0 .66 -5.919 .119)"/><path fill="url(#S)" stroke="#fff" stroke-width="2.04" d="M30.46 7.06c0 3.6-2.46 6.5-5.48 6.5-3.03 0-5.48-2.9-5.48-6.5 0-3.58 2.45-6.5 5.48-6.5 3.02 0 5.48 2.92 5.48 6.5z" transform="matrix(.258 0 0 .233 -2.889 15.134)" color="#000" stroke-linecap="round" overflow="visible" enable-background="accumulate"/><path d="M3.9 16.43l1.67-5.7.4 3.93-.6 1.22z"/><path fill="url(#T)" stroke="#fff" stroke-width="1.732" d="M30.46 7.06c0 3.6-2.46 6.5-5.48 6.5-3.03 0-5.48-2.9-5.48-6.5 0-3.58 2.45-6.5 5.48-6.5 3.02 0 5.48 2.92 5.48 6.5z" transform="matrix(.304 0 0 .274 7.897 18.773)" color="#000" stroke-linecap="round" overflow="visible" enable-background="accumulate"/><path fill="url(#U)" stroke="url(#V)" stroke-width=".758" d="M12.52 23.95l2.3-11.35c.37-1.05 1.53-1.96 2.48-1.62l9.26 3.1c1.3.4 2.16 1.66 2.5 3.07l2.88 13.33-2.62-.9-2.4-10.06-.58 9.42-3.72.62-1.24-2.14-2.26 1.12-2.3-2.1v-9.16L15.1 24.7z" transform="matrix(.66 0 0 .66 -5.919 .119)"/><path fill="url(#W)" stroke="url(#X)" stroke-width=".758" d="M16 11.14l4.3-1.94c.28-.1.82-.1 1.2 0l8 2.9c1.17.63 1.83 1.67 2.04 3.05l3.42 13.83-3.02 1.45-2.97-13.2c-.28-1.18-1.4-2.5-2.65-3.05l-9.02-3.15c-.4-.1-.98 0-1.3.1z" transform="matrix(.66 0 0 .66 -5.919 .119)"/><path fill="#eeeeec" d="M7.7 13.66L7.14 7.8l2.2-1.05L12.4 7.8l-2.26 1.23-1.48 4.9z"/><path d="M8.06 14.7L5.9 11.03l.5-.26z"/><path fill="url(#Y)" d="M21.7 12.13s-.76.48-.87.88c-.12.4.54.9.54.9l-.88 5.8.7 2.37 1.38-1.86-.25-6.18s.72-.2.73-.55c0-.4-.57-1.08-.57-1.08z" transform="matrix(.66 0 0 .66 -5.919 .119)"/><path fill="url(#Z)" d="M26.87 13.58c0 .6-1.32 1.08-2.95 1.08-1.64 0-2.96-.48-2.96-1.08 0-.6 1.32-1.1 2.96-1.1 1.63 0 2.95.5 2.95 1.1z" transform="matrix(.756 0 0 .755 -8.323 -2.458)" color="#000" overflow="visible" enable-background="accumulate"/><path fill="url(#aa)" stroke="#fff" stroke-width=".758" d="M27.17 5.77c-.4 3.37-1.8 5.37-4 5.37s-3.8-3.12-4-5.37c-.27-2.95 1.8-5.37 4-5.37s4.36 2.43 4 5.37z" color="#000" stroke-linecap="round" overflow="visible" enable-background="accumulate" transform="matrix(.66 0 0 .66 -5.919 .119)"/><path d="M6.8 10.24l-.9-.98.56-.22z" color="#000" overflow="visible" enable-background="accumulate"/><path fill="url(#ab)" d="M19.7 11.82l-1.77 1.46 1.14 1.43-1.14 1.1 3.32 6.32z" transform="matrix(.66 0 0 .66 -5.919 .119)"/><path d="M10.13 9.08l1.3 1.48-1.33.7 1.18 1.17L8.2 14.6z"/><path fill="url(#ac)" d="M24.3 13.42l1.77 1.8-1.76.95 1.4 1.57-4.44 4.34z" transform="matrix(.66 0 0 .66 -5.919 .119)"/><path fill="none" stroke="#000" stroke-width=".5002800000000001" d="M8.17 14.6l.03 3.56"/><path fill="none" stroke="#888a85" stroke-width=".5002800000000001" d="M7.8 14.57l.04 3.55"/><path fill="url(#ad)" d="M24.1 5.22l2.67-.6.05.45-3.23 1z" transform="matrix(.66 0 0 .66 -5.919 .119)"/><path d="M6.6 2.8c.54.05 1.06.1 1.58.47.62-.15 1.4 0 2.2.23 0 0 .04.3-.18.52-.4.38-.56 1.1-1.02 1.1-.5 0-.96-1.02-1.2-1.1-.16-.04-.3.76-.7.74-.53 0-.5-1.24-.67-1.96z"/></g><g><path fill="url(#ae)" d="M40.2 42.95c0 2.57-7.68 4.65-17.17 4.65-9.48 0-17.17-2.08-17.17-4.65 0-2.57 7.7-4.65 17.17-4.65 9.5 0 17.17 2.08 17.17 4.65z" transform="matrix(.61 .115 0 .664 5.702 13.011)" color="#000" overflow="visible" enable-background="accumulate"/><path stroke="#fff" stroke-width=".76.977" d="M17.77 18.37c-.07 0-.13.02-.18.04l-3.3 1.5c.04-.02.1-.02.13-.03-.44.2-.83.65-1 1.13l-1.7 8.73 1.77.4 1.64-.57.44-.85.23 2.76-2.44 12.5 3.2.98 2.37-1.5.64-2.2.8 4.34 2.7.8 2.85-2L24.5 33.9l1.93.67 2.28-1.15-2.6-10.48c-.15-1.06-.64-1.84-1.54-2.3L18.5 18.4c-.23-.04-.5-.06-.73-.03z"/><path fill="url(#af)" d="M27.87 45.96L24.9 28.6l4.14-1.8 2.24 16.62z" transform="matrix(.759 0 0 .759 2.239 11.547)"/><path d="M16.54 45L19 43.55l2.14-7.3-2.35.58z"/><path fill="url(#ag)" d="M17.96 26.4l-3.24 16.5 4.23 1.24 2.88-10.8L23.96 45l3.9 1.12-1.9-17.37z" transform="matrix(.759 0 0 .759 2.239 11.547)"/><path fill="url(#ah)" stroke="#fff" stroke-width="1.775" d="M30.46 7.06c0 3.6-2.46 6.5-5.48 6.5-3.03 0-5.48-2.9-5.48-6.5 0-3.58 2.45-6.5 5.48-6.5 3.02 0 5.48 2.92 5.48 6.5z" transform="matrix(.297 0 0 .268 5.724 28.814)" color="#000" stroke-linecap="round" overflow="visible" enable-background="accumulate"/><path d="M13.54 30.3l1.9-6.56.5 4.53-.73 1.4z"/><path fill="url(#ai)" stroke="#fff" stroke-width="1.507" d="M30.46 7.06c0 3.6-2.46 6.5-5.48 6.5-3.03 0-5.48-2.9-5.48-6.5 0-3.58 2.45-6.5 5.48-6.5 3.02 0 5.48 2.92 5.48 6.5z" transform="matrix(.35 0 0 .315 18.127 32.999)" color="#000" stroke-linecap="round" overflow="visible" enable-background="accumulate"/><path fill="url(#aj)" stroke="url(#ak)" stroke-width=".659" d="M12.52 23.95l2.3-11.35c.37-1.05 1.53-1.96 2.48-1.62l9.26 3.1c1.3.4 2.16 1.66 2.5 3.07l2.88 13.33-2.62-.9-2.4-10.06-.58 9.42-3.72.62-1.24-2.14-2.26 1.12-2.3-2.1v-9.16L15.1 24.7z" transform="matrix(.759 0 0 .759 2.239 11.547)"/><path fill="url(#al)" stroke="url(#am)" stroke-width=".659" d="M16 11.14l4.3-1.94c.28-.1.82-.1 1.2 0l8 2.9c1.17.63 1.83 1.67 2.04 3.05l3.42 13.83-3.02 1.45-2.97-13.2c-.28-1.18-1.4-2.5-2.65-3.05l-9.02-3.15c-.4-.1-.98 0-1.3.1z" transform="matrix(.759 0 0 .759 2.239 11.547)"/><path fill="#eeeeec" d="M17.9 27.12l-.66-6.72 2.55-1.23 3.5 1.22-2.6 1.4L19 27.4z"/><path d="M18.3 28.3l-2.5-4.2.6-.3z"/><path fill="url(#an)" d="M21.7 12.13s-.76.48-.87.88c-.12.4.54.9.54.9l-.88 5.8.7 2.37 1.38-1.86-.25-6.18s.72-.2.73-.55c0-.4-.57-1.08-.57-1.08z" transform="matrix(.759 0 0 .759 2.239 11.547)"/><path fill="url(#ao)" d="M26.87 13.58c0 .6-1.32 1.08-2.95 1.08-1.64 0-2.96-.48-2.96-1.08 0-.6 1.32-1.1 2.96-1.1 1.63 0 2.95.5 2.95 1.1z" transform="matrix(.87 0 0 .868 -.526 8.583)" color="#000" overflow="visible" enable-background="accumulate"/><path fill="url(#ap)" stroke="#fff" stroke-width=".659" d="M27.17 5.77c-.4 3.37-1.8 5.37-4 5.37s-3.8-3.12-4-5.37c-.27-2.95 1.8-5.37 4-5.37s4.36 2.43 4 5.37z" color="#000" stroke-linecap="round" overflow="visible" enable-background="accumulate" transform="matrix(.759 0 0 .759 2.239 11.547)"/><path d="M16.85 23.2l-1.04-1.14.67-.26z" color="#000" overflow="visible" enable-background="accumulate"/><path fill="url(#aq)" d="M19.7 11.82l-1.77 1.46 1.14 1.43-1.14 1.1 3.32 6.32z" transform="matrix(.759 0 0 .759 2.239 11.547)"/><path d="M20.7 21.86l1.48 1.7-1.52.8L22 25.72l-3.52 2.5z"/><path fill="url(#ar)" d="M24.3 13.42l1.77 1.8-1.76.95 1.4 1.57-4.44 4.34z" transform="matrix(.759 0 0 .759 2.239 11.547)"/><path fill="none" stroke="#000" stroke-width=".5008400000000001" d="M18.44 28.2l.04 4.1"/><path fill="none" stroke="#888a85" stroke-width=".5008400000000001" d="M18.02 28.17l.04 4.08"/><path fill="url(#as)" d="M24.1 5.22l2.67-.6.05.45-3.23 1z" transform="matrix(.759 0 0 .759 2.239 11.547)"/><path d="M16.65 14.63c.6.05 1.2.13 1.8.54.7-.18 1.6 0 2.53.26 0 0 .05.35-.2.6-.47.44-.64 1.28-1.18 1.28-.58 0-1.1-1.17-1.38-1.25-.18-.06-.33.85-.8.84-.6-.03-.58-1.44-.77-2.27z"/></g></g></svg>