<svg xmlns="http://www.w3.org/2000/svg" width="48" height="48" xmlns:xlink="http://www.w3.org/1999/xlink"><defs><linearGradient id="k"><stop offset="0"/><stop offset="1" stop-opacity="0"/></linearGradient><linearGradient id="c"><stop offset="0" stop-color="#2c2d2b"/><stop offset="1" stop-color="#4a4c48"/></linearGradient><linearGradient id="j"><stop offset="0" stop-color="#444542"/><stop offset="1" stop-color="#7f817b"/></linearGradient><linearGradient id="a"><stop offset="0" stop-opacity=".581"/><stop offset="1" stop-opacity="0"/></linearGradient><linearGradient id="h"><stop offset="0" stop-color="#a40000"/><stop offset="1" stop-color="#690000"/></linearGradient><linearGradient id="f"><stop offset="0"/><stop offset="1" stop-color="#b7b7b7"/></linearGradient><linearGradient id="b"><stop offset="0"/><stop offset="1" stop-color="#626262"/></linearGradient><linearGradient id="e"><stop offset="0" stop-color="#747671"/><stop offset="1" stop-color="#1f1f1e"/></linearGradient><linearGradient id="g"><stop offset="0" stop-color="#787b75"/><stop offset="1" stop-color="#3b3c3a"/></linearGradient><linearGradient id="d"><stop offset="0" stop-color="#917c70"/><stop offset="1" stop-color="#5f4317"/></linearGradient><linearGradient id="i"><stop offset="0" stop-opacity=".675"/><stop offset="1" stop-opacity="0"/></linearGradient><radialGradient id="aG" cx="23.031" cy="42.949" r="17.923" xlink:href="#a" gradientUnits="userSpaceOnUse" gradientTransform="matrix(1 0 0 .301 0 30.017)" fx="23.031" fy="42.949"/><linearGradient id="aH" x1="25.961" x2="28.082" y1="30.423" y2="45.02" xlink:href="#b" gradientUnits="userSpaceOnUse" gradientTransform="matrix(1.168 0 0 1.071 -3.12 -4.042)"/><linearGradient id="aI" x1="21.39" x2="20.875" y1="27.622" y2="43.936" xlink:href="#c" gradientUnits="userSpaceOnUse"/><radialGradient id="aJ" cx="22.952" cy="6.051" r="6.118" xlink:href="#d" gradientUnits="userSpaceOnUse" gradientTransform="matrix(1.155 .003 -.007 1.39 -3.468 -2.437)" fx="22.952" fy="6.051"/><radialGradient id="aK" cx="22.952" cy="6.051" r="6.118" xlink:href="#d" gradientUnits="userSpaceOnUse" gradientTransform="matrix(1.155 .003 -.007 1.39 -3.468 -2.437)" fx="22.952" fy="6.051"/><linearGradient id="aL" x1="19.937" x2="20.433" y1="12.735" y2="29.056" xlink:href="#e" gradientUnits="userSpaceOnUse" gradientTransform="matrix(.951 0 0 .952 1.503 -.471)"/><linearGradient id="aM" x1="9.322" x2="14.512" y1="26.351" y2="6.552" xlink:href="#f" gradientUnits="userSpaceOnUse"/><linearGradient id="aN" x1="28.571" x2="31.714" y1="17.179" y2="31.107" xlink:href="#g" gradientUnits="userSpaceOnUse" gradientTransform="matrix(1.039 0 0 1.038 .506 -2.984)"/><linearGradient id="aO" x1="18.365" x2="27.144" y1="27.298" y2="9.084" xlink:href="#f" gradientUnits="userSpaceOnUse" gradientTransform="matrix(.973 0 0 .974 .717 -.48)"/><linearGradient id="aP" x1="22.034" x2="21.282" y1="13.102" y2="22.648" xlink:href="#h" gradientUnits="userSpaceOnUse" gradientTransform="matrix(.973 0 0 .974 .717 -.48)"/><radialGradient id="aQ" cx="23.915" cy="13.579" r="2.955" xlink:href="#i" gradientUnits="userSpaceOnUse" gradientTransform="matrix(1 0 0 .368 0 8.588)" fx="23.915" fy="13.579"/><radialGradient id="aR" cx="22.619" cy="5.372" r="6.118" xlink:href="#d" gradientUnits="userSpaceOnUse" gradientTransform="matrix(.979 .012 -.016 1.405 -.619 -3.673)" fx="22.619" fy="5.372"/><linearGradient id="aS" x1="20.706" x2="19.026" y1="21.613" y2="12.319" xlink:href="#j" gradientUnits="userSpaceOnUse"/><linearGradient id="aT" x1="21.862" x2="24.758" y1="21.688" y2="13.607" xlink:href="#j" gradientUnits="userSpaceOnUse"/><linearGradient id="aU" x1="24.471" x2="26.82" y1="5.523" y2="4.892" xlink:href="#k" gradientUnits="userSpaceOnUse"/><radialGradient cx="20.836" cy="192.154" r="25.122" gradientUnits="userSpaceOnUse" fy="192.154" fx="20.836"><stop offset="0" stop-opacity=".804"/><stop offset="1" stop-opacity="0"/></radialGradient><linearGradient x1="6.26" x2="15.438" y1="165.928" y2="170.234" gradientUnits="userSpaceOnUse"><stop offset="0" stop-color="#F79899"/><stop offset=".387" stop-color="#F29596"/><stop offset=".809" stop-color="#E28C8C"/><stop offset="1" stop-color="#D88686"/></linearGradient><linearGradient x1="25.98" x2="27.6" y1="195.272" y2="191.762" gradientUnits="userSpaceOnUse"><stop offset="0" stop-color="#F79899"/><stop offset=".387" stop-color="#F29596"/><stop offset=".809" stop-color="#E28C8C"/><stop offset="1" stop-color="#D88686"/></linearGradient><linearGradient x1="30.721" x2="30.361" y1="191.532" y2="189.013" gradientUnits="userSpaceOnUse"><stop offset="0" stop-color="#F79899"/><stop offset=".285" stop-color="#F29596"/><stop offset=".596" stop-color="#E08B8B"/><stop offset=".918" stop-color="#C77B7C"/><stop offset="1" stop-color="#BF7777"/></linearGradient><radialGradient cx="21.108" cy="170.255" r="11.345" gradientUnits="userSpaceOnUse" fy="170.255" fx="21.108"><stop offset=".006" stop-color="#F5CDCD"/><stop offset="1" stop-color="#F4B1B3"/></radialGradient><radialGradient cx="8.127" cy="179.328" r="6.328" gradientUnits="userSpaceOnUse" fy="179.328" fx="8.127"><stop offset=".006" stop-color="#F5CDCD"/><stop offset="1" stop-color="#F4B1B3"/></radialGradient><radialGradient cx="19.875" cy="178.137" r="6.273" gradientUnits="userSpaceOnUse" fy="178.137" fx="19.875"><stop offset="0" stop-color="#fff"/><stop offset="1" stop-color="#F5D9D9"/></radialGradient><radialGradient cx="20.26" cy="172.94" r="6.674" gradientUnits="userSpaceOnUse" fy="172.94" fx="20.26"><stop offset="0" stop-color="#fff"/><stop offset="1" stop-color="#F5D9D9"/></radialGradient><radialGradient cx="21.608" cy="172.17" r="3.835" gradientUnits="userSpaceOnUse" fy="172.17" fx="21.608"><stop offset="0" stop-color="#fff"/><stop offset="1" stop-color="#F5D9D9"/></radialGradient><radialGradient cx="12.774" cy="172.564" r="9.904" gradientUnits="userSpaceOnUse" fy="172.564" fx="12.774"><stop offset="0" stop-color="#fff"/><stop offset="1" stop-color="#F5D9D9"/></radialGradient><radialGradient cx="18.676" cy="170.998" r="12.647" gradientUnits="userSpaceOnUse" fy="170.998" fx="18.676"><stop offset="0" stop-color="#fff"/><stop offset="1" stop-color="#F5D9D9"/></radialGradient><radialGradient cx="20.141" cy="171.534" r="10.533" gradientUnits="userSpaceOnUse" fy="171.534" fx="20.141"><stop offset="0" stop-color="#fff"/><stop offset="1" stop-color="#F5D9D9"/></radialGradient><radialGradient cx="22.811" cy="169.34" r="14.467" gradientUnits="userSpaceOnUse" fy="169.34" fx="22.811"><stop offset="0" stop-color="#fff"/><stop offset="1" stop-color="#F5D9D9"/></radialGradient><radialGradient cx="17.95" cy="175.731" r="12.523" gradientUnits="userSpaceOnUse" fy="175.731" fx="17.95"><stop offset="0" stop-color="#fff"/><stop offset="1" stop-color="#F5D9D9"/></radialGradient><radialGradient id="aV" cx="23.031" cy="42.949" r="17.923" xlink:href="#a" gradientUnits="userSpaceOnUse" gradientTransform="matrix(1 0 0 .301 0 30.017)" fx="23.031" fy="42.949"/><linearGradient id="aW" x1="25.961" x2="28.082" y1="30.423" y2="45.02" xlink:href="#b" gradientUnits="userSpaceOnUse" gradientTransform="matrix(1.168 0 0 1.071 -3.12 -4.042)"/><linearGradient id="aX" x1="21.39" x2="20.875" y1="27.622" y2="43.936" xlink:href="#c" gradientUnits="userSpaceOnUse"/><radialGradient id="aY" cx="22.952" cy="6.051" r="6.118" xlink:href="#d" gradientUnits="userSpaceOnUse" gradientTransform="matrix(1.155 .003 -.007 1.39 -3.468 -2.437)" fx="22.952" fy="6.051"/><radialGradient id="aZ" cx="22.952" cy="6.051" r="6.118" xlink:href="#d" gradientUnits="userSpaceOnUse" gradientTransform="matrix(1.155 .003 -.007 1.39 -3.468 -2.437)" fx="22.952" fy="6.051"/><linearGradient id="ba" x1="19.937" x2="20.433" y1="12.735" y2="29.056" xlink:href="#e" gradientUnits="userSpaceOnUse" gradientTransform="matrix(.951 0 0 .952 1.503 -.471)"/><linearGradient id="bb" x1="9.322" x2="14.512" y1="26.351" y2="6.552" xlink:href="#f" gradientUnits="userSpaceOnUse"/><linearGradient id="bc" x1="28.571" x2="31.714" y1="17.179" y2="31.107" xlink:href="#g" gradientUnits="userSpaceOnUse" gradientTransform="matrix(1.039 0 0 1.038 .506 -2.984)"/><linearGradient id="bd" x1="18.365" x2="27.144" y1="27.298" y2="9.084" xlink:href="#f" gradientUnits="userSpaceOnUse" gradientTransform="matrix(.973 0 0 .974 .717 -.48)"/><linearGradient id="be" x1="22.034" x2="21.282" y1="13.102" y2="22.648" xlink:href="#h" gradientUnits="userSpaceOnUse" gradientTransform="matrix(.973 0 0 .974 .717 -.48)"/><radialGradient id="bf" cx="23.915" cy="13.579" r="2.955" xlink:href="#i" gradientUnits="userSpaceOnUse" gradientTransform="matrix(1 0 0 .368 0 8.588)" fx="23.915" fy="13.579"/><radialGradient id="bg" cx="22.619" cy="5.372" r="6.118" xlink:href="#d" gradientUnits="userSpaceOnUse" gradientTransform="matrix(.979 .012 -.016 1.405 -.619 -3.673)" fx="22.619" fy="5.372"/><linearGradient id="bh" x1="20.706" x2="19.026" y1="21.613" y2="12.319" xlink:href="#j" gradientUnits="userSpaceOnUse"/><linearGradient id="bi" x1="21.862" x2="24.758" y1="21.688" y2="13.607" xlink:href="#j" gradientUnits="userSpaceOnUse"/><linearGradient id="bj" x1="24.471" x2="26.82" y1="5.523" y2="4.892" xlink:href="#k" gradientUnits="userSpaceOnUse"/><radialGradient id="bk" cx="23.031" cy="42.949" r="17.923" xlink:href="#a" gradientUnits="userSpaceOnUse" gradientTransform="matrix(1 0 0 .301 0 30.017)" fx="23.031" fy="42.949"/><linearGradient id="bl" x1="25.961" x2="28.082" y1="30.423" y2="45.02" xlink:href="#b" gradientUnits="userSpaceOnUse" gradientTransform="matrix(1.168 0 0 1.071 -3.12 -4.042)"/><linearGradient id="bm" x1="21.39" x2="20.875" y1="27.622" y2="43.936" xlink:href="#c" gradientUnits="userSpaceOnUse"/><radialGradient id="bn" cx="22.952" cy="6.051" r="6.118" xlink:href="#d" gradientUnits="userSpaceOnUse" gradientTransform="matrix(1.155 .003 -.007 1.39 -3.468 -2.437)" fx="22.952" fy="6.051"/><radialGradient id="bo" cx="22.952" cy="6.051" r="6.118" xlink:href="#d" gradientUnits="userSpaceOnUse" gradientTransform="matrix(1.155 .003 -.007 1.39 -3.468 -2.437)" fx="22.952" fy="6.051"/><linearGradient id="bp" x1="19.937" x2="20.433" y1="12.735" y2="29.056" xlink:href="#e" gradientUnits="userSpaceOnUse" gradientTransform="matrix(.951 0 0 .952 1.503 -.471)"/><linearGradient id="bq" x1="9.322" x2="14.512" y1="26.351" y2="6.552" xlink:href="#f" gradientUnits="userSpaceOnUse"/><linearGradient id="br" x1="28.571" x2="31.714" y1="17.179" y2="31.107" xlink:href="#g" gradientUnits="userSpaceOnUse" gradientTransform="matrix(1.039 0 0 1.038 .506 -2.984)"/><linearGradient id="bs" x1="18.365" x2="27.144" y1="27.298" y2="9.084" xlink:href="#f" gradientUnits="userSpaceOnUse" gradientTransform="matrix(.973 0 0 .974 .717 -.48)"/><linearGradient id="bt" x1="22.034" x2="21.282" y1="13.102" y2="22.648" xlink:href="#h" gradientUnits="userSpaceOnUse" gradientTransform="matrix(.973 0 0 .974 .717 -.48)"/><radialGradient id="bu" cx="23.915" cy="13.579" r="2.955" xlink:href="#i" gradientUnits="userSpaceOnUse" gradientTransform="matrix(1 0 0 .368 0 8.588)" fx="23.915" fy="13.579"/><radialGradient id="bv" cx="22.619" cy="5.372" r="6.118" xlink:href="#d" gradientUnits="userSpaceOnUse" gradientTransform="matrix(.979 .012 -.016 1.405 -.619 -3.673)" fx="22.619" fy="5.372"/><linearGradient id="bw" x1="20.706" x2="19.026" y1="21.613" y2="12.319" xlink:href="#j" gradientUnits="userSpaceOnUse"/><linearGradient id="bx" x1="21.862" x2="24.758" y1="21.688" y2="13.607" xlink:href="#j" gradientUnits="userSpaceOnUse"/><linearGradient id="by" x1="24.471" x2="26.82" y1="5.523" y2="4.892" xlink:href="#k" gradientUnits="userSpaceOnUse"/><radialGradient id="ad" cx="23.031" cy="42.949" r="17.923" xlink:href="#a" gradientUnits="userSpaceOnUse" gradientTransform="matrix(1 0 0 .301 0 30.017)" fx="23.031" fy="42.949"/><linearGradient id="ae" x1="25.961" x2="28.082" y1="30.423" y2="45.02" xlink:href="#b" gradientUnits="userSpaceOnUse" gradientTransform="matrix(1.168 0 0 1.071 -3.12 -4.042)"/><linearGradient id="af" x1="21.39" x2="20.875" y1="27.622" y2="43.936" xlink:href="#c" gradientUnits="userSpaceOnUse"/><radialGradient id="ag" cx="22.952" cy="6.051" r="6.118" xlink:href="#d" gradientUnits="userSpaceOnUse" gradientTransform="matrix(1.155 .003 -.007 1.39 -3.468 -2.437)" fx="22.952" fy="6.051"/><radialGradient id="ah" cx="22.952" cy="6.051" r="6.118" xlink:href="#d" gradientUnits="userSpaceOnUse" gradientTransform="matrix(1.155 .003 -.007 1.39 -3.468 -2.437)" fx="22.952" fy="6.051"/><linearGradient id="ai" x1="19.937" x2="20.433" y1="12.735" y2="29.056" xlink:href="#e" gradientUnits="userSpaceOnUse" gradientTransform="matrix(.951 0 0 .952 1.503 -.471)"/><linearGradient id="aj" x1="9.322" x2="14.512" y1="26.351" y2="6.552" xlink:href="#f" gradientUnits="userSpaceOnUse"/><linearGradient id="ak" x1="28.571" x2="31.714" y1="17.179" y2="31.107" xlink:href="#g" gradientUnits="userSpaceOnUse" gradientTransform="matrix(1.039 0 0 1.038 .506 -2.984)"/><linearGradient id="al" x1="18.365" x2="27.144" y1="27.298" y2="9.084" xlink:href="#f" gradientUnits="userSpaceOnUse" gradientTransform="matrix(.973 0 0 .974 .717 -.48)"/><linearGradient id="am" x1="22.034" x2="21.282" y1="13.102" y2="22.648" xlink:href="#h" gradientUnits="userSpaceOnUse" gradientTransform="matrix(.973 0 0 .974 .717 -.48)"/><radialGradient id="an" cx="23.915" cy="13.579" r="2.955" xlink:href="#i" gradientUnits="userSpaceOnUse" gradientTransform="matrix(1 0 0 .368 0 8.588)" fx="23.915" fy="13.579"/><radialGradient id="ao" cx="22.619" cy="5.372" r="6.118" xlink:href="#d" gradientUnits="userSpaceOnUse" gradientTransform="matrix(.979 .012 -.016 1.405 -.619 -3.673)" fx="22.619" fy="5.372"/><linearGradient id="ap" x1="20.706" x2="19.026" y1="21.613" y2="12.319" xlink:href="#j" gradientUnits="userSpaceOnUse"/><linearGradient id="aq" x1="21.862" x2="24.758" y1="21.688" y2="13.607" xlink:href="#j" gradientUnits="userSpaceOnUse"/><linearGradient id="ar" x1="24.471" x2="26.82" y1="5.523" y2="4.892" xlink:href="#k" gradientUnits="userSpaceOnUse"/><radialGradient id="z" cx="23.031" cy="42.949" r="17.923" xlink:href="#a" gradientUnits="userSpaceOnUse" gradientTransform="matrix(1 0 0 .301 0 30.017)" fx="23.031" fy="42.949"/><linearGradient id="A" x1="25.961" x2="28.082" y1="30.423" y2="45.02" xlink:href="#b" gradientUnits="userSpaceOnUse" gradientTransform="matrix(1.168 0 0 1.071 -3.12 -4.042)"/><linearGradient id="B" x1="21.39" x2="20.875" y1="27.622" y2="43.936" xlink:href="#c" gradientUnits="userSpaceOnUse"/><radialGradient id="C" cx="22.952" cy="6.051" r="6.118" xlink:href="#d" gradientUnits="userSpaceOnUse" gradientTransform="matrix(1.155 .003 -.007 1.39 -3.468 -2.437)" fx="22.952" fy="6.051"/><radialGradient id="D" cx="22.952" cy="6.051" r="6.118" xlink:href="#d" gradientUnits="userSpaceOnUse" gradientTransform="matrix(1.155 .003 -.007 1.39 -3.468 -2.437)" fx="22.952" fy="6.051"/><linearGradient id="E" x1="19.937" x2="20.433" y1="12.735" y2="29.056" xlink:href="#e" gradientUnits="userSpaceOnUse" gradientTransform="matrix(.951 0 0 .952 1.503 -.471)"/><linearGradient id="F" x1="9.322" x2="14.512" y1="26.351" y2="6.552" xlink:href="#f" gradientUnits="userSpaceOnUse"/><linearGradient id="G" x1="28.571" x2="31.714" y1="17.179" y2="31.107" xlink:href="#g" gradientUnits="userSpaceOnUse" gradientTransform="matrix(1.039 0 0 1.038 .506 -2.984)"/><linearGradient id="H" x1="18.365" x2="27.144" y1="27.298" y2="9.084" xlink:href="#f" gradientUnits="userSpaceOnUse" gradientTransform="matrix(.973 0 0 .974 .717 -.48)"/><linearGradient id="I" x1="22.034" x2="21.282" y1="13.102" y2="22.648" xlink:href="#h" gradientUnits="userSpaceOnUse" gradientTransform="matrix(.973 0 0 .974 .717 -.48)"/><radialGradient id="J" cx="23.915" cy="13.579" r="2.955" xlink:href="#i" gradientUnits="userSpaceOnUse" gradientTransform="matrix(1 0 0 .368 0 8.588)" fx="23.915" fy="13.579"/><radialGradient id="K" cx="22.619" cy="5.372" r="6.118" xlink:href="#d" gradientUnits="userSpaceOnUse" gradientTransform="matrix(.979 .012 -.016 1.405 -.619 -3.673)" fx="22.619" fy="5.372"/><linearGradient id="L" x1="20.706" x2="19.026" y1="21.613" y2="12.319" xlink:href="#j" gradientUnits="userSpaceOnUse"/><linearGradient id="M" x1="21.862" x2="24.758" y1="21.688" y2="13.607" xlink:href="#j" gradientUnits="userSpaceOnUse"/><linearGradient id="N" x1="24.471" x2="26.82" y1="5.523" y2="4.892" xlink:href="#k" gradientUnits="userSpaceOnUse"/><radialGradient id="O" cx="23.031" cy="42.949" r="17.923" xlink:href="#a" gradientUnits="userSpaceOnUse" gradientTransform="matrix(1 0 0 .301 0 30.017)" fx="23.031" fy="42.949"/><linearGradient id="P" x1="25.961" x2="28.082" y1="30.423" y2="45.02" xlink:href="#b" gradientUnits="userSpaceOnUse" gradientTransform="matrix(1.168 0 0 1.071 -3.12 -4.042)"/><linearGradient id="Q" x1="21.39" x2="20.875" y1="27.622" y2="43.936" xlink:href="#c" gradientUnits="userSpaceOnUse"/><radialGradient id="R" cx="22.952" cy="6.051" r="6.118" xlink:href="#d" gradientUnits="userSpaceOnUse" gradientTransform="matrix(1.155 .003 -.007 1.39 -3.468 -2.437)" fx="22.952" fy="6.051"/><radialGradient id="S" cx="22.952" cy="6.051" r="6.118" xlink:href="#d" gradientUnits="userSpaceOnUse" gradientTransform="matrix(1.155 .003 -.007 1.39 -3.468 -2.437)" fx="22.952" fy="6.051"/><linearGradient id="T" x1="19.937" x2="20.433" y1="12.735" y2="29.056" xlink:href="#e" gradientUnits="userSpaceOnUse" gradientTransform="matrix(.951 0 0 .952 1.503 -.471)"/><linearGradient id="U" x1="9.322" x2="14.512" y1="26.351" y2="6.552" xlink:href="#f" gradientUnits="userSpaceOnUse"/><linearGradient id="V" x1="28.571" x2="31.714" y1="17.179" y2="31.107" xlink:href="#g" gradientUnits="userSpaceOnUse" gradientTransform="matrix(1.039 0 0 1.038 .506 -2.984)"/><linearGradient id="W" x1="18.365" x2="27.144" y1="27.298" y2="9.084" xlink:href="#f" gradientUnits="userSpaceOnUse" gradientTransform="matrix(.973 0 0 .974 .717 -.48)"/><linearGradient id="X" x1="22.034" x2="21.282" y1="13.102" y2="22.648" xlink:href="#h" gradientUnits="userSpaceOnUse" gradientTransform="matrix(.973 0 0 .974 .717 -.48)"/><radialGradient id="Y" cx="23.915" cy="13.579" r="2.955" xlink:href="#i" gradientUnits="userSpaceOnUse" gradientTransform="matrix(1 0 0 .368 0 8.588)" fx="23.915" fy="13.579"/><radialGradient id="Z" cx="22.619" cy="5.372" r="6.118" xlink:href="#d" gradientUnits="userSpaceOnUse" gradientTransform="matrix(.979 .012 -.016 1.405 -.619 -3.673)" fx="22.619" fy="5.372"/><linearGradient id="aa" x1="20.706" x2="19.026" y1="21.613" y2="12.319" xlink:href="#j" gradientUnits="userSpaceOnUse"/><linearGradient id="ab" x1="21.862" x2="24.758" y1="21.688" y2="13.607" xlink:href="#j" gradientUnits="userSpaceOnUse"/><linearGradient id="ac" x1="24.471" x2="26.82" y1="5.523" y2="4.892" xlink:href="#k" gradientUnits="userSpaceOnUse"/><radialGradient id="as" cx="26.126" cy="32.449" r="22.073" xlink:href="#l" fx="26.126" fy="32.449" gradientTransform="matrix(1 0 0 .62 0 12.318)" gradientUnits="userSpaceOnUse"/><radialGradient id="l" cx="20.836" cy="192.154" r="25.122" gradientUnits="userSpaceOnUse" fy="192.154" fx="20.836"><stop offset="0" stop-opacity=".804"/><stop offset="1" stop-opacity="0"/></radialGradient><linearGradient id="at" x1="6.26" x2="15.438" y1="165.928" y2="170.234" xlink:href="#m" gradientUnits="userSpaceOnUse" gradientTransform="matrix(1.034 0 0 1.034 -2.345 -159.91)"/><linearGradient id="m" x1="6.26" x2="15.438" y1="165.928" y2="170.234" gradientUnits="userSpaceOnUse"><stop offset="0" stop-color="#F79899"/><stop offset=".387" stop-color="#F29596"/><stop offset=".809" stop-color="#E28C8C"/><stop offset="1" stop-color="#D88686"/></linearGradient><linearGradient id="au" x1="25.98" x2="27.6" y1="195.272" y2="191.762" xlink:href="#n" gradientUnits="userSpaceOnUse" gradientTransform="matrix(1.034 0 0 1.034 -2.345 -159.91)"/><linearGradient id="n" x1="25.98" x2="27.6" y1="195.272" y2="191.762" gradientUnits="userSpaceOnUse"><stop offset="0" stop-color="#F79899"/><stop offset=".387" stop-color="#F29596"/><stop offset=".809" stop-color="#E28C8C"/><stop offset="1" stop-color="#D88686"/></linearGradient><linearGradient id="av" x1="30.721" x2="30.361" y1="191.532" y2="189.013" xlink:href="#o" gradientUnits="userSpaceOnUse" gradientTransform="matrix(1.034 0 0 1.034 -2.345 -159.91)"/><linearGradient id="o" x1="30.721" x2="30.361" y1="191.532" y2="189.013" gradientUnits="userSpaceOnUse"><stop offset="0" stop-color="#F79899"/><stop offset=".285" stop-color="#F29596"/><stop offset=".596" stop-color="#E08B8B"/><stop offset=".918" stop-color="#C77B7C"/><stop offset="1" stop-color="#BF7777"/></linearGradient><radialGradient id="aw" cx="21.108" cy="170.255" r="11.345" xlink:href="#p" gradientUnits="userSpaceOnUse" fx="21.108" fy="170.255" gradientTransform="matrix(1.034 0 0 1.034 -2.345 -159.91)"/><radialGradient id="p" cx="21.108" cy="170.255" r="11.345" gradientUnits="userSpaceOnUse" fy="170.255" fx="21.108"><stop offset=".006" stop-color="#F5CDCD"/><stop offset="1" stop-color="#F4B1B3"/></radialGradient><radialGradient id="ax" cx="8.127" cy="179.328" r="6.328" xlink:href="#q" gradientUnits="userSpaceOnUse" fx="8.127" fy="179.328" gradientTransform="matrix(1.034 0 0 1.034 -2.345 -159.91)"/><radialGradient id="q" cx="8.127" cy="179.328" r="6.328" gradientUnits="userSpaceOnUse" fy="179.328" fx="8.127"><stop offset=".006" stop-color="#F5CDCD"/><stop offset="1" stop-color="#F4B1B3"/></radialGradient><radialGradient id="ay" cx="19.875" cy="178.137" r="6.273" xlink:href="#r" gradientUnits="userSpaceOnUse" fx="19.875" fy="178.137" gradientTransform="matrix(1.034 0 0 1.034 -2.345 -159.91)"/><radialGradient id="r" cx="19.875" cy="178.137" r="6.273" gradientUnits="userSpaceOnUse" fy="178.137" fx="19.875"><stop offset="0" stop-color="#fff"/><stop offset="1" stop-color="#F5D9D9"/></radialGradient><radialGradient id="az" cx="20.26" cy="172.94" r="6.674" xlink:href="#s" gradientUnits="userSpaceOnUse" fx="20.26" fy="172.94" gradientTransform="matrix(1.034 0 0 1.034 -2.345 -159.91)"/><radialGradient id="s" cx="20.26" cy="172.94" r="6.674" gradientUnits="userSpaceOnUse" fy="172.94" fx="20.26"><stop offset="0" stop-color="#fff"/><stop offset="1" stop-color="#F5D9D9"/></radialGradient><radialGradient id="aA" cx="21.608" cy="172.17" r="3.835" xlink:href="#t" gradientUnits="userSpaceOnUse" fx="21.608" fy="172.17" gradientTransform="matrix(1.034 0 0 1.034 -2.345 -159.91)"/><radialGradient id="t" cx="21.608" cy="172.17" r="3.835" gradientUnits="userSpaceOnUse" fy="172.17" fx="21.608"><stop offset="0" stop-color="#fff"/><stop offset="1" stop-color="#F5D9D9"/></radialGradient><radialGradient id="aB" cx="12.774" cy="172.564" r="9.904" xlink:href="#u" gradientUnits="userSpaceOnUse" fx="12.774" fy="172.564" gradientTransform="matrix(1.034 0 0 1.034 -2.345 -159.91)"/><radialGradient id="u" cx="12.774" cy="172.564" r="9.904" gradientUnits="userSpaceOnUse" fy="172.564" fx="12.774"><stop offset="0" stop-color="#fff"/><stop offset="1" stop-color="#F5D9D9"/></radialGradient><radialGradient id="aC" cx="18.676" cy="170.998" r="12.647" xlink:href="#v" gradientUnits="userSpaceOnUse" fx="18.676" fy="170.998" gradientTransform="matrix(1.034 0 0 1.034 -2.345 -159.91)"/><radialGradient id="v" cx="18.676" cy="170.998" r="12.647" gradientUnits="userSpaceOnUse" fy="170.998" fx="18.676"><stop offset="0" stop-color="#fff"/><stop offset="1" stop-color="#F5D9D9"/></radialGradient><radialGradient id="aD" cx="20.141" cy="171.534" r="10.533" xlink:href="#w" gradientUnits="userSpaceOnUse" fx="20.141" fy="171.534" gradientTransform="matrix(1.034 0 0 1.034 -2.345 -159.91)"/><radialGradient id="w" cx="20.141" cy="171.534" r="10.533" gradientUnits="userSpaceOnUse" fy="171.534" fx="20.141"><stop offset="0" stop-color="#fff"/><stop offset="1" stop-color="#F5D9D9"/></radialGradient><radialGradient id="aE" cx="22.811" cy="169.34" r="14.467" xlink:href="#x" gradientUnits="userSpaceOnUse" fx="22.811" fy="169.34" gradientTransform="matrix(1.034 0 0 1.034 -2.345 -159.91)"/><radialGradient id="x" cx="22.811" cy="169.34" r="14.467" gradientUnits="userSpaceOnUse" fy="169.34" fx="22.811"><stop offset="0" stop-color="#fff"/><stop offset="1" stop-color="#F5D9D9"/></radialGradient><radialGradient id="aF" cx="17.95" cy="175.731" r="12.523" xlink:href="#y" gradientUnits="userSpaceOnUse" fx="17.95" fy="175.731" gradientTransform="matrix(1.034 0 0 1.034 -2.345 -159.91)"/><radialGradient id="y" cx="17.95" cy="175.731" r="12.523" gradientUnits="userSpaceOnUse" fy="175.731" fx="17.95"><stop offset="0" stop-color="#fff"/><stop offset="1" stop-color="#F5D9D9"/></radialGradient></defs><g><g><path fill="url(#z)" d="M40.2 42.95c0 2.57-7.68 4.65-17.17 4.65-9.48 0-17.17-2.08-17.17-4.65 0-2.57 7.7-4.65 17.17-4.65 9.5 0 17.17 2.08 17.17 4.65z" transform="matrix(.41 .077 0 .446 31.73 .998)" color="#000" overflow="visible" enable-background="accumulate"/><path stroke="#fff" stroke-width="1.02.943" d="M39.84 4.6c-.05 0-.1 0-.12.03l-2.2 1c.02-.02.05-.02.07-.03-.3.15-.56.44-.67.76l-1.15 5.87 1.2.28 1.1-.38.3-.57.14 1.84-1.64 8.4 2.14.65 1.6-1 .43-1.48.53 2.9 1.83.56 1.9-1.35-.95-7.04 1.3.45 1.54-.8-1.76-7.03c-.1-.7-.44-1.24-1.04-1.55l-4.08-1.5c-.14-.03-.33-.04-.48-.02z"/><path fill="url(#A)" d="M27.87 45.96L24.9 28.6l4.14-1.8 2.24 16.62z" transform="matrix(.51 0 0 .51 29.403 .014)"/><path d="M39 22.5l1.66-.98 1.44-4.9-1.57.4z"/><path fill="url(#B)" d="M17.96 26.4l-3.24 16.5 4.23 1.24 2.88-10.8L23.96 45l3.9 1.12-1.9-17.37z" transform="matrix(.51 0 0 .51 29.403 .014)"/><path fill="url(#C)" stroke="#fff" stroke-width="2.641" d="M30.46 7.06c0 3.6-2.46 6.5-5.48 6.5-3.03 0-5.48-2.9-5.48-6.5 0-3.58 2.45-6.5 5.48-6.5 3.02 0 5.48 2.92 5.48 6.5z" transform="matrix(.199 0 0 .18 31.744 11.617)" color="#000" stroke-linecap="round" overflow="visible" enable-background="accumulate"/><path d="M37 12.62l1.28-4.4.32 3.03-.48.94z"/><path fill="url(#D)" stroke="#fff" stroke-width="2.243" d="M30.46 7.06c0 3.6-2.46 6.5-5.48 6.5-3.03 0-5.48-2.9-5.48-6.5 0-3.58 2.45-6.5 5.48-6.5 3.02 0 5.48 2.92 5.48 6.5z" transform="matrix(.235 0 0 .212 40.079 14.428)" color="#000" stroke-linecap="round" overflow="visible" enable-background="accumulate"/><path fill="url(#E)" stroke="url(#F)" stroke-width=".981" d="M12.52 23.95l2.3-11.35c.37-1.05 1.53-1.96 2.48-1.62l9.26 3.1c1.3.4 2.16 1.66 2.5 3.07l2.88 13.33-2.62-.9-2.4-10.06-.58 9.42-3.72.62-1.24-2.14-2.26 1.12-2.3-2.1v-9.16L15.1 24.7z" transform="matrix(.51 0 0 .51 29.403 .014)"/><path fill="url(#G)" stroke="url(#H)" stroke-width=".981" d="M16 11.14l4.3-1.94c.28-.1.82-.1 1.2 0l8 2.9c1.17.63 1.83 1.67 2.04 3.05l3.42 13.83-3.02 1.45-2.97-13.2c-.28-1.18-1.4-2.5-2.65-3.05l-9.02-3.15c-.4-.1-.98 0-1.3.1z" transform="matrix(.51 0 0 .51 29.403 .014)"/><path fill="#eeeeec" d="M39.93 10.48l-.45-4.52 1.7-.82 2.38.82-1.75.94-1.14 3.78z"/><path d="M40.2 11.28l-1.68-2.83.4-.2z"/><path fill="url(#I)" d="M21.7 12.13s-.76.48-.87.88c-.12.4.54.9.54.9l-.88 5.8.7 2.37 1.38-1.86-.25-6.18s.72-.2.73-.55c0-.4-.57-1.08-.57-1.08z" transform="matrix(.51 0 0 .51 29.403 .014)"/><path fill="url(#J)" d="M26.87 13.58c0 .6-1.32 1.08-2.95 1.08-1.64 0-2.96-.48-2.96-1.08 0-.6 1.32-1.1 2.96-1.1 1.63 0 2.95.5 2.95 1.1z" transform="matrix(.584 0 0 .583 27.545 -1.978)" color="#000" overflow="visible" enable-background="accumulate"/><path fill="url(#K)" stroke="#fff" stroke-width=".981" d="M27.17 5.77c-.4 3.37-1.8 5.37-4 5.37s-3.8-3.12-4-5.37c-.27-2.95 1.8-5.37 4-5.37s4.36 2.43 4 5.37z" color="#000" stroke-linecap="round" overflow="visible" enable-background="accumulate" transform="matrix(.51 0 0 .51 29.403 .014)"/><path d="M39.22 7.84l-.7-.76.45-.18z" color="#000" overflow="visible" enable-background="accumulate"/><path fill="url(#L)" d="M19.7 11.82l-1.77 1.46 1.14 1.43-1.14 1.1 3.32 6.32z" transform="matrix(.51 0 0 .51 29.403 .014)"/><path d="M41.8 6.94l1 1.14-1.02.55.9.9-2.37 1.68z"/><path fill="url(#M)" d="M24.3 13.42l1.77 1.8-1.76.95 1.4 1.57-4.44 4.34z" transform="matrix(.51 0 0 .51 29.403 .014)"/><path fill="none" stroke="#000" stroke-width=".50031" d="M40.3 11.2l.02 2.75"/><path fill="none" stroke="#888a85" stroke-width=".50031" d="M40 11.18l.03 2.75"/><path fill="url(#N)" d="M24.1 5.22l2.67-.6.05.45-3.23 1z" transform="matrix(.51 0 0 .51 29.403 .014)"/><path d="M39.1 2.08c.4.04.8.1 1.2.37.48-.12 1.08 0 1.7.17 0 0 .03.24-.14.4-.3.3-.43.87-.8.87-.38 0-.73-.8-.92-.86-.12-.04-.22.57-.54.56-.4 0-.4-.96-.5-1.52z"/></g><g><path fill="url(#O)" d="M40.2 42.95c0 2.57-7.68 4.65-17.17 4.65-9.48 0-17.17-2.08-17.17-4.65 0-2.57 7.7-4.65 17.17-4.65 9.5 0 17.17 2.08 17.17 4.65z" transform="matrix(.41 .077 0 .446 -2.413 .998)" color="#000" overflow="visible" enable-background="accumulate"/><path stroke="#fff" stroke-width="1.02.943" d="M5.7 4.6c-.05 0-.1 0-.13.03l-2.2 1c.02-.02.06-.02.08-.03-.3.15-.55.44-.67.76l-1.14 5.87 1.2.28 1.1-.38.28-.57.16 1.84-1.64 8.4 2.14.65 1.6-1 .43-1.48.53 2.9 1.83.56 1.9-1.35-.95-7.04 1.3.45 1.55-.8-1.75-7.03c-.1-.7-.44-1.24-1.04-1.55l-4.08-1.5c-.15-.03-.33-.04-.48-.02z"/><path fill="url(#P)" d="M27.87 45.96L24.9 28.6l4.14-1.8 2.24 16.62z" transform="matrix(.51 0 0 .51 -4.74 .014)"/><path d="M4.87 22.5l1.64-.98 1.46-4.9-1.58.4z"/><path fill="url(#Q)" d="M17.96 26.4l-3.24 16.5 4.23 1.24 2.88-10.8L23.96 45l3.9 1.12-1.9-17.37z" transform="matrix(.51 0 0 .51 -4.74 .014)"/><path fill="url(#R)" stroke="#fff" stroke-width="2.641" d="M30.46 7.06c0 3.6-2.46 6.5-5.48 6.5-3.03 0-5.48-2.9-5.48-6.5 0-3.58 2.45-6.5 5.48-6.5 3.02 0 5.48 2.92 5.48 6.5z" transform="matrix(.199 0 0 .18 -2.399 11.617)" color="#000" stroke-linecap="round" overflow="visible" enable-background="accumulate"/><path d="M2.85 12.62l1.3-4.4.3 3.03-.47.94z"/><path fill="url(#S)" stroke="#fff" stroke-width="2.243" d="M30.46 7.06c0 3.6-2.46 6.5-5.48 6.5-3.03 0-5.48-2.9-5.48-6.5 0-3.58 2.45-6.5 5.48-6.5 3.02 0 5.48 2.92 5.48 6.5z" transform="matrix(.235 0 0 .212 5.936 14.428)" color="#000" stroke-linecap="round" overflow="visible" enable-background="accumulate"/><path fill="url(#T)" stroke="url(#U)" stroke-width=".981" d="M12.52 23.95l2.3-11.35c.37-1.05 1.53-1.96 2.48-1.62l9.26 3.1c1.3.4 2.16 1.66 2.5 3.07l2.88 13.33-2.62-.9-2.4-10.06-.58 9.42-3.72.62-1.24-2.14-2.26 1.12-2.3-2.1v-9.16L15.1 24.7z" transform="matrix(.51 0 0 .51 -4.74 .014)"/><path fill="url(#V)" stroke="url(#W)" stroke-width=".981" d="M16 11.14l4.3-1.94c.28-.1.82-.1 1.2 0l8 2.9c1.17.63 1.83 1.67 2.04 3.05l3.42 13.83-3.02 1.45-2.97-13.2c-.28-1.18-1.4-2.5-2.65-3.05l-9.02-3.15c-.4-.1-.98 0-1.3.1z" transform="matrix(.51 0 0 .51 -4.74 .014)"/><path fill="#eeeeec" d="M5.8 10.48l-.46-4.52 1.7-.82 2.38.82-1.75.94-1.15 3.78z"/><path d="M6.06 11.28L4.38 8.45l.4-.2z"/><path fill="url(#X)" d="M21.7 12.13s-.76.48-.87.88c-.12.4.54.9.54.9l-.88 5.8.7 2.37 1.38-1.86-.25-6.18s.72-.2.73-.55c0-.4-.57-1.08-.57-1.08z" transform="matrix(.51 0 0 .51 -4.74 .014)"/><path fill="url(#Y)" d="M26.87 13.58c0 .6-1.32 1.08-2.95 1.08-1.64 0-2.96-.48-2.96-1.08 0-.6 1.32-1.1 2.96-1.1 1.63 0 2.95.5 2.95 1.1z" transform="matrix(.584 0 0 .583 -6.598 -1.978)" color="#000" overflow="visible" enable-background="accumulate"/><path fill="url(#Z)" stroke="#fff" stroke-width=".981" d="M27.17 5.77c-.4 3.37-1.8 5.37-4 5.37s-3.8-3.12-4-5.37c-.27-2.95 1.8-5.37 4-5.37s4.36 2.43 4 5.37z" color="#000" stroke-linecap="round" overflow="visible" enable-background="accumulate" transform="matrix(.51 0 0 .51 -4.74 .014)"/><path d="M5.08 7.84l-.7-.76.44-.18z" color="#000" overflow="visible" enable-background="accumulate"/><path fill="url(#aa)" d="M19.7 11.82l-1.77 1.46 1.14 1.43-1.14 1.1 3.32 6.32z" transform="matrix(.51 0 0 .51 -4.74 .014)"/><path d="M7.66 6.94l1 1.14-1.02.55.9.9-2.37 1.68z"/><path fill="url(#ab)" d="M24.3 13.42l1.77 1.8-1.76.95 1.4 1.57-4.44 4.34z" transform="matrix(.51 0 0 .51 -4.74 .014)"/><path fill="none" stroke="#000" stroke-width=".50031" d="M6.15 11.2l.02 2.75"/><path fill="none" stroke="#888a85" stroke-width=".50031" d="M5.86 11.18l.03 2.75"/><path fill="url(#ac)" d="M24.1 5.22l2.67-.6.05.45-3.23 1z" transform="matrix(.51 0 0 .51 -4.74 .014)"/><path d="M4.95 2.08c.4.04.8.1 1.2.37.48-.12 1.08 0 1.7.17 0 0 .04.24-.14.4-.3.3-.4.87-.77.87-.4 0-.75-.8-.93-.86-.12-.04-.22.57-.54.56-.4 0-.4-.96-.5-1.52z"/></g><g><path fill="url(#ad)" d="M40.2 42.95c0 2.57-7.68 4.65-17.17 4.65-9.48 0-17.17-2.08-17.17-4.65 0-2.57 7.7-4.65 17.17-4.65 9.5 0 17.17 2.08 17.17 4.65z" transform="matrix(.41 .077 0 .446 14.154 .998)" color="#000" overflow="visible" enable-background="accumulate"/><path stroke="#fff" stroke-width="1.02.943" d="M22.26 4.6c-.04 0-.08 0-.12.03l-2.2 1c.02-.02.05-.02.08-.03-.3.15-.56.44-.67.76l-1.15 5.87 1.2.28 1.1-.38.3-.57.15 1.84-1.65 8.4 2.14.65 1.6-1 .43-1.48.53 2.9 1.83.56 1.9-1.35-.95-7.04 1.3.45 1.53-.8-1.74-7.03c-.1-.7-.43-1.24-1.04-1.55l-4.07-1.5c-.15-.03-.34-.04-.5-.02z"/><path fill="url(#ae)" d="M27.87 45.96L24.9 28.6l4.14-1.8 2.24 16.62z" transform="matrix(.51 0 0 .51 11.827 .014)"/><path d="M21.44 22.5l1.64-.98 1.45-4.9-1.58.4z"/><path fill="url(#af)" d="M17.96 26.4l-3.24 16.5 4.23 1.24 2.88-10.8L23.96 45l3.9 1.12-1.9-17.37z" transform="matrix(.51 0 0 .51 11.827 .014)"/><path fill="url(#ag)" stroke="#fff" stroke-width="2.641" d="M30.46 7.06c0 3.6-2.46 6.5-5.48 6.5-3.03 0-5.48-2.9-5.48-6.5 0-3.58 2.45-6.5 5.48-6.5 3.02 0 5.48 2.92 5.48 6.5z" transform="matrix(.199 0 0 .18 14.168 11.617)" color="#000" stroke-linecap="round" overflow="visible" enable-background="accumulate"/><path d="M19.42 12.62l1.28-4.4.32 3.03-.48.94z"/><path fill="url(#ah)" stroke="#fff" stroke-width="2.243" d="M30.46 7.06c0 3.6-2.46 6.5-5.48 6.5-3.03 0-5.48-2.9-5.48-6.5 0-3.58 2.45-6.5 5.48-6.5 3.02 0 5.48 2.92 5.48 6.5z" transform="matrix(.235 0 0 .212 22.503 14.428)" color="#000" stroke-linecap="round" overflow="visible" enable-background="accumulate"/><path fill="url(#ai)" stroke="url(#aj)" stroke-width=".981" d="M12.52 23.95l2.3-11.35c.37-1.05 1.53-1.96 2.48-1.62l9.26 3.1c1.3.4 2.16 1.66 2.5 3.07l2.88 13.33-2.62-.9-2.4-10.06-.58 9.42-3.72.62-1.24-2.14-2.26 1.12-2.3-2.1v-9.16L15.1 24.7z" transform="matrix(.51 0 0 .51 11.827 .014)"/><path fill="url(#ak)" stroke="url(#al)" stroke-width=".981" d="M16 11.14l4.3-1.94c.28-.1.82-.1 1.2 0l8 2.9c1.17.63 1.83 1.67 2.04 3.05l3.42 13.83-3.02 1.45-2.97-13.2c-.28-1.18-1.4-2.5-2.65-3.05l-9.02-3.15c-.4-.1-.98 0-1.3.1z" transform="matrix(.51 0 0 .51 11.827 .014)"/><path fill="#eeeeec" d="M22.36 10.48l-.45-4.52 1.72-.82 2.36.82-1.74.94-1.15 3.78z"/><path d="M22.63 11.28l-1.68-2.83.4-.2z"/><path fill="url(#am)" d="M21.7 12.13s-.76.48-.87.88c-.12.4.54.9.54.9l-.88 5.8.7 2.37 1.38-1.86-.25-6.18s.72-.2.73-.55c0-.4-.57-1.08-.57-1.08z" transform="matrix(.51 0 0 .51 11.827 .014)"/><path fill="url(#an)" d="M26.87 13.58c0 .6-1.32 1.08-2.95 1.08-1.64 0-2.96-.48-2.96-1.08 0-.6 1.32-1.1 2.96-1.1 1.63 0 2.95.5 2.95 1.1z" transform="matrix(.584 0 0 .583 9.969 -1.978)" color="#000" overflow="visible" enable-background="accumulate"/><path fill="url(#ao)" stroke="#fff" stroke-width=".981" d="M27.17 5.77c-.4 3.37-1.8 5.37-4 5.37s-3.8-3.12-4-5.37c-.27-2.95 1.8-5.37 4-5.37s4.36 2.43 4 5.37z" color="#000" stroke-linecap="round" overflow="visible" enable-background="accumulate" transform="matrix(.51 0 0 .51 11.827 .014)"/><path d="M21.65 7.84l-.7-.76.44-.18z" color="#000" overflow="visible" enable-background="accumulate"/><path fill="url(#ap)" d="M19.7 11.82l-1.77 1.46 1.14 1.43-1.14 1.1 3.32 6.32z" transform="matrix(.51 0 0 .51 11.827 .014)"/><path d="M24.23 6.94l1 1.14-1.02.55.9.9-2.36 1.68z"/><path fill="url(#aq)" d="M24.3 13.42l1.77 1.8-1.76.95 1.4 1.57-4.44 4.34z" transform="matrix(.51 0 0 .51 11.827 .014)"/><path fill="none" stroke="#000" stroke-width=".50031" d="M22.72 11.2l.02 2.75"/><path fill="none" stroke="#888a85" stroke-width=".50031" d="M22.43 11.18l.03 2.75"/><path fill="url(#ar)" d="M24.1 5.22l2.67-.6.05.45-3.23 1z" transform="matrix(.51 0 0 .51 11.827 .014)"/><path d="M21.5 2.08c.4.04.82.1 1.22.37.48-.12 1.08 0 1.7.17 0 0 .04.24-.14.4-.3.3-.43.87-.78.87-.4 0-.75-.8-.93-.86-.12-.04-.23.57-.54.56-.4 0-.4-.96-.52-1.52z"/></g><g><path fill="url(#as)" d="M7.9 30.22c-.83.08-1.7 1.14-2.12 1.8-.18.27-.54.6-.63.9-.14.44.1.85.14 1.28-1.26.35-1.5 2.18-1 3.23.18.4.27.54.4.93.16.53.34.94.7 1.4.38.48.6.55 1.14.8.74.3.98.9 1.57 1.37 1.06.8 2.9 1 4.2.86.5-.07 1.18-.52 1.65-.46.8.1.36.82.66 1.3.36.54 1.45.8 2.02 1 .48.2.97.35 1.44.55.5.2.98.57 1.5.67.96.18 2.12.06 3.1.06 1.25 0 2.98.46 4.13.02.75-.3 1.34-.7 2.2-.83.83-.13 1.4.08 2.2.22 1.8.3 3.25-.42 4.8-1.1.95-.4 1.84-.88 2.8-1.3 1.12-.46 2.32-.78 3.28-1.6.7-.6 1.64-1.47 2.12-2.27.62-1.03 1.45-2 1.83-3.16.46-1.42 1.2-2.6 1.27-4.16.04-.82-.04-1.3.37-1.98.52-.9.7-1.75.35-2.8-.4-1.2-1.4-2.23-2.38-2.95-.68-.48-1.55-.7-2.33-1.04-.87-.36-1.3-.8-2.04-1.33-.76-.55-1.64-.53-2.53-.68-1.2-.2-2.33-.78-3.52-1.06-3.23-.78-6.48-1.23-9.82-1.13-1.5.04-2.88.07-4.27.7-1.43.62-2.84 1.34-4.28 1.98-1.76.77-2.47 1.72-3.67 3.07-.73.83-1.52 1.58-2.24 2.45-.68.85-2.65 1.86-2.8 3.05" transform="matrix(.782 0 0 .782 4.789 7.269)"/><path fill="#f79899" stroke="#f57e80" stroke-width=".49842000000000003" d="M20.96 13.24c.7-.44 1.6-.44 1.74-.6.15-.17.92-1.17 1.15-1.35.22-.2 1.12-.1 1.4-.26.3-.17.42-.63.67-.7.25-.05 1.33.2 1.8.1.45-.07.24-.24.5-.3.24-.06 2.2.1 2.58.17.4.1 1.02.4 1.23.4.2 0 .58 0 .96.1.36.1 2.85 1.34 3.27 1.57.4.22 1.43 1.35 1.83 1.8.45.15 1.35.56 1.6.7.25.15 1.22 1.17 1.37 1.52.14.35.08.8.25 1.1.16.3.27.5.3.76.05.25.05 1.3.15 1.52.1.23.3.66.3 1.37 0 .7-.23 1.77-.34 2.33-.1.56-.58 1.5-.58 1.7 0 .2-.06.5-.2.66-.1.17-.15-.02-.28.46-.12.48-.56 1.1-.58 1.25-.03.14-.05.35-.13.45-.1.1-.4.1-.4.3 0 .18.3.4.33.53.05.15.1.38.07.52-.05.15-.63 1.06-.92 1.54-.3.47-1.04 1.36-1.08 1.57-.04.2.1.3.1.62 0 .3.03 1.18-.08 1.45-.1.27-2.02 2.36-2.4 2.47-.37.1-2.43-.3-2.82-.2-.4.07-1.85.5-2.37.88-.5.38-1.36.88-1.7.92-.37.04-1 0-1.2-.07-.37-.08-.56-.24-1-.64-.47-.38-.95-.82-1.1-.92-.18-.1-.47-.8-.78-.9-.3-.1-1.46-.43-1.77-.56-.3-.12-.54-.3-.54-.3-.96.15-2.18.17-2.87.08-.68-.1-1.7-.78-1.86-.75-.16.02-.75-.07-1.76-.38-1-.3-1.88-.66-2.2-1.2-.34-.54-.38-1.16-.4-1.35-.03-.18-.22-.63-.08-1.7.05-.3-.2-.65-.2-1.07 0-.43-.08-1.28.34-2.67 1.06-3.48 1.7-3.88 1.72-4.24.03-.35-.04-.65.64-2.6.68-1.92 1.22-1.5 1.53-1.96.3-.48.82-1.5 1.37-2.1.54-.6 1.15-.7 1.43-1 .28-.32.5-.7 1-1.04z"/><path fill="url(#at)" stroke="#f57e80" stroke-width=".639" d="M11.5 33.17c-.1-.1-.18-.2-.24-.3-.42-.7-.48-1.48-.5-1.72-.04-.24-.3-.8-.1-2.2.06-.36-.25-.8-.25-1.36 0-.55-.1-1.64.44-3.4 1.35-4.47 2.17-4.98 2.2-5.43.02-.45-.07-.84.8-3.3.88-2.48 1.57-1.94 1.97-2.54.4-.6 1.06-1.9 1.75-2.68.7-.8 1.48-.9 1.84-1.3.35-.4.6-.9 1.28-1.32.88-.56 2.04-.55 2.23-.77.2-.2 1.18-1.48 1.47-1.72.3-.24 1.44-.1 1.8-.32.38-.2.54-.8.86-.88.32-.08 1.7.24 2.28.13h-.03c-.5-.04-.83-.13-1.05-.35-.25-.24-.16-.4-2.44-.86-2.27-.46-4.9-.75-8.38.57-3.47 1.33-3.5 1.86-3.88 2.07-.37.2-3.1 1.6-3.76 2.23-.66.62-1 .78-1.2 1.07-.2.3-.32.75-.7 1-.37.24-2.47 2.3-3.13 3.34-.67 1.03-.87 1.57-1.16 2.02-.3.46-1.36 1.65-1.94 2.73-.58 1.06-1.16 2.6-1.16 3 0 .4.54 1.32.54 1.57s-.7.8-.73 1.12c-.04.32.08 1.22.16 1.93.08.7.04 1.15.2 1.48.17.34.63.5.7.8.1.3.34 1 .75 1.36.42.37.8.5 1.2.9.4.42 1.2 1.12 1.78 1.3.57.15 1.48 0 1.85.24.4.24 1.67 1.52 2.3 1.73.6.2 1.92-.12 2.3-.16z" transform="matrix(.782 0 0 .782 4.789 7.269)"/><path fill="#f57e80" stroke="#cb696b" stroke-width=".49842000000000003" d="M27.5 38.56c-.37-.1-.56-.25-1.02-.65-.45-.38-.93-.82-1.1-.92-.16-.1-.45-.8-.76-.9-.26-.08-1.1-.33-1.55-.48"/><path fill="url(#au)" stroke="#994f51" stroke-width=".639" d="M23.37 36.23c.18.62.97 1.83 1.88 2.5.9.68.4 1.07.6 1.3.17.24.3.36.84.45.55.08.9.5 1.4.5.5 0 .8-.24.86-.56.06-.33.08-.4.08-.4" transform="matrix(.782 0 0 .782 4.789 7.269)"/><path fill="none" stroke="#d96f71" stroke-width=".49842000000000003" d="M22.3 35.2c.63-.08 1.27-.22 1.93-.33.67-.12 2.3-.05 3.95-.82.73-.34 1.5-1.37 3.24-2.23.65-.32 2.42-1.8 3.07-2.1.64-.3 2.07-1.1 2.4-1.36.35-.25.78-1.1 1.14-1.55.35-.45 2.45-1.3 2.6-1.34.18-.03.13.3.13.57"/><path fill="none" stroke="#d96f71" stroke-width=".49842000000000003" d="M31.93 10.7c.22.1.74.38 1.44.86.7.5 1.88 1.6 2 1.73.1.12 1.05 2.2 1.5 2.9.46.7 2.03 3.3 2.13 3.56.1.27.3 1.04.32 1.37.03.34-.12 1.92-.2 2.23-.1.32-.5 1.46-.64 1.8-.13.37-.43 1.4-.58 1.64"/><path fill="#f57e80" d="M24.42 28.3c-.36-.18-1.63-2.84-2.48-3.62-.85-.8-1.5-1.57-3.83-1.97-2.32-.4-2.37-.35-2.68-.54-.32-.18-.44-.2-.45-.1-.02.1-.12.3-.2.35-.04.2.16.06.5.1.33.03 1.18.48 1.73.58.55.1 2.4.4 2.9.7.47.3 2.02 1.33 2.45 1.9.44.56.8 1.43.95 1.67.15.25.57.85.77.92.2.06.58.15.35.03z"/><path fill="#e47678" d="M18.2 18.4c.36-.28 3.53-.66 4.38.3.84.95 1.43 2.94 2 3.96.56 1.02.9 1.94 1.62 2.82.72.9 1.3 1.63 1.28 2.15-.02.52-.78 2.56-.82 2.82-.05.26-.46.5-.6.4-.12-.12-1.98-1.1-2.53-1.1-.54 0-2.3.16-2.7-.06-.38-.23-1.6-.92-1.92-1.35-.3-.44-.3-1.1-1.27-1-.97.1-2.7.43-3.03.58-.33.16-.53-.15-.24-.3.28-.15 2.5-.4 2.82-.56.32-.18 1.17-.24 1.3-.1.13.16.4 1.05.7 1.3.34.27 1.08.75 1.8.9.75.15 2.08.1 2.5.15.4.07 2.2.98 2.48.96.3-.02 1.28-2.13 1.2-2.63-.1-.5-1.46-2.2-2.1-3.34-1.22-2.22-1.92-4.43-2.2-4.76-.28-.32-.54-.95-1.7-1.06-1.18-.1-2.44.04-2.8.22-.34.17-.4-.1-.16-.3z"/><path fill="#e47678" d="M22.36 12.75c.52.04 1.24.46 1.66.66.42.2 1.12.63 1.46.97.35.35.24.53.07.74-.17.22-.26.68-.58.94-.32.25-1.32.9-1.64 1.33-.3.43-.58 1.23-.97 1.16.17.07.37.37.37.37 0-.33.47-.96.75-1.15.28-.18 1-1.03 1.16-1.23.17-.2.63-.5.7-.64.07-.16.24-.65.5-.9.3-.23.33-.32-.12-.7-.45-.36-1.04-.85-1.37-.94-.33-.1-.92-.4-1.2-.58-.28-.17-.24-.3-.22-.4-.1.18-.27.42-.57.4z"/><path fill="#e47678" d="M16.98 17.57c.5-.24 1-.5 1.27-.57.28-.08 1.16-.36 1.37-.5.22-.17.8-.44 1.03-.45.24 0 .85.3 1.15.3.3-.02.52-.3.33-.3-.18 0-.28.1-.6.03-.34-.08-.67-.18-.53-.22.13-.04.64-.23.74-.35.1-.1.52-.47.52-.6-.2.2-.42.44-.6.52-.16.07-.9.25-1.1.35-.17.1-1.04.64-1.28.7-.24.04-1 .34-1.2.42-.2.07-.48.35-.54.26-.07-.1-.04-.35-.04-.35-.12.28-.52.77-.52.77z"/><path fill="#e47678" d="M13.13 29.73c.15.25.3.54.5.62.2.07 1.77.7 2.35.8.58.06 1.8.34 1.97.46.16.14.97 1.16.9 1.25-.06.1-.34-.16-.5-.34-.2-.16-.38-.5-.68-.63-.3-.13-2.24-.52-2.78-.75-.56-.22-1.36-.6-1.46-.67-.1-.08-.34-.65-.34-.36 0-.18.03-.37.03-.37z"/><path fill="#f57e80" d="M26.56 18.74c-.1-.1-.26-.2-.56-.04-.3.14-.26.46-.16.6.1.16 1.3 2.54 1.3 3.03 0 .5-.48 1.7-.73 2.06-.24.34-.08.56-.07.6 0 .04.32-.58.44-.72.12-.13.64-1.14.64-1.32 0-.17-.1-1.02-.2-1.3-.08-.28-.95-1.88-1-2.26-.06-.37 0-.4.1-.4.07 0 .27-.06.27-.12 0-.05 0-.14 0-.14z"/><path fill="#e47678" d="M27.98 22.12c.25-.4.9-1.7.93-1.82.05-.12.18-1.73.33-1.84.15-.13.43.05.76.24.33.18 1.36.7 1.6.76.27.06 1.54.44 1.76.5.23.07.4.38.5.5.08.15.63 1.2.7 1.35.1.16.2.45.05.56-.15.1-.33.32-.47.37-.15.06-.55.57-.87.55-.32 0-.86 0-1.15-.32-.3-.3-.9-.28-.9-.52s-.1-.33-.2-.3c-.07.02-.38.42-.2.6.2.17 1.05.52 1.32.7.27.16.25.3.24.4 0 .1.15.34.3.18.14-.16.14-.28.05-.43-.08-.16-.37-.16-.33-.25.05-.1.46.1.74.1.3 0 .5-.3.68-.35.17-.07.65-.1.86-.37.2-.25.34-.4.3-.6-.04-.23-.48-1.03-.84-1.56-.36-.54-.6-.67-.6-.9 0-.2.05-.53-.14-.8-.18-.24-.2-.4-.18-.55.02-.15.06-.44-.02-.53-.08-.1-.3-.12-.32-.03-.02.1.02.5.1.64.1.15.38.67.38.94 0 .27.06.4-.05.4-.1 0-.77-.24-1.23-.42-.45-.17-1.74-.7-1.98-.8-.24-.1-.6-.23-.6-.47 0-.24.38-.88.76-1.13.4-.26.47-1.03.47-1.4 0-.38-.25-.86-.85-1.24-.6-.37-2-1.28-2.45-1.57-.44-.3-.64-.4-.75-.54-.1-.14-.2-.3-.4-.26-.2.04.05.3.2.4.15.1 1.94 1.3 2.45 1.63.5.34 1.28.83 1.34 1.26.05.42.08 1.04-.22 1.4-.3.36-.83.93-.94 1.33-.1.4-.4 1.53-.6 2.14-.2.62-.73 1.76-.7 1.93.05.17.1.24.2.12z"/><path fill="#e47678" d="M25.28 11.03c.2-.07.53-.05.77 0 .24.07 1.16.42 1.4.46.23.03 1.04.23 1.16.16.13-.07.13.14-.15.2-.27.03-.8-.14-1.15-.23-.36-.1-1.23-.46-1.47-.46s-.64-.08-.8-.06c.1-.02.25-.07.25-.07z"/><path fill="#e47678" d="M27.7 10.47c.22 0 1.2.32 1.42.4.22.1 1.28.65 1.6.9.3.23 1.2 1.48 1.4 1.67.22.2.52.64.7.57.17-.06.08-.1-.05-.3-.14-.2-1.02-1.13-1.3-1.43-.26-.3-.56-.63-.85-.8-.3-.16-1.4-.62-1.6-.73-.23-.1-1.17-.32-1.17-.32l-.15.05z"/><path fill="#e47678" d="M33.8 16.83c.07-.04.28.34.43.45.14.12.74.68.97.88.24.2.4.55.48.7.08.15.27.93.28 1.14.02.2.13 1.98.18 2.26.04.27.04.55.1.75.1.22.3.45.32 1.04 0 .58.15 1.16.1 2.05-.04.88-.13 1.6-.17 1.9-.06.26-.06.44.03.44.1 0 .18.07.32-.03-.23.14-.44.3-.6.37-.02-.16.12-.42.12-.65 0-.23.03-1.2.07-1.77.05-.56.1-1.94 0-2.07-.08-.13-.04-.4-.07-.6-.03-.23-.4-.65-.38-.85 0-.2-.13-1.4-.2-1.97-.07-.6-.1-1.8-.33-2-.22-.18-.88-1.1-1.13-1.27-.24-.18-.46-.45-.5-.58-.05-.13-.1-.14-.04-.2z"/><path fill="#e47678" d="M29.4 23.94c.12-.06.18.08.13.2-.04.1-.13.12-.2.2-.07.07-.14.3-.07.46.07.14.27.67.5.86.07.16.23.56.48.72.16.1.2.52.38.5.18-.03.75-.4.95-.5.2-.12.73-.33.96-.4.22-.07.5-.3.74-.33.24-.03.55-.16.7-.26.16-.1.14.07 0 .14s-.7.25-.88.38c-.2.13-.6.33-.75.42-.16.08-.52.07-1.07.4-.55.36-.66.6-.8.83-.12.22-.47.7-.55 1.1-.08.42-.04.62.07.72.1.1.24.5.33.62.1.12.34.18.4.1.08-.06.18.1.13.18-.05.08-.1.07-.28 0-.16-.08-.4-.1-.5-.37-.1-.27-.33-.55-.38-.7-.05-.16-.08-.5 0-.67.1-.18.68-1.05.75-1.22.07-.17-.03-.35-.2-.55-.14-.2-.34-.6-.5-.76-.16-.16-.35-.47-.47-.66-.1-.2-.2-.44-.2-.7-.02-.26-.1-.44.04-.5.14-.1.18.05.22-.06.05-.1.06-.18.06-.18z"/><path fill="#f57e80" d="M32.44 28.92c.17-.08.4.1.4.15 0 .05-.17-.06-.2.08-.04.14-.13.3.1.44.22.13.17.1.28.28.1.17.03.1-.18-.02-.2-.1-.5-.15-.53-.37-.02-.23-.08-.48.14-.58z"/><path fill="#f57e80" d="M34.83 27.97c.1-.1.04-.23-.1-.3-.16-.1-.2-.16-.1-.2.1-.03.25.05.3 0 .04-.04-.37-.18-.6-.16-.2.03-.33-.13-.33-.05 0 .07.27.22.37.34.1.1.36.47.46.37z"/><path fill="#d96f71" d="M20.84 33.1c.2-.03.78.73 1.1.83.34.1.58.45.92.6.35.15 1.38.25 1.6.26-.23.07-.8.17-.8.17-.6-.18-1.44-.44-1.7-.63-.24-.18-.6-.7-.82-.8-.23-.1-.53-.1-.48-.34.07-.1.08-.08.18-.1z"/><path fill="#e47678" d="M26.22 31.2c.2-.1.23.2.1.3-.15.12-.4.24-.6.8-.22.56-.25 1.04-.04 1.08.2.03.52.23.5.33 0 .12-.26-.1-.48-.16-.23-.07-.5-.4-.42-.7.08-.3.43-.93.7-1.2.26-.25.12-.36.24-.43z"/><path fill="#d96f71" d="M30.57 32.26c-.26.05-1.1.23-1.45.07-.35-.15-1.05-.47-1.05-.4 0 .07.67.5.8.52.1.02.83.13.88.18.05.05.02.24.02.24.26-.22.8-.6.8-.6z"/><path fill="#d96f71" d="M12.9 29c-.16.26-.4.66-.65.64-.24 0-.45-.15-.64-.16-.18-.02-1.26.03-1.53-.02s-1.85-.43-2.2-.58c-.32-.14-1.2-.23-1.17-.4.04-.2.2-.1.4-.05.23.07.9.4 1.17.45.27.07 1.34.34 1.68.34.35 0 1.48 0 1.65.02.17.03.53.12.62.02.1-.1.54-.38.6-.62.04-.24.1-.32.1-.32-.02.3 0 .68 0 .68z"/><path fill="#e47678" d="M5.6 24.88c.2-.27.56-.54.78-.6.22-.07.72-.18.88 0 .17.18.35.66.47.8.1.16.4.1.5.2.06.07.67.8.67.94 0 .13-.12.4-.04.47.08.06.28-.07.32-.16.04-.1.07-.43 0-.52-.04-.1-.6-.92-.72-.94-.13-.03-.42-.03-.63-.26-.2-.23-.54-.86-.7-.86-.15 0-.4.1-.6.2-.22.07-.72.16-.77.15-.05 0-.43-.2-.52-.34.14.2.35.92.35.92z"/><path fill="#e47678" d="M6.17 21.97c.2-.2.44-.6.7-.73.25-.12.78-.65 1.02-.6.22.06.64.55 1.2.6.53.06 2 .06 2.35.17.35.12 1.92 0 2.33-.16.42-.16.57.33.75.35.1 0-.25.23-.58.23-.33 0-.95-.28-1.26-.24-.32.03-1.9-.17-2.2-.17-.28 0-1.6.05-2.16-.2-.56-.26-.8-.15-1.15.05-.35.2-.8.75-1.06.96-.26.22-.48.4-.48.28 0-.1.3-.35.5-.55z"/><path fill="#d96f71" d="M16.33 18c-.3-.3-1.3-.9-1.5-1.65-.2-.75-.46-1.17-.37-1.66.1-.5-.13-.36-.27-.34-.16.02-.73.16-.98.1-.25-.04-.4 0-.25.1.14.1.7.1.9.04.23-.06.26.05.28.34.02.3-.07 1.24.24 1.48.3.23.53.84.93 1.02.4.18.73.62.73.7 0 .1-.07.35-.07.4.2-.37.33-.54.33-.54z"/><path fill="#cb686a" d="M16.42 13.7c.02-.14.2-.25.28-.2.07.02.05.33.2.44.14.1.78.68.98.84.2.16.5.47.62.42.1-.06.06.07.06.07-.1.1-.33.4-.33.4-.1-.3-.5-.47-.6-.6-.1-.13-.3-.44-.6-.65-.3-.22-.62-.55-.6-.73z"/><path fill="#cb686a" d="M21.5 12.98c-.12-.02-.6-.2-.92-.46-.33-.25-.77-.47-1.17-.47-.4 0-1.94-.08-2.3.03-.37.1-.53.22-.64.35-.1.13.35-.15.6-.18.26-.04 1.62-.07 2.04-.02.42.05 1 .1 1.37.44.36.32.5.57.5.57.17-.2.52-.26.52-.26z"/><path fill="#d96f71" d="M12.3 14.5c.05.04-.43.63-.37.8.05.2.5.75.74.92.26.16.4.53.37.67-.02.14-.22.68-.46.66-.23 0-.18-.1-.05-.16.13-.07.3-.27.27-.56-.02-.3-.16-.46-.36-.62-.2-.17-.5-.62-.6-.7-.08-.1-.08-.2.1-.45.15-.24.35-.56.35-.56z"/><path fill="#d96f71" d="M9.16 17.75c.2-.13.36-.55.96-.84.6-.28.95-.5 1.1-.48.18.02.54.05.5-.13-.03-.2-.12-.26-.1-.4 0-.16 0-.4.12-.4.1 0 .2-.2.02-.14-.18.08-.3.22-.3.37 0 .14.1.43 0 .45-.12.02-.4-.07-.6.06-.2.12-1.08.63-1.2.76-.1.13-.5.75-.5.75z"/><path fill="#cb696b" d="M25.92 10.35c.35-.05-1.98-.53-2.3-.58-.33-.06-3.3-.14-3.78 0-.47.13-1.32.46-1.67.6-.12.03.1.06.4.06.27 0 .9.05 1.28.07.4 0 1.43.04 1.76.1.33.04 1.5.22 1.74.4.26.2.23.1.23.23 0 .12.02.32 0 .37.13-.16.2-.28.33-.33.13-.06.27-.1.27-.1-.47-.2-.93-.52-1.3-.55-.4-.03-1.82-.16-2.17-.18-.35 0-2.1 0-2.05-.1.04-.1.26-.18.58-.3.33-.12.72-.27 1.4-.27.67 0 2.86.1 3.25.16.4.07 1.52.3 1.56.42.04.1-.07.64-.16.68.18-.13.36-.4.44-.5.08-.1.1-.16.2-.18z"/><path fill="#f57e80" d="M15.4 11.56c.38-.08.92-.2 1.07-.3-.3.06-.8.18-.75.1.06-.1.14-.2.14-.2-.2.2-.46.4-.46.4z"/><path fill="#f57e80" d="M38.4 21.26c.1-.1.25.22.3.33.03.1.03.5.1.68.07.18.2.63.2.76.02.13.1.4.12.3-.04.2-.13.46-.13.46-.05-.32-.14-.62-.17-.8-.03-.2-.1-.4-.2-.76-.07-.36-.14-.72-.24-.76-.1-.04-.08-.15 0-.22z"/><path fill="#f57e80" d="M36.63 16.97c0-.18-.44.26-.44.38s.1.26.2.08c.13-.18.23-.37.23-.46z"/><path fill="#e47678" d="M38.58 14.54c-.1-.07-.3-.07-.28.02 0 .08.23.58.55.84.32.26.58 1.1.6 1.25 0 .14.1 1.64.24 1.82.12.17.52.96.63 1.14.12.2.44 1.25.53 1.42.08.18.1.63.2 1.43.12.8.3.93.38.86.07-.07-.02-.04-.13-.43-.1-.4-.15-1.12-.2-1.5-.04-.38-.45-1.4-.64-1.74-.18-.35-.37-.7-.42-1.15-.04-.43-.26-1.16-.4-1.67-.12-.5-.4-1.12-.53-1.27-.1-.14-.54-.58-.54-.7 0-.14 0-.3 0-.3z"/><path fill="#e47678" d="M40.23 15.85c.17-.02.38.28.3.3-.07.04-.1.14-.02.3.08.16.36.82.5.98.15.16.48.6.54.62.06 0 .07.36.07.42 0 .05.07.36-.12.1-.2-.23-.38-.57-.46-.8-.1-.2-.32-.74-.44-.98s-.2-.53-.22-.66c0-.13-.25-.27-.13-.3z"/><path fill="#f57e80" d="M41.15 25.4c-.13-.13-.23-.26-.5-.1-.3.16-.87.18-.98.32-.12.13-.56.5-.64.55.43-.22 1.58-.8 1.67-.7.08.1.1.5.1.5.16-.07.35-.56.35-.56z"/><path fill="#d96f71" d="M37.73 33.24c.1-.07.25.13.2.2-.06.1-.06.12-.5.25-.43.12-1 .6-1.1.75-.12.15-.54.07-.74.35-.2.28-.55.84-.64.95-.08.12-.8.5-1 .64-.22.1-.64.38-.74.37-.1-.02-.47.04-.47.04.47-.27 1.16-.57 1.3-.67.1-.1.3-.16.6-.47.3-.3.6-.83.78-.94.18-.12.58-.14.68-.3.1-.18.56-.67.84-.78.28-.12.53-.1.6-.2.07-.07.2-.2.2-.2z"/><path fill="#d96f71" d="M34.24 34.33c.2-.1.7-.16.7-.07-.02.1-.3.43-.6.5-.32.07-.48.18-.64.3-.16.13-.52.1-.82.17-.3.07-.06-.22.1-.24.17-.02.38 0 .52-.15.15-.14.5-.4.74-.52z"/><path fill="#d96f71" d="M36.13 31.5c-.14.22-.46.63-.66.74-.2.1-1.05.64-1.36.77-.3.13-.76.3-.92.53-.16.2-.46.44-.68.6-.2.17-.66.3-.93.54-.27.23-.77.72-.68.8.08.06.5-.4.7-.5.2-.1.76-.26.83-.35.07-.1.34-.47.68-.72.35-.25.92-.53 1.26-.75.34-.2 1.3-.8 1.43-.98.14-.18.33-.66.33-.66z"/><path fill="#d96f71" d="M39.6 28.43c0 .12-.12.66-.12.82 0 .16.16-.05.2-.27.03-.2-.08-.55-.08-.55z"/><path fill="#d96f71" d="M39.03 27.54c.12-.15.32 0 .18.12-.13.13-.38.36-.38.6 0 .22-.13.83-.15 1.06 0 .24.02.65-.2.8-.24.13-.4-.1-.5.08-.08.18-.37.3-.62 1.1-.1.3-.22.3-.3.22-.06-.1-.13-.35-.3-.27-.15.1-.3.2-.42.33.12-.33.4-.58.5-.56.1.02.2.3.3.14.1-.14.33-.7.5-.87.18-.17.5-.17.65-.35.14-.18.3-.4.34-.93.05-.52.07-1 .18-1.13.1-.15.23-.36.23-.36z"/><path fill="url(#av)" d="M35.04 30.82c-1.33 1.16-1.4 1.37-1.6 1.5-.17.16-.76.04-1.3.68-.54.65-1.18 1.33-1.72 1.73-.54.4-.6.78-.93.78-.33 0-.76-.27-1.15-.1-.4.2-.7.83-.83 1.37-.14.53-.2 1.1-.54 1.1-.32 0-.68.15-.86-.1-.18-.25-.52-.8-.64-.86-.13-.05-1.83-.63-2-.63 0 0-.73-.22-1.07-.54.54-.05 1.83-.35 2.03-.37.2-.03.67-.1 1-.13.32-.03 2.33-.13 3.75-.67 1.4-.54 2.64-1.78 2.88-1.94.25-.15 2.06-1.34 2.98-1.8z" transform="matrix(.782 0 0 .782 4.789 7.269)"/><path fill="#d96f71" d="M28.48 35.7c.2-.23.3-.4.24.1-.07.47.02.7.1.7.1 0-.32-.2-.36-.1-.03.13-.2.5-.02.63.1.04-.27.14-.3-.05-.04-.2.03-.4.1-.65.1-.25.1-.5.24-.64z"/><path fill="url(#aw)" d="M12.3 25.76c.4-.3 2.1-.64 2.63-.72.5-.1 1.86-.52 2.2-.4.34.1.94 1.2 1.3 1.74.36.54 1.75 1.28 2.3 1.28.52 0 2.25-.08 2.64-.08.38 0 1.75-.05 1.9.1.15.16 1.17.95 1.56.84.38-.1 1.3-1.54 1.3-2.22 0-.5-1.1-1.7-1.58-2.42-.5-.7-2.22-3.97-2.35-4.5-.13-.54-1.4-3.87-1.88-4.13-.47-.26-1.96-.55-2.63-.55-.67 0-2.48.25-2.8.5-.3.22-1.05-.23-.54-.78.5-.56 1.88-.8 2.46-.8.57 0 2.9.14 3.24.24.35.1.75-.13 1.18-.8.43-.65.5-1.3 1.24-1.72.75-.4 1.24-.26 1.35-.58.1-.32.9-1.04.5-1.4-.38-.33-1.68-1-2.02-1-.33 0-.74.42-1.17.22-.42-.2.07-.6-.32-.76-.37-.18-1.18-.52-1.72-.05-.53.47-.96 1.2-1.15 1.4-.2.2-1.37.38-1.7.8-.3.43-1.23 1.82-1.04 1.9.18.1 1.38-.3 1.8-.5.44-.22 1.3-1 1.7-1 .4 0 .72-.05.87-.25.15-.2 1.1-.8 1.2-.64.1.17-.28.96-.56 1.1-.26.16.38.23.42.42.04.2-.1.7-.5.8-.44.12-1.2-.22-1.57-.16-.4.07-2.48.66-3.02.98-.53.33-1.9.75-2.1 1.3-.18.56-2.04 4.05-1.27 4.52.77.47 4.5 1.1 5.28 1.4.76.3 3.22 2.48 3.8 3.55.58 1.06 1.3 2.7 1.56 2.92.26.2.64.75.5.75-.1 0-.97-.02-1.1-.26-.13-.22-1.7-3.1-1.94-3.2-.24-.1-3.46-2.7-4.43-2.7-.96-.03-2.58-.1-3.07-.4-.5-.3-1-.65-1.5-.23-.5.43-1.17 1.33-1.4 2.44-.24 1.12-.3 2.68-.44 3.15-.16.47-.38 2.33.06 2.65.44.3 1.92 1.2 3 1.35 1.07.16 2.23-.28 2.86.57.64.85 1.42 2.15 1.23 2.43-.2.3-.7.32-1.04.13-.34-.2-1.26-.98-1.86-1.2-.6-.22-4.13-1.55-4.35-1.45-.22.1-.2.98.03 1.48.22.52.88 1.5 2.05 1.87 1.17.38 2.52.1 3.1.4.56.33.97 1.1 1.73 1.34.75.26 2.68.23 2.9-.15.22-.38.06-1.07-.32-1.07-.37 0-1.22-.38-.97-.92.26-.53.83-.66 1-.53.2.12.84 1.1 1.15 1.1.32 0 .25-.98.8-.85.53.12.34 1.26.65 1.5.32.26 3.22.52 3.28-.08.08-.6-1.12-.76-1.06-1.36.06-.6 1.3-2.1 1.2-2.4-.1-.28-1.42-1.04-2.3-1.13-.9-.1-3.2-.1-3.9-.5-.74-.4-2.7-1.6-2.9-1.92-.18-.32-.14-1.1-1.34-1.07-1.2.04-3.6.7-3.9.8-.33.1-1 .03-.86-.5.12-.55.44-.37.66-.54z" transform="matrix(.782 0 0 .782 4.789 7.269)"/><path fill="#f4b1b3" d="M26.56 31.5c-.16.16-.54.57-.42 1.14.13.56.7.93 1.3.8.58-.16 1.12-.2 1.05-.46-.1-.27-.58-.07-.9-.4-.32-.3-.62-.63-.62-.78 0-.15.05-.6.27-.67.23-.07 1 .15 1.4.4.38.24 1.5.54 1.9.17.4-.37.5-.74.08-.9-.42-.14-1.1-.93-1.16-1.27-.04-.35-.22-.86.03-1.23s.8-.9.66-1.2c-.12-.33-1.1-1-1.2-1.54-.1-.55-.35-.92-.18-1.3.18-.4.35-.5.55-.55.2-.04.66 0 .66.26 0 .24-.38.46-.23.83.15.36.47 1.37.84 1.45.38.07 1.14-.12 1.66-.45.52-.32 1.48-.54 1.65-.76.2-.22.5-.54.53-.34.03.2.03.83-.2.96-.22.12-.78.17-.76.5.03.3.37.75.6.85.2.1.83-.1.98.16.15.25.2.54-.03.54-.22 0 .25.42.03.5-.22.07-.86-.08-1.06-.45-.2-.37-.23-.76-.63-.93-.4-.18-.8-.13-1.43 0-.64.12-1.33.7-1.33 1.03 0 .35-.3.9-.1 1.33.2.45.73.57.77.77.05.2-.34.7-.05.9.3.2.97.28 1.2-.1.26-.4.3-.53.14-.78-.18-.24-.42-.44-.42-.7 0-.28.3-.6.5-.6s.75.27.63.54c-.12.28-.27.48.12.53.4.05 1.38-.47 1.84-.8.47-.3.9-.46.92-.78.02-.32.12-2.27.1-2.7-.03-.4-.05-1.08-.13-1.5-.07-.42-.24-1-.5-1.13-.24-.12-.6-.25-1 .12s-1 .57-1.23.77c-.25.2-.37.65-.6.67-.22.03-.7.08-.7-.24s-.16-.62-.43-.7c-.27-.07-1.06-.14-1.1-.54 0-.4.06-1.04.36-1.07.3-.02.5.32.74.5.24.17 1.2.9 1.53.73.32-.17.66-.5.9-.7.2-.2.43-.36.04-.92-.4-.57-.45-1.3-.87-1.4-.42-.08-1.87-.26-2.27-.55-.4-.3-1.18-.95-1.53-.78-.34.18-.17 1.1-.24 1.48-.08.37-.94 1.95-1.1 2.1-.2.15-1.54 2.5-1.54 2.8 0 .28.5 1.25.85 1.7.35.43.52.75.12 1.67-.4.9-.86 2.2-.86 2.36 0 .18 0 .52-.14.67z"/><path fill="#f4b1b3" d="M26.12 24.4c.2-.38.7-1.68.68-2.03-.03-.35-.84-1.4-1.05-2.3-.2-.88-.24-1.35.1-1.46.36-.1.88-.13.88.1s-.42.35-.33.73c.1.37.9 1.77.96 2.17.07.4.18 1.14.25.86.08-.28.08-.82.25-1.26.16-.44.44-1.9.65-2.57.2-.68.7-1.26.93-1.56.24-.3.75-1.17.6-1.8-.17-.63-1.55-1.36-1.97-1.7-.42-.36-2-1.3-2-1.55 0-.23.25-.32.48-.23.23.08.2.36.35.46.13.1 2.37 1.5 2.98 1.84.6.35 1.3.84 1.3 1.3 0 .48-.16 1.53-.46 1.6-.3.07-.63.04-.8.37-.16.33-.48.68-.1.84.4.17 1.76.83 2.1.9.32.07 1.1.2 1.1-.02 0-.24-.38-.75-.36-1.13.02-.37.18-.53.4-.5.2.06.27.18.27.36 0 .2-.18.62-.1.74.1.1.43.44.43.65 0 .2 0 .55.1.72.1.16.95 1.58 1.07 1.6.12.03.75-.02.75-.3 0-.28-.03-1.96-.2-2.2-.2-.22-1.34-1.2-1.48-1.42-.14-.2-.6-.5-.24-1.02.35-.54.52.04.54.28.02.23 1.1 1.16 1.26 1.28.16.12.56-.23.58-.58.03-.35.38-.87.52-.87s.56.16.4.44c-.17.28-.52.53-.73.8-.2.25-.47.43-.37.78.1.36.37 1.17.37 1.54 0 .38-.05 1.83.1 2.06.13.23.44 1.33.44 1.77 0 .44.28 1.44.18 1.93-.1.5-.32 1.54-.25 1.87.07.33.32-.14.65-.54s.3-1.12.44-1.35c.13-.23.35-.8.63-1.44.28-.65.18-1.35.16-1.8-.03-.44-.15-.84-.34-1.05-.18-.2-.28-.7 0-.78.28-.1.42-.07.45.16.03.24.22.72.22.9 0 .2.14.78.18.57.05-.2.26-1.6-.1-1.98-.34-.38-.74-2.13-1.13-2.52-.4-.4-1-1.52-1.13-1.75-.1-.24-.8-1.7-1-2.08-.2-.4-1.94-2.2-2.66-2.55-.72-.35-2.4-1.23-3.36-1.35-.96-.12-1.64-.02-.28.37 1.35.4 1.7.9 1.9 1.16.17.26 1.62 1.75 1.72 1.96.1.2.18.5-.33.28-.52-.2-1.42-1.33-1.66-1.66-.23-.32-2.24-1.58-2.6-1.68-.34-.1-1.23-.07-1.46-.12-.22-.04-.78-.32-1.02-.18-.23.14-.4.44-.16.44.23 0 1.2.4 1.38.45.16.04 1.05.18 1.4.18.35 0 .4.38.02.45-.37.07-1.56-.24-1.75-.35-.2-.12-1.35-.38-1.73-.33-.37.05-1-.02-1.47.6-.47.64-.63.8-.05 1 .6.17 1.36.57 1.55.73.18.17.84.66 1 .9.16.23-.2.48-.38.8-.2.34-.52.83-.92 1.1-.4.3-1.1 1.22-1.28 1.38-.2.18-.77.83-.65 1.04.1.2.88 1.6.9 1.84.03.24.47 1.34.57 1.6.1.25 1.14 2.05 1.35 2.14.2.1.28.12.35-.02z"/><path fill="#f4b1b3" d="M34.04 11.6c.27.05 2 .68 2.4 1.14.4.46.87.87 1 1.38.14.52 1.3 1.25 1.06 1.4-.24.17-.38.57.06 1.12.43.54.6 1.5.9 1.94.34.43 1.23 2.22 1.23 2.95s-.04 1.73-.25 2.2c-.22.5-.73 1.64-1.06 1.83-.33.18-.82.8-.87.53-.05-.28.22-1.17.38-1.6.17-.43.63-1.13.57-1.3-.05-.16.14-2.62-.13-3-.27-.38-1.5-2.92-1.87-3.32-.35-.4-1.24-2.65-1.6-3.24-.34-.6-2.5-2.14-1.83-2.03z"/><path fill="#f4b1b3" d="M39.3 15.26c.12.02.74.84 1 1.46.28.62.82 2.32.96 2.86.13.54.54.76.54 1.17 0 .4.1 1.02-.05 1.27-.17.24-.06.78-.17.8-.1.03-.2-.48-.3-1.37-.07-.9-1-2-1.1-2.6-.1-.6-.35-2.43-.6-2.9-.24-.45-.4-.72-.27-.7z"/><path fill="#f4b1b3" d="M27.07 35.23c.33-.08.78.3 1.05.08.28-.2 1.22-1 1.46-1.45.25-.43.65-1 .9-1.05.24-.05.62.27.83-.05.23-.33.43-.85.66-1.1.23-.28.95-.36 1.44-.82.48-.46 1.7-1.1 2.27-1.46.56-.35 1.1-.5 1.4-.8.3-.28.87-1.15 1.14-1.5.28-.35 1.4-1.1 1.68-1.2.27-.07.73-.07.57.47-.16.54-.5 1.3-.76 1.5-.28.18.2-.3-.1-.47-.3-.17-.45-.4-.96.3-.52.7-.25 1.8-.43 2.05-.18.24-.75.3-.9.46-.12.16-.45.57-.72.78-.27.22-.73.3-.92.62-.2.33-.78.8-1.2.95-.44.13-1.15.24-1.52.73-.38.5-.73.73-1.17 1.03-.43.28-.97.6-1.05 1-.08.42-.14 1.36-.8 1.4-.7.02-1.04-.17-1.04-.66 0-.48.16-.78-.05-.75-.22 0-.8.4-.76.7.03.28-.27 1-.14 1.18.14.2 1.06.24 1.06.6 0 .34 0 .7-.7.67-.74-.03-1.18-.33-1.74-.73-.57-.4-.36-.5-.22-1 .14-.52.27-1.38.73-1.5z"/><path fill="#f4b1b3" d="M33.5 33.8c.45-.28 1.65-.78 1.84-1 .2-.22 1.1-1.05 1.27-1.05.17 0 .36.3.77-.16.4-.47.65-1.2.84-1.2.2 0 .1 1.08-.62 1.56-.73.5-.24.84-.75 1.06-.52.2-.92-.03-1.17.24-.24.27.1.8-.4.8s-1.33.1-1.62.36c-.3.27-1.03.43-1.2.7-.15.27-.67.8-.9.8-.26.04-.58-.34.2-.74.8-.4 1.03-.92 1.76-1.38z"/><path fill="url(#ax)" d="M1.3 20.34c.15-.4.93-1.38 1.2-1.58.28-.2 1.14-.9 1.63-.77.48.13 1.4.3 2 .3.6 0 1.93 0 2.35 0 .4 0 2.66.42 2.94.46.27.03-.28.8-.7 1.86-.4 1.07-1.24 4.87-1.38 5.6-.13.73-.5 1.3-.9 1.45-.38.14-1.96.24-2.76.04-.8-.2-2.3-.5-2.76-.82-.45-.3-1.18-.45-1.04.1.14.55.66 1 .93 1.07.3.07 1.3 0 1.7.1.42.1 2.35.46 2.74.46.38 0 2.04-.06 2.1.18.07.24-.13 1.07 0 1.73.14.66.5 1.77.87 2.05.4.27.15.52-.55.34-.7-.18-1.62-.77-2.3-1.15-.7-.38-1.4-.4-2-.62-.64-.2-1.67-1.1-2.12-1.38-.45-.28-1.28-.83-1.52-1.52-.24-.7-.3-.94-.65-1.42-.35-.48-.6-2.7-.3-3.14.27-.45.65-1.24 1.06-1.48.42-.25.94-.42 1.5.38.55.8.8.58 1.03.72.24.14.7.6.73.9.03.3-.17.8.17.83.35.04.62-.47.6-.8-.05-.3-.67-1.13-.88-1.33-.2-.2-.8-.25-1.03-.56-.24-.3-.38-1.02-.8-1.06-.4-.03-1.52.66-1.76.52s-.6-.6-.55-.86c.04-.28.18.2.5-.56z" transform="matrix(.782 0 0 .782 4.789 7.269)"/><path fill="#f4b1b3" d="M7.58 20.12c-.3-.36.46-1.32.92-1.62.46-.3 1.38-.7 1.65-1.1.27-.4.78-.84 1.1-.84.33 0 .7.2.77 0 .05-.22.67.13.48.37-.2.25-.4.57-.32.68.08.12.54.42.7.1.16-.33.5-.74.3-1.2-.2-.46-1.03-.97-.97-1.24.06-.27.1-.54.55-.54.43 0 .9-.08 1.05.13.16.22-.13.63.08.95.22.32.25.78.76 1.27.5.5 1.2.76 1.13 1-.05.24-.4.08-.8.68-.4.6-.55 1.9-.82 2.13-.27.22-1.35.35-1.67.4-.33.06-2.92-.13-3.46-.48s-1.33-.54-1.44-.68z"/><path fill="#f4b1b3" d="M9.56 16.7c.15-.3 1.27-1.36 1.62-1.52.35-.16.27.1.16.3-.1.18 0 .43-.2.5-.18.1-1.34.63-1.37.74-.02.1-.3.13-.2-.03z"/><path fill="#f4b1b3" d="M16.04 17.42c.32.1.76-1.38.95-1.57.18-.2.26-.62.07-.94-.2-.32-.86-.94-.8-1.15.04-.22.3-.6.53-.5.24.12.2.47.27.58.08.1.87.8 1.03.67.16-.13.67-.35.65-.65-.03-.3-.1-.73.13-.7.25.03.76.46 1.06.16.3-.3.35-.75-.1-.75-.47 0-1.77-.2-2.04-.2s-.97.26-1.22.34c-.24.07-.8.37-1 .56-.18.2-.75.65-.75 1.54 0 .9.1 1.54.43 1.92.32.38.38.6.78.7z"/><path fill="#f4b1b3" d="M13.12 14.12c0-.24 1.14-1.2 1.52-1.37.38-.2 1.6-.4 1.5-.28-.07.14-1.02.52-1.15.84-.15.34-.28.7-.44.8-.17.08-1.44.43-1.44.02z"/><path fill="#f4b1b3" d="M15.96 11.83c.4-.3 2.22-.84 2.9-.84.67 0 2.64-.3 2.9.1.28.4.12.86-.18 1-.3.13-.38.4-1.05.13-.68-.27-1.43-.4-2.03-.35-.6.05-1.67.08-2 .08-.32 0-.75.03-.54-.13z"/><path fill="#f4b1b3" d="M23.45 10.6c.2-.02.73-.4.4-.48-.32-.08-2.54-.32-3.13-.27-.6.06-1.92.38-1.4.38.5 0 1.9.16 2.1.16.22 0 1.84.24 2.03.2z"/><path fill="#f4b1b3" d="M16.6 11c.3-.12 1-.5 1.28-.5.27 0 1.27.06 1.08.14-.2.08-1.5.35-1.84.4-.35.06-.94.16-.5-.03z"/><path fill="#f79899" d="M25.88 10c-.12-.18-2.86-.96-4.95-.53-.32.03 1.36.14 2 .14.65 0 2.63.5 2.73.5.1 0 .44.2.22-.1z"/><path fill="#f4b1b3" d="M11.6 14.47c.14-.33.93-1 1.28-1.24s2.22-1.38 2.4-1.35c.2.03.74.35.47.35s-1.1 0-1.46.3c-.4.3-1.3 1.5-1.53 1.7-.2.2-1.3.6-1.16.24z"/><path fill="#f5d9d9" d="M29.35 23.52c-.45 0-.8.2-.82.94-.03.75.8 2.48.63 3-.16.55-.97 1-.7 1.58.3.6 1.3 1.48 1.4 1.95.1.46-.42.43-.64.08-.22-.34-1.63-.06-1.8-.4-.14-.35-.5-.82.17-1.67.65-.84.78-1.8.3-2.15-.47-.35-1.1-1.3-.9-1.98.18-.7 1.12-2.3 1.5-2.74.38-.44 1-1.7.97-2.4-.03-.74.1-.86.38-.7.28.15 1.73.72 2.17.88.44.16 1.63.7 1.76 1.35.12.66-.1 1.36-.6 1.36s-.97-.12-1.54-.72c-.56-.6-.72-.63-1.1-.03-.37.6-.97 1.2-.47 1.35.5.16 1.64.38 1.7.8.06.4.72 1 1 .74.3-.25.63-.8.98-.9.34-.1.97-.86 1.38-.76.4.1.9.3.9 1.25s-.37 1.48-.15 1.92c.22.44.4 1.82.03 2-.36.2-.52.13-.52-.34 0-.46.2-.96-.3-1.12-.52-.15-1.24-.4-.9-.78.35-.38.6-.82.57-1.13-.03-.32-.3-.66-.72-.4-.4.24-1.88 1.2-2.45 1.25-.57.03-1.44-.4-1.38-1.1.06-.7.03-1.13-.85-1.1z"/><path fill="#f5d9d9" d="M30.76 28.4c-.05.45.72 1.6.98 1.2.25-.37.4-1.2.84-1.15.44.06.8.7 1.35.6.57-.1 1.64-.4 1.17-.5-.47-.1-1.42-.32-1.5-.7-.1-.38-.04-.9-.9-.88-.84.03-1.8.38-1.94 1.42z"/><path fill="url(#ay)" d="M25.77 30.4c.5.2.2.97-.56 2.12-.24.38.78 1.85-.55 1.78-1.3-.08-1.3-1.6-1.72-1.6-1.63-.06-3.36-.45-4-1.28-1.02-1.28-2.02-2.3-3.26-2.3-1.25 0-3.54-.7-3.38-1.35.15-.65 3.08-1.65 3.93-1.33.84.32 1.74 1.14 2.65 1.9 2.07 1.7 6.33 1.87 6.9 2.07z" transform="matrix(.782 0 0 .782 4.789 7.269)"/><path fill="url(#az)" d="M13.82 21.54c1.04-.4 3.53-.28 4.3.04.76.32 3.13 1.17 4.05 2.6.92 1.46 2.13 2.46 1.97 2.78-.16.32-1.8.44-2.5.04-.68-.4-1.8-.48-3.5-2.13-1.67-1.64-5.33.2-5.65.4-.33.2-1.25-2.77 1.32-3.73z" transform="matrix(.782 0 0 .782 4.789 7.269)"/><path fill="url(#aA)" d="M21.97 15.4c.75.46 1.6 3.4 2.3 4.74.67 1.32 3.12 5.06 3.28 5.86.16.8-1 1.97-2.6-.32-1.62-2.3-2.5-4.5-3.74-5.58-1.24-1.1-5.25-1.1-5.94-1.93-.68-.84.65-2.65 1.85-2.77 1.22-.12 3.9-.6 4.87 0z" transform="matrix(.782 0 0 .782 4.789 7.269)"/><path fill="url(#aB)" d="M5.05 19.27c1.78.33 2.38-.46 3.26.1.9.56 2.06 1.7 1.66 2.4-.4.67-.68 4.03-1.28 4.43-.6.4-2.98 1-3.74.48-.76-.52-1.76-.62-2.04-1.35-.28-.72-.98-2.36-.5-2.36.5 0 1.88.88 2 1.48.13.6.95 1.1 1.23.83.28-.28 1.02-1.97.28-2.7-2.74-2.7-3.07-1.95-3.03-2.67.03-.72 1.42-.77 2.18-.63z" transform="matrix(.782 0 0 .782 4.789 7.269)"/><path fill="url(#aC)" d="M6.23 14.07c.7-.38 1.48-2.04 2-1.85.53.2.85.9 1.05 1.13.2.24.8.84 1.36.04.57-.8-.12-1.82.33-1.94.44-.12 1.64 1.65 2.08 2 .45.37-.84 1.3-1.08 2.14-.24.84-.6 2.1-1.44 2.05-.85-.04-4.3-.16-4.66-1.2-.37-1.05-1.2-1.53.36-2.38z" transform="matrix(.782 0 0 .782 4.789 7.269)"/><path fill="url(#aD)" d="M14.54 7.6c.5-.1-.32.4-.24.73.08.32.8 1.08.88 1.65.08.56-.08 1.2-.16 1.72s-.2 1.37-.6 1.13c-.4-.24-1.6-1.25-1.5-2.9.13-1.64.74-2.16 1.62-2.32z" transform="matrix(.782 0 0 .782 4.789 7.269)"/><path fill="#f5d9d9" d="M8.43 29.6c.7.13 2.08.48 2.7.45.63-.03.63.22.48.72-.15.5.2.98-.2 1.1-.42.13-1.18-.75-2-.75-.8 0-2.03-1.7-.97-1.5z"/><path fill="#f5d9d9" d="M37.53 28.42c0 .27-.43 1.14-.9 1.62-.45.5-.9 1.2-1.26 1.5-.35.3-.98-.17-1.33.26-.35.43-1.67 1.38-2.27 2.05-.6.68-1.62 2.08-1.7 2.38-.08.3-.92.3-.95-.05-.02-.35-.24-1.14.46-1.8.7-.7 1.65-.74 2.03-1.23.4-.5.7-1.24 1.2-1.57.5-.32.95-.84 1.35-1.13.4-.3 1.76-1.14 2.22-1.38.46-.24.65-.32.78-.46.14-.13.38-.34.38-.18z"/><path fill="url(#aE)" d="M16.33 5.45C17.1 5.22 19 4.9 20 4.93c1 .03.72.52.85.8.14.27.18.7-.24.58-.4-.1-1.6-.6-2.44-.58-.83.04-3.77.28-1.83-.27z" transform="matrix(.782 0 0 .782 4.789 7.269)"/><path fill="#f5d9d9" d="M17.15 12.85c.44-.26 1.65-.27 1.6 0-.06.27-.33 1.22-.6 1.33-.27.1-.86-.22-.94-.54-.08-.33-.45-.54-.05-.8z"/><path fill="#f5d9d9" d="M23.5 10.12c-.32-.04-2.48-.1-2.78-.08-.3.03.4.27 1.43.33 1.03.05 1.1.27 1.24.16.13-.1.32-.38.1-.4z"/><path fill="#f5d9d9" d="M24.85 11.7c.3-.04.52.77 1.22 1.13.7.35 3.08 1.46 3.3 1.97.2.5.46 1.2-.17 1.67-.62.5-1.46.1-1.54.76-.08.65.57.84.38 1.57-.2.73-.2 2.57-.43 2.62-.2.05-.85-1.54-.85-2.05 0-.52.67-.52.32-.95-.35-.43-1.87-.16-1.87.32 0 .5.33 1.2.46 1.68.14.5.8 1.97.8 2.3 0 .32-.23 1.46-.47 1.5-.26.06-1.36-1.67-1.55-2.26-.2-.6-1.03-2.7-1.08-3.2-.06-.48 1.3-1.42 1.65-1.9.35-.5 1.18-1.93 1.56-1.95.38-.02.84-.6.46-.75-.38-.16-1.3-.52-2.16-.95-.87-.43-1.57-.48-1.27-.9.3-.4.74-.56 1.25-.6z"/><path fill="#f5d9d9" d="M29.77 18c-.04-.33.24-.7.57-.77.32-.08.84-.05.86-.38.03-.32.65-1.2.27-1.8-.37-.63-4.43-2.58-4.43-2.87 0-.3.52-.2 1-.06.5.14 2.27 1.06 2.46.9.2-.17-1.65-1.5-1.35-1.65.3-.17 1.46.83 1.7 1.08.25.24.92 1.9 1.46 2.03.55.13 1.5-.14 1.34-.38-.17-.25-1.44-1.35-1.87-1.9-.43-.54-1.86-1.43-1.5-1.48.34-.06 2.34.9 2.83 1.24.48.35 2.24 2.1 2.35 2.5.1.37.92 1.28.65 1.64-.27.35-.27 1.64-.63 1.54-.35-.1-.86-1.92-1.35-1.76-.48.16-1 0-1.02.62-.03.62-.68.38-.82 1.08-.13.7.73 1.25.52 1.38-.22.14-1.35-.08-1.76-.32-.4-.25-1.24-.43-1.27-.65z"/><path fill="#f5d9d9" d="M33.6 17.93c.17-.07 1.33.84 1.47 1.14.13.3.43 1.76.32 2.03-.12.27-.63.02-.98-.38s-.4-1.24-.6-1.65c-.18-.4-.8-.86-.2-1.14z"/><path fill="#f5d9d9" d="M36.18 18.42c.1-.28.7-.78 1.05-.46.35.33 1.35 1.95 1.03 2.24-.33.3-.65.6-.5 1.14.17.54.63 1.5.58 2.43-.05.92-.57 1.87-.68 2.2-.1.32-.48 1.48-.67 1.5-.2.03.12-1.62.12-2 0-.37-.3-2.2-.43-2.56-.15-.37-.36-1.05-.36-1.9 0-.82-.06-1.58-.2-1.9-.12-.33-.07-.35.04-.68z"/><path fill="#f5d9d9" d="M35.3 12.55c.23-.03 1.4.76 1.72 1.25.32.5 1.2 1.38 1.08 1.57-.1.18-.33.32-.14.78.2.46 1.4 2.46 1.62 2.8.22.36.92 1.93.95 2.28.03.35-.24.46-.24 1.3 0 .84-.28 1.84-.58 2.05-.3.22-.8 1-.76.52.06-.5.16-.76.38-1.25.22-.48.16-.7.22-1.16.05-.47.13-2.28-.08-2.58-.22-.3-1.5-2.73-1.74-3.05-.24-.32-1.37-2.76-1.45-3-.1-.24-.72-.78-.85-1.03-.14-.24-.35-.46-.16-.5z"/><path fill="#f5d9d9" d="M21.62 13.28c.2-.05.97.1.97.24 0 .16-.35.43.03.6.38.16 1.1-.12 1.44.04.36.17 1.46.32 1.17.82-.53.9-1.64.82-1.86 1.23-.2.42-.6 1.76-1.12 1.77-.5.02-1.9-.3-2.57-.23-.7.08-2 .67-2.07.3-.06-.35.26-.5.73-.63.47-.1 1.8-.77 2.25-.8.44-.05 1.24.33 1.63-.03.4-.36.53-.53.36-.88-.18-.37.44-1.22-.2-1.23-.37 0-.82.53-1.08.63-.25.1-.6.05-.84.25s-.9.72-1.18.83c-.26.12-1 .4-.84.03.17-.36.78-.98 1.2-1.18.45-.2.9-.44 1.05-.77.17-.33.5-.88.92-.97z"/><path fill="url(#aF)" d="M11.45 30.8c.38-.08 2.53.48 3.24.82.7.33 2.74 2.08 3.24 2.27.5.2 2.96 1.08 2.05 1.27-.9.2-1.5.1-2.63-.66-1.1-.75-2-.88-2.87-.88-.86 0-2.33-.5-2.65-1.34-.32-.84-.7-1.4-.4-1.47z" transform="matrix(.782 0 0 .782 4.789 7.269)"/><path fill="none" stroke="#cb696b" stroke-width=".49842000000000003" d="M13.78 33.2c-.07-.07-.14-.15-.2-.23-.32-.54-.36-1.15-.4-1.34 0-.2-.2-.64-.06-1.72.05-.28-.2-.63-.2-1.05 0-.43-.08-1.28.34-2.66 1.06-3.5 1.7-3.9 1.72-4.25.03-.36-.05-.66.64-2.6.68-1.93 1.22-1.5 1.53-1.97.3-.47.82-1.5 1.36-2.1.56-.6 1.17-.7 1.45-1 .28-.32.5-.7 1-1.04.7-.44 1.6-.44 1.75-.6.15-.17.92-1.17 1.15-1.35.22-.2 1.12-.1 1.4-.26.3-.17.42-.63.67-.7.25-.05 1.33.2 1.8.1"/><path fill="none" stroke="#994f51" stroke-width=".49842000000000003" d="M22.85 35.52c-.3-.12-.54-.3-.54-.3-.96.15-2.18.17-2.87.08-.68-.1-1.7-.78-1.86-.75-.16.02-.75-.07-1.76-.38-.85-.26-1.6-.55-2.02-.97"/><path fill="none" stroke="#cb696b" stroke-width=".49842000000000003" d="M27.5 38.56c-.37-.1-.56-.25-1.02-.65-.45-.38-.93-.82-1.1-.92-.16-.1-.45-.8-.76-.9-.32-.1-1.46-.43-1.77-.55"/><path fill="none" stroke="#994f51" stroke-width=".49842000000000003" d="M27.7 10.46c.47-.1.26-.25.5-.32.26-.06 2.2.1 2.6.17.4.1 1.02.4 1.23.4.2 0 .58 0 .96.1.36.1 2.85 1.34 3.27 1.57.42.23 1.43 1.35 1.83 1.8.45.15 1.35.56 1.6.7.25.16 1.22 1.17 1.37 1.53.14.35.08.8.25 1.1.16.3.27.52.3.76.05.25.05 1.3.15 1.52.1.23.3.67.3 1.37 0 .7-.23 1.77-.34 2.33-.1.56-.58 1.5-.58 1.7 0 .2-.06.5-.2.67-.1.16-.15-.03-.28.45-.12.48-.56 1.1-.58 1.25-.03.14-.05.35-.13.45-.1.1-.4.1-.4.3 0 .18.3.4.33.53.05.15.1.38.07.52-.04.15-.63 1.06-.92 1.54-.3.47-1.04 1.36-1.08 1.57-.04.2.1.3.1.62 0 .3.03 1.18-.08 1.45-.1.27-2.02 2.37-2.4 2.47-.37.1-2.42-.3-2.82-.2-.4.07-1.85.5-2.37.88-.5.38-1.36.88-1.7.92-.36.04-1 0-1.2-.07"/><path fill="none" stroke="#d97072" stroke-width=".49842000000000003" d="M13.78 33.2c-.07-.07-.14-.15-.2-.23-.32-.54-.36-1.15-.4-1.34 0-.2-.2-.64-.06-1.72.05-.28-.2-.63-.2-1.05 0-.43-.08-1.28.34-2.66 1.06-3.5 1.7-3.9 1.72-4.25.03-.36-.05-.66.64-2.6.68-1.93 1.22-1.5 1.53-1.97.3-.47.82-1.5 1.36-2.1.56-.6 1.17-.7 1.45-1 .28-.32.5-.7 1-1.04.7-.44 1.6-.44 1.75-.6.15-.17.92-1.17 1.15-1.35.22-.2 1.12-.1 1.4-.26.3-.17.42-.63.67-.7.25-.05 1.33.2 1.8.1"/><path fill="none" stroke="#994f51" stroke-width=".49842000000000003" d="M27.7 10.46h-.02c-.4-.04-.65-.1-.82-.28-.2-.2-.13-.32-1.9-.68-1.78-.35-3.85-.58-6.56.46-2.7 1.03-2.75 1.45-3.04 1.6-.3.17-2.42 1.27-2.94 1.75-.5.5-.77.63-.93.85-.17.23-.27.6-.56.78-.3.2-1.94 1.8-2.46 2.6-.5.82-.67 1.24-.9 1.6-.23.35-1.06 1.3-1.52 2.13-.45.84-.9 2.03-.9 2.35 0 .34.42 1.05.42 1.24 0 .2-.55.62-.58.87-.03.27.06.98.13 1.53.06.55.03.9.16 1.16.12.25.47.38.54.6.06.23.26.78.58 1.07.32.3.6.4.93.7.33.34.94.88 1.4 1 .45.14 1.16 0 1.45.2.3.2 1.3 1.2 1.77 1.36.5.16 1.52-.1 1.8-.13"/></g><g><path fill="url(#aG)" d="M40.2 42.95c0 2.57-7.68 4.65-17.17 4.65-9.48 0-17.17-2.08-17.17-4.65 0-2.57 7.7-4.65 17.17-4.65 9.5 0 17.17 2.08 17.17 4.65z" transform="matrix(.41 .077 0 .446 -2.413 24.434)" color="#000" overflow="visible" enable-background="accumulate"/><path stroke="#fff" stroke-width="1.02.943" d="M5.7 28.03c-.05 0-.1.02-.13.03l-2.2 1c.02 0 .06 0 .08-.02-.3.15-.55.44-.67.76l-1.14 5.86 1.2.28 1.1-.4.28-.56.16 1.85-1.64 8.4 2.14.66 1.6-1.02.43-1.48.53 2.92 1.83.54 1.9-1.35-.95-7.03 1.3.45 1.55-.77-1.75-7.05c-.1-.7-.44-1.23-1.04-1.55l-4.08-1.5c-.15-.02-.33-.04-.48-.02z"/><path fill="url(#aH)" d="M27.87 45.96L24.9 28.6l4.14-1.8 2.24 16.62z" transform="matrix(.51 0 0 .51 -4.74 23.45)"/><path d="M4.87 45.92l1.64-.96 1.46-4.9-1.58.4z"/><path fill="url(#aI)" d="M17.96 26.4l-3.24 16.5 4.23 1.24 2.88-10.8L23.96 45l3.9 1.12-1.9-17.37z" transform="matrix(.51 0 0 .51 -4.74 23.45)"/><path fill="url(#aJ)" stroke="#fff" stroke-width="2.641" d="M30.46 7.06c0 3.6-2.46 6.5-5.48 6.5-3.03 0-5.48-2.9-5.48-6.5 0-3.58 2.45-6.5 5.48-6.5 3.02 0 5.48 2.92 5.48 6.5z" transform="matrix(.199 0 0 .18 -2.399 35.053)" color="#000" stroke-linecap="round" overflow="visible" enable-background="accumulate"/><path d="M2.85 36.05l1.3-4.4.3 3.04-.47.93z"/><path fill="url(#aK)" stroke="#fff" stroke-width="2.243" d="M30.46 7.06c0 3.6-2.46 6.5-5.48 6.5-3.03 0-5.48-2.9-5.48-6.5 0-3.58 2.45-6.5 5.48-6.5 3.02 0 5.48 2.92 5.48 6.5z" transform="matrix(.235 0 0 .212 5.936 37.864)" color="#000" stroke-linecap="round" overflow="visible" enable-background="accumulate"/><path fill="url(#aL)" stroke="url(#aM)" stroke-width=".981" d="M12.52 23.95l2.3-11.35c.37-1.05 1.53-1.96 2.48-1.62l9.26 3.1c1.3.4 2.16 1.66 2.5 3.07l2.88 13.33-2.62-.9-2.4-10.06-.58 9.42-3.72.62-1.24-2.14-2.26 1.12-2.3-2.1v-9.16L15.1 24.7z" transform="matrix(.51 0 0 .51 -4.74 23.45)"/><path fill="url(#aN)" stroke="url(#aO)" stroke-width=".981" d="M16 11.14l4.3-1.94c.28-.1.82-.1 1.2 0l8 2.9c1.17.63 1.83 1.67 2.04 3.05l3.42 13.83-3.02 1.45-2.97-13.2c-.28-1.18-1.4-2.5-2.65-3.05l-9.02-3.15c-.4-.1-.98 0-1.3.1z" transform="matrix(.51 0 0 .51 -4.74 23.45)"/><path fill="#eeeeec" d="M5.8 33.9l-.46-4.5 1.7-.83 2.38.82-1.75.93-1.15 3.8z"/><path d="M6.06 34.72l-1.68-2.84.4-.2z"/><path fill="url(#aP)" d="M21.7 12.13s-.76.48-.87.88c-.12.4.54.9.54.9l-.88 5.8.7 2.37 1.38-1.86-.25-6.18s.72-.2.73-.55c0-.4-.57-1.08-.57-1.08z" transform="matrix(.51 0 0 .51 -4.74 23.45)"/><path fill="url(#aQ)" d="M26.87 13.58c0 .6-1.32 1.08-2.95 1.08-1.64 0-2.96-.48-2.96-1.08 0-.6 1.32-1.1 2.96-1.1 1.63 0 2.95.5 2.95 1.1z" transform="matrix(.584 0 0 .583 -6.598 21.458)" color="#000" overflow="visible" enable-background="accumulate"/><path fill="url(#aR)" stroke="#fff" stroke-width=".981" d="M27.17 5.77c-.4 3.37-1.8 5.37-4 5.37s-3.8-3.12-4-5.37c-.27-2.95 1.8-5.37 4-5.37s4.36 2.43 4 5.37z" color="#000" stroke-linecap="round" overflow="visible" enable-background="accumulate" transform="matrix(.51 0 0 .51 -4.74 23.45)"/><path d="M5.08 31.27l-.7-.76.44-.16z" color="#000" overflow="visible" enable-background="accumulate"/><path fill="url(#aS)" d="M19.7 11.82l-1.77 1.46 1.14 1.43-1.14 1.1 3.32 6.32z" transform="matrix(.51 0 0 .51 -4.74 23.45)"/><path d="M7.66 30.38l1 1.14-1.02.55.9.9-2.37 1.67z"/><path fill="url(#aT)" d="M24.3 13.42l1.77 1.8-1.76.95 1.4 1.57-4.44 4.34z" transform="matrix(.51 0 0 .51 -4.74 23.45)"/><path fill="none" stroke="#000" stroke-width=".50031" d="M6.15 34.64l.02 2.75"/><path fill="none" stroke="#888a85" stroke-width=".50031" d="M5.86 34.62l.03 2.74"/><path fill="url(#aU)" d="M24.1 5.22l2.67-.6.05.45-3.23 1z" transform="matrix(.51 0 0 .51 -4.74 23.45)"/><path d="M4.95 25.52c.4.04.8.1 1.2.37.48-.13 1.08 0 1.7.16 0 0 .04.24-.14.4-.3.3-.4.86-.77.86-.4 0-.75-.8-.93-.85-.12-.03-.22.58-.54.57-.4 0-.4-.96-.5-1.52z"/></g><g><path fill="url(#aV)" d="M40.2 42.95c0 2.57-7.68 4.65-17.17 4.65-9.48 0-17.17-2.08-17.17-4.65 0-2.57 7.7-4.65 17.17-4.65 9.5 0 17.17 2.08 17.17 4.65z" transform="matrix(.41 .077 0 .446 31.326 24.434)" color="#000" overflow="visible" enable-background="accumulate"/><path stroke="#fff" stroke-width="1.02.943" d="M39.44 28.03c-.05 0-.1.02-.13.03l-2.2 1c.03 0 .07 0 .1-.02-.3.15-.56.44-.68.76l-1.14 5.86 1.2.28 1.1-.4.28-.56.16 1.85-1.64 8.4 2.14.66 1.6-1.02.43-1.48.52 2.92 1.83.54 1.9-1.35-.95-7.03 1.3.45 1.54-.77-1.77-7.05c-.1-.7-.43-1.23-1.03-1.55l-4.08-1.5c-.15-.02-.33-.04-.48-.02z"/><path fill="url(#aW)" d="M27.87 45.96L24.9 28.6l4.14-1.8 2.24 16.62z" transform="matrix(.51 0 0 .51 28.999 23.45)"/><path d="M38.6 45.92l1.65-.96 1.45-4.9-1.58.4z"/><path fill="url(#aX)" d="M17.96 26.4l-3.24 16.5 4.23 1.24 2.88-10.8L23.96 45l3.9 1.12-1.9-17.37z" transform="matrix(.51 0 0 .51 28.999 23.45)"/><path fill="url(#aY)" stroke="#fff" stroke-width="2.641" d="M30.46 7.06c0 3.6-2.46 6.5-5.48 6.5-3.03 0-5.48-2.9-5.48-6.5 0-3.58 2.45-6.5 5.48-6.5 3.02 0 5.48 2.92 5.48 6.5z" transform="matrix(.199 0 0 .18 31.34 35.053)" color="#000" stroke-linecap="round" overflow="visible" enable-background="accumulate"/><path d="M36.6 36.05l1.27-4.4.33 3.04-.5.93z"/><path fill="url(#aZ)" stroke="#fff" stroke-width="2.243" d="M30.46 7.06c0 3.6-2.46 6.5-5.48 6.5-3.03 0-5.48-2.9-5.48-6.5 0-3.58 2.45-6.5 5.48-6.5 3.02 0 5.48 2.92 5.48 6.5z" transform="matrix(.235 0 0 .212 39.675 37.864)" color="#000" stroke-linecap="round" overflow="visible" enable-background="accumulate"/><path fill="url(#ba)" stroke="url(#bb)" stroke-width=".981" d="M12.52 23.95l2.3-11.35c.37-1.05 1.53-1.96 2.48-1.62l9.26 3.1c1.3.4 2.16 1.66 2.5 3.07l2.88 13.33-2.62-.9-2.4-10.06-.58 9.42-3.72.62-1.24-2.14-2.26 1.12-2.3-2.1v-9.16L15.1 24.7z" transform="matrix(.51 0 0 .51 28.999 23.45)"/><path fill="url(#bc)" stroke="url(#bd)" stroke-width=".981" d="M16 11.14l4.3-1.94c.28-.1.82-.1 1.2 0l8 2.9c1.17.63 1.83 1.67 2.04 3.05l3.42 13.83-3.02 1.45-2.97-13.2c-.28-1.18-1.4-2.5-2.65-3.05l-9.02-3.15c-.4-.1-.98 0-1.3.1z" transform="matrix(.51 0 0 .51 28.999 23.45)"/><path fill="#eeeeec" d="M39.53 33.9l-.45-4.5 1.7-.83 2.37.82-1.74.93-1.14 3.8z"/><path d="M39.8 34.72l-1.68-2.84.4-.2z"/><path fill="url(#be)" d="M21.7 12.13s-.76.48-.87.88c-.12.4.54.9.54.9l-.88 5.8.7 2.37 1.38-1.86-.25-6.18s.72-.2.73-.55c0-.4-.57-1.08-.57-1.08z" transform="matrix(.51 0 0 .51 28.999 23.45)"/><path fill="url(#bf)" d="M26.87 13.58c0 .6-1.32 1.08-2.95 1.08-1.64 0-2.96-.48-2.96-1.08 0-.6 1.32-1.1 2.96-1.1 1.63 0 2.95.5 2.95 1.1z" transform="matrix(.584 0 0 .583 27.141 21.458)" color="#000" overflow="visible" enable-background="accumulate"/><path fill="url(#bg)" stroke="#fff" stroke-width=".981" d="M27.17 5.77c-.4 3.37-1.8 5.37-4 5.37s-3.8-3.12-4-5.37c-.27-2.95 1.8-5.37 4-5.37s4.36 2.43 4 5.37z" color="#000" stroke-linecap="round" overflow="visible" enable-background="accumulate" transform="matrix(.51 0 0 .51 28.999 23.45)"/><path d="M38.82 31.27l-.7-.76.44-.16z" color="#000" overflow="visible" enable-background="accumulate"/><path fill="url(#bh)" d="M19.7 11.82l-1.77 1.46 1.14 1.43-1.14 1.1 3.32 6.32z" transform="matrix(.51 0 0 .51 28.999 23.45)"/><path d="M41.4 30.38l1 1.14-1.02.55.9.9-2.37 1.67z"/><path fill="url(#bi)" d="M24.3 13.42l1.77 1.8-1.76.95 1.4 1.57-4.44 4.34z" transform="matrix(.51 0 0 .51 28.999 23.45)"/><path fill="none" stroke="#000" stroke-width=".50031" d="M39.9 34.64v2.75"/><path fill="none" stroke="#888a85" stroke-width=".50031" d="M39.6 34.62l.03 2.74"/><path fill="url(#bj)" d="M24.1 5.22l2.67-.6.05.45-3.23 1z" transform="matrix(.51 0 0 .51 28.999 23.45)"/><path d="M38.68 25.52c.4.04.8.1 1.2.37.5-.13 1.1 0 1.72.16 0 0 .03.24-.15.4-.3.3-.43.86-.78.86-.4 0-.75-.8-.93-.85-.12-.03-.22.58-.54.57-.4 0-.4-.96-.52-1.52z"/></g><g><path fill="url(#bk)" d="M40.2 42.95c0 2.57-7.68 4.65-17.17 4.65-9.48 0-17.17-2.08-17.17-4.65 0-2.57 7.7-4.65 17.17-4.65 9.5 0 17.17 2.08 17.17 4.65z" transform="matrix(.41 .077 0 .446 15.366 24.636)" color="#000" overflow="visible" enable-background="accumulate"/><path stroke="#fff" stroke-width="1.02.943" d="M23.48 28.23c-.05 0-.1.02-.13.03l-2.2 1c.02 0 .05 0 .08-.02-.3.15-.55.44-.67.76l-1.14 5.87 1.2.27 1.1-.38.28-.58.16 1.85-1.65 8.4 2.15.66 1.6-1.02.44-1.47.5 2.92 1.84.54 1.9-1.34-.95-7.05 1.3.45 1.53-.77-1.76-7.05c-.1-.7-.43-1.23-1.03-1.55l-4.08-1.5c-.15-.02-.33-.03-.48-.02z"/><path fill="url(#bl)" d="M27.87 45.96L24.9 28.6l4.14-1.8 2.24 16.62z" transform="matrix(.51 0 0 .51 13.039 23.652)"/><path d="M22.65 46.13l1.64-.97 1.44-4.9-1.58.4z"/><path fill="url(#bm)" d="M17.96 26.4l-3.24 16.5 4.23 1.24 2.88-10.8L23.96 45l3.9 1.12-1.9-17.37z" transform="matrix(.51 0 0 .51 13.039 23.652)"/><path fill="url(#bn)" stroke="#fff" stroke-width="2.641" d="M30.46 7.06c0 3.6-2.46 6.5-5.48 6.5-3.03 0-5.48-2.9-5.48-6.5 0-3.58 2.45-6.5 5.48-6.5 3.02 0 5.48 2.92 5.48 6.5z" transform="matrix(.199 0 0 .18 15.38 35.255)" color="#000" stroke-linecap="round" overflow="visible" enable-background="accumulate"/><path d="M20.63 36.26l1.28-4.42.34 3.05-.5.93z"/><path fill="url(#bo)" stroke="#fff" stroke-width="2.243" d="M30.46 7.06c0 3.6-2.46 6.5-5.48 6.5-3.03 0-5.48-2.9-5.48-6.5 0-3.58 2.45-6.5 5.48-6.5 3.02 0 5.48 2.92 5.48 6.5z" transform="matrix(.235 0 0 .212 23.715 38.066)" color="#000" stroke-linecap="round" overflow="visible" enable-background="accumulate"/><path fill="url(#bp)" stroke="url(#bq)" stroke-width=".981" d="M12.52 23.95l2.3-11.35c.37-1.05 1.53-1.96 2.48-1.62l9.26 3.1c1.3.4 2.16 1.66 2.5 3.07l2.88 13.33-2.62-.9-2.4-10.06-.58 9.42-3.72.62-1.24-2.14-2.26 1.12-2.3-2.1v-9.16L15.1 24.7z" transform="matrix(.51 0 0 .51 13.039 23.652)"/><path fill="url(#br)" stroke="url(#bs)" stroke-width=".981" d="M16 11.14l4.3-1.94c.28-.1.82-.1 1.2 0l8 2.9c1.17.63 1.83 1.67 2.04 3.05l3.42 13.83-3.02 1.45-2.97-13.2c-.28-1.18-1.4-2.5-2.65-3.05l-9.02-3.15c-.4-.1-.98 0-1.3.1z" transform="matrix(.51 0 0 .51 13.039 23.652)"/><path fill="#eeeeec" d="M23.57 34.1l-.45-4.5 1.7-.82 2.37.8-1.75.95-1.15 3.8z"/><path d="M23.84 34.92l-1.68-2.83.4-.22z"/><path fill="url(#bt)" d="M21.7 12.13s-.76.48-.87.88c-.12.4.54.9.54.9l-.88 5.8.7 2.37 1.38-1.86-.25-6.18s.72-.2.73-.55c0-.4-.57-1.08-.57-1.08z" transform="matrix(.51 0 0 .51 13.039 23.652)"/><path fill="url(#bu)" d="M26.87 13.58c0 .6-1.32 1.08-2.95 1.08-1.64 0-2.96-.48-2.96-1.08 0-.6 1.32-1.1 2.96-1.1 1.63 0 2.95.5 2.95 1.1z" transform="matrix(.584 0 0 .583 11.181 21.66)" color="#000" overflow="visible" enable-background="accumulate"/><path fill="url(#bv)" stroke="#fff" stroke-width=".981" d="M27.17 5.77c-.4 3.37-1.8 5.37-4 5.37s-3.8-3.12-4-5.37c-.27-2.95 1.8-5.37 4-5.37s4.36 2.43 4 5.37z" color="#000" stroke-linecap="round" overflow="visible" enable-background="accumulate" transform="matrix(.51 0 0 .51 13.039 23.652)"/><path d="M22.86 31.47l-.7-.76.44-.16z" color="#000" overflow="visible" enable-background="accumulate"/><path fill="url(#bw)" d="M19.7 11.82l-1.77 1.46 1.14 1.43-1.14 1.1 3.32 6.32z" transform="matrix(.51 0 0 .51 13.039 23.652)"/><path d="M25.44 30.58l1 1.14-1.02.55.9.9-2.37 1.68z"/><path fill="url(#bx)" d="M24.3 13.42l1.77 1.8-1.76.95 1.4 1.57-4.44 4.34z" transform="matrix(.51 0 0 .51 13.039 23.652)"/><path fill="none" stroke="#000" stroke-width=".50031" d="M23.93 34.85l.02 2.74"/><path fill="none" stroke="#888a85" stroke-width=".50031" d="M23.64 34.82l.03 2.75"/><path fill="url(#by)" d="M24.1 5.22l2.67-.6.05.45-3.23 1z" transform="matrix(.51 0 0 .51 13.039 23.652)"/><path d="M22.72 25.72c.4.04.8.1 1.2.37.5-.13 1.1 0 1.72.16 0 0 .03.24-.15.4-.32.3-.44.87-.8.86-.38 0-.74-.8-.92-.85-.12-.03-.22.58-.54.57-.4 0-.4-.96-.52-1.52z"/></g></g></svg>