<svg xmlns="http://www.w3.org/2000/svg" width="48" height="48" xmlns:xlink="http://www.w3.org/1999/xlink"><defs><linearGradient id="g"><stop offset="0"/><stop offset=".5" stop-opacity=".692"/><stop offset="1" stop-opacity="0"/></linearGradient><linearGradient id="e"><stop offset="0" stop-color="#a40000"/><stop offset="1" stop-color="#5c0000"/></linearGradient><linearGradient id="d"><stop offset="0" stop-color="#b73737"/><stop offset="1" stop-color="#722727"/></linearGradient><linearGradient id="c"><stop offset="0" stop-color="#ddd"/><stop offset="1" stop-color="#8a8a8a"/></linearGradient><linearGradient id="b"><stop offset="0" stop-color="#410d0d"/><stop offset="1" stop-color="#b53939"/></linearGradient><linearGradient id="a"><stop offset="0" stop-color="#f79696"/><stop offset="1" stop-color="#cf3636"/></linearGradient><linearGradient x1="4.786" x2="43.929" y1="12.857" y2="12.857" xlink:href="#a" gradientUnits="userSpaceOnUse"/><linearGradient x1="4.046" x2="44.669" y1="12.857" y2="12.857" xlink:href="#b" gradientUnits="userSpaceOnUse"/><linearGradient x1="4.214" x2="44.357" y1="35.536" y2="35.536" xlink:href="#c" gradientUnits="userSpaceOnUse" gradientTransform="translate(-.286 -2.857)"/><linearGradient x1="4.214" x2="44.357" y1="29.607" y2="29.607" xlink:href="#c" gradientUnits="userSpaceOnUse" gradientTransform="translate(-.286 -2.857)"/><linearGradient x1="4.214" x2="44.357" y1="22.964" y2="22.964" xlink:href="#c" gradientUnits="userSpaceOnUse" gradientTransform="translate(-.286 -2.857)"/><linearGradient x1="14.311" x2="34.371" y1="16.441" y2="16.441" xlink:href="#c" gradientUnits="userSpaceOnUse" gradientTransform="matrix(-1 0 0 1 48.629 0)"/><linearGradient x1="9.652" x2="38.977" y1="12.938" y2="12.938" xlink:href="#c" gradientUnits="userSpaceOnUse" gradientTransform="matrix(-1 0 0 1 48.629 0)"/><linearGradient x1="4.781" x2="43.938" y1="24.25" y2="24.25" xlink:href="#d" gradientUnits="userSpaceOnUse" gradientTransform="translate(-.286 -2.857)"/><linearGradient x1="4.281" x2="44.438" y1="24.25" y2="24.25" xlink:href="#e" gradientUnits="userSpaceOnUse" gradientTransform="translate(-.286 -2.857)"/><linearGradient x1="4.281" x2="44.438" y1="24.25" y2="24.25" xlink:href="#f" gradientUnits="userSpaceOnUse"/><linearGradient id="f"><stop offset="0" stop-color="#a40000"/><stop offset="1" stop-color="#5c0000"/></linearGradient><linearGradient x1="4.781" x2="43.938" y1="24.25" y2="24.25" xlink:href="#d" gradientUnits="userSpaceOnUse" gradientTransform="translate(-.286 -2.857)"/><linearGradient id="j" x1="4.786" x2="43.929" y1="12.857" y2="12.857" xlink:href="#a" gradientUnits="userSpaceOnUse"/><linearGradient id="k" x1="4.046" x2="44.669" y1="12.857" y2="12.857" xlink:href="#b" gradientUnits="userSpaceOnUse"/><linearGradient x1="4.214" x2="44.357" y1="22.964" y2="22.964" xlink:href="#c" gradientUnits="userSpaceOnUse" gradientTransform="translate(-.286 -2.857)"/><linearGradient x1="4.214" x2="44.357" y1="29.607" y2="29.607" xlink:href="#c" gradientUnits="userSpaceOnUse" gradientTransform="translate(-.286 -2.857)"/><linearGradient x1="4.214" x2="44.357" y1="35.536" y2="35.536" xlink:href="#c" gradientUnits="userSpaceOnUse" gradientTransform="translate(-.286 -2.857)"/><linearGradient x1="4.281" x2="44.438" y1="24.25" y2="24.25" xlink:href="#e" gradientUnits="userSpaceOnUse" gradientTransform="translate(-.286 -2.857)"/><linearGradient id="p" x1="9.652" x2="38.977" y1="12.938" y2="12.938" xlink:href="#c" gradientUnits="userSpaceOnUse" gradientTransform="matrix(-1 0 0 1 48.629 0)"/><linearGradient id="q" x1="14.311" x2="34.371" y1="16.441" y2="16.441" xlink:href="#c" gradientUnits="userSpaceOnUse" gradientTransform="matrix(-1 0 0 1 48.629 0)"/><linearGradient id="r" x1="4.281" x2="44.438" y1="24.25" y2="24.25" xlink:href="#f" gradientUnits="userSpaceOnUse"/><radialGradient id="h" cx="25" cy="36.714" r="22.643" xlink:href="#g" fx="25" fy="36.714" gradientTransform="matrix(1 0 0 .489 0 18.763)" gradientUnits="userSpaceOnUse"/><linearGradient id="o" x1="4.281" x2="44.438" y1="24.25" y2="24.25" xlink:href="#e" gradientUnits="userSpaceOnUse" gradientTransform="translate(-.286 -3)"/><linearGradient id="n" x1="4.214" x2="44.357" y1="35.536" y2="35.536" xlink:href="#c" gradientUnits="userSpaceOnUse" gradientTransform="translate(-.286 -3)"/><linearGradient id="m" x1="4.214" x2="44.357" y1="29.607" y2="29.607" xlink:href="#c" gradientUnits="userSpaceOnUse" gradientTransform="translate(-.286 -3)"/><linearGradient id="l" x1="4.214" x2="44.357" y1="22.964" y2="22.964" xlink:href="#c" gradientUnits="userSpaceOnUse" gradientTransform="translate(-.286 -3)"/><linearGradient id="i" x1="4.781" x2="43.938" y1="24.25" y2="24.25" xlink:href="#d" gradientUnits="userSpaceOnUse" gradientTransform="translate(-.286 -3)"/></defs><g><path fill="url(#h)" d="M47.64 36.7a22.64 11.07 0 1 1-45.28 0 22.64 11.07 0 1 1 45.28 0z" transform="matrix(1.008 0 0 1.016 -.019 -.771)" color="#000" overflow="visible" enable-background="accumulate"/><path fill="url(#i)" d="M43.65 9.84c0-5.1-8.78-9.18-19.6-9.18C13.26.66 4.5 4.76 4.5 9.84v22.82m0 0c0 5.1 8.75 9.18 19.56 9.18 10.8 0 19.6-4.1 19.6-9.18V9.84" color="#000" overflow="visible" enable-background="accumulate"/><path fill="url(#j)" d="M43.93 12.86a19.57 9.2 0 1 1-39.14 0 19.57 9.2 0 1 1 39.13 0z" transform="translate(-.357 -2.571)" color="#000" overflow="visible" enable-background="accumulate"/><path fill="url(#k)" d="M43.93 12.86a19.57 9.2 0 1 1-39.14 0 19.57 9.2 0 1 1 39.13 0z" transform="matrix(.756 0 0 .604 5.659 2.094)" color="#000" overflow="visible" enable-background="accumulate"/><path fill="none" stroke="#d3d7cf" d="M8.86 21.2v-5.06l3.85-2.78"/><path fill="none" stroke="#d3d7cf" d="M20.2 15.14l-1.7 4.07v4.87"/><path fill="none" stroke="#babdb6" d="M28.64 15.2l1.5 3.94v5"/><path fill="none" stroke="#888a85" d="M36.2 13l3.44 2.93v5.14"/><path fill="none" stroke="#fff" d="M38.86 9.36l4.7-.57"/><path fill="none" stroke="#fff" d="M9.2 9.93l-4.84.5"/><path fill="none" stroke="#d3d7cf" d="M8.93 4.07L12.7 6.2v4.1"/><path fill="none" stroke="#d3d7cf" d="M17.86 1.43l1.07 3.14v4.36"/><path fill="none" stroke="#d3d7cf" d="M26.57.86l-.64 3.64v4.36"/><path fill="none" stroke="#d3d7cf" d="M35.64 2.64L33.3 5.7v4.1"/><path fill="none" stroke="#d3d7cf" d="M12.7 22.86v6.93"/><path fill="none" stroke="#d3d7cf" d="M23.93 24.43v7.07"/><path fill="none" stroke="#babdb6" d="M35 23v6.8"/><path fill="none" stroke="#d3d7cf" d="M7.8 27.14v6.22"/><path fill="none" stroke="#d3d7cf" d="M17.57 30.64v6.07"/><path fill="none" stroke="#babdb6" d="M29.36 30.86v5.93"/><path fill="none" stroke="#888a85" d="M40 27.14v6.15"/><path fill="none" stroke="#d3d7cf" d="M11.93 35v5"/><path fill="none" stroke="#d3d7cf" d="M23.5 37.14v4.5"/><path fill="none" stroke="#babdb6" d="M34.64 35.43v5.14"/><path fill="none" stroke="url(#l)" d="M43.57 15.36c0 5.1-8.76 9.2-19.57 9.2-10.8 0-19.57-4.1-19.57-9.2" color="#000" overflow="visible" enable-background="accumulate"/><path fill="none" stroke="url(#m)" d="M43.57 22c0 5.1-8.76 9.2-19.57 9.2-10.8 0-19.57-4.1-19.57-9.2" color="#000" overflow="visible" enable-background="accumulate"/><path fill="none" stroke="url(#n)" d="M43.57 27.93c0 5.1-8.76 9.2-19.57 9.2-10.8 0-19.57-4.1-19.57-9.2" color="#000" overflow="visible" enable-background="accumulate"/><path fill="none" stroke="url(#o)" d="M43.65 9.84c0-5.1-8.78-9.18-19.6-9.18C13.26.66 4.5 4.76 4.5 9.84v22.82m0 0c0 5.1 8.75 9.18 19.56 9.18 10.8 0 19.6-4.1 19.6-9.18V9.84" color="#000" overflow="visible" enable-background="accumulate"/><path fill="none" stroke="#d3d7cf" d="M15.57 9.36v4.5"/><path fill="none" stroke="#d3d7cf" d="M22.64 8.5v4.57"/><path fill="none" stroke="#d3d7cf" d="M29.07 8.64v4.5"/><path fill="none" stroke="#babdb6" d="M19.5 13.14v2"/><path fill="none" stroke="#babdb6" d="M25.8 12.93v2.57"/><g fill="none" color="#000"><path stroke="url(#p)" d="M38.48 14.38c-3.57-1.78-8.62-2.88-14.2-2.88-5.56 0-10.57 1.1-14.13 2.83" overflow="visible" enable-background="accumulate" transform="translate(-.286 -3)"/><path stroke="url(#q)" d="M33.82 17.03c-2.83-.75-6.08-1.17-9.55-1.17-3.45 0-6.7.42-9.5 1.16" overflow="visible" enable-background="accumulate" transform="translate(-.286 -3)"/></g><path fill="none" stroke="url(#r)" stroke-width="1.48" d="M43.93 12.86a19.57 9.2 0 1 1-39.14 0 19.57 9.2 0 1 1 39.13 0z" transform="matrix(-.756 0 0 .604 42.484 2.094)" color="#000" overflow="visible" enable-background="accumulate"/></g></svg>