<svg xmlns="http://www.w3.org/2000/svg" width="48" height="48" xmlns:xlink="http://www.w3.org/1999/xlink"><defs><linearGradient id="a"><stop offset="0" stop-color="#fff"/><stop offset="1" stop-color="#fff" stop-opacity="0"/></linearGradient><linearGradient x1="12.736" x2="1.64" y1="28.005" y2="43.135" xlink:href="#a" gradientUnits="userSpaceOnUse" gradientTransform="matrix(-.041 .748 -.748 -.041 34.92 13.018)"/><linearGradient x1="12.736" x2="1.64" y1="28.005" y2="43.135" xlink:href="#a" gradientUnits="userSpaceOnUse" gradientTransform="matrix(-.041 .748 -.748 -.041 34.92 13.018)"/><linearGradient x1="12.736" x2="1.64" y1="28.005" y2="43.135" xlink:href="#a" gradientUnits="userSpaceOnUse" gradientTransform="matrix(-.041 .748 -.748 -.041 34.92 13.018)"/><linearGradient x1="12.736" x2="1.64" y1="28.005" y2="43.135" xlink:href="#a" gradientUnits="userSpaceOnUse" gradientTransform="matrix(-.041 .748 -.748 -.041 34.92 13.018)"/><linearGradient x1="20.806" x2="32.707" y1="16.368" y2="29.94" xlink:href="#b" gradientUnits="userSpaceOnUse" gradientTransform="matrix(0 -1 1 0 -8.772 58.332)"/><linearGradient id="b"><stop offset="0" stop-color="#fcaf3e"/><stop offset="1" stop-color="#fce94f"/></linearGradient><linearGradient x1="20.806" x2="32.707" y1="16.368" y2="29.94" xlink:href="#b" gradientUnits="userSpaceOnUse" gradientTransform="matrix(0 -1 1 0 -8.772 58.332)"/><linearGradient x1="20.806" x2="32.707" y1="16.368" y2="29.94" xlink:href="#b" gradientUnits="userSpaceOnUse"/><linearGradient x1="20.806" x2="32.707" y1="16.368" y2="29.94" xlink:href="#b" gradientUnits="userSpaceOnUse"/><linearGradient id="c" x1="20.806" x2="32.707" y1="16.368" y2="29.94" xlink:href="#b" gradientUnits="userSpaceOnUse"/><linearGradient id="d" x1="20.806" x2="32.707" y1="16.368" y2="29.94" xlink:href="#b" gradientUnits="userSpaceOnUse"/><linearGradient id="f" x1="20.806" x2="32.707" y1="16.368" y2="29.94" xlink:href="#b" gradientUnits="userSpaceOnUse" gradientTransform="matrix(0 -1 1 0 -8.772 58.332)"/><linearGradient id="e" x1="20.806" x2="32.707" y1="16.368" y2="29.94" xlink:href="#b" gradientUnits="userSpaceOnUse" gradientTransform="matrix(0 -1 1 0 -8.772 58.332)"/></defs><g><g><path d="M24.25 25.54l15.14-.3-.15 2.44-2.64 2.36c5.55 2.23 10.1 9.32 11.36 16l-5.42 2c-2.42-6.53-6.63-11.58-11-13.08l-5.15 4.72-2.15-11.5z"/><g><path fill="none" stroke="url(#c)" stroke-width="4" d="M32.64 30.05C29.36 20.4 24 18.2 18.3 15.12" transform="translate(22.286 33.143) translate(-9.964 -18.536)"/><path fill="#fcaf3e" d="M24.6 26.02l2.2 10.45 12-10.8z"/></g></g><g><path d="M.25 1.75L5.18.05c2.25 6.4 6.28 10.4 11.36 12.84l4.92-4.5 2.58 12.42-1 2.8-15.72.2.8-3.78 2-1.65C5.43 15.23 1.3 11.1.1 5.6z"/><g><path fill="none" stroke="url(#d)" stroke-width="4" d="M32.64 30.05C29.36 20.4 24 18.2 18.3 15.12" transform="matrix(-1 0 0 -1 35.524 31.64)"/><path fill="#fcaf3e" d="M23.24 20.22l-2.2-10.44-12 10.8z"/></g></g><g><path d="M45.54.04l1.7 5.07-1 3c-4.72 1.55-8.4 5.3-10.7 9.15l5.28 3.57-1.2 3.3-13.5.27-1.37-8.8.07-5.78 5.07 3.5c3-6.2 7.83-11.5 15.64-13.28z"/><g><path fill="none" stroke="url(#e)" stroke-width="4" d="M21.27 25.7C11.6 28.97 9.4 34.35 6.35 40.03" transform="translate(22.714 -15.571) translate(1.964 -7.321)"/><path fill="#fcaf3e" d="M26.82 21.16l12.87-.27-14.3-9.8z"/></g></g><g><path d="M7.46 25.6l13.5-.42 1.36 10.86-.5 2.64-4.5-3.14C15.2 40.3 8.8 46 1.9 48.24L.1 43.47v-2.14c4.8-1.67 10.5-5.3 12-9.78l-4.78-3.08z"/><g><path fill="none" stroke="url(#f)" stroke-width="4" d="M21.27 25.7C11.6 28.97 9.4 34.35 6.35 40.03" transform="matrix(-1 0 0 -1 22.739 69.64)"/><path fill="#fcaf3e" d="M20.6 25.6l-12.88.26 14.3 9.8z"/></g></g></g></svg>