<svg xmlns="http://www.w3.org/2000/svg" width="48" height="48" xmlns:xlink="http://www.w3.org/1999/xlink"><defs><linearGradient><stop offset="0" stop-color="#fcaf3e"/><stop offset="1" stop-color="#fce94f"/></linearGradient><linearGradient id="a"><stop offset="0" stop-color="#fcaf3e"/><stop offset="1" stop-color="#fce94f"/></linearGradient><linearGradient id="b" x1="16.786" x2="2.143" y1="8.281" y2="13.924" xlink:href="#a" gradientUnits="userSpaceOnUse" gradientTransform="translate(5.536 19.299)"/></defs><g><g fill="none" stroke="#ef2929" stroke-width="1.169"><path d="M12 .95v10.2"/><path d="M6.93 7.72l10.1-3.54"/><path d="M6.93 4.18l10.1 3.54"/></g><g fill="none" stroke="#ef2929" stroke-width="1.169" opacity=".823"><path d="M23.77 3.82v10.2"/><path d="M18.7 10.6l10.1-3.54"/><path d="M18.7 7.06l10.1 3.54"/></g><g fill="none" stroke="#ef2929" stroke-width="1.169" opacity=".473"><path d="M33.64 10.6v10.2"/><path d="M28.56 17.37l10.1-3.54"/><path d="M28.56 13.83l10.1 3.54"/></g><g fill="none" stroke="#ef2929" stroke-width="1.169" opacity=".243"><path d="M41.84 17v10.2"/><path d="M36.77 23.78l10.1-3.55"/><path d="M36.77 20.23l10.1 3.55"/></g><g><path d="M16.75 13.52L30 21.24l.68 3.43-4.88 1.7c2.04 11.14-4.2 21.05-18.85 21.6l-3-4.4 1.42-6.97c5.82 1.05 10.9-1.7 10.93-7.16l-4.57 1.2-1.28-4.3z"/><path fill="none" stroke="url(#b)" stroke-width="4.112" d="M7.68 32.87c5.37 4.73 13.05 1.9 14.57-6.7" transform="matrix(1.28 -.7 .7 1.28 -27.275 3.939)"/><path fill="#fcaf3e" d="M17.15 14.7l-5.72 11.7 17.53-5.1z"/></g></g></svg>