<svg xmlns="http://www.w3.org/2000/svg" width="48" height="48" xmlns:xlink="http://www.w3.org/1999/xlink"><defs><linearGradient id="f"><stop offset="0" stop-color="#ffab02"/><stop offset="1" stop-color="#ffab02" stop-opacity="0"/></linearGradient><linearGradient id="e"><stop offset="0" stop-color="#fff"/><stop offset="1" stop-color="#fff" stop-opacity="0"/></linearGradient><linearGradient id="d"><stop offset="0" stop-color="#fff"/><stop offset="1" stop-color="#fff" stop-opacity="0"/></linearGradient><linearGradient id="c"><stop offset="0" stop-color="#fff"/><stop offset="1" stop-color="#fff" stop-opacity="0"/></linearGradient><linearGradient id="b"><stop offset="0" stop-color="#fff"/><stop offset="1" stop-color="#fff" stop-opacity="0"/></linearGradient><linearGradient id="a"><stop offset="0" stop-color="#fff"/><stop offset="1" stop-color="#fff" stop-opacity="0"/></linearGradient><linearGradient x1="16.786" x2="2.143" y1="8.281" y2="13.924" xlink:href="#a" gradientUnits="userSpaceOnUse" gradientTransform="translate(-61.786 1.429)"/><linearGradient x1="13.33" x2="1.64" y1="26.635" y2="43.135" xlink:href="#b" gradientUnits="userSpaceOnUse" gradientTransform="translate(-61.786 1.429)"/><linearGradient x1="24.929" x2="43" y1="26.143" y2="45.786" xlink:href="#c" gradientUnits="userSpaceOnUse" gradientTransform="translate(-61.786 1.429)"/><linearGradient x1="33.857" x2="47.357" y1="19.286" y2="30.714" xlink:href="#d" gradientUnits="userSpaceOnUse" gradientTransform="translate(-61.786 1.429)"/><linearGradient x1="34.429" x2="46.857" y1="7.346" y2="8.56" xlink:href="#e" gradientUnits="userSpaceOnUse" gradientTransform="translate(-61.786 1.429)"/><linearGradient id="g" x1="36.697" x2="7.43" y1="36.126" y2="33.769" xlink:href="#f" gradientUnits="userSpaceOnUse" gradientTransform="matrix(.984 0 0 .984 -.095 -.22)"/></defs><g><path fill="none" stroke="#000" stroke-width="7" d="M42.22 21.82c-2.07-.22-6.05-.73-5.47-3.48.5-2.4 3.22-3.95 3-6.68-.23-3.15-2.63-5.62-5.5-6.68-3.75-1.4-8-2.12-11.82-.9-2.43.8-1.55 4.1-2.56 6.02-1.13 2.13-3.63 1.1-4.9-.4-1.3-1.58-3.3-2.98-5.54-2.4-3.52.94-6.75 4.8-5.24 8.43 1.14 2.73 4.5 3.4 7.22 3.14 4.54-.43 9.07-2.65 13.6-1.47 2.76.72 5.8 4.34 5.55 6.78-.24 2.2-2.7 5.93-5.9 5.8-4.74-.2-9.36-3.06-14.1-1.6-3.13.98-4.2 4.76-3.93 7.7.4 4.46 4.5 8.16 9.07 8.35 5.9.24 11.52-2.1 16.42-5.1 1.86-1.15 3.6-2.5 5.05-4.14"/><path d="M46 27.26l-3.1 18.08L28.25 28z"/><path fill="none" stroke="#fce94f" stroke-width="4" d="M42.22 21.2c-2.07-.2-6.05-.73-5.47-3.47.5-2.4 3.22-3.95 3-6.68-.23-3.15-2.63-5.63-5.5-6.68-3.75-1.4-8-2.12-11.82-.9-2.43.8-1.55 4.1-2.56 6-1.13 2.15-3.63 1.13-4.9-.4-1.3-1.57-3.3-2.96-5.54-2.37-3.52.92-6.75 4.8-5.24 8.4 1.14 2.75 4.5 3.42 7.22 3.16 4.54-.44 9.07-2.65 13.6-1.47 2.76.7 5.8 4.33 5.55 6.76-.24 2.2-2.7 5.94-5.9 5.8-4.74-.18-9.36-3.05-14.1-1.58-3.13.97-4.2 4.75-3.93 7.68.4 4.46 4.5 8.17 9.07 8.36 5.9.23 11.52-2.1 16.42-5.1 1.86-1.15 3.6-2.52 5.05-4.14"/><path fill="none" stroke="url(#g)" stroke-width="4" d="M6.64 35.46c.4 4.46 4.5 8.17 9.07 8.36 5.9.23 11.52-2.1 16.42-5.1 1.86-1.15 3.6-2.52 5.05-4.14"/><path fill="#fcaf3e" d="M44.47 28l-2.3 14-11.13-13.22z"/></g></svg>