<svg xmlns="http://www.w3.org/2000/svg" width="48" height="48" xmlns:xlink="http://www.w3.org/1999/xlink"><defs><linearGradient id="c"><stop offset="0" stop-color="#fcaf3e"/><stop offset="1" stop-color="#fce94f"/></linearGradient><linearGradient id="a"><stop offset="0"/><stop offset="1" stop-opacity="0"/></linearGradient><linearGradient id="b"><stop offset="0" stop-color="#fff"/><stop offset="1" stop-color="#fff" stop-opacity="0"/></linearGradient><linearGradient x1="32.919" x2="45.436" y1="27.978" y2="43.692" xlink:href="#a" gradientUnits="userSpaceOnUse" gradientTransform="matrix(1.057 0 0 1.052 -2.629 -.534)"/><linearGradient x1="16.134" x2="1.776" y1="8.811" y2="13.802" xlink:href="#b" gradientUnits="userSpaceOnUse" gradientTransform="matrix(-1.402 -1.537 -1.402 1.537 67.872 28.147)"/><linearGradient x1="32.919" x2="45.436" y1="27.978" y2="43.692" xlink:href="#a" gradientUnits="userSpaceOnUse" gradientTransform="matrix(.867 0 0 -.863 -20.234 39.427)"/><linearGradient id="d" x1="9.462" x2="19.161" y1="25.983" y2="1.055" xlink:href="#c" gradientUnits="userSpaceOnUse" gradientTransform="matrix(1.021 0 0 1.021 .123 .918)"/></defs><g><path fill="none" stroke="#204a87" stroke-opacity=".251" stroke-width="4" d="M11.06 30.9C13.18 37 18.8 45.66 26.9 45.9c11.33.34 18.97-11.3 18.6-20.64-.32-7.56-7.48-16.4-17.08-16.7-6.84-.22-8.8 5.6-8.68 9.04.2 5 5.7 9.04 9.48 11.38"/><path fill="none" stroke="#729fcf" stroke-width="2" d="M11.06 30.9C13.18 37 18.8 45.66 26.9 45.9c11.33.34 18.97-11.3 18.6-20.64-.32-7.56-7.48-16.4-17.08-16.7-6.84-.22-8.8 5.6-8.68 9.04.2 5 5.7 9.04 9.48 11.38" stroke-dasharray="3.99999997, 1.99999999"/><path d="M19.1.04l3.05 4.45-.88 3.5c-6.43 3.74-10.48 9.98-9.1 18.08l6.55-1.6-.95 5.1-4.88 8.68L1 32.36l.07-3.8L6.4 27.4C2.43 16.42 8.05 5.83 19.1.03z"/><path fill="none" stroke="url(#d)" stroke-width="4" d="M20.05 2.44C10.37 9 3.97 17.24 10.82 29.84"/><path fill="#fcaf3e" d="M12.66 34.76l5.28-9.48-16.5 4.2z"/><path fill="#fff" stroke="#000" d="M28.83 28.68l-6.95 1.23 2.2 3.36 5.24-2.7 1.63 6.46 4.33-2.45-3.92-4.5 6.38-.82-3.2-5.47-3.83 3.6-.73-6.63-3.68 1.07z"/></g></svg>