<svg xmlns="http://www.w3.org/2000/svg" width="48" height="48" xmlns:xlink="http://www.w3.org/1999/xlink"><defs><linearGradient id="e"><stop offset="0" stop-color="#fcaf3e"/><stop offset="1" stop-color="#fce94f"/></linearGradient><linearGradient id="d"><stop offset="0" stop-color="#fac2c2" stop-opacity="0"/><stop offset="1" stop-color="#fac2c2"/></linearGradient><linearGradient id="c"><stop offset="0" stop-color="#d3d7cf"/><stop offset="1" stop-color="#85907a"/></linearGradient><linearGradient id="b"><stop offset="0"/><stop offset="1" stop-opacity="0"/></linearGradient><linearGradient id="a"><stop offset="0" stop-color="#fff"/><stop offset="1" stop-color="#fff" stop-opacity="0"/></linearGradient><linearGradient x1="16.134" x2="12.292" y1="8.811" y2="13.524" xlink:href="#a" gradientUnits="userSpaceOnUse" gradientTransform="matrix(-1.618 -1.797 -1.618 1.797 53.175 45.681)"/><linearGradient x1="32.505" x2="32.513" y1="21.9" y2="28.743" xlink:href="#b" gradientUnits="userSpaceOnUse" gradientTransform="matrix(1.219 0 0 1.23 -28.184 12.159)"/><linearGradient x1="12" x2="14.036" y1="5.214" y2="24.786" xlink:href="#c" gradientUnits="userSpaceOnUse"/><radialGradient id="f" cx="20" cy="16.361" r="7.714" xlink:href="#d" fx="20" fy="16.361" gradientTransform="matrix(3.529 -1.194 1 2.913 -68.551 -1.32)" gradientUnits="userSpaceOnUse"/><linearGradient id="g" x1="16.35" x2="12.292" y1="8.408" y2="13.524" xlink:href="#e" gradientUnits="userSpaceOnUse" gradientTransform="matrix(-1.529 -1.698 -1.529 1.698 52.86 43.198)"/></defs><g><path d="M18.47 20.86l7.92 11.36-.68 2.2-7.64-1.63c-1.23 4.52-1.4 9.7.1 14.2l-7.92 1.35c-1.34-3.67-2.14-11.47.3-17.1L5.3 30.03l.28-3.15z"/><path fill="url(#f)" d="M18.1 22.7L27.13.93c6.15.73 15.27 6.4 18.44 12.6z"/><path fill="none" stroke="#ef2929" d="M27.63.05L17.9 22.7l30.06-9.65"/><path fill="none" stroke="url(#g)" stroke-width="6" d="M13.76 44.94c-.5-2.8-2.14-9.67 3.06-18.48"/><path fill="#fcaf3e" d="M18.36 21.6l7.07 10.3-19.2-4.4z"/><path fill="none" stroke="#ef2929" d="M30.93 4.54l2.45-3.4"/><path fill="none" stroke="#ef2929" d="M35.53 7.8L40 3.9"/><path fill="none" stroke="#ef2929" d="M40.36 11.1l4.4-2.4"/></g></svg>