<svg xmlns="http://www.w3.org/2000/svg" width="48" height="48" xmlns:xlink="http://www.w3.org/1999/xlink"><defs><linearGradient id="f"><stop offset="0" stop-color="#fcaf3e"/><stop offset="1" stop-color="#fce94f"/></linearGradient><linearGradient id="e"><stop offset="0" stop-color="#fff"/><stop offset="1" stop-color="#fff" stop-opacity="0"/></linearGradient><linearGradient id="d"><stop offset="0" stop-color="#fff"/><stop offset="1" stop-color="#fff" stop-opacity="0"/></linearGradient><linearGradient id="c"><stop offset="0" stop-color="#fff"/><stop offset="1" stop-color="#fff" stop-opacity="0"/></linearGradient><linearGradient id="b"><stop offset="0" stop-color="#fff"/><stop offset="1" stop-color="#fff" stop-opacity="0"/></linearGradient><linearGradient id="a"><stop offset="0" stop-color="#fff"/><stop offset="1" stop-color="#fff" stop-opacity="0"/></linearGradient><linearGradient x1="16.786" x2="2.143" y1="8.281" y2="13.924" xlink:href="#a" gradientUnits="userSpaceOnUse"/><linearGradient x1="13.33" x2="1.64" y1="26.635" y2="43.135" xlink:href="#b" gradientUnits="userSpaceOnUse"/><linearGradient x1="24.929" x2="43" y1="26.143" y2="45.786" xlink:href="#c" gradientUnits="userSpaceOnUse"/><linearGradient x1="33.857" x2="47.357" y1="19.286" y2="30.714" xlink:href="#d" gradientUnits="userSpaceOnUse"/><linearGradient x1="34.429" x2="46.857" y1="7.346" y2="8.56" xlink:href="#e" gradientUnits="userSpaceOnUse"/><linearGradient x1="13.33" x2="1.64" y1="26.635" y2="43.135" xlink:href="#b" gradientUnits="userSpaceOnUse"/><linearGradient x1="13.33" x2="1.64" y1="26.635" y2="43.135" xlink:href="#b" gradientUnits="userSpaceOnUse"/><linearGradient x1="13.33" x2="1.64" y1="26.635" y2="43.135" xlink:href="#b" gradientUnits="userSpaceOnUse"/><linearGradient x1="13.33" x2="1.64" y1="26.635" y2="43.135" xlink:href="#b" gradientUnits="userSpaceOnUse"/><linearGradient x1="13.33" x2="1.64" y1="26.635" y2="43.135" xlink:href="#b" gradientUnits="userSpaceOnUse"/><linearGradient x1="13.33" x2="1.64" y1="26.635" y2="43.135" xlink:href="#b" gradientUnits="userSpaceOnUse"/><linearGradient x1="12.736" x2="1.64" y1="28.005" y2="43.135" xlink:href="#b" gradientUnits="userSpaceOnUse" gradientTransform="matrix(-.041 .748 -.748 -.041 34.92 13.018)"/><linearGradient id="g" x1="20.806" x2="32.707" y1="16.368" y2="29.94" xlink:href="#f" gradientUnits="userSpaceOnUse"/><linearGradient id="h" x1="20.806" x2="32.707" y1="16.368" y2="29.94" xlink:href="#f" gradientUnits="userSpaceOnUse"/><linearGradient id="j" x1="20.806" x2="32.707" y1="16.368" y2="29.94" xlink:href="#f" gradientUnits="userSpaceOnUse" gradientTransform="matrix(0 -1 1 0 -8.772 58.332)"/><linearGradient id="i" x1="20.806" x2="32.707" y1="16.368" y2="29.94" xlink:href="#f" gradientUnits="userSpaceOnUse" gradientTransform="matrix(0 -1 1 0 -8.772 58.332)"/></defs><g><path d="M24.3 26.07l4.9-1.7c2.27 6.4 6.3 10.4 11.37 12.84l4.93-4.5 2.57 12.44-1 2.8-15.7.2.77-3.78 2-1.65c-4.67-3.14-8.8-7.3-10-12.77z"/><path d="M20.93 23.57l1.7 5.07-1 3c-4.72 1.55-8.4 5.3-10.7 9.15l5.28 3.56-1.2 3.28-13.5.3-1.36-8.8.07-5.78 5.1 3.5c3-6.2 7.82-11.5 15.63-13.3z"/><path d="M33.3.5L46.8.07l1.34 10.86-.5 2.64-4.5-3.14c-2.12 4.78-8.52 10.47-15.43 12.7l-1.77-4.77V16.2c4.8-1.65 10.48-5.3 12-9.77l-4.8-3.07z"/><path d="M.07.36L15.2.06l-.13 2.44-2.64 2.36c5.54 2.23 10.1 9.32 11.36 16l-5.44 2c-2.42-6.52-6.63-11.58-11-13.07L2.2 14.5.08 3z"/><g><path fill="none" stroke="url(#g)" stroke-width="4" d="M32.64 30.05C29.36 20.4 24 18.2 18.3 15.12" transform="translate(-11.857 -10.571)"/><path fill="#fcaf3e" d="M.42.84l2.2 10.45 12-10.8z"/></g><g><path fill="none" stroke="url(#h)" stroke-width="4" d="M32.64 30.05C29.36 20.4 24 18.2 18.3 15.12" transform="matrix(-1 0 0 -1 59.56 55.962)"/><path fill="#fcaf3e" d="M47.28 44.55l-2.2-10.45-12 10.8z"/></g><g><path fill="none" stroke="url(#i)" stroke-width="4" d="M21.27 25.7C11.6 28.97 9.4 34.35 6.35 40.03" transform="translate(.071 .643)"/><path fill="#fcaf3e" d="M2.2 44.7l12.9-.28L.8 34.64z"/></g><g><path fill="none" stroke="url(#j)" stroke-width="4" d="M21.27 25.7C11.6 28.97 9.4 34.35 6.35 40.03" transform="matrix(-1 0 0 -1 48.56 44.533)"/><path fill="#fcaf3e" d="M46.42.48L33.54.75l14.3 9.8z"/></g></g></svg>