<svg xmlns="http://www.w3.org/2000/svg" width="48" height="48" xmlns:xlink="http://www.w3.org/1999/xlink"><defs><linearGradient id="d"><stop offset="0" stop-color="#fcaf3e"/><stop offset="1" stop-color="#fce94f"/></linearGradient><linearGradient id="c"><stop offset="0" stop-color="#eeeeec"/><stop offset="1" stop-color="#d3d7cf" stop-opacity="0"/></linearGradient><linearGradient><stop offset="0" stop-color="#d3d7cf"/><stop offset="1" stop-color="#85907a"/></linearGradient><linearGradient x1="18.286" x2="29.064" y1="15.321" y2="31.25" xlink:href="#a" gradientUnits="userSpaceOnUse"/><linearGradient id="a"><stop offset="0" stop-color="#71746f"/><stop offset="1" stop-color="#434542"/></linearGradient><linearGradient x1="18.643" x2="24.143" y1="16.464" y2="23.607" xlink:href="#b" gradientUnits="userSpaceOnUse"/><linearGradient id="b"><stop offset="0" stop-color="#babdb6"/><stop offset="1" stop-color="#babdb6" stop-opacity="0"/></linearGradient><linearGradient x1="18.257" x2="31.872" y1="13.697" y2="29.297" xlink:href="#c" gradientUnits="userSpaceOnUse"/><linearGradient x1="9.286" x2="44" y1="12.786" y2="43" xlink:href="#d" gradientUnits="userSpaceOnUse" gradientTransform="matrix(.987 0 0 .987 .705 -2.491)"/><linearGradient id="k" x1="9.286" x2="44" y1="12.786" y2="43" xlink:href="#d" gradientUnits="userSpaceOnUse" gradientTransform="matrix(.987 0 0 .987 .705 -3.277)"/><linearGradient id="v" x1="9.286" x2="44" y1="12.786" y2="43" xlink:href="#d" gradientUnits="userSpaceOnUse" gradientTransform="matrix(.987 0 0 .987 .705 -3.277)"/><linearGradient id="l" x1="4.781" x2="43.938" y1="24.25" y2="24.25" xlink:href="#e" gradientUnits="userSpaceOnUse" gradientTransform="translate(-.286 -2.857)"/><linearGradient id="e"><stop offset="0" stop-color="#c62828"/><stop offset="1" stop-color="#7f1a1a"/></linearGradient><linearGradient id="m" x1="4.786" x2="43.929" y1="12.857" y2="12.857" xlink:href="#f" gradientUnits="userSpaceOnUse"/><linearGradient id="f"><stop offset="0" stop-color="#f79696"/><stop offset="1" stop-color="#cf3636"/></linearGradient><linearGradient id="n" x1="4.046" x2="44.669" y1="12.857" y2="12.857" xlink:href="#g" gradientUnits="userSpaceOnUse"/><linearGradient id="g"><stop offset="0" stop-color="#410d0d"/><stop offset="1" stop-color="#c62828"/></linearGradient><linearGradient id="o" x1="4.214" x2="44.357" y1="22.964" y2="22.964" xlink:href="#h" gradientUnits="userSpaceOnUse" gradientTransform="translate(-.286 -2.857)"/><linearGradient id="h"><stop offset="0" stop-color="#fff"/><stop offset="1" stop-color="#9b9b9b"/></linearGradient><linearGradient id="p" x1="4.214" x2="44.357" y1="29.607" y2="29.607" xlink:href="#h" gradientUnits="userSpaceOnUse" gradientTransform="translate(-.286 -2.857)"/><linearGradient><stop offset="0" stop-color="#fff"/><stop offset="1" stop-color="#9b9b9b"/></linearGradient><linearGradient id="q" x1="4.214" x2="44.357" y1="35.536" y2="35.536" xlink:href="#h" gradientUnits="userSpaceOnUse" gradientTransform="translate(-.286 -2.857)"/><linearGradient><stop offset="0" stop-color="#fff"/><stop offset="1" stop-color="#9b9b9b"/></linearGradient><linearGradient id="r" x1="4.281" x2="44.438" y1="24.25" y2="24.25" xlink:href="#i" gradientUnits="userSpaceOnUse" gradientTransform="translate(-.286 -2.857)"/><linearGradient id="i"><stop offset="0" stop-color="#a40000"/><stop offset="1" stop-color="#5c0000"/></linearGradient><linearGradient id="s" x1="9.652" x2="38.977" y1="12.938" y2="12.938" xlink:href="#h" gradientUnits="userSpaceOnUse" gradientTransform="matrix(-1 0 0 1 48.629 0)"/><linearGradient><stop offset="0" stop-color="#fff"/><stop offset="1" stop-color="#9b9b9b"/></linearGradient><linearGradient id="t" x1="14.311" x2="34.371" y1="16.441" y2="16.441" xlink:href="#h" gradientUnits="userSpaceOnUse" gradientTransform="matrix(-1 0 0 1 48.629 0)"/><linearGradient><stop offset="0" stop-color="#fff"/><stop offset="1" stop-color="#9b9b9b"/></linearGradient><linearGradient x1="4.281" x2="44.438" y1="24.25" y2="24.25" xlink:href="#j" gradientUnits="userSpaceOnUse"/><linearGradient id="j"><stop offset="0" stop-color="#a40000"/><stop offset="1" stop-color="#5c0000"/></linearGradient><linearGradient id="u" x1="4.281" x2="44.438" y1="24.25" y2="24.25" gradientUnits="userSpaceOnUse" xlink:href="#j"/></defs><g><path d="M3.45 2.7L19.3 4.9l-.48 3.38-2.96 1.13c3.26-.04 17.67-1.32 22.63 3.1 5.56 5-.02 14.9 2.3 18 2.1 2.76 4.74 4.9 7.27 7.74l-1 4.23-7.18 3.1s-4.87-6.65-7.2-9.37c-3.53-4.14 1.7-13.84-.76-16.13-5.06-4.7-16.26 1.18-23.4-3.05-1.04-.6-2.97-2.75-2.97-2.75L0 16.74l.14-4.44z"/><path fill="url(#k)" d="M34.33 21.94c.3-2.17.2-4.2-1-5.62-3.8-4.58-20.5 1.6-24.8-3.4-1.4-1.6-2.68-2.95-2.68-2.95l6.13-2.1s1.17 1.25 1.76 1.75c2 1.7 19.7-2.65 25.24 4.3 1.77 2.22 1.6 5.53 1.16 8.65"/><g><path fill="url(#l)" d="M43.65 10c0-5.1-8.78-9.2-19.6-9.2C13.26.8 4.5 4.9 4.5 10v22.8m0 0c0 5.1 8.75 9.2 19.56 9.2 10.8 0 19.6-4.1 19.6-9.2V10" color="#000" overflow="visible" enable-background="accumulate" transform="matrix(.681 0 0 .681 4.083 9.933)"/><path fill="url(#m)" d="M43.93 12.86c0 5.1-8.76 9.2-19.57 9.2-10.8 0-19.57-4.1-19.57-9.2s8.75-9.22 19.56-9.22c10.8 0 19.57 4.13 19.57 9.22z" transform="matrix(.681 0 0 .681 3.84 8.279)" color="#000" overflow="visible" enable-background="accumulate"/><path fill="url(#n)" d="M43.93 12.86c0 5.1-8.76 9.2-19.57 9.2-10.8 0-19.57-4.1-19.57-9.2s8.75-9.22 19.56-9.22c10.8 0 19.57 4.13 19.57 9.22z" transform="matrix(.515 0 0 .411 7.937 11.456)" color="#000" overflow="visible" enable-background="accumulate"/><path fill="none" stroke="#fff" stroke-width="0.68" d="M10.1 24.48v-3.46l2.64-1.9"/><path fill="none" stroke="#fff" stroke-width="0.68" d="M17.85 20.34l-1.17 2.78v3.3"/><path fill="none" stroke="#d3d7cf" stroke-width="0.68" d="M23.6 20.4l1 2.67v3.4"/><path fill="none" stroke="#babdb6" stroke-width="0.68" d="M28.74 18.88l2.34 2v3.5"/><path fill="none" stroke="#fff" stroke-width="0.68" d="M30.54 16.4l3.22-.4"/><path fill="none" stroke="#fff" stroke-width="0.68" d="M10.36 16.8l-3.3.33"/><path fill="none" stroke="#d3d7cf" stroke-width="0.68" d="M10.16 12.8l2.58 1.46v2.77"/><path fill="none" stroke="#d3d7cf" stroke-width="0.68" d="M16.24 11l.73 2.14v2.97"/><path fill="none" stroke="#d3d7cf" stroke-width="0.68" d="M22.18 10.6l-.44 2.5v2.96"/><path fill="none" stroke="#d3d7cf" stroke-width="0.68" d="M28.36 11.83l-1.6 2.1v2.76"/><path fill="none" stroke="#fff" stroke-width="0.68" d="M12.74 25.6v4.7"/><path fill="none" stroke="#fff" stroke-width="0.68" d="M20.38 26.67v4.8"/><path fill="none" stroke="#d3d7cf" stroke-width="0.68" d="M27.92 25.7v4.6"/><path fill="none" stroke="#fff" stroke-width="0.68" d="M9.4 28.5v4.25"/><path fill="none" stroke="#fff" stroke-width="0.68" d="M16.05 30.9v4.13"/><path fill="none" stroke="#d3d7cf" stroke-width="0.68" d="M24.08 31.04v4.04"/><path fill="none" stroke="#babdb6" stroke-width="0.68" d="M31.32 28.5v4.2"/><path fill="none" stroke="#fff" stroke-width="0.68" d="M12.2 33.87v3.4"/><path fill="none" stroke="#fff" stroke-width="0.68" d="M20.1 35.32v3.07"/><path fill="none" stroke="#d3d7cf" stroke-width="0.68" d="M27.67 34.16v3.5"/><path fill="none" stroke="url(#o)" d="M43.57 15.5c0 5.1-8.76 9.2-19.57 9.2-10.8 0-19.57-4.1-19.57-9.2" color="#000" overflow="visible" enable-background="accumulate" transform="matrix(.681 0 0 .681 4.083 9.933)"/><path fill="none" stroke="url(#p)" d="M43.57 22.14c0 5.1-8.76 9.22-19.57 9.22-10.8 0-19.57-4.13-19.57-9.22" color="#000" overflow="visible" enable-background="accumulate" transform="matrix(.681 0 0 .681 4.083 9.933)"/><path fill="none" stroke="url(#q)" d="M43.57 28.07c0 5.1-8.76 9.22-19.57 9.22-10.8 0-19.57-4.14-19.57-9.23" color="#000" overflow="visible" enable-background="accumulate" transform="matrix(.681 0 0 .681 4.083 9.933)"/><path fill="none" stroke="url(#r)" d="M43.65 10c0-5.1-8.78-9.2-19.6-9.2C13.26.8 4.5 4.9 4.5 10v22.8m0 0c0 5.1 8.75 9.2 19.56 9.2 10.8 0 19.6-4.1 19.6-9.2V10" color="#000" overflow="visible" enable-background="accumulate" transform="matrix(.681 0 0 .681 4.083 9.933)"/><path fill="none" stroke="#d3d7cf" stroke-width="0.68" d="M14.7 16.4v3.07"/><path fill="none" stroke="#d3d7cf" stroke-width="0.68" d="M19.5 15.82v3.1"/><path fill="none" stroke="#d3d7cf" stroke-width="0.68" d="M23.88 15.92v3.06"/><path fill="none" stroke="#babdb6" stroke-width="0.68" d="M17.36 18.98v1.36"/><path fill="none" stroke="#babdb6" stroke-width="0.68" d="M21.64 18.83v1.76"/><g fill="none" color="#000"><path stroke="url(#s)" d="M38.48 14.38c-3.57-1.78-8.62-2.88-14.2-2.88-5.56 0-10.57 1.1-14.13 2.83" overflow="visible" enable-background="accumulate" transform="matrix(.681 0 0 .681 3.888 7.987)"/><path stroke="url(#t)" d="M33.82 17.03c-2.83-.75-6.08-1.17-9.55-1.17-3.45 0-6.7.42-9.5 1.16" overflow="visible" enable-background="accumulate" transform="matrix(.681 0 0 .681 3.888 7.987)"/></g><path fill="none" stroke="url(#u)" stroke-width="1.48" d="M43.93 12.86c0 5.1-8.76 9.2-19.57 9.2-10.8 0-19.57-4.1-19.57-9.2s8.75-9.22 19.56-9.22c10.8 0 19.57 4.13 19.57 9.22z" transform="matrix(-.515 0 0 .411 33.015 11.456)" color="#000" overflow="visible" enable-background="accumulate"/></g><path fill="#fcaf3e" d="M3.88 3.28l-3.25 10 17.7-8.1z"/><path fill="url(#v)" d="M40.2 21.2c-.47 3.46-1.35 8.04-.23 9.36 1.74 2.06 7.54 7.9 7.54 7.9l-6.83 2.67s-4.4-5.07-6.98-8.4c-1.7-2.18.17-8.17.7-12.2"/><path d="M32.93 29.3l-.43 6.13 1.57 2.5 1.07-3.5c-1.33-1.18-2.1-2.9-2.2-5.14z"/></g></svg>