<svg xmlns="http://www.w3.org/2000/svg" width="48" height="48" xmlns:xlink="http://www.w3.org/1999/xlink"><defs><linearGradient id="l"><stop offset="0" stop-color="#fcaf3e"/><stop offset="1" stop-color="#f57900"/></linearGradient><radialGradient id="C" cx="23.031" cy="42.949" r="17.923" xlink:href="#a" fx="23.031" fy="42.949" gradientTransform="matrix(1 0 0 .301 0 30.017)" gradientUnits="userSpaceOnUse"/><linearGradient id="a"><stop offset="0" stop-opacity=".581"/><stop offset="1" stop-opacity="0"/></linearGradient><linearGradient id="D" x1="25.961" x2="28.082" y1="30.423" y2="45.02" xlink:href="#b" gradientUnits="userSpaceOnUse" gradientTransform="matrix(1.168 0 0 1.071 -3.12 -4.042)"/><linearGradient id="b"><stop offset="0"/><stop offset="1" stop-color="#626262"/></linearGradient><linearGradient id="E" x1="21.39" x2="20.875" y1="27.622" y2="43.936" xlink:href="#c" gradientUnits="userSpaceOnUse"/><linearGradient id="c"><stop offset="0" stop-color="#2c2d2b"/><stop offset="1" stop-color="#4a4c48"/></linearGradient><radialGradient id="F" cx="22.952" cy="6.051" r="6.118" xlink:href="#d" fx="22.952" fy="6.051" gradientTransform="matrix(1.155 .003 -.007 1.39 -3.468 -2.437)" gradientUnits="userSpaceOnUse"/><linearGradient id="d"><stop offset="0" stop-color="#917c70"/><stop offset="1" stop-color="#5f4317"/></linearGradient><radialGradient id="G" cx="22.952" cy="6.051" r="6.118" xlink:href="#d" fx="22.952" fy="6.051" gradientTransform="matrix(1.155 .003 -.007 1.39 -3.468 -2.437)" gradientUnits="userSpaceOnUse"/><linearGradient><stop offset="0" stop-color="#917c70"/><stop offset="1" stop-color="#5f4317"/></linearGradient><linearGradient id="H" x1="19.937" x2="20.433" y1="12.735" y2="29.056" xlink:href="#e" gradientUnits="userSpaceOnUse" gradientTransform="matrix(.951 0 0 .952 1.503 -.471)"/><linearGradient id="e"><stop offset="0" stop-color="#747671"/><stop offset="1" stop-color="#1f1f1e"/></linearGradient><linearGradient id="I" x1="9.322" x2="14.512" y1="26.351" y2="6.552" xlink:href="#f" gradientUnits="userSpaceOnUse"/><linearGradient id="f"><stop offset="0"/><stop offset="1" stop-color="#b7b7b7"/></linearGradient><linearGradient id="J" x1="28.571" x2="31.714" y1="17.179" y2="31.107" xlink:href="#g" gradientUnits="userSpaceOnUse" gradientTransform="matrix(1.039 0 0 1.038 .506 -2.984)"/><linearGradient id="g"><stop offset="0" stop-color="#787b75"/><stop offset="1" stop-color="#3b3c3a"/></linearGradient><linearGradient id="K" x1="18.365" x2="27.144" y1="27.298" y2="9.084" xlink:href="#f" gradientUnits="userSpaceOnUse" gradientTransform="matrix(.973 0 0 .974 .717 -.48)"/><linearGradient><stop offset="0"/><stop offset="1" stop-color="#b7b7b7"/></linearGradient><linearGradient id="L" x1="22.034" x2="21.282" y1="13.102" y2="22.648" xlink:href="#h" gradientUnits="userSpaceOnUse" gradientTransform="matrix(.973 0 0 .974 .717 -.48)"/><linearGradient id="h"><stop offset="0" stop-color="#a40000"/><stop offset="1" stop-color="#690000"/></linearGradient><radialGradient id="M" cx="23.915" cy="13.579" r="2.955" xlink:href="#i" fx="23.915" fy="13.579" gradientTransform="matrix(1 0 0 .368 0 8.588)" gradientUnits="userSpaceOnUse"/><linearGradient id="i"><stop offset="0" stop-opacity=".675"/><stop offset="1" stop-opacity="0"/></linearGradient><radialGradient id="N" cx="22.619" cy="5.372" r="6.118" xlink:href="#d" gradientUnits="userSpaceOnUse" gradientTransform="matrix(.979 .012 -.016 1.405 -.619 -3.673)" fx="22.619" fy="5.372"/><linearGradient><stop offset="0" stop-color="#917c70"/><stop offset="1" stop-color="#5f4317"/></linearGradient><linearGradient id="O" x1="20.706" x2="19.026" y1="21.613" y2="12.319" xlink:href="#j" gradientUnits="userSpaceOnUse"/><linearGradient id="j"><stop offset="0" stop-color="#444542"/><stop offset="1" stop-color="#7f817b"/></linearGradient><linearGradient id="P" x1="21.862" x2="24.758" y1="21.688" y2="13.607" xlink:href="#j" gradientUnits="userSpaceOnUse"/><linearGradient><stop offset="0" stop-color="#444542"/><stop offset="1" stop-color="#7f817b"/></linearGradient><linearGradient id="Q" x1="24.471" x2="26.82" y1="5.523" y2="4.892" xlink:href="#k" gradientUnits="userSpaceOnUse"/><linearGradient id="k"><stop offset="0"/><stop offset="1" stop-opacity="0"/></linearGradient><radialGradient id="m" cx="24.057" cy="30.562" r="23.845" xlink:href="#l" fx="24.057" fy="30.562" gradientTransform="matrix(1 0 0 -.602 0 48.101)" gradientUnits="userSpaceOnUse"/><radialGradient id="R" cx="23.031" cy="42.949" r="17.923" xlink:href="#a" gradientUnits="userSpaceOnUse" gradientTransform="matrix(1 0 0 .301 0 30.017)" fx="23.031" fy="42.949"/><linearGradient id="S" x1="25.961" x2="28.082" y1="30.423" y2="45.02" xlink:href="#b" gradientUnits="userSpaceOnUse" gradientTransform="matrix(1.168 0 0 1.071 -3.12 -4.042)"/><linearGradient id="T" x1="21.39" x2="20.875" y1="27.622" y2="43.936" xlink:href="#c" gradientUnits="userSpaceOnUse"/><radialGradient id="U" cx="22.952" cy="6.051" r="6.118" xlink:href="#d" gradientUnits="userSpaceOnUse" gradientTransform="matrix(1.155 .003 -.007 1.39 -3.468 -2.437)" fx="22.952" fy="6.051"/><radialGradient id="V" cx="22.952" cy="6.051" r="6.118" xlink:href="#d" gradientUnits="userSpaceOnUse" gradientTransform="matrix(1.155 .003 -.007 1.39 -3.468 -2.437)" fx="22.952" fy="6.051"/><linearGradient id="W" x1="19.937" x2="20.433" y1="12.735" y2="29.056" xlink:href="#e" gradientUnits="userSpaceOnUse" gradientTransform="matrix(.951 0 0 .952 1.503 -.471)"/><linearGradient id="X" x1="9.322" x2="14.512" y1="26.351" y2="6.552" xlink:href="#f" gradientUnits="userSpaceOnUse"/><linearGradient id="Y" x1="28.571" x2="31.714" y1="17.179" y2="31.107" xlink:href="#g" gradientUnits="userSpaceOnUse" gradientTransform="matrix(1.039 0 0 1.038 .506 -2.984)"/><linearGradient id="Z" x1="18.365" x2="27.144" y1="27.298" y2="9.084" xlink:href="#f" gradientUnits="userSpaceOnUse" gradientTransform="matrix(.973 0 0 .974 .717 -.48)"/><linearGradient id="aa" x1="22.034" x2="21.282" y1="13.102" y2="22.648" xlink:href="#h" gradientUnits="userSpaceOnUse" gradientTransform="matrix(.973 0 0 .974 .717 -.48)"/><radialGradient id="ab" cx="23.915" cy="13.579" r="2.955" xlink:href="#i" gradientUnits="userSpaceOnUse" gradientTransform="matrix(1 0 0 .368 0 8.588)" fx="23.915" fy="13.579"/><radialGradient id="ac" cx="22.619" cy="5.372" r="6.118" xlink:href="#d" gradientUnits="userSpaceOnUse" gradientTransform="matrix(.979 .012 -.016 1.405 -.619 -3.673)" fx="22.619" fy="5.372"/><linearGradient id="ad" x1="20.706" x2="19.026" y1="21.613" y2="12.319" xlink:href="#j" gradientUnits="userSpaceOnUse"/><linearGradient id="ae" x1="21.862" x2="24.758" y1="21.688" y2="13.607" xlink:href="#j" gradientUnits="userSpaceOnUse"/><linearGradient id="af" x1="24.471" x2="26.82" y1="5.523" y2="4.892" xlink:href="#k" gradientUnits="userSpaceOnUse"/><radialGradient id="ag" cx="23.031" cy="42.949" r="17.923" xlink:href="#a" gradientUnits="userSpaceOnUse" gradientTransform="matrix(1 0 0 .301 0 30.017)" fx="23.031" fy="42.949"/><linearGradient id="ah" x1="25.961" x2="28.082" y1="30.423" y2="45.02" xlink:href="#b" gradientUnits="userSpaceOnUse" gradientTransform="matrix(1.168 0 0 1.071 -3.12 -4.042)"/><linearGradient id="ai" x1="21.39" x2="20.875" y1="27.622" y2="43.936" xlink:href="#c" gradientUnits="userSpaceOnUse"/><radialGradient id="aj" cx="22.952" cy="6.051" r="6.118" xlink:href="#d" gradientUnits="userSpaceOnUse" gradientTransform="matrix(1.155 .003 -.007 1.39 -3.468 -2.437)" fx="22.952" fy="6.051"/><radialGradient id="ak" cx="22.952" cy="6.051" r="6.118" xlink:href="#d" gradientUnits="userSpaceOnUse" gradientTransform="matrix(1.155 .003 -.007 1.39 -3.468 -2.437)" fx="22.952" fy="6.051"/><linearGradient id="al" x1="19.937" x2="20.433" y1="12.735" y2="29.056" xlink:href="#e" gradientUnits="userSpaceOnUse" gradientTransform="matrix(.951 0 0 .952 1.503 -.471)"/><linearGradient id="am" x1="9.322" x2="14.512" y1="26.351" y2="6.552" xlink:href="#f" gradientUnits="userSpaceOnUse"/><linearGradient id="an" x1="28.571" x2="31.714" y1="17.179" y2="31.107" xlink:href="#g" gradientUnits="userSpaceOnUse" gradientTransform="matrix(1.039 0 0 1.038 .506 -2.984)"/><linearGradient id="ao" x1="18.365" x2="27.144" y1="27.298" y2="9.084" xlink:href="#f" gradientUnits="userSpaceOnUse" gradientTransform="matrix(.973 0 0 .974 .717 -.48)"/><linearGradient id="ap" x1="22.034" x2="21.282" y1="13.102" y2="22.648" xlink:href="#h" gradientUnits="userSpaceOnUse" gradientTransform="matrix(.973 0 0 .974 .717 -.48)"/><radialGradient id="aq" cx="23.915" cy="13.579" r="2.955" xlink:href="#i" gradientUnits="userSpaceOnUse" gradientTransform="matrix(1 0 0 .368 0 8.588)" fx="23.915" fy="13.579"/><radialGradient id="ar" cx="22.619" cy="5.372" r="6.118" xlink:href="#d" gradientUnits="userSpaceOnUse" gradientTransform="matrix(.979 .012 -.016 1.405 -.619 -3.673)" fx="22.619" fy="5.372"/><linearGradient id="as" x1="20.706" x2="19.026" y1="21.613" y2="12.319" xlink:href="#j" gradientUnits="userSpaceOnUse"/><linearGradient id="at" x1="21.862" x2="24.758" y1="21.688" y2="13.607" xlink:href="#j" gradientUnits="userSpaceOnUse"/><linearGradient id="au" x1="24.471" x2="26.82" y1="5.523" y2="4.892" xlink:href="#k" gradientUnits="userSpaceOnUse"/><radialGradient id="n" cx="23.031" cy="42.949" r="17.923" xlink:href="#a" gradientUnits="userSpaceOnUse" gradientTransform="matrix(1 0 0 .301 0 30.017)" fx="23.031" fy="42.949"/><linearGradient id="o" x1="25.961" x2="28.082" y1="30.423" y2="45.02" xlink:href="#b" gradientUnits="userSpaceOnUse" gradientTransform="matrix(1.168 0 0 1.071 -3.12 -4.042)"/><linearGradient id="p" x1="21.39" x2="20.875" y1="27.622" y2="43.936" xlink:href="#c" gradientUnits="userSpaceOnUse"/><radialGradient id="q" cx="22.952" cy="6.051" r="6.118" xlink:href="#d" gradientUnits="userSpaceOnUse" gradientTransform="matrix(1.155 .003 -.007 1.39 -3.468 -2.437)" fx="22.952" fy="6.051"/><radialGradient id="r" cx="22.952" cy="6.051" r="6.118" xlink:href="#d" gradientUnits="userSpaceOnUse" gradientTransform="matrix(1.155 .003 -.007 1.39 -3.468 -2.437)" fx="22.952" fy="6.051"/><linearGradient id="s" x1="19.937" x2="20.433" y1="12.735" y2="29.056" xlink:href="#e" gradientUnits="userSpaceOnUse" gradientTransform="matrix(.951 0 0 .952 1.503 -.471)"/><linearGradient id="t" x1="9.322" x2="14.512" y1="26.351" y2="6.552" xlink:href="#f" gradientUnits="userSpaceOnUse"/><linearGradient id="u" x1="28.571" x2="31.714" y1="17.179" y2="31.107" xlink:href="#g" gradientUnits="userSpaceOnUse" gradientTransform="matrix(1.039 0 0 1.038 .506 -2.984)"/><linearGradient id="v" x1="18.365" x2="27.144" y1="27.298" y2="9.084" xlink:href="#f" gradientUnits="userSpaceOnUse" gradientTransform="matrix(.973 0 0 .974 .717 -.48)"/><linearGradient id="w" x1="22.034" x2="21.282" y1="13.102" y2="22.648" xlink:href="#h" gradientUnits="userSpaceOnUse" gradientTransform="matrix(.973 0 0 .974 .717 -.48)"/><radialGradient id="x" cx="23.915" cy="13.579" r="2.955" xlink:href="#i" gradientUnits="userSpaceOnUse" gradientTransform="matrix(1 0 0 .368 0 8.588)" fx="23.915" fy="13.579"/><radialGradient id="y" cx="22.619" cy="5.372" r="6.118" xlink:href="#d" gradientUnits="userSpaceOnUse" gradientTransform="matrix(.979 .012 -.016 1.405 -.619 -3.673)" fx="22.619" fy="5.372"/><linearGradient id="z" x1="20.706" x2="19.026" y1="21.613" y2="12.319" xlink:href="#j" gradientUnits="userSpaceOnUse"/><linearGradient id="A" x1="21.862" x2="24.758" y1="21.688" y2="13.607" xlink:href="#j" gradientUnits="userSpaceOnUse"/><linearGradient id="B" x1="24.471" x2="26.82" y1="5.523" y2="4.892" xlink:href="#k" gradientUnits="userSpaceOnUse"/></defs><g><path fill="url(#m)" d="M.7 30.1l23.37 13.46L47.4 30.1 23.83 16.7z"/><path fill="none" stroke="#fdd294" d="M8.3 34.27l23.38-13.5" color="#000" overflow="visible" enable-background="accumulate"/><path fill="none" stroke="#fdd294" d="M16.43 39.27l23.7-13.68"/><path fill="none" stroke="#fdd294" d="M40.12 34.27l-23.4-13.5" color="#000" overflow="visible" enable-background="accumulate"/><path fill="none" stroke="#fdd294" d="M31.98 39.27L8.28 25.6"/><path fill="none" stroke="#9c4600" d="M.7 30.1l23.37 13.46L47.4 30.1 23.83 16.7z"/><g><path fill="url(#n)" d="M40.2 42.95c0 2.57-7.68 4.65-17.17 4.65-9.48 0-17.17-2.08-17.17-4.65 0-2.57 7.7-4.65 17.17-4.65 9.5 0 17.17 2.08 17.17 4.65z" transform="matrix(.378 .071 0 .411 28.162 10.352)" color="#000" overflow="visible" enable-background="accumulate"/><path stroke="#fff" stroke-width=".47.5" d="M35.64 13.67c-.05 0-.08 0-.12.03l-2.03.9s.04 0 .06 0c-.27.13-.5.4-.6.7l-1.07 5.4 1.1.26 1-.36.28-.53.14 1.7-1.5 7.75 1.96.6 1.47-.93.4-1.37.5 2.7 1.67.5 1.76-1.25-.9-6.5 1.22.42 1.4-.7-1.6-6.5c-.1-.65-.4-1.14-.96-1.43l-3.76-1.37c-.14-.03-.3-.05-.44-.03z"/><path fill="url(#o)" d="M27.87 45.96L24.9 28.6l4.14-1.8 2.24 16.62z" transform="matrix(.47 0 0 .47 26.017 9.445)"/><path d="M34.87 30.16l1.52-.9 1.32-4.5-1.45.35z"/><path fill="url(#p)" d="M17.96 26.4l-3.24 16.5 4.23 1.24 2.88-10.8L23.96 45l3.9 1.12-1.9-17.37z" transform="matrix(.47 0 0 .47 26.017 9.445)"/><path fill="url(#q)" stroke="#fff" stroke-width="1.346" d="M30.46 7.06c0 3.6-2.46 6.5-5.48 6.5-3.03 0-5.48-2.9-5.48-6.5 0-3.58 2.45-6.5 5.48-6.5 3.02 0 5.48 2.92 5.48 6.5z" transform="matrix(.184 0 0 .166 28.175 20.137)" color="#000" stroke-linecap="round" overflow="visible" enable-background="accumulate"/><path d="M33 21.06L34.2 17l.3 2.8-.45.87z"/><path fill="url(#r)" stroke="#fff" stroke-width="1.143" d="M30.46 7.06c0 3.6-2.46 6.5-5.48 6.5-3.03 0-5.48-2.9-5.48-6.5 0-3.58 2.45-6.5 5.48-6.5 3.02 0 5.48 2.92 5.48 6.5z" transform="matrix(.217 0 0 .195 35.856 22.729)" color="#000" stroke-linecap="round" overflow="visible" enable-background="accumulate"/><path fill="url(#s)" stroke="url(#t)" stroke-width=".5" d="M12.52 23.95l2.3-11.35c.37-1.05 1.53-1.96 2.48-1.62l9.26 3.1c1.3.4 2.16 1.66 2.5 3.07l2.88 13.33-2.62-.9-2.4-10.06-.58 9.42-3.72.62-1.24-2.14-2.26 1.12-2.3-2.1v-9.16L15.1 24.7z" transform="matrix(.47 0 0 .47 26.017 9.445)"/><path fill="url(#u)" stroke="url(#v)" stroke-width=".5" d="M16 11.14l4.3-1.94c.28-.1.82-.1 1.2 0l8 2.9c1.17.63 1.83 1.67 2.04 3.05l3.42 13.83-3.02 1.45-2.97-13.2c-.28-1.18-1.4-2.5-2.65-3.05l-9.02-3.15c-.4-.1-.98 0-1.3.1z" transform="matrix(.47 0 0 .47 26.017 9.445)"/><path fill="#eeeeec" d="M35.72 19.1l-.4-4.18 1.56-.75 2.18.75-1.6.87-1.06 3.48z"/><path d="M35.97 19.83l-1.55-2.6.36-.2z"/><path fill="url(#w)" d="M21.7 12.13s-.76.48-.87.88c-.12.4.54.9.54.9l-.88 5.8.7 2.37 1.38-1.86-.25-6.18s.72-.2.73-.55c0-.4-.57-1.08-.57-1.08z" transform="matrix(.47 0 0 .47 26.017 9.445)"/><path fill="url(#x)" d="M26.87 13.58c0 .6-1.32 1.08-2.95 1.08-1.64 0-2.96-.48-2.96-1.08 0-.6 1.32-1.1 2.96-1.1 1.63 0 2.95.5 2.95 1.1z" transform="matrix(.539 0 0 .538 24.305 7.61)" color="#000" overflow="visible" enable-background="accumulate"/><path fill="url(#y)" stroke="#fff" stroke-width=".5" d="M27.17 5.77c-.4 3.37-1.8 5.37-4 5.37s-3.8-3.12-4-5.37c-.27-2.95 1.8-5.37 4-5.37s4.36 2.43 4 5.37z" color="#000" stroke-linecap="round" overflow="visible" enable-background="accumulate" transform="matrix(.47 0 0 .47 26.017 9.445)"/><path d="M35.07 16.65l-.65-.7.4-.16z" color="#000" overflow="visible" enable-background="accumulate"/><path fill="url(#z)" d="M19.7 11.82l-1.77 1.46 1.14 1.43-1.14 1.1 3.32 6.32z" transform="matrix(.47 0 0 .47 26.017 9.445)"/><path d="M37.45 15.83l.9 1.05-.92.5.83.83-2.2 1.56z"/><path fill="url(#A)" d="M24.3 13.42l1.77 1.8-1.76.95 1.4 1.57-4.44 4.34z" transform="matrix(.47 0 0 .47 26.017 9.445)"/><path fill="none" stroke="#000" stroke-width=".235" d="M36.05 19.76l.02 2.53"/><path fill="none" stroke="#888a85" stroke-width=".235" d="M35.8 19.74v2.53"/><path fill="url(#B)" d="M24.1 5.22l2.67-.6.05.45-3.23 1z" transform="matrix(.47 0 0 .47 26.017 9.445)"/><path d="M34.94 11.35c.37.04.74.1 1.12.34.44-.12 1 0 1.57.15 0 0 .02.22-.14.37-.3.27-.4.8-.73.8-.36 0-.7-.74-.85-.8-.12-.02-.2.54-.5.53-.38 0-.36-.88-.48-1.4z"/></g><g><path fill="url(#C)" d="M40.2 42.95c0 2.57-7.68 4.65-17.17 4.65-9.48 0-17.17-2.08-17.17-4.65 0-2.57 7.7-4.65 17.17-4.65 9.5 0 17.17 2.08 17.17 4.65z" transform="matrix(.378 .071 0 .411 1.876 12.494)" color="#000" overflow="visible" enable-background="accumulate"/><path stroke="#fff" stroke-width=".47.5" d="M9.35 15.8c-.05.02-.08.03-.1.04l-2.04.9c.03 0 .06 0 .08 0-.27.13-.5.4-.62.7l-1.05 5.4 1.1.26 1.02-.36.27-.53.14 1.72-1.52 7.74 1.97.6 1.46-.92.4-1.36.5 2.68 1.68.5 1.75-1.24-.9-6.5 1.2.43 1.42-.72-1.6-6.5c-.1-.64-.4-1.13-.97-1.42L9.8 15.85c-.14-.03-.3-.05-.45-.03z"/><path fill="url(#D)" d="M27.87 45.96L24.9 28.6l4.14-1.8 2.24 16.62z" transform="matrix(.47 0 0 .47 -.269 11.587)"/><path d="M8.6 32.3l1.5-.9 1.33-4.5-1.45.35z"/><path fill="url(#E)" d="M17.96 26.4l-3.24 16.5 4.23 1.24 2.88-10.8L23.96 45l3.9 1.12-1.9-17.37z" transform="matrix(.47 0 0 .47 -.269 11.587)"/><path fill="url(#F)" stroke="#fff" stroke-width="1.346" d="M30.46 7.06c0 3.6-2.46 6.5-5.48 6.5-3.03 0-5.48-2.9-5.48-6.5 0-3.58 2.45-6.5 5.48-6.5 3.02 0 5.48 2.92 5.48 6.5z" transform="matrix(.184 0 0 .166 1.889 22.279)" color="#000" stroke-linecap="round" overflow="visible" enable-background="accumulate"/><path d="M6.73 23.2l1.18-4.06.3 2.8-.44.87z"/><path fill="url(#G)" stroke="#fff" stroke-width="1.143" d="M30.46 7.06c0 3.6-2.46 6.5-5.48 6.5-3.03 0-5.48-2.9-5.48-6.5 0-3.58 2.45-6.5 5.48-6.5 3.02 0 5.48 2.92 5.48 6.5z" transform="matrix(.217 0 0 .195 9.57 24.871)" color="#000" stroke-linecap="round" overflow="visible" enable-background="accumulate"/><path fill="url(#H)" stroke="url(#I)" stroke-width=".5" d="M12.52 23.95l2.3-11.35c.37-1.05 1.53-1.96 2.48-1.62l9.26 3.1c1.3.4 2.16 1.66 2.5 3.07l2.88 13.33-2.62-.9-2.4-10.06-.58 9.42-3.72.62-1.24-2.14-2.26 1.12-2.3-2.1v-9.16L15.1 24.7z" transform="matrix(.47 0 0 .47 -.269 11.587)"/><path fill="url(#J)" stroke="url(#K)" stroke-width=".5" d="M16 11.14l4.3-1.94c.28-.1.82-.1 1.2 0l8 2.9c1.17.63 1.83 1.67 2.04 3.05l3.42 13.83-3.02 1.45-2.97-13.2c-.28-1.18-1.4-2.5-2.65-3.05l-9.02-3.15c-.4-.1-.98 0-1.3.1z" transform="matrix(.47 0 0 .47 -.269 11.587)"/><path fill="#eeeeec" d="M9.44 21.23l-.42-4.16 1.58-.76 2.18.76-1.6.87-1.07 3.5z"/><path d="M9.68 21.97l-1.54-2.6.36-.2z"/><path fill="url(#L)" d="M21.7 12.13s-.76.48-.87.88c-.12.4.54.9.54.9l-.88 5.8.7 2.37 1.38-1.86-.25-6.18s.72-.2.73-.55c0-.4-.57-1.08-.57-1.08z" transform="matrix(.47 0 0 .47 -.269 11.587)"/><path fill="url(#M)" d="M26.87 13.58c0 .6-1.32 1.08-2.95 1.08-1.64 0-2.96-.48-2.96-1.08 0-.6 1.32-1.1 2.96-1.1 1.63 0 2.95.5 2.95 1.1z" transform="matrix(.539 0 0 .538 -1.981 9.752)" color="#000" overflow="visible" enable-background="accumulate"/><path fill="url(#N)" stroke="#fff" stroke-width=".5" d="M27.17 5.77c-.4 3.37-1.8 5.37-4 5.37s-3.8-3.12-4-5.37c-.27-2.95 1.8-5.37 4-5.37s4.36 2.43 4 5.37z" color="#000" stroke-linecap="round" overflow="visible" enable-background="accumulate" transform="matrix(.47 0 0 .47 -.269 11.587)"/><path d="M8.78 18.8l-.64-.7.4-.16z" color="#000" overflow="visible" enable-background="accumulate"/><path fill="url(#O)" d="M19.7 11.82l-1.77 1.46 1.14 1.43-1.14 1.1 3.32 6.32z" transform="matrix(.47 0 0 .47 -.269 11.587)"/><path d="M11.16 17.97l.92 1.05-.94.5.84.83-2.2 1.55z"/><path fill="url(#P)" d="M24.3 13.42l1.77 1.8-1.76.95 1.4 1.57-4.44 4.34z" transform="matrix(.47 0 0 .47 -.269 11.587)"/><path fill="none" stroke="#000" stroke-width=".235" d="M9.77 21.9l.02 2.53"/><path fill="none" stroke="#888a85" stroke-width=".235" d="M9.5 21.88l.03 2.53"/><path fill="url(#Q)" d="M24.1 5.22l2.67-.6.05.45-3.23 1z" transform="matrix(.47 0 0 .47 -.269 11.587)"/><path d="M8.66 13.5c.37.03.74.08 1.1.33.45-.1 1 0 1.58.16 0 0 .03.2-.13.36-.28.27-.4.8-.72.8-.36 0-.68-.74-.85-.8-.1-.02-.2.54-.5.54-.37-.02-.36-.9-.47-1.4z"/></g><g><path fill="url(#R)" d="M40.2 42.95c0 2.57-7.68 4.65-17.17 4.65-9.48 0-17.17-2.08-17.17-4.65 0-2.57 7.7-4.65 17.17-4.65 9.5 0 17.17 2.08 17.17 4.65z" transform="matrix(.378 .071 0 .411 13.162 4.352)" color="#000" overflow="visible" enable-background="accumulate"/><path stroke="#fff" stroke-width=".47.5" d="M20.64 7.67c-.05 0-.08 0-.12.03l-2.03.9s.04 0 .06 0c-.27.13-.5.4-.6.7l-1.07 5.4 1.1.26 1-.36.28-.53.14 1.7-1.5 7.75 1.96.6 1.47-.93.4-1.37.5 2.7 1.67.5 1.76-1.25-.9-6.5 1.22.42 1.4-.7-1.6-6.5c-.1-.65-.4-1.14-.96-1.43L21.08 7.7c-.14-.03-.3-.05-.44-.03z"/><path fill="url(#S)" d="M27.87 45.96L24.9 28.6l4.14-1.8 2.24 16.62z" transform="matrix(.47 0 0 .47 11.017 3.445)"/><path d="M19.87 24.16l1.52-.9 1.32-4.5-1.45.35z"/><path fill="url(#T)" d="M17.96 26.4l-3.24 16.5 4.23 1.24 2.88-10.8L23.96 45l3.9 1.12-1.9-17.37z" transform="matrix(.47 0 0 .47 11.017 3.445)"/><path fill="url(#U)" stroke="#fff" stroke-width="1.346" d="M30.46 7.06c0 3.6-2.46 6.5-5.48 6.5-3.03 0-5.48-2.9-5.48-6.5 0-3.58 2.45-6.5 5.48-6.5 3.02 0 5.48 2.92 5.48 6.5z" transform="matrix(.184 0 0 .166 13.175 14.137)" color="#000" stroke-linecap="round" overflow="visible" enable-background="accumulate"/><path d="M18 15.06L19.2 11l.3 2.8-.45.87z"/><path fill="url(#V)" stroke="#fff" stroke-width="1.143" d="M30.46 7.06c0 3.6-2.46 6.5-5.48 6.5-3.03 0-5.48-2.9-5.48-6.5 0-3.58 2.45-6.5 5.48-6.5 3.02 0 5.48 2.92 5.48 6.5z" transform="matrix(.217 0 0 .195 20.856 16.729)" color="#000" stroke-linecap="round" overflow="visible" enable-background="accumulate"/><path fill="url(#W)" stroke="url(#X)" stroke-width=".5" d="M12.52 23.95l2.3-11.35c.37-1.05 1.53-1.96 2.48-1.62l9.26 3.1c1.3.4 2.16 1.66 2.5 3.07l2.88 13.33-2.62-.9-2.4-10.06-.58 9.42-3.72.62-1.24-2.14-2.26 1.12-2.3-2.1v-9.16L15.1 24.7z" transform="matrix(.47 0 0 .47 11.017 3.445)"/><path fill="url(#Y)" stroke="url(#Z)" stroke-width=".5" d="M16 11.14l4.3-1.94c.28-.1.82-.1 1.2 0l8 2.9c1.17.63 1.83 1.67 2.04 3.05l3.42 13.83-3.02 1.45-2.97-13.2c-.28-1.18-1.4-2.5-2.65-3.05l-9.02-3.15c-.4-.1-.98 0-1.3.1z" transform="matrix(.47 0 0 .47 11.017 3.445)"/><path fill="#eeeeec" d="M20.72 13.1l-.4-4.18 1.56-.75 2.18.75-1.6.87-1.06 3.48z"/><path d="M20.97 13.83l-1.55-2.6.36-.2z"/><path fill="url(#aa)" d="M21.7 12.13s-.76.48-.87.88c-.12.4.54.9.54.9l-.88 5.8.7 2.37 1.38-1.86-.25-6.18s.72-.2.73-.55c0-.4-.57-1.08-.57-1.08z" transform="matrix(.47 0 0 .47 11.017 3.445)"/><path fill="url(#ab)" d="M26.87 13.58c0 .6-1.32 1.08-2.95 1.08-1.64 0-2.96-.48-2.96-1.08 0-.6 1.32-1.1 2.96-1.1 1.63 0 2.95.5 2.95 1.1z" transform="matrix(.539 0 0 .538 9.305 1.61)" color="#000" overflow="visible" enable-background="accumulate"/><path fill="url(#ac)" stroke="#fff" stroke-width=".5" d="M27.17 5.77c-.4 3.37-1.8 5.37-4 5.37s-3.8-3.12-4-5.37c-.27-2.95 1.8-5.37 4-5.37s4.36 2.43 4 5.37z" color="#000" stroke-linecap="round" overflow="visible" enable-background="accumulate" transform="matrix(.47 0 0 .47 11.017 3.445)"/><path d="M20.07 10.65l-.65-.7.4-.16z" color="#000" overflow="visible" enable-background="accumulate"/><path fill="url(#ad)" d="M19.7 11.82l-1.77 1.46 1.14 1.43-1.14 1.1 3.32 6.32z" transform="matrix(.47 0 0 .47 11.017 3.445)"/><path d="M22.45 9.83l.9 1.05-.92.5.83.83-2.2 1.56z"/><path fill="url(#ae)" d="M24.3 13.42l1.77 1.8-1.76.95 1.4 1.57-4.44 4.34z" transform="matrix(.47 0 0 .47 11.017 3.445)"/><path fill="none" stroke="#000" stroke-width=".235" d="M21.05 13.76l.02 2.53"/><path fill="none" stroke="#888a85" stroke-width=".235" d="M20.8 13.74v2.53"/><path fill="url(#af)" d="M24.1 5.22l2.67-.6.05.45-3.23 1z" transform="matrix(.47 0 0 .47 11.017 3.445)"/><path d="M19.94 5.35c.37.04.74.1 1.12.34.44-.12 1 0 1.57.15 0 0 .02.22-.14.37-.3.27-.4.8-.73.8-.36 0-.7-.74-.85-.8-.12-.02-.2.54-.5.53-.38 0-.36-.88-.48-1.4z"/></g><g><path fill="url(#ag)" d="M40.2 42.95c0 2.57-7.68 4.65-17.17 4.65-9.48 0-17.17-2.08-17.17-4.65 0-2.57 7.7-4.65 17.17-4.65 9.5 0 17.17 2.08 17.17 4.65z" transform="matrix(.378 .071 0 .411 18.162 18.637)" color="#000" overflow="visible" enable-background="accumulate"/><path stroke="#fff" stroke-width=".47.5" d="M25.64 21.95c-.05 0-.08.02-.12.03l-2.03.92s.04 0 .06-.02c-.27.14-.5.4-.6.7l-1.07 5.4 1.1.26 1-.35.28-.54.14 1.7-1.5 7.75 1.96.6 1.47-.92.4-1.36.5 2.7 1.67.5 1.76-1.26-.9-6.5L31 32l1.4-.73-1.6-6.5c-.1-.64-.4-1.13-.96-1.42l-3.76-1.37c-.14-.03-.3-.04-.44-.03z"/><path fill="url(#ah)" d="M27.87 45.96L24.9 28.6l4.14-1.8 2.24 16.62z" transform="matrix(.47 0 0 .47 16.017 17.73)"/><path d="M24.87 38.44l1.52-.9 1.32-4.5-1.45.35z"/><path fill="url(#ai)" d="M17.96 26.4l-3.24 16.5 4.23 1.24 2.88-10.8L23.96 45l3.9 1.12-1.9-17.37z" transform="matrix(.47 0 0 .47 16.017 17.73)"/><path fill="url(#aj)" stroke="#fff" stroke-width="1.346" d="M30.46 7.06c0 3.6-2.46 6.5-5.48 6.5-3.03 0-5.48-2.9-5.48-6.5 0-3.58 2.45-6.5 5.48-6.5 3.02 0 5.48 2.92 5.48 6.5z" transform="matrix(.184 0 0 .166 18.175 28.422)" color="#000" stroke-linecap="round" overflow="visible" enable-background="accumulate"/><path d="M23 29.34l1.2-4.06.3 2.8-.45.87z"/><path fill="url(#ak)" stroke="#fff" stroke-width="1.143" d="M30.46 7.06c0 3.6-2.46 6.5-5.48 6.5-3.03 0-5.48-2.9-5.48-6.5 0-3.58 2.45-6.5 5.48-6.5 3.02 0 5.48 2.92 5.48 6.5z" transform="matrix(.217 0 0 .195 25.856 31.014)" color="#000" stroke-linecap="round" overflow="visible" enable-background="accumulate"/><path fill="url(#al)" stroke="url(#am)" stroke-width=".5" d="M12.52 23.95l2.3-11.35c.37-1.05 1.53-1.96 2.48-1.62l9.26 3.1c1.3.4 2.16 1.66 2.5 3.07l2.88 13.33-2.62-.9-2.4-10.06-.58 9.42-3.72.62-1.24-2.14-2.26 1.12-2.3-2.1v-9.16L15.1 24.7z" transform="matrix(.47 0 0 .47 16.017 17.73)"/><path fill="url(#an)" stroke="url(#ao)" stroke-width=".5" d="M16 11.14l4.3-1.94c.28-.1.82-.1 1.2 0l8 2.9c1.17.63 1.83 1.67 2.04 3.05l3.42 13.83-3.02 1.45-2.97-13.2c-.28-1.18-1.4-2.5-2.65-3.05l-9.02-3.15c-.4-.1-.98 0-1.3.1z" transform="matrix(.47 0 0 .47 16.017 17.73)"/><path fill="#eeeeec" d="M25.72 27.37l-.4-4.16 1.56-.75 2.18.76-1.6.87-1.06 3.5z"/><path d="M25.97 28.1l-1.55-2.6.36-.2z"/><path fill="url(#ap)" d="M21.7 12.13s-.76.48-.87.88c-.12.4.54.9.54.9l-.88 5.8.7 2.37 1.38-1.86-.25-6.18s.72-.2.73-.55c0-.4-.57-1.08-.57-1.08z" transform="matrix(.47 0 0 .47 16.017 17.73)"/><path fill="url(#aq)" d="M26.87 13.58c0 .6-1.32 1.08-2.95 1.08-1.64 0-2.96-.48-2.96-1.08 0-.6 1.32-1.1 2.96-1.1 1.63 0 2.95.5 2.95 1.1z" transform="matrix(.539 0 0 .538 14.305 15.895)" color="#000" overflow="visible" enable-background="accumulate"/><path fill="url(#ar)" stroke="#fff" stroke-width=".5" d="M27.17 5.77c-.4 3.37-1.8 5.37-4 5.37s-3.8-3.12-4-5.37c-.27-2.95 1.8-5.37 4-5.37s4.36 2.43 4 5.37z" color="#000" stroke-linecap="round" overflow="visible" enable-background="accumulate" transform="matrix(.47 0 0 .47 16.017 17.73)"/><path d="M25.07 24.94l-.65-.7.4-.16z" color="#000" overflow="visible" enable-background="accumulate"/><path fill="url(#as)" d="M19.7 11.82l-1.77 1.46 1.14 1.43-1.14 1.1 3.32 6.32z" transform="matrix(.47 0 0 .47 16.017 17.73)"/><path d="M27.45 24.1l.9 1.06-.92.5.83.84-2.2 1.55z"/><path fill="url(#at)" d="M24.3 13.42l1.77 1.8-1.76.95 1.4 1.57-4.44 4.34z" transform="matrix(.47 0 0 .47 16.017 17.73)"/><path fill="none" stroke="#000" stroke-width=".235" d="M26.05 28.05l.02 2.53"/><path fill="none" stroke="#888a85" stroke-width=".235" d="M25.8 28.02v2.53"/><path fill="url(#au)" d="M24.1 5.22l2.67-.6.05.45-3.23 1z" transform="matrix(.47 0 0 .47 16.017 17.73)"/><path d="M24.94 19.64c.37.03.74.08 1.12.33.44-.1 1 0 1.57.17 0 0 .02.2-.14.37-.3.28-.4.8-.73.8-.36 0-.7-.73-.85-.78-.12-.04-.2.53-.5.52-.38 0-.36-.9-.48-1.4z"/></g></g></svg>