<svg xmlns="http://www.w3.org/2000/svg" width="48" height="48" xmlns:xlink="http://www.w3.org/1999/xlink"><defs><linearGradient><stop offset="0" stop-color="#fcaf3e"/><stop offset="1" stop-color="#f57900"/></linearGradient><linearGradient id="a"><stop offset="0" stop-opacity=".581"/><stop offset="1" stop-opacity="0"/></linearGradient><linearGradient id="b"><stop offset="0"/><stop offset="1" stop-color="#626262"/></linearGradient><linearGradient id="c"><stop offset="0" stop-color="#2c2d2b"/><stop offset="1" stop-color="#4a4c48"/></linearGradient><linearGradient id="d"><stop offset="0" stop-color="#917c70"/><stop offset="1" stop-color="#5f4317"/></linearGradient><linearGradient><stop offset="0" stop-color="#917c70"/><stop offset="1" stop-color="#5f4317"/></linearGradient><linearGradient id="e"><stop offset="0" stop-color="#747671"/><stop offset="1" stop-color="#1f1f1e"/></linearGradient><linearGradient id="f"><stop offset="0"/><stop offset="1" stop-color="#b7b7b7"/></linearGradient><linearGradient id="g"><stop offset="0" stop-color="#787b75"/><stop offset="1" stop-color="#3b3c3a"/></linearGradient><linearGradient><stop offset="0"/><stop offset="1" stop-color="#b7b7b7"/></linearGradient><linearGradient id="h"><stop offset="0" stop-color="#a40000"/><stop offset="1" stop-color="#690000"/></linearGradient><linearGradient id="i"><stop offset="0" stop-opacity=".675"/><stop offset="1" stop-opacity="0"/></linearGradient><linearGradient><stop offset="0" stop-color="#917c70"/><stop offset="1" stop-color="#5f4317"/></linearGradient><linearGradient id="j"><stop offset="0" stop-color="#444542"/><stop offset="1" stop-color="#7f817b"/></linearGradient><linearGradient><stop offset="0" stop-color="#444542"/><stop offset="1" stop-color="#7f817b"/></linearGradient><linearGradient id="k"><stop offset="0"/><stop offset="1" stop-opacity="0"/></linearGradient><radialGradient id="aG" cx="23.031" cy="42.949" r="17.923" xlink:href="#a" gradientUnits="userSpaceOnUse" gradientTransform="matrix(1 0 0 .301 0 30.017)" fx="23.031" fy="42.949"/><linearGradient id="aH" x1="25.961" x2="28.082" y1="30.423" y2="45.02" xlink:href="#b" gradientUnits="userSpaceOnUse" gradientTransform="matrix(1.168 0 0 1.071 -3.12 -4.042)"/><linearGradient id="aI" x1="21.39" x2="20.875" y1="27.622" y2="43.936" xlink:href="#c" gradientUnits="userSpaceOnUse"/><radialGradient id="aJ" cx="22.952" cy="6.051" r="6.118" xlink:href="#d" gradientUnits="userSpaceOnUse" gradientTransform="matrix(1.155 .003 -.007 1.39 -3.468 -2.437)" fx="22.952" fy="6.051"/><radialGradient id="aK" cx="22.952" cy="6.051" r="6.118" xlink:href="#d" gradientUnits="userSpaceOnUse" gradientTransform="matrix(1.155 .003 -.007 1.39 -3.468 -2.437)" fx="22.952" fy="6.051"/><linearGradient id="aL" x1="19.937" x2="20.433" y1="12.735" y2="29.056" xlink:href="#e" gradientUnits="userSpaceOnUse" gradientTransform="matrix(.951 0 0 .952 1.503 -.471)"/><linearGradient id="aM" x1="9.322" x2="14.512" y1="26.351" y2="6.552" xlink:href="#f" gradientUnits="userSpaceOnUse"/><linearGradient id="aN" x1="28.571" x2="31.714" y1="17.179" y2="31.107" xlink:href="#g" gradientUnits="userSpaceOnUse" gradientTransform="matrix(1.039 0 0 1.038 .506 -2.984)"/><linearGradient id="aO" x1="18.365" x2="27.144" y1="27.298" y2="9.084" xlink:href="#f" gradientUnits="userSpaceOnUse" gradientTransform="matrix(.973 0 0 .974 .717 -.48)"/><linearGradient id="aP" x1="22.034" x2="21.282" y1="13.102" y2="22.648" xlink:href="#h" gradientUnits="userSpaceOnUse" gradientTransform="matrix(.973 0 0 .974 .717 -.48)"/><radialGradient id="aQ" cx="23.915" cy="13.579" r="2.955" xlink:href="#i" gradientUnits="userSpaceOnUse" gradientTransform="matrix(1 0 0 .368 0 8.588)" fx="23.915" fy="13.579"/><radialGradient id="aR" cx="22.619" cy="5.372" r="6.118" xlink:href="#d" gradientUnits="userSpaceOnUse" gradientTransform="matrix(.979 .012 -.016 1.405 -.619 -3.673)" fx="22.619" fy="5.372"/><linearGradient id="aS" x1="20.706" x2="19.026" y1="21.613" y2="12.319" xlink:href="#j" gradientUnits="userSpaceOnUse"/><linearGradient id="aT" x1="21.862" x2="24.758" y1="21.688" y2="13.607" xlink:href="#j" gradientUnits="userSpaceOnUse"/><linearGradient id="aU" x1="24.471" x2="26.82" y1="5.523" y2="4.892" xlink:href="#k" gradientUnits="userSpaceOnUse"/><radialGradient id="z" cx="23.031" cy="42.949" r="17.923" xlink:href="#a" gradientUnits="userSpaceOnUse" gradientTransform="matrix(1 0 0 .301 0 30.017)" fx="23.031" fy="42.949"/><linearGradient id="A" x1="25.961" x2="28.082" y1="30.423" y2="45.02" xlink:href="#b" gradientUnits="userSpaceOnUse" gradientTransform="matrix(1.168 0 0 1.071 -3.12 -4.042)"/><linearGradient id="B" x1="21.39" x2="20.875" y1="27.622" y2="43.936" xlink:href="#c" gradientUnits="userSpaceOnUse"/><radialGradient id="C" cx="22.952" cy="6.051" r="6.118" xlink:href="#d" gradientUnits="userSpaceOnUse" gradientTransform="matrix(1.155 .003 -.007 1.39 -3.468 -2.437)" fx="22.952" fy="6.051"/><radialGradient id="D" cx="22.952" cy="6.051" r="6.118" xlink:href="#d" gradientUnits="userSpaceOnUse" gradientTransform="matrix(1.155 .003 -.007 1.39 -3.468 -2.437)" fx="22.952" fy="6.051"/><linearGradient id="E" x1="19.937" x2="20.433" y1="12.735" y2="29.056" xlink:href="#e" gradientUnits="userSpaceOnUse" gradientTransform="matrix(.951 0 0 .952 1.503 -.471)"/><linearGradient id="F" x1="9.322" x2="14.512" y1="26.351" y2="6.552" xlink:href="#f" gradientUnits="userSpaceOnUse"/><linearGradient id="G" x1="28.571" x2="31.714" y1="17.179" y2="31.107" xlink:href="#g" gradientUnits="userSpaceOnUse" gradientTransform="matrix(1.039 0 0 1.038 .506 -2.984)"/><linearGradient id="H" x1="18.365" x2="27.144" y1="27.298" y2="9.084" xlink:href="#f" gradientUnits="userSpaceOnUse" gradientTransform="matrix(.973 0 0 .974 .717 -.48)"/><linearGradient id="I" x1="22.034" x2="21.282" y1="13.102" y2="22.648" xlink:href="#h" gradientUnits="userSpaceOnUse" gradientTransform="matrix(.973 0 0 .974 .717 -.48)"/><radialGradient id="J" cx="23.915" cy="13.579" r="2.955" xlink:href="#i" gradientUnits="userSpaceOnUse" gradientTransform="matrix(1 0 0 .368 0 8.588)" fx="23.915" fy="13.579"/><radialGradient id="K" cx="22.619" cy="5.372" r="6.118" xlink:href="#d" gradientUnits="userSpaceOnUse" gradientTransform="matrix(.979 .012 -.016 1.405 -.619 -3.673)" fx="22.619" fy="5.372"/><linearGradient id="L" x1="20.706" x2="19.026" y1="21.613" y2="12.319" xlink:href="#j" gradientUnits="userSpaceOnUse"/><linearGradient id="M" x1="21.862" x2="24.758" y1="21.688" y2="13.607" xlink:href="#j" gradientUnits="userSpaceOnUse"/><linearGradient id="N" x1="24.471" x2="26.82" y1="5.523" y2="4.892" xlink:href="#k" gradientUnits="userSpaceOnUse"/><radialGradient id="as" cx="26.126" cy="32.449" r="22.073" gradientUnits="userSpaceOnUse" gradientTransform="matrix(1 0 0 .62 0 12.318)" fy="32.449" fx="26.126" xlink:href="#l"/><linearGradient id="at" x1="6.26" x2="15.438" y1="165.928" y2="170.234" gradientTransform="matrix(1.034 0 0 1.034 -2.345 -159.91)" gradientUnits="userSpaceOnUse" xlink:href="#m"/><linearGradient id="au" x1="25.98" x2="27.6" y1="195.272" y2="191.762" gradientTransform="matrix(1.034 0 0 1.034 -2.345 -159.91)" gradientUnits="userSpaceOnUse" xlink:href="#n"/><linearGradient id="av" x1="30.721" x2="30.361" y1="191.532" y2="189.013" gradientTransform="matrix(1.034 0 0 1.034 -2.345 -159.91)" gradientUnits="userSpaceOnUse" xlink:href="#o"/><radialGradient id="aw" cx="21.108" cy="170.255" r="11.345" gradientTransform="matrix(1.034 0 0 1.034 -2.345 -159.91)" fy="170.255" fx="21.108" gradientUnits="userSpaceOnUse" xlink:href="#p"/><radialGradient id="ax" cx="8.127" cy="179.328" r="6.328" gradientTransform="matrix(1.034 0 0 1.034 -2.345 -159.91)" fy="179.328" fx="8.127" gradientUnits="userSpaceOnUse" xlink:href="#q"/><radialGradient id="ay" cx="19.875" cy="178.137" r="6.273" gradientTransform="matrix(1.034 0 0 1.034 -2.345 -159.91)" fy="178.137" fx="19.875" gradientUnits="userSpaceOnUse" xlink:href="#r"/><radialGradient id="az" cx="20.26" cy="172.94" r="6.674" gradientTransform="matrix(1.034 0 0 1.034 -2.345 -159.91)" fy="172.94" fx="20.26" gradientUnits="userSpaceOnUse" xlink:href="#s"/><radialGradient id="aA" cx="21.608" cy="172.17" r="3.835" gradientTransform="matrix(1.034 0 0 1.034 -2.345 -159.91)" fy="172.17" fx="21.608" gradientUnits="userSpaceOnUse" xlink:href="#t"/><radialGradient id="aB" cx="12.774" cy="172.564" r="9.904" gradientTransform="matrix(1.034 0 0 1.034 -2.345 -159.91)" fy="172.564" fx="12.774" gradientUnits="userSpaceOnUse" xlink:href="#u"/><radialGradient id="aC" cx="18.676" cy="170.998" r="12.647" gradientTransform="matrix(1.034 0 0 1.034 -2.345 -159.91)" fy="170.998" fx="18.676" gradientUnits="userSpaceOnUse" xlink:href="#v"/><radialGradient id="aD" cx="20.141" cy="171.534" r="10.533" gradientTransform="matrix(1.034 0 0 1.034 -2.345 -159.91)" fy="171.534" fx="20.141" gradientUnits="userSpaceOnUse" xlink:href="#w"/><radialGradient id="aE" cx="22.811" cy="169.34" r="14.467" gradientTransform="matrix(1.034 0 0 1.034 -2.345 -159.91)" fy="169.34" fx="22.811" gradientUnits="userSpaceOnUse" xlink:href="#x"/><radialGradient id="aF" cx="17.95" cy="175.731" r="12.523" gradientTransform="matrix(1.034 0 0 1.034 -2.345 -159.91)" fy="175.731" fx="17.95" gradientUnits="userSpaceOnUse" xlink:href="#y"/><radialGradient id="l" cx="20.836" cy="192.154" r="25.122" fx="20.836" fy="192.154" gradientUnits="userSpaceOnUse"><stop offset="0" stop-opacity=".804"/><stop offset="1" stop-opacity="0"/></radialGradient><linearGradient id="m" x1="6.26" x2="15.438" y1="165.928" y2="170.234" gradientUnits="userSpaceOnUse"><stop offset="0" stop-color="#F79899"/><stop offset=".387" stop-color="#F29596"/><stop offset=".809" stop-color="#E28C8C"/><stop offset="1" stop-color="#D88686"/></linearGradient><linearGradient id="n" x1="25.98" x2="27.6" y1="195.272" y2="191.762" gradientUnits="userSpaceOnUse"><stop offset="0" stop-color="#F79899"/><stop offset=".387" stop-color="#F29596"/><stop offset=".809" stop-color="#E28C8C"/><stop offset="1" stop-color="#D88686"/></linearGradient><linearGradient id="o" x1="30.721" x2="30.361" y1="191.532" y2="189.013" gradientUnits="userSpaceOnUse"><stop offset="0" stop-color="#F79899"/><stop offset=".285" stop-color="#F29596"/><stop offset=".596" stop-color="#E08B8B"/><stop offset=".918" stop-color="#C77B7C"/><stop offset="1" stop-color="#BF7777"/></linearGradient><radialGradient id="p" cx="21.108" cy="170.255" r="11.345" fx="21.108" fy="170.255" gradientUnits="userSpaceOnUse"><stop offset=".006" stop-color="#F5CDCD"/><stop offset="1" stop-color="#F4B1B3"/></radialGradient><radialGradient id="q" cx="8.127" cy="179.328" r="6.328" fx="8.127" fy="179.328" gradientUnits="userSpaceOnUse"><stop offset=".006" stop-color="#F5CDCD"/><stop offset="1" stop-color="#F4B1B3"/></radialGradient><radialGradient id="r" cx="19.875" cy="178.137" r="6.273" fx="19.875" fy="178.137" gradientUnits="userSpaceOnUse"><stop offset="0" stop-color="#fff"/><stop offset="1" stop-color="#F5D9D9"/></radialGradient><radialGradient id="s" cx="20.26" cy="172.94" r="6.674" fx="20.26" fy="172.94" gradientUnits="userSpaceOnUse"><stop offset="0" stop-color="#fff"/><stop offset="1" stop-color="#F5D9D9"/></radialGradient><radialGradient id="t" cx="21.608" cy="172.17" r="3.835" fx="21.608" fy="172.17" gradientUnits="userSpaceOnUse"><stop offset="0" stop-color="#fff"/><stop offset="1" stop-color="#F5D9D9"/></radialGradient><radialGradient id="u" cx="12.774" cy="172.564" r="9.904" fx="12.774" fy="172.564" gradientUnits="userSpaceOnUse"><stop offset="0" stop-color="#fff"/><stop offset="1" stop-color="#F5D9D9"/></radialGradient><radialGradient id="v" cx="18.676" cy="170.998" r="12.647" fx="18.676" fy="170.998" gradientUnits="userSpaceOnUse"><stop offset="0" stop-color="#fff"/><stop offset="1" stop-color="#F5D9D9"/></radialGradient><radialGradient id="w" cx="20.141" cy="171.534" r="10.533" fx="20.141" fy="171.534" gradientUnits="userSpaceOnUse"><stop offset="0" stop-color="#fff"/><stop offset="1" stop-color="#F5D9D9"/></radialGradient><radialGradient id="x" cx="22.811" cy="169.34" r="14.467" fx="22.811" fy="169.34" gradientUnits="userSpaceOnUse"><stop offset="0" stop-color="#fff"/><stop offset="1" stop-color="#F5D9D9"/></radialGradient><radialGradient id="y" cx="17.95" cy="175.731" r="12.523" fx="17.95" fy="175.731" gradientUnits="userSpaceOnUse"><stop offset="0" stop-color="#fff"/><stop offset="1" stop-color="#F5D9D9"/></radialGradient><radialGradient id="ad" cx="23.031" cy="42.949" r="17.923" xlink:href="#a" gradientUnits="userSpaceOnUse" gradientTransform="matrix(1 0 0 .301 0 30.017)" fx="23.031" fy="42.949"/><linearGradient id="ae" x1="25.961" x2="28.082" y1="30.423" y2="45.02" xlink:href="#b" gradientUnits="userSpaceOnUse" gradientTransform="matrix(1.168 0 0 1.071 -3.12 -4.042)"/><linearGradient id="af" x1="21.39" x2="20.875" y1="27.622" y2="43.936" xlink:href="#c" gradientUnits="userSpaceOnUse"/><radialGradient id="ag" cx="22.952" cy="6.051" r="6.118" xlink:href="#d" gradientUnits="userSpaceOnUse" gradientTransform="matrix(1.155 .003 -.007 1.39 -3.468 -2.437)" fx="22.952" fy="6.051"/><radialGradient id="ah" cx="22.952" cy="6.051" r="6.118" xlink:href="#d" gradientUnits="userSpaceOnUse" gradientTransform="matrix(1.155 .003 -.007 1.39 -3.468 -2.437)" fx="22.952" fy="6.051"/><linearGradient id="ai" x1="19.937" x2="20.433" y1="12.735" y2="29.056" xlink:href="#e" gradientUnits="userSpaceOnUse" gradientTransform="matrix(.951 0 0 .952 1.503 -.471)"/><linearGradient id="aj" x1="9.322" x2="14.512" y1="26.351" y2="6.552" xlink:href="#f" gradientUnits="userSpaceOnUse"/><linearGradient id="ak" x1="28.571" x2="31.714" y1="17.179" y2="31.107" xlink:href="#g" gradientUnits="userSpaceOnUse" gradientTransform="matrix(1.039 0 0 1.038 .506 -2.984)"/><linearGradient id="al" x1="18.365" x2="27.144" y1="27.298" y2="9.084" xlink:href="#f" gradientUnits="userSpaceOnUse" gradientTransform="matrix(.973 0 0 .974 .717 -.48)"/><linearGradient id="am" x1="22.034" x2="21.282" y1="13.102" y2="22.648" xlink:href="#h" gradientUnits="userSpaceOnUse" gradientTransform="matrix(.973 0 0 .974 .717 -.48)"/><radialGradient id="an" cx="23.915" cy="13.579" r="2.955" xlink:href="#i" gradientUnits="userSpaceOnUse" gradientTransform="matrix(1 0 0 .368 0 8.588)" fx="23.915" fy="13.579"/><radialGradient id="ao" cx="22.619" cy="5.372" r="6.118" xlink:href="#d" gradientUnits="userSpaceOnUse" gradientTransform="matrix(.979 .012 -.016 1.405 -.619 -3.673)" fx="22.619" fy="5.372"/><linearGradient id="ap" x1="20.706" x2="19.026" y1="21.613" y2="12.319" xlink:href="#j" gradientUnits="userSpaceOnUse"/><linearGradient id="aq" x1="21.862" x2="24.758" y1="21.688" y2="13.607" xlink:href="#j" gradientUnits="userSpaceOnUse"/><linearGradient id="ar" x1="24.471" x2="26.82" y1="5.523" y2="4.892" xlink:href="#k" gradientUnits="userSpaceOnUse"/><radialGradient id="O" cx="23.031" cy="42.949" r="17.923" xlink:href="#a" gradientUnits="userSpaceOnUse" gradientTransform="matrix(1 0 0 .301 0 30.017)" fx="23.031" fy="42.949"/><linearGradient id="P" x1="25.961" x2="28.082" y1="30.423" y2="45.02" xlink:href="#b" gradientUnits="userSpaceOnUse" gradientTransform="matrix(1.168 0 0 1.071 -3.12 -4.042)"/><linearGradient id="Q" x1="21.39" x2="20.875" y1="27.622" y2="43.936" xlink:href="#c" gradientUnits="userSpaceOnUse"/><radialGradient id="R" cx="22.952" cy="6.051" r="6.118" xlink:href="#d" gradientUnits="userSpaceOnUse" gradientTransform="matrix(1.155 .003 -.007 1.39 -3.468 -2.437)" fx="22.952" fy="6.051"/><radialGradient id="S" cx="22.952" cy="6.051" r="6.118" xlink:href="#d" gradientUnits="userSpaceOnUse" gradientTransform="matrix(1.155 .003 -.007 1.39 -3.468 -2.437)" fx="22.952" fy="6.051"/><linearGradient id="T" x1="19.937" x2="20.433" y1="12.735" y2="29.056" xlink:href="#e" gradientUnits="userSpaceOnUse" gradientTransform="matrix(.951 0 0 .952 1.503 -.471)"/><linearGradient id="U" x1="9.322" x2="14.512" y1="26.351" y2="6.552" xlink:href="#f" gradientUnits="userSpaceOnUse"/><linearGradient id="V" x1="28.571" x2="31.714" y1="17.179" y2="31.107" xlink:href="#g" gradientUnits="userSpaceOnUse" gradientTransform="matrix(1.039 0 0 1.038 .506 -2.984)"/><linearGradient id="W" x1="18.365" x2="27.144" y1="27.298" y2="9.084" xlink:href="#f" gradientUnits="userSpaceOnUse" gradientTransform="matrix(.973 0 0 .974 .717 -.48)"/><linearGradient id="X" x1="22.034" x2="21.282" y1="13.102" y2="22.648" xlink:href="#h" gradientUnits="userSpaceOnUse" gradientTransform="matrix(.973 0 0 .974 .717 -.48)"/><radialGradient id="Y" cx="23.915" cy="13.579" r="2.955" xlink:href="#i" gradientUnits="userSpaceOnUse" gradientTransform="matrix(1 0 0 .368 0 8.588)" fx="23.915" fy="13.579"/><radialGradient id="Z" cx="22.619" cy="5.372" r="6.118" xlink:href="#d" gradientUnits="userSpaceOnUse" gradientTransform="matrix(.979 .012 -.016 1.405 -.619 -3.673)" fx="22.619" fy="5.372"/><linearGradient id="aa" x1="20.706" x2="19.026" y1="21.613" y2="12.319" xlink:href="#j" gradientUnits="userSpaceOnUse"/><linearGradient id="ab" x1="21.862" x2="24.758" y1="21.688" y2="13.607" xlink:href="#j" gradientUnits="userSpaceOnUse"/><linearGradient id="ac" x1="24.471" x2="26.82" y1="5.523" y2="4.892" xlink:href="#k" gradientUnits="userSpaceOnUse"/></defs><g><g><path fill="url(#z)" d="M40.2 42.95c0 2.57-7.68 4.65-17.17 4.65-9.48 0-17.17-2.08-17.17-4.65 0-2.57 7.7-4.65 17.17-4.65 9.5 0 17.17 2.08 17.17 4.65z" transform="matrix(.378 .071 0 .411 27.876 7.494)" color="#000" overflow="visible" enable-background="accumulate"/><path stroke="#fff" stroke-width=".47.5" d="M35.35 10.8c-.05.02-.08.03-.1.04l-2.04.9c.03 0 .06 0 .08 0-.27.13-.5.4-.62.7l-1.05 5.4 1.1.26 1.02-.36.27-.53.14 1.72-1.52 7.74 1.97.6 1.46-.92.4-1.36.5 2.68 1.68.5 1.75-1.24-.9-6.5 1.2.43 1.42-.72-1.6-6.5c-.1-.64-.4-1.13-.97-1.42l-3.76-1.36c-.14-.03-.3-.05-.45-.03z"/><path fill="url(#A)" d="M27.87 45.96L24.9 28.6l4.14-1.8 2.24 16.62z" transform="matrix(.47 0 0 .47 25.731 6.587)"/><path d="M34.6 27.3l1.5-.9 1.33-4.5-1.45.35z"/><path fill="url(#B)" d="M17.96 26.4l-3.24 16.5 4.23 1.24 2.88-10.8L23.96 45l3.9 1.12-1.9-17.37z" transform="matrix(.47 0 0 .47 25.731 6.587)"/><path fill="url(#C)" stroke="#fff" stroke-width="1.346" d="M30.46 7.06c0 3.6-2.46 6.5-5.48 6.5-3.03 0-5.48-2.9-5.48-6.5 0-3.58 2.45-6.5 5.48-6.5 3.02 0 5.48 2.92 5.48 6.5z" transform="matrix(.184 0 0 .166 27.889 17.279)" color="#000" stroke-linecap="round" overflow="visible" enable-background="accumulate"/><path d="M32.73 18.2l1.18-4.06.3 2.8-.44.87z"/><path fill="url(#D)" stroke="#fff" stroke-width="1.143" d="M30.46 7.06c0 3.6-2.46 6.5-5.48 6.5-3.03 0-5.48-2.9-5.48-6.5 0-3.58 2.45-6.5 5.48-6.5 3.02 0 5.48 2.92 5.48 6.5z" transform="matrix(.217 0 0 .195 35.57 19.871)" color="#000" stroke-linecap="round" overflow="visible" enable-background="accumulate"/><path fill="url(#E)" stroke="url(#F)" stroke-width=".5" d="M12.52 23.95l2.3-11.35c.37-1.05 1.53-1.96 2.48-1.62l9.26 3.1c1.3.4 2.16 1.66 2.5 3.07l2.88 13.33-2.62-.9-2.4-10.06-.58 9.42-3.72.62-1.24-2.14-2.26 1.12-2.3-2.1v-9.16L15.1 24.7z" transform="matrix(.47 0 0 .47 25.731 6.587)"/><path fill="url(#G)" stroke="url(#H)" stroke-width=".5" d="M16 11.14l4.3-1.94c.28-.1.82-.1 1.2 0l8 2.9c1.17.63 1.83 1.67 2.04 3.05l3.42 13.83-3.02 1.45-2.97-13.2c-.28-1.18-1.4-2.5-2.65-3.05l-9.02-3.15c-.4-.1-.98 0-1.3.1z" transform="matrix(.47 0 0 .47 25.731 6.587)"/><path fill="#eeeeec" d="M35.44 16.23l-.42-4.16 1.58-.76 2.18.76-1.6.87-1.07 3.5z"/><path d="M35.68 16.97l-1.54-2.6.36-.2z"/><path fill="url(#I)" d="M21.7 12.13s-.76.48-.87.88c-.12.4.54.9.54.9l-.88 5.8.7 2.37 1.38-1.86-.25-6.18s.72-.2.73-.55c0-.4-.57-1.08-.57-1.08z" transform="matrix(.47 0 0 .47 25.731 6.587)"/><path fill="url(#J)" d="M26.87 13.58c0 .6-1.32 1.08-2.95 1.08-1.64 0-2.96-.48-2.96-1.08 0-.6 1.32-1.1 2.96-1.1 1.63 0 2.95.5 2.95 1.1z" transform="matrix(.539 0 0 .538 24.019 4.752)" color="#000" overflow="visible" enable-background="accumulate"/><path fill="url(#K)" stroke="#fff" stroke-width=".5" d="M27.17 5.77c-.4 3.37-1.8 5.37-4 5.37s-3.8-3.12-4-5.37c-.27-2.95 1.8-5.37 4-5.37s4.36 2.43 4 5.37z" color="#000" stroke-linecap="round" overflow="visible" enable-background="accumulate" transform="matrix(.47 0 0 .47 25.731 6.587)"/><path d="M34.78 13.8l-.64-.7.4-.16z" color="#000" overflow="visible" enable-background="accumulate"/><path fill="url(#L)" d="M19.7 11.82l-1.77 1.46 1.14 1.43-1.14 1.1 3.32 6.32z" transform="matrix(.47 0 0 .47 25.731 6.587)"/><path d="M37.16 12.97l.92 1.05-.94.5.84.83-2.2 1.55z"/><path fill="url(#M)" d="M24.3 13.42l1.77 1.8-1.76.95 1.4 1.57-4.44 4.34z" transform="matrix(.47 0 0 .47 25.731 6.587)"/><path fill="none" stroke="#000" stroke-width=".235" d="M35.77 16.9l.02 2.53"/><path fill="none" stroke="#888a85" stroke-width=".235" d="M35.5 16.88l.03 2.53"/><path fill="url(#N)" d="M24.1 5.22l2.67-.6.05.45-3.23 1z" transform="matrix(.47 0 0 .47 25.731 6.587)"/><path d="M34.66 8.5c.37.03.74.08 1.1.33.45-.1 1 0 1.58.16 0 0 .03.2-.13.36-.28.27-.4.8-.72.8-.36 0-.68-.74-.85-.8-.1-.02-.2.54-.5.54-.37-.02-.36-.9-.47-1.4z"/></g><g><path fill="url(#O)" d="M40.2 42.95c0 2.57-7.68 4.65-17.17 4.65-9.48 0-17.17-2.08-17.17-4.65 0-2.57 7.7-4.65 17.17-4.65 9.5 0 17.17 2.08 17.17 4.65z" transform="matrix(.378 .071 0 .411 -2.267 9.066)" color="#000" overflow="visible" enable-background="accumulate"/><path stroke="#fff" stroke-width=".47.5" d="M5.2 12.38c-.04 0-.07.02-.1.03l-2.04.93c.02 0 .05 0 .08-.02-.28.15-.5.4-.62.7l-1.05 5.42 1.1.25 1-.35.28-.53.14 1.7-1.52 7.74 1.97.6 1.47-.93.4-1.35.5 2.7 1.67.5 1.75-1.26-.88-6.5 1.2.42 1.4-.72-1.6-6.5c-.1-.64-.4-1.13-.96-1.42L5.66 12.4c-.13-.02-.3-.03-.44-.02z"/><path fill="url(#P)" d="M27.87 45.96L24.9 28.6l4.14-1.8 2.24 16.62z" transform="matrix(.47 0 0 .47 -4.412 8.159)"/><path d="M4.45 28.87l1.5-.9 1.34-4.5-1.46.35z"/><path fill="url(#Q)" d="M17.96 26.4l-3.24 16.5 4.23 1.24 2.88-10.8L23.96 45l3.9 1.12-1.9-17.37z" transform="matrix(.47 0 0 .47 -4.412 8.159)"/><path fill="url(#R)" stroke="#fff" stroke-width="1.346" d="M30.46 7.06c0 3.6-2.46 6.5-5.48 6.5-3.03 0-5.48-2.9-5.48-6.5 0-3.58 2.45-6.5 5.48-6.5 3.02 0 5.48 2.92 5.48 6.5z" transform="matrix(.184 0 0 .166 -2.254 18.852)" color="#000" stroke-linecap="round" overflow="visible" enable-background="accumulate"/><path d="M2.58 19.77l1.2-4.06.28 2.82-.44.86z"/><path fill="url(#S)" stroke="#fff" stroke-width="1.143" d="M30.46 7.06c0 3.6-2.46 6.5-5.48 6.5-3.03 0-5.48-2.9-5.48-6.5 0-3.58 2.45-6.5 5.48-6.5 3.02 0 5.48 2.92 5.48 6.5z" transform="matrix(.217 0 0 .195 5.427 21.443)" color="#000" stroke-linecap="round" overflow="visible" enable-background="accumulate"/><path fill="url(#T)" stroke="url(#U)" stroke-width=".5" d="M12.52 23.95l2.3-11.35c.37-1.05 1.53-1.96 2.48-1.62l9.26 3.1c1.3.4 2.16 1.66 2.5 3.07l2.88 13.33-2.62-.9-2.4-10.06-.58 9.42-3.72.62-1.24-2.14-2.26 1.12-2.3-2.1v-9.16L15.1 24.7z" transform="matrix(.47 0 0 .47 -4.412 8.159)"/><path fill="url(#V)" stroke="url(#W)" stroke-width=".5" d="M16 11.14l4.3-1.94c.28-.1.82-.1 1.2 0l8 2.9c1.17.63 1.83 1.67 2.04 3.05l3.42 13.83-3.02 1.45-2.97-13.2c-.28-1.18-1.4-2.5-2.65-3.05l-9.02-3.15c-.4-.1-.98 0-1.3.1z" transform="matrix(.47 0 0 .47 -4.412 8.159)"/><path fill="#eeeeec" d="M5.3 17.8l-.42-4.16 1.57-.76 2.18.75-1.6.87L5.96 18z"/><path d="M5.54 18.54L4 15.94l.36-.2z"/><path fill="url(#X)" d="M21.7 12.13s-.76.48-.87.88c-.12.4.54.9.54.9l-.88 5.8.7 2.37 1.38-1.86-.25-6.18s.72-.2.73-.55c0-.4-.57-1.08-.57-1.08z" transform="matrix(.47 0 0 .47 -4.412 8.159)"/><path fill="url(#Y)" d="M26.87 13.58c0 .6-1.32 1.08-2.95 1.08-1.64 0-2.96-.48-2.96-1.08 0-.6 1.32-1.1 2.96-1.1 1.63 0 2.95.5 2.95 1.1z" transform="matrix(.539 0 0 .538 -6.124 6.324)" color="#000" overflow="visible" enable-background="accumulate"/><path fill="url(#Z)" stroke="#fff" stroke-width=".5" d="M27.17 5.77c-.4 3.37-1.8 5.37-4 5.37s-3.8-3.12-4-5.37c-.27-2.95 1.8-5.37 4-5.37s4.36 2.43 4 5.37z" color="#000" stroke-linecap="round" overflow="visible" enable-background="accumulate" transform="matrix(.47 0 0 .47 -4.412 8.159)"/><path d="M4.64 15.37l-.65-.7.4-.16z" color="#000" overflow="visible" enable-background="accumulate"/><path fill="url(#aa)" d="M19.7 11.82l-1.77 1.46 1.14 1.43-1.14 1.1 3.32 6.32z" transform="matrix(.47 0 0 .47 -4.412 8.159)"/><path d="M7.02 14.54l.9 1.05-.92.5.83.83-2.2 1.54z"/><path fill="url(#ab)" d="M24.3 13.42l1.77 1.8-1.76.95 1.4 1.57-4.44 4.34z" transform="matrix(.47 0 0 .47 -4.412 8.159)"/><path fill="none" stroke="#000" stroke-width=".235" d="M5.62 18.47L5.64 21"/><path fill="none" stroke="#888a85" stroke-width=".235" d="M5.36 18.45l.02 2.53"/><path fill="url(#ac)" d="M24.1 5.22l2.67-.6.05.45-3.23 1z" transform="matrix(.47 0 0 .47 -4.412 8.159)"/><path d="M4.5 10.07c.38.03.76.08 1.13.33.44-.1 1 0 1.57.16 0 0 .03.22-.14.38-.28.27-.4.8-.72.8-.36 0-.7-.74-.85-.8-.12-.03-.22.54-.5.53-.4-.02-.37-.9-.5-1.4z"/></g><g><path fill="url(#ad)" d="M40.2 42.95c0 2.57-7.68 4.65-17.17 4.65-9.48 0-17.17-2.08-17.17-4.65 0-2.57 7.7-4.65 17.17-4.65 9.5 0 17.17 2.08 17.17 4.65z" transform="matrix(.378 .071 0 .411 13.447 .923)" color="#000" overflow="visible" enable-background="accumulate"/><path stroke="#fff" stroke-width=".47.5" d="M20.92 4.24c-.04 0-.08 0-.1.03l-2.04.9c.02 0 .05 0 .07 0-.27.13-.5.4-.6.7l-1.07 5.4 1.1.26 1-.36.28-.53.15 1.7-1.5 7.75 1.96.6 1.48-.94.4-1.35.48 2.7 1.7.5 1.75-1.25-.9-6.5 1.2.42 1.43-.7-1.62-6.5c-.1-.65-.4-1.14-.96-1.43l-3.76-1.37c-.13-.03-.3-.05-.44-.03z"/><path fill="url(#ae)" d="M27.87 45.96L24.9 28.6l4.14-1.8 2.24 16.62z" transform="matrix(.47 0 0 .47 11.302 .016)"/><path d="M20.16 20.73l1.5-.9 1.35-4.5-1.45.35z"/><path fill="url(#af)" d="M17.96 26.4l-3.24 16.5 4.23 1.24 2.88-10.8L23.96 45l3.9 1.12-1.9-17.37z" transform="matrix(.47 0 0 .47 11.302 .016)"/><path fill="url(#ag)" stroke="#fff" stroke-width="1.346" d="M30.46 7.06c0 3.6-2.46 6.5-5.48 6.5-3.03 0-5.48-2.9-5.48-6.5 0-3.58 2.45-6.5 5.48-6.5 3.02 0 5.48 2.92 5.48 6.5z" transform="matrix(.184 0 0 .166 13.46 10.708)" color="#000" stroke-linecap="round" overflow="visible" enable-background="accumulate"/><path d="M18.3 11.63l1.18-4.06.3 2.8-.45.87z"/><path fill="url(#ah)" stroke="#fff" stroke-width="1.143" d="M30.46 7.06c0 3.6-2.46 6.5-5.48 6.5-3.03 0-5.48-2.9-5.48-6.5 0-3.58 2.45-6.5 5.48-6.5 3.02 0 5.48 2.92 5.48 6.5z" transform="matrix(.217 0 0 .195 21.141 13.3)" color="#000" stroke-linecap="round" overflow="visible" enable-background="accumulate"/><path fill="url(#ai)" stroke="url(#aj)" stroke-width=".5" d="M12.52 23.95l2.3-11.35c.37-1.05 1.53-1.96 2.48-1.62l9.26 3.1c1.3.4 2.16 1.66 2.5 3.07l2.88 13.33-2.62-.9-2.4-10.06-.58 9.42-3.72.62-1.24-2.14-2.26 1.12-2.3-2.1v-9.16L15.1 24.7z" transform="matrix(.47 0 0 .47 11.302 .016)"/><path fill="url(#ak)" stroke="url(#al)" stroke-width=".5" d="M16 11.14l4.3-1.94c.28-.1.82-.1 1.2 0l8 2.9c1.17.63 1.83 1.67 2.04 3.05l3.42 13.83-3.02 1.45-2.97-13.2c-.28-1.18-1.4-2.5-2.65-3.05l-9.02-3.15c-.4-.1-.98 0-1.3.1z" transform="matrix(.47 0 0 .47 11.302 .016)"/><path fill="#eeeeec" d="M21 9.66l-.4-4.16 1.57-.76 2.18.75-1.6.86-1.07 3.5z"/><path d="M21.25 10.4L19.7 7.8l.37-.2z"/><path fill="url(#am)" d="M21.7 12.13s-.76.48-.87.88c-.12.4.54.9.54.9l-.88 5.8.7 2.37 1.38-1.86-.25-6.18s.72-.2.73-.55c0-.4-.57-1.08-.57-1.08z" transform="matrix(.47 0 0 .47 11.302 .016)"/><path fill="url(#an)" d="M26.87 13.58c0 .6-1.32 1.08-2.95 1.08-1.64 0-2.96-.48-2.96-1.08 0-.6 1.32-1.1 2.96-1.1 1.63 0 2.95.5 2.95 1.1z" transform="matrix(.539 0 0 .538 9.59 -1.819)" color="#000" overflow="visible" enable-background="accumulate"/><path fill="url(#ao)" stroke="#fff" stroke-width=".5" d="M27.17 5.77c-.4 3.37-1.8 5.37-4 5.37s-3.8-3.12-4-5.37c-.27-2.95 1.8-5.37 4-5.37s4.36 2.43 4 5.37z" color="#000" stroke-linecap="round" overflow="visible" enable-background="accumulate" transform="matrix(.47 0 0 .47 11.302 .016)"/><path d="M20.35 7.22l-.64-.7.4-.15z" color="#000" overflow="visible" enable-background="accumulate"/><path fill="url(#ap)" d="M19.7 11.82l-1.77 1.46 1.14 1.43-1.14 1.1 3.32 6.32z" transform="matrix(.47 0 0 .47 11.302 .016)"/><path d="M22.73 6.4l.92 1.05-.94.5.85.83-2.2 1.55z"/><path fill="url(#aq)" d="M24.3 13.42l1.77 1.8-1.76.95 1.4 1.57-4.44 4.34z" transform="matrix(.47 0 0 .47 11.302 .016)"/><path fill="none" stroke="#000" stroke-width=".235" d="M21.34 10.33l.02 2.53"/><path fill="none" stroke="#888a85" stroke-width=".235" d="M21.08 10.3l.02 2.54"/><path fill="url(#ar)" d="M24.1 5.22l2.67-.6.05.45-3.23 1z" transform="matrix(.47 0 0 .47 11.302 .016)"/><path d="M20.23 1.92c.37.04.74.1 1.1.34.45-.1 1 0 1.58.16 0 0 .04.22-.12.37-.3.26-.4.8-.72.8-.36-.02-.7-.75-.86-.8-.1-.03-.2.53-.5.52-.37 0-.36-.88-.47-1.4z"/></g><g><path fill="url(#as)" d="M7.9 30.22c-.83.08-1.7 1.14-2.12 1.8-.18.27-.54.6-.63.9-.14.44.1.85.14 1.28-1.26.35-1.5 2.18-1 3.23.18.4.27.54.4.93.16.53.34.94.7 1.4.38.48.6.55 1.14.8.74.3.98.9 1.57 1.37 1.06.8 2.9 1 4.2.86.5-.07 1.18-.52 1.65-.46.8.1.36.82.66 1.3.36.54 1.45.8 2.02 1 .48.2.97.35 1.44.55.5.2.98.57 1.5.67.96.18 2.12.06 3.1.06 1.25 0 2.98.46 4.13.02.75-.3 1.34-.7 2.2-.83.83-.13 1.4.08 2.2.22 1.8.3 3.25-.42 4.8-1.1.95-.4 1.84-.88 2.8-1.3 1.12-.46 2.32-.78 3.28-1.6.7-.6 1.64-1.47 2.12-2.27.62-1.03 1.45-2 1.83-3.16.46-1.42 1.2-2.6 1.27-4.16.04-.82-.04-1.3.37-1.98.52-.9.7-1.75.35-2.8-.4-1.2-1.4-2.23-2.38-2.95-.68-.48-1.55-.7-2.33-1.04-.87-.36-1.3-.8-2.04-1.33-.76-.55-1.64-.53-2.53-.68-1.2-.2-2.33-.78-3.52-1.06-3.23-.78-6.48-1.23-9.82-1.13-1.5.04-2.88.07-4.27.7-1.43.62-2.84 1.34-4.28 1.98-1.76.77-2.47 1.72-3.67 3.07-.73.83-1.52 1.58-2.24 2.45-.68.85-2.65 1.86-2.8 3.05" transform="matrix(.535 0 0 .535 22.615 23.537)"/><path fill="#f79899" stroke="#f57e80" stroke-width=".27" d="M33.68 27.62c.47-.3 1.1-.3 1.2-.4.1-.12.62-.8.77-.93.16-.14.77-.07.97-.2.2-.1.28-.4.45-.45.17-.05.9.12 1.23.07.3-.06.17-.17.34-.22.17-.04 1.5.06 1.77.12.28.05.7.27.85.27.14 0 .4 0 .66.06.26.07 1.97.9 2.25 1.06.3.16.98.93 1.25 1.24.3.1.93.38 1.1.48.17.1.83.8.93 1.04.1.24.06.54.17.75.12.22.2.36.22.53.03.17.03.88.1 1.04.07.15.2.45.2.93 0 .5-.16 1.2-.23 1.6-.08.38-.4 1.02-.4 1.16 0 .13-.05.33-.14.45-.08.1-.1-.02-.2.3-.08.33-.38.76-.4.86 0 .1-.02.25-.08.32s-.27.07-.27.2.2.27.24.37c.03.1.07.25.04.35-.03.1-.43.72-.62 1.05-.2.32-.7.94-.74 1.08-.03.14.05.2.05.42 0 .22.03.8-.04 1-.07.18-1.38 1.62-1.63 1.7-.26.06-1.67-.2-1.94-.15-.26.05-1.26.35-1.62.6-.35.26-.93.6-1.17.63-.25.03-.7 0-.8-.04-.27-.06-.4-.17-.7-.44-.32-.27-.65-.57-.76-.64-.1-.07-.3-.54-.52-.6-.2-.08-1-.3-1.2-.4-.22-.08-.38-.2-.38-.2-.66.1-1.5.12-1.97.05-.46-.05-1.16-.52-1.27-.5-.1 0-.5-.05-1.2-.26-.7-.2-1.3-.45-1.52-.82-.23-.37-.26-.8-.28-.92 0-.13-.14-.43-.04-1.18.03-.2-.13-.43-.13-.72 0-.3-.07-.88.2-1.82.74-2.4 1.17-2.66 1.2-2.9 0-.24-.04-.45.42-1.77.47-1.32.84-1.03 1.05-1.35.2-.32.57-1 .94-1.43.38-.42.8-.5 1-.7.18-.2.32-.47.68-.7z"/><path fill="url(#at)" stroke="#f57e80" stroke-width=".5" d="M11.5 33.17c-.1-.1-.18-.2-.24-.3-.42-.7-.48-1.48-.5-1.72-.04-.24-.3-.8-.1-2.2.06-.36-.25-.8-.25-1.36 0-.55-.1-1.64.44-3.4 1.35-4.47 2.17-4.98 2.2-5.43.02-.45-.07-.84.8-3.3.88-2.48 1.57-1.94 1.97-2.54.4-.6 1.06-1.9 1.75-2.68.7-.8 1.48-.9 1.84-1.3.35-.4.6-.9 1.28-1.32.88-.56 2.04-.55 2.23-.77.2-.2 1.18-1.48 1.47-1.72.3-.24 1.44-.1 1.8-.32.38-.2.54-.8.86-.88.32-.08 1.7.24 2.28.13h-.03c-.5-.04-.83-.13-1.05-.35-.25-.24-.16-.4-2.44-.86-2.27-.46-4.9-.75-8.38.57-3.47 1.33-3.5 1.86-3.88 2.07-.37.2-3.1 1.6-3.76 2.23-.66.62-1 .78-1.2 1.07-.2.3-.32.75-.7 1-.37.24-2.47 2.3-3.13 3.34-.67 1.03-.87 1.57-1.16 2.02-.3.46-1.36 1.65-1.94 2.73-.58 1.06-1.16 2.6-1.16 3 0 .4.54 1.32.54 1.57s-.7.8-.73 1.12c-.04.32.08 1.22.16 1.93.08.7.04 1.15.2 1.48.17.34.63.5.7.8.1.3.34 1 .75 1.36.42.37.8.5 1.2.9.4.42 1.2 1.12 1.78 1.3.57.15 1.48 0 1.85.24.4.24 1.67 1.52 2.3 1.73.6.2 1.92-.12 2.3-.16z" transform="matrix(.535 0 0 .535 22.615 23.537)"/><path fill="#f57e80" stroke="#cb696b" stroke-width=".27" d="M38.15 44.94c-.25-.05-.38-.17-.7-.44-.3-.27-.63-.57-.74-.64-.1-.07-.3-.54-.52-.6-.18-.07-.75-.23-1.06-.34"/><path fill="url(#au)" stroke="#994f51" stroke-width=".5" d="M23.37 36.23c.18.62.97 1.83 1.88 2.5.9.68.4 1.07.6 1.3.17.24.3.36.84.45.55.08.9.5 1.4.5.5 0 .8-.24.86-.56.06-.33.08-.4.08-.4" transform="matrix(.535 0 0 .535 22.615 23.537)"/><path fill="none" stroke="#d96f71" stroke-width=".27" d="M34.6 42.65c.43-.06.86-.15 1.32-.23.45-.08 1.57-.03 2.7-.56.5-.23 1.03-.94 2.2-1.53.46-.22 1.67-1.22 2.12-1.43.44-.2 1.42-.76 1.65-.93.23-.17.52-.75.76-1.06.25-.3 1.68-.9 1.8-.9.1-.04.07.2.07.37"/><path fill="none" stroke="#d96f71" stroke-width=".27" d="M41.18 25.9c.15.06.5.24 1 .58.47.33 1.27 1.08 1.35 1.18.08.1.73 1.5 1.03 1.98.3.48 1.4 2.26 1.46 2.44.07.2.2.7.22.94.02.23-.08 1.3-.14 1.53-.06.22-.34 1-.43 1.24-.1.23-.3.94-.4 1.1"/><path fill="#f57e80" d="M36.04 37.93c-.24-.13-1.1-1.95-1.7-2.48-.57-.54-1.02-1.07-2.6-1.35-1.6-.27-1.64-.25-1.85-.37-.23-.13-.3-.15-.32-.08 0 .06-.08.2-.13.25-.03.12.1.03.33.05.23.03.8.33 1.2.4.36.07 1.64.28 1.97.48.33.2 1.4.9 1.68 1.3.3.4.55.98.65 1.15.1.17.4.58.52.62.14.05.4.1.24.03z"/><path fill="#e47678" d="M31.8 31.16c.23-.2 2.4-.46 3 .2.56.65.97 2 1.35 2.7.4.7.63 1.33 1.1 1.94.5.6.9 1.1.9 1.47-.02.35-.54 1.75-.57 1.93-.03.17-.32.34-.4.26-.1-.07-1.37-.75-1.74-.75-.37 0-1.57.13-1.84-.02s-1.1-.63-1.32-.92c-.2-.3-.2-.74-.88-.7-.67.07-1.85.3-2.08.42-.22.1-.35-.1-.16-.2.2-.12 1.7-.28 1.93-.4.2-.12.8-.16.88-.06.1.1.27.7.5.9.2.17.72.5 1.22.6.5.1 1.4.06 1.7.1.28.05 1.5.67 1.7.66.2-.02.88-1.45.82-1.8-.06-.34-1-1.5-1.43-2.28-.85-1.53-1.33-3.04-1.52-3.27-.2-.22-.37-.65-1.17-.72-.8-.07-1.66.04-1.9.15-.23.12-.28-.06-.1-.2z"/><path fill="#e47678" d="M34.63 27.3c.36 0 .85.3 1.14.44.3.13.77.42 1 .66.24.23.17.36.05.5-.12.15-.18.46-.4.63-.22.18-.9.62-1.12.92-.22.3-.4.84-.67.8.12.04.26.24.26.24 0-.23.3-.67.5-.8.2-.12.68-.7.8-.83.1-.14.43-.34.47-.44.05-.1.17-.45.36-.6.2-.17.2-.23-.1-.5-.3-.24-.7-.58-.93-.64-.23-.07-.63-.3-.82-.4-.2-.12-.17-.2-.16-.28-.07.12-.18.28-.4.27z"/><path fill="#e47678" d="M30.96 30.58c.33-.16.68-.33.87-.4.18-.04.8-.23.93-.34.15-.1.55-.3.7-.3.17 0 .6.2.8.2.2 0 .35-.2.22-.2-.13 0-.2.08-.42.02-.22-.05-.45-.12-.36-.14.1-.03.45-.17.5-.25.07-.08.37-.32.37-.4-.14.1-.3.3-.4.34-.12.06-.63.18-.76.25-.1.08-.7.44-.87.47-.16.04-.68.25-.8.3-.15.06-.35.25-.4.18-.04-.06-.02-.23-.02-.23-.07.18-.34.5-.34.5z"/><path fill="#e47678" d="M28.32 38.9c.1.17.2.37.34.42.14.06 1.2.5 1.6.55.4.05 1.24.24 1.36.32.1.08.67.78.62.84-.05.06-.24-.1-.36-.23-.12-.1-.25-.34-.45-.43-.2-.1-1.53-.36-1.9-.5-.38-.17-.93-.42-1-.48-.06-.06-.23-.45-.23-.25 0-.1.02-.24.02-.24z"/><path fill="#f57e80" d="M37.5 31.38c-.06-.07-.17-.13-.38-.03-.2.1-.17.32-.1.43.06.1.9 1.72.9 2.06 0 .34-.34 1.17-.5 1.4-.2.25-.08.4-.07.42 0 .03.22-.4.3-.48.1-.1.44-.8.44-.9 0-.13-.08-.7-.14-.9-.07-.2-.66-1.28-.7-1.54-.04-.26 0-.28.07-.28.05 0 .2-.04.2-.08s-.02-.1-.02-.1z"/><path fill="#e47678" d="M38.48 33.7c.18-.27.6-1.17.64-1.25.03-.08.12-1.18.22-1.26.1-.1.3.03.52.15.23.13.93.48 1.1.53.18.04 1.05.3 1.2.34.16.05.27.26.33.35.06.1.43.82.5.92.04.1.13.3.02.36-.1.07-.23.22-.33.26-.1.03-.4.38-.6.37-.23-.02-.6-.02-.8-.23-.2-.2-.62-.2-.62-.35 0-.17-.07-.23-.13-.2-.05 0-.26.28-.13.4s.7.35.9.47c.18.1.17.2.16.28 0 .07.1.23.2.12.1-.1.1-.2.04-.3-.07-.1-.26-.1-.23-.16.02-.07.3.06.5.06.18 0 .33-.2.45-.24.12-.04.45-.07.58-.24.14-.18.24-.28.2-.42 0-.15-.3-.7-.56-1.07-.25-.36-.4-.45-.4-.6 0-.15.02-.37-.1-.55-.13-.17-.15-.28-.13-.38 0-.1.04-.3 0-.37-.07-.06-.2-.07-.23 0 0 .06.02.34.08.43.07.1.26.45.26.63s.03.27-.04.27-.53-.17-.84-.3c-.3-.1-1.2-.46-1.35-.54-.16-.07-.42-.15-.4-.3 0-.18.25-.62.52-.8.26-.17.32-.7.32-.95 0-.26-.17-.6-.58-.84-.4-.26-1.37-.88-1.68-1.08-.3-.2-.43-.3-.5-.38-.08-.1-.15-.2-.28-.17-.14.03.03.22.13.28.1.06 1.33.9 1.68 1.12.36.23.9.57.92.86.04.3.06.7-.14.96-.2.25-.57.64-.64.9-.08.3-.28 1.06-.4 1.48-.15.42-.52 1.2-.5 1.3.04.13.08.18.14.1z"/><path fill="#e47678" d="M36.63 26.1c.14-.04.37-.02.53.02.17.04.8.28.95.3.17.03.73.17.8.12.1-.04.1.1-.1.13-.18.03-.53-.1-.78-.15-.25-.06-.84-.3-1-.3-.17 0-.45-.07-.56-.05.07-.03.17-.06.17-.06z"/><path fill="#e47678" d="M38.3 25.73c.14 0 .8.22.96.28.15.06.87.44 1.1.6.2.17.82 1.03.96 1.16.14.14.35.43.47.4.1-.06.05-.1-.05-.23-.08-.13-.7-.77-.87-.97-.2-.2-.4-.43-.6-.54-.2-.12-.95-.43-1.1-.5-.14-.08-.8-.22-.8-.22l-.1.03z"/><path fill="#e47678" d="M42.47 30.08c.04-.03.2.23.28.3.1.1.5.47.67.6.16.15.28.4.33.5.05.1.18.63.2.76 0 .14.08 1.36.1 1.55.04.18.04.37.1.5.04.15.2.3.2.7 0 .4.1.8.07 1.4-.03.62-.1 1.12-.12 1.3-.03.2-.03.32.03.32s.12.05.22-.02c-.16.1-.3.2-.4.25-.03-.1.07-.3.07-.45 0-.16.02-.82.05-1.2.03-.4.06-1.33 0-1.42-.06-.1-.03-.27-.05-.42-.02-.15-.27-.44-.26-.58 0-.14-.08-.95-.13-1.35-.05-.4-.08-1.22-.23-1.35-.15-.13-.6-.76-.77-.88-.16-.12-.3-.3-.34-.4-.04-.08-.08-.1-.03-.12z"/><path fill="#e47678" d="M39.45 34.94c.1-.04.13.06.1.13-.04.08-.1.1-.14.14-.04.06-.1.23-.04.33.05.1.18.46.34.6.05.1.15.37.33.48.1.1.13.37.26.35.1-.02.5-.27.64-.34s.5-.2.65-.26c.15-.05.34-.22.5-.23.16 0 .37-.1.48-.16.1-.07.1.05 0 .1-.1.04-.48.17-.6.26-.13.1-.4.22-.5.28-.12.06-.37.05-.74.3-.38.22-.45.4-.54.54-.1.16-.33.48-.4.76-.04.3 0 .43.06.5.08.06.17.34.23.42.06.08.22.13.27.08.05-.05.1.05.08.1-.03.07-.07.06-.2 0-.1-.04-.26-.06-.33-.24s-.23-.38-.26-.48c-.03-.1-.06-.34 0-.46.07-.12.46-.72.5-.83.06-.12 0-.24-.12-.38-.1-.15-.24-.42-.35-.52-.1-.1-.25-.32-.33-.45-.08-.13-.14-.3-.14-.48s-.07-.3.03-.35c.1-.05.12.04.15-.04.05-.07.05-.12.05-.12z"/><path fill="#f57e80" d="M41.53 38.35c.12-.05.27.07.27.1s-.1-.04-.13.06-.1.2.06.3c.16.1.12.1.2.2.07.13.02.07-.12 0-.13-.08-.33-.1-.36-.26-.02-.15-.06-.32.1-.4z"/><path fill="#f57e80" d="M43.17 37.7c.06-.06.03-.16-.08-.2-.1-.07-.14-.12-.07-.14.08-.02.17.03.2 0s-.25-.13-.4-.1c-.14 0-.23-.1-.23-.06 0 .06.18.16.25.24.07.08.25.33.32.26z"/><path fill="#d96f71" d="M33.6 41.2c.13 0 .53.5.76.58.22.06.38.3.62.4.24.1.94.18 1.1.2-.16.04-.55.1-.55.1-.42-.1-1-.3-1.16-.42-.17-.12-.4-.5-.57-.56-.16-.06-.36-.05-.33-.22.05-.08.06-.06.13-.07z"/><path fill="#e47678" d="M37.28 39.92c.13-.08.15.13.06.2-.1.07-.27.16-.4.54-.15.38-.18.72-.03.74.15.02.37.16.35.23 0 .07-.18-.07-.33-.12-.16-.04-.35-.27-.3-.47.07-.2.3-.63.5-.8.17-.2.07-.26.16-.3z"/><path fill="#d96f71" d="M40.25 40.64c-.18.03-.75.15-1 .04-.23-.1-.7-.32-.7-.27 0 .06.45.36.53.37.1 0 .58.08.6.12.05.02.02.15.02.15.18-.15.55-.4.55-.4z"/><path fill="#d96f71" d="M28.17 38.4c-.1.18-.28.45-.45.44-.16 0-.3-.1-.44-.1-.13-.02-.87.02-1.05-.02-.2-.03-1.27-.3-1.5-.4-.23-.1-.84-.15-.8-.28.02-.12.12-.07.27-.02.15.04.6.26.8.3.18.05.9.23 1.15.23.24 0 1 0 1.12.02.12.02.36.08.43 0 .06-.06.37-.25.4-.4.04-.18.07-.23.07-.23 0 .2 0 .46 0 .46z"/><path fill="#e47678" d="M23.16 35.6c.15-.2.4-.38.54-.43.15-.04.5-.12.6 0 .12.13.25.45.33.56.07.1.28.07.33.12.05.06.47.57.47.65 0 .1-.08.27-.03.32.05.05.2-.03.22-.1.03-.06.04-.3 0-.36-.03-.06-.4-.62-.5-.64-.08-.02-.28-.02-.42-.18-.14-.15-.37-.58-.48-.58-.1 0-.28.07-.42.13-.14.04-.48.1-.52.1-.04 0-.3-.16-.36-.24.1.13.24.63.24.63z"/><path fill="#e47678" d="M23.56 33.6c.15-.15.3-.42.48-.5.17-.1.53-.45.7-.4.16.02.44.36.82.4.37.03 1.38.03 1.6.1.25.08 1.32 0 1.6-.1.3-.1.4.22.52.23.07.02-.17.17-.4.17-.22 0-.65-.2-.86-.17-.2.03-1.3-.1-1.5-.1-.2 0-1.1.03-1.47-.14-.4-.2-.55-.1-.8.02-.23.14-.54.5-.7.66-.2.15-.34.26-.34.2 0-.1.23-.25.36-.38z"/><path fill="#d96f71" d="M30.5 30.88c-.2-.2-.88-.62-1.02-1.13-.14-.5-.3-.8-.25-1.14.06-.32-.1-.22-.2-.2-.1 0-.47.1-.65.06-.17-.03-.27 0-.17.07.1.06.48.06.63.02.15-.04.18.04.2.24 0 .2-.06.83.15 1 .2.16.37.57.65.7.27.12.5.42.5.48s-.05.24-.05.27c.13-.26.23-.37.23-.37z"/><path fill="#cb686a" d="M30.58 27.93c0-.1.13-.16.18-.14.05.02.04.23.14.3.1.08.54.46.67.58.14.1.35.32.43.28.07-.03.03.05.03.05-.07.07-.22.3-.22.3-.05-.2-.34-.34-.4-.43-.06-.08-.2-.3-.4-.44-.2-.15-.44-.38-.42-.5z"/><path fill="#cb686a" d="M34.04 27.44c-.08 0-.4-.14-.62-.3-.23-.18-.53-.33-.8-.33-.28 0-1.33-.04-1.58.03-.25.08-.37.15-.44.24-.07.1.24-.1.4-.13.2-.02 1.12-.05 1.4 0 .3.03.7.07.94.3.25.2.34.38.34.38.12-.13.36-.18.36-.18z"/><path fill="#d96f71" d="M27.75 28.5c.03 0-.3.4-.25.54.04.12.34.5.5.62.18.1.27.36.26.46 0 .1-.15.47-.3.46-.18 0-.14-.06-.05-.1.1-.06.2-.2.2-.4-.02-.2-.12-.3-.25-.42-.14-.1-.34-.42-.4-.5-.06-.05-.06-.12.05-.3.1-.15.25-.37.25-.37z"/><path fill="#d96f71" d="M25.6 30.7c.14-.08.25-.37.66-.57.42-.2.65-.35.76-.33.12 0 .37.03.34-.1-.02-.12-.1-.16-.07-.26 0-.1 0-.27.07-.27.08 0 .14-.15.02-.1-.14.05-.23.15-.23.25s.08.3 0 .3c-.07.03-.26-.04-.4.05-.13.1-.74.44-.82.52-.07.08-.34.5-.34.5z"/><path fill="#cb696b" d="M37.07 25.65c.24-.04-1.35-.37-1.58-.4-.23-.04-2.27-.1-2.6 0-.3.1-.9.3-1.13.4-.1.03.07.05.26.05.2 0 .62.03.9.04.26 0 .97.03 1.2.07.2.05 1 .17 1.18.3.2.12.17.06.17.14 0 .1 0 .22 0 .26.08-.1.13-.2.22-.23.08-.04.17-.06.17-.06-.32-.12-.63-.35-.9-.37-.25-.02-1.23-.1-1.47-.12-.24 0-1.43 0-1.4-.07.03-.06.17-.12.4-.2.22-.08.5-.18.95-.18.46 0 1.96.06 2.23.1.27.05 1.03.22 1.06.3.03.07-.05.43-.1.46.12-.08.24-.26.3-.33.05-.06.06-.1.13-.12z"/><path fill="#f57e80" d="M29.88 26.47c.25-.05.62-.14.72-.2-.2.04-.54.12-.5.06.03-.07.1-.12.1-.12-.15.13-.32.27-.32.27z"/><path fill="#f57e80" d="M45.6 33.1c.07-.06.18.16.2.24.03.08.04.35.08.47.05.13.13.44.14.53.02.08.07.27.08.2-.02.14-.1.32-.1.32-.02-.22-.07-.43-.1-.56 0-.13-.07-.27-.12-.52-.06-.25-.1-.5-.17-.52-.06-.03-.05-.1 0-.15z"/><path fill="#f57e80" d="M44.4 30.18c0-.13-.3.17-.3.26 0 .08.07.17.15.05.08-.13.15-.27.15-.32z"/><path fill="#e47678" d="M45.73 28.5c-.07-.04-.2-.04-.2.02.02.06.17.4.4.58.2.18.4.75.4.85 0 .1.08 1.13.17 1.25.08.12.35.65.43.78.08.13.3.85.36.97.05.12.07.42.14.97s.2.64.25.6c.04-.06-.02-.04-.1-.3-.08-.28-.1-.78-.14-1.03-.03-.27-.3-.97-.44-1.2-.13-.25-.26-.5-.3-.8-.02-.3-.16-.8-.25-1.14-.1-.34-.3-.77-.37-.87-.08-.1-.38-.4-.38-.5 0-.1 0-.2 0-.2z"/><path fill="#e47678" d="M46.86 29.4c.12 0 .26.2.2.22-.04.02-.06.1 0 .2.04.1.23.56.33.67.1.1.32.4.36.4.04.02.05.26.05.3 0 .04.05.25-.08.08-.13-.17-.26-.4-.32-.55-.06-.15-.22-.52-.3-.68-.08-.15-.14-.35-.15-.44 0-.08-.17-.18-.1-.2z"/><path fill="#f57e80" d="M47.5 35.95c-.1-.1-.17-.2-.36-.08-.2.1-.6.13-.66.22-.08.08-.38.34-.44.37.3-.15 1.08-.54 1.14-.48.06.05.07.34.07.34.1-.05.24-.4.24-.4z"/><path fill="#d96f71" d="M45.15 41.3c.07-.04.17.1.13.15-.04.06-.04.08-.33.16-.3.1-.68.43-.76.53-.1.1-.38.05-.5.24-.14.2-.4.58-.44.66-.06.07-.55.34-.7.43-.14.08-.43.27-.5.26-.06 0-.32.03-.32.03.33-.2.8-.4.88-.47.1-.06.22-.1.43-.32.2-.2.4-.57.52-.65.13-.06.4-.08.48-.2.06-.1.37-.45.56-.52.2-.08.38-.07.42-.13.05-.06.13-.14.13-.14z"/><path fill="#d96f71" d="M42.76 42.05c.14-.06.5-.1.48-.05 0 .06-.2.3-.42.35-.2.04-.32.12-.43.2-.12.1-.36.06-.57.1-.2.06-.04-.13.07-.15.1 0 .26 0 .36-.1.1-.1.34-.27.5-.35z"/><path fill="#d96f71" d="M44.06 40.12c-.1.15-.32.43-.45.5s-.72.44-.92.53c-.2.08-.53.2-.64.35-.1.15-.32.3-.47.42-.14.1-.45.2-.63.36-.2.16-.53.5-.47.54.06.05.35-.25.48-.33.13-.08.53-.2.58-.25.04-.06.23-.32.46-.5.22-.16.6-.36.85-.5.23-.15.88-.56.98-.68.1-.12.23-.45.23-.45z"/><path fill="#d96f71" d="M46.43 38c0 .1-.08.47-.08.58 0 .1.1-.04.13-.2.03-.13-.05-.37-.05-.37z"/><path fill="#d96f71" d="M46.04 37.4c.1-.1.22 0 .12.1-.1.07-.27.23-.27.4 0 .15-.1.57-.1.72-.02.16 0 .45-.15.54-.16.1-.27-.06-.33.06-.06.13-.26.2-.43.76-.07.2-.16.2-.2.15-.05-.06-.1-.24-.2-.18-.12.06-.22.13-.3.22.08-.22.27-.4.34-.38.06 0 .14.18.2.1.06-.1.22-.5.35-.6.1-.12.33-.12.43-.25.1-.12.2-.28.23-.63.04-.36.05-.68.12-.77.08-.1.16-.25.16-.25z"/><path fill="url(#av)" d="M35.04 30.82c-1.33 1.16-1.4 1.37-1.6 1.5-.17.16-.76.04-1.3.68-.54.65-1.18 1.33-1.72 1.73-.54.4-.6.78-.93.78-.33 0-.76-.27-1.15-.1-.4.2-.7.83-.83 1.37-.14.53-.2 1.1-.54 1.1-.32 0-.68.15-.86-.1-.18-.25-.52-.8-.64-.86-.13-.05-1.83-.63-2-.63 0 0-.73-.22-1.07-.54.54-.05 1.83-.35 2.03-.37.2-.03.67-.1 1-.13.32-.03 2.33-.13 3.75-.67 1.4-.54 2.64-1.78 2.88-1.94.25-.15 2.06-1.34 2.98-1.8z" transform="matrix(.535 0 0 .535 22.615 23.537)"/><path fill="#d96f71" d="M38.82 42.98c.14-.15.22-.26.17.07-.06.33 0 .5.06.5s-.23-.16-.25-.08c0 .1-.12.34 0 .43.06.02-.2.1-.2-.03-.04-.13 0-.3.07-.45.06-.17.06-.34.15-.44z"/><path fill="url(#aw)" d="M12.3 25.76c.4-.3 2.1-.64 2.63-.72.5-.1 1.86-.52 2.2-.4.34.1.94 1.2 1.3 1.74.36.54 1.75 1.28 2.3 1.28.52 0 2.25-.08 2.64-.08.38 0 1.75-.05 1.9.1.15.16 1.17.95 1.56.84.38-.1 1.3-1.54 1.3-2.22 0-.5-1.1-1.7-1.58-2.42-.5-.7-2.22-3.97-2.35-4.5-.13-.54-1.4-3.87-1.88-4.13-.47-.26-1.96-.55-2.63-.55-.67 0-2.48.25-2.8.5-.3.22-1.05-.23-.54-.78.5-.56 1.88-.8 2.46-.8.57 0 2.9.14 3.24.24.35.1.75-.13 1.18-.8.43-.65.5-1.3 1.24-1.72.75-.4 1.24-.26 1.35-.58.1-.32.9-1.04.5-1.4-.38-.33-1.68-1-2.02-1-.33 0-.74.42-1.17.22-.42-.2.07-.6-.32-.76-.37-.18-1.18-.52-1.72-.05-.53.47-.96 1.2-1.15 1.4-.2.2-1.37.38-1.7.8-.3.43-1.23 1.82-1.04 1.9.18.1 1.38-.3 1.8-.5.44-.22 1.3-1 1.7-1 .4 0 .72-.05.87-.25.15-.2 1.1-.8 1.2-.64.1.17-.28.96-.56 1.1-.26.16.38.23.42.42.04.2-.1.7-.5.8-.44.12-1.2-.22-1.57-.16-.4.07-2.48.66-3.02.98-.53.33-1.9.75-2.1 1.3-.18.56-2.04 4.05-1.27 4.52.77.47 4.5 1.1 5.28 1.4.76.3 3.22 2.48 3.8 3.55.58 1.06 1.3 2.7 1.56 2.92.26.2.64.75.5.75-.1 0-.97-.02-1.1-.26-.13-.22-1.7-3.1-1.94-3.2-.24-.1-3.46-2.7-4.43-2.7-.96-.03-2.58-.1-3.07-.4-.5-.3-1-.65-1.5-.23-.5.43-1.17 1.33-1.4 2.44-.24 1.12-.3 2.68-.44 3.15-.16.47-.38 2.33.06 2.65.44.3 1.92 1.2 3 1.35 1.07.16 2.23-.28 2.86.57.64.85 1.42 2.15 1.23 2.43-.2.3-.7.32-1.04.13-.34-.2-1.26-.98-1.86-1.2-.6-.22-4.13-1.55-4.35-1.45-.22.1-.2.98.03 1.48.22.52.88 1.5 2.05 1.87 1.17.38 2.52.1 3.1.4.56.33.97 1.1 1.73 1.34.75.26 2.68.23 2.9-.15.22-.38.06-1.07-.32-1.07-.37 0-1.22-.38-.97-.92.26-.53.83-.66 1-.53.2.12.84 1.1 1.15 1.1.32 0 .25-.98.8-.85.53.12.34 1.26.65 1.5.32.26 3.22.52 3.28-.08.08-.6-1.12-.76-1.06-1.36.06-.6 1.3-2.1 1.2-2.4-.1-.28-1.42-1.04-2.3-1.13-.9-.1-3.2-.1-3.9-.5-.74-.4-2.7-1.6-2.9-1.92-.18-.32-.14-1.1-1.34-1.07-1.2.04-3.6.7-3.9.8-.33.1-1 .03-.86-.5.12-.55.44-.37.66-.54z" transform="matrix(.535 0 0 .535 22.615 23.537)"/><path fill="#f4b1b3" d="M37.5 40.12c-.1.1-.36.38-.27.77.08.38.47.63.87.53.4-.1.78-.12.73-.3-.05-.2-.4-.05-.6-.27-.23-.22-.43-.44-.43-.54 0-.1.03-.4.18-.46.16-.05.68.1.95.27.27.17 1.05.37 1.32.12s.33-.5.05-.6c-.3-.1-.76-.65-.8-.88-.03-.24-.15-.6.02-.85.17-.25.54-.6.46-.82-.1-.22-.76-.68-.83-1.05-.07-.37-.24-.63-.12-.9s.24-.33.37-.37c.14-.03.46 0 .46.17s-.26.32-.15.58c.1.25.33.94.58 1 .25.04.78-.1 1.13-.3.36-.23 1.02-.38 1.14-.54.12-.16.34-.38.36-.24 0 .13 0 .57-.14.66-.15.08-.54.1-.52.33 0 .22.25.53.4.6.15.06.58-.07.68.1.1.16.13.37-.02.37s.17.28.02.33c-.15.06-.6-.05-.73-.3-.14-.25-.16-.52-.43-.64-.27-.1-.54-.07-.98 0-.45.1-.92.48-.92.72 0 .23-.2.6-.07.9.15.3.5.4.54.53.03.14-.24.5-.04.63.2.13.66.18.83-.1.17-.26.2-.34.08-.5-.1-.18-.28-.3-.28-.5s.2-.4.34-.4.53.18.44.37c-.08.18-.18.32.1.35.25.03.93-.32 1.25-.54.32-.22.6-.32.63-.54 0-.22.08-1.55.06-1.84 0-.3-.03-.74-.08-1.03-.05-.28-.17-.7-.34-.77-.17-.1-.42-.17-.7.08-.26.25-.67.4-.83.52-.18.14-.27.44-.42.46-.15.02-.47.05-.47-.17 0-.22-.1-.42-.3-.47-.18-.05-.72-.1-.74-.37 0-.27.04-.7.24-.73.2-.02.34.22.5.34.17.12.83.62 1.05.5.22-.12.46-.35.6-.5.16-.12.3-.22.04-.6-.28-.4-.3-.9-.6-.96-.28-.06-1.28-.18-1.55-.38s-.8-.64-1.05-.53c-.23.12-.12.76-.17 1.02-.05.24-.64 1.32-.76 1.42-.1.1-1.04 1.7-1.04 1.9 0 .2.35.87.6 1.17.22.3.34.5.07 1.14-.27.62-.6 1.5-.6 1.62 0 .12 0 .35-.1.46z"/><path fill="#f4b1b3" d="M37.2 35.26c.14-.26.5-1.16.47-1.4 0-.23-.57-.95-.72-1.56-.14-.6-.16-.93.08-1 .24-.1.6-.1.6.06s-.3.24-.23.5c.06.25.6 1.2.66 1.48.04.27.12.78.17.6.05-.2.05-.57.16-.87.1-.3.3-1.3.44-1.76.14-.45.48-.85.64-1.06.16-.2.5-.8.4-1.23-.12-.42-1.06-.92-1.35-1.16-.28-.24-1.37-.9-1.37-1.05 0-.17.18-.23.34-.17.16.06.14.26.24.32.1.06 1.63 1.02 2.04 1.26.42.25.9.6.9.9 0 .33-.12 1.04-.32 1.1-.2.04-.44.02-.55.25-.1.22-.32.46-.05.57.27.1 1.2.56 1.42.6.22.06.77.15.77 0 0-.17-.27-.52-.26-.77.02-.26.13-.37.27-.34.15.04.2.12.2.25s-.13.42-.07.5c.06.08.3.3.3.44s0 .38.05.5c.07.1.66 1.08.74 1.1.08 0 .5-.02.5-.22s0-1.34-.14-1.5c-.12-.16-.9-.83-1-.97-.1-.14-.4-.33-.16-.7.24-.36.35.04.37.2 0 .16.75.8.86.88.1.07.38-.17.4-.4 0-.24.25-.6.35-.6.1 0 .38.12.27.3-.1.2-.35.38-.5.55-.14.18-.3.3-.25.54.06.24.26.8.26 1.06 0 .25-.04 1.24.06 1.4.1.16.3.9.3 1.22 0 .3.18 1 .12 1.32-.06.34-.22 1.06-.17 1.28.04.22.22-.1.44-.37s.2-.76.3-.92c.1-.16.24-.55.43-1 .2-.44.12-.92.1-1.22 0-.3-.1-.58-.22-.72-.1-.15-.18-.48 0-.55.2-.06.3-.04.32.12 0 .15.14.48.14.6 0 .14.1.54.13.4.02-.15.17-1.1-.07-1.37-.24-.25-.52-1.45-.8-1.72-.26-.26-.67-1.03-.75-1.2-.08-.15-.56-1.14-.7-1.4-.12-.28-1.32-1.5-1.8-1.75-.5-.24-1.66-.85-2.3-.93-.67-.08-1.13 0-.2.26.92.27 1.16.62 1.3.8.12.17 1.1 1.2 1.17 1.34.07.14.13.34-.22.2-.35-.15-.97-.92-1.13-1.14-.16-.23-1.54-1.1-1.78-1.15-.24-.07-.84-.05-1-.08-.16-.04-.55-.23-.7-.13-.17.1-.28.3-.12.3.16 0 .83.27.95.3.1.04.7.13.95.13.24 0 .27.26.02.3-.26.05-1.07-.15-1.2-.23-.13-.08-.93-.26-1.18-.23-.26.03-.7-.02-1 .4-.33.44-.44.55-.04.68s.93.4 1.06.5c.12.12.57.46.68.62.1.16-.13.33-.25.56-.14.22-.37.56-.64.75-.27.2-.75.84-.88.95-.12.1-.52.56-.44.7.08.15.6 1.1.62 1.26.02.17.32.93.38 1.1.07.18.8 1.4.93 1.47.14.06.2.08.24 0z"/><path fill="#f4b1b3" d="M42.63 26.5c.18.04 1.37.47 1.64.78.28.32.6.6.7.95.08.35.88.85.7.96-.16.1-.25.38.05.74.3.38.4 1.04.62 1.34.23.3.84 1.5.84 2s-.02 1.2-.17 1.53c-.14.34-.5 1.12-.7 1.25-.23.13-.57.55-.6.37-.04-.2.15-.8.26-1.1.1-.3.42-.77.38-.88-.03-.1.1-1.8-.1-2.05-.17-.27-1.02-2-1.26-2.3-.24-.27-.85-1.8-1.1-2.2-.23-.4-1.7-1.47-1.25-1.4z"/><path fill="#f4b1b3" d="M46.23 29c.08.02.5.58.7 1 .17.43.54 1.6.64 1.96.1.37.37.52.37.8 0 .27.07.7-.04.87-.1.16-.04.53-.1.55-.1.02-.16-.33-.22-.94-.05-.6-.68-1.37-.75-1.78-.08-.4-.24-1.66-.4-1.98-.18-.3-.3-.5-.2-.48z"/><path fill="#f4b1b3" d="M37.86 42.67c.23-.06.53.2.72.05.2-.14.83-.7 1-1 .17-.3.44-.68.6-.72.18-.03.43.2.58-.03.15-.22.3-.58.45-.76.16-.17.65-.23 1-.55.32-.3 1.15-.75 1.54-1 .4-.24.76-.33.96-.53.2-.2.6-.8.78-1.04.18-.24.96-.75 1.14-.8.2-.07.5-.07.4.3-.12.37-.34.9-.53 1.02-.2.13.14-.2-.06-.3-.2-.12-.32-.3-.67.2-.35.47-.16 1.23-.3 1.4-.12.16-.5.2-.6.3-.1.12-.32.4-.5.55-.2.14-.5.2-.63.42-.13.22-.54.56-.83.65-.3.1-.77.16-1.03.5-.26.33-.5.5-.8.7-.3.2-.66.43-.72.7-.05.28-.1.93-.55.95-.46 0-.7-.1-.7-.45 0-.33.1-.53-.04-.52-.15.02-.54.28-.52.5.02.2-.18.67-.1.8.1.13.73.17.73.4 0 .25.02.5-.48.47-.5-.02-.8-.22-1.2-.5-.38-.28-.23-.33-.14-.7.1-.34.18-.93.5-1z"/><path fill="#f4b1b3" d="M42.26 41.7c.3-.2 1.13-.55 1.26-.7.13-.14.75-.72.87-.72.1 0 .23.2.5-.1.28-.32.45-.82.58-.82.13 0 .07.74-.43 1.07-.5.33-.17.57-.52.72-.35.15-.63-.02-.8.17-.16.18.08.55-.27.55-.35 0-.9.06-1.1.24-.2.2-.7.3-.82.5-.1.18-.47.53-.63.55-.16.02-.38-.24.16-.52.53-.28.7-.63 1.2-.94z"/><path fill="url(#ax)" d="M1.3 20.34c.15-.4.93-1.38 1.2-1.58.28-.2 1.14-.9 1.63-.77.48.13 1.4.3 2 .3.6 0 1.93 0 2.35 0 .4 0 2.66.42 2.94.46.27.03-.28.8-.7 1.86-.4 1.07-1.24 4.87-1.38 5.6-.13.73-.5 1.3-.9 1.45-.38.14-1.96.24-2.76.04-.8-.2-2.3-.5-2.76-.82-.45-.3-1.18-.45-1.04.1.14.55.66 1 .93 1.07.3.07 1.3 0 1.7.1.42.1 2.35.46 2.74.46.38 0 2.04-.06 2.1.18.07.24-.13 1.07 0 1.73.14.66.5 1.77.87 2.05.4.27.15.52-.55.34-.7-.18-1.62-.77-2.3-1.15-.7-.38-1.4-.4-2-.62-.64-.2-1.67-1.1-2.12-1.38-.45-.28-1.28-.83-1.52-1.52-.24-.7-.3-.94-.65-1.42-.35-.48-.6-2.7-.3-3.14.27-.45.65-1.24 1.06-1.48.42-.25.94-.42 1.5.38.55.8.8.58 1.03.72.24.14.7.6.73.9.03.3-.17.8.17.83.35.04.62-.47.6-.8-.05-.3-.67-1.13-.88-1.33-.2-.2-.8-.25-1.03-.56-.24-.3-.38-1.02-.8-1.06-.4-.03-1.52.66-1.76.52s-.6-.6-.55-.86c.04-.28.18.2.5-.56z" transform="matrix(.535 0 0 .535 22.615 23.537)"/><path fill="#f4b1b3" d="M24.53 32.33c-.2-.25.3-.9.63-1.1.3-.2.94-.5 1.12-.77.2-.27.54-.57.76-.57.22 0 .48.14.52 0 .04-.16.46.08.33.25-.14.17-.3.4-.23.46.06.1.37.3.48.07.1-.22.33-.5.2-.82-.13-.3-.7-.66-.66-.85.03-.18.06-.37.36-.37s.6-.05.72.1c.1.14-.1.42.06.64.14.23.16.54.5.87.37.33.83.52.8.7-.05.15-.3.04-.56.45-.28.4-.37 1.3-.56 1.45-.18.15-.92.24-1.15.28-.22.03-2-.1-2.36-.34-.36-.25-.9-.38-.97-.47z"/><path fill="#f4b1b3" d="M25.88 29.98c.1-.2.87-.92 1.1-1.03.25-.1.2.07.12.2-.08.13 0 .3-.13.35-.13.06-.93.43-.95.5 0 .08-.2.1-.14-.02z"/><path fill="#f4b1b3" d="M30.3 30.48c.23.06.53-.94.66-1.07.13-.12.2-.42.06-.64-.13-.22-.6-.64-.56-.8.04-.14.2-.4.37-.33.17.08.13.32.2.4.04.07.58.55.7.45.1-.1.45-.24.43-.44 0-.2-.07-.5.1-.48.16.02.5.3.72.1.2-.2.24-.5-.08-.5-.3 0-1.2-.16-1.38-.16-.2 0-.67.2-.84.25-.16.05-.55.25-.68.38s-.52.45-.52 1.06c0 .6.08 1.04.3 1.3.22.26.26.4.53.48z"/><path fill="#f4b1b3" d="M28.32 28.23c0-.17.77-.82 1.03-.95s1.1-.27 1.04-.18c-.07.1-.7.35-.8.57-.1.22-.2.48-.3.54-.1.06-.98.3-.98.03z"/><path fill="#f4b1b3" d="M30.26 26.66c.26-.2 1.5-.58 1.98-.58.46 0 1.8-.2 2 .08.18.27.07.6-.14.68-.2.1-.25.28-.72.1-.46-.2-.98-.28-1.38-.25-.4.03-1.15.05-1.37.05-.22 0-.52.02-.37-.1z"/><path fill="#f4b1b3" d="M35.38 25.82c.14-.02.5-.27.28-.33-.22-.07-1.74-.23-2.15-.2-.4.04-1.3.26-.95.26.35 0 1.3.1 1.44.1.14 0 1.25.18 1.38.16z"/><path fill="#f4b1b3" d="M30.7 26.1c.2-.1.7-.35.87-.35.2 0 .87.04.74.1-.12.05-1 .23-1.25.27-.24.04-.64.1-.35-.02z"/><path fill="#f79899" d="M37.04 25.4c-.08-.12-1.96-.65-3.38-.35-.22 0 .93.1 1.37.1.44 0 1.8.32 1.87.32.07 0 .3.13.14-.07z"/><path fill="#f4b1b3" d="M27.28 28.47c.1-.23.63-.7.87-.85.24-.17 1.52-.95 1.65-.93.13 0 .5.23.3.23-.17 0-.73 0-1 .2-.25.2-.88 1.04-1.02 1.17-.15.13-.9.4-.8.17z"/><path fill="#f5d9d9" d="M39.42 34.65c-.3.02-.54.13-.56.65-.02.5.54 1.7.43 2.06-.12.37-.68.67-.48 1.07.2.4.88 1 .94 1.34.07.32-.28.3-.43.06-.15-.24-1.12-.04-1.22-.28-.1-.24-.34-.56.1-1.14.47-.57.55-1.23.23-1.47-.32-.24-.75-.88-.62-1.35.14-.48.78-1.57 1.04-1.87.26-.3.68-1.15.66-1.65-.02-.5.07-.58.26-.47.2.1 1.18.5 1.48.6.3.1 1.12.47 1.2.93.1.46-.06.93-.4.93s-.67-.1-1.05-.5c-.4-.4-.5-.42-.77-.02-.25.42-.66.83-.32.94.36.1 1.13.26 1.17.53.05.28.5.7.7.52.18-.18.42-.57.66-.63.23-.07.66-.58.94-.52.28.07.62.22.62.86 0 .66-.26 1.02-.1 1.32.14.3.27 1.25 0 1.38-.25.13-.36.08-.36-.24s.13-.66-.2-.77c-.36-.12-.85-.3-.6-.55.22-.26.4-.56.37-.77 0-.22-.2-.45-.48-.28-.28.17-1.3.84-1.68.86-.38.02-.98-.28-.94-.76.04-.47.02-.77-.58-.75z"/><path fill="#f5d9d9" d="M40.38 37.98c-.03.32.5 1.1.67.84.17-.26.28-.84.58-.8.3.05.54.48.92.4.4-.05 1.12-.26.8-.33-.32-.07-.97-.22-1.03-.48-.07-.26-.02-.62-.6-.6-.58.02-1.25.25-1.34.96z"/><path fill="url(#ay)" d="M25.77 30.4c.5.2.2.97-.56 2.12-.24.38.78 1.85-.55 1.78-1.3-.08-1.3-1.6-1.72-1.6-1.63-.06-3.36-.45-4-1.28-1.02-1.28-2.02-2.3-3.26-2.3-1.25 0-3.54-.7-3.38-1.35.15-.65 3.08-1.65 3.93-1.33.84.32 1.74 1.14 2.65 1.9 2.07 1.7 6.33 1.87 6.9 2.07z" transform="matrix(.535 0 0 .535 22.615 23.537)"/><path fill="url(#az)" d="M13.82 21.54c1.04-.4 3.53-.28 4.3.04.76.32 3.13 1.17 4.05 2.6.92 1.46 2.13 2.46 1.97 2.78-.16.32-1.8.44-2.5.04-.68-.4-1.8-.48-3.5-2.13-1.67-1.64-5.33.2-5.65.4-.33.2-1.25-2.77 1.32-3.73z" transform="matrix(.535 0 0 .535 22.615 23.537)"/><path fill="url(#aA)" d="M21.97 15.4c.75.46 1.6 3.4 2.3 4.74.67 1.32 3.12 5.06 3.28 5.86.16.8-1 1.97-2.6-.32-1.62-2.3-2.5-4.5-3.74-5.58-1.24-1.1-5.25-1.1-5.94-1.93-.68-.84.65-2.65 1.85-2.77 1.22-.12 3.9-.6 4.87 0z" transform="matrix(.535 0 0 .535 22.615 23.537)"/><path fill="url(#aB)" d="M5.05 19.27c1.78.33 2.38-.46 3.26.1.9.56 2.06 1.7 1.66 2.4-.4.67-.68 4.03-1.28 4.43-.6.4-2.98 1-3.74.48-.76-.52-1.76-.62-2.04-1.35-.28-.72-.98-2.36-.5-2.36.5 0 1.88.88 2 1.48.13.6.95 1.1 1.23.83.28-.28 1.02-1.97.28-2.7-2.74-2.7-3.07-1.95-3.03-2.67.03-.72 1.42-.77 2.18-.63z" transform="matrix(.535 0 0 .535 22.615 23.537)"/><path fill="url(#aC)" d="M6.23 14.07c.7-.38 1.48-2.04 2-1.85.53.2.85.9 1.05 1.13.2.24.8.84 1.36.04.57-.8-.12-1.82.33-1.94.44-.12 1.64 1.65 2.08 2 .45.37-.84 1.3-1.08 2.14-.24.84-.6 2.1-1.44 2.05-.85-.04-4.3-.16-4.66-1.2-.37-1.05-1.2-1.53.36-2.38z" transform="matrix(.535 0 0 .535 22.615 23.537)"/><path fill="url(#aD)" d="M14.54 7.6c.5-.1-.32.4-.24.73.08.32.8 1.08.88 1.65.08.56-.08 1.2-.16 1.72s-.2 1.37-.6 1.13c-.4-.24-1.6-1.25-1.5-2.9.13-1.64.74-2.16 1.62-2.32z" transform="matrix(.535 0 0 .535 22.615 23.537)"/><path fill="#f5d9d9" d="M25.1 38.82c.48.08 1.43.32 1.86.3.43-.02.43.15.32.5-.1.34.13.66-.15.75-.28.08-.8-.52-1.35-.52-.56 0-1.4-1.16-.67-1.03z"/><path fill="#f5d9d9" d="M45 38c0 .2-.28.78-.6 1.12-.3.33-.62.8-.87 1-.24.22-.66-.1-.9.2-.24.3-1.15.94-1.55 1.4-.4.47-1.1 1.43-1.17 1.63-.04.2-.62.2-.64-.03 0-.25-.16-.78.32-1.24.48-.47 1.13-.5 1.38-.84.26-.33.5-.85.82-1.07.33-.22.65-.57.92-.77.28-.2 1.2-.78 1.52-.95.3-.16.44-.22.54-.3.1-.1.25-.25.25-.14z"/><path fill="url(#aE)" d="M16.33 5.45C17.1 5.22 19 4.9 20 4.93c1 .03.72.52.85.8.14.27.18.7-.24.58-.4-.1-1.6-.6-2.44-.58-.83.04-3.77.28-1.83-.27z" transform="matrix(.535 0 0 .535 22.615 23.537)"/><path fill="#f5d9d9" d="M31.07 27.36c.3-.18 1.13-.2 1.1 0-.04.18-.23.83-.4.9-.2.08-.6-.14-.66-.37-.05-.23-.3-.38-.03-.54z"/><path fill="#f5d9d9" d="M35.42 25.5c-.22-.04-1.7-.08-1.9-.07-.2.02.27.2.97.23s.75.18.84.1c.1-.07.23-.25.08-.27z"/><path fill="#f5d9d9" d="M36.34 26.56c.2-.02.35.54.83.78s2.1 1 2.26 1.35c.15.34.3.8-.1 1.13-.44.34-1 .08-1.07.52-.05.45.4.58.26 1.07-.13.5-.14 1.76-.3 1.8-.14.04-.58-1.06-.58-1.4 0-.36.46-.36.22-.65-.24-.3-1.28-.12-1.28.22 0 .32.22.8.32 1.13.1.34.55 1.35.55 1.58 0 .23-.17 1-.33 1.04-.17.04-.93-1.15-1.06-1.55-.13-.42-.7-1.86-.74-2.2-.03-.33.9-.97 1.13-1.3.24-.34.82-1.32 1.07-1.34.26-.02.58-.4.32-.52-.26-.1-.9-.35-1.48-.64-.6-.3-1.07-.34-.87-.6.2-.3.5-.4.84-.44z"/><path fill="#f5d9d9" d="M39.7 30.87c-.02-.22.17-.46.4-.52.22-.05.57-.03.6-.26 0-.23.43-.82.17-1.25-.26-.42-3.03-1.75-3.03-1.95 0-.2.35-.13.68-.04.34.1 1.56.72 1.7.6.12-.1-1.14-1-.94-1.12.2-.1 1 .57 1.17.74.16.17.62 1.3 1 1.4.36.08 1-.1.9-.27-.1-.16-.98-.92-1.28-1.3-.3-.36-1.27-.97-1.03-1 .24-.04 1.6.6 1.94.85.33.24 1.54 1.44 1.6 1.7.08.26.64.9.45 1.13-.18.24-.18 1.12-.42 1.05-.23-.07-.58-1.3-.92-1.2-.33.1-.68 0-.7.42-.02.43-.46.26-.55.74-.1.47.5.84.35.94-.15.1-.93-.06-1.2-.23-.28-.15-.85-.28-.87-.43z"/><path fill="#f5d9d9" d="M42.33 30.83c.1-.04.9.58 1 .78.1.2.3 1.2.22 1.4-.07.18-.42.02-.66-.26-.25-.28-.3-.85-.42-1.13-.13-.27-.55-.58-.15-.77z"/><path fill="#f5d9d9" d="M44.1 31.17c.05-.2.47-.54.7-.32.25.22.93 1.33.7 1.54-.2.2-.43.4-.32.76.1.37.43 1.04.4 1.67-.05.63-.4 1.27-.47 1.5-.07.22-.33 1-.46 1.03-.13.02.1-1.1.1-1.37s-.2-1.5-.3-1.76c-.1-.26-.24-.73-.24-1.3 0-.57-.04-1.1-.13-1.3-.1-.23-.05-.25.02-.47z"/><path fill="#f5d9d9" d="M43.48 27.15c.16-.02.96.52 1.18.85.22.34.82.95.74 1.08-.07.13-.22.22-.1.53.14.33.97 1.7 1.12 1.94.15.24.63 1.3.65 1.55.02.23-.17.3-.17.88 0 .57-.2 1.25-.4 1.4-.2.15-.54.7-.5.35.03-.33.1-.5.25-.85.15-.33.1-.48.15-.8.04-.3.1-1.55-.05-1.75-.15-.2-1.02-1.87-1.2-2.1-.15-.2-.93-1.87-1-2.04-.04-.18-.47-.55-.56-.7-.1-.18-.25-.33-.12-.35z"/><path fill="#f5d9d9" d="M34.13 27.65c.15-.03.66.06.66.17 0 .1-.24.3.02.4.26.1.74-.08 1 .03.23.12.98.22.8.56-.37.63-1.13.57-1.28.85-.15.28-.42 1.2-.77 1.2-.35.02-1.3-.2-1.76-.15-.46.06-1.36.46-1.4.2-.04-.23.18-.35.5-.42.32-.08 1.24-.54 1.54-.56.3-.03.84.22 1.1-.02.28-.25.37-.36.25-.6-.12-.25.3-.83-.14-.84-.25 0-.56.36-.73.43-.18.06-.4.03-.58.17-.17.14-.62.5-.8.57-.2.07-.7.27-.58 0 .1-.24.53-.66.83-.8.3-.14.6-.3.7-.53.1-.2.35-.6.63-.65z"/><path fill="url(#aF)" d="M11.45 30.8c.38-.08 2.53.48 3.24.82.7.33 2.74 2.08 3.24 2.27.5.2 2.96 1.08 2.05 1.27-.9.2-1.5.1-2.63-.66-1.1-.75-2-.88-2.87-.88-.86 0-2.33-.5-2.65-1.34-.32-.84-.7-1.4-.4-1.47z" transform="matrix(.535 0 0 .535 22.615 23.537)"/><path fill="none" stroke="#cb696b" stroke-width=".27" d="M28.77 41.28c-.06-.05-.1-.1-.13-.16-.23-.37-.26-.8-.28-.92 0-.13-.14-.43-.04-1.17.03-.2-.13-.44-.13-.73 0-.3-.08-.87.2-1.82.74-2.4 1.17-2.66 1.2-2.9 0-.24-.04-.45.42-1.77.47-1.32.84-1.02 1.05-1.35.2-.32.57-1 .94-1.43.38-.42.8-.48 1-.7.18-.2.32-.47.68-.7.47-.3 1.1-.3 1.2-.4.1-.12.62-.8.77-.93.16-.14.77-.07.97-.2.2-.1.28-.4.45-.45.17-.05.9.12 1.23.07"/><path fill="none" stroke="#994f51" stroke-width=".27" d="M34.97 42.87c-.2-.1-.37-.22-.37-.22-.66.1-1.5.13-1.97.07-.46-.07-1.16-.54-1.27-.52-.1.02-.52-.05-1.2-.26-.6-.18-1.1-.38-1.4-.66"/><path fill="none" stroke="#cb696b" stroke-width=".27" d="M38.15 44.94c-.25-.05-.38-.17-.7-.44-.3-.27-.63-.57-.74-.64-.1-.07-.3-.54-.52-.6-.2-.08-1-.3-1.2-.4"/><path fill="none" stroke="#994f51" stroke-width=".27" d="M38.3 25.72c.3-.06.17-.17.34-.22.17-.04 1.5.06 1.77.12.28.05.7.27.85.27.14 0 .4 0 .66.06.26.07 1.97.9 2.25 1.06.3.16.98.93 1.25 1.24.32.1.93.38 1.1.48.17.1.84.8.93 1.04.1.24.06.54.17.75.12.22.2.36.22.53.03.17.03.88.1 1.04.07.15.2.45.2.93 0 .5-.16 1.2-.23 1.6-.08.38-.4 1.02-.4 1.16 0 .13-.05.33-.14.45-.08.1-.1-.02-.2.3-.08.33-.38.76-.4.86 0 .1-.02.25-.08.32s-.27.07-.27.2.2.27.24.37c.03.1.07.25.04.35-.03.1-.42.72-.62 1.05-.2.32-.7.94-.74 1.08-.03.14.05.2.05.42 0 .22.03.8-.04 1-.07.18-1.38 1.62-1.63 1.7-.26.06-1.66-.2-1.93-.15-.27.05-1.27.35-1.62.6-.36.26-.94.6-1.18.63-.25.03-.7 0-.8-.04"/><path fill="none" stroke="#d97072" stroke-width=".27" d="M28.77 41.28c-.06-.05-.1-.1-.13-.16-.23-.37-.26-.8-.28-.92 0-.13-.14-.43-.04-1.17.03-.2-.13-.44-.13-.73 0-.3-.08-.87.2-1.82.74-2.4 1.17-2.66 1.2-2.9 0-.24-.04-.45.42-1.77.47-1.32.84-1.02 1.05-1.35.2-.32.57-1 .94-1.43.38-.42.8-.48 1-.7.18-.2.32-.47.68-.7.47-.3 1.1-.3 1.2-.4.1-.12.62-.8.77-.93.16-.14.77-.07.97-.2.2-.1.28-.4.45-.45.17-.05.9.12 1.23.07"/><path fill="none" stroke="#994f51" stroke-width=".27" d="M38.3 25.72h-.02c-.28-.02-.45-.07-.57-.2-.12-.12-.07-.2-1.3-.45-1.2-.25-2.62-.4-4.47.3-1.86.7-1.88 1-2.08 1.1-.2.12-1.66.87-2 1.2-.37.33-.54.42-.65.58-.1.15-.18.4-.38.53s-1.32 1.23-1.68 1.8c-.35.54-.46.83-.6 1.07-.17.24-.74.88-1.05 1.46-.32.58-.63 1.4-.63 1.62 0 .22.3.7.3.84 0 .13-.4.42-.4.6-.03.17.03.66.08 1.03.04.37.02.6.1.8.1.17.34.25.38.4.05.16.18.54.4.74.22.2.42.26.64.48.22.22.64.6.95.7.3.08.8 0 1 .12.2.13.88.82 1.2.93.34.1 1.05-.07 1.25-.1"/></g><g><path fill="url(#aG)" d="M40.2 42.95c0 2.57-7.68 4.65-17.17 4.65-9.48 0-17.17-2.08-17.17-4.65 0-2.57 7.7-4.65 17.17-4.65 9.5 0 17.17 2.08 17.17 4.65z" transform="matrix(.378 .071 0 .411 9.162 25.066)" color="#000" overflow="visible" enable-background="accumulate"/><path stroke="#fff" stroke-width=".47.5" d="M16.64 28.38c-.05 0-.08.02-.12.03l-2.03.93s.04 0 .06-.02c-.27.15-.5.4-.6.7l-1.07 5.42 1.1.25 1-.35.28-.53.14 1.7-1.5 7.74 1.96.6 1.47-.93.4-1.35.5 2.7 1.67.5 1.76-1.26-.9-6.5 1.22.42 1.4-.72-1.6-6.5c-.1-.64-.4-1.13-.96-1.42l-3.76-1.37c-.14-.02-.3-.03-.44-.02z"/><path fill="url(#aH)" d="M27.87 45.96L24.9 28.6l4.14-1.8 2.24 16.62z" transform="matrix(.47 0 0 .47 7.017 24.159)"/><path d="M15.87 44.87l1.52-.9 1.32-4.5-1.45.35z"/><path fill="url(#aI)" d="M17.96 26.4l-3.24 16.5 4.23 1.24 2.88-10.8L23.96 45l3.9 1.12-1.9-17.37z" transform="matrix(.47 0 0 .47 7.017 24.159)"/><path fill="url(#aJ)" stroke="#fff" stroke-width="1.346" d="M30.46 7.06c0 3.6-2.46 6.5-5.48 6.5-3.03 0-5.48-2.9-5.48-6.5 0-3.58 2.45-6.5 5.48-6.5 3.02 0 5.48 2.92 5.48 6.5z" transform="matrix(.184 0 0 .166 9.175 34.852)" color="#000" stroke-linecap="round" overflow="visible" enable-background="accumulate"/><path d="M14 35.77l1.2-4.06.3 2.82-.45.86z"/><path fill="url(#aK)" stroke="#fff" stroke-width="1.143" d="M30.46 7.06c0 3.6-2.46 6.5-5.48 6.5-3.03 0-5.48-2.9-5.48-6.5 0-3.58 2.45-6.5 5.48-6.5 3.02 0 5.48 2.92 5.48 6.5z" transform="matrix(.217 0 0 .195 16.856 37.443)" color="#000" stroke-linecap="round" overflow="visible" enable-background="accumulate"/><path fill="url(#aL)" stroke="url(#aM)" stroke-width=".5" d="M12.52 23.95l2.3-11.35c.37-1.05 1.53-1.96 2.48-1.62l9.26 3.1c1.3.4 2.16 1.66 2.5 3.07l2.88 13.33-2.62-.9-2.4-10.06-.58 9.42-3.72.62-1.24-2.14-2.26 1.12-2.3-2.1v-9.16L15.1 24.7z" transform="matrix(.47 0 0 .47 7.017 24.159)"/><path fill="url(#aN)" stroke="url(#aO)" stroke-width=".5" d="M16 11.14l4.3-1.94c.28-.1.82-.1 1.2 0l8 2.9c1.17.63 1.83 1.67 2.04 3.05l3.42 13.83-3.02 1.45-2.97-13.2c-.28-1.18-1.4-2.5-2.65-3.05l-9.02-3.15c-.4-.1-.98 0-1.3.1z" transform="matrix(.47 0 0 .47 7.017 24.159)"/><path fill="#eeeeec" d="M16.72 33.8l-.4-4.16 1.56-.76 2.18.75-1.6.87L17.4 34z"/><path d="M16.97 34.54l-1.55-2.6.36-.2z"/><path fill="url(#aP)" d="M21.7 12.13s-.76.48-.87.88c-.12.4.54.9.54.9l-.88 5.8.7 2.37 1.38-1.86-.25-6.18s.72-.2.73-.55c0-.4-.57-1.08-.57-1.08z" transform="matrix(.47 0 0 .47 7.017 24.159)"/><path fill="url(#aQ)" d="M26.87 13.58c0 .6-1.32 1.08-2.95 1.08-1.64 0-2.96-.48-2.96-1.08 0-.6 1.32-1.1 2.96-1.1 1.63 0 2.95.5 2.95 1.1z" transform="matrix(.539 0 0 .538 5.305 22.324)" color="#000" overflow="visible" enable-background="accumulate"/><path fill="url(#aR)" stroke="#fff" stroke-width=".5" d="M27.17 5.77c-.4 3.37-1.8 5.37-4 5.37s-3.8-3.12-4-5.37c-.27-2.95 1.8-5.37 4-5.37s4.36 2.43 4 5.37z" color="#000" stroke-linecap="round" overflow="visible" enable-background="accumulate" transform="matrix(.47 0 0 .47 7.017 24.159)"/><path d="M16.07 31.37l-.65-.7.4-.16z" color="#000" overflow="visible" enable-background="accumulate"/><path fill="url(#aS)" d="M19.7 11.82l-1.77 1.46 1.14 1.43-1.14 1.1 3.32 6.32z" transform="matrix(.47 0 0 .47 7.017 24.159)"/><path d="M18.45 30.54l.9 1.05-.92.5.83.83-2.2 1.54z"/><path fill="url(#aT)" d="M24.3 13.42l1.77 1.8-1.76.95 1.4 1.57-4.44 4.34z" transform="matrix(.47 0 0 .47 7.017 24.159)"/><path fill="none" stroke="#000" stroke-width=".235" d="M17.05 34.47l.02 2.53"/><path fill="none" stroke="#888a85" stroke-width=".235" d="M16.8 34.45v2.53"/><path fill="url(#aU)" d="M24.1 5.22l2.67-.6.05.45-3.23 1z" transform="matrix(.47 0 0 .47 7.017 24.159)"/><path d="M15.94 26.07c.37.03.74.08 1.12.33.44-.1 1 0 1.57.16 0 0 .02.22-.14.38-.3.27-.4.8-.73.8-.36 0-.7-.74-.85-.8-.12-.03-.2.54-.5.53-.38-.02-.36-.9-.48-1.4z"/></g></g></svg>