<svg xmlns="http://www.w3.org/2000/svg" width="48" height="48" xmlns:xlink="http://www.w3.org/1999/xlink"><defs><linearGradient><stop offset="0" stop-color="#dfe0dd"/><stop offset="1" stop-color="#9ba096"/></linearGradient><linearGradient><stop offset="0" stop-color="#eb0000"/><stop offset="1" stop-color="#a40000"/></linearGradient><linearGradient id="a"><stop offset="0" stop-color="#5c5c5c"/><stop offset="1" stop-color="#b1b1b1"/></linearGradient><linearGradient id="b"><stop offset="0" stop-color="#fff"/><stop offset="1" stop-color="#c2c2c2"/></linearGradient><linearGradient><stop offset="0" stop-color="#c00"/><stop offset="1" stop-color="#ff0202"/></linearGradient><linearGradient x1="40.152" x2="23.922" y1="41.536" y2="23.445" xlink:href="#a" gradientUnits="userSpaceOnUse"/><linearGradient x1="23.583" x2="39.923" y1="22.637" y2="40.688" xlink:href="#b" gradientUnits="userSpaceOnUse"/><linearGradient id="c"><stop offset="0" stop-color="#fff"/><stop offset="1" stop-color="#c2c2c2"/></linearGradient><linearGradient x1="23.583" x2="39.923" y1="22.637" y2="40.688" gradientUnits="userSpaceOnUse" xlink:href="#c"/><linearGradient x1="40.152" x2="23.922" y1="41.536" y2="23.445" xlink:href="#a" gradientUnits="userSpaceOnUse" gradientTransform="matrix(.986 0 0 .986 .356 .338)"/><linearGradient x1="14.097" x2="56.21" y1="-12.223" y2="10.203" xlink:href="#d" gradientUnits="userSpaceOnUse"/><linearGradient id="d"><stop offset="0" stop-color="#fff"/><stop offset=".118" stop-color="#cbcbcb"/><stop offset=".242" stop-color="#f4f4f4"/><stop offset=".375" stop-color="#949494"/><stop offset=".499" stop-color="#717171"/><stop offset=".624" stop-color="#cdcdcd"/><stop offset=".731" stop-color="#a3a3a3"/><stop offset=".866" stop-color="#d6d6d6"/><stop offset="1" stop-color="#fff"/></linearGradient><linearGradient><stop offset="0" stop-color="#7e7e7e"/><stop offset=".225" stop-color="#5c5c5c"/><stop offset="1" stop-color="#252525"/></linearGradient><linearGradient id="e"><stop offset="0" stop-color="#7e7e7e"/><stop offset=".225" stop-color="#5c5c5c"/><stop offset="1" stop-color="#252525"/></linearGradient><radialGradient cx="28.183" cy=".303" r="11.763" fy=".303" fx="28.183" gradientTransform="matrix(1.463 -.031 .029 1.361 -23.779 .767)" gradientUnits="userSpaceOnUse" xlink:href="#e"/><linearGradient x1="5.372" x2="43.244" y1="-8.617" y2="15.528" xlink:href="#d" gradientUnits="userSpaceOnUse" gradientTransform="matrix(.589 .589 -.589 .589 1.829 3.996)"/><radialGradient cx="-1.759" cy="43.507" r="11.763" xlink:href="#e" gradientUnits="userSpaceOnUse" gradientTransform="matrix(1.583 -.015 .014 1.499 16.46 -46.027)" fx="-1.759" fy="43.507"/><radialGradient id="g" cx="-1.759" cy="43.507" r="11.763" xlink:href="#e" gradientUnits="userSpaceOnUse" gradientTransform="matrix(-.013 1.265 1.3 .011 -36.371 17.631)" fx="-1.759" fy="43.507"/><linearGradient id="f" x1="5.372" x2="43.244" y1="-8.617" y2="15.528" xlink:href="#d" gradientUnits="userSpaceOnUse" gradientTransform="matrix(.551 .507 .551 -.507 5.702 4.609)"/></defs><g><g fill="none" stroke-width="1.605"><path stroke="#fff" stroke-width="0.93" d="M23.86 48.27v-10"/><path stroke="#000" stroke-width="0.93" d="M25.06 48.27v-10"/></g><g fill="none" stroke-width="1.605"><path stroke="#fff" stroke-width="0.93" d="M36 9.74v-10"/><path stroke="#000" stroke-width="0.93" d="M37.2 9.74v-10"/></g><g fill="none" stroke-width="1.605"><path stroke="#fff" stroke-width="0.93" d="M12.1 9.74v-10"/><path stroke="#000" stroke-width="0.93" d="M13.3 9.74v-10"/></g><path fill="url(#f)" stroke="#000" d="M6.1 10.3l18.3 28.38L42.7 10.3z" color="#000" overflow="visible" enable-background="accumulate"/><path fill="url(#g)" stroke="#000" d="M13.23 14.45L24.4 31.7l11.15-17.25z" color="#000" overflow="visible" enable-background="accumulate"/><path fill="#fff" stroke="#000" stroke-width="1.00434" d="M12.66 12.08c1.8 0 2.9-1.94 2-3.5-.4-.7-1.17-1.15-2-1.15-1.8 0-2.9 1.94-2 3.48.4.73 1.17 1.18 2 1.18z" color="#000" overflow="visible" enable-background="accumulate"/><path fill="#fff" stroke="#000" stroke-width="1.00434" d="M36.47 12.08c1.8 0 2.9-1.94 2.02-3.5-.43-.7-1.2-1.15-2.03-1.15-1.78 0-2.9 1.94-2 3.48.4.73 1.17 1.18 2 1.18z" color="#000" overflow="visible" enable-background="accumulate"/><path fill="#fff" stroke="#000" stroke-width="1.00434" d="M24.58 40.63c1.78 0 2.9-1.93 2-3.48-.4-.72-1.17-1.16-2-1.16-1.8 0-2.9 1.92-2.02 3.47.42.72 1.18 1.16 2.02 1.16z" color="#000" overflow="visible" enable-background="accumulate"/></g></svg>