<svg xmlns="http://www.w3.org/2000/svg" width="48" height="48" xmlns:xlink="http://www.w3.org/1999/xlink"><defs><linearGradient id="e"><stop offset="0" stop-color="#fff"/><stop offset=".118" stop-color="#cbcbcb"/><stop offset=".242" stop-color="#f4f4f4"/><stop offset=".375" stop-color="#949494"/><stop offset=".499" stop-color="#717171"/><stop offset=".624" stop-color="#cdcdcd"/><stop offset=".731" stop-color="#a3a3a3"/><stop offset=".866" stop-color="#d6d6d6"/><stop offset="1" stop-color="#fff"/></linearGradient><linearGradient id="d"><stop offset="0" stop-color="#7e7e7e"/><stop offset=".225" stop-color="#5c5c5c"/><stop offset="1" stop-color="#252525"/></linearGradient><linearGradient id="c"><stop offset="0" stop-color="#eb0000"/><stop offset="1" stop-color="#a40000"/></linearGradient><linearGradient id="a"><stop offset="0" stop-color="#a40000"/><stop offset="1" stop-color="#ff0202"/></linearGradient><linearGradient id="b"><stop offset="0" stop-color="#fff"/><stop offset="1" stop-color="#c2c2c2"/></linearGradient><linearGradient><stop offset="0" stop-color="#c00"/><stop offset="1" stop-color="#ff0202"/></linearGradient><linearGradient x1="40.152" x2="23.922" y1="41.536" y2="23.445" xlink:href="#a" gradientUnits="userSpaceOnUse"/><linearGradient x1="23.583" x2="39.923" y1="22.637" y2="40.688" xlink:href="#b" gradientUnits="userSpaceOnUse"/><linearGradient x1="23.542" x2="22.957" y1="11.284" y2="36.79" xlink:href="#c" gradientUnits="userSpaceOnUse"/><linearGradient x1="23.542" x2="22.957" y1="11.284" y2="36.79" xlink:href="#c" gradientUnits="userSpaceOnUse" gradientTransform="matrix(.914 0 0 .915 2.02 2.054)"/><radialGradient id="g" cx="28.183" cy=".303" r="11.763" xlink:href="#d" fx="28.183" fy=".303" gradientUnits="userSpaceOnUse" gradientTransform="matrix(1.463 -.031 .029 1.361 -13.071 .767)"/><linearGradient id="f" x1="14.097" x2="56.21" y1="-12.223" y2="10.203" xlink:href="#e" gradientUnits="userSpaceOnUse"/></defs><g><path fill="url(#f)" stroke="#000" d="M17.32-16.62h33.24v33.24H17.32z" transform="rotate(45.009)" color="#000" overflow="visible" enable-background="accumulate"/><path fill="url(#g)" stroke="#000" d="M22.68-11.26H45.2v22.52H22.68z" transform="rotate(45.009)" color="#000" overflow="visible" enable-background="accumulate"/><g fill="#fff" style="text-align:start;line-height:125%;-inkscape-font-specification:HeadLineA" font-size="40" letter-spacing="0" word-spacing="0" font-family="HeadLineA"><path d="M28.82 19.43c0 1.02-.36 2.12-1.06 3.3-1.57 2.6-2.36 3.98-2.36 4.12v1.68h-3.5v-3.07c0-.88.44-2 1.32-3.35.9-1.34 1.36-2.35 1.36-3v-.85c0-.3-.05-.53-.15-.64-.08-.13-.3-.2-.65-.2-.33 0-.56.1-.7.3-.12.2-.18.58-.18 1.17v1h-4.1v-2.44c0-1.08.47-1.98 1.4-2.7.92-.73 2.13-1.1 3.64-1.1 1.8 0 3.1.46 3.98 1.4.66.7 1 1.57 1 2.6v1.8M26 34.2h-4.72v-4.03h4.7v4.04"/></g></g></svg>