<svg xmlns="http://www.w3.org/2000/svg" width="48" height="48" xmlns:xlink="http://www.w3.org/1999/xlink"><defs><linearGradient id="d"><stop offset="0" stop-color="#c17d11"/><stop offset="1" stop-color="#c17d11" stop-opacity="0"/></linearGradient><linearGradient id="c"><stop offset="0" stop-color="#c17803"/><stop offset="1" stop-color="#8f5902"/></linearGradient><linearGradient id="b"><stop offset="0" stop-color="#edc112"/><stop offset=".851" stop-color="#f7e2c7"/><stop offset="1" stop-color="#fcf0de"/></linearGradient><linearGradient id="a"><stop offset="0"/><stop offset="1" stop-opacity="0"/></linearGradient><radialGradient id="e" cx="50.619" cy="39.81" r="27.19" xlink:href="#a" fx="50.619" fy="39.81" gradientTransform="matrix(1 0 0 .448 0 21.978)" gradientUnits="userSpaceOnUse"/><radialGradient id="f" cx="19.916" cy="14.689" r="23.702" xlink:href="#b" fx="19.916" fy="14.689" gradientTransform="matrix(1.593 -.549 .291 .846 -16.866 17.375)" gradientUnits="userSpaceOnUse"/><linearGradient id="g" x1="14.772" x2="29.985" y1="13.82" y2="41.059" xlink:href="#c" gradientUnits="userSpaceOnUse"/><linearGradient id="h" x1="18.286" x2="26.19" y1="12.952" y2="23.476" xlink:href="#d" gradientUnits="userSpaceOnUse" gradientTransform="translate(.381 -.19)"/><linearGradient id="i" x1="18.286" x2="26.19" y1="12.952" y2="23.476" xlink:href="#d" gradientUnits="userSpaceOnUse" gradientTransform="matrix(.877 .481 -.481 .877 25.001 -8.292)"/><linearGradient id="j" x1="18.286" x2="26.19" y1="12.952" y2="23.476" xlink:href="#d" gradientUnits="userSpaceOnUse" gradientTransform="translate(-11.333 6.19)"/></defs><g><path fill="#eeeeec" d="M38.26-1.63S34.76.02 35.13 3.3c.3 2.73 2.9 2.5 2.7 6.12-.07 1.04-1.45 3.25-2.17 4.88 0 0 5.9-4.18 5.2-6.62-.7-2.57-2-2.27-2.62-3.8-.47-1.16-.08-4.16.02-5.5z"/><path fill="url(#e)" d="M77.8 39.8a27.2 12.18 0 1 1-54.37 0 27.2 12.18 0 1 1 54.38 0z" transform="matrix(.865 -.226 .194 .934 -28.04 9.247)" color="#000" overflow="visible" enable-background="accumulate"/><path fill="url(#f)" stroke="url(#g)" stroke-width=".908" d="M.9 32.45C.2 39.4 5.6 43.7 18.24 43.35c11.8-.34 26.2-7.74 28.8-17.6 1.08-4.05-.78-8.03-4.34-10.4-1.4-.93-4.03-1.96-7.32-2.65-2.6.26-5.53.14-8.42-.8-2.57.05-5.25.37-7.88 1.08-1.8 1.8-4.02 2.66-6.58 2.77-1.78 1.07-3.5 2.35-4.8 3.58-.5 2.03-2.64 4.5-4.48 5.85-1.35 2.5-2.08 5.03-2.3 7.27z"/><path fill="#fff" fill-opacity=".32" d="M3.05 24.95c5.17 2.48 9.48 4.6 11.9 7.72 1.13 1.44 3.97.17 3.05-1.8-3.12-6.72-6.25-8.84-10.2-11.44-.87 2.12-2.6 3.9-4.75 5.52z"/><path fill="#fff" fill-opacity=".32" d="M12.7 16.1c3.86 1.84 8.76 6.12 10.77 9.44.94 1.56 4.17.97 3.77-1.2-1.35-7.27-3.97-9.7-8-11.42-1.64 1.6-3.94 2.54-6.55 3.17z"/><path fill="#fff" fill-opacity=".32" d="M27.27 12.35c3.77 2.07 6.5 6.8 7.47 9.08.72 1.7 4 1.22 3.84-.96-.18-2.2-.85-5.53-3.24-7.87-1.55.65-5.5.47-8.07-.25z"/><path fill="url(#h)" d="M18.67 13.62c5.34 2.1 7.65 7.28 9.14 10.86-.87-4.68-2.36-9.37-7.42-11.72l-1.7.86z"/><path fill="url(#i)" d="M34.97 12.7c2.15 1.93 3.6 5.1 3.08 8.68 1.3-3.67-.24-7.16-1.74-8.7l-1.33.02z"/><path fill="url(#j)" d="M6.95 20c6.58 3.14 9.65 7.66 11.15 11.24-.88-4.68-3.7-8.5-9.43-12.1L6.95 20z"/><path fill="#eeeeec" d="M22.83.46s-3.5 1.2-3.13 3.58c.3 1.98 2.9 1.82 2.7 4.43-.07.76-1.45 2.36-2.17 3.54 0 0 5.9-3.02 5.2-4.8-.7-1.85-2-1.63-2.62-2.74-.46-.84-.07-3.02.03-4z"/><path fill="#eeeeec" d="M10.26.56s-3.5 1.8-3.13 5.35c.3 2.96 2.9 2.72 2.7 6.63-.07 1.14-1.45 3.53-2.17 5.3 0 0 5.9-4.54 5.2-7.18-.7-2.78-2-2.46-2.62-4.12-.47-1.25-.08-4.5.02-5.97z"/></g></svg>