<svg xmlns="http://www.w3.org/2000/svg" width="48" height="48" xmlns:xlink="http://www.w3.org/1999/xlink" xmlns:sodipodi="http://inkscape.sourceforge.net/DTD/sodipodi-0.dtd" sodipodi:version=".32" sodipodi:docname="blend.svg" sodipodi:docbase="e:\dev_clean\src\houdini\support\icons\common"><defs><linearGradient id="e"><stop offset="0" stop-color="#fff"/><stop offset="1" stop-color="#fff" stop-opacity="0"/></linearGradient><linearGradient id="d"><stop offset="0" stop-color="#fff"/><stop offset="1" stop-color="#fff" stop-opacity="0"/></linearGradient><linearGradient id="c"><stop offset="0" stop-color="#3465a4"/><stop offset="1" stop-color="#3465a4" stop-opacity="0"/></linearGradient><linearGradient id="b"><stop offset="0" stop-color="#d3d7cf"/><stop offset="1" stop-color="#a6ae9d"/></linearGradient><linearGradient id="a"><stop offset="0"/><stop offset="1" stop-opacity="0"/></linearGradient><radialGradient id="g" cx="22.571" cy="30.857" r="15.571" xlink:href="#a" fx="22.571" fy="30.857" gradientTransform="matrix(1 0 0 .651 0 10.758)" gradientUnits="userSpaceOnUse"/><linearGradient id="h" x1="19.544" x2="36.063" y1="22.641" y2="22.641" xlink:href="#b" gradientUnits="userSpaceOnUse" gradientTransform="matrix(1.184 0 0 1.184 -5.942 -5.052)"/><linearGradient id="f" x1="22.032" x2="20.712" y1="22.782" y2="4.75" xlink:href="#c" gradientUnits="userSpaceOnUse" gradientTransform="matrix(1.184 0 0 1.184 -5.942 -5.052)"/><linearGradient id="j" x1="17.526" x2="33.474" y1="20.397" y2="15.272" xlink:href="#d" gradientUnits="userSpaceOnUse" gradientTransform="matrix(1.184 0 0 1.184 -5.942 -4.32)"/><linearGradient id="i" x1="23.938" x2="23.938" y1="18.725" y2="16.848" xlink:href="#e" gradientUnits="userSpaceOnUse" gradientTransform="matrix(1.184 0 0 1.184 -5.942 -4.32)"/></defs><sodipodi:namedview fill="#3465a4" stroke="#888a85" pagecolor="#ffffff" bordercolor="#666666" borderopacity=".122" showgrid="false"/><g color="#000"><path fill="url(#f)" d="M3.55 33.4C-5.55 21.56 6.9 9.5 20.95 9.82c14.04.34 23.4 8.54 26.52 23.73 0 0-7.74-2.47-7.74-2.47 0-7.8-6.93-15.85-18.6-15.85-12.02 0-23.76 3.1-17.58 18.14z" sodipodi:nodetypes="cscczc" overflow="visible"/><path fill="url(#g)" d="M38.14 30.86a15.57 10.14 0 1 1-31.14 0 15.57 10.14 0 1 1 31.14 0z" sodipodi:type="arc" sodipodi:cx="22.571" sodipodi:cy="30.857" sodipodi:rx="15.571" sodipodi:ry="10.143" transform="matrix(1.408 0 0 1.408 -10.541 -16.324)" opacity=".474" overflow="visible"/><path fill="url(#h)" stroke="#888a85" d="M20.88 6.12c-7.33 0-13.28 4.1-13.28 9.14 0 1.6-2.37 8.7-2.37 11.47 0 5.88 6.93 10.66 15.47 10.66 8.54 0 15.47-4.8 15.47-10.67 0-2.7-2.04-11.47-2.04-11.47l-.15-7.1-4.3.37c-2.34-1.47-5.37-2.4-8.8-2.4z" sodipodi:nodetypes="csssssccc" stroke-linecap="round" stroke-linejoin="round" overflow="visible"/><path fill="#eeeeec" stroke="url(#i)" d="M20.7 6.6c-6.65 0-12.06 3.45-12.06 7.7S14.04 22 20.7 22c6.65 0 12.06-3.45 12.06-7.7 0-.8-.36-1.5-.7-2.22l1.26-3.26-3.67.48c-2.2-1.6-5.33-2.7-8.95-2.7z" opacity=".737" stroke-linecap="round" stroke-linejoin="round" overflow="visible"/><path fill="none" stroke="url(#j)" d="M20.87 7.27c-6.8 0-12.3 3.8-12.3 8.47 0 1.48-2.2 8.05-2.2 10.63 0 5.44 6.42 9.87 14.33 9.87 7.9 0 14.33-4.43 14.33-9.87 0-2.5-1.9-10.63-1.9-10.63L33 9.16l-3.97.34c-2.18-1.35-5-2.23-8.16-2.23z" sodipodi:nodetypes="csssssccc" opacity=".474" overflow="visible"/></g></svg>