<svg xmlns="http://www.w3.org/2000/svg" width="48" height="48" xmlns:xlink="http://www.w3.org/1999/xlink"><defs><linearGradient id="e"><stop offset="0" stop-color="#9c9c9c"/><stop offset="1" stop-color="#2e3436"/></linearGradient><linearGradient id="d"><stop offset="0" stop-color="#8c8f89"/><stop offset="1" stop-color="#555753"/></linearGradient><linearGradient id="b"><stop offset="0" stop-color="#eeeeec"/><stop offset="1" stop-color="#d4d4cf"/></linearGradient><linearGradient id="a"><stop offset="0"/><stop offset="1" stop-opacity="0"/></linearGradient><radialGradient id="f" cx="24.321" cy="28.5" r="23.536" xlink:href="#a" fx="24.321" fy="28.5" gradientTransform="matrix(1 0 0 .68 0 9.125)" gradientUnits="userSpaceOnUse"/><linearGradient id="i" x1="2.521" x2="6.178" y1="35.269" y2="40.733" xlink:href="#b" gradientUnits="userSpaceOnUse"/><linearGradient id="m" x1="41.164" x2="44.5" y1="35.411" y2="40.84" xlink:href="#c" gradientUnits="userSpaceOnUse"/><linearGradient id="c"><stop offset="0" stop-color="#eeeeec"/><stop offset="1" stop-color="#d4d4cf"/></linearGradient><linearGradient x1="2.45" x2="7.071" y1="38.019" y2="38.019" gradientTransform="translate(-2.45 -35.291)" gradientUnits="userSpaceOnUse" xlink:href="#c"/><linearGradient id="j" x1="12.128" x2="15.642" y1="35.376" y2="40.411" xlink:href="#c" gradientUnits="userSpaceOnUse"/><linearGradient id="k" x1="21.95" x2="25.214" y1="35.519" y2="40.84" xlink:href="#c" gradientUnits="userSpaceOnUse"/><linearGradient id="l" x1="31.592" x2="34.857" y1="35.304" y2="40.769" xlink:href="#c" gradientUnits="userSpaceOnUse"/><radialGradient id="g" cx="23.281" cy="17.937" r="23.739" xlink:href="#d" fx="23.281" fy="17.937" gradientTransform="matrix(1.121 .007 -.004 .554 -2.752 7.863)" gradientUnits="userSpaceOnUse"/><linearGradient id="h" x1=".151" x2="48.128" y1="22.017" y2="22.017" xlink:href="#e" gradientUnits="userSpaceOnUse"/></defs><g><path fill="url(#f)" fill-rule="evenodd" d="M47.86 28.5a23.54 16 0 1 1-47.07 0 23.54 16 0 1 1 47.06 0z" transform="matrix(1.211 0 0 .926 -5.38 .921)" color="#000" overflow="visible" enable-background="accumulate"/><path fill="none" stroke="#73756f" d="M7.4 7l-.5 1.7 3 .05-.37.6 1.88-.22L11 7H7.4zm7.4 0l-.36 1.7 3.25.05-.14.3L19 9.1 18.4 7h-3.6zm14.95 0v.06L29.2 9.1l1.4-.04-.13-.3 3.25-.07-.34-1.7h-3.63zm7.4 0l.04.06-.42 2.07 1.84.2-.37-.58 3.03-.06-.53-1.7h-3.6zm-14.87.1v2.15h3.7V7.1h-3.7z" stroke-linejoin="bevel" color="#000" overflow="visible" enable-background="accumulate"/><path fill="#babdb6" d="M9.55 9.34L11 7l.4 2.13z" color="#000" overflow="visible" enable-background="accumulate"/><path fill="#babdb6" d="M17.58 9.06L18.4 7 19 9.1z" color="#000" overflow="visible" enable-background="accumulate"/><path fill="#babdb6" d="M38.64 9.34L37.17 7l-.4 2.13z" color="#000" overflow="visible" enable-background="accumulate"/><path fill="#babdb6" d="M30.6 9.06L29.78 7 29.2 9.1z" color="#000" overflow="visible" enable-background="accumulate"/><path fill="#eeeeec" d="M6.9 8.68L7.4 7H11l-.4 1.76z" color="#000" overflow="visible" enable-background="accumulate"/><path fill="#eeeeec" d="M14.43 8.68L14.8 7h3.62l-.27 1.76z" color="#000" overflow="visible" enable-background="accumulate"/><path fill="#eeeeec" d="M22.27 7.1h3.7v2.16h-3.7z" color="#000" overflow="visible" enable-background="accumulate"/><path fill="#eeeeec" d="M41.27 8.68L40.77 7h-3.62l.4 1.76z" color="#000" overflow="visible" enable-background="accumulate"/><path fill="#eeeeec" d="M33.73 8.68L33.36 7h-3.6L30 8.77z" color="#000" overflow="visible" enable-background="accumulate"/><path fill="url(#g)" d="M4.5 8.86L.4 29.46l.4 5.7h46.67l.4-5.54-4.3-20.7z"/><path fill="#32383a" d="M.3 29.56l.46 5.66h46.67l.5-5.55z"/><path fill="none" stroke="url(#h)" stroke-width=".5" d="M4.5 8.86L.4 29.46l.4 5.7h46.67l.4-5.54-4.3-20.7z"/><path fill="none" stroke="#555753" d="M12.47 31.9l-.38 3.38h-.04l1.03 5.47 2.5.13 1.12-4.8.28-1.27v-2.33l.06-.56zm9.28 0l.13 3.5.96 5.44h2.35l1.05-5.43.22-3.5zm9.4 0v2.91l.3 1.3 1.1 4.67 2.45-.02 1.13-5.44-.38-3.4zm-28.06.04l-.6 3.34h-.06l1.06 5.47 2.48.04 1.2-4.4.5-1.46-.05-2.7.06-.3zm37.43 0V32l-.06 2.94.5 1.47 1.13 4.5 2.52-.15 1.1-5.38h.03v-.06l-.03-.02-.6-3.34z" color="#000" stroke-linejoin="bevel" overflow="visible" enable-background="accumulate"/><path fill="#babdb6" d="M7.63 32L6.2 35.4l-.32 5.43 1.32-4.5.48-1.44z" color="#000" overflow="visible" enable-background="accumulate"/><path fill="#babdb6" d="M40.53 32l1.36 3.38.27 5.38-1.24-4.47-.45-1.43z" color="#000" overflow="visible" enable-background="accumulate"/><path fill="#babdb6" d="M31.16 31.94v2.85l.28 1.26 1.1 4.73-.16-6.74z" color="#000" overflow="visible" enable-background="accumulate"/><path fill="#babdb6" d="M17 31.94v2.84l-.3 1.28-1.16 4.72.2-6.72z" color="#000" overflow="visible" enable-background="accumulate"/><path fill="#fff" d="M3.08 31.94l-.6 3.43h4.6l.6-3.43z"/><path fill="#fff" d="M12.45 31.9l-.36 3.45h4.6l.35-3.44z"/><path fill="#fff" d="M45.13 31.94l.6 3.43h-4.6l-.6-3.43z"/><path fill="#fff" d="M35.76 31.9l.36 3.45h-4.6l-.36-3.44z"/><path fill="#fff" d="M21.74 31.9h4.73l-.23 3.5h-4.37z" color="#000" overflow="visible" enable-background="accumulate"/><path fill="url(#i)" d="M2.45 35.3l1.04 5.45h2.43l1.14-5.46z" color="#000" overflow="visible" enable-background="accumulate"/><path fill="url(#j)" d="M12.07 35.3l1.04 5.45h2.46l1.13-5.46z" color="#000" overflow="visible" enable-background="accumulate"/><path fill="url(#k)" d="M21.87 35.4l.98 5.45h2.33l1.08-5.45z" color="#000" overflow="visible" enable-background="accumulate"/><path fill="url(#l)" d="M31.54 35.3l1.03 5.45H35l1.1-5.46z" color="#000" overflow="visible" enable-background="accumulate"/><path fill="url(#m)" d="M41.16 35.3l1.03 5.45h2.4l1.13-5.46z" color="#000" overflow="visible" enable-background="accumulate"/></g></svg>