<svg xmlns="http://www.w3.org/2000/svg" width="48" height="48" xmlns:xlink="http://www.w3.org/1999/xlink"><defs><linearGradient id="h"><stop offset="0" stop-color="#2e3436"/><stop offset="1" stop-color="#2e3436" stop-opacity="0"/></linearGradient><linearGradient id="g"><stop offset="0" stop-color="#2e3436" stop-opacity=".251"/><stop offset="1" stop-color="#2e3436" stop-opacity="0"/></linearGradient><linearGradient id="f"><stop offset="0" stop-color="#fff" stop-opacity="0"/><stop offset=".5" stop-color="#fff"/><stop offset="1" stop-color="#fff" stop-opacity="0"/></linearGradient><linearGradient id="e"><stop offset="0" stop-color="#aaaba8"/><stop offset="1" stop-color="#888a85" stop-opacity="0"/></linearGradient><linearGradient id="d"><stop offset="0" stop-color="#888a85"/><stop offset="1" stop-color="#babdb6" stop-opacity="0"/></linearGradient><linearGradient id="c"><stop offset="0" stop-color="#fff"/><stop offset="1" stop-color="#fff" stop-opacity="0"/></linearGradient><linearGradient id="b"><stop offset="0" stop-color="#fff" stop-opacity="0"/><stop offset=".5" stop-color="#fff"/><stop offset="1" stop-color="#fff" stop-opacity="0"/></linearGradient><linearGradient id="a"><stop offset="0" stop-color="#d3d7cf"/><stop offset="1" stop-color="#555753" stop-opacity="0"/></linearGradient><linearGradient id="m" x1="5.778" x2="21.841" y1="12.776" y2="9.855" xlink:href="#a" gradientUnits="userSpaceOnUse" gradientTransform="matrix(1.052 0 0 1.042 -2.235 .084)"/><linearGradient id="n" x1="5.778" x2="21.841" y1="12.776" y2="9.855" xlink:href="#b" gradientUnits="userSpaceOnUse" gradientTransform="matrix(-1.052 0 0 1.053 48.476 .056)"/><linearGradient id="o" x1="23.079" x2="23.079" y1="12.339" y2="15.103" xlink:href="#c" gradientUnits="userSpaceOnUse" gradientTransform="matrix(1.006 0 0 1 -.086 .127)"/><linearGradient id="i" x1="31.746" x2="23.175" y1="26.789" y2="25.646" xlink:href="#d" gradientUnits="userSpaceOnUse"/><linearGradient id="p" x1="26.857" x2="23.873" y1="38.73" y2="38.603" xlink:href="#e" gradientUnits="userSpaceOnUse" gradientTransform="matrix(1 0 0 .995 0 -.013)"/><linearGradient id="q" x1="26.857" x2="24.381" y1="38.73" y2="38.794" xlink:href="#f" gradientUnits="userSpaceOnUse" gradientTransform="matrix(-1 0 0 .98 47.016 1.204)"/><linearGradient id="j" x1="17.841" x2="23.048" y1="29.968" y2="28.848" xlink:href="#f" gradientUnits="userSpaceOnUse"/><linearGradient id="k" x1="23.937" x2="23.937" y1="21.809" y2="29.618" xlink:href="#g" gradientUnits="userSpaceOnUse"/><linearGradient id="l" x1="31.556" x2="30.54" y1="20.139" y2="25.409" xlink:href="#h" gradientUnits="userSpaceOnUse"/></defs><g><path fill="#e3e5e0" fill-rule="evenodd" stroke="#2e3436" stroke-width="1.5" d="M4.1 14.27l38.16-.2-15.03 20.14v11.76c-2.47 2.05-6.26 2.06-8.42 0V34.2L4.1 14.28z"/><path fill="#e1e4df" fill-rule="evenodd" stroke="#2e3436" stroke-width="1.5" d="M43.72 10.46c0 5.44-9.23 9.86-20.6 9.86-11.4 0-20.62-4.42-20.62-9.86C2.5 5 11.73.6 23.1.6 34.5.6 43.73 5 43.73 10.46z" color="#000" stroke-linecap="round" overflow="visible"/><path fill="url(#i)" fill-rule="evenodd" d="M23.62 20.9c6.7-.14 12.24-2.04 15.43-3.3l-12.5 16.3c-.86.56-1.5 1.1-2.5 1.14L23.6 20.9z"/><path fill="url(#j)" fill-rule="evenodd" d="M20.32 34.6l-6.48-14.4 9.72 1.07-.96 13.9c-.87.17-1.58.1-2.28-.57z"/><path fill="url(#k)" fill-rule="evenodd" d="M7.5 17.7c11.6 4.8 25.36 4.1 32.88-.8L30.6 28.82c-5 1.5-10 1.75-14.98-.13l-8.13-11z"/><path fill="url(#l)" fill-rule="evenodd" d="M29.6 20.38l-1.16 4.32c1.4 1.25 3.08 1.2 4.83.76l6.35-8.25L29.6 20.4z"/><path fill="#eeeeec" fill-rule="evenodd" stroke="#2e3436" d="M30.16 19.42c2.46-.46 9.43-2.38 11.4-4.5l4.72 3.82c-1.4 5.76-5.53 7.42-11.88 5.3l-4.24-4.62zm13.17.4c.2.95-1.32 2.07-3.38 2.48-2.05.4-3.88-.05-4.07-1.02-.2-.96 1.32-2.07 3.38-2.48 2.06-.4 3.88.04 4.07 1z"/><path fill="url(#m)" fill-rule="evenodd" d="M2.98 10.47c-.03-5.98 10.2-8.62 15.76-9.13l4.95 18c-9.45.36-19.96-2.82-20.72-8.87z"/><path fill="url(#n)" fill-rule="evenodd" d="M43.26 10.55c.03-6.04-10.2-8.7-15.76-9.22L22.55 19.5c9.44.38 19.95-2.83 20.7-8.95z"/><path fill="none" stroke="url(#o)" d="M5.35 14.54s-1.85-2.22-1.9-4C3.33 5.6 12.27 1.7 23.15 1.7c10.86 0 19.68 3.96 19.68 8.84-.05 2-1.16 2.97-2.02 4.2" color="#000" stroke-linecap="round" overflow="visible"/><path fill="url(#p)" fill-rule="evenodd" d="M23.87 34.85v11.7c.92-.05 1.9-.3 3-1.02l-.2-11.75c-.5.38-1.7 1-2.8 1.07z"/><path fill="url(#q)" fill-rule="evenodd" d="M22.63 35.3v11.5c-.9-.04-1.7-.43-2.47-.75l.06-11.45c.77.5 1.55.72 2.4.7z"/></g></svg>