<svg xmlns="http://www.w3.org/2000/svg" width="48" height="48" version="1"><g><path fill="#acc7e3" stroke="#204a87" stroke-width=".5" d="M16.24.38L14.9.9v3.04l-1 .64-2.27-1.1-1 1.1 1.67 2.4-.62 1.07-2.73.73v1.47l2.68.9.26.84-2.06 2.3.64 1.27 2.67-1.17.74.6-.33 2.87 1.17.47 1.67-2.73.84.12.97 2.36 1.63-.3.15-2.94.8-.6 2.04 1.1 1.06-1.3-1.38-2.1.44-.95 2.47-.75.16-1.4-2.58-.9.05-.96 1.9-2.06-.8-1.2-2.36 1.1-.9-.58.58-3.2-1.15-.6-1.62 2.6h-.95L16.23.37zm1.65 4.48c1.14-.06 2.24.32 3.02 1.17 1.56 1.7 1.23 4.63-.74 6.52-1.96 1.9-4.82 2.05-6.4.34-1.55-1.7-1.22-4.64.75-6.53.98-.95 2.2-1.45 3.36-1.5z" overflow="visible" enable-background="accumulate"/><path fill="#f8a2a2" fill-rule="evenodd" stroke="#a40000" d="M20.54 15.74l-1.1 2.45-1.12.07-1.2-2.23-1.12.23-.6 2.88-1.02.6-1.8-1.93-1.33.6.45 2.98-.96.88-2.47-1.18-1.1.96 1.25 2.37-.66 1.2L5 25.46l-.6 1.5 1.87 1.55-.3.97L3 30.6 2.85 32l2.52.84v.96l-2.6 1.8.15 1.18H5.9l.22 1.04-2 2 .58 1.2 2.76-1.05.52.9L6.8 43.4l.8.66 2.53-1.5.74.54-.36 2.68.97.22 2.08-2.1.6.24.45 2.14 1.26.08.97-2.45 1.03-.22 1.04 1.87 1.04-.15L21 42.5l.73-.44 1.64 1.47.88-.66-.15-2.45.83-.6 1.77.6.97-.75-.8-2.3.6-.9 2.2.16.6-1.1-1.4-1.65.3-1.1 2.15-.47.36-1.32-1.92-.66.07-1.12 2.15-1.56v-1.1l-2.37-.4-.14-.75 2-2.08-.82-1.1-2.14.8-.68-.74 1.5-2.52-1.05-.9-2 1.33-.83-.52.45-2.52-.9-.68-1.93 2.24-1.04-.15-.3-2.75-1.2-.08zm-1.66 12.1c.75 0 1.46.2 1.96.72 1.15 1.17.84 3.35-.68 4.85-1.52 1.5-3.67 1.76-4.82.6-1.15-1.18-.86-3.36.66-4.85.85-.84 1.9-1.28 2.88-1.3z"/><path fill="none" stroke="#4e9a06" d="M32.9 23.5L32.33 21l1.26-.52 1.5 1.63.8-.38.9-2.52h1.34l-.15 2.45.9.22 1.85-1.56.9.83-1.2 1.7.3 1.12 2-.22v1.5l-1.85.88-.3 1.12 1.63 1.27-.44 1.1-2 .08-.83.6.37 2.6-1.04.5L37 31.84l-.74.3-.9 2.6-1.18.15-.08-2.16-.6-.52-1.93 1.8-.96-.83 1.42-2.38-.3-.53-2.45.22-.15-1.2 2.38-1.48v-1.04l-1.7-1.2.2-1.26 2.4.15.5-.96z" overflow="visible" enable-background="accumulate"/><path fill="#f89d9d" fill-rule="evenodd" d="M20.5 46.93l-1.52-1.4-.15-.34.6-.1 1.07 1.83z" overflow="visible" enable-background="accumulate"/><path fill="#f89d9d" fill-rule="evenodd" d="M16.2 47.7l-1.57-1.47-.1-.34.66-.6.5.22.5 2.2z" overflow="visible" enable-background="accumulate"/><path fill="#f89d9d" fill-rule="evenodd" d="M12.1 47.2l-1.6-1.53.26-1.12 1.04-.63.75.52-.45 2.75z" overflow="visible" enable-background="accumulate"/><path fill="#f89d9d" fill-rule="evenodd" d="M8.35 44.85L6.8 43.33l.77-1.4 1.52-.6.47 1.03-1.22 2.5z" overflow="visible" enable-background="accumulate"/><path fill="#f89d9d" fill-rule="evenodd" d="M6.27 42.44l-1.56-1.5-.5-1.22L5.8 38.2l1.64-.07.26 1.1-1.45 3.2z" overflow="visible" enable-background="accumulate"/><path fill="#f89d9d" fill-rule="evenodd" d="M4.56 38.13l-1.53-1.38-.22-1.2 2.72-1.8 1.45.5-.03 1-2.38 2.88z"/><path fill="#f89d9d" fill-rule="evenodd" d="M4.45 33.4l-1.6-1.37.18-1.52 3.1-1.03.2-1.08 1.5 1.6-.26 1-3.12 2.4z"/><path fill="#f89d9d" fill-rule="evenodd" d="M5.97 28.35L4.33 26.9l.7-1.5 2.83.2.6-1.2L7.12 22l1.2-1 2.4 1.18 1.12-.85-.6-2.94 1.38-.6 1.5 1.4.4.53.93-.56.33-2.82 1.3-.4 3.83-.2.83.04 1.67 1.47.18 2.68-7.47 5.9-10.13 2.5z"/><path fill="#f89d9d" fill-rule="evenodd" d="M23.47 18.28l1.56-1.8.9.68 1.6 1.42-.27.92 1-.63 1.08.82 1.5 1.48-.7 1.2.5-.24 1.64 1.5L29.2 26l-5.62-5.97-.1-1.75z" overflow="visible" enable-background="accumulate"/><path fill="none" stroke="#000" stroke-width=".1" d="M33.58 27.94l-1.56-1.52-.6-.04-.37.45.2.74 2.33.37z"/><path fill="none" stroke="#000" stroke-width=".1" d="M33.17 32.4L31.72 31l-.37-.23-.04.9 1.87.73z"/><path fill="#bcd2e9" fill-rule="evenodd" d="M14.63 18.43l-.9-.6.38-2.9.75.67-.22 2.83z"/><path fill="#bcd2e9" fill-rule="evenodd" d="M10.76 14.86l-.8-.56 2.14-2.38-.22-.52.7.3.26.9-2.08 2.26z" overflow="visible" enable-background="accumulate"/><path fill="#bcd2e9" fill-rule="evenodd" d="M21.87 4.82l2.42-1.07.88.52-2.45 1.1-.86-.55z" overflow="visible" enable-background="accumulate"/><path fill="#bcd2e9" fill-rule="evenodd" stroke="#000" stroke-width=".1" d="M23.96 8.2l1.78.64.78.48-2.6-.82.04-.3z" overflow="visible" enable-background="accumulate"/><path fill="none" stroke="#000" stroke-width=".1" d="M19.27 18.58l-1.2-1.05-.43-1.4.56.18 1.07 2.28z"/><path fill="#c4f199" fill-rule="evenodd" d="M44.43 22.26l-1.93 1.6-.9-.3.2-2.35-1.64-.88h.52l3.75 1.94z" overflow="visible" enable-background="accumulate"/><path fill="#c4f199" fill-rule="evenodd" d="M44.17 24.67l2.2 1.04-1.94.16-.26-1.2z" overflow="visible" enable-background="accumulate"/><path fill="#73d216" fill-rule="evenodd" d="M37.93 36.75l-2-1.34 1.26-1.25.62.6.1 2z" overflow="visible" enable-background="accumulate"/><path fill="#c4f199" fill-rule="evenodd" d="M35.22 35.93l-3-2.23 1.1-1.26 2.05-.2.33.53-1.45 2.38.97.78z" overflow="visible" enable-background="accumulate"/><path fill="#3465a4" fill-rule="evenodd" d="M9.9 10.84l-.85-.6.04-1.44.8.6v1.44z"/><path fill="#bcd2e9" fill-rule="evenodd" d="M9.05 8.8l2.83-.7.6-1.12.8.56-.62.93-2.83.9-.78-.57z" overflow="visible" enable-background="accumulate"/><path fill="#bcd2e9" fill-rule="evenodd" d="M10.76 4.53l.82.52 1-1.08 2.27 1.2 1.04-.75-.86-.5-.97.57-2.3-1.05-1 1.08z" overflow="visible" enable-background="accumulate"/><path fill="#3465a4" fill-rule="evenodd" stroke="#000" stroke-width=".1" d="M10.7 4.53l.84.44 1.75 2.6-.9-.63-1.7-2.4z"/><path fill="#3465a4" fill-rule="evenodd" d="M15.04 3.93L15 .77l.85.6v3.08l-.8-.52z"/><path fill="#bcd2e9" fill-rule="evenodd" d="M15.04.8l1.4-.44.8.56-1.35.45-.86-.56z" overflow="visible" enable-background="accumulate"/><path fill="#bcd2e9" fill-rule="evenodd" d="M18.38 3.04h.4L20.5.48l2 1.15-1.3-.6-1.6 2.5h-.92l-.3-.5z" overflow="visible" enable-background="accumulate"/><path fill="#3465a4" fill-rule="evenodd" d="M10.58 15.6l.9.56-.72-1.34-.85-.56.68 1.34z"/><path fill="#73d216" fill-rule="evenodd" d="M38.15 19.2L42 21.04l-1.54.13-3.9-2h1.6z" overflow="visible" enable-background="accumulate"/><path fill="#c4f199" fill-rule="evenodd" d="M40.44 21.06l-.88 2.6-3.67-2.07.7-2.43 3.84 1.9z" overflow="visible" enable-background="accumulate"/><path fill="#73d216" fill-rule="evenodd" d="M39.6 23.63l-.9.45-1.37-1.68 2.27 1.23z" overflow="visible" enable-background="accumulate"/><path fill="#c4f199" fill-rule="evenodd" d="M32.3 20.95l1.24-.54 3.83 1.97-1.34.52-3.73-1.95z" overflow="visible" enable-background="accumulate"/><path fill="#73d216" fill-rule="evenodd" d="M32.3 20.96l.58 2.6 3.7 1.93-.7-2.72-3.57-1.82z" overflow="visible" enable-background="accumulate"/><path fill="#c4f199" fill-rule="evenodd" d="M33.7 26.27l-1.27-.93.2-1.23.36-.58 3.63 2-.6.86-2.34-.1z" overflow="visible" enable-background="accumulate"/><path fill="#73d216" fill-rule="evenodd" d="M33.7 26.3l-.4 1.37-2.58-1.85 1.75-.44 1.22.93z" overflow="visible" enable-background="accumulate"/><path fill="#c4f199" fill-rule="evenodd" d="M31.26 26.83l.4-.37 3.58 2.28-.1 1.13-2.34 1.38-2-1.08.46-3.34z" overflow="visible" enable-background="accumulate"/><path fill="#73d216" fill-rule="evenodd" d="M32.88 31.3l-2.12-1.1-.34 1.2.97.3 1.55.6-.07-1z" overflow="visible" enable-background="accumulate"/><path fill="#4e9a06" fill-rule="evenodd" stroke="#000" stroke-width=".1" d="M40.05 34.1l.6-.25 1.33 1.52-1.93-1.26z" overflow="visible" enable-background="accumulate"/><path fill="#8ae234" fill-rule="evenodd" stroke="#4e9a06" stroke-width=".5" d="M36.6 25.45l-.6-2.53 1.26-.52 1.5 1.64.8-.37.9-2.53h1.33l-.15 2.45.9.22 1.85-1.56.9.8-1.2 1.72.3 1.12 2-.23v1.5l-1.86.88-.3 1.12 1.64 1.26-.44 1.12-2 .07-.83.6.38 2.6-1.04.52-1.26-1.56-.74.3-.9 2.6-1.18.14-.08-2.15-.6-.52-1.93 1.78-.96-.82 1.4-2.36-.3-.52-2.45.22-.15-1.2 2.38-1.48v-1.04l-1.7-1.2.2-1.25 2.4.15.5-.97z" overflow="visible" enable-background="accumulate"/><path fill="#729fcf" stroke="#204a87" stroke-width=".5" d="M17.2.9l-1.36.52v3.04l-1 .64L12.58 4l-1 1.1 1.68 2.4-.62 1.07-2.74.73v1.47l2.68.9.26.84-2.05 2.33.63 1.26 2.68-1.18.74.6-.32 2.87 1.17.46 1.67-2.73.83.1.96 2.37 1.62-.3.15-2.94.8-.6 2.05 1.1 1.05-1.3-1.37-2.1.43-.95 2.46-.73.15-1.4-2.57-.92.05-.94 1.9-2.04-.78-1.2-2.38 1.1-.88-.58.56-3.2-1.15-.6-1.62 2.6h-.94L17.2.87zm1.64 4.48c1.16-.06 2.25.32 3.03 1.17 1.56 1.7 1.24 4.63-.73 6.52-1.97 1.9-4.83 2.05-6.4.34-1.55-1.7-1.23-4.62.74-6.5 1-.96 2.2-1.46 3.36-1.52z" overflow="visible" enable-background="accumulate"/><path fill="#8ae234" fill-rule="evenodd" stroke="#4e9a06" stroke-width="4.003" d="M95.86 47.5a6.28 5.8 0 1 1-12.57 0 6.28 5.8 0 1 1 12.56 0z" transform="matrix(.14 .158 -.202 .218 36.747 4.535)" overflow="visible" enable-background="accumulate"/><path fill="#ef2929" fill-rule="evenodd" stroke="#a40000" stroke-width=".5" d="M22.1 17.13L21 19.58l-1.13.07-1.18-2.22-1.14.23-.6 2.88-1.03.6-1.8-1.94-1.32.6.46 2.98-.96.9-2.47-1.2-1.12.96L10 25.82l-.66 1.2-2.75-.16-.6 1.5 1.86 1.55-.3.97-2.98 1.1-.13 1.43 2.52.83v.96l-2.6 1.78.15 1.2h2.95l.23 1.02-2 2 .58 1.2 2.76-1.05.52.9-1.18 2.54.8.65 2.53-1.5.73.53-.36 2.68.96.23 2.08-2.1.6.22.46 2.15 1.26.08.97-2.46 1.02-.23 1.04 1.86 1.04-.15 1.05-2.9.74-.43 1.63 1.47.88-.66-.14-2.45.83-.6 1.76.6.97-.75-.82-2.3.62-.88 2.22.15.6-1.12-1.4-1.64.27-1.1 2.18-.46.36-1.34-1.92-.66.07-1.1L33.53 29v-1.1l-2.37-.4-.15-.74 2-2.07-.82-1.1-2.15.8-.67-.73 1.5-2.53-1.05-.88-2 1.32-.83-.5.45-2.54-.9-.68-1.92 2.25-1.04-.14-.3-2.76-1.2-.07zm-1.66 12.1c.75-.02 1.46.2 1.96.72 1.15 1.17.84 3.35-.68 4.84-1.52 1.5-3.67 1.75-4.82.58-1.15-1.17-.87-3.35.66-4.85.85-.84 1.9-1.27 2.88-1.3z"/></g></svg>