<svg xmlns="http://www.w3.org/2000/svg" width="48" height="48" xmlns:xlink="http://www.w3.org/1999/xlink"><defs><linearGradient id="a"><stop offset="0" stop-color="#babdb6"/><stop offset="1" stop-color="#7d8276"/></linearGradient><linearGradient id="b" x1="2.022" x2="11.849" y1="1.808" y2="41.287" xlink:href="#a" gradientUnits="userSpaceOnUse"/><linearGradient id="c" x1="13.136" x2="23.246" y1="18.235" y2="23.235" xlink:href="#a" gradientUnits="userSpaceOnUse"/><linearGradient id="d" x1="22.418" x2="31.467" y1="20.061" y2="25.516" xlink:href="#a" gradientUnits="userSpaceOnUse"/><linearGradient id="e" x1="24.938" x2="30.646" y1="27.552" y2="36.34" xlink:href="#a" gradientUnits="userSpaceOnUse"/></defs><g color="#000"><g transform="matrix(.849 -.302 .302 .849 -1.866 9.11)"><path fill="#fff" stroke="url(#b)" stroke-width="1.11" d="M10.5 37.05c0-.83-.68-1.5-1.5-1.5-.84 0-1.5.67-1.5 1.5s.66 1.5 1.5 1.5c.82 0 1.5-.67 1.5-1.5zM3.77 1.55h6.42c1.27 0 2.3 1.02 2.3 2.3v34.43c0 1.27-1.03 2.3-2.3 2.3H3.78c-1.27 0-2.3-1.03-2.3-2.3V3.84c0-1.27 1.03-2.3 2.3-2.3z" overflow="visible" enable-background="accumulate"/><rect width="10" height="6" x="1.99" y="4.051" fill="#f57900" ry="0" overflow="visible" enable-background="accumulate"/><rect width="10" height="6" x="1.99" y="12.051" fill="#ef2929" ry="0" overflow="visible" enable-background="accumulate"/><rect width="10" height="6" x="1.99" y="20.051" fill="#c00" ry="0" overflow="visible" enable-background="accumulate"/><rect width="10" height="6" x="1.99" y="28.051" fill="#a40000" ry="0" overflow="visible" enable-background="accumulate"/></g><path fill="#fff" stroke="url(#c)" d="M18.26 38.07c.14-.73-.35-1.43-1.08-1.57-.74-.13-1.44.35-1.58 1.1-.13.72.36 1.42 1.1 1.56.72.13 1.43-.35 1.56-1.1zM18.1 5.53l5.68 1.04c1.13.2 1.87 1.28 1.66 2.4l-5.6 30.52c-.2 1.1-1.28 1.85-2.4 1.65l-5.7-1.05c-1.12-.2-1.86-1.28-1.66-2.4l5.6-30.5c.2-1.14 1.3-1.88 2.4-1.67z" overflow="visible" enable-background="accumulate"/><rect width="9.014" height="5.405" x="17.177" y="4.426" fill="#7db5f0" ry="0" transform="matrix(.984 .18 -.181 .984 0 0)" overflow="visible" enable-background="accumulate"/><rect width="9.014" height="5.405" x="17.177" y="11.633" fill="#569eeb" ry="0" transform="matrix(.984 .18 -.181 .984 0 0)" overflow="visible" enable-background="accumulate"/><rect width="9.014" height="5.405" x="17.177" y="18.84" fill="#1161c7" ry="0" transform="matrix(.984 .18 -.181 .984 0 0)" overflow="visible" enable-background="accumulate"/><rect width="9.014" height="5.405" x="17.177" y="26.047" fill="#0f4798" ry="0" transform="matrix(.984 .18 -.181 .984 0 0)" overflow="visible" enable-background="accumulate"/><path fill="#fff" stroke="url(#d)" d="M17.93 38.68c.5-.57.42-1.42-.15-1.9-.57-.5-1.42-.42-1.9.15-.5.57-.42 1.42.15 1.9.57.5 1.42.42 1.9-.15zM34.07 10.4l4.4 3.75c.87.75.98 2.04.24 2.92L18.6 40.7c-.75.86-2.05.97-2.92.23l-4.4-3.75c-.88-.74-.98-2.04-.24-2.9l20.1-23.64c.76-.87 2.06-.97 2.93-.23z" overflow="visible" enable-background="accumulate"/><rect width="9.012" height="5.406" x="31.071" y="-11.889" fill="#fff5a3" ry="0" transform="matrix(.762 .648 -.648 .761 0 0)" overflow="visible" enable-background="accumulate"/><rect width="9.012" height="5.406" x="31.071" y="-4.681" fill="#fce94f" ry="0" transform="matrix(.762 .648 -.648 .761 0 0)" overflow="visible" enable-background="accumulate"/><rect width="9.012" height="5.406" x="31.071" y="2.528" fill="#edd400" ry="0" transform="matrix(.762 .648 -.648 .761 0 0)" overflow="visible" enable-background="accumulate"/><rect width="9.012" height="5.406" x="31.071" y="9.736" fill="#fcaf3e" ry="0" transform="matrix(.762 .648 -.648 .761 0 0)" overflow="visible" enable-background="accumulate"/><path fill="#fff" stroke="url(#e)" d="M17.34 39.04c.7-.25 1.07-1.02.82-1.72-.25-.7-1.02-1.07-1.72-.82-.7.25-1.07 1.02-.82 1.72.25.7 1.02 1.07 1.72.82zm28.12-16.42l1.94 5.44c.38 1.08-.18 2.26-1.25 2.64L16.9 41.1c-1.07.4-2.25-.16-2.63-1.24l-1.94-5.45c-.4-1.06.17-2.24 1.25-2.62l29.24-10.4c1.08-.4 2.26.16 2.64 1.24z" overflow="visible" enable-background="accumulate"/><rect width="9.009" height="5.408" x="34.94" y="-32.976" fill="#e2ff96" transform="matrix(.336 .942 -.942 .335 0 0)" ry="0" overflow="visible" enable-background="accumulate"/><rect width="9.009" height="5.408" x="34.94" y="-25.766" fill="#c6ff2d" transform="matrix(.336 .942 -.942 .335 0 0)" ry="0" overflow="visible" enable-background="accumulate"/><rect width="9.009" height="5.408" x="34.94" y="-18.555" fill="#a1dd00" transform="matrix(.336 .942 -.942 .335 0 0)" ry="0" overflow="visible" enable-background="accumulate"/><rect width="9.009" height="5.408" x="34.94" y="-11.345" fill="#87bb00" transform="matrix(.336 .942 -.942 .335 0 0)" ry="0" overflow="visible" enable-background="accumulate"/></g></svg>