<svg xmlns="http://www.w3.org/2000/svg" width="48" height="48" xmlns:xlink="http://www.w3.org/1999/xlink"><defs><linearGradient id="h"><stop offset="0" stop-color="#eeeeec" stop-opacity=".536"/><stop offset="1" stop-color="#eeeeec" stop-opacity="0"/></linearGradient><linearGradient id="g"><stop offset="0"/><stop offset="1" stop-opacity="0"/></linearGradient><linearGradient id="f"><stop offset="0" stop-color="#0589c1"/><stop offset=".28" stop-color="#045a94"/><stop offset=".739"/><stop offset="1"/></linearGradient><linearGradient><stop offset="0" stop-color="#731603"/><stop offset=".28" stop-color="#731603"/><stop offset=".739"/><stop offset="1"/></linearGradient><linearGradient id="e"><stop offset="0" stop-color="#0062a4"/><stop offset="1"/></linearGradient><linearGradient id="d"><stop offset="0" stop-color="#eeeeec"/><stop offset="1" stop-color="#eeeeec" stop-opacity="0"/></linearGradient><linearGradient id="c"><stop offset="0" stop-color="#fff"/><stop offset="1" stop-color="#eeeeec" stop-opacity="0"/></linearGradient><linearGradient id="b"><stop offset="0" stop-color="#035873"/><stop offset=".405" stop-color="#035873"/><stop offset=".623"/><stop offset="1"/></linearGradient><linearGradient id="a"><stop offset="0" stop-color="#71d4fe"/><stop offset="1" stop-color="#3b93b8"/></linearGradient><linearGradient id="m" x1="10.256" x2="36.262" y1="9.412" y2="40.171" xlink:href="#a" gradientUnits="userSpaceOnUse" gradientTransform="matrix(1.287 -.014 0 1.288 -9.939 -7.866)"/><linearGradient id="n" x1="19.65" x2="24.948" y1="23.63" y2="18.731" xlink:href="#b" gradientUnits="userSpaceOnUse" gradientTransform="matrix(1.468 -.015 0 1.469 -13.707 -11.964)"/><radialGradient id="o" cx="31.313" cy="12.771" r="4.864" xlink:href="#c" fx="31.313" fy="12.771" gradientTransform="matrix(1.141 1.256 -.533 .486 1.568 -37.931)" gradientUnits="userSpaceOnUse"/><linearGradient id="p" x1="32.582" x2="35.805" y1="29.489" y2="25.701" xlink:href="#d" gradientUnits="userSpaceOnUse" gradientTransform="matrix(1.287 -.014 0 1.288 -9.939 -7.866)"/><linearGradient id="j" x1="19.799" x2="23.688" y1="37.469" y2="35.954" xlink:href="#b" gradientUnits="userSpaceOnUse" gradientTransform="matrix(1.287 -.014 0 1.288 -9.939 -7.866)"/><linearGradient id="k" x1="38.941" x2="38.79" y1="15.675" y2="29.312" xlink:href="#e" gradientUnits="userSpaceOnUse" gradientTransform="matrix(1.287 -.014 0 1.288 -9.939 -7.866)"/><linearGradient id="l" x1="34.143" x2="38.537" y1="35.67" y2="29.508" xlink:href="#f" gradientUnits="userSpaceOnUse" gradientTransform="matrix(1.287 -.014 0 1.288 -9.939 -7.866)"/><radialGradient id="i" cx="25.481" cy="39.388" r="21.036" xlink:href="#g" fx="25.481" fy="39.388" gradientTransform="matrix(1 0 0 .196 0 31.681)" gradientUnits="userSpaceOnUse"/><linearGradient id="q" x1="15.41" x2="15.45" y1="43.303" y2="31.484" xlink:href="#h" gradientUnits="userSpaceOnUse"/></defs><g><path fill="url(#i)" d="M46.52 39.4a21.04 4.12 0 1 1-42.08 0 21.04 4.12 0 1 1 42.08 0z" transform="matrix(1.155 .053 0 1.288 -5.497 -10.661)" color="#000" overflow="visible" enable-background="accumulate"/><path fill="url(#j)" d="M15.48 43.42l8.08-.96-8.34-12.1z" color="#000" overflow="visible" enable-background="accumulate"/><path fill="url(#k)" d="M21.85 3.43l14.04 2.6c2.7 1.34 8.93 4.25 9.03 11.93.1 8.5-6.18 11.43-6.18 11.43l7.8 12.57-8.83 1.85-10.6-.13z"/><path fill="url(#l)" d="M38.82 29.4l8 13.02-9.23 2.24-8.86-14.97z"/><path fill="url(#m)" d="M2.74 43.07L2.67 3.54l16.9-.18c5.5-.04 16.22 3.1 16.26 13.63.03 9.5-6.9 12.75-6.9 12.75l8.85 15-15.2-.8-7.1-12.56v12.1z"/><path fill="url(#n)" d="M15.14 13.58v8.98l4.82-.05c1.8 0 3.64-1.78 3.63-4.4-.02-2.3-1.84-4.6-3.72-4.7z" color="#000" overflow="visible" enable-background="accumulate"/><path fill="url(#o)" d="M23.4 3.7c8.04 1.55 11.17 5.5 12.5 11.46C33.2 10.8 28.8 6.5 23.4 3.7z"/><path fill="none" stroke="url(#p)" stroke-opacity=".502" d="M37.72 44.62l-8.85-14.87c2.95-1.58 4.7-3.8 5.85-6.7"/><path fill="none" stroke="url(#q)" d="M15.46 43.4V31.48"/></g></svg>