<svg xmlns="http://www.w3.org/2000/svg" width="48" height="48" xmlns:xlink="http://www.w3.org/1999/xlink"><defs><linearGradient id="e"><stop offset="0" stop-color="#dbb718"/><stop offset="1" stop-color="#9e830c"/></linearGradient><linearGradient id="d"><stop offset="0" stop-color="#fff"/><stop offset="1" stop-color="#c4c4be"/></linearGradient><linearGradient id="c"><stop offset="0" stop-color="#888a85"/><stop offset="1" stop-color="#5c5e5a"/></linearGradient><linearGradient id="b"><stop offset="0" stop-color="#4f595c"/><stop offset=".214" stop-color="#6c7a7e"/><stop offset="1" stop-color="#232829"/></linearGradient><linearGradient id="a"><stop offset="0" stop-color="#c4a000"/><stop offset="1" stop-color="#c4a000" stop-opacity="0"/></linearGradient><radialGradient id="s" cx="22.848" cy="8.308" r="5.256" xlink:href="#a" fx="22.848" fy="8.308" gradientTransform="matrix(1.622 .051 -.041 .435 -13.88 3.069)" gradientUnits="userSpaceOnUse"/><radialGradient id="u" cx="22.648" cy="8.241" r="5.256" xlink:href="#a" fx="22.648" fy="8.241" gradientTransform="matrix(1.473 -.018 .16 .627 -12.025 3.057)" gradientUnits="userSpaceOnUse"/><linearGradient id="t" x1="13.087" x2="28.683" y1="21.736" y2="17.695" xlink:href="#b" gradientUnits="userSpaceOnUse" gradientTransform="matrix(1.003 -.274 .274 1.003 -6.959 5.923)"/><linearGradient id="w" x1="11.524" x2="24.843" y1="6.607" y2="19.486" xlink:href="#c" gradientUnits="userSpaceOnUse" gradientTransform="matrix(1.003 -.274 .274 1.003 -6.959 5.923)"/><radialGradient id="v" cx="16.062" cy="12.389" r="7.266" xlink:href="#d" fx="16.062" fy="12.389" gradientTransform="matrix(1.003 -.274 .305 1.118 -7.394 4.329)" gradientUnits="userSpaceOnUse"/><linearGradient id="x" x1="-.006" x2="48.18" y1="25.304" y2="25.304" xlink:href="#e" gradientUnits="userSpaceOnUse" gradientTransform="matrix(1.003 -.274 .274 1.003 -6.959 5.923)"/><radialGradient cx="3.299" cy="3.416" r="2.751" xlink:href="#f" fx="3.299" fy="3.416" gradientUnits="userSpaceOnUse"/><linearGradient id="f"><stop offset="0" stop-color="#fff"/><stop offset="1" stop-color="#8e8e8e"/></linearGradient><linearGradient x1="10.276" x2="14.832" y1="35.035" y2="37.582" xlink:href="#g" gradientUnits="userSpaceOnUse" gradientTransform="matrix(.555 .053 -.053 .555 25.564 23.188)"/><linearGradient id="g"><stop offset="0" stop-color="#2e3436"/><stop offset="1" stop-color="#2e3436" stop-opacity="0"/></linearGradient><linearGradient x1="23.201" x2="22.286" y1="3.505" y2="32.37" gradientTransform="matrix(.558 0 0 .558 23.595 23.652)" xlink:href="#h" gradientUnits="userSpaceOnUse"/><linearGradient id="h"><stop offset="0" stop-color="#d3d7cf"/><stop offset="1" stop-color="#fff"/></linearGradient><radialGradient cx="3.299" cy="3.416" r="2.751" fy="3.416" fx="3.299" gradientUnits="userSpaceOnUse" xlink:href="#f"/><radialGradient cx="3.299" cy="3.416" r="2.751" xlink:href="#f" gradientUnits="userSpaceOnUse" fx="3.299" fy="3.416"/><radialGradient cx="23.335" cy="44.42" r="18.562" xlink:href="#i" fx="23.335" fy="44.42" gradientTransform="matrix(1 0 0 .193 0 35.854)" gradientUnits="userSpaceOnUse"/><linearGradient id="i"><stop offset="0" stop-color="#2e3436" stop-opacity=".619"/><stop offset="1" stop-color="#2e3436" stop-opacity="0"/></linearGradient><linearGradient x1="20.73" x2="23.296" y1="29.815" y2="45.056" xlink:href="#j" gradientUnits="userSpaceOnUse" gradientTransform="matrix(.989 0 0 .989 9.007 -1.633)"/><linearGradient id="j"><stop offset="0" stop-color="#888a85"/><stop offset="1" stop-color="#51534f"/></linearGradient><linearGradient x1="287.517" x2="289.676" y1="-439.753" y2="-436.322" xlink:href="#k" gradientUnits="userSpaceOnUse"/><linearGradient id="k"><stop offset="0" stop-color="#fff"/><stop offset="1" stop-color="#fff" stop-opacity="0"/></linearGradient><linearGradient x1="286.512" x2="289.854" y1="-441.291" y2="-436.145" xlink:href="#l" gradientUnits="userSpaceOnUse"/><linearGradient id="l"><stop offset="0" stop-color="#fff"/><stop offset="1" stop-color="#fff" stop-opacity="0"/></linearGradient><linearGradient x1="285.941" x2="289.391" y1="-439.939" y2="-436.443" xlink:href="#m" gradientUnits="userSpaceOnUse"/><linearGradient id="m"><stop offset="0" stop-color="#fff"/><stop offset="1" stop-color="#fff" stop-opacity="0"/></linearGradient><linearGradient x1="275.942" x2="279.975" y1="-437.105" y2="-431.918" xlink:href="#n" gradientUnits="userSpaceOnUse"/><linearGradient id="n"><stop offset="0" stop-color="#fff"/><stop offset="1" stop-color="#fff" stop-opacity="0"/></linearGradient><linearGradient x1="286.666" x2="289.766" y1="-439.484" y2="-436.707" xlink:href="#o" gradientUnits="userSpaceOnUse"/><linearGradient id="o"><stop offset="0" stop-color="#fff"/><stop offset="1" stop-color="#fff" stop-opacity="0"/></linearGradient><linearGradient x1="284.802" x2="288.9" y1="-441.233" y2="-436.831" xlink:href="#m" gradientUnits="userSpaceOnUse"/><linearGradient x1="286.246" x2="290.121" y1="-434.732" y2="-439.69" xlink:href="#k" gradientUnits="userSpaceOnUse"/><linearGradient x1="287.147" x2="289.473" y1="-434.809" y2="-437.594" xlink:href="#l" gradientUnits="userSpaceOnUse"/><linearGradient x1="286.014" x2="288.375" y1="-435.546" y2="-438.971" xlink:href="#m" gradientUnits="userSpaceOnUse"/><linearGradient x1="276.614" x2="283.463" y1="-431" y2="-438.722" xlink:href="#p" gradientUnits="userSpaceOnUse"/><linearGradient id="p"><stop offset="0" stop-color="#fff"/><stop offset="1" stop-color="#fff" stop-opacity="0"/></linearGradient><linearGradient x1="286.295" x2="289.395" y1="-435.628" y2="-438.19" xlink:href="#o" gradientUnits="userSpaceOnUse"/><linearGradient x1="286.415" x2="290.078" y1="-435.784" y2="-439.289" xlink:href="#m" gradientUnits="userSpaceOnUse"/><linearGradient x1="286.415" x2="288.375" y1="-435.784" y2="-437.888" xlink:href="#m" gradientUnits="userSpaceOnUse"/><linearGradient x1="271.022" x2="285.029" y1="-441.052" y2="-431.97" xlink:href="#p" gradientUnits="userSpaceOnUse" gradientTransform="matrix(1.452 0 0 1.286 -374.468 572.5)"/><linearGradient x1="29.124" x2="27.356" y1="38.897" y2="34.879" gradientTransform="translate(8.742 -1.884)" xlink:href="#q" gradientUnits="userSpaceOnUse"/><linearGradient id="q"><stop offset="0" stop-color="#5d5b58"/><stop offset="1" stop-color="#5d5b58" stop-opacity="0"/></linearGradient><linearGradient x1="29.124" x2="27.356" y1="38.897" y2="34.879" xlink:href="#r" gradientUnits="userSpaceOnUse" gradientTransform="matrix(.917 -.399 .399 .917 4.662 6.088)"/><linearGradient id="r"><stop offset="0" stop-color="#74726e"/><stop offset="1" stop-color="#5d5b58" stop-opacity="0"/></linearGradient><radialGradient cx="23.335" cy="44.42" r="18.562" fy="44.42" fx="23.335" gradientTransform="matrix(1 0 0 .193 0 35.854)" gradientUnits="userSpaceOnUse" xlink:href="#i"/><radialGradient cx="23.335" cy="44.42" r="18.562" xlink:href="#i" gradientUnits="userSpaceOnUse" gradientTransform="matrix(1 0 0 .193 0 35.854)" fx="23.335" fy="44.42"/><linearGradient x1="20.73" x2="23.296" y1="29.815" y2="45.056" xlink:href="#j" gradientUnits="userSpaceOnUse" gradientTransform="matrix(.989 0 0 .989 9.007 -1.633)"/><linearGradient x1="287.517" x2="289.676" y1="-439.753" y2="-436.322" xlink:href="#k" gradientUnits="userSpaceOnUse"/><linearGradient x1="286.512" x2="289.854" y1="-441.291" y2="-436.145" xlink:href="#l" gradientUnits="userSpaceOnUse"/><linearGradient x1="285.941" x2="289.391" y1="-439.939" y2="-436.443" xlink:href="#m" gradientUnits="userSpaceOnUse"/><linearGradient x1="275.942" x2="279.975" y1="-437.105" y2="-431.918" xlink:href="#n" gradientUnits="userSpaceOnUse"/><linearGradient x1="286.666" x2="289.766" y1="-439.484" y2="-436.707" xlink:href="#o" gradientUnits="userSpaceOnUse"/><linearGradient x1="284.802" x2="288.9" y1="-441.233" y2="-436.831" xlink:href="#m" gradientUnits="userSpaceOnUse"/><linearGradient x1="286.246" x2="290.121" y1="-434.732" y2="-439.69" xlink:href="#k" gradientUnits="userSpaceOnUse"/><linearGradient x1="287.147" x2="289.473" y1="-434.809" y2="-437.594" xlink:href="#l" gradientUnits="userSpaceOnUse"/><linearGradient x1="286.014" x2="288.375" y1="-435.546" y2="-438.971" xlink:href="#m" gradientUnits="userSpaceOnUse"/><linearGradient x1="276.614" x2="283.463" y1="-431" y2="-438.722" xlink:href="#p" gradientUnits="userSpaceOnUse"/><linearGradient x1="286.295" x2="289.395" y1="-435.628" y2="-438.19" xlink:href="#o" gradientUnits="userSpaceOnUse"/><linearGradient x1="286.415" x2="290.078" y1="-435.784" y2="-439.289" xlink:href="#m" gradientUnits="userSpaceOnUse"/><linearGradient x1="286.415" x2="288.375" y1="-435.784" y2="-437.888" xlink:href="#m" gradientUnits="userSpaceOnUse"/><linearGradient x1="271.022" x2="285.029" y1="-441.052" y2="-431.97" xlink:href="#p" gradientUnits="userSpaceOnUse" gradientTransform="matrix(1.452 0 0 1.286 -374.468 572.5)"/><linearGradient x1="29.124" x2="27.356" y1="38.897" y2="34.879" xlink:href="#q" gradientUnits="userSpaceOnUse" gradientTransform="translate(8.742 -1.884)"/><linearGradient x1="29.124" x2="27.356" y1="38.897" y2="34.879" xlink:href="#r" gradientUnits="userSpaceOnUse" gradientTransform="matrix(.917 -.399 .399 .917 4.662 6.088)"/></defs><g><path fill="#e4cc09" stroke="#897100" stroke-width="1.04" d="M13.2 26.36s-3.07-11.1-4.08-14.57c-1.2-4.14 1.72-9.66 3.1-10.38C13.8.6 19.96-.63 24.2 2.72 26 4.2 30.97 13.7 30.97 13.7c-3.76 7.07-9.7 11.26-17.78 12.68z" color="#000" overflow="visible" enable-background="accumulate"/><path fill="none" stroke="#fce94f" stroke-width=".969" d="M13.66 25.38S10.8 15.04 9.86 11.8c-1.12-3.85 1.6-9 2.9-9.66 1.45-.77 7.18-1.9 11.13 1.22 1.7 1.35 6.32 10.2 6.32 10.2-3.5 6.6-9.05 10.5-16.56 11.82z" color="#000" overflow="visible" enable-background="accumulate"/><path fill="url(#s)" d="M30.95 7.52a5.2 2.1 0 1 1-10.38 0 5.2 2.1 0 1 1 10.38 0z" transform="matrix(.861 .203 -.272 .814 -1.466 -8.329)" color="#000" overflow="visible" enable-background="accumulate"/><path fill="url(#t)" stroke="#181818" stroke-width="1.04" d="M11.95 21.97c4.5-4.66 12.15-8.2 18.6-9.92l1.92 5.3-19 10.03z" color="#000" overflow="visible" enable-background="accumulate"/><path fill="url(#u)" d="M30.95 7.52a5.2 2.1 0 1 1-10.38 0 5.2 2.1 0 1 1 10.38 0z" transform="matrix(-.186 .743 .594 .302 11.376 -14.243)" color="#000" overflow="visible" enable-background="accumulate"/><path fill="#2e3436" d="M12.8 7.86c-.87.24-1.38 1.13-1.13 2.03.2.76.9 1.28 1.66 1.25l.15 3.03-1.7 1.3c-.4-.44-1.02-.66-1.62-.5-.87.24-1.37 1.16-1.12 2.06.24.9 1.14 1.44 2 1.2.47-.12.82-.44 1.02-.85l2.18.58.97 2.7c-.72.32-1.12 1.15-.9 1.96.25.9 1.14 1.4 2 1.18.87-.24 1.4-1.14 1.17-2.04-.13-.5-.5-.86-.9-1.07l1.5-2.28 2.77-.1c0 .14.04.28.07.4.26.9 1.15 1.4 2.02 1.17.86-.25 1.37-1.14 1.13-2.04-.25-.9-1.15-1.44-2-1.2-.27.07-.47.2-.65.38l-1.72-2.1.68-2.2c.3.1.63.13.96.04.86-.24 1.36-1.16 1.12-2.06-.24-.9-1.15-1.44-2-1.2-.82.22-1.28 1.03-1.16 1.86l-2.4.93-2.45-1.68c.37-.4.53-1 .37-1.6-.24-.88-1.13-1.4-2-1.16z" color="#000" overflow="visible" enable-background="accumulate"/><path fill="url(#v)" stroke="url(#w)" stroke-width=".52" d="M11.74 7.4c-.86.22-1.37 1.12-1.13 2 .22.8.92 1.3 1.67 1.28l.15 3.02-1.7 1.3c-.4-.44-1-.66-1.62-.5-.86.24-1.36 1.17-1.12 2.06.24.9 1.14 1.44 2 1.2.48-.12.83-.43 1.03-.84l2.2.58.96 2.7c-.73.32-1.14 1.15-.9 1.97.23.9 1.12 1.4 2 1.17.86-.24 1.4-1.14 1.15-2.03-.12-.48-.47-.86-.88-1.06l1.5-2.3 2.77-.08c0 .12.02.26.06.38.24.9 1.13 1.4 2 1.18.87-.24 1.38-1.13 1.13-2.03-.25-.9-1.15-1.45-2.02-1.2-.25.06-.45.2-.64.36l-1.7-2.1.67-2.2c.3.1.64.14.96.05.87-.23 1.37-1.16 1.12-2.05-.24-.9-1.14-1.44-2-1.2-.8.2-1.27 1.03-1.15 1.86l-2.4.93-2.46-1.7c.37-.4.54-1 .38-1.57-.25-.9-1.14-1.4-2-1.17z" color="#000" overflow="visible" enable-background="accumulate"/><path fill="url(#x)" stroke="#796300" stroke-width="1.029" d="M20.83 22.07c4.06-2.42 7-11.95 17.56-12.87 2-.18 6.98-.08 8.84 6.96C49.62 25.24 35.3 33.2 26.5 35.98c-9.74 3.1-25.1.42-25.9-4.35-.83-4.78 12.3-4.84 20.23-9.56z"/><path d="M16.02 31.7c-.8-3.32 4.8-5.8 8.3-6.9 2.87-.88 10.58-4.33 11.6-1.42 1.05 3.02-4.92 8.1-10.73 9.2-3.27.6-8.6 1.56-9.18-.9z" color="#000" overflow="visible" enable-background="accumulate"/><path fill="none" stroke="#edd400" stroke-width=".967" d="M21.58 22.87c3.92-2.27 6.26-11.62 16.4-12.6 1.95-.18 6.58-.27 8.28 6.18 2.18 8.33-11.5 15.93-19.98 18.6-9.4 2.96-24 1.04-24.73-3.35-.72-4.38 12.36-4.4 20.03-8.83z"/></g></svg>