<svg xmlns="http://www.w3.org/2000/svg" width="48" height="48" xmlns:xlink="http://www.w3.org/1999/xlink" viewBox="0 0 45.238 43.682" overflow="visible" enable-background="new 0 0 45.238 43.682" version="1"><defs><linearGradient x1="13.697" x2="13.697" y1="6.887" y2="1.744" xlink:href="#a" gradientUnits="userSpaceOnUse" gradientTransform="matrix(.625 0 0 .73 17.723 21.36)"/><linearGradient id="a"><stop offset="0" stop-color="#dfeaa1"/><stop offset="1" stop-color="#9db029"/></linearGradient><linearGradient x1="13.697" x2="13.697" y1="6.887" y2="1.744" xlink:href="#a" gradientUnits="userSpaceOnUse" gradientTransform="matrix(1.022 0 0 1.195 -.531 -.562)"/><linearGradient x1="13.697" x2="13.697" y1="6.887" y2="1.744" xlink:href="#a" gradientUnits="userSpaceOnUse" gradientTransform="matrix(1.022 0 0 1.195 -.531 -.562)"/><linearGradient x1="13.697" x2="13.697" y1="6.887" y2="1.744" xlink:href="#a" gradientUnits="userSpaceOnUse" gradientTransform="matrix(.341 0 0 .375 14.908 14.358)"/><linearGradient id="b" x1="13.697" x2="13.697" y1="6.887" y2="1.744" xlink:href="#a" gradientUnits="userSpaceOnUse" gradientTransform="matrix(.589 0 0 .601 8.814 9.424)"/></defs><path fill="none" stroke="#2d3335" stroke-width=".8"/><path fill="#eeeeec" fill-rule="evenodd" stroke="#2e3436" d="M9.93 10.1h24.44v23.5H9.93z" color="#000" stroke-linecap="round" stroke-linejoin="round" overflow="visible"/><path fill="url(#b)" fill-rule="evenodd" stroke="#2e3436" d="M9.93 10.1h24.44v3.7H9.93z" color="#000" stroke-linecap="round" stroke-linejoin="round" overflow="visible"/><path fill="#d3d7cf" fill-rule="evenodd" d="M10.37 14.3H33.6V19H10.36z" color="#000" overflow="visible"/><path fill="#d3d7cf" fill-rule="evenodd" d="M10.37 23.73H33.3v4.7H10.36z" color="#000" overflow="visible"/><path fill="none" stroke="#2e3436" d="M22.28 10.32v23.7"/><path fill="#2e3436" fill-rule="evenodd" d="M12.12 15.24h1.07l-.58 2.9h-1.07l.57-2.9z" color="#000" overflow="visible"/><path fill="#2e3436" fill-rule="evenodd" d="M14 15.24h1.08l-.57 2.9h-1.07l.57-2.9z" color="#000" overflow="visible"/><path fill="#2e3436" fill-rule="evenodd" d="M15.9 15.24h1.06l-.57 2.9H15.3l.57-2.9z" color="#000" overflow="visible"/><path fill="#2e3436" fill-rule="evenodd" d="M17.77 15.24h1.08l-.57 2.9H17.2l.57-2.9z" color="#000" overflow="visible"/><path fill="#2e3436" fill-rule="evenodd" d="M24.37 15.24h1.08l-.58 2.9H23.8l.57-2.9z" color="#000" overflow="visible"/><path fill="#2e3436" fill-rule="evenodd" d="M26.25 15.24h1.08l-.57 2.9h-1.08l.57-2.9z" color="#000" overflow="visible"/><path fill="#2e3436" fill-rule="evenodd" d="M28.14 15.24h1.08l-.58 2.9h-1.07l.57-2.9z" color="#000" overflow="visible"/><path fill="#2e3436" fill-rule="evenodd" d="M12.12 19.96h1.07l-.58 2.7h-1.07l.57-2.7z" color="#000" overflow="visible"/><path fill="#2e3436" fill-rule="evenodd" d="M14 19.96h1.08l-.57 2.7h-1.07l.57-2.7z" color="#000" overflow="visible"/><path fill="#2e3436" fill-rule="evenodd" d="M15.9 19.96h1.06l-.57 2.7H15.3l.57-2.7z" color="#000" overflow="visible"/><path fill="#2e3436" fill-rule="evenodd" d="M30.02 19.96h1.08l-.57 2.7h-1.08l.57-2.7z" color="#000" overflow="visible"/><path fill="#2e3436" fill-rule="evenodd" d="M24.37 19.96h1.08l-.58 2.7H23.8l.57-2.7z" color="#000" overflow="visible"/><path fill="#2e3436" fill-rule="evenodd" d="M26.25 19.96h1.08l-.57 2.7h-1.08l.57-2.7z" color="#000" overflow="visible"/><path fill="#2e3436" fill-rule="evenodd" d="M28.14 19.96h1.08l-.58 2.7h-1.07l.57-2.7z" color="#000" overflow="visible"/><path fill="#2e3436" fill-rule="evenodd" d="M12.12 29.38h1.07l-.58 2.7h-1.07l.57-2.7z" color="#000" overflow="visible"/><path fill="#2e3436" fill-rule="evenodd" d="M12.12 24.67h1.07l-.58 2.7h-1.07l.57-2.7z" color="#000" overflow="visible"/><path fill="#2e3436" fill-rule="evenodd" d="M14 24.67h1.08l-.57 2.7h-1.07l.57-2.7z" color="#000" overflow="visible"/><path fill="#2e3436" fill-rule="evenodd" d="M15.9 24.67h1.06l-.57 2.7H15.3l.57-2.7z" color="#000" overflow="visible"/><path fill="#2e3436" fill-rule="evenodd" d="M24.37 24.67h1.08l-.58 2.7H23.8l.57-2.7z" color="#000" overflow="visible"/><path fill="#2e3436" fill-rule="evenodd" d="M26.25 24.67h1.08l-.57 2.7h-1.08l.57-2.7z" color="#000" overflow="visible"/><path fill="#2e3436" fill-rule="evenodd" d="M17.77 24.67h1.08l-.57 2.7H17.2l.57-2.7z" color="#000" overflow="visible"/><path fill="#2e3436" fill-rule="evenodd" d="M14 29.38h1.08l-.57 2.7h-1.07l.57-2.7z" color="#000" overflow="visible"/><path fill="#2e3436" fill-rule="evenodd" d="M24.37 29.38h1.08l-.58 2.7H23.8l.57-2.7z" color="#000" overflow="visible"/><path fill="#2e3436" fill-rule="evenodd" d="M26.25 29.38h1.08l-.57 2.7h-1.08l.57-2.7z" color="#000" overflow="visible"/><path fill="#2e3436" fill-rule="evenodd" d="M28.14 29.38h1.08l-.58 2.7h-1.07l.57-2.7z" color="#000" overflow="visible"/></svg>