<svg xmlns="http://www.w3.org/2000/svg" width="48" height="48" xmlns:xlink="http://www.w3.org/1999/xlink" viewBox="0 0 45.238 43.682" overflow="visible" enable-background="new 0 0 45.238 43.682" version="1"><defs><linearGradient id="a"><stop offset="0" stop-color="#dfeaa1"/><stop offset="1" stop-color="#9db029"/></linearGradient><linearGradient id="b" x1="13.697" x2="13.697" y1="6.887" y2="1.744" xlink:href="#a" gradientUnits="userSpaceOnUse" gradientTransform="matrix(1.022 0 0 1.195 -.531 -.562)"/></defs><path fill="none" stroke="#2d3335" stroke-width=".8"/><path fill="#eeeeec" fill-rule="evenodd" stroke="#2e3436" d="M1.45.68H43.8V43H1.44z" color="#000" stroke-linecap="round" stroke-linejoin="round" overflow="visible"/><path fill="url(#b)" fill-rule="evenodd" stroke="#2e3436" d="M1.4.76h42.38v7.38H1.4z" color="#000" stroke-linecap="round" stroke-linejoin="round" overflow="visible"/><path fill="#d3d7cf" fill-rule="evenodd" d="M1.9 8.65h41.45v6.6H1.88z" color="#000" overflow="visible"/><path fill="#d3d7cf" fill-rule="evenodd" d="M1.9 21.84h41.45v6.6H1.88z" color="#000" overflow="visible"/><path fill="#d3d7cf" fill-rule="evenodd" d="M1.9 35.03h41.45v6.6H1.88z" color="#000" overflow="visible"/><path fill="none" stroke="#2e3436" d="M22.62 1.07V42.6"/><path fill="#2e3436" fill-rule="evenodd" d="M3.83 9.6H5.7l-1 4.7H2.84l1-4.7z" color="#000" overflow="visible"/><path fill="#2e3436" fill-rule="evenodd" d="M6.66 9.6h1.88l-1 4.7h-1.9l1.02-4.7z" color="#000" overflow="visible"/><path fill="#2e3436" fill-rule="evenodd" d="M9.48 9.6h1.9l-1 4.7h-1.9l1-4.7z" color="#000" overflow="visible"/><path fill="#2e3436" fill-rule="evenodd" d="M12.25 9.6h1.9l-1 4.7h-1.9l1-4.7z" color="#000" overflow="visible"/><path fill="#2e3436" fill-rule="evenodd" d="M25.5 9.6h1.9l-1 4.7h-1.9l1-4.7z" color="#000" overflow="visible"/><path fill="#2e3436" fill-rule="evenodd" d="M28.33 9.6h1.9l-1 4.7h-1.9l1-4.7z" color="#000" overflow="visible"/><path fill="#2e3436" fill-rule="evenodd" d="M31.1 9.6H33l-1 4.7h-1.9l1-4.7z" color="#000" overflow="visible"/><path fill="#2e3436" fill-rule="evenodd" d="M3.77 16.2h1.88l-1 4.7H2.77l1-4.7z" color="#000" overflow="visible"/><path fill="#2e3436" fill-rule="evenodd" d="M6.6 16.2h1.88l-1 4.7H5.6l1-4.7z" color="#000" overflow="visible"/><path fill="#2e3436" fill-rule="evenodd" d="M9.42 16.2h1.9l-1 4.7H8.4l1-4.7z" color="#000" overflow="visible"/><path fill="#2e3436" fill-rule="evenodd" d="M33.93 16.2h1.88l-1 4.7h-1.87l1-4.7z" color="#000" overflow="visible"/><path fill="#2e3436" fill-rule="evenodd" d="M25.45 16.2h1.88l-1 4.7h-1.88l1-4.7z" color="#000" overflow="visible"/><path fill="#2e3436" fill-rule="evenodd" d="M28.27 16.2h1.9l-1 4.7h-1.9l1-4.7z" color="#000" overflow="visible"/><path fill="#2e3436" fill-rule="evenodd" d="M31.04 16.2h1.9l-1 4.7h-1.9l1-4.7z" color="#000" overflow="visible"/><path fill="#2e3436" fill-rule="evenodd" d="M3.9 22.78h1.87l-1 4.72H2.9l1-4.72z" color="#000" overflow="visible"/><path fill="#2e3436" fill-rule="evenodd" d="M6.7 22.78h1.9l-1 4.72H5.7l1-4.72z" color="#000" overflow="visible"/><path fill="#2e3436" fill-rule="evenodd" d="M9.54 22.78h1.9l-1 4.72h-1.9l1-4.72z" color="#000" overflow="visible"/><path fill="#2e3436" fill-rule="evenodd" d="M12.3 22.78h1.9l-1 4.72h-1.9l1-4.72z" color="#000" overflow="visible"/><path fill="#2e3436" fill-rule="evenodd" d="M25.56 22.78h1.9l-1 4.72h-1.9l1-4.72z" color="#000" overflow="visible"/><path fill="#2e3436" fill-rule="evenodd" d="M28.4 22.78h1.88l-1 4.72h-1.9l1-4.72z" color="#000" overflow="visible"/><path fill="#2e3436" fill-rule="evenodd" d="M15.14 22.78h1.88l-1 4.72h-1.88l1-4.72z" color="#000" overflow="visible"/></svg>