<svg xmlns="http://www.w3.org/2000/svg" width="48" height="48" xmlns:xlink="http://www.w3.org/1999/xlink" viewBox="0 0 45.238 43.682" overflow="visible" enable-background="new 0 0 45.238 43.682" version="1"><defs><linearGradient id="a"><stop offset="0" stop-color="#dfeaa1"/><stop offset="1" stop-color="#9db029"/></linearGradient><linearGradient x1="13.697" x2="13.697" y1="6.887" y2="1.744" xlink:href="#a" gradientUnits="userSpaceOnUse" gradientTransform="matrix(1.022 0 0 1.195 -.531 -.562)"/><linearGradient x1="13.697" x2="13.697" y1="6.887" y2="1.744" xlink:href="#a" gradientUnits="userSpaceOnUse" gradientTransform="matrix(1.022 0 0 1.195 -.531 -.562)"/><linearGradient x1="13.697" x2="13.697" y1="6.887" y2="1.744" xlink:href="#a" gradientUnits="userSpaceOnUse" gradientTransform="matrix(.589 0 0 .601 8.814 9.424)"/><linearGradient x1="13.697" x2="13.697" y1="6.887" y2="1.744" xlink:href="#a" gradientUnits="userSpaceOnUse" gradientTransform="matrix(.589 0 0 .601 8.814 9.424)"/><linearGradient id="b" x1="13.697" x2="13.697" y1="6.887" y2="1.744" xlink:href="#a" gradientUnits="userSpaceOnUse" gradientTransform="matrix(.317 0 0 .353 14.977 14.415)"/></defs><path fill="none" stroke="#2d3335" stroke-width=".8"/><path fill="#eeeeec" fill-rule="evenodd" stroke="#2e3436" d="M15.57 14.8h13.15V28.9H15.58z" color="#000" stroke-linecap="round" stroke-linejoin="round" overflow="visible"/><path fill="url(#b)" fill-rule="evenodd" stroke="#2e3436" d="M15.57 14.8h13.15V17H15.58z" color="#000" stroke-linecap="round" stroke-linejoin="round" overflow="visible"/><path fill="#d3d7cf" fill-rule="evenodd" d="M16.02 17.28h12.25v3.62H16.02z" color="#000" overflow="visible"/><path fill="#d3d7cf" fill-rule="evenodd" d="M16.02 24.67h12.25v3.77H16.02z" color="#000" overflow="visible"/><path fill="none" stroke="#2e3436" d="M22.18 14.87v14"/><path fill="#2e3436" fill-rule="evenodd" d="M17.3 18.07h.6l-.32 1.7h-.62l.33-1.7z" color="#000" overflow="visible"/><path fill="#2e3436" fill-rule="evenodd" d="M18.23 18.07h.62l-.33 1.7h-.62l.33-1.7z" color="#000" overflow="visible"/><path fill="#2e3436" fill-rule="evenodd" d="M19.17 18.07h.62l-.34 1.7h-.62l.33-1.7z" color="#000" overflow="visible"/><path fill="#2e3436" fill-rule="evenodd" d="M20.1 18.07h.63l-.33 1.7h-.62l.33-1.7z" color="#000" overflow="visible"/><path fill="#2e3436" fill-rule="evenodd" d="M23.88 18.07h.62l-.33 1.7h-.62l.33-1.7z" color="#000" overflow="visible"/><path fill="#2e3436" fill-rule="evenodd" d="M24.83 18.07h.62l-.33 1.7h-.62l.33-1.7z" color="#000" overflow="visible"/><path fill="#2e3436" fill-rule="evenodd" d="M25.77 18.07h.62l-.34 1.7h-.62l.33-1.7z" color="#000" overflow="visible"/><path fill="#2e3436" fill-rule="evenodd" d="M17.3 21.84h.6l-.32 1.58h-.62l.33-1.58z" color="#000" overflow="visible"/><path fill="#2e3436" fill-rule="evenodd" d="M18.23 21.84h.62l-.33 1.58h-.62l.33-1.58z" color="#000" overflow="visible"/><path fill="#2e3436" fill-rule="evenodd" d="M19.17 21.84h.62l-.34 1.58h-.62l.33-1.58z" color="#000" overflow="visible"/><path fill="#2e3436" fill-rule="evenodd" d="M26.7 21.84h.63L27 23.42h-.62l.33-1.58z" color="#000" overflow="visible"/><path fill="#2e3436" fill-rule="evenodd" d="M23.88 21.84h.62l-.33 1.58h-.62l.33-1.58z" color="#000" overflow="visible"/><path fill="#2e3436" fill-rule="evenodd" d="M24.83 21.84h.62l-.33 1.58h-.62l.33-1.58z" color="#000" overflow="visible"/><path fill="#2e3436" fill-rule="evenodd" d="M25.77 21.84h.62l-.34 1.58h-.62l.33-1.58z" color="#000" overflow="visible"/><path fill="#2e3436" fill-rule="evenodd" d="M17.3 25.6h.6l-.32 1.6h-.62l.33-1.6z" color="#000" overflow="visible"/><path fill="#2e3436" fill-rule="evenodd" d="M18.23 25.6h.62l-.33 1.6h-.62l.33-1.6z" color="#000" overflow="visible"/><path fill="#2e3436" fill-rule="evenodd" d="M19.17 25.6h.62l-.34 1.6h-.62l.33-1.6z" color="#000" overflow="visible"/><path fill="#2e3436" fill-rule="evenodd" d="M23.88 25.6h.62l-.33 1.6h-.62l.33-1.6z" color="#000" overflow="visible"/><path fill="#2e3436" fill-rule="evenodd" d="M24.83 25.6h.62l-.33 1.6h-.62l.33-1.6z" color="#000" overflow="visible"/><path fill="#2e3436" fill-rule="evenodd" d="M20.1 25.6h.63l-.33 1.6h-.62l.33-1.6z" color="#000" overflow="visible"/></svg>