<svg xmlns="http://www.w3.org/2000/svg" width="48" height="48" xmlns:xlink="http://www.w3.org/1999/xlink"><defs><linearGradient id="a"><stop offset="0" stop-color="#fff"/><stop offset="1" stop-color="#fff" stop-opacity="0"/></linearGradient><linearGradient id="h" x1="13.236" x2="7.752" y1="37.752" y2="42.282" xlink:href="#a" gradientUnits="userSpaceOnUse" gradientTransform="matrix(.852 0 0 .852 -1.675 3.754)"/><linearGradient id="b"><stop offset="0" stop-color="#696969"/><stop offset="1"/></linearGradient><radialGradient id="g" cx="15.415" cy="35.357" r="7.579" xlink:href="#b" fx="15.415" fy="35.357" gradientTransform="matrix(.995 0 0 .969 -4.583 .166)" gradientUnits="userSpaceOnUse"/><linearGradient id="c"><stop offset="0" stop-color="#bdbdbd"/><stop offset=".333" stop-color="#e2e2e2"/><stop offset=".667" stop-color="#a3a3a3"/><stop offset="1" stop-color="#ddd"/></linearGradient><linearGradient id="f" x1="19.395" x2="23.109" y1="30.001" y2="33.439" xlink:href="#c" gradientUnits="userSpaceOnUse" gradientTransform="translate(-3.907 -1.803)"/><linearGradient id="d"><stop offset="0" stop-color="#6e3d09"/><stop offset=".242" stop-color="#ea8113"/><stop offset=".621" stop-color="#5c3307"/><stop offset="1" stop-color="#e07c12"/></linearGradient><linearGradient id="e" x1="28.059" x2="33.437" y1="18.868" y2="23.743" xlink:href="#d" gradientUnits="userSpaceOnUse" gradientTransform="translate(-3.907 -1.803)"/></defs><g><g color="#000"><path fill="url(#e)" stroke="#673907" d="M19.65 22.6l4.07 3.8c7.2-7.08 17.78-24 17.78-24 .43-1.2-1.1-2-1.85-1.16 0 0-13.7 14.1-20 21.35z" stroke-linecap="round" overflow="visible" transform="translate(2.512 3.416)"/><path fill="url(#f)" stroke="#888a85" d="M12.05 32.8l2.25 1.95 8.5-7.37.26-.7 1.1-.02c-.44-1.57-2.94-4.4-4.82-4.4l.08 1.1-.67.38-6.7 9.07z" stroke-linecap="round" overflow="visible" transform="translate(2.512 3.416)"/><path fill="url(#g)" d="M1.76 40.72c6.6 0 11.62.8 12.56-4.02.77-3.87-4.56-5.72-7.2-2.27-2.54 3.33-5.36 6.3-5.36 6.3z" overflow="visible" transform="translate(2.512 3.416)"/><path fill="#fff" d="M13.8 38.15a1.06 1.06 0 1 1-2.12 0 1.06 1.06 0 1 1 2.13 0z" opacity=".528" overflow="visible"/><path fill="#fff" d="M23.77 28.44a.98.98 0 1 1-1.97 0 .98.98 0 1 1 1.97 0z" overflow="visible"/><path fill="none" stroke="#fff" d="M21.45 29.8l-5.3 6.16" stroke-linecap="round" stroke-linejoin="round" overflow="visible"/><path fill="url(#h)" d="M3.07 40.07s3.34-1.64 4.77-4.1c.5-.85 1.64-.1.94.75-1.52 1.86-5.7 3.35-5.7 3.35z" opacity=".428" overflow="visible" transform="translate(2.512 3.416)"/><path fill="#fff" d="M43.06 5.3a.3.3 0 1 1-.6 0 .3.3 0 1 1 .6 0z" opacity=".533" overflow="visible"/></g></g></svg>