<svg xmlns="http://www.w3.org/2000/svg" width="24" height="24" xmlns:i="&ns_ai;" xmlns:sodipodi="http://inkscape.sourceforge.net/DTD/sodipodi-0.dtd" sodipodi:version=".32" version="1" sodipodi:docbase="E:\dev_clean\src\houdini\support\icons\parts" sodipodi:docname="delete_circle.svg"><defs><linearGradient id="c" x1="10.049" x2="38.704" y1="10.048" y2="38.704" gradientUnits="userSpaceOnUse"><stop offset=".545" stop-color="#CB1009"/><stop offset="1" stop-color="#DC6247"/></linearGradient><linearGradient id="b" x1="7.472" x2="39.282" y1="7.472" y2="39.282" gradientUnits="userSpaceOnUse"><stop offset="0" stop-color="#E9A389"/><stop offset="1" stop-color="#CB1009"/></linearGradient><linearGradient id="a" x1="22.012" x2="24.89" y1="22.012" y2="24.89" gradientUnits="userSpaceOnUse"><stop offset="0" stop-color="#E4876B"/><stop offset=".545" stop-color="#CB1009"/></linearGradient></defs><sodipodi:namedview pagecolor="#ffffff" bordercolor="#666666" borderopacity="1"/><g><g><path fill="none" stroke="#991109" stroke-width="1.96.103" d="M1.2 12.05C1.2 18.08 6.13 23 12.16 23c6.03 0 10.94-4.92 10.94-10.95 0-6.03-4.92-10.94-10.95-10.94C6.12 1.1 1.2 6.03 1.2 12.06z" i:knockout="Off"/><path fill="none" stroke="#9a1309" stroke-width="1.96.103" d="M3.1 12.05c0-5 4.06-9.05 9.05-9.05 5 0 9.05 4.06 9.05 9.05 0 5-4.06 9.05-9.05 9.05-5 0-9.05-4.06-9.05-9.05z" i:knockout="Off"/><g><path fill="#cb1009" d="M5.75 19.78l-1.33-1.33 14.1-14.1 1.34 1.32z" i:knockout="Off"/><g i:knockout="Off" transform="matrix(.487 0 0 .487 .739 .622)"><linearGradient x1="22.012" x2="24.89" y1="22.012" y2="24.89" gradientUnits="userSpaceOnUse"><stop offset="0" stop-color="#E4876B"/><stop offset=".545" stop-color="#CB1009"/></linearGradient><path fill="url(#a)" d="M34.96 9.06L8.88 35.16 11.75 38 38.18 11.6 35.3 8.72l-.34.34zm1.62-.25c.4.4 1.1 1.12 1.5 1.52-.65.66-27.1 27.1-27.76 27.77-.4-.4-1.1-1.12-1.5-1.52.65-.66 27.1-27.1 27.76-27.77z" i:knockout="Off"/></g></g><g><path fill="#cb1009" d="M1.2 12.04c0 6.03 4.9 10.93 10.94 10.93 6.03 0 10.93-4.9 10.93-10.93C23.07 6 18.17 1.1 12.14 1.1 6.1 1.1 1.2 6 1.2 12.05zm1.9 0c0-5 4.05-9.04 9.04-9.04 5 0 9.04 4.05 9.04 9.04 0 5-4.05 9.05-9.04 9.05-5 0-9.05-4.07-9.05-9.06z" i:knockout="Off"/><g transform="matrix(.487 0 0 .487 .739 .622)"><linearGradient x1="7.472" x2="39.282" y1="7.472" y2="39.282" gradientUnits="userSpaceOnUse"><stop offset="0" stop-color="#E9A389"/><stop offset="1" stop-color="#CB1009"/></linearGradient><path fill="url(#b)" d="M1 23.45C1 35.83 11.07 45.9 23.45 45.9c12.38 0 22.45-10.07 22.45-22.45C45.9 11.07 35.83 1 23.45 1 11.07 1 1 11.07 1 23.45zm.78 0c0-11.95 9.72-21.67 21.67-21.67 11.95 0 21.67 9.72 21.67 21.67 0 11.95-9.72 21.67-21.67 21.67-11.95 0-21.67-9.72-21.67-21.67z" i:knockout="Off"/><linearGradient x1="10.049" x2="38.704" y1="10.048" y2="38.704" gradientUnits="userSpaceOnUse"><stop offset=".545" stop-color="#CB1009"/><stop offset="1" stop-color="#DC6247"/></linearGradient><path fill="url(#c)" d="M4.1 23.45c0 10.67 8.68 19.35 19.35 19.35 10.67 0 19.35-8.68 19.35-19.35 0-10.67-8.68-19.35-19.35-19.35C12.78 4.1 4.1 12.78 4.1 23.45zm.78 0c0-10.24 8.33-18.57 18.57-18.57s18.57 8.33 18.57 18.57-8.33 18.57-18.57 18.57S4.88 33.7 4.88 23.45z" i:knockout="Off"/></g></g><path fill="none" stroke="#9a1309" stroke-width="0.49" d="M6.57 19.2L19.3 6.48" i:knockout="Off"/><path fill="none" stroke="#9a1309" stroke-width="0.49" d="M4.95 17.55l12.7-12.7" i:knockout="Off"/></g></g></svg>