<svg xmlns="http://www.w3.org/2000/svg" width="48" height="48" xmlns:xlink="http://www.w3.org/1999/xlink"><defs><linearGradient><stop offset="0" stop-color="#729fcf" stop-opacity=".495"/><stop offset="1" stop-color="#2d6aaa" stop-opacity=".485"/></linearGradient><linearGradient id="h"><stop offset="0" stop-color="#eeeeec"/><stop offset="1" stop-color="#eeeeec" stop-opacity="0"/></linearGradient><linearGradient id="g"><stop offset="0" stop-color="#eeeeec"/><stop offset="1" stop-color="#eeeeec" stop-opacity="0"/></linearGradient><linearGradient id="f"><stop offset="0" stop-color="#25356e"/><stop offset="1" stop-color="#25356e" stop-opacity=".153"/></linearGradient><linearGradient id="e"><stop offset="0" stop-color="#fff"/><stop offset="1" stop-color="#eeeeec" stop-opacity=".67"/></linearGradient><linearGradient id="i"><stop offset="0" stop-color="#95b8dc" stop-opacity=".733"/><stop offset="1" stop-color="#28609a" stop-opacity=".576"/></linearGradient><linearGradient id="d"><stop offset="0" stop-color="#378be5" stop-opacity=".454"/><stop offset="1" stop-color="#adc7e3" stop-opacity=".68"/></linearGradient><linearGradient id="c"><stop offset="0" stop-color="#eeeeec" stop-opacity=".753"/><stop offset="1" stop-color="#eeeeec" stop-opacity="0"/></linearGradient><radialGradient id="b" cx="294.624" cy="80.627" r="48.777" gradientUnits="userSpaceOnUse" fy="80.627" fx="294.624"><stop offset="0" stop-color="#e3f0f3"/><stop offset="1" stop-color="#b3cdd7"/></radialGradient><linearGradient id="a"><stop offset="0" stop-color="#fff"/><stop offset="1" stop-color="#eeeeec" stop-opacity="0"/></linearGradient><linearGradient id="m" x1="14.107" x2="39.69" y1="4.772" y2="43.606" xlink:href="#a" gradientUnits="userSpaceOnUse" gradientTransform="translate(.315 .251)"/><radialGradient cx="294.624" cy="80.627" r="48.777" fx="294.624" fy="80.627" gradientUnits="userSpaceOnUse"><stop offset="0" stop-color="#c2e9f3"/><stop offset="1" stop-color="#3b8fb1"/></radialGradient><radialGradient cx="257.459" cy="35.376" r="68.717" fx="257.459" fy="35.376" gradientUnits="userSpaceOnUse"><stop offset="0" stop-color="#fff"/><stop offset="1" stop-color="#8794A0"/></radialGradient><radialGradient cx="264.957" cy="80.291" r="53.348" fx="264.957" fy="80.291" gradientUnits="userSpaceOnUse"><stop offset="0" stop-color="#BAD1D7"/><stop offset="1" stop-color="#8794A0"/></radialGradient><radialGradient cx="289.834" cy="61.701" r="48.777" xlink:href="#b" gradientUnits="userSpaceOnUse" gradientTransform="matrix(.548 -.126 .104 .451 121.382 77.666)" fx="289.834" fy="61.701"/><radialGradient id="k" cx="289.834" cy="61.701" r="48.777" xlink:href="#b" gradientUnits="userSpaceOnUse" gradientTransform="matrix(.958 -.247 .182 .706 -257.368 66.738)" fx="289.834" fy="61.701"/><radialGradient id="o" cx="260.054" cy="50.502" r="6.304" xlink:href="#c" fx="260.054" fy="50.502" gradientTransform="matrix(1.711 4.804 -2.815 1.003 -297.53 -1290.63)" gradientUnits="userSpaceOnUse"/><linearGradient id="l" x1="9.19" x2="30.786" y1="24.181" y2="9.324" xlink:href="#d" gradientUnits="userSpaceOnUse" gradientTransform="translate(2.349 1.079)"/><linearGradient x1="9.19" x2="30.786" y1="24.181" y2="9.324" xlink:href="#d" gradientUnits="userSpaceOnUse" gradientTransform="translate(31.298 4.295)"/><linearGradient id="p" x1="8.595" x2="8.595" y1="11.654" y2="41.368" xlink:href="#e" gradientUnits="userSpaceOnUse" gradientTransform="translate(2.349 1.079)"/><linearGradient id="j" x1="18.975" x2="18.889" y1="47.084" y2=".079" xlink:href="#f" gradientUnits="userSpaceOnUse" gradientTransform="translate(1.429)"/><linearGradient x1="32.286" x2="24.714" y1="2.643" y2="39.929" xlink:href="#g" gradientUnits="userSpaceOnUse"/><linearGradient x1="32.286" x2="24.714" y1="2.643" y2="39.929" xlink:href="#g" gradientUnits="userSpaceOnUse" gradientTransform="translate(-13.071 3.643)"/><radialGradient cx="25.571" cy="27.357" r="6.857" xlink:href="#h" fx="25.571" fy="27.357" gradientTransform="matrix(1 0 0 .969 0 .855)" gradientUnits="userSpaceOnUse"/><radialGradient id="n" cx="25.314" cy="32.805" r="12.792" xlink:href="#i" gradientUnits="userSpaceOnUse" gradientTransform="matrix(2.191 -.65 .446 1.503 -47.673 1.757)" fx="25.314" fy="32.805"/></defs><g><path fill="none" stroke="url(#j)" stroke-width="3" d="M3.05 6.8L28 1.58l16.85 9.86-2.5 25.3L17.9 46.1 5.3 30.8l-2.25-24z"/><path fill="url(#k)" d="M42.4 36.2l-24.45 9.56L6.03 30.73 3.36 7.3l24.46-5.27 16.78 9.6-2.2 24.57z"/><path fill="#b1c8c9" fill-opacity=".506" fill-rule="evenodd" d="M5.5 30.5l21.85-6.42 15 12.3-24.3 9.27L5.5 30.5z"/><path fill="none" stroke="#fff" d="M27.4 24.46l14 11.15" stroke-linecap="round"/><path fill="none" stroke="#fff" d="M6.43 30.42l21.05-5.86" stroke-linecap="round"/><path fill="none" stroke="#fff" d="M27.85 3.57L27.5 24.5" stroke-linecap="round"/><path fill="url(#l)" fill-rule="evenodd" stroke="#204a87" stroke-opacity=".735" d="M6.13 20.34c11.33-2.88 9.45-14.72 21.8-13.88l14.6 9.08C29.17 15.24 31.7 30.9 17.88 31.9L6.13 20.35z" stroke-linejoin="round"/><path fill="none" stroke="#f0f0f0" d="M17.3 19.04l27-7.23" stroke-linecap="round"/><path fill="none" stroke="url(#m)" stroke-width="1.5" d="M4.23 7.64L27.9 2.7l16 9.33L41.53 36l-23.2 8.9L6.37 30.36 4.23 7.64z"/><path fill="#185863" fill-opacity=".136" d="M41.7 36.1l-23.5 9.17-.26-25.7 26.25-7.8-2.5 24.32z"/><path fill="url(#n)" stroke="#204a87" stroke-opacity=".556" d="M42.4 15.64c-13.37-.3-10.76 15.1-24.57 16.1l.5 12 22.46-8.32 1.6-19.78zM6.55 20.4l11.24 11.16.38 12L7.3 29.84l-.76-9.43z" stroke-linejoin="round"/><path fill="url(#o)" d="M17.97 45.56L5.8 30.76 4.78 7.87l12.73 11.1.47 26.58z"/><path fill="none" stroke="url(#p)" d="M4.28 7.68l13.14 11.24.76 26.1" stroke-linecap="round"/><path fill="none" stroke="#eeeeec" stroke-opacity=".556" d="M8.12 20.75C19.78 15 17.1 6.85 27.58 7.42l12.4 7.5C28.28 16.1 30.93 29.3 17.96 30.7l-9.84-9.93z" stroke-linejoin="round"/></g></svg>