<svg xmlns="http://www.w3.org/2000/svg" width="48" height="48" xmlns:xlink="http://www.w3.org/1999/xlink"><defs><linearGradient id="d"><stop offset="0" stop-color="#d3d3d3"/><stop offset="1" stop-color="#a8bebb"/></linearGradient><linearGradient id="c"><stop offset="0" stop-color="#fff"/><stop offset=".5" stop-color="#fff"/><stop offset="1" stop-color="#b6f9ff"/></linearGradient><linearGradient id="a"><stop offset="0" stop-color="#eeeeec"/><stop offset="1" stop-color="#eeeeec" stop-opacity="0"/></linearGradient><linearGradient id="b"><stop offset="0" stop-color="#729fcf"/><stop offset="1" stop-color="#376da5"/></linearGradient><linearGradient x1="22.639" x2="23.278" y1="8.028" y2="44.889" xlink:href="#a" gradientUnits="userSpaceOnUse" gradientTransform="matrix(1.159 0 0 1.159 -3.409 -6.259)"/><linearGradient x1="28.707" x2="28.735" y1="40.594" y2="9.414" xlink:href="#b" gradientUnits="userSpaceOnUse" gradientTransform="matrix(1.141 0 0 1.141 -3.068 -5.935)"/><radialGradient cx="11.389" cy="12.342" r="9.063" xlink:href="#c" gradientUnits="userSpaceOnUse" gradientTransform="matrix(1.325 .233 -.096 .545 -2.517 3.231)" fx="11.389" fy="12.342"/><radialGradient cx="11.389" cy="12.342" r="9.063" xlink:href="#c" gradientUnits="userSpaceOnUse" gradientTransform="matrix(1.325 .233 -.096 .545 19.542 11.707)" fx="11.389" fy="12.342"/><linearGradient x1="10.045" x2="31.233" y1="19.226" y2="39.559" xlink:href="#d" gradientUnits="userSpaceOnUse"/><linearGradient id="i" x1="22.639" x2="23.278" y1="8.028" y2="44.889" xlink:href="#a" gradientUnits="userSpaceOnUse" gradientTransform="matrix(1.159 0 0 1.159 -3.409 -6.259)"/><linearGradient id="h" x1="10.045" x2="31.233" y1="19.226" y2="39.559" xlink:href="#d" gradientUnits="userSpaceOnUse"/><linearGradient id="e" x1="28.707" x2="28.735" y1="40.594" y2="9.414" xlink:href="#b" gradientUnits="userSpaceOnUse" gradientTransform="matrix(1.141 0 0 1.141 -3.068 -5.935)"/><radialGradient cx="11.389" cy="12.342" r="9.063" xlink:href="#c" gradientUnits="userSpaceOnUse" gradientTransform="matrix(1.325 .233 -.096 .545 -2.517 3.231)" fx="11.389" fy="12.342"/><radialGradient id="f" cx="14.144" cy="11.762" r="9.063" xlink:href="#c" gradientUnits="userSpaceOnUse" gradientTransform="matrix(1.346 -.02 .012 .819 -5.073 .761)" fx="14.144" fy="11.762"/><radialGradient id="g" cx="13.437" cy="10.699" r="9.063" xlink:href="#c" gradientUnits="userSpaceOnUse" gradientTransform="matrix(1.454 .004 -.002 .731 16.928 12.385)" fx="13.437" fy="10.699"/></defs><g><rect width="40.713" height="38.684" x="3.21" y="2.436" fill="url(#e)" fill-rule="evenodd" rx="0" ry="0" color="#000" overflow="visible"/><path fill="#babdb6" fill-rule="evenodd" d="M23.14 13.07c-.16.8-.86 1.4-1.7 1.4-.32 0-.64-.1-.9-.28-.55.77-1.44 1.28-2.47 1.28-1 0-1.88-.48-2.43-1.22-.24.04-.5.06-.75.06-.2 0-.37 0-.55-.03-.66 1.24-1.98 2.1-3.5 2.1-1.37 0-2.56-.68-3.28-1.74-.24.13-.5.2-.78.2-.84 0-1.56-.6-1.73-1.38 0 .08-.03.16-.03.25 0 .95.8 1.7 1.75 1.7.28 0 .53-.05.77-.17C8.3 16.3 9.47 17 10.85 17c1.52 0 2.84-.86 3.5-2.12.18.03.35.03.54.03.24 0 .5 0 .74-.05.55.74 1.43 1.22 2.43 1.22 1.03 0 1.92-.5 2.47-1.28.26.15.58.27.9.27.96 0 1.73-.8 1.73-1.75 0-.1-.02-.17-.03-.25z" color="#000" overflow="visible"/><path fill="url(#f)" fill-rule="evenodd" d="M14.9 6.48c-1.53 0-2.84.87-3.5 2.13-.18 0-.36-.02-.54-.02-1.85 0-3.37 1.25-3.8 2.97-.1-.02-.17-.03-.26-.03-.95 0-1.75.76-1.75 1.7 0 .97.8 1.73 1.75 1.73.3 0 .54-.06.78-.18.7 1.05 1.9 1.75 3.28 1.75 1.52 0 2.83-.87 3.5-2.13.18.02.35.02.53.02.25 0 .5-.02.74-.06.56.74 1.44 1.22 2.44 1.22 1.02 0 1.9-.5 2.47-1.28.26.16.57.28.9.28.96 0 1.72-.8 1.72-1.75s-.76-1.72-1.72-1.72c-.2 0-.43.06-.62.13-.4-.83-1.15-1.44-2.06-1.65-.4-1.78-1.98-3.1-3.88-3.1z" color="#000" overflow="visible"/><g fill-rule="evenodd" color="#000"><path fill="#babdb6" d="M27.03 18.68c0 .1-.03.17-.03.25 0 .95.8 1.72 1.75 1.72.3 0 .55-.06.78-.18.72 1.05 1.92 1.75 3.3 1.75 1.5 0 2.82-.87 3.5-2.13.17.02.33.02.52.02.25 0 .5-.02.75-.06.55.74 1.44 1.22 2.43 1.22 1.03 0 1.92-.5 2.47-1.28.2.1.4.17.63.22v-.6c-.23-.04-.44-.1-.63-.22-.55.78-1.44 1.28-2.47 1.28-1 0-1.88-.47-2.43-1.2-.24.03-.5.05-.75.05-.2 0-.35 0-.53-.03-.67 1.25-1.98 2.12-3.5 2.12-1.37 0-2.57-.7-3.3-1.75-.22.13-.48.2-.77.2-.83 0-1.55-.6-1.72-1.4z" overflow="visible"/><path fill="url(#g)" d="M37.63 16.4c-1.53 0-2.84.87-3.5 2.13-.18-.02-.36-.03-.54-.03-1.86 0-3.38 1.26-3.82 2.97-.08 0-.16-.03-.25-.03-.95 0-1.75.77-1.75 1.72s.8 1.7 1.75 1.7c.3.02.54-.05.78-.17.73 1.04 1.92 1.74 3.3 1.74 1.5 0 2.83-.87 3.5-2.13.17.04.34.04.52.04.26 0 .5 0 .76-.06.55.74 1.43 1.22 2.43 1.22 1.04 0 1.93-.5 2.48-1.28.2.13.44.2.7.25v-3.4c-.16 0-.3.04-.42.1-.4-.84-1.14-1.46-2.06-1.67-.4-1.77-1.98-3.1-3.88-3.1z" overflow="visible" transform="translate(-.778 -4.722)"/></g><path fill="url(#h)" fill-rule="evenodd" stroke="#323232" d="M16.34 12.72l-6.46 6.25-3.32 6.37-3.4 2.57v11.82l33.56.12.12-5.22-2.06-3-4.83-3.75-3-4.5-1.92-5.72L21.9 19l-5.56-6.28z"/><path fill="#eeeeec" fill-rule="evenodd" d="M16.22 13.56l-6.06 5.66L7 25.66l-3.8 2.87v7.75l.96-.16v-4.4l2.06-2.6.06 4.54L11 28l-.78-4.72 2.06-4.22 3.94-5.5z"/><path fill="#eeeeec" fill-rule="evenodd" d="M15 18.22l-2.83 5.5.55 4 2.56 2.06L15 18.22z"/><path fill="#eeeeec" fill-rule="evenodd" d="M3.6 39.17l5.73-3.06 3-5.38-1.4 6.67-2.65 1.93-4.67-.16z"/><path fill-opacity=".111" fill-rule="evenodd" d="M16.44 13.4l1.78 4.38L20.4 23l-1.8 3.6 2.62 3.46-2.6 4.55-3.4 1.9 2 1.72.56 1.1 18.4-.04.15-4.34-2.9-4.33-3.87-2.5-3.02-4.44-1.66-5.3-3.27 1.14-5.16-6.1z"/><path fill-opacity=".154" fill-rule="evenodd" d="M21.1 39.17l1.96-2.95 2.94-.5-2.4-4.6 4.12 1.7-2.83-6.15 1.5-3.17 3.32 4.72 1.9 1.45 4.7 9.77-15.2-.27z"/><path fill="#d3d3d3" fill-rule="evenodd" stroke="#2e3436" d="M37.72 24.38l-2.75 3.12-3.28 2.7-4.6 1.36-2.9 3.47-4.82 2.28-3.82 3.76 28.28.06v-9.68l-.22-.22-1.96-4.78-3.94-2.07z"/><path fill="#eeeeec" fill-rule="evenodd" d="M37.76 24.98l-2.62 2.7-2.06 4.2-5.22 3.95v3.37l3.37-.5v-2.87l1.34-1.7.04 2.97 3.1-3.7-.52-3.08 1.34-2.75 1.24-2.6z"/><path fill="#eeeeec" fill-rule="evenodd" d="M38.3 27.02l-1.85 3.6.36 2.6 1.68 1.34-.18-7.54z"/><path fill="#eeeeec" fill-rule="evenodd" d="M30.87 40.68l3.73-2 1.96-3.5-.9 4.34-1.75 1.27-3.03-.12z"/><path fill-opacity=".216" fill-rule="evenodd" d="M38.72 25.4l1.47 2.23-.54 2.34 1 2.53 1.68 2.25-1.68 2.97-2.22 1.22 1.3 1.12.35.72h3.8v-8.9l-.65-.57-1.9-4.74-2.63-1.15z"/><rect width="37.717" height="35.815" x="4.7" y="3.918" fill="none" stroke="url(#i)" stroke-width="1.5" ry="0" rx="0" stroke-linecap="round" overflow="visible" color="#000"/><rect width="40.713" height="38.461" x="3.199" y="2.38" fill="none" stroke="#204a87" stroke-width="1.5" ry="0" rx="0" stroke-linecap="round" overflow="visible" color="#000"/><path fill="#eeeeec" fill-opacity=".75" fill-rule="evenodd" d="M21.83 19.56l2.9-1.23-1.45 4.34-1.45-3.1z"/><path fill="#fff" fill-opacity=".543" fill-rule="evenodd" d="M8.78 22.03l1.44-2.8 6.06-5.8 5.55 6.24 2.9-1.27 1.33 3.76s-.12 1.8-2.62 1.8-3.77-1.77-6-1.82c-2.22-.04-2.88 2.1-5.44 1.8-2.56-.28-3.17-1.8-3.22-1.9z"/></g></svg>