<svg xmlns="http://www.w3.org/2000/svg" width="32" height="32" xmlns:xlink="http://www.w3.org/1999/xlink" xmlns:sodipodi="http://inkscape.sourceforge.net/DTD/sodipodi-0.dtd" sodipodi:version=".32" version="1" sodipodi:docbase="E:\dev_clean\src\houdini\support\icons\parts" sodipodi:docname="magnet.svg"><defs><linearGradient id="a" x1="22.911" x2="22.938" y1="478.871" y2="481.75" gradientUnits="userSpaceOnUse"><stop offset="0" stop-color="#656E78"/><stop offset="1" stop-color="#828E99"/></linearGradient><linearGradient id="Y" x1="22.911" x2="22.938" y1="478.871" y2="481.75" xlink:href="#a" gradientUnits="userSpaceOnUse"/><linearGradient id="b" x1="34.96" x2="35.875" y1="481.321" y2="483.043" gradientUnits="userSpaceOnUse"><stop offset="0" stop-color="#6C7680"/><stop offset="1" stop-color="#828E99"/></linearGradient><linearGradient id="X" x1="34.96" x2="35.875" y1="481.321" y2="483.043" xlink:href="#b" gradientUnits="userSpaceOnUse"/><linearGradient id="c" x1="35.848" x2="38.832" y1="480.218" y2="471.303" gradientUnits="userSpaceOnUse"><stop offset="0" stop-color="#590B08"/><stop offset="1" stop-color="#B11D1A"/></linearGradient><linearGradient id="W" x1="35.848" x2="38.832" y1="480.218" y2="471.303" xlink:href="#c" gradientUnits="userSpaceOnUse" gradientTransform="translate(57.21 -.83)"/><linearGradient id="d" x1="30.642" x2="33.146" y1="477.338" y2="481.796" gradientUnits="userSpaceOnUse"><stop offset="0" stop-color="#D5E5E9"/><stop offset="1" stop-color="#AEBDC9"/></linearGradient><linearGradient id="V" x1="30.642" x2="33.146" y1="477.338" y2="481.796" xlink:href="#d" gradientUnits="userSpaceOnUse"/><linearGradient id="e" x1="18.209" x2="20.012" y1="478.426" y2="482.866" gradientUnits="userSpaceOnUse"><stop offset="0" stop-color="#6C7680"/><stop offset="1" stop-color="#AEBDC9"/></linearGradient><linearGradient id="U" x1="18.209" x2="20.012" y1="478.426" y2="482.866" xlink:href="#e" gradientUnits="userSpaceOnUse"/><linearGradient id="f" x1="17.795" x2="21.867" y1="475.173" y2="480.455" gradientUnits="userSpaceOnUse"><stop offset="0" stop-color="#D5E5E9"/><stop offset="1" stop-color="#AEBDC9"/></linearGradient><linearGradient id="T" x1="17.795" x2="21.867" y1="475.173" y2="480.455" xlink:href="#f" gradientUnits="userSpaceOnUse"/><linearGradient id="g" x1="15.385" x2="38.865" y1="473.426" y2="473.426" gradientUnits="userSpaceOnUse"><stop offset="0" stop-color="#CE5B0E"/><stop offset="1" stop-color="#BF1311"/></linearGradient><linearGradient id="S" x1="15.385" x2="38.865" y1="473.426" y2="473.426" xlink:href="#g" gradientUnits="userSpaceOnUse" gradientTransform="translate(57.21 -.83)"/><linearGradient id="h" x1="30.341" x2="32.602" y1="480.836" y2="484.389" gradientUnits="userSpaceOnUse"><stop offset="0" stop-color="#6C7680"/><stop offset="1" stop-color="#AEBDC9"/></linearGradient><linearGradient id="R" x1="30.341" x2="32.602" y1="480.836" y2="484.389" xlink:href="#h" gradientUnits="userSpaceOnUse"/><linearGradient id="i" x1="24.754" x2="32.224" y1="475.883" y2="475.883" gradientUnits="userSpaceOnUse"><stop offset="0" stop-color="#590B08"/><stop offset=".618" stop-color="#B11D1A"/><stop offset=".717" stop-color="#AB1C18"/><stop offset=".831" stop-color="#9A1513"/><stop offset=".953" stop-color="#7F0F0C"/><stop offset="1" stop-color="#730C09"/></linearGradient><linearGradient id="Q" x1="24.754" x2="32.224" y1="475.883" y2="475.883" xlink:href="#i" gradientUnits="userSpaceOnUse" gradientTransform="translate(57.21 -.83)"/><linearGradient id="y" x1="348.947" x2="350.709" y1="232.478" y2="226.735" gradientUnits="userSpaceOnUse" gradientTransform="translate(-338.105 -215.788)"><stop offset=".006" stop-color="#BABDB6"/><stop offset="1" stop-color="#888A85"/></linearGradient><linearGradient id="z" x1="351.559" x2="350.443" y1="229.588" y2="232.071" gradientUnits="userSpaceOnUse" gradientTransform="translate(-338.105 -215.788)"><stop offset=".006" stop-color="#BABDB6"/><stop offset=".008" stop-color="#BBBEB8"/><stop offset=".07" stop-color="#D9D9D4"/><stop offset=".132" stop-color="#EEEEEB"/><stop offset=".195" stop-color="#FBFBFA"/><stop offset=".258" stop-color="#fff"/><stop offset=".329" stop-color="#F5F5F3"/><stop offset=".439" stop-color="#DBDBD6"/><stop offset=".574" stop-color="#B3B4AD"/><stop offset=".663" stop-color="#969993"/><stop offset="1" stop-color="#BABDB6"/></linearGradient><linearGradient id="A" x1="363.357" x2="363.611" y1="229.752" y2="232.185" gradientUnits="userSpaceOnUse"><stop offset="0" stop-color="#BABDB6"/><stop offset=".832" stop-color="#888A85"/></linearGradient><linearGradient id="B" x1="361.298" x2="361.969" y1="228.375" y2="232.961" gradientUnits="userSpaceOnUse" gradientTransform="translate(-338.105 -215.788)"><stop offset=".006" stop-color="#BABDB6"/><stop offset="1" stop-color="#D3D7CF"/></linearGradient><linearGradient id="C" x1="359.353" x2="360.066" y1="230.098" y2="232.613" gradientUnits="userSpaceOnUse" gradientTransform="translate(-338.105 -215.788)"><stop offset=".006" stop-color="#BABDB6"/><stop offset=".008" stop-color="#BBBEB8"/><stop offset=".067" stop-color="#D7D8D3"/><stop offset=".121" stop-color="#E9E9E5"/><stop offset=".163" stop-color="#EFEEEC"/><stop offset=".23" stop-color="#E5E5E1"/><stop offset=".335" stop-color="#C9C8C3"/><stop offset=".463" stop-color="#A1A29B"/><stop offset=".534" stop-color="#888A85"/><stop offset=".703" stop-color="#959690"/><stop offset=".998" stop-color="#BABDB6"/><stop offset="1" stop-color="#BABDB6"/></linearGradient><linearGradient id="D" x1="352.528" x2="357.501" y1="242.266" y2="242.266" gradientUnits="userSpaceOnUse" gradientTransform="translate(-338.105 -215.788)"><stop offset="0" stop-color="#888A85"/><stop offset=".545" stop-color="#B2B5AF"/><stop offset=".567" stop-color="#ADB0AA"/><stop offset=".694" stop-color="#989A94"/><stop offset=".832" stop-color="#8C8E89"/><stop offset="1" stop-color="#888A85"/></linearGradient><linearGradient id="E" x1="350.864" x2="360.906" y1="243.44" y2="237.115" gradientUnits="userSpaceOnUse" gradientTransform="translate(-338.105 -215.788)"><stop offset=".006" stop-color="#EFEEEC"/><stop offset=".048" stop-color="#EAE9E7"/><stop offset="1" stop-color="#888A85"/></linearGradient><linearGradient id="F" x1="353.691" x2="356.34" y1="237.999" y2="237.999" gradientUnits="userSpaceOnUse" gradientTransform="translate(-338.105 -215.788)"><stop offset="0" stop-color="#888A85"/><stop offset=".747" stop-color="#fff"/><stop offset="1" stop-color="#D3D7CF"/></linearGradient><linearGradient id="G" x1="353.82" x2="356.352" y1="230.502" y2="234.571" gradientUnits="userSpaceOnUse" gradientTransform="translate(-338.105 -215.788)"><stop offset=".006" stop-color="#BABDB6"/><stop offset=".258" stop-color="#fff"/><stop offset=".312" stop-color="#F4F3F2"/><stop offset=".39" stop-color="#D7D6D0"/><stop offset=".483" stop-color="#ACABA3"/><stop offset=".587" stop-color="#797872"/><stop offset=".663" stop-color="#545652"/><stop offset="1" stop-color="#888A85"/></linearGradient><linearGradient id="H" x1="353.691" x2="356.322" y1="227.746" y2="227.746" gradientUnits="userSpaceOnUse" gradientTransform="translate(-338.105 -215.788)"><stop offset="0" stop-color="#888A85"/><stop offset=".747" stop-color="#fff"/><stop offset="1" stop-color="#D3D7CF"/></linearGradient><linearGradient id="I" x1="352.85" x2="356.9" y1="221.079" y2="221.079" gradientUnits="userSpaceOnUse" gradientTransform="translate(-338.105 -215.788)"><stop offset="0" stop-color="#888A85"/><stop offset=".517" stop-color="#BABDB6"/><stop offset=".691" stop-color="#D3D7CF"/><stop offset="1" stop-color="#888A85"/></linearGradient><linearGradient id="J" x1="351.073" x2="351.786" y1="232.443" y2="234.96" gradientUnits="userSpaceOnUse" gradientTransform="translate(-338.105 -215.788)"><stop offset=".006" stop-color="#BABDB6"/><stop offset=".008" stop-color="#BBBEB8"/><stop offset=".067" stop-color="#D7D8D3"/><stop offset=".121" stop-color="#E9E9E5"/><stop offset=".163" stop-color="#EFEEEC"/><stop offset=".23" stop-color="#E5E5E1"/><stop offset=".335" stop-color="#C9C8C3"/><stop offset=".463" stop-color="#A1A29B"/><stop offset=".534" stop-color="#888A85"/><stop offset=".703" stop-color="#959690"/><stop offset=".998" stop-color="#BABDB6"/><stop offset="1" stop-color="#BABDB6"/></linearGradient><linearGradient id="K" x1="344.775" x2="346.404" y1="232.955" y2="238.239" gradientUnits="userSpaceOnUse" gradientTransform="translate(-338.105 -215.788)"><stop offset=".006" stop-color="#EFEEEC"/><stop offset=".198" stop-color="#EDEDEA"/><stop offset=".296" stop-color="#E4E4E0"/><stop offset=".373" stop-color="#D5D5D0"/><stop offset=".439" stop-color="#C1C3BD"/><stop offset=".455" stop-color="#BABDB6"/><stop offset=".579" stop-color="#B2B5AF"/><stop offset=".599" stop-color="#ADB0AA"/><stop offset=".717" stop-color="#989A94"/><stop offset=".844" stop-color="#8C8E89"/><stop offset="1" stop-color="#888A85"/></linearGradient><linearGradient id="L" x1="358.25" x2="357.134" y1="232.596" y2="235.079" gradientUnits="userSpaceOnUse" gradientTransform="translate(-338.105 -215.788)"><stop offset=".006" stop-color="#BABDB6"/><stop offset=".008" stop-color="#BBBEB8"/><stop offset=".07" stop-color="#D9D9D4"/><stop offset=".132" stop-color="#EEEEEB"/><stop offset=".195" stop-color="#FBFBFA"/><stop offset=".258" stop-color="#fff"/><stop offset=".329" stop-color="#F5F5F3"/><stop offset=".439" stop-color="#DBDBD6"/><stop offset=".574" stop-color="#B3B4AD"/><stop offset=".663" stop-color="#969993"/><stop offset="1" stop-color="#BABDB6"/></linearGradient><linearGradient id="M" x1="363.394" x2="361.923" y1="233.509" y2="238.575" gradientUnits="userSpaceOnUse" gradientTransform="translate(-338.105 -215.788)"><stop offset=".006" stop-color="#D3D7CF"/><stop offset=".095" stop-color="#EAECE7"/><stop offset=".184" stop-color="#FAFAF8"/><stop offset=".258" stop-color="#fff"/><stop offset=".324" stop-color="#F6F5F4"/><stop offset=".419" stop-color="#DDDDD9"/><stop offset=".533" stop-color="#B8B8B1"/><stop offset=".66" stop-color="#898B86"/><stop offset=".663" stop-color="#888A85"/><stop offset="1" stop-color="#BABDB6"/></linearGradient><linearGradient id="N" x1="350.664" x2="350.752" y1="232.24" y2="232.839" gradientUnits="userSpaceOnUse"><stop offset=".006" stop-color="#BABDB6"/><stop offset="1" stop-color="#D3D7CF"/></linearGradient><linearGradient id="O" x1="357.958" x2="358.127" y1="231.873" y2="233.03" gradientUnits="userSpaceOnUse"><stop offset=".006" stop-color="#BABDB6"/><stop offset="1" stop-color="#D3D7CF"/></linearGradient><linearGradient id="P" x1="350.256" x2="350.413" y1="231.413" y2="232.486" gradientUnits="userSpaceOnUse"><stop offset=".006" stop-color="#BABDB6"/><stop offset="1" stop-color="#D3D7CF"/></linearGradient><radialGradient cx="466.731" cy="193.481" r="25.699" gradientUnits="userSpaceOnUse" fy="193.481" fx="466.731"><stop offset="0" stop-color="#BABDB6"/><stop offset=".826" stop-color="#545652"/><stop offset="1" stop-color="#2D3335"/></radialGradient><radialGradient cx="447.146" cy="169.636" r="36.213" gradientUnits="userSpaceOnUse" fy="169.636" fx="447.146"><stop offset="0" stop-color="#fff"/><stop offset="1" stop-color="#545652"/></radialGradient><radialGradient cx="451.097" cy="193.305" r="28.114" gradientUnits="userSpaceOnUse" fy="193.305" fx="451.097"><stop offset="0" stop-color="#BABDB6"/><stop offset="1" stop-color="#5E615C"/></radialGradient><radialGradient cx="456.15" cy="179.031" r="15.868" fx="456.15" fy="179.031" gradientUnits="userSpaceOnUse"><stop offset="0" stop-color="#EFEEEC"/><stop offset="1" stop-color="#545652"/></radialGradient><radialGradient cx="457.303" cy="187.356" r="7.159" fx="457.303" fy="187.356" gradientUnits="userSpaceOnUse"><stop offset="0" stop-color="#BABDB6"/><stop offset=".826" stop-color="#545652"/><stop offset="1" stop-color="#2D3335"/></radialGradient><radialGradient cx="456.151" cy="179.033" r="15.866" fx="456.151" fy="179.033" gradientUnits="userSpaceOnUse"><stop offset="0" stop-color="#EFEEEC"/><stop offset="1" stop-color="#545652"/></radialGradient><radialGradient cx="453.534" cy="177.048" r="6.892" fx="453.534" fy="177.048" gradientUnits="userSpaceOnUse"><stop offset="0" stop-color="#fff"/><stop offset="1" stop-color="#545652"/></radialGradient><radialGradient cx="462.811" cy="187.639" r="12.658" gradientUnits="userSpaceOnUse" fy="187.639" fx="462.811"><stop offset="0" stop-color="#BABDB6"/><stop offset=".826" stop-color="#545652"/><stop offset="1" stop-color="#2D3335"/></radialGradient><radialGradient cx="453.167" cy="175.895" r="17.832" gradientUnits="userSpaceOnUse" fy="175.895" fx="453.167"><stop offset="0" stop-color="#fff"/><stop offset="1" stop-color="#545652"/></radialGradient><radialGradient cx="455.113" cy="187.552" r="13.846" gradientUnits="userSpaceOnUse" fy="187.552" fx="455.113"><stop offset="0" stop-color="#BABDB6"/><stop offset="1" stop-color="#5E615C"/></radialGradient><radialGradient cx="427.802" cy="214.219" r="12.001" fx="427.802" fy="214.219" gradientTransform="matrix(1.029 0 0 1.062 3.464 -39.359)" gradientUnits="userSpaceOnUse"><stop offset="0" stop-color="#224987"/><stop offset="1" stop-color="#fff"/></radialGradient><linearGradient x1="468.552" x2="461.443" y1="191.687" y2="184.759" gradientUnits="userSpaceOnUse"><stop offset="0" stop-color="#224987"/><stop offset="1" stop-color="#fff"/></linearGradient><linearGradient x1="456.777" x2="457.527" y1="163.091" y2="177.718" gradientUnits="userSpaceOnUse"><stop offset="0" stop-color="#224987"/><stop offset="1" stop-color="#fff"/></linearGradient><linearGradient id="n" x1="406.135" x2="415.861" y1="179.186" y2="189.96" gradientUnits="userSpaceOnUse"><stop offset=".006" stop-color="#fff"/><stop offset=".1" stop-color="#F6F7FA"/><stop offset=".255" stop-color="#DCE3EC"/><stop offset=".453" stop-color="#B3C1D6"/><stop offset=".685" stop-color="#7A92B7"/><stop offset=".944" stop-color="#325790"/><stop offset="1" stop-color="#224987"/></linearGradient><radialGradient id="o" cx="404.988" cy="179.222" r="15.423" fx="404.988" fy="179.222" gradientUnits="userSpaceOnUse"><stop offset=".006" stop-color="#fff"/><stop offset=".1" stop-color="#F6F7FA"/><stop offset=".255" stop-color="#DCE3EC"/><stop offset=".453" stop-color="#B3C1D6"/><stop offset=".685" stop-color="#7A92B7"/><stop offset=".944" stop-color="#325790"/><stop offset="1" stop-color="#224987"/></radialGradient><radialGradient id="p" cx="-514.137" cy="375.896" r="13.348" fx="-514.137" fy="375.896" gradientTransform="matrix(-1 0 0 -1 -106.76 554.833)" gradientUnits="userSpaceOnUse"><stop offset=".006" stop-color="#fff"/><stop offset=".1" stop-color="#F6F7FA"/><stop offset=".255" stop-color="#DCE3EC"/><stop offset=".453" stop-color="#B3C1D6"/><stop offset=".685" stop-color="#7A92B7"/><stop offset=".944" stop-color="#325790"/><stop offset="1" stop-color="#224987"/></radialGradient><radialGradient id="q" cx="-444.643" cy="353.562" r="12.78" fx="-444.643" fy="353.562" gradientTransform="matrix(-1 0 0 -1 -39.18 532.977)" gradientUnits="userSpaceOnUse"><stop offset=".006" stop-color="#fff"/><stop offset=".1" stop-color="#F6F7FA"/><stop offset=".255" stop-color="#DCE3EC"/><stop offset=".453" stop-color="#B3C1D6"/><stop offset=".685" stop-color="#7A92B7"/><stop offset=".944" stop-color="#325790"/><stop offset="1" stop-color="#224987"/></radialGradient><radialGradient id="r" cx="400.543" cy="186.385" r="21.378" gradientUnits="userSpaceOnUse" fy="186.385" fx="400.543"><stop offset="0" stop-color="#BABDB6"/><stop offset="1" stop-color="#5E615C"/></radialGradient><radialGradient id="s" cx="397.538" cy="168.383" r="27.542" gradientUnits="userSpaceOnUse" fy="168.383" fx="397.538"><stop offset="0" stop-color="#fff"/><stop offset="1" stop-color="#545652"/></radialGradient><radialGradient id="t" cx="412.434" cy="186.519" r="19.549" gradientUnits="userSpaceOnUse" fy="186.519" fx="412.434"><stop offset="0" stop-color="#BABDB6"/><stop offset=".826" stop-color="#545652"/><stop offset="1" stop-color="#2D3335"/></radialGradient><radialGradient id="v" cx="402.146" cy="173.225" r="24.506" gradientUnits="userSpaceOnUse" fy="173.225" fx="402.146"><stop offset="0" stop-color="#EFEEEC"/><stop offset="1" stop-color="#545652"/></radialGradient><radialGradient id="u" cx="398.106" cy="170.164" r="10.642" gradientUnits="userSpaceOnUse" fy="170.164" fx="398.106"><stop offset="0" stop-color="#fff"/><stop offset="1" stop-color="#545652"/></radialGradient><radialGradient id="x" cx="402.141" cy="173.227" r="24.507" gradientUnits="userSpaceOnUse" fy="173.227" fx="402.141"><stop offset="0" stop-color="#EFEEEC"/><stop offset="1" stop-color="#545652"/></radialGradient><radialGradient id="w" cx="403.924" cy="186.083" r="11.063" gradientUnits="userSpaceOnUse" fy="186.083" fx="403.924"><stop offset="0" stop-color="#BABDB6"/><stop offset=".826" stop-color="#545652"/><stop offset="1" stop-color="#2D3335"/></radialGradient><linearGradient id="j" x1="359.477" x2="360.143" y1="165.859" y2="190.359" gradientUnits="userSpaceOnUse"><stop offset=".006" stop-color="#fff"/><stop offset=".1" stop-color="#F6F7FA"/><stop offset=".255" stop-color="#DCE3EC"/><stop offset=".453" stop-color="#B3C1D6"/><stop offset=".685" stop-color="#7A92B7"/><stop offset=".944" stop-color="#325790"/><stop offset="1" stop-color="#224987"/></linearGradient><linearGradient id="k" x1="353.787" x2="342.12" y1="167.674" y2="191.342" gradientUnits="userSpaceOnUse" gradientTransform="translate(-339.088 -158.956)"><stop offset="0" stop-color="#224987"/><stop offset=".876" stop-color="#fff"/></linearGradient><radialGradient id="m" cx="-294.017" cy="168.652" r="14.977" gradientUnits="userSpaceOnUse" gradientTransform="matrix(-1 0 0 1 55.359 0)" fy="168.652" fx="-294.017"><stop offset="0" stop-color="#fff"/><stop offset="1" stop-color="#545652"/></radialGradient><radialGradient id="l" cx="-296.51" cy="171.442" r="12.31" gradientUnits="userSpaceOnUse" gradientTransform="matrix(-1 0 0 1 55.359 0)" fy="171.442" fx="-296.51"><stop offset="0" stop-color="#fff"/><stop offset=".826" stop-color="#545652"/><stop offset="1" stop-color="#2D3335"/></radialGradient><linearGradient x1="359.477" x2="360.143" y1="165.859" y2="190.359" xlink:href="#j" gradientUnits="userSpaceOnUse"/><linearGradient x1="353.787" x2="342.12" y1="167.674" y2="191.342" xlink:href="#k" gradientUnits="userSpaceOnUse" gradientTransform="translate(-339.088 -158.956)"/><radialGradient cx="-296.51" cy="171.442" r="12.31" xlink:href="#l" gradientUnits="userSpaceOnUse" gradientTransform="matrix(-1 0 0 1 55.359 0)" fx="-296.51" fy="171.442"/><radialGradient cx="-294.017" cy="168.652" r="14.977" xlink:href="#m" gradientUnits="userSpaceOnUse" gradientTransform="matrix(-1 0 0 1 55.359 0)" fx="-294.017" fy="168.652"/><linearGradient x1="406.135" x2="415.861" y1="179.186" y2="189.96" xlink:href="#n" gradientUnits="userSpaceOnUse"/><radialGradient cx="404.988" cy="179.222" r="15.423" xlink:href="#o" gradientUnits="userSpaceOnUse" fx="404.988" fy="179.222"/><radialGradient cx="-514.137" cy="375.896" r="13.348" xlink:href="#p" gradientUnits="userSpaceOnUse" gradientTransform="matrix(-1 0 0 -1 -106.76 554.833)" fx="-514.137" fy="375.896"/><radialGradient cx="-444.643" cy="353.562" r="12.78" xlink:href="#q" gradientUnits="userSpaceOnUse" gradientTransform="matrix(-1 0 0 -1 -39.18 532.977)" fx="-444.643" fy="353.562"/><radialGradient cx="400.543" cy="186.385" r="21.378" xlink:href="#r" gradientUnits="userSpaceOnUse" fx="400.543" fy="186.385"/><radialGradient cx="397.538" cy="168.383" r="27.542" xlink:href="#s" gradientUnits="userSpaceOnUse" fx="397.538" fy="168.383"/><radialGradient cx="412.434" cy="186.519" r="19.549" xlink:href="#t" gradientUnits="userSpaceOnUse" fx="412.434" fy="186.519"/><radialGradient cx="398.106" cy="170.164" r="10.642" xlink:href="#u" gradientUnits="userSpaceOnUse" fx="398.106" fy="170.164"/><radialGradient cx="402.146" cy="173.225" r="24.506" xlink:href="#v" gradientUnits="userSpaceOnUse" fx="402.146" fy="173.225"/><radialGradient cx="403.924" cy="186.083" r="11.063" xlink:href="#w" gradientUnits="userSpaceOnUse" fx="403.924" fy="186.083"/><radialGradient cx="402.141" cy="173.227" r="24.507" xlink:href="#x" gradientUnits="userSpaceOnUse" fx="402.141" fy="173.227"/><linearGradient x1="348.947" x2="350.709" y1="232.478" y2="226.735" xlink:href="#y" gradientUnits="userSpaceOnUse" gradientTransform="translate(-338.105 -215.788)"/><linearGradient x1="351.559" x2="350.443" y1="229.588" y2="232.071" xlink:href="#z" gradientUnits="userSpaceOnUse" gradientTransform="translate(-338.105 -215.788)"/><linearGradient x1="363.357" x2="363.611" y1="229.752" y2="232.185" xlink:href="#A" gradientUnits="userSpaceOnUse"/><linearGradient x1="361.298" x2="361.969" y1="228.375" y2="232.961" xlink:href="#B" gradientUnits="userSpaceOnUse" gradientTransform="translate(-338.105 -215.788)"/><linearGradient x1="359.353" x2="360.066" y1="230.098" y2="232.613" xlink:href="#C" gradientUnits="userSpaceOnUse" gradientTransform="translate(-338.105 -215.788)"/><linearGradient x1="352.528" x2="357.501" y1="242.266" y2="242.266" xlink:href="#D" gradientUnits="userSpaceOnUse" gradientTransform="translate(-338.105 -215.788)"/><linearGradient x1="350.864" x2="360.906" y1="243.44" y2="237.115" xlink:href="#E" gradientUnits="userSpaceOnUse" gradientTransform="translate(-338.105 -215.788)"/><linearGradient x1="353.691" x2="356.34" y1="237.999" y2="237.999" xlink:href="#F" gradientUnits="userSpaceOnUse" gradientTransform="translate(-338.105 -215.788)"/><linearGradient x1="353.82" x2="356.352" y1="230.502" y2="234.571" xlink:href="#G" gradientUnits="userSpaceOnUse" gradientTransform="translate(-338.105 -215.788)"/><linearGradient x1="353.691" x2="356.322" y1="227.746" y2="227.746" xlink:href="#H" gradientUnits="userSpaceOnUse" gradientTransform="translate(-338.105 -215.788)"/><linearGradient x1="352.85" x2="356.9" y1="221.079" y2="221.079" xlink:href="#I" gradientUnits="userSpaceOnUse" gradientTransform="translate(-338.105 -215.788)"/><linearGradient x1="351.073" x2="351.786" y1="232.443" y2="234.96" xlink:href="#J" gradientUnits="userSpaceOnUse" gradientTransform="translate(-338.105 -215.788)"/><linearGradient x1="344.775" x2="346.404" y1="232.955" y2="238.239" xlink:href="#K" gradientUnits="userSpaceOnUse" gradientTransform="translate(-338.105 -215.788)"/><linearGradient x1="358.25" x2="357.134" y1="232.596" y2="235.079" xlink:href="#L" gradientUnits="userSpaceOnUse" gradientTransform="translate(-338.105 -215.788)"/><linearGradient x1="363.394" x2="361.923" y1="233.509" y2="238.575" xlink:href="#M" gradientUnits="userSpaceOnUse" gradientTransform="translate(-338.105 -215.788)"/><linearGradient x1="350.664" x2="350.752" y1="232.24" y2="232.839" xlink:href="#N" gradientUnits="userSpaceOnUse"/><linearGradient x1="357.958" x2="358.127" y1="231.873" y2="233.03" xlink:href="#O" gradientUnits="userSpaceOnUse"/><linearGradient x1="350.256" x2="350.413" y1="231.413" y2="232.486" xlink:href="#P" gradientUnits="userSpaceOnUse"/><linearGradient x1="344.775" x2="346.404" y1="232.955" y2="238.239" xlink:href="#K" gradientUnits="userSpaceOnUse" gradientTransform="translate(-338.105 -215.788)"/></defs><sodipodi:namedview pagecolor="#ffffff" bordercolor="#666666" borderopacity="1"/><g><g><path fill="none" stroke="#320508" stroke-width="1.26.193" d="M30.77 10.5c-.07 1.1-.22 2.9-.42 4.25-.1.7-.3 1.86-.5 2.55L25.6 29.43 17.4 27.7l-.17-3.98 4.3-9.43c-.65-.47-1.6-.7-2.63-.55-1.3.17-2.43.86-2.96 1.76L10 26.14 1.77 24.4l-.46-3.8L8.5 9.9l1.9-2.67c1.77-2.12 6.1-3.4 10.86-3.03 5.85.47 10.1 3.3 9.5 6.3z"/><path fill="url(#Q)" d="M88.7 472.2c-.5-.37-1.26-.54-2.08-.44-1.04.14-1.93.7-2.35 1.4l-4.73 8.45-.2-3.07 4.8-8.58c.43-.72 1.33-1.28 2.4-1.42 1.5-.2 2.8.56 2.85 1.7 0 .17 0 .32-.04.48l-.65 1.5z" transform="matrix(1.257 0 0 1.257 -89.966 -579.408)"/><path fill="url(#R)" d="M34.72 485.07l-6.55-1.38-.12-3.17L35 481.9l-.28 3.17z" transform="matrix(1.257 0 0 1.257 -18.053 -580.451)"/><path fill="url(#S)" d="M96.03 469.2c-.06.57-.23 1.5-.4 2.06l-3.42 9.8-6.94-1.36 4-8.72c.1-.36.15-.48.13-.74-.07-1.15-1.35-1.9-2.87-1.7-1.06.13-1.97.7-2.4 1.4l-4.8 8.6-6.73-1.32 5.7-8.5 1.52-2.13c1.4-1.7 4.86-2.72 8.64-2.42 4.65.37 8.04 2.62 7.57 5.02" transform="matrix(1.257 0 0 1.257 -89.966 -579.408)"/><path fill="url(#T)" d="M23.6 476.7l-6.5-1.22-1.72 2.56 6.74 1.33 1.48-2.66z" transform="matrix(1.257 0 0 1.257 -18.053 -580.451)"/><path fill="url(#U)" d="M22.3 482.45l-.18-3.08-6.74-1.33.37 3.02 6.55 1.4z" transform="matrix(1.257 0 0 1.257 -18.053 -580.451)"/><path fill="url(#V)" d="M36 479.06l-6.7-1.27-1.25 2.73L35 481.9l1-2.84z" transform="matrix(1.257 0 0 1.257 -18.053 -580.451)"/><path fill="url(#W)" d="M96.03 469.2c0 .47-.33 1.83-.5 2.35l-3.32 9.52-.27 3.17 3.36-9.65c.16-.56.3-1.47.4-2.04.22-1.47.36-3.53.36-4" transform="matrix(1.257 0 0 1.257 -89.966 -579.408)"/><path fill="url(#X)" d="M34.72 485.07l.28-3.17 1-2.84-.3 3.16-.98 2.85z" transform="matrix(1.257 0 0 1.257 -18.053 -580.451)"/><path fill="url(#Y)" d="M22.3 482.45l-.18-3.08 1.48-2.66.12 3.25-1.42 2.5z" transform="matrix(1.257 0 0 1.257 -18.053 -580.451)"/><path fill="none" stroke="#fff" stroke-width=".50148" d="M1.3 20.45l8.45 1.66"/><path fill="none" stroke="#fff" stroke-width=".50148" d="M17.2 23.58l8.74 1.7"/><path fill="none" stroke="#d0e0e6" stroke-width=".50148" d="M9.75 22.1l1.87-3.33"/><path fill="none" stroke="#ef7916" stroke-width=".50148" d="M18.8 9.53c-1.33.18-2.47.88-3 1.8l-4.2 7.44"/><path fill="none" stroke="#f8bb80" stroke-width=".50148" d="M18.8 20.13l3.44-7.5c.14-.47.18-.63.16-.94-.08-1.46-1.7-2.42-3.6-2.17"/><path fill="none" stroke="#d0e0e6" stroke-width=".50148" d="M25.94 25.3l1.25-3.58"/><path fill="none" stroke="#ef7916" stroke-width=".50148" d="M30.75 10.37c0 .6-.42 2.3-.62 2.96l-2.94 8.4"/><path fill="none" stroke="#d0e0e6" stroke-width=".50148" d="M9.8 22.16l.17 3.82"/><path fill="none" stroke="#d0e0e6" stroke-width=".50148" d="M25.94 25.3l-.35 4"/></g></g></svg>