<svg xmlns="http://www.w3.org/2000/svg" width="24" height="24" xmlns:i="&ns_ai;" xmlns:xlink="http://www.w3.org/1999/xlink" xmlns:sodipodi="http://inkscape.sourceforge.net/DTD/sodipodi-0.dtd" sodipodi:version=".32" version="1" sodipodi:docbase="E:\dev_clean\src\houdini\support\icons\parts" sodipodi:docname="particle.svg"><defs><radialGradient id="a" cx="14.31" cy="485.416" r="4.065" gradientUnits="userSpaceOnUse" fy="485.416" fx="14.31"><stop offset="0" stop-color="#fff"/><stop offset=".685" stop-color="#2E659E"/><stop offset="1" stop-color="#1D3E63"/></radialGradient><radialGradient id="h" cx="14.31" cy="485.416" r="4.065" xlink:href="#a" gradientUnits="userSpaceOnUse" fx="14.31" fy="485.416"/><radialGradient id="b" cx="40.541" cy="486.093" r="2.869" gradientUnits="userSpaceOnUse" gradientTransform="matrix(-1 0 0 1 55.359 0)" fy="486.093" fx="40.541"><stop offset="0" stop-color="#fff"/><stop offset=".004" stop-color="#FDFDFE"/><stop offset=".107" stop-color="#C7D5E5"/><stop offset=".212" stop-color="#98B3CF"/><stop offset=".315" stop-color="#7297BD"/><stop offset=".417" stop-color="#5481B0"/><stop offset=".517" stop-color="#3F72A6"/><stop offset=".615" stop-color="#3268A0"/><stop offset=".708" stop-color="#2E659E"/><stop offset="1" stop-color="#193766"/></radialGradient><radialGradient id="g" cx="40.541" cy="486.093" r="2.869" xlink:href="#b" gradientUnits="userSpaceOnUse" gradientTransform="matrix(-1 0 0 1 55.359 0)" fx="40.541" fy="486.093"/><linearGradient id="c" x1="-165.394" x2="-170.38" y1="-93.119" y2="-104.198" gradientTransform="matrix(-.574 -.819 .819 -.574 -3.236 298.158)" gradientUnits="userSpaceOnUse"><stop offset="0" stop-color="#88A9C3"/><stop offset="1" stop-color="#fff" stop-opacity="0"/></linearGradient><linearGradient id="f" x1="-165.394" x2="-170.38" y1="-93.119" y2="-104.198" xlink:href="#c" gradientUnits="userSpaceOnUse" gradientTransform="matrix(-.574 -.819 .819 -.574 -3.236 298.158)"/><linearGradient id="d" x1="-165.82" x2="-170.229" y1="-93.99" y2="-103.786" gradientTransform="matrix(-.574 -.819 .819 -.574 -6.75 -152.536)" gradientUnits="userSpaceOnUse"><stop offset="0" stop-color="#6F87A0"/><stop offset="1" stop-color="#fff" stop-opacity="0"/></linearGradient><linearGradient id="e" x1="-165.82" x2="-170.229" y1="-93.99" y2="-103.786" xlink:href="#d" gradientUnits="userSpaceOnUse" gradientTransform="matrix(-.76 -1.768 1.768 -.76 65.898 -346.931)"/></defs><sodipodi:namedview pagecolor="#ffffff" bordercolor="#666666" borderopacity="1"/><g><g><path fill="url(#e)" d="M11.53 30.58c.9-1.13 10.6-13.73 11.75-15.15 1.1 1.06 4.1 3.54 5.1 4.52-1.12 1.2-13.8 13.47-15.05 14.8l-1.8-4.17z" i:knockout="Off" transform="translate(-9.208 -10.789)"/><g transform="matrix(1.884 .391 -.391 1.884 179.373 -918.233)"><linearGradient x1="-165.394" x2="-170.38" y1="-93.119" y2="-104.198" gradientUnits="userSpaceOnUse" gradientTransform="matrix(-.574 -.819 .819 -.574 -3.236 298.158)"><stop offset="0" stop-color="#88A9C3"/><stop offset="1" stop-color="#fff"/></linearGradient><path fill="url(#f)" d="M10.96 498.84l6.82-10.37-4.84-2.86-4.64 9.44 2.66 3.8zm-2-2.85c.34-.68 3.94-8.12 4.38-8.96.68.42 2.46 1.37 3.08 1.76-.45.73-5.6 8.3-6.1 9.13L8.96 496z" i:knockout="Off"/></g><g transform="matrix(2.202 .457 -.457 2.202 206.697 -1074.367)"><circle cx="15.3" cy="487.164" r="2.072" fill="none" stroke="#152a4c" stroke-width=".667" sodipodi:cx="15.3" sodipodi:rx="2.072" sodipodi:cy="487.164" i:knockout="Off" sodipodi:ry="2.072"/><circle cx="15.3" cy="487.164" r="2.072" fill="url(#g)" sodipodi:ry="2.072" sodipodi:rx="2.072" sodipodi:cy="487.164" sodipodi:cx="15.3" i:knockout="Off"/><g i:knockout="Off"><radialGradient cx="14.31" cy="485.416" r="4.065" gradientUnits="userSpaceOnUse" fy="485.416" fx="14.31"><stop offset="0" stop-color="#fff"/><stop offset=".685" stop-color="#2E659E"/><stop offset="1" stop-color="#1D3E63"/></radialGradient><path fill="url(#h)" d="M13.23 487.16c0 1.15.93 2.08 2.07 2.08.55 0 1.07-.22 1.46-.6.4-.4.6-.92.6-1.48 0-.55-.2-1.07-.6-1.46-.4-.4-.9-.6-1.46-.6-1.14 0-2.07.92-2.07 2.06zm.15 0c0-1.06.86-1.92 1.92-1.92.5 0 1 .2 1.36.57.36.37.56.85.56 1.36 0 .5-.2 1-.56 1.36-.36.36-.85.56-1.36.56-1.06 0-1.92-.86-1.92-1.92z" i:knockout="Off"/></g></g></g></g></svg>