<svg xmlns="http://www.w3.org/2000/svg" width="48" height="48"><g><g fill-rule="evenodd" stroke="#000" stroke-width=".5" stroke-linejoin="round"><path fill="#2e2e2e" d="M3.53 19.58l7.02-11.86-1.75 8.14-5.27 3.72z"/><path fill="#6d6d6d" d="M10.48 7.63l8.42 1.2 4.27-6.25-12.7 5.05z"/><path fill="#7a7a7a" d="M23.3 2.5l7.65 4.07 5.26-.98-12.9-3.1z"/><path fill="#767676" d="M36.07 5.52l5.12 8.42 3.07 1.68-8.2-10.1z"/><path fill="#7a7a7a" d="M44.4 15.48l-3.2-1.6 4.6 10.36-1.4-8.76z"/><path fill="#7f7f7f" d="M45.95 24.03l-6.3 3 2.45 8.7 3.85-11.7z"/><path fill="#4a4a4a" d="M42.1 35.95l-10.17 3.3 1.27 4.4 8.9-7.7z"/><path fill="#313131" d="M33.34 43.66l-1.55-4.5-10.1 5.7 11.64-1.2z"/><path d="M21.98 44.85l-8.48-2.87-2.8-2.95 11.28 5.82z"/><path d="M10.83 39.1l-5.95-6.73 2.24-4.06 3.7 10.8z"/><path d="M4.8 32.37L3.4 19.33l3.72 9.2-2.3 3.84z"/><path fill="#6e6e6e" d="M8.73 16.1l1.9-8.47 8.62 1.4L8.73 16.1z"/><path fill="#929292" d="M19.04 8.96l4.48-6.3 7.5 4.05-11.98 2.26z"/><path fill="#979797" d="M31.1 6.64l5.1-1.05 5.06 8.55-10.17-7.5z"/><path fill="#a3a3a3" d="M41.4 14.22l-1.75 12.96 6.38-2.94-4.63-10.02z"/><path fill="#7f7f7f" d="M39.86 26.97l-7.93 12.4 10.3-3.5-2.37-8.9z"/><path fill="#505050" d="M32.07 39.17L21.9 44.92 18 36.3l14.1 2.87z"/><path fill="#2d2d2d" d="M18.12 36.3l-7.15 3.08 10.87 5.47-3.72-8.55z"/><path fill="#414141" d="M17.9 36.23l-7 3.22-4.13-11.2 11.14 7.98z"/><path fill="#303030" d="M6.9 28.52l1.97-12.55-5.4 3.85 3.44 8.7z"/><path fill="#737373" d="M8.73 15.97l8.2 6.38-9.8 5.96 1.6-12.33z"/><path fill="#999" d="M8.87 16.04l10.3-7.15-2.3 13.6-8-6.46z"/><path fill="#c7c7c7" d="M19.18 8.9L31.3 6.63l-.84 9.9-11.28-7.65z"/><path fill="#cdcdcd" d="M30.46 16.53l10.8-2.6-1.54 13.46-9.26-10.87z"/><path fill="#f0f0f0" d="M30.53 16.46L19.18 8.9l-2.32 13.8 13.67-6.24z"/><path fill="#a4a4a4" d="M16.8 22.42l1.18 13.88 10.1-7.3-11.3-6.58z"/><path fill="#9f9f9f" d="M28.08 29.08l4 10.23 7.85-12.4-11.85 2.18z"/><path fill="#fff" d="M28 29.15l2.4-12.76 9.32 11-11.7 1.75z"/><path fill="#c0c0c0" d="M41.3 13.97l-10.1-7.3-.7 10.03 10.8-2.73z"/><path fill="#fff" d="M28.15 29.38l2.34-13-13.7 5.94 11.35 7.06z"/><path fill="#757575" d="M16.86 22.28l1.2 13.95-11.08-7.78 9.88-6.17z"/><path fill="#868686" d="M18.02 36.16l10.16-6.94 3.93 10.23-14.08-3.3z"/></g></g></svg>