<svg xmlns="http://www.w3.org/2000/svg" width="48" height="48" xmlns:xlink="http://www.w3.org/1999/xlink"><defs><linearGradient><stop offset="0" stop-color="#fedba7"/><stop offset="1" stop-color="#fdbf64"/></linearGradient><linearGradient id="a"><stop offset="0" stop-color="#ffe681"/><stop offset="1" stop-color="#f60"/></linearGradient><radialGradient id="b" cx="-4.789" cy="-4.426" r="21.26" xlink:href="#a" gradientUnits="userSpaceOnUse" gradientTransform="matrix(.684 .599 -.659 .752 -4.432 1.772)" fx="-4.789" fy="-4.426"/><radialGradient cx="-4.789" cy="-4.426" r="21.26" xlink:href="#a" gradientUnits="userSpaceOnUse" gradientTransform="matrix(.684 .599 -.659 .752 -4.432 1.772)" fx="-4.789" fy="-4.426"/><radialGradient id="c" cx="-4.789" cy="-4.426" r="21.26" xlink:href="#a" gradientUnits="userSpaceOnUse" gradientTransform="matrix(.684 .599 -.659 .752 -4.432 1.772)" fx="-4.789" fy="-4.426"/></defs><g><path fill="#2e2e2e" fill-rule="evenodd" stroke="#000" d="M-43.92 47.83l7.03-11.86-1.75 8.14-5.27 3.73z" stroke-linejoin="round"/><path fill="#6d6d6d" fill-rule="evenodd" stroke="#000" d="M-36.96 35.87l8.4 1.2 4.28-6.25-12.68 5.05z" stroke-linejoin="round"/><path fill="#7a7a7a" fill-rule="evenodd" stroke="#000" d="M-24.14 30.75l7.64 4.07 5.26-.98-12.9-3.1z" stroke-linejoin="round"/><path fill="#767676" fill-rule="evenodd" stroke="#000" d="M-11.38 33.77l5.12 8.4 3.08 1.7-8.2-10.1z" stroke-linejoin="round"/><path fill="#7a7a7a" fill-rule="evenodd" stroke="#000" d="M-3.04 43.72l-3.22-1.6 4.63 10.36-1.4-8.76z" stroke-linejoin="round"/><path fill="#7f7f7f" fill-rule="evenodd" stroke="#000" d="M-1.5 52.27l-6.3 3.02 2.45 8.68 3.86-11.7z" stroke-linejoin="round"/><path fill="#4a4a4a" fill-rule="evenodd" stroke="#000" d="M-5.35 64.2l-10.16 3.3 1.25 4.4 8.9-7.7z" stroke-linejoin="round"/><path fill="#313131" fill-rule="evenodd" stroke="#000" d="M-14.1 71.9l-1.55-4.5-10.1 5.7 11.64-1.2z" stroke-linejoin="round"/><path fill-rule="evenodd" stroke="#000" d="M-25.47 73.1l-8.48-2.88-2.8-2.95 11.28 5.82z" stroke-linejoin="round"/><path fill-rule="evenodd" stroke="#000" d="M-36.6 67.34l-5.97-6.72 2.24-4.07 3.72 10.8z" stroke-linejoin="round"/><path fill-rule="evenodd" stroke="#000" d="M-42.64 60.62l-1.4-13.04 3.7 9.18-2.3 3.86z" stroke-linejoin="round"/><path fill="#6e6e6e" fill-rule="evenodd" stroke="#000" d="M-38.72 44.35l1.9-8.48 8.62 1.4-10.52 7.08z" stroke-linejoin="round"/><path fill="#929292" fill-rule="evenodd" stroke="#000" d="M-28.4 37.2l4.47-6.3 7.5 4.06-11.98 2.24z" stroke-linejoin="round"/><path fill="#979797" fill-rule="evenodd" stroke="#000" d="M-16.35 34.9l5.1-1.06 5.06 8.55-10.15-7.5z" stroke-linejoin="round"/><path fill="#a3a3a3" fill-rule="evenodd" stroke="#000" d="M-6.05 42.46L-7.8 55.43l6.38-2.95-4.63-10.02z" stroke-linejoin="round"/><path fill="#7f7f7f" fill-rule="evenodd" stroke="#000" d="M-7.6 55.22l-7.9 12.4 10.3-3.5-2.4-8.9z" stroke-linejoin="round"/><path fill="#505050" fill-rule="evenodd" stroke="#000" d="M-15.37 67.4l-10.17 5.76-3.92-8.62 14.1 2.87z" stroke-linejoin="round"/><path fill="#2d2d2d" fill-rule="evenodd" stroke="#000" d="M-29.32 64.54l-7.15 3.1 10.86 5.45-3.72-8.56z" stroke-linejoin="round"/><path fill="#414141" fill-rule="evenodd" stroke="#000" d="M-29.53 64.47l-7 3.23-4.15-11.22 11.15 8z" stroke-linejoin="round"/><path fill="#303030" fill-rule="evenodd" stroke="#000" d="M-40.54 56.76l1.96-12.55-5.4 3.87 3.44 8.7z" stroke-linejoin="round"/><path fill="#737373" fill-rule="evenodd" stroke="#000" d="M-38.72 44.2l8.2 6.4-9.8 5.95 1.6-12.34z" stroke-linejoin="round"/><path fill="#999" fill-rule="evenodd" stroke="#000" d="M-38.58 44.28l10.3-7.15-2.3 13.6-8-6.45z" stroke-linejoin="round"/><path fill="#c7c7c7" fill-rule="evenodd" stroke="#000" d="M-28.27 37.13l12.13-2.24-.85 9.87-11.27-7.64z" stroke-linejoin="round"/><path fill="#cdcdcd" fill-rule="evenodd" stroke="#000" d="M-17 44.77l10.8-2.6-1.53 13.47L-17 44.77z" stroke-linejoin="round"/><path fill="#f0f0f0" fill-rule="evenodd" stroke="#000" d="M-16.92 44.7l-11.35-7.57-2.32 13.8 13.68-6.23z" stroke-linejoin="round"/><path fill="#a4a4a4" fill-rule="evenodd" stroke="#000" d="M-30.66 50.66l1.2 13.88 10.1-7.3-11.3-6.58z" stroke-linejoin="round"/><path fill="#9f9f9f" fill-rule="evenodd" stroke="#000" d="M-19.37 57.32l4 10.24 7.85-12.4-11.85 2.16z" stroke-linejoin="round"/><path fill="#fff" fill-rule="evenodd" stroke="#000" d="M-19.44 57.4l2.38-12.77 9.33 11-11.7 1.76z" stroke-linejoin="round"/><path fill="#c0c0c0" fill-rule="evenodd" stroke="#000" d="M-6.16 42.2l-10.1-7.28-.7 10.03 10.8-2.74z" stroke-linejoin="round"/><path fill="#fff" fill-rule="evenodd" stroke="#000" d="M-19.3 57.62l2.34-13-13.7 5.94 11.36 7.06z" stroke-linejoin="round"/><path fill="#757575" fill-rule="evenodd" stroke="#000" d="M-30.6 50.52l1.2 13.95-11.07-7.78 9.88-6.18z" stroke-linejoin="round"/><path fill="#868686" fill-rule="evenodd" stroke="#000" d="M-29.43 64.4l10.17-6.94 3.92 10.24-14.1-3.3z" stroke-linejoin="round"/><path fill="none" stroke="#000" d="M-36.25-18.7l13-5 12.9 3.08 8.12 9.96 1.4 8.55-3.5 11.5-8.7 7.7-11.77 1.12-8.27-2.8-2.67-2.67-5.5-6.45-1.65-13.46 6.65-11.54z" stroke-linejoin="round"/><g><path fill="url(#b)" fill-rule="evenodd" d="M23.97 2a20.75 20.75 0 1 1-41.5 0 20.75 20.75 0 1 1 41.5 0z" transform="matrix(1.007 0 0 1.007 63.965 -15.163)" color="#000" overflow="visible"/><path fill="none" stroke="#000" stroke-width=".5" d="M46.2-17.56l7-11.86-1.74 8.14-5.27 3.72z" stroke-linejoin="round"/><path fill="none" stroke="#000" stroke-width=".5" d="M53.14-29.52l8.4 1.2 4.3-6.25-12.7 5.05z" stroke-linejoin="round"/><path fill="none" stroke="#000" stroke-width=".5" d="M65.97-34.64l7.64 4.07 5.27-.98-12.9-3.1z" stroke-linejoin="round"/><path fill="none" stroke="#000" stroke-width=".5" d="M78.73-31.62l5.1 8.4 3.1 1.7-8.2-10.1z" stroke-linejoin="round"/><path fill="none" stroke="#000" stroke-width=".5" d="M87.07-21.67l-3.23-1.6 4.63 10.37-1.4-8.77z" stroke-linejoin="round"/><path fill="none" stroke="#000" stroke-width=".5" d="M88.6-13.1l-6.3 3 2.46 8.7 3.85-11.7z" stroke-linejoin="round"/><path fill="none" stroke="#000" stroke-width=".5" d="M84.76-1.2L74.6 2.1l1.25 4.4 8.9-7.7z" stroke-linejoin="round"/><path fill="none" stroke="#000" stroke-width=".5" d="M76 6.5l-1.55-4.47-10.1 5.68L76 6.5z" stroke-linejoin="round"/><path fill="none" stroke="#000" stroke-width=".5" d="M64.64 7.7l-8.5-2.87-2.8-2.94 11.3 5.8z" stroke-linejoin="round"/><path fill="none" stroke="#000" stroke-width=".5" d="M53.5 1.96l-5.97-6.73 2.25-4.07 3.7 10.8z" stroke-linejoin="round"/><path fill="none" stroke="#000" stroke-width=".5" d="M47.46-4.77l-1.4-13.04 3.72 9.17-2.32 3.86z" stroke-linejoin="round"/><path fill="none" stroke="#000" stroke-width=".5" d="M51.4-21.04l1.88-8.48 8.62 1.4-10.5 7.08z" stroke-linejoin="round"/><path fill="none" stroke="#000" stroke-width=".5" d="M61.7-28.2l4.48-6.3 7.5 4.07-12 2.24z" stroke-linejoin="round"/><path fill="none" stroke="#000" stroke-width=".5" d="M73.75-30.5l5.12-1.05L83.9-23l-10.15-7.5z" stroke-linejoin="round"/><path fill="none" stroke="#000" stroke-width=".5" d="M84.05-22.93L82.3-9.96l6.38-2.94-4.63-10.03z" stroke-linejoin="round"/><path fill="none" stroke="#000" stroke-width=".5" d="M82.5-10.17l-7.9 12.4 10.3-3.5-2.4-8.9z" stroke-linejoin="round"/><path fill="none" stroke="#000" stroke-width=".5" d="M74.73 2.03L64.57 7.78 60.64-.85l14.1 2.88z" stroke-linejoin="round"/><path fill="none" stroke="#000" stroke-width=".5" d="M60.78-.85l-7.15 3.1L64.5 7.7 60.78-.84z" stroke-linejoin="round"/><path fill="none" stroke="#000" stroke-width=".5" d="M60.57-.92l-7 3.23L49.4-8.9 60.57-.93z" stroke-linejoin="round"/><path fill="none" stroke="#000" stroke-width=".5" d="M49.57-8.63l1.96-12.55-5.4 3.86 3.44 8.7z" stroke-linejoin="round"/><path fill="none" stroke="#000" stroke-width=".5" d="M51.4-21.18l8.2 6.38-9.82 5.96 1.6-12.34z" stroke-linejoin="round"/><path fill="none" stroke="#000" stroke-width=".5" d="M51.53-21.1l10.3-7.16-2.3 13.6-8-6.45z" stroke-linejoin="round"/><path fill="none" stroke="#000" stroke-width=".5" d="M61.83-28.26l12.13-2.24-.84 9.88-11.3-7.64z" stroke-linejoin="round"/><path fill="none" stroke="#000" stroke-width=".5" d="M73.12-20.62l10.8-2.6-1.55 13.47-9.25-10.87z" stroke-linejoin="round"/><path fill="none" stroke="#000" stroke-width=".5" d="M73.2-20.7l-11.37-7.56-2.3 13.8 13.66-6.23z" stroke-linejoin="round"/><path fill="none" stroke="#000" stroke-width=".5" d="M59.45-14.73l1.2 13.88 10.1-7.3-11.3-6.58z" stroke-linejoin="round"/><path fill="none" stroke="#000" stroke-width=".5" d="M70.74-8.07l4 10.24 7.84-12.4-11.84 2.16z" stroke-linejoin="round"/><path fill="none" stroke="#000" stroke-width=".5" d="M70.67-8l2.38-12.76 8.97 10.48L70.67-8z" stroke-linejoin="round"/><path fill="none" stroke="#000" stroke-width=".5" d="M83.95-23.17l-10.1-7.3-.7 10.03 10.8-2.73z" stroke-linejoin="round"/><path fill="none" stroke="#000" stroke-width=".5" d="M70.8-7.77l2.34-13-13.7 5.94L70.8-7.77z" stroke-linejoin="round"/><path fill="none" stroke="#000" stroke-width=".5" d="M59.52-14.87l1.2 13.95L49.63-8.7l9.88-6.17z" stroke-linejoin="round"/><path fill="none" stroke="#000" stroke-width=".5" d="M60.68-1l10.16-6.93L74.77 2.3 60.67-1z" stroke-linejoin="round"/><path fill="none" stroke="#000" d="M52.96-29.3l13-5 12.9 3.08 8.12 9.95 1.4 8.56-3.5 11.48-8.7 7.7L64.4 7.63l-8.26-2.8-2.67-2.67-5.5-6.45-1.65-13.46 6.64-11.54z" stroke-linejoin="round"/></g><g fill-rule="evenodd" stroke="#000" stroke-width=".5" stroke-linejoin="round"><path fill="#2e2e2e" d="M51.65 48.3l7.02-11.87-1.75 8.14-5.27 3.72z"/><path fill="#6d6d6d" d="M58.6 36.33l8.4 1.2 4.3-6.25-12.7 5.05z"/><path fill="#7a7a7a" d="M71.43 31.2l7.64 4.08 5.26-.98-12.9-3.1z"/><path fill="#767676" d="M84.2 34.23l5.1 8.4 3.1 1.7-8.2-10.1z"/><path fill="#7a7a7a" d="M92.53 44.18l-3.22-1.6 4.63 10.37-1.4-8.77z"/><path fill="#7f7f7f" d="M94.07 52.73l-6.3 3.02 2.45 8.7 3.85-11.72z"/><path fill="#4a4a4a" d="M90.22 64.65l-10.17 3.3 1.26 4.4 8.92-7.7z"/><path fill="#313131" d="M81.45 72.36l-1.54-4.48-10.08 5.67 11.63-1.2z"/><path d="M70.1 73.55l-8.48-2.87-2.8-2.94 11.28 5.8z"/><path d="M58.95 67.8L53 61.1 55.23 57l3.7 10.8z"/><path d="M52.92 61.08l-1.4-13.04 3.72 9.18-2.32 3.86z"/><path fill="#6e6e6e" d="M56.85 44.8l1.9-8.47 8.6 1.4-10.5 7.08z"/><path fill="#929292" d="M67.15 37.66l4.5-6.3 7.5 4.06-12 2.24z"/><path fill="#979797" d="M79.2 35.35l5.13-1.05 5.05 8.55-10.17-7.5z"/><path fill="#a3a3a3" d="M89.52 42.92L87.76 55.9l6.38-2.95-4.62-10.03z"/><path fill="#7f7f7f" d="M87.97 55.68l-7.92 12.4 10.3-3.5-2.38-8.9z"/><path fill="#505050" d="M80.2 67.88l-10.17 5.74L66.1 65l14.1 2.88z"/><path fill="#2d2d2d" d="M66.24 65l-7.15 3.1 10.86 5.45L66.24 65z"/><path fill="#414141" d="M66.03 64.93l-7 3.23-4.14-11.22 11.13 8z"/><path fill="#303030" d="M55.03 57.22L57 44.67l-5.4 3.86 3.43 8.7z"/><path fill="#737373" d="M56.85 44.67l8.2 6.38-9.8 5.96 1.6-12.33z"/><path fill="#999" d="M57 44.74l10.3-7.15-2.32 13.6-8-6.46z"/><path fill="#c7c7c7" d="M67.3 37.6l12.12-2.25-.84 9.88-11.3-7.64z"/><path fill="#cdcdcd" d="M78.58 45.23l10.8-2.6-1.55 13.47-9.25-10.87z"/><path fill="#f0f0f0" d="M78.65 45.16L67.3 37.6l-2.32 13.8 13.67-6.24z"/><path fill="#a4a4a4" d="M64.9 51.12L66.1 65l10.1-7.3-11.3-6.58z"/><path fill="#9f9f9f" d="M76.2 57.78l4 10.24 7.84-12.4-11.84 2.16z"/><path fill="#fff" d="M76.13 57.85L78.5 45.1l9.33 11-11.7 1.75z"/><path fill="#c0c0c0" d="M89.4 42.68l-10.08-7.3-.7 10.03 10.8-2.72z"/><path fill="#fff" d="M76.26 58.08l2.34-13-13.7 5.94 11.36 7.06z"/><path fill="#757575" d="M64.98 50.98l1.2 13.95-11.08-7.78 9.88-6.17z"/><path fill="#868686" d="M66.14 64.86l10.16-6.94 3.93 10.24-14.1-3.3z"/></g><path fill="url(#c)" fill-rule="evenodd" d="M23.97 2a20.75 20.75 0 1 1-41.5 0 20.75 20.75 0 1 1 41.5 0z" transform="matrix(1.007 0 0 1.007 20.813 22.18)" color="#000" overflow="visible"/><g fill="none" stroke="#8b3b00"><path d="M3.03 19.78l7.03-11.86-1.75 8.14-5.27 3.72z"/><path d="M10 7.82l8.4 1.2 4.28-6.24-12.7 5.04z"/><path d="M22.82 2.7l7.64 4.07 5.25-.98-12.88-3.1z"/><path d="M35.57 5.72l5.12 8.4 3.08 1.7-8.2-10.1z"/><path d="M43.92 15.68l-3.23-1.62 4.62 10.38-1.4-8.76z"/><path d="M45.46 24.23l-6.3 3 2.44 8.7 3.86-11.7z"/><path d="M41.6 36.15l-10.16 3.3 1.26 4.4 8.9-7.7z"/><path d="M32.84 43.86l-1.54-4.5-10.1 5.7 11.64-1.2z"/><path d="M21.48 45.05L13 42.17l-2.8-2.94 11.28 5.82z"/><path d="M10.34 39.3l-5.96-6.73 2.24-4.07 3.72 10.8z"/><path d="M4.3 32.57L2.9 19.53l3.72 9.2-2.3 3.84z"/><path d="M8.24 16.3l1.9-8.48 8.6 1.4-10.5 7.1z"/><path d="M18.54 9.16l4.5-6.3 7.5 4.05-12 2.26z"/><path d="M30.6 6.84l5.1-1.05 5.06 8.54-10.16-7.5z"/><path d="M40.9 14.4L39.15 27.4l6.38-2.94L40.9 14.4z"/><path d="M39.36 27.17l-7.92 12.4 10.3-3.5-2.38-8.9z"/><path d="M31.58 39.37L21.4 45.12l-3.9-8.62 14.08 2.87z"/><path d="M17.63 36.5l-7.15 3.08 10.86 5.47-3.7-8.55z"/><path d="M17.42 36.43l-7 3.22-4.15-11.22 11.15 8z"/><path d="M6.4 28.72L8.4 16.17l-5.4 3.85 3.43 8.7z"/><path d="M8.24 16.17l8.2 6.38-9.82 5.95 1.62-12.33z"/><path d="M8.38 16.24l10.3-7.15-2.3 13.6-8-6.46z"/><path d="M18.68 9.1L30.8 6.83l-.83 9.9-11.3-7.65z"/><path d="M29.97 16.73l10.8-2.6L39.2 27.6l-9.25-10.87z"/><path d="M30.04 16.66L18.68 9.1l-2.3 13.8 13.66-6.24z"/><path d="M16.3 22.62l1.2 13.88 10.08-7.3-11.28-6.58z"/><path d="M27.58 29.28l4 10.23 7.85-12.4-11.85 2.18z"/><path d="M27.5 29.35l2.4-12.76 8.97 10.46-11.36 2.3z"/><path d="M40.8 14.17l-10.1-7.3L30 16.9l10.8-2.73z"/><path d="M27.65 29.57l2.34-13-13.7 5.95 11.35 7.05z"/><path d="M16.37 22.48l1.2 13.95-11.1-7.78 9.9-6.17z"/><path d="M17.52 36.36l10.17-6.94 3.9 10.23-14.08-3.3z"/></g><path fill="none" stroke="#000" d="M9.98 8.22l13-5 12.9 3.08L44 16.25l1.4 8.56-3.5 11.5-8.7 7.7-11.77 1.14-8.27-2.8-2.66-2.67-5.52-6.45-1.63-13.46L9.98 8.22z" stroke-linejoin="round"/></g></svg>