<svg xmlns="http://www.w3.org/2000/svg" width="48" height="48" xmlns:xlink="http://www.w3.org/1999/xlink"><defs><linearGradient id="d"><stop offset="0" stop-opacity=".523"/><stop offset="1" stop-opacity="0"/></linearGradient><linearGradient id="c"><stop offset="0" stop-color="#e9b96e"/><stop offset="1"/></linearGradient><linearGradient id="b"><stop offset="0"/><stop offset="1" stop-opacity="0"/></linearGradient><linearGradient id="a"><stop offset="0"/><stop offset="1" stop-color="#fff007"/></linearGradient><linearGradient><stop offset="0" stop-color="#f3bf6c"/><stop offset="1" stop-color="#c17d11"/></linearGradient><linearGradient id="e" x1="-10.824" x2="-10.571" y1="14.617" y2="23.571" xlink:href="#a" gradientUnits="userSpaceOnUse"/><linearGradient id="f" x1="20.643" x2="27.714" y1="33.929" y2="40.786" xlink:href="#b" gradientUnits="userSpaceOnUse"/><radialGradient id="g" cx="14.777" cy="25.114" r="12.123" xlink:href="#c" fx="14.777" fy="25.114" gradientTransform="matrix(.236 .054 -.331 1.456 22.641 -9.724)" gradientUnits="userSpaceOnUse"/><radialGradient cx="35.658" cy="34.565" r="6.92" xlink:href="#d" fx="35.658" fy="34.565" gradientTransform="matrix(1 0 0 .299 0 24.221)" gradientUnits="userSpaceOnUse"/><radialGradient id="h" cx="38.253" cy="32.346" r="6.92" xlink:href="#d" gradientUnits="userSpaceOnUse" gradientTransform="matrix(1.518 -.04 .013 .495 -20.019 19.635)" fx="38.253" fy="32.346"/></defs><g><path fill-opacity=".251" fill-rule="evenodd" d="M.3 47.6c15.78-4.74 30-4.57 47.4 0L37.26 29.23c-9.27-2.34-18.48-2.53-27.22 0L.3 47.6z"/><path fill="#d3d7cf" fill-rule="evenodd" stroke="#555753" d="M.3 44.94c15.78-4.72 30-4.56 47.4 0L37.26 26.6c-9.27-2.34-18.48-2.53-27.22 0L.3 44.93z" stroke-linejoin="round"/><path fill="none" stroke="#fff" stroke-opacity=".502" d="M2.28 43.3c14.26-4.03 27.4-3.7 43.4.04L36.65 27.5c-8.68-2.2-18.17-2.38-25.98-.04L2.28 43.3z"/></g><g><path fill="none" stroke="#fff" stroke-opacity=".502" stroke-width="3" d="M38.18 2.4v9.68" stroke-linecap="round"/><path fill="url(#e)" fill-rule="evenodd" stroke="#764a00" stroke-width=".5" d="M-10.78 23.46l-.45-13.7c.18-.63 1.2-.62 1.4.04l.2 13.8c-.3.5-1.12.35-1.15-.14z"/><path fill="url(#f)" fill-rule="evenodd" d="M17.2 36c.3 0 11.16 4.8 11.16 4.8l3.93-2.94-8.94-6.36L17.2 36z"/><path fill="url(#g)" fill-rule="evenodd" stroke="#8f5902" d="M15.36 33.14c1.67-10.4 1.04-20.3 21.93-31.2.58-.5 1.48-.18 1.27.56C24.7 10.95 20.4 20.8 23.37 33c-2.23 3.8-7.64 3.38-8 .14z"/><path fill="#babdb6" fill-rule="evenodd" stroke="#000" d="M33.34 14.48l-5 11.8 3.27 3.32 14.8-.57-2.8-12.53-2.64-2.12-7.62.1z"/><path fill="#fff" fill-rule="evenodd" d="M33.73 14.9l1.44 2.1 7.87-.3-2.26-1.9-7.05.1z"/><path fill="#d3d7cf" fill-rule="evenodd" d="M29 26.12l2.84 3.03 3.45-12.13-1.67-2.2L29 26.13z"/><path fill="url(#h)" fill-rule="evenodd" d="M42.82 36.68c-1.4.3-3 .54-4.7.66-5.97.42-10.9-.7-11.03-2.47-.14-1.8 4.6-3.57 10.55-4 .88-.05 1.73-.08 2.55-.08" overflow="visible" enable-background="accumulate"/><path fill="#babdb6" fill-rule="evenodd" stroke="#2e3436" stroke-width="1.148" d="M36.37 15.37c-.94-.53-1.56-1.53-1.56-2.72 0-1.83 1.5-3.42 3.34-3.54 1.84-.1 3.33 1.3 3.33 3.12 0 1.2-.63 2.3-1.58 2.94m-.6-2.8c0 .64-.53 1.18-1.16 1.22-.63.05-1.15-.43-1.15-1.07 0-.62.5-1.17 1.14-1.2.63-.05 1.15.43 1.15 1.06z" stroke-linecap="round" overflow="visible" enable-background="accumulate"/><path fill="none" stroke="#000" d="M38.23 2.38v9.67" stroke-linecap="round"/></g></svg>