<svg xmlns="http://www.w3.org/2000/svg" width="48" height="48" xmlns:xlink="http://www.w3.org/1999/xlink"><defs><linearGradient id="e"><stop offset="0" stop-color="#e9b96e" stop-opacity="0"/><stop offset=".5" stop-color="#e9b96e"/><stop offset="1" stop-color="#e9b96e" stop-opacity="0"/></linearGradient><linearGradient id="d"><stop offset="0" stop-color="#905d0d"/><stop offset="1" stop-color="#c17d11"/></linearGradient><linearGradient id="c"><stop offset="0" stop-color="#b3baac"/><stop offset=".5" stop-color="#fff"/><stop offset="1" stop-color="#a3ac9b"/></linearGradient><linearGradient id="b"><stop offset="0" stop-color="#d3d7cf"/><stop offset="1" stop-color="#d3d7cf" stop-opacity="0"/></linearGradient><linearGradient id="a"><stop offset="0" stop-color="#fff"/><stop offset=".232" stop-color="#c6c6c6"/><stop offset=".333" stop-color="#999"/><stop offset=".5" stop-color="#fff"/><stop offset=".633" stop-color="#bbb"/><stop offset=".76" stop-color="#f0f0f0"/><stop offset=".908" stop-color="#c0c0c0"/><stop offset="1" stop-color="#ebebeb"/></linearGradient><linearGradient x1="7.113" x2="40.758" y1="42.219" y2="12.621" xlink:href="#a" gradientUnits="userSpaceOnUse" gradientTransform="matrix(1.02 0 0 1.02 -.48 -.469)"/><linearGradient x1="19.748" x2="13.89" y1="29.514" y2="46.939" xlink:href="#b" gradientUnits="userSpaceOnUse"/><linearGradient x1="22.136" x2="23.635" y1="2.342" y2="2.241" xlink:href="#c" gradientUnits="userSpaceOnUse"/><linearGradient x1="22.136" x2="23.635" y1="2.342" y2="2.241" xlink:href="#c" gradientUnits="userSpaceOnUse"/><linearGradient x1="7.113" x2="40.758" y1="42.219" y2="12.621" xlink:href="#a" gradientUnits="userSpaceOnUse" gradientTransform="matrix(1.02 0 0 1.02 -.48 -.469)"/><linearGradient x1="19.748" x2="13.89" y1="29.514" y2="46.939" xlink:href="#b" gradientUnits="userSpaceOnUse"/><linearGradient id="h" x1="19.748" x2="13.89" y1="29.514" y2="46.939" xlink:href="#b" gradientUnits="userSpaceOnUse" gradientTransform="matrix(.907 .265 -.265 .907 14.24 -5.935)"/><linearGradient id="g" x1="22.136" x2="23.635" y1="2.342" y2="2.241" xlink:href="#c" gradientUnits="userSpaceOnUse" gradientTransform="matrix(.907 .265 -.265 .907 14.24 -5.935)"/><linearGradient id="f" x1="7.113" x2="40.758" y1="42.219" y2="12.621" xlink:href="#a" gradientUnits="userSpaceOnUse" gradientTransform="matrix(.964 .469 -.469 .964 14.028 -8.642)"/><radialGradient id="i" cx=".929" cy="52.64" r="15.655" xlink:href="#d" fx=".929" fy="52.64" gradientTransform="matrix(1.402 .745 -.472 .888 24.088 .937)" gradientUnits="userSpaceOnUse"/><linearGradient id="j" x1="5.152" x2="8.283" y1="49.162" y2="44.515" xlink:href="#e" gradientUnits="userSpaceOnUse" gradientTransform="matrix(1.179 .137 -.122 1.074 2.518 -4.425)"/></defs><g><g color="#000"><path fill="#fff" stroke="#000" stroke-width=".5013000000000001" d="M40.57 12.63l-.53-.96c.05-.5.7-.98 1.35-.84l.72.85z" stroke-linecap="round" overflow="visible" enable-background="accumulate"/><path stroke="#000" stroke-width=".9.113" d="M45 11.72c-.22-.05-.45-.07-.67-.08-.87-.02-2 .2-2.75.6-1.64.87-1.86 3.75-2.68 4.32-2.16 1.5-7.63 3.65-7.63 3.65l-3.23.37-17.5 15.08-.02.94 19.76-13.62c0-.03.05-.06.07-.08 2.7-1.84 8-4.83 9.64-4.95.65-.04 1.72.5 3.1.72 1.3.2 2.7-.42 3.28-1.03.53-.55 1.15-.98 1.3-2 .22-1.53-.64-2.9-1.66-3.48l.05.06c-.35-.25-.7-.42-1.08-.5zm-.17 1.16c.53.1 1.04.3 1.42.68.52.52.66 1.6.42 2.33 0 0 0 .03 0 .05-.5.74-1.34 1.34-2.38 1.6-1.17.3-2.3.1-3.07-.46l.17.04c-.42-.42-.72-1-.7-1.42 0-1 .73-2.18 1.7-2.6.6-.23 1.55-.4 2.43-.24z" stroke-linecap="round" overflow="visible" enable-background="accumulate"/><path fill="#888a85" d="M41.4 17.16c-.4-.42-.73-1-.72-1.44 0-1 .76-2.17 1.75-2.6.92-.37 2.8-.56 3.82.44.62.6.7 2.02.26 2.67l.78-1.43-.5-1.73L45.43 12l-2.42-.12-2.22 1.24-1.04 2.2.42 1.35z" overflow="visible" enable-background="accumulate"/><path fill="#555753" d="M30.36 22.9c2.7-1.84 8-4.85 9.64-4.96.66-.04 1.73.52 3.1.73 1.3.2 2.7-.4 3.3-1 .52-.57 1.14-1 1.3-2.05.2-1.52-.65-2.88-1.68-3.48l1.05 1.5.2 1.4-.6 1.4-1.33 1.03-1.9.46-2-.35-1.7-.6-8.94 4.2z" overflow="visible" enable-background="accumulate"/><path fill="url(#f)" d="M44.93 20.3c-.92-.32-2.18-.45-3.1-.26-2.04.4-3.22 3.4-4.26 3.75-2.8.9-9.3 1.42-9.3 1.42l-3.57-.65L1.2 35.02l-.32 1 25.43-8.17c1.53-1.37 9.26-2.84 11.8-2.8.96.02 3.06 2.45 6 2.1 2.43-.3 3.8-2.68 3-4.76-.43-1.16-1.24-1.8-2.17-2.1zm-.1.43c1.36.52 2.3 1.66 2.22 2.94-.1 1.7-1.92 3-4.06 2.9-2.14-.1-3.78-1.54-3.68-3.24.1-1.7 1.9-3 4.03-2.92.53.04 1.03.15 1.48.33z" overflow="visible" enable-background="accumulate" transform="matrix(.86 -.26 .259 .86 .422 5.847)"/><path fill="#888a85" d="M31.24 20.18l.32 1.52s.34-.55.2-1.03c-.07-.34-.52-.5-.52-.5z" overflow="visible" enable-background="accumulate"/><path fill="#babdb6" d="M30.06 23.1l-.82-1.5 1.12 1.25z" overflow="visible" enable-background="accumulate"/></g><path fill="url(#g)" stroke="#2e3436" stroke-width=".5" d="M33.48.57c.36 1.82-.1 2.72-.34 3.85l1.4.36c-.04-1.2.56-2.42 1.4-3.64-.9-1-1.7-.95-2.46-.57z" color="#000" stroke-linecap="round" overflow="visible" enable-background="accumulate"/><path fill="#555753" stroke="#2e3436" d="M34.95 4.84c-.2.1-.46-.1-.7-.14-2.42-.57-3.84 1.6-4.15 2.48-.06.17-.1.34-.12.5-.64 1.43 1.05 3.75.94 4.83-.75 2.1-1.54 3.8-2.3 5.35l-4.78 7.08-9.68 15.83h.82l.2-.24 14.53-18.3-.02-3.74L31.55 14c.5-1.2 1.2-2.03 2.18-2.4 1.4-.52 2.45-1.17 2.94-2.43.7-1.85-.5-4.07-1.72-4.33zm-.8.9c.46.08.86.3 1.14.52.8.65.77 1.86.77 1.86l.08-.2c-.08.64-.38 1.27-.9 1.78-1.17 1.16-2.98 1.25-4.07.22-.44-.42-.67-.97-.74-1.54l.33.9s-.25-.76-.02-1.43c.37-1.08 1.23-1.72 1.96-1.97.5-.18 1-.22 1.46-.14z" color="#000" stroke-linecap="round" overflow="visible" enable-background="accumulate"/><path fill="#555753" d="M29.93 7.44l.57 2.16 1.4 1.46 2.43-.44 1.6-1.4c.25-.68.67-1.75.32-2.57-.46-1.1-1.75-1.9-1.3-1.8 1.2.26 2.44 2.46 1.73 4.3-.5 1.27-1.55 1.92-2.95 2.44-.98.36-1.67 1.2-2.17 2.4l-1.87 4.47v3.76L15 40.73l14-22.86 1.82-5c.66-1.67-1.7-3.26-.9-5.43z" color="#000" overflow="visible" enable-background="accumulate"/><path fill="#888a85" d="M30.75 9.3l-.6-1.7.98-1.84 1.76-1 1.77.16 1.3 1.1.38 1.47-.28.62s.02-1.22-.8-1.88c-.54-.45-1.56-.72-2.57-.37-.73.25-1.58.88-1.95 1.96-.23.68 0 1.47 0 1.47z" color="#000" overflow="visible" enable-background="accumulate"/><path fill="#fff" d="M34.24 4.7c-2.4-.57-3.83 1.6-4.14 2.48-.32.87-.02 1.8-.02 1.8l1.25 2.36c-.9 2.65-1.8 4.68-2.72 6.5l-4.76 7.1-9.68 15.82h.82L29.3 21.68l-.2-3.54s1.57-3.46 2.62-5.8c.43-.96 1.85-1.26 3-1.85.76-.4 1.43-1.13 1.67-1.88.23-.76.25-3.35-2.16-3.92zm.25.44c.33.12.65.3.92.56 1.1 1.04 1 2.83-.16 4-1.18 1.16-3 1.25-4.08.22-1.1-1.04-1.05-2.82.13-3.98.9-.88 2.16-1.15 3.2-.8z" color="#000" overflow="visible" enable-background="accumulate"/><path fill="#d3d7cf" stroke="#888a85" stroke-width="1.892" d="M27.73 9.3a3.8 4.07 0 1 1-7.58 0 3.8 4.07 0 1 1 7.58 0z" transform="matrix(.192 .18 -.19 .186 23.308 17.779)" color="#000" stroke-linecap="round" overflow="visible" enable-background="accumulate"/><path fill="#888a85" d="M24.3 23.93l.9 2.94-1.77-1.4z" color="#000" overflow="visible" enable-background="accumulate"/><path fill="url(#h)" d="M23.6 25.27l1.42 1.45-10.85 14.13z"/><path fill="url(#i)" stroke="#8f5902" stroke-width=".5" d="M-1.2 33.86C.13 31.94 2 30.82 4.43 30.52c-2.07 1.4-2.9 3.26-2.82 5.46 1.46-1.9 3.23-3.17 5.65-3.13-2.5 1.92-3.38 4.3-4.04 6.77 1.82-2.3 3.58-4.6 6.97-6.37-1.45 2.2-3.36 4.26-3.03 6.97.65-.76 1.24-1.6 2.93-1.3-1.45 1.35-1.58 3.25-1.72 5.14 1.4-3.22 3.6-4.57 5.76-5.96 0 0-3.4 4.85-3.63 7.68 1.04-2.2 7.57-6.67 12.53-7.88-1.6 2.04-5.1 5.02-4.54 7.78 1.58-2.07 4-3.1 6.65-3.84-1.26 1.54-3.2 2.9-3.33 4.64 2.06-1.57 4.08-3.26 6.67-3.53-2.07 2.57-4.57 5.22-4.05 7.27l-26.77-.5z"/><path fill="#c17d11" stroke="#8f5902" stroke-width=".5" d="M12.43 31.26s.1-3.34.5-4.94c.47-1.93 2.3-5.22 2.3-5.22s-.45 3.9-1 5.8c-.45 1.5-1.8 4.36-1.8 4.36z" color="#000" overflow="visible" enable-background="accumulate"/><path fill="#c17d11" stroke="#8f5902" stroke-width=".5" d="M8.83 30.23s-.62-2.62-.6-3.97c0-1.6.92-4.64.92-4.64s.4 3.16.32 4.77c-.07 1.28-.64 3.83-.64 3.83z" color="#000" overflow="visible" enable-background="accumulate"/><path fill="#c17d11" stroke="#8f5902" stroke-width=".5" d="M37.3 45.95s2.52-1.2 3.9-1.5c1.64-.37 4.94-.25 4.94-.25s-3.1 1.12-4.77 1.42c-1.32.24-4.07.33-4.07.33z" color="#000" overflow="visible" enable-background="accumulate"/><path fill="#c17d11" stroke="#8f5902" stroke-width=".5" d="M4.7 28.38s-1.45-2.27-1.88-3.54c-.52-1.53-.68-4.7-.68-4.7s1.44 2.85 1.9 4.4c.35 1.24.67 3.84.67 3.84z" color="#000" overflow="visible" enable-background="accumulate"/><path fill="#c17d11" stroke="#8f5902" stroke-width=".5" d="M27.97 30.67s-1.63 2.25-2.7 3.18c-1.26 1.1-4.2 2.6-4.2 2.6s2.17-2.48 3.5-3.55c1.03-.84 3.4-2.23 3.4-2.23z" color="#000" overflow="visible" enable-background="accumulate"/><path fill="#c17d11" stroke="#8f5902" stroke-width=".5" d="M29.3 34.62s-1.76 2.85-2.9 4.03C25 40.07 21.74 42 21.74 42s2.37-3.15 3.8-4.5c1.14-1.1 3.74-2.88 3.74-2.88z" color="#000" overflow="visible" enable-background="accumulate"/><path fill="#c17d11" stroke="#8f5902" stroke-width=".5" d="M32.55 32.13s.62 2.62.6 3.97c0 1.62-.92 4.64-.92 4.64s-.4-3.16-.32-4.77c.08-1.28.65-3.84.65-3.84z" color="#000" overflow="visible" enable-background="accumulate"/><path fill="#c17d11" stroke="#8f5902" stroke-width=".5" d="M37.56 41.17s-1.63 2.26-2.7 3.18c-1.26 1.12-4.2 2.6-4.2 2.6s2.18-2.48 3.5-3.54c1.04-.84 3.4-2.23 3.4-2.23z" color="#000" overflow="visible" enable-background="accumulate"/><path fill="url(#j)" d="M-4.83 34.86l22.2 18.07-5.2 4.45-19.3-15.98z"/></g></svg>