<svg xmlns="http://www.w3.org/2000/svg" width="48" height="48" xmlns:xlink="http://www.w3.org/1999/xlink"><defs><linearGradient id="f"><stop offset="0" stop-color="#d48e1f"/><stop offset="1" stop-color="#fff"/></linearGradient><linearGradient id="e"><stop offset="0" stop-color="#e9b96e"/><stop offset="1" stop-color="#da9221"/></linearGradient><linearGradient id="d"><stop offset="0" stop-color="#fff"/><stop offset="1" stop-color="#fef5ae"/></linearGradient><linearGradient id="c"><stop offset="0" stop-color="#fef7b9"/><stop offset="1" stop-color="#e0c703"/></linearGradient><linearGradient id="b"><stop offset="0" stop-color="#8f5902"/><stop offset="1" stop-color="#8f5902" stop-opacity="0"/></linearGradient><linearGradient id="a"><stop offset="0" stop-color="#d58a12"/><stop offset="1" stop-color="#8f5c0c"/></linearGradient><linearGradient id="g" x1="2.134" x2="46.187" y1="21.109" y2="42.429" xlink:href="#a" gradientUnits="userSpaceOnUse" gradientTransform="matrix(-1.018 0 0 .938 49.22 3.201)"/><linearGradient id="h" x1="19.857" x2="16.929" y1="31.357" y2="31.857" xlink:href="#b" gradientUnits="userSpaceOnUse" gradientTransform="matrix(-1.018 0 0 .938 49.22 2.933)"/><linearGradient id="j" x1="4.761" x2="34.185" y1="17.976" y2="17.976" xlink:href="#c" gradientUnits="userSpaceOnUse" gradientTransform="matrix(-1.037 0 0 .956 50.603 2.106)"/><radialGradient id="l" cx="21.048" cy="6.408" r="14.472" xlink:href="#d" fx="21.048" fy="6.408" gradientTransform="matrix(-1.065 0 0 1.006 50.755 .36)" gradientUnits="userSpaceOnUse"/><linearGradient id="i" x1="24.054" x2="46.268" y1="26.776" y2="42.418" xlink:href="#e" gradientUnits="userSpaceOnUse" gradientTransform="matrix(-1.037 0 0 .956 50.603 2.106)"/><linearGradient id="k" x1="41.537" x2="40.295" y1="38.264" y2="39.553" xlink:href="#f" gradientUnits="userSpaceOnUse"/></defs><g><path fill="url(#g)" fill-rule="evenodd" stroke="#4f2f00" d="M3.55 40.8c-2.47 4.4.8 7.92 5.54 6.26l8.34-7.8c1.15-.93 3.1-.8 4.44-2.28l2-1.95 6 .62c1.18.1 2.26-.1 3.05-1.1l11.23-12.34c2.88-2.65 2.65-5.08 2.37-7.27l-22.7 15.2" stroke-linejoin="bevel"/><path fill="#c17d11" fill-rule="evenodd" stroke="#663f00" d="M14.68 20.16c-.23 2.84-.88 5.78 1.16 8.1l1.38-1.47-2.54-6.64z"/><path fill="url(#h)" fill-rule="evenodd" d="M31.98 31.48l-.36 3.9-7.85-.68.3-4.42 7.9 1.2z"/><path fill="url(#i)" fill-rule="evenodd" stroke="#8f5902" d="M46.55 14.85L31.85 31.1l-7.93-.88-13.6 13.3c-4.02 4.06-9.9-.27-5.77-4.13l12.6-12.55-2.37-6.68L29.8 6.7c5.54.8 13.17-1.37 16.75 8.15z"/><path fill-opacity=".222" fill-rule="evenodd" d="M30.83 29.14l-3.5.54-11.02-5.94-2.14-3.82 1.92-1.5 14.75 10.72z"/><path fill="url(#j)" fill-rule="evenodd" stroke="#997d00" d="M44.4 14.22l-13.58 14.7-14.16-8.18-1.34-6.02 29.62-7.06-.54 6.56z" stroke-linejoin="bevel"/><path fill="none" stroke="#9f8000" d="M19.05 22.24l-.97-5.83"/><path fill="none" stroke="#9f8000" d="M21.3 23.47l-.44-5.78"/><path fill="none" stroke="#9f8000" d="M23.6 24.63l-.22-5.22"/><path fill="none" stroke="#9f8000" d="M25.97 26.13v-5"/><path fill="none" stroke="#9f8000" d="M28.5 27.5l.22-4.9"/><path fill="none" stroke="#9f8000" d="M30.64 28.66l.22-5.3"/><path fill="url(#k)" fill-rule="evenodd" stroke="#8f5902" stroke-width="1.005" d="M42.86 39.25a2.9 1.9 0 1 1-5.8 0 2.9 1.9 0 1 1 5.8 0z" transform="matrix(-.7 .705 .765 .645 6.143 -13.131)" stroke-linejoin="bevel" overflow="visible" enable-background="accumulate"/><path fill="none" stroke="#c4a000" d="M32.7 21.07l-.2 5.43"/><path fill="none" stroke="#c4a000" d="M34.5 18.86l.2 5.57"/><path fill="none" stroke="#c4a000" d="M36.8 16.57v5.64"/><path fill="none" stroke="#c4a000" d="M38.8 14.14l.06 5.57"/><path fill="none" stroke="#c4a000" d="M40.86 12.2l.07 5.23"/><path fill="none" stroke="#c4a000" d="M42.7 9.8l.16 5.4"/><path fill="url(#l)" fill-rule="evenodd" stroke="#c4a000" d="M44.95 7.62c0 1.24-1 1.88-2.2 2.38-.07 1.22-1 1.8-2.1 2.3-.2 1.07-.6 2.02-2 2.2-.26 1.18-.87 2.04-2.14 2.3.18 1.2-.78 1.77-2.02 2.2-.2 1.14-.94 1.76-1.95 2.14.03 1.38-1.07 1.7-2 2.2-.97-.33-2.2-.38-2.4-1.4-1.02.06-1.93-.2-2.53-1.46-.94-.2-1.9-.24-2.65-1.53-1.27-.03-2.3-.34-2.57-1.5-1.55.1-2.54-.42-2.87-1.65-1.38.23-1.92-.46-2.3-1.34.04-1.48 1.26-1.67 2.27-2.08.1-1.13 1.1-1.6 2.18-2 .27-.97.86-1.7 2.14-1.94.06-1.3 1.16-1.4 1.98-1.82-.1-1.4 1.07-1.62 2.14-1.95-.14-1.25 1.3-1.53 2.3-2.1C28.38 1.5 29.24.9 30.43.56c1.32.15 2.64.3 3.17 1.55 1.57-.4 2.34.2 2.7 1.3 1.6-.3 2.14.56 2.76 1.35 1.5-.38 2.2.52 2.9 1.42 1.64-.33 2.36.5 3 1.45z"/></g></svg>