<svg xmlns="http://www.w3.org/2000/svg" width="48" height="48" xmlns:xlink="http://www.w3.org/1999/xlink"><defs><linearGradient id="u"><stop offset="0" stop-color="#c17d11"/><stop offset=".272" stop-color="#e4a645"/><stop offset="1" stop-color="#905d0d"/></linearGradient><linearGradient id="t"><stop offset="0" stop-color="#85907a"/><stop offset=".704" stop-color="#cfcfcf"/><stop offset="1" stop-color="#9fa896"/></linearGradient><linearGradient id="s"><stop offset="0" stop-color="#d3d7cf"/><stop offset=".288" stop-color="#fff"/><stop offset="1" stop-color="#9fa896"/></linearGradient><linearGradient id="r"><stop offset="0"/><stop offset="1" stop-opacity="0"/></linearGradient><linearGradient id="q"><stop offset="0"/><stop offset="1" stop-opacity="0"/></linearGradient><linearGradient id="p"><stop offset="0"/><stop offset="1" stop-opacity="0"/></linearGradient><linearGradient id="o"><stop offset="0"/><stop offset="1" stop-opacity="0"/></linearGradient><linearGradient id="n"><stop offset="0"/><stop offset="1" stop-opacity="0"/></linearGradient><linearGradient id="m"><stop offset="0"/><stop offset="1" stop-opacity="0"/></linearGradient><linearGradient id="l"><stop offset="0"/><stop offset="1" stop-opacity="0"/></linearGradient><linearGradient id="k"><stop offset="0"/><stop offset="1" stop-opacity="0"/></linearGradient><linearGradient id="j"><stop offset="0"/><stop offset="1" stop-opacity="0"/></linearGradient><linearGradient id="i"><stop offset="0"/><stop offset="1" stop-opacity="0"/></linearGradient><linearGradient id="h"><stop offset="0"/><stop offset="1" stop-opacity="0"/></linearGradient><linearGradient id="g"><stop offset="0"/><stop offset="1" stop-opacity="0"/></linearGradient><linearGradient id="f"><stop offset="0"/><stop offset="1" stop-opacity="0"/></linearGradient><linearGradient id="e"><stop offset="0"/><stop offset="1" stop-opacity="0"/></linearGradient><linearGradient id="d"><stop offset="0"/><stop offset="1" stop-opacity="0"/></linearGradient><linearGradient id="c"><stop offset="0"/><stop offset="1" stop-opacity="0"/></linearGradient><linearGradient id="b"><stop offset="0"/><stop offset="1" stop-opacity="0"/></linearGradient><linearGradient id="a"><stop offset="0"/><stop offset="1" stop-opacity="0"/></linearGradient><linearGradient id="y" x1="26.967" x2="31.554" y1="7.82" y2="7.82" xlink:href="#a" gradientUnits="userSpaceOnUse" gradientTransform="matrix(1.123 0 0 1.123 -4.435 .025)"/><linearGradient id="z" x1="26.167" x2="30.755" y1="10.108" y2="10.108" xlink:href="#b" gradientUnits="userSpaceOnUse" gradientTransform="matrix(1.123 0 0 1.123 -4.435 .025)"/><linearGradient id="A" x1="25.534" x2="30.121" y1="12.396" y2="12.396" xlink:href="#c" gradientUnits="userSpaceOnUse" gradientTransform="matrix(1.123 0 0 1.123 -4.435 .025)"/><linearGradient id="B" x1="24.596" x2="29.184" y1="14.409" y2="14.409" xlink:href="#d" gradientUnits="userSpaceOnUse" gradientTransform="matrix(1.123 0 0 1.123 -4.435 .025)"/><linearGradient id="C" x1="23.99" x2="28.577" y1="16.642" y2="16.642" xlink:href="#e" gradientUnits="userSpaceOnUse" gradientTransform="matrix(1.123 0 0 1.123 -4.435 .025)"/><linearGradient id="D" x1="23.217" x2="27.587" y1="18.669" y2="18.669" xlink:href="#f" gradientUnits="userSpaceOnUse" gradientTransform="matrix(1.123 0 0 1.123 -4.435 .025)"/><linearGradient id="E" x1="22.5" x2="26.87" y1="20.681" y2="20.681" xlink:href="#g" gradientUnits="userSpaceOnUse" gradientTransform="matrix(1.123 0 0 1.123 -4.435 .025)"/><linearGradient id="F" x1="21.728" x2="26.098" y1="22.721" y2="22.721" xlink:href="#h" gradientUnits="userSpaceOnUse" gradientTransform="matrix(1.123 0 0 1.123 -4.435 .025)"/><linearGradient id="G" x1="21.094" x2="25.464" y1="24.651" y2="24.651" xlink:href="#i" gradientUnits="userSpaceOnUse" gradientTransform="matrix(1.123 0 0 1.123 -4.435 .025)"/><linearGradient id="H" x1="32.339" x2="35.526" y1="9.226" y2="9.226" xlink:href="#j" gradientUnits="userSpaceOnUse" gradientTransform="matrix(1.123 0 0 1.123 -4.435 .025)"/><linearGradient id="I" x1="31.567" x2="34.754" y1="11.569" y2="11.569" xlink:href="#k" gradientUnits="userSpaceOnUse" gradientTransform="matrix(1.123 0 0 1.123 -4.435 .025)"/><linearGradient id="J" x1="30.713" x2="33.899" y1="13.775" y2="13.775" xlink:href="#l" gradientUnits="userSpaceOnUse" gradientTransform="matrix(1.123 0 0 1.123 -4.435 .025)"/><linearGradient id="K" x1="30.106" x2="33.293" y1="15.897" y2="15.897" xlink:href="#m" gradientUnits="userSpaceOnUse" gradientTransform="matrix(1.123 0 0 1.123 -4.435 .025)"/><linearGradient id="L" x1="29.39" x2="32.576" y1="17.91" y2="17.91" xlink:href="#n" gradientUnits="userSpaceOnUse" gradientTransform="matrix(1.123 0 0 1.123 -4.435 .025)"/><linearGradient id="M" x1="28.508" x2="31.694" y1="20.005" y2="20.005" xlink:href="#o" gradientUnits="userSpaceOnUse" gradientTransform="matrix(1.123 0 0 1.123 -4.435 .025)"/><linearGradient id="N" x1="27.791" x2="30.978" y1="22.018" y2="22.018" xlink:href="#p" gradientUnits="userSpaceOnUse" gradientTransform="matrix(1.123 0 0 1.123 -4.435 .025)"/><linearGradient id="O" x1="26.826" x2="30.013" y1="24.113" y2="24.113" xlink:href="#q" gradientUnits="userSpaceOnUse" gradientTransform="matrix(1.123 0 0 1.123 -4.435 .025)"/><linearGradient id="P" x1="26.248" x2="29.434" y1="25.96" y2="25.96" xlink:href="#r" gradientUnits="userSpaceOnUse" gradientTransform="matrix(1.123 0 0 1.123 -4.435 .025)"/><linearGradient id="w" x1="22.869" x2="31.119" y1="16.665" y2="20.1" xlink:href="#s" gradientUnits="userSpaceOnUse" gradientTransform="matrix(1.008 0 0 1.008 .066 -.665)"/><linearGradient id="x" x1="58.762" x2="73.129" y1="15.194" y2="16.784" xlink:href="#t" gradientUnits="userSpaceOnUse"/><linearGradient id="v" x1="17.989" x2="22.162" y1="37.489" y2="39.107" xlink:href="#u" gradientUnits="userSpaceOnUse" gradientTransform="matrix(1.008 0 0 1.008 .066 -.665)"/></defs><g><path fill="url(#v)" stroke="#6b4302" d="M20.5 30.5c-.6.87-.97 1.58-1.1 2.1-.8 5.03-4.05 8.84-3.96 12.37.07 2.54 2.65 3.56 4.32 1.56 2.7-3.22 2.02-7.86 4.53-12.46.34-.47.4-1.23.4-2.06-1.28-.98-2.57-1.9-4.2-1.5z"/><path fill="none" stroke="#cc933a" stroke-width=".5" d="M16.1 45.52c1.05-1.44 1.08-3.3 1.52-4.8.23-.76 1.56-2.6 1.84-4.98.16-1.4 1.53-3.02 2.03-4.83" stroke-linecap="round"/><path fill="none" stroke="#cc933a" stroke-width=".5" d="M16.9 46.58c.36-2.4 2.35-4.1 3.12-5.98.3-.75.08-2.34.36-4.2.22-1.43.98-2.83 2.64-5" stroke-linecap="round"/><path fill="none" stroke="#cc933a" stroke-width=".5" d="M18.13 46.94c1.07-1.46 2.53-4.54 2.98-6.06.24-.78.2-2.75.78-4.3.5-1.34 1.7-3.02 2.2-4.86" stroke-linecap="round"/><path fill="none" stroke="#e9b96e" stroke-width=".5" d="M20.87 30.7c-.47.7-.78 1.26-.88 1.68-.65 4.02-4.08 9.72-4 12.54.05 2.03 2.1 2.85 3.42 1.25 2.14-2.57 2.46-8.94 4.45-12.62.28-.37.32-.98.32-1.64-1.02-.78-2.04-1.53-3.33-1.2z"/><path stroke="#fff" stroke-width=".5" d="M28.24 4.14L25.47 1c.7-.6 1.5-.94 2.6-.2l1.5 3.17z" color="#000" overflow="visible" enable-background="accumulate"/><path stroke="#fff" stroke-width=".5" d="M31.14 4.2l.05-2.95c.9-.82 1.66-.05 2.43.56l-.7 2.97z" color="#000" overflow="visible" enable-background="accumulate"/><path stroke="#fff" stroke-width=".5" d="M34.24 5.33l2.55-2.3c1.3-.06 2.28.36 2.63 1.8l-4.12 1.2z" color="#000" overflow="visible" enable-background="accumulate"/><path stroke="#fff" stroke-width=".5" d="M35.87 7.06l4.78.42c.6.88.93 1.75-.1 2.63L36.1 7.96z" color="#000" overflow="visible" enable-background="accumulate"/><path stroke="#fff" stroke-width=".5" d="M26.67 5.53l-5.3-1.17c.36-.93.48-1.96 2-2.4l3.75 2.7z" color="#000" overflow="visible" enable-background="accumulate"/><path fill="#babdb6" stroke="#000" stroke-width=".402" d="M27.3 3.78l-8.34 23.9c-.9 2.13 7.02 5.96 8.85 2.96l8.8-24.02c.88-3.5-7.97-6.26-9.3-2.84z"/><path fill="url(#w)" stroke="#888a85" stroke-width=".5" d="M27.16 4.2c1.04 3.5 6.7 4.92 9.1 3.13l-8.64 23.65c-2.55 2-8.16-.5-8.8-2.97z"/><path fill="url(#x)" stroke="#555753" stroke-width=".988" d="M73.82 15.93a7.9 4.1 0 1 1-15.78 0 7.9 4.1 0 1 1 15.78 0z" transform="matrix(.392 .11 -.11 .391 7.924 -8.362)" color="#000" stroke-linecap="round" stroke-linejoin="round" overflow="visible" enable-background="accumulate"/><path fill="none" stroke="url(#y)" stroke-width="1.004" d="M26.42 7.4c.83 1.17 2.7 2.4 4.02 2.8" stroke-linecap="round"/><path fill="none" stroke="#eeeeec" stroke-width=".201" d="M26.2 7.92c.58.8 2.02 2.06 3.16 2.54.54.22 1.18.3 1.5.1" stroke-linecap="round"/><path fill="none" stroke="url(#z)" stroke-width="1.004" d="M25.52 9.97c.84 1.17 2.7 2.4 4.02 2.8" stroke-linecap="round"/><path fill="none" stroke="#eeeeec" stroke-width=".201" d="M25.3 10.5c.58.8 2.03 2.04 3.16 2.53.54.22 1.2.3 1.52.1" stroke-linecap="round"/><path fill="none" stroke="url(#A)" stroke-width="1.004" d="M24.8 12.53c.84 1.17 2.7 2.4 4.03 2.82" stroke-linecap="round"/><path fill="none" stroke="#eeeeec" stroke-width=".201" d="M24.6 13.06c.57.8 2 2.05 3.15 2.53.54.22 1.2.3 1.5.1" stroke-linecap="round"/><path fill="none" stroke="url(#B)" stroke-width="1.004" d="M23.75 14.8c.84 1.16 2.7 2.4 4.03 2.8" stroke-linecap="round"/><path fill="none" stroke="#eeeeec" stroke-width=".201" d="M23.54 15.32c.58.8 2.02 2.05 3.16 2.53.53.23 1.18.3 1.5.1" stroke-linecap="round"/><path fill="none" stroke="url(#C)" stroke-width="1.004" d="M23.07 17.3c.84 1.17 2.7 2.4 4.03 2.82" stroke-linecap="round"/><path fill="none" stroke="#eeeeec" stroke-width=".201" d="M22.86 17.83c.58.8 2.02 2.05 3.16 2.53.53.23 1.18.3 1.5.1" stroke-linecap="round"/><path fill="none" stroke="url(#D)" stroke-width="1.004" d="M22.2 19.63c.8 1.13 2.54 2.3 3.78 2.7" stroke-linecap="round"/><path fill="none" stroke="#eeeeec" stroke-width=".201" d="M22 20.14c.55.78 1.9 1.97 2.97 2.43.5.22 1.1.3 1.42.1" stroke-linecap="round"/><path fill="none" stroke="url(#E)" stroke-width="1.004" d="M21.4 21.9c.8 1.12 2.54 2.3 3.78 2.7" stroke-linecap="round"/><path fill="none" stroke="#eeeeec" stroke-width=".201" d="M21.2 22.4c.54.78 1.9 1.97 2.96 2.43.5.22 1.12.3 1.43.1" stroke-linecap="round"/><path fill="none" stroke="url(#F)" stroke-width="1.004" d="M20.53 24.18c.8 1.13 2.54 2.3 3.78 2.7" stroke-linecap="round"/><path fill="none" stroke="#eeeeec" stroke-width=".201" d="M20.33 24.7c.54.77 1.9 1.96 2.97 2.42.5.22 1.1.3 1.42.1" stroke-linecap="round"/><path fill="none" stroke="url(#G)" stroke-width="1.004" d="M19.82 26.35c.8 1.12 2.54 2.3 3.78 2.7" stroke-linecap="round"/><path fill="none" stroke="#eeeeec" stroke-width=".201" d="M19.62 26.85c.54.78 1.9 1.98 2.96 2.44.5.2 1.12.28 1.43.08" stroke-linecap="round"/><path fill="none" stroke="url(#H)" stroke-width="1.004" d="M34.9 10.2c-.56.27-1.7.4-2.45.34" stroke-linecap="round"/><path fill="none" stroke="#eeeeec" stroke-width=".201" d="M34.92 10.7c-.4.17-1.3.36-1.95.35-.32 0-.68-.07-.85-.18" stroke-linecap="round"/><path fill="none" stroke="url(#I)" stroke-width="1.004" d="M34.03 12.84c-.55.26-1.68.4-2.45.34" stroke-linecap="round"/><path fill="none" stroke="#eeeeec" stroke-width=".201" d="M34.05 13.32c-.4.18-1.3.37-1.95.36-.32 0-.68-.07-.85-.18" stroke-linecap="round"/><path fill="none" stroke="url(#J)" stroke-width="1.004" d="M33.07 15.32c-.55.25-1.68.38-2.45.33" stroke-linecap="round"/><path fill="none" stroke="#eeeeec" stroke-width=".201" d="M33.1 15.8c-.4.17-1.3.37-1.96.36-.32 0-.68-.07-.85-.18" stroke-linecap="round"/><path fill="none" stroke="url(#K)" stroke-width="1.004" d="M32.4 17.7c-.56.26-1.7.4-2.46.33" stroke-linecap="round"/><path fill="none" stroke="#eeeeec" stroke-width=".201" d="M32.4 18.18c-.38.18-1.28.37-1.94.36-.32 0-.68-.07-.85-.18" stroke-linecap="round"/><path fill="none" stroke="url(#L)" stroke-width="1.004" d="M31.6 19.96c-.57.26-1.7.4-2.46.33" stroke-linecap="round"/><path fill="none" stroke="#eeeeec" stroke-width=".201" d="M31.6 20.44c-.38.17-1.28.37-1.95.36-.3 0-.68-.07-.84-.18" stroke-linecap="round"/><path fill="none" stroke="url(#M)" stroke-width="1.004" d="M30.6 22.3c-.56.27-1.7.4-2.45.35" stroke-linecap="round"/><path fill="none" stroke="#eeeeec" stroke-width=".201" d="M30.6 22.8c-.37.17-1.27.36-1.94.35-.3 0-.68-.07-.84-.18" stroke-linecap="round"/><path fill="none" stroke="url(#N)" stroke-width="1.004" d="M29.8 24.57c-.56.26-1.7.4-2.46.34" stroke-linecap="round"/><path fill="none" stroke="#eeeeec" stroke-width=".201" d="M29.8 25.05c-.38.18-1.28.37-1.94.36-.32 0-.68-.06-.85-.17" stroke-linecap="round"/><path fill="none" stroke="url(#O)" stroke-width="1.004" d="M28.7 26.92c-.55.26-1.68.4-2.44.34" stroke-linecap="round"/><path fill="none" stroke="#eeeeec" stroke-width=".201" d="M28.72 27.4c-.38.18-1.28.37-1.95.37-.3 0-.68-.07-.84-.2" stroke-linecap="round"/><path fill="none" stroke="url(#P)" stroke-width="1.004" d="M28.06 29c-.56.25-1.7.38-2.45.33" stroke-linecap="round"/><path fill="none" stroke="#eeeeec" stroke-width=".201" d="M28.07 29.47c-.38.18-1.28.38-1.95.37-.3 0-.68-.07-.84-.18" stroke-linecap="round"/><path fill="none" stroke="#eeeeec" stroke-width=".36.122" d="M29.22 4.4c.3-1.07 2.78-1.12 4.45-.07.8.5 1.18 1.1 1.02 1.62" color="#000" stroke-linecap="round" stroke-linejoin="round" overflow="visible" enable-background="accumulate"/><g stroke="#fff" stroke-width=".496"><path d="M19.43 25.66l-5.2.15c.04.72.02 2.33 1.6 2.6l4.26-1.83z"/><path d="M21.7 27.76l-3.12 1.92c.08 1.08 1.42 2.2 2.7 1.35l1.64-2.86z"/><path d="M24.55 28.8l-.48 2.68c.48.95 2.2 1 3 .38l-1.42-3.15z"/><path d="M27.24 28.66l2.05 3.65c1.08.57 2.85.32 3.34-1.15l-4.3-2.9z"/></g><g stroke="#fff" stroke-width=".496"><path d="M20.76 21.84l-5.2.15c.03.7 0 2.3 1.58 2.6l4.28-1.84z"/><path d="M23 23.95l-3.1 1.9c.08 1.1 1.43 2.2 2.7 1.36l1.65-2.85z"/><path d="M25.87 24.97l-.48 2.7c.47.94 2.2.98 2.98.38l-1.4-3.16z"/><path d="M28.57 24.84l2.04 3.65c1.1.55 2.87.3 3.36-1.17l-4.3-2.9z"/></g><g stroke="#fff" stroke-width=".496"><path d="M22.28 17.92l-5.2.15c.04.7.02 2.32 1.6 2.6l4.26-1.83z"/><path d="M24.54 20.03l-3.1 1.9c.07 1.1 1.4 2.2 2.7 1.36l1.63-2.86z"/><path d="M27.4 21.06l-.48 2.68c.48.95 2.2 1 3 .4l-1.42-3.17z"/><path d="M30.1 20.92l2.04 3.65c1.1.56 2.86.32 3.35-1.16l-4.32-2.9z"/></g><g stroke="#fff" stroke-width=".496"><path d="M23.76 13.85l-5.2.15c.03.7.02 2.32 1.6 2.6l4.26-1.83z"/><path d="M26 15.96l-3.1 1.9c.08 1.1 1.43 2.2 2.7 1.36l1.65-2.86z"/><path d="M28.87 16.98l-.47 2.7c.47.94 2.2.98 3 .38l-1.42-3.16z"/><path d="M31.57 16.85l2.05 3.65c1.1.56 2.85.32 3.35-1.16l-4.32-2.9z"/></g><g stroke="#fff" stroke-width=".496"><path d="M25.03 10.03l-5.2.16c.04.7.02 2.3 1.6 2.58l4.26-1.83z"/><path d="M27.3 12.14l-3.12 1.9c.08 1.1 1.42 2.2 2.7 1.37l1.64-2.85z"/><path d="M30.14 13.17l-.47 2.68c.47.96 2.2 1 3 .4l-1.42-3.16z"/><path d="M32.84 13.03l2.05 3.65c1.08.56 2.85.32 3.34-1.16l-4.3-2.9z"/></g><g stroke="#fff" stroke-width=".496"><path d="M26.5 6.1l-5.18.17c.02.7 0 2.32 1.57 2.6l4.27-1.84z"/><path d="M28.76 8.22l-3.1 1.9c.07 1.1 1.42 2.2 2.7 1.37L30 8.62z"/><path d="M31.62 9.25l-.48 2.7c.48.94 2.22.98 3 .37l-1.4-3.15z"/><path d="M34.32 9.12l2.04 3.64c1.1.56 2.86.32 3.35-1.15l-4.3-2.9z"/></g></g></svg>