<svg xmlns="http://www.w3.org/2000/svg" width="48" height="48"><defs><radialGradient id="a" cx="937.577" cy="3348.373" r="65.909" gradientUnits="userSpaceOnUse" gradientTransform="matrix(0 -1 1 0 -3050.021 1052.331)" fy="3348.373" fx="937.577"><stop offset="0" stop-color="#fff"/><stop offset=".064" stop-color="#EAECED"/><stop offset=".2" stop-color="#C4C7CC"/><stop offset=".342" stop-color="#A4AAB0"/><stop offset=".489" stop-color="#8B929B"/><stop offset=".642" stop-color="#7A828C"/><stop offset=".806" stop-color="#6F7883"/><stop offset="1" stop-color="#6C7580"/></radialGradient><linearGradient id="b" x1="300.49" x2="325.86" y1="4001.511" y2="4001.511" gradientTransform="matrix(1.016 0 0 -1.016 -293.599 4090.012)" gradientUnits="userSpaceOnUse"><stop offset="0" stop-color="#E8B96D"/><stop offset=".074" stop-color="#E8B96D"/><stop offset="1" stop-color="#E8B96D"/></linearGradient><linearGradient id="c" x1="313.998" x2="312.009" y1="100.554" y2="98.565" gradientUnits="userSpaceOnUse" gradientTransform="matrix(1.016 0 0 1.016 -293.316 -77.945)"><stop offset=".169" stop-color="#8F5810"/><stop offset=".256" stop-color="#9A641B"/><stop offset=".411" stop-color="#B68239"/><stop offset=".617" stop-color="#E4B468"/><stop offset=".635" stop-color="#E8B96D"/><stop offset="1" stop-color="#C17D10"/></linearGradient><linearGradient id="d" x1="307.721" x2="311.615" y1="105.15" y2="102.295" gradientUnits="userSpaceOnUse" gradientTransform="matrix(1.016 0 0 1.016 -293.316 -77.945)"><stop offset="0"/><stop offset="1" stop-color="#F6E94E"/></linearGradient><linearGradient id="h" x1="1831.938" x2="1851.334" y1="2213.526" y2="2223.158" gradientTransform="matrix(.707 -.707 .707 .707 -2543.065 -160.714)" gradientUnits="userSpaceOnUse"><stop offset="0" stop-color="#FCFBF2"/><stop offset=".3" stop-color="#EBE1CA"/><stop offset=".972" stop-color="#C29F64"/><stop offset="1" stop-color="#C09C60"/></linearGradient><linearGradient id="g" x1="1831.171" x2="1844.843" y1="2208.546" y2="2208.546" gradientTransform="matrix(.707 -.707 .707 .707 -2543.065 -160.714)" gradientUnits="userSpaceOnUse"><stop offset="0" stop-color="#F6E94E"/><stop offset=".654" stop-color="#EFDB26"/><stop offset="1" stop-color="#EBD30F"/></linearGradient><linearGradient id="f" x1="1839.408" x2="1839.408" y1="2229.718" y2="2218.391" gradientTransform="matrix(.707 -.707 .707 .707 -2543.065 -160.714)" gradientUnits="userSpaceOnUse"><stop offset="0" stop-color="#FCFBF2"/><stop offset=".3" stop-color="#EBE1CA"/><stop offset=".972" stop-color="#C29F64"/><stop offset="1" stop-color="#C09C60"/></linearGradient><linearGradient id="e" x1="1839.408" x2="1839.408" y1="2228.351" y2="2221.711" gradientTransform="matrix(.707 -.707 .707 .707 -2543.065 -160.714)" gradientUnits="userSpaceOnUse"><stop offset="0" stop-color="#F7E6C8"/><stop offset=".412" stop-color="#E2C9A0"/><stop offset="1" stop-color="#C09C60"/></linearGradient></defs><g><g transform="matrix(1.016 0 0 1.016 -293.316 -77.945)"><radialGradient cx="937.577" cy="3348.373" r="65.909" gradientUnits="userSpaceOnUse" gradientTransform="matrix(0 -1 1 0 -3050.021 1052.331)" fy="3348.373" fx="937.577"><stop offset="0" stop-color="#fff"/><stop offset=".064" stop-color="#EAECED"/><stop offset=".2" stop-color="#C4C7CC"/><stop offset=".342" stop-color="#A4AAB0"/><stop offset=".489" stop-color="#8B929B"/><stop offset=".642" stop-color="#7A828C"/><stop offset=".806" stop-color="#6F7883"/><stop offset="1" stop-color="#6C7580"/></radialGradient><path fill="url(#a)" stroke="#41464c" stroke-width=".689" d="M307.07 107.15c3.56 4.02 6.38 10.15 5.43 15.14 0 0-9.77-8.7-20.5-1.5 3.2-5.13 1.68-22.83-2.9-20.16 6.88-1.12 12.76.64 17.97 6.5z"/></g><path fill="url(#b)" stroke="#59370a" stroke-width="2" d="M15.42 35.46s-.28-.42 1.2-1.8c9.36-8.73 5.53-8.44 20.8-20.97-14.98 7.42-18.34 17.18-24.94 17.94-1.27.02-.96 2.14 0 3.62.95 1.48 3.03 1.86 2.94 1.2z"/><path fill="url(#c)" d="M15.42 35.46s-.28-.42 1.2-1.8c9.36-8.73 5.53-8.44 20.8-20.97-14.98 7.42-18.34 17.18-24.94 17.94-1.27.02-.96 2.14 0 3.62.95 1.48 3.03 1.86 2.94 1.2z"/><path fill="url(#d)" d="M15.42 35.46s-.28-.42 1.2-1.8c9.36-8.73 5.53-8.44 20.8-20.97-14.98 7.42-18.34 17.18-24.94 17.94-1.27.02-.96 2.14 0 3.62.95 1.48 3.03 1.86 2.94 1.2z"/><g transform="matrix(1.016 0 0 1.016 -293.316 -77.945)"><linearGradient x1="1839.408" x2="1839.408" y1="2228.351" y2="2221.711" gradientTransform="matrix(.707 -.707 .707 .707 -2543.065 -160.714)" gradientUnits="userSpaceOnUse"><stop offset="0" stop-color="#F7E6C8"/><stop offset=".412" stop-color="#E2C9A0"/><stop offset="1" stop-color="#C09C60"/></linearGradient><path fill="url(#e)" stroke="#8f7656" stroke-width=".984" d="M329.34 107.3c2.4 1.67 3.7 2.34 4.54 3.2.86.84 2.54 3.25.86 4.93l-.37.37c-1.68 1.67-4.08 0-4.94-.86-.85-.85-1.52-2.13-3.2-4.54"/><g><linearGradient x1="1839.408" x2="1839.408" y1="2229.718" y2="2218.391" gradientTransform="matrix(.707 -.707 .707 .707 -2543.065 -160.714)" gradientUnits="userSpaceOnUse"><stop offset="0" stop-color="#FCFBF2"/><stop offset=".3" stop-color="#EBE1CA"/><stop offset=".972" stop-color="#C29F64"/><stop offset="1" stop-color="#C09C60"/></linearGradient><path fill="url(#f)" d="M328.55 108.43l2.25 1.5c1 .67 1.66 1.1 2.1 1.54.02.02 1.86 1.97.86 2.98l-.37.37c-1.02 1-2.97-.84-3-.86-.43-.44-.86-1.1-1.5-2.1l-1.53-2.25-.77.53 1.5 2.24c.7 1.05 1.15 1.74 1.66 2.25.7.7 2.88 2.26 4.3.85l.35-.36c1.42-1.4-.13-3.57-.84-4.28-.5-.5-1.2-.96-2.24-1.64l-2.25-1.52-.52.77z"/></g><circle cx="332.072" cy="113.114" r=".646" fill="#f7e6c8"/><path fill="#322a1f" stroke="#262017" stroke-width=".984" d="M310.52 106.04l9.58-9.58c1.28-.67 3.23-.9 4.5.37 1.3 1.28 3 3 3 3l-9.33 9.32s-2.32-2.32-2.87-2.87c-.55-.55-3.66-.85-4.88-.24z"/><path fill="none" stroke="#66563e" stroke-width=".984" d="M315.74 103.23c.74.28 2.55 1.23 4.56 3.25"/><path fill="#66563e" d="M318.76 108.66l-2.3-2.36c-.67-.58-1.35-1.18-2.2-1.24l1.35-1.34s2 1.45 4.32 3.78l-1.16 1.16z"/><linearGradient x1="1831.171" x2="1844.843" y1="2208.546" y2="2208.546" gradientTransform="matrix(.707 -.707 .707 .707 -2543.065 -160.714)" gradientUnits="userSpaceOnUse"><stop offset="0" stop-color="#F6E94E"/><stop offset=".654" stop-color="#EFDB26"/><stop offset="1" stop-color="#EBD30F"/></linearGradient><path fill="url(#g)" d="M312.78 104.88l1.16-1.16h.67l-.33-.33 2.23-2.24s.98 0 1.34 0l-.8-.8 2.14-2.13h1.16l.52-.52h-.76l.36-.75s2.6-.52 3.12 0l-1.07 1.07h-.8l-.02.7-3.26 3.26-1.74 1.2V105l-.8.67c-.48-.5-2.86-1.03-3.4-.5l.3-.3z"/><path fill="#f7e6c8" stroke="#8f7656" stroke-width=".984" d="M329.34 107.3l-3.1 3.1"/><linearGradient x1="1831.938" x2="1851.334" y1="2213.526" y2="2223.158" gradientTransform="matrix(.707 -.707 .707 .707 -2543.065 -160.714)" gradientUnits="userSpaceOnUse"><stop offset="0" stop-color="#FCFBF2"/><stop offset=".3" stop-color="#EBE1CA"/><stop offset=".972" stop-color="#C29F64"/><stop offset="1" stop-color="#C09C60"/></linearGradient><path fill="url(#h)" stroke="#8f7656" stroke-width=".984" d="M326.23 110.4l-2.9 2.9c-.64.64-2 0-2.74-.73l-2.88-2.87 10.43-10.43 2.87 2.86c.73.73 1.37 2.1.73 2.75l-2.4 2.4-3.12 3.12z"/><path fill="#fcfbf2" stroke="#fff" stroke-width=".246" d="M319.2 109.1l8.42-8.4 1.6 1.6-8.4 8.42z"/><path fill="none" stroke="#f6e94e" stroke-width=".984" d="M311.38 105.18l6.62-6.63"/></g></g></svg>