<svg xmlns="http://www.w3.org/2000/svg" width="48" height="48" xmlns:xlink="http://www.w3.org/1999/xlink"><defs><radialGradient id="i" cx="1021.813" cy="3350.709" r="82.289" gradientUnits="userSpaceOnUse" gradientTransform="matrix(0 -1 1 0 -3050.021 1052.331)" fy="3350.709" fx="1021.813"><stop offset="0" stop-color="#fff"/><stop offset=".064" stop-color="#EAECED"/><stop offset=".2" stop-color="#C4C7CC"/><stop offset=".342" stop-color="#A4AAB0"/><stop offset=".489" stop-color="#8B929B"/><stop offset=".642" stop-color="#7A828C"/><stop offset=".806" stop-color="#6F7883"/><stop offset="1" stop-color="#6C7580"/></radialGradient><linearGradient id="j" x1="1020.908" x2="1020.934" y1="3366.793" y2="3366.813" gradientTransform="matrix(0 -1 1 0 -3050.021 1052.331)" gradientUnits="userSpaceOnUse"><stop offset="0" stop-color="#fff"/><stop offset=".102" stop-color="#FCFBFA"/><stop offset=".231" stop-color="#F5F0EA"/><stop offset=".374" stop-color="#E9DED0"/><stop offset=".529" stop-color="#D8C5AC"/><stop offset=".692" stop-color="#C2A47D"/><stop offset=".859" stop-color="#A87D45"/><stop offset="1" stop-color="#8F5810"/></linearGradient><linearGradient id="e" x1="312.164" x2="312.186" y1="11.23" y2="11.247" gradientUnits="userSpaceOnUse"><stop offset="0" stop-color="#fff"/><stop offset=".102" stop-color="#FCFBFA"/><stop offset=".231" stop-color="#F5F0EA"/><stop offset=".374" stop-color="#E9DED0"/><stop offset=".529" stop-color="#D8C5AC"/><stop offset=".692" stop-color="#C2A47D"/><stop offset=".859" stop-color="#A87D45"/><stop offset="1" stop-color="#8F5810"/></linearGradient><linearGradient id="f" x1="1037.205" x2="1037.228" y1="3361.301" y2="3361.319" gradientTransform="matrix(0 -1 1 0 -3050.021 1052.331)" gradientUnits="userSpaceOnUse"><stop offset="0" stop-color="#fff"/><stop offset=".102" stop-color="#FCFBFA"/><stop offset=".231" stop-color="#F5F0EA"/><stop offset=".374" stop-color="#E9DED0"/><stop offset=".529" stop-color="#D8C5AC"/><stop offset=".692" stop-color="#C2A47D"/><stop offset=".859" stop-color="#A87D45"/><stop offset="1" stop-color="#8F5810"/></linearGradient><linearGradient id="a" x1="1042.606" x2="1044.147" y1="3358.777" y2="3357.235" gradientTransform="matrix(0 -1 1 0 -3050.021 1052.331)" gradientUnits="userSpaceOnUse"><stop offset=".169" stop-color="#8F5810"/><stop offset=".256" stop-color="#9A641B"/><stop offset=".411" stop-color="#B68239"/><stop offset=".617" stop-color="#E4B468"/><stop offset=".635" stop-color="#E8B96D"/><stop offset="1" stop-color="#C17D10"/></linearGradient><linearGradient id="b" x1="1035.486" x2="1051.839" y1="3356.951" y2="3356.951" gradientTransform="matrix(0 -1 1 0 -3050.021 1052.331)" gradientUnits="userSpaceOnUse"><stop offset="0" stop-color="#E8B96D"/><stop offset=".074" stop-color="#E8B96D"/><stop offset="1" stop-color="#E8B96D"/></linearGradient><linearGradient id="c" x1="1032.036" x2="1033.577" y1="3372.153" y2="3370.61" gradientTransform="matrix(0 -1 1 0 -3050.021 1052.331)" gradientUnits="userSpaceOnUse"><stop offset=".169" stop-color="#8F5810"/><stop offset=".256" stop-color="#9A641B"/><stop offset=".411" stop-color="#B68239"/><stop offset=".617" stop-color="#E4B468"/><stop offset=".635" stop-color="#E8B96D"/><stop offset="1" stop-color="#C17D10"/></linearGradient><linearGradient id="d" x1="1024.268" x2="1041.873" y1="3370.347" y2="3370.347" gradientTransform="matrix(0 -1 1 0 -3050.021 1052.331)" gradientUnits="userSpaceOnUse"><stop offset="0" stop-color="#E8B96D"/><stop offset=".074" stop-color="#E8B96D"/><stop offset="1" stop-color="#E8B96D"/></linearGradient><linearGradient id="g" x1="302.61" x2="320.213" y1="4083.962" y2="4083.962" gradientTransform="matrix(1 0 0 -1 -289.053 4104.297)" gradientUnits="userSpaceOnUse"><stop offset="0" stop-color="#E8B96D"/><stop offset=".074" stop-color="#E8B96D"/><stop offset="1" stop-color="#E8B96D"/></linearGradient><linearGradient id="h" x1="311.898" x2="310.518" y1="18.106" y2="16.727" gradientUnits="userSpaceOnUse" gradientTransform="translate(-288.775 2.224)"><stop offset=".169" stop-color="#8F5810"/><stop offset=".256" stop-color="#9A641B"/><stop offset=".411" stop-color="#B68239"/><stop offset=".617" stop-color="#E4B468"/><stop offset=".635" stop-color="#E8B96D"/><stop offset="1" stop-color="#C17D10"/></linearGradient><linearGradient x1="1024.268" x2="1041.873" y1="3370.347" y2="3370.347" gradientUnits="userSpaceOnUse" gradientTransform="matrix(0 -1 1 0 -3050.021 1052.331)"><stop offset="0" stop-color="#E8B96D"/><stop offset=".074" stop-color="#E8B96D"/><stop offset="1" stop-color="#E8B96D"/></linearGradient><linearGradient x1="1032.036" x2="1033.577" y1="3372.153" y2="3370.61" gradientUnits="userSpaceOnUse" gradientTransform="matrix(0 -1 1 0 -3050.021 1052.331)"><stop offset=".169" stop-color="#8F5810"/><stop offset=".256" stop-color="#9A641B"/><stop offset=".411" stop-color="#B68239"/><stop offset=".617" stop-color="#E4B468"/><stop offset=".635" stop-color="#E8B96D"/><stop offset="1" stop-color="#C17D10"/></linearGradient><linearGradient x1="1035.486" x2="1051.839" y1="3356.951" y2="3356.951" gradientUnits="userSpaceOnUse" gradientTransform="matrix(0 -1 1 0 -3050.021 1052.331)"><stop offset="0" stop-color="#E8B96D"/><stop offset=".074" stop-color="#E8B96D"/><stop offset="1" stop-color="#E8B96D"/></linearGradient><linearGradient x1="1042.606" x2="1044.147" y1="3358.777" y2="3357.235" gradientUnits="userSpaceOnUse" gradientTransform="matrix(0 -1 1 0 -3050.021 1052.331)"><stop offset=".169" stop-color="#8F5810"/><stop offset=".256" stop-color="#9A641B"/><stop offset=".411" stop-color="#B68239"/><stop offset=".617" stop-color="#E4B468"/><stop offset=".635" stop-color="#E8B96D"/><stop offset="1" stop-color="#C17D10"/></linearGradient><linearGradient x1="1042.606" x2="1044.147" y1="3358.777" y2="3357.235" xlink:href="#a" gradientUnits="userSpaceOnUse" gradientTransform="matrix(0 -1 1 0 -3338.796 1054.555)"/><linearGradient x1="1035.486" x2="1051.839" y1="3356.951" y2="3356.951" xlink:href="#b" gradientUnits="userSpaceOnUse" gradientTransform="matrix(0 -1 1 0 -3338.796 1054.555)"/><linearGradient x1="1032.036" x2="1033.577" y1="3372.153" y2="3370.61" xlink:href="#c" gradientUnits="userSpaceOnUse" gradientTransform="matrix(0 -1 1 0 -3338.796 1054.555)"/><linearGradient x1="1024.268" x2="1041.873" y1="3370.347" y2="3370.347" xlink:href="#d" gradientUnits="userSpaceOnUse" gradientTransform="matrix(0 -1 1 0 -3338.796 1054.555)"/><linearGradient id="k" x1="312.164" x2="312.186" y1="11.23" y2="11.247" xlink:href="#e" gradientUnits="userSpaceOnUse"/><linearGradient id="l" x1="1037.205" x2="1037.228" y1="3361.301" y2="3361.319" xlink:href="#f" gradientUnits="userSpaceOnUse" gradientTransform="matrix(0 -1 1 0 -3050.021 1052.331)"/><linearGradient id="m" x1="302.61" x2="320.213" y1="4083.962" y2="4083.962" xlink:href="#g" gradientUnits="userSpaceOnUse" gradientTransform="matrix(1 0 0 -1 -289.053 4104.297)"/><linearGradient id="n" x1="311.898" x2="310.518" y1="18.106" y2="16.727" xlink:href="#h" gradientUnits="userSpaceOnUse" gradientTransform="translate(-288.775 2.224)"/><linearGradient id="o" x1="312.164" x2="312.186" y1="11.23" y2="11.247" xlink:href="#e" gradientUnits="userSpaceOnUse"/><linearGradient id="p" x1="1037.205" x2="1037.228" y1="3361.301" y2="3361.319" xlink:href="#f" gradientUnits="userSpaceOnUse" gradientTransform="matrix(0 -1 1 0 -3050.021 1052.331)"/><linearGradient id="q" x1="302.61" x2="320.213" y1="4083.962" y2="4083.962" xlink:href="#g" gradientUnits="userSpaceOnUse" gradientTransform="matrix(1 0 0 -1 -289.053 4104.297)"/><linearGradient id="r" x1="311.898" x2="310.518" y1="18.106" y2="16.727" xlink:href="#h" gradientUnits="userSpaceOnUse" gradientTransform="translate(-288.775 2.224)"/><linearGradient id="w" x1="312.164" x2="312.186" y1="11.23" y2="11.247" xlink:href="#e" gradientUnits="userSpaceOnUse"/><linearGradient id="x" x1="1037.205" x2="1037.228" y1="3361.301" y2="3361.319" xlink:href="#f" gradientUnits="userSpaceOnUse" gradientTransform="matrix(0 -1 1 0 -3050.021 1052.331)"/><linearGradient id="y" x1="302.61" x2="320.213" y1="4083.962" y2="4083.962" xlink:href="#g" gradientUnits="userSpaceOnUse" gradientTransform="matrix(1 0 0 -1 -289.053 4104.297)"/><linearGradient id="z" x1="311.898" x2="310.518" y1="18.106" y2="16.727" xlink:href="#h" gradientUnits="userSpaceOnUse" gradientTransform="translate(-288.775 2.224)"/><linearGradient id="E" x1="312.164" x2="312.186" y1="11.23" y2="11.247" xlink:href="#e" gradientUnits="userSpaceOnUse"/><linearGradient id="F" x1="1037.205" x2="1037.228" y1="3361.301" y2="3361.319" xlink:href="#f" gradientUnits="userSpaceOnUse" gradientTransform="matrix(0 -1 1 0 -3050.021 1052.331)"/><linearGradient id="G" x1="302.61" x2="320.213" y1="4083.962" y2="4083.962" xlink:href="#g" gradientUnits="userSpaceOnUse" gradientTransform="matrix(1 0 0 -1 -289.053 4104.297)"/><linearGradient id="H" x1="311.898" x2="310.518" y1="18.106" y2="16.727" xlink:href="#h" gradientUnits="userSpaceOnUse" gradientTransform="translate(-288.775 2.224)"/><linearGradient id="I" x1="312.164" x2="312.186" y1="11.23" y2="11.247" xlink:href="#e" gradientUnits="userSpaceOnUse"/><linearGradient id="J" x1="1037.205" x2="1037.228" y1="3361.301" y2="3361.319" xlink:href="#f" gradientUnits="userSpaceOnUse" gradientTransform="matrix(0 -1 1 0 -3050.021 1052.331)"/><linearGradient id="K" x1="302.61" x2="320.213" y1="4083.962" y2="4083.962" xlink:href="#g" gradientUnits="userSpaceOnUse" gradientTransform="matrix(1 0 0 -1 -289.053 4104.297)"/><linearGradient id="L" x1="311.898" x2="310.518" y1="18.106" y2="16.727" xlink:href="#h" gradientUnits="userSpaceOnUse" gradientTransform="translate(-288.775 2.224)"/><linearGradient id="A" x1="312.164" x2="312.186" y1="11.23" y2="11.247" xlink:href="#e" gradientUnits="userSpaceOnUse"/><linearGradient id="B" x1="1037.205" x2="1037.228" y1="3361.301" y2="3361.319" xlink:href="#f" gradientUnits="userSpaceOnUse" gradientTransform="matrix(0 -1 1 0 -3050.021 1052.331)"/><linearGradient id="C" x1="302.61" x2="320.213" y1="4083.962" y2="4083.962" xlink:href="#g" gradientUnits="userSpaceOnUse" gradientTransform="matrix(1 0 0 -1 -289.053 4104.297)"/><linearGradient id="D" x1="311.898" x2="310.518" y1="18.106" y2="16.727" xlink:href="#h" gradientUnits="userSpaceOnUse" gradientTransform="translate(-288.775 2.224)"/><linearGradient id="s" x1="312.164" x2="312.186" y1="11.23" y2="11.247" xlink:href="#e" gradientUnits="userSpaceOnUse"/><linearGradient id="t" x1="1037.205" x2="1037.228" y1="3361.301" y2="3361.319" xlink:href="#f" gradientUnits="userSpaceOnUse" gradientTransform="matrix(0 -1 1 0 -3050.021 1052.331)"/><linearGradient id="u" x1="302.61" x2="320.213" y1="4083.962" y2="4083.962" xlink:href="#g" gradientUnits="userSpaceOnUse" gradientTransform="matrix(1 0 0 -1 -289.053 4104.297)"/><linearGradient id="v" x1="311.898" x2="310.518" y1="18.106" y2="16.727" xlink:href="#h" gradientUnits="userSpaceOnUse" gradientTransform="translate(-288.775 2.224)"/></defs><g><g transform="translate(-288.775 2.224)"><radialGradient cx="1021.813" cy="3350.709" r="82.289" gradientUnits="userSpaceOnUse" gradientTransform="matrix(0 -1 1 0 -3050.021 1052.331)" fy="3350.709" fx="1021.813"><stop offset="0" stop-color="#fff"/><stop offset=".064" stop-color="#EAECED"/><stop offset=".2" stop-color="#C4C7CC"/><stop offset=".342" stop-color="#A4AAB0"/><stop offset=".489" stop-color="#8B929B"/><stop offset=".642" stop-color="#7A828C"/><stop offset=".806" stop-color="#6F7883"/><stop offset="1" stop-color="#6C7580"/></radialGradient><path fill="url(#i)" stroke="#41464c" stroke-width=".7" d="M311.57 21.03c4.45 5.02 7.97 12.66 6.78 18.9 0 0-12.2-10.86-25.58-1.87 4-6.4 2.08-28.5-3.64-25.16 8.6-1.4 15.94.8 22.44 8.13z"/></g><g transform="translate(-288.775 2.224)"><linearGradient x1="1020.908" x2="1020.934" y1="3366.793" y2="3366.813" gradientTransform="matrix(0 -1 1 0 -3050.021 1052.331)" gradientUnits="userSpaceOnUse"><stop offset="0" stop-color="#fff"/><stop offset=".102" stop-color="#FCFBFA"/><stop offset=".231" stop-color="#F5F0EA"/><stop offset=".374" stop-color="#E9DED0"/><stop offset=".529" stop-color="#D8C5AC"/><stop offset=".692" stop-color="#C2A47D"/><stop offset=".859" stop-color="#A87D45"/><stop offset="1" stop-color="#8F5810"/></linearGradient><path fill="url(#j)" d="M316.86 31.45s-.02 0-.02 0l-.16-.06c.05.03.12.03.2.05-.02 0-.02 0-.02 0z"/></g><g><g transform="matrix(.995 -.105 .105 .995 -296.659 26.388)"><linearGradient x1="312.164" x2="312.186" y1="11.23" y2="11.247" gradientUnits="userSpaceOnUse"><stop offset="0" stop-color="#fff"/><stop offset=".102" stop-color="#FCFBFA"/><stop offset=".231" stop-color="#F5F0EA"/><stop offset=".374" stop-color="#E9DED0"/><stop offset=".529" stop-color="#D8C5AC"/><stop offset=".692" stop-color="#C2A47D"/><stop offset=".859" stop-color="#A87D45"/><stop offset="1" stop-color="#8F5810"/></linearGradient><path fill="url(#k)" d="M312.14 11.3l.05-.15c-.04.04-.05.1-.06.16z"/></g><g transform="matrix(.995 -.105 .105 .995 -296.659 26.388)"><linearGradient x1="1037.205" x2="1037.228" y1="3361.301" y2="3361.319" gradientUnits="userSpaceOnUse" gradientTransform="matrix(0 -1 1 0 -3050.021 1052.331)"><stop offset="0" stop-color="#fff"/><stop offset=".102" stop-color="#FCFBFA"/><stop offset=".231" stop-color="#F5F0EA"/><stop offset=".374" stop-color="#E9DED0"/><stop offset=".529" stop-color="#D8C5AC"/><stop offset=".692" stop-color="#C2A47D"/><stop offset=".859" stop-color="#A87D45"/><stop offset="1" stop-color="#8F5810"/></linearGradient><path fill="url(#l)" d="M311.35 15.15l-.15-.05c.04.03.1.04.16.05z"/></g><path fill="url(#m)" stroke="#59370a" stroke-width="2" d="M16.14 28s-.2-.3.82-1.23c6.4-5.96 3.77-5.76 14.2-14.32C20.94 17.53 18.64 24.2 14.13 24.7c-.87.02-.65 1.47 0 2.48.65 1.02 2.07 1.28 2 .82z" transform="matrix(.995 -.105 .105 .995 -9.561 -6.146)"/><path fill="url(#n)" d="M16.14 28s-.2-.3.82-1.23c6.4-5.96 3.77-5.76 14.2-14.32C20.94 17.53 18.64 24.2 14.13 24.7c-.87.02-.65 1.47 0 2.48.65 1.02 2.07 1.28 2 .82z" transform="matrix(.995 -.105 .105 .995 -9.561 -6.146)"/></g><g><g><path fill="none" stroke="#fff" stroke-width="3" d="M37.13 41.22h8.4v2.26h-8.4z"/></g><g fill="none" stroke="#fff" stroke-width="3"><path d="M27.7 38.1h2.15v8.4H27.7z"/><path d="M24.57 41.22h8.4v2.26h-8.4z"/></g></g><g><g><path fill="#ed2728" d="M37.13 41.22h8.4v2.26h-8.4z"/></g><g fill="#ed2728"><path d="M27.7 38.1h2.15v8.4H27.7z"/><path d="M24.57 41.22h8.4v2.26h-8.4z"/></g></g><g><g transform="matrix(.996 -.086 .086 .996 -293.596 26.321)"><linearGradient x1="312.164" x2="312.186" y1="11.23" y2="11.247" gradientUnits="userSpaceOnUse"><stop offset="0" stop-color="#fff"/><stop offset=".102" stop-color="#FCFBFA"/><stop offset=".231" stop-color="#F5F0EA"/><stop offset=".374" stop-color="#E9DED0"/><stop offset=".529" stop-color="#D8C5AC"/><stop offset=".692" stop-color="#C2A47D"/><stop offset=".859" stop-color="#A87D45"/><stop offset="1" stop-color="#8F5810"/></linearGradient><path fill="url(#o)" d="M312.14 11.3l.05-.15c-.04.04-.05.1-.06.16z"/></g><g transform="matrix(.996 -.086 .086 .996 -293.596 26.321)"><linearGradient x1="1037.205" x2="1037.228" y1="3361.301" y2="3361.319" gradientUnits="userSpaceOnUse" gradientTransform="matrix(0 -1 1 0 -3050.021 1052.331)"><stop offset="0" stop-color="#fff"/><stop offset=".102" stop-color="#FCFBFA"/><stop offset=".231" stop-color="#F5F0EA"/><stop offset=".374" stop-color="#E9DED0"/><stop offset=".529" stop-color="#D8C5AC"/><stop offset=".692" stop-color="#C2A47D"/><stop offset=".859" stop-color="#A87D45"/><stop offset="1" stop-color="#8F5810"/></linearGradient><path fill="url(#p)" d="M311.35 15.15l-.15-.05c.04.03.1.04.16.05z"/></g><path fill="url(#q)" stroke="#59370a" stroke-width="2" d="M16.14 28s-.2-.3.82-1.23c6.4-5.96 3.77-5.76 14.2-14.32C20.94 17.53 18.64 24.2 14.13 24.7c-.87.02-.65 1.47 0 2.48.65 1.02 2.07 1.28 2 .82z" transform="matrix(.996 -.086 .086 .996 -6.167 -.729)"/><path fill="url(#r)" d="M16.14 28s-.2-.3.82-1.23c6.4-5.96 3.77-5.76 14.2-14.32C20.94 17.53 18.64 24.2 14.13 24.7c-.87.02-.65 1.47 0 2.48.65 1.02 2.07 1.28 2 .82z" transform="matrix(.996 -.086 .086 .996 -6.167 -.729)"/></g><g><g transform="translate(6.356 2.665) translate(-288.775 2.224)"><linearGradient x1="312.164" x2="312.186" y1="11.23" y2="11.247" gradientUnits="userSpaceOnUse"><stop offset="0" stop-color="#fff"/><stop offset=".102" stop-color="#FCFBFA"/><stop offset=".231" stop-color="#F5F0EA"/><stop offset=".374" stop-color="#E9DED0"/><stop offset=".529" stop-color="#D8C5AC"/><stop offset=".692" stop-color="#C2A47D"/><stop offset=".859" stop-color="#A87D45"/><stop offset="1" stop-color="#8F5810"/></linearGradient><path fill="url(#s)" d="M312.14 11.3l.05-.15c-.04.04-.05.1-.06.16z"/></g><g transform="translate(6.356 2.665) translate(-288.775 2.224)"><linearGradient x1="1037.205" x2="1037.228" y1="3361.301" y2="3361.319" gradientUnits="userSpaceOnUse" gradientTransform="matrix(0 -1 1 0 -3050.021 1052.331)"><stop offset="0" stop-color="#fff"/><stop offset=".102" stop-color="#FCFBFA"/><stop offset=".231" stop-color="#F5F0EA"/><stop offset=".374" stop-color="#E9DED0"/><stop offset=".529" stop-color="#D8C5AC"/><stop offset=".692" stop-color="#C2A47D"/><stop offset=".859" stop-color="#A87D45"/><stop offset="1" stop-color="#8F5810"/></linearGradient><path fill="url(#t)" d="M311.35 15.15l-.15-.05c.04.03.1.04.16.05z"/></g><path fill="url(#u)" stroke="#59370a" stroke-width="2" d="M16.14 28s-.2-.3.82-1.23c6.4-5.96 3.77-5.76 14.2-14.32C20.94 17.53 18.64 24.2 14.13 24.7c-.87.02-.65 1.47 0 2.48.65 1.02 2.07 1.28 2 .82z" transform="translate(6.356 2.665)"/><path fill="url(#v)" d="M16.14 28s-.2-.3.82-1.23c6.4-5.96 3.77-5.76 14.2-14.32C20.94 17.53 18.64 24.2 14.13 24.7c-.87.02-.65 1.47 0 2.48.65 1.02 2.07 1.28 2 .82z" transform="translate(6.356 2.665)"/></g><g><g transform="translate(2.84 -.335) translate(-288.775 2.224)"><linearGradient x1="312.164" x2="312.186" y1="11.23" y2="11.247" gradientUnits="userSpaceOnUse"><stop offset="0" stop-color="#fff"/><stop offset=".102" stop-color="#FCFBFA"/><stop offset=".231" stop-color="#F5F0EA"/><stop offset=".374" stop-color="#E9DED0"/><stop offset=".529" stop-color="#D8C5AC"/><stop offset=".692" stop-color="#C2A47D"/><stop offset=".859" stop-color="#A87D45"/><stop offset="1" stop-color="#8F5810"/></linearGradient><path fill="url(#w)" d="M312.14 11.3l.05-.15c-.04.04-.05.1-.06.16z"/></g><g transform="translate(2.84 -.335) translate(-288.775 2.224)"><linearGradient x1="1037.205" x2="1037.228" y1="3361.301" y2="3361.319" gradientUnits="userSpaceOnUse" gradientTransform="matrix(0 -1 1 0 -3050.021 1052.331)"><stop offset="0" stop-color="#fff"/><stop offset=".102" stop-color="#FCFBFA"/><stop offset=".231" stop-color="#F5F0EA"/><stop offset=".374" stop-color="#E9DED0"/><stop offset=".529" stop-color="#D8C5AC"/><stop offset=".692" stop-color="#C2A47D"/><stop offset=".859" stop-color="#A87D45"/><stop offset="1" stop-color="#8F5810"/></linearGradient><path fill="url(#x)" d="M311.35 15.15l-.15-.05c.04.03.1.04.16.05z"/></g><path fill="url(#y)" stroke="#59370a" stroke-width="2" d="M16.14 28s-.2-.3.82-1.23c6.4-5.96 3.77-5.76 14.2-14.32C20.94 17.53 18.64 24.2 14.13 24.7c-.87.02-.65 1.47 0 2.48.65 1.02 2.07 1.28 2 .82z" transform="translate(2.84 -.335)"/><path fill="url(#z)" d="M16.14 28s-.2-.3.82-1.23c6.4-5.96 3.77-5.76 14.2-14.32C20.94 17.53 18.64 24.2 14.13 24.7c-.87.02-.65 1.47 0 2.48.65 1.02 2.07 1.28 2 .82z" transform="translate(2.84 -.335)"/></g><g><g transform="translate(11.213 6.546) translate(-288.775 2.224)"><linearGradient x1="312.164" x2="312.186" y1="11.23" y2="11.247" gradientUnits="userSpaceOnUse"><stop offset="0" stop-color="#fff"/><stop offset=".102" stop-color="#FCFBFA"/><stop offset=".231" stop-color="#F5F0EA"/><stop offset=".374" stop-color="#E9DED0"/><stop offset=".529" stop-color="#D8C5AC"/><stop offset=".692" stop-color="#C2A47D"/><stop offset=".859" stop-color="#A87D45"/><stop offset="1" stop-color="#8F5810"/></linearGradient><path fill="url(#A)" d="M312.14 11.3l.05-.15c-.04.04-.05.1-.06.16z"/></g><g transform="translate(11.213 6.546) translate(-288.775 2.224)"><linearGradient x1="1037.205" x2="1037.228" y1="3361.301" y2="3361.319" gradientUnits="userSpaceOnUse" gradientTransform="matrix(0 -1 1 0 -3050.021 1052.331)"><stop offset="0" stop-color="#fff"/><stop offset=".102" stop-color="#FCFBFA"/><stop offset=".231" stop-color="#F5F0EA"/><stop offset=".374" stop-color="#E9DED0"/><stop offset=".529" stop-color="#D8C5AC"/><stop offset=".692" stop-color="#C2A47D"/><stop offset=".859" stop-color="#A87D45"/><stop offset="1" stop-color="#8F5810"/></linearGradient><path fill="url(#B)" d="M311.35 15.15l-.15-.05c.04.03.1.04.16.05z"/></g><path fill="url(#C)" stroke="#59370a" stroke-width="2" d="M16.14 28s-.2-.3.82-1.23c6.4-5.96 3.77-5.76 14.2-14.32C20.94 17.53 18.64 24.2 14.13 24.7c-.87.02-.65 1.47 0 2.48.65 1.02 2.07 1.28 2 .82z" transform="translate(11.213 6.546)"/><path fill="url(#D)" d="M16.14 28s-.2-.3.82-1.23c6.4-5.96 3.77-5.76 14.2-14.32C20.94 17.53 18.64 24.2 14.13 24.7c-.87.02-.65 1.47 0 2.48.65 1.02 2.07 1.28 2 .82z" transform="translate(11.213 6.546)"/></g><g><g transform="translate(4.785 7.522) translate(-288.775 2.224)"><linearGradient x1="312.164" x2="312.186" y1="11.23" y2="11.247" gradientUnits="userSpaceOnUse"><stop offset="0" stop-color="#fff"/><stop offset=".102" stop-color="#FCFBFA"/><stop offset=".231" stop-color="#F5F0EA"/><stop offset=".374" stop-color="#E9DED0"/><stop offset=".529" stop-color="#D8C5AC"/><stop offset=".692" stop-color="#C2A47D"/><stop offset=".859" stop-color="#A87D45"/><stop offset="1" stop-color="#8F5810"/></linearGradient><path fill="url(#E)" d="M312.14 11.3l.05-.15c-.04.04-.05.1-.06.16z"/></g><g transform="translate(4.785 7.522) translate(-288.775 2.224)"><linearGradient x1="1037.205" x2="1037.228" y1="3361.301" y2="3361.319" gradientUnits="userSpaceOnUse" gradientTransform="matrix(0 -1 1 0 -3050.021 1052.331)"><stop offset="0" stop-color="#fff"/><stop offset=".102" stop-color="#FCFBFA"/><stop offset=".231" stop-color="#F5F0EA"/><stop offset=".374" stop-color="#E9DED0"/><stop offset=".529" stop-color="#D8C5AC"/><stop offset=".692" stop-color="#C2A47D"/><stop offset=".859" stop-color="#A87D45"/><stop offset="1" stop-color="#8F5810"/></linearGradient><path fill="url(#F)" d="M311.35 15.15l-.15-.05c.04.03.1.04.16.05z"/></g><path fill="url(#G)" stroke="#59370a" stroke-width="2" d="M16.14 28s-.2-.3.82-1.23c6.4-5.96 3.77-5.76 14.2-14.32C20.94 17.53 18.64 24.2 14.13 24.7c-.87.02-.65 1.47 0 2.48.65 1.02 2.07 1.28 2 .82z" transform="translate(4.785 7.522)"/><path fill="url(#H)" d="M16.14 28s-.2-.3.82-1.23c6.4-5.96 3.77-5.76 14.2-14.32C20.94 17.53 18.64 24.2 14.13 24.7c-.87.02-.65 1.47 0 2.48.65 1.02 2.07 1.28 2 .82z" transform="translate(4.785 7.522)"/></g><g><g transform="translate(-3.446 6.546) translate(-288.775 2.224)"><linearGradient x1="312.164" x2="312.186" y1="11.23" y2="11.247" gradientUnits="userSpaceOnUse"><stop offset="0" stop-color="#fff"/><stop offset=".102" stop-color="#FCFBFA"/><stop offset=".231" stop-color="#F5F0EA"/><stop offset=".374" stop-color="#E9DED0"/><stop offset=".529" stop-color="#D8C5AC"/><stop offset=".692" stop-color="#C2A47D"/><stop offset=".859" stop-color="#A87D45"/><stop offset="1" stop-color="#8F5810"/></linearGradient><path fill="url(#I)" d="M312.14 11.3l.05-.15c-.04.04-.05.1-.06.16z"/></g><g transform="translate(-3.446 6.546) translate(-288.775 2.224)"><linearGradient x1="1037.205" x2="1037.228" y1="3361.301" y2="3361.319" gradientUnits="userSpaceOnUse" gradientTransform="matrix(0 -1 1 0 -3050.021 1052.331)"><stop offset="0" stop-color="#fff"/><stop offset=".102" stop-color="#FCFBFA"/><stop offset=".231" stop-color="#F5F0EA"/><stop offset=".374" stop-color="#E9DED0"/><stop offset=".529" stop-color="#D8C5AC"/><stop offset=".692" stop-color="#C2A47D"/><stop offset=".859" stop-color="#A87D45"/><stop offset="1" stop-color="#8F5810"/></linearGradient><path fill="url(#J)" d="M311.35 15.15l-.15-.05c.04.03.1.04.16.05z"/></g><path fill="url(#K)" stroke="#59370a" stroke-width="2" d="M16.14 28s-.2-.3.82-1.23c6.4-5.96 3.77-5.76 14.2-14.32C20.94 17.53 18.64 24.2 14.13 24.7c-.87.02-.65 1.47 0 2.48.65 1.02 2.07 1.28 2 .82z" transform="translate(-3.446 6.546)"/><path fill="url(#L)" d="M16.14 28s-.2-.3.82-1.23c6.4-5.96 3.77-5.76 14.2-14.32C20.94 17.53 18.64 24.2 14.13 24.7c-.87.02-.65 1.47 0 2.48.65 1.02 2.07 1.28 2 .82z" transform="translate(-3.446 6.546)"/></g></g></svg>