<svg xmlns="http://www.w3.org/2000/svg" width="48" height="48" xmlns:xlink="http://www.w3.org/1999/xlink" version="1" viewBox="0 0 612 792" enable-background="new 0 0 612 792"><defs><linearGradient id="k"><stop offset="0" stop-color="#729fcf"/><stop offset=".2" stop-color="#729fcf" stop-opacity="0"/><stop offset=".4" stop-color="#729fcf"/><stop offset=".6" stop-color="#729fcf" stop-opacity="0"/><stop offset=".8" stop-color="#729fcf"/><stop offset="1" stop-color="#729fcf" stop-opacity="0"/></linearGradient><linearGradient id="j"><stop offset="0" stop-color="#fff" stop-opacity=".502"/><stop offset="1" stop-color="#729fcf" stop-opacity=".502"/></linearGradient><linearGradient><stop offset="0" stop-color="#465052"/><stop offset=".497" stop-color="#353b3d"/><stop offset="1"/></linearGradient><linearGradient x1="340.353" x2="335.096" y1="475.421" y2="457.896" xlink:href="#a" gradientUnits="userSpaceOnUse"/><radialGradient cx="339.367" cy="453.958" r="95.967" xlink:href="#b" gradientUnits="userSpaceOnUse" gradientTransform="matrix(1.017 0 0 1 -5.605 0)"/><radialGradient cx="351.672" cy="481.788" r="33.5" xlink:href="#c" gradientUnits="userSpaceOnUse" gradientTransform="matrix(1.017 0 0 1 -5.605 0)"/><radialGradient cx="359.026" cy="475.631" r="18.771" xlink:href="#d" gradientUnits="userSpaceOnUse" gradientTransform="matrix(1.017 0 0 1 -5.605 0)"/><radialGradient cx="352.289" cy="458.565" r="26.958" xlink:href="#e" gradientUnits="userSpaceOnUse" gradientTransform="matrix(.481 .881 -.314 .166 327.089 72.261)"/><radialGradient cx="334.403" cy="452.116" r="21.01" xlink:href="#f" gradientUnits="userSpaceOnUse" gradientTransform="matrix(-.514 .863 -.175 -.101 585.923 209.356)"/><radialGradient cx="335.654" cy="485.615" r="26.517" xlink:href="#g" gradientUnits="userSpaceOnUse" gradientTransform="matrix(1.007 -.141 .101 .693 -51.073 196.57)"/><radialGradient cx="347.987" cy="479.824" r="13.794" xlink:href="#h" gradientUnits="userSpaceOnUse" gradientTransform="matrix(.986 -.245 .174 .679 -78.438 239.297)"/><linearGradient id="a" x1="340.353" x2="335.096" y1="475.421" y2="457.896" gradientUnits="userSpaceOnUse"><stop offset="0" stop-color="#D8B08D" stop-opacity=".75"/><stop offset=".203" stop-color="#E9CFB5" stop-opacity=".385"/><stop offset=".749" stop-color="#fff" stop-opacity="0"/></linearGradient><radialGradient id="b" cx="339.367" cy="453.958" r="95.967" gradientTransform="matrix(1.017 0 0 1 -5.605 0)" gradientUnits="userSpaceOnUse"><stop offset="0" stop-color="#CDA183" stop-opacity=".75"/><stop offset=".141" stop-color="#E9CFB5" stop-opacity=".385"/><stop offset=".607" stop-color="#fff" stop-opacity="0"/></radialGradient><radialGradient id="c" cx="351.672" cy="481.788" r="33.5" gradientTransform="matrix(1.017 0 0 1 -5.605 0)" gradientUnits="userSpaceOnUse"><stop offset="0" stop-color="#161002" stop-opacity=".89"/><stop offset=".331" stop-color="#3F2E01" stop-opacity=".385"/><stop offset=".749" stop-color="#4C2F04" stop-opacity="0"/></radialGradient><radialGradient id="d" cx="359.026" cy="475.631" r="18.771" gradientTransform="matrix(1.017 0 0 1 -5.605 0)" gradientUnits="userSpaceOnUse"><stop offset=".037" stop-color="#443A22"/><stop offset=".429" stop-color="#1F1000" stop-opacity=".385"/><stop offset="1" stop-color="#4E3107" stop-opacity="0"/></radialGradient><radialGradient id="e" cx="352.289" cy="458.565" r="26.958" gradientTransform="matrix(.481 .881 -.314 .166 327.089 72.261)" gradientUnits="userSpaceOnUse"><stop offset=".037" stop-color="#8A756F"/><stop offset=".429" stop-color="#633812" stop-opacity=".385"/><stop offset="1" stop-color="#6F4C39" stop-opacity="0"/></radialGradient><radialGradient id="f" cx="334.403" cy="452.116" r="21.01" gradientTransform="matrix(-.514 .863 -.175 -.101 585.923 209.356)" gradientUnits="userSpaceOnUse"><stop offset="0" stop-color="#ECE7E8" stop-opacity=".52"/><stop offset=".203" stop-color="#DED8CD" stop-opacity=".385"/><stop offset=".749" stop-color="#603E14" stop-opacity="0"/></radialGradient><radialGradient id="g" cx="335.654" cy="485.615" r="26.517" gradientTransform="matrix(1.007 -.141 .101 .693 -51.073 196.57)" gradientUnits="userSpaceOnUse"><stop offset="0" stop-color="#CD925D"/><stop offset=".749" stop-color="#fff" stop-opacity="0"/></radialGradient><radialGradient id="h" cx="347.987" cy="479.824" r="13.794" gradientTransform="matrix(.986 -.245 .174 .679 -78.438 239.297)" gradientUnits="userSpaceOnUse"><stop offset="0" stop-color="#CD925D"/><stop offset=".749" stop-color="#fff" stop-opacity="0"/></radialGradient><linearGradient x1="-12.053" x2="-9.09" y1="16.643" y2="16.643" xlink:href="#i" gradientUnits="userSpaceOnUse"/><linearGradient id="i"><stop offset="0" stop-color="#ab6b00"/><stop offset="1" stop-color="#764a00"/></linearGradient><linearGradient x1="-12.053" x2="-9.09" y1="16.643" y2="16.643" xlink:href="#i" gradientUnits="userSpaceOnUse"/><linearGradient><stop offset="0" stop-color="#ab6b00"/><stop offset="1" stop-color="#764a00"/></linearGradient><linearGradient x1="-12.053" x2="-9.09" y1="16.643" y2="16.643" xlink:href="#i" gradientUnits="userSpaceOnUse"/><linearGradient><stop offset="0" stop-color="#ab6b00"/><stop offset="1" stop-color="#764a00"/></linearGradient><linearGradient x1="-12.053" x2="-9.09" y1="16.643" y2="16.643" xlink:href="#i" gradientUnits="userSpaceOnUse"/><linearGradient><stop offset="0" stop-color="#ab6b00"/><stop offset="1" stop-color="#764a00"/></linearGradient><linearGradient x1="-12.053" x2="-9.09" y1="16.643" y2="16.643" xlink:href="#i" gradientUnits="userSpaceOnUse"/><linearGradient><stop offset="0" stop-color="#ab6b00"/><stop offset="1" stop-color="#764a00"/></linearGradient><linearGradient x1="-12.053" x2="-9.09" y1="16.643" y2="16.643" xlink:href="#i" gradientUnits="userSpaceOnUse"/><linearGradient><stop offset="0" stop-color="#ab6b00"/><stop offset="1" stop-color="#764a00"/></linearGradient><linearGradient x1="-12.053" x2="-9.09" y1="16.643" y2="16.643" xlink:href="#i" gradientUnits="userSpaceOnUse"/><linearGradient><stop offset="0" stop-color="#ab6b00"/><stop offset="1" stop-color="#764a00"/></linearGradient><linearGradient x1="-12.053" x2="-9.09" y1="16.643" y2="16.643" xlink:href="#i" gradientUnits="userSpaceOnUse"/><linearGradient><stop offset="0" stop-color="#ab6b00"/><stop offset="1" stop-color="#764a00"/></linearGradient><linearGradient x1="-12.053" x2="-9.09" y1="16.643" y2="16.643" xlink:href="#i" gradientUnits="userSpaceOnUse"/><linearGradient><stop offset="0" stop-color="#ab6b00"/><stop offset="1" stop-color="#764a00"/></linearGradient><linearGradient x1="-12.053" x2="-9.09" y1="16.643" y2="16.643" xlink:href="#i" gradientUnits="userSpaceOnUse"/><linearGradient><stop offset="0" stop-color="#ab6b00"/><stop offset="1" stop-color="#764a00"/></linearGradient><linearGradient x1="-12.053" x2="-9.09" y1="16.643" y2="16.643" xlink:href="#i" gradientUnits="userSpaceOnUse"/><linearGradient><stop offset="0" stop-color="#ab6b00"/><stop offset="1" stop-color="#764a00"/></linearGradient><linearGradient x1="-12.053" x2="-9.09" y1="16.643" y2="16.643" xlink:href="#i" gradientUnits="userSpaceOnUse"/><linearGradient><stop offset="0" stop-color="#ab6b00"/><stop offset="1" stop-color="#764a00"/></linearGradient><linearGradient x1="-12.053" x2="-9.09" y1="16.643" y2="16.643" xlink:href="#i" gradientUnits="userSpaceOnUse"/><linearGradient><stop offset="0" stop-color="#ab6b00"/><stop offset="1" stop-color="#764a00"/></linearGradient><linearGradient x1="-12.053" x2="-9.09" y1="16.643" y2="16.643" xlink:href="#i" gradientUnits="userSpaceOnUse"/><linearGradient><stop offset="0" stop-color="#ab6b00"/><stop offset="1" stop-color="#764a00"/></linearGradient><linearGradient x1="-12.053" x2="-9.09" y1="16.643" y2="16.643" xlink:href="#i" gradientUnits="userSpaceOnUse"/><linearGradient><stop offset="0" stop-color="#ab6b00"/><stop offset="1" stop-color="#764a00"/></linearGradient><linearGradient x1="-12.053" x2="-9.09" y1="16.643" y2="16.643" xlink:href="#i" gradientUnits="userSpaceOnUse"/><linearGradient><stop offset="0" stop-color="#ab6b00"/><stop offset="1" stop-color="#764a00"/></linearGradient><linearGradient x1="-12.053" x2="-9.09" y1="16.643" y2="16.643" xlink:href="#i" gradientUnits="userSpaceOnUse"/><linearGradient><stop offset="0" stop-color="#ab6b00"/><stop offset="1" stop-color="#764a00"/></linearGradient><linearGradient x1="-12.053" x2="-9.09" y1="16.643" y2="16.643" xlink:href="#i" gradientUnits="userSpaceOnUse"/><linearGradient><stop offset="0" stop-color="#ab6b00"/><stop offset="1" stop-color="#764a00"/></linearGradient><linearGradient x1="-12.053" x2="-9.09" y1="16.643" y2="16.643" gradientUnits="userSpaceOnUse" xlink:href="#i"/><linearGradient x1="888.744" x2="876.696" y1="648.2" y2="648.2" gradientUnits="userSpaceOnUse" gradientTransform="translate(-855.345 -636.771)"><stop offset="0" stop-color="#fff" stop-opacity="0"/><stop offset="1" stop-color="#acd5f9"/></linearGradient><linearGradient><stop offset="0" stop-color="#9cc8f7" stop-opacity="0"/><stop offset="1" stop-color="#9cc8f7"/></linearGradient><radialGradient cx="16.657" cy="18.991" r="19.681" xlink:href="#j" fx="16.657" fy="18.991" gradientUnits="userSpaceOnUse"/><radialGradient cx="23.866" cy="23.92" r="23.92" xlink:href="#k" fx="23.866" fy="23.92" gradientUnits="userSpaceOnUse"/><radialGradient id="x" cx="824.329" cy="111.252" r="46.312" xlink:href="#l" gradientUnits="userSpaceOnUse" gradientTransform="translate(-823.738 -75.782)" fx="824.329" fy="111.252"/><radialGradient id="l" cx="824.329" cy="111.252" r="46.312" gradientUnits="userSpaceOnUse" fy="111.252" fx="824.329" gradientTransform="translate(-823.738 -75.782)"><stop offset=".006" stop-color="#FAAF3E"/><stop offset=".646" stop-color="#F17912"/><stop offset="1" stop-color="#DD680E"/></radialGradient><radialGradient id="y" cx="804.052" cy="127.362" r="71.221" xlink:href="#m" gradientUnits="userSpaceOnUse" fx="804.052" fy="127.362"/><radialGradient id="m" cx="804.052" cy="127.362" r="71.221" gradientUnits="userSpaceOnUse" fy="127.362" fx="804.052"><stop offset=".006" stop-color="#FAAF3E"/><stop offset=".646" stop-color="#F17912"/><stop offset="1" stop-color="#DD680E"/></radialGradient><radialGradient id="z" cx="824.328" cy="111.252" r="46.311" xlink:href="#n" gradientUnits="userSpaceOnUse" fx="824.328" fy="111.252"/><radialGradient id="n" cx="824.328" cy="111.252" r="46.311" gradientUnits="userSpaceOnUse" fy="111.252" fx="824.328"><stop offset=".006" stop-color="#FAAF3E"/><stop offset=".646" stop-color="#F17912"/><stop offset="1" stop-color="#DD680E"/></radialGradient><radialGradient id="A" cx="824.331" cy="111.252" r="46.304" xlink:href="#o" gradientUnits="userSpaceOnUse" fx="824.331" fy="111.252"/><radialGradient id="o" cx="824.331" cy="111.252" r="46.304" gradientUnits="userSpaceOnUse" fy="111.252" fx="824.331"><stop offset=".006" stop-color="#FAAF3E"/><stop offset=".646" stop-color="#F17912"/><stop offset="1" stop-color="#DD680E"/></radialGradient><radialGradient id="B" cx="824.325" cy="111.252" r="46.319" xlink:href="#p" gradientUnits="userSpaceOnUse" fx="824.325" fy="111.252"/><radialGradient id="p" cx="824.325" cy="111.252" r="46.319" gradientUnits="userSpaceOnUse" fy="111.252" fx="824.325"><stop offset=".006" stop-color="#FAAF3E"/><stop offset=".646" stop-color="#F17912"/><stop offset="1" stop-color="#DD680E"/></radialGradient><radialGradient id="C" cx="824.327" cy="111.253" r="46.314" xlink:href="#q" gradientUnits="userSpaceOnUse" fx="824.327" fy="111.253"/><radialGradient id="q" cx="824.327" cy="111.253" r="46.314" gradientUnits="userSpaceOnUse" fy="111.253" fx="824.327"><stop offset=".006" stop-color="#FAAF3E"/><stop offset=".646" stop-color="#F17912"/><stop offset="1" stop-color="#DD680E"/></radialGradient><radialGradient id="D" cx="824.326" cy="111.252" r="46.315" xlink:href="#r" gradientUnits="userSpaceOnUse" fx="824.326" fy="111.252"/><radialGradient id="r" cx="824.326" cy="111.252" r="46.315" gradientUnits="userSpaceOnUse" fy="111.252" fx="824.326"><stop offset=".006" stop-color="#FAAF3E"/><stop offset=".646" stop-color="#F17912"/><stop offset="1" stop-color="#DD680E"/></radialGradient><radialGradient id="E" cx="824.328" cy="111.252" r="46.311" xlink:href="#s" gradientUnits="userSpaceOnUse" fx="824.328" fy="111.252"/><radialGradient id="s" cx="824.328" cy="111.252" r="46.311" gradientUnits="userSpaceOnUse" fy="111.252" fx="824.328"><stop offset=".006" stop-color="#FAAF3E"/><stop offset=".646" stop-color="#F17912"/><stop offset="1" stop-color="#DD680E"/></radialGradient><radialGradient id="F" cx="824.328" cy="111.253" r="46.311" xlink:href="#t" gradientUnits="userSpaceOnUse" fx="824.328" fy="111.253"/><radialGradient id="t" cx="824.328" cy="111.253" r="46.311" gradientUnits="userSpaceOnUse" fy="111.253" fx="824.328"><stop offset=".006" stop-color="#FAAF3E"/><stop offset=".646" stop-color="#F17912"/><stop offset="1" stop-color="#DD680E"/></radialGradient><radialGradient id="G" cx="824.328" cy="111.251" r="46.31" xlink:href="#u" gradientUnits="userSpaceOnUse" fx="824.328" fy="111.251"/><radialGradient id="u" cx="824.328" cy="111.251" r="46.31" gradientUnits="userSpaceOnUse" fy="111.251" fx="824.328"><stop offset=".006" stop-color="#FAAF3E"/><stop offset=".646" stop-color="#F17912"/><stop offset="1" stop-color="#DD680E"/></radialGradient><radialGradient id="H" cx="824.325" cy="111.253" r="46.316" xlink:href="#v" gradientUnits="userSpaceOnUse" fx="824.325" fy="111.253"/><radialGradient id="v" cx="824.325" cy="111.253" r="46.316" gradientUnits="userSpaceOnUse" fy="111.253" fx="824.325"><stop offset=".006" stop-color="#FAAF3E"/><stop offset=".646" stop-color="#F17912"/><stop offset="1" stop-color="#DD680E"/></radialGradient><radialGradient id="I" cx="824.33" cy="111.252" r="46.307" xlink:href="#w" gradientUnits="userSpaceOnUse" fx="824.33" fy="111.252"/><radialGradient id="w" cx="824.33" cy="111.252" r="46.307" gradientUnits="userSpaceOnUse" fy="111.252" fx="824.33"><stop offset=".006" stop-color="#FAAF3E"/><stop offset=".646" stop-color="#F17912"/><stop offset="1" stop-color="#DD680E"/></radialGradient></defs><path fill-opacity=".251" fill-rule="evenodd" d="M-84.4 792.64c260.64-77.9 495.44-75.22 782.57 0L525.45 489.87c-152.88-38.5-304.8-41.64-449.15 0L-84.4 792.64z"/><path fill="#d3d7cf" fill-rule="evenodd" stroke="#555753" stroke-width="16.5" d="M-84.4 749.03c260.64-77.9 495.44-75.22 782.57 0L525.45 446.27c-152.88-38.5-304.8-41.65-449.15 0L-84.4 749.03z" stroke-linejoin="round"/><path fill="none" stroke="#fff" stroke-opacity=".502" stroke-width="16.5" d="M-51.54 721.8c235.35-66.32 452.17-60.75 716.02.83L515.7 461.33c-143.16-36.3-299.75-39.45-428.56-.84L-51.54 721.8z"/><path fill="#fce94f" fill-rule="evenodd" stroke="#c4a000" stroke-width="8.967" d="M70.74 568.54C48.92 503.2 50.6 453.22 76.9 392.72c4.75-10.9-12.47-19.8-20.23-5.8-33.02 59.55-28.2 123.02-9.46 187.97 4.76 16.44 28.44 8.32 23.54-6.36z"/><path fill="#fce94f" fill-rule="evenodd" stroke="#c4a000" stroke-width="8.967" d="M189.2 475.08c-21.83-71.86-20.15-126.8 6.15-193.32 4.74-12-12.47-21.77-20.23-6.38-33.02 65.48-28.22 135.26-9.47 206.68 4.75 18.08 28.44 9.15 23.54-6.98z"/><path fill="#fce94f" fill-rule="evenodd" stroke="#c4a000" stroke-width="8.967" d="M291.6 434.78c-9.6-83.45 1.2-143.83 38.16-212.44 6.67-12.37-8.68-26.36-18.9-10.8-43.42 66.2-50.27 144.2-43.63 226.58 1.68 20.86 26.52 15.4 24.37-3.34z"/><path fill="#fce94f" fill-rule="evenodd" stroke="#c4a000" stroke-width="8.967" d="M232.3 618.54c-16.4-60.22-10.64-104.9 20.52-157.22 5.62-9.43-10.8-18.67-19.7-6.7-37.77 50.98-38.17 108.26-24.8 167.88 3.4 15.1 27.66 9.56 23.97-3.96z"/><path fill="#fce94f" fill-rule="evenodd" stroke="#c4a000" stroke-width="8.967" d="M368.55 651.7c-3.48-56 10.5-94.22 49.43-134.5 7.02-7.25-6.37-18.4-16.9-9.5-44.77 37.86-56.25 88.15-55.45 143.06.2 13.9 23.7 13.5 22.92.94z"/><path fill="#fce94f" fill-rule="evenodd" stroke="#c4a000" stroke-width="8.967" d="M432.5 476.25c-6.45-74.83 6.6-128.22 46.1-187.85 7.13-10.75-7.7-23.87-18.47-10.43-45.87 57.2-55.64 126.48-52.1 200.23.9 18.68 25.92 14.85 24.47-1.95z"/><path fill="#fce94f" fill-rule="evenodd" stroke="#c4a000" stroke-width="8.967" d="M477.64 592.38c-5.2-83.84 8.74-143.57 49.27-210.14 7.32-12-7.28-26.8-18.3-11.8-46.83 63.84-57.77 141.37-55.46 224 .58 20.92 25.67 16.76 24.5-2.06z"/><path fill="#fce94f" fill-rule="evenodd" stroke="#c4a000" stroke-width="8.967" d="M560.9 538.92c-7-99.87 16.88-167.56 60.16-250.44 6.7-12.82-9.14-32.35-17.92-17.58-48.66 81.8-70.88 168.47-67.74 266.93.72 22.32 26.93 21.44 25.5 1.1z"/><g><g fill="none" stroke="#803912" stroke-width="1.242"><path d="M40.68 373.1c.76 4.15 60.17 119.34 62.43 123.52 2.3 4.17-14.32 14.53-16.44 10.46C49.8 434.78 24.6 389.56 21.8 386.4 20 384.35 40.3 371 40.7 373.1z"/><path d="M104.68 331c.76 4.12 64.38 122.44 66.64 126.62 2.3 4.17-14.33 14.53-16.47 10.44-36.84-72.32-66.74-120.5-69.5-123.62-1.85-2.12 18.95-15.6 19.33-13.45z"/><path d="M164.05 292.3c.75 4.13 47.2 80.34 72.57 126.62 2.26 4.18-14.36 14.52-16.5 10.45-38.02-70.18-71.98-122.12-74.78-125.28-1.83-2.1 18.32-13.94 18.7-11.8z"/><path d="M284.08 220.46c.76 4.15 52.47 78.73 77.8 125 2.3 4.16-14.33 14.54-16.47 10.45-40.65-69.52-77.22-121.8-80.02-124.94-1.84-2.1 18.3-12.62 18.7-10.5z"/><path d="M342.45 188c.76 4.13 50.83 72.8 80.04 122.98 2.4 4.13-13.3 12.94-15.46 8.86-43.26-67.9-80.83-118.5-83.6-121.67-1.84-2.1 18.62-12.3 19-10.17z"/><path d="M400.83 155.86c.74 4.14 69.52 99.05 81.33 121.66 2.2 4.23-13.3 12.94-15.43 8.86-46.57-66.9-81.18-116.54-83.94-119.7-1.86-2.1 17.63-12.96 18.03-10.82z"/><path d="M458.54 128.63c.76 4.14 62.64 84.94 81.65 114.78 2.55 4-13.3 12.92-15.43 8.88-36.37-51.15-80.85-110.98-83.63-114.14-1.83-2.1 17.02-11.63 17.4-9.5z"/><path d="M515.93 101.42c.76 4.14 61.33 79.04 80.35 108.9 2.54 4-13.3 12.9-15.43 8.83-36.4-51.14-81.5-105.04-84.27-108.22-1.83-2.1 18.97-11.63 19.35-9.5z"/><path d="M576.95 79.44c.76 4.15 35.08 44.96 73.8 99.03 2.75 3.9-13.3 12.95-15.45 8.88-36.4-51.16-74.3-96.2-77.07-99.38-1.83-2.1 18.32-10.65 18.72-8.53z"/><path d="M223.74 252.77c2.02 3.7 45.1 79.5 76.24 129.17 2.52 4.04-14.33 14.54-16.47 10.45-38.96-66.52-76.35-124.63-79.1-127.77-1.88-2.1 17.6-15.04 19.34-11.86z"/></g><path fill="url(#x)" stroke="#803912" stroke-width=".669" d="M40.28 19.28c.4-.2 3.7 4.05 4.2 4.53.2.2 1.6-.72 1.33-1.15-1.4-2.37-4.36-6.52-5.02-7.26-.66-.76-1.37-.8-1.92-.6-8.14 2.82-28.73 13.46-38 20.57-.62.48-.58 1.22-.38 1.82.32.92 3.24 5.88 5.52 8.84.36.46 1.87-.46 1.67-.94-.6-1.43-2.77-5.92-2.52-6.3C18 28.93 28.55 23.84 40.28 19.3z" transform="matrix(17.265 0 0 17.265 -90.133 -249.311)"/><g transform="matrix(17.265 0 0 17.265 -14311.97 -1557.687)"><radialGradient cx="804.052" cy="127.362" r="71.221" fx="804.052" fy="127.362" gradientUnits="userSpaceOnUse"><stop offset=".006" stop-color="#FAAF3E"/><stop offset=".646" stop-color="#F17912"/><stop offset="1" stop-color="#DD680E"/></radialGradient><path fill="url(#y)" d="M863.54 93.9c-11.92 4.64-22.52 9.77-35.42 19.7l-.16.12-.1.17s-.25.75-.25.75c0 .67.4 1.67 1.95 5.13l.58 1.3s0-.08.02-.1c.1.24.2.53.2.53l.82-.47-.22-.33-.58-1.3c-1.26-2.8-1.86-4.2-1.86-4.75l.1-.26s0-.03.02-.05c.03-.02.05-.04.05-.04 12.8-9.85 23.35-14.95 35.22-19.57.4-.18.9.24 3.5 3.38 0 0 .73.86.73.86l.7-.6-.74-.83c-2.78-3.34-3.48-4.1-4.56-3.63z"/></g><g transform="matrix(17.265 0 0 17.265 -14311.97 -1557.687)"><radialGradient cx="824.328" cy="111.252" r="46.311" fx="824.328" fy="111.252" gradientUnits="userSpaceOnUse"><stop offset=".006" stop-color="#FAAF3E"/><stop offset=".646" stop-color="#F17912"/><stop offset="1" stop-color="#DD680E"/></radialGradient><path fill="url(#z)" d="M831.33 111.83c.05.24 3.5 6.92 3.62 7.16.13.23-.83.83-.95.6-2.14-4.2-3.6-6.8-3.76-7-.1-.12 1.07-.9 1.1-.77z"/><radialGradient cx="824.331" cy="111.252" r="46.304" fx="824.331" fy="111.252" gradientUnits="userSpaceOnUse"><stop offset=".006" stop-color="#FAAF3E"/><stop offset=".646" stop-color="#F17912"/><stop offset="1" stop-color="#DD680E"/></radialGradient><path fill="url(#A)" d="M835.04 109.4c.04.23 3.73 7.1 3.86 7.33.13.24-.83.84-.95.6-2.14-4.18-3.87-6.97-4.03-7.16-.1-.12 1.1-.9 1.12-.77z"/><radialGradient cx="824.325" cy="111.252" r="46.319" fx="824.325" fy="111.252" gradientUnits="userSpaceOnUse"><stop offset=".006" stop-color="#FAAF3E"/><stop offset=".646" stop-color="#F17912"/><stop offset="1" stop-color="#DD680E"/></radialGradient><path fill="url(#B)" d="M838.48 107.15c.04.24 2.73 4.66 4.2 7.34.13.23-.83.83-.95.6-2.2-4.07-4.17-7.08-4.34-7.26-.1-.13 1.06-.8 1.08-.7z"/><radialGradient cx="824.327" cy="111.253" r="46.314" fx="824.327" fy="111.253" gradientUnits="userSpaceOnUse"><stop offset=".006" stop-color="#FAAF3E"/><stop offset=".646" stop-color="#F17912"/><stop offset="1" stop-color="#DD680E"/></radialGradient><path fill="url(#C)" d="M845.43 103c.05.23 3.04 4.55 4.5 7.23.14.24-.82.84-.95.6-2.35-4.02-4.47-7.05-4.63-7.23-.1-.12 1.06-.73 1.08-.6z"/><radialGradient cx="824.326" cy="111.252" r="46.315" fx="824.326" fy="111.252" gradientUnits="userSpaceOnUse"><stop offset=".006" stop-color="#FAAF3E"/><stop offset=".646" stop-color="#F17912"/><stop offset="1" stop-color="#DD680E"/></radialGradient><path fill="url(#D)" d="M848.8 101.1c.06.25 2.96 4.23 4.65 7.14.14.24-.77.75-.9.5-2.5-3.92-4.68-6.85-4.84-7.04-.1-.12 1.1-.7 1.1-.6z"/><radialGradient cx="824.328" cy="111.252" r="46.311" fx="824.328" fy="111.252" gradientUnits="userSpaceOnUse"><stop offset=".006" stop-color="#FAAF3E"/><stop offset=".646" stop-color="#F17912"/><stop offset="1" stop-color="#DD680E"/></radialGradient><path fill="url(#E)" d="M852.2 99.25c.04.24 4.02 5.74 4.7 7.05.13.24-.77.75-.9.5-2.7-3.86-4.7-6.74-4.85-6.92-.1-.12 1.02-.75 1.04-.63z"/><radialGradient cx="824.328" cy="111.253" r="46.311" fx="824.328" fy="111.253" gradientUnits="userSpaceOnUse"><stop offset=".006" stop-color="#FAAF3E"/><stop offset=".646" stop-color="#F17912"/><stop offset="1" stop-color="#DD680E"/></radialGradient><path fill="url(#F)" d="M855.54 97.67c.04.24 3.62 4.92 4.72 6.65.15.23-.77.75-.9.52-2.1-2.97-4.67-6.43-4.83-6.62-.1-.12.98-.67 1-.55z"/><radialGradient cx="824.328" cy="111.251" r="46.31" fx="824.328" fy="111.251" gradientUnits="userSpaceOnUse"><stop offset=".006" stop-color="#FAAF3E"/><stop offset=".646" stop-color="#F17912"/><stop offset="1" stop-color="#DD680E"/></radialGradient><path fill="url(#G)" d="M858.86 96.1c.04.24 3.55 4.58 4.65 6.3.16.24-.76.75-.88.52-2.1-2.97-4.72-6.1-4.88-6.27-.1-.12 1.1-.68 1.12-.55z"/><radialGradient cx="824.325" cy="111.253" r="46.316" fx="824.325" fy="111.253" gradientUnits="userSpaceOnUse"><stop offset=".006" stop-color="#FAAF3E"/><stop offset=".646" stop-color="#F17912"/><stop offset="1" stop-color="#DD680E"/></radialGradient><path fill="url(#H)" d="M862.4 94.83c.04.24 2.03 2.6 4.27 5.73.16.23-.77.75-.9.52-2.1-2.97-4.3-5.58-4.46-5.76-.1-.12 1.07-.62 1.1-.5z"/><radialGradient cx="824.33" cy="111.252" r="46.307" fx="824.33" fy="111.252" gradientUnits="userSpaceOnUse"><stop offset=".006" stop-color="#FAAF3E"/><stop offset=".646" stop-color="#F17912"/><stop offset="1" stop-color="#DD680E"/></radialGradient><path fill="url(#I)" d="M841.94 104.86c.1.22 2.6 4.6 4.4 7.5.16.22-.82.83-.94.6-2.26-3.86-4.42-7.23-4.58-7.4-.1-.13 1.02-.88 1.12-.7z"/></g></g><path fill="#fce94f" fill-rule="evenodd" stroke="#c4a000" stroke-width="8.967" d="M316.02 545.14c-5.92-70.3 7.5-120.37 47.44-176.1 7.2-10.05-7.52-22.47-18.4-9.92-46.28 53.42-56.54 118.4-53.52 187.7.76 17.54 25.8 14.1 24.48-1.68z"/></svg>