<svg xmlns="http://www.w3.org/2000/svg" width="48" height="48"><defs><radialGradient id="a" cx="604.634" cy="3058.549" r="20.151" gradientUnits="userSpaceOnUse" gradientTransform="matrix(0 -1 1 0 -3050.021 1052.331)" fy="3058.549" fx="604.634"><stop offset="0" stop-color="#fff"/><stop offset=".115" stop-color="#F9F9F9"/><stop offset=".275" stop-color="#E7E8EA"/><stop offset=".461" stop-color="#C9CCD0"/><stop offset=".666" stop-color="#A0A5AD"/><stop offset=".737" stop-color="#90969F"/><stop offset="1" stop-color="#fff"/></radialGradient><linearGradient id="b" x1="-82.784" x2="-73.886" y1="445.324" y2="452.882" gradientTransform="matrix(0 -1.019 1.019 0 -426.572 -64.837)" gradientUnits="userSpaceOnUse"><stop offset="0" stop-color="#fff"/><stop offset=".14" stop-color="#FDE7E7"/><stop offset=".434" stop-color="#F8AAAB"/><stop offset=".856" stop-color="#F04A4A"/><stop offset="1" stop-color="#ED2728"/></linearGradient><linearGradient id="c" x1="-99.734" x2="-82.905" y1="437.927" y2="437.927" gradientTransform="matrix(0 -1.019 1.019 0 -426.572 -64.837)" gradientUnits="userSpaceOnUse"><stop offset="0" stop-color="#E8B96D"/><stop offset=".074" stop-color="#E8B96D"/><stop offset="1" stop-color="#E8B96D"/></linearGradient><linearGradient id="d" x1="-92.309" x2="-90.835" y1="439.655" y2="438.18" gradientTransform="matrix(0 -1.019 1.019 0 -426.572 -64.837)" gradientUnits="userSpaceOnUse"><stop offset=".169" stop-color="#8F5810"/><stop offset=".256" stop-color="#9A641B"/><stop offset=".411" stop-color="#B68239"/><stop offset=".617" stop-color="#E4B468"/><stop offset=".635" stop-color="#E8B96D"/><stop offset="1" stop-color="#C17D10"/></linearGradient><linearGradient id="e" x1="-103.483" x2="-88.07" y1="444.401" y2="459.628" gradientTransform="matrix(0 -1.019 1.019 0 -426.572 -64.837)" gradientUnits="userSpaceOnUse"><stop offset=".006" stop-color="#fff"/><stop offset=".06" stop-color="#FEF4EC"/><stop offset=".171" stop-color="#FAD7B9"/><stop offset=".326" stop-color="#F5A969"/><stop offset=".475" stop-color="#EF7916"/><stop offset=".961" stop-color="#CB130C"/></linearGradient><linearGradient id="f" x1="-114.143" x2="-98.761" y1="470.882" y2="486.265" gradientTransform="matrix(0 -1 1 0 -444.749 340.474)" gradientUnits="userSpaceOnUse"><stop offset="0" stop-color="#fff"/><stop offset=".318" stop-color="#F7AF3E"/><stop offset="1" stop-color="#F12523"/></linearGradient></defs><g><g transform="matrix(1.019 0 0 1.019 -.429 -422.788)"><radialGradient cx="604.634" cy="3058.549" r="20.151" gradientUnits="userSpaceOnUse" gradientTransform="matrix(0 -1 1 0 -3050.021 1052.331)" fy="3058.549" fx="604.634"><stop offset="0" stop-color="#fff"/><stop offset=".115" stop-color="#F9F9F9"/><stop offset=".275" stop-color="#E7E8EA"/><stop offset=".461" stop-color="#C9CCD0"/><stop offset=".666" stop-color="#A0A5AD"/><stop offset=".737" stop-color="#90969F"/><stop offset="1" stop-color="#fff"/></radialGradient><path fill="url(#a)" stroke="#41464c" stroke-width=".687" d="M16.97 448.2c3.2 3.62 5.74 9.14 4.9 13.64 0 0-5.9-7.2-18.47-1.35 2.88-4.62 1.5-20.08-2.64-18.17 6.22-1 11.52.58 16.2 5.87z"/></g><path fill="url(#b)" stroke="#ed2728" stroke-width=".5" d="M12.04 34.24s.28.18 1.2-.8c5.8-6.22 18.56-18.6 25.47-29.4-5.77 15.2-22.95 27.77-23.46 32.15 0 .84-1.42.63-2.4 0-1-.64-1.25-2.02-.8-1.96z" opacity=".5"/><path fill="url(#c)" stroke="#59370a" stroke-width=".7" d="M12.04 34.24s.28.18 1.2-.8c5.8-6.22 5.57-4.47 13.94-13.83-5.28 9.63-11.43 12.2-11.94 16.6 0 .84-1.42.63-2.4 0-1-.64-1.25-2.02-.8-1.96z"/><path fill="url(#d)" d="M12.04 34.24s.28.18 1.2-.8c5.8-6.22 5.6-3.68 13.94-13.83-4.95 9.97-11.43 12.2-11.94 16.6 0 .84-1.42.63-2.4 0-1-.64-1.25-2.02-.8-1.96z"/><path fill="url(#e)" stroke="#590c08" d="M28.63 43.13L41.67 30.1l3.8 3.8c.16.16.4.16.56 0 .07-.07.1-.17.1-.27l1.04-13.5c0-.45-.35-.8-.78-.8l-13.52 1.03c-.1 0-.2.03-.28.12-.16.15-.16.4 0 .55l3.8 3.8-13.04 13.03"/><g transform="matrix(1.019 0 0 1.019 -.429 -422.788)"><linearGradient x1="-114.143" x2="-98.761" y1="470.882" y2="486.265" gradientTransform="matrix(0 -1 1 0 -444.749 340.474)" gradientUnits="userSpaceOnUse"><stop offset="0" stop-color="#fff"/><stop offset=".318" stop-color="#F7AF3E"/><stop offset="1" stop-color="#F12523"/></linearGradient><path fill="url(#f)" d="M46.2 434.33l-13.5.96s-.26.06-.12.2l3.94 3.94c-.62.62-12.98 12.97-12.98 12.97l.7.72 13.7-13.68s-2.35-2.34-3.04-3.05l10.23-.8-.77 10.26c-.7-.7-3.03-3.03-3.03-3.03l-13.7 13.68.72.73 12.98-12.98 3.8 3.8c.42.4.33-.22.33-.22l1-13.2-.26-.3z"/></g></g></svg>