<svg xmlns="http://www.w3.org/2000/svg" width="48" height="48" xmlns:xlink="http://www.w3.org/1999/xlink" version="1" viewBox="0 0 612 792" enable-background="new 0 0 612 792"><defs><linearGradient id="f"><stop offset="0" stop-color="#efad29"/><stop offset="1" stop-color="#ef2929"/></linearGradient><linearGradient id="e"><stop offset="0" stop-color="#533301"/><stop offset="1" stop-color="#533301" stop-opacity="0"/></linearGradient><linearGradient id="d"><stop offset="0" stop-color="#c17d11"/><stop offset="1" stop-color="#905e0d"/></linearGradient><linearGradient id="b"><stop offset="0" stop-color="#8f5902"/><stop offset="1" stop-color="#c17d11"/></linearGradient><linearGradient id="a"><stop offset="0" stop-color="#563601"/><stop offset="1" stop-color="#8f5902"/></linearGradient><linearGradient id="h" x1="43.555" x2="39.007" y1="145.107" y2="253.83" xlink:href="#a" gradientUnits="userSpaceOnUse" gradientTransform="matrix(1.098 0 0 1.097 186.159 144.254)"/><linearGradient x1="28.036" x2="31.482" y1="12.804" y2="16.446" xlink:href="#b" gradientUnits="userSpaceOnUse" gradientTransform="matrix(20.309 0 0 22.478 -211.343 -73.645)"/><linearGradient x1="-307.591" x2="-301.379" y1="95.086" y2="102.321" xlink:href="#c" gradientUnits="userSpaceOnUse" gradientTransform="matrix(17.4 0 0 17.4 5827.047 -1355.889)"/><linearGradient id="c"><stop offset="0" stop-color="#c17d11"/><stop offset="1" stop-color="#e9b96e"/></linearGradient><linearGradient x1="462.153" x2="491.654" y1="320.101" y2="456.358" xlink:href="#d" gradientUnits="userSpaceOnUse" gradientTransform="matrix(1.055 0 0 1.055 -14.771 -3.328)"/><linearGradient id="i" x1="29.938" x2="30.581" y1="6.051" y2="7.677" xlink:href="#e" gradientUnits="userSpaceOnUse" gradientTransform="matrix(22.584 0 0 22.665 -255.056 87.578)"/><linearGradient id="g" x1="70.58" x2="65.866" y1="33.147" y2="415.004" xlink:href="#f" gradientUnits="userSpaceOnUse"/></defs><path fill="url(#g)" stroke="#a40000" stroke-width="16.5" d="M69.1 11.5L-70.54 153.8h65.4v272.25H136.3V152.92h71.58z"/><path fill="none" stroke="#fff" stroke-width="8.25" d="M69.08 24.53L-42.27 142.86l41.8-.88v271.04H132V141.15l44.06-.88z"/><path fill="url(#h)" stroke="#533301" stroke-width="8.25" d="M323.66 286.6l41 399.67c.4 9.4 3.1 19.1 3.43 24.68-12.13 3.23-38.44 1.67-65.1 2.24-4.85.06-27.48 9.2-44.72 10.66-4.3.37.67-8.97-3-8.2-7.32 1.44-25.1 8.54-25.07 7 0-3.9 4.9-19.5 1.7-17.2-5.8 4.1-21.8 9.9-21.28 7.8 21.06-84.6-43.93-183.7-43.93-239.46 0-35.82 2.53-90.26 12-133.73 55.68-68.67 98.62-49.32 144.96-53.47z"/><path stroke="#000" stroke-width="16.5" d="M579.7 945.45c-10.25-15.17-39.57-37.2-55-47.46-28.4-18.98-47.96-17.02-79.28-10.06-38.33 8.46-71.06 34.9-99.82 72.78-42.82 56.22-62 49.4-66.3 38.1-17.96-70.62 68.15-182.8 69.36-270.06.04-2.75.15-6 .26-9.4.6-12.98.2-27.38.2-27.38s-38.95 5.92-68.3 6.6c-16.95.26-32.23-1.2-38.28-6.92-13.9-13.18-26.36-41.2-21.98-89.35 4.45-48.16-9.86-77.06-5.6-104.73 3.28-20.96 16.06-50.2 25.04-67.92 12.55-24.77 17.04-50.97 25.1-77.8 11.17-37 30.25-75.37 60.9-100.14 9.78-7.87 21.64-13.05 33.74-18.4 50.95-22.43 201.58 4.42 255.65 78.98 28.8 39.74 54.42 144.9 21.86 235.58-22.5 62.67-70.26 91.55-77.75 102.3-11.25 16.13-22.6 37.22-19.7 54.26 2.7 15.72 7.12 30.05 14.8 40.9.24 62.86 3.63 76.53 6 89.63 2.38 13.04 20.75 88.65 19.1 110.5z"/><path fill="none" stroke="#888a85" stroke-width="8.25" d="M574.62 934.1c-9.9-14.64-38.2-35.9-53.1-45.82-27.4-18.3-46.3-16.42-76.52-9.7-37 8.17-68.6 33.7-96.35 70.28-41.33 54.28-59.86 47.7-64 36.8-17.34-68.2 65.78-176.52 66.95-260.78.03-2.66.14-5.8.25-9.06.57-12.54.18-26.45.18-26.45s-37.58 5.7-65.92 6.37c-16.35.25-31.1-1.17-36.93-6.68-13.42-12.72-25.45-39.8-21.22-86.28 4.3-46.5-9.52-74.4-5.4-101.13 3.16-20.24 15.5-48.47 24.16-65.58 12.13-23.92 16.46-49.22 24.25-75.12 10.78-35.72 29.2-72.77 58.8-96.7 9.42-7.6 20.87-12.6 32.55-17.76 49.18-21.68 194.57 4.24 246.77 76.24 27.8 38.37 52.54 139.9 21.1 227.47-21.7 60.52-67.8 88.4-75.04 98.78-10.87 15.6-21.84 35.95-19.02 52.4 2.6 15.18 6.87 29.02 14.28 39.5.24 60.7 3.5 73.88 5.8 86.53 2.3 12.6 20.03 85.62 18.44 106.7z"/><path fill="#8f5902" stroke="#533301" stroke-width="8.25" d="M178.7 339.9c7.34-35.45 18.5-62.08 38.3-79.12 41.43-35.74 100.06-65.8 158.56-54.25 10.9 2.17 21.25 6.25 30.78 11.16 31.14-3.4 49.65-6.98 65.6-9.44 10.56-1.6 20-2.74 31.3-3.02 28.37-.62 56.8-4.55 74.5 14.14 16.5 17.4 37.6 25.63 53.25 30.2 28.4 8.35 53.23 44.3 62.1 102.6 8.82 58.26 1.72 92.48-12.44 111.32-4.18 5.55-7.67 12.45-11.06 21-17.73 45.27-23.3 93.53-49.7 135.45-19.7 31.3-41.3 58.64-24.86 80.06 14.96 19.4 11.44 21.6-13.1 22.22-8.84.22-3.8 10.46-9.6 18.8-3.62 5.1-15.32-3-24.24-9.87-9.74-7.5-15.25 32.03-24.27 25.9-23.86-15.92-39.97-52.26-38.3-91.27 2.06-48.22 30.15-117.44 30.15-129.4-6.18-14.58-28.37-47.14-33.72-81.56-7.04-45.6-46.08-38.95-38.8-74.18-11.7 6.7-18.37 4.1-30.04-11.98-37.82-52.14-69.7-83.33-89.46-84.88-47.75-3.74-106.52 15.27-144.97 56.1z" color="#000" overflow="visible" enable-background="accumulate"/><path fill="#af710f" d="M636.5 339.74c-4.02-3.44-7.24-7.02-10.44-10.07-7.47-7.1-11.8-15.5-26.05-13.06 7.33 4.65 3 26.45.2 29.37-1.6-13.67-18.04-23.93-22.17-25.04-4.14-1.08-23.8-6.2-16.54 1.33 2.36 2.53.6 10.13-2.85 16.86-.38.77-.8 1.54-1.3 2.3-.46.77-.98 1.57-1.53 2.27-1.07-10.87-6.7-19.44-10.36-24.3-7.96-10.67-32-19.9-4.6-17.36 7.82.75 24.9 12.33 28.56 4.13 2.26-5.07-.72-11.12-12.94-17.96 2.45.05 4.75.2 7 .45 2.1.22 4.15.53 6.08.94 27.2 5.3 40.7 23.54 40.16 15.2-.7-9.53-3.36-25.98-33.28-39.73 18.44-3.06 53.9 23.77 53.9 17.83 0-13.62-48.58-33.7-62.54-33.46-10.78.18 25.68-2.83 53.55 5.26 8.22 2.37 15.65 5.73 20.95 10.37 14.13 12.44 22.96 28.62 29.3 45.9 1.86 5 1.05 17-.16 35.46-.94 13.8-9.53-16.6-17.14-23.1-12.07-10.23-37.64-19.5-27.56-11.72 10.63 8.43 9.34 11.4 9.77 28.14z"/><path fill="#e19f38" d="M618.52 304.04c4.8 3.3 6.43 16.6 4.56 18.66-1-9.7-16.36-14.82-19.04-15.6-2.73-.76-15.68-4.37-10.9.93 1.55 1.8.4 7.17-1.87 11.93-.28.55-.53 1.1-.86 1.64-.3.55-.6 1.1-1.02 1.58-.67-7.7-4.38-13.75-6.77-17.2-5.24-7.55-20.84-15.3-3.25-11.06 8.17 1.97 21.38 8.64 30.63 10.2 4.5-2.8 1.7-9.1 2.87-12.04 1.47-3.6-.46-7.87-8.52-12.68 1.62 0 3.15.1 4.6.33 1.4.15 2.72.37 4 .66 17.9 3.74 27.13 15.45 26.72 9.55-.42-6.75-1.25-6.56-1.25-10.75 0-9.64-31.95-23.87-41.13-23.7-7.12.1 16.9-2 35.2 3.7 5.42 1.7 10.3 4.07 13.77 7.37 9.3 8.8 15.08 20.27 19.28 32.48 1.2 3.57.7 12.02-.1 25.1-.6 9.74-6.3-11.75-11.27-16.35-7.97-7.22-23-13.8-16.4-8.27 3.25 2.77 5.1 4.92 5.1 9.23-9.56-4.64-19.3-6.64-24.33-5.72z"/><path fill="none" stroke="#e9b96e" stroke-width="8.25" stroke-miterlimit="10" d="M499.7 311.7c-20.6 19.27-24.4 30.45-35.14 39.86-11.94 10.5-18.45 20.8-24.9 24.64" stroke-linecap="round" stroke-linejoin="round"/><g fill="none" stroke="#5e3a01" stroke-width=".941"><path d="M409.35 219.03c19.65 10.2 29.86 20.8 40.88 28.74"/><path d="M502.03 314.68c-20.6 19.3-24.4 30.45-35.13 39.88-11.98 10.48-18.47 20.75-24.95 24.6-2.92 17.37 2.85 26.95 21.1 39.76 19.65 13.8 15.2 44.62 29.38 71.1 14.18 26.48 20.9 48.08 40.84 66.7 17.84 16.66 36.6 25.76 48.32 25.76-9.37-22.68-12.68-30.42-12.68-30.42s19.65 16.08 25.94 17.35c-5.32-10.27-8-15.4-8-15.4s12 6.38 18.63 2.58c-16.64-18-7.37-56.15-14.95-80.14"/><path d="M180.45 337.36c33.77-40.2 77.5-51.92 129.44-52.93 44.67-.87 89.97 59.02 111.58 89.36 2.24 1.84 6.7 7.7 14.7 5.83 7.98-1.83 7.98-2.15 11.16-4.92"/></g><path fill="#8f5902" stroke="url(#i)" stroke-width="8.25" d="M369.24 294c-55.56-24.07-205.5-12.9-287.76 13.77 56.1-48.2 116.92-58.1 177.6-72.84-52.9-8.44-106.64-11-162.06-1.65 45.05-40.55 139.37-46.12 212.93-15.78-44.8-53.72-119.33-66.44-188.74-86.2 92.44-7.7 175.63 2.26 235.94 55.84 10.14-29.14-26.42-58.28-73.8-87.42 67.5 12.73 98.96 31.73 142.76 85-5.34-26.3-12.1-51.4-35.1-81.36 46.5 15.6 103.85 48.44 160.93 142.06-85.4-13.36-127.96 21.47-182.7 48.57z" color="#000" overflow="visible" enable-background="accumulate"/></svg>