<svg xmlns="http://www.w3.org/2000/svg" width="48" height="48"><defs><radialGradient id="a" cx="855.36" cy="3346.831" r="58.617" gradientUnits="userSpaceOnUse" gradientTransform="matrix(0 -1 1 0 -3050.021 1052.331)" fy="3346.831" fx="855.36"><stop offset="0" stop-color="#fff"/><stop offset=".064" stop-color="#EAECED"/><stop offset=".2" stop-color="#C4C7CC"/><stop offset=".342" stop-color="#A4AAB0"/><stop offset=".489" stop-color="#8B929B"/><stop offset=".642" stop-color="#7A828C"/><stop offset=".806" stop-color="#6F7883"/><stop offset="1" stop-color="#6C7580"/></radialGradient><linearGradient id="b" x1="308.298" x2="313.789" y1="193.316" y2="206.518" gradientUnits="userSpaceOnUse" gradientTransform="translate(-287.949 -163.888)"><stop offset=".006" stop-color="#fff"/><stop offset=".12" stop-color="#FEFDFA"/><stop offset=".248" stop-color="#FAF5ED"/><stop offset=".382" stop-color="#F5E9D7"/><stop offset=".52" stop-color="#ECD8B8"/><stop offset=".662" stop-color="#E2C28F"/><stop offset=".806" stop-color="#D5A85E"/><stop offset=".95" stop-color="#C78925"/><stop offset="1" stop-color="#C17D10"/></linearGradient><linearGradient id="c" x1="303.868" x2="308.392" y1="183.236" y2="194.115" gradientUnits="userSpaceOnUse" gradientTransform="translate(-287.949 -163.888)"><stop offset=".006" stop-color="#fff"/><stop offset=".12" stop-color="#FEFDFA"/><stop offset=".248" stop-color="#FAF5ED"/><stop offset=".382" stop-color="#F5E9D7"/><stop offset=".52" stop-color="#ECD8B8"/><stop offset=".662" stop-color="#E2C28F"/><stop offset=".806" stop-color="#D5A85E"/><stop offset=".95" stop-color="#C78925"/><stop offset="1" stop-color="#C17D10"/></linearGradient><linearGradient id="d" x1="1191.584" x2="1205.638" y1="4017.259" y2="4017.259" gradientTransform="matrix(0 -1 1 0 -4005.774 1215.338)" gradientUnits="userSpaceOnUse"><stop offset="0" stop-color="#E8B96D"/><stop offset=".074" stop-color="#E8B96D"/><stop offset="1" stop-color="#E8B96D"/></linearGradient><linearGradient id="e" x1="1197.786" x2="1199.016" y1="4018.701" y2="4017.47" gradientTransform="matrix(0 -1 1 0 -4005.774 1215.338)" gradientUnits="userSpaceOnUse"><stop offset=".169" stop-color="#8F5810"/><stop offset=".256" stop-color="#9A641B"/><stop offset=".411" stop-color="#B68239"/><stop offset=".617" stop-color="#E4B468"/><stop offset=".635" stop-color="#E8B96D"/><stop offset="1" stop-color="#C17D10"/></linearGradient><linearGradient id="f" x1="300.377" x2="302.981" y1="201.435" y2="199.043" gradientUnits="userSpaceOnUse" gradientTransform="translate(-287.949 -163.888)"><stop offset=".169" stop-color="#8F5810"/><stop offset=".256" stop-color="#9A641B"/><stop offset=".411" stop-color="#B68239"/><stop offset=".617" stop-color="#E4B468"/><stop offset=".635" stop-color="#E8B96D"/><stop offset=".769" stop-color="#E7B86B"/><stop offset=".835" stop-color="#E4B363"/><stop offset=".886" stop-color="#DEAA56"/><stop offset=".929" stop-color="#D79E43"/><stop offset=".967" stop-color="#CD8F2C"/><stop offset="1" stop-color="#C17D10"/></linearGradient><linearGradient id="g" x1="310.329" x2="312.484" y1="201.539" y2="198.922" gradientUnits="userSpaceOnUse" gradientTransform="translate(-287.949 -163.888)"><stop offset=".169" stop-color="#8F5810"/><stop offset=".256" stop-color="#9A641B"/><stop offset=".411" stop-color="#B68239"/><stop offset=".617" stop-color="#E4B468"/><stop offset=".635" stop-color="#E8B96D"/><stop offset="1" stop-color="#C17D10"/></linearGradient><linearGradient id="h" x1="308.267" x2="308.825" y1="191.574" y2="187.295" gradientUnits="userSpaceOnUse" gradientTransform="translate(-287.949 -163.888)"><stop offset=".169" stop-color="#8F5810"/><stop offset=".256" stop-color="#9A641B"/><stop offset=".411" stop-color="#B68239"/><stop offset=".617" stop-color="#E4B468"/><stop offset=".635" stop-color="#E8B96D"/><stop offset="1" stop-color="#C17D10"/></linearGradient><linearGradient id="i" x1="317.075" x2="322.727" y1="176.145" y2="193.713" gradientUnits="userSpaceOnUse" gradientTransform="translate(-287.949 -163.888)"><stop offset=".006" stop-color="#fff"/><stop offset=".06" stop-color="#FEF4EC"/><stop offset=".171" stop-color="#FAD7B9"/><stop offset=".326" stop-color="#F5A969"/><stop offset=".475" stop-color="#EF7916"/><stop offset=".961" stop-color="#CB130C"/></linearGradient><linearGradient id="j" x1="317.262" x2="322.756" y1="176.091" y2="196.786" gradientUnits="userSpaceOnUse"><stop offset="0" stop-color="#fff"/><stop offset=".318" stop-color="#F7AF3E"/><stop offset="1" stop-color="#F12523"/></linearGradient></defs><g><g transform="translate(-287.949 -163.888)"><radialGradient cx="855.36" cy="3346.831" r="58.617" gradientUnits="userSpaceOnUse" gradientTransform="matrix(0 -1 1 0 -3050.021 1052.331)" fy="3346.831" fx="855.36"><stop offset="0" stop-color="#fff"/><stop offset=".064" stop-color="#EAECED"/><stop offset=".2" stop-color="#C4C7CC"/><stop offset=".342" stop-color="#A4AAB0"/><stop offset=".489" stop-color="#8B929B"/><stop offset=".642" stop-color="#7A828C"/><stop offset=".806" stop-color="#6F7883"/><stop offset="1" stop-color="#6C7580"/></radialGradient><path fill="url(#a)" stroke="#41464c" stroke-width=".7" d="M289 183.86c5.7-.57 10.62 1.2 15.02 6.15 3.26 3.7 5.84 9.3 4.97 13.87 0 0-8.96-7.96-18.78-1.37 2.6-4.17 1.8-17.48-1.4-18.62l.18-.02z"/></g><path fill="url(#b)" d="M17.86 31.1c2.7 0 5.2 3.3 11.14 10.85-2.25-7.7-1.43-9.58-5.1-14.7-3.65-5.1-9.94-2.43-10.25-1.66 1 .77 3.2.43 4.2 5.5z"/><path fill="none" stroke="#59370a" stroke-width="1.5" d="M17.86 31.1s.4-.2 1.16-.2c1.2 0 3 1.33 10.1 11.22-8.9-9.08-9.88-10.36-10.54-8.04-.5.5-1.5-.77-1.7-1.7-.2-.95.57-1.3.98-1.3z"/><path fill="url(#c)" d="M19.13 17.92c8.92 5.8 8.68 9.77 8.68 9.77s-8.57-4.17-10.27-4.73c-1.7-.56-4.16 1.7-4.16 1.7-.72-2.97-4.03-6.28-6.86-7.1l12.63.35z"/><path fill="url(#d)" stroke="#59370a" stroke-width="1.5" d="M5.37 21.7s.23.14.98-.67c4.76-5.1 4.6-3 11.43-11.33-4.05 8.16-9.37 10-9.8 13.6 0 .7-1.15.52-1.96 0-.8-.53-1.02-1.66-.65-1.6z"/><path fill="url(#e)" d="M5.37 21.7s.23.14.98-.67c4.76-5.1 4.6-3 11.43-11.33-4.05 8.16-9.37 10-9.8 13.6 0 .7-1.15.52-1.96 0-.8-.53-1.02-1.66-.65-1.6z"/><path fill="none" stroke="#59370a" stroke-width="1.5" d="M13.37 24.66s.14.06.98-.65c3.68-3.1 6.03 1.18 13.46 3.7-7.32.33-10.33-5.7-11.8-1.43 0 .7-1.17.52-1.98 0-.8-.53-1-1.66-.65-1.6z"/><path fill="none" stroke="#59370a" stroke-width="1.5" d="M7.5 30.9s-.05-.53 1.04-.7c4.1-.7 5.42 2.9 10.65 12.5-2.76-2.75-7.9-12.18-9.02-10.25 0 .7-1.2 1-1.97.4-.43-.3-.84-1.34-.7-1.96z"/><path fill="url(#f)" d="M7.5 30.9s-.05-.53 1.04-.7c4.1-.7 5.42 2.9 10.65 12.5-2.76-2.75-7.9-12.18-9.02-10.25 0 .7-1.2 1-1.97.4-.43-.3-.84-1.34-.7-1.96z"/><path fill="url(#g)" d="M17.86 31.1s.4-.2 1.16-.2c1.2 0 3 1.33 10.1 11.22-8.9-9.08-9.88-10.36-10.54-8.04-.5.5-1.5-.77-1.7-1.7-.2-.95.57-1.3.98-1.3z"/><path fill="url(#h)" d="M13.37 24.66s.14.06.98-.65c3.68-3.1 6.03 1.18 13.46 3.7-7.32.33-10.33-5.7-11.8-1.43 0 .7-1.17.52-1.98 0-.8-.53-1-1.66-.65-1.6z"/><path fill="url(#i)" stroke="#590c08" stroke-width=".75" d="M27.47 12.02c3.93 2.63 9.72 7.43 12.34 16.03l7.87-1.44-7.86 17.22-16.44-12.76 7.64-1.4C26.88 17.7 16.4 15.98 16.4 15.98"/><g transform="translate(-287.949 -163.888)"><linearGradient x1="317.262" x2="322.756" y1="176.091" y2="196.786" gradientUnits="userSpaceOnUse"><stop offset="0" stop-color="#fff"/><stop offset=".318" stop-color="#F7AF3E"/><stop offset="1" stop-color="#F12523"/></linearGradient><path fill="url(#j)" d="M314.8 176.84c6.08 4.1 9.97 9.13 11.9 15.43l.28.95s5.57-1.02 6.72-1.22c-.5 1.1-6.03 13.2-6.37 13.95-.68-.52-12.17-9.43-13.34-10.34 1.26-.23 6.44-1.18 6.44-1.18l-.43-1.23c-4.27-12.47-15-14.37-15.47-14.44l-.12.74c.45.07 10.76 1.9 14.9 13.93 0 0 .07.2.14.4-.75.15-7.24 1.34-7.24 1.34l15.42 11.95 7.36-16.12s-6.88 1.26-7.48 1.37c-.05-.16-.1-.32-.1-.32-1.97-6.47-5.95-11.65-12.2-15.83l-.4.63z"/></g></g></svg>