<svg xmlns="http://www.w3.org/2000/svg" width="48" height="48" xmlns:xlink="http://www.w3.org/1999/xlink"><defs><linearGradient id="a"><stop offset="0"/><stop offset="1" stop-color="#ecff07"/></linearGradient><linearGradient><stop offset="0" stop-color="#f3bf6c"/><stop offset="1" stop-color="#c17d11"/></linearGradient><linearGradient id="b" x1="-10.571" x2="-10.571" y1="17.071" y2="9.714" xlink:href="#a" gradientUnits="userSpaceOnUse"/></defs><g><path fill-opacity=".251" fill-rule="evenodd" d="M.3 47.6c15.78-4.74 30-4.57 47.4 0L37.26 29.23c-9.27-2.34-18.48-2.53-27.22 0L.3 47.6z"/><path fill="#d3d7cf" fill-rule="evenodd" stroke="#555753" d="M.3 44.94c15.78-4.72 30-4.56 47.4 0L37.26 26.6c-9.27-2.34-18.48-2.53-27.22 0L.3 44.93z" stroke-linejoin="round"/><path fill="none" stroke="#fff" stroke-opacity=".502" d="M2.28 43.3c14.26-4.03 27.4-3.7 43.4.04L36.65 27.5c-8.68-2.2-18.17-2.38-25.98-.04L2.28 43.3z"/></g><g><path id="c" fill="url(#b)" fill-rule="evenodd" stroke="#764a00" stroke-width=".5" d="M-10.8 23.55l-.45-13.7c.23-.57 1-.76 1.35-.05l.2 13.8c-.2.6-.76.54-1.1-.05z"/><use width="48" height="48" xlink:href="#c" transform="matrix(.998 .064 -.064 .998 37.27 3.541)"/><use width="48" height="48" transform="matrix(.994 .108 -.108 .994 42.054 4.6)" xlink:href="#c"/><use width="48" height="48" xlink:href="#c" transform="matrix(.988 .153 -.153 .988 49.558 6.231)"/><use width="48" height="48" xlink:href="#c" transform="matrix(-.994 .108 .108 .994 4.585 4.6)"/><use width="48" height="48" transform="matrix(-.988 .154 .154 .988 -2.654 6.248)" xlink:href="#c"/><use width="48" height="48" transform="matrix(1.033 .156 -.156 1.033 40.171 6.709)" xlink:href="#c"/><use width="48" height="48" xlink:href="#c" transform="matrix(1.039 .113 -.113 1.039 44.059 6.687)"/><use width="48" height="48" transform="matrix(1.021 .222 -.222 1.021 53.149 9.236)" xlink:href="#c"/><use width="48" height="48" transform="matrix(-1.039 .113 .113 1.039 3.151 6.687)" xlink:href="#c"/><use width="48" height="48" xlink:href="#c" transform="matrix(-1.021 .222 .222 1.021 -5.438 9.236)"/><use width="48" height="48" xlink:href="#c" transform="matrix(1.087 .004 -.004 1.087 38.401 6.962)"/><use width="48" height="48" transform="matrix(1.081 .118 -.118 1.081 45.804 8.814)" xlink:href="#c"/><use width="48" height="48" xlink:href="#c" transform="matrix(1.062 .231 -.231 1.062 55.189 11.465)"/><use width="48" height="48" xlink:href="#c" transform="matrix(-1.081 .118 .118 1.081 1.621 8.814)"/><use width="48" height="48" transform="matrix(-1.062 .231 .231 1.062 -7.478 11.465)" xlink:href="#c"/><use width="48" height="48" transform="matrix(1.126 .159 -.159 1.126 41.242 10.827)" xlink:href="#c"/><use width="48" height="48" xlink:href="#c" transform="matrix(1.131 .123 -.123 1.131 47.713 10.952)"/><use width="48" height="48" transform="matrix(1.112 .241 -.241 1.112 57.862 13.727)" xlink:href="#c"/><use width="48" height="48" transform="matrix(-1.131 .123 .123 1.131 -.36 10.952)" xlink:href="#c"/><use width="48" height="48" xlink:href="#c" transform="matrix(-1.112 .241 .241 1.112 -10.08 13.727)"/><use width="48" height="48" xlink:href="#c" transform="matrix(1.202 .169 -.169 1.202 43.679 12.479)"/><use width="48" height="48" transform="matrix(1.196 .205 -.205 1.196 50.97 13.773)" xlink:href="#c"/><use width="48" height="48" xlink:href="#c" transform="matrix(1.167 .333 -.333 1.167 62.187 17.043)"/><use width="48" height="48" xlink:href="#c" transform="matrix(-1.197 .199 .199 1.197 -3.744 13.267)"/><use width="48" height="48" transform="matrix(-1.172 .314 .314 1.172 -14.007 16.764)" xlink:href="#c"/><use width="48" height="48" transform="matrix(-.998 .064 .064 .998 10.515 3.541)" xlink:href="#c"/><use width="48" height="48" xlink:href="#c" transform="matrix(-1.033 .156 .156 1.033 7.613 6.709)"/><use width="48" height="48" transform="matrix(-1.087 .004 .004 1.087 9.384 6.962)" xlink:href="#c"/><use width="48" height="48" xlink:href="#c" transform="matrix(-1.126 .159 .159 1.126 6.542 10.827)"/><use width="48" height="48" transform="matrix(-1.202 .169 .169 1.202 4.463 12.479)" xlink:href="#c"/></g></svg>