<svg xmlns="http://www.w3.org/2000/svg" width="48" height="48" xmlns:xlink="http://www.w3.org/1999/xlink"><defs><linearGradient id="a"><stop offset="0" stop-color="#df9d00"/><stop offset=".5" stop-color="#ffe8a3"/><stop offset="1" stop-color="#f7c500"/></linearGradient><linearGradient id="b"><stop offset="0" stop-color="#965e05"/><stop offset=".5" stop-color="#e5ac52"/><stop offset="1" stop-color="#965e05"/></linearGradient><linearGradient><stop offset="0" stop-color="#f3bf6c"/><stop offset="1" stop-color="#c17d11"/></linearGradient><linearGradient id="g" x1="-12.032" x2="-9.447" y1="16.258" y2="16.643" xlink:href="#a" gradientUnits="userSpaceOnUse" gradientTransform="matrix(-.679 .066 .092 .486 6.627 22.707)"/><linearGradient id="h" x1="-11.937" x2="-9.447" y1="16.498" y2="16.643" xlink:href="#a" gradientUnits="userSpaceOnUse" gradientTransform="matrix(-.525 .058 .054 .562 15.386 17.267)"/><linearGradient x1="-11.937" x2="-9.447" y1="16.498" y2="16.643" xlink:href="#b" gradientUnits="userSpaceOnUse" gradientTransform="matrix(-1.136 .117 .118 1.132 6.17 11.13)"/><linearGradient x1="-11.937" x2="-9.447" y1="16.498" y2="16.643" xlink:href="#a" gradientUnits="userSpaceOnUse" gradientTransform="matrix(.805 .085 -.083 .823 38.984 20.969)"/><linearGradient x1="-11.937" x2="-9.447" y1="16.498" y2="16.643" xlink:href="#b" gradientUnits="userSpaceOnUse" gradientTransform="matrix(1.136 .117 -.118 1.132 42.33 10.701)"/><linearGradient id="e" x1="-11.937" x2="-9.447" y1="16.498" y2="16.643" xlink:href="#a" gradientUnits="userSpaceOnUse" gradientTransform="matrix(.667 .072 -.069 .694 33.939 13.371)"/><linearGradient id="c" x1="-11.937" x2="-9.447" y1="16.498" y2="16.643" xlink:href="#a" gradientUnits="userSpaceOnUse" gradientTransform="matrix(.871 .154 -.152 .879 41.732 9.649)"/><linearGradient x1="-11.937" x2="-9.447" y1="16.498" y2="16.643" xlink:href="#a" gradientUnits="userSpaceOnUse" gradientTransform="matrix(1.125 .197 -.197 1.121 48.849 11.634)"/><linearGradient id="i" x1="-11.937" x2="-9.465" y1="16.498" y2="16.901" xlink:href="#a" gradientUnits="userSpaceOnUse" gradientTransform="matrix(1.125 .197 -.197 1.121 50.707 15.348)"/><linearGradient id="f" x1="-11.937" x2="-9.447" y1="16.498" y2="16.643" xlink:href="#a" gradientUnits="userSpaceOnUse" gradientTransform="matrix(1.125 .197 -.197 1.121 53.992 7.063)"/><linearGradient x1="-11.937" x2="-9.447" y1="16.498" y2="16.643" xlink:href="#a" gradientUnits="userSpaceOnUse" gradientTransform="matrix(1.125 .197 -.197 1.121 56.849 13.348)"/><linearGradient x1="-11.937" x2="-9.447" y1="16.498" y2="16.643" xlink:href="#a" gradientUnits="userSpaceOnUse" gradientTransform="matrix(1.125 .197 -.197 1.121 59.135 17.063)"/></defs><g><path fill-opacity=".251" fill-rule="evenodd" d="M.3 47.6c15.78-4.74 30-4.57 47.4 0L37.26 29.23c-9.27-2.34-18.48-2.53-27.22 0L.3 47.6z"/><path fill="#d3d7cf" fill-rule="evenodd" stroke="#555753" d="M.3 44.94c15.78-4.72 30-4.56 47.4 0L37.26 26.6c-9.27-2.34-18.48-2.53-27.22 0L.3 44.93z" stroke-linejoin="round"/><path fill="none" stroke="#fff" stroke-opacity=".502" d="M2.28 43.3c14.26-4.03 27.4-3.7 43.4.04L36.65 27.5c-8.68-2.2-18.17-2.38-25.98-.04L2.28 43.3z"/></g><g><path fill="url(#c)" fill-rule="evenodd" stroke="#764a00" stroke-width=".543" d="M28.25 28.64c1.17-8.85 1.98-17.02 6.62-23.93-1.45 7.02-3.9 15.05-4.87 24.25-.7.46-1.3.5-1.75-.3z"/><path id="d" fill-rule="evenodd" stroke="#764a00" stroke-width=".5" d="M-10.78 23.88l-.45-6.65c0-.6.97-.78 1.32-.05l.63 6.55c-.13.82-1.23.82-1.5.15z"/><use width="48" height="48" xlink:href="#d" transform="matrix(.998 .064 -.064 .998 37.27 3.541)"/><path fill="url(#e)" fill-rule="evenodd" stroke="#764a00" stroke-width=".543" d="M24.02 28.94c.42-6.97 1.32-13.4 4.47-19.04-.74 5.55-2.17 11.95-2.42 19.18-.58.76-1.6.88-2.06-.14z"/><use width="48" height="48" xlink:href="#d" transform="matrix(.988 .153 -.153 .988 49.558 6.231)"/><use width="48" height="48" xlink:href="#d" transform="matrix(-.994 .108 .108 .994 4.585 4.6)"/><use width="48" height="48" transform="matrix(-.988 .154 .154 .988 -2.654 6.248)" xlink:href="#d"/><use width="48" height="48" xlink:href="#d" transform="matrix(1.039 .113 -.113 1.039 44.059 6.687)"/><use width="48" height="48" transform="matrix(-1.039 .113 .113 1.039 3.151 6.687)" xlink:href="#d"/><use width="48" height="48" xlink:href="#d" transform="matrix(-1.021 .222 .222 1.021 -5.438 9.236)"/><use width="48" height="48" xlink:href="#d" transform="matrix(1.087 .004 -.004 1.087 38.401 6.962)"/><use width="48" height="48" transform="matrix(1.081 .118 -.118 1.081 45.804 8.814)" xlink:href="#d"/><path fill="url(#f)" fill-rule="evenodd" stroke="#764a00" stroke-width=".543" d="M36.58 31.3C38.1 20 39.14 9.57 45.13.76c-1.88 8.93-5.02 19.18-6.28 30.9-.92.6-1.7.63-2.27-.38z"/><use width="48" height="48" xlink:href="#d" transform="matrix(1.062 .231 -.231 1.062 55.189 11.465)"/><path fill="url(#g)" fill-rule="evenodd" stroke="#764a00" stroke-width=".543" d="M17.07 33.3c-.64-4.9-1.85-9.97-6.57-13.28 2.16 3.8 3.87 8.47 4.35 13.54.6.62 1.8.65 2.22-.27z"/><use width="48" height="48" transform="matrix(-1.062 .231 .231 1.062 -7.478 11.465)" xlink:href="#d"/><use width="48" height="48" transform="matrix(-1.131 .123 .123 1.131 -.36 10.952)" xlink:href="#d"/><use width="48" height="48" xlink:href="#d" transform="matrix(-1.112 .241 .241 1.112 -10.08 13.727)"/><use width="48" height="48" xlink:href="#d" transform="matrix(-1.197 .199 .199 1.197 -3.744 13.267)"/><use width="48" height="48" transform="matrix(-1.172 .314 .314 1.172 -14.007 16.764)" xlink:href="#d"/><use width="48" height="48" transform="matrix(-.998 .064 .064 .998 10.515 3.541)" xlink:href="#d"/><path fill="url(#h)" fill-rule="evenodd" stroke="#764a00" stroke-width=".543" d="M22.63 29.86c-.33-5.64-.47-10.83-2.95-15.4.57 4.5.9 9.74 1.1 15.6.55.6 1.56.3 1.85-.2z"/><use width="48" height="48" transform="matrix(-1.087 .004 .004 1.087 9.384 6.962)" xlink:href="#d"/><use width="48" height="48" xlink:href="#d" transform="matrix(-1.202 .169 .169 1.202 5.748 9.979)"/><use width="48" height="48" transform="matrix(-1.202 .169 .169 1.202 4.463 12.479)" xlink:href="#d"/><use width="48" height="48" transform="matrix(1.081 .111 -.111 1.081 41.338 12.118)" xlink:href="#d"/><path fill="url(#i)" fill-rule="evenodd" stroke="#764a00" stroke-width=".543" d="M33.3 39.57c1.5-11.3 5.27-24.2 12.76-29.87-4.88 7.43-9.24 18.53-10.5 30.27-.9.58-1.7.62-2.26-.4z"/><use width="48" height="48" xlink:href="#d" transform="matrix(1.081 .111 -.111 1.081 42.767 14.69)"/><use width="48" height="48" xlink:href="#d" transform="matrix(1.081 .118 -.118 1.081 46.661 12.1)"/><use width="48" height="48" transform="matrix(1.062 .231 -.231 1.062 56.689 14.823)" xlink:href="#d"/><use width="48" height="48" xlink:href="#d" transform="matrix(1.062 .231 -.231 1.062 58.76 18.108)"/></g></svg>