<svg xmlns="http://www.w3.org/2000/svg" width="48" height="48" xmlns:xlink="http://www.w3.org/1999/xlink"><defs><linearGradient id="a"><stop offset="0" stop-color="#965e05"/><stop offset=".5" stop-color="#e5ac52"/><stop offset="1" stop-color="#965e05"/></linearGradient><linearGradient id="b" x1="-12.053" x2="-9.447" y1="16.643" y2="16.643" xlink:href="#a" gradientUnits="userSpaceOnUse" gradientTransform="matrix(-1.172 .314 .314 1.172 -32.579 10.835)"/></defs><g><path fill-opacity=".251" fill-rule="evenodd" d="M.3 47.78c15.78-4.72 30-4.56 47.4 0L37.26 29.43c-9.27-2.33-18.48-2.52-27.22 0L.3 47.78z"/><path fill="#d3d7cf" fill-rule="evenodd" stroke="#555753" d="M.3 45.14c15.78-4.72 30-4.56 47.4 0L37.26 26.8c-9.27-2.34-18.48-2.53-27.22 0L.3 45.13z" stroke-linecap="round" stroke-linejoin="round"/><path fill="none" stroke="#fff" stroke-opacity=".502" d="M2.28 43.5c14.26-4.03 27.4-3.7 43.4.04L36.65 27.7c-8.68-2.2-18.17-2.4-25.98-.05L2.28 43.5z" stroke-linecap="round"/></g><g fill-rule="evenodd" stroke="#764a00"><path fill="url(#b)" stroke-width=".607" d="M-11.85 34.92l-3.78-16.2c-.93-.72-1.84-.96-2.68.6l4.1 16.24c1 .53 1.85.5 2.35-.64z"/><path stroke-width=".5" d="M15.28 12.28c-.26 0-.5.13-.63.34-.14.22-.16.5-.06.72l1.56 3.88-.97 5.4-.04.2.06.15 1.28 4.66c.05.27.26.5.53.58.27.1.57 0 .76-.2.18-.22.24-.52.14-.78L16.7 22.7l.96-5.45.06-.22-.1-.2-1.65-4.05c-.1-.3-.38-.5-.7-.5z" stroke-linecap="round"/><path stroke-width=".5" d="M37.28 13.1c-.27.05-.5.24-.57.5-.08.26 0 .54.17.74l.88.94-2.72 1.78-.7.44.5.66 1.5 1.93-1.14-.3-1.98-.46 1.2 1.66 2.2 3.1-2.18.37-2.1.34 1.88 1.04 2.25 1.3-1.97 3.33c-.18.23-.22.54-.08.8.13.27.4.43.7.42.3-.03.55-.2.66-.48l2.38-4 .37-.66-.66-.37-1.06-.6 1.26-.23 1.2-.2-.73-.98-1.75-2.45 1.25.3 2.06.5-1.3-1.68-2.3-3 2.84-1.84.75-.5-.63-.62-1.5-1.6c-.18-.17-.44-.26-.7-.2z" stroke-linecap="round"/><path stroke-width=".5" d="M1.3 23.88c-.18.05-.35.17-.45.35-.1.18-.13.4-.07.58l4.06 17c.1.42.52.66.93.56.4-.1.65-.52.54-.92l-4.08-17c-.05-.2-.17-.37-.34-.47-.17-.1-.37-.14-.57-.1z" stroke-linecap="round"/><path stroke-width=".5" d="M5.9 18.44c-.2.04-.36.16-.46.33-.1.17-.14.38-.1.57L8.4 34.63c.04.28.22.5.5.6.25.1.55.06.76-.13.2-.2.3-.48.2-.76L6.83 19.06c-.02-.2-.13-.4-.3-.5-.18-.13-.4-.17-.6-.12z" stroke-linecap="round"/><path stroke-width=".5" d="M9.22 13.22c-.4.08-.67.47-.6.87l2.13 14.28c.06.4.45.7.86.64.42-.06.7-.45.65-.86L10.1 13.87c-.03-.2-.14-.4-.3-.5-.17-.14-.38-.2-.58-.15z" stroke-linecap="round"/><path stroke-width=".5" d="M14.4 16.88c-.32.06-.57.35-.6.68l-.55 5.7v.18l.03.15 2.1 6-.35 3.96c-.03.42.27.78.7.8.4.05.77-.26.8-.67l.34-4.17.04-.16-.06-.12-2.06-6.03.53-5.53c.04-.25-.05-.5-.23-.65-.18-.16-.43-.23-.66-.18z" stroke-linecap="round"/><path stroke-width=".5" d="M25.03 11.44c-.22.03-.4.15-.53.34l-3.2 4.94-.27.44.28.4 4.32 6.03-2.06 2.56c-.2.2-.28.5-.2.78.1.27.35.47.64.5.28.04.57-.1.72-.35l2.44-3 .34-.44-.3-.47-4.36-6.07 2.94-4.54c.17-.26.17-.58 0-.83-.16-.25-.45-.38-.75-.33z" stroke-linecap="round"/><path stroke-width=".5" d="M23.63 16.16c-.22.05-.4.2-.5.4l-2.94 5.5-.23.4.28.38 4.3 6.13-2.5 3.28c-.18.2-.24.5-.14.78.12.26.36.45.64.47.28.03.56-.1.7-.34l2.85-3.72.34-.44-.32-.44-4.37-6.22 2.7-5.1c.13-.25.1-.56-.07-.8-.17-.23-.47-.34-.75-.28z" stroke-linecap="round"/><path stroke-width=".5" d="M31.34 11.88c-.1.02-.17.06-.25.12l-3.5 2.28-.88.56.8.66 3.82 3.13-2.46 1.25-.72.37.4.7s.6 1 1.28 2.1c.34.56.7 1.14 1 1.6.16.24.3.43.44.6-.17.17-.42.4-.72.63-.68.5-1.47.96-1.47.96-.36.23-.46.7-.24 1.05.22.34.7.45 1.05.23 0 0 .8-.5 1.57-1.07.38-.28.74-.56 1.03-.87.14-.17.27-.32.38-.57.05-.13.08-.3.06-.5-.03-.2-.16-.43-.3-.57.04.05-.07-.08-.17-.22-.1-.13-.23-.3-.38-.53-.3-.42-.64-.98-.98-1.52-.45-.74-.6-1.06-.84-1.44l2.78-1.4 1-.53-.87-.7-3.95-3.23 2.66-1.72c.33-.2.46-.6.32-.93-.14-.35-.5-.54-.88-.45z" stroke-linecap="round"/><path stroke-width=".5" d="M33.56 17.44c-.2.04-.4.17-.5.36-.1.18-.13.4-.06.6l1.3 4.48-4.33 4.43-.66.7.82.47 3.16 1.94-1.87 3.35c-.2.36-.07.82.3 1.03.35.2.8.08 1.02-.28l2.22-4 .34-.66-.6-.37-2.96-1.78 3.97-4.04.3-.32-.13-.43-1.43-4.9c-.1-.4-.48-.64-.88-.56z" stroke-linecap="round"/><path stroke-width=".5" d="M41.97 18.6c-.04 0-.1.03-.13.06l-4.12 1.78-1.75.75 1.78.64 3.44 1.22-2.6 1-.85.32.47.78 1.97 3.28-2.08.22-1.15.12.6 1 1.87 3.16-1.72 1.22c-.34.24-.4.7-.17 1.04.24.34.7.42 1.04.17l2.27-1.65.57-.38-.38-.6-1.62-2.7 2.06-.23 1.2-.14-.64-1-2.1-3.5 3.66-1.4 1.9-.73-1.9-.7-3.56-1.27 2.38-1.03c.4-.13.6-.55.48-.95-.13-.4-.55-.62-.95-.5z" stroke-linecap="round"/><path stroke-width=".5" d="M46.56 23.6c-.4.07-.67.46-.6.87v2.37l-2.12.75-.8.15.24.8 1.25 3.95-1.7.4-1.27.3.88.92 1.22 1.3-2.78 1.4-.97.5.82.7s.74.7 1.53 1.45c.5.48.8.76 1.16 1.1-.13.05-.22.12-.37.18-.7.28-1.47.53-1.47.53-.3.03-.55.25-.63.54-.1.3 0 .6.24.8.24.18.56.2.83.07 0 0 .82-.27 1.6-.58.38-.15.74-.3 1.06-.5.15-.1.3-.15.47-.34.08-.1.18-.26.2-.5.04-.24-.1-.54-.24-.7-.24-.22-1.02-.96-1.82-1.7-.4-.38-.5-.46-.78-.72l2.7-1.38.9-.44-.7-.72-.96-1.06 1.22-.28.8-.2-.24-.77-1.25-3.9 2.03-.7.75-.17-.16-.72-.16-3.1c-.08-.42-.47-.68-.88-.6z" stroke-linecap="round"/><path stroke-width=".5" d="M37.2 22.22c-.2.03-.37.13-.48.28l-3.22 3.94-.47.56.53.47 3.66 3.28-4.94 3.47-.78.56.72.63 3.6 3.07-2.13 1.72c-.26.14-.4.42-.36.7.03.3.23.54.5.64.28.1.58 0 .78-.2l2.85-2.28.72-.56-.7-.6-3.56-3 4.9-3.43.78-.56-.68-.62-3.85-3.44 2.77-3.37c.23-.24.27-.6.12-.88-.17-.3-.5-.44-.8-.38z" stroke-linecap="round"/><path stroke-width=".5" d="M21.75 20.94c-.3.04-.55.26-.63.56l-2.28 8.22-.12.47.37.27 4.74 4.06-1.62 5.1c-.12.4.1.8.5.93.4.12.82-.1.94-.5l1.78-5.56.15-.47-.4-.34-4.8-4.04 2.2-7.75c.07-.24.02-.52-.15-.72-.18-.2-.44-.3-.7-.24z" stroke-linecap="round"/><path stroke-width=".5" d="M11.4 21.66c-.32.07-.57.35-.6.68l-.55 6.57v.2l.06.18 2.4 5.47-.17 5.06c-.02.43.3.78.72.8.4 0 .76-.3.78-.73l.16-5.2v-.2l-.07-.13-2.35-5.47.53-6.4c.04-.24-.05-.48-.23-.64-.18-.16-.43-.23-.66-.17z" stroke-linecap="round"/></g></svg>