<svg xmlns="http://www.w3.org/2000/svg" width="48" height="48" xmlns:xlink="http://www.w3.org/1999/xlink"><defs><radialGradient cx="824.328" cy="111.252" r="46.311" fx="824.328" fy="111.252" gradientUnits="userSpaceOnUse"><stop offset=".006" stop-color="#FAAF3E"/><stop offset=".646" stop-color="#F17912"/><stop offset="1" stop-color="#DD680E"/></radialGradient><radialGradient cx="824.331" cy="111.252" r="46.304" fx="824.331" fy="111.252" gradientUnits="userSpaceOnUse"><stop offset=".006" stop-color="#FAAF3E"/><stop offset=".646" stop-color="#F17912"/><stop offset="1" stop-color="#DD680E"/></radialGradient><radialGradient cx="824.325" cy="111.252" r="46.319" fx="824.325" fy="111.252" gradientUnits="userSpaceOnUse"><stop offset=".006" stop-color="#FAAF3E"/><stop offset=".646" stop-color="#F17912"/><stop offset="1" stop-color="#DD680E"/></radialGradient><radialGradient cx="824.327" cy="111.253" r="46.314" fx="824.327" fy="111.253" gradientUnits="userSpaceOnUse"><stop offset=".006" stop-color="#FAAF3E"/><stop offset=".646" stop-color="#F17912"/><stop offset="1" stop-color="#DD680E"/></radialGradient><radialGradient cx="824.326" cy="111.252" r="46.315" fx="824.326" fy="111.252" gradientUnits="userSpaceOnUse"><stop offset=".006" stop-color="#FAAF3E"/><stop offset=".646" stop-color="#F17912"/><stop offset="1" stop-color="#DD680E"/></radialGradient><radialGradient cx="824.328" cy="111.252" r="46.311" fx="824.328" fy="111.252" gradientUnits="userSpaceOnUse"><stop offset=".006" stop-color="#FAAF3E"/><stop offset=".646" stop-color="#F17912"/><stop offset="1" stop-color="#DD680E"/></radialGradient><radialGradient cx="824.328" cy="111.253" r="46.311" fx="824.328" fy="111.253" gradientUnits="userSpaceOnUse"><stop offset=".006" stop-color="#FAAF3E"/><stop offset=".646" stop-color="#F17912"/><stop offset="1" stop-color="#DD680E"/></radialGradient><radialGradient cx="824.328" cy="111.251" r="46.31" fx="824.328" fy="111.251" gradientUnits="userSpaceOnUse"><stop offset=".006" stop-color="#FAAF3E"/><stop offset=".646" stop-color="#F17912"/><stop offset="1" stop-color="#DD680E"/></radialGradient><radialGradient cx="824.325" cy="111.253" r="46.316" fx="824.325" fy="111.253" gradientUnits="userSpaceOnUse"><stop offset=".006" stop-color="#FAAF3E"/><stop offset=".646" stop-color="#F17912"/><stop offset="1" stop-color="#DD680E"/></radialGradient><radialGradient cx="824.33" cy="111.252" r="46.307" fx="824.33" fy="111.252" gradientUnits="userSpaceOnUse"><stop offset=".006" stop-color="#FAAF3E"/><stop offset=".646" stop-color="#F17912"/><stop offset="1" stop-color="#DD680E"/></radialGradient><radialGradient cx="804.052" cy="127.362" r="71.221" fx="804.052" fy="127.362" gradientUnits="userSpaceOnUse"><stop offset=".006" stop-color="#FAAF3E"/><stop offset=".646" stop-color="#F17912"/><stop offset="1" stop-color="#DD680E"/></radialGradient><radialGradient cx="824.329" cy="111.252" r="46.312" gradientTransform="translate(-823.738 -75.782)" fx="824.329" fy="111.252" gradientUnits="userSpaceOnUse"><stop offset=".006" stop-color="#FAAF3E"/><stop offset=".646" stop-color="#F17912"/><stop offset="1" stop-color="#DD680E"/></radialGradient><linearGradient id="a"><stop offset="0" stop-color="#115971"/><stop offset="1" stop-color="#2e3436"/></linearGradient><linearGradient id="e" x1="15.976" x2="20.422" y1="37.226" y2="47.868" xlink:href="#a" gradientUnits="userSpaceOnUse" gradientTransform="matrix(.787 .617 -.617 .787 141.123 26.064)"/><linearGradient id="d" x1="22.825" x2="13.083" y1="27.173" y2="33.03" xlink:href="#a" gradientUnits="userSpaceOnUse" gradientTransform="translate(111.193 28.261)"/><linearGradient id="c" x1="6.136" x2="6.136" y1="47.793" y2="36.222" xlink:href="#a" gradientUnits="userSpaceOnUse" gradientTransform="matrix(.685 -.728 .728 .685 82.636 45.904)"/><linearGradient id="b" x1="1.857" x2="11.004" y1="27.027" y2="33.241" xlink:href="#a" gradientUnits="userSpaceOnUse" gradientTransform="translate(111.193 28.261)"/><linearGradient x1="317.262" x2="322.756" y1="176.091" y2="196.786" gradientUnits="userSpaceOnUse"><stop offset="0" stop-color="#fff"/><stop offset=".318" stop-color="#F7AF3E"/><stop offset="1" stop-color="#F12523"/></linearGradient><linearGradient x1="317.075" x2="322.727" y1="176.145" y2="193.713" gradientTransform="translate(-287.949 -163.888)" gradientUnits="userSpaceOnUse"><stop offset=".006" stop-color="#fff"/><stop offset=".06" stop-color="#FEF4EC"/><stop offset=".171" stop-color="#FAD7B9"/><stop offset=".326" stop-color="#F5A969"/><stop offset=".475" stop-color="#EF7916"/><stop offset=".961" stop-color="#CB130C"/></linearGradient><linearGradient x1="308.267" x2="308.825" y1="191.574" y2="187.295" gradientTransform="translate(-287.949 -163.888)" gradientUnits="userSpaceOnUse"><stop offset=".169" stop-color="#8F5810"/><stop offset=".256" stop-color="#9A641B"/><stop offset=".411" stop-color="#B68239"/><stop offset=".617" stop-color="#E4B468"/><stop offset=".635" stop-color="#E8B96D"/><stop offset="1" stop-color="#C17D10"/></linearGradient><linearGradient x1="310.329" x2="312.484" y1="201.539" y2="198.922" gradientTransform="translate(-287.949 -163.888)" gradientUnits="userSpaceOnUse"><stop offset=".169" stop-color="#8F5810"/><stop offset=".256" stop-color="#9A641B"/><stop offset=".411" stop-color="#B68239"/><stop offset=".617" stop-color="#E4B468"/><stop offset=".635" stop-color="#E8B96D"/><stop offset="1" stop-color="#C17D10"/></linearGradient><linearGradient x1="300.377" x2="302.981" y1="201.435" y2="199.043" gradientTransform="translate(-287.949 -163.888)" gradientUnits="userSpaceOnUse"><stop offset=".169" stop-color="#8F5810"/><stop offset=".256" stop-color="#9A641B"/><stop offset=".411" stop-color="#B68239"/><stop offset=".617" stop-color="#E4B468"/><stop offset=".635" stop-color="#E8B96D"/><stop offset=".769" stop-color="#E7B86B"/><stop offset=".835" stop-color="#E4B363"/><stop offset=".886" stop-color="#DEAA56"/><stop offset=".929" stop-color="#D79E43"/><stop offset=".967" stop-color="#CD8F2C"/><stop offset="1" stop-color="#C17D10"/></linearGradient><linearGradient x1="1197.786" x2="1199.016" y1="4018.701" y2="4017.47" gradientUnits="userSpaceOnUse" gradientTransform="matrix(0 -1 1 0 -4005.774 1215.338)"><stop offset=".169" stop-color="#8F5810"/><stop offset=".256" stop-color="#9A641B"/><stop offset=".411" stop-color="#B68239"/><stop offset=".617" stop-color="#E4B468"/><stop offset=".635" stop-color="#E8B96D"/><stop offset="1" stop-color="#C17D10"/></linearGradient><linearGradient x1="1191.584" x2="1205.638" y1="4017.259" y2="4017.259" gradientUnits="userSpaceOnUse" gradientTransform="matrix(0 -1 1 0 -4005.774 1215.338)"><stop offset="0" stop-color="#E8B96D"/><stop offset=".074" stop-color="#E8B96D"/><stop offset="1" stop-color="#E8B96D"/></linearGradient><linearGradient x1="303.868" x2="308.392" y1="183.236" y2="194.115" gradientTransform="translate(-287.949 -163.888)" gradientUnits="userSpaceOnUse"><stop offset=".006" stop-color="#fff"/><stop offset=".12" stop-color="#FEFDFA"/><stop offset=".248" stop-color="#FAF5ED"/><stop offset=".382" stop-color="#F5E9D7"/><stop offset=".52" stop-color="#ECD8B8"/><stop offset=".662" stop-color="#E2C28F"/><stop offset=".806" stop-color="#D5A85E"/><stop offset=".95" stop-color="#C78925"/><stop offset="1" stop-color="#C17D10"/></linearGradient><linearGradient x1="308.298" x2="313.789" y1="193.316" y2="206.518" gradientTransform="translate(-287.949 -163.888)" gradientUnits="userSpaceOnUse"><stop offset=".006" stop-color="#fff"/><stop offset=".12" stop-color="#FEFDFA"/><stop offset=".248" stop-color="#FAF5ED"/><stop offset=".382" stop-color="#F5E9D7"/><stop offset=".52" stop-color="#ECD8B8"/><stop offset=".662" stop-color="#E2C28F"/><stop offset=".806" stop-color="#D5A85E"/><stop offset=".95" stop-color="#C78925"/><stop offset="1" stop-color="#C17D10"/></linearGradient><radialGradient cx="855.36" cy="3346.831" r="58.617" fx="855.36" fy="3346.831" gradientTransform="matrix(0 -1 1 0 -3050.021 1052.331)" gradientUnits="userSpaceOnUse"><stop offset="0" stop-color="#fff"/><stop offset=".064" stop-color="#EAECED"/><stop offset=".2" stop-color="#C4C7CC"/><stop offset=".342" stop-color="#A4AAB0"/><stop offset=".489" stop-color="#8B929B"/><stop offset=".642" stop-color="#7A828C"/><stop offset=".806" stop-color="#6F7883"/><stop offset="1" stop-color="#6C7580"/></radialGradient></defs><g><path fill="url(#b)" fill-rule="evenodd" stroke="#eeeeec" d="M123.13 62.03l-9.4 1.27 2.17-3.15-4.7-3.24 2.88-4.2 4.7 3.24 2.16-3.15 2.2 9.23z"/><path fill="url(#c)" fill-rule="evenodd" stroke="#eeeeec" d="M112.7 65.35l9.84.56-2.86 2.8 4.12 4.23-3.8 3.7-4.12-4.22-2.85 2.8-.32-9.85z"/><path fill="url(#d)" fill-rule="evenodd" stroke="#eeeeec" d="M123.52 61.7l2.93-9.25 1.96 3.38 5.05-2.94 2.6 4.5-5.03 2.93L133 63.7l-9.48-2z"/><path fill="url(#e)" fill-rule="evenodd" stroke="#eeeeec" d="M127.63 77.2l-4.68-8.65 3.92 1 1.52-5.66 5.23 1.33-1.52 5.67 3.94 1-8.4 5.3z"/><path fill="#b78f74" d="M.3 4.5v9.4c5.62 3.54 17 20.78 17 29.6l-.08-17.05C18.8 22.23 6.68 6.85.3 4.5" opacity=".27"/><path fill="#9b6643" d="M45.16 13.5v18.6c-1.3 5.8-21.38 14.52-27.86 11.4l-.2-17.26c3.67.3 21.32-1.4 28.06-12.75z" opacity=".27"/><path fill="none" stroke="#5e2700" stroke-width=".9" stroke-miterlimit="10" d="M21.32 26.67c.1.65-.64 1.27.5 3.37 1.52 2.84 5.44-2.23 2.17-1.58-3.3.66-.77 5.13 2.93 3.05" stroke-linecap="round" stroke-linejoin="round"/><path fill="none" stroke="#5e2700" stroke-width=".9" stroke-miterlimit="10" d="M21.28 31.34c.13.8-.76 1.58.6 4.2 1.8 3.5 6.5-2.78 2.6-1.97-3.93.82-.92 6.37 3.5 3.8" stroke-linecap="round" stroke-linejoin="round"/><path fill="none" stroke="#5e2700" stroke-width=".9" stroke-miterlimit="10" d="M21.77 36.85c.13.78-.77 1.52.6 4.02 1.8 3.38 6.5-2.66 2.6-1.88-3.93.77-.92 6.1 3.52 3.62" stroke-linecap="round" stroke-linejoin="round"/><path fill="none" stroke="#5e2700" stroke-width=".9" stroke-miterlimit="10" d="M28.6 24.32c.1.57-.56 1.12.43 2.96 1.34 2.48 4.77-1.96 1.9-1.4-2.86.6-.66 4.5 2.6 2.7" stroke-linecap="round" stroke-linejoin="round"/><path fill="none" stroke="#5e2700" stroke-width=".9" stroke-miterlimit="10" d="M29.54 29.08c.1.65-.65 1.28.5 3.4 1.55 2.85 5.53-2.25 2.2-1.6-3.32.67-.76 5.17 3 3.08" stroke-linecap="round" stroke-linejoin="round"/><path fill="none" stroke="#5e2700" stroke-width=".9" stroke-miterlimit="10" d="M30.94 34.47c.12.7-.7 1.34.54 3.54 1.66 2.98 5.93-2.33 2.37-1.64-3.57.68-.83 5.36 3.2 3.2" stroke-linecap="round" stroke-linejoin="round"/><path fill="none" stroke="#5e2700" stroke-width=".9" stroke-miterlimit="10" d="M35.38 21.56c.1.57-.56 1.12.43 2.96 1.34 2.48 4.78-1.96 1.92-1.4-2.87.6-.67 4.5 2.58 2.7" stroke-linecap="round" stroke-linejoin="round"/><path fill="none" stroke="#5e2700" stroke-width=".9" stroke-miterlimit="10" d="M36.33 26.43c.1.57-.56 1.1.43 2.96 1.34 2.47 4.78-1.97 1.9-1.4-2.86.58-.66 4.5 2.6 2.67" stroke-linecap="round" stroke-linejoin="round"/><path fill="none" stroke="#5e2700" stroke-width=".9" stroke-miterlimit="10" d="M37.34 31.34c.1.66-.64 1.3.48 3.4 1.52 2.87 5.43-2.25 2.17-1.6-3.27.68-.77 5.2 2.92 3.1" stroke-linecap="round" stroke-linejoin="round"/><path fill="none" stroke="#5e2700" stroke-width=".9" stroke-miterlimit="10" d="M42.06 17.7c.06.6-.64 1.1.23 3 1.16 2.55 4.88-1.65 2-1.26-2.92.38-.97 4.43 2.4 2.83" stroke-linecap="round" stroke-linejoin="round"/><path fill="none" stroke="#5e2700" stroke-width=".9" stroke-miterlimit="10" d="M42.85 22.57c.05.58-.66 1.06.17 2.98 1.1 2.6 4.92-1.53 2.02-1.2-2.9.3-1.06 4.4 2.33 2.88" stroke-linecap="round" stroke-linejoin="round"/><path fill="none" stroke="#5e2700" stroke-width=".9" stroke-miterlimit="10" d="M43.1 27.08c.02.63-.75 1.12 0 3.27 1.02 2.9 5.3-1.4 2.22-1.2-3.1.18-1.4 4.75 2.3 3.27" stroke-linecap="round" stroke-linejoin="round"/><path fill="none" stroke="#6f3e1c" stroke-width=".9" stroke-miterlimit="10" d="M.1 10.66c1.53.38 11.93 10.07 13.57 13.24 0 0 1.9 4.7 2.58 5.82 1.33 2.2 2.1-1.62.28-2.2-.75-.23 0 7.93 1.53 8.88 1.38.87 3.08-1.6 1.53-2.57" stroke-linecap="round" stroke-linejoin="round"/><path fill="none" stroke="#6f3e1c" stroke-width=".9" stroke-miterlimit="10" d="M.2 13.8c1.52.4 9.17 7.82 12.1 13.86 0 0 .95 1.5 2.22 4.88 2.13 5.68 4.26 2.3 1.06-2.5-1.18-1.77.6 12.2 2.13 13.16 1.4.86 3.16-1.43 1.6-2.4" stroke-linecap="round" stroke-linejoin="round"/><path fill="none" stroke="#6f3e1c" stroke-width=".9" stroke-miterlimit="10" d="M.3 7.6C1.8 8 11.3 16.2 13.85 20.85c0 0 .95 2.8 1.62 3.92 1.34 2.2 2.1-1.63.3-2.2-.76-.24 0 7.92 1.5 8.88 1.4.86 3.1-1.6 1.54-2.58" stroke-linecap="round" stroke-linejoin="round"/><path fill="#c4835a" d="M.3 4.5c1.42 1 18.47 15.1 16.9 21.83 7.1-.2 12.76-1.68 17-3.72 3.85-1.85 7.34-3.43 10.96-9.1-12.24 2.6-32-8.14-35.7-13.15L.28 4.5z" opacity=".27"/><g fill="none" stroke="#8f4f26" stroke-width=".844" stroke-miterlimit="10" stroke-linecap="round" stroke-linejoin="round"><path d="M.3 4.27c1.52.38 12.13 10.66 13.75 13.23 0 0 1.72 3.54 2.86 3.63 1.16.1 3.74-.57 1.06-1.9-2.13-1.08-1.23 3.97-.23 5.8 1.33 2.5 4.77-1.94 1.9-1.37-2.87.57-.66 4.48 2.58 2.67"/><path d="M3.48 2.96C5 3.34 15.53 13.13 17.68 15.7c0 0 2.86 3.62 4 3.7 1.15.1 3.73-.56 1.06-1.9-2.14-1.07-.15 4.3 2.38 5.44 2.8 1.27 5.63-2.53 2.77-1.95-2.88.56-.68 4.47 2.57 2.66"/><path d="M7.2 1.5c1.1 1.24 11.86 10.67 14.87 12.4 0 0 3.8 2.77 4.82 3.32 1.85 1 4.7-1.58 1.42-2.3-2.34-.5 1.05 3.3 3.58 4.45 2.8 1.26 5.92-.72 3.05-1.25-2.62-.47-.48 5.25 2.58 2.68"/><path d="M9.7.26c1.1 1.24 8.97 8.1 17.83 11.36 0 0 5.14 1.47 6.15 2.02 1.86 1 4.44-1.72.57-2.15-2.37-.27 1.4 3.9 4.07 4.2 3.05.3 7.8-2.15 4.9-2.44-3.3-.34-.5 5.25 2.56 2.67"/></g></g></svg>