<svg xmlns="http://www.w3.org/2000/svg" width="48" height="48" xmlns:xlink="http://www.w3.org/1999/xlink"><defs><linearGradient id="e" x1="15.976" x2="20.422" y1="37.226" y2="47.868" xlink:href="#a" gradientUnits="userSpaceOnUse" gradientTransform="matrix(.787 .617 -.617 .787 52.571 -3.733)"/><linearGradient id="d" x1="22.825" x2="13.083" y1="27.173" y2="33.03" xlink:href="#a" gradientUnits="userSpaceOnUse" gradientTransform="translate(22.641 -1.536)"/><linearGradient id="c" x1="6.136" x2="6.136" y1="47.793" y2="36.222" xlink:href="#a" gradientUnits="userSpaceOnUse" gradientTransform="matrix(.685 -.728 .728 .685 -5.917 16.107)"/><linearGradient id="a"><stop offset="0" stop-color="#115971"/><stop offset="1" stop-color="#2e3436"/></linearGradient><linearGradient id="b" x1="1.857" x2="11.004" y1="27.027" y2="33.241" xlink:href="#a" gradientUnits="userSpaceOnUse" gradientTransform="translate(22.641 -1.536)"/></defs><g><path fill="#b78f74" d="M.6 3.77v7.76c4.65 2.9 14.04 17.15 14.04 24.42l-.06-14.06C15.88 18.4 5.88 5.7.6 3.76" opacity=".27"/><path fill="#9b6643" d="M37.66 11.2v15.35c-1.1 4.8-17.66 11.98-23.02 9.4L14.5 21.7c3 .26 17.6-1.14 23.16-10.5z" opacity=".27"/><path fill="none" stroke="#5e2700" stroke-width=".9" stroke-miterlimit="10" d="M17.97 22.06c.1.54-.53 1.05.4 2.8 1.26 2.33 4.5-1.85 1.8-1.3-2.7.53-.63 4.22 2.43 2.5" stroke-linecap="round" stroke-linejoin="round"/><path fill="none" stroke="#5e2700" stroke-width=".9" stroke-miterlimit="10" d="M17.94 25.92c.1.67-.64 1.3.48 3.47 1.5 2.9 5.37-2.3 2.15-1.63-3.24.67-.75 5.25 2.9 3.13" stroke-linecap="round" stroke-linejoin="round"/><path fill="none" stroke="#5e2700" stroke-width=".9" stroke-miterlimit="10" d="M18.34 30.47c.1.65-.64 1.26.48 3.32 1.5 2.78 5.4-2.2 2.16-1.56-3.24.64-.76 5.03 2.9 3" stroke-linecap="round" stroke-linejoin="round"/><path fill="none" stroke="#5e2700" stroke-width=".9" stroke-miterlimit="10" d="M23.98 20.12c.08.48-.46.93.36 2.45 1.1 2.05 3.94-1.62 1.57-1.15-2.36.48-.54 3.7 2.14 2.2" stroke-linecap="round" stroke-linejoin="round"/><path fill="none" stroke="#5e2700" stroke-width=".9" stroke-miterlimit="10" d="M24.76 24.05c.1.55-.54 1.06.4 2.8 1.3 2.37 4.58-1.85 1.83-1.3-2.76.54-.65 4.26 2.46 2.54" stroke-linecap="round" stroke-linejoin="round"/><path fill="none" stroke="#5e2700" stroke-width=".9" stroke-miterlimit="10" d="M25.92 28.5c.1.57-.58 1.1.44 2.93 1.37 2.45 4.9-1.93 1.95-1.37-2.93.57-.67 4.43 2.66 2.64" stroke-linecap="round" stroke-linejoin="round"/><path fill="none" stroke="#5e2700" stroke-width=".9" stroke-miterlimit="10" d="M29.58 17.85c.08.47-.47.92.35 2.44 1.1 2.04 3.94-1.62 1.58-1.15-2.36.47-.54 3.7 2.14 2.2" stroke-linecap="round" stroke-linejoin="round"/><path fill="none" stroke="#5e2700" stroke-width=".9" stroke-miterlimit="10" d="M30.37 21.87c.08.47-.47.92.35 2.44 1.1 2.06 3.94-1.6 1.58-1.13-2.37.47-.55 3.7 2.13 2.2" stroke-linecap="round" stroke-linejoin="round"/><path fill="none" stroke="#5e2700" stroke-width=".9" stroke-miterlimit="10" d="M31.2 25.92c.08.55-.53 1.06.4 2.82 1.25 2.36 4.47-1.87 1.8-1.32-2.7.55-.64 4.27 2.4 2.54" stroke-linecap="round" stroke-linejoin="round"/><path fill="none" stroke="#5e2700" stroke-width=".9" stroke-miterlimit="10" d="M35.1 14.67c.04.48-.53.9.2 2.46.96 2.12 4.03-1.35 1.64-1.04-2.4.3-.8 3.65 1.98 2.33" stroke-linecap="round" stroke-linejoin="round"/><path fill="none" stroke="#5e2700" stroke-width=".9" stroke-miterlimit="10" d="M35.75 18.68c.04.48-.55.88.14 2.46.9 2.14 4.06-1.26 1.66-1-2.4.27-.88 3.65 1.92 2.4" stroke-linecap="round" stroke-linejoin="round"/><path fill="none" stroke="#5e2700" stroke-width=".9" stroke-miterlimit="10" d="M35.97 22.4c0 .53-.63.93 0 2.7.83 2.4 4.37-1.16 1.82-1-2.57.16-1.16 3.93 1.88 2.7" stroke-linecap="round" stroke-linejoin="round"/><path fill="none" stroke="#6f3e1c" stroke-width=".9" stroke-miterlimit="10" d="M.44 8.85c1.26.32 9.86 8.3 11.2 10.93 0 0 1.58 3.9 2.14 4.8 1.1 1.82 1.73-1.33.23-1.8-.6-.2 0 6.53 1.27 7.32 1.15.72 2.55-1.32 1.26-2.13" stroke-linecap="round" stroke-linejoin="round"/><path fill="none" stroke="#6f3e1c" stroke-width=".9" stroke-miterlimit="10" d="M.52 11.45c1.26.32 7.57 6.44 10 11.43 0 0 .78 1.24 1.83 4.03 1.76 4.7 3.52 1.92.88-2.04-.98-1.47.5 10.06 1.76 10.85 1.13.73 2.6-1.17 1.3-1.97" stroke-linecap="round" stroke-linejoin="round"/><path fill="none" stroke="#6f3e1c" stroke-width=".9" stroke-miterlimit="10" d="M.6 6.33c1.26.3 9.1 7.1 11.2 10.93 0 0 .8 2.3 1.34 3.23 1.1 1.8 1.74-1.35.24-1.83-.62-.2 0 6.54 1.26 7.33 1.15.72 2.55-1.32 1.26-2.13" stroke-linecap="round" stroke-linejoin="round"/><path fill="#c4835a" d="M.6 3.77c1.18.82 15.26 12.46 13.96 18.02 5.88-.17 10.54-1.4 14.03-3.1 3.2-1.52 6.06-2.82 9.06-7.5C27.56 13.32 11.24 4.47 8.16.33L.6 3.77z" opacity=".27"/><g fill="none" stroke="#8f4f26" stroke-width="1.023" stroke-miterlimit="10" stroke-linecap="round" stroke-linejoin="round"><path d="M.6 3.57c1.26.3 10.02 8.8 11.36 10.93 0 0 1.42 2.9 2.37 3 .94.07 3.07-.48.87-1.58-1.77-.9-1.02 3.28-.2 4.8 1.1 2.05 3.94-1.6 1.58-1.14-2.38.47-.56 3.7 2.12 2.2"/><path d="M3.24 2.5c1.26.3 9.95 8.4 11.7 10.5 0 0 2.38 3 3.33 3.08.95.07 3.07-.48.87-1.58-1.77-.88-.12 3.54 1.97 4.5 2.3 1.03 4.66-2.1 2.3-1.62-2.38.47-.56 3.7 2.12 2.2"/><path d="M6.32 1.28c.9 1.03 9.78 8.8 12.26 10.23 0 0 3.15 2.3 3.98 2.76 1.54.83 3.9-1.3 1.2-1.9-1.94-.4.85 2.73 2.94 3.68 2.3 1.04 4.9-.6 2.53-1.03-2.17-.38-.4 4.34 2.12 2.22"/><path d="M8.36.26c.9 1.02 7.42 6.7 14.73 9.38 0 0 4.24 1.22 5.08 1.67 1.53.83 3.66-1.4.47-1.77C26.7 9.33 29.8 12.76 32 13c2.52.27 6.44-1.76 4.04-2-2.72-.28-.4 4.33 2.13 2.2"/></g><path fill="url(#b)" fill-rule="evenodd" stroke="#eeeeec" d="M34.57 32.23l-9.4 1.27 2.17-3.15-4.7-3.24 2.88-4.2 4.7 3.25L32.4 23l2.17 9.23z"/><path fill="url(#c)" fill-rule="evenodd" stroke="#eeeeec" d="M24.16 35.55l9.82.57-2.85 2.78 4.12 4.23-3.8 3.7-4.12-4.22-2.85 2.8-.32-9.85z"/><path fill="url(#d)" fill-rule="evenodd" stroke="#eeeeec" d="M34.97 31.9l2.93-9.25 1.96 3.38 5.03-2.94 2.6 4.5-5.03 2.93 1.96 3.38-9.46-2z"/><path fill="url(#e)" fill-rule="evenodd" stroke="#eeeeec" d="M39.08 47.4l-4.7-8.64 3.94 1 1.52-5.67 5.24 1.34-1.52 5.66 3.93 1-8.42 5.3z"/></g></svg>