<svg xmlns="http://www.w3.org/2000/svg" width="48" height="48" xmlns:xlink="http://www.w3.org/1999/xlink"><defs><linearGradient id="a"><stop offset="0" stop-color="#ab6b00"/><stop offset="1" stop-color="#764a00"/></linearGradient><linearGradient><stop offset="0" stop-color="#965e05"/><stop offset=".5" stop-color="#e5ac52"/><stop offset="1" stop-color="#965e05"/></linearGradient><linearGradient><stop offset="0" stop-color="#f3bf6c"/><stop offset="1" stop-color="#c17d11"/></linearGradient><linearGradient id="b" x1="-12.053" x2="-9.09" y1="16.643" y2="16.643" xlink:href="#a" gradientUnits="userSpaceOnUse"/></defs><g><path fill-opacity=".251" fill-rule="evenodd" d="M.3 47.6c15.78-4.74 30-4.57 47.4 0L37.26 29.23c-9.27-2.34-18.48-2.53-27.22 0L.3 47.6z"/><path fill="#d3d7cf" fill-rule="evenodd" stroke="#555753" d="M.3 44.94c15.78-4.72 30-4.56 47.4 0L37.26 26.6c-9.27-2.34-18.48-2.53-27.22 0L.3 44.93z" stroke-linejoin="round"/><path fill="none" stroke="#fff" stroke-opacity=".502" d="M2.28 43.3c14.26-4.03 27.4-3.7 43.4.04L36.65 27.5c-8.68-2.2-18.17-2.38-25.98-.04L2.28 43.3z"/></g><g><path id="c" fill-rule="evenodd" stroke="url(#b)" stroke-width=".5" d="M-10.7 23.53l-.46-13.7c.16-.63.97-.8 1.4.04l.2 13.8c-.05.8-.94.8-1.15-.14z"/><use width="48" height="48" xlink:href="#c" transform="matrix(.998 .064 -.064 .998 37.27 3.541)"/><use width="48" height="48" transform="matrix(.994 .108 -.108 .994 42.054 4.6)" xlink:href="#c"/><use width="48" height="48" xlink:href="#c" transform="matrix(.988 .153 -.153 .988 49.558 6.231)"/><use width="48" height="48" xlink:href="#c" transform="matrix(1.039 .113 -.113 1.039 43.059 8.402)"/><use width="48" height="48" transform="matrix(1.021 .222 -.222 1.021 52.577 9.379)" xlink:href="#c"/><use width="48" height="48" transform="matrix(-1.039 .113 .113 1.039 1.365 6.902)" xlink:href="#c"/><use width="48" height="48" transform="matrix(1.081 .118 -.118 1.081 46.447 10.028)" xlink:href="#c"/><use width="48" height="48" xlink:href="#c" transform="matrix(1.062 .231 -.231 1.062 55.189 11.465)"/><use width="48" height="48" transform="matrix(1.126 .159 -.159 1.126 39.385 8.613)" xlink:href="#c"/><use width="48" height="48" transform="matrix(1.112 .241 -.241 1.112 57.148 14.37)" xlink:href="#c"/><use width="48" height="48" xlink:href="#c" transform="matrix(-1.112 .241 .241 1.112 -10.08 13.727)"/><use width="48" height="48" xlink:href="#c" transform="matrix(1.202 .169 -.169 1.202 43.679 12.479)"/><use width="48" height="48" transform="matrix(1.196 .205 -.205 1.196 50.97 13.773)" xlink:href="#c"/><use width="48" height="48" xlink:href="#c" transform="matrix(1.167 .333 -.333 1.167 62.187 17.043)"/><use width="48" height="48" transform="matrix(-.998 .064 .064 .998 9.943 3.613)" xlink:href="#c"/><use width="48" height="48" xlink:href="#c" transform="matrix(-1.126 .159 .159 1.126 5.257 11.756)"/><use width="48" height="48" transform="matrix(1.021 .222 -.222 1.021 52.438 16.449)" xlink:href="#c"/></g></svg>