<svg xmlns="http://www.w3.org/2000/svg" width="48" height="48" xmlns:xlink="http://www.w3.org/1999/xlink"><defs><linearGradient id="e"><stop offset="0" stop-color="#9c9c9c"/><stop offset="1" stop-color="#2e3436"/></linearGradient><linearGradient id="d"><stop offset="0" stop-color="#8c8f89"/><stop offset="1" stop-color="#555753"/></linearGradient><linearGradient id="b"><stop offset="0" stop-color="#eeeeec"/><stop offset="1" stop-color="#d4d4cf"/></linearGradient><linearGradient id="a"><stop offset="0"/><stop offset="1" stop-opacity="0"/></linearGradient><radialGradient id="f" cx="24.321" cy="28.5" r="23.536" xlink:href="#a" fx="24.321" fy="28.5" gradientTransform="matrix(1 0 0 .68 0 9.125)" gradientUnits="userSpaceOnUse"/><linearGradient id="i" x1="2.521" x2="6.178" y1="35.269" y2="40.733" xlink:href="#b" gradientUnits="userSpaceOnUse"/><linearGradient id="m" x1="41.164" x2="44.5" y1="35.411" y2="40.84" xlink:href="#c" gradientUnits="userSpaceOnUse"/><linearGradient id="c"><stop offset="0" stop-color="#eeeeec"/><stop offset="1" stop-color="#d4d4cf"/></linearGradient><linearGradient x1="2.45" x2="7.071" y1="38.019" y2="38.019" gradientTransform="translate(-2.45 -35.291)" gradientUnits="userSpaceOnUse" xlink:href="#c"/><linearGradient id="j" x1="12.128" x2="15.642" y1="35.376" y2="40.411" xlink:href="#c" gradientUnits="userSpaceOnUse"/><linearGradient id="k" x1="21.95" x2="25.214" y1="35.519" y2="40.84" xlink:href="#c" gradientUnits="userSpaceOnUse"/><linearGradient id="l" x1="31.592" x2="34.857" y1="35.304" y2="40.769" xlink:href="#c" gradientUnits="userSpaceOnUse"/><radialGradient id="g" cx="23.281" cy="17.937" r="23.739" xlink:href="#d" fx="23.281" fy="17.937" gradientTransform="matrix(1.121 .007 -.004 .554 -2.752 7.863)" gradientUnits="userSpaceOnUse"/><linearGradient id="h" x1=".151" x2="48.128" y1="22.017" y2="22.017" xlink:href="#e" gradientUnits="userSpaceOnUse"/></defs><g><path fill="url(#f)" fill-rule="evenodd" d="M47.86 28.5a23.54 16 0 1 1-47.07 0 23.54 16 0 1 1 47.06 0z" transform="matrix(1.211 0 0 .926 -5.38 .921)" color="#000" overflow="visible" enable-background="accumulate"/><path fill="none" stroke="#73756f" d="M7.4 7l-.5 1.7 3 .05-.37.6 1.88-.22L11 7H7.4zm7.4 0l-.36 1.7 3.25.05-.14.3L19 9.1 18.4 7h-3.6zm14.95 0v.06L29.2 9.1l1.4-.04-.13-.3 3.25-.07-.34-1.7h-3.63zm7.4 0l.04.06-.42 2.07 1.84.2-.37-.58 3.03-.06-.53-1.7h-3.6zm-14.87.1v2.15h3.7V7.1h-3.7z" stroke-linejoin="bevel" color="#000" overflow="visible" enable-background="accumulate"/><path fill="#babdb6" d="M9.55 9.34L11 7l.4 2.13z" color="#000" overflow="visible" enable-background="accumulate"/><path fill="#babdb6" d="M17.58 9.06L18.4 7 19 9.1z" color="#000" overflow="visible" enable-background="accumulate"/><path fill="#babdb6" d="M38.64 9.34L37.17 7l-.4 2.13z" color="#000" overflow="visible" enable-background="accumulate"/><path fill="#babdb6" d="M30.6 9.06L29.78 7 29.2 9.1z" color="#000" overflow="visible" enable-background="accumulate"/><path fill="#eeeeec" d="M6.9 8.68L7.4 7H11l-.4 1.76z" color="#000" overflow="visible" enable-background="accumulate"/><path fill="#eeeeec" d="M14.43 8.68L14.8 7h3.62l-.27 1.76z" color="#000" overflow="visible" enable-background="accumulate"/><path fill="#eeeeec" d="M22.27 7.1h3.7v2.16h-3.7z" color="#000" overflow="visible" enable-background="accumulate"/><path fill="#eeeeec" d="M41.27 8.68L40.77 7h-3.62l.4 1.76z" color="#000" overflow="visible" enable-background="accumulate"/><path fill="#eeeeec" d="M33.73 8.68L33.36 7h-3.6L30 8.77z" color="#000" overflow="visible" enable-background="accumulate"/><path fill="url(#g)" d="M4.5 8.86L.4 29.46l.4 5.7h46.67l.4-5.54-4.3-20.7z"/><path fill="#32383a" d="M.3 29.56l.46 5.66h46.67l.5-5.55z"/><path fill="none" stroke="url(#h)" stroke-width=".5" d="M4.5 8.86L.4 29.46l.4 5.7h46.67l.4-5.54-4.3-20.7z"/><path fill="none" stroke="#555753" d="M12.47 31.9l-.38 3.38h-.04l1.03 5.47 2.5.13 1.12-4.8.28-1.27v-2.33l.06-.56zm9.28 0l.13 3.5.96 5.44h2.35l1.05-5.43.22-3.5zm9.4 0v2.91l.3 1.3 1.1 4.67 2.45-.02 1.13-5.44-.38-3.4zm-28.06.04l-.6 3.34h-.06l1.06 5.47 2.48.04 1.2-4.4.5-1.46-.05-2.7.06-.3zm37.43 0V32l-.06 2.94.5 1.47 1.13 4.5 2.52-.15 1.1-5.38h.03v-.06l-.03-.02-.6-3.34z" color="#000" stroke-linejoin="bevel" overflow="visible" enable-background="accumulate"/><path fill="#babdb6" d="M7.63 32L6.2 35.4l-.32 5.43 1.32-4.5.48-1.44z" color="#000" overflow="visible" enable-background="accumulate"/><path fill="#babdb6" d="M40.53 32l1.36 3.38.27 5.38-1.24-4.47-.45-1.43z" color="#000" overflow="visible" enable-background="accumulate"/><path fill="#babdb6" d="M31.16 31.94v2.85l.28 1.26 1.1 4.73-.16-6.74z" color="#000" overflow="visible" enable-background="accumulate"/><path fill="#babdb6" d="M17 31.94v2.84l-.3 1.28-1.16 4.72.2-6.72z" color="#000" overflow="visible" enable-background="accumulate"/><path fill="#fff" d="M3.08 31.94l-.6 3.43h4.6l.6-3.43z"/><path fill="#fff" d="M12.45 31.9l-.36 3.45h4.6l.35-3.44z"/><path fill="#fff" d="M45.13 31.94l.6 3.43h-4.6l-.6-3.43z"/><path fill="#fff" d="M35.76 31.9l.36 3.45h-4.6l-.36-3.44z"/><path fill="#fff" d="M21.74 31.9h4.73l-.23 3.5h-4.37z" color="#000" overflow="visible" enable-background="accumulate"/><path fill="url(#i)" d="M2.45 35.3l1.04 5.45h2.43l1.14-5.46z" color="#000" overflow="visible" enable-background="accumulate"/><path fill="url(#j)" d="M12.07 35.3l1.04 5.45h2.46l1.13-5.46z" color="#000" overflow="visible" enable-background="accumulate"/><path fill="url(#k)" d="M21.87 35.4l.98 5.45h2.33l1.08-5.45z" color="#000" overflow="visible" enable-background="accumulate"/><path fill="url(#l)" d="M31.54 35.3l1.03 5.45H35l1.1-5.46z" color="#000" overflow="visible" enable-background="accumulate"/><path fill="url(#m)" d="M41.16 35.3l1.03 5.45h2.4l1.13-5.46z" color="#000" overflow="visible" enable-background="accumulate"/><path fill="#fff" d="M8.73 17.9c-.6-1.25.26-2.7-.2-3.96.4-1.45.66-3.2 2-4.06 1.88-.72 3.9.03 5.65.8 1.1-.35 2.7 1.2 2.94 1.35.58-.78 2.66.07 2.56 1 1.76.85 3.62 1.5 5.33 2.42.58.92 2.3.6 2.6 1.6-1.15.08-2.12-.7-3.23-.84 1.44.78 2.98 1.37 4.4 2.2-2.66-.63-5.12-1.87-7.65-2.9-.43-.43-2.02-.97-2.12-.8 2.42 1.37 5.1 2.22 7.54 3.57 1.22.72 2.43 1.8 3.9 1.78.64.34 1.17.88 1.85.63.66.2.45.52-.12.52.54.38 1.3 1.14.12.6-1.3-.3.8.63 1.12.76.44.5 2.56.73 1.36-.17-.74-.22-.9-.8-.08-.2.55.07.6-.37 1.36.04.52.1 1.38.45.33.27-1.48-.28.23.64.3 1.13.58.45 3.3 1.23 1.9 2-1.24-.3-2.14-1.47-3.43-1.6-.22-.03 1.52 1.13.25.63-1.26-.8-2.94-.9-4-2.02-.04-.08 2.05.52.65-.12-.84-.26-1.66-.85-2.5-.88.5.47.9.68 0 .4-.66-.28-1.13-.2-.25.23 1.08.5 3.1 1.64 3.38 2.17-1.97-.58-3.73-1.72-5.76-2.12-.67.73 1.82.38.5.92-.34.83 1.57.9 1.1 1.74.46.1 1.87 1.25.6.6-.5-.5-2.1-.6-.72 0 1.54.57 2.93 1.75 4.64 1.68 1.23-.07 2.38.67 3.46 1.22.66.34 1 .78.07.42-1.67-.36-3.43-.62-4.83-1.64-2.88-1.23-5.77-2.45-8.67-3.63-1.12-.88-2.76-.8-3.95-1.66-2.38-1-4.72-2.1-7.14-3-.78.9-1.53-1.3-2.15-.36-1.04-.2-2.22-.05-3.12-.7z"/><path fill="#80a5d4" d="M29.36 25.03c.06 0 .1-.03.1-.08-.03-.1-1.48-.66-1.72-.66-.15 0-.14 0 .03.13.1.07.22.15.26.17.1.07 1.2.43 1.33.43z"/><path fill="#80a5d4" d="M27.2 24.18c.15-.1-.24-.35-.75-.5-.48-.13-.6-.12-.52.03.05.12 1.2.54 1.28.48z"/><path fill="#80a5d4" d="M25.34 22.24c.17.02.24 0 .17-.02-.07-.04-.2-.14-.27-.23-.1-.13-.2-.17-.33-.16-.3.02-.34.3-.04.33.1 0 .3.04.48.07z"/><path fill="#80a5d4" d="M23.65 21.47c.2 0 .23-.12.06-.2-.06 0-.2-.2-.33-.37l-.22-.34-.48.04c-.45.03-.53 0-1.07-.24-.36-.17-.64-.27-.73-.25-.26.07 0 .27.55.44.37.1.55.2.62.3.1.16 1.33.64 1.6.63z"/><path fill="#80a5d4" d="M19.17 19.54c.04-.03.02-.07-.04-.1-.06-.02-.12 0-.14.04-.02.04 0 .08.03.1.04 0 .1 0 .14-.04z"/><path fill="#80a5d4" d="M19.88 19.82c.05-.03-.02-.1-.15-.14-.13-.05-.2-.05-.2 0s.07.1.15.14c.07.03.16.03.2 0z"/><path fill="#80a5d4" d="M17.7 18.76c.1-.18-.1-.77-.27-.74-.06 0-.12.1-.13.17 0 .1-.08.15-.3.15-.15 0-.3.03-.3.05-.02.06.4.35.66.43.2.06.27.05.34-.07z"/><path fill="#80a5d4" d="M16.58 18.26c.04-.2-.15-.4-.27-.3-.05.04-.17.05-.26.03-.1-.03-.23-.03-.3-.02-.1.02 0 .08.33.2.42.17.5.18.5.08z"/><path fill="#80a5d4" d="M14.05 16.93c.18 0 .2-.03.15-.1-.04-.06-.06-.1-.04-.12.03 0 .16-.02.3-.05.2-.04.23-.07.22-.28-.02-.43-.1-.53-.63-.8-.46-.22-.56-.24-.93-.2-.37.02-.42.05-.44.22-.02.1-.02.2-.02.2.05.12.56.4.86.46.34.1.35.1.25.24-.05.08-.17.14-.26.13-.14-.02-.14 0 .04.1.1.08.2.15.24.17.02 0 .14.03.27.03z"/><path fill="#80a5d4" d="M16.92 17.32c.1-.15.13-.3.1-.33-.02-.05-.4-.22-.82-.4l-.78-.33-.33.18-.35.17.2.24c.13.18.3.28.7.44.4.15.57.25.6.34.07.2.48 0 .67-.32z"/><path fill="#80a5d4" d="M20.7 19.23c.2 0 .3.04.44.17.12.1.23.15.33.14.1 0 .54.17 1.17.46 1.13.52 1.4.6 1.5.38.03-.1-.02-.18-.2-.28-.15-.08-.37-.23-.5-.32-.17-.12-.4-.2-.75-.27-.67-.12-1.5-.52-1.72-.8-.15-.2-.23-.24-.63-.32-.25-.05-.68-.18-.96-.28-.5-.17-.8-.15-.47.03.1.05.2.16.25.24.04.08.33.28.64.44.3.17.57.33.6.36.02.06 0 .06.3.07z"/><path fill="#80a5d4" d="M10.33 15.05c.1-.07.14-.06.3.12.25.28 1.05.57 1.33.48.2-.07.2-.1.15-.22-.02-.08-.18-.23-.33-.34-.24-.2-.3-.2-.5-.16-.2.05-.3.03-.42-.08-.14-.12-.2-.12-.5-.03-.18.06-.35.13-.36.16-.04.1.2.14.33.05z"/><path fill="#80a5d4" d="M18.15 17.93c.12-.06.17-.13.15-.2-.05-.1-.6-.36-.7-.32-.1.06-.06.3.08.43.2.2.27.2.47.1z"/><path fill="#80a5d4" d="M30.4 21.7c0-.13-.18-.25-.36-.25-.2 0-.1.16.13.26.14.06.22.05.22 0z"/><path fill="#80a5d4" d="M36.67 23.83c.04 0 .02-.06-.06-.14-.1-.13-.18-.17-.37-.17-.13 0-.5-.1-.8-.22-.3-.1-.5-.15-.46-.1.06.08 1.47.6 1.7.63z"/><path fill="#80a5d4" d="M40.4 25c.02-.08-.45-.33-.65-.33-.1 0-.12.02-.05.1.1.15.65.33.7.23z"/><path fill="#80a5d4" d="M30.1 20.95c.17-.03-.07-.2-.55-.38-.35-.13-.46-.12-.4.04.05.1.82.38.96.35z"/><path fill="#80a5d4" d="M26.37 19.38c.1-.14-.33-.4-.77-.48-.4-.06-.53 0-.33.14.22.16 1.04.4 1.1.34z"/><path fill="#80a5d4" d="M27.93 20c0-.1-.24-.26-.42-.26-.2 0-.1.17.17.27.17.08.25.08.26 0z"/><path fill="#80a5d4" d="M22.02 17.53c.24.05.3.04.15-.02-.1-.03-.22-.16-.26-.26-.07-.23-.2-.3-.3-.16-.06.06-.18.05-.37-.02-.15-.06-.35-.1-.43-.1-.36 0 .6.45 1.22.57z"/><path fill="#80a5d4" d="M24.1 18.33c.02-.1-.13-.22-.35-.3-.17-.07-.3-.02-.26.1.04.08.56.27.6.2z"/><path fill="#80a5d4" d="M24.52 18.48c.02-.04-.02-.1-.08-.1-.06-.03-.12-.02-.13.02 0 .04.03.1.1.1.05.03.1.02.12-.02z"/><path fill="#80a5d4" d="M28.65 18.55c-.03-.07-1.18-.52-1.24-.5-.03.03.24.15.6.3.38.13.67.23.65.2z"/><path fill="#80a5d4" d="M17.37 13.24c0-.02-.28-.13-.62-.25l-.63-.24.45.22c.42.2.77.32.8.26z"/><path fill="#80a5d4" d="M20.16 14.37c.14 0 .13-.03-.06-.14-.28-.18-1.2-.54-1.6-.62-.25-.04-.28-.03-.2.06.17.14 1.65.7 1.86.7z"/><path fill="#80a5d4" d="M22.96 14.86c.02-.04-.03-.1-.1-.13-.08-.03-.18-.03-.22 0-.04.04 0 .1.1.13.1.04.2.04.22 0z"/><path fill="#80a5d4" d="M34.52 26.9c0-.06-.2-.17-.4-.25-.42-.16-.54-.33-.2-.3.23.04.65.34.72.54.03.08.02.12-.03.1-.03 0-.07-.06-.08-.1z"/><path fill="#80a5d4" d="M32.85 25.6c-.07-.1-.04-.1.13-.1.25 0 .87.3.84.42-.03.1-.87-.18-.97-.32z"/><path fill="#80a5d4" d="M30.9 24.78c-.04-.25.86-.08 1.12.2.1.12.15.23.14.27-.03.1-1.23-.36-1.25-.47z"/><path fill="#80a5d4" d="M35.14 24.7c-.08-.22.12-.26.44-.07.28.17.3.23.1.32-.15.07-.48-.07-.54-.24z"/></g></svg>