<svg xmlns="http://www.w3.org/2000/svg" width="48" height="48" xmlns:xlink="http://www.w3.org/1999/xlink" version="1" viewBox="0 0 612 792" enable-background="new 0 0 612 792"><defs><linearGradient><stop offset="0" stop-color="#465052"/><stop offset=".497" stop-color="#353b3d"/><stop offset="1"/></linearGradient><linearGradient x1="340.353" x2="335.096" y1="475.421" y2="457.896" xlink:href="#a" gradientUnits="userSpaceOnUse"/><radialGradient cx="339.367" cy="453.958" r="95.967" xlink:href="#b" gradientUnits="userSpaceOnUse" gradientTransform="matrix(1.017 0 0 1 -5.605 0)"/><radialGradient cx="351.672" cy="481.788" r="33.5" xlink:href="#c" gradientUnits="userSpaceOnUse" gradientTransform="matrix(1.017 0 0 1 -5.605 0)"/><radialGradient cx="359.026" cy="475.631" r="18.771" xlink:href="#d" gradientUnits="userSpaceOnUse" gradientTransform="matrix(1.017 0 0 1 -5.605 0)"/><radialGradient cx="352.289" cy="458.565" r="26.958" xlink:href="#e" gradientUnits="userSpaceOnUse" gradientTransform="matrix(.481 .881 -.314 .166 327.089 72.261)"/><radialGradient cx="334.403" cy="452.116" r="21.01" xlink:href="#f" gradientUnits="userSpaceOnUse" gradientTransform="matrix(-.514 .863 -.175 -.101 585.923 209.356)"/><radialGradient cx="335.654" cy="485.615" r="26.517" xlink:href="#g" gradientUnits="userSpaceOnUse" gradientTransform="matrix(1.007 -.141 .101 .693 -51.073 196.57)"/><radialGradient cx="347.987" cy="479.824" r="13.794" xlink:href="#h" gradientUnits="userSpaceOnUse" gradientTransform="matrix(.986 -.245 .174 .679 -78.438 239.297)"/><linearGradient id="a" x1="340.353" x2="335.096" y1="475.421" y2="457.896" gradientUnits="userSpaceOnUse"><stop offset="0" stop-color="#D8B08D" stop-opacity=".75"/><stop offset=".203" stop-color="#E9CFB5" stop-opacity=".385"/><stop offset=".749" stop-color="#fff" stop-opacity="0"/></linearGradient><radialGradient id="b" cx="339.367" cy="453.958" r="95.967" gradientTransform="matrix(1.017 0 0 1 -5.605 0)" gradientUnits="userSpaceOnUse"><stop offset="0" stop-color="#CDA183" stop-opacity=".75"/><stop offset=".141" stop-color="#E9CFB5" stop-opacity=".385"/><stop offset=".607" stop-color="#fff" stop-opacity="0"/></radialGradient><radialGradient id="c" cx="351.672" cy="481.788" r="33.5" gradientTransform="matrix(1.017 0 0 1 -5.605 0)" gradientUnits="userSpaceOnUse"><stop offset="0" stop-color="#161002" stop-opacity=".89"/><stop offset=".331" stop-color="#3F2E01" stop-opacity=".385"/><stop offset=".749" stop-color="#4C2F04" stop-opacity="0"/></radialGradient><radialGradient id="d" cx="359.026" cy="475.631" r="18.771" gradientTransform="matrix(1.017 0 0 1 -5.605 0)" gradientUnits="userSpaceOnUse"><stop offset=".037" stop-color="#443A22"/><stop offset=".429" stop-color="#1F1000" stop-opacity=".385"/><stop offset="1" stop-color="#4E3107" stop-opacity="0"/></radialGradient><radialGradient id="e" cx="352.289" cy="458.565" r="26.958" gradientTransform="matrix(.481 .881 -.314 .166 327.089 72.261)" gradientUnits="userSpaceOnUse"><stop offset=".037" stop-color="#8A756F"/><stop offset=".429" stop-color="#633812" stop-opacity=".385"/><stop offset="1" stop-color="#6F4C39" stop-opacity="0"/></radialGradient><radialGradient id="f" cx="334.403" cy="452.116" r="21.01" gradientTransform="matrix(-.514 .863 -.175 -.101 585.923 209.356)" gradientUnits="userSpaceOnUse"><stop offset="0" stop-color="#ECE7E8" stop-opacity=".52"/><stop offset=".203" stop-color="#DED8CD" stop-opacity=".385"/><stop offset=".749" stop-color="#603E14" stop-opacity="0"/></radialGradient><radialGradient id="g" cx="335.654" cy="485.615" r="26.517" gradientTransform="matrix(1.007 -.141 .101 .693 -51.073 196.57)" gradientUnits="userSpaceOnUse"><stop offset="0" stop-color="#CD925D"/><stop offset=".749" stop-color="#fff" stop-opacity="0"/></radialGradient><radialGradient id="h" cx="347.987" cy="479.824" r="13.794" gradientTransform="matrix(.986 -.245 .174 .679 -78.438 239.297)" gradientUnits="userSpaceOnUse"><stop offset="0" stop-color="#CD925D"/><stop offset=".749" stop-color="#fff" stop-opacity="0"/></radialGradient><linearGradient x1="-12.053" x2="-9.09" y1="16.643" y2="16.643" xlink:href="#i" gradientUnits="userSpaceOnUse"/><linearGradient id="i"><stop offset="0" stop-color="#ab6b00"/><stop offset="1" stop-color="#764a00"/></linearGradient><linearGradient x1="-12.053" x2="-9.09" y1="16.643" y2="16.643" xlink:href="#i" gradientUnits="userSpaceOnUse"/><linearGradient><stop offset="0" stop-color="#ab6b00"/><stop offset="1" stop-color="#764a00"/></linearGradient><linearGradient x1="-12.053" x2="-9.09" y1="16.643" y2="16.643" xlink:href="#i" gradientUnits="userSpaceOnUse"/><linearGradient><stop offset="0" stop-color="#ab6b00"/><stop offset="1" stop-color="#764a00"/></linearGradient><linearGradient x1="-12.053" x2="-9.09" y1="16.643" y2="16.643" xlink:href="#i" gradientUnits="userSpaceOnUse"/><linearGradient><stop offset="0" stop-color="#ab6b00"/><stop offset="1" stop-color="#764a00"/></linearGradient><linearGradient x1="-12.053" x2="-9.09" y1="16.643" y2="16.643" xlink:href="#i" gradientUnits="userSpaceOnUse"/><linearGradient><stop offset="0" stop-color="#ab6b00"/><stop offset="1" stop-color="#764a00"/></linearGradient><linearGradient x1="-12.053" x2="-9.09" y1="16.643" y2="16.643" xlink:href="#i" gradientUnits="userSpaceOnUse"/><linearGradient><stop offset="0" stop-color="#ab6b00"/><stop offset="1" stop-color="#764a00"/></linearGradient><linearGradient x1="-12.053" x2="-9.09" y1="16.643" y2="16.643" xlink:href="#i" gradientUnits="userSpaceOnUse"/><linearGradient><stop offset="0" stop-color="#ab6b00"/><stop offset="1" stop-color="#764a00"/></linearGradient><linearGradient x1="-12.053" x2="-9.09" y1="16.643" y2="16.643" xlink:href="#i" gradientUnits="userSpaceOnUse"/><linearGradient><stop offset="0" stop-color="#ab6b00"/><stop offset="1" stop-color="#764a00"/></linearGradient><linearGradient x1="-12.053" x2="-9.09" y1="16.643" y2="16.643" xlink:href="#i" gradientUnits="userSpaceOnUse"/><linearGradient><stop offset="0" stop-color="#ab6b00"/><stop offset="1" stop-color="#764a00"/></linearGradient><linearGradient x1="-12.053" x2="-9.09" y1="16.643" y2="16.643" xlink:href="#i" gradientUnits="userSpaceOnUse"/><linearGradient><stop offset="0" stop-color="#ab6b00"/><stop offset="1" stop-color="#764a00"/></linearGradient><linearGradient x1="-12.053" x2="-9.09" y1="16.643" y2="16.643" xlink:href="#i" gradientUnits="userSpaceOnUse"/><linearGradient><stop offset="0" stop-color="#ab6b00"/><stop offset="1" stop-color="#764a00"/></linearGradient><linearGradient x1="-12.053" x2="-9.09" y1="16.643" y2="16.643" xlink:href="#i" gradientUnits="userSpaceOnUse"/><linearGradient><stop offset="0" stop-color="#ab6b00"/><stop offset="1" stop-color="#764a00"/></linearGradient><linearGradient x1="-12.053" x2="-9.09" y1="16.643" y2="16.643" xlink:href="#i" gradientUnits="userSpaceOnUse"/><linearGradient><stop offset="0" stop-color="#ab6b00"/><stop offset="1" stop-color="#764a00"/></linearGradient><linearGradient x1="-12.053" x2="-9.09" y1="16.643" y2="16.643" xlink:href="#i" gradientUnits="userSpaceOnUse"/><linearGradient><stop offset="0" stop-color="#ab6b00"/><stop offset="1" stop-color="#764a00"/></linearGradient><linearGradient x1="-12.053" x2="-9.09" y1="16.643" y2="16.643" xlink:href="#i" gradientUnits="userSpaceOnUse"/><linearGradient><stop offset="0" stop-color="#ab6b00"/><stop offset="1" stop-color="#764a00"/></linearGradient><linearGradient x1="-12.053" x2="-9.09" y1="16.643" y2="16.643" xlink:href="#i" gradientUnits="userSpaceOnUse"/><linearGradient><stop offset="0" stop-color="#ab6b00"/><stop offset="1" stop-color="#764a00"/></linearGradient><linearGradient x1="-12.053" x2="-9.09" y1="16.643" y2="16.643" xlink:href="#i" gradientUnits="userSpaceOnUse"/><linearGradient><stop offset="0" stop-color="#ab6b00"/><stop offset="1" stop-color="#764a00"/></linearGradient><linearGradient x1="-12.053" x2="-9.09" y1="16.643" y2="16.643" xlink:href="#i" gradientUnits="userSpaceOnUse"/><linearGradient><stop offset="0" stop-color="#ab6b00"/><stop offset="1" stop-color="#764a00"/></linearGradient><linearGradient x1="-12.053" x2="-9.09" y1="16.643" y2="16.643" gradientUnits="userSpaceOnUse" xlink:href="#i"/><linearGradient x1="-12.053" x2="-9.09" y1="16.643" y2="16.643" xlink:href="#i" gradientUnits="userSpaceOnUse" gradientTransform="matrix(16.5 0 0 16.5 -91.331 3.07)"/><linearGradient x1="-12.053" x2="-9.09" y1="16.643" y2="16.643" xlink:href="#i" gradientUnits="userSpaceOnUse" gradientTransform="matrix(16.466 1.052 -1.052 16.466 523.624 61.498)"/><linearGradient x1="-12.053" x2="-9.09" y1="16.643" y2="16.643" xlink:href="#i" gradientUnits="userSpaceOnUse" gradientTransform="matrix(16.403 1.788 -1.788 16.403 602.559 78.977)"/><linearGradient x1="-12.053" x2="-9.09" y1="16.643" y2="16.643" xlink:href="#i" gradientUnits="userSpaceOnUse" gradientTransform="matrix(16.307 2.517 -2.517 16.307 726.384 105.875)"/><linearGradient x1="-12.053" x2="-9.09" y1="16.643" y2="16.643" xlink:href="#i" gradientUnits="userSpaceOnUse" gradientTransform="matrix(17.137 1.868 -1.868 17.137 619.15 141.695)"/><linearGradient x1="-12.053" x2="-9.09" y1="16.643" y2="16.643" xlink:href="#i" gradientUnits="userSpaceOnUse" gradientTransform="matrix(16.845 3.659 -3.659 16.845 776.194 157.815)"/><linearGradient x1="-12.053" x2="-9.09" y1="16.643" y2="16.643" xlink:href="#i" gradientUnits="userSpaceOnUse" gradientTransform="matrix(-17.137 1.868 1.868 17.137 -68.804 116.945)"/><linearGradient x1="-12.053" x2="-9.09" y1="16.643" y2="16.643" xlink:href="#i" gradientUnits="userSpaceOnUse" gradientTransform="matrix(17.829 1.943 -1.943 17.829 675.039 168.537)"/><linearGradient x1="-12.053" x2="-9.09" y1="16.643" y2="16.643" xlink:href="#i" gradientUnits="userSpaceOnUse" gradientTransform="matrix(17.526 3.807 -3.807 17.526 819.281 192.248)"/><linearGradient x1="-12.053" x2="-9.09" y1="16.643" y2="16.643" xlink:href="#i" gradientUnits="userSpaceOnUse" gradientTransform="matrix(18.586 2.618 -2.618 18.586 558.526 145.18)"/><linearGradient x1="-12.053" x2="-9.09" y1="16.643" y2="16.643" xlink:href="#i" gradientUnits="userSpaceOnUse" gradientTransform="matrix(18.342 3.984 -3.984 18.342 851.607 240.168)"/><linearGradient x1="-12.053" x2="-9.09" y1="16.643" y2="16.643" xlink:href="#i" gradientUnits="userSpaceOnUse" gradientTransform="matrix(19.827 2.793 -2.793 19.827 629.377 208.969)"/><linearGradient x1="-12.053" x2="-9.09" y1="16.643" y2="16.643" xlink:href="#i" gradientUnits="userSpaceOnUse" gradientTransform="matrix(19.736 3.378 -3.378 19.736 749.679 230.319)"/><linearGradient x1="-12.053" x2="-9.09" y1="16.643" y2="16.643" xlink:href="#i" gradientUnits="userSpaceOnUse" gradientTransform="matrix(19.254 5.494 -5.494 19.254 934.747 284.28)"/><linearGradient x1="-12.053" x2="-9.09" y1="16.643" y2="16.643" xlink:href="#i" gradientUnits="userSpaceOnUse" gradientTransform="matrix(-16.466 1.052 1.052 16.466 72.735 62.677)"/><linearGradient x1="-12.053" x2="-9.09" y1="16.643" y2="16.643" xlink:href="#i" gradientUnits="userSpaceOnUse" gradientTransform="matrix(-18.586 2.618 2.618 18.586 -4.595 197.037)"/><linearGradient x1="-12.053" x2="-9.09" y1="16.643" y2="16.643" xlink:href="#i" gradientUnits="userSpaceOnUse" gradientTransform="matrix(16.845 3.659 -3.659 16.845 773.898 274.472)"/><linearGradient x1="-12.053" x2="-9.09" y1="16.643" y2="16.643" xlink:href="#i" gradientUnits="userSpaceOnUse" gradientTransform="matrix(-18.342 3.984 3.984 18.342 -257.653 229.56)"/></defs><path fill-opacity=".251" fill-rule="evenodd" d="M-84.4 791.75c260.64-77.9 495.44-75.22 782.57 0L525.45 489c-152.88-38.5-304.8-41.65-449.15 0L-84.4 791.74z"/><path fill="#d3d7cf" fill-rule="evenodd" stroke="#555753" stroke-width="16.5" d="M-84.4 748.15c260.64-77.9 495.44-75.22 782.57 0L525.45 445.38c-152.88-38.5-304.8-41.64-449.15 0L-84.4 748.15z" stroke-linejoin="round"/><path fill="none" stroke="#fff" stroke-opacity=".502" stroke-width="16.5" d="M-51.54 720.9c235.35-66.3 452.17-60.73 716.02.84L515.7 460.44c-143.16-36.3-299.75-39.44-428.56-.84L-51.54 720.9z"/><path fill="#a40000" fill-rule="evenodd" stroke="#ef2929" stroke-width="8.25" d="M296.9 443.13l-6.96-226.05c-4.4-9.15-24.38-11.46-29.27.54l11.96 228.4c3.8 9.54 19.42 7.2 24.28-2.9z"/><path fill="#fce94f" fill-rule="evenodd" stroke="#c4a000" stroke-width="8.967" d="M310.68 548.2l12.84-212.05c-7.5-6.63-24.68-6.9-28.66 3.04l-8.1 210.06c6.8 7 19.6 7.4 23.92-1.05z"/><path fill="#fce94f" fill-rule="evenodd" stroke="#c4a000" stroke-width="8.967" d="M185.65 480L149.7 279.32c-7.24-7.5-23.78-7.82-27.62 3.44l41.37 201.42c6.55 7.94 18.04 5.4 22.2-4.18z" color="#000" overflow="visible" enable-background="accumulate"/><path fill="#fce94f" fill-rule="evenodd" stroke="#c4a000" stroke-width="8.967" d="M233.38 621.43l-4.48-171.5c-7.83-7.52-25.76-7.84-29.9 3.43L209.3 625.6c7.1 7.95 19.56 5.4 24.06-4.17z" color="#000" overflow="visible" enable-background="accumulate"/><path fill="#fce94f" fill-rule="evenodd" stroke="#c4a000" stroke-width="8.967" d="M426.13 490.02L453.2 235.7c-5.6-9.17-21.97-11.48-28.18.52l-21.84 255.8c4.83 9.55 16.8 8.1 22.95-2z" color="#000" overflow="visible" enable-background="accumulate"/><path fill="#fce94f" fill-rule="evenodd" stroke="#c4a000" stroke-width="8.967" d="M452.55 599.98l22.37-233.07c6.75-5.34 24.06-6.14 29.3 1.36L476.3 602.03c-6 5.62-18.32 4.3-23.73-2.05z" color="#000" overflow="visible" enable-background="accumulate"/><path fill="#a40000" fill-rule="evenodd" stroke="#ef2929" stroke-width="8.967" d="M541.52 567.04l44.22-315.2c6.22-11.9 23.12-12.4 26.42 5.44l-48.87 316.4c-5.65 12.57-18.2 8.53-21.78-6.64z"/><path fill="#a40000" fill-rule="evenodd" stroke="#ef2929" stroke-width="8.967" d="M73.13 570.62l-46-176.7c-6.2-6.63-24-3.38-27.3 6.58l48.88 176.47c5.65 7.02 20.85 2.12 24.43-6.35z"/><path fill="#a40000" fill-rule="evenodd" stroke="#ef2929" stroke-width="10.011" d="M352.2 648.7l13.38-138.5c6.18-5.34 22-6.14 26.8 1.36l-14.95 144.5c-5.48 5.6-21.17 5.17-25.23-7.36z"/></svg>