<svg xmlns="http://www.w3.org/2000/svg" width="48" height="48" xmlns:xlink="http://www.w3.org/1999/xlink"><defs><linearGradient id="c"><stop offset="0" stop-color="#b3baac"/><stop offset=".5" stop-color="#fff"/><stop offset="1" stop-color="#a3ac9b"/></linearGradient><linearGradient id="b"><stop offset="0" stop-color="#d3d7cf"/><stop offset="1" stop-color="#d3d7cf" stop-opacity="0"/></linearGradient><linearGradient id="a"><stop offset="0" stop-color="#fff"/><stop offset=".232" stop-color="#c6c6c6"/><stop offset=".333" stop-color="#999"/><stop offset=".5" stop-color="#fff"/><stop offset=".633" stop-color="#bbb"/><stop offset=".76" stop-color="#f0f0f0"/><stop offset=".908" stop-color="#c0c0c0"/><stop offset="1" stop-color="#ebebeb"/></linearGradient><linearGradient x1="7.113" x2="40.758" y1="42.219" y2="12.621" xlink:href="#a" gradientUnits="userSpaceOnUse" gradientTransform="matrix(1.02 0 0 1.02 -.48 -.469)"/><linearGradient x1="19.748" x2="13.89" y1="29.514" y2="46.939" xlink:href="#b" gradientUnits="userSpaceOnUse"/><linearGradient x1="22.136" x2="23.635" y1="2.342" y2="2.241" xlink:href="#c" gradientUnits="userSpaceOnUse"/><linearGradient x1="22.136" x2="23.635" y1="2.342" y2="2.241" xlink:href="#c" gradientUnits="userSpaceOnUse"/><linearGradient x1="7.113" x2="40.758" y1="42.219" y2="12.621" xlink:href="#a" gradientUnits="userSpaceOnUse" gradientTransform="matrix(1.02 0 0 1.02 -.48 -.469)"/><linearGradient x1="19.748" x2="13.89" y1="29.514" y2="46.939" xlink:href="#b" gradientUnits="userSpaceOnUse"/><linearGradient id="f" x1="19.748" x2="13.89" y1="29.514" y2="46.939" xlink:href="#b" gradientUnits="userSpaceOnUse" gradientTransform="matrix(1.009 .295 -.295 1.009 8.415 -5.741)"/><linearGradient id="e" x1="7.113" x2="40.758" y1="42.219" y2="12.621" xlink:href="#a" gradientUnits="userSpaceOnUse" gradientTransform="matrix(.964 .469 -.469 .964 14.028 -8.642)"/><linearGradient id="d" x1="22.136" x2="23.635" y1="2.342" y2="2.241" xlink:href="#c" gradientUnits="userSpaceOnUse" gradientTransform="matrix(1.009 .295 -.295 1.009 8.415 -5.741)"/></defs><g><path fill="#fff" stroke="#000" stroke-width=".5" d="M40.6 20.14l-.25-1.2c.22-.52 1.06-.8 1.7-.46l.5 1.14z" color="#000" stroke-linecap="round" overflow="visible" enable-background="accumulate"/><path stroke="#000" d="M45.6 20.58c-.2-.12-.44-.2-.67-.3-.92-.3-2.18-.43-3.12-.24-2.02.4-3.2 3.4-4.23 3.75-2.8.9-9.3 1.42-9.3 1.42l-3.57-.65L1.2 35.02l-.32 1 25.43-8.17c.04-.02.1-.04.12-.06 3.46-1.1 10.08-2.6 11.86-2.18.72.17 1.68 1.1 3.1 1.77 1.3.6 3 .4 3.8-.05.75-.43 1.55-.68 2.04-1.74.73-1.53.24-3.25-.66-4.22l.03.1c-.3-.4-.6-.68-1-.9zm-.53 1.2c.53.26 1 .65 1.3 1.18.38.7.18 1.92-.32 2.6 0 .03 0 .05-.02.07-.76.63-1.85 1-3.04.95-1.34-.06-2.48-.64-3.12-1.48l.16.1c-.3-.57-.45-1.28-.3-1.74.33-1.07 1.5-2.08 2.67-2.2.7-.07 1.78.06 2.67.5z" color="#000" stroke-linecap="round" overflow="visible" enable-background="accumulate"/><path fill="url(#d)" stroke="#2e3436" stroke-width=".5" d="M29.83 1.5c.4 2.02-.1 3.03-.38 4.3l1.56.4c-.03-1.36.64-2.7 1.57-4.07-1-1.1-1.88-1.05-2.74-.63z" color="#000" stroke-linecap="round" overflow="visible" enable-background="accumulate"/><path fill="#555753" stroke="#2e3436" d="M31.47 6.25c-.22.12-.52-.1-.8-.16-2.67-.64-4.25 1.8-4.6 2.76-.07.2-.1.37-.13.56C25.22 11 27.1 13.6 27 14.8c-.86 2.3-1.73 4.2-2.6 5.93l-5.3 7.88L8.32 46.24h.92l.2-.27 16.2-20.36-.04-4.17 2.08-4.97c.57-1.35 1.33-2.27 2.43-2.68 1.57-.58 2.74-1.3 3.28-2.7.8-2.07-.56-4.53-1.9-4.83zm-.88 1c.5.1.94.33 1.25.58.9.73.86 2.07.86 2.07l.1-.22c-.1.7-.42 1.4-1 1.98-1.3 1.3-3.3 1.4-4.53.24-.5-.46-.75-1.07-.83-1.7l.37 1s-.27-.85 0-1.6c.4-1.2 1.36-1.9 2.17-2.2.56-.2 1.12-.24 1.62-.15z" color="#000" stroke-linecap="round" overflow="visible" enable-background="accumulate"/><path fill="#888a85" d="M40.04 25.23c-.3-.58-.46-1.3-.3-1.77.33-1.07 1.5-2.07 2.68-2.2 1.12-.1 3.2.3 3.94 1.7.46.83.1 2.37-.58 2.92l1.28-1.27v-2L46 21.03l-2.54-.9-2.76.6-1.82 2v1.58z" color="#000" overflow="visible" enable-background="accumulate"/><path fill="#555753" d="M26.42 27.8c3.47-1.1 10.1-2.6 11.87-2.2.7.18 1.66 1.12 3.07 1.8 1.3.6 3 .43 3.82-.04.74-.42 1.54-.7 2.04-1.75.72-1.54.23-3.26-.67-4.23l.64 1.93-.23 1.54-1.1 1.3-1.74.7-2.16-.13-2-1-1.65-1.2-10.88 1.62z" color="#000" overflow="visible" enable-background="accumulate"/><path fill="url(#e)" d="M44.93 20.3c-.92-.32-2.18-.45-3.1-.26-2.04.4-3.22 3.4-4.26 3.75-2.8.9-9.3 1.42-9.3 1.42l-3.57-.65L1.2 35.02l-.32 1 25.43-8.17c1.53-1.37 9.26-2.84 11.8-2.8.96.02 3.06 2.45 6 2.1 2.43-.3 3.8-2.68 3-4.76-.43-1.16-1.24-1.8-2.17-2.1zm-.1.43c1.36.52 2.3 1.66 2.22 2.94-.1 1.7-1.92 3-4.06 2.9-2.14-.1-3.78-1.54-3.68-3.24.1-1.7 1.9-3 4.03-2.92.53.04 1.03.15 1.48.33z" color="#000" overflow="visible" enable-background="accumulate"/><path fill="#555753" d="M25.88 9.15l.64 2.4 1.55 1.62 2.7-.48 1.78-1.57c.28-.76.75-1.95.37-2.87-.52-1.23-1.95-2.1-1.46-2 1.35.3 2.72 2.74 1.93 4.8-.55 1.4-1.73 2.13-3.3 2.7-1.08.42-1.85 1.34-2.4 2.7l-2.08 4.97v4.18L9.3 46.2l15.57-25.45 2.03-5.56c.73-1.87-1.9-3.64-1-6.05z" color="#000" overflow="visible" enable-background="accumulate"/><path fill="#888a85" d="M26.8 11.22l-.7-1.9 1.12-2.04 1.96-1.12 1.98.18 1.45 1.22.43 1.65-.32.7s.03-1.36-.86-2.1c-.62-.5-1.76-.8-2.88-.4-.8.28-1.75.98-2.17 2.18-.27.75 0 1.64 0 1.64z" color="#000" overflow="visible" enable-background="accumulate"/><path fill="#fff" d="M30.68 6.1c-2.68-.64-4.26 1.8-4.6 2.76-.36.97-.04 1.98-.04 1.98l1.4 2.65c-1 2.94-2 5.2-3.03 7.23l-5.3 7.88L8.32 46.24h.92L25.18 25l-.2-3.93s1.72-3.85 2.9-6.44c.47-1.08 2.05-1.4 3.32-2.07.85-.44 1.6-1.26 1.87-2.1.26-.84.3-3.73-2.4-4.37zm.28.5c.38.12.73.32 1.04.6 1.2 1.16 1.12 3.16-.2 4.46-1.3 1.3-3.3 1.4-4.53.24-1.2-1.15-1.16-3.13.14-4.43 1-.97 2.4-1.27 3.56-.88z" color="#000" overflow="visible" enable-background="accumulate"/><path fill="#d3d7cf" stroke="#888a85" stroke-width="1.7" d="M27.73 9.3a3.8 4.07 0 1 1-7.58 0 3.8 4.07 0 1 1 7.58 0z" transform="matrix(.213 .2 -.212 .207 18.508 20.653)" color="#000" stroke-linecap="round" overflow="visible" enable-background="accumulate"/><path fill="#888a85" d="M19.62 27.5l1 3.27-1.98-1.56z" color="#000" overflow="visible" enable-background="accumulate"/><path fill="#888a85" d="M28.25 25.2l-.16 1.72s.53-.47.56-1.02c0-.4-.4-.7-.4-.7z" color="#000" overflow="visible" enable-background="accumulate"/><path fill="#babdb6" d="M26.05 27.93l-.4-1.87.8 1.7z" color="#000" overflow="visible" enable-background="accumulate"/><path fill="url(#f)" d="M18.84 29l1.57 1.6L8.35 46.35z"/></g></svg>