<svg xmlns="http://www.w3.org/2000/svg" width="48" height="48" xmlns:xlink="http://www.w3.org/1999/xlink" version="1" viewBox="0 0 612 792" enable-background="new 0 0 612 792"><defs><linearGradient id="m"><stop offset="0" stop-color="#ec9e23"/><stop offset="1" stop-color="#c17d11"/></linearGradient><radialGradient cx="824.329" cy="111.252" r="46.312" xlink:href="#a" gradientUnits="userSpaceOnUse" gradientTransform="translate(-823.738 -75.782)" fx="824.329" fy="111.252"/><radialGradient id="a" cx="824.329" cy="111.252" r="46.312" gradientUnits="userSpaceOnUse" fy="111.252" fx="824.329" gradientTransform="translate(-823.738 -75.782)"><stop offset=".006" stop-color="#FAAF3E"/><stop offset=".646" stop-color="#F17912"/><stop offset="1" stop-color="#DD680E"/></radialGradient><radialGradient cx="804.052" cy="127.362" r="71.221" xlink:href="#b" gradientUnits="userSpaceOnUse" fx="804.052" fy="127.362"/><radialGradient id="b" cx="804.052" cy="127.362" r="71.221" gradientUnits="userSpaceOnUse" fy="127.362" fx="804.052"><stop offset=".006" stop-color="#FAAF3E"/><stop offset=".646" stop-color="#F17912"/><stop offset="1" stop-color="#DD680E"/></radialGradient><radialGradient cx="824.328" cy="111.252" r="46.311" xlink:href="#c" gradientUnits="userSpaceOnUse" fx="824.328" fy="111.252"/><radialGradient id="c" cx="824.328" cy="111.252" r="46.311" gradientUnits="userSpaceOnUse" fy="111.252" fx="824.328"><stop offset=".006" stop-color="#FAAF3E"/><stop offset=".646" stop-color="#F17912"/><stop offset="1" stop-color="#DD680E"/></radialGradient><radialGradient cx="824.331" cy="111.252" r="46.304" xlink:href="#d" gradientUnits="userSpaceOnUse" fx="824.331" fy="111.252"/><radialGradient id="d" cx="824.331" cy="111.252" r="46.304" gradientUnits="userSpaceOnUse" fy="111.252" fx="824.331"><stop offset=".006" stop-color="#FAAF3E"/><stop offset=".646" stop-color="#F17912"/><stop offset="1" stop-color="#DD680E"/></radialGradient><radialGradient cx="824.325" cy="111.252" r="46.319" xlink:href="#e" gradientUnits="userSpaceOnUse" fx="824.325" fy="111.252"/><radialGradient id="e" cx="824.325" cy="111.252" r="46.319" gradientUnits="userSpaceOnUse" fy="111.252" fx="824.325"><stop offset=".006" stop-color="#FAAF3E"/><stop offset=".646" stop-color="#F17912"/><stop offset="1" stop-color="#DD680E"/></radialGradient><radialGradient cx="824.327" cy="111.253" r="46.314" xlink:href="#f" gradientUnits="userSpaceOnUse" fx="824.327" fy="111.253"/><radialGradient id="f" cx="824.327" cy="111.253" r="46.314" gradientUnits="userSpaceOnUse" fy="111.253" fx="824.327"><stop offset=".006" stop-color="#FAAF3E"/><stop offset=".646" stop-color="#F17912"/><stop offset="1" stop-color="#DD680E"/></radialGradient><radialGradient cx="824.326" cy="111.252" r="46.315" xlink:href="#g" gradientUnits="userSpaceOnUse" fx="824.326" fy="111.252"/><radialGradient id="g" cx="824.326" cy="111.252" r="46.315" gradientUnits="userSpaceOnUse" fy="111.252" fx="824.326"><stop offset=".006" stop-color="#FAAF3E"/><stop offset=".646" stop-color="#F17912"/><stop offset="1" stop-color="#DD680E"/></radialGradient><radialGradient cx="824.328" cy="111.252" r="46.311" xlink:href="#h" gradientUnits="userSpaceOnUse" fx="824.328" fy="111.252"/><radialGradient id="h" cx="824.328" cy="111.252" r="46.311" gradientUnits="userSpaceOnUse" fy="111.252" fx="824.328"><stop offset=".006" stop-color="#FAAF3E"/><stop offset=".646" stop-color="#F17912"/><stop offset="1" stop-color="#DD680E"/></radialGradient><radialGradient cx="824.328" cy="111.253" r="46.311" xlink:href="#i" gradientUnits="userSpaceOnUse" fx="824.328" fy="111.253"/><radialGradient id="i" cx="824.328" cy="111.253" r="46.311" gradientUnits="userSpaceOnUse" fy="111.253" fx="824.328"><stop offset=".006" stop-color="#FAAF3E"/><stop offset=".646" stop-color="#F17912"/><stop offset="1" stop-color="#DD680E"/></radialGradient><radialGradient cx="824.328" cy="111.251" r="46.31" xlink:href="#j" gradientUnits="userSpaceOnUse" fx="824.328" fy="111.251"/><radialGradient id="j" cx="824.328" cy="111.251" r="46.31" gradientUnits="userSpaceOnUse" fy="111.251" fx="824.328"><stop offset=".006" stop-color="#FAAF3E"/><stop offset=".646" stop-color="#F17912"/><stop offset="1" stop-color="#DD680E"/></radialGradient><radialGradient cx="824.325" cy="111.253" r="46.316" xlink:href="#k" gradientUnits="userSpaceOnUse" fx="824.325" fy="111.253"/><radialGradient id="k" cx="824.325" cy="111.253" r="46.316" gradientUnits="userSpaceOnUse" fy="111.253" fx="824.325"><stop offset=".006" stop-color="#FAAF3E"/><stop offset=".646" stop-color="#F17912"/><stop offset="1" stop-color="#DD680E"/></radialGradient><radialGradient cx="824.33" cy="111.252" r="46.307" xlink:href="#l" gradientUnits="userSpaceOnUse" fx="824.33" fy="111.252"/><radialGradient id="l" cx="824.33" cy="111.252" r="46.307" gradientUnits="userSpaceOnUse" fy="111.252" fx="824.33"><stop offset=".006" stop-color="#FAAF3E"/><stop offset=".646" stop-color="#F17912"/><stop offset="1" stop-color="#DD680E"/></radialGradient><radialGradient id="n" cx="277.272" cy="151.339" r="181.353" xlink:href="#m" fx="277.272" fy="151.339" gradientTransform="matrix(.89 -.456 .239 .466 -5.656 190.191)" gradientUnits="userSpaceOnUse"/></defs><path fill="#c17d11" stroke="#8f5902" stroke-width="8.25" d="M108.48 201.24c-32.37-.24-66.43 10.06-90.3 27.93 23-2.67 41.06-3.7 56.94 6.2-13.9 11.97-25.6 35.65-19.98 55.88 12.3-20.44 26.17-23.35 40.38-22.35z"/><path fill="#c17d11" stroke="#8f5902" stroke-width="8.25" d="M325.45 121.1c22.45-23.33 53.6-40.5 83.1-45.08-18 14.6-31.37 26.78-35.37 45.08 18.26-1.58 43.38 6.6 53.92 24.75-23.22-5.48-35 2.4-44.2 13.26z"/><path stroke="#000" stroke-width="16.5" d="M373.76 730.98c-8.9-13.17-34.3-32.28-47.67-41.2-24.63-16.45-41.58-14.75-68.72-8.7-33.22 7.33-61.6 30.3-86.5 63.15-37.12 48.8-53.75 42.9-57.46 33.07-15.58-61.3 59.05-158.65 60.1-234.38.03-2.4.13-5.2.23-8.15.5-11.27.16-23.77.16-23.77s-33.73 5.14-59.18 5.72c-14.7.23-27.92-1.04-33.17-6-12.04-11.44-22.84-35.76-19.05-77.55 3.85-41.8-8.55-66.88-4.85-90.9 2.84-18.2 13.92-43.57 21.7-58.95 10.88-21.5 14.77-44.23 21.76-67.52 9.7-32.1 26.22-65.4 52.8-86.9 8.46-6.84 18.74-11.34 29.23-15.97 44.15-19.48 174.7 3.82 221.56 68.53 24.96 34.5 47.16 125.75 18.94 204.46-19.5 54.4-60.9 79.46-67.38 88.77-9.76 14-19.6 32.3-17.08 47.1 2.34 13.64 6.16 26.08 12.82 35.5.2 54.55 3.15 66.4 5.2 77.78 2.07 11.32 17.98 76.94 16.56 95.9z"/><path fill="none" stroke="#888a85" stroke-width="8.25" d="M369.36 721.14c-8.6-12.7-33.1-31.17-46.02-39.78-23.77-15.9-40.12-14.24-66.32-8.42-32.07 7.1-59.45 29.26-83.5 61-35.83 47.1-51.9 41.4-55.47 31.92-15.03-59.17 57-153.18 58.02-226.3.03-2.3.12-5.03.22-7.88.48-10.88.15-22.95.15-22.95s-32.58 4.96-57.14 5.53c-14.17.22-26.94-1-32-5.8-11.63-11.04-22.06-34.53-18.4-74.88 3.72-40.36-8.25-64.58-4.68-87.77 2.74-17.55 13.44-42.06 20.94-56.9 10.5-20.76 14.26-42.72 21-65.2 9.35-31 25.32-63.16 50.96-83.92 8.17-6.6 18.1-10.95 28.22-15.4 42.62-18.82 168.63 3.68 213.87 66.16 24.1 33.3 45.54 121.42 18.3 197.42-18.82 52.5-58.77 76.72-65.04 85.72-9.42 13.52-18.93 31.2-16.48 45.48 2.25 13.17 5.95 25.18 12.36 34.28.2 52.67 3.05 64.12 5.02 75.1 2 10.93 17.37 74.3 16 92.6z"/><path fill="#c17d11" stroke="#8f5902" stroke-width="8.25" d="M269.9 225.94c33.15 39.85 29.4 73.94 27.12 108.26 10.42-20.87 28.77-31.82 29.68-64.58 12.24 31.23 9.04 54.94 9.1 80.23 10.16-20.16 28.4-36.9 20.1-64.87 15.27 23.05 12.2 47.5 9.6 71.9 7.42-15.3 22.52-22.62 22-46.17 15 27.48 3.64 40.74 3.8 60.22 10.7-12.28 26.6-20.85 26.76-40.64 11.52 16.43 11.8 37.14 7.5 59.6 13.82-34.33 33.76-54.57 19.33-111.02-10.34-40.4-26.6-64.2-61.72-73.5-38.36-10.13-82.7 2.88-113.27 20.58z"/><path fill="url(#n)" stroke="#8f5902" stroke-width="8.25" d="M341.36 121.98c-7.33-33.6 20.7-67.18 37.12-100.77-29.72 10-55.76 25.38-69.83 58.35-3.7-25.23 3.8-45.68 8.84-70.7-24.85 14.06-40.83 31.9-47.74 55.68-18.76-18.8-13.82-40.96-17.68-61.88-12 18.45-23.1 37.37-21.2 62.76C216.9 52.8 205.4 25.46 193.73-.87c7.5 26.22-2.25 52.44-13.26 78.67C178.4 57.25 161.8 34.3 146 11.5c8.9 36.5 4.1 64.8 1.78 94.57-10.35-23.94-24.32-44.17-48.62-53.92 12.56 23.06 25.74 46.02 23.87 71.6-18.9-9.68-35.92-21.25-70.72-15.03 25.67 10.93 37.67 33.25 49.5 55.7-27.33-10.4-52.77-5.65-77.77 2.64 26.1 7.93 51.75 16.72 66.3 47.73l27.4-28.3L129.2 198l13.27-28.3 14.15 17.7 21.2-22.1 9.73 26.5 21.22-15.9 6.2 31.82c23.73-56.16 76.8-90.44 126.4-85.74z"/><path fill="none" stroke="#8f5902" stroke-width="8.25" d="M181.37 76.02c-7.08 27.1-7.08 45.96 0 56.57"/><path fill="none" stroke="#8f5902" stroke-width="8.25" d="M231.75 64.53c-2.95 20.5 3.25 35.77 16.8 46.85"/><path fill="none" stroke="#8f5902" stroke-width="8.25" d="M271.53 64.53c15.9 17.65 8.38 32.15 8.84 47.73"/><path fill="none" stroke="#8f5902" stroke-width="8.25" d="M124.8 127.3c-9.78 19.27-4.8 28.72-.9 38.88"/><path fill="none" stroke="#8f5902" stroke-width="8.25" d="M231.3 62.56c-14.54 14.75-18.6 30.73-14.26 47.68"/><path fill="none" stroke="#e9b96e" stroke-width="8.25" d="M110.65 65.4c44.74 51.6 3.7 85.83 16.8 101.66"/><path fill="none" stroke="#e9b96e" stroke-width="8.25" d="M152.47 32.68c12.3 15 18.82 30.18 21.55 46.9"/><path fill="none" stroke="#e9b96e" stroke-width="8.25" d="M36.7 166.4c22.2-4.05 56.75 1.12 72.77 6.64"/><path fill="none" stroke="#e9b96e" stroke-width="8.25" d="M36.7 166.4c22.2-4.05 56.75 1.12 72.77 6.64"/><path fill="#e9b96e" stroke="#c17d11" stroke-width="8.25" d="M219.38 212.14c50.1 13.25 66.82 43.2 84.85 72.5-3.6-23.06 5-42.62-13.26-69.85 28.08 18.35 39.22 39.52 53.92 60.1-3.4-22.32 1.75-46.55-21.22-64.52 25.8 9.93 37.47 31.62 49.5 53.03-2.82-16.76 5.23-31.5-8.84-50.37 28.15 13.68 26.58 31.07 38 46.85 1.6-16.2 9.58-32.42-1.76-48.62 18.9 6.7 31.14 23.4 40.66 44.2-8.64-35.98-4.13-64.03-48.62-101.66-31.84-26.93-58.9-36.9-92.88-24.1-37.14 14-65.73 50.3-80.36 82.44z"/><g fill="none" stroke="#a40000"><path d="M292.64 284.35c-1.4 1.85-25.88 68.7-26.73 71.17-.83 2.48-11.2-.4-10.34-2.77 15.53-41.78 24.44-68.8 24.68-71.08.16-1.5 13.12 1.74 12.4 2.68z"/><path d="M333.46 294.57c-1.38 1.85-25.57 71.56-26.42 74.03-.83 2.48-11.2-.4-10.35-2.78 15.54-41.8 23.9-71.8 24.13-74.06.18-1.54 13.36 1.86 12.63 2.8z"/><path d="M371.2 304.2c-1.4 1.83-14.95 48.95-24.24 76.4-.85 2.48-11.2-.4-10.35-2.77 14.24-41.47 22.62-74.5 22.85-76.82.18-1.5 12.45 2.24 11.74 3.2z"/><path d="M444.85 326.02c-1.4 1.85-12.32 50.48-21.6 77.93-.84 2.48-11.22-.4-10.36-2.78 12.98-42.3 20.53-76.5 20.76-78.8.16-1.54 11.9 2.7 11.2 3.65z"/><path d="M479.68 337.55c-1.4 1.84-10.54 47.62-19.97 78.1-.76 2.5-10.16-.58-9.3-2.97 11.35-42.73 17.84-76.73 18.1-79.04.16-1.52 11.9 2.96 11.18 3.9z"/><path d="M514.38 349.2c-1.4 1.84-14.2 64.94-18.96 78.12-.9 2.46-10.17-.56-9.32-2.94 9.74-43.7 16.94-76.16 17.2-78.45.16-1.53 11.8 2.32 11.08 3.27z"/><path d="M546.85 362.42c-1.4 1.85-11.06 56.9-16.06 75.68-.68 2.53-10.17-.57-9.33-2.93 7.16-33.73 14.82-73.95 15.06-76.25.16-1.52 11.03 2.55 10.32 3.5z"/><path d="M579.18 375.5c-1.4 1.85-9.15 54.2-14.15 72.98-.68 2.5-10.17-.58-9.3-2.96 7.13-33.72 12.16-72 12.4-74.3.18-1.52 11.77 3.34 11.05 4.3z"/><path d="M610.76 392c-1.4 1.85-5.14 30.9-12.6 66.66-.56 2.56-10.2-.56-9.34-2.94 7.15-33.74 11.28-65.8 11.53-68.1.16-1.53 11.12 3.43 10.4 4.38z"/><path d="M409.36 313.63c-.75 2.2-15.38 47.8-23.9 78.85-.68 2.53-11.2-.4-10.34-2.77 12.4-40.47 22-77.2 22.25-79.5.15-1.52 12.63 1.55 12 3.43z"/></g><path fill="#ef2929" stroke="#a40000" stroke-width="6.344" d="M619.53 404.8c4 1.73-4.57 51.8-4.64 58.47-.04 2.54 15.26 6.37 16.6 1.87 7.53-25.04 17.42-72.4 18.4-81.78.96-9.4-3.3-14.65-8.13-17.24C569.7 327.46 363.35 252.02 254.15 233c-7.3-1.27-12.2 3.72-15.07 8.98-4.52 8.24-20.4 60.4-26.4 95.32-.93 5.47 15.25 10.1 17.3 5.66 6.15-13.28 23.54-57.36 27.72-58 151.4 26.16 254.8 67.3 361.83 119.85z"/><g fill="#ef2929" transform="matrix(6.419 6.981 -6.981 6.419 -4262.932 -6236.909)"><radialGradient cx="824.328" cy="111.252" r="46.311" gradientUnits="userSpaceOnUse" fy="111.252" fx="824.328"><stop offset=".006" stop-color="#FAAF3E"/><stop offset=".646" stop-color="#F17912"/><stop offset="1" stop-color="#DD680E"/></radialGradient><path d="M831.33 111.83c.05.24 3.5 6.92 3.62 7.16.13.23-.83.83-.95.6-2.14-4.2-3.6-6.8-3.76-7-.1-.12 1.07-.9 1.1-.77z"/><radialGradient cx="824.331" cy="111.252" r="46.304" gradientUnits="userSpaceOnUse" fy="111.252" fx="824.331"><stop offset=".006" stop-color="#FAAF3E"/><stop offset=".646" stop-color="#F17912"/><stop offset="1" stop-color="#DD680E"/></radialGradient><path d="M835.04 109.4c.04.23 3.73 7.1 3.86 7.33.13.24-.83.84-.95.6-2.14-4.18-3.87-6.97-4.03-7.16-.1-.12 1.1-.9 1.12-.77z"/><radialGradient cx="824.325" cy="111.252" r="46.319" gradientUnits="userSpaceOnUse" fy="111.252" fx="824.325"><stop offset=".006" stop-color="#FAAF3E"/><stop offset=".646" stop-color="#F17912"/><stop offset="1" stop-color="#DD680E"/></radialGradient><path d="M838.48 107.15c.04.24 2.73 4.66 4.2 7.34.13.23-.83.83-.95.6-2.2-4.07-4.17-7.08-4.34-7.26-.1-.13 1.06-.8 1.08-.7z"/><radialGradient cx="824.327" cy="111.253" r="46.314" gradientUnits="userSpaceOnUse" fy="111.253" fx="824.327"><stop offset=".006" stop-color="#FAAF3E"/><stop offset=".646" stop-color="#F17912"/><stop offset="1" stop-color="#DD680E"/></radialGradient><path d="M845.43 103c.05.23 3.04 4.55 4.5 7.23.14.24-.82.84-.95.6-2.35-4.02-4.47-7.05-4.63-7.23-.1-.12 1.06-.73 1.08-.6z"/><radialGradient cx="824.326" cy="111.252" r="46.315" gradientUnits="userSpaceOnUse" fy="111.252" fx="824.326"><stop offset=".006" stop-color="#FAAF3E"/><stop offset=".646" stop-color="#F17912"/><stop offset="1" stop-color="#DD680E"/></radialGradient><path d="M848.8 101.1c.06.25 2.96 4.23 4.65 7.14.14.24-.77.75-.9.5-2.5-3.92-4.68-6.85-4.84-7.04-.1-.12 1.1-.7 1.1-.6z"/><radialGradient cx="824.328" cy="111.252" r="46.311" gradientUnits="userSpaceOnUse" fy="111.252" fx="824.328"><stop offset=".006" stop-color="#FAAF3E"/><stop offset=".646" stop-color="#F17912"/><stop offset="1" stop-color="#DD680E"/></radialGradient><path d="M852.2 99.25c.04.24 4.02 5.74 4.7 7.05.13.24-.77.75-.9.5-2.7-3.86-4.7-6.74-4.85-6.92-.1-.12 1.02-.75 1.04-.63z"/><radialGradient cx="824.328" cy="111.253" r="46.311" gradientUnits="userSpaceOnUse" fy="111.253" fx="824.328"><stop offset=".006" stop-color="#FAAF3E"/><stop offset=".646" stop-color="#F17912"/><stop offset="1" stop-color="#DD680E"/></radialGradient><path d="M855.54 97.67c.04.24 3.62 4.92 4.72 6.65.15.23-.77.75-.9.52-2.1-2.97-4.67-6.43-4.83-6.62-.1-.12.98-.67 1-.55z"/><radialGradient cx="824.328" cy="111.251" r="46.31" gradientUnits="userSpaceOnUse" fy="111.251" fx="824.328"><stop offset=".006" stop-color="#FAAF3E"/><stop offset=".646" stop-color="#F17912"/><stop offset="1" stop-color="#DD680E"/></radialGradient><path d="M858.86 96.1c.04.24 3.55 4.58 4.65 6.3.16.24-.76.75-.88.52-2.1-2.97-4.72-6.1-4.88-6.27-.1-.12 1.1-.68 1.12-.55z"/><radialGradient cx="824.325" cy="111.253" r="46.316" gradientUnits="userSpaceOnUse" fy="111.253" fx="824.325"><stop offset=".006" stop-color="#FAAF3E"/><stop offset=".646" stop-color="#F17912"/><stop offset="1" stop-color="#DD680E"/></radialGradient><path d="M862.4 94.83c.04.24 2.03 2.6 4.27 5.73.16.23-.77.75-.9.52-2.1-2.97-4.3-5.58-4.46-5.76-.1-.12 1.07-.62 1.1-.5z"/><radialGradient cx="824.33" cy="111.252" r="46.307" gradientUnits="userSpaceOnUse" fy="111.252" fx="824.33"><stop offset=".006" stop-color="#FAAF3E"/><stop offset=".646" stop-color="#F17912"/><stop offset="1" stop-color="#DD680E"/></radialGradient><path d="M841.94 104.86c.1.22 2.6 4.6 4.4 7.5.16.22-.82.83-.94.6-2.26-3.86-4.42-7.23-4.58-7.4-.1-.13 1.02-.88 1.12-.7z"/></g><path fill="none" stroke="#f2d5a8" stroke-width="8.25" d="M260.92 181.2c22 10.64 33.72 25.13 48.62 46.85"/><path fill="none" stroke="#f2d5a8" stroke-width="8.25" d="M299.8 175.9c22.02 10.64 33.74 25.13 48.63 46.85"/><path fill="none" stroke="#f2d5a8" stroke-width="8.25" d="M331.63 171.48c22 10.64 33.73 25.13 48.62 46.85"/><path fill="none" stroke="#f2d5a8" stroke-width="8.25" d="M354.62 160.88c22 10.63 33.72 25.12 48.6 46.84"/></svg>