<svg xmlns="http://www.w3.org/2000/svg" width="48" height="48" xmlns:xlink="http://www.w3.org/1999/xlink"><defs><linearGradient id="c"><stop offset="0" stop-color="#2e3436"/><stop offset="1" stop-color="#2e3436" stop-opacity="0"/></linearGradient><linearGradient><stop offset="0" stop-color="#68767a"/><stop offset="1"/></linearGradient><linearGradient><stop offset="0" stop-color="#85907a"/><stop offset=".704" stop-color="#cfcfcf"/><stop offset="1" stop-color="#9fa896"/></linearGradient><linearGradient><stop offset="0" stop-color="#d3d7cf"/><stop offset=".75" stop-color="#fff"/><stop offset="1" stop-color="#9fa896"/></linearGradient><linearGradient><stop offset="0" stop-color="#d3d7cf"/><stop offset=".288" stop-color="#fff"/><stop offset="1" stop-color="#9fa896"/></linearGradient><linearGradient><stop offset="0" stop-color="#fff"/><stop offset="1" stop-color="#bbbbb3"/></linearGradient><linearGradient><stop offset="0" stop-color="#ef2929"/><stop offset="1" stop-color="#b70e0e"/></linearGradient><linearGradient id="a"><stop offset="0" stop-color="#d58a12"/><stop offset="1" stop-color="#8f5c0c"/></linearGradient><linearGradient><stop offset="0" stop-color="#fef7b9"/><stop offset="1" stop-color="#e0c703"/></linearGradient><linearGradient id="b"><stop offset="0" stop-color="#fff"/><stop offset="1" stop-color="#fef5ae"/></linearGradient><linearGradient><stop offset="0" stop-color="#e9b96e"/><stop offset="1" stop-color="#da9221"/></linearGradient><linearGradient><stop offset="0" stop-color="#d48e1f"/><stop offset="1" stop-color="#fff"/></linearGradient><linearGradient x1="2.134" x2="46.187" y1="21.109" y2="42.429" xlink:href="#a" gradientUnits="userSpaceOnUse" gradientTransform="matrix(-1.018 0 0 .938 49.22 3.201)"/><radialGradient cx="21.048" cy="6.408" r="14.472" xlink:href="#b" gradientUnits="userSpaceOnUse" gradientTransform="matrix(-1.065 0 0 1.006 50.755 .36)" fx="21.048" fy="6.408"/><linearGradient x1="22.786" x2="44.929" y1="45.607" y2="42.679" xlink:href="#c" gradientUnits="userSpaceOnUse"/><radialGradient cx="130.505" cy="278.947" r="321.103" gradientUnits="userSpaceOnUse" gradientTransform="translate(0 -.011)" fy="278.947" fx="130.505" xlink:href="#d"/><linearGradient id="d"><stop offset="0" stop-color="#d8d8d8"/><stop offset="1" stop-color="#777"/></linearGradient><radialGradient cx="365.041" cy="306.054" r="321.103" xlink:href="#d" gradientUnits="userSpaceOnUse" gradientTransform="matrix(0 -.061 .061 0 -48.624 42.9)" fx="365.041" fy="306.054"/><linearGradient id="A" x1="17.989" x2="22.162" y1="37.489" y2="39.107" xlink:href="#e" gradientUnits="userSpaceOnUse" gradientTransform="matrix(1.008 0 0 1.008 .066 -.665)"/><linearGradient id="e"><stop offset="0" stop-color="#c17d11"/><stop offset=".272" stop-color="#e4a645"/><stop offset="1" stop-color="#905d0d"/></linearGradient><linearGradient id="B" x1="22.869" x2="31.119" y1="16.665" y2="20.1" xlink:href="#f" gradientUnits="userSpaceOnUse" gradientTransform="matrix(1.008 0 0 1.008 .066 -.665)"/><linearGradient id="f"><stop offset="0" stop-color="#d3d7cf"/><stop offset=".288" stop-color="#fff"/><stop offset="1" stop-color="#9fa896"/></linearGradient><linearGradient id="C" x1="58.762" x2="73.129" y1="15.194" y2="16.784" xlink:href="#g" gradientUnits="userSpaceOnUse"/><linearGradient id="g"><stop offset="0" stop-color="#85907a"/><stop offset=".704" stop-color="#cfcfcf"/><stop offset="1" stop-color="#9fa896"/></linearGradient><linearGradient id="D" x1="26.967" x2="31.554" y1="7.82" y2="7.82" xlink:href="#h" gradientUnits="userSpaceOnUse" gradientTransform="matrix(1.123 0 0 1.123 -4.435 .025)"/><linearGradient id="h"><stop offset="0"/><stop offset="1" stop-opacity="0"/></linearGradient><linearGradient id="E" x1="26.167" x2="30.755" y1="10.108" y2="10.108" xlink:href="#i" gradientUnits="userSpaceOnUse" gradientTransform="matrix(1.123 0 0 1.123 -4.435 .025)"/><linearGradient id="i"><stop offset="0"/><stop offset="1" stop-opacity="0"/></linearGradient><linearGradient id="F" x1="25.534" x2="30.121" y1="12.396" y2="12.396" xlink:href="#j" gradientUnits="userSpaceOnUse" gradientTransform="matrix(1.123 0 0 1.123 -4.435 .025)"/><linearGradient id="j"><stop offset="0"/><stop offset="1" stop-opacity="0"/></linearGradient><linearGradient id="G" x1="24.596" x2="29.184" y1="14.409" y2="14.409" xlink:href="#k" gradientUnits="userSpaceOnUse" gradientTransform="matrix(1.123 0 0 1.123 -4.435 .025)"/><linearGradient id="k"><stop offset="0"/><stop offset="1" stop-opacity="0"/></linearGradient><linearGradient id="H" x1="23.99" x2="28.577" y1="16.642" y2="16.642" xlink:href="#l" gradientUnits="userSpaceOnUse" gradientTransform="matrix(1.123 0 0 1.123 -4.435 .025)"/><linearGradient id="l"><stop offset="0"/><stop offset="1" stop-opacity="0"/></linearGradient><linearGradient id="I" x1="23.217" x2="27.587" y1="18.669" y2="18.669" xlink:href="#m" gradientUnits="userSpaceOnUse" gradientTransform="matrix(1.123 0 0 1.123 -4.435 .025)"/><linearGradient id="m"><stop offset="0"/><stop offset="1" stop-opacity="0"/></linearGradient><linearGradient id="J" x1="22.5" x2="26.87" y1="20.681" y2="20.681" xlink:href="#n" gradientUnits="userSpaceOnUse" gradientTransform="matrix(1.123 0 0 1.123 -4.435 .025)"/><linearGradient id="n"><stop offset="0"/><stop offset="1" stop-opacity="0"/></linearGradient><linearGradient id="K" x1="21.728" x2="26.098" y1="22.721" y2="22.721" xlink:href="#o" gradientUnits="userSpaceOnUse" gradientTransform="matrix(1.123 0 0 1.123 -4.435 .025)"/><linearGradient id="o"><stop offset="0"/><stop offset="1" stop-opacity="0"/></linearGradient><linearGradient id="L" x1="21.094" x2="25.464" y1="24.651" y2="24.651" xlink:href="#p" gradientUnits="userSpaceOnUse" gradientTransform="matrix(1.123 0 0 1.123 -4.435 .025)"/><linearGradient id="p"><stop offset="0"/><stop offset="1" stop-opacity="0"/></linearGradient><linearGradient id="M" x1="32.339" x2="35.526" y1="9.226" y2="9.226" xlink:href="#q" gradientUnits="userSpaceOnUse" gradientTransform="matrix(1.123 0 0 1.123 -4.435 .025)"/><linearGradient id="q"><stop offset="0"/><stop offset="1" stop-opacity="0"/></linearGradient><linearGradient id="N" x1="31.567" x2="34.754" y1="11.569" y2="11.569" xlink:href="#r" gradientUnits="userSpaceOnUse" gradientTransform="matrix(1.123 0 0 1.123 -4.435 .025)"/><linearGradient id="r"><stop offset="0"/><stop offset="1" stop-opacity="0"/></linearGradient><linearGradient id="O" x1="30.713" x2="33.899" y1="13.775" y2="13.775" xlink:href="#s" gradientUnits="userSpaceOnUse" gradientTransform="matrix(1.123 0 0 1.123 -4.435 .025)"/><linearGradient id="s"><stop offset="0"/><stop offset="1" stop-opacity="0"/></linearGradient><linearGradient id="P" x1="30.106" x2="33.293" y1="15.897" y2="15.897" xlink:href="#t" gradientUnits="userSpaceOnUse" gradientTransform="matrix(1.123 0 0 1.123 -4.435 .025)"/><linearGradient id="t"><stop offset="0"/><stop offset="1" stop-opacity="0"/></linearGradient><linearGradient id="Q" x1="29.39" x2="32.576" y1="17.91" y2="17.91" xlink:href="#u" gradientUnits="userSpaceOnUse" gradientTransform="matrix(1.123 0 0 1.123 -4.435 .025)"/><linearGradient id="u"><stop offset="0"/><stop offset="1" stop-opacity="0"/></linearGradient><linearGradient id="R" x1="28.508" x2="31.694" y1="20.005" y2="20.005" xlink:href="#v" gradientUnits="userSpaceOnUse" gradientTransform="matrix(1.123 0 0 1.123 -4.435 .025)"/><linearGradient id="v"><stop offset="0"/><stop offset="1" stop-opacity="0"/></linearGradient><linearGradient id="S" x1="27.791" x2="30.978" y1="22.018" y2="22.018" xlink:href="#w" gradientUnits="userSpaceOnUse" gradientTransform="matrix(1.123 0 0 1.123 -4.435 .025)"/><linearGradient id="w"><stop offset="0"/><stop offset="1" stop-opacity="0"/></linearGradient><linearGradient id="T" x1="26.826" x2="30.013" y1="24.113" y2="24.113" xlink:href="#x" gradientUnits="userSpaceOnUse" gradientTransform="matrix(1.123 0 0 1.123 -4.435 .025)"/><linearGradient id="x"><stop offset="0"/><stop offset="1" stop-opacity="0"/></linearGradient><linearGradient id="U" x1="26.248" x2="29.434" y1="25.96" y2="25.96" xlink:href="#y" gradientUnits="userSpaceOnUse" gradientTransform="matrix(1.123 0 0 1.123 -4.435 .025)"/><linearGradient id="y"><stop offset="0"/><stop offset="1" stop-opacity="0"/></linearGradient><radialGradient id="z" cx="365.041" cy="306.054" r="321.103" xlink:href="#d" gradientUnits="userSpaceOnUse" gradientTransform="matrix(0 -.061 .061 0 -48.624 42.9)" fx="365.041" fy="306.054"/></defs><g><g stroke-miterlimit="10"><path fill="url(#z)" stroke="#3a3a3a" d="M-5.36 26.04C-5.36 36.5-13.86 45-24.33 45c-10.45 0-18.96-8.5-18.96-18.96 0-10.45 8.52-18.96 18.97-18.96 10.46 0 18.97 8.5 18.97 18.96z" transform="translate(43.929 -2.929)"/><path fill="none" stroke="#729fcf" stroke-width=".5" d="M19.6 4.9c10.07 0 18.23 8.15 18.23 18.2 0 10.08-8.16 18.24-18.23 18.24-10.06 0-18.22-8.16-18.22-18.23 0-10.05 8.16-18.2 18.22-18.2z"/><path fill="none" stroke="#729fcf" stroke-width=".5" d="M19.6 4.9c8.53 0 15.45 8.15 15.45 18.2 0 10.08-6.92 18.24-15.45 18.24-8.52 0-15.44-8.16-15.44-18.23 0-10.05 6.92-18.2 15.44-18.2z"/><path fill="none" stroke="#729fcf" stroke-width=".5" d="M19.6 4.9c5.77 0 10.45 8.15 10.45 18.2 0 10.08-4.68 18.24-10.45 18.24-5.76 0-10.44-8.16-10.44-18.23 0-10.05 4.68-18.2 10.44-18.2z"/><path fill="none" stroke="#729fcf" stroke-width=".5" d="M19.6 4.9c2.26 0 4.1 8.15 4.1 18.2 0 10.08-1.84 18.24-4.1 18.24-2.25 0-4.08-8.16-4.08-18.23 0-10.05 1.83-18.2 4.08-18.2z"/><path fill="none" stroke="#729fcf" stroke-width=".5" d="M37.83 23.1c0 3.26-8.16 5.9-18.23 5.9-10.06 0-18.22-2.64-18.22-5.9"/><path fill="none" stroke="#729fcf" stroke-width=".5" d="M36.78 17.2c0 3.03-7.66 5.5-17.1 5.5-9.44 0-17.1-2.47-17.1-5.5"/><path fill="none" stroke="#729fcf" stroke-width=".5" d="M33.5 11.13c0 2.48-6.2 4.48-13.82 4.48s-13.8-2-13.8-4.47"/><path fill="none" stroke="#729fcf" stroke-width=".5" d="M27.98 6.82c0 1.48-3.72 2.67-8.3 2.67s-8.3-1.2-8.3-2.68"/><path fill="none" stroke="#729fcf" stroke-width=".5" d="M36.57 29.48c0 3.02-7.6 5.47-17 5.47-9.37 0-16.98-2.45-16.98-5.47"/><path fill="none" stroke="#729fcf" stroke-width=".5" d="M32.92 35.42c0 1.8-5.93 3.26-13.24 3.26-7.3 0-13.23-1.46-13.23-3.26"/></g><g><path fill="url(#A)" stroke="#6b4302" d="M20.5 30.5c-.6.87-.97 1.58-1.1 2.1-.8 5.03-4.05 8.84-3.96 12.37.07 2.54 2.65 3.56 4.32 1.56 2.7-3.22 2.02-7.86 4.53-12.46.34-.47.4-1.23.4-2.06-1.28-.98-2.57-1.9-4.2-1.5z" transform="translate(6.702 -.105)"/><path fill="none" stroke="#cc933a" stroke-width=".5" d="M22.8 45.42c1.05-1.44 1.08-3.3 1.53-4.8.22-.77 1.55-2.6 1.83-4.98.16-1.4 1.53-3.03 2.03-4.84" stroke-linecap="round"/><path fill="none" stroke="#cc933a" stroke-width=".5" d="M23.6 46.48c.36-2.4 2.36-4.1 3.12-5.98.3-.76.08-2.34.36-4.2.22-1.43 1-2.83 2.64-5" stroke-linecap="round"/><path fill="none" stroke="#cc933a" stroke-width=".5" d="M24.83 46.83c1.07-1.46 2.53-4.54 2.98-6.06.24-.78.2-2.74.78-4.3.5-1.33 1.7-3 2.2-4.86" stroke-linecap="round"/><path fill="none" stroke="#e9b96e" stroke-width=".5" d="M27.57 30.6c-.47.7-.78 1.26-.88 1.67-.65 4.03-4.08 9.73-4 12.55.05 2.02 2.1 2.84 3.42 1.25 2.14-2.58 2.46-8.94 4.46-12.62.27-.38.32-1 .3-1.64-1-.8-2.02-1.53-3.3-1.2z"/><path stroke="#fff" stroke-width=".5" d="M34.94 4.03L32.17.88c.7-.6 1.5-.93 2.6-.18l1.52 3.17z" color="#000" overflow="visible" enable-background="accumulate"/><path stroke="#fff" stroke-width=".5" d="M37.84 4.1l.05-2.95c.9-.83 1.66-.06 2.43.56l-.7 2.96z" color="#000" overflow="visible" enable-background="accumulate"/><path stroke="#fff" stroke-width=".5" d="M40.95 5.22l2.54-2.3c1.3-.05 2.28.37 2.64 1.8L42 5.9z" color="#000" overflow="visible" enable-background="accumulate"/><path stroke="#fff" stroke-width=".5" d="M42.57 6.95l4.78.42c.6.88.93 1.76-.08 2.63L42.8 7.84z" color="#000" overflow="visible" enable-background="accumulate"/><path stroke="#fff" stroke-width=".5" d="M33.37 5.42l-5.3-1.17c.36-.93.48-1.96 2-2.4l3.75 2.7z" color="#000" overflow="visible" enable-background="accumulate"/><path fill="#babdb6" stroke="#000" stroke-width=".402" d="M34.02 3.67l-8.36 23.9c-.9 2.13 7.02 5.96 8.85 2.97l8.8-24.02C44.2 3 35.34.25 34.02 3.67z"/><path fill="url(#B)" stroke="#888a85" stroke-width=".5" d="M27.16 4.2c1.04 3.5 6.7 4.92 9.1 3.13l-8.64 23.65c-2.55 2-8.16-.5-8.8-2.97z" transform="translate(6.702 -.105)"/><path fill="url(#C)" stroke="#555753" stroke-width=".988" d="M73.82 15.93c0 2.27-3.53 4.1-7.9 4.1-4.35 0-7.88-1.83-7.88-4.1 0-2.27 3.53-4.1 7.9-4.1 4.35 0 7.88 1.83 7.88 4.1z" transform="matrix(.392 .11 -.11 .391 14.626 -8.467)" color="#000" stroke-linecap="round" stroke-linejoin="round" overflow="visible" enable-background="accumulate"/><path fill="none" stroke="url(#D)" stroke-width="1.004" d="M26.42 7.4c.83 1.17 2.7 2.4 4.02 2.8" stroke-linecap="round" transform="translate(6.702 -.105)"/><path fill="none" stroke="#eeeeec" stroke-width=".201" d="M32.9 7.82c.58.8 2.03 2.05 3.16 2.53.54.23 1.2.3 1.52.1" stroke-linecap="round"/><path fill="none" stroke="url(#E)" stroke-width="1.004" d="M25.52 9.97c.84 1.17 2.7 2.4 4.02 2.8" stroke-linecap="round" transform="translate(6.702 -.105)"/><path fill="none" stroke="#eeeeec" stroke-width=".201" d="M32 10.4c.58.8 2.03 2.04 3.16 2.52.54.23 1.2.3 1.52.1" stroke-linecap="round"/><path fill="none" stroke="url(#F)" stroke-width="1.004" d="M24.8 12.53c.84 1.17 2.7 2.4 4.03 2.82" stroke-linecap="round" transform="translate(6.702 -.105)"/><path fill="none" stroke="#eeeeec" stroke-width=".201" d="M31.3 12.96c.57.8 2.02 2.05 3.15 2.53.54.22 1.2.3 1.52.1" stroke-linecap="round"/><path fill="none" stroke="url(#G)" stroke-width="1.004" d="M23.75 14.8c.84 1.16 2.7 2.4 4.03 2.8" stroke-linecap="round" transform="translate(6.702 -.105)"/><path fill="none" stroke="#eeeeec" stroke-width=".201" d="M30.24 15.22c.58.8 2.02 2.05 3.16 2.53.54.23 1.18.3 1.5.1" stroke-linecap="round"/><path fill="none" stroke="url(#H)" stroke-width="1.004" d="M23.07 17.3c.84 1.17 2.7 2.4 4.03 2.82" stroke-linecap="round" transform="translate(6.702 -.105)"/><path fill="none" stroke="#eeeeec" stroke-width=".201" d="M29.56 17.72c.58.8 2.02 2.05 3.16 2.54.53.22 1.18.3 1.5.1" stroke-linecap="round"/><path fill="none" stroke="url(#I)" stroke-width="1.004" d="M22.2 19.63c.8 1.13 2.54 2.3 3.78 2.7" stroke-linecap="round" transform="translate(6.702 -.105)"/><path fill="none" stroke="#eeeeec" stroke-width=".201" d="M28.7 20.03c.55.78 1.9 1.97 2.97 2.44.5.22 1.1.3 1.42.1" stroke-linecap="round"/><path fill="none" stroke="url(#J)" stroke-width="1.004" d="M21.4 21.9c.8 1.12 2.54 2.3 3.78 2.7" stroke-linecap="round" transform="translate(6.702 -.105)"/><path fill="none" stroke="#eeeeec" stroke-width=".201" d="M27.9 22.3c.54.77 1.9 1.96 2.97 2.43.5.2 1.1.3 1.42.1" stroke-linecap="round"/><path fill="none" stroke="url(#K)" stroke-width="1.004" d="M20.53 24.18c.8 1.13 2.54 2.3 3.78 2.7" stroke-linecap="round" transform="translate(6.702 -.105)"/><path fill="none" stroke="#eeeeec" stroke-width=".201" d="M27.03 24.58c.55.78 1.9 1.97 2.97 2.44.5.22 1.1.3 1.42.1" stroke-linecap="round"/><path fill="none" stroke="url(#L)" stroke-width="1.004" d="M19.82 26.35c.8 1.12 2.54 2.3 3.78 2.7" stroke-linecap="round" transform="translate(6.702 -.105)"/><path fill="none" stroke="#eeeeec" stroke-width=".201" d="M26.32 26.75c.54.78 1.9 1.97 2.97 2.43.5.22 1.1.3 1.4.1" stroke-linecap="round"/><path fill="none" stroke="url(#M)" stroke-width="1.004" d="M34.9 10.2c-.56.27-1.7.4-2.45.34" stroke-linecap="round" transform="translate(6.702 -.105)"/><path fill="none" stroke="#eeeeec" stroke-width=".201" d="M41.62 10.58c-.4.18-1.3.37-1.95.37-.32 0-.68-.07-.85-.18" stroke-linecap="round"/><path fill="none" stroke="url(#N)" stroke-width="1.004" d="M34.03 12.84c-.55.26-1.68.4-2.45.34" stroke-linecap="round" transform="translate(6.702 -.105)"/><path fill="none" stroke="#eeeeec" stroke-width=".201" d="M40.75 13.2c-.4.2-1.28.38-1.95.38-.3 0-.68-.07-.84-.18" stroke-linecap="round"/><path fill="none" stroke="url(#O)" stroke-width="1.004" d="M33.07 15.32c-.55.25-1.68.38-2.45.33" stroke-linecap="round" transform="translate(6.702 -.105)"/><path fill="none" stroke="#eeeeec" stroke-width=".201" d="M39.8 15.7c-.4.17-1.3.36-1.96.35-.3 0-.68-.07-.84-.18" stroke-linecap="round"/><path fill="none" stroke="url(#P)" stroke-width="1.004" d="M32.4 17.7c-.56.26-1.7.4-2.46.33" stroke-linecap="round" transform="translate(6.702 -.105)"/><path fill="none" stroke="#eeeeec" stroke-width=".201" d="M39.1 18.07c-.38.18-1.27.37-1.94.37-.32 0-.68-.07-.84-.18" stroke-linecap="round"/><path fill="none" stroke="url(#Q)" stroke-width="1.004" d="M31.6 19.96c-.57.26-1.7.4-2.46.33" stroke-linecap="round" transform="translate(6.702 -.105)"/><path fill="none" stroke="#eeeeec" stroke-width=".201" d="M38.3 20.33c-.38.18-1.28.37-1.95.37-.3 0-.67-.07-.84-.18" stroke-linecap="round"/><path fill="none" stroke="url(#R)" stroke-width="1.004" d="M30.6 22.3c-.56.27-1.7.4-2.45.35" stroke-linecap="round" transform="translate(6.702 -.105)"/><path fill="none" stroke="#eeeeec" stroke-width=".201" d="M37.32 22.68c-.4.18-1.3.38-1.96.37-.3 0-.68-.07-.84-.18" stroke-linecap="round"/><path fill="none" stroke="url(#S)" stroke-width="1.004" d="M29.8 24.57c-.56.26-1.7.4-2.46.34" stroke-linecap="round" transform="translate(6.702 -.105)"/><path fill="none" stroke="#eeeeec" stroke-width=".201" d="M36.5 24.94c-.38.18-1.28.38-1.94.37-.32 0-.68-.06-.84-.17" stroke-linecap="round"/><path fill="none" stroke="url(#T)" stroke-width="1.004" d="M28.7 26.92c-.55.26-1.68.4-2.44.34" stroke-linecap="round" transform="translate(6.702 -.105)"/><path fill="none" stroke="#eeeeec" stroke-width=".201" d="M35.43 27.3c-.4.17-1.3.37-1.95.36-.32 0-.68-.07-.85-.18" stroke-linecap="round"/><path fill="none" stroke="url(#U)" stroke-width="1.004" d="M28.06 29c-.56.25-1.7.38-2.45.33" stroke-linecap="round" transform="translate(6.702 -.105)"/><path fill="none" stroke="#eeeeec" stroke-width=".201" d="M34.78 29.37c-.4.18-1.3.37-1.95.37-.32 0-.68-.08-.85-.2" stroke-linecap="round"/><path fill="none" stroke="#eeeeec" stroke-width=".36.122" d="M35.9 4.33c.23-.77 1.64-1.06 3.15-.64 1.5.4 2.56 1.37 2.34 2.15-.02 0-.02 0-.02.02" color="#000" stroke-linecap="round" stroke-linejoin="round" overflow="visible" enable-background="accumulate"/><g stroke="#fff" stroke-width=".496"><path d="M26.14 25.56l-5.2.16c.04.7.02 2.32 1.6 2.6l4.26-1.84z"/><path d="M28.4 27.67l-3.1 1.9c.07 1.1 1.4 2.2 2.7 1.37l1.63-2.86z"/><path d="M31.26 28.7l-.48 2.7c.48.94 2.2.98 3 .37l-1.42-3.15z"/><path d="M33.96 28.57L36 32.2c1.1.58 2.86.33 3.35-1.14l-4.3-2.9z"/></g><g stroke="#fff" stroke-width=".496"><path d="M27.46 21.74l-5.2.16c.04.7.02 2.32 1.6 2.6l4.27-1.84z"/><path d="M29.72 23.85l-3.1 1.9c.07 1.1 1.42 2.2 2.7 1.37l1.64-2.86z"/><path d="M32.58 24.88l-.48 2.7c.48.94 2.22.98 3 .37l-1.4-3.15z"/><path d="M35.28 24.75l2.04 3.65c1.1.56 2.86.3 3.36-1.16l-4.32-2.9z"/></g><g stroke="#fff" stroke-width=".496"><path d="M29 17.82l-5.2.16c.03.7 0 2.32 1.58 2.6l4.27-1.84z"/><path d="M31.25 19.93l-3.1 1.9c.07 1.1 1.4 2.2 2.7 1.37l1.63-2.86z"/><path d="M34.1 20.96l-.47 2.7c.48.94 2.2.98 3 .37l-1.42-3.15z"/><path d="M36.8 20.83l2.05 3.65c1.1.56 2.86.3 3.35-1.16l-4.3-2.9z"/></g><g stroke="#fff" stroke-width=".496"><path d="M30.47 13.75l-5.2.15c.03.7 0 2.32 1.58 2.6l4.28-1.83z"/><path d="M32.72 15.86l-3.1 1.9c.07 1.1 1.42 2.2 2.7 1.37l1.64-2.86z"/><path d="M35.58 16.9l-.47 2.68c.48.95 2.22 1 3 .38l-1.4-3.15z"/><path d="M38.28 16.75l2.05 3.65c1.1.56 2.86.32 3.35-1.16l-4.3-2.9z"/></g><g stroke="#fff" stroke-width=".496"><path d="M31.74 9.93l-5.2.16c.04.7.02 2.3 1.6 2.58l4.26-1.83z"/><path d="M34 12.04l-3.1 1.9c.07 1.1 1.4 2.2 2.7 1.37l1.63-2.85z"/><path d="M36.86 13.07l-.48 2.7c.48.94 2.2.98 3 .37L37.95 13z"/><path d="M39.56 12.94l2.04 3.64c1.1.57 2.86.32 3.35-1.15l-4.3-2.9z"/></g><g stroke="#fff" stroke-width=".496"><path d="M33.22 6l-5.2.17c.03.7 0 2.32 1.58 2.6l4.28-1.84z"/><path d="M35.47 8.12l-3.1 1.9c.07 1.1 1.42 2.2 2.7 1.37l1.64-2.87z"/><path d="M38.33 9.15l-.47 2.7c.47.94 2.2.98 3 .37l-1.42-3.15z"/><path d="M41.03 9.02l2.05 3.65c1.1.56 2.86.3 3.35-1.16l-4.3-2.9z"/></g></g></g></svg>