<svg xmlns="http://www.w3.org/2000/svg" width="48" height="48"><defs><radialGradient id="a" cx="770.451" cy="3357.395" r="133.594" gradientUnits="userSpaceOnUse" gradientTransform="matrix(0 -1 1 0 -3050.021 1052.331)" fy="3357.395" fx="770.451"><stop offset="0" stop-color="#fff"/><stop offset=".064" stop-color="#EAECED"/><stop offset=".2" stop-color="#C4C7CC"/><stop offset=".342" stop-color="#A4AAB0"/><stop offset=".489" stop-color="#8B929B"/><stop offset=".642" stop-color="#7A828C"/><stop offset=".806" stop-color="#6F7883"/><stop offset="1" stop-color="#6C7580"/></radialGradient><linearGradient id="b" x1="298.234" x2="331.466" y1="272.576" y2="272.576" gradientUnits="userSpaceOnUse" gradientTransform="translate(-287.922 -249.952)"><stop offset="0" stop-color="#E8B96D"/><stop offset=".074" stop-color="#E8B96D"/><stop offset="1" stop-color="#E8B96D"/></linearGradient><radialGradient id="d" cx="319.156" cy="271.606" r="17.109" gradientUnits="userSpaceOnUse" fy="271.606" fx="319.156"><stop offset="0" stop-color="#8F5810"/><stop offset=".083" stop-color="#9B6110"/><stop offset=".23" stop-color="#B97710"/><stop offset=".263" stop-color="#C17D10"/><stop offset=".525" stop-color="#E8B96D"/><stop offset=".575" stop-color="#E8B96D"/><stop offset=".607" stop-color="#D8A147"/><stop offset=".645" stop-color="#C7871F"/><stop offset=".665" stop-color="#C17D10"/></radialGradient><radialGradient id="c" cx="314.85" cy="272.576" r="14.635" gradientUnits="userSpaceOnUse" fy="272.576" fx="314.85"><stop offset=".57" stop-color="#8F5810"/><stop offset=".595" stop-color="#9B6110"/><stop offset=".638" stop-color="#B97710"/><stop offset=".648" stop-color="#C17D10"/><stop offset=".838" stop-color="#E8B96D"/><stop offset=".86" stop-color="#E8B96D"/><stop offset=".91" stop-color="#D8A147"/><stop offset=".969" stop-color="#C7871F"/><stop offset="1" stop-color="#C17D10"/></radialGradient></defs><g><g transform="translate(-287.922 -249.952)"><radialGradient cx="770.451" cy="3357.395" r="133.594" gradientUnits="userSpaceOnUse" gradientTransform="matrix(0 -1 1 0 -3050.021 1052.331)" fy="3357.395" fx="770.451"><stop offset="0" stop-color="#fff"/><stop offset=".064" stop-color="#EAECED"/><stop offset=".2" stop-color="#C4C7CC"/><stop offset=".342" stop-color="#A4AAB0"/><stop offset=".489" stop-color="#8B929B"/><stop offset=".642" stop-color="#7A828C"/><stop offset=".806" stop-color="#6F7883"/><stop offset="1" stop-color="#6C7580"/></radialGradient><path fill="url(#a)" stroke="#41464c" stroke-width=".7" d="M289.33 252.02c13.08-1.36 24.4 2.62 34.48 14 7.45 8.4 13.3 21.17 11.33 31.58 0 0-20.38-18.14-42.76-3.1 5.95-9.53 4.06-39.88-3.2-42.46.16-.02 0 0 .16-.02z"/></g><path fill="url(#b)" stroke="#59370a" stroke-width="2" d="M17.04 21.88s-.82-1.15 2.13-3.2c6.95-4.83 19.5-2.38 19.5 10.65 0 5.38-13.53.73-13.53-4.3-5.2 9.72 14.2 13.78 17.83 5.4 4.06-15.1-14.16-25.6-31.16-17.1-2.25 0-1.7 3.78 0 6.42 1.7 2.63 5.4 3.3 5.24 2.13z"/><g transform="translate(-287.922 -249.952)"><radialGradient cx="314.85" cy="272.576" r="14.635" gradientUnits="userSpaceOnUse" fy="272.576" fx="314.85"><stop offset=".57" stop-color="#8F5810"/><stop offset=".595" stop-color="#9B6110"/><stop offset=".638" stop-color="#B97710"/><stop offset=".648" stop-color="#C17D10"/><stop offset=".838" stop-color="#E8B96D"/><stop offset=".86" stop-color="#E8B96D"/><stop offset=".91" stop-color="#D8A147"/><stop offset=".969" stop-color="#C7871F"/><stop offset="1" stop-color="#C17D10"/></radialGradient><path fill="url(#c)" d="M304.96 271.83s-.82-1.15 2.13-3.2c6.94-4.83 19.5-2.38 19.5 10.65 0 5.38-13.54.74-13.54-4.3-5.2 9.72 14.2 13.78 17.83 5.4 4.05-15.1-14.17-25.6-31.17-17.1-2.26.02-1.7 3.78 0 6.42 1.7 2.63 5.38 3.3 5.23 2.13z"/><radialGradient cx="319.156" cy="271.606" r="17.109" gradientUnits="userSpaceOnUse" fy="271.606" fx="319.156"><stop offset="0" stop-color="#8F5810"/><stop offset=".083" stop-color="#9B6110"/><stop offset=".23" stop-color="#B97710"/><stop offset=".263" stop-color="#C17D10"/><stop offset=".525" stop-color="#E8B96D"/><stop offset=".575" stop-color="#E8B96D"/><stop offset=".607" stop-color="#D8A147"/><stop offset=".645" stop-color="#C7871F"/><stop offset=".665" stop-color="#C17D10"/></radialGradient><path fill="url(#d)" d="M326.6 279.28c0 5.38-13.54.74-13.54-4.3-5.2 9.72 14.2 13.78 17.83 5.4"/></g></g></svg>