<svg xmlns="http://www.w3.org/2000/svg" width="48" height="48" xmlns:xlink="http://www.w3.org/1999/xlink" version="1" viewBox="0 0 612 792" enable-background="new 0 0 612 792"><defs><linearGradient><stop offset="0" stop-color="#cf7272"/><stop offset=".2" stop-color="#cf7272" stop-opacity="0"/><stop offset=".4" stop-color="#cf7272"/><stop offset=".6" stop-color="#cf7272" stop-opacity="0"/><stop offset=".8" stop-color="#cf7272"/><stop offset="1" stop-color="#cf7272" stop-opacity="0"/></linearGradient><linearGradient id="j"><stop offset="0" stop-color="#fff" stop-opacity=".502"/><stop offset="1" stop-color="#729fcf" stop-opacity=".502"/></linearGradient><linearGradient><stop offset="0" stop-color="#465052"/><stop offset=".497" stop-color="#353b3d"/><stop offset="1"/></linearGradient><linearGradient x1="340.353" x2="335.096" y1="475.421" y2="457.896" xlink:href="#a" gradientUnits="userSpaceOnUse"/><radialGradient cx="339.367" cy="453.958" r="95.967" xlink:href="#b" gradientUnits="userSpaceOnUse" gradientTransform="matrix(1.017 0 0 1 -5.605 0)"/><radialGradient cx="351.672" cy="481.788" r="33.5" xlink:href="#c" gradientUnits="userSpaceOnUse" gradientTransform="matrix(1.017 0 0 1 -5.605 0)"/><radialGradient cx="359.026" cy="475.631" r="18.771" xlink:href="#d" gradientUnits="userSpaceOnUse" gradientTransform="matrix(1.017 0 0 1 -5.605 0)"/><radialGradient cx="352.289" cy="458.565" r="26.958" xlink:href="#e" gradientUnits="userSpaceOnUse" gradientTransform="matrix(.481 .881 -.314 .166 327.089 72.261)"/><radialGradient cx="334.403" cy="452.116" r="21.01" xlink:href="#f" gradientUnits="userSpaceOnUse" gradientTransform="matrix(-.514 .863 -.175 -.101 585.923 209.356)"/><radialGradient cx="335.654" cy="485.615" r="26.517" xlink:href="#g" gradientUnits="userSpaceOnUse" gradientTransform="matrix(1.007 -.141 .101 .693 -51.073 196.57)"/><radialGradient cx="347.987" cy="479.824" r="13.794" xlink:href="#h" gradientUnits="userSpaceOnUse" gradientTransform="matrix(.986 -.245 .174 .679 -78.438 239.297)"/><linearGradient id="a" x1="340.353" x2="335.096" y1="475.421" y2="457.896" gradientUnits="userSpaceOnUse"><stop offset="0" stop-color="#D8B08D" stop-opacity=".75"/><stop offset=".203" stop-color="#E9CFB5" stop-opacity=".385"/><stop offset=".749" stop-color="#fff" stop-opacity="0"/></linearGradient><radialGradient id="b" cx="339.367" cy="453.958" r="95.967" gradientTransform="matrix(1.017 0 0 1 -5.605 0)" gradientUnits="userSpaceOnUse"><stop offset="0" stop-color="#CDA183" stop-opacity=".75"/><stop offset=".141" stop-color="#E9CFB5" stop-opacity=".385"/><stop offset=".607" stop-color="#fff" stop-opacity="0"/></radialGradient><radialGradient id="c" cx="351.672" cy="481.788" r="33.5" gradientTransform="matrix(1.017 0 0 1 -5.605 0)" gradientUnits="userSpaceOnUse"><stop offset="0" stop-color="#161002" stop-opacity=".89"/><stop offset=".331" stop-color="#3F2E01" stop-opacity=".385"/><stop offset=".749" stop-color="#4C2F04" stop-opacity="0"/></radialGradient><radialGradient id="d" cx="359.026" cy="475.631" r="18.771" gradientTransform="matrix(1.017 0 0 1 -5.605 0)" gradientUnits="userSpaceOnUse"><stop offset=".037" stop-color="#443A22"/><stop offset=".429" stop-color="#1F1000" stop-opacity=".385"/><stop offset="1" stop-color="#4E3107" stop-opacity="0"/></radialGradient><radialGradient id="e" cx="352.289" cy="458.565" r="26.958" gradientTransform="matrix(.481 .881 -.314 .166 327.089 72.261)" gradientUnits="userSpaceOnUse"><stop offset=".037" stop-color="#8A756F"/><stop offset=".429" stop-color="#633812" stop-opacity=".385"/><stop offset="1" stop-color="#6F4C39" stop-opacity="0"/></radialGradient><radialGradient id="f" cx="334.403" cy="452.116" r="21.01" gradientTransform="matrix(-.514 .863 -.175 -.101 585.923 209.356)" gradientUnits="userSpaceOnUse"><stop offset="0" stop-color="#ECE7E8" stop-opacity=".52"/><stop offset=".203" stop-color="#DED8CD" stop-opacity=".385"/><stop offset=".749" stop-color="#603E14" stop-opacity="0"/></radialGradient><radialGradient id="g" cx="335.654" cy="485.615" r="26.517" gradientTransform="matrix(1.007 -.141 .101 .693 -51.073 196.57)" gradientUnits="userSpaceOnUse"><stop offset="0" stop-color="#CD925D"/><stop offset=".749" stop-color="#fff" stop-opacity="0"/></radialGradient><radialGradient id="h" cx="347.987" cy="479.824" r="13.794" gradientTransform="matrix(.986 -.245 .174 .679 -78.438 239.297)" gradientUnits="userSpaceOnUse"><stop offset="0" stop-color="#CD925D"/><stop offset=".749" stop-color="#fff" stop-opacity="0"/></radialGradient><linearGradient x1="-12.053" x2="-9.09" y1="16.643" y2="16.643" xlink:href="#i" gradientUnits="userSpaceOnUse"/><linearGradient id="i"><stop offset="0" stop-color="#ab6b00"/><stop offset="1" stop-color="#764a00"/></linearGradient><linearGradient x1="-12.053" x2="-9.09" y1="16.643" y2="16.643" xlink:href="#i" gradientUnits="userSpaceOnUse"/><linearGradient><stop offset="0" stop-color="#ab6b00"/><stop offset="1" stop-color="#764a00"/></linearGradient><linearGradient x1="-12.053" x2="-9.09" y1="16.643" y2="16.643" xlink:href="#i" gradientUnits="userSpaceOnUse"/><linearGradient><stop offset="0" stop-color="#ab6b00"/><stop offset="1" stop-color="#764a00"/></linearGradient><linearGradient x1="-12.053" x2="-9.09" y1="16.643" y2="16.643" xlink:href="#i" gradientUnits="userSpaceOnUse"/><linearGradient><stop offset="0" stop-color="#ab6b00"/><stop offset="1" stop-color="#764a00"/></linearGradient><linearGradient x1="-12.053" x2="-9.09" y1="16.643" y2="16.643" xlink:href="#i" gradientUnits="userSpaceOnUse"/><linearGradient><stop offset="0" stop-color="#ab6b00"/><stop offset="1" stop-color="#764a00"/></linearGradient><linearGradient x1="-12.053" x2="-9.09" y1="16.643" y2="16.643" xlink:href="#i" gradientUnits="userSpaceOnUse"/><linearGradient><stop offset="0" stop-color="#ab6b00"/><stop offset="1" stop-color="#764a00"/></linearGradient><linearGradient x1="-12.053" x2="-9.09" y1="16.643" y2="16.643" xlink:href="#i" gradientUnits="userSpaceOnUse"/><linearGradient><stop offset="0" stop-color="#ab6b00"/><stop offset="1" stop-color="#764a00"/></linearGradient><linearGradient x1="-12.053" x2="-9.09" y1="16.643" y2="16.643" xlink:href="#i" gradientUnits="userSpaceOnUse"/><linearGradient><stop offset="0" stop-color="#ab6b00"/><stop offset="1" stop-color="#764a00"/></linearGradient><linearGradient x1="-12.053" x2="-9.09" y1="16.643" y2="16.643" xlink:href="#i" gradientUnits="userSpaceOnUse"/><linearGradient><stop offset="0" stop-color="#ab6b00"/><stop offset="1" stop-color="#764a00"/></linearGradient><linearGradient x1="-12.053" x2="-9.09" y1="16.643" y2="16.643" xlink:href="#i" gradientUnits="userSpaceOnUse"/><linearGradient><stop offset="0" stop-color="#ab6b00"/><stop offset="1" stop-color="#764a00"/></linearGradient><linearGradient x1="-12.053" x2="-9.09" y1="16.643" y2="16.643" xlink:href="#i" gradientUnits="userSpaceOnUse"/><linearGradient><stop offset="0" stop-color="#ab6b00"/><stop offset="1" stop-color="#764a00"/></linearGradient><linearGradient x1="-12.053" x2="-9.09" y1="16.643" y2="16.643" xlink:href="#i" gradientUnits="userSpaceOnUse"/><linearGradient><stop offset="0" stop-color="#ab6b00"/><stop offset="1" stop-color="#764a00"/></linearGradient><linearGradient x1="-12.053" x2="-9.09" y1="16.643" y2="16.643" xlink:href="#i" gradientUnits="userSpaceOnUse"/><linearGradient><stop offset="0" stop-color="#ab6b00"/><stop offset="1" stop-color="#764a00"/></linearGradient><linearGradient x1="-12.053" x2="-9.09" y1="16.643" y2="16.643" xlink:href="#i" gradientUnits="userSpaceOnUse"/><linearGradient><stop offset="0" stop-color="#ab6b00"/><stop offset="1" stop-color="#764a00"/></linearGradient><linearGradient x1="-12.053" x2="-9.09" y1="16.643" y2="16.643" xlink:href="#i" gradientUnits="userSpaceOnUse"/><linearGradient><stop offset="0" stop-color="#ab6b00"/><stop offset="1" stop-color="#764a00"/></linearGradient><linearGradient x1="-12.053" x2="-9.09" y1="16.643" y2="16.643" xlink:href="#i" gradientUnits="userSpaceOnUse"/><linearGradient><stop offset="0" stop-color="#ab6b00"/><stop offset="1" stop-color="#764a00"/></linearGradient><linearGradient x1="-12.053" x2="-9.09" y1="16.643" y2="16.643" xlink:href="#i" gradientUnits="userSpaceOnUse"/><linearGradient><stop offset="0" stop-color="#ab6b00"/><stop offset="1" stop-color="#764a00"/></linearGradient><linearGradient x1="-12.053" x2="-9.09" y1="16.643" y2="16.643" xlink:href="#i" gradientUnits="userSpaceOnUse"/><linearGradient><stop offset="0" stop-color="#ab6b00"/><stop offset="1" stop-color="#764a00"/></linearGradient><linearGradient x1="-12.053" x2="-9.09" y1="16.643" y2="16.643" gradientUnits="userSpaceOnUse" xlink:href="#i"/><linearGradient x1="888.744" x2="876.696" y1="648.2" y2="648.2" gradientUnits="userSpaceOnUse" gradientTransform="translate(-855.345 -636.771)"><stop offset="0" stop-color="#fff" stop-opacity="0"/><stop offset="1" stop-color="#acd5f9"/></linearGradient><linearGradient><stop offset="0" stop-color="#9cc8f7" stop-opacity="0"/><stop offset="1" stop-color="#9cc8f7"/></linearGradient><radialGradient cx="16.657" cy="18.991" r="19.681" xlink:href="#j" fx="16.657" fy="18.991" gradientUnits="userSpaceOnUse"/><linearGradient id="l" x1="21.016" x2="21.016" y1="18.442" y2="32.728" xlink:href="#k" gradientUnits="userSpaceOnUse" gradientTransform="matrix(.26 -.024 .036 .381 -1.419 -2.87)"/><linearGradient id="k"><stop offset="0" stop-color="#ddddd8"/><stop offset="1" stop-color="#fff"/></linearGradient></defs><path fill-opacity=".251" fill-rule="evenodd" d="M-84.4 730.76c260.64-77.9 495.44-75.22 782.57 0L525.45 428c-152.88-38.5-304.8-41.64-449.15 0L-84.4 730.76z"/><path fill="#d3d7cf" fill-rule="evenodd" stroke="#555753" stroke-width="16.5" d="M-84.4 687.15c260.64-77.9 495.44-75.2 782.57 0L525.45 384.4c-152.88-38.5-304.8-41.65-449.15 0L-84.4 687.14z" stroke-linejoin="round"/><path fill="none" stroke="#fff" stroke-opacity=".502" stroke-width="16.5" d="M-51.54 659.92c235.35-66.3 452.17-60.74 716.02.83L515.7 399.45c-143.16-36.3-299.75-39.44-428.56-.84L-51.54 659.93z"/><path fill-rule="evenodd" stroke="#764a00" stroke-width="8.25" d="M328.2 377.56l6.98-226.05c4.4-9.15 17.3-11.46 22.2.54L346.3 379.56c-3.8 9.55-13.23 8.1-18.1-2z"/><path fill-rule="evenodd" stroke="#764a00" stroke-width="8.25" d="M390.5 385.6l17.08-225.5c4.8-8.96 17.8-10.7 22.15 1.52L408.5 388.4c-4.23 9.38-13.6 7.5-18-2.8z"/><path fill-rule="evenodd" stroke="#764a00" stroke-width="8.25" d="M498.2 402.36l27.1-224.52c5.2-8.73 18.27-9.88 22.06 2.5l-31.33 225.63c-4.64 9.17-13.9 6.88-17.83-3.6z"/><path fill="#fce94f" fill-rule="evenodd" stroke="#c4a000" stroke-width="8.25" d="M210.6 385.6l-17.06-225.5c-4.8-8.96-17.8-10.7-22.15 1.52l21.23 226.78c4.22 9.38 13.57 7.5 17.98-2.8z"/><path fill-rule="evenodd" stroke="#764a00" stroke-width="8.619" d="M334.15 427.12l27.46-234.67c5.4-9.14 19.05-10.4 23.07 2.54L352.8 430.8c-4.8 9.6-14.5 7.24-18.65-3.7z"/><path fill-rule="evenodd" stroke="#764a00" stroke-width="8.619" d="M413.8 436.45l17.83-235.6c5.03-9.35 18.6-11.16 23.14 1.6l-22.2 236.93c-4.4 9.8-14.17 7.83-18.77-2.93z"/><path fill-rule="evenodd" stroke="#764a00" stroke-width="8.619" d="M524.74 452.3l42.5-232.42c5.98-8.77 19.67-9.14 22.84 4.02L543.1 457.2c-5.4 9.26-14.92 6.3-18.36-4.9z"/><path fill="#fce94f" fill-rule="evenodd" stroke="#c4a000" stroke-width="8.619" d="M94.06 452.3l-42.5-232.42c-5.98-8.77-19.67-9.14-22.85 4.02l47 233.3c5.4 9.26 14.92 6.3 18.36-4.9z"/><path fill-rule="evenodd" stroke="#764a00" stroke-width="8.967" d="M354.2 479.18l-7.18-245.7c4.18-10.22 18.03-13.57 24.12-.87l2.82 247.57c-3.5 10.6-13.83 9.65-19.75-1z"/><path fill-rule="evenodd" stroke="#764a00" stroke-width="8.967" d="M433.34 487.02l18.55-245.1c5.22-9.74 19.34-11.62 24.06 1.65l-23.08 246.5c-4.6 10.2-14.76 8.15-19.54-3.05z"/><path fill-rule="evenodd" stroke="#764a00" stroke-width="8.967" d="M547.57 503.5l44.22-241.8c6.2-9.1 20.46-9.5 23.76 4.2L566.7 508.6c-5.65 9.65-15.55 6.55-19.13-5.1z"/><path fill-rule="evenodd" stroke="#764a00" stroke-width="9.385" d="M334 530.77l27.46-255.8c5.78-10 20.62-11.5 25.13 2.54l-32.27 257.1c-5.13 10.5-15.7 8.04-20.34-3.83z"/><path fill-rule="evenodd" stroke="#764a00" stroke-width="9.385" d="M453.75 540.87l19.42-256.53c5.47-10.18 20.25-12.15 25.2 1.74L474.2 544.06c-4.8 10.66-15.44 8.53-20.45-3.2z"/><path fill-rule="evenodd" stroke="#764a00" stroke-width="9.385" d="M578.7 558.13l46.28-253.06c6.5-9.55 21.42-9.96 24.87 4.37l-51.15 254c-5.9 10.1-16.25 6.87-20-5.3z"/><path fill="#fce94f" fill-rule="evenodd" stroke="#c4a000" stroke-width="9.385" d="M41.27 558.13L-5 305.07c-6.5-9.55-21.42-9.96-24.88 4.37l51.15 254c5.9 10.1 16.26 6.87 20-5.3z"/><path fill-rule="evenodd" stroke="#764a00" stroke-width="10.011" d="M356.68 585.37l29.3-272.87c6.18-10.68 22-12.28 26.8 2.7l-34.4 274.26c-5.48 11.2-16.75 8.57-21.7-4.1z"/><path fill-rule="evenodd" stroke="#764a00" stroke-width="10.011" d="M464.2 598.26l37.35-271.9c6.5-10.47 22.36-11.6 26.72 3.5L485.77 603c-5.8 11.03-17 8.06-21.57-4.74z"/><path fill-rule="evenodd" stroke="#764a00" stroke-width="10.011" d="M604.64 618.04L671.2 351.8c7.58-9.73 23.48-9.14 26.17 6.35l-71.8 266.92c-6.97 10.34-17.78 6.2-20.93-7.03z"/><path fill="#fce94f" fill-rule="evenodd" stroke="#c4a000" stroke-width="10.011" d="M171.9 587.8l-36-272.07c-6.45-10.52-22.3-11.73-26.75 3.36L150.3 592.4c5.77 11.07 16.98 8.16 21.6-4.62z"/><path fill="#fce94f" fill-rule="evenodd" stroke="#c4a000" stroke-width="8.967" d="M265.82 479.18l7.18-245.7c-4.18-10.22-18.03-13.57-24.1-.87l-2.83 247.57c3.5 10.6 13.82 9.65 19.75-1z"/><g><path fill="url(#l)" fill-rule="evenodd" d="M.17 6.4c3.56-5.6 7.37-2.98 9.6-.1-1.5 5.44-7.73 3.87-9.6.1z" transform="matrix(28.961 0 0 28.961 408.008 -.479)"/><path fill="#fff" fill-opacity=".75" fill-rule="evenodd" d="M415.42 191.2c82.78 5.56 174.08 5.7 252.73-15.22-90.9-62-205.87-28.4-252.73 15.2z"/><path fill="#3465a4" d="M609.78 181.27c2.98 31.85-20.42 60.1-52.27 63.07-31.84 3-60.08-20.4-63.07-52.27-2.98-31.85 20.42-60.1 52.27-63.07 31.85-3 60.1 20.4 63.08 52.27z" color="#000" overflow="visible"/><path fill="#2e3436" d="M567.27 186.38c.96 10.17-6.52 19.18-16.7 20.13-10.15.97-19.17-6.5-20.12-16.68-.95-10.16 6.52-19.18 16.7-20.13 10.16-.96 19.17 6.5 20.12 16.68z" color="#000" overflow="visible"/><path fill="#eeeeec" fill-opacity=".716" fill-rule="evenodd" d="M548.66 174.16s-4.64-16.12-6.68-23.54c-11.94 1.57-32.16 10.17-36.46 16.84 3.8 7.25 10 16.07 12.77 21.63 10.8-8.63 19.3-13.46 30.36-14.94z"/><path fill="#2e3436" fill-rule="evenodd" d="M407.86 191.1c104.73-86.34 192.4-86.36 268.4-8.68l19.9-18.73C644.25 99.5 611.97 76.97 536.83 84c-75.14 7.04-129 109.4-128.96 107.1z"/><path fill="#2e3436" fill-rule="evenodd" d="M411.46 189.48c109.74 99.3 181.5 83.27 260.3 3.27l30.3 23.6c-112.7 110.5-215.37 87.4-290.6-26.87z"/><path fill="#2e3436" fill-rule="evenodd" d="M696.62 114.4c-75.2-160.75-233.55-142.66-289.53 2.54C487.13 39.5 592.9 7.4 696.6 114.4z"/></g></svg>