<svg xmlns="http://www.w3.org/2000/svg" width="48" height="48" xmlns:xlink="http://www.w3.org/1999/xlink" version="1" viewBox="0 0 612 792" enable-background="new 0 0 612 792"><defs><linearGradient id="b"><stop offset="0" stop-color="#d3d7cf"/><stop offset="1" stop-color="#b8beb1"/></linearGradient><linearGradient id="a"><stop offset="0" stop-color="#e9b96e"/><stop offset="1" stop-color="#e2a340"/></linearGradient><radialGradient id="e" cx="13.043" cy="22.502" r="9.472" xlink:href="#a" fx="13.043" fy="22.502" gradientTransform="matrix(18.199 0 0 25.544 -133.359 -178.522)" gradientUnits="userSpaceOnUse"/><radialGradient id="f" cx="497.344" cy="374.368" r="159.85" xlink:href="#b" fx="497.344" fy="374.368" gradientTransform="matrix(1.153 0 0 1.321 -66.087 -88.988)" gradientUnits="userSpaceOnUse"/><linearGradient x1="13.271" x2="34.331" y1="35.535" y2="35.853" xlink:href="#c" gradientUnits="userSpaceOnUse"/><linearGradient id="c" x1="-95.827" x2="-81.455" y1="297.608" y2="297.608" gradientTransform="matrix(0 -1.064 -1.352 0 410.498 -83.416)" gradientUnits="userSpaceOnUse"><stop offset="0" stop-color="#e96712" stop-opacity="0"/><stop offset=".5" stop-color="#ef0909"/><stop offset="1" stop-color="#f57900"/></linearGradient><linearGradient x1="8.07" x2="8.03" y1="9.314" y2="15.392" xlink:href="#d" gradientUnits="userSpaceOnUse" gradientTransform="matrix(.012 1.805 -1.771 .012 40.628 22.446)"/><linearGradient id="d"><stop offset="0" stop-color="#590b08"/><stop offset="1" stop-opacity="0"/></linearGradient><linearGradient id="g" x1="13.271" x2="34.331" y1="35.535" y2="35.853" gradientTransform="matrix(16.5 0 0 16.5 -121.545 58.382)" gradientUnits="userSpaceOnUse" xlink:href="#c"/><linearGradient id="h" x1="8.07" x2="8.03" y1="9.314" y2="15.392" gradientTransform="matrix(.196 29.781 -29.221 .196 548.822 428.744)" gradientUnits="userSpaceOnUse" xlink:href="#d"/></defs><path fill="url(#e)" fill-rule="evenodd" stroke="#c17d11" stroke-width="8.25" d="M271.24 396.22c-8.57 130.25-110.1 240.4-167.2 237.55-57.1-2.85-158.63-113.97-167.2-237.55-9.08-130.88 74.86-237.55 167.2-237.55 92.34 0 175.82 106.64 167.2 237.55z" color="#000" overflow="visible" enable-background="accumulate"/><path fill="#c17d11" stroke="#603c01" stroke-width="8.25" d="M-58.8 422.62c-14-43.6-21.8-97.2-20.88-134.64.9-37.44 8.9-75 33-86.18C-34 195.92.5 208.53.5 208.53c-24.94-18.78-49.86-15.63-74.8-4.04 25.74-51.28 71.82-73.84 128-82.14-21.55-1.13-30.08-7.63-31.65-31.65 13.55 17.02 113.98-10.47 151.58 6.75 37.6 17.22 51.37 80.57 49.17 96.27-2.2 15.7-20.84 29.07-55.24 44.44-34.4 15.36-149.88 1.58-175.16 22.2-25.28 20.64-37.02 53.2-47.15 76.1-10.13 22.9-4.05 86.16-4.05 86.16z"/><path fill="#c17d11" stroke="#633d01" stroke-width="8.25" d="M187.1 240.85c28.6-12.44 41.8-53.17 45.14-53.86 10.3-2.14 32.56 7.17 45.8 30.96 13.26 23.8 8.5 91.95 4.05 125.9-4.45 33.94-22.92 76.07-22.92 76.07s11.12-100.26-6.73-136.67c-17.86-36.4-65.35-42.4-65.35-42.4z"/><path fill="#c17d11" stroke="#633d01" stroke-width="8.25" d="M-54.75 444.84s10.4 50.87 26.94 69.35c13.5 15.1 45.14 22.37 61.97 40.38 11.94 12.78-8.86 46.6 25.6 45.78 40.52-.95 13.26-21.82 16.84-33 1.8-5.54 54.87-7.85 57.95 2.7 2.63 9-24.94 30.57 12.13 31.65 31.66.93 20.98-36.8 34.36-51.16 17-18.28 41.58-22.93 55.9-41.07 14.67-18.54 27.63-65.3 27.63-65.3s-4.55 77.74-15.5 105.7c-10.93 27.95-80.34 133.27-145.5 133.3C38.4 683.2-28.5 579.6-39.27 552.57c-10.76-27.05-15.5-107.73-15.5-107.73z"/><path fill="#c17d11" stroke="#633d01" stroke-width="8.25" d="M89.57 472.54c-21.85-2.23-31.52 30.64-52.6 36.8-11.8 3.42-17.1-18.73-16.27-19.8 0 0-12.52 25.93 11.02 31.2 17.53 3.9 53.9-10.98 67.62-23.03 7.14-6.27 1.63-24-9.77-25.16z" color="#000" overflow="visible" enable-background="accumulate"/><path fill="#c17d11" stroke="#633d01" stroke-width="8.25" d="M128.04 472c21.84-2.22 31.5 30.65 52.6 36.8 11.78 3.44 17.1-18.72 16.27-19.8 0 0 12.53 25.95-11.02 31.2-17.52 3.93-53.9-10.96-67.6-23.02-7.15-6.28-1.65-24 9.76-25.17z" color="#000" overflow="visible" enable-background="accumulate"/><path fill="url(#f)" fill-rule="evenodd" stroke="#888a85" stroke-width="8.25" d="M686.3 405.57C677.1 519.22 568.5 615.34 507.4 612.85c-61.08-2.5-169.7-99.45-178.87-207.28-9.72-114.2 80.08-207.28 178.87-207.28 98.8 0 188.1 93.04 178.87 207.27z" color="#000" overflow="visible" enable-background="accumulate"/><path stroke="#555753" stroke-width="8.25" d="M475.4 440.14c-6.33 15.4-103.68 20.64-120.16-38.88-10.35-37.38 13.48-62.44 42.97-57.88 40.66 6.28 85.7 75.98 77.2 96.76z" color="#000" overflow="visible" enable-background="accumulate"/><path stroke="#555753" stroke-width="8.25" d="M537.27 433.07c6.32 15.4 103.67 20.63 120.14-38.88 10.36-37.4-13.46-62.45-42.95-57.9-40.65 6.3-85.7 76-77.18 96.77z" color="#000" overflow="visible" enable-background="accumulate"/><path fill="#8ae234" stroke="#386f04" stroke-width="8.25" d="M336.75 413.6c-13.68-42.68-21.32-95.13-20.43-131.75.9-36.63 8.7-73.37 32.3-84.32 12.4-5.75 46.12 6.6 46.12 6.6-24.38-18.4-48.76-15.3-73.15-3.97 25.16-50.16 70.24-72.24 125.2-80.36-21.08-1.1-29.43-7.47-30.97-30.96 13.26 16.64 111.5-10.26 148.27 6.6 36.78 16.84 50.26 78.82 48.1 94.18-2.14 15.37-20.38 28.45-54.03 43.48-33.64 15.03-146.6 1.55-171.34 21.74-24.72 20.18-36.22 52.03-46.12 74.43-9.9 22.4-3.95 84.32-3.95 84.32z"/><path fill="#8ae234" stroke="#386f04" stroke-width="8.25" d="M582.55 233.88c33.27-12.8 48.64-54.73 52.52-55.44 11.98-2.2 37.88 7.4 53.3 31.88 15.4 24.48 9.87 94.64 4.7 129.58-5.17 34.94-26.65 78.3-26.65 78.3s7.63-94.36-13.14-131.83c-20.77-37.47-70.73-52.5-70.73-52.5z"/><path fill="#8ae234" stroke="#386f04" stroke-width="8.25" d="M351.25 443.23s10.18 49.77 26.36 67.85c13.23 14.78 44.17 21.9 60.64 39.52 11.68 12.5-8.67 45.6 25.04 44.8 39.63-.94 12.97-21.35 16.47-32.28 1.74-5.43 53.66-7.7 56.68 2.64 2.56 8.8-24.4 29.9 11.86 30.96 30.96.9 20.5-36 33.6-50.07 16.64-17.9 40.67-22.43 54.7-40.18 14.33-18.15 27-63.9 27-63.9s-4.44 76.07-15.15 103.42c-10.7 27.35-78.6 130.4-142.34 130.42-63.73.03-129.17-101.34-139.7-127.8-10.52-26.45-15.15-105.4-15.15-105.4z"/><path fill="#8ae234" stroke="#386f04" stroke-width="8.25" d="M492.42 480.87c-21.37-2.18-30.83 29.98-51.46 36-11.52 3.36-16.7-18.32-15.9-19.37 0 0-12.25 25.38 10.78 30.53 17.14 3.83 52.72-10.73 66.14-22.53 6.98-6.15 1.6-23.5-9.56-24.63z" color="#000" overflow="visible" enable-background="accumulate"/><path fill="#8ae234" stroke="#386f04" stroke-width="8.25" d="M530.05 480.36c21.37-2.18 30.83 29.98 51.47 36 11.52 3.36 16.7-18.32 15.9-19.37 0 0 12.25 25.37-10.78 30.52-17.15 3.83-52.73-10.74-66.14-22.54-7-6.14-1.6-23.5 9.55-24.62z" color="#000" overflow="visible" enable-background="accumulate"/><path fill="#fff" d="M391.74 371.25a10.6 10.6 0 1 1-21.2 0 10.6 10.6 0 1 1 21.2 0z" color="#000" overflow="visible" enable-background="accumulate"/><path fill="#fff" d="M603 371.25a10.6 10.6 0 1 1-21.2 0 10.6 10.6 0 1 1 21.2 0z" color="#000" overflow="visible" enable-background="accumulate"/><path fill="url(#g)" stroke="url(#h)" stroke-width="16.5" d="M97.3 643.25l190-1.28-.56-83.83L444 675.62 282.64 783.66l-.48-72.27-181.62 1.2-3.25-69.35z" color="#000" stroke-linejoin="round" overflow="visible"/></svg>