<svg xmlns="http://www.w3.org/2000/svg" width="16" height="16"><g stroke-linecap="round"><path fill="none" stroke="#2e3436" stroke-width="2" d="M1.64 4.45c3.02-5 4.77-.8 6.4 3.48 1.76 4.68 3.38 9.47 6.33 2.44"/><path fill="none" stroke="#ef2929" d="M1.64 4.45c3.02-5 4.77-.8 6.4 3.48 1.76 4.68 3.38 9.47 6.33 2.44"/><path fill="#fff" stroke="#ef2929" stroke-width=".98.019" d="M3.36 4.85a1.44 1.44 0 1 1-2.87 0 1.44 1.44 0 1 1 2.86 0z" color="#000" overflow="visible" enable-background="accumulate"/><path fill="#fff" stroke="#ef2929" stroke-width=".98.019" d="M6.46 1.97a1.44 1.44 0 1 1-2.87 0 1.44 1.44 0 1 1 2.86 0z" color="#000" overflow="visible" enable-background="accumulate"/><path fill="#fff" stroke="#ef2929" stroke-width=".98.019" d="M8.78 6.3a1.44 1.44 0 1 1-2.88 0 1.44 1.44 0 1 1 2.88 0z" color="#000" overflow="visible" enable-background="accumulate"/><path fill="#fff" stroke="#ef2929" stroke-width=".98.019" d="M10.7 10.42a1.44 1.44 0 1 1-2.87 0 1.44 1.44 0 1 1 2.87 0z" color="#000" overflow="visible" enable-background="accumulate"/><path fill="#fff" stroke="#ef2929" stroke-width=".98.019" d="M13.2 14.08a1.44 1.44 0 1 1-2.87 0 1.44 1.44 0 1 1 2.87 0z" color="#000" overflow="visible" enable-background="accumulate"/><path fill="#fff" stroke="#ef2929" stroke-width=".98.019" d="M15.48 10.3a1.44 1.44 0 1 1-2.88 0 1.44 1.44 0 1 1 2.88 0z" color="#000" overflow="visible" enable-background="accumulate"/></g></svg>