<svg xmlns="http://www.w3.org/2000/svg" width="16" height="16"><defs><marker orient="auto" overflow="visible"><path fill-rule="evenodd" stroke="#000" stroke-width=".4pt" d="M2.3 0l-3.45 2v-4L2.3 0z"/></marker><marker orient="auto" overflow="visible"><path fill-rule="evenodd" stroke="#000" stroke-width=".2pt" d="M1.15 0L-.58 1v-2l1.73 1z"/></marker><marker orient="auto" overflow="visible"><path fill-rule="evenodd" stroke="#000" stroke-width=".8pt" d="M4.62 0L-2.3 4v-8l6.92 4z"/></marker></defs><g><path fill="none" stroke="#000" stroke-opacity=".753" stroke-width="3" d="M2.46 13.54c8.52-2.2 4.7-9.7 11.04-11.04" stroke-linecap="round"/><path fill="none" stroke="#fff" d="M2.46 13.54c8.52-2.2 4.7-9.7 11.04-11.04" stroke-linecap="round"/><path fill="none" stroke="#ef2929" d="M13.65 2.53L4.45 4.5" stroke-linecap="round"/><path fill="none" stroke="#ef2929" d="M2.35 13.53l9.2-2.12" stroke-linecap="round"/><path fill="#ef2929" fill-rule="evenodd" d="M6 4.5a1.5 1.5 0 1 1-3 0 1.5 1.5 0 1 1 3 0z" color="#000" overflow="visible"/><path fill="#ef2929" fill-rule="evenodd" d="M13 11.5a1.5 1.5 0 1 1-3 0 1.5 1.5 0 1 1 3 0z" color="#000" overflow="visible"/></g></svg>