<svg xmlns="http://www.w3.org/2000/svg" width="16" height="16"><g><path stroke="#eeeeec" d="M.5 4.5h15v6H.5z" color="#000" stroke-linecap="round" overflow="visible" enable-background="accumulate"/><g fill="#eeeeec" stroke="#555753" stroke-width="1.23" style="text-align:start;line-height:125%;-inkscape-font-specification:Segoe UI Bold" font-size="12" font-weight="bold" letter-spacing="0" word-spacing="0" font-family="Segoe UI"><path d="M5.24 8.76H5.2c-.2.6-.62.9-1.2.9-.44 0-.8-.15-1.06-.46-.27-.32-.4-.76-.4-1.32 0-.73.18-1.32.55-1.78.37-.45.8-.68 1.34-.68.47 0 .77.2.9.56l.06-.47h1.07c-.14 1.36-.22 2.24-.22 2.66 0 .44.12.66.37.66s.46-.16.63-.5c.16-.34.24-.78.24-1.32 0-.74-.24-1.35-.72-1.83-.47-.47-1.13-.7-1.98-.7-.9 0-1.66.3-2.26.94-.6.65-.9 1.42-.9 2.33 0 .88.26 1.58.8 2.1.52.5 1.26.75 2.2.75.7 0 1.36-.14 1.96-.4v.9c-.55.23-1.24.34-2.1.34-1.17 0-2.13-.33-2.86-1C.9 9.75.54 8.84.54 7.72c0-1.17.4-2.14 1.17-2.92.8-.8 1.8-1.18 3.04-1.18 1.15 0 2.07.3 2.78.9.7.62 1.06 1.43 1.06 2.43 0 .82-.22 1.48-.65 1.98-.43.5-.97.74-1.6.74-.32 0-.57-.08-.77-.25-.2-.17-.3-.4-.32-.66zm-.63-2.5c-.28 0-.5.15-.7.48-.17.32-.26.7-.26 1.13 0 .3.06.54.18.7.12.18.28.26.48.26.3 0 .53-.16.7-.48.17-.32.26-.75.26-1.28 0-.26-.06-.46-.18-.6-.12-.15-.28-.22-.47-.22z" style="-inkscape-font-specification:Segoe UI Bold"/></g><g fill="#eeeeec" style="text-align:start;line-height:125%;-inkscape-font-specification:Segoe UI Bold" font-size="12" font-weight="bold" letter-spacing="0" word-spacing="0" font-family="Segoe UI"><path d="M5.24 8.76H5.2c-.2.6-.62.9-1.2.9-.44 0-.8-.15-1.06-.46-.27-.32-.4-.76-.4-1.32 0-.73.18-1.32.55-1.78.37-.45.8-.68 1.34-.68.47 0 .77.2.9.56l.06-.47h1.07c-.14 1.36-.22 2.24-.22 2.66 0 .44.12.66.37.66s.46-.16.63-.5c.16-.34.24-.78.24-1.32 0-.74-.24-1.35-.72-1.83-.47-.47-1.13-.7-1.98-.7-.9 0-1.66.3-2.26.94-.6.65-.9 1.42-.9 2.33 0 .88.26 1.58.8 2.1.52.5 1.26.75 2.2.75.7 0 1.36-.14 1.96-.4v.9c-.55.23-1.24.34-2.1.34-1.17 0-2.13-.33-2.86-1C.9 9.75.54 8.84.54 7.72c0-1.17.4-2.14 1.17-2.92.8-.8 1.8-1.18 3.04-1.18 1.15 0 2.07.3 2.78.9.7.62 1.06 1.43 1.06 2.43 0 .82-.22 1.48-.65 1.98-.43.5-.97.74-1.6.74-.32 0-.57-.08-.77-.25-.2-.17-.3-.4-.32-.66zm-.63-2.5c-.28 0-.5.15-.7.48-.17.32-.26.7-.26 1.13 0 .3.06.54.18.7.12.18.28.26.48.26.3 0 .53-.16.7-.48.17-.32.26-.75.26-1.28 0-.26-.06-.46-.18-.6-.12-.15-.28-.22-.47-.22z" style="-inkscape-font-specification:Segoe UI Bold"/></g><path fill="none" stroke="#babdb6" d="M13.5 5v5"/><path fill="none" stroke="#babdb6" d="M11.5 5v5"/><path fill="none" stroke="#babdb6" d="M9.52 5v5"/></g></svg>