<svg xmlns="http://www.w3.org/2000/svg" width="16" height="16" xmlns:xlink="http://www.w3.org/1999/xlink"><defs><linearGradient x1="-.064" x2="6.021" y1="7.527" y2="7.527" xlink:href="#a" gradientUnits="userSpaceOnUse" gradientTransform="matrix(.817 0 0 1 5.483 -.1)"/><linearGradient id="a"><stop offset="0" stop-color="#fce94f"/><stop offset="1" stop-color="#fce94f" stop-opacity="0"/></linearGradient><linearGradient id="b" x1="-.064" x2="6.021" y1="7.527" y2="7.527" gradientTransform="matrix(.995 0 0 .773 .083 -14.337)" xlink:href="#a" gradientUnits="userSpaceOnUse"/><linearGradient id="c" x1="-.064" x2="6.021" y1="7.527" y2="7.527" xlink:href="#a" gradientUnits="userSpaceOnUse" gradientTransform="matrix(.995 0 0 .773 -15.98 -14.337)"/></defs><g><path stroke="#eeeeec" d="M.5.52h15v5.04H.5z" color="#000" stroke-linecap="round" overflow="visible" enable-background="accumulate"/><path fill="none" stroke="#babdb6" d="M13.5 1v4.06"/><path fill="none" stroke="#babdb6" d="M11.5 1v4.06"/><path fill="none" stroke="#babdb6" d="M9.52 1v4.06"/><path stroke="#eeeeec" d="M.5 5.52h15v5.04H.5z" color="#000" stroke-linecap="round" overflow="visible" enable-background="accumulate"/><path stroke="#eeeeec" d="M.5 10.5h15v5.03H.5z" color="#000" stroke-linecap="round" overflow="visible" enable-background="accumulate"/><path fill="none" stroke="#babdb6" d="M7.5 1v4.06"/><path fill="none" stroke="#babdb6" d="M5.5 1v4.06"/><path fill="none" stroke="#babdb6" d="M3.53 1v4.06"/><path fill="none" stroke="#babdb6" d="M13.5 6v4.06"/><path fill="none" stroke="#babdb6" d="M11.5 6v4.06"/><path fill="none" stroke="#babdb6" d="M5.5 6v4.06"/><path fill="none" stroke="#babdb6" d="M3.53 6v4.06"/><path fill="none" stroke="#babdb6" d="M13.5 10.95V15"/><path fill="none" stroke="#babdb6" d="M11.5 10.95V15"/><path fill="none" stroke="#babdb6" d="M9.52 10.95V15"/><path fill="none" stroke="#babdb6" d="M7.5 10.95V15"/><path fill="none" stroke="#babdb6" d="M5.5 10.95V15"/><path fill="none" stroke="#babdb6" d="M3.53 10.95V15"/><path fill="url(#b)" d="M.02-12.04h6.05V-5H.02z" transform="rotate(90)" color="#000" overflow="visible" enable-background="accumulate"/><path fill="#c4a000" stroke="#fce94f" d="M5.5 5.5h6.08v4.98h-6.1z" color="#000" overflow="visible" enable-background="accumulate"/><path fill="none" stroke="#fff" d="M9.52 6v4.06"/><path fill="none" stroke="#fff" d="M7.5 6v4.06"/><path fill="url(#c)" d="M-16.04-12.04H-10V-5h-6.04z" transform="matrix(0 -1 -1 0 0 0)" color="#000" overflow="visible" enable-background="accumulate"/></g></svg>