<svg xmlns="http://www.w3.org/2000/svg" width="16" height="16"><g><path stroke="#eeeeec" d="M.5 5.52h15v5.94H.5z" color="#000" stroke-linecap="round" overflow="visible" enable-background="accumulate"/><g fill="#eeeeec" stroke="#555753" style="text-align:start;line-height:125%;-inkscape-font-specification:Adobe Caslon Pro Semi-Bold" font-size="18" font-weight="600" letter-spacing="0" word-spacing="0" font-family="Adobe Caslon Pro"><path d="M4.57 8.24c.08.1.37.44.86.98.5.55.85.92 1.08 1.1.25.13.5.18.74.14.25-.03.46-.16.62-.38.18-.35.22-.64.13-.86-.1-.2-.23-.36-.4-.44-.17-.08-.48-.18-.93-.3-.45-.1-.9-.2-1.3-.28-.43-.1-.67-.14-.75-.16v-.1c.08 0 .32-.05.74-.12.4-.08.83-.17 1.26-.26.43-.1.7-.17.84-.22.23-.13.38-.3.45-.54.1-.22.05-.48-.1-.75-.15-.25-.33-.4-.54-.46-.22-.06-.45-.03-.7.1-.2.16-.56.52-1.07 1.06-.5.55-.82.9-.93 1.03l-.1-.1c.08-.17.23-.6.46-1.32.23-.7.36-1.22.4-1.53 0-.27-.1-.48-.24-.63-.17-.14-.4-.2-.73-.2-.3 0-.53.07-.7.23-.16.16-.24.37-.24.65 0 .16.08.45.2.87.13.42.27.82.4 1.22.14.38.22.6.24.7l-.1.04c-.13-.14-.45-.47-.94-1-.5-.52-.86-.87-1.12-1.04-.22-.13-.46-.16-.7-.1-.23.07-.43.25-.6.55-.1.23-.1.48-.03.73.08.25.27.42.57.5.25.07.7.16 1.3.3.63.12 1.08.22 1.36.3v.1c-.24.06-.7.16-1.38.32-.67.17-1.14.3-1.4.43-.27.17-.42.38-.46.63-.04.25.02.5.18.74.13.2.32.33.56.38.24.04.5-.02.73-.2.3-.27.66-.63 1.05-1.1.4-.45.68-.78.87-1l.1.05c-.07.18-.22.62-.44 1.32-.22.7-.34 1.2-.37 1.47 0 .26.08.48.25.66.16.18.4.28.7.3.34-.02.58-.13.73-.32.15-.2.22-.4.22-.64-.03-.34-.17-.86-.4-1.54-.24-.68-.4-1.1-.45-1.25z"/></g><path fill="none" stroke="#babdb6" d="M13.5 6v5"/><path fill="none" stroke="#babdb6" d="M11.5 6v5"/><path fill="none" stroke="#babdb6" d="M9.52 6v5"/><g fill="#eeeeec" style="text-align:start;line-height:125%;-inkscape-font-specification:Adobe Caslon Pro Semi-Bold" font-size="18" font-weight="600" letter-spacing="0" word-spacing="0" font-family="Adobe Caslon Pro"><path d="M4.57 8.24c.08.1.37.44.86.98.5.55.85.92 1.08 1.1.25.13.5.18.74.14.25-.03.46-.16.62-.38.18-.35.22-.64.13-.86-.1-.2-.23-.36-.4-.44-.17-.08-.48-.18-.93-.3-.45-.1-.9-.2-1.3-.28-.43-.1-.67-.14-.75-.16v-.1c.08 0 .32-.05.74-.12.4-.08.83-.17 1.26-.26.43-.1.7-.17.84-.22.23-.13.38-.3.45-.54.1-.22.05-.48-.1-.75-.15-.25-.33-.4-.54-.46-.22-.06-.45-.03-.7.1-.2.16-.56.52-1.07 1.06-.5.55-.82.9-.93 1.03l-.1-.1c.08-.17.23-.6.46-1.32.23-.7.36-1.22.4-1.53 0-.27-.1-.48-.24-.63-.17-.14-.4-.2-.73-.2-.3 0-.53.07-.7.23-.16.16-.24.37-.24.65 0 .16.08.45.2.87.13.42.27.82.4 1.22.14.38.22.6.24.7l-.1.04c-.13-.14-.45-.47-.94-1-.5-.52-.86-.87-1.12-1.04-.22-.13-.46-.16-.7-.1-.23.07-.43.25-.6.55-.1.23-.1.48-.03.73.08.25.27.42.57.5.25.07.7.16 1.3.3.63.12 1.08.22 1.36.3v.1c-.24.06-.7.16-1.38.32-.67.17-1.14.3-1.4.43-.27.17-.42.38-.46.63-.04.25.02.5.18.74.13.2.32.33.56.38.24.04.5-.02.73-.2.3-.27.66-.63 1.05-1.1.4-.45.68-.78.87-1l.1.05c-.07.18-.22.62-.44 1.32-.22.7-.34 1.2-.37 1.47 0 .26.08.48.25.66.16.18.4.28.7.3.34-.02.58-.13.73-.32.15-.2.22-.4.22-.64-.03-.34-.17-.86-.4-1.54-.24-.68-.4-1.1-.45-1.25z"/></g></g></svg>