<svg xmlns="http://www.w3.org/2000/svg" width="16" height="16"><g><path fill="none" stroke="#000" stroke-opacity=".753" stroke-width="3" d="M14.5 5.5c-.42.2-4.63 1.04-6.43 7-1.92-5.97-6.3-6.76-6.57-7" stroke-linecap="round"/><path fill="#729fcf" fill-rule="evenodd" stroke="#204a87" d="M5.5 10.5h5v5h-5z" color="#000" overflow="visible"/><path fill="none" stroke="#ef2929" d="M4.5 1.44L8.08 12.2 11.5 1.47"/><path fill="none" stroke="#fff" d="M14.5 5.5c-.42.2-4.63 1.04-6.43 7-1.92-5.97-6.3-6.76-6.57-7" stroke-linecap="round"/><path fill="#ef2929" fill-rule="evenodd" d="M6 1.5a1.5 1.5 0 1 1-3 0 1.5 1.5 0 1 1 3 0z" color="#000" overflow="visible"/><path fill="#ef2929" fill-rule="evenodd" d="M13 1.5a1.5 1.5 0 1 1-3 0 1.5 1.5 0 1 1 3 0z" color="#000" overflow="visible"/></g></svg>