<svg xmlns="http://www.w3.org/2000/svg" width="16" height="16" xmlns:xlink="http://www.w3.org/1999/xlink"><defs><linearGradient id="a"><stop offset="0" stop-color="#8c8c8c"/><stop offset="1" stop-color="#8c8c8c" stop-opacity="0"/></linearGradient><linearGradient x1="4.985" x2="9.01" y1="7.971" y2="7.971" xlink:href="#a" gradientUnits="userSpaceOnUse" gradientTransform="matrix(1 0 0 .798 0 1.6)"/><linearGradient x1="5.36" x2="8.961" y1="9.821" y2="8.733" xlink:href="#a" gradientUnits="userSpaceOnUse" gradientTransform="matrix(1.229 0 0 .184 -1.141 5.263)"/><linearGradient x1="5.36" x2="8.961" y1="9.821" y2="8.733" xlink:href="#a" gradientUnits="userSpaceOnUse" gradientTransform="matrix(1.229 0 0 .184 -1.141 -10.059)"/></defs><g><path fill="#2e3436" stroke="#eeeeec" d="M.5.5h15v15H.5z" color="#000" stroke-linecap="round" overflow="visible" enable-background="accumulate"/><path fill="#3465a4" d="M4.9 11.54l2.65-2.57 2.64 2.56-2.67 2.57z" color="#000" overflow="visible" enable-background="accumulate"/><path fill="#a40000" d="M4.76 4.56L7.5 1.92l2.7 2.62-2.73 2.63z" color="#000" overflow="visible" enable-background="accumulate"/><path fill="none" stroke="#fce94f" d="M7.53 1v13.98"/><path fill="#fff" d="M9.07 4.4l2.43-2.43v2h3.56v1.08h-3.6V7z"/><path fill="#f8a4a4" d="M5.76 4.55l1.72-1.67L9.2 4.54 7.47 6.2z" color="#000" overflow="visible" enable-background="accumulate"/><path fill="#a3c0e0" d="M5.82 11.54l1.72-1.67 1.72 1.66-1.73 1.67z" color="#000" overflow="visible" enable-background="accumulate"/><path fill="#fff" d="M6 11.52L3.54 9.08v2H0v1.08h3.58v1.96z"/></g></svg>