<svg xmlns="http://www.w3.org/2000/svg" width="16" height="16" xmlns:xlink="http://www.w3.org/1999/xlink"><defs><linearGradient x1="6.981" x2="8.999" y1="11" y2="11" xlink:href="#a" gradientUnits="userSpaceOnUse" gradientTransform="matrix(1 0 0 1.667 0 -10.333)"/><linearGradient id="a"><stop offset="0" stop-color="#99a28f"/><stop offset="1" stop-color="#fff"/></linearGradient><linearGradient x1="6" x2="10" y1="8" y2="8" xlink:href="#b" gradientUnits="userSpaceOnUse"/><linearGradient id="b"><stop offset="0" stop-color="#2e3436"/><stop offset="1" stop-color="#aeaeae"/></linearGradient><linearGradient id="g" x1="4.001" x2="12.039" y1="3.5" y2="3.5" xlink:href="#c" gradientUnits="userSpaceOnUse" gradientTransform="translate(1.973 3.036)"/><linearGradient id="c"><stop offset="0" stop-color="#fff"/><stop offset="1" stop-color="#999e93"/></linearGradient><linearGradient id="h" x1="4.722" x2="12.88" y1="3" y2="10" gradientTransform="translate(1.973 .036)" xlink:href="#d" gradientUnits="userSpaceOnUse"/><linearGradient id="d"><stop offset="0" stop-color="#5c5c5c"/><stop offset="1" stop-color="#2e3436"/></linearGradient><linearGradient id="e" x1="6.981" x2="8.999" y1="11" y2="11" gradientTransform="matrix(1 0 0 1.667 1.973 -10.297)" gradientUnits="userSpaceOnUse" xlink:href="#a"/><linearGradient id="f" x1="6" x2="10" y1="8" y2="8" gradientTransform="translate(1.973 .036)" gradientUnits="userSpaceOnUse" xlink:href="#b"/></defs><g><g fill="#fff" stroke="#000" stroke-width=".628" style="line-height:125%" font-size="21.521" letter-spacing="0" word-spacing="0" font-family="Sans"><path d="M.32 7.34c.44 0 .8-.12 1.1-.33.27-.2.46-.5.55-.87.1-.37.14-1 .15-1.9 0-.9.02-1.5.05-1.77.05-.45.15-.82.3-1.1.13-.27.3-.48.52-.65.2-.15.46-.28.8-.36.2-.06.56-.08 1.06-.08h.5v1.26h-.28c-.6 0-1 .1-1.2.3-.2.2-.3.66-.3 1.36 0 1.4-.03 2.3-.1 2.66-.1.58-.27 1.02-.52 1.34-.26.3-.65.58-1.2.83.65.25 1.1.63 1.4 1.14.28.5.43 1.34.43 2.5 0 1.04 0 1.67.02 1.87.05.37.16.63.35.77.2.15.56.22 1.1.22h.28v1.26h-.5c-.55 0-.97-.05-1.22-.13-.37-.13-.68-.33-.92-.6-.24-.28-.4-.63-.47-1.06-.07-.42-.1-1.12-.1-2.1-.02-.95-.07-1.62-.16-2-.1-.36-.28-.66-.56-.87-.27-.22-.64-.33-1.08-.34z"/></g><path fill="url(#e)" fill-rule="evenodd" stroke="url(#f)" d="M8.47.54h3v15h-3z" color="#000" stroke-linecap="round" overflow="visible"/><path fill-opacity=".251" fill-rule="evenodd" d="M5.97 6.04H16v4H5.96z" color="#000" overflow="visible"/><path fill="url(#g)" fill-rule="evenodd" stroke="url(#h)" d="M6.75 3.54L5.47 5.06v3.46h9V5.04l-1.28-1.5H6.74z" color="#000" stroke-linecap="round" overflow="visible"/><path fill="#eeeeec" fill-rule="evenodd" d="M6.97 4.04h6v3h-6z" color="#000" overflow="visible"/><path fill-opacity=".251" fill-rule="evenodd" d="M7.97 9.04h4v2h-4z" color="#000" overflow="visible"/></g></svg>