<svg xmlns="http://www.w3.org/2000/svg" width="16" height="16"><g font-size="15.036" font-family="Century"><path fill="none" stroke="#000" stroke-opacity=".753" stroke-width="2" d="M10.58 11.4c.08.2.16.5.25.83.18.65.34 1.08.5 1.27.15.2.33.3.53.3s.35-.1.48-.32c.14-.2.2-.55.22-1.03H13c0 .88-.18 1.53-.5 1.94-.35.4-.8.62-1.34.62-.5 0-.9-.2-1.23-.6-.3-.4-.52-1.2-.62-2.33-.27.05-.53.1-.8.14-.24.03-.48.05-.7.05-.92 0-1.76-.24-2.53-.72-.78-.47-1.4-1.15-1.84-2.03-.45-.88-.68-1.88-.68-3 0-1.57.5-2.9 1.54-4.03C5.2 1.52 6.36 1 7.74 1c.93 0 1.77.23 2.53.7.77.47 1.38 1.14 1.84 2 .46.9.7 1.86.7 2.95 0 .98-.2 1.87-.55 2.64-.36.76-.92 1.47-1.7 2.1zm-.37-1c.27-.5.47-1.04.6-1.62.1-.6.17-1.32.17-2.2 0-1.23-.13-2.2-.4-2.92-.27-.72-.65-1.25-1.14-1.6-.5-.33-1.04-.5-1.66-.5-.6 0-1.15.17-1.63.5-.48.35-.86.9-1.13 1.62-.26.72-.4 1.7-.4 2.96 0 .88.08 1.64.24 2.27.16.64.42 1.24.76 1.8 0-.22-.02-.4-.02-.54 0-.6.2-1.1.6-1.5.38-.4.9-.58 1.52-.58.64 0 1.17.2 1.6.64.32.32.63.88.9 1.68zm-.9.93c0-.88-.12-1.52-.34-1.92-.28-.5-.7-.75-1.28-.75-.46 0-.84.15-1.13.44-.3.28-.44.66-.44 1.13 0 .46.2.9.55 1.3.35.16.7.23 1.1.23.3 0 .56-.03.82-.1.26-.08.5-.2.74-.33z" style="text-align:start;line-height:125%"/><path fill="#fff" d="M10.58 11.4c.08.2.16.47.25.82.18.65.34 1.07.5 1.27.15.18.33.28.53.28s.35-.1.48-.3c.14-.22.2-.57.22-1.05H13c0 .88-.18 1.53-.5 1.95-.35.4-.8.62-1.34.62-.5 0-.9-.2-1.23-.6-.3-.4-.52-1.18-.62-2.33-.27.07-.53.12-.8.15-.24.04-.48.06-.7.06-.92 0-1.76-.24-2.53-.7-.78-.48-1.4-1.16-1.84-2.05-.45-.88-.68-1.88-.68-3 0-1.56.5-2.9 1.54-4.03C5.2 1.5 6.36.98 7.74.98c.93 0 1.77.24 2.53.7.77.47 1.38 1.14 1.84 2.02.46.87.7 1.85.7 2.93 0 1-.2 1.87-.55 2.64-.36.78-.92 1.48-1.7 2.13zm-.37-1.02c.27-.5.47-1.04.6-1.62.1-.58.17-1.3.17-2.2 0-1.22-.13-2.2-.4-2.9-.27-.73-.65-1.26-1.14-1.6-.5-.35-1.04-.52-1.66-.52-.6 0-1.15.17-1.63.52-.48.34-.86.87-1.13 1.6-.26.73-.4 1.7-.4 2.96 0 .88.08 1.64.24 2.27.16.62.42 1.22.76 1.8 0-.23-.02-.42-.02-.55 0-.6.2-1.1.6-1.5.38-.4.9-.6 1.52-.6.64 0 1.17.22 1.6.65.32.32.63.88.9 1.68zm-.9.93c0-.87-.12-1.5-.34-1.9-.28-.5-.7-.77-1.28-.77-.46 0-.84.15-1.13.45-.3.3-.44.67-.44 1.13 0 .47.2.9.55 1.32.35.15.7.23 1.1.23.3 0 .56-.04.82-.1.26-.1.5-.2.74-.34z" style="text-align:start;line-height:125%"/></g></svg>