<svg xmlns="http://www.w3.org/2000/svg" width="16" height="16" xmlns:xlink="http://www.w3.org/1999/xlink"><defs><linearGradient x1="6.981" x2="8.999" y1="11" y2="11" xlink:href="#a" gradientUnits="userSpaceOnUse" gradientTransform="matrix(1 0 0 1.667 0 -10.333)"/><linearGradient id="a"><stop offset="0" stop-color="#99a28f"/><stop offset="1" stop-color="#fff"/></linearGradient><linearGradient x1="6" x2="10" y1="8" y2="8" xlink:href="#b" gradientUnits="userSpaceOnUse"/><linearGradient id="b"><stop offset="0" stop-color="#2e3436"/><stop offset="1" stop-color="#aeaeae"/></linearGradient><linearGradient><stop offset="0" stop-color="#fff"/><stop offset="1" stop-color="#999e93"/></linearGradient><linearGradient><stop offset="0" stop-color="#5c5c5c"/><stop offset="1" stop-color="#2e3436"/></linearGradient><linearGradient x1="17.916" x2="29.375" y1="287.34" y2="312.52" xlink:href="#c" gradientUnits="userSpaceOnUse" gradientTransform="matrix(.308 0 0 .305 2.002 -65.81)"/><linearGradient id="c"><stop offset="0" stop-color="#fff"/><stop offset="1" stop-color="#bcbcb4"/></linearGradient><linearGradient x1="16.672" x2="40.52" y1="296.05" y2="314.1" xlink:href="#d" gradientUnits="userSpaceOnUse" gradientTransform="matrix(.308 0 0 .305 2.002 -65.81)"/><linearGradient id="d"><stop offset="0" stop-color="#6e6e6e"/><stop offset="1"/></linearGradient><linearGradient x1="8.181" x2="5.482" y1="5.206" y2="8.529" xlink:href="#e" gradientUnits="userSpaceOnUse" gradientTransform="matrix(.68 0 0 .676 4.908 21.073)"/><linearGradient id="e"><stop offset="0" stop-color="#fff"/><stop offset="1" stop-color="#eeeeec" stop-opacity="0"/></linearGradient><linearGradient x1="8.181" x2="5.482" y1="5.206" y2="8.529" gradientTransform="matrix(.68 0 0 .676 4.908 21.073)" gradientUnits="userSpaceOnUse" xlink:href="#e"/><linearGradient id="i" x1="17.916" x2="29.375" y1="287.34" y2="312.52" xlink:href="#f" gradientUnits="userSpaceOnUse" gradientTransform="matrix(.308 0 0 .305 2.002 -65.81)"/><linearGradient id="f"><stop offset="0" stop-color="#fff"/><stop offset="1" stop-color="#bcbcb4"/></linearGradient><linearGradient id="j" x1="16.672" x2="40.52" y1="296.05" y2="314.1" xlink:href="#g" gradientUnits="userSpaceOnUse" gradientTransform="matrix(.308 0 0 .305 2.002 -65.81)"/><linearGradient id="g"><stop offset="0" stop-color="#6e6e6e"/><stop offset="1"/></linearGradient><linearGradient x1="8.181" x2="5.482" y1="5.206" y2="8.529" xlink:href="#h" gradientUnits="userSpaceOnUse" gradientTransform="matrix(.68 0 0 .676 4.908 21.073)"/><linearGradient id="h"><stop offset="0" stop-color="#fff"/><stop offset="1" stop-color="#eeeeec" stop-opacity="0"/></linearGradient><linearGradient id="k" x1="8.181" x2="5.482" y1="5.206" y2="8.529" gradientTransform="matrix(.68 0 0 .676 4.908 21.073)" gradientUnits="userSpaceOnUse" xlink:href="#h"/></defs><g><path fill="none" stroke="#000" stroke-opacity=".753" stroke-width="3" d="M14.5 1.56c-.6 3.78-3.87 6.5-6.44 6.5-2.35 0-5.98 2.7-6.56 6.46" stroke-linecap="round"/><path fill="none" stroke="#fff" d="M14.5 1.56c-.6 3.78-3.87 6.5-6.44 6.5-2.35 0-5.98 2.7-6.56 6.46" stroke-linecap="round"/><path fill="#729fcf" fill-rule="evenodd" stroke="#204a87" d="M5.5 5.56h5v5h-5z" color="#000" overflow="visible" enable-background="accumulate"/><g><path fill="url(#i)" stroke="url(#j)" stroke-width=".569" d="M14.72 28.63l-7.4-7.33v10.37l3.05-3.3z" stroke-linejoin="round" transform="translate(1.051 -16)"/><path fill="url(#k)" d="M7.5 21.75l2.8 6.38 3.9.3z" transform="translate(1.051 -16)"/></g></g></svg>