<svg xmlns="http://www.w3.org/2000/svg" width="16" height="16" xmlns:xlink="http://www.w3.org/1999/xlink"><defs><linearGradient x1="6.981" x2="8.999" y1="11" y2="11" xlink:href="#a" gradientUnits="userSpaceOnUse" gradientTransform="matrix(1 0 0 1.667 0 -10.333)"/><linearGradient id="a"><stop offset="0" stop-color="#99a28f"/><stop offset="1" stop-color="#fff"/></linearGradient><linearGradient x1="6" x2="10" y1="8" y2="8" xlink:href="#b" gradientUnits="userSpaceOnUse"/><linearGradient id="b"><stop offset="0" stop-color="#2e3436"/><stop offset="1" stop-color="#aeaeae"/></linearGradient><linearGradient><stop offset="0" stop-color="#fff"/><stop offset="1" stop-color="#999e93"/></linearGradient><linearGradient><stop offset="0" stop-color="#5c5c5c"/><stop offset="1" stop-color="#2e3436"/></linearGradient></defs><g><path fill="none" stroke="#000" stroke-opacity=".753" stroke-width="3" d="M14.5 1.56c-.6 3.78-3.87 6.5-6.44 6.5-2.35 0-5.98 2.7-6.56 6.46" stroke-linecap="round"/><path fill="none" stroke="#fff" d="M14.5 1.56c-.6 3.78-3.87 6.5-6.44 6.5-2.35 0-5.98 2.7-6.56 6.46" stroke-linecap="round"/><path fill="#729fcf" fill-rule="evenodd" stroke="#204a87" d="M5.5 5.56h5v5h-5z" color="#000" overflow="visible"/><path fill="#fff" stroke="#000" d="M15.53 11.5c0 .13-.04.25-.1.37-.5.8-1.14 1.43-1.95 1.9-.82.48-1.68.72-2.6.72-.9 0-1.75-.25-2.57-.73-.8-.48-1.45-1.1-1.93-1.9-.07-.12-.1-.24-.1-.36 0-.1.03-.22.1-.34.48-.8 1.13-1.43 1.94-1.9.83-.48 1.7-.72 2.6-.72.9 0 1.76.24 2.58.7.8.5 1.46 1.13 1.94 1.92.07.12.1.24.1.35z"/><circle cx="8" cy="8" r="3.5" transform="matrix(.662 0 0 .662 5.601 5.889)"/><path fill="#fff" d="M10.73 9.45c0-.07-.03-.13-.07-.18-.05-.05-.1-.07-.18-.07-.43 0-.8.15-1.1.46-.32.3-.47.68-.47 1.1 0 .08.03.14.08.18.05.05.1.08.18.08.07 0 .13-.03.17-.08.05-.04.08-.1.08-.17 0-.3.1-.55.32-.76.2-.2.46-.3.76-.3.07 0 .13-.03.18-.08.04-.05.07-.1.07-.17z"/></g></svg>