<svg xmlns="http://www.w3.org/2000/svg" width="16" height="16" xmlns:xlink="http://www.w3.org/1999/xlink"><defs><linearGradient x1="6.981" x2="8.999" y1="11" y2="11" xlink:href="#a" gradientUnits="userSpaceOnUse" gradientTransform="matrix(1 0 0 1.667 0 -10.333)"/><linearGradient id="a"><stop offset="0" stop-color="#99a28f"/><stop offset="1" stop-color="#fff"/></linearGradient><linearGradient x1="6" x2="10" y1="8" y2="8" xlink:href="#b" gradientUnits="userSpaceOnUse"/><linearGradient id="b"><stop offset="0" stop-color="#2e3436"/><stop offset="1" stop-color="#aeaeae"/></linearGradient><linearGradient><stop offset="0" stop-color="#fff"/><stop offset="1" stop-color="#999e93"/></linearGradient><linearGradient><stop offset="0" stop-color="#5c5c5c"/><stop offset="1" stop-color="#2e3436"/></linearGradient></defs><g><path fill="none" stroke="#888a85" stroke-width="3" d="M12.38 1.62c-.4 3.76-2.62 6.48-4.36 6.47-1.6 0-4.05 2.68-4.44 6.42" stroke-linecap="round"/><path fill="none" stroke="#d3d7cf" d="M12.38 1.62c-.4 3.76-2.62 6.48-4.36 6.47-1.6 0-4.05 2.68-4.44 6.42" stroke-linecap="round"/><g color="#000"><path fill="#4e9a06" d="M1.72 8.17L13.58 5l.82 3.08-11.86 3.18z" overflow="visible" enable-background="accumulate"/><path fill="#8ae234" fill-rule="evenodd" stroke="#4e9a06" stroke-width="1.0018799999999999" d="M4.6 9.08c.3 1.1-.35 2.24-1.45 2.53-1.1.3-2.24-.35-2.54-1.45C.33 9.05.98 7.9 2.1 7.62c1.1-.3 2.23.36 2.53 1.46z" overflow="visible"/><path fill="#8ae234" fill-rule="evenodd" stroke="#4e9a06" stroke-width="1.001" d="M15.43 6.15c.3 1.12-.37 2.27-1.5 2.57-1.1.3-2.26-.36-2.56-1.48-.3-1.12.36-2.28 1.48-2.58 1.12-.3 2.28.37 2.58 1.5z" overflow="visible"/><path fill="#8ae234" d="M2 9.2l11.86-3.16.27 1.03-11.86 3.18z" overflow="visible" enable-background="accumulate"/></g><path fill="#d3d7cf" stroke="#888a85" d="M6.98 6.47h3v3h-3z" color="#000" stroke-linecap="square" overflow="visible" enable-background="accumulate"/></g></svg>