<svg xmlns="http://www.w3.org/2000/svg" width="16" height="16"><defs><marker orient="auto" overflow="visible"><path fill-rule="evenodd" stroke="#000" stroke-width=".4pt" d="M2.3 0l-3.45 2v-4L2.3 0z"/></marker><marker orient="auto" overflow="visible"><path fill-rule="evenodd" stroke="#000" stroke-width=".2pt" d="M1.15 0L-.58 1v-2l1.73 1z"/></marker><marker orient="auto" overflow="visible"><path fill-rule="evenodd" stroke="#000" stroke-width=".8pt" d="M4.62 0L-2.3 4v-8l6.92 4z"/></marker></defs><g><path fill="none" stroke="#000" stroke-opacity=".753" stroke-width="3" d="M2.5 11.9c1.47-6 1.68-8.57 3.42-8.36 1.47.18 2.03 8.97 5 8.96 2.42 0 2.4-6.1 2.75-10.08" stroke-linecap="round"/><path fill="#729fcf" fill-rule="evenodd" stroke="#204a87" d="M.5 9.5h4v4h-4z" color="#000" overflow="visible"/><path fill="#729fcf" fill-rule="evenodd" stroke="#204a87" d="M3.5 1.5h4v4h-4z" color="#000" overflow="visible"/><path fill="#729fcf" fill-rule="evenodd" stroke="#204a87" d="M8.5 10.5h4v4h-4z" color="#000" overflow="visible"/><path fill="#729fcf" fill-rule="evenodd" stroke="#204a87" d="M11.5.5h4v4h-4z" color="#000" overflow="visible"/><path fill="none" stroke="#fff" d="M2.33 11.97C3.8 5.97 4 3.4 5.75 3.63c1.47.18 2.03 8.97 5 8.95 2.4 0 2.4-6.1 2.75-10.08" stroke-linecap="round"/></g></svg>