<svg xmlns="http://www.w3.org/2000/svg" width="16" height="16"><g color="#000"><path d="M1 1h13.02v13.05h-13z" overflow="visible" enable-background="accumulate"/><path fill="#babdb6" d="M2.07 2.04h2.95v1.98H2.07z" overflow="visible" enable-background="accumulate"/><path fill="#babdb6" d="M6 2.04h3.04v1.98H6z" overflow="visible" enable-background="accumulate"/><path fill="#babdb6" d="M10.06 2.04h3.03v1.98h-3.04z" overflow="visible" enable-background="accumulate"/><path fill="#fff" d="M2.07 4.98h2.95v1.98H2.07z" overflow="visible" enable-background="accumulate"/><path fill="#fff" d="M6 4.98h3.04v1.98H6z" overflow="visible" enable-background="accumulate"/><path fill="#fff" d="M10.06 4.98h3.03v1.98h-3.04z" overflow="visible" enable-background="accumulate"/><path fill="#fff" d="M2.07 8.07h2.95v1.98H2.07z" overflow="visible" enable-background="accumulate"/><path fill="#fff" d="M6 8.07h3.04v1.98H6z" overflow="visible" enable-background="accumulate"/><path fill="#fff" d="M10.06 8.07h3.03v1.98h-3.04z" overflow="visible" enable-background="accumulate"/><path fill="#fff" d="M2.07 11.02h2.95V13H2.07z" overflow="visible" enable-background="accumulate"/><path fill="#fff" d="M6 11.02h3.04V13H6z" overflow="visible" enable-background="accumulate"/><path fill="#fff" d="M10.06 11.02h3.03V13h-3.04z" overflow="visible" enable-background="accumulate"/></g></svg>