<svg xmlns="http://www.w3.org/2000/svg" width="16" height="16" xmlns:xlink="http://www.w3.org/1999/xlink"><defs><linearGradient><stop offset="0" stop-color="#fce94f"/><stop offset="1" stop-color="#fff" stop-opacity="0"/></linearGradient><linearGradient id="b"><stop offset="0" stop-color="#fff"/><stop offset="1" stop-color="#cfb900"/></linearGradient><linearGradient id="a"><stop offset="0" stop-color="#c4a000"/><stop offset="1" stop-color="#534400"/></linearGradient><linearGradient id="f" x1="6.412" x2="1.207" y1="1.519" y2="6.632" xlink:href="#a" gradientUnits="userSpaceOnUse"/><linearGradient id="c" x1="10.9" x2="4.334" y1="3.014" y2="9.839" xlink:href="#a" gradientUnits="userSpaceOnUse"/><linearGradient id="e" x1="16.327" x2=".625" y1="9.742" y2="10.177" xlink:href="#a" gradientUnits="userSpaceOnUse"/><radialGradient id="d" cx="8.052" cy="6.595" r="8.5" xlink:href="#b" fx="8.052" fy="6.595" gradientTransform="matrix(1 0 0 .412 0 5.882)" gradientUnits="userSpaceOnUse"/></defs><g><path fill="#edd400" stroke="url(#c)" stroke-width=".983" d="M4.33 14.07L2.93 8.5c0-2.77 2.8-5.55 5.58-5.55l5.57 1.4z"/><path fill="url(#d)" stroke="url(#e)" d="M16 10a8 3 0 1 1-16 0 8 3 0 1 1 16 0z" transform="matrix(.651 -.651 .699 .699 -2.303 8.125)" color="#000" stroke-linecap="round" stroke-linejoin="bevel" overflow="visible" enable-background="accumulate"/><path fill="#fce94f" stroke="url(#f)" stroke-width=".983" d="M.55 5.38c.06-1.9 2.9-4.7 4.9-4.9l2.38 2.34c-1.65.6-4.64 3.1-4.95 4.92z" color="#000" stroke-linecap="round" overflow="visible" enable-background="accumulate"/></g></svg>