<svg xmlns="http://www.w3.org/2000/svg" width="16" height="16"><g><path fill="#d3d7cf" fill-rule="evenodd" d="M0 8h16v8H0z" color="#000" overflow="visible"/><path fill="#eeeeec" fill-rule="evenodd" d="M0 0h16v7.97H0z" color="#000" overflow="visible"/><path fill="none" stroke="#73d216" d="M3.5 1.5v3" stroke-linecap="square"/><path fill="none" stroke="#ef2929" d="M3.1 5L.5 6.5" stroke-linecap="square"/><path fill="none" stroke="#3465a4" d="M3.9 5l2.6 1.5" stroke-linecap="square"/><path fill="#fce94f" fill-rule="evenodd" stroke="#c4a000" stroke-width="1.281" d="M4.63 3.87a1.17 1.4 0 1 1-2.35 0 1.17 1.4 0 1 1 2.35 0z" transform="matrix(.854 0 0 .714 .551 1.741)" color="#000" stroke-linecap="square" overflow="visible"/><path fill="none" stroke="#73d216" d="M3.5 9.5v3" stroke-linecap="square"/><path fill="none" stroke="#ef2929" d="M3.1 13L.5 14.5" stroke-linecap="square"/><path fill="none" stroke="#3465a4" d="M3.9 13l2.6 1.5" stroke-linecap="square"/><path fill="#fce94f" fill-rule="evenodd" stroke="#c4a000" stroke-width="1.281" d="M4.63 3.87a1.17 1.4 0 1 1-2.35 0 1.17 1.4 0 1 1 2.35 0z" transform="matrix(.854 0 0 .714 .551 9.741)" color="#000" stroke-linecap="square" overflow="visible"/></g></svg>