<svg xmlns="http://www.w3.org/2000/svg" width="16" height="16" xmlns:xlink="http://www.w3.org/1999/xlink" version="1"><defs><linearGradient><stop offset="0" stop-color="#d0efff" stop-opacity=".525"/><stop offset="1" stop-color="#fff" stop-opacity="0"/></linearGradient><linearGradient id="c"><stop offset="0" stop-color="#fff"/><stop offset="1" stop-color="#fff" stop-opacity=".258"/></linearGradient><linearGradient id="a"><stop offset="0" stop-opacity=".608"/><stop offset="1" stop-opacity="0"/></linearGradient><linearGradient id="d"><stop offset="0" stop-color="#fff"/><stop offset="1" stop-color="#b8b8b8"/></linearGradient><linearGradient id="b"><stop offset="0" stop-color="#9cbcde"/><stop offset=".6" stop-color="#5e83b2"/><stop offset="1" stop-color="#204a87"/></linearGradient><radialGradient cx="26.517" cy="24.665" r="19.799" xlink:href="#a" gradientUnits="userSpaceOnUse" fx="26.517" fy="24.665"/><radialGradient cx="19.017" cy="20.93" r="22.376" xlink:href="#b" gradientUnits="userSpaceOnUse" gradientTransform="matrix(1.032 -.669 .622 .965 -16.224 11.181)" fx="19.017" fy="20.93"/><linearGradient x1="23.909" x2="23.909" y1=".798" y2="46.853" xlink:href="#c" gradientUnits="userSpaceOnUse"/><radialGradient cx="-19.516" cy="16.856" r="8.754" xlink:href="#d" gradientUnits="userSpaceOnUse" gradientTransform="matrix(4.446 0 0 6.867 67.251 -104.668)" fx="-19.516" fy="16.856"/><radialGradient cx="26.517" cy="24.665" r="19.799" xlink:href="#a" gradientUnits="userSpaceOnUse" fx="26.517" fy="24.665"/><radialGradient cx="19.017" cy="20.93" r="22.376" xlink:href="#b" gradientUnits="userSpaceOnUse" gradientTransform="matrix(1.032 -.669 .622 .965 -16.224 11.181)" fx="19.017" fy="20.93"/><linearGradient x1="23.909" x2="23.909" y1=".798" y2="46.853" xlink:href="#c" gradientUnits="userSpaceOnUse"/><radialGradient cx="-19.516" cy="16.856" r="8.754" xlink:href="#d" gradientUnits="userSpaceOnUse" gradientTransform="matrix(4.446 0 0 6.867 67.251 -104.668)" fx="-19.516" fy="16.856"/><radialGradient cx="19.017" cy="20.93" r="22.376" xlink:href="#b" gradientUnits="userSpaceOnUse" gradientTransform="matrix(1.032 -.669 .622 .965 -16.224 11.181)" fx="19.017" fy="20.93"/><linearGradient x1="23.909" x2="23.909" y1=".798" y2="46.853" xlink:href="#c" gradientUnits="userSpaceOnUse"/><radialGradient cx="-19.516" cy="16.856" r="8.754" xlink:href="#d" gradientUnits="userSpaceOnUse" gradientTransform="matrix(4.446 0 0 6.867 67.251 -104.668)" fx="-19.516" fy="16.856"/><linearGradient x1="23.909" x2="23.909" y1=".798" y2="46.853" xlink:href="#c" gradientUnits="userSpaceOnUse"/><radialGradient cx="19.017" cy="20.93" r="22.376" xlink:href="#b" gradientUnits="userSpaceOnUse" gradientTransform="matrix(1.032 -.669 .622 .965 -16.224 11.181)" fx="19.017" fy="20.93"/><radialGradient cx="-19.516" cy="16.856" r="8.754" xlink:href="#d" gradientUnits="userSpaceOnUse" gradientTransform="matrix(4.446 0 0 6.867 67.251 -104.668)" fx="-19.516" fy="16.856"/><radialGradient cx="-19.516" cy="16.856" r="8.754" xlink:href="#d" gradientUnits="userSpaceOnUse" gradientTransform="matrix(4.446 0 0 6.867 67.251 -104.668)" fx="-19.516" fy="16.856"/><radialGradient id="e" cx="26.517" cy="24.665" r="19.799" xlink:href="#a" gradientUnits="userSpaceOnUse" fx="26.517" fy="24.665"/><radialGradient id="f" cx="19.017" cy="20.93" r="22.376" xlink:href="#b" gradientUnits="userSpaceOnUse" gradientTransform="matrix(1.032 -.669 .622 .965 -16.224 11.181)" fx="19.017" fy="20.93"/><linearGradient id="g" x1="23.909" x2="23.909" y1=".798" y2="46.853" xlink:href="#c" gradientUnits="userSpaceOnUse"/><radialGradient cx="-19.516" cy="16.856" r="8.754" xlink:href="#d" gradientUnits="userSpaceOnUse" gradientTransform="matrix(4.446 0 0 6.867 67.251 -104.668)" fx="-19.516" fy="16.856"/><radialGradient cx="-19.516" cy="16.856" r="8.754" xlink:href="#d" gradientUnits="userSpaceOnUse" gradientTransform="matrix(1.4 0 0 2.146 35.635 -31.582)" fx="-19.516" fy="16.856"/><radialGradient id="h" cx="-19.516" cy="16.856" r="8.754" xlink:href="#d" gradientUnits="userSpaceOnUse" gradientTransform="matrix(1.4 0 0 2.146 35.635 -31.582)" fx="-19.516" fy="16.856"/></defs><g><path fill="url(#e)" fill-rule="evenodd" d="M46.32 24.67a19.8 19.8 0 1 1-39.6 0 19.8 19.8 0 1 1 39.6 0z" transform="matrix(.325 0 0 .12 -.376 10.754)" color="#000" overflow="visible"/><path fill="url(#f)" stroke="#204a87" stroke-width="3.358" d="M45.8 23.83a21.88 21.88 0 1 1-43.77 0 21.88 21.88 0 1 1 43.76 0z" transform="matrix(.299 0 0 .297 .862 -.079)"/><path fill="none" stroke="url(#g)" stroke-width="3.959" d="M45.8 23.83a21.88 21.88 0 1 1-43.77 0 21.88 21.88 0 1 1 43.76 0z" transform="matrix(.254 0 0 .251 1.984 1.01)" opacity=".96"/><path fill="url(#h)" d="M8.1 2.97c-.77 0-1.52.2-2.24.43-.08.56.02 1.15.06 1.68.65-.4 1.4-.75 2.18-.67.4.04.75.4.7.8-.1.62-.7.94-1.12 1.35-.4.36-.74.82-.73 1.38-.02.2-.04.44.24.35.57 0 1.15 0 1.73 0 0-.33.05-.7.32-.92.53-.54 1.25-1 1.46-1.76.22-.73.05-1.63-.6-2.1-.57-.42-1.3-.52-2-.53zm-1.13 6l.04 1.9h1.93l-.04-1.9H6.96z" style="text-align:start;line-height:125%" font-size="34.153" font-weight="bold" font-family="Bitstream Vera Sans"/></g></svg>