<svg xmlns="http://www.w3.org/2000/svg" width="16" height="16" xmlns:xlink="http://www.w3.org/1999/xlink"><defs><linearGradient id="h"><stop offset="0" stop-color="#2e3436"/><stop offset="1" stop-color="#2e3436" stop-opacity="0"/></linearGradient><linearGradient id="g"><stop offset="0" stop-color="#5c686c"/><stop offset="1" stop-color="#2e3436" stop-opacity="0"/></linearGradient><linearGradient id="f"><stop offset="0" stop-color="#2e3436"/><stop offset="1" stop-color="#2e3436" stop-opacity="0"/></linearGradient><linearGradient id="e"><stop offset="0" stop-opacity=".598"/><stop offset="1" stop-opacity="0"/></linearGradient><linearGradient id="b"><stop offset="0" stop-color="#fff"/><stop offset="1" stop-color="#bbb"/></linearGradient><linearGradient id="a"><stop offset="0" stop-color="#888a85"/><stop offset="1" stop-color="#2e3436"/></linearGradient><linearGradient id="d"><stop offset="0" stop-color="#2e3436"/><stop offset="1" stop-color="#2e3436" stop-opacity="0"/></linearGradient><linearGradient id="c"><stop offset="0" stop-color="#2e3436"/><stop offset="1" stop-color="#2e3436" stop-opacity="0"/></linearGradient><linearGradient><stop offset="0" stop-opacity="0"/><stop offset=".5" stop-opacity="0"/><stop offset="1"/></linearGradient><linearGradient><stop offset="0" stop-color="#fff"/><stop offset=".5" stop-color="#ecece9"/><stop offset="1" stop-color="#babab1"/></linearGradient><linearGradient><stop offset="0" stop-color="#eeeeec"/><stop offset="1" stop-color="#eeeeec" stop-opacity="0"/></linearGradient><linearGradient><stop offset="0" stop-color="#79898e"/><stop offset="1" stop-color="#3c4447"/></linearGradient><linearGradient x1="11.668" x2="14.418" y1="10.009" y2="17.051" gradientUnits="userSpaceOnUse"><stop offset="0" stop-color="#5f605d"/><stop offset="1"/></linearGradient><linearGradient x1="1.872" x2="16.492" y1="1.25" y2="4.914" gradientTransform="matrix(.813 0 0 2.54 6.423 3.701)" gradientUnits="userSpaceOnUse"><stop offset="0" stop-color="#fff"/><stop offset="1" stop-color="#acada9"/></linearGradient><linearGradient x1="2.383" x2="13.215" y1="2.682" y2="13.449" xlink:href="#a" gradientUnits="userSpaceOnUse" gradientTransform="translate(-18.245 -1.487)"/><linearGradient x1="7.425" x2="6.686" y1="6.759" y2="8.111" xlink:href="#b" gradientUnits="userSpaceOnUse" gradientTransform="translate(-18.245 -1.487)"/><linearGradient x1="8.803" x2="15.391" y1="8.882" y2="15.324" xlink:href="#c" gradientUnits="userSpaceOnUse"/><linearGradient x1="4.658" x2="3.072" y1="6.874" y2="7.73" xlink:href="#d" gradientUnits="userSpaceOnUse" gradientTransform="matrix(.144 -.99 -.99 -.144 15.248 17.074)"/><linearGradient x1="7.181" x2=".255" y1="6.99" y2=".413" xlink:href="#c" gradientUnits="userSpaceOnUse"/><linearGradient x1="4.658" x2="3.072" y1="6.874" y2="7.73" xlink:href="#d" gradientUnits="userSpaceOnUse" gradientTransform="translate(-.225 .135)"/><radialGradient cx="16.218" cy="14.468" r="10.519" xlink:href="#e" gradientUnits="userSpaceOnUse" gradientTransform="translate(-27.084 -6.974)" fx="16.218" fy="14.468"/><linearGradient id="l" x1="7.425" x2="6.686" y1="6.759" y2="8.111" xlink:href="#b" gradientUnits="userSpaceOnUse" gradientTransform="translate(-5.906 -6.076)"/><linearGradient id="j" x1="-3.654" x2="6.683" y1="-3.445" y2="7.232" xlink:href="#a" gradientUnits="userSpaceOnUse" gradientTransform="translate(6.527 6.042)"/><linearGradient id="i" x1="-1.54" x2="4.118" y1="-3.692" y2="7.75" xlink:href="#b" gradientUnits="userSpaceOnUse" gradientTransform="translate(6.527 6.042)"/><linearGradient id="m" x1="4.672" x2="-.662" y1="4.648" y2="-.578" xlink:href="#f" gradientUnits="userSpaceOnUse"/><linearGradient id="o" x1="11.384" x2="16.502" y1="11.315" y2="16.586" xlink:href="#g" gradientUnits="userSpaceOnUse"/><linearGradient id="k" x1="2.807" x2="2.252" y1="6.224" y2="6.99" xlink:href="#h" gradientUnits="userSpaceOnUse"/><linearGradient id="n" x1="2.807" x2="2.252" y1="6.224" y2="6.99" xlink:href="#h" gradientUnits="userSpaceOnUse" gradientTransform="matrix(-.02 -1 -1 .02 16.033 16.028)"/></defs><g fill-rule="evenodd"><path fill="#2e3436" fill-opacity=".568" d="M10.15 4.53c-2.1-2.1-5.47-2.22-7.52-.16l-.04.03C.53 6.46.63 9.87 2.73 11.98l2.33 2.35c2.1 2.1 5.5 2.2 7.54.14l.04-.03c2.05-2.07 1.94-5.46-.16-7.57l-2.33-2.34zM8.7 5.97l2.35 2.35c1.36 1.37 1.4 3.43.16 4.67l-.03.03c-1.24 1.24-3.3 1.23-4.66-.15l-2.33-2.34C2.8 9.17 2.8 7.1 4.03 5.84l.03-.03c1.24-1.24 3.3-1.2 4.65.17z" color="#000" overflow="visible"/><path fill="url(#i)" stroke="url(#j)" d="M10.58 3.15C8.48 1.05 5.1.93 3.06 3L3.02 3C.97 5.08 1.07 8.5 3.17 10.6l2.33 2.35c2.1 2.1 5.5 2.2 7.53.14l.04-.04C15.12 11 15 7.6 12.9 5.5L10.6 3.15zM9.14 4.6l2.33 2.34c1.37 1.37 1.4 3.43.17 4.67l-.04.05c-1.24 1.24-3.3 1.23-4.67-.14L4.6 9.17C3.24 7.8 3.22 5.7 4.46 4.46l.03-.03c1.23-1.24 3.28-1.2 4.64.16z" color="#000" stroke-linecap="round" overflow="visible"/><path fill="url(#k)" d="M1.9 3.52L4.4 6.1c-.27.57-.2 1.57.1 2.24L1.13 6.5c-.1-.5.28-2.08.76-2.98z"/><path fill="url(#l)" stroke="url(#m)" d="M-3.44-1.37l8.87 8.74c.97.83 2.72-.96 1.8-1.93L-1.65-3.3c-.9-.83-2.72.93-1.8 1.93z" stroke-linecap="round"/><path fill="url(#n)" d="M12.47 14.2l-2.6-2.46c-.6.3-1.6.24-2.27-.05l1.92 3.33c.5.1 2.06-.32 2.95-.82z"/><path fill="url(#l)" stroke="url(#o)" d="M9 10.75l8.86 8.74c.97.82 2.72-.97 1.8-1.94L10.8 8.82C9.86 8 8.05 9.75 9 10.75z" stroke-linecap="round" color="#000" overflow="visible"/></g></svg>