<svg xmlns="http://www.w3.org/2000/svg" width="16" height="16" xmlns:xlink="http://www.w3.org/1999/xlink"><defs><linearGradient><stop offset="0" stop-color="#d3d7cf"/><stop offset="1" stop-color="#888a85"/></linearGradient><linearGradient id="f"><stop offset="0" stop-color="#2e3436" stop-opacity=".691"/><stop offset="1" stop-color="#2e3436" stop-opacity="0"/></linearGradient><linearGradient id="e"><stop offset="0" stop-color="#2e3436"/><stop offset="1" stop-color="#2e3436" stop-opacity="0"/></linearGradient><linearGradient id="d"><stop offset="0" stop-color="#a1a1a1"/><stop offset="1" stop-color="#204a87"/></linearGradient><linearGradient id="c"><stop offset="0" stop-color="#ef2929"/><stop offset="1" stop-color="#a40000"/></linearGradient><linearGradient id="b"><stop offset="0" stop-color="#888a85"/><stop offset="1" stop-color="#2e3436"/></linearGradient><linearGradient id="a"><stop offset="0" stop-color="#fce94f"/><stop offset="1" stop-color="#c4a000"/></linearGradient><linearGradient x1="5.051" x2="9.949" y1="1.118" y2="3.882" xlink:href="#a" gradientUnits="userSpaceOnUse"/><linearGradient x1="4" x2="11" y2="4.843" xlink:href="#b" gradientUnits="userSpaceOnUse"/><linearGradient x2="7" y1="10" y2="15" xlink:href="#b" gradientUnits="userSpaceOnUse"/><linearGradient x1="8" x2="15" y1="7" y2="12" xlink:href="#b" gradientUnits="userSpaceOnUse"/><linearGradient x1="1.057" x2="5.954" y1="11.089" y2="13.943" xlink:href="#c" gradientUnits="userSpaceOnUse"/><linearGradient x1="9.046" x2="14.033" y1="8.086" y2="11.089" xlink:href="#d" gradientUnits="userSpaceOnUse"/><radialGradient cx="6.397" cy="5.158" r="3" xlink:href="#e" fx="6.397" fy="5.158" gradientTransform="matrix(1.333 0 0 1 -.529 -2.158)" gradientUnits="userSpaceOnUse"/><linearGradient x1="13.785" x2="6.351" y1="7.141" y2="2.321" xlink:href="#f" gradientUnits="userSpaceOnUse"/><linearGradient x1="13.785" x2="6.351" y1="7.141" y2="2.321" xlink:href="#f" gradientUnits="userSpaceOnUse" gradientTransform="translate(-4 10)"/><linearGradient x1="13.785" x2="6.351" y1="7.141" y2="2.321" xlink:href="#f" gradientUnits="userSpaceOnUse" gradientTransform="translate(3.927 7)"/><linearGradient x1="13.785" x2="6.351" y1="7.141" y2="2.321" xlink:href="#f" gradientUnits="userSpaceOnUse" gradientTransform="translate(3.927 7)"/><linearGradient x1="9.046" x2="14.033" y1="8.086" y2="11.089" xlink:href="#d" gradientUnits="userSpaceOnUse"/><linearGradient x1="8" x2="15" y1="7" y2="12" xlink:href="#b" gradientUnits="userSpaceOnUse"/><linearGradient x1="13.785" x2="6.351" y1="7.141" y2="2.321" xlink:href="#f" gradientUnits="userSpaceOnUse" gradientTransform="translate(3.927 7)"/><linearGradient x1="9.046" x2="14.033" y1="8.086" y2="11.089" xlink:href="#d" gradientUnits="userSpaceOnUse"/><linearGradient x1="8" x2="15" y1="7" y2="12" xlink:href="#b" gradientUnits="userSpaceOnUse"/><linearGradient id="g" x1="8" x2="15" y1="7" y2="12" xlink:href="#b" gradientUnits="userSpaceOnUse" gradientTransform="translate(-4 -7)"/><linearGradient x1="13.785" x2="6.351" y1="7.141" y2="2.321" xlink:href="#f" gradientUnits="userSpaceOnUse" gradientTransform="translate(-.073)"/><linearGradient x1="13.785" x2="6.351" y1="7.141" y2="2.321" xlink:href="#f" gradientUnits="userSpaceOnUse" gradientTransform="translate(-4.073 10)"/><linearGradient id="h" x1="8" x2="15" y1="7" y2="12" xlink:href="#b" gradientUnits="userSpaceOnUse" gradientTransform="translate(-8 4)"/><linearGradient x1="13.785" x2="6.351" y1="7.141" y2="2.321" xlink:href="#f" gradientUnits="userSpaceOnUse" gradientTransform="translate(3.927 9)"/><linearGradient id="i" x1="8" x2="15" y1="7" y2="12" xlink:href="#b" gradientUnits="userSpaceOnUse" gradientTransform="translate(1 2)"/></defs><g><path fill="none" stroke="#4e9a06" d="M7.45 5c0 6.3-3.94-.2-3.94 6.08"/><path fill="none" stroke="#4e9a06" d="M7.5 5c0 4.9 5 .56 5 4"/><path fill="#eeeeec" stroke="url(#g)" d="M4.5.5h6v4h-6z" color="#000" stroke-linecap="round" stroke-linejoin="round" overflow="visible"/><path fill="none" stroke="#fff" d="M5.5 1.5h4v2h-4z" color="#000" stroke-linecap="round" overflow="visible"/><path fill="#eeeeec" stroke="url(#h)" d="M.5 11.5h6v4h-6z" color="#000" stroke-linecap="round" stroke-linejoin="round" overflow="visible"/><path fill="none" stroke="#fff" d="M1.5 12.5h4v2h-4z" color="#000" stroke-linecap="round" overflow="visible"/><path fill="#eeeeec" stroke="url(#i)" d="M9.5 9.5h6v4h-6z" color="#000" stroke-linecap="round" stroke-linejoin="round" overflow="visible"/><path fill="none" stroke="#fff" d="M10.5 10.5h4v2h-4z" color="#000" stroke-linecap="round" overflow="visible"/></g></svg>