<svg xmlns="http://www.w3.org/2000/svg" width="16" height="16" xmlns:xlink="http://www.w3.org/1999/xlink"><defs><linearGradient id="a"><stop offset="0" stop-color="#5c5c5c"/><stop offset="1" stop-color="#2e3436"/></linearGradient><linearGradient id="h" x1="4.722" x2="12.88" y1="3" y2="10" xlink:href="#a" gradientUnits="userSpaceOnUse" gradientTransform="translate(-3 3)"/><linearGradient id="b"><stop offset="0" stop-color="#fff"/><stop offset="1" stop-color="#999e93"/></linearGradient><linearGradient id="g" x1="4.001" x2="12.039" y1="3.5" y2="3.5" xlink:href="#b" gradientUnits="userSpaceOnUse" gradientTransform="translate(-3 6)"/><linearGradient id="c"><stop offset="0" stop-color="#2e3436"/><stop offset="1" stop-color="#aeaeae"/></linearGradient><linearGradient id="f" x1="6" x2="10" y1="8" y2="8" xlink:href="#c" gradientUnits="userSpaceOnUse" gradientTransform="matrix(.667 0 0 1 -1.833 0)"/><linearGradient id="d"><stop offset="0" stop-color="#99a28f"/><stop offset="1" stop-color="#fff"/></linearGradient><linearGradient id="e" x1="6.981" x2="8.999" y1="11" y2="11" xlink:href="#d" gradientUnits="userSpaceOnUse" gradientTransform="matrix(.667 0 0 1.667 -1.833 -10.333)"/><linearGradient id="i" x1="6.981" x2="8.999" y1="11" y2="11" xlink:href="#d" gradientUnits="userSpaceOnUse" gradientTransform="matrix(.667 0 0 1.667 6.167 -10.333)"/><linearGradient id="j" x1="6" x2="10" y1="8" y2="8" xlink:href="#c" gradientUnits="userSpaceOnUse" gradientTransform="matrix(.667 0 0 1 6.167 0)"/><linearGradient id="k" x1="4.001" x2="12.039" y1="3.5" y2="3.5" xlink:href="#b" gradientUnits="userSpaceOnUse" gradientTransform="translate(4 2)"/><linearGradient id="l" x1="4.722" x2="12.88" y1="3" y2="10" xlink:href="#a" gradientUnits="userSpaceOnUse" gradientTransform="translate(4 -1)"/></defs><g fill-rule="evenodd" color="#000"><path fill="url(#e)" stroke="url(#f)" d="M2.5.5h2v15h-2z" stroke-linecap="round" overflow="visible"/><path fill-opacity=".251" d="M1 9h7v4H1z" overflow="visible"/><path fill="url(#g)" stroke="url(#h)" d="M1.78 6.5L.5 8.02v3.46h5.85V8L5.07 6.5h-3.3z" stroke-linecap="round" overflow="visible"/><path fill="#eeeeec" d="M2 7h3v3H2z" overflow="visible"/><path fill-opacity=".251" d="M2 12h3v2H2z" overflow="visible"/><path fill="url(#i)" stroke="url(#j)" d="M10.5.5h2v15h-2z" stroke-linecap="round" overflow="visible"/><path fill-opacity=".251" d="M9 5h7v4H9z" overflow="visible"/><path fill="url(#k)" stroke="url(#l)" d="M9.7 2.5L8.44 4.02v3.46h6.1V4l-1.3-1.5H9.72z" stroke-linecap="round" overflow="visible"/><path fill="#eeeeec" d="M10 3h3v3h-3z" overflow="visible"/><path fill-opacity=".251" d="M10 8h3v2h-3z" overflow="visible"/></g></svg>