<svg xmlns="http://www.w3.org/2000/svg" width="16" height="16"><g fill-rule="evenodd" color="#000"><path fill="#eeeeec" d="M0 0h16v4H0z" overflow="visible"/><path fill="#fcaf3e" stroke="#ce5c00" d="M1.5.5h2v2h-2z" stroke-linecap="square" overflow="visible"/><path fill="#d3d7cf" d="M0 4h16v4H0z" overflow="visible"/><path fill="#eeeeec" d="M0 8h16v4H0z" overflow="visible"/><path fill="#d3d7cf" d="M0 12h16v3.97H0z" overflow="visible"/><path fill="#fcaf3e" stroke="#ce5c00" d="M6.5 4.5h2v2h-2z" stroke-linecap="square" overflow="visible"/><path fill="#fcaf3e" stroke="#ce5c00" d="M11.5 8.5h2v2h-2z" stroke-linecap="square" overflow="visible"/><path fill="#fcaf3e" stroke="#ce5c00" d="M6.5 12.5h2v2h-2z" stroke-linecap="square" overflow="visible"/><path d="M3 3.5a.5.5 0 1 1-1 0 .5.5 0 1 1 1 0z" overflow="visible"/><path d="M3 5.5a.5.5 0 1 1-1 0 .5.5 0 1 1 1 0z" overflow="visible"/><path d="M5 5.5a.5.5 0 1 1-1 0 .5.5 0 1 1 1 0z" overflow="visible"/><path d="M3 7.5a.5.5 0 1 1-1 0 .5.5 0 1 1 1 0z" overflow="visible"/><path d="M3 9.5a.5.5 0 1 1-1 0 .5.5 0 1 1 1 0z" overflow="visible"/><path d="M8 9.5a.5.5 0 1 1-1 0 .5.5 0 1 1 1 0z" overflow="visible"/><path d="M3 11.5a.5.5 0 1 1-1 0 .5.5 0 1 1 1 0z" overflow="visible"/><path d="M3 13.5a.5.5 0 1 1-1 0 .5.5 0 1 1 1 0z" overflow="visible"/><path d="M5 13.5a.5.5 0 1 1-1 0 .5.5 0 1 1 1 0z" overflow="visible"/><path d="M8 7.5a.5.5 0 1 1-1 0 .5.5 0 1 1 1 0z" overflow="visible"/><path d="M10 9.5a.5.5 0 1 1-1 0 .5.5 0 1 1 1 0z" overflow="visible"/></g></svg>