<svg xmlns="http://www.w3.org/2000/svg" width="48" height="48" xmlns:xlink="http://www.w3.org/1999/xlink"><defs><linearGradient id="a"><stop offset="0" stop-color="#a40000"/><stop offset="1" stop-color="#a40000" stop-opacity="0"/></linearGradient><linearGradient id="e" x1="295.672" x2="320.725" y1="118.362" y2="118.362" gradientUnits="userSpaceOnUse"><stop offset="0" stop-color="#FAAF3E"/><stop offset="1" stop-color="#F62724"/></linearGradient><linearGradient id="d" x1="-9.052" x2="10.961" y1="-686.956" y2="-686.956" gradientTransform="matrix(.902 -.431 .431 .902 602.727 738.907)" gradientUnits="userSpaceOnUse"><stop offset="0" stop-color="#E86712"/><stop offset=".622" stop-color="#D52E0C"/><stop offset="1" stop-color="#CB1009"/></linearGradient><radialGradient id="f" cx="-5.435" cy="-725.132" r="9.854" gradientUnits="userSpaceOnUse" gradientTransform="matrix(.897 -.431 .431 .897 325.84 678.075)" fy="-725.132" fx="-5.435"><stop offset=".346" stop-color="#C41917"/><stop offset=".972" stop-color="#fff" stop-opacity="0"/></radialGradient><radialGradient id="g" cx="-6.506" cy="-728" r="6.305" gradientUnits="userSpaceOnUse" gradientTransform="matrix(.897 -.431 .431 .897 325.84 678.075)" fy="-728" fx="-6.506"><stop offset=".363" stop-color="#8893A0"/><stop offset=".927" stop-color="#fff"/></radialGradient><linearGradient id="h" x1="23.999" x2="37.264" y1="-731.234" y2="-731.234" gradientTransform="matrix(.897 -.431 .431 .897 325.84 678.075)" gradientUnits="userSpaceOnUse"><stop offset="0" stop-color="#fff" stop-opacity="0"/><stop offset="1" stop-color="#D9B06C"/></linearGradient><radialGradient id="i" cx="14.642" cy="-923.506" r="10.568" gradientUnits="userSpaceOnUse" gradientTransform="matrix(.968 .234 -.234 .968 -190.448 894.676)" fy="-923.506" fx="14.642"><stop offset="0" stop-color="#E8C58B"/><stop offset=".636" stop-color="#F7EBD8"/><stop offset="1" stop-color="#fff"/></radialGradient><radialGradient id="j" cx="19.55" cy="-919.538" r="5.861" gradientUnits="userSpaceOnUse" gradientTransform="matrix(.968 .234 -.234 .968 -190.448 894.676)" fy="-919.538" fx="19.55"><stop offset=".006" stop-color="#BF995A"/><stop offset=".274" stop-color="#D6B175"/><stop offset=".531" stop-color="#E8C58B"/><stop offset=".829" stop-color="#F7EBD8"/><stop offset="1" stop-color="#fff"/></radialGradient><linearGradient id="k" x1=".032" x2="7.034" y1="-737.753" y2="-722.289" gradientTransform="matrix(.897 -.431 .431 .897 325.84 678.075)" gradientUnits="userSpaceOnUse"><stop offset=".006" stop-color="#fff"/><stop offset=".352" stop-color="#BF9256"/><stop offset=".693" stop-color="#8F6A39"/><stop offset="1" stop-color="#735328"/></linearGradient><linearGradient id="p" x1="1.082" x2="1.082" y1="-729.662" y2="-732.548" gradientTransform="matrix(.897 -.431 .431 .897 325.84 678.075)" gradientUnits="userSpaceOnUse"><stop offset="0" stop-color="#ED2728"/><stop offset=".246" stop-color="#A40E0A"/><stop offset=".413" stop-color="#A40E0A"/><stop offset=".665" stop-color="#C41917"/><stop offset=".838" stop-color="#E87676"/><stop offset=".877" stop-color="#E87676"/><stop offset="1" stop-color="#ED2728"/></linearGradient><radialGradient id="l" cx="-.524" cy="-724.682" r="9.851" gradientUnits="userSpaceOnUse" gradientTransform="matrix(.897 -.431 .431 .897 325.84 678.075)" fy="-724.682" fx="-.524"><stop offset="0" stop-color="#ED2728"/><stop offset=".508" stop-color="#A40E0A"/><stop offset=".659" stop-color="#A40E0A"/><stop offset=".816" stop-color="#C41917"/><stop offset=".972" stop-color="#fff"/><stop offset=".979" stop-color="#FFFDFD"/><stop offset=".983" stop-color="#FEF4F4"/><stop offset=".986" stop-color="#FDE6E6"/><stop offset=".989" stop-color="#FBD2D2"/><stop offset=".992" stop-color="#F9B8B8"/><stop offset=".994" stop-color="#F69898"/><stop offset=".997" stop-color="#F37272"/><stop offset=".999" stop-color="#F04748"/><stop offset="1" stop-color="#ED2728"/></radialGradient><radialGradient id="m" cx="-2.759" cy="-727.998" r="6.305" gradientUnits="userSpaceOnUse" gradientTransform="matrix(.897 -.431 .431 .897 325.84 678.075)" fy="-727.998" fx="-2.759"><stop offset="0" stop-color="#B8C7D9"/><stop offset=".369" stop-color="#77818C"/><stop offset=".559" stop-color="#77818C"/><stop offset=".71" stop-color="#8893A0"/><stop offset=".905" stop-color="#fff"/><stop offset=".933" stop-color="#FDFDFD"/><stop offset=".95" stop-color="#F4F5F6"/><stop offset=".963" stop-color="#E6E8EB"/><stop offset=".975" stop-color="#D2D6DB"/><stop offset=".986" stop-color="#B8BFC6"/><stop offset=".996" stop-color="#98A2AD"/><stop offset="1" stop-color="#8893A0"/></radialGradient><linearGradient id="c" x1="13.962" x2="13.962" y1="-734.067" y2="-728.136" gradientTransform="matrix(.901 -.433 .433 .901 618.383 763.82)" gradientUnits="userSpaceOnUse"><stop offset="0" stop-color="#8F6A39"/><stop offset=".29" stop-color="#F7F5F1"/><stop offset=".821" stop-color="#735328"/><stop offset="1" stop-color="#8F6A39"/></linearGradient><linearGradient id="b" x1="13.962" x2="13.962" y1="-734.067" y2="-728.136" gradientTransform="matrix(.901 -.433 .433 .901 618.383 763.82)" gradientUnits="userSpaceOnUse"><stop offset="0" stop-color="#8F6A39"/><stop offset=".031" stop-color="#A07843"/><stop offset=".075" stop-color="#B1874E"/><stop offset=".122" stop-color="#BC8F54"/><stop offset=".179" stop-color="#BF9256"/><stop offset=".458" stop-color="#8F6A39"/><stop offset=".71" stop-color="#735328"/><stop offset=".821" stop-color="#735328"/><stop offset="1" stop-color="#8F6A39"/></linearGradient><linearGradient id="q" x1="-.331" x2="-.331" y1="-729.664" y2="-732.548" gradientTransform="matrix(.897 -.431 .431 .897 325.84 678.075)" gradientUnits="userSpaceOnUse"><stop offset="0" stop-color="#ED2728"/><stop offset=".246" stop-color="#A40E0A"/><stop offset=".413" stop-color="#A40E0A"/><stop offset=".665" stop-color="#C41917"/><stop offset=".838" stop-color="#E87676"/><stop offset=".877" stop-color="#E87676"/><stop offset="1" stop-color="#ED2728"/></linearGradient><radialGradient id="t" cx="33.691" cy="11.567" r="2.788" xlink:href="#a" fx="33.691" fy="11.567" gradientTransform="matrix(2.647 0 0 2.298 -55.64 -15.528)" gradientUnits="userSpaceOnUse"/><radialGradient id="s" cx="33.691" cy="16.123" r="2.655" xlink:href="#a" fx="33.691" fy="16.123" gradientTransform="matrix(2.78 0 0 2.413 -60.121 -27.857)" gradientUnits="userSpaceOnUse"/><radialGradient id="r" cx="33.691" cy="13.766" r="1.757" xlink:href="#a" fx="33.691" fy="13.766" gradientTransform="matrix(4.201 0 0 3.647 -107.997 -39.15)" gradientUnits="userSpaceOnUse"/><linearGradient id="n" x1="13.962" x2="13.962" y1="-734.067" y2="-728.136" xlink:href="#b" gradientUnits="userSpaceOnUse" gradientTransform="matrix(.901 -.433 .433 .901 618.383 763.82)"/><linearGradient id="o" x1="13.962" x2="13.962" y1="-734.067" y2="-728.136" xlink:href="#c" gradientUnits="userSpaceOnUse" gradientTransform="matrix(.901 -.433 .433 .901 618.383 763.82)"/></defs><g><g transform="matrix(.995 0 0 .995 -292.826 -78.218)"><linearGradient x1="-9.052" x2="10.961" y1="-686.956" y2="-686.956" gradientTransform="matrix(.902 -.431 .431 .902 602.727 738.907)" gradientUnits="userSpaceOnUse"><stop offset="0" stop-color="#E86712"/><stop offset=".622" stop-color="#D52E0C"/><stop offset="1" stop-color="#CB1009"/></linearGradient><path fill="url(#d)" stroke="#590b08" stroke-width=".502" d="M298.35 126.58l13.33-6.36 2.06 4.3 7.4-12.4-14.32-2.06 2.06 4.3-13.32 6.37"/><g><linearGradient x1="295.672" x2="320.725" y1="118.362" y2="118.362" gradientUnits="userSpaceOnUse"><stop offset="0" stop-color="#FAAF3E"/><stop offset="1" stop-color="#F62724"/></linearGradient><path fill="url(#e)" d="M309.22 114.5c-.58.27-13.55 6.46-13.55 6.46l.3.63 14.18-6.78s-1.3-2.72-1.7-3.57c1.15.17 10.97 1.58 11.14 1.6-.46.75-5.22 8.76-5.77 9.67-.4-.84-1.7-3.57-1.7-3.57l-14.18 6.77.3.63s12.96-6.18 13.55-6.46c.25.52 1.96 4.1 1.96 4.1l6.97-11.7-13.48-1.93s1.7 3.6 1.97 4.12z"/></g></g><path fill="url(#f)" d="M6.34 27.56c-.3.36-.18 1.55.08 2.1.7 1.46 1.8 1.63 2.1 2.2.2.44-.66 1.67-2.7 2.65-2.05 1-3.56.87-3.76.46-.3-.63-2.23-3.57-2.05-6.3.2-2.75 2.4-5.98 3.7-6.6l2.64 5.5z"/><path fill="url(#g)" d="M7.4 26.33c-.34.98-.8.8-1.06 1.23l-2.63-5.5c.5.06.64-.4 1.62-.06.36.12.88.76 1.45 1.96.58 1.2.78 1.94.63 2.37z"/><path fill="url(#h)" d="M33.46 13.47s3.45-2.46 9.42-2.13l1.1-4.25C36.12 5.77 31.6 9.8 31.6 9.8c.3-.14.94.26 1.58 1.5.6 1.2.57 2.02.28 2.17z"/><path fill="url(#i)" d="M43.12 11.37c-.32-.08-.54-.88-.23-2.16.32-1.36.86-1.9 1.18-1.82.32.08.55.8.22 2.16-.3 1.3-.87 1.9-1.18 1.83z"/><path fill="url(#j)" d="M43.12 11.37s2.7.84 3.07.93c.34.1.96-.58 1.3-1.98.35-1.5.1-2.28-.26-2.37-.36-.08-3.16-.57-3.16-.57.32.08.55.8.22 2.17-.3 1.28-.87 1.9-1.18 1.82z"/><path fill="none" stroke="#665130" stroke-width=".7" d="M43.12 11.37s2.7.84 3.07.93c.34.1.96-.58 1.3-1.98.35-1.5.1-2.28-.26-2.37-.36-.08-3.16-.57-3.16-.57-.32-.08-.86.46-1.2 1.83-.3 1.3-.08 2.1.24 2.17z"/><path fill="none" stroke="#f00" stroke-width=".25" d="M9.7 25.94c-.3.36-.18 1.55.08 2.1.7 1.46 1.8 1.63 2.1 2.2.2.45-.66 1.67-2.7 2.65-2.05.98-3.56.85-3.75.44-.3-.63-2.24-3.56-2.05-6.28.2-2.77 2.38-6 3.7-6.62"/><path fill="url(#k)" d="M14.25 20.4c.7 1.43.96 2.72.62 2.9-.35.15-1.18-.87-1.87-2.3-.18-.37-1.22-2.6-.62-2.9.35-.16 1.18.87 1.87 2.3z"/><path fill="none" stroke="#f00" stroke-width=".25" d="M10.77 24.72c-.35.97-.8.8-1.06 1.22l-2.63-5.5c.48.06.63-.4 1.6-.06.37.13.88.77 1.46 1.97s.78 1.94.64 2.37z"/><path fill="none" stroke="#555753" stroke-width=".8" d="M20.1 20.9c2.23 2.84 5.42 5.42 11.4 2.02 6.06-3.46 3.26-14 11.95-13.63"/><path fill="url(#l)" d="M9.7 25.94c-.3.36-.18 1.55.08 2.1.7 1.46 1.82 1.63 2.1 2.2.2.45-.66 1.67-2.7 2.65-2.05.97-3.56.85-3.75.44-.3-.63-2.24-3.56-2.05-6.28.2-2.77 2.38-6 3.7-6.62l2.63 5.5z"/><path fill="url(#m)" d="M10.77 24.72c-.35.97-.8.8-1.06 1.22l-2.63-5.5c.48.06.64-.4 1.6-.06.37.13.9.76 1.46 1.97.58 1.2.78 1.94.64 2.37z"/><g transform="matrix(.995 0 0 .995 -289.754 -82.289)"><linearGradient x1="13.962" x2="13.962" y1="-734.067" y2="-728.136" gradientTransform="matrix(.901 -.433 .433 .901 618.383 763.82)" gradientUnits="userSpaceOnUse"><stop offset="0" stop-color="#8F6A39"/><stop offset=".031" stop-color="#A07843"/><stop offset=".075" stop-color="#B1874E"/><stop offset=".122" stop-color="#BC8F54"/><stop offset=".179" stop-color="#BF9256"/><stop offset=".458" stop-color="#8F6A39"/><stop offset=".71" stop-color="#735328"/><stop offset=".821" stop-color="#735328"/><stop offset="1" stop-color="#8F6A39"/></linearGradient><path fill="url(#n)" d="M306 106.06c.35-.17.07-1.47-.62-2.9-.7-1.44-1.53-2.48-1.88-2.3l17.76-8.53c2.54-1.22 5.02 4 2.42 5.24l-17.68 8.5z"/><linearGradient x1="13.962" x2="13.962" y1="-734.067" y2="-728.136" gradientTransform="matrix(.901 -.433 .433 .901 618.383 763.82)" gradientUnits="userSpaceOnUse"><stop offset="0" stop-color="#8F6A39"/><stop offset=".011" stop-color="#9E7E54"/><stop offset=".032" stop-color="#B8A081"/><stop offset=".053" stop-color="#CEBDA8"/><stop offset=".075" stop-color="#E0D5C7"/><stop offset=".098" stop-color="#EDE8E0"/><stop offset=".122" stop-color="#F7F5F1"/><stop offset=".148" stop-color="#FDFCFC"/><stop offset=".179" stop-color="#fff"/><stop offset=".458" stop-color="#8F6A39"/><stop offset=".71" stop-color="#735328"/><stop offset=".821" stop-color="#735328"/><stop offset="1" stop-color="#8F6A39"/></linearGradient><path fill="url(#o)" d="M306 106.06c.35-.17.07-1.47-.62-2.9-.7-1.44-1.53-2.48-1.88-2.3l17.76-8.53c2.54-1.22 5.02 4 2.42 5.24l-17.68 8.5z" opacity=".5"/></g><path fill="#fcaf3e" d="M28.2 16.9c1.82-.88-.66-6.08-2.43-5.22l.84-.4c1.8-.86 4.26 4.33 2.45 5.2l-.84.4z"/><path fill="#fcaf3e" d="M24.7 18.57c1.53-.73-.95-5.93-2.44-5.2l.83-.4c1.48-.73 3.96 4.47 2.43 5.2l-.83.4z"/><path fill="none" stroke="#59360a" stroke-width=".7" d="M14.87 23.3l17.6-8.46c2.58-1.24.1-6.43-2.42-5.22L12.38 18.1c-.6.3.44 2.53.62 2.9.7 1.43 1.52 2.46 1.87 2.3"/><path fill="url(#p)" d="M13.93 22.1l-3.26 1.56-1.23-2.54 3.27-1.57c.17-.07.58.43.92 1.13.33.7.47 1.34.3 1.42z"/><path fill="#fff" stroke="#59360a" stroke-width=".7" d="M15.04 17.33c-.23-.1-.42-.3-.54-.54-.27-.57-.03-1.25.53-1.52s1.24-.03 1.5.53c.12.26.14.53.08.77l-1.56.76z"/><path fill="url(#q)" d="M10.17 20.77c.17-.08.57.43.9 1.13.35.7.5 1.33.32 1.4l-.73.36-1.23-2.54.73-.35z"/><path fill="none" stroke="#590805" stroke-width=".7" d="M9.44 21.12l3.27-1.57"/><path fill="none" stroke="#590805" stroke-width=".7" d="M13.93 22.1l-3.26 1.56"/><path fill="none" stroke="url(#r)" d="M33.34 9.12l2.5-3.98"/><path fill="none" stroke="url(#s)" d="M34.04 10.55l4.3-1.92"/><path fill="none" stroke="url(#t)" d="M34.77 12.6l4.55 1.18"/><path fill="none" stroke="#4c5259" stroke-width=".7" d="M7.07 20.44c.38-.3 1-.25 1.6-.06.37.1.9.76 1.46 1.97.58 1.2.78 1.94.64 2.37-.35.97-.8.8-1.06 1.22"/><path fill="none" stroke="#590805" stroke-width=".7" d="M9.7 25.94c-.3.36-.18 1.55.08 2.1.7 1.46 1.82 1.63 2.1 2.2.2.45-.66 1.67-2.7 2.65-2.05.97-3.56.85-3.75.44-.3-.63-2.24-3.56-2.05-6.28.2-2.77 2.38-6 3.7-6.62"/></g></svg>