<svg xmlns="http://www.w3.org/2000/svg" width="48" height="48"><defs><radialGradient cx="14.759" cy="173.233" r="20.816" gradientUnits="userSpaceOnUse" gradientTransform="matrix(2.319 -.546 .023 .327 -29.195 -3.588)" fy="173.233" fx="14.759"><stop offset="0" stop-color="#676f76"/><stop offset="1" stop-color="#fff" stop-opacity="0"/></radialGradient><linearGradient x1="-16.576" x2="-43.303" y1="-112.343" y2="-67.684" gradientTransform="matrix(.966 .259 -.259 .966 29.153 118.347)" gradientUnits="userSpaceOnUse"><stop offset=".006" stop-color="#FCFDFD"/><stop offset=".59" stop-color="#fff"/><stop offset=".865" stop-color="#DCE5E8"/><stop offset=".91" stop-color="#fff"/><stop offset="1" stop-color="#fff"/></linearGradient><linearGradient x1="-19.776" x2="-33.969" y1="-112.929" y2="-81.227" gradientTransform="matrix(.966 .259 -.259 .966 29.153 118.347)" gradientUnits="userSpaceOnUse"><stop offset="0" stop-color="#A7C1D5"/><stop offset=".343" stop-color="#CFD9DE"/><stop offset=".871" stop-color="#8196A6"/><stop offset="1" stop-color="#8DA2B2"/></linearGradient><linearGradient x1="-38.447" x2="-36.153" y1="-85.105" y2="-60.733" gradientTransform="matrix(.966 .259 -.259 .966 29.153 118.347)" gradientUnits="userSpaceOnUse"><stop offset=".006" stop-color="#647380"/><stop offset=".528" stop-color="#798B99"/><stop offset="1" stop-color="#C2D0D6"/></linearGradient><linearGradient x1="-15.086" x2="-12.835" y1="-115.149" y2="-108.492" gradientTransform="matrix(.966 .259 -.259 .966 29.153 118.347)" gradientUnits="userSpaceOnUse"><stop offset="0" stop-color="#8CA0B2"/><stop offset="1" stop-color="#505D66"/></linearGradient><linearGradient x1="-14.521" x2="-34.002" y1="-110.934" y2="-75.682" gradientTransform="matrix(.966 .259 -.259 .966 29.153 118.347)" gradientUnits="userSpaceOnUse"><stop offset="0" stop-color="#8294A6"/><stop offset="1" stop-color="#505D66"/></linearGradient><linearGradient x1="-21.218" x2="-20.694" y1="-106.789" y2="-111.928" gradientTransform="matrix(.966 .259 -.259 .966 29.153 118.347)" gradientUnits="userSpaceOnUse"><stop offset="0" stop-color="#A7C1D5"/><stop offset="1" stop-color="#788999"/></linearGradient><linearGradient x1="-21.644" x2="-21.249" y1="-109.37" y2="-110.907" gradientTransform="matrix(.966 .259 -.259 .966 29.153 118.347)" gradientUnits="userSpaceOnUse"><stop offset="0" stop-color="#8196A6"/><stop offset="1" stop-color="#505D66"/></linearGradient><linearGradient x1="-23.409" x2="-30.892" y1="-106.002" y2="-87.952" gradientTransform="matrix(.966 .259 -.259 .966 29.153 118.347)" gradientUnits="userSpaceOnUse"><stop offset="0" stop-color="#9EB6CB"/><stop offset=".871" stop-color="#8AA0B2"/><stop offset="1" stop-color="#657580"/></linearGradient><linearGradient x1="5.475" x2="5.15" y1="118.341" y2="123.084" gradientUnits="userSpaceOnUse" gradientTransform="translate(-.73 -83.999)"><stop offset="0" stop-color="#A7C1D5"/><stop offset=".343" stop-color="#CFD9DE"/><stop offset="1" stop-color="#96AEBF"/></linearGradient></defs><g><path fill="none" stroke="#c17d11" stroke-width="3" d="M4.57 9.3c32 2.84 9.7 13.34 8.57 22-1.1 8.5 16.9 13.24 25 14.7"/><g><path fill="#709ec3" stroke="#224b87" stroke-width="1.53.305" d="M35.45 8.93l-21.18-7.9-6.65 1.95L13.05 7l22.4 1.93z"/><path fill="#fff" d="M14.27 1.03l21.18 7.9L13.6 4.26l.67-3.23z"/><path fill="#a0c6de" d="M13.6 4.26L7.63 2.98l6.65-1.95-.66 3.23z"/><path fill="#6b8599" d="M13.6 4.26L13.06 7 7.62 2.98l6 1.28z"/><path fill="#a0c6de" d="M35.45 8.93L13.6 4.26 13.06 7l22.4 1.93z"/></g><g><path fill="#709ec3" stroke="#224b87" stroke-width="1.53.305" d="M17.75 33.3l11-19.77 6.33-2.83-1.52 6.6-15.8 16z"/><path fill="#fff" d="M28.76 13.53l-11 19.76 13.6-17.73-2.6-2.04z"/><path fill="#a0c6de" d="M31.36 15.57l3.72-4.87-6.32 2.83 2.6 2.04z"/><path fill="#6b8599" d="M31.36 15.57l2.2 1.72 1.52-6.6-3.72 4.87z"/><path fill="#a0c6de" d="M17.75 33.3l13.6-17.73 2.2 1.72-15.8 16z"/></g><g><path fill="#709ec3" stroke="#224b87" stroke-width="1.53.305" d="M43.72 44L24.77 31.65l-6.9.46 4.4 5.1L43.73 44z"/><path fill="#fff" d="M24.77 31.66L43.72 44l-20.3-9.32 1.35-3.02z"/><path fill="#a0c6de" d="M23.42 34.68l-5.56-2.56 6.9-.46-1.34 3.02z"/><path fill="#6b8599" d="M23.42 34.68l-1.14 2.54-4.42-5.1 5.56 2.56z"/><path fill="#a0c6de" d="M43.72 44l-20.3-9.32-1.14 2.54L43.72 44z"/></g></g></svg>