<svg xmlns="http://www.w3.org/2000/svg" width="48" height="48" xmlns:xlink="http://www.w3.org/1999/xlink"><defs><linearGradient id="b"><stop offset="0" stop-color="#ff5757"/><stop offset=".5" stop-color="#ff5757"/><stop offset=".75" stop-color="#6692ff"/><stop offset="1" stop-color="#6692ff"/></linearGradient><linearGradient id="a" x1="1095.571" x2="1115.426" y1="1677.312" y2="1711.281" gradientTransform="translate(-1071.474 -1655.858)" gradientUnits="userSpaceOnUse"><stop offset="0" stop-color="#FEF3DC"/><stop offset="1" stop-color="#FAAF3E"/></linearGradient><linearGradient x1="1095.571" x2="1115.426" y1="1677.312" y2="1711.281" gradientUnits="userSpaceOnUse" gradientTransform="translate(-1071.474 -1655.858)" xlink:href="#a"><stop offset="0" stop-color="#FEF3DC"/><stop offset="1" stop-color="#FAAF3E"/></linearGradient><linearGradient x1="1101.313" x2="1097.74" y1="1679.382" y2="1683.503" gradientUnits="userSpaceOnUse"><stop offset=".006" stop-color="#ED2829"/><stop offset=".099" stop-color="#DA3736"/><stop offset=".4" stop-color="#AA5D60"/><stop offset=".66" stop-color="#88757F"/><stop offset=".869" stop-color="#738192"/><stop offset="1" stop-color="#6B8599"/></linearGradient><linearGradient x1="1098.805" x2="1097.08" y1="1680.161" y2="1681.17" gradientUnits="userSpaceOnUse"><stop offset=".006" stop-color="#ED2829"/><stop offset=".126" stop-color="#DB4E49"/><stop offset=".274" stop-color="#C97472"/><stop offset=".422" stop-color="#BB9498"/><stop offset=".57" stop-color="#AFABB6"/><stop offset=".717" stop-color="#A7BACC"/><stop offset=".861" stop-color="#A2C3DA"/><stop offset="1" stop-color="#A0C6DE"/></linearGradient><linearGradient x1="1101.173" x2="1115.048" y1="1672.436" y2="1672.436" gradientUnits="userSpaceOnUse"><stop offset=".006" stop-color="#ED2829"/><stop offset=".126" stop-color="#DB4E49"/><stop offset=".274" stop-color="#C97472"/><stop offset=".422" stop-color="#BB9498"/><stop offset=".57" stop-color="#AFABB6"/><stop offset=".717" stop-color="#A7BACC"/><stop offset=".861" stop-color="#A2C3DA"/><stop offset="1" stop-color="#A0C6DE"/></linearGradient><linearGradient x1="1104.763" x2="1101.04" y1="1674.48" y2="1679.425" gradientUnits="userSpaceOnUse"><stop offset="0" stop-color="#fff"/><stop offset=".624" stop-color="#ED2829"/><stop offset="1" stop-color="#ED2829"/></linearGradient><linearGradient id="c" x1="1.254" x2="46.746" y1="24" y2="24" xlink:href="#b" gradientUnits="userSpaceOnUse"/></defs><g><g><path fill="none" stroke="#faaf3e" d="M24.23 18.55z"/></g><path fill="url(#c)" stroke="#d99357" stroke-width=".5" d="M44.06 15.4c-.6.2-1.47 2.52-3.2 5-2.05 2.96-8.03 6-8.75 6.7-.7.73-2.12 2-3.98 3.14-1.13.7-6.6 2.55-7.87 4.04-.47.55-1.76 1.42-2.14 2.1-.26.47-.67 1.75-1.75 2.82-1.08 1.08-2.8 1.94-2.94 2.3-.13.36-1.95 3.36-2.2 3.75-.5.82-1.82.28-1.33-.8.5-1.08 1.92-3.34 1.82-3.63-.12-.3-.45-.25-.73-.07-.3.18-3.2 3.83-3.73 4.35-.67.65-1.94-.18-1.27-1.04.44-.56 3.72-4.23 3.53-4.5-.34-.45-5.3 2.8-5.82 3.04-.72.35-1.48-.76-.67-1.45.65-.55 5.45-3.3 5.2-3.67-.25-.36-5.4 1.64-5.82 1.72-.7.14-1.22-.8-.6-1.4.52-.5 5.14-1.93 5.78-2.58.5-.52 1.73-1.4 1.5-1.85-.27-.6-2.3-.4-3-.36-1.57.1-1.2-1.55.56-1.68 1.02-.08 2.05-.35 2.75-.64.76-.33 1.64-.73 2.73-.73 1.4 0 2.7.7 2.97.54 2.1-1.32 5.62-6 8.2-7.86 1.8-1.32 4.17-1.65 5.14-2.8 1.15-1.36 4.45-6.75 5-7.9C38.17.5 44.9 2.47 46.5 2.47"/><path fill="none" stroke="#8f5902" d="M44.06 15.4c-.6.2-1.47 2.52-3.2 5-2.05 2.96-8.03 6-8.75 6.7-.7.73-2.12 2-3.98 3.14-1.13.7-6.6 2.55-7.87 4.04-.47.55-1.76 1.42-2.14 2.1-.26.47-.67 1.75-1.75 2.82-1.08 1.08-2.8 1.94-2.94 2.3-.13.36-1.95 3.36-2.2 3.75-.5.82-1.82.28-1.33-.8.5-1.08 1.92-3.34 1.82-3.63-.12-.3-.45-.25-.73-.07-.3.18-3.2 3.83-3.73 4.35-.67.65-1.94-.18-1.27-1.04.44-.56 3.72-4.23 3.53-4.5-.34-.45-5.3 2.8-5.82 3.04-.72.35-1.48-.76-.67-1.45.65-.55 5.45-3.3 5.2-3.67-.25-.36-5.4 1.64-5.82 1.72-.7.14-1.22-.8-.6-1.4.52-.5 5.14-1.93 5.78-2.58.5-.52 1.73-1.4 1.5-1.85-.27-.6-2.3-.4-3-.36-1.57.1-1.2-1.55.56-1.68 1.02-.08 2.05-.35 2.75-.64.76-.33 1.64-.73 2.73-.73 1.4 0 2.7.7 2.97.54 2.1-1.32 5.62-6 8.2-7.86 1.8-1.32 4.17-1.65 5.14-2.8 1.15-1.36 4.45-6.75 5-7.9C38.17.5 44.9 2.47 46.5 2.47"/><path fill="#709ec3" stroke="#224b87" d="M29.9 23.7L39.94 8 44.5 6.5l-.72 4.4L29.9 23.7z"/><path fill="#709ec3" stroke="#a40000" d="M14.96 34.7l10.47-10.4 4.48-.6-2.14 3.84-12.8 7.16z"/><path fill="#fcaf3e" d="M25.43 24.3L14.96 34.7l11.74-8.64-1.27-1.75z"/><path fill="#c00" d="M26.7 26.06l3.2-2.37-4.47.6 1.27 1.76z"/><path fill="#a40000" d="M26.7 26.06l1.06 1.48 2.15-3.85-3.2 2.36z"/><path fill="#ef2929" d="M14.96 34.7l11.74-8.64 1.06 1.48-12.8 7.16z"/><path fill="#fff" d="M39.93 8.02l2 1.5L29.9 23.68 39.94 8z"/><path fill="#a0c6de" d="M41.93 9.5l2.57-3-4.57 1.52 2 1.5z"/><path fill="#a0c6de" d="M43.78 10.9l-1.85-1.4L29.9 23.7 43.8 10.9z"/><path fill="#6b8599" d="M44.5 6.5l-.72 4.4-1.85-1.4 2.57-3z"/></g></svg>