<svg xmlns="http://www.w3.org/2000/svg" width="48" height="48"><defs><linearGradient id="a" x1="1011.632" x2="1031.486" y1="1677.312" y2="1711.281" gradientUnits="userSpaceOnUse" gradientTransform="translate(-988.16 -1655.317)"><stop offset="0" stop-color="#FEF3DC"/><stop offset="1" stop-color="#FAAF3E"/></linearGradient></defs><g><path fill="url(#a)" d="M43.44 15.95c-.6.18-1.48 2.5-3.2 5-2.06 2.96-8.04 5.98-8.76 6.7-.7.72-2.13 2-4 3.13-1.1.7-6.6 2.55-7.86 4.05-.47.55-1.75 1.4-2.13 2.08-.3.5-.7 1.77-1.77 2.85-1.08 1.07-2.8 1.93-2.95 2.3-.14.35-1.96 3.35-2.2 3.74-.52.8-1.83.27-1.34-.8.5-1.08 1.93-3.35 1.82-3.64-.1-.3-.43-.25-.72-.07-.28.17-3.18 3.82-3.72 4.34-.67.65-1.95-.18-1.28-1.04.44-.56 3.73-4.23 3.53-4.5-.33-.45-5.3 2.8-5.82 3.04-.7.35-1.47-.76-.67-1.45.64-.56 5.45-3.32 5.2-3.68-.25-.35-5.4 1.65-5.82 1.73-.72.13-1.22-.82-.6-1.42.5-.5 5.13-1.92 5.77-2.57.52-.52 1.74-1.38 1.52-1.84-.28-.6-2.32-.4-3-.37-1.6.08-1.22-1.56.55-1.7 1-.07 2.05-.33 2.74-.63.77-.32 1.65-.73 2.73-.73 1.4 0 2.7.7 2.97.53 2.1-1.3 5.63-6 8.2-7.85 1.8-1.32 4.17-1.64 5.15-2.8 1.13-1.36 4.43-6.75 4.98-7.9 4.76-11.43 11.5-9.45 13.1-9.45" opacity=".5"/><path fill="none" stroke="#d99357" d="M19.62 34.83c-.47.55-1.75 1.4-2.13 2.08-.3.5-.7 1.77-1.77 2.85-1.08 1.07-2.8 1.93-2.95 2.3-.14.35-1.96 3.35-2.2 3.74-.52.8-1.83.27-1.34-.8.5-1.08 1.93-3.35 1.82-3.64-.1-.3-.43-.25-.72-.07-.3.17-3.18 3.82-3.72 4.34-.68.65-1.95-.18-1.28-1.04.44-.56 3.73-4.23 3.53-4.5-.33-.45-5.3 2.8-5.82 3.04-.7.35-1.48-.76-.67-1.45.64-.56 5.45-3.32 5.2-3.68-.25-.35-5.4 1.65-5.82 1.73-.72.13-1.22-.82-.6-1.42.5-.5 5.13-1.92 5.77-2.57.52-.52 1.74-1.38 1.52-1.84-.28-.6-2.32-.4-3-.37-1.6.08-1.22-1.56.55-1.7 1-.07 2.05-.33 2.74-.63.77-.32 1.65-.73 2.73-.73 1.4 0 2.7.7 2.97.53"/><path fill="none" stroke="#3165a1" stroke-width=".6" d="M28.43 17.14c-.82 1.48 6.98 8.7 8.55 6.98"/><path fill="none" stroke="#3165a1" stroke-width=".6" d="M34.7 7.65c-1.5 2.32 7.92 9.95 10.04 7.6"/><path fill="none" stroke="#3165a1" stroke-width=".6" d="M22.7 23.1c-1.03.65 3.6 8.53 5.65 7.36"/><path fill="none" stroke="#3165a1" d="M13.36 30l11.04-8.25"/><path fill="none" stroke="#3165a1" d="M18.04 36.94l11.9-7.6"/><path fill="none" stroke="#3165a1" d="M13.36 30c-3.24 2.62.46 9.36 4.68 6.94"/><path fill="none" stroke="#3165a1" d="M24.4 21.75c5.4-4.08 10.63 4.28 5.55 7.6"/><path fill="none" stroke="#3165a1" d="M27.18 19.02l8.64-13"/><path fill="none" stroke="#3165a1" d="M35.4 25.84L46.2 13.5"/><path fill="none" stroke="#3165a1" d="M35.82 6c4.6-7.25 16-.46 10.4 7.5"/><path fill="none" stroke="#3165a1" d="M27.18 19.02c-3.37 5.02 3.7 11.8 8.23 6.82"/><path fill="none" stroke="#3165a1" stroke-width=".6" d="M15.3 28.5c-1.57 1.26 2.9 8.34 4.56 7.32"/><g><path fill="#709ec3" stroke="#224b87" d="M14.2 35l10.47-10.38 4.48-.63L27 27.83 14.2 35z"/><path fill="#fff" d="M24.67 24.62L14.2 35l11.73-8.64-1.26-1.74z"/><path fill="#a0c6de" d="M25.93 26.36L29.15 24l-4.48.62 1.26 1.74z"/><path fill="#6b8599" d="M25.93 26.36L27 27.84 29.15 24l-3.22 2.36z"/><path fill="#a0c6de" d="M14.2 35l11.73-8.64L27 27.84 14.2 35z"/></g><g><path fill="#709ec3" stroke="#224b87" d="M29.15 24L39.17 8.32l4.57-1.52-.72 4.4L29.15 24z"/><path fill="#fff" d="M39.17 8.33l2 1.48L29.15 24 39.17 8.32z"/><path fill="#a0c6de" d="M41.17 9.8l2.57-3-4.57 1.53 2 1.48z"/><path fill="#a0c6de" d="M43.02 11.2l-1.85-1.4L29.15 24l13.87-12.8z"/><path fill="#6b8599" d="M43.74 6.8l-.72 4.4-1.85-1.4 2.57-3z"/></g><path fill="none" stroke="#3165a1" stroke-width=".6" d="M15.3 28.5c1.5-1.06 6.24 6.2 4.56 7.32"/><path fill="none" stroke="#3165a1" stroke-width=".6" d="M22.7 23.1c1.7-1.35 7.46 6.27 5.65 7.36"/><path fill="none" stroke="#3165a1" stroke-width=".6" d="M34.7 7.65c2.28-3.22 12.7 4.4 10.04 7.6"/><path fill="none" stroke="#3165a1" stroke-width=".6" d="M28.43 17.14c1.65-2.36 10.5 4.62 8.55 6.98"/></g></svg>