<svg xmlns="http://www.w3.org/2000/svg" width="48" height="48" xmlns:xlink="http://www.w3.org/1999/xlink"><defs><linearGradient id="g"><stop offset="0" stop-color="#aaaca8"/><stop offset="1" stop-color="#888a85"/></linearGradient><linearGradient id="f"><stop offset="0" stop-opacity=".504"/><stop offset="1" stop-color="#2e3436" stop-opacity="0"/></linearGradient><linearGradient id="e"><stop offset="0" stop-color="#fedfb2"/><stop offset="1" stop-color="#ef9004"/></linearGradient><linearGradient id="b"><stop offset="0" stop-color="#ededed"/><stop offset="1" stop-color="#c9c9c9"/></linearGradient><linearGradient id="a"><stop offset="0" stop-color="#ce5c00"/><stop offset="1" stop-color="#940"/></linearGradient><linearGradient id="c"><stop offset="0" stop-color="#fff"/><stop offset="1" stop-color="#e3e3e3"/></linearGradient><linearGradient id="d"><stop offset="0" stop-color="#ff9732"/><stop offset="1" stop-color="#da6c00"/></linearGradient><linearGradient id="l" x1="1.871" x2="45.024" y1="6.367" y2="38.338" xlink:href="#a" gradientUnits="userSpaceOnUse"/><linearGradient id="i" x1="10.127" x2="44.464" y1="43.965" y2="40.581" xlink:href="#b" gradientUnits="userSpaceOnUse"/><radialGradient id="n" cx="14.723" cy="19.127" r="21.371" xlink:href="#c" gradientUnits="userSpaceOnUse" gradientTransform="matrix(1 0 0 1.02 -.339 .104)" fx="14.723" fy="19.127"/><radialGradient id="k" cx="17.387" cy="17.56" r="21.677" xlink:href="#d" fx="17.387" fy="17.56" gradientTransform="matrix(1 0 0 1.017 0 -.376)" gradientUnits="userSpaceOnUse"/><linearGradient id="m" x1="2.103" x2="44.337" y1="6.872" y2="37.883" xlink:href="#e" gradientUnits="userSpaceOnUse" gradientTransform="matrix(1.002 0 0 1.002 -.056 -.054)"/><radialGradient id="h" cx="25.077" cy="44.464" r="20.481" xlink:href="#f" fx="25.077" fy="44.464" gradientTransform="matrix(1 0 0 .15 0 37.776)" gradientUnits="userSpaceOnUse"/><linearGradient id="j" x1="15.329" x2="28.15" y1="43.258" y2="43.258" xlink:href="#g" gradientUnits="userSpaceOnUse"/></defs><g><path fill="url(#h)" d="M45.56 44.46a20.48 3.47 0 1 1-40.96 0 20.48 3.47 0 1 1 40.96 0z" transform="matrix(1.028 -.136 .136 1.028 -5.407 1.402)" color="#000" overflow="visible" enable-background="accumulate"/><path fill="url(#i)" stroke="url(#j)" stroke-width=".5" d="M7.78 44.27l37.14-5.92-.33 2.9L8.4 46.5z" stroke-linejoin="bevel"/><path fill="url(#k)" stroke="url(#l)" stroke-width=".75" d="M2.02 6.63l5.72 37.6 37.13-5.9-6.4-37.7z"/><path fill="none" stroke="url(#m)" stroke-width=".5" d="M2.68 7.12l5.55 36.43 35.98-5.7L38 1.3z"/><path fill="url(#n)" d="M29.48 41.26c.28-.22.54-.43.82-.68 6.2-5.74 6.5-15.16 3.65-19.6-2.43-3.8-7.2-7.12-12.65-7.87-3.47-.47-9.36-1.34-15.13 3.3-.05.03-1.27.95-2.7 2.58l.73 4.78c1.32-1.9 2.8-3.3 3.7-4.12 3.15-2.9 6.2-3.35 10.86-3.1 4.5.26 9.13 4 10.54 7.6 1.87 4.8 1.4 8.7-1.82 12.94-2.94 3.9-9.18 4.18-12.34 2.75-3.17-1.43-5.43-2.9-5.7-7.25-.26-4.6 3.95-7.6 7.04-7.85 3.7-.3 5.82 2.27 5.38 4.44-.5 2.5-2.86 4.12-4.4 3-2.24-1.6-.95-3.3-.95-3.3s-5.72 1.8-2.24 6.55c3.2 4.37 10.76.93 12.1-4.4.74-2.97 1.22-10.08-9.16-10.94-6.02-.5-10.55 4.26-12.12 9.4l1.43 9.35c1.63 2 3.94 3.45 6.05 4.4.38.18.84.34 1.3.5z" color="#000" overflow="visible" enable-background="accumulate"/><path fill="#585858" d="M44.8 41.22L8.23 46.58l.48.5L44.44 42z" style="text-indent:0;text-align:start;line-height:normal;text-transform:none;block-progression:tb;-inkscape-font-specification:Sans" color="#000" overflow="visible" enable-background="accumulate" font-family="Sans"/><path fill="#888a85" d="M16.5 12.67c-3.06.03-6.72.8-10.33 3.68-.05.05-1.27.96-2.7 2.6l.08.43c1.38-1.58 2.57-2.48 2.62-2.53 5.78-4.62 11.66-3.76 15.13-3.28 5.46.75 10.22 4.07 12.65 7.88 1.04 1.63 1.66 3.92 1.72 6.47.02-2.75-.6-5.24-1.72-6.97-2.43-3.8-7.2-7.13-12.65-7.88-1.3-.18-2.94-.43-4.8-.4zm-.42 7.3c-5.47.14-9.53 4.65-11 9.48l.06.34c1.62-5.1 6.1-9.76 12.06-9.26 7.64.63 9.4 4.64 9.5 7.9.07-3.33-1.46-7.73-9.5-8.4-.37-.03-.76-.07-1.12-.06zm.43 8.85s-3.5 1.12-3.33 3.9c.2-1.97 2.3-2.97 3.06-3.27 0-.02.03-.02.03-.03.12-.37.25-.6.25-.6zm5.4.06c-.02.08-.03.18-.04.25-.5 2.5-2.86 4.12-4.4 3-.9-.64-1.22-1.3-1.3-1.87-.08.64.1 1.52 1.3 2.37 1.54 1.12 3.9-.5 4.4-3 .05-.24.04-.5.03-.75zm8.5.54c-.03 2.6-.97 5.05-2.92 7.62-2.94 3.9-9.18 4.18-12.34 2.75-3.17-1.44-5.43-2.9-5.7-7.26 0 .17 0 .33 0 .5.27 4.37 2.53 5.82 5.7 7.25 3.16 1.42 9.4 1.14 12.34-2.76 2.07-2.73 3-5.34 2.9-8.12z" color="#000" overflow="visible" enable-background="accumulate"/><path fill="#babdb6" d="M16.5 13.12c-3.06.04-6.72.8-10.33 3.7-.05.03-1.27.95-2.7 2.58l.08.44c1.38-1.6 2.57-2.5 2.62-2.53 5.78-4.62 11.66-3.75 15.13-3.27 5.46.75 10.22 4.06 12.65 7.87 1.04 1.63 1.66 3.92 1.72 6.47.02-2.74-.6-5.23-1.72-6.97-2.43-3.8-7.2-7.12-12.65-7.87-1.3-.18-2.94-.43-4.8-.4zm-.42 7.3c-5.47.14-9.53 4.66-11 9.48l.06.34c1.62-5.08 6.1-9.74 12.06-9.25 7.64.63 9.4 4.64 9.5 7.9.07-3.34-1.46-7.74-9.5-8.4-.37-.04-.76-.08-1.12-.07zm.28 8.96s-3.36 1.02-3.2 3.8c.2-1.98 2.16-2.88 2.92-3.18 0 0 .03-.02.03-.03.12-.36.26-.6.26-.6zm5.53-.04c-.02.08-.03.17-.04.25-.5 2.47-2.86 4.1-4.4 3-.9-.66-1.22-1.32-1.3-1.9-.08.65.1 1.53 1.3 2.4 1.54 1.1 3.9-.53 4.4-3 .05-.25.04-.5.03-.76zm8.5.53c-.03 2.6-.97 5.06-2.92 7.62-2.94 3.9-9.18 4.18-12.34 2.74-3.17-1.43-5.43-2.88-5.7-7.25 0 .16 0 .32 0 .5.27 4.36 2.53 5.8 5.7 7.24 3.16 1.44 9.4 1.15 12.34-2.75 2.07-2.73 3-5.35 2.9-8.13z" color="#000" overflow="visible" enable-background="accumulate"/><path fill="#fedfb2" d="M13.03 16.8c-3.7.83-6.5 3.77-8.28 6.23l.58.1c2.05-3.17 4.43-4.92 7.7-6.32z" style="text-indent:0;text-align:start;line-height:normal;text-transform:none;block-progression:tb;-inkscape-font-specification:Sans" color="#000" overflow="visible" enable-background="accumulate" font-family="Sans"/><path fill="none" stroke="#fdc169" stroke-width=".5" d="M7.7 40.35c1.16 1.12 2.5 2.02 4.07 2.67"/><path fill="#fedfb2" d="M35.63 26.94c-.1 5.07-2.13 9.6-4.93 13.3l1.1-.66c2.5-3.44 4.16-8.48 3.83-12.64z" style="text-indent:0;text-align:start;line-height:normal;text-transform:none;block-progression:tb;-inkscape-font-specification:Sans" color="#000" overflow="visible" enable-background="accumulate" font-family="Sans"/></g></svg>