<svg xmlns="http://www.w3.org/2000/svg" width="16" height="16" xmlns:xlink="http://www.w3.org/1999/xlink" version="1"><defs><linearGradient id="l"><stop offset="0" stop-color="#323232"/><stop offset="1" stop-color="#656565" stop-opacity="0"/></linearGradient><linearGradient id="h"><stop offset="0" stop-color="#656565"/><stop offset="1" stop-color="#656565" stop-opacity="0"/></linearGradient><linearGradient id="k"><stop offset="0" stop-color="#d9d9d9"/><stop offset="1" stop-color="#eee" stop-opacity="0"/></linearGradient><linearGradient id="i"><stop offset="0"/><stop offset="1" stop-opacity="0"/></linearGradient><linearGradient id="j"><stop offset="0" stop-color="#656565"/><stop offset="1" stop-color="#656565" stop-opacity="0"/></linearGradient><linearGradient id="g"><stop offset="0"/><stop offset="1" stop-opacity="0"/></linearGradient><linearGradient id="e" x1="14.997" x2="32.511" y1="11.188" y2="34.307" gradientUnits="userSpaceOnUse"><stop offset="0" stop-color="#EBEBEB"/><stop offset=".5" stop-color="#fff"/><stop offset="1" stop-color="#EBEBEB"/></linearGradient><linearGradient id="f"><stop offset="0" stop-color="#fff"/><stop offset="1" stop-color="#fff" stop-opacity="0"/></linearGradient><linearGradient id="d"><stop offset="0"/><stop offset="1" stop-opacity="0"/></linearGradient><linearGradient id="c"><stop offset="0" stop-color="#fff"/><stop offset="1" stop-color="#fff" stop-opacity="0"/></linearGradient><linearGradient id="b"><stop offset="0" stop-color="#e4e4e4"/><stop offset="1" stop-color="#d3d3d3"/></linearGradient><linearGradient id="a"><stop offset="0" stop-color="#bbb"/><stop offset="1" stop-color="#9f9f9f"/></linearGradient><linearGradient id="o" x1="7.605" x2="36.183" y1="28.481" y2="40.944" gradientUnits="userSpaceOnUse" xlink:href="#a" gradientTransform="matrix(.343 0 0 .343 -.318 -.596)"/><radialGradient id="p" cx="15.571" cy="2.959" r="20.936" gradientUnits="userSpaceOnUse" gradientTransform="matrix(.442 .268 -.244 .401 -1.127 -2.27)" fy="2.959" fx="15.571" xlink:href="#b"/><linearGradient id="q" x1="12.378" x2="44.096" y1="4.433" y2="47.621" gradientUnits="userSpaceOnUse" xlink:href="#c" gradientTransform="matrix(.343 0 0 .343 -.318 -.596)"/><radialGradient id="m" cx="23.202" cy="27.096" r="23.555" gradientUnits="userSpaceOnUse" gradientTransform="matrix(1 0 0 .651 0 9.456)" fy="27.096" fx="23.202" xlink:href="#d"/><linearGradient x1="14.997" x2="32.511" y1="11.188" y2="34.307" xlink:href="#e" gradientUnits="userSpaceOnUse" gradientTransform="matrix(.953 0 0 .657 1.345 19.22)"/><linearGradient x1="10.502" x2="48.799" y1="3.61" y2="54.698" xlink:href="#f" gradientUnits="userSpaceOnUse" gradientTransform="matrix(.739 0 0 .509 6.216 21.992)"/><radialGradient id="n" cx="24.218" cy="33.769" r="17.678" xlink:href="#g" fx="24.218" fy="33.769" gradientTransform="matrix(1 0 0 .695 0 10.3)" gradientUnits="userSpaceOnUse"/><linearGradient x1="24.307" x2="24.307" y1="33.693" y2="37.609" xlink:href="#h" gradientUnits="userSpaceOnUse"/><linearGradient id="v" x1="23.375" x2="23.375" y1="28.434" y2="32.938" xlink:href="#i" gradientUnits="userSpaceOnUse" gradientTransform="matrix(.343 0 0 .343 -.318 .071)"/><linearGradient id="w" x1="23.375" x2="23.375" y1="28.434" y2="32.938" xlink:href="#i" gradientUnits="userSpaceOnUse" gradientTransform="matrix(.343 0 0 .343 -.318 .071)"/><linearGradient x1="24.307" x2="24.307" y1="32.791" y2="34.201" xlink:href="#j" gradientUnits="userSpaceOnUse" gradientTransform="matrix(1 0 0 .799 0 6.605)"/><linearGradient x1="26.333" x2="26.194" y1="34.172" y2="21.988" xlink:href="#k" gradientUnits="userSpaceOnUse" gradientTransform="matrix(.8 0 0 .552 4.726 20.599)"/><linearGradient id="u" x1="10.502" x2="48.799" y1="3.61" y2="54.698" xlink:href="#f" gradientUnits="userSpaceOnUse" gradientTransform="matrix(.237 0 0 .163 2.227 6.992)"/><linearGradient id="t" x1="26.333" x2="26.194" y1="34.172" y2="21.988" xlink:href="#k" gradientUnits="userSpaceOnUse" gradientTransform="matrix(.256 0 0 .177 1.75 6.546)"/><linearGradient id="s" x1="14.997" x2="32.511" y1="11.188" y2="34.307" xlink:href="#e" gradientUnits="userSpaceOnUse" gradientTransform="matrix(.305 0 0 .21 .666 6.104)"/><linearGradient id="r" x1="24.307" x2="24.307" y1="33.693" y2="37.609" xlink:href="#l" gradientUnits="userSpaceOnUse" gradientTransform="matrix(.32 0 0 .32 .235 -.055)"/></defs><g><path fill="url(#m)" fill-rule="evenodd" d="M46.76 27.1a23.56 15.34 0 1 1-47.1 0 23.56 15.34 0 1 1 47.1 0z" transform="matrix(.361 0 0 .125 -.494 8.626)" opacity=".56" color="#000" overflow="visible"/><path fill="none" stroke="#2e3436" d="M3.36 1.85c-.22 0-.37.1-.46.3C2.9 2.16.6 8.4.6 8.4s-.1.24-.1.64c0 0 0 3.52 0 3.52 0 .4.23.6.6.6h13.8c.36 0 .58-.27.58-.68V8.96s.04-.28-.03-.48l-2.4-6.26c-.08-.2-.24-.36-.4-.37h-9.3z" stroke-linecap="round" stroke-linejoin="round"/><path fill="url(#n)" fill-rule="evenodd" d="M41.9 33.77a17.68 12.3 0 1 1-35.36 0 17.68 12.3 0 1 1 35.36 0z" transform="matrix(.343 0 0 .343 -.015 .071)" opacity=".566" color="#000" overflow="visible"/><path fill="url(#o)" fill-rule="evenodd" d="M.8 8.67l.27-.24 12.9.02 1.2.1v3.6c0 .38-.2.63-.55.63H1.38c-.35 0-.57-.2-.57-.56V8.67z"/><path fill="url(#p)" fill-rule="evenodd" d="M.9 8.3c-.25.5 0 .82.36.82 0 0 13.38 0 13.38 0 .4 0 .64-.35.5-.74l-2.3-5.9c-.07-.18-.24-.34-.4-.35H3.56c-.2 0-.36.1-.44.3C3.12 2.43.9 8.3.9 8.3z"/><path fill="#fff" fill-rule="evenodd" d="M15.06 8.2c.02.43-.14.8-.46.8 0 0-13.08 0-13.08 0-.44 0-.64-.1-.72-.3.04.33.3.57.72.57 0 0 13.08 0 13.08 0 .37 0 .6-.5.47-1.03V8.2z"/><path fill="none" stroke="url(#q)" stroke-width=".353" d="M3.68 2.3c-.2 0-.34.1-.43.27 0 0-2.2 5.7-2.2 5.7s-.08.22-.08.58c0 0 0 3.2 0 3.2 0 .46.15.55.55.55h12.93c.46 0 .53-.1.53-.63v-3.2s.04-.24-.03-.42L12.7 2.58c-.07-.17-.2-.28-.36-.3H3.68z" stroke-linecap="round" stroke-linejoin="round"/><path fill="url(#r)" fill-rule="evenodd" d="M1.95 10.32H14.1v1.24H1.95z" color="#000" overflow="visible"/><path fill="url(#s)" d="M2.8 10.14c-.1.26-.15.54-.15.83 0 2.04 2.38 3.67 5.34 3.67s5.33-1.63 5.33-3.67c0-.28-.05-.57-.14-.83h-5c.6.08 1.08.4 1.08.83 0 .48-.58.88-1.3.88-.7 0-1.27-.4-1.27-.88 0-.43.5-.75 1.08-.83H2.8z"/><path fill="url(#t)" stroke="#808080" stroke-width=".33" d="M2.75 10.3c-.06.22-.1.45-.1.67 0 2.04 2.38 3.67 5.34 3.67s5.33-1.63 5.33-3.67c0-.22-.04-.45-.1-.66H2.75z"/><path d="M5.55 10.15c-.25.3-.43.46-.43.83 0 1.1 1.32 1.98 2.9 1.98 1.6 0 2.9-.9 2.9-1.98 0-.37-.2-.54-.45-.83H8.75c.54.17.84.4.84.83 0 .6-.72 1.08-1.58 1.08-.87 0-1.58-.5-1.58-1.08 0-.44.3-.66.83-.83H5.55z" opacity=".11"/><path fill="#fff" fill-opacity=".418" d="M6.2 14.28l1.2-2.4c-.28-.08-.5-.22-.63-.4l-3.33 1.16C4 13.4 4.98 14 6.2 14.28z"/><path fill="none" stroke="url(#u)" stroke-width=".33" d="M3.1 10.3c-.1.22-.14.52-.14.78 0 1.8 2.44 3.23 5.03 3.23 2.6 0 4.96-1.43 4.96-3.22 0-.26-.06-.56-.14-.8H3.1z" opacity=".546"/><path fill="#2e3436" fill-rule="evenodd" d="M1.95 10.08h12.13v.38H1.95z" color="#000" overflow="visible" font-family="Bitstream Vera Sans"/><path fill="url(#v)" fill-rule="evenodd" d="M8.7 10.45h4.73s.2.4-.02 1.16c0 0-4.56-.16-4.56-.16.64-.63-.13-1-.13-1z" opacity=".36"/><path fill="url(#w)" fill-rule="evenodd" d="M7.27 10.45H2.55s-.2.4.02 1.16c0 0 4.57-.16 4.57-.16-.64-.63.13-1 .13-1z" opacity=".36"/></g></svg>