<svg xmlns="http://www.w3.org/2000/svg" width="48" height="48" xmlns:xlink="http://www.w3.org/1999/xlink"><defs><linearGradient id="a"><stop offset="0" stop-color="#eeeeec"/><stop offset="1" stop-color="#fff"/></linearGradient><linearGradient x1="23.492" x2="23.492" y1="43.794" y2="-.199" xlink:href="#a" gradientUnits="userSpaceOnUse"/><linearGradient id="b"><stop offset="0" stop-color="#007400"/><stop offset="1" stop-color="#2a392a"/></linearGradient><radialGradient cx="18.19" cy="17.156" r="21.812" xlink:href="#b" fx="18.19" fy="17.156" gradientUnits="userSpaceOnUse" gradientTransform="matrix(.805 -.651 .679 .84 -8.108 14.586)"/><linearGradient id="c"><stop offset="0" stop-color="#fff"/><stop offset="1" stop-color="#eeeeec" stop-opacity=".21"/></linearGradient><linearGradient x1="23.837" x2="23.492" y1="-.149" y2="45.217" xlink:href="#c" gradientUnits="userSpaceOnUse"/><linearGradient id="d"><stop offset="0" stop-color="#eeeeec"/><stop offset="1" stop-color="#616157"/></linearGradient><linearGradient x1="23.997" x2="24.133" y1="3.979" y2="42.321" xlink:href="#d" gradientUnits="userSpaceOnUse"/><linearGradient id="e"><stop offset="0" stop-color="#2e3436"/><stop offset="1" stop-color="#2e3436" stop-opacity="0"/></linearGradient><radialGradient cx="29.302" cy="45.016" r="17.746" xlink:href="#e" fx="29.302" fy="45.016" gradientTransform="matrix(1 0 0 .254 0 33.581)" gradientUnits="userSpaceOnUse"/><linearGradient id="f"><stop offset="0" stop-color="#2e3436"/><stop offset="1" stop-color="#2e3436" stop-opacity="0"/></linearGradient><radialGradient cx="34.73" cy="31.048" r="5.841" xlink:href="#f" fx="34.73" fy="31.048" gradientTransform="matrix(1 0 0 .359 0 19.911)" gradientUnits="userSpaceOnUse"/><radialGradient id="g" cx="-64.877" cy="220.876" r="14.119" gradientUnits="userSpaceOnUse" gradientTransform="matrix(-1 0 0 1 55.359 0)" fy="220.876" fx="-64.877"><stop offset="0" stop-color="#ff8e6b"/><stop offset=".826" stop-color="#A40E0A"/><stop offset="1" stop-color="#660D0B"/></radialGradient><radialGradient cx="-64.877" cy="220.876" r="14.119" xlink:href="#g" gradientUnits="userSpaceOnUse" gradientTransform="matrix(-1 0 0 1 55.359 0)" fx="-64.877" fy="220.876"/><radialGradient id="h" cx="-62.017" cy="217.679" r="17.176" fx="-62.017" fy="217.679" gradientTransform="matrix(-1 0 0 1 55.359 0)" gradientUnits="userSpaceOnUse"><stop offset="0" stop-color="#fff"/><stop offset="1" stop-color="#A42522"/></radialGradient><radialGradient cx="-62.017" cy="217.679" r="17.176" xlink:href="#h" gradientUnits="userSpaceOnUse" gradientTransform="matrix(-1 0 0 1 55.359 0)" fx="-62.017" fy="217.679"/><linearGradient x1="11.476" x2="15.159" y1="31.183" y2="33.468" xlink:href="#i" gradientUnits="userSpaceOnUse" gradientTransform="matrix(.975 0 0 .975 .572 1.403)"/><linearGradient id="j" x1="-100.206" x2="-83.826" y1="222.647" y2="222.647" gradientTransform="translate(191.69)" gradientUnits="userSpaceOnUse"><stop offset=".028" stop-color="#84A8C9"/><stop offset=".108" stop-color="#88ABCB"/><stop offset=".191" stop-color="#95B5CE"/><stop offset=".253" stop-color="#A3C0D3"/><stop offset=".294" stop-color="#9CBBD0"/><stop offset=".355" stop-color="#88ACCA"/><stop offset=".427" stop-color="#6A94BE"/><stop offset=".508" stop-color="#4177AF"/><stop offset=".511" stop-color="#3F76AF"/><stop offset=".736" stop-color="#224987"/><stop offset=".829" stop-color="#244D8A"/><stop offset=".924" stop-color="#2A5794"/><stop offset="1" stop-color="#3065A0"/></linearGradient><linearGradient x1="-100.206" x2="-83.826" y1="222.647" y2="222.647" xlink:href="#j" gradientUnits="userSpaceOnUse" gradientTransform="matrix(.794 0 0 .792 88.409 -152.964)"/><radialGradient id="k" cx="-37.291" cy="214.005" r="19.446" gradientUnits="userSpaceOnUse" gradientTransform="matrix(-1 0 0 .847 55.653 28.519)" fy="214.005" fx="-37.291"><stop offset="0" stop-color="#fff"/><stop offset="1" stop-color="#224987"/></radialGradient><radialGradient cx="-37.291" cy="214.005" r="19.446" xlink:href="#k" gradientUnits="userSpaceOnUse" gradientTransform="matrix(-.794 0 0 .671 -19.546 -130.377)" fx="-37.291" fy="214.005"/><radialGradient id="l" cx="-38.266" cy="214.142" r="20.102" fx="-38.266" fy="214.142" gradientTransform="matrix(-1 0 0 1 55.653 0)" gradientUnits="userSpaceOnUse"><stop offset="0" stop-color="#fff"/><stop offset="1" stop-color="#3065A0"/></radialGradient><radialGradient cx="-38.266" cy="214.142" r="20.102" xlink:href="#l" gradientUnits="userSpaceOnUse" gradientTransform="matrix(-1 0 0 1 55.653 0)" fx="-38.266" fy="214.142"/><linearGradient id="i"><stop offset="0" stop-color="#2e3436"/><stop offset="1" stop-color="#2e3436" stop-opacity="0"/></linearGradient><linearGradient x1="26.968" x2="33.587" y1="33.468" y2="36.857" xlink:href="#i" gradientUnits="userSpaceOnUse" gradientTransform="matrix(.975 0 0 .975 .572 1.403)"/><linearGradient id="m" x1="103.99" x2="118.07" y1="229.561" y2="229.189" gradientUnits="userSpaceOnUse"><stop offset="0" stop-color="#fff"/><stop offset=".078" stop-color="#FEFDEC"/><stop offset=".236" stop-color="#FCF7BB"/><stop offset=".459" stop-color="#F8ED6D"/><stop offset=".539" stop-color="#F6E94F"/><stop offset=".641" stop-color="#F5E84A"/><stop offset=".755" stop-color="#F3E43E"/><stop offset=".876" stop-color="#F0DD29"/><stop offset="1" stop-color="#EBD30F"/><stop offset="1" stop-color="#EBD30F"/></linearGradient><linearGradient x1="103.99" x2="118.07" y1="229.561" y2="229.189" xlink:href="#m" gradientUnits="userSpaceOnUse" gradientTransform="matrix(.794 0 0 .792 -64.857 -153.479)"/><linearGradient id="n" x1="107.77" x2="105.604" y1="228.699" y2="227.569" gradientUnits="userSpaceOnUse"><stop offset="0" stop-color="#EFEEEC"/><stop offset="1" stop-color="#F6E94F"/></linearGradient><linearGradient x1="107.77" x2="105.604" y1="228.699" y2="227.569" xlink:href="#n" gradientUnits="userSpaceOnUse" gradientTransform="matrix(.794 0 0 .792 -64.857 -153.479)"/><linearGradient id="o" x1="105.57" x2="115.738" y1="226.415" y2="240.775" gradientUnits="userSpaceOnUse"><stop offset="0" stop-color="#FAFAFA"/><stop offset=".579" stop-color="#F6E94F"/><stop offset=".693" stop-color="#F3E54B"/><stop offset=".793" stop-color="#EAD740"/><stop offset=".888" stop-color="#DBC32F"/><stop offset=".98" stop-color="#C8A61A"/><stop offset="1" stop-color="#C3A016"/></linearGradient><linearGradient x1="105.57" x2="115.738" y1="226.415" y2="240.775" xlink:href="#o" gradientUnits="userSpaceOnUse"/><radialGradient id="p" cx="96.07" cy="217.459" r="30.602" fx="96.07" fy="217.459" gradientTransform="matrix(1 0 0 .847 0 28.519)" gradientUnits="userSpaceOnUse"><stop offset="0" stop-color="#fff"/><stop offset=".066" stop-color="#F4F7FA"/><stop offset=".182" stop-color="#D7E1EC"/><stop offset=".335" stop-color="#A7BDD7"/><stop offset=".516" stop-color="#668DB9"/><stop offset=".652" stop-color="#3065A0"/><stop offset=".916" stop-color="#1A3A6B"/></radialGradient><radialGradient cx="96.07" cy="217.459" r="30.602" xlink:href="#p" gradientUnits="userSpaceOnUse" gradientTransform="matrix(1 0 0 .847 0 28.519)" fx="96.07" fy="217.459"/><linearGradient id="q"><stop offset="0" stop-color="#ffae00"/><stop offset="1" stop-color="#ff3600"/></linearGradient><radialGradient cx="21.483" cy="22.169" r="21.156" xlink:href="#q" fx="21.483" fy="22.169" gradientTransform="matrix(.732 0 0 .732 -12.239 5.306)" gradientUnits="userSpaceOnUse"/><linearGradient id="t"><stop offset="0" stop-color="#2e3436" stop-opacity=".502"/><stop offset="1" stop-color="#2e3436" stop-opacity="0"/></linearGradient><linearGradient><stop offset="0" stop-color="#d0d0ca"/><stop offset=".25" stop-color="#e6e6e4"/><stop offset="1" stop-color="#fdfdfd"/></linearGradient><linearGradient id="r"><stop offset="0" stop-color="#2e3436"/><stop offset="1" stop-color="#2e3436" stop-opacity="0"/></linearGradient><linearGradient id="s"><stop offset="0" stop-color="#555753"/><stop offset="1"/></linearGradient><radialGradient id="w" cx="37.379" cy="3.948" r="5.413" xlink:href="#r" fx="37.379" fy="3.948" gradientTransform="matrix(.954 1.055 -1.079 .976 5.186 -38.667)" gradientUnits="userSpaceOnUse"/><linearGradient id="x" x1="26.572" x2="38.992" y1="-.112" y2="11.592" xlink:href="#s" gradientUnits="userSpaceOnUse" gradientTransform="matrix(.935 0 0 .926 5.29 .293)"/><radialGradient id="u" cx="23.714" cy="44.19" r="23.27" xlink:href="#t" fx="23.714" fy="44.19" gradientTransform="matrix(1 0 0 .142 0 37.921)" gradientUnits="userSpaceOnUse"/><radialGradient cx="10.075" cy="41.236" r="16.472" xlink:href="#q" fx="10.075" fy="41.236" gradientTransform="matrix(1.77 .032 -.032 1.783 -6.039 -33.187)" gradientUnits="userSpaceOnUse"/><radialGradient cx="29.302" cy="45.016" r="17.746" xlink:href="#e" gradientUnits="userSpaceOnUse" gradientTransform="matrix(1 0 0 .254 0 33.581)" fx="29.302" fy="45.016"/><linearGradient x1="23.997" x2="24.133" y1="3.979" y2="42.321" xlink:href="#d" gradientUnits="userSpaceOnUse"/><linearGradient x1="23.837" x2="23.492" y1="-.149" y2="45.217" xlink:href="#c" gradientUnits="userSpaceOnUse"/><radialGradient cx="18.19" cy="17.156" r="21.812" xlink:href="#b" gradientUnits="userSpaceOnUse" gradientTransform="matrix(.805 -.651 .679 .84 -8.108 14.586)" fx="18.19" fy="17.156"/><linearGradient x1="23.492" x2="23.492" y1="43.794" y2="-.199" xlink:href="#a" gradientUnits="userSpaceOnUse"/><linearGradient x1="23.492" x2="23.492" y1="43.794" y2="-.199" xlink:href="#a" gradientUnits="userSpaceOnUse"/><radialGradient id="v" cx="18.19" cy="17.156" r="21.812" xlink:href="#b" gradientUnits="userSpaceOnUse" gradientTransform="matrix(.805 -.651 .679 .84 -8.108 14.586)" fx="18.19" fy="17.156"/><linearGradient x1="23.837" x2="23.492" y1="-.149" y2="45.217" xlink:href="#c" gradientUnits="userSpaceOnUse"/><linearGradient x1="23.997" x2="24.133" y1="3.979" y2="42.321" xlink:href="#d" gradientUnits="userSpaceOnUse"/><radialGradient cx="29.302" cy="45.016" r="17.746" xlink:href="#e" gradientUnits="userSpaceOnUse" gradientTransform="matrix(1 0 0 .254 0 33.581)" fx="29.302" fy="45.016"/></defs><g><path fill="url(#u)" fill-rule="evenodd" d="M46.98 44.2a23.27 3.3 0 1 1-46.54 0 23.27 3.3 0 1 1 46.54 0z" transform="matrix(1 0 0 1.048 .26 -2.553)" color="#000" overflow="visible"/><path fill="url(#v)" fill-rule="evenodd" stroke="#2e3436" stroke-width="1.5" d="M6.7.76h24.27l10.34 9.42v34.1H6.7V.75z" color="#000" overflow="visible"/><path fill="url(#w)" fill-rule="evenodd" d="M29 1.58l1.94-.2 9.8 9.52.05 1.55-11.74.55L29 1.58z"/><path fill="none" stroke="#fff" stroke-opacity=".494" d="M7.94 2.05L30.5 2l9.63 8.88v32.16H7.87l.07-41z" color="#000" overflow="visible"/><path fill="none" stroke="#8ae234" stroke-opacity=".179" stroke-width=".691" d="M12.08 2.6v39.9"/><path fill="none" stroke="#8ae234" stroke-opacity=".179" stroke-width=".691" d="M16.22 2.58v40.88"/><path fill="none" stroke="#8ae234" stroke-opacity=".179" stroke-width=".691" d="M20.37 2.35v40.27"/><path fill="none" stroke="#8ae234" stroke-opacity=".179" stroke-width=".691" d="M28.67 1.55v41.83"/><path fill="none" stroke="#8ae234" stroke-opacity=".179" stroke-width=".691" d="M24.52 2.6v39.95"/><path fill="none" stroke="#8ae234" stroke-opacity=".179" stroke-width=".691" d="M34.86 6.13H8.52"/><path fill="none" stroke="#8ae234" stroke-opacity=".179" stroke-width=".691" d="M39.5 10.28H8.4"/><path fill="none" stroke="#8ae234" stroke-opacity=".179" stroke-width=".691" d="M39.96 14.43H8.26"/><path fill="none" stroke="#8ae234" stroke-opacity=".179" stroke-width=".691" d="M39.8 22.73H8.4"/><path fill="none" stroke="#8ae234" stroke-opacity=".179" stroke-width=".691" d="M39.94 18.58H8.44"/><path fill="none" stroke="#8ae234" stroke-opacity=".179" stroke-width=".691" d="M39.65 27.06H8.6"/><path fill="none" stroke="#8ae234" stroke-opacity=".179" stroke-width=".691" d="M39.58 31.2H8.48"/><path fill="none" stroke="#8ae234" stroke-opacity=".179" stroke-width=".691" d="M40.05 35.36H8.35"/><path fill="none" stroke="#8ae234" stroke-opacity=".179" stroke-width=".691" d="M40.02 39.5H8.52"/><path fill="none" stroke="#8ae234" stroke-opacity=".179" stroke-width=".691" d="M32.93 2.62V42.9"/><path fill="none" stroke="#8ae234" stroke-opacity=".179" stroke-width=".691" d="M37.08 5.23v37.6"/><path fill="none" stroke="#57a10f" stroke-width="3" d="M38.7 31.36c-2.2-3.7-1.94-15.95-4.96-15.95-3.55 0-2.57 17.05-6.42 17.02-3.84-.04-2.86-17.08-6.42-17.1-3.55 0-2.57 17.05-6.4 17.1-3.43.03-3-13.7-5.44-16.52"/><path fill="none" stroke="#eeeeec" d="M38.68 31.3c-2.18-3.7-1.94-15.94-4.95-15.94-3.55 0-2.58 17.04-6.42 17-3.83-.02-2.85-17.07-6.4-17.08-3.56 0-2.6 17.04-6.4 17.1-3.44.03-3-13.72-5.45-16.52"/><path fill="#fff" fill-rule="evenodd" stroke="url(#x)" stroke-width="1.5" d="M30.96.75c2.25 4.63 1.18 8.92 1.18 8.92s6.18-1.14 9.1.86C40.2 6.08 35.62 2.33 30.97.75z" color="#000" stroke-linejoin="round" overflow="visible"/></g></svg>