<svg xmlns="http://www.w3.org/2000/svg" width="48" height="48" xmlns:xlink="http://www.w3.org/1999/xlink"><defs><linearGradient id="a"><stop offset="0" stop-color="#fff" stop-opacity=".113"/><stop offset="1" stop-color="#fff" stop-opacity="0"/></linearGradient><linearGradient id="f" x1="21.483" x2="21.483" y1="24.261" y2=".92" xlink:href="#a" gradientUnits="userSpaceOnUse" gradientTransform="matrix(1.087 0 0 1.087 .644 0)"/><linearGradient id="b"><stop offset="0" stop-color="#2f2f2f"/><stop offset="1" stop-color="#171717"/></linearGradient><radialGradient id="e" cx="21.483" cy="22.169" r="21.156" xlink:href="#b" fx="21.483" fy="22.169" gradientTransform="matrix(1.087 0 0 1.087 .644 -.102)" gradientUnits="userSpaceOnUse"/><linearGradient id="c"><stop offset="0" stop-color="#373737"/><stop offset="1" stop-color="#b7b7af"/></linearGradient><linearGradient id="d" x1="16.27" x2="16.355" y1="9.041" y2="43.231" xlink:href="#c" gradientUnits="userSpaceOnUse" gradientTransform="matrix(1.087 0 0 1.087 .644 0)"/></defs><g><path fill="url(#d)" fill-rule="evenodd" d="M1 1h46v46H1z" color="#000" overflow="visible"/><path fill="url(#e)" d="M31.55 26.22c-.98-4.63-5.87-10.1-11.27-11.3-5.6-1.24-9.37-1.27-13.78 1.6-1.3.86-3.47 2.3-5.5 4.46v7.18c2.86-6.04 9.4-11.1 16.7-9.27 12.4 3.1 10.42 11.6 8.93 15.05-2.68 6.2-12.52 8.88-15.55 2.95-3.3-6.44 4.05-7.5 4.05-7.5s-1.9 1.8.5 4.2c1.65 1.65 4.8.14 5.9-2.77.96-2.54-1.1-6.07-5.64-6.45-3.82-.33-9.52 2.48-10.1 8.12-.55 5.35 1.9 7.56 5.47 9.92 3.55 2.36 11.16 3.25 15.5-.9 4.73-4.5 6.1-9.1 4.78-15.3zM1 1v14.1c2.17-1.88 3.98-2.8 4.05-2.86 7.9-4.46 14.9-2.25 19-1 6.47 2 11.56 6.97 13.76 12.07 2.57 5.94.36 17.3-8.3 23.02-.36.25-.74.46-1.12.68H47V1H1zm0 38.45V47h8.1c-.6-.32-1.15-.64-1.63-.96-2.38-1.58-4.92-3.8-6.47-6.6z"/><path fill="none" stroke="#000" d="M.5.5h47v47H.5z" color="#000" stroke-linecap="round" overflow="visible"/><path fill="url(#f)" fill-rule="evenodd" d="M1 1v22.28c14.1-4.84 34.34 8.75 46 3.65V1H1z" color="#000" overflow="visible"/><path fill="none" stroke="#fff" stroke-opacity=".531" d="M1.5 1.5h45v45h-45z" color="#000" stroke-linecap="round" overflow="visible"/></g></svg>