<svg xmlns="http://www.w3.org/2000/svg" width="48" height="48" xmlns:xlink="http://www.w3.org/1999/xlink"><defs><linearGradient id="o"><stop offset="0" stop-color="#888a85"/><stop offset="1" stop-color="#2e3436"/></linearGradient><linearGradient id="a"><stop offset="0" stop-color="#2e3436"/><stop offset="1" stop-color="#2e3436" stop-opacity="0"/></linearGradient><radialGradient id="u" cx="34.73" cy="31.048" r="5.841" xlink:href="#a" fx="34.73" fy="31.048" gradientTransform="matrix(1 0 0 .359 0 19.911)" gradientUnits="userSpaceOnUse"/><radialGradient id="b" cx="-64.877" cy="220.876" r="14.119" gradientUnits="userSpaceOnUse" gradientTransform="matrix(-1 0 0 1 55.359 0)" fy="220.876" fx="-64.877"><stop offset="0" stop-color="#ff8e6b"/><stop offset=".826" stop-color="#A40E0A"/><stop offset="1" stop-color="#660D0B"/></radialGradient><radialGradient id="v" cx="-64.877" cy="220.876" r="14.119" xlink:href="#b" gradientUnits="userSpaceOnUse" gradientTransform="matrix(-1 0 0 1 55.359 0)" fx="-64.877" fy="220.876"/><radialGradient id="c" cx="-62.017" cy="217.679" r="17.176" fx="-62.017" fy="217.679" gradientTransform="matrix(-1 0 0 1 55.359 0)" gradientUnits="userSpaceOnUse"><stop offset="0" stop-color="#fff"/><stop offset="1" stop-color="#A42522"/></radialGradient><radialGradient id="w" cx="-62.017" cy="217.679" r="17.176" xlink:href="#c" gradientUnits="userSpaceOnUse" gradientTransform="matrix(-1 0 0 1 55.359 0)" fx="-62.017" fy="217.679"/><linearGradient id="x" x1="11.476" x2="15.159" y1="31.183" y2="33.468" xlink:href="#d" gradientUnits="userSpaceOnUse" gradientTransform="matrix(.926 0 0 .926 1.99 2.963)"/><linearGradient id="e" x1="-100.206" x2="-83.826" y1="222.647" y2="222.647" gradientTransform="translate(191.69)" gradientUnits="userSpaceOnUse"><stop offset=".028" stop-color="#84A8C9"/><stop offset=".108" stop-color="#88ABCB"/><stop offset=".191" stop-color="#95B5CE"/><stop offset=".253" stop-color="#A3C0D3"/><stop offset=".294" stop-color="#9CBBD0"/><stop offset=".355" stop-color="#88ACCA"/><stop offset=".427" stop-color="#6A94BE"/><stop offset=".508" stop-color="#4177AF"/><stop offset=".511" stop-color="#3F76AF"/><stop offset=".736" stop-color="#224987"/><stop offset=".829" stop-color="#244D8A"/><stop offset=".924" stop-color="#2A5794"/><stop offset="1" stop-color="#3065A0"/></linearGradient><linearGradient id="y" x1="-100.206" x2="-83.826" y1="222.647" y2="222.647" xlink:href="#e" gradientUnits="userSpaceOnUse" gradientTransform="matrix(.754 0 0 .752 85.404 -143.599)"/><radialGradient id="f" cx="-37.291" cy="214.005" r="19.446" gradientUnits="userSpaceOnUse" gradientTransform="matrix(-1 0 0 .847 55.653 28.519)" fy="214.005" fx="-37.291"><stop offset="0" stop-color="#fff"/><stop offset="1" stop-color="#224987"/></radialGradient><radialGradient id="z" cx="-37.291" cy="214.005" r="19.446" xlink:href="#f" gradientUnits="userSpaceOnUse" gradientTransform="matrix(-.754 0 0 .637 -17.116 -122.154)" fx="-37.291" fy="214.005"/><radialGradient id="g" cx="-38.266" cy="214.142" r="20.102" fx="-38.266" fy="214.142" gradientTransform="matrix(-1 0 0 1 55.653 0)" gradientUnits="userSpaceOnUse"><stop offset="0" stop-color="#fff"/><stop offset="1" stop-color="#3065A0"/></radialGradient><radialGradient id="A" cx="-38.266" cy="214.142" r="20.102" xlink:href="#g" gradientUnits="userSpaceOnUse" gradientTransform="matrix(-1 0 0 1 55.653 0)" fx="-38.266" fy="214.142"/><linearGradient id="d"><stop offset="0" stop-color="#2e3436"/><stop offset="1" stop-color="#2e3436" stop-opacity="0"/></linearGradient><linearGradient id="B" x1="26.968" x2="33.587" y1="33.468" y2="36.857" xlink:href="#d" gradientUnits="userSpaceOnUse" gradientTransform="matrix(.926 0 0 .926 1.99 2.963)"/><linearGradient id="h" x1="103.99" x2="118.07" y1="229.561" y2="229.189" gradientUnits="userSpaceOnUse"><stop offset="0" stop-color="#fff"/><stop offset=".078" stop-color="#FEFDEC"/><stop offset=".236" stop-color="#FCF7BB"/><stop offset=".459" stop-color="#F8ED6D"/><stop offset=".539" stop-color="#F6E94F"/><stop offset=".641" stop-color="#F5E84A"/><stop offset=".755" stop-color="#F3E43E"/><stop offset=".876" stop-color="#F0DD29"/><stop offset="1" stop-color="#EBD30F"/><stop offset="1" stop-color="#EBD30F"/></linearGradient><linearGradient id="C" x1="103.99" x2="118.07" y1="229.561" y2="229.189" xlink:href="#h" gradientUnits="userSpaceOnUse" gradientTransform="matrix(.754 0 0 .752 -60.147 -144.088)"/><linearGradient id="i" x1="107.77" x2="105.604" y1="228.699" y2="227.569" gradientUnits="userSpaceOnUse"><stop offset="0" stop-color="#EFEEEC"/><stop offset="1" stop-color="#F6E94F"/></linearGradient><linearGradient id="D" x1="107.77" x2="105.604" y1="228.699" y2="227.569" xlink:href="#i" gradientUnits="userSpaceOnUse" gradientTransform="matrix(.754 0 0 .752 -60.147 -144.088)"/><linearGradient id="j" x1="105.57" x2="115.738" y1="226.415" y2="240.775" gradientUnits="userSpaceOnUse"><stop offset="0" stop-color="#FAFAFA"/><stop offset=".579" stop-color="#F6E94F"/><stop offset=".693" stop-color="#F3E54B"/><stop offset=".793" stop-color="#EAD740"/><stop offset=".888" stop-color="#DBC32F"/><stop offset=".98" stop-color="#C8A61A"/><stop offset="1" stop-color="#C3A016"/></linearGradient><linearGradient id="E" x1="105.57" x2="115.738" y1="226.415" y2="240.775" xlink:href="#j" gradientUnits="userSpaceOnUse"/><radialGradient id="k" cx="96.07" cy="217.459" r="30.602" fx="96.07" fy="217.459" gradientTransform="matrix(1 0 0 .847 0 28.519)" gradientUnits="userSpaceOnUse"><stop offset="0" stop-color="#fff"/><stop offset=".066" stop-color="#F4F7FA"/><stop offset=".182" stop-color="#D7E1EC"/><stop offset=".335" stop-color="#A7BDD7"/><stop offset=".516" stop-color="#668DB9"/><stop offset=".652" stop-color="#3065A0"/><stop offset=".916" stop-color="#1A3A6B"/></radialGradient><radialGradient id="F" cx="96.07" cy="217.459" r="30.602" xlink:href="#k" gradientUnits="userSpaceOnUse" gradientTransform="matrix(1 0 0 .847 0 28.519)" fx="96.07" fy="217.459"/><linearGradient id="l"><stop offset="0" stop-color="#ffae00"/><stop offset="1" stop-color="#ff3600"/></linearGradient><radialGradient cx="21.483" cy="22.169" r="21.156" xlink:href="#l" fx="21.483" fy="22.169" gradientTransform="matrix(.732 0 0 .732 -12.239 5.306)" gradientUnits="userSpaceOnUse"/><linearGradient id="p"><stop offset="0" stop-color="#2e3436" stop-opacity=".627"/><stop offset="1" stop-color="#2e3436" stop-opacity="0"/></linearGradient><linearGradient id="n"><stop offset="0" stop-color="#d7d7d2"/><stop offset=".25" stop-color="#e6e6e4"/><stop offset="1" stop-color="#fdfdfd"/></linearGradient><linearGradient id="m"><stop offset="0" stop-color="#767873"/><stop offset="1"/></linearGradient><linearGradient id="s" x1="10.268" x2="32.108" y1="-.31" y2="47.619" xlink:href="#m" gradientUnits="userSpaceOnUse" gradientTransform="matrix(.935 0 0 .926 5.29 .293)"/><linearGradient id="r" x1="7.188" x2="40.661" y1="1.518" y2="43.705" xlink:href="#n" gradientUnits="userSpaceOnUse" gradientTransform="matrix(.989 0 0 .989 .265 .261)"/><linearGradient id="t" x1="28.462" x2="36.768" y1="1.381" y2="10.376" xlink:href="#o" gradientUnits="userSpaceOnUse" gradientTransform="matrix(1.142 0 0 1.148 -2.522 .236)"/><radialGradient id="q" cx="23.714" cy="44.19" r="23.27" xlink:href="#p" fx="23.714" fy="44.19" gradientTransform="matrix(1 0 0 .142 0 37.921)" gradientUnits="userSpaceOnUse"/><radialGradient cx="10.075" cy="41.236" r="16.472" xlink:href="#l" fx="10.075" fy="41.236" gradientTransform="matrix(1.77 .032 -.032 1.783 -6.039 -33.187)" gradientUnits="userSpaceOnUse"/></defs><g><path fill="url(#q)" fill-rule="evenodd" d="M46.98 44.2a23.27 3.3 0 1 1-46.54 0 23.27 3.3 0 1 1 46.54 0z" transform="matrix(1 0 0 1.173 .26 -7.664)" color="#000" overflow="visible"/><path fill="url(#r)" fill-rule="evenodd" stroke="url(#s)" stroke-width="1.5" d="M6.7.76h21.86l12.75 12.4v31.1H6.7V.77z" color="#000" stroke-linejoin="round" overflow="visible"/><path fill="none" stroke="#fff" d="M7.87 2H30.5l9.63 8.88v32.16H7.87V2z" color="#000" overflow="visible"/><path fill-opacity=".063" fill-rule="evenodd" d="M28.03 1.36c-.7 4.15-.9 10.28-1 12.76-.04.68.42 1.1 1.03.88 2.77-.23 9.5-.7 12.76-1.43l-12.8-12.2z" color="#000" overflow="visible"/><path fill-opacity=".063" fill-rule="evenodd" d="M28.04 1.23c-.12 4.13-.36 9.6-.46 12.05-.06.88.65 1.3 1.5 1.17 2.77-.24 8.6-.73 11.78-.96L28.04 1.22z" color="#000" overflow="visible"/><path fill-opacity=".063" fill-rule="evenodd" d="M28.07 1.4c.85 4.07.3 9.72.17 11.32-.08.96.68 1.15 1.45 1.04 1.63-.22 7.8-.67 11.2-.1L28.07 1.38z" color="#000" overflow="visible"/><path fill="#fff" fill-rule="evenodd" stroke="url(#t)" stroke-width="1.5" d="M28.8.8c1.75 5.74 1 11.45 1 11.45s7.75-.85 11.58.68C40.08 7.43 34.5 2.75 28.8.8z" color="#000" stroke-linejoin="round" overflow="visible"/><path fill="url(#u)" fill-rule="evenodd" d="M40.57 31.05a5.84 2.1 0 1 1-11.68 0 5.84 2.1 0 1 1 11.67 0z" transform="matrix(.957 0 0 1.024 .294 .384)" color="#000" overflow="visible"/><circle cx="122.958" cy="224.694" r="9.443" fill="url(#v)" stroke="#470907" stroke-width="1.328" transform="matrix(.754 0 0 .752 -61.236 -143.436)"/><g transform="matrix(.754 0 0 .752 -61.236 -143.436)"><radialGradient cx="-62.017" cy="217.679" r="17.176" gradientUnits="userSpaceOnUse" gradientTransform="matrix(-1 0 0 1 55.359 0)" fy="217.679" fx="-62.017"><stop offset="0" stop-color="#fff"/><stop offset="1" stop-color="#A42522"/></radialGradient><path fill="url(#w)" d="M122.96 215.5c-5.07 0-9.2 4.12-9.2 9.2 0 5.06 4.13 9.2 9.2 9.2 5.07 0 9.2-4.14 9.2-9.2 0-5.08-4.13-9.2-9.2-9.2zm0 17.76c-4.73 0-8.57-3.84-8.57-8.57s3.83-8.57 8.56-8.57c4.72 0 8.57 3.84 8.57 8.56 0 4.72-3.85 8.56-8.57 8.56z"/></g><path fill="url(#x)" fill-rule="evenodd" d="M10.92 30.9l6.88.43-.7 3.56-6.18-4z"/><path fill="url(#y)" d="M22.23 15.15v13.08c0 1.1-.6 2.18-1.8 3.02-2.42 1.66-6.32 1.66-8.73 0-1.2-.83-1.8-1.7-1.8-2.8v-13.3"/><path fill="url(#z)" d="M11.7 13.57c-2.4 1.17-2.4 3.08 0 4.26 2.4 1.17 6.3 1.17 8.72 0 2.4-1.18 2.4-3.1 0-4.26-2.4-1.18-6.32-1.18-8.72 0z"/><g transform="matrix(.754 0 0 .752 -59.058 -143.599)"><radialGradient cx="-38.266" cy="214.142" r="20.102" gradientUnits="userSpaceOnUse" gradientTransform="matrix(-1 0 0 1 55.653 0)" fy="214.142" fx="-38.266"><stop offset="0" stop-color="#fff"/><stop offset="1" stop-color="#3065A0"/></radialGradient><path fill="url(#A)" d="M107.38 212.34v16.07c0 1.4-.78 2.7-2.2 3.68-3.05 2.1-7.98 2.1-11.02 0-1.43-1-2.2-2-2.2-3.37v-16.28l.87.46v15.83c0 1.16.47 1.77 1.72 2.63 2.82 1.96 7.4 1.96 10.24 0 1.23-.86 1.7-1.77 1.7-2.92v-15.55l.88-.5z"/></g><path fill="none" stroke="#003745" d="M22.23 15.64v12.3c0 1.1-.6 2.16-1.8 2.98-2.42 1.63-6.33 1.63-8.74 0-1.22-.82-1.82-1.67-1.82-2.75V15.65c0-.75.6-1.5 1.82-2.1 2.4-1.14 6.3-1.14 8.72 0 1.2.6 1.8 1.34 1.8 2.1z"/><path fill="url(#B)" fill-rule="evenodd" d="M21.7 37.28l10-4.45 3.34 5.5-13.35-1.05z" color="#000" overflow="visible"/><path fill="url(#C)" d="M31.22 33.12c0 2.16-2.67 3.74-7.72 3.74-4.45 0-7.32-1.68-7.32-3.7 0-.07.03-.16.07-.22l7.3-12.9c.08-.16.23-.16.3 0l7.3 12.86c.04.06.07.14.07.22z"/><path fill="url(#D)" d="M23.82 19.9l-5.04 16.13c-2.13-.7-2.82-2.38-2.53-3.1l7.47-13.03h.1z"/><path fill="none" stroke="#540" d="M31 32.57c.17.28.25.58.25.88 0 1.93-3.36 3.4-7.52 3.4-4.15 0-7.5-1.47-7.5-3.4 0-.36.1-.7.32-1.03l7.2-12.54L31 32.58z"/><g transform="matrix(.754 0 0 .752 -60.147 -144.088)"><linearGradient x1="105.57" x2="115.738" y1="226.415" y2="240.775" gradientUnits="userSpaceOnUse"><stop offset="0" stop-color="#FAFAFA"/><stop offset=".579" stop-color="#F6E94F"/><stop offset=".693" stop-color="#F3E54B"/><stop offset=".793" stop-color="#EAD740"/><stop offset=".888" stop-color="#DBC32F"/><stop offset=".98" stop-color="#C8A61A"/><stop offset="1" stop-color="#C3A016"/></linearGradient><path fill="url(#E)" d="M111.1 219l-9.1 15.88c-.27.4-.4.8-.4 1.22 0 2.36 4.35 4.27 9.7 4.27 5.36 0 9.7-1.9 9.7-4.27 0-.35-.1-.7-.28-1.04 0 0-9.4-16.46-9.4-16.46l-.22.4zm-8.96 17.1c0-.3.1-.6.3-.92l.03-.05s8.4-14.68 8.86-15.45c.44.77 8.92 15.64 8.92 15.64.15.26.22.53.22.78 0 2-4.28 3.73-9.16 3.73s-9.16-1.74-9.16-3.73z"/></g><g transform="matrix(.715 0 0 .752 -55.09 -143.284)"><radialGradient cx="96.07" cy="217.459" r="30.602" gradientUnits="userSpaceOnUse" gradientTransform="matrix(1 0 0 .847 0 28.519)" fy="217.459" fx="96.07"><stop offset="0" stop-color="#fff"/><stop offset=".066" stop-color="#F4F7FA"/><stop offset=".182" stop-color="#D7E1EC"/><stop offset=".335" stop-color="#A7BDD7"/><stop offset=".516" stop-color="#668DB9"/><stop offset=".652" stop-color="#3065A0"/><stop offset=".916" stop-color="#1A3A6B"/></radialGradient><path fill="url(#F)" d="M93.98 208.92c-1.58.77-2.44 1.8-2.44 2.92 0 1.12.86 2.15 2.44 2.92 3.14 1.54 8.26 1.54 11.4 0 1.57-.77 2.44-1.8 2.44-2.92 0-1.1-.87-2.15-2.44-2.92-3.14-1.54-8.26-1.54-11.4 0zm.6 5.3c-1.3-.65-2.03-1.5-2.03-2.38 0-.88.72-1.73 2.03-2.37 2.8-1.37 7.4-1.37 10.2 0 1.3.64 2.03 1.5 2.03 2.37 0 .88-.7 1.73-2.02 2.37-2.8 1.38-7.4 1.38-10.2 0zm-.6-5.3z"/></g></g></svg>