<svg xmlns="http://www.w3.org/2000/svg" width="48" height="48"><defs><radialGradient id="a" cx="3.354" cy="64.32" r="40.528" gradientUnits="userSpaceOnUse" fy="64.32" fx="3.354"><stop offset="0" stop-color="#fff"/><stop offset="1" stop-color="#8794A0"/></radialGradient><radialGradient id="b" cx="23.731" cy="82.548" r="22.046" gradientUnits="userSpaceOnUse" fy="82.548" fx="23.731"><stop offset="0" stop-color="#DEE0E1"/><stop offset="1" stop-color="#8794A0"/></radialGradient><radialGradient id="c" cx="4.075" cy="60.459" r="25.602" gradientUnits="userSpaceOnUse" fy="60.459" fx="4.075"><stop offset="0" stop-color="#fff"/><stop offset="1" stop-color="#8794A0"/></radialGradient><radialGradient id="d" cx="28.949" cy="90.481" r="9.904" gradientUnits="userSpaceOnUse" fy="90.481" fx="28.949"><stop offset="0" stop-color="#DEE0E1"/><stop offset="1" stop-color="#8794A0"/></radialGradient><radialGradient id="e" cx="12.254" cy="75.311" r="51.706" gradientUnits="userSpaceOnUse" fy="75.311" fx="12.254"><stop offset="0" stop-color="#fff"/><stop offset="1" stop-color="#8794A0"/></radialGradient><radialGradient id="f" cx="17.895" cy="69.881" r="19.485" gradientUnits="userSpaceOnUse" fy="69.881" fx="17.895"><stop offset="0" stop-color="#fff"/><stop offset="1" stop-color="#8794A0"/></radialGradient><radialGradient id="g" cx="43.079" cy="95.431" r="28.272" gradientUnits="userSpaceOnUse" fy="95.431" fx="43.079"><stop offset="0" stop-color="#DEE0E1"/><stop offset="1" stop-color="#8794A0"/></radialGradient><radialGradient id="h" cx="20.407" cy="70.887" r="9.774" gradientUnits="userSpaceOnUse" fy="70.887" fx="20.407"><stop offset="0" stop-color="#fff"/><stop offset="1" stop-color="#8794A0"/></radialGradient><radialGradient id="i" cx="14.251" cy="67.37" r="26.849" gradientUnits="userSpaceOnUse" fy="67.37" fx="14.251"><stop offset="0" stop-color="#fff"/><stop offset="1" stop-color="#8794A0"/></radialGradient><radialGradient id="j" cx="38.372" cy="72.772" r="5.35" gradientUnits="userSpaceOnUse" fy="72.772" fx="38.372"><stop offset="0" stop-color="#DEE0E1"/><stop offset="1" stop-color="#8794A0"/></radialGradient><linearGradient x1="745.539" x2="730.34" y1="580.69" y2="580.69" gradientTransform="matrix(-.334 -.943 .943 -.334 -289.275 970.888)" gradientUnits="userSpaceOnUse"><stop offset="0" stop-color="#E96712"/><stop offset=".648" stop-color="#D4290C"/><stop offset="1" stop-color="#CB1009"/></linearGradient><linearGradient x1="4.284" x2="19.475" y1="76.406" y2="92.724" gradientUnits="userSpaceOnUse" gradientTransform="matrix(1.051 0 0 1.051 -2.697 -59.438)"><stop offset="0" stop-color="#E96712"/><stop offset=".648" stop-color="#D4290C"/><stop offset="1" stop-color="#CB1009"/></linearGradient><radialGradient id="k" cx="256.819" cy="81.353" r="14.891" gradientUnits="userSpaceOnUse" gradientTransform="matrix(-1 0 0 1 289.322 0)" fy="81.353" fx="256.819"><stop offset=".006" stop-color="#fff"/><stop offset=".405" stop-color="#DEE0E1"/><stop offset=".882" stop-color="#8794A0"/></radialGradient></defs><g><path fill="none" stroke="#192333" stroke-width="1.08.387" d="M8.97 25.48L.9 19.44.8 8.18l10.56-4.02 8.35 5.18-.62 11.6z"/><path fill="url(#a)" d="M12.24 77.1V66.23L4.7 61.1l.07 10.4z" transform="matrix(1.081 0 0 1.081 -4.266 -57.886)"/><path fill="url(#b)" d="M12.24 66.24V77.1l9.35-4.22.57-10.72z" transform="matrix(1.081 0 0 1.081 -4.266 -57.886)"/><path fill="none" stroke="#192333" stroke-width="1.08.387" d="M33.2 21.15l-.13 5.13-3.1 4.92-4.64 2.36-5.85-.25-3.83-2.85-2.46-5.3v-5.12l3.2-4.77 4.64-1.97 5.55.28 3.94 2.45z"/><path fill="url(#c)" d="M12.24 66.24l9.93-4.08-7.72-4.8L4.7 61.1z" transform="matrix(1.081 0 0 1.081 -4.266 -57.886)"/><path fill="url(#d)" d="M27.38 84.6l-2.93-1.75-2.48 1.5 5.4.25" transform="matrix(1.081 0 0 1.081 -4.266 -57.886)"/><path fill="url(#e)" d="M24.45 82.85l-2.48 1.5-3.54-2.63-2.28-4.9.02-4.75 2.32-1.57 3.58 2.45 2.45 4.98z" transform="matrix(1.081 0 0 1.081 -4.266 -57.886)"/><path fill="url(#f)" d="M19.12 67.67l-2.95 4.4 2.32-1.57z" transform="matrix(1.081 0 0 1.081 -4.266 -57.886)"/><path fill="url(#g)" d="M34.67 73.1l-2.78-1.86-4.35 2.02-3.02 4.67-.08 4.92 2.93 1.75 4.3-2.18 2.86-4.56z" transform="matrix(1.081 0 0 1.081 -4.266 -57.886)"/><path fill="url(#h)" d="M27.55 73.25l-5.47-.3 2.45 4.98z" transform="matrix(1.081 0 0 1.081 -4.266 -57.886)"/><path fill="url(#i)" d="M28.55 66.1l3.64 2.28-.3 2.86-4.35 2.02-5.47-.3-3.6-2.46.64-2.83 4.3-1.83z" transform="matrix(1.081 0 0 1.081 -4.266 -57.886)"/><path fill="url(#j)" d="M34.67 73.1L32.2 68.4l-.3 2.86z" transform="matrix(1.081 0 0 1.081 -4.266 -57.886)"/><g transform="matrix(1.081 0 0 1.081 -4.266 -57.886)"><circle cx="37.997" cy="82.795" r="9.557" fill="none" stroke="#1b2433" stroke-width="1.387"/></g><g transform="matrix(1.081 0 0 1.081 -4.266 -57.886)"><radialGradient cx="256.819" cy="81.353" r="14.891" gradientUnits="userSpaceOnUse" gradientTransform="matrix(-1 0 0 1 289.322 0)" fy="81.353" fx="256.819"><stop offset=".006" stop-color="#fff"/><stop offset=".405" stop-color="#DEE0E1"/><stop offset=".882" stop-color="#8794A0"/></radialGradient><circle cx="37.997" cy="82.795" r="9.557" fill="url(#k)"/></g></g></svg>