<svg xmlns="http://www.w3.org/2000/svg" width="48" height="48" xmlns:xlink="http://www.w3.org/1999/xlink"><defs><linearGradient id="v"><stop offset="0" stop-color="#2e3436"/><stop offset="1" stop-color="#2e3436" stop-opacity="0"/></linearGradient><linearGradient id="a"><stop offset="0" stop-color="#fff"/><stop offset="1" stop-color="#fff" stop-opacity="0"/></linearGradient><linearGradient id="A" x1="43.688" x2="26.625" y1="32.133" y2="32.133" xlink:href="#a" gradientUnits="userSpaceOnUse" gradientTransform="matrix(1.084 .306 -.306 1.084 3.279 -9.452)"/><linearGradient id="b"><stop offset="0" stop-color="#fff"/><stop offset="1" stop-color="#fff" stop-opacity="0"/></linearGradient><linearGradient id="B" x1="21.032" x2="21.108" y1="31.868" y2="-4.599" xlink:href="#b" gradientUnits="userSpaceOnUse"/><linearGradient id="c"><stop offset="0" stop-color="#888a85"/><stop offset="1" stop-color="#b8b9b6"/></linearGradient><linearGradient id="y" x1="23.816" x2="29.049" y1="12.75" y2="25.772" xlink:href="#c" gradientUnits="userSpaceOnUse"/><radialGradient id="d" cx="9.342" cy="22.614" r="14.152" fx="9.342" fy="22.614" gradientUnits="userSpaceOnUse"><stop offset="0" stop-color="#767676"/><stop offset="1" stop-color="#484848"/></radialGradient><radialGradient id="z" cx="20.656" cy="24.735" r="14.152" fy="24.735" fx="20.656" gradientUnits="userSpaceOnUse" xlink:href="#d" gradientTransform="matrix(1.084 .306 -.306 1.084 3.204 -1.025)"/><linearGradient id="e"><stop offset="0"/><stop offset="1" stop-opacity="0"/></linearGradient><radialGradient id="x" cx="23.158" cy="26.964" r="21.567" xlink:href="#e" fx="23.158" fy="26.964" gradientTransform="matrix(1 0 0 .664 0 9.062)" gradientUnits="userSpaceOnUse"/><radialGradient cx="745.165" cy="1182.492" r="1.573" gradientUnits="userSpaceOnUse" fy="1182.492" fx="745.165" gradientTransform="translate(-729.065 -1145.242)"><stop offset=".006" stop-color="#E6E7E7"/><stop offset=".579" stop-color="#B9BFC2"/><stop offset="1" stop-color="#A1A9B2"/></radialGradient><linearGradient x1="745.653" x2="745.654" y1="1181.189" y2="1185.853" gradientUnits="userSpaceOnUse" gradientTransform="translate(-729.065 -1145.242)"><stop offset="0" stop-color="#171819"/><stop offset=".118" stop-color="#46484C"/><stop offset=".343" stop-color="#2E3133"/><stop offset=".646"/><stop offset=".927" stop-color="#3A3C40"/><stop offset="1"/></linearGradient><linearGradient x1="746.87" x2="746.26" y1="1186.412" y2="1180.843" gradientUnits="userSpaceOnUse" gradientTransform="translate(-729.065 -1145.242)"><stop offset=".006" stop-color="#A1A9B2"/><stop offset=".579" stop-color="#B9BFC2"/><stop offset="1" stop-color="#E6E7E7"/></linearGradient><linearGradient x1="747.545" x2="747.69" y1="1180.876" y2="1186.082" gradientUnits="userSpaceOnUse" gradientTransform="translate(-729.065 -1145.242)"><stop offset="0" stop-color="#B9BFC2"/><stop offset=".163" stop-color="#E8ECED"/><stop offset=".219" stop-color="#E8ECED"/><stop offset=".5" stop-color="#A1A9B2"/><stop offset=".652" stop-color="#A1A9B2"/><stop offset="1" stop-color="#B9BFC2"/></linearGradient><linearGradient x1="756.873" x2="759.169" y1="1183.245" y2="1190.285" gradientUnits="userSpaceOnUse"><stop offset=".006" stop-color="#969DA6"/><stop offset=".579" stop-color="#B9BFC2"/><stop offset="1" stop-color="#D6D7D8"/></linearGradient><linearGradient x1="755.972" x2="755.84" y1="1183.127" y2="1189.468" gradientUnits="userSpaceOnUse" gradientTransform="translate(-729.065 -1145.242)"><stop offset="0" stop-color="#171819"/><stop offset=".118" stop-color="#46484C"/><stop offset=".343" stop-color="#2E3133"/><stop offset=".646"/><stop offset=".927" stop-color="#3A3C40"/><stop offset="1"/></linearGradient><radialGradient cx="756.674" cy="1186.637" r="2.021" gradientUnits="userSpaceOnUse" fy="1186.637" fx="756.674"><stop offset=".006" stop-color="#fff"/><stop offset=".225" stop-color="#FFFFFD"/><stop offset=".343" stop-color="#FDFDF4"/><stop offset=".437" stop-color="#FBFBE5"/><stop offset=".517" stop-color="#F7F8D1"/><stop offset=".534" stop-color="#F6F7CC"/><stop offset=".815" stop-color="#F9EAC9"/><stop offset="1" stop-color="#fff"/></radialGradient><linearGradient x1="758.511" x2="757.125" y1="1183.611" y2="1188.988" gradientUnits="userSpaceOnUse" gradientTransform="translate(-729.065 -1145.242)"><stop offset=".006" stop-color="#A1A8B2"/><stop offset=".118" stop-color="#F3F3F3"/><stop offset=".455" stop-color="#EBEEEE"/><stop offset=".714" stop-color="#fff"/><stop offset="1" stop-color="#D2D8D7"/></linearGradient><linearGradient x1="754.033" x2="758.252" y1="1182.086" y2="1191.206" gradientUnits="userSpaceOnUse" gradientTransform="translate(-729.065 -1145.242)"><stop offset=".332" stop-color="#B8C4CA"/><stop offset="1" stop-color="#899099"/></linearGradient><linearGradient x1="737.51" x2="752.074" y1="1196.554" y2="1180.138" gradientUnits="userSpaceOnUse" gradientTransform="translate(-729.065 -1145.242)"><stop offset="0" stop-color="#DBE0E1"/><stop offset=".758" stop-color="#B6C3CA"/><stop offset="1" stop-color="#A1A8B2"/></linearGradient><linearGradient x1="751.77" x2="752.265" y1="1179.184" y2="1192.111" gradientUnits="userSpaceOnUse" gradientTransform="translate(-729.065 -1145.242)"><stop offset="0" stop-color="#DBE0E1"/><stop offset=".067" stop-color="#B6C3CA"/><stop offset=".489" stop-color="#DCE0E1"/><stop offset=".809" stop-color="#DCE0E1"/><stop offset=".871" stop-color="#899099"/><stop offset="1" stop-color="#B6C3CA"/></linearGradient><linearGradient x1="751.482" x2="756.755" y1="1173.85" y2="1194.47" gradientUnits="userSpaceOnUse" gradientTransform="translate(-729.065 -1145.242)"><stop offset="0" stop-color="#DBE0E1"/><stop offset=".758" stop-color="#B6C3CA"/><stop offset="1" stop-color="#899099"/></linearGradient><linearGradient x1="761.715" x2="762.048" y1="1174.57" y2="1196.127" gradientUnits="userSpaceOnUse" gradientTransform="translate(-729.065 -1145.242)"><stop offset="0" stop-color="#A0A7B2"/><stop offset=".039" stop-color="#B7CAD4"/><stop offset=".483" stop-color="#CEDADE"/><stop offset="1" stop-color="#888F99"/></linearGradient><linearGradient x1="753.75" x2="753.442" y1="1196.94" y2="1193.301" gradientUnits="userSpaceOnUse"><stop offset="0" stop-color="#DBE0E1"/><stop offset=".14" stop-color="#B6C3CA"/><stop offset=".36" stop-color="#7E848C"/><stop offset=".427" stop-color="#7E848C"/><stop offset=".876" stop-color="#B6C3CA"/></linearGradient><linearGradient x1="760.154" x2="758.313" y1="1186.292" y2="1201.585" gradientUnits="userSpaceOnUse"><stop offset="0" stop-color="#DBE0E1"/><stop offset=".489" stop-color="#E9ECED"/><stop offset=".758" stop-color="#B6C3CA"/><stop offset="1" stop-color="#A1A8B2"/></linearGradient><linearGradient x1="733.079" x2="752.542" y1="1193.486" y2="1198.708" gradientUnits="userSpaceOnUse"><stop offset="0" stop-color="#DBE0E1"/><stop offset=".758" stop-color="#B6C3CA"/><stop offset="1" stop-color="#A1A8B2"/></linearGradient><linearGradient x1="740.288" x2="742.544" y1="1163.079" y2="1184.708" gradientUnits="userSpaceOnUse"><stop offset="0" stop-color="#E9EDEE"/><stop offset=".758" stop-color="#B6C3CA"/><stop offset="1" stop-color="#A1A8B2"/></linearGradient><linearGradient x1="742.165" x2="740.913" y1="1167.999" y2="1178.994" gradientUnits="userSpaceOnUse"><stop offset="0" stop-color="#27282B"/><stop offset=".23" stop-color="#27282B"/><stop offset=".483" stop-color="#46484C"/><stop offset=".646"/><stop offset="1"/></linearGradient><linearGradient x1="740.344" x2="743.552" y1="1168.334" y2="1177.88" gradientUnits="userSpaceOnUse"><stop offset="0" stop-color="#27282B"/><stop offset=".062" stop-color="#27282B"/><stop offset=".332" stop-color="#46484C"/><stop offset=".472" stop-color="#46484C"/><stop offset=".747"/><stop offset="1"/></linearGradient><linearGradient x1="741.214" x2="744.2" y1="1162.433" y2="1184.064" gradientUnits="userSpaceOnUse"><stop offset="0" stop-color="#ABB7BE"/><stop offset="1" stop-color="#7E848C"/></linearGradient><linearGradient x1="759.503" x2="770.585" y1="1152.774" y2="1182.598" gradientUnits="userSpaceOnUse"><stop offset="0" stop-color="#E9EDEE"/><stop offset=".758" stop-color="#B6C3CA"/><stop offset="1" stop-color="#A1A8B2"/></linearGradient><linearGradient x1="759.422" x2="762.211" y1="1178.072" y2="1171.575" gradientUnits="userSpaceOnUse"><stop offset="0" stop-color="#27282B"/><stop offset=".062" stop-color="#27282B"/><stop offset=".157" stop-color="#46484C"/><stop offset=".646"/><stop offset="1"/></linearGradient><linearGradient x1="759.301" x2="768.155" y1="1167.034" y2="1163.774" gradientUnits="userSpaceOnUse" gradientTransform="translate(-729.065 -1145.242)"><stop offset="0" stop-color="#27282B"/><stop offset=".23" stop-color="#27282B"/><stop offset=".483" stop-color="#46484C"/><stop offset=".646"/><stop offset="1"/></linearGradient><linearGradient x1="764.75" x2="765.139" y1="1157.428" y2="1173.239" gradientUnits="userSpaceOnUse" gradientTransform="translate(-729.065 -1145.242)"><stop offset="0" stop-color="#27282B"/><stop offset=".062" stop-color="#27282B"/><stop offset=".332" stop-color="#46484C"/><stop offset=".472" stop-color="#46484C"/><stop offset=".747"/><stop offset="1"/></linearGradient><linearGradient x1="760.679" x2="768.714" y1="1142.194" y2="1177.367" gradientUnits="userSpaceOnUse"><stop offset="0" stop-color="#ABB7BE"/><stop offset="1" stop-color="#7E848C"/></linearGradient><linearGradient x1="21.933" x2="21.933" y1="24.627" y2="7.109" gradientUnits="userSpaceOnUse"><stop offset="0" stop-color="#D0D6E5"/><stop offset="1" stop-color="#093A80"/></linearGradient><linearGradient x1="21.933" x2="21.933" y1="24.627" y2="7.109" gradientUnits="userSpaceOnUse"><stop offset="0" stop-color="#8595bc"/><stop offset="1" stop-color="#041a3b"/></linearGradient><linearGradient id="f"><stop offset="0" stop-color="#2e3436"/><stop offset="1" stop-color="#2e3436" stop-opacity="0"/></linearGradient><radialGradient cx="34.73" cy="31.048" r="5.841" xlink:href="#f" fx="34.73" fy="31.048" gradientTransform="matrix(1 0 0 .359 0 19.911)" gradientUnits="userSpaceOnUse"/><radialGradient id="g" cx="-64.877" cy="220.876" r="14.119" gradientUnits="userSpaceOnUse" gradientTransform="matrix(-1 0 0 1 55.359 0)" fy="220.876" fx="-64.877"><stop offset="0" stop-color="#ff8e6b"/><stop offset=".826" stop-color="#A40E0A"/><stop offset="1" stop-color="#660D0B"/></radialGradient><radialGradient cx="-64.877" cy="220.876" r="14.119" xlink:href="#g" gradientUnits="userSpaceOnUse" gradientTransform="matrix(-1 0 0 1 55.359 0)" fx="-64.877" fy="220.876"/><radialGradient id="h" cx="-62.017" cy="217.679" r="17.176" fx="-62.017" fy="217.679" gradientTransform="matrix(-1 0 0 1 55.359 0)" gradientUnits="userSpaceOnUse"><stop offset="0" stop-color="#fff"/><stop offset="1" stop-color="#A42522"/></radialGradient><radialGradient cx="-62.017" cy="217.679" r="17.176" xlink:href="#h" gradientUnits="userSpaceOnUse" gradientTransform="matrix(-1 0 0 1 55.359 0)" fx="-62.017" fy="217.679"/><linearGradient x1="11.476" x2="15.159" y1="31.183" y2="33.468" xlink:href="#i" gradientUnits="userSpaceOnUse" gradientTransform="matrix(.975 0 0 .975 .572 1.403)"/><linearGradient id="j" x1="-100.206" x2="-83.826" y1="222.647" y2="222.647" gradientTransform="translate(191.69)" gradientUnits="userSpaceOnUse"><stop offset=".028" stop-color="#84A8C9"/><stop offset=".108" stop-color="#88ABCB"/><stop offset=".191" stop-color="#95B5CE"/><stop offset=".253" stop-color="#A3C0D3"/><stop offset=".294" stop-color="#9CBBD0"/><stop offset=".355" stop-color="#88ACCA"/><stop offset=".427" stop-color="#6A94BE"/><stop offset=".508" stop-color="#4177AF"/><stop offset=".511" stop-color="#3F76AF"/><stop offset=".736" stop-color="#224987"/><stop offset=".829" stop-color="#244D8A"/><stop offset=".924" stop-color="#2A5794"/><stop offset="1" stop-color="#3065A0"/></linearGradient><linearGradient x1="-100.206" x2="-83.826" y1="222.647" y2="222.647" xlink:href="#j" gradientUnits="userSpaceOnUse" gradientTransform="matrix(.794 0 0 .792 88.409 -152.964)"/><radialGradient id="k" cx="-37.291" cy="214.005" r="19.446" gradientUnits="userSpaceOnUse" gradientTransform="matrix(-1 0 0 .847 55.653 28.519)" fy="214.005" fx="-37.291"><stop offset="0" stop-color="#fff"/><stop offset="1" stop-color="#224987"/></radialGradient><radialGradient cx="-37.291" cy="214.005" r="19.446" xlink:href="#k" gradientUnits="userSpaceOnUse" gradientTransform="matrix(-.794 0 0 .671 -19.546 -130.377)" fx="-37.291" fy="214.005"/><radialGradient id="l" cx="-38.266" cy="214.142" r="20.102" fx="-38.266" fy="214.142" gradientTransform="matrix(-1 0 0 1 55.653 0)" gradientUnits="userSpaceOnUse"><stop offset="0" stop-color="#fff"/><stop offset="1" stop-color="#3065A0"/></radialGradient><radialGradient cx="-38.266" cy="214.142" r="20.102" xlink:href="#l" gradientUnits="userSpaceOnUse" gradientTransform="matrix(-1 0 0 1 55.653 0)" fx="-38.266" fy="214.142"/><linearGradient id="i"><stop offset="0" stop-color="#2e3436"/><stop offset="1" stop-color="#2e3436" stop-opacity="0"/></linearGradient><linearGradient x1="26.968" x2="33.587" y1="33.468" y2="36.857" xlink:href="#i" gradientUnits="userSpaceOnUse" gradientTransform="matrix(.975 0 0 .975 .572 1.403)"/><linearGradient id="m" x1="103.99" x2="118.07" y1="229.561" y2="229.189" gradientUnits="userSpaceOnUse"><stop offset="0" stop-color="#fff"/><stop offset=".078" stop-color="#FEFDEC"/><stop offset=".236" stop-color="#FCF7BB"/><stop offset=".459" stop-color="#F8ED6D"/><stop offset=".539" stop-color="#F6E94F"/><stop offset=".641" stop-color="#F5E84A"/><stop offset=".755" stop-color="#F3E43E"/><stop offset=".876" stop-color="#F0DD29"/><stop offset="1" stop-color="#EBD30F"/><stop offset="1" stop-color="#EBD30F"/></linearGradient><linearGradient x1="103.99" x2="118.07" y1="229.561" y2="229.189" xlink:href="#m" gradientUnits="userSpaceOnUse" gradientTransform="matrix(.794 0 0 .792 -64.857 -153.479)"/><linearGradient id="n" x1="107.77" x2="105.604" y1="228.699" y2="227.569" gradientUnits="userSpaceOnUse"><stop offset="0" stop-color="#EFEEEC"/><stop offset="1" stop-color="#F6E94F"/></linearGradient><linearGradient x1="107.77" x2="105.604" y1="228.699" y2="227.569" xlink:href="#n" gradientUnits="userSpaceOnUse" gradientTransform="matrix(.794 0 0 .792 -64.857 -153.479)"/><linearGradient id="o" x1="105.57" x2="115.738" y1="226.415" y2="240.775" gradientUnits="userSpaceOnUse"><stop offset="0" stop-color="#FAFAFA"/><stop offset=".579" stop-color="#F6E94F"/><stop offset=".693" stop-color="#F3E54B"/><stop offset=".793" stop-color="#EAD740"/><stop offset=".888" stop-color="#DBC32F"/><stop offset=".98" stop-color="#C8A61A"/><stop offset="1" stop-color="#C3A016"/></linearGradient><linearGradient x1="105.57" x2="115.738" y1="226.415" y2="240.775" xlink:href="#o" gradientUnits="userSpaceOnUse"/><radialGradient id="p" cx="96.07" cy="217.459" r="30.602" fx="96.07" fy="217.459" gradientTransform="matrix(1 0 0 .847 0 28.519)" gradientUnits="userSpaceOnUse"><stop offset="0" stop-color="#fff"/><stop offset=".066" stop-color="#F4F7FA"/><stop offset=".182" stop-color="#D7E1EC"/><stop offset=".335" stop-color="#A7BDD7"/><stop offset=".516" stop-color="#668DB9"/><stop offset=".652" stop-color="#3065A0"/><stop offset=".916" stop-color="#1A3A6B"/></radialGradient><radialGradient cx="96.07" cy="217.459" r="30.602" xlink:href="#p" gradientUnits="userSpaceOnUse" gradientTransform="matrix(1 0 0 .847 0 28.519)" fx="96.07" fy="217.459"/><linearGradient id="q"><stop offset="0" stop-color="#ffae00"/><stop offset="1" stop-color="#ff3600"/></linearGradient><radialGradient cx="21.483" cy="22.169" r="21.156" xlink:href="#q" fx="21.483" fy="22.169" gradientTransform="matrix(.732 0 0 .732 -12.239 5.306)" gradientUnits="userSpaceOnUse"/><linearGradient id="u"><stop offset="0" stop-color="#2e3436" stop-opacity=".502"/><stop offset="1" stop-color="#2e3436" stop-opacity="0"/></linearGradient><linearGradient id="t"><stop offset="0" stop-color="#d0d0ca"/><stop offset=".25" stop-color="#e6e6e4"/><stop offset="1" stop-color="#fdfdfd"/></linearGradient><linearGradient id="s"><stop offset="0" stop-color="#fff"/><stop offset="1" stop-color="#fff" stop-opacity="0"/></linearGradient><linearGradient id="r"><stop offset="0" stop-color="#555753"/><stop offset="1"/></linearGradient><linearGradient x1="4.725" x2="37.09" y1="47.933" y2="6.704" xlink:href="#r" gradientUnits="userSpaceOnUse" gradientTransform="matrix(0 1.051 -.989 0 47.745 1.173)"/><radialGradient id="w" cx="37.379" cy="3.948" r="5.413" xlink:href="#s" fx="37.379" fy="3.948" gradientTransform="matrix(-1.375 1.315 -1.84 -1.926 102.74 -5.82)" gradientUnits="userSpaceOnUse"/><linearGradient x1="7.415" x2="37.837" y1="43.7" y2="3.624" xlink:href="#t" gradientUnits="userSpaceOnUse" gradientTransform="matrix(0 1.111 -1.057 0 47.778 -4.474)"/><linearGradient x1="28.201" x2="35.259" y1="10.586" y2="4.185" xlink:href="#r" gradientUnits="userSpaceOnUse" gradientTransform="matrix(0 1.126 -1.114 0 47.798 -1.491)"/><radialGradient cx="23.714" cy="44.19" r="23.27" xlink:href="#u" fx="23.714" fy="44.19" gradientTransform="matrix(1 0 0 .142 0 37.921)" gradientUnits="userSpaceOnUse"/><radialGradient cx="10.075" cy="41.236" r="16.472" xlink:href="#q" fx="10.075" fy="41.236" gradientTransform="matrix(1.77 .032 -.032 1.783 -6.039 -33.187)" gradientUnits="userSpaceOnUse"/><linearGradient x1="38.857" x2="41.048" y1="40.203" y2="34.965" xlink:href="#v" gradientUnits="userSpaceOnUse"/></defs><g><path fill="url(#w)" fill-rule="evenodd" d="M47.8 26.4l.25 2.38-11.7 12.03-1.9.1-.68-14.44 14.04-.07z"/><path fill="url(#x)" fill-rule="evenodd" d="M44.72 26.96a21.57 14.32 0 1 1-43.13 0 21.57 14.32 0 1 1 43.12 0z" transform="matrix(1.126 0 0 1.126 -2.22 -5.143)" opacity=".703" color="#000" overflow="visible"/><path fill="#a1a39f" fill-rule="evenodd" stroke="#6d6f6a" stroke-width=".719" d="M40.5 21A14.75 8.25 0 1 1 11 21a14.75 8.25 0 1 1 29.5 0z" transform="matrix(1.412 0 0 1.736 -14.645 -13.169)" color="#000" stroke-linecap="round" stroke-linejoin="round" overflow="visible"/><path fill="#555753" fill-rule="evenodd" d="M33.83 19.7a12.7 9.3 0 1 1-25.38 0 12.7 9.3 0 1 1 25.38 0z" color="#000" overflow="visible"/><path fill="url(#y)" fill-rule="evenodd" stroke="#757972" stroke-width="1.234" d="M40.5 21A14.75 8.25 0 1 1 11 21a14.75 8.25 0 1 1 29.5 0z" transform="matrix(.857 0 0 1.111 -.342 -6.201)" color="#000" stroke-linecap="round" stroke-linejoin="round" overflow="visible"/><path fill="url(#z)" stroke="#3b3d39" stroke-width="1.126" d="M41.13 47.15s-7.87-6.6-13.8-7.72c-6.3-1.2-16.7-3.74-18.93-11.25 15.66 10 25.98 3.66 36.2 11.77 0 0-3.47 7.2-3.47 7.2z"/><path fill="url(#A)" fill-rule="evenodd" d="M44.17 39.92l-.47.9c-7.85-5.77-16.8-5.02-25.33-7.17 11.77 2.3 16.4.3 25.8 6.27z" opacity=".703" color="#000" overflow="visible"/><path fill="#d3d7cf" fill-rule="evenodd" stroke="#61635e" stroke-width="1.126" d="M20.14 1.83C9.38 2.43.9 9.06.9 17.07c0 8.4 9.32 15.24 20.82 15.24s20.83-6.83 20.83-15.23S33.22 1.83 21.72 1.83c-.04 0-.1 0-.14 0-.27 0-.54 0-.8 0-.14 0-.27 0-.4 0-.08 0-.16 0-.24 0zM18.6 4.3c.06 0 .13 0 .2 0 .15 0 .3 0 .46 0 3.28 0 5.95 1.9 5.95 4.25 0 2.34-2.66 4.23-5.94 4.23-3.28 0-5.95-1.9-5.95-4.23 0-2.18 2.32-4 5.3-4.25zm12.94 5.17c.08 0 .14 0 .2 0 .14 0 .27 0 .4 0 .05 0 .08 0 .14 0 3.5 0 6.33 2.04 6.33 4.54s-2.83 4.5-6.32 4.5c-3.5 0-6.33-2-6.33-4.5 0-2.3 2.46-4.25 5.6-4.53zM9.9 13.02c.24-.02.52 0 .77 0 3.6 0 6.5 2.08 6.5 4.65 0 2.57-2.9 4.64-6.5 4.64s-6.5-2.06-6.5-4.63c0-2.4 2.5-4.38 5.73-4.65zm12.98 5.77c.03 0 .05 0 .07 0 0 0 .04 0 .04 0s.02 0 .02 0 .04 0 .04 0c.03 0 .08 0 .1 0 0 0 .03 0 .04 0 .27-.03.53 0 .8 0 4 0 7.22 2.28 7.22 5.13S28 29.1 24.02 29.1c-4 0-7.22-2.32-7.22-5.17 0-2.57 2.66-4.74 6.08-5.14z" color="#000" stroke-linecap="round" stroke-linejoin="round" overflow="visible"/><path fill="none" stroke="url(#B)" stroke-width="1.059" d="M40.66 19A18.47 13.44 0 1 1 3.7 19a18.47 13.44 0 1 1 36.96 0z" transform="matrix(1.07 0 0 1.056 -1.98 -3.12)" color="#000" stroke-linecap="round" stroke-linejoin="round" overflow="visible"/></g></svg>