<svg xmlns="http://www.w3.org/2000/svg" width="48" height="48" xmlns:xlink="http://www.w3.org/1999/xlink"><defs><linearGradient id="c"><stop offset="0" stop-color="#fff"/><stop offset="1" stop-color="#6c6c6c"/></linearGradient><linearGradient id="e"><stop offset="0" stop-color="#2e3436"/><stop offset="1" stop-color="#2e3436" stop-opacity="0"/></linearGradient><linearGradient id="i"><stop offset="0" stop-color="#d3d7cf"/><stop offset=".4" stop-color="#e0e6ef"/><stop offset=".5" stop-color="#fff"/><stop offset=".6" stop-color="#f6e8c0"/><stop offset="1" stop-color="#b0b8a9"/></linearGradient><linearGradient id="f"><stop offset="0" stop-color="#fff"/><stop offset="1" stop-color="#fff" stop-opacity="0"/></linearGradient><linearGradient id="g"><stop offset="0" stop-color="#fff"/><stop offset="1" stop-color="#fff" stop-opacity="0"/></linearGradient><linearGradient id="h"><stop offset="0" stop-color="#fff" stop-opacity=".327"/><stop offset="1" stop-color="#fff" stop-opacity=".604"/></linearGradient><linearGradient id="j" x1="14.997" x2="32.511" y1="11.188" y2="34.307" gradientUnits="userSpaceOnUse"><stop offset="0" stop-color="#EBEBEB"/><stop offset=".5" stop-color="#fff"/><stop offset="1" stop-color="#EBEBEB"/></linearGradient><linearGradient id="d"><stop offset="0" stop-color="#2e3436"/><stop offset="1" stop-color="#2e3436" stop-opacity="0"/></linearGradient><linearGradient><stop offset="0" stop-color="#ffae00"/><stop offset="1" stop-color="#ff3600"/></linearGradient><linearGradient id="a"><stop offset="0" stop-color="#fff" stop-opacity=".515"/><stop offset="1" stop-color="#fff" stop-opacity=".299"/></linearGradient><linearGradient id="b"><stop offset="0" stop-color="#2e3436"/><stop offset="1"/></linearGradient><linearGradient id="n" x1="9" x2="8.214" y1=".548" y2="46.499" xlink:href="#a" gradientUnits="userSpaceOnUse" gradientTransform="matrix(.968 0 0 .969 .456 .411)"/><linearGradient id="o" x1="9" x2="8.214" y1=".548" y2="46.499" xlink:href="#a" gradientUnits="userSpaceOnUse" gradientTransform="matrix(.968 0 0 .969 .433 .895)"/><linearGradient id="m" x1="9.965" x2="38.389" y1="2.048" y2="42.897" xlink:href="#b" gradientUnits="userSpaceOnUse" gradientTransform="matrix(.998 0 0 1.016 -.257 -1.002)"/><linearGradient id="l" x1="2.667" x2="30.547" y1="5.949" y2="43.394" xlink:href="#c" gradientUnits="userSpaceOnUse" gradientTransform="matrix(.968 0 0 .969 .026 .018)"/><linearGradient id="k" x1="23.619" x2="24.095" y1="44.381" y2="48" xlink:href="#d" gradientUnits="userSpaceOnUse"/><radialGradient id="p" cx="38.619" cy="45.714" r="8.619" xlink:href="#e" gradientUnits="userSpaceOnUse" gradientTransform="matrix(1 0 0 .276 0 33.086)" fx="38.619" fy="45.714"/><linearGradient id="v" x1="28.703" x2="17.743" y1="31.495" y2="18.367" xlink:href="#f" gradientUnits="userSpaceOnUse"/><linearGradient id="u" x1="10.502" x2="48.799" y1="3.61" y2="54.698" xlink:href="#g" gradientUnits="userSpaceOnUse" gradientTransform="matrix(-.619 0 .153 .787 45.209 9.173)"/><linearGradient id="t" x1="21.125" x2="29" y1="14.625" y2="28" xlink:href="#h" gradientUnits="userSpaceOnUse" gradientTransform="matrix(-.774 0 .192 .984 48.308 7.123)"/><linearGradient id="s" x1="21.125" x2="29" y1="14.625" y2="28" xlink:href="#h" gradientUnits="userSpaceOnUse" gradientTransform="matrix(-.774 0 .192 .984 48.308 7.123)"/><linearGradient id="r" x1="27.05" x2="44.473" y1="19.905" y2="41.81" xlink:href="#i" gradientUnits="userSpaceOnUse" gradientTransform="matrix(1.119 0 0 1.119 -5.774 -5.676)"/><linearGradient id="q" x1="14.997" x2="32.511" y1="11.188" y2="34.307" xlink:href="#j" gradientUnits="userSpaceOnUse" gradientTransform="matrix(-.737 0 .183 .937 47.44 7.205)"/></defs><g><path fill="url(#k)" fill-rule="evenodd" d="M8.48 46.38L19.62 48 48 45.7l-8.95-2.46-30.57 3.14z"/><path fill="url(#l)" fill-rule="evenodd" stroke="#000" d="M8.57.58l30.3 2.7V43.4L8.6 46.1.82 42.03l.13-37.4L8.57.57z" color="#000" stroke-linejoin="bevel" overflow="visible"/><path fill="url(#m)" fill-rule="evenodd" d="M28.64 30.4c-.63-2.92-3.72-6.17-7.14-6.63-3.55-.47-5.93-.27-8.72 1.84-.82.63-2.7 1.7-3.98 3.2v4.63c1.82-4.06 6.44-7.7 11.06-6.95 7.86 1.27 6.6 6.88 5.66 9.2-1.7 4.15-7.93 6.45-9.84 2.8-2.08-3.97 2.56-5.07 2.56-5.07s-1.2 1.28.3 2.68c1.06.97 3.06-.18 3.75-2.13.6-1.7-.7-3.84-3.58-3.82-2.4 0-6.02 2.15-6.4 5.82-.33 3.48 1.22 4.76 3.48 6.08 2.24 1.3 7.06 1.44 9.8-1.5 3-3.16 3.87-6.22 3.04-10.13zM8.87 1.08L8.8 25c1.38-1.33 3-2.03 3.06-2.07 5-3.34 9.42-2.32 12.02-1.74 4.1.9 7.33 3.8 8.72 6.96 1.62 3.68.2 11.12-5.26 15.32-.24.18-.47.34-.7.5L38.4 42.9V3.63L8.88 1.08zM8.8 40.7v4.87l5.62-.47c-.38-.17-.73-.34-1.03-.52-1.52-.88-3.6-2.17-4.6-3.87z" color="#000" overflow="visible"/><path fill="none" stroke="url(#n)" d="M8.86 1.55L38 4.05l-.06 38.16-29.1 2.77-7-3.56.08-36.18 6.94-3.67z" color="#000" stroke-linejoin="bevel" overflow="visible"/><path fill="none" stroke="url(#o)" d="M8.86 1.2l.06 43.18" color="#000" stroke-linejoin="bevel" overflow="visible"/><path fill="url(#p)" fill-rule="evenodd" d="M47.24 45.7a8.62 2.38 0 1 1-17.24 0 8.62 2.38 0 1 1 17.24 0z" transform="matrix(1.291 .054 -.059 1.184 -9.707 -11.332)" color="#000" overflow="visible"/><path fill="url(#q)" d="M30.78 12.45c7.15 0 14.32 7.3 16.1 16.4 1.76 9.1-2.57 16.4-9.7 16.4-7.16 0-14.33-7.3-16.1-16.4-1.77-9.1 2.55-16.4 9.7-16.4zm3.96 20.33c1.7 0 2.75-1.78 2.33-3.93-.42-2.16-2.17-3.94-3.86-3.94-1.7 0-2.74 1.8-2.32 3.95.42 2.15 2.17 3.93 3.86 3.93z"/><path fill="url(#r)" stroke="#2e3436" d="M30.78 12.45c7.15 0 14.32 7.3 16.1 16.4 1.76 9.1-2.57 16.4-9.7 16.4-7.16 0-14.33-7.3-16.1-16.4-1.77-9.1 2.55-16.4 9.7-16.4zm3.96 20.33c1.7 0 2.75-1.78 2.33-3.93-.42-2.16-2.17-3.94-3.86-3.94-1.7 0-2.74 1.8-2.32 3.95.42 2.15 2.17 3.93 3.86 3.93z"/><path d="M32.42 20.9c3.5 0 6.96 3.6 7.8 7.95.87 4.44-1.3 7.95-4.7 7.95-3.5 0-6.95-3.6-7.8-7.95-.87-4.44 1.3-7.95 4.7-7.95zm2.4 12.3c1.87 0 3.03-1.98 2.56-4.35-.46-2.38-2.38-4.34-4.25-4.34s-3.03 1.97-2.57 4.35c.47 2.37 2.4 4.34 4.26 4.34z" opacity=".11"/><path fill="url(#s)" d="M27.56 13.63l4.37 11.02c-.65.24-1.1.78-1.33 1.54l-8.83-5.95c.94-3.25 3-5.64 5.8-6.62z"/><path fill="url(#t)" d="M41.2 43.62L36.2 32.87c.62-.3 1.02-.9 1.2-1.7l9.02 5.12c-.7 3.4-2.53 6.04-5.2 7.32z"/><path fill="none" stroke="url(#u)" d="M45.85 28.85c1.68 8.64-2.24 15.2-9.03 15.2-6.8 0-12.9-6.47-14.58-15.1-1.68-8.64 1.9-15.35 8.7-15.35 8.84.98 12.42 7.5 14.9 15.25z" opacity=".546"/><path fill="none" stroke="url(#v)" stroke-width="1.333" d="M30.88 25.17c0 3.37-3.02 6.18-6.4 6.18-3.36 0-6.68-3.46-6.68-6.82 0-3.37 3.14-5.7 6.5-5.7 3.37 0 6.58 2.98 6.58 6.34z" transform="matrix(-.619 0 .153 .787 45.167 9.242)" opacity=".672" color="#000" overflow="visible"/></g></svg>