<svg xmlns="http://www.w3.org/2000/svg" width="48" height="48" xmlns:xlink="http://www.w3.org/1999/xlink"><defs><linearGradient id="a"><stop offset="0" stop-color="#2e3436"/><stop offset="1" stop-color="#2e3436" stop-opacity="0"/></linearGradient><radialGradient id="k" cx="24.508" cy="38.889" r="12.571" xlink:href="#a" fx="24.508" fy="38.889" gradientTransform="matrix(1 0 0 .245 0 29.363)" gradientUnits="userSpaceOnUse"/><radialGradient id="b" cx="1125.395" cy="613.743" r="27.279" gradientUnits="userSpaceOnUse" fy="613.743" fx="1125.395"><stop offset=".264" stop-color="#fff"/><stop offset=".285" stop-color="#F6F7F8"/><stop offset=".347" stop-color="#E3E6E8"/><stop offset=".418" stop-color="#D5D9DD"/><stop offset=".505" stop-color="#CCD2D7"/><stop offset=".657" stop-color="#CAD0D5"/><stop offset="1" stop-color="#78828C"/></radialGradient><radialGradient id="l" cx="1125.395" cy="613.743" r="27.279" xlink:href="#b" gradientUnits="userSpaceOnUse" fx="1125.395" fy="613.743"/><linearGradient id="f"><stop offset="0" stop-color="#888a85"/><stop offset="1" stop-color="#2e3436"/></linearGradient><radialGradient cx="-64.877" cy="220.876" r="14.119" gradientUnits="userSpaceOnUse" gradientTransform="matrix(-1 0 0 1 55.359 0)" fy="220.876" fx="-64.877"><stop offset="0" stop-color="#ff8e6b"/><stop offset=".826" stop-color="#A40E0A"/><stop offset="1" stop-color="#660D0B"/></radialGradient><radialGradient cx="-62.017" cy="217.679" r="17.176" fx="-62.017" fy="217.679" gradientTransform="matrix(-1 0 0 1 55.359 0)" gradientUnits="userSpaceOnUse"><stop offset="0" stop-color="#fff"/><stop offset="1" stop-color="#A42522"/></radialGradient><linearGradient x1="-100.206" x2="-83.826" y1="222.647" y2="222.647" gradientTransform="translate(191.69)" gradientUnits="userSpaceOnUse"><stop offset=".028" stop-color="#84A8C9"/><stop offset=".108" stop-color="#88ABCB"/><stop offset=".191" stop-color="#95B5CE"/><stop offset=".253" stop-color="#A3C0D3"/><stop offset=".294" stop-color="#9CBBD0"/><stop offset=".355" stop-color="#88ACCA"/><stop offset=".427" stop-color="#6A94BE"/><stop offset=".508" stop-color="#4177AF"/><stop offset=".511" stop-color="#3F76AF"/><stop offset=".736" stop-color="#224987"/><stop offset=".829" stop-color="#244D8A"/><stop offset=".924" stop-color="#2A5794"/><stop offset="1" stop-color="#3065A0"/></linearGradient><radialGradient cx="-37.291" cy="214.005" r="19.446" gradientUnits="userSpaceOnUse" gradientTransform="matrix(-1 0 0 .847 55.653 28.519)" fy="214.005" fx="-37.291"><stop offset="0" stop-color="#fff"/><stop offset="1" stop-color="#224987"/></radialGradient><radialGradient cx="-38.266" cy="214.142" r="20.102" fx="-38.266" fy="214.142" gradientTransform="matrix(-1 0 0 1 55.653 0)" gradientUnits="userSpaceOnUse"><stop offset="0" stop-color="#fff"/><stop offset="1" stop-color="#3065A0"/></radialGradient><linearGradient x1="103.99" x2="118.07" y1="229.561" y2="229.189" gradientUnits="userSpaceOnUse"><stop offset="0" stop-color="#fff"/><stop offset=".078" stop-color="#FEFDEC"/><stop offset=".236" stop-color="#FCF7BB"/><stop offset=".459" stop-color="#F8ED6D"/><stop offset=".539" stop-color="#F6E94F"/><stop offset=".641" stop-color="#F5E84A"/><stop offset=".755" stop-color="#F3E43E"/><stop offset=".876" stop-color="#F0DD29"/><stop offset="1" stop-color="#EBD30F"/><stop offset="1" stop-color="#EBD30F"/></linearGradient><linearGradient x1="107.77" x2="105.604" y1="228.699" y2="227.569" gradientUnits="userSpaceOnUse"><stop offset="0" stop-color="#EFEEEC"/><stop offset="1" stop-color="#F6E94F"/></linearGradient><linearGradient x1="105.57" x2="115.738" y1="226.415" y2="240.775" gradientUnits="userSpaceOnUse"><stop offset="0" stop-color="#FAFAFA"/><stop offset=".579" stop-color="#F6E94F"/><stop offset=".693" stop-color="#F3E54B"/><stop offset=".793" stop-color="#EAD740"/><stop offset=".888" stop-color="#DBC32F"/><stop offset=".98" stop-color="#C8A61A"/><stop offset="1" stop-color="#C3A016"/></linearGradient><radialGradient cx="96.07" cy="217.459" r="30.602" fx="96.07" fy="217.459" gradientTransform="matrix(1 0 0 .847 0 28.519)" gradientUnits="userSpaceOnUse"><stop offset="0" stop-color="#fff"/><stop offset=".066" stop-color="#F4F7FA"/><stop offset=".182" stop-color="#D7E1EC"/><stop offset=".335" stop-color="#A7BDD7"/><stop offset=".516" stop-color="#668DB9"/><stop offset=".652" stop-color="#3065A0"/><stop offset=".916" stop-color="#1A3A6B"/></radialGradient><linearGradient id="c"><stop offset="0" stop-color="#ffae00"/><stop offset="1" stop-color="#ff3600"/></linearGradient><radialGradient cx="21.483" cy="22.169" r="21.156" xlink:href="#c" fx="21.483" fy="22.169" gradientTransform="matrix(.732 0 0 .732 -12.239 5.306)" gradientUnits="userSpaceOnUse"/><linearGradient id="g"><stop offset="0" stop-color="#2e3436" stop-opacity=".627"/><stop offset="1" stop-color="#2e3436" stop-opacity="0"/></linearGradient><linearGradient id="e"><stop offset="0" stop-color="#d7d7d2"/><stop offset=".25" stop-color="#e6e6e4"/><stop offset="1" stop-color="#fdfdfd"/></linearGradient><linearGradient id="d"><stop offset="0" stop-color="#767873"/><stop offset="1"/></linearGradient><linearGradient id="j" x1="10.268" x2="32.108" y1="-.31" y2="47.619" xlink:href="#d" gradientUnits="userSpaceOnUse" gradientTransform="matrix(.935 0 0 .926 5.29 .293)"/><linearGradient id="i" x1="7.188" x2="40.661" y1="1.518" y2="43.705" xlink:href="#e" gradientUnits="userSpaceOnUse" gradientTransform="matrix(.989 0 0 .989 .265 .261)"/><linearGradient id="m" x1="28.462" x2="36.768" y1="1.381" y2="10.376" xlink:href="#f" gradientUnits="userSpaceOnUse" gradientTransform="matrix(1.142 0 0 1.148 -2.522 .236)"/><radialGradient id="h" cx="23.714" cy="44.19" r="23.27" xlink:href="#g" fx="23.714" fy="44.19" gradientTransform="matrix(1 0 0 .142 0 37.921)" gradientUnits="userSpaceOnUse"/><radialGradient cx="10.075" cy="41.236" r="16.472" xlink:href="#c" fx="10.075" fy="41.236" gradientTransform="matrix(1.77 .032 -.032 1.783 -6.13 -33.094)" gradientUnits="userSpaceOnUse"/></defs><g><path fill="url(#h)" fill-rule="evenodd" d="M46.98 44.2a23.27 3.3 0 1 1-46.54 0 23.27 3.3 0 1 1 46.54 0z" transform="matrix(1 0 0 1.173 .26 -7.664)" color="#000" overflow="visible"/><path fill="url(#i)" fill-rule="evenodd" stroke="url(#j)" stroke-width="1.5" d="M6.7.76h21.86l12.75 12.4v31.1H6.7V.77z" color="#000" stroke-linejoin="round" overflow="visible"/><path fill="url(#k)" d="M37.08 38.9a12.57 3.08 0 1 1-25.14 0 12.57 3.08 0 1 1 25.14 0z" transform="matrix(.9 0 0 .9 1.676 2.967)" color="#000" overflow="visible"/><path fill="none" stroke="#fff" d="M7.87 2H30.5l9.63 8.88v32.16H7.87V2z" color="#000" overflow="visible"/><g transform="matrix(.573 0 0 .573 6.415 10.998)"><circle cx="1131.193" cy="619.511" r="21.458" fill="url(#l)" stroke="#41464c" stroke-width="1.023" transform="matrix(1.087 0 0 1.087 -1198.429 -648.494)"/><path d="M39.48 46.22c1.7-1.04 3.1-2.67 4.17-4.77 2.52-.85 4.57-1.96 5.96-3.22-2.53 3.53-6.03 6.33-10.12 8"/><path d="M53.98 24.3c0 1.1-.44 2.15-1.26 3.13.04 4.15-1.15 7.9-3.24 10.92l.13-.12C52.37 34.4 54 29.7 54 24.63v-.33z"/><path d="M52.72 27.43c0-.36-.02-.7-.04-1.07-.2-3.52-1.27-6.9-2.97-9.96-1.14 1.42-3.2 2.67-5.9 3.63.84 2.5 1.44 5.1 1.74 7.77.14 1.33.2 2.6.2 3.84 3.17-1.1 5.6-2.56 6.98-4.2z"/><path d="M30.92 3.2c3.92.6 7.6 2.15 10.8 4.4-.7.77-1.9 1.45-3.43 1.98-2.18-2.8-4.68-5-7.3-6.35l-.08-.03z"/><path d="M20.58 3.6c-.4.28-.74.57-1 .87 2.87-1.2 6.17-1.75 9.7-1.46.56.05 1.1.1 1.64.2l.08.03c-1.12-.57-2.26-.98-3.4-1.2-.6-.13-1.16-.2-1.72-.22-1.85.4-3.63 1-5.3 1.8z"/><path d="M45.74 31.64c-3.1 1.08-6.88 1.84-11.05 2.14-.02 3.8-.2 7.06-.54 9.5 3.54-.27 6.78-.9 9.5-1.83 1.3-2.62 2.06-5.97 2.08-9.8z"/><path d="M32.9 10.62c.57 3.22 1.04 7.08 1.36 11.3 3.6-.28 6.88-.94 9.54-1.9-1.32-3.9-3.23-7.5-5.5-10.44-1.52.52-3.37.88-5.4 1.04z"/><path d="M49.5 10.9c-1.95-2.28-4.38-4.15-7.2-5.48v-.06c.07.22.1.43.1.65 0 .57-.23 1.1-.67 1.6 3.28 2.3 6.04 5.34 7.98 8.8.66-.8 1.02-1.7 1.02-2.6 0-.76-.25-1.5-.73-2.2l-.5-.7z"/><path d="M11.36 11.55c-.5.72-.75 1.48-.75 2.26 0 .5.12 1 .34 1.5 2-3.4 4.86-6.26 8.22-8.34-.16-.3-.24-.62-.24-.95 0-.53.23-1.05.65-1.53-1.06.44-2.07.98-3 1.6-2.02 1.53-3.78 3.38-5.2 5.48z"/><path d="M7.7 25.98c-.23-.55-.35-1.1-.35-1.68 0 .1 0 .22 0 .33 0 1.6.16 3.18.47 4.7-.12-1.1-.16-2.2-.1-3.35"/><path d="M32.47 47.88c-.6.05-1.2.07-1.8.07-1.25 0-2.48-.1-3.67-.3-1.42-.4-2.53-2.12-3.28-4.76 2.18.32 4.5.5 6.95.5 1.2 0 2.36-.05 3.5-.13-.38 2.73-.96 4.4-1.7 4.6z"/><path d="M23.8 21.54c-.2 1-.35 2.02-.5 3.06-.4 3.1-.62 6.04-.63 8.74 2.5.38 5.2.58 8 .58 1.37 0 2.7-.05 4.02-.14 0-2.7-.08-5.64-.25-8.75-.05-1.06-.12-2.1-.2-3.12-1.16.1-2.36.14-3.6.14-2.4 0-4.72-.17-6.86-.5z"/><path d="M30.94 3.18c-1.45 1.54-2.88 4.06-4.13 7.27 1.22.16 2.52.26 3.87.26.76 0 1.5-.02 2.23-.08-.57-3.25-1.24-5.84-1.93-7.45h-.03z"/><path d="M33.74 1.52c-.92.1-1.87.67-2.8 1.66h.03c-.5-1.13-.98-1.78-1.47-1.84h.02c.38 0 .76-.02 1.14-.02 1.05 0 2.07.07 3.08.2z"/><path d="M18.9 44.77c-1.5-1.2-2.73-2.65-3.68-4.3-1.4-.66-2.6-1.42-3.5-2.24 1.9 2.63 4.32 4.85 7.12 6.5l.07.04z"/><path d="M12.8 30.45c-.02 3.77.8 7.2 2.42 10.02 2.3 1.08 5.22 1.92 8.5 2.42-.7-2.5-1.06-5.77-1.05-9.56-3.88-.58-7.28-1.58-9.88-2.86v-.03z"/><path d="M7.7 25.98c.73 1.7 2.52 3.23 5.1 4.5v-.03c0-1.7.17-3.5.5-5.33.4-2.12 1.03-4.16 1.83-6.1-2.1-1.06-3.58-2.34-4.2-3.73-1.54 2.58-2.6 5.5-3.03 8.6-.1.7-.16 1.4-.2 2.08z"/><path d="M26.8 10.45c-2-.28-3.75-.77-5.1-1.4-2.7 2.72-5 6.14-6.57 9.96 2.26 1.15 5.24 2.03 8.66 2.54.73-4.15 1.8-7.95 3-11.1z"/><path d="M30.73 3.25c-3.25 1.07-6.34 3.1-9.03 5.8-1.24-.6-2.14-1.3-2.54-2.1 3.43-2.12 7.4-3.44 11.57-3.7z"/><path d="M31 3.23c1.07-.05 2.15-.04 3.25.05 2.9.24 5.63.98 8.06 2.14v-.06c-.22-.63-.76-1.23-1.55-1.75h-.03c-.8-.4-1.64-.74-2.5-1.03-.74-.12-1.52-.18-2.32-.18-1.66 0-3.33.26-4.96.78l.05.05z"/></g><path fill-opacity=".063" fill-rule="evenodd" d="M28.03 1.36c-.7 4.15-.9 10.28-1 12.76-.04.68.42 1.1 1.03.88 2.77-.23 9.5-.7 12.76-1.43l-12.8-12.2z" color="#000" overflow="visible"/><path fill-opacity=".063" fill-rule="evenodd" d="M28.04 1.23c-.12 4.13-.36 9.6-.46 12.05-.06.88.65 1.3 1.5 1.17 2.77-.24 8.6-.73 11.78-.96L28.04 1.22z" color="#000" overflow="visible"/><path fill-opacity=".063" fill-rule="evenodd" d="M28.07 1.4c.85 4.07.3 9.72.17 11.32-.08.96.68 1.15 1.45 1.04 1.63-.22 7.8-.67 11.2-.1L28.07 1.38z" color="#000" overflow="visible"/><path fill="#fff" fill-rule="evenodd" stroke="url(#m)" stroke-width="1.5" d="M28.8.8c1.75 5.74 1 11.45 1 11.45s7.75-.85 11.58.68C40.08 7.43 34.5 2.75 28.8.8z" color="#000" stroke-linejoin="round" overflow="visible"/></g></svg>