<svg xmlns="http://www.w3.org/2000/svg" width="48" height="48" xmlns:xlink="http://www.w3.org/1999/xlink"><defs><linearGradient id="s"><stop offset="0" stop-color="#5b676b"/><stop offset="1" stop-color="#24292b"/></linearGradient><linearGradient id="r"><stop offset="0" stop-color="#2e3436"/><stop offset="1" stop-color="#2e3436" stop-opacity="0"/></linearGradient><linearGradient id="p"><stop offset="0" stop-color="#888a85"/><stop offset="1" stop-color="#2e3436"/></linearGradient><linearGradient id="a"><stop offset="0" stop-color="#2e3436"/><stop offset="1" stop-color="#2e3436" stop-opacity="0"/></linearGradient><radialGradient cx="34.73" cy="31.048" r="5.841" xlink:href="#a" fx="34.73" fy="31.048" gradientTransform="matrix(1 0 0 .359 0 19.911)" gradientUnits="userSpaceOnUse"/><radialGradient id="b" cx="-64.877" cy="220.876" r="14.119" gradientUnits="userSpaceOnUse" gradientTransform="matrix(-1 0 0 1 55.359 0)" fy="220.876" fx="-64.877"><stop offset="0" stop-color="#ff8e6b"/><stop offset=".826" stop-color="#A40E0A"/><stop offset="1" stop-color="#660D0B"/></radialGradient><radialGradient cx="-64.877" cy="220.876" r="14.119" xlink:href="#b" gradientUnits="userSpaceOnUse" gradientTransform="matrix(-1 0 0 1 55.359 0)" fx="-64.877" fy="220.876"/><radialGradient id="c" cx="-62.017" cy="217.679" r="17.176" fx="-62.017" fy="217.679" gradientTransform="matrix(-1 0 0 1 55.359 0)" gradientUnits="userSpaceOnUse"><stop offset="0" stop-color="#fff"/><stop offset="1" stop-color="#A42522"/></radialGradient><radialGradient cx="-62.017" cy="217.679" r="17.176" xlink:href="#c" gradientUnits="userSpaceOnUse" gradientTransform="matrix(-1 0 0 1 55.359 0)" fx="-62.017" fy="217.679"/><linearGradient x1="11.476" x2="15.159" y1="31.183" y2="33.468" xlink:href="#d" gradientUnits="userSpaceOnUse" gradientTransform="matrix(.975 0 0 .975 .572 1.403)"/><linearGradient id="e" x1="-100.206" x2="-83.826" y1="222.647" y2="222.647" gradientTransform="translate(191.69)" gradientUnits="userSpaceOnUse"><stop offset=".028" stop-color="#84A8C9"/><stop offset=".108" stop-color="#88ABCB"/><stop offset=".191" stop-color="#95B5CE"/><stop offset=".253" stop-color="#A3C0D3"/><stop offset=".294" stop-color="#9CBBD0"/><stop offset=".355" stop-color="#88ACCA"/><stop offset=".427" stop-color="#6A94BE"/><stop offset=".508" stop-color="#4177AF"/><stop offset=".511" stop-color="#3F76AF"/><stop offset=".736" stop-color="#224987"/><stop offset=".829" stop-color="#244D8A"/><stop offset=".924" stop-color="#2A5794"/><stop offset="1" stop-color="#3065A0"/></linearGradient><linearGradient x1="-100.206" x2="-83.826" y1="222.647" y2="222.647" xlink:href="#e" gradientUnits="userSpaceOnUse" gradientTransform="matrix(.794 0 0 .792 88.409 -152.964)"/><radialGradient id="f" cx="-37.291" cy="214.005" r="19.446" gradientUnits="userSpaceOnUse" gradientTransform="matrix(-1 0 0 .847 55.653 28.519)" fy="214.005" fx="-37.291"><stop offset="0" stop-color="#fff"/><stop offset="1" stop-color="#224987"/></radialGradient><radialGradient cx="-37.291" cy="214.005" r="19.446" xlink:href="#f" gradientUnits="userSpaceOnUse" gradientTransform="matrix(-.794 0 0 .671 -19.546 -130.377)" fx="-37.291" fy="214.005"/><radialGradient id="g" cx="-38.266" cy="214.142" r="20.102" fx="-38.266" fy="214.142" gradientTransform="matrix(-1 0 0 1 55.653 0)" gradientUnits="userSpaceOnUse"><stop offset="0" stop-color="#fff"/><stop offset="1" stop-color="#3065A0"/></radialGradient><radialGradient cx="-38.266" cy="214.142" r="20.102" xlink:href="#g" gradientUnits="userSpaceOnUse" gradientTransform="matrix(-1 0 0 1 55.653 0)" fx="-38.266" fy="214.142"/><linearGradient id="d"><stop offset="0" stop-color="#2e3436"/><stop offset="1" stop-color="#2e3436" stop-opacity="0"/></linearGradient><linearGradient x1="26.968" x2="33.587" y1="33.468" y2="36.857" xlink:href="#d" gradientUnits="userSpaceOnUse" gradientTransform="matrix(.975 0 0 .975 .572 1.403)"/><linearGradient id="h" x1="103.99" x2="118.07" y1="229.561" y2="229.189" gradientUnits="userSpaceOnUse"><stop offset="0" stop-color="#fff"/><stop offset=".078" stop-color="#FEFDEC"/><stop offset=".236" stop-color="#FCF7BB"/><stop offset=".459" stop-color="#F8ED6D"/><stop offset=".539" stop-color="#F6E94F"/><stop offset=".641" stop-color="#F5E84A"/><stop offset=".755" stop-color="#F3E43E"/><stop offset=".876" stop-color="#F0DD29"/><stop offset="1" stop-color="#EBD30F"/><stop offset="1" stop-color="#EBD30F"/></linearGradient><linearGradient x1="103.99" x2="118.07" y1="229.561" y2="229.189" xlink:href="#h" gradientUnits="userSpaceOnUse" gradientTransform="matrix(.794 0 0 .792 -64.857 -153.479)"/><linearGradient id="i" x1="107.77" x2="105.604" y1="228.699" y2="227.569" gradientUnits="userSpaceOnUse"><stop offset="0" stop-color="#EFEEEC"/><stop offset="1" stop-color="#F6E94F"/></linearGradient><linearGradient x1="107.77" x2="105.604" y1="228.699" y2="227.569" xlink:href="#i" gradientUnits="userSpaceOnUse" gradientTransform="matrix(.794 0 0 .792 -64.857 -153.479)"/><linearGradient id="j" x1="105.57" x2="115.738" y1="226.415" y2="240.775" gradientUnits="userSpaceOnUse"><stop offset="0" stop-color="#FAFAFA"/><stop offset=".579" stop-color="#F6E94F"/><stop offset=".693" stop-color="#F3E54B"/><stop offset=".793" stop-color="#EAD740"/><stop offset=".888" stop-color="#DBC32F"/><stop offset=".98" stop-color="#C8A61A"/><stop offset="1" stop-color="#C3A016"/></linearGradient><linearGradient x1="105.57" x2="115.738" y1="226.415" y2="240.775" xlink:href="#j" gradientUnits="userSpaceOnUse"/><radialGradient id="k" cx="96.07" cy="217.459" r="30.602" fx="96.07" fy="217.459" gradientTransform="matrix(1 0 0 .847 0 28.519)" gradientUnits="userSpaceOnUse"><stop offset="0" stop-color="#fff"/><stop offset=".066" stop-color="#F4F7FA"/><stop offset=".182" stop-color="#D7E1EC"/><stop offset=".335" stop-color="#A7BDD7"/><stop offset=".516" stop-color="#668DB9"/><stop offset=".652" stop-color="#3065A0"/><stop offset=".916" stop-color="#1A3A6B"/></radialGradient><radialGradient cx="96.07" cy="217.459" r="30.602" xlink:href="#k" gradientUnits="userSpaceOnUse" gradientTransform="matrix(1 0 0 .847 0 28.519)" fx="96.07" fy="217.459"/><linearGradient id="l"><stop offset="0" stop-color="#ffae00"/><stop offset="1" stop-color="#ff3600"/></linearGradient><radialGradient cx="21.483" cy="22.169" r="21.156" xlink:href="#l" fx="21.483" fy="22.169" gradientTransform="matrix(.732 0 0 .732 -12.239 5.306)" gradientUnits="userSpaceOnUse"/><linearGradient id="q"><stop offset="0" stop-color="#2e3436" stop-opacity=".627"/><stop offset="1" stop-color="#2e3436" stop-opacity="0"/></linearGradient><linearGradient id="o"><stop offset="0" stop-color="#d7d7d2"/><stop offset=".25" stop-color="#e6e6e4"/><stop offset="1" stop-color="#fdfdfd"/></linearGradient><linearGradient id="n"><stop offset="0" stop-color="#2e3436"/><stop offset="1" stop-color="#2e3436" stop-opacity="0"/></linearGradient><linearGradient id="m"><stop offset="0" stop-color="#767873"/><stop offset="1"/></linearGradient><linearGradient id="v" x1="10.268" x2="32.108" y1="-.31" y2="47.619" xlink:href="#m" gradientUnits="userSpaceOnUse" gradientTransform="matrix(.935 0 0 .926 5.29 .293)"/><radialGradient cx="37.379" cy="3.948" r="5.413" xlink:href="#n" fx="37.379" fy="3.948" gradientTransform="matrix(.954 1.055 -1.079 .976 -28.814 -30.667)" gradientUnits="userSpaceOnUse"/><linearGradient id="u" x1="7.188" x2="40.661" y1="1.518" y2="43.705" xlink:href="#o" gradientUnits="userSpaceOnUse" gradientTransform="matrix(.989 0 0 .989 .265 .261)"/><linearGradient id="w" x1="28.462" x2="36.768" y1="1.381" y2="10.376" xlink:href="#p" gradientUnits="userSpaceOnUse" gradientTransform="matrix(1.142 0 0 1.148 -2.522 .236)"/><radialGradient id="t" cx="23.714" cy="44.19" r="23.27" xlink:href="#q" fx="23.714" fy="44.19" gradientTransform="matrix(1 0 0 .142 0 37.921)" gradientUnits="userSpaceOnUse"/><radialGradient cx="10.075" cy="41.236" r="16.472" xlink:href="#l" fx="10.075" fy="41.236" gradientTransform="matrix(1.77 .032 -.032 1.783 -6.039 -33.187)" gradientUnits="userSpaceOnUse"/><radialGradient cx="28.127" cy="8.667" r="3.492" xlink:href="#r" fx="28.127" fy="8.667" gradientTransform="matrix(1 0 0 1.809 0 -7.012)" gradientUnits="userSpaceOnUse"/><radialGradient cx="23.302" cy="17.122" r="18.294" xlink:href="#s" fx="23.302" fy="17.122" gradientUnits="userSpaceOnUse"/><radialGradient id="x" cx="23.302" cy="17.122" r="18.294" xlink:href="#s" gradientUnits="userSpaceOnUse" fx="23.302" fy="17.122"/></defs><g><path fill="url(#t)" fill-rule="evenodd" d="M46.98 44.2a23.27 3.3 0 1 1-46.54 0 23.27 3.3 0 1 1 46.54 0z" transform="matrix(1 0 0 1.173 .26 -7.664)" color="#000" overflow="visible"/><path fill="url(#u)" fill-rule="evenodd" stroke="url(#v)" stroke-width="1.5" d="M6.7.76h21.86l12.75 12.4v31.1H6.7V.77z" color="#000" stroke-linejoin="round" overflow="visible"/><path fill="none" stroke="#fff" d="M7.87 2H30.5l9.63 8.88v32.16H7.87V2z" color="#000" overflow="visible"/><path fill-opacity=".063" fill-rule="evenodd" d="M28.03 1.36c-.7 4.15-.9 10.28-1 12.76-.04.68.42 1.1 1.03.88 2.77-.23 9.5-.7 12.76-1.43l-12.8-12.2z" color="#000" overflow="visible"/><path fill-opacity=".063" fill-rule="evenodd" d="M28.04 1.23c-.12 4.13-.36 9.6-.46 12.05-.06.88.65 1.3 1.5 1.17 2.77-.24 8.6-.73 11.78-.96L28.04 1.22z" color="#000" overflow="visible"/><path fill-opacity=".063" fill-rule="evenodd" d="M28.07 1.4c.85 4.07.3 9.72.17 11.32-.08.96.68 1.15 1.45 1.04 1.63-.22 7.8-.67 11.2-.1L28.07 1.38z" color="#000" overflow="visible"/><path fill="#fff" fill-rule="evenodd" stroke="url(#w)" stroke-width="1.5" d="M28.8.8c1.75 5.74 1 11.45 1 11.45s7.75-.85 11.58.68C40.08 7.43 34.5 2.75 28.8.8z" color="#000" stroke-linejoin="round" overflow="visible"/><path fill="url(#x)" fill-rule="evenodd" stroke="#eeeeec" stroke-width="2.5" d="M45.84 20.5a17.46 17.46 0 1 1-34.92 0 17.46 17.46 0 1 1 34.92 0z" transform="matrix(.6 0 0 .6 19.606 24.362)" overflow="visible" enable-background="accumulate"/><path fill="#fff" fill-rule="evenodd" d="M34.93 44.5c-2.5-3.73-2.93-7.82 2.47-9.4l1.34 3.45 4-6.5-7.28-3.22 1.23 3.2c-10.47 3-4.8 12-1.77 12.46z"/></g></svg>