<svg xmlns="http://www.w3.org/2000/svg" width="16" height="16" xmlns:xlink="http://www.w3.org/1999/xlink" version="1"><defs><linearGradient><stop offset="0" stop-color="#e6e6e6"/><stop offset="1" stop-color="#c3c3c3"/></linearGradient><linearGradient><stop offset="0" stop-color="#fff"/><stop offset=".5" stop-color="#e6e6e6"/><stop offset=".75" stop-color="#fff"/><stop offset=".842" stop-color="#e1e1e1"/><stop offset="1" stop-color="#fff"/></linearGradient><linearGradient><stop offset="0" stop-color="#fff" stop-opacity=".464"/><stop offset="1" stop-color="#fff"/></linearGradient><linearGradient id="d"><stop offset="0"/><stop offset="1" stop-opacity="0"/></linearGradient><linearGradient id="c"><stop offset="0" stop-color="#fff"/><stop offset="1" stop-color="#fff" stop-opacity="0"/></linearGradient><linearGradient id="b"><stop offset="0" stop-color="#e4e4e4"/><stop offset="1" stop-color="#c3c3c3"/></linearGradient><linearGradient><stop offset="0" stop-color="#fff"/><stop offset="1" stop-color="#eee" stop-opacity=".124"/></linearGradient><linearGradient id="a"><stop offset="0" stop-color="#bbb"/><stop offset="1" stop-color="#9f9f9f"/></linearGradient><linearGradient><stop offset="0" stop-color="#3f3f3f"/><stop offset="1" stop-color="#bbb" stop-opacity="0"/></linearGradient><linearGradient id="f" x1="7.605" x2="36.183" y1="28.481" y2="40.944" gradientUnits="userSpaceOnUse" xlink:href="#a" gradientTransform="matrix(.355 0 0 .355 -.575 -.758)"/><radialGradient id="g" cx="15.571" cy="2.959" r="20.936" gradientUnits="userSpaceOnUse" gradientTransform="matrix(.457 .278 -.252 .415 -1.411 -2.491)" fy="2.959" fx="15.571" xlink:href="#b"/><linearGradient id="h" x1="12.378" x2="44.096" y1="4.433" y2="47.621" gradientUnits="userSpaceOnUse" xlink:href="#c" gradientTransform="matrix(.355 0 0 .355 -.575 -.758)"/><radialGradient id="e" cx="23.202" cy="27.096" r="23.555" gradientUnits="userSpaceOnUse" gradientTransform="matrix(1 0 0 .651 0 9.456)" fy="27.096" fx="23.202" xlink:href="#d"/></defs><g><path fill="url(#e)" fill-rule="evenodd" d="M46.76 27.1a23.56 15.34 0 1 1-47.1 0 23.56 15.34 0 1 1 47.1 0z" transform="matrix(.374 0 0 .129 -.756 8.787)" opacity=".56" color="#000" overflow="visible"/><path fill="none" stroke="#555753" d="M3.36 2c-.23 0-.37.1-.46.3 0 0-2.34 6.17-2.34 6.17s-.1.24-.1.64c0 0 0 3.5 0 3.5 0 .4.25.58.6.58H15c.36 0 .58-.26.58-.66v-3.5s.03-.27-.04-.46l-2.42-6.2c-.07-.2-.23-.37-.4-.37H3.35z" stroke-linejoin="round"/><path fill="url(#f)" fill-rule="evenodd" d="M.6 8.83l.26-.24h13.36l1.23.12v3.7c0 .4-.22.66-.57.66H1.18c-.36 0-.6-.2-.6-.57V8.84z"/><path fill="url(#g)" fill-rule="evenodd" d="M.7 8.45c-.27.52 0 .85.35.85 0 0 13.85 0 13.85 0 .4 0 .66-.36.5-.76l-2.37-6.12c-.07-.18-.24-.35-.4-.35h-9.2c-.2 0-.36.1-.45.3 0 0-2.3 6.08-2.3 6.08z"/><path fill="#fff" fill-rule="evenodd" d="M15.33 8.18c.03.55-.14.95-.47.96 0 0-13.53 0-13.53 0-.46 0-.67-.06-.74-.3.02.4.28.73.73.73 0 0 13.53 0 13.53 0 .4-.02.63-.63.48-1.33v-.06z"/><path fill="none" stroke="url(#h)" stroke-width=".331" d="M3.56 2.23c-.2 0-.35.1-.44.3 0 0-2.28 5.88-2.28 5.88s-.08.24-.08.62c0 0 0 3.3 0 3.3 0 .48.16.58.56.58h13.4c.46 0 .53-.1.53-.65v-3.3s.04-.27-.03-.45l-2.34-5.97c-.06-.18-.2-.3-.36-.3H3.56z" stroke-linecap="round" stroke-linejoin="round"/></g></svg>