<svg xmlns="http://www.w3.org/2000/svg" width="16" height="16" xmlns:xlink="http://www.w3.org/1999/xlink"><defs><linearGradient id="a"><stop offset="0" stop-color="#859298"/><stop offset="1" stop-color="#2e3436"/></linearGradient><linearGradient id="b" x1="3.446" x2="10.04" y1="8.013" y2="8.013" xlink:href="#a" gradientUnits="userSpaceOnUse"/></defs><g fill-rule="evenodd" color="#000"><path fill="#eeeeec" stroke="url(#b)" d="M3.95.53L6.5 3.2V14l1 1.2 1-1.2V3.3L11.07.52H3.95z" overflow="visible" enable-background="accumulate"/><path fill="#2e3436" stroke="#eeeeec" stroke-width="1.873" d="M6.06 6.9v3.51l-1.52-.87-1.52-.87 1.52-.88 1.52-.88z" transform="matrix(1 0 0 1.141 -2.016 -1.873)" overflow="visible" enable-background="accumulate"/><path fill="#2e3436" stroke="#eeeeec" stroke-width="1.873" d="M6.06 6.9v3.51l-1.52-.87-1.52-.87 1.52-.88 1.52-.88z" transform="matrix(-1 0 0 1.141 17.056 -1.873)" overflow="visible" enable-background="accumulate"/><g><path fill="#2e3436" d="M0 2h1v12H0z" overflow="visible" enable-background="accumulate"/><path fill="#eeeeec" d="M1 2h1v12H1z" overflow="visible" enable-background="accumulate"/></g><g><path fill="#2e3436" d="M15.04 2h-1v12h1z" overflow="visible" enable-background="accumulate"/><path fill="#eeeeec" d="M14.04 2h-1v12h1z" overflow="visible" enable-background="accumulate"/></g><path fill="#2e3436" d="M4.04 6v4L2.52 9 1 8l1.52-1 1.52-1z" overflow="visible" enable-background="accumulate"/><path fill="#2e3436" d="M11 6v4l1.52-1 1.52-1-1.52-1L11 6z" overflow="visible" enable-background="accumulate"/></g></svg>