<svg xmlns="http://www.w3.org/2000/svg" width="16" height="16"><g font-size="33.542" font-family="Arial"><path stroke="#eeeeec" stroke-opacity=".502" stroke-width="2" d="M2.48 7.96l.73-2.4c1.7.63 2.93 1.18 3.7 1.64-.2-2.04-.32-3.44-.33-4.2h2.3c-.02 1.1-.15 2.5-.36 4.18 1.1-.58 2.36-1.12 3.77-1.62l.73 2.4c-1.35.47-2.67.78-3.96.94.64.6 1.56 1.66 2.73 3.2l-1.9 1.42c-.62-.9-1.35-2.1-2.18-3.63-.8 1.58-1.5 2.8-2.08 3.62L3.74 12.1c1.23-1.62 2.1-2.68 2.64-3.2-1.37-.28-2.67-.6-3.9-.94z" style="text-align:start;line-height:125%"/><path d="M2.48 7.96l.73-2.4c1.7.63 2.93 1.18 3.7 1.64-.2-2.04-.32-3.44-.33-4.2h2.3c-.02 1.1-.15 2.5-.36 4.18 1.1-.58 2.36-1.12 3.77-1.62l.73 2.4c-1.35.47-2.67.78-3.96.94.64.6 1.56 1.66 2.73 3.2l-1.9 1.42c-.62-.9-1.35-2.1-2.18-3.63-.8 1.58-1.5 2.8-2.08 3.62L3.74 12.1c1.23-1.62 2.1-2.68 2.64-3.2-1.37-.28-2.67-.6-3.9-.94z" style="text-align:start;line-height:125%"/></g></svg>