<svg xmlns="http://www.w3.org/2000/svg" width="10" height="10" xmlns:xlink="http://www.w3.org/1999/xlink" version="1"><defs><linearGradient id="d"><stop offset="0" stop-color="#224b87"/><stop offset="1" stop-color="#224b87" stop-opacity=".278"/></linearGradient><linearGradient id="c"><stop offset="0" stop-color="#a7c2e4"/><stop offset="1" stop-color="#2360af"/></linearGradient><linearGradient id="b"><stop offset="0" stop-color="#eeeeec"/><stop offset="1" stop-color="#eeeeec" stop-opacity="0"/></linearGradient><linearGradient id="a"><stop offset="0" stop-color="#8ab0dc"/><stop offset="1" stop-color="#3165a1"/></linearGradient><linearGradient x1="1011.632" x2="1031.486" y1="1677.312" y2="1711.281" gradientUnits="userSpaceOnUse" gradientTransform="translate(-988.16 -1655.317)"><stop offset="0" stop-color="#FEF3DC"/><stop offset="1" stop-color="#FAAF3E"/></linearGradient><linearGradient x1="-.302" x2="47.657" y1="19.812" y2="25.812" xlink:href="#a" gradientUnits="userSpaceOnUse" gradientTransform="matrix(.292 .208 -.201 .281 -9.887 -19.833)"/><linearGradient x1="-.302" x2="47.657" y1="19.812" y2="25.812" xlink:href="#a" gradientUnits="userSpaceOnUse" gradientTransform="translate(-2.57 -10.026)"/><linearGradient x1="21.988" x2="41.564" y1="11.616" y2="38.206" xlink:href="#b" gradientUnits="userSpaceOnUse" gradientTransform="matrix(.293 .209 -.201 .282 -9.908 -19.895)"/><linearGradient x1="36.648" x2="33.598" y1="14.108" y2="34.774" xlink:href="#c" gradientUnits="userSpaceOnUse" gradientTransform="matrix(.296 .212 -.204 .286 -9.924 -20.007)"/><linearGradient x1="34.846" x2="31.47" y1="13.683" y2="34.355" xlink:href="#c" gradientUnits="userSpaceOnUse" gradientTransform="matrix(.339 .242 -.204 .286 -11.425 -21.078)"/><linearGradient x1="19.113" x2="15.695" y1="11.726" y2="33.344" xlink:href="#c" gradientUnits="userSpaceOnUse" gradientTransform="matrix(.296 .212 -.204 .286 -9.924 -20.007)"/><linearGradient x1="17.766" x2="14.209" y1="11.496" y2="32.853" xlink:href="#c" gradientUnits="userSpaceOnUse" gradientTransform="matrix(.341 .244 -.204 .286 -10.701 -20.562)"/><linearGradient x1="14.826" x2="21.29" y1="2.528" y2="3.56" xlink:href="#d" gradientUnits="userSpaceOnUse"/><linearGradient x1="14.826" x2="21.29" y1="2.528" y2="3.56" xlink:href="#d" gradientUnits="userSpaceOnUse"/></defs><g fill="none" color="#000"><path stroke="#eeeeec" stroke-width="3" d="M4.6 1.84l3.5 3.72c.56.54.52 1.5-.03 2.24-.56.73-1.52.95-2.16.37l-3.94-3.1C1.26 4.4 1.4 3 2.1 2.18c.66-.8 1.92-.9 2.5-.36z" overflow="visible"/><path stroke="#2e3436" d="M4.6 1.84l3.5 3.72c.56.54.52 1.5-.03 2.24-.56.73-1.52.95-2.15.37l-3.96-3.1c-.7-.68-.55-2.06.14-2.88.67-.8 1.93-.9 2.5-.36z" overflow="visible"/><path stroke="#2e3436" d="M2.5 5.62c.72-1.57 1.52-2.64 2.95-2.9" overflow="visible"/><path stroke="#2e3436" d="M5.16 7.3c.53-1.17 1.13-1.97 2.2-2.17" overflow="visible"/><path stroke="#2e3436" d="M2.14 2.17l5.8 5.7" overflow="visible"/></g></svg>