<svg xmlns="http://www.w3.org/2000/svg" width="10" height="10" xmlns:xlink="http://www.w3.org/1999/xlink" viewBox="0 0 41.455 44.93" overflow="visible" enable-background="new 0 0 41.455 44.93" version="1"><defs><linearGradient id="c"><stop offset="0" stop-color="#ffdbdb"/><stop offset="1" stop-color="#cd5900"/></linearGradient><linearGradient id="b"><stop offset="0" stop-color="#818181"/><stop offset="1" stop-color="#a1a1a1" stop-opacity="0"/></linearGradient><linearGradient><stop offset="0"/><stop offset="1" stop-opacity="0"/></linearGradient><linearGradient x1=".5" x2="28.396" y1="32.713" y2="32.713" gradientUnits="userSpaceOnUse"><stop offset=".039" stop-color="#b0b0b0"/><stop offset=".5" stop-color="#fff"/><stop offset="1" stop-color="#949494"/></linearGradient><linearGradient x1="37.281" x2="40.955" y1="15.72" y2="15.72" gradientUnits="userSpaceOnUse" gradientTransform="matrix(.9 0 0 1 3.909 0)"><stop offset=".225" stop-color="#A2AFBE"/><stop offset=".326" stop-color="#828B99"/><stop offset=".539" stop-color="#8D9BA6"/><stop offset=".691" stop-color="#fff"/><stop offset=".723" stop-color="#FAFBFC"/><stop offset=".758" stop-color="#EDF1F4"/><stop offset=".796" stop-color="#D6DFE6"/><stop offset=".832" stop-color="#BAC9D5"/></linearGradient><radialGradient cx="30.761" cy="10.804" r="10.253" gradientUnits="userSpaceOnUse" fy="10.804" fx="30.761"><stop offset=".714" stop-color="#b0b0b0"/><stop offset=".847" stop-color="#fff"/><stop offset="1" stop-color="#949494"/></radialGradient><linearGradient id="a" x1="21.419" x2="24.029" y1="15.254" y2="15.254" gradientUnits="userSpaceOnUse" gradientTransform="matrix(.852 0 0 1 3.343 0)"><stop offset="0" stop-color="#fff"/><stop offset=".054" stop-color="#F9FAFA"/><stop offset=".124" stop-color="#E9ECEE"/><stop offset=".203" stop-color="#CED4D9"/><stop offset=".289" stop-color="#A8B3BB"/><stop offset=".343" stop-color="#8D9BA6"/><stop offset=".629" stop-color="#828B99"/><stop offset=".754" stop-color="#99A4B3"/><stop offset=".832" stop-color="#A2AFBE"/></linearGradient><linearGradient x1="37.576" x2="70.138" y1="20.325" y2="20.325" xlink:href="#a" gradientUnits="userSpaceOnUse" gradientTransform="matrix(.852 0 0 .821 -25.205 14.199)"/><linearGradient x1="1.071" x2="29.152" y1="32.293" y2="32.293" xlink:href="#b" gradientUnits="userSpaceOnUse"/><linearGradient x1="1.071" x2="29.152" y1="32.293" y2="32.293" xlink:href="#b" gradientUnits="userSpaceOnUse"/><linearGradient x1="1.071" x2="29.152" y1="32.293" y2="32.293" xlink:href="#b" gradientUnits="userSpaceOnUse"/><linearGradient x1="1.071" x2="29.152" y1="32.293" y2="32.293" xlink:href="#b" gradientUnits="userSpaceOnUse" gradientTransform="matrix(1.003 0 0 1 5.524 0)"/><linearGradient x1="1.071" x2="29.152" y1="32.293" y2="32.293" xlink:href="#b" gradientUnits="userSpaceOnUse" gradientTransform="matrix(1.003 0 0 1 5.524 0)"/><linearGradient x1="1.071" x2="29.152" y1="32.293" y2="32.293" xlink:href="#b" gradientUnits="userSpaceOnUse" gradientTransform="matrix(1.003 0 0 1 5.524 0)"/><linearGradient id="d" x1="2.755" x2="38.699" y1="31.787" y2="31.787" xlink:href="#c" gradientUnits="userSpaceOnUse"/></defs><path fill="url(#d)" stroke="#161719" stroke-width="4.493" d="M36.45 42.05c0 .77-.5 1.4-1.1 1.4H6.16c-.6 0-1.1-.63-1.1-1.4L5 20.13h31.4l.05 21.92z"/><path fill="#fff" fill-rule="evenodd" d="M7.25 22.46H34.2v4.5H7.26z" color="#000" overflow="visible"/><path fill="#eeeeec" stroke="#161719" stroke-width="3.963" d="M36.48 20l-9-.02c0-5.6-3.03-9-6.75-9S14 14 14.1 20.18l-9.1-.3C5 9 12.05 2.05 20.73 2.05S36.48 8.37 36.48 20z" color="#000" overflow="visible"/></svg>