<svg xmlns="http://www.w3.org/2000/svg" width="10" height="10" xmlns:xlink="http://www.w3.org/1999/xlink" version="1"><defs><linearGradient id="c"><stop offset="0" stop-color="#606060"/><stop offset=".38"/><stop offset=".586"/><stop offset="1" stop-color="#5c5c5c"/></linearGradient><linearGradient id="b"><stop offset="0" stop-color="#fff"/><stop offset=".38" stop-color="#eaeaea"/><stop offset=".586" stop-color="#d4d4ce"/><stop offset="1" stop-color="#fff"/></linearGradient><linearGradient id="a"><stop offset="0" stop-color="#fff"/><stop offset="1" stop-color="#c2c2bb"/></linearGradient><linearGradient id="d" x1="2.154" x2="6.819" y1="2.404" y2="8.827" xlink:href="#a" gradientUnits="userSpaceOnUse"/><linearGradient id="e" x1="3.209" x2="7.976" y1="4.833" y2="2.581" xlink:href="#b" gradientUnits="userSpaceOnUse"/><linearGradient x1="3.209" x2="7.976" y1="4.833" y2="2.581" xlink:href="#b" gradientUnits="userSpaceOnUse" gradientTransform="translate(9.798 7.478)"/><linearGradient x1="3.209" x2="7.976" y1="4.833" y2="2.581" xlink:href="#b" gradientUnits="userSpaceOnUse" gradientTransform="translate(10.249 9.776)"/><linearGradient x1="3.209" x2="7.976" y1="4.833" y2="2.581" xlink:href="#b" gradientUnits="userSpaceOnUse" gradientTransform="translate(11.443 12.028)"/><linearGradient id="f" x1="1.59" x2="9.505" y1="3.398" y2="3.398" xlink:href="#c" gradientUnits="userSpaceOnUse"/></defs><g><g><g fill="none" stroke-linecap="round"><path stroke="#2e3436" stroke-width="2.611" d="M6.44 8.45l-4.9-6.92" transform="matrix(.653 0 0 .898 -.009 1.478)"/><path stroke="url(#d)" stroke-width="1.306" d="M6.44 8.45l-4.9-6.92" transform="matrix(.653 0 0 .898 -.009 1.478)"/></g><path fill="url(#e)" d="M1.75 2.64C2.9-.4 4.85 2.06 6.95.3l2.7 4.72c-1.8 1.85-3.93-.3-5.4 2.4z"/><path fill="url(#f)" d="M6.78 5.83c.9 0 1.86.03 2.73-.85L8 2.48c-.9.78-1.76.76-2.56.7zM4.32 1C3.22.92 2.27.8 1.6 2.6l1.18 2.25c.67-1.75 1.6-1.68 2.66-1.66z"/><path fill="none" stroke="#2e3436" stroke-width=".5" d="M1.75 2.64C2.9-.4 4.85 2.06 6.95.3l2.7 4.72c-1.8 1.85-3.93-.3-5.4 2.4z"/></g></g></svg>