<svg xmlns="http://www.w3.org/2000/svg" width="10" height="10" xmlns:xlink="http://www.w3.org/1999/xlink" version="1"><defs><linearGradient id="d"><stop offset="0" stop-color="#555753" stop-opacity="0"/><stop offset=".25" stop-color="#555753"/><stop offset=".75" stop-color="#555753"/><stop offset="1" stop-color="#555753" stop-opacity="0"/></linearGradient><radialGradient id="c" cx="294.624" cy="80.627" r="48.777" fx="294.624" fy="80.627" gradientUnits="userSpaceOnUse"><stop offset="0" stop-color="#BAD1D7"/><stop offset=".826" stop-color="#6D7580"/><stop offset="1" stop-color="#41454C"/></radialGradient><radialGradient id="b" cx="257.459" cy="35.376" r="68.717" fx="257.459" fy="35.376" gradientUnits="userSpaceOnUse"><stop offset="0" stop-color="#fff"/><stop offset="1" stop-color="#8794A0"/></radialGradient><radialGradient id="a" cx="264.957" cy="80.291" r="53.348" fx="264.957" fy="80.291" gradientUnits="userSpaceOnUse"><stop offset="0" stop-color="#BAD1D7"/><stop offset="1" stop-color="#8794A0"/></radialGradient><radialGradient cx="264.957" cy="80.291" r="53.348" xlink:href="#a" gradientUnits="userSpaceOnUse" fx="264.957" fy="80.291"/><radialGradient cx="257.459" cy="35.376" r="68.717" xlink:href="#b" gradientUnits="userSpaceOnUse" fx="257.459" fy="35.376"/><radialGradient cx="294.624" cy="80.627" r="48.777" xlink:href="#c" gradientUnits="userSpaceOnUse" fx="294.624" fy="80.627"/><radialGradient cx="264.957" cy="80.291" r="53.348" xlink:href="#a" gradientUnits="userSpaceOnUse" fx="264.957" fy="80.291"/><radialGradient cx="257.459" cy="35.376" r="68.717" xlink:href="#b" gradientUnits="userSpaceOnUse" fx="257.459" fy="35.376"/><radialGradient cx="294.624" cy="80.627" r="48.777" xlink:href="#c" gradientUnits="userSpaceOnUse" fx="294.624" fy="80.627"/><linearGradient id="l" x1="2.635" x2="9.87" y1="4.287" y2="1.985" xlink:href="#d" gradientUnits="userSpaceOnUse" gradientTransform="matrix(1.015 0 0 1.06 -.142 .163)"/><linearGradient id="k" x1=".393" x2="5.485" y1=".663" y2="5.248" xlink:href="#d" gradientUnits="userSpaceOnUse" gradientTransform="matrix(1.015 0 0 1.06 -.142 .163)"/><linearGradient id="m" x1="3.953" x2="3.953" y1="9.275" y2="1.92" xlink:href="#d" gradientUnits="userSpaceOnUse" gradientTransform="matrix(1.015 0 0 1.06 -.142 .163)"/><linearGradient id="h" x1=".487" x2="5.582" y1="3.71" y2="9.27" xlink:href="#d" gradientUnits="userSpaceOnUse" gradientTransform="matrix(1.015 0 0 1.06 -.142 .163)"/><linearGradient id="g" x1="1.587" x2="9.807" y1="8.411" y2="5.545" xlink:href="#d" gradientUnits="userSpaceOnUse" gradientTransform="matrix(1.015 0 0 1.06 -.142 .163)"/><linearGradient id="i" x1="3.743" x2="9.958" y1="3.277" y2="7.51" xlink:href="#d" gradientUnits="userSpaceOnUse" gradientTransform="matrix(1.015 0 0 1.06 -.142 .163)"/><linearGradient id="j" x1="3.696" x2="10.036" y1="-.041" y2="3.506" xlink:href="#d" gradientUnits="userSpaceOnUse" gradientTransform="matrix(1.015 0 0 1.06 -.142 .163)"/><linearGradient id="f" x1=".219" x2="7.731" y1="2.22" y2=".54" xlink:href="#d" gradientUnits="userSpaceOnUse" gradientTransform="matrix(1.015 0 0 1.06 -.142 .163)"/><linearGradient id="e" x1=".018" x2="5.726" y1="6.085" y2="4.7" xlink:href="#d" gradientUnits="userSpaceOnUse" gradientTransform="matrix(1.015 0 0 1.06 -.142 .163)"/></defs><g><path fill="none" stroke="url(#e)" stroke-width=".6" d="M5.37 5.18L.07 6.55" color="#000" overflow="visible"/><path fill="none" stroke="url(#f)" stroke-width=".6" d="M7.6.75L.26 2.47" color="#000" overflow="visible"/><path fill="none" stroke="url(#g)" stroke-width=".6" d="M9.5 6.1L1.77 8.93" color="#000" overflow="visible"/><path fill="none" stroke="url(#h)" stroke-width=".6" d="M.65 4.4l4.7 5.44" color="#000" overflow="visible"/><path fill="none" stroke="url(#i)" stroke-width=".6" d="M5.36 5.13l4.5 2.9" color="#000" overflow="visible"/><path fill="none" stroke="url(#j)" stroke-width=".6" d="M3.73.24l6.14 3.54" color="#000" overflow="visible"/><path fill="#eeeeec" fill-rule="evenodd" d="M1.6 2.02l3.96-.8 2.68 1.52-.4 3.94-3.88 1.45-2-2.38-.35-3.73z"/><path fill="none" stroke="#2e3436" d="M1.6 2.06l3.96-.8 2.67 1.52-.4 3.94-3.87 1.45-2-2.38-.36-3.74z"/><path fill="none" stroke="url(#k)" stroke-width=".6" d="M.17.86L5.5 5.78" color="#000" overflow="visible"/><path fill="none" stroke="url(#l)" stroke-width=".6" d="M9.57 2.4L2.84 4.64"/><path fill="none" stroke="url(#m)" stroke-width=".6" d="M3.85 2.5l.04 7.3" color="#000" overflow="visible"/></g></svg>