<svg xmlns="http://www.w3.org/2000/svg" width="10" height="10" version="1"><defs id="defs19"><linearGradient id="linearGradient3390"><stop id="stop3392" offset="0" stop-color="#213a00"/><stop id="stop3414" offset=".5" stop-color="#487e00"/><stop id="stop3394" offset="1" stop-color="#396400" stop-opacity="0"/></linearGradient><linearGradient id="linearGradient3191"><stop id="stop3193" offset="0" stop-color="#4e9a06"/><stop id="stop3195" offset="1" stop-color="#295103"/></linearGradient><linearGradient id="linearGradient2784"><stop id="stop2786" offset="0" stop-color="#1b3602"/><stop id="stop2788" offset="1" stop-color="#4e9a06"/></linearGradient></defs><style id="style4" type="text/css">path { stroke-linecap: round; stroke-linejoin: round; stroke-width: 10; stroke: #000000; fill: #009900; }</style><path id="path3416" fill="#2e3436" stroke="#eeeeec" stroke-opacity=".471" stroke-width="2" d="M6.05 1.88L2.7 1l.26 1.03c-.87.44-1.57 1.24-1.84 2.3-.1.4-.14.84-.1 1.25.72-1.43 1.3-1.8 2.34-2.1l.27.98 2.42-2.58z" color="#000" stroke-linecap="round" stroke-linejoin="round" overflow="visible"/><path id="path3418" fill="#2e3436" stroke="#eeeeec" stroke-opacity=".471" stroke-width="2" d="M6.03 1.87c.83 1.36.85 2.07.57 3.15l-.95-.24.93 3.46L9 5.67l-1-.25c.1-1-.23-2.06-.97-2.83-.3-.32-.64-.56-1-.73z" color="#000" stroke-linecap="round" stroke-linejoin="round" overflow="visible"/><path id="path3420" fill="#2e3436" stroke="#eeeeec" stroke-opacity=".471" stroke-width="2" d="M4.4 6.4l-3.35-.87L2 9l.7-.76c.8.57 1.82.8 2.83.52.4-.12.77-.3 1.1-.54-1.55.06-2.15-.27-2.92-1.06l.7-.75z" color="#000" stroke-linecap="round" stroke-linejoin="round" overflow="visible"/><path id="path3337" fill="#2e3436" d="M6.08 1.92l-3.35-.88L3 2.07c-.88.44-1.58 1.24-1.85 2.3-.1.4-.14.84-.1 1.25.72-1.43 1.3-1.8 2.35-2.1l.26.98 2.42-2.58z" color="#000" overflow="visible"/><path id="path3363" fill="#2e3436" d="M6.07 1.9c.82 1.37.85 2.08.57 3.16l-.95-.24.92 3.46L9.04 5.7l-1-.24c.1-1-.24-2.06-.98-2.83-.3-.3-.63-.55-1-.72z" color="#000" overflow="visible"/><path id="path3369" fill="#2e3436" d="M4.44 6.45l-3.36-.88.95 3.47.72-.76c.8.57 1.8.8 2.82.5.4-.1.77-.28 1.1-.52C5.1 8.32 4.5 8 3.73 7.2l.7-.75z" color="#000" overflow="visible"/></svg>