<svg xmlns="http://www.w3.org/2000/svg" width="48" height="48" xmlns:xlink="http://www.w3.org/1999/xlink"><defs><linearGradient x1="1183.881" x2="1181.998" y1="1698.929" y2="1699.999" gradientUnits="userSpaceOnUse" gradientTransform="translate(-1156.642 -1655.956)"><stop offset="0" stop-color="#F4B167"/><stop offset=".292" stop-color="#F3D196"/><stop offset=".376" stop-color="#F3D196"/><stop offset="1" stop-color="#EE8424"/></linearGradient><linearGradient x1="1177.703" x2="1175.606" y1="1701.176" y2="1701.476" gradientUnits="userSpaceOnUse" gradientTransform="translate(-1156.642 -1655.956)"><stop offset="0" stop-color="#F4B167"/><stop offset=".292" stop-color="#F3D196"/><stop offset=".376" stop-color="#F3D196"/><stop offset="1" stop-color="#EE8424"/></linearGradient><radialGradient cx="1190.832" cy="1670.785" r=".401" gradientUnits="userSpaceOnUse" fy="1670.785" fx="1190.832" gradientTransform="translate(-1156.642 -1655.956)"><stop offset="0" stop-color="#F3D196"/><stop offset=".129" stop-color="#F3D196"/><stop offset="1" stop-color="#EE8424"/></radialGradient><linearGradient x1="1192.739" x2="1192.124" y1="1671.622" y2="1672.399" gradientUnits="userSpaceOnUse" gradientTransform="translate(-1156.642 -1655.956)"><stop offset=".006" stop-color="#F3D196"/><stop offset=".517" stop-color="#F0943B"/></linearGradient><radialGradient cx="1187.812" cy="1667.972" r=".517" gradientUnits="userSpaceOnUse" fy="1667.972" fx="1187.812" gradientTransform="translate(-1156.642 -1655.956)"><stop offset="0" stop-color="#F3D196"/><stop offset=".129" stop-color="#F3D196"/><stop offset="1" stop-color="#EE8424"/></radialGradient><linearGradient x1="1189.773" x2="1189.064" y1="1668.994" y2="1670.081" gradientUnits="userSpaceOnUse" gradientTransform="translate(-1156.642 -1655.956)"><stop offset="0" stop-color="#F4B167"/><stop offset=".292" stop-color="#E3C18A"/><stop offset="1" stop-color="#EE8424"/></linearGradient><linearGradient x1="1186.393" x2="1185.306" y1="1665.963" y2="1667.476" gradientUnits="userSpaceOnUse" gradientTransform="translate(-1156.642 -1655.956)"><stop offset="0" stop-color="#F4B167"/><stop offset=".292" stop-color="#E3C18A"/><stop offset="1" stop-color="#EE8424"/></linearGradient><radialGradient cx="1184.265" cy="1665.213" r="1.103" gradientUnits="userSpaceOnUse" fy="1665.213" fx="1184.265" gradientTransform="translate(-1156.642 -1655.956)"><stop offset="0" stop-color="#F3D196"/><stop offset=".129" stop-color="#F3D196"/><stop offset="1" stop-color="#EE8424"/></radialGradient><linearGradient x1="1183.125" x2="1180.992" y1="1693.45" y2="1693.264" gradientUnits="userSpaceOnUse" gradientTransform="translate(-1156.642 -1655.956)"><stop offset="0" stop-color="#F4B167"/><stop offset=".292" stop-color="#F3D196"/><stop offset=".371" stop-color="#F3D196"/><stop offset="1" stop-color="#EE8424"/></linearGradient><radialGradient cx="1182.75" cy="1688.885" r=".986" gradientUnits="userSpaceOnUse" fy="1688.885" fx="1182.75" gradientTransform="translate(-1156.642 -1655.956)"><stop offset="0" stop-color="#F3D196"/><stop offset=".129" stop-color="#F3D196"/><stop offset="1" stop-color="#EE8424"/></radialGradient><linearGradient x1="1183.917" x2="1180.772" y1="1683.48" y2="1683.445" gradientUnits="userSpaceOnUse" gradientTransform="translate(-1156.642 -1655.956)"><stop offset="0" stop-color="#F4B167"/><stop offset=".292" stop-color="#F3D196"/><stop offset=".421" stop-color="#F3D196"/><stop offset="1" stop-color="#EE8424"/></linearGradient><linearGradient x1="1177.789" x2="1175.625" y1="1694.808" y2="1694.406" gradientUnits="userSpaceOnUse" gradientTransform="translate(-1156.642 -1655.956)"><stop offset="0" stop-color="#F4B167"/><stop offset=".292" stop-color="#F3D196"/><stop offset=".376" stop-color="#F3D196"/><stop offset="1" stop-color="#EE8424"/></linearGradient><radialGradient cx="1178.121" cy="1689.425" r=".954" gradientUnits="userSpaceOnUse" fy="1689.425" fx="1178.121" gradientTransform="translate(-1156.642 -1655.956)"><stop offset="0" stop-color="#F3D196"/><stop offset=".129" stop-color="#F3D196"/><stop offset="1" stop-color="#EE8424"/></radialGradient><linearGradient x1="1179.933" x2="1176.614" y1="1683.922" y2="1683.538" gradientUnits="userSpaceOnUse" gradientTransform="translate(-1156.642 -1655.956)"><stop offset="0" stop-color="#F4B167"/><stop offset=".292" stop-color="#F3D196"/><stop offset=".421" stop-color="#F3D196"/><stop offset="1" stop-color="#EE8424"/></linearGradient><radialGradient cx="1179.168" cy="1678.608" r="1.459" gradientUnits="userSpaceOnUse" fy="1678.608" fx="1179.168" gradientTransform="translate(-1156.642 -1655.956)"><stop offset="0" stop-color="#F3D196"/><stop offset=".129" stop-color="#F3D196"/><stop offset="1" stop-color="#EE8424"/></radialGradient><radialGradient cx="1182.831" cy="1678.495" r="1.552" gradientUnits="userSpaceOnUse" fy="1678.495" fx="1182.831" gradientTransform="translate(-1156.642 -1655.956)"><stop offset="0" stop-color="#F3D196"/><stop offset=".107" stop-color="#F3D196"/><stop offset="1" stop-color="#EE8424"/></radialGradient><radialGradient cx="1181.204" cy="1675.502" r="3.561" gradientUnits="userSpaceOnUse" fy="1675.502" fx="1181.204" gradientTransform="translate(-1156.642 -1655.956)"><stop offset="0" stop-color="#F3D196"/><stop offset=".197" stop-color="#F3D196"/><stop offset="1" stop-color="#EE8424"/></radialGradient><radialGradient cx="1181.392" cy="1672.234" r="2.981" gradientUnits="userSpaceOnUse" fy="1672.234" fx="1181.392" gradientTransform="translate(-1156.642 -1655.956)"><stop offset="0" stop-color="#F3D196"/><stop offset="1" stop-color="#EE8324"/></radialGradient><radialGradient cx="1181.547" cy="1665.856" r="5.775" gradientUnits="userSpaceOnUse" fy="1665.856" fx="1181.547" gradientTransform="translate(-1156.642 -1655.956)"><stop offset="0" stop-color="#F3D196"/><stop offset=".197" stop-color="#F3D196"/><stop offset="1" stop-color="#EE8424"/></radialGradient><radialGradient cx="1176.868" cy="1664.601" r="1.28" gradientUnits="userSpaceOnUse" fy="1664.601" fx="1176.868" gradientTransform="translate(-1156.642 -1655.956)"><stop offset="0" stop-color="#F3D196"/><stop offset=".129" stop-color="#F3D196"/><stop offset="1" stop-color="#EE8424"/></radialGradient><linearGradient x1="1173.058" x2="1174.429" y1="1666.42" y2="1668.075" gradientUnits="userSpaceOnUse" gradientTransform="translate(-1156.642 -1655.956)"><stop offset="0" stop-color="#F4B167"/><stop offset=".292" stop-color="#F3D196"/><stop offset=".421" stop-color="#F3D196"/><stop offset="1" stop-color="#EE8424"/></linearGradient><radialGradient cx="1171.076" cy="1668.957" r=".712" gradientUnits="userSpaceOnUse" fy="1668.957" fx="1171.076" gradientTransform="translate(-1156.642 -1655.956)"><stop offset="0" stop-color="#F3D196"/><stop offset=".129" stop-color="#F3D196"/><stop offset="1" stop-color="#EE8424"/></radialGradient><linearGradient x1="1168.026" x2="1169.255" y1="1670.603" y2="1671.928" gradientUnits="userSpaceOnUse" gradientTransform="translate(-1156.642 -1655.956)"><stop offset="0" stop-color="#F4B167"/><stop offset=".292" stop-color="#F3D196"/><stop offset=".421" stop-color="#F3D196"/><stop offset="1" stop-color="#EE8424"/></linearGradient><radialGradient cx="1166.426" cy="1673.148" r=".612" gradientUnits="userSpaceOnUse" fy="1673.148" fx="1166.426" gradientTransform="translate(-1156.642 -1655.956)"><stop offset="0" stop-color="#F3D196"/><stop offset=".129" stop-color="#F3D196"/><stop offset="1" stop-color="#EE8424"/></radialGradient><linearGradient x1="1164.108" x2="1165.697" y1="1674.438" y2="1675.82" gradientUnits="userSpaceOnUse" gradientTransform="translate(-1156.642 -1655.956)"><stop offset=".506" stop-color="#F3D196"/><stop offset="1" stop-color="#F0943B"/></linearGradient><radialGradient cx="1181.263" cy="1662.666" r="1.542" gradientUnits="userSpaceOnUse" fy="1662.666" fx="1181.263" gradientTransform="translate(-1156.642 -1655.956)"><stop offset="0" stop-color="#F3D196"/><stop offset=".129" stop-color="#F3D196"/><stop offset="1" stop-color="#EE8424"/></radialGradient><radialGradient cx="1182.248" cy="1658.428" r="3.295" gradientUnits="userSpaceOnUse" fy="1658.428" fx="1182.248" gradientTransform="translate(-1156.642 -1655.956)"><stop offset="0" stop-color="#F3D196"/><stop offset=".197" stop-color="#F3D196"/><stop offset="1" stop-color="#EE8424"/></radialGradient><linearGradient id="K" x1="302.857" x2="302.857" y1="366.648" y2="609.505" xlink:href="#a" gradientUnits="userSpaceOnUse" gradientTransform="matrix(2.774 0 0 1.97 -1892.179 -872.885)"/><linearGradient id="a"><stop offset="0" stop-opacity="0"/><stop offset=".5"/><stop offset="1" stop-opacity="0"/></linearGradient><radialGradient id="L" cx="605.714" cy="486.648" r="117.143" xlink:href="#b" gradientUnits="userSpaceOnUse" gradientTransform="matrix(2.774 0 0 1.97 -1891.633 -872.885)" fx="605.714" fy="486.648"/><linearGradient id="b"><stop offset="0"/><stop offset="1" stop-opacity="0"/></linearGradient><radialGradient cx="605.714" cy="486.648" r="117.143" xlink:href="#b" gradientUnits="userSpaceOnUse" gradientTransform="matrix(-2.774 0 0 1.97 112.762 -872.885)" fx="605.714" fy="486.648"/><linearGradient id="ai" x1="24.99" x2="24.99" y1="34.005" y2="22.585" gradientTransform="matrix(1.022 0 0 1.022 -.048 4.609)" xlink:href="#c" gradientUnits="userSpaceOnUse"/><linearGradient id="c"><stop offset="0" stop-color="#eaba6f"/><stop offset="1" stop-color="#b97a1b"/></linearGradient><linearGradient id="aj" x1="18.707" x2="30.015" y1="19.912" y2="47.388" gradientTransform="matrix(1.022 0 0 1.022 -.048 4.609)" xlink:href="#d" gradientUnits="userSpaceOnUse"/><linearGradient id="d"><stop offset="0" stop-color="#fff"/><stop offset="1" stop-color="#fff" stop-opacity=".686"/></linearGradient><linearGradient id="N" x1="16.149" x2="34.194" y1="12.637" y2="12.637" xlink:href="#e" gradientUnits="userSpaceOnUse" gradientTransform="matrix(1.022 0 0 1.062 -.048 4.567)"/><linearGradient id="e"><stop offset="0" stop-color="#a36d18"/><stop offset="1" stop-color="#d79020"/></linearGradient><linearGradient id="O" x1="21.907" x2="22.072" y1="9.758" y2="16.021" gradientTransform="matrix(1.022 0 0 1.022 -.048 4.609)" xlink:href="#f" gradientUnits="userSpaceOnUse"/><linearGradient id="f"><stop offset="0" stop-color="#a0670c"/><stop offset="1" stop-color="#a0670c" stop-opacity="0"/></linearGradient><linearGradient id="ak" x1="25.381" x2="24.119" y1="24.721" y2="16.17" xlink:href="#g" gradientUnits="userSpaceOnUse" gradientTransform="matrix(1.022 0 0 1.008 -.048 4.932)"/><linearGradient id="g"><stop offset="0" stop-color="#e9b96e"/><stop offset="1" stop-color="#f1d19e"/></linearGradient><linearGradient id="P" x1="36.289" x2="47.066" y1="14.662" y2="15.268" gradientTransform="matrix(1.022 0 0 1.022 -.048 4.609)" xlink:href="#h" gradientUnits="userSpaceOnUse"/><linearGradient id="h"><stop offset="0" stop-color="#de9523"/><stop offset="1" stop-color="#a36d18"/></linearGradient><linearGradient><stop offset="0" stop-color="#fff"/><stop offset="1" stop-color="#ccc"/></linearGradient><linearGradient><stop offset="0" stop-color="#fff"/><stop offset="1" stop-color="#ccc"/></linearGradient><linearGradient id="Q" x1="30.062" x2="17.696" y1="13.445" y2="12.334" gradientTransform="matrix(1.022 0 0 1.022 -.048 4.609)" xlink:href="#i" gradientUnits="userSpaceOnUse"/><linearGradient id="i"><stop offset="0" stop-color="#fbf0e0"/><stop offset="1" stop-color="#f0ce99"/></linearGradient><radialGradient id="M" cx="605.714" cy="486.648" r="117.143" fy="486.648" fx="605.714" gradientTransform="matrix(-2.774 0 0 1.97 112.762 -872.885)" gradientUnits="userSpaceOnUse" xlink:href="#b"/><radialGradient cx="1190.832" cy="1670.785" r=".401" xlink:href="#j" gradientUnits="userSpaceOnUse" gradientTransform="matrix(.993 0 0 .993 -1139.745 -1639.985)" fx="1190.832" fy="1670.785"/><radialGradient id="j" cx="1190.832" cy="1670.785" r=".401" gradientUnits="userSpaceOnUse" fy="1670.785" fx="1190.832" gradientTransform="translate(-1156.642 -1655.956)"><stop offset="0" stop-color="#F3D196"/><stop offset=".129" stop-color="#F3D196"/><stop offset="1" stop-color="#EE8424"/></radialGradient><linearGradient x1="1192.739" x2="1192.124" y1="1671.622" y2="1672.399" xlink:href="#k" gradientUnits="userSpaceOnUse" gradientTransform="matrix(.993 0 0 .993 -1139.745 -1639.985)"/><linearGradient id="k" x1="1192.739" x2="1192.124" y1="1671.622" y2="1672.399" gradientUnits="userSpaceOnUse" gradientTransform="translate(-1156.642 -1655.956)"><stop offset=".006" stop-color="#F3D196"/><stop offset=".517" stop-color="#F0943B"/></linearGradient><radialGradient cx="1187.812" cy="1667.972" r=".517" xlink:href="#l" gradientUnits="userSpaceOnUse" gradientTransform="matrix(.993 0 0 .993 -1139.745 -1639.985)" fx="1187.812" fy="1667.972"/><radialGradient id="l" cx="1187.812" cy="1667.972" r=".517" gradientUnits="userSpaceOnUse" fy="1667.972" fx="1187.812" gradientTransform="translate(-1156.642 -1655.956)"><stop offset="0" stop-color="#F3D196"/><stop offset=".129" stop-color="#F3D196"/><stop offset="1" stop-color="#EE8424"/></radialGradient><linearGradient x1="1189.773" x2="1189.064" y1="1668.994" y2="1670.081" xlink:href="#m" gradientUnits="userSpaceOnUse" gradientTransform="matrix(.993 0 0 .993 -1139.745 -1639.985)"/><linearGradient id="m" x1="1189.773" x2="1189.064" y1="1668.994" y2="1670.081" gradientUnits="userSpaceOnUse" gradientTransform="translate(-1156.642 -1655.956)"><stop offset="0" stop-color="#F4B167"/><stop offset=".292" stop-color="#E3C18A"/><stop offset="1" stop-color="#EE8424"/></linearGradient><linearGradient x1="1186.393" x2="1185.306" y1="1665.963" y2="1667.476" xlink:href="#n" gradientUnits="userSpaceOnUse" gradientTransform="matrix(.993 0 0 .993 -1139.745 -1639.985)"/><linearGradient id="n" x1="1186.393" x2="1185.306" y1="1665.963" y2="1667.476" gradientUnits="userSpaceOnUse" gradientTransform="translate(-1156.642 -1655.956)"><stop offset="0" stop-color="#F4B167"/><stop offset=".292" stop-color="#E3C18A"/><stop offset="1" stop-color="#EE8424"/></linearGradient><radialGradient cx="1184.265" cy="1665.213" r="1.103" xlink:href="#o" gradientUnits="userSpaceOnUse" gradientTransform="matrix(.993 0 0 .993 -1139.745 -1639.985)" fx="1184.265" fy="1665.213"/><radialGradient id="o" cx="1184.265" cy="1665.213" r="1.103" gradientUnits="userSpaceOnUse" fy="1665.213" fx="1184.265" gradientTransform="translate(-1156.642 -1655.956)"><stop offset="0" stop-color="#F3D196"/><stop offset=".129" stop-color="#F3D196"/><stop offset="1" stop-color="#EE8424"/></radialGradient><linearGradient x1="1177.703" x2="1175.606" y1="1701.176" y2="1701.476" xlink:href="#p" gradientUnits="userSpaceOnUse" gradientTransform="matrix(.993 0 0 .993 -1147.816 -1644.485)"/><linearGradient id="p" x1="1177.703" x2="1175.606" y1="1701.176" y2="1701.476" gradientUnits="userSpaceOnUse" gradientTransform="translate(-1156.642 -1655.956)"><stop offset="0" stop-color="#F4B167"/><stop offset=".292" stop-color="#F3D196"/><stop offset=".376" stop-color="#F3D196"/><stop offset="1" stop-color="#EE8424"/></linearGradient><linearGradient x1="1177.789" x2="1175.625" y1="1694.808" y2="1694.406" xlink:href="#q" gradientUnits="userSpaceOnUse" gradientTransform="matrix(.993 0 0 .993 -1147.816 -1644.485)"/><linearGradient id="q" x1="1177.789" x2="1175.625" y1="1694.808" y2="1694.406" gradientUnits="userSpaceOnUse" gradientTransform="translate(-1156.642 -1655.956)"><stop offset="0" stop-color="#F4B167"/><stop offset=".292" stop-color="#F3D196"/><stop offset=".376" stop-color="#F3D196"/><stop offset="1" stop-color="#EE8424"/></linearGradient><radialGradient cx="1178.121" cy="1689.425" r=".954" xlink:href="#r" gradientUnits="userSpaceOnUse" gradientTransform="matrix(.993 0 0 .993 -1147.816 -1644.485)" fx="1178.121" fy="1689.425"/><radialGradient id="r" cx="1178.121" cy="1689.425" r=".954" gradientUnits="userSpaceOnUse" fy="1689.425" fx="1178.121" gradientTransform="translate(-1156.642 -1655.956)"><stop offset="0" stop-color="#F3D196"/><stop offset=".129" stop-color="#F3D196"/><stop offset="1" stop-color="#EE8424"/></radialGradient><linearGradient x1="1179.933" x2="1176.614" y1="1683.922" y2="1683.538" xlink:href="#s" gradientUnits="userSpaceOnUse" gradientTransform="matrix(.993 0 0 .993 -1147.816 -1644.485)"/><linearGradient id="s" x1="1179.933" x2="1176.614" y1="1683.922" y2="1683.538" gradientUnits="userSpaceOnUse" gradientTransform="translate(-1156.642 -1655.956)"><stop offset="0" stop-color="#F4B167"/><stop offset=".292" stop-color="#F3D196"/><stop offset=".421" stop-color="#F3D196"/><stop offset="1" stop-color="#EE8424"/></linearGradient><radialGradient cx="1179.168" cy="1678.608" r="1.459" xlink:href="#t" gradientUnits="userSpaceOnUse" gradientTransform="matrix(.993 0 0 .993 -1147.816 -1644.485)" fx="1179.168" fy="1678.608"/><radialGradient id="t" cx="1179.168" cy="1678.608" r="1.459" gradientUnits="userSpaceOnUse" fy="1678.608" fx="1179.168" gradientTransform="translate(-1156.642 -1655.956)"><stop offset="0" stop-color="#F3D196"/><stop offset=".129" stop-color="#F3D196"/><stop offset="1" stop-color="#EE8424"/></radialGradient><linearGradient x1="1183.881" x2="1181.998" y1="1698.929" y2="1699.999" xlink:href="#u" gradientUnits="userSpaceOnUse" gradientTransform="matrix(.993 0 0 .993 -1147.816 -1644.485)"/><linearGradient id="u" x1="1183.881" x2="1181.998" y1="1698.929" y2="1699.999" gradientUnits="userSpaceOnUse" gradientTransform="translate(-1156.642 -1655.956)"><stop offset="0" stop-color="#F4B167"/><stop offset=".292" stop-color="#F3D196"/><stop offset=".376" stop-color="#F3D196"/><stop offset="1" stop-color="#EE8424"/></linearGradient><linearGradient x1="1183.125" x2="1180.992" y1="1693.45" y2="1693.264" xlink:href="#v" gradientUnits="userSpaceOnUse" gradientTransform="matrix(.993 0 0 .993 -1147.816 -1644.485)"/><linearGradient id="v" x1="1183.125" x2="1180.992" y1="1693.45" y2="1693.264" gradientUnits="userSpaceOnUse" gradientTransform="translate(-1156.642 -1655.956)"><stop offset="0" stop-color="#F4B167"/><stop offset=".292" stop-color="#F3D196"/><stop offset=".371" stop-color="#F3D196"/><stop offset="1" stop-color="#EE8424"/></linearGradient><radialGradient cx="1182.75" cy="1688.885" r=".986" xlink:href="#w" gradientUnits="userSpaceOnUse" gradientTransform="matrix(.993 0 0 .993 -1147.816 -1644.485)" fx="1182.75" fy="1688.885"/><radialGradient id="w" cx="1182.75" cy="1688.885" r=".986" gradientUnits="userSpaceOnUse" fy="1688.885" fx="1182.75" gradientTransform="translate(-1156.642 -1655.956)"><stop offset="0" stop-color="#F3D196"/><stop offset=".129" stop-color="#F3D196"/><stop offset="1" stop-color="#EE8424"/></radialGradient><linearGradient x1="1183.917" x2="1180.772" y1="1683.48" y2="1683.445" xlink:href="#x" gradientUnits="userSpaceOnUse" gradientTransform="matrix(.993 0 0 .993 -1147.816 -1644.485)"/><linearGradient id="x" x1="1183.917" x2="1180.772" y1="1683.48" y2="1683.445" gradientUnits="userSpaceOnUse" gradientTransform="translate(-1156.642 -1655.956)"><stop offset="0" stop-color="#F4B167"/><stop offset=".292" stop-color="#F3D196"/><stop offset=".421" stop-color="#F3D196"/><stop offset="1" stop-color="#EE8424"/></linearGradient><radialGradient cx="1182.831" cy="1678.495" r="1.552" xlink:href="#y" gradientUnits="userSpaceOnUse" gradientTransform="matrix(.993 0 0 .993 -1147.816 -1644.485)" fx="1182.831" fy="1678.495"/><radialGradient id="y" cx="1182.831" cy="1678.495" r="1.552" gradientUnits="userSpaceOnUse" fy="1678.495" fx="1182.831" gradientTransform="translate(-1156.642 -1655.956)"><stop offset="0" stop-color="#F3D196"/><stop offset=".107" stop-color="#F3D196"/><stop offset="1" stop-color="#EE8424"/></radialGradient><radialGradient id="X" cx="1181.204" cy="1675.502" r="3.561" xlink:href="#z" gradientUnits="userSpaceOnUse" gradientTransform="matrix(.993 0 0 .993 -1147.816 -1644.485)" fx="1181.204" fy="1675.502"/><radialGradient id="z" cx="1181.204" cy="1675.502" r="3.561" gradientUnits="userSpaceOnUse" fy="1675.502" fx="1181.204" gradientTransform="translate(-1156.642 -1655.956)"><stop offset="0" stop-color="#F3D196"/><stop offset=".197" stop-color="#F3D196"/><stop offset="1" stop-color="#EE8424"/></radialGradient><radialGradient id="Y" cx="1181.392" cy="1672.234" r="2.981" xlink:href="#A" gradientUnits="userSpaceOnUse" gradientTransform="matrix(.993 0 0 .993 -1147.816 -1644.485)" fx="1181.392" fy="1672.234"/><radialGradient id="A" cx="1181.392" cy="1672.234" r="2.981" gradientUnits="userSpaceOnUse" fy="1672.234" fx="1181.392" gradientTransform="translate(-1156.642 -1655.956)"><stop offset="0" stop-color="#F3D196"/><stop offset="1" stop-color="#EE8324"/></radialGradient><radialGradient id="Z" cx="1181.547" cy="1665.856" r="5.775" xlink:href="#B" gradientUnits="userSpaceOnUse" gradientTransform="matrix(.993 0 0 .993 -1147.816 -1644.485)" fx="1181.547" fy="1665.856"/><radialGradient id="B" cx="1181.547" cy="1665.856" r="5.775" gradientUnits="userSpaceOnUse" fy="1665.856" fx="1181.547" gradientTransform="translate(-1156.642 -1655.956)"><stop offset="0" stop-color="#F3D196"/><stop offset=".197" stop-color="#F3D196"/><stop offset="1" stop-color="#EE8424"/></radialGradient><radialGradient id="aa" cx="1176.868" cy="1664.601" r="1.28" xlink:href="#C" gradientUnits="userSpaceOnUse" gradientTransform="matrix(.993 0 0 .993 -1162.531 -1642.271)" fx="1176.868" fy="1664.601"/><radialGradient id="C" cx="1176.868" cy="1664.601" r="1.28" gradientUnits="userSpaceOnUse" fy="1664.601" fx="1176.868" gradientTransform="translate(-1156.642 -1655.956)"><stop offset="0" stop-color="#F3D196"/><stop offset=".129" stop-color="#F3D196"/><stop offset="1" stop-color="#EE8424"/></radialGradient><linearGradient id="ab" x1="1173.058" x2="1174.429" y1="1666.42" y2="1668.075" xlink:href="#D" gradientUnits="userSpaceOnUse" gradientTransform="matrix(.993 0 0 .993 -1162.531 -1642.271)"/><linearGradient id="D" x1="1173.058" x2="1174.429" y1="1666.42" y2="1668.075" gradientUnits="userSpaceOnUse" gradientTransform="translate(-1156.642 -1655.956)"><stop offset="0" stop-color="#F4B167"/><stop offset=".292" stop-color="#F3D196"/><stop offset=".421" stop-color="#F3D196"/><stop offset="1" stop-color="#EE8424"/></linearGradient><radialGradient id="ac" cx="1171.076" cy="1668.957" r=".712" xlink:href="#E" gradientUnits="userSpaceOnUse" gradientTransform="matrix(.993 0 0 .993 -1162.531 -1642.271)" fx="1171.076" fy="1668.957"/><radialGradient id="E" cx="1171.076" cy="1668.957" r=".712" gradientUnits="userSpaceOnUse" fy="1668.957" fx="1171.076" gradientTransform="translate(-1156.642 -1655.956)"><stop offset="0" stop-color="#F3D196"/><stop offset=".129" stop-color="#F3D196"/><stop offset="1" stop-color="#EE8424"/></radialGradient><linearGradient id="ad" x1="1168.026" x2="1169.255" y1="1670.603" y2="1671.928" xlink:href="#F" gradientUnits="userSpaceOnUse" gradientTransform="matrix(.993 0 0 .993 -1162.531 -1642.271)"/><linearGradient id="F" x1="1168.026" x2="1169.255" y1="1670.603" y2="1671.928" gradientUnits="userSpaceOnUse" gradientTransform="translate(-1156.642 -1655.956)"><stop offset="0" stop-color="#F4B167"/><stop offset=".292" stop-color="#F3D196"/><stop offset=".421" stop-color="#F3D196"/><stop offset="1" stop-color="#EE8424"/></linearGradient><radialGradient id="ae" cx="1166.426" cy="1673.148" r=".612" xlink:href="#G" gradientUnits="userSpaceOnUse" gradientTransform="matrix(.993 0 0 .993 -1162.531 -1642.271)" fx="1166.426" fy="1673.148"/><radialGradient id="G" cx="1166.426" cy="1673.148" r=".612" gradientUnits="userSpaceOnUse" fy="1673.148" fx="1166.426" gradientTransform="translate(-1156.642 -1655.956)"><stop offset="0" stop-color="#F3D196"/><stop offset=".129" stop-color="#F3D196"/><stop offset="1" stop-color="#EE8424"/></radialGradient><linearGradient id="af" x1="1164.108" x2="1165.697" y1="1674.438" y2="1675.82" xlink:href="#H" gradientUnits="userSpaceOnUse" gradientTransform="matrix(.993 0 0 .993 -1162.531 -1642.271)"/><linearGradient id="H" x1="1164.108" x2="1165.697" y1="1674.438" y2="1675.82" gradientUnits="userSpaceOnUse" gradientTransform="translate(-1156.642 -1655.956)"><stop offset=".506" stop-color="#F3D196"/><stop offset="1" stop-color="#F0943B"/></linearGradient><radialGradient id="ag" cx="1181.263" cy="1662.666" r="1.542" xlink:href="#I" gradientUnits="userSpaceOnUse" gradientTransform="matrix(.993 0 0 .993 -1121.245 -1643.342)" fx="1181.263" fy="1662.666"/><radialGradient id="I" cx="1181.263" cy="1662.666" r="1.542" gradientUnits="userSpaceOnUse" fy="1662.666" fx="1181.263" gradientTransform="translate(-1156.642 -1655.956)"><stop offset="0" stop-color="#F3D196"/><stop offset=".129" stop-color="#F3D196"/><stop offset="1" stop-color="#EE8424"/></radialGradient><radialGradient id="ah" cx="1182.248" cy="1658.428" r="3.295" xlink:href="#J" gradientUnits="userSpaceOnUse" gradientTransform="matrix(.993 0 0 .993 -1121.245 -1643.342)" fx="1182.248" fy="1658.428"/><radialGradient id="J" cx="1182.248" cy="1658.428" r="3.295" gradientUnits="userSpaceOnUse" fy="1658.428" fx="1182.248" gradientTransform="translate(-1156.642 -1655.956)"><stop offset="0" stop-color="#F3D196"/><stop offset=".197" stop-color="#F3D196"/><stop offset="1" stop-color="#EE8424"/></radialGradient><radialGradient cx="1184.265" cy="1665.213" r="1.103" fy="1665.213" fx="1184.265" gradientTransform="matrix(.993 0 0 .993 -1139.745 -1639.985)" gradientUnits="userSpaceOnUse" xlink:href="#o"/><radialGradient id="R" cx="1190.832" cy="1670.785" r=".401" xlink:href="#j" gradientUnits="userSpaceOnUse" gradientTransform="matrix(.993 0 0 .993 -1139.745 -1639.985)" fx="1190.832" fy="1670.785"/><linearGradient id="S" x1="1192.739" x2="1192.124" y1="1671.622" y2="1672.399" xlink:href="#k" gradientUnits="userSpaceOnUse" gradientTransform="matrix(.993 0 0 .993 -1139.745 -1639.985)"/><radialGradient id="T" cx="1187.812" cy="1667.972" r=".517" xlink:href="#l" gradientUnits="userSpaceOnUse" gradientTransform="matrix(.993 0 0 .993 -1139.745 -1639.985)" fx="1187.812" fy="1667.972"/><linearGradient id="U" x1="1189.773" x2="1189.064" y1="1668.994" y2="1670.081" xlink:href="#m" gradientUnits="userSpaceOnUse" gradientTransform="matrix(.993 0 0 .993 -1139.745 -1639.985)"/><linearGradient id="V" x1="1186.393" x2="1185.306" y1="1665.963" y2="1667.476" xlink:href="#n" gradientUnits="userSpaceOnUse" gradientTransform="matrix(.993 0 0 .993 -1139.745 -1639.985)"/><radialGradient id="W" cx="1184.265" cy="1665.213" r="1.103" xlink:href="#o" gradientUnits="userSpaceOnUse" gradientTransform="matrix(.993 0 0 .993 -1139.745 -1639.985)" fx="1184.265" fy="1665.213"/><linearGradient id="al" x1="1183.881" x2="1181.998" y1="1698.929" y2="1699.999" xlink:href="#u" gradientUnits="userSpaceOnUse" gradientTransform="matrix(.993 0 0 .993 -1147.816 -1644.485)"/><linearGradient id="am" x1="1183.125" x2="1180.992" y1="1693.45" y2="1693.264" xlink:href="#v" gradientUnits="userSpaceOnUse" gradientTransform="matrix(.993 0 0 .993 -1147.816 -1644.485)"/><radialGradient id="an" cx="1182.75" cy="1688.885" r=".986" xlink:href="#w" gradientUnits="userSpaceOnUse" gradientTransform="matrix(.993 0 0 .993 -1147.816 -1644.485)" fx="1182.75" fy="1688.885"/><linearGradient id="ao" x1="1183.917" x2="1180.772" y1="1683.48" y2="1683.445" xlink:href="#x" gradientUnits="userSpaceOnUse" gradientTransform="matrix(.993 0 0 .993 -1147.816 -1644.485)"/><radialGradient id="ap" cx="1182.831" cy="1678.495" r="1.552" xlink:href="#y" gradientUnits="userSpaceOnUse" gradientTransform="matrix(.993 0 0 .993 -1147.816 -1644.485)" fx="1182.831" fy="1678.495"/></defs><g><g color="#000"><path fill="url(#K)" d="M-1559.25-150.7h1339.63v478.36h-1339.63z" opacity=".402" overflow="visible" transform="matrix(.022 0 0 .021 43.493 40.799)"/><path fill="url(#L)" d="M-219.62-150.68s0 478.33 0 478.33c142.88.9 345.4-107.17 345.4-239.2 0-132.02-159.44-239.13-345.4-239.13z" opacity=".402" overflow="visible" transform="matrix(.022 0 0 .021 43.493 40.799)"/><path fill="url(#M)" d="M-1559.25-150.68s0 478.33 0 478.33c-142.88.9-345.4-107.17-345.4-239.2 0-132.02 159.43-239.13 345.4-239.13z" opacity=".402" overflow="visible" transform="matrix(.022 0 0 .021 43.493 40.799)"/></g><path fill="url(#N)" fill-rule="evenodd" stroke="url(#O)" d="M8.92 21.52l5.16-6.96 19.2-.1 5.34 6.92-29.7.14z"/><path fill="url(#P)" stroke="#a0670c" d="M33.53 14.44l4.78 7.07 9.24 4.5-8.3-9.12-5.7-2.44z" color="#000" stroke-linecap="round" stroke-linejoin="round" display="block" overflow="visible"/><path fill="none" stroke="url(#Q)" d="M9.82 21.34l3.46-5.9 20.93-.08 3.93 5.98H9.83z" opacity=".88" stroke-linecap="round" stroke-linejoin="round"/><g stroke="#66330d"><path fill="none" stroke-width="1.97.2" d="M16.34 9.53c-.1-.08-.13-.46 0-.67.15-.2 1.1-.58 1.34-.33.22.25.32.7.22.82-.1.14-1.43.28-1.56.18z"/><path fill="none" stroke-width="1.97.2" d="M17.77 8.57c-.6-.1-1.2.07-1.42.3-.24.23-1.3-1.8-1.06-5.28.07-1.24.84-2.1.84-1.9 0 0 .64.88 1.2 3.65.32 1.54.46 2.6.43 3.22z"/><path fill="none" stroke-width="1.97.2" d="M18.1 18.18c-.35-.2-.68-1.05-.57-1.66.1-.57 1.9-.95 2.18-.77.3.2.6 1.27.36 1.7-.22.4-1.8.83-1.97.73z"/><path fill="none" stroke-width="1.97.2" d="M18.48 16.17c-.5.17-.95.43-1.02.37-.47-.22-1.34-6.72-1.17-6.96.17-.26 1.4-.53 1.7-.23.2.2 2.15 5.8 1.84 6.4-.05.08-.74.2-1.36.42z"/><path fill="none" stroke-width="1.97.2" d="M18.7 25.46c-.18-.38-1.06-4.58-.8-7.12.08-.68 2-1.34 2.33-.92.34.45 2 5.85 1.85 6.2-.77 1.8-3.08 2.42-3.37 1.84z"/><path fill="none" stroke-width="1.97.2" d="M19.13 28.63c-.3-.32-1.1-1.64-.64-2.7.44-1.08 2.76-2.38 3.63-2.14.88.24-3 4.83-3 4.83z"/><path fill="url(#R)" stroke-width=".25" d="M43.24 19.14c.07 0 .2.14.22.27 0 .13-.25.6-.42.57-.17-.03-.35-.17-.35-.25-.02-.1.46-.57.54-.58z" transform="matrix(-1.518 -1.258 1.258 -1.518 57.887 92.961)"/><path fill="url(#S)" stroke-width=".25" d="M43 19.98c.26-.15.44-.42.46-.58 0-.17 1.08.3 2.1 1.72.38.5.36 1.1.3 1 0 0-.54-.12-1.66-1.02-.62-.5-1.02-.87-1.2-1.12z" transform="matrix(-1.518 -1.258 1.258 -1.518 57.887 92.961)"/><path fill="url(#T)" stroke-width=".25" d="M39.76 16.33c.2-.03.6.2.76.47.14.25-.44.98-.6 1-.18.02-.65-.3-.7-.54-.04-.24.44-.92.54-.93z" transform="matrix(-1.518 -1.258 1.258 -1.518 57.887 92.961)"/><path fill="url(#U)" stroke-width=".25" d="M40.25 17.24c.15-.23.24-.47.28-.48.26-.06 2.7 2.2 2.72 2.35 0 .17-.4.67-.6.66-.14-.02-2.72-1.58-2.8-1.9 0-.06.23-.34.4-.62z" transform="matrix(-1.518 -1.258 1.258 -1.518 57.887 92.961)"/><path fill="url(#V)" stroke-width=".25" d="M37.16 13.7c.2.07 1.9 1.43 2.62 2.5.2.3-.35 1.18-.6 1.12-.3-.06-2.7-1.64-2.74-1.82-.28-.95.4-1.95.72-1.8z" transform="matrix(-1.518 -1.258 1.258 -1.518 57.887 92.961)"/><path fill="url(#W)" stroke-width=".25" d="M35.97 12.58c.22.03.95.3 1.13.86.17.56-.32 1.82-.74 2-.42.2-.4-2.86-.4-2.86z" transform="matrix(-1.518 -1.258 1.258 -1.518 57.887 92.961)"/></g><g stroke="#66330d"><path fill="none" stroke-width="1.75.2" d="M23.03 27.48c.13.9 2.97 2.3 5.8 2.8 2.23.42 5.4.2 5.6-.17.6-1.17.85-7.7.34-8.12-.87-.73-7.8-1.83-8.42-1.5-.63.34-3.64 4.76-3.32 7z"/><path fill="none" stroke-width="1.75.2" d="M27.86 17.8c.7-.4 5.47-.32 6.75 1.1.32.33.26 2.9-.1 3.1-1.33.74-5.95.28-7.87-1.35-.53-.46.85-2.64 1.23-2.85z"/><path fill="none" stroke-width="1.75.2" d="M27.26 3.7c.5-.3 7.35-.3 11.6 2.54.54.36.04 5.2-.1 5.55-.6 1.35-3.4 6.62-3.93 7.07-.47.38-4.77-.1-7.12-1.07-.04-.03-.16.4-.27.24-.12-.2-.65-1.25-.95-1.96-.48-1.1-1.73-5.25-1.63-8.56.05-1.82 1.3-3.12 2.4-3.8z"/><path fill="url(#X)" stroke-width=".25" d="M21.4 21.5c.16.5 1.9.96 3.55.95 1.28 0 3.03-.48 3.1-.7.2-.74-.35-4.4-.68-4.6-.57-.32-4.57-.18-4.88.07-.33.26-1.53 3.06-1.1 4.28z" transform="matrix(1.721 .333 -.333 1.721 -6.625 -16.649)"/><path fill="url(#Y)" stroke-width=".25" d="M23.04 15.56c.35-.3 3.04-.77 3.9-.12.2.16.45 1.6.28 1.74-.67.57-3.3.8-4.56.1-.34-.2.2-1.56.38-1.72z" transform="matrix(1.721 .333 -.333 1.721 -6.625 -16.649)"/><path fill="url(#Z)" stroke-width=".25" d="M21.18 7.73c.25-.22 4.08-.97 6.77.16.34.14.6 2.9.54 3.1-.2.84-1.18 4.1-1.44 4.4-.22.27-2.68.47-4.1.17-.03 0-.05.25-.13.17-.1-.1-.5-.63-.74-1-.4-.57-1.55-2.75-1.86-4.6-.17-1.03.4-1.9.94-2.4z" transform="matrix(1.721 .333 -.333 1.721 -6.625 -16.649)"/></g><path fill="#f8e8cf" stroke="#a0670c" d="M13.87 14.54L9.8 21.4.48 25.9l8.3-9.12 5.1-2.24z" color="#000" stroke-linecap="round" stroke-linejoin="round" display="block" overflow="visible"/><g stroke="#66330d"><path fill="none" stroke-width="1.86.2" d="M21.15 32.1c-.82 1.32-4.14 1.33-5.1 0-.6-.86-.4-2.2.06-2.63.5-.48 3-1.48 3.46-1.36 1.14.32 1.64 1.45 1.8 2.14.24.95-.02 1.57-.2 1.87z"/><path fill="none" stroke-width="1.86.2" d="M19.95 28.75c-.24.95-2.76 1.87-3.6 1.03-.73-.73-3.83-8.1-3.77-9.24 0-.14 2.35-1.56 2.67-1.1 1.65 2.32 4.9 8.5 4.7 9.3z"/><path fill="none" stroke-width="1.86.2" d="M15.25 19.42c-.2.62-1.62 1.45-2.67 1.1-.3-.1-.75-1.02-.6-1.5.07-.28 1.9-1.42 2.3-1.32.5.14 1.12 1.22.97 1.72z"/><path fill="none" stroke-width="1.86.2" d="M14.32 17.4c.04.7-1.22 1.8-2.3 1.75-.54-.03-4.17-7.97-4.1-8.54C8 9.5 9.45 8.7 9.7 8.98c1.27 1.48 4.57 7.16 4.62 8.43z"/><path fill="none" stroke-width="1.86.2" d="M9.56 9.03c-.05.38-.6 1.2-1.54 1.42-.14.04-.67-.6-.6-.82.08-.18 1.12-1.58 1.35-1.6.24 0 .85.6.8 1z"/><path fill="none" stroke-width="1.86.2" d="M8.78 8.04c0 .33-.63 1.46-1.32 1.6-.86.15-2.8-1.72-3.4-2.44-.87-1.08-1.62-3.33-1.6-4.04.04-.48.88-1.54 1.47-1.33.58.2 2.15 1.22 3.22 2.78 1.07 1.56 1.6 3.16 1.63 3.44z"/><path fill="url(#aa)" stroke-width=".25" d="M6.53 10.27c.8.27 1.2 2 .6 2.67-.38.42-1.1.47-1.4.28-.3-.2-1.12-1.4-1.1-1.64.02-.64.55-1.04.9-1.2.47-.24.82-.18 1-.1z" transform="matrix(-.41 1.812 -1.812 -.41 42.432 24.485)"/><path fill="url(#ab)" stroke-width=".25" d="M4.9 11.3c.54 0 1.32 1.22.98 1.76-.3.47-3.8 2.98-4.4 3.08-.08 0-1.1-1.05-.9-1.27 1.02-1.14 3.88-3.6 4.33-3.57z" transform="matrix(-.41 1.812 -1.812 -.41 42.432 24.485)"/><path fill="url(#ac)" stroke-width=".25" d="M.57 14.87c.35.03.95.68.9 1.27 0 .17-.45.52-.73.5-.15 0-.96-.83-.95-1.05 0-.3.5-.75.77-.73z" transform="matrix(-.41 1.812 -1.812 -.41 42.432 24.485)"/><path fill="url(#ad)" stroke-width=".25" d="M-.38 15.6c.36-.1 1.1.42 1.2 1 .04.3-3.7 3.13-4 3.17-.6.07-1.2-.58-1.08-.75.63-.84 3.22-3.24 3.88-3.42z" transform="matrix(-.41 1.812 -1.812 -.41 42.432 24.485)"/><path fill="url(#ae)" stroke-width=".25" d="M-4.2 19.1c.2-.03.7.17.92.63.04.07-.24.43-.36.4-.1 0-.96-.4-1-.5-.03-.13.2-.52.43-.54z" transform="matrix(-.41 1.812 -1.812 -.41 42.432 24.485)"/><path fill="url(#af)" stroke-width=".25" d="M-4.64 19.62c.18-.05.85.16 1 .5.18.43-.57 1.68-.88 2.08-.46.58-1.55 1.24-1.93 1.3-.26.05-.9-.26-.87-.6.04-.33.4-1.27 1.08-2.02.7-.74 1.46-1.22 1.6-1.26z" transform="matrix(-.41 1.812 -1.812 -.41 42.432 24.485)"/></g><g stroke="#66330d"><path fill="none" stroke-width="1.81.2" d="M23.06 21.2c.14.24 1.25.34 2.28.03 1.03-.3 1.43-.77 1.53-1.03.08-.24-.55-2.46-.8-2.5-.36-.06-3.3.75-3.63 1.1-.2.2.5 2.2.62 2.4z"/><path fill="none" stroke-width="1.81.2" d="M23.2 8.57c1.23 0 2.92 1.12 3.66 3.82.73 2.7.16 4.66-.33 5.28-.43.53-3.95 1.7-4.6 1.15-2-1.65-3.7-5.3-3.08-7.35.53-1.77 2.93-2.9 4.34-2.9z"/><path fill="url(#ag)" stroke-width=".25" d="M50.58 8.56c.04.14.6.37 1.2.37s.88-.18.97-.3c.08-.12.1-1.4-.02-1.45-.2-.1-1.87-.12-2.1 0-.14.08-.1 1.25-.05 1.38z" transform="matrix(1.737 -.519 .519 1.737 -69.227 32.581)"/><path fill="url(#ah)" stroke-width=".25" d="M52.64 1.9c.66.2 1.38 1.05 1.34 2.6-.04 1.54-.65 2.5-1 2.74-.32.2-2.36.27-2.62-.12-.8-1.2-1.13-3.38-.47-4.37.55-.85 2-1.08 2.74-.85z" transform="matrix(1.737 -.519 .519 1.737 -69.227 32.581)"/></g><rect width="32.683" height="23.627" x="7.579" y="20.224" fill="url(#ai)" stroke="#a0670c" color="#000" ry="2.448" rx="2.478" display="block" overflow="visible"/><rect width="30.461" height="21.544" x="8.638" y="21.214" fill="none" stroke="url(#aj)" ry="1.313" rx="1.313" color="#000" display="block" overflow="visible" opacity=".481"/><path fill="url(#ak)" stroke="#a0670c" d="M39.07 21.3l5.3 7.35H4l4.77-7.36h30.3z" color="#000" stroke-linecap="round" stroke-linejoin="round" display="block" overflow="visible"/><path fill="none" stroke="#f4e3ca" d="M37.8 21.4l4.54 6.2H5.72l4.24-6.32 27.83.13z" color="#000" display="block" overflow="visible"/><g stroke="#66330d" transform="matrix(0 -1.589 1.589 0 -31.586 83.829)"><path fill="none" stroke-width="1.2" d="M26.87 41.53c.93 1.18 2.1 1.9 3 2.96.27.28-1.2 1.1-1.9.7-.72-.38-2.55-1.85-2.6-2.15-.05-.3.02-1.27.16-1.36.42-.3 1.2-.33 1.34-.17z"/><circle cx="1181.993" cy="1697.514" r=".579" fill="none" stroke-width="1.208" transform="matrix(.993 0 0 .993 -1147.816 -1644.485)"/><path fill="none" stroke-width="1.2" d="M25.66 33.37c.27-.2 1.32-.23 1.87.2.34.26-.62 7.7-.67 7.84-.1.34-.94.47-1.3.04-.13-.16-.33-7.75.1-8.07z"/><path fill="none" stroke-width="1.2" d="M26.1 32.06c.2-.15 1.17-.12 1.36.1.36.4.36 1.08 0 1.43-.23.25-1.42.18-1.68-.18-.18-.24-.23-.97.3-1.36z"/><path fill="none" stroke-width="1.2" d="M28.05 23.1c-.58-.4-2.6-.4-2.92.14-.37.64.45 8.35.7 8.85.2.4 1.7.56 1.95.05.14-.28.67-8.8.27-9.05z"/><path fill="none" stroke-width="1.2" d="M27.75 21.63c.3.1.34 1.4.14 1.58-.47.5-2.33.44-2.68.03-.35-.4-.37-1.4-.14-1.54.62-.42 2.34-.18 2.67-.07z"/><path fill="url(#al)" stroke-width=".25" d="M26.87 41.53c.94 1.18 2.1 1.9 3 2.96.27.28-1.2 1.1-1.9.7-.72-.38-2.55-1.85-2.6-2.15-.05-.3.02-1.27.16-1.36.42-.3 1.2-.33 1.34-.17z"/><circle cx="1181.993" cy="1697.514" r=".579" fill="#ef7916" stroke-width=".252" transform="matrix(.993 0 0 .993 -1147.816 -1644.485)"/><path fill="url(#am)" stroke-width=".25" d="M25.66 33.37c.27-.2 1.32-.23 1.87.2.34.26-.62 7.7-.67 7.84-.1.34-.94.48-1.3.04-.13-.16-.33-7.75.1-8.07z"/><path fill="url(#an)" stroke-width=".25" d="M26.1 32.06c.2-.15 1.17-.1 1.36.1.36.42.36 1.08.02 1.44-.25.25-1.44.18-1.7-.18-.18-.24-.23-.97.3-1.36z"/><path fill="url(#ao)" stroke-width=".25" d="M28.05 23.1c-.58-.4-2.6-.4-2.9.14-.4.64.43 8.35.68 8.85.2.4 1.7.57 1.95.05.14-.28.67-8.78.27-9.05z"/><path fill="url(#ap)" stroke-width=".25" d="M27.75 21.63c.3.1.34 1.4.15 1.58-.47.5-2.33.44-2.68.03-.35-.4-.36-1.4-.14-1.54.62-.42 2.34-.18 2.67-.07z"/></g></g></svg>