<svg xmlns="http://www.w3.org/2000/svg" width="48" height="48" xmlns:xlink="http://www.w3.org/1999/xlink"><defs><linearGradient x1="9.186" x2="10.352" y1="426.654" y2="426.654" gradientUnits="userSpaceOnUse"><stop offset="0" stop-color="#F3B167"/><stop offset=".292" stop-color="#F0D196"/><stop offset=".371" stop-color="#F0D196"/><stop offset="1" stop-color="#EC8324"/></linearGradient><radialGradient cx="4.763" cy="429.83" r="8.965" gradientUnits="userSpaceOnUse" fy="429.83" fx="4.763"><stop offset="0" stop-color="#F0D196"/><stop offset=".197" stop-color="#F0D196"/><stop offset=".815" stop-color="#EC8324"/><stop offset=".815" stop-color="#EC8324"/></radialGradient><linearGradient x1="7.676" x2="8.676" y1="426.832" y2="426.249" gradientUnits="userSpaceOnUse"><stop offset="0" stop-color="#F3B167"/><stop offset=".292" stop-color="#F0D196"/><stop offset=".371" stop-color="#F0D196"/><stop offset="1" stop-color="#EC8324"/></linearGradient><linearGradient id="a" x1="15.024" x2="21.024" y1="444.264" y2="443.014" gradientUnits="userSpaceOnUse"><stop offset="0" stop-color="#F3B167"/><stop offset=".292" stop-color="#F0D196"/><stop offset=".421" stop-color="#F0D196"/><stop offset="1" stop-color="#EC8324"/></linearGradient><radialGradient id="b" cx="14.43" cy="440.761" r="11.514" gradientUnits="userSpaceOnUse" fy="440.761" fx="14.43"><stop offset=".185" stop-color="#F0D196"/><stop offset=".242" stop-color="#F0C785"/><stop offset=".42" stop-color="#ECAA57"/><stop offset=".58" stop-color="#ED953A"/><stop offset=".713" stop-color="#EC8829"/><stop offset=".803" stop-color="#EC8324"/></radialGradient><linearGradient id="c" x1="41.566" x2="42.816" y1="451.968" y2="450.718" gradientUnits="userSpaceOnUse"><stop offset="0" stop-color="#F3B167"/><stop offset=".421" stop-color="#EFC685"/><stop offset="1" stop-color="#EC8324"/></linearGradient><radialGradient id="d" cx="39.103" cy="448.88" r="2.015" gradientUnits="userSpaceOnUse" fy="448.88" fx="39.103"><stop offset="0" stop-color="#F0D196"/><stop offset=".129" stop-color="#F0D196"/><stop offset="1" stop-color="#EC8324"/></radialGradient><linearGradient id="e" x1="34.514" x2="39.764" y1="444.666" y2="440.541" gradientUnits="userSpaceOnUse"><stop offset="0" stop-color="#F3B167"/><stop offset=".421" stop-color="#E4BA67"/><stop offset="1" stop-color="#EC8324"/></linearGradient><radialGradient id="f" cx="33.732" cy="442.676" r="9.005" gradientUnits="userSpaceOnUse" fy="442.676" fx="33.732"><stop offset="0" stop-color="#F0D196"/><stop offset=".197" stop-color="#F0D196"/><stop offset="1" stop-color="#EC8324"/></radialGradient><radialGradient cx="17.651" cy="441.453" r="8.132" gradientUnits="userSpaceOnUse" fy="441.453" fx="17.651"><stop offset="0" stop-color="#F0D196"/><stop offset=".197" stop-color="#F0D196"/><stop offset="1" stop-color="#EC8324"/></radialGradient><radialGradient cx="11.898" cy="436.504" r="3.832" gradientUnits="userSpaceOnUse" fy="436.504" fx="11.898"><stop offset="0" stop-color="#F0D196"/><stop offset=".309" stop-color="#F0D196"/><stop offset="1" stop-color="#EC8324"/></radialGradient><linearGradient x1="14.377" x2="16.677" y1="446.997" y2="446.757" gradientUnits="userSpaceOnUse"><stop offset="0" stop-color="#F3B167"/><stop offset=".292" stop-color="#F0D196"/><stop offset=".421" stop-color="#F0D196"/><stop offset="1" stop-color="#EC8324"/></linearGradient><linearGradient id="g" x1="35.577" x2="37.244" y1="452.134" y2="451.384" gradientUnits="userSpaceOnUse"><stop offset="0" stop-color="#F3B167"/><stop offset=".421" stop-color="#EFC685"/><stop offset="1" stop-color="#EC8324"/></linearGradient><radialGradient id="h" cx="35.186" cy="449.088" r="1.758" gradientUnits="userSpaceOnUse" fy="449.088" fx="35.186"><stop offset="0" stop-color="#F0D196"/><stop offset=".129" stop-color="#F0D196"/><stop offset="1" stop-color="#EC8324"/></radialGradient><linearGradient id="i" x1="33.441" x2="35.108" y1="445.444" y2="445.027" gradientUnits="userSpaceOnUse"><stop offset="0" stop-color="#F3B167"/><stop offset=".292" stop-color="#F0D196"/><stop offset=".421" stop-color="#F0D196"/><stop offset="1" stop-color="#EC8324"/></linearGradient><radialGradient cx="15.185" cy="451.655" r="1.545" gradientUnits="userSpaceOnUse" fy="451.655" fx="15.185"><stop offset="0" stop-color="#F0D196"/><stop offset=".129" stop-color="#F0D196"/><stop offset="1" stop-color="#EC8324"/></radialGradient><linearGradient x1="14.073" x2="16.407" y1="455.625" y2="455.958" gradientUnits="userSpaceOnUse"><stop offset="0" stop-color="#F3B167"/><stop offset=".292" stop-color="#F0D196"/><stop offset=".371" stop-color="#F0D196"/><stop offset="1" stop-color="#EC8324"/></linearGradient><linearGradient x1="13.238" x2="15.701" y1="460.733" y2="460.983" gradientUnits="userSpaceOnUse"><stop offset="0" stop-color="#F3B167"/><stop offset=".292" stop-color="#F0D196"/><stop offset=".376" stop-color="#F0D196"/><stop offset="1" stop-color="#EC8324"/></linearGradient><radialGradient id="j" cx="19.063" cy="451.422" r="1.385" gradientUnits="userSpaceOnUse" fy="451.422" fx="19.063"><stop offset="0" stop-color="#F0D196"/><stop offset=".129" stop-color="#F0D196"/><stop offset="1" stop-color="#EC8324"/></radialGradient><linearGradient id="k" x1="19.373" x2="21.214" y1="456.039" y2="455.694" gradientUnits="userSpaceOnUse"><stop offset="0" stop-color="#F3B167"/><stop offset=".292" stop-color="#F0D196"/><stop offset=".371" stop-color="#F0D196"/><stop offset="1" stop-color="#EC8324"/></linearGradient><linearGradient id="l" x1="19.316" x2="22.696" y1="461.299" y2="461.258" gradientUnits="userSpaceOnUse"><stop offset="0" stop-color="#F3B167"/><stop offset=".292" stop-color="#F0D196"/><stop offset=".376" stop-color="#F0D196"/><stop offset="1" stop-color="#EC8324"/></linearGradient><linearGradient id="m" x1="43.391" x2="45.402" y1="456.496" y2="456.138" gradientUnits="userSpaceOnUse"><stop offset="0" stop-color="#F3B167"/><stop offset=".292" stop-color="#F0D196"/><stop offset=".371" stop-color="#F0D196"/><stop offset="1" stop-color="#EC8324"/></linearGradient><linearGradient id="n" x1="44.091" x2="46.425" y1="460.514" y2="459.597" gradientUnits="userSpaceOnUse"><stop offset="0" stop-color="#F3B167"/><stop offset=".292" stop-color="#F0D196"/><stop offset=".376" stop-color="#F0D196"/><stop offset="1" stop-color="#EC8324"/></linearGradient><linearGradient id="o" x1="36.016" x2="37.433" y1="456.114" y2="456.281" gradientUnits="userSpaceOnUse"><stop offset="0" stop-color="#F3B167"/><stop offset=".292" stop-color="#F0D196"/><stop offset=".371" stop-color="#F0D196"/><stop offset="1" stop-color="#EC8324"/></linearGradient><linearGradient id="p" x1="34.88" x2="36.63" y1="459.535" y2="460.784" gradientUnits="userSpaceOnUse"><stop offset="0" stop-color="#F3B167"/><stop offset=".292" stop-color="#F0D196"/><stop offset=".376" stop-color="#F0D196"/><stop offset="1" stop-color="#EC8324"/></linearGradient><linearGradient id="q" x1="41.275" x2="39.885" y1="437.4" y2="438.082" gradientUnits="userSpaceOnUse"><stop offset="0" stop-color="#EC8324"/><stop offset=".579" stop-color="#F3B167"/><stop offset="1" stop-color="#EC8324"/></linearGradient><linearGradient id="r" x1="42.036" x2="42.827" y1="443.307" y2="442.912" gradientUnits="userSpaceOnUse"><stop offset="0" stop-color="#EC8324"/><stop offset=".579" stop-color="#F3B167"/><stop offset="1" stop-color="#EC8324"/></linearGradient><linearGradient id="s" x1="44.72" x2="44.362" y1="446.774" y2="447.038" gradientUnits="userSpaceOnUse"><stop offset="0" stop-color="#EC8324"/><stop offset=".579" stop-color="#F3B167"/><stop offset="1" stop-color="#EC8324"/></linearGradient><linearGradient id="x" x1="15.024" x2="21.024" y1="444.264" y2="443.014" xlink:href="#a" gradientUnits="userSpaceOnUse" gradientTransform="matrix(1.709 0 0 1.709 -8.261 -744.621)"/><radialGradient id="w" cx="14.43" cy="440.761" r="11.514" xlink:href="#b" gradientUnits="userSpaceOnUse" fx="14.43" fy="440.761" gradientTransform="matrix(1.709 0 0 1.709 -8.261 -744.621)"/><linearGradient x1="41.566" x2="42.816" y1="451.968" y2="450.718" xlink:href="#c" gradientUnits="userSpaceOnUse" gradientTransform="matrix(1.009 0 0 1.009 .151 -423.846)"/><radialGradient cx="39.103" cy="448.88" r="2.015" xlink:href="#d" gradientUnits="userSpaceOnUse" fx="39.103" fy="448.88" gradientTransform="matrix(1.009 0 0 1.009 .151 -423.846)"/><linearGradient x1="34.514" x2="39.764" y1="444.666" y2="440.541" xlink:href="#e" gradientUnits="userSpaceOnUse" gradientTransform="matrix(1.009 0 0 1.009 .151 -423.846)"/><radialGradient cx="33.732" cy="442.676" r="9.005" xlink:href="#f" gradientUnits="userSpaceOnUse" fx="33.732" fy="442.676" gradientTransform="matrix(1.009 0 0 1.009 .151 -423.846)"/><linearGradient x1="35.577" x2="37.244" y1="452.134" y2="451.384" xlink:href="#g" gradientUnits="userSpaceOnUse" gradientTransform="matrix(1.009 0 0 1.009 .151 -423.846)"/><radialGradient cx="35.186" cy="449.088" r="1.758" xlink:href="#h" gradientUnits="userSpaceOnUse" fx="35.186" fy="449.088" gradientTransform="matrix(1.009 0 0 1.009 .151 -423.846)"/><linearGradient x1="33.441" x2="35.108" y1="445.444" y2="445.027" xlink:href="#i" gradientUnits="userSpaceOnUse" gradientTransform="matrix(1.009 0 0 1.009 .151 -423.846)"/><radialGradient id="v" cx="19.063" cy="451.422" r="1.385" xlink:href="#j" gradientUnits="userSpaceOnUse" fx="19.063" fy="451.422" gradientTransform="matrix(1.709 0 0 1.709 -8.261 -744.621)"/><linearGradient id="u" x1="19.373" x2="21.214" y1="456.039" y2="455.694" xlink:href="#k" gradientUnits="userSpaceOnUse" gradientTransform="matrix(1.709 0 0 1.709 -8.261 -744.621)"/><linearGradient id="t" x1="19.316" x2="22.696" y1="461.299" y2="461.258" xlink:href="#l" gradientUnits="userSpaceOnUse" gradientTransform="matrix(1.709 0 0 1.709 -8.261 -744.621)"/><linearGradient x1="43.391" x2="45.402" y1="456.496" y2="456.138" xlink:href="#m" gradientUnits="userSpaceOnUse" gradientTransform="matrix(1.009 0 0 1.009 .151 -423.846)"/><linearGradient x1="44.091" x2="46.425" y1="460.514" y2="459.597" xlink:href="#n" gradientUnits="userSpaceOnUse" gradientTransform="matrix(1.009 0 0 1.009 .151 -423.846)"/><linearGradient x1="36.016" x2="37.433" y1="456.114" y2="456.281" xlink:href="#o" gradientUnits="userSpaceOnUse" gradientTransform="matrix(1.009 0 0 1.009 .151 -423.846)"/><linearGradient x1="34.88" x2="36.63" y1="459.535" y2="460.784" xlink:href="#p" gradientUnits="userSpaceOnUse" gradientTransform="matrix(1.009 0 0 1.009 .151 -423.846)"/><linearGradient x1="41.275" x2="39.885" y1="437.4" y2="438.082" xlink:href="#q" gradientUnits="userSpaceOnUse" gradientTransform="matrix(1.009 0 0 1.009 .151 -423.846)"/><linearGradient x1="42.036" x2="42.827" y1="443.307" y2="442.912" xlink:href="#r" gradientUnits="userSpaceOnUse" gradientTransform="matrix(1.009 0 0 1.009 .151 -423.846)"/><linearGradient x1="44.72" x2="44.362" y1="446.774" y2="447.038" xlink:href="#s" gradientUnits="userSpaceOnUse" gradientTransform="matrix(1.009 0 0 1.009 .151 -423.846)"/></defs><g stroke="#653310"><path fill="none" stroke-width="1.208" d="M8-13.43c3.12.25 6.46 3.82 6.46 4.62 0 4.92-5.18 7.47-8.52 8.5C2.68.7-5.83-1.34-6.56-2.6c-.75-1.3-1.03-2.55 0-3.2C-4.8-6.85 7.1-13.5 8-13.42z"/><path fill="none" stroke-width="1.208" d="M14.06-8.65c.42.03 2.63 4.3 4.54 6.3 3.67 3.82 3.75 5.1 3.1 5.87-2.72 3.26-9.36 9.3-10.32 7.73C8.86 7.05 7.48.35 6.54-.83c-.78-1 6.28-7.9 7.52-7.82z"/><path fill="none" stroke-width="1.208" d="M16.45 12.2C17.08 9.57 20.83.66 24.88.42c1.68-.1 5.58 4.06 5.58 5.02 0 1.2-1.25 6.16-2 10.74-.83 5.15-.87 8.56-.93 8.82-.17.8-4.96 1.72-5.43.1-.82-2.87-6.55-9.18-5.65-12.9z"/><path fill="none" stroke-width="1.208" d="M24.1 24.26c.42-.46 3.1.8 3.52 1.8.5 1.24-1.2 3.04-2.18 3.26-1.44.32-3.25-1.16-3.3-1.53-.16-1.3 1.2-2.7 1.96-3.54z"/><path fill="none" stroke-width="1.208" d="M27.9 27.28c.24.5 0 8.63 1.8 12.53.1.24-.83 1.86-1.4 2.1-.64.28-2.35-.23-2.35-.56 0-6.4-3.38-11.7-3.1-12.53.45-1.36 4.58-2.57 5.06-1.52z"/><path fill="none" stroke-width="1.208" d="M19.3-1.4C19.77-1.4 25-.08 31.18-.3c10.04-.36 23.1-2.3 25.9-1.74 4.54.9-3.7 12.83-7.67 14.08-3.98 1.26-6.9 2.06-10.75 3.1-3.83 1.05-11.88 5.56-14.4 5.65-2.23.07-4.22.72-7.17-2.4-3.55-3.74-6.5-6.35-6.4-7.5.06-.88 5.53-12.55 8.63-12.3z"/><path fill="none" stroke-width="1.208" d="M12.53 12.9c2.8 3.98 4.1 10.52 4.03 11.23-.06.7-.3.64-.12 1.7.1.5 2.17.58 3.28.1 1.1-.46 1.57-.17 1.63-.64.06-.47.35-2.8 1-4.62.64-1.8-10.6-8.88-9.82-7.77z"/><path fill="none" stroke-width="1.208" d="M17.1 25.47c-.36.7-.66 1.1-.6 2.1.06 1 1.1 2.58 1.23 2.7.12.1.86.25 1.05.07.18-.2 2.22-1.3 2.27-1.7.05-.4.26-2.62-.07-3.04-.33-.43-3.75-.42-3.9-.13z"/><path fill="none" stroke-width="1.208" d="M17.1 28.73c-.2.25-.45.8-.2 3.27.28 2.48-.96 6.95-1.23 7.3-.04.06-.4.04-.48.35-.08.3.43.98.78 1.02.36.05 2.04.32 2.4.1.35-.23.4-.9.4-1.6 0-.7-.05-2.34 1.23-5.62 1.3-3.28 1.38-4.47 1.38-4.9 0-.45-3.98-.32-4.3.08z"/><path fill="none" stroke-width="1.208" d="M15.16 40.14l-.68.7s-.7 1.97-1.15 2.05c-.46.07-2.67 1.5-2.83 1.82-.15.3 0 .84 1.15.84s4.74.15 4.97-.15c.22-.3 1.98-1.45 1.83-2.06-.15-.6-.15-1.75-.15-1.75l.38-1s-2.98-.7-3.52-.46z"/><path fill="none" stroke-width="1.208" d="M26.22 41.55l-.7 1.24s-.4 1.44-.6 1.58c-.22.14-2.77 1.65-3.04 1.86-.28.2-.28 1.04 0 1.1.27.07 5.17-.4 5.5-.4.36 0 2.63-1.53 2.98-2.35.34-.84 0-1.53-.2-2-.2-.5-.2-2.15-.2-2.15s-1.8-.14-2.08 0c-.28.13-1.66 1.1-1.66 1.1z"/><path fill="url(#t)" stroke-width=".252" d="M26.22 41.55l-.7 1.24s-.4 1.44-.6 1.58c-.22.14-2.77 1.65-3.04 1.86-.28.2-.28 1.04 0 1.1.27.07 5.17-.4 5.5-.4.36 0 2.63-1.53 2.98-2.35.34-.84 0-1.53-.2-2-.2-.5-.2-2.15-.2-2.15s-1.8-.14-2.08 0c-.28.13-1.66 1.1-1.66 1.1z"/><path fill="url(#u)" stroke-width=".252" d="M27.9 27.28c.24.5 0 8.63 1.8 12.53.1.24-.83 1.86-1.4 2.1-.64.28-2.35-.23-2.35-.56 0-6.4-3.38-11.7-3.1-12.53.45-1.36 4.58-2.57 5.06-1.52z"/><path fill="url(#v)" stroke-width=".252" d="M23.17 24.82c.06-.62 2.92-2.18 4.46 1.25.17.4-.85 2.3-1.4 3.03-.34.44-.86.34-1.18.34-1.03 0-1.3-.8-1.62-1.1-.6-.56-.87-.87-.87-1.08 0-1 .56-1.85.6-2.44z"/><path fill="#eeeeec" stroke-width=".252" d="M15.16 40.14l-.68.7s-.7 1.97-1.15 2.05c-.46.07-2.67 1.5-2.83 1.82-.15.3 0 .84 1.15.84s4.74.15 4.97-.15c.22-.3 1.98-1.45 1.83-2.06-.15-.6-.15-1.75-.15-1.75l.38-1s-2.98-.7-3.52-.46z"/><path fill="#eeeeec" stroke-width=".252" d="M17.1 28.73c-.2.25-.45.8-.2 3.27.28 2.48-.96 6.95-1.23 7.3-.04.06-.4.04-.48.35-.08.3.43.98.78 1.02.36.05 2.04.32 2.4.1.35-.23.4-.9.4-1.6 0-.7-.05-2.34 1.23-5.62 1.3-3.28 1.38-4.47 1.38-4.9 0-.45-3.98-.32-4.3.08z"/><path fill="#eeeeec" stroke-width=".252" d="M17.1 25.47c-.36.7-.66 1.1-.6 2.1.06 1 .95 2.24 1.07 2.36.12.1 1.48.18 1.67 0 .94-.9 1.76-.88 1.8-1.28.06-.4.27-2.63-.06-3.05-.33-.43-3.75-.42-3.9-.13z"/><path fill="#eeeeec" stroke-width=".252" d="M12.53 12.9c2.8 3.98 4.1 10.52 4.03 11.23-.06.7-.3.64-.12 1.7.1.5 2.17.58 3.28.1 1.1-.46 1.57-.17 1.63-.64.06-.47.35-2.8 1-4.62.64-1.8-10.6-8.88-9.82-7.77z"/><path fill="#eeeeec" stroke-width=".252" d="M14.06-8.65c.42.03 2.63 4.3 4.54 6.3 3.67 3.82 3.75 5.1 3.1 5.87-2.72 3.26-9.36 9.3-10.32 7.73C8.86 7.05 7.48.35 6.54-.83c-.78-1 6.28-7.9 7.52-7.82z"/><path fill="#eeeeec" stroke-width=".252" d="M18.96-.67c2.36-.2 6.02.6 12.2.38C41.22-.65 54.3-2.6 57.1-2.03c4.53.9-3.7 12.83-7.68 14.08-3.98 1.26-6.9 2.06-10.75 3.1-3.83 1.05-11.88 5.56-14.4 5.66-2.23.08-4.22.72-7.17-2.4-3.55-3.74-6.5-6.35-6.4-7.5.06-.88 5.18-11.32 8.28-11.57z"/><path fill="url(#w)" stroke-width=".252" d="M16.45 12.2C17.08 9.57 20.83.66 24.88.42c1.68-.1 5.58 4.06 5.58 5.02 0 1.2-1.25 6.16-2 10.74-.83 5.15-.87 8.56-.93 8.82-.17.8-4.96 1.72-5.43.1-.82-2.87-6.55-9.18-5.65-12.9z"/><path fill="url(#x)" stroke-width=".252" d="M16.45 12.2C17.08 9.57 20.83.66 24.88.42c1.68-.1 5.58 4.06 5.58 5.02 0 1.2-1.25 6.16-2 10.74-.83 5.15-.87 8.56-.93 8.82-.17.8-4.96 1.72-5.43.1-.82-2.87-6.55-9.18-5.65-12.9z"/><path fill="#eeeeec" stroke-width=".252" d="M8-13.43c3.12.25 6.46 3.82 6.46 4.62 0 4.92-5.18 7.47-8.52 8.5C2.68.7-5.83-1.34-6.56-2.6c-.75-1.3-1.03-2.55 0-3.2C-4.8-6.85 7.1-13.5 8-13.42z"/></g></svg>