<svg xmlns="http://www.w3.org/2000/svg" width="48" height="48" xmlns:xlink="http://www.w3.org/1999/xlink"><defs><linearGradient id="b"><stop offset="0" stop-color="#f77b00"/><stop offset="1" stop-color="#ffb163"/></linearGradient><linearGradient id="a"><stop offset="0" stop-color="#ffcf9f"/><stop offset="1" stop-color="#f57900"/></linearGradient><radialGradient id="e" cx="33.891" cy="17.022" r="4.923" xlink:href="#a" fx="33.891" fy="17.022" gradientTransform="matrix(1.022 0 0 1.409 -.08 -6.934)" gradientUnits="userSpaceOnUse"/><radialGradient id="d" cx="22.265" cy="13.367" r="5.961" xlink:href="#a" fx="22.265" fy="13.367" gradientTransform="matrix(1.022 0 0 1.183 -.08 -2.163)" gradientUnits="userSpaceOnUse"/><radialGradient id="c" cx="11.91" cy="19.008" r="5.833" xlink:href="#a" fx="11.91" fy="19.008" gradientTransform="matrix(1.022 0 0 1.141 -.08 -2.272)" gradientUnits="userSpaceOnUse"/><radialGradient id="f" cx="10.823" cy="32.592" r="6.137" xlink:href="#a" fx="10.823" fy="32.592" gradientTransform="matrix(1.022 0 0 1.021 -.08 .034)" gradientUnits="userSpaceOnUse"/><radialGradient id="g" cx="33.457" cy="33.935" r="12.037" xlink:href="#b" fx="33.457" fy="33.935" gradientTransform="matrix(1.296 .027 -.03 1.441 -6.293 -14.456)" gradientUnits="userSpaceOnUse"/></defs><g fill-rule="evenodd" stroke="#7c3700"><path fill="#f57900" d="M7.5 5.15C6.17 5.8 5.76 9.55 6.23 11c.46 1.48 1.82.7 3.15.04 1.32-.66 2.62-1.18 2.15-2.65-.47-1.48-2.7-3.9-4.03-3.25z"/><path fill="#f57900" d="M16.2.48c-.92.66-.66 2.65.13 3.77.8 1.12 2.28.94 3.2.3.9-.66 1.22-1.8.42-2.9C19.15.5 17.1-.18 16.2.47z"/><path fill="#f57900" d="M33.43 5.78c-.94.43-1.2 2.73-.72 3.88.48 1.14 1.67 1.14 2.6.7.96-.42 1.8-.7 1.32-1.85-.47-1.14-2.25-3.15-3.2-2.72z"/><path fill="#f57900" d="M4.5 22.83c-.86.9-1.3 3.86-.3 4.62 1 .77 2.85-.5 3.72-1.4.87-.92.75-1.44-.24-2.2-1-.78-2.3-1.92-3.17-1.02z"/><path fill="url(#c)" d="M11.33 13.54c-2.35 1.17-2.85 6.16-1.4 9.17 1.48 3.03 5.67 3.43 8.02 2.25 2.35-1.17 2.64-3.6 1.17-6.6-1.46-3.03-5.44-6-7.8-4.8z"/><path fill="url(#d)" d="M20.3 7.67c-1.84 1.78.13 8.52 2.45 11.2 1.23 1.42 4.03 2 5.87.2 1.84-1.77 3.04-4.33 1.17-7.35-1.87-3-7.66-5.84-9.5-4.05z"/><path fill="url(#e)" d="M34.92 11.94c-2.14.56-3.4 4.4-2.56 7.57.82 3.2 3.73 5.7 5.87 5.13 2.13-.56 3.5-4.18 2.66-7.36-.83-3.17-3.85-5.9-5.98-5.33z"/><path fill="url(#f)" d="M8.88 28.47c-2.52 2 .37 6.54 2.67 8.97 1.76 1.87 3.97 2.16 5.76.64 1.8-1.52 3.16-3.8 1.08-6.4-2.1-2.62-6.36-5.7-9.5-3.2z"/><path fill="url(#g)" d="M25.04 24.03c-4.48 2.36-3.66 6.8-3.7 11.56-.03 5.86-1.12 11.4 2.4 11.78 6.36.72 6.68-4.54 10.95-6.3 5.86-2.45 9.66-3.05 10-6.56.45-4.6-3.3-5.8-8.46-7.5-5.3-1.75-6.8-5.3-11.2-3z"/></g></svg>