<svg xmlns="http://www.w3.org/2000/svg" width="48" height="48"><defs><linearGradient x1="9.186" x2="10.352" y1="426.654" y2="426.654" gradientUnits="userSpaceOnUse"><stop offset="0" stop-color="#F3B167"/><stop offset=".292" stop-color="#F0D196"/><stop offset=".371" stop-color="#F0D196"/><stop offset="1" stop-color="#EC8324"/></linearGradient><radialGradient cx="4.763" cy="429.83" r="8.965" gradientUnits="userSpaceOnUse" fy="429.83" fx="4.763"><stop offset="0" stop-color="#F0D196"/><stop offset=".197" stop-color="#F0D196"/><stop offset=".815" stop-color="#EC8324"/><stop offset=".815" stop-color="#EC8324"/></radialGradient><linearGradient x1="7.676" x2="8.676" y1="426.832" y2="426.249" gradientUnits="userSpaceOnUse"><stop offset="0" stop-color="#F3B167"/><stop offset=".292" stop-color="#F0D196"/><stop offset=".371" stop-color="#F0D196"/><stop offset="1" stop-color="#EC8324"/></linearGradient><linearGradient x1="15.024" x2="21.024" y1="444.264" y2="443.014" gradientUnits="userSpaceOnUse"><stop offset="0" stop-color="#F3B167"/><stop offset=".292" stop-color="#F0D196"/><stop offset=".421" stop-color="#F0D196"/><stop offset="1" stop-color="#EC8324"/></linearGradient><radialGradient cx="14.43" cy="440.761" r="11.514" gradientUnits="userSpaceOnUse" fy="440.761" fx="14.43"><stop offset=".185" stop-color="#F0D196"/><stop offset=".242" stop-color="#F0C785"/><stop offset=".42" stop-color="#ECAA57"/><stop offset=".58" stop-color="#ED953A"/><stop offset=".713" stop-color="#EC8829"/><stop offset=".803" stop-color="#EC8324"/></radialGradient><linearGradient x1="41.566" x2="42.816" y1="451.968" y2="450.718" gradientUnits="userSpaceOnUse"><stop offset="0" stop-color="#F3B167"/><stop offset=".421" stop-color="#EFC685"/><stop offset="1" stop-color="#EC8324"/></linearGradient><radialGradient cx="39.103" cy="448.88" r="2.015" gradientUnits="userSpaceOnUse" fy="448.88" fx="39.103"><stop offset="0" stop-color="#F0D196"/><stop offset=".129" stop-color="#F0D196"/><stop offset="1" stop-color="#EC8324"/></radialGradient><linearGradient x1="34.514" x2="39.764" y1="444.666" y2="440.541" gradientUnits="userSpaceOnUse"><stop offset="0" stop-color="#F3B167"/><stop offset=".421" stop-color="#E4BA67"/><stop offset="1" stop-color="#EC8324"/></linearGradient><radialGradient cx="33.732" cy="442.676" r="9.005" gradientUnits="userSpaceOnUse" fy="442.676" fx="33.732"><stop offset="0" stop-color="#F0D196"/><stop offset=".197" stop-color="#F0D196"/><stop offset="1" stop-color="#EC8324"/></radialGradient><radialGradient cx="17.651" cy="441.453" r="8.132" gradientUnits="userSpaceOnUse" fy="441.453" fx="17.651"><stop offset="0" stop-color="#F0D196"/><stop offset=".197" stop-color="#F0D196"/><stop offset="1" stop-color="#EC8324"/></radialGradient><radialGradient cx="11.898" cy="436.504" r="3.832" gradientUnits="userSpaceOnUse" fy="436.504" fx="11.898"><stop offset="0" stop-color="#F0D196"/><stop offset=".309" stop-color="#F0D196"/><stop offset="1" stop-color="#EC8324"/></radialGradient><linearGradient x1="14.377" x2="16.677" y1="446.997" y2="446.757" gradientUnits="userSpaceOnUse"><stop offset="0" stop-color="#F3B167"/><stop offset=".292" stop-color="#F0D196"/><stop offset=".421" stop-color="#F0D196"/><stop offset="1" stop-color="#EC8324"/></linearGradient><linearGradient x1="35.577" x2="37.244" y1="452.134" y2="451.384" gradientUnits="userSpaceOnUse"><stop offset="0" stop-color="#F3B167"/><stop offset=".421" stop-color="#EFC685"/><stop offset="1" stop-color="#EC8324"/></linearGradient><radialGradient cx="35.186" cy="449.088" r="1.758" gradientUnits="userSpaceOnUse" fy="449.088" fx="35.186"><stop offset="0" stop-color="#F0D196"/><stop offset=".129" stop-color="#F0D196"/><stop offset="1" stop-color="#EC8324"/></radialGradient><linearGradient x1="33.441" x2="35.108" y1="445.444" y2="445.027" gradientUnits="userSpaceOnUse"><stop offset="0" stop-color="#F3B167"/><stop offset=".292" stop-color="#F0D196"/><stop offset=".421" stop-color="#F0D196"/><stop offset="1" stop-color="#EC8324"/></linearGradient><radialGradient cx="15.185" cy="451.655" r="1.545" gradientUnits="userSpaceOnUse" fy="451.655" fx="15.185"><stop offset="0" stop-color="#F0D196"/><stop offset=".129" stop-color="#F0D196"/><stop offset="1" stop-color="#EC8324"/></radialGradient><linearGradient x1="14.073" x2="16.407" y1="455.625" y2="455.958" gradientUnits="userSpaceOnUse"><stop offset="0" stop-color="#F3B167"/><stop offset=".292" stop-color="#F0D196"/><stop offset=".371" stop-color="#F0D196"/><stop offset="1" stop-color="#EC8324"/></linearGradient><linearGradient x1="13.238" x2="15.701" y1="460.733" y2="460.983" gradientUnits="userSpaceOnUse"><stop offset="0" stop-color="#F3B167"/><stop offset=".292" stop-color="#F0D196"/><stop offset=".376" stop-color="#F0D196"/><stop offset="1" stop-color="#EC8324"/></linearGradient><radialGradient cx="19.063" cy="451.422" r="1.385" gradientUnits="userSpaceOnUse" fy="451.422" fx="19.063"><stop offset="0" stop-color="#F0D196"/><stop offset=".129" stop-color="#F0D196"/><stop offset="1" stop-color="#EC8324"/></radialGradient><linearGradient x1="19.373" x2="21.214" y1="456.039" y2="455.694" gradientUnits="userSpaceOnUse"><stop offset="0" stop-color="#F3B167"/><stop offset=".292" stop-color="#F0D196"/><stop offset=".371" stop-color="#F0D196"/><stop offset="1" stop-color="#EC8324"/></linearGradient><linearGradient x1="19.316" x2="22.696" y1="461.299" y2="461.258" gradientUnits="userSpaceOnUse"><stop offset="0" stop-color="#F3B167"/><stop offset=".292" stop-color="#F0D196"/><stop offset=".376" stop-color="#F0D196"/><stop offset="1" stop-color="#EC8324"/></linearGradient><linearGradient x1="43.391" x2="45.402" y1="456.496" y2="456.138" gradientUnits="userSpaceOnUse"><stop offset="0" stop-color="#F3B167"/><stop offset=".292" stop-color="#F0D196"/><stop offset=".371" stop-color="#F0D196"/><stop offset="1" stop-color="#EC8324"/></linearGradient><linearGradient x1="44.091" x2="46.425" y1="460.514" y2="459.597" gradientUnits="userSpaceOnUse"><stop offset="0" stop-color="#F3B167"/><stop offset=".292" stop-color="#F0D196"/><stop offset=".376" stop-color="#F0D196"/><stop offset="1" stop-color="#EC8324"/></linearGradient><linearGradient x1="36.016" x2="37.433" y1="456.114" y2="456.281" gradientUnits="userSpaceOnUse"><stop offset="0" stop-color="#F3B167"/><stop offset=".292" stop-color="#F0D196"/><stop offset=".371" stop-color="#F0D196"/><stop offset="1" stop-color="#EC8324"/></linearGradient><linearGradient x1="34.88" x2="36.63" y1="459.535" y2="460.784" gradientUnits="userSpaceOnUse"><stop offset="0" stop-color="#F3B167"/><stop offset=".292" stop-color="#F0D196"/><stop offset=".376" stop-color="#F0D196"/><stop offset="1" stop-color="#EC8324"/></linearGradient><linearGradient x1="41.275" x2="39.885" y1="437.4" y2="438.082" gradientUnits="userSpaceOnUse"><stop offset="0" stop-color="#EC8324"/><stop offset=".579" stop-color="#F3B167"/><stop offset="1" stop-color="#EC8324"/></linearGradient><linearGradient x1="42.036" x2="42.827" y1="443.307" y2="442.912" gradientUnits="userSpaceOnUse"><stop offset="0" stop-color="#EC8324"/><stop offset=".579" stop-color="#F3B167"/><stop offset="1" stop-color="#EC8324"/></linearGradient><linearGradient x1="44.72" x2="44.362" y1="446.774" y2="447.038" gradientUnits="userSpaceOnUse"><stop offset="0" stop-color="#EC8324"/><stop offset=".579" stop-color="#F3B167"/><stop offset="1" stop-color="#EC8324"/></linearGradient></defs><g><path fill="none" stroke="#653310" stroke-width="1.208" d="M-1 3.1c.42.03 2.56 4.16 4.4 6.1 3.58 3.7 3.65 4.95 3.02 5.7-2.64 3.16-9.08 9.03-10 7.5-2.45-4.1-3.78-10.57-4.7-11.72-.75-.96 6.1-7.67 7.3-7.58z"/><path fill="none" stroke="#653310" stroke-width="1.208" d="M1.33 23.3c.62-2.53 4.24-11.18 8.18-11.4 1.63-.1 5.4 3.93 5.4 4.86 0 1.17-1.2 5.97-1.92 10.4-.82 5-.85 8.3-.9 8.56-.18.77-4.82 1.67-5.27.1-.78-2.78-6.35-8.9-5.47-12.5z"/><path fill="none" stroke="#653310" stroke-width="1.208" d="M8.74 35c.4-.44 3.02.77 3.42 1.76.5 1.2-1.16 2.94-2.1 3.15-1.4.33-3.16-1.1-3.2-1.47C6.7 37.17 8 35.8 8.73 35z"/><path fill="none" stroke="#653310" stroke-width="1.208" d="M12.43 37.93c.23.5 0 8.37 1.75 12.15.1.22-.8 1.8-1.35 2.03-.63.28-2.3-.2-2.3-.53 0-6.22-3.27-11.34-3-12.15.44-1.33 4.44-2.5 4.9-1.5z"/><path fill="none" stroke="#653310" stroke-width="1.208" d="M4.1 10.12c.44.03 5.5 1.3 11.5 1.08 9.73-.36 22.4-2.24 25.1-1.7 4.4.88-3.58 12.44-7.44 13.66-3.85 1.2-6.7 2-10.4 3-3.73 1.02-11.52 5.4-13.97 5.5-2.17.06-4.1.68-6.96-2.33-3.44-3.63-6.3-6.16-6.2-7.28.05-.86 5.36-12.16 8.37-11.93z"/><path fill="none" stroke="#653310" stroke-width="1.208" d="M31.95 20.67C32.8 19 35.3 9.17 37.87 9.9c2.57.75 4.5 1.67 4.67 3.78 1.07 13 4.2 14.95 4.2 16.23 0 1.27.64 2.35-3.04 1.9-2.72-.33-3.25.48-4.04-.36-2.15-2.33-8.42-9.33-7.7-10.77z"/><path fill="none" stroke="#653310" stroke-width="1.208" d="M40.47 32.07c-.22.56 1.44 2.06 2.78 3.23 1.23 1.06 1.97 1.2 3.05 1.07 1.08-.13 1.9.24 1.9-1.07 0-.54-.37-2.52-.82-2.97-.72-.7-6.55-1.16-6.9-.26z"/><path fill="none" stroke="#653310" stroke-width="1.208" d="M42.4 35.56c.2-1.08 2.33.07 3.28 0 .94-.06 2.53-.5 2.86.18.34.68.7 1.8 1.53 2.7.43.47 1.65.6 1.72 1.15.02.23-.52 1.02-.9 1.24-.33.18-2.44.88-2.45.47 0-.2-.13-.7-.26-.85-3.6-4-5.87-4.55-5.8-4.9z"/><path fill="none" stroke="#653310" stroke-width="1.208" d="M45.32 20.7c.05-.35.6-.74.85-.74.26 0 .78-.03 1.03.22.26.26.05 1.1 1.2 4.07.4 1.03.92 2.4 1.26 3.03.15.27-.55.6-.55.6-.64-1-1.16-1.85-1.78-3.12-1.15-2.35-2.05-3.76-2-4.06z"/><path fill="none" stroke="#653310" stroke-width="1.208" d="M43.04 9.48s1.9 2.48 2.12 3.7c.5 2.66 1.56 5.72 1.8 6.5.27.76 0 1.08-.3 1.26-.42.28-.96.55-1.06.16-1.4-5.3-4.95-9.38-4.4-11.36.1-.4 1.62-.37 1.84-.26z"/><path fill="none" stroke="#653310" stroke-width="1.208" d="M-2.47 24c2.72 3.85 3.97 10.2 3.9 10.88-.05.68-.27.62-.1 1.64.08.5 2.1.57 3.17.1 1.07-.44 1.53-.16 1.58-.6.06-.46.34-2.73.96-4.48.63-1.76-10.27-8.6-9.5-7.54z"/><path fill="none" stroke="#653310" stroke-width="1.208" d="M1.95 36.18c-.34.68-.62 1.08-.57 2.04.06.96 1.08 2.5 1.2 2.6.1.12.82.26 1 .08.2-.18 2.17-1.25 2.2-1.64.06-.4.26-2.54-.06-2.96-.32-.4-3.63-.4-3.77-.12z"/><path fill="none" stroke="#653310" stroke-width="1.208" d="M1.95 39.34c-.2.24-.43.77-.17 3.17.25 2.4-.94 6.75-1.2 7.1-.05.05-.4.03-.47.33-.06.3.44.95.78 1 .34.04 1.97.3 2.3.08.36-.2.4-.85.4-1.54 0-.68-.04-2.27 1.2-5.45 1.24-3.16 1.33-4.32 1.33-4.75 0-.43-3.85-.3-4.15.1z"/><path fill="none" stroke="#653310" stroke-width="1.208" d="M31.73 23.25c.5.9 2.38 5.47 2.44 6.1.07.65.26 1.94.26 1.94.38.37 1.6.5 2.76.37 1.15-.13 2.05-.12 2-.83-.08-.7-5.1-8.62-5.1-8.62l-2.37 1.03z"/><path fill="none" stroke="#653310" stroke-width="1.208" d="M34.8 31.3c-.23.4-.3 1.66-.3 1.86 0 .2 1.02 2.05 1.2 2.12.2.06 2 .58 2.65.5.64-.05 1.54-1.08 1.3-2.43-.27-1.35-.33-2.25-.9-2.7-.6-.46-3.74.32-3.94.64z"/><path fill="none" stroke="#653310" stroke-width="1.208" d="M35.14 35.02c.32-.25 3.47.7 4.05.32.57-.4.63-.4.82 1.55.2 1.92.58 3.9.9 4.1.33.2-1.73.65-2.5.32-.73-.3-3.54-6.1-3.28-6.3z"/><path fill="none" stroke="#653310" stroke-width="1.208" d="M37.77 40.68c-.07.45-.13 1.93-.26 5.02-.03 1.04-1.2 4.05-1.2 4.3 0 .27.83.08 1.47.27.65.2 1.74.64 1.87.45.13-.2-.07-1.55.25-3.6.15-1 1.28-5.6 1.15-5.86-.13-.26-.64-.26-1.6-.45-.97-.18-1.6-.5-1.68-.12z"/><path fill="#eeeeec" stroke="#653310" stroke-width=".252" d="M45.32 20.7c.05-.35.6-.74.85-.74.26 0 .78-.03 1.03.22.26.26.05 1.1 1.2 4.07.4 1.03.92 2.4 1.26 3.03.15.27-.55.6-.55.6-.64-1-1.16-1.85-1.78-3.12-1.15-2.35-2.05-3.76-2-4.06z"/><path fill="#eeeeec" stroke="#653310" stroke-width=".252" d="M43.04 9.48s1.9 2.48 2.12 3.7c.5 2.66 1.56 5.72 1.8 6.5.27.76 0 1.08-.3 1.26-.42.28-.96.55-1.06.16-1.4-5.3-4.95-9.38-4.4-11.36.1-.4 1.62-.37 1.84-.26z"/><path fill="#eeeeec" stroke="#653310" stroke-width=".252" d="M37.77 40.68c-.07.45-.13 1.93-.26 5.02-.03 1.04-1.2 4.05-1.2 4.3 0 .27.83.08 1.47.27.65.2 1.74.64 1.87.45.13-.2-.07-1.55.25-3.6.15-1 1.28-5.6 1.15-5.86-.13-.26-.64-.26-1.6-.45-.97-.18-1.6-.5-1.68-.12z"/><path fill="#eeeeec" stroke="#653310" stroke-width=".252" d="M12.43 37.93c.23.5 0 8.37 1.75 12.15.1.22-.8 1.8-1.35 2.03-.63.28-2.3-.2-2.3-.53 0-6.22-3.27-11.34-3-12.15.44-1.33 4.44-2.5 4.9-1.5z"/><path fill="#eeeeec" stroke="#653310" stroke-width=".252" d="M7.85 35.55c.05-.6 2.82-2.1 4.3 1.2.2.4-.8 2.24-1.34 2.95-.32.43-.82.33-1.13.33-1 0-1.27-.78-1.58-1.07-.57-.54-.84-.84-.84-1.04 0-.97.54-1.8.6-2.37z"/><path fill="#eeeeec" stroke="#653310" stroke-width=".252" d="M1.95 39.34c-.2.24-.43.77-.17 3.17.25 2.4-.94 6.75-1.2 7.1-.05.05-.4.03-.47.33-.06.3.44.95.78 1 .34.04 1.97.3 2.3.08.36-.2.4-.85.4-1.54 0-.68-.04-2.27 1.2-5.45 1.24-3.16 1.33-4.32 1.33-4.75 0-.43-3.85-.3-4.15.1z"/><path fill="#eeeeec" stroke="#653310" stroke-width=".252" d="M1.95 36.18c-.34.68-.62 1.08-.57 2.04.06.96.92 2.17 1.03 2.28.13.1 1.45.18 1.63 0 .92-.88 1.72-.85 1.76-1.24.04-.4.24-2.54-.08-2.96-.32-.4-3.63-.4-3.77-.12z"/><path fill="#eeeeec" stroke="#653310" stroke-width=".252" d="M31.73 23.25c.5.9 2.38 5.47 2.44 6.1.07.65.26 1.94.26 1.94.38.37 1.6.5 2.76.37 1.15-.13 2.05-.12 2-.83-.08-.7-5.1-8.62-5.1-8.62l-2.37 1.03z"/><path fill="#eeeeec" stroke="#653310" stroke-width=".252" d="M34.8 31.3c-.23.4-.3 1.66-.3 1.86 0 .2 1.02 2.05 1.2 2.12.2.06 2 .58 2.65.5.64-.05 1.54-1.08 1.3-2.43-.27-1.35-.33-2.25-.9-2.7-.6-.46-3.74.32-3.94.64z"/><path fill="#eeeeec" stroke="#653310" stroke-width=".252" d="M35.14 35.02c.32-.25 3.47.7 4.05.32.57-.4.63-.4.82 1.55.2 1.92.58 3.9.9 4.1.33.2-1.73.65-2.5.32-.73-.3-3.54-6.1-3.28-6.3z"/><path fill="#eeeeec" stroke="#653310" stroke-width=".252" d="M-2.47 24c2.72 3.85 3.97 10.2 3.9 10.88-.05.68-.27.62-.1 1.64.08.5 2.1.57 3.17.1 1.07-.44 1.53-.16 1.58-.6.06-.46.34-2.73.96-4.48.63-1.76-10.27-8.6-9.5-7.54z"/><path fill="#eeeeec" stroke="#653310" stroke-width=".252" d="M-1 3.1c.42.03 2.56 4.16 4.4 6.1 3.58 3.7 3.65 4.95 3.02 5.7-2.64 3.16-9.08 9.03-10 7.5-2.45-4.1-3.78-10.57-4.7-11.72-.75-.96 6.1-7.67 7.3-7.58z"/><path fill="#eeeeec" stroke="#653310" stroke-width=".252" d="M3.76 10.83c2.3-.2 5.83.6 11.84.37 9.73-.35 22.4-2.24 25.1-1.7 4.4.9-3.58 12.44-7.44 13.66-3.85 1.22-6.7 2-10.4 3-3.73 1.02-11.52 5.4-13.97 5.5-2.17.06-4.1.7-6.96-2.33-3.44-3.63-6.3-6.16-6.2-7.28.05-.86 5.02-10.97 8.02-11.22z"/><path fill="#eeeeec" stroke="#653310" stroke-width=".25" d="M31.95 20.67C32.8 19 35.3 9.17 37.87 9.9c2.57.75 4.5 1.67 4.67 3.78 1.07 13 4.2 14.95 4.2 16.23 0 1.27.64 2.35-3.04 1.9-2.72-.33-3.25.48-4.04-.36-2.15-2.33-8.42-9.33-7.7-10.77z"/><path fill="#eeeeec" stroke="#653310" stroke-width=".252" d="M31.95 20.67C32.8 19 35.3 9.17 37.87 9.9c2.57.75 4.5 1.67 4.67 3.78 1.07 13 4.2 14.95 4.2 16.23 0 1.27.64 2.35-3.04 1.9-2.72-.33-3.25.48-4.04-.36-2.15-2.33-8.42-9.33-7.7-10.77z"/><path fill="#eeeeec" stroke="#653310" stroke-width=".252" d="M40.47 32.07c-.22.56 1.44 2.06 2.78 3.23 1.23 1.06 1.97 1.2 3.05 1.07 1.08-.13 1.9.24 1.9-1.07 0-.54-.37-2.52-.82-2.97-.72-.7-6.55-1.16-6.9-.26z"/><path fill="#eeeeec" stroke="#653310" stroke-width=".252" d="M42.4 35.56c.2-1.08 2.33.07 3.28 0 .94-.06 2.53-.5 2.86.18.34.68.7 1.8 1.53 2.7.43.47 1.65.6 1.72 1.15.02.23-.52 1.02-.9 1.24-.33.18-2.44.88-2.45.47 0-.2-.13-.7-.26-.85-3.6-4-5.87-4.55-5.8-4.9z"/><path fill="#eeeeec" stroke="#653310" stroke-width=".252" d="M1.33 23.3c.62-2.53 4.24-11.18 8.18-11.4 1.63-.1 5.4 3.93 5.4 4.86 0 1.17-1.2 5.97-1.92 10.4-.82 5-.85 8.3-.9 8.56-.18.77-4.82 1.67-5.27.1-.78-2.78-6.35-8.9-5.47-12.5z"/><path fill="#eeeeec" stroke="#653310" stroke-width=".252" d="M1.33 23.3c.62-2.53 4.24-11.18 8.18-11.4 1.63-.1 5.4 3.93 5.4 4.86 0 1.17-1.2 5.97-1.92 10.4-.82 5-.85 8.3-.9 8.56-.18.77-4.82 1.67-5.27.1-.78-2.78-6.35-8.9-5.47-12.5z"/><path fill="#ef2929" fill-rule="evenodd" d="M1.75 11.14c11.57 5.6 26.22.77 38.5-.85 2.06 1.1 2.27 2.27-.5 2.5-13.13-.17-31.43 10.66-38-1.66z"/></g></svg>