<svg xmlns="http://www.w3.org/2000/svg" width="48" height="48"><defs><linearGradient id="a" x1="20.379" x2="16.53" y1="283.775" y2="283.06" gradientUnits="userSpaceOnUse" gradientTransform="translate(-.463 -251.583)"><stop offset="0" stop-color="#F4B167"/><stop offset=".292" stop-color="#F3D196"/><stop offset=".376" stop-color="#F3D196"/><stop offset="1" stop-color="#EE8424"/></linearGradient><radialGradient id="b" cx="20.971" cy="274.201" r="1.696" gradientUnits="userSpaceOnUse" fy="274.201" fx="20.971" gradientTransform="translate(-.463 -251.583)"><stop offset="0" stop-color="#F3D196"/><stop offset=".129" stop-color="#F3D196"/><stop offset="1" stop-color="#EE8424"/></radialGradient><linearGradient id="c" x1="24.192" x2="18.288" y1="264.41" y2="263.725" gradientUnits="userSpaceOnUse" gradientTransform="translate(-.463 -251.583)"><stop offset="0" stop-color="#F4B167"/><stop offset=".292" stop-color="#F3D196"/><stop offset=".421" stop-color="#F3D196"/><stop offset="1" stop-color="#EE8424"/></linearGradient><radialGradient id="d" cx="22.834" cy="254.957" r="2.594" gradientUnits="userSpaceOnUse" fy="254.957" fx="22.834" gradientTransform="translate(-.463 -251.583)"><stop offset="0" stop-color="#F3D196"/><stop offset=".129" stop-color="#F3D196"/><stop offset="1" stop-color="#EE8424"/></radialGradient></defs><g stroke="#66330d"><g fill="none" stroke-width="1.2" transform="translate(-.463 -251.583)"><path d="M29.02 288.46c1.68 2.1 3.75 3.4 5.4 5.3.46.53-2.2 1.97-3.42 1.3-1.3-.72-4.58-3.34-4.67-3.88-.08-.54.04-2.28.3-2.44.75-.5 2.16-.56 2.4-.28z"/><path d="M18.7 291.83c.7 1.68 3.46 5.42 3.74 6.1.23.6-2.62 1.45-3.88.84-.76-.37-2.38-4.32-2.48-4.86-.08-.38.17-1.8.36-1.9.78-.47 2.1-.5 2.25-.17z"/><path d="M18.58 292.08c0 .4-.46.74-1.03.74-.57 0-1.03-.33-1.03-.74 0-.42.46-.75 1.03-.75.57 0 1.03.33 1.03.75z"/><circle cx="27.857" cy="288.59" r="1.029"/><path d="M26.86 273.85c.48-.35 2.37-.4 3.35.35.62.47-1.1 13.78-1.2 14.05-.16.6-1.67.83-2.3.05-.25-.3-.62-13.88.16-14.45z"/><path d="M27.63 271.5c.38-.28 2.1-.2 2.44.18.65.74.65 1.93.04 2.57-.43.46-2.56.32-3.04-.32-.3-.43-.4-1.72.57-2.43z"/><path d="M31.14 255.46c-1.05-.7-4.68-.7-5.23.24-.66 1.16.8 14.97 1.26 15.85.36.73 3.04 1.03 3.5.12.25-.5 1.2-15.74.48-16.22z"/><path d="M18.42 274.62c.28-.3 3.37.36 3.34.82-.14 2.96-2.68 14.44-2.97 16.3-.14.84-1.98.65-2.35-.2-.4-.92.66-15.53 1.97-16.92z"/><path d="M21.94 272.83c.5.56.35 2.27-.33 2.6-.67.36-2.2 0-2.75-.48-.8-.67-.02-2.4.6-2.6.3-.1 2.26.22 2.5.48z"/><path d="M19.36 255.36c1.04-.7 4.93-.1 5.48.84.68 1.16-2.18 15.77-2.5 16.3-.68 1.08-3.16.33-3.4-.14-.47-.9-.5-16.38.42-17z"/><path d="M24.72 253.62c.6.6.24 2.5-.2 2.64-1.5.53-4.5.05-5-.77-.5-.82-.23-2.57.22-2.77 1.22-.54 4.54.45 4.98.9z"/><path d="M30.6 252.83c.54.2.6 2.48.26 2.83-.83.85-4.16.75-4.8.03-.6-.73-.65-2.5-.24-2.77 1.1-.74 4.18-.3 4.78-.1z"/><path d="M19.06 251.78c0 .37.05.52.14.8.3.88 3.43 1.73 6.38 1.7 2.3-.02 5.44-.86 5.56-1.26.08-.28.1-.6.07-1.24"/></g><path fill="#fff" stroke-width=".25" d="M28.55 36.88c1.68 2.1 3.75 3.38 5.4 5.3.46.52-2.2 1.96-3.4 1.3-1.32-.72-4.6-3.34-4.68-3.9-.1-.53.04-2.26.28-2.42.76-.5 2.18-.56 2.4-.28z"/><path fill="#fff" stroke-width=".25" d="M18.23 40.25c.7 1.67 3.47 5.42 3.74 6.1.24.6-2.6 1.45-3.87.84-.76-.38-2.4-4.34-2.5-4.88-.06-.38.18-1.8.38-1.92.78-.45 2.1-.5 2.25-.15z"/><path fill="#ef7916" stroke-width=".25" d="M18.1 40.5c0 .4-.45.74-1 .74-.58 0-1.05-.33-1.05-.75s.47-.76 1.04-.76c.55 0 1 .34 1 .75z"/><circle cx="27.857" cy="288.59" r="1.029" fill="#fff" stroke-width=".25" transform="translate(-.463 -251.583)"/><path fill="#fff" stroke-width=".25" d="M26.4 22.27c.47-.35 2.36-.4 3.35.35.6.47-1.13 13.78-1.2 14.04-.17.6-1.68.84-2.32.06-.24-.3-.6-13.9.17-14.45z"/><path fill="#fff" stroke-width=".25" d="M27.16 19.92c.38-.28 2.12-.2 2.45.17.66.74.66 1.92.04 2.57-.43.45-2.56.32-3.04-.32-.3-.43-.4-1.73.56-2.43z"/><path fill="#fff" stroke-width=".25" d="M30.67 3.87c-1.04-.7-4.67-.7-5.22.24-.67 1.17.8 14.98 1.24 15.87.35.72 3.03 1.03 3.5.1.24-.5 1.2-15.73.47-16.2z"/><path fill="url(#a)" stroke-width=".25" d="M17.96 23.04c.28-.3 3.37.36 3.34.82-.14 2.96-2.7 14.43-2.97 16.3-.13.83-1.98.65-2.34-.2-.42-.92.65-15.54 1.96-16.92z"/><path fill="url(#b)" stroke-width=".25" d="M21.48 21.25c.5.56.35 2.26-.34 2.6-.68.36-2.2 0-2.75-.48-.8-.68-.03-2.4.6-2.62.3-.1 2.24.23 2.48.5z"/><path fill="url(#c)" stroke-width=".25" d="M18.9 3.77c1.03-.7 4.93-.1 5.48.85.67 1.16-2.18 15.77-2.5 16.3-.68 1.08-3.16.33-3.4-.14-.48-.9-.5-16.38.4-17z"/><path fill="url(#d)" stroke-width=".25" d="M24.26 2.04c.6.6.24 2.48-.2 2.64-1.5.53-4.5.05-5-.78-.5-.8-.23-2.55.22-2.75 1.2-.54 4.53.44 4.98.9z"/><path fill="#fff" stroke-width=".25" d="M30.14 1.24c.53.2.6 2.5.26 2.83-.83.85-4.16.76-4.8.03-.6-.7-.65-2.48-.24-2.75 1.1-.74 4.18-.32 4.78-.1z"/><path fill="#fff" stroke-width=".25" d="M18.6.2c0 .3.06.57.14.8.3.88 3.43 1.73 6.38 1.7 2.3-.02 5.44-.86 5.55-1.27.08-.24.1-.68.08-1.23"/></g></svg>