<svg xmlns="http://www.w3.org/2000/svg" width="48" height="48"><defs><radialGradient id="a" cx="35.823" cy="182.565" r="5.05" gradientUnits="userSpaceOnUse" fy="182.565" fx="35.823" gradientTransform="matrix(1.024 0 0 1.024 -1.53 -172.422)"><stop offset="0" stop-color="#F3D196"/><stop offset=".129" stop-color="#F3D196"/><stop offset="1" stop-color="#EE8424"/></radialGradient><linearGradient id="b" x1="27.55" x2="31.05" y1="187.708" y2="191.708" gradientUnits="userSpaceOnUse" gradientTransform="matrix(1.024 0 0 1.024 -1.53 -172.422)"><stop offset="0" stop-color="#F4B167"/><stop offset=".292" stop-color="#F3D196"/><stop offset=".421" stop-color="#F3D196"/><stop offset="1" stop-color="#EE8424"/></linearGradient><radialGradient id="c" cx="23.094" cy="193.92" r="2.142" gradientUnits="userSpaceOnUse" fy="193.92" fx="23.094" gradientTransform="matrix(1.024 0 0 1.024 -1.53 -172.422)"><stop offset="0" stop-color="#F3D196"/><stop offset=".129" stop-color="#F3D196"/><stop offset="1" stop-color="#EE8424"/></radialGradient><linearGradient id="d" x1="14.748" x2="18.249" y1="197.892" y2="201.059" gradientUnits="userSpaceOnUse" gradientTransform="matrix(1.024 0 0 1.024 -1.53 -172.422)"><stop offset="0" stop-color="#F4B167"/><stop offset=".292" stop-color="#F3D196"/><stop offset=".421" stop-color="#F3D196"/><stop offset="1" stop-color="#EE8424"/></linearGradient><radialGradient id="e" cx="10.918" cy="203.724" r="2.021" gradientUnits="userSpaceOnUse" fy="203.724" fx="10.918" gradientTransform="matrix(1.024 0 0 1.024 -1.53 -172.422)"><stop offset="0" stop-color="#F3D196"/><stop offset=".129" stop-color="#F3D196"/><stop offset="1" stop-color="#EE8424"/></radialGradient><linearGradient id="f" x1="5.29" x2="9.672" y1="207.502" y2="211.005" gradientUnits="userSpaceOnUse" gradientTransform="matrix(1.024 0 0 1.024 -1.53 -172.422)"><stop offset="0" stop-color="#F0A14D"/><stop offset=".03" stop-color="#F1A754"/><stop offset=".148" stop-color="#F1B970"/><stop offset=".267" stop-color="#F2C685"/><stop offset=".386" stop-color="#F3CE92"/><stop offset=".506" stop-color="#F3D196"/><stop offset="1" stop-color="#F0943B"/></linearGradient></defs><g><g fill="#fff" stroke="#66330d" stroke-width="1.171"><path d="M39.9 36.48c-.8.65-3.87 7.8-2.8 10.9"/><path d="M46.78 37.72c-2.3.12-4.82-.17-6.42-1.1-.9-.5.48-3.98.96-4.4.5-.42 3.03-1 5.48-1.1"/><path d="M46.87 32.62c-1.95.07-4.13 0-5.77-.35-.08-.02-.13.63-.32.43-.22-.24-1.27-1.6-1.9-2.54-1-1.46-3.92-7.02-4.7-11.77-.43-2.62 1-4.83 2.4-6.12.43-.4 5.1-1.4 10.22-1.1"/><path d="M36.75 13.1c2 .7 3 5.13 1.5 6.8-.95 1.08-2.8 1.2-3.52.73-.8-.5-2.9-3.57-2.86-4.2.06-1.62 1.43-2.63 2.3-3.06 1.2-.6 2.1-.44 2.58-.28z"/><path d="M32.6 15.72c1.35.03 3.35 3.12 2.47 4.5-.75 1.2-9.7 7.6-11.23 7.84-.2.04-2.8-2.66-2.3-3.22 2.63-2.93 9.9-9.15 11.06-9.12z"/><path d="M21.54 24.84c.9.06 2.43 1.7 2.3 3.22-.04.45-1.16 1.33-1.86 1.3-.38-.02-2.46-2.12-2.44-2.7.02-.73 1.28-1.88 2-1.82z"/><path d="M19.1 26.7c.93-.27 2.8 1.07 3.05 2.54.13.73-9.4 8-10.18 8.1-1.54.18-3.05-1.5-2.74-1.92 1.6-2.14 8.2-8.28 9.88-8.73z"/><path d="M9.35 35.6c.53-.05 1.8.44 2.37 1.62.1.2-.62 1.1-.92 1.05-.26-.04-2.46-1.02-2.54-1.32-.08-.3.53-1.3 1.1-1.36z"/><path d="M8.26 36.95c.44-.12 2.16.4 2.54 1.28.46 1.1-1.45 4.28-2.24 5.3C7.38 45 4.6 46.68 3.64 46.85c-.66.1-2.32-.7-2.22-1.54.1-.85.98-3.26 2.74-5.16 1.76-1.9 3.73-3.1 4.1-3.2z"/><path d="M43.9 7.97c-.33.2-.2 3.18-.12 3.5.1.36 1.56.94 3.07.94"/><path d="M46.9 8.52c-1.6.02-3.32-.18-3.7-.72C41.96 5.9 41.15 3 41.14.5"/></g><path fill="#fff" d="M47.35 47.4H37.1l.34-5.15 2.3-5.37.37-.5.85-3.6-2.04-20.9 4.9-.64.13-3.02-2.8-7.6h6.22v46.77z"/><path fill="#fff" stroke="#66330d" stroke-width=".25" d="M39.9 36.48c-.8.65-3.87 7.8-2.8 10.9"/><path fill="#fff" stroke="#66330d" stroke-width=".25" d="M46.8 37.72c-2.32.12-4.83-.17-6.44-1.1-.9-.5.48-3.98.96-4.4"/><path fill="#fff" stroke="#66330d" stroke-width=".25" d="M46.9 32.62c-1.95.07-4.15 0-5.8-.35-.08-.02-.13.63-.32.43-.22-.24-1.27-1.6-1.9-2.54-1-1.46-3.92-7.02-4.7-11.77-.43-2.62 1-4.83 2.4-6.12.33-.3 3.23-.98 6.9-1.12h.26"/><path fill="url(#a)" stroke="#66330d" stroke-width=".25" d="M36.75 13.1c2 .7 3 5.13 1.5 6.8-.95 1.08-2.8 1.2-3.52.73-.8-.5-2.9-3.57-2.86-4.2.06-1.62 1.43-2.63 2.3-3.06 1.2-.6 2.1-.44 2.58-.28z"/><path fill="url(#b)" stroke="#66330d" stroke-width=".25" d="M32.6 15.72c1.35.03 3.35 3.12 2.47 4.5-.75 1.2-9.7 7.6-11.23 7.84-.2.04-2.8-2.66-2.3-3.22 2.63-2.93 9.9-9.15 11.06-9.12z"/><path fill="url(#c)" stroke="#66330d" stroke-width=".25" d="M21.54 24.84c.9.06 2.43 1.7 2.3 3.22-.04.45-1.16 1.33-1.86 1.3-.38-.02-2.46-2.12-2.44-2.7.02-.73 1.28-1.88 2-1.82z"/><path fill="url(#d)" stroke="#66330d" stroke-width=".25" d="M19.1 26.7c.93-.27 2.8 1.07 3.05 2.54.13.73-9.4 8-10.18 8.1-1.54.18-3.05-1.5-2.74-1.92 1.6-2.14 8.2-8.28 9.88-8.73z"/><path fill="url(#e)" stroke="#66330d" stroke-width=".25" d="M9.35 35.6c.53-.05 1.8.44 2.37 1.62.1.2-.62 1.1-.92 1.05-.26-.04-2.46-1.02-2.54-1.32-.08-.3.53-1.3 1.1-1.36z"/><path fill="url(#f)" stroke="#66330d" stroke-width=".25" d="M8.26 36.95c.44-.12 2.16.4 2.54 1.28.46 1.1-1.45 4.28-2.24 5.3C7.38 45 4.6 46.68 3.64 46.85c-.66.1-2.32-.7-2.22-1.54.1-.85.98-3.26 2.74-5.16 1.76-1.9 3.73-3.1 4.1-3.2z"/><path fill="#fff" stroke="#66330d" stroke-width=".25" d="M43.9 7.97c-.33.2-.2 3.18-.12 3.5.1.36 1.56.94 3.07.94"/><path fill="#fff" stroke="#66330d" stroke-width=".25" d="M41.13.66c.05 2.48.85 5.3 2.1 7.14.34.52 1.95.73 3.52.73"/></g></svg>