<svg xmlns="http://www.w3.org/2000/svg" width="48" height="48"><g><path stroke="#eeeeec" stroke-width="2" d="M34.6 29.32h11.55v3.88h-7.8l-.43 2.62c.54-.25 1.07-.44 1.6-.57.53-.13 1.06-.2 1.57-.2 1.74 0 3.16.54 4.25 1.6 1.1 1.05 1.64 2.4 1.64 4 0 1.12-.3 2.2-.85 3.25-.56 1.04-1.36 1.84-2.4 2.4-1.02.54-2.34.8-3.95.8-1.15 0-2.14-.1-2.96-.32-.83-.22-1.53-.54-2.1-.98-.58-.43-1.05-.92-1.4-1.47-.36-.55-.66-1.23-.9-2.05l4.92-.54c.12.8.4 1.4.83 1.8.43.4.95.6 1.56.6.67 0 1.23-.24 1.67-.76.44-.5.67-1.28.67-2.3 0-1.04-.23-1.8-.67-2.3-.45-.47-1.04-.7-1.78-.7-.47 0-.92.1-1.36.33-.34.18-.7.48-1.1.92l-4.13-.6 1.54-9.4z" font-size="24.442" font-family="Arial Black"/><path fill="none" stroke="#66330d" stroke-width="1.2" d="M31 16.56c.5.06 2.08.62 2.45 1.83.37 1.2-.68 3.9-1.6 4.3-.9.4-.84-6.14-.84-6.14z"/><path fill="none" stroke="#66330d" stroke-width="1.2" d="M16.95 45.33c.36 1.04 4.13 2.06 7.7 2.03 2.77-.02 6.56-1.04 6.7-1.52.46-1.56-.76-9.44-1.48-9.84-1.22-.68-9.88-.4-10.55.16-.68.54-3.3 6.55-2.37 9.17z"/><path fill="none" stroke="#66330d" stroke-width="1.2" d="M20.52 32.58c.75-.62 6.56-1.65 8.44-.25.45.34.97 3.42.6 3.74-1.44 1.2-7.16 1.74-9.86.22-.75-.44.4-3.37.82-3.72z"/><path fill="none" stroke="#66330d" stroke-width="1.2" d="M16.5 15.8c.53-.47 8.82-2.08 14.63.35.74.3 1.28 6.22 1.17 6.7-.38 1.75-2.54 8.74-3.1 9.4-.46.57-5.78 1-8.86.37-.07-.02-.1.53-.28.35-.2-.2-1.08-1.35-1.6-2.13-.85-1.23-3.34-5.9-4-9.9-.36-2.2.85-4.04 2.04-5.13z"/><path fill="none" stroke="#66330d" stroke-width="1.2" d="M16.64 16.5c1.7.6 2.56 4.3 1.3 5.72-.83.9-2.4 1-3 .62-.68-.43-2.46-3-2.44-3.54.06-1.36 1.22-2.2 1.95-2.57 1.03-.5 1.8-.37 2.2-.24z"/><path fill="none" stroke="#66330d" stroke-width="1.2" d="M22.6 15.12c.08.3 1.33.8 2.6.8 1.3 0 1.9-.4 2.1-.65.18-.24.22-2.97-.04-3.1-.4-.2-4.04-.27-4.55.02-.28.15-.17 2.66-.1 2.92z"/><path fill="none" stroke="#66330d" stroke-width="1.2" d="M27.07.85c1.42.42 2.97 2.25 2.9 5.56-.1 3.32-1.42 5.37-2.2 5.9-.66.45-5.08.58-5.64-.26C20.4 9.5 19.7 4.8 21.1 2.67 22.34.85 25.48.37 27.08.85z"/><path fill="#fff" stroke="#66330d" stroke-width=".25" d="M31 16.56c.5.06 2.08.62 2.45 1.83.37 1.2-.68 3.9-1.6 4.3-.9.4-.84-6.14-.84-6.14z"/><path fill="#fff" stroke="#66330d" stroke-width=".25" d="M16.95 45.33c.36 1.04 4.13 2.06 7.7 2.03 2.77-.02 6.56-1.04 6.7-1.52.46-1.56-.76-9.44-1.48-9.84-1.22-.68-9.88-.4-10.55.16-.68.54-3.3 6.55-2.37 9.17z"/><path fill="#fff" stroke="#66330d" stroke-width=".25" d="M20.52 32.58c.75-.62 6.56-1.65 8.44-.25.45.34.97 3.42.6 3.74-1.44 1.2-7.16 1.74-9.86.22-.75-.44.4-3.37.82-3.72z"/><path fill="#fff" stroke="#66330d" stroke-width=".25" d="M16.5 15.8c.53-.47 8.82-2.08 14.63.35.74.3 1.28 6.22 1.17 6.7-.38 1.75-2.54 8.74-3.1 9.4-.46.57-5.78 1-8.86.37-.07-.02-.1.52-.28.35-.2-.2-1.08-1.35-1.6-2.13-.85-1.23-3.34-5.9-4-9.9-.36-2.2.85-4.04 2.04-5.13z"/><path fill="#fff" stroke="#66330d" stroke-width=".25" d="M16.64 16.5c1.7.6 2.56 4.3 1.3 5.72-.83.9-2.4 1-3 .62-.68-.43-2.46-3-2.44-3.54.06-1.36 1.22-2.2 1.95-2.57 1.03-.5 1.8-.37 2.2-.24z"/><path fill="#fff" stroke="#66330d" stroke-width=".25" d="M22.6 15.12c.08.3 1.33.8 2.6.8 1.3 0 1.9-.4 2.1-.65.18-.24.22-2.97-.04-3.1-.4-.2-4.04-.27-4.55.02-.28.15-.17 2.66-.1 2.92z"/><path fill="#fff" stroke="#66330d" stroke-width=".25" d="M27.07.85c1.42.42 2.97 2.25 2.9 5.56-.1 3.32-1.42 5.37-2.2 5.9-.66.45-5.08.58-5.64-.26C20.4 9.5 19.7 4.8 21.1 2.67 22.34.85 25.48.37 27.08.85z"/><path fill="#ed2728" d="M24.54 9.3c-.47.1-.82.5-.82.97-.1 3.55-1 5.07-1.9 7.05-.87 1.98-1.58 4.37-.86 8.72.6 3.7 1.63 6.1 2.2 7.86.57 1.77.74 2.72-.15 4.42-.43.83-.98 1.77-1.27 2.94-.3 1.16-.22 2.6.56 4 .14.35.62.66 1 .68.38 0 .95-.26 1.13-.6.17-.33-.22-.74-.45-1.04-.56-1-.08-.92.12-1.72.2-.8.88-1.88 1.35-2.77 1.13-2.13 1.4-4.58.78-6.5-.63-1.93-3.03-4.07-3.6-7.56-.68-4.07-.06-6.1.76-7.96.82-1.85 2.1-4.84 2.68-7.46 0-.3-.1-.6-.34-.8-.23-.2-.9-.27-1.2-.2z"/><path fill="#204a87" stroke="#eeeeec" stroke-width=".5011199999999999" d="M27 10.14a2 2 0 1 1-4 0 2 2 0 1 1 4 0z" color="#000" stroke-linecap="round" overflow="visible" enable-background="accumulate"/><path fill="#204a87" stroke="#eeeeec" stroke-width=".5011199999999999" d="M24.2 27.93a2 2 0 1 1-4 0 2 2 0 1 1 4 0z" color="#000" stroke-linecap="round" overflow="visible" enable-background="accumulate"/><path fill="#204a87" stroke="#eeeeec" stroke-width=".49691" d="M25.57 45.14a2.2 2.2 0 1 1-4.43 0 2.2 2.2 0 1 1 4.43 0z" color="#000" stroke-linecap="round" overflow="visible" enable-background="accumulate"/><path fill="#555753" d="M34.82 29.13h11.54V33h-7.82l-.4 2.64c.53-.26 1.06-.45 1.6-.58.52-.12 1.04-.2 1.56-.2 1.75 0 3.17.54 4.26 1.6 1.1 1.06 1.64 2.4 1.64 4 0 1.13-.28 2.22-.85 3.26-.56 1.04-1.35 1.84-2.38 2.38-1.03.55-2.35.83-3.96.83-1.14 0-2.13-.1-2.95-.33-.83-.22-1.53-.55-2.1-.98-.58-.43-1.05-.92-1.4-1.47-.37-.55-.66-1.24-.9-2.06l4.9-.54c.13.8.4 1.38.85 1.8.44.4.96.6 1.56.6.68 0 1.24-.25 1.68-.76.44-.5.66-1.28.66-2.3 0-1.04-.22-1.8-.67-2.3-.44-.48-1.03-.72-1.77-.72-.47 0-.93.12-1.36.35-.33.16-.7.47-1.08.9l-4.14-.6 1.54-9.4z" font-size="24.442" font-family="Arial Black"/><path fill="#204a87" stroke="#eeeeec" stroke-width=".49728" d="M24.43 19.3a2.07 2.07 0 1 1-4.14 0 2.07 2.07 0 1 1 4.13 0z" color="#000" stroke-linecap="round" overflow="visible" enable-background="accumulate"/><path fill="#204a87" stroke="#eeeeec" stroke-width=".49691" d="M27 35.8a2.2 2.2 0 1 1-4.43 0 2.2 2.2 0 1 1 4.43 0z" color="#000" stroke-linecap="round" overflow="visible" enable-background="accumulate"/></g></svg>