<svg xmlns="http://www.w3.org/2000/svg" width="48" height="48"><defs><radialGradient id="a" cx="26.794" cy="41.145" r="9.826" gradientUnits="userSpaceOnUse" fy="41.145" fx="26.794" gradientTransform="matrix(1.012 0 0 1.012 .907 .11)"><stop offset="0" stop-color="#F3D196"/><stop offset=".129" stop-color="#F3D196"/><stop offset="1" stop-color="#EE8424"/></radialGradient><radialGradient id="b" cx="33.068" cy="14.128" r="21.012" gradientUnits="userSpaceOnUse" fy="14.128" fx="33.068" gradientTransform="matrix(1.012 0 0 1.012 .907 .11)"><stop offset="0" stop-color="#F3D196"/><stop offset=".197" stop-color="#F3D196"/><stop offset="1" stop-color="#EE8424"/></radialGradient></defs><g><g fill="none" stroke="#66330d" stroke-width="1.186"><path d="M3.48 46.2c6.07-1.8 25.23-5.78 40.5.65"/><path d="M18.35 44.5c.25.95 3.98 2.43 7.83 2.43s5.7-1.18 6.28-1.97c.55-.73.66-9-.13-9.4-1.2-.6-12.13-.8-13.64.06-.88.5-.56 8.1-.35 8.9z"/><path d="M31.78 1.24c4.25 1.3 8.9 6.85 8.67 16.88-.24 10.03-4.23 16.23-6.55 17.83-2 1.4-15.28 1.76-16.98-.77-5.17-7.7-7.3-21.95-3.05-28.38 3.66-5.56 13.08-7 17.9-5.56z"/></g><path fill="#fff" d="M43.97 48.15v-1.3C28.7 40.42 9.55 44.4 3.47 46.2v1.95h40.5z"/><path fill="#fff" stroke="#66330d" stroke-width=".25" d="M43.97 46.85C28.7 40.42 9.55 44.4 3.47 46.2"/><path fill="url(#a)" stroke="#66330d" stroke-width=".25" d="M18.35 44.5c.25.95 3.98 2.43 7.83 2.43s5.7-1.18 6.28-1.97c.55-.73.66-9-.13-9.4-1.2-.6-12.13-.8-13.64.06-.88.5-.56 8.1-.35 8.9z"/><path fill="url(#b)" stroke="#66330d" stroke-width=".25" d="M31.78 1.24c4.25 1.3 8.9 6.85 8.67 16.88-.24 10.03-4.23 16.23-6.55 17.83-2 1.4-15.28 1.76-16.98-.77-5.17-7.7-7.3-21.95-3.05-28.38 3.66-5.56 13.08-7 17.9-5.56z"/><path fill="none" stroke="#66330d" d="M33.23 10.87c2.38 6.04 2.28 12.6 2.28 15.82"/><path fill="none" stroke="#66330d" d="M24.93 14.8c4.7-1.24 9.6-1.94 13.58.05"/></g></svg>