<svg xmlns="http://www.w3.org/2000/svg" width="48" height="48" xmlns:xlink="http://www.w3.org/1999/xlink"><defs><radialGradient id="a" cx="33.732" cy="442.676" r="9.005" gradientUnits="userSpaceOnUse" fy="442.676" fx="33.732"><stop offset="0" stop-color="#F0D196"/><stop offset=".197" stop-color="#F0D196"/><stop offset="1" stop-color="#EC8324"/></radialGradient><linearGradient id="b" x1="41.275" x2="39.885" y1="437.4" y2="438.082" gradientUnits="userSpaceOnUse"><stop offset="0" stop-color="#EC8324"/><stop offset=".579" stop-color="#F3B167"/><stop offset="1" stop-color="#EC8324"/></linearGradient><linearGradient id="c" x1="42.036" x2="42.827" y1="443.307" y2="442.912" gradientUnits="userSpaceOnUse"><stop offset="0" stop-color="#EC8324"/><stop offset=".579" stop-color="#F3B167"/><stop offset="1" stop-color="#EC8324"/></linearGradient><linearGradient id="d" x1="44.72" x2="44.362" y1="446.774" y2="447.038" gradientUnits="userSpaceOnUse"><stop offset="0" stop-color="#EC8324"/><stop offset=".579" stop-color="#F3B167"/><stop offset="1" stop-color="#EC8324"/></linearGradient><radialGradient id="h" cx="33.732" cy="442.676" r="9.005" xlink:href="#a" gradientUnits="userSpaceOnUse" fx="33.732" fy="442.676" gradientTransform="matrix(2.635 0 0 2.663 -84.423 -1150.492)"/><linearGradient id="g" x1="41.275" x2="39.885" y1="437.4" y2="438.082" xlink:href="#b" gradientUnits="userSpaceOnUse" gradientTransform="matrix(2.473 -.919 .91 2.5 -475.202 -1042.643)"/><linearGradient id="f" x1="42.036" x2="42.827" y1="443.307" y2="442.912" xlink:href="#c" gradientUnits="userSpaceOnUse" gradientTransform="matrix(2.473 -.919 .91 2.5 -475.202 -1042.643)"/><linearGradient id="e" x1="44.72" x2="44.362" y1="446.774" y2="447.038" xlink:href="#d" gradientUnits="userSpaceOnUse" gradientTransform="matrix(2.473 -.919 .91 2.5 -475.202 -1042.643)"/></defs><g stroke="#653310"><path fill="none" stroke-width="1.208" d="M-41.9 7.57c.7.05 8.72 2.1 18.27 1.74C-8.13 8.75 12 5.73 16.3 6.6c7 1.4-5.7 19.97-11.83 21.93-6.13 1.95-10.65 3.2-16.57 4.83-5.9 1.63-18.3 8.67-22.2 8.8-3.44.13-6.5 1.13-11.05-3.7-5.47-5.85-10-9.92-9.88-11.72.1-1.37 8.53-19.54 13.32-19.17z"/><path fill="none" stroke-width="1.208" d="M2.4 24.53c1.32-2.7 5.32-18.5 9.4-17.3 4.08 1.2 7.14 2.68 7.42 6.06 1.7 20.9 6.7 24.02 6.7 26.08 0 2.02 1 3.75-4.85 3.03-4.33-.52-5.18.8-6.42-.57-3.42-3.74-13.4-15-12.26-17.3z"/><path fill="none" stroke-width="1.208" d="M15.94 42.85c-.36.9 2.28 3.3 4.42 5.18 1.95 1.7 3.13 1.95 4.85 1.73 1.73-.2 3 .38 3-1.73 0-.86-.57-4.03-1.28-4.75-1.14-1.15-10.4-1.88-10.98-.43z"/><path fill="none" stroke-width="1.208" d="M27.6 22.47c-.12-.55.5-1.45.88-1.6.38-.13 1.13-.46 1.66-.22.52.25.65 1.6 4.02 5.46 1.16 1.34 2.7 3.13 3.54 3.9.38.32-.5 1.2-.5 1.2-1.5-1.15-2.76-2.14-4.38-3.7-3-2.9-5.12-4.55-5.22-5.03z"/><path fill="none" stroke-width="1.208" d="M37.7 30c.2-.2 1.63 1.54 4.06 2.9.68.37 2.87 1.52 3.82 1.68.72.12 1.5.54 1.12.7-.4.13-5.16-1.15-6.16-1.74-1.6-.97-3.68-2.26-3.64-2.57.03-.3.8-.98.8-.98z"/><path fill="none" stroke-width="1.208" d="M18.05 6.8s4.17 2.7 5.18 4.42c2.2 3.73 5.47 7.76 6.28 8.78.82 1.03.6 1.65.26 2.1-.5.65-1.15 1.35-1.5.82-5.03-7.23-12.55-11.4-12.83-14.68-.06-.7 2.22-1.47 2.62-1.43z"/><path fill="none" stroke-width="1.208" d="M2.02 28.67c.82 1.45 3.8 8.8 3.9 9.82.1 1.03.4 3.1.4 3.1.6.62 2.56.83 4.4.62 1.84-.22 3.27-.2 3.17-1.35-.1-1.14-8.1-13.85-8.1-13.85l-3.78 1.65z"/><path fill="none" stroke-width="1.208" d="M6.93 41.6c-.38.64-.5 2.68-.5 3 0 .3 1.63 3.3 1.94 3.4.3.1 3.17.94 4.2.83 1-.1 2.45-1.75 2.04-3.92-.4-2.17-.5-3.6-1.43-4.34-.92-.72-5.93.52-6.24 1.04z"/><path fill="url(#e)" stroke-width=".252" d="M37.7 30c.2-.2 1.63 1.54 4.06 2.9.68.37 2.87 1.52 3.82 1.68.72.12 1.5.54 1.12.7-.4.13-5.16-1.15-6.16-1.74-1.6-.97-3.68-2.26-3.64-2.57.03-.3.8-.98.8-.98z"/><path fill="url(#f)" stroke-width=".252" d="M27.6 22.47c-.12-.55.5-1.45.88-1.6.38-.13 1.13-.46 1.66-.22.52.25.65 1.6 4.02 5.46 1.16 1.34 2.7 3.13 3.54 3.9.38.32-.5 1.2-.5 1.2-1.5-1.15-2.76-2.14-4.38-3.7-3-2.9-5.12-4.55-5.22-5.03z"/><path fill="url(#g)" stroke-width=".252" d="M18.05 6.8s4.17 2.7 5.18 4.42c2.2 3.73 5.47 7.76 6.28 8.78.82 1.03.6 1.65.26 2.1-.5.65-1.15 1.35-1.5.82-5.03-7.23-12.55-11.4-12.83-14.68-.06-.7 2.22-1.47 2.62-1.43z"/><path fill="#eeeeec" stroke-width=".252" d="M2.02 28.67c.82 1.45 3.8 8.8 3.9 9.82.1 1.03.4 3.1.4 3.1.6.62 2.56.83 4.4.62 1.84-.22 3.27-.2 3.17-1.35-.1-1.14-8.1-13.85-8.1-13.85l-3.78 1.65z"/><path fill="#eeeeec" stroke-width=".252" d="M6.93 41.6c-.38.64-.5 2.68-.5 3 0 .3 1.63 3.3 1.94 3.4.3.1 3.17.94 4.2.83 1-.1 2.45-1.75 2.04-3.92-.4-2.17-.5-3.6-1.43-4.34-.92-.72-5.93.52-6.24 1.04z"/><path fill="#eeeeec" stroke-width=".252" d="M-42.46 8.72c3.64-.3 9.28.94 18.83.6C-8.13 8.73 12 5.7 16.3 6.58c7 1.4-5.7 19.98-11.83 21.93-6.13 1.96-10.65 3.2-16.57 4.84-5.9 1.62-18.3 8.66-22.2 8.8-3.44.13-6.5 1.12-11.05-3.72-5.47-5.84-10-9.9-9.88-11.7.1-1.38 8-17.63 12.77-18.03z"/><path fill="url(#h)" stroke-width=".25" d="M2.4 24.53c1.32-2.7 5.32-18.5 9.4-17.3 4.08 1.2 7.14 2.68 7.42 6.06 1.7 20.9 6.7 24.02 6.7 26.08 0 2.02 1 3.75-4.85 3.03-4.33-.52-5.18.8-6.42-.57-3.42-3.74-13.4-15-12.26-17.3z"/><path fill="#eeeeec" stroke-width=".252" d="M2.4 24.53c1.32-2.7 5.32-18.5 9.4-17.3 4.08 1.2 7.14 2.68 7.42 6.06 1.7 20.9 6.7 24.02 6.7 26.08 0 2.02 1 3.75-4.85 3.03-4.33-.52-5.18.8-6.42-.57-3.42-3.74-13.4-15-12.26-17.3z"/><path fill="#eeeeec" stroke-width=".252" d="M15.94 42.85c-.36.9 2.28 3.3 4.42 5.18 1.95 1.7 3.13 1.95 4.85 1.73 1.73-.2 3 .38 3-1.73 0-.86-.57-4.03-1.28-4.75-1.14-1.15-10.4-1.88-10.98-.43z"/></g></svg>