<svg xmlns="http://www.w3.org/2000/svg" width="48" height="48" xmlns:xlink="http://www.w3.org/1999/xlink"><defs><linearGradient id="a" x1="9.186" x2="10.352" y1="426.654" y2="426.654" gradientUnits="userSpaceOnUse"><stop offset="0" stop-color="#F3B167"/><stop offset=".292" stop-color="#F0D196"/><stop offset=".371" stop-color="#F0D196"/><stop offset="1" stop-color="#EC8324"/></linearGradient><radialGradient id="b" cx="4.763" cy="429.83" r="8.965" gradientUnits="userSpaceOnUse" fy="429.83" fx="4.763"><stop offset="0" stop-color="#F0D196"/><stop offset=".197" stop-color="#F0D196"/><stop offset=".815" stop-color="#EC8324"/><stop offset=".815" stop-color="#EC8324"/></radialGradient><linearGradient id="c" x1="7.676" x2="8.676" y1="426.832" y2="426.249" gradientUnits="userSpaceOnUse"><stop offset="0" stop-color="#F3B167"/><stop offset=".292" stop-color="#F0D196"/><stop offset=".371" stop-color="#F0D196"/><stop offset="1" stop-color="#EC8324"/></linearGradient><linearGradient id="d" x1="15.024" x2="21.024" y1="444.264" y2="443.014" gradientUnits="userSpaceOnUse"><stop offset="0" stop-color="#F3B167"/><stop offset=".292" stop-color="#F0D196"/><stop offset=".421" stop-color="#F0D196"/><stop offset="1" stop-color="#EC8324"/></linearGradient><radialGradient id="e" cx="14.43" cy="440.761" r="11.514" gradientUnits="userSpaceOnUse" fy="440.761" fx="14.43"><stop offset=".185" stop-color="#F0D196"/><stop offset=".242" stop-color="#F0C785"/><stop offset=".42" stop-color="#ECAA57"/><stop offset=".58" stop-color="#ED953A"/><stop offset=".713" stop-color="#EC8829"/><stop offset=".803" stop-color="#EC8324"/></radialGradient><linearGradient id="f" x1="41.566" x2="42.816" y1="451.968" y2="450.718" gradientUnits="userSpaceOnUse"><stop offset="0" stop-color="#F3B167"/><stop offset=".421" stop-color="#EFC685"/><stop offset="1" stop-color="#EC8324"/></linearGradient><radialGradient id="g" cx="39.103" cy="448.88" r="2.015" gradientUnits="userSpaceOnUse" fy="448.88" fx="39.103"><stop offset="0" stop-color="#F0D196"/><stop offset=".129" stop-color="#F0D196"/><stop offset="1" stop-color="#EC8324"/></radialGradient><linearGradient id="h" x1="34.514" x2="39.764" y1="444.666" y2="440.541" gradientUnits="userSpaceOnUse"><stop offset="0" stop-color="#F3B167"/><stop offset=".421" stop-color="#E4BA67"/><stop offset="1" stop-color="#EC8324"/></linearGradient><radialGradient id="i" cx="33.732" cy="442.676" r="9.005" gradientUnits="userSpaceOnUse" fy="442.676" fx="33.732"><stop offset="0" stop-color="#F0D196"/><stop offset=".197" stop-color="#F0D196"/><stop offset="1" stop-color="#EC8324"/></radialGradient><radialGradient cx="17.651" cy="441.453" r="8.132" gradientUnits="userSpaceOnUse" fy="441.453" fx="17.651"><stop offset="0" stop-color="#F0D196"/><stop offset=".197" stop-color="#F0D196"/><stop offset="1" stop-color="#EC8324"/></radialGradient><radialGradient id="j" cx="11.898" cy="436.504" r="3.832" gradientUnits="userSpaceOnUse" fy="436.504" fx="11.898"><stop offset="0" stop-color="#F0D196"/><stop offset=".309" stop-color="#F0D196"/><stop offset="1" stop-color="#EC8324"/></radialGradient><linearGradient id="k" x1="14.377" x2="16.677" y1="446.997" y2="446.757" gradientUnits="userSpaceOnUse"><stop offset="0" stop-color="#F3B167"/><stop offset=".292" stop-color="#F0D196"/><stop offset=".421" stop-color="#F0D196"/><stop offset="1" stop-color="#EC8324"/></linearGradient><linearGradient x1="35.577" x2="37.244" y1="452.134" y2="451.384" gradientUnits="userSpaceOnUse"><stop offset="0" stop-color="#F3B167"/><stop offset=".421" stop-color="#EFC685"/><stop offset="1" stop-color="#EC8324"/></linearGradient><radialGradient cx="35.186" cy="449.088" r="1.758" gradientUnits="userSpaceOnUse" fy="449.088" fx="35.186"><stop offset="0" stop-color="#F0D196"/><stop offset=".129" stop-color="#F0D196"/><stop offset="1" stop-color="#EC8324"/></radialGradient><linearGradient x1="33.441" x2="35.108" y1="445.444" y2="445.027" gradientUnits="userSpaceOnUse"><stop offset="0" stop-color="#F3B167"/><stop offset=".292" stop-color="#F0D196"/><stop offset=".421" stop-color="#F0D196"/><stop offset="1" stop-color="#EC8324"/></linearGradient><radialGradient id="l" cx="15.185" cy="451.655" r="1.545" gradientUnits="userSpaceOnUse" fy="451.655" fx="15.185"><stop offset="0" stop-color="#F0D196"/><stop offset=".129" stop-color="#F0D196"/><stop offset="1" stop-color="#EC8324"/></radialGradient><linearGradient id="m" x1="14.073" x2="16.407" y1="455.625" y2="455.958" gradientUnits="userSpaceOnUse"><stop offset="0" stop-color="#F3B167"/><stop offset=".292" stop-color="#F0D196"/><stop offset=".371" stop-color="#F0D196"/><stop offset="1" stop-color="#EC8324"/></linearGradient><linearGradient id="n" x1="13.238" x2="15.701" y1="460.733" y2="460.983" gradientUnits="userSpaceOnUse"><stop offset="0" stop-color="#F3B167"/><stop offset=".292" stop-color="#F0D196"/><stop offset=".376" stop-color="#F0D196"/><stop offset="1" stop-color="#EC8324"/></linearGradient><radialGradient id="o" cx="19.063" cy="451.422" r="1.385" gradientUnits="userSpaceOnUse" fy="451.422" fx="19.063"><stop offset="0" stop-color="#F0D196"/><stop offset=".129" stop-color="#F0D196"/><stop offset="1" stop-color="#EC8324"/></radialGradient><linearGradient id="p" x1="19.373" x2="21.214" y1="456.039" y2="455.694" gradientUnits="userSpaceOnUse"><stop offset="0" stop-color="#F3B167"/><stop offset=".292" stop-color="#F0D196"/><stop offset=".371" stop-color="#F0D196"/><stop offset="1" stop-color="#EC8324"/></linearGradient><linearGradient id="q" x1="19.316" x2="22.696" y1="461.299" y2="461.258" gradientUnits="userSpaceOnUse"><stop offset="0" stop-color="#F3B167"/><stop offset=".292" stop-color="#F0D196"/><stop offset=".376" stop-color="#F0D196"/><stop offset="1" stop-color="#EC8324"/></linearGradient><linearGradient id="r" x1="43.391" x2="45.402" y1="456.496" y2="456.138" gradientUnits="userSpaceOnUse"><stop offset="0" stop-color="#F3B167"/><stop offset=".292" stop-color="#F0D196"/><stop offset=".371" stop-color="#F0D196"/><stop offset="1" stop-color="#EC8324"/></linearGradient><linearGradient id="s" x1="44.091" x2="46.425" y1="460.514" y2="459.597" gradientUnits="userSpaceOnUse"><stop offset="0" stop-color="#F3B167"/><stop offset=".292" stop-color="#F0D196"/><stop offset=".376" stop-color="#F0D196"/><stop offset="1" stop-color="#EC8324"/></linearGradient><linearGradient x1="36.016" x2="37.433" y1="456.114" y2="456.281" gradientUnits="userSpaceOnUse"><stop offset="0" stop-color="#F3B167"/><stop offset=".292" stop-color="#F0D196"/><stop offset=".371" stop-color="#F0D196"/><stop offset="1" stop-color="#EC8324"/></linearGradient><linearGradient x1="34.88" x2="36.63" y1="459.535" y2="460.784" gradientUnits="userSpaceOnUse"><stop offset="0" stop-color="#F3B167"/><stop offset=".292" stop-color="#F0D196"/><stop offset=".376" stop-color="#F0D196"/><stop offset="1" stop-color="#EC8324"/></linearGradient><linearGradient x1="41.275" x2="39.885" y1="437.4" y2="438.082" gradientUnits="userSpaceOnUse"><stop offset="0" stop-color="#EC8324"/><stop offset=".579" stop-color="#F3B167"/><stop offset="1" stop-color="#EC8324"/></linearGradient><linearGradient x1="42.036" x2="42.827" y1="443.307" y2="442.912" gradientUnits="userSpaceOnUse"><stop offset="0" stop-color="#EC8324"/><stop offset=".579" stop-color="#F3B167"/><stop offset="1" stop-color="#EC8324"/></linearGradient><linearGradient x1="44.72" x2="44.362" y1="446.774" y2="447.038" gradientUnits="userSpaceOnUse"><stop offset="0" stop-color="#EC8324"/><stop offset=".579" stop-color="#F3B167"/><stop offset="1" stop-color="#EC8324"/></linearGradient><linearGradient x1="9.186" x2="10.352" y1="426.654" y2="426.654" xlink:href="#a" gradientUnits="userSpaceOnUse" gradientTransform="matrix(1.009 0 0 1.009 .151 -423.846)"/><radialGradient cx="4.763" cy="429.83" r="8.965" xlink:href="#b" gradientUnits="userSpaceOnUse" fx="4.763" fy="429.83" gradientTransform="matrix(1.009 0 0 1.009 .151 -423.846)"/><linearGradient x1="7.676" x2="8.676" y1="426.832" y2="426.249" xlink:href="#c" gradientUnits="userSpaceOnUse" gradientTransform="matrix(1.009 0 0 1.009 .151 -423.846)"/><linearGradient x1="15.024" x2="21.024" y1="444.264" y2="443.014" xlink:href="#d" gradientUnits="userSpaceOnUse" gradientTransform="matrix(1.009 0 0 1.009 .151 -423.846)"/><radialGradient cx="14.43" cy="440.761" r="11.514" xlink:href="#e" gradientUnits="userSpaceOnUse" fx="14.43" fy="440.761" gradientTransform="matrix(1.009 0 0 1.009 .151 -423.846)"/><linearGradient id="y" x1="41.566" x2="42.816" y1="451.968" y2="450.718" xlink:href="#f" gradientUnits="userSpaceOnUse" gradientTransform="matrix(1.714 0 0 1.718 -37.205 -745.396)"/><radialGradient id="x" cx="39.103" cy="448.88" r="2.015" xlink:href="#g" gradientUnits="userSpaceOnUse" fx="39.103" fy="448.88" gradientTransform="matrix(1.714 0 0 1.718 -37.205 -745.396)"/><linearGradient id="w" x1="34.514" x2="39.764" y1="444.666" y2="440.541" xlink:href="#h" gradientUnits="userSpaceOnUse" gradientTransform="matrix(1.714 0 0 1.718 -37.205 -745.396)"/><radialGradient id="v" cx="33.732" cy="442.676" r="9.005" xlink:href="#i" gradientUnits="userSpaceOnUse" fx="33.732" fy="442.676" gradientTransform="matrix(1.714 0 0 1.718 -37.205 -745.396)"/><radialGradient cx="11.898" cy="436.504" r="3.832" xlink:href="#j" gradientUnits="userSpaceOnUse" fx="11.898" fy="436.504" gradientTransform="matrix(1.009 0 0 1.009 .151 -423.846)"/><linearGradient x1="14.377" x2="16.677" y1="446.997" y2="446.757" xlink:href="#k" gradientUnits="userSpaceOnUse" gradientTransform="matrix(1.009 0 0 1.009 .151 -423.846)"/><radialGradient cx="15.185" cy="451.655" r="1.545" xlink:href="#l" gradientUnits="userSpaceOnUse" fx="15.185" fy="451.655" gradientTransform="matrix(1.009 0 0 1.009 .151 -423.846)"/><linearGradient x1="14.073" x2="16.407" y1="455.625" y2="455.958" xlink:href="#m" gradientUnits="userSpaceOnUse" gradientTransform="matrix(1.009 0 0 1.009 .151 -423.846)"/><linearGradient x1="13.238" x2="15.701" y1="460.733" y2="460.983" xlink:href="#n" gradientUnits="userSpaceOnUse" gradientTransform="matrix(1.009 0 0 1.009 .151 -423.846)"/><radialGradient cx="19.063" cy="451.422" r="1.385" xlink:href="#o" gradientUnits="userSpaceOnUse" fx="19.063" fy="451.422" gradientTransform="matrix(1.009 0 0 1.009 .151 -423.846)"/><linearGradient x1="19.373" x2="21.214" y1="456.039" y2="455.694" xlink:href="#p" gradientUnits="userSpaceOnUse" gradientTransform="matrix(1.009 0 0 1.009 .151 -423.846)"/><linearGradient x1="19.316" x2="22.696" y1="461.299" y2="461.258" xlink:href="#q" gradientUnits="userSpaceOnUse" gradientTransform="matrix(1.009 0 0 1.009 .151 -423.846)"/><linearGradient id="u" x1="43.391" x2="45.402" y1="456.496" y2="456.138" xlink:href="#r" gradientUnits="userSpaceOnUse" gradientTransform="matrix(1.714 0 0 1.718 -37.205 -745.396)"/><linearGradient id="t" x1="44.091" x2="46.425" y1="460.514" y2="459.597" xlink:href="#s" gradientUnits="userSpaceOnUse" gradientTransform="matrix(1.714 0 0 1.718 -37.205 -745.396)"/></defs><g stroke="#653310"><path fill="none" stroke-width="1.208" d="M-9.56 1.54c.45.03 5.68 1.34 11.9 1.12C12.38 2.3 25.48.34 28.3.9c4.54.9-3.72 12.9-7.7 14.15-4 1.27-6.93 2.07-10.77 3.12-3.85 1.05-11.9 5.6-14.45 5.68-2.23.08-4.23.73-7.18-2.4-3.56-3.76-6.5-6.4-6.42-7.55.06-.88 5.55-12.6 8.66-12.36z"/><path fill="none" stroke-width="1.208" d="M19.24 12.48C20.1 10.74 22.7.55 25.36 1.32c2.66.77 4.65 1.73 4.83 3.9 1.1 13.5 4.35 15.5 4.35 16.84 0 1.3.65 2.4-3.16 1.95-2.83-.33-3.37.5-4.18-.36-2.23-2.42-8.72-9.67-7.98-11.16z"/><path fill="none" stroke-width="1.208" d="M28.05 24.3c-.23.57 1.5 2.13 2.88 3.34 1.27 1.1 2.04 1.25 3.15 1.1 1.12-.13 1.95.25 1.95-1.1 0-.56-.37-2.6-.83-3.07-.74-.74-6.77-1.2-7.15-.28z"/><path fill="none" stroke-width="1.208" d="M30.04 27.9c.23-1.1 2.42.1 3.4.02.97-.07 2.6-.52 2.96.18.35.7.72 1.87 1.58 2.8.45.48 1.7.63 1.78 1.2.03.24-.53 1.06-.93 1.28-.33.18-2.52.9-2.53.5 0-.2-.13-.75-.27-.9-3.7-4.16-6.05-4.72-6-5.07z"/><path fill="none" stroke-width="1.208" d="M33.06 12.5c.05-.36.62-.76.9-.76.26 0 .8-.03 1.06.23.26.27.04 1.12 1.24 4.2.4 1.08.94 2.5 1.3 3.16.15.28-.58.62-.58.62-.66-1.04-1.2-1.92-1.85-3.23-1.18-2.44-2.1-3.9-2.07-4.22z"/><path fill="none" stroke-width="1.208" d="M37.56 19.33c.16-.07.65 1.3 1.83 2.66.32.38 1.4 1.57 1.94 1.88.42.24.8.67.54.67-.27 0-2.9-1.85-3.38-2.43-.76-.95-1.74-2.2-1.65-2.38.1-.18.7-.4.7-.4z"/><path fill="none" stroke-width="1.208" d="M30.7.87s1.96 2.58 2.2 3.84c.52 2.76 1.6 5.94 1.88 6.74.26.8-.02 1.13-.3 1.32-.46.28-1.02.56-1.12.16-1.46-5.5-5.12-9.73-4.56-11.77.1-.43 1.68-.4 1.9-.28z"/><path fill="none" stroke-width="1.208" d="M39.4 32.76c.18.1.45.22.4.66-.04.45-.04 1.38.23 2.9.26 1.5 1.82 6.18 1.77 6.36-.04.17-.4.13-.4.3 0 .2.58.8 0 .63-.57-.17-.8-.17-1.24 0-.44.2-1.33-.12-1.33-.12s-.27.22-.4.48c-.18-.3-.57-.62-.5-1.28.1-.67-.52-6.9-1.45-8-.93-1.12-.4-.85-.36-.94.05-.1 3.3-.98 3.3-.98z"/><path fill="none" stroke-width="1.208" d="M19 15.15c.54.93 2.47 5.67 2.54 6.33.06.67.26 2 .26 2 .4.4 1.66.54 2.86.4 1.2-.13 2.13-.13 2.06-.87-.06-.72-5.25-8.92-5.25-8.92L19 15.15z"/><path fill="none" stroke-width="1.208" d="M22.2 23.48c-.25.42-.33 1.74-.33 1.94 0 .2 1.06 2.13 1.26 2.2.2.06 2.07.6 2.73.53.66-.07 1.6-1.13 1.33-2.53-.28-1.4-.34-2.34-.94-2.8-.6-.47-3.86.33-4.06.66z"/><path fill="none" stroke-width="1.208" d="M22.53 27.35c.34-.26 3.6.73 4.2.33.6-.4.66-.4.86 1.6.2 2 .6 4.07.92 4.27.33.2-1.8.67-2.6.33-.74-.3-3.65-6.33-3.4-6.53z"/><path fill="none" stroke-width="1.208" d="M25.26 33.22c-.08.46-.13 2-.27 5.2-.05 1.07-1.27 4.2-1.27 4.47 0 .25.87.05 1.53.25.67.2 1.8.67 1.93.47.12-.2-.08-1.6.26-3.73.16-1.04 1.33-5.82 1.2-6.08-.14-.27-.67-.27-1.67-.47-1-.2-1.67-.53-1.74-.13z"/><path fill="none" stroke-width="1.208" d="M23.73 42.88l-.6.74-.4.74s-2.13 1.06-2.4.93c-.26-.15.08 1.06.08 1.06l5.73.73s1.93-1.55 1.93-1.74c0-.2-.34-1.34-.54-1.67-.2-.34-3.8-.82-3.8-.82z"/><path fill="none" stroke-width="1.208" d="M41.3 42.15s1.06 1.07 1.46 1.4c.4.34.2 1.07.2 1.07s-.8 1.07-.8 1.53c0 .47-.47.94-.47.94l-4.33.12s-.8-1.4-.8-1.73c0-.35 1.26-.4 1.4-.8.13-.4.6-1.48.6-1.48s2.2-1.6 2.72-1.07z"/><path fill="#eeeeec" stroke-width=".252" d="M37.56 19.33c.16-.07.65 1.3 1.83 2.66.32.38 1.4 1.57 1.94 1.88.42.24.8.67.54.67-.27 0-2.9-1.85-3.38-2.43-.76-.95-1.74-2.2-1.65-2.38.1-.18.7-.4.7-.4z"/><path fill="#eeeeec" stroke-width=".252" d="M33.06 12.5c.05-.36.62-.76.9-.76.26 0 .8-.03 1.06.23.26.27.04 1.12 1.24 4.2.4 1.08.94 2.5 1.3 3.16.15.28-.58.62-.58.62-.66-1.04-1.2-1.92-1.85-3.23-1.18-2.44-2.1-3.9-2.07-4.22z"/><path fill="#eeeeec" stroke-width=".252" d="M30.7.87s1.96 2.58 2.2 3.84c.52 2.76 1.6 5.94 1.88 6.74.26.8-.02 1.13-.3 1.32-.46.28-1.02.56-1.12.16-1.46-5.5-5.12-9.73-4.56-11.77.1-.43 1.68-.4 1.9-.28z"/><path fill="#eeeeec" stroke-width=".252" d="M23.73 42.88l-.6.74-.4.74s-2.13 1.06-2.4.93c-.26-.15.08 1.06.08 1.06l5.73.73s1.93-1.55 1.93-1.74c0-.2-.34-1.34-.54-1.67-.2-.34-3.8-.82-3.8-.82z"/><path fill="#eeeeec" stroke-width=".252" d="M25.26 33.22c-.08.46-.13 2-.27 5.2-.05 1.07-1.27 4.2-1.27 4.47 0 .25.87.05 1.53.25.67.2 1.8.67 1.93.47.12-.2-.08-1.6.26-3.73.16-1.04 1.33-5.82 1.2-6.08-.14-.27-.67-.27-1.67-.47-1-.2-1.67-.53-1.74-.13z"/><path fill="url(#t)" stroke-width=".252" d="M41.3 42.15s1.06 1.07 1.46 1.4c.4.34.2 1.07.2 1.07s-.8 1.07-.8 1.53c0 .47-.47.94-.47.94l-4.33.12s-.8-1.4-.8-1.73c0-.35 1.26-.4 1.4-.8.13-.4.6-1.48.6-1.48s2.2-1.6 2.72-1.07z"/><path fill="url(#u)" stroke-width=".252" d="M39.4 32.76c.18.1.45.22.4.66-.04.45-.04 1.38.23 2.9.26 1.5 1.82 6.18 1.77 6.36-.04.17-.4.13-.4.3 0 .2.58.8 0 .63-.57-.17-.8-.17-1.24 0-.44.2-1.33-.12-1.33-.12s-.27.22-.4.48c-.18-.3-.57-.62-.5-1.28.1-.67-.52-6.9-1.45-8-.93-1.12-.4-.85-.36-.94.05-.1 3.3-.98 3.3-.98z"/><path fill="#eeeeec" stroke-width=".252" d="M19 15.15c.54.93 2.47 5.67 2.54 6.33.06.67.26 2 .26 2 .4.4 1.66.54 2.86.4 1.2-.13 2.13-.13 2.06-.87-.06-.72-5.25-8.92-5.25-8.92L19 15.15z"/><path fill="#eeeeec" stroke-width=".252" d="M22.2 23.48c-.25.42-.33 1.74-.33 1.94 0 .2 1.06 2.13 1.26 2.2.2.06 2.07.6 2.73.53.66-.07 1.6-1.13 1.33-2.53-.28-1.4-.34-2.34-.94-2.8-.6-.47-3.86.33-4.06.66z"/><path fill="#eeeeec" stroke-width=".252" d="M22.53 27.35c.34-.26 3.6.73 4.2.33.6-.4.66-.4.86 1.6.2 2 .6 4.07.92 4.27.33.2-1.8.67-2.6.33-.74-.3-3.65-6.33-3.4-6.53z"/><path fill="#eeeeec" stroke-width=".252" d="M-9.92 2.28c2.37-.2 6.04.6 12.25.38C12.4 2.3 25.5.34 28.3.9c4.54.92-3.72 12.9-7.7 14.16-4 1.26-6.93 2.07-10.77 3.12-3.85 1.05-11.9 5.58-14.45 5.67-2.23.08-4.23.73-7.18-2.4-3.56-3.76-6.5-6.38-6.42-7.55.06-.88 5.2-11.36 8.3-11.62z"/><path fill="url(#v)" stroke-width=".25" d="M19.24 12.48C20.1 10.74 22.7.55 25.36 1.32c2.66.77 4.65 1.73 4.83 3.9 1.1 13.5 4.35 15.5 4.35 16.84 0 1.3.65 2.4-3.16 1.95-2.83-.33-3.37.5-4.18-.36-2.23-2.42-8.72-9.67-7.98-11.16z"/><path fill="url(#w)" stroke-width=".252" d="M19.24 12.48C20.1 10.74 22.7.55 25.36 1.32c2.66.77 4.65 1.73 4.83 3.9 1.1 13.5 4.35 15.5 4.35 16.84 0 1.3.65 2.4-3.16 1.95-2.83-.33-3.37.5-4.18-.36-2.23-2.42-8.72-9.67-7.98-11.16z"/><path fill="url(#x)" stroke-width=".252" d="M28.05 24.3c-.23.57 1.5 2.13 2.88 3.34 1.27 1.1 2.04 1.25 3.15 1.1 1.12-.13 1.95.25 1.95-1.1 0-.56-.37-2.6-.83-3.07-.74-.74-6.77-1.2-7.15-.28z"/><path fill="url(#y)" stroke-width=".252" d="M30.04 27.9c.23-1.1 2.42.1 3.4.02.97-.07 2.6-.52 2.96.18.35.7.72 1.87 1.58 2.8.45.48 1.7.63 1.78 1.2.03.24-.53 1.06-.93 1.28-.33.18-2.52.9-2.53.5 0-.2-.13-.75-.27-.9-3.7-4.16-6.05-4.72-6-5.07z"/></g></svg>