<svg xmlns="http://www.w3.org/2000/svg" width="48" height="48" xmlns:xlink="http://www.w3.org/1999/xlink" version="1"><defs><linearGradient id="a" x1="100.512" x2="122.106" y1="48.775" y2="75.352" gradientUnits="userSpaceOnUse"><stop offset="0" stop-color="#FAFAFA"/><stop offset=".579" stop-color="#828B99"/><stop offset=".78" stop-color="#868F9D"/><stop offset=".957" stop-color="#939EAD"/><stop offset="1" stop-color="#98A4B2"/></linearGradient><linearGradient id="y" x1="100.512" x2="122.106" y1="48.775" y2="75.352" xlink:href="#a" gradientUnits="userSpaceOnUse"/><linearGradient id="b" x1="105.015" x2="100.976" y1="53.14" y2="51.033" gradientUnits="userSpaceOnUse" gradientTransform="translate(-65.05 -40.617)"><stop offset="0" stop-color="#EFEEEC"/><stop offset="1" stop-color="#98A7B2"/></linearGradient><linearGradient id="x" x1="105.015" x2="100.976" y1="53.14" y2="51.033" xlink:href="#b" gradientUnits="userSpaceOnUse" gradientTransform="translate(-65.05 -40.617)"/><linearGradient id="c" x1="97.967" x2="124.216" y1="54.748" y2="54.054" gradientUnits="userSpaceOnUse" gradientTransform="translate(-65.05 -40.617)"><stop offset="0" stop-color="#fff"/><stop offset=".105" stop-color="#ECEEF0"/><stop offset=".317" stop-color="#BBC2C8"/><stop offset=".539" stop-color="#828F99"/><stop offset=".858" stop-color="#8895A0"/><stop offset="1" stop-color="#8D9BA6"/></linearGradient><linearGradient id="w" x1="97.967" x2="124.216" y1="54.748" y2="54.054" xlink:href="#c" gradientUnits="userSpaceOnUse" gradientTransform="translate(-65.05 -40.617)"/><linearGradient id="d"><stop offset="0"/><stop offset="1" stop-opacity="0"/></linearGradient><linearGradient x1="24.375" x2="43.455" y1="29.988" y2="44.129" xlink:href="#d" gradientUnits="userSpaceOnUse" gradientTransform="translate(2.759 -14.855)"/><linearGradient id="n"><stop offset="0" stop-color="#2e3436"/><stop offset="1" stop-color="#2e3436" stop-opacity="0"/></linearGradient><linearGradient id="l"><stop offset="0" stop-color="#fff"/><stop offset="1" stop-color="#eeeeec" stop-opacity="0"/></linearGradient><linearGradient id="k"><stop offset="0" stop-color="#f0f0f0"/><stop offset="1" stop-color="#f0f0f0" stop-opacity="0"/></linearGradient><radialGradient id="j" cx="294.624" cy="80.627" r="48.777" fx="294.624" fy="80.627" gradientUnits="userSpaceOnUse"><stop offset="0" stop-color="#BAD1D7"/><stop offset=".826" stop-color="#6D7580"/><stop offset="1" stop-color="#41454C"/></radialGradient><radialGradient id="i" cx="257.459" cy="35.376" r="68.717" fx="257.459" fy="35.376" gradientUnits="userSpaceOnUse"><stop offset="0" stop-color="#fff"/><stop offset="1" stop-color="#8794A0"/></radialGradient><radialGradient id="h" cx="264.957" cy="80.291" r="53.348" fx="264.957" fy="80.291" gradientUnits="userSpaceOnUse"><stop offset="0" stop-color="#BAD1D7"/><stop offset="1" stop-color="#8794A0"/></radialGradient><linearGradient id="e"><stop offset="0" stop-opacity=".633"/><stop offset="1" stop-opacity="0"/></linearGradient><linearGradient x1="26.22" x2="43.015" y1="36.124" y2="42.537" xlink:href="#e" gradientUnits="userSpaceOnUse" gradientTransform="translate(37.993 -41.602)"/><linearGradient id="f"><stop offset="0"/><stop offset="1" stop-opacity="0"/></linearGradient><radialGradient id="g" cx="33.161" cy="46.365" r="28.435" fx="33.161" fy="46.365" gradientTransform="matrix(-1 0 0 1 55.359 0)" gradientUnits="userSpaceOnUse"><stop offset="0" stop-color="#fff"/><stop offset=".09" stop-color="#F9FAFA"/><stop offset=".211" stop-color="#E8EBED"/><stop offset=".35" stop-color="#CCD2D7"/><stop offset=".5" stop-color="#A5B0B8"/><stop offset=".579" stop-color="#8E9CA6"/><stop offset="1" stop-color="#505359"/></radialGradient><radialGradient id="m" cx="38.921" cy="39.927" r="34.589" fx="38.921" fy="39.927" gradientTransform="matrix(-1 0 0 1 55.359 0)" gradientUnits="userSpaceOnUse"><stop offset="0" stop-color="#fff"/><stop offset="1" stop-color="#8D9BA6"/></radialGradient><radialGradient cx="24.205" cy="40.568" r="18.837" xlink:href="#f" gradientUnits="userSpaceOnUse" gradientTransform="matrix(1 0 0 .263 0 29.898)" fx="24.205" fy="40.568"/><radialGradient cx="33.161" cy="46.365" r="28.435" xlink:href="#g" gradientUnits="userSpaceOnUse" gradientTransform="matrix(-1 0 0 1 55.359 0)" fx="33.161" fy="46.365"/><radialGradient id="o" cx="264.957" cy="80.291" r="53.348" xlink:href="#h" gradientUnits="userSpaceOnUse" fx="264.957" fy="80.291"/><radialGradient id="p" cx="257.459" cy="35.376" r="68.717" xlink:href="#i" gradientUnits="userSpaceOnUse" fx="257.459" fy="35.376"/><radialGradient id="q" cx="294.624" cy="80.627" r="48.777" xlink:href="#j" gradientUnits="userSpaceOnUse" fx="294.624" fy="80.627"/><linearGradient id="r" x1="16.601" x2="17.363" y1="19.142" y2="45.175" xlink:href="#k" gradientUnits="userSpaceOnUse" gradientTransform="matrix(.547 0 0 .548 58.952 39.232)"/><linearGradient id="s" x1="14.107" x2="39.69" y1="4.772" y2="43.606" xlink:href="#l" gradientUnits="userSpaceOnUse" gradientTransform="matrix(.547 0 0 .548 58.952 39.232)"/><radialGradient cx="38.921" cy="39.927" r="34.589" xlink:href="#m" gradientUnits="userSpaceOnUse" gradientTransform="matrix(-1 0 0 1 55.359 0)" fx="38.921" fy="39.927"/><radialGradient cx="38.921" cy="39.927" r="34.589" gradientUnits="userSpaceOnUse" gradientTransform="matrix(-1 0 0 1 55.359 0)" fy="39.927" fx="38.921"><stop offset="0" stop-color="#fff"/><stop offset="1" stop-color="#8D9BA6"/></radialGradient><radialGradient cx="38.921" cy="39.927" r="34.589" xlink:href="#m" gradientUnits="userSpaceOnUse" gradientTransform="matrix(-.5 0 0 .5 31.772 -14.632)" fx="38.921" fy="39.927"/><linearGradient x1="7.662" x2="47.696" y1="54.053" y2="54.053" xlink:href="#m" gradientUnits="userSpaceOnUse"/><radialGradient id="u" cx="33.161" cy="46.365" r="28.435" xlink:href="#g" gradientUnits="userSpaceOnUse" gradientTransform="matrix(-1 0 0 1 55.359 0)" fx="33.161" fy="46.365"/><linearGradient id="v" x1="7.662" x2="47.696" y1="54.053" y2="54.053" xlink:href="#m" gradientUnits="userSpaceOnUse"/><linearGradient id="t" x1="35.137" x2="38.644" y1="30.922" y2="33.132" xlink:href="#n" gradientUnits="userSpaceOnUse" gradientTransform="matrix(.833 0 0 .833 -5.989 7.666)"/></defs><g><g><path fill="url(#o)" d="M273.55 75.76l-12-14.42-1.98-23.04 13.08 11.6.9 25.86z" transform="matrix(.435 0 0 .435 -98.162 14.361)"/><path fill="url(#p)" d="M299.2 42.47l-26.55 7.44-13.07-11.6 23.56-5.1 16.06 9.27z" transform="matrix(.435 0 0 .435 -98.162 14.361)"/><path fill="url(#q)" d="M296.92 66.62l-23.37 9.14-.9-25.85 26.55-7.43-2.28 24.15z" transform="matrix(.435 0 0 .435 -98.162 14.361)"/><path fill="none" stroke="#f0f0f0" stroke-width=".76.315" d="M20.52 36.24l11-3.12" stroke-linecap="round"/><path fill="none" stroke="url(#r)" stroke-width="1.315" d="M60.97 43.15l7.33 6.3.26 14.24" stroke-linecap="round" transform="matrix(.76 0 0 .76 -31.352 -1.407)"/><path fill="none" stroke="url(#s)" stroke-width="1.973" d="M61.1 43.28l12.93-2.7 8.75 5.1-1.3 13.12-12.68 4.87-6.53-7.95-1.17-12.44z" transform="matrix(.76 0 0 .76 -31.352 -1.407)"/><path fill="none" stroke="#3f3131" stroke-width=".76.315" d="M14.6 31.14l10.35-2.18 7 4.1-1.03 10.53-10.16 3.9-5.24-6.38-.93-9.98z"/></g><path fill="url(#t)" fill-rule="evenodd" d="M22.12 34.16l2.45.53 5.73-1.48-6.02-1.05-2.16 2z"/><g fill="none" opacity=".5" stroke-linecap="round"><path stroke="#346804" stroke-width="7.343" d="M9.05 15.14c.4 14.8 20.3-.64 20.34 13.75" transform="matrix(.707 0 0 .944 1.701 3.794)"/><path stroke="#8ae234" stroke-width="3.672" d="M9.05 15.14c.4 14.8 20.3-.64 20.34 13.75" transform="matrix(.707 0 0 .944 1.701 3.794)"/><path stroke="#d0f4ac" stroke-width="1.224" d="M8.98 15.04c.4 14.8 20.3-.65 20.34 13.74" transform="matrix(.707 0 0 .944 1.701 3.794)"/></g><g transform="matrix(.902 0 0 .902 -3.34 -1.131)"><circle cx="27.679" cy="54.053" r="19.018" fill="url(#u)" stroke="#192333" stroke-width="2.216" transform="matrix(.5 0 0 .5 .011 -15.684)"/><circle cx="27.679" cy="54.053" r="19.018" fill="none" stroke="url(#v)" stroke-width="2.482" transform="matrix(.445 0 0 .449 1.501 -12.93)"/></g><g fill="none" stroke-linecap="round"><path stroke="#346804" stroke-width="7.343" d="M9.05 15.14c.4 14.8 20.3-.64 20.34 13.75" transform="matrix(-.707 0 0 .944 43.466 3.713)"/><path stroke="#8ae234" stroke-width="3.672" d="M9.05 15.14c.4 14.8 20.3-.64 20.34 13.75" transform="matrix(-.707 0 0 .944 43.466 3.713)"/><path stroke="#d0f4ac" stroke-width="1.224" d="M8.98 15.04c.4 14.8 20.3-.65 20.34 13.74" transform="matrix(-.707 0 0 .944 43.466 3.713)"/></g><g><path fill="url(#w)" d="M65.07 25.5c0 5.35-6.6 9.27-19.1 9.27-11 0-18.1-4.16-18.1-9.15.02-.2.07-.4.16-.58L46.08-6.94c.22-.4.57-.4.8 0l18.04 31.9c.1.14.14.34.15.55z" transform="matrix(.447 0 0 .447 18.508 3.79)"/><path fill="url(#x)" d="M46.76-7.28l-12.46 40c-5.28-1.7-7-5.9-6.27-7.68L46.5-7.28h.26z" transform="matrix(.447 0 0 .447 18.508 3.79)"/><path fill="none" stroke="#192333" stroke-width=".9.236" d="M47.36 14.58c.17.3.27.64.27.98 0 2.13-3.72 3.78-8.3 3.78-4.6 0-8.32-1.65-8.32-3.78 0-.4.13-.78.38-1.15L39.34.53l8.02 14.06z"/><g transform="matrix(.447 0 0 .447 -10.569 -14.366)"><linearGradient x1="100.512" x2="122.106" y1="48.775" y2="75.352" gradientUnits="userSpaceOnUse"><stop offset="0" stop-color="#FAFAFA"/><stop offset=".579" stop-color="#828B99"/><stop offset=".78" stop-color="#868F9D"/><stop offset=".957" stop-color="#939EAD"/><stop offset="1" stop-color="#98A4B2"/></linearGradient><path fill="url(#y)" d="M111.2 35.07l-16.95 29.6c-.5.74-.74 1.5-.74 2.27 0 4.4 8.12 7.95 18.1 7.95 9.98 0 18.1-3.57 18.1-7.96 0-.65-.2-1.3-.54-1.94 0 0-17.52-30.7-17.52-30.7l-.43.77zM94.5 66.94c0-.57.2-1.15.58-1.72l.06-.1s15.68-27.36 16.5-28.8c.83 1.45 16.65 29.17 16.65 29.17.26.47.4.96.4 1.44 0 3.7-8 6.95-17.1 6.95-9.1 0-17.1-3.25-17.1-6.96z"/></g></g></g></svg>