<svg xmlns="http://www.w3.org/2000/svg" width="48" height="48" xmlns:xlink="http://www.w3.org/1999/xlink"><defs><radialGradient id="g" cx="303.433" cy="311.923" r="15.663" gradientUnits="userSpaceOnUse" gradientTransform="matrix(-1.018 -.037 -.037 1.019 636.227 7.946)" fy="311.923" fx="303.433"><stop offset="0" stop-color="#fff"/><stop offset="1" stop-color="#8794A0"/></radialGradient><radialGradient cx="305.903" cy="314.532" r="28.819" gradientUnits="userSpaceOnUse" gradientTransform="matrix(-.486 -.007 -.007 .458 464.105 175.446)" fy="314.532" fx="305.903"><stop offset=".646" stop-color="#fff"/><stop offset=".927" stop-color="#76828C"/></radialGradient><radialGradient id="d" cx="320.509" cy="314.834" r="8.841" gradientUnits="userSpaceOnUse" fy="314.834" fx="320.509" gradientTransform="matrix(.726 .087 -.087 .727 -176.991 -233.176)"><stop offset="0" stop-color="#F17912"/><stop offset=".517" stop-color="#CE5B0B"/><stop offset="1" stop-color="#B34F0A"/></radialGradient><radialGradient id="e" cx="222.807" cy="518.711" r="17.408" gradientUnits="userSpaceOnUse" gradientTransform="matrix(.999 .036 -.036 .999 115.327 -221.934)" fy="518.711" fx="222.807"><stop offset="0" stop-color="#fff"/><stop offset=".146" stop-color="#FAE6C8"/><stop offset=".657" stop-color="#F17912"/><stop offset=".904" stop-color="#FF710E"/><stop offset="1" stop-color="#CE5B0B"/></radialGradient><radialGradient id="f" cx="318.479" cy="304.573" r="29.063" gradientUnits="userSpaceOnUse" fy="304.573" fx="318.479"><stop offset=".006" stop-color="#FAAF3D"/><stop offset=".371" stop-color="#FAE6C8"/><stop offset=".657" stop-color="#F17912"/><stop offset="1" stop-color="#CE5B0B"/></radialGradient><linearGradient x1="-1542.913" x2="-1529.661" y1="584.922" y2="601.232" gradientTransform="matrix(.789 .615 -.615 .789 1908.824 780.959)" gradientUnits="userSpaceOnUse"><stop offset="0" stop-color="#FAFAFA"/><stop offset=".579" stop-color="#828B99"/><stop offset=".753" stop-color="#858E9C"/><stop offset=".905" stop-color="#8E99A7"/><stop offset="1" stop-color="#98A4B2"/></linearGradient><linearGradient id="a" x1="-1540.149" x2="-1542.628" y1="587.601" y2="586.307" gradientTransform="matrix(.789 .615 -.615 .789 1908.824 780.959)" gradientUnits="userSpaceOnUse"><stop offset="0" stop-color="#EFEEEC"/><stop offset="1" stop-color="#98A7B2"/></linearGradient><linearGradient id="b" x1="-1540.748" x2="-1549.623" y1="587.318" y2="583.04" gradientTransform="matrix(.789 .615 -.615 .789 1908.824 780.959)" gradientUnits="userSpaceOnUse"><stop offset="0" stop-color="#878787"/><stop offset="1" stop-color="#BABDB4"/></linearGradient><linearGradient id="c" x1="-1544.473" x2="-1528.364" y1="588.587" y2="588.161" gradientTransform="matrix(.789 .615 -.615 .789 1908.824 780.959)" gradientUnits="userSpaceOnUse"><stop offset="0" stop-color="#fff"/><stop offset=".105" stop-color="#ECEEF0"/><stop offset=".317" stop-color="#BBC2C8"/><stop offset=".539" stop-color="#828F99"/><stop offset=".8" stop-color="#86939E"/><stop offset="1" stop-color="#8D9BA6"/></linearGradient><linearGradient x1="-1544.473" x2="-1528.364" y1="588.587" y2="588.161" gradientUnits="userSpaceOnUse" gradientTransform="matrix(.789 .615 -.615 .789 1908.824 780.959)"><stop offset="0" stop-color="#fff"/><stop offset=".105" stop-color="#ECEEF0"/><stop offset=".317" stop-color="#BBC2C8"/><stop offset=".539" stop-color="#828F99"/><stop offset=".8" stop-color="#86939E"/><stop offset="1" stop-color="#8D9BA6"/></linearGradient><linearGradient x1="-1540.748" x2="-1549.623" y1="587.318" y2="583.04" gradientUnits="userSpaceOnUse" gradientTransform="matrix(.789 .615 -.615 .789 1908.824 780.959)"><stop offset="0" stop-color="#878787"/><stop offset="1" stop-color="#BABDB4"/></linearGradient><linearGradient x1="-1540.149" x2="-1542.628" y1="587.601" y2="586.307" gradientUnits="userSpaceOnUse" gradientTransform="matrix(.789 .615 -.615 .789 1908.824 780.959)"><stop offset="0" stop-color="#EFEEEC"/><stop offset="1" stop-color="#98A7B2"/></linearGradient><linearGradient id="m" x1="-1540.149" x2="-1542.628" y1="587.601" y2="586.307" xlink:href="#a" gradientUnits="userSpaceOnUse" gradientTransform="matrix(.558 .404 -.403 .559 1136.545 303.712)"/><linearGradient id="l" x1="-1540.748" x2="-1549.623" y1="587.318" y2="583.04" xlink:href="#b" gradientUnits="userSpaceOnUse" gradientTransform="matrix(.558 .404 -.403 .559 1136.545 303.712)"/><linearGradient id="k" x1="-1544.473" x2="-1528.364" y1="588.587" y2="588.161" xlink:href="#c" gradientUnits="userSpaceOnUse" gradientTransform="matrix(.558 .404 -.403 .559 1136.545 303.712)"/><radialGradient id="n" cx="320.509" cy="314.834" r="8.841" xlink:href="#d" gradientUnits="userSpaceOnUse" gradientTransform="matrix(-.103 .608 .609 .103 -140.628 -196.11)" fx="320.509" fy="314.834"/><radialGradient id="o" cx="222.807" cy="518.711" r="17.408" xlink:href="#e" gradientUnits="userSpaceOnUse" gradientTransform="matrix(.999 .036 -.036 .999 115.327 -221.934)" fx="222.807" fy="518.711"/><radialGradient id="p" cx="318.479" cy="304.573" r="29.063" xlink:href="#f" gradientUnits="userSpaceOnUse" fx="318.479" fy="304.573"/><linearGradient id="q" x1="-1544.473" x2="-1528.364" y1="588.587" y2="588.161" xlink:href="#c" gradientUnits="userSpaceOnUse" gradientTransform="matrix(.293 .543 .544 -.292 137.91 1044.439)"/><linearGradient id="r" x1="-1540.748" x2="-1549.623" y1="587.318" y2="583.04" xlink:href="#b" gradientUnits="userSpaceOnUse" gradientTransform="matrix(.293 .543 .544 -.292 137.91 1044.439)"/><linearGradient id="s" x1="-1540.149" x2="-1542.628" y1="587.601" y2="586.307" xlink:href="#a" gradientUnits="userSpaceOnUse" gradientTransform="matrix(.293 .543 .544 -.292 137.91 1044.439)"/><radialGradient id="j" cx="318.479" cy="304.573" r="29.063" xlink:href="#f" gradientUnits="userSpaceOnUse" fx="318.479" fy="304.573"/><radialGradient id="i" cx="222.807" cy="518.711" r="17.408" xlink:href="#e" gradientUnits="userSpaceOnUse" gradientTransform="matrix(.999 .036 -.036 .999 115.327 -221.934)" fx="222.807" fy="518.711"/><radialGradient id="h" cx="320.509" cy="314.834" r="8.841" xlink:href="#d" gradientUnits="userSpaceOnUse" gradientTransform="matrix(.688 -.025 .025 .689 -196.15 -187.584)" fx="320.509" fy="314.834"/></defs><g><g stroke="#2e3436" stroke-width="1.488" transform="matrix(1.008 0 0 1.008 -295.655 -293.382)"><radialGradient cx="303.433" cy="311.923" r="15.663" gradientUnits="userSpaceOnUse" gradientTransform="matrix(-1.018 -.037 -.037 1.019 636.227 7.946)" fy="311.923" fx="303.433"><stop offset="0" stop-color="#fff"/><stop offset="1" stop-color="#8794A0"/></radialGradient><circle cx="319.963" cy="320.383" r="14.23" fill="url(#g)"/></g><g fill="none" stroke="#eeeeec" stroke-opacity=".753" stroke-width="1.083" transform="matrix(.923 0 0 .923 -268.393 -266.163)"><radialGradient cx="303.433" cy="311.923" r="15.663" gradientUnits="userSpaceOnUse" gradientTransform="matrix(-1.018 -.037 -.037 1.019 636.227 7.946)" fy="311.923" fx="303.433"><stop offset="0" stop-color="#fff"/><stop offset="1" stop-color="#8794A0"/></radialGradient><circle cx="319.963" cy="320.383" r="14.23"/></g><path fill="url(#h)" d="M31.03 19.87c-.04-1.2.7-3.88 1.1-4 .55-.18 1.12.03 2.1.35.92.3 7.2 4.76 6.78 5.67-.4.9-1.64 2.56-3.25 2.06-1.62-.5-6.7-3.58-6.72-4.1z"/><path fill="none" stroke="#662d06" stroke-width="1.4" d="M35.9 17.77c-1.28-1.03-2.73-6.56-3.3-6.33-1.38.58-.58 2.68-1.44 5.3-.36 1.07-2.82.4-1.53 2.04 1.3 1.6-1.2 1.72.78 2.47 6.3 2.37.96 2.13 3.27 3 2.58.96 1.84-.23 3.56.02.6.1 3.2 1.8 2.9.47-.17-.85.48-1.46 1.68-2.3.68-.48 2.4-.13 2.73-1.15.15-.48-7.33-2.5-8.62-3.53zm-2.98 2.68c-.37.17-1.34-.67-1.47-1.13-.3-1.1 1.44-3.34 2.08-2.7.64.64 1.52 1.7 1.2 2.13-.14.16-1.08 1.36-1.8 1.7zm3.97.17c-.13.2-.7 2-.96 2.03-.44.06-1.7-.86-1.47-1.12.34-.38.96-1.98 1.44-2.2.7-.33 1.28.8 1 1.3zm1.52 2.9c-1.56-.44-1.16-2.5-.55-2.65.45-.1 1.47.37 1.56.7.2.83-.9 1.98-1 1.94z"/><g><g transform="matrix(.688 -.025 .025 .689 -196.15 -187.584)"><radialGradient cx="222.807" cy="518.711" r="17.408" gradientUnits="userSpaceOnUse" gradientTransform="matrix(.999 .036 -.036 .999 115.327 -221.934)" fy="518.711" fx="222.807"><stop offset="0" stop-color="#fff"/><stop offset=".146" stop-color="#FAE6C8"/><stop offset=".657" stop-color="#F17912"/><stop offset=".904" stop-color="#FF710E"/><stop offset="1" stop-color="#CE5B0B"/></radialGradient><path fill="url(#i)" d="M326.16 309.6c-1.8-1.57-3.63-9.66-4.46-9.35-2.04.77-1 3.85-2.38 7.6-.58 1.54-4.1.44-2.33 2.88 1.8 2.4-1.86 2.43 1 3.62 9 3.76 1.26 3.14 4.57 4.5 3.7 1.54 2.68-.22 5.16.23.9.16 4.55 2.78 4.2.83-.2-1.23.76-2.07 2.55-3.23 1-.66 3.48-.06 4-1.53.25-.68-10.5-3.98-12.32-5.54zm-4.48 3.73c-.54.22-1.9-1.04-2.07-1.72-.37-1.6 2.27-4.75 3.16-3.8.9.97 2.13 2.56 1.62 3.16-.2.23-1.62 1.9-2.7 2.37zm5.76.45c-.2.3-1.1 2.86-1.5 2.9-.64.05-2.42-1.35-2.07-1.7.52-.54 1.5-2.84 2.2-3.14 1-.43 1.8 1.25 1.37 1.94zm2.06 4.27c-2.24-.7-1.55-3.7-.65-3.87.65-.12 2.1.62 2.22 1.1.26 1.22-1.4 2.82-1.57 2.77z"/></g></g><g transform="matrix(.688 -.025 .025 .689 -196.15 -187.584)"><radialGradient cx="318.479" cy="304.573" r="29.063" gradientUnits="userSpaceOnUse" fy="304.573" fx="318.479"><stop offset=".006" stop-color="#FAAF3D"/><stop offset=".371" stop-color="#FAE6C8"/><stop offset=".657" stop-color="#F17912"/><stop offset="1" stop-color="#CE5B0B"/></radialGradient><path fill="url(#j)" d="M321.42 300.43c-.9.53-1.06 1.57-1.24 3.24-.13 1.17-.3 2.63-.85 4.18-.23.6-.82.78-1.64 1-.7.16-1 .27-1.15.55l-.06.1v.14c0 .28.15.63.5 1.1.34.46.5.88.5 1.25 0 .42-.2.73-.4.98.07-.08-.23.5-.23.5 0 .42.33.55.75.72l.37.15c3.02 1.26 4.47 2.15 4.54 2.8 0 .1-.1.22-.44.48-.17.1-.42.3-.35.63.06.33.36.44.65.54l.18.06c2.02.84 2.6.7 3.3.4.38-.17.83-.37 1.85-.18.26.05.77.3 1.32.6 2.38 1.22 2.64.96 2.8.8l.18-.18-.02-.3c0-.05-.05-.07-.06-.1 0-.04-.03-.32-.03-.32 0-1.15 1.17-2 2.58-2.92.38-.25.98-.3 1.6-.4.9-.1 1.7-.2 2.14-.7l.4-.45-.5-.3c-.67-.42-2.63-1.2-4.75-2-2.94-1.12-6.27-2.4-7.2-3.2-.98-.84-1.98-3.62-2.78-5.85-.5-1.4-.98-2.68-1.3-3.17l-.27-.4-.4.25zm.15 1.34c.3.7.65 1.7.88 2.32.93 2.57 1.9 5.24 3.06 6.25 1.08.92 4.2 2.12 7.5 3.4 1.06.4 2.6.98 3.63 1.44-.2.02-.43.06-.65.08-.72.1-1.47.17-2.05.55-1.54 1-2.9 2.04-3 3.6-.45-.2-1.06-.46-1.42-.64-.75-.4-1.2-.63-1.6-.7-1.32-.24-1.96.04-2.43.25-.38.17-.75.28-2.3-.33.2-.23.38-.5.38-.82v-.18c-.13-.96-1-1.85-5.17-3.6 0 0-.2-.07-.3-.1.2-.32.44-.73.44-1.33 0-.6-.25-1.23-.73-1.86 0 0-.08-.13-.15-.24.14-.04.27-.1.27-.1.77-.18 1.92-.47 2.34-1.6.62-1.67.78-3.2.9-4.43.12-.98.23-1.6.4-2z"/></g><path fill="url(#k)" d="M45.53 20.36c-1.33 1.83-4.56 1.54-8.84-1.56-3.78-2.73-5.18-5.9-3.94-7.62.05-.07.12-.13.2-.16l14.1-6.5c.16-.08.28 0 .26.2l-1.7 15.4c-.02.1-.05.17-.1.24z"/><path fill="url(#l)" d="M47.3 4.56l-14 10.78c-.57-.64-1.27-3.87-.42-4.34L47.2 4.5l.1.06z"/><path fill="url(#m)" d="M47.37 4.57L33.57 15.2c-1.38-1.9-1.3-3.76-.6-4.18l14.3-6.5.1.05z"/><path fill="none" stroke="#192333" stroke-width="1.5" d="M45.68 19.76c-.04.34-.15.64-.33.9-1.18 1.64-4.95.83-8.46-1.7-3.53-2.56-5.47-5.9-4.3-7.52.23-.3.54-.53.93-.67l13.8-6.25-1.65 15.24z"/><path fill="url(#n)" d="M16.62 29.93c-1.05-.17-3.52.18-3.68.5-.22.47-.1 1 .07 1.9.18.87 3.38 6.95 4.24 6.7.85-.25 2.47-1.16 2.22-2.65-.25-1.5-2.4-6.37-2.84-6.45z"/><path fill="none" stroke="#662d06" stroke-width="1.4" d="M14.2 34.02c-.78-1.27-5.5-3.2-5.24-3.68.68-1.16 2.45-.2 4.87-.66 1-.2.7-2.45 2-1.12 1.27 1.34 1.66-.87 2.1.98 1.35 5.87 1.78 1.1 2.27 3.25.55 2.4-.42 1.6-.4 3.15 0 .56 1.22 3.05.07 2.64-.73-.27-1.35.23-2.24 1.2-.5.54-.4 2.1-1.34 2.28-.44.08-1.35-6.8-2.1-8.06zm2.72-2.34c.2-.3-.44-1.27-.83-1.44-.94-.4-3.14.9-2.65 1.53.5.64 1.33 1.55 1.75 1.3.16-.1 1.33-.8 1.72-1.4zm-.32 3.54c.2-.08 1.85-.37 1.9-.6.12-.4-.55-1.62-.8-1.44-.38.26-1.88.62-2.14 1.02-.36.56.58 1.22 1.04 1.02zm2.4 1.7c-.2-1.44-2.1-1.33-2.3-.8-.14.38.16 1.35.44 1.46.7.3 1.86-.55 1.85-.66z"/><g><g transform="matrix(-.103 .608 .609 .103 -140.628 -196.11)"><radialGradient cx="222.807" cy="518.711" r="17.408" gradientUnits="userSpaceOnUse" gradientTransform="matrix(.999 .036 -.036 .999 115.327 -221.934)" fy="518.711" fx="222.807"><stop offset="0" stop-color="#fff"/><stop offset=".146" stop-color="#FAE6C8"/><stop offset=".657" stop-color="#F17912"/><stop offset=".904" stop-color="#FF710E"/><stop offset="1" stop-color="#CE5B0B"/></radialGradient><path fill="url(#o)" d="M326.16 309.6c-1.8-1.57-3.63-9.66-4.46-9.35-2.04.77-1 3.85-2.38 7.6-.58 1.54-4.1.44-2.33 2.88 1.8 2.4-1.86 2.43 1 3.62 9 3.76 1.26 3.14 4.57 4.5 3.7 1.54 2.68-.22 5.16.23.9.16 4.55 2.78 4.2.83-.2-1.23.76-2.07 2.55-3.23 1-.66 3.48-.06 4-1.53.25-.68-10.5-3.98-12.32-5.54zm-4.48 3.73c-.54.22-1.9-1.04-2.07-1.72-.37-1.6 2.27-4.75 3.16-3.8.9.97 2.13 2.56 1.62 3.16-.2.23-1.62 1.9-2.7 2.37zm5.76.45c-.2.3-1.1 2.86-1.5 2.9-.64.05-2.42-1.35-2.07-1.7.52-.54 1.5-2.84 2.2-3.14 1-.43 1.8 1.25 1.37 1.94zm2.06 4.27c-2.24-.7-1.55-3.7-.65-3.87.65-.12 2.1.62 2.22 1.1.26 1.22-1.4 2.82-1.57 2.77z"/></g></g><g transform="matrix(-.103 .608 .609 .103 -140.628 -196.11)"><radialGradient cx="318.479" cy="304.573" r="29.063" gradientUnits="userSpaceOnUse" fy="304.573" fx="318.479"><stop offset=".006" stop-color="#FAAF3D"/><stop offset=".371" stop-color="#FAE6C8"/><stop offset=".657" stop-color="#F17912"/><stop offset="1" stop-color="#CE5B0B"/></radialGradient><path fill="url(#p)" d="M321.42 300.43c-.9.53-1.06 1.57-1.24 3.24-.13 1.17-.3 2.63-.85 4.18-.23.6-.82.78-1.64 1-.7.16-1 .27-1.15.55l-.06.1v.14c0 .28.15.63.5 1.1.34.46.5.88.5 1.25 0 .42-.2.73-.4.98.07-.08-.23.5-.23.5 0 .42.33.55.75.72l.37.15c3.02 1.26 4.47 2.15 4.54 2.8 0 .1-.1.22-.44.48-.17.1-.42.3-.35.63.06.33.36.44.65.54l.18.06c2.02.84 2.6.7 3.3.4.38-.17.83-.37 1.85-.18.26.05.77.3 1.32.6 2.38 1.22 2.64.96 2.8.8l.18-.18-.02-.3c0-.05-.05-.07-.06-.1 0-.04-.03-.32-.03-.32 0-1.15 1.17-2 2.58-2.92.38-.25.98-.3 1.6-.4.9-.1 1.7-.2 2.14-.7l.4-.45-.5-.3c-.67-.42-2.63-1.2-4.75-2-2.94-1.12-6.27-2.4-7.2-3.2-.98-.84-1.98-3.62-2.78-5.85-.5-1.4-.98-2.68-1.3-3.17l-.27-.4-.4.25zm.15 1.34c.3.7.65 1.7.88 2.32.93 2.57 1.9 5.24 3.06 6.25 1.08.92 4.2 2.12 7.5 3.4 1.06.4 2.6.98 3.63 1.44-.2.02-.43.06-.65.08-.72.1-1.47.17-2.05.55-1.54 1-2.9 2.04-3 3.6-.45-.2-1.06-.46-1.42-.64-.75-.4-1.2-.63-1.6-.7-1.32-.24-1.96.04-2.43.25-.38.17-.75.28-2.3-.33.2-.23.38-.5.38-.82v-.18c-.13-.96-1-1.85-5.17-3.6 0 0-.2-.07-.3-.1.2-.32.44-.73.44-1.33 0-.6-.25-1.23-.73-1.86 0 0-.08-.13-.15-.24.14-.04.27-.1.27-.1.77-.18 1.92-.47 2.34-1.6.62-1.67.78-3.2.9-4.43.12-.98.23-1.6.4-2z"/></g><path fill="url(#q)" d="M15.35 42.85c1.78-.95 1.9-3.86-.34-8.02-1.96-3.67-4.63-5.28-6.3-4.4-.06.05-.12.1-.16.17L1.1 42.35c-.08.14 0 .25.16.26l13.88.3c.06 0 .14 0 .2-.05z"/><path fill="url(#r)" d="M1.12 42.57L12.34 31.4c-.5-.56-3.28-1.57-3.8-.87L1.08 42.48l.04.1z"/><path fill="url(#s)" d="M1.12 42.63l11.06-11c-1.52-1.45-3.18-1.6-3.64-1.03L1.08 42.55l.04.08z"/><path fill="none" stroke="#192333" stroke-width="1.5" d="M14.8 42.92c.3 0 .6-.05.84-.2 1.6-.84 1.32-4.28-.52-7.7-1.85-3.42-4.57-5.53-6.16-4.68-.3.16-.53.4-.7.74l-7.18 11.5 13.72.34z"/><path fill="none" stroke="#eeeeec" stroke-opacity=".539" stroke-width="3.5" stroke-dashoffset=".4" d="M17.1 35.18c3.17-.34 7.5-3.22 9.65-7.2"/><path fill="none" stroke="#a40000" stroke-width="2" d="M17.66 34.73c3.18-.34 7.5-3.23 9.66-7.2" stroke-dasharray="2, 2"/><path fill="none" stroke="#eeeeec" stroke-opacity=".539" stroke-width="3.5" stroke-dashoffset=".4" d="M35.35 21.4c-.92 3.08-4.54 6.8-8.85 8.18"/><path fill="none" stroke="#a40000" stroke-width="2" d="M35.14 21.7c-.92 3.06-4.55 6.78-8.85 8.17" stroke-dasharray="2, 2"/><path fill="#ef2929" fill-rule="evenodd" stroke="#fff" d="M28.5 24.05l-1.6 2.4-1.73-1.8L23 26.7l2.17 2.35-2.56 3.87 2.5 1.66 2.2-3.3 2.25 2.4 2.2-2.07-2.76-2.9 2-3-2.5-1.65z"/></g></svg>