<svg xmlns="http://www.w3.org/2000/svg" width="48" height="48" xmlns:sodipodi="http://inkscape.sourceforge.net/DTD/sodipodi-0.dtd" sodipodi:version=".32" version="1" sodipodi:docbase="E:\dev_clean\src\houdini\support\icons\obj" sodipodi:docname="camera.svg"><defs><linearGradient id="N" x1="116.365" x2="117.487" y1="315.413" y2="317.743" gradientUnits="userSpaceOnUse"><stop offset="0"/><stop offset=".163" stop-color="#070707"/><stop offset=".302" stop-color="#111"/><stop offset=".432" stop-color="#1D1D1D"/><stop offset=".557" stop-color="#2F3030"/><stop offset=".678" stop-color="#444"/><stop offset=".797" stop-color="#565859"/><stop offset=".91" stop-color="#616569"/><stop offset="1" stop-color="#626B73"/></linearGradient><linearGradient id="M" x1="115.039" x2="116.658" y1="317.404" y2="314.497" gradientUnits="userSpaceOnUse"><stop offset="0" stop-color="#6D7780"/><stop offset=".138" stop-color="#717B84"/><stop offset=".274" stop-color="#7E878E"/><stop offset=".408" stop-color="#939CA2"/><stop offset=".542" stop-color="#B2BDC1"/><stop offset=".646" stop-color="#D3E0E4"/><stop offset=".819" stop-color="#A3AEB4"/><stop offset="1" stop-color="#7A858F"/></linearGradient><linearGradient id="L" x1="117.931" x2="112.091" y1="301.457" y2="302.191" gradientUnits="userSpaceOnUse"><stop offset="0" stop-color="#B6C1CA"/><stop offset=".295" stop-color="#B9C4CC"/><stop offset=".547" stop-color="#C5CED5"/><stop offset=".783" stop-color="#D7DEE2"/><stop offset="1" stop-color="#F0F5F5"/></linearGradient><linearGradient id="K" x1="107.249" x2="107.311" y1="310.911" y2="304.16" gradientUnits="userSpaceOnUse"><stop offset="0" stop-color="#A5AEB8"/><stop offset=".424" stop-color="#A1AAB5"/><stop offset=".786" stop-color="#96A1AB"/><stop offset="1" stop-color="#8B97A3"/></linearGradient><linearGradient id="J" x1="115.32" x2="109.787" y1="309.503" y2="302.446" gradientUnits="userSpaceOnUse"><stop offset="0" stop-color="#ACB5BE"/><stop offset=".479" stop-color="#848B93"/><stop offset="1" stop-color="#596169"/></linearGradient><linearGradient id="I" x1="117.953" x2="115.538" y1="298" y2="295.644" gradientUnits="userSpaceOnUse"><stop offset="0" stop-color="#121414"/><stop offset="1" stop-color="#2B3033"/></linearGradient><linearGradient id="H" x1="102.519" x2="99.309" y1="307.758" y2="303.465" gradientUnits="userSpaceOnUse"><stop offset="0" stop-color="#121414"/><stop offset="1" stop-color="#2B3033"/></linearGradient><linearGradient id="G" x1="100.924" x2="98.381" y1="302.737" y2="306.53" gradientUnits="userSpaceOnUse"><stop offset=".006" stop-color="#2C2F33"/><stop offset=".506" stop-color="#5A6166"/><stop offset=".638" stop-color="#585E63"/><stop offset=".751" stop-color="#50565A"/><stop offset=".856" stop-color="#43484C"/><stop offset=".957" stop-color="#34373B"/><stop offset="1" stop-color="#2C2F33"/></linearGradient><linearGradient id="F" x1="104.598" x2="105.609" y1="313.838" y2="320.968" gradientUnits="userSpaceOnUse"><stop offset="0" stop-color="#CFDDE2"/><stop offset=".152" stop-color="#CBD8DD"/><stop offset=".281" stop-color="#BCC9CD"/><stop offset=".402" stop-color="#A7B1B5"/><stop offset=".519" stop-color="#899297"/><stop offset=".63" stop-color="#677077"/><stop offset=".646" stop-color="#626B73"/><stop offset="1" stop-color="#121212"/></linearGradient><linearGradient id="E" x1="105.425" x2="104.552" y1="320.149" y2="314.416" gradientUnits="userSpaceOnUse"><stop offset="0"/><stop offset=".123" stop-color="#070707"/><stop offset=".225" stop-color="#111"/><stop offset=".319" stop-color="#1C1C1C"/><stop offset=".409" stop-color="#2F2F2F"/><stop offset=".496" stop-color="#434444"/><stop offset=".58" stop-color="#555757"/><stop offset=".661" stop-color="#606467"/><stop offset=".73" stop-color="#626B73"/><stop offset=".751" stop-color="#596167"/><stop offset=".838" stop-color="#383B3D"/><stop offset=".912" stop-color="#232323"/><stop offset=".968" stop-color="#171616"/><stop offset="1" stop-color="#121212"/></linearGradient><linearGradient id="D" x1="108.432" x2="107.471" y1="318.345" y2="314.445" gradientUnits="userSpaceOnUse"><stop offset="0"/><stop offset=".123" stop-color="#070707"/><stop offset=".225" stop-color="#111"/><stop offset=".319" stop-color="#1C1C1C"/><stop offset=".409" stop-color="#2F2F2F"/><stop offset=".496" stop-color="#434444"/><stop offset=".58" stop-color="#555757"/><stop offset=".661" stop-color="#606467"/><stop offset=".73" stop-color="#626B73"/><stop offset=".751" stop-color="#596167"/><stop offset=".838" stop-color="#383B3D"/><stop offset=".912" stop-color="#232323"/><stop offset=".968" stop-color="#171616"/><stop offset="1" stop-color="#121212"/></linearGradient><linearGradient id="C" x1="101.549" x2="104.147" y1="318.713" y2="316.779" gradientUnits="userSpaceOnUse"><stop offset="0" stop-color="#87959F"/><stop offset=".071" stop-color="#939EA6"/><stop offset=".489" stop-color="#D6D5D5"/><stop offset=".573" stop-color="#CECECE"/><stop offset=".673" stop-color="#B9B9B9"/><stop offset=".781" stop-color="#9A9C9C"/><stop offset=".894" stop-color="#737779"/><stop offset="1" stop-color="#4D5359"/></linearGradient><linearGradient id="B" x1="110.47" x2="111.507" y1="323.062" y2="325.202" gradientUnits="userSpaceOnUse"><stop offset="0" stop-color="#161617"/><stop offset=".208" stop-color="#171718"/><stop offset=".385" stop-color="#1B1C1D"/><stop offset=".551" stop-color="#232425"/><stop offset=".711" stop-color="#2E2F32"/><stop offset=".864" stop-color="#3E4145"/><stop offset="1" stop-color="#52585E"/></linearGradient><linearGradient id="A" x1="115.234" x2="116.434" y1="322.629" y2="325.482" gradientUnits="userSpaceOnUse"><stop offset="0" stop-color="#1C1C1F"/><stop offset=".208" stop-color="#1E1E21"/><stop offset=".385" stop-color="#222326"/><stop offset=".551" stop-color="#2B2C30"/><stop offset=".711" stop-color="#383A3E"/><stop offset=".864" stop-color="#4B4F55"/><stop offset="1" stop-color="#626B73"/></linearGradient><linearGradient id="z" x1="111.698" x2="111.512" y1="321.808" y2="313.356" gradientUnits="userSpaceOnUse"><stop offset="0" stop-color="#616973"/><stop offset=".417" stop-color="#5E666F"/><stop offset=".772" stop-color="#565D64"/><stop offset="1" stop-color="#4D5359"/></linearGradient><linearGradient id="y" x1="112.503" x2="119.393" y1="312.623" y2="311.58" gradientUnits="userSpaceOnUse"><stop offset="0" stop-color="#6C7680"/><stop offset=".355" stop-color="#69727C"/><stop offset=".659" stop-color="#5F6870"/><stop offset=".942" stop-color="#51575E"/><stop offset="1" stop-color="#4D5359"/></linearGradient><linearGradient id="x" x1="118.09" x2="114.701" y1="320.286" y2="313.285" gradientUnits="userSpaceOnUse"><stop offset="0" stop-color="#6C7680"/><stop offset=".355" stop-color="#69727C"/><stop offset=".659" stop-color="#5F6870"/><stop offset=".942" stop-color="#51575E"/><stop offset="1" stop-color="#4D5359"/></linearGradient><linearGradient id="w" x1="115.751" x2="117.563" y1="299.183" y2="295.308" gradientUnits="userSpaceOnUse"><stop offset=".006" stop-color="#2C2F33"/><stop offset=".506" stop-color="#5A6166"/><stop offset=".638" stop-color="#585E63"/><stop offset=".751" stop-color="#50565A"/><stop offset=".856" stop-color="#43484C"/><stop offset=".957" stop-color="#34373B"/><stop offset="1" stop-color="#2C2F33"/></linearGradient><linearGradient id="v" x1="115.693" x2="111.95" y1="296.266" y2="290.414" gradientUnits="userSpaceOnUse"><stop offset="0" stop-color="#161719"/><stop offset="1" stop-color="#B2B2B2"/></linearGradient><linearGradient id="u" x1="110.121" x2="121.872" y1="292.456" y2="301.456" gradientUnits="userSpaceOnUse"><stop offset=".006" stop-color="#212326"/><stop offset="1" stop-color="#596669"/></linearGradient><linearGradient id="t" x1="99.238" x2="94.868" y1="304.31" y2="297.577" gradientUnits="userSpaceOnUse"><stop offset="0" stop-color="#161719"/><stop offset="1" stop-color="#ccc"/></linearGradient><linearGradient id="s" x1="95.831" x2="104.749" y1="300.837" y2="310.642" gradientUnits="userSpaceOnUse"><stop offset=".006" stop-color="#212326"/><stop offset="1" stop-color="#596669"/></linearGradient><linearGradient id="r" x1="99.486" x2="90.171" y1="295.642" y2="308.361" gradientUnits="userSpaceOnUse"><stop offset="0" stop-color="#141617"/><stop offset=".483" stop-color="#566063"/><stop offset="1" stop-color="#232729"/></linearGradient><linearGradient id="q" x1="113.933" x2="109.224" y1="286.865" y2="299.691" gradientUnits="userSpaceOnUse"><stop offset="0" stop-color="#141617"/><stop offset=".483" stop-color="#566063"/><stop offset="1" stop-color="#232729"/></linearGradient><radialGradient id="p" cx="109.941" cy="312.073" r="9.655" fx="109.941" fy="312.073" gradientUnits="userSpaceOnUse"><stop offset="0" stop-color="#828E99"/><stop offset="1" stop-color="#373C40"/></radialGradient><radialGradient id="o" cx="109.94" cy="312.074" r="9.655" fx="109.94" fy="312.074" gradientUnits="userSpaceOnUse"><stop offset="0" stop-color="#828E99"/><stop offset="1" stop-color="#373C40"/></radialGradient><linearGradient id="n" x1="109.501" x2="124.153" y1="309.648" y2="309.648" gradientUnits="userSpaceOnUse"><stop offset="0" stop-color="#121314"/><stop offset=".19" stop-color="#131415"/><stop offset=".352" stop-color="#17191A"/><stop offset=".504" stop-color="#1F2022"/><stop offset=".65" stop-color="#2A2C2E"/><stop offset=".791" stop-color="#3A3E42"/><stop offset=".927" stop-color="#52595F"/><stop offset="1" stop-color="#626B73"/></linearGradient><linearGradient id="m" x1="106.022" x2="108.701" y1="312.679" y2="325.27" gradientUnits="userSpaceOnUse"><stop offset="0" stop-color="#161617"/><stop offset=".195" stop-color="#171718"/><stop offset=".361" stop-color="#1C1C1D"/><stop offset=".516" stop-color="#242426"/><stop offset=".665" stop-color="#2F3033"/><stop offset=".81" stop-color="#404447"/><stop offset=".95" stop-color="#585E65"/><stop offset="1" stop-color="#626B73"/></linearGradient><linearGradient id="l" x1="113.713" x2="122.957" y1="315.036" y2="322.672" gradientUnits="userSpaceOnUse"><stop offset="0" stop-color="#11100F"/><stop offset=".171" stop-color="#121110"/><stop offset=".316" stop-color="#181817"/><stop offset=".453" stop-color="#242322"/><stop offset=".584" stop-color="#323130"/><stop offset=".711" stop-color="#414141"/><stop offset=".835" stop-color="#515356"/><stop offset=".954" stop-color="#5E646A"/><stop offset="1" stop-color="#626B73"/></linearGradient><linearGradient id="k" x1="123.964" x2="123.495" y1="312.841" y2="310.309" gradientUnits="userSpaceOnUse"><stop offset="0" stop-color="#77828C"/><stop offset=".143" stop-color="#7B868F"/><stop offset=".285" stop-color="#87929A"/><stop offset=".425" stop-color="#9CA7AD"/><stop offset=".564" stop-color="#BBC7CC"/><stop offset=".646" stop-color="#D3E0E4"/><stop offset=".819" stop-color="#A3AEB4"/><stop offset="1" stop-color="#7A858F"/></linearGradient><linearGradient id="j" x1="125.786" x2="125.147" y1="313.03" y2="309.227" gradientUnits="userSpaceOnUse"><stop offset="0" stop-color="#6D7780"/><stop offset=".138" stop-color="#717B84"/><stop offset=".274" stop-color="#7E878E"/><stop offset=".408" stop-color="#939CA2"/><stop offset=".542" stop-color="#B2BDC1"/><stop offset=".646" stop-color="#D3E0E4"/><stop offset=".819" stop-color="#A3AEB4"/><stop offset="1" stop-color="#7A858F"/></linearGradient><linearGradient id="i" x1="127.999" x2="127.35" y1="312.032" y2="309.41" gradientUnits="userSpaceOnUse"><stop offset="0"/><stop offset=".105" stop-color="#070707"/><stop offset=".195" stop-color="#111"/><stop offset=".279" stop-color="#1D1D1D"/><stop offset=".36" stop-color="#2F3030"/><stop offset=".438" stop-color="#444"/><stop offset=".515" stop-color="#565859"/><stop offset=".588" stop-color="#616569"/><stop offset=".646" stop-color="#626B73"/><stop offset="1" stop-color="#121212"/></linearGradient><linearGradient id="h" x1="123.52" x2="124.317" y1="309.715" y2="313.622" gradientUnits="userSpaceOnUse"><stop offset="0" stop-color="#6D7780"/><stop offset=".63" stop-color="#737D87"/><stop offset="1" stop-color="#7A858F"/></linearGradient><linearGradient id="g" x1="124.724" x2="123.134" y1="313.892" y2="309.237" gradientUnits="userSpaceOnUse"><stop offset=".006" stop-color="#3D4247"/><stop offset=".596" stop-color="#1E2024"/><stop offset="1" stop-color="#121314"/></linearGradient><linearGradient id="f" x1="121.422" x2="122.305" y1="306.692" y2="309.137" gradientUnits="userSpaceOnUse"><stop offset=".006" stop-color="#3D4247"/><stop offset=".596" stop-color="#1E2024"/><stop offset="1" stop-color="#121314"/></linearGradient><linearGradient id="e" x1="123.949" x2="123.228" y1="318.041" y2="314.586" gradientUnits="userSpaceOnUse"><stop offset="0" stop-color="#77828C"/><stop offset=".143" stop-color="#7B868F"/><stop offset=".285" stop-color="#87929A"/><stop offset=".425" stop-color="#9CA7AD"/><stop offset=".564" stop-color="#BBC7CC"/><stop offset=".646" stop-color="#D3E0E4"/><stop offset=".819" stop-color="#A3AEB4"/><stop offset="1" stop-color="#7A858F"/></linearGradient><linearGradient id="d" x1="123.072" x2="125.059" y1="314.428" y2="319.232" gradientUnits="userSpaceOnUse"><stop offset="0" stop-color="#6D7780"/><stop offset=".63" stop-color="#737D87"/><stop offset="1" stop-color="#7A858F"/></linearGradient><linearGradient id="c" x1="126.741" x2="125.667" y1="318.211" y2="313.282" gradientUnits="userSpaceOnUse"><stop offset="0" stop-color="#6D7780"/><stop offset=".138" stop-color="#717B84"/><stop offset=".274" stop-color="#7E878E"/><stop offset=".408" stop-color="#939CA2"/><stop offset=".542" stop-color="#B2BDC1"/><stop offset=".646" stop-color="#D3E0E4"/><stop offset=".819" stop-color="#A3AEB4"/><stop offset="1" stop-color="#7A858F"/></linearGradient><linearGradient id="b" x1="129.591" x2="128.731" y1="316.514" y2="313.296" gradientUnits="userSpaceOnUse"><stop offset="0"/><stop offset=".105" stop-color="#070707"/><stop offset=".195" stop-color="#111"/><stop offset=".279" stop-color="#1D1D1D"/><stop offset=".36" stop-color="#2F3030"/><stop offset=".438" stop-color="#444"/><stop offset=".515" stop-color="#565859"/><stop offset=".588" stop-color="#616569"/><stop offset=".646" stop-color="#626B73"/><stop offset="1" stop-color="#121212"/></linearGradient><linearGradient id="a" x1="127.034" x2="129.194" y1="304.143" y2="313.917" gradientUnits="userSpaceOnUse"><stop offset=".006" stop-color="#3D4247"/><stop offset=".202" stop-color="#121314"/><stop offset=".27" stop-color="#131415"/><stop offset=".298" stop-color="#151718"/><stop offset=".32" stop-color="#1A1C1D"/><stop offset=".338" stop-color="#222426"/><stop offset=".353" stop-color="#2D3032"/><stop offset=".367" stop-color="#3C4044"/><stop offset=".379" stop-color="#50575C"/><stop offset=".388" stop-color="#626B73"/><stop offset=".413" stop-color="#4F565C"/><stop offset=".447" stop-color="#3E4248"/><stop offset=".485" stop-color="#313439"/><stop offset=".531" stop-color="#282B2F"/><stop offset=".586" stop-color="#222529"/><stop offset=".665" stop-color="#1F2125"/><stop offset=".882" stop-color="#1E2024"/><stop offset="1" stop-color="#121314"/></linearGradient></defs><sodipodi:namedview pagecolor="#ffffff" bordercolor="#666666" borderopacity="1"/><g><g transform="matrix(1.014 0 0 1.014 -88.778 -287)"><path fill="none" stroke="#000" stroke-width="1.479" d="M122.78 318.42l-.08 2.26-3.1.95v1.7l-7.82 2.5-1.44-1.32-.77.24-4.6-4.4-1.4.72c-.4.3-.96-.1-1.44-1.15-.66-1.42-.93-3.5-.6-4.65.15-.48.36-.72.62-.73l1.8-.04v-.5"/><path fill="none" stroke="#000" stroke-width="1.479" d="M125.17 313.1l7.53 1.83c.3.05.56-.14.6-.46l.6-7.08c.03-.37-.22-.75-.56-.86l-8.7-3c-.22-.06-.42-.02-.55.1l-2.66 3.15-3.17.58-1.4-.63"/><path fill="none" stroke="#000" stroke-width="1.479" d="M122.92 318.04c.48.72 1.1 1 1.62.85h-.02l3.15-.94c.27-.07.5-.26.7-.57.08-.16.14-.32.2-.5"/><path fill="none" stroke="#000" stroke-width="1.479" d="M127.7 313.52l1.1-.27c.33-.04.7.17 1.03.62.5.7.62 1.75.27 2.32-.12.2-.3.32-.5.35l-1.02.3"/><path fill="url(#a)" d="M125.17 313.1l7.53 1.83c.3.05.56-.14.6-.46l.6-7.08c.03-.37-.22-.75-.56-.86l-8.7-3c-.22-.06-.42-.02-.55.1l-2.66 3.15"/><path fill="url(#b)" d="M127.7 313.52l1.1-.27c.33-.04.7.17 1.03.62.5.7.62 1.75.27 2.32-.12.2-.3.32-.5.35l-1.02.3"/><path fill="url(#c)" d="M123.3 313.83c.5-.1 1.08.2 1.54.88.73 1.08.9 2.7.36 3.62-.17.3-.4.5-.65.57h-.03l3.15-.94c.27-.07.5-.26.7-.57.5-.9.35-2.46-.36-3.5-.43-.65-.98-.94-1.46-.85l-3.2.77h-.03z"/><path fill="url(#d)" stroke="#d8e4e8" stroke-width=".296" d="M125.2 318.32c-.53.92-1.55.8-2.28-.28-.74-1.07-.9-2.7-.37-3.6.53-.94 1.56-.8 2.3.26.72 1.08.9 2.7.35 3.62z"/><path fill="url(#e)" d="M122.9 314.77l.5-.1h-.02c.33-.1.73.1 1.04.57.48.7.6 1.78.24 2.4-.13.22-.3.36-.5.4l.04-.02-1.42.4"/><path fill="url(#f)" d="M122.26 309.26l-4-1.88 3.17-.6 4.03 1.7-3.2.78z"/><path fill="url(#g)" d="M122.12 313.84l3.05-.73.3-4.63-3.2.8-.15 4.57z"/><circle cx="123.898" cy="311.57" r="1.7" fill="url(#h)" stroke="#d8e4e8" stroke-width=".296" sodipodi:cx="123.898" sodipodi:cy="311.57" sodipodi:rx="1.7" sodipodi:ry="1.7"/><path fill="url(#i)" d="M126.47 309.6l.95-.2c.26-.07.57.07.83.42.4.55.5 1.4.23 1.9-.1.17-.25.28-.4.32h-.02l-.97.18"/><path fill="url(#j)" d="M124.27 313.45l2.07-.48-.13.02c.3-.04.58-.22.76-.56.4-.74.26-1.92-.32-2.64-.3-.38-.66-.55-1-.54l-2.06.42h-.06c.37-.06.78.12 1.12.54.58.74.73 1.93.32 2.68-.15.28-.36.45-.6.52l-.1.03z"/><path fill="url(#k)" d="M123.06 310.4l.56-.14c.24-.06.54.06.78.36.4.5.5 1.33.22 1.84-.12.23-.3.35-.5.38l-1.15.3"/><path fill="url(#l)" d="M122.7 320.68l-13.13 4.06-.16-12.2 13.7-2.9-.4 11.04z"/><path fill="url(#m)" d="M109.57 324.74l-5.5-5.25-.2-10.44 5.54 3.5.17 12.18z"/><path fill="url(#n)" d="M123.1 309.65l-13.7 2.9-5.55-3.5 13.07-2.3 6.17 2.9z"/><g><radialGradient cx="109.94" cy="312.074" r="9.655" fx="109.94" fy="312.074" gradientUnits="userSpaceOnUse"><stop offset="0" stop-color="#828E99"/><stop offset="1" stop-color="#373C40"/></radialGradient><path fill="url(#o)" d="M103.72 309.27l5.64 3.55 13.78-2.93-.1-.5s-13.4 2.85-13.58 2.9c-.17-.1-5.47-3.45-5.47-3.45l-.28.42z"/></g><g><radialGradient cx="109.941" cy="312.073" r="9.655" fx="109.941" fy="312.073" gradientUnits="userSpaceOnUse"><stop offset="0" stop-color="#828E99"/><stop offset="1" stop-color="#373C40"/></radialGradient><path fill="url(#p)" d="M109.24 312.56h.5v12.18h-.5z"/></g><path fill="none" stroke="#73797f" stroke-width=".493" d="M103.8 309.07l13.07-2.32 6.17 2.9-.34 11.03"/><path fill="url(#q)" stroke="#000" stroke-width=".789" d="M117.53 288.06l-3.43-.26c-.1 0-.23 0-.35 0-.22 0-.45 0-.67.04-3.75.43-6.98 4.2-7.4 8.78-.04.64-.04 1.27.02 1.87.36 3.93 3.02 6.87 6.5 6.84"/><path fill="url(#r)" stroke="#000" stroke-width=".789" d="M105.42 296.9l-3.5-1.52c-1.02-.5-2.17-.8-3.4-.84-.28 0-.55 0-.82 0-4.6.26-8.6 4.08-9.1 8.9-.05.66-.05 1.32.02 1.96.2 2 1.07 3.78 2.38 5.12l1.95 1.9 12.47-15.53z"/><path fill="url(#s)" d="M109.28 305.58c-.55 5.37-5.22 9.56-10.44 9.37-4.52-.16-7.97-3.57-8.44-7.97-.07-.67-.07-1.37 0-2.08.52-5.06 4.72-9.08 9.57-9.35.3-.02.58-.02.86 0 5.22.18 9 4.67 8.45 10.03z" enable-background="new"/><path fill="url(#t)" d="M99.96 295.3c-5.06.28-9.27 4.4-9.8 9.58-.08.7-.08 1.43 0 2.13.5 4.6 4.14 8.04 8.68 8.2 5.33.2 10.12-4.1 10.7-9.6.27-2.72-.52-5.3-2.23-7.26-1.63-1.88-3.92-2.96-6.46-3.05h-.88zm-1.1 19.4c-4.3-.15-7.74-3.4-8.2-7.75-.08-.66-.08-1.34 0-2.02.5-4.94 4.5-8.86 9.33-9.13 0 0 .83 0 .83 0 2.4.07 4.56 1.1 6.1 2.87 1.62 1.86 2.36 4.3 2.1 6.9-.54 5.2-5.1 9.3-10.18 9.13z"/><g><linearGradient x1="110.121" x2="121.872" y1="292.456" y2="301.456" gradientUnits="userSpaceOnUse"><stop offset=".006" stop-color="#212326"/><stop offset="1" stop-color="#596669"/></linearGradient><path fill="url(#u)" d="M123.83 297.1c-.44 5.03-4.2 9.14-8.37 9.17-3.63.03-6.4-3.02-6.77-7.12-.07-.62-.07-1.27 0-1.94.4-4.74 3.77-8.67 7.66-9.1.23-.04.46-.06.7-.06 4.18-.03 7.2 4.02 6.77 9.06z" enable-background="new"/><linearGradient x1="115.693" x2="111.95" y1="296.266" y2="290.414" gradientUnits="userSpaceOnUse"><stop offset="0" stop-color="#161719"/><stop offset="1" stop-color="#B2B2B2"/></linearGradient><path fill="url(#v)" d="M117.05 288l-.7.04c-4.1.47-7.48 4.3-7.9 9.15v1.98c.4 4.28 3.34 7.37 7 7.34 4.3-.03 8.18-4.25 8.63-9.4.24-2.8-.56-5.42-2.2-7.2-1.28-1.38-3-1.94-4.83-1.93zm-8.1 11.13v-1.9c.4-4.55 3.66-8.46 7.44-8.9l.66-.04c1.68-.02 3.27.68 4.45 1.96 1.56 1.68 2.3 4.16 2.08 6.82-.43 4.9-4.07 8.9-8.12 8.94-3.4.02-6.15-2.87-6.52-6.9z"/></g><g><path fill="#f0efed" d="M100.53 301.87c-1.84.1-3.38 1.6-3.57 3.47v.78c.2 1.7 1.55 2.98 3.24 3.04 1.94.07 3.7-1.48 3.9-3.47 0-.14 0-.27 0-.4 0-.85-.28-1.66-.83-2.3-.6-.7-1.47-1.1-2.42-1.13h-.32zm.27 1.5c.52.02 1 .24 1.34.63.36.4.52.96.46 1.54-.12 1.2-1.17 2.17-2.34 2.13-.96-.04-1.7-.74-1.8-1.72 0 0 0-.46 0-.46.1-1.14 1.06-2.07 2.15-2.13 0 0 .2 0 .2 0zm3.3 2.32z"/></g><g><path fill="#f0efed" d="M116.8 294.2l-.24.03c-1.4.16-2.57 1.5-2.7 3.12 0 0 0 .66 0 .66.13 1.5 1.2 2.58 2.5 2.57 1.52 0 2.82-1.4 2.97-3.15.08-.93-.2-1.82-.76-2.44-.47-.5-1.1-.77-1.76-.77zm-.1 1.22s.12 0 .12 0c.42 0 .7.2.87.38.32.36.48.92.43 1.52-.1 1.1-.9 2.04-1.77 2.05-.7 0-1.23-.6-1.3-1.47 0 0 0-.44 0-.44.08-1.05.8-1.95 1.63-2.04z"/></g><path fill="url(#w)" d="M118.73 297.37c-.13 1.43-1.2 2.6-2.37 2.6-1.02 0-1.8-.86-1.9-2.02-.03-.17-.03-.35 0-.55.1-1.34 1.06-2.45 2.16-2.58.06 0 .13 0 .2 0 1.18-.02 2.04 1.13 1.9 2.55z"/><path fill="url(#x)" d="M120.6 319.8l-8.7 2.5v-8.98l9-2.02-.3 8.5z"/><path fill="none" stroke="#acb9c2" stroke-width=".493" d="M112.9 314.12c0 1.1 0 5.13 0 6.86 1.7-.5 5.74-1.66 6.73-1.95.03-1 .17-4.8.23-6.47-1.68.37-5.86 1.3-6.96 1.56z"/><path fill="url(#y)" d="M120.9 311.3l-9 2.02-.65-.43 9.06-2.06.6.46z"/><path fill="url(#z)" d="M111.9 313.32v9l-.6-.48-.05-8.95.65.42z"/><path fill="url(#A)" d="M119.6 323.33l-7.82 2.5v-1.77l7.83-2.43v1.7z"/><path fill="url(#B)" d="M111.78 325.83l-1.44-1.33 1.44-.44v1.77z"/><path fill="url(#C)" d="M103.92 320.42c-.33 1.15-1.13.92-1.8-.5-.65-1.44-.92-3.53-.58-4.67.33-1.15 1.13-.92 1.8.5.65 1.44.92 3.52.58 4.67z"/><path fill="url(#D)" d="M106.36 314.74l1.34-.28h-.02c.3-.08.67.17 1 .7.48.83.66 2.02.4 2.66-.08.2-.2.33-.33.38h.03l-1.4.5"/><g><linearGradient x1="105.425" x2="104.552" y1="320.149" y2="314.416" gradientUnits="userSpaceOnUse"><stop offset="0"/><stop offset=".123" stop-color="#070707"/><stop offset=".225" stop-color="#111"/><stop offset=".319" stop-color="#1C1C1C"/><stop offset=".409" stop-color="#2F2F2F"/><stop offset=".496" stop-color="#434444"/><stop offset=".58" stop-color="#555757"/><stop offset=".661" stop-color="#606467"/><stop offset=".73" stop-color="#626B73"/><stop offset=".751" stop-color="#596167"/><stop offset=".838" stop-color="#383B3D"/><stop offset=".912" stop-color="#232323"/><stop offset=".968" stop-color="#171616"/><stop offset="1" stop-color="#121212"/></linearGradient><path fill="url(#E)" d="M107.05 319.28l-3.6 1.84h-.02c.2-.06.38-.3.5-.7.33-1.15.06-3.23-.6-4.66-.37-.8-.8-1.24-1.15-1.24l3.66-.08c.27 0 .62.3.94.92.55 1.05.8 2.58.58 3.43-.07.24-.18.4-.3.48z"/><linearGradient x1="104.598" x2="105.609" y1="313.838" y2="320.968" gradientUnits="userSpaceOnUse"><stop offset="0" stop-color="#CFDDE2"/><stop offset=".152" stop-color="#CBD8DD"/><stop offset=".281" stop-color="#BCC9CD"/><stop offset=".402" stop-color="#A7B1B5"/><stop offset=".519" stop-color="#899297"/><stop offset=".63" stop-color="#677077"/><stop offset=".646" stop-color="#626B73"/><stop offset="1" stop-color="#121212"/></linearGradient><path fill="url(#F)" d="M105.82 314.2l-3.65.07v.5c.2 0 .57.3.94 1.1.46.97.72 2.27.72 3.33 0 .44-.04.83-.14 1.15-.08.3-.2.5-.34.54l.17.46c.03 0 .04-.03.06-.04 0 0 0 .02 0 .02l3.6-1.84c.2-.1.36-.33.44-.65.25-.9-.02-2.5-.6-3.6-.36-.7-.78-1.07-1.18-1.06zm.02.5c.1 0 .4.15.72.77.4.75.63 1.8.63 2.6 0 .24-.03.47-.08.65-.07.26-.16.32-.2.34 0 0-1.78.92-2.75 1.4.1-.35.15-.8.15-1.27 0-1.14-.27-2.5-.76-3.55-.18-.4-.38-.67-.58-.9.97-.02 2.86-.06 2.86-.06z"/></g><path fill="url(#G)" d="M102.28 303.04l-.55-.23-.08-.02c-.26-.1-.53-.15-.83-.16-.08 0-.17 0-.25 0-1.45.08-2.7 1.28-2.86 2.8 0 .2 0 .4 0 .6.08.64.35 1.2.76 1.62l.05.05.6.52 3.18-5.18z"/><path fill="url(#H)" d="M104.05 306c-.17 1.65-1.62 2.96-3.24 2.9-1.4-.05-2.46-1.1-2.6-2.47-.03-.2-.03-.43 0-.65.15-1.57 1.45-2.82 2.96-2.9.1 0 .18 0 .27 0 1.6.05 2.8 1.45 2.62 3.1z"/><path fill="url(#I)" d="M119.96 297.65c-.14 1.56-1.3 2.83-2.6 2.84-1.12 0-1.98-.95-2.1-2.22-.02-.2-.02-.4 0-.6.13-1.47 1.17-2.7 2.38-2.83.07 0 .15 0 .22 0 1.3-.02 2.23 1.23 2.1 2.8z"/><path fill="none" stroke="#000" stroke-width=".789" d="M114.1 287.8l3.53.26c4 .18 6.87 4.14 6.44 9.04-.44 5.04-4.2 9.14-8.36 9.18-.45 0-.9-.04-1.3-.13l-3.74-1"/><path fill="none" stroke="#000" stroke-width=".789" d="M109.33 304.6c0 .32-.02.65-.05.98-.55 5.36-5.22 9.56-10.44 9.37-2.34-.08-4.4-1.04-5.9-2.55l-2.14-2.1" enable-background="new"/><path fill="none" stroke="#000" stroke-width=".592" d="M100.77 294.92s1.52.56 1.86.7c.34.15 2.42 1.15 2.42 1.15 2.62 1.57 4.3 4.47 4.28 7.82"/><path fill="none" stroke="#121212" stroke-width="1.183" d="M118.08 309.27l.18-7.7-.68-.32-10.68 1.5.2 8.2"/><path fill="url(#J)" d="M118.08 309.27l-10.4 2.16-.23-8.4 10.8-1.47-.17 7.7z"/><path fill="url(#K)" d="M107.67 311.43l-.22-8.4-.55-.28.2 8.2.57.48z"/><path fill="url(#L)" d="M118.26 301.56l-10.8 1.47-.56-.28 10.68-1.5.68.3z"/><path fill="none" stroke="#565b66" stroke-width=".493" d="M107.47 318.68l1.3-.5"/><path fill="url(#M)" d="M116.1 318.08l-1.03-.68c-.33-.2-.55-.6-.55-1.1 0-.1 0-.22.03-.34.14-.83.8-1.52 1.48-1.6.04 0 .08 0 .12 0 .18 0 .34.04.48.1h-.03l1.06.53"/><path fill="#d6e0e4" d="M118.3 316.55c-.16.9-.9 1.66-1.67 1.67-.66 0-1.12-.55-1.12-1.3 0-.1.02-.23.04-.35.15-.87.82-1.58 1.54-1.67.04 0 .1 0 .13 0 .77 0 1.26.73 1.1 1.65z"/><path fill="url(#N)" d="M117.95 316.55c-.12.68-.68 1.24-1.25 1.25-.5 0-.83-.42-.84-.97 0-.1 0-.18.03-.27.1-.64.6-1.18 1.14-1.24.03 0 .06 0 .1 0 .56 0 .92.55.8 1.23z"/><path fill="none" stroke="#8b99a3" stroke-width=".247" d="M111.9 322.3v-8.98"/><path fill="none" stroke="#8b99a3" stroke-width=".247" d="M120.9 311.3l-9 2.02-.65-.43"/><path fill="none" stroke="#cdd8dd" d="M124.1 303.66l-2.54 2.98"/><path fill="none" stroke="#000" stroke-width=".592" d="M123.85 303.42l-2.66 3.13"/><path fill="none" stroke="#859099" stroke-width=".247" d="M129.6 316.55c.2-.03.38-.14.5-.36.35-.58.23-1.62-.27-2.33-.32-.45-.7-.66-1.03-.62l-1.02.25"/><path fill="none" stroke="#859099" stroke-width=".247" d="M127.42 309.4c.27-.07.58.07.84.42.4.54.5 1.4.23 1.88-.12.2-.26.3-.43.34"/><path fill="none" stroke="#cdd8de" stroke-width=".493" d="M106.34 314.74l1.34-.28"/><path fill="none" stroke="#52585e" stroke-width=".493" d="M111.78 324.06v1.77"/><path fill="none" stroke="#52585e" stroke-width=".493" d="M109.57 324.74l13.13-4.06"/><path fill="none" stroke="#a1aab2" stroke-width=".247" d="M133.7 306.8l-8.24 1.67-3.9-1.68"/></g></g></svg>