<svg xmlns="http://www.w3.org/2000/svg" width="48" height="48" xmlns:xlink="http://www.w3.org/1999/xlink"><defs><linearGradient id="a" x1="1183.881" x2="1181.998" y1="1698.929" y2="1699.999" gradientUnits="userSpaceOnUse" gradientTransform="translate(-1156.642 -1655.956)"><stop offset="0" stop-color="#F4B167"/><stop offset=".292" stop-color="#F3D196"/><stop offset=".376" stop-color="#F3D196"/><stop offset="1" stop-color="#EE8424"/></linearGradient><linearGradient id="b" x1="1177.703" x2="1175.606" y1="1701.176" y2="1701.476" gradientUnits="userSpaceOnUse" gradientTransform="translate(-1156.642 -1655.956)"><stop offset="0" stop-color="#F4B167"/><stop offset=".292" stop-color="#F3D196"/><stop offset=".376" stop-color="#F3D196"/><stop offset="1" stop-color="#EE8424"/></linearGradient><radialGradient id="c" cx="1190.832" cy="1670.785" r=".401" gradientUnits="userSpaceOnUse" fy="1670.785" fx="1190.832" gradientTransform="translate(-1156.642 -1655.956)"><stop offset="0" stop-color="#F3D196"/><stop offset=".129" stop-color="#F3D196"/><stop offset="1" stop-color="#EE8424"/></radialGradient><linearGradient id="d" x1="1192.739" x2="1192.124" y1="1671.622" y2="1672.399" gradientUnits="userSpaceOnUse" gradientTransform="translate(-1156.642 -1655.956)"><stop offset=".006" stop-color="#F3D196"/><stop offset=".517" stop-color="#F0943B"/></linearGradient><radialGradient id="e" cx="1187.812" cy="1667.972" r=".517" gradientUnits="userSpaceOnUse" fy="1667.972" fx="1187.812" gradientTransform="translate(-1156.642 -1655.956)"><stop offset="0" stop-color="#F3D196"/><stop offset=".129" stop-color="#F3D196"/><stop offset="1" stop-color="#EE8424"/></radialGradient><linearGradient id="f" x1="1189.773" x2="1189.064" y1="1668.994" y2="1670.081" gradientUnits="userSpaceOnUse" gradientTransform="translate(-1156.642 -1655.956)"><stop offset="0" stop-color="#F4B167"/><stop offset=".292" stop-color="#E3C18A"/><stop offset="1" stop-color="#EE8424"/></linearGradient><linearGradient id="g" x1="1186.393" x2="1185.306" y1="1665.963" y2="1667.476" gradientUnits="userSpaceOnUse" gradientTransform="translate(-1156.642 -1655.956)"><stop offset="0" stop-color="#F4B167"/><stop offset=".292" stop-color="#E3C18A"/><stop offset="1" stop-color="#EE8424"/></linearGradient><radialGradient id="h" cx="1184.265" cy="1665.213" r="1.103" gradientUnits="userSpaceOnUse" fy="1665.213" fx="1184.265" gradientTransform="translate(-1156.642 -1655.956)"><stop offset="0" stop-color="#F3D196"/><stop offset=".129" stop-color="#F3D196"/><stop offset="1" stop-color="#EE8424"/></radialGradient><linearGradient id="i" x1="1183.125" x2="1180.992" y1="1693.45" y2="1693.264" gradientUnits="userSpaceOnUse" gradientTransform="translate(-1156.642 -1655.956)"><stop offset="0" stop-color="#F4B167"/><stop offset=".292" stop-color="#F3D196"/><stop offset=".371" stop-color="#F3D196"/><stop offset="1" stop-color="#EE8424"/></linearGradient><radialGradient id="j" cx="1182.75" cy="1688.885" r=".986" gradientUnits="userSpaceOnUse" fy="1688.885" fx="1182.75" gradientTransform="translate(-1156.642 -1655.956)"><stop offset="0" stop-color="#F3D196"/><stop offset=".129" stop-color="#F3D196"/><stop offset="1" stop-color="#EE8424"/></radialGradient><linearGradient id="k" x1="1183.917" x2="1180.772" y1="1683.48" y2="1683.445" gradientUnits="userSpaceOnUse" gradientTransform="translate(-1156.642 -1655.956)"><stop offset="0" stop-color="#F4B167"/><stop offset=".292" stop-color="#F3D196"/><stop offset=".421" stop-color="#F3D196"/><stop offset="1" stop-color="#EE8424"/></linearGradient><linearGradient id="l" x1="1177.789" x2="1175.625" y1="1694.808" y2="1694.406" gradientUnits="userSpaceOnUse" gradientTransform="translate(-1156.642 -1655.956)"><stop offset="0" stop-color="#F4B167"/><stop offset=".292" stop-color="#F3D196"/><stop offset=".376" stop-color="#F3D196"/><stop offset="1" stop-color="#EE8424"/></linearGradient><radialGradient id="m" cx="1178.121" cy="1689.425" r=".954" gradientUnits="userSpaceOnUse" fy="1689.425" fx="1178.121" gradientTransform="translate(-1156.642 -1655.956)"><stop offset="0" stop-color="#F3D196"/><stop offset=".129" stop-color="#F3D196"/><stop offset="1" stop-color="#EE8424"/></radialGradient><linearGradient id="n" x1="1179.933" x2="1176.614" y1="1683.922" y2="1683.538" gradientUnits="userSpaceOnUse" gradientTransform="translate(-1156.642 -1655.956)"><stop offset="0" stop-color="#F4B167"/><stop offset=".292" stop-color="#F3D196"/><stop offset=".421" stop-color="#F3D196"/><stop offset="1" stop-color="#EE8424"/></linearGradient><radialGradient id="o" cx="1179.168" cy="1678.608" r="1.459" gradientUnits="userSpaceOnUse" fy="1678.608" fx="1179.168" gradientTransform="translate(-1156.642 -1655.956)"><stop offset="0" stop-color="#F3D196"/><stop offset=".129" stop-color="#F3D196"/><stop offset="1" stop-color="#EE8424"/></radialGradient><radialGradient id="p" cx="1182.831" cy="1678.495" r="1.552" gradientUnits="userSpaceOnUse" fy="1678.495" fx="1182.831" gradientTransform="translate(-1156.642 -1655.956)"><stop offset="0" stop-color="#F3D196"/><stop offset=".107" stop-color="#F3D196"/><stop offset="1" stop-color="#EE8424"/></radialGradient><radialGradient id="q" cx="1181.204" cy="1675.502" r="3.561" gradientUnits="userSpaceOnUse" fy="1675.502" fx="1181.204" gradientTransform="translate(-1156.642 -1655.956)"><stop offset="0" stop-color="#F3D196"/><stop offset=".197" stop-color="#F3D196"/><stop offset="1" stop-color="#EE8424"/></radialGradient><radialGradient id="r" cx="1181.392" cy="1672.234" r="2.981" gradientUnits="userSpaceOnUse" fy="1672.234" fx="1181.392" gradientTransform="translate(-1156.642 -1655.956)"><stop offset="0" stop-color="#F3D196"/><stop offset="1" stop-color="#EE8324"/></radialGradient><radialGradient id="s" cx="1181.547" cy="1665.856" r="5.775" gradientUnits="userSpaceOnUse" fy="1665.856" fx="1181.547" gradientTransform="translate(-1156.642 -1655.956)"><stop offset="0" stop-color="#F3D196"/><stop offset=".197" stop-color="#F3D196"/><stop offset="1" stop-color="#EE8424"/></radialGradient><radialGradient id="t" cx="1176.868" cy="1664.601" r="1.28" gradientUnits="userSpaceOnUse" fy="1664.601" fx="1176.868" gradientTransform="translate(-1156.642 -1655.956)"><stop offset="0" stop-color="#F3D196"/><stop offset=".129" stop-color="#F3D196"/><stop offset="1" stop-color="#EE8424"/></radialGradient><linearGradient id="u" x1="1173.058" x2="1174.429" y1="1666.42" y2="1668.075" gradientUnits="userSpaceOnUse" gradientTransform="translate(-1156.642 -1655.956)"><stop offset="0" stop-color="#F4B167"/><stop offset=".292" stop-color="#F3D196"/><stop offset=".421" stop-color="#F3D196"/><stop offset="1" stop-color="#EE8424"/></linearGradient><radialGradient id="v" cx="1171.076" cy="1668.957" r=".712" gradientUnits="userSpaceOnUse" fy="1668.957" fx="1171.076" gradientTransform="translate(-1156.642 -1655.956)"><stop offset="0" stop-color="#F3D196"/><stop offset=".129" stop-color="#F3D196"/><stop offset="1" stop-color="#EE8424"/></radialGradient><linearGradient id="w" x1="1168.026" x2="1169.255" y1="1670.603" y2="1671.928" gradientUnits="userSpaceOnUse" gradientTransform="translate(-1156.642 -1655.956)"><stop offset="0" stop-color="#F4B167"/><stop offset=".292" stop-color="#F3D196"/><stop offset=".421" stop-color="#F3D196"/><stop offset="1" stop-color="#EE8424"/></linearGradient><radialGradient id="x" cx="1166.426" cy="1673.148" r=".612" gradientUnits="userSpaceOnUse" fy="1673.148" fx="1166.426" gradientTransform="translate(-1156.642 -1655.956)"><stop offset="0" stop-color="#F3D196"/><stop offset=".129" stop-color="#F3D196"/><stop offset="1" stop-color="#EE8424"/></radialGradient><linearGradient id="y" x1="1164.108" x2="1165.697" y1="1674.438" y2="1675.82" gradientUnits="userSpaceOnUse" gradientTransform="translate(-1156.642 -1655.956)"><stop offset=".506" stop-color="#F3D196"/><stop offset="1" stop-color="#F0943B"/></linearGradient><radialGradient id="z" cx="1181.263" cy="1662.666" r="1.542" gradientUnits="userSpaceOnUse" fy="1662.666" fx="1181.263" gradientTransform="translate(-1156.642 -1655.956)"><stop offset="0" stop-color="#F3D196"/><stop offset=".129" stop-color="#F3D196"/><stop offset="1" stop-color="#EE8424"/></radialGradient><radialGradient id="A" cx="1182.248" cy="1658.428" r="3.295" gradientUnits="userSpaceOnUse" fy="1658.428" fx="1182.248" gradientTransform="translate(-1156.642 -1655.956)"><stop offset="0" stop-color="#F3D196"/><stop offset=".197" stop-color="#F3D196"/><stop offset="1" stop-color="#EE8424"/></radialGradient><linearGradient id="B" x1="1183.881" x2="1181.998" y1="1698.929" y2="1699.999" xlink:href="#a" gradientUnits="userSpaceOnUse" gradientTransform="translate(-1156.642 -1655.956)"/><linearGradient id="C" x1="1177.703" x2="1175.606" y1="1701.176" y2="1701.476" xlink:href="#b" gradientUnits="userSpaceOnUse" gradientTransform="translate(-1156.642 -1655.956)"/><radialGradient id="D" cx="1190.832" cy="1670.785" r=".401" xlink:href="#c" gradientUnits="userSpaceOnUse" gradientTransform="translate(-1156.642 -1655.956)" fx="1190.832" fy="1670.785"/><linearGradient id="E" x1="1192.739" x2="1192.124" y1="1671.622" y2="1672.399" xlink:href="#d" gradientUnits="userSpaceOnUse" gradientTransform="translate(-1156.642 -1655.956)"/><radialGradient id="F" cx="1187.812" cy="1667.972" r=".517" xlink:href="#e" gradientUnits="userSpaceOnUse" gradientTransform="translate(-1156.642 -1655.956)" fx="1187.812" fy="1667.972"/><linearGradient id="G" x1="1189.773" x2="1189.064" y1="1668.994" y2="1670.081" xlink:href="#f" gradientUnits="userSpaceOnUse" gradientTransform="translate(-1156.642 -1655.956)"/><linearGradient id="H" x1="1186.393" x2="1185.306" y1="1665.963" y2="1667.476" xlink:href="#g" gradientUnits="userSpaceOnUse" gradientTransform="translate(-1156.642 -1655.956)"/><radialGradient id="I" cx="1184.265" cy="1665.213" r="1.103" xlink:href="#h" gradientUnits="userSpaceOnUse" gradientTransform="translate(-1156.642 -1655.956)" fx="1184.265" fy="1665.213"/><linearGradient id="J" x1="1183.125" x2="1180.992" y1="1693.45" y2="1693.264" xlink:href="#i" gradientUnits="userSpaceOnUse" gradientTransform="translate(-1156.642 -1655.956)"/><radialGradient id="K" cx="1182.75" cy="1688.885" r=".986" xlink:href="#j" gradientUnits="userSpaceOnUse" gradientTransform="translate(-1156.642 -1655.956)" fx="1182.75" fy="1688.885"/><linearGradient id="L" x1="1183.917" x2="1180.772" y1="1683.48" y2="1683.445" xlink:href="#k" gradientUnits="userSpaceOnUse" gradientTransform="translate(-1156.642 -1655.956)"/><linearGradient id="M" x1="1177.789" x2="1175.625" y1="1694.808" y2="1694.406" xlink:href="#l" gradientUnits="userSpaceOnUse" gradientTransform="translate(-1156.642 -1655.956)"/><radialGradient id="N" cx="1178.121" cy="1689.425" r=".954" xlink:href="#m" gradientUnits="userSpaceOnUse" gradientTransform="translate(-1156.642 -1655.956)" fx="1178.121" fy="1689.425"/><linearGradient id="O" x1="1179.933" x2="1176.614" y1="1683.922" y2="1683.538" xlink:href="#n" gradientUnits="userSpaceOnUse" gradientTransform="translate(-1156.642 -1655.956)"/><radialGradient id="P" cx="1179.168" cy="1678.608" r="1.459" xlink:href="#o" gradientUnits="userSpaceOnUse" gradientTransform="translate(-1156.642 -1655.956)" fx="1179.168" fy="1678.608"/><radialGradient id="Q" cx="1182.831" cy="1678.495" r="1.552" xlink:href="#p" gradientUnits="userSpaceOnUse" gradientTransform="translate(-1156.642 -1655.956)" fx="1182.831" fy="1678.495"/><radialGradient id="R" cx="1181.204" cy="1675.502" r="3.561" xlink:href="#q" gradientUnits="userSpaceOnUse" gradientTransform="translate(-1156.642 -1655.956)" fx="1181.204" fy="1675.502"/><radialGradient id="S" cx="1181.392" cy="1672.234" r="2.981" xlink:href="#r" gradientUnits="userSpaceOnUse" gradientTransform="translate(-1156.642 -1655.956)" fx="1181.392" fy="1672.234"/><radialGradient id="T" cx="1181.547" cy="1665.856" r="5.775" xlink:href="#s" gradientUnits="userSpaceOnUse" gradientTransform="translate(-1156.642 -1655.956)" fx="1181.547" fy="1665.856"/><radialGradient id="U" cx="1176.868" cy="1664.601" r="1.28" xlink:href="#t" gradientUnits="userSpaceOnUse" gradientTransform="translate(-1156.642 -1655.956)" fx="1176.868" fy="1664.601"/><linearGradient id="V" x1="1173.058" x2="1174.429" y1="1666.42" y2="1668.075" xlink:href="#u" gradientUnits="userSpaceOnUse" gradientTransform="translate(-1156.642 -1655.956)"/><radialGradient id="W" cx="1171.076" cy="1668.957" r=".712" xlink:href="#v" gradientUnits="userSpaceOnUse" gradientTransform="translate(-1156.642 -1655.956)" fx="1171.076" fy="1668.957"/><linearGradient id="X" x1="1168.026" x2="1169.255" y1="1670.603" y2="1671.928" xlink:href="#w" gradientUnits="userSpaceOnUse" gradientTransform="translate(-1156.642 -1655.956)"/><radialGradient id="Y" cx="1166.426" cy="1673.148" r=".612" xlink:href="#x" gradientUnits="userSpaceOnUse" gradientTransform="translate(-1156.642 -1655.956)" fx="1166.426" fy="1673.148"/><linearGradient id="Z" x1="1164.108" x2="1165.697" y1="1674.438" y2="1675.82" xlink:href="#y" gradientUnits="userSpaceOnUse" gradientTransform="translate(-1156.642 -1655.956)"/><radialGradient id="aa" cx="1181.263" cy="1662.666" r="1.542" xlink:href="#z" gradientUnits="userSpaceOnUse" gradientTransform="translate(-1156.642 -1655.956)" fx="1181.263" fy="1662.666"/><radialGradient id="ab" cx="1182.248" cy="1658.428" r="3.295" xlink:href="#A" gradientUnits="userSpaceOnUse" gradientTransform="translate(-1156.642 -1655.956)" fx="1182.248" fy="1658.428"/></defs><g><path fill="none" stroke="#8ae234" stroke-opacity=".502" stroke-width="3.632" d="M38.57 41.14a14.82 4.86 0 1 1-29.64 0 14.82 4.86 0 1 1 29.64 0z" transform="matrix(1 0 0 1.213 .429 -9.577)" color="#000" stroke-linecap="round" overflow="visible" enable-background="accumulate"/><path fill="none" stroke="#8ae234" stroke-opacity=".753" stroke-width="1.816" d="M38.57 41.14a14.82 4.86 0 1 1-29.64 0 14.82 4.86 0 1 1 29.64 0z" transform="matrix(1 0 0 1.213 .429 -9.577)" color="#000" stroke-linecap="round" overflow="visible" enable-background="accumulate"/><path fill="none" stroke="#dafbb9" stroke-width=".454" d="M38.57 41.14a14.82 4.86 0 1 1-29.64 0 14.82 4.86 0 1 1 29.64 0z" transform="matrix(1 0 0 1.213 .429 -9.577)" color="#000" stroke-linecap="round" overflow="visible" enable-background="accumulate"/><g stroke="#66330d" transform="matrix(.895 0 0 .895 3.182 .287)"><g fill="none" stroke-width="1.341" transform="translate(-1156.642 -1655.956)"><path d="M1182.64 1697.44c.95 1.2 2.1 1.9 3.04 2.98.26.3-1.23 1.1-1.92.73-.73-.4-2.58-1.88-2.62-2.18-.05-.3.02-1.28.15-1.37.42-.28 1.22-.3 1.35-.16z"/><path d="M1176.84 1699.34c.4.94 1.95 3.04 2.1 3.42.14.35-1.47.82-2.17.48-.43-.2-1.34-2.44-1.4-2.74-.04-.2.1-1 .2-1.08.45-.25 1.2-.27 1.27-.1z"/><circle cx="1176.197" cy="1699.474" r=".579"/><circle cx="1181.993" cy="1697.514" r=".579"/><path d="M1191 1670.37c.07 0 .2.14.22.27 0 .13-.24.58-.42.56-.17-.02-.35-.17-.35-.25 0-.1.47-.57.56-.58z"/><path d="M1190.76 1671.2c.27-.14.44-.4.46-.56 0-.18 1.1.28 2.13 1.72.37.52.35 1.1.28 1.02 0 0-.53-.13-1.66-1.04-.62-.5-1.03-.88-1.2-1.13z"/><path d="M1187.5 1667.54c.2-.03.6.2.76.47.14.27-.43 1-.6 1.02-.2.03-.65-.3-.7-.55-.05-.23.44-.92.53-.93z"/><path d="M1188 1668.46c.14-.23.23-.48.28-.48.26-.07 2.72 2.2 2.73 2.36.02.16-.38.67-.6.65-.13-.02-2.73-1.6-2.8-1.93 0-.05.22-.33.4-.6z"/><path d="M1184.88 1664.88c.2.1 1.9 1.45 2.64 2.54.2.3-.36 1.18-.62 1.12-.28-.07-2.7-1.65-2.75-1.84-.28-.95.42-1.95.73-1.82z"/><path d="M1183.68 1663.77c.22.02.96.3 1.14.86.17.57-.32 1.83-.74 2.02-.43.2-.4-2.88-.4-2.88z"/><path d="M1181.43 1689.23c.27-.2 1.33-.23 1.9.2.33.26-.65 7.74-.7 7.9-.1.32-.93.46-1.3.02-.13-.16-.34-7.8.1-8.12z"/><path d="M1181.86 1687.9c.22-.15 1.2-.1 1.38.1.36.43.36 1.1.02 1.45-.25.26-1.44.2-1.7-.18-.2-.24-.24-.97.3-1.36z"/><path d="M1183.84 1678.9c-.6-.4-2.63-.4-2.94.13-.38.65.45 8.4.7 8.9.2.4 1.7.6 1.96.07.15-.28.68-8.85.28-9.1z"/><path d="M1176.7 1689.66c.15-.16 1.88.2 1.87.46-.08 1.67-1.5 8.12-1.67 9.16-.08.48-1.1.37-1.32-.1-.23-.53.37-8.74 1.1-9.52z"/><path d="M1178.67 1688.66c.28.3.2 1.27-.2 1.46-.37.2-1.23 0-1.54-.27-.44-.38 0-1.35.34-1.47.17-.06 1.27.13 1.4.28z"/><path d="M1177.2 1678.83c.6-.4 2.8-.06 3.1.48.38.66-1.23 8.87-1.4 9.17-.4.6-1.78.2-1.92-.08-.27-.5-.28-9.22.23-9.57z"/><path d="M1180.23 1677.86c.34.34.13 1.4-.1 1.48-.86.3-2.55.03-2.83-.43-.27-.45-.12-1.43.13-1.54.68-.3 2.55.25 2.8.5z"/><path d="M1183.53 1677.4c.3.12.34 1.4.15 1.6-.47.48-2.34.43-2.7.02-.34-.4-.36-1.4-.13-1.55.62-.42 2.35-.18 2.68-.06z"/><path d="M1177.13 1677.28c.17.5 1.92.96 3.58.95 1.3 0 3.07-.48 3.14-.7.2-.74-.36-4.44-.7-4.63-.56-.32-4.6-.2-4.9.07-.32.26-1.54 3.08-1.1 4.3z"/><path d="M1178.8 1671.3c.34-.3 3.05-.78 3.92-.12.2.15.46 1.6.28 1.75-.67.57-3.33.82-4.6.1-.34-.2.2-1.58.4-1.74z"/><path d="M1176.92 1663.42c.25-.23 4.1-.98 6.8.16.36.14.6 2.92.56 3.14-.18.83-1.18 4.1-1.44 4.42-.22.26-2.7.47-4.13.17-.02 0-.04.26-.12.18-.1-.1-.5-.64-.75-1-.4-.58-1.55-2.78-1.85-4.65-.17-1.03.4-1.9.94-2.4z"/><path d="M1177 1663.74c.78.28 1.18 2.03.6 2.7-.4.4-1.12.46-1.4.27-.32-.2-1.15-1.4-1.14-1.64.03-.64.57-1.04.9-1.2.5-.25.84-.2 1.03-.12z"/><path d="M1175.35 1664.77c.53.02 1.32 1.24.98 1.78-.3.47-3.83 3-4.44 3.1-.08 0-1.1-1.06-.9-1.28 1.02-1.15 3.9-3.6 4.35-3.6z"/><path d="M1171 1668.37c.34.03.94.68.9 1.28-.03.17-.47.52-.74.5-.15 0-.97-.83-.97-1.06 0-.3.5-.75.8-.73z"/><path d="M1170.03 1669.1c.36-.1 1.1.43 1.2 1 .05.3-3.72 3.17-4.02 3.2-.6.08-1.2-.58-1.08-.75.64-.84 3.24-3.27 3.9-3.45z"/><path d="M1166.17 1672.62c.2-.02.72.18.94.64.04.08-.24.43-.36.42-.1-.02-.96-.4-1-.53-.03-.12.2-.5.43-.53z"/><path d="M1165.74 1673.15c.17-.04.85.16 1 .5.2.44-.57 1.7-.88 2.1-.47.6-1.56 1.25-1.94 1.32-.26.04-.92-.27-.88-.6.04-.34.4-1.3 1.08-2.05.7-.75 1.48-1.23 1.62-1.27z"/><path d="M1179.76 1663.1c.04.14.62.37 1.22.37s.88-.2.97-.3c.1-.12.1-1.4-.02-1.46-.2-.1-1.88-.12-2.1 0-.15.1-.1 1.27-.07 1.4z"/><path d="M1181.85 1656.4c.65.2 1.38 1.05 1.34 2.6-.05 1.56-.67 2.52-1.03 2.77-.3.2-2.37.27-2.63-.12-.8-1.2-1.13-3.4-.47-4.4.57-.86 2.03-1.1 2.78-.86z"/></g><path fill="url(#B)" stroke-width=".279" d="M26 41.5c.95 1.17 2.1 1.9 3.04 2.96.26.3-1.23 1.1-1.92.73-.74-.4-2.58-1.88-2.62-2.2-.05-.3.02-1.26.15-1.36.43-.27 1.23-.3 1.35-.15z"/><path fill="url(#C)" stroke-width=".279" d="M20.2 43.38c.4.94 1.95 3.05 2.1 3.43.14.35-1.47.83-2.17.48-.43-.2-1.35-2.43-1.4-2.73-.04-.22.1-1.02.2-1.08.44-.26 1.2-.28 1.27-.1z"/><circle cx="1176.197" cy="1699.474" r=".579" fill="#ef7916" stroke-width=".279" transform="translate(-1156.642 -1655.956)"/><circle cx="1181.993" cy="1697.514" r=".579" fill="#ef7916" stroke-width=".279" transform="translate(-1156.642 -1655.956)"/><path fill="url(#D)" stroke-width=".279" d="M34.36 14.42c.07 0 .2.13.22.26 0 .13-.24.6-.42.56-.17-.02-.35-.16-.36-.25 0-.1.48-.58.56-.58z"/><path fill="url(#E)" stroke-width=".279" d="M34.1 15.26c.28-.15.46-.42.48-.58 0-.17 1.1.3 2.13 1.73.38.52.36 1.1.3 1.03 0 0-.55-.14-1.67-1.04-.62-.5-1.03-.9-1.22-1.14z"/><path fill="url(#F)" stroke-width=".279" d="M30.85 11.58c.2-.02.6.2.77.47.14.26-.44 1-.6 1.02-.2.02-.65-.32-.7-.55-.05-.24.44-.92.53-.94z"/><path fill="url(#G)" stroke-width=".279" d="M31.36 12.5c.14-.23.23-.47.27-.48.26-.07 2.72 2.2 2.74 2.36 0 .16-.4.67-.6.65-.15 0-2.74-1.6-2.8-1.9-.02-.06.2-.35.4-.63z"/><path fill="url(#H)" stroke-width=".279" d="M28.24 8.92c.2.1 1.9 1.45 2.64 2.54.2.3-.36 1.18-.62 1.12-.28-.06-2.7-1.65-2.75-1.83-.27-.96.43-1.96.74-1.83z"/><path fill="url(#I)" stroke-width=".279" d="M27.04 7.8c.22.04.96.3 1.13.87.18.57-.3 1.83-.74 2.02-.42.18-.4-2.9-.4-2.9z"/><path fill="url(#J)" stroke-width=".279" d="M24.8 33.27c.26-.2 1.32-.23 1.87.2.35.27-.63 7.75-.67 7.9-.1.33-.95.46-1.3.03-.14-.17-.35-7.8.1-8.13z"/><path fill="url(#K)" stroke-width=".279" d="M25.22 31.95c.22-.15 1.2-.1 1.38.1.36.42.36 1.1.02 1.45-.25.26-1.45.18-1.7-.18-.2-.24-.24-.97.3-1.37z"/><path fill="url(#L)" stroke-width=".279" d="M27.2 22.93c-.6-.4-2.63-.4-2.94.14-.38.65.45 8.4.7 8.9.2.42 1.7.6 1.96.08.14-.3.67-8.85.28-9.12z"/><path fill="url(#M)" stroke-width=".279" d="M20.05 33.7c.16-.16 1.9.2 1.88.47-.08 1.66-1.52 8.1-1.68 9.16-.07.47-1.1.36-1.3-.1-.24-.53.36-8.74 1.1-9.52z"/><path fill="url(#N)" stroke-width=".279" d="M22.03 32.7c.28.32.2 1.27-.2 1.47-.37.2-1.23 0-1.54-.28-.45-.4-.02-1.36.33-1.48.17-.05 1.26.13 1.4.28z"/><path fill="url(#O)" stroke-width=".279" d="M20.57 22.88c.6-.4 2.78-.06 3.1.47.37.65-1.24 8.87-1.42 9.16-.38.62-1.78.2-1.9-.06-.28-.5-.3-9.2.22-9.56z"/><path fill="url(#P)" stroke-width=".279" d="M23.6 21.9c.32.34.12 1.4-.13 1.48-.84.3-2.53.03-2.8-.43-.28-.45-.13-1.44.12-1.55.67-.3 2.54.25 2.8.5z"/><path fill="url(#Q)" stroke-width=".279" d="M26.9 21.46c.3.1.33 1.4.14 1.6-.47.46-2.34.4-2.7 0-.34-.4-.36-1.4-.13-1.55.63-.4 2.36-.16 2.7-.04z"/><path fill="url(#R)" stroke-width=".279" d="M20.5 21.32c.16.5 1.9.97 3.57.95 1.3 0 3.06-.48 3.12-.7.2-.74-.36-4.44-.7-4.63-.56-.32-4.6-.18-4.9.08-.32.25-1.54 3.07-1.1 4.3z"/><path fill="url(#S)" stroke-width=".279" d="M22.15 15.34c.35-.3 3.06-.78 3.93-.12.2.16.45 1.6.28 1.75-.67.57-3.33.82-4.6.1-.34-.2.2-1.57.4-1.73z"/><path fill="url(#T)" stroke-width=".279" d="M20.28 7.46c.25-.22 4.1-.98 6.8.16.36.15.6 2.92.56 3.14-.18.83-1.18 4.1-1.44 4.42-.22.27-2.7.47-4.13.17-.03 0-.05.25-.13.17-.1-.1-.5-.63-.75-1-.4-.58-1.56-2.77-1.87-4.65-.17-1.03.4-1.9.95-2.4z"/><path fill="url(#U)" stroke-width=".279" d="M20.35 7.78c.8.28 1.2 2.03.6 2.7-.38.42-1.1.46-1.4.28-.3-.2-1.14-1.4-1.13-1.66.02-.64.56-1.04.9-1.2.48-.25.84-.18 1.03-.12z"/><path fill="url(#V)" stroke-width=".279" d="M18.7 8.82c.54 0 1.33 1.23 1 1.77-.3.47-3.84 3-4.45 3.1-.07 0-1.1-1.06-.9-1.28 1.03-1.16 3.9-3.6 4.36-3.6z"/><path fill="url(#W)" stroke-width=".279" d="M14.34 12.42c.36.03.96.68.9 1.27 0 .17-.45.5-.72.5-.15 0-.98-.83-.97-1.06 0-.3.5-.74.8-.72z"/><path fill="url(#X)" stroke-width=".279" d="M13.4 13.15c.35-.1 1.1.43 1.2 1 .03.3-3.73 3.16-4.03 3.2-.6.07-1.2-.6-1.1-.75.65-.85 3.25-3.27 3.92-3.45z"/><path fill="url(#Y)" stroke-width=".279" d="M9.53 16.67c.2-.02.72.17.94.64.03.08-.25.44-.37.42-.1 0-.97-.4-1-.52-.03-.12.2-.52.43-.53z"/><path fill="url(#Z)" stroke-width=".279" d="M9.1 17.2c.17-.05.85.16 1 .5.2.44-.57 1.7-.88 2.1-.47.58-1.56 1.25-1.94 1.3-.26.06-.92-.26-.88-.6.04-.33.4-1.28 1.08-2.03.7-.75 1.47-1.23 1.62-1.27z"/><path fill="url(#aa)" stroke-width=".279" d="M23.12 7.14c.04.14.62.37 1.22.37s.88-.17.97-.3c.1-.1.1-1.4 0-1.45-.2-.1-1.9-.12-2.12 0-.14.1-.1 1.26-.06 1.4z"/><path fill="url(#ab)" stroke-width=".279" d="M25.2.43c.66.2 1.38 1.06 1.35 2.62-.04 1.55-.66 2.5-1.02 2.76-.3.23-2.37.28-2.63-.1-.8-1.2-1.13-3.4-.47-4.4C23 .42 24.45.2 25.2.42z"/></g></g></svg>