<svg xmlns="http://www.w3.org/2000/svg" width="48" height="48" xmlns:xlink="http://www.w3.org/1999/xlink" version="1" viewBox="0 0 612 792" enable-background="new 0 0 612 792"><defs><linearGradient id="d" x1="409.734" x2="407.042" y1="385.44" y2="395.245" xlink:href="#a" gradientUnits="userSpaceOnUse" gradientTransform="matrix(.756 .654 -.654 .756 337.45 -169.261)"/><linearGradient id="c" x1="367.676" x2="364.981" y1="399.933" y2="409.744" xlink:href="#b" gradientUnits="userSpaceOnUse"/></defs><path fill="none" stroke="#284f59" stroke-width="11.957" stroke-miterlimit="10" d="M72.23 787.18c-62 0-107.36-24.22-107.36-56.4l1.24-31.55c2.95-12.25 20.83-26.87 36.87-32.5-51.34-26.47-84.26-79.98-84.26-134.95 0-78.2 59.78-143.5 140.6-152.9v-14.75c-8.9-5.34-9.5-6.06-9.5-10.45 0-9.04 9.14-9.45 30.66-10 103.55-2.7 182.7 57.93 183.9 172.64.43 40.86-7.85 123.93-112.16 156.04 11.74 8.2 26.98 22 27.6 31.7 0 0-1.14 25.03-1.14 26.7 0 32.2-43.7 56.42-106.43 56.42zm11.03-407.66c92.86 12.27 141 75.56 141 154.13 0 44.83-25.53 87.34-56.82 112.47 61.02-12.28 77.04-82.04 77.04-120.58 0-98.68-53.74-152.42-161.22-160.45v14.42z" stroke-linecap="round" stroke-linejoin="round"/><path fill="none" stroke="#e1e0d6" stroke-width="8.541" stroke-miterlimit="10" d="M64.6 357.68c0 6.2 0 16.55 0 26.13-77.53 4.2-139.13 68.1-139.13 146.64 0 62.34 38.8 115.46 93.5 136.88-27.18 7.86-45.34 21.44-46.88 37.12.04-1.06-.04-2.08.13-3.16-1.5 6.08-.6 29.1-.6 33.92 0 25.68 44.1 46.5 100.24 46.5 56.18 0 101.7-20.82 101.7-46.5 0-4.8 1.73-23.2 1.4-30.45-.03.27-.17.53-.2.85-.5-12.57-11.8-23.9-29.98-32.15-296.72 20.8-111.83-169-70.4-272.25.76-1.88-4.02-31.82 6.7-43.75 8.5-9.54-24.42-8.33-24.83-4.57-.72 6.37 9.3 7.8 8.32 4.8zm96.13 299.72c-8.27 5.5-16.25 9.7-23.66 13.13-3.33-1.2-6.72-2.42-10.4-3.45 54.37-21.6 92.9-74.53 92.9-136.62 0-78.76-62.04-142.9-139.88-146.65 0-8.5 0-17.34 0-23.58 1.15.05 1.94.3 3.2.3 108.93 9.63 166.3 60.17 166.3 165.86 0 64.65-30.84 111.9-88.47 131.02z" stroke-linejoin="round"/><path fill="#d7d6c9" d="M175.74 706.52c0 25.66-44.94 47.08-101.1 47.08-56.14 0-102.22-21.42-102.22-47.08 0-25.76 45.55-46.53 101.68-46.53 56.14 0 101.64 20.76 101.64 46.52z"/><path fill="#a1a199" d="M73.42 753.3c-45.54 0-105.65-16.87-100.44-52.02-1.5 6.08-.58 29.1-.58 33.92 0 25.4 45.83 46.5 102 46.5 56.13 0 99.94-20.82 99.94-46.5 0-4.8 1.73-23.2 1.4-30.45-4.6 34.84-56.8 48.54-102.32 48.54z"/><ellipse cx="363.514" cy="416.249" fill="#949a8b" rx="4.041" ry="1.847" transform="matrix(17.082 0 0 17.082 -6119.266 -6398.441)"/><path fill="#807e6b" stroke="#5e6256" stroke-width="5.125" stroke-miterlimit="10" d="M89.77 707.04c0 11.07-36 9.9-36 0 0-9.86 0-31.35 0-31.35h36s0 22.64 0 31.34z" stroke-linecap="round" stroke-linejoin="round"/><circle cx="362.521" cy="405.626" r="8.606" fill="#009ac5" transform="matrix(17.082 0 0 17.082 -6119.266 -6398.441)"/><path fill="#b3b3a9" stroke="#7e847f" stroke-width="5.125" stroke-miterlimit="10" d="M80.5 402.53c0 10.22-15.14 8.87-15.14 0 0-11.95 0-50.44 0-50.44H80.5s0 36.72 0 50.43z" stroke-linecap="round" stroke-linejoin="round"/><g transform="matrix(17.082 0 0 17.082 -6119.266 -6398.441)"><linearGradient id="b" x1="367.676" x2="364.981" y1="399.933" y2="409.744" gradientUnits="userSpaceOnUse"><stop offset="0" stop-color="#D7D6C9"/><stop offset="1" stop-color="#A2A29A"/></linearGradient><path fill="url(#c)" d="M363.7 414.55c7.55-.94 9.82-4.87 9.82-9.56 0-6.78-4.3-10.2-10.9-10.2-1.72 0-1.93.8.36.85 6.38.56 9.74 3.53 9.74 9.7 0 3.8-1.8 6.56-5.18 7.68-2.1 1.4-3.92 1.53-3.83 1.52z"/></g><path fill="#d3e276" stroke="#5c5c39" stroke-width="3.416" stroke-miterlimit="10" d="M31.67 396.8c7.2 1.62-5.8 6.96-1.16 12.8 4.64 5.83 8.2 4.63 12.8 8.1 4.63 3.5 3.5 7.02-4.62 8.17-8.2 1.18-29.1 18.6-22.1 25.6 6.96 6.94 15.1 12.78 17.43 2.28 2.32-10.44 12.8-26.7 16.3-13.9 3.46 12.77 11.6 22.06 4.62 27.87-7 5.8-36 18.6-44.17 17.44-8.13-1.18-23.22-3.5-27.88 1.14-4.65 4.65-17.44-9.3-20.9 4.65-3.5 13.9-5.85 19.7-3.5 26.7 2.3 6.95 8.14 18.6 8.14 18.6s-11.64 17.44-15.13-5.82c-3.48-23.22-4.63-37.2 1.18-45.3 5.8-8.15 3.47-12.78 8.13-29.08 4.65-16.23 16.26-32.93 27.13-39.92 10.1-6.4 33.34-21.68 43.77-19.32z" stroke-linecap="round" stroke-linejoin="round"/><path fill="#d3e276" stroke="#5c5c39" stroke-width="3.416" stroke-miterlimit="10" d="M-26.4 542.1c16.4 0 27.9 1.12 32.5 5.77 4.65 4.64 18.57 13.95 24.4 12.76 5.82-1.15 10.48-9.26 18.63 3.52 8.1 12.8 20.93 29.05 15.08 29.05-5.78 0-17.4-2.34-23.2 3.5-5.84 5.8-22.05 11.62-22.05 19.73 0 8.12-7 17.44 0 26.74 6.95 9.26 5.74 11.6 10.43 16.22 4.63 4.66-13.95 5.87-22.08-2.3-8.15-8.16-12.8-15.15-17.44-25.58-4.62-10.4-16.25-12.76-10.44-24.4 5.84-11.65 13.97-17.44 5.84-24.42-8.18-6.97-19.78-4.65-20.92-16.27-1.25-11.58 4.57-24.34 9.25-24.34z" stroke-linecap="round" stroke-linejoin="round"/><path fill="#d3e276" stroke="#5c5c39" stroke-width="3.416" stroke-miterlimit="10" d="M102.17 392.15c-8.2-.5 9.7 8.16 12 13.97 2.35 5.8 15.13 11.55 10.48 15.05-4.66 3.54-6.97 1.2-13.9 4.68-7 3.5-16.32 9.3-10.5 13.96 5.83 4.64 24.42 8.12 30.2 13.9 5.83 5.84 9.3 10.52 9.3 15.13 0 4.63 13.94 13.97 15.08 4.63 1.2-9.24 17.44-17.44 18.62-10.42 1.16 6.95 6.97 13.92-1.16 15.06-8.16 1.2-15.1 0-15.1 5.85 0 5.8-1.15 10.45-1.15 17.4 0 7 2.3 11.62-3.5 17.48-5.83 5.77-12.78 8.1-8.15 20.92 4.66 12.75 7.02 23.25 12.8 26.7 5.83 3.5 15.1 4.65 19.74-1.13 4.64-5.85 11.63-23.23 16.3-12.8 4.66 10.5-11.66 51.1-16.3 61.56-4.65 10.45-.8 19.4 16.67-9.67 17.45-29 21.3-53.82 20.92-68.92-.5-19.8.4-41.44-16.26-71.7-12.63-22.83-25.56-37.5-41.84-48.03-16.28-10.38-35.63-22.42-54.25-23.6z" stroke-linecap="round" stroke-linejoin="round"/><path fill="none" stroke="#284f59" stroke-width="11.957" stroke-miterlimit="10" d="M328.8 478.55c-46.83-40.52-65.3-88.57-44.23-112.9l21.6-23.02c10.24-7.33 33.34-6.68 49.15-.45-21.54-53.6-11.37-115.6 24.6-157.17 51.2-59.14 139.15-69.4 206.37-23.6l9.64-11.13c-3.28-9.88-3.2-10.8-.36-14.13 5.95-6.82 13.57-1.7 29.7 12.5 77.6 68.2 100.24 163.36 26.1 250.9-26.43 31.18-87.06 88.57-186.94 44.54 3.5 13.88 6 34.33.12 42.07 0 0-17.25 18.17-18.33 19.46-21.1 24.35-69.95 14-117.42-27.05zm275.17-301c62.2 70 57.2 149.4 5.76 208.84-29.35 33.86-76.5 49.32-116.62 47.82 54.23 30.68 112-11.6 137.2-40.74 64.58-74.63 59.13-150.42-16.92-226.83l-9.4 10.9z" stroke-linecap="round" stroke-linejoin="round"/><path fill="none" stroke="#e1e0d6" stroke-width="8.541" stroke-miterlimit="10" d="M604.17 148.82c-4.06 4.7-10.83 12.5-17.13 19.78-61.32-47.6-149.76-39.58-201.1 19.8-40.8 47.14-46.25 112.67-18.9 164.68-25.7-11.82-48.36-13.5-59.75-2.6.7-.78 1.34-1.6 2.16-2.34-5.13 3.63-19.5 21.65-22.67 25.27-16.78 19.4 2.93 64.03 45.36 100.76 42.48 36.8 90.52 50.8 107.3 31.43 3.2-3.68 16.53-16.44 21.04-22.17-.24.2-.48.3-.74.52 7.84-9.83 6.75-25.83-1.62-43.92-237.97-178.46 26.07-200.95 124.96-251.9 1.77-.93 17.76-26.7 33.7-28.72 12.66-1.62-13-22.27-15.8-19.7-4.68 4.4 1.9 12.04 3.17 9.12zm-123.5 289.52c-9.84-1.27-18.62-3.28-26.46-5.52-1.75-3.16-3.47-6.25-5.56-9.43 55.16 19.22 118.98 4.36 159.62-42.56 51.52-59.55 46.6-148.6-9.8-202.4 5.6-6.44 11.37-13.14 15.45-17.84.87.8 1.33 1.5 2.27 2.3 76.04 78.57 86.35 154.34 17.18 234.25-42.33 48.93-96.58 64.5-152.68 41.2z" stroke-linejoin="round"/><path fill="#d7d6c9" d="M459.92 485.3c-16.8 19.42-64.86 6.2-107.3-30.56-42.43-36.7-63.28-83.1-46.47-102.5C323 332.76 371 346.87 413.5 383.6c42.42 36.78 63.26 82.24 46.42 101.7z"/><path fill="#a1a199" d="M351.93 453.75c-34.48-29.8-68.83-81.93-41.9-105.1-5.1 3.66-19.5 21.65-22.66 25.27-16.62 19.22 4.22 65.13 46.67 101.9 42.47 36.76 89.2 49.67 106 30.26 3.15-3.67 16.5-16.43 21.02-22.15-26.3 23.37-74.73-.4-109.13-30.18z"/><path fill="#949a8b" d="M443.95 478.62c-11.42 13.15-44.02 3.65-72.88-21.34-28.8-24.92-42.9-55.86-31.55-69 11.43-13.16 44.02-3.65 72.86 21.27 28.83 25 42.96 55.86 31.57 69.07z"/><path fill="#807e6b" stroke="#5e6256" stroke-width="5.125" stroke-miterlimit="10" d="M394.53 429.45c-7.2 8.36-33.65-16.1-27.2-23.57 6.44-7.46 20.52-23.7 20.52-23.7l27.23 23.56s-14.83 17.16-20.55 23.7z" stroke-linecap="round" stroke-linejoin="round"/><circle cx="387.364" cy="391.266" r="8.607" fill="#009ac5" transform="matrix(17.082 0 0 17.082 -6119.266 -6398.441)"/><path fill="#b3b3a9" stroke="#7e847f" stroke-width="5.125" stroke-miterlimit="10" d="M586.82 193.13c-6.68 7.72-17.22-3.18-11.4-9.9 7.8-9.03 33-38.14 33-38.14l11.44 9.9s-24.06 27.76-33.04 38.13z" stroke-linecap="round" stroke-linejoin="round"/><g transform="matrix(17.082 0 0 17.082 -6119.266 -6398.441)"><linearGradient id="a" x1="409.734" x2="407.042" y1="385.44" y2="395.245" gradientTransform="matrix(.756 .654 -.654 .756 337.45 -169.261)" gradientUnits="userSpaceOnUse"><stop offset="0" stop-color="#D7D6C9"/><stop offset="1" stop-color="#A2A29A"/></linearGradient><path fill="url(#d)" d="M382.43 398.8c6.3 4.22 10.6 2.73 13.67-.8 4.43-5.13 3.45-10.44-1.6-14.85-1.3-1.12-1.96-.66-.26.88 4.45 4.6 5.06 9.03 1 13.7-2.47 2.87-5.65 3.78-8.93 2.42-2.5-.33-3.95-1.4-3.87-1.36z"/></g><path fill="#d3e276" stroke="#5c5c39" stroke-width="3.416" stroke-miterlimit="10" d="M553.66 156.86c4.4 5.93-8.93 1.5-9.27 8.92-.3 7.46 3.16 8.83 4.36 14.47 1.25 5.68-1.9 7.6-8.83 3.17-6.97-4.44-34.16-4.98-33.46 4.92.73 9.8 3.07 19.53 11.7 13.12 8.6-6.4 27.12-11.8 21.42.1-5.74 11.96-5.67 24.3-14.72 24.14-9.1-.22-39.43-9.5-44.82-15.7-5.38-6.23-15.3-17.83-21.85-17.4-6.55.46-7.08-18.45-18.83-10.18-11.75 8.26-17.32 11.12-20.16 17.95-2.77 6.76-6 19.37-6 19.37s-20.24 5.55-7.6-14.3c12.55-19.83 20.82-31.14 30.52-33.46 9.74-2.38 11-7.4 25.16-16.7 14.18-9.23 33.86-14.22 46.62-12.4 11.87 1.73 39.43 5.35 45.76 13.98z" stroke-linecap="round" stroke-linejoin="round"/><path fill="#d3e276" stroke="#5c5c39" stroke-width="3.416" stroke-miterlimit="10" d="M414.68 228.67c12.4 10.73 20.3 19.14 20.78 25.66.47 6.56 4.92 22.7 10.1 25.62 5.17 2.96 14-.15 11.76 14.85-2.2 15-3.2 35.66-7.6 31.84-4.37-3.8-11.6-13.15-19.83-12.57-8.2.6-24.27-5.64-29.62.53-5.3 6.1-16.7 8.6-17.5 20.2-.77 11.55-3.2 12.5-2.7 19.1.44 6.6-14.4-4.7-15.2-16.2-.83-11.47.23-19.82 3.55-30.74 3.33-10.9-3.93-20.3 8.08-25.28 12.03-5 21.96-4.03 20.37-14.64-1.6-10.64-11.9-16.47-5.14-26 6.66-9.57 19.38-15.4 22.95-12.37z" stroke-linecap="round" stroke-linejoin="round"/><path fill="#d3e276" stroke="#5c5c39" stroke-width="3.416" stroke-miterlimit="10" d="M610 199.46c-5.88-5.74 2 12.5-.07 18.43-2 5.92 3.9 18.65-1.93 18.24-5.84-.36-6.05-3.64-13.6-5.57-7.56-1.95-18.4-3.64-17.04 3.7 1.38 7.32 13.13 22.1 13.7 30.28.6 8.2.15 14.04-2.84 17.5-3.04 3.5 1.4 19.72 8.37 13.38 6.93-6.2 24.55-1.76 20.88 4.3-3.64 6.03-3.83 15.1-10.76 10.63-6.9-4.42-11.38-9.87-15.22-5.45-3.78 4.38-7.72 7.15-12.27 12.38-4.62 5.3-5.9 10.3-14.05 10.98-8.2.55-15.04-2.24-19.84 10.47-4.85 12.7-9.94 22.16-7.82 28.55 2.12 6.47 8.35 13.4 15.66 12.06 7.33-1.34 24-9.98 20.74 1-3.36 11-42.3 31-52.63 35.9-10.38 4.86-13.3 14.17 18.9 3.58 32.18-10.5 51.33-26.77 60.92-38.43 12.6-15.32 27.4-31.07 34.62-64.87 5.38-25.52 5.23-45.08-.24-63.65-5.45-18.57-12.18-40.35-25.5-53.42z" stroke-linecap="round" stroke-linejoin="round"/><path fill="#be4026" d="M-61.1 258.4C-79.24 101.52 97.83-52.56 287.63 50.3l33.53-39.87 63.08 143.24-164.97-13.38 32.9-41.84c-84.6-56.2-267.6-25.7-253.2 169.84-34.4-2.17-60.07-9.9-60.07-9.9z"/></svg>