<svg xmlns="http://www.w3.org/2000/svg" width="48" height="48" xmlns:xlink="http://www.w3.org/1999/xlink"><defs><linearGradient x1="219.174" x2="248.416" y1="455.632" y2="479.557" gradientUnits="userSpaceOnUse" gradientTransform="translate(-216.016 -443.219)"><stop offset="0" stop-color="#fff"/><stop offset=".074" stop-color="#FEF2DF"/><stop offset=".235" stop-color="#FCD18F"/><stop offset=".388" stop-color="#FAAF3E"/><stop offset="1" stop-color="#CE5C0B"/></linearGradient><linearGradient x1="222.849" x2="252.586" y1="459.717" y2="481.389" gradientUnits="userSpaceOnUse"><stop offset="0" stop-color="#fff"/><stop offset=".074" stop-color="#FEF2DF"/><stop offset=".235" stop-color="#FCD18F"/><stop offset=".388" stop-color="#FAAF3E"/><stop offset="1" stop-color="#CE5C0B"/></linearGradient><linearGradient x1="235.056" x2="240.632" y1="460.675" y2="481.961" gradientUnits="userSpaceOnUse" gradientTransform="translate(-216.016 -443.219)"><stop offset=".399" stop-color="#fff"/><stop offset=".561" stop-color="#FCFDFD"/><stop offset=".678" stop-color="#F3F7F8"/><stop offset=".782" stop-color="#E3ECEF"/><stop offset=".877" stop-color="#CDDDE2"/><stop offset=".966" stop-color="#B0CAD2"/><stop offset="1" stop-color="#A3C1CB"/></linearGradient><linearGradient id="a" x1="-1936.649" x2="-1949.212" y1="1282.36" y2="1282.36" gradientTransform="matrix(-.5 -.866 -.866 .5 382.857 -1864.536)" gradientUnits="userSpaceOnUse"><stop offset="0" stop-color="#FAAF3E"/><stop offset="1" stop-color="#E96712"/></linearGradient><linearGradient x1="225.629" x2="225.803" y1="453.475" y2="454.137" gradientUnits="userSpaceOnUse"><stop offset=".399" stop-color="#fff"/><stop offset=".561" stop-color="#FCFDFD"/><stop offset=".678" stop-color="#F3F7F8"/><stop offset=".782" stop-color="#E3ECEF"/><stop offset=".877" stop-color="#CDDDE2"/><stop offset=".966" stop-color="#B0CAD2"/><stop offset="1" stop-color="#A3C1CB"/></linearGradient><linearGradient id="b" x1="-1936.649" x2="-1949.212" y1="1282.36" y2="1282.36" gradientUnits="userSpaceOnUse" gradientTransform="matrix(-.5 -.866 -.866 .5 382.857 -1864.536)"><stop offset="0" stop-color="#FAAF3E"/><stop offset="1" stop-color="#E96712"/></linearGradient><linearGradient id="c" x1="-1936.649" x2="-1949.212" y1="1282.36" y2="1282.36" xlink:href="#a" gradientUnits="userSpaceOnUse" gradientTransform="matrix(-.73 -2.154 -1.264 1.244 221.737 -5770.778)"/><linearGradient id="d" x1="28.823" x2="35.566" y1="11.716" y2="20.47" xlink:href="#b" gradientUnits="userSpaceOnUse" gradientTransform="matrix(1.459 0 0 2.488 -21.754 -29.603)"/></defs><g><path fill="url(#c)" d="M25.8 35.7l-6.03-17.85s-2.53-5.36-6.17-7.5c-6.65-3.87-13-.3-13-.3l11.2-6.3s8.28-5.03 17.15-1.65c5.6 2.13 7.88 7.8 7.88 7.8l3.8 11.22L25.8 35.7z"/><path fill="url(#d)" stroke="#590b08" d="M38.53 16.35l7.9-6.16c.38-.2.78.15.9.8.05.3.02.65-.07.93v-.03L36.82 46.25c-.35 1.18-1.2 1.64-1.9 1 0 0-22.88-16.5-22.85-16.47l-.03-.03c-.17-.14-.3-.4-.35-.7-.12-.64.1-1.32.46-1.5l9.36-5.75C17.5 8.77 8.32 7.58 1.5 9.5c-.4.17-.7.37-.9.56l11.2-6.3c5.24-3.1 20.65-8.44 26.73 12.6z"/><path fill="none" stroke="#faaf3e" stroke-width="2" d="M35.6 45.6L13.1 29.7" stroke-linecap="round"/><path fill="none" stroke="#faaf3e" stroke-width="2" d="M23.14 21.62c-2.72-8.52-5.96-12.45-14.9-14.4" stroke-linecap="round"/></g></svg>