<svg xmlns="http://www.w3.org/2000/svg" width="48" height="48" xmlns:xlink="http://www.w3.org/1999/xlink"><defs><linearGradient id="a" x1="99.462" x2="99.462" y1="270.69" y2="310.69" gradientUnits="userSpaceOnUse"><stop offset="0" stop-color="#081323"/><stop offset=".644" stop-color="#92aaca"/><stop offset="1" stop-color="#fff" stop-opacity="0"/></linearGradient><radialGradient id="b" cx="100.984" cy="287.15" r="23.913" gradientUnits="userSpaceOnUse" fy="287.15" fx="100.984"><stop offset="0" stop-color="#939393"/><stop offset=".73" stop-color="#e3e4e4"/><stop offset=".978" stop-color="#dbdede" stop-opacity="0"/></radialGradient><linearGradient id="c" x1="99.462" x2="99.462" y1="270.69" y2="310.69" gradientUnits="userSpaceOnUse"><stop offset="0" stop-color="#265596"/><stop offset=".5" stop-color="#92aaca"/><stop offset="1" stop-color="#fff" stop-opacity="0"/></linearGradient><linearGradient id="d" x1="99.462" x2="99.462" y1="270.69" y2="310.69" xlink:href="#a" gradientUnits="userSpaceOnUse"/></defs><g transform="translate(-77.071 -263.063)"><circle cx="100.985" cy="287.15" r="23.913" fill="url(#b)"/><path fill="url(#c)" d="M121.85 292.5v-.96h-5.28v1.5h-8.6v-1.02H95.9v-6.14H84.77v6.98H81.1v4.25h-4.03v5.3h44.78v-9.9"/><path fill="url(#d)" d="M125.07 300.62H123v-5.76h-3.32v2.18h-1.22v2.64H116v-1.6h-1.22V285.7h-6.04v3.8h-3.12v4.5h-2.36v-11.88H92.98v13.7h-.66v-8.22h-4.8l-.02 9.9h-1.13v-2.82H79v5.94h-1.93v10.27h48V300.6z" color="#000" overflow="visible" enable-background="accumulate"/></g></svg>