<svg xmlns="http://www.w3.org/2000/svg" width="48" height="48" xmlns:xlink="http://www.w3.org/1999/xlink"><defs><linearGradient id="d"><stop offset="0"/><stop offset="1" stop-opacity="0"/></linearGradient><linearGradient id="c"><stop offset="0"/><stop offset="1" stop-opacity="0"/></linearGradient><radialGradient id="e" cx="14.592" cy="308.103" r="25.343" gradientUnits="userSpaceOnUse" gradientTransform="matrix(1.098 0 0 1.099 -2.521 -282.545)"><stop offset="0" stop-color="#fff"/><stop offset=".135" stop-color="#F5F5F6"/><stop offset=".366" stop-color="#D9DBDF"/><stop offset=".667" stop-color="#ADB1B8"/><stop offset="1" stop-color="#737B87"/></radialGradient><radialGradient id="f" cx="23.653" cy="285.057" r="14.847" gradientUnits="userSpaceOnUse" gradientTransform="matrix(1.098 0 0 1.099 -2.521 -282.545)"><stop offset=".236" stop-color="#fff"/><stop offset=".339" stop-color="#F5F5F6"/><stop offset=".516" stop-color="#D9DBDF"/><stop offset=".745" stop-color="#ADB1B8"/><stop offset="1" stop-color="#737B87"/></radialGradient><radialGradient id="g" cx="25.267" cy="276.863" r="21.927" gradientUnits="userSpaceOnUse" gradientTransform="matrix(1.098 0 0 1.099 -2.521 -282.545)"><stop offset=".236" stop-color="#fff"/><stop offset=".339" stop-color="#F5F5F6"/><stop offset=".516" stop-color="#D9DBDF"/><stop offset=".745" stop-color="#ADB1B8"/><stop offset="1" stop-color="#737B87"/></radialGradient><radialGradient id="h" cx="42.118" cy="293.325" r="34.899" gradientUnits="userSpaceOnUse" gradientTransform="matrix(1.098 0 0 1.099 -2.521 -282.545)"><stop offset="0" stop-color="#202226"/><stop offset=".098" stop-color="#27292C"/><stop offset=".237" stop-color="#393B3E"/><stop offset=".399" stop-color="#58595C"/><stop offset=".581" stop-color="#828385"/><stop offset=".777" stop-color="#B8B9BA"/><stop offset=".983" stop-color="#F9F9FA"/><stop offset="1" stop-color="#fff"/></radialGradient><radialGradient id="i" cx="28.332" cy="282.962" r="19.709" gradientUnits="userSpaceOnUse" gradientTransform="matrix(1.098 0 0 1.099 -2.521 -282.545)"><stop offset="0" stop-color="#202226"/><stop offset=".098" stop-color="#27292C"/><stop offset=".237" stop-color="#393B3E"/><stop offset=".399" stop-color="#58595C"/><stop offset=".581" stop-color="#828385"/><stop offset=".777" stop-color="#B8B9BA"/><stop offset=".983" stop-color="#F9F9FA"/><stop offset="1" stop-color="#fff"/></radialGradient><linearGradient id="k" x1="5.46" x2="24.183" y1="290.748" y2="290.748" gradientUnits="userSpaceOnUse"><stop offset="0" stop-color="#737B87"/><stop offset=".092" stop-color="#959BA4"/><stop offset=".31" stop-color="#E1E3E5"/><stop offset=".41" stop-color="#fff"/><stop offset=".545" stop-color="#fff"/><stop offset=".592" stop-color="#F5F5F6"/><stop offset=".673" stop-color="#D9DBDF"/><stop offset=".777" stop-color="#ADB1B8"/><stop offset=".893" stop-color="#737B87"/><stop offset=".914" stop-color="#5A616A"/><stop offset=".973" stop-color="#1A1B1E"/><stop offset="1"/></linearGradient><radialGradient cx="48.423" cy="270.186" r="29.698" gradientUnits="userSpaceOnUse" gradientTransform="translate(41.166 -270.904)"><stop offset=".736" stop-color="#A5AAB2"/><stop offset=".757" stop-color="#BABEC4"/><stop offset=".792" stop-color="#D8DADE"/><stop offset=".828" stop-color="#EEEFF0"/><stop offset=".862" stop-color="#FBFBFB"/><stop offset=".893" stop-color="#fff"/><stop offset=".928" stop-color="#DDDFE2"/><stop offset=".976" stop-color="#B5BAC0"/><stop offset="1" stop-color="#A6ABB3"/></radialGradient><radialGradient id="l" cx="40.273" cy="288.241" r="1.52" gradientUnits="userSpaceOnUse" gradientTransform="matrix(1.098 0 0 1.099 -2.521 -282.545)"><stop offset="0" stop-color="#9EE635"/><stop offset=".222" stop-color="#9FE638"/><stop offset=".368" stop-color="#A4E741"/><stop offset=".492" stop-color="#ABE94F"/><stop offset=".605" stop-color="#B5EC65"/><stop offset=".708" stop-color="#C2EF80"/><stop offset=".806" stop-color="#D2F3A2"/><stop offset=".899" stop-color="#E6F8CA"/><stop offset=".986" stop-color="#FBFEF7"/><stop offset="1" stop-color="#fff"/></radialGradient><radialGradient id="m" cx="36.218" cy="291.096" r="1.518" gradientUnits="userSpaceOnUse" gradientTransform="matrix(1.098 0 0 1.099 -2.521 -282.545)"><stop offset="0" stop-color="#ED2728"/><stop offset=".217" stop-color="#ED2A2B"/><stop offset=".36" stop-color="#e33"/><stop offset=".481" stop-color="#EF4142"/><stop offset=".591" stop-color="#F15757"/><stop offset=".692" stop-color="#F37273"/><stop offset=".788" stop-color="#F69494"/><stop offset=".879" stop-color="#F9BCBC"/><stop offset=".964" stop-color="#FDE9E9"/><stop offset="1" stop-color="#fff"/></radialGradient><radialGradient cx="26.488" cy="275.665" r="8.973" gradientUnits="userSpaceOnUse" gradientTransform="translate(41.166 -270.904)"><stop offset="0" stop-color="#fff"/><stop offset=".135" stop-color="#F5F5F6"/><stop offset=".366" stop-color="#D9DBDF"/><stop offset=".667" stop-color="#ADB1B8"/><stop offset="1" stop-color="#737B87"/></radialGradient><radialGradient cx="22.579" cy="256.312" r="11.871" gradientUnits="userSpaceOnUse" gradientTransform="translate(41.166 -270.904)"><stop offset="0" stop-color="#fff"/><stop offset=".112" stop-color="#F5F5F6"/><stop offset=".303" stop-color="#D9DBDE"/><stop offset=".552" stop-color="#ADB1B8"/><stop offset=".845" stop-color="#6F7783"/><stop offset=".86" stop-color="#6C7480"/></radialGradient><radialGradient cx="22.915" cy="256.276" r="14.185" gradientUnits="userSpaceOnUse"><stop offset="0" stop-color="#fff"/><stop offset=".112" stop-color="#F5F5F6"/><stop offset=".303" stop-color="#D9DBDE"/><stop offset=".552" stop-color="#ADB1B8"/><stop offset=".845" stop-color="#6F7783"/><stop offset=".86" stop-color="#6C7480"/></radialGradient><linearGradient id="a"><stop offset="0" stop-color="#ffd7d7"/><stop offset=".333" stop-color="#d84040"/><stop offset="1" stop-color="#6f0808"/></linearGradient><radialGradient id="p" cx="24.017" cy="260.356" r="8.43" xlink:href="#a" fx="24.017" fy="260.356" gradientUnits="userSpaceOnUse" gradientTransform="matrix(-1.02 0 0 -.988 48.527 517.643)"/><linearGradient x1="19.436" x2="22.85" y1="20.357" y2="20.357" xlink:href="#b" gradientUnits="userSpaceOnUse"/><linearGradient id="n" x1="19.436" x2="22.85" y1="20.357" y2="20.357" xlink:href="#b" gradientUnits="userSpaceOnUse" gradientTransform="translate(4.445 -2.501)"/><linearGradient id="o" x1="21" x2="20.929" y1="15.286" y2="21" xlink:href="#c" gradientUnits="userSpaceOnUse" gradientTransform="translate(4.445 -.286)"/><linearGradient id="j" x1="29.143" x2="41.613" y1="21.772" y2="23.494" xlink:href="#d" gradientUnits="userSpaceOnUse" gradientTransform="matrix(.969 .248 -.248 .969 2.954 -2.502)"/></defs><g><path fill="none" stroke="#4c5159" stroke-width="1.7" d="M45.3 33.66c-1.8 3.87-12.43 11.12-21.8 13.45-7.95-3.47-19.3-13.7-20.38-16.18-.08-.66.42-3.48.42-3.48 3.63-2.56 15.34-7.62 18.73-8 2.97-.5 6.28-.5 11.22 1.4 5.18 1.98 10.1 7.42 11.8 12.82z"/><path fill="url(#e)" d="M23.5 47.1C15.55 43.65 4.2 33.4 3.12 30.93c-.1-.66.42-3.48.42-3.48 2.14-.24 5.06.24 9.18 2.75 5.93 3.6 8.77 8.95 10.78 16.9z"/><path fill="url(#f)" d="M22.26 19.43c2.97-.5 6.28-.48 11.22 1.4 3.83 1.46 7.5 4.8 9.86 8.6l-.05.08c1.48 1-20.14 13.55-21.2 12.9-1.95-5.44-4.7-9.36-9.38-12.22-4.12-2.5-7.04-3-9.18-2.74 3.63-2.56 15.34-7.62 18.72-8z"/><path fill="url(#g)" d="M22.26 19.43c2.97-.5 6.28-.48 11.22 1.4 3.83 1.46 7.5 4.8 9.86 8.6l-.05.08c1.48 1-20.14 13.55-21.2 12.9-1.95-5.44-4.7-9.36-9.38-12.22-4.12-2.5-7.04-3-9.18-2.74 3.63-2.56 15.34-7.62 18.72-8z" opacity=".5"/><path fill="url(#h)" d="M43.34 29.43c.84 1.37 1.52 2.8 1.96 4.23-1.8 3.87-12.43 11.12-21.8 13.45-.43-1.67-.9-3.25-1.4-4.7 1.06.65 22.68-11.9 21.2-12.9l.04-.07z"/><path fill="url(#i)" d="M31.67 25.97c0 2.32-2.9 4.2-6.45 4.2-3.56 0-5.9-1.88-5.9-4.2 0-2.3 2.76-4.2 5.9-4.2 3.56 0 6.45 1.9 6.45 4.2z"/><path fill="url(#j)" d="M26.2 23.7c3.76.9 8.23 2.32 11.52 4.65L36.52 33C33 30.83 29.3 28.98 25 28.34l1.2-4.65z" color="#000" overflow="visible" enable-background="accumulate"/><g transform="matrix(1.098 0 0 1.099 -2.521 -282.545)"><linearGradient id="b" x1="5.46" x2="24.183" y1="290.748" y2="290.748" gradientUnits="userSpaceOnUse"><stop offset="0" stop-color="#737B87"/><stop offset=".092" stop-color="#959BA4"/><stop offset=".31" stop-color="#E1E3E5"/><stop offset=".41" stop-color="#fff"/><stop offset=".545" stop-color="#fff"/><stop offset=".592" stop-color="#F5F5F6"/><stop offset=".673" stop-color="#D9DBDF"/><stop offset=".777" stop-color="#ADB1B8"/><stop offset=".893" stop-color="#737B87"/><stop offset=".914" stop-color="#5A616A"/><stop offset=".973" stop-color="#1A1B1E"/><stop offset="1"/></linearGradient><path fill="url(#k)" d="M5.46 281.52l.12 1c2.3-.27 4.92.52 8.04 2.42 4.85 2.95 7.63 7.33 9.6 15.1l.96-.25c-2.03-8.06-4.94-12.6-10.04-15.72-3.32-2-6.16-2.85-8.68-2.56z"/></g><path fill="none" stroke="#fff" stroke-width=".6" d="M38.7 36.6c.35.6 0 1.48-.8 1.94-.8.46-1.74.34-2.1-.28-.35-.62 0-1.5.8-1.95.8-.45 1.74-.33 2.1.3z"/><path fill="none" stroke="#fff" stroke-width=".6" d="M43.14 33.45c.36.62 0 1.5-.8 1.95-.8.46-1.73.34-2.1-.28-.34-.62.02-1.5.8-1.95.82-.46 1.75-.34 2.1.28z"/><path fill="url(#l)" d="M43.14 33.45c.36.62 0 1.5-.8 1.95-.8.46-1.73.34-2.1-.28-.34-.62.02-1.5.8-1.95.82-.46 1.75-.34 2.1.28z"/><path fill="url(#m)" d="M38.7 36.6c.35.6 0 1.48-.8 1.94-.8.46-1.74.34-2.1-.28-.35-.62 0-1.5.8-1.95.8-.45 1.74-.33 2.1.3z"/><path fill="url(#n)" stroke="#33363b" d="M23.02 9.2h5.14v17.3c-1.72 1.56-4.3 1.1-5.14 0V9.2z" color="#000" overflow="visible" enable-background="accumulate"/><path fill="url(#o)" d="M22.6 14.86h5.56v5.85H22.6z" color="#000" overflow="visible" enable-background="accumulate"/><path fill="url(#p)" stroke="#540000" d="M33.52 262.26a7.43 7.43 0 1 1-14.86 0 7.43 7.43 0 1 1 14.86 0z" transform="translate(-.505 -254.173)" color="#000" stroke-linecap="round" overflow="visible" enable-background="accumulate"/></g></svg>