<svg xmlns="http://www.w3.org/2000/svg" width="48" height="48" xmlns:xlink="http://www.w3.org/1999/xlink"><defs><radialGradient id="f" cx="-64.877" cy="220.876" r="14.119" fx="-64.877" fy="220.876" gradientTransform="matrix(-1 0 0 1 55.359 0)" gradientUnits="userSpaceOnUse"><stop offset="0" stop-color="#ffad93"/><stop offset=".586" stop-color="#e5130e"/><stop offset="1" stop-color="#660D0B"/></radialGradient><linearGradient id="d"><stop offset="0" stop-opacity=".586"/><stop offset="1" stop-opacity="0"/></linearGradient><linearGradient id="c"><stop offset="0" stop-color="#bad1e8"/><stop offset="1" stop-color="#6f9fcf"/></linearGradient><radialGradient id="a" cx="-62.017" cy="217.679" r="17.176" fx="-62.017" fy="217.679" gradientTransform="matrix(-1 0 0 1 55.359 0)" gradientUnits="userSpaceOnUse"><stop offset="0" stop-color="#fff"/><stop offset="1" stop-color="#A42522"/></radialGradient><radialGradient id="n" cx="-62.017" cy="217.679" r="17.176" xlink:href="#a" gradientUnits="userSpaceOnUse" gradientTransform="matrix(-1 0 0 1 55.359 0)" fx="-62.017" fy="217.679"/><radialGradient id="b" cx="-64.877" cy="220.876" r="14.119" gradientUnits="userSpaceOnUse" gradientTransform="matrix(-1 0 0 1 55.359 0)" fy="220.876" fx="-64.877"><stop offset="0" stop-color="#ff8e6b"/><stop offset=".826" stop-color="#A40E0A"/><stop offset="1" stop-color="#660D0B"/></radialGradient><radialGradient cx="-64.877" cy="220.876" r="14.119" xlink:href="#b" gradientUnits="userSpaceOnUse" gradientTransform="matrix(-1 0 0 1 55.359 0)" fx="-64.877" fy="220.876"/><linearGradient id="i" x1="7.496" x2="9.71" y1="8.317" y2="33.079" xlink:href="#c" gradientUnits="userSpaceOnUse"/><radialGradient id="h" cx="23.46" cy="45.048" r="9.746" xlink:href="#d" fx="23.46" fy="45.048" gradientTransform="matrix(1 0 0 .277 0 32.575)" gradientUnits="userSpaceOnUse"/><radialGradient cx="-64.877" cy="220.876" r="14.119" xlink:href="#b" gradientUnits="userSpaceOnUse" gradientTransform="matrix(-1 0 0 1 55.359 0)" fx="-64.877" fy="220.876"/><radialGradient cx="-62.017" cy="217.679" r="17.176" xlink:href="#a" gradientUnits="userSpaceOnUse" gradientTransform="matrix(-1 0 0 1 55.359 0)" fx="-62.017" fy="217.679"/><linearGradient id="e" x1="7.496" x2="9.71" y1="8.317" y2="33.079" xlink:href="#c" gradientUnits="userSpaceOnUse" gradientTransform="matrix(1.147 0 0 1.147 32.621 -3.825)"/><mask maskUnits="userSpaceOnUse"><path fill="url(#e)" fill-rule="evenodd" stroke="#000" stroke-width=".5" d="M35.02 8.26l3.14 30.15 12.08-7.64-2.7-28.18-12.52 5.68z"/></mask><radialGradient cx="-64.877" cy="220.876" r="14.119" xlink:href="#b" gradientUnits="userSpaceOnUse" gradientTransform="matrix(-1 0 0 1 55.359 0)" fx="-64.877" fy="220.876"/><radialGradient cx="-62.017" cy="217.679" r="17.176" xlink:href="#a" gradientUnits="userSpaceOnUse" gradientTransform="matrix(-1 0 0 1 55.359 0)" fx="-62.017" fy="217.679"/><radialGradient cx="-64.877" cy="220.876" r="14.119" xlink:href="#b" gradientUnits="userSpaceOnUse" gradientTransform="matrix(-1 0 0 1 55.359 0)" fx="-64.877" fy="220.876"/><radialGradient cx="-62.017" cy="217.679" r="17.176" xlink:href="#a" gradientUnits="userSpaceOnUse" gradientTransform="matrix(-1 0 0 1 55.359 0)" fx="-62.017" fy="217.679"/><radialGradient cx="-64.877" cy="220.876" r="14.119" xlink:href="#b" gradientUnits="userSpaceOnUse" gradientTransform="matrix(-1 0 0 1 55.359 0)" fx="-64.877" fy="220.876"/><radialGradient cx="-62.017" cy="217.679" r="17.176" xlink:href="#a" gradientUnits="userSpaceOnUse" gradientTransform="matrix(-1 0 0 1 55.359 0)" fx="-62.017" fy="217.679"/><linearGradient x1="7.496" x2="9.71" y1="8.317" y2="33.079" xlink:href="#c" gradientUnits="userSpaceOnUse" gradientTransform="matrix(1.429 0 0 1.429 31.435 -8.857)"/><linearGradient x1="7.496" x2="9.71" y1="8.317" y2="33.079" xlink:href="#c" gradientUnits="userSpaceOnUse" gradientTransform="matrix(1.729 0 0 1.729 -4.683 -4.079)"/><linearGradient x1="7.496" x2="9.71" y1="8.317" y2="33.079" xlink:href="#c" gradientUnits="userSpaceOnUse" gradientTransform="matrix(1.429 0 0 1.429 -25.923 -8.857)"/><radialGradient id="m" cx="-64.877" cy="220.876" r="14.119" xlink:href="#f" gradientUnits="userSpaceOnUse" gradientTransform="matrix(-1 0 0 1 55.359 0)" fx="-64.877" fy="220.876"/><linearGradient x1="7.496" x2="9.71" y1="8.317" y2="33.079" xlink:href="#c" gradientUnits="userSpaceOnUse"/><linearGradient x1="7.496" x2="9.71" y1="8.317" y2="33.079" xlink:href="#c" gradientUnits="userSpaceOnUse"/><linearGradient x1="7.496" x2="9.71" y1="8.317" y2="33.079" xlink:href="#c" gradientUnits="userSpaceOnUse"/><radialGradient cx="-64.877" cy="220.876" r="14.119" xlink:href="#f" gradientUnits="userSpaceOnUse" gradientTransform="matrix(-1 0 0 1 55.359 0)" fx="-64.877" fy="220.876"/><radialGradient cx="-62.017" cy="217.679" r="17.176" xlink:href="#a" gradientUnits="userSpaceOnUse" gradientTransform="matrix(-1 0 0 1 55.359 0)" fx="-62.017" fy="217.679"/><radialGradient cx="-64.877" cy="220.876" r="14.119" xlink:href="#f" gradientUnits="userSpaceOnUse" gradientTransform="matrix(-1 0 0 1 55.359 0)" fx="-64.877" fy="220.876"/><radialGradient cx="-62.017" cy="217.679" r="17.176" xlink:href="#a" gradientUnits="userSpaceOnUse" gradientTransform="matrix(-1 0 0 1 55.359 0)" fx="-62.017" fy="217.679"/><radialGradient cx="-64.877" cy="220.876" r="14.119" xlink:href="#f" gradientUnits="userSpaceOnUse" gradientTransform="matrix(-1 0 0 1 55.359 0)" fx="-64.877" fy="220.876"/><radialGradient cx="-62.017" cy="217.679" r="17.176" xlink:href="#a" gradientUnits="userSpaceOnUse" gradientTransform="matrix(-1 0 0 1 55.359 0)" fx="-62.017" fy="217.679"/><radialGradient cx="-64.877" cy="220.876" r="14.119" xlink:href="#f" gradientUnits="userSpaceOnUse" gradientTransform="matrix(-1 0 0 1 55.359 0)" fx="-64.877" fy="220.876"/><radialGradient cx="-62.017" cy="217.679" r="17.176" xlink:href="#a" gradientUnits="userSpaceOnUse" gradientTransform="matrix(-1 0 0 1 55.359 0)" fx="-62.017" fy="217.679"/><radialGradient id="j" cx="-64.877" cy="220.876" r="14.119" xlink:href="#f" gradientUnits="userSpaceOnUse" gradientTransform="matrix(-1 0 0 1 55.359 0)" fx="-64.877" fy="220.876"/><radialGradient cx="-62.017" cy="217.679" r="17.176" xlink:href="#a" gradientUnits="userSpaceOnUse" gradientTransform="matrix(-1 0 0 1 55.359 0)" fx="-62.017" fy="217.679"/><radialGradient cx="-64.877" cy="220.876" r="14.119" xlink:href="#g" gradientUnits="userSpaceOnUse" gradientTransform="matrix(-1 0 0 1 55.359 0)" fx="-64.877" fy="220.876"/><radialGradient id="g" cx="-64.877" cy="220.876" r="14.119" fx="-64.877" fy="220.876" gradientTransform="matrix(-1 0 0 1 55.359 0)" gradientUnits="userSpaceOnUse"><stop offset="0" stop-color="#ffad93"/><stop offset=".586" stop-color="#e5130e"/><stop offset="1" stop-color="#660D0B"/></radialGradient><radialGradient id="k" cx="-64.877" cy="220.876" r="14.119" fy="220.876" fx="-64.877" gradientTransform="matrix(-1 0 0 1 55.359 0)" gradientUnits="userSpaceOnUse" xlink:href="#g"/><radialGradient cx="-64.877" cy="220.876" r="14.119" xlink:href="#g" gradientUnits="userSpaceOnUse" gradientTransform="matrix(-1 0 0 1 55.359 0)" fx="-64.877" fy="220.876"/><radialGradient id="l" cx="-71.678" cy="221.249" r="14.119" xlink:href="#f" gradientUnits="userSpaceOnUse" gradientTransform="matrix(.682 0 0 .682 88.295 -128.633)" fx="-71.678" fy="221.249"/></defs><g><path fill="url(#h)" fill-rule="evenodd" d="M33.2 45.05a9.75 2.7 0 1 1-19.5 0 9.75 2.7 0 1 1 19.5 0z" transform="matrix(1.152 0 0 1.152 -3.586 -7.136)" overflow="visible" enable-background="accumulate"/><path fill="#d3d7cf" fill-rule="evenodd" stroke="#000" d="M16.06 31.37l-12.5 8L.5 9.6l12.64-5.73h21.72L47.5 9.6l-3.06 29.77-12.5-8H16.06z"/><path fill="url(#i)" fill-rule="evenodd" stroke="#000" stroke-width=".5" d="M45.9 10.54l-2.73 26.3-10.54-6.68L34.98 5.6l10.92 4.94z" color="#000" overflow="visible" enable-background="accumulate"/><path fill="url(#i)" fill-rule="evenodd" stroke="#000" stroke-width=".5" d="M16.83 29.78L14.6 5.08h19.05l-2.4 24.5-14.42.2z" color="#000" overflow="visible" enable-background="accumulate"/><path fill="url(#i)" fill-rule="evenodd" stroke="#000" stroke-width=".5" d="M2.1 10.54l2.73 26.3 10.54-6.68L13.02 5.6 2.1 10.53z"/><path fill="url(#j)" stroke="#470907" stroke-width="1.761" d="M132.4 224.7c0 5.2-4.23 9.44-9.44 9.44-.64 0-1.26-.07-1.85-.18-.3-2.07-1.27-14.95-1.7-18 1.1-.46 2.3-.7 3.56-.7 5.2 0 9.44 4.22 9.44 9.43z" transform="matrix(.682 0 0 .682 -78.215 -128.57)"/><circle cx="122.958" cy="224.694" r="9.443" fill="url(#k)" stroke="#470907" stroke-width="1.761" transform="matrix(.682 0 0 .682 -59.676 -135.871)"/><path fill="url(#l)" stroke="#470907" stroke-width="1.2" d="M35.8 24.5c0 3.56 2.87 6.44 6.42 6.44.44 0 .86-.04 1.27-.12.2-1.4.85-10.2 1.16-12.27-.75-.3-1.58-.48-2.44-.48-3.55 0-6.43 2.88-6.43 6.44z"/><path fill="url(#i)" fill-rule="evenodd" stroke="#000" stroke-width=".5" d="M45.9 10.54l-2.73 26.3-10.54-6.68L34.98 5.6l10.92 4.94z" opacity=".65" color="#000" overflow="visible" enable-background="accumulate"/><path fill="#d9e5f3" fill-opacity=".689" fill-rule="evenodd" d="M44.76 19.1l-6.1-11.54-3.5-1.6-.3 4.33 9 17 .9-8.2z"/><path fill="#d9e5f3" fill-opacity=".689" fill-rule="evenodd" d="M43.68 29.65l-9.2-16.57-.26 3.8 9.15 15.63.3-2.85z" overflow="visible" enable-background="accumulate"/><path fill="url(#i)" fill-rule="evenodd" stroke="#000" stroke-width=".5" d="M16.83 29.78L14.6 5.08h19.05l-2.4 24.5-14.42.2z" opacity=".65" color="#000" overflow="visible" enable-background="accumulate"/><path fill="url(#i)" fill-rule="evenodd" stroke="#000" stroke-width=".5" d="M2.1 10.54l2.73 26.3 10.54-6.68L13.02 5.6 2.1 10.53z" opacity=".65"/><g transform="matrix(1.143 0 0 1.143 -116.907 -222.428)"><circle cx="122.958" cy="224.694" r="9.443" fill="url(#m)" stroke="#470907" stroke-width="1.051"/><g><radialGradient cx="-62.017" cy="217.679" r="17.176" fx="-62.017" fy="217.679" gradientTransform="matrix(-1 0 0 1 55.359 0)" gradientUnits="userSpaceOnUse"><stop offset="0" stop-color="#fff"/><stop offset="1" stop-color="#A42522"/></radialGradient><path fill="url(#n)" d="M122.96 215.5c-5.07 0-9.2 4.12-9.2 9.2 0 5.06 4.13 9.2 9.2 9.2 5.07 0 9.2-4.14 9.2-9.2 0-5.08-4.13-9.2-9.2-9.2zm0 17.76c-4.73 0-8.57-3.84-8.57-8.57s3.83-8.57 8.56-8.57c4.72 0 8.57 3.84 8.57 8.56 0 4.72-3.85 8.56-8.57 8.56z"/></g></g></g></svg>