<svg xmlns="http://www.w3.org/2000/svg" width="48" height="48" xmlns:xlink="http://www.w3.org/1999/xlink"><defs><linearGradient id="f"><stop offset="0" stop-color="#5f2300"/><stop offset="1"/></linearGradient><linearGradient id="e"><stop offset="0"/><stop offset="1" stop-color="#2e3436"/></linearGradient><linearGradient id="d"><stop offset="0"/><stop offset="1" stop-color="#292e30"/></linearGradient><linearGradient id="c"><stop offset="0" stop-color="#ffb8a0"/><stop offset="1" stop-color="#2e3436" stop-opacity="0"/></linearGradient><linearGradient id="b"><stop offset="0" stop-color="#eeeeec"/><stop offset="1" stop-color="#eeeeec" stop-opacity="0"/></linearGradient><linearGradient id="a"><stop offset="0" stop-color="#ffb6a6"/><stop offset=".5" stop-color="#ffb6a6" stop-opacity=".309"/><stop offset="1" stop-color="#ffb6a6" stop-opacity="0"/></linearGradient><linearGradient><stop offset="0" stop-color="#a40000" stop-opacity="0"/><stop offset="1" stop-color="#a40000"/></linearGradient><linearGradient><stop offset="0" stop-color="#ef2929"/><stop offset="1" stop-color="#c00" stop-opacity="0"/></linearGradient><radialGradient cx="7.429" cy="10.143" r="7.357" xlink:href="#a" fx="7.429" fy="10.143" gradientTransform="matrix(.796 0 0 .816 1.515 1.871)" gradientUnits="userSpaceOnUse"/><radialGradient cx="16" cy="17.286" r="6.857" xlink:href="#b" fx="16" fy="17.286" gradientTransform="matrix(1 0 0 1.042 0 -.72)" gradientUnits="userSpaceOnUse"/><radialGradient cx="39.143" cy="21.571" r="2.714" xlink:href="#c" fx="39.143" fy="21.571" gradientUnits="userSpaceOnUse"/><radialGradient cx="16" cy="17.286" r="6.857" xlink:href="#b" gradientUnits="userSpaceOnUse" gradientTransform="matrix(1 0 0 1.042 0 -.72)" fx="16" fy="17.286"/><radialGradient cx="16" cy="17.286" r="6.857" xlink:href="#b" gradientUnits="userSpaceOnUse" gradientTransform="matrix(1 0 0 1.042 0 -.72)" fx="16" fy="17.286"/><radialGradient cx="16" cy="17.286" r="6.857" xlink:href="#b" gradientUnits="userSpaceOnUse" gradientTransform="matrix(1 0 0 1.042 0 -.72)" fx="16" fy="17.286"/><radialGradient cx="39.143" cy="21.571" r="2.714" xlink:href="#c" gradientUnits="userSpaceOnUse" fx="39.143" fy="21.571"/><radialGradient cx="16" cy="17.286" r="6.857" xlink:href="#b" gradientUnits="userSpaceOnUse" gradientTransform="matrix(1 0 0 1.042 0 -.72)" fx="16" fy="17.286"/><radialGradient cx="16" cy="17.286" r="6.857" xlink:href="#b" gradientUnits="userSpaceOnUse" gradientTransform="matrix(1 0 0 1.042 0 -.72)" fx="16" fy="17.286"/><radialGradient cx="16" cy="17.286" r="6.857" xlink:href="#b" gradientUnits="userSpaceOnUse" gradientTransform="matrix(1 0 0 1.042 0 -.72)" fx="16" fy="17.286"/><radialGradient cx="16" cy="17.286" r="6.857" xlink:href="#b" gradientUnits="userSpaceOnUse" gradientTransform="matrix(1 0 0 1.042 0 -.72)" fx="16" fy="17.286"/><radialGradient cx="16" cy="17.286" r="6.857" xlink:href="#b" gradientUnits="userSpaceOnUse" gradientTransform="matrix(1 0 0 1.042 0 -.72)" fx="16" fy="17.286"/><radialGradient cx="3.714" cy="24.429" r="3.571" xlink:href="#d" fx="3.714" fy="24.429" gradientUnits="userSpaceOnUse"/><radialGradient cx="16" cy="17.286" r="6.857" xlink:href="#b" gradientUnits="userSpaceOnUse" gradientTransform="matrix(1 0 0 1.042 0 -.72)" fx="16" fy="17.286"/><radialGradient cx="3.714" cy="24.429" r="3.571" xlink:href="#d" gradientUnits="userSpaceOnUse" fx="3.714" fy="24.429"/><radialGradient cx="16" cy="17.286" r="6.857" xlink:href="#b" gradientUnits="userSpaceOnUse" gradientTransform="matrix(1 0 0 1.042 0 -.72)" fx="16" fy="17.286"/><radialGradient cx="3.714" cy="24.429" r="3.571" xlink:href="#d" gradientUnits="userSpaceOnUse" fx="3.714" fy="24.429"/><radialGradient cx="16" cy="17.286" r="6.857" xlink:href="#b" gradientUnits="userSpaceOnUse" gradientTransform="matrix(1 0 0 1.042 0 -.72)" fx="16" fy="17.286"/><radialGradient cx="3.714" cy="24.429" r="3.571" xlink:href="#d" gradientUnits="userSpaceOnUse" fx="3.714" fy="24.429"/><radialGradient cx="39.143" cy="21.571" r="2.714" xlink:href="#c" gradientUnits="userSpaceOnUse" fx="39.143" fy="21.571"/><radialGradient cx="39.143" cy="21.571" r="2.714" xlink:href="#c" gradientUnits="userSpaceOnUse" fx="39.143" fy="21.571"/><radialGradient cx="16" cy="17.286" r="6.857" xlink:href="#b" gradientUnits="userSpaceOnUse" gradientTransform="matrix(1 0 0 1.042 0 -.72)" fx="16" fy="17.286"/><radialGradient cx="7.429" cy="10.143" r="7.357" xlink:href="#a" gradientUnits="userSpaceOnUse" gradientTransform="matrix(.796 0 0 .816 1.515 1.871)" fx="7.429" fy="10.143"/><radialGradient cx="16" cy="17.286" r="6.857" xlink:href="#b" gradientUnits="userSpaceOnUse" gradientTransform="matrix(1 0 0 1.042 0 -.72)" fx="16" fy="17.286"/><radialGradient id="h" cx="16" cy="17.286" r="6.857" xlink:href="#b" gradientUnits="userSpaceOnUse" gradientTransform="matrix(1 0 0 1.042 0 -.72)" fx="16" fy="17.286"/><radialGradient id="i" cx="3.714" cy="24.429" r="3.571" xlink:href="#d" gradientUnits="userSpaceOnUse" fx="3.714" fy="24.429"/><radialGradient id="j" cx="16" cy="17.286" r="6.857" xlink:href="#b" gradientUnits="userSpaceOnUse" gradientTransform="matrix(1 0 0 1.042 0 -.72)" fx="16" fy="17.286"/><radialGradient id="k" cx="3.714" cy="24.429" r="3.571" xlink:href="#d" gradientUnits="userSpaceOnUse" fx="3.714" fy="24.429"/><radialGradient id="l" cx="16" cy="17.286" r="6.857" xlink:href="#b" gradientUnits="userSpaceOnUse" gradientTransform="matrix(1 0 0 1.042 0 -.72)" fx="16" fy="17.286"/><radialGradient id="m" cx="3.714" cy="24.429" r="3.571" xlink:href="#d" gradientUnits="userSpaceOnUse" fx="3.714" fy="24.429"/><radialGradient cx="39.143" cy="21.571" r="2.714" xlink:href="#c" gradientUnits="userSpaceOnUse" fx="39.143" fy="21.571"/><radialGradient id="o" cx="39.143" cy="21.571" r="2.714" xlink:href="#c" gradientUnits="userSpaceOnUse" fx="39.143" fy="21.571"/><radialGradient cx="16" cy="17.286" r="6.857" xlink:href="#b" gradientUnits="userSpaceOnUse" gradientTransform="matrix(1 0 0 1.042 0 -.72)" fx="16" fy="17.286"/><radialGradient id="r" cx="7.429" cy="10.143" r="7.357" xlink:href="#a" gradientUnits="userSpaceOnUse" gradientTransform="matrix(.796 0 0 .816 1.515 1.871)" fx="7.429" fy="10.143"/><radialGradient id="p" cx="16" cy="17.286" r="6.857" xlink:href="#b" gradientUnits="userSpaceOnUse" gradientTransform="matrix(1 0 0 1.042 0 -.72)" fx="16" fy="17.286"/><radialGradient id="q" cx="3.714" cy="24.429" r="3.571" xlink:href="#e" fx="3.714" fy="24.429" gradientUnits="userSpaceOnUse"/><radialGradient id="g" cx="8.347" cy="11.638" r="23.927" xlink:href="#f" fx="8.347" fy="11.638" gradientTransform="matrix(-1.55 -.005 .004 -1.166 21.238 25.23)" gradientUnits="userSpaceOnUse"/><radialGradient id="n" cx="39.143" cy="21.571" r="2.714" xlink:href="#c" gradientUnits="userSpaceOnUse" fx="39.143" fy="21.571"/></defs><g fill-rule="evenodd" color="#000"><path fill="url(#g)" d="M.2.06h47.84v47.96H.2z" overflow="visible"/><path fill="url(#h)" d="M22.86 17.3a6.86 7.14 0 1 1-13.72 0 6.86 7.14 0 1 1 13.72 0z" transform="matrix(1.284 0 0 1.284 10.296 7.951)" overflow="visible"/><path fill="url(#i)" d="M7.3 24.43a3.57 3.57 0 1 1-7.16 0 3.57 3.57 0 1 1 7.15 0z" transform="matrix(1.736 0 0 1.736 24.397 -12.51)" overflow="visible"/><path fill="url(#j)" d="M22.86 17.3a6.86 7.14 0 1 1-13.72 0 6.86 7.14 0 1 1 13.72 0z" transform="matrix(.455 0 0 .455 17.679 17.073)" overflow="visible"/><path fill="url(#k)" d="M7.3 24.43a3.57 3.57 0 1 1-7.16 0 3.57 3.57 0 1 1 7.15 0z" transform="matrix(.55 0 0 .55 22.912 11.422)" overflow="visible"/><path fill="url(#l)" d="M22.86 17.3a6.86 7.14 0 1 1-13.72 0 6.86 7.14 0 1 1 13.72 0z" transform="matrix(1.142 0 0 1.142 .184 -.346)" overflow="visible"/><path fill="url(#m)" d="M7.3 24.43a3.57 3.57 0 1 1-7.16 0 3.57 3.57 0 1 1 7.15 0z" transform="matrix(1.142 0 0 1.142 14.21 -8.664)" overflow="visible"/><path fill="url(#n)" d="M41.86 21.57a2.7 2.7 0 1 1-5.43 0 2.7 2.7 0 1 1 5.43 0z" transform="matrix(1.374 0 0 1.374 -30.439 -6.337)" overflow="visible"/><path fill="url(#o)" d="M41.86 21.57a2.7 2.7 0 1 1-5.43 0 2.7 2.7 0 1 1 5.43 0z" transform="matrix(1.382 0 0 1.382 -19.662 2.624)" overflow="visible"/><path fill="url(#p)" d="M22.86 17.3a6.86 7.14 0 1 1-13.72 0 6.86 7.14 0 1 1 13.72 0z" transform="matrix(.809 0 0 .809 30.124 26.113)" overflow="visible"/><path fill="url(#q)" d="M7.3 24.43a3.57 3.57 0 1 1-7.16 0 3.57 3.57 0 1 1 7.15 0z" transform="matrix(1.093 0 0 1.093 39.003 13.229)" overflow="visible"/><path fill="url(#r)" d="M13.3 10.14a5.86 6 0 1 1-11.73 0 5.86 6 0 1 1 11.72 0z" transform="matrix(1.142 0 0 1.142 .184 -.346)" overflow="visible"/><path fill="#fff" d="M17.94 18.9L9.2 12.27l7.1 8.33-7.24-8.22 5.28 9.6-5.43-9.54 3.25 10.46-3.4-10.42 1.07 10.9-1.23-10.9-1.15 10.9.98-10.93-3.3 10.43 3.15-10.5-5.34 9.56 5.2-9.65L1 20.57l7.03-8.4-8.68 6.67 8.6-6.8-9.85 4.78 9.8-4.94-10.62 2.7 10.58-2.87-10.93.52 10.94-.68-10.82-1.7L7.9 11.4-2.34 7.58l10.33 3.7-9.28-5.83 9.38 5.7L.16 3.55l8.04 7.47-6.23-9 6.37 8.92L4.04.87 8.5 10.9 6.3.16l2.33 10.72L8.7-.07 8.8 10.9 11.06.16l-2.1 10.77L13.33.9 9.12 11l6.28-8.97-6.16 9.07L17.2 3.6l-7.86 7.65 9.3-5.76-9.23 5.9L19.7 7.6 9.44 11.55l10.83-1.62L9.46 11.7l10.94.6-10.96-.43 10.6 2.78-10.65-2.63 9.8 4.86-9.9-4.72 8.64 6.73z" overflow="visible"/></g></svg>