<svg xmlns="http://www.w3.org/2000/svg" width="48" height="48" xmlns:xlink="http://www.w3.org/1999/xlink" xmlns:sodipodi="http://inkscape.sourceforge.net/DTD/sodipodi-0.dtd" sodipodi:version=".32" version="1" sodipodi:docbase="e:\dev_clean\src\houdini\support\icons\obj" sodipodi:docname="light_point.svg"><defs><linearGradient><stop offset="0" stop-color="#937910" stop-opacity="0"/><stop offset=".491" stop-color="#937910" stop-opacity="0"/><stop offset="1" stop-color="#937910"/></linearGradient><linearGradient id="R" x1="111.165" x2="111.165" y1="402.034" y2="403.444" xlink:href="#a" gradientUnits="userSpaceOnUse" gradientTransform="matrix(1.411 0 0 1.411 -132.84 -534.892)"/><linearGradient id="Q" x1="105.516" x2="116.824" y1="409.506" y2="409.506" xlink:href="#b" gradientUnits="userSpaceOnUse" gradientTransform="matrix(1.411 0 0 1.411 -132.84 -534.892)"/><linearGradient id="P" x1="105.517" x2="116.825" y1="408.746" y2="408.746" xlink:href="#c" gradientUnits="userSpaceOnUse" gradientTransform="matrix(1.411 0 0 1.411 -132.84 -534.892)"/><linearGradient id="O" x1="105.516" x2="116.825" y1="408.908" y2="408.908" xlink:href="#d" gradientUnits="userSpaceOnUse" gradientTransform="matrix(1.411 0 0 1.411 -132.84 -534.892)"/><linearGradient id="N" x1="105.517" x2="116.824" y1="405.265" y2="405.265" xlink:href="#e" gradientUnits="userSpaceOnUse" gradientTransform="matrix(1.411 0 0 1.411 -132.84 -534.892)"/><linearGradient id="M" x1="105.517" x2="116.825" y1="404.161" y2="404.161" xlink:href="#f" gradientUnits="userSpaceOnUse" gradientTransform="matrix(1.411 0 0 1.411 -132.84 -534.892)"/><linearGradient id="L" x1="105.516" x2="116.825" y1="404.348" y2="404.348" xlink:href="#g" gradientUnits="userSpaceOnUse" gradientTransform="matrix(1.411 0 0 1.411 -132.84 -534.892)"/><linearGradient id="K" x1="105.517" x2="116.824" y1="407.217" y2="407.217" xlink:href="#h" gradientUnits="userSpaceOnUse"/><linearGradient id="J" x1="105.517" x2="116.825" y1="406.136" y2="406.136" xlink:href="#i" gradientUnits="userSpaceOnUse"/><linearGradient id="I" x1="105.517" x2="116.825" y1="406.309" y2="406.309" xlink:href="#j" gradientUnits="userSpaceOnUse"/><radialGradient id="H" cx="110.936" cy="384.101" r="49.543" xlink:href="#k" gradientUnits="userSpaceOnUse" gradientTransform="matrix(1.411 0 0 1.531 -132.84 -584.255)" fx="110.936" fy="384.101"/><radialGradient id="G" cx="116.566" cy="388.978" r="26.146" xlink:href="#l" gradientUnits="userSpaceOnUse" gradientTransform="matrix(1.411 0 0 1.531 -132.84 -584.255)" fx="116.566" fy="388.978"/><linearGradient id="F" x1="106.368" x2="115.906" y1="409.508" y2="409.508" xlink:href="#m" gradientUnits="userSpaceOnUse" gradientTransform="matrix(1.411 0 0 1.411 -132.84 -534.892)"/><linearGradient id="E" x1="106.368" x2="115.904" y1="405.266" y2="405.266" xlink:href="#n" gradientUnits="userSpaceOnUse" gradientTransform="matrix(1.411 0 0 1.411 -132.84 -534.892)"/><linearGradient id="D" x1="106.368" x2="115.904" y1="407.218" y2="407.218" xlink:href="#o" gradientUnits="userSpaceOnUse" gradientTransform="matrix(1.411 0 0 1.411 -132.84 -534.892)"/><radialGradient id="C" cx="111.45" cy="398.607" r="15.925" xlink:href="#p" gradientUnits="userSpaceOnUse" gradientTransform="matrix(1.411 0 0 1.531 -132.84 -584.255)" fx="111.45" fy="398.607"/><radialGradient cx="111.324" cy="388.555" r="21.767" gradientUnits="userSpaceOnUse" fy="388.555" fx="111.324"><stop offset="0" stop-color="#EFEEEC"/><stop offset=".624" stop-color="#F6E94E"/><stop offset="1" stop-color="#EBD50E"/></radialGradient><radialGradient cx="111.323" cy="388.555" r="21.767" gradientUnits="userSpaceOnUse" fy="388.555" fx="111.323"><stop offset="0" stop-color="#EFEEEC"/><stop offset=".624" stop-color="#F6E94E"/><stop offset="1" stop-color="#EBD50E"/></radialGradient><radialGradient cx="111.323" cy="388.556" r="21.766" gradientUnits="userSpaceOnUse" fy="388.556" fx="111.323"><stop offset="0" stop-color="#EFEEEC"/><stop offset=".624" stop-color="#F6E94E"/><stop offset="1" stop-color="#EBD50E"/></radialGradient><radialGradient cx="111.323" cy="388.555" r="21.767" gradientUnits="userSpaceOnUse" fy="388.555" fx="111.323"><stop offset="0" stop-color="#EFEEEC"/><stop offset=".624" stop-color="#F6E94E"/><stop offset="1" stop-color="#EBD50E"/></radialGradient><radialGradient cx="111.323" cy="388.552" r="21.768" gradientUnits="userSpaceOnUse" fy="388.552" fx="111.323"><stop offset="0" stop-color="#EFEEEC"/><stop offset=".624" stop-color="#F6E94E"/><stop offset="1" stop-color="#EBD50E"/></radialGradient><radialGradient id="u" cx="111.321" cy="388.557" r="21.763" gradientUnits="userSpaceOnUse" fy="388.557" fx="111.321"><stop offset="0" stop-color="#fff"/><stop offset=".585" stop-color="#fff"/><stop offset="1" stop-color="#EBD50E"/></radialGradient><radialGradient cx="111.325" cy="388.554" r="21.768" gradientUnits="userSpaceOnUse" fy="388.554" fx="111.325"><stop offset="0" stop-color="#EFEEEC"/><stop offset=".624" stop-color="#F6E94E"/><stop offset="1" stop-color="#EBD50E"/></radialGradient><linearGradient id="b" x1="105.516" x2="116.824" y1="409.506" y2="409.506" gradientUnits="userSpaceOnUse"><stop offset="0" stop-color="#545652"/><stop offset=".286" stop-color="#888A85"/><stop offset=".635" stop-color="#888A85"/><stop offset="1" stop-color="#545652"/></linearGradient><linearGradient id="c" x1="105.517" x2="116.825" y1="408.746" y2="408.746" gradientUnits="userSpaceOnUse"><stop offset="0" stop-color="#545652"/><stop offset=".286" stop-color="#888A85"/><stop offset=".635" stop-color="#888A85"/><stop offset="1" stop-color="#545652"/></linearGradient><linearGradient id="d" x1="105.516" x2="116.825" y1="408.908" y2="408.908" gradientUnits="userSpaceOnUse"><stop offset="0" stop-color="#545652"/><stop offset=".286" stop-color="#888A85"/><stop offset=".635" stop-color="#888A85"/><stop offset="1" stop-color="#545652"/></linearGradient><linearGradient id="e" x1="105.517" x2="116.824" y1="405.265" y2="405.265" gradientUnits="userSpaceOnUse"><stop offset="0" stop-color="#545652"/><stop offset=".286" stop-color="#888A85"/><stop offset=".635" stop-color="#888A85"/><stop offset="1" stop-color="#545652"/></linearGradient><linearGradient id="f" x1="105.517" x2="116.825" y1="404.161" y2="404.161" gradientUnits="userSpaceOnUse"><stop offset="0" stop-color="#545652"/><stop offset=".286" stop-color="#888A85"/><stop offset=".635" stop-color="#888A85"/><stop offset="1" stop-color="#545652"/></linearGradient><linearGradient id="g" x1="105.516" x2="116.825" y1="404.348" y2="404.348" gradientUnits="userSpaceOnUse"><stop offset="0" stop-color="#545652"/><stop offset=".286" stop-color="#888A85"/><stop offset=".635" stop-color="#888A85"/><stop offset="1" stop-color="#545652"/></linearGradient><linearGradient id="h" x1="105.517" x2="116.824" y1="407.217" y2="407.217" gradientUnits="userSpaceOnUse"><stop offset="0" stop-color="#545652"/><stop offset=".286" stop-color="#888A85"/><stop offset=".635" stop-color="#888A85"/><stop offset="1" stop-color="#545652"/></linearGradient><linearGradient id="i" x1="105.517" x2="116.825" y1="406.136" y2="406.136" gradientUnits="userSpaceOnUse"><stop offset="0" stop-color="#545652"/><stop offset=".286" stop-color="#888A85"/><stop offset=".635" stop-color="#888A85"/><stop offset="1" stop-color="#545652"/></linearGradient><linearGradient id="j" x1="105.517" x2="116.825" y1="406.309" y2="406.309" gradientUnits="userSpaceOnUse"><stop offset="0" stop-color="#545652"/><stop offset=".286" stop-color="#888A85"/><stop offset=".635" stop-color="#888A85"/><stop offset="1" stop-color="#545652"/></linearGradient><radialGradient id="k" cx="110.936" cy="384.101" r="49.543" gradientUnits="userSpaceOnUse" gradientTransform="matrix(1 0 0 1.085 0 -34.977)" fy="384.101" fx="110.936"><stop offset="0" stop-color="#888A85"/><stop offset="1" stop-color="#545652"/></radialGradient><radialGradient id="l" cx="116.566" cy="388.978" r="26.146" gradientUnits="userSpaceOnUse" gradientTransform="matrix(1 0 0 1.085 0 -34.977)" fy="388.978" fx="116.566"><stop offset="0" stop-color="#fff"/><stop offset="1" stop-color="#F5F2C4"/></radialGradient><radialGradient id="p" cx="111.45" cy="398.607" r="15.925" gradientUnits="userSpaceOnUse" gradientTransform="matrix(1 0 0 1.085 0 -34.977)" fy="398.607" fx="111.45"><stop offset="0" stop-color="#fff"/><stop offset=".079" stop-color="#FEFEF8"/><stop offset=".182" stop-color="#FDFBE7"/><stop offset=".298" stop-color="#FAF5CA"/><stop offset=".424" stop-color="#F5EEA2"/><stop offset=".559" stop-color="#F0E473"/><stop offset=".698" stop-color="#E9D73B"/><stop offset=".809" stop-color="#E4CD10"/></radialGradient><linearGradient id="m" x1="106.368" x2="115.906" y1="409.508" y2="409.508" gradientUnits="userSpaceOnUse"><stop offset="0" stop-color="#EFEEEC"/><stop offset=".601" stop-color="#BABDB6"/></linearGradient><linearGradient id="a" x1="111.165" x2="111.165" y1="402.034" y2="403.444" gradientUnits="userSpaceOnUse"><stop offset="0" stop-color="#BABDB6"/><stop offset="1" stop-color="#545652"/></linearGradient><linearGradient id="n" x1="106.368" x2="115.904" y1="405.266" y2="405.266" gradientUnits="userSpaceOnUse"><stop offset="0" stop-color="#EFEEEC"/><stop offset=".601" stop-color="#BABDB6"/></linearGradient><linearGradient id="o" x1="106.368" x2="115.904" y1="407.218" y2="407.218" gradientUnits="userSpaceOnUse"><stop offset="0" stop-color="#EFEEEC"/><stop offset=".601" stop-color="#BABDB6"/></linearGradient><linearGradient id="t"><stop offset="0" stop-color="#f57900"/><stop offset="1" stop-color="#f57900" stop-opacity="0"/></linearGradient><linearGradient><stop offset="0" stop-color="#f3b600"/><stop offset="1" stop-color="#f9cd05" stop-opacity="0"/></linearGradient><linearGradient><stop offset="0" stop-color="#edd400"/><stop offset="1" stop-color="#edd400" stop-opacity="0"/></linearGradient><linearGradient><stop offset="0" stop-color="#edd400"/><stop offset="1" stop-color="#edd400" stop-opacity="0"/></linearGradient><linearGradient><stop offset="0"/><stop offset="1" stop-opacity="0"/></linearGradient><radialGradient id="s" cx="10.534" cy="381.348" r="8.99" fx="10.534" fy="381.348" gradientTransform="matrix(1.09 -.275 .042 1.123 -2.795 -28.919)" gradientUnits="userSpaceOnUse"><stop offset=".006" stop-color="#F6E94E"/><stop offset="1" stop-color="#ebd50e" stop-opacity="0"/></radialGradient><linearGradient x1="27.85" x2="27.918" y1="365.29" y2="376.646" gradientUnits="userSpaceOnUse"><stop offset="0" stop-color="#BABDB6"/><stop offset=".747" stop-color="#F0EFED"/><stop offset="1" stop-color="#fff"/></linearGradient><linearGradient x1="-1.827" x2="19.979" y1="388.645" y2="388.645" gradientUnits="userSpaceOnUse"><stop offset="0" stop-color="#BABDB6"/><stop offset=".747" stop-color="#F0EFED"/><stop offset="1" stop-color="#fff"/></linearGradient><linearGradient x1="44.614" x2="26.149" y1="402.332" y2="399.292" gradientUnits="userSpaceOnUse"><stop offset="0" stop-color="#BABDB6"/><stop offset=".747" stop-color="#F0EFED"/><stop offset="1" stop-color="#fff"/></linearGradient><linearGradient x1="22.844" x2="31.387" y1="367.11" y2="378.869" gradientUnits="userSpaceOnUse"><stop offset="0" stop-color="#BABDB6"/><stop offset="1" stop-color="#F0EFED"/></linearGradient><linearGradient x1="24.996" x2="42.331" y1="402.613" y2="402.613" gradientUnits="userSpaceOnUse"><stop offset="0" stop-color="#BABDB6"/><stop offset="1" stop-color="#F0EFED"/></linearGradient><linearGradient x1=".271" x2="24.387" y1="399.664" y2="386.299" gradientUnits="userSpaceOnUse"><stop offset="0" stop-color="#BABDB6"/><stop offset="1" stop-color="#F0EFED"/></linearGradient><linearGradient x1="38.912" x2="47.828" y1="384.287" y2="384.287" gradientUnits="userSpaceOnUse"><stop offset="0" stop-color="#BABDB6"/><stop offset=".747" stop-color="#F0EFED"/><stop offset="1" stop-color="#fff"/></linearGradient><linearGradient id="q" x1="47.869" x2="40.032" y1="383.002" y2="384.811" gradientUnits="userSpaceOnUse"><stop offset="0" stop-color="#BABDB6"/><stop offset="1" stop-color="#F0EFED"/></linearGradient><linearGradient x1="58.566" x2="75.885" y1="371.351" y2="371.351" gradientUnits="userSpaceOnUse" gradientTransform="matrix(.975 -.223 .223 .975 -115.791 38.424)"><stop offset="0" stop-color="#2D3335"/><stop offset=".506" stop-color="#545652"/><stop offset="1" stop-color="#fff"/></linearGradient><linearGradient x1="89.478" x2="57.578" y1="359.7" y2="376.401" gradientUnits="userSpaceOnUse" gradientTransform="matrix(.975 -.223 .223 .975 -115.791 38.424)"><stop offset="0" stop-color="#2D3335"/><stop offset=".506" stop-color="#545652"/><stop offset="1" stop-color="#fff"/></linearGradient><linearGradient x1="29.237" x2="43.862" y1="373.537" y2="388.287" gradientUnits="userSpaceOnUse"><stop offset="0" stop-color="#F6E94F"/><stop offset="1" stop-color="#fff"/></linearGradient><linearGradient id="r" x1="30.557" x2="44.093" y1="373.671" y2="388.908" gradientUnits="userSpaceOnUse"><stop offset="0" stop-color="#FAAF3E"/><stop offset="1" stop-color="#F17912"/></linearGradient><linearGradient x1="116.365" x2="117.487" y1="315.413" y2="317.743" gradientUnits="userSpaceOnUse"><stop offset="0"/><stop offset=".163" stop-color="#070707"/><stop offset=".302" stop-color="#111"/><stop offset=".432" stop-color="#1D1D1D"/><stop offset=".557" stop-color="#2F3030"/><stop offset=".678" stop-color="#444"/><stop offset=".797" stop-color="#565859"/><stop offset=".91" stop-color="#616569"/><stop offset="1" stop-color="#626B73"/></linearGradient><linearGradient x1="115.039" x2="116.658" y1="317.404" y2="314.497" gradientUnits="userSpaceOnUse"><stop offset="0" stop-color="#6D7780"/><stop offset=".138" stop-color="#717B84"/><stop offset=".274" stop-color="#7E878E"/><stop offset=".408" stop-color="#939CA2"/><stop offset=".542" stop-color="#B2BDC1"/><stop offset=".646" stop-color="#D3E0E4"/><stop offset=".819" stop-color="#A3AEB4"/><stop offset="1" stop-color="#7A858F"/></linearGradient><linearGradient x1="117.931" x2="112.091" y1="301.457" y2="302.191" gradientUnits="userSpaceOnUse"><stop offset="0" stop-color="#B6C1CA"/><stop offset=".295" stop-color="#B9C4CC"/><stop offset=".547" stop-color="#C5CED5"/><stop offset=".783" stop-color="#D7DEE2"/><stop offset="1" stop-color="#F0F5F5"/></linearGradient><linearGradient x1="107.249" x2="107.311" y1="310.911" y2="304.16" gradientUnits="userSpaceOnUse"><stop offset="0" stop-color="#A5AEB8"/><stop offset=".424" stop-color="#A1AAB5"/><stop offset=".786" stop-color="#96A1AB"/><stop offset="1" stop-color="#8B97A3"/></linearGradient><linearGradient x1="115.32" x2="109.787" y1="309.503" y2="302.446" gradientUnits="userSpaceOnUse"><stop offset="0" stop-color="#ACB5BE"/><stop offset=".479" stop-color="#848B93"/><stop offset="1" stop-color="#596169"/></linearGradient><linearGradient x1="117.953" x2="115.538" y1="298" y2="295.644" gradientUnits="userSpaceOnUse"><stop offset="0" stop-color="#121414"/><stop offset="1" stop-color="#2B3033"/></linearGradient><linearGradient x1="102.519" x2="99.309" y1="307.758" y2="303.465" gradientUnits="userSpaceOnUse"><stop offset="0" stop-color="#121414"/><stop offset="1" stop-color="#2B3033"/></linearGradient><linearGradient x1="100.924" x2="98.381" y1="302.737" y2="306.53" gradientUnits="userSpaceOnUse"><stop offset=".006" stop-color="#2C2F33"/><stop offset=".506" stop-color="#5A6166"/><stop offset=".638" stop-color="#585E63"/><stop offset=".751" stop-color="#50565A"/><stop offset=".856" stop-color="#43484C"/><stop offset=".957" stop-color="#34373B"/><stop offset="1" stop-color="#2C2F33"/></linearGradient><linearGradient x1="104.598" x2="105.609" y1="313.838" y2="320.968" gradientUnits="userSpaceOnUse"><stop offset="0" stop-color="#CFDDE2"/><stop offset=".152" stop-color="#CBD8DD"/><stop offset=".281" stop-color="#BCC9CD"/><stop offset=".402" stop-color="#A7B1B5"/><stop offset=".519" stop-color="#899297"/><stop offset=".63" stop-color="#677077"/><stop offset=".646" stop-color="#626B73"/><stop offset="1" stop-color="#121212"/></linearGradient><linearGradient x1="105.425" x2="104.552" y1="320.149" y2="314.416" gradientUnits="userSpaceOnUse"><stop offset="0"/><stop offset=".123" stop-color="#070707"/><stop offset=".225" stop-color="#111"/><stop offset=".319" stop-color="#1C1C1C"/><stop offset=".409" stop-color="#2F2F2F"/><stop offset=".496" stop-color="#434444"/><stop offset=".58" stop-color="#555757"/><stop offset=".661" stop-color="#606467"/><stop offset=".73" stop-color="#626B73"/><stop offset=".751" stop-color="#596167"/><stop offset=".838" stop-color="#383B3D"/><stop offset=".912" stop-color="#232323"/><stop offset=".968" stop-color="#171616"/><stop offset="1" stop-color="#121212"/></linearGradient><linearGradient x1="108.432" x2="107.471" y1="318.345" y2="314.445" gradientUnits="userSpaceOnUse"><stop offset="0"/><stop offset=".123" stop-color="#070707"/><stop offset=".225" stop-color="#111"/><stop offset=".319" stop-color="#1C1C1C"/><stop offset=".409" stop-color="#2F2F2F"/><stop offset=".496" stop-color="#434444"/><stop offset=".58" stop-color="#555757"/><stop offset=".661" stop-color="#606467"/><stop offset=".73" stop-color="#626B73"/><stop offset=".751" stop-color="#596167"/><stop offset=".838" stop-color="#383B3D"/><stop offset=".912" stop-color="#232323"/><stop offset=".968" stop-color="#171616"/><stop offset="1" stop-color="#121212"/></linearGradient><linearGradient x1="101.549" x2="104.147" y1="318.713" y2="316.779" gradientUnits="userSpaceOnUse"><stop offset="0" stop-color="#87959F"/><stop offset=".071" stop-color="#939EA6"/><stop offset=".489" stop-color="#D6D5D5"/><stop offset=".573" stop-color="#CECECE"/><stop offset=".673" stop-color="#B9B9B9"/><stop offset=".781" stop-color="#9A9C9C"/><stop offset=".894" stop-color="#737779"/><stop offset="1" stop-color="#4D5359"/></linearGradient><linearGradient x1="110.47" x2="111.507" y1="323.062" y2="325.202" gradientUnits="userSpaceOnUse"><stop offset="0" stop-color="#161617"/><stop offset=".208" stop-color="#171718"/><stop offset=".385" stop-color="#1B1C1D"/><stop offset=".551" stop-color="#232425"/><stop offset=".711" stop-color="#2E2F32"/><stop offset=".864" stop-color="#3E4145"/><stop offset="1" stop-color="#52585E"/></linearGradient><linearGradient x1="115.234" x2="116.434" y1="322.629" y2="325.482" gradientUnits="userSpaceOnUse"><stop offset="0" stop-color="#1C1C1F"/><stop offset=".208" stop-color="#1E1E21"/><stop offset=".385" stop-color="#222326"/><stop offset=".551" stop-color="#2B2C30"/><stop offset=".711" stop-color="#383A3E"/><stop offset=".864" stop-color="#4B4F55"/><stop offset="1" stop-color="#626B73"/></linearGradient><linearGradient x1="111.698" x2="111.512" y1="321.808" y2="313.356" gradientUnits="userSpaceOnUse"><stop offset="0" stop-color="#616973"/><stop offset=".417" stop-color="#5E666F"/><stop offset=".772" stop-color="#565D64"/><stop offset="1" stop-color="#4D5359"/></linearGradient><linearGradient x1="112.503" x2="119.393" y1="312.623" y2="311.58" gradientUnits="userSpaceOnUse"><stop offset="0" stop-color="#6C7680"/><stop offset=".355" stop-color="#69727C"/><stop offset=".659" stop-color="#5F6870"/><stop offset=".942" stop-color="#51575E"/><stop offset="1" stop-color="#4D5359"/></linearGradient><linearGradient x1="118.09" x2="114.701" y1="320.286" y2="313.285" gradientUnits="userSpaceOnUse"><stop offset="0" stop-color="#6C7680"/><stop offset=".355" stop-color="#69727C"/><stop offset=".659" stop-color="#5F6870"/><stop offset=".942" stop-color="#51575E"/><stop offset="1" stop-color="#4D5359"/></linearGradient><linearGradient x1="115.751" x2="117.563" y1="299.183" y2="295.308" gradientUnits="userSpaceOnUse"><stop offset=".006" stop-color="#2C2F33"/><stop offset=".506" stop-color="#5A6166"/><stop offset=".638" stop-color="#585E63"/><stop offset=".751" stop-color="#50565A"/><stop offset=".856" stop-color="#43484C"/><stop offset=".957" stop-color="#34373B"/><stop offset="1" stop-color="#2C2F33"/></linearGradient><linearGradient x1="115.693" x2="111.95" y1="296.266" y2="290.414" gradientUnits="userSpaceOnUse"><stop offset="0" stop-color="#161719"/><stop offset="1" stop-color="#B2B2B2"/></linearGradient><linearGradient x1="110.121" x2="121.872" y1="292.456" y2="301.456" gradientUnits="userSpaceOnUse"><stop offset=".006" stop-color="#212326"/><stop offset="1" stop-color="#596669"/></linearGradient><linearGradient x1="99.238" x2="94.868" y1="304.31" y2="297.577" gradientUnits="userSpaceOnUse"><stop offset="0" stop-color="#161719"/><stop offset="1" stop-color="#ccc"/></linearGradient><linearGradient x1="95.831" x2="104.749" y1="300.837" y2="310.642" gradientUnits="userSpaceOnUse"><stop offset=".006" stop-color="#212326"/><stop offset="1" stop-color="#596669"/></linearGradient><linearGradient x1="99.486" x2="90.171" y1="295.642" y2="308.361" gradientUnits="userSpaceOnUse"><stop offset="0" stop-color="#141617"/><stop offset=".483" stop-color="#566063"/><stop offset="1" stop-color="#232729"/></linearGradient><linearGradient x1="113.933" x2="109.224" y1="286.865" y2="299.691" gradientUnits="userSpaceOnUse"><stop offset="0" stop-color="#141617"/><stop offset=".483" stop-color="#566063"/><stop offset="1" stop-color="#232729"/></linearGradient><radialGradient cx="109.941" cy="312.073" r="9.655" fx="109.941" fy="312.073" gradientUnits="userSpaceOnUse"><stop offset="0" stop-color="#828E99"/><stop offset="1" stop-color="#373C40"/></radialGradient><radialGradient cx="109.94" cy="312.074" r="9.655" fx="109.94" fy="312.074" gradientUnits="userSpaceOnUse"><stop offset="0" stop-color="#828E99"/><stop offset="1" stop-color="#373C40"/></radialGradient><linearGradient x1="109.501" x2="124.153" y1="309.648" y2="309.648" gradientUnits="userSpaceOnUse"><stop offset="0" stop-color="#121314"/><stop offset=".19" stop-color="#131415"/><stop offset=".352" stop-color="#17191A"/><stop offset=".504" stop-color="#1F2022"/><stop offset=".65" stop-color="#2A2C2E"/><stop offset=".791" stop-color="#3A3E42"/><stop offset=".927" stop-color="#52595F"/><stop offset="1" stop-color="#626B73"/></linearGradient><linearGradient x1="106.022" x2="108.701" y1="312.679" y2="325.27" gradientUnits="userSpaceOnUse"><stop offset="0" stop-color="#161617"/><stop offset=".195" stop-color="#171718"/><stop offset=".361" stop-color="#1C1C1D"/><stop offset=".516" stop-color="#242426"/><stop offset=".665" stop-color="#2F3033"/><stop offset=".81" stop-color="#404447"/><stop offset=".95" stop-color="#585E65"/><stop offset="1" stop-color="#626B73"/></linearGradient><linearGradient x1="113.713" x2="122.957" y1="315.036" y2="322.672" gradientUnits="userSpaceOnUse"><stop offset="0" stop-color="#11100F"/><stop offset=".171" stop-color="#121110"/><stop offset=".316" stop-color="#181817"/><stop offset=".453" stop-color="#242322"/><stop offset=".584" stop-color="#323130"/><stop offset=".711" stop-color="#414141"/><stop offset=".835" stop-color="#515356"/><stop offset=".954" stop-color="#5E646A"/><stop offset="1" stop-color="#626B73"/></linearGradient><linearGradient x1="123.964" x2="123.495" y1="312.841" y2="310.309" gradientUnits="userSpaceOnUse"><stop offset="0" stop-color="#77828C"/><stop offset=".143" stop-color="#7B868F"/><stop offset=".285" stop-color="#87929A"/><stop offset=".425" stop-color="#9CA7AD"/><stop offset=".564" stop-color="#BBC7CC"/><stop offset=".646" stop-color="#D3E0E4"/><stop offset=".819" stop-color="#A3AEB4"/><stop offset="1" stop-color="#7A858F"/></linearGradient><linearGradient x1="125.786" x2="125.147" y1="313.03" y2="309.227" gradientUnits="userSpaceOnUse"><stop offset="0" stop-color="#6D7780"/><stop offset=".138" stop-color="#717B84"/><stop offset=".274" stop-color="#7E878E"/><stop offset=".408" stop-color="#939CA2"/><stop offset=".542" stop-color="#B2BDC1"/><stop offset=".646" stop-color="#D3E0E4"/><stop offset=".819" stop-color="#A3AEB4"/><stop offset="1" stop-color="#7A858F"/></linearGradient><linearGradient x1="127.999" x2="127.35" y1="312.032" y2="309.41" gradientUnits="userSpaceOnUse"><stop offset="0"/><stop offset=".105" stop-color="#070707"/><stop offset=".195" stop-color="#111"/><stop offset=".279" stop-color="#1D1D1D"/><stop offset=".36" stop-color="#2F3030"/><stop offset=".438" stop-color="#444"/><stop offset=".515" stop-color="#565859"/><stop offset=".588" stop-color="#616569"/><stop offset=".646" stop-color="#626B73"/><stop offset="1" stop-color="#121212"/></linearGradient><linearGradient x1="123.52" x2="124.317" y1="309.715" y2="313.622" gradientUnits="userSpaceOnUse"><stop offset="0" stop-color="#6D7780"/><stop offset=".63" stop-color="#737D87"/><stop offset="1" stop-color="#7A858F"/></linearGradient><linearGradient x1="124.724" x2="123.134" y1="313.892" y2="309.237" gradientUnits="userSpaceOnUse"><stop offset=".006" stop-color="#3D4247"/><stop offset=".596" stop-color="#1E2024"/><stop offset="1" stop-color="#121314"/></linearGradient><linearGradient x1="121.422" x2="122.305" y1="306.692" y2="309.137" gradientUnits="userSpaceOnUse"><stop offset=".006" stop-color="#3D4247"/><stop offset=".596" stop-color="#1E2024"/><stop offset="1" stop-color="#121314"/></linearGradient><linearGradient x1="123.949" x2="123.228" y1="318.041" y2="314.586" gradientUnits="userSpaceOnUse"><stop offset="0" stop-color="#77828C"/><stop offset=".143" stop-color="#7B868F"/><stop offset=".285" stop-color="#87929A"/><stop offset=".425" stop-color="#9CA7AD"/><stop offset=".564" stop-color="#BBC7CC"/><stop offset=".646" stop-color="#D3E0E4"/><stop offset=".819" stop-color="#A3AEB4"/><stop offset="1" stop-color="#7A858F"/></linearGradient><linearGradient x1="123.072" x2="125.059" y1="314.428" y2="319.232" gradientUnits="userSpaceOnUse"><stop offset="0" stop-color="#6D7780"/><stop offset=".63" stop-color="#737D87"/><stop offset="1" stop-color="#7A858F"/></linearGradient><linearGradient x1="126.741" x2="125.667" y1="318.211" y2="313.282" gradientUnits="userSpaceOnUse"><stop offset="0" stop-color="#6D7780"/><stop offset=".138" stop-color="#717B84"/><stop offset=".274" stop-color="#7E878E"/><stop offset=".408" stop-color="#939CA2"/><stop offset=".542" stop-color="#B2BDC1"/><stop offset=".646" stop-color="#D3E0E4"/><stop offset=".819" stop-color="#A3AEB4"/><stop offset="1" stop-color="#7A858F"/></linearGradient><linearGradient x1="129.591" x2="128.731" y1="316.514" y2="313.296" gradientUnits="userSpaceOnUse"><stop offset="0"/><stop offset=".105" stop-color="#070707"/><stop offset=".195" stop-color="#111"/><stop offset=".279" stop-color="#1D1D1D"/><stop offset=".36" stop-color="#2F3030"/><stop offset=".438" stop-color="#444"/><stop offset=".515" stop-color="#565859"/><stop offset=".588" stop-color="#616569"/><stop offset=".646" stop-color="#626B73"/><stop offset="1" stop-color="#121212"/></linearGradient><linearGradient x1="127.034" x2="129.194" y1="304.143" y2="313.917" gradientUnits="userSpaceOnUse"><stop offset=".006" stop-color="#3D4247"/><stop offset=".202" stop-color="#121314"/><stop offset=".27" stop-color="#131415"/><stop offset=".298" stop-color="#151718"/><stop offset=".32" stop-color="#1A1C1D"/><stop offset=".338" stop-color="#222426"/><stop offset=".353" stop-color="#2D3032"/><stop offset=".367" stop-color="#3C4044"/><stop offset=".379" stop-color="#50575C"/><stop offset=".388" stop-color="#626B73"/><stop offset=".413" stop-color="#4F565C"/><stop offset=".447" stop-color="#3E4248"/><stop offset=".485" stop-color="#313439"/><stop offset=".531" stop-color="#282B2F"/><stop offset=".586" stop-color="#222529"/><stop offset=".665" stop-color="#1F2125"/><stop offset=".882" stop-color="#1E2024"/><stop offset="1" stop-color="#121314"/></linearGradient><linearGradient x1="47.869" x2="40.032" y1="383.002" y2="384.811" xlink:href="#q" gradientUnits="userSpaceOnUse" gradientTransform="matrix(1.096 0 0 1.096 -7.75 -400.682)"/><linearGradient x1="30.557" x2="44.093" y1="373.671" y2="388.908" xlink:href="#r" gradientUnits="userSpaceOnUse" gradientTransform="matrix(1.096 0 0 1.096 -7.75 -400.682)"/><radialGradient cx="10.534" cy="381.348" r="8.99" xlink:href="#s" gradientUnits="userSpaceOnUse" gradientTransform="matrix(1.09 -.275 .042 1.123 -2.795 -28.919)" fx="10.534" fy="381.348"/><radialGradient cx="10.534" cy="381.348" r="8.99" fx="10.534" fy="381.348" gradientTransform="matrix(1.09 -.275 .042 1.123 -2.795 -28.919)" gradientUnits="userSpaceOnUse"><stop offset=".006" stop-color="#F6E94E"/><stop offset=".64" stop-color="#F5E05D"/><stop offset="1" stop-color="#EBD50E"/></radialGradient><linearGradient x1="14.24" x2="34.987" y1="396.637" y2="396.637" xlink:href="#t" gradientUnits="userSpaceOnUse"/><radialGradient cx="111.321" cy="388.557" r="21.763" xlink:href="#u" gradientUnits="userSpaceOnUse" fx="111.321" fy="388.557"/><radialGradient cx="111.397" cy="389.751" r="21.763" xlink:href="#u" gradientUnits="userSpaceOnUse" fx="111.397" fy="389.751" gradientTransform="matrix(1.055 0 0 1 -6.105 0)"/><radialGradient id="B" cx="111.397" cy="389.751" r="21.763" xlink:href="#u" gradientUnits="userSpaceOnUse" gradientTransform="matrix(1.202 0 0 1.14 -110.094 -419.742)" fx="111.397" fy="389.751"/><radialGradient id="A" cx="111.397" cy="389.751" r="21.763" xlink:href="#u" gradientUnits="userSpaceOnUse" gradientTransform="matrix(0 -1.202 1.14 0 -420.286 158.417)" fx="111.397" fy="389.751"/><radialGradient id="z" cx="110.237" cy="390.566" r="21.763" xlink:href="#u" gradientUnits="userSpaceOnUse" gradientTransform="matrix(-.85 -.85 .806 -.806 -197.404 433.63)" fx="110.237" fy="390.566"/><radialGradient id="y" cx="111.397" cy="389.751" r="21.763" xlink:href="#u" gradientUnits="userSpaceOnUse" gradientTransform="matrix(-1.202 0 0 -1.14 157.627 470.17)" fx="111.397" fy="389.751"/><radialGradient id="x" cx="111.397" cy="389.751" r="21.763" xlink:href="#u" gradientUnits="userSpaceOnUse" gradientTransform="matrix(-.85 .85 -.806 -.806 433.168 245.973)" fx="111.397" fy="389.751"/><radialGradient id="w" cx="111.397" cy="389.751" r="21.763" xlink:href="#u" gradientUnits="userSpaceOnUse" gradientTransform="matrix(0 1.202 -1.14 0 469.133 -108.237)" fx="111.397" fy="389.751"/><radialGradient id="v" cx="111.397" cy="389.751" r="21.763" xlink:href="#u" gradientUnits="userSpaceOnUse" gradientTransform="matrix(.85 .85 -.806 .806 245.429 -384.599)" fx="111.397" fy="389.751"/></defs><sodipodi:namedview fill="#fce94f" stroke="#c4a000" pagecolor="#ffffff" bordercolor="#666666" borderopacity="1"/><g><path fill="url(#v)" stroke="#7b6300" d="M5.9 25.86l12.17.13v-2.96L5.9 22.9v-2.8L.1 24.37l5.8 4.3v-2.82z" sodipodi:nodetypes="cccccccc"/><path fill="url(#w)" stroke="#7b6300" d="M9.53 12.63l8.8 8.9 2.1-2.07-8.82-8.9 2-2-7.13-1.08 1.07 7.14 2-2z" sodipodi:nodetypes="cccccccc"/><path fill="url(#x)" stroke="#7b6300" d="M22.7 6.45L22.6 17.3h2.95l.13-10.85h2.82l-4.3-5.8-4.28 5.8h2.8z" sodipodi:nodetypes="cccccccc"/><path fill="url(#y)" stroke="#7b6300" d="M36.76 10.56l-8.9 8.32 2.07 2.1 8.92-8.33 2 2L41.9 7.5l-7.13 1.07 2 2z" sodipodi:nodetypes="cccccccc"/><path fill="url(#z)" stroke="#7b6300" d="M42.12 23.17l-12.33-.13V26l12.32.12v2.82l5.8-4.3-5.8-4.28v2.8z" sodipodi:nodetypes="cccccccc"/><path fill="url(#A)" stroke="#7b6300" d="M39.32 37.55l-9.63-9.9-2.1 2.1 9.64 9.9-2 1.98 7.14 1.07-1.07-7.14-1.98 2z" sodipodi:nodetypes="cccccccc"/><path fill="url(#B)" stroke="#7b6300" d="M10.77 39.86l8.67-8.73-2.1-2.08-8.65 8.73-2-2-1.07 7.15 7.13-1.08-2-2z" sodipodi:nodetypes="cccccccc"/><g><path fill="url(#C)" stroke="#babdb6" stroke-width=".95" d="M24.05 2.03c7.82 0 14.17 6.2 14.17 14.7 0 5.4-2.36 7.53-4.64 10.93-.72 1.07-1.4 3.93-2.47 6.12-.88 1.82-3.98 2.84-7.05 2.84S17.88 35.6 17 33.78c-1.1-2.2-1.77-5.05-2.48-6.12-2.28-3.4-4.64-5.52-4.64-10.94 0-8.5 6.34-14.7 14.17-14.7z" transform="matrix(.776 0 0 .776 5.423 11.864)"/><path fill="url(#D)" d="M29.82 40.06c-1.35.98-3.6 1.67-5.77 1.67-2.2 0-4.42-.7-5.77-1.67-1.9-1.64-.58-2.67.5-1.9 1.36.8 3.33 1.3 5.27 1.3 1.94 0 3.9-.5 5.27-1.3 1.08-.77 2.4.26.5 1.9z" transform="matrix(.776 0 0 .776 5.423 11.864)"/><path fill="url(#E)" d="M18.77 35.4c1.37.8 3.34 1.28 5.28 1.28 1.94 0 3.9-.5 5.27-1.28 1.08-.77 2.4.37.5 2-1.35 1-3.6 1.57-5.77 1.57-2.2 0-4.42-.58-5.77-1.56-1.9-1.63-.58-2.77.5-2z" transform="matrix(.776 0 0 .776 5.423 11.864)"/><path fill="url(#F)" d="M29.52 43.82c-1.36.97-3.3 1.44-5.47 1.44-2.2 0-4.1-.47-5.47-1.44-1.88-1.65-.88-3.58.2-2.8 1.36.8 3.33 1.28 5.27 1.28 1.94 0 3.9-.5 5.27-1.28 1.08-.78 2.08 1.15.2 2.8z" transform="matrix(.776 0 0 .776 5.423 11.864)"/><path fill="#babdb6" stroke="#babdb6" stroke-width=".73554" d="M29.82 39.05l-.17.56s.17-.45.17-.55z"/><path fill="#babdb6" stroke="#babdb6" stroke-width=".73554" d="M23.22 44.44c-2-.2-3.83-1.03-4.45-2.24.62 1.2 2.45 2.05 4.45 2.24z"/><path fill="#fff" d="M30.4 20.04c.97 3.45-1.5 7.3-5.52 8.65-4.03 1.33-8.08-.38-9.06-3.82-.97-3.44 1.5-7.32 5.53-8.66 4.02-1.34 8.08.37 9.05 3.82z" opacity=".5"/><path fill="url(#G)" d="M10.4 16.72c0 4.27 1.55 6.4 3.33 8.9l1.2 1.72c.4.6.78 1.64 1.2 2.84 0 .02 1.32 3.34 1.32 3.34.8 1.66 3.94 2.53 6.6 2.53 2.66 0 5.78-.87 6.6-2.53l1.32-3.34c.42-1.2.8-2.24 1.2-2.85 0 0-.06.03-.1.04.2-.2.52-.65 1.3-1.76 1.78-2.46 3.33-4.6 3.33-8.88 0-8.05-5.87-14.12-13.65-14.12S10.4 8.67 10.4 16.72zm7.97 16.26l-1.26-3.2c-.44-1.28-.83-2.4-1.32-3.12l-1.22-1.74c-1.8-2.5-3.12-4.32-3.12-8.2 0-7.4 5.42-13 12.6-13 7.2 0 12.62 5.6 12.62 13 0 3.88-1.3 5.7-3.1 8.2-.02 0-1.23 1.73-1.23 1.73-.5.74-.88 1.85-1.33 3.12 0 0-1.26 3.2-1.26 3.2-.46.95-2.77 1.95-5.7 1.95-2.9 0-5.22-1-5.67-1.94z" transform="matrix(.776 0 0 .776 5.423 11.864)"/><path fill="url(#H)" d="M9.36 16.72c0 4.66 1.73 7.05 3.56 9.6l1.18 1.67c.32.48.68 1.5 1.06 2.58.4 1.1.83 2.37 1.37 3.47 1.07 2.16 4.54 3.13 7.52 3.13 2.98 0 6.46-.97 7.52-3.13.54-1.1.98-2.36 1.37-3.47.38-1.08.74-2.1 1.06-2.6l1.2-1.67c1.8-2.53 3.54-4.92 3.54-9.58 0-8.55-6.45-15.25-14.7-15.25-8.22 0-14.68 6.7-14.68 15.25zm8.1 16.8c-.52-1.04-.95-2.27-1.33-3.34-.42-1.2-.8-2.24-1.2-2.86l-1.2-1.7c-1.8-2.5-3.33-4.63-3.33-8.9 0-8.05 5.87-14.12 13.65-14.12S37.7 8.67 37.7 16.72c0 4.27-1.55 6.4-3.34 8.9l-1.2 1.7c-.4.62-.77 1.66-1.2 2.86-.37 1.08-.8 2.3-1.3 3.34-.73 1.46-3.5 2.53-6.6 2.53-3.1 0-5.9-1.07-6.6-2.53z" transform="matrix(.776 0 0 .776 5.423 11.864)"/><g transform="matrix(1.095 0 0 1.095 -97.661 -403.212)"><linearGradient x1="105.517" x2="116.825" y1="406.309" y2="406.309" gradientUnits="userSpaceOnUse"><stop offset="0" stop-color="#545652"/><stop offset=".286" stop-color="#888A85"/><stop offset=".635" stop-color="#888A85"/><stop offset="1" stop-color="#545652"/></linearGradient><path fill="url(#I)" d="M116.58 403.83c0 .1-.16.5-.16.5l-.23.45c-.66 1.3-2.82 2-5.03 2-2.22 0-4.38-.7-5.03-2 0 0-.2-.38-.2-.48-.32 0-.03 1.7 0 1.93 0 .1.2.47.2.47.6 1.1 2.32 1.88 4.2 2.05.28.03.55.04.83.04 2.2 0 4.37-.8 5.02-2.1l.2-.47s.18-.4.18-.48c.05-.23.33-1.92 0-1.92zm-1.2 3.56c-.98.7-2.6 1.18-4.2 1.18-1.62 0-3.25-.5-4.24-1.2-1.38-1.15-.43-1.88.36-1.33 1 .56 2.44.9 3.87.9 1.42 0 2.86-.34 3.86-.9.8-.55 1.75.18.36 1.34z" enable-background="new"/><linearGradient x1="105.517" x2="116.825" y1="406.136" y2="406.136" gradientUnits="userSpaceOnUse"><stop offset="0" stop-color="#545652"/><stop offset=".286" stop-color="#888A85"/><stop offset=".635" stop-color="#888A85"/><stop offset="1" stop-color="#545652"/></linearGradient><path fill="url(#J)" d="M116.2 403.78l-.13.4-.2.4c-.55 1.07-2.47 1.8-4.7 1.8s-4.16-.73-4.7-1.8c0 0-.4-.9-.4-.9l-.5.4c-.08.12-.3.43 0 2.22 0-.07.25.6.25.6.62 1.17 2.4 2.06 4.5 2.25 0 0 .85.04.85.04 2.1 0 4.55-.72 5.35-2.3l.2-.5c0 .02.24-.65.24-.65.3-1.72.08-2.02 0-2.14l-.42-.52-.33.7zm.06 1.56c0 .12-.02.2-.04.34 0 0-.16.35-.16.35l-.22.5c-.53 1.07-2.5 1.86-4.67 1.86l-.8-.05c-1.83-.17-3.4-.9-3.9-1.85l-.16-.34c-.02-.22-.05-.4-.07-.6 1.08 1.2 3.24 1.63 4.94 1.63 1.8 0 4.1-.5 5.1-1.86z"/><linearGradient x1="105.517" x2="116.824" y1="407.217" y2="407.217" gradientUnits="userSpaceOnUse"><stop offset="0" stop-color="#545652"/><stop offset=".286" stop-color="#888A85"/><stop offset=".635" stop-color="#888A85"/><stop offset="1" stop-color="#545652"/></linearGradient><path fill="url(#K)" d="M106 405.83c-.12.2-.45.9.7 1.88 1.12.8 2.86 1.28 4.47 1.28 1.6 0 3.35-.5 4.43-1.25l.03-.02c1.16-.97.82-1.68.7-1.87-.3-.44-.97-.5-1.5-.12-.94.53-2.32.85-3.66.85-1.35 0-2.73-.32-3.7-.86-.5-.36-1.16-.3-1.46.13zm1.14 1.23c-.53-.45-.54-.73-.52-.76.02-.04.23-.1.48.08 1.1.62 2.6.97 4.07.97 1.46 0 2.97-.35 4.03-.95.3-.2.5-.14.52-.1 0 0 0 0 0 .02 0 .08-.08.35-.55.75-.97.67-2.54 1.1-4 1.1-1.48 0-3.06-.43-4.03-1.1z"/></g><path fill="url(#L)" d="M24.05 39.2c3.12 0 6.17-1 7.08-2.82l.33-.63.24-.72c.05-.32.46-2.7 0-2.7l-.46 1.23c-.9 1.8-4.07 2.83-7.2 2.83-3.12 0-6.27-1.03-7.18-2.84l-.46-1.24c-.46 0-.06 2.4 0 2.7 0 .15.28.7.28.7 0 .12.28.66.28.66.9 1.82 3.97 2.83 7.1 2.83zm-5.45-3.8c1.4.8 3.44 1.28 5.45 1.28 2 0 4.04-.5 5.45-1.28 1.12-.77 2.47.37.5 2-1.4 1-3.7 1.57-5.95 1.57-2.26 0-4.57-.58-5.97-1.56-1.95-1.63-.6-2.77.52-2z" enable-background="new" transform="matrix(.776 0 0 .776 5.423 11.864)"/><path fill="url(#M)" d="M15.9 32.02c-.14.16-.47.6-.02 3.12 0-.1.34.84.34.84-.07-.27.28.67.28.67 1.15 2.3 4.8 3.13 7.55 3.13 2.76 0 6.4-.82 7.55-3.13l.33-.62.27-.8c.47-2.62.14-3.04 0-3.2l-.56-.74-.44.82-.45 1.23c-.7 1.4-3.54 2.48-6.7 2.48s-6-1.07-6.72-2.53l-.76-2.07-.68.8zm1.53 4.1s-.23-.5-.23-.5c-.05-.18-.28-.68-.28-.68-.04-.23-.06-.43-.1-.63 1.4 1.8 4.5 2.66 7.23 2.66 2.76 0 5.84-.86 7.2-2.63-.02.2-.04.4-.07.6l-.22.64-.3.54c-.74 1.5-3.46 2.55-6.6 2.55-3.16 0-5.88-1.04-6.63-2.53z" transform="matrix(.776 0 0 .776 5.423 11.864)"/><path fill="url(#N)" d="M16.78 35.14c-.4.58-.35 1.6.97 2.7 1.5 1.06 3.9 1.7 6.3 1.7s4.8-.64 6.26-1.66c1.36-1.14 1.4-2.16 1.02-2.74-.43-.64-1.36-.73-2.1-.2-1.32.72-3.27 1.18-5.17 1.18s-3.85-.46-5.2-1.22l.04.03c-.76-.52-1.7-.43-2.12.2zm1.6 1.8c-.73-.6-.8-1.05-.74-1.15.06-.1.34-.15.67.08l.05.02c1.5.84 3.63 1.35 5.7 1.35 2.06 0 4.2-.5 5.7-1.35.36-.25.65-.2.7-.1.07.1 0 .53-.76 1.17-1.27.87-3.44 1.44-5.65 1.44-2.2 0-4.38-.56-5.68-1.46z" transform="matrix(.776 0 0 .776 5.423 11.864)"/><path fill="url(#O)" d="M31.42 38.42l-.3.67c-.9 1.8-3.95 2.94-7.07 2.94-.4 0-.77-.02-1.15-.06-2.67-.25-5.1-1.33-5.94-2.9-.46 0-.05 3.64 0 3.97.9 1.8 3.97 2.94 7.1 2.94 3.1 0 6.16-1.14 7.07-2.95.06-.33.75-4.63.3-4.63zm-1.72 5.4c-1.4.97-3.4 1.44-5.65 1.44-2.26 0-4.25-.47-5.65-1.44-1.95-1.65-.92-3.58.2-2.8 1.4.8 3.44 1.28 5.45 1.28 2 0 4.04-.5 5.45-1.28 1.12-.78 2.15 1.15.2 2.8z" enable-background="new" transform="matrix(.776 0 0 .776 5.423 11.864)"/><path fill="url(#P)" d="M30.93 38.2l-.28.66c-.75 1.5-3.53 2.6-6.6 2.6l-1.1-.04c-2.6-.24-4.82-1.3-5.52-2.6l-.4-.72-.56.68c-.56.73-.03 4.33-.02 4.37v.08l.05.08c1.12 2.25 4.6 3.26 7.55 3.26s6.43-1 7.55-3.25l.04-.07.02-.08c.18-1.02.73-4.4.23-5.05l-.55-.7-.42.8zm.06 1.88c-.1.93-.25 2.07-.37 2.74-.8 1.5-3.54 2.6-6.58 2.6s-5.78-1.1-6.58-2.6c-.07-.44-.18-1.63-.2-2.5 1.2 1.16 3.2 2 5.58 2.23 0 0 1.2.05 1.2.05 2.58 0 5.48-.82 6.94-2.52z" transform="matrix(.776 0 0 .776 5.423 11.864)"/><path fill="url(#Q)" d="M17.07 40.84c-.55.82-.38 2.25 1 3.42 1.48 1.03 3.53 1.57 5.98 1.57 2.45 0 4.5-.54 5.94-1.54l.03-.04c1.38-1.17 1.55-2.6 1-3.42-.42-.62-1.17-.74-1.82-.3-1.3.74-3.25 1.2-5.15 1.2-1.9 0-3.85-.46-5.2-1.22-.6-.42-1.36-.3-1.78.32zm1.62 2.5c-.88-.73-.98-1.52-.77-1.84.03-.04.13-.18.38 0 1.56.86 3.68 1.36 5.75 1.36 2.06 0 4.2-.5 5.7-1.34.3-.2.4-.06.42-.02.06.1.1.2.1.36 0 .4-.24.95-.9 1.5-1.25.87-3.1 1.33-5.32 1.33-2.24 0-4.1-.47-5.36-1.36z" transform="matrix(.776 0 0 .776 5.423 11.864)"/><path fill="url(#R)" d="M28.98 32.06c-1.44 1.56-2.57 2.44-4.93 2.44s-3.54-.93-4.94-2.44c.34-.36 3.18.9 4.92.9 1.75 0 4.62-1.28 4.96-.9z" transform="matrix(.776 0 0 .776 5.423 11.864)"/><g><path fill="#545652" d="M21.35 35.36v1.53l.23.25c.17.2.45.44.77.58 0 .27 0 .62 0 .62h.8V37h-.4c-.2 0-.4-.23-.58-.44 0 0 0 0 0-.02 0-.26 0-1.18 0-1.18h-.82z"/></g><g><path fill="#545652" d="M26.1 35.36s0 .92 0 1.18c0 0 0 .02 0 .02-.2.2-.4.44-.6.44h-.4v1.35h.8s0-.35 0-.62c.34-.14.6-.37.78-.58l.22-.25v-1.54h-.8z"/></g></g></g></svg>