<svg xmlns="http://www.w3.org/2000/svg" width="48" height="48" xmlns:xlink="http://www.w3.org/1999/xlink" enable-background="new 0 0 612 792"><defs><linearGradient id="b"><stop offset="0" stop-color="#204a87"/><stop offset="1" stop-color="#6394da" stop-opacity=".495"/></linearGradient><linearGradient id="a"><stop offset="0" stop-color="#89a9d3"/><stop offset="1" stop-color="#89a9d3" stop-opacity="0"/></linearGradient><radialGradient cx="14.088" cy="26.683" r="14.528" xlink:href="#a" fx="14.088" fy="26.683" gradientTransform="matrix(1.651 .907 -.346 .63 1.861 -3.62)" gradientUnits="userSpaceOnUse"/><radialGradient cx="14.088" cy="26.683" r="14.528" xlink:href="#a" gradientUnits="userSpaceOnUse" gradientTransform="matrix(2.079 1.143 -.435 .794 -1.198 -11.242)" fx="14.088" fy="26.683"/><radialGradient cx="14.088" cy="26.683" r="14.528" xlink:href="#a" gradientUnits="userSpaceOnUse" gradientTransform="matrix(2.375 1.306 -.497 .907 -.406 -16.042)" fx="14.088" fy="26.683"/><radialGradient cx="14.088" cy="26.683" r="14.528" xlink:href="#a" gradientUnits="userSpaceOnUse" gradientTransform="matrix(1.887 1.036 -.395 .719 3.09 -7.334)" fx="14.088" fy="26.683"/><linearGradient x1="20.44" x2="3.241" y1="18.075" y2="18.075" xlink:href="#b" gradientUnits="userSpaceOnUse"/></defs><path fill="none" stroke="#fff" stroke-width=".04033" stroke-miterlimit="10" d="M15.26 1.78l.05 17.65-14.56 7.9V.6z"/><path fill="#755e40" stroke="#fff" stroke-width=".04" stroke-miterlimit="10" d="M15.2 1.78L.68.6v26.73l14.56-7.9-.04-17.65zm-1.53 16.37L3.22 23.02V3.06l10.45.25v14.85z"/><path fill="none" stroke="#cbc3b9" stroke-width=".29975000000000007" stroke-miterlimit="10" d="M15.24 19.43L15.2 1.78.68.6v26.73z" stroke-linecap="round" stroke-linejoin="round"/><path fill="none" stroke="#fff" stroke-width=".04033" stroke-miterlimit="10" d="M13.73 3.3L3.28 3.07v19.96l10.45-4.87z"/><path fill="none" stroke="#fff" stroke-width=".04" stroke-miterlimit="10" d="M11.93 3.3h1.76v14.88h-1.77z"/><path fill="#d7cec4" stroke="#fff" stroke-width=".04033" stroke-miterlimit="10" d="M3.3 21.68l-.02 1.4 10.45-4.9-1.8.02z"/><path fill="#b0a08d" stroke="#fff" stroke-width=".04" stroke-miterlimit="10" d="M11.9 3.3h1.76v14.88H11.9z"/><path fill="#755e40" stroke="#fff" stroke-width=".04033" stroke-miterlimit="10" d="M12.42 9.26v1.2L3.28 12.4v-1.63z"/><path fill="#755e40" stroke="#fff" stroke-width=".04" stroke-miterlimit="10" d="M3.28 12.4v9.88l9.1-4.1.02-7.7-9.12 1.93zm8.45 4.86l-8.46 3.6v-7.72l8.48-1.88-.02 6z"/><path fill="#cab39f" stroke="#fff" stroke-width=".04033" stroke-miterlimit="10" d="M11.18 11.38v5.87h.6v-6z"/><path fill="#cab39f" stroke="#fff" stroke-width=".04033" stroke-miterlimit="10" d="M11.2 3.3l-.02 5.96.6.05v-6z"/><path fill="#cab39f" stroke="#fff" stroke-width=".04033" stroke-miterlimit="10" d="M8.02 3.26v6.5l.57.07V3.28z"/><path fill="#cab39f" stroke="#fff" stroke-width=".04033" stroke-miterlimit="10" d="M4.68 3.14v7.2l.58.12v-7.3z"/><path fill="#755e40" stroke="#fff" stroke-width=".04033" stroke-miterlimit="10" d="M5.27 3.14V6.3l-1.94.12.02.4 1.92-.18v3.82l.64-.12V6.6l2.68-.2v3.44l.7-.1V6.36l2.52-.15v-.37L9.28 6V3.26h-.7v2.78l-2.67.18V3.14z"/><path fill="#cab39f" stroke="#fff" stroke-width=".04033" stroke-miterlimit="10" d="M9.3 9.73v-.15l1.9-.32.63.06z"/><path fill="none" stroke="#3e2d11" stroke-width=".40003" stroke-miterlimit="10" d="M.35 27.88V.25l15.17 1.23.05 18.14z" stroke-linecap="round" stroke-linejoin="round"/><path fill="#cab39f" stroke="#fff" stroke-width=".04033" stroke-miterlimit="10" d="M5.93 10.28v-.18l2.1-.34.58.07z"/><path fill="#cab39f" stroke="#fff" stroke-width=".04033" stroke-miterlimit="10" d="M3.32 20.8v-.32l7.87-3.23h.57z"/><path fill="#cab39f" stroke="#fff" stroke-width=".04033" stroke-miterlimit="10" d="M3.35 10.74v-.2l1.33-.2.63.12z"/><path fill="#cab39f" stroke="#fff" stroke-width=".04033" stroke-miterlimit="10" d="M9.32 6v-.1l1.8-.1.64.05z"/><path fill="#cab39f" stroke="#fff" stroke-width=".04033" stroke-miterlimit="10" d="M5.92 6.2v-.08L8.02 6l.57.03z"/><path fill="#cab39f" stroke="#fff" stroke-width=".04033" stroke-miterlimit="10" d="M3.33 6.42v-.07l1.34-.1.6.04z"/><path fill="#755e40" stroke="#fff" stroke-width=".04033" stroke-miterlimit="10" d="M11.78 3.32v6l.62-.07V3.33z"/><path fill="#4797d2" d="M11.74 11.3l-8.4 1.9v7.6l8.4-3.55z" opacity=".3"/><path fill="#4797d2" d="M8.6 6.45l-2.67.17v3.66l2.66-.46z" opacity=".3"/><path fill="#4797d2" d="M11.73 6.27L9.3 6.4v3.3l2.43-.4z" opacity=".3"/><path fill="#4797d2" d="M11.73 3.36l-2.4-.08-.02 2.7 2.42-.14z" opacity=".3"/><path fill="#4797d2" d="M8.54 3.26l-2.6-.07v3l2.6-.2z" opacity=".3"/><path fill="#4797d2" d="M5.22 3.2l-1.86-.07-.02 3.26 1.9-.12z" opacity=".3"/><path fill="#4797d2" d="M5.22 6.7l-1.87.16v3.87l1.86-.3z" opacity=".3"/><path fill="#4797d2" d="M31.84 32.98l-6.82 9.98-16.2-3.9 10.4-8.76z" opacity=".3"/><path fill="#4797d2" d="M38.5 38.55l-1.1 3.23-6.7-1.37 1.75-3.1z" opacity=".3"/><path fill="#4797d2" d="M39.74 34.72l-.97 2.97-5.88-1.2 1.55-2.87z" opacity=".3"/><path fill="#4797d2" d="M47.55 36.4l-.44 3.04-7.3-1.55.92-2.96z" opacity=".3"/><path fill="#4797d2" d="M46.93 40.43l-.52 3.26-7.93-1.72 1.02-3.14z" opacity=".3"/><path fill="#4797d2" d="M46.22 44.6l-.47 3.44-8.7-2.1 1.04-3.13z" opacity=".3"/><path fill="#4797d2" d="M37.07 42.62l-1.05 3.08-7.3-1.8 1.44-2.7z" opacity=".3"/><path fill="#e0e31c" d="M11.82 11.25l20 21.76-12.56-2.66-7.44-13.1z" opacity=".15"/><path fill="#e0e31c" d="M3.22 6.86L36 45.68l-7.24-1.8L3.22 10.86z" opacity=".15"/><path fill="#e0e31c" d="M5.28 6.66l31.78 36-7-1.42L5.27 10.42z" opacity=".15"/><path fill="#e0e31c" d="M5.23 10.48L30.1 41.3 28.7 44 3.38 10.78z" opacity=".15"/><path fill="#e0e31c" d="M5.23 6.66l31.8 36.04-1.1 3L3.36 6.8z" opacity=".15"/><path fill="#e0e31c" d="M5.9 6.57L37.44 41.8l-6.63-1.4L5.9 10.1z" opacity=".15"/><path fill="#e0e31c" d="M8.62 6.43l29.87 32.1-7.02-1.4L8.62 9.67z" opacity=".15"/><path fill="#e0e31c" d="M6.66 6.38l25.77 30.87-1.62 3.15-26-33.74z" opacity=".15"/><path fill="#e0e31c" d="M8.53 6.43L38.45 38.6l-1.1 3L5.95 6.57z" opacity=".15"/><path fill="#e0e31c" d="M11.72 9.28l22.66 24.37-1.54 2.8L9.3 9.66z" opacity=".15"/><path fill="#e0e31c" d="M11.76 6.23l28.52 28.6-1.54 2.8L9.3 6.37z" opacity=".15"/><path fill="#e0e31c" d="M3.22 13.1l21.7 29.96-16.17-3.9-5.53-18.4z" opacity=".25"/><path fill="#e0e31c" d="M11.76 17.3l7.48 13-10.38 8.8L3.3 20.86z" opacity=".2"/><path fill="#e0e31c" d="M11.65 11.25L31.75 33 24.9 42.9 3.27 13.1z" opacity=".15"/><path fill="#e0e31c" d="M3.22 3.06L45.76 48l-8.66-2.1L3.22 6.33z" opacity=".15"/><path fill="#e0e31c" d="M11.82 6.2l27.92 28.52-5.26-1.05L11.82 9.2z" opacity=".15"/><path fill="#e0e31c" d="M11.82 3.3l35.74 33.05-6.77-1.4L11.8 5.84z" opacity=".15"/><path fill="#e0e31c" d="M9.24 3.42l38.04 36-6.78-1.38L9.24 5.94z" opacity=".15"/><path fill="#e0e31c" d="M11.87 3.37L47.6 36.42l-.47 3.03L9.3 3.32z" opacity=".15"/><path fill="#e0e31c" d="M8.57 3.28l38.2 37.3-6.77-1.4L8.57 6.03z" opacity=".15"/><path fill="#e0e31c" d="M5.82 3.25L46.4 43.6l-7.86-1.57L5.82 6.2z" opacity=".15"/><path fill="#e0e31c" d="M8.54 3.25L46.9 40.6l-.5 3.02L5.97 3.2z" opacity=".15"/><path fill="#e0e31c" d="M5.24 3.22l40.82 41.36-7.9-1.7L5.24 6.25z" opacity=".15"/><path fill="#e0e31c" d="M5.2 3.2L46.2 44.6l-.43 3.34-42.4-44.8z" opacity=".15"/></svg>