<svg xmlns="http://www.w3.org/2000/svg" width="48" height="48" xmlns:xlink="http://www.w3.org/1999/xlink" version="1" viewBox="0 0 612 792" enable-background="new 0 0 612 792"><defs><linearGradient id="w"><stop offset="0" stop-color="#ad7fa8" stop-opacity=".441"/><stop offset="1" stop-color="#ad7fa8" stop-opacity="0"/></linearGradient><linearGradient id="v"><stop offset="0" stop-color="#fce94f"/><stop offset="1" stop-color="#fce94f" stop-opacity="0"/></linearGradient><linearGradient id="u"><stop offset="0" stop-color="#ad7fa8"/><stop offset="1" stop-color="#ad7fa8" stop-opacity="0"/></linearGradient><linearGradient id="t"><stop offset="0"/><stop offset="1" stop-opacity="0"/></linearGradient><linearGradient x1="324.897" x2="317.909" y1="377.574" y2="379.106" xlink:href="#a" gradientUnits="userSpaceOnUse"/><linearGradient x1="326.124" x2="315.869" y1="406.092" y2="403.19" xlink:href="#b" gradientUnits="userSpaceOnUse"/><linearGradient x1="325.934" x2="320.168" y1="412.134" y2="414.158" xlink:href="#c" gradientUnits="userSpaceOnUse"/><radialGradient cx="322.547" cy="391.091" r="11.656" xlink:href="#d" gradientUnits="userSpaceOnUse" gradientTransform="matrix(0 -1 .6 0 87.892 713.638)"/><radialGradient cx="318.05" cy="393.534" r="3.082" xlink:href="#SVGID_5_" gradientUnits="userSpaceOnUse" gradientTransform="matrix(0 -1 .6 0 81.93 711.583)"/><radialGradient cx="319.369" cy="385.682" r="4.082" xlink:href="#e" gradientUnits="userSpaceOnUse" gradientTransform="matrix(0 -1 .6 0 87.96 705.051)"/><radialGradient cx="320.415" cy="388.379" r="15.988" xlink:href="#f" gradientUnits="userSpaceOnUse" gradientTransform="matrix(0 -1 .6 0 87.387 708.794)"/><linearGradient x1="321.242" x2="318.73" y1="378.888" y2="379.072" xlink:href="#g" gradientUnits="userSpaceOnUse"/><linearGradient x1="321.976" x2="319.663" y1="414.489" y2="414.75" xlink:href="#h" gradientUnits="userSpaceOnUse"/><linearGradient x1="322.713" x2="318.146" y1="406.195" y2="405.582" xlink:href="#i" gradientUnits="userSpaceOnUse"/><linearGradient x1="283.466" x2="275.789" y1="377.052" y2="378.735" xlink:href="#j" gradientUnits="userSpaceOnUse"/><linearGradient x1="284.966" x2="273.631" y1="405.82" y2="402.613" xlink:href="#k" gradientUnits="userSpaceOnUse"/><linearGradient x1="284.537" x2="278.252" y1="411.558" y2="413.764" xlink:href="#l" gradientUnits="userSpaceOnUse"/><radialGradient cx="286.14" cy="390.674" r="11.657" xlink:href="#m" gradientUnits="userSpaceOnUse" gradientTransform="matrix(0 -1 .663 0 21.805 676.814)"/><radialGradient cx="281.718" cy="392.291" r="3.762" xlink:href="#n" gradientUnits="userSpaceOnUse" gradientTransform="matrix(0 -1 .663 0 15.845 674.009)"/><radialGradient cx="282.927" cy="384.708" r="4.418" xlink:href="#o" gradientUnits="userSpaceOnUse" gradientTransform="matrix(0 -1 .663 0 22.21 667.635)"/><radialGradient cx="284.007" cy="387.963" r="15.989" xlink:href="#p" gradientUnits="userSpaceOnUse" gradientTransform="matrix(0 -1 .663 0 21.245 671.97)"/><linearGradient x1="279.453" x2="276.675" y1="378.463" y2="378.666" xlink:href="#q" gradientUnits="userSpaceOnUse"/><linearGradient x1="280.284" x2="277.727" y1="414.05" y2="414.338" xlink:href="#r" gradientUnits="userSpaceOnUse"/><linearGradient x1="281.117" x2="276.068" y1="405.809" y2="405.131" xlink:href="#s" gradientUnits="userSpaceOnUse"/><linearGradient id="a" x1="324.897" x2="317.909" y1="377.574" y2="379.106" gradientUnits="userSpaceOnUse"><stop offset="0"/><stop offset=".09" stop-opacity=".91"/><stop offset="1" stop-opacity="0"/></linearGradient><linearGradient id="b" x1="326.124" x2="315.869" y1="406.092" y2="403.19" gradientUnits="userSpaceOnUse"><stop offset="0"/><stop offset=".09" stop-opacity=".91"/><stop offset="1" stop-opacity="0"/></linearGradient><linearGradient id="c" x1="325.934" x2="320.168" y1="412.134" y2="414.158" gradientUnits="userSpaceOnUse"><stop offset="0"/><stop offset=".09" stop-opacity=".91"/><stop offset="1" stop-opacity="0"/></linearGradient><radialGradient id="d" cx="322.547" cy="391.091" r="11.656" gradientTransform="matrix(0 -1 .6 0 87.892 713.638)" gradientUnits="userSpaceOnUse"><stop offset=".147" stop-color="#F7F7D1" stop-opacity="0"/><stop offset=".21" stop-color="#F6E9C9" stop-opacity=".052"/><stop offset=".333" stop-color="#F4CCB6" stop-opacity=".154"/><stop offset=".501" stop-color="#F19C99" stop-opacity=".294"/><stop offset=".708" stop-color="#EE5877" stop-opacity=".465"/><stop offset=".798" stop-color="#EE2469" stop-opacity=".54"/><stop offset=".798" stop-color="#EE2468" stop-opacity=".542"/><stop offset=".853" stop-color="#EA205C" stop-opacity=".652"/><stop offset=".906" stop-color="#E81D53" stop-opacity=".759"/><stop offset=".956" stop-color="#E71B4D" stop-opacity=".861"/><stop offset="1" stop-color="#E71A4B" stop-opacity=".95"/></radialGradient><radialGradient id="e" cx="319.369" cy="385.682" r="4.082" gradientTransform="matrix(0 -1 .6 0 87.96 705.051)" gradientUnits="userSpaceOnUse"><stop offset=".147" stop-color="#F7F7D1" stop-opacity="0"/><stop offset=".21" stop-color="#F6E9C9" stop-opacity=".052"/><stop offset=".333" stop-color="#F4CCB6" stop-opacity=".154"/><stop offset=".501" stop-color="#F19C99" stop-opacity=".294"/><stop offset=".708" stop-color="#EE5877" stop-opacity=".465"/><stop offset=".798" stop-color="#EE2469" stop-opacity=".54"/><stop offset=".798" stop-color="#EE2468" stop-opacity=".542"/><stop offset=".853" stop-color="#EA205C" stop-opacity=".652"/><stop offset=".906" stop-color="#E81D53" stop-opacity=".759"/><stop offset=".956" stop-color="#E71B4D" stop-opacity=".861"/><stop offset="1" stop-color="#E71A4B" stop-opacity=".95"/></radialGradient><radialGradient id="f" cx="320.415" cy="388.379" r="15.988" gradientTransform="matrix(0 -1 .6 0 87.387 708.794)" gradientUnits="userSpaceOnUse"><stop offset=".147" stop-color="#F7F7D1" stop-opacity="0"/><stop offset=".21" stop-color="#F6E9C9" stop-opacity=".052"/><stop offset=".333" stop-color="#F4CCB6" stop-opacity=".154"/><stop offset=".501" stop-color="#F19C99" stop-opacity=".294"/><stop offset=".708" stop-color="#EE5877" stop-opacity=".465"/><stop offset=".798" stop-color="#EE2469" stop-opacity=".54"/><stop offset=".798" stop-color="#EE2468" stop-opacity=".542"/><stop offset=".853" stop-color="#EA205C" stop-opacity=".652"/><stop offset=".906" stop-color="#E81D53" stop-opacity=".759"/><stop offset=".956" stop-color="#E71B4D" stop-opacity=".861"/><stop offset="1" stop-color="#E71A4B" stop-opacity=".95"/></radialGradient><linearGradient id="g" x1="321.242" x2="318.73" y1="378.888" y2="379.072" gradientUnits="userSpaceOnUse"><stop offset="0" stop-color="#939598"/><stop offset=".019" stop-color="#8F9194" stop-opacity=".981"/><stop offset=".156" stop-color="#737577" stop-opacity=".844"/><stop offset=".3" stop-color="#5B5B5E" stop-opacity=".7"/><stop offset=".451" stop-color="#454547" stop-opacity=".549"/><stop offset=".61" stop-color="#2A292A" stop-opacity=".39"/><stop offset=".784" stop-color="#0D0D0E" stop-opacity=".216"/><stop offset="1" stop-opacity="0"/></linearGradient><linearGradient id="h" x1="321.976" x2="319.663" y1="414.489" y2="414.75" gradientUnits="userSpaceOnUse"><stop offset="0" stop-color="#939598"/><stop offset=".019" stop-color="#8F9194" stop-opacity=".981"/><stop offset=".156" stop-color="#737577" stop-opacity=".844"/><stop offset=".3" stop-color="#5B5B5E" stop-opacity=".7"/><stop offset=".451" stop-color="#454547" stop-opacity=".549"/><stop offset=".61" stop-color="#2A292A" stop-opacity=".39"/><stop offset=".784" stop-color="#0D0D0E" stop-opacity=".216"/><stop offset="1" stop-opacity="0"/></linearGradient><linearGradient id="i" x1="322.713" x2="318.146" y1="406.195" y2="405.582" gradientUnits="userSpaceOnUse"><stop offset="0" stop-color="#6D6E71"/><stop offset=".137" stop-color="#5A5B5E" stop-opacity=".864"/><stop offset=".321" stop-color="#454547" stop-opacity=".679"/><stop offset=".518" stop-color="#29292A" stop-opacity=".482"/><stop offset=".733" stop-color="#0D0D0E" stop-opacity=".268"/><stop offset="1" stop-opacity="0"/></linearGradient><linearGradient id="j" x1="283.466" x2="275.789" y1="377.052" y2="378.735" gradientUnits="userSpaceOnUse"><stop offset="0"/><stop offset=".09" stop-opacity=".91"/><stop offset="1" stop-opacity="0"/></linearGradient><linearGradient id="k" x1="284.966" x2="273.631" y1="405.82" y2="402.613" gradientUnits="userSpaceOnUse"><stop offset="0"/><stop offset=".09" stop-opacity=".91"/><stop offset="1" stop-opacity="0"/></linearGradient><linearGradient id="l" x1="284.537" x2="278.252" y1="411.558" y2="413.764" gradientUnits="userSpaceOnUse"><stop offset="0"/><stop offset=".09" stop-opacity=".91"/><stop offset="1" stop-opacity="0"/></linearGradient><radialGradient id="m" cx="286.14" cy="390.674" r="11.657" gradientTransform="matrix(0 -1 .663 0 21.805 676.814)" gradientUnits="userSpaceOnUse"><stop offset=".147" stop-color="#F7F7D1" stop-opacity="0"/><stop offset=".21" stop-color="#F6E9C9" stop-opacity=".052"/><stop offset=".333" stop-color="#F4CCB6" stop-opacity=".154"/><stop offset=".501" stop-color="#F19C99" stop-opacity=".294"/><stop offset=".708" stop-color="#EE5877" stop-opacity=".465"/><stop offset=".798" stop-color="#EE2469" stop-opacity=".54"/><stop offset=".798" stop-color="#EE2468" stop-opacity=".542"/><stop offset=".853" stop-color="#EA205C" stop-opacity=".652"/><stop offset=".906" stop-color="#E81D53" stop-opacity=".759"/><stop offset=".956" stop-color="#E71B4D" stop-opacity=".861"/><stop offset="1" stop-color="#E71A4B" stop-opacity=".95"/></radialGradient><radialGradient id="o" cx="282.927" cy="384.708" r="4.418" gradientTransform="matrix(0 -1 .663 0 22.21 667.635)" gradientUnits="userSpaceOnUse"><stop offset=".147" stop-color="#F7F7D1" stop-opacity="0"/><stop offset=".21" stop-color="#F6E9C9" stop-opacity=".052"/><stop offset=".333" stop-color="#F4CCB6" stop-opacity=".154"/><stop offset=".501" stop-color="#F19C99" stop-opacity=".294"/><stop offset=".708" stop-color="#EE5877" stop-opacity=".465"/><stop offset=".798" stop-color="#EE2469" stop-opacity=".54"/><stop offset=".798" stop-color="#EE2468" stop-opacity=".542"/><stop offset=".853" stop-color="#EA205C" stop-opacity=".652"/><stop offset=".906" stop-color="#E81D53" stop-opacity=".759"/><stop offset=".956" stop-color="#E71B4D" stop-opacity=".861"/><stop offset="1" stop-color="#E71A4B" stop-opacity=".95"/></radialGradient><radialGradient id="p" cx="284.007" cy="387.963" r="15.989" gradientTransform="matrix(0 -1 .663 0 21.245 671.97)" gradientUnits="userSpaceOnUse"><stop offset=".147" stop-color="#F7F7D1" stop-opacity="0"/><stop offset=".21" stop-color="#F6E9C9" stop-opacity=".052"/><stop offset=".333" stop-color="#F4CCB6" stop-opacity=".154"/><stop offset=".501" stop-color="#F19C99" stop-opacity=".294"/><stop offset=".708" stop-color="#EE5877" stop-opacity=".465"/><stop offset=".798" stop-color="#EE2469" stop-opacity=".54"/><stop offset=".798" stop-color="#EE2468" stop-opacity=".542"/><stop offset=".853" stop-color="#EA205C" stop-opacity=".652"/><stop offset=".906" stop-color="#E81D53" stop-opacity=".759"/><stop offset=".956" stop-color="#E71B4D" stop-opacity=".861"/><stop offset="1" stop-color="#E71A4B" stop-opacity=".95"/></radialGradient><linearGradient id="q" x1="279.453" x2="276.675" y1="378.463" y2="378.666" gradientUnits="userSpaceOnUse"><stop offset="0" stop-color="#939598"/><stop offset=".019" stop-color="#8F9194" stop-opacity=".981"/><stop offset=".156" stop-color="#737577" stop-opacity=".844"/><stop offset=".3" stop-color="#5B5B5E" stop-opacity=".7"/><stop offset=".451" stop-color="#454547" stop-opacity=".549"/><stop offset=".61" stop-color="#2A292A" stop-opacity=".39"/><stop offset=".784" stop-color="#0D0D0E" stop-opacity=".216"/><stop offset="1" stop-opacity="0"/></linearGradient><linearGradient id="r" x1="280.284" x2="277.727" y1="414.05" y2="414.338" gradientUnits="userSpaceOnUse"><stop offset="0" stop-color="#939598"/><stop offset=".019" stop-color="#8F9194" stop-opacity=".981"/><stop offset=".156" stop-color="#737577" stop-opacity=".844"/><stop offset=".3" stop-color="#5B5B5E" stop-opacity=".7"/><stop offset=".451" stop-color="#454547" stop-opacity=".549"/><stop offset=".61" stop-color="#2A292A" stop-opacity=".39"/><stop offset=".784" stop-color="#0D0D0E" stop-opacity=".216"/><stop offset="1" stop-opacity="0"/></linearGradient><linearGradient id="s" x1="281.117" x2="276.068" y1="405.809" y2="405.131" gradientUnits="userSpaceOnUse"><stop offset="0" stop-color="#6D6E71"/><stop offset=".137" stop-color="#5A5B5E" stop-opacity=".864"/><stop offset=".321" stop-color="#454547" stop-opacity=".679"/><stop offset=".518" stop-color="#29292A" stop-opacity=".482"/><stop offset=".733" stop-color="#0D0D0E" stop-opacity=".268"/><stop offset="1" stop-opacity="0"/></linearGradient><linearGradient id="K" x1="281.117" x2="276.068" y1="405.809" y2="405.131" xlink:href="#s" gradientUnits="userSpaceOnUse" gradientTransform="matrix(16.906 0 0 16.906 -4425.639 -6299.252)"/><linearGradient id="J" x1="280.284" x2="277.727" y1="414.05" y2="414.338" xlink:href="#r" gradientUnits="userSpaceOnUse" gradientTransform="matrix(16.906 0 0 16.906 -4425.639 -6299.252)"/><linearGradient id="I" x1="279.453" x2="276.675" y1="378.463" y2="378.666" xlink:href="#q" gradientUnits="userSpaceOnUse" gradientTransform="matrix(16.906 0 0 16.906 -4425.639 -6299.252)"/><radialGradient id="E" cx="284.007" cy="387.963" r="15.989" xlink:href="#p" gradientUnits="userSpaceOnUse" gradientTransform="matrix(0 -16.906 11.21 0 -4066.47 5061.156)"/><radialGradient id="F" cx="286.14" cy="390.674" r="11.657" xlink:href="#m" gradientUnits="userSpaceOnUse" gradientTransform="matrix(0 -16.906 11.21 0 -4057.003 5143.055)"/><linearGradient id="D" x1="284.537" x2="278.252" y1="411.558" y2="413.764" xlink:href="#l" gradientUnits="userSpaceOnUse" gradientTransform="matrix(16.906 0 0 16.906 -4425.639 -6299.252)"/><linearGradient id="C" x1="284.966" x2="273.631" y1="405.82" y2="402.613" xlink:href="#k" gradientUnits="userSpaceOnUse" gradientTransform="matrix(16.906 0 0 16.906 -4425.639 -6299.252)"/><linearGradient id="B" x1="283.466" x2="275.789" y1="377.052" y2="378.735" xlink:href="#j" gradientUnits="userSpaceOnUse" gradientTransform="matrix(16.906 0 0 16.906 -4425.639 -6299.252)"/><linearGradient x1="322.713" x2="318.146" y1="406.195" y2="405.582" xlink:href="#i" gradientUnits="userSpaceOnUse" gradientTransform="matrix(10.649 0 0 10.649 -2884.128 -3823.603)"/><linearGradient x1="321.976" x2="319.663" y1="414.489" y2="414.75" xlink:href="#h" gradientUnits="userSpaceOnUse" gradientTransform="matrix(10.649 0 0 10.649 -2884.128 -3823.603)"/><linearGradient x1="321.242" x2="318.73" y1="378.888" y2="379.072" xlink:href="#g" gradientUnits="userSpaceOnUse" gradientTransform="matrix(10.649 0 0 10.649 -2884.128 -3823.603)"/><radialGradient cx="320.415" cy="388.379" r="15.988" xlink:href="#f" gradientUnits="userSpaceOnUse" gradientTransform="matrix(0 -10.649 6.389 0 -1953.574 3724.07)"/><radialGradient cx="322.547" cy="391.091" r="11.656" xlink:href="#d" gradientUnits="userSpaceOnUse" gradientTransform="matrix(0 -10.649 6.389 0 -1948.196 3775.645)"/><linearGradient x1="325.934" x2="320.168" y1="412.134" y2="414.158" xlink:href="#c" gradientUnits="userSpaceOnUse" gradientTransform="matrix(10.649 0 0 10.649 -2884.128 -3823.603)"/><linearGradient x1="326.124" x2="315.869" y1="406.092" y2="403.19" xlink:href="#b" gradientUnits="userSpaceOnUse" gradientTransform="matrix(10.649 0 0 10.649 -2884.128 -3823.603)"/><linearGradient x1="324.897" x2="317.909" y1="377.574" y2="379.106" xlink:href="#a" gradientUnits="userSpaceOnUse" gradientTransform="matrix(10.649 0 0 10.649 -2884.128 -3823.603)"/><radialGradient id="H" cx="282.927" cy="384.708" r="4.418" xlink:href="#o" gradientUnits="userSpaceOnUse" gradientTransform="matrix(0 -1 .663 0 22.21 667.635)"/><radialGradient id="G" cx="281.718" cy="392.291" r="3.762" xlink:href="#n" gradientUnits="userSpaceOnUse" gradientTransform="matrix(0 -1 .663 0 15.845 674.009)"/><linearGradient x1="280.019" x2="703.79" y1="720.746" y2="720.746" xlink:href="#t" gradientUnits="userSpaceOnUse"/><radialGradient id="y" cx="293.77" cy="302.6" r="318.141" xlink:href="#u" fx="293.77" fy="302.6" gradientUnits="userSpaceOnUse"/><radialGradient id="A" cx="293.77" cy="302.6" r="318.141" xlink:href="#v" fx="293.77" fy="302.6" gradientUnits="userSpaceOnUse"/><radialGradient id="z" cx="293.77" cy="302.6" r="318.141" xlink:href="#v" gradientUnits="userSpaceOnUse" fx="293.77" fy="302.6"/><radialGradient id="x" cx="293.77" cy="302.6" r="318.141" xlink:href="#w" gradientUnits="userSpaceOnUse" fx="293.77" fy="302.6"/></defs><path fill="url(#x)" fill-rule="evenodd" d="M611.9 302.6a318.14 318.14 0 1 1-636.27 0 318.14 318.14 0 1 1 636.28 0z" transform="matrix(1 0 0 .399 -15.626 594.438)" overflow="visible" enable-background="accumulate"/><path fill="url(#y)" fill-rule="evenodd" d="M611.9 302.6a318.14 318.14 0 1 1-636.27 0 318.14 318.14 0 1 1 636.28 0z" transform="translate(-15.626 15.001)" overflow="visible" enable-background="accumulate"/><path fill="url(#z)" fill-rule="evenodd" d="M611.9 302.6a318.14 318.14 0 1 1-636.27 0 318.14 318.14 0 1 1 636.28 0z" transform="matrix(.617 0 0 .617 191.923 210.932)" overflow="visible" enable-background="accumulate"/><path fill="url(#A)" fill-rule="evenodd" d="M611.9 302.6a318.14 318.14 0 1 1-636.27 0 318.14 318.14 0 1 1 636.28 0z" transform="matrix(.617 0 0 .617 53.166 33.423)" overflow="visible" enable-background="accumulate"/><path fill="none" stroke="#6d6e71" stroke-width="16.5" stroke-miterlimit="10" d="M280.6 784.42c-115.57 0-128.9-26.6-129.24-38.04l-.07-2.05 45.13-123.75-60.66-154.72c-2.1-3.34-3.2-6.77-3.2-10.22l.2-1.87 57.07-314.44c.62-3.16 14.52-74.17 23.97-107.83 2.68-19.95 47.3-22.16 66.8-22.16 19.55 0 64.3 2.2 66.84 22.25 6.3 23.55 22.48 97.08 24 107.97l57.2 316.07c0 3.47-1.1 6.9-3.23 10.23l-60.62 154.7 45.17 123.75-.06 2.04c-.4 11.45-13.7 38.06-129.3 38.06z" stroke-linecap="round" stroke-linejoin="round"/><path fill="none" stroke="#fff" stroke-width="16.5" stroke-miterlimit="10" d="M202.55 141.2l-57.1 314.44c0 1.78.8 3.5 2.05 5.2L210 620.47l-45.8 125.58s.83 26.74 116.4 26.74c115.58 0 116.44-26.74 116.44-26.74l-45.87-125.58 62.57-159.65c1.25-1.7 2.05-3.4 2.05-5.2l-57.1-314.42s.92 7.26 0 0c-1.07-8.48-17.64-84.3-24-107.8 0-6.88-24.22-12.45-54.1-12.45-29.85 0-54.04 5.57-54.04 12.45-9.45 33.17-24 107.8-24 107.8" stroke-linecap="round" stroke-linejoin="round"/><ellipse cx="278.376" cy="399.526" fill="#939598" rx="7.976" ry="1.839" transform="matrix(16.906 0 0 16.906 -4425.639 -6299.252)"/><ellipse cx="278.377" cy="374.561" fill="#f1f2f2" rx="3.189" ry=".736" transform="matrix(16.906 0 0 16.906 -4425.639 -6299.252)"/><path fill="#939598" d="M226.73 33.13c-9.46 33.15-24 107.77-24 107.77s14.5 17.97 77.9 17.97c63.37 0 75.66-9.65 77.9-17.97 2.24-8.3-17.6-84.27-23.98-107.77-16.53 11.04-80.1 16.58-107.82 0z"/><path fill="url(#B)" d="M226.95 33.13c-9.46 33.15-23.98 107.77-23.98 107.77s14.52 17.97 77.9 17.97c63.35 0 75.64-9.65 77.88-17.97 2.28-8.3-17.57-84.27-23.94-107.77-16.5 11.04-80.1 16.58-107.85 0z"/><path fill="#808285" d="M145.78 455.2l64.46 164.74s13.1 16.2 70.4 16.2c57.26 0 70.4-16.2 70.4-16.2l64.43-164.75s-36.35 26.92-135.6 26.92-134.1-26.93-134.1-26.93z"/><path fill="url(#C)" d="M145.74 454.5l64.47 164.74s13.14 16.25 70.4 16.25c57.27 0 70.4-16.26 70.4-16.26l64.47-164.73s-36.4 26.94-135.6 26.94c-99.23 0-134.13-26.93-134.13-26.93z"/><path fill="#939598" d="M164.5 745.48l45.74-125.54s15.22 16.2 70.4 16.2c55.33 0 70.4-16.2 70.4-16.2l45.7 125.54s-.84 26.75-116.1 26.75c-115.27 0-116.13-26.75-116.13-26.75z"/><path fill="url(#D)" d="M164.5 745.65l45.7-125.54s15.26 16.25 70.44 16.25c55.33 0 70.2-17.1 70.2-17.1l45.9 126.4s-.84 26.78-116.1 26.78c-115.3 0-116.13-26.78-116.13-26.78z"/><path fill="#6a2c91" d="M202.72 140.9L145.8 455.2s33.28 26.92 134.1 26.92c97.7 0 135.58-26.93 135.58-26.93l-56.92-314.3s2.25 17.96-77.9 17.96c-63.8 0-77.94-17.97-77.94-17.97z" opacity=".68"/><path fill="url(#E)" d="M202.72 140.72L145.8 455s33.32 26.95 134.1 26.95c97.73 0 135.58-26.95 135.58-26.95l-56.92-314.28s2.25 17.95-77.9 17.95c-63.8 0-77.94-17.95-77.94-17.95z" opacity=".68"/><path fill="#feef21" d="M340.77 334.04c-.23-19.6 16.45-30.7 16.45-50.7 0-38.63-23.38-69.94-52.17-69.94-28.8 0-52.14 31.3-52.14 69.94 0 33.86 33.27 43 41.82 68.55 3.47 17.45 2.9 28.33-35.47 59.42-32.98 26.72 10.9 66.3 71 66.3 44.67 0 86.15-46.32 52.7-72.53-33.8-26.43-45.25-48.2-42.18-71.06z"/><path fill="url(#F)" d="M340.77 334.04c-.23-19.6 16.45-30.7 16.45-50.7 0-38.63-23.38-69.94-52.17-69.94-28.8 0-52.14 31.3-52.14 69.94 0 33.86 33.27 43 41.82 68.55 3.47 17.45 2.9 28.33-35.47 59.42-32.98 26.72 10.9 66.3 71 66.3 44.67 0 86.15-46.32 52.7-72.53-33.8-26.43-45.25-48.2-42.18-71.06z"/><g transform="matrix(16.906 0 0 16.906 -4425.639 -6299.252)"><ellipse cx="275.847" cy="393.683" fill="#feef21" rx="1.728" ry="1.869"/><radialGradient id="n" cx="281.718" cy="392.291" r="3.762" gradientTransform="matrix(0 -1 .663 0 15.845 674.009)" gradientUnits="userSpaceOnUse"><stop offset=".147" stop-color="#F7F7D1" stop-opacity="0"/><stop offset=".21" stop-color="#F6E9C9" stop-opacity=".052"/><stop offset=".333" stop-color="#F4CCB6" stop-opacity=".154"/><stop offset=".501" stop-color="#F19C99" stop-opacity=".294"/><stop offset=".708" stop-color="#EE5877" stop-opacity=".465"/><stop offset=".798" stop-color="#EE2469" stop-opacity=".54"/><stop offset=".798" stop-color="#EE2468" stop-opacity=".542"/><stop offset=".853" stop-color="#EA205C" stop-opacity=".652"/><stop offset=".906" stop-color="#E81D53" stop-opacity=".759"/><stop offset=".956" stop-color="#E71B4D" stop-opacity=".861"/><stop offset="1" stop-color="#E71A4B" stop-opacity=".95"/></radialGradient><ellipse cx="275.869" cy="393.683" fill="url(#G)" rx="1.727" ry="1.869"/></g><ellipse cx="277.286" cy="386.015" fill="#feef21" rx="2.288" ry="2.476" transform="matrix(16.906 0 0 16.906 -4454.391 -6317.378)"/><ellipse cx="277.317" cy="386.015" fill="url(#H)" rx="2.288" ry="2.476" transform="matrix(16.906 0 0 16.906 -4454.391 -6317.378)"/><path fill="#fff" d="M229.46 34.68l-24.04 107.95c2.02 2.14 12.2 9.3 25.2 11.4 3.07-17.98 15.75-113.4 15.75-113.4-6.9-1.54-11.17-3.1-16.9-5.95z"/><path fill="#fff" d="M213.7 622.95L167.33 750.4c2 6.48 29.8 16.84 48.7 18.13C219.1 744 233.7 630.96 233.7 630.96c-14.55-3.1-20-8-20-8z"/><path fill="#cdcfd0" d="M258.98 42.46l-14.62 113.98c14.33 2.08 37.2 3.1 57 1.8L285.3 43.5c-8.3.5-17.48 0-26.32-1.04z"/><path fill="url(#I)" d="M258.98 42.54L244.36 156.5c14.33 2.1 37.2 3.12 57 1.82L285.3 43.56c-8.3.52-17.48 0-26.32-1.02z"/><path fill="#cdcfd0" d="M259.6 635.46l-22.68 134.9c5.92 1.9 65.1 3.63 77.85.52l-21.2-135.4c-12.93.7-19.07 1.4-33.96-.02z"/><path fill="url(#J)" d="M259.64 635.8l-22.72 134.9c5.92 1.9 65.1 3.62 77.85.5l-21.2-135.37c-12.93.7-19.07 1.4-33.93-.03z"/><path fill="#b3b5b8" d="M156.16 461.32l57.55 161.64c4.34 2.84 16.64 8.03 20.06 8.03l-18.43-153.36c0-.02-33.12-3.38-59.17-16.32z"/><path fill="#8f9194" d="M259.8 635.14c4.96 2.08 29.53 1.3 34.1.27l37.24-155.95c-17.5 2.84-69.32 4.4-92.5 1.05l21.17 154.64z"/><path fill="url(#K)" d="M259.8 634.87c4.96 2.08 29.53 1.3 34.1.27l37.24-155.96c-17.5 2.85-69.32 4.43-92.5 1.06l21.17 154.63z"/></svg>