<svg xmlns="http://www.w3.org/2000/svg" width="48" height="48" xmlns:xlink="http://www.w3.org/1999/xlink"><defs><linearGradient id="e"><stop offset="0" stop-color="#edd400"/><stop offset="1" stop-color="#edd400" stop-opacity="0"/></linearGradient><linearGradient id="d"><stop offset="0" stop-color="#fce94f"/><stop offset="1" stop-color="#fce94f" stop-opacity="0"/></linearGradient><linearGradient><stop offset="0"/><stop offset="1" stop-opacity="0"/></linearGradient><linearGradient id="a"><stop offset="0" stop-color="#7b6300"/><stop offset="1" stop-color="#7b6300" stop-opacity="0"/></linearGradient><linearGradient x1="4.889" x2="26.984" y1="45.538" y2="20.246" xlink:href="#a" gradientUnits="userSpaceOnUse" gradientTransform="matrix(-.282 -.843 -.841 .283 43.098 25.756)"/><linearGradient x1="187.75" x2="205.558" y1="394.712" y2="412.86" xlink:href="#b" gradientUnits="userSpaceOnUse" gradientTransform="matrix(-1.148 .316 .315 1.151 106.867 -505.477)"/><radialGradient id="b" cx="111.321" cy="388.557" r="21.763" gradientUnits="userSpaceOnUse" fy="388.557" fx="111.321"><stop offset="0" stop-color="#fff" stop-opacity="0"/><stop offset="1" stop-color="#EBD50E"/></radialGradient><linearGradient x1="196.136" x2="205.558" y1="402.832" y2="412.86" xlink:href="#b" gradientUnits="userSpaceOnUse" gradientTransform="matrix(.823 1.06 -1.06 .823 275.372 -518.477)"/><linearGradient id="c"><stop offset="0" stop-color="#fcffff"/><stop offset=".714" stop-color="#fcf4a7"/><stop offset="1" stop-color="#fce94f"/></linearGradient><radialGradient cx="24.357" cy="7.071" r="22.714" xlink:href="#c" fx="24.357" fy="7.071" gradientTransform="matrix(.755 0 0 .358 5.974 4.536)" gradientUnits="userSpaceOnUse"/><linearGradient x1="187.75" x2="205.558" y1="394.712" y2="412.86" xlink:href="#b" gradientUnits="userSpaceOnUse" gradientTransform="matrix(-1.072 .547 .545 1.076 -2.213 -518.606)"/><linearGradient x1="4.889" x2="26.984" y1="45.538" y2="20.246" xlink:href="#a" gradientUnits="userSpaceOnUse" gradientTransform="matrix(-.449 -.778 -.775 .451 42.13 20.751)"/><linearGradient x1="187.75" x2="205.558" y1="394.712" y2="412.86" xlink:href="#b" gradientUnits="userSpaceOnUse" gradientTransform="matrix(-.959 .939 .939 .959 -167.685 -543.229)"/><linearGradient x1="4.889" x2="26.984" y1="45.538" y2="20.246" xlink:href="#a" gradientUnits="userSpaceOnUse" gradientTransform="matrix(-.738 -.675 -.675 .738 59.143 14.075)"/><linearGradient x1="187.75" x2="205.558" y1="394.712" y2="412.86" xlink:href="#b" gradientUnits="userSpaceOnUse" gradientTransform="matrix(1.148 .316 -.315 1.151 -58.349 -505.453)"/><linearGradient x1="4.889" x2="26.984" y1="45.538" y2="20.246" xlink:href="#a" gradientUnits="userSpaceOnUse" gradientTransform="matrix(.282 -.843 .841 .283 5.42 25.78)"/><linearGradient x1="187.75" x2="205.558" y1="394.712" y2="412.86" xlink:href="#b" gradientUnits="userSpaceOnUse" gradientTransform="matrix(1.072 .547 -.545 1.076 50.227 -519.011)"/><linearGradient x1="4.889" x2="26.984" y1="45.538" y2="20.246" xlink:href="#a" gradientUnits="userSpaceOnUse" gradientTransform="matrix(.449 -.778 .775 .451 5.883 20.347)"/><linearGradient x1="7.286" x2="6.714" y1="8.143" y2="42" xlink:href="#d" gradientUnits="userSpaceOnUse"/><linearGradient x1="7.286" x2="6.714" y1="8.143" y2="42" xlink:href="#d" gradientUnits="userSpaceOnUse" gradientTransform="translate(10 4)"/><linearGradient x1="7.286" x2="6.714" y1="8.143" y2="42" xlink:href="#d" gradientUnits="userSpaceOnUse" gradientTransform="matrix(-1 0 0 1 48.571 -.286)"/><linearGradient x1="1.571" x2="1.571" y1="2" y2="41.857" xlink:href="#e" gradientUnits="userSpaceOnUse"/><linearGradient x1="1.571" x2="1.571" y1="2" y2="41.857" xlink:href="#e" gradientUnits="userSpaceOnUse" gradientTransform="matrix(1 0 0 .892 8.286 8.858)"/><linearGradient x1="1.571" x2="1.571" y1="2" y2="41.857" xlink:href="#e" gradientUnits="userSpaceOnUse" gradientTransform="matrix(-1 0 0 .892 39.857 9.286)"/><linearGradient x1="1.571" x2="1.571" y1="2" y2="41.857" xlink:href="#e" gradientUnits="userSpaceOnUse" gradientTransform="matrix(-1 0 0 1 48.714 -.071)"/><linearGradient x1="187.75" x2="205.558" y1="394.712" y2="412.86" xlink:href="#b" gradientUnits="userSpaceOnUse" gradientTransform="matrix(-1.167 .663 .663 1.167 -27.942 -576.939)"/><linearGradient x1="4.889" x2="26.984" y1="45.538" y2="20.246" xlink:href="#a" gradientUnits="userSpaceOnUse" gradientTransform="matrix(-.541 -.841 -.841 .541 49.443 19.76)"/><linearGradient x1="187.75" x2="205.558" y1="394.712" y2="412.86" xlink:href="#b" gradientUnits="userSpaceOnUse" gradientTransform="matrix(1.33 .752 -.756 1.323 84.207 -657.369)"/><linearGradient x1="4.889" x2="26.984" y1="45.538" y2="20.246" xlink:href="#a" gradientUnits="userSpaceOnUse" gradientTransform="matrix(.617 -.954 .958 .614 -3.993 19.317)"/><linearGradient x1="187.75" x2="205.558" y1="394.712" y2="412.86" xlink:href="#b" gradientUnits="userSpaceOnUse" gradientTransform="matrix(-1.275 .722 .725 1.271 -34.552 -630.699)"/><linearGradient x1="4.889" x2="26.984" y1="45.538" y2="20.246" xlink:href="#a" gradientUnits="userSpaceOnUse" gradientTransform="matrix(-.592 -.916 -.919 .589 50.01 19.075)"/><linearGradient x1="187.75" x2="205.558" y1="394.712" y2="412.86" xlink:href="#b" gradientUnits="userSpaceOnUse" gradientTransform="matrix(-.878 .609 .605 .888 -55.427 -455.879)"/><linearGradient x1="4.889" x2="26.984" y1="45.538" y2="20.246" xlink:href="#a" gradientUnits="userSpaceOnUse" gradientTransform="matrix(-.486 -.635 -.628 .49 46.756 15.863)"/><linearGradient x1="187.75" x2="205.558" y1="394.712" y2="412.86" xlink:href="#b" gradientUnits="userSpaceOnUse" gradientTransform="matrix(.867 .624 -.62 .877 110.178 -453.864)"/><linearGradient x1="4.889" x2="26.984" y1="45.538" y2="20.246" xlink:href="#a" gradientUnits="userSpaceOnUse" gradientTransform="matrix(.497 -.627 .619 .501 -.11 16.049)"/><linearGradient x1="187.75" x2="205.558" y1="394.712" y2="412.86" xlink:href="#b" gradientUnits="userSpaceOnUse" gradientTransform="matrix(.902 .573 -.568 .912 83.271 -458.379)"/><linearGradient x1="4.889" x2="26.984" y1="45.538" y2="20.246" xlink:href="#a" gradientUnits="userSpaceOnUse" gradientTransform="matrix(.459 -.655 .648 .464 .629 17.176)"/><linearGradient id="g" x1="187.75" x2="205.558" y1="394.712" y2="412.86" xlink:href="#b" gradientUnits="userSpaceOnUse" gradientTransform="matrix(-1.038 1.035 1.036 1.033 -192.053 -592.065)"/><linearGradient id="h" x1="4.889" x2="26.984" y1="45.538" y2="20.246" xlink:href="#a" gradientUnits="userSpaceOnUse" gradientTransform="matrix(-.813 -.726 -.729 .812 61.857 11.993)"/><linearGradient id="i" x1="187.75" x2="205.558" y1="394.712" y2="412.86" xlink:href="#b" gradientUnits="userSpaceOnUse" gradientTransform="matrix(-1.189 .857 .859 1.184 -104.496 -622.653)"/><linearGradient id="j" x1="4.889" x2="26.984" y1="45.538" y2="20.246" xlink:href="#a" gradientUnits="userSpaceOnUse" gradientTransform="matrix(-.688 -.845 -.849 .686 50.58 13.986)"/><linearGradient x1="187.75" x2="205.558" y1="394.712" y2="412.86" xlink:href="#b" gradientUnits="userSpaceOnUse" gradientTransform="matrix(-1.038 1.035 1.036 1.033 -177.949 -595.878)"/><linearGradient x1="4.889" x2="26.984" y1="45.538" y2="20.246" xlink:href="#a" gradientUnits="userSpaceOnUse" gradientTransform="matrix(-.813 -.726 -.729 .812 75.962 8.18)"/><linearGradient id="k" x1="187.75" x2="205.558" y1="394.712" y2="412.86" xlink:href="#b" gradientUnits="userSpaceOnUse" gradientTransform="matrix(1.189 .857 -.859 1.184 152.948 -622.471)"/><linearGradient id="l" x1="4.889" x2="26.984" y1="45.538" y2="20.246" xlink:href="#a" gradientUnits="userSpaceOnUse" gradientTransform="matrix(.688 -.845 .849 .686 -2.128 14.167)"/><radialGradient cx="24.357" cy="7.071" r="22.714" xlink:href="#c" gradientUnits="userSpaceOnUse" gradientTransform="matrix(.755 0 0 .358 5.974 4.536)" fx="24.357" fy="7.071"/><radialGradient id="f" cx="24.357" cy="7.071" r="22.714" xlink:href="#c" gradientUnits="userSpaceOnUse" gradientTransform="matrix(.755 0 0 .451 5.974 5.17)" fx="24.357" fy="7.071"/></defs><g><path fill="url(#f)" fill-rule="evenodd" stroke="#8e7300" stroke-width="1.5" d="M2.14 2.7h44.43L38 14H10.43L2.13 2.7z"/><path fill="none" stroke="#fff" d="M4.07 3.5h40.86l-7.53 9.35H10.9L4.07 3.5z"/><path fill="url(#g)" stroke="url(#h)" d="M25.65 40.05h3.63l-5.53 7.45-5.52-7.44h3.63L21.44 8.4h3.8l.4 31.63z" color="#000" overflow="visible"/><path fill="url(#i)" stroke="url(#j)" d="M10.4 35.96l3.57.57L7.33 43l-4.27-8.2 3.58.56 4.6-31.3 3.75.6-4.6 31.3z" color="#000" overflow="visible"/><path fill="url(#k)" stroke="url(#l)" d="M38.06 36.14l-3.57.57 6.62 6.5 4.27-8.23-3.6.57-4.6-31.3-3.74.6 4.6 31.3z" color="#000" overflow="visible"/></g></svg>