<svg xmlns="http://www.w3.org/2000/svg" width="48" height="48" xmlns:xlink="http://www.w3.org/1999/xlink"><defs><linearGradient id="a"><stop offset="0" stop-color="#fff" stop-opacity="0"/><stop offset=".5" stop-color="#fff"/><stop offset="1" stop-color="#fff" stop-opacity="0"/></linearGradient><radialGradient id="b" cx="27.749" cy="105.868" r="23.774" gradientUnits="userSpaceOnUse" fy="105.868" fx="27.749"><stop offset="0" stop-color="#fff" stop-opacity="0"/><stop offset=".236" stop-color="#F8FCFF"/><stop offset=".596" stop-color="#F2F9FF"/><stop offset=".966" stop-color="#fff" stop-opacity="0"/></radialGradient><radialGradient id="e" cx="3.349" cy="129.394" r="10.675" gradientUnits="userSpaceOnUse" fy="129.394" fx="3.349" gradientTransform="matrix(1.012 0 0 1.012 -3.764 -82.709)"><stop offset="0" stop-color="#EAEEF2"/><stop offset=".242" stop-color="#D8E2EB"/><stop offset=".73" stop-color="#8893A0"/><stop offset="1" stop-color="#9CA7B3"/></radialGradient><linearGradient id="f" x1="44.161" x2="49.036" y1="87.309" y2="92.293" gradientUnits="userSpaceOnUse" gradientTransform="matrix(1.012 0 0 1.012 -3.764 -82.709)"><stop offset="0" stop-color="#8893A0"/><stop offset=".169" stop-color="#EAEEF2"/><stop offset=".247" stop-color="#D8E2EB"/><stop offset=".601" stop-color="#6D7480"/><stop offset=".809" stop-color="#77818C"/><stop offset="1" stop-color="#DBE6F2"/></linearGradient><linearGradient id="g" x1="26.019" x2="32.089" y1="102.335" y2="109.202" gradientUnits="userSpaceOnUse" gradientTransform="matrix(1.012 0 0 1.012 -3.764 -82.709)"><stop offset="0" stop-color="#D9E5EF"/><stop offset=".169" stop-color="#fff"/><stop offset=".601" stop-color="#E6F4FF"/><stop offset=".809" stop-color="#DAE8F2"/><stop offset="1" stop-color="#E6EBF2"/></linearGradient><linearGradient id="h" x1="8.164" x2="14.662" y1="118.061" y2="125.488" gradientUnits="userSpaceOnUse" gradientTransform="matrix(1.012 0 0 1.012 -3.764 -82.709)"><stop offset="0" stop-color="#8893A0"/><stop offset=".169" stop-color="#EAEEF2"/><stop offset=".247" stop-color="#D8E2EB"/><stop offset=".601" stop-color="#6D7480"/><stop offset=".809" stop-color="#77818C"/><stop offset="1" stop-color="#DBE6F2"/></linearGradient><linearGradient id="i" x1="6.659" x2="13.307" y1="118.963" y2="126.714" gradientUnits="userSpaceOnUse"><stop offset=".028" stop-color="#6D7480"/><stop offset=".031" stop-color="#717884"/><stop offset=".056" stop-color="#9198A1"/><stop offset=".084" stop-color="#ADB2BA"/><stop offset=".115" stop-color="#C4C8CF"/><stop offset=".151" stop-color="#D5D9DF"/><stop offset=".196" stop-color="#E1E5EA"/><stop offset=".256" stop-color="#E8ECF0"/><stop offset=".41" stop-color="#EAEEF2"/><stop offset=".635" stop-color="#BBC5CE"/><stop offset=".916" stop-color="#77818C"/><stop offset="1" stop-color="#6D7480"/></linearGradient><linearGradient id="d" x1="3.462" x2="39.098" y1="35.454" y2="4.134" xlink:href="#a" gradientUnits="userSpaceOnUse"/><linearGradient id="c" x1="12.792" x2="44.906" y1="45.299" y2="13.728" xlink:href="#a" gradientUnits="userSpaceOnUse"/></defs><g><circle cx="27.749" cy="105.867" r="23.774" fill="url(#b)" transform="matrix(.845 -.764 .456 .504 -47.37 -7.668)"/><path stroke="url(#c)" stroke-width="7" d="M11.3 43.78l32.25-30.96"/><path stroke="url(#d)" stroke-width="7" d="M38.88 7.63L4.68 36.7"/><g fill="none" stroke="#597fb3" stroke-width="1.186"><g><path d="M2.8 42.35l-1.95 1.7v.47l.98.3 1.94-1.74"/><path d="M6.16 43.28l-1.95 1.8v.45l1 .3L7.13 44"/></g><path d="M43.85 12.53l1.92-1.84c.35-.42.6-.96.64-1.6.15-1.72-1.12-3.48-2.82-3.92-.97-.25-1.87-.02-2.5.55l-1.9 1.6"/><path d="M11.6 43.48l32.25-30.95"/><path d="M4.98 36.4L1.5 39.37c-.6.56-.93 1.4-.9 2.4.1 2.32 2.1 4.74 4.5 5.4 1.4.37 2.63.07 3.4-.7l3.1-2.98"/><path d="M39.18 7.34L4.98 36.4"/></g><path fill="url(#e)" d="M8.5 46.46c-.77.77-2 1.07-3.4.7-2.4-.66-4.4-3.08-4.5-5.4-.07-2.33 1.82-3.68 4.22-3.02 2.4.66 4.42 3.07 4.5 5.4.03.96-.28 1.76-.83 2.32"/><path fill="url(#f)" d="M43.84 12.54c.35-.36.57-.87.6-1.5.04-1.63-1.26-3.4-2.9-3.98-.9-.3-1.7-.2-2.27.22l.02-.03 1.8-1.52c.6-.57 1.5-.8 2.48-.55 1.7.44 2.97 2.2 2.83 3.92-.04.64-.27 1.18-.63 1.6l-1.86 1.77-.06.07z"/><path fill="url(#g)" d="M11.53 43.56l32.3-31.02c.36-.36.58-.87.6-1.5.05-1.63-1.25-3.4-2.9-3.98-.88-.3-1.7-.2-2.26.22l-34.6 29.4c.76-.74 1.94-1.02 3.28-.65 2.34.64 4.3 3 4.38 5.26.03.94-.27 1.7-.8 2.26z"/><path fill="url(#h)" d="M11.53 43.56c.53-.54.83-1.32.8-2.27-.07-2.27-2.04-4.63-4.38-5.27-1.34-.37-2.52-.1-3.27.64l-3.24 2.75.07-.06c.78-.72 1.97-1 3.32-.62 2.4.66 4.42 3.07 4.5 5.4.03.97-.28 1.77-.83 2.32l-.1.1 3.2-3.06-.07.06z"/><path fill="#6c7580" d="M6.16 43.28l-1.95 1.8.98.3 1.96-1.84-.98-.26z"/><path fill="#6c7580" d="M1.83 44.35l-.98-.3 1.94-1.7.97.27-1.94 1.73z"/><path fill="#6c7580" d="M6.16 43.74l-1.95 1.8.98.3L7.14 44l-.98-.26z"/><path fill="#6c7580" d="M1.83 44.82l-.98-.3 1.94-1.7.97.26-1.94 1.74z"/><path fill="#b4bfcc" d="M.83 44.2h1.02v.47H.83z"/><path fill="#b4bfcc" d="M4.2 45.22h1v.46h-1z"/><path fill="none" stroke="#bfcbd9" stroke-width=".24947" d="M2.8 42.35l-1.95 1.7v.47l.98.3 1.94-1.74"/><path fill="none" stroke="#bfcbd9" stroke-width=".24947" d="M6.16 43.28l-1.95 1.8v.45l1 .3L7.13 44"/><g transform="matrix(1.012 0 0 1.012 -3.764 -82.709)"><linearGradient x1="6.659" x2="13.307" y1="118.963" y2="126.714" gradientUnits="userSpaceOnUse"><stop offset=".028" stop-color="#6D7480"/><stop offset=".031" stop-color="#717884"/><stop offset=".056" stop-color="#9198A1"/><stop offset=".084" stop-color="#ADB2BA"/><stop offset=".115" stop-color="#C4C8CF"/><stop offset=".151" stop-color="#D5D9DF"/><stop offset=".196" stop-color="#E1E5EA"/><stop offset=".256" stop-color="#E8ECF0"/><stop offset=".41" stop-color="#EAEEF2"/><stop offset=".635" stop-color="#BBC5CE"/><stop offset=".916" stop-color="#77818C"/><stop offset="1" stop-color="#6D7480"/></linearGradient><path fill="url(#i)" d="M4.87 120.26l.34.36c.8-.74 2-.97 3.28-.62 2.37.65 4.37 3.05 4.44 5.34.03.9-.26 1.73-.8 2.3l.34.35c.66-.68 1-1.62.96-2.67-.08-2.5-2.24-5.1-4.8-5.8-1.47-.4-2.84-.14-3.75.73z"/></g></g></svg>