<svg xmlns="http://www.w3.org/2000/svg" width="48" height="48" xmlns:xlink="http://www.w3.org/1999/xlink" xmlns:sodipodi="http://inkscape.sourceforge.net/DTD/sodipodi-0.dtd" sodipodi:version=".32" version="1" sodipodi:docbase="e:\dev_clean\src\houdini\support\icons\obj" sodipodi:docname="light_spot.svg"><defs><linearGradient id="e"><stop offset="0" stop-color="#7b6300"/><stop offset="1" stop-color="#7b6300" stop-opacity="0"/></linearGradient><radialGradient id="a" cx="111.321" cy="388.557" r="21.763" gradientUnits="userSpaceOnUse" fy="388.557" fx="111.321"><stop offset="0" stop-color="#EFEEEC"/><stop offset=".624" stop-color="#F6E94E"/><stop offset="1" stop-color="#EBD50E"/></radialGradient><linearGradient id="r" x1="186.268" x2="205.558" y1="394.523" y2="412.86" xlink:href="#a" gradientUnits="userSpaceOnUse" gradientTransform="matrix(-.074 1.34 1.34 .074 -495.331 -257.952)"/><linearGradient><stop offset="0" stop-color="#f3b600"/><stop offset="1" stop-color="#f9cd05" stop-opacity="0"/></linearGradient><linearGradient><stop offset="0" stop-color="#edd400"/><stop offset="1" stop-color="#edd400" stop-opacity="0"/></linearGradient><linearGradient><stop offset="0" stop-color="#edd400"/><stop offset="1" stop-color="#edd400" stop-opacity="0"/></linearGradient><linearGradient><stop offset="0"/><stop offset="1" stop-opacity="0"/></linearGradient><radialGradient id="d" cx="10.534" cy="381.348" r="8.99" fx="10.534" fy="381.348" gradientTransform="matrix(1.09 -.275 .042 1.123 -2.795 -28.919)" gradientUnits="userSpaceOnUse"><stop offset=".006" stop-color="#F6E94E"/><stop offset="1" stop-color="#ebd50e" stop-opacity="0"/></radialGradient><linearGradient id="q" x1="27.85" x2="27.918" y1="365.29" y2="376.646" gradientUnits="userSpaceOnUse"><stop offset="0" stop-color="#BABDB6"/><stop offset=".747" stop-color="#F0EFED"/><stop offset="1" stop-color="#fff"/></linearGradient><linearGradient id="p" x1="-1.827" x2="19.979" y1="388.645" y2="388.645" gradientUnits="userSpaceOnUse"><stop offset="0" stop-color="#BABDB6"/><stop offset=".747" stop-color="#F0EFED"/><stop offset="1" stop-color="#fff"/></linearGradient><linearGradient id="o" x1="44.614" x2="26.149" y1="402.332" y2="399.292" gradientUnits="userSpaceOnUse"><stop offset="0" stop-color="#BABDB6"/><stop offset=".747" stop-color="#F0EFED"/><stop offset="1" stop-color="#fff"/></linearGradient><linearGradient id="n" x1="22.844" x2="31.387" y1="367.11" y2="378.869" gradientUnits="userSpaceOnUse"><stop offset="0" stop-color="#BABDB6"/><stop offset="1" stop-color="#F0EFED"/></linearGradient><linearGradient id="m" x1="24.996" x2="42.331" y1="402.613" y2="402.613" gradientUnits="userSpaceOnUse"><stop offset="0" stop-color="#BABDB6"/><stop offset="1" stop-color="#F0EFED"/></linearGradient><linearGradient id="l" x1=".271" x2="24.387" y1="399.664" y2="386.299" gradientUnits="userSpaceOnUse"><stop offset="0" stop-color="#BABDB6"/><stop offset="1" stop-color="#F0EFED"/></linearGradient><linearGradient id="k" x1="38.912" x2="47.828" y1="384.287" y2="384.287" gradientUnits="userSpaceOnUse"><stop offset="0" stop-color="#BABDB6"/><stop offset=".747" stop-color="#F0EFED"/><stop offset="1" stop-color="#fff"/></linearGradient><linearGradient id="b" x1="47.869" x2="40.032" y1="383.002" y2="384.811" gradientUnits="userSpaceOnUse"><stop offset="0" stop-color="#BABDB6"/><stop offset="1" stop-color="#F0EFED"/></linearGradient><linearGradient id="i" x1="58.566" x2="75.885" y1="371.351" y2="371.351" gradientUnits="userSpaceOnUse" gradientTransform="matrix(.975 -.223 .223 .975 -115.791 38.424)"><stop offset="0" stop-color="#2D3335"/><stop offset=".506" stop-color="#545652"/><stop offset="1" stop-color="#fff"/></linearGradient><linearGradient id="h" x1="89.478" x2="57.578" y1="359.7" y2="376.401" gradientUnits="userSpaceOnUse" gradientTransform="matrix(.975 -.223 .223 .975 -115.791 38.424)"><stop offset="0" stop-color="#2D3335"/><stop offset=".506" stop-color="#545652"/><stop offset="1" stop-color="#fff"/></linearGradient><linearGradient id="g" x1="29.237" x2="43.862" y1="373.537" y2="388.287" gradientUnits="userSpaceOnUse"><stop offset="0" stop-color="#F6E94F"/><stop offset="1" stop-color="#fff"/></linearGradient><linearGradient id="c" x1="30.557" x2="44.093" y1="373.671" y2="388.908" gradientUnits="userSpaceOnUse"><stop offset="0" stop-color="#FAAF3E"/><stop offset="1" stop-color="#F17912"/></linearGradient><linearGradient x1="116.365" x2="117.487" y1="315.413" y2="317.743" gradientUnits="userSpaceOnUse"><stop offset="0"/><stop offset=".163" stop-color="#070707"/><stop offset=".302" stop-color="#111"/><stop offset=".432" stop-color="#1D1D1D"/><stop offset=".557" stop-color="#2F3030"/><stop offset=".678" stop-color="#444"/><stop offset=".797" stop-color="#565859"/><stop offset=".91" stop-color="#616569"/><stop offset="1" stop-color="#626B73"/></linearGradient><linearGradient x1="115.039" x2="116.658" y1="317.404" y2="314.497" gradientUnits="userSpaceOnUse"><stop offset="0" stop-color="#6D7780"/><stop offset=".138" stop-color="#717B84"/><stop offset=".274" stop-color="#7E878E"/><stop offset=".408" stop-color="#939CA2"/><stop offset=".542" stop-color="#B2BDC1"/><stop offset=".646" stop-color="#D3E0E4"/><stop offset=".819" stop-color="#A3AEB4"/><stop offset="1" stop-color="#7A858F"/></linearGradient><linearGradient x1="117.931" x2="112.091" y1="301.457" y2="302.191" gradientUnits="userSpaceOnUse"><stop offset="0" stop-color="#B6C1CA"/><stop offset=".295" stop-color="#B9C4CC"/><stop offset=".547" stop-color="#C5CED5"/><stop offset=".783" stop-color="#D7DEE2"/><stop offset="1" stop-color="#F0F5F5"/></linearGradient><linearGradient x1="107.249" x2="107.311" y1="310.911" y2="304.16" gradientUnits="userSpaceOnUse"><stop offset="0" stop-color="#A5AEB8"/><stop offset=".424" stop-color="#A1AAB5"/><stop offset=".786" stop-color="#96A1AB"/><stop offset="1" stop-color="#8B97A3"/></linearGradient><linearGradient x1="115.32" x2="109.787" y1="309.503" y2="302.446" gradientUnits="userSpaceOnUse"><stop offset="0" stop-color="#ACB5BE"/><stop offset=".479" stop-color="#848B93"/><stop offset="1" stop-color="#596169"/></linearGradient><linearGradient x1="117.953" x2="115.538" y1="298" y2="295.644" gradientUnits="userSpaceOnUse"><stop offset="0" stop-color="#121414"/><stop offset="1" stop-color="#2B3033"/></linearGradient><linearGradient x1="102.519" x2="99.309" y1="307.758" y2="303.465" gradientUnits="userSpaceOnUse"><stop offset="0" stop-color="#121414"/><stop offset="1" stop-color="#2B3033"/></linearGradient><linearGradient x1="100.924" x2="98.381" y1="302.737" y2="306.53" gradientUnits="userSpaceOnUse"><stop offset=".006" stop-color="#2C2F33"/><stop offset=".506" stop-color="#5A6166"/><stop offset=".638" stop-color="#585E63"/><stop offset=".751" stop-color="#50565A"/><stop offset=".856" stop-color="#43484C"/><stop offset=".957" stop-color="#34373B"/><stop offset="1" stop-color="#2C2F33"/></linearGradient><linearGradient x1="104.598" x2="105.609" y1="313.838" y2="320.968" gradientUnits="userSpaceOnUse"><stop offset="0" stop-color="#CFDDE2"/><stop offset=".152" stop-color="#CBD8DD"/><stop offset=".281" stop-color="#BCC9CD"/><stop offset=".402" stop-color="#A7B1B5"/><stop offset=".519" stop-color="#899297"/><stop offset=".63" stop-color="#677077"/><stop offset=".646" stop-color="#626B73"/><stop offset="1" stop-color="#121212"/></linearGradient><linearGradient x1="105.425" x2="104.552" y1="320.149" y2="314.416" gradientUnits="userSpaceOnUse"><stop offset="0"/><stop offset=".123" stop-color="#070707"/><stop offset=".225" stop-color="#111"/><stop offset=".319" stop-color="#1C1C1C"/><stop offset=".409" stop-color="#2F2F2F"/><stop offset=".496" stop-color="#434444"/><stop offset=".58" stop-color="#555757"/><stop offset=".661" stop-color="#606467"/><stop offset=".73" stop-color="#626B73"/><stop offset=".751" stop-color="#596167"/><stop offset=".838" stop-color="#383B3D"/><stop offset=".912" stop-color="#232323"/><stop offset=".968" stop-color="#171616"/><stop offset="1" stop-color="#121212"/></linearGradient><linearGradient x1="108.432" x2="107.471" y1="318.345" y2="314.445" gradientUnits="userSpaceOnUse"><stop offset="0"/><stop offset=".123" stop-color="#070707"/><stop offset=".225" stop-color="#111"/><stop offset=".319" stop-color="#1C1C1C"/><stop offset=".409" stop-color="#2F2F2F"/><stop offset=".496" stop-color="#434444"/><stop offset=".58" stop-color="#555757"/><stop offset=".661" stop-color="#606467"/><stop offset=".73" stop-color="#626B73"/><stop offset=".751" stop-color="#596167"/><stop offset=".838" stop-color="#383B3D"/><stop offset=".912" stop-color="#232323"/><stop offset=".968" stop-color="#171616"/><stop offset="1" stop-color="#121212"/></linearGradient><linearGradient x1="101.549" x2="104.147" y1="318.713" y2="316.779" gradientUnits="userSpaceOnUse"><stop offset="0" stop-color="#87959F"/><stop offset=".071" stop-color="#939EA6"/><stop offset=".489" stop-color="#D6D5D5"/><stop offset=".573" stop-color="#CECECE"/><stop offset=".673" stop-color="#B9B9B9"/><stop offset=".781" stop-color="#9A9C9C"/><stop offset=".894" stop-color="#737779"/><stop offset="1" stop-color="#4D5359"/></linearGradient><linearGradient x1="110.47" x2="111.507" y1="323.062" y2="325.202" gradientUnits="userSpaceOnUse"><stop offset="0" stop-color="#161617"/><stop offset=".208" stop-color="#171718"/><stop offset=".385" stop-color="#1B1C1D"/><stop offset=".551" stop-color="#232425"/><stop offset=".711" stop-color="#2E2F32"/><stop offset=".864" stop-color="#3E4145"/><stop offset="1" stop-color="#52585E"/></linearGradient><linearGradient x1="115.234" x2="116.434" y1="322.629" y2="325.482" gradientUnits="userSpaceOnUse"><stop offset="0" stop-color="#1C1C1F"/><stop offset=".208" stop-color="#1E1E21"/><stop offset=".385" stop-color="#222326"/><stop offset=".551" stop-color="#2B2C30"/><stop offset=".711" stop-color="#383A3E"/><stop offset=".864" stop-color="#4B4F55"/><stop offset="1" stop-color="#626B73"/></linearGradient><linearGradient x1="111.698" x2="111.512" y1="321.808" y2="313.356" gradientUnits="userSpaceOnUse"><stop offset="0" stop-color="#616973"/><stop offset=".417" stop-color="#5E666F"/><stop offset=".772" stop-color="#565D64"/><stop offset="1" stop-color="#4D5359"/></linearGradient><linearGradient x1="112.503" x2="119.393" y1="312.623" y2="311.58" gradientUnits="userSpaceOnUse"><stop offset="0" stop-color="#6C7680"/><stop offset=".355" stop-color="#69727C"/><stop offset=".659" stop-color="#5F6870"/><stop offset=".942" stop-color="#51575E"/><stop offset="1" stop-color="#4D5359"/></linearGradient><linearGradient x1="118.09" x2="114.701" y1="320.286" y2="313.285" gradientUnits="userSpaceOnUse"><stop offset="0" stop-color="#6C7680"/><stop offset=".355" stop-color="#69727C"/><stop offset=".659" stop-color="#5F6870"/><stop offset=".942" stop-color="#51575E"/><stop offset="1" stop-color="#4D5359"/></linearGradient><linearGradient x1="115.751" x2="117.563" y1="299.183" y2="295.308" gradientUnits="userSpaceOnUse"><stop offset=".006" stop-color="#2C2F33"/><stop offset=".506" stop-color="#5A6166"/><stop offset=".638" stop-color="#585E63"/><stop offset=".751" stop-color="#50565A"/><stop offset=".856" stop-color="#43484C"/><stop offset=".957" stop-color="#34373B"/><stop offset="1" stop-color="#2C2F33"/></linearGradient><linearGradient x1="115.693" x2="111.95" y1="296.266" y2="290.414" gradientUnits="userSpaceOnUse"><stop offset="0" stop-color="#161719"/><stop offset="1" stop-color="#B2B2B2"/></linearGradient><linearGradient x1="110.121" x2="121.872" y1="292.456" y2="301.456" gradientUnits="userSpaceOnUse"><stop offset=".006" stop-color="#212326"/><stop offset="1" stop-color="#596669"/></linearGradient><linearGradient x1="99.238" x2="94.868" y1="304.31" y2="297.577" gradientUnits="userSpaceOnUse"><stop offset="0" stop-color="#161719"/><stop offset="1" stop-color="#ccc"/></linearGradient><linearGradient x1="95.831" x2="104.749" y1="300.837" y2="310.642" gradientUnits="userSpaceOnUse"><stop offset=".006" stop-color="#212326"/><stop offset="1" stop-color="#596669"/></linearGradient><linearGradient x1="99.486" x2="90.171" y1="295.642" y2="308.361" gradientUnits="userSpaceOnUse"><stop offset="0" stop-color="#141617"/><stop offset=".483" stop-color="#566063"/><stop offset="1" stop-color="#232729"/></linearGradient><linearGradient x1="113.933" x2="109.224" y1="286.865" y2="299.691" gradientUnits="userSpaceOnUse"><stop offset="0" stop-color="#141617"/><stop offset=".483" stop-color="#566063"/><stop offset="1" stop-color="#232729"/></linearGradient><radialGradient cx="109.941" cy="312.073" r="9.655" fx="109.941" fy="312.073" gradientUnits="userSpaceOnUse"><stop offset="0" stop-color="#828E99"/><stop offset="1" stop-color="#373C40"/></radialGradient><radialGradient cx="109.94" cy="312.074" r="9.655" fx="109.94" fy="312.074" gradientUnits="userSpaceOnUse"><stop offset="0" stop-color="#828E99"/><stop offset="1" stop-color="#373C40"/></radialGradient><linearGradient x1="109.501" x2="124.153" y1="309.648" y2="309.648" gradientUnits="userSpaceOnUse"><stop offset="0" stop-color="#121314"/><stop offset=".19" stop-color="#131415"/><stop offset=".352" stop-color="#17191A"/><stop offset=".504" stop-color="#1F2022"/><stop offset=".65" stop-color="#2A2C2E"/><stop offset=".791" stop-color="#3A3E42"/><stop offset=".927" stop-color="#52595F"/><stop offset="1" stop-color="#626B73"/></linearGradient><linearGradient x1="106.022" x2="108.701" y1="312.679" y2="325.27" gradientUnits="userSpaceOnUse"><stop offset="0" stop-color="#161617"/><stop offset=".195" stop-color="#171718"/><stop offset=".361" stop-color="#1C1C1D"/><stop offset=".516" stop-color="#242426"/><stop offset=".665" stop-color="#2F3033"/><stop offset=".81" stop-color="#404447"/><stop offset=".95" stop-color="#585E65"/><stop offset="1" stop-color="#626B73"/></linearGradient><linearGradient x1="113.713" x2="122.957" y1="315.036" y2="322.672" gradientUnits="userSpaceOnUse"><stop offset="0" stop-color="#11100F"/><stop offset=".171" stop-color="#121110"/><stop offset=".316" stop-color="#181817"/><stop offset=".453" stop-color="#242322"/><stop offset=".584" stop-color="#323130"/><stop offset=".711" stop-color="#414141"/><stop offset=".835" stop-color="#515356"/><stop offset=".954" stop-color="#5E646A"/><stop offset="1" stop-color="#626B73"/></linearGradient><linearGradient x1="123.964" x2="123.495" y1="312.841" y2="310.309" gradientUnits="userSpaceOnUse"><stop offset="0" stop-color="#77828C"/><stop offset=".143" stop-color="#7B868F"/><stop offset=".285" stop-color="#87929A"/><stop offset=".425" stop-color="#9CA7AD"/><stop offset=".564" stop-color="#BBC7CC"/><stop offset=".646" stop-color="#D3E0E4"/><stop offset=".819" stop-color="#A3AEB4"/><stop offset="1" stop-color="#7A858F"/></linearGradient><linearGradient x1="125.786" x2="125.147" y1="313.03" y2="309.227" gradientUnits="userSpaceOnUse"><stop offset="0" stop-color="#6D7780"/><stop offset=".138" stop-color="#717B84"/><stop offset=".274" stop-color="#7E878E"/><stop offset=".408" stop-color="#939CA2"/><stop offset=".542" stop-color="#B2BDC1"/><stop offset=".646" stop-color="#D3E0E4"/><stop offset=".819" stop-color="#A3AEB4"/><stop offset="1" stop-color="#7A858F"/></linearGradient><linearGradient x1="127.999" x2="127.35" y1="312.032" y2="309.41" gradientUnits="userSpaceOnUse"><stop offset="0"/><stop offset=".105" stop-color="#070707"/><stop offset=".195" stop-color="#111"/><stop offset=".279" stop-color="#1D1D1D"/><stop offset=".36" stop-color="#2F3030"/><stop offset=".438" stop-color="#444"/><stop offset=".515" stop-color="#565859"/><stop offset=".588" stop-color="#616569"/><stop offset=".646" stop-color="#626B73"/><stop offset="1" stop-color="#121212"/></linearGradient><linearGradient x1="123.52" x2="124.317" y1="309.715" y2="313.622" gradientUnits="userSpaceOnUse"><stop offset="0" stop-color="#6D7780"/><stop offset=".63" stop-color="#737D87"/><stop offset="1" stop-color="#7A858F"/></linearGradient><linearGradient x1="124.724" x2="123.134" y1="313.892" y2="309.237" gradientUnits="userSpaceOnUse"><stop offset=".006" stop-color="#3D4247"/><stop offset=".596" stop-color="#1E2024"/><stop offset="1" stop-color="#121314"/></linearGradient><linearGradient x1="121.422" x2="122.305" y1="306.692" y2="309.137" gradientUnits="userSpaceOnUse"><stop offset=".006" stop-color="#3D4247"/><stop offset=".596" stop-color="#1E2024"/><stop offset="1" stop-color="#121314"/></linearGradient><linearGradient x1="123.949" x2="123.228" y1="318.041" y2="314.586" gradientUnits="userSpaceOnUse"><stop offset="0" stop-color="#77828C"/><stop offset=".143" stop-color="#7B868F"/><stop offset=".285" stop-color="#87929A"/><stop offset=".425" stop-color="#9CA7AD"/><stop offset=".564" stop-color="#BBC7CC"/><stop offset=".646" stop-color="#D3E0E4"/><stop offset=".819" stop-color="#A3AEB4"/><stop offset="1" stop-color="#7A858F"/></linearGradient><linearGradient x1="123.072" x2="125.059" y1="314.428" y2="319.232" gradientUnits="userSpaceOnUse"><stop offset="0" stop-color="#6D7780"/><stop offset=".63" stop-color="#737D87"/><stop offset="1" stop-color="#7A858F"/></linearGradient><linearGradient x1="126.741" x2="125.667" y1="318.211" y2="313.282" gradientUnits="userSpaceOnUse"><stop offset="0" stop-color="#6D7780"/><stop offset=".138" stop-color="#717B84"/><stop offset=".274" stop-color="#7E878E"/><stop offset=".408" stop-color="#939CA2"/><stop offset=".542" stop-color="#B2BDC1"/><stop offset=".646" stop-color="#D3E0E4"/><stop offset=".819" stop-color="#A3AEB4"/><stop offset="1" stop-color="#7A858F"/></linearGradient><linearGradient x1="129.591" x2="128.731" y1="316.514" y2="313.296" gradientUnits="userSpaceOnUse"><stop offset="0"/><stop offset=".105" stop-color="#070707"/><stop offset=".195" stop-color="#111"/><stop offset=".279" stop-color="#1D1D1D"/><stop offset=".36" stop-color="#2F3030"/><stop offset=".438" stop-color="#444"/><stop offset=".515" stop-color="#565859"/><stop offset=".588" stop-color="#616569"/><stop offset=".646" stop-color="#626B73"/><stop offset="1" stop-color="#121212"/></linearGradient><linearGradient x1="127.034" x2="129.194" y1="304.143" y2="313.917" gradientUnits="userSpaceOnUse"><stop offset=".006" stop-color="#3D4247"/><stop offset=".202" stop-color="#121314"/><stop offset=".27" stop-color="#131415"/><stop offset=".298" stop-color="#151718"/><stop offset=".32" stop-color="#1A1C1D"/><stop offset=".338" stop-color="#222426"/><stop offset=".353" stop-color="#2D3032"/><stop offset=".367" stop-color="#3C4044"/><stop offset=".379" stop-color="#50575C"/><stop offset=".388" stop-color="#626B73"/><stop offset=".413" stop-color="#4F565C"/><stop offset=".447" stop-color="#3E4248"/><stop offset=".485" stop-color="#313439"/><stop offset=".531" stop-color="#282B2F"/><stop offset=".586" stop-color="#222529"/><stop offset=".665" stop-color="#1F2125"/><stop offset=".882" stop-color="#1E2024"/><stop offset="1" stop-color="#121314"/></linearGradient><linearGradient id="j" x1="47.869" x2="40.032" y1="383.002" y2="384.811" xlink:href="#b" gradientUnits="userSpaceOnUse" gradientTransform="matrix(-1.096 0 0 1.096 56.017 -400.682)"/><linearGradient id="f" x1="30.557" x2="44.093" y1="373.671" y2="388.908" xlink:href="#c" gradientUnits="userSpaceOnUse" gradientTransform="matrix(-1.096 0 0 1.096 56.017 -400.682)"/><radialGradient cx="10.534" cy="381.348" r="8.99" xlink:href="#d" gradientUnits="userSpaceOnUse" gradientTransform="matrix(1.09 -.275 .042 1.123 -2.795 -28.919)" fx="10.534" fy="381.348"/><radialGradient cx="10.534" cy="381.348" r="8.99" fx="10.534" fy="381.348" gradientTransform="matrix(1.09 -.275 .042 1.123 -2.795 -28.919)" gradientUnits="userSpaceOnUse"><stop offset=".006" stop-color="#F6E94E"/><stop offset=".64" stop-color="#F5E05D"/><stop offset="1" stop-color="#EBD50E"/></radialGradient><linearGradient id="s" x1="4.889" x2="27.127" y1="45.538" y2="20.817" xlink:href="#e" gradientUnits="userSpaceOnUse" gradientTransform="matrix(-1 0 0 1 48.268 0)"/><linearGradient x1="189.822" x2="205.558" y1="397.913" y2="412.86" xlink:href="#a" gradientUnits="userSpaceOnUse" gradientTransform="matrix(.279 1.313 1.313 -.279 -553.091 -119.156)"/><linearGradient x1="4.889" x2="23.318" y1="45.538" y2="25.012" xlink:href="#e" gradientUnits="userSpaceOnUse" gradientTransform="matrix(-.965 .261 .261 .965 39.018 -12.17)"/><linearGradient x1="191.966" x2="205.558" y1="399.208" y2="412.86" xlink:href="#a" gradientUnits="userSpaceOnUse" gradientTransform="matrix(-.559 1.22 1.22 .559 -363.631 -434.126)"/><linearGradient x1="4.889" x2="21.903" y1="45.538" y2="28.353" xlink:href="#e" gradientUnits="userSpaceOnUse" gradientTransform="matrix(-.931 -.366 -.366 .931 48.012 4.725)"/></defs><sodipodi:namedview fill="#fce94f" stroke="#f57900" pagecolor="#ffffff" bordercolor="#666666" borderopacity="1"/><g><path fill="none" stroke="#2f982f" stroke-width=".101" d="M21.2 11.5c-.57-.06-1.16-.07-1.76 0-6.3.58-11.68 6.82-11.9 13.6-.23 6.56 4.4 11.48 10.43 11.2"/><path fill="url(#f)" stroke="#142d54" stroke-width="1.5" d="M13.73 1.9c-2.6-.27-5.28.56-7.55 2.34-2.2 1.73-3.8 4.18-4.44 6.9-.72 2.97-.2 5.97 1.38 8.22l9.2 10.56c1.2 1.1 2.78 1.8 4.58 1.98 5.37.56 10.87-3.75 12.3-9.62 1-4.2-.37-8.08-3.2-10.13L17.72 3.4c-1.12-.8-2.47-1.34-4-1.5"/><g transform="matrix(-1.096 0 0 1.096 56.017 -400.682)"><linearGradient x1="29.237" x2="43.862" y1="373.537" y2="388.287" gradientUnits="userSpaceOnUse"><stop offset="0" stop-color="#F6E94F"/><stop offset="1" stop-color="#fff"/></linearGradient><path fill="url(#g)" d="M34.84 369.13l-7.53 7.98c-2.63 1.9-3.72 5.38-2.83 9.05 1.26 5.25 6.2 9.12 11 8.62 1.54-.16 2.95-.77 4.07-1.76 0 0 8.34-9.6 8.34-9.6l.03-.03c1.4-1.97 1.84-4.6 1.25-7.2l-.03-.1c-.6-2.44-2-4.63-3.98-6.2-2.03-1.57-4.43-2.32-6.75-2.08-1.33.13-2.53.58-3.56 1.33zm.62 24.85c-4.47.46-9.06-3.16-10.24-8.07-.82-3.4.18-6.6 2.6-8.35l7.3-7.74c.96-.68 2.05-1.1 3.27-1.2 2.13-.24 4.36.46 6.25 1.94 1.85 1.45 3.18 3.5 3.72 5.77l.03.12c.55 2.4.14 4.83-1.12 6.65-.05.03-8.07 9.3-8.07 9.3-1.03.9-2.32 1.46-3.74 1.6z"/></g><g><path fill="#fff" d="M10.54 20.08c-1.28 5.34 1.64 10.07 6.53 10.58 4.88.5 9.88-3.4 11.16-8.75 1.28-5.32-1.64-10.05-6.52-10.56-4.87-.5-9.87 3.4-11.16 8.74z"/><path fill="none" stroke="#f1ea93" stroke-width=".4037" d="M10.54 20.08c-1.28 5.34 1.64 10.07 6.53 10.58 4.88.5 9.88-3.4 11.16-8.75 1.28-5.32-1.64-10.05-6.52-10.56-4.87-.5-9.87 3.4-11.16 8.74z"/></g><g><path fill="none" stroke="#f1ea93" stroke-width=".2013" d="M11.28 20.18c-1.17 4.87 1.5 9.2 5.96 9.66 4.46.46 9.02-3.12 10.2-8 1.17-4.86-1.5-9.18-5.96-9.65-4.46-.47-9.03 3.1-10.2 7.98z"/></g><g><path fill="none" stroke="#f1ea93" stroke-width=".2013" d="M11.94 19.46c-.9 3.73 1.15 7.05 4.57 7.4 3.43.35 6.93-2.4 7.83-6.12.9-3.74-1.15-7.05-4.57-7.4-3.42-.36-6.92 2.38-7.82 6.12z"/></g><g><path fill="none" stroke="#f1ea93" stroke-width=".2013" d="M12.34 19.46c-.8 3.36 1.03 6.35 4.1 6.67 3.1.3 6.24-2.15 7.05-5.52.8-3.35-1.04-6.33-4.12-6.65-3.08-.32-6.23 2.15-7.04 5.5z"/></g><g transform="matrix(-1.096 0 0 1.096 56.017 -400.682)"><circle cx="34.771" cy="383.929" r="4.361" fill="none" stroke="#f1ea93" stroke-width=".183" sodipodi:ry="4.361" sodipodi:rx="4.361" sodipodi:cy="383.929" sodipodi:cx="34.771"/></g><g transform="matrix(-1.096 0 0 1.096 56.017 -400.682)"><circle cx="34.771" cy="383.929" r="3.357" fill="none" stroke="#f1ea93" stroke-width=".183" sodipodi:ry="3.357" sodipodi:rx="3.357" sodipodi:cy="383.929" sodipodi:cx="34.771"/></g><g transform="matrix(-1.096 0 0 1.096 56.017 -400.682)"><circle cx="34.771" cy="383.929" r="2.6" fill="none" stroke="#f1ea93" stroke-width=".183" sodipodi:ry="2.6" sodipodi:rx="2.6" sodipodi:cy="383.929" sodipodi:cx="34.771"/></g><g><path fill="#4d4d4d" stroke="#252525" stroke-width="1.1" d="M14.57 12.55c2.56-2 5.6-2.95 8.52-2.64 2.8.3 5.25 1.72 6.87 4 1.8 2.54 2.37 5.92 1.56 9.28C30.8 26.24 29 29 26.5 30.96c-2.55 2-5.57 2.95-8.5 2.64-2.83-.3-5.27-1.7-6.88-3.98-1.8-2.55-2.37-5.93-1.56-9.3.73-3.05 2.5-5.82 5-7.77zm3.65 18.86c4.88.52 9.9-3.4 11.17-8.73 1.27-5.33-1.65-10.07-6.54-10.57-4.88-.5-9.88 3.4-11.16 8.74-1.3 5.33 1.64 10.07 6.52 10.57z"/><g transform="matrix(-1.096 0 0 1.096 56.017 -400.682)"><linearGradient x1="89.478" x2="57.578" y1="359.7" y2="376.401" gradientTransform="matrix(.975 -.223 .223 .975 -115.791 38.424)" gradientUnits="userSpaceOnUse"><stop offset="0" stop-color="#2D3335"/><stop offset=".506" stop-color="#545652"/><stop offset="1" stop-color="#fff"/></linearGradient><path fill="url(#h)" d="M23.93 378.44c-1.58 2.24-2.1 5.2-1.42 8.18.02.04.03.1.04.13.66 2.75 2.26 5.23 4.5 7 2.3 1.8 5 2.63 7.64 2.36 2.52-.25 4.7-1.5 6.13-3.55 1.62-2.27 2.13-5.3 1.4-8.3-.66-2.76-2.26-5.24-4.5-7-2.3-1.8-5-2.64-7.63-2.36-2.52.25-4.7 1.5-6.14 3.54zm10.7 17.27c-2.5.27-5.12-.54-7.33-2.27-2.18-1.7-3.73-4.1-4.37-6.77-.7-2.9-.2-5.8 1.34-8 1.36-1.93 3.44-3.13 5.84-3.38 2.53-.26 5.14.56 7.35 2.3 2.17 1.7 3.72 4.1 4.36 6.75.7 2.9.23 5.8-1.32 8-1.37 1.93-3.44 3.13-5.84 3.38zm-10.7-17.26z"/><linearGradient x1="58.566" x2="75.885" y1="371.351" y2="371.351" gradientTransform="matrix(.975 -.223 .223 .975 -115.791 38.424)" gradientUnits="userSpaceOnUse"><stop offset="0" stop-color="#2D3335"/><stop offset=".506" stop-color="#545652"/><stop offset="1" stop-color="#fff"/></linearGradient><path fill="url(#i)" d="M24.92 379.14c-1.4 2-1.85 4.66-1.2 7.33 1.23 5.14 6.1 8.93 10.83 8.44 2.17-.22 4.04-1.3 5.28-3.04 1.4-2 1.84-4.67 1.2-7.34-1.24-5.14-6.1-8.93-10.84-8.44-2.17.23-4.04 1.3-5.28 3.06zm.33.23c1.16-1.65 2.93-2.67 4.98-2.9 4.55-.46 9.22 3.2 10.4 8.14.62 2.57.2 5.13-1.13 7.02-1.17 1.65-2.94 2.68-5 2.9-4.54.46-9.2-3.2-10.4-8.14-.6-2.56-.2-5.12 1.15-7z" opacity=".8"/></g></g><g><path fill="#2d3335" stroke="#545652" stroke-width=".4037" d="M14.57 7.8l18.5 4.57c.4.1.74.34.95.7.2.34.25.75.13 1.15L27.9 35.07c-.23.8-1.07 1.28-1.88 1.12 0 0-18.4-2.58-18.4-2.58H7.6c-.4-.1-.74-.34-.95-.7-.2-.34-.25-.75-.14-1.16v.02l6.16-22.85c.24-.8 1.1-1.3 1.9-1.12zm12.5 27.02l6.24-20.85c.05-.16.04-.33-.05-.47-.08-.14-.2-.23-.38-.27l-18.5-4.57c-.36-.08-.76.16-.87.5L7.36 32.03c0 .03 0 .06-.02.1-.02.12 0 .25.07.36.1.14.22.24.4.28.05 0 18.37 2.56 18.37 2.56h.02c.35.1.75-.14.86-.5z"/></g><path fill="#f0efed" stroke="#676b75" stroke-width="1.1.643" d="M28.86 44.84l-11.52-.4-7.92-7.93-.6-4.83 16.06 2.3 3.72 4.3.26 6.57z"/><path fill="url(#j)" stroke="#676b75" stroke-width="1.8" d="M8.12 30.44c.17-.07.3-.12.33-.25l5.1-19.07.07-.3-.15-.2s-.48-.53-.52-.54c-.04 0-.96.55-.96.55L6.6 14.5 3.37 26.55l2.93 4.2 1.82-.32z"/><g transform="matrix(-1.096 0 0 1.096 56.017 -400.682)"><linearGradient x1="38.912" x2="47.828" y1="384.287" y2="384.287" gradientUnits="userSpaceOnUse"><stop offset="0" stop-color="#BABDB6"/><stop offset=".747" stop-color="#F0EFED"/><stop offset="1" stop-color="#fff"/></linearGradient><path fill="url(#k)" d="M39.23 375.2l-.25.27v.02l-.07.07.03.1.02.08 4.66 17.4.16.08h.03l1.48.25 2.55-3.63-2.9-10.86-4.87-3.47-.73-.44-.1.1zm4.87 4.35c.03.13 2.64 9.95 2.7 10.12-.1.13-1.77 2.5-1.9 2.7-.13-.04-.55-.08-.68-.1-.06-.2-4.2-15.76-4.22-15.8.02-.02 4 3 4.1 3.08z"/></g><path fill="#f0efed" stroke="#676b75" stroke-width="1.8" d="M46.7 25.04l-7.9-8-6.67-2.06c-.14-.05-.47-.03-.6.4-.1.4-.84 2.75-.87 2.9-.02.2 0 2.5 0 2.5l-1.83 7.03c-.36.44-1.5 2.12-1.5 2.12-.14.35-.93 3.06-.93 3.06-.08.28.08.4.27.44l6.22 2.04 10.76-1.2 3.04-9.22z"/><path fill="url(#l)" d="M8.74 388.55l7.1-7.17 5.24 16.42-9.65-1.1-2.7-8.15z" transform="matrix(-1.096 0 0 1.096 56.017 -400.682)"/><path fill="url(#m)" d="M25.22 400.66l17.1-1.8-7.1 7.15-10.22.35.22-5.7z" transform="matrix(-1.096 0 0 1.096 56.017 -400.682)"/><path fill="url(#n)" d="M18.7 373.8l8.84-2.38 7.84.52-15.1 3.9-1.6-2.03z" transform="matrix(-1.096 0 0 1.096 56.017 -400.682)"/><g transform="matrix(-1.096 0 0 1.096 56.017 -400.682)"><linearGradient x1="44.614" x2="26.149" y1="402.332" y2="399.292" gradientUnits="userSpaceOnUse"><stop offset="0" stop-color="#BABDB6"/><stop offset=".747" stop-color="#F0EFED"/><stop offset="1" stop-color="#fff"/></linearGradient><path fill="url(#o)" d="M42.57 394.82l-14.05 2.02-3.3 3.82-.23 5.7 10.2-.35 7.13-7.13.5-4.1-.26.05zm-.92 1.03c-.05.35-.43 2.9-.45 3-.1.1-6.08 6.1-6.2 6.2-.13 0-8.43.4-8.73.4 0-.35.03-4.65.03-4.78.08-.1 2.68-3.04 2.77-3.14.14-.02 12.12-1.6 12.58-1.68z"/></g><g transform="matrix(-1.096 0 0 1.096 56.017 -400.682)"><linearGradient x1="-1.827" x2="19.979" y1="388.645" y2="388.645" gradientUnits="userSpaceOnUse"><stop offset="0" stop-color="#BABDB6"/><stop offset=".747" stop-color="#F0EFED"/><stop offset="1" stop-color="#fff"/></linearGradient><path fill="url(#p)" d="M21.85 379.5l-6.02 1.87-7.1 7.18 2.7 8.16 9.65 1.1 5.78-1.9-.05-.18c-.02-.1-.64-2.23-.78-2.65v-.03l-.03-.02c-.4-.56-1.1-1.57-1.34-1.86 0 0-.02-.02-.03-.04-.03-.1-1.67-6.44-1.7-6.5 0 0 .02-1.25.02-1.25 0-.56 0-.9 0-1l-.02-.02c-.03-.14-.25-.84-.48-1.6l-.3-1.03c-.06-.17-.15-.22-.22-.22h-.09zm-.43 1.1c.05.15.26.7.26.7.16.5.4 1.35.45 1.5 0 .06 0 .25 0 .9v1.25l1.65 6.33.08.1c.23.26.9 1.23 1.24 1.72.1.33.34 1.27.57 2.06-.32.1-4.82 1.55-4.9 1.57-.08 0-8.45-.9-8.68-.94-.1-.23-2.24-6.88-2.3-7.1.14-.14 6.25-6.43 6.32-6.5.08-.03 5-1.52 5.3-1.6z"/></g><path fill="#f0efed" stroke="#676b75" stroke-width="1.1.643" d="M35.87 8.8l-10-2.7-8.74.58-2.1 2.93 15.94 4.03 3-2.3 1.9-2.52z"/><g transform="matrix(-1.096 0 0 1.096 56.017 -400.682)"><linearGradient x1="27.85" x2="27.918" y1="365.29" y2="376.646" gradientUnits="userSpaceOnUse"><stop offset="0" stop-color="#BABDB6"/><stop offset=".747" stop-color="#F0EFED"/><stop offset="1" stop-color="#fff"/></linearGradient><path fill="url(#q)" d="M27.5 371.43l-8.77 2.37 1.54 2.03 2.63 2.03 14.18-3.57-1.7-2.36-7.85-.52h-.03zm-4.73 2.26s4.97-1.34 5.03-1.36c.06 0 6.58.43 6.75.44.08.12.55.65.77.95-.5.13-12.04 3.02-12.2 3.06-.14-.1-1.92-1.38-1.96-1.4-.02-.04-.52-.74-.77-1.06.43-.1 2.37-.65 2.37-.65z"/></g><path fill="none" stroke="#676b75" stroke-width=".917" d="M30.66 18.3c-.02.17 0 2.48 0 2.48l-1.83 7.03c-.36.44-1.5 2.12-1.5 2.12-.14.35-.93 3.06-.93 3.06-.08.28.08.4.27.44l6.22 2.04 10.76-1.2" opacity=".2"/><path fill="none" stroke="#676b75" stroke-width=".9207000000000001" d="M8.83 31.67l16.05 2.3 3.72 4.3.26 6.57-10.04-.34" opacity=".2"/><path fill="url(#r)" stroke="url(#s)" d="M40.76 41.26l2.47-2.2.8 8.45-8.33-1.7 2.47-2.22L18.5 22.2l2.58-2.3 19.68 21.36z" sodipodi:nodetypes="cccccccc" color="#000" overflow="visible"/></g></svg>