<svg xmlns="http://www.w3.org/2000/svg" width="48" height="48" xmlns:xlink="http://www.w3.org/1999/xlink"><defs><radialGradient cx="111.397" cy="389.751" r="21.763" xlink:href="#a" gradientUnits="userSpaceOnUse" gradientTransform="matrix(1.202 0 0 1.14 -64.393 -427.098)" fx="111.397" fy="389.751"/><radialGradient cx="110.237" cy="390.566" r="21.763" xlink:href="#a" gradientUnits="userSpaceOnUse" gradientTransform="matrix(-.85 -.85 .806 -.806 -151.702 426.274)" fx="110.237" fy="390.566"/><radialGradient id="k" cx="111.397" cy="389.751" r="21.763" xlink:href="#a" gradientUnits="userSpaceOnUse" gradientTransform="matrix(-1.202 0 0 -1.14 203.329 462.813)" fx="111.397" fy="389.751"/><radialGradient cx="111.397" cy="389.751" r="21.763" xlink:href="#a" gradientUnits="userSpaceOnUse" gradientTransform="matrix(-.85 .85 -.806 -.806 478.87 238.617)" fx="111.397" fy="389.751"/><radialGradient cx="111.397" cy="389.751" r="21.763" xlink:href="#a" gradientUnits="userSpaceOnUse" gradientTransform="matrix(0 1.202 -1.14 0 514.834 -115.593)" fx="111.397" fy="389.751"/><radialGradient cx="111.397" cy="389.751" r="21.763" xlink:href="#a" gradientUnits="userSpaceOnUse" gradientTransform="matrix(.85 .85 -.806 .806 291.131 -391.955)" fx="111.397" fy="389.751"/><linearGradient id="d"><stop offset="0" stop-color="#2e3436"/><stop offset="1" stop-color="#2e3436" stop-opacity="0"/></linearGradient><linearGradient id="e"><stop offset="0" stop-color="#f8f8f7"/><stop offset="1" stop-color="#888a85"/></linearGradient><linearGradient id="b"><stop offset="0" stop-color="#fff"/><stop offset=".828" stop-color="#fce94f"/><stop offset="1" stop-color="#d0b903"/></linearGradient><radialGradient id="c" cx="257.459" cy="35.376" r="68.717" fx="257.459" fy="35.376" gradientUnits="userSpaceOnUse"><stop offset="0" stop-color="#eeeff1"/><stop offset="1" stop-color="#8794A0"/></radialGradient><radialGradient id="a" cx="111.321" cy="388.557" r="21.763" gradientUnits="userSpaceOnUse" fy="388.557" fx="111.321"><stop offset="0" stop-color="#fff"/><stop offset=".585" stop-color="#fff"/><stop offset="1" stop-color="#EBD50E"/></radialGradient><radialGradient id="f" cx="-8.594" cy="2.759" r="20.097" xlink:href="#b" gradientUnits="userSpaceOnUse" gradientTransform="matrix(1.311 .008 -.007 1.279 2.676 -.457)" fx="-8.594" fy="2.759"/><radialGradient id="j" cx="12.545" cy="17.188" r="20.097" xlink:href="#b" gradientUnits="userSpaceOnUse" gradientTransform="matrix(1.311 .015 -.015 1.307 2.799 -1.033)" fx="12.545" fy="17.188"/><radialGradient id="g" cx="23.929" cy="27.071" r="22.038" xlink:href="#c" gradientUnits="userSpaceOnUse" gradientTransform="matrix(1.331 0 0 1.139 -7.911 -3.774)" fx="23.929" fy="27.071"/><radialGradient id="h" cx="24.143" cy="26.429" r="7.286" xlink:href="#d" gradientUnits="userSpaceOnUse" gradientTransform="matrix(1 0 0 .431 0 15.028)" fx="24.143" fy="26.429"/><radialGradient id="i" cx="25" cy="21" r="6.564" xlink:href="#e" gradientUnits="userSpaceOnUse" fx="25" fy="21"/><linearGradient x1="12.151" x2="6.639" y1="19.21" y2="15.274" xlink:href="#a" gradientUnits="userSpaceOnUse" gradientTransform="matrix(1.292 -.156 .156 1.299 -4.508 -2.009)"/><linearGradient x1="12.151" x2="6.639" y1="19.21" y2="15.274" xlink:href="#a" gradientUnits="userSpaceOnUse" gradientTransform="matrix(.717 1.087 -1.092 .72 35.995 -12.704)"/><linearGradient x1="12.151" x2="6.639" y1="19.21" y2="15.274" xlink:href="#a" gradientUnits="userSpaceOnUse" gradientTransform="matrix(-1.292 -.156 -.156 1.299 52.516 -.348)"/></defs><g><path fill="url(#f)" stroke="#c4a000" stroke-width=".834" d="M4.85-6.35a19.6 19.6 0 1 1-39.2 0 19.6 19.6 0 1 1 39.2 0z" transform="matrix(1.199 0 0 1.199 41.686 31.61)" color="#000" overflow="visible" enable-background="accumulate"/><g color="#000"><path fill="url(#g)" stroke="#2e3436" stroke-width="1.102" d="M45.43 27.07a21.5 11.5 0 1 1-43 0 21.5 11.5 0 1 1 43 0z" transform="matrix(.953 0 0 .863 1.256 5.557)" overflow="visible" enable-background="accumulate"/><path fill="url(#h)" fill-rule="evenodd" d="M31.43 26.43a7.3 3.14 0 1 1-14.57 0 7.3 3.14 0 1 1 14.57 0z" transform="translate(.143 .286) translate(-.286 1.571)" overflow="visible" enable-background="accumulate"/><path fill="url(#i)" fill-rule="evenodd" stroke="#2e3436" stroke-width=".843" d="M31.14 21a6.14 6.14 0 1 1-12.28 0 6.14 6.14 0 1 1 12.28 0z" transform="matrix(1.186 0 0 1.186 -5.365 -4.192)" overflow="visible" enable-background="accumulate"/></g><path fill="url(#j)" stroke="#947900" d="M47.5 24c0 12.97-10.53 23.5-23.5 23.5S.5 36.97.5 24 11.03.5 24 .5 47.5 11.03 47.5 24zm-3.2-.27c0-11.2-9.1-20.28-20.3-20.28-11.2 0-20.3 9.08-20.3 20.28 4 6.46 11.94 10.5 20.3 10.6 9.64.13 14.54-3.33 20.3-10.6z" color="#000" overflow="visible" enable-background="accumulate"/><path fill="none" stroke="#fff" d="M46.5 24c0 12.42-10.08 22.5-22.5 22.5S1.5 36.42 1.5 24 11.58 1.5 24 1.5 46.5 11.58 46.5 24z" color="#000" overflow="visible" enable-background="accumulate"/><path fill="url(#k)" stroke="#7b6300" d="M82.46 3.2l-8.9 8.33 2.08 2.08 8.9-8.3 2 1.98L87.6.15l-7.13 1.07 2 2z"/></g></svg>