<svg xmlns="http://www.w3.org/2000/svg" width="48" height="48" xmlns:xlink="http://www.w3.org/1999/xlink" xmlns:sodipodi="http://inkscape.sourceforge.net/DTD/sodipodi-0.dtd" sodipodi:version=".32" sodipodi:docbase="e:\dev_clean\src\houdini\support\icons\obj" sodipodi:docname="microphone.svg"><defs><linearGradient id="i"><stop offset="0" stop-color="#d5d5d5"/><stop offset="1" stop-color="#747474"/></linearGradient><linearGradient id="h"><stop offset="0" stop-color="#fff"/><stop offset="1" stop-color="#fff" stop-opacity="0"/></linearGradient><linearGradient id="g"><stop offset="0"/><stop offset="1" stop-opacity=".485"/></linearGradient><linearGradient id="f"><stop offset="0"/><stop offset="1" stop-opacity="0"/></linearGradient><linearGradient id="e"><stop offset="0" stop-color="#d5d5d5"/><stop offset="1" stop-color="#a0a0a0"/></linearGradient><linearGradient id="d"><stop offset="0" stop-color="#fff"/><stop offset="1" stop-color="#fff" stop-opacity="0"/></linearGradient><linearGradient id="c"><stop offset="0" stop-color="#c6c6c6"/><stop offset="1" stop-color="#c6c6c6" stop-opacity="0"/></linearGradient><linearGradient id="b"><stop offset="0"/><stop offset="1" stop-opacity="0"/></linearGradient><linearGradient id="a"><stop offset="0" stop-color="#b0b0b0"/><stop offset="1" stop-color="#747474"/></linearGradient><radialGradient id="k" cx="15.438" cy="42.09" r="11.188" xlink:href="#a" fx="15.438" fy="42.09" gradientTransform="matrix(1 0 0 .525 0 22.022)" gradientUnits="userSpaceOnUse"/><radialGradient id="j" cx="25.188" cy="41" r="16.438" xlink:href="#b" fx="25.188" fy="41" gradientTransform="matrix(1 0 0 .426 0 23.54)" gradientUnits="userSpaceOnUse"/><linearGradient id="l" x1="41.25" x2="48.25" y1="36.69" y2="35.69" xlink:href="#c" gradientUnits="userSpaceOnUse"/><radialGradient id="n" cx="20.275" cy="5.712" r="12.494" xlink:href="#d" fx="20.275" fy="5.712" gradientTransform="matrix(2.531 0 0 2.296 -31.036 -6.7)" gradientUnits="userSpaceOnUse"/><radialGradient id="m" cx="19.557" cy="6.644" r="10.989" xlink:href="#e" fx="19.557" fy="6.644" gradientTransform="matrix(1.492 -.084 -.059 3.987 -9.647 -20.276)" gradientUnits="userSpaceOnUse"/><linearGradient id="q" x1="25.16" x2="33.969" y1="15.804" y2="20.438" xlink:href="#f" gradientUnits="userSpaceOnUse"/><linearGradient id="r" x1="25.16" x2="33.969" y1="15.804" y2="20.438" xlink:href="#f" gradientUnits="userSpaceOnUse"/><linearGradient id="o" x1="25.16" x2="33.969" y1="15.804" y2="20.438" xlink:href="#f" gradientUnits="userSpaceOnUse"/><linearGradient id="p" x1="25.16" x2="33.969" y1="15.804" y2="20.438" xlink:href="#f" gradientUnits="userSpaceOnUse"/><linearGradient id="t" x1="25.16" x2="33.969" y1="15.804" y2="20.438" xlink:href="#f" gradientUnits="userSpaceOnUse"/><linearGradient id="u" x1="18.329" x2="14.406" y1="15.323" y2="14.047" xlink:href="#g" gradientUnits="userSpaceOnUse"/><linearGradient id="v" x1="18.329" x2="14.406" y1="15.323" y2="14.047" xlink:href="#g" gradientUnits="userSpaceOnUse"/><linearGradient id="y" x1="18.329" x2="14.406" y1="15.323" y2="14.047" xlink:href="#g" gradientUnits="userSpaceOnUse"/><linearGradient id="x" x1="18.329" x2="14.406" y1="15.323" y2="14.047" xlink:href="#g" gradientUnits="userSpaceOnUse"/><linearGradient id="w" x1="18.329" x2="14.406" y1="15.323" y2="14.047" xlink:href="#g" gradientUnits="userSpaceOnUse"/><linearGradient id="z" x1="16.438" x2="17.402" y1="49.111" y2="43.42" xlink:href="#h" gradientUnits="userSpaceOnUse"/><radialGradient id="s" cx="33.5" cy="20.538" r="2.27" xlink:href="#i" fx="33.5" fy="20.538" gradientUnits="userSpaceOnUse" gradientTransform="matrix(.435 0 0 .435 18.917 12.493)"/></defs><sodipodi:namedview fill="#eeeeec" stroke="#ef2929" pagecolor="#ffffff" bordercolor="#666666" borderopacity=".255" showgrid="false"/><g color="#000"><path fill="url(#j)" fill-rule="evenodd" d="M41.63 41a16.44 7 0 1 1-32.88 0 16.44 7 0 1 1 32.88 0z" sodipodi:rx="16.438" sodipodi:ry="7" sodipodi:cx="25.188" transform="matrix(1.106 0 0 1.045 -2.682 -2.518)" opacity=".494" sodipodi:type="arc" sodipodi:cy="41" overflow="visible"/><path fill="url(#k)" fill-rule="evenodd" stroke="#424242" d="M27.63 46.38a11.2 5.88 0 1 1-22.38 0 11.2 5.88 0 1 1 22.38 0z" sodipodi:ry="5.875" sodipodi:cx="16.438" transform="translate(8.75 -7)" sodipodi:type="arc" sodipodi:cy="46.375" sodipodi:rx="11.188" overflow="visible"/><path fill="#424242" fill-rule="evenodd" d="M29.13 37.5a3.88 2.38 0 1 1-7.75 0 3.88 2.38 0 1 1 7.75 0z" sodipodi:ry="1.875" sodipodi:rx="1.875" sodipodi:cy="22.125" sodipodi:cx="33.5" sodipodi:type="arc" overflow="visible"/><path fill="none" stroke="url(#l)" d="M20.25 31.38s.74 3.4 3 3.12c6.13-.75 5.47-.5 9.88.88 4.43 1.37 2.1 3.6 6.62 4 4.53.4 4.13-3.63 8-3.88" sodipodi:nodetypes="cszzc" overflow="visible"/><rect width="22.137" height="30.692" x="16.029" y="-4.014" fill="url(#m)" fill-rule="evenodd" stroke="#7c7c7c" rx="6.694" overflow="visible" transform="matrix(.971 .24 -.264 .965 0 0)" ry="6.694"/><rect width="19.862" height="28.524" x="17.21" y="-3.006" fill="none" stroke="#fff" ry="5.42" rx="5.42" opacity=".307" overflow="visible" transform="matrix(.971 .24 -.264 .965 0 0)"/><path fill="url(#n)" fill-rule="evenodd" d="M20.1 1.97c-2.23.35-4.16 2.04-4.8 4.34l-4.83 17.86c2.86 1.4 6.64.46 10.22.46.48 0 .98 0 1.46-.03-.94-.23-2.32-.57-2.32-.57-.22-.06-.42-.13-.56-.25 0 0-.03-.03-.03-.03s-.05-.05-.06-.06c-.02-.02-.04-.04-.04-.04 0-.02-.03-.05-.04-.07 0-.03-.02-.08-.03-.1 0 0 0-.03 0-.03s-.03-.05-.04-.06c0 0 0-.02 0-.02 0-.02 0-.06 0-.07 0 0 0-.02 0-.02s0-.03 0-.03c0-.04.03-.1.03-.13 0 0 .02-.05.02-.06 0 0 0-.03 0-.03 0-.02.03-.07.04-.1 0 0 .02-.04.03-.05 0-.05.05-.12.08-.16 0 0 .03-.03.03-.03.02-.02.06-.04.07-.04.03-.02.1-.05.13-.07 0 0 .05 0 .06 0 0 0 0-.03 0-.04 0 0 .03 0 .03 0 .17-.03.4 0 .62.03l5.94 1.37c1.2-.3 2.32-.7 3.4-1.16-.15-.07-.3-.13-.47-.18-.04 0-.1-.02-.13-.03 0 0-8.22-2-8.22-2-.22-.07-.44-.14-.6-.26 0 0-.02-.02-.02-.03 0 0-.03 0-.04-.02 0 0-.03-.03-.04-.03 0 0-.02-.05-.03-.06 0-.02-.02-.04-.03-.04 0 0 0-.03 0-.04 0 0-.03-.05-.03-.06 0 0 0-.03 0-.03s0-.05 0-.06c0-.02 0-.07 0-.1 0 0 0-.02 0-.03 0 0 0-.05 0-.06 0 0 0-.03 0-.03s.02-.05.03-.06c0-.04.02-.08.03-.1 0-.02.03-.06.03-.07.02-.04.05-.1.07-.12 0 0 .04-.06.06-.1 0 0 0 0 .02-.02 0 0 .03-.03.03-.03s.05-.03.06-.03c.03 0 .06-.03.07-.03 0-.02.05-.04.07-.04 0 0 .03 0 .03 0s.02-.03.03-.04c0 0 .03 0 .03 0s.03-.02.03-.03c0 0 .03 0 .03 0s.02 0 .02 0c.15 0 .33.03.5.06l8.32 1.93c.62.17 1.18.6 1.62 1.02.52-.27 1-.6 1.47-.9-.14-.2-1.33-1.7-2.4-2.03-.04-.02-.1-.04-.13-.04 0 0-8.22-2-8.22-2-.22-.06-.44-.14-.6-.25 0 0-.02-.02-.02-.02s-.03-.03-.04-.04c0 0-.02-.02-.03-.03 0 0-.03-.04-.04-.05 0 0-.02-.03-.03-.03 0 0 0-.03 0-.03 0-.02-.02-.06-.03-.07 0 0 0-.03 0-.04 0-.02 0-.06 0-.07 0-.02 0-.07 0-.1 0 0 0-.02 0-.02s0-.05 0-.06c0 0 0-.02 0-.03 0 0 .03-.04.03-.05 0-.03.02-.07.03-.1 0 0 .03-.05.03-.06 0-.04.04-.1.06-.13 0-.02.04-.07.06-.1 0 0 .03-.02.03-.03 0 0 .03-.02.03-.03 0 0 .05 0 .06-.02.02 0 .05-.02.07-.03 0 0 .03-.03.04-.03 0 0 .05 0 .06 0 0 0 .02-.03.03-.03 0 0 .03 0 .03 0 0-.02.03-.04.03-.04s.02 0 .02 0 .03 0 .04 0c.14 0 .32.03.5.06l8.3 1.94c1.35.37 2.48 2 2.48 2l-.4 1.56c.18-.12.38-.22.55-.34l2.6-9.54c.83-3.07-.97-6.14-4.04-6.9l-9.29-2.32c-.6-.14-1.2-.2-1.78-.15 0 0-.03 0-.04 0 0 0-.05 0-.06 0 0 0-.02 0-.03 0 0 0-.03 0-.03 0-.03 0-.1 0-.13 0 0 0-.03 0-.05 0 0 0-.03 0-.03 0s-.05 0-.06 0c0 0-.06 0-.07 0zM15.6 7.2l4.9.96c.2.05.4.14.53.28 0 0 .03.02.03.03 0 0 .03.03.03.03s.02.05.02.06c0 0 .03.03.04.03 0 .02.02.07.03.1 0 .02 0 .08.02.1 0 .02 0 .04 0 .04 0 .02 0 .05 0 .07 0 .03 0 .1 0 .13 0 0 0 .03 0 .03s-.03.05-.03.06c-.02.03-.04.07-.04.1 0 0 0 .03 0 .03s-.03.05-.04.06c0 .03-.02.06-.03.07 0 0-.03.03-.04.04 0 .02-.02.06-.03.07 0 0-.03.02-.03.03 0 0-.03.03-.03.03s-.03.03-.03.03-.05.03-.07.03c0 0-.02.02-.03.03-.02 0-.07.02-.1.03 0 0-.06.02-.08.03-.17.02-.36 0-.54-.04L15.2 8.6l.4-1.4zm7.8 1.58s.03 0 .04 0c0 0 .03 0 .03 0 .14 0 .32.03.5.06l8.3 1.94c1.35.38 2.23 1.75 2.23 1.75l-.34 1.53c-.15-.2-1.15-1.42-2.22-1.75-.04 0-.1 0-.13-.02 0 0-8.2-2-8.2-2-.23-.06-.45-.13-.6-.25 0 0-.03-.03-.03-.03s-.03-.03-.03-.03-.03-.03-.03-.03-.02-.05-.02-.06c0 0-.03-.03-.04-.04 0 0 0-.02 0-.03 0 0-.02-.04-.03-.05 0 0 0-.03 0-.03s0-.05 0-.06c0-.03 0-.07 0-.1 0 0 0-.02 0-.03 0 0 0-.05 0-.06 0 0 0-.03 0-.03.02 0 .04-.05.04-.06 0-.03.03-.07.04-.1 0 0 .02-.05.03-.06.02-.04.05-.1.07-.13 0-.03.04-.08.06-.1 0 0 .03-.03.03-.03s.03-.03.03-.03.05-.03.06-.03c0 0 .05-.02.06-.03 0 0 .02-.02.03-.03 0 0 .05 0 .06 0 .02 0 .04-.02.04-.03 0 0 .03 0 .04 0 0 0 .02-.02.03-.02zm-8.7 1.78l4.9.97c.18.06.4.15.52.28 0 .02.03.04.04.04 0 0 .02.03.03.04 0 0 0 .05.02.06 0 0 .02.02.03.03 0 0 0 .02 0 .03 0 0 .03.05.03.06 0 .03.03.07.03.1 0 0 0 .02 0 .03 0 0 0 .04 0 .05 0 .02 0 .07 0 .1 0 .04 0 .1-.02.15 0 0 0 .03 0 .03 0 .03-.05.1-.06.13 0 0-.03.04-.03.06-.02 0-.04.05-.04.06 0 0-.03.03-.04.03-.03.06-.08.1-.12.14 0 0-.03.02-.03.03-.02 0-.05.02-.06.03 0 0-.04.02-.06.03 0 0-.02 0-.03 0 0 0-.04.03-.05.03-.17.04-.35.02-.53-.03l-4.94-1.06.4-1.4zm7.8 1.66s.03 0 .03 0 .03 0 .03 0c.15 0 .32.03.5.06l8.32 1.94c1.34.37 2.1 1.65 2.1 1.65l-.32 1.44c-.15-.18-1.05-1.22-2.13-1.55-.04 0-.1-.02-.12-.03 0 0-8.2-2-8.2-2-.23-.06-.46-.14-.6-.25 0 0-.03-.03-.04-.03 0 0-.02-.03-.03-.03 0 0-.03-.02-.03-.03 0 0-.03-.05-.03-.06 0 0-.03 0-.03-.02 0 0 0-.03 0-.03s-.03-.05-.03-.06c0-.02 0-.04 0-.04s0-.06 0-.07c0-.03 0-.08 0-.1 0 0 0-.03 0-.03s0-.05 0-.06c0 0 0-.02 0-.03 0 0 .03-.05.04-.06 0-.02.02-.06.03-.08 0 0 .02-.05.03-.06.02-.04.04-.1.06-.13.02-.02.05-.07.07-.1 0 0 .02-.02.03-.02 0 0 .02-.02.03-.03 0 0 .04-.02.05-.03.02 0 .05-.02.06-.03.02 0 .06 0 .07-.02 0 0 .03 0 .04 0 0 0 .03-.02.04-.03 0 0 .03 0 .03 0s.03-.03.03-.03zm-8.75 1.72l4.9 1c.15.04.3.1.4.2.02 0 .06 0 .07.02 0 0 .03.02.04.03 0 0 .02 0 .03.02 0 0 .03.05.05.06 0 0 .03.03.03.03 0 .02 0 .04 0 .04s.03.06.03.07c.02 0 .04.03.04.04 0 .03.03.1.04.12 0 0 0 .05 0 .06 0 .03 0 .07 0 .1 0 0 0 .03 0 .03 0 .04-.03.1-.04.13 0 0 0 .02 0 .03 0 .04-.04.1-.06.13 0 .02-.02.05-.03.06 0 0-.02.04-.03.06 0 0-.03.05-.03.06-.04.03-.08.07-.1.1 0 0-.03.02-.04.02 0 0-.02.03-.03.04 0 0-.05.02-.06.03 0 0-.05.03-.06.04 0 0-.02 0-.02 0-.18.05-.4.05-.6 0l-4.94-1.13.4-1.36zm-.88 3.34l4.9 1.06c.23.07.47.2.6.38 0 0 .03.02.04.03 0 .02.03.05.04.06 0 .04.02.08.03.1 0 .02.02.06.03.07 0 0 0 .05 0 .06 0 0 0 .03 0 .03 0 .02 0 .05 0 .07 0 0 0 .02 0 .03 0 0 0 .02 0 .03 0 0-.03.04-.03.05 0 0 0 .03 0 .03s0 .03 0 .03c0 .04-.02.1-.03.14-.03.08-.08.16-.13.22 0 0 0 .02-.02.03 0 0-.03 0-.03.02 0 0-.03.03-.03.03s-.03.03-.03.03c-.02 0-.06.03-.07.03 0 .02-.03.04-.04.04-.03 0-.08.03-.1.04 0 0-.05 0-.06 0-.17.03-.36 0-.53-.04l-4.93-1.15.4-1.42zm-.96 3.38l4.9 1.06c.2.06.4.14.54.28 0 0 .03.03.04.03 0 0 .02.03.03.03 0 0 .03.05.04.07 0 0 .02.02.03.03 0 .02.02.07.03.1 0 .02.02.08.03.1 0 .02 0 .04 0 .05 0 .02 0 .06 0 .07 0 .03 0 .1 0 .12 0 0 0 .02 0 .02 0 .02-.03.06-.03.07 0 .02-.02.06-.03.08 0 .02-.02.07-.03.1 0 0-.03.04-.03.06 0 0-.02.02-.02.03 0 0-.03.05-.04.06 0 0-.02.03-.03.03 0 0 0 .03-.02.03 0 0-.02.02-.03.02 0 0-.05.03-.06.04-.02 0-.04.02-.04.03-.02 0-.08 0-.1.02-.02 0-.07.02-.1.03-.16.04-.34.02-.52-.03l-4.94-1.16.4-1.4z" sodipodi:nodetypes="cccsccsssssssssssssssssssssssscccsccssssssssssssssssssssssssssssssccccsccssssssssssssssssssssssssssssssccccccccssssssssscccsssssssssssssssssssssssssccccssccccsccssssssssssssssssssssssssssscccsssssssssssssssssssssssccccssccccsccssssssssssssssssssssssssssscccssssssssssssssssssssssssscccccssssssssssssssssssssssscccccssssssssssssssssssssssssccc" opacity=".443" overflow="visible"/><path fill="url(#o)" fill-rule="evenodd" d="M22.28 15.84l8.3 1.94c1.36.38 2.48 2 2.48 2l-.4 1.6s-1.35-1.85-2.53-2.1c0 0-8.22-2-8.22-2-.48-.13-.93-.32-.74-.9.18-.6.56-.63 1.12-.54z" sodipodi:nodetypes="cccccczc" overflow="visible"/><path fill="#747474" fill-rule="evenodd" stroke="#424242" d="M31.5 19l-.13 15.38v.07c.1 1.4-1.1 2.63-2.25 2.4L18.66 34.7c-.47-.14-1.72-.64-1.32-2.08l-1.93-.5c-.67 2.44 1.26 4.16 2.7 4.47l10.65 2.18c2.57.52 4.75-1.83 4.63-4.4 0-.03 0-.05 0-.07L33.5 19h-2z" sodipodi:nodetypes="ccccccccccsccc" overflow="visible"/><path fill="url(#p)" fill-rule="evenodd" d="M21.25 19.28l8.3 1.94c1.36.37 2.48 2 2.48 2l-.4 1.6s-1.35-1.85-2.54-2.1c0 0-8.23-2-8.23-2-.48-.13-.93-.32-.75-.9.2-.6.57-.63 1.13-.54z" sodipodi:nodetypes="cccccczc" overflow="visible"/><path fill="url(#q)" fill-rule="evenodd" d="M24.1 8.97l8.3 1.94c1.35.38 2.07 1.5 2.07 1.5l-.4 1.6s-.95-1.34-2.13-1.6c0 0-8.22-2-8.22-2-.5-.13-.94-.3-.75-.9.2-.6.56-.63 1.12-.53z" sodipodi:nodetypes="cccccczc" overflow="visible"/><path fill="url(#r)" fill-rule="evenodd" d="M23.2 12.4l8.3 1.94c1.34.38 2.06 1.57 2.06 1.57l-.44 1.5s-.9-1.3-2.1-1.56c0 0-8.2-2-8.2-2-.5-.13-.94-.32-.76-.9.2-.6.57-.63 1.13-.53z" sodipodi:nodetypes="cccccczc" overflow="visible"/><path fill="url(#s)" fill-rule="evenodd" stroke="#424242" stroke-width=".789" d="M35.38 22.13a1.88 1.88 0 1 1-3.76 0 1.88 1.88 0 1 1 3.75 0z" transform="matrix(1.267 0 0 1.267 -10.308 -8.15)" sodipodi:cx="33.5" sodipodi:cy="22.125" sodipodi:rx="1.875" sodipodi:ry="1.875" sodipodi:type="arc" overflow="visible"/><path fill="url(#t)" fill-rule="evenodd" d="M20.34 22.72l8.32 1.94c1.34.37 2.46 2 2.46 2l-.4 1.6s-1.34-1.85-2.53-2.1c0 0-8.23-2-8.23-2-.5-.14-.87-.32-.75-.9.12-.6.56-.64 1.12-.54z" sodipodi:nodetypes="cccccczc" overflow="visible"/><path fill="url(#u)" fill-rule="evenodd" d="M16.56 23.34l-4.93-1.15.4-1.42 4.9 1.06c.4.13.85.38.7.97-.16.6-.63.67-1.07.54z" sodipodi:nodetypes="cccczc" overflow="visible"/><path fill="url(#v)" fill-rule="evenodd" d="M17.53 19.98l-4.94-1.16.4-1.4 4.9 1.06c.4.12.85.37.7.97-.16.58-.63.65-1.07.53z" sodipodi:nodetypes="cccczc" overflow="visible"/><path fill="url(#w)" fill-rule="evenodd" d="M18.4 16.55l-4.93-1.1.4-1.4 4.9 1c.42.12.86.37.7.97-.16.58-.63.65-1.06.53z" sodipodi:nodetypes="cccczc" overflow="visible"/><path fill="url(#x)" fill-rule="evenodd" d="M19.34 13.15L14.4 12.1l.4-1.42 4.92.97c.4.12.84.37.7.97-.17.58-.64.65-1.08.53z" sodipodi:nodetypes="cccczc" overflow="visible"/><path fill="url(#y)" fill-rule="evenodd" d="M20.25 9.78L15.3 8.72l.42-1.4 4.9.96c.4.13.85.38.7.97-.16.6-.63.66-1.07.53z" sodipodi:nodetypes="cccczc" overflow="visible"/><path fill="none" stroke="url(#z)" stroke-width="1.162" d="M27.63 46.38a11.2 5.88 0 1 1-22.38 0 11.2 5.88 0 1 1 22.38 0z" sodipodi:cy="46.375" sodipodi:cx="16.438" transform="matrix(.916 0 0 .808 10.126 1.917)" opacity=".295" sodipodi:ry="5.875" sodipodi:rx="11.188" overflow="visible" sodipodi:type="arc"/></g></svg>