<svg xmlns="http://www.w3.org/2000/svg" width="48" height="48" xmlns:xlink="http://www.w3.org/1999/xlink"><defs><linearGradient id="a"><stop offset="0"/><stop offset="1" stop-color="#2e3436" stop-opacity="0"/></linearGradient><radialGradient cx="839.264" cy="1627.754" r="20.816" gradientUnits="userSpaceOnUse" gradientTransform="matrix(1 -.245 0 1.154 -820.308 -1631.989)" fy="1627.754" fx="839.264"><stop offset="0" stop-color="#B5BABE"/><stop offset="1" stop-color="#fff"/></radialGradient><linearGradient id="c" x1="1038.135" x2="1041.376" y1="1646.058" y2="1652.928" gradientTransform="matrix(.966 .259 -.259 .966 -552.946 -1838.033)" gradientUnits="userSpaceOnUse"><stop offset="0" stop-color="#ED2829"/><stop offset="1" stop-color="#CB1009"/></linearGradient><linearGradient id="b" x1="2.452" x2="40.321" y1="44.983" y2="35.269" xlink:href="#a" gradientUnits="userSpaceOnUse"/></defs><g><path fill="url(#b)" d="M45.75 34.14c0 1.6-9.88 5.34-22.08 8.33-12.2 3-22.07 4.1-22.07 2.5 0-1.6 9.88-5.34 22.07-8.33 12.2-3 22.08-4.1 22.08-2.5z"/><path fill="#fff" d="M44.7 3.08c-.8.73-1.5 1.3-1.95 1.57-1.37.76-3 1.58-3.86 1.52-.87-.05-4.5-.06-6.97 1.07-5.45 2.5-17.5 13.93-22.63 21.6-5.14 7.7-4.22 10.03-5.85 12.06-.92 1.15-1.57 2.2-2.52 3.4-.72.9 2.16 1.8 3.3.87 3.47-2.76 4.68-3 6.9-4.52 10.73-7.27 21.18-17.57 23.5-19.73 2.63-2.47 3.97-4.1 6.98-9.5 1.65-2.96 3.65-5.65 5.4-7.72 1.48-1.74-.73-2.06-2.3-.62z"/><path fill="url(#c)" d="M10.1 41.32c.32-.2.66-.42 1.03-.67 10.73-7.27 21.18-17.57 23.5-19.73.96-.9 1.75-1.7 2.52-2.6.1-.17.1-.74.6-1.63.48-.9.32-1.73 1.35-3.6 1.6-2.7 1.13-2.9 1.44-3.38.86-1.08 1.45-2.55 1.86-3.08.42-.53-.8-1.03-1.6-1-.75.34-1.44.56-1.9.53-.88-.05-4.5-.06-6.98 1.07-5.44 2.5-17.5 13.93-22.62 21.6-.52.78-1.02 1.66-1.42 2.32-.25.53.05 1.1-.1 1.6-.13.46-1.2 2.6-1.65 3.65-.45 1.07-.48 2.82.08 3.43.57.6 1.12 1.55 3.04 1.08 1.92-.46 1.27.06.85.42z"/><path fill="#cb1009" d="M34.9 20.5c.17-.16.33-.3.5-.47.48-.5.83-1.03 1.23-1.58.14-.2.02-.32.1-.56.08-.22.23-.38.35-.56.25-.4.15-.98.3-1.4.06-.22.24-.44.35-.64.1-.2.14-.42.24-.64.22-.45.48-.87.6-1.36.1-.3-.05-.27-.1-.54-.07-.24.1-.5.24-.68.37-.4.9-.84 1.1-1.3.12-.3.13-.64.27-.9.13-.27.37-.5.53-.74.34-.52.66-1.07.96-1.63.12-.2.27-.46.36-.7.07-.2.17-.52.04-.68-.22-.27-.95-.25-1.26-.23-.4.02-.8.28-1.33.44-.33.06-4.8-.62-9.02 1.9-.42.27 4.8-2.13 6.92-1.54.2.04-1.4.57-4.15 2.5-2.75 1.93-7.96 5-8.62 6.9-.66 1.87-.36 5.53-1.22 6.9-.87 1.38-1.78 2.8-3.7 4.83-1.95 2.04-6.37 3.7-8.3 4.63-1.93.92-4.58 3.15-4.78 3.77-.2.6-.6 2.15.33 3.37.94 1.22 1.72 1.04 3.22.7 1.5-.33 1.22.03 1.18.13-.03.1 7.83-5.8 9.72-7.42 1.9-1.6 13.73-12.25 13.96-12.5z"/><path fill="#b3090a" d="M39.85 9.55c.36-.52.45-1.6-.48-1.44-.93.16-4.37 1.27-6.83 3.2-2.45 1.9-2.72 2.83-3.23 5.9-.17.97-5.17 5.74-6.34 7.14-1.25 1.5-2.4 2.88-3.5 3.92-1.1 1.05-3 2.46-7.75 5.48-1.94 1.23-3.68 3.75-3.2 4.22 1.5 1.47 4.1 1.05 5.75 0 1.65-1.04 20.1-17.03 21.2-18.5 1.1-1.47 1.68-5.45 2.36-6.62.76-1.28 1.78-2.9 2.05-3.3z"/><path fill="#a40e0a" d="M38.6 10.67c.42-.58-1-1.77-2.92-.85-1.92.9-4.1 1.56-5.72 6.67-.8 2.62-3.87 5.2-5.5 8.2-1 1.83 1 3.66 8.12-3.1 3.2-2.96 3.5-4.08 3.78-5.55.3-1.48 1.24-3.96 2.25-5.38z"/><path fill="none" stroke="#414951" stroke-width=".8" d="M47.23 3.44c-1.8 2.1-3.9 4.9-5.62 7.97-3 5.43-4.34 7.05-6.98 9.52-2.3 2.16-12.76 12.46-23.5 19.73-2.34 1.62-3.57 1.8-7.55 5.07"/><path fill="none" stroke="#5b6772" stroke-width=".8" d="M44.9 2.9c-.87.8-1.65 1.47-2.15 1.75-1.37.76-3 1.58-3.86 1.52-.87-.05-4.5-.06-6.97 1.07-5.45 2.5-17.5 13.93-22.63 21.6-5.14 7.7-4.22 10.03-5.85 12.06-1 1.25-1.68 2.37-2.77 3.7"/><g fill="none" stroke-width=".4"><path stroke="#7f0c07" d="M38.77 12.43c-2.8 1.9-4.96 3.66-12.6 11.17-7.64 7.5-11.9 11.36-18.42 16.6"/><path stroke="#f8170f" d="M8.04 40.54c6.43-5.15 10.57-8.87 18.45-16.62 7.75-7.63 9.86-9.3 12.53-11.1"/><path stroke="#7f0c07" d="M40.02 8.97c-1.5.46-5.23 1.96-8.36 4.57-3.14 2.6-6 5.23-10.26 9.47-4.24 4.26-9.53 9.8-15.15 14.9"/><path stroke="#f8170f" d="M6.55 38.24c4.3-3.88 8.36-8.02 11.96-11.66l3.22-3.25c4-4 6.87-6.64 10.23-9.44 2.96-2.48 6.55-4 8.2-4.5"/><path stroke="#7f0c07" d="M38.38 7.2c-2.28.6-4.18.53-8.3 3.08C26 12.82 16.2 23 13.5 25.68c-2.68 2.7-5.36 6.54-5.36 6.54"/><path stroke="#f8170f" d="M8.52 32.48c.02-.04 2.68-3.85 5.3-6.47l1.45-1.46c3.75-3.8 11.55-11.7 15.06-13.88 3.18-1.97 5-2.34 6.73-2.7l1.44-.3"/></g></g></svg>