<svg xmlns="http://www.w3.org/2000/svg" width="48" height="48" xmlns:xlink="http://www.w3.org/1999/xlink"><defs><linearGradient id="r"><stop offset="0" stop-color="#c4a000"/><stop offset="1" stop-color="#c4a000" stop-opacity="0"/></linearGradient><linearGradient id="q"><stop offset="0" stop-color="#edd400"/><stop offset=".25" stop-color="#fff5a3"/><stop offset=".5" stop-color="#edd400"/><stop offset="1" stop-color="#a59400"/></linearGradient><linearGradient id="j"><stop offset="0" stop-color="#c6c7c4"/><stop offset="1" stop-color="#888a85"/></linearGradient><linearGradient id="i"><stop offset="0" stop-color="#fff"/><stop offset=".694" stop-color="#d3d3d3"/><stop offset="1" stop-color="#acacac"/></linearGradient><linearGradient id="h"><stop offset="0" stop-color="#452200" stop-opacity=".369"/><stop offset="1" stop-opacity="0"/></linearGradient><linearGradient id="g"><stop offset="0" stop-color="#babdb6"/><stop offset="1" stop-color="#7b8074"/></linearGradient><linearGradient id="f"><stop offset="0" stop-color="#555753"/><stop offset="1" stop-color="#555753" stop-opacity="0"/></linearGradient><linearGradient id="e"><stop offset="0" stop-color="#e1e1e1"/><stop offset=".5" stop-color="#fff"/><stop offset="1" stop-color="#bfbfbf"/></linearGradient><linearGradient><stop offset="0" stop-color="#adc7e3"/><stop offset=".5" stop-color="#5587bb"/><stop offset="1" stop-color="#396fa8"/></linearGradient><linearGradient id="d"><stop offset="0" stop-color="#fff"/><stop offset="1" stop-color="#fff" stop-opacity="0"/></linearGradient><linearGradient id="c"><stop offset="0"/><stop offset="1" stop-opacity="0"/></linearGradient><linearGradient id="b"><stop offset="0" stop-color="#ef2929"/><stop offset=".5" stop-color="#ffc8c8"/><stop offset="1" stop-color="#ef2929"/></linearGradient><linearGradient id="a"><stop offset="0" stop-color="#dca44a"/><stop offset="1" stop-color="#dac183"/></linearGradient><linearGradient x1="24.5" x2="42" y1="25.464" y2="24.75" xlink:href="#a" gradientUnits="userSpaceOnUse" gradientTransform="translate(.071 -3.214)"/><linearGradient id="u" x1="10.5" x2="7.643" y1="29.75" y2="32.393" xlink:href="#b" gradientUnits="userSpaceOnUse" spreadMethod="repeat" gradientTransform="matrix(1.028 0 0 1.028 -.597 -2.514)"/><linearGradient id="v" x1="24.5" x2="42" y1="25.464" y2="24.75" xlink:href="#a" gradientUnits="userSpaceOnUse" gradientTransform="matrix(1.028 0 0 1.028 -.524 -6.993)"/><radialGradient id="s" cx="23.929" cy="38.786" r="22.857" xlink:href="#c" fx="23.929" fy="38.786" gradientTransform="matrix(1 0 0 .406 0 23.029)" gradientUnits="userSpaceOnUse"/><radialGradient cx="20.286" cy="40.929" r="1.929" xlink:href="#d" fx="20.286" fy="40.929" gradientUnits="userSpaceOnUse"/><radialGradient cx="20.286" cy="40.929" r="1.929" xlink:href="#d" gradientUnits="userSpaceOnUse" fx="20.286" fy="40.929"/><radialGradient cx="20.286" cy="40.929" r="1.929" xlink:href="#d" gradientUnits="userSpaceOnUse" fx="20.286" fy="40.929"/><radialGradient cx="20.286" cy="40.929" r="1.929" xlink:href="#d" gradientUnits="userSpaceOnUse" fx="20.286" fy="40.929"/><radialGradient cx="20.286" cy="40.929" r="1.929" xlink:href="#d" gradientUnits="userSpaceOnUse" fx="20.286" fy="40.929"/><radialGradient cx="20.286" cy="40.929" r="1.929" xlink:href="#d" gradientUnits="userSpaceOnUse" fx="20.286" fy="40.929"/><radialGradient cx="20.286" cy="40.929" r="1.929" xlink:href="#d" gradientUnits="userSpaceOnUse" fx="20.286" fy="40.929"/><radialGradient cx="20.286" cy="40.929" r="1.929" xlink:href="#d" gradientUnits="userSpaceOnUse" fx="20.286" fy="40.929"/><radialGradient cx="20.286" cy="40.929" r="1.929" xlink:href="#d" gradientUnits="userSpaceOnUse" fx="20.286" fy="40.929"/><radialGradient cx="20.286" cy="40.929" r="1.929" xlink:href="#d" gradientUnits="userSpaceOnUse" fx="20.286" fy="40.929"/><radialGradient cx="20.286" cy="40.929" r="1.929" xlink:href="#d" gradientUnits="userSpaceOnUse" fx="20.286" fy="40.929"/><radialGradient cx="20.286" cy="40.929" r="1.929" xlink:href="#d" gradientUnits="userSpaceOnUse" fx="20.286" fy="40.929"/><radialGradient cx="20.286" cy="40.929" r="1.929" xlink:href="#d" gradientUnits="userSpaceOnUse" fx="20.286" fy="40.929"/><radialGradient cx="20.286" cy="40.929" r="1.929" xlink:href="#d" gradientUnits="userSpaceOnUse" fx="20.286" fy="40.929"/><radialGradient cx="20.286" cy="40.929" r="1.929" xlink:href="#d" gradientUnits="userSpaceOnUse" fx="20.286" fy="40.929"/><radialGradient cx="20.286" cy="40.929" r="1.929" xlink:href="#d" gradientUnits="userSpaceOnUse" fx="20.286" fy="40.929"/><radialGradient id="t" cx="40.985" cy="33.655" r="22.464" xlink:href="#b" fx="40.985" fy="33.655" gradientTransform="matrix(.277 .004 -.006 .434 20.043 18.909)" gradientUnits="userSpaceOnUse" spreadMethod="repeat"/><linearGradient id="x" x1="16.821" x2="21.179" y1="13.643" y2="13.643" xlink:href="#e" gradientUnits="userSpaceOnUse" gradientTransform="matrix(.769 0 0 1.087 -.586 -2.762)"/><linearGradient id="z" x1="18.89" x2="18.936" y1="8.73" y2="11.342" xlink:href="#f" gradientUnits="userSpaceOnUse" gradientTransform="matrix(.769 0 0 1.087 -.586 4.713)"/><linearGradient id="y" x1="16.704" x2="21.17" y1="12.999" y2="12.999" xlink:href="#g" gradientUnits="userSpaceOnUse" gradientTransform="matrix(.748 0 0 1.057 -.139 -1.347)"/><linearGradient id="w" x1="18.839" x2="31.517" y1="19.64" y2="19.64" xlink:href="#h" gradientUnits="userSpaceOnUse" gradientTransform="matrix(1.057 0 0 1.057 -5.997 -1.347)"/><radialGradient id="A" cx="18.486" cy="3.301" r="3.381" xlink:href="#i" fx="18.486" fy="3.301" gradientUnits="userSpaceOnUse"/><linearGradient id="B" x1="16.539" x2="21.65" y1="1.663" y2="6.108" xlink:href="#j" gradientUnits="userSpaceOnUse"/><linearGradient id="H" x1="11.838" x2="17.388" y1="4.681" y2="12.098" xlink:href="#k" gradientUnits="userSpaceOnUse"/><linearGradient id="k"><stop offset="0" stop-color="#fff"/><stop offset="1" stop-color="#edd400"/></linearGradient><linearGradient x1="15.414" x2="17.656" y1="11.067" y2="14.608" xlink:href="#l" gradientUnits="userSpaceOnUse" gradientTransform="matrix(.737 0 0 .737 43.63 16.535)"/><linearGradient id="l"><stop offset="0" stop-color="#422900" stop-opacity=".431"/><stop offset="1" stop-opacity="0"/></linearGradient><radialGradient cx="4.938" cy="12.716" r="8.069" xlink:href="#m" fx="4.938" fy="12.716" gradientTransform="matrix(1 0 0 1.014 0 -.209)" gradientUnits="userSpaceOnUse"/><linearGradient id="m" x1="1.872" x2="16.492" y1="1.25" y2="4.914" gradientUnits="userSpaceOnUse" gradientTransform="matrix(.813 0 0 2.54 6.423 3.701)"><stop offset="0" stop-color="#f2f2f2"/><stop offset="1" stop-color="#edd400"/></linearGradient><linearGradient x1="5.003" x2="14.134" y1="8.658" y2="21.062" xlink:href="#n" gradientUnits="userSpaceOnUse"/><linearGradient id="n"><stop offset="0" stop-color="#ba9600"/><stop offset="1" stop-color="#4f4000"/></linearGradient><radialGradient cx="4.938" cy="12.716" r="8.069" xlink:href="#m" gradientUnits="userSpaceOnUse" gradientTransform="matrix(1 0 0 1.014 0 -.209)" fx="4.938" fy="12.716"/><linearGradient x1="5.003" x2="14.134" y1="8.658" y2="21.062" xlink:href="#n" gradientUnits="userSpaceOnUse"/><radialGradient id="C" cx="10.33" cy="11.377" r="8.069" xlink:href="#o" gradientUnits="userSpaceOnUse" gradientTransform="matrix(1 0 0 1.014 0 -.423)" fx="10.33" fy="11.377"/><linearGradient id="o" x1="1.872" x2="16.492" y1="1.25" y2="4.914" gradientUnits="userSpaceOnUse" gradientTransform="matrix(.813 0 0 2.54 6.423 3.701)"><stop offset="0" stop-color="#f2f2f2"/><stop offset="1" stop-color="#edd400"/></linearGradient><linearGradient id="D" x1="5.003" x2="14.134" y1="8.658" y2="21.062" xlink:href="#p" gradientUnits="userSpaceOnUse" gradientTransform="translate(0 -.214)"/><linearGradient id="p"><stop offset="0" stop-color="#ba9600"/><stop offset="1" stop-color="#4f4000"/></linearGradient><radialGradient cx="4.938" cy="12.716" r="8.069" fy="12.716" fx="4.938" gradientTransform="matrix(1 0 0 1.014 0 -.209)" gradientUnits="userSpaceOnUse" xlink:href="#o"/><linearGradient x1="5.003" x2="14.134" y1="8.658" y2="21.062" gradientUnits="userSpaceOnUse" xlink:href="#p"/><linearGradient id="F" x1="9.316" x2="20.29" y1="7.594" y2="7.594" xlink:href="#q" gradientUnits="userSpaceOnUse" gradientTransform="matrix(.847 0 0 .374 1.444 1.593)"/><linearGradient id="E" x1="9.316" x2="20.29" y1="7.594" y2="7.594" xlink:href="#q" gradientUnits="userSpaceOnUse" gradientTransform="matrix(.538 0 0 .275 6.004 6.864)"/><linearGradient id="I" x1="19.875" x2="14.42" y1="11.445" y2="13.768" xlink:href="#r" gradientUnits="userSpaceOnUse" gradientTransform="translate(0 -.214)"/><linearGradient id="G" x1="9.316" x2="20.29" y1="7.594" y2="7.594" xlink:href="#p" gradientUnits="userSpaceOnUse" gradientTransform="matrix(.847 0 0 .374 1.444 1.593)"/></defs><g><path fill="url(#s)" d="M46.8 38.8a22.86 9.3 0 1 1-45.73 0 22.86 9.3 0 1 1 45.72 0z" transform="matrix(1.028 0 0 1.301 -.597 -14.455)" color="#000" overflow="visible" enable-background="accumulate"/><path fill="url(#t)" stroke="#a40000" stroke-width=".5" d="M1.9 30.3l-.5-9.75 16.44 17.77 29.22-10.28-.66 7.27-29.37 10.87z" stroke-linejoin="bevel"/><path fill="url(#u)" stroke="#a40000" stroke-width=".5" d="M1.68 30.46l-.37-9.9L26.66 14 47.3 28 17.17 38.32l-.22 7.85z" stroke-linejoin="bevel"/><path fill="#edd400" stroke="#c4a000" d="M1.6 18.5l-.14-2.58 42.67-3.9 1.46 1.7c-2.24 7.53-8.48 15.9-15.27 17.88l-12.57 4.37z"/><path fill="url(#v)" stroke="#8f5902" stroke-width=".75" d="M.87 11.95L30.7 5.12l5.2 3.75c1.2.9 3.86 1.34 6.24.95l-2.35 9.04-9.33 9.18-12.7 3.74L1.52 14.82z" stroke-linejoin="bevel"/><path fill="none" stroke="#d19129" d="M11.8 9.97l-2.85 9.9"/><path fill="none" stroke="#d19129" d="M20.54 8.27L5.8 16.73"/><path fill="none" stroke="#d19129" d="M15.12 9.58c0 .73.5 17.35.5 17.35" stroke-linecap="round"/><path fill="none" stroke="#d19129" d="M11.8 22.82l19.32-3.48c2.13-.22 6.2-1.9 8.16-3.48"/><path fill="none" stroke="#d19129" d="M24.44 7.18l-6.9 21.3"/><path fill="none" stroke="#d19129" d="M9.6 20.77c.38-.15 25.8-11.6 25.8-11.6"/><path fill="none" stroke="#d19129" d="M20.68 8.24l12.14 5.27 6.68 1.17"/><path fill="none" stroke="#d19129" d="M30.27 5.87L27.6 26.8" stroke-linecap="round"/><path fill="none" stroke="#d19129" d="M33.7 22.9c-.6-.15-26.9-11.55-26.9-11.55" stroke-linecap="round"/><path fill="#a76c0f" stroke="#653f01" stroke-width=".75" d="M1.3 15.92l-.2-3.67 17.1 18 10.66-3.82c6.03-2.4 9.9-9.22 13.28-16.46l2.43 1.98c-2.24 7.54-8.33 15.9-15.85 18.03l-10.8 3.86z" stroke-linejoin="bevel"/><path fill="url(#w)" d="M14.88 18.05l12.44-.32-.1 2.24-13.3 1.12z"/><path fill="url(#x)" stroke="url(#y)" stroke-width=".5" d="M12.54 4.07l.22 16.14c.77 1 1.54.78 2.3-.07l.45-16.22z"/><path fill="url(#z)" d="M12.4 11.56l.06 5.4 2.95-.05.25-5.57z"/><path fill="url(#A)" stroke="url(#B)" stroke-width=".473" d="M22.27 3.96a3.13 3.13 0 1 1-6.26 0 3.13 3.13 0 1 1 6.27 0z" transform="matrix(1.057 0 0 1.057 -41.827 3.337)" color="#000" stroke-linecap="round" stroke-linejoin="bevel" overflow="visible" enable-background="accumulate"/><path fill="#fff" d="M14.1 2.63a.96.96 0 1 1-1.93 0 .96.96 0 1 1 1.92 0z" color="#000" overflow="visible" enable-background="accumulate"/><path fill="url(#C)" fill-rule="evenodd" stroke="url(#D)" stroke-width=".5" d="M9.7 2.04l.02 2.73 1.4 1.44-.1 3c-2.08.37-3.8 1.8-3.8 3.56 0 1.2 3.04 2.75 6.78 2.75s6.77-1.53 6.75-2.7c-.02-1.7-1.7-3.2-3.8-3.57l-.12-2.92 1.4-1.42V2.15" color="#000" stroke-linecap="round" overflow="visible" enable-background="accumulate"/><path fill="url(#E)" fill-rule="evenodd" d="M16.7 9.3c0 .6-1.27 1.06-2.77 1.06s-2.68-.57-2.68-1.2l.02-3.92 5.4.03z"/><path fill="url(#F)" fill-rule="evenodd" stroke="url(#G)" stroke-width=".5" d="M18.24 4.73c0 1.05-1.9 1.9-4.26 1.9S9.7 5.78 9.7 4.73l.05-2.5 8.5.05z" stroke-linecap="round"/><path fill="url(#H)" fill-rule="evenodd" stroke="#8e7300" stroke-width=".888" d="M19.83 8.4a5.03 5.07 0 1 1-10.07 0 5.03 5.07 0 1 1 10.07 0z" transform="matrix(.847 0 0 .374 1.444 -1.014)" stroke-linecap="round"/><path fill="url(#I)" d="M13.8 10.38c1.32 1.44 1.62 3.3 1.48 4.73 2-.07 4.54-1.08 5.28-2.14-.06-1.75-1.54-3.17-3.87-3.56-.57.74-1.77.83-2.9.98z"/></g></svg>