<svg xmlns="http://www.w3.org/2000/svg" width="48" height="48" xmlns:xlink="http://www.w3.org/1999/xlink"><defs><linearGradient id="h"><stop offset="0" stop-color="#fff"/><stop offset="1" stop-color="#fff" stop-opacity="0"/></linearGradient><linearGradient><stop offset="0" stop-color="#66a9ef" stop-opacity="0"/><stop offset=".293" stop-color="#66a9ef"/><stop offset=".5" stop-color="#66a9ef"/><stop offset=".75" stop-color="#66a9ef"/><stop offset="1" stop-color="#66a9ef" stop-opacity="0"/></linearGradient><linearGradient id="a"><stop offset="0" stop-color="#66a9ef"/><stop offset="1" stop-color="#66a9ef" stop-opacity="0"/></linearGradient><linearGradient id="m" x1="26.059" x2="24.815" y1="26.158" y2="34.371" xlink:href="#a" gradientUnits="userSpaceOnUse"/><linearGradient id="n" x1="26.059" x2="24.815" y1="26.158" y2="34.371" xlink:href="#b" gradientUnits="userSpaceOnUse"/><linearGradient id="b"><stop offset="0" stop-color="#66a9ef"/><stop offset="1" stop-color="#66a9ef" stop-opacity="0"/></linearGradient><linearGradient x1="26.059" x2="24.815" y1="26.158" y2="34.371" gradientUnits="userSpaceOnUse" xlink:href="#b"/><linearGradient id="o" x1="26.059" x2="24.815" y1="26.158" y2="34.371" xlink:href="#c" gradientUnits="userSpaceOnUse"/><linearGradient id="c"><stop offset="0" stop-color="#66a9ef"/><stop offset="1" stop-color="#66a9ef" stop-opacity="0"/></linearGradient><linearGradient x1="26.059" x2="24.815" y1="26.158" y2="34.371" gradientUnits="userSpaceOnUse" xlink:href="#c"/><linearGradient id="p" x1="26.059" x2="24.815" y1="26.158" y2="34.371" xlink:href="#b" gradientUnits="userSpaceOnUse"/><linearGradient id="j" x1="3.743" x2="43.583" y1="44.01" y2="4.462" xlink:href="#d" gradientUnits="userSpaceOnUse" gradientTransform="matrix(.864 -.136 -.136 .864 6.46 6.705)"/><linearGradient id="d"><stop offset="0" stop-color="#66a9ef" stop-opacity="0"/><stop offset=".293" stop-color="#66a9ef"/><stop offset=".5" stop-color="#66a9ef"/><stop offset=".75" stop-color="#66a9ef"/><stop offset="1" stop-color="#66a9ef" stop-opacity="0"/></linearGradient><linearGradient x1="3.743" x2="43.583" y1="44.01" y2="4.462" gradientTransform="translate(-3.389 -4.114)" gradientUnits="userSpaceOnUse" xlink:href="#d"/><linearGradient id="l" x1="3.743" x2="43.583" y1="44.01" y2="4.462" xlink:href="#e" gradientUnits="userSpaceOnUse" gradientTransform="matrix(.864 -.136 -.136 .864 6.46 6.705)"/><linearGradient id="e"><stop offset="0" stop-color="#66a9ef" stop-opacity="0"/><stop offset=".293" stop-color="#66a9ef"/><stop offset=".5" stop-color="#66a9ef"/><stop offset=".75" stop-color="#66a9ef"/><stop offset="1" stop-color="#66a9ef" stop-opacity="0"/></linearGradient><linearGradient x1="3.743" x2="43.583" y1="44.01" y2="4.462" gradientTransform="translate(-3.389 -4.114)" gradientUnits="userSpaceOnUse" xlink:href="#e"/><linearGradient id="k" x1="3.743" x2="43.583" y1="44.01" y2="4.462" xlink:href="#f" gradientUnits="userSpaceOnUse" gradientTransform="matrix(.864 -.136 -.136 .864 6.46 6.705)"/><linearGradient id="f"><stop offset="0" stop-color="#66a9ef" stop-opacity="0"/><stop offset=".293" stop-color="#66a9ef"/><stop offset=".5" stop-color="#66a9ef"/><stop offset=".75" stop-color="#66a9ef"/><stop offset="1" stop-color="#66a9ef" stop-opacity="0"/></linearGradient><linearGradient x1="3.743" x2="43.583" y1="44.01" y2="4.462" gradientTransform="translate(-3.389 -4.114)" gradientUnits="userSpaceOnUse" xlink:href="#f"/><linearGradient id="g"><stop offset="0" stop-color="#66a9ef" stop-opacity="0"/><stop offset=".293" stop-color="#66a9ef"/><stop offset=".5" stop-color="#66a9ef"/><stop offset=".75" stop-color="#66a9ef"/><stop offset="1" stop-color="#66a9ef" stop-opacity="0"/></linearGradient><linearGradient x1="3.743" x2="43.583" y1="44.01" y2="4.462" gradientTransform="translate(-3.389 -4.114)" gradientUnits="userSpaceOnUse" xlink:href="#g"/><radialGradient id="i" cx="23.991" cy="24.362" r="20.254" xlink:href="#h" fx="23.991" fy="24.362" gradientTransform="matrix(1.488 -1.414 .637 .67 -27.219 41.977)" gradientUnits="userSpaceOnUse"/></defs><g><path fill="url(#i)" d="M3.74 43.15c5.14-5.1 6-19.53 12.83-26.06 6.82-6.54 22.2-8.36 26.66-12.74l1 .76c-5.82 5.48-6.47 18.97-12.1 25.6C26.47 37.37 7.86 40.9 4.84 44.37z"/><path fill="#8ae234" stroke="#4e9a06" d="M4.7 45.35a2.1 2.1 0 1 1-4.2 0 2.1 2.1 0 1 1 4.2 0z" color="#000" stroke-linecap="round" overflow="visible" enable-background="accumulate"/><path fill="#ef2929" stroke="#a40000" d="M47.43 2.72a2.1 2.1 0 1 1-4.2 0 2.1 2.1 0 1 1 4.2 0z" color="#000" stroke-linecap="round" overflow="visible" enable-background="accumulate"/><path fill="none" stroke="#66a9ef" d="M3.8 44.48c5.96-6.12 5.6-19.23 12.82-26.8 7.2-7.55 21.12-7.6 26.94-12.9"/><path fill="none" stroke="url(#j)" d="M3.44 44.16c5.95-6.13 10.36-17.6 16.7-23.96 6.34-6.35 17.6-10.12 23.42-15.42" color="#000" overflow="visible" enable-background="accumulate"/><path fill="none" stroke="#66a9ef" d="M43.56 4.78c-5.95 6.12-5.6 19.23-12.8 26.8-7.22 7.55-21.13 7.6-26.95 12.9" color="#000" overflow="visible" enable-background="accumulate"/><path fill="none" stroke="url(#k)" d="M43.56 4.78c-5.95 6.12-10.37 17.6-16.7 23.95C20.5 35.1 9.62 39.18 3.8 44.48" color="#000" overflow="visible" enable-background="accumulate"/><path fill="none" stroke="url(#l)" d="M3.96 44.37c6.8-6.94 12.96-14.44 19.9-21.36 6.24-6.24 12.9-11.07 19.62-18.15" color="#000" overflow="visible" enable-background="accumulate"/><path fill="none" stroke="url(#m)" stroke-width="1.044" d="M37.53 25.73a12.32 7.1 0 1 1-24.65 0 12.32 7.1 0 1 1 24.65 0z" transform="matrix(.655 .463 -.7 .907 25.666 -10.855)" color="#000" overflow="visible" enable-background="accumulate"/><path fill="none" stroke="url(#n)" stroke-width="1.298" d="M37.53 25.73a12.32 7.1 0 1 1-24.65 0 12.32 7.1 0 1 1 24.65 0z" transform="matrix(.527 .372 -.563 .729 19.743 2.26)" color="#000" overflow="visible" enable-background="accumulate"/><path fill="none" stroke="url(#o)" stroke-width="3.471" d="M37.53 25.73a12.32 7.1 0 1 1-24.65 0 12.32 7.1 0 1 1 24.65 0z" transform="matrix(.198 .138 -.211 .272 11.131 27.521)" color="#000" overflow="visible" enable-background="accumulate"/><path fill="none" stroke="url(#p)" stroke-width="1.591" d="M37.53 25.73a12.32 7.1 0 1 1-24.65 0 12.32 7.1 0 1 1 24.65 0z" transform="matrix(.43 .303 -.46 .594 32.361 -6.575)" color="#000" overflow="visible" enable-background="accumulate"/></g></svg>