<svg xmlns="http://www.w3.org/2000/svg" width="48" height="48" xmlns:xlink="http://www.w3.org/1999/xlink"><defs><linearGradient id="a"><stop offset="0" stop-color="#fff"/><stop offset="1" stop-color="#edd400"/></linearGradient><radialGradient cx="25.182" cy="24.538" r="3.51" xlink:href="#a" gradientUnits="userSpaceOnUse" gradientTransform="matrix(.726 .654 -.779 .864 26.014 -13.125)" fx="25.182" fy="24.538"/><radialGradient cx="25.182" cy="24.538" r="3.51" xlink:href="#a" gradientUnits="userSpaceOnUse" gradientTransform="matrix(.726 .654 -.779 .864 26.014 -13.125)" fx="25.182" fy="24.538"/><radialGradient cx="25.182" cy="24.538" r="3.51" xlink:href="#a" gradientUnits="userSpaceOnUse" gradientTransform="matrix(.726 .654 -.779 .864 26.014 -13.125)" fx="25.182" fy="24.538"/><radialGradient id="b" cx="25.182" cy="24.538" r="3.51" xlink:href="#a" gradientUnits="userSpaceOnUse" gradientTransform="matrix(.726 .654 -.779 .864 26.014 -13.125)" fx="25.182" fy="24.538"/></defs><g color="#000"><path fill="#cee14b" fill-rule="evenodd" stroke="#727e0a" stroke-width=".51.955" d="M26.9 42.94a2.85 2.85 0 1 1-5.7 0 2.85 2.85 0 1 1 5.7 0z" stroke-linejoin="round" overflow="visible"/><path fill="#729fcf" stroke="#204a87" stroke-width=".56.788" d="M41.73 16.88a3.12 3.12 0 1 1-6.23 0 3.12 3.12 0 1 1 6.23 0z" overflow="visible"/><path fill="#ef2929" stroke="#a40000" stroke-width=".58.72" d="M13.58 16.97a3.24 3.24 0 1 1-6.48 0 3.24 3.24 0 1 1 6.48 0z" overflow="visible"/><path fill="#ef2929" fill-rule="evenodd" stroke="#a40000" d="M11.48 16.3l27.97 16.58c1.07.73 1.07 2.2 0 2.52L11.48 18.8c-.96-.7-.87-1.75 0-2.5z" stroke-linejoin="round" overflow="visible"/><path fill="#729fcf" fill-rule="evenodd" stroke="#204a87" d="M37.2 16.18L6.05 33.8c-1.2.8-1.2 2.35 0 2.68L37.2 18.85c1.07-.73.9-2.28 0-2.67z" stroke-linejoin="round" overflow="visible"/><rect width="2.911" height="37.941" x="22.636" y="3.911" fill="#cee14b" fill-rule="evenodd" stroke="#727e0a" ry="1.254" stroke-linejoin="round" overflow="visible"/><path fill="url(#b)" fill-rule="evenodd" stroke="#917600" stroke-width="1.139" d="M28.96 25.02a3 3 0 1 1-6.02 0 3 3 0 1 1 6.02 0z" transform="matrix(.84 0 0 .918 2.079 1.921)" stroke-linejoin="round" overflow="visible"/><path fill="#ef2929" stroke="#a40000" stroke-width=".56.773" d="M44.76 35.16a3.14 3.14 0 1 1-6.28 0 3.14 3.14 0 1 1 6.28 0z" overflow="visible"/><path fill="#729fcf" stroke="#204a87" stroke-width=".53.89" d="M8.85 35.3a2.95 2.95 0 1 1-5.9 0 2.95 2.95 0 1 1 5.9 0z" overflow="visible"/><path fill="#cee14b" fill-rule="evenodd" stroke="#727e0a" stroke-width=".54.861" d="M27.26 5.23a3 3 0 1 1-5.98 0 3 3 0 1 1 5.98 0z" stroke-linejoin="round" overflow="visible"/></g></svg>