<svg xmlns="http://www.w3.org/2000/svg" width="48" height="48" xmlns:xlink="http://www.w3.org/1999/xlink"><defs><linearGradient id="d"><stop offset="0" stop-color="#646662" stop-opacity="0"/><stop offset=".25" stop-color="#646662"/><stop offset=".5" stop-color="#646662"/><stop offset=".75" stop-color="#646662"/><stop offset="1" stop-color="#646662" stop-opacity="0"/></linearGradient><linearGradient id="a"><stop offset="0" stop-color="#fff"/><stop offset="1" stop-color="#fff" stop-opacity="0"/></linearGradient><linearGradient x1="55.876" x2="38.061" y1="62.402" y2="62.827" xlink:href="#a" gradientUnits="userSpaceOnUse" gradientTransform="matrix(-.493 -.717 .717 -.493 -9.268 79.419)"/><linearGradient x1="28.245" x2="28.245" y1="60.446" y2="68.225" xlink:href="#b" gradientUnits="userSpaceOnUse" gradientTransform="matrix(-.493 -.717 .717 -.493 -9.268 79.419)"/><linearGradient id="c"><stop offset="0" stop-color="#5b90c8"/><stop offset=".316" stop-color="#8fb0d1"/><stop offset="1" stop-color="#34679d"/></linearGradient><linearGradient x1="28.245" x2="28.245" y1="60.446" y2="68.225" xlink:href="#c" gradientUnits="userSpaceOnUse" gradientTransform="matrix(-.493 -.717 .717 -.493 -9.268 79.419)"/><linearGradient id="b"><stop offset="0" stop-color="#729fcf"/><stop offset=".316" stop-color="#a5bfda"/><stop offset="1" stop-color="#376ca4"/></linearGradient><linearGradient x1="28.245" x2="28.245" y1="60.446" y2="68.225" xlink:href="#b" gradientUnits="userSpaceOnUse" gradientTransform="matrix(-.493 -.717 .717 -.493 -9.268 79.419)"/><linearGradient id="e" x1="3.519" x2="45.976" y1="1.296" y2="46.724" xlink:href="#d" gradientUnits="userSpaceOnUse"/></defs><g><path fill="none" stroke="#eeeeec" stroke-width="4" d="M23.93 5.86V41" stroke-linecap="round"/><path fill="none" stroke="#eeeeec" stroke-width="4" d="M14.36 10.07l20 27.14" stroke-linecap="round"/><path fill="none" stroke="#eeeeec" stroke-width="4" d="M38.93 18.43l-31 9.28" stroke-linecap="round"/><path fill="none" stroke="#eeeeec" stroke-width="3.464" d="M-12.3 6.57a2.3 2.3 0 1 1-4.56 0 2.3 2.3 0 1 1 4.57 0z" transform="matrix(1.156 0 0 1.154 40.852 15.424)" color="#000" stroke-linecap="square" overflow="visible"/><path fill="none" stroke="url(#e)" stroke-width="2" d="M3.23 1.22c.15 28.6 42.2 15.33 41.74 45.3"/><path fill="#555753" fill-rule="evenodd" d="M10 16.7l-7.13-2.75 6.5-5.12.63 7.88z"/><path fill="#555753" fill-rule="evenodd" d="M43.57 37.32l-6.76-3.9 6.9-4.5-.13 8.4z"/><path fill="none" stroke="#4e9a06" stroke-width="2" d="M24 5.8v35.13" stroke-linecap="round"/><path fill="none" stroke="#204a87" stroke-width="2" d="M14.43 10l20 27.14" stroke-linecap="round"/><path fill="none" stroke="#a40000" stroke-width="2" d="M39 18.36L8 27.64" stroke-linecap="round"/><path fill="#fce94f" fill-rule="evenodd" stroke="#c4a000" stroke-width="1.732" d="M-12.3 6.57a2.3 2.3 0 1 1-4.56 0 2.3 2.3 0 1 1 4.57 0z" transform="matrix(1.156 0 0 1.154 40.924 15.353)" color="#000" stroke-linecap="square" overflow="visible"/></g></svg>