<svg xmlns="http://www.w3.org/2000/svg" width="48" height="48"><defs><radialGradient id="a" cx="25.052" cy="40.156" r="25.934" gradientUnits="userSpaceOnUse" fy="40.156" fx="25.052" gradientTransform="matrix(1 0 0 .207 -.235 30.978)"><stop offset="0" stop-color="#535a5f"/><stop offset="1" stop-color="#fff" stop-opacity="0"/></radialGradient><radialGradient id="b" cx="4.617" cy="16.408" r="14.916" gradientUnits="userSpaceOnUse" fy="16.408" fx="4.617" gradientTransform="translate(-.235 -.875)"><stop offset="0" stop-color="#DAE1E2"/><stop offset="1" stop-color="#A2B0BE"/></radialGradient><radialGradient id="c" cx="12.003" cy="23.068" r="8.466" gradientUnits="userSpaceOnUse" fy="23.068" fx="12.003" gradientTransform="translate(-.235 -.875)"><stop offset="0" stop-color="#DAE1E2"/><stop offset="1" stop-color="#A2B0BE"/></radialGradient><linearGradient id="d" x1="14.194" x2="22.463" y1="33.184" y2="23.938" gradientUnits="userSpaceOnUse" gradientTransform="translate(-.235 -.875)"><stop offset="0" stop-color="#A2B0BE"/><stop offset=".348" stop-color="#DEE6E6"/><stop offset=".545" stop-color="#D8E0E0"/><stop offset="1" stop-color="#98A5B3"/></linearGradient><radialGradient id="e" cx="26.924" cy="37.632" r="6.116" gradientUnits="userSpaceOnUse" fy="37.632" fx="26.924" gradientTransform="translate(-.235 -.875)"><stop offset="0" stop-color="#DAE1E2"/><stop offset="1" stop-color="#98A5B3"/></radialGradient><linearGradient id="f" x1="26.67" x2="38.819" y1="30.591" y2="32.745" gradientUnits="userSpaceOnUse" gradientTransform="translate(-.235 -.875)"><stop offset="0" stop-color="#A2B0BE"/><stop offset=".348" stop-color="#CAD4D4"/><stop offset=".528" stop-color="#CAD4D4"/><stop offset="1" stop-color="#97A6B3"/></linearGradient><radialGradient id="g" cx="34.716" cy="10.321" r="13.534" gradientUnits="userSpaceOnUse" fy="10.321" fx="34.716" gradientTransform="translate(-.235 -.875)"><stop offset="0" stop-color="#DAE1E2"/><stop offset="1" stop-color="#A2B0BE"/></radialGradient><radialGradient id="h" cx="-116.893" cy="-9.328" r="11.499" gradientUnits="userSpaceOnUse" gradientTransform="matrix(1.418 .25 -.174 .985 200.313 48.468)" fy="-9.328" fx="-116.893"><stop offset="0" stop-color="#fff"/><stop offset=".528" stop-color="#D0E0E6"/><stop offset="1" stop-color="#99ABBF"/></radialGradient><radialGradient id="i" cx="450.591" cy="-33.008" r="12.85" gradientUnits="userSpaceOnUse" gradientTransform="matrix(.755 -.839 .341 .307 -324.716 404.014)" fy="-33.008" fx="450.591"><stop offset="0" stop-color="#fff"/><stop offset=".528" stop-color="#D0E0E6"/><stop offset="1" stop-color="#99ABBF"/></radialGradient></defs><g><path fill="url(#a)" d="M37.66 39.3c0-1.3-7.46-2.36-16.65-2.36-5 0-19.63 1.06-19.63 2.37 0 1.3 15.18 2.37 22.18 2.37 9.2 0 14.1-1.06 14.1-2.36z"/><path fill="url(#b)" stroke="#3d444c" stroke-width=".8" d="M3.9 30.85c-4.07-3.65-3.85-10.5.48-15.32 4.33-4.8 11.13-5.73 15.2-2.07"/><path fill="url(#c)" stroke="#707d8c" stroke-width=".7" d="M9.87 20.5C5.57 25.35 2.95 30.03 4 30.96c1.05.93 5.16-2.45 9.45-7.3 4.3-4.82 7.15-9.27 6.1-10.2-1.06-.94-5.4 2.23-9.68 7.06z"/><path fill="none" stroke="#3d444c" stroke-width=".8" d="M4 30.95c1.05.93 5.16-2.45 9.45-7.3 4.3-4.82 7.15-9.27 6.1-10.2"/><path fill="url(#d)" stroke="#3d444c" stroke-width=".8" d="M29.2 29L16.56 18.15c-.7-.63-3.12.93-5.38 3.48-2.27 2.55-3.53 5.12-2.82 5.75L21 38.24"/><path fill="url(#e)" stroke="#707d8c" stroke-width=".7" d="M23.7 32.36c-2.27 2.56-3.47 5.2-2.7 5.88.8.7 3.25-.82 5.52-3.37 2.26-2.55 3.47-5.18 2.7-5.87-.8-.7-3.26.82-5.53 3.36z"/><path fill="none" stroke="#3d444c" stroke-width=".8" d="M21 38.24c.8.7 3.26-.82 5.52-3.37C28.8 32.32 30 29.7 29.22 29"/><path fill="url(#f)" stroke="#3d444c" stroke-width=".8" d="M40.2 23.55l-2.7 13.87c-.5 1.6-3.28 2.4-6.4 1.8-3.07-.6-5.36-2.36-5.26-4l2.1-13.9"/><path fill="url(#g)" stroke="#3d444c" stroke-width=".8" d="M22.58 15.55c.88-4.58 7.15-7.53 13.93-6.23 6.8 1.3 11.57 6.07 10.7 10.65-.56 2.9-6.57 4.5-13.35 3.2-6.78-1.3-11.82-4.72-11.27-7.62z"/><path fill="url(#h)" d="M44.07 15.98c-.45 2.58-4.65 4-9.37 3.16-4.73-.83-8.2-3.6-7.73-6.17.45-2.58 4.65-4 9.37-3.16 4.73.85 8.2 3.6 7.73 6.18z"/><path fill="url(#i)" d="M11.22 12.6c.9.8-1.7 2.44-4.22 5.23-2.5 2.8-4 5.7-4.88 4.9-.9-.8.15-4 2.66-6.8 2.52-2.78 5.55-4.13 6.44-3.33z"/></g></svg>