<svg xmlns="http://www.w3.org/2000/svg" width="48" height="48" xmlns:xlink="http://www.w3.org/1999/xlink"><defs><linearGradient id="d"><stop offset="0" stop-opacity=".468"/><stop offset="1" stop-color="#2e3436" stop-opacity="0"/></linearGradient><linearGradient id="c"><stop offset="0" stop-color="#4d879a"/><stop offset="1" stop-color="#4d879a" stop-opacity="0"/></linearGradient><linearGradient id="a"><stop offset="0" stop-color="#4c5c6b"/><stop offset="1" stop-color="#6d8297"/></linearGradient><linearGradient id="f" x1="17.584" x2="19.341" y1="29.253" y2="29.304" xlink:href="#a" gradientUnits="userSpaceOnUse"/><linearGradient id="g" x1="19.958" x2="23.785" y1="29.556" y2="29.455" xlink:href="#b" gradientUnits="userSpaceOnUse"/><linearGradient id="b"><stop offset="0" stop-color="#4c5c6b"/><stop offset="1" stop-color="#6d8297"/></linearGradient><linearGradient x1="17.584" x2="19.341" y1="29.253" y2="29.304" gradientTransform="translate(-17.584 -21.036)" gradientUnits="userSpaceOnUse" xlink:href="#b"/><linearGradient id="h" x1="21.365" x2="21.415" y1="14.993" y2="18.377" xlink:href="#c" gradientUnits="userSpaceOnUse"/><radialGradient id="e" cx="22.036" cy="45.036" r="10.679" xlink:href="#d" fx="22.036" fy="45.036" gradientTransform="matrix(1 0 0 .284 0 32.233)" gradientUnits="userSpaceOnUse"/></defs><g><path fill="url(#e)" d="M32.7 45.04a10.68 3.04 0 1 1-21.34 0 10.68 3.04 0 1 1 21.35 0z" color="#000" overflow="visible" enable-background="accumulate"/><path fill="#8f5902" stroke="#5d3a01" stroke-width=".49851999999999996" d="M25.7 6a1.27 1.63 21.73 1 1-2.37-.93A1.27 1.63 21.73 1 1 25.7 6z" color="#000" overflow="visible" enable-background="accumulate"/><path fill="#e9b96e" stroke="#c17d11" stroke-width=".5" d="M26.64 13.75l3.15 3.03c.73 1.63 2.14 2.7 3.24 4l-.98 2.03.33.28.42-.24.22-.55.46.02 1.16 1 .64.96.37.24.15-.24-.7-1.06.53.5.3.47.6.54.25-.2-.63-.77.78.68.22-.2-.6-.63.42.26.1-.2-.68-.7-.74-.9-1.27-1.1-.4-.53c-.9-1.7-1.47-3.82-2.88-4.85l-3-3.15-1.22.3z" color="#000" overflow="visible" enable-background="accumulate"/><path fill="#e9b96e" stroke="#c17d11" stroke-width=".5" d="M17.4 11.8l-1.6 2.06c-1.94.92-2.95 2.16-4.25 3.3l-.7.5-1.38.96-.37.1-.45.6-.48.36-.7.6-.3.23.3.2.23-.15.34-.06.37-.14.53-.68.5-.1-.26.17-.26.1.14.2.76-.17.47-.52.65-.35.56-.5.3-.5c1.36-.84 2.66-1 4.12-2.04l3.3-3.1z" color="#000" overflow="visible" enable-background="accumulate"/><path fill="#5a98ac" stroke="#467b8c" stroke-width=".5" d="M17.18 11.57l1.56-1.7.6-.36 3.4-.36 3.3.95c1.2.66 1.7 1.62 2.37 2.5-.74.05-1.5.67-1.6 1.46l-1.1-.9c.16.16-1.64 4.46-1.92 6.46-.07.54.48 1.58.48 1.58s-2.46 1-3.62.93c-.97-.06-1.73-.93-1.73-.93.4-1.68.25-3.36-.3-5.04-.58-.2-1.04-1.44-.58-2.36l.5-.7c-.6-.04-1.43-.84-1.34-1.53z" color="#000" overflow="visible" enable-background="accumulate"/><path fill="#e9b96e" stroke="#c17d11" stroke-width=".5" d="M23.3 7c-.16 1.2.13 2.12 1.1 2.58-1.07.48-2.34.97-2.9.9-.72-.1-.82-1.17-.53-1.1.36-.02.3-.33.22-.65z" color="#000" overflow="visible" enable-background="accumulate"/><path fill="#e9b96e" stroke="#c17d11" stroke-width=".5" d="M19.44 2.6c-.6 1-.36 1.74-.27 2.5-.53 1.14 0 2.03.5 2.92 0 0 .4.74.75.86.4.12 2.22-.73 3.03-1.53.7-.98.9-2.2 1.2-3.34L21.5 1.2l-1.38.5z" color="#000" overflow="visible" enable-background="accumulate"/><path fill="#e9b96e" stroke="#c17d11" stroke-width=".5" d="M22.57 39.6l1.15 4.26-.24 1.13 1.14.47.52-.63-.28-.98.4-5z" color="#000" overflow="visible" enable-background="accumulate"/><path fill="#e9b96e" stroke="#c17d11" stroke-width=".5" d="M18.9 38.65c0 .08 1 4.46 1 4.46l-.2.94.77.7.9.03-.08-.86-.23-.97.1-4.74z" color="#000" overflow="visible" enable-background="accumulate"/><path fill="#fff" stroke="#d3d7cf" stroke-width=".578" d="M21.08 47.08l-.04.6c.97.35 1.94.3 2.9-.24.42-.3.87-.58 1.38-.78l-.03-.73z" color="#000" overflow="visible" enable-background="accumulate"/><path fill="#8f5902" stroke="#5d3a01" stroke-width=".5" d="M19.3 2.57l.48-.52c.78.4 1.84-.12 2.4.28 1.04.76 1.65 1.86 1.8 2.97.3-.43.6-.86 1.07-.5.53-1.16.48-2.9-1.2-3.82-1.47-.8-3.56-.72-4.56 1.6z"/><path fill="#e9b96e" d="M23.97 5.3c.47-.54 1.08-.77 1.3-.28.1.24-.35 1.4-.6 1.53-.35.18-.64 0-.85-.33z" color="#000" overflow="visible" enable-background="accumulate"/><path fill="#a4b1be" stroke="#526578" stroke-width=".5" d="M18.37 35.8l-.24.36.02.56.37 2c.5.5.98.57 1.48.5.47-.08 1.14-.3 1.42-.83l-.15-2.74-.4-.37z" color="#000" overflow="visible" enable-background="accumulate"/><path fill="url(#f)" stroke="#526578" stroke-width=".5" d="M18.97 21.3c-.16.28-.37.54-.25 1-.77 1.1-.94 4.8-.87 7.2.04 1.32.4 3.9.4 3.9s-.08.8-.03 1.18c.03.25.2.73.2.73-.08.42-.14.8-.1 1.1.13.66.88.84 1.3.82.73-.04 1.5-.8 1.5-1.43-.23-.77-.45-1.54-.67-2.3.44-1.45.7-2.7.97-4l.5-4.62-1.7-2.8c-.47-.13-.9-.37-1.25-.8z" color="#000" overflow="visible" enable-background="accumulate"/><path fill="#fff" stroke="#d3d7cf" stroke-width=".578" d="M16.74 45.8l-.04.67c2.2.6 2.84-.3 4.8-.94l-.02-.6z" color="#000" overflow="visible" enable-background="accumulate"/><path fill="#a4b1be" stroke="#526578" stroke-width=".5" d="M22.1 36.7c-.16.22-.22.43-.2.67l.3 2.18c1.2.88 3.1-.1 3.38-.8l-.1-2.38c-.04-.24-.2-.3-.37-.36z" color="#000" overflow="visible" enable-background="accumulate"/><path fill="url(#g)" stroke="#526578" stroke-width=".5" d="M20.23 22.1l4.14-.9c.2.34.3.68.2 1.02 1.4 1.64.76 5.35.5 7.6l-.77 4.28c.1.8.77 1.18 1.04 2.32.08.57-.8 1.23-1.67 1.38-.63.12-1.5-.04-1.62-.4-.15-.55.08-1.5-.17-2.02l.08-1.52c-.37-2.33-.72-4.68-.76-7.18l-.93-1.32c-.15-.6-.14-1.34-.06-2.13-.13-.34-.06-.74.03-1.14z" color="#000" overflow="visible" enable-background="accumulate"/><path fill="#555753" stroke="#2e3436" stroke-width=".578" d="M21.06 46.55c0-.25 1.06-.75 1.06-.75.32-.43.68-.78 1.05-1.08.3-.35.68-.2.86.02.4.2.75.55 1.13-.07.2.26.2.58.07.94 0 0-1.27 1.03-2.05 1.2-.7.14-2.1.2-2.12-.25z" color="#000" overflow="visible" enable-background="accumulate"/><path fill="#555753" stroke="#2e3436" stroke-width=".578" d="M16.83 45.38c0-.2.87-.64 1.32-.83l1.2-1c.3-.28.65 0 .7.18.36.06.6.43 1.2.1.26.24.2.65.25.9-1.37.25-2.2.95-3.05 1.1-.47.08-1.6-.03-1.62-.45z" color="#000" overflow="visible" enable-background="accumulate"/><path fill="url(#h)" d="M17.83 14.56s1.64.88 2.68.97c1.3.1 3.8-.7 3.8-.7l-1.62 3.42-3.54.1-.5-2.17-.8-.9z"/></g></svg>