<svg xmlns="http://www.w3.org/2000/svg" width="48" height="48"><g><g><path fill="#cbcbcb" d="M23.2 47.75c-2.6-.78-.26-3.1 1.06-3.95 1.46-1.02 1.35-3 .92-4.45-.33-1.3-1.74-2.27-.9-3.63.6-1.73.82-3.56 1.07-5.3 1.07-1.95-2.57-3.47-2.92-1-.83 3.38.37 6.8.04 10.22 1.1 1.58 2.85 4.25-.12 5-.9 1.92-5.35 2.45-4.45-.35 1.76-1.36 4.03-2.87 3.17-5.27-.9-1.82-1.94-3.7-1.34-5.73.47-2.67.4-5.37.52-8.05.22-1.9 2.27-3.8.53-5.65-1.42-1.65-1.32 1.88-1.86 2.73-.67 2.27-1.07 4.62-1.85 6.86-1.18 1.77-3.24-.43-2-1.74.57-2.23 2.4-4.1 2.5-6.46.5-2.4 1-4.83 1.76-7.2-.17-1.6-.83-5.14 2.12-4.63.56.44 2.8 1.88 2.24.53-3-1.3-3.97-5-2.56-7.56 1.6-2.65 6.55-3.2 8.45-.54 1.16 1.7.6 3.85-.46 5.45-1.8.8-4.22 3.32-1.4 4.4 1.57-.53 4-1.73 4.54.58.06 2.2-.65 4.37.4 6.52.48 2.72-.24 5.46-.13 8.2.02 1.7.36 3.37.15 5.07.62 1.43-2.2 3.62-1.84 1.24-.03-.5-.77-1.6-1.2-.7-.2-2.18 2.14-4.1 1.17-6.28-.08-3.2.1-6.46-.76-9.6-1.43.24-1.63 2.2-2.7 3.07-.96 1.86-.25 4.1 1.27 5.57-.1 2.32-.67 4.62-1.2 6.88-1.06 2.06-.2 4.2-.33 6.3-.25 1.68-.5 3.8 1.28 4.92 1.3 1.97-1.88 2.52-2.73 3.8-.57.66-1.53 1.2-2.44.73zM20.63 16.9c-.57.1.6.38 0 0z"/><path fill="#b6b6b6" d="M23.2 47.67c-2.57-.8-.1-3.05 1.17-3.9 1.9-1.17 1.36-3.48.5-5.06-1.3-1.88-.08-4 .14-6-.1-1.44 1.57-4.6-1.03-4.75-2.68.8-1.7 3.83-1.9 5.75.68 2.4-.28 5.1 1.04 7.26 1.37 1.27 1.26 3.1-.68 3.65-.9 2-5.7 2.07-4.4-.53 1.56-1.16 3.8-2.22 3.25-4.4-.28-1.95-2.4-3.63-1.63-5.7.86-3.53.34-7.18 1.02-10.72 2.17-.5.8-4.98-.9-3.76-.85 2.45-1.63 4.94-2.02 7.5-.08 1.23-1.86 4.1-2.73 1.77-.26-2.32 1.93-4.08 2.3-6.3.63-2.57 1.06-5.18 1.86-7.73.9-1.78-1.28-4.63 1.45-5.47 1.48-.8 2.47 1.82 3.36.83-1.3-1.3-3.1-2.4-3.3-4.3-.7-2.54 1.16-5.5 4.2-5.86 2.63-.44 5.8 1.5 5.3 4.06-.24 2.2-1.8 4.2-3.94 5.27-.7 2.33 2.73 2.34 4.4 1.75 2.67-.32 1.18 3.34 1.3 4.76.65 2.5 1.25 5.1.6 7.66-.26 3.3.53 6.67-.13 9.93-1.1 1.6-1.9-.44-1.5-1.33-.8-.25-1.93.24-1-.87 1-2.17 1.3-4.55 1-6.86-.06-2.68-.02-5.4-.83-8.02-1.34-.44-1.33 2.1-2.32 2.66-1.4 1.9-1.34 4.3.6 5.82.56 2-.4 4.03-.78 6-.75 2.56-.74 5.2-.65 7.83-.04 1.73.07 3.66 1.45 5.02.5 2.1-2.76 2.74-3.84 4.15-.44.1-.9.03-1.32-.1zm1.05-.56c-.33-.68-.6.57 0 0zm-4.4-1.5c-.28-.7-.52.6 0 0zm5.88-8.9c.14-1.18-1.1.5 0 0zM21 35.32c.4-1.07-1.1.35 0 0zm9.93-4.9c-.17-.33-.17.35 0 0zm.86-1.66c-.02-.57-.45.37 0 0zm-4.6-1c.07-.74-.45.47 0 0zm-9.78-2.62c-.38-.48-.3.48 0 0zm8.75-.05c-.27-.24-.17.33 0 0zm5.7-2.78c-.14-2-.2 2.04 0 0zm-7.73-1.27c-.15-.4-.2.32 0 0zm7.92-.83c.23-.82-.74.4 0 0zm-7.17-2.14c-.2-1.04-.13.8 0 0zm-5.37-.44c.22-.82-.85.3 0 0zm1.23-.55c-.04-.96-.5.35 0 0zm4.5-.86c1.23-.34 1.54-2.54-.08-1.1-.32.25-1 1.74.07 1.1zm5.6-1.9c-.3-.63-.24.5 0 0zm-.26-1.7c.08-1.8-1.56.74 0 0zm-5.32-1.38c-.52-.6-.38.7 0 0zm-4.1-.5c-.45-.92-.7.66 0 0zm4.14-.85c-.6-.66.14 1.02 0 0zM26 5.4c1.43-.3-.75-2.46-.18-.76-.62.2-.28 1.87.18.76zm-1.38-.78c-.2-.9-.74.62 0 0zm-2.6-.36c-.12-.9-.78.55 0 0z"/><path fill="#ababab" d="M23.4 47.66c-3.16-.93.45-3.44 1.67-4.4 1.03-1.97.3-4.27-.88-6.06.17-2.17 1.1-4.25 1.17-6.43 1.57-2.18-3.17-4.24-3-1.16-.3 2.08-.62 4.17-.07 6.23.34 2.18-.18 4.3 1.5 6.14.92 2.2-2.3 3.36-4.06 4.1-2.68.42-1.96-2.6-.1-3.14 1.84-.93 2.1-3.03 1.2-4.6-.77-1.5-1.9-3.22-1-4.9.64-2.43.07-4.95.53-7.4-.82-2.17 2.8-4.2.57-6.25-.17-1-1.1-1.88-1.22-.3-.94 2.76-1.8 5.58-2.17 8.45-.36 2.06-3.3 1.96-2.42-.24.5-2.23 2.35-4.05 2.5-6.36.44-2.3.83-4.64 1.8-6.83.28-1.7-1.28-5.32 1.87-5.27.72.5 2.9 2.1 2.38.35-3.74-1.6-4.26-6.86-.77-8.92 2.2-1.53 5.86-.8 6.86 1.6 1.1 2.04 0 4.5-2 5.77-2.4.92-1.44 4.5 1.3 3.34 1.8-1.27 3.86.07 3 1.96-.48 1.93.25 3.78.56 5.66.5 3.1-.57 6.23-.06 9.35.1 1.78.4 3.75-.56 5.38-1.26.7-1.24-2.57-2.24-2.22 1.25-2.15 1.48-4.63 1.14-7-.05-3 .08-6.08-1.1-8.93-1.23 2.15-3.12 4.2-3.1 6.74 1.05 1.75 2.53 3.5 1.54 5.56-.5 3.06-1.9 6.07-1.28 9.2.1 2.14-.64 4.66 1.22 6.38 1.36 2.04-2.73 2.48-3.24 4.16-.48.2-1.04.17-1.55.06zm1.17-.5c-.28-1.46-2.32.9-.35.2l.18-.1.17-.1zm-4.47-1.42c.32-1.44-2.15.86-.1.05l.1-.06zm5.23-.64c.02-1.2-.75.78 0 0zm1.2-1.16c-.33-.73-.17.4 0 0zm-5.56-.2c.6-.9-.86.45 0 0zm1.26-1.24c-.43-.45.1.5 0 0zm3.72-5.58c.82-2.1-2.35.53 0 0zm-4.7-1.42c.7-2.35-2.3.84 0 0zm4.88-1.92c.04-1.8 1.68-4.7.85-5.77-1.44 2.2-.57 4.82-1.37 7.15-.1 1.33.58-1.23.53-1.37zm-5.16.67c.1-2.48 1.3-4.93.62-7.4-1.06 2.35-.5 4.96-.88 7.4.05.07.24.15.25 0zm10.43-1.3c-.5-.2.27.47 0 0zm.04-1.16c.56-1.3-.4-.62-.15.25h.03l.1-.26zm-1.32-.3c2-1.48-1.16-.3 0 0zm1.6-1.74c-1.2-.47.68 1.1 0 0zm.25-.85c.2-1.42-1.38.62 0 0zm-16.32-1.23c-.42.38.36.77 0 0zm16.2.4c0-2.36.57-4.73.02-7.06-1.08 2.27-.16 4.73-.4 7.08l.2.03.2-.04zm-4.8-1.4c-.3-1.2-.98 1.14 0 0zm-10.88.18c.62-.97-1.1.13 0 0zm10.22-.68c2.25-1.6-3.68-1.47-1 .33.34.23.84 0 1-.33zM16.5 26c.03-.72-.67.3 0 0zm1.1-.82c-.56-1.5-.7 1.2 0 0zm.26-1.57c-.08-1.47 1.85-3.1.93-4.42-.52 1.33-1.46 4.32-1.03 4.74l.1-.3zm7.3.56c1.93-1.4-2.7-2.3-1.17-.18.25.3.8.46 1.15.18zm-.93-2.9c.3-1.38-1.32.3 0 0zm8.04-.88c.13-1.96-1.74.8 0 0zm-7.17-1.14c1.16-1.1-2.1-1.86-.6-.22.1.24.52.93.6.22zm6.7.2c-.67-1.4.6-3.9-1.18-4.65-.07 1.6.34 3.22 1.2 4.64zm-12.1-1.6c.42-1.7-1.63.47 0 0zm1.1-.65c.18-1.26-.93.27 0 0zm4.57-.46c.94-.87 3.38-3.57.53-3.5-1.87.16-4.12 3.5-1.16 3.63.22-.02.42-.08.63-.13zm5.5-3.82c1.27-2.1-3.2.06-.33.02.1 0 .22 0 .33-.02zm.92-.87c-.56-1.3-.04 1.16 0 0zm-6.35-.63c.07-1.64-1.38.85 0 0zm-4.86-.27c-.23-.36-.2.36 0 0zm.7-.26c.4-1.82-1.7.7 0 0zm4.14-.53c1.33-1.7-1.62-.06 0 0zm0-3.45c1.3-1 1.98-4.76-.74-4 2.03 1.05.23 2.94-.8 3.5.15.64 1.26 1.74 1.55.5zm-.65-2.1c.55-1.9-1.72.5 0 0zm-2.6-.36c.5-2.12-1.73.68 0 0z"/><path fill="#a3a3a3" d="M23.2 47.6c-2.88-.88.4-3.2 1.67-3.96 1.68-2.06.24-4.43-.5-6.47-.24-2.17 1.1-4.22.84-6.4 1.16-1.7-.6-4.18-2.55-2.2-.94 2.17-.63 4.63-.36 6.9.04 2.38-.14 4.87 1.64 6.86.5 2-2.8 2.25-3.68 3.84-1.7.8-3.4-1.94-1.42-2.66 1.63-.38 2.34-1.98 2.4-3.36.14-1.47-.75-2.75-1.47-4-.68-2.32.93-4.6.54-6.95.13-2.32-.53-5 1.34-6.9.8-1.2-1.06-3.6-1.62-3.55-1.48 3.24-1.9 6.75-2.94 10.1-.94 1.84-2.97-.1-1.8-1.42.56-2.27 2.36-4.2 2.43-6.6.4-2.28 1.2-4.5 1.74-6.73.05-1.5-1.02-5.06 1.68-4.8.7.48 3.42 1.86 2.46.18-2.86-1.38-3.68-5-2.24-7.47 1.72-2.43 6.56-2.93 8.24-.2 1.4 2.52-.24 5.6-2.8 6.98-1.9 1.94 1.95 3.92 3.43 2 2.8-.3 1.87 3.03 1.7 4.52.15 2.46 1.17 4.87.7 7.36-.24 2.4-.32 4.8.06 7.2-.06 1.13.2 4.14-1.37 3.86-.34-1.07 1.2-3.4.15-3.56.4 1.24-2.3 2.1-1.17.32 1.37-2.98.43-6.24.6-9.35-.08-1.9-.32-3.85-1.1-5.65-1.13 2.32-3.36 4.43-3.1 7.12 1.22 1.43 2.37 2.9 1.6 4.8-.47 3.1-1.74 6.12-1.34 9.28.05 1.45.07 2.92-.2 4.36.84 1.38 2.88 4.14.07 4.73-1.3.4-1.77 2.82-3.6 1.82zm1.5-.34c.94-1.85-3.73-.08-.94.2.33.05.72.05.95-.2zm-4.45-1.45c1.45-1.7-3.27-.1-.67.2l.35-.05.32-.14zm5.07-.57c0-1.65-2.14.9-.17.22.06-.07.12-.15.17-.22zm1.32-1.53c-.1-1.28-.37 1.12 0 .05v-.05zm-5.6 0c-.5-1.77-1.65 1.46 0 0zm1.24-1.6c-1.33.56.9 1.2 0 0zm3.6-4.9c.55-2.74.5-5.62 1.77-8.2.4-2.13-2.43-.8-1.58.6-.45 2.28-.24 4.88-1.36 6.87-.02.53.6 1.1 1.2.72zm-4.56-1.46c-.1-2.4.16-4.8.9-7.12.1-1.7-1.75-1.9-1.38 0-.14 2.3-.16 4.63-.68 6.87.15.4.8.4 1.16.24zm8.78-4.13c1.5-.2.2-1.96-.15-.38-.13.13-.26.74.15.4zM32.05 29c-.18-2.58.25-5.15.18-7.73-2.37 1.3 0 3.88-.86 5.7-.2.67-.6 2.07.68 2.03zm-16.3-1c1.07-1.03-.54-1.48-.3-.1-.03.4.4.7.3.1zM27 27.02c1.65-1.14-1.7-.27-.37 0H27zm-1.32-.42c2.98-.37-.36-3.3-1.5-1.23-1.02.6.88 1.66 1.5 1.23zM16.6 26c-.16-1.1-.94.62 0 0zm1.07-.6c.08-2.43 1.67-4.6 1.68-7.03-2.05 1.74-1.05 4.6-2.53 6.6-.2.4.57.86.85.42zm7.28-1c2.3-.62-1.4-5.02-1.22-1.97-.23.83-.42 2.7 1.22 1.98zm7.23-3.8c-.28-2.14-.25-4.4-1.3-6.38-1.5 1.85.73 4.03.6 6l.3.26.4.12zm-7.55-.35c3.06-1.22-2.8-4.73-1.93-1.4.3.7 1.04 1.33 1.93 1.4zm-4.92-2.27c.18-.8.38-3.27.16-2.85-.05.85-1.63 2.4-.15 2.85zm1.1-.77c.17-1.2-.9.25 0 0zm5.37-.25c0-1.4 2.95-4.54-.37-4.24-2 .02-4.6 2.7-2.38 4.04.8.35 2.03 1 2.75.2zm4.72-3.75c1.6-2.54-3.9-.27-.32.06l.3-.06zm1-.75c-.28-1.33-.8-.6-.2.34l.07-.02.13-.33zm-11.54-.78c1.95-.12.32-3.07-.42-.9-.14.34-.17.97.42.9zm5.1-.2c.58-1-.68-2.48-.76-.66-.3.58.08 1.1.75.68zm-.6-3.6c.92-1.54 3.36-4.48.72-5.6-2.14-.3-3.07 2-2.83 3.55.13.92.7 2.52 2.12 2.06zM23.8 5.63c-3-1.46 3.32-3.43 1.7-.5-.33.48-1.1.8-1.7.5zm.88-.54c1.95-2.04-2.87-.75 0 0zm-2.37-.5c.96-2.8-2.82.5 0 0zm8.72 28.92c.15-.22-.05.43 0 0zm-.1-.77c-.46-.6.5-.43 0 0z"/><path fill="#979797" d="M23.3 47.6c-3-.53.64-4.02 2.13-2.17.6-.65-2-2.25.07-1.7.53.87 1.84 1.28 1.23-.1-1-1.8-1.52-3.72-2.12-5.63-.85-2.37.55-4.6.76-6.96 1.2-1.97-1.7-4.6-3-1.96-.77 2.37-.24 4.88-.07 7.3.35 1.6-.28 3.42.96 4.8 1.72 1.7.02 3.78-2.32 3.35-1.13-.14-2.72.83-2.6 1.28-2-1.45 1.48-2.9 2.78-2.07-.14-.57-1.6-2.08.16-1.37.84 1.3 1.6.77 1.05-.48-1.25-1.58-1.4-3.37-2.25-5.07-1.16-2.03.32-4.03.1-6.13.07-2.1.16-4.2.34-6.3 1.3-1.8 1.75-4.34-.2-5.9-1.1 1.1-1.1 2.96-1.73 4.37-.6 1.98-.76 4.07-1.62 5.97-1.53 2.2-2.63-.9-1.4-2 1.5-1.67 1.24-3.88 2.23-5.77.44-1.78.64-3.6 1.2-5.36.5-1.73.54-3.55.3-5.3.56-2.67 4.12.98 4.63-.4-.9-1.44-3.2-2.04-3.12-4.05-.57-2.35.7-5.3 3.6-5.82 2.38-.57 5.62.7 5.67 3.15.14 2.45-1.55 4.8-3.9 6-.75 2.24 2.67 2.6 4.32 1.88 2.05-.78 1.75 2.4 1.36 3.57-.5 1.84 1.05 3.42.84 5.27 0 2.5-.47 5.02-.24 7.54-.02 1.76.32 3.55-.05 5.27-.27 1.32-1.33.98-.7-.22.42-2.15-1.3-4.15-.67-6.33.04-2.84-.2-5.68-.47-8.5.13-.9-.95-2.78-1.5-.96-1.16 2.07-3.6 4.54-1.6 6.82 1.4 1.7 1.03 3.72.48 5.6-.42 2-.96 3.98-1.4 5.98 1.3 2.23-.37 4.77.58 7.06 2.56 1.04.72 4.6-1.85 3.78-1.27-.33-3.96 1.1-1.45 1.5 1-.3 2.54-.53.67.1-.4.04-.8.03-1.2 0zm2.8-10.3c.3-2.23.28-4.52 1.16-6.66.84-1.87-.18-4 .4-5.56-1.33-1.9-2.62 1.34-4.28.2-.8-.42-2.46-1.02-1.05.26 1.2 1.2 4.6 1.25 3.6 3.43-.34 2.36-.4 4.77-1.2 7.04-.3.87.25 1.78 1.37 1.3zm-4.78-1.35c.6-2.22-.3-4.63.94-6.74.72-1.68-1.77-3.3-1.64-.83-.13 1.9.37 3.94-.6 5.73-.27.76 0 2.3 1.3 1.85zm-5.8-6.1c.06-.38-.3.28 0 0zm.13-.6c-.74-.06.24.6 0 0zm16.58-.35c-.25-4.07.5-8.2-.4-12.2.46-1.18-1.3-3.74-1.63-1.4.32 2.24 1.44 4.4 1.07 6.7.04 2.32-.27 4.7-.05 6.96.2.4.8.22 1-.06zm-16.17-.57c.3-.75-.2-2.55-.57-.84-.23.5-.23 2.13.56.83zm.2-.9c-.12-.4-.3.68 0 0zm1.38-1.9c.44-2.44 1.6-4.7 1.93-7.16 1.03-1.8.38-3.85.44-5.76-.7 3.9-1.84 7.7-2.9 11.5-.04.45-.6 2.08.54 1.42zm7.18-.98c2.56-1.2-1.5-5.64-2.3-2.85-.26 1.26.22 3.73 2.3 2.85zm.36-3.82c1.7-1.9-1.75-4.8-3.77-3.16.14 1.73 2.1 2.73 3.78 3.16zm-4.35-3.47c.23-1.34-1.14.2 0 0zm5.56-.58c-.18-1.6 3.23-4.45-.38-4.6-2.25-.3-4.83 1.3-4.62 3.46.86 1.3 3.8 2.5 4.97 1.22l.02-.08zm4.52-3.22c2.2-1.58-3.06-2.64-1.65-.43.27.55 1.1.6 1.65.43zm1-.58c.73-.96-1.6-2-.4-.5.04.17.18 1.2.4.5zm-11.4-1.3c2.52-.02-.2-3.48-.74-1-.1.4-.05 1.58.73 1zm4.8 0c1.82-.8-1.08-2.92-1.13-.64-.17.54.6 1.06 1.12.65zm-.6-3.32c2.75-.38 1-3.7 2.45-5.1-.32-2.26-4.27-1.56-4.92.18-1.76 1.1.66 3.1.6 4.57.38.54 1.27.78 1.87.36zm-.98-2.73c-2.67-1.4 2.96-3.12 1.82-.63-.24.63-1.17.97-1.82.63zm1.05-.34c2.03-1.23-2.44-1.8-.83-.2l.4.12.42.07zm-4.53 40.76c.93-1.5 1.1.34-.38.14l.37-.14zm10.6-14.5c-.52-1.35 1.44-.6 0 0zm-.7-.9c.02-1 1.34-.48.15.1l-.1.06-.05-.15z"/><path fill="#888" d="M25.54 46.97c.62-.67-.6 1.06 0 0zm-3.6-.1c-1.95-1.17 3.2-2.16.76-1.3-.42.34-.64.82-.76 1.3zm3.48-.96c.9-.9-1.72-2.9.4-1.82.65.5.86 1.93-.4 1.83zm-4.26-.43c.6-.57-.47.85 0 0zm5.87.1c.15-2.35-.6-4.65-.7-7-1.96-.78.25 3.7-.42 2.8-.35-1.94-2.2-3.74-1.35-5.78.53-2.02.82-4.1.88-6.15.95-2.23-3.75-1.96-3.1.17-.25 1.7-.88 3.4-.24 5.1.8 2.27-.6 5.02 1.3 7 2.4.4-1 3.6-.4 1.23-.4-1.82-.6-4.57-1.8-5.68-.64.94.8 3.17.42 3.13-.6-2.32-2.78-4.55-1.7-7.03.66-2.23.08-4.55.4-6.8-.73-2.1 2.2-3.87 1.08-5.9-1.07-.36-.88-3.7-.05-1.7 1.04 1.13 4.94 2.74 4.6.06-.45-2.17-4.7-2.8-5.98-1.18.03 1.2.43-1.53.2-1.97-.1-.8.1-2.6.32-.88.9 2 3.62 2.04 5.58 2.7 2.07.47 2.97-2.88.94-2.54-.28-1.7 2-2.8 3.22-1.45 1.9.32 1.8-2.5 1.38-2.63 1.48 1.97-.7 4.32.4 6.43.27.7 1.14 2.9.37 2.8 0-2.15-.54-4.3-1.2-6.36-2.74.52.33 4.6-.48 4.55 0-1.3-.92-4-1.86-1.52-1.03 1.7-2.4 3.4-2.34 5.42 1.5 1.58 2.5 3.62 1.6 5.66-.4 2.4-1.14 4.74-1.6 7.13 1.4 2.44-.86 5.48 1.17 7.76 1.18.58.94 2.8-.67 2.6zm-1-8.05c1.16-2.16.1-4.73 1.35-6.87.38-1.94 1-4.78.04-6.27-2.18.48-4.72 1.36-6.23-.65 0 1.04 1.72 2.58.17 2.3-1.7 1.55-.57 4.07-1.05 6.1.48 1.3-.95 2.3-.48 3.34 1.8 1.24 2.98-.5 1.83-1.86-.38-2.22 1.22-4.37.6-6.6 2.08-.3 4.83.65 3.33 2.9-.4 2.08-.05 4.3-1.12 6.25-.5.87.6 1.87 1.54 1.37zm-.86-12.98c1.6-1.17.1-3.52-1.63-3.8-2.55.23-1.6 4.35.83 4.05.3 0 .53-.2.8-.26zM17.8 45.5c-2.3-1.3 3.67-2.2.9-1.26-.53.2-1.07.7-.9 1.26zm3.35-1.08c.4-.7-1.12-2.9.67-1.54.44.53.37 1.74-.67 1.54zm10.4-10.24c.43-1.7-.34-3.7.72-5.23.76 1.17.46 3.86-.73 5.23zm-.84-3.1c.16-.67.35.33 0 0zm-15-1.14c.5-.5.54.2 0 0zm15.1-.08c.3-.28.13.35 0 0zm-15.15-.27c.75-1.24 1.37.54 0 0zm15.2-.5c-.22-1.28.44.9 0 0zm-15.12-.16c1.22-.62.5-2.92 2.07-3.36-.22 1.15-.16 3.46-2.07 3.36zm.6-1.92c-.2-1.26.9.04 0 0zm-.92-.2v-.04.05zm16.85-.14c.06-.46.06.46 0 0zM15.5 26.4c.07-.44.58.07 0 0zm.9-1.3c.23-1.22.3.66 0 0zm15.94-.26c.15-.62-.06 1.05 0 0zm-1.3-2.28v.1-.1zm1.4.15c.02-1.15 0 1.3 0 0zm-15.07-.03c-.44-.8.45-.25 0 0zm.2-.83c.1-1.1.2.33 0 0zm1.22 0c-.06-.7.24-.32.05.08l-.06-.08zm.2-.6c.24-1.4.7-1.23 0 0zm-1.2-.34c.43-2.75 1.43-5.4 1.75-8.2-1.78-1.87 1.64-4.73 3-2.16 1.5.64 2.26-1.37.42-1.42-2.16-1.42-2.5-4.15-2-6.34 1.16-3 6.7-3.93 8.54-.97 1.25 2.15.13 4.8-1.76 6.34-3.13.28-.73 5.26 1.4 3.04.66-.75 2.72.27.9.22-1.45.72-4.43 1.5-4.14-.9-.26-1.75-1.48-.52-1.76.43-1.86.82-4.9.8-4.7 3.36-.5 2.2-.8 4.46-1.64 6.6zm2.78-9.28c2.74-.1.24-3.93-.9-1.48-.25.56-.25 2.15.9 1.48zm5.17-2.73c.9-2.4 1-4.96 1.95-7.34-2.08-1.3-4.95-.07-6.12 1.7-1.02 1.2.28 2.85.38 4.17.74 1.1 2.35 2.02 3.8 1.46zm-1.9-3.4c-2.7-1.45 3.17-2.94 1.5-.4-.27.43-1 .74-1.5.4zm1.07-.2c2.27-1.07-2.45-2.4-1.3-.38.17.46.85.6 1.3.38zm6 15.37c-.32-1.57.65.48.03.07l-.04-.07z"/><path fill="#777" d="M25.5 45.8c-.32-2 1.68-.33 0 0zM18 44.2c-.04-.46.83-.25 0 0zm7.44-.04c-1.28-.07.33-.3 0 0zm-4.66-1.5c-1.05-.2 1.48.33 0 0zm6-1.4c.43-.84-.17-4.16-1.5-2.55.43 1.7-1.56-2.93-.47-1.06 1.65.97 2.5-2.3 1.92-1.73.48 1.77-.02 3.6.05 5.37zm-1.05-.32c.16-.22-.04.43 0 0zm-.08-.36c.16-.22-.04.43 0 0zm-.07-.32c.07-.34.07.34 0 0zm-3.33-1.66c1.44-1.16-2.1-2.66-1.6-.95C19.2 36 23 36.32 22.2 34.6c.17 1.32-.14 2.67.05 4zm1.86-2.4c.3-1.04 1.1-.68 0 0zm-4.42-.28c-.86-1.05.63.48 0 0zm-.28-.77c0-.47.63-1.23.2-.3l-.2.3zm12.22-1.05c.58-1.34-.7-3.6.95-4.37-.06 1.48.1 3.12-.95 4.37zm-7.47-6c-.5-1.44 2.78-.1.44 0-.16.03-.3 0-.45 0zm-7.4-.45c.38-.98 1.1.14 0 0zm5.8-.07c.27-.34.17.4 0 0zm5.43-.45c1.24-1.46-.88-3.42-1.82-3.43.74-1.86-1.66-2.95-3.36-3.22-.94.1-2.67-.85-.74-.67 1.6.3 4.35 2.5 5.22.07-.2-.6-1.17-2.57.3-1.4-.15 1.92-2.44 4.53.43 5.76.97.8.3 2-.02 2.9zm-7.06-.9c-1.12-.32.23-2.88-.25-1.06-.06.18 1.08 1.42.25 1.05zm-3.2-.5c.13-.32.14.3 0 0zm5.66-.8c.35-.58.63.64 0 0zm-1.48-1c-1.7-.5.97-3.42.18-1.1-.1.36-.27.73-.18 1.1zm1.1-6.77c-1.3 1.18-3.2-2.04-2.77-1.37.64.83 2.1.58 2.78 1.36zm6.6-2.37c-1.3-.97.83-1.76 0 0zm1.65-1.22c-.1-.56.43.32 0 0zm.77-.5c.38-.6-.65-2.54.24-1.04.05.34.2.84-.24 1.04zm-3.84-.96c-1 .4-2.6-1.95-1.1-.5.8.42 3.05-.74 1.34.55-.08.03-.16-.04-.24-.05zm-8.5-.12c-1.1-.33.13-2.65-.33-.88-.05.25 1.6 1.38.32.88zm1.25-.73c.4-1.14 3.75-.02 1.22-.15-.4.04-.8.13-1.22.15zm9.33-.28c-.62-.6.78.3 0 0zM24.4 9.56c-1.1.45-2.86-1.9-.9-.56.3.1 2.18.2.9.57zm1.3-.2c1.18-1.94 3.82-3.26 3.76-5.7.38-2.6-3.23-3.83-5.55-2.9-1.2.2-2.15 2.5-2.8 2.16.4-2.2 3.48-3.32 5.75-2.8C28.8.5 30.3 2.2 29.95 4c-.2 2.3-1.95 4.36-4.25 5.36zm-4.62-4.22c-.9-.54.23-.38.35 0l-.05.03-.3-.03zm2.22-1c.07-.34.07.33 0 0zm-2.6-.22c-.37-.8.45 0 0 0z"/></g></g></svg>