<svg xmlns="http://www.w3.org/2000/svg" width="48" height="48" xmlns:xlink="http://www.w3.org/1999/xlink" xmlns:sodipodi="http://inkscape.sourceforge.net/DTD/sodipodi-0.dtd" sodipodi:version=".32" sodipodi:docbase="e:\dev_clean\src\houdini\support\icons\obj" sodipodi:docname="sound.svg"><defs><linearGradient id="e"><stop offset="0" stop-color="#fff" stop-opacity=".608"/><stop offset="1" stop-color="#fff" stop-opacity="0"/></linearGradient><linearGradient id="d"><stop offset="0" stop-color="#fff"/><stop offset="1" stop-color="#939393"/></linearGradient><linearGradient id="c"><stop offset="0"/><stop offset="1" stop-opacity="0"/></linearGradient><linearGradient id="b"><stop offset="0" stop-color="#aaa"/><stop offset="1" stop-color="#505050"/></linearGradient><linearGradient id="a"><stop offset="0" stop-color="#adadad"/><stop offset="1" stop-color="#747474"/></linearGradient><radialGradient id="k" cx="16.331" cy="34.834" r="15.231" xlink:href="#a" gradientTransform="scale(1.348 .742)" fx="16.331" fy="34.834" gradientUnits="userSpaceOnUse"/><radialGradient id="j" cx="25.941" cy="41.706" r="26.595" xlink:href="#a" gradientUnits="userSpaceOnUse" gradientTransform="scale(1.348 .742)" fx="25.941" fy="41.706"/><linearGradient id="i" x1="6.884" x2="16.295" y1="56.289" y2="68.767" xlink:href="#b" gradientTransform="matrix(1.701 0 0 .588 -1.375 -7.214)" gradientUnits="userSpaceOnUse"/><linearGradient id="h" x1="5.163" x2="26.172" y1="50.806" y2="50.805" xlink:href="#a" gradientUnits="userSpaceOnUse" gradientTransform="matrix(1.411 0 0 .709 -1.518 -6.857)"/><radialGradient id="g" cx="17.58" cy="47.403" r="16.798" xlink:href="#c" gradientTransform="scale(1.358 .737)" fx="17.58" fy="47.403" gradientUnits="userSpaceOnUse"/><radialGradient id="l" cx="30.873" cy="31.265" r="3.249" xlink:href="#d" gradientTransform="scale(1.288 .777)" fx="30.873" fy="31.265" gradientUnits="userSpaceOnUse"/><radialGradient id="m" cx="30.873" cy="31.265" r="3.249" xlink:href="#d" gradientUnits="userSpaceOnUse" gradientTransform="scale(1.288 .777)" fx="30.873" fy="31.265"/><radialGradient id="n" cx="30.873" cy="31.265" r="3.249" xlink:href="#d" gradientUnits="userSpaceOnUse" gradientTransform="scale(1.288 .777)" fx="30.873" fy="31.265"/><radialGradient id="o" cx="30.873" cy="31.265" r="3.249" xlink:href="#d" gradientUnits="userSpaceOnUse" gradientTransform="scale(1.288 .777)" fx="30.873" fy="31.265"/><linearGradient id="f" x1="5.163" x2="26.172" y1="50.806" y2="50.805" xlink:href="#a" gradientUnits="userSpaceOnUse" gradientTransform="matrix(1.411 0 0 .709 -1.518 -5.016)"/><linearGradient id="p" x1="11.562" x2="30.75" y1="8.081" y2="53.659" xlink:href="#e" gradientTransform="matrix(1.073 0 0 .932 .5 .75)" gradientUnits="userSpaceOnUse"/></defs><sodipodi:namedview pagecolor="#ffffff" bordercolor="#666666" borderopacity=".204" showgrid="false"/><g color="#000"><path fill="url(#f)" fill-rule="evenodd" stroke="#4c4c4c" stroke-width="2" d="M24.06 5.58c-4.18 0-8.07.8-11.3 2.16-.67-.3-1.36-.62-2.23-.62C8.3 7.12 6.5 8.3 6.5 9.77c0 .52.27 1 .66 1.4-2.23 2.05-3.54 4.86-3.54 7.52 0 2 .8 3.7 2.13 5.4-1.3.55-2.2 1.47-2.2 3 0 1.72 2.08 3.1 4.67 3.1.37 0 .7-.1 1.06-.15-.1.37-.22.74-.22 1.12 0 .7 0 1.54 0 2.23 0 4.22 6.83 7.63 15.22 7.63 8.4 0 15.2-3.4 15.2-7.63 0-.7 0-1.53 0-2.23 0-.4-.1-.8-.23-1.2.53.15 1.1.23 1.7.23 2.57 0 4.76-1.38 4.76-3.1 0-1.84-1.35-2.86-3.1-3.3 1.18-1.62 1.87-3.22 1.87-5.1 0-2.45-1.13-5.05-3.03-7 .76-.48 1.25-1.18 1.25-1.93 0-1.47-1.82-2.65-4.04-2.65-1.14 0-2.15.3-2.88.8-3.32-1.46-7.34-2.34-11.72-2.34z" sodipodi:nodetypes="cccccccscccccccccsccccccc" overflow="visible"/><path fill="url(#g)" fill-rule="evenodd" d="M46.67 34.92a22.8 12.37 0 1 1-45.6 0 22.8 12.37 0 1 1 45.6 0z" sodipodi:type="arc" sodipodi:cx="23.865" sodipodi:cy="34.919" sodipodi:rx="22.804" sodipodi:ry="12.374" transform="translate(.332 -.646)" overflow="visible"/><path fill="url(#h)" fill-rule="evenodd" d="M24.3 21.46c-8.4 0-15.22 3.4-15.22 7.62 0 .7 0 3.3 0 4 0 4.2 6.83 7.63 15.2 7.63 8.4 0 15.2-3.4 15.2-7.62 0-.7 0-3.3 0-4 0-4.2-6.8-7.62-15.2-7.62z" sodipodi:nodetypes="ccccccc" overflow="visible"/><path fill="#fff" fill-opacity=".596" fill-rule="evenodd" d="M38.66 28.4a14.3 6 0 1 1-28.57 0 14.3 6 0 1 1 28.56 0z" sodipodi:ry="6" sodipodi:rx="14.286" sodipodi:cy="35.143" sodipodi:cx="24.857" sodipodi:type="arc" overflow="visible"/><path fill="#afafaf" fill-rule="evenodd" d="M38.48 28.14a14.3 6 0 1 1-28.57 0 14.3 6 0 1 1 28.58 0z" sodipodi:type="arc" sodipodi:cx="24.857" sodipodi:cy="35.143" sodipodi:rx="14.286" sodipodi:ry="6" overflow="visible"/><path fill="url(#i)" fill-rule="evenodd" d="M43.48 20.5l-5.7 9.57c-5.87 4.72-19.44 5-26.87.14l-5.7-8.84 38.28-.86z" sodipodi:nodetypes="ccccc" overflow="visible"/><path fill="#737373" fill-rule="evenodd" d="M24.06 6.3C12.8 6.3 3.63 12 3.63 19.07c0 2 .8 3.9 2.12 5.6-1.3.54-2.2 1.46-2.2 2.55 0 1.72 2.08 3.1 4.67 3.1 1.43 0 2.67-.45 3.53-1.12 3.43 1.63 7.67 2.66 12.3 2.66 4.97 0 9.44-1.17 12.98-3 .83.87 2.23 1.47 3.9 1.47 2.6 0 4.7-1.38 4.7-3.1 0-1.3-1.28-2.42-3.04-2.86 1.18-1.62 1.87-3.4 1.87-5.28 0-7.05-9.13-12.75-20.4-12.75z" overflow="visible"/><path fill="#cbcbcb" fill-rule="evenodd" d="M12.92 26.6a4.68 3.1 0 1 1-9.37 0 4.68 3.1 0 1 1 9.37 0z" sodipodi:ry="3.094" sodipodi:rx="4.685" sodipodi:cy="28.82" sodipodi:cx="43.045" sodipodi:type="arc" overflow="visible"/><path fill="#cbcbcb" fill-rule="evenodd" d="M14.55 9.9a4.03 2.66 0 1 1-8.06 0 4.03 2.66 0 1 1 8.05 0z" sodipodi:type="arc" sodipodi:cx="43.045" sodipodi:cy="28.82" sodipodi:rx="4.685" sodipodi:ry="3.094" overflow="visible"/><path fill="#cbcbcb" fill-rule="evenodd" d="M44.48 18.45a20.43 12.77 0 1 1-40.85 0 20.43 12.77 0 1 1 40.85 0z" sodipodi:ry="11.429" sodipodi:rx="18.286" sodipodi:cy="23.714" sodipodi:cx="25.571" sodipodi:type="arc" overflow="visible"/><path fill="#cbcbcb" fill-rule="evenodd" d="M45.63 26.6a4.68 3.1 0 1 1-9.37 0 4.68 3.1 0 1 1 9.37 0z" sodipodi:type="arc" sodipodi:cx="43.045" sodipodi:cy="28.82" sodipodi:rx="4.685" sodipodi:ry="3.094" overflow="visible"/><path fill="#cbcbcb" fill-rule="evenodd" d="M42.68 9.9a4.03 2.66 0 1 1-8.05 0 4.03 2.66 0 1 1 8.05 0z" sodipodi:ry="3.094" sodipodi:rx="4.685" sodipodi:cy="28.82" sodipodi:cx="43.045" sodipodi:type="arc" overflow="visible"/><path fill="url(#j)" fill-rule="evenodd" d="M43.86 23.7a18.3 11.43 0 1 1-36.57 0 18.3 11.43 0 1 1 36.56 0z" sodipodi:type="arc" sodipodi:cx="25.571" sodipodi:cy="23.714" sodipodi:rx="18.286" sodipodi:ry="11.429" transform="translate(-1.518 -5.266)" overflow="visible"/><path fill="url(#k)" fill-rule="evenodd" d="M35.43 28.07a9.2 5.07 0 1 1-18.43 0 9.2 5.07 0 1 1 18.43 0z" sodipodi:type="arc" sodipodi:cx="26.214" sodipodi:cy="28.071" sodipodi:rx="9.214" sodipodi:ry="5.071" transform="matrix(.901 0 0 1.028 .553 -6.002)" overflow="visible"/><path fill="#fff" fill-opacity=".86" fill-rule="evenodd" d="M38.84 11.8C50.4 23.1 25.84 37 8.28 24.12c3.16 3.43 9 5.75 15.78 5.75 10.1 0 18.28-5.13 18.28-11.44 0-2.5-1.32-4.77-3.5-6.65z" sodipodi:nodetypes="ccccc" overflow="visible"/><path fill="url(#l)" fill-rule="evenodd" d="M43.4 25.2a2.78 1.68 0 1 1-5.57 0 2.78 1.68 0 1 1 5.57 0z" sodipodi:type="arc" sodipodi:cx="40.614" sodipodi:cy="25.196" sodipodi:rx="2.784" sodipodi:ry="1.679" transform="matrix(.796 0 0 .948 9.519 3.245)" overflow="visible"/><path fill="url(#m)" fill-rule="evenodd" d="M43.4 25.2a2.78 1.68 0 1 1-5.57 0 2.78 1.68 0 1 1 5.57 0z" transform="matrix(.796 0 0 .948 -24.913 3.245)" sodipodi:ry="1.679" sodipodi:rx="2.784" sodipodi:cy="25.196" sodipodi:cx="40.614" sodipodi:type="arc" overflow="visible"/><path fill="url(#n)" fill-rule="evenodd" d="M43.4 25.2a2.78 1.68 0 1 1-5.57 0 2.78 1.68 0 1 1 5.57 0z" transform="matrix(.673 0 0 .801 12.185 -11.027)" sodipodi:ry="1.679" sodipodi:rx="2.784" sodipodi:cy="25.196" sodipodi:cx="40.614" sodipodi:type="arc" overflow="visible"/><path fill="url(#o)" fill-rule="evenodd" d="M43.4 25.2a2.78 1.68 0 1 1-5.57 0 2.78 1.68 0 1 1 5.57 0z" sodipodi:type="arc" sodipodi:cx="40.614" sodipodi:cy="25.196" sodipodi:rx="2.784" sodipodi:ry="1.679" transform="matrix(.673 0 0 .801 -17.565 -11.027)" overflow="visible"/><path fill="none" stroke="url(#p)" stroke-width=".96" d="M24.08 6.17c-4 0-8 .9-11.1 2.2-.64-.3-1.3-.6-2.14-.6-2.13 0-3.74 1-3.74 2.42 0 .48.38.95.75 1.34C5.72 13.5 4.1 15.86 4.1 18.4c0 1.94 1.13 4.25 2.4 5.88-1.25.53-2.47 1.4-2.47 2.46 0 1.64 2.36 2.97 4.84 2.97.36 0 .7-.1 1.02-.14-.1.36-.22.7-.22 1.08 0 .67 0 1.5 0 2.16 0 4.04 6.56 7.32 14.6 7.32 8.07 0 14.6-3.28 14.6-7.32 0-.67 0-1.5 0-2.16 0-.4-.1-.76-.2-1.14.5.13 1.03.2 1.6.2 2.5 0 4.88-1.32 4.88-2.96 0-1.27-1.6-2.33-3.28-2.76 1.13-1.55 2.05-3.76 2.05-5.57 0-2.33-1.34-4.5-3.16-6.35.72-.47 1.2-1.14 1.2-1.86 0-1.42-1.1-2.44-3.25-2.44-1.1 0-2.06.3-2.76.78-3.2-1.4-7.68-2.37-11.88-2.37z" sodipodi:nodetypes="ccccccccccccccccccccccccc" overflow="visible"/></g></svg>