<svg xmlns="http://www.w3.org/2000/svg" width="48" height="48" xmlns:xlink="http://www.w3.org/1999/xlink"><defs><radialGradient id="d" cx="303.433" cy="311.923" r="15.663" gradientUnits="userSpaceOnUse" gradientTransform="matrix(-1.018 -.037 -.037 1.019 636.227 7.946)" fy="311.923" fx="303.433"><stop offset="0" stop-color="#fff"/><stop offset="1" stop-color="#8794A0"/></radialGradient><radialGradient cx="305.903" cy="314.532" r="28.819" gradientUnits="userSpaceOnUse" gradientTransform="matrix(-.486 -.007 -.007 .458 464.105 175.446)" fy="314.532" fx="305.903"><stop offset=".646" stop-color="#fff"/><stop offset=".927" stop-color="#76828C"/></radialGradient><radialGradient id="e" cx="320.509" cy="314.834" r="8.841" gradientUnits="userSpaceOnUse" fy="314.834" fx="320.509" gradientTransform="matrix(1.071 0 0 1.071 -326.91 -310.688)"><stop offset="0" stop-color="#F17912"/><stop offset=".517" stop-color="#CE5B0B"/><stop offset="1" stop-color="#B34F0A"/></radialGradient><radialGradient id="f" cx="222.807" cy="518.711" r="17.408" gradientUnits="userSpaceOnUse" gradientTransform="matrix(.999 .036 -.036 .999 115.327 -221.934)" fy="518.711" fx="222.807"><stop offset="0" stop-color="#fff"/><stop offset=".146" stop-color="#FAE6C8"/><stop offset=".657" stop-color="#F17912"/><stop offset=".904" stop-color="#FF710E"/><stop offset="1" stop-color="#CE5B0B"/></radialGradient><radialGradient id="g" cx="318.479" cy="304.573" r="29.063" gradientUnits="userSpaceOnUse" fy="304.573" fx="318.479"><stop offset=".006" stop-color="#FAAF3D"/><stop offset=".371" stop-color="#FAE6C8"/><stop offset=".657" stop-color="#F17912"/><stop offset="1" stop-color="#CE5B0B"/></radialGradient><linearGradient id="k" x1="-1542.913" x2="-1529.661" y1="584.922" y2="601.232" gradientTransform="matrix(.789 .615 -.615 .789 1908.824 780.959)" gradientUnits="userSpaceOnUse"><stop offset="0" stop-color="#FAFAFA"/><stop offset=".579" stop-color="#828B99"/><stop offset=".753" stop-color="#858E9C"/><stop offset=".905" stop-color="#8E99A7"/><stop offset="1" stop-color="#98A4B2"/></linearGradient><linearGradient id="a" x1="-1540.149" x2="-1542.628" y1="587.601" y2="586.307" gradientTransform="matrix(.789 .615 -.615 .789 1908.824 780.959)" gradientUnits="userSpaceOnUse"><stop offset="0" stop-color="#EFEEEC"/><stop offset="1" stop-color="#98A7B2"/></linearGradient><linearGradient id="b" x1="-1540.748" x2="-1549.623" y1="587.318" y2="583.04" gradientTransform="matrix(.789 .615 -.615 .789 1908.824 780.959)" gradientUnits="userSpaceOnUse"><stop offset="0" stop-color="#878787"/><stop offset="1" stop-color="#BABDB4"/></linearGradient><linearGradient id="c" x1="-1544.473" x2="-1528.364" y1="588.587" y2="588.161" gradientTransform="matrix(.789 .615 -.615 .789 1908.824 780.959)" gradientUnits="userSpaceOnUse"><stop offset="0" stop-color="#fff"/><stop offset=".105" stop-color="#ECEEF0"/><stop offset=".317" stop-color="#BBC2C8"/><stop offset=".539" stop-color="#828F99"/><stop offset=".8" stop-color="#86939E"/><stop offset="1" stop-color="#8D9BA6"/></linearGradient><linearGradient x1="-1544.473" x2="-1528.364" y1="588.587" y2="588.161" gradientUnits="userSpaceOnUse" gradientTransform="matrix(.789 .615 -.615 .789 1908.824 780.959)"><stop offset="0" stop-color="#fff"/><stop offset=".105" stop-color="#ECEEF0"/><stop offset=".317" stop-color="#BBC2C8"/><stop offset=".539" stop-color="#828F99"/><stop offset=".8" stop-color="#86939E"/><stop offset="1" stop-color="#8D9BA6"/></linearGradient><linearGradient x1="-1540.748" x2="-1549.623" y1="587.318" y2="583.04" gradientUnits="userSpaceOnUse" gradientTransform="matrix(.789 .615 -.615 .789 1908.824 780.959)"><stop offset="0" stop-color="#878787"/><stop offset="1" stop-color="#BABDB4"/></linearGradient><linearGradient x1="-1540.149" x2="-1542.628" y1="587.601" y2="586.307" gradientUnits="userSpaceOnUse" gradientTransform="matrix(.789 .615 -.615 .789 1908.824 780.959)"><stop offset="0" stop-color="#EFEEEC"/><stop offset="1" stop-color="#98A7B2"/></linearGradient><linearGradient id="j" x1="-1540.149" x2="-1542.628" y1="587.601" y2="586.307" xlink:href="#a" gradientUnits="userSpaceOnUse" gradientTransform="matrix(.845 .658 -.658 .845 1716.805 525.459)"/><linearGradient id="i" x1="-1540.748" x2="-1549.623" y1="587.318" y2="583.04" xlink:href="#b" gradientUnits="userSpaceOnUse" gradientTransform="matrix(.845 .658 -.658 .845 1716.805 525.459)"/><linearGradient id="h" x1="-1544.473" x2="-1528.364" y1="588.587" y2="588.161" xlink:href="#c" gradientUnits="userSpaceOnUse" gradientTransform="matrix(.845 .658 -.658 .845 1716.805 525.459)"/></defs><g><g stroke="#2e3436" stroke-width="1.401" transform="matrix(1.071 0 0 1.071 -326.588 -311.009)"><radialGradient cx="303.433" cy="311.923" r="15.663" gradientUnits="userSpaceOnUse" gradientTransform="matrix(-1.018 -.037 -.037 1.019 636.227 7.946)" fy="311.923" fx="303.433"><stop offset="0" stop-color="#fff"/><stop offset="1" stop-color="#8794A0"/></radialGradient><circle cx="319.963" cy="320.383" r="14.23" fill="url(#d)"/></g><g fill="none" stroke="#eeeeec" stroke-opacity=".753" stroke-width="1.02" transform="matrix(.98 0 0 .98 -297.643 -282.097)"><radialGradient cx="303.433" cy="311.923" r="15.663" gradientUnits="userSpaceOnUse" gradientTransform="matrix(-1.018 -.037 -.037 1.019 636.227 7.946)" fy="311.923" fx="303.433"><stop offset="0" stop-color="#fff"/><stop offset="1" stop-color="#8794A0"/></radialGradient><circle cx="319.963" cy="320.383" r="14.23"/></g><path fill="url(#e)" d="M14.6 23.77c0-1.85 1.32-5.98 1.92-6.15.87-.24 1.74.12 3.25.67 1.42.52 10.9 7.76 10.23 9.16-.68 1.4-2.7 3.9-5.2 3.03-2.47-.88-10.2-5.94-10.2-6.73z"/><path fill="none" stroke="#662d06" stroke-width="1.4" d="M22.3 20.8c-1.94-1.7-3.9-10.35-4.78-10.02-2.18.82-1.07 4.12-2.54 8.14-.62 1.65-4.4.46-2.5 3.08 1.93 2.57-1.98 2.6 1.07 3.88 9.65 4.02 1.37 3.36 4.9 4.83 3.96 1.65 2.87-.24 5.53.24.96.18 4.87 2.98 4.5.9-.23-1.34.8-2.24 2.72-3.48 1.08-.7 3.73-.06 4.3-1.64.26-.72-11.26-4.26-13.2-5.93zm-4.8 3.98c-.58.24-2.04-1.1-2.2-1.83-.42-1.72 2.4-5.1 3.36-4.08.96 1.03 2.28 2.73 1.73 3.38-.2.24-1.75 2.04-2.9 2.53zm6.16.5c-.2.3-1.18 3.04-1.58 3.08-.7.06-2.6-1.43-2.24-1.82.56-.57 1.6-3.03 2.37-3.35 1.08-.47 1.94 1.33 1.46 2.07zm2.2 4.55c-2.38-.75-1.65-3.94-.68-4.13.7-.14 2.26.66 2.37 1.18.3 1.3-1.48 3.02-1.68 2.95z"/><g><g transform="matrix(1.071 0 0 1.071 -326.91 -310.688)"><radialGradient cx="222.807" cy="518.711" r="17.408" gradientUnits="userSpaceOnUse" gradientTransform="matrix(.999 .036 -.036 .999 115.327 -221.934)" fy="518.711" fx="222.807"><stop offset="0" stop-color="#fff"/><stop offset=".146" stop-color="#FAE6C8"/><stop offset=".657" stop-color="#F17912"/><stop offset=".904" stop-color="#FF710E"/><stop offset="1" stop-color="#CE5B0B"/></radialGradient><path fill="url(#f)" d="M326.16 309.6c-1.8-1.57-3.63-9.66-4.46-9.35-2.04.77-1 3.85-2.38 7.6-.58 1.54-4.1.44-2.33 2.88 1.8 2.4-1.86 2.43 1 3.62 9 3.76 1.26 3.14 4.57 4.5 3.7 1.54 2.68-.22 5.16.23.9.16 4.55 2.78 4.2.83-.2-1.23.76-2.07 2.55-3.23 1-.66 3.48-.06 4-1.53.25-.68-10.5-3.98-12.32-5.54zm-4.48 3.73c-.54.22-1.9-1.04-2.07-1.72-.37-1.6 2.27-4.75 3.16-3.8.9.97 2.13 2.56 1.62 3.16-.2.23-1.62 1.9-2.7 2.37zm5.76.45c-.2.3-1.1 2.86-1.5 2.9-.64.05-2.42-1.35-2.07-1.7.52-.54 1.5-2.84 2.2-3.14 1-.43 1.8 1.25 1.37 1.94zm2.06 4.27c-2.24-.7-1.55-3.7-.65-3.87.65-.12 2.1.62 2.22 1.1.26 1.22-1.4 2.82-1.57 2.77z"/></g></g><g transform="matrix(1.071 0 0 1.071 -326.91 -310.688)"><radialGradient cx="318.479" cy="304.573" r="29.063" gradientUnits="userSpaceOnUse" fy="304.573" fx="318.479"><stop offset=".006" stop-color="#FAAF3D"/><stop offset=".371" stop-color="#FAE6C8"/><stop offset=".657" stop-color="#F17912"/><stop offset="1" stop-color="#CE5B0B"/></radialGradient><path fill="url(#g)" d="M321.42 300.43c-.9.53-1.06 1.57-1.24 3.24-.13 1.17-.3 2.63-.85 4.18-.23.6-.82.78-1.64 1-.7.16-1 .27-1.15.55l-.06.1v.14c0 .28.15.63.5 1.1.34.46.5.88.5 1.25 0 .42-.2.73-.4.98.07-.08-.23.5-.23.5 0 .42.33.55.75.72l.37.15c3.02 1.26 4.47 2.15 4.54 2.8 0 .1-.1.22-.44.48-.17.1-.42.3-.35.63.06.33.36.44.65.54l.18.06c2.02.84 2.6.7 3.3.4.38-.17.83-.37 1.85-.18.26.05.77.3 1.32.6 2.38 1.22 2.64.96 2.8.8l.18-.18-.02-.3c0-.05-.05-.07-.06-.1 0-.04-.03-.32-.03-.32 0-1.15 1.17-2 2.58-2.92.38-.25.98-.3 1.6-.4.9-.1 1.7-.2 2.14-.7l.4-.45-.5-.3c-.67-.42-2.63-1.2-4.75-2-2.94-1.12-6.27-2.4-7.2-3.2-.98-.84-1.98-3.62-2.78-5.85-.5-1.4-.98-2.68-1.3-3.17l-.27-.4-.4.25zm.15 1.34c.3.7.65 1.7.88 2.32.93 2.57 1.9 5.24 3.06 6.25 1.08.92 4.2 2.12 7.5 3.4 1.06.4 2.6.98 3.63 1.44-.2.02-.43.06-.65.08-.72.1-1.47.17-2.05.55-1.54 1-2.9 2.04-3 3.6-.45-.2-1.06-.46-1.42-.64-.75-.4-1.2-.63-1.6-.7-1.32-.24-1.96.04-2.43.25-.38.17-.75.28-2.3-.33.2-.23.38-.5.38-.82v-.18c-.13-.96-1-1.85-5.17-3.6 0 0-.2-.07-.3-.1.2-.32.44-.73.44-1.33 0-.6-.25-1.23-.73-1.86 0 0-.08-.13-.15-.24.14-.04.27-.1.27-.1.77-.18 1.92-.47 2.34-1.6.62-1.67.78-3.2.9-4.43.12-.98.23-1.6.4-2z"/></g><path fill="url(#h)" d="M37.1 25.34c-2.16 2.77-7.17 2.14-13.65-2.9-5.7-4.45-7.7-9.47-5.68-12.06.1-.1.2-.2.3-.24L40.36.84c.27-.1.45.04.4.33L37.26 25c-.02.1-.08.23-.15.34z"/><path fill="url(#i)" d="M40.73.92L18.37 16.88c-.84-1.03-1.75-6.08-.4-6.76L40.6.82l.13.1z"/><path fill="url(#j)" d="M40.84.95L18.8 16.65c-2.04-3-1.8-5.88-.72-6.5L40.7.84l.14.1z"/><path fill="none" stroke="#192333" stroke-width="1.5" d="M37.37 24.42c-.07.52-.26.98-.57 1.37-1.92 2.47-7.73 1-13.05-3.13-5.32-4.15-8.15-9.42-6.22-11.9.36-.45.85-.78 1.46-.98L40.76.85l-3.4 23.56z"/><g transform="matrix(1.071 0 0 1.071 -326.91 -310.688)"><linearGradient x1="-1542.913" x2="-1529.661" y1="584.922" y2="601.232" gradientUnits="userSpaceOnUse" gradientTransform="matrix(.789 .615 -.615 .789 1908.824 780.959)"><stop offset="0" stop-color="#FAFAFA"/><stop offset=".579" stop-color="#828B99"/><stop offset=".753" stop-color="#858E9C"/><stop offset=".905" stop-color="#8E99A7"/><stop offset="1" stop-color="#98A4B2"/></linearGradient><path fill="url(#k)" d="M342.54 291.68l-19.38 7.94c-.52.17-.93.45-1.22.82-1.65 2.12.94 6.9 5.77 10.67 4.84 3.77 10.1 5.1 11.76 2.98.25-.3.4-.7.48-1.14 0 0 3.1-21.46 3.1-21.46l-.5.2zm-20.1 9.13c.2-.26.52-.47.92-.6l.06-.02s17.9-7.34 18.85-7.73c-.14 1-2.94 20.4-2.94 20.4-.05.34-.17.62-.35.86-1.4 1.8-6.5.36-10.9-3.07-4.4-3.44-7.05-8.02-5.65-9.8z"/></g></g></svg>