<svg xmlns="http://www.w3.org/2000/svg" width="48" height="48"><g><g transform="matrix(1.035 0 0 1.035 12.778 .001)"><g fill="none" stroke="#000" stroke-width="1.16"><path d="M3.5 23.55c0-.04-.07-.18-.12-.27-.35-.08-.7.05-.76.15-.08.13-.12.3-.14.37"/><path d="M2.48 23.97c.06-.14-.07-.43-.36-.43-.4.02-.8.55-.8.55-.23-.03-.65.34-.7.6-.08.3.35 1.12.7 1.42"/><path d="M23 7.23c.07-.02.16 0 .26.04.34.18.26.6.12.82-.13.2-.7 1.1-.9 1.48-.2.36-.42 1.05-.9 1.75-.5.7-.9 1.15-1.4 1.28-.48.13-.76.02-.83.13l-.57-.34c-.05-.1-.64-.62-.74-1.1-.1-.5-.47-1.28-.84-1.68-.36-.4-1.1-1-.65-1.36.45-.34.95.3 1.15.47.2.17.57.66.78.67.13 0 .54-.7.87-1.07.17-.2.35-.5.57-.96.2-.45.68-1.18.88-1.4.3-.34.98-.17.73.5-.2.56-.46.82-.74 1.48-.14.3-.3.6-.23.64.07.02.25-.17.68-.82.43-.65.68-1 1.1-1.36.45-.38.96-.02.87.35-.04.2-.23.46-.23.46z"/><path d="M23 7.23c.07-.02.16 0 .26.04.34.18.26.6.12.82-.13.2-.7 1.1-.9 1.48-.2.36-.42 1.05-.9 1.75-.5.7-.9 1.15-1.4 1.28-.48.13-.76.02-.83.13l-.57-.34c-.05-.1-.64-.62-.74-1.1-.1-.5-.47-1.28-.84-1.68-.36-.4-1.1-1-.65-1.36.45-.34.95.3 1.15.47.2.17.57.66.78.67.13 0 .54-.7.87-1.07.17-.2.35-.5.57-.96.2-.45.68-1.18.88-1.4.3-.34.98-.17.73.5-.2.56-.46.82-.74 1.48-.14.3-.3.6-.23.64.07.02.25-.17.68-.82.43-.65.68-1 1.1-1.36.45-.38.96-.02.87.35-.04.2-.23.46-.23.46z"/><path d="M3.5 23.55l.48-.14c.15.37.3.84.24 1.22-.12.9-.53 1.25-.97 1.48-.56.3-1.5.42-1.94.02-.06-.06-.13-.14-.2-.23"/><path d="M10.73 26.65c.06-.15.37-.92.38-2.04.04-1.54-.7-1.83-.9-5.6-.16-2.8 1.1-5.12 1.9-5.12.67 0 1.6 1.36 2.15 2.1.88 1.18 1.53 2.4 2.07 2.4.73 0 .96-1.5 1.6-2.8.62-1.3 1.35-2.74 1.43-2.85l-.57-.34c.06.07-.88 1.64-1.3 2.46-.45.8-1.05 2.12-1.1 2.23-.07.1-1.82-2.08-2.92-3.43-1.1-1.36-1.42-1.4-1.65-1.43-.22-.04-1.03.12-1.3.12-.26 0-.44-.13-.54-.4-.1-.26 0-1.05 0-1.22l-1.34-.08s-.02.38-.12.63c-.1.23-.34.7-.66.75-.32.06-1.42.07-1.78.14-.37.05-.72.3-1.02.72-.3.42-.27.62-1.97 2.26C1.37 16.8.8 17 .63 17.52c-.14.46.47 1.24.77 1.7.9 1.5 1.94 4 1.94 4s.17.27.15.33l.2-.72s-.6-1.53-1.28-3c-.5-1.13-1-2.04-.95-2.08.12-.1 1.3-1.16 1.8-1.67.48-.5 1.52-1.45 1.8-1.68.32-.26.74-.1.73 0-.07 1.47-1.13 4.6-1.5 5.58-.52 1.36-.6 2.86-.6 2.86s-.12 1.2.1 2.5c.24 1.3.66 1.64.87 1.9l.04.06c1.23 3.68.88 6.74 1 7.4.3 1.52.85 1.86 2.42 6.4.15.43-1.06.85-2.67 1.5-.45.18-1.86.38-1.94.68-.2.8.57.95 1.2 1.1.56.14 1-.12 1.93-.2 1.4-.12 2.83-.17 3.04-.75.24-.7-.47-1.48-.8-2.44-.18-.6-1.13-6.54-1.15-6.8-.03-.24-.5-1.4-.57-2.75-.06-1.18.02-2.93.1-2.92.64.04 1.26 0 1.34 0 .03 0 .16.92.16.92l.04.36c.07.54.14 1.13.2 1.6.12 1.1.03 3 .06 3.55.02.55 1.04 2.92 1.5 6.92.07.47-.7 1.58-.65 2.08.04.34.08.5.88 1.05.72.5.33.37.82.67.3.2 1.15.1 1.83.04.67-.07.78-.53.67-.88-.13-.42-.88-.84-1.74-1.8-.33-.36-.18-.33-.4-.63-.26-.34-.37-.27-.55-.77-.22-.63-.28-6.46-.35-7.1-.05-.48-.56-1.36-.64-3.34-.06-1.7.3-4.25.33-4.55z"/><path d="M14.02 5.5c-.14 1.63-1.1 3.02-2.34 4.1-.9.8-1.74 1.32-2.43 1.27-.87-.07-1.6-1.02-2.27-2.17-.54-.93-.96-1.6-1-2.2-.04-.4.1-.43.07-.98-.04-.64.03-1.35.18-1.95C6.7 1.67 8 .47 10 .6c2.94.2 4.32 1.55 4.02 4.9z"/></g><radialGradient id="a" cx="1.021" cy="23.342" r="2.503" gradientUnits="userSpaceOnUse" fy="23.342" fx="1.021"><stop offset="0" stop-color="#B0BAC3"/><stop offset="1" stop-color="#575F66"/></radialGradient><path fill="url(#a)" d="M2.48 23.97c.06-.14-.07-.43-.36-.43-.4.02-.8.55-.8.55-.23-.03-.65.34-.7.6-.08.3.35 1.12.7 1.42-.17-.3-.04-.36-.04-.36.12.02.1-.86.87-1.54.5-.43 1.3-.6 1.34-.66 0-.05-.07-.2-.12-.27-.35-.1-.7.03-.76.13-.08.13-.12.3-.14.37"/><radialGradient id="b" cx="19.984" cy="9.35" r="3.709" gradientUnits="userSpaceOnUse" fy="9.35" fx="19.984"><stop offset=".006" stop-color="#DEE0E0"/><stop offset="1" stop-color="#8694A0"/></radialGradient><path fill="url(#b)" d="M23 7.23c.07-.02.16 0 .26.04.34.18.26.6.12.82-.13.2-.7 1.1-.9 1.48-.2.36-.42 1.05-.9 1.75-.5.7-.9 1.15-1.4 1.28-.48.13-.76.02-.83.13l-.57-.34c-.05-.1-.64-.62-.74-1.1-.1-.5-.47-1.28-.84-1.68-.36-.4-1.1-1-.65-1.36.45-.34.95.3 1.15.47.2.17.57.66.78.67.13 0 .54-.7.87-1.07.17-.2.35-.5.57-.96.2-.45.68-1.18.88-1.4.3-.34.98-.17.73.5-.2.56-.46.82-.74 1.48-.14.3-.3.6-.23.64.07.02.25-.17.68-.82.43-.65.68-1 1.1-1.36.45-.38.96-.02.87.35-.04.2-.23.46-.23.46z"/><radialGradient id="c" cx="20.67" cy="10.223" r="2.474" gradientUnits="userSpaceOnUse" fy="10.223" fx="20.67"><stop offset="0" stop-color="#D0D4D6"/><stop offset="1" stop-color="#8694A0"/></radialGradient><path fill="url(#c)" d="M23 7.23c.07-.02.16 0 .26.04.34.18.26.6.12.82-.13.2-.7 1.1-.9 1.48-.2.36-.42 1.05-.9 1.75-.5.7-.9 1.15-1.4 1.28-.48.13-.76.02-.83.13l-.57-.34c-.05-.1-.64-.62-.74-1.1-.1-.5-.47-1.28-.84-1.68-.36-.4-1.1-1-.65-1.36.45-.34.95.3 1.15.47.2.17.57.66.78.67.13 0 .54-.7.87-1.07.17-.2.35-.5.57-.96.2-.45.68-1.18.88-1.4.3-.34.98-.17.73.5-.2.56-.46.82-.74 1.48-.14.3-.3.6-.23.64.07.02.25-.17.68-.82.43-.65.68-1 1.1-1.36.45-.38.96-.02.87.35-.04.2-.23.46-.23.46z"/><radialGradient id="d" cx="1.394" cy="22.312" r="3.542" gradientUnits="userSpaceOnUse" fy="22.312" fx="1.394"><stop offset=".492" stop-color="#C3C9CA"/><stop offset="1" stop-color="#42484C"/></radialGradient><path fill="url(#d)" d="M3.98 23.4c.15.36.3.83.24 1.22-.12.9-.53 1.25-.97 1.48-.56.28-1.5.42-1.94.02-.06-.06-.13-.14-.2-.23 0 0-.03-.23.18-.14.1.04.1-.87.87-1.54.5-.43 1.3-.6 1.34-.66l.48-.16z"/><g><radialGradient id="e" cx="7.37" cy="22.419" r="7.514" gradientUnits="userSpaceOnUse" fy="22.419" fx="7.37"><stop offset="0" stop-color="#CDD1D2"/><stop offset=".76" stop-color="#626C73"/></radialGradient><path fill="url(#e)" d="M18.78 12.4c.06.07-.88 1.64-1.3 2.46-.45.8-1.05 2.12-1.1 2.24-.07.1-1.82-2.08-2.92-3.43-1.1-1.36-1.42-1.4-1.65-1.43-.22-.04-1.03.12-1.3.12-.26 0-.44-.13-.54-.4-.1-.26 0-1.04 0-1.22l-1.34-.08s-.02.38-.12.63c-.1.23-.34.7-.66.75-.32.06-1.42.07-1.78.14-.37.05-.72.3-1.02.72-.3.42-.27.62-1.97 2.26C1.37 16.8.8 17 .63 17.52c-.14.46.47 1.24.77 1.7.9 1.5 1.94 4 1.94 4s.17.27.15.33l.2-.72s-.6-1.52-1.28-3c-.5-1.13-1-2.04-.95-2.08.12-.1 1.3-1.16 1.8-1.67.48-.5 1.52-1.44 1.8-1.67.32-.26.74-.08.73 0-.07 1.47-1.13 4.6-1.5 5.58-.52 1.36-.6 2.86-.6 2.86s-.12 1.2.1 2.5c.24 1.3.66 1.64.87 1.9.4.55.85.85 1.24 1.02.67.28 1.35.27 1.35.27.63.04 1.26 0 1.33 0l2.15-1.88c.06-.15.37-.92.38-2.03.04-1.56-.7-1.85-.9-5.6-.16-2.8 1.1-5.14 1.9-5.14.67 0 1.6 1.36 2.15 2.1.87 1.18 1.52 2.4 2.07 2.4.73 0 .96-1.5 1.6-2.8.62-1.3 1.35-2.74 1.43-2.85l-.57-.34z"/></g><g><radialGradient id="f" cx="7.795" cy="12.891" r="12.566" gradientUnits="userSpaceOnUse" fy="12.891" fx="7.795"><stop offset=".413" stop-color="#fff"/><stop offset=".788" stop-color="#8694A0"/></radialGradient><path fill="url(#f)" d="M18.78 12.4c.06.07-.88 1.64-1.3 2.46-.45.8-1.05 2.12-1.1 2.24-.07.1-1.82-2.08-2.92-3.43-1.1-1.36-1.42-1.4-1.65-1.43-.22-.04-1.03.12-1.3.12-.26 0-.44-.13-.54-.4-.1-.26 0-1.04 0-1.22l-1.34-.08s-.02.38-.12.63c-.1.23-.34.7-.66.75-.32.06-1.42.07-1.78.14-.37.05-.72.3-1.02.72-.3.42-.27.62-1.97 2.26C1.37 16.8.8 17 .63 17.52c-.14.46.47 1.24.77 1.7.9 1.5 1.94 4 1.94 4s.17.27.15.33l.2-.72s-.6-1.52-1.28-3c-.5-1.13-1-2.04-.95-2.08.12-.1 1.3-1.16 1.8-1.67.48-.5 1.52-1.44 1.8-1.67.32-.26.74-.08.73 0-.07 1.47-1.13 4.6-1.5 5.58-.52 1.36-.6 2.86-.6 2.86s-.12 1.2.1 2.5c.24 1.3.66 1.64.87 1.9.4.55.85.85 1.24 1.02.67.28 1.35.27 1.35.27.63.04 1.26 0 1.33 0l2.15-1.88c.06-.15.37-.92.38-2.03.04-1.56-.7-1.85-.9-5.6-.16-2.8 1.1-5.14 1.9-5.14.67 0 1.6 1.36 2.15 2.1.87 1.18 1.52 2.4 2.07 2.4.73 0 .96-1.5 1.6-2.8.62-1.3 1.35-2.74 1.43-2.85l-.57-.34z"/></g><linearGradient id="g" x1="8.124" x2="5.971" y1="35.331" y2="35.782" gradientUnits="userSpaceOnUse"><stop offset="0" stop-color="#ABB4BA"/><stop offset=".24" stop-color="#C4C7CB"/><stop offset=".559" stop-color="#7C8994"/><stop offset=".872" stop-color="#707880"/></linearGradient><path fill="url(#g)" d="M5.84 28l1.4.53c-.07 0-.15 1.74-.1 2.92.1 1.33.55 2.5.58 2.75.02.26.97 6.2 1.16 6.8.32.95 1.03 1.74.8 2.43-.22.58-1.65.63-3.05.75-.92.08-1.37.34-1.92.2-.63-.15-1.4-.3-1.2-1.1.1-.3 1.5-.5 1.95-.68 1.6-.65 2.82-1.07 2.67-1.5-1.57-4.54-2.1-4.88-2.4-6.4-.14-.66.2-3.73-1-7.4l1.12.7z"/><radialGradient id="h" cx="5.314" cy="32.309" r="12.071" gradientUnits="userSpaceOnUse" fy="32.309" fx="5.314"><stop offset=".911" stop-color="#8694A0"/><stop offset=".924" stop-color="#828F9A"/><stop offset=".939" stop-color="#76818B"/><stop offset=".954" stop-color="#636B72"/><stop offset=".97" stop-color="#4C5156"/><stop offset=".985" stop-color="#323538"/><stop offset="1" stop-color="#1B1D1F"/></radialGradient><path fill="url(#h)" d="M8.12 41.1s-.04-.18.36-.2c.35-.03.4.1.4.1.32.95 1.03 1.74.8 2.43-.22.58-1.65.63-3.05.75-.92.08-1.37.34-1.92.2-.63-.15-1.4-.3-1.2-1.1.1-.3 1.5-.5 1.95-.68 1.6-.65 2.82-1.07 2.67-1.5z"/><linearGradient id="i" x1="6.159" x2="7.06" y1="41.599" y2="45.076" gradientUnits="userSpaceOnUse"><stop offset="0" stop-color="#C3C9CC"/><stop offset=".129" stop-color="#E5E6E7"/><stop offset=".296" stop-color="#fff"/><stop offset=".615" stop-color="#fff"/><stop offset=".821" stop-color="#9AA5AF"/><stop offset="1" stop-color="#9AA5AF"/></linearGradient><path fill="url(#i)" d="M8.12 41.1s-.04-.18.36-.2c.35-.03.4.1.4.1.32.95 1.03 1.74.8 2.43-.22.58-1.65.63-3.05.75-.92.08-1.37.34-1.92.2-.63-.15-1.4-.3-1.2-1.1.1-.3 1.5-.5 1.95-.68 1.6-.65 2.82-1.07 2.67-1.5z"/><linearGradient id="j" x1="6.917" x2="5.865" y1="43.966" y2="42.113" gradientUnits="userSpaceOnUse"><stop offset=".006" stop-color="#E5E6E7"/><stop offset=".045" stop-color="#A9B2BA"/><stop offset=".33" stop-color="#C3C9CC"/><stop offset=".575" stop-color="#E5E6E7"/><stop offset=".579" stop-color="#E4E5E6"/><stop offset=".899" stop-color="#9AA5AF"/><stop offset="1" stop-color="#A7B0B9"/></linearGradient><path fill="url(#j)" d="M3.88 43.65c.35.04.63.38.83.45.2.07.43.1.8-.06.4-.15 1.47-.6 2.2-1 .72-.42 1.08-1.17 1.1-1.38 0-.2-.2-.44-.32-.4-.2.05-.1.4-.4.7-.3.27-1.8 1.16-2.42 1.5-.62.35-1.2.17-1.43.07-.24-.1-.2-.17-.33-.33-.03-.04-.08-.08-.13-.12-.14.06-.24.13-.26.2-.03.15-.03.28 0 .4.07-.04.18-.06.38-.03z"/><radialGradient id="k" cx="8.196" cy="41.328" r=".424" gradientUnits="userSpaceOnUse" fy="41.328" fx="8.196"><stop offset="0" stop-color="#F8F8F8"/><stop offset=".405" stop-color="#D8DBDB"/><stop offset=".756" stop-color="#C3C8CB"/><stop offset="1" stop-color="#BCC3C6"/></radialGradient><path fill="url(#k)" d="M8.06 40.92c.12.14.2.2.16.35-.05.15.06.3-1.2.7.74-.33 1.2-.6 1.1-.88-.02-.07-.05-.13-.07-.2v.02z"/><linearGradient id="l" x1="6.626" x2="9.47" y1="35.841" y2="35.841" gradientUnits="userSpaceOnUse"><stop offset=".006" stop-color="#E1E2E3"/><stop offset=".184" stop-color="#CDD0D4"/><stop offset=".955" stop-color="#B7BEC4"/></linearGradient><path fill="url(#l)" d="M6.87 28.54c.54.06 0 .34.2 2.7.2 2.4.5 2.56.53 2.95.03.4 1.1 6.54 1.2 6.8.1.24.87 1.76.62 2.03-.25.28-.73 0-.8-.75-.1-.76-.04-1.12-.18-2.02-.14-.9-.76-3.24-1.18-5.8-.1-.63-.56-1.5-.6-2.8-.07-1.33-.04-3.15.2-3.12z" opacity=".5"/><linearGradient id="m" x1="10.878" x2="9.377" y1="36.311" y2="36.511" gradientUnits="userSpaceOnUse"><stop offset="0" stop-color="#D1D5D7"/><stop offset=".14" stop-color="#E8E9EA"/><stop offset=".229" stop-color="#E8E9EA"/><stop offset=".665" stop-color="#8694A0"/></linearGradient><path fill="url(#m)" d="M8.8 29.8c.07.54.14 1.13.2 1.6.12 1.1.03 3 .06 3.55.02.55 1.04 2.92 1.5 6.92.07.47-.7 1.58-.65 2.08.04.34.08.5.88 1.05.72.5.33.37.82.67.3.2 1.15.1 1.83.04.67-.07.78-.53.67-.88-.13-.42-.88-.84-1.74-1.8-.33-.36-.18-.33-.4-.63-.26-.34-.37-.27-.55-.77-.22-.63-.28-6.46-.35-7.1-.05-.48-.57-1.36-.64-3.34-.06-1.7.3-4.25.33-4.55-.6-.14-.9.4-1.55 1.05-.63.63-.38 2.1-.38 2.1z"/><path fill="none" stroke="#000" stroke-width=".018" d="M1.3 24.1c.23 0 .57.07.57.27s-.24.5-.46.47"/><linearGradient id="n" x1="9.732" x2="8.869" y1="30.819" y2="30.741" gradientUnits="userSpaceOnUse"><stop offset=".006" stop-color="#E1E2E3"/><stop offset=".184" stop-color="#CDD0D4"/><stop offset=".955" stop-color="#B7BEC4"/></linearGradient><path fill="url(#n)" d="M9.1 33.2c-.03.86-.15 1.85.35 1.72.64-.17.6-.17.8-.1.23.05.8.05.62-.46-.2-.5-.6-2.6-.67-4.98-.05-2.38.54-3.16-.33-2.35-.87.8-.82 4.2-.83 4.8 0 .26.06 1.37.06 1.37z" opacity=".5"/><radialGradient id="o" cx="9.19" cy="23.693" r="10.995" gradientUnits="userSpaceOnUse" fy="23.693" fx="9.19"><stop offset="0" stop-color="#F5F4F4"/><stop offset=".184" stop-color="#C1C7CB"/><stop offset=".682" stop-color="#BAC1C7"/><stop offset=".955" stop-color="#B7BEC4"/></radialGradient><path fill="url(#o)" d="M12 12.64c-.5.14-3.88 1.3-5 4.84-1.42 4.54-.84 10.55 2.6 9.32.56-.2 1.33-1.35 1.27-2.48-.07-1.43-1.5-4.88-1.1-7.36.43-2.48 1.6-3.57 2.15-3.8.56-.22.5-.63.08-.52z" opacity=".5"/><linearGradient id="p" x1="10.83" x2="5.305" y1="19.777" y2="19.98" gradientUnits="userSpaceOnUse"><stop offset="0" stop-color="#C1C7CB"/><stop offset=".134" stop-color="#F5F4F4"/><stop offset=".235" stop-color="#F5F4F4"/><stop offset=".486" stop-color="#AFB4BA"/><stop offset=".648" stop-color="#787B80"/></linearGradient><path fill="url(#p)" d="M12 12.64c-.5.14-3.88 1.3-5 4.84-1.42 4.54-.84 10.55 2.6 9.32.56-.2 1.33-1.35 1.27-2.48-.07-1.43-1.8-4.64-1.1-7.76.57-2.45 1.6-3.17 2.15-3.4.56-.22.5-.63.08-.52z" opacity=".5"/><radialGradient id="q" cx="8.984" cy="17.264" r="8.311" gradientUnits="userSpaceOnUse" fy="17.264" fx="8.984"><stop offset="0" stop-color="#F8F8F8"/><stop offset="1" stop-color="#BCC3C6"/></radialGradient><path fill="url(#q)" d="M11.96 12.87c-.57 0-3.2 2.04-4.06 3.92-.87 1.86-1 5.35-.1 6.8 2.76 4.55 3.07 1.1 1.75-2.23-.95-2.42-.9-5.9 1.13-7.45 1-.77 1.65-1.05 1.28-1.05z" opacity=".5"/><radialGradient id="r" cx="10.363" cy="14.041" r="9.373" gradientUnits="userSpaceOnUse" fy="14.041" fx="10.363"><stop offset="0" stop-color="#2B2C2C"/><stop offset=".296" stop-color="#6F7A82"/><stop offset=".726" stop-color="#586065"/><stop offset=".832" stop-color="#474C50"/><stop offset=".877" stop-color="#474C50"/><stop offset=".912" stop-color="#4F5459"/><stop offset=".971" stop-color="#656D74"/><stop offset="1" stop-color="#737E87"/></radialGradient><path fill="url(#r)" d="M10.2 18.35c-.03-2.05.75-4.9 1.72-5.18.3-.1.6.1 1.26.76 1.38 1.38 1.98 3.35 2.48 3.78.44.4.63.76 1.2-.8.55-1.54 2-4.34 2.15-4.38l.35.2c-.07.12-.8 1.57-1.44 2.87-.62 1.3-.84 2.78-1.58 2.78-.54 0-1.2-1.22-2.07-2.4-.54-.74-1.48-2.1-2.14-2.1-.8 0-2.06 2.33-1.9 5.13v-.65z"/><radialGradient id="s" cx="12.423" cy="16.484" r="3.017" gradientUnits="userSpaceOnUse" fy="16.484" fx="12.423"><stop offset="0"/><stop offset=".468" stop-color="#020202"/><stop offset=".637" stop-color="#090908"/><stop offset=".757" stop-color="#141413"/><stop offset=".854" stop-color="#252524"/><stop offset=".936" stop-color="#3B3A38"/><stop offset="1" stop-color="#52514E"/></radialGradient><path fill="url(#s)" d="M10.2 18.35c-.03-2.05 1.17-4.73 1.75-4.84.3-.06.63.03 1.2.8 1.25 1.67 2.28 3.46 2.77 3.9l-.06-.06c-.45-.4-.97-1.3-1.6-2.17-.55-.73-1.5-2.1-2.15-2.1-.7 0-1.84 1.95-1.9 4.42v.05z"/><g><radialGradient id="t" cx="14.559" cy="47.522" r="5.242" gradientUnits="userSpaceOnUse" fy="47.522" fx="14.559"><stop offset="0" stop-color="#fff"/><stop offset=".665" stop-color="#8C99A4"/><stop offset=".86" stop-color="#ACB4BA"/><stop offset="1" stop-color="#B3BABF"/></radialGradient><path fill="url(#t)" d="M10.7 41.9c.08.06.1.36.2.62.06.25.74 1.48.8 1.9.06.42.06.6.4.54.36-.06.67-.27 1.1-.3.37 0 .94.3.83 0-.24-.36-.92-.8-1.67-1.63-.34-.37-.18-.34-.4-.64-.27-.35-.37-.27-.55-.77l-.83.23c0 .03 0 .06 0 .08.05-.06.1-.1.14-.05z"/><radialGradient id="u" cx="13.561" cy="40.577" r="5.247" gradientUnits="userSpaceOnUse" fy="40.577" fx="13.561"><stop offset=".776" stop-color="#8694A0"/><stop offset=".815" stop-color="#828F9A"/><stop offset=".856" stop-color="#77818A"/><stop offset=".899" stop-color="#646B71"/><stop offset=".942" stop-color="#4C5053"/><stop offset=".986" stop-color="#333535"/><stop offset="1" stop-color="#2B2C2C"/></radialGradient><path fill="url(#u)" d="M11.88 45.28c-.22.1-.18.34-.5.07-.3-.27.3 0-.97-1.04-.22-.18-.38-.36-.47-.54-.02.07-.03.13-.02.2.03.33.08.5.88 1.04.7.5.33.37.82.67.3.2 1.15.1 1.83.04.38-.04.58-.2.66-.4-.15-.08-.3-.15-.72-.17-.55-.03-1.27.06-1.5.15z"/><linearGradient id="v" x1="10.213" x2="12.345" y1="44.491" y2="43.592" gradientUnits="userSpaceOnUse"><stop offset=".078" stop-color="#A9B2BA"/><stop offset=".257" stop-color="#C3C9CC"/><stop offset=".369" stop-color="#E5E6E7"/><stop offset=".458" stop-color="#E5E6E7"/><stop offset=".46" stop-color="#E4E5E6"/><stop offset=".598" stop-color="#9AA5AF"/><stop offset=".71" stop-color="#9AA5AF"/><stop offset=".872" stop-color="#C9CED1"/><stop offset="1" stop-color="#A7B0B9"/></linearGradient><path fill="url(#v)" d="M14.1 44.82c-.02-.05-.04-.1-.07-.15.1.3-.46 0-.84 0-.43.02-.74.23-1.1.3-.34.05-.34-.13-.4-.55-.06-.42-.73-1.65-.8-1.9-.1-.26-.12-.56-.2-.63-.03-.05-.08-.02-.13.05-.02.44-.55 1.3-.64 1.8.1.2.25.37.48.56 1.26 1.07.67.78 1 1.05.3.27.26.02.48-.07.23-.1.95-.18 1.5-.15.4.02.57.1.7.16.07-.16.06-.33.02-.48z"/></g><radialGradient id="w" cx="10.104" cy="34.031" r="6.692" gradientUnits="userSpaceOnUse" fy="34.031" fx="10.104"><stop offset="0" stop-color="#F8F8F8"/><stop offset=".405" stop-color="#D8DBDB"/><stop offset=".756" stop-color="#C3C8CB"/><stop offset="1" stop-color="#BCC3C6"/></radialGradient><path fill="url(#w)" d="M10.18 26.76c.5-.5.1.82.1 3.08 0 2.25.22 3.4.6 4.52.18.57-1.13.7-1.12.28.04-.86-.3-5.74-.24-6.42.08-.67.36-1.17.66-1.46z"/><g><radialGradient id="x" cx="7.416" cy="33.605" r="3.226" gradientUnits="userSpaceOnUse" fy="33.605" fx="7.416"><stop offset="0" stop-color="#F8F8F8"/><stop offset=".405" stop-color="#D8DBDB"/><stop offset=".756" stop-color="#C3C8CB"/><stop offset="1" stop-color="#BCC3C6"/></radialGradient><path fill="url(#x)" d="M6.37 34.9c.48-.12 1 .08.9-1.7-.03-.38-.04-.76-.05-1.12-.03-.2-.05-.4-.07-.63-.03-.6-.03-1.37 0-1.96-.13-.33-.43-.72-1.17-.85-.52-.08-.76-.03-.82.24.6 2.58.5 4.65.52 5.5.2.34.43.55.7.5z" opacity=".5"/><g><radialGradient id="y" cx="6.409" cy="27.471" r="1.927" gradientUnits="userSpaceOnUse" fy="27.471" fx="6.409"><stop offset="0"/><stop offset="1" stop-color="#8694A0"/></radialGradient><path fill="url(#y)" d="M5.98 28.65c.74.13 1.04.52 1.17.84.02-.57.06-.98.1-.97l-1.46-.57-1.08-.66c.17.5.33 1.1.44 1.6.06-.28.3-.33.82-.25z"/></g></g><g><radialGradient id="z" cx="2.911" cy="12.709" r="9.118" gradientUnits="userSpaceOnUse" fy="12.709" fx="2.911"><stop offset="0" stop-color="#fff"/><stop offset=".704" stop-color="#8694A0"/></radialGradient><path fill="url(#z)" d="M.93 17.54c.2-.28 3.68-3.58 4.08-3.7.4-.13.46-.28.5-.7.06-.44.84-.7.77-.84-.05-.07-.33-.05-.7.08-.18.13-.36.3-.53.54-.3.42-.27.62-1.97 2.26C1.37 16.8.8 17 .63 17.52c-.14.46.47 1.24.77 1.7.9 1.5 1.94 4 1.94 4s.17.27.15.34l.17-.06c-.66-2.32-2.54-5.22-2.64-5.4-.1-.2-.3-.3-.1-.57z"/></g><radialGradient id="A" cx="8.343" cy="9.75" r="3.185" gradientUnits="userSpaceOnUse" fy="9.75" fx="8.343"><stop offset="0" stop-color="#F8F8F8"/><stop offset=".405" stop-color="#D8DBDB"/><stop offset=".756" stop-color="#C3C8CB"/><stop offset="1" stop-color="#BCC3C6"/></radialGradient><path fill="url(#A)" d="M7.8 12.06c.65.7 1.07-.97 1.07-1.26 0-.04 0-.1 0-.13h-.25s-.02.38-.12.62c-.1.23-.34.7-.66.75 0 0-.02 0-.03 0z"/><g opacity=".5"><linearGradient id="B" x1="4.225" x2="5.644" y1="19.486" y2="19.785" gradientUnits="userSpaceOnUse"><stop offset="0" stop-color="#F5F4F4"/><stop offset=".453" stop-color="#F5F4F4"/><stop offset=".776" stop-color="#AFB4BA"/><stop offset="1" stop-color="#787B80"/></linearGradient><path fill="url(#B)" d="M4.66 25.75c.46-.6.38-1.33.73-4.66.34-3.34 1.36-6.04 1.5-6.64.1-.6.22-1-.1-1.13-.34-.13-1 .38-1.14.78 0 0 .02.1.1.25.03.02.04.04.04.06 0 .02 0 .07 0 .14-.13 1.52-1.14 4.5-1.5 5.44-.52 1.36-.6 2.86-.6 2.86s-.13 1.2.1 2.5c0 .03.02.05.02.06.14.6.2 1.2.84.35z"/></g><radialGradient id="C" cx="11.233" cy="41.815" r=".665" gradientUnits="userSpaceOnUse" fy="41.815" fx="11.233"><stop offset="0" stop-color="#F8F8F8"/><stop offset=".405" stop-color="#D8DBDB"/><stop offset=".756" stop-color="#C3C8CB"/><stop offset="1" stop-color="#BCC3C6"/></radialGradient><path fill="url(#C)" d="M11.82 42.23c-.17-.17-.27-.2-.4-.6-.04-.07-.06-.2-.08-.4-.02.22-.05.44-.1.5-.1.07-.3.1-.26.24.04.13.4-.08.6.1.03.05.13.1.24.17z"/><radialGradient id="D" cx="7.724" cy="29.323" r="3.846" gradientUnits="userSpaceOnUse" fy="29.323" fx="7.724"><stop offset="0"/><stop offset="1" stop-color="#8694A0"/></radialGradient><path fill="url(#D)" d="M7.25 28.53s-.68 0-1.33-.27c-.66-.28-1.4-.92-2-2.4.8 1.52 1.63 2.24 3.05 2.3 1.6.04 2.2-.46 2.2-.46.1.13-.27.6-.37 2.1-.1-.7-.17-1.27-.2-1.27-.1 0-.7.04-1.35 0z"/><radialGradient id="E" cx="8.768" cy="28.248" r="11.882" gradientUnits="userSpaceOnUse" fy="28.248" fx="8.768"><stop offset="0"/><stop offset="1" stop-color="#8694A0"/></radialGradient><path fill="url(#E)" d="M5.36 27.94c.83.63 3.2.82 3.68 0 0 0-.3.56-.28 1.5l.04.37c-.1-.7-.17-1.27-.22-1.27-.07 0-.7.04-1.33 0 0 0-.78-.02-1.43-.3l-.46-.3z"/><radialGradient id="F" cx="3.335" cy="18.107" r="4.934" gradientUnits="userSpaceOnUse" fy="18.107" fx="3.335"><stop offset="0" stop-color="#fff"/><stop offset=".704" stop-color="#8694A0"/></radialGradient><path fill="url(#F)" d="M.93 17.94c0-.34.5-.3.54-.2.03.14.83 1.77 1.34 2.96.52 1.2.9 2.14.9 2.14l-.03.66c-.38-1.13-1.16-2.94-1.93-4.18-.62-1-.8-1.38-.8-1.38z"/><radialGradient id="G" cx="21.785" cy="8.512" r="1.415" gradientUnits="userSpaceOnUse" fy="8.512" fx="21.785"><stop offset="0"/><stop offset=".468" stop-color="#020202"/><stop offset=".637" stop-color="#090908"/><stop offset=".757" stop-color="#141413"/><stop offset=".854" stop-color="#252524"/><stop offset=".936" stop-color="#3B3A38"/><stop offset="1" stop-color="#52514E"/></radialGradient><path fill="url(#G)" d="M23 7.23c.2 0-.36 0-.52.14-.16.16-.45.68-.66.96-.22.28-.5.6-.5.76 0 .16.1.24.27.18.14-.06.37-.47.6-.86.25-.4.34-.8.43-.9.1-.12.2-.3.36-.3z" opacity=".5"/><linearGradient id="H" x1="1.501" x2="1.501" y1="24.404" y2="24.175" gradientUnits="userSpaceOnUse"><stop offset=".006" stop-color="#fff"/><stop offset=".955" stop-color="#B7BEC4"/></linearGradient><path fill="url(#H)" d="M1.36 24.34c.1-.1.3-.1.3.04 0 .13-.07.2-.16.17-.1-.03-.23-.12-.14-.2z" opacity=".5"/><linearGradient id="I" x1="2.042" x2="2.323" y1="23.893" y2="23.893" gradientUnits="userSpaceOnUse"><stop offset=".006" stop-color="#fff"/><stop offset=".955" stop-color="#B7BEC4"/></linearGradient><path fill="url(#I)" d="M2.1 23.75c.13-.07.22.03.22.13s-.14.23-.22.16c-.07-.08-.08-.23 0-.3z" opacity=".5"/><linearGradient id="J" x1="2.977" x2="3.177" y1="23.559" y2="23.301" gradientUnits="userSpaceOnUse"><stop offset=".006" stop-color="#fff"/><stop offset=".955" stop-color="#B7BEC4"/></linearGradient><path fill="url(#J)" d="M2.68 23.47c.1-.12.67-.1.7 0 .02.12-.33.25-.58.2-.26-.03-.18-.1-.12-.2z" opacity=".5"/><linearGradient id="K" x1="1.603" x2="1.261" y1="23.883" y2="23.74" gradientUnits="userSpaceOnUse"><stop offset=".006" stop-color="#fff"/><stop offset=".955" stop-color="#B7BEC4"/></linearGradient><path fill="url(#K)" d="M1.85 23.75c.1.02-.07.32-.2.34-.15 0-.24-.04-.13-.17.08-.1.18-.2.33-.18z" opacity=".5"/><linearGradient id="L" x1="1.096" x2=".64" y1="24.449" y2="24.392" gradientUnits="userSpaceOnUse"><stop offset=".006" stop-color="#fff"/><stop offset=".955" stop-color="#B7BEC4"/></linearGradient><path fill="url(#L)" d="M1.23 24.18c.1 0-.02.14-.24.32-.23.18-.43.3-.27.06.17-.23.32-.4.5-.38z" opacity=".5"/><radialGradient id="M" cx="1.155" cy="25.202" r=".404" gradientUnits="userSpaceOnUse" fy="25.202" fx="1.155"><stop offset=".006" stop-color="#fff"/><stop offset=".955" stop-color="#B7BEC4"/></radialGradient><path fill="url(#M)" d="M1.03 24.92c.14-.02.36.2.4.3.03.12-.06.4-.13.34-.08-.05-.55-.6-.27-.64z" opacity=".5"/><linearGradient id="N" x1="1.998" x2="2.357" y1="24.605" y2="24.893" gradientUnits="userSpaceOnUse"><stop offset=".006" stop-color="#fff"/><stop offset=".187" stop-color="#F9F9F9"/><stop offset=".438" stop-color="#E6E7E8"/><stop offset=".682" stop-color="#CDD0D4"/><stop offset=".955" stop-color="#B7BEC4"/></linearGradient><path fill="url(#N)" d="M1.43 25.56c-.1.36-.15.2-.26.23-.1.02.05.2.2.14.2-.1.44-.73.8-1.12.37-.4.95-1.1 1.02-1.12l.05-.05c-.28.1-.77.28-1.1.57-.36.3-.55.67-.66.96l-.07.38z" opacity=".5"/><linearGradient id="O" x1="3.163" x2="3.441" y1="24.083" y2="24.282" gradientUnits="userSpaceOnUse"><stop offset=".006" stop-color="#fff"/><stop offset=".955" stop-color="#B7BEC4"/></linearGradient><path fill="url(#O)" d="M2.96 24.25c.13-.2.43-.45.54-.34.12.1-.13.4-.28.45-.15.06-.35.04-.26-.1z" opacity=".5"/><radialGradient id="P" cx="18.973" cy="10.345" r="1.157" gradientUnits="userSpaceOnUse" fy="10.345" fx="18.973"><stop offset=".006" stop-color="#fff"/><stop offset=".187" stop-color="#F9F9F9"/><stop offset=".438" stop-color="#E6E7E8"/><stop offset=".682" stop-color="#CDD0D4"/><stop offset=".955" stop-color="#B7BEC4"/></radialGradient><path fill="url(#P)" d="M17.96 9.68c.12-.12.88.54 1.2.23.16-.16.27-.5.6-.13.3.37.35.66.07 1.26-.3.6-.77.86-.94.32-.35-1.07-1.24-1.37-.93-1.67z" opacity=".4"/><radialGradient id="Q" cx="21.158" cy="9.112" r="2.259" gradientUnits="userSpaceOnUse" fy="9.112" fx="21.158"><stop offset=".006" stop-color="#fff"/><stop offset=".187" stop-color="#F9F9F9"/><stop offset=".438" stop-color="#E6E7E8"/><stop offset=".682" stop-color="#CDD0D4"/><stop offset=".955" stop-color="#B7BEC4"/></radialGradient><path fill="url(#Q)" d="M19.9 8.23c-.15.6.42.98.43 1.73.02.75-.56 1.44-.28 1.7.28.23.86-.2 1.4-1.14.55-.94.8-.98.6-1.15-.18-.16-.46.32-.7.15-.25-.17-.32-.45-.2-.67.1-.23.03-.43-.23-.23-.27.2-.5.3-.66.04-.15-.26 0-.58.07-.77.08-.2-.1-.18-.22-.05-.13.14-.17.26-.2.38z" opacity=".5"/><radialGradient id="R" cx="21.225" cy="6.406" r=".346" gradientUnits="userSpaceOnUse" fy="6.406" fx="21.225"><stop offset=".006" stop-color="#fff"/><stop offset=".187" stop-color="#F9F9F9"/><stop offset=".438" stop-color="#E6E7E8"/><stop offset=".682" stop-color="#CDD0D4"/><stop offset=".955" stop-color="#B7BEC4"/></radialGradient><path fill="url(#R)" d="M21.13 6.08c.14-.1.45-.07.4.18-.08.26-.42.64-.55.5-.13-.14-.02-.54.15-.68z" opacity=".5"/><radialGradient id="S" cx="22.794" cy="6.786" r=".335" gradientUnits="userSpaceOnUse" fy="6.786" fx="22.794"><stop offset=".006" stop-color="#fff"/><stop offset=".187" stop-color="#F9F9F9"/><stop offset=".438" stop-color="#E6E7E8"/><stop offset=".682" stop-color="#CDD0D4"/><stop offset=".955" stop-color="#B7BEC4"/></radialGradient><path fill="url(#S)" d="M22.5 6.68c.17-.25.38-.26.54-.17.23.13 0 .68-.22.6-.2-.07-.48-.16-.32-.42z" opacity=".5"/><radialGradient id="T" cx="17.103" cy="8.6" r=".705" gradientUnits="userSpaceOnUse" fy="8.6" fx="17.103"><stop offset=".006" stop-color="#fff"/><stop offset=".189" stop-color="#E9EBEC"/><stop offset=".52" stop-color="#B7BEC4"/><stop offset=".715" stop-color="#B7BEC4"/><stop offset="1" stop-color="#DFE0E2"/></radialGradient><path fill="url(#T)" d="M16.88 8.38c.13-.14.54.24.74.46.2.2.32.3.15.46-.16.17-.5-.26-.7-.44-.2-.17-.34-.33-.2-.48z" opacity=".5"/><g><radialGradient id="U" cx="20.955" cy="7.967" r="1.399" gradientUnits="userSpaceOnUse" fy="7.967" fx="20.955"><stop offset="0"/><stop offset=".468" stop-color="#020202"/><stop offset=".637" stop-color="#090908"/><stop offset=".757" stop-color="#141413"/><stop offset=".854" stop-color="#252524"/><stop offset=".936" stop-color="#3B3A38"/><stop offset="1" stop-color="#52514E"/></radialGradient><path fill="url(#U)" d="M20.72 7.68c-.23.48-.5.76-.27 1 .12.1.26-.02.44-.27.15-.2.77-1.07.97-1.35.2-.28.54-.67.74-.77-.08.02-.16.07-.24.14-.44.37-.68.7-1.1 1.36-.44.65-.62.84-.7.8-.05-.03.1-.32.23-.63.27-.66.52-.92.72-1.47.05-.13.07-.24.05-.34-.04.34-.62 1.06-.85 1.54z" opacity=".5"/><radialGradient id="V" cx="18.931" cy="8.224" r="1.747" gradientUnits="userSpaceOnUse" fy="8.224" fx="18.931"><stop offset="0"/><stop offset=".468" stop-color="#020202"/><stop offset=".637" stop-color="#090908"/><stop offset=".757" stop-color="#141413"/><stop offset=".854" stop-color="#252524"/><stop offset=".936" stop-color="#3B3A38"/><stop offset="1" stop-color="#52514E"/></radialGradient><path fill="url(#V)" d="M18.86 9.2c.17-.32.22-.52.43-.8-.33.4-.7 1-.82 1 .2.07.22.14.38-.2z" opacity=".5"/><radialGradient id="W" cx="22.869" cy="7.83" r="5.867" gradientUnits="userSpaceOnUse" fy="7.83" fx="22.869"><stop offset=".006" stop-color="#69757B"/><stop offset=".425" stop-color="#9AAFB6"/><stop offset="1" stop-color="#42484C"/></radialGradient><path fill="url(#W)" d="M23.17 7.65c-.33-.2-.5.17-.58.3-.1.13-.26.32.1.5.35.15-.27 1.2-1.1 2.54-.93 1.53-2 1.4-2.43 1.4-.1 0-.06.2.2.32.07-.1.34 0 .82-.1.48-.14.9-.6 1.38-1.3.48-.7.7-1.38.9-1.74.08-.17.24-.44.4-.7.18-.35.34-.7.34-.7.06-.12.17-.4-.05-.53z"/><linearGradient id="X" x1="16.523" x2="16.639" y1="8.445" y2="8.596" gradientUnits="userSpaceOnUse"><stop offset=".006" stop-color="#fff"/><stop offset=".187" stop-color="#F9F9F9"/><stop offset=".438" stop-color="#E6E7E8"/><stop offset=".682" stop-color="#CDD0D4"/><stop offset=".955" stop-color="#B7BEC4"/></linearGradient><path fill="url(#X)" d="M16.65 8.2c-.03.02-.07.04-.1.06-.2.15-.17.35-.05.56.02-.1.1-.2.12-.3.02-.1 0-.2.03-.32z" opacity=".5"/></g><g><radialGradient id="Y" cx="9.608" cy="11.973" r="1.009" gradientUnits="userSpaceOnUse" fy="11.973" fx="9.608"><stop offset="0" stop-color="#F8F8F8"/><stop offset=".405" stop-color="#D8DBDB"/><stop offset=".756" stop-color="#C3C8CB"/><stop offset="1" stop-color="#BCC3C6"/></radialGradient><path fill="url(#Y)" d="M9.96 11.97c-.1-.27 0-1.05 0-1.23l-.47-.03c-.22.58-.38 1.27-.2 1.58.2.4.75.18 1.13.08-.22-.02-.38-.15-.47-.4z"/></g><radialGradient id="Z" cx="10.67" cy="5.169" r="5.982" gradientUnits="userSpaceOnUse" fy="5.169" fx="10.67"><stop offset=".106" stop-color="#fff"/><stop offset=".788" stop-color="#8694A0"/></radialGradient><path fill="url(#Z)" d="M14.02 5.5c-.14 1.63-1.1 3.02-2.34 4.1-.9.8-1.74 1.32-2.43 1.27-.87-.07-1.6-1.02-2.27-2.17-.54-.93-.96-1.6-1-2.2-.04-.4.1-.43.07-.98-.04-.64.03-1.35.18-1.95C6.7 1.67 8 .47 10 .6c2.94.2 4.32 1.55 4.02 4.9z"/></g></g></svg>