<svg xmlns="http://www.w3.org/2000/svg" width="24" height="24" xmlns:xlink="http://www.w3.org/1999/xlink" version="1"><defs><linearGradient id="f"><stop offset="0" stop-color="#729fcf"/><stop offset="1" stop-color="#3465a4"/></linearGradient><linearGradient id="e"><stop offset="0" stop-color="#97ff32"/><stop offset="1" stop-color="#6c0"/></linearGradient><linearGradient><stop offset="0" stop-color="#ffab00"/><stop offset="1" stop-color="#f30"/></linearGradient><linearGradient id="d"><stop offset="0" stop-color="#2e3436"/><stop offset="1" stop-color="#888a85"/></linearGradient><linearGradient id="c"><stop offset="0" stop-color="#babdb6"/><stop offset="1" stop-color="#2e3436"/></linearGradient><linearGradient id="b"><stop offset="0" stop-color="#fff"/><stop offset=".5" stop-color="#fff"/><stop offset="1" stop-color="#d5d5d0"/></linearGradient><linearGradient id="a"><stop offset="0" stop-color="#d3d7cf"/><stop offset="1" stop-color="#888a85"/></linearGradient><linearGradient id="g" x1="2.56" x2="21.856" y1="12.398" y2="15.732" xlink:href="#a" gradientUnits="userSpaceOnUse"/><radialGradient id="h" cx="9.413" cy="3.31" r="11.675" xlink:href="#b" fx="9.413" fy="3.31" gradientTransform="matrix(.689 .796 -.505 .437 4.601 -4.583)" gradientUnits="userSpaceOnUse"/><linearGradient id="i" x1="6.5" x2="22.036" y1="8.811" y2="8.811" xlink:href="#c" gradientUnits="userSpaceOnUse" gradientTransform="translate(.405 .536)"/><linearGradient id="j" x1="3.857" x2="10.607" y1="2.5" y2="9.154" xlink:href="#d" gradientUnits="userSpaceOnUse" gradientTransform="translate(.179)"/><linearGradient id="k" x1="3.857" x2="10.607" y1="2.5" y2="9.154" xlink:href="#d" gradientUnits="userSpaceOnUse" gradientTransform="translate(5.381 -2.002)"/><linearGradient x1="6.942" x2="13.122" y1="1.912" y2="7.985" xlink:href="#e" gradientUnits="userSpaceOnUse"/><linearGradient id="l" x1="12.324" x2="18.099" y1="1.019" y2="6.675" xlink:href="#f" gradientUnits="userSpaceOnUse"/></defs><g><path fill="url(#g)" fill-rule="evenodd" stroke="#2e3436" d="M.5 5.6C.48 7.85.3 9.5.86 11.46c2.47 3.1 6.25 8.1 10 12 2.77.32 7.56-.45 10.54-3.47 3.05-3.1 1.76-9.16 1.56-10-.6-2.64-4.8-8.3-9.2-9.42C8.3.25 3.9 1.76.5 5.58z"/><path fill="url(#h)" fill-rule="evenodd" d="M1.15 5.94C2.7 7.96 9.55 13.82 11.7 19.4c3.06.7 6.54-.56 8.04-1.73 2.6-2.02 3.12-6.63 2.8-7.44-1.25-3.28-4.02-7.52-8.9-9.17C7.47.52 3.6 3.08 1.15 5.94z"/><path fill="none" stroke="url(#i)" d="M6.8 12.13c2.7-3.06 11.14-5.7 15.14-4.7"/><path fill="none" stroke="url(#j)" d="M4.18 3c3.04 1.6 4.63 3.6 6.58 6.12" stroke-linecap="round"/><path fill="none" stroke="url(#k)" d="M9.38 1c3.04 1.6 4.63 3.6 6.58 6.1" stroke-linecap="round"/><path fill="url(#l)" fill-rule="evenodd" stroke="#204a87" d="M8.93.78c2.4 1.67 5.28 4.05 7.2 6.8 1.98-.37 3.85-.42 5.66-.3-1.67-2.53-4.36-5.46-7.93-6.8-1.55.06-3.4.1-4.94.3z" stroke-linejoin="bevel"/></g></svg>