<svg xmlns="http://www.w3.org/2000/svg" width="48" height="48" xmlns:i="&ns_ai;" xmlns:xlink="http://www.w3.org/1999/xlink" version="1"><defs><linearGradient id="c" x1="38.184" x2="46.445" y1="88.894" y2="97.753" gradientUnits="userSpaceOnUse"><stop offset="0" stop-color="#B10A0A"/><stop offset="1" stop-color="#B10A0A"/></linearGradient><linearGradient id="b"><stop offset="0"/><stop offset="1" stop-color="#696969"/></linearGradient><radialGradient id="a" cx="23.909" cy="267.666" r="19.809" gradientUnits="userSpaceOnUse" fy="267.666" fx="23.909"><stop offset="0" stop-color="#f5f4f4" stop-opacity=".691"/><stop offset="1" stop-color="#fff" stop-opacity="0"/></radialGradient><radialGradient id="e" cx="23.909" cy="267.666" r="19.809" xlink:href="#a" gradientUnits="userSpaceOnUse" fx="23.909" fy="267.666" gradientTransform="matrix(-1.121 0 0 -.909 50.872 257.397)"/><linearGradient id="d" x1="43.305" x2="9.767" y1="45.451" y2="16.466" xlink:href="#b" gradientUnits="userSpaceOnUse"/><linearGradient id="f" x1="38.184" x2="46.445" y1="88.894" y2="97.753" xlink:href="#c" gradientUnits="userSpaceOnUse" gradientTransform="matrix(1.195 0 0 1.195 -6.936 -103.272)"/></defs><g><path stroke="url(#d)" stroke-width="2" d="M24.05 45.9h19c.4 0 .73-.22.9-.54 1.5-3 2.36-6.4 2.36-10 0-12.3-9.96-22.26-22.25-22.26-12.3 0-22.27 9.97-22.27 22.27 0 3.6.86 7 2.37 10 .17.3.5.53.9.53h19z" i:knockout="Off"/><path d="M24.05 44.96h17.92c.37 0 .68-.2.84-.5 1.44-2.83 2.24-6.04 2.24-9.43 0-11.6-9.4-21-21-21s-20.98 9.4-20.98 21c0 3.4.8 6.6 2.22 9.43.17.3.48.5.84.5h17.93z" i:knockout="Off" opacity=".6"/><path fill="none" stroke="#cfeb87" d="M43.2 40.47l-3-.8" i:knockout="Off"/><path fill="none" stroke="#cfeb87" d="M43.2 30.2l-2.92.8" i:knockout="Off"/><path fill="none" stroke="#cfeb87" d="M38.05 21.34L36 23.4" i:knockout="Off"/><path fill="none" stroke="#cfeb87" d="M29.18 16.2l-.75 2.8" i:knockout="Off"/><path fill="none" stroke="#cfeb87" d="M18.92 16.2l.75 2.8" i:knockout="Off"/><path fill="none" stroke="#cfeb87" d="M10.05 21.34l2.07 2.07" i:knockout="Off"/><path fill="none" stroke="#cfeb87" d="M4.9 30.2l2.92.8" i:knockout="Off"/><path fill="none" stroke="#cfeb87" d="M4.9 40.47l3-.8" i:knockout="Off"/><path fill="url(#e)" d="M38.9 23.05c0 4.97-6.65 9-14.85 9s-14.84-4.03-14.84-9c0-4.98 7.87-9 14.85-9 7.1 0 14.84 4.02 14.84 9z" i:knockout="Off"/><path d="M33.07 6.67H43.7" i:knockout="Off"/><path fill="url(#f)" stroke="#fff" stroke-width=".5" d="M30.26 2.27V6h-3.74v2.73h3.74v3.6h2.58v-3.6h3.73V6h-3.73V2.27h-2.58zm11.17 0V6H37.7v2.73h3.73v3.6h2.6v-3.6h3.7V6h-3.7V2.27h-2.6z"/><g><path fill="#fa100c" stroke="#fff" stroke-width=".7966499999999999" d="M28.7 30.43c-1.15-.37-2.36-.57-3.6-.57-6.4 0-11.62 5.22-11.62 11.63h-3.4c0-8.3 6.74-15.04 15.03-15.04 2.1 0 4.18.44 6.1 1.28v-.02l2.4-4.02.4 8.88-8.98.64 3.7-2.8z" i:knockout="Off"/></g><path fill="#fff" stroke="#f7cc80" stroke-width=".49945999999999996" d="M38.75 28.97l-14.48 15.4-.92-.92 15.4-14.48z" i:knockout="Off"/></g></svg>