<svg xmlns="http://www.w3.org/2000/svg" width="48" height="48" xmlns:ns="&ns_ai;" xmlns:xlink="http://www.w3.org/1999/xlink"><defs><linearGradient id="n"><stop offset="0" stop-color="#bed3e9"/><stop offset="1" stop-color="#729fcf" stop-opacity="0"/></linearGradient><linearGradient id="m"><stop offset="0" stop-color="#204a87"/><stop offset="1" stop-color="#204a87" stop-opacity="0"/></linearGradient><radialGradient id="l" cx="14.31" cy="485.416" r="4.065" gradientUnits="userSpaceOnUse" fy="485.416" fx="14.31"><stop offset="0" stop-color="#fff"/><stop offset=".685" stop-color="#2E659E"/><stop offset="1" stop-color="#1D3E63"/></radialGradient><radialGradient id="k" cx="40.541" cy="486.093" r="2.869" gradientUnits="userSpaceOnUse" gradientTransform="matrix(-1 0 0 1 55.359 0)" fy="486.093" fx="40.541"><stop offset="0" stop-color="#fff"/><stop offset=".004" stop-color="#FDFDFE"/><stop offset=".107" stop-color="#C7D5E5"/><stop offset=".212" stop-color="#98B3CF"/><stop offset=".315" stop-color="#7297BD"/><stop offset=".417" stop-color="#5481B0"/><stop offset=".517" stop-color="#3F72A6"/><stop offset=".615" stop-color="#3268A0"/><stop offset=".708" stop-color="#2E659E"/><stop offset="1" stop-color="#193766"/></radialGradient><linearGradient id="j"><stop offset="0" stop-color="#74726e"/><stop offset="1" stop-color="#5d5b58" stop-opacity="0"/></linearGradient><linearGradient id="i"><stop offset="0" stop-color="#5d5b58"/><stop offset="1" stop-color="#5d5b58" stop-opacity="0"/></linearGradient><linearGradient id="h"><stop offset="0" stop-color="#888a85"/><stop offset="1" stop-color="#51534f"/></linearGradient><linearGradient id="g"><stop offset="0" stop-color="#2e3436" stop-opacity=".619"/><stop offset="1" stop-color="#2e3436" stop-opacity="0"/></linearGradient><linearGradient id="e"><stop offset="0" stop-color="#fff"/><stop offset="1" stop-color="#fff" stop-opacity="0"/></linearGradient><linearGradient id="d"><stop offset="0" stop-color="#fff"/><stop offset="1" stop-color="#fff" stop-opacity="0"/></linearGradient><linearGradient id="c"><stop offset="0" stop-color="#fff"/><stop offset="1" stop-color="#fff" stop-opacity="0"/></linearGradient><linearGradient id="b"><stop offset="0" stop-color="#fff"/><stop offset="1" stop-color="#fff" stop-opacity="0"/></linearGradient><linearGradient id="a"><stop offset="0" stop-color="#fff"/><stop offset="1" stop-color="#fff" stop-opacity="0"/></linearGradient><linearGradient id="f"><stop offset="0" stop-color="#fff"/><stop offset="1" stop-color="#fff" stop-opacity="0"/></linearGradient><linearGradient id="q" x1="287.517" x2="289.676" y1="-439.753" y2="-436.322" xlink:href="#a" gradientUnits="userSpaceOnUse"/><linearGradient id="r" x1="286.512" x2="289.854" y1="-441.291" y2="-436.145" xlink:href="#b" gradientUnits="userSpaceOnUse"/><linearGradient id="s" x1="285.941" x2="289.391" y1="-439.939" y2="-436.443" xlink:href="#c" gradientUnits="userSpaceOnUse"/><linearGradient id="t" x1="275.942" x2="279.975" y1="-437.105" y2="-431.918" xlink:href="#d" gradientUnits="userSpaceOnUse"/><linearGradient id="u" x1="286.666" x2="289.766" y1="-439.484" y2="-436.707" xlink:href="#e" gradientUnits="userSpaceOnUse"/><linearGradient id="v" x1="284.802" x2="288.9" y1="-441.233" y2="-436.831" xlink:href="#c" gradientUnits="userSpaceOnUse"/><linearGradient id="B" x1="286.415" x2="290.078" y1="-435.784" y2="-439.289" xlink:href="#c" gradientUnits="userSpaceOnUse"/><linearGradient id="A" x1="286.295" x2="289.395" y1="-435.628" y2="-438.19" xlink:href="#e" gradientUnits="userSpaceOnUse"/><linearGradient id="z" x1="276.614" x2="283.463" y1="-431" y2="-438.722" xlink:href="#f" gradientUnits="userSpaceOnUse"/><linearGradient id="y" x1="286.014" x2="288.375" y1="-435.546" y2="-438.971" xlink:href="#c" gradientUnits="userSpaceOnUse"/><linearGradient id="x" x1="287.147" x2="289.473" y1="-434.809" y2="-437.594" xlink:href="#b" gradientUnits="userSpaceOnUse"/><linearGradient id="w" x1="286.246" x2="290.121" y1="-434.732" y2="-439.69" xlink:href="#a" gradientUnits="userSpaceOnUse"/><linearGradient id="D" x1="271.022" x2="285.029" y1="-441.052" y2="-431.97" xlink:href="#f" gradientUnits="userSpaceOnUse" gradientTransform="matrix(1.452 0 0 1.286 -383.21 574.384)"/><linearGradient id="C" x1="286.415" x2="288.375" y1="-435.784" y2="-437.888" xlink:href="#c" gradientUnits="userSpaceOnUse"/><radialGradient id="o" cx="23.335" cy="44.42" r="18.562" xlink:href="#g" fx="23.335" fy="44.42" gradientTransform="matrix(1 0 0 .193 0 35.854)" gradientUnits="userSpaceOnUse"/><linearGradient id="p" x1="20.73" x2="23.296" y1="29.815" y2="45.056" xlink:href="#h" gradientUnits="userSpaceOnUse" gradientTransform="matrix(.989 0 0 .989 .265 .251)"/><linearGradient id="E" x1="29.124" x2="27.356" y1="38.897" y2="34.879" xlink:href="#i" gradientUnits="userSpaceOnUse"/><linearGradient id="F" x1="29.124" x2="27.356" y1="38.897" y2="34.879" xlink:href="#j" gradientUnits="userSpaceOnUse" gradientTransform="matrix(.917 -.399 .399 .917 -4.08 7.972)"/><radialGradient id="I" cx="40.541" cy="486.093" r="2.869" xlink:href="#k" gradientUnits="userSpaceOnUse" gradientTransform="matrix(-1 0 0 1 55.359 0)" fx="40.541" fy="486.093"/><radialGradient id="J" cx="14.31" cy="485.416" r="4.065" xlink:href="#l" gradientUnits="userSpaceOnUse" fx="14.31" fy="485.416"/><radialGradient id="M" cx="40.541" cy="486.093" r="2.869" xlink:href="#k" gradientUnits="userSpaceOnUse" gradientTransform="matrix(-1 0 0 1 55.359 0)" fx="40.541" fy="486.093"/><radialGradient id="N" cx="14.31" cy="485.416" r="4.065" xlink:href="#l" gradientUnits="userSpaceOnUse" fx="14.31" fy="485.416"/><radialGradient id="Q" cx="40.541" cy="486.093" r="2.869" xlink:href="#k" gradientUnits="userSpaceOnUse" gradientTransform="matrix(-1 0 0 1 55.359 0)" fx="40.541" fy="486.093"/><radialGradient id="R" cx="14.31" cy="485.416" r="4.065" xlink:href="#l" gradientUnits="userSpaceOnUse" fx="14.31" fy="485.416"/><linearGradient id="O" x1="10.607" x2="20.978" y1="22.485" y2="35.567" xlink:href="#m" gradientUnits="userSpaceOnUse"/><linearGradient id="P" x1="11.08" x2="16.999" y1="24.189" y2="32.91" xlink:href="#n" gradientUnits="userSpaceOnUse"/><linearGradient id="K" x1="10.607" x2="20.978" y1="22.485" y2="35.567" xlink:href="#m" gradientUnits="userSpaceOnUse"/><linearGradient id="L" x1="11.08" x2="16.999" y1="24.189" y2="32.91" xlink:href="#n" gradientUnits="userSpaceOnUse"/><linearGradient id="G" x1="10.607" x2="20.978" y1="22.485" y2="35.567" xlink:href="#m" gradientUnits="userSpaceOnUse"/><linearGradient id="H" x1="11.08" x2="16.999" y1="24.189" y2="32.91" xlink:href="#n" gradientUnits="userSpaceOnUse"/></defs><g><path fill="url(#o)" fill-rule="evenodd" d="M41.9 44.42a18.56 3.58 0 1 1-37.13 0 18.56 3.58 0 1 1 37.13 0z" transform="matrix(1.148 0 0 1.148 -3.457 -6.581)" color="#000" overflow="visible"/><path fill="#c4c5c2" stroke="url(#p)" stroke-width="1.5" stroke-miterlimit="2" d="M43.5 22.88c.55.86 1.58 2.9 1.58 3.94 0 2.25-1.46 4.13-3.53 5.16.27.7.52 1.4.52 2.16 0 3.68-3.38 6.66-7.53 6.66-1.26 0-2.4-.35-3.44-.83-.92 2.76-3.7 4.82-7.1 4.82-3.43 0-6.2-2.07-7.12-4.83-1.04.48-2.17.83-3.43.83-4.16 0-7.54-2.98-7.54-6.66 0-.77.26-1.47.53-2.16-2.07-1.03-3.53-2.9-3.53-5.16 0-1.2.4-4 1-5-.65-.96-.98-2-.98-3.08 0-2.24 1.46-4.13 3.53-5.16-.27-.7-.52-1.4-.52-2.16 0-3.67 3.38-6.65 7.53-6.65 1.26 0 2.4.34 3.44.83.92-2.76 3.7-4.83 7.1-4.83 3.43 0 6.2 2.07 7.12 4.83 1.04-.5 2.17-.83 3.43-.83 4.16 0 7.54 2.98 7.54 6.65 0 .77-.26 1.47-.53 2.16 2.07 1.03 3.53 2.92 3.53 5.16 0 1.02-1.08 3.3-1.6 4.14z"/><g><path fill="#c4c5c2" d="M29.22 7.26a5.33 4.7 0 1 1-10.66 0 5.33 4.7 0 1 1 10.66 0z"/><path fill="url(#q)" d="M291.7-437.6a3.3 3.3 0 1 1-6.64 0 3.3 3.3 0 1 1 6.63 0z" transform="matrix(1.61 0 0 1.423 -440.098 629.523)"/></g><path fill="#c4c5c2" d="M9.56 10.66h30.46v12.12H9.56z"/><path fill="#c4c5c2" d="M14.13 18.74a4.57 4.04 0 1 1-9.14 0 4.57 4.04 0 1 1 9.13 0z"/><g><path fill="#c4c5c2" d="M39.88 11.3a5.33 4.7 0 1 1-10.66 0 5.33 4.7 0 1 1 10.66 0z"/><path fill="url(#r)" d="M291.7-437.6a3.3 3.3 0 1 1-6.64 0 3.3 3.3 0 1 1 6.63 0z" transform="matrix(1.61 0 0 1.423 -429.437 633.561)"/></g><g><path fill="#c4c5c2" d="M18.56 11.3a5.33 4.7 0 1 1-10.66 0 5.33 4.7 0 1 1 10.66 0z"/><path fill="url(#s)" d="M291.7-437.6a3.3 3.3 0 1 1-6.64 0 3.3 3.3 0 1 1 6.63 0z" transform="matrix(1.61 0 0 1.423 -450.759 633.561)"/></g><g><path fill="#c4c5c2" d="M22.46 6.67c-5.46 0-9.86 3.93-9.86 8.75 0 3.2 2.06 5.83 4.95 7.36h9.86c2.9-1.53 4.96-4.22 4.96-7.4 0-4.82-4.45-8.7-9.9-8.7z"/><path fill="url(#t)" d="M280.5-441c-3.6 0-6.5 2.9-6.5 6.5 0 2.38 1.34 4.37 3.25 5.5h6.5c1.9-1.13 3.25-3.12 3.25-5.5 0-3.6-2.9-6.5-6.5-6.5z" transform="matrix(1.523 0 0 1.346 -404.767 600.095)"/></g><path fill="url(#u)" d="M291.7-437.6a3.3 3.3 0 1 1-6.64 0 3.3 3.3 0 1 1 6.63 0z" transform="matrix(1.38 0 0 1.219 -388.27 552.068)"/><g><path fill="#c4c5c2" d="M35.34 17.4a6.1 5.38 0 1 1-12.2 0 6.1 5.38 0 1 1 12.2 0z"/><path fill="url(#v)" d="M291.7-437.6a3.3 3.3 0 1 1-6.64 0 3.3 3.3 0 1 1 6.63 0z" transform="matrix(1.84 0 0 1.626 -501.082 728.499)"/></g><g><path fill="#c4c5c2" d="M29.2 38.4c0-3.64-4.44-5.9-8-4.1-1.64.85-2.66 2.4-2.66 4.1 0 3.62 4.45 5.88 8 4.07 1.65-.84 2.66-2.4 2.66-4.08z"/><path fill="url(#w)" d="M291.7-437.6a3.3 3.3 0 1 1-6.64 0 3.3 3.3 0 1 1 6.63 0z" transform="matrix(1.61 0 0 -1.423 -440.116 -583.874)"/></g><path fill="#c4c5c2" d="M9.54 35H40V22.86H9.54z"/><path fill="#c4c5c2" d="M14.1 26.9c0-3.1-3.8-5.04-6.85-3.5-1.4.74-2.28 2.07-2.28 3.5 0 3.12 3.8 5.06 6.85 3.5 1.42-.7 2.3-2.05 2.3-3.5z"/><g><path fill="#c4c5c2" d="M39.87 34.35c0-3.62-4.45-5.9-8-4.08-1.65.85-2.66 2.4-2.66 4.08 0 3.63 4.45 5.9 8 4.08 1.65-.84 2.67-2.4 2.67-4.08z"/><path fill="url(#x)" d="M291.7-437.6a3.3 3.3 0 1 1-6.64 0 3.3 3.3 0 1 1 6.63 0z" transform="matrix(1.61 0 0 -1.423 -429.455 -587.912)"/></g><g><path fill="#c4c5c2" d="M18.54 34.35c0-3.62-4.44-5.9-8-4.08-1.64.85-2.66 2.4-2.66 4.08 0 3.63 4.44 5.9 8 4.08 1.64-.84 2.66-2.4 2.66-4.08z"/><path fill="url(#y)" d="M291.7-437.6a3.3 3.3 0 1 1-6.64 0 3.3 3.3 0 1 1 6.63 0z" transform="matrix(1.61 0 0 -1.423 -450.777 -587.912)"/></g><g><path fill="#c4c5c2" d="M22.44 38.98c-5.45 0-9.86-3.93-9.86-8.75 0-3.2 2.06-5.83 4.96-7.36h9.85c2.88 1.53 4.94 4.22 4.94 7.4 0 4.82-4.45 8.7-9.9 8.7z"/><path fill="url(#z)" d="M280.5-441c-3.6 0-6.5 2.9-6.5 6.5 0 2.38 1.34 4.37 3.25 5.5h6.5c1.9-1.13 3.25-3.12 3.25-5.5 0-3.6-2.9-6.5-6.5-6.5z" transform="matrix(1.523 0 0 -1.346 -404.786 -554.446)"/></g><path fill="url(#A)" d="M291.7-437.6a3.3 3.3 0 1 1-6.64 0 3.3 3.3 0 1 1 6.63 0z" transform="matrix(1.38 0 0 -1.219 -388.288 -506.418)"/><g><path fill="#c4c5c2" d="M31.23 25.53c0-4.14-5.08-6.73-9.14-4.66-1.9.96-3.06 2.74-3.06 4.66 0 4.14 5.08 6.73 9.14 4.66 1.9-.97 3.05-2.75 3.05-4.67z"/><path fill="url(#B)" d="M291.7-437.6a3.3 3.3 0 1 1-6.64 0 3.3 3.3 0 1 1 6.63 0z" transform="matrix(1.84 0 0 -1.626 -505.191 -685.56)"/></g><g><path fill="#c4c5c2" d="M40.85 22.57c0-4.15-5.07-6.74-9.14-4.66-1.87.97-3.03 2.74-3.03 4.67 0 4.14 5.08 6.73 9.14 4.66 1.9-.96 3.05-2.74 3.05-4.66z"/><path fill="url(#C)" d="M291.7-437.6a3.3 3.3 0 1 1-6.64 0 3.3 3.3 0 1 1 6.63 0z" transform="matrix(1.84 0 0 -1.626 -495.565 -688.522)"/></g><path fill="url(#D)" stroke="#fff" stroke-opacity=".502" stroke-miterlimit="2" d="M5.5 22.05c-1 .98-1.17 3.52-1.17 4.97 0 1.9 1.6 3.58 3.53 4.5-.25.64-.64 1.48-.64 2.18 0 3.35 2.76 5.93 6.7 5.93 1.18 0 2.65-.7 3.62-1.16.98 3.23 3.1 5.2 6.28 5.2s5.6-2.05 6.55-5.17c.97.44 2.77 1.16 3.95 1.16 3.86 0 6.33-2.6 6.33-5.96 0-.7-.42-1.7-.67-2.3 1.92-.95 3.54-2.33 3.54-4.38 0-1.34-.85-2.48-1.76-4.06.88-1.6 1.77-2.98 1.77-4.4 0-2.04-1.6-3.42-3.53-4.36.25-.62.67-1.6.67-2.3C40.67 8.53 37.6 6 33.74 6c-1.17 0-2.4.63-3.36 1.07-.94-3.13-3.26-4.93-6.44-4.93-3.18 0-5.4 1.72-6.38 4.95-.97-.45-2.25-1.08-3.42-1.08-3.94 0-6.9 2.5-6.9 5.85 0 .7.4 1.7.64 2.33-1.92.94-3.54 2.43-3.54 4.34 0 1.4.23 2.5 1.17 3.48z"/><path fill="#888a85" fill-rule="evenodd" d="M42.56 12.4c0 3.54-4.87 4.9-4.87 4.9s3.5-2.14 3.47-4.87c0 0 1.4-.02 1.4-.02z"/><path fill="url(#E)" fill-rule="evenodd" d="M31.8 41.03c-3.83-.63-4.44-6.15-4.44-6.15s1.7 4.18 4.68 4.64c0 0-.23 1.5-.23 1.5z"/><path fill="url(#F)" fill-rule="evenodd" d="M41.46 32.9c-3.76.95-6.53-3.87-6.53-3.87s3.23 3.14 6.14 2.38c0 0 .4 1.5.4 1.5z"/><g fill-rule="evenodd"><path fill="url(#G)" d="M14.26 21.48c.14 6.78 3.5 10.24 8.84 12.97l-4.36 3.65c-5.32-1.74-9.7-4.9-12.38-13.43l7.9-3.2z" transform="matrix(-.396 .918 -.918 -.396 53.873 9.814)"/><path fill="url(#H)" d="M13.43 23.3c-.34 4.27 1.56 6.67 4.75 8.73l-3 2.02c-3.23-1.44-5.78-3.7-6.93-9.26l5.18-1.5z" transform="matrix(-.396 .918 -.918 -.396 53.873 9.814)"/></g><g transform="matrix(1.685 -.419 .419 1.685 -201.183 -804.311)"><circle cx="15.3" cy="487.164" r="2.072" fill="none" stroke="#152a4c" stroke-width=".864" ns:knockout="Off"/><circle cx="15.3" cy="487.164" r="2.072" fill="url(#I)" ns:knockout="Off"/><g ns:knockout="Off"><radialGradient cx="14.31" cy="485.416" r="4.065" fx="14.31" fy="485.416" gradientUnits="userSpaceOnUse"><stop offset="0" stop-color="#fff"/><stop offset=".685" stop-color="#2E659E"/><stop offset="1" stop-color="#1D3E63"/></radialGradient><path fill="url(#J)" d="M13.23 487.16c0 1.15.93 2.08 2.07 2.08.55 0 1.07-.22 1.46-.6.4-.4.6-.92.6-1.48 0-.55-.2-1.07-.6-1.46-.4-.4-.9-.6-1.46-.6-1.14 0-2.07.92-2.07 2.06zm.15 0c0-1.06.86-1.92 1.92-1.92.5 0 1 .2 1.36.57.36.37.56.85.56 1.36 0 .5-.2 1-.56 1.36-.36.36-.85.56-1.36.56-1.06 0-1.92-.86-1.92-1.92z" ns:knockout="Off"/></g></g><g fill-rule="evenodd"><path fill="url(#K)" d="M14.26 21.48c.14 6.78 3.5 10.24 8.84 12.97l-4.36 3.65c-5.32-1.74-9.7-4.9-12.38-13.43l7.9-3.2z" transform="matrix(-.5 -.866 .866 -.5 16.095 53.321)"/><path fill="url(#L)" d="M13.43 23.3c-.34 4.27 1.56 6.67 4.75 8.73l-3 2.02c-3.23-1.44-5.78-3.7-6.93-9.26l5.18-1.5z" transform="matrix(-.5 -.866 .866 -.5 16.095 53.321)"/></g><g transform="matrix(1.685 -.419 .419 1.685 -198.708 -781.33)"><circle cx="15.3" cy="487.164" r="2.072" fill="none" stroke="#152a4c" stroke-width=".864" ns:knockout="Off"/><circle cx="15.3" cy="487.164" r="2.072" fill="url(#M)" ns:knockout="Off"/><g ns:knockout="Off"><radialGradient cx="14.31" cy="485.416" r="4.065" gradientUnits="userSpaceOnUse" fy="485.416" fx="14.31"><stop offset="0" stop-color="#fff"/><stop offset=".685" stop-color="#2E659E"/><stop offset="1" stop-color="#1D3E63"/></radialGradient><path fill="url(#N)" d="M13.23 487.16c0 1.15.93 2.08 2.07 2.08.55 0 1.07-.22 1.46-.6.4-.4.6-.92.6-1.48 0-.55-.2-1.07-.6-1.46-.4-.4-.9-.6-1.46-.6-1.14 0-2.07.92-2.07 2.06zm.15 0c0-1.06.86-1.92 1.92-1.92.5 0 1 .2 1.36.57.36.37.56.85.56 1.36 0 .5-.2 1-.56 1.36-.36.36-.85.56-1.36.56-1.06 0-1.92-.86-1.92-1.92z" ns:knockout="Off"/></g></g><g fill-rule="evenodd"><path fill="url(#O)" d="M14.26 21.48c.14 6.78 3.5 10.24 8.84 12.97l-4.36 3.65c-5.32-1.74-9.7-4.9-12.38-13.43l7.9-3.2z"/><path fill="url(#P)" d="M13.43 23.3c-.34 4.27 1.56 6.67 4.75 8.73l-3 2.02c-3.23-1.44-5.78-3.7-6.93-9.26l5.18-1.5z"/></g><g transform="matrix(1.685 -.419 .419 1.685 -219.921 -792.055)"><circle cx="15.3" cy="487.164" r="2.072" fill="none" stroke="#152a4c" stroke-width=".864" ns:knockout="Off"/><circle cx="15.3" cy="487.164" r="2.072" fill="url(#Q)" ns:knockout="Off"/><g ns:knockout="Off"><radialGradient cx="14.31" cy="485.416" r="4.065" fx="14.31" fy="485.416" gradientUnits="userSpaceOnUse"><stop offset="0" stop-color="#fff"/><stop offset=".685" stop-color="#2E659E"/><stop offset="1" stop-color="#1D3E63"/></radialGradient><path fill="url(#R)" d="M13.23 487.16c0 1.15.93 2.08 2.07 2.08.55 0 1.07-.22 1.46-.6.4-.4.6-.92.6-1.48 0-.55-.2-1.07-.6-1.46-.4-.4-.9-.6-1.46-.6-1.14 0-2.07.92-2.07 2.06zm.15 0c0-1.06.86-1.92 1.92-1.92.5 0 1 .2 1.36.57.36.37.56.85.56 1.36 0 .5-.2 1-.56 1.36-.36.36-.85.56-1.36.56-1.06 0-1.92-.86-1.92-1.92z" ns:knockout="Off"/></g></g></g></svg>