<svg xmlns="http://www.w3.org/2000/svg" width="48" height="48" viewBox="0 0 28.521 46.67" overflow="visible" enable-background="new 0 0 28.521 46.67" version="1"><defs><linearGradient id="a" x1=".453" x2="28.068" y1="42.968" y2="42.968" gradientUnits="userSpaceOnUse"><stop offset=".006" stop-color="#AFBBC2"/><stop offset=".539" stop-color="#DCE6E9"/><stop offset="1" stop-color="#AFBBC2"/></linearGradient><linearGradient id="b" x1="-1.381" x2="33.193" y1="32.395" y2="48.468" gradientUnits="userSpaceOnUse"><stop offset="0" stop-color="#F5F6F6"/><stop offset="1" stop-color="#6C7680"/></linearGradient><linearGradient id="c" x1="4.109" x2="24.412" y1="23.03" y2="23.03" gradientUnits="userSpaceOnUse"><stop offset="0" stop-color="#709EC3"/><stop offset=".036" stop-color="#88AECD"/><stop offset=".101" stop-color="#ACC7DC"/><stop offset=".169" stop-color="#CADBE9"/><stop offset=".241" stop-color="#E2EBF3"/><stop offset=".318" stop-color="#F2F6FA"/><stop offset=".403" stop-color="#FCFDFE"/><stop offset=".511" stop-color="#fff"/><stop offset=".617" stop-color="#FCFDFE"/><stop offset=".698" stop-color="#F2F6FA"/><stop offset=".77" stop-color="#E2EBF3"/><stop offset=".839" stop-color="#CBDCE9"/><stop offset=".903" stop-color="#ADC7DD"/><stop offset=".964" stop-color="#89AFCD"/><stop offset="1" stop-color="#709EC3"/></linearGradient><linearGradient id="d" x1="12.77" x2="13.77" y1="16.331" y2="40.414" gradientUnits="userSpaceOnUse"><stop offset="0" stop-color="#FAAF3D"/><stop offset=".309" stop-color="#F5F6F6"/><stop offset=".551" stop-color="#FAAF3D"/><stop offset="1" stop-color="#F17912"/></linearGradient><linearGradient id="e" x1="2.672" x2="4.997" y1="22.577" y2="22.577" gradientUnits="userSpaceOnUse"><stop offset="0" stop-color="#97A6B3"/><stop offset=".309" stop-color="#F5F6F6"/><stop offset=".551" stop-color="#F5F6F6"/><stop offset="1" stop-color="#6C7680"/></linearGradient><linearGradient id="f" x1="23.558" x2="25.883" y1="22.399" y2="22.399" gradientUnits="userSpaceOnUse"><stop offset="0" stop-color="#97A6B3"/><stop offset=".309" stop-color="#F5F6F6"/><stop offset=".551" stop-color="#F5F6F6"/><stop offset="1" stop-color="#6C7680"/></linearGradient><linearGradient id="g" x1=".4" x2="28.121" y1="8.11" y2="8.11" gradientUnits="userSpaceOnUse"><stop offset=".006" stop-color="#AFBBC2"/><stop offset=".539" stop-color="#DCE6E9"/><stop offset="1" stop-color="#AFBBC2"/></linearGradient><linearGradient id="h" x1="-.011" x2="34.881" y1="-4.36" y2="18.1" gradientUnits="userSpaceOnUse"><stop offset="0" stop-color="#fff"/><stop offset="1" stop-color="#6C7680"/></linearGradient></defs><path fill="url(#a)" d="M.45 39.67v2.2c0 2.43 6.2 4.4 13.8 4.4 7.64 0 13.82-1.98 13.82-4.4v-2.2"/><ellipse cx="14.261" cy="39.667" fill="url(#b)" ry="4.409" rx="13.808"/><path fill="none" stroke="#3e5780" stroke-width=".8" d="M.45 39.67v2.2c0 2.43 6.2 4.4 13.8 4.4 7.64 0 13.82-1.98 13.82-4.4v-2.2"/><path fill="none" stroke="#3e5780" stroke-width=".8" d="M.45 39.67c0-2.44 6.2-4.4 13.8-4.4 7.64 0 13.82 1.96 13.82 4.4"/><path fill="url(#c)" stroke="#3065a0" d="M15.3 23.03c0 .73 2.75 2.22 4.4 3.22 3.65 2.1 4.7 5.25 4.7 7.43.02 4.5-4.13 8.02-10.14 8.02-6 0-10.16-3.5-10.15-8.02 0-2.18 1.07-5.34 4.72-7.43 1.65-1 4.4-2.5 4.4-3.22 0-.8-2.75-2.22-4.4-3.23-3.65-2.08-4.7-5.24-4.7-7.42-.02-4.5 4.13-8.02 10.14-8.02 6 0 10.16 3.5 10.15 8.02 0 2.18-1.05 5.34-4.7 7.42-1.65 1-4.4 2.43-4.4 3.23z"/><path fill="url(#d)" stroke="#f17912" stroke-width=".25" d="M7.53 17.43c2.1-.54 4.3-.75 6.47-.75 1 0 3.3.5 4.26.7.2.05.4.12.6.18.25.07.54.02.78.1.2.07.4.2.36.44-.02.28-.47.52-.64.7-.7.77-2.12 1.33-3.3 2.07-.58.38-1.57 1.15-1.64 1.85-.1.82.12 1.77.17 2.56.1 1.68 0 3.2 0 4.87 0 1.27.3 2.63 1.32 3.56.58.54 1.37.9 2.03 1.34.84.55 1.46 1 2.14 1.75.4.45.47.9.05 1.35-.4.43-1.15.5-1.66.9-.55.4-.96.73-1.57.96-.8.3-1.44.28-2.27.35-2.68.23-5.97-.23-7.8-2.4-.77-.95-.36-1.63.65-2.15.35-.18.73-.28 1.05-.5.4-.24.65-.64 1-.92.57-.45 1.4-.7 2.06-1 2.1-.9 2.1-2.83 2.1-4.83 0-2.07.38-3.7.36-5.76 0-.95-1.17-1.7-1.86-2.15-.48-.33-.82-.5-1.35-.76-.9-.47-1.54-1.27-2.48-1.6-.32-.13-1.3-.5-.84-.87z"/><path fill="none" stroke="#fff" d="M6.97 8C5.75 9.2 5.1 10.72 5.1 12.37c0 .98.3 4.32 4.2 6.56.04 0 1.04.6 1.04.6 2.48 1.44 3.88 2.32 3.88 3.5 0 1.07-1.17 1.87-4.05 3.57l-.83.5C5.4 29.37 5.1 32.7 5.1 33.68c0 1.66.65 3.18 1.87 4.4 1.7 1.7 4.28 2.63 7.3 2.63 3 0 5.6-.93 7.28-2.63 1.22-1.22 1.86-2.74 1.86-4.4 0-.97-.3-4.3-4.2-6.55 0 0-.85-.5-.85-.5-2.88-1.7-4.05-2.5-4.05-3.6 0-1.16 1.4-2.04 3.88-3.48l1-.6c3.93-2.24 4.23-5.6 4.23-6.56 0-1.65-.63-3.17-1.85-4.4-1.7-1.7-4.28-2.62-7.3-2.62-3 0-5.6.93-7.28 2.63z"/><path fill="none" stroke="#3e5780" stroke-width="1.5" d="M2.98 40.62c0-.28-.36-15.26-.17-15.28.45-.02.62-.77.62-.77-.44-.17-.75-.6-.75-1.1 0-.47.3-.88.7-1.06 0 0-.15-.78-.5-.85-.36-.07.33-17.37.33-17.37h1.27s.7 17.3.33 17.37c-.36.07-.52.86-.52.86.42.18.7.6.7 1.08 0 .5-.3.92-.73 1.1 0 0 .17.74.6.76.2.02-.17 15-.17 15.28"/><path fill="url(#e)" d="M4.7 40.62c0-.28.35-15.26.16-15.28-.44-.02-.6-.77-.6-.77.43-.17.74-.6.74-1.1 0-.47-.3-.9-.72-1.06 0 0 .17-.78.52-.85.36-.07-.33-17.37-.33-17.37H3.2s-.7 17.3-.33 17.37c.35.07.5.86.5.86-.4.2-.7.6-.7 1.08 0 .5.3.92.75 1.1 0 0-.17.73-.6.76-.2.02.16 15 .16 15.28 0 .48 1.7.46 1.7 0z"/><path fill="none" stroke="#3e5780" stroke-width="1.5" d="M25.57 40.62c0-.28.36-15.26.18-15.28-.44-.02-.6-.77-.6-.77.43-.17.73-.6.73-1.1 0-.47-.3-.9-.7-1.06 0 0 .15-.78.5-.85.36-.07-.32-17.37-.32-17.37h-1.28s-.68 17.3-.32 17.37c.35.07.5.86.5.86-.4.2-.7.6-.7 1.08 0 .5.3.92.75 1.1 0 0-.17.74-.6.76-.2.02.17 15 .17 15.28"/><path fill="url(#f)" d="M25.57 40.62c0-.28.36-15.26.18-15.28-.44-.02-.6-.77-.6-.77.43-.17.73-.6.73-1.1 0-.47-.3-.9-.7-1.06 0 0 .15-.78.5-.85.36-.07-.32-17.37-.32-17.37h-1.28s-.68 17.3-.32 17.37c.35.07.5.86.5.86-.4.2-.7.6-.7 1.08 0 .5.3.92.75 1.1 0 0-.17.74-.6.76-.2.02.17 15 .17 15.28"/><path fill="url(#g)" d="M.4 4.83v2.14c0 2.44 6.2 4.42 13.86 4.42 7.65 0 13.86-2 13.86-4.43V4.83"/><ellipse cx="14.261" cy="4.826" fill="url(#h)" ry="4.427" rx="13.86"/><path fill="none" stroke="#3e5780" stroke-width=".5" d="M4.25 24.57c-.13.04-.27.07-.42.07-.14 0-.28-.03-.4-.07"/><path fill="none" stroke="#3e5780" stroke-width=".5" d="M4.24 22.4c-.13-.04-.27-.07-.42-.07-.14 0-.28.03-.4.08"/><path fill="none" stroke="#3e5780" stroke-width=".5" d="M25.17 22.4c-.13-.04-.27-.07-.42-.07-.15 0-.3.03-.4.08"/><path fill="none" stroke="#3e5780" stroke-width=".5" d="M25.14 24.57c-.13.04-.27.07-.42.07-.14 0-.28-.03-.4-.07"/><path fill="none" stroke="#3e5780" stroke-width=".8" d="M.4 6.97V4.83C.4 2.38 6.6.4 14.26.4c7.66 0 13.86 1.98 13.86 4.43v2.14"/><path fill="none" stroke="#3e5780" stroke-width=".972" d="M.4 6.97c0 2.44 6.2 4.42 13.86 4.42 7.65 0 13.86-2 13.86-4.43"/><path fill="none" stroke="#3e5780" stroke-width=".5" d="M2.98 40.62c0 .48 1.7.46 1.7 0"/><path fill="none" stroke="#3e5780" stroke-width=".5" d="M23.87 40.62c0 .48 1.7.46 1.7 0"/></svg>