<svg xmlns="http://www.w3.org/2000/svg" width="48.25" height="48.25" xmlns:xlink="http://www.w3.org/1999/xlink" overflow="visible"><defs><linearGradient id="g"><stop offset="0" stop-color="#eeeeec"/><stop offset="1" stop-color="#eeeeec" stop-opacity="0"/></linearGradient><linearGradient id="f"><stop offset="0" stop-color="#eeeeec"/><stop offset="1" stop-color="#eeeeec" stop-opacity="0"/></linearGradient><linearGradient id="b"><stop offset="0" stop-color="#a40000"/><stop offset="1" stop-color="#a40000" stop-opacity="0"/></linearGradient><linearGradient id="a"><stop offset="0" stop-color="#ef2929"/><stop offset="1" stop-color="#ef2929" stop-opacity="0"/></linearGradient><linearGradient x1="33.852" x2="24.255" y1="33.825" y2="32.281" gradientUnits="userSpaceOnUse"><stop offset="0" stop-color="#A0C6DE"/><stop offset="1" stop-color="#fff"/></linearGradient><linearGradient x1="14.137" x2="23.266" y1="14.35" y2="15.759" gradientUnits="userSpaceOnUse"><stop offset="0" stop-color="#A0C6DE"/><stop offset="1" stop-color="#fff"/></linearGradient><linearGradient x1="5.08" x2="1.858" y1="22.922" y2="16.546" gradientUnits="userSpaceOnUse"><stop offset="0" stop-color="#A0C6DE"/><stop offset="1" stop-color="#fff"/></linearGradient><linearGradient x1="42.033" x2="45.926" y1="24.269" y2="29.839" gradientUnits="userSpaceOnUse"><stop offset="0" stop-color="#A0C6DE"/><stop offset="1" stop-color="#fff"/></linearGradient><linearGradient id="c" x1="2.025" x2="46.227" y1="24.125" y2="24.125" gradientUnits="userSpaceOnUse"><stop offset="0" stop-color="#fff"/><stop offset=".129" stop-color="#dea0a0"/><stop offset=".522" stop-color="#fff"/><stop offset=".848" stop-color="#dea0a0"/><stop offset="1" stop-color="#fff"/></linearGradient><radialGradient id="d" cx="102.16" cy="112.407" r="2.956" fx="102.16" fy="112.407" gradientTransform="matrix(0 -1 1 0 -101.816 115.209)" gradientUnits="userSpaceOnUse"><stop offset="0" stop-color="#fff"/><stop offset=".09" stop-color="#DBE8F2"/><stop offset=".248" stop-color="#A2C3DE"/><stop offset=".395" stop-color="#75A6CD"/><stop offset=".525" stop-color="#5591C2"/><stop offset=".634" stop-color="#4185BB"/><stop offset=".708" stop-color="#3A80B8"/><stop offset="1" stop-color="#244A87"/></radialGradient><radialGradient id="e" cx="-54.495" cy="111.667" r="5.213" gradientUnits="userSpaceOnUse" gradientTransform="matrix(0 5.29 5.29 0 -573.146 303.391)" fy="111.667" fx="-54.495"><stop offset="0" stop-color="#fff"/><stop offset=".685" stop-color="#2E659E"/><stop offset="1" stop-color="#1D3E63"/></radialGradient><linearGradient id="q" x1="5.345" x2="11.298" y1="23.823" y2="15.378" xlink:href="#a" gradientUnits="userSpaceOnUse" gradientTransform="matrix(-1.099 .405 -.399 -1.112 55.012 46.603)"/><linearGradient id="r" x1="2.932" x2="11.381" y1="22.585" y2="12.955" xlink:href="#b" gradientUnits="userSpaceOnUse" gradientTransform="matrix(-1.099 .405 -.399 -1.112 55.012 46.603)"/><linearGradient id="o" x1="5.345" x2="11.298" y1="23.823" y2="15.378" xlink:href="#a" gradientUnits="userSpaceOnUse" gradientTransform="matrix(1.267 0 0 1.274 .181 -4.656)"/><linearGradient id="p" x1="2.932" x2="11.381" y1="22.585" y2="12.955" xlink:href="#b" gradientUnits="userSpaceOnUse" gradientTransform="matrix(1.267 0 0 1.274 .181 -4.656)"/><linearGradient id="m" x1="22.684" x2="5.545" y1="32.708" y2="24.966" xlink:href="#a" gradientUnits="userSpaceOnUse" gradientTransform="matrix(1.329 -.065 .065 1.344 -6.003 -8.536)"/><linearGradient id="n" x1="25.879" x2="7.227" y1="32.666" y2="25.483" xlink:href="#b" gradientUnits="userSpaceOnUse" gradientTransform="matrix(1.329 -.065 .065 1.344 -6.003 -8.536)"/><linearGradient id="i" x1="15.54" x2="35.297" y1="14.229" y2="20.697" xlink:href="#a" gradientUnits="userSpaceOnUse" gradientTransform="matrix(1.019 .052 -.052 1.019 2.628 -.841)"/><linearGradient id="j" x1="13.767" x2="38.013" y1="12.431" y2="18.757" xlink:href="#b" gradientUnits="userSpaceOnUse" gradientTransform="matrix(1.019 .052 -.052 1.019 2.628 -.841)"/><linearGradient id="h" x1="2.025" x2="46.227" y1="24.125" y2="24.125" xlink:href="#c" gradientUnits="userSpaceOnUse"/><radialGradient id="k" cx="102.16" cy="112.407" r="2.956" xlink:href="#d" gradientUnits="userSpaceOnUse" gradientTransform="matrix(0 -1 1 0 -101.816 115.209)" fx="102.16" fy="112.407"/><radialGradient id="l" cx="-54.495" cy="111.667" r="5.213" xlink:href="#e" gradientUnits="userSpaceOnUse" gradientTransform="matrix(0 5.29 5.29 0 -573.146 303.391)" fx="-54.495" fy="111.667"/><linearGradient id="s" x1="35.097" x2="10.178" y1="33.827" y2="28.135" xlink:href="#f" gradientUnits="userSpaceOnUse"/><linearGradient id="t" x1="39.21" x2="44.549" y1="21.9" y2="27.884" xlink:href="#g" gradientUnits="userSpaceOnUse"/><linearGradient id="u" x1="39.781" x2="44.549" y1="20.945" y2="27.884" xlink:href="#g" gradientUnits="userSpaceOnUse" gradientTransform="matrix(-.917 -.4 .4 -.917 34.216 61.845)"/><linearGradient x1="35.097" x2="10.178" y1="33.827" y2="28.135" xlink:href="#f" gradientUnits="userSpaceOnUse" gradientTransform="matrix(-.717 -.083 .084 -.713 39.634 41.118)"/></defs><g><path fill="none" stroke="#c37070" stroke-width=".89.129" d="M5.16 18.9c-1.26 4.7 6.5 10.74 17.64 13.73 11.14 2.98 20.87 1.64 22.13-3.06 1.25-4.7-6.5-10.73-17.64-13.72-11.16-3-20.88-1.64-22.14 3.06z" opacity=".2"/><path fill="url(#h)" d="M2.17 18.24C.8 23.28 9.4 29.8 21.71 33.1c12.3 3.3 23.02 1.95 24.37-3.1 1.34-5.03-7.25-11.56-19.57-14.86-12.3-3.3-23.02-1.94-24.37 3.1zm24.1-2.13c11.38 3.06 20 9.3 18.85 13.65-1.16 4.35-11.76 5.44-23.14 2.4-11.38-3.05-20-9.3-18.85-13.65 1.17-4.35 11.76-5.44 23.14-2.4z" opacity=".5" transform="matrix(.886 0 0 .886 3.672 2.863)"/><path fill="none" stroke="#c37070" stroke-width=".89.129" d="M6.87 19.37c-.05.18-.07.37-.07.57 0 3.22 6.37 8.27 16.46 10.97 10.7 2.88 19.1 1.36 19.96-1.8.85-3.15-5.67-8.67-16.38-11.54-10.7-2.87-19.12-1.35-19.97 1.8z" opacity=".2"/></g><path fill="url(#i)" fill-rule="evenodd" stroke="url(#j)" d="M42.28 23.03C35.16 18.96 26.7 17.1 26.7 17.1l-2.44 2.06s-3.87-3.33-8.36-4.94c6.2-1.72 15.24-1.56 15.24-1.56L28.7 15s9.7 2.7 13.58 8.03z" color="#000" overflow="visible"/><g transform="matrix(.725 0 0 .727 6.848 6.606)"><circle cx="11.073" cy="13.818" r="2.104" fill="none" stroke="#152a4c" stroke-width=".515" transform="matrix(5.351 0 0 5.351 -35.245 -49.517)"/><circle cx="11.073" cy="13.818" r="2.104" fill="url(#k)" transform="matrix(5.351 0 0 5.351 -35.245 -49.517)"/><path fill="url(#l)" d="M12.86 24.43c0 2.96 1.16 5.77 3.27 7.86 2.1 2.1 4.9 3.25 7.88 3.25 2.98 0 5.78-1.15 7.88-3.26 2.1-2.1 3.26-4.9 3.26-7.87 0-6.15-5-11.13-11.13-11.13-6.14 0-11.14 5-11.14 11.13zm20.5 0c0 2.5-.97 4.84-2.73 6.6-1.78 1.78-4.13 2.75-6.62 2.75-2.5 0-4.85-.97-6.6-2.74-1.78-1.77-2.76-4.1-2.76-6.6 0-5.18 4.2-9.38 9.36-9.38 5.17 0 9.36 4.2 9.36 9.37z"/></g><path fill="url(#m)" fill-rule="evenodd" stroke="url(#n)" d="M2.1 23.3c9.22 5.47 19.07 8.13 19.07 8.13l.3-3.33s8.25 3.8 15.62 6c-9.38 3-19.82 3.8-19.82 3.8l2.4-3.8S7.08 30.38 2.1 23.3z"/><path fill="url(#o)" fill-rule="evenodd" stroke="url(#p)" d="M15.62 14.72c-7.7-1.23-12.3 1.22-12.84 6.25-1.34-.33-3.54-1.06-4.5-1.46 0 0 5.1 6.03 9.5 7.32.07-3.2 2.8-8.08 2.8-8.08-1.3.77-2.72 1.63-4.3 2.1 1.1-3.95 2.58-4.76 9.34-6.12z" color="#000" overflow="visible"/><path fill="url(#q)" fill-rule="evenodd" stroke="url(#r)" d="M34.86 34.75c8.6-1.93 10.98-5.12 9.87-9.68 1.27-.14 3.4-.2 4.35-.16 0 0-6.6-3.7-10.82-3.42.94 2.8.4 8.03.4 8.03.9-1.08 1.85-2.28 3.06-3.2.75 3.97-.7 5.38-6.86 8.45z" color="#000" overflow="visible"/><path fill="none" stroke="url(#s)" stroke-width=".5" d="M3 24c8.14 5.68 18.9 8.6 18.9 8.6l.28-3.33s4.9 2.5 12.26 4.7c-9.37 3-15.66 3.08-15.66 3.08l2.07-3.2S8.72 29.65 3 24z"/><path fill="none" stroke="url(#t)" stroke-width=".5" d="M37.52 33.62c6.8-3.42 7.22-5 6.5-9.24 1.27-.14 1.65-.2 2.6-.16 0 0-4.2-1.96-7.4-2.07.57 2.8.27 5.5.27 5.5.9-1.08 1.53-1.9 2.74-2.8 1 3.5.4 6.67-4.72 8.77z" color="#000" overflow="visible"/><path fill="none" stroke="url(#u)" stroke-width=".5" d="M13.25 16.04c-7.6.42-9.13 1.3-9.97 5.86-1.22-.37-2.1-.67-2.97-1.1 0 0 3.86 3.82 6.74 5.2.6-2.8 1.7-5.3 1.7-5.3-1.26.64-2.1.82-3.58 1.16.48-3.62 2.56-5.95 8.1-5.82z" color="#000" overflow="visible"/></svg>