<svg xmlns="http://www.w3.org/2000/svg" width="46.482" height="46.083" xmlns:xlink="http://www.w3.org/1999/xlink" overflow="visible"><defs><linearGradient x1="-214.199" x2="-217.639" y1="206.071" y2="198.426" gradientTransform="matrix(.415 .91 .91 -.415 -93.37 300.712)" gradientUnits="userSpaceOnUse"><stop offset="0" stop-color="#6F87A0"/><stop offset="1" stop-color="#fff"/></linearGradient><linearGradient x1="-200.626" x2="-205.62" y1="204.752" y2="193.655" gradientTransform="matrix(.415 .91 .91 -.415 -88.244 300.712)" gradientUnits="userSpaceOnUse"><stop offset="0" stop-color="#6F87A0"/><stop offset="1" stop-color="#fff"/></linearGradient><linearGradient id="g" x1="-220.665" x2="-225.315" y1="216.466" y2="206.133" gradientTransform="matrix(.415 .91 .91 -.415 -88.244 300.712)" gradientUnits="userSpaceOnUse"><stop offset="0" stop-color="#6F87A0"/><stop offset="1" stop-color="#fff" stop-opacity="0"/></linearGradient><linearGradient x1="-201.686" x2="-206.68" y1="231.124" y2="220.028" gradientTransform="matrix(.415 .91 .91 -.415 -95.05 300.712)" gradientUnits="userSpaceOnUse"><stop offset="0" stop-color="#6F87A0"/><stop offset="1" stop-color="#fff"/></linearGradient><linearGradient x1="-189.419" x2="-194.413" y1="230.412" y2="219.316" gradientTransform="matrix(.415 .91 .91 -.415 -90.188 300.712)" gradientUnits="userSpaceOnUse"><stop offset="0" stop-color="#6F87A0"/><stop offset="1" stop-color="#fff"/></linearGradient><linearGradient x1="-208.564" x2="-213.557" y1="240.616" y2="229.52" gradientTransform="matrix(.415 .91 .91 -.415 -90.719 300.712)" gradientUnits="userSpaceOnUse"><stop offset="0" stop-color="#6F87A0"/><stop offset="1" stop-color="#fff"/></linearGradient><radialGradient id="s" cx="38.925" cy="44.445" r="3.218" xlink:href="#a" gradientUnits="userSpaceOnUse" gradientTransform="matrix(-1 0 0 1 75.978 -24.189)" fx="38.925" fy="44.445"/><radialGradient id="t" cx="6.437" cy="43.826" r="5.232" xlink:href="#b" gradientUnits="userSpaceOnUse" gradientTransform="translate(29.871 -24.189)" fx="6.437" fy="43.826"/><radialGradient id="y" cx="38.925" cy="44.445" r="3.218" xlink:href="#a" gradientUnits="userSpaceOnUse" gradientTransform="matrix(-1 0 0 1 75.978 -24.189)" fx="38.925" fy="44.445"/><radialGradient id="z" cx="6.437" cy="43.826" r="5.232" xlink:href="#b" gradientUnits="userSpaceOnUse" gradientTransform="translate(29.871 -24.189)" fx="6.437" fy="43.826"/><radialGradient id="A" cx="93.558" cy="111.58" r="3.159" xlink:href="#c" gradientUnits="userSpaceOnUse" gradientTransform="matrix(0 -1 1 0 -101.929 112.774)" fx="93.558" fy="111.58"/><radialGradient id="B" cx="-48.231" cy="110.754" r="6.288" xlink:href="#d" gradientUnits="userSpaceOnUse" gradientTransform="matrix(0 1 1 0 -101.929 66.668)" fx="-48.231" fy="110.754"/><radialGradient id="C" cx="93.558" cy="111.58" r="3.159" xlink:href="#c" gradientUnits="userSpaceOnUse" gradientTransform="matrix(0 -1 1 0 -101.929 112.774)" fx="93.558" fy="111.58"/><radialGradient id="D" cx="-48.231" cy="110.754" r="6.288" xlink:href="#d" gradientUnits="userSpaceOnUse" gradientTransform="matrix(0 1 1 0 -101.929 66.668)" fx="-48.231" fy="110.754"/><radialGradient id="w" cx="38.925" cy="44.445" r="3.218" xlink:href="#a" gradientUnits="userSpaceOnUse" gradientTransform="matrix(-1 0 0 1 75.978 -24.189)" fx="38.925" fy="44.445"/><radialGradient id="x" cx="6.437" cy="43.826" r="5.232" xlink:href="#b" gradientUnits="userSpaceOnUse" gradientTransform="translate(29.871 -24.189)" fx="6.437" fy="43.826"/><linearGradient id="f" x1="-208.171" x2="-213.819" y1="241.644" y2="229.096" gradientUnits="userSpaceOnUse" gradientTransform="matrix(.415 .91 .91 -.415 -90.188 300.712)" xlink:href="#e"><stop offset="0" stop-color="#88A9C3"/><stop offset="1" stop-color="#fff" stop-opacity="0"/></linearGradient><linearGradient x1="-189.117" x2="-194.764" y1="231.482" y2="218.935" gradientUnits="userSpaceOnUse" gradientTransform="matrix(.415 .91 .91 -.415 -90.188 300.712)" xlink:href="#f"><stop offset="0" stop-color="#88A9C3"/><stop offset="1" stop-color="#fff"/></linearGradient><linearGradient x1="-201.293" x2="-206.941" y1="232.152" y2="219.604" gradientUnits="userSpaceOnUse" gradientTransform="matrix(.415 .91 .91 -.415 -95.05 300.712)" xlink:href="#f"><stop offset="0" stop-color="#88A9C3"/><stop offset="1" stop-color="#fff"/></linearGradient><linearGradient x1="-213.392" x2="-217.286" y1="208.012" y2="199.358" gradientUnits="userSpaceOnUse" gradientTransform="matrix(.415 .91 .91 -.415 -93.37 300.712)" xlink:href="#f"><stop offset="0" stop-color="#88A9C3"/><stop offset="1" stop-color="#fff"/></linearGradient><linearGradient x1="-200.051" x2="-205.697" y1="205.697" y2="193.152" gradientUnits="userSpaceOnUse" gradientTransform="matrix(.415 .91 .91 -.415 -88.244 300.712)" xlink:href="#f"><stop offset="0" stop-color="#88A9C3"/><stop offset="1" stop-color="#fff"/></linearGradient><linearGradient x1="-208.171" x2="-213.819" y1="241.644" y2="229.096" xlink:href="#f" gradientUnits="userSpaceOnUse" gradientTransform="matrix(.415 .91 .91 -.415 -90.719 300.712)"/><linearGradient id="r" x1="-220.113" x2="-224.541" y1="217.363" y2="207.645" xlink:href="#f" gradientUnits="userSpaceOnUse" gradientTransform="matrix(.415 .91 .91 -.415 -90.188 300.712)"/><linearGradient x1="-220.665" x2="-225.315" y1="216.466" y2="206.133" xlink:href="#g" gradientUnits="userSpaceOnUse" gradientTransform="matrix(.415 .91 .91 -.415 -62.969 301.503)"/><linearGradient x1="-220.113" x2="-224.541" y1="217.363" y2="207.645" xlink:href="#f" gradientUnits="userSpaceOnUse" gradientTransform="matrix(.415 .91 .91 -.415 -64.914 301.503)"/><linearGradient id="h" x1="-220.665" x2="-225.315" y1="216.466" y2="206.133" xlink:href="#g" gradientUnits="userSpaceOnUse" gradientTransform="matrix(.415 .91 .91 -.415 -62.969 301.503)"/><linearGradient id="i" x1="-220.113" x2="-224.541" y1="217.363" y2="207.645" xlink:href="#f" gradientUnits="userSpaceOnUse" gradientTransform="matrix(.415 .91 .91 -.415 -64.914 301.503)"/><linearGradient id="j" x1="-220.665" x2="-225.315" y1="216.466" y2="206.133" xlink:href="#g" gradientUnits="userSpaceOnUse" gradientTransform="matrix(.415 .91 .91 -.415 -62.969 301.503)"/><linearGradient id="k" x1="-220.113" x2="-224.541" y1="217.363" y2="207.645" xlink:href="#f" gradientUnits="userSpaceOnUse" gradientTransform="matrix(.415 .91 .91 -.415 -64.914 301.503)"/><linearGradient id="l" x1="-220.665" x2="-225.315" y1="216.466" y2="206.133" xlink:href="#g" gradientUnits="userSpaceOnUse" gradientTransform="matrix(.415 .91 .91 -.415 -62.969 301.503)"/><linearGradient id="m" x1="-220.113" x2="-224.541" y1="217.363" y2="207.645" xlink:href="#f" gradientUnits="userSpaceOnUse" gradientTransform="matrix(.415 .91 .91 -.415 -64.914 301.503)"/><linearGradient id="n" x1="-220.665" x2="-225.315" y1="216.466" y2="206.133" xlink:href="#g" gradientUnits="userSpaceOnUse" gradientTransform="matrix(.415 .91 .91 -.415 -62.969 301.503)"/><linearGradient id="o" x1="-220.113" x2="-224.541" y1="217.363" y2="207.645" xlink:href="#f" gradientUnits="userSpaceOnUse" gradientTransform="matrix(.415 .91 .91 -.415 -64.914 301.503)"/><linearGradient x1="-220.665" x2="-225.315" y1="216.466" y2="206.133" xlink:href="#g" gradientUnits="userSpaceOnUse" gradientTransform="matrix(.415 .91 .91 -.415 -62.969 301.503)"/><linearGradient x1="-220.113" x2="-224.541" y1="217.363" y2="207.645" xlink:href="#f" gradientUnits="userSpaceOnUse" gradientTransform="matrix(.415 .91 .91 -.415 -64.914 301.503)"/><linearGradient id="q" x1="-220.113" x2="-224.541" y1="217.363" y2="207.645" xlink:href="#f" gradientUnits="userSpaceOnUse" gradientTransform="matrix(.415 .91 .91 -.415 -64.914 301.503)"/><linearGradient id="p" x1="-220.665" x2="-225.315" y1="216.466" y2="206.133" xlink:href="#g" gradientUnits="userSpaceOnUse" gradientTransform="matrix(.415 .91 .91 -.415 -62.969 301.503)"/></defs><g><path fill="url(#h)" d="M31.24 12.1c.85.04 10.18.8 11.25.86-.03-.9.07-3.2.05-4.02-.98 0-10.5.67-11.56.68l.24 2.47z" transform="translate(-36.416 9.281)"/><path fill="url(#i)" d="M31.78 13.28l11.87.9V8l-12.7.43.83 4.85zm-.8-3.66c1.08 0 10.6-.67 11.56-.68.02.83-.08 3.1-.05 4.02-1.1-.06-10.4-.82-11.26-.87l-.26-2.48z" transform="translate(-36.416 9.281)"/></g><g><path fill="url(#j)" d="M31.24 12.1c.85.04 10.18.8 11.25.86-.03-.9.07-3.2.05-4.02-.98 0-10.5.67-11.56.68l.24 2.47z" transform="translate(-26.87 22.362)"/><path fill="url(#k)" d="M31.78 13.28l11.87.9V8l-12.7.43.83 4.85zm-.8-3.66c1.08 0 10.6-.67 11.56-.68.02.83-.08 3.1-.05 4.02-1.1-.06-10.4-.82-11.26-.87l-.26-2.48z" transform="translate(-26.87 22.362)"/></g><g><path fill="url(#l)" d="M31.24 12.1c.85.04 10.18.8 11.25.86-.03-.9.07-3.2.05-4.02-.98 0-10.5.67-11.56.68l.24 2.47z" transform="translate(-10.607 10.165)"/><path fill="url(#m)" d="M31.78 13.28l11.87.9V8l-12.7.43.83 4.85zm-.8-3.66c1.08 0 10.6-.67 11.56-.68.02.83-.08 3.1-.05 4.02-1.1-.06-10.4-.82-11.26-.87l-.26-2.48z" transform="translate(-10.607 10.165)"/></g><g><path fill="url(#n)" d="M31.24 12.1c.85.04 10.18.8 11.25.86-.03-.9.07-3.2.05-4.02-.98 0-10.5.67-11.56.68l.24 2.47z" transform="translate(-.795 21.39)"/><path fill="url(#o)" d="M31.78 13.28l11.87.9V8l-12.7.43.83 4.85zm-.8-3.66c1.08 0 10.6-.67 11.56-.68.02.83-.08 3.1-.05 4.02-1.1-.06-10.4-.82-11.26-.87l-.26-2.48z" transform="translate(-.795 21.39)"/></g><path fill="url(#p)" d="M31.24 12.1c.85.04 10.18.8 11.25.86-.03-.9.07-3.2.05-4.02-.98 0-10.5.67-11.56.68l.24 2.47z"/><path fill="url(#q)" d="M31.78 13.28l11.87.9V8l-12.7.43.83 4.85zm-.8-3.66c1.08 0 10.6-.67 11.56-.68.02.83-.08 3.1-.05 4.02-1.1-.06-10.4-.82-11.26-.87l-.26-2.48z"/><path fill="url(#g)" d="M5.97 11.3c.85.04 10.17.8 11.25.87-.03-.9.07-3.2.05-4.02-.97 0-10.48.67-11.56.68l.27 2.47z"/><path fill="url(#r)" d="M6.5 12.48l11.88.9V7.2l-12.7.43.83 4.85zm-.8-3.65c1.08 0 10.6-.67 11.57-.68.02.83-.08 3.1-.06 4.02-1.06-.06-10.4-.82-11.24-.87L5.7 8.83z"/><g transform="translate(-3.182)"><circle cx="10.197" cy="20.367" r="2.347" fill="none" stroke="#152a4c" stroke-width="1.5"/><radialGradient id="c" cx="93.558" cy="111.58" r="3.159" gradientUnits="userSpaceOnUse" gradientTransform="matrix(0 -1 1 0 -101.929 112.774)" fy="111.58" fx="93.558"><stop offset="0" stop-color="#fff"/><stop offset=".09" stop-color="#DBE8F2"/><stop offset=".248" stop-color="#A2C3DE"/><stop offset=".395" stop-color="#75A6CD"/><stop offset=".525" stop-color="#5591C2"/><stop offset=".634" stop-color="#4185BB"/><stop offset=".708" stop-color="#3A80B8"/><stop offset="1" stop-color="#244A87"/></radialGradient><circle cx="10.197" cy="20.367" r="2.347" fill="url(#c)"/><g><radialGradient id="d" cx="-48.231" cy="110.754" r="6.288" gradientUnits="userSpaceOnUse" gradientTransform="matrix(0 1 1 0 -101.929 66.668)" fy="110.754" fx="-48.231"><stop offset="0" stop-color="#fff"/><stop offset=".685" stop-color="#2E659E"/><stop offset="1" stop-color="#1D3E63"/></radialGradient><path fill="url(#d)" d="M7.85 20.37c0 .62.24 1.2.7 1.65.43.45 1.02.7 1.65.7.62 0 1.2-.25 1.66-.7.44-.44.7-1.02.7-1.65-.02-1.3-1.07-2.35-2.36-2.35-1.3 0-2.35 1.05-2.35 2.35zm4.34 0c0 .53-.22 1.03-.6 1.4-.37.38-.87.6-1.4.6-.54 0-1.04-.22-1.4-.6-.4-.37-.6-.87-.6-1.4 0-1.1.9-2 2-2s2 .9 2 2z"/></g></g><g transform="translate(-19.256 -11.032)"><circle cx="37.641" cy="21.318" r="2.157" fill="none" stroke="#59270b" stroke-width="1.8"/><radialGradient cx="38.925" cy="44.445" r="3.218" gradientUnits="userSpaceOnUse" gradientTransform="matrix(-1 0 0 1 75.978 -24.189)" fy="44.445" fx="38.925"><stop offset="0" stop-color="#fff"/><stop offset=".219" stop-color="#F9D0AE"/><stop offset=".415" stop-color="#F5AB6D"/><stop offset=".579" stop-color="#F2903E"/><stop offset=".704" stop-color="#F07F21"/><stop offset=".775" stop-color="#EF7916"/><stop offset="1" stop-color="#CE5B0E"/></radialGradient><circle cx="37.641" cy="21.318" r="2.157" fill="url(#s)"/><g><radialGradient cx="6.437" cy="43.826" r="5.232" gradientUnits="userSpaceOnUse" gradientTransform="translate(29.871 -24.189)" fy="43.826" fx="6.437"><stop offset="0" stop-color="#fff"/><stop offset=".219" stop-color="#F9D0AE"/><stop offset=".415" stop-color="#F5AB6D"/><stop offset=".579" stop-color="#F2903E"/><stop offset=".704" stop-color="#F07F21"/><stop offset=".775" stop-color="#EF7916"/><stop offset="1" stop-color="#CE5B0E"/></radialGradient><path fill="url(#t)" d="M35.48 21.32c0 1.2.97 2.15 2.16 2.15 1.2 0 2.16-.96 2.16-2.15 0-1.2-.97-2.16-2.16-2.16-1.2 0-2.16.97-2.16 2.16zm.28 0c0-1.04.84-1.9 1.88-1.9s1.88.86 1.88 1.9-.84 1.88-1.88 1.88-1.88-.84-1.88-1.88z"/></g></g><g transform="translate(1.945)"><radialGradient id="u" cx="327.326" cy="530.058" r="53.947" gradientUnits="userSpaceOnUse" gradientTransform="matrix(-1 0 0 -1 351.918 589.664)" fy="530.058" fx="327.326"><stop offset="0" stop-color="#fff"/><stop offset=".135" stop-color="#FEEED5"/><stop offset=".359" stop-color="#FCD395"/><stop offset=".548" stop-color="#FBBF66"/><stop offset=".693" stop-color="#FAB349"/><stop offset=".775" stop-color="#FAAF3E"/><stop offset="1" stop-color="#F17912"/></radialGradient><path fill="url(#u)" d="M18.35 43.9l5.74-4.98v-28.5l-5.75-7.48V43.9z"/><g><radialGradient id="v" cx="328.658" cy="542.809" r="46.077" gradientUnits="userSpaceOnUse" gradientTransform="matrix(-1 0 0 -1 351.918 589.664)" fy="542.809" fx="328.658"><stop offset="0" stop-color="#fff"/><stop offset=".099" stop-color="#FEEED5"/><stop offset=".263" stop-color="#FCD395"/><stop offset=".401" stop-color="#FBBF66"/><stop offset=".507" stop-color="#FAB349"/><stop offset=".567" stop-color="#FAAF3E"/><stop offset="1" stop-color="#FDE5BA"/></radialGradient><path fill="url(#v)" d="M19.18 43.18l4.92-4.27V10.4l-5.75-7.46V43.9l.83-.72zm1.85-2.93s-.94.8-1.68 1.45c0-1.98 0-33.18 0-35.82.26.34 3.55 4.62 3.74 4.87 0 .33 0 27.26 0 27.7-.3.26-2.07 1.8-2.07 1.8z"/></g></g><path fill="none" stroke="#99440f" d="M20.62 44.27l5.92-5.13v-28.9L19.8 1.47V45l.82-.73z"/><g transform="translate(-4.861)"><circle cx="37.641" cy="21.318" r="2.157" fill="none" stroke="#59270b" stroke-width="1.8"/><radialGradient id="a" cx="38.925" cy="44.445" r="3.218" gradientUnits="userSpaceOnUse" gradientTransform="matrix(-1 0 0 1 75.978 -24.189)" fy="44.445" fx="38.925"><stop offset="0" stop-color="#fff"/><stop offset=".219" stop-color="#F9D0AE"/><stop offset=".415" stop-color="#F5AB6D"/><stop offset=".579" stop-color="#F2903E"/><stop offset=".704" stop-color="#F07F21"/><stop offset=".775" stop-color="#EF7916"/><stop offset="1" stop-color="#CE5B0E"/></radialGradient><circle cx="37.641" cy="21.318" r="2.157" fill="url(#w)"/><g><radialGradient id="b" cx="6.437" cy="43.826" r="5.232" gradientUnits="userSpaceOnUse" gradientTransform="translate(29.871 -24.189)" fy="43.826" fx="6.437"><stop offset="0" stop-color="#fff"/><stop offset=".219" stop-color="#F9D0AE"/><stop offset=".415" stop-color="#F5AB6D"/><stop offset=".579" stop-color="#F2903E"/><stop offset=".704" stop-color="#F07F21"/><stop offset=".775" stop-color="#EF7916"/><stop offset="1" stop-color="#CE5B0E"/></radialGradient><path fill="url(#x)" d="M35.48 21.32c0 1.2.97 2.15 2.16 2.15 1.2 0 2.16-.96 2.16-2.15 0-1.2-.97-2.16-2.16-2.16-1.2 0-2.16.97-2.16 2.16zm.28 0c0-1.04.84-1.9 1.88-1.9s1.88.86 1.88 1.9-.84 1.88-1.88 1.88-1.88-.84-1.88-1.88z"/></g></g><g transform="translate(-21.201 12.037)"><circle cx="37.641" cy="21.318" r="2.157" fill="none" stroke="#59270b" stroke-width="1.8"/><radialGradient cx="38.925" cy="44.445" r="3.218" gradientUnits="userSpaceOnUse" gradientTransform="matrix(-1 0 0 1 75.978 -24.189)" fy="44.445" fx="38.925"><stop offset="0" stop-color="#fff"/><stop offset=".219" stop-color="#F9D0AE"/><stop offset=".415" stop-color="#F5AB6D"/><stop offset=".579" stop-color="#F2903E"/><stop offset=".704" stop-color="#F07F21"/><stop offset=".775" stop-color="#EF7916"/><stop offset="1" stop-color="#CE5B0E"/></radialGradient><circle cx="37.641" cy="21.318" r="2.157" fill="url(#y)"/><g><radialGradient cx="6.437" cy="43.826" r="5.232" gradientUnits="userSpaceOnUse" gradientTransform="translate(29.871 -24.189)" fy="43.826" fx="6.437"><stop offset="0" stop-color="#fff"/><stop offset=".219" stop-color="#F9D0AE"/><stop offset=".415" stop-color="#F5AB6D"/><stop offset=".579" stop-color="#F2903E"/><stop offset=".704" stop-color="#F07F21"/><stop offset=".775" stop-color="#EF7916"/><stop offset="1" stop-color="#CE5B0E"/></radialGradient><path fill="url(#z)" d="M35.48 21.32c0 1.2.97 2.15 2.16 2.15 1.2 0 2.16-.96 2.16-2.15 0-1.2-.97-2.16-2.16-2.16-1.2 0-2.16.97-2.16 2.16zm.28 0c0-1.04.84-1.9 1.88-1.9s1.88.86 1.88 1.9-.84 1.88-1.88 1.88-1.88-.84-1.88-1.88z"/></g></g><g transform="translate(33.202 -9.286)"><circle cx="10.197" cy="20.367" r="2.347" fill="none" stroke="#152a4c" stroke-width="1.5"/><radialGradient cx="93.558" cy="111.58" r="3.159" gradientUnits="userSpaceOnUse" gradientTransform="matrix(0 -1 1 0 -101.929 112.774)" fy="111.58" fx="93.558"><stop offset="0" stop-color="#fff"/><stop offset=".09" stop-color="#DBE8F2"/><stop offset=".248" stop-color="#A2C3DE"/><stop offset=".395" stop-color="#75A6CD"/><stop offset=".525" stop-color="#5591C2"/><stop offset=".634" stop-color="#4185BB"/><stop offset=".708" stop-color="#3A80B8"/><stop offset="1" stop-color="#244A87"/></radialGradient><circle cx="10.197" cy="20.367" r="2.347" fill="url(#A)"/><g><radialGradient cx="-48.231" cy="110.754" r="6.288" gradientUnits="userSpaceOnUse" gradientTransform="matrix(0 1 1 0 -101.929 66.668)" fy="110.754" fx="-48.231"><stop offset="0" stop-color="#fff"/><stop offset=".685" stop-color="#2E659E"/><stop offset="1" stop-color="#1D3E63"/></radialGradient><path fill="url(#B)" d="M7.85 20.37c0 .62.24 1.2.7 1.65.43.45 1.02.7 1.65.7.62 0 1.2-.25 1.66-.7.44-.44.7-1.02.7-1.65-.02-1.3-1.07-2.35-2.36-2.35-1.3 0-2.35 1.05-2.35 2.35zm4.34 0c0 .53-.22 1.03-.6 1.4-.37.38-.87.6-1.4.6-.54 0-1.04-.22-1.4-.6-.4-.37-.6-.87-.6-1.4 0-1.1.9-2 2-2s2 .9 2 2z"/></g></g><g transform="translate(32.318 12.104)"><circle cx="10.197" cy="20.367" r="2.347" fill="none" stroke="#152a4c" stroke-width="1.5"/><radialGradient cx="93.558" cy="111.58" r="3.159" gradientUnits="userSpaceOnUse" gradientTransform="matrix(0 -1 1 0 -101.929 112.774)" fy="111.58" fx="93.558"><stop offset="0" stop-color="#fff"/><stop offset=".09" stop-color="#DBE8F2"/><stop offset=".248" stop-color="#A2C3DE"/><stop offset=".395" stop-color="#75A6CD"/><stop offset=".525" stop-color="#5591C2"/><stop offset=".634" stop-color="#4185BB"/><stop offset=".708" stop-color="#3A80B8"/><stop offset="1" stop-color="#244A87"/></radialGradient><circle cx="10.197" cy="20.367" r="2.347" fill="url(#C)"/><g><radialGradient id="e" cx="-48.231" cy="110.754" r="6.288" gradientUnits="userSpaceOnUse" gradientTransform="matrix(0 1 1 0 -101.929 66.668)" fy="110.754" fx="-48.231"><stop offset="0" stop-color="#fff"/><stop offset=".685" stop-color="#2E659E"/><stop offset="1" stop-color="#1D3E63"/></radialGradient><path fill="url(#D)" d="M7.85 20.37c0 .62.24 1.2.7 1.65.43.45 1.02.7 1.65.7.62 0 1.2-.25 1.66-.7.44-.44.7-1.02.7-1.65-.02-1.3-1.07-2.35-2.36-2.35-1.3 0-2.35 1.05-2.35 2.35zm4.34 0c0 .53-.22 1.03-.6 1.4-.37.38-.87.6-1.4.6-.54 0-1.04-.22-1.4-.6-.4-.37-.6-.87-.6-1.4 0-1.1.9-2 2-2s2 .9 2 2z"/></g></g></svg>