<svg xmlns="http://www.w3.org/2000/svg" width="48" height="48" xmlns:ns="&ns_ai;" xmlns:xlink="http://www.w3.org/1999/xlink" viewBox="0 0 45.238 43.682" overflow="visible" enable-background="new 0 0 45.238 43.682" version="1"><defs><linearGradient id="a"><stop offset="0" stop-color="#d3d7cf"/><stop offset="1" stop-color="#fff"/></linearGradient><linearGradient x1="23.201" x2="22.286" y1="3.505" y2="32.37" xlink:href="#a" gradientUnits="userSpaceOnUse" gradientTransform="translate(24.519 1.506)"/><radialGradient id="q" cx="14.31" cy="485.416" r="4.065" xlink:href="#b" gradientUnits="userSpaceOnUse" fx="14.31" fy="485.416"/><radialGradient id="p" cx="40.541" cy="486.093" r="2.869" xlink:href="#c" gradientUnits="userSpaceOnUse" gradientTransform="matrix(-1 0 0 1 55.359 0)" fx="40.541" fy="486.093"/><linearGradient id="o" x1="-165.394" x2="-170.38" y1="-93.119" y2="-104.198" xlink:href="#d" gradientUnits="userSpaceOnUse" gradientTransform="matrix(-.574 -.819 .819 -.574 -3.236 298.158)"/><linearGradient id="n" x1="-165.82" x2="-170.229" y1="-93.99" y2="-103.786" xlink:href="#e" gradientUnits="userSpaceOnUse" gradientTransform="matrix(-.76 -1.768 1.768 -.76 65.898 -346.931)"/><radialGradient cx="14.31" cy="485.416" r="4.065" xlink:href="#b" gradientUnits="userSpaceOnUse" fx="14.31" fy="485.416"/><radialGradient cx="40.541" cy="486.093" r="2.869" xlink:href="#c" gradientUnits="userSpaceOnUse" gradientTransform="matrix(-1 0 0 1 55.359 0)" fx="40.541" fy="486.093"/><linearGradient x1="-165.394" x2="-170.38" y1="-93.119" y2="-104.198" xlink:href="#d" gradientUnits="userSpaceOnUse" gradientTransform="matrix(-.574 -.819 .819 -.574 -3.236 298.158)"/><linearGradient x1="-165.82" x2="-170.229" y1="-93.99" y2="-103.786" xlink:href="#e" gradientUnits="userSpaceOnUse" gradientTransform="matrix(-.76 -1.768 1.768 -.76 65.898 -346.931)"/><radialGradient id="m" cx="14.31" cy="485.416" r="4.065" xlink:href="#b" gradientUnits="userSpaceOnUse" fx="14.31" fy="485.416"/><radialGradient id="l" cx="40.541" cy="486.093" r="2.869" xlink:href="#c" gradientUnits="userSpaceOnUse" gradientTransform="matrix(-1 0 0 1 55.359 0)" fx="40.541" fy="486.093"/><linearGradient id="k" x1="-165.394" x2="-170.38" y1="-93.119" y2="-104.198" xlink:href="#d" gradientUnits="userSpaceOnUse" gradientTransform="matrix(-.574 -.819 .819 -.574 -3.236 298.158)"/><linearGradient id="j" x1="-165.82" x2="-170.229" y1="-93.99" y2="-103.786" xlink:href="#e" gradientUnits="userSpaceOnUse" gradientTransform="matrix(-.76 -1.768 1.768 -.76 65.898 -346.931)"/><radialGradient id="b" cx="14.31" cy="485.416" r="4.065" gradientUnits="userSpaceOnUse" fy="485.416" fx="14.31"><stop offset="0" stop-color="#fff"/><stop offset=".685" stop-color="#2E659E"/><stop offset="1" stop-color="#1D3E63"/></radialGradient><radialGradient id="i" cx="14.31" cy="485.416" r="4.065" xlink:href="#b" gradientUnits="userSpaceOnUse" fx="14.31" fy="485.416"/><radialGradient id="c" cx="40.541" cy="486.093" r="2.869" gradientUnits="userSpaceOnUse" gradientTransform="matrix(-1 0 0 1 55.359 0)" fy="486.093" fx="40.541"><stop offset="0" stop-color="#fff"/><stop offset=".004" stop-color="#FDFDFE"/><stop offset=".107" stop-color="#C7D5E5"/><stop offset=".212" stop-color="#98B3CF"/><stop offset=".315" stop-color="#7297BD"/><stop offset=".417" stop-color="#5481B0"/><stop offset=".517" stop-color="#3F72A6"/><stop offset=".615" stop-color="#3268A0"/><stop offset=".708" stop-color="#2E659E"/><stop offset="1" stop-color="#193766"/></radialGradient><radialGradient id="h" cx="40.541" cy="486.093" r="2.869" xlink:href="#c" gradientUnits="userSpaceOnUse" gradientTransform="matrix(-1 0 0 1 55.359 0)" fx="40.541" fy="486.093"/><linearGradient id="d" x1="-165.394" x2="-170.38" y1="-93.119" y2="-104.198" gradientTransform="matrix(-.574 -.819 .819 -.574 -3.236 298.158)" gradientUnits="userSpaceOnUse"><stop offset="0" stop-color="#88A9C3"/><stop offset="1" stop-color="#fff"/></linearGradient><linearGradient id="g" x1="-165.394" x2="-170.38" y1="-93.119" y2="-104.198" xlink:href="#d" gradientUnits="userSpaceOnUse" gradientTransform="matrix(-.574 -.819 .819 -.574 -3.236 298.158)"/><linearGradient id="e" x1="-165.82" x2="-170.229" y1="-93.99" y2="-103.786" gradientTransform="matrix(-.574 -.819 .819 -.574 -6.75 -152.536)" gradientUnits="userSpaceOnUse"><stop offset="0" stop-color="#6F87A0"/><stop offset="1" stop-color="#fff"/></linearGradient><linearGradient id="f" x1="-165.82" x2="-170.229" y1="-93.99" y2="-103.786" xlink:href="#e" gradientUnits="userSpaceOnUse" gradientTransform="matrix(-.76 -1.768 1.768 -.76 65.898 -346.931)"/><linearGradient><stop offset="0" stop-color="#dfeaa1"/><stop offset="1" stop-color="#9db029"/></linearGradient><linearGradient x1="23.201" x2="22.286" y1="3.505" y2="32.37" xlink:href="#a" gradientUnits="userSpaceOnUse" gradientTransform="translate(24.519 1.506)"/><linearGradient id="r" x1="23.201" x2="22.286" y1="3.505" y2="32.37" xlink:href="#a" gradientUnits="userSpaceOnUse" gradientTransform="matrix(.75 0 0 .75 12.519 -1.607)"/></defs><g><path fill="url(#f)" d="M11.53 30.58c.9-1.13 10.6-13.73 11.75-15.15 1.1 1.06 4.1 3.54 5.1 4.52-1.12 1.2-13.8 13.47-15.05 14.8l-1.8-4.17z" ns:knockout="Off" transform="matrix(.942 0 0 .942 -12.548 -11.167)"/><g transform="matrix(1.775 .368 -.368 1.775 165.095 -865.979)"><linearGradient x1="-165.394" x2="-170.38" y1="-93.119" y2="-104.198" gradientUnits="userSpaceOnUse" gradientTransform="matrix(-.574 -.819 .819 -.574 -3.236 298.158)"><stop offset="0" stop-color="#88A9C3"/><stop offset="1" stop-color="#fff"/></linearGradient><path fill="url(#g)" d="M10.96 498.84l6.82-10.37-4.84-2.86-4.64 9.44 2.66 3.8zm-2-2.85c.34-.68 3.94-8.12 4.38-8.96.68.42 2.46 1.37 3.08 1.76-.45.73-5.6 8.3-6.1 9.13L8.96 496z" ns:knockout="Off"/></g><g transform="matrix(2.074 .43 -.43 2.074 190.798 -1012.878)"><circle cx="15.3" cy="487.164" r="2.072" fill="none" stroke="#152a4c" stroke-width=".667" ns:knockout="Off"/><circle cx="15.3" cy="487.164" r="2.072" fill="url(#h)" ns:knockout="Off"/><g ns:knockout="Off"><radialGradient cx="14.31" cy="485.416" r="4.065" gradientUnits="userSpaceOnUse" fy="485.416" fx="14.31"><stop offset="0" stop-color="#fff"/><stop offset=".685" stop-color="#2E659E"/><stop offset="1" stop-color="#1D3E63"/></radialGradient><path fill="url(#i)" d="M13.23 487.16c0 1.15.93 2.08 2.07 2.08.55 0 1.07-.22 1.46-.6.4-.4.6-.92.6-1.48 0-.55-.2-1.07-.6-1.46-.4-.4-.9-.6-1.46-.6-1.14 0-2.07.92-2.07 2.06zm.15 0c0-1.06.86-1.92 1.92-1.92.5 0 1 .2 1.36.57.36.37.56.85.56 1.36 0 .5-.2 1-.56 1.36-.36.36-.85.56-1.36.56-1.06 0-1.92-.86-1.92-1.92z" ns:knockout="Off"/></g></g></g><g><path fill="url(#j)" d="M11.53 30.58c.9-1.13 10.6-13.73 11.75-15.15 1.1 1.06 4.1 3.54 5.1 4.52-1.12 1.2-13.8 13.47-15.05 14.8l-1.8-4.17z" ns:knockout="Off" transform="matrix(.942 0 0 .942 14.768 10.618)"/><g transform="matrix(1.775 .368 -.368 1.775 192.411 -844.194)"><linearGradient x1="-165.394" x2="-170.38" y1="-93.119" y2="-104.198" gradientUnits="userSpaceOnUse" gradientTransform="matrix(-.574 -.819 .819 -.574 -3.236 298.158)"><stop offset="0" stop-color="#88A9C3"/><stop offset="1" stop-color="#fff"/></linearGradient><path fill="url(#k)" d="M10.96 498.84l6.82-10.37-4.84-2.86-4.64 9.44 2.66 3.8zm-2-2.85c.34-.68 3.94-8.12 4.38-8.96.68.42 2.46 1.37 3.08 1.76-.45.73-5.6 8.3-6.1 9.13L8.96 496z" ns:knockout="Off"/></g><g transform="matrix(2.074 .43 -.43 2.074 218.114 -991.093)"><circle cx="15.3" cy="487.164" r="2.072" fill="none" stroke="#152a4c" stroke-width=".667" ns:knockout="Off"/><circle cx="15.3" cy="487.164" r="2.072" fill="url(#l)" ns:knockout="Off"/><g ns:knockout="Off"><radialGradient cx="14.31" cy="485.416" r="4.065" gradientUnits="userSpaceOnUse" fy="485.416" fx="14.31"><stop offset="0" stop-color="#fff"/><stop offset=".685" stop-color="#2E659E"/><stop offset="1" stop-color="#1D3E63"/></radialGradient><path fill="url(#m)" d="M13.23 487.16c0 1.15.93 2.08 2.07 2.08.55 0 1.07-.22 1.46-.6.4-.4.6-.92.6-1.48 0-.55-.2-1.07-.6-1.46-.4-.4-.9-.6-1.46-.6-1.14 0-2.07.92-2.07 2.06zm.15 0c0-1.06.86-1.92 1.92-1.92.5 0 1 .2 1.36.57.36.37.56.85.56 1.36 0 .5-.2 1-.56 1.36-.36.36-.85.56-1.36.56-1.06 0-1.92-.86-1.92-1.92z" ns:knockout="Off"/></g></g></g><g><path fill="url(#n)" d="M11.53 30.58c.9-1.13 10.6-13.73 11.75-15.15 1.1 1.06 4.1 3.54 5.1 4.52-1.12 1.2-13.8 13.47-15.05 14.8l-1.8-4.17z" ns:knockout="Off" transform="matrix(.942 0 0 .942 -7.463 8.199)"/><g transform="matrix(1.775 .368 -.368 1.775 170.18 -846.613)"><linearGradient x1="-165.394" x2="-170.38" y1="-93.119" y2="-104.198" gradientUnits="userSpaceOnUse" gradientTransform="matrix(-.574 -.819 .819 -.574 -3.236 298.158)"><stop offset="0" stop-color="#88A9C3"/><stop offset="1" stop-color="#fff"/></linearGradient><path fill="url(#o)" d="M10.96 498.84l6.82-10.37-4.84-2.86-4.64 9.44 2.66 3.8zm-2-2.85c.34-.68 3.94-8.12 4.38-8.96.68.42 2.46 1.37 3.08 1.76-.45.73-5.6 8.3-6.1 9.13L8.96 496z" ns:knockout="Off"/></g><g transform="matrix(2.074 .43 -.43 2.074 195.883 -993.512)"><circle cx="15.3" cy="487.164" r="2.072" fill="none" stroke="#152a4c" stroke-width=".667" ns:knockout="Off"/><circle cx="15.3" cy="487.164" r="2.072" fill="url(#p)" ns:knockout="Off"/><g ns:knockout="Off"><radialGradient cx="14.31" cy="485.416" r="4.065" gradientUnits="userSpaceOnUse" fy="485.416" fx="14.31"><stop offset="0" stop-color="#fff"/><stop offset=".685" stop-color="#2E659E"/><stop offset="1" stop-color="#1D3E63"/></radialGradient><path fill="url(#q)" d="M13.23 487.16c0 1.15.93 2.08 2.07 2.08.55 0 1.07-.22 1.46-.6.4-.4.6-.92.6-1.48 0-.55-.2-1.07-.6-1.46-.4-.4-.9-.6-1.46-.6-1.14 0-2.07.92-2.07 2.06zm.15 0c0-1.06.86-1.92 1.92-1.92.5 0 1 .2 1.36.57.36.37.56.85.56 1.36 0 .5-.2 1-.56 1.36-.36.36-.85.56-1.36.56-1.06 0-1.92-.86-1.92-1.92z" ns:knockout="Off"/></g></g></g><path fill="url(#r)" fill-rule="evenodd" stroke="#2e3436" stroke-width="1.414" d="M22.42-.07v13.15h5.8l-9.88 10.98 20.1-10.98h6.1V-.07H22.4z" color="#000" stroke-linejoin="round" overflow="visible"/><path fill="none" stroke="#fff" stroke-width=".942" stroke-miterlimit="6" d="M23.4 1.05v11.07h7.34l-8.84 9.2 16.04-9.2h5.43V1.05H23.4z" color="#000" overflow="visible"/></svg>