<svg xmlns="http://www.w3.org/2000/svg" width="48" height="48" xmlns:xlink="http://www.w3.org/1999/xlink"><defs><linearGradient id="j"><stop offset="0" stop-color="#8cb0e4"/><stop offset="1" stop-color="#204a87"/></linearGradient><linearGradient id="i"><stop offset="0" stop-color="#90b2e5"/><stop offset="1" stop-color="#204a87"/></linearGradient><linearGradient id="f"><stop offset="0" stop-color="#36689e"/><stop offset="1" stop-color="#729fcf"/></linearGradient><linearGradient id="k"><stop offset="0" stop-color="#fcaf3e"/><stop offset="1" stop-color="#be7203"/></linearGradient><linearGradient id="l"><stop offset="0" stop-color="#4fa2c7"/><stop offset="1" stop-color="#2d718f"/></linearGradient><linearGradient id="b"><stop offset="0" stop-color="#fff"/><stop offset=".5" stop-color="#fff"/><stop offset="1" stop-color="#d6d6d1"/></linearGradient><linearGradient id="e"><stop offset="0" stop-color="#eeeeec"/><stop offset="1" stop-color="#eeeeec" stop-opacity="0"/></linearGradient><linearGradient id="d"><stop offset="0" stop-color="#b8a0a0"/><stop offset="1" stop-color="#644a4a"/></linearGradient><linearGradient id="c"><stop offset="0" stop-color="#fde5e5"/><stop offset="1" stop-color="#d59b9b"/></linearGradient><linearGradient id="h"><stop offset="0" stop-color="#204a87"/><stop offset="1" stop-color="#204a87" stop-opacity="0"/></linearGradient><linearGradient id="g"><stop offset="0" stop-color="#cfdeef"/><stop offset="1" stop-color="#6b9acd"/></linearGradient><linearGradient id="a"><stop offset="0" stop-color="#917600"/><stop offset="1" stop-color="#917600" stop-opacity="0"/></linearGradient><linearGradient id="m"><stop offset="0" stop-color="#fce94f"/><stop offset="1" stop-color="#c4a000"/></linearGradient><linearGradient id="t" x1="23.489" x2="23.844" y1="14.302" y2="28.293" xlink:href="#a" gradientUnits="userSpaceOnUse" gradientTransform="matrix(1 0 0 1.176 .051 .592)"/><radialGradient cx="10.607" cy="14.463" r="13.887" xlink:href="#b" fx="10.607" fy="14.463" gradientUnits="userSpaceOnUse"/><radialGradient id="y" cx="3.51" cy="9.751" r="3.986" xlink:href="#c" gradientUnits="userSpaceOnUse" gradientTransform="matrix(1.215 .014 -.015 1.253 -.612 -2.531)" fx="3.51" fy="9.751"/><linearGradient id="z" x1="1.645" x2="7.497" y1="7.922" y2="13.377" xlink:href="#d" gradientUnits="userSpaceOnUse"/><linearGradient id="A" x1="7.335" x2=".97" y1="13.449" y2="6.106" xlink:href="#e" gradientUnits="userSpaceOnUse"/><linearGradient id="q" x1="9.409" x2="34.111" y1="17.374" y2="17.821" xlink:href="#f" gradientUnits="userSpaceOnUse"/><linearGradient id="w" x1="20.914" x2="18.296" y1="15.927" y2="21.489" xlink:href="#g" gradientUnits="userSpaceOnUse" gradientTransform="matrix(-.832 -.423 -.423 .832 52.236 7.812)"/><linearGradient id="v" x1="6.414" x2="20.759" y1="12.469" y2="12.469" xlink:href="#h" gradientUnits="userSpaceOnUse" gradientTransform="matrix(-.832 -.423 -.423 .832 52.236 7.812)"/><linearGradient id="x" x1="17.997" x2="33.078" y1="10.112" y2="14.04" xlink:href="#i" gradientUnits="userSpaceOnUse"/><linearGradient id="u" x1="28.074" x2="42.762" y1="2.672" y2="14.315" xlink:href="#j" gradientUnits="userSpaceOnUse"/><linearGradient id="r" x1="9.409" x2="34.111" y1="17.374" y2="17.821" xlink:href="#j" gradientUnits="userSpaceOnUse"/><linearGradient x1="11.746" x2="11.202" y1="16.488" y2="25.917" xlink:href="#k" gradientUnits="userSpaceOnUse" gradientTransform="translate(.071 -1.714)"/><linearGradient x1="4.324" x2=".765" y1="9.384" y2="21.955" xlink:href="#l" gradientUnits="userSpaceOnUse" gradientTransform="translate(.071 -1.714)"/><radialGradient id="s" cx="22.819" cy="18.913" r="17.628" xlink:href="#m" fx="22.819" fy="18.913" gradientTransform="matrix(1.575 -.026 .017 1.016 -13.643 3.272)" gradientUnits="userSpaceOnUse"/><radialGradient id="n" cx="10.607" cy="14.463" r="13.887" xlink:href="#b" gradientUnits="userSpaceOnUse" fx="10.607" fy="14.463"/><linearGradient id="o" x1="4.324" x2=".765" y1="9.384" y2="21.955" xlink:href="#l" gradientUnits="userSpaceOnUse" gradientTransform="translate(.071 -1.714)"/><linearGradient id="p" x1="11.746" x2="11.202" y1="16.488" y2="25.917" xlink:href="#k" gradientUnits="userSpaceOnUse" gradientTransform="translate(.071 -1.714)"/></defs><g><g><path fill="url(#n)" stroke="#888a85" stroke-width=".57" d="M27.53 17.34c0 7.53-6.1 13.64-13.64 13.64-7.54 0-13.65-6.1-13.65-13.64C.25 9.8 6.35 3.7 13.9 3.7c7.52 0 13.63 6.1 13.63 13.64z" transform="matrix(.877 0 0 .877 -.072 -2.388)" color="#000" overflow="visible" enable-background="accumulate"/><path fill="#ef2929" d="M8.4 1.54c1.04.37 1.57 1.17 2.1 2-1.7-.56-4.8-.96-6.54.75C5.2 3.23 6.34 2.13 8.4 1.53z"/><path fill="url(#o)" d="M.55 12.96C1.6 7.1 6.62 4.3 11.98 3.8 3.96 7.7.5 15.97 2.6 21.54 1.46 19.68.1 16.63.55 12.96z" transform="matrix(.877 0 0 .877 -.134 .267)"/><path fill="url(#p)" d="M12.12 3.6C6.94 11.6 5.94 22.64 9.5 26.78c2.32.97 4.73.78 7.13.6-1.8-7.68-3.14-15.74-4.5-23.76z" transform="matrix(.877 0 0 .877 -.134 .267)"/><path fill="#4e9a06" d="M10.55 3.48c4.32 3.74 10.9 10.72 9.57 17.93 1.6-1.47 3.4-4.1 3.8-7.85C21.8 6.35 14.6 4 10.54 3.48z"/><path fill="#ad7fa8" d="M10.45 3.58c-.14-.26 1.74-2.2 2.97-2.5 2.27.24 4.2 1.14 5.9 2.23-3.5-.7-6.32-.68-8.87.28z"/></g><path fill="url(#q)" stroke="url(#r)" stroke-width="1.08" d="M33.57 17.82a8.5 3.3 0 1 1-17 0 8.5 3.3 0 1 1 17 0z" transform="matrix(.827 .419 -.42 .825 10.542 -9.166)" color="#000" overflow="visible" enable-background="accumulate"/><path fill="#c4a000" fill-opacity=".546" d="M2.04 31.22c-.07 3.5 5.65 4.02 8.1 6.46 2.38 2.35 3.2 6.75 6.33 7.8 3.56 1.2 7.15-2.55 10.9-2.8 3.9-.24 8.43 3.7 11.68 1.46 2.06-1.42.53-5.25 1.92-7.34 1.4-2.08 6.2-2 5.93-4.5-.4-3.8-6.8-3.2-10.23-4.7-4.45-1.93-8.63-5.3-13.46-5.52-5.13-.25-10.16 2.18-14.78 4.5-2.34 1.16-6.32 1.97-6.38 4.64z"/><path fill="#c4a000" fill-opacity=".546" d="M4 31.3c-.05 2.9 5.17 3.33 7.4 5.34 2.18 1.95 2.92 5.58 5.8 6.45 3.24.97 6.52-2.12 9.93-2.32 3.58-.2 7.7 3.05 10.68 1.2 1.9-1.17.5-4.33 1.77-6.07 1.26-1.7 5.65-1.64 5.4-3.7-.36-3.13-6.2-2.65-9.33-3.9-4.07-1.6-7.9-4.36-12.3-4.55-4.7-.2-9.28 1.8-13.5 3.7C7.7 28.44 4.07 29.1 4 31.3z" color="#000" overflow="visible" enable-background="accumulate"/><path fill="#c4a000" fill-opacity=".211" d="M-.05 31.77c-.08 3.9 6.06 4.5 8.7 7.2 2.55 2.63 3.42 7.53 6.8 8.7 3.82 1.33 7.68-2.84 11.7-3.1 4.2-.3 9.06 4.1 12.56 1.6 2.2-1.57.58-5.84 2.07-8.18 1.5-2.32 6.7-2.24 6.37-5.02-.64-5.5-6.84-4.63-10.54-6.3-4.78-2.16-9.73-4.85-14.92-5.1-5.52-.28-10.92 2.43-15.88 5C4.28 27.9 0 28.8-.05 31.8z"/><path fill="url(#s)" stroke="url(#t)" stroke-width=".75" d="M7.3 29.73c0-1.32 4.2-3.97 5.8-5.2 1.7-1.28 6.06-7.76 10.88-7.67 4.63.1 8.8 7.55 11.4 9.97 2.53 2.36 6.38 3.4 6.42 5 .02.48-3.03 1.8-3.5 2.5-.7 1.13-.05 4.14-1.94 5.08-2.5 1.26-6.07-.42-7.68-.7-4.16-.7-6 2.02-8.86 2.08-2.5.06-3.57-2.67-6.56-6.17-1.94-2.26-5.95-2.9-5.96-4.87z" color="#000" overflow="visible" enable-background="accumulate"/><path fill="#729fcf" stroke="url(#u)" d="M19.93 10.37c.13-3 9.4-11.06 14.62-9.6C38.83 2 45.67 13.62 44.48 14.53c-1.35 1.04-6.73-5.47-8.06-4.95-1.33.52-4.2 7.94-5.6 7.88-2.1-.08-10.48-5.63-10.9-7.08z"/><path fill="#eeeeec" d="M31.98 4.67l1.25-.05.75 1 .34-1.2L35.5 4l-1.04-.7-.02-1.25-.98.78-1.2-.37.44 1.17z" color="#000" overflow="visible" enable-background="accumulate"/><path fill="#eeeeec" d="M26.8 6.32l1.25-.05.75 1 .34-1.2 1.18-.4-1.04-.7-.02-1.25-.98.77-1.2-.37.44 1.17z" color="#000" overflow="visible" enable-background="accumulate"/><path fill="#eeeeec" d="M30.6 11.05l1.23-.05.75 1 .34-1.2 1.18-.4-1.04-.7-.02-1.25-.98.77-1.2-.36.44 1.17z" color="#000" overflow="visible" enable-background="accumulate"/><path fill="#eeeeec" d="M36.1 8.03l1.24-.05.75 1 .32-1.2 1.18-.4-1.04-.7-.02-1.25-.97.78-1.2-.36L36.8 7z" color="#000" overflow="visible" enable-background="accumulate"/><path fill="url(#v)" d="M42.96 12.84S37.98 6.1 34.44 6.4c-2.5.2-6.86 7.13-6.86 7.13l4.5 3.1 4.37-7.2 5.85 4.4z"/><path fill="#eeeeec" d="M23.85 10.26l1.24-.05.74 1 .34-1.2 1.18-.4-1.04-.7-.02-1.24-.98.78-1.2-.37.44 1.17z" color="#000" overflow="visible" enable-background="accumulate"/><path fill="url(#w)" stroke="url(#x)" d="M32.52 15.88c.32.73-.73 4-1.46 4.13-1.2.2-4.33-4.1-6.82-5.42-2.4-1.27-7.04-1.97-7.17-2.65-.13-.7 2.58-3.6 3.17-3.83.56-.23 4 .75 7.72 3.16 2.67 1.72 4.08 3.53 4.56 4.62z"/><path fill="url(#y)" stroke="url(#z)" stroke-width=".804" d="M7.98 10.55a3.6 3.66 0 1 1-7.22 0 3.6 3.66 0 1 1 7.22 0z" transform="matrix(-.832 -.423 -.423 .832 52.236 7.812)" color="#000" overflow="visible" enable-background="accumulate"/><path fill="none" stroke="url(#A)" stroke-width=".982" d="M7.98 10.55a3.6 3.66 0 1 1-7.22 0 3.6 3.66 0 1 1 7.22 0z" transform="matrix(-.681 -.347 -.347 .681 50.765 9.068)" color="#000" overflow="visible" enable-background="accumulate"/><path fill="#eeeeec" stroke="#2e3436" stroke-width=".712" d="M23.9 26.2a4.22 4.22 0 1 1-8.44 0 4.22 4.22 0 1 1 8.43 0z" transform="matrix(1.399 0 0 1.41 -9.647 -12.878)" color="#000" overflow="visible" enable-background="accumulate"/><path fill="#eeeeec" stroke="#2e3436" stroke-width=".9995999999999999" d="M34.04 23.8a5 5.04 0 1 1-10 0 5 5.04 0 1 1 10 0z" color="#000" overflow="visible" enable-background="accumulate"/><path fill="#eeeeec" stroke="#2e3436" d="M28.4 33.93a3.96 3.96 0 1 1-7.94 0 3.96 3.96 0 1 1 7.93 0z" color="#000" overflow="visible" enable-background="accumulate"/><path fill="#2e3436" d="M28.4 35.27a4.02 2.78 0 1 1-8.05 0 4.02 2.78 0 1 1 8.04 0z" color="#000" overflow="visible" enable-background="accumulate"/><path fill="#2e3436" d="M18.86 23a1.52 2.3 0 1 1-3.04 0 1.52 2.3 0 1 1 3.04 0z" color="#000" overflow="visible" enable-background="accumulate"/><path fill="#2e3436" d="M29.6 23.5a1.3 1.96 0 1 1-2.56 0 1.3 1.96 0 1 1 2.57 0z" color="#000" overflow="visible" enable-background="accumulate"/></g></svg>