<svg xmlns="http://www.w3.org/2000/svg" width="48" height="48" xmlns:xlink="http://www.w3.org/1999/xlink" viewBox="0 0 45.091 28.9" overflow="visible" enable-background="new 0 0 45.091 28.9" version="1"><defs><linearGradient id="b"><stop offset="0" stop-color="#035884"/><stop offset="1" stop-color="#035884" stop-opacity="0"/></linearGradient><linearGradient id="a"><stop offset="0" stop-color="#035884"/><stop offset="1" stop-color="#035884" stop-opacity="0"/></linearGradient><linearGradient id="c" x1="1.403" x2="20.263" y1="14.317" y2="14.317" gradientUnits="userSpaceOnUse"><stop offset="0" stop-color="#fff" stop-opacity="0"/><stop offset="1" stop-color="#0989cb"/></linearGradient><linearGradient id="e" x1="9.477" x2="2.868" y1="14.3" y2="14.3" xlink:href="#a" gradientUnits="userSpaceOnUse"/><linearGradient id="d" x1="23.277" x2="9.536" y1="10.941" y2="1.908" xlink:href="#b" gradientUnits="userSpaceOnUse"/><linearGradient id="f" x1="22.901" x2="9.611" y1="17.024" y2="26.726" xlink:href="#b" gradientUnits="userSpaceOnUse"/></defs><path fill="#0989cb" stroke="#035884" stroke-width=".939" d="M22.7 11.15V6.13c0-.18.16-.33.35-.33.1 0 .17.04.23.1 1.75 1.7 6.9 7.5 6.9 7.5.26.26.26.68 0 .94l-6.9 7.5c-.05.07-.14.1-.23.1-.2 0-.34-.14-.34-.33l.02-4.76"/><path fill="none" stroke="#73cffe" d="M29.7 13.85c-.76-.86-4.42-4.8-6.3-6.8" stroke-linecap="round"/><path fill="url(#c)" d="M23.03 11.16c-4.5 0-12.2-7.24-13.24-9L2.9 9.24c.53.87 4.38 3.5 6.33 4.8-1.96 1.26-6.1 4.45-6.6 5.32l6.8 7.12c1.04-1.76 9.1-9.65 13.6-9.65"/><path fill="none" stroke="url(#d)" stroke-width=".5" d="M23.03 11.16c-4.5 0-12.2-7.24-13.24-9"/><path fill="none" stroke="#73cffe" d="M9.14 2.54c1.16 1.96 9.1 9.37 13.9 9.37"/><path fill="none" stroke="url(#e)" stroke-width=".5" d="M2.9 9.24c.53.87 4.38 3.5 6.33 4.8-1.96 1.26-6.1 4.45-6.6 5.32"/><path fill="none" stroke="url(#f)" stroke-width=".5" d="M9.43 26.48c1.04-1.76 9.1-9.65 13.6-9.65" color="#000" overflow="visible"/><g><circle cx="41.035" cy="14" r="3.156" fill="none" stroke="#152a4c" stroke-width="1.8"/><radialGradient id="g" cx="89.133" cy="134.353" r="4.433" gradientUnits="userSpaceOnUse" gradientTransform="matrix(0 -1 1 0 -94.043 101.978)" fy="134.353" fx="89.133"><stop offset="0" stop-color="#fff"/><stop offset=".09" stop-color="#DBE8F2"/><stop offset=".248" stop-color="#A2C3DE"/><stop offset=".395" stop-color="#75A6CD"/><stop offset=".525" stop-color="#5591C2"/><stop offset=".634" stop-color="#4185BB"/><stop offset=".708" stop-color="#3A80B8"/><stop offset="1" stop-color="#244A87"/></radialGradient><circle cx="41.035" cy="14" r="3.156" fill="url(#g)"/><g><radialGradient id="h" cx="-47.417" cy="133.244" r="7.817" gradientUnits="userSpaceOnUse" gradientTransform="matrix(0 1 1 0 -94.043 58.782)" fy="133.244" fx="-47.417"><stop offset="0" stop-color="#fff"/><stop offset=".685" stop-color="#2E659E"/><stop offset="1" stop-color="#1D3E63"/></radialGradient><path fill="url(#h)" d="M37.88 14c0 .84.32 1.64.92 2.23.6.6 1.4.93 2.23.93.84 0 1.64-.33 2.24-.93.6-.6.92-1.38.92-2.23 0-1.74-1.43-3.15-3.17-3.15s-3.16 1.4-3.16 3.15zm5.8 0c0 .7-.27 1.37-.77 1.88-.5.5-1.16.77-1.86.77-.72 0-1.38-.27-1.88-.77s-.78-1.17-.78-1.88c0-1.46 1.2-2.65 2.66-2.65 1.46 0 2.65 1.2 2.65 2.65z"/></g></g><g><path fill="none" stroke="#152a4c" stroke-width="1.8" d="M33.72 14.9c1.74 0 3.15 1.4 3.15 3.15s-1.4 3.16-3.15 3.16-3.16-1.4-3.16-3.14c0-1.75 1.4-3.16 3.16-3.16z"/><radialGradient id="i" cx="85.076" cy="127.034" r="4.434" gradientUnits="userSpaceOnUse" gradientTransform="matrix(0 -1 1 0 -94.043 101.978)" fy="127.034" fx="85.076"><stop offset="0" stop-color="#fff"/><stop offset=".09" stop-color="#DBE8F2"/><stop offset=".248" stop-color="#A2C3DE"/><stop offset=".395" stop-color="#75A6CD"/><stop offset=".525" stop-color="#5591C2"/><stop offset=".634" stop-color="#4185BB"/><stop offset=".708" stop-color="#3A80B8"/><stop offset="1" stop-color="#244A87"/></radialGradient><path fill="url(#i)" d="M33.72 14.9c1.74 0 3.15 1.4 3.15 3.15s-1.4 3.16-3.15 3.16-3.16-1.4-3.16-3.14c0-1.75 1.4-3.16 3.16-3.16z"/><g><radialGradient id="j" cx="-43.36" cy="125.925" r="7.817" gradientUnits="userSpaceOnUse" gradientTransform="matrix(0 1 1 0 -94.043 58.782)" fy="125.925" fx="-43.36"><stop offset="0" stop-color="#fff"/><stop offset=".685" stop-color="#2E659E"/><stop offset="1" stop-color="#1D3E63"/></radialGradient><path fill="url(#j)" d="M30.56 18.06c0 .84.32 1.63.92 2.23.6.58 1.4.9 2.24.9.84 0 1.63-.32 2.23-.9.6-.6.92-1.4.92-2.24 0-1.74-1.4-3.16-3.15-3.16s-3.16 1.42-3.16 3.16zm5.8 0c0 .7-.27 1.37-.77 1.87s-1.18.78-1.88.78c-.72 0-1.38-.27-1.88-.77s-.78-1.16-.78-1.87c0-1.47 1.2-2.66 2.66-2.66 1.46 0 2.65 1.2 2.65 2.66z"/></g></g><g><path fill="none" stroke="#152a4c" stroke-width="1.8" d="M4.06 21.7c1.74 0 3.16 1.4 3.16 3.14C7.22 26.6 5.8 28 4.06 28 2.32 28 .9 26.6.9 24.84c0-1.74 1.4-3.15 3.16-3.15z"/><radialGradient id="k" cx="78.289" cy="97.379" r="4.435" gradientUnits="userSpaceOnUse" gradientTransform="matrix(0 -1 1 0 -94.043 101.978)" fy="97.379" fx="78.289"><stop offset="0" stop-color="#fff"/><stop offset=".09" stop-color="#DBE8F2"/><stop offset=".248" stop-color="#A2C3DE"/><stop offset=".395" stop-color="#75A6CD"/><stop offset=".525" stop-color="#5591C2"/><stop offset=".634" stop-color="#4185BB"/><stop offset=".708" stop-color="#3A80B8"/><stop offset="1" stop-color="#244A87"/></radialGradient><path fill="url(#k)" d="M4.06 21.7c1.74 0 3.16 1.4 3.16 3.14C7.22 26.6 5.8 28 4.06 28 2.32 28 .9 26.6.9 24.84c0-1.74 1.4-3.15 3.16-3.15z"/><g><radialGradient id="l" cx="-36.574" cy="96.27" r="7.818" gradientUnits="userSpaceOnUse" gradientTransform="matrix(0 1 1 0 -94.043 58.782)" fy="96.27" fx="-36.574"><stop offset="0" stop-color="#fff"/><stop offset=".685" stop-color="#2E659E"/><stop offset="1" stop-color="#1D3E63"/></radialGradient><path fill="url(#l)" d="M.9 24.84c0 .84.33 1.64.92 2.23.6.6 1.4.93 2.24.93.84 0 1.64-.33 2.23-.93.6-.6.92-1.38.92-2.23 0-1.73-1.42-3.15-3.16-3.15C2.32 21.7.9 23.1.9 24.83zm5.8 0c0 .7-.26 1.38-.76 1.88s-1.17.78-1.88.78c-.7 0-1.38-.28-1.88-.78s-.78-1.17-.78-1.88c0-1.46 1.2-2.65 2.66-2.65 1.46 0 2.65 1.18 2.65 2.64z"/></g></g><g><circle cx="4.239" cy="3.977" r="3.072" fill="none" stroke="#59270b" stroke-width="1.8"/><radialGradient id="m" cx="69.665" cy="26.653" r="4.583" gradientUnits="userSpaceOnUse" gradientTransform="matrix(-1 0 0 1 73.068 -24.189)" fy="26.653" fx="69.665"><stop offset="0" stop-color="#fff"/><stop offset=".219" stop-color="#F9D0AE"/><stop offset=".415" stop-color="#F5AB6D"/><stop offset=".579" stop-color="#F2903E"/><stop offset=".704" stop-color="#F07F21"/><stop offset=".775" stop-color="#EF7916"/><stop offset="1" stop-color="#CE5B0E"/></radialGradient><circle cx="4.239" cy="3.977" r="3.072" fill="url(#m)"/><g><radialGradient id="n" cx="-27.531" cy="25.77" r="7.452" gradientUnits="userSpaceOnUse" gradientTransform="translate(29.871 -24.189)" fy="25.77" fx="-27.531"><stop offset="0" stop-color="#fff"/><stop offset=".219" stop-color="#F9D0AE"/><stop offset=".415" stop-color="#F5AB6D"/><stop offset=".579" stop-color="#F2903E"/><stop offset=".704" stop-color="#F07F21"/><stop offset=".775" stop-color="#EF7916"/><stop offset="1" stop-color="#CE5B0E"/></radialGradient><path fill="url(#n)" d="M1.17 3.98c0 1.7 1.38 3.07 3.07 3.07 1.7 0 3.07-1.38 3.07-3.07C7.3 2.28 5.94.9 4.25.9c-1.7 0-3.07 1.38-3.07 3.08zm.4 0c0-1.48 1.2-2.7 2.67-2.7C5.72 1.3 6.92 2.5 6.92 4c0 1.47-1.2 2.68-2.68 2.68-1.48 0-2.68-1.2-2.68-2.68z"/></g></g><g><circle cx="33.927" cy="9.745" r="3.072" fill="none" stroke="#59270b" stroke-width="1.8"/><radialGradient id="o" cx="39.978" cy="32.422" r="4.583" gradientUnits="userSpaceOnUse" gradientTransform="matrix(-1 0 0 1 73.068 -24.189)" fy="32.422" fx="39.978"><stop offset="0" stop-color="#fff"/><stop offset=".219" stop-color="#F9D0AE"/><stop offset=".415" stop-color="#F5AB6D"/><stop offset=".579" stop-color="#F2903E"/><stop offset=".704" stop-color="#F07F21"/><stop offset=".775" stop-color="#EF7916"/><stop offset="1" stop-color="#CE5B0E"/></radialGradient><circle cx="33.927" cy="9.745" r="3.072" fill="url(#o)"/><g><radialGradient id="p" cx="2.156" cy="31.539" r="7.452" gradientUnits="userSpaceOnUse" gradientTransform="translate(29.871 -24.189)" fy="31.539" fx="2.156"><stop offset="0" stop-color="#fff"/><stop offset=".219" stop-color="#F9D0AE"/><stop offset=".415" stop-color="#F5AB6D"/><stop offset=".579" stop-color="#F2903E"/><stop offset=".704" stop-color="#F07F21"/><stop offset=".775" stop-color="#EF7916"/><stop offset="1" stop-color="#CE5B0E"/></radialGradient><path fill="url(#p)" d="M30.85 9.74c0 1.7 1.38 3.07 3.07 3.07 1.7 0 3.08-1.36 3.08-3.06s-1.38-3.07-3.08-3.07c-1.7 0-3.07 1.38-3.07 3.07zm.4 0c0-1.48 1.2-2.68 2.68-2.68 1.48 0 2.68 1.2 2.68 2.68 0 1.48-1.2 2.68-2.67 2.68-1.48 0-2.68-1.2-2.68-2.68z"/></g></g></svg>