<svg xmlns="http://www.w3.org/2000/svg" width="48" height="48" i:viewOrigin="0 48" i:rulerOrigin="0 0" i:pageBounds="0 48 48 0" xmlns:i="&ns_ai;" xmlns:sodipodi="http://inkscape.sourceforge.net/DTD/sodipodi-0.dtd" viewBox="0 0 41.968 48.388" overflow="visible" enable-background="new 0 0 41.968 48.388" sodipodi:version=".32" sodipodi:docname="collision.svg" sodipodi:docbase="e:\dev_clean\src\houdini\support\icons\pop" version="1"><defs><linearGradient id="h" x1="2.711" x2="2.711" y1="-.139" y2="48.255" gradientUnits="userSpaceOnUse"><stop offset="0" stop-color="#fff"/><stop offset="1" stop-color="#6C7680"/></linearGradient></defs><sodipodi:namedview fill="#fce94f" stroke="#c4a000" borderopacity="1" bordercolor="#666666" pagecolor="#ffffff"/><g><linearGradient id="a" x1="14.506" x2="28.877" y1="25.123" y2="45.697" gradientUnits="userSpaceOnUse"><stop offset="0" stop-color="#709EC3"/><stop offset=".494" stop-color="#CFE4EC"/><stop offset="1" stop-color="#fff"/></linearGradient><path fill="url(#a)" d="M5.4 27.54L20.3 48h21L10.67 23.54l-5.3 4z" i:knockout="Off"/></g><g><linearGradient id="b" x1="9.993" x2="24.557" y1="21.418" y2="14.068" gradientUnits="userSpaceOnUse"><stop offset="0" stop-color="#709EC3"/><stop offset="1" stop-color="#CFE4EC"/></linearGradient><path fill="url(#b)" d="M5.83 21.78v4.4L13 23.52l13.8-5.7-3.62-7.9L5.83 21.78z" i:knockout="Off"/></g><g><radialGradient id="c" cx="12.324" cy="27.048" r="20.171" gradientUnits="userSpaceOnUse" fy="27.048" fx="12.324"><stop offset="0" stop-color="#709EC3"/><stop offset=".494" stop-color="#CFE4EC"/><stop offset="1" stop-color="#fff"/></radialGradient><path fill="url(#c)" d="M9.98 17.83l.56.83 13.92-9.34L24 8.6 9.98 17.82z" i:knockout="Off"/></g><g><radialGradient id="d" cx="12.324" cy="27.13" r="20.236" gradientUnits="userSpaceOnUse" fy="27.13" fx="12.324"><stop offset="0" stop-color="#709EC3"/><stop offset=".494" stop-color="#CFE4EC"/><stop offset="1" stop-color="#fff"/></radialGradient><path fill="url(#d)" d="M6 29.4l13.4 18.8.82-.57-13.4-18.8-.83.57z" i:knockout="Off"/></g><g transform="matrix(1.072 0 0 1.049 -3.03 -2.389)"><radialGradient id="e" cx="12.325" cy="27.132" r="20.234" gradientUnits="userSpaceOnUse" fy="27.132" fx="12.325"><stop offset="0" stop-color="#709EC3"/><stop offset=".494" stop-color="#CFE4EC"/><stop offset="1" stop-color="#fff"/></radialGradient><path fill="url(#e)" d="M13 25.32L41.33 48.4l.63-.8-28.35-23.05-.63.77z" i:knockout="Off"/></g><g><circle cx="27.426" cy="12.632" r="4.543" fill="none" stroke="#152a4c" stroke-width="1.5" sodipodi:cx="27.426" sodipodi:rx="4.543" sodipodi:cy="12.632" i:knockout="Off" sodipodi:ry="4.543"/><radialGradient id="f" cx="103.989" cy="128.2" r="6.382" gradientUnits="userSpaceOnUse" gradientTransform="matrix(0 -1 1 0 -101.816 114.959)" fy="128.2" fx="103.989"><stop offset="0" stop-color="#fff"/><stop offset=".09" stop-color="#DBE8F2"/><stop offset=".248" stop-color="#A2C3DE"/><stop offset=".395" stop-color="#75A6CD"/><stop offset=".525" stop-color="#5591C2"/><stop offset=".634" stop-color="#4185BB"/><stop offset=".708" stop-color="#3A80B8"/><stop offset="1" stop-color="#244A87"/></radialGradient><circle cx="27.426" cy="12.632" r="4.543" fill="url(#f)" sodipodi:ry="4.543" sodipodi:rx="4.543" sodipodi:cy="12.632" sodipodi:cx="27.426" i:knockout="Off"/><g i:knockout="Off"><radialGradient id="g" cx="-57.718" cy="126.603" r="11.253" gradientUnits="userSpaceOnUse" gradientTransform="matrix(0 1 1 0 -101.816 66.555)" fy="126.603" fx="-57.718"><stop offset="0" stop-color="#fff"/><stop offset=".685" stop-color="#2E659E"/><stop offset="1" stop-color="#1D3E63"/></radialGradient><path fill="url(#g)" d="M22.88 12.63c0 1.2.47 2.36 1.33 3.2.87.87 2 1.35 3.23 1.35 1.2 0 2.35-.48 3.2-1.34.87-.85 1.34-2 1.34-3.2 0-2.5-2.04-4.55-4.54-4.55s-4.55 2.03-4.55 4.53zm8.36 0c0 1.02-.4 1.98-1.1 2.7-.74.72-1.7 1.12-2.7 1.12-1.04 0-2-.4-2.7-1.12-.74-.72-1.14-1.68-1.14-2.7 0-2.1 1.72-3.82 3.83-3.82 2.1 0 3.8 1.72 3.8 3.83z" i:knockout="Off"/></g></g><path fill="#fce94f" stroke="#c4a000" d="M5.57 25.27V6.25l1.8 8.54L12.4 5l-2.05 13.95 4.8 4.06-5.3 3.93 2.23 9.6-4.47-3.38-2.03 9.32v-17.2z" transform="matrix(1.226 0 0 .711 -1.82 8.504)" sodipodi:nodetypes="ccccccccccc"/><path fill="url(#h)" d="M0 0h5.42v48H0z" i:knockout="Off"/><g><linearGradient id="i" x1="-.131" x2="5.098" y1="24" y2="24" gradientUnits="userSpaceOnUse"><stop offset=".006" stop-color="#828B99"/><stop offset="1" stop-color="#3E5780"/></linearGradient><path fill="url(#i)" d="M5.42 47.5V0H0v48h5.42v-.5zm-1-.5c-.7 0-2.73 0-3.42 0 0-.97 0-45.03 0-46 .7 0 2.73 0 3.42 0 0 .97 0 45.03 0 46z" i:knockout="Off"/></g></svg>