<svg xmlns="http://www.w3.org/2000/svg" width="46.899" height="46.899" xmlns:ns="&ns_ai;" xmlns:xlink="http://www.w3.org/1999/xlink" ns:viewOrigin="0.8389 47.2588" ns:rulerOrigin="0 0" ns:pageBounds="0 48 48 0" overflow="visible"><defs><radialGradient id="w" cx="4.048" cy="4.46" r="48.88" gradientUnits="userSpaceOnUse" fy="4.46" fx="4.048"><stop offset="0" stop-color="#fff"/><stop offset="1" stop-color="#b11212"/></radialGradient><linearGradient id="t" x1="-165.394" x2="-170.38" y1="-93.119" y2="-104.198" gradientTransform="matrix(-.574 -.819 .819 -.574 -3.236 298.158)" gradientUnits="userSpaceOnUse"><stop offset="0" stop-color="#ff7171"/><stop offset="1" stop-color="#fff" stop-opacity="0"/></linearGradient><linearGradient id="v"><stop offset="0" stop-color="#ef2929"/><stop offset="1" stop-color="#ef2929" stop-opacity="0"/></linearGradient><linearGradient x1="-165.82" x2="-170.229" y1="-93.99" y2="-103.786" gradientTransform="matrix(-.574 -.819 .819 -.574 -6.75 -152.536)" gradientUnits="userSpaceOnUse"><stop offset="0" stop-color="#ffa410"/><stop offset="1" stop-color="#fff" stop-opacity="0"/></linearGradient><radialGradient id="u" cx="25.575" cy="10.989" r="29.296" gradientUnits="userSpaceOnUse" gradientTransform="matrix(-1 0 0 1 40.871 0)" fy="10.989" fx="25.575"><stop offset="0" stop-color="#f66"/><stop offset="1" stop-color="#ba0000"/></radialGradient><linearGradient id="a"><stop offset="0" stop-color="#fff"/><stop offset="1" stop-color="#fff" stop-opacity="0"/></linearGradient><linearGradient id="K" x1="48.25" x2="48.25" y1="54.75" y2="71.25" xlink:href="#a" gradientUnits="userSpaceOnUse" gradientTransform="matrix(.719 0 0 .719 -1.897 -20.686)"/><linearGradient id="J" x1="60.169" x2="60.441" y1="40.12" y2="43.87" xlink:href="#b" gradientUnits="userSpaceOnUse" gradientTransform="matrix(.737 0 0 .771 -8.532 7.122)"/><linearGradient id="c"><stop offset="0" stop-color="#729fcf"/><stop offset="1" stop-color="#2b5582"/></linearGradient><linearGradient id="I" x1="49.853" x2="62.768" y1="64.26" y2="64.26" xlink:href="#c" gradientUnits="userSpaceOnUse" gradientTransform="matrix(.719 0 0 .719 -1.897 -22.425)"/><linearGradient id="d"><stop offset="0" stop-color="#aeaeae"/><stop offset="1" stop-color="#c4c4c4" stop-opacity="0"/></linearGradient><linearGradient id="H" x1="61.872" x2="61.872" y1="29.615" y2="41.459" xlink:href="#d" gradientUnits="userSpaceOnUse" gradientTransform="matrix(.889 0 0 .719 -18.298 9.472)"/><linearGradient id="b"><stop offset="0" stop-color="#f2f2f2"/><stop offset="1" stop-color="#c3c3c3"/></linearGradient><linearGradient id="G" x1="53.169" x2="69.691" y1="24.245" y2="24.245" xlink:href="#b" gradientUnits="userSpaceOnUse" gradientTransform="matrix(.719 0 0 .719 -7.696 9.472)"/><linearGradient id="e"><stop offset="0" stop-color="#729fcf"/><stop offset="1" stop-color="#3c74b1"/></linearGradient><linearGradient id="F" x1="52.718" x2="67.466" y1="2.316" y2="2.316" xlink:href="#e" gradientUnits="userSpaceOnUse" gradientTransform="matrix(.862 0 0 .581 -16.257 11.013)"/><linearGradient id="f"><stop offset="0" stop-color="#fff"/><stop offset="1" stop-color="#fff" stop-opacity="0"/></linearGradient><radialGradient cx="270" cy="270" r="153.796" xlink:href="#f" gradientUnits="userSpaceOnUse" gradientTransform="matrix(1.546 0 0 1.546 -147.412 -147.412)" fx="270" fy="270"/><linearGradient id="s"><stop offset="0" stop-color="#cee14b"/><stop offset="1" stop-color="#9db029"/></linearGradient><linearGradient><stop offset="0"/><stop offset="1" stop-opacity="0"/></linearGradient><linearGradient id="r"><stop offset="0" stop-color="#fff"/><stop offset="1" stop-color="#727e0a"/></linearGradient><radialGradient cx="40.541" cy="486.093" r="2.869" fx="40.541" fy="486.093" gradientTransform="matrix(-1 0 0 1 55.359 0)" gradientUnits="userSpaceOnUse"><stop offset="0" stop-color="#2E659E"/><stop offset="1" stop-color="#193766"/></radialGradient><linearGradient id="q"><stop offset="0" stop-color="#cee14b"/><stop offset="1" stop-color="#9db029"/></linearGradient><linearGradient id="p"><stop offset="0" stop-color="#729fcf"/><stop offset="1" stop-color="#35679d"/></linearGradient><linearGradient id="o"><stop offset="0" stop-color="#fc0"/><stop offset="1" stop-color="#f60"/></linearGradient><linearGradient id="l" x1="-165.394" x2="-170.38" y1="-93.119" y2="-104.198" gradientUnits="userSpaceOnUse" gradientTransform="matrix(-.574 -.819 .819 -.574 -3.236 298.158)"><stop offset="0" stop-color="#ffc971"/><stop offset="1" stop-color="#fff" stop-opacity="0"/></linearGradient><linearGradient id="k" x1="-165.82" x2="-170.229" y1="-93.99" y2="-103.786" gradientUnits="userSpaceOnUse" gradientTransform="matrix(-.574 -.819 .819 -.574 -6.75 -152.536)"><stop offset="0" stop-color="#ffa410"/><stop offset="1" stop-color="#fff" stop-opacity="0"/></linearGradient><radialGradient id="n" cx="4.048" cy="4.46" r="48.88" fx="4.048" fy="4.46" gradientUnits="userSpaceOnUse"><stop offset="0" stop-color="#fff"/><stop offset=".064" stop-color="#FEEED5"/><stop offset=".172" stop-color="#FCD395"/><stop offset=".262" stop-color="#FBBF66"/><stop offset=".331" stop-color="#FAB349"/><stop offset=".371" stop-color="#FAAF3E"/><stop offset=".691" stop-color="#F17912"/><stop offset="1" stop-color="#B15A12"/></radialGradient><radialGradient id="m" cx="25.575" cy="10.989" r="29.296" fx="25.575" fy="10.989" gradientTransform="matrix(-1 0 0 1 40.871 0)" gradientUnits="userSpaceOnUse"><stop offset="0" stop-color="#fff"/><stop offset=".064" stop-color="#FEEED5"/><stop offset=".172" stop-color="#FCD395"/><stop offset=".262" stop-color="#FBBF66"/><stop offset=".331" stop-color="#FAB349"/><stop offset=".371" stop-color="#FAAF3E"/><stop offset=".691" stop-color="#F17912"/><stop offset="1" stop-color="#A65414"/></radialGradient><radialGradient id="i" cx="14.31" cy="485.416" r="4.065" gradientUnits="userSpaceOnUse" fy="485.416" fx="14.31"><stop offset="0" stop-color="#fff"/><stop offset=".685" stop-color="#2E659E"/><stop offset="1" stop-color="#1D3E63"/></radialGradient><radialGradient id="h" cx="40.541" cy="486.093" r="2.869" gradientUnits="userSpaceOnUse" gradientTransform="matrix(-1 0 0 1 55.359 0)" fy="486.093" fx="40.541"><stop offset="0" stop-color="#fff"/><stop offset=".004" stop-color="#FDFDFE"/><stop offset=".107" stop-color="#C7D5E5"/><stop offset=".212" stop-color="#98B3CF"/><stop offset=".315" stop-color="#7297BD"/><stop offset=".417" stop-color="#5481B0"/><stop offset=".517" stop-color="#3F72A6"/><stop offset=".615" stop-color="#3268A0"/><stop offset=".708" stop-color="#2E659E"/><stop offset="1" stop-color="#193766"/></radialGradient><linearGradient id="j" x1="-165.394" x2="-170.38" y1="-93.119" y2="-104.198" gradientTransform="matrix(-.574 -.819 .819 -.574 -3.236 298.158)" gradientUnits="userSpaceOnUse"><stop offset="0" stop-color="#88A9C3"/><stop offset="1" stop-color="#fff" stop-opacity="0"/></linearGradient><linearGradient id="g" x1="-165.82" x2="-170.229" y1="-93.99" y2="-103.786" gradientTransform="matrix(-.574 -.819 .819 -.574 -6.75 -152.536)" gradientUnits="userSpaceOnUse"><stop offset="0" stop-color="#6F87A0"/><stop offset="1" stop-color="#fff" stop-opacity="0"/></linearGradient><linearGradient x1="-165.82" x2="-170.229" y1="-93.99" y2="-103.786" xlink:href="#g" gradientUnits="userSpaceOnUse" gradientTransform="matrix(-.76 -1.768 1.768 -.76 65.898 -346.931)"/><radialGradient cx="40.541" cy="486.093" r="2.869" xlink:href="#h" gradientUnits="userSpaceOnUse" gradientTransform="matrix(-1 0 0 1 55.359 0)" fx="40.541" fy="486.093"/><radialGradient cx="14.31" cy="485.416" r="4.065" xlink:href="#i" gradientUnits="userSpaceOnUse" fx="14.31" fy="485.416"/><linearGradient x1="-165.82" x2="-170.229" y1="-93.99" y2="-103.786" xlink:href="#g" gradientUnits="userSpaceOnUse" gradientTransform="matrix(-.76 -1.768 1.768 -.76 65.898 -346.931)"/><linearGradient x1="-165.394" x2="-170.38" y1="-93.119" y2="-104.198" xlink:href="#j" gradientUnits="userSpaceOnUse" gradientTransform="matrix(-.574 -.819 .819 -.574 -3.236 298.158)"/><radialGradient cx="40.541" cy="486.093" r="2.869" xlink:href="#h" gradientUnits="userSpaceOnUse" gradientTransform="matrix(-1 0 0 1 55.359 0)" fx="40.541" fy="486.093"/><radialGradient cx="14.31" cy="485.416" r="4.065" xlink:href="#i" gradientUnits="userSpaceOnUse" fx="14.31" fy="485.416"/><linearGradient x1="-165.82" x2="-170.229" y1="-93.99" y2="-103.786" xlink:href="#g" gradientUnits="userSpaceOnUse" gradientTransform="matrix(-.76 -1.768 1.768 -.76 65.898 -346.931)"/><linearGradient x1="-165.394" x2="-170.38" y1="-93.119" y2="-104.198" xlink:href="#j" gradientUnits="userSpaceOnUse" gradientTransform="matrix(-.574 -.819 .819 -.574 -3.236 298.158)"/><radialGradient cx="40.541" cy="486.093" r="2.869" xlink:href="#h" gradientUnits="userSpaceOnUse" gradientTransform="matrix(-1 0 0 1 55.359 0)" fx="40.541" fy="486.093"/><radialGradient cx="14.31" cy="485.416" r="4.065" xlink:href="#i" gradientUnits="userSpaceOnUse" fx="14.31" fy="485.416"/><linearGradient id="x" x1="-165.82" x2="-170.229" y1="-93.99" y2="-103.786" xlink:href="#g" gradientUnits="userSpaceOnUse" gradientTransform="matrix(-.76 -1.768 1.768 -.76 65.898 -346.931)"/><linearGradient id="y" x1="-165.394" x2="-170.38" y1="-93.119" y2="-104.198" xlink:href="#j" gradientUnits="userSpaceOnUse" gradientTransform="matrix(-.574 -.819 .819 -.574 -3.236 298.158)"/><radialGradient id="z" cx="40.541" cy="486.093" r="2.869" xlink:href="#h" gradientUnits="userSpaceOnUse" gradientTransform="matrix(-1 0 0 1 55.359 0)" fx="40.541" fy="486.093"/><radialGradient id="A" cx="14.31" cy="485.416" r="4.065" xlink:href="#i" gradientUnits="userSpaceOnUse" fx="14.31" fy="485.416"/><linearGradient x1="-165.82" x2="-170.229" y1="-93.99" y2="-103.786" xlink:href="#g" gradientUnits="userSpaceOnUse" gradientTransform="matrix(-.76 -1.768 1.768 -.76 65.898 -346.931)"/><linearGradient x1="-165.394" x2="-170.38" y1="-93.119" y2="-104.198" xlink:href="#j" gradientUnits="userSpaceOnUse" gradientTransform="matrix(-.574 -.819 .819 -.574 -3.236 298.158)"/><radialGradient cx="40.541" cy="486.093" r="2.869" xlink:href="#h" gradientUnits="userSpaceOnUse" gradientTransform="matrix(-1 0 0 1 55.359 0)" fx="40.541" fy="486.093"/><radialGradient cx="14.31" cy="485.416" r="4.065" xlink:href="#i" gradientUnits="userSpaceOnUse" fx="14.31" fy="485.416"/><linearGradient x1="-165.82" x2="-170.229" y1="-93.99" y2="-103.786" xlink:href="#k" gradientUnits="userSpaceOnUse" gradientTransform="matrix(-.76 -1.768 1.768 -.76 51.413 -351.946)"/><linearGradient x1="-165.394" x2="-170.38" y1="-93.119" y2="-104.198" xlink:href="#j" gradientUnits="userSpaceOnUse" gradientTransform="matrix(-.574 -.819 .819 -.574 -3.236 298.158)"/><linearGradient x1="-165.394" x2="-170.38" y1="-93.119" y2="-104.198" gradientUnits="userSpaceOnUse" gradientTransform="matrix(-.574 -.819 .819 -.574 -3.236 298.158)"><stop offset="0" stop-color="#88A9C3"/><stop offset="1" stop-color="#fff"/></linearGradient><linearGradient x1="-165.394" x2="-170.38" y1="-93.119" y2="-104.198" xlink:href="#l" gradientUnits="userSpaceOnUse" gradientTransform="matrix(-.76 -1.768 1.768 -.76 51.413 -351.946)"/><linearGradient x1="-165.82" x2="-170.229" y1="-93.99" y2="-103.786" xlink:href="#k" gradientUnits="userSpaceOnUse" gradientTransform="matrix(-.76 -1.768 1.768 -.76 51.413 -351.946)"/><linearGradient x1="-165.394" x2="-170.38" y1="-93.119" y2="-104.198" xlink:href="#l" gradientUnits="userSpaceOnUse" gradientTransform="matrix(-.76 -1.768 1.768 -.76 51.413 -351.946)"/><radialGradient cx="25.575" cy="10.989" r="29.296" xlink:href="#m" gradientUnits="userSpaceOnUse" gradientTransform="matrix(-1 0 0 1 40.871 0)" fx="25.575" fy="10.989"/><radialGradient cx="4.048" cy="4.46" r="48.88" xlink:href="#n" gradientUnits="userSpaceOnUse" fx="4.048" fy="4.46"/><linearGradient x1="-165.82" x2="-170.229" y1="-93.99" y2="-103.786" xlink:href="#g" gradientUnits="userSpaceOnUse" gradientTransform="matrix(-.76 -1.768 1.768 -.76 68.229 -357.625)"/><linearGradient x1="-165.394" x2="-170.38" y1="-93.119" y2="-104.198" xlink:href="#j" gradientUnits="userSpaceOnUse" gradientTransform="matrix(-.574 -.819 .819 -.574 -3.236 298.158)"/><linearGradient x1="-165.394" x2="-170.38" y1="-93.119" y2="-104.198" gradientUnits="userSpaceOnUse" gradientTransform="matrix(-.574 -.819 .819 -.574 -3.236 298.158)"><stop offset="0" stop-color="#88A9C3"/><stop offset="1" stop-color="#fff"/></linearGradient><linearGradient x1="-165.394" x2="-170.38" y1="-93.119" y2="-104.198" xlink:href="#j" gradientUnits="userSpaceOnUse" gradientTransform="matrix(-.76 -1.768 1.768 -.76 68.229 -357.625)"/><linearGradient x1="-165.394" x2="-170.38" y1="-93.119" y2="-104.198" xlink:href="#l" gradientUnits="userSpaceOnUse" gradientTransform="matrix(-.76 -1.768 1.768 -.76 54.235 -333.08)"/><linearGradient x1="-165.82" x2="-170.229" y1="-93.99" y2="-103.786" xlink:href="#k" gradientUnits="userSpaceOnUse" gradientTransform="matrix(-.76 -1.768 1.768 -.76 54.235 -333.08)"/><linearGradient x1="-165.82" x2="-170.229" y1="-93.99" y2="-103.786" xlink:href="#k" gradientUnits="userSpaceOnUse" gradientTransform="matrix(-.76 -1.768 1.768 -.76 54.235 -333.08)"/><linearGradient x1="-165.394" x2="-170.38" y1="-93.119" y2="-104.198" xlink:href="#l" gradientUnits="userSpaceOnUse" gradientTransform="matrix(-.76 -1.768 1.768 -.76 54.235 -333.08)"/><radialGradient cx="25.575" cy="10.989" r="29.296" xlink:href="#m" gradientUnits="userSpaceOnUse" gradientTransform="matrix(-1 0 0 1 40.871 0)" fx="25.575" fy="10.989"/><radialGradient cx="4.048" cy="4.46" r="48.88" xlink:href="#n" gradientUnits="userSpaceOnUse" fx="4.048" fy="4.46"/><linearGradient x1="-165.82" x2="-170.229" y1="-93.99" y2="-103.786" xlink:href="#g" gradientUnits="userSpaceOnUse" gradientTransform="matrix(-.76 -1.768 1.768 -.76 68.229 -357.625)"/><linearGradient x1="-165.394" x2="-170.38" y1="-93.119" y2="-104.198" xlink:href="#j" gradientUnits="userSpaceOnUse" gradientTransform="matrix(-.76 -1.768 1.768 -.76 68.229 -357.625)"/><radialGradient cx="40.541" cy="486.093" r="2.869" xlink:href="#h" gradientUnits="userSpaceOnUse" gradientTransform="matrix(-1 0 0 1 55.359 0)" fx="40.541" fy="486.093"/><radialGradient cx="14.31" cy="485.416" r="4.065" xlink:href="#i" gradientUnits="userSpaceOnUse" fx="14.31" fy="485.416"/><linearGradient x1="24.734" x2="34.836" y1="24.244" y2="35.089" xlink:href="#o" gradientUnits="userSpaceOnUse"/><linearGradient x1="34.91" x2="45.755" y1="24.244" y2="35.089" xlink:href="#p" gradientUnits="userSpaceOnUse"/><linearGradient x1="34.91" x2="45.755" y1="35.015" y2="45.859" xlink:href="#q" gradientUnits="userSpaceOnUse"/><linearGradient x1="-165.82" x2="-170.229" y1="-93.99" y2="-103.786" xlink:href="#g" gradientUnits="userSpaceOnUse" gradientTransform="matrix(-.76 -1.768 1.768 -.76 65.898 -346.931)"/><linearGradient x1="-165.394" x2="-170.38" y1="-93.119" y2="-104.198" xlink:href="#j" gradientUnits="userSpaceOnUse" gradientTransform="matrix(-.574 -.819 .819 -.574 -3.236 298.158)"/><radialGradient cx="40.541" cy="486.093" r="2.869" xlink:href="#h" gradientUnits="userSpaceOnUse" gradientTransform="matrix(-1 0 0 1 55.359 0)" fx="40.541" fy="486.093"/><radialGradient cx="14.31" cy="485.416" r="4.065" xlink:href="#i" gradientUnits="userSpaceOnUse" fx="14.31" fy="485.416"/><linearGradient x1="34.91" x2="45.755" y1="35.015" y2="45.859" xlink:href="#q" gradientUnits="userSpaceOnUse"/><linearGradient x1="34.91" x2="45.755" y1="24.244" y2="35.089" xlink:href="#p" gradientUnits="userSpaceOnUse"/><linearGradient x1="24.734" x2="34.836" y1="24.244" y2="35.089" xlink:href="#o" gradientUnits="userSpaceOnUse"/><linearGradient x1="24.734" x2="34.836" y1="24.244" y2="35.089" xlink:href="#o" gradientUnits="userSpaceOnUse" gradientTransform="translate(-.893 -.893)"/><linearGradient x1="34.91" x2="45.755" y1="24.244" y2="35.089" xlink:href="#p" gradientUnits="userSpaceOnUse" gradientTransform="translate(-.893 -.893)"/><linearGradient x1="34.91" x2="45.755" y1="35.015" y2="45.859" xlink:href="#q" gradientUnits="userSpaceOnUse" gradientTransform="translate(-.893 -.893)"/><linearGradient x1="-165.82" x2="-170.229" y1="-93.99" y2="-103.786" xlink:href="#g" gradientUnits="userSpaceOnUse" gradientTransform="matrix(-.76 -1.768 1.768 -.76 65.898 -346.931)"/><linearGradient x1="-165.394" x2="-170.38" y1="-93.119" y2="-104.198" xlink:href="#j" gradientUnits="userSpaceOnUse" gradientTransform="matrix(-.574 -.819 .819 -.574 -3.236 298.158)"/><radialGradient cx="40.541" cy="486.093" r="2.869" xlink:href="#h" gradientUnits="userSpaceOnUse" gradientTransform="matrix(-1 0 0 1 55.359 0)" fx="40.541" fy="486.093"/><radialGradient cx="14.31" cy="485.416" r="4.065" xlink:href="#i" gradientUnits="userSpaceOnUse" fx="14.31" fy="485.416"/><linearGradient x1="-165.82" x2="-170.229" y1="-93.99" y2="-103.786" xlink:href="#g" gradientUnits="userSpaceOnUse" gradientTransform="matrix(-.76 -1.768 1.768 -.76 79.473 -351.831)"/><radialGradient cx="14.693" cy="486.682" r="2.072" xlink:href="#r" fx="14.693" fy="486.682" gradientUnits="userSpaceOnUse"/><radialGradient cx="14.31" cy="485.416" r="4.065" xlink:href="#i" gradientUnits="userSpaceOnUse" fx="14.31" fy="485.416"/><linearGradient x1="13.228" x2="17.372" y1="487.164" y2="487.164" xlink:href="#s" gradientUnits="userSpaceOnUse"/><radialGradient cx="270" cy="270" r="153.796" xlink:href="#f" gradientUnits="userSpaceOnUse" gradientTransform="matrix(1.546 0 0 1.546 -147.412 -147.412)" fx="270" fy="270"/><linearGradient x1="-165.82" x2="-170.229" y1="-93.99" y2="-103.786" xlink:href="#g" gradientUnits="userSpaceOnUse" gradientTransform="matrix(-.76 -1.768 1.768 -.76 65.898 -346.931)"/><linearGradient x1="-165.394" x2="-170.38" y1="-93.119" y2="-104.198" xlink:href="#j" gradientUnits="userSpaceOnUse" gradientTransform="matrix(-.574 -.819 .819 -.574 -3.236 298.158)"/><radialGradient cx="40.541" cy="486.093" r="2.869" xlink:href="#h" gradientUnits="userSpaceOnUse" gradientTransform="matrix(-1 0 0 1 55.359 0)" fx="40.541" fy="486.093"/><radialGradient cx="14.31" cy="485.416" r="4.065" xlink:href="#i" gradientUnits="userSpaceOnUse" fx="14.31" fy="485.416"/><linearGradient id="L" x1="-165.82" x2="-170.229" y1="-93.99" y2="-103.786" xlink:href="#k" gradientUnits="userSpaceOnUse" gradientTransform="matrix(-.76 -1.768 1.768 -.76 54.235 -333.08)"/><linearGradient id="M" x1="-165.394" x2="-170.38" y1="-93.119" y2="-104.198" xlink:href="#l" gradientUnits="userSpaceOnUse" gradientTransform="matrix(-.76 -1.768 1.768 -.76 54.235 -333.08)"/><radialGradient id="N" cx="25.575" cy="10.989" r="29.296" xlink:href="#m" gradientUnits="userSpaceOnUse" gradientTransform="matrix(-1 0 0 1 40.871 0)" fx="25.575" fy="10.989"/><radialGradient id="O" cx="4.048" cy="4.46" r="48.88" xlink:href="#n" gradientUnits="userSpaceOnUse" fx="4.048" fy="4.46"/><linearGradient id="C" x1="-165.394" x2="-170.38" y1="-93.119" y2="-104.198" xlink:href="#t" gradientUnits="userSpaceOnUse" gradientTransform="matrix(-.917 -2.131 2.131 -.917 85.403 -427.165)"/><radialGradient cx="25.575" cy="10.989" r="29.296" xlink:href="#m" gradientUnits="userSpaceOnUse" gradientTransform="matrix(-1 0 0 1 40.871 0)" fx="25.575" fy="10.989"/><radialGradient cx="4.048" cy="4.46" r="48.88" xlink:href="#n" gradientUnits="userSpaceOnUse" fx="4.048" fy="4.46"/><radialGradient cx="25.575" cy="10.989" r="29.296" gradientUnits="userSpaceOnUse" gradientTransform="matrix(-1 0 0 1 40.871 0)" fy="10.989" fx="25.575"><stop offset="0" stop-color="#fff"/><stop offset=".064" stop-color="#FEEED5"/><stop offset=".172" stop-color="#FCD395"/><stop offset=".262" stop-color="#FBBF66"/><stop offset=".331" stop-color="#FAB349"/><stop offset=".371" stop-color="#FAAF3E"/><stop offset=".691" stop-color="#F17912"/><stop offset="1" stop-color="#A65414"/></radialGradient><radialGradient id="D" cx="25.575" cy="10.989" r="29.296" xlink:href="#u" gradientUnits="userSpaceOnUse" gradientTransform="matrix(-.284 0 0 .284 44.232 4.703)" fx="25.575" fy="10.989"/><radialGradient cx="4.048" cy="4.46" r="48.88" xlink:href="#n" gradientUnits="userSpaceOnUse" fx="4.048" fy="4.46"/><linearGradient id="B" x1="40.2" x2="22.623" y1="9.568" y2="28.167" xlink:href="#v" gradientUnits="userSpaceOnUse"/><radialGradient cx="4.048" cy="4.46" r="48.88" fx="4.048" fy="4.46" gradientUnits="userSpaceOnUse"><stop offset="0" stop-color="#fff"/><stop offset=".064" stop-color="#FEEED5"/><stop offset=".172" stop-color="#FCD395"/><stop offset=".262" stop-color="#FBBF66"/><stop offset=".331" stop-color="#FAB349"/><stop offset=".371" stop-color="#FAAF3E"/><stop offset=".691" stop-color="#F17912"/><stop offset="1" stop-color="#B15A12"/></radialGradient><radialGradient id="E" cx="4.048" cy="4.46" r="48.88" xlink:href="#w" gradientUnits="userSpaceOnUse" fx="4.048" fy="4.46" gradientTransform="matrix(.284 0 0 .284 32.609 4.499)"/></defs><g><path fill="url(#x)" d="M11.53 30.58c.9-1.13 10.6-13.73 11.75-15.15 1.1 1.06 4.1 3.54 5.1 4.52-1.12 1.2-13.8 13.47-15.05 14.8l-1.8-4.17z" ns:knockout="Off" transform="translate(-16.023 -10.066)"/><g transform="matrix(1.884 .391 -.391 1.884 172.558 -917.51)"><linearGradient x1="-165.394" x2="-170.38" y1="-93.119" y2="-104.198" gradientUnits="userSpaceOnUse" gradientTransform="matrix(-.574 -.819 .819 -.574 -3.236 298.158)"><stop offset="0" stop-color="#88A9C3"/><stop offset="1" stop-color="#fff"/></linearGradient><path fill="url(#y)" d="M10.96 498.84l6.82-10.37-4.84-2.86-4.64 9.44 2.66 3.8zm-2-2.85c.34-.68 3.94-8.12 4.38-8.96.68.42 2.46 1.37 3.08 1.76-.45.73-5.6 8.3-6.1 9.13L8.96 496z" ns:knockout="Off"/></g><g transform="matrix(2.202 .457 -.457 2.202 199.882 -1073.644)"><circle cx="15.3" cy="487.164" r="2.072" fill="none" stroke="#152a4c" stroke-width=".667" ns:knockout="Off"/><circle cx="15.3" cy="487.164" r="2.072" fill="url(#z)" ns:knockout="Off"/><g ns:knockout="Off"><radialGradient cx="14.31" cy="485.416" r="4.065" gradientUnits="userSpaceOnUse" fy="485.416" fx="14.31"><stop offset="0" stop-color="#fff"/><stop offset=".685" stop-color="#2E659E"/><stop offset="1" stop-color="#1D3E63"/></radialGradient><path fill="url(#A)" d="M13.23 487.16c0 1.15.93 2.08 2.07 2.08.55 0 1.07-.22 1.46-.6.4-.4.6-.92.6-1.48 0-.55-.2-1.07-.6-1.46-.4-.4-.9-.6-1.46-.6-1.14 0-2.07.92-2.07 2.06zm.15 0c0-1.06.86-1.92 1.92-1.92.5 0 1 .2 1.36.57.36.37.56.85.56 1.36 0 .5-.2 1-.56 1.36-.36.36-.85.56-1.36.56-1.06 0-1.92-.86-1.92-1.92z" ns:knockout="Off"/></g></g></g><g><path fill="url(#B)" d="M19.87 27.82c1.1-1.35 12.78-16.54 14.16-18.25 1.34 1.28 4.94 4.27 6.17 5.44-1.36 1.47-16.66 16.25-18.16 17.87l-2.17-5.05z" ns:knockout="Off" transform="translate(1.022 -2.248)"/><path fill="url(#C)" d="M23.07 35.26l20.38-20.34-9.65-8.77-15 19.2 4.27 9.9zm-3.2-7.43c1.1-1.36 12.78-16.54 14.16-18.26 1.34 1.28 4.94 4.27 6.17 5.45-1.36 1.46-16.66 16.24-18.16 17.85l-2.17-5.04z" ns:knockout="Off" transform="translate(1.022 -2.248)"/><path fill="none" stroke="#a40000" stroke-width="2" d="M33.92 8.33c0 3.08 2.5 5.58 5.58 5.58s5.58-2.5 5.58-5.57c0-3.1-2.5-5.6-5.58-5.6s-5.58 2.5-5.58 5.6z" ns:knockout="Off"/><path fill="url(#D)" d="M32.9 10.58c0 3.08 2.5 5.58 5.58 5.58s5.58-2.5 5.58-5.58c0-3.1-2.5-5.6-5.58-5.6-3.1 0-5.6 2.5-5.6 5.6z" ns:knockout="Off" transform="translate(1.022 -2.248)"/><path fill="url(#E)" d="M32.9 10.37c0 3.08 2.5 5.58 5.58 5.58s5.58-2.5 5.58-5.58-2.5-5.6-5.58-5.6-5.6 2.52-5.6 5.6zm.7 0c0-2.7 2.2-4.87 4.88-4.87 2.7 0 4.87 2.18 4.87 4.87 0 2.7-2.18 4.87-4.87 4.87-2.7 0-4.88-2.18-4.88-4.87z" ns:knockout="Off" transform="translate(1.022 -2.248)"/></g><g transform="matrix(.94 -.342 .342 .94 -16.482 15.998)" color="#000"><path fill="url(#F)" stroke="#204a87" d="M35.13 7.35c-3.06.1-5.5 1.06-5.5 2.22 0 .28 0 3.3 0 3.57 0 1.23 2.68 2.23 5.95 2.23s5.92-1 5.92-2.23c0-.27 0-3.3 0-3.57 0-1.22-2.65-2.22-5.92-2.22-.15 0-.3 0-.45 0z" stroke-linecap="round" overflow="visible"/><path fill="#3465a4" d="M40.4 13.6a4.76.7 0 1 1-9.52 0 4.76.7 0 1 1 9.53 0z" overflow="visible"/><path fill="url(#G)" stroke="#5a5a5a" d="M27.93 39.16l1.04-21.35 2.5-3.66c1.96-.63 6.72-.63 8.5 0l2.48 3.03 2.62 22.5-17.14-.5z" stroke-linecap="round" overflow="visible"/><path fill="url(#H)" d="M28.83 38.9s2.6-9.54 7.54-9.54c5.1 0 8.17 9.92 8.17 9.92l-15.7-.38z" overflow="visible"/><path fill="url(#I)" d="M29.18 20.5l-.3 6.47c1.67-1.07 12-1.26 14.35.4l-.7-6.6c-1.4-.96-10.6-1.48-13.35-.27z" overflow="visible"/><path fill="none" stroke="#fff" d="M29.05 38.22l.88-20.2L31.77 15c1.8-.6 6.2-.6 7.84 0l1.97 2.53 2.46 21.25-14.98-.56z" opacity=".594" stroke-linecap="round" overflow="visible"/><rect width="19.974" height="3.928" x="26.513" y="37.536" fill="url(#J)" stroke="#5a5a5a" ry=".884" rx=".884" stroke-linecap="round" overflow="visible"/><path fill="#fff" d="M29.4 18c1.87-1.37 9.1-1.66 12.72-.6l-2.34-2.9c-2.48-.66-5.93-.37-8.28.07L29.4 18z" overflow="visible"/><path fill="url(#K)" d="M31.17 17.42v15.45l3.24-3.6-.35-12.57-2.88.72z" opacity=".861" overflow="visible"/><g fill="#e6e7e6" opacity=".578"><path d="M31 9.38v3.24s.62-.35 1-.36V9c-.48.07-1 .38-1 .38z" opacity=".411" overflow="visible"/><path d="M33 8.76V12s.62-.08 1-.1V8.6c-.5 0-1 .16-1 .16z" overflow="visible"/><path d="M35 8.56v3.3s.57 0 1 0V8.54c-.5-.05-1 .03-1 .03z" opacity=".444" overflow="visible"/></g></g><g><path fill="url(#L)" d="M-.13 44.43c.9-1.13 10.6-13.73 11.74-15.15 1.13 1.06 4.1 3.54 5.13 4.52C15.6 35 2.9 47.27 1.66 48.6l-1.8-4.17z" ns:knockout="Off" transform="matrix(1.205 0 0 1.205 -6.994 -2.531)"/><path fill="url(#M)" d="M2.5 50.6L19.44 33.7l-8-7.28L-1.03 42.4l3.53 8.2zm-2.64-6.17c.9-1.12 10.6-13.73 11.75-15.15 1.12 1.07 4.1 3.55 5.13 4.52C15.6 35 2.9 47.27 1.66 48.6l-1.8-4.17z" ns:knockout="Off" transform="matrix(1.205 0 0 1.205 -6.994 -2.531)"/><g transform="matrix(.284 0 0 .284 5.577 27.886)" ns:rgbTrio="#4F008000FFFF" ns:dimmedPercent="50" ns:layer="yes"><path fill="none" stroke="#99440f" stroke-width="7.033" d="M1 20.65C1 31.5 9.8 40.28 20.64 40.28s19.63-8.8 19.63-19.63C40.27 9.8 31.47 1 20.64 1 9.8 1 1 9.8 1 20.65z" ns:knockout="Off"/><radialGradient cx="25.575" cy="10.989" r="29.296" gradientUnits="userSpaceOnUse" gradientTransform="matrix(-1 0 0 1 40.871 0)" fy="10.989" fx="25.575"><stop offset="0" stop-color="#fff"/><stop offset=".064" stop-color="#FEEED5"/><stop offset=".172" stop-color="#FCD395"/><stop offset=".262" stop-color="#FBBF66"/><stop offset=".331" stop-color="#FAB349"/><stop offset=".371" stop-color="#FAAF3E"/><stop offset=".691" stop-color="#F17912"/><stop offset="1" stop-color="#A65414"/></radialGradient><path fill="url(#N)" d="M1 20.65C1 31.5 9.8 40.28 20.64 40.28s19.63-8.8 19.63-19.63C40.27 9.8 31.47 1 20.64 1 9.8 1 1 9.8 1 20.65z" ns:knockout="Off"/><g ns:knockout="Off"><radialGradient cx="4.048" cy="4.46" r="48.88" gradientUnits="userSpaceOnUse" fy="4.46" fx="4.048"><stop offset="0" stop-color="#fff"/><stop offset=".064" stop-color="#FEEED5"/><stop offset=".172" stop-color="#FCD395"/><stop offset=".262" stop-color="#FBBF66"/><stop offset=".331" stop-color="#FAB349"/><stop offset=".371" stop-color="#FAAF3E"/><stop offset=".691" stop-color="#F17912"/><stop offset="1" stop-color="#B15A12"/></radialGradient><path fill="url(#O)" d="M1 20.65c0 10.82 8.8 19.63 19.64 19.63 10.82 0 19.63-8.8 19.63-19.63C40.27 9.82 31.47 1 20.64 1 9.8 1 1 9.82 1 20.65zm2.5 0C3.5 11.2 11.2 3.5 20.64 3.5c9.45 0 17.14 7.7 17.14 17.15 0 9.44-7.7 17.13-17.14 17.13-9.45 0-17.14-7.7-17.14-17.13z" ns:knockout="Off"/></g></g></g></svg>