<svg xmlns="http://www.w3.org/2000/svg" width="48" height="48" xmlns:ns4="&ns_ai;" xmlns:xlink="http://www.w3.org/1999/xlink"><defs><linearGradient id="g"><stop offset="0" stop-color="#2e3436"/><stop offset="1" stop-color="#2e3436" stop-opacity="0"/></linearGradient><linearGradient x1="33.92" x2=".244" y1="9.648" y2="17.468" xlink:href="#a" gradientUnits="userSpaceOnUse" gradientTransform="matrix(.981 .192 -.192 .981 9.982 1.665)"/><linearGradient id="a" x1="-165.82" x2="-170.229" y1="-93.99" y2="-103.786" gradientTransform="matrix(-.574 -.819 .819 -.574 -6.75 -152.536)" gradientUnits="userSpaceOnUse"><stop offset="0" stop-color="#6F87A0"/><stop offset="1" stop-color="#fff" stop-opacity="0"/></linearGradient><linearGradient x1="-166.481" x2="-171.122" y1="-94.298" y2="-103.789" xlink:href="#a" gradientUnits="userSpaceOnUse" gradientTransform="matrix(1.431 -2.565 2.494 1.44 516.803 -270.092)"/><radialGradient id="f" cx="306.715" cy="308.31" r="15.121" gradientUnits="userSpaceOnUse" gradientTransform="matrix(0 1 1 0 -222.639 187.377)" fy="308.31" fx="306.715"><stop offset="0" stop-color="#fff"/><stop offset=".685" stop-color="#2C669D"/><stop offset="1" stop-color="#1D3E63"/></radialGradient><radialGradient id="e" cx="215.199" cy="310.457" r="8.577" gradientUnits="userSpaceOnUse" gradientTransform="matrix(0 -1 1 0 -222.639 712.158)" fy="310.457" fx="215.199"><stop offset="0" stop-color="#fff"/><stop offset=".096" stop-color="#D8E7F1"/><stop offset=".253" stop-color="#9FC3DC"/><stop offset=".398" stop-color="#72A6CC"/><stop offset=".527" stop-color="#5292C0"/><stop offset=".635" stop-color="#3E85B9"/><stop offset=".708" stop-color="#3781B6"/><stop offset="1" stop-color="#254A87"/></radialGradient><linearGradient id="d"><stop offset="0"/><stop offset="1" stop-opacity="0"/></linearGradient><linearGradient id="c"><stop offset="0" stop-color="#fff"/><stop offset="1" stop-color="#bfd0dc"/></linearGradient><radialGradient id="b" cx="257.459" cy="35.376" r="68.717" fx="257.459" fy="35.376" gradientUnits="userSpaceOnUse"><stop offset="0" stop-color="#eeeff1"/><stop offset="1" stop-color="#8794A0"/></radialGradient><linearGradient x1="6.541" x2="46.401" y1="25.639" y2="38.51" xlink:href="#b" gradientUnits="userSpaceOnUse" gradientTransform="matrix(1.038 0 0 1.042 -.972 -2.936)"/><linearGradient x1="6.541" x2="46.401" y1="25.639" y2="38.51" xlink:href="#c" gradientUnits="userSpaceOnUse" gradientTransform="matrix(1.038 0 0 1.042 -.972 -2.936)"/><linearGradient x1="24.106" x2="24.106" y1="22.979" y2="38.071" xlink:href="#d" gradientUnits="userSpaceOnUse" gradientTransform="matrix(.931 0 0 .624 51.043 1.668)"/><linearGradient x1="-166.481" x2="-171.122" y1="-94.298" y2="-103.789" xlink:href="#a" gradientUnits="userSpaceOnUse" gradientTransform="matrix(1.431 -2.565 2.494 1.44 516.803 -270.092)"/><linearGradient x1="33.92" x2=".244" y1="9.648" y2="17.468" xlink:href="#a" gradientUnits="userSpaceOnUse" gradientTransform="matrix(.981 .192 -.192 .981 9.982 1.665)"/><radialGradient cx="215.199" cy="310.457" r="8.577" xlink:href="#e" gradientUnits="userSpaceOnUse" gradientTransform="matrix(0 -1 1 0 -222.639 712.158)" fx="215.199" fy="310.457"/><radialGradient cx="306.715" cy="308.31" r="15.121" xlink:href="#f" gradientUnits="userSpaceOnUse" gradientTransform="matrix(0 1 1 0 -222.639 187.377)" fx="306.715" fy="308.31"/><linearGradient id="j" x1="-166.481" x2="-171.122" y1="-94.298" y2="-103.789" xlink:href="#a" gradientUnits="userSpaceOnUse" gradientTransform="matrix(2.724 -1.1 1.039 2.686 585.022 93.859)"/><linearGradient id="k" x1="33.92" x2=".244" y1="9.648" y2="17.468" xlink:href="#a" gradientUnits="userSpaceOnUse" gradientTransform="matrix(.644 .765 -.765 .644 19.843 -12.404)"/><radialGradient id="m" cx="215.199" cy="310.457" r="8.577" xlink:href="#e" gradientUnits="userSpaceOnUse" gradientTransform="matrix(0 -1 1 0 -222.639 712.158)" fx="215.199" fy="310.457"/><radialGradient id="n" cx="306.715" cy="308.31" r="15.121" xlink:href="#f" gradientUnits="userSpaceOnUse" gradientTransform="matrix(0 1 1 0 -222.639 187.377)" fx="306.715" fy="308.31"/><linearGradient x1="6.541" x2="46.401" y1="25.639" y2="38.51" xlink:href="#b" gradientUnits="userSpaceOnUse" gradientTransform="matrix(.966 0 0 .921 52.48 -12.999)"/><linearGradient x1="6.541" x2="46.401" y1="25.639" y2="38.51" xlink:href="#c" gradientUnits="userSpaceOnUse" gradientTransform="matrix(.966 0 0 .921 52.48 -12.999)"/><linearGradient x1="-40.276" x2="-24.453" y1="27.911" y2="59.39" xlink:href="#b" gradientUnits="userSpaceOnUse" gradientTransform="matrix(.966 0 0 .921 52.48 -12.999)"/><linearGradient x1="-34.865" x2="-17.038" y1="22.848" y2="56.963" xlink:href="#c" gradientUnits="userSpaceOnUse" gradientTransform="matrix(.966 0 0 .921 52.48 -12.999)"/><linearGradient x1="-40.276" x2="-24.453" y1="27.911" y2="59.39" xlink:href="#b" gradientUnits="userSpaceOnUse" gradientTransform="matrix(.966 0 0 .921 52.48 -12.999)"/><linearGradient x1="-34.865" x2="-17.038" y1="22.848" y2="56.963" xlink:href="#c" gradientUnits="userSpaceOnUse" gradientTransform="matrix(.966 0 0 .921 52.48 -12.999)"/><linearGradient x1="-40.276" x2="-24.453" y1="27.911" y2="59.39" xlink:href="#b" gradientUnits="userSpaceOnUse" gradientTransform="matrix(.951 0 0 .907 52.28 -12.812)"/><linearGradient x1="-34.865" x2="-17.038" y1="22.848" y2="56.963" xlink:href="#c" gradientUnits="userSpaceOnUse" gradientTransform="matrix(.951 0 0 .907 52.28 -12.812)"/><linearGradient id="h" x1="-40.276" x2="-24.453" y1="27.911" y2="59.39" xlink:href="#b" gradientUnits="userSpaceOnUse" gradientTransform="matrix(.951 0 0 .907 52.28 -12.812)"/><linearGradient id="i" x1="-34.865" x2="-17.038" y1="22.848" y2="56.963" xlink:href="#c" gradientUnits="userSpaceOnUse" gradientTransform="matrix(.951 0 0 .907 52.28 -12.812)"/><linearGradient id="l" x1="35.313" x2="35.313" y1="30.625" y2="40.75" xlink:href="#g" gradientUnits="userSpaceOnUse"/></defs><g><g color="#000" stroke-linecap="round" stroke-linejoin="round"><path fill="none" stroke="#2e3436" stroke-width="1.94.052" d="M.94 16.95c5.94-3.28 22.28-11 25.85-12.7 13.77 4.6 19.74 17.16 20.12 29.08-3.9 2.1-23.1 12.12-26.53 13.95C20 38.62 16.6 22.44.93 16.95z" overflow="visible"/><path fill="url(#h)" stroke="url(#i)" stroke-width="1.026" d="M2.42 16.6C8.16 13.42 23.74 6.52 27.2 4.9 40.47 9.35 46 20.88 46.6 33.2c-3.76 2.04-22.16 11.32-25.46 13.08-.5-7.67-5.68-26.13-18.72-29.7z" overflow="visible" transform="matrix(.975 0 0 .975 .608 .655)"/></g><path fill="url(#j)" stroke="url(#k)" stroke-width="3" d="M5.78 2.47c16.53.18 29.76 10.66 34.93 24.17-1.67 1.65-8.77 2.25-10.3 3.77C28.06 18.87 13.76 6.67 3.83 6.33l1.94-3.85z" ns4:knockout="Off"/><path fill="url(#l)" d="M41.38 35.7a6.06 5.06 0 1 1-12.13 0 6.06 5.06 0 1 1 12.13 0z" transform="matrix(.872 -.34 .583 1.044 -16.58 7.565)" color="#000" overflow="visible"/><g transform="matrix(.991 -.131 .131 .991 -117.724 -453.752)"><path fill="none" stroke="#162b4c" stroke-width="2" d="M89.22 493.1c3.37 0 6.1 2.72 6.1 6.1 0 3.36-2.73 6.1-6.1 6.1-3.38 0-6.1-2.74-6.1-6.1 0-3.38 2.72-6.1 6.1-6.1z"/><radialGradient cx="215.199" cy="310.457" r="8.577" gradientUnits="userSpaceOnUse" gradientTransform="matrix(0 -1 1 0 -222.639 712.158)" fy="310.457" fx="215.199"><stop offset="0" stop-color="#fff"/><stop offset=".096" stop-color="#D8E7F1"/><stop offset=".253" stop-color="#9FC3DC"/><stop offset=".398" stop-color="#72A6CC"/><stop offset=".527" stop-color="#5292C0"/><stop offset=".635" stop-color="#3E85B9"/><stop offset=".708" stop-color="#3781B6"/><stop offset="1" stop-color="#254A87"/></radialGradient><path fill="url(#m)" d="M89.22 493.1c3.37 0 6.1 2.72 6.1 6.1 0 3.36-2.73 6.1-6.1 6.1-3.38 0-6.1-2.74-6.1-6.1 0-3.38 2.72-6.1 6.1-6.1z"/><g><radialGradient cx="306.715" cy="308.31" r="15.121" gradientUnits="userSpaceOnUse" gradientTransform="matrix(0 1 1 0 -222.639 187.377)" fy="308.31" fx="306.715"><stop offset="0" stop-color="#fff"/><stop offset=".685" stop-color="#2C669D"/><stop offset="1" stop-color="#1D3E63"/></radialGradient><path fill="url(#n)" d="M83.1 499.2c0 1.62.64 3.15 1.8 4.3 1.15 1.16 2.68 1.8 4.32 1.8 1.62 0 3.16-.64 4.32-1.8 1.15-1.15 1.78-2.68 1.78-4.3 0-3.38-2.73-6.1-6.1-6.1-3.37 0-6.1 2.72-6.1 6.1zm11.25 0c0 1.36-.53 2.64-1.5 3.62-.98.97-2.26 1.5-3.63 1.5-1.38 0-2.67-.53-3.63-1.5-1-.98-1.52-2.26-1.52-3.63 0-2.84 2.3-5.15 5.14-5.15 2.83 0 5.13 2.3 5.13 5.14z"/></g></g></g></svg>