<svg xmlns="http://www.w3.org/2000/svg" width="48" height="48" xmlns:xlink="http://www.w3.org/1999/xlink"><defs><linearGradient id="a"><stop offset="0" stop-color="#115971"/><stop offset="1" stop-color="#2e3436"/></linearGradient><linearGradient id="b" x1="3.049" x2="9.341" y1="1.131" y2="11.346" xlink:href="#a" gradientUnits="userSpaceOnUse" gradientTransform="matrix(.224 -.975 .975 .224 2.558 11.45)"/><linearGradient x1="11.482" x2=".24" y1="18.736" y2="17.522" xlink:href="#a" gradientUnits="userSpaceOnUse"/><linearGradient x1="1.857" x2="11.004" y1="27.027" y2="33.241" xlink:href="#a" gradientUnits="userSpaceOnUse"/><linearGradient x1="6.136" x2="6.136" y1="47.793" y2="36.222" xlink:href="#a" gradientUnits="userSpaceOnUse"/><linearGradient x1="23.391" x2="12.735" y1="4.956" y2="6.242" xlink:href="#a" gradientUnits="userSpaceOnUse"/><linearGradient x1="14.286" x2="23.21" y1="15.558" y2="21.201" xlink:href="#a" gradientUnits="userSpaceOnUse"/><linearGradient x1="22.825" x2="13.083" y1="27.173" y2="33.03" xlink:href="#a" gradientUnits="userSpaceOnUse"/><linearGradient x1="15.976" x2="20.422" y1="37.226" y2="47.868" xlink:href="#a" gradientUnits="userSpaceOnUse"/><linearGradient x1="35.52" x2="24.583" y1="6.845" y2="4.559" xlink:href="#a" gradientUnits="userSpaceOnUse"/><linearGradient x1="32.429" x2="28.976" y1="23.277" y2="12.492" xlink:href="#a" gradientUnits="userSpaceOnUse"/><linearGradient x1="35.578" x2="25.38" y1="29.079" y2="31.007" xlink:href="#a" gradientUnits="userSpaceOnUse"/><linearGradient x1="33.616" x2="26.841" y1="47.05" y2="37.55" xlink:href="#a" gradientUnits="userSpaceOnUse"/><linearGradient x1="44.608" x2="39.518" y1="10.778" y2=".778" xlink:href="#a" gradientUnits="userSpaceOnUse"/><linearGradient x1="45.48" x2="39.452" y1="13.341" y2="22.341" xlink:href="#a" gradientUnits="userSpaceOnUse" gradientTransform="translate(-.071 .886)"/><linearGradient x1="46.755" x2="38.024" y1="26.744" y2="33.53" xlink:href="#a" gradientUnits="userSpaceOnUse"/><linearGradient x1="47.394" x2="35.424" y1="40.406" y2="43.691" xlink:href="#a" gradientUnits="userSpaceOnUse"/><linearGradient id="k" x1="3.049" x2="9.341" y1="1.131" y2="11.346" xlink:href="#a" gradientUnits="userSpaceOnUse" gradientTransform="matrix(.954 -.301 .301 .954 16.644 17.914)"/><linearGradient id="c" x1="3.049" x2="9.341" y1="1.131" y2="11.346" xlink:href="#a" gradientUnits="userSpaceOnUse" gradientTransform="matrix(.992 -.124 .124 .992 34.273 16.733)"/><linearGradient x1="3.049" x2="9.341" y1="1.131" y2="11.346" xlink:href="#a" gradientUnits="userSpaceOnUse" gradientTransform="matrix(-.068 .998 -.998 -.068 13.503 35.841)"/><linearGradient id="d" x1="3.049" x2="9.341" y1="1.131" y2="11.346" xlink:href="#a" gradientUnits="userSpaceOnUse" gradientTransform="matrix(.927 .374 -.374 .927 21.021 32.608)"/><linearGradient id="e" x1="3.049" x2="9.341" y1="1.131" y2="11.346" xlink:href="#a" gradientUnits="userSpaceOnUse" gradientTransform="matrix(.686 -.727 .727 .686 18.506 8.18)"/><linearGradient id="f" x1="3.049" x2="9.341" y1="1.131" y2="11.346" xlink:href="#a" gradientUnits="userSpaceOnUse" gradientTransform="matrix(.857 .515 -.515 .857 38.384 2.027)"/><linearGradient id="g" x1="3.049" x2="9.341" y1="1.131" y2="11.346" xlink:href="#a" gradientUnits="userSpaceOnUse" gradientTransform="matrix(.018 1 -1 .018 46.567 35.439)"/><linearGradient id="h" x1="3.049" x2="9.341" y1="1.131" y2="11.346" xlink:href="#a" gradientUnits="userSpaceOnUse" gradientTransform="matrix(.715 .699 -.699 .715 32.691 22.878)"/><linearGradient id="i" x1="3.049" x2="9.341" y1="1.131" y2="11.346" xlink:href="#a" gradientUnits="userSpaceOnUse" gradientTransform="matrix(-.487 .873 -.873 -.487 15.388 38.057)"/><linearGradient id="j" x1="3.049" x2="9.341" y1="1.131" y2="11.346" xlink:href="#a" gradientUnits="userSpaceOnUse" gradientTransform="matrix(-.999 -.048 .048 -.999 12.101 29.683)"/></defs><g fill-rule="evenodd" stroke="#eeeeec"><path fill="url(#b)" d="M16.35 4.46L11.5 13.3l-1.33-3.84c-2.1.58-4.83 2.6-4.8 5.93L.44 13.76C.8 9.2 4.38 5.54 8.4 4.33L7.1.5l9.25 3.96z"/><path fill="url(#c)" d="M45.57 27.3l-9.97-1.55 3.15-2.55c-1.25-1.76-4.1-3.64-7.2-2.46l-.2-5.2c4.42-1.23 9.1.88 11.62 4.24l3.15-2.55-.55 10.06z"/><path fill="url(#d)" d="M25.76 47.32l-7.97-6.2 4-.7c-.25-2.13-1.83-5.16-5.12-5.64l2.38-4.63c4.45 1.07 7.5 5.2 8.07 9.35l4-.7-5.37 8.52z"/><path fill="url(#e)" d="M33.94 9.13l-8.67 5.17.8-4c-4-1.3-5.3.85-4.68 4.17l-5.34.6C15.38 8.53 20.22 3.3 27.16 5l.8-3.98 5.98 8.1z"/><path fill="url(#f)" d="M40.75 17.3l-6.9-7.36 4.07-.06c.43-4.2-1.96-5-5.06-3.7L31.14 1.1c6.24-2.06 12.36 1.56 12.2 8.7l4.06-.07-6.65 7.57z"/><path fill="url(#g)" d="M34.88 45.56l2.58-9.76 2.2 3.4c3.8-1.85 3.2-4.3.45-6.24l3.4-4.15c5.06 4.2 5.25 11.3-.9 14.96l2.22 3.4-9.94-1.6z"/><path fill="url(#h)" d="M31.47 38.3l-5-8.77 3.95.88c.6-2.07.3-5.47-2.56-7.17l3.96-3.37c3.7 2.68 4.96 7.66 3.9 11.72l3.96.88-8.2 5.83z"/><path fill="url(#i)" d="M.2 40.92l7.13-7.14.2 4.06c4.22.3 4.93-2.1 3.52-5.17l5.02-1.9c2.27 6.2-1.15 12.42-8.3 12.5l.2 4.05-7.78-6.4z"/><path fill="url(#j)" d="M2.78 17.35l9.57 3.22-3.56 1.98c1.6 3.9 4.08 3.48 6.2.85l3.92 3.66C14.4 31.83 7.3 31.56 4.06 25.2L.5 27.15l2.28-9.8z"/><path fill="url(#k)" d="M29.66 26.26l-10.1.3 2.66-3.1c-1.56-1.5-4.7-2.83-7.54-1.1l-1.1-5.1c4.1-2 9.08-.77 12.16 2.1l2.65-3.1 1.26 10z"/></g></svg>