<svg xmlns="http://www.w3.org/2000/svg" width="48" height="48" viewBox="0 0 45.004 44.236" overflow="visible" enable-background="new 0 0 45.004 44.236" version="1"><g><linearGradient id="a" x1="-188.613" x2="-194.38" y1="-97.87" y2="-110.685" gradientUnits="userSpaceOnUse" gradientTransform="matrix(.525 -.851 .851 .525 222.883 -77.157)"><stop offset="0" stop-color="#A0C6DE"/><stop offset="1" stop-color="#fff"/></linearGradient><path fill="url(#a)" d="M27.73 28.97c.98.07 11.78.55 13.02.63-.16 1.03-.38 3.66-.52 4.6-1.12-.15-12.9-2.43-14.13-2.6l1.63-2.63z"/><g><linearGradient id="b" x1="26.735" x2="43.514" y1="29.662" y2="32.304" gradientUnits="userSpaceOnUse"><stop offset="0" stop-color="#fff"/><stop offset="1" stop-color="#B7D0DC"/></linearGradient><path fill="url(#b)" d="M25.33 32.85l16 2.83.92-7.3-13.73-.7-3.2 5.17zm2.4-3.88c.97.06 11.77.54 13 .63-.14 1.03-.36 3.66-.5 4.6-1.12-.15-12.9-2.43-14.13-2.6l1.63-2.63z"/></g><linearGradient id="c" x1="310.325" x2="304.558" y1="53.231" y2="40.416" gradientUnits="userSpaceOnUse" gradientTransform="matrix(-.611 -.792 .792 -.611 170.929 282.773)"><stop offset="0" stop-color="#A0C6DE"/><stop offset="1" stop-color="#fff"/></linearGradient><path fill="url(#c)" d="M16.21 15.47c.42-.9 4.68-10.83 5.2-11.96.9.53 3.3 1.65 4.13 2.12-.54 1-6.83 11.2-7.42 12.3l-1.9-2.45z"/><g><linearGradient id="d" x1="-22.755" x2="-10.123" y1="-163.853" y2="-161.865" gradientUnits="userSpaceOnUse" gradientTransform="matrix(.984 -.18 .18 .984 67.777 167.547)"><stop offset="0" stop-color="#fff"/><stop offset="1" stop-color="#B7D0DC"/></linearGradient><path fill="url(#d)" d="M19 19.1L27.3 5.1l-6.5-3.45-5.5 12.6L19 19.1zm-2.8-3.63c.42-.9 4.68-10.82 5.2-11.96.9.53 3.3 1.66 4.13 2.13-.54 1-6.83 11.2-7.42 12.3l-1.9-2.46z"/></g><linearGradient id="e" x1="153.899" x2="148.133" y1="-71.644" y2="-84.458" gradientUnits="userSpaceOnUse" gradientTransform="matrix(-.224 -.975 .975 -.224 141.98 147.987)"><stop offset="0" stop-color="#A0C6DE"/><stop offset="1" stop-color="#fff"/></linearGradient><path fill="url(#e)" d="M26.5 20.95c.74-.64 8.76-7.9 9.7-8.7.6.84 2.3 2.86 2.87 3.64-.9.66-10.9 7.32-11.88 8.06l-.7-3z"/><g><linearGradient id="f" x1="-61.587" x2="-48.956" y1="32.016" y2="34.004" gradientUnits="userSpaceOnUse" gradientTransform="matrix(.969 .247 -.247 .969 95.855 .48)"><stop offset="0" stop-color="#fff"/><stop offset="1" stop-color="#B7D0DC"/></linearGradient><path fill="url(#f)" d="M27.52 25.4l13.36-9.23-4.47-5.85-10.25 9.15 1.37 5.93zm-1.03-4.45c.73-.64 8.75-7.9 9.7-8.7.6.84 2.3 2.87 2.87 3.64-.9.67-10.9 7.32-11.88 8.07l-.7-3.02z"/></g><path fill="none" stroke="#3e5780" stroke-width="1.3" d="M9.83 18.98c1.28 1.34 3.45 3.5 3.45 3.5-.73.44-1.42 4.26-1.42 4.26-.28.28-4.67.5-6.05.76h-.05c-.45.03-.83.04-1.1.05-.8.03-1.32-.08-1.85-.3-2.08-.83-2.72-4.2-1.62-6.95 1.1-2.74 3.7-4.23 5.8-3.4.5.22.9.46 1.36.8.55.4 1.3 1.1 1.5 1.28z"/><path fill="none" stroke="#3e5780" stroke-width="1.25" d="M18.45 15.86c-.27.74-.97 2.34-.94 3.95.03 1 .75 2.4 1.33 2.98.6.58 2.33 1.64 3.3 1.66 1.62.03 3.6-1.03 3.95-1.28.36-.26.86-.6 1.25-1 1.6-1.6.77-3.8-1.3-5.9-2.1-2.08-5-3.57-6.6-1.98-.38.4-.7.85-.98 1.58z"/><path fill="none" stroke="#3e5780" stroke-width="1.3" d="M16.8 35.35c1.06-2.15 1.5-3.7 1.63-3.82.13-.13 2.93.25 4.12-.94.2 0 2.14 3.23 2.95 4.83.47.78.8 1.55.98 1.98.33.73.42 1.27.42 1.84 0 2.24-2.53 4.35-5.48 4.35-2.95 0-5.67-2.12-5.67-4.37 0-.56.1-1.15.18-1.58.05-.3.37-1.4.94-2.42l-.06.12z"/><linearGradient id="g" x1="208.927" x2="208.064" y1="-201.51" y2="-186.55" gradientUnits="userSpaceOnUse" gradientTransform="matrix(.707 -.707 .707 .707 3.507 315.401)"><stop offset=".006" stop-color="#818B99"/><stop offset=".242" stop-color="#D9E5E8"/><stop offset=".68" stop-color="#C3D1DC"/><stop offset="1" stop-color="#818B99"/></linearGradient><path fill="url(#g)" stroke="#3e5780" d="M18.68 34.55c-.03.04-.07.08-.1.1-1.9 1.9-5.48 1.4-8-1.14-1.9-1.9-2.67-4.4-2.13-6.3l4.1-3.97 7.93 8.82-1.8 2.5z"/><linearGradient id="h" x1="220.77" x2="225.196" y1="-199.813" y2="-191.666" gradientUnits="userSpaceOnUse" gradientTransform="matrix(.707 -.707 .707 .707 3.507 315.401)"><stop offset="0" stop-color="#C3D1DC"/><stop offset=".343" stop-color="#E3E9EB"/><stop offset=".646" stop-color="#E3E9EB"/><stop offset="1" stop-color="#B4C1CA"/></linearGradient><path fill="url(#h)" stroke="#3e5780" stroke-width=".5" d="M18.45 15.86c-.27.74-.97 2.34-.94 3.95.03 1 .75 2.4 1.33 2.98.6.58 2.33 1.64 3.3 1.66 1.62.03 3.6-1.03 3.95-1.28.36-.26.86-.6 1.25-1 1.6-1.6.77-3.8-1.3-5.9-2.1-2.08-5-3.57-6.6-1.98-.38.4-.7.85-.98 1.58z"/><g><linearGradient id="i" x1="220.36" x2="226.163" y1="-200.06" y2="-190.732" gradientUnits="userSpaceOnUse" gradientTransform="matrix(.707 -.707 .707 .707 3.507 315.401)"><stop offset="0" stop-color="#fff"/><stop offset=".646" stop-color="#E3E9EB"/><stop offset="1" stop-color="#B4C1CA"/></linearGradient><path fill="url(#i)" d="M18.67 15.92l-.1.27c-.32.82-.86 2.2-.84 3.6.02.9.7 2.25 1.26 2.82.53.54 2.23 1.58 3.14 1.6 1.5.03 3.46-.98 3.82-1.24l.15-.1 1.06-.84c.73-.73.95-1.58.7-2.57-.26-.94-.94-2-2-3.04-2-2-4.8-3.47-6.25-2-.4.4-.7.86-.93 1.5zm6.9 6.25l-.12.1c-.26.18-2.02 1.1-3.3 1.07-.55 0-2.03-.84-2.54-1.34-.4-.43-.98-1.57-1-2.2 0-1.23.5-2.52.8-3.3l.1-.27c.2-.52.4-.86.73-1.2.94-.93 3.28.3 5 2.02.95.94 1.56 1.86 1.77 2.65.18.68.04 1.2-.43 1.68l-1 .8z"/></g><linearGradient id="j" x1="212.153" x2="206.763" y1="-209.6" y2="-200.166" gradientUnits="userSpaceOnUse" gradientTransform="matrix(.707 -.707 .707 .707 3.507 315.401)"><stop offset="0" stop-color="#C3D1DC"/><stop offset=".343" stop-color="#E3E9EB"/><stop offset=".646" stop-color="#E3E9EB"/><stop offset="1" stop-color="#B4C1CA"/></linearGradient><path fill="url(#j)" stroke="#3e5780" stroke-width=".5" d="M9.83 18.98c1.28 1.34 3.45 3.5 3.45 3.5-.73.44-1.42 4.26-1.42 4.26-.28.28-4.67.5-6.05.76h-.05c-.45.03-.83.04-1.1.05-.8.03-1.32-.08-1.85-.3-2.08-.83-2.72-4.2-1.62-6.95 1.1-2.74 3.7-4.23 5.8-3.4.5.22.9.46 1.36.8.55.4 1.3 1.1 1.5 1.28z"/><g><linearGradient id="k" x1="205.421" x2="214.427" y1="-209.472" y2="-200.113" gradientUnits="userSpaceOnUse" gradientTransform="matrix(.707 -.707 .707 .707 3.507 315.401)"><stop offset="0" stop-color="#fff"/><stop offset=".646" stop-color="#E3E9EB"/><stop offset="1" stop-color="#B4C1CA"/></linearGradient><path fill="url(#k)" d="M1.4 20.4c-.65 1.6-.68 3.55-.08 4.95.2.45.44.83.73 1.13.25.25.53.43.84.56.55.22 1.06.3 1.74.27 0 0 .28 0 .28 0l.8-.03h.07c.56-.12 1.64-.22 2.8-.32 1-.1 2.37-.22 2.9-.33l.14-.04.03-.15c.2-1.04.6-2.9 1.17-3.78l.1-.16-3.32-3.4c-.2-.2-.92-.85-1.42-1.2-.45-.35-.83-.57-1.32-.77-.8-.32-1.67-.3-2.56.1-1.26.53-2.32 1.68-2.92 3.16zm3.2-2.5c.72-.3 1.45-.34 2.1-.08.42.18.74.37 1.15.68.46.33 1.1.92 1.3 1.1 0 0 2.42 2.48 2.94 3-.5.9-.88 2.46-1.07 3.45-.55.1-1.7.2-2.57.28-1.12.1-2.17.2-2.7.3l-.8.04s-.4.07-.4.07l.14-.06c-.6.02-1.02-.04-1.48-.23-.24-.1-.46-.24-.65-.44-.25-.23-.45-.55-.6-.92-.54-1.23-.5-2.96.07-4.4.53-1.3 1.45-2.3 2.55-2.78z"/></g><linearGradient id="l" x1="213.316" x2="213.316" y1="-199.786" y2="-187.512" gradientUnits="userSpaceOnUse" gradientTransform="matrix(.707 -.707 .707 .707 3.507 315.401)"><stop offset=".006" stop-color="#97A2B2"/><stop offset=".242" stop-color="#E0EAEB"/><stop offset=".68" stop-color="#CBD9DD"/><stop offset="1" stop-color="#818B99"/></linearGradient><path fill="url(#l)" stroke="#3e5780" stroke-width=".8" d="M16.86 20.7c-1.3.24-3.7 1.6-4.3 2.53v-.03c-1.46 1.88-.9 5.08 1.4 7.38s5.48 2.87 7.36 1.42c.92-.6 2.3-3.02 2.53-4.3"/><g><linearGradient id="m" x1="213.509" x2="213.509" y1="-200.01" y2="-187.979" gradientUnits="userSpaceOnUse" gradientTransform="matrix(.707 -.707 .707 .707 3.507 315.401)"><stop offset=".006" stop-color="#EFEEEC"/><stop offset=".41" stop-color="#CBD9DD"/><stop offset="1" stop-color="#C3D1DC"/></linearGradient><path fill="url(#m)" d="M12.75 23.36c-1.4 1.77-.8 4.88 1.4 7.05 2.15 2.17 5.25 2.78 7.06 1.4.82-.54 2.18-2.87 2.42-4.15l.06-.34-6.77-6.37c-1.28.24-3.6 1.6-4.15 2.43zm8.03 7.87c-1.57 1.2-4.28.64-6.2-1.27-1.9-1.92-2.48-4.64-1.28-6.17.47-.72 2.6-1.95 3.7-2.15l5.9 5.9c-.2 1.1-1.43 3.23-2.12 3.68z"/></g><radialGradient id="n" cx="214" cy="-198.587" r="8.623" fx="214" fy="-198.587" gradientTransform="matrix(.707 -.707 .707 .707 3.507 315.401)" gradientUnits="userSpaceOnUse"><stop offset="0" stop-color="#fff"/><stop offset=".573" stop-color="#D3DFDF"/><stop offset="1" stop-color="#ACB9CA"/></radialGradient><path fill="url(#n)" stroke="#fff" d="M16.16 28.4c2.1 2.08 5.06 2.5 6.62.95 1.56-1.57 1.13-4.53-.96-6.62-2.1-2.1-5.05-2.52-6.62-.96-1.56 1.56-1.13 4.53.96 6.62z"/><path fill="none" stroke="#3e5780" d="M21.32 32c.93-.6 2.3-3.02 2.53-4.3"/><path fill="none" stroke="#3e5780" d="M16.86 20.7c-1.3.24-3.7 1.6-4.3 2.53"/><linearGradient id="o" x1="207.471" x2="211.849" y1="-188.884" y2="-178.304" gradientUnits="userSpaceOnUse" gradientTransform="matrix(.707 -.707 .707 .707 3.507 315.401)"><stop offset="0" stop-color="#C3D1DC"/><stop offset=".343" stop-color="#E3E9EB"/><stop offset=".646" stop-color="#E3E9EB"/><stop offset="1" stop-color="#B4C1CA"/></linearGradient><path fill="url(#o)" stroke="#3e5780" stroke-width=".5" d="M16.8 35.35c1.06-2.15 1.5-3.7 1.63-3.82.13-.13 2.93.25 4.12-.94.2 0 2.14 3.23 2.95 4.83.47.78.8 1.55.98 1.98.33.73.42 1.27.42 1.84 0 2.24-2.53 4.35-5.48 4.35-2.95 0-5.67-2.12-5.67-4.37 0-.56.1-1.15.18-1.58.05-.3.37-1.4.94-2.42l-.06.12z"/><g><linearGradient id="p" x1="205.422" x2="212.544" y1="-186.577" y2="-181.829" gradientUnits="userSpaceOnUse" gradientTransform="matrix(.707 -.707 .707 .707 3.507 315.401)"><stop offset="0" stop-color="#fff"/><stop offset=".646" stop-color="#E3E9EB"/><stop offset="1" stop-color="#B4C1CA"/></linearGradient><path fill="url(#p)" d="M18.52 31.9l-.15.38c-.25.65-.66 1.74-1.3 3.07-.56 1.02-.86 2.1-.9 2.34l-.04.18c-.06.4-.14.9-.14 1.36 0 .8.38 1.65 1.1 2.37 1.07 1.08 2.73 1.75 4.32 1.75 2.75 0 5.25-1.96 5.25-4.1 0-.62-.12-1.12-.4-1.74 0 0 0 .02 0 .03-.03-.07-.06-.15-.12-.28-.2-.45-.47-1.07-.85-1.7-.7-1.37-2.05-3.63-2.62-4.45l-.13-.2-.2.14c-1.02.68-2.63.7-3.4.7 0 0-.36 0-.36 0l-.08.15zm.5.57s.04 0 .04 0c.73 0 2.2-.04 3.3-.64.57.86 1.72 2.8 2.34 4.03.36.6.62 1.17.8 1.6 0 0 .1.24.1.24.26.54.35.96.35 1.46 0 1.82-2.16 3.47-4.54 3.47-1.4 0-2.85-.6-3.8-1.53-.6-.6-.92-1.28-.92-1.94 0-.4.08-.85.14-1.22l.03-.18c.03-.18.3-1.17.82-2.08.62-1.3 1.02-2.36 1.25-2.98 0 0 .05-.13.1-.23z"/></g><path fill="none" stroke="#3e5780" stroke-width=".8" d="M23.03 29.72c.24-.37.54-1.2.54-1.2.7-1.7.07-4.08-1.7-5.85-1.77-1.78-4.16-2.4-5.86-1.68-.37.15-1.17.52-1.17.52"/><g><circle cx="23.701" cy="3.661" r="2.761" fill="none" stroke="#152a4c" stroke-width="1.8"/><radialGradient id="q" cx="107.321" cy="124.671" r="3.879" fx="107.321" fy="124.671" gradientTransform="matrix(0 -1 1 0 -101.603 109.973)" gradientUnits="userSpaceOnUse"><stop offset="0" stop-color="#fff"/><stop offset=".09" stop-color="#DBE8F2"/><stop offset=".248" stop-color="#A2C3DE"/><stop offset=".395" stop-color="#75A6CD"/><stop offset=".525" stop-color="#5591C2"/><stop offset=".634" stop-color="#4185BB"/><stop offset=".708" stop-color="#3A80B8"/><stop offset="1" stop-color="#244A87"/></radialGradient><circle cx="23.701" cy="3.661" r="2.761" fill="url(#q)"/><g><radialGradient id="r" cx="-64.987" cy="123.7" r="6.838" fx="-64.987" fy="123.7" gradientTransform="matrix(0 1 1 0 -101.603 66.342)" gradientUnits="userSpaceOnUse"><stop offset="0" stop-color="#fff"/><stop offset=".685" stop-color="#2E659E"/><stop offset="1" stop-color="#1D3E63"/></radialGradient><path fill="url(#r)" d="M20.94 3.66c0 .74.28 1.43.8 1.95.53.53 1.22.82 1.96.82s1.43-.3 1.95-.8c.53-.53.8-1.22.8-1.96C26.46 2.14 25.24.9 23.7.9c-1.52 0-2.76 1.24-2.76 2.76zm5.08 0c0 .62-.24 1.2-.68 1.64-.44.44-1.02.68-1.64.68-.62 0-1.2-.24-1.64-.68-.44-.44-.68-1.02-.68-1.64 0-1.28 1.04-2.32 2.32-2.32 1.28 0 2.32 1.04 2.32 2.32z"/></g></g><g><circle cx="38.609" cy="13.4" r="2.761" fill="none" stroke="#152a4c" stroke-width="1.8"/><radialGradient id="s" cx="97.582" cy="139.579" r="3.879" fx="97.582" fy="139.579" gradientTransform="matrix(0 -1 1 0 -101.603 109.973)" gradientUnits="userSpaceOnUse"><stop offset="0" stop-color="#fff"/><stop offset=".09" stop-color="#DBE8F2"/><stop offset=".248" stop-color="#A2C3DE"/><stop offset=".395" stop-color="#75A6CD"/><stop offset=".525" stop-color="#5591C2"/><stop offset=".634" stop-color="#4185BB"/><stop offset=".708" stop-color="#3A80B8"/><stop offset="1" stop-color="#244A87"/></radialGradient><circle cx="38.609" cy="13.4" r="2.761" fill="url(#s)"/><g><radialGradient id="t" cx="-55.248" cy="138.608" r="6.838" fx="-55.248" fy="138.608" gradientTransform="matrix(0 1 1 0 -101.603 66.342)" gradientUnits="userSpaceOnUse"><stop offset="0" stop-color="#fff"/><stop offset=".685" stop-color="#2E659E"/><stop offset="1" stop-color="#1D3E63"/></radialGradient><path fill="url(#t)" d="M35.84 13.4c0 .73.3 1.43.8 1.95.54.52 1.23.8 1.97.8s1.44-.28 1.96-.8.8-1.2.8-1.95c0-1.52-1.23-2.76-2.75-2.76s-2.76 1.24-2.76 2.76zm5.1 0c0 .62-.25 1.2-.7 1.64-.43.44-1 .68-1.63.68-.6 0-1.2-.24-1.63-.68-.44-.44-.7-1.02-.7-1.64 0-1.28 1.06-2.32 2.34-2.32 1.3 0 2.33 1.04 2.33 2.32z"/></g></g><g><circle cx="41.343" cy="31.755" r="2.761" fill="none" stroke="#152a4c" stroke-width="1.8"/><radialGradient id="u" cx="79.228" cy="142.313" r="3.879" fx="79.228" fy="142.313" gradientTransform="matrix(0 -1 1 0 -101.603 109.973)" gradientUnits="userSpaceOnUse"><stop offset="0" stop-color="#fff"/><stop offset=".09" stop-color="#DBE8F2"/><stop offset=".248" stop-color="#A2C3DE"/><stop offset=".395" stop-color="#75A6CD"/><stop offset=".525" stop-color="#5591C2"/><stop offset=".634" stop-color="#4185BB"/><stop offset=".708" stop-color="#3A80B8"/><stop offset="1" stop-color="#244A87"/></radialGradient><circle cx="41.343" cy="31.755" r="2.761" fill="url(#u)"/><g><radialGradient id="v" cx="-36.893" cy="141.342" r="6.838" fx="-36.893" fy="141.342" gradientTransform="matrix(0 1 1 0 -101.603 66.342)" gradientUnits="userSpaceOnUse"><stop offset="0" stop-color="#fff"/><stop offset=".685" stop-color="#2E659E"/><stop offset="1" stop-color="#1D3E63"/></radialGradient><path fill="url(#v)" d="M38.58 31.75c0 .74.28 1.44.8 1.95.53.53 1.22.82 1.96.82s1.43-.3 1.95-.82.8-1.2.8-1.95c0-1.52-1.23-2.76-2.76-2.76-1.52 0-2.76 1.23-2.76 2.75zm5.08 0c0 .63-.24 1.2-.68 1.65-.44.43-1.02.68-1.64.68-.62 0-1.2-.24-1.64-.68-.44-.44-.68-1.02-.68-1.65 0-1.27 1.04-2.32 2.32-2.32 1.28 0 2.32 1.05 2.32 2.32z"/></g></g><g><linearGradient id="w" x1="16.058" x2="6.382" y1="10.914" y2="14.66" gradientUnits="userSpaceOnUse"><stop offset="0" stop-color="#fff"/><stop offset="1" stop-color="#709EC3"/></linearGradient><path fill="url(#w)" d="M4.47 14.22l.7.7c2.7-2.7 7.05-3.52 11.6-2.18l.3-.96c-4.93-1.44-9.63-.53-12.6 2.44z"/></g><g><linearGradient id="x" x1="30.796" x2="30.172" y1="38.886" y2="23.746" gradientUnits="userSpaceOnUse"><stop offset="0" stop-color="#fff"/><stop offset="1" stop-color="#709EC3"/></linearGradient><path fill="url(#x)" d="M28.33 21.64c3.52 5.54 3.84 11.65.82 15.58l.8.6c3.27-4.26 2.97-10.82-.78-16.7l-.84.52z"/></g><g><linearGradient id="y" x1="2.537" x2="11.277" y1="29.448" y2="40.217" gradientUnits="userSpaceOnUse"><stop offset="0" stop-color="#fff"/><stop offset="1" stop-color="#709EC3"/></linearGradient><path fill="url(#y)" d="M1.94 30.24c1.06 2.4 2.6 4.6 4.56 6.56 2 2 4.37 3.63 6.84 4.68l.4-.92c-2.36-1-4.62-2.55-6.54-4.47-1.87-1.88-3.33-3.98-4.35-6.27l-.92.4z"/></g><g><linearGradient id="z" x1="17.033" x2="7.357" y1="13.433" y2="17.179" gradientUnits="userSpaceOnUse"><stop offset="0" stop-color="#fff"/><stop offset="1" stop-color="#709EC3"/></linearGradient><path fill="url(#z)" d="M6.84 16.58l.7.7c2-2 5.1-2.7 8.5-1.9l.22-1c-3.73-.85-7.16-.06-9.42 2.2z"/></g><g><linearGradient id="A" x1="28.224" x2="27.6" y1="38.993" y2="23.855" gradientUnits="userSpaceOnUse"><stop offset="0" stop-color="#fff"/><stop offset="1" stop-color="#709EC3"/></linearGradient><path fill="url(#A)" d="M26.16 23c2.4 4 2.76 8.36.9 11.4l.85.53c2.07-3.36 1.72-8.14-.88-12.46l-.86.52z"/></g><g><linearGradient id="B" x1="4.423" x2="13.164" y1="27.918" y2="38.687" gradientUnits="userSpaceOnUse"><stop offset="0" stop-color="#fff"/><stop offset="1" stop-color="#709EC3"/></linearGradient><path fill="url(#B)" d="M4.72 30.05c.86 1.8 2.05 3.5 3.54 4.98 1.8 1.8 3.94 3.2 6.17 4.04l.35-.94c-2.1-.8-4.1-2.1-5.8-3.8-1.42-1.4-2.54-3-3.35-4.7l-.9.42z"/></g></g></svg>