<svg xmlns="http://www.w3.org/2000/svg" width="48" height="48"><defs><linearGradient id="i" x1="776.865" x2="777.995" y1="541.731" y2="543.105" gradientUnits="userSpaceOnUse"><stop offset=".247" stop-color="#fff"/><stop offset=".301" stop-color="#F3F4F5"/><stop offset=".508" stop-color="#CBD0D6"/><stop offset=".701" stop-color="#AFB9C2"/><stop offset=".871" stop-color="#9EAAB6"/><stop offset="1" stop-color="#99A5B3"/></linearGradient><linearGradient id="h" x1="779.324" x2="780.542" y1="541.802" y2="543.042" gradientUnits="userSpaceOnUse"><stop offset=".247" stop-color="#fff"/><stop offset=".301" stop-color="#F3F4F5"/><stop offset=".508" stop-color="#CBD0D6"/><stop offset=".701" stop-color="#AFB9C2"/><stop offset=".871" stop-color="#9EAAB6"/><stop offset="1" stop-color="#99A5B3"/></linearGradient><linearGradient id="g" x1="781.786" x2="783.049" y1="541.8" y2="543.019" gradientUnits="userSpaceOnUse"><stop offset=".247" stop-color="#fff"/><stop offset=".301" stop-color="#F3F4F5"/><stop offset=".508" stop-color="#CBD0D6"/><stop offset=".701" stop-color="#AFB9C2"/><stop offset=".871" stop-color="#9EAAB6"/><stop offset="1" stop-color="#99A5B3"/></linearGradient><linearGradient id="f" x1="777.438" x2="777.438" y1="541.401" y2="543.071" gradientUnits="userSpaceOnUse"><stop offset=".455" stop-color="#D0D5DA"/><stop offset=".826" stop-color="#99A5B3"/><stop offset="1" stop-color="#9DA9B6"/></linearGradient><linearGradient id="e" x1="779.938" x2="779.938" y1="541.401" y2="543.071" gradientUnits="userSpaceOnUse"><stop offset=".455" stop-color="#D0D5DA"/><stop offset=".826" stop-color="#99A5B3"/><stop offset="1" stop-color="#9DA9B6"/></linearGradient><linearGradient id="d" x1="782.435" x2="782.435" y1="541.401" y2="543.071" gradientUnits="userSpaceOnUse"><stop offset=".455" stop-color="#D0D5DA"/><stop offset=".826" stop-color="#99A5B3"/><stop offset="1" stop-color="#9DA9B6"/></linearGradient><linearGradient id="c" x1="771.22" x2="771.22" y1="561.378" y2="544.373" gradientUnits="userSpaceOnUse"><stop offset="0" stop-color="#fff"/><stop offset=".41" stop-color="#fff"/><stop offset=".592" stop-color="#FBFCFA"/><stop offset=".775" stop-color="#EEEFEB"/><stop offset=".957" stop-color="#D9DCD5"/><stop offset="1" stop-color="#D3D7CF"/></linearGradient><linearGradient id="b" x1="771.219" x2="771.219" y1="542.046" y2="562.616" gradientUnits="userSpaceOnUse"><stop offset="0" stop-color="#ADBBCA"/><stop offset=".348" stop-color="#fff"/><stop offset=".674" stop-color="#fff"/><stop offset=".759" stop-color="#FBFCFC"/><stop offset=".844" stop-color="#EFF2F5"/><stop offset=".929" stop-color="#DAE2E8"/><stop offset="1" stop-color="#C3D2DD"/></linearGradient><linearGradient id="a" x1="771.219" x2="771.219" y1="540.617" y2="562.616" gradientUnits="userSpaceOnUse"><stop offset="0" stop-color="#E8ECED"/><stop offset=".348" stop-color="#fff"/><stop offset=".674" stop-color="#fff"/></linearGradient><linearGradient id="j" x1="784.5" x2="784.5" y1="586.057" y2="551.017" gradientUnits="userSpaceOnUse" gradientTransform="translate(-757.06 -539.628)"><stop offset="0" stop-color="#709EC3"/><stop offset=".383" stop-color="#72A0C4"/><stop offset=".521" stop-color="#79A3C6"/><stop offset=".619" stop-color="#83ABCA"/><stop offset=".698" stop-color="#94B5D0"/><stop offset=".766" stop-color="#A9C3D9"/><stop offset=".827" stop-color="#C6D6E5"/><stop offset=".88" stop-color="#E5ECF2"/><stop offset=".916" stop-color="#fff"/></linearGradient><linearGradient id="k" x1="784.5" x2="784.5" y1="556.36" y2="586.157" gradientUnits="userSpaceOnUse" gradientTransform="translate(-757.06 -539.628)"><stop offset="0" stop-color="#6395BF"/><stop offset=".09" stop-color="#CCDBE8"/><stop offset=".674" stop-color="#fff"/><stop offset=".728" stop-color="#FBFDFE"/><stop offset=".781" stop-color="#EFF5F8"/><stop offset=".835" stop-color="#DBEAF2"/><stop offset=".889" stop-color="#BED9E8"/><stop offset=".943" stop-color="#9AC6DC"/><stop offset=".997" stop-color="#6FAFCE"/><stop offset="1" stop-color="#6CADCD"/></linearGradient><linearGradient id="l" x1="800.531" x2="800.531" y1="556.321" y2="557.73" gradientUnits="userSpaceOnUse"><stop offset=".455" stop-color="#D9ADAE"/><stop offset=".944" stop-color="#CB1009"/></linearGradient><linearGradient id="m" x1="799.813" x2="801.373" y1="556.137" y2="558.064" gradientUnits="userSpaceOnUse"><stop offset=".247" stop-color="#fff"/><stop offset=".34" stop-color="#E8C8B7"/><stop offset=".472" stop-color="#CE896F"/><stop offset=".599" stop-color="#BA5942"/><stop offset=".719" stop-color="#AB3825"/><stop offset=".829" stop-color="#A22214"/><stop offset=".926" stop-color="#9B150B"/><stop offset="1" stop-color="#991109"/></linearGradient><linearGradient id="n" x1="797.254" x2="797.254" y1="556.27" y2="557.833" gradientUnits="userSpaceOnUse"><stop offset=".455" stop-color="#A0C6DE"/><stop offset=".944" stop-color="#3165A1"/></linearGradient><linearGradient id="o" x1="796.481" x2="797.996" y1="556.142" y2="557.876" gradientUnits="userSpaceOnUse"><stop offset=".247" stop-color="#fff"/><stop offset=".253" stop-color="#FCFDFE"/><stop offset=".401" stop-color="#AEBDD5"/><stop offset=".533" stop-color="#7392BA"/><stop offset=".644" stop-color="#4875A9"/><stop offset=".731" stop-color="#3066A0"/><stop offset=".781" stop-color="#27609D"/><stop offset="1" stop-color="#355787"/></linearGradient><linearGradient id="p" x1="793.975" x2="793.975" y1="556.27" y2="557.833" gradientUnits="userSpaceOnUse"><stop offset=".455" stop-color="#A0C6DE"/><stop offset=".944" stop-color="#3165A1"/></linearGradient><linearGradient id="q" x1="793.256" x2="794.664" y1="556.108" y2="557.905" gradientUnits="userSpaceOnUse"><stop offset=".247" stop-color="#fff"/><stop offset=".253" stop-color="#FCFDFE"/><stop offset=".401" stop-color="#AEBDD5"/><stop offset=".533" stop-color="#7392BA"/><stop offset=".644" stop-color="#4875A9"/><stop offset=".731" stop-color="#3066A0"/><stop offset=".781" stop-color="#27609D"/><stop offset="1" stop-color="#355787"/></linearGradient><linearGradient id="s" x1="767.066" x2="802.103" y1="559.555" y2="584.711" gradientUnits="userSpaceOnUse"><stop offset="0" stop-color="#263D4C"/><stop offset=".348" stop-color="#446D8C"/><stop offset="1" stop-color="#698499"/></linearGradient><linearGradient id="r" x1="784.5" x2="784.5" y1="584.578" y2="559.512" gradientUnits="userSpaceOnUse"><stop offset="0" stop-color="#fff"/><stop offset=".41" stop-color="#fff"/><stop offset=".592" stop-color="#FBFCFA"/><stop offset=".775" stop-color="#EEEFEB"/><stop offset=".957" stop-color="#D9DCD5"/><stop offset="1" stop-color="#D3D7CF"/></linearGradient><linearGradient id="t" x1="84.022" x2="75.07" y1="233.44" y2="233.44" gradientTransform="matrix(0 -1 -1 0 259.812 95.129)" gradientUnits="userSpaceOnUse"><stop offset="0" stop-color="#E96712"/><stop offset=".648" stop-color="#D4290C"/><stop offset="1" stop-color="#CB1009"/></linearGradient><radialGradient id="v" cx="806.206" cy="582.95" r="11.798" gradientUnits="userSpaceOnUse" gradientTransform="matrix(0 1 1 0 199.669 -234.93)" fy="582.95" fx="806.206"><stop offset="0" stop-color="#fff"/><stop offset=".685" stop-color="#2E659E"/><stop offset="1" stop-color="#1D3E63"/></radialGradient><radialGradient id="u" cx="250.728" cy="584.624" r="6.692" gradientUnits="userSpaceOnUse" gradientTransform="matrix(0 -1 1 0 199.669 824.239)" fy="584.624" fx="250.728"><stop offset="0" stop-color="#fff"/><stop offset=".09" stop-color="#DBE8F2"/><stop offset=".248" stop-color="#A2C3DE"/><stop offset=".395" stop-color="#75A6CD"/><stop offset=".525" stop-color="#5591C2"/><stop offset=".634" stop-color="#4185BB"/><stop offset=".708" stop-color="#3A80B8"/><stop offset="1" stop-color="#244A87"/></radialGradient></defs><g><g transform="translate(-757.06 -539.628)"><path fill="none" stroke="#3e444c" stroke-width="1.5" d="M784.63 561.65c0 .52-.42.94-.94.94h-24.95c-.52 0-.94-.43-.94-.95v-20.1c0-.5.43-.93.95-.93h24.94c.5 0 .93.4.93.93v20.1z"/><linearGradient x1="771.219" x2="771.219" y1="540.617" y2="562.616" gradientUnits="userSpaceOnUse"><stop offset="0" stop-color="#E8ECED"/><stop offset=".348" stop-color="#fff"/><stop offset=".674" stop-color="#fff"/></linearGradient><path fill="url(#a)" d="M784.63 561.65c0 .52-.42.94-.94.94h-24.95c-.52 0-.94-.43-.94-.95v-20.1c0-.5.43-.93.95-.93h24.94c.5 0 .93.4.93.93v20.1z"/><linearGradient x1="771.219" x2="771.219" y1="542.046" y2="562.616" gradientUnits="userSpaceOnUse"><stop offset="0" stop-color="#ADBBCA"/><stop offset=".348" stop-color="#fff"/><stop offset=".674" stop-color="#fff"/><stop offset=".759" stop-color="#FBFCFC"/><stop offset=".844" stop-color="#EFF2F5"/><stop offset=".929" stop-color="#DAE2E8"/><stop offset="1" stop-color="#C3D2DD"/></linearGradient><path fill="url(#b)" d="M784.63 561.65c0 .52-.42.94-.94.94h-24.95c-.52 0-.94-.43-.94-.95v-18.6c0-.5.43-.93.95-.93h24.94c.5 0 .93.4.93.93v18.6z"/><linearGradient x1="771.22" x2="771.22" y1="561.378" y2="544.373" gradientUnits="userSpaceOnUse"><stop offset="0" stop-color="#fff"/><stop offset=".41" stop-color="#fff"/><stop offset=".592" stop-color="#FBFCFA"/><stop offset=".775" stop-color="#EEEFEB"/><stop offset=".957" stop-color="#D9DCD5"/><stop offset="1" stop-color="#D3D7CF"/></linearGradient><path fill="url(#c)" stroke="#77818c" stroke-width=".7" d="M783.53 561.13c0 .17-.14.3-.3.3h-24c-.2 0-.33-.13-.33-.3v-16.48c0-.17.14-.3.32-.3h24c.17 0 .3.13.3.3v16.48z"/><linearGradient x1="782.435" x2="782.435" y1="541.401" y2="543.071" gradientUnits="userSpaceOnUse"><stop offset=".455" stop-color="#D0D5DA"/><stop offset=".826" stop-color="#99A5B3"/><stop offset="1" stop-color="#9DA9B6"/></linearGradient><circle cx="782.436" cy="542.427" r="1.02" fill="url(#d)" stroke="#3e444c" stroke-width=".25"/><linearGradient x1="779.938" x2="779.938" y1="541.401" y2="543.071" gradientUnits="userSpaceOnUse"><stop offset=".455" stop-color="#D0D5DA"/><stop offset=".826" stop-color="#99A5B3"/><stop offset="1" stop-color="#9DA9B6"/></linearGradient><circle cx="779.938" cy="542.427" r="1.02" fill="url(#e)" stroke="#3e444c" stroke-width=".25"/><linearGradient x1="777.438" x2="777.438" y1="541.401" y2="543.071" gradientUnits="userSpaceOnUse"><stop offset=".455" stop-color="#D0D5DA"/><stop offset=".826" stop-color="#99A5B3"/><stop offset="1" stop-color="#9DA9B6"/></linearGradient><circle cx="777.438" cy="542.427" r="1.02" fill="url(#f)" stroke="#3e444c" stroke-width=".25"/><g><linearGradient x1="781.786" x2="783.049" y1="541.8" y2="543.019" gradientUnits="userSpaceOnUse"><stop offset=".247" stop-color="#fff"/><stop offset=".301" stop-color="#F3F4F5"/><stop offset=".508" stop-color="#CBD0D6"/><stop offset=".701" stop-color="#AFB9C2"/><stop offset=".871" stop-color="#9EAAB6"/><stop offset="1" stop-color="#99A5B3"/></linearGradient><path fill="url(#g)" d="M781.54 542.43c0 .5.4.9.9.9s.9-.4.9-.9-.4-.9-.9-.9-.9.4-.9.9zm.25 0c0-.36.28-.65.64-.65.35 0 .64.3.64.65 0 .35-.3.64-.64.64-.36 0-.65-.3-.65-.64z"/></g><g><linearGradient x1="779.324" x2="780.542" y1="541.802" y2="543.042" gradientUnits="userSpaceOnUse"><stop offset=".247" stop-color="#fff"/><stop offset=".301" stop-color="#F3F4F5"/><stop offset=".508" stop-color="#CBD0D6"/><stop offset=".701" stop-color="#AFB9C2"/><stop offset=".871" stop-color="#9EAAB6"/><stop offset="1" stop-color="#99A5B3"/></linearGradient><path fill="url(#h)" d="M779.04 542.43c0 .5.4.9.9.9s.9-.4.9-.9-.4-.9-.9-.9-.9.4-.9.9zm.25 0c0-.36.28-.65.64-.65.35 0 .64.3.64.65 0 .35-.3.64-.64.64-.36 0-.65-.3-.65-.64z"/></g><g><linearGradient x1="776.865" x2="777.995" y1="541.731" y2="543.105" gradientUnits="userSpaceOnUse"><stop offset=".247" stop-color="#fff"/><stop offset=".301" stop-color="#F3F4F5"/><stop offset=".508" stop-color="#CBD0D6"/><stop offset=".701" stop-color="#AFB9C2"/><stop offset=".871" stop-color="#9EAAB6"/><stop offset="1" stop-color="#99A5B3"/></linearGradient><path fill="url(#i)" d="M776.54 542.43c0 .5.4.9.9.9s.9-.4.9-.9-.4-.9-.9-.9-.9.4-.9.9zm.25 0c0-.36.28-.65.64-.65.35 0 .64.3.64.65 0 .35-.3.64-.64.64-.36 0-.65-.3-.65-.64z"/></g></g><path fill="none" stroke="#192433" stroke-width="2" d="M46.35 45.25c0 .68-.55 1.23-1.23 1.23H9.76c-.68 0-1.23-.55-1.23-1.23v-29c0-.68.55-1.23 1.23-1.23h35.36c.68 0 1.23.55 1.23 1.23v29z"/><path fill="url(#j)" d="M46.35 45.25c0 .68-.55 1.23-1.23 1.23H9.76c-.68 0-1.23-.55-1.23-1.23v-29c0-.68.55-1.23 1.23-1.23h35.36c.68 0 1.23.55 1.23 1.23v29z"/><path fill="url(#k)" d="M46.35 45.25c0 .68-.55 1.23-1.23 1.23H9.76c-.68 0-1.23-.55-1.23-1.23V18c0-.68.55-1.23 1.23-1.23h35.36c.68 0 1.23.55 1.23 1.23v27.25z"/><circle cx="800.532" cy="557.024" r="1.337" fill="url(#l)" stroke="#4c0b08" stroke-width=".4" transform="translate(-757.06 -539.628)"/><g transform="translate(-757.06 -539.628)"><linearGradient x1="799.813" x2="801.373" y1="556.137" y2="558.064" gradientUnits="userSpaceOnUse"><stop offset=".247" stop-color="#fff"/><stop offset=".34" stop-color="#E8C8B7"/><stop offset=".472" stop-color="#CE896F"/><stop offset=".599" stop-color="#BA5942"/><stop offset=".719" stop-color="#AB3825"/><stop offset=".829" stop-color="#A22214"/><stop offset=".926" stop-color="#9B150B"/><stop offset="1" stop-color="#991109"/></linearGradient><path fill="url(#m)" d="M799.4 557.02c0 .63.5 1.14 1.13 1.14.63 0 1.14-.5 1.14-1.14 0-.62-.5-1.13-1.14-1.13-.62 0-1.13.5-1.13 1.12zm.43 0c0-.38.3-.7.7-.7.4 0 .7.32.7.7 0 .4-.3.7-.7.7-.4 0-.7-.3-.7-.7z"/></g><circle cx="797.253" cy="557.024" r="1.337" fill="url(#n)" stroke="#1f324c" stroke-width=".4" transform="translate(-757.06 -539.628)"/><g transform="translate(-757.06 -539.628)"><linearGradient x1="796.481" x2="797.996" y1="556.142" y2="557.876" gradientUnits="userSpaceOnUse"><stop offset=".247" stop-color="#fff"/><stop offset=".253" stop-color="#FCFDFE"/><stop offset=".401" stop-color="#AEBDD5"/><stop offset=".533" stop-color="#7392BA"/><stop offset=".644" stop-color="#4875A9"/><stop offset=".731" stop-color="#3066A0"/><stop offset=".781" stop-color="#27609D"/><stop offset="1" stop-color="#355787"/></linearGradient><path fill="url(#o)" d="M796.1 557.02c0 .64.52 1.15 1.15 1.15.64 0 1.15-.5 1.15-1.15 0-.63-.5-1.14-1.15-1.14-.63 0-1.15.5-1.15 1.14zm.45 0c0-.38.3-.7.7-.7.4 0 .7.32.7.7 0 .4-.3.7-.7.7-.4 0-.7-.3-.7-.7z"/></g><circle cx="793.974" cy="557.024" r="1.337" fill="url(#p)" stroke="#1f324c" stroke-width=".4" transform="translate(-757.06 -539.628)"/><g transform="translate(-757.06 -539.628)"><linearGradient x1="793.256" x2="794.664" y1="556.108" y2="557.905" gradientUnits="userSpaceOnUse"><stop offset=".247" stop-color="#fff"/><stop offset=".253" stop-color="#FCFDFE"/><stop offset=".401" stop-color="#AEBDD5"/><stop offset=".533" stop-color="#7392BA"/><stop offset=".644" stop-color="#4875A9"/><stop offset=".731" stop-color="#3066A0"/><stop offset=".781" stop-color="#27609D"/><stop offset="1" stop-color="#355787"/></linearGradient><path fill="url(#q)" d="M792.84 557.02c0 .63.5 1.14 1.13 1.14.63 0 1.14-.5 1.14-1.14 0-.62-.5-1.13-1.13-1.13-.62 0-1.13.5-1.13 1.12zm.43 0c0-.38.32-.7.7-.7.4 0 .7.32.7.7 0 .4-.3.7-.7.7-.38 0-.7-.3-.7-.7z"/></g><g transform="translate(-757.06 -539.628)"><linearGradient x1="784.5" x2="784.5" y1="584.578" y2="559.512" gradientUnits="userSpaceOnUse"><stop offset="0" stop-color="#fff"/><stop offset=".41" stop-color="#fff"/><stop offset=".592" stop-color="#FBFCFA"/><stop offset=".775" stop-color="#EEEFEB"/><stop offset=".957" stop-color="#D9DCD5"/><stop offset="1" stop-color="#D3D7CF"/></linearGradient><path fill="url(#r)" d="M801.97 584.2c0 .22-.18.4-.4.4h-34.13c-.23 0-.4-.18-.4-.4v-24.25c0-.23.17-.4.4-.4h34.13c.22 0 .4.17.4.4v24.25z" enable-background="new"/><linearGradient x1="767.066" x2="802.103" y1="559.555" y2="584.711" gradientUnits="userSpaceOnUse"><stop offset="0" stop-color="#263D4C"/><stop offset=".348" stop-color="#446D8C"/><stop offset="1" stop-color="#698499"/></linearGradient><path fill="url(#s)" d="M767.44 559.04c-.5 0-.9.4-.9.9v24.25c0 .5.4.9.9.9h34.13c.5 0 .9-.4.9-.9v-24.25c0-.5-.4-.9-.9-.9h-34.13zm34.27.83c0 .18 0 24.22 0 24.4-.17 0-34.23 0-34.4 0 0-.18 0-24.22 0-24.4.17 0 34.23 0 34.4 0z"/></g><path fill="#cb1009" stroke="#590b08" stroke-width=".5" d="M27.67 29.2c.33.35.88.35 1.22 0l9.72-8.94c.08-.07.13-.18.13-.3 0-.24-.2-.43-.43-.43H18.24c-.24 0-.43.2-.43.43 0 .12.05.23.13.3l.02.02c2.2 2.25 9.72 8.93 9.72 8.93z"/><path fill="url(#t)" d="M23.06 23.62v-7.37s-1.13-3.97-1.8-4.4c-.97-.63-2-.74-2-.74h8.77s3.24.35 4.46 1.9c.42.56 1 1.77 1 1.77v8.85H23.05z"/><path fill="none" stroke="#590b08" stroke-width=".5" d="M23.06 19.53v-3.28.38c0-3.27-2.37-5.52-3.8-5.52h7.77c3.93 0 6.46 1.73 6.46 4.67v3.76"/><path fill="none" stroke="#f62724" d="M28.28 28.72c-1.12-1-6.7-6.12-9.28-8.56"/><path fill="none" stroke="#f62724" d="M23.84 19.53v-3.28"/><g transform="translate(-757.06 -539.628)"><path fill="none" stroke="#152a4c" stroke-width="1.5" d="M785.4 570.5c2.62 0 4.75 2.12 4.75 4.75s-2.13 4.77-4.76 4.77c-2.65 0-4.78-2.14-4.78-4.77 0-2.63 2.13-4.76 4.77-4.76z"/><radialGradient cx="250.728" cy="584.624" r="6.692" gradientUnits="userSpaceOnUse" gradientTransform="matrix(0 -1 1 0 199.669 824.239)" fy="584.624" fx="250.728"><stop offset="0" stop-color="#fff"/><stop offset=".09" stop-color="#DBE8F2"/><stop offset=".248" stop-color="#A2C3DE"/><stop offset=".395" stop-color="#75A6CD"/><stop offset=".525" stop-color="#5591C2"/><stop offset=".634" stop-color="#4185BB"/><stop offset=".708" stop-color="#3A80B8"/><stop offset="1" stop-color="#244A87"/></radialGradient><path fill="url(#u)" d="M785.4 570.5c2.62 0 4.75 2.12 4.75 4.75s-2.13 4.77-4.76 4.77c-2.65 0-4.78-2.14-4.78-4.77 0-2.63 2.13-4.76 4.77-4.76z"/><g><radialGradient cx="806.206" cy="582.95" r="11.798" gradientUnits="userSpaceOnUse" gradientTransform="matrix(0 1 1 0 199.669 -234.93)" fy="582.95" fx="806.206"><stop offset="0" stop-color="#fff"/><stop offset=".685" stop-color="#2E659E"/><stop offset="1" stop-color="#1D3E63"/></radialGradient><path fill="url(#v)" d="M780.62 575.25c0 1.27.5 2.47 1.4 3.37.9.9 2.1 1.4 3.37 1.4 1.25 0 2.46-.5 3.35-1.4.9-.9 1.4-2.1 1.4-3.37 0-2.62-2.14-4.76-4.76-4.76-2.64 0-4.78 2.13-4.78 4.75zm8.77 0c0 1.07-.43 2.08-1.18 2.83-.76.76-1.77 1.18-2.83 1.18-1.1 0-2.1-.42-2.85-1.18-.75-.75-1.17-1.76-1.17-2.83 0-2.2 1.8-4 4-4s4 1.8 4 4z"/></g></g></g></svg>