<svg xmlns="http://www.w3.org/2000/svg" width="48" height="48" xmlns:xlink="http://www.w3.org/1999/xlink"><defs><linearGradient id="f"><stop offset="0" stop-color="#fcaf3e"/><stop offset="1" stop-color="#fcaf3e" stop-opacity="0"/></linearGradient><linearGradient id="e"><stop offset="0" stop-color="#babdb6"/><stop offset="1" stop-color="#babdb6" stop-opacity="0"/></linearGradient><linearGradient id="d" x1="-5135.792" x2="-5130.818" y1="4070.319" y2="4075.194" gradientTransform="matrix(-.067 -.998 .998 -.067 -4264.14 -4802.831)" gradientUnits="userSpaceOnUse"><stop offset="0" stop-color="#CB1009"/><stop offset=".376" stop-color="#F57F80"/><stop offset=".747" stop-color="#CB1009"/><stop offset="1" stop-color="#ED2829"/></linearGradient><linearGradient id="a" x1="-5140.872" x2="-5146.64" y1="4080.01" y2="4087.425" gradientTransform="matrix(-.067 -.998 .998 -.067 -4264.14 -4802.831)" gradientUnits="userSpaceOnUse"><stop offset="0" stop-color="#fff"/><stop offset="1" stop-color="#F6E94F"/></linearGradient><linearGradient id="b" x1="-5139.52" x2="-5145.701" y1="4079.081" y2="4085.261" gradientTransform="matrix(-.067 -.998 .998 -.067 -4264.14 -4802.831)" gradientUnits="userSpaceOnUse"><stop offset="0" stop-color="#fff"/><stop offset="1" stop-color="#ED2829"/></linearGradient><linearGradient id="c" x1="-5124.553" x2="-5119.679" y1="4058.983" y2="4066.145" gradientTransform="matrix(-.067 -.998 .998 -.067 -4264.14 -4802.831)" gradientUnits="userSpaceOnUse"><stop offset="0" stop-color="#CB1009"/><stop offset=".371" stop-color="#F57F80"/><stop offset=".747" stop-color="#CB1009"/><stop offset="1" stop-color="#ED2829"/></linearGradient><linearGradient x1="-5140.872" x2="-5146.64" y1="4080.01" y2="4087.425" xlink:href="#a" gradientUnits="userSpaceOnUse" gradientTransform="matrix(-.08 -1.19 1.19 -.08 -5236.907 -5760.938)"/><linearGradient x1="-5139.52" x2="-5145.701" y1="4079.081" y2="4085.261" xlink:href="#b" gradientUnits="userSpaceOnUse" gradientTransform="matrix(-.08 -1.19 1.19 -.08 -5236.907 -5760.938)"/><linearGradient id="k" x1="-5124.553" x2="-5121.293" y1="4058.983" y2="4066.137" xlink:href="#c" gradientUnits="userSpaceOnUse" gradientTransform="matrix(-.095 -1.416 1.414 -.095 -6225.965 -6854.913)"/><linearGradient id="j" x1="-5135.792" x2="-5130.818" y1="4070.319" y2="4075.194" xlink:href="#d" gradientUnits="userSpaceOnUse" gradientTransform="matrix(-.067 -.998 .998 -.067 -4264.14 -4802.831)"/><linearGradient x1="-5135.792" x2="-5130.818" y1="4070.319" y2="4075.194" xlink:href="#d" gradientUnits="userSpaceOnUse" gradientTransform="matrix(-.067 -.998 .998 -.067 -4264.14 -4802.831)"/><linearGradient x1="-5124.553" x2="-5121.293" y1="4058.983" y2="4066.137" xlink:href="#c" gradientUnits="userSpaceOnUse" gradientTransform="matrix(-.095 -1.416 1.414 -.095 -6207.803 -6848.747)"/><linearGradient id="g" x1="1.79" x2="31.951" y1="3.652" y2="30.366" xlink:href="#e" gradientUnits="userSpaceOnUse"/><linearGradient id="l" x1="3.115" x2="12.313" y1="5.194" y2="13.454" xlink:href="#f" gradientUnits="userSpaceOnUse"/><linearGradient x1="-5140.872" x2="-5146.64" y1="4080.01" y2="4087.425" xlink:href="#a" gradientUnits="userSpaceOnUse" gradientTransform="matrix(-.08 -1.19 1.19 -.08 -5236.907 -5760.938)"/><linearGradient x1="-5139.52" x2="-5145.701" y1="4079.081" y2="4085.261" xlink:href="#b" gradientUnits="userSpaceOnUse" gradientTransform="matrix(-.08 -1.19 1.19 -.08 -5236.907 -5760.938)"/><linearGradient id="h" x1="-5139.52" x2="-5148.515" y1="4079.081" y2="4087.832" xlink:href="#b" gradientUnits="userSpaceOnUse" gradientTransform="matrix(-.08 -1.19 1.19 -.08 -5236.907 -5760.938)"/><linearGradient id="i" x1="-5140.872" x2="-5146.64" y1="4080.01" y2="4087.425" xlink:href="#a" gradientUnits="userSpaceOnUse" gradientTransform="matrix(-.08 -1.19 1.19 -.08 -5236.907 -5760.938)"/></defs><g><path fill="none" stroke="url(#g)" stroke-width="4" d="M2.08 4.36L7.6 19.54l2.1-2.37 18.4 16.06 5.85-6.7-18.4-16.05 2.2-2.56L2.1 4.36z" stroke-linecap="round" stroke-linejoin="round"/><path fill="url(#h)" d="M28.25 31.6c1.16 1.05 2.07 2.36 3.38 3.26 1.72 1.45 3.37 3.32 5.74 3.62 1.08-.04 1.98.6 2.83 1.17.83.45 1.98.38 2.53 1.28.73 1 .98 2.53 2.3 3 1 .42 2.16.47 2.98 1.2-1.8-1.48-2.57-3.86-4.37-5.37-1.07-1.2-1.66-2.8-3-3.8-1.1-.9-2.1-2-2.5-3.4-1.08-2.58-3.57-4.1-5.6-5.86"/><path fill="url(#i)" d="M28.6 31.22c1 .13 1.35 1.33 2.28 1.66 1.23.6 2.6 1.02 3.56 2.07.97 1.07 2.35 1.6 3.72 1.95 1.35.34 2.6 1 3.62 1.96.4.3 1.14 1.03.35.3-.7-.9-1-2.08-1.96-2.78-1.03-.96-2-1.97-3.15-2.77-.93-.86-1.62-1.95-2.57-2.8-.76-.86-1.83-1.37-2.6-2.23-.16-.22-.32-.5-.24-.8"/><path fill="url(#j)" stroke="#8b0a06" stroke-width="1.172" d="M134.43 40.92l15.1 13.2 4.57-5.22L139 35.7l-4.57 5.22z" transform="matrix(1.28 0 0 1.28 -163.316 -36.164)" stroke-linecap="round" stroke-linejoin="round"/><path fill="url(#k)" stroke="#8b0a06" stroke-width="1.5" d="M2.04 4.25l15.7 3.55L7.57 19.44 2.04 4.24z" stroke-linecap="round" stroke-linejoin="round"/><path fill="#f4ff84" fill-opacity=".267" d="M12.42 20.64l3.68-10.5 4.48 3.3-3.68 10.5-4.48-3.3z" color="#000" overflow="visible"/><path fill="#f4ff84" fill-opacity=".267" d="M20.5 27.6l3.67-10.5 4.5 3.3-3.7 10.5-4.48-3.3z" color="#000" overflow="visible"/><path fill="#f4ff84" fill-opacity=".267" d="M4.63 12.7s1.4-3.5 1.4-8.35l5.34 1.3c-.43 4.14-.54 8.06-4.54 13.5 0 0-4.5-4.02-2.2-6.45z" color="#000" overflow="visible"/><path fill="none" stroke="url(#l)" stroke-width="1.5" d="M3.87 5.94l11.7 2.64-7.58 8.67-4.13-11.3z" stroke-linecap="round" stroke-linejoin="round"/></g></svg>