<svg xmlns="http://www.w3.org/2000/svg" width="48" height="48" xmlns:xlink="http://www.w3.org/1999/xlink"><defs><linearGradient id="j"><stop offset="0" stop-color="#fff" stop-opacity=".671"/><stop offset="1" stop-color="#fff" stop-opacity="0"/></linearGradient><linearGradient id="i"><stop offset="0" stop-color="#efa429" stop-opacity=".671"/><stop offset="1" stop-color="#ef8b29" stop-opacity="0"/></linearGradient><linearGradient id="g"><stop offset="0" stop-color="#ef2929" stop-opacity=".671"/><stop offset="1" stop-color="#ef2929" stop-opacity="0"/></linearGradient><linearGradient id="h"><stop offset="0" stop-color="#6aef29" stop-opacity=".671"/><stop offset="1" stop-color="#29ef31" stop-opacity="0"/></linearGradient><linearGradient id="f"><stop offset="0" stop-color="#e2facb"/><stop offset="1" stop-color="#73d216"/></linearGradient><linearGradient id="c"><stop offset="0" stop-color="#ffabab"/><stop offset="1" stop-color="#eeeeec" stop-opacity="0"/></linearGradient><linearGradient id="e"><stop offset="0" stop-color="#eeeeec"/><stop offset="1" stop-color="#eeeeec" stop-opacity="0"/></linearGradient><linearGradient id="d"><stop offset="0" stop-color="#eeeeec"/><stop offset="1" stop-color="#eeeeec" stop-opacity="0"/></linearGradient><linearGradient id="b"><stop offset="0" stop-color="#a40000"/><stop offset="1" stop-color="#a40000" stop-opacity="0"/></linearGradient><linearGradient id="a"><stop offset="0" stop-color="#ff8686"/><stop offset="1" stop-color="#c00"/></linearGradient><linearGradient><stop offset="0" stop-color="#505a5e"/><stop offset="1"/></linearGradient><radialGradient cx="-10.304" cy="20.458" r="5.609" xlink:href="#a" gradientUnits="userSpaceOnUse" gradientTransform="matrix(1.654 1.214 -1.251 1.715 27.612 .706)" fx="-10.304" fy="20.458"/><linearGradient x1="24.607" x2="24.607" y1="31.508" y2="22.722" xlink:href="#b" gradientUnits="userSpaceOnUse" gradientTransform="translate(-36.571)"/><linearGradient x1="21.479" x2="20.089" y1="8.099" y2="26.585" xlink:href="#c" gradientUnits="userSpaceOnUse" gradientTransform="matrix(.922 0 0 .873 -30.831 9.902)"/><radialGradient cx="28.676" cy="18.224" r="2.409" xlink:href="#d" gradientUnits="userSpaceOnUse" gradientTransform="matrix(.861 -.511 .232 .392 -37.34 26.549)" fx="28.676" fy="18.224"/><radialGradient cx="18.886" cy="20.808" r="2.886" xlink:href="#e" gradientUnits="userSpaceOnUse" gradientTransform="matrix(1 0 0 1.18 -36.571 -3.739)" fx="18.886" fy="20.808"/><radialGradient cx="-14.5" cy="10.075" r="5" xlink:href="#f" gradientUnits="userSpaceOnUse" gradientTransform="matrix(1 0 0 .579 0 4.247)" fx="-14.5" fy="10.075"/><linearGradient id="k" x1="24.5" x2="24.5" y1="25.25" y2=".75" xlink:href="#g" gradientUnits="userSpaceOnUse" gradientTransform="matrix(1.071 0 0 1.071 -1.125 .446)"/><linearGradient id="p" x1="24.5" x2="24.5" y1="25.25" y2=".75" xlink:href="#h" gradientUnits="userSpaceOnUse" gradientTransform="matrix(.587 0 0 .643 -1.563 .643)"/><linearGradient id="n" x1="24.5" x2="24.5" y1="25.25" y2=".75" xlink:href="#g" gradientUnits="userSpaceOnUse" gradientTransform="matrix(.092 0 0 1.071 35 -1.679)"/><linearGradient id="m" x1="24.5" x2="24.5" y1="25.25" y2=".75" xlink:href="#g" gradientUnits="userSpaceOnUse" gradientTransform="matrix(.092 0 0 .716 9.875 7.9)"/><linearGradient id="o" x1="24.5" x2="24.5" y1="25.25" y2=".75" xlink:href="#i" gradientUnits="userSpaceOnUse" gradientTransform="matrix(.235 0 0 .508 14.75 .869)"/><radialGradient id="x" cx="-14.5" cy="10.075" r="5" xlink:href="#f" gradientUnits="userSpaceOnUse" gradientTransform="matrix(1.062 -.735 .425 .614 24.081 2.817)" fx="-14.5" fy="10.075"/><radialGradient id="v" cx="18.886" cy="20.808" r="2.886" xlink:href="#e" gradientUnits="userSpaceOnUse" gradientTransform="matrix(1.21 -.452 .533 1.428 -15.938 12.003)" fx="18.886" fy="20.808"/><radialGradient id="u" cx="28.676" cy="18.224" r="2.409" xlink:href="#d" gradientUnits="userSpaceOnUse" gradientTransform="matrix(.539 -1.176 .535 .245 .832 53.962)" fx="28.676" fy="18.224"/><linearGradient id="t" x1="21.479" x2="20.089" y1="8.099" y2="26.585" xlink:href="#c" gradientUnits="userSpaceOnUse" gradientTransform="matrix(.98 -.678 .642 .927 -4.5 31.497)"/><linearGradient id="s" x1="24.607" x2="24.607" y1="31.508" y2="22.722" xlink:href="#b" gradientUnits="userSpaceOnUse" gradientTransform="matrix(1.062 -.735 .735 1.062 -17.877 25.204)"/><radialGradient id="r" cx="-10.304" cy="20.458" r="5.609" xlink:href="#a" gradientUnits="userSpaceOnUse" gradientTransform="matrix(2.649 .073 -.067 2.742 50.798 -21.251)" fx="-10.304" fy="20.458"/><linearGradient x1="24.5" x2="24.5" y1="25.25" y2=".75" xlink:href="#j" gradientUnits="userSpaceOnUse" gradientTransform="matrix(.092 0 0 .476 9.875 -.357)"/><linearGradient id="q" x1="24.5" x2="24.5" y1="25.25" y2=".75" xlink:href="#j" gradientUnits="userSpaceOnUse" gradientTransform="matrix(.092 0 0 .571 25.625 .571)"/><linearGradient id="l" x1="24.5" x2="24.5" y1="25.25" y2=".75" xlink:href="#j" gradientUnits="userSpaceOnUse" gradientTransform="matrix(.092 0 0 .571 30.625 3.571)"/><linearGradient id="w" x1="24.5" x2="24.5" y1="25.25" y2=".75" xlink:href="#j" gradientUnits="userSpaceOnUse" gradientTransform="matrix(.092 0 0 .571 5.625 .571)"/></defs><g><path fill="url(#k)" fill-rule="evenodd" d="M12 1.25h26.25V35H12z" color="#000" overflow="visible"/><path fill="url(#l)" fill-rule="evenodd" d="M31.75 4H34v18h-2.25z" color="#000" overflow="visible"/><path fill="url(#m)" fill-rule="evenodd" d="M11 8.44h2.25V31H11z" color="#000" overflow="visible"/><path fill="url(#n)" fill-rule="evenodd" d="M36.13-.88h2.24v33.76h-2.24z" color="#000" overflow="visible"/><path fill="url(#o)" fill-rule="evenodd" d="M17.63 1.25h5.75l-.25 14-5.5 2v-16z" color="#000" overflow="visible"/><path fill="url(#p)" fill-rule="evenodd" d="M5.63 1.13H20l-.25 18.6-14.13 1.64V1.13z" color="#000" overflow="visible"/><path fill="url(#q)" fill-rule="evenodd" d="M26.75 1H29v18h-2.25z" color="#000" overflow="visible"/><path fill="#eeeeec" fill-rule="evenodd" stroke="#eeeeec" stroke-opacity=".846" stroke-width="5" d="M22.7 15l-4.23.03s-.43 1.23-.2 3.25c-6.2-2.66-7.58-1.02-11.77 2.7 5.04 2.57 7.16 3.12 11.94-1.8.35 1.72 1.2 3.86 3 6.23-7.14.08-11.43 6.6-8 11.26 3.48 4.73 12.5 10.95 14.5 9.72 2.97-1.84 2.04-3.1 4.12-4.32 1.93-1.14 2.96-.56 4.94-1.94 1.98-1.37.26-12.64-3.5-17.78-3.66-5-8.47-4.64-11.1 3.07-.02 0-.03 0-.06 0-1.25-5.27.35-10.4.35-10.4z"/><path fill="#e9b96e" fill-rule="evenodd" stroke="#8f5902" d="M23 26.87c-6.22-6.7-4.36-12.03-4.36-12.03l4.2-.03s-1.94 6.26.15 12.07z"/><path fill="url(#r)" fill-rule="evenodd" stroke="#a40000" d="M22.58 25.22c-7.7-.54-12.55 6.38-8.97 11.26 3.5 4.73 12.5 10.96 14.5 9.72 2.98-1.83 2.05-3.1 4.13-4.33 1.93-1.14 2.95-.57 4.94-1.95 1.98-1.37.25-12.62-3.5-17.75-3.66-5-8.46-4.65-11.1 3.05z"/><path fill="url(#s)" fill-rule="evenodd" d="M34.8 28C33.12 22.9 14.64 36 18.55 39.46c3.9 3.44 7.73 5.96 8.74 5.38 2.96-1.7 2.04-2.98 4.13-4.1 1.94-1.06 2.86-.64 4.8-2 .98-.66.26-5.7-1.43-10.76z"/><path fill="none" stroke="url(#t)" d="M23.22 26.13c-6.98-.3-11.53 5.96-8.4 10.2 3.06 4.14 11.07 9.47 12.92 8.33 2.74-1.7 1.93-2.8 3.84-3.95 1.77-1.04 2.7-.57 4.52-1.83 1.83-1.27.53-11.23-2.76-15.7-3.2-4.37-7.56-3.95-10.12 2.96z"/><path fill="url(#u)" fill-rule="evenodd" d="M23.83 27c.02-1.14 1.42-3.8 2.27-4.8.63-.3 1.2-.3 1.95-.05-1.4 1.43-1.47 4-1.62 4.7-.67-.1-2.6.15-2.6.15z"/><path fill="url(#v)" fill-rule="evenodd" d="M15.02 35.84c-.08-.86.05-2.1.33-3.08 0 0 1.12.1 1.8.38-.34 1.3-.4 2.26-.12 3.42-.66-.1-2-.72-2-.72zm2.64.7c-.08-.87-.14-2.03.33-3.1 0 0 1.1.12 1.78.4-.34 1.28-.4 2.25-.1 3.4-.68-.1-2.02-.7-2.02-.7zm-2.2-4.35c.1-.87.46-2.2.95-3.12 0 0 1.1-.05 1.7.36-.45 1.03-.67 2.23-.86 3.16-.62-.26-1.78-.4-1.78-.4zm2.5.46c.12-.86.4-2.17.87-3.07 0 0 1.23.4 2.02.54-.4 1.18-.82 1.97-.8 3.16-.62-.25-2.08-.64-2.08-.64z"/><path fill="url(#w)" fill-rule="evenodd" d="M6.75 1H9v18H6.75z" color="#000" overflow="visible"/><path fill="url(#x)" fill-rule="evenodd" stroke="#4e9a06" d="M19.16 18.4c-6.86-3.1-8.15-1.48-12.5 2.38 5.25 2.68 7.3 3.2 12.5-2.38z"/></g></svg>