<svg xmlns="http://www.w3.org/2000/svg" width="48" height="48" ns:viewOrigin="0 48" ns:rulerOrigin="0 0" ns:pageBounds="0 48 48 0" xmlns:ns="&ns_ai;" xmlns:xlink="http://www.w3.org/1999/xlink" viewBox="0 0 41.968 48.388" overflow="visible" enable-background="new 0 0 41.968 48.388" version="1"><defs><linearGradient id="a"><stop offset="0" stop-color="#d3d7cf"/><stop offset="1" stop-color="#fff"/></linearGradient><linearGradient id="l" x1="27.478" x2="28.88" y1="3.505" y2="30.053" xlink:href="#a" gradientUnits="userSpaceOnUse" gradientTransform="matrix(.802 0 0 -.802 10.426 49.275)"/><linearGradient id="b"><stop offset="0" stop-color="#dfeaa1"/><stop offset="1" stop-color="#9db029"/></linearGradient><linearGradient x1="13.697" x2="13.697" y1="6.887" y2="1.744" xlink:href="#b" gradientUnits="userSpaceOnUse" gradientTransform="matrix(1.093 0 0 1.278 25.02 -6.048)"/><linearGradient id="j" x1="2.711" x2="2.711" y1="-.139" y2="48.255" gradientUnits="userSpaceOnUse" gradientTransform="translate(-3.008 .262)"><stop offset="0" stop-color="#fff"/><stop offset="1" stop-color="#6C7680"/></linearGradient><linearGradient x1="13.697" x2="13.697" y1="6.887" y2="1.744" xlink:href="#b" gradientUnits="userSpaceOnUse" gradientTransform="matrix(1.093 0 0 1.278 25.02 -6.048)"/><linearGradient x1="13.697" x2="13.697" y1="6.887" y2="1.744" xlink:href="#b" gradientUnits="userSpaceOnUse" gradientTransform="matrix(.625 0 0 .73 17.723 21.36)"/></defs><g transform="translate(-3.008 .262)"><linearGradient id="c" x1="14.506" x2="28.877" y1="25.123" y2="45.697" gradientUnits="userSpaceOnUse"><stop offset="0" stop-color="#709EC3"/><stop offset=".494" stop-color="#CFE4EC"/><stop offset="1" stop-color="#fff"/></linearGradient><path fill="url(#c)" d="M5.4 27.54L20.3 48h21L10.67 23.54l-5.3 4z" ns:knockout="Off"/></g><g transform="translate(-3.008 .262)"><linearGradient id="d" x1="9.993" x2="24.557" y1="21.418" y2="14.068" gradientUnits="userSpaceOnUse"><stop offset="0" stop-color="#709EC3"/><stop offset="1" stop-color="#CFE4EC"/></linearGradient><path fill="url(#d)" d="M5.83 21.78v4.4L13 23.52l13.8-5.7-3.62-7.9L5.83 21.78z" ns:knockout="Off"/></g><g transform="translate(-3.008 .262)"><radialGradient id="e" cx="12.324" cy="27.048" r="20.171" gradientUnits="userSpaceOnUse" fy="27.048" fx="12.324"><stop offset="0" stop-color="#709EC3"/><stop offset=".494" stop-color="#CFE4EC"/><stop offset="1" stop-color="#fff"/></radialGradient><path fill="url(#e)" d="M9.98 17.83l.56.83 13.92-9.34L24 8.6 9.98 17.82z" ns:knockout="Off"/></g><g transform="translate(-3.008 .262)"><radialGradient id="f" cx="12.324" cy="27.13" r="20.236" gradientUnits="userSpaceOnUse" fy="27.13" fx="12.324"><stop offset="0" stop-color="#709EC3"/><stop offset=".494" stop-color="#CFE4EC"/><stop offset="1" stop-color="#fff"/></radialGradient><path fill="url(#f)" d="M6 29.4l13.4 18.8.82-.57-13.4-18.8-.83.57z" ns:knockout="Off"/></g><g transform="translate(-3.008 .262)"><radialGradient id="g" cx="12.325" cy="27.132" r="20.234" gradientUnits="userSpaceOnUse" fy="27.132" fx="12.325"><stop offset="0" stop-color="#709EC3"/><stop offset=".494" stop-color="#CFE4EC"/><stop offset="1" stop-color="#fff"/></radialGradient><path fill="url(#g)" d="M13 25.32L41.33 48.4l.63-.8-28.35-23.05-.63.77z" ns:knockout="Off"/></g><g transform="translate(-3.008 .262)"><circle cx="27.426" cy="12.632" r="4.543" fill="none" stroke="#152a4c" stroke-width="1.5" ns:knockout="Off"/><radialGradient id="h" cx="103.989" cy="128.2" r="6.382" gradientUnits="userSpaceOnUse" gradientTransform="matrix(0 -1 1 0 -101.816 114.959)" fy="128.2" fx="103.989"><stop offset="0" stop-color="#fff"/><stop offset=".09" stop-color="#DBE8F2"/><stop offset=".248" stop-color="#A2C3DE"/><stop offset=".395" stop-color="#75A6CD"/><stop offset=".525" stop-color="#5591C2"/><stop offset=".634" stop-color="#4185BB"/><stop offset=".708" stop-color="#3A80B8"/><stop offset="1" stop-color="#244A87"/></radialGradient><circle cx="27.426" cy="12.632" r="4.543" fill="url(#h)" ns:knockout="Off"/><g ns:knockout="Off"><radialGradient id="i" cx="-57.718" cy="126.603" r="11.253" gradientUnits="userSpaceOnUse" gradientTransform="matrix(0 1 1 0 -101.816 66.555)" fy="126.603" fx="-57.718"><stop offset="0" stop-color="#fff"/><stop offset=".685" stop-color="#2E659E"/><stop offset="1" stop-color="#1D3E63"/></radialGradient><path fill="url(#i)" d="M22.88 12.63c0 1.2.47 2.36 1.33 3.2.87.87 2 1.35 3.23 1.35 1.2 0 2.35-.48 3.2-1.34.87-.85 1.34-2 1.34-3.2 0-2.5-2.04-4.55-4.54-4.55s-4.55 2.03-4.55 4.53zm8.36 0c0 1.02-.4 1.98-1.1 2.7-.74.72-1.7 1.12-2.7 1.12-1.04 0-2-.4-2.7-1.12-.74-.72-1.14-1.68-1.14-2.7 0-2.1 1.72-3.82 3.83-3.82 2.1 0 3.8 1.72 3.8 3.83z" ns:knockout="Off"/></g></g><path fill="none" stroke="#2d3335" stroke-width=".856" ns:knockout="Off"/><path fill="#fce94f" stroke="#c4a000" d="M2.48 25.72v-13.5l2.22 6.05 6.16-6.95-2.5 9.9 5.86 2.9-6.48 2.78 2.72 6.83-5.48-2.4-2.5 6.62V25.72z"/><path fill="url(#j)" d="M-3 .26h5.4v48H-3z" ns:knockout="Off"/><g transform="translate(-3.008 .262)"><linearGradient id="k" x1="-.131" x2="5.098" y1="24" y2="24" gradientUnits="userSpaceOnUse"><stop offset=".006" stop-color="#828B99"/><stop offset="1" stop-color="#3E5780"/></linearGradient><path fill="url(#k)" d="M5.42 47.5V0H0v48h5.42v-.5zm-1-.5c-.7 0-2.73 0-3.42 0 0-.97 0-45.03 0-46 .7 0 2.73 0 3.42 0 0 .97 0 45.03 0 46z" ns:knockout="Off"/></g><path fill="none" stroke="#2d3335" stroke-width=".856"/><path fill="url(#l)" fill-rule="evenodd" stroke="#2e3436" stroke-width="1.512" d="M21.02 47.63V33.57h6.2L24.1 13.1l14.07 20.47h6.52v14.06H21.02z" color="#000" stroke-linejoin="round" overflow="visible"/><path fill="none" stroke="#fff" stroke-width="1.008" stroke-miterlimit="6" d="M22.2 46.58V34.74h6.3l-2.75-17 12 17h5.82v11.84H22.2z" color="#000" overflow="visible"/></svg>