<svg xmlns="http://www.w3.org/2000/svg" width="48" height="48" viewBox="0 0 46.858 40.246" overflow="visible" enable-background="new 0 0 46.858 40.246" version="1"><g><g><g><radialGradient id="a" cx="15.345" cy="9.121" r="12.037" fx="15.345" fy="9.121" gradientUnits="userSpaceOnUse"><stop offset="0" stop-color="#FBC670"/><stop offset=".449" stop-color="#FAAF3E"/><stop offset=".714" stop-color="#FA8C27"/></radialGradient><path fill="url(#a)" d="M12.34 16.26c5.6 1.76 12.8.53 16.04-2.74 1.27-1.28 1.8-2.73 1.55-4.18l-.5.08c.23 1.3-.26 2.6-1.4 3.75-3.12 3.15-10.1 4.32-15.54 2.6-4.1-1.26-6.3-3.88-5.5-6.5l-.48-.13c-.88 2.9 1.46 5.75 5.82 7.12z"/></g><g><radialGradient id="b" cx="15.346" cy="9.122" r="12.037" fx="15.346" fy="9.122" gradientUnits="userSpaceOnUse"><stop offset="0" stop-color="#FBC670"/><stop offset=".449" stop-color="#FAAF3E"/><stop offset=".714" stop-color="#FA8C27"/></radialGradient><path fill="url(#b)" d="M10.78 2.9C9.52 4.1 8.9 5.77 8.96 7.7c.1 2.94 1.86 6.15 4.72 8.58 4.86 4.16 11.48 4.93 14.75 1.74.52-.5.94-1.1 1.24-1.75l-.46-.2c-.26.6-.64 1.13-1.12 1.6-3.1 3-9.4 2.22-14.08-1.77-2.75-2.34-4.45-5.42-4.54-8.23-.06-1.77.52-3.3 1.67-4.42l1.02-.8-.27-.42-1.1.86z"/></g><g><radialGradient id="c" cx="15.345" cy="9.122" r="12.037" fx="15.345" fy="9.122" gradientUnits="userSpaceOnUse"><stop offset="0" stop-color="#FBC670"/><stop offset=".449" stop-color="#FAAF3E"/><stop offset=".714" stop-color="#FA8C27"/></radialGradient><path fill="url(#c)" d="M14.5 2.44c-2.94 3.69-2.7 10.87.55 16.03 2.47 3.94 6.02 5.7 9.03 4.48l-.18-.46c-2.74 1.1-6.13-.63-8.43-4.3-3.13-5-3.4-11.92-.58-15.45 1.03-1.3 2.38-2 3.9-2v-.5c-1.67 0-3.16.76-4.3 2.2z"/></g><g><radialGradient id="d" cx="15.346" cy="9.121" r="12.037" fx="15.346" fy="9.121" gradientUnits="userSpaceOnUse"><stop offset="0" stop-color="#FBC670"/><stop offset=".449" stop-color="#FAAF3E"/><stop offset=".714" stop-color="#FA8C27"/></radialGradient><path fill="url(#d)" d="M17.52.27l.03.5c2.5-.1 5.7 1.36 8.2 3.72 2.52 2.4 4.15 5.74 4.06 8.3h.5c.1-2.68-1.6-6.16-4.2-8.67C23.5 1.68 20.14.16 17.5.27z"/></g><g><circle cx="18.016" cy="12.303" r="2.761" fill="none" stroke="#152a4c" stroke-width="1.8"/><radialGradient id="e" cx="98.371" cy="115.296" r="3.879" fx="98.371" fy="115.296" gradientTransform="matrix(0 -1 1 0 -97.915 109.665)" gradientUnits="userSpaceOnUse"><stop offset="0" stop-color="#fff"/><stop offset=".09" stop-color="#DBE8F2"/><stop offset=".248" stop-color="#A2C3DE"/><stop offset=".395" stop-color="#75A6CD"/><stop offset=".525" stop-color="#5591C2"/><stop offset=".634" stop-color="#4185BB"/><stop offset=".708" stop-color="#3A80B8"/><stop offset="1" stop-color="#244A87"/></radialGradient><circle cx="18.016" cy="12.303" r="2.761" fill="url(#e)"/><g><radialGradient id="f" cx="-52.656" cy="114.326" r="6.838" fx="-52.656" fy="114.326" gradientTransform="matrix(0 1 1 0 -97.915 62.653)" gradientUnits="userSpaceOnUse"><stop offset="0" stop-color="#fff"/><stop offset=".685" stop-color="#2E659E"/><stop offset="1" stop-color="#1D3E63"/></radialGradient><path fill="url(#f)" d="M15.25 12.3c0 .74.3 1.43.8 1.95.53.53 1.22.8 1.97.8.73 0 1.43-.27 1.95-.8.52-.52.8-1.2.8-1.95 0-1.52-1.23-2.76-2.75-2.76-1.53 0-2.77 1.24-2.77 2.76zm5.1 0c-.02.62-.26 1.2-.7 1.64-.43.44-1.02.68-1.63.68-.63 0-1.2-.24-1.65-.68-.44-.44-.68-1.02-.68-1.64 0-1.28 1.03-2.32 2.3-2.32 1.3 0 2.34 1.04 2.34 2.32z"/></g></g><g><radialGradient id="g" cx="15.346" cy="9.121" r="12.037" fx="15.346" fy="9.121" gradientUnits="userSpaceOnUse"><stop offset="0" stop-color="#FBC670"/><stop offset=".449" stop-color="#FAAF3E"/><stop offset=".714" stop-color="#FA8C27"/></radialGradient><path fill="url(#g)" d="M20.33 8.67l.38.32c3.3-3.8 4.96-5.27 5.27-5.33l.2-.42c-.2-.17-.66-.55-5.84 5.42z"/></g><g opacity=".8"><radialGradient id="h" cx="15.345" cy="9.121" r="12.037" fx="15.345" fy="9.121" gradientUnits="userSpaceOnUse"><stop offset="0" stop-color="#FBC670"/><stop offset=".449" stop-color="#FAAF3E"/><stop offset=".714" stop-color="#FA8C27"/></radialGradient><path fill="url(#h)" d="M17.62 11.88c-2.44 2.97-7 8.85-6.92 9.85l.5-.05c0-.5 2.36-4.06 6.8-9.48L20.7 9l-.37-.33-2.7 3.2z" opacity=".75"/></g><g><radialGradient id="i" cx="15.345" cy="9.121" r="12.038" fx="15.345" fy="9.121" gradientUnits="userSpaceOnUse"><stop offset="0" stop-color="#FBC670"/><stop offset=".449" stop-color="#FAAF3E"/><stop offset=".714" stop-color="#FA8C27"/></radialGradient><path fill="url(#i)" d="M16.5 7.2l.45.2c2.1-4.16 4.6-6.3 6.38-5.46l.2-.45c-2.07-1-4.77 1.2-7.03 5.7z"/></g><g opacity=".8"><radialGradient id="j" cx="15.346" cy="9.122" r="12.036" fx="15.346" fy="9.122" gradientUnits="userSpaceOnUse"><stop offset="0" stop-color="#FBC670"/><stop offset=".449" stop-color="#FAAF3E"/><stop offset=".714" stop-color="#FA8C27"/></radialGradient><path fill="url(#j)" d="M16.42 7.36c-2.32 4.7-3.4 12.38-1.4 15.6.62.95 1.4 1.46 2.3 1.5l.03-.5c-.74-.03-1.38-.46-1.9-1.28-1.92-3.08-.84-10.5 1.4-15.1l.1-.17-.45-.2-.08.16z" opacity=".75"/></g><g opacity=".8"><radialGradient id="k" cx="15.345" cy="9.121" r="12.037" fx="15.345" fy="9.121" gradientUnits="userSpaceOnUse"><stop offset="0" stop-color="#FBC670"/><stop offset=".449" stop-color="#FAAF3E"/><stop offset=".714" stop-color="#FA8C27"/></radialGradient><path fill="url(#k)" d="M9.58 17.3c-1.16.04-1.94-.2-2.2-.67l-.43.23c.25.47.9 1 2.65.93 3.36-.15 9-2.47 13.44-5.53l-.3-.4c-4.34 3-9.88 5.3-13.16 5.42z" opacity=".75"/></g><g><radialGradient id="l" cx="15.345" cy="9.121" r="12.037" fx="15.345" fy="9.121" gradientUnits="userSpaceOnUse"><stop offset="0" stop-color="#FBC670"/><stop offset=".449" stop-color="#FAAF3E"/><stop offset=".714" stop-color="#FA8C27"/></radialGradient><path fill="url(#l)" d="M27.73 5.72c.6.92-.76 2.88-3.44 5l-1.55 1.14.28.4 1.57-1.14c2.98-2.37 4.3-4.5 3.55-5.67l-.42.27z"/></g><g><radialGradient id="m" cx="15.347" cy="9.122" r="12.036" fx="15.347" fy="9.122" gradientUnits="userSpaceOnUse"><stop offset="0" stop-color="#FBC670"/><stop offset=".449" stop-color="#FAAF3E"/><stop offset=".714" stop-color="#FA8C27"/></radialGradient><path fill="url(#m)" d="M14.5 2.06c-2.12.05-3.95.78-5.17 2.06l.36.34c1.12-1.18 2.83-1.85 4.8-1.9 3.15-.07 6.53 1.4 9.27 4 2.7 2.58 4.35 5.98 4.42 9.1.04 1.95-.55 3.62-1.7 4.84l.35.34c1.25-1.3 1.9-3.1 1.84-5.2-.08-3.24-1.8-6.77-4.58-9.44-2.84-2.7-6.35-4.2-9.63-4.14z"/></g><circle cx="18.201" cy="12.364" r="11.864" fill="none" stroke="#d87820"/><g><radialGradient id="n" cx="15.345" cy="9.121" r="12.037" fx="15.345" fy="9.121" gradientUnits="userSpaceOnUse"><stop offset="0" stop-color="#FBC670"/><stop offset=".449" stop-color="#FAAF3E"/><stop offset=".714" stop-color="#FA8C27"/></radialGradient><path fill="url(#n)" d="M13.53 5.64c-2.16.05-4.06.83-5.36 2.2-1.33 1.38-2.04 3.3-2 5.42.07 2.8 1.42 5.67 3.7 7.85 2.3 2.2 5.2 3.44 7.97 3.37 2.13-.05 3.98-.84 5.36-2.3 1.34-1.38 2.02-3.25 1.97-5.38-.07-2.8-1.43-5.75-3.66-7.87-2.24-2.16-5.15-3.36-7.97-3.3zm-3.3 15.1c-2.2-2.08-3.5-4.8-3.55-7.5-.05-2 .6-3.75 1.85-5.06 1.2-1.27 3-2 5.02-2.04 2.68-.06 5.46 1.08 7.62 3.15 2.13 2.02 3.43 4.83 3.5 7.5.04 2-.6 3.74-1.83 5.04-1.3 1.35-3.02 2.1-5 2.13-2.64.06-5.4-1.1-7.62-3.22z"/></g><g><radialGradient id="o" cx="15.346" cy="9.121" r="12.037" fx="15.346" fy="9.121" gradientUnits="userSpaceOnUse"><stop offset="0" stop-color="#FBC670"/><stop offset=".449" stop-color="#FAAF3E"/><stop offset=".714" stop-color="#FA8C27"/></radialGradient><path fill="url(#o)" d="M13.9 13.4c-.76 0-1.45.3-1.94.82-.5.5-.75 1.2-.73 1.96.02.88.42 1.75 1.1 2.4 1.3 1.24 3.27 1.32 4.37.16 1.1-1.16.94-3.1-.37-4.36-.67-.65-1.57-1-2.44-.98zm-1.23 4.82c-.58-.56-.92-1.3-.94-2.05 0-.62.2-1.2.6-1.6.4-.42.95-.66 1.57-.67.74-.02 1.5.3 2.1.84.6.6.93 1.38.93 2.1 0 .6-.2 1.14-.6 1.55-.9.95-2.55.87-3.66-.18z"/></g><g><radialGradient id="p" cx="15.345" cy="9.121" r="12.038" fx="15.345" fy="9.121" gradientUnits="userSpaceOnUse"><stop offset="0" stop-color="#FBC670"/><stop offset=".449" stop-color="#FAAF3E"/><stop offset=".714" stop-color="#FA8C27"/></radialGradient><path fill="url(#p)" d="M9.74 11.42c-2.23 2.34-1.83 6.35.88 8.94 2.72 2.6 6.74 2.8 8.97.47 1.2-1.27 1.7-3.1 1.32-4.98l-.5.1c.35 1.73-.1 3.4-1.2 4.54-2.03 2.12-5.73 1.9-8.25-.5-2.52-2.4-2.9-6.1-.87-8.23.96-1 2.3-1.52 3.8-1.47l.03-.5c-1.65-.06-3.13.52-4.2 1.62z"/></g><g opacity=".6"><radialGradient id="q" cx="15.346" cy="9.121" r="12.037" fx="15.346" fy="9.121" gradientUnits="userSpaceOnUse"><stop offset="0" stop-color="#FBC670"/><stop offset=".449" stop-color="#FAAF3E"/><stop offset=".714" stop-color="#FA8C27"/></radialGradient><path fill="url(#q)" d="M13.9 10.3c1.62.05 3.2.75 4.47 1.95 1.06 1.02 1.8 2.33 2.06 3.7l.5-.1c-.3-1.47-1.08-2.87-2.22-3.96-1.34-1.3-3.04-2.04-4.77-2.1l-.02.5z"/></g></g><g><circle cx="12.367" cy="22.734" r="11.864" fill="#fff"/><g><circle cx="12.34" cy="22.843" r="2.761" fill="none" stroke="#152a4c" stroke-width="1.8"/><radialGradient id="r" cx="87.831" cy="109.621" r="3.879" fx="87.831" fy="109.621" gradientTransform="matrix(0 -1 1 0 -97.915 109.665)" gradientUnits="userSpaceOnUse"><stop offset="0" stop-color="#fff"/><stop offset=".09" stop-color="#DBE8F2"/><stop offset=".248" stop-color="#A2C3DE"/><stop offset=".395" stop-color="#75A6CD"/><stop offset=".525" stop-color="#5591C2"/><stop offset=".634" stop-color="#4185BB"/><stop offset=".708" stop-color="#3A80B8"/><stop offset="1" stop-color="#244A87"/></radialGradient><circle cx="12.34" cy="22.843" r="2.761" fill="url(#r)"/><g><radialGradient id="s" cx="-42.116" cy="108.65" r="6.838" fx="-42.116" fy="108.65" gradientTransform="matrix(0 1 1 0 -97.915 62.653)" gradientUnits="userSpaceOnUse"><stop offset="0" stop-color="#fff"/><stop offset=".685" stop-color="#2E659E"/><stop offset="1" stop-color="#1D3E63"/></radialGradient><path fill="url(#s)" d="M9.58 22.84c0 .74.28 1.43.8 1.95.53.52 1.22.8 1.96.8.73 0 1.43-.28 1.95-.8.52-.53.8-1.22.8-1.96 0-1.52-1.24-2.76-2.76-2.76-1.52 0-2.76 1.24-2.76 2.76zm5.08 0c0 .62-.24 1.2-.68 1.64-.44.44-1.02.68-1.64.68-.62 0-1.2-.24-1.64-.68-.44-.44-.68-1.02-.68-1.64 0-1.28 1.04-2.32 2.32-2.32 1.28 0 2.32 1.04 2.32 2.32z"/></g></g><g><radialGradient id="t" cx="8.788" cy="19.294" r="15.113" fx="8.788" fy="19.294" gradientUnits="userSpaceOnUse"><stop offset="0" stop-color="#FBC670"/><stop offset=".449" stop-color="#FAAF3E"/><stop offset=".714" stop-color="#F17912"/></radialGradient><path fill="url(#t)" d="M14.12 11.25c1.28.3 2.27 1.27 2.88 2.78 1.66 4.1-.03 10.98-3.76 15.3-2.8 3.24-6.06 4.23-8.14 2.47l-.32.38c2.3 1.95 5.86.94 8.84-2.52 3.84-4.45 5.57-11.55 3.85-15.8-.68-1.68-1.8-2.75-3.23-3.1l-.12.5z"/></g><g><radialGradient id="u" cx="8.789" cy="19.294" r="15.112" fx="8.789" fy="19.294" gradientUnits="userSpaceOnUse"><stop offset="0" stop-color="#FBC670"/><stop offset=".449" stop-color="#FAAF3E"/><stop offset=".714" stop-color="#F17912"/></radialGradient><path fill="url(#u)" d="M20.13 14.1c.44.48.78 1.04 1.02 1.66 1.55 4.03-1.68 9.52-7.2 12.23-3.24 1.6-6.74 1.93-9.35.9-1.65-.65-2.83-1.78-3.4-3.28l-.33-1.26-.5.08.36 1.35c.63 1.63 1.9 2.86 3.7 3.56 2.73 1.08 6.38.73 9.74-.92 5.74-2.82 9.08-8.6 7.44-12.86-.25-.68-.62-1.3-1.1-1.83l-.37.34z"/></g><g><radialGradient id="v" cx="8.787" cy="19.295" r="15.113" fx="8.787" fy="19.295" gradientUnits="userSpaceOnUse"><stop offset="0" stop-color="#FBC670"/><stop offset=".449" stop-color="#FAAF3E"/><stop offset=".714" stop-color="#F17912"/></radialGradient><path fill="url(#v)" d="M1.8 22.2c2.2 4.16 8.9 6.78 14.92 5.85 4.6-.7 7.63-3.27 7.7-6.52h-.5c-.07 2.94-3 5.36-7.27 6.02-5.83.9-12.3-1.6-14.42-5.6-.78-1.46-.88-2.97-.27-4.37l-.46-.2c-.67 1.54-.57 3.2.3 4.82z"/></g><g><radialGradient id="w" cx="8.788" cy="19.294" r="15.113" fx="8.788" fy="19.294" gradientUnits="userSpaceOnUse"><stop offset="0" stop-color="#FBC670"/><stop offset=".449" stop-color="#FAAF3E"/><stop offset=".714" stop-color="#F17912"/></radialGradient><path fill="url(#w)" d="M7.93 12.23c-3.26 1.4-6 3.87-6.93 6.33l.46.18c.9-2.34 3.52-4.7 6.67-6.05 3.2-1.37 6.92-1.55 9.23-.45l.2-.46c-2.4-1.16-6.3-.98-9.63.43z"/></g><g><radialGradient id="x" cx="8.787" cy="19.294" r="15.113" fx="8.787" fy="19.294" gradientUnits="userSpaceOnUse"><stop offset="0" stop-color="#FBC670"/><stop offset=".449" stop-color="#FAAF3E"/><stop offset=".714" stop-color="#F17912"/></radialGradient><path fill="url(#x)" d="M9.05 14.86c-3.6 1.53-6.38 4.15-7.6 7.2C.64 24 .58 26 1.27 27.6l.46-.18c-.64-1.5-.58-3.34.16-5.18 1.18-2.92 3.86-5.44 7.35-6.92 3.43-1.46 7.2-1.63 10.1-.46 1.8.74 3.12 1.94 3.77 3.5l.46-.2c-.7-1.68-2.1-2.98-4.04-3.76-3-1.22-6.93-1.05-10.48.46z"/></g><g><radialGradient id="y" cx="8.787" cy="19.294" r="15.113" fx="8.787" fy="19.294" gradientUnits="userSpaceOnUse"><stop offset="0" stop-color="#FBC670"/><stop offset=".449" stop-color="#FAAF3E"/><stop offset=".714" stop-color="#F17912"/></radialGradient><path fill="url(#y)" d="M10.53 18.33c-2.88 1.22-5.13 3.4-6.2 6.02-.8 2-.84 4.07-.1 5.8.75 1.77 2.24 3.18 4.2 3.98 2.6 1.05 5.77.95 8.68-.3 5.36-2.26 8.1-7.44 6.27-11.8-.76-1.77-2.2-3.14-4.18-3.94-2.6-1.06-5.84-.97-8.67.23zM8.6 33.66c-1.85-.75-3.2-2.03-3.9-3.7-.7-1.62-.65-3.54.1-5.42 1-2.5 3.17-4.58 5.92-5.75 2.7-1.16 5.8-1.25 8.28-.24 1.86.75 3.2 2.02 3.9 3.67 1.74 4.1-.9 9-6 11.15-2.78 1.2-5.8 1.3-8.3.28z"/></g><g><radialGradient id="z" cx="8.788" cy="19.294" r="15.113" fx="8.788" fy="19.294" gradientUnits="userSpaceOnUse"><stop offset="0" stop-color="#FBC670"/><stop offset=".449" stop-color="#FAAF3E"/><stop offset=".714" stop-color="#F17912"/></radialGradient><path fill="url(#z)" d="M10.34 19.25c-2-4.14-2.96-6.72-2.87-7.1l-.3-.35c-.67.34 1.07 4.3 2.73 7.7l.44-.25z"/><radialGradient id="A" cx="8.788" cy="19.295" r="15.112" fx="8.788" fy="19.295" gradientUnits="userSpaceOnUse"><stop offset="0" stop-color="#FBC670"/><stop offset=".449" stop-color="#FAAF3E"/><stop offset=".714" stop-color="#F17912"/></radialGradient><path fill="url(#A)" d="M13.54 26.54c1.74 3.16 3.77 6.57 4.45 6.8l.15-.5c-.36-.14-1.9-2.42-4.14-6.46l-.46.16z"/><radialGradient id="B" cx="8.788" cy="19.295" r="15.112" fx="8.788" fy="19.295" gradientUnits="userSpaceOnUse"><stop offset="0" stop-color="#FBC670"/><stop offset=".449" stop-color="#FAAF3E"/><stop offset=".714" stop-color="#F17912"/></radialGradient><path fill="url(#B)" d="M9.9 19.5c.66 1.37 1.3 2.65 1.8 3.58.5.97 1.14 2.2 1.84 3.46l.48-.16c-.6-1.06-1.22-2.24-1.88-3.53-.67-1.3-1.27-2.5-1.8-3.6l-.44.25z" opacity=".6"/></g><g><radialGradient id="C" cx="8.788" cy="19.294" r="15.112" fx="8.788" fy="19.294" gradientUnits="userSpaceOnUse"><stop offset="0" stop-color="#FBC670"/><stop offset=".449" stop-color="#FAAF3E"/><stop offset=".714" stop-color="#F17912"/></radialGradient><path fill="url(#C)" d="M7.45 22.06c-3.1-3.63-4.13-6.84-2.62-8.16l-.33-.38c-1.76 1.55-.78 4.95 2.57 8.87l.38-.34z"/><radialGradient id="D" cx="8.788" cy="19.294" r="15.113" fx="8.788" fy="19.294" gradientUnits="userSpaceOnUse"><stop offset="0" stop-color="#FBC670"/><stop offset=".449" stop-color="#FAAF3E"/><stop offset=".714" stop-color="#F17912"/></radialGradient><path fill="url(#D)" d="M7.07 22.4c1.45 1.7 3.5 3.4 5.65 4.77l.32-.37c-2.12-1.34-4.15-3.04-5.6-4.74l-.37.33z" opacity=".6"/><radialGradient id="E" cx="8.788" cy="19.293" r="15.113" fx="8.788" fy="19.293" gradientUnits="userSpaceOnUse"><stop offset="0" stop-color="#FBC670"/><stop offset=".449" stop-color="#FAAF3E"/><stop offset=".714" stop-color="#F17912"/></radialGradient><path fill="url(#E)" d="M12.72 27.17c2.88 1.82 5.96 3 8.1 2.67 1.14-.18 1.9-.68 2.32-1.5l-.45-.23c-.34.68-1 1.1-1.95 1.24-2.03.32-4.95-.8-7.7-2.54l-.33.37z"/></g><g><radialGradient id="F" cx="8.788" cy="19.294" r="15.113" fx="8.788" fy="19.294" gradientUnits="userSpaceOnUse"><stop offset="0" stop-color="#FBC670"/><stop offset=".449" stop-color="#FAAF3E"/><stop offset=".714" stop-color="#F17912"/></radialGradient><path fill="url(#F)" d="M14.27 18.63c-.14-.78-.32-1.54-.5-2.27-1-3.67-2.42-5.73-3.8-5.5l.07.5c1.08-.2 2.35 1.83 3.24 5.14.2.7.36 1.46.5 2.23l.5-.1z"/><radialGradient id="G" cx="8.788" cy="19.294" r="15.113" fx="8.788" fy="19.294" gradientUnits="userSpaceOnUse"><stop offset="0" stop-color="#FBC670"/><stop offset=".449" stop-color="#FAAF3E"/><stop offset=".714" stop-color="#F17912"/></radialGradient><path fill="url(#G)" d="M14.42 26.27c-.04 2.52-.35 4.8-.95 6.33-.4 1.1-.94 1.7-1.47 1.75l.04.5c.76-.06 1.4-.76 1.9-2.07.6-1.6.94-3.94.97-6.53l-.48.02z"/><radialGradient id="H" cx="8.788" cy="19.294" r="15.113" fx="8.788" fy="19.294" gradientUnits="userSpaceOnUse"><stop offset="0" stop-color="#FBC670"/><stop offset=".449" stop-color="#FAAF3E"/><stop offset=".714" stop-color="#F17912"/></radialGradient><path fill="url(#H)" d="M13.78 18.73c.46 2.45.68 5.1.64 7.54l.5-.02c.03-2.46-.18-5.14-.65-7.62l-.5.1z" opacity=".6"/></g><g opacity=".6"><radialGradient id="I" cx="8.788" cy="19.295" r="15.112" fx="8.788" fy="19.295" gradientUnits="userSpaceOnUse"><stop offset="0" stop-color="#FBC670"/><stop offset=".449" stop-color="#FAAF3E"/><stop offset=".714" stop-color="#F17912"/></radialGradient><path fill="url(#I)" d="M16.5 22.1c1.68.36 3.08 1.38 3.73 2.9.5 1.17.5 2.5-.03 3.78-.63 1.57-1.98 2.9-3.7 3.62-1.7.72-3.58.77-5.16.13-1.27-.5-2.23-1.43-2.73-2.6-.64-1.53-.4-3.25.52-4.7l-.4-.32c-1 1.6-1.3 3.52-.57 5.23.55 1.3 1.6 2.3 3 2.87 1.7.7 3.73.64 5.56-.14 1.84-.78 3.28-2.2 3.97-3.9.56-1.4.57-2.86.02-4.15-.72-1.68-2.27-2.8-4.1-3.2l-.1.5zm.1-.5c-1.4-.3-2.97-.16-4.46.48-1.48.63-2.65 1.64-3.4 2.83l.38.33c.7-1.13 1.8-2.1 3.2-2.7 1.4-.6 2.88-.7 4.18-.43l.1-.5z"/></g><g><radialGradient id="J" cx="8.356" cy="18.441" r="16.166" fx="8.356" fy="18.441" gradientUnits="userSpaceOnUse"><stop offset="0" stop-color="#FBC670"/><stop offset=".449" stop-color="#FAAF3E"/><stop offset=".714" stop-color="#F17912"/></radialGradient><path fill="url(#J)" d="M15.45 25.5c.17.04.33.1.48.16.57.23 1 .64 1.23 1.18.23.53.23 1.14 0 1.7-.28.7-.87 1.28-1.6 1.6-.75.3-1.57.32-2.27.04-.58-.23-1.02-.65-1.24-1.18-.27-.63-.2-1.33.12-1.94l-.44-.24c-.4.74-.47 1.6-.14 2.38.28.65.8 1.16 1.5 1.45.82.33 1.78.3 2.64-.06.87-.38 1.55-1.05 1.88-1.87.14-.35.2-.7.2-1.07 0-.35-.06-.7-.2-1.02-.27-.65-.8-1.17-1.5-1.45-.17-.07-.34-.13-.5-.16l-.17.47zm-3.27 1.55c.3-.56.82-1.05 1.5-1.34.57-.24 1.2-.3 1.77-.2l.16-.47c-.68-.15-1.43-.07-2.12.22-.8.33-1.4.9-1.74 1.57l.44.23zm5.45-.4z" opacity=".75"/></g></g><circle cx="12.367" cy="22.734" r="11.864" fill="none" stroke="#cb5f11"/><g><circle cx="34.494" cy="27.881" r="11.864" fill="#fff"/><g><radialGradient id="K" cx="48.472" cy="-9.966" r="13.752" fx="48.472" fy="-9.966" gradientTransform="matrix(.996 .087 -.087 .996 -17.804 27.412)" gradientUnits="userSpaceOnUse"><stop offset="0" stop-color="#FBC670"/><stop offset=".449" stop-color="#FAAF3E"/><stop offset=".714" stop-color="#F17912"/></radialGradient><path fill="url(#K)" d="M33.87 17.83c-5.5 2.12-10.35 7.57-10.83 12.13-.1.84-.02 1.6.2 2.3l.46-.14c-.18-.63-.24-1.33-.16-2.1.46-4.4 5.18-9.66 10.5-11.73 2.6-1.02 5.02-1.1 6.63-.26l.24-.44c-1.76-.93-4.26-.85-7.03.23z"/></g><g><radialGradient id="L" cx="48.471" cy="-9.966" r="13.754" fx="48.471" fy="-9.966" gradientTransform="matrix(.996 .087 -.087 .996 -17.804 27.412)" gradientUnits="userSpaceOnUse"><stop offset="0" stop-color="#FBC670"/><stop offset=".449" stop-color="#FAAF3E"/><stop offset=".714" stop-color="#F17912"/></radialGradient><path fill="url(#L)" d="M35.35 17.25c-5.7-.17-10.84 2.57-12.25 6.52l.47.17c1.32-3.7 6.38-6.35 11.77-6.2 4.35.15 8.1 2.08 9.54 4.93l.44-.22c-1.52-3-5.43-5.05-9.97-5.2z"/></g><g><radialGradient id="M" cx="48.473" cy="-9.966" r="13.752" fx="48.473" fy="-9.966" gradientTransform="matrix(.996 .087 -.087 .996 -17.804 27.412)" gradientUnits="userSpaceOnUse"><stop offset="0" stop-color="#FBC670"/><stop offset=".449" stop-color="#FAAF3E"/><stop offset=".714" stop-color="#F17912"/></radialGradient><path fill="url(#M)" d="M27.1 18.3l.32.37c1.88-1.63 5.08-1.93 8.36-.8 5.57 1.95 10.1 7.13 10.1 11.55l-.14 1.38.48.12.17-1.5c-.02-4.7-4.6-9.97-10.46-12-3.44-1.2-6.83-.87-8.85.88z"/></g><g><radialGradient id="N" cx="48.473" cy="-9.966" r="13.752" fx="48.473" fy="-9.966" gradientTransform="matrix(.996 .087 -.087 .996 -17.804 27.412)" gradientUnits="userSpaceOnUse"><stop offset="0" stop-color="#FBC670"/><stop offset=".449" stop-color="#FAAF3E"/><stop offset=".714" stop-color="#F17912"/></radialGradient><path fill="url(#N)" d="M31.9 16.05l.1.5c.46-.12 1-.07 1.6.14 3.32 1.15 7.07 6.88 8.36 12.77.85 3.9.56 6.88-.8 7.94l.3.4c1.54-1.2 1.9-4.27 1-8.44-1.33-6.04-5.23-11.94-8.7-13.14-.7-.24-1.32-.3-1.87-.17z"/></g><g><radialGradient id="O" cx="48.473" cy="-9.967" r="13.752" fx="48.473" fy="-9.967" gradientTransform="matrix(.996 .087 -.087 .996 -17.804 27.412)" gradientUnits="userSpaceOnUse"><stop offset="0" stop-color="#FBC670"/><stop offset=".449" stop-color="#FAAF3E"/><stop offset=".714" stop-color="#F17912"/></radialGradient><path fill="url(#O)" d="M35.4 17.22c-2.9 2.52-6.27 9.07-7.54 14.6-.77 3.38-.6 5.75.44 6.48l.3-.4c-.68-.48-1.1-2.3-.25-5.97 1.24-5.44 4.55-11.87 7.38-14.33.8-.7 1.44-1 1.93-.9l.1-.48c-.65-.15-1.4.17-2.36 1z"/></g><g><radialGradient id="P" cx="48.472" cy="-9.966" r="13.754" fx="48.472" fy="-9.966" gradientTransform="matrix(.996 .087 -.087 .996 -17.804 27.412)" gradientUnits="userSpaceOnUse"><stop offset="0" stop-color="#FBC670"/><stop offset=".449" stop-color="#FAAF3E"/><stop offset=".714" stop-color="#F17912"/></radialGradient><path fill="url(#P)" d="M31.25 17.82c-.1 1.22 1.63 2.33 3.95 2.54 2.32.2 4.22-.6 4.33-1.82.1-1.22-1.63-2.34-3.95-2.54-2.32-.2-4.22.6-4.33 1.82zm.5.04c.08-.9 1.8-1.54 3.78-1.36 1.98.17 3.58 1.1 3.5 2-.08.9-1.82 1.53-3.8 1.36-1.96-.18-3.56-1.1-3.48-2z"/></g><g><radialGradient id="Q" cx="48.473" cy="-9.968" r="13.752" fx="48.473" fy="-9.968" gradientTransform="matrix(.996 .087 -.087 .996 -17.804 27.412)" gradientUnits="userSpaceOnUse"><stop offset="0" stop-color="#FBC670"/><stop offset=".449" stop-color="#FAAF3E"/><stop offset=".714" stop-color="#F17912"/></radialGradient><path fill="url(#Q)" d="M30.26 16.56c-1.56.65-2.48 1.64-2.58 2.78-.2 2.3 3.02 4.47 7.18 4.83 2 .18 3.9-.08 5.38-.72 1.53-.65 2.43-1.65 2.53-2.8.2-2.24-3.1-4.43-7.18-4.8-1.96-.16-3.85.1-5.34.7zm-2.08 2.82c.08-.94.9-1.78 2.27-2.36 1.4-.58 3.26-.82 5.1-.66 3.75.33 6.9 2.3 6.73 4.25-.1.97-.88 1.8-2.23 2.4-1.4.6-3.23.84-5.14.68-3.88-.34-6.9-2.27-6.72-4.3z"/></g><g><radialGradient id="R" cx="48.472" cy="-9.967" r="13.753" fx="48.472" fy="-9.967" gradientTransform="matrix(.996 .087 -.087 .996 -17.804 27.412)" gradientUnits="userSpaceOnUse"><stop offset="0" stop-color="#FBC670"/><stop offset=".449" stop-color="#FAAF3E"/><stop offset=".714" stop-color="#F17912"/></radialGradient><path fill="url(#R)" d="M23.05 24.45c-.37 4.23 4.57 8.12 11 8.68l1.6.07v-.5l-1.56-.07c-6.17-.54-10.9-4.2-10.55-8.13.04-.46.16-.92.35-1.37l-.46-.2c-.2.5-.34 1-.4 1.52z"/></g><g><radialGradient id="S" cx="48.471" cy="-9.966" r="13.753" fx="48.471" fy="-9.966" gradientTransform="matrix(.996 .087 -.087 .996 -17.804 27.412)" gradientUnits="userSpaceOnUse"><stop offset="0" stop-color="#FBC670"/><stop offset=".449" stop-color="#FAAF3E"/><stop offset=".714" stop-color="#F17912"/></radialGradient><path fill="url(#S)" d="M45.66 24.67c.17.6.24 1.2.2 1.77-.33 3.63-4.62 6.26-10.2 6.26v.5c5.85 0 10.34-2.82 10.68-6.7.06-.66 0-1.32-.2-1.97l-.48.14z"/></g><g><radialGradient id="T" cx="48.473" cy="-9.968" r="13.752" fx="48.473" fy="-9.968" gradientTransform="matrix(.996 .087 -.087 .996 -17.804 27.412)" gradientUnits="userSpaceOnUse"><stop offset="0" stop-color="#FBC670"/><stop offset=".449" stop-color="#FAAF3E"/><stop offset=".714" stop-color="#F17912"/></radialGradient><path fill="url(#T)" d="M46.06 29.05c-.4 4.6-5.78 7.73-12.25 7.17-6.4-.56-11.28-4.68-10.9-9.2l-.5-.03c-.4 4.77 4.7 9.13 11.37 9.72 6.75.6 12.36-2.76 12.8-7.62l-.5-.05z"/></g><g><radialGradient id="U" cx="48.473" cy="-9.967" r="13.752" fx="48.473" fy="-9.967" gradientTransform="matrix(.996 .087 -.087 .996 -17.804 27.412)" gradientUnits="userSpaceOnUse"><stop offset="0" stop-color="#FBC670"/><stop offset=".449" stop-color="#FAAF3E"/><stop offset=".714" stop-color="#F17912"/></radialGradient><path fill="url(#U)" d="M23.2 32.27c1.4 3.6 5.54 6.28 10.34 6.7 4.52.4 8.7-1.18 10.86-4.1l-.4-.3c-2.07 2.78-6.06 4.28-10.42 3.9-4.6-.4-8.6-2.97-9.9-6.38l-.48.17z"/></g><g><circle cx="34.876" cy="28.444" r="2.761" fill="none" stroke="#152a4c" stroke-width="1.8"/><radialGradient id="V" cx="82.23" cy="132.158" r="3.879" fx="82.23" fy="132.158" gradientTransform="matrix(0 -1 1 0 -97.915 109.665)" gradientUnits="userSpaceOnUse"><stop offset="0" stop-color="#fff"/><stop offset=".09" stop-color="#DBE8F2"/><stop offset=".248" stop-color="#A2C3DE"/><stop offset=".395" stop-color="#75A6CD"/><stop offset=".525" stop-color="#5591C2"/><stop offset=".634" stop-color="#4185BB"/><stop offset=".708" stop-color="#3A80B8"/><stop offset="1" stop-color="#244A87"/></radialGradient><circle cx="34.876" cy="28.444" r="2.761" fill="url(#V)"/><g><radialGradient id="W" cx="-36.515" cy="131.187" r="6.838" fx="-36.515" fy="131.187" gradientTransform="matrix(0 1 1 0 -97.915 62.653)" gradientUnits="userSpaceOnUse"><stop offset="0" stop-color="#fff"/><stop offset=".685" stop-color="#2E659E"/><stop offset="1" stop-color="#1D3E63"/></radialGradient><path fill="url(#W)" d="M32.1 28.44c0 .74.3 1.43.82 1.95s1.22.8 1.96.8c.73 0 1.43-.28 1.95-.8.52-.53.8-1.22.8-1.96 0-1.52-1.23-2.76-2.75-2.76-1.53 0-2.77 1.24-2.77 2.76zm5.1 0c0 .62-.24 1.2-.68 1.64-.44.44-1.03.68-1.65.68-.62 0-1.2-.24-1.64-.68-.44-.43-.68-1.02-.68-1.64 0-1.28 1.05-2.32 2.32-2.32 1.28 0 2.33 1.04 2.33 2.32z"/></g></g><g><radialGradient id="X" cx="48.469" cy="-9.967" r="13.753" fx="48.469" fy="-9.967" gradientTransform="matrix(.996 .087 -.087 .996 -17.804 27.412)" gradientUnits="userSpaceOnUse"><stop offset="0" stop-color="#FBC670"/><stop offset=".449" stop-color="#FAAF3E"/><stop offset=".714" stop-color="#F17912"/></radialGradient><path fill="url(#X)" d="M35.4 32.97c-.2 4.4-.58 6.34-.77 6.55l.1.46c.27 0 .83 0 1.18-7h-.5z"/></g><g opacity=".8"><radialGradient id="Y" cx="48.471" cy="-9.967" r="13.754" fx="48.471" fy="-9.967" gradientTransform="matrix(.996 .087 -.087 .996 -17.804 27.412)" gradientUnits="userSpaceOnUse"><stop offset="0" stop-color="#FBC670"/><stop offset=".449" stop-color="#FAAF3E"/><stop offset=".714" stop-color="#F17912"/></radialGradient><path fill="url(#Y)" d="M35.56 23.98v3.9l-.15 5.1h.5l.17-5.08v-3.93h-.5z" opacity=".75"/></g><g><radialGradient id="Z" cx="48.471" cy="-9.966" r="13.755" fx="48.471" fy="-9.966" gradientTransform="matrix(.996 .087 -.087 .996 -17.804 27.412)" gradientUnits="userSpaceOnUse"><stop offset="0" stop-color="#FBC670"/><stop offset=".449" stop-color="#FAAF3E"/><stop offset=".714" stop-color="#F17912"/></radialGradient><path fill="url(#Z)" d="M35.02 15.78l-.1.46c.2.24.55 2.56.64 7.74h.5c-.14-8.2-.8-8.2-1.04-8.2z"/></g><g><radialGradient id="aa" cx="48.472" cy="-9.967" r="13.752" fx="48.472" fy="-9.967" gradientTransform="matrix(.996 .087 -.087 .996 -17.804 27.412)" gradientUnits="userSpaceOnUse"><stop offset="0" stop-color="#FBC670"/><stop offset=".449" stop-color="#FAAF3E"/><stop offset=".714" stop-color="#F17912"/></radialGradient><path fill="url(#aa)" d="M24.86 21.73c-.2 2.17 1.57 4.36 4.6 5.72l.2-.46c-2.82-1.27-4.47-3.27-4.3-5.23.07-.86.63-1.86 1.46-2.6l-.34-.37c-.93.84-1.53 1.94-1.62 2.93z"/></g><g opacity=".6"><radialGradient id="ab" cx="48.472" cy="-9.965" r="13.753" fx="48.472" fy="-9.965" gradientTransform="matrix(.996 .087 -.087 .996 -17.804 27.412)" gradientUnits="userSpaceOnUse"><stop offset="0" stop-color="#FBC670"/><stop offset=".449" stop-color="#FAAF3E"/><stop offset=".714" stop-color="#F17912"/></radialGradient><path fill="url(#ab)" d="M34.5 28.2c-1.72-.15-3.4-.56-4.83-1.2l-.2.45c1.48.66 3.2 1.1 5 1.25 2.7.24 5.28-.16 7.3-1.13l-.23-.45c-1.92.93-4.42 1.3-7.03 1.08z"/></g><g><radialGradient id="ac" cx="48.466" cy="-9.967" r="13.758" fx="48.466" fy="-9.967" gradientTransform="matrix(.996 .087 -.087 .996 -17.804 27.412)" gradientUnits="userSpaceOnUse"><stop offset="0" stop-color="#FBC670"/><stop offset=".449" stop-color="#FAAF3E"/><stop offset=".714" stop-color="#F17912"/></radialGradient><path fill="url(#ac)" d="M43.62 20.7c.74.9 1.1 1.85 1 2.76-.12 1.46-1.2 2.76-3.08 3.66l.22.45c2.03-.98 3.23-2.43 3.37-4.07.1-1.04-.3-2.1-1.13-3.12l-.38.32z"/></g><circle cx="34.494" cy="27.881" r="11.864" fill="none" stroke="#bf580f"/></g></g></svg>