<svg xmlns="http://www.w3.org/2000/svg" width="48" height="48" xmlns:xlink="http://www.w3.org/1999/xlink" viewBox="0 0 46.473 46.459" overflow="visible" enable-background="new 0 0 46.473 46.459" version="1"><defs><linearGradient id="a" x1="-19.412" x2="-26.508" y1="416.194" y2="416.194" gradientTransform="matrix(.707 .707 .707 -.707 -248.434 331.668)" gradientUnits="userSpaceOnUse"><stop offset="0" stop-color="#FAAF3E"/><stop offset="1" stop-color="#E96712"/></linearGradient><linearGradient id="g" x1="-19.412" x2="-26.508" y1="416.194" y2="416.194" xlink:href="#a" gradientUnits="userSpaceOnUse" gradientTransform="matrix(.707 .707 .707 -.707 -248.434 331.668)"/><linearGradient id="b" x1="-19.412" x2="-26.508" y1="416.194" y2="416.194" xlink:href="#a" gradientUnits="userSpaceOnUse" gradientTransform="matrix(.707 .707 .707 -.707 -248.434 331.668)"/></defs><g><path fill="#e96712" stroke="#590b08" stroke-width=".968" d="M22.4 14.22c-.3 0-.5.23-.5.5l-.33 7.66c0 .06.02.12.07.17.1.1.25.1.35 0l8.22-8.22c.1-.1.1-.26 0-.36-.05-.04-.1-.07-.18-.07-1.83-.02-7.65.32-7.65.32z" stroke-linejoin="round"/><path fill="url(#b)" d="M27.58 14.17l7.02 7.02-4.93 4.92-7.02-7.02 4.93-4.93z" transform="matrix(.937 0 0 .932 1.301 1.655)"/><path fill="none" stroke="#590b08" stroke-width=".968" d="M23.35 20.5l5.6 5.7"/><path fill="none" stroke="#590b08" stroke-width=".968" d="M28.28 15.63l5.6 5.65"/><path fill="none" stroke="#faaf3e" d="M22.58 14.96c.77-.05 4.65-.23 6.48-.3" stroke-linecap="round"/><path fill="none" stroke="#faaf3e" stroke-width=".968" d="M27.6 16.25l5.6 5.55"/></g><g><path fill="none" stroke="#152a4c" stroke-width="2" d="M36.02 26.55c5.22 0 9.45 4.23 9.45 9.45 0 5.23-4.23 9.46-9.45 9.46-5.23 0-9.47-4.23-9.47-9.46 0-5.22 4.24-9.45 9.47-9.45z"/><radialGradient id="c" cx="79.811" cy="135.34" r="13.282" gradientUnits="userSpaceOnUse" gradientTransform="matrix(0 -1 1 0 -101.491 112.358)" fy="135.34" fx="79.811"><stop offset="0" stop-color="#fff"/><stop offset=".09" stop-color="#DBE8F2"/><stop offset=".248" stop-color="#A2C3DE"/><stop offset=".395" stop-color="#75A6CD"/><stop offset=".525" stop-color="#5591C2"/><stop offset=".634" stop-color="#4185BB"/><stop offset=".708" stop-color="#3A80B8"/><stop offset="1" stop-color="#244A87"/></radialGradient><path fill="url(#c)" d="M36.02 26.55c5.22 0 9.45 4.23 9.45 9.45 0 5.23-4.23 9.46-9.45 9.46-5.23 0-9.47-4.23-9.47-9.46 0-5.22 4.24-9.45 9.47-9.45z"/><g><radialGradient id="d" cx="-38.119" cy="132.016" r="23.416" gradientUnits="userSpaceOnUse" gradientTransform="matrix(0 1 1 0 -101.491 66.23)" fy="132.016" fx="-38.119"><stop offset="0" stop-color="#fff"/><stop offset=".685" stop-color="#2E659E"/><stop offset="1" stop-color="#1D3E63"/></radialGradient><path fill="url(#d)" d="M26.55 36c0 2.52.98 4.9 2.77 6.7 1.8 1.78 4.16 2.76 6.7 2.76 2.5 0 4.9-.98 6.68-2.77 1.8-1.8 2.77-4.16 2.77-6.7 0-5.2-4.24-9.45-9.45-9.45-5.22 0-9.47 4.24-9.47 9.45zm17.4 0c0 2.13-.8 4.12-2.3 5.62-1.52 1.5-3.5 2.33-5.63 2.33-2.14 0-4.13-.83-5.63-2.33s-2.34-3.5-2.34-5.62c0-4.38 3.58-7.95 7.96-7.95s7.94 3.57 7.94 7.95z"/></g></g><g><path fill="none" stroke="#152a4c" stroke-width="2" d="M10.46 1c5.23 0 9.46 4.23 9.46 9.45 0 5.22-4.23 9.46-9.46 9.46S1 15.68 1 10.46C1 5.23 5.23 1 10.46 1z"/><radialGradient id="e" cx="105.363" cy="109.787" r="13.282" gradientUnits="userSpaceOnUse" gradientTransform="matrix(0 -1 1 0 -101.491 112.358)" fy="109.787" fx="105.363"><stop offset="0" stop-color="#fff"/><stop offset=".09" stop-color="#DBE8F2"/><stop offset=".248" stop-color="#A2C3DE"/><stop offset=".395" stop-color="#75A6CD"/><stop offset=".525" stop-color="#5591C2"/><stop offset=".634" stop-color="#4185BB"/><stop offset=".708" stop-color="#3A80B8"/><stop offset="1" stop-color="#244A87"/></radialGradient><path fill="url(#e)" d="M10.46 1c5.23 0 9.46 4.23 9.46 9.45 0 5.22-4.23 9.46-9.46 9.46S1 15.68 1 10.46C1 5.23 5.23 1 10.46 1z"/><g><radialGradient id="f" cx="-63.672" cy="106.463" r="23.416" gradientUnits="userSpaceOnUse" gradientTransform="matrix(0 1 1 0 -101.491 66.23)" fy="106.463" fx="-63.672"><stop offset="0" stop-color="#fff"/><stop offset=".685" stop-color="#2E659E"/><stop offset="1" stop-color="#1D3E63"/></radialGradient><path fill="url(#f)" d="M1 10.45c0 2.52.98 4.9 2.77 6.68 1.8 1.8 4.16 2.78 6.7 2.78 2.5 0 4.9-.98 6.68-2.77 1.8-1.78 2.77-4.14 2.77-6.68 0-5.2-4.24-9.45-9.46-9.45C5.26 1 1 5.24 1 10.45zm17.4 0c0 2.13-.8 4.1-2.3 5.62-1.52 1.5-3.52 2.32-5.64 2.32-2.13 0-4.12-.83-5.62-2.33s-2.33-3.5-2.33-5.62c0-4.38 3.58-7.95 7.96-7.95s7.95 3.57 7.95 7.95z"/></g></g><path fill="#e96712" stroke="#590b08" stroke-width=".968" d="M22.63 33.88c.27 0 .5-.23.5-.5l.32-7.66c0-.05-.02-.12-.07-.17-.1-.1-.26-.1-.36 0l-8.22 8.22c-.1.1-.1.26 0 .36.05.05.1.07.17.07H15c1.8.03 7.63-.32 7.63-.32z" stroke-linejoin="round"/><path fill="url(#g)" d="M27.58 14.17l7.02 7.02-4.93 4.92-7.02-7.02 4.93-4.93z" transform="matrix(-.937 0 0 -.932 43.715 46.446)"/><path fill="none" stroke="#590b08" stroke-width=".968" d="M21.66 27.6l-5.6-5.7"/><path fill="none" stroke="#590b08" stroke-width=".968" d="M16.73 32.47l-5.6-5.65"/><path fill="none" stroke="#faaf3e" stroke-width=".968" d="M20.93 28.22l-5.6-5.55"/><path fill="none" stroke="#faaf3e" d="M22.24 33.06l.3-6.4" color="#000" stroke-linecap="round" overflow="visible"/></svg>