<svg xmlns="http://www.w3.org/2000/svg" width="46.899" height="46.899" xmlns:i="&ns_ai;" xmlns:xlink="http://www.w3.org/1999/xlink" i:viewOrigin="0.8389 47.2588" i:rulerOrigin="0 0" i:pageBounds="0 48 48 0" overflow="visible"><defs><radialGradient id="d" cx="14.31" cy="485.416" r="4.065" gradientUnits="userSpaceOnUse" fy="485.416" fx="14.31"><stop offset="0" stop-color="#fff"/><stop offset=".685" stop-color="#2E659E"/><stop offset="1" stop-color="#1D3E63"/></radialGradient><radialGradient id="c" cx="40.541" cy="486.093" r="2.869" gradientUnits="userSpaceOnUse" gradientTransform="matrix(-1 0 0 1 55.359 0)" fy="486.093" fx="40.541"><stop offset="0" stop-color="#fff"/><stop offset=".004" stop-color="#FDFDFE"/><stop offset=".107" stop-color="#C7D5E5"/><stop offset=".212" stop-color="#98B3CF"/><stop offset=".315" stop-color="#7297BD"/><stop offset=".417" stop-color="#5481B0"/><stop offset=".517" stop-color="#3F72A6"/><stop offset=".615" stop-color="#3268A0"/><stop offset=".708" stop-color="#2E659E"/><stop offset="1" stop-color="#193766"/></radialGradient><linearGradient id="b" x1="-165.394" x2="-170.38" y1="-93.119" y2="-104.198" gradientTransform="matrix(-.574 -.819 .819 -.574 -3.236 298.158)" gradientUnits="userSpaceOnUse"><stop offset="0" stop-color="#88A9C3"/><stop offset="1" stop-color="#fff"/></linearGradient><linearGradient id="a" x1="-165.82" x2="-170.229" y1="-93.99" y2="-103.786" gradientTransform="matrix(-.574 -.819 .819 -.574 -6.75 -152.536)" gradientUnits="userSpaceOnUse"><stop offset="0" stop-color="#6F87A0"/><stop offset="1" stop-color="#fff"/></linearGradient><linearGradient id="q" x1="-165.82" x2="-170.229" y1="-93.99" y2="-103.786" xlink:href="#a" gradientUnits="userSpaceOnUse" gradientTransform="matrix(-.76 -1.768 1.768 -.76 65.898 -346.931)"/><linearGradient id="r" x1="-165.394" x2="-170.38" y1="-93.119" y2="-104.198" xlink:href="#b" gradientUnits="userSpaceOnUse" gradientTransform="matrix(-.574 -.819 .819 -.574 -3.236 298.158)"/><radialGradient id="s" cx="40.541" cy="486.093" r="2.869" xlink:href="#c" gradientUnits="userSpaceOnUse" gradientTransform="matrix(-1 0 0 1 55.359 0)" fx="40.541" fy="486.093"/><radialGradient id="t" cx="14.31" cy="485.416" r="4.065" xlink:href="#d" gradientUnits="userSpaceOnUse" fx="14.31" fy="485.416"/><linearGradient id="e" x1="-165.82" x2="-170.229" y1="-93.99" y2="-103.786" xlink:href="#a" gradientUnits="userSpaceOnUse" gradientTransform="matrix(-.76 -1.768 1.768 -.76 65.898 -346.931)"/><linearGradient id="f" x1="-165.394" x2="-170.38" y1="-93.119" y2="-104.198" xlink:href="#b" gradientUnits="userSpaceOnUse" gradientTransform="matrix(-.574 -.819 .819 -.574 -3.236 298.158)"/><radialGradient id="g" cx="40.541" cy="486.093" r="2.869" xlink:href="#c" gradientUnits="userSpaceOnUse" gradientTransform="matrix(-1 0 0 1 55.359 0)" fx="40.541" fy="486.093"/><radialGradient id="h" cx="14.31" cy="485.416" r="4.065" xlink:href="#d" gradientUnits="userSpaceOnUse" fx="14.31" fy="485.416"/><linearGradient id="i" x1="-165.82" x2="-170.229" y1="-93.99" y2="-103.786" xlink:href="#a" gradientUnits="userSpaceOnUse" gradientTransform="matrix(-.76 -1.768 1.768 -.76 65.898 -346.931)"/><linearGradient id="j" x1="-165.394" x2="-170.38" y1="-93.119" y2="-104.198" xlink:href="#b" gradientUnits="userSpaceOnUse" gradientTransform="matrix(-.574 -.819 .819 -.574 -3.236 298.158)"/><radialGradient id="k" cx="40.541" cy="486.093" r="2.869" xlink:href="#c" gradientUnits="userSpaceOnUse" gradientTransform="matrix(-1 0 0 1 55.359 0)" fx="40.541" fy="486.093"/><radialGradient id="l" cx="14.31" cy="485.416" r="4.065" xlink:href="#d" gradientUnits="userSpaceOnUse" fx="14.31" fy="485.416"/><linearGradient id="m" x1="-165.82" x2="-170.229" y1="-93.99" y2="-103.786" xlink:href="#a" gradientUnits="userSpaceOnUse" gradientTransform="matrix(-.76 -1.768 1.768 -.76 65.898 -346.931)"/><linearGradient id="n" x1="-165.394" x2="-170.38" y1="-93.119" y2="-104.198" xlink:href="#b" gradientUnits="userSpaceOnUse" gradientTransform="matrix(-.574 -.819 .819 -.574 -3.236 298.158)"/><radialGradient id="o" cx="40.541" cy="486.093" r="2.869" xlink:href="#c" gradientUnits="userSpaceOnUse" gradientTransform="matrix(-1 0 0 1 55.359 0)" fx="40.541" fy="486.093"/><radialGradient id="p" cx="14.31" cy="485.416" r="4.065" xlink:href="#d" gradientUnits="userSpaceOnUse" fx="14.31" fy="485.416"/></defs><g><path fill="url(#e)" d="M11.53 30.58c.9-1.13 10.6-13.73 11.75-15.15 1.1 1.06 4.1 3.54 5.1 4.52-1.12 1.2-13.8 13.47-15.05 14.8l-1.8-4.17z" i:knockout="Off" transform="translate(-17.754 -6.501)"/><g transform="matrix(1.884 .391 -.391 1.884 170.827 -913.945)"><linearGradient x1="-165.394" x2="-170.38" y1="-93.119" y2="-104.198" gradientUnits="userSpaceOnUse" gradientTransform="matrix(-.574 -.819 .819 -.574 -3.236 298.158)"><stop offset="0" stop-color="#88A9C3"/><stop offset="1" stop-color="#fff"/></linearGradient><path fill="url(#f)" d="M10.96 498.84l6.82-10.37-4.84-2.86-4.64 9.44 2.66 3.8zm-2-2.85c.34-.68 3.94-8.12 4.38-8.96.68.42 2.46 1.37 3.08 1.76-.45.73-5.6 8.3-6.1 9.13L8.96 496z" i:knockout="Off"/></g><g transform="matrix(2.202 .457 -.457 2.202 198.151 -1070.079)"><circle cx="15.3" cy="487.164" r="2.072" fill="none" stroke="#152a4c" stroke-width=".667" i:knockout="Off"/><circle cx="15.3" cy="487.164" r="2.072" fill="url(#g)" i:knockout="Off"/><g i:knockout="Off"><radialGradient cx="14.31" cy="485.416" r="4.065" gradientUnits="userSpaceOnUse" fy="485.416" fx="14.31"><stop offset="0" stop-color="#fff"/><stop offset=".685" stop-color="#2E659E"/><stop offset="1" stop-color="#1D3E63"/></radialGradient><path fill="url(#h)" d="M13.23 487.16c0 1.15.93 2.08 2.07 2.08.55 0 1.07-.22 1.46-.6.4-.4.6-.92.6-1.48 0-.55-.2-1.07-.6-1.46-.4-.4-.9-.6-1.46-.6-1.14 0-2.07.92-2.07 2.06zm.15 0c0-1.06.86-1.92 1.92-1.92.5 0 1 .2 1.36.57.36.37.56.85.56 1.36 0 .5-.2 1-.56 1.36-.36.36-.85.56-1.36.56-1.06 0-1.92-.86-1.92-1.92z" i:knockout="Off"/></g></g></g><g><path fill="url(#i)" d="M11.53 30.58c.9-1.13 10.6-13.73 11.75-15.15 1.1 1.06 4.1 3.54 5.1 4.52-1.12 1.2-13.8 13.47-15.05 14.8l-1.8-4.17z" i:knockout="Off" transform="translate(11.23 16.615)"/><g transform="matrix(1.884 .391 -.391 1.884 199.811 -890.829)"><linearGradient x1="-165.394" x2="-170.38" y1="-93.119" y2="-104.198" gradientUnits="userSpaceOnUse" gradientTransform="matrix(-.574 -.819 .819 -.574 -3.236 298.158)"><stop offset="0" stop-color="#88A9C3"/><stop offset="1" stop-color="#fff"/></linearGradient><path fill="url(#j)" d="M10.96 498.84l6.82-10.37-4.84-2.86-4.64 9.44 2.66 3.8zm-2-2.85c.34-.68 3.94-8.12 4.38-8.96.68.42 2.46 1.37 3.08 1.76-.45.73-5.6 8.3-6.1 9.13L8.96 496z" i:knockout="Off"/></g><g transform="matrix(2.202 .457 -.457 2.202 227.135 -1046.963)"><circle cx="15.3" cy="487.164" r="2.072" fill="none" stroke="#152a4c" stroke-width=".667" i:knockout="Off"/><circle cx="15.3" cy="487.164" r="2.072" fill="url(#k)" i:knockout="Off"/><g i:knockout="Off"><radialGradient cx="14.31" cy="485.416" r="4.065" gradientUnits="userSpaceOnUse" fy="485.416" fx="14.31"><stop offset="0" stop-color="#fff"/><stop offset=".685" stop-color="#2E659E"/><stop offset="1" stop-color="#1D3E63"/></radialGradient><path fill="url(#l)" d="M13.23 487.16c0 1.15.93 2.08 2.07 2.08.55 0 1.07-.22 1.46-.6.4-.4.6-.92.6-1.48 0-.55-.2-1.07-.6-1.46-.4-.4-.9-.6-1.46-.6-1.14 0-2.07.92-2.07 2.06zm.15 0c0-1.06.86-1.92 1.92-1.92.5 0 1 .2 1.36.57.36.37.56.85.56 1.36 0 .5-.2 1-.56 1.36-.36.36-.85.56-1.36.56-1.06 0-1.92-.86-1.92-1.92z" i:knockout="Off"/></g></g></g><g><path fill="url(#m)" d="M11.53 30.58c.9-1.13 10.6-13.73 11.75-15.15 1.1 1.06 4.1 3.54 5.1 4.52-1.12 1.2-13.8 13.47-15.05 14.8l-1.8-4.17z" i:knockout="Off" transform="translate(4.262 -3.118)"/><g transform="matrix(1.884 .391 -.391 1.884 192.843 -910.562)"><linearGradient x1="-165.394" x2="-170.38" y1="-93.119" y2="-104.198" gradientUnits="userSpaceOnUse" gradientTransform="matrix(-.574 -.819 .819 -.574 -3.236 298.158)"><stop offset="0" stop-color="#88A9C3"/><stop offset="1" stop-color="#fff"/></linearGradient><path fill="url(#n)" d="M10.96 498.84l6.82-10.37-4.84-2.86-4.64 9.44 2.66 3.8zm-2-2.85c.34-.68 3.94-8.12 4.38-8.96.68.42 2.46 1.37 3.08 1.76-.45.73-5.6 8.3-6.1 9.13L8.96 496z" i:knockout="Off"/></g><g transform="matrix(2.202 .457 -.457 2.202 220.167 -1066.696)"><circle cx="15.3" cy="487.164" r="2.072" fill="none" stroke="#152a4c" stroke-width=".667" i:knockout="Off"/><circle cx="15.3" cy="487.164" r="2.072" fill="url(#o)" i:knockout="Off"/><g i:knockout="Off"><radialGradient cx="14.31" cy="485.416" r="4.065" gradientUnits="userSpaceOnUse" fy="485.416" fx="14.31"><stop offset="0" stop-color="#fff"/><stop offset=".685" stop-color="#2E659E"/><stop offset="1" stop-color="#1D3E63"/></radialGradient><path fill="url(#p)" d="M13.23 487.16c0 1.15.93 2.08 2.07 2.08.55 0 1.07-.22 1.46-.6.4-.4.6-.92.6-1.48 0-.55-.2-1.07-.6-1.46-.4-.4-.9-.6-1.46-.6-1.14 0-2.07.92-2.07 2.06zm.15 0c0-1.06.86-1.92 1.92-1.92.5 0 1 .2 1.36.57.36.37.56.85.56 1.36 0 .5-.2 1-.56 1.36-.36.36-.85.56-1.36.56-1.06 0-1.92-.86-1.92-1.92z" i:knockout="Off"/></g></g></g><g><path fill="url(#q)" d="M11.53 30.58c.9-1.13 10.6-13.73 11.75-15.15 1.1 1.06 4.1 3.54 5.1 4.52-1.12 1.2-13.8 13.47-15.05 14.8l-1.8-4.17z" i:knockout="Off" transform="translate(-12.358 14.047)"/><g transform="matrix(1.884 .391 -.391 1.884 176.223 -893.397)"><linearGradient x1="-165.394" x2="-170.38" y1="-93.119" y2="-104.198" gradientUnits="userSpaceOnUse" gradientTransform="matrix(-.574 -.819 .819 -.574 -3.236 298.158)"><stop offset="0" stop-color="#88A9C3"/><stop offset="1" stop-color="#fff"/></linearGradient><path fill="url(#r)" d="M10.96 498.84l6.82-10.37-4.84-2.86-4.64 9.44 2.66 3.8zm-2-2.85c.34-.68 3.94-8.12 4.38-8.96.68.42 2.46 1.37 3.08 1.76-.45.73-5.6 8.3-6.1 9.13L8.96 496z" i:knockout="Off"/></g><g transform="matrix(2.202 .457 -.457 2.202 203.547 -1049.531)"><circle cx="15.3" cy="487.164" r="2.072" fill="none" stroke="#152a4c" stroke-width=".667" i:knockout="Off"/><circle cx="15.3" cy="487.164" r="2.072" fill="url(#s)" i:knockout="Off"/><g i:knockout="Off"><radialGradient cx="14.31" cy="485.416" r="4.065" gradientUnits="userSpaceOnUse" fy="485.416" fx="14.31"><stop offset="0" stop-color="#fff"/><stop offset=".685" stop-color="#2E659E"/><stop offset="1" stop-color="#1D3E63"/></radialGradient><path fill="url(#t)" d="M13.23 487.16c0 1.15.93 2.08 2.07 2.08.55 0 1.07-.22 1.46-.6.4-.4.6-.92.6-1.48 0-.55-.2-1.07-.6-1.46-.4-.4-.9-.6-1.46-.6-1.14 0-2.07.92-2.07 2.06zm.15 0c0-1.06.86-1.92 1.92-1.92.5 0 1 .2 1.36.57.36.37.56.85.56 1.36 0 .5-.2 1-.56 1.36-.36.36-.85.56-1.36.56-1.06 0-1.92-.86-1.92-1.92z" i:knockout="Off"/></g></g></g><g><path fill="none" stroke="#991109" stroke-width="1.62.727" d="M18.73 14.06c0 6.64 5.4 12.04 12.05 12.04 6.64 0 12.05-5.4 12.05-12.04C42.83 7.42 37.43 2 30.78 2c-6.64 0-12.05 5.42-12.05 12.06z" i:knockout="Off"/><path fill="none" stroke="#9a1309" stroke-width="1.62.727" d="M20.82 14.06c0-5.5 4.47-9.97 9.96-9.97 5.5 0 9.97 4.46 9.97 9.96 0 5.5-4.47 9.96-9.97 9.96-5.5 0-9.96-4.47-9.96-9.96z" i:knockout="Off"/><g><path fill="#cb1009" d="M23.73 22.6l-1.47-1.5 15.6-15.58L39.3 7z" i:knockout="Off"/><g i:knockout="Off" transform="matrix(.537 0 0 .537 18.177 1.473)"><linearGradient id="u" x1="22.012" x2="24.89" y1="22.012" y2="24.89" gradientUnits="userSpaceOnUse"><stop offset="0" stop-color="#E4876B"/><stop offset=".545" stop-color="#CB1009"/></linearGradient><path fill="url(#u)" d="M34.96 9.06L8.88 35.16 11.75 38 38.18 11.6 35.3 8.72l-.34.34zm1.62-.25c.4.4 1.1 1.12 1.5 1.52-.65.66-27.1 27.1-27.76 27.77-.4-.4-1.1-1.12-1.5-1.52.65-.66 27.1-27.1 27.76-27.77z" i:knockout="Off"/></g></g><g><path fill="#cb1009" d="M18.73 14.07c0 6.64 5.4 12.05 12.06 12.05 6.64 0 12.05-5.4 12.05-12.05S37.45 2 30.8 2 18.73 7.43 18.73 14.08zm2.1 0c0-5.5 4.46-9.98 9.96-9.98 5.5 0 9.96 4.47 9.96 9.97 0 5.5-4.47 9.97-9.97 9.97-5.5 0-9.98-4.47-9.98-9.97z" i:knockout="Off"/><g transform="matrix(.537 0 0 .537 18.177 1.473)"><linearGradient id="v" x1="7.472" x2="39.282" y1="7.472" y2="39.282" gradientUnits="userSpaceOnUse"><stop offset="0" stop-color="#E9A389"/><stop offset="1" stop-color="#CB1009"/></linearGradient><path fill="url(#v)" d="M1 23.45C1 35.83 11.07 45.9 23.45 45.9c12.38 0 22.45-10.07 22.45-22.45C45.9 11.07 35.83 1 23.45 1 11.07 1 1 11.07 1 23.45zm.78 0c0-11.95 9.72-21.67 21.67-21.67 11.95 0 21.67 9.72 21.67 21.67 0 11.95-9.72 21.67-21.67 21.67-11.95 0-21.67-9.72-21.67-21.67z" i:knockout="Off"/><linearGradient id="w" x1="10.049" x2="38.704" y1="10.048" y2="38.704" gradientUnits="userSpaceOnUse"><stop offset=".545" stop-color="#CB1009"/><stop offset="1" stop-color="#DC6247"/></linearGradient><path fill="url(#w)" d="M4.1 23.45c0 10.67 8.68 19.35 19.35 19.35 10.67 0 19.35-8.68 19.35-19.35 0-10.67-8.68-19.35-19.35-19.35C12.78 4.1 4.1 12.78 4.1 23.45zm.78 0c0-10.24 8.33-18.57 18.57-18.57s18.57 8.33 18.57 18.57-8.33 18.57-18.57 18.57S4.88 33.7 4.88 23.45z" i:knockout="Off"/></g></g><path fill="none" stroke="#9a1309" stroke-width="0.54" d="M24.64 21.93l14-14" i:knockout="Off"/><path fill="none" stroke="#9a1309" stroke-width="0.54" d="M22.86 20.1L36.83 6.15" i:knockout="Off"/></g></svg>