<svg xmlns="http://www.w3.org/2000/svg" width="48" height="48" i:viewOrigin="0.3799 47.5942" i:rulerOrigin="0 0" i:pageBounds="0 48 48 0" xmlns:i="&ns_ai;" xmlns:xlink="http://www.w3.org/1999/xlink" viewBox="0 0 48.396 47.596" overflow="visible" enable-background="new 0 0 48.396 47.596" version="1"><defs><linearGradient id="c"><stop offset="0" stop-color="#f57900"/><stop offset="1" stop-color="#ffd2a6"/></linearGradient><linearGradient id="b" x1="-165.82" x2="-170.229" y1="-93.99" y2="-103.786" gradientTransform="matrix(-.574 -.819 .819 -.574 -6.75 -152.536)" gradientUnits="userSpaceOnUse"><stop offset="0" stop-color="#ffa410"/><stop offset="1" stop-color="#fff"/></linearGradient><linearGradient id="e"><stop offset="0" stop-color="#f57900"/><stop offset="1" stop-color="#f57900" stop-opacity="0"/></linearGradient><linearGradient id="d" x1="-165.82" x2="-170.229" y1="-93.99" y2="-103.786" gradientUnits="userSpaceOnUse" gradientTransform="matrix(-.574 -.819 .819 -.574 -6.75 -152.536)"><stop offset="0" stop-color="#ffa410"/><stop offset="1" stop-color="#fff" stop-opacity="0"/></linearGradient><linearGradient id="h" x1="37.48" x2="28.53" y1="39.307" y2="-30.963" xlink:href="#a" gradientUnits="userSpaceOnUse"/><linearGradient id="a" x1="37.48" x2="28.53" y1="39.307" y2="-30.963" gradientUnits="userSpaceOnUse"><stop offset="0" stop-color="#fff" stop-opacity="0"/><stop offset="1" stop-color="#709EC3"/></linearGradient><linearGradient id="f" x1="3.825" x2="45.321" y1="9.234" y2="6.887" gradientUnits="userSpaceOnUse"><stop offset="0" stop-color="#fff" stop-opacity="0"/><stop offset="1" stop-color="#709EC3"/></linearGradient><linearGradient id="o" x1="26.778" x2="2.536" y1="45.216" y2="8.804" gradientUnits="userSpaceOnUse"><stop offset="0" stop-color="#fff" stop-opacity="0"/><stop offset=".296" stop-color="#b7cee1" stop-opacity="0"/><stop offset="1" stop-color="#709EC3"/></linearGradient><linearGradient id="g" x1="27.275" x2="40.527" y1="17.119" y2="30.241" xlink:href="#a" gradientUnits="userSpaceOnUse"/><linearGradient id="k" x1="-165.82" x2="-170.229" y1="-93.99" y2="-103.786" xlink:href="#b" gradientUnits="userSpaceOnUse" gradientTransform="matrix(-.464 1.688 -1.688 -.464 -217.799 263.3)"/><linearGradient id="l" x1="-11.129" x2="16.399" y1="49.935" y2="49.935" xlink:href="#c" gradientUnits="userSpaceOnUse" gradientTransform="matrix(.796 .03 -.03 .796 25.549 -13.604)"/><linearGradient id="i" x1="-165.82" x2="-170.229" y1="-93.99" y2="-103.786" xlink:href="#d" gradientUnits="userSpaceOnUse" gradientTransform="matrix(1.613 -.429 .429 1.613 342.055 101.174)"/><linearGradient id="j" x1="-11.129" x2="16.399" y1="49.935" y2="49.935" xlink:href="#e" gradientUnits="userSpaceOnUse" gradientTransform="matrix(-.358 -.669 .669 -.358 -2.937 33.936)"/></defs><path fill="url(#f)" stroke="#709ec3" stroke-width=".5" d="M2.8 9.05l23.52 8.47L45.08 6.24 22.57.94 2.8 9.05z" i:knockout="Off"/><path fill="url(#g)" stroke="#709ec3" stroke-width=".5" d="M44.87 31.8L26.53 46l-.2-28.48L45.06 6.24l-.2 25.56z" i:knockout="Off" opacity=".15"/><path fill="none" stroke="#babdb6" stroke-width=".5" d="M45.02 12.1L.12 37.75" i:knockout="Off"/><path fill="none" stroke="#babdb6" stroke-width=".5" d="M48.23 29.13l-23.5 18.24" i:knockout="Off"/><path fill="none" stroke="#babdb6" stroke-width=".5" d="M29.62 47.37L.95 34.47" i:knockout="Off"/><path fill="url(#h)" stroke="#709ec3" stroke-width=".5" d="M44.87 31.8L26.53 46l-.2-28.48L45.06 6.24l-.2 25.56z" i:knockout="Off"/><path fill="none" stroke="#babdb6" stroke-width=".5" d="M45.02 12.1l-21.2 12.12" i:knockout="Off"/><path fill="none" stroke="#709ec3" stroke-width=".5" d="M3.6 35.75l19.74-11.03" i:knockout="Off"/><path fill="none" stroke="#babdb6" stroke-width=".5" d="M21.79 24.26L1.4 17.72" i:knockout="Off"/><path fill="none" stroke="#babdb6" stroke-width=".5" d="M48.23 32.75l-24.02-7.7" i:knockout="Off"/><path fill="none" stroke="#709ec3" stroke-width=".5" d="M22.57.95l.77 23.77" i:knockout="Off"/><path fill="none" stroke="#709ec3" stroke-width=".5" d="M24.57 25.13l20.3 6.67" i:knockout="Off"/><path fill="none" stroke="#709ec3" stroke-width=".5" d="M23.34 24.72l1.23.4" i:knockout="Off"/><circle cx="44.868" cy="31.802" r=".687" fill="#3165a1" stroke="#709ec3" stroke-width=".5" i:knockout="Off"/><circle cx="44.803" cy="6.237" r=".687" fill="#3165a1" stroke="#709ec3" stroke-width=".5" i:knockout="Off"/><circle cx="22.574" cy=".951" r=".687" fill="#3165a1" stroke="#709ec3" stroke-width=".5" i:knockout="Off"/><circle cx="23.124" cy="24.619" r=".687" fill="#3165a1" stroke="#709ec3" stroke-width=".5" i:knockout="Off"/><path fill="none" stroke="#babdb6" stroke-width=".5" d="M12.63 30l-11.5-3.96" i:knockout="Off"/><path fill="none" stroke="#babdb6" stroke-width=".5" d="M25.98 34.62l-12.02-4.15" i:knockout="Off"/><path fill="none" stroke="#babdb6" stroke-width=".5" d="M35.86 38.03L27 34.97" i:knockout="Off"/><path fill="none" stroke="#babdb6" stroke-width=".5" d="M48.23 42.3L37 38.4" i:knockout="Off"/><path fill="none" stroke="#babdb6" stroke-width=".5" d="M48.23 42.3l-5.7 5.07" i:knockout="Off"/><path fill="none" stroke="#babdb6" stroke-width=".5" d="M45.4 19.8l1.12-.78" i:knockout="Off"/><path fill="none" stroke="#babdb6" stroke-width=".5" d="M34.28 27.56l10.02-7" i:knockout="Off"/><path fill="none" stroke="#babdb6" stroke-width=".5" d="M27.03 32.62l5.9-4.12" i:knockout="Off"/><path fill="none" stroke="#babdb6" stroke-width=".5" d="M15.94 40.36l9.86-6.88" i:knockout="Off"/><path fill="none" stroke="#babdb6" stroke-width=".5" d="M6.92 46.66l7.32-5.1" i:knockout="Off"/><path fill="none" stroke="#babdb6" stroke-width=".5" d="M20.83 17.1L4.07 25.13" i:knockout="Off"/><path fill="none" stroke="#babdb6" stroke-width=".5" d="M35.47 20.47l7.96 1.84" i:knockout="Off"/><path fill="url(#i)" stroke="url(#j)" stroke-width="1.008" d="M24.96 6.88c.84.92 11.52 11.9 12.6 13.07-1.06.82-4.43 3.07-5.4 3.82-.9-1.12-10.03-14.64-11.02-15.88l3.82-1.02z" i:knockout="Off"/><path fill="url(#k)" stroke="url(#l)" stroke-width="1.008" d="M35.3 25.97c-1.28.28-16.87 4.14-18.5 4.5-.18-1.4-.44-5.63-.6-6.9 1.48-.23 18.56-1.35 20.2-1.6l-1.1 4z" i:knockout="Off"/><g transform="matrix(1.475 0 0 1.475 -16.729 -16.577)"><circle cx="22.234" cy="29.566" r="2.104" fill="none" stroke="#152a4c" stroke-width="1.017" i:knockout="Off"/><radialGradient id="m" cx="85.377" cy="123.543" r="2.956" gradientUnits="userSpaceOnUse" gradientTransform="matrix(0 -1 1 0 -101.79 114.173)" fy="123.543" fx="85.377"><stop offset="0" stop-color="#fff"/><stop offset=".09" stop-color="#DBE8F2"/><stop offset=".248" stop-color="#A2C3DE"/><stop offset=".395" stop-color="#75A6CD"/><stop offset=".525" stop-color="#5591C2"/><stop offset=".634" stop-color="#4185BB"/><stop offset=".708" stop-color="#3A80B8"/><stop offset="1" stop-color="#244A87"/></radialGradient><circle cx="22.234" cy="29.566" r="2.104" fill="url(#m)" i:knockout="Off"/><g i:knockout="Off"><radialGradient id="n" cx="-38.721" cy="122.802" r="5.213" gradientUnits="userSpaceOnUse" gradientTransform="matrix(0 1 1 0 -101.79 66.529)" fy="122.802" fx="-38.721"><stop offset="0" stop-color="#fff"/><stop offset=".685" stop-color="#2E659E"/><stop offset="1" stop-color="#1D3E63"/></radialGradient><path fill="url(#n)" d="M20.13 29.57c0 .56.2 1.1.6 1.48.4.4.94.62 1.5.62s1.1-.22 1.5-.62c.4-.4.6-.92.6-1.48 0-1.16-.94-2.1-2.1-2.1-1.16 0-2.1.94-2.1 2.1zm3.87 0c0 .47-.18.9-.52 1.25-.33.33-.78.52-1.25.52s-.9-.2-1.25-.52c-.33-.34-.52-.78-.52-1.25 0-.98.8-1.77 1.77-1.77.98 0 1.77.8 1.77 1.77z" i:knockout="Off"/></g></g><path fill="#fce94f" stroke="#c4a000" stroke-width="1.0054800000000002" d="M44 26.46l-4.07.3 1.3 3.88-3.3-2.37-1.5 3.8-1-3.95-3.6 1.96 1.77-3.68-4-.8 3.7-1.7-2.54-3.18 3.93 1.1.08-4.1 2.3 3.38 2.7-3.07-.4 4.06 4.05-.62-2.9 2.86L44 26.46z" color="#000" stroke-linecap="round" overflow="visible"/><path fill="url(#o)" stroke="#709ec3" stroke-width=".5" d="M2.8 9.05l.8 26.7L26.53 46l-.2-28.48L2.8 9.05z" i:knockout="Off"/><path fill="none" stroke="#fff" stroke-width=".5054400000000001" d="M42.16 25.88l-2.98.23.96 2.84-2.43-1.73L36.64 30l-.74-2.88-2.63 1.43 1.3-2.7-2.93-.58 2.7-1.23-1.85-2.33 2.86.8.06-3 1.7 2.47 1.96-2.24-.3 2.97 2.96-.45-2.13 2.08 2.56 1.55z" color="#000" stroke-linecap="round" overflow="visible"/><circle cx="2.744" cy="8.999" r=".687" fill="#3165a1" stroke="#709ec3" stroke-width=".5" i:knockout="Off"/><circle cx="3.596" cy="35.753" r=".687" fill="#3165a1" stroke="#709ec3" stroke-width=".5" i:knockout="Off"/><circle cx="26.527" cy="45.989" r=".687" fill="#3165a1" stroke="#709ec3" stroke-width=".302" i:knockout="Off" transform="matrix(1.655 0 0 1.655 -17.377 -30.126)"/><circle cx="26.298" cy="17.329" r=".688" fill="#3165a1" stroke="#709ec3" stroke-width=".275" i:knockout="Off" transform="matrix(1.818 0 0 1.818 -21.511 -14.175)"/></svg>