<svg xmlns="http://www.w3.org/2000/svg" width="44.772" height="44.348" xmlns:sodipodi="http://inkscape.sourceforge.net/DTD/sodipodi-0.dtd" overflow="visible" sodipodi:version=".32" sodipodi:docname="location.svg" sodipodi:docbase="e:\dev_clean\src\houdini\support\icons\pop"><defs><linearGradient id="a" x1="16.74" x2="19.033" y1="38.823" y2="34.328" gradientUnits="userSpaceOnUse" gradientTransform="translate(.476 -.476)"><stop offset="0" stop-color="#76B5D2"/><stop offset="1" stop-color="#fff"/></linearGradient><linearGradient id="c" x1="-22.34" x2="-20.047" y1="805.295" y2="800.799" gradientTransform="matrix(.441 .897 -.897 .441 738.492 -315.399)" gradientUnits="userSpaceOnUse"><stop offset="0" stop-color="#76B5D2"/><stop offset="1" stop-color="#fff"/></linearGradient><linearGradient id="e" x1="837.243" x2="839.537" y1="1131.669" y2="1127.172" gradientTransform="matrix(-.781 .625 -.625 -.781 1382.89 366.471)" gradientUnits="userSpaceOnUse"><stop offset="0" stop-color="#76B5D2"/><stop offset="1" stop-color="#fff"/></linearGradient><linearGradient id="g" x1="1353.98" x2="1356.274" y1="403.202" y2="398.706" gradientTransform="matrix(-.825 -.565 .565 -.825 929.616 1109.432)" gradientUnits="userSpaceOnUse"><stop offset="0" stop-color="#76B5D2"/><stop offset="1" stop-color="#fff"/></linearGradient><linearGradient id="i" x1="747.373" x2="749.666" y1="-333.741" y2="-338.237" gradientTransform="matrix(.384 -.923 .923 .384 61.174 854.545)" gradientUnits="userSpaceOnUse"><stop offset="0" stop-color="#76B5D2"/><stop offset="1" stop-color="#fff"/></linearGradient></defs><sodipodi:namedview borderopacity="1" bordercolor="#666666" pagecolor="#ffffff"/><path fill="url(#a)" d="M20.62 33.47c-.3.67-2.17 6.67-2.54 7.52-.68-.4-2.8-1.62-3.43-1.96.4-.74 3.86-5.4 4.3-6.23l1.67.67z"/><g transform="translate(.476 -.476)"><linearGradient id="b" x1="18.645" x2="16.565" y1="34.8" y2="39.125" gradientUnits="userSpaceOnUse"><stop offset=".006" stop-color="#fff"/><stop offset="1" stop-color="#B7D0DC"/></linearGradient><path fill="url(#b)" d="M17.63 32.95l-4.5 7.1 4.7 2.64L21 34.27l-3.35-1.33zm2.52 1l-2.54 7.5s-3.5-1.88-3.42-1.94l4.3-6.22 1.66.66z"/></g><path fill="url(#c)" d="M11.92 20.9c-.73.04-6.94 1-7.86 1.05.03-.77.2-3.22.23-3.93.83.02 6.55 1.07 7.47 1.1l.15 1.8z"/><g transform="translate(.476)"><linearGradient id="d" x1="-20.435" x2="-22.516" y1="801.271" y2="805.597" gradientTransform="matrix(.441 .897 -.897 .441 738.016 -315.399)" gradientUnits="userSpaceOnUse"><stop offset=".006" stop-color="#fff"/><stop offset="1" stop-color="#B7D0DC"/></linearGradient><path fill="url(#d)" d="M11.22 18.23l-8.34-.92-.3 5.4 8.94-.9-.3-3.57zm.22 2.68l-7.86 1.06s.15-3.98.24-3.95l7.48 1.12.14 1.8z"/></g><path fill="url(#e)" d="M22.64 11.63c-.2-.7-2.48-6.56-2.72-7.46.77-.13 3.2-.5 3.9-.62.16.82.36 6.64.54 7.55l-1.72.53z"/><g transform="translate(0 .357)"><linearGradient id="f" x1="839.146" x2="837.065" y1="1127.645" y2="1131.97" gradientTransform="matrix(-.781 .625 -.625 -.781 1382.89 366.114)" gradientUnits="userSpaceOnUse"><stop offset=".006" stop-color="#fff"/><stop offset="1" stop-color="#B7D0DC"/></linearGradient><path fill="url(#f)" d="M25.21 10.48l-.9-8.35-5.33.87 2.8 8.54 3.45-1.06zm-2.56.8L19.92 3.8s3.9-.7 3.9-.62l.54 7.54-1.72.53z"/></g><path fill="url(#g)" d="M34.13 14.28c.62-.4 5.55-4.3 6.33-4.78.36.7 1.4 2.92 1.73 3.55-.75.4-6.25 2.28-7.06 2.72l-1-1.5z"/><g><linearGradient id="h" x1="1355.886" x2="1353.805" y1="399.181" y2="403.505" gradientTransform="matrix(-.825 -.565 .565 -.825 929.616 1109.432)" gradientUnits="userSpaceOnUse"><stop offset=".006" stop-color="#fff"/><stop offset="1" stop-color="#B7D0DC"/></linearGradient><path fill="url(#h)" d="M35.64 16.5l7.7-3.3-2.37-4.84-7.35 5.17 2.02 2.98zm-1.52-2.22l6.34-4.77s1.82 3.54 1.73 3.55l-7.07 2.72-1-1.5z"/></g><path fill="url(#i)" d="M36.72 31.28c.5.53 5.32 4.56 5.96 5.23-.6.5-2.56 1.98-3.1 2.43-.55-.64-3.52-5.64-4.12-6.35l1.26-1.3z"/><g><linearGradient id="j" x1="749.274" x2="747.193" y1="-337.765" y2="-333.44" gradientTransform="matrix(.384 -.923 .923 .384 61.174 854.545)" gradientUnits="userSpaceOnUse"><stop offset=".006" stop-color="#fff"/><stop offset="1" stop-color="#B7D0DC"/></linearGradient><path fill="url(#j)" d="M34.84 33.22l4.8 6.88 4.27-3.33-6.55-6.13-2.5 2.58zm1.88-1.94l5.96 5.23s-3.08 2.5-3.12 2.43l-4.1-6.35 1.26-1.3z"/></g><g transform="translate(.476 -.476)"><path fill="none" stroke="#152a4c" stroke-width="1.5" d="M13.36 41.6c0 1.1.9 2 2 2s2-.9 2-2-.9-2-2-2-2 .9-2 2z"/><radialGradient id="k" cx="29.468" cy="40.558" r="2.774" gradientUnits="userSpaceOnUse" gradientTransform="matrix(-1 0 0 1 44.367 0)" fy="40.558" fx="29.468"><stop offset="0" stop-color="#fff"/><stop offset=".09" stop-color="#DBE8F2"/><stop offset=".248" stop-color="#A2C3DE"/><stop offset=".395" stop-color="#75A6CD"/><stop offset=".525" stop-color="#5591C2"/><stop offset=".634" stop-color="#4185BB"/><stop offset=".708" stop-color="#3A80B8"/><stop offset="1" stop-color="#244A87"/></radialGradient><path fill="url(#k)" d="M13.36 41.6c0 1.1.9 2 2 2s2-.9 2-2-.9-2-2-2-2 .9-2 2z"/><g><radialGradient id="l" cx="14.409" cy="39.903" r="3.929" gradientUnits="userSpaceOnUse" fy="39.903" fx="14.409"><stop offset="0" stop-color="#fff"/><stop offset=".685" stop-color="#2E659E"/><stop offset="1" stop-color="#1D3E63"/></radialGradient><path fill="url(#l)" d="M13.36 41.6c0 1.1.9 2 2 2 .54 0 1.04-.2 1.42-.6.38-.37.6-.87.6-1.4 0-.54-.22-1.04-.6-1.42-.38-.38-.88-.6-1.4-.6-1.12 0-2.02.9-2.02 2.02zm.15 0c0-1.03.84-1.86 1.87-1.86.5 0 .96.2 1.3.54.36.35.55.82.55 1.32 0 .5-.2.96-.54 1.3-.35.36-.82.55-1.3.55-1.04 0-1.87-.83-1.87-1.85z"/></g></g><g><circle cx="41.959" cy="38.622" r="2.003" fill="none" stroke="#152a4c" stroke-width="1.5" sodipodi:ry="2.003" sodipodi:rx="2.003" sodipodi:cy="38.622" sodipodi:cx="41.959"/><radialGradient id="m" cx="2.873" cy="37.585" r="2.774" gradientUnits="userSpaceOnUse" gradientTransform="matrix(-1 0 0 1 44.367 0)" fy="37.585" fx="2.873"><stop offset="0" stop-color="#fff"/><stop offset=".09" stop-color="#DBE8F2"/><stop offset=".248" stop-color="#A2C3DE"/><stop offset=".395" stop-color="#75A6CD"/><stop offset=".525" stop-color="#5591C2"/><stop offset=".634" stop-color="#4185BB"/><stop offset=".708" stop-color="#3A80B8"/><stop offset="1" stop-color="#244A87"/></radialGradient><circle cx="41.959" cy="38.622" r="2.003" fill="url(#m)" sodipodi:ry="2.003" sodipodi:rx="2.003" sodipodi:cy="38.622" sodipodi:cx="41.959"/><g><radialGradient id="n" cx="41.003" cy="36.931" r="3.93" gradientUnits="userSpaceOnUse" fy="36.931" fx="41.003"><stop offset="0" stop-color="#fff"/><stop offset=".685" stop-color="#2E659E"/><stop offset="1" stop-color="#1D3E63"/></radialGradient><path fill="url(#n)" d="M39.96 38.62c0 1.1.9 2 2 2 .53 0 1.04-.2 1.4-.58.4-.38.6-.88.6-1.42 0-.53-.2-1.04-.6-1.4-.36-.4-.87-.6-1.4-.6-1.1 0-2 .9-2 2zm.14 0c0-1.02.84-1.85 1.86-1.85.5 0 .96.2 1.3.54.36.36.56.83.56 1.32 0 .5-.2.96-.55 1.32-.35.35-.8.54-1.3.54-1.03 0-1.87-.83-1.87-1.86z"/></g></g><g><circle cx="42.02" cy="10.852" r="2.003" fill="none" stroke="#152a4c" stroke-width="1.5" sodipodi:ry="2.003" sodipodi:rx="2.003" sodipodi:cy="10.852" sodipodi:cx="42.02"/><radialGradient id="o" cx="2.813" cy="9.814" r="2.774" gradientUnits="userSpaceOnUse" gradientTransform="matrix(-1 0 0 1 44.367 0)" fy="9.814" fx="2.813"><stop offset="0" stop-color="#fff"/><stop offset=".09" stop-color="#DBE8F2"/><stop offset=".248" stop-color="#A2C3DE"/><stop offset=".395" stop-color="#75A6CD"/><stop offset=".525" stop-color="#5591C2"/><stop offset=".634" stop-color="#4185BB"/><stop offset=".708" stop-color="#3A80B8"/><stop offset="1" stop-color="#244A87"/></radialGradient><circle cx="42.02" cy="10.852" r="2.003" fill="url(#o)" sodipodi:ry="2.003" sodipodi:rx="2.003" sodipodi:cy="10.852" sodipodi:cx="42.02"/><g><radialGradient id="p" cx="41.063" cy="9.16" r="3.93" gradientUnits="userSpaceOnUse" fy="9.16" fx="41.063"><stop offset="0" stop-color="#fff"/><stop offset=".685" stop-color="#2E659E"/><stop offset="1" stop-color="#1D3E63"/></radialGradient><path fill="url(#p)" d="M40.02 10.85c0 1.1.9 2 2 2 .54 0 1.04-.2 1.42-.58.38-.38.58-.88.58-1.42 0-.54-.2-1.04-.58-1.4-.38-.4-.9-.6-1.42-.6-1.1 0-2 .9-2 2zm.14 0C40.16 9.83 41 9 42.02 9c.5 0 .96.2 1.3.54.36.35.56.82.56 1.3 0 .5-.2.97-.55 1.33-.35.35-.8.54-1.3.54-1.04 0-1.87-.82-1.87-1.85z"/></g></g><g transform="translate(0 .357)"><path fill="none" stroke="#152a4c" stroke-width="1.5" d="M19.48 2.76c0 1.1.9 2 2 2s2-.9 2-2-.9-2-2-2-2 .9-2 2z"/><radialGradient id="q" cx="23.355" cy="1.718" r="2.774" gradientUnits="userSpaceOnUse" gradientTransform="matrix(-1 0 0 1 44.367 0)" fy="1.718" fx="23.355"><stop offset="0" stop-color="#fff"/><stop offset=".09" stop-color="#DBE8F2"/><stop offset=".248" stop-color="#A2C3DE"/><stop offset=".395" stop-color="#75A6CD"/><stop offset=".525" stop-color="#5591C2"/><stop offset=".634" stop-color="#4185BB"/><stop offset=".708" stop-color="#3A80B8"/><stop offset="1" stop-color="#244A87"/></radialGradient><path fill="url(#q)" d="M19.48 2.76c0 1.1.9 2 2 2s2-.9 2-2-.9-2-2-2-2 .9-2 2z"/><g><radialGradient id="r" cx="20.521" cy="1.063" r="3.93" gradientUnits="userSpaceOnUse" fy="1.063" fx="20.521"><stop offset="0" stop-color="#fff"/><stop offset=".685" stop-color="#2E659E"/><stop offset="1" stop-color="#1D3E63"/></radialGradient><path fill="url(#r)" d="M19.48 2.76c0 1.1.9 2 2 2 .53 0 1.04-.2 1.4-.6.4-.37.6-.87.6-1.4 0-.54-.2-1.04-.6-1.42-.36-.38-.87-.6-1.4-.6-1.1 0-2 .9-2 2.02zm.14 0c0-1.03.83-1.86 1.86-1.86.5 0 .96.2 1.3.54.36.35.55.82.55 1.32 0 .5-.2.96-.54 1.3-.36.36-.83.55-1.32.55-1.03 0-1.86-.82-1.86-1.84z"/></g></g><g transform="translate(.476)"><circle cx="2.752" cy="20.117" r="2.002" fill="none" stroke="#152a4c" stroke-width="1.5" sodipodi:ry="2.002" sodipodi:rx="2.002" sodipodi:cy="20.117" sodipodi:cx="2.752"/><radialGradient id="s" cx="42.079" cy="19.08" r="2.774" gradientUnits="userSpaceOnUse" gradientTransform="matrix(-1 0 0 1 44.367 0)" fy="19.08" fx="42.079"><stop offset="0" stop-color="#fff"/><stop offset=".09" stop-color="#DBE8F2"/><stop offset=".248" stop-color="#A2C3DE"/><stop offset=".395" stop-color="#75A6CD"/><stop offset=".525" stop-color="#5591C2"/><stop offset=".634" stop-color="#4185BB"/><stop offset=".708" stop-color="#3A80B8"/><stop offset="1" stop-color="#244A87"/></radialGradient><circle cx="2.752" cy="20.117" r="2.002" fill="url(#s)" sodipodi:ry="2.002" sodipodi:rx="2.002" sodipodi:cy="20.117" sodipodi:cx="2.752"/><g><radialGradient id="t" cx="1.796" cy="18.425" r="3.93" gradientUnits="userSpaceOnUse" fy="18.425" fx="1.796"><stop offset="0" stop-color="#fff"/><stop offset=".685" stop-color="#2E659E"/><stop offset="1" stop-color="#1D3E63"/></radialGradient><path fill="url(#t)" d="M.75 20.12c0 1.1.9 2 2 2 .54 0 1.04-.2 1.42-.6.38-.36.58-.87.58-1.4 0-.54-.2-1.04-.58-1.42-.38-.38-.88-.6-1.42-.6-1.1 0-2 .9-2 2.02zm.15 0c0-1.03.83-1.86 1.85-1.86.5 0 .96.2 1.3.54.37.36.56.82.56 1.32 0 .5-.18.96-.54 1.3-.35.36-.8.55-1.3.55-1.03 0-1.86-.83-1.86-1.85z"/></g></g><g><path fill="#cb1009" stroke="#590b08" stroke-width=".5" d="M36.66 33.45c.2 0 .36-.13.38-.32l.17-5.92v.02c.02-.05 0-.1-.03-.13-.06-.1-.17-.1-.24-.03l-6.22 5.2c-.06.07-.07.18 0 .25.02.04.07.06.1.06h.02s5.84.87 5.84.87z"/><radialGradient id="u" cx="127.458" cy="-206.604" r="11.022" gradientUnits="userSpaceOnUse" gradientTransform="matrix(-.643 -.766 -.766 .643 -48.986 252.194)" fy="-206.604" fx="127.458"><stop offset="0" stop-color="#fff"/><stop offset=".099" stop-color="#FFFDFB"/><stop offset=".19" stop-color="#FEF6F0"/><stop offset=".277" stop-color="#FCEADE"/><stop offset=".361" stop-color="#F9D9C4"/><stop offset=".445" stop-color="#F6C3A2"/><stop offset=".527" stop-color="#F3A979"/><stop offset=".607" stop-color="#EE8A49"/><stop offset=".685" stop-color="#E96712"/><stop offset=".745" stop-color="#E76211"/><stop offset=".819" stop-color="#E25210"/><stop offset=".902" stop-color="#D9380D"/><stop offset=".99" stop-color="#CD1509"/><stop offset="1" stop-color="#CB1009"/></radialGradient><path fill="url(#u)" d="M33.2 31.33l-6.23-9.26.65-.54 8 7.92-2.43 1.88z"/><g><radialGradient id="v" cx="27.423" cy="23.139" r="9.477" gradientUnits="userSpaceOnUse" fy="23.139" fx="27.423"><stop offset="0" stop-color="#EAA990"/><stop offset=".539" stop-color="#CB1009"/><stop offset=".613" stop-color="#C61009"/><stop offset=".706" stop-color="#B60F09"/><stop offset=".808" stop-color="#9C0E09"/><stop offset=".918" stop-color="#790C08"/><stop offset="1" stop-color="#590B08"/></radialGradient><path fill="url(#v)" d="M27.3 21.8l7.6 6.97.32-.28-7.6-6.96-.32.27z"/></g><g><radialGradient id="w" cx="28.517" cy="22.219" r="9.449" gradientUnits="userSpaceOnUse" fy="22.219" fx="28.517"><stop offset="0" stop-color="#EAA990"/><stop offset=".539" stop-color="#CB1009"/><stop offset=".613" stop-color="#C61009"/><stop offset=".706" stop-color="#B60F09"/><stop offset=".808" stop-color="#9C0E09"/><stop offset=".918" stop-color="#790C08"/><stop offset="1" stop-color="#590B08"/></radialGradient><path fill="url(#w)" d="M26.97 22.07l5.44 8.78.34-.26-5.44-8.8-.33.27z"/></g></g><g><path fill="#cb1009" stroke="#590b08" stroke-width=".5" d="M18.2 35.32c.06.18.26.28.44.22l5.47-2.25c.05-.02.1-.06.1-.1.05-.1.02-.2-.07-.23l-7.3-3.56c-.07-.03-.18 0-.22.1 0 .03 0 .08 0 .13 0 0 1.6 5.7 1.6 5.7z"/><radialGradient id="x" cx="-332.83" cy="616.203" r="11.022" gradientUnits="userSpaceOnUse" gradientTransform="matrix(.438 -.899 -.899 -.438 724.808 -7.014)" fy="616.203" fx="-332.83"><stop offset="0" stop-color="#fff"/><stop offset=".099" stop-color="#FFFDFB"/><stop offset=".19" stop-color="#FEF6F0"/><stop offset=".277" stop-color="#FCEADE"/><stop offset=".361" stop-color="#F9D9C4"/><stop offset=".445" stop-color="#F6C3A2"/><stop offset=".527" stop-color="#F3A979"/><stop offset=".607" stop-color="#EE8A49"/><stop offset=".685" stop-color="#E96712"/><stop offset=".745" stop-color="#E76211"/><stop offset=".819" stop-color="#E25210"/><stop offset=".902" stop-color="#D9380D"/><stop offset=".99" stop-color="#CD1509"/><stop offset="1" stop-color="#CB1009"/></radialGradient><path fill="url(#x)" d="M18.72 31.3l5.92-9.46.76.37-3.98 10.54-2.7-1.45z"/><g><radialGradient id="y" cx="-306.408" cy="905.35" r="9.477" gradientUnits="userSpaceOnUse" gradientTransform="matrix(.407 .913 -.913 .407 975.508 -65.614)" fy="905.35" fx="-306.408"><stop offset="0" stop-color="#EAA990"/><stop offset=".539" stop-color="#CB1009"/><stop offset=".613" stop-color="#C61009"/><stop offset=".706" stop-color="#B60F09"/><stop offset=".808" stop-color="#9C0E09"/><stop offset=".918" stop-color="#790C08"/><stop offset="1" stop-color="#590B08"/></radialGradient><path fill="url(#y)" d="M25.02 22.04l-3.27 9.77.4.2 3.25-9.8-.38-.16z"/></g><g><radialGradient id="z" cx="-305.315" cy="904.431" r="9.448" gradientUnits="userSpaceOnUse" gradientTransform="matrix(.407 .913 -.913 .407 975.508 -65.614)" fy="904.431" fx="-305.315"><stop offset="0" stop-color="#EAA990"/><stop offset=".539" stop-color="#CB1009"/><stop offset=".613" stop-color="#C61009"/><stop offset=".706" stop-color="#B60F09"/><stop offset=".808" stop-color="#9C0E09"/><stop offset=".918" stop-color="#790C08"/><stop offset="1" stop-color="#590B08"/></radialGradient><path fill="url(#z)" d="M24.64 21.84l-5.8 8.54.38.2 5.8-8.54-.38-.2z"/></g></g><g><path fill="#cb1009" stroke="#590b08" stroke-width=".5" d="M8.95 19.8c-.14.15-.14.37 0 .5l4.42 3.93c.03.04.08.06.13.06.1 0 .17-.1.17-.2V16c0-.1-.08-.17-.18-.17-.05 0-.1.02-.13.05 0 0-4.42 3.93-4.42 3.93z"/><radialGradient id="A" cx="-1248.723" cy="548.785" r="11.015" gradientUnits="userSpaceOnUse" gradientTransform="matrix(1 0 0 -1 1272.62 568.969)" fy="548.785" fx="-1248.723"><stop offset="0" stop-color="#fff"/><stop offset=".099" stop-color="#FFFDFB"/><stop offset=".19" stop-color="#FEF6F0"/><stop offset=".277" stop-color="#FCEADE"/><stop offset=".361" stop-color="#F9D9C4"/><stop offset=".445" stop-color="#F6C3A2"/><stop offset=".527" stop-color="#F3A979"/><stop offset=".607" stop-color="#EE8A49"/><stop offset=".685" stop-color="#E96712"/><stop offset=".745" stop-color="#E76211"/><stop offset=".819" stop-color="#E25210"/><stop offset=".902" stop-color="#D9380D"/><stop offset=".99" stop-color="#CD1509"/><stop offset="1" stop-color="#CB1009"/></radialGradient><path fill="url(#A)" d="M12.8 18.5l11.1 1.2v.83l-11.22 1.04.12-3.06z"/><g><radialGradient id="B" cx="333.692" cy="1562.373" r="9.476" gradientUnits="userSpaceOnUse" gradientTransform="matrix(-.643 .766 -.766 -.643 1434.061 768.04)" fy="1562.373" fx="333.692"><stop offset="0" stop-color="#EAA990"/><stop offset=".539" stop-color="#CB1009"/><stop offset=".613" stop-color="#C61009"/><stop offset=".706" stop-color="#B60F09"/><stop offset=".808" stop-color="#9C0E09"/><stop offset=".918" stop-color="#790C08"/><stop offset="1" stop-color="#590B08"/></radialGradient><path fill="url(#B)" d="M23.88 20.1l-10.21 1.37v.42l10.22-1.37-.02-.42z"/></g><g><radialGradient id="C" cx="334.786" cy="1561.452" r="9.449" gradientUnits="userSpaceOnUse" gradientTransform="matrix(-.643 .766 -.766 -.643 1434.061 768.04)" fy="1561.452" fx="334.786"><stop offset="0" stop-color="#EAA990"/><stop offset=".539" stop-color="#CB1009"/><stop offset=".613" stop-color="#C61009"/><stop offset=".706" stop-color="#B60F09"/><stop offset=".808" stop-color="#9C0E09"/><stop offset=".918" stop-color="#790C08"/><stop offset="1" stop-color="#590B08"/></radialGradient><path fill="url(#C)" d="M23.9 19.7L13.68 18.2l-.02.43 10.22 1.46.02-.4z"/></g></g><g><path fill="#cb1009" stroke="#590b08" stroke-width=".5" d="M22.87 7.45c-.16-.1-.37-.04-.47.13l-2.65 5.28c-.02.04-.04.1-.02.14.02.1.12.14.2.12l7.84-2.1c.1-.02.15-.12.13-.2 0-.06-.04-.1-.08-.12 0 0-4.95-3.25-4.95-3.25z"/><radialGradient id="D" cx="-1543.928" cy="-462.762" r="7.24" gradientUnits="userSpaceOnUse" gradientTransform="matrix(.259 .966 .966 -.259 872.042 1389.638)" fy="-462.762" fx="-1543.928"><stop offset="0" stop-color="#fff"/><stop offset=".099" stop-color="#FFFDFB"/><stop offset=".19" stop-color="#FEF6F0"/><stop offset=".277" stop-color="#FCEADE"/><stop offset=".361" stop-color="#F9D9C4"/><stop offset=".445" stop-color="#F6C3A2"/><stop offset=".527" stop-color="#F3A979"/><stop offset=".607" stop-color="#EE8A49"/><stop offset=".685" stop-color="#E96712"/><stop offset=".745" stop-color="#E76211"/><stop offset=".819" stop-color="#E25210"/><stop offset=".902" stop-color="#D9380D"/><stop offset=".99" stop-color="#CD1509"/><stop offset="1" stop-color="#CB1009"/></radialGradient><path fill="url(#D)" d="M25.13 10.83l.77 7.2-.8.2-2.96-6.72 3-.67z"/><g><radialGradient id="E" cx="1298.071" cy="1137.783" r="6.168" gradientUnits="userSpaceOnUse" gradientTransform="matrix(-.906 -.423 .423 -.906 721.303 1597.236)" fy="1137.783" fx="1298.071"><stop offset="0" stop-color="#EAA990"/><stop offset=".539" stop-color="#CB1009"/><stop offset=".613" stop-color="#C61009"/><stop offset=".706" stop-color="#B60F09"/><stop offset=".808" stop-color="#9C0E09"/><stop offset=".918" stop-color="#790C08"/><stop offset="1" stop-color="#590B08"/></radialGradient><path fill="url(#E)" d="M25.5 18.12l-3-5.7-.4.13 3 5.7.4-.13z"/></g><g><radialGradient id="F" cx="1298.537" cy="1137.405" r="6.085" gradientUnits="userSpaceOnUse" gradientTransform="matrix(-.906 -.423 .423 -.906 721.303 1597.236)" fy="1137.405" fx="1298.537"><stop offset="0" stop-color="#EAA990"/><stop offset=".539" stop-color="#CB1009"/><stop offset=".613" stop-color="#C61009"/><stop offset=".706" stop-color="#B60F09"/><stop offset=".808" stop-color="#9C0E09"/><stop offset=".918" stop-color="#790C08"/><stop offset="1" stop-color="#590B08"/></radialGradient><path fill="url(#F)" d="M25.35 11.65h.42v6.43h-.42z"/></g></g><g><path fill="#cb1009" stroke="#590b08" stroke-width=".5" d="M37.47 13.87c.05-.2-.06-.38-.25-.43l-5.8-1.2c-.04 0-.1 0-.13.03-.1.04-.12.15-.07.23l4.05 7.03c.05.08.16.1.24.06.04-.03.07-.07.08-.12 0 0 1.87-5.6 1.87-5.6z"/><radialGradient id="G" cx="-642.765" cy="-1010.149" r="7.242" gradientUnits="userSpaceOnUse" gradientTransform="matrix(-.866 .5 .5 .866 -23.727 1215.33)" fy="-1010.149" fx="-642.765"><stop offset="0" stop-color="#fff"/><stop offset=".099" stop-color="#FFFDFB"/><stop offset=".19" stop-color="#FEF6F0"/><stop offset=".277" stop-color="#FCEADE"/><stop offset=".361" stop-color="#F9D9C4"/><stop offset=".445" stop-color="#F6C3A2"/><stop offset=".527" stop-color="#F3A979"/><stop offset=".607" stop-color="#EE8A49"/><stop offset=".685" stop-color="#E96712"/><stop offset=".745" stop-color="#E76211"/><stop offset=".819" stop-color="#E25210"/><stop offset=".902" stop-color="#D9380D"/><stop offset=".99" stop-color="#CD1509"/><stop offset="1" stop-color="#CB1009"/></radialGradient><path fill="url(#G)" d="M34.78 16.92l-6.75 2.6-.4-.72 5.72-4.6 1.43 2.72z"/><g><radialGradient id="H" cx="1137.794" cy="96.17" r="6.168" gradientUnits="userSpaceOnUse" gradientTransform="matrix(.174 -.985 .985 .174 -263.743 1122.992)" fy="96.17" fx="1137.794"><stop offset="0" stop-color="#EAA990"/><stop offset=".539" stop-color="#CB1009"/><stop offset=".613" stop-color="#C61009"/><stop offset=".706" stop-color="#B60F09"/><stop offset=".808" stop-color="#9C0E09"/><stop offset=".918" stop-color="#790C08"/><stop offset="1" stop-color="#590B08"/></radialGradient><path fill="url(#H)" d="M27.83 19.16l4.72-4.37-.2-.37-4.73 4.37.2.36z"/></g><g><radialGradient id="I" cx="1138.261" cy="95.792" r="6.085" gradientUnits="userSpaceOnUse" gradientTransform="matrix(.174 -.985 .985 .174 -263.743 1122.992)" fy="95.792" fx="1138.261"><stop offset="0" stop-color="#EAA990"/><stop offset=".539" stop-color="#CB1009"/><stop offset=".613" stop-color="#C61009"/><stop offset=".706" stop-color="#B60F09"/><stop offset=".808" stop-color="#9C0E09"/><stop offset=".918" stop-color="#790C08"/><stop offset="1" stop-color="#590B08"/></radialGradient><path fill="url(#I)" d="M28.03 19.53l6.14-1.92-.2-.37-6.14 1.93.2.37z"/></g></g><circle cx="25.987" cy="20.166" r="1.129" fill="#162b4d" sodipodi:ry="1.129" sodipodi:rx="1.129" sodipodi:cy="20.166" sodipodi:cx="25.987"/></svg>