<svg xmlns="http://www.w3.org/2000/svg" width="48" height="48"><defs><radialGradient id="a" cx="-134.64" cy="267.786" r="7.555" gradientUnits="userSpaceOnUse" gradientTransform="matrix(-.707 -.707 .707 -.707 -247.778 102.102)" fy="267.786" fx="-134.64"><stop offset="0" stop-color="#fff"/><stop offset=".09" stop-color="#DBE8F2"/><stop offset=".248" stop-color="#A2C3DE"/><stop offset=".395" stop-color="#75A6CD"/><stop offset=".525" stop-color="#5591C2"/><stop offset=".634" stop-color="#4185BB"/><stop offset=".708" stop-color="#3A80B8"/><stop offset="1" stop-color="#244A87"/></radialGradient><radialGradient id="b" cx="468.859" cy="956.379" r="11.725" gradientUnits="userSpaceOnUse" gradientTransform="matrix(.707 -.707 .707 .707 -971.895 -339.644)" fy="956.379" fx="468.859"><stop offset="0" stop-color="#fff"/><stop offset=".685" stop-color="#2E659E"/><stop offset="1" stop-color="#1D3E63"/></radialGradient><linearGradient id="c" x1="941" x2="941" y1="642.46" y2="656.871" gradientUnits="userSpaceOnUse" gradientTransform="matrix(1 0 -.218 1 -776.467 -628.034)"><stop offset="0" stop-color="#FAAF3E"/><stop offset="1" stop-color="#E96712"/></linearGradient></defs><g><path fill="none" stroke="#efeeec" stroke-width="4.5" d="M44.45 10.07c0 3.37-2.73 6.1-6.1 6.1-3.37 0-6.1-2.73-6.1-6.1 0-3.37 2.73-6.1 6.1-6.1 3.37 0 6.1 2.73 6.1 6.1z"/><path fill="none" stroke="#152a4c" stroke-width="2" d="M34.52 6.38c2.1-2.1 5.53-2.1 7.64 0 2.1 2.1 2.1 5.52 0 7.63-2.1 2.12-5.53 2.12-7.64.02-2.1-2.1-2.1-5.53 0-7.64z"/><path fill="url(#a)" d="M34.52 6.38c2.1-2.1 5.53-2.1 7.64 0 2.1 2.1 2.1 5.52 0 7.63-2.1 2.12-5.53 2.12-7.64.02-2.1-2.1-2.1-5.53 0-7.64z"/><path fill="url(#b)" d="M34.52 14.02c1.02 1 2.37 1.58 3.8 1.58 1.46 0 2.8-.56 3.84-1.6 1-1 1.58-2.36 1.58-3.8 0-1.45-.56-2.8-1.58-3.82-2.1-2.1-5.53-2.1-7.64 0-2.1 2.1-2.1 5.53 0 7.64zM41.55 7c.85.84 1.33 1.98 1.33 3.2 0 1.2-.48 2.35-1.33 3.2-.86.86-2 1.34-3.2 1.33-1.23 0-2.37-.46-3.22-1.32-1.77-1.76-1.77-4.65 0-6.42 1.77-1.76 4.65-1.76 6.42 0z"/><path fill="url(#c)" stroke="#590b08" stroke-width="1.5" d="M36.33 11.65l-12.4 15.58 6.95.63c.2.02.22.2 0 .4-.1.1-.23.2-.37.26h.02l-17 6.4c-.7.25-1 .22-1.1-.1L8 26.5c0-.07.07-.3.17-.42.2-.2.52-.22.73-.2l5.87.53 21.56-14.75z"/><path fill="none" stroke="#faaf3e" d="M15.13 27S29.27 16.96 35 12.9c-4 4.78-12.5 14.96-12.5 14.96s4.03.36 6.1.54c.04 0 .03.05-.03.07-3.02 1.14-15.3 5.75-15.38 5.78-.05 0-.14 0-.16-.03-.38-.7-3.36-6.34-3.98-7.5 0-.04.03-.08.08-.08 1 .1 5.7.52 5.7.52l.3-.2z"/><path fill="#ef2929" stroke="#eeeeec" d="M4.5 34.95v4h-4v4h4v4h4v-4h4v-4h-4v-4h-4z" color="#000" stroke-linecap="round" overflow="visible"/></g></svg>