<svg xmlns="http://www.w3.org/2000/svg" width="48.25" height="48.25" overflow="visible"><defs><linearGradient id="a" x1="33.852" x2="24.255" y1="33.825" y2="32.281" gradientUnits="userSpaceOnUse"><stop offset="0" stop-color="#A0C6DE"/><stop offset="1" stop-color="#fff"/></linearGradient><linearGradient id="c" x1="14.137" x2="23.266" y1="14.35" y2="15.759" gradientUnits="userSpaceOnUse"><stop offset="0" stop-color="#A0C6DE"/><stop offset="1" stop-color="#fff"/></linearGradient><linearGradient id="e" x1="5.08" x2="1.858" y1="22.922" y2="16.546" gradientUnits="userSpaceOnUse"><stop offset="0" stop-color="#A0C6DE"/><stop offset="1" stop-color="#fff"/></linearGradient><linearGradient id="g" x1="42.033" x2="45.926" y1="24.269" y2="29.839" gradientUnits="userSpaceOnUse"><stop offset="0" stop-color="#A0C6DE"/><stop offset="1" stop-color="#fff"/></linearGradient></defs><path fill="url(#a)" d="M25.5 31.56c.8.07 9.65.62 10.67.7-.14.86-.36 3-.5 3.8-.9-.16-10.55-2.2-11.56-2.36l1.4-2.14z"/><circle cx="24.125" cy="24.125" r="1.338" fill="#162b4d"/><g><linearGradient id="b" x1="-212.98" x2="-202.601" y1="-193.304" y2="-191.67" gradientTransform="matrix(.5 .866 -.866 .5 -31.719 310.988)" gradientUnits="userSpaceOnUse"><stop offset="0" stop-color="#fff"/><stop offset="1" stop-color="#B7D0DC"/></linearGradient><path fill="url(#b)" d="M23.46 34.7l13.1 2.57.87-5.98-11.27-.8-2.7 4.2zm2.02-3.14c.8.07 9.67.62 10.7.7-.16.86-.37 3-.5 3.8-.92-.16-10.56-2.2-11.57-2.36l1.38-2.14z"/></g><path fill="url(#c)" d="M22.54 16.64c-.8-.07-9.67-.63-10.7-.7.16-.86.37-3.02.5-3.8.92.15 10.56 2.2 11.57 2.36l-1.36 2.14z"/><g><linearGradient id="d" x1="-643.854" x2="-633.474" y1="401.295" y2="402.929" gradientTransform="matrix(-.5 -.866 .866 -.5 -650.587 -338.792)" gradientUnits="userSpaceOnUse"><stop offset="0" stop-color="#fff"/><stop offset="1" stop-color="#B7D0DC"/></linearGradient><path fill="url(#d)" d="M24.57 13.48l-13.1-2.56-.87 5.98 11.27.78 2.7-4.2zm-2.03 3.16c-.8-.07-9.67-.63-10.68-.7.14-.86.36-3.02.5-3.8.9.15 10.55 2.2 11.56 2.36l-1.38 2.14z"/></g><path fill="url(#e)" d="M1.94 16.84c.5.63 5.74 6.78 6.38 7.57-.7.5-2.4 1.83-3.07 2.28-.52-.77-3.35-5.45-3.94-6.3l.64-3.54z"/><g><linearGradient id="f" x1="-516.134" x2="-505.755" y1="-237.943" y2="-236.309" gradientTransform="matrix(-.278 .96 -.96 -.278 -365.302 448.032)" gradientUnits="userSpaceOnUse"><stop offset="0" stop-color="#fff"/><stop offset="1" stop-color="#B7D0DC"/></linearGradient><path fill="url(#f)" d="M.13 20.62l4.85 7.54 4.92-3.52-7.25-8.67-2.52 4.65zm1.8-3.78c.52.63 5.75 6.78 6.4 7.57-.72.5-2.42 1.83-3.08 2.27-.53-.76-3.36-5.45-3.94-6.28l.64-3.56z"/></g><path fill="url(#g)" d="M45.58 31.1c-.5-.62-5.74-6.77-6.4-7.57.73-.48 2.43-1.8 3.1-2.26.5.76 3.34 5.45 3.93 6.3l-.62 3.54z"/><g><linearGradient id="h" x1="-385.746" x2="-375.366" y1="460.689" y2="462.323" gradientTransform="matrix(.278 -.96 .96 .278 -294.445 -469.356)" gradientUnits="userSpaceOnUse"><stop offset="0" stop-color="#fff"/><stop offset="1" stop-color="#B7D0DC"/></linearGradient><path fill="url(#h)" d="M47.4 27.33l-4.86-7.54-4.92 3.5L44.87 32l2.52-4.65zm-1.82 3.78c-.5-.62-5.74-6.77-6.38-7.56.7-.48 2.4-1.82 3.07-2.27.52.77 3.35 5.45 3.94 6.3l-.62 3.54z"/></g><path fill="none" stroke="#709ec3" d="M1.68 18.1C.26 23.43 9 30.23 21.58 33.6c12.6 3.37 23.57 1.85 25-3.46 1.4-5.3-7.33-12.1-19.92-15.48C14.08 11.3 3.1 12.8 1.68 18.1z" opacity=".2"/><g opacity=".5"><linearGradient id="i" x1="2.025" x2="46.227" y1="24.125" y2="24.125" gradientUnits="userSpaceOnUse"><stop offset="0" stop-color="#fff"/><stop offset=".129" stop-color="#A0C6DE"/><stop offset=".522" stop-color="#fff"/><stop offset=".848" stop-color="#A0C6DE"/><stop offset="1" stop-color="#fff"/></linearGradient><path fill="url(#i)" d="M2.17 18.24C.8 23.28 9.4 29.8 21.71 33.1c12.3 3.3 23.02 1.95 24.37-3.1 1.34-5.03-7.25-11.56-19.57-14.86-12.3-3.3-23.02-1.94-24.37 3.1zm24.1-2.13c11.38 3.06 20 9.3 18.85 13.65-1.16 4.35-11.76 5.44-23.14 2.4-11.38-3.05-20-9.3-18.85-13.65 1.17-4.35 11.76-5.44 23.14-2.4z"/></g><path fill="none" stroke="#709ec3" d="M3.6 18.63c-.04.2-.07.42-.07.65 0 3.63 7.2 9.33 18.58 12.38 12.1 3.24 21.58 1.53 22.54-2.04.95-3.56-6.4-9.8-18.5-13.03-12.08-3.25-21.57-1.54-22.53 2.03z" opacity=".2"/><g><circle cx="36.985" cy="34.278" r="2.104" fill="none" stroke="#152a4c" stroke-width="1.5"/><radialGradient id="j" cx="81.7" cy="138.319" r="2.956" gradientUnits="userSpaceOnUse" gradientTransform="matrix(0 -1 1 0 -101.816 115.209)" fy="138.319" fx="81.7"><stop offset="0" stop-color="#fff"/><stop offset=".09" stop-color="#DBE8F2"/><stop offset=".248" stop-color="#A2C3DE"/><stop offset=".395" stop-color="#75A6CD"/><stop offset=".525" stop-color="#5591C2"/><stop offset=".634" stop-color="#4185BB"/><stop offset=".708" stop-color="#3A80B8"/><stop offset="1" stop-color="#244A87"/></radialGradient><circle cx="36.985" cy="34.278" r="2.104" fill="url(#j)"/><g><radialGradient id="k" cx="-34.035" cy="137.579" r="5.213" gradientUnits="userSpaceOnUse" gradientTransform="matrix(0 1 1 0 -101.816 66.555)" fy="137.579" fx="-34.035"><stop offset="0" stop-color="#fff"/><stop offset=".685" stop-color="#2E659E"/><stop offset="1" stop-color="#1D3E63"/></radialGradient><path fill="url(#k)" d="M34.88 34.28c0 .56.22 1.1.6 1.48.4.4.94.62 1.5.62.57 0 1.1-.22 1.5-.62.4-.4.6-.92.6-1.48 0-1.16-.93-2.1-2.1-2.1-1.16 0-2.1.94-2.1 2.1zm3.87 0c0 .47-.18.9-.5 1.25-.35.33-.8.52-1.27.52s-.9-.2-1.25-.52c-.33-.34-.52-.78-.52-1.25 0-.98.8-1.77 1.78-1.77s1.77.8 1.77 1.78z"/></g></g><g><circle cx="11.073" cy="13.818" r="2.104" fill="none" stroke="#152a4c" stroke-width="1.5"/><radialGradient id="l" cx="102.16" cy="112.407" r="2.956" gradientUnits="userSpaceOnUse" gradientTransform="matrix(0 -1 1 0 -101.816 115.209)" fy="112.407" fx="102.16"><stop offset="0" stop-color="#fff"/><stop offset=".09" stop-color="#DBE8F2"/><stop offset=".248" stop-color="#A2C3DE"/><stop offset=".395" stop-color="#75A6CD"/><stop offset=".525" stop-color="#5591C2"/><stop offset=".634" stop-color="#4185BB"/><stop offset=".708" stop-color="#3A80B8"/><stop offset="1" stop-color="#244A87"/></radialGradient><circle cx="11.073" cy="13.818" r="2.104" fill="url(#l)"/><g><radialGradient id="m" cx="-54.495" cy="111.667" r="5.213" gradientUnits="userSpaceOnUse" gradientTransform="matrix(0 1 1 0 -101.816 66.555)" fy="111.667" fx="-54.495"><stop offset="0" stop-color="#fff"/><stop offset=".685" stop-color="#2E659E"/><stop offset="1" stop-color="#1D3E63"/></radialGradient><path fill="url(#m)" d="M8.97 13.82c0 .56.2 1.1.6 1.48.4.4.94.62 1.5.62s1.1-.22 1.5-.62c.4-.4.6-.92.6-1.48 0-1.16-.94-2.1-2.1-2.1-1.16 0-2.1.94-2.1 2.1zm3.87 0c0 .47-.18.9-.52 1.25-.33.33-.78.52-1.25.52s-.92-.2-1.25-.53c-.33-.34-.52-.78-.52-1.25 0-.98.8-1.77 1.77-1.77.98 0 1.77.8 1.77 1.77z"/></g></g><g><circle cx="7.321" cy="26.062" r="2.104" fill="none" stroke="#152a4c" stroke-width="1.5"/><radialGradient id="n" cx="89.917" cy="108.655" r="2.957" gradientUnits="userSpaceOnUse" gradientTransform="matrix(0 -1 1 0 -101.816 115.209)" fy="108.655" fx="89.917"><stop offset="0" stop-color="#fff"/><stop offset=".09" stop-color="#DBE8F2"/><stop offset=".248" stop-color="#A2C3DE"/><stop offset=".395" stop-color="#75A6CD"/><stop offset=".525" stop-color="#5591C2"/><stop offset=".634" stop-color="#4185BB"/><stop offset=".708" stop-color="#3A80B8"/><stop offset="1" stop-color="#244A87"/></radialGradient><circle cx="7.321" cy="26.062" r="2.104" fill="url(#n)"/><g><radialGradient id="o" cx="-42.251" cy="107.915" r="5.213" gradientUnits="userSpaceOnUse" gradientTransform="matrix(0 1 1 0 -101.816 66.555)" fy="107.915" fx="-42.251"><stop offset="0" stop-color="#fff"/><stop offset=".685" stop-color="#2E659E"/><stop offset="1" stop-color="#1D3E63"/></radialGradient><path fill="url(#o)" d="M5.2 26.06c0 .56.23 1.1.63 1.5.4.4.93.6 1.5.6.55 0 1.08-.2 1.48-.6.4-.4.63-.93.63-1.5 0-1.16-.95-2.1-2.1-2.1-1.17 0-2.12.94-2.12 2.1zm3.9 0c0 .48-.2.92-.53 1.25-.33.35-.78.53-1.25.53s-.92-.18-1.25-.52c-.33-.32-.52-.76-.52-1.24 0-.97.8-1.77 1.77-1.77s1.77.8 1.77 1.76z"/></g></g><g><circle cx="40.321" cy="21.75" r="2.104" fill="none" stroke="#152a4c" stroke-width="1.5"/><radialGradient id="p" cx="94.228" cy="141.655" r="2.957" gradientUnits="userSpaceOnUse" gradientTransform="matrix(0 -1 1 0 -101.816 115.209)" fy="141.655" fx="94.228"><stop offset="0" stop-color="#fff"/><stop offset=".09" stop-color="#DBE8F2"/><stop offset=".248" stop-color="#A2C3DE"/><stop offset=".395" stop-color="#75A6CD"/><stop offset=".525" stop-color="#5591C2"/><stop offset=".634" stop-color="#4185BB"/><stop offset=".708" stop-color="#3A80B8"/><stop offset="1" stop-color="#244A87"/></radialGradient><circle cx="40.321" cy="21.75" r="2.104" fill="url(#p)"/><g><radialGradient id="q" cx="-46.563" cy="140.915" r="5.213" gradientUnits="userSpaceOnUse" gradientTransform="matrix(0 1 1 0 -101.816 66.555)" fy="140.915" fx="-46.563"><stop offset="0" stop-color="#fff"/><stop offset=".685" stop-color="#2E659E"/><stop offset="1" stop-color="#1D3E63"/></radialGradient><path fill="url(#q)" d="M38.22 21.75c0 .56.2 1.1.6 1.5.4.4.94.6 1.5.6s1.1-.2 1.5-.6c.4-.4.6-.94.6-1.5 0-1.16-.94-2.1-2.1-2.1-1.16 0-2.1.94-2.1 2.1zm3.87 0c0 .47-.2.9-.53 1.25-.33.34-.78.52-1.25.52s-.92-.18-1.25-.52c-.34-.34-.52-.78-.52-1.25 0-.98.8-1.77 1.77-1.77.98 0 1.77.8 1.77 1.77z"/></g></g></svg>