<svg xmlns="http://www.w3.org/2000/svg" width="48" height="48"><defs><radialGradient id="b" cx="862.299" cy="399.452" r="10.315" gradientUnits="userSpaceOnUse" gradientTransform="matrix(0 1 1 0 199.669 -234.93)" fy="399.452" fx="862.299"><stop offset="0" stop-color="#fff"/><stop offset=".685" stop-color="#2E659E"/><stop offset="1" stop-color="#1D3E63"/></radialGradient><radialGradient id="a" cx="194.917" cy="400.917" r="5.851" gradientUnits="userSpaceOnUse" gradientTransform="matrix(0 -1 1 0 199.669 824.239)" fy="400.917" fx="194.917"><stop offset="0" stop-color="#fff"/><stop offset=".09" stop-color="#DBE8F2"/><stop offset=".248" stop-color="#A2C3DE"/><stop offset=".395" stop-color="#75A6CD"/><stop offset=".525" stop-color="#5591C2"/><stop offset=".634" stop-color="#4185BB"/><stop offset=".708" stop-color="#3A80B8"/><stop offset="1" stop-color="#244A87"/></radialGradient><radialGradient id="d" cx="887.985" cy="420.263" r="12.334" gradientUnits="userSpaceOnUse" gradientTransform="matrix(0 1 1 0 199.669 -234.93)" fy="420.263" fx="887.985"><stop offset="0" stop-color="#fff"/><stop offset=".685" stop-color="#2E659E"/><stop offset="1" stop-color="#1D3E63"/></radialGradient><radialGradient id="c" cx="168.847" cy="422.014" r="6.996" gradientUnits="userSpaceOnUse" gradientTransform="matrix(0 -1 1 0 199.669 824.239)" fy="422.014" fx="168.847"><stop offset="0" stop-color="#fff"/><stop offset=".09" stop-color="#DBE8F2"/><stop offset=".248" stop-color="#A2C3DE"/><stop offset=".395" stop-color="#75A6CD"/><stop offset=".525" stop-color="#5591C2"/><stop offset=".634" stop-color="#4185BB"/><stop offset=".708" stop-color="#3A80B8"/><stop offset="1" stop-color="#244A87"/></radialGradient><linearGradient id="e" x1="682.95" x2="672.133" y1="804.279" y2="804.279" gradientTransform="matrix(-.334 -.943 .943 -.334 76.393 1542.725)" gradientUnits="userSpaceOnUse"><stop offset="0" stop-color="#E96712"/><stop offset=".648" stop-color="#D4290C"/><stop offset="1" stop-color="#CB1009"/></linearGradient><linearGradient id="f" x1="602.578" x2="615.501" y1="632.237" y2="646.119" gradientUnits="userSpaceOnUse" gradientTransform="translate(-588.747 -622.711)"><stop offset="0" stop-color="#E96712"/><stop offset=".648" stop-color="#D4290C"/><stop offset="1" stop-color="#CB1009"/></linearGradient></defs><g><path fill="none" stroke="#555753" stroke-width=".5" d="M1.6 14.72L29.37 2.98"/><path fill="none" stroke="#555753" stroke-width=".5" d="M47.4 26.1L21.85 46.75"/><path fill="none" stroke="#555753" stroke-width=".5" d="M.84 29.42l17.98 17.2"/><path fill="none" stroke="#555753" stroke-width=".5" d="M15.83 2.67L47.3 14.15"/><path fill="none" stroke="#555753" stroke-width=".5" d="M3.3 5.37l44.14 21.9"/><path fill="none" stroke="#555753" stroke-width=".5" d="M1.97 14.97L43.5 43.53"/><path fill="none" stroke="#555753" stroke-width=".5" d="M44.5 4.18L1.33 26.38"/><path fill="none" stroke="#555753" stroke-width=".5" d="M1.95 41.24L46.98 12.6"/><path fill="#fff" stroke="#fff" stroke-width="1.5" d="M8.63 8.13c0 1.12.43 2.17 1.22 2.95.8.8 1.83 1.22 2.94 1.22 1.1 0 2.15-.43 2.94-1.22.8-.78 1.22-1.83 1.22-2.95 0-2.3-1.87-4.16-4.17-4.16S8.62 5.84 8.62 8.13z"/><g transform="translate(-588.747 -622.711)" opacity=".7"><circle cx="601.541" cy="630.846" r="4.164" fill="none" stroke="#152a4c" stroke-width="1.5"/><radialGradient cx="194.917" cy="400.917" r="5.851" gradientUnits="userSpaceOnUse" gradientTransform="matrix(0 -1 1 0 199.669 824.239)" fy="400.917" fx="194.917"><stop offset="0" stop-color="#fff"/><stop offset=".09" stop-color="#DBE8F2"/><stop offset=".248" stop-color="#A2C3DE"/><stop offset=".395" stop-color="#75A6CD"/><stop offset=".525" stop-color="#5591C2"/><stop offset=".634" stop-color="#4185BB"/><stop offset=".708" stop-color="#3A80B8"/><stop offset="1" stop-color="#244A87"/></radialGradient><circle cx="601.541" cy="630.846" r="4.164" fill="url(#a)"/><g><radialGradient cx="862.299" cy="399.452" r="10.315" gradientUnits="userSpaceOnUse" gradientTransform="matrix(0 1 1 0 199.669 -234.93)" fy="399.452" fx="862.299"><stop offset="0" stop-color="#fff"/><stop offset=".685" stop-color="#2E659E"/><stop offset="1" stop-color="#1D3E63"/></radialGradient><path fill="url(#b)" d="M597.37 630.85c0 1.1.43 2.16 1.22 2.94.78.78 1.82 1.2 2.94 1.2 1.1 0 2.16-.42 2.95-1.2.77-.8 1.2-1.84 1.2-2.95 0-2.3-1.86-4.17-4.16-4.17s-4.17 1.87-4.17 4.17zm7.67 0c0 .93-.36 1.8-1.02 2.47-.67.66-1.55 1.03-2.48 1.03-.94 0-1.82-.37-2.48-1.03-.66-.66-1.02-1.54-1.02-2.48 0-1.92 1.57-3.5 3.5-3.5s3.5 1.58 3.5 3.5z"/></g></g><g transform="translate(-588.747 -622.711)"><path fill="none" stroke="#152a4c" stroke-width="2" d="M622.83 652.23c2.75 0 4.97 2.23 4.97 4.98 0 2.76-2.22 5-4.97 5-2.76 0-5-2.24-5-5 0-2.74 2.24-4.97 5-4.97z"/><radialGradient cx="168.847" cy="422.014" r="6.996" gradientUnits="userSpaceOnUse" gradientTransform="matrix(0 -1 1 0 199.669 824.239)" fy="422.014" fx="168.847"><stop offset="0" stop-color="#fff"/><stop offset=".09" stop-color="#DBE8F2"/><stop offset=".248" stop-color="#A2C3DE"/><stop offset=".395" stop-color="#75A6CD"/><stop offset=".525" stop-color="#5591C2"/><stop offset=".634" stop-color="#4185BB"/><stop offset=".708" stop-color="#3A80B8"/><stop offset="1" stop-color="#244A87"/></radialGradient><path fill="url(#c)" d="M622.83 652.23c2.75 0 4.97 2.23 4.97 4.98 0 2.76-2.22 5-4.97 5-2.76 0-5-2.24-5-5 0-2.74 2.24-4.97 5-4.97z"/><g><radialGradient cx="887.985" cy="420.263" r="12.334" gradientUnits="userSpaceOnUse" gradientTransform="matrix(0 1 1 0 199.669 -234.93)" fy="420.263" fx="887.985"><stop offset="0" stop-color="#fff"/><stop offset=".685" stop-color="#2E659E"/><stop offset="1" stop-color="#1D3E63"/></radialGradient><path fill="url(#d)" d="M617.84 657.2c0 1.34.5 2.6 1.46 3.53.94.95 2.2 1.46 3.53 1.46 1.32 0 2.57-.52 3.52-1.47.94-.94 1.45-2.18 1.45-3.52 0-2.73-2.23-4.97-4.97-4.97-2.75 0-5 2.24-5 4.98zm9.17 0c0 1.13-.42 2.18-1.22 2.97-.8.8-1.84 1.23-2.95 1.23-1.13 0-2.18-.43-2.97-1.23-.8-.8-1.23-1.84-1.23-2.96 0-2.3 1.9-4.18 4.2-4.18 2.3 0 4.18 1.88 4.18 4.2z"/></g></g><path fill="url(#e)" d="M617.12 642.87l-13.45-11.08-2.37.63 8.35 11.73 7.47-1.3z" transform="translate(-588.747 -622.711)"/><path fill="url(#f)" stroke="#590b08" stroke-width=".5" d="M14.93 9.08L29.57 20.9l4.25-1.5c.2-.07.4.03.47.22.02.1-.04.3-.04.3 0-.03-3.16 9.28-3.16 9.28-.17.36-.6.5-.97.34l-12.3-3.83v.02c-.08-.04-.15-.12-.2-.2-.05-.2.05-.4.24-.48l4.2-1.48-9.52-13.84"/><path fill="none" stroke="#f62724" d="M14.46 9.67l14.96 12.08s2.86-1.02 3.9-1.38c-.72 2.1-2.96 8.45-2.96 8.45s-9.22-2.87-11.14-3.46c1.2-.43 4-1.42 4-1.42L13.6 9.92l.86-.25z"/><path fill="none" stroke="#f62724" d="M28.86 21.38L14.3 9.57"/></g></svg>