<svg xmlns="http://www.w3.org/2000/svg" width="48" height="48" xmlns:xlink="http://www.w3.org/1999/xlink" viewBox="0 0 46.858 40.246" overflow="visible" enable-background="new 0 0 46.858 40.246" version="1"><defs><linearGradient id="g"><stop offset="0" stop-color="#204a87"/><stop offset="1" stop-color="#142f57"/></linearGradient><linearGradient id="f"><stop offset="0" stop-color="#729fcf"/><stop offset="1" stop-color="#204a87"/></linearGradient><linearGradient id="e"><stop offset="0" stop-color="#eeeeec" stop-opacity="0"/><stop offset=".5" stop-color="#fff" stop-opacity=".502"/><stop offset="1" stop-color="#eeeeec" stop-opacity="0"/></linearGradient><linearGradient id="d"><stop offset="0" stop-color="#eeeeec"/><stop offset="1" stop-color="#eeeeec" stop-opacity="0"/></linearGradient><linearGradient id="c"><stop offset="0" stop-color="#729fcf"/><stop offset="1" stop-color="#729fcf" stop-opacity="0"/></linearGradient><linearGradient id="b"><stop offset="0" stop-color="#11284a"/><stop offset="1" stop-color="#3465a4"/></linearGradient><radialGradient cx="87.831" cy="109.621" r="3.879" xlink:href="#a" gradientUnits="userSpaceOnUse" gradientTransform="matrix(0 -1 1 0 -97.915 109.665)" fx="87.831" fy="109.621"/><radialGradient cx="-42.116" cy="108.65" r="6.838" xlink:href="#XMLID_74_" gradientUnits="userSpaceOnUse" gradientTransform="matrix(0 1 1 0 -97.915 62.653)" fx="-42.116" fy="108.65"/><radialGradient cx="87.831" cy="109.621" r="3.879" xlink:href="#a" gradientUnits="userSpaceOnUse" gradientTransform="matrix(0 -1 1 0 -97.915 109.665)" fx="87.831" fy="109.621"/><radialGradient cx="-42.116" cy="108.65" r="6.838" xlink:href="#XMLID_74_" gradientUnits="userSpaceOnUse" gradientTransform="matrix(0 1 1 0 -97.915 62.653)" fx="-42.116" fy="108.65"/><radialGradient id="a" cx="87.831" cy="109.621" r="3.879" gradientUnits="userSpaceOnUse" gradientTransform="matrix(0 -1 1 0 -97.915 109.665)" fy="109.621" fx="87.831"><stop offset="0" stop-color="#fff"/><stop offset=".09" stop-color="#DBE8F2"/><stop offset=".248" stop-color="#A2C3DE"/><stop offset=".395" stop-color="#75A6CD"/><stop offset=".525" stop-color="#5591C2"/><stop offset=".634" stop-color="#4185BB"/><stop offset=".708" stop-color="#3A80B8"/><stop offset="1" stop-color="#244A87"/></radialGradient><radialGradient cx="-42.116" cy="108.65" r="6.838" xlink:href="#XMLID_74_" gradientUnits="userSpaceOnUse" gradientTransform="matrix(0 1 1 0 -97.915 62.653)" fx="-42.116" fy="108.65"/><radialGradient cx="87.831" cy="109.621" r="3.879" xlink:href="#a" gradientUnits="userSpaceOnUse" gradientTransform="matrix(0 -1 1 0 -97.915 109.665)" fx="87.831" fy="109.621"/><radialGradient cx="-42.116" cy="108.65" r="6.838" xlink:href="#XMLID_74_" gradientUnits="userSpaceOnUse" gradientTransform="matrix(0 1 1 0 -97.915 62.653)" fx="-42.116" fy="108.65"/><radialGradient cx="87.831" cy="109.621" r="3.879" gradientUnits="userSpaceOnUse" gradientTransform="matrix(0 -1 1 0 -97.915 109.665)" fy="109.621" fx="87.831"><stop offset="0" stop-color="#fff"/><stop offset=".09" stop-color="#DBE8F2"/><stop offset=".248" stop-color="#A2C3DE"/><stop offset=".395" stop-color="#75A6CD"/><stop offset=".525" stop-color="#5591C2"/><stop offset=".634" stop-color="#4185BB"/><stop offset=".708" stop-color="#3A80B8"/><stop offset="1" stop-color="#244A87"/></radialGradient><radialGradient cx="-42.116" cy="108.65" r="6.838" xlink:href="#XMLID_74_" gradientUnits="userSpaceOnUse" gradientTransform="matrix(0 1 1 0 -97.915 62.653)" fx="-42.116" fy="108.65"/><radialGradient cx="-42.116" cy="108.65" r="6.838" xlink:href="#XMLID_74_" gradientUnits="userSpaceOnUse" gradientTransform="matrix(0 1 1 0 -97.915 62.653)" fx="-42.116" fy="108.65"/><radialGradient cx="87.831" cy="109.621" r="3.879" xlink:href="#a" gradientUnits="userSpaceOnUse" gradientTransform="matrix(0 -1 1 0 -97.915 109.665)" fx="87.831" fy="109.621"/><radialGradient cx="87.831" cy="109.621" r="3.879" xlink:href="#a" gradientUnits="userSpaceOnUse" gradientTransform="matrix(0 -1 1 0 -97.915 109.665)" fx="87.831" fy="109.621"/><radialGradient id="l" cx="-42.116" cy="108.65" r="6.838" xlink:href="#XMLID_74_" gradientUnits="userSpaceOnUse" gradientTransform="matrix(0 1 1 0 -97.915 62.653)" fx="-42.116" fy="108.65"/><radialGradient cx="87.831" cy="109.621" r="3.879" xlink:href="#a" gradientUnits="userSpaceOnUse" gradientTransform="matrix(0 -1 1 0 -97.915 109.665)" fx="87.831" fy="109.621"/><radialGradient cx="-42.116" cy="108.65" r="6.838" xlink:href="#XMLID_74_" gradientUnits="userSpaceOnUse" gradientTransform="matrix(0 1 1 0 -97.915 62.653)" fx="-42.116" fy="108.65"/><radialGradient cx="87.831" cy="109.621" r="3.879" xlink:href="#a" gradientUnits="userSpaceOnUse" gradientTransform="matrix(0 -1 1 0 -97.915 109.665)" fx="87.831" fy="109.621"/><radialGradient cx="-42.116" cy="108.65" r="6.838" xlink:href="#XMLID_74_" gradientUnits="userSpaceOnUse" gradientTransform="matrix(0 1 1 0 -97.915 62.653)" fx="-42.116" fy="108.65"/><linearGradient x1="15.241" x2="30.657" y1="5.544" y2="14.11" xlink:href="#b" gradientUnits="userSpaceOnUse" gradientTransform="translate(-2.317 -4.143)"/><linearGradient x1="24.077" x2="21.917" y1="11.145" y2="16.271" xlink:href="#c" gradientUnits="userSpaceOnUse" gradientTransform="translate(-1.685 -5.126)"/><linearGradient x1="22.128" x2="19.381" y1="10.443" y2="14.656" xlink:href="#d" gradientUnits="userSpaceOnUse" gradientTransform="translate(-1.685 -5.126)"/><linearGradient x1="8.707" x2="13.412" y1="19.923" y2="22.872" xlink:href="#e" gradientUnits="userSpaceOnUse" gradientTransform="translate(-2.317 -4.143)"/><linearGradient x1="16.942" x2="23.476" y1="22.453" y2="26.175" xlink:href="#f" gradientUnits="userSpaceOnUse" gradientTransform="translate(-2.317 -4.143)"/><linearGradient x1="8.021" x2="25.372" y1="15.08" y2="24.77" xlink:href="#g" gradientUnits="userSpaceOnUse" gradientTransform="translate(-2.317 -4.143)"/><linearGradient id="p" x1="15.241" x2="30.657" y1="5.544" y2="14.11" xlink:href="#b" gradientUnits="userSpaceOnUse" gradientTransform="translate(-2.317 -4.143)"/><linearGradient id="q" x1="22.128" x2="19.381" y1="10.443" y2="14.656" xlink:href="#d" gradientUnits="userSpaceOnUse" gradientTransform="translate(-1.685 -5.126)"/><linearGradient id="r" x1="24.077" x2="21.917" y1="11.145" y2="16.271" xlink:href="#c" gradientUnits="userSpaceOnUse" gradientTransform="translate(-1.685 -5.126)"/><radialGradient id="s" cx="87.831" cy="109.621" r="3.879" xlink:href="#a" gradientUnits="userSpaceOnUse" gradientTransform="matrix(0 -1 1 0 -97.915 109.665)" fx="87.831" fy="109.621"/><linearGradient id="t" x1="16.942" x2="23.476" y1="22.453" y2="26.175" xlink:href="#f" gradientUnits="userSpaceOnUse" gradientTransform="translate(-2.317 -4.143)"/><linearGradient id="u" x1="8.021" x2="25.372" y1="15.08" y2="24.77" xlink:href="#g" gradientUnits="userSpaceOnUse" gradientTransform="translate(-2.317 -4.143)"/><linearGradient id="v" x1="8.707" x2="13.412" y1="19.923" y2="22.872" xlink:href="#e" gradientUnits="userSpaceOnUse" gradientTransform="translate(-2.317 -4.143)"/><linearGradient id="w" x1="15.241" x2="30.657" y1="5.544" y2="14.11" xlink:href="#b" gradientUnits="userSpaceOnUse" gradientTransform="translate(-2.317 -4.143)"/><linearGradient id="x" x1="22.128" x2="19.381" y1="10.443" y2="14.656" xlink:href="#d" gradientUnits="userSpaceOnUse" gradientTransform="translate(-1.685 -5.126)"/><linearGradient id="y" x1="24.077" x2="21.917" y1="11.145" y2="16.271" xlink:href="#c" gradientUnits="userSpaceOnUse" gradientTransform="translate(-1.685 -5.126)"/><radialGradient id="z" cx="87.831" cy="109.621" r="3.879" xlink:href="#a" gradientUnits="userSpaceOnUse" gradientTransform="matrix(0 -1 1 0 -97.915 109.665)" fx="87.831" fy="109.621"/><linearGradient id="A" x1="16.942" x2="23.476" y1="22.453" y2="26.175" xlink:href="#f" gradientUnits="userSpaceOnUse" gradientTransform="translate(-2.317 -4.143)"/><linearGradient id="B" x1="8.021" x2="25.372" y1="15.08" y2="24.77" xlink:href="#g" gradientUnits="userSpaceOnUse" gradientTransform="translate(-2.317 -4.143)"/><linearGradient id="C" x1="8.707" x2="13.412" y1="19.923" y2="22.872" xlink:href="#e" gradientUnits="userSpaceOnUse" gradientTransform="translate(-2.317 -4.143)"/><linearGradient id="h" x1="15.241" x2="30.657" y1="5.544" y2="14.11" xlink:href="#b" gradientUnits="userSpaceOnUse" gradientTransform="translate(-2.317 -4.143)"/><linearGradient id="i" x1="22.128" x2="19.381" y1="10.443" y2="14.656" xlink:href="#d" gradientUnits="userSpaceOnUse" gradientTransform="translate(-1.685 -5.126)"/><linearGradient id="j" x1="24.077" x2="21.917" y1="11.145" y2="16.271" xlink:href="#c" gradientUnits="userSpaceOnUse" gradientTransform="translate(-1.685 -5.126)"/><radialGradient id="k" cx="87.831" cy="109.621" r="3.879" xlink:href="#a" gradientUnits="userSpaceOnUse" gradientTransform="matrix(0 -1 1 0 -97.915 109.665)" fx="87.831" fy="109.621"/><linearGradient id="m" x1="16.942" x2="23.476" y1="22.453" y2="26.175" xlink:href="#f" gradientUnits="userSpaceOnUse" gradientTransform="translate(-2.317 -4.143)"/><linearGradient id="n" x1="8.021" x2="25.372" y1="15.08" y2="24.77" xlink:href="#g" gradientUnits="userSpaceOnUse" gradientTransform="translate(-2.317 -4.143)"/><linearGradient id="o" x1="8.707" x2="13.412" y1="19.923" y2="22.872" xlink:href="#e" gradientUnits="userSpaceOnUse" gradientTransform="translate(-2.317 -4.143)"/></defs><g><path fill="url(#h)" fill-rule="evenodd" stroke="#204a87" stroke-width=".976" stroke-miterlimit="7" d="M12.17 1.42c1-1.9 5.55-1.42 10.14 1.04 4.6 2.46 7.5 6 6.47 7.88l-4.6 6.8L8.84 8.03l3.32-6.6z" color="#000" stroke-linejoin="round" overflow="visible" transform="translate(17.457 .261)"/><path fill="none" stroke="#a5c2e1" stroke-opacity=".769" stroke-width=".976" stroke-miterlimit="7" d="M30.2 2.54c.9-1.7 5-1.3 9.14.95 4.14 2.22 6.75 5.43 5.83 7.15L41 16.83l-13.8-8.3 3-6z" color="#000" stroke-linejoin="round" overflow="visible"/><path fill="url(#i)" fill-rule="evenodd" stroke="url(#j)" d="M19.17 2.54l5.34 2.8-7.02 11.18-4.77-2.8 6.47-11.18z" transform="translate(17.457 .261)"/><g transform="translate(17.457 .261) translate(-17.149 -1.108)"><circle cx="12.34" cy="22.843" r="2.761" fill="none" stroke="#152a4c" stroke-width="1.8" transform="translate(26.858 -18.279)"/><circle cx="12.34" cy="22.843" r="2.761" fill="url(#k)" transform="translate(26.858 -18.279)"/><g transform="translate(26.859 -18.279)"><radialGradient cx="-42.116" cy="108.65" r="6.838" gradientUnits="userSpaceOnUse" gradientTransform="matrix(0 1 1 0 -97.915 62.653)" fy="108.65" fx="-42.116"><stop offset="0" stop-color="#fff"/><stop offset=".685" stop-color="#2E659E"/><stop offset="1" stop-color="#1D3E63"/></radialGradient><path fill="url(#l)" d="M9.58 22.84c0 .74.28 1.43.8 1.95.53.52 1.22.8 1.96.8.73 0 1.43-.28 1.95-.8.52-.53.8-1.22.8-1.96 0-1.52-1.24-2.76-2.76-2.76-1.52 0-2.76 1.24-2.76 2.76zm5.08 0c0 .62-.24 1.2-.68 1.64-.44.44-1.02.68-1.64.68-.62 0-1.2-.24-1.64-.68-.44-.44-.68-1.02-.68-1.64 0-1.28 1.04-2.32 2.32-2.32 1.28 0 2.32 1.04 2.32 2.32z"/></g></g><path fill="url(#m)" fill-rule="evenodd" stroke="url(#n)" stroke-width=".976" stroke-miterlimit="7" d="M.67 20.95c-1 1.9 1.23 6.06 5.8 8.52 4.6 2.46 9.77 2.23 10.78.34l11.57-19.43c-1.06 1.86-5.9 1.95-10.47-.5-4.58-2.47-7.2-6.57-6.18-8.45L.67 20.95z" color="#000" stroke-linejoin="round" overflow="visible" transform="translate(17.457 .261)"/><path fill="url(#o)" fill-rule="evenodd" d="M1.4 23.82l11.38-18.4c.9 2.17 3.1 3.37 4.7 4.43L5.2 28.1c-1.66-1.23-3.24-2.5-3.8-4.28z" transform="translate(17.457 .261)"/><path fill="none" stroke="#eeeeec" stroke-opacity=".706" stroke-width=".976" stroke-miterlimit="7" d="M19.07 21.25c-.78 1.72 1.12 5.3 5.3 7.56 4.17 2.25 8.32 2.25 9.8.53l9.5-16.3c-1.47.2-4.46-.06-8.63-2.3-4.18-2.24-5.3-4.36-6.06-6l-9.9 16.52z" color="#000" overflow="visible"/></g><g><path fill="url(#p)" fill-rule="evenodd" stroke="#204a87" stroke-width=".976" stroke-miterlimit="7" d="M12.17 1.42c1-1.9 5.55-1.42 10.14 1.04 4.6 2.46 7.5 6 6.47 7.88l-4.6 6.8L8.84 8.03l3.32-6.6z" color="#000" stroke-linejoin="round" overflow="visible" transform="translate(.07 -2.879)"/><path fill="none" stroke="#a5c2e1" stroke-opacity=".769" stroke-width=".976" stroke-miterlimit="7" d="M12.8-.6c.92-1.7 5.02-1.3 9.15.95C26.1 2.58 28.7 5.8 27.8 7.5l-4.18 6.2-13.8-8.3 2.98-6z" color="#000" stroke-linejoin="round" overflow="visible"/><path fill="url(#q)" fill-rule="evenodd" stroke="url(#r)" d="M19.17 2.54l5.34 2.8-7.02 11.18-4.77-2.8 6.47-11.18z" transform="translate(.07 -2.879)"/><g transform="translate(.07 -2.879) translate(-17.149 -1.108)"><circle cx="12.34" cy="22.843" r="2.761" fill="none" stroke="#152a4c" stroke-width="1.8" transform="translate(26.858 -18.279)"/><circle cx="12.34" cy="22.843" r="2.761" fill="url(#s)" transform="translate(26.858 -18.279)"/><g transform="translate(26.859 -18.279)"><radialGradient cx="-42.116" cy="108.65" r="6.838" gradientUnits="userSpaceOnUse" gradientTransform="matrix(0 1 1 0 -97.915 62.653)" fy="108.65" fx="-42.116"><stop offset="0" stop-color="#fff"/><stop offset=".685" stop-color="#2E659E"/><stop offset="1" stop-color="#1D3E63"/></radialGradient><path fill="url(#l)" d="M9.58 22.84c0 .74.28 1.43.8 1.95.53.52 1.22.8 1.96.8.73 0 1.43-.28 1.95-.8.52-.53.8-1.22.8-1.96 0-1.52-1.24-2.76-2.76-2.76-1.52 0-2.76 1.24-2.76 2.76zm5.08 0c0 .62-.24 1.2-.68 1.64-.44.44-1.02.68-1.64.68-.62 0-1.2-.24-1.64-.68-.44-.44-.68-1.02-.68-1.64 0-1.28 1.04-2.32 2.32-2.32 1.28 0 2.32 1.04 2.32 2.32z"/></g></g><path fill="url(#t)" fill-rule="evenodd" stroke="url(#u)" stroke-width=".976" stroke-miterlimit="7" d="M.67 20.95c-1 1.9 1.23 6.06 5.8 8.52 4.6 2.46 9.77 2.23 10.78.34l11.57-19.43c-1.06 1.86-5.9 1.95-10.47-.5-4.58-2.47-7.2-6.57-6.18-8.45L.67 20.95z" color="#000" stroke-linejoin="round" overflow="visible" transform="translate(.07 -2.879)"/><path fill="url(#v)" fill-rule="evenodd" d="M1.4 23.82l11.38-18.4c.9 2.17 3.1 3.37 4.7 4.43L5.2 28.1c-1.66-1.23-3.24-2.5-3.8-4.28z" transform="translate(.07 -2.879)"/><path fill="none" stroke="#eeeeec" stroke-opacity=".706" stroke-width=".976" stroke-miterlimit="7" d="M1.7 18.1c-.8 1.73 1.1 5.32 5.28 7.57 4.17 2.24 8.32 2.24 9.8.52l9.5-16.32c-1.47.22-4.46-.05-8.63-2.3-4.18-2.23-5.3-4.35-6.06-6L1.7 18.1z" color="#000" overflow="visible"/></g><g><path fill="url(#w)" fill-rule="evenodd" stroke="#204a87" stroke-width=".976" stroke-miterlimit="7" d="M12.17 1.42c1-1.9 5.55-1.42 10.14 1.04 4.6 2.46 7.5 6 6.47 7.88l-4.6 6.8L8.84 8.03l3.32-6.6z" color="#000" stroke-linejoin="round" overflow="visible" transform="translate(8.118 11.778)"/><path fill="none" stroke="#a5c2e1" stroke-opacity=".769" stroke-width=".976" stroke-miterlimit="7" d="M20.85 14.06c.92-1.72 5.02-1.3 9.15.95 4.14 2.24 6.75 5.45 5.83 7.16l-4.16 6.2-13.8-8.3 2.98-6z" color="#000" stroke-linejoin="round" overflow="visible"/><path fill="url(#x)" fill-rule="evenodd" stroke="url(#y)" d="M19.17 2.54l5.34 2.8-7.02 11.18-4.77-2.8 6.47-11.18z" transform="translate(8.118 11.778)"/><g transform="translate(8.118 11.778) translate(-17.149 -1.108)"><circle cx="12.34" cy="22.843" r="2.761" fill="none" stroke="#152a4c" stroke-width="1.8" transform="translate(26.858 -18.279)"/><circle cx="12.34" cy="22.843" r="2.761" fill="url(#z)" transform="translate(26.858 -18.279)"/><g transform="translate(26.859 -18.279)"><radialGradient cx="-42.116" cy="108.65" r="6.838" gradientUnits="userSpaceOnUse" gradientTransform="matrix(0 1 1 0 -97.915 62.653)" fy="108.65" fx="-42.116"><stop offset="0" stop-color="#fff"/><stop offset=".685" stop-color="#2E659E"/><stop offset="1" stop-color="#1D3E63"/></radialGradient><path fill="url(#l)" d="M9.58 22.84c0 .74.28 1.43.8 1.95.53.52 1.22.8 1.96.8.73 0 1.43-.28 1.95-.8.52-.53.8-1.22.8-1.96 0-1.52-1.24-2.76-2.76-2.76-1.52 0-2.76 1.24-2.76 2.76zm5.08 0c0 .62-.24 1.2-.68 1.64-.44.44-1.02.68-1.64.68-.62 0-1.2-.24-1.64-.68-.44-.44-.68-1.02-.68-1.64 0-1.28 1.04-2.32 2.32-2.32 1.28 0 2.32 1.04 2.32 2.32z"/></g></g><path fill="url(#A)" fill-rule="evenodd" stroke="url(#B)" stroke-width=".976" stroke-miterlimit="7" d="M.67 20.95c-1 1.9 1.23 6.06 5.8 8.52 4.6 2.46 9.77 2.23 10.78.34l11.57-19.43c-1.06 1.86-5.9 1.95-10.47-.5-4.58-2.47-7.2-6.57-6.18-8.45L.67 20.95z" color="#000" stroke-linejoin="round" overflow="visible" transform="translate(8.118 11.778)"/><path fill="url(#C)" fill-rule="evenodd" d="M1.4 23.82l11.38-18.4c.9 2.17 3.1 3.37 4.7 4.43L5.2 28.1c-1.66-1.23-3.24-2.5-3.8-4.28z" transform="translate(8.118 11.778)"/><path fill="none" stroke="#eeeeec" stroke-opacity=".706" stroke-width=".976" stroke-miterlimit="7" d="M9.73 32.77c-.78 1.72 1.12 5.3 5.3 7.55 4.17 2.25 8.32 2.24 9.8.52l9.5-16.3c-1.47.22-4.46-.05-8.63-2.3-4.18-2.24-5.3-4.35-6.06-6l-9.9 16.53z" color="#000" overflow="visible"/></g></svg>