<svg xmlns="http://www.w3.org/2000/svg" width="48" height="48" xmlns:xlink="http://www.w3.org/1999/xlink" viewBox="0 0 46.858 40.246" overflow="visible" enable-background="new 0 0 46.858 40.246" version="1"><defs><linearGradient id="a" x1="888.744" x2="876.696" y1="648.2" y2="648.2" gradientUnits="userSpaceOnUse" gradientTransform="translate(-855.345 -636.771)"><stop offset="0" stop-color="#fff"/><stop offset="1" stop-color="#acd5f9"/></linearGradient><linearGradient x1="904.173" x2="876.696" y1="648.2" y2="648.2" xlink:href="#a" gradientUnits="userSpaceOnUse" gradientTransform="translate(-855.345 -636.771)"/><linearGradient id="u" x1="904.173" x2="876.696" y1="648.2" y2="648.2" xlink:href="#a" gradientUnits="userSpaceOnUse" gradientTransform="matrix(.73 -.243 .243 .73 -778.39 -255.274)"/><linearGradient id="v" x1="904.173" x2="876.696" y1="648.2" y2="648.2" xlink:href="#a" gradientUnits="userSpaceOnUse" gradientTransform="matrix(.73 .243 .243 -.73 -778.356 295.393)"/><linearGradient id="w" x1="904.173" x2="876.696" y1="648.2" y2="648.2" xlink:href="#a" gradientUnits="userSpaceOnUse" gradientTransform="matrix(.77 0 0 .77 -643.017 -479.147)"/></defs><g transform="translate(-16.221 -7.794)"><circle cx="34.494" cy="27.881" r="11.864" fill="#fff"/><g><radialGradient id="b" cx="48.472" cy="-9.966" r="13.752" gradientUnits="userSpaceOnUse" gradientTransform="matrix(.996 .087 -.087 .996 -17.804 27.412)" fy="-9.966" fx="48.472"><stop offset="0" stop-color="#FBC670"/><stop offset=".449" stop-color="#FAAF3E"/><stop offset=".714" stop-color="#F17912"/></radialGradient><path fill="url(#b)" d="M33.87 17.83c-5.5 2.12-10.35 7.57-10.83 12.13-.1.84-.02 1.6.2 2.3l.46-.14c-.18-.63-.24-1.33-.16-2.1.46-4.4 5.18-9.66 10.5-11.73 2.6-1.02 5.02-1.1 6.63-.26l.24-.44c-1.76-.93-4.26-.85-7.03.23z"/></g><g><radialGradient id="c" cx="48.471" cy="-9.966" r="13.754" gradientUnits="userSpaceOnUse" gradientTransform="matrix(.996 .087 -.087 .996 -17.804 27.412)" fy="-9.966" fx="48.471"><stop offset="0" stop-color="#FBC670"/><stop offset=".449" stop-color="#FAAF3E"/><stop offset=".714" stop-color="#F17912"/></radialGradient><path fill="url(#c)" d="M35.35 17.25c-5.7-.17-10.84 2.57-12.25 6.52l.47.17c1.32-3.7 6.38-6.35 11.77-6.2 4.35.15 8.1 2.08 9.54 4.93l.44-.22c-1.52-3-5.43-5.05-9.97-5.2z"/></g><g><radialGradient id="d" cx="48.473" cy="-9.966" r="13.752" gradientUnits="userSpaceOnUse" gradientTransform="matrix(.996 .087 -.087 .996 -17.804 27.412)" fy="-9.966" fx="48.473"><stop offset="0" stop-color="#FBC670"/><stop offset=".449" stop-color="#FAAF3E"/><stop offset=".714" stop-color="#F17912"/></radialGradient><path fill="url(#d)" d="M27.1 18.3l.32.37c1.88-1.63 5.08-1.93 8.36-.8 5.57 1.95 10.1 7.13 10.1 11.55l-.14 1.38.48.12.17-1.5c-.02-4.7-4.6-9.97-10.46-12-3.44-1.2-6.83-.87-8.85.88z"/></g><g><radialGradient id="e" cx="48.473" cy="-9.966" r="13.752" gradientUnits="userSpaceOnUse" gradientTransform="matrix(.996 .087 -.087 .996 -17.804 27.412)" fy="-9.966" fx="48.473"><stop offset="0" stop-color="#FBC670"/><stop offset=".449" stop-color="#FAAF3E"/><stop offset=".714" stop-color="#F17912"/></radialGradient><path fill="url(#e)" d="M31.9 16.05l.1.5c.46-.12 1-.07 1.6.14 3.32 1.15 7.07 6.88 8.36 12.77.85 3.9.56 6.88-.8 7.94l.3.4c1.54-1.2 1.9-4.27 1-8.44-1.33-6.04-5.23-11.94-8.7-13.14-.7-.24-1.32-.3-1.87-.17z"/></g><g><radialGradient id="f" cx="48.473" cy="-9.967" r="13.752" gradientUnits="userSpaceOnUse" gradientTransform="matrix(.996 .087 -.087 .996 -17.804 27.412)" fy="-9.967" fx="48.473"><stop offset="0" stop-color="#FBC670"/><stop offset=".449" stop-color="#FAAF3E"/><stop offset=".714" stop-color="#F17912"/></radialGradient><path fill="url(#f)" d="M35.4 17.22c-2.9 2.52-6.27 9.07-7.54 14.6-.77 3.38-.6 5.75.44 6.48l.3-.4c-.68-.48-1.1-2.3-.25-5.97 1.24-5.44 4.55-11.87 7.38-14.33.8-.7 1.44-1 1.93-.9l.1-.48c-.65-.15-1.4.17-2.36 1z"/></g><g><radialGradient id="g" cx="48.472" cy="-9.966" r="13.754" gradientUnits="userSpaceOnUse" gradientTransform="matrix(.996 .087 -.087 .996 -17.804 27.412)" fy="-9.966" fx="48.472"><stop offset="0" stop-color="#FBC670"/><stop offset=".449" stop-color="#FAAF3E"/><stop offset=".714" stop-color="#F17912"/></radialGradient><path fill="url(#g)" d="M31.25 17.82c-.1 1.22 1.63 2.33 3.95 2.54 2.32.2 4.22-.6 4.33-1.82.1-1.22-1.63-2.34-3.95-2.54-2.32-.2-4.22.6-4.33 1.82zm.5.04c.08-.9 1.8-1.54 3.78-1.36 1.98.17 3.58 1.1 3.5 2-.08.9-1.82 1.53-3.8 1.36-1.96-.18-3.56-1.1-3.48-2z"/></g><g><radialGradient id="h" cx="48.473" cy="-9.968" r="13.752" gradientUnits="userSpaceOnUse" gradientTransform="matrix(.996 .087 -.087 .996 -17.804 27.412)" fy="-9.968" fx="48.473"><stop offset="0" stop-color="#FBC670"/><stop offset=".449" stop-color="#FAAF3E"/><stop offset=".714" stop-color="#F17912"/></radialGradient><path fill="url(#h)" d="M30.26 16.56c-1.56.65-2.48 1.64-2.58 2.78-.2 2.3 3.02 4.47 7.18 4.83 2 .18 3.9-.08 5.38-.72 1.53-.65 2.43-1.65 2.53-2.8.2-2.24-3.1-4.43-7.18-4.8-1.96-.16-3.85.1-5.34.7zm-2.08 2.82c.08-.94.9-1.78 2.27-2.36 1.4-.58 3.26-.82 5.1-.66 3.75.33 6.9 2.3 6.73 4.25-.1.97-.88 1.8-2.23 2.4-1.4.6-3.23.84-5.14.68-3.88-.34-6.9-2.27-6.72-4.3z"/></g><g><radialGradient id="i" cx="48.472" cy="-9.967" r="13.753" gradientUnits="userSpaceOnUse" gradientTransform="matrix(.996 .087 -.087 .996 -17.804 27.412)" fy="-9.967" fx="48.472"><stop offset="0" stop-color="#FBC670"/><stop offset=".449" stop-color="#FAAF3E"/><stop offset=".714" stop-color="#F17912"/></radialGradient><path fill="url(#i)" d="M23.05 24.45c-.37 4.23 4.57 8.12 11 8.68l1.6.07v-.5l-1.56-.07c-6.17-.54-10.9-4.2-10.55-8.13.04-.46.16-.92.35-1.37l-.46-.2c-.2.5-.34 1-.4 1.52z"/></g><g><radialGradient id="j" cx="48.471" cy="-9.966" r="13.753" gradientUnits="userSpaceOnUse" gradientTransform="matrix(.996 .087 -.087 .996 -17.804 27.412)" fy="-9.966" fx="48.471"><stop offset="0" stop-color="#FBC670"/><stop offset=".449" stop-color="#FAAF3E"/><stop offset=".714" stop-color="#F17912"/></radialGradient><path fill="url(#j)" d="M45.66 24.67c.17.6.24 1.2.2 1.77-.33 3.63-4.62 6.26-10.2 6.26v.5c5.85 0 10.34-2.82 10.68-6.7.06-.66 0-1.32-.2-1.97l-.48.14z"/></g><g><radialGradient id="k" cx="48.473" cy="-9.968" r="13.752" gradientUnits="userSpaceOnUse" gradientTransform="matrix(.996 .087 -.087 .996 -17.804 27.412)" fy="-9.968" fx="48.473"><stop offset="0" stop-color="#FBC670"/><stop offset=".449" stop-color="#FAAF3E"/><stop offset=".714" stop-color="#F17912"/></radialGradient><path fill="url(#k)" d="M46.06 29.05c-.4 4.6-5.78 7.73-12.25 7.17-6.4-.56-11.28-4.68-10.9-9.2l-.5-.03c-.4 4.77 4.7 9.13 11.37 9.72 6.75.6 12.36-2.76 12.8-7.62l-.5-.05z"/></g><g><radialGradient id="l" cx="48.473" cy="-9.967" r="13.752" gradientUnits="userSpaceOnUse" gradientTransform="matrix(.996 .087 -.087 .996 -17.804 27.412)" fy="-9.967" fx="48.473"><stop offset="0" stop-color="#FBC670"/><stop offset=".449" stop-color="#FAAF3E"/><stop offset=".714" stop-color="#F17912"/></radialGradient><path fill="url(#l)" d="M23.2 32.27c1.4 3.6 5.54 6.28 10.34 6.7 4.52.4 8.7-1.18 10.86-4.1l-.4-.3c-2.07 2.78-6.06 4.28-10.42 3.9-4.6-.4-8.6-2.97-9.9-6.38l-.48.17z"/></g><g><circle cx="34.876" cy="28.444" r="2.761" fill="none" stroke="#152a4c" stroke-width="1.8"/><radialGradient id="m" cx="82.23" cy="132.158" r="3.879" gradientUnits="userSpaceOnUse" gradientTransform="matrix(0 -1 1 0 -97.915 109.665)" fy="132.158" fx="82.23"><stop offset="0" stop-color="#fff"/><stop offset=".09" stop-color="#DBE8F2"/><stop offset=".248" stop-color="#A2C3DE"/><stop offset=".395" stop-color="#75A6CD"/><stop offset=".525" stop-color="#5591C2"/><stop offset=".634" stop-color="#4185BB"/><stop offset=".708" stop-color="#3A80B8"/><stop offset="1" stop-color="#244A87"/></radialGradient><circle cx="34.876" cy="28.444" r="2.761" fill="url(#m)"/><g><radialGradient id="n" cx="-36.515" cy="131.187" r="6.838" gradientUnits="userSpaceOnUse" gradientTransform="matrix(0 1 1 0 -97.915 62.653)" fy="131.187" fx="-36.515"><stop offset="0" stop-color="#fff"/><stop offset=".685" stop-color="#2E659E"/><stop offset="1" stop-color="#1D3E63"/></radialGradient><path fill="url(#n)" d="M32.1 28.44c0 .74.3 1.43.82 1.95s1.22.8 1.96.8c.73 0 1.43-.28 1.95-.8.52-.53.8-1.22.8-1.96 0-1.52-1.23-2.76-2.75-2.76-1.53 0-2.77 1.24-2.77 2.76zm5.1 0c0 .62-.24 1.2-.68 1.64-.44.44-1.03.68-1.65.68-.62 0-1.2-.24-1.64-.68-.44-.43-.68-1.02-.68-1.64 0-1.28 1.05-2.32 2.32-2.32 1.28 0 2.33 1.04 2.33 2.32z"/></g></g><g><radialGradient id="o" cx="48.469" cy="-9.967" r="13.753" gradientUnits="userSpaceOnUse" gradientTransform="matrix(.996 .087 -.087 .996 -17.804 27.412)" fy="-9.967" fx="48.469"><stop offset="0" stop-color="#FBC670"/><stop offset=".449" stop-color="#FAAF3E"/><stop offset=".714" stop-color="#F17912"/></radialGradient><path fill="url(#o)" d="M35.4 32.97c-.2 4.4-.58 6.34-.77 6.55l.1.46c.27 0 .83 0 1.18-7h-.5z"/></g><g opacity=".8"><radialGradient id="p" cx="48.471" cy="-9.967" r="13.754" gradientUnits="userSpaceOnUse" gradientTransform="matrix(.996 .087 -.087 .996 -17.804 27.412)" fy="-9.967" fx="48.471"><stop offset="0" stop-color="#FBC670"/><stop offset=".449" stop-color="#FAAF3E"/><stop offset=".714" stop-color="#F17912"/></radialGradient><path fill="url(#p)" d="M35.56 23.98v3.9l-.15 5.1h.5l.17-5.08v-3.93h-.5z" opacity=".75"/></g><g><radialGradient id="q" cx="48.471" cy="-9.966" r="13.755" gradientUnits="userSpaceOnUse" gradientTransform="matrix(.996 .087 -.087 .996 -17.804 27.412)" fy="-9.966" fx="48.471"><stop offset="0" stop-color="#FBC670"/><stop offset=".449" stop-color="#FAAF3E"/><stop offset=".714" stop-color="#F17912"/></radialGradient><path fill="url(#q)" d="M35.02 15.78l-.1.46c.2.24.55 2.56.64 7.74h.5c-.14-8.2-.8-8.2-1.04-8.2z"/></g><g><radialGradient id="r" cx="48.472" cy="-9.967" r="13.752" gradientUnits="userSpaceOnUse" gradientTransform="matrix(.996 .087 -.087 .996 -17.804 27.412)" fy="-9.967" fx="48.472"><stop offset="0" stop-color="#FBC670"/><stop offset=".449" stop-color="#FAAF3E"/><stop offset=".714" stop-color="#F17912"/></radialGradient><path fill="url(#r)" d="M24.86 21.73c-.2 2.17 1.57 4.36 4.6 5.72l.2-.46c-2.82-1.27-4.47-3.27-4.3-5.23.07-.86.63-1.86 1.46-2.6l-.34-.37c-.93.84-1.53 1.94-1.62 2.93z"/></g><g opacity=".6"><radialGradient id="s" cx="48.472" cy="-9.965" r="13.753" gradientUnits="userSpaceOnUse" gradientTransform="matrix(.996 .087 -.087 .996 -17.804 27.412)" fy="-9.965" fx="48.472"><stop offset="0" stop-color="#FBC670"/><stop offset=".449" stop-color="#FAAF3E"/><stop offset=".714" stop-color="#F17912"/></radialGradient><path fill="url(#s)" d="M34.5 28.2c-1.72-.15-3.4-.56-4.83-1.2l-.2.45c1.48.66 3.2 1.1 5 1.25 2.7.24 5.28-.16 7.3-1.13l-.23-.45c-1.92.93-4.42 1.3-7.03 1.08z"/></g><g><radialGradient id="t" cx="48.466" cy="-9.967" r="13.758" gradientUnits="userSpaceOnUse" gradientTransform="matrix(.996 .087 -.087 .996 -17.804 27.412)" fy="-9.967" fx="48.466"><stop offset="0" stop-color="#FBC670"/><stop offset=".449" stop-color="#FAAF3E"/><stop offset=".714" stop-color="#F17912"/></radialGradient><path fill="url(#t)" d="M43.62 20.7c.74.9 1.1 1.85 1 2.76-.12 1.46-1.2 2.76-3.08 3.66l.22.45c2.03-.98 3.23-2.43 3.37-4.07.1-1.04-.3-2.1-1.13-3.12l-.38.32z"/></g><circle cx="34.494" cy="27.881" r="11.864" fill="none" stroke="#bf580f"/></g><path fill="url(#u)" stroke="#9cc8f7" stroke-width="1.952" d="M47.3 8.16C37.65 8.08 30.37.23 19.72-1.2 15.27-1.83 9.57.84 6.26.4l-.87-2.6c-.06-.16-.22-.24-.38-.2-.08.03-.13.1-.17.16C3.85-.3 1.15 6 1.15 6c-.14.3-.03.65.26.8l7.9 4.37c.06.03.15.04.22.02.16-.07.24-.23.2-.4L9 7.9c2.43.66 7.18-3.03 11.86-1.33 9.22 3.35 12.35 8.6 26.3 9.83" stroke-linejoin="round"/><path fill="url(#v)" stroke="#9cc8f7" stroke-width="1.952" d="M47.33 31.96c-9.64.08-16.92 7.93-27.57 9.37-4.46.6-10.16-2.06-13.47-1.63l-.87 2.6c-.05.16-.22.24-.37.2-.08-.03-.14-.1-.17-.16h-.02c-1-1.9-3.7-8.22-3.7-8.22-.14-.3-.02-.65.27-.8l7.9-4.37h-.02c.07-.03.15-.04.23-.02.15.05.24.22.2.38l-.7 2.94c2.43-.67 7.18 3.03 11.85 1.33 9.24-3.35 12.36-8.6 26.32-9.83" stroke-linejoin="round"/><path fill="none" stroke="#fff" stroke-width=".976" d="M47.12 9.43C37.48 9.35 30.34 1.78 19.7.33c-4.47-.6-10.94 1.93-14.25 1.5L4.87.28C4.8.13 4.65.04 4.5.08c-.08.04-.14.1-.17.16v.02L2.65 5.6c-.14.28-.03.63.26.78l4.6 2.76H7.5c-.07 0 .16.04.23.02.16-.05.24-.22.2-.38l-.56-2c2.44.13 8.58-2.83 13.26-1.13C29.86 9 33.33 14.1 47.3 15.33" color="#000" stroke-linejoin="round" overflow="visible"/><path fill="none" stroke="#fff" stroke-width=".976" d="M47.24 30.8c-9.64.08-16.77 7.65-27.43 9.1-4.44.6-10.92-1.93-14.23-1.5L5 39.95c-.07.15-.23.24-.38.2-.08-.04-.14-.1-.17-.16v-.02l-1.67-5.34c-.14-.3-.02-.64.27-.8l4.58-2.75c-.08 0 .15-.05.23-.03.15.06.23.22.18.38l-.55 2.02c2.43-.15 8.58 2.8 13.25 1.12 9.23-3.36 12.7-8.48 26.67-9.7" color="#000" stroke-linejoin="round" overflow="visible"/><path fill="url(#w)" stroke="#9cc8f7" stroke-width="1.952" d="M54 24.8c-3.2 0-4.5-2.2-7.6-2.3-3.07-.1-3.84 2.2-8.57 2.05-4.07-.1-2.84-1-5.3-.96l-.27 3c0 .16-.13.3-.3.3-.08 0-.15-.04-.2-.1l-6.1-6.64c-.24-.23-.24-.6 0-.83 0 0 4.55-5.14 6.1-6.63.05-.06.12-.1.2-.1.17 0 .3.14.3.3v2.74c2.97-.1 2.3 1.1 6.36 1.2 4.73.16 5.5-2.15 8.57-2.04 3.07.1 4.4 2.3 7.58 2.3" stroke-linejoin="round"/><path fill="none" stroke="#fff" stroke-width=".976" d="M53.76 23.43c-2.6 0-4.9-2-7.4-2.1-2.52-.08-4.7 2.12-8.54 2-3.32-.08-4.08-1.35-6.1-1.32l.12 3.44c0 .13-.1.24-.24.24-.07 0-.13-.03-.18-.08l-4.97-5.38c-.2-.2-.2-.5 0-.68 0 0 3.72-4.16 4.97-5.37.05-.06.1-.1.18-.1.13 0 .24.12.24.25v2.23c3.2-.1 3.85 1.33 7.17 1.42 3.87.12 5.82-1.97 8.33-1.88 2.5.07 4.47 2.2 7.07 2.2" stroke-linejoin="round"/></svg>