<svg xmlns="http://www.w3.org/2000/svg" width="48" height="48" xmlns:xlink="http://www.w3.org/1999/xlink"><defs><linearGradient id="a"><stop offset="0" stop-color="#590b08"/><stop offset="1" stop-color="#590b08" stop-opacity="0"/></linearGradient><linearGradient x1="4.755" x2="9.47" y1="22.355" y2="25.005" xlink:href="#a" gradientUnits="userSpaceOnUse" gradientTransform="translate(12.212 20.03)"/><linearGradient id="e" x1="897.265" x2="904.772" y1="232.169" y2="238.093" gradientUnits="userSpaceOnUse" gradientTransform="matrix(1.09 0 0 1.09 -963.598 -214.078)"><stop offset=".006" stop-color="#D8300C"/><stop offset=".183" stop-color="#ff6c12"/><stop offset="1" stop-color="#faaf3e" stop-opacity="0"/></linearGradient><linearGradient id="b" x1="910.141" x2="910.141" y1="218.2" y2="236.867" gradientUnits="userSpaceOnUse" gradientTransform="matrix(1.09 0 0 1.09 -975.81 -234.107)"><stop offset=".006" stop-color="#F17912"/><stop offset=".039" stop-color="#F07512"/><stop offset=".488" stop-color="#DB3B0D"/><stop offset=".822" stop-color="#D0190A"/><stop offset="1" stop-color="#CB1009"/></linearGradient><linearGradient x1="911.938" x2="921.983" y1="237.964" y2="232.709" xlink:href="#b" gradientUnits="userSpaceOnUse" gradientTransform="matrix(1.09 0 0 1.09 -963.483 -213.963)"/><radialGradient id="j" cx="306.715" cy="308.31" r="15.121" gradientUnits="userSpaceOnUse" gradientTransform="matrix(0 1 1 0 -222.639 187.377)" fy="308.31" fx="306.715"><stop offset="0" stop-color="#fff"/><stop offset=".685" stop-color="#2C669D"/><stop offset="1" stop-color="#1D3E63"/></radialGradient><radialGradient id="i" cx="215.199" cy="310.457" r="8.577" gradientUnits="userSpaceOnUse" gradientTransform="matrix(0 -1 1 0 -222.639 712.158)" fy="310.457" fx="215.199"><stop offset="0" stop-color="#fff"/><stop offset=".096" stop-color="#D8E7F1"/><stop offset=".253" stop-color="#9FC3DC"/><stop offset=".398" stop-color="#72A6CC"/><stop offset=".527" stop-color="#5292C0"/><stop offset=".635" stop-color="#3E85B9"/><stop offset=".708" stop-color="#3781B6"/><stop offset="1" stop-color="#254A87"/></radialGradient><linearGradient id="k" x1="76.481" x2="77.307" y1="500.386" y2="503.301" gradientUnits="userSpaceOnUse" gradientTransform="translate(-62.024 -468.213)"><stop offset=".006" stop-color="#BABDB6"/><stop offset=".008" stop-color="#BBBEB8"/><stop offset=".067" stop-color="#D7D8D3"/><stop offset=".121" stop-color="#E9E9E5"/><stop offset=".163" stop-color="#EFEEEC"/><stop offset=".257" stop-color="#E5E5E1"/><stop offset=".403" stop-color="#C9C8C3"/><stop offset=".581" stop-color="#A1A29B"/><stop offset=".68" stop-color="#888A85"/><stop offset=".796" stop-color="#959690"/><stop offset=".999" stop-color="#BABDB6"/><stop offset="1" stop-color="#BABDB6"/></linearGradient><linearGradient id="l" x1="65.978" x2="68.346" y1="500.606" y2="508.288" gradientUnits="userSpaceOnUse" gradientTransform="translate(-62.024 -468.213)"><stop offset=".006" stop-color="#EFEEEC"/><stop offset=".198" stop-color="#EDEDEA"/><stop offset=".296" stop-color="#E4E4E0"/><stop offset=".373" stop-color="#D5D5D0"/><stop offset=".439" stop-color="#C1C3BD"/><stop offset=".455" stop-color="#BABDB6"/><stop offset=".579" stop-color="#B2B5AF"/><stop offset=".599" stop-color="#ADB0AA"/><stop offset=".717" stop-color="#989A94"/><stop offset=".844" stop-color="#8C8E89"/><stop offset="1" stop-color="#888A85"/></linearGradient><linearGradient id="c" x1="98.599" x2="97.621" y1="502.216" y2="504.391" gradientUnits="userSpaceOnUse" gradientTransform="translate(-61.084 -465.499)"><stop offset=".006" stop-color="#BABDB6"/><stop offset=".008" stop-color="#BBBEB8"/><stop offset=".07" stop-color="#D9D9D4"/><stop offset=".132" stop-color="#EEEEEB"/><stop offset=".195" stop-color="#FBFBFA"/><stop offset=".258" stop-color="#fff"/><stop offset=".329" stop-color="#F5F5F3"/><stop offset=".439" stop-color="#DBDBD6"/><stop offset=".574" stop-color="#B3B4AD"/><stop offset=".663" stop-color="#969993"/><stop offset="1" stop-color="#BABDB6"/></linearGradient><linearGradient id="d" x1="104.575" x2="102.557" y1="501.97" y2="508.918" gradientUnits="userSpaceOnUse" gradientTransform="translate(-61.084 -465.499)"><stop offset=".006" stop-color="#D3D7CF"/><stop offset=".095" stop-color="#EAECE7"/><stop offset=".184" stop-color="#FAFAF8"/><stop offset=".258" stop-color="#fff"/><stop offset=".324" stop-color="#F6F5F4"/><stop offset=".419" stop-color="#DDDDD9"/><stop offset=".533" stop-color="#B8B8B1"/><stop offset=".66" stop-color="#898B86"/><stop offset=".663" stop-color="#888A85"/><stop offset="1" stop-color="#BABDB6"/></linearGradient><linearGradient x1="86.95" x2="91.999" y1="472.508" y2="473.428" gradientUnits="userSpaceOnUse" gradientTransform="translate(-61.084 -465.499)"><stop offset="0" stop-color="#fff"/><stop offset=".059" stop-color="#FBEDEC"/><stop offset=".177" stop-color="#F1BDBB"/><stop offset=".346" stop-color="#E0706C"/><stop offset=".539" stop-color="#CB1009"/><stop offset=".654" stop-color="#CE120B"/><stop offset=".782" stop-color="#D61612"/><stop offset=".918" stop-color="#E31F1F"/><stop offset="1" stop-color="#ED2829"/></linearGradient><linearGradient x1="87.426" x2="84.251" y1="473.055" y2="471.524" gradientUnits="userSpaceOnUse" gradientTransform="translate(-68.37 -456.928)"><stop offset="0" stop-color="#878787"/><stop offset="1" stop-color="#BABDB4"/></linearGradient><linearGradient x1="87.64" x2="86.754" y1="473.155" y2="472.693" gradientUnits="userSpaceOnUse" gradientTransform="translate(-61.084 -465.499)"><stop offset="0" stop-color="#EFEEEC"/><stop offset="1" stop-color="#ED2829"/></linearGradient><linearGradient id="o" x1="88.227" x2="90.096" y1="487.928" y2="487.928" xlink:href="#c" gradientUnits="userSpaceOnUse" gradientTransform="translate(-62.024 -468.213)"/><linearGradient id="p" x1="86.37" x2="92.227" y1="474.642" y2="475.499" xlink:href="#d" gradientUnits="userSpaceOnUse" gradientTransform="translate(-62.024 -466.356)"/><linearGradient x1="104.575" x2="102.557" y1="501.97" y2="508.918" xlink:href="#d" gradientUnits="userSpaceOnUse" gradientTransform="translate(-62.024 -468.213)"/><linearGradient id="m" x1="98.599" x2="97.621" y1="502.216" y2="504.391" xlink:href="#c" gradientUnits="userSpaceOnUse" gradientTransform="translate(-62.024 -468.213)"/><linearGradient x1="897.265" x2="904.772" y1="232.169" y2="238.093" xlink:href="#e" gradientUnits="userSpaceOnUse" gradientTransform="matrix(1.09 0 0 1.09 -963.598 -214.078)"/><linearGradient x1="4.755" x2="9.47" y1="22.355" y2="25.005" xlink:href="#a" gradientUnits="userSpaceOnUse" gradientTransform="translate(12.212 20.03)"/><linearGradient x1="911.938" x2="921.983" y1="237.964" y2="232.709" xlink:href="#b" gradientUnits="userSpaceOnUse" gradientTransform="matrix(1.09 0 0 1.09 -963.483 -213.963)"/><linearGradient id="n" x1="104.575" x2="102.557" y1="501.97" y2="508.918" xlink:href="#d" gradientUnits="userSpaceOnUse" gradientTransform="translate(-62.024 -468.213)"/><linearGradient x1="897.265" x2="904.772" y1="232.169" y2="238.093" xlink:href="#e" gradientUnits="userSpaceOnUse" gradientTransform="matrix(1.09 0 0 1.09 -963.598 -214.078)"/><linearGradient x1="4.755" x2="9.47" y1="22.355" y2="25.005" xlink:href="#a" gradientUnits="userSpaceOnUse" gradientTransform="translate(12.212 20.03)"/><linearGradient x1="911.938" x2="921.983" y1="237.964" y2="232.709" xlink:href="#b" gradientUnits="userSpaceOnUse" gradientTransform="matrix(1.09 0 0 1.09 -963.483 -213.963)"/><linearGradient id="h" x1="911.938" x2="921.983" y1="237.964" y2="232.709" xlink:href="#b" gradientUnits="userSpaceOnUse" gradientTransform="matrix(1.408 0 0 1.409 -1256.134 -290.361)"/><linearGradient id="f" x1="897.265" x2="904.772" y1="232.169" y2="238.093" xlink:href="#e" gradientUnits="userSpaceOnUse" gradientTransform="matrix(1.408 0 0 1.409 -1253.137 -290.509)"/><linearGradient id="g" x1="4.755" x2="9.47" y1="22.355" y2="25.005" xlink:href="#a" gradientUnits="userSpaceOnUse" gradientTransform="matrix(1.292 0 0 1.292 7.8 12.003)"/></defs><g><path fill="url(#f)" stroke="url(#g)" d="M28.5 27.3c-11 0-19.9 4.3-19.9 9.58 0 3.63 4.22 7.13 10.42 8.95l6.16-4.05c-6.2-.72-10.78-3.4-10.78-6.6 0-3.74 6.3-6.07 14.1-6.07" stroke-linecap="round" stroke-linejoin="round"/><path fill="url(#h)" stroke="#400809" d="M25.5 29.26c7.8 0 14.1 2.33 14.1 6.07 0 2.34-2.45 4.4-6.18 5.6l-3.6-2.77c-.16-.12-.55-.2-.56.2l-1.6 7.52c-.04.28.27.48.72.48l12.98 1.14c.06 0 .1-.03.1-.1.03-.1-.08-.3-.24-.43l-2.88-2.23c4.3-1.95 7.05-4.78 7.05-7.7 0-5.3-8.92-9.58-19.9-9.58" stroke-linecap="round" stroke-linejoin="round"/><g transform="translate(-62.024 -468.213)"><path fill="none" stroke="#162b4c" stroke-width="2" d="M89.22 493.1c3.37 0 6.1 2.72 6.1 6.1 0 3.36-2.73 6.1-6.1 6.1-3.38 0-6.1-2.74-6.1-6.1 0-3.38 2.72-6.1 6.1-6.1z"/><radialGradient cx="215.199" cy="310.457" r="8.577" gradientUnits="userSpaceOnUse" gradientTransform="matrix(0 -1 1 0 -222.639 712.158)" fy="310.457" fx="215.199"><stop offset="0" stop-color="#fff"/><stop offset=".096" stop-color="#D8E7F1"/><stop offset=".253" stop-color="#9FC3DC"/><stop offset=".398" stop-color="#72A6CC"/><stop offset=".527" stop-color="#5292C0"/><stop offset=".635" stop-color="#3E85B9"/><stop offset=".708" stop-color="#3781B6"/><stop offset="1" stop-color="#254A87"/></radialGradient><path fill="url(#i)" d="M89.22 493.1c3.37 0 6.1 2.72 6.1 6.1 0 3.36-2.73 6.1-6.1 6.1-3.38 0-6.1-2.74-6.1-6.1 0-3.38 2.72-6.1 6.1-6.1z"/><g><radialGradient cx="306.715" cy="308.31" r="15.121" gradientUnits="userSpaceOnUse" gradientTransform="matrix(0 1 1 0 -222.639 187.377)" fy="308.31" fx="306.715"><stop offset="0" stop-color="#fff"/><stop offset=".685" stop-color="#2C669D"/><stop offset="1" stop-color="#1D3E63"/></radialGradient><path fill="url(#j)" d="M83.1 499.2c0 1.62.64 3.15 1.8 4.3 1.15 1.16 2.68 1.8 4.32 1.8 1.62 0 3.16-.64 4.32-1.8 1.15-1.15 1.78-2.68 1.78-4.3 0-3.38-2.73-6.1-6.1-6.1-3.37 0-6.1 2.72-6.1 6.1zm11.25 0c0 1.36-.53 2.64-1.5 3.62-.98.97-2.26 1.5-3.63 1.5-1.38 0-2.67-.53-3.63-1.5-1-.98-1.52-2.26-1.52-3.63 0-2.84 2.3-5.15 5.14-5.15 2.83 0 5.13 2.3 5.13 5.14z"/></g></g><path fill="none" stroke="#1b1f1f" stroke-width="2" d="M6.28 34.52l15.7-3.5c.14-.02.3-.02.45.02.5.16.9.76.84 1.34-.04.45-.34.76-.7.8L7.1 36.68"/><path fill="none" stroke="#1b1f1f" d="M.5 37.5l8.12 1.7c.94.1 1.53-1.1 1.37-2.94-.2-2.12-1.3-4.3-2.5-4.87-.47-.24-.9-.17-1.2.14L.5 37.5z"/><path fill="url(#k)" d="M6.28 34.52l15.7-3.5c.14-.02.3-.02.45.02.5.16.9.76.84 1.34-.04.45-.34.76-.7.8L7.1 36.68"/><path fill="url(#l)" stroke="#1b1f1f" d="M.5 37.5l8.12 1.7c.94.1 1.53-1.1 1.37-2.94-.2-2.12-1.3-4.3-2.5-4.87-.47-.24-.9-.17-1.2.14L.5 37.5z"/><path fill="none" stroke="#1b1f1f" stroke-width=".5" d="M10.13 36.16c-.2-2.12-1.3-4.3-2.5-4.87"/><path fill="none" stroke="#1b1f1f" stroke-width="2" d="M40.62 38.43l-9.18-4.16c-.26-.1-.44-.4-.47-.78-.05-.62.3-1.25.77-1.4.16-.07.32-.06.46 0l9.4 4.16"/><path fill="url(#m)" d="M40.62 38.43l-9.18-4.16c-.26-.1-.44-.4-.47-.78-.05-.62.3-1.25.77-1.4.16-.07.32-.06.46 0l9.4 4.16"/><g stroke="#1b1f1f"><path fill="none" d="M47.62 40.02l-6.23 1.02c-.1 0-.2.02-.3.02-1.55 0-2.47-1.7-2.05-3.78.4-2.1 2.02-3.78 3.58-3.78.75 0 1.36.4 1.74 1.05l3.25 5.47z"/><path fill="url(#n)" d="M45.62 39.35l-6.23 1.02c-.1 0-.2.02-.3.02-1.55 0-2.47-1.7-2.05-3.8.4-2.07 2.02-3.76 3.58-3.76.75 0 1.36.4 1.74 1.05l3.25 5.45z" transform="translate(2 .663)"/><path fill="none" stroke-width=".5" d="M38.84 37.74c.48-2.42 2.34-4.38 4.15-4.38"/></g><path fill="none" stroke="#000" stroke-width="2" d="M26.16 8.98v16.95c0 .37.43.7.96.7s.95-.34.95-.7V9"/><path fill="url(#o)" d="M26.16 8.98v16.95c0 .37.43.7.96.7s.95-.34.95-.7V9" color="#000" overflow="visible"/><path fill="url(#p)" stroke="#1b1f1f" d="M31.13 9.65c0 1.17-1.45 2.03-4.2 2.03-2.4 0-3.97-.9-3.97-2 0-.05.02-.1.04-.13l3.96-7.03c.05-.08.12-.08.17 0l3.97 7c0 .04.02.08.03.13z" color="#000" overflow="visible"/></g></svg>