<svg xmlns="http://www.w3.org/2000/svg" width="48" height="48" xmlns:xlink="http://www.w3.org/1999/xlink"><defs><linearGradient id="g"><stop offset="0" stop-color="#eeeeec"/><stop offset="1" stop-color="#eeeeec" stop-opacity="0"/></linearGradient><linearGradient id="f"><stop offset="0" stop-color="#b8a0a0"/><stop offset="1" stop-color="#644a4a"/></linearGradient><linearGradient id="e"><stop offset="0" stop-color="#fde5e5"/><stop offset="1" stop-color="#d59b9b"/></linearGradient><linearGradient id="d"><stop offset="0" stop-color="#204a87"/><stop offset="1" stop-color="#204a87" stop-opacity="0"/></linearGradient><linearGradient id="c"><stop offset="0" stop-color="#cfdeef"/><stop offset="1" stop-color="#6b9acd"/></linearGradient><linearGradient id="b"><stop offset="0" stop-color="#917600"/><stop offset="1" stop-color="#917600" stop-opacity="0"/></linearGradient><linearGradient><stop offset="0" stop-color="#643e01"/><stop offset=".181" stop-color="#794b01"/><stop offset="1" stop-color="#8f5902" stop-opacity="0"/></linearGradient><linearGradient id="h"><stop offset="0" stop-color="#fce94f"/><stop offset="1" stop-color="#c4a000"/></linearGradient><linearGradient><stop offset="0" stop-color="#c6a100"/><stop offset="1" stop-color="#574700"/></linearGradient><radialGradient cx="19.345" cy="27.081" r="11.492" xlink:href="#a" gradientUnits="userSpaceOnUse" gradientTransform="matrix(1.372 .012 -.013 1.612 -14.237 -11.01)" fx="19.345" fy="27.081"/><linearGradient id="a"><stop offset="0" stop-color="#8f5902" stop-opacity="0"/><stop offset="1" stop-color="#8f5902" stop-opacity=".315"/></linearGradient><linearGradient id="j" x1="23.489" x2="23.844" y1="14.302" y2="28.293" xlink:href="#b" gradientUnits="userSpaceOnUse" gradientTransform="matrix(1 0 0 1.176 .051 .592)"/><linearGradient id="l" x1="24.579" x2="28.793" y1="15.474" y2="22.798" xlink:href="#c" gradientUnits="userSpaceOnUse"/><linearGradient id="k" x1="6.414" x2="20.759" y1="12.469" y2="12.469" xlink:href="#d" gradientUnits="userSpaceOnUse"/><radialGradient id="m" cx="3.51" cy="9.751" r="3.986" xlink:href="#e" fx="3.51" fy="9.751" gradientTransform="matrix(1.215 .014 -.015 1.253 -.612 -2.531)" gradientUnits="userSpaceOnUse"/><linearGradient id="n" x1="1.645" x2="7.497" y1="7.922" y2="13.377" xlink:href="#f" gradientUnits="userSpaceOnUse"/><linearGradient id="o" x1="7.335" x2=".97" y1="13.449" y2="6.106" xlink:href="#g" gradientUnits="userSpaceOnUse"/><radialGradient id="i" cx="23.688" cy="18.155" r="17.628" xlink:href="#h" fx="23.688" fy="18.155" gradientTransform="matrix(1.352 -.023 .017 .975 -8.741 4.095)" gradientUnits="userSpaceOnUse"/></defs><g><path fill="#c4a000" fill-opacity=".546" d="M2.04 31.22c-.07 3.5 5.65 4.02 8.1 6.46 2.38 2.35 3.2 6.75 6.33 7.8 3.56 1.2 7.15-2.55 10.9-2.8 3.9-.24 8.43 3.7 11.68 1.46 2.06-1.42.53-5.25 1.92-7.34 1.4-2.08 6.2-2 5.93-4.5-.4-3.8-6.8-3.2-10.23-4.7-4.45-1.93-8.63-5.3-13.46-5.52-5.13-.25-10.16 2.18-14.78 4.5-2.34 1.16-6.32 1.97-6.38 4.64z"/><path fill="#c4a000" fill-opacity=".546" d="M4 31.3c-.05 2.9 5.17 3.33 7.4 5.34 2.18 1.95 2.92 5.58 5.8 6.45 3.24.97 6.52-2.12 9.93-2.32 3.58-.2 7.7 3.05 10.68 1.2 1.9-1.17.5-4.33 1.77-6.07 1.26-1.7 5.65-1.64 5.4-3.7-.36-3.13-6.2-2.65-9.33-3.9-4.07-1.6-7.9-4.36-12.3-4.55-4.7-.2-9.28 1.8-13.5 3.7C7.7 28.44 4.07 29.1 4 31.3z" color="#000" overflow="visible" enable-background="accumulate"/><path fill="#c4a000" fill-opacity=".211" d="M-.05 31.77c-.08 3.9 6.06 4.5 8.7 7.2 2.55 2.63 3.42 7.53 6.8 8.7 3.82 1.33 7.68-2.84 11.7-3.1 4.2-.3 9.06 4.1 12.56 1.6 2.2-1.57.58-5.84 2.07-8.18 1.5-2.32 6.7-2.24 6.37-5.02-.64-5.5-6.84-4.63-10.54-6.3-4.78-2.16-9.73-4.85-14.92-5.1-5.52-.28-10.92 2.43-15.88 5C4.28 27.9 0 28.8-.05 31.8z"/><path fill="url(#i)" stroke="url(#j)" stroke-width=".75" d="M7.3 29.73c0-1.32 4.2-3.97 5.8-5.2 1.7-1.28 6.06-7.76 10.88-7.67 4.63.1 8.8 7.55 11.4 9.97 2.53 2.36 6.38 3.4 6.42 5 .02.48-3.03 1.8-3.5 2.5-.7 1.13-.05 4.14-1.94 5.08-2.5 1.26-6.07-.42-7.68-.7-4.16-.7-6 2.02-8.86 2.08-2.5.06-3.57-2.67-6.56-6.17-1.94-2.26-5.95-2.9-5.96-4.87z" color="#000" overflow="visible" enable-background="accumulate"/><path fill="none" stroke="#000" stroke-width="2" d="M14.55 25.63c1.9 2.12 3.94 3.5 7 .3"/><path fill="none" stroke="#000" stroke-width="2" d="M23.86 26.16c1.9 2.12 3.94 3.5 7 .3"/><path d="M24.8 34.97s1.6-2.33 2.88-2.58c1.03-.2 2.98 1.05 2.98 1.05s-1.94 1.4-3.08 1.67c-.9.2-2.78-.15-2.78-.15z"/><path fill="#729fcf" stroke="#204a87" d="M29.6 18.15C30.94 15.22 26 3 20.3 1.9 15.63.95 3.46 8.72 4.14 10.16c.8 1.66 9.1-1.95 10.1-.8 1.02 1.14.17 9.62 1.52 10.24 2.06.96 12.75-.27 13.84-1.45z"/><path fill="#eeeeec" d="M20.86 6.84L19.7 6.2l-1.2.58.26-1.3-.93-.97 1.33-.15.63-1.18.54 1.22 1.32.22-.98.9z" color="#000" overflow="visible" enable-background="accumulate"/><path fill="#eeeeec" d="M25 10.94l-1.16-.66-1.2.6.26-1.32-.93-.96 1.33-.16.63-1.18.55 1.22 1.32.23-.98.9z" color="#000" overflow="visible" enable-background="accumulate"/><path fill="#eeeeec" d="M19.1 13.6l-1.17-.64-1.2.58.26-1.3-.94-.97 1.33-.15.62-1.18.55 1.2 1.32.24-1 .9z" color="#000" overflow="visible" enable-background="accumulate"/><path fill="#eeeeec" d="M15.3 8.06l-1.16-.66-1.2.6.27-1.32-.92-.96 1.32-.16.63-1.18.56 1.22 1.3.23-.98.9z" color="#000" overflow="visible" enable-background="accumulate"/><path fill="url(#k)" d="M6.4 9.3s8.04-4 11.28-2c2.3 1.4 3.08 10.14 3.08 10.14l-5.8.76-.67-9-7.73 1.37z"/><path fill="#eeeeec" d="M25.9 16.14l-1.15-.66-1.2.6.26-1.32-.92-.96 1.33-.15.64-1.2.55 1.23 1.3.23-.97.9z" color="#000" overflow="visible" enable-background="accumulate"/><path fill="url(#l)" stroke="#204a87" d="M14.9 17.3c-.65.53-1.25 4.17-.6 4.64 1.04.76 6.12-1.82 9.14-1.87 2.9-.04 7.68 1.54 8.13.96.47-.62-.72-4.68-1.16-5.2-.4-.5-4.17-1.23-8.9-.74-3.38.33-5.6 1.38-6.6 2.2z"/><path fill="url(#m)" stroke="url(#n)" stroke-width=".75" d="M7.98 10.55a3.6 3.66 0 1 1-7.22 0 3.6 3.66 0 1 1 7.22 0z" color="#000" overflow="visible" enable-background="accumulate"/><path fill="none" stroke="url(#o)" stroke-width=".916" d="M7.98 10.55a3.6 3.66 0 1 1-7.22 0 3.6 3.66 0 1 1 7.22 0z" transform="matrix(.818 0 0 .819 .794 1.914)" color="#000" overflow="visible" enable-background="accumulate"/><g fill="#fff" stroke="#2e3436" stroke-width="1.379" style="text-align:start;line-height:125%;-inkscape-font-specification:'Source Sans Pro Black, Heavy'" font-size="40" font-weight="900" letter-spacing="0" word-spacing="0" font-family="Source Sans Pro Black"><path d="M38.84 13.97l8.6-1.7-.5-2.6-4.8.94 3.36-8.23-.37-1.9-8.1 1.6.5 2.6 4.3-.83-3.35 8.24z"/></g><g fill="#fff" stroke="#2e3436" stroke-width="1.299" style="text-align:start;line-height:125%;-inkscape-font-specification:'Source Sans Pro Black, Heavy'" font-size="40" font-weight="900" letter-spacing="0" word-spacing="0" font-family="Source Sans Pro Black"><path d="M36.36 22.73l6.95-.08v-2.12l-3.9.03 3.82-5.98v-1.54l-6.56.07v2.14l3.5-.04-3.82 6z"/></g><g fill="#fff" stroke="#2e3436" stroke-width="1.051" style="text-align:start;line-height:125%;-inkscape-font-specification:'Source Sans Pro Black, Heavy'" font-size="40" font-weight="900" letter-spacing="0" word-spacing="0" font-family="Source Sans Pro Black"><path d="M32.75 29.42l5.4 1.9.6-1.67-3.03-1.05 4.62-3.6.42-1.2-5.1-1.76-.58 1.65 2.7.94-4.6 3.58z"/></g></g></svg>