<svg xmlns="http://www.w3.org/2000/svg" width="48" height="48" i:viewOrigin="0.3799 47.5942" i:rulerOrigin="0 0" i:pageBounds="0 48 48 0" xmlns:i="&ns_ai;" xmlns:xlink="http://www.w3.org/1999/xlink" viewBox="0 0 48.396 47.596" overflow="visible" enable-background="new 0 0 48.396 47.596" version="1"><defs><linearGradient id="d" x1="3.825" x2="45.321" y1="9.234" y2="6.887" gradientUnits="userSpaceOnUse"><stop offset="0" stop-color="#fff" stop-opacity="0"/><stop offset=".5" stop-color="#b7cee1" stop-opacity="0"/><stop offset="1" stop-color="#709EC3"/></linearGradient><linearGradient id="c"><stop offset="0" stop-color="#f57900"/><stop offset="1" stop-color="#f57900" stop-opacity="0"/></linearGradient><linearGradient id="b" x1="-165.82" x2="-170.229" y1="-93.99" y2="-103.786" gradientUnits="userSpaceOnUse" gradientTransform="matrix(-.574 -.819 .819 -.574 -6.75 -152.536)"><stop offset="0" stop-color="#ffa410"/><stop offset="1" stop-color="#fff" stop-opacity="0"/></linearGradient><linearGradient id="a" x1="37.48" x2="28.53" y1="39.307" y2="-30.963" gradientUnits="userSpaceOnUse"><stop offset="0" stop-color="#fff" stop-opacity="0"/><stop offset="1" stop-color="#709EC3"/></linearGradient><linearGradient id="e" x1="27.275" x2="40.527" y1="17.119" y2="30.241" xlink:href="#a" gradientUnits="userSpaceOnUse"/><linearGradient id="f" x1="-165.82" x2="-170.229" y1="-93.99" y2="-103.786" xlink:href="#b" gradientUnits="userSpaceOnUse" gradientTransform="matrix(1.613 -.429 .429 1.613 342.055 101.174)"/><linearGradient id="g" x1="-11.129" x2="16.399" y1="49.935" y2="49.935" xlink:href="#c" gradientUnits="userSpaceOnUse" gradientTransform="matrix(-.358 -.669 .669 -.358 -2.937 33.936)"/><radialGradient id="j" cx="24.129" cy="23.579" r="22.27" xlink:href="#d" fx="24.129" fy="23.579" gradientTransform="matrix(1 0 0 1.022 0 -.529)" gradientUnits="userSpaceOnUse"/></defs><path fill="url(#e)" stroke="#709ec3" stroke-width=".5" d="M44.87 31.8L26.53 46l-.2-28.48L45.06 6.24l-.2 25.56z" i:knockout="Off" transform="translate(36.513 1.628)" opacity=".15"/><path fill="none" stroke="#babdb6" stroke-width=".5" d="M45.02 12.1L.12 37.75" i:knockout="Off"/><path fill="none" stroke="#babdb6" stroke-width=".5" d="M48.23 29.13l-23.5 18.24" i:knockout="Off"/><path fill="none" stroke="#babdb6" stroke-width=".5" d="M29.62 47.37L.95 34.47" i:knockout="Off"/><path fill="none" stroke="#babdb6" stroke-width=".5" d="M45.02 12.1l-21.2 12.12" i:knockout="Off"/><path fill="none" stroke="#709ec3" stroke-width=".5" d="M3.6 35.75l19.74-11.03" i:knockout="Off"/><path fill="none" stroke="#babdb6" stroke-width=".5" d="M21.79 24.26L1.4 17.72" i:knockout="Off"/><path fill="none" stroke="#babdb6" stroke-width=".5" d="M48.23 32.75l-24.02-7.7" i:knockout="Off"/><path fill="none" stroke="#709ec3" stroke-width=".5" d="M24.57 25.13l20.3 6.67" i:knockout="Off"/><path fill="none" stroke="#709ec3" stroke-width=".5" d="M23.34 24.72l1.23.4" i:knockout="Off"/><circle cx="23.124" cy="24.619" r=".687" fill="#3165a1" stroke="#709ec3" stroke-width=".5" i:knockout="Off"/><path fill="none" stroke="#babdb6" stroke-width=".5" d="M12.63 30l-11.5-3.96" i:knockout="Off"/><path fill="none" stroke="#babdb6" stroke-width=".5" d="M25.98 34.62l-12.02-4.15" i:knockout="Off"/><path fill="none" stroke="#babdb6" stroke-width=".5" d="M35.86 38.03L27 34.97" i:knockout="Off"/><path fill="none" stroke="#babdb6" stroke-width=".5" d="M48.23 42.3L37 38.4" i:knockout="Off"/><path fill="none" stroke="#babdb6" stroke-width=".5" d="M48.23 42.3l-5.7 5.07" i:knockout="Off"/><path fill="none" stroke="#babdb6" stroke-width=".5" d="M45.4 19.8l1.12-.78" i:knockout="Off"/><path fill="none" stroke="#babdb6" stroke-width=".5" d="M34.28 27.56l10.02-7" i:knockout="Off"/><path fill="none" stroke="#babdb6" stroke-width=".5" d="M27.03 32.62l5.9-4.12" i:knockout="Off"/><path fill="none" stroke="#babdb6" stroke-width=".5" d="M15.94 40.36l9.86-6.88" i:knockout="Off"/><path fill="none" stroke="#babdb6" stroke-width=".5" d="M6.92 46.66l7.32-5.1" i:knockout="Off"/><path fill="none" stroke="#babdb6" stroke-width=".5" d="M20.83 17.1L4.07 25.13" i:knockout="Off"/><path fill="none" stroke="#babdb6" stroke-width=".5" d="M35.47 20.47l7.96 1.84" i:knockout="Off"/><path fill="url(#f)" stroke="url(#g)" stroke-width="1.008" d="M38.03 22.93c-1.76 3.8-19.6 7.18-21.23 7.53-.18-1.38-.44-5.62-.6-6.9 1.48-.22 12.9.3 15.67-2.07 2.84-2.43-9.74-12.37-10.73-13.6l3.16-.7c.85.92 15.52 11.9 13.73 15.73z"/><g transform="matrix(1.475 0 0 1.475 -16.729 -16.577)"><circle cx="22.234" cy="29.566" r="2.104" fill="none" stroke="#152a4c" stroke-width="1.017" i:knockout="Off"/><radialGradient id="h" cx="85.377" cy="123.543" r="2.956" gradientUnits="userSpaceOnUse" gradientTransform="matrix(0 -1 1 0 -101.79 114.173)" fy="123.543" fx="85.377"><stop offset="0" stop-color="#fff"/><stop offset=".09" stop-color="#DBE8F2"/><stop offset=".248" stop-color="#A2C3DE"/><stop offset=".395" stop-color="#75A6CD"/><stop offset=".525" stop-color="#5591C2"/><stop offset=".634" stop-color="#4185BB"/><stop offset=".708" stop-color="#3A80B8"/><stop offset="1" stop-color="#244A87"/></radialGradient><circle cx="22.234" cy="29.566" r="2.104" fill="url(#h)" i:knockout="Off"/><g i:knockout="Off"><radialGradient id="i" cx="-38.721" cy="122.802" r="5.213" gradientUnits="userSpaceOnUse" gradientTransform="matrix(0 1 1 0 -101.79 66.529)" fy="122.802" fx="-38.721"><stop offset="0" stop-color="#fff"/><stop offset=".685" stop-color="#2E659E"/><stop offset="1" stop-color="#1D3E63"/></radialGradient><path fill="url(#i)" d="M20.13 29.57c0 .56.2 1.1.6 1.48.4.4.94.62 1.5.62s1.1-.22 1.5-.62c.4-.4.6-.92.6-1.48 0-1.16-.94-2.1-2.1-2.1-1.16 0-2.1.94-2.1 2.1zm3.87 0c0 .47-.18.9-.52 1.25-.33.33-.78.52-1.25.52s-.9-.2-1.25-.52c-.33-.34-.52-.78-.52-1.25 0-.98.8-1.77 1.77-1.77.98 0 1.77.8 1.77 1.77z" i:knockout="Off"/></g></g><path fill="url(#j)" stroke="#204a87" stroke-width=".5" d="M26.58 46.1c-3.2.06-21.75-7.52-22.93-10.24-1.16-2.67-2.35-24.7-.8-26.7C4.57 6.9 20.02 1 22.62 1.06c2.97.06 20.7 2.7 22.5 5.3 1.83 2.6.85 22.67-.2 25.55-1.15 3.13-15.14 14.13-18.35 14.2z"/></svg>