<svg xmlns="http://www.w3.org/2000/svg" width="48" height="48" xmlns:xlink="http://www.w3.org/1999/xlink"><defs><linearGradient id="o"><stop offset="0" stop-color="#3465a4" stop-opacity="0"/><stop offset="1" stop-color="#3465a4"/></linearGradient><linearGradient><stop offset="0" stop-color="#b8ceef"/><stop offset="1" stop-color="#b8ceef" stop-opacity="0"/></linearGradient><radialGradient id="b" cx="154.499" cy="-13.174" r="6.301" gradientUnits="userSpaceOnUse" gradientTransform="matrix(1 -.032 .032 1 22.086 20.063)" fy="-13.174" fx="154.499"><stop offset="0" stop-color="#fff"/><stop offset=".685" stop-color="#2E659E"/><stop offset="1" stop-color="#1D3E63"/></radialGradient><radialGradient id="a" cx="62.828" cy="-11.416" r="4.448" gradientUnits="userSpaceOnUse" gradientTransform="matrix(-1 .032 .032 1 240.069 12.354)" fy="-11.416" fx="62.828"><stop offset="0" stop-color="#fff"/><stop offset=".09" stop-color="#DBE8F2"/><stop offset=".248" stop-color="#A2C3DE"/><stop offset=".395" stop-color="#75A6CD"/><stop offset=".525" stop-color="#5591C2"/><stop offset=".634" stop-color="#4185BB"/><stop offset=".708" stop-color="#3A80B8"/><stop offset="1" stop-color="#244A87"/></radialGradient><linearGradient id="c" x1="309.833" x2="312.981" y1="-7.642" y2="-.206" gradientTransform="matrix(.972 .234 -.234 .972 -293.132 -55.162)" gradientUnits="userSpaceOnUse"><stop offset="0" stop-color="#A0C6DE"/><stop offset=".556" stop-color="#DAE8F2"/><stop offset="1" stop-color="#d9d9d9" stop-opacity="0"/></linearGradient><linearGradient id="d" x1="309.482" x2="313.774" y1="-8.623" y2="1.661" gradientTransform="matrix(.972 .234 -.234 .972 -293.132 -55.162)" gradientUnits="userSpaceOnUse"><stop offset="0" stop-color="#C7DCEB"/><stop offset="1" stop-color="#fff"/></linearGradient><radialGradient id="f" cx="42.943" cy="21.158" r="20.534" gradientUnits="userSpaceOnUse" gradientTransform="matrix(-1 0 0 1 218.365 0)" fy="21.158" fx="42.943"><stop offset="0" stop-color="#fff"/><stop offset="1" stop-color="#8D9BA6"/></radialGradient><radialGradient id="e" cx="39.525" cy="24.98" r="16.88" gradientUnits="userSpaceOnUse" gradientTransform="matrix(-1 0 0 1 218.365 0)" fy="24.98" fx="39.525"><stop offset="0" stop-color="#fff"/><stop offset=".09" stop-color="#F9FAFA"/><stop offset=".211" stop-color="#E8EBED"/><stop offset=".35" stop-color="#CCD2D7"/><stop offset=".5" stop-color="#A5B0B8"/><stop offset=".579" stop-color="#8E9CA6"/><stop offset="1" stop-color="#505359"/></radialGradient><linearGradient id="g" x1="-265.226" x2="-245.373" y1="-986.692" y2="-986.714" gradientTransform="matrix(-.86 -.335 .363 -.932 165.417 -967.12)" gradientUnits="userSpaceOnUse"><stop offset="0" stop-color="#A0C6DE"/><stop offset=".556" stop-color="#DAE8F2"/><stop offset="1" stop-color="#d9d9d9" stop-opacity="0"/></linearGradient><linearGradient id="h" x1="-265.264" x2="-251.65" y1="-986.737" y2="-986.013" gradientTransform="matrix(-.86 -.335 .363 -.932 165.417 -967.12)" gradientUnits="userSpaceOnUse"><stop offset="0" stop-color="#C7DCEB"/><stop offset="1" stop-color="#fff"/></linearGradient><linearGradient id="i" x1="235.227" x2="257.12" y1="-1045.221" y2="-1045.245" gradientTransform="matrix(-.934 .663 -.579 -.815 -350.724 -995.048)" gradientUnits="userSpaceOnUse"><stop offset="0" stop-color="#a0c6de" stop-opacity=".825"/><stop offset="1" stop-color="#d9d9d9" stop-opacity="0"/></linearGradient><linearGradient id="j" x1="235.502" x2="250.239" y1="-1044.999" y2="-1044.216" gradientTransform="matrix(-.934 .663 -.579 -.815 -350.724 -995.048)" gradientUnits="userSpaceOnUse"><stop offset="0" stop-color="#C7DCEB"/><stop offset="1" stop-color="#fff"/></linearGradient><radialGradient id="l" cx="208.201" cy="40.689" r="6.543" gradientUnits="userSpaceOnUse" fy="40.689" fx="208.201"><stop offset="0" stop-color="#fff"/><stop offset=".685" stop-color="#2E659E"/><stop offset="1" stop-color="#1D3E63"/></radialGradient><radialGradient id="k" cx="9.346" cy="41.779" r="4.618" gradientUnits="userSpaceOnUse" gradientTransform="matrix(-1 0 0 1 218.365 0)" fy="41.779" fx="9.346"><stop offset="0" stop-color="#fff"/><stop offset=".09" stop-color="#DBE8F2"/><stop offset=".248" stop-color="#A2C3DE"/><stop offset=".395" stop-color="#75A6CD"/><stop offset=".525" stop-color="#5591C2"/><stop offset=".634" stop-color="#4185BB"/><stop offset=".708" stop-color="#3A80B8"/><stop offset="1" stop-color="#244A87"/></radialGradient><radialGradient id="n" cx="207.792" cy="5.111" r="8.674" gradientUnits="userSpaceOnUse" fy="5.111" fx="207.792"><stop offset="0" stop-color="#fff"/><stop offset=".685" stop-color="#2E659E"/><stop offset="1" stop-color="#1D3E63"/></radialGradient><radialGradient id="m" cx="9.489" cy="6.556" r="6.122" gradientUnits="userSpaceOnUse" gradientTransform="matrix(-1 0 0 1 218.365 0)" fy="6.556" fx="9.489"><stop offset="0" stop-color="#fff"/><stop offset=".09" stop-color="#DBE8F2"/><stop offset=".248" stop-color="#A2C3DE"/><stop offset=".395" stop-color="#75A6CD"/><stop offset=".525" stop-color="#5591C2"/><stop offset=".634" stop-color="#4185BB"/><stop offset=".708" stop-color="#3A80B8"/><stop offset="1" stop-color="#244A87"/></radialGradient><radialGradient cx="62.828" cy="-11.416" r="4.448" xlink:href="#a" gradientUnits="userSpaceOnUse" gradientTransform="matrix(-1 .032 .032 1 240.069 12.354)" fx="62.828" fy="-11.416"/><radialGradient cx="154.499" cy="-13.174" r="6.301" xlink:href="#b" gradientUnits="userSpaceOnUse" gradientTransform="matrix(1 -.032 .032 1 22.086 20.063)" fx="154.499" fy="-13.174"/><linearGradient x1="309.833" x2="312.981" y1="-7.642" y2="-.206" xlink:href="#c" gradientUnits="userSpaceOnUse" gradientTransform="matrix(.972 .234 -.234 .972 -525.822 -57.272)"/><linearGradient x1="309.482" x2="313.774" y1="-8.623" y2="1.661" xlink:href="#d" gradientUnits="userSpaceOnUse" gradientTransform="matrix(.972 .234 -.234 .972 -525.822 -57.272)"/><radialGradient cx="39.525" cy="24.98" r="16.88" xlink:href="#e" gradientUnits="userSpaceOnUse" gradientTransform="matrix(-1 0 0 1 218.365 0)" fx="39.525" fy="24.98"/><radialGradient cx="42.943" cy="21.158" r="20.534" xlink:href="#f" gradientUnits="userSpaceOnUse" gradientTransform="matrix(-1 0 0 1 218.365 0)" fx="42.943" fy="21.158"/><linearGradient x1="-265.226" x2="-245.373" y1="-986.692" y2="-986.714" xlink:href="#g" gradientUnits="userSpaceOnUse" gradientTransform="matrix(-.86 -.335 .363 -.932 -67.273 -969.231)"/><linearGradient x1="-265.264" x2="-251.65" y1="-986.737" y2="-986.013" xlink:href="#h" gradientUnits="userSpaceOnUse" gradientTransform="matrix(-.86 -.335 .363 -.932 -67.273 -969.231)"/><linearGradient x1="235.227" x2="257.12" y1="-1045.221" y2="-1045.245" xlink:href="#i" gradientUnits="userSpaceOnUse" gradientTransform="matrix(-.934 .663 -.579 -.815 -583.414 -997.159)"/><linearGradient x1="235.502" x2="250.239" y1="-1044.999" y2="-1044.216" xlink:href="#j" gradientUnits="userSpaceOnUse" gradientTransform="matrix(-.934 .663 -.579 -.815 -583.414 -997.159)"/><radialGradient cx="9.346" cy="41.779" r="4.618" xlink:href="#k" gradientUnits="userSpaceOnUse" gradientTransform="matrix(-1 0 0 1 218.365 0)" fx="9.346" fy="41.779"/><radialGradient cx="208.201" cy="40.689" r="6.543" xlink:href="#l" gradientUnits="userSpaceOnUse" fx="208.201" fy="40.689"/><radialGradient cx="9.489" cy="6.556" r="6.122" xlink:href="#m" gradientUnits="userSpaceOnUse" gradientTransform="matrix(-1 0 0 1 218.365 0)" fx="9.489" fy="6.556"/><radialGradient cx="207.792" cy="5.111" r="8.674" xlink:href="#n" gradientUnits="userSpaceOnUse" fx="207.792" fy="5.111"/><linearGradient id="t" x1="13.237" x2="44.464" y1="16.282" y2="16.282" xlink:href="#o" gradientUnits="userSpaceOnUse"/><linearGradient id="r" x1="247.991" x2="257.563" y1="-1069.745" y2="-1053.844" xlink:href="#i" gradientUnits="userSpaceOnUse" gradientTransform="matrix(-.934 .663 -.579 -.815 -350.724 -995.048)"/><linearGradient id="s" x1="18.715" x2="38.986" y1="32.674" y2="40.11" xlink:href="#o" gradientUnits="userSpaceOnUse"/><linearGradient id="q" x1="12.019" x2="7.486" y1="20.086" y2="-1.492" xlink:href="#o" gradientUnits="userSpaceOnUse"/><linearGradient id="p" x1="249.97" x2="256.878" y1="-1027.633" y2="-1043.71" xlink:href="#i" gradientUnits="userSpaceOnUse" gradientTransform="matrix(-.934 .663 -.579 -.815 -350.724 -995.048)"/></defs><g><g transform="translate(-168.833 -.254)"><path fill="none" stroke="#152a4c" stroke-width="1.5" d="M174.5 4.7c.05 1.77 1.53 3.17 3.3 3.1 1.78-.05 3.17-1.53 3.1-3.3-.04-1.78-1.53-3.17-3.3-3.1-1.77.04-3.16 1.53-3.1 3.3z"/><radialGradient cx="62.828" cy="-11.416" r="4.448" gradientUnits="userSpaceOnUse" gradientTransform="matrix(-1 .032 .032 1 240.069 12.354)" fy="-11.416" fx="62.828"><stop offset="0" stop-color="#fff"/><stop offset=".09" stop-color="#DBE8F2"/><stop offset=".248" stop-color="#A2C3DE"/><stop offset=".395" stop-color="#75A6CD"/><stop offset=".525" stop-color="#5591C2"/><stop offset=".634" stop-color="#4185BB"/><stop offset=".708" stop-color="#3A80B8"/><stop offset="1" stop-color="#244A87"/></radialGradient><path fill="url(#a)" d="M174.5 4.7c.05 1.77 1.53 3.17 3.3 3.1 1.78-.05 3.17-1.53 3.1-3.3-.04-1.78-1.53-3.17-3.3-3.1-1.77.04-3.16 1.53-3.1 3.3z"/><g><radialGradient cx="154.499" cy="-13.174" r="6.301" gradientUnits="userSpaceOnUse" gradientTransform="matrix(1 -.032 .032 1 22.086 20.063)" fy="-13.174" fx="154.499"><stop offset="0" stop-color="#fff"/><stop offset=".685" stop-color="#2E659E"/><stop offset="1" stop-color="#1D3E63"/></radialGradient><path fill="url(#b)" d="M174.5 4.7c.05 1.77 1.54 3.17 3.3 3.1.87-.02 1.66-.38 2.25-1 .6-.63.9-1.45.86-2.3 0-.87-.37-1.66-1-2.24-.62-.6-1.44-.9-2.3-.87-1.77.04-3.16 1.53-3.1 3.3zm.44 0c-.04-1.53 1.15-2.82 2.68-2.86.73-.03 1.44.24 1.97.74s.85 1.2.87 1.93c.02.75-.25 1.45-.75 2-.5.53-1.2.84-1.92.86-1.53.05-2.8-1.15-2.86-2.67z"/></g></g><path fill="url(#p)" stroke="url(#q)" d="M12.2 6.18c-.25-.92-1.45-1.42-3.15-1.18-1.85.26-2.8 1.3-2.6 2.36L9.4 18.5s1.13-.4 2.2-.57c1.05-.16 1.66.07 1.66.07L12.2 6.18z" color="#000" overflow="visible"/><g transform="translate(-168.833 -.254)"><radialGradient cx="39.525" cy="24.98" r="16.88" gradientUnits="userSpaceOnUse" gradientTransform="matrix(-1 0 0 1 218.365 0)" fy="24.98" fx="39.525"><stop offset="0" stop-color="#fff"/><stop offset=".09" stop-color="#F9FAFA"/><stop offset=".211" stop-color="#E8EBED"/><stop offset=".35" stop-color="#CCD2D7"/><stop offset=".5" stop-color="#A5B0B8"/><stop offset=".579" stop-color="#8E9CA6"/><stop offset="1" stop-color="#505359"/></radialGradient><path fill="url(#e)" stroke="#192333" d="M170.8 29.55c0 6.23 5.06 11.28 11.3 11.28 6.23 0 11.28-5.05 11.28-11.28 0-6.24-5.05-11.3-11.28-11.3-6.24 0-11.3 5.06-11.3 11.3z"/><g><radialGradient cx="42.943" cy="21.158" r="20.534" gradientUnits="userSpaceOnUse" gradientTransform="matrix(-1 0 0 1 218.365 0)" fy="21.158" fx="42.943"><stop offset="0" stop-color="#fff"/><stop offset="1" stop-color="#8D9BA6"/></radialGradient><path fill="url(#f)" d="M182.1 18.55c-6.07 0-11 4.93-11 11 0 6.06 4.93 11 11 11 6.06 0 11-4.94 11-11 0-6.07-4.94-11-11-11zm0 21.4c-5.74 0-10.4-4.67-10.4-10.4 0-5.74 4.66-10.4 10.4-10.4 5.73 0 10.4 4.66 10.4 10.4 0 5.73-4.67 10.4-10.4 10.4z"/></g></g><path fill="url(#r)" stroke="url(#s)" d="M40.03 46.6c-1.84-.73-2.98-2.55-2.2-4.54.77-2 2.72-2.76 4.56-2.04l-21.32-6.7c-1.07-.43-2.3.17-2.75 1.33-.46 1.16.04 2.44 1.1 2.85l20.6 9.1z" color="#000" overflow="visible"/><path fill="url(#i)" stroke="url(#t)" d="M44.12 12.18c-2.23 1.58-5.53 1.3-6.9-.64-1.4-1.95-.96-5.56 1.26-7.14L15.04 23.5c-1.3.9-1.7 2.57-.9 3.7.8 1.12 2.5 1.3 3.8.38l26.18-15.4z"/><g transform="translate(-168.833 -.254)"><circle cx="209.793" cy="43.504" r="3.333" fill="none" stroke="#152a4c" stroke-width="1.5"/><radialGradient cx="9.346" cy="41.779" r="4.618" gradientUnits="userSpaceOnUse" gradientTransform="matrix(-1 0 0 1 218.365 0)" fy="41.779" fx="9.346"><stop offset="0" stop-color="#fff"/><stop offset=".09" stop-color="#DBE8F2"/><stop offset=".248" stop-color="#A2C3DE"/><stop offset=".395" stop-color="#75A6CD"/><stop offset=".525" stop-color="#5591C2"/><stop offset=".634" stop-color="#4185BB"/><stop offset=".708" stop-color="#3A80B8"/><stop offset="1" stop-color="#244A87"/></radialGradient><circle cx="209.793" cy="43.504" r="3.333" fill="url(#k)"/><g><radialGradient cx="208.201" cy="40.689" r="6.543" gradientUnits="userSpaceOnUse" fy="40.689" fx="208.201"><stop offset="0" stop-color="#fff"/><stop offset=".685" stop-color="#2E659E"/><stop offset="1" stop-color="#1D3E63"/></radialGradient><path fill="url(#l)" d="M206.46 43.5c0 1.84 1.5 3.34 3.33 3.34.9 0 1.72-.35 2.35-.98.63-.63.98-1.46.98-2.36 0-.9-.35-1.73-.98-2.36-.63-.63-1.47-.97-2.36-.97-1.84 0-3.34 1.5-3.34 3.33zm.38 0c0-1.63 1.32-2.95 2.95-2.95.78 0 1.52.3 2.08.87.56.55.87 1.3.87 2.08 0 .8-.3 1.53-.87 2.1-.56.55-1.3.86-2.1.86-1.62 0-2.94-1.33-2.94-2.96z"/></g></g><g transform="translate(-168.833 -.254)"><path fill="none" stroke="#152a4c" stroke-width="1.5" d="M205.48 8.84c0 2.45 2 4.42 4.42 4.42 2.45 0 4.43-1.97 4.43-4.42 0-2.44-1.98-4.42-4.43-4.42-2.43 0-4.42 1.98-4.42 4.42z"/><radialGradient cx="9.489" cy="6.556" r="6.122" gradientUnits="userSpaceOnUse" gradientTransform="matrix(-1 0 0 1 218.365 0)" fy="6.556" fx="9.489"><stop offset="0" stop-color="#fff"/><stop offset=".09" stop-color="#DBE8F2"/><stop offset=".248" stop-color="#A2C3DE"/><stop offset=".395" stop-color="#75A6CD"/><stop offset=".525" stop-color="#5591C2"/><stop offset=".634" stop-color="#4185BB"/><stop offset=".708" stop-color="#3A80B8"/><stop offset="1" stop-color="#244A87"/></radialGradient><path fill="url(#m)" d="M205.48 8.84c0 2.45 2 4.42 4.42 4.42 2.45 0 4.43-1.97 4.43-4.42 0-2.44-1.98-4.42-4.43-4.42-2.43 0-4.42 1.98-4.42 4.42z"/><g><radialGradient cx="207.792" cy="5.111" r="8.674" gradientUnits="userSpaceOnUse" fy="5.111" fx="207.792"><stop offset="0" stop-color="#fff"/><stop offset=".685" stop-color="#2E659E"/><stop offset="1" stop-color="#1D3E63"/></radialGradient><path fill="url(#n)" d="M205.48 8.84c0 2.44 2 4.42 4.42 4.42 1.2 0 2.3-.46 3.13-1.3.84-.82 1.3-1.93 1.3-3.12 0-1.18-.46-2.3-1.3-3.13-.84-.82-1.94-1.28-3.13-1.28-2.43 0-4.42 1.98-4.42 4.42zm.6 0c0-2.1 1.7-3.83 3.82-3.83 1.03 0 2 .4 2.7 1.14.73.72 1.14 1.68 1.14 2.7 0 1.03-.4 2-1.13 2.7-.7.73-1.67 1.13-2.7 1.13-2.1 0-3.82-1.72-3.82-3.83z"/></g></g></g></svg>