<svg xmlns="http://www.w3.org/2000/svg" width="48" height="48" xmlns:i="&ns_ai;" xmlns:xlink="http://www.w3.org/1999/xlink" version="1"><defs><linearGradient id="b"><stop offset="0"/><stop offset="1" stop-color="#696969"/></linearGradient><radialGradient id="a" cx="23.909" cy="267.666" r="19.809" gradientUnits="userSpaceOnUse" fy="267.666" fx="23.909"><stop offset="0" stop-color="#f5f4f4" stop-opacity=".691"/><stop offset="1" stop-color="#fff" stop-opacity="0"/></radialGradient><radialGradient id="d" cx="23.909" cy="267.666" r="19.809" xlink:href="#a" gradientUnits="userSpaceOnUse" fx="23.909" fy="267.666" gradientTransform="matrix(-1.121 0 0 -.909 50.872 257.397)"/><linearGradient id="c" x1="43.305" x2="9.767" y1="45.451" y2="16.466" xlink:href="#b" gradientUnits="userSpaceOnUse"/></defs><g><path stroke="url(#c)" stroke-width="2" d="M24.05 45.9h19c.4 0 .73-.22.9-.54 1.5-3 2.36-6.4 2.36-10 0-12.3-9.96-22.26-22.25-22.26-12.3 0-22.27 9.97-22.27 22.27 0 3.6.86 7 2.37 10 .17.3.5.53.9.53h19z" i:knockout="Off"/><path d="M24.05 44.96h17.92c.37 0 .68-.2.84-.5 1.44-2.83 2.24-6.04 2.24-9.43 0-11.6-9.4-21-21-21s-20.98 9.4-20.98 21c0 3.4.8 6.6 2.22 9.43.17.3.48.5.84.5h17.93z" i:knockout="Off" opacity=".6"/><path fill="#870000" d="M24.33 44.84l20-15.3c-2.67-10.2-12.3-15.5-20.28-15.5-8 0-14.94 4.47-18.5 11.04l18.78 19.76z" i:knockout="Off"/><path fill="none" stroke="#fa100c" d="M5.56 25.08l18.77 19.76" i:knockout="Off"/><path fill="none" stroke="#fa100c" d="M44.32 29.55l-20 15.3" i:knockout="Off"/><path fill="none" stroke="#cfeb87" d="M43.2 40.47l-3-.8" i:knockout="Off"/><path fill="none" stroke="#cfeb87" d="M43.2 30.2l-2.92.8" i:knockout="Off"/><path fill="none" stroke="#cfeb87" d="M38.05 21.34L36 23.4" i:knockout="Off"/><path fill="none" stroke="#cfeb87" d="M29.18 16.2l-.75 2.8" i:knockout="Off"/><path fill="none" stroke="#cfeb87" d="M18.92 16.2l.75 2.8" i:knockout="Off"/><path fill="none" stroke="#cfeb87" d="M10.05 21.34l2.07 2.07" i:knockout="Off"/><path fill="none" stroke="#cfeb87" d="M4.9 30.2l2.92.8" i:knockout="Off"/><path fill="none" stroke="#cfeb87" d="M4.9 40.47l3-.8" i:knockout="Off"/><path fill="url(#d)" d="M38.9 23.05c0 4.97-6.65 9-14.85 9s-14.84-4.03-14.84-9c0-4.98 7.87-9 14.85-9 7.1 0 14.84 4.02 14.84 9z" i:knockout="Off"/><path d="M33.07 6.67H43.7" i:knockout="Off"/><path d="M30.02 1.25h2.48v.84h-1.4v9.02h1.4v.83h-2.48V1.25"/><g><path d="M34.94 9.73l-3-3 3-3" i:knockout="Off"/><path d="M41.84 9.73l3-3-3-3" i:knockout="Off"/><path fill-rule="evenodd" d="M34 5.67h8.15V7.7H34z" color="#000" overflow="visible"/></g><path d="M46.7 1.26h-2.48v.84h1.4v9.02h-1.4v.84h2.5V1.26"/><path fill="#fff" stroke="#f7cc80" stroke-width="1.15" d="M36.66 26.82L24.84 44.85l-1.08-.76 12.9-17.28z" i:knockout="Off"/></g></svg>