<svg xmlns="http://www.w3.org/2000/svg" width="48" height="48" xmlns:xlink="http://www.w3.org/1999/xlink" viewBox="0 0 48 46.088" overflow="visible" enable-background="new 0 0 48 46.088" version="1"><defs><linearGradient id="c"><stop offset="0" stop-color="#a53efc" stop-opacity="0"/><stop offset=".463" stop-color="#903efc" stop-opacity="0"/><stop offset="1" stop-color="#a53efc"/></linearGradient><radialGradient id="g" cx="86.376" cy="122.548" r="6.382" xlink:href="#a" gradientUnits="userSpaceOnUse" gradientTransform="matrix(0 -1 1 0 -99.904 113.047)" fx="86.376" fy="122.548"/><radialGradient id="h" cx="-40.105" cy="120.951" r="11.252" xlink:href="#b" gradientUnits="userSpaceOnUse" gradientTransform="matrix(0 1 1 0 -99.904 64.643)" fx="-40.105" fy="120.951"/><radialGradient id="e" cx="86.376" cy="122.548" r="6.382" xlink:href="#a" gradientUnits="userSpaceOnUse" gradientTransform="matrix(0 -1 1 0 -99.904 113.047)" fx="86.376" fy="122.548"/><radialGradient id="f" cx="-40.105" cy="120.951" r="11.252" xlink:href="#b" gradientUnits="userSpaceOnUse" gradientTransform="matrix(0 1 1 0 -99.904 64.643)" fx="-40.105" fy="120.951"/><radialGradient id="i" cx="86.376" cy="122.548" r="6.382" xlink:href="#a" gradientUnits="userSpaceOnUse" gradientTransform="matrix(0 -1 1 0 -99.904 113.047)" fx="86.376" fy="122.548"/><radialGradient id="j" cx="-40.105" cy="120.951" r="11.252" xlink:href="#b" gradientUnits="userSpaceOnUse" gradientTransform="matrix(0 1 1 0 -99.904 64.643)" fx="-40.105" fy="120.951"/><radialGradient id="k" cx="86.376" cy="122.548" r="6.382" xlink:href="#a" gradientUnits="userSpaceOnUse" gradientTransform="matrix(0 -1 1 0 -99.904 113.047)" fx="86.376" fy="122.548"/><radialGradient id="l" cx="-40.105" cy="120.951" r="11.252" xlink:href="#b" gradientUnits="userSpaceOnUse" gradientTransform="matrix(0 1 1 0 -99.904 64.643)" fx="-40.105" fy="120.951"/><radialGradient id="m" cx="86.376" cy="122.548" r="6.382" xlink:href="#a" gradientUnits="userSpaceOnUse" gradientTransform="matrix(0 -1 1 0 -99.904 113.047)" fx="86.376" fy="122.548"/><radialGradient id="n" cx="-40.105" cy="120.951" r="11.252" xlink:href="#b" gradientUnits="userSpaceOnUse" gradientTransform="matrix(0 1 1 0 -99.904 64.643)" fx="-40.105" fy="120.951"/><radialGradient id="o" cx="86.376" cy="122.548" r="6.382" xlink:href="#a" gradientUnits="userSpaceOnUse" gradientTransform="matrix(0 -1 1 0 -99.904 113.047)" fx="86.376" fy="122.548"/><radialGradient id="p" cx="-40.105" cy="120.951" r="11.252" xlink:href="#b" gradientUnits="userSpaceOnUse" gradientTransform="matrix(0 1 1 0 -99.904 64.643)" fx="-40.105" fy="120.951"/><radialGradient id="q" cx="86.376" cy="122.548" r="6.382" xlink:href="#a" gradientUnits="userSpaceOnUse" gradientTransform="matrix(0 -1 1 0 -99.904 113.047)" fx="86.376" fy="122.548"/><radialGradient id="r" cx="-40.105" cy="120.951" r="11.252" xlink:href="#b" gradientUnits="userSpaceOnUse" gradientTransform="matrix(0 1 1 0 -99.904 64.643)" fx="-40.105" fy="120.951"/><radialGradient id="d" cx="30.3" cy="19.89" r="16.18" xlink:href="#c" gradientUnits="userSpaceOnUse" gradientTransform="matrix(.98 .225 -.25 1.122 6.316 -10.609)" fx="30.3" fy="19.89"/></defs><path fill="url(#d)" fill-rule="evenodd" stroke="#5c3566" stroke-width="2" d="M31.78.2c-7.2 0-11.76 9.7-13.88 16.52-2.12 6.84-2.56 11-.76 12.82 1.8 1.84 8.27 3.52 14.64 3.02 6.37-.5 12.4-1.5 13.72-3.67 1.3-2.17.16-9.84-1.63-15C42.07 8.7 40.27-.46 31.77.2z" color="#000" stroke-dasharray="2.00000053999999980, 2.00000053999999980" overflow="visible"/><g transform="matrix(1.046 0 0 1.046 -12.378 -23.301)"><circle cx="23.686" cy="28.333" r="4.543" fill="none" stroke="#152a4c" stroke-width="1.434"/><radialGradient id="a" cx="86.376" cy="122.548" r="6.382" gradientUnits="userSpaceOnUse" gradientTransform="matrix(0 -1 1 0 -99.904 113.047)" fy="122.548" fx="86.376"><stop offset="0" stop-color="#fff"/><stop offset=".09" stop-color="#DBE8F2"/><stop offset=".248" stop-color="#A2C3DE"/><stop offset=".395" stop-color="#75A6CD"/><stop offset=".525" stop-color="#5591C2"/><stop offset=".634" stop-color="#4185BB"/><stop offset=".708" stop-color="#3A80B8"/><stop offset="1" stop-color="#244A87"/></radialGradient><circle cx="23.686" cy="28.333" r="4.543" fill="url(#e)"/><g><radialGradient id="b" cx="-40.105" cy="120.951" r="11.252" gradientUnits="userSpaceOnUse" gradientTransform="matrix(0 1 1 0 -99.904 64.643)" fy="120.951" fx="-40.105"><stop offset="0" stop-color="#fff"/><stop offset=".685" stop-color="#2E659E"/><stop offset="1" stop-color="#1D3E63"/></radialGradient><path fill="url(#f)" d="M19.14 28.33c0 1.2.47 2.36 1.33 3.2.86.87 2 1.35 3.22 1.35 1.2 0 2.34-.48 3.2-1.34.86-.85 1.33-2 1.33-3.2 0-2.5-2.04-4.55-4.54-4.55-2.52 0-4.56 2.03-4.56 4.53zm8.36 0c0 1.02-.4 1.98-1.1 2.7-.74.72-1.7 1.12-2.7 1.12-1.04 0-2-.4-2.7-1.12-.74-.72-1.14-1.68-1.14-2.7 0-2.1 1.72-3.82 3.83-3.82 2.1 0 3.8 1.73 3.8 3.83z"/></g></g><g transform="matrix(1.046 0 0 1.046 -16.243 -6.279)"><circle cx="23.686" cy="28.333" r="4.543" fill="none" stroke="#152a4c" stroke-width="1.434"/><radialGradient cx="86.376" cy="122.548" r="6.382" gradientUnits="userSpaceOnUse" gradientTransform="matrix(0 -1 1 0 -99.904 113.047)" fy="122.548" fx="86.376"><stop offset="0" stop-color="#fff"/><stop offset=".09" stop-color="#DBE8F2"/><stop offset=".248" stop-color="#A2C3DE"/><stop offset=".395" stop-color="#75A6CD"/><stop offset=".525" stop-color="#5591C2"/><stop offset=".634" stop-color="#4185BB"/><stop offset=".708" stop-color="#3A80B8"/><stop offset="1" stop-color="#244A87"/></radialGradient><circle cx="23.686" cy="28.333" r="4.543" fill="url(#g)"/><g><radialGradient cx="-40.105" cy="120.951" r="11.252" gradientUnits="userSpaceOnUse" gradientTransform="matrix(0 1 1 0 -99.904 64.643)" fy="120.951" fx="-40.105"><stop offset="0" stop-color="#fff"/><stop offset=".685" stop-color="#2E659E"/><stop offset="1" stop-color="#1D3E63"/></radialGradient><path fill="url(#h)" d="M19.14 28.33c0 1.2.47 2.36 1.33 3.2.86.87 2 1.35 3.22 1.35 1.2 0 2.34-.48 3.2-1.34.86-.85 1.33-2 1.33-3.2 0-2.5-2.04-4.55-4.54-4.55-2.52 0-4.56 2.03-4.56 4.53zm8.36 0c0 1.02-.4 1.98-1.1 2.7-.74.72-1.7 1.12-2.7 1.12-1.04 0-2-.4-2.7-1.12-.74-.72-1.14-1.68-1.14-2.7 0-2.1 1.72-3.82 3.83-3.82 2.1 0 3.8 1.73 3.8 3.83z"/></g></g><g transform="matrix(1.046 0 0 1.046 -1.109 -6.449)"><circle cx="23.686" cy="28.333" r="4.543" fill="none" stroke="#152a4c" stroke-width="1.434"/><radialGradient cx="86.376" cy="122.548" r="6.382" gradientUnits="userSpaceOnUse" gradientTransform="matrix(0 -1 1 0 -99.904 113.047)" fy="122.548" fx="86.376"><stop offset="0" stop-color="#fff"/><stop offset=".09" stop-color="#DBE8F2"/><stop offset=".248" stop-color="#A2C3DE"/><stop offset=".395" stop-color="#75A6CD"/><stop offset=".525" stop-color="#5591C2"/><stop offset=".634" stop-color="#4185BB"/><stop offset=".708" stop-color="#3A80B8"/><stop offset="1" stop-color="#244A87"/></radialGradient><circle cx="23.686" cy="28.333" r="4.543" fill="url(#i)"/><g><radialGradient cx="-40.105" cy="120.951" r="11.252" gradientUnits="userSpaceOnUse" gradientTransform="matrix(0 1 1 0 -99.904 64.643)" fy="120.951" fx="-40.105"><stop offset="0" stop-color="#fff"/><stop offset=".685" stop-color="#2E659E"/><stop offset="1" stop-color="#1D3E63"/></radialGradient><path fill="url(#j)" d="M19.14 28.33c0 1.2.47 2.36 1.33 3.2.86.87 2 1.35 3.22 1.35 1.2 0 2.34-.48 3.2-1.34.86-.85 1.33-2 1.33-3.2 0-2.5-2.04-4.55-4.54-4.55-2.52 0-4.56 2.03-4.56 4.53zm8.36 0c0 1.02-.4 1.98-1.1 2.7-.74.72-1.7 1.12-2.7 1.12-1.04 0-2-.4-2.7-1.12-.74-.72-1.14-1.68-1.14-2.7 0-2.1 1.72-3.82 3.83-3.82 2.1 0 3.8 1.73 3.8 3.83z"/></g></g><g transform="matrix(1.046 0 0 1.046 -10.291 11.196)"><circle cx="23.686" cy="28.333" r="4.543" fill="none" stroke="#152a4c" stroke-width="1.434"/><radialGradient cx="86.376" cy="122.548" r="6.382" gradientUnits="userSpaceOnUse" gradientTransform="matrix(0 -1 1 0 -99.904 113.047)" fy="122.548" fx="86.376"><stop offset="0" stop-color="#fff"/><stop offset=".09" stop-color="#DBE8F2"/><stop offset=".248" stop-color="#A2C3DE"/><stop offset=".395" stop-color="#75A6CD"/><stop offset=".525" stop-color="#5591C2"/><stop offset=".634" stop-color="#4185BB"/><stop offset=".708" stop-color="#3A80B8"/><stop offset="1" stop-color="#244A87"/></radialGradient><circle cx="23.686" cy="28.333" r="4.543" fill="url(#k)"/><g><radialGradient cx="-40.105" cy="120.951" r="11.252" gradientUnits="userSpaceOnUse" gradientTransform="matrix(0 1 1 0 -99.904 64.643)" fy="120.951" fx="-40.105"><stop offset="0" stop-color="#fff"/><stop offset=".685" stop-color="#2E659E"/><stop offset="1" stop-color="#1D3E63"/></radialGradient><path fill="url(#l)" d="M19.14 28.33c0 1.2.47 2.36 1.33 3.2.86.87 2 1.35 3.22 1.35 1.2 0 2.34-.48 3.2-1.34.86-.85 1.33-2 1.33-3.2 0-2.5-2.04-4.55-4.54-4.55-2.52 0-4.56 2.03-4.56 4.53zm8.36 0c0 1.02-.4 1.98-1.1 2.7-.74.72-1.7 1.12-2.7 1.12-1.04 0-2-.4-2.7-1.12-.74-.72-1.14-1.68-1.14-2.7 0-2.1 1.72-3.82 3.83-3.82 2.1 0 3.8 1.73 3.8 3.83z"/></g></g><g transform="matrix(1.046 0 0 1.046 7.903 10.686)"><circle cx="23.686" cy="28.333" r="4.543" fill="none" stroke="#152a4c" stroke-width="1.434"/><radialGradient cx="86.376" cy="122.548" r="6.382" gradientUnits="userSpaceOnUse" gradientTransform="matrix(0 -1 1 0 -99.904 113.047)" fy="122.548" fx="86.376"><stop offset="0" stop-color="#fff"/><stop offset=".09" stop-color="#DBE8F2"/><stop offset=".248" stop-color="#A2C3DE"/><stop offset=".395" stop-color="#75A6CD"/><stop offset=".525" stop-color="#5591C2"/><stop offset=".634" stop-color="#4185BB"/><stop offset=".708" stop-color="#3A80B8"/><stop offset="1" stop-color="#244A87"/></radialGradient><circle cx="23.686" cy="28.333" r="4.543" fill="url(#m)"/><g><radialGradient cx="-40.105" cy="120.951" r="11.252" gradientUnits="userSpaceOnUse" gradientTransform="matrix(0 1 1 0 -99.904 64.643)" fy="120.951" fx="-40.105"><stop offset="0" stop-color="#fff"/><stop offset=".685" stop-color="#2E659E"/><stop offset="1" stop-color="#1D3E63"/></radialGradient><path fill="url(#n)" d="M19.14 28.33c0 1.2.47 2.36 1.33 3.2.86.87 2 1.35 3.22 1.35 1.2 0 2.34-.48 3.2-1.34.86-.85 1.33-2 1.33-3.2 0-2.5-2.04-4.55-4.54-4.55-2.52 0-4.56 2.03-4.56 4.53zm8.36 0c0 1.02-.4 1.98-1.1 2.7-.74.72-1.7 1.12-2.7 1.12-1.04 0-2-.4-2.7-1.12-.74-.72-1.14-1.68-1.14-2.7 0-2.1 1.72-3.82 3.83-3.82 2.1 0 3.8 1.73 3.8 3.83z"/></g></g><g transform="matrix(1.046 0 0 1.046 7.732 -22.941)"><radialGradient cx="86.376" cy="122.548" r="6.382" gradientUnits="userSpaceOnUse" gradientTransform="matrix(0 -1 1 0 -99.904 113.047)" fy="122.548" fx="86.376"><stop offset="0" stop-color="#fff"/><stop offset=".09" stop-color="#DBE8F2"/><stop offset=".248" stop-color="#A2C3DE"/><stop offset=".395" stop-color="#75A6CD"/><stop offset=".525" stop-color="#5591C2"/><stop offset=".634" stop-color="#4185BB"/><stop offset=".708" stop-color="#3A80B8"/><stop offset="1" stop-color="#244A87"/></radialGradient><g transform="translate(-.975 2.601)"><circle cx="23.686" cy="28.333" r="4.543" fill="none" stroke="#152a4c" stroke-width="1.434"/><circle cx="23.686" cy="28.333" r="4.543" fill="url(#o)"/><g><radialGradient cx="-40.105" cy="120.951" r="11.252" fx="-40.105" fy="120.951" gradientTransform="matrix(0 1 1 0 -99.904 64.643)" gradientUnits="userSpaceOnUse"><stop offset="0" stop-color="#fff"/><stop offset=".685" stop-color="#2E659E"/><stop offset="1" stop-color="#1D3E63"/></radialGradient><path fill="url(#p)" d="M19.14 28.33c0 1.2.47 2.36 1.33 3.2.86.87 2 1.35 3.22 1.35 1.2 0 2.34-.48 3.2-1.34.86-.85 1.33-2 1.33-3.2 0-2.5-2.04-4.55-4.54-4.55-2.52 0-4.56 2.03-4.56 4.53zm8.36 0c0 1.02-.4 1.98-1.1 2.7-.74.72-1.7 1.12-2.7 1.12-1.04 0-2-.4-2.7-1.12-.74-.72-1.14-1.68-1.14-2.7 0-2.1 1.72-3.82 3.83-3.82 2.1 0 3.8 1.73 3.8 3.83z"/></g></g></g><g transform="matrix(1.046 0 0 1.046 13.684 -6.959)"><circle cx="23.686" cy="28.333" r="4.543" fill="none" stroke="#152a4c" stroke-width="1.434"/><radialGradient cx="86.376" cy="122.548" r="6.382" gradientUnits="userSpaceOnUse" gradientTransform="matrix(0 -1 1 0 -99.904 113.047)" fy="122.548" fx="86.376"><stop offset="0" stop-color="#fff"/><stop offset=".09" stop-color="#DBE8F2"/><stop offset=".248" stop-color="#A2C3DE"/><stop offset=".395" stop-color="#75A6CD"/><stop offset=".525" stop-color="#5591C2"/><stop offset=".634" stop-color="#4185BB"/><stop offset=".708" stop-color="#3A80B8"/><stop offset="1" stop-color="#244A87"/></radialGradient><circle cx="23.686" cy="28.333" r="4.543" fill="url(#q)"/><g><radialGradient cx="-40.105" cy="120.951" r="11.252" gradientUnits="userSpaceOnUse" gradientTransform="matrix(0 1 1 0 -99.904 64.643)" fy="120.951" fx="-40.105"><stop offset="0" stop-color="#fff"/><stop offset=".685" stop-color="#2E659E"/><stop offset="1" stop-color="#1D3E63"/></radialGradient><path fill="url(#r)" d="M19.14 28.33c0 1.2.47 2.36 1.33 3.2.86.87 2 1.35 3.22 1.35 1.2 0 2.34-.48 3.2-1.34.86-.85 1.33-2 1.33-3.2 0-2.5-2.04-4.55-4.54-4.55-2.52 0-4.56 2.03-4.56 4.53zm8.36 0c0 1.02-.4 1.98-1.1 2.7-.74.72-1.7 1.12-2.7 1.12-1.04 0-2-.4-2.7-1.12-.74-.72-1.14-1.68-1.14-2.7 0-2.1 1.72-3.82 3.83-3.82 2.1 0 3.8 1.73 3.8 3.83z"/></g></g></svg>