<svg xmlns="http://www.w3.org/2000/svg" width="48" height="48" xmlns:ns4="&ns_ai;" xmlns:xlink="http://www.w3.org/1999/xlink"><defs><linearGradient id="f"><stop offset="0" stop-color="#400809"/><stop offset="1" stop-color="#400809" stop-opacity="0"/></linearGradient><linearGradient id="k" x1="913.49" x2="924.443" y1="238.512" y2="231.052" xlink:href="#a" gradientUnits="userSpaceOnUse" gradientTransform="matrix(.119 .918 -2.24 .297 436.048 -869.966)"/><linearGradient id="b" x1="-165.82" x2="-170.229" y1="-93.99" y2="-103.786" gradientTransform="matrix(-.574 -.819 .819 -.574 -6.75 -152.536)" gradientUnits="userSpaceOnUse"><stop offset="0" stop-color="#6F87A0"/><stop offset="1" stop-color="#fff" stop-opacity="0"/></linearGradient><linearGradient x1="-165.82" x2="-170.229" y1="-93.99" y2="-103.786" xlink:href="#b" gradientUnits="userSpaceOnUse" gradientTransform="matrix(-.76 -1.768 1.768 -.76 39.745 -358.167)"/><linearGradient id="c" x1="-165.394" x2="-170.38" y1="-93.119" y2="-104.198" gradientTransform="matrix(-.574 -.819 .819 -.574 -3.236 298.158)" gradientUnits="userSpaceOnUse"><stop offset="0" stop-color="#88A9C3"/><stop offset="1" stop-color="#fff"/></linearGradient><linearGradient x1="-165.394" x2="-170.38" y1="-93.119" y2="-104.198" xlink:href="#c" gradientUnits="userSpaceOnUse" gradientTransform="matrix(-.574 -.819 .819 -.574 -3.236 298.158)"/><linearGradient id="e"><stop offset="0" stop-color="#590b08"/><stop offset="1" stop-color="#590b08" stop-opacity="0"/></linearGradient><linearGradient id="d" x1="897.265" x2="904.772" y1="232.169" y2="238.093" gradientUnits="userSpaceOnUse" gradientTransform="matrix(1.09 0 0 1.09 -963.598 -214.078)"><stop offset=".006" stop-color="#D8300C"/><stop offset=".183" stop-color="#ff6c12"/><stop offset="1" stop-color="#faaf3e" stop-opacity="0"/></linearGradient><linearGradient id="a" x1="910.141" x2="910.141" y1="218.2" y2="236.867" gradientUnits="userSpaceOnUse" gradientTransform="matrix(1.09 0 0 1.09 -975.81 -234.107)"><stop offset=".006" stop-color="#F17912"/><stop offset=".039" stop-color="#F07512"/><stop offset=".488" stop-color="#DB3B0D"/><stop offset=".822" stop-color="#D0190A"/><stop offset="1" stop-color="#CB1009"/></linearGradient><radialGradient id="j" cx="306.715" cy="308.31" r="15.121" gradientUnits="userSpaceOnUse" gradientTransform="matrix(0 1 1 0 -222.639 187.377)" fy="308.31" fx="306.715"><stop offset="0" stop-color="#fff"/><stop offset=".685" stop-color="#2C669D"/><stop offset="1" stop-color="#1D3E63"/></radialGradient><radialGradient id="i" cx="215.199" cy="310.457" r="8.577" gradientUnits="userSpaceOnUse" gradientTransform="matrix(0 -1 1 0 -222.639 712.158)" fy="310.457" fx="215.199"><stop offset="0" stop-color="#fff"/><stop offset=".096" stop-color="#D8E7F1"/><stop offset=".253" stop-color="#9FC3DC"/><stop offset=".398" stop-color="#72A6CC"/><stop offset=".527" stop-color="#5292C0"/><stop offset=".635" stop-color="#3E85B9"/><stop offset=".708" stop-color="#3781B6"/><stop offset="1" stop-color="#254A87"/></radialGradient><linearGradient x1="911.938" x2="921.983" y1="237.964" y2="232.709" xlink:href="#a" gradientUnits="userSpaceOnUse" gradientTransform="matrix(1.408 0 0 1.409 -1264.244 -290.361)"/><linearGradient x1="897.265" x2="904.772" y1="232.169" y2="238.093" xlink:href="#d" gradientUnits="userSpaceOnUse" gradientTransform="matrix(1.408 0 0 1.409 -1261.247 -290.509)"/><linearGradient x1="4.755" x2="9.47" y1="22.355" y2="25.005" xlink:href="#e" gradientUnits="userSpaceOnUse" gradientTransform="matrix(1.292 0 0 1.292 -.31 12.003)"/><linearGradient x1="-165.82" x2="-170.229" y1="-93.99" y2="-103.786" xlink:href="#b" gradientUnits="userSpaceOnUse" gradientTransform="matrix(-.76 -1.768 1.768 -.76 39.745 -358.167)"/><linearGradient x1="-165.394" x2="-170.38" y1="-93.119" y2="-104.198" xlink:href="#c" gradientUnits="userSpaceOnUse" gradientTransform="matrix(-.574 -.819 .819 -.574 -3.236 298.158)"/><linearGradient id="g" x1="-166.481" x2="-171.122" y1="-94.298" y2="-103.789" xlink:href="#b" gradientUnits="userSpaceOnUse" gradientTransform="matrix(1.431 -2.565 2.494 1.44 508.395 -279.476)"/><linearGradient id="h" x1="33.92" x2=".244" y1="9.648" y2="17.468" xlink:href="#b" gradientUnits="userSpaceOnUse" gradientTransform="matrix(.981 .192 -.192 .981 1.574 -7.72)"/><linearGradient x1="897.265" x2="904.772" y1="232.169" y2="238.093" xlink:href="#d" gradientUnits="userSpaceOnUse" gradientTransform="matrix(1.408 0 0 1.409 -1261.247 -290.509)"/><linearGradient x1="4.755" x2="9.47" y1="22.355" y2="25.005" xlink:href="#e" gradientUnits="userSpaceOnUse" gradientTransform="matrix(1.292 0 0 1.292 -.31 12.003)"/><linearGradient x1="911.938" x2="921.983" y1="237.964" y2="232.709" xlink:href="#a" gradientUnits="userSpaceOnUse" gradientTransform="matrix(1.408 0 0 1.409 -1264.244 -290.361)"/><linearGradient x1="911.938" x2="921.983" y1="237.964" y2="232.709" xlink:href="#a" gradientUnits="userSpaceOnUse" gradientTransform="matrix(1.031 0 0 1.032 -925.733 -199.555)"/><linearGradient x1="897.265" x2="904.772" y1="232.169" y2="238.093" xlink:href="#d" gradientUnits="userSpaceOnUse" gradientTransform="matrix(1.031 0 0 1.032 -923.538 -199.665)"/><linearGradient x1="4.755" x2="9.47" y1="22.355" y2="25.005" xlink:href="#e" gradientUnits="userSpaceOnUse" gradientTransform="matrix(.946 0 0 .946 -.052 21.89)"/><linearGradient id="l" x1="30.349" x2="40.676" y1="44.253" y2="36.995" xlink:href="#f" gradientUnits="userSpaceOnUse" gradientTransform="matrix(1.219 0 0 1.235 -5.639 -9.857)"/></defs><g><path fill="url(#g)" stroke="url(#h)" stroke-width="3" d="M-.04 12.68C12.94 2.46 29.8 2.32 42.3 9.6c-.26 2.34-5.4 7.26-5.66 9.4C27.6 11.48 8.8 10.95.84 16.9l-.88-4.22z" ns4:knockout="Off"/><g transform="translate(-48.453 -484.087)"><path fill="none" stroke="#162b4c" stroke-width="2" d="M89.22 493.1c3.37 0 6.1 2.72 6.1 6.1 0 3.36-2.73 6.1-6.1 6.1-3.38 0-6.1-2.74-6.1-6.1 0-3.38 2.72-6.1 6.1-6.1z"/><radialGradient cx="215.199" cy="310.457" r="8.577" gradientUnits="userSpaceOnUse" gradientTransform="matrix(0 -1 1 0 -222.639 712.158)" fy="310.457" fx="215.199"><stop offset="0" stop-color="#fff"/><stop offset=".096" stop-color="#D8E7F1"/><stop offset=".253" stop-color="#9FC3DC"/><stop offset=".398" stop-color="#72A6CC"/><stop offset=".527" stop-color="#5292C0"/><stop offset=".635" stop-color="#3E85B9"/><stop offset=".708" stop-color="#3781B6"/><stop offset="1" stop-color="#254A87"/></radialGradient><path fill="url(#i)" d="M89.22 493.1c3.37 0 6.1 2.72 6.1 6.1 0 3.36-2.73 6.1-6.1 6.1-3.38 0-6.1-2.74-6.1-6.1 0-3.38 2.72-6.1 6.1-6.1z"/><g><radialGradient cx="306.715" cy="308.31" r="15.121" gradientUnits="userSpaceOnUse" gradientTransform="matrix(0 1 1 0 -222.639 187.377)" fy="308.31" fx="306.715"><stop offset="0" stop-color="#fff"/><stop offset=".685" stop-color="#2C669D"/><stop offset="1" stop-color="#1D3E63"/></radialGradient><path fill="url(#j)" d="M83.1 499.2c0 1.62.64 3.15 1.8 4.3 1.15 1.16 2.68 1.8 4.32 1.8 1.62 0 3.16-.64 4.32-1.8 1.15-1.15 1.78-2.68 1.78-4.3 0-3.38-2.73-6.1-6.1-6.1-3.37 0-6.1 2.72-6.1 6.1zm11.25 0c0 1.36-.53 2.64-1.5 3.62-.98.97-2.26 1.5-3.63 1.5-1.38 0-2.67-.53-3.63-1.5-1-.98-1.52-2.26-1.52-3.63 0-2.84 2.3-5.15 5.14-5.15 2.83 0 5.13 2.3 5.13 5.14z"/></g></g><path fill="none" stroke="#a40000" stroke-width="3" d="M6.7 31.86l31-15.43" stroke-dasharray="3,3"/><path fill="#ef2929" stroke="#eeeeec" d="M4.5 26.07v4h-4v4h4v4h4v-4h4v-4h-4v-4h-4z" color="#000" stroke-linecap="round" overflow="visible"/><path fill="url(#k)" stroke="url(#l)" d="M43.32 36.44c-6.2 3.64-9.9 5.97-15.85 6.76-3.7.5-7.2-.67-9.44-2.84l4.13-2.94c.17-.13.28-.4-.36-.32l-12.1.54c-.45.03-.74.28-.7.57l-.72 8.7c0 .06.06.07.15.07.2 0 .5-.13.68-.26l3.3-2.34c3.47 2.4 8.2 3.6 12.87 2.97 8.4-1.12 12.6-2.7 18.05-10.9z" stroke-linecap="round" stroke-linejoin="round"/></g></svg>