<svg xmlns="http://www.w3.org/2000/svg" width="48" height="48" xmlns:xlink="http://www.w3.org/1999/xlink"><defs><radialGradient id="w" cx="48.466" cy="-9.967" r="13.758" gradientUnits="userSpaceOnUse" gradientTransform="matrix(.996 .087 -.087 .996 -17.804 27.412)" fy="-9.967" fx="48.466"><stop offset="0" stop-color="#FBC670"/><stop offset=".449" stop-color="#FAAF3E"/><stop offset=".714" stop-color="#F17912"/></radialGradient><radialGradient id="v" cx="48.472" cy="-9.965" r="13.753" gradientUnits="userSpaceOnUse" gradientTransform="matrix(.996 .087 -.087 .996 -17.804 27.412)" fy="-9.965" fx="48.472"><stop offset="0" stop-color="#FBC670"/><stop offset=".449" stop-color="#FAAF3E"/><stop offset=".714" stop-color="#F17912"/></radialGradient><radialGradient id="u" cx="48.472" cy="-9.967" r="13.752" gradientUnits="userSpaceOnUse" gradientTransform="matrix(.996 .087 -.087 .996 -17.804 27.412)" fy="-9.967" fx="48.472"><stop offset="0" stop-color="#FBC670"/><stop offset=".449" stop-color="#FAAF3E"/><stop offset=".714" stop-color="#F17912"/></radialGradient><radialGradient id="t" cx="48.471" cy="-9.966" r="13.755" gradientUnits="userSpaceOnUse" gradientTransform="matrix(.996 .087 -.087 .996 -17.804 27.412)" fy="-9.966" fx="48.471"><stop offset="0" stop-color="#FBC670"/><stop offset=".449" stop-color="#FAAF3E"/><stop offset=".714" stop-color="#F17912"/></radialGradient><radialGradient id="s" cx="48.471" cy="-9.967" r="13.754" gradientUnits="userSpaceOnUse" gradientTransform="matrix(.996 .087 -.087 .996 -17.804 27.412)" fy="-9.967" fx="48.471"><stop offset="0" stop-color="#FBC670"/><stop offset=".449" stop-color="#FAAF3E"/><stop offset=".714" stop-color="#F17912"/></radialGradient><radialGradient id="r" cx="48.469" cy="-9.967" r="13.753" gradientUnits="userSpaceOnUse" gradientTransform="matrix(.996 .087 -.087 .996 -17.804 27.412)" fy="-9.967" fx="48.469"><stop offset="0" stop-color="#FBC670"/><stop offset=".449" stop-color="#FAAF3E"/><stop offset=".714" stop-color="#F17912"/></radialGradient><radialGradient id="q" cx="48.473" cy="-9.967" r="13.752" gradientUnits="userSpaceOnUse" gradientTransform="matrix(.996 .087 -.087 .996 -17.804 27.412)" fy="-9.967" fx="48.473"><stop offset="0" stop-color="#FBC670"/><stop offset=".449" stop-color="#FAAF3E"/><stop offset=".714" stop-color="#F17912"/></radialGradient><radialGradient id="p" cx="48.473" cy="-9.968" r="13.752" gradientUnits="userSpaceOnUse" gradientTransform="matrix(.996 .087 -.087 .996 -17.804 27.412)" fy="-9.968" fx="48.473"><stop offset="0" stop-color="#FBC670"/><stop offset=".449" stop-color="#FAAF3E"/><stop offset=".714" stop-color="#F17912"/></radialGradient><radialGradient id="o" cx="48.471" cy="-9.966" r="13.753" gradientUnits="userSpaceOnUse" gradientTransform="matrix(.996 .087 -.087 .996 -17.804 27.412)" fy="-9.966" fx="48.471"><stop offset="0" stop-color="#FBC670"/><stop offset=".449" stop-color="#FAAF3E"/><stop offset=".714" stop-color="#F17912"/></radialGradient><radialGradient id="n" cx="48.472" cy="-9.967" r="13.753" gradientUnits="userSpaceOnUse" gradientTransform="matrix(.996 .087 -.087 .996 -17.804 27.412)" fy="-9.967" fx="48.472"><stop offset="0" stop-color="#FBC670"/><stop offset=".449" stop-color="#FAAF3E"/><stop offset=".714" stop-color="#F17912"/></radialGradient><radialGradient id="m" cx="48.473" cy="-9.968" r="13.752" gradientUnits="userSpaceOnUse" gradientTransform="matrix(.996 .087 -.087 .996 -17.804 27.412)" fy="-9.968" fx="48.473"><stop offset="0" stop-color="#FBC670"/><stop offset=".449" stop-color="#FAAF3E"/><stop offset=".714" stop-color="#F17912"/></radialGradient><radialGradient id="l" cx="48.472" cy="-9.966" r="13.754" gradientUnits="userSpaceOnUse" gradientTransform="matrix(.996 .087 -.087 .996 -17.804 27.412)" fy="-9.966" fx="48.472"><stop offset="0" stop-color="#FBC670"/><stop offset=".449" stop-color="#FAAF3E"/><stop offset=".714" stop-color="#F17912"/></radialGradient><radialGradient id="k" cx="48.473" cy="-9.967" r="13.752" gradientUnits="userSpaceOnUse" gradientTransform="matrix(.996 .087 -.087 .996 -17.804 27.412)" fy="-9.967" fx="48.473"><stop offset="0" stop-color="#FBC670"/><stop offset=".449" stop-color="#FAAF3E"/><stop offset=".714" stop-color="#F17912"/></radialGradient><radialGradient id="j" cx="48.473" cy="-9.966" r="13.752" gradientUnits="userSpaceOnUse" gradientTransform="matrix(.996 .087 -.087 .996 -17.804 27.412)" fy="-9.966" fx="48.473"><stop offset="0" stop-color="#FBC670"/><stop offset=".449" stop-color="#FAAF3E"/><stop offset=".714" stop-color="#F17912"/></radialGradient><radialGradient id="i" cx="48.473" cy="-9.966" r="13.752" gradientUnits="userSpaceOnUse" gradientTransform="matrix(.996 .087 -.087 .996 -17.804 27.412)" fy="-9.966" fx="48.473"><stop offset="0" stop-color="#FBC670"/><stop offset=".449" stop-color="#FAAF3E"/><stop offset=".714" stop-color="#F17912"/></radialGradient><radialGradient id="h" cx="48.471" cy="-9.966" r="13.754" gradientUnits="userSpaceOnUse" gradientTransform="matrix(.996 .087 -.087 .996 -17.804 27.412)" fy="-9.966" fx="48.471"><stop offset="0" stop-color="#FBC670"/><stop offset=".449" stop-color="#FAAF3E"/><stop offset=".714" stop-color="#F17912"/></radialGradient><radialGradient id="g" cx="48.472" cy="-9.966" r="13.752" gradientUnits="userSpaceOnUse" gradientTransform="matrix(.996 .087 -.087 .996 -17.804 27.412)" fy="-9.966" fx="48.472"><stop offset="0" stop-color="#FBC670"/><stop offset=".449" stop-color="#FAAF3E"/><stop offset=".714" stop-color="#F17912"/></radialGradient><radialGradient id="d" cx="862.299" cy="399.452" r="10.315" gradientUnits="userSpaceOnUse" gradientTransform="matrix(0 1 1 0 199.669 -234.93)" fy="399.452" fx="862.299"><stop offset="0" stop-color="#fff"/><stop offset=".685" stop-color="#2E659E"/><stop offset="1" stop-color="#1D3E63"/></radialGradient><radialGradient id="c" cx="194.917" cy="400.917" r="5.851" gradientUnits="userSpaceOnUse" gradientTransform="matrix(0 -1 1 0 199.669 824.239)" fy="400.917" fx="194.917"><stop offset="0" stop-color="#fff"/><stop offset=".09" stop-color="#DBE8F2"/><stop offset=".248" stop-color="#A2C3DE"/><stop offset=".395" stop-color="#75A6CD"/><stop offset=".525" stop-color="#5591C2"/><stop offset=".634" stop-color="#4185BB"/><stop offset=".708" stop-color="#3A80B8"/><stop offset="1" stop-color="#244A87"/></radialGradient><radialGradient cx="887.985" cy="420.263" r="12.334" gradientUnits="userSpaceOnUse" gradientTransform="matrix(0 1 1 0 199.669 -234.93)" fy="420.263" fx="887.985"><stop offset="0" stop-color="#fff"/><stop offset=".685" stop-color="#2E659E"/><stop offset="1" stop-color="#1D3E63"/></radialGradient><radialGradient cx="168.847" cy="422.014" r="6.996" gradientUnits="userSpaceOnUse" gradientTransform="matrix(0 -1 1 0 199.669 824.239)" fy="422.014" fx="168.847"><stop offset="0" stop-color="#fff"/><stop offset=".09" stop-color="#DBE8F2"/><stop offset=".248" stop-color="#A2C3DE"/><stop offset=".395" stop-color="#75A6CD"/><stop offset=".525" stop-color="#5591C2"/><stop offset=".634" stop-color="#4185BB"/><stop offset=".708" stop-color="#3A80B8"/><stop offset="1" stop-color="#244A87"/></radialGradient><linearGradient id="a" x1="682.95" x2="672.133" y1="804.279" y2="804.279" gradientTransform="matrix(-.334 -.943 .943 -.334 76.393 1542.725)" gradientUnits="userSpaceOnUse"><stop offset="0" stop-color="#E96712"/><stop offset=".648" stop-color="#D4290C"/><stop offset="1" stop-color="#CB1009"/></linearGradient><linearGradient id="b" x1="602.578" x2="615.501" y1="632.237" y2="646.119" gradientUnits="userSpaceOnUse" gradientTransform="translate(-588.747 -622.711)"><stop offset="0" stop-color="#E96712"/><stop offset=".648" stop-color="#D4290C"/><stop offset="1" stop-color="#CB1009"/></linearGradient><linearGradient id="e" x1="682.95" x2="672.133" y1="804.279" y2="804.279" xlink:href="#a" gradientUnits="userSpaceOnUse" gradientTransform="matrix(-.334 -.943 .943 -.334 76.393 1542.725)"/><linearGradient id="f" x1="602.578" x2="615.501" y1="632.237" y2="646.119" xlink:href="#b" gradientUnits="userSpaceOnUse" gradientTransform="translate(-588.747 -622.711)"/></defs><g><path fill="#fff" stroke="#fff" stroke-width="1.5" d="M4.48 8.1c0 1.1.43 2.15 1.22 2.93.8.8 1.83 1.22 2.95 1.22 1.1 0 2.16-.43 2.95-1.22.8-.78 1.22-1.83 1.22-2.94 0-2.3-1.87-4.18-4.17-4.18S4.48 5.8 4.48 8.1z"/><g transform="matrix(1.407 0 0 1.407 -837.717 -879.515)"><circle cx="601.541" cy="630.846" r="4.164" fill="none" stroke="#152a4c" stroke-width="1.066"/><radialGradient cx="194.917" cy="400.917" r="5.851" gradientUnits="userSpaceOnUse" gradientTransform="matrix(0 -1 1 0 199.669 824.239)" fy="400.917" fx="194.917"><stop offset="0" stop-color="#fff"/><stop offset=".09" stop-color="#DBE8F2"/><stop offset=".248" stop-color="#A2C3DE"/><stop offset=".395" stop-color="#75A6CD"/><stop offset=".525" stop-color="#5591C2"/><stop offset=".634" stop-color="#4185BB"/><stop offset=".708" stop-color="#3A80B8"/><stop offset="1" stop-color="#244A87"/></radialGradient><circle cx="601.541" cy="630.846" r="4.164" fill="url(#c)"/><g><radialGradient cx="862.299" cy="399.452" r="10.315" gradientUnits="userSpaceOnUse" gradientTransform="matrix(0 1 1 0 199.669 -234.93)" fy="399.452" fx="862.299"><stop offset="0" stop-color="#fff"/><stop offset=".685" stop-color="#2E659E"/><stop offset="1" stop-color="#1D3E63"/></radialGradient><path fill="url(#d)" d="M597.37 630.85c0 1.1.43 2.16 1.22 2.94.78.78 1.82 1.2 2.94 1.2 1.1 0 2.16-.42 2.95-1.2.77-.8 1.2-1.84 1.2-2.95 0-2.3-1.86-4.17-4.16-4.17s-4.17 1.87-4.17 4.17zm7.67 0c0 .93-.36 1.8-1.02 2.47-.67.66-1.55 1.03-2.48 1.03-.94 0-1.82-.37-2.48-1.03-.66-.66-1.02-1.54-1.02-2.48 0-1.92 1.57-3.5 3.5-3.5s3.5 1.58 3.5 3.5z"/></g></g><g><path fill="url(#e)" d="M617.12 642.87l-13.45-11.08-2.37.63 8.35 11.73 7.47-1.3z" transform="translate(-3.714 -.286) translate(-588.747 -622.711)"/><path fill="url(#f)" stroke="#590b08" stroke-width=".5" d="M14.93 9.08L29.57 20.9l4.25-1.5c.2-.07.4.03.47.22.02.1-.04.3-.04.3 0-.03-3.16 9.28-3.16 9.28-.17.36-.6.5-.97.34l-12.3-3.83v.02c-.08-.04-.15-.12-.2-.2-.05-.2.05-.4.24-.48l4.2-1.48-9.52-13.84" transform="translate(-3.714 -.286)"/><path fill="none" stroke="#f62724" d="M10.74 9.38L25.7 21.46s2.87-1 3.9-1.37c-.72 2.1-2.96 8.44-2.96 8.44s-9.22-2.87-11.13-3.47c1.2-.42 4.02-1.42 4.02-1.42l-9.63-14 .84-.27z"/><path fill="none" stroke="#f62724" d="M25.15 21.1L10.58 9.3"/></g><g transform="translate(-15.679 10.321) translate(16.185 -3.345)"><circle cx="34.494" cy="27.881" r="11.864" fill="#fff"/><g><radialGradient cx="48.472" cy="-9.966" r="13.752" gradientUnits="userSpaceOnUse" gradientTransform="matrix(.996 .087 -.087 .996 -17.804 27.412)" fy="-9.966" fx="48.472"><stop offset="0" stop-color="#FBC670"/><stop offset=".449" stop-color="#FAAF3E"/><stop offset=".714" stop-color="#F17912"/></radialGradient><path fill="url(#g)" d="M33.87 17.83c-5.5 2.12-10.35 7.57-10.83 12.13-.1.84-.02 1.6.2 2.3l.46-.14c-.18-.63-.24-1.33-.16-2.1.46-4.4 5.18-9.66 10.5-11.73 2.6-1.02 5.02-1.1 6.63-.26l.24-.44c-1.76-.93-4.26-.85-7.03.23z"/></g><g><radialGradient cx="48.471" cy="-9.966" r="13.754" gradientUnits="userSpaceOnUse" gradientTransform="matrix(.996 .087 -.087 .996 -17.804 27.412)" fy="-9.966" fx="48.471"><stop offset="0" stop-color="#FBC670"/><stop offset=".449" stop-color="#FAAF3E"/><stop offset=".714" stop-color="#F17912"/></radialGradient><path fill="url(#h)" d="M35.35 17.25c-5.7-.17-10.84 2.57-12.25 6.52l.47.17c1.32-3.7 6.38-6.35 11.77-6.2 4.35.15 8.1 2.08 9.54 4.93l.44-.22c-1.52-3-5.43-5.05-9.97-5.2z"/></g><g><radialGradient cx="48.473" cy="-9.966" r="13.752" gradientUnits="userSpaceOnUse" gradientTransform="matrix(.996 .087 -.087 .996 -17.804 27.412)" fy="-9.966" fx="48.473"><stop offset="0" stop-color="#FBC670"/><stop offset=".449" stop-color="#FAAF3E"/><stop offset=".714" stop-color="#F17912"/></radialGradient><path fill="url(#i)" d="M27.1 18.3l.32.37c1.88-1.63 5.08-1.93 8.36-.8 5.57 1.95 10.1 7.13 10.1 11.55l-.14 1.38.48.12.17-1.5c-.02-4.7-4.6-9.97-10.46-12-3.44-1.2-6.83-.87-8.85.88z"/></g><g><radialGradient cx="48.473" cy="-9.966" r="13.752" gradientUnits="userSpaceOnUse" gradientTransform="matrix(.996 .087 -.087 .996 -17.804 27.412)" fy="-9.966" fx="48.473"><stop offset="0" stop-color="#FBC670"/><stop offset=".449" stop-color="#FAAF3E"/><stop offset=".714" stop-color="#F17912"/></radialGradient><path fill="url(#j)" d="M31.9 16.05l.1.5c.46-.12 1-.07 1.6.14 3.32 1.15 7.07 6.88 8.36 12.77.85 3.9.56 6.88-.8 7.94l.3.4c1.54-1.2 1.9-4.27 1-8.44-1.33-6.04-5.23-11.94-8.7-13.14-.7-.24-1.32-.3-1.87-.17z"/></g><g><radialGradient cx="48.473" cy="-9.967" r="13.752" gradientUnits="userSpaceOnUse" gradientTransform="matrix(.996 .087 -.087 .996 -17.804 27.412)" fy="-9.967" fx="48.473"><stop offset="0" stop-color="#FBC670"/><stop offset=".449" stop-color="#FAAF3E"/><stop offset=".714" stop-color="#F17912"/></radialGradient><path fill="url(#k)" d="M35.4 17.22c-2.9 2.52-6.27 9.07-7.54 14.6-.77 3.38-.6 5.75.44 6.48l.3-.4c-.68-.48-1.1-2.3-.25-5.97 1.24-5.44 4.55-11.87 7.38-14.33.8-.7 1.44-1 1.93-.9l.1-.48c-.65-.15-1.4.17-2.36 1z"/></g><g><radialGradient cx="48.472" cy="-9.966" r="13.754" gradientUnits="userSpaceOnUse" gradientTransform="matrix(.996 .087 -.087 .996 -17.804 27.412)" fy="-9.966" fx="48.472"><stop offset="0" stop-color="#FBC670"/><stop offset=".449" stop-color="#FAAF3E"/><stop offset=".714" stop-color="#F17912"/></radialGradient><path fill="url(#l)" d="M31.25 17.82c-.1 1.22 1.63 2.33 3.95 2.54 2.32.2 4.22-.6 4.33-1.82.1-1.22-1.63-2.34-3.95-2.54-2.32-.2-4.22.6-4.33 1.82zm.5.04c.08-.9 1.8-1.54 3.78-1.36 1.98.17 3.58 1.1 3.5 2-.08.9-1.82 1.53-3.8 1.36-1.96-.18-3.56-1.1-3.48-2z"/></g><g><radialGradient cx="48.473" cy="-9.968" r="13.752" gradientUnits="userSpaceOnUse" gradientTransform="matrix(.996 .087 -.087 .996 -17.804 27.412)" fy="-9.968" fx="48.473"><stop offset="0" stop-color="#FBC670"/><stop offset=".449" stop-color="#FAAF3E"/><stop offset=".714" stop-color="#F17912"/></radialGradient><path fill="url(#m)" d="M30.26 16.56c-1.56.65-2.48 1.64-2.58 2.78-.2 2.3 3.02 4.47 7.18 4.83 2 .18 3.9-.08 5.38-.72 1.53-.65 2.43-1.65 2.53-2.8.2-2.24-3.1-4.43-7.18-4.8-1.96-.16-3.85.1-5.34.7zm-2.08 2.82c.08-.94.9-1.78 2.27-2.36 1.4-.58 3.26-.82 5.1-.66 3.75.33 6.9 2.3 6.73 4.25-.1.97-.88 1.8-2.23 2.4-1.4.6-3.23.84-5.14.68-3.88-.34-6.9-2.27-6.72-4.3z"/></g><g><radialGradient cx="48.472" cy="-9.967" r="13.753" gradientUnits="userSpaceOnUse" gradientTransform="matrix(.996 .087 -.087 .996 -17.804 27.412)" fy="-9.967" fx="48.472"><stop offset="0" stop-color="#FBC670"/><stop offset=".449" stop-color="#FAAF3E"/><stop offset=".714" stop-color="#F17912"/></radialGradient><path fill="url(#n)" d="M23.05 24.45c-.37 4.23 4.57 8.12 11 8.68l1.6.07v-.5l-1.56-.07c-6.17-.54-10.9-4.2-10.55-8.13.04-.46.16-.92.35-1.37l-.46-.2c-.2.5-.34 1-.4 1.52z"/></g><g><radialGradient cx="48.471" cy="-9.966" r="13.753" gradientUnits="userSpaceOnUse" gradientTransform="matrix(.996 .087 -.087 .996 -17.804 27.412)" fy="-9.966" fx="48.471"><stop offset="0" stop-color="#FBC670"/><stop offset=".449" stop-color="#FAAF3E"/><stop offset=".714" stop-color="#F17912"/></radialGradient><path fill="url(#o)" d="M45.66 24.67c.17.6.24 1.2.2 1.77-.33 3.63-4.62 6.26-10.2 6.26v.5c5.85 0 10.34-2.82 10.68-6.7.06-.66 0-1.32-.2-1.97l-.48.14z"/></g><g><radialGradient cx="48.473" cy="-9.968" r="13.752" gradientUnits="userSpaceOnUse" gradientTransform="matrix(.996 .087 -.087 .996 -17.804 27.412)" fy="-9.968" fx="48.473"><stop offset="0" stop-color="#FBC670"/><stop offset=".449" stop-color="#FAAF3E"/><stop offset=".714" stop-color="#F17912"/></radialGradient><path fill="url(#p)" d="M46.06 29.05c-.4 4.6-5.78 7.73-12.25 7.17-6.4-.56-11.28-4.68-10.9-9.2l-.5-.03c-.4 4.77 4.7 9.13 11.37 9.72 6.75.6 12.36-2.76 12.8-7.62l-.5-.05z"/></g><g><radialGradient cx="48.473" cy="-9.967" r="13.752" gradientUnits="userSpaceOnUse" gradientTransform="matrix(.996 .087 -.087 .996 -17.804 27.412)" fy="-9.967" fx="48.473"><stop offset="0" stop-color="#FBC670"/><stop offset=".449" stop-color="#FAAF3E"/><stop offset=".714" stop-color="#F17912"/></radialGradient><path fill="url(#q)" d="M23.2 32.27c1.4 3.6 5.54 6.28 10.34 6.7 4.52.4 8.7-1.18 10.86-4.1l-.4-.3c-2.07 2.78-6.06 4.28-10.42 3.9-4.6-.4-8.6-2.97-9.9-6.38l-.48.17z"/></g><g><radialGradient cx="48.469" cy="-9.967" r="13.753" gradientUnits="userSpaceOnUse" gradientTransform="matrix(.996 .087 -.087 .996 -17.804 27.412)" fy="-9.967" fx="48.469"><stop offset="0" stop-color="#FBC670"/><stop offset=".449" stop-color="#FAAF3E"/><stop offset=".714" stop-color="#F17912"/></radialGradient><path fill="url(#r)" d="M35.4 32.97c-.2 4.4-.58 6.34-.77 6.55l.1.46c.27 0 .83 0 1.18-7h-.5z"/></g><g opacity=".8"><radialGradient cx="48.471" cy="-9.967" r="13.754" gradientUnits="userSpaceOnUse" gradientTransform="matrix(.996 .087 -.087 .996 -17.804 27.412)" fy="-9.967" fx="48.471"><stop offset="0" stop-color="#FBC670"/><stop offset=".449" stop-color="#FAAF3E"/><stop offset=".714" stop-color="#F17912"/></radialGradient><path fill="url(#s)" d="M35.56 23.98v3.9l-.15 5.1h.5l.17-5.08v-3.93h-.5z" opacity=".75"/></g><g><radialGradient cx="48.471" cy="-9.966" r="13.755" gradientUnits="userSpaceOnUse" gradientTransform="matrix(.996 .087 -.087 .996 -17.804 27.412)" fy="-9.966" fx="48.471"><stop offset="0" stop-color="#FBC670"/><stop offset=".449" stop-color="#FAAF3E"/><stop offset=".714" stop-color="#F17912"/></radialGradient><path fill="url(#t)" d="M35.02 15.78l-.1.46c.2.24.55 2.56.64 7.74h.5c-.14-8.2-.8-8.2-1.04-8.2z"/></g><g><radialGradient cx="48.472" cy="-9.967" r="13.752" gradientUnits="userSpaceOnUse" gradientTransform="matrix(.996 .087 -.087 .996 -17.804 27.412)" fy="-9.967" fx="48.472"><stop offset="0" stop-color="#FBC670"/><stop offset=".449" stop-color="#FAAF3E"/><stop offset=".714" stop-color="#F17912"/></radialGradient><path fill="url(#u)" d="M24.86 21.73c-.2 2.17 1.57 4.36 4.6 5.72l.2-.46c-2.82-1.27-4.47-3.27-4.3-5.23.07-.86.63-1.86 1.46-2.6l-.34-.37c-.93.84-1.53 1.94-1.62 2.93z"/></g><g opacity=".6"><radialGradient cx="48.472" cy="-9.965" r="13.753" gradientUnits="userSpaceOnUse" gradientTransform="matrix(.996 .087 -.087 .996 -17.804 27.412)" fy="-9.965" fx="48.472"><stop offset="0" stop-color="#FBC670"/><stop offset=".449" stop-color="#FAAF3E"/><stop offset=".714" stop-color="#F17912"/></radialGradient><path fill="url(#v)" d="M34.5 28.2c-1.72-.15-3.4-.56-4.83-1.2l-.2.45c1.48.66 3.2 1.1 5 1.25 2.7.24 5.28-.16 7.3-1.13l-.23-.45c-1.92.93-4.42 1.3-7.03 1.08z"/></g><g><radialGradient cx="48.466" cy="-9.967" r="13.758" gradientUnits="userSpaceOnUse" gradientTransform="matrix(.996 .087 -.087 .996 -17.804 27.412)" fy="-9.967" fx="48.466"><stop offset="0" stop-color="#FBC670"/><stop offset=".449" stop-color="#FAAF3E"/><stop offset=".714" stop-color="#F17912"/></radialGradient><path fill="url(#w)" d="M43.62 20.7c.74.9 1.1 1.85 1 2.76-.12 1.46-1.2 2.76-3.08 3.66l.22.45c2.03-.98 3.23-2.43 3.37-4.07.1-1.04-.3-2.1-1.13-3.12l-.38.32z"/></g><circle cx="34.494" cy="27.881" r="11.864" fill="none" stroke="#bf580f"/></g></g></svg>