<svg xmlns="http://www.w3.org/2000/svg" width="48" height="48" xmlns:xlink="http://www.w3.org/1999/xlink"><defs><linearGradient id="a" x1="18.585" x2="28.686" y1="569.816" y2="562.482" gradientUnits="userSpaceOnUse" gradientTransform="translate(1.859 -552.262)"><stop offset="0" stop-color="#E96712"/><stop offset=".169" stop-color="#E96712"/><stop offset=".707" stop-color="#D4290C"/><stop offset="1" stop-color="#CB1009"/></linearGradient><linearGradient id="b" x1="15.24" x2="37.616" y1="564.613" y2="564.613" gradientUnits="userSpaceOnUse"><stop offset="0" stop-color="#FAAF3E"/><stop offset="1" stop-color="#F62724"/></linearGradient><linearGradient id="d" x1="-460.651" x2="-449.79" y1="743.741" y2="743.741" gradientTransform="matrix(0 -1 1 0 -724.402 137.647)" gradientUnits="userSpaceOnUse"><stop offset="0" stop-color="#fff" stop-opacity="0"/><stop offset="1" stop-color="#89ABBF"/></linearGradient><linearGradient id="c" x1="-460.705" x2="-445.605" y1="743.744" y2="743.744" gradientTransform="matrix(0 -1 1 0 -724.402 137.647)" gradientUnits="userSpaceOnUse"><stop offset="0" stop-color="#81bdff" stop-opacity="0"/><stop offset="1" stop-color="#94ddff"/></linearGradient><radialGradient id="f" cx="13.282" cy="588.106" r="14.343" gradientUnits="userSpaceOnUse" gradientTransform="translate(1.207 -8.413)" fy="588.106" fx="13.282"><stop offset="0" stop-color="#fff"/><stop offset=".685" stop-color="#2E659E"/><stop offset="1" stop-color="#1D3E63"/></radialGradient><radialGradient id="e" cx="64.163" cy="187.431" r="8.135" gradientUnits="userSpaceOnUse" gradientTransform="matrix(0 -1 1 0 -169.429 645.096)" fy="187.431" fx="64.163"><stop offset="0" stop-color="#fff"/><stop offset=".09" stop-color="#DBE8F2"/><stop offset=".248" stop-color="#A2C3DE"/><stop offset=".395" stop-color="#75A6CD"/><stop offset=".525" stop-color="#5591C2"/><stop offset=".634" stop-color="#4185BB"/><stop offset=".708" stop-color="#3A80B8"/><stop offset="1" stop-color="#244A87"/></radialGradient><linearGradient x1="18.585" x2="28.686" y1="569.816" y2="562.482" xlink:href="#a" gradientUnits="userSpaceOnUse" gradientTransform="translate(1.859 -552.262)"/><linearGradient x1="15.24" x2="37.616" y1="564.613" y2="564.613" xlink:href="#b" gradientUnits="userSpaceOnUse"/><linearGradient x1="-460.705" x2="-445.605" y1="743.744" y2="743.744" xlink:href="#c" gradientUnits="userSpaceOnUse" gradientTransform="matrix(0 -1 1 0 -724.402 137.647)"/><linearGradient x1="-460.651" x2="-449.79" y1="743.741" y2="743.741" xlink:href="#d" gradientUnits="userSpaceOnUse" gradientTransform="matrix(0 -1 1 0 -724.402 137.647)"/><radialGradient cx="64.163" cy="187.431" r="8.135" xlink:href="#e" gradientUnits="userSpaceOnUse" gradientTransform="matrix(0 -1 1 0 -169.429 645.096)" fx="64.163" fy="187.431"/><radialGradient cx="13.282" cy="588.106" r="14.343" xlink:href="#f" gradientUnits="userSpaceOnUse" gradientTransform="translate(1.207 -8.413)" fx="13.282" fy="588.106"/><linearGradient x1="18.585" x2="28.686" y1="569.816" y2="562.482" xlink:href="#a" gradientUnits="userSpaceOnUse" gradientTransform="matrix(1.098 0 0 1.098 -.637 -603.781)"/><linearGradient x1="-460.705" x2="-445.605" y1="743.744" y2="743.744" xlink:href="#c" gradientUnits="userSpaceOnUse" gradientTransform="matrix(0 -1 1 0 -724.402 137.647)"/><linearGradient x1="-460.651" x2="-449.79" y1="743.741" y2="743.741" xlink:href="#d" gradientUnits="userSpaceOnUse" gradientTransform="matrix(0 -1 1 0 -724.402 137.647)"/><linearGradient x1="-460.651" x2="-449.79" y1="743.741" y2="743.741" gradientUnits="userSpaceOnUse" gradientTransform="matrix(0 -1 1 0 -724.402 137.647)"><stop offset="0" stop-color="#fff"/><stop offset="1" stop-color="#89ABBF"/></linearGradient><linearGradient x1="-460.651" x2="-449.79" y1="743.741" y2="743.741" xlink:href="#d" gradientUnits="userSpaceOnUse" gradientTransform="matrix(0 -1.098 1.098 0 -796.231 -457.75)"/><linearGradient x1="-460.705" x2="-445.605" y1="743.744" y2="743.744" xlink:href="#c" gradientUnits="userSpaceOnUse" gradientTransform="matrix(0 -1 1 0 -724.402 137.647)"/><linearGradient x1="-460.705" x2="-445.605" y1="743.744" y2="743.744" gradientTransform="matrix(0 -1 1 0 -724.402 137.647)" gradientUnits="userSpaceOnUse"><stop offset="0" stop-color="#fff"/><stop offset="1" stop-color="#B7D0DC"/></linearGradient><linearGradient x1="-460.705" x2="-445.605" y1="743.744" y2="743.744" xlink:href="#c" gradientUnits="userSpaceOnUse" gradientTransform="matrix(0 -1.098 1.098 0 -796.231 -457.75)"/><linearGradient x1="15.24" x2="37.616" y1="564.613" y2="564.613" xlink:href="#b" gradientUnits="userSpaceOnUse"/><linearGradient id="g" x1="18.585" x2="28.686" y1="569.816" y2="562.482" xlink:href="#a" gradientUnits="userSpaceOnUse" gradientTransform="matrix(1.098 0 0 1.098 -.637 -603.781)"/><linearGradient id="h" x1="15.24" x2="37.616" y1="564.613" y2="564.613" xlink:href="#b" gradientUnits="userSpaceOnUse"/><linearGradient id="i" x1="-460.705" x2="-445.605" y1="743.744" y2="743.744" xlink:href="#c" gradientUnits="userSpaceOnUse" gradientTransform="matrix(0 -1.098 1.098 0 -796.231 -457.75)"/><linearGradient id="j" x1="-460.651" x2="-449.79" y1="743.741" y2="743.741" xlink:href="#d" gradientUnits="userSpaceOnUse" gradientTransform="matrix(0 -1.098 1.098 0 -796.231 -457.75)"/><radialGradient id="k" cx="64.163" cy="187.431" r="8.135" xlink:href="#e" gradientUnits="userSpaceOnUse" gradientTransform="matrix(0 -1 1 0 -169.429 645.096)" fx="64.163" fy="187.431"/><radialGradient id="l" cx="13.282" cy="588.106" r="14.343" xlink:href="#f" gradientUnits="userSpaceOnUse" gradientTransform="translate(1.207 -8.413)" fx="13.282" fy="588.106"/></defs><g><g><path fill="url(#g)" stroke="#590b08" stroke-width=".421" d="M25.96 26.77v-4.9c0-1.03.83-1.85 1.85-1.85h4.6v3.48c-.02.2.15.37.36.37.1 0 .2-.04.26-.1v-.03c1.96-1.9 7.74-8.4 7.74-8.4.3-.3.3-.76 0-1.06l-7.74-8.4c-.06-.08-.16-.12-.26-.12-.2 0-.38.16-.38.37V9.6h-8.52c-4.44 0-8.04 3.6-8.04 8.05v9.12" transform="matrix(1.187 0 0 1.187 -5.108 -6.46)"/><g><path fill="#f62724" d="M34.97 18.52c0-1.06 0-1.5 0-1.5h-1.3v4.8l1.3-1.38v-1.92z"/></g><g transform="matrix(1.303 0 0 1.303 -5.864 -723.148)"><linearGradient x1="15.24" x2="37.616" y1="564.613" y2="564.613" gradientUnits="userSpaceOnUse"><stop offset="0" stop-color="#FAAF3E"/><stop offset="1" stop-color="#F62724"/></linearGradient><path fill="url(#h)" d="M30.32 556.4s0 1.67 0 2.35c-.9 0-8 0-8 0-1.9 0-3.68.74-5 2.07-1.35 1.34-2.08 3.1-2.08 5v8.3h1v-8.3c0-1.62.63-3.14 1.78-4.3 1.14-1.13 2.67-1.77 4.3-1.77h9s0-1.3 0-2.08l5.8 6.3s.4-.43.47-.66c.07-.22-.1-.37-.1-.37l-7.18-7.83v1.3z"/></g><path fill="url(#i)" d="M13.53 32.16l1.45 16.07H26.1l1.62-16.58-14.23.03.03.48zm.9.4c.86 0 11.48-.03 12.34-.03-.08.88-1.4 14.07-1.47 14.82-.7 0-8.8 0-9.5 0-.07-.75-1.3-13.9-1.36-14.8z" transform="matrix(1.187 0 0 1.187 -5.108 -6.46)"/><path fill="url(#j)" d="M14.44 32.56c.85 0 11.47-.03 12.33-.03-.08.88-1.4 14.07-1.47 14.82-.7 0-8.8 0-9.5 0-.07-.75-1.3-13.9-1.36-14.8z" transform="matrix(1.187 0 0 1.187 -5.108 -6.46)"/><g transform="matrix(1.303 0 0 1.303 -5.864 -729.253)"><path fill="none" stroke="#152a4c" stroke-width="1.38" d="M19.33 577.26c3.2 0 5.8 2.6 5.8 5.8 0 3.2-2.6 5.78-5.8 5.78-3.2 0-5.8-2.6-5.8-5.8 0-3.2 2.6-5.78 5.8-5.78z"/><radialGradient cx="64.163" cy="187.431" r="8.135" fx="64.163" fy="187.431" gradientTransform="matrix(0 -1 1 0 -169.429 645.096)" gradientUnits="userSpaceOnUse"><stop offset="0" stop-color="#fff"/><stop offset=".09" stop-color="#DBE8F2"/><stop offset=".248" stop-color="#A2C3DE"/><stop offset=".395" stop-color="#75A6CD"/><stop offset=".525" stop-color="#5591C2"/><stop offset=".634" stop-color="#4185BB"/><stop offset=".708" stop-color="#3A80B8"/><stop offset="1" stop-color="#244A87"/></radialGradient><path fill="url(#k)" d="M19.33 577.26c3.2 0 5.8 2.6 5.8 5.8 0 3.2-2.6 5.78-5.8 5.78-3.2 0-5.8-2.6-5.8-5.8 0-3.2 2.6-5.78 5.8-5.78z"/><g><radialGradient cx="13.282" cy="588.106" r="14.343" fx="13.282" fy="588.106" gradientTransform="translate(1.207 -8.413)" gradientUnits="userSpaceOnUse"><stop offset="0" stop-color="#fff"/><stop offset=".685" stop-color="#2E659E"/><stop offset="1" stop-color="#1D3E63"/></radialGradient><path fill="url(#l)" d="M13.53 583.05c0 1.54.6 3 1.7 4.1 1.1 1.1 2.55 1.7 4.1 1.7 1.54 0 3-.6 4.1-1.7 1.1-1.1 1.7-2.55 1.7-4.1 0-3.2-2.6-5.8-5.8-5.8-3.2 0-5.8 2.6-5.8 5.8zm10.67 0c0 1.3-.5 2.52-1.43 3.44-.92.9-2.14 1.4-3.44 1.4-1.3 0-2.52-.5-3.44-1.4-.93-.93-1.44-2.15-1.44-3.45 0-2.68 2.2-4.87 4.87-4.87 2.68 0 4.87 2.2 4.87 4.87z"/></g></g></g></g></svg>