<svg xmlns="http://www.w3.org/2000/svg" width="48" height="48" xmlns:xlink="http://www.w3.org/1999/xlink"><defs><radialGradient id="c" cx="306.715" cy="308.31" r="15.121" gradientUnits="userSpaceOnUse" gradientTransform="matrix(0 1 1 0 -222.639 187.377)" fy="308.31" fx="306.715"><stop offset="0" stop-color="#fff"/><stop offset=".685" stop-color="#2C669D"/><stop offset="1" stop-color="#1D3E63"/></radialGradient><radialGradient id="b" cx="215.199" cy="310.457" r="8.577" gradientUnits="userSpaceOnUse" gradientTransform="matrix(0 -1 1 0 -222.639 712.158)" fy="310.457" fx="215.199"><stop offset="0" stop-color="#fff"/><stop offset=".096" stop-color="#D8E7F1"/><stop offset=".253" stop-color="#9FC3DC"/><stop offset=".398" stop-color="#72A6CC"/><stop offset=".527" stop-color="#5292C0"/><stop offset=".635" stop-color="#3E85B9"/><stop offset=".708" stop-color="#3781B6"/><stop offset="1" stop-color="#254A87"/></radialGradient><linearGradient id="d" x1="76.481" x2="77.307" y1="500.386" y2="503.301" gradientUnits="userSpaceOnUse" gradientTransform="translate(-61.084 -465.499)"><stop offset=".006" stop-color="#BABDB6"/><stop offset=".008" stop-color="#BBBEB8"/><stop offset=".067" stop-color="#D7D8D3"/><stop offset=".121" stop-color="#E9E9E5"/><stop offset=".163" stop-color="#EFEEEC"/><stop offset=".257" stop-color="#E5E5E1"/><stop offset=".403" stop-color="#C9C8C3"/><stop offset=".581" stop-color="#A1A29B"/><stop offset=".68" stop-color="#888A85"/><stop offset=".796" stop-color="#959690"/><stop offset=".999" stop-color="#BABDB6"/><stop offset="1" stop-color="#BABDB6"/></linearGradient><linearGradient id="e" x1="65.978" x2="68.346" y1="500.606" y2="508.288" gradientUnits="userSpaceOnUse" gradientTransform="translate(-61.084 -465.499)"><stop offset=".006" stop-color="#EFEEEC"/><stop offset=".198" stop-color="#EDEDEA"/><stop offset=".296" stop-color="#E4E4E0"/><stop offset=".373" stop-color="#D5D5D0"/><stop offset=".439" stop-color="#C1C3BD"/><stop offset=".455" stop-color="#BABDB6"/><stop offset=".579" stop-color="#B2B5AF"/><stop offset=".599" stop-color="#ADB0AA"/><stop offset=".717" stop-color="#989A94"/><stop offset=".844" stop-color="#8C8E89"/><stop offset="1" stop-color="#888A85"/></linearGradient><linearGradient id="f" x1="98.599" x2="97.621" y1="502.216" y2="504.391" gradientUnits="userSpaceOnUse" gradientTransform="translate(-61.084 -465.499)"><stop offset=".006" stop-color="#BABDB6"/><stop offset=".008" stop-color="#BBBEB8"/><stop offset=".07" stop-color="#D9D9D4"/><stop offset=".132" stop-color="#EEEEEB"/><stop offset=".195" stop-color="#FBFBFA"/><stop offset=".258" stop-color="#fff"/><stop offset=".329" stop-color="#F5F5F3"/><stop offset=".439" stop-color="#DBDBD6"/><stop offset=".574" stop-color="#B3B4AD"/><stop offset=".663" stop-color="#969993"/><stop offset="1" stop-color="#BABDB6"/></linearGradient><linearGradient id="g" x1="104.575" x2="102.557" y1="501.97" y2="508.918" gradientUnits="userSpaceOnUse" gradientTransform="translate(-61.084 -465.499)"><stop offset=".006" stop-color="#D3D7CF"/><stop offset=".095" stop-color="#EAECE7"/><stop offset=".184" stop-color="#FAFAF8"/><stop offset=".258" stop-color="#fff"/><stop offset=".324" stop-color="#F6F5F4"/><stop offset=".419" stop-color="#DDDDD9"/><stop offset=".533" stop-color="#B8B8B1"/><stop offset=".66" stop-color="#898B86"/><stop offset=".663" stop-color="#888A85"/><stop offset="1" stop-color="#BABDB6"/></linearGradient><linearGradient id="h" x1="86.95" x2="91.999" y1="472.508" y2="473.428" gradientUnits="userSpaceOnUse" gradientTransform="translate(-61.084 -465.499)"><stop offset="0" stop-color="#fff"/><stop offset=".059" stop-color="#FBEDEC"/><stop offset=".177" stop-color="#F1BDBB"/><stop offset=".346" stop-color="#E0706C"/><stop offset=".539" stop-color="#CB1009"/><stop offset=".654" stop-color="#CE120B"/><stop offset=".782" stop-color="#D61612"/><stop offset=".918" stop-color="#E31F1F"/><stop offset="1" stop-color="#ED2829"/></linearGradient><linearGradient x1="87.426" x2="84.251" y1="473.055" y2="471.524" gradientUnits="userSpaceOnUse" gradientTransform="translate(-68.37 -456.928)"><stop offset="0" stop-color="#878787"/><stop offset="1" stop-color="#BABDB4"/></linearGradient><linearGradient id="a" x1="87.64" x2="86.754" y1="473.155" y2="472.693" gradientUnits="userSpaceOnUse" gradientTransform="translate(-61.084 -465.499)"><stop offset="0" stop-color="#EFEEEC"/><stop offset="1" stop-color="#ED2829"/></linearGradient><linearGradient id="i" x1="87.64" x2="86.754" y1="473.155" y2="472.693" xlink:href="#a" gradientUnits="userSpaceOnUse" gradientTransform="matrix(.897 0 0 .886 -51.869 -411.694)"/></defs><g><g transform="translate(-61.084 -465.499)"><path fill="none" stroke="#162b4c" stroke-width="2" d="M89.22 493.1c3.37 0 6.1 2.72 6.1 6.1 0 3.36-2.73 6.1-6.1 6.1-3.38 0-6.1-2.74-6.1-6.1 0-3.38 2.72-6.1 6.1-6.1z"/><radialGradient cx="215.199" cy="310.457" r="8.577" gradientUnits="userSpaceOnUse" gradientTransform="matrix(0 -1 1 0 -222.639 712.158)" fy="310.457" fx="215.199"><stop offset="0" stop-color="#fff"/><stop offset=".096" stop-color="#D8E7F1"/><stop offset=".253" stop-color="#9FC3DC"/><stop offset=".398" stop-color="#72A6CC"/><stop offset=".527" stop-color="#5292C0"/><stop offset=".635" stop-color="#3E85B9"/><stop offset=".708" stop-color="#3781B6"/><stop offset="1" stop-color="#254A87"/></radialGradient><path fill="url(#b)" d="M89.22 493.1c3.37 0 6.1 2.72 6.1 6.1 0 3.36-2.73 6.1-6.1 6.1-3.38 0-6.1-2.74-6.1-6.1 0-3.38 2.72-6.1 6.1-6.1z"/><g><radialGradient cx="306.715" cy="308.31" r="15.121" gradientUnits="userSpaceOnUse" gradientTransform="matrix(0 1 1 0 -222.639 187.377)" fy="308.31" fx="306.715"><stop offset="0" stop-color="#fff"/><stop offset=".685" stop-color="#2C669D"/><stop offset="1" stop-color="#1D3E63"/></radialGradient><path fill="url(#c)" d="M83.1 499.2c0 1.62.64 3.15 1.8 4.3 1.15 1.16 2.68 1.8 4.32 1.8 1.62 0 3.16-.64 4.32-1.8 1.15-1.15 1.78-2.68 1.78-4.3 0-3.38-2.73-6.1-6.1-6.1-3.37 0-6.1 2.72-6.1 6.1zm11.25 0c0 1.36-.53 2.64-1.5 3.62-.98.97-2.26 1.5-3.63 1.5-1.38 0-2.67-.53-3.63-1.5-1-.98-1.52-2.26-1.52-3.63 0-2.84 2.3-5.15 5.14-5.15 2.83 0 5.13 2.3 5.13 5.14z"/></g></g><path fill="none" stroke="#1b1f1f" stroke-width="2" d="M7.22 37.23l15.7-3.48c.14-.04.3-.03.45 0 .5.17.9.76.83 1.34-.03.45-.33.76-.7.8L8.05 39.4"/><path fill="none" stroke="#1b1f1f" d="M1.44 40.23l8.12 1.7c.94.1 1.53-1.1 1.37-2.95-.18-2.12-1.3-4.3-2.5-4.88-.46-.22-.9-.15-1.2.15l-5.8 5.98z"/><path fill="url(#d)" d="M7.22 37.23l15.7-3.48c.14-.04.3-.03.45 0 .5.17.9.76.83 1.34-.03.45-.33.76-.7.8L8.05 39.4"/><path fill="url(#e)" stroke="#1b1f1f" d="M1.44 40.23l8.12 1.7c.94.1 1.53-1.1 1.37-2.95-.18-2.12-1.3-4.3-2.5-4.88-.46-.22-.9-.15-1.2.15l-5.8 5.98z"/><path fill="none" stroke="#1b1f1f" stroke-width=".5" d="M11.07 38.88c-.2-2.12-1.3-4.3-2.5-4.88"/><path fill="none" stroke="#1b1f1f" stroke-width="2" d="M41.56 41.15L32.38 37c-.26-.13-.44-.4-.47-.8-.04-.6.3-1.24.78-1.4.16-.06.32-.05.46 0l9.4 4.18"/><path fill="none" stroke="#1b1f1f" d="M46.56 42.07l-6.23 1.02c-.1 0-.18 0-.28 0-1.56 0-2.48-1.7-2.06-3.77.4-2.1 2-3.78 3.56-3.78.76 0 1.37.4 1.75 1.05l3.26 5.47z"/><path fill="url(#f)" d="M41.56 41.15L32.38 37c-.26-.13-.44-.4-.47-.8-.04-.6.3-1.24.78-1.4.16-.06.32-.05.46 0l9.4 4.18"/><path fill="url(#g)" stroke="#1b1f1f" d="M46.56 42.07l-6.23 1.02c-.1 0-.18 0-.28 0-1.56 0-2.48-1.7-2.06-3.77.4-2.1 2-3.78 3.56-3.78.76 0 1.37.4 1.75 1.05l3.26 5.47z"/><path fill="none" stroke="#1b1f1f" stroke-width=".5" d="M37.78 39.8c.48-2.42 2.34-4.38 4.15-4.38"/><path fill="none" stroke="#590b08" stroke-width="2" d="M27.1 11.7v16.95c0 .37.43.7.96.7s.95-.34.95-.7V11.7"/><path fill="#ed2829" d="M27.1 11.7v16.95c0 .37.43.7.96.7s.95-.34.95-.7V11.7"/><path fill="url(#h)" stroke="#8b0a06" d="M32.07 10.5c0 1.18-1.45 2.04-4.2 2.04-2.4 0-3.97-.9-3.97-2 0-.06.02-.1.04-.14l3.96-7.02c.05-.08.12-.08.17 0l3.97 7c0 .04.02.08.03.13z"/><path fill="url(#i)" d="M28.05 3.74l-2.46 7.78c-1.04-.33-1.38-1.15-1.24-1.5L28 3.74h.05z"/></g></svg>