<svg xmlns="http://www.w3.org/2000/svg" width="48" height="48" xmlns:i="&ns_ai;" xmlns:xlink="http://www.w3.org/1999/xlink" version="1"><defs><linearGradient id="a"><stop offset="0"/><stop offset="1" stop-color="#696969"/></linearGradient><radialGradient id="b" cx="23.909" cy="267.666" r="19.809" gradientUnits="userSpaceOnUse" fy="267.666" fx="23.909"><stop offset="0" stop-color="#f5f4f4" stop-opacity=".691"/><stop offset="1" stop-color="#fff" stop-opacity="0"/></radialGradient><linearGradient id="c" x1="43.305" x2="9.767" y1="45.451" y2="16.466" xlink:href="#a" gradientUnits="userSpaceOnUse"/><radialGradient id="d" cx="23.909" cy="267.666" r="19.809" xlink:href="#b" gradientUnits="userSpaceOnUse" gradientTransform="matrix(-1.121 0 0 -.909 50.872 257.397)" fx="23.909" fy="267.666"/></defs><g><path d="M33.07 6.67H43.7" i:knockout="Off"/><g><path stroke="url(#c)" stroke-width="2" d="M24.05 45.9h19c.4 0 .73-.22.9-.54 1.5-3 2.36-6.4 2.36-10 0-12.3-9.96-22.26-22.25-22.26-12.3 0-22.27 9.97-22.27 22.27 0 3.6.86 7 2.37 10 .17.3.5.53.9.53h19z" i:knockout="Off" transform="translate(0 -5.245)"/><path d="M24.05 39.72h17.92c.37 0 .68-.2.84-.5 1.44-2.84 2.24-6.04 2.24-9.43 0-11.6-9.4-21-21-21s-20.98 9.4-20.98 21c0 3.38.8 6.58 2.22 9.4.17.32.48.52.84.52h17.93z" i:knockout="Off" opacity=".6"/><path fill="none" stroke="#cfeb87" d="M43.2 35.23l-3-.8" i:knockout="Off"/><path fill="none" stroke="#cfeb87" d="M43.2 24.97l-2.92.78" i:knockout="Off"/><path fill="none" stroke="#cfeb87" d="M38.05 16.1L36 18.15" i:knockout="Off"/><path fill="none" stroke="#cfeb87" d="M29.18 10.96l-.75 2.78" i:knockout="Off"/><path fill="none" stroke="#cfeb87" d="M18.92 10.97l.75 2.77" i:knockout="Off"/><path fill="none" stroke="#cfeb87" d="M10.05 16.1l2.07 2.06" i:knockout="Off"/><path fill="none" stroke="#cfeb87" d="M4.9 24.97l2.92.78" i:knockout="Off"/><path fill="none" stroke="#cfeb87" d="M4.9 35.23l3-.8" i:knockout="Off"/><path fill="url(#d)" d="M38.9 23.05c0 4.97-6.65 9-14.85 9s-14.84-4.03-14.84-9c0-4.98 7.87-9 14.85-9 7.1 0 14.84 4.02 14.84 9z" i:knockout="Off" transform="translate(0 -5.245)"/><path fill="#fff" stroke="#f7cc80" stroke-width=".49945999999999996" d="M38.73 23.72l-14.47 15.4-.92-.92 15.4-14.48z" i:knockout="Off"/></g></g></svg>