<svg xmlns="http://www.w3.org/2000/svg" width="16" height="16" xmlns:xlink="http://www.w3.org/1999/xlink"><defs><linearGradient id="b"><stop offset="0" stop-color="#8e8e8e"/><stop offset="1"/></linearGradient><linearGradient id="a"><stop offset="0" stop-color="#fff"/><stop offset="1" stop-color="#aaa"/></linearGradient><radialGradient id="c" cx="7.995" cy="7.976" r="7.967" xlink:href="#a" fx="7.995" fy="7.976" gradientUnits="userSpaceOnUse"/><radialGradient id="d" cx="4.735" cy="5.878" r="7.995" xlink:href="#b" fx="4.735" fy="5.878" gradientUnits="userSpaceOnUse"/></defs><path fill="url(#c)" fill-rule="evenodd" d="M15.96 7.98a7.97 7.97 0 1 1-15.93 0 7.97 7.97 0 1 1 15.93 0z" transform="matrix(1.004 0 0 1.004 -.028 -.01)" color="#000" overflow="visible" enable-background="accumulate"/><path fill="url(#d)" d="M13.22 4.94c0-.04-.1-.22-.24-.4-.34-.48-.73-.72-1.24-.76-.38-.03-.45 0-.64.17-.1.1-.2.3-.2.4 0 .25.32.6.6.63.33.06 1.72.02 1.72-.04zM6.6 15.9c-1.64-.3-3-1-4.15-2.1C1.4 12.75.7 11.6.27 10.2 0 9.24-.1 7.6.1 6.8.28 6.2.7 5.3.8 5.3c.1 0 .1.07-.1.6C.5 6.56.43 8 .6 8.86c.14.72.26 1.08.37 1.08.04 0 .1-.1.12-.22.07-.33.34-.7.63-.9.34-.2.87-.2 1.12 0l.18.16h-.18c-.3 0-.7.2-.84.44-.54.8-.2 2.23.8 3.33.43.48.95.87 1.04.78.03-.02-.03-.23-.13-.46-.36-.8-.14-1.94.48-2.52.25-.24.85-.5 1.28-.56.94-.13 1.83.57 1.83 1.45 0 .34-.14.67-.3.73-.13.05-.15 0-.23-.47-.06-.4-.4-.74-.8-.8-.38-.08-.98.2-1.2.58-.45.8.25 2.18 1.35 2.66.9.4 2.24.5 3.44.28.57-.1 1.42-.46 1.42-.6 0-.02-.22-.1-.48-.14-1-.2-1.7-.72-2.13-1.6-.2-.4-.24-.55-.24-1.2 0-.58.04-.78.2-1.1.27-.55.8-1.06 1.42-1.35 1.15-.55 2.34-.23 2.83.73.3.62.25 1.23-.15 1.63-.2.2-.32.25-.67.28-.47.03-.78-.08-1.06-.4l-.16-.17.5.06c.46.05.5.04.7-.15.28-.28.26-.57-.06-.9-.96-.94-2.6.27-2.23 1.65.25.96 1.52 1.5 2.7 1.17.36-.1.55-.23.9-.6.6-.57.77-1.06.77-1.97 0-1.02-.43-1.72-1.33-2.2-.5-.28-.54-.28-1.44-.28-1.1 0-1.42.1-2.53.8-1.1.72-1.5.87-2.28.9-1.62.08-3.33-.82-4.02-2.1C1.63 5.7 1.6 4.18 2.2 3c.37-.76.88-1.3 1.7-1.85C5.2.28 6.45-.05 8.24.02c.73.02 1.3.1 1.7.2 3 .8 5.2 3.05 5.9 6.07.2.93.2 2.62-.05 3.6-.35 1.4-1.14 2.78-2.17 3.8-1 1-2.17 1.67-3.56 2.05-.92.25-2.57.33-3.47.16z"/></svg>