<svg xmlns="http://www.w3.org/2000/svg" width="16" height="16" xmlns:xlink="http://www.w3.org/1999/xlink"><defs><linearGradient id="c"><stop offset="0" stop-color="#ba87d6"/><stop offset=".411" stop-color="#9c61bc"/><stop offset=".708" stop-color="#904bad"/><stop offset="1" stop-color="#c8a9dd"/></linearGradient><linearGradient id="b"><stop offset="0" stop-color="#fedba7"/><stop offset="1" stop-color="#fdbf64"/></linearGradient><linearGradient id="a"><stop offset="0" stop-color="#ffa54c"/><stop offset="1" stop-color="#f57900"/></linearGradient><linearGradient x1="14.929" x2="35.357" y1="17.929" y2="27.929" xlink:href="#a" gradientUnits="userSpaceOnUse" gradientTransform="matrix(.864 0 0 .863 3.346 6.117)"/><linearGradient x1="2.131" x2="46.011" y1="26.143" y2="26.143" xlink:href="#b" gradientUnits="userSpaceOnUse" gradientTransform="matrix(.967 0 0 .966 .802 .898)"/><linearGradient x1="13.664" x2="34.635" y1="19.056" y2="31.123" xlink:href="#a" gradientUnits="userSpaceOnUse" gradientTransform="matrix(.395 0 0 .38 .518 13.558)"/><linearGradient x1="14.929" x2="35.357" y1="17.929" y2="27.929" xlink:href="#a" gradientUnits="userSpaceOnUse" gradientTransform="matrix(.864 0 0 .863 51.703 -8.597)"/><linearGradient x1="2.131" x2="46.011" y1="26.143" y2="26.143" xlink:href="#b" gradientUnits="userSpaceOnUse" gradientTransform="matrix(.967 0 0 .966 49.159 -13.817)"/><linearGradient x1="14.929" x2="35.357" y1="17.929" y2="27.929" xlink:href="#a" gradientUnits="userSpaceOnUse" gradientTransform="matrix(.395 0 0 .38 10.929 7.604)"/><linearGradient x1="14.929" x2="35.357" y1="17.929" y2="27.929" xlink:href="#a" gradientUnits="userSpaceOnUse" gradientTransform="matrix(.395 0 0 .38 20.5 3.793)"/><linearGradient x1="13.664" x2="34.635" y1="19.056" y2="31.123" xlink:href="#a" gradientUnits="userSpaceOnUse" gradientTransform="matrix(.395 0 0 .38 10.571 8.425)"/><linearGradient x1="13.664" x2="34.635" y1="19.056" y2="31.123" xlink:href="#a" gradientUnits="userSpaceOnUse" gradientTransform="matrix(.395 0 0 .38 10.34 18.492)"/><linearGradient x1="13.664" x2="34.635" y1="19.056" y2="31.123" xlink:href="#a" gradientUnits="userSpaceOnUse" gradientTransform="matrix(.395 0 0 .38 20.393 13.359)"/><linearGradient x1="13.664" x2="34.635" y1="19.056" y2="31.123" xlink:href="#a" gradientUnits="userSpaceOnUse" gradientTransform="matrix(.395 0 0 .38 20.241 3.387)"/><linearGradient x1="13.664" x2="34.635" y1="19.056" y2="31.123" xlink:href="#a" gradientUnits="userSpaceOnUse" gradientTransform="matrix(.395 0 0 .38 30.063 8.321)"/><linearGradient x1="13.664" x2="34.635" y1="19.056" y2="31.123" xlink:href="#a" gradientUnits="userSpaceOnUse" gradientTransform="matrix(.395 0 0 .38 19.933 23.297)"/><linearGradient x1="13.664" x2="34.635" y1="19.056" y2="31.123" xlink:href="#a" gradientUnits="userSpaceOnUse" gradientTransform="matrix(.395 0 0 .38 29.986 18.164)"/><linearGradient x1="13.664" x2="34.635" y1="19.056" y2="31.123" xlink:href="#a" gradientUnits="userSpaceOnUse" gradientTransform="matrix(.395 0 0 .38 39.656 13.126)"/><linearGradient x1="13.664" x2="34.635" y1="19.056" y2="31.123" xlink:href="#a" gradientUnits="userSpaceOnUse" gradientTransform="matrix(.395 0 0 .38 .518 13.558)"/><linearGradient x1="13.664" x2="34.635" y1="19.056" y2="31.123" xlink:href="#a" gradientUnits="userSpaceOnUse" gradientTransform="matrix(.395 0 0 .38 10.571 8.425)"/><linearGradient x1="13.664" x2="34.635" y1="19.056" y2="31.123" xlink:href="#a" gradientUnits="userSpaceOnUse" gradientTransform="matrix(.395 0 0 .38 10.34 18.492)"/><linearGradient x1="13.664" x2="34.635" y1="19.056" y2="31.123" xlink:href="#a" gradientUnits="userSpaceOnUse" gradientTransform="matrix(.395 0 0 .38 20.393 13.359)"/><linearGradient x1="13.664" x2="34.635" y1="19.056" y2="31.123" xlink:href="#a" gradientUnits="userSpaceOnUse" gradientTransform="matrix(.395 0 0 .38 20.241 3.387)"/><linearGradient x1="13.664" x2="34.635" y1="19.056" y2="31.123" xlink:href="#a" gradientUnits="userSpaceOnUse" gradientTransform="matrix(.395 0 0 .38 30.063 8.321)"/><linearGradient x1="13.664" x2="34.635" y1="19.056" y2="31.123" xlink:href="#a" gradientUnits="userSpaceOnUse" gradientTransform="matrix(.395 0 0 .38 19.933 23.297)"/><linearGradient x1="13.664" x2="34.635" y1="19.056" y2="31.123" xlink:href="#a" gradientUnits="userSpaceOnUse" gradientTransform="matrix(.395 0 0 .38 29.986 18.164)"/><linearGradient x1="13.664" x2="34.635" y1="19.056" y2="31.123" xlink:href="#a" gradientUnits="userSpaceOnUse" gradientTransform="matrix(.395 0 0 .38 39.656 13.126)"/><linearGradient x1="13.664" x2="34.635" y1="19.056" y2="31.123" xlink:href="#b" gradientUnits="userSpaceOnUse" gradientTransform="matrix(.105 0 0 .101 10.692 36.722)"/><linearGradient x1="13.664" x2="34.635" y1="19.056" y2="31.123" xlink:href="#b" gradientUnits="userSpaceOnUse" gradientTransform="matrix(.105 0 0 .101 8.126 38.06)"/><linearGradient x1="13.664" x2="34.635" y1="19.056" y2="31.123" xlink:href="#b" gradientUnits="userSpaceOnUse" gradientTransform="matrix(.105 0 0 .101 5.458 39.422)"/><linearGradient x1="13.664" x2="34.635" y1="19.056" y2="31.123" xlink:href="#b" gradientUnits="userSpaceOnUse" gradientTransform="matrix(.105 0 0 .101 8.146 35.447)"/><linearGradient x1="13.664" x2="34.635" y1="19.056" y2="31.123" xlink:href="#b" gradientUnits="userSpaceOnUse" gradientTransform="matrix(.105 0 0 .101 5.539 34.138)"/><linearGradient x1="13.664" x2="34.635" y1="19.056" y2="31.123" xlink:href="#b" gradientUnits="userSpaceOnUse" gradientTransform="matrix(.105 0 0 .101 5.58 36.784)"/><linearGradient x1="13.664" x2="34.635" y1="19.056" y2="31.123" xlink:href="#b" gradientUnits="userSpaceOnUse" gradientTransform="matrix(.105 0 0 .101 2.912 38.147)"/><linearGradient x1="13.664" x2="34.635" y1="19.056" y2="31.123" xlink:href="#b" gradientUnits="userSpaceOnUse" gradientTransform="matrix(.105 0 0 .101 2.973 35.475)"/><linearGradient x1="13.664" x2="34.635" y1="19.056" y2="31.123" xlink:href="#b" gradientUnits="userSpaceOnUse" gradientTransform="matrix(.105 0 0 .101 .305 36.837)"/><linearGradient id="d" x1="4.668" x2="8.834" y1="35.834" y2="43.888" xlink:href="#c" gradientUnits="userSpaceOnUse"/></defs><g stroke-linejoin="round"><path fill="url(#d)" stroke="#000" stroke-width=".5" d="M.2 37.9l7.88-4.08c3.84 1.53 4.24 5.04 7.77 7.3l-7.9 3.97c-3.2-1.45-3.64-5.52-7.75-7.2z" transform="translate(0 -32)"/><path fill="none" stroke="#c2a3e0" stroke-width=".479" d="M1.02 5.9L8.1 2.3c3.44 1.37 3.77 4.7 6.95 6.72L8 12.58C5.1 11.28 4.7 7.4 1 5.9z"/><path fill="none" stroke="#fff" stroke-opacity=".392" stroke-width=".5" d="M12.32 10.86C9.1 9.42 8.67 5.36 4.56 3.68"/><path fill="none" stroke="#fff" stroke-opacity=".392" stroke-width=".5" d="M4.3 9.13l7.52-3.84" color="#000" overflow="visible" enable-background="accumulate"/></g></svg>