<svg xmlns="http://www.w3.org/2000/svg" width="16" height="16" xmlns:xlink="http://www.w3.org/1999/xlink"><defs><linearGradient id="b"><stop offset="0" stop-color="#fedba7"/><stop offset="1" stop-color="#fdbf64"/></linearGradient><linearGradient id="a"><stop offset="0" stop-color="#ffa54c"/><stop offset="1" stop-color="#f57900"/></linearGradient><linearGradient x1="14.929" x2="35.357" y1="17.929" y2="27.929" xlink:href="#a" gradientUnits="userSpaceOnUse" gradientTransform="matrix(.864 0 0 .863 3.346 6.117)"/><linearGradient x1="2.131" x2="46.011" y1="26.143" y2="26.143" xlink:href="#b" gradientUnits="userSpaceOnUse" gradientTransform="matrix(.967 0 0 .966 .802 .898)"/><linearGradient x1="13.664" x2="34.635" y1="19.056" y2="31.123" xlink:href="#a" gradientUnits="userSpaceOnUse" gradientTransform="matrix(.395 0 0 .38 .518 13.558)"/><linearGradient x1="14.929" x2="35.357" y1="17.929" y2="27.929" xlink:href="#a" gradientUnits="userSpaceOnUse" gradientTransform="matrix(.864 0 0 .863 51.703 -8.597)"/><linearGradient x1="2.131" x2="46.011" y1="26.143" y2="26.143" xlink:href="#b" gradientUnits="userSpaceOnUse" gradientTransform="matrix(.967 0 0 .966 49.159 -13.817)"/><linearGradient x1="14.929" x2="35.357" y1="17.929" y2="27.929" xlink:href="#a" gradientUnits="userSpaceOnUse" gradientTransform="matrix(.395 0 0 .38 10.929 7.604)"/><linearGradient x1="14.929" x2="35.357" y1="17.929" y2="27.929" xlink:href="#a" gradientUnits="userSpaceOnUse" gradientTransform="matrix(.395 0 0 .38 20.5 3.793)"/><linearGradient x1="13.664" x2="34.635" y1="19.056" y2="31.123" xlink:href="#a" gradientUnits="userSpaceOnUse" gradientTransform="matrix(.395 0 0 .38 10.571 8.425)"/><linearGradient x1="13.664" x2="34.635" y1="19.056" y2="31.123" xlink:href="#a" gradientUnits="userSpaceOnUse" gradientTransform="matrix(.395 0 0 .38 10.34 18.492)"/><linearGradient x1="13.664" x2="34.635" y1="19.056" y2="31.123" xlink:href="#a" gradientUnits="userSpaceOnUse" gradientTransform="matrix(.395 0 0 .38 20.393 13.359)"/><linearGradient x1="13.664" x2="34.635" y1="19.056" y2="31.123" xlink:href="#a" gradientUnits="userSpaceOnUse" gradientTransform="matrix(.395 0 0 .38 20.241 3.387)"/><linearGradient x1="13.664" x2="34.635" y1="19.056" y2="31.123" xlink:href="#a" gradientUnits="userSpaceOnUse" gradientTransform="matrix(.395 0 0 .38 30.063 8.321)"/><linearGradient x1="13.664" x2="34.635" y1="19.056" y2="31.123" xlink:href="#a" gradientUnits="userSpaceOnUse" gradientTransform="matrix(.395 0 0 .38 19.933 23.297)"/><linearGradient x1="13.664" x2="34.635" y1="19.056" y2="31.123" xlink:href="#a" gradientUnits="userSpaceOnUse" gradientTransform="matrix(.395 0 0 .38 29.986 18.164)"/><linearGradient x1="13.664" x2="34.635" y1="19.056" y2="31.123" xlink:href="#a" gradientUnits="userSpaceOnUse" gradientTransform="matrix(.395 0 0 .38 39.656 13.126)"/><linearGradient x1="13.664" x2="34.635" y1="19.056" y2="31.123" xlink:href="#a" gradientUnits="userSpaceOnUse" gradientTransform="matrix(.395 0 0 .38 .518 13.558)"/><linearGradient x1="13.664" x2="34.635" y1="19.056" y2="31.123" xlink:href="#a" gradientUnits="userSpaceOnUse" gradientTransform="matrix(.395 0 0 .38 10.571 8.425)"/><linearGradient x1="13.664" x2="34.635" y1="19.056" y2="31.123" xlink:href="#a" gradientUnits="userSpaceOnUse" gradientTransform="matrix(.395 0 0 .38 10.34 18.492)"/><linearGradient x1="13.664" x2="34.635" y1="19.056" y2="31.123" xlink:href="#a" gradientUnits="userSpaceOnUse" gradientTransform="matrix(.395 0 0 .38 20.393 13.359)"/><linearGradient x1="13.664" x2="34.635" y1="19.056" y2="31.123" xlink:href="#a" gradientUnits="userSpaceOnUse" gradientTransform="matrix(.395 0 0 .38 20.241 3.387)"/><linearGradient x1="13.664" x2="34.635" y1="19.056" y2="31.123" xlink:href="#a" gradientUnits="userSpaceOnUse" gradientTransform="matrix(.395 0 0 .38 30.063 8.321)"/><linearGradient x1="13.664" x2="34.635" y1="19.056" y2="31.123" xlink:href="#a" gradientUnits="userSpaceOnUse" gradientTransform="matrix(.395 0 0 .38 19.933 23.297)"/><linearGradient x1="13.664" x2="34.635" y1="19.056" y2="31.123" xlink:href="#a" gradientUnits="userSpaceOnUse" gradientTransform="matrix(.395 0 0 .38 29.986 18.164)"/><linearGradient x1="13.664" x2="34.635" y1="19.056" y2="31.123" xlink:href="#a" gradientUnits="userSpaceOnUse" gradientTransform="matrix(.395 0 0 .38 39.656 13.126)"/><linearGradient id="k" x1="13.664" x2="34.635" y1="19.056" y2="31.123" xlink:href="#b" gradientUnits="userSpaceOnUse" gradientTransform="matrix(.105 0 0 .101 10.692 36.722)"/><linearGradient id="j" x1="13.664" x2="34.635" y1="19.056" y2="31.123" xlink:href="#b" gradientUnits="userSpaceOnUse" gradientTransform="matrix(.105 0 0 .101 8.126 38.06)"/><linearGradient id="i" x1="13.664" x2="34.635" y1="19.056" y2="31.123" xlink:href="#b" gradientUnits="userSpaceOnUse" gradientTransform="matrix(.105 0 0 .101 5.458 39.422)"/><linearGradient id="h" x1="13.664" x2="34.635" y1="19.056" y2="31.123" xlink:href="#b" gradientUnits="userSpaceOnUse" gradientTransform="matrix(.105 0 0 .101 8.146 35.447)"/><linearGradient id="g" x1="13.664" x2="34.635" y1="19.056" y2="31.123" xlink:href="#b" gradientUnits="userSpaceOnUse" gradientTransform="matrix(.105 0 0 .101 5.539 34.138)"/><linearGradient id="f" x1="13.664" x2="34.635" y1="19.056" y2="31.123" xlink:href="#b" gradientUnits="userSpaceOnUse" gradientTransform="matrix(.105 0 0 .101 5.58 36.784)"/><linearGradient id="e" x1="13.664" x2="34.635" y1="19.056" y2="31.123" xlink:href="#b" gradientUnits="userSpaceOnUse" gradientTransform="matrix(.105 0 0 .101 2.912 38.147)"/><linearGradient id="d" x1="13.664" x2="34.635" y1="19.056" y2="31.123" xlink:href="#b" gradientUnits="userSpaceOnUse" gradientTransform="matrix(.105 0 0 .101 2.973 35.475)"/><linearGradient id="c" x1="13.664" x2="34.635" y1="19.056" y2="31.123" xlink:href="#b" gradientUnits="userSpaceOnUse" gradientTransform="matrix(.105 0 0 .101 .305 36.837)"/></defs><g stroke-width=".338" stroke-linejoin="round"><path fill="url(#c)" fill-rule="evenodd" stroke="#8b3b00" d="M.2 39.37l2.62-1.35 2.66 1.37-2.66 1.26-2.6-1.3z" transform="translate(0 -32)"/><path fill="url(#d)" fill-rule="evenodd" stroke="#8b3b00" d="M2.88 38l2.6-1.35 2.66 1.37-2.66 1.28-2.6-1.3z" transform="translate(0 -32)"/><path fill="url(#e)" fill-rule="evenodd" stroke="#8b3b00" d="M2.82 40.68l2.6-1.35 2.66 1.36-2.66 1.27-2.6-1.3z" transform="translate(0 -32)"/><path fill="url(#f)" fill-rule="evenodd" stroke="#8b3b00" d="M5.48 39.3l2.6-1.34 2.67 1.37L8.1 40.6l-2.62-1.3z" transform="translate(0 -32)"/><path fill="url(#g)" fill-rule="evenodd" stroke="#8b3b00" d="M5.44 36.67l2.6-1.35 2.67 1.37-2.65 1.27-2.6-1.3z" transform="translate(0 -32)"/><path fill="url(#h)" fill-rule="evenodd" stroke="#8b3b00" d="M8.05 37.98l2.6-1.35L13.33 38l-2.66 1.27-2.6-1.3z" transform="translate(0 -32)"/><path fill="url(#i)" fill-rule="evenodd" stroke="#8b3b00" d="M5.36 41.95l2.6-1.35 2.67 1.37-2.66 1.28-2.6-1.3z" transform="translate(0 -32)"/><path fill="url(#j)" fill-rule="evenodd" stroke="#8b3b00" d="M8.03 40.6l2.6-1.36 2.67 1.37-2.66 1.3-2.6-1.3z" transform="translate(0 -32)"/><path fill="url(#k)" fill-rule="evenodd" stroke="#8b3b00" d="M10.6 39.25l2.6-1.35 2.66 1.37-2.66 1.28-2.6-1.3z" transform="translate(0 -32)"/><path fill="none" stroke="#000" d="M.2 7.4l7.88-4.1 7.77 3.97-7.9 4L.2 7.38z"/></g></svg>