<svg xmlns="http://www.w3.org/2000/svg" width="16" height="16" xmlns:xlink="http://www.w3.org/1999/xlink"><defs><linearGradient id="d"><stop offset="0" stop-color="#2e3436" stop-opacity=".392"/><stop offset="1" stop-color="#2e3436" stop-opacity="0"/></linearGradient><linearGradient id="c"><stop offset="0" stop-color="#fbfdff"/><stop offset="1" stop-color="#8bafe5"/></linearGradient><linearGradient id="b"><stop offset="0" stop-color="#00419e" stop-opacity="0"/><stop offset=".445" stop-color="#00419e" stop-opacity="0"/><stop offset=".673" stop-color="#00419e" stop-opacity=".474"/><stop offset="1" stop-color="#00419e" stop-opacity="0"/></linearGradient><linearGradient id="a"><stop offset="0" stop-color="#fff"/><stop offset="1" stop-color="#fff" stop-opacity="0"/></linearGradient><radialGradient cx="10.511" cy="14.044" r="10.719" xlink:href="#a" fx="10.511" fy="14.044" gradientUnits="userSpaceOnUse" gradientTransform="matrix(.813 .62 -.607 .795 10.485 -3.642)"/><radialGradient cx="11.551" cy="14.333" r="10.719" xlink:href="#a" gradientUnits="userSpaceOnUse" fx="11.551" fy="14.333" gradientTransform="matrix(.693 .436 -.532 .847 11.172 -2.837)"/><radialGradient cx="14.36" cy="19.118" r="9.104" xlink:href="#b" fx="14.36" fy="19.118" gradientTransform="matrix(.784 .559 -1.087 1.525 24.181 -18.374)" gradientUnits="userSpaceOnUse"/><radialGradient cx="14.36" cy="19.118" r="9.104" xlink:href="#b" gradientUnits="userSpaceOnUse" gradientTransform="matrix(.842 .6 -1.168 1.639 46.425 -9.501)" fx="14.36" fy="19.118"/><linearGradient x1="4.54" x2="44.793" y1="9.17" y2="35.012" xlink:href="#c" gradientUnits="userSpaceOnUse" gradientTransform="matrix(1 0 0 1.007 0 -.268)"/><linearGradient id="i" x1="4.54" x2="44.793" y1="9.17" y2="35.012" xlink:href="#c" gradientUnits="userSpaceOnUse" gradientTransform="matrix(.332 0 0 .334 .12 31.727)"/><radialGradient id="h" cx="14.36" cy="19.118" r="9.104" xlink:href="#b" gradientUnits="userSpaceOnUse" gradientTransform="matrix(.28 .199 -.388 .544 15.527 28.665)" fx="14.36" fy="19.118"/><radialGradient id="g" cx="14.36" cy="19.118" r="9.104" xlink:href="#b" gradientUnits="userSpaceOnUse" gradientTransform="matrix(.26 .185 -.361 .506 8.145 25.723)" fx="14.36" fy="19.118"/><radialGradient id="f" cx="11.551" cy="14.333" r="10.719" xlink:href="#a" gradientUnits="userSpaceOnUse" gradientTransform="matrix(.693 .436 -.532 .847 11.172 -2.837)" fx="11.551" fy="14.333"/><radialGradient id="e" cx="10.511" cy="14.044" r="10.719" xlink:href="#a" gradientUnits="userSpaceOnUse" gradientTransform="matrix(.813 .62 -.607 .795 10.485 -3.642)" fx="10.511" fy="14.044"/><radialGradient cx="11.994" cy="44.137" r="10.876" xlink:href="#d" fx="11.994" fy="44.137" gradientTransform="matrix(1 0 0 .439 0 24.75)" gradientUnits="userSpaceOnUse"/><radialGradient cx="11.994" cy="44.137" r="10.876" xlink:href="#d" fx="11.994" fy="44.137" gradientTransform="matrix(1 0 0 .439 0 24.75)" gradientUnits="userSpaceOnUse"/><radialGradient cx="11.994" cy="44.137" r="10.876" xlink:href="#d" gradientUnits="userSpaceOnUse" gradientTransform="matrix(1 0 0 .439 0 24.75)" fx="11.994" fy="44.137"/></defs><g color="#000"><path fill="#729fcf" fill-rule="evenodd" stroke="#132c51" stroke-width=".661" d="M11.43 5.16c2.45 0 4.23 1.88 4.23 4.2 0 2.3-1.86 4.18-4.14 4.18-1.15 0-2.2-.47-3-1.28C7.45 11.12 7.4 9.28 6.93 9c-.47-.3-1.3.38-2.64.4C2.03 9.4.33 7.63.33 5.47c0-2.17 1.76-3.93 3.94-3.93 1.1 0 2.07.44 2.8 1.2C8.18 3.7 8.14 5.5 8.7 5.7c.56.2 1.62-.54 2.73-.56z" stroke-linejoin="round" overflow="visible"/><path fill="url(#e)" fill-rule="evenodd" d="M23.5 17a10.6 10.6 0 1 1-21.2 0 10.6 10.6 0 1 1 21.2 0z" transform="matrix(.352 0 0 .351 -.286 -.521)" overflow="visible"/><path fill="url(#f)" fill-rule="evenodd" d="M23.5 17a10.6 10.6 0 1 1-21.2 0 10.6 10.6 0 1 1 21.2 0z" transform="matrix(.379 0 0 .378 6.602 2.91)" overflow="visible"/><path fill="url(#g)" fill-rule="evenodd" d="M2.05 40.5c1.23.14 2.47-.3 3.73-1.7 1.26-1.4 1.48-2.7 1.4-3.7.75.5.9 1.72.9 2.65 0 1.88-1.63 3.48-3.6 3.48-.96 0-1.8-.1-2.43-.72z" overflow="visible" transform="translate(0 -32)"/><path fill="url(#h)" fill-rule="evenodd" d="M8.98 44.56c1.32.14 2.65-.33 4-1.84 1.36-1.5 1.6-2.9 1.5-3.98.8.53.98 1.85.98 2.85 0 2-1.75 3.73-3.86 3.73-1.05 0-1.93-.1-2.62-.77z" overflow="visible" transform="translate(0 -32)"/><path fill="none" stroke="url(#i)" stroke-width=".331" d="M11.5 37.47c2.34 0 3.8 1.68 3.8 3.9 0 2.22-1.53 3.8-3.7 3.8-1.1 0-2.03-.32-2.8-1.1-1.04-1.1-1.17-3.07-1.72-3.4-.53-.32-1.5.33-2.8.35-2.14 0-3.57-1.48-3.57-3.56 0-2.07 1.52-3.62 3.6-3.62 1.03 0 1.88.4 2.58 1.1 1.03.95 1.18 2.9 1.72 3.1.54.18 1.84-.55 2.9-.57z" stroke-linejoin="round" overflow="visible" transform="translate(0 -32)"/></g></svg>