<svg xmlns="http://www.w3.org/2000/svg" width="16" height="16" xmlns:xlink="http://www.w3.org/1999/xlink" version="1"><defs><linearGradient id="e"><stop offset="0"/><stop offset="1" stop-opacity="0"/></linearGradient><linearGradient id="d"><stop offset="0"/><stop offset="1" stop-opacity="0"/></linearGradient><linearGradient id="c"><stop offset="0" stop-color="#fff"/><stop offset="1" stop-color="#fff" stop-opacity="0"/></linearGradient><linearGradient id="b"><stop offset="0" stop-color="#5b90c8"/><stop offset=".316" stop-color="#8fb0d1"/><stop offset="1" stop-color="#34679d"/></linearGradient><linearGradient id="a"><stop offset="0" stop-color="#729fcf"/><stop offset=".316" stop-color="#a5bfda"/><stop offset="1" stop-color="#376ca4"/></linearGradient><linearGradient><stop offset="0"/><stop offset="1" stop-color="#c9c9c9"/></linearGradient><linearGradient><stop offset="0" stop-color="#c1c1c1"/><stop offset="1" stop-color="#acacac"/></linearGradient><linearGradient><stop offset="0" stop-color="#ffd1d1"/><stop offset=".5" stop-color="#ff1d1d"/><stop offset="1" stop-color="#6f0000"/></linearGradient><linearGradient><stop offset="0" stop-color="#fff"/><stop offset=".329" stop-color="#fff" stop-opacity=".69"/><stop offset=".658" stop-color="#c2c2c2" stop-opacity=".34"/><stop offset="1" stop-color="#fff" stop-opacity="0"/></linearGradient><linearGradient><stop offset="0" stop-color="#959791"/><stop offset=".5" stop-color="#f8f8f8"/><stop offset="1" stop-color="#8c8c8c"/></linearGradient><linearGradient><stop offset="0" stop-color="#f5f5f5" stop-opacity=".09"/><stop offset=".263" stop-color="#fff" stop-opacity=".9"/><stop offset=".748" stop-color="#c7c7c7" stop-opacity=".46"/><stop offset="1" stop-color="#fff" stop-opacity=".78"/></linearGradient><linearGradient x1="28.245" x2="28.245" y1="60.446" y2="68.225" xlink:href="#a" gradientUnits="userSpaceOnUse" gradientTransform="matrix(-.493 -.717 .717 -.493 -9.268 79.419)"/><linearGradient x1="28.245" x2="28.245" y1="60.446" y2="68.225" xlink:href="#b" gradientUnits="userSpaceOnUse" gradientTransform="matrix(-.493 -.717 .717 -.493 -9.268 79.419)"/><linearGradient x1="28.245" x2="28.245" y1="60.446" y2="68.225" xlink:href="#a" gradientUnits="userSpaceOnUse" gradientTransform="matrix(-.493 -.717 .717 -.493 -9.268 79.419)"/><linearGradient x1="55.876" x2="38.061" y1="62.402" y2="62.827" xlink:href="#c" gradientUnits="userSpaceOnUse" gradientTransform="matrix(-.493 -.717 .717 -.493 -9.268 79.419)"/><linearGradient x1="2.875" x2="12.875" y1="23.625" y2="11.125" xlink:href="#d" gradientUnits="userSpaceOnUse"/><linearGradient x1="14.431" x2="8.198" y1="19.955" y2="13.484" xlink:href="#e" gradientUnits="userSpaceOnUse" gradientTransform="matrix(1.405 .19 -.176 1.219 -1.266 -13.659)"/></defs><g><path fill="none" stroke="#000" stroke-width="1.5" d="M1.13 7.15C6 .98 10.33 15 15.07 7.65"/><path fill="none" stroke="#729fcf" stroke-width=".75" d="M1.02 7.22L5.92.94l4.4 14.2 4.6-7.5" stroke-linejoin="bevel" stroke-dasharray="0.75,0.75"/><path fill="none" stroke="#729fcf" stroke-width=".75" d="M1.07 7.14C5.93.97 10.25 15 15 7.64"/><path fill="#babdb6" fill-rule="evenodd" stroke="#2e3436" stroke-width=".41.208" d="M1.95 7.2a.88.88 0 1 1-1.76 0 .88.88 0 1 1 1.75 0z" color="#000" overflow="visible"/><path fill="#babdb6" fill-rule="evenodd" stroke="#2e3436" stroke-width=".41.208" d="M15.85 7.65a.88.88 0 1 1-1.76 0 .88.88 0 1 1 1.75 0z" color="#000" overflow="visible"/><path fill="#babdb6" fill-rule="evenodd" stroke="#2e3436" stroke-width=".41.208" d="M6.55 1.03a.88.88 0 1 1-1.76 0 .88.88 0 1 1 1.75 0z" color="#000" overflow="visible"/><path fill="#babdb6" fill-rule="evenodd" stroke="#2e3436" stroke-width=".41.208" d="M11.5 15a.88.88 0 1 1-1.77 0 .88.88 0 1 1 1.76 0z" color="#000" overflow="visible"/><path fill="#babdb6" fill-rule="evenodd" stroke="#2e3436" stroke-width=".41.208" d="M8.8 7.7a.88.88 0 1 1-1.75 0 .88.88 0 1 1 1.76 0z" color="#000" overflow="visible"/></g></svg>