<svg xmlns="http://www.w3.org/2000/svg" width="16" height="16" xmlns:xlink="http://www.w3.org/1999/xlink"><defs><linearGradient id="o"><stop offset="0" stop-color="#729fcf"/><stop offset=".347" stop-color="#c1d5ea"/><stop offset="1" stop-color="#284d75"/></linearGradient><radialGradient cx="24.821" cy="39.036" r="21.679" xlink:href="#a" fx="24.821" fy="39.036" gradientTransform="matrix(1 0 0 .417 0 22.765)" gradientUnits="userSpaceOnUse"/><linearGradient id="a"><stop offset="0" stop-color="#2e3436"/><stop offset="1" stop-color="#2e3436" stop-opacity="0"/></linearGradient><linearGradient id="p" x1="9.417" x2="32.89" y1="29.418" y2="26.488" xlink:href="#b" gradientUnits="userSpaceOnUse" gradientTransform="matrix(.337 0 0 .337 -.352 -.622)"/><linearGradient id="b"><stop offset="0" stop-color="#73796d"/><stop offset="1" stop-color="#abaea6"/></linearGradient><linearGradient id="q" x1="15.652" x2="21.852" y1="8.977" y2="16.301" gradientTransform="matrix(.337 0 0 .337 -.328 -.333)" xlink:href="#c" gradientUnits="userSpaceOnUse"/><linearGradient id="c"><stop offset="0" stop-color="#442b01"/><stop offset="1" stop-color="#734801"/></linearGradient><linearGradient id="r" x1="3.745" x2="42.916" y1="12.034" y2="12.034" gradientTransform="matrix(.337 0 0 .337 -.328 -.333)" xlink:href="#d" gradientUnits="userSpaceOnUse"/><linearGradient id="d"><stop offset="0" stop-color="#c8a142"/><stop offset="1" stop-color="#916012"/></linearGradient><linearGradient x1="-100.206" x2="-83.826" y1="222.647" y2="222.647" xlink:href="#e" gradientUnits="userSpaceOnUse" gradientTransform="matrix(.757 0 0 .757 45.57 -141.204)"/><linearGradient id="e" x1="-100.206" x2="-83.826" y1="222.647" y2="222.647" gradientUnits="userSpaceOnUse" gradientTransform="translate(191.69)"><stop offset=".028" stop-color="#84A8C9"/><stop offset=".108" stop-color="#88ABCB"/><stop offset=".191" stop-color="#95B5CE"/><stop offset=".253" stop-color="#A3C0D3"/><stop offset=".294" stop-color="#9CBBD0"/><stop offset=".355" stop-color="#88ACCA"/><stop offset=".427" stop-color="#6A94BE"/><stop offset=".508" stop-color="#4177AF"/><stop offset=".511" stop-color="#3F76AF"/><stop offset=".736" stop-color="#224987"/><stop offset=".829" stop-color="#244D8A"/><stop offset=".924" stop-color="#2A5794"/><stop offset="1" stop-color="#3065A0"/></linearGradient><radialGradient cx="-37.291" cy="214.005" r="19.446" xlink:href="#f" gradientUnits="userSpaceOnUse" gradientTransform="matrix(-.757 0 0 .642 -57.443 -119.608)" fx="-37.291" fy="214.005"/><radialGradient id="f" cx="-37.291" cy="214.005" r="19.446" fx="-37.291" fy="214.005" gradientTransform="matrix(-1 0 0 .847 55.653 28.519)" gradientUnits="userSpaceOnUse"><stop offset="0" stop-color="#fff"/><stop offset="1" stop-color="#224987"/></radialGradient><radialGradient cx="-38.266" cy="214.142" r="20.102" xlink:href="#g" gradientUnits="userSpaceOnUse" gradientTransform="matrix(-1 0 0 1 55.653 0)" fx="-38.266" fy="214.142"/><radialGradient id="g" cx="-38.266" cy="214.142" r="20.102" gradientUnits="userSpaceOnUse" gradientTransform="matrix(-1 0 0 1 55.653 0)" fy="214.142" fx="-38.266"><stop offset="0" stop-color="#fff"/><stop offset="1" stop-color="#3065A0"/></radialGradient><radialGradient cx="96.07" cy="217.459" r="30.602" xlink:href="#h" gradientUnits="userSpaceOnUse" gradientTransform="matrix(1 0 0 .847 0 28.519)" fx="96.07" fy="217.459"/><radialGradient id="h" cx="96.07" cy="217.459" r="30.602" gradientUnits="userSpaceOnUse" gradientTransform="matrix(1 0 0 .847 0 28.519)" fy="217.459" fx="96.07"><stop offset="0" stop-color="#fff"/><stop offset=".066" stop-color="#F4F7FA"/><stop offset=".182" stop-color="#D7E1EC"/><stop offset=".335" stop-color="#A7BDD7"/><stop offset=".516" stop-color="#668DB9"/><stop offset=".652" stop-color="#3065A0"/><stop offset=".916" stop-color="#1A3A6B"/></radialGradient><linearGradient x1="103.99" x2="118.07" y1="229.561" y2="229.189" xlink:href="#i" gradientUnits="userSpaceOnUse" gradientTransform="matrix(1.137 0 0 1.137 -153.806 -236.883)"/><linearGradient id="i" x1="103.99" x2="118.07" y1="229.561" y2="229.189" gradientUnits="userSpaceOnUse"><stop offset="0" stop-color="#fff"/><stop offset=".078" stop-color="#FEFDEC"/><stop offset=".236" stop-color="#FCF7BB"/><stop offset=".459" stop-color="#F8ED6D"/><stop offset=".539" stop-color="#F6E94F"/><stop offset=".641" stop-color="#F5E84A"/><stop offset=".755" stop-color="#F3E43E"/><stop offset=".876" stop-color="#F0DD29"/><stop offset="1" stop-color="#EBD30F"/><stop offset="1" stop-color="#EBD30F"/></linearGradient><linearGradient x1="107.77" x2="105.604" y1="228.699" y2="227.569" xlink:href="#j" gradientUnits="userSpaceOnUse" gradientTransform="matrix(1.137 0 0 1.137 -153.806 -236.883)"/><linearGradient id="j" x1="107.77" x2="105.604" y1="228.699" y2="227.569" gradientUnits="userSpaceOnUse"><stop offset="0" stop-color="#EFEEEC"/><stop offset="1" stop-color="#F6E94F"/></linearGradient><linearGradient x1="105.57" x2="115.738" y1="226.415" y2="240.775" xlink:href="#k" gradientUnits="userSpaceOnUse"/><linearGradient id="k" x1="105.57" x2="115.738" y1="226.415" y2="240.775" gradientUnits="userSpaceOnUse"><stop offset="0" stop-color="#FAFAFA"/><stop offset=".579" stop-color="#F6E94F"/><stop offset=".693" stop-color="#F3E54B"/><stop offset=".793" stop-color="#EAD740"/><stop offset=".888" stop-color="#DBC32F"/><stop offset=".98" stop-color="#C8A61A"/><stop offset="1" stop-color="#C3A016"/></linearGradient><linearGradient id="t" x1="3.745" x2="42.916" y1="12.034" y2="12.034" gradientTransform="matrix(.337 0 0 .337 -.328 -.333)" xlink:href="#l" gradientUnits="userSpaceOnUse"/><linearGradient id="l"><stop offset="0" stop-color="#c8a142"/><stop offset="1" stop-color="#916012"/></linearGradient><linearGradient id="u" x1="24.749" x2="24.799" y1="40.07" y2="44.06" gradientTransform="matrix(.337 0 0 .337 -.328 -.333)" xlink:href="#m" gradientUnits="userSpaceOnUse"/><linearGradient id="m"><stop offset="0" stop-color="#2e3436"/><stop offset="1" stop-color="#2e3436" stop-opacity="0"/></linearGradient><linearGradient id="v" x1="24.749" x2="24.799" y1="40.07" y2="44.06" xlink:href="#m" gradientUnits="userSpaceOnUse" gradientTransform="matrix(.337 0 0 .337 3.402 -.93)"/><linearGradient id="w" x1="23.228" x2="40.512" y1="42.568" y2="42.568" gradientTransform="matrix(.337 0 0 .337 -.328 -.333)" xlink:href="#n" gradientUnits="userSpaceOnUse"/><linearGradient id="n"><stop offset="0" stop-color="#c8a142"/><stop offset="1" stop-color="#ab8832"/></linearGradient><radialGradient cx="24.821" cy="39.036" r="21.679" fy="39.036" fx="24.821" gradientTransform="matrix(1 0 0 .417 0 22.765)" gradientUnits="userSpaceOnUse" xlink:href="#a"/><linearGradient x1="4.998" x2="10.566" y1="1.449" y2="1.494" xlink:href="#o" gradientUnits="userSpaceOnUse"/><linearGradient x1="4.998" x2="10.566" y1="1.449" y2="1.494" xlink:href="#o" gradientUnits="userSpaceOnUse"/><linearGradient id="s" x1="4.998" x2="10.566" y1="1.449" y2="1.494" xlink:href="#o" gradientUnits="userSpaceOnUse" gradientTransform="matrix(1.209 0 0 1.209 -1.564 6.592)"/></defs><g><path fill="url(#p)" stroke="#000" stroke-width=".5" d="M2.23 8.06l2.5 4.63 9.7-1.7c.2-.12.32-.3.4-.68L10.98 6.6l-8.5.92c-.18.12-.33.27-.27.54z" stroke-linejoin="bevel"/><path fill="url(#q)" stroke="#000" stroke-width=".5" d="M2.16 7.6L4.8 2.2l8.53-.25c.2 0 .34.14.5.32l-2.8 4.4z" stroke-linejoin="bevel"/><path fill="#babdb6" d="M10.9 6.8l-.2 2.6 3.6 4.17.47-3.05z"/><path fill="#d5be9b" d="M2.4 7.4l8.5-.88 1.3-1.96L2 5.43z"/><path fill="#cca363" d="M10.9 6.52l2.85-4.28L12.4.38 9.64 4.8z"/><path fill="url(#r)" stroke="#492e01" stroke-width=".5" d="M13.87 2.3L12.43.43c-.1-.15-.45-.2-.68-.2L4.08.6c-.57-.04-1.54.5-1.73 1.2L1.17 4.7c-.12.22-.25.8-.04 1l.96 1.94L4.24 3.4c.23-.4.72-.75 1.2-.8l7.66-.55c.24 0 .6-.03.77.26z" stroke-linejoin="bevel"/><path fill="#eeeeec" fill-opacity=".304" d="M2.42 1.8l1.53 1.83c.34-.54.72-1.04 1.54-1.18L4 .7c-.65 0-1.36.53-1.6 1.1z"/><path fill="#d3d7cf" d="M10.72 9.26c-.07 0-7.87 1.04-7.87 1.04l1.62 2.97L13.24 12z"/><path fill="url(#s)" fill-rule="evenodd" stroke="#204a87" stroke-width=".5" stroke-dashoffset=".5" d="M4.78 12.6c0 .56 1.5 1.03 3.37 1.03 1.85 0 3.36-.47 3.36-1.04V4.1c0-.58-1.5-1.04-3.35-1.04-1.86 0-3.37.46-3.37 1.04v8.5" color="#000" overflow="visible" enable-background="accumulate"/><path fill="#a9c4e2" fill-rule="evenodd" stroke="#204a87" stroke-width=".386" stroke-dashoffset=".5" d="M10.77 5.13a2.67.87 0 1 1-5.34 0 2.67.87 0 1 1 5.34 0z" transform="matrix(1.255 0 0 1.335 -2.059 -2.659)" color="#000" overflow="visible" enable-background="accumulate"/><path fill="url(#t)" stroke="#492e01" stroke-width=".5" d="M14.8 10.2l-.1 2.77c.03.43-.4.65-.86.72l-8.32 1.26c-.6.2-1.5.14-1.82-.54l-2.05-3.8c-.02-2.47.06-2.94.88-3.07-.3.08-.33.3-.23.6l1.67 3.34c.2.57.9.83 1.43.7l8.8-1.44c.33-.12.67-.2.6-.57z" color="#000" stroke-linejoin="bevel" overflow="visible" enable-background="accumulate"/><path fill="#eeeeec" fill-opacity=".304" d="M3.86 11.4l-.1 2.92c.46.7 1.05.73 1.67.55l.2-2.63c-.62.23-1.38.02-1.77-.83z" color="#000" overflow="visible" enable-background="accumulate"/><path fill="none" stroke="#e9b96e" stroke-width=".25" d="M13.4 1.93L12.37.56c-.1-.14-.42-.2-.64-.18l-7.6.4C3.6.74 2.7 1.26 2.5 1.9L1.35 4.77c-.12.2-.23.76-.04.95l.8 1.6 2.05-4.1c.22-.37.68-.7 1.13-.74l7.2-.6c.23-.02.66-.05.93.05z" stroke-linejoin="bevel"/><path fill="none" stroke="#e9b96e" stroke-width=".25" d="M14.7 10.57l-.13 2.28c.02.4-.5.6-.92.68l-8.18 1.3c-.37.08-1.3.1-1.6-.44l-2.03-3.86c-.03-2.38.24-2.5.27-2.73-.22.34.17.63.26.8l1.54 3.07c.2.48.95.85 1.45.72l8.74-1.44c.22-.02.56-.1.6-.4z" color="#000" stroke-linejoin="bevel" overflow="visible" enable-background="accumulate"/><path fill="#eeeeec" stroke="#555753" stroke-width=".5" d="M7.1 12.62c.6-.27 1.23-.4 1.9-.35l.02 1.02-1.9.33z"/><path fill="#eeeeec" stroke="#555753" stroke-width=".5" d="M10.82 12.07c.6-.3 1.25-.36 1.9-.35v1.03l-1.9.33z"/><path fill="url(#u)" d="M7.52 13.13h1v1.38h-1z" color="#000" overflow="visible" enable-background="accumulate"/><path fill="url(#v)" d="M11.25 12.53h1v1.38h-1z" color="#000" overflow="visible" enable-background="accumulate"/><path fill="url(#w)" stroke="#603c01" stroke-width=".5" d="M7.6 13.1l.98 2.45c2 .54 3.54.06 4.67-1.02l-1.02-2.18c-.3-.1-.6-.17-.9.23l.42.9c.15.3.2.64.05.78-.32.34-1.58.56-2.26.37-.14-.04-.37-.27-.47-.5L8.5 12.9c-.27-.2-.6-.03-.9.2z"/><path fill="#eddfc0" d="M7.68 13.13l.93 2.32 1.02.18c-.73-.3-1.1-1.34-1.62-2.7z"/><path fill="#e8d7af" d="M11.44 12.6c.36.76.46 1.24.5 1.52.06.5-1.5.68-1.98.65 1.12.52 2.4-.06 2.5-.48.08-.4-.37-1.4-.67-1.95-.2.03-.32.1-.36.25z" color="#000" overflow="visible" enable-background="accumulate"/></g></svg>