<svg xmlns="http://www.w3.org/2000/svg" width="16" height="16" xmlns:xlink="http://www.w3.org/1999/xlink"><defs><linearGradient id="d"><stop offset="0" stop-color="#82aad5"/><stop offset="1" stop-color="#5088c4"/></linearGradient><linearGradient id="c"><stop offset="0" stop-color="#eeeeec" stop-opacity=".753"/><stop offset="1" stop-color="#eeeeec" stop-opacity="0"/></linearGradient><linearGradient id="b"><stop offset="0" stop-color="#3465a4"/><stop offset="1" stop-color="#3465a4" stop-opacity="0"/></linearGradient><linearGradient id="a"><stop offset="0" stop-color="#eeeeec"/><stop offset="1" stop-color="#babdb6"/></linearGradient><linearGradient id="e" x1=".008" x2="37.516" y1="24.386" y2="24.386" xlink:href="#a" gradientUnits="userSpaceOnUse" gradientTransform="matrix(.371 0 0 .332 1.446 31.999)"/><radialGradient cx="27.005" cy="37.774" r="5.591" xlink:href="#b" fx="27.005" fy="37.774" gradientTransform="matrix(1.746 .268 .169 1.219 -26.715 -16.427)" gradientUnits="userSpaceOnUse"/><radialGradient cx="21.492" cy="27.238" r="4.032" xlink:href="#c" fx="21.492" fy="27.238" gradientTransform="matrix(1 0 0 .63 0 10.08)" gradientUnits="userSpaceOnUse"/><linearGradient id="f" x1="12.611" x2="30.246" y1="18.413" y2="32.571" xlink:href="#d" gradientUnits="userSpaceOnUse" gradientTransform="matrix(.452 0 0 .43 -.292 29.453)"/></defs><g stroke-width=".332"><path fill="url(#e)" fill-rule="evenodd" stroke="#000" d="M1.63 34.76c5.9.33 10.47-.8 13.56-2.47l-.06 12.52c-3.33 2.3-8.56 3.14-13.48 3.08l-.03-13.14z" transform="translate(0 -32)"/><path fill="none" stroke="#555753" d="M9.32 2.38v12.7"/><path fill="none" stroke="#555753" d="M1.68 9.5c5.52.6 11.34-.9 13.5-2.82"/><path fill="url(#f)" fill-rule="evenodd" stroke="#204a87" d="M5.26 37.13c3.6.2 6.37-.5 8.24-1.6l-.03 8.14c-2.02 1.5-5.2 2.05-8.2 2v-8.54z" transform="translate(0 -32)"/><path fill="none" stroke="#2a62b4" d="M7.67 5.2C7.7 7.95 8.97 8.88 9 10.1c.02 1.17-1.3 2.34-1.3 3.44"/><path fill="none" stroke="#2a62b4" d="M11.62 4.4c-.3 1.6.43 3.95.43 3.95" color="#000" overflow="visible"/><path fill="none" stroke="#2a62b4" d="M5.36 7.5c2.85-.7 4.14-.13 5.55-.43 1.4-.3 1.18-1.34 2.65-1.64"/><path fill="none" stroke="#2a62b4" d="M5.4 10.24c2.42-.93 2.65.62 5.92.08 2.1-.34.12-1.7 2.27-2.16"/><path fill="none" stroke="#2a62b4" d="M5.32 12.24c2.4-.92 3.34.65 5.6.4 1.7-.16 1.78-1.84 2.38-2"/></g></svg>