<svg xmlns="http://www.w3.org/2000/svg" width="16" height="16" xmlns:xlink="http://www.w3.org/1999/xlink"><defs><linearGradient id="a"><stop offset="0" stop-color="#2e3436"/><stop offset="1" stop-color="#2e3436" stop-opacity="0"/></linearGradient><radialGradient cx="24.032" cy="39.524" r="23.841" xlink:href="#a" fx="24.032" fy="39.524" gradientTransform="matrix(1 0 0 .345 0 25.893)" gradientUnits="userSpaceOnUse"/></defs><g stroke-width=".5" stroke-linejoin="bevel"><path fill="#c4a000" stroke="#7c6500" d="M6.23 3.8l.25 3.98L8.6.65z"/><path fill="#e8da63" stroke="#7c6500" d="M8.58.65l3.9 5.07L6.52 7.8z" color="#000" overflow="visible" enable-background="accumulate"/><path fill="#adbdc6" stroke="#5c7281" d="M10.1 2.6l1.7-.52.7 3.66z" color="#000" overflow="visible" enable-background="accumulate"/><path fill="#e8da63" stroke="#7c6500" d="M12.5 5.72l3.46 4.58-5.57 2.16z" color="#000" overflow="visible" enable-background="accumulate"/><path fill="#adbdc6" stroke="#5c7281" d="M6.5 7.82l6-2.08.9 4.32z" color="#000" overflow="visible" enable-background="accumulate"/><path fill="#475563" stroke="#5c7281" d="M6.5 7.82l3.88 4.57 3-2.34z" color="#000" overflow="visible" enable-background="accumulate"/><path fill="#475563" stroke="#5c7281" d="M8.05 14.34l-1.1-1.2 3.46-.7z" color="#000" overflow="visible" enable-background="accumulate"/><path fill="#c4a000" stroke="#7c6500" d="M4.32 10.3L6.5 7.8l-2.15 7.13z" color="#000" overflow="visible" enable-background="accumulate"/><path fill="#475563" stroke="#5c7281" d="M6.53 7.8l-2.18 2.47L.18 5.72z" color="#000" overflow="visible" enable-background="accumulate"/><path fill="#adbdc6" stroke="#5c7281" d="M.24 5.77l6-1.94.24 4.04z" color="#000" overflow="visible" enable-background="accumulate"/><path fill="#e8da63" stroke="#7c6500" d="M6.5 7.8l-2.18 7.1 6.17-2.46z" color="#000" overflow="visible" enable-background="accumulate"/></g></svg>