<svg xmlns="http://www.w3.org/2000/svg" width="16" height="16" xmlns:xlink="http://www.w3.org/1999/xlink"><defs><linearGradient id="e"><stop offset="0" stop-color="#fff"/><stop offset="1" stop-color="#c0d4d9"/></linearGradient><linearGradient id="d"><stop offset="0" stop-color="#fff"/><stop offset="1" stop-color="#fff" stop-opacity="0"/></linearGradient><radialGradient id="c" cx="264.957" cy="80.291" r="53.348" fx="264.957" fy="80.291" gradientUnits="userSpaceOnUse"><stop offset="0" stop-color="#BAD1D7"/><stop offset="1" stop-color="#8794A0"/></radialGradient><radialGradient id="b" cx="294.624" cy="80.627" r="48.777" gradientUnits="userSpaceOnUse" fy="80.627" fx="294.624"><stop offset="0" stop-color="#BAD1D7"/><stop offset=".185" stop-color="#cbd9dd"/><stop offset=".265" stop-color="#dce1e4"/><stop offset=".826" stop-color="#6D7580"/><stop offset="1" stop-color="#41454C"/></radialGradient><radialGradient cx="294.624" cy="80.627" r="48.777" fx="294.624" fy="80.627" gradientUnits="userSpaceOnUse"><stop offset="0" stop-color="#BAD1D7"/><stop offset=".185" stop-color="#cbd9dd"/><stop offset=".265" stop-color="#dce1e4"/><stop offset=".826" stop-color="#6D7580"/><stop offset="1" stop-color="#41454C"/></radialGradient><linearGradient id="a"><stop offset="0" stop-opacity=".633"/><stop offset="1" stop-opacity="0"/></linearGradient><linearGradient x1="25.715" x2="35.237" y1="39.458" y2="47.083" xlink:href="#a" gradientUnits="userSpaceOnUse" gradientTransform="translate(5.36 -1.643)"/><radialGradient cx="96.07" cy="217.459" r="30.602" fx="96.07" fy="217.459" gradientTransform="matrix(1 0 0 .847 0 28.519)" gradientUnits="userSpaceOnUse"><stop offset="0" stop-color="#fff"/><stop offset=".066" stop-color="#F4F7FA"/><stop offset=".182" stop-color="#D7E1EC"/><stop offset=".335" stop-color="#A7BDD7"/><stop offset=".516" stop-color="#668DB9"/><stop offset=".652" stop-color="#3065A0"/><stop offset=".916" stop-color="#1A3A6B"/></radialGradient><radialGradient cx="-38.266" cy="214.142" r="20.102" fx="-38.266" fy="214.142" gradientTransform="matrix(-1 0 0 1 55.653 0)" gradientUnits="userSpaceOnUse"><stop offset="0" stop-color="#fff"/><stop offset="1" stop-color="#3065A0"/></radialGradient><radialGradient cx="-37.291" cy="214.005" r="19.446" gradientUnits="userSpaceOnUse" gradientTransform="matrix(-1 0 0 .847 55.653 28.519)" fy="214.005" fx="-37.291"><stop offset="0" stop-color="#fff"/><stop offset="1" stop-color="#224987"/></radialGradient><linearGradient x1="-100.206" x2="-83.826" y1="222.647" y2="222.647" gradientTransform="translate(191.69)" gradientUnits="userSpaceOnUse"><stop offset=".028" stop-color="#84A8C9"/><stop offset=".108" stop-color="#88ABCB"/><stop offset=".191" stop-color="#95B5CE"/><stop offset=".253" stop-color="#A3C0D3"/><stop offset=".294" stop-color="#9CBBD0"/><stop offset=".355" stop-color="#88ACCA"/><stop offset=".427" stop-color="#6A94BE"/><stop offset=".508" stop-color="#4177AF"/><stop offset=".511" stop-color="#3F76AF"/><stop offset=".736" stop-color="#224987"/><stop offset=".829" stop-color="#244D8A"/><stop offset=".924" stop-color="#2A5794"/><stop offset="1" stop-color="#3065A0"/></linearGradient><linearGradient id="f" x1="10.343" x2="37.468" y1="25.075" y2="25.075" xlink:href="#b" gradientUnits="userSpaceOnUse" gradientTransform="matrix(.345 0 0 .354 -.384 32.1)"/><linearGradient id="g" x1="13.581" x2="25.942" y1="5.055" y2="10.712" xlink:href="#c" gradientUnits="userSpaceOnUse" gradientTransform="matrix(.345 0 0 .354 -.384 32.1)"/><linearGradient id="h" x1="99.669" x2="99.145" y1="214.562" y2="239.751" xlink:href="#d" gradientUnits="userSpaceOnUse"/><linearGradient id="i" x1="99.669" x2="99.145" y1="214.562" y2="239.751" xlink:href="#d" gradientUnits="userSpaceOnUse"/><linearGradient id="j" x1="99.678" x2="99.678" y1="207.766" y2="215.915" xlink:href="#e" gradientUnits="userSpaceOnUse"/><linearGradient id="k" x1="99.678" x2="99.678" y1="207.766" y2="215.915" xlink:href="#e" gradientUnits="userSpaceOnUse"/></defs><g><path fill="url(#f)" d="M12.54 34.22v10.2c0 .86-.45 1.7-1.36 2.36-1.83 1.3-4.8 1.3-6.62 0-.92-.65-1.37-1.32-1.37-2.18V34.22" color="#000" overflow="visible" transform="translate(0 -32)"/><path fill="url(#g)" d="M4.56 32.98c-1.83.92-1.83 2.4 0 3.33 1.82.92 4.78.92 6.6 0 1.84-.9 1.84-2.4 0-3.32-1.82-.92-4.78-.92-6.6 0z" color="#000" overflow="visible" transform="translate(0 -32)"/><g fill="url(#h)" transform="matrix(.601 0 0 .598 -52.056 -124.144)"><radialGradient cx="-38.266" cy="214.142" r="20.102" gradientUnits="userSpaceOnUse" gradientTransform="matrix(-1 0 0 1 55.653 0)" fy="214.142" fx="-38.266"><stop fill="url(#h)" offset="0" stop-color="#fff"/><stop fill="url(#h)" offset="1" stop-color="#3065A0"/></radialGradient><path fill="url(#i)" d="M107.38 212.34v16.07c0 1.4-.78 2.7-2.2 3.68-3.05 2.1-7.98 2.1-11.02 0-1.43-1-2.2-2-2.2-3.37v-16.28l.87.46v15.83c0 1.16.47 1.77 1.72 2.63 2.82 1.96 7.4 1.96 10.24 0 1.23-.86 1.7-1.77 1.7-2.92v-15.55l.88-.5z"/></g><g fill="url(#j)" transform="matrix(.571 0 0 .587 -49.063 -121.512)"><radialGradient cx="96.07" cy="217.459" r="30.602" gradientUnits="userSpaceOnUse" gradientTransform="matrix(1 0 0 .847 0 28.519)" fy="217.459" fx="96.07"><stop fill="url(#j)" offset="0" stop-color="#fff"/><stop fill="url(#j)" offset=".066" stop-color="#F4F7FA"/><stop fill="url(#j)" offset=".182" stop-color="#D7E1EC"/><stop fill="url(#j)" offset=".335" stop-color="#A7BDD7"/><stop fill="url(#j)" offset=".516" stop-color="#668DB9"/><stop fill="url(#j)" offset=".652" stop-color="#3065A0"/><stop fill="url(#j)" offset=".916" stop-color="#1A3A6B"/></radialGradient><path fill="url(#k)" d="M93.98 208.92c-1.58.77-2.44 1.8-2.44 2.92 0 1.1.86 2.15 2.44 2.92 3.14 1.54 8.26 1.54 11.4 0 1.57-.77 2.44-1.8 2.44-2.92 0-1.1-.87-2.15-2.44-2.92-3.14-1.54-8.26-1.54-11.4 0zm.6 5.3c-1.3-.65-2.03-1.5-2.03-2.38 0-.89.72-1.73 2.03-2.37 2.8-1.37 7.38-1.37 10.2 0 1.3.64 2.03 1.5 2.03 2.37 0 .89-.7 1.73-2.02 2.37-2.8 1.38-7.4 1.38-10.2 0zm-.6-5.3z"/></g><path fill="none" stroke="#003745" stroke-width=".5" d="M12.54 2.65c0-.6-.45-1.2-1.37-1.67-1.83-.92-4.8-.92-6.6 0-.93.46-1.38 1.06-1.38 1.66"/><path fill="none" stroke="#003745" stroke-width=".5" d="M3.18 2.64v9.96c0 .86.46 1.53 1.37 2.18 1.83 1.3 4.8 1.3 6.62 0 .9-.65 1.37-1.5 1.37-2.35v-9.8"/></g></svg>