<svg xmlns="http://www.w3.org/2000/svg" width="16" height="16" xmlns:xlink="http://www.w3.org/1999/xlink" viewBox="0 0 20.417 22.542" overflow="visible" enable-background="new 0 0 20.417 22.542" version="1"><defs><linearGradient id="b"><stop offset="0" stop-color="#ddddd8"/><stop offset="1" stop-color="#fff"/></linearGradient><linearGradient x1=".584" x2="17.75" y1="2.542" y2="2.542" gradientUnits="userSpaceOnUse" gradientTransform="matrix(1.198 0 0 .665 -.737 .812)"><stop offset="0" stop-color="#D3D7CF"/><stop offset="1" stop-color="#888A85"/></linearGradient><linearGradient id="a" x1="11.668" x2="14.418" y1="10.009" y2="17.051" gradientUnits="userSpaceOnUse"><stop offset="0" stop-color="#888A85"/><stop offset="1"/></linearGradient><linearGradient x1="11.668" x2="14.418" y1="10.009" y2="17.051" xlink:href="#a" gradientUnits="userSpaceOnUse"/><linearGradient x1="21.016" x2="21.016" y1="18.442" y2="32.728" xlink:href="#b" gradientUnits="userSpaceOnUse" gradientTransform="matrix(.368 0 0 .54 10.13 -8.917)"/><linearGradient id="c" x1="21.016" x2="21.016" y1="18.442" y2="32.728" xlink:href="#b" gradientUnits="userSpaceOnUse" gradientTransform="matrix(.441 0 0 .683 .874 -5.613)"/></defs><rect width="21.133" height="21.133" x="-.358" y=".704" fill="none" ry="0"/><path fill="url(#c)" fill-rule="evenodd" d="M2.08 11.12c6.85-9.36 12.83-4.07 16.1 1.4-3.37 9.4-13.56 5.58-16.1-1.4z"/><path fill="#fff" fill-opacity=".75" fill-rule="evenodd" d="M2.2 11.5c4.76.82 10.05 1.36 14.72.53C12 7.7 5.14 9.1 2.2 11.5z"/><path d="M13.5 12a3.37 3.57 0 1 1-6.74 0 3.37 3.57 0 1 1 6.75 0z" overflow="visible"/><path fill="#eeeeec" fill-opacity=".716" fill-rule="evenodd" d="M10.05 10.6s-.45-.93-.65-1.35c-.66.24-1.72 1-1.9 1.45.32.4.77.85 1 1.16.5-.66.94-1.05 1.55-1.27z"/><path fill="#2e3436" fill-rule="evenodd" d="M1.76 11.46c6.53-4.7 11.6-4.2 15.6 1l1.25-1.03c-2.65-4.23-4.4-5.8-8.8-5.8-4.38 0-8.06 5.97-8.04 5.83z"/><path fill="#babdb6" fill-rule="evenodd" d="M1.97 11.38c5.82 6.7 10.07 6.14 15.06 1.7l1.63 1.6c-7.13 6.14-12.95 4.13-16.7-3.3z"/></svg>