<svg xmlns="http://www.w3.org/2000/svg" width="16" height="16"><g><path fill="none" stroke="#204a87" d="M7.48 2.46v12.1"/><path fill="none" stroke="#204a87" d="M2.5 5.5l10 6"/><path fill="none" stroke="#204a87" d="M12.5 5.5l-10 6"/><path fill="#729fcf" fill-rule="evenodd" d="M9 8.5a1.5 1.5 0 1 1-3 0 1.5 1.5 0 1 1 3 0z" color="#000" overflow="visible"/><path fill="#729fcf" fill-rule="evenodd" d="M2.48 4L1 5.5 2.48 7 4 5.5 2.48 4z"/><path fill="#729fcf" fill-rule="evenodd" d="M7.48 1L6 2.5 7.48 4 9 2.5 7.48 1z"/><path fill="#729fcf" fill-rule="evenodd" d="M12.48 4L11 5.5 12.48 7 14 5.5 12.48 4z"/><path fill="#729fcf" fill-rule="evenodd" d="M12.48 10L11 11.5l1.48 1.5L14 11.5 12.48 10z"/><path fill="#729fcf" fill-rule="evenodd" d="M7.48 13L6 14.5 7.48 16 9 14.5 7.48 13z"/><path fill="#729fcf" fill-rule="evenodd" d="M2.48 10L1 11.5 2.48 13 4 11.5 2.48 10z"/></g></svg>