<svg xmlns="http://www.w3.org/2000/svg" width="16" height="16" xmlns:xlink="http://www.w3.org/1999/xlink"><defs><linearGradient id="a"><stop offset="0" stop-color="#fff"/><stop offset="1" stop-color="#8e8e8e"/></linearGradient><linearGradient><stop offset="0" stop-color="#c8daed"/><stop offset="1" stop-color="#4a84c2"/></linearGradient><radialGradient cx="3.299" cy="3.416" r="2.751" xlink:href="#a" gradientUnits="userSpaceOnUse" fx="3.299" fy="3.416"/><radialGradient cx="3.123" cy="3.236" r="2.76" xlink:href="#b" fx="3.123" fy="3.236" gradientUnits="userSpaceOnUse"/><linearGradient id="b"><stop offset="0" stop-color="#fff"/><stop offset=".395" stop-color="#fff"/><stop offset="1" stop-color="#939386"/></linearGradient><radialGradient id="c" cx="3.123" cy="3.236" r="2.76" fy="3.236" fx="3.123" gradientUnits="userSpaceOnUse" xlink:href="#b"/></defs><g><path fill="url(#c)" fill-rule="evenodd" stroke="#2e3436" stroke-width=".777" d="M6.25 3.9a2.36 2.36 0 1 1-4.72 0 2.36 2.36 0 1 1 4.72 0z" transform="matrix(1.286 0 0 1.287 -.467 6.46)" color="#000" stroke-linecap="round" overflow="visible"/><path fill="#2e3436" fill-opacity=".678" d="M5.75 1l-.07.92c-.02 0 0 0-.03 0-.16.03-.3 0-.46 0H4.05V5.3H5.5v1.3H4.07V10.04H15.96V6.54h-1.12c.17-.25.4-.48.52-.74.24-.5.36-1.07.36-1.62 0-.86-.3-1.74-.92-2.33-.63-.6-1.5-.8-2.42-.8-.45 0-.9.06-1.34.17-.4.1-.74.2-1.06.35l-.56.28V1H5.74zm6.1 3.6c0 .03-.02.04-.04.07-.06.14-.22.38-.48.67-.2.24-.45.47-.74.74-.17.17-.37.35-.56.53H9.42V5.18H10.97l.32-.2c.03-.05.1-.12.2-.2.03 0 .08-.05.17-.1.07-.03.13-.05.18-.07z" style="text-align:start;line-height:125%" font-size="10" font-weight="bold" color="#000" overflow="visible" enable-background="accumulate" font-family="Tahoma"/><path fill="#eeeeec" d="M9.82 8.76H5.4V7.6h1.4V4.1H5.4V3.04c.2 0 .4-.02.6-.04.22-.04.38-.08.5-.14.15-.07.26-.17.34-.3.08-.1.12-.26.14-.43h1.46V7.6h1.38v1.16z" style="text-align:start;line-height:125%" font-size="10" font-weight="bold" font-family="Tahoma"/><path fill="#eeeeec" d="M14.88 8.76h-4.42V7.7c.37-.32.7-.62 1-.9.3-.3.57-.56.8-.82.3-.33.5-.62.63-.88.12-.25.2-.5.2-.78 0-.3-.1-.53-.26-.7-.17-.15-.4-.23-.7-.23-.15 0-.3 0-.43.05-.13.04-.27.1-.4.16-.14.07-.26.14-.36.2-.1.08-.17.13-.22.17h-.1V2.55c.16-.1.42-.17.78-.27.36-.1.7-.13 1.04-.13.72 0 1.26.17 1.63.5.36.35.55.84.55 1.46 0 .4-.1.76-.25 1.13-.17.37-.45.76-.83 1.18-.25.27-.48.5-.7.7-.24.2-.4.35-.5.43h2.54v1.23z" style="text-align:start;line-height:125%" font-size="10" font-weight="bold" font-family="Tahoma"/></g></svg>