<svg xmlns="http://www.w3.org/2000/svg" width="16" height="16" xmlns:xlink="http://www.w3.org/1999/xlink"><defs><linearGradient id="d"><stop offset="0" stop-color="#eeeeec"/><stop offset="1" stop-color="#eeeeec" stop-opacity="0"/></linearGradient><linearGradient id="c"><stop offset="0" stop-color="#2e3436" stop-opacity=".676"/><stop offset="1" stop-color="#2e3436" stop-opacity="0"/></linearGradient><linearGradient id="b"><stop offset="0" stop-color="#2e3436" stop-opacity=".753"/><stop offset="1" stop-color="#2e3436" stop-opacity="0"/></linearGradient><linearGradient id="a"><stop offset="0" stop-color="#d3d7cf"/><stop offset="1" stop-color="#d3d7cf" stop-opacity="0"/></linearGradient><linearGradient><stop offset="0" stop-color="#fff"/><stop offset="1" stop-color="#8e8e8e"/></linearGradient><linearGradient x1="6.532" x2="2.969" y1="10.144" y2="15.64" xlink:href="#a" gradientUnits="userSpaceOnUse" gradientTransform="translate(-1.081 .721)"/><linearGradient x1="7.339" x2="4.419" y1="10.211" y2="15.122" xlink:href="#b" gradientUnits="userSpaceOnUse" gradientTransform="translate(-1.081 .721)"/><linearGradient id="f" x1="7.942" x2=".963" y1="4.015" y2="12.679" xlink:href="#c" gradientUnits="userSpaceOnUse" gradientTransform="matrix(.827 0 0 .846 .974 1.826)"/><linearGradient id="g" x1="11.7" x2="4.212" y1="6.866" y2="15.339" xlink:href="#c" gradientUnits="userSpaceOnUse" gradientTransform="matrix(.827 0 0 .846 .974 1.826)"/><linearGradient id="h" x1="9.365" x2="2.039" y1="5.934" y2="14.184" xlink:href="#d" gradientUnits="userSpaceOnUse" gradientTransform="matrix(.827 0 0 .846 .974 1.826)"/><radialGradient cx="3.123" cy="3.236" r="2.76" xlink:href="#e" fx="3.123" fy="3.236" gradientUnits="userSpaceOnUse"/><linearGradient id="e"><stop offset="0" stop-color="#fff"/><stop offset=".395" stop-color="#fff"/><stop offset="1" stop-color="#939386"/></linearGradient><radialGradient id="i" cx="3.123" cy="3.236" r="2.76" fy="3.236" fx="3.123" gradientUnits="userSpaceOnUse" xlink:href="#e"/></defs><g><path fill="none" stroke="url(#f)" d="M8.52 3.87l-6.55 9.45"/><path fill="none" stroke="url(#g)" d="M11.87 6.3L3.2 14.8"/><path fill="url(#h)" d="M8.82 4.18l2.64 1.97-8.43 8.03-.7-.57z"/><path fill="url(#i)" fill-rule="evenodd" stroke="#2e3436" stroke-width=".938" d="M6.25 3.9a2.36 2.36 0 1 1-4.72 0 2.36 2.36 0 1 1 4.72 0z" transform="matrix(1.066 0 0 1.066 6.782 -.149)" color="#000" stroke-linecap="round" overflow="visible"/></g></svg>