<svg xmlns="http://www.w3.org/2000/svg" width="22" height="22"><g font-size="14" font-weight="bold" letter-spacing="0" word-spacing="0" font-family="Calibri"><g fill="#d3d7cf" stroke="#eeeeec" stroke-width="2"><path d="M8.12 15.25q0 .2-.03.36-.03.16-.07.25-.04.08-.1.12-.05.04-.12.04H2.4q-.06 0-.1-.03-.07-.04-.1-.12-.05-.1-.07-.24-.02-.14-.02-.35 0-.22.02-.37t.06-.24q.05-.1.1-.13.05-.04.12-.04H4.2v-6.4l-1.57.87q-.17.08-.3.1-.1.02-.16-.04-.06-.08-.1-.24 0-.16 0-.45 0-.17 0-.28 0-.12.04-.2.04-.1.1-.14.04-.06.13-.12L4.45 6.2q.04-.04.1-.05.05-.03.14-.03.08-.02.23-.02.15 0 .4 0 .28 0 .45 0 .18.02.28.04.1.02.12.07.03.06.03.13v8.13h1.6q.08 0 .14.05.06.04.1.14.04.1.05.24.02.14.02.36z" style="text-align:start;line-height:100%;-inkscape-font-specification:Calibri Bold"/><path d="M12.06 14.9q0 .72-.25.96-.24.25-.87.25-.64 0-.9-.23-.23-.24-.23-.9 0-.73.24-.97.25-.24.9-.24.63 0 .88.24.24.23.24.9z" style="text-align:start;line-height:100%;-inkscape-font-specification:Calibri Bold"/><path d="M20.3 15.2q0 .2-.03.37-.02.16-.05.26-.04.1-.1.14-.06.04-.14.04h-5.66q-.17 0-.3-.02-.1-.03-.2-.12-.06-.1-.1-.26-.03-.16-.03-.43 0-.25 0-.42.03-.2.1-.32.06-.15.15-.28.1-.14.25-.3l1.7-1.82q.5-.53.82-.97.32-.44.5-.8.17-.36.23-.67.07-.3.07-.58 0-.26-.1-.48-.06-.22-.22-.4-.16-.16-.4-.25-.23-.1-.55-.1-.45 0-.8.1-.34.12-.6.26-.26.14-.44.26-.16.12-.26.12-.07 0-.13-.05-.03-.06-.06-.16t-.05-.28q-.03-.2-.03-.45 0-.16 0-.27.02-.13.05-.2.02-.1.06-.16.03-.07.13-.16.1-.08.36-.22.25-.14.63-.27.36-.13.8-.22.46-.1.95-.1.76 0 1.33.2.58.2.96.54.38.35.57.83.2.47.2 1.02 0 .48-.1.94-.1.47-.38 1-.28.55-.8 1.2-.53.65-1.4 1.5l-1.15 1.2h3.88q.08 0 .14.03.06.05.1.15.05.1.07.25.02.15.02.36z" style="text-align:start;line-height:100%;-inkscape-font-specification:Calibri Bold"/></g><g><path d="M8.12 15.25q0 .2-.03.36-.03.16-.07.25-.04.08-.1.12-.05.04-.12.04H2.4q-.06 0-.1-.03-.07-.04-.1-.12-.05-.1-.07-.24-.02-.14-.02-.35 0-.22.02-.37t.06-.24q.05-.1.1-.13.05-.04.12-.04H4.2v-6.4l-1.57.87q-.17.08-.3.1-.1.02-.16-.04-.06-.08-.1-.24 0-.16 0-.45 0-.17 0-.28 0-.12.04-.2.04-.1.1-.14.04-.06.13-.12L4.45 6.2q.04-.04.1-.05.05-.03.14-.03.08-.02.23-.02.15 0 .4 0 .28 0 .45 0 .18.02.28.04.1.02.12.07.03.06.03.13v8.13h1.6q.08 0 .14.05.06.04.1.14.04.1.05.24.02.14.02.36z" style="text-align:start;line-height:100%;-inkscape-font-specification:Calibri Bold"/><path d="M12.06 14.9q0 .72-.25.96-.24.25-.87.25-.64 0-.9-.23-.23-.24-.23-.9 0-.73.24-.97.25-.24.9-.24.63 0 .88.24.24.23.24.9z" style="text-align:start;line-height:100%;-inkscape-font-specification:Calibri Bold"/><path d="M20.3 15.2q0 .2-.03.37-.02.16-.05.26-.04.1-.1.14-.06.04-.14.04h-5.66q-.17 0-.3-.02-.1-.03-.2-.12-.06-.1-.1-.26-.03-.16-.03-.43 0-.25 0-.42.03-.2.1-.32.06-.15.15-.28.1-.14.25-.3l1.7-1.82q.5-.53.82-.97.32-.44.5-.8.17-.36.23-.67.07-.3.07-.58 0-.26-.1-.48-.06-.22-.22-.4-.16-.16-.4-.25-.23-.1-.55-.1-.45 0-.8.1-.34.12-.6.26-.26.14-.44.26-.16.12-.26.12-.07 0-.13-.05-.03-.06-.06-.16t-.05-.28q-.03-.2-.03-.45 0-.16 0-.27.02-.13.05-.2.02-.1.06-.16.03-.07.13-.16.1-.08.36-.22.25-.14.63-.27.36-.13.8-.22.46-.1.95-.1.76 0 1.33.2.58.2.96.54.38.35.57.83.2.47.2 1.02 0 .48-.1.94-.1.47-.38 1-.28.55-.8 1.2-.53.65-1.4 1.5l-1.15 1.2h3.88q.08 0 .14.03.06.05.1.15.05.1.07.25.02.15.02.36z" style="text-align:start;line-height:100%;-inkscape-font-specification:Calibri Bold"/></g></g></svg>