<svg xmlns="http://www.w3.org/2000/svg" width="16" height="16"><g><path fill="none" stroke="#2e3436" stroke-opacity=".502" stroke-width="3" d="M1.56 14.7V1.56H14.5" stroke-linejoin="round"/><path fill="none" stroke="#2e3436" stroke-width="3" d="M1.62 14.56C1.64 9.5 9.57 1.6 14.42 1.52" stroke-linecap="round"/><path fill="none" stroke="#888a85" d="M1.62 14.56C1.64 9.5 9.57 1.6 14.42 1.52"/><path fill="none" stroke="#d3d7cf" d="M1.56 14.7V1.56H14.5"/><path fill="#d3d7cf" d="M2.92 1.64a1.25 1.25 0 1 1-2.5 0 1.25 1.25 0 1 1 2.5 0z" color="#000" overflow="visible"/><path fill="#eeeeec" d="M2.8 14.45a1.12 1.12 0 1 1-2.25 0 1.12 1.12 0 1 1 2.24 0z" color="#000" overflow="visible"/><path fill="#eeeeec" d="M15.5 1.56a1.15 1.15 0 1 1-2.3 0 1.15 1.15 0 1 1 2.3 0z" color="#000" overflow="visible"/></g></svg>