<svg xmlns="http://www.w3.org/2000/svg" width="16" height="16" xmlns:xlink="http://www.w3.org/1999/xlink" version="1"><defs><linearGradient id="c"><stop offset="0" stop-color="#eeeeec"/><stop offset="1" stop-color="#b3b3aa"/></linearGradient><linearGradient id="b"><stop offset="0" stop-color="#717171"/><stop offset="1"/></linearGradient><linearGradient id="a"><stop offset="0" stop-color="#eeecec" stop-opacity=".602"/><stop offset="1" stop-color="#eeeeec" stop-opacity="0"/></linearGradient><linearGradient x1="4.174" x2="4.219" y1="10.42" y2="13.679" xlink:href="#a" gradientUnits="userSpaceOnUse" gradientTransform="matrix(1 0 0 .946 0 -1.359)"/><linearGradient x1="4.174" x2="4.219" y1="10.42" y2="13.679" xlink:href="#a" gradientUnits="userSpaceOnUse" gradientTransform="matrix(1 0 0 .926 7.232 -1.104)"/><radialGradient id="h" cx="5.93" cy="7.731" r="3.005" xlink:href="#b" fx="5.93" fy="7.731" gradientTransform="matrix(1.302 .667 -.506 .989 2.098 -4.304)" gradientUnits="userSpaceOnUse"/><radialGradient id="g" cx="1.138" cy="7.136" r="1.487" xlink:href="#b" fx="1.138" fy="7.136" gradientTransform="matrix(1.399 .641 -.797 1.742 5.943 -9.513)" gradientUnits="userSpaceOnUse"/><linearGradient id="f" x1="9" x2="15.971" y1="7.149" y2="6.837" xlink:href="#c" gradientUnits="userSpaceOnUse"/><linearGradient id="e" x1="4.424" x2="11.463" y1="4.538" y2="5.274" xlink:href="#d" gradientUnits="userSpaceOnUse"/><linearGradient id="d"><stop offset="0" stop-color="#eeeeec"/><stop offset="1" stop-color="#b3b3aa"/></linearGradient><linearGradient x1="9" x2="15.971" y1="7.149" y2="6.837" gradientTransform="translate(-.027 -.993)" gradientUnits="userSpaceOnUse" xlink:href="#d"/></defs><g fill-rule="evenodd"><path fill="url(#e)" stroke="#2e3436" stroke-width=".5" d="M1.95 1.3s2.8.6 5.17 1.8C9.5 4.25 11.1 5.85 11.1 5.85l.22.67-.5.73S9.16 5.04 7.52 4.5c-1.6-.55-3.7.08-3.7.08L1.96 1.3z" color="#000" stroke-linejoin="bevel" overflow="visible" enable-background="accumulate"/><path fill="url(#f)" stroke="#2e3436" stroke-width=".5" d="M1.8 1.25c.3-.07 1.1.8 1.42 1.33.48.8.86 2.04 1.5 2.47.8.53 1.88.4 3.42 1.42 1.44.94 1.9 1.68 2.98 2.22 1.76.85 3.05.66 4.26 1.13.36.15.4.83.3 1.05-.16.32-.5.73-.68.62-.24-.14-.15-.9-.74-.8-1.48.3-2.82.63-5.02 1.53-1.04.43-2.43.1-3.52-.37-.97-.42-1.67-1.4-1.82-2.35-.17-1.03.68-2.82.2-3.22-.5-.4-1.4 1.88-2.12 1.7C1.38 7.86.5 7.1.3 6.05c-.13-.77.2-2.08.6-3.28.2-.58.7-1.46.9-1.5z"/><path fill="url(#g)" d="M1.75 2.7c.27-.2.7.4 1 .98.23.46.66 1.07.56 1.5-.06.35-.72 1.5-1.04 1.6-.28.1-.63 0-.95-.47-.16-.24-.34-.94-.3-1.45.04-.5.4-1.92.75-2.16z" color="#000" overflow="visible" enable-background="accumulate"/><path fill="url(#h)" d="M5.07 7.05c-.03-.55.33-.68.67-.63.32.05 1.2.36 2.22 1.1 1.16.83 1.5 1.18 1.66 1.36.18.2.3.55.16.82-.23.45-.58 1.1-.96 1.4-.38.3-1.3.36-1.68.26-.45-.12-1.4-.6-1.73-.96-.25-.27-.52-.77-.55-1.27-.04-.63.18-2.1.22-2.08z" color="#000" overflow="visible" enable-background="accumulate"/></g></svg>