<svg xmlns="http://www.w3.org/2000/svg" width="16" height="16" xmlns:xlink="http://www.w3.org/1999/xlink"><defs><linearGradient id="a"><stop offset="0" stop-color="#637075"/><stop offset="1" stop-color="#2e3436"/></linearGradient><linearGradient id="b" x1="5.466" x2="11.285" y1="8.211" y2="11.755" xlink:href="#a" gradientUnits="userSpaceOnUse" gradientTransform="matrix(.999 .66 -.657 1.003 6.283 -7.863)"/></defs><g><path fill="#555753" fill-rule="evenodd" d="M.54 2l4.2 9.96 10.78-.06L10 3.94.54 2z"/><path fill="url(#b)" stroke="#2e3436" d="M.52 2.03l2.13 12.3 12.85-2.4-4.8-9.9z" stroke-linejoin="round"/><path fill="none" stroke="#9bd363" stroke-width=".75" d="M5.94 2.9l2.95 9.62"/><path fill="none" stroke="#9bd363" stroke-width=".75" d="M2.33 7.5l9.8-.73"/><path fill="none" stroke="#c5f595" stroke-width=".75" d="M1.32 2.73l1.93 10.84 11.3-2.1L10.3 2.7z" stroke-linejoin="round"/><path fill="none" stroke="#000" d="M3.5 4.85c1.46-.64 3.87-.15 5.1.96C9.8 6.94 10.15 8.5 9.93 9.58c-.2 1.08-1.5 1.78-2.66 1.67-1.3-.13-2.35-1.53-1.83-2.8" stroke-linecap="round"/><path fill="none" stroke="#fff" d="M3.73 4.44c1.46-.63 3.86-.14 5.1.97 1.2 1.12 1.56 2.68 1.34 3.76-.22 1.08-1.5 1.8-2.67 1.67-1.28-.13-2.35-1.52-1.82-2.8" stroke-linecap="round"/></g></svg>