<svg xmlns="http://www.w3.org/2000/svg" width="16" height="16"><g font-size="9.2" font-family="Tahoma"><path fill="#2e3436" fill-opacity=".678" d="M5.28 3.35V5.9c-.06-.05-.1-.12-.2-.17-.3-.22-.62-.4-1-.47-.33-.08-.7-.1-1.1-.1-.36 0-.7.03-1.04.1-.32.05-.57.13-.78.18l-.75.2v2.59h.16c-.05.06-.14.08-.2.15-.25.42-.36.92-.36 1.4 0 .35.05.7.2 1 .1.3.3.62.55.85.24.23.5.4.8.53.32.13.68.2 1 .2.32 0 .6-.02.9-.1 0 0 .03-.03.05-.03h4.12c.27.06.54.12.82.12.88 0 1.72-.4 2.28-1.1.04-.04.06-.1.1-.15.07.1.15.22.24.3.32.33.7.55 1.13.7.4.15.85.22 1.3.22.22 0 .4 0 .63-.03.15-.04.3-.1.46-.14.16-.04.3-.08.46-.15.13-.05.25-.1.35-.15l.6-.28V9h-1.44l-.28.26c-.1.1-.24.2-.4.28-.13.06-.26.06-.4.06-.24 0-.24 0-.32-.1-.08-.1-.16-.3-.16-.74 0-.45.1-.66.2-.75.08-.1.07-.12.27-.12.05 0 .13 0 .22.03.1.04.16.08.2.1h.04c.1.06.17.1.22.13.07.06.13.1.15.13l.3.22H16V5.9l-.56-.24c-.27-.13-.54-.25-.85-.34-.36-.1-.73-.16-1.1-.16-.46 0-.92.1-1.34.25-.43.18-.82.43-1.13.76-.04.05-.05.1-.1.16 0-.03-.03-.06-.05-.1-.5-.66-1.33-1.06-2.16-1.06-.2 0-.4.1-.6.13V3.34H5.3zM8.53 7.9c.04.07.16.34.16.83 0 .5-.15.75-.17.78-.06.1-.04.1-.25.1-.06 0-.1 0-.15 0V8.04c.02 0 .03-.02.06-.03.12-.05.22-.06.3-.06.05 0 .03-.02.03-.03z" style="text-align:start;line-height:125%"/><path fill="#eeeeec" d="M13.5 11.32c-.36 0-.68-.05-.98-.15-.3-.1-.54-.26-.75-.48-.2-.22-.37-.48-.5-.8-.1-.33-.16-.7-.16-1.14 0-.43.07-.8.2-1.12.1-.32.27-.58.47-.8.2-.2.45-.38.75-.5.3-.1.63-.17.97-.17.27 0 .54.04.8.12.26.06.5.15.7.25v.93h-.05c-.06-.05-.14-.1-.24-.17-.08-.05-.2-.12-.34-.2-.1-.05-.26-.1-.42-.14-.16-.05-.3-.07-.46-.07-.45 0-.8.15-1.08.48-.27.32-.4.78-.4 1.38 0 .58.13 1.03.4 1.36.25.32.6.5 1.08.5.28 0 .54-.07.8-.18.25-.1.47-.26.67-.43H15v.94c-.1.03-.2.08-.32.14-.13.05-.24.1-.35.12-.14.04-.28.07-.4.1-.1 0-.26.02-.44.02z" style="text-align:start;line-height:125%"/><path fill="#eeeeec" d="M4.2 10V8.63c-.2.02-.45.05-.76.08-.32.04-.57.08-.76.14-.23.06-.42.17-.57.3-.14.15-.2.34-.2.6 0 .27.07.5.23.63.17.15.4.22.73.22.27 0 .5-.07.73-.18.2-.12.42-.25.6-.42zm0 .7c-.06.04-.15.1-.27.2-.12.1-.23.16-.34.2-.16.1-.3.15-.45.2-.14.03-.34.05-.6.05-.2 0-.4-.04-.6-.1-.2-.1-.35-.2-.5-.34-.13-.12-.24-.3-.33-.5-.08-.18-.12-.4-.12-.6 0-.36.07-.65.22-.9.15-.23.4-.42.7-.56.3-.12.64-.2 1.03-.26.4-.05.8-.08 1.26-.1V7.8c0-.18-.02-.34-.08-.46s-.15-.2-.26-.27c-.1-.07-.24-.1-.4-.14-.16-.02-.32-.03-.5-.03-.2 0-.42.03-.7.1-.26.04-.52.13-.8.24h-.04V6.4c.15-.05.38-.1.68-.15.3-.06.6-.08.88-.08.35 0 .64.02.88.08.25.05.46.15.65.28.2.14.34.3.43.53.1.2.14.48.14.78v3.37H4.2v-.5z" style="text-align:start;line-height:125%"/><path fill="#eeeeec" d="M9.68 8.74c0-.6-.1-1.04-.28-1.34-.2-.3-.48-.46-.9-.46-.23 0-.47.05-.7.16-.25.1-.46.24-.66.4v2.82c.22.1.4.18.58.22.16.04.35.07.55.07.44 0 .78-.14 1.03-.44s.38-.78.38-1.42zm.9-.07c0 .8-.22 1.45-.62 1.94-.4.5-.92.75-1.53.75-.27 0-.5-.03-.7-.1-.2-.06-.4-.15-.6-.27l-.05.23h-.8V4.36h.86V6.8c.22-.18.45-.34.7-.46.26-.13.54-.2.86-.2.58 0 1.04.23 1.37.68.33.44.5 1.06.5 1.85z" style="text-align:start;line-height:125%"/></g></svg>