<svg xmlns="http://www.w3.org/2000/svg" width="16" height="16" xmlns:xlink="http://www.w3.org/1999/xlink"><defs><linearGradient><stop offset="0" stop-color="#6e6e6e"/><stop offset="1"/></linearGradient><linearGradient><stop offset="0" stop-color="#fff"/><stop offset="1" stop-color="#bcbcb4"/></linearGradient><linearGradient><stop offset="0" stop-color="#fff"/><stop offset=".5" stop-color="#fff"/><stop offset="1" stop-color="#fce94f"/></linearGradient><linearGradient id="c" x1="17.916" x2="33.156" y1="287.34" y2="323.642" xlink:href="#a" gradientUnits="userSpaceOnUse"/><linearGradient id="a"><stop offset="0" stop-color="#fff"/><stop offset="1" stop-color="#bcbcb4"/></linearGradient><linearGradient id="d" x1="16.672" x2="40.52" y1="296.05" y2="314.1" xlink:href="#b" gradientUnits="userSpaceOnUse"/><linearGradient id="b"><stop offset="0" stop-color="#6e6e6e"/><stop offset="1"/></linearGradient></defs><g><rect width="12.935" height="12.935" x="1.581" y="1.584" fill="none" ry="3.937" overflow="visible"/><path fill="#fce94f" fill-rule="evenodd" stroke="#786100" stroke-width=".762" d="M10.15 6a1.95 1.86 0 1 1-3.9 0 1.95 1.86 0 1 1 3.9 0z" transform="matrix(1.281 0 0 1.343 -6.502 -4.543)" overflow="visible"/><g><path fill="url(#c)" stroke="url(#d)" stroke-width="3.454" d="M17.44 322.16l7.4-10.55 5.63 13.58 5.7-4.2-5.5-11.8h10.66l-24-24 .1 36.98z" transform="matrix(.287 -.081 .076 .271 -21.334 -72.842)" stroke-linejoin="round"/><path fill="#fff" d="M9.07 9.03L6.32 4.5 8.28 11l.8-1.97z"/></g></g></svg>