<svg xmlns="http://www.w3.org/2000/svg" width="24" height="24" xmlns:xlink="http://www.w3.org/1999/xlink" version="1"><defs><radialGradient id="c" cx="294.624" cy="80.627" r="48.777" fx="294.624" fy="80.627" gradientUnits="userSpaceOnUse"><stop offset="0" stop-color="#BAD1D7"/><stop offset=".826" stop-color="#6D7580"/><stop offset="1" stop-color="#41454C"/></radialGradient><radialGradient id="b" cx="257.459" cy="35.376" r="68.717" fx="257.459" fy="35.376" gradientUnits="userSpaceOnUse"><stop offset="0" stop-color="#fff"/><stop offset="1" stop-color="#8794A0"/></radialGradient><radialGradient id="a" cx="264.957" cy="80.291" r="53.348" fx="264.957" fy="80.291" gradientUnits="userSpaceOnUse"><stop offset="0" stop-color="#BAD1D7"/><stop offset="1" stop-color="#8794A0"/></radialGradient><radialGradient cx="264.957" cy="80.291" r="53.348" xlink:href="#a" gradientUnits="userSpaceOnUse" fx="264.957" fy="80.291"/><radialGradient cx="257.459" cy="35.376" r="68.717" xlink:href="#b" gradientUnits="userSpaceOnUse" fx="257.459" fy="35.376"/><radialGradient cx="294.624" cy="80.627" r="48.777" xlink:href="#c" gradientUnits="userSpaceOnUse" fx="294.624" fy="80.627"/></defs><g><path fill="#eeeeec" fill-rule="evenodd" stroke="#2e3436" stroke-dashoffset=".2" d="M1.5 1.5h20v20h-20z" color="#000" overflow="visible"/><path d="M14.74 15.43c0 .1 0 .18-.02.25 0 .07-.03.13-.05.18-.03.05-.06.08-.1.1-.03.03-.08.04-.12.04h-5.5c-.06 0-.12 0-.17-.03-.06 0-.1-.04-.14-.1-.04-.03-.07-.08-.1-.16 0-.07 0-.16 0-.28 0-.1 0-.2 0-.26 0-.08.02-.15.05-.2 0-.07.05-.12.08-.18.04-.06.1-.12.15-.2l1.93-2.03c.44-.47.8-.9 1.07-1.27s.47-.7.62-1.02c.14-.3.24-.58.3-.83.03-.25.06-.5.06-.7 0-.23-.03-.44-.1-.63-.07-.2-.18-.37-.3-.52-.15-.15-.32-.27-.52-.35-.2-.1-.44-.13-.7-.13-.32 0-.6.04-.85.13-.25.08-.46.18-.65.28-.2.1-.34.2-.47.3-.1.08-.2.12-.27.12-.03 0-.07 0-.1-.03-.02-.03-.04-.06-.06-.1-.02-.05-.03-.1-.04-.2 0-.07-.02-.16-.02-.27 0-.07 0-.14.02-.2 0-.05 0-.1.02-.14.02-.05.03-.1.05-.13.02-.03.06-.08.12-.13s.16-.13.32-.22c.15-.1.34-.18.56-.27.23-.1.48-.17.75-.23.28-.06.57-.1.87-.1.48 0 .9.08 1.26.2.36.15.66.33.9.57.23.22.4.5.53.8.13.32.2.65.2 1 0 .32-.04.64-.1.95-.05.32-.17.66-.35 1.02-.2.37-.45.78-.8 1.22-.33.44-.8.96-1.36 1.54l-1.58 1.64h4.32c.04 0 .08 0 .12.03.04.04.07.07.1.12.03.04.05.1.06.17 0 .06.02.14.02.23z" style="text-align:start;line-height:125%" font-size="10" font-family="Calibri"/></g></svg>