<svg xmlns="http://www.w3.org/2000/svg" width="24" height="24" xmlns:xlink="http://www.w3.org/1999/xlink" version="1"><defs><radialGradient id="c" cx="294.624" cy="80.627" r="48.777" fx="294.624" fy="80.627" gradientUnits="userSpaceOnUse"><stop offset="0" stop-color="#BAD1D7"/><stop offset=".826" stop-color="#6D7580"/><stop offset="1" stop-color="#41454C"/></radialGradient><radialGradient id="b" cx="257.459" cy="35.376" r="68.717" fx="257.459" fy="35.376" gradientUnits="userSpaceOnUse"><stop offset="0" stop-color="#fff"/><stop offset="1" stop-color="#8794A0"/></radialGradient><radialGradient id="a" cx="264.957" cy="80.291" r="53.348" fx="264.957" fy="80.291" gradientUnits="userSpaceOnUse"><stop offset="0" stop-color="#BAD1D7"/><stop offset="1" stop-color="#8794A0"/></radialGradient><radialGradient cx="264.957" cy="80.291" r="53.348" xlink:href="#a" gradientUnits="userSpaceOnUse" fx="264.957" fy="80.291"/><radialGradient cx="257.459" cy="35.376" r="68.717" xlink:href="#b" gradientUnits="userSpaceOnUse" fx="257.459" fy="35.376"/><radialGradient cx="294.624" cy="80.627" r="48.777" xlink:href="#c" gradientUnits="userSpaceOnUse" fx="294.624" fy="80.627"/></defs><g><path fill="#eeeeec" fill-rule="evenodd" stroke="#2e3436" stroke-dashoffset=".2" d="M1.5 1.5h20v20h-20z" color="#000" overflow="visible"/><path d="M15 13.13c0 .17-.03.3-.08.4-.05.1-.12.15-.2.15h-1.1v2.08c0 .04 0 .08-.03.1-.03.03-.07.06-.12.08-.05.02-.1.03-.2.04-.07 0-.18.02-.3.02s-.22 0-.3-.02c-.08 0-.15-.02-.2-.04-.04-.02-.08-.05-.1-.07 0-.03-.02-.07-.02-.1v-2.1h-4c-.07 0-.12 0-.16-.02-.04 0-.08-.04-.1-.08-.05-.04-.07-.1-.08-.18 0-.08-.02-.18-.02-.3 0-.1 0-.2 0-.27s.02-.14.04-.2c0-.07.03-.13.06-.2.02-.05.05-.1.1-.18l3.5-6.03c.02-.04.05-.08.1-.1.05-.04.1-.06.18-.08.08-.02.17-.04.28-.04.1 0 .24-.02.4-.02.16 0 .3 0 .43.02.1.02.2.03.28.05.08.02.14.05.18.08.04.04.06.08.06.12v6.34h1.1c.08 0 .15.03.2.12.05.1.08.23.08.4zm-2.64-6L9.17 12.6h3.18V7.13z" style="text-align:start;line-height:125%" font-size="10" font-family="Calibri"/></g></svg>