<svg xmlns="http://www.w3.org/2000/svg" width="16" height="16" xmlns:xlink="http://www.w3.org/1999/xlink"><defs><linearGradient id="d"><stop offset="0" stop-color="#eeeeec"/><stop offset="1" stop-color="#eeeeec" stop-opacity="0"/></linearGradient><linearGradient id="c"><stop offset="0" stop-color="#d3d7cf"/><stop offset=".17" stop-color="#fff"/><stop offset=".339" stop-color="#c2c7be"/><stop offset=".566" stop-color="#c7ccce"/><stop offset=".773" stop-color="#92978c"/><stop offset="1" stop-color="#495058"/></linearGradient><linearGradient id="b"><stop offset="0" stop-color="#2e3436"/><stop offset="1" stop-color="#7d8c90"/></linearGradient><linearGradient id="a"><stop offset="0" stop-color="#fff"/><stop offset=".5" stop-color="#fff"/><stop offset="1" stop-color="#d2d2cc"/></linearGradient><radialGradient id="g" cx="9.314" cy="9.58" r="5.12" xlink:href="#a" fx="9.314" fy="9.58" gradientTransform="matrix(.999 0 0 1.007 .013 -.063)" gradientUnits="userSpaceOnUse"/><linearGradient id="h" x1="6.205" x2="12.385" y1="6.231" y2="13.513" xlink:href="#b" gradientUnits="userSpaceOnUse"/><linearGradient id="f" x1="13.099" x2="2.467" y1="14.292" y2="2.579" xlink:href="#b" gradientUnits="userSpaceOnUse" gradientTransform="matrix(.986 0 0 1.065 .111 -1.119)"/><linearGradient id="e" x1="10.373" x2="6.274" y1="2.263" y2="14.922" xlink:href="#c" gradientUnits="userSpaceOnUse" gradientTransform="matrix(.986 0 0 .986 .111 .113)"/><linearGradient id="i" x1="3.301" x2="9.968" y1="1.948" y2="11.318" xlink:href="#d" gradientUnits="userSpaceOnUse" gradientTransform="matrix(.975 0 0 .975 .2 .202)"/></defs><g><path fill="url(#e)" stroke="url(#f)" stroke-width=".986" d="M3 1.67C.76 3.4 0 7.35.86 9.87c1.23 3.62 4.74 5.6 7.4 5.67 4 0 7.18-3.3 7.08-7.3-.04-1.72-.8-3.58-2.26-4.94C9.58.04 5.38-.15 3 1.67z"/><path fill="url(#g)" stroke="url(#h)" stroke-width=".679" d="M14.08 9.58a4.76 4.8 0 1 1-9.53 0 4.76 4.8 0 1 1 9.53 0z" transform="matrix(1.092 0 0 1.071 -1.236 -1.476)" color="#000" stroke-linecap="round" overflow="visible" enable-background="accumulate"/><path fill="#babdb6" d="M6.6 5.52v6.45s1.04-2.14 1.03-3.3c0-1.1-1.03-3.15-1.03-3.15z"/><path fill="#babdb6" d="M9.6 5.5v6.45s1.02-2.14 1-3.3c0-1.1-1-3.15-1-3.15z"/><path fill="#babdb6" d="M11.6 5.5v6.45s1.02-2.14 1.02-3.3c0-1.1-1.03-3.15-1.03-3.15z"/><path fill="none" stroke="url(#i)" stroke-width=".662" d="M3.5 2.34C1.5 3.87.84 7.42 1.6 9.68c1.1 3.24 4.24 5 6.64 5.08 3.56 0 6.42-2.96 6.33-6.54-.04-1.54-.7-3.2-2.03-4.43C9.4.87 5.64.7 3.5 2.33z"/></g></svg>