<svg xmlns="http://www.w3.org/2000/svg" width="16" height="16" xmlns:ns1="&#38;#38;#38;#38;ns_ai;" xmlns:xlink="http://www.w3.org/1999/xlink" version="1"><defs><linearGradient id="e"><stop offset="0" stop-color="#fff"/><stop offset="1" stop-color="#fff" stop-opacity="0"/></linearGradient><linearGradient id="d"><stop offset="0" stop-color="#fce94f"/><stop offset="1" stop-color="#fce94f" stop-opacity="0"/></linearGradient><linearGradient id="c"><stop offset="0" stop-color="#fff"/><stop offset="1" stop-color="#fff" stop-opacity="0"/></linearGradient><linearGradient id="b"><stop offset="0" stop-color="#fff"/><stop offset="1" stop-color="#555753"/></linearGradient><linearGradient x1="29.237" x2="43.862" y1="373.537" y2="388.287" gradientUnits="userSpaceOnUse"><stop offset="0" stop-color="#F6E94F"/><stop offset="1" stop-color="#fff"/></linearGradient><linearGradient id="a" x1="30.557" x2="44.093" y1="373.671" y2="388.908" gradientUnits="userSpaceOnUse"><stop offset="0" stop-color="#FAAF3E"/><stop offset="1" stop-color="#F17912"/></linearGradient><radialGradient cx="111.321" cy="388.557" r="21.763" gradientUnits="userSpaceOnUse" fy="388.557" fx="111.321"><stop offset="0" stop-color="#efeeec" stop-opacity="0"/><stop offset="1" stop-color="#EBD50E"/></radialGradient><linearGradient><stop offset="0" stop-color="#eeeeec" stop-opacity="0"/><stop offset="1" stop-color="#eeeeec" stop-opacity=".66"/></linearGradient><linearGradient><stop offset="0" stop-color="#fce94f"/><stop offset=".357" stop-color="#fff"/><stop offset="1" stop-color="#b59203"/></linearGradient><linearGradient><stop offset="0" stop-color="#c4a000"/><stop offset="1" stop-color="#6e5a00"/></linearGradient><linearGradient><stop offset="0" stop-color="#fff"/><stop offset=".214" stop-color="#fff"/><stop offset="1" stop-color="#444"/></linearGradient><linearGradient x1="-3.372" x2="9.731" y1="376.696" y2="386.708" xlink:href="#a" gradientUnits="userSpaceOnUse" gradientTransform="matrix(-.312 0 0 .328 5.504 -120.431)"/><linearGradient x1="-3.372" x2="9.731" y1="376.696" y2="386.708" xlink:href="#a" gradientUnits="userSpaceOnUse" gradientTransform="matrix(-.312 0 0 .328 5.504 -120.431)"/><radialGradient cx="7.586" cy="2.764" r="8.029" xlink:href="#b" gradientUnits="userSpaceOnUse" gradientTransform="matrix(.585 1.028 -1.026 .584 8.349 -5.559)" fx="7.586" fy="2.764"/><radialGradient cx="8.764" cy="4.936" r="8.029" xlink:href="#c" gradientUnits="userSpaceOnUse" gradientTransform="matrix(.356 .26 -.411 .564 7.671 -.124)" fx="8.764" fy="4.936"/><radialGradient cx="0" cy="1.027" r="4.473" xlink:href="#d" fx="0" fy="1.027" gradientTransform="matrix(1.487 1.689 -.863 .76 .887 -.781)" gradientUnits="userSpaceOnUse"/><radialGradient cx="0" cy="1.027" r="4.473" xlink:href="#d" gradientUnits="userSpaceOnUse" gradientTransform="matrix(-1.487 1.689 .863 .76 15.113 -.781)" fx="0" fy="1.027"/><radialGradient cx="0" cy="1.027" r="4.473" xlink:href="#e" gradientUnits="userSpaceOnUse" gradientTransform="matrix(1.054 1.286 -.89 .729 .968 -.749)" fx="0" fy="1.027"/><radialGradient cx="0" cy="1.027" r="4.473" xlink:href="#e" gradientUnits="userSpaceOnUse" gradientTransform="matrix(-1.054 1.286 .89 .729 15.086 -.723)" fx="0" fy="1.027"/><linearGradient x1="111.165" x2="111.165" y1="402.034" y2="403.444" gradientUnits="userSpaceOnUse"><stop offset="0" stop-color="#BABDB6"/><stop offset="1" stop-color="#545652"/></linearGradient><linearGradient x1="105.516" x2="116.824" y1="409.506" y2="409.506" gradientUnits="userSpaceOnUse"><stop offset="0" stop-color="#545652"/><stop offset=".286" stop-color="#888A85"/><stop offset=".635" stop-color="#888A85"/><stop offset="1" stop-color="#545652"/></linearGradient><linearGradient x1="105.517" x2="116.825" y1="408.746" y2="408.746" gradientUnits="userSpaceOnUse"><stop offset="0" stop-color="#545652"/><stop offset=".286" stop-color="#888A85"/><stop offset=".635" stop-color="#888A85"/><stop offset="1" stop-color="#545652"/></linearGradient><linearGradient x1="105.516" x2="116.825" y1="408.908" y2="408.908" gradientUnits="userSpaceOnUse"><stop offset="0" stop-color="#545652"/><stop offset=".286" stop-color="#888A85"/><stop offset=".635" stop-color="#888A85"/><stop offset="1" stop-color="#545652"/></linearGradient><linearGradient x1="105.517" x2="116.824" y1="405.265" y2="405.265" gradientUnits="userSpaceOnUse"><stop offset="0" stop-color="#545652"/><stop offset=".286" stop-color="#888A85"/><stop offset=".635" stop-color="#888A85"/><stop offset="1" stop-color="#545652"/></linearGradient><linearGradient x1="105.517" x2="116.825" y1="404.161" y2="404.161" gradientUnits="userSpaceOnUse"><stop offset="0" stop-color="#545652"/><stop offset=".286" stop-color="#888A85"/><stop offset=".635" stop-color="#888A85"/><stop offset="1" stop-color="#545652"/></linearGradient><linearGradient x1="105.516" x2="116.825" y1="404.348" y2="404.348" gradientUnits="userSpaceOnUse"><stop offset="0" stop-color="#545652"/><stop offset=".286" stop-color="#888A85"/><stop offset=".635" stop-color="#888A85"/><stop offset="1" stop-color="#545652"/></linearGradient><linearGradient x1="105.517" x2="116.825" y1="406.309" y2="406.309" gradientUnits="userSpaceOnUse"><stop offset="0" stop-color="#545652"/><stop offset=".286" stop-color="#888A85"/><stop offset=".635" stop-color="#888A85"/><stop offset="1" stop-color="#545652"/></linearGradient><linearGradient x1="105.517" x2="116.825" y1="406.136" y2="406.136" gradientUnits="userSpaceOnUse"><stop offset="0" stop-color="#545652"/><stop offset=".286" stop-color="#888A85"/><stop offset=".635" stop-color="#888A85"/><stop offset="1" stop-color="#545652"/></linearGradient><linearGradient x1="105.517" x2="116.824" y1="407.217" y2="407.217" gradientUnits="userSpaceOnUse"><stop offset="0" stop-color="#545652"/><stop offset=".286" stop-color="#888A85"/><stop offset=".635" stop-color="#888A85"/><stop offset="1" stop-color="#545652"/></linearGradient><radialGradient cx="110.936" cy="384.101" r="49.543" gradientUnits="userSpaceOnUse" gradientTransform="matrix(1 0 0 1.085 0 -34.977)" fy="384.101" fx="110.936"><stop offset="0" stop-color="#888A85"/><stop offset="1" stop-color="#545652"/></radialGradient><radialGradient cx="116.566" cy="388.978" r="26.146" gradientUnits="userSpaceOnUse" gradientTransform="matrix(1 0 0 1.085 0 -34.977)" fy="388.978" fx="116.566"><stop offset="0" stop-color="#fff"/><stop offset="1" stop-color="#c4f5f3"/></radialGradient><linearGradient x1="106.368" x2="115.906" y1="409.508" y2="409.508" gradientUnits="userSpaceOnUse"><stop offset="0" stop-color="#EFEEEC"/><stop offset=".601" stop-color="#BABDB6"/></linearGradient><linearGradient x1="106.368" x2="115.904" y1="405.266" y2="405.266" gradientUnits="userSpaceOnUse"><stop offset="0" stop-color="#EFEEEC"/><stop offset=".601" stop-color="#BABDB6"/></linearGradient><linearGradient x1="106.368" x2="115.904" y1="407.218" y2="407.218" gradientUnits="userSpaceOnUse"><stop offset="0" stop-color="#EFEEEC"/><stop offset=".601" stop-color="#BABDB6"/></linearGradient><radialGradient cx="111.45" cy="398.607" r="15.925" xlink:href="#f" gradientUnits="userSpaceOnUse" gradientTransform="matrix(1.411 0 0 1.531 -132.84 -584.255)" fx="111.45" fy="398.607"/><radialGradient id="f" cx="111.45" cy="398.607" r="15.925" gradientUnits="userSpaceOnUse" gradientTransform="matrix(1 0 0 1.085 0 -34.977)" fy="398.607" fx="111.45"><stop offset="0" stop-color="#fff"/><stop offset=".809" stop-color="#a5d2d2"/></radialGradient><radialGradient cx="111.45" cy="398.607" r="15.925" xlink:href="#g" gradientUnits="userSpaceOnUse" gradientTransform="matrix(1.411 0 0 1.531 -132.84 -584.255)" fx="111.45" fy="398.607"/><radialGradient id="g" cx="111.45" cy="398.607" r="15.925" gradientUnits="userSpaceOnUse" gradientTransform="matrix(1 0 0 1.085 0 -34.977)" fy="398.607" fx="111.45"><stop offset="0" stop-color="#fff"/><stop offset=".809" stop-color="#a5d2d2"/></radialGradient><radialGradient id="n" cx="6.681" cy="5.195" r="4.83" xlink:href="#h" fx="6.681" fy="5.195" gradientTransform="matrix(1.033 0 0 1.269 -.051 -1.711)" gradientUnits="userSpaceOnUse"/><linearGradient id="h"><stop offset="0" stop-color="#fff"/><stop offset=".5" stop-color="#fff"/><stop offset="1" stop-color="#e2e2a5"/></linearGradient><linearGradient id="o" x1="4.495" x2="9.425" y1="1.628" y2="8.604" gradientTransform="matrix(1.033 0 0 1.032 -.051 -.251)" xlink:href="#i" gradientUnits="userSpaceOnUse"/><linearGradient id="i"><stop offset="0" stop-color="#525d61"/><stop offset="1" stop-color="#2e3436"/></linearGradient><linearGradient id="m" x1="5.345" x2="10.152" y1="12.402" y2="12.402" gradientTransform="matrix(1.033 0 0 1.032 -.051 -.251)" xlink:href="#j" gradientUnits="userSpaceOnUse"/><linearGradient id="j"><stop offset="0" stop-color="#eeeeec"/><stop offset="1" stop-color="#b7b7af"/></linearGradient><linearGradient id="l" x1="5.345" x2="10.152" y1="12.402" y2="12.402" gradientTransform="matrix(1.033 0 0 1.032 -.051 -.251)" xlink:href="#j" gradientUnits="userSpaceOnUse"/><linearGradient><stop offset="0" stop-color="#eeeeec"/><stop offset="1" stop-color="#b7b7af"/></linearGradient><linearGradient x1="5.345" x2="10.152" y1="12.402" y2="12.402" xlink:href="#j" gradientUnits="userSpaceOnUse"/><linearGradient><stop offset="0" stop-color="#eeeeec"/><stop offset="1" stop-color="#b7b7af"/></linearGradient><linearGradient id="k" x1="5.345" x2="10.152" y1="12.402" y2="12.402" gradientTransform="matrix(1.033 0 0 1.032 -.051 -.251)" gradientUnits="userSpaceOnUse" xlink:href="#j"/></defs><g><path fill="url(#k)" stroke="#2e3436" stroke-width=".5" d="M9.86 13.88c-.45.47-1.2.8-1.9.8-.73 0-1.47-.33-1.92-.8-.62-.78-.2-1.28.17-.9.46.37 1.1.6 1.75.6.64 0 1.3-.23 1.75-.6.35-.38.78.12.16.9z" ns1:knockout="Off" color="#000" overflow="visible" enable-background="accumulate"/><path fill="url(#l)" stroke="#2e3436" stroke-width=".5" d="M6.2 11.7c.46.4 1.1.66 1.75.66.64 0 1.3-.25 1.75-.65.35-.4.78.2.16 1.03-.45.5-1.2.8-1.9.8-.73 0-1.47-.3-1.92-.8-.62-.84-.2-1.42.17-1.02z" ns1:knockout="Off"/><path fill="url(#m)" stroke="#2e3436" stroke-width=".5" d="M9.78 15.15c-.45.33-1.1.5-1.8.5-.73 0-1.37-.17-1.82-.5-.62-.55-.3-1.2.07-.94.45.28 1.1.44 1.74.44.64 0 1.3-.16 1.74-.43.37-.25.7.4.08.95z" ns1:knockout="Off" color="#000" overflow="visible" enable-background="accumulate"/><path fill="url(#n)" stroke="url(#o)" stroke-width=".75" d="M8 .37c2.54 0 4.6 2.06 4.6 4.88 0 1.8-.76 2.5-1.5 3.63-.24.36-.45 1.3-.8 2.04-.3.6-1.3.94-2.3.94-1 0-2-.34-2.3-.94-.34-.73-.56-1.68-.8-2.04-.73-1.13-1.5-1.83-1.5-3.63C3.4 2.43 5.46.37 8 .37z" ns1:knockout="Off"/><path fill="#555753" d="M7 3h2v6H7z" color="#000" overflow="visible" enable-background="accumulate"/><path fill="#555753" d="M11 5v2H5V5z" color="#000" overflow="visible" enable-background="accumulate"/></g></svg>