<svg xmlns="http://www.w3.org/2000/svg" width="16" height="16" xmlns:xlink="http://www.w3.org/1999/xlink"><defs><linearGradient id="a" x1="105.015" x2="100.976" y1="53.14" y2="51.033" gradientUnits="userSpaceOnUse" gradientTransform="translate(-65.05 -40.617)"><stop offset="0" stop-color="#EFEEEC"/><stop offset="1" stop-color="#98A7B2"/></linearGradient><linearGradient x1="105.015" x2="100.976" y1="53.14" y2="51.033" xlink:href="#a" gradientUnits="userSpaceOnUse" gradientTransform="matrix(.388 0 0 .388 -27.863 -6.421)"/><linearGradient id="b" x1="97.967" x2="124.216" y1="54.748" y2="54.054" gradientUnits="userSpaceOnUse" gradientTransform="translate(-65.05 -40.617)"><stop offset="0" stop-color="#e5e8ea"/><stop offset="1" stop-color="#9eaab3"/></linearGradient><linearGradient x1="97.967" x2="124.216" y1="54.748" y2="54.054" xlink:href="#b" gradientUnits="userSpaceOnUse" gradientTransform="matrix(.388 0 0 .388 -27.863 -6.421)"/><radialGradient cx="-64.877" cy="220.876" r="14.119" gradientUnits="userSpaceOnUse" gradientTransform="matrix(-1 0 0 1 55.359 0)" fy="220.876" fx="-64.877"><stop offset="0" stop-color="#fc0"/><stop offset="1" stop-color="#f30"/></radialGradient><linearGradient id="c"><stop offset="0" stop-color="#eeeeec"/><stop offset="1" stop-color="#eeeeec" stop-opacity="0"/></linearGradient><linearGradient x1="122.958" x2="122.958" y1="214.347" y2="236.533" xlink:href="#c" gradientUnits="userSpaceOnUse"/><radialGradient cx="120.26" cy="222.319" r="10.233" xlink:href="#b" fx="120.26" fy="222.319" gradientUnits="userSpaceOnUse"/><radialGradient id="d" cx="120.26" cy="222.319" r="10.233" xlink:href="#b" gradientUnits="userSpaceOnUse" fx="120.26" fy="222.319"/><linearGradient x1="122.958" x2="122.958" y1="214.347" y2="236.533" xlink:href="#c" gradientUnits="userSpaceOnUse"/><linearGradient id="e" x1="122.958" x2="122.958" y1="214.347" y2="236.533" xlink:href="#c" gradientUnits="userSpaceOnUse"/></defs><g><path d="M15 13.57a7 2.43 0 1 1-14 0 7 2.43 0 1 1 14 0z" color="#000" overflow="visible"/><circle cx="122.958" cy="224.694" r="9.443" fill="url(#d)" stroke="#4e585c" stroke-width="1.463" transform="matrix(.683 0 0 .684 -76.002 -146.692)" color="#000" overflow="visible"/><circle cx="122.958" cy="224.694" r="9.443" fill="none" stroke="url(#e)" stroke-width="2.098" transform="matrix(.572 0 0 .572 -62.314 -121.492)"/></g></svg>