<svg xmlns="http://www.w3.org/2000/svg" width="16" height="16" version="1"><defs><radialGradient cx="294.624" cy="80.627" r="48.777" fx="294.624" fy="80.627" gradientUnits="userSpaceOnUse"><stop offset="0" stop-color="#c5d9de"/><stop offset="1" stop-color="#33415a"/></radialGradient><radialGradient cx="257.459" cy="35.376" r="68.717" fx="257.459" fy="35.376" gradientUnits="userSpaceOnUse"><stop offset="0" stop-color="#fff"/><stop offset="1" stop-color="#7d99b2"/></radialGradient><radialGradient cx="264.957" cy="80.291" r="53.348" fx="264.957" fy="80.291" gradientUnits="userSpaceOnUse"><stop offset="0" stop-color="#e9f0f2"/><stop offset="1" stop-color="#597995"/></radialGradient></defs><g><path fill="#d3d7cf" d="M6.13 15.3L1.9 10.2l-.7-8.14 4.6 4.1.33 9.13z"/><path fill="#eeeeec" d="M15.18 3.53L5.8 6.16l-4.6-4.1L9.5.26l5.68 3.27z"/><path fill="#babdb6" d="M14.38 12.06L6.13 15.3 5.8 6.15l9.38-2.63-.8 8.53z"/><path fill="none" stroke="#8ae234" d="M5.87 6.34l9.24-2.62" color="#000" overflow="visible"/><path fill="none" stroke="#8ae234" d="M1.17 2.26L5.9 6.3l.2 9.06" color="#000" overflow="visible"/><path fill="none" stroke="#8ae234" d="M1.06 2.2L9.48.46l5.7 3.33-.85 8.54-8.26 3.17-4.25-5.2-.76-8.1z" color="#000" overflow="visible"/></g></svg>