<svg xmlns="http://www.w3.org/2000/svg" width="16" height="16" xmlns:xlink="http://www.w3.org/1999/xlink"><defs><linearGradient id="a" x1="105.015" x2="100.976" y1="53.14" y2="51.033" gradientUnits="userSpaceOnUse" gradientTransform="translate(-65.05 -40.617)"><stop offset="0" stop-color="#EFEEEC"/><stop offset="1" stop-color="#98A7B2"/></linearGradient><linearGradient x1="105.015" x2="100.976" y1="53.14" y2="51.033" xlink:href="#a" gradientUnits="userSpaceOnUse" gradientTransform="matrix(.388 0 0 .388 -27.863 -6.421)"/><linearGradient id="b" x1="97.967" x2="124.216" y1="54.748" y2="54.054" gradientUnits="userSpaceOnUse" gradientTransform="translate(-65.05 -40.617)"><stop offset="0" stop-color="#e5e8ea"/><stop offset="1" stop-color="#9eaab3"/></linearGradient><linearGradient x1="97.967" x2="124.216" y1="54.748" y2="54.054" xlink:href="#b" gradientUnits="userSpaceOnUse" gradientTransform="matrix(.388 0 0 .388 -27.863 -6.421)"/><radialGradient cx="-64.877" cy="220.876" r="14.119" gradientUnits="userSpaceOnUse" gradientTransform="matrix(-1 0 0 1 55.359 0)" fy="220.876" fx="-64.877"><stop offset="0" stop-color="#fc0"/><stop offset="1" stop-color="#f30"/></radialGradient><radialGradient cx="6.681" cy="5.195" r="4.83" xlink:href="#c" fx="6.681" fy="5.195" gradientTransform="matrix(1.033 0 0 1.269 -.051 -1.711)" gradientUnits="userSpaceOnUse"/><linearGradient id="c"><stop offset="0" stop-color="#fff"/><stop offset=".5" stop-color="#fff"/><stop offset="1" stop-color="#e2e2a5"/></linearGradient><linearGradient x1="4.495" x2="9.425" y1="1.628" y2="8.604" gradientTransform="matrix(1.033 0 0 1.032 -.051 -.251)" xlink:href="#d" gradientUnits="userSpaceOnUse"/><linearGradient id="d"><stop offset="0" stop-color="#525d61"/><stop offset="1" stop-color="#2e3436"/></linearGradient><radialGradient id="e" cx="6.681" cy="5.195" r="4.83" fy="5.195" fx="6.681" gradientTransform="matrix(1.033 0 0 1.269 -.058 -1.718)" gradientUnits="userSpaceOnUse" xlink:href="#c"/><linearGradient id="f" x1="4.495" x2="9.425" y1="1.628" y2="8.604" gradientTransform="matrix(1.033 0 0 1.032 -.058 -.257)" gradientUnits="userSpaceOnUse" xlink:href="#d"/></defs><g><path stroke="#babdb6" stroke-width=".999" d="M14.42 13.54a6.46 2 0 1 1-12.92 0 6.46 2 0 1 1 12.92 0z" color="#000" stroke-linecap="round" stroke-linejoin="bevel" overflow="visible" enable-background="accumulate"/><path fill="#eeeeec" stroke="#2e3436" stroke-width=".5" d="M9.73 13.7c-.44.57-1.15.96-1.85.96-.7 0-1.4-.4-1.85-.96-.6-.94-.18-1.53.16-1.08.43.45 1.06.73 1.68.73.62 0 1.25-.28 1.7-.73.33-.45.75.14.15 1.08z"/><path fill="#eeeeec" stroke="#2e3436" stroke-width=".5" d="M6.2 11.36c.43.4 1.06.65 1.68.65.62 0 1.25-.24 1.7-.64.33-.4.75.2.15 1.02-.44.5-1.15.8-1.85.8-.7 0-1.4-.3-1.85-.8-.6-.83-.18-1.4.16-1.02z"/><path fill="url(#e)" stroke="url(#f)" stroke-width=".75" d="M8 .37c2.54 0 4.6 2.06 4.6 4.87 0 1.8-.77 2.5-1.5 3.63-.24.36-.46 1.3-.8 2.04-.3.6-1.3.95-2.3.95-1 0-2-.34-2.3-.94-.35-.72-.57-1.67-.8-2.03-.74-1.12-1.5-1.83-1.5-3.63C3.4 2.44 5.44.37 8 .37z"/><path fill="#555753" d="M7 3h2v6H7z" color="#000" overflow="visible" enable-background="accumulate"/><path fill="#555753" d="M11 5v2H5V5z" color="#000" overflow="visible" enable-background="accumulate"/></g></svg>