<svg xmlns="http://www.w3.org/2000/svg" width="16" height="16" xmlns:xlink="http://www.w3.org/1999/xlink" version="1"><defs><linearGradient id="e"><stop offset="0" stop-color="#81847e"/><stop offset="1" stop-color="#484a46"/></linearGradient><linearGradient id="d"><stop offset="0" stop-color="#eeeeec"/><stop offset="1" stop-color="#3465a4"/></linearGradient><linearGradient id="a"><stop offset="0" stop-color="#eeeeec"/><stop offset="1" stop-color="#aaaaa0"/></linearGradient><linearGradient id="i" x1="15.784" x2="19.838" y1="16.818" y2="16.099" xlink:href="#a" gradientUnits="userSpaceOnUse"/><linearGradient id="f" x1="1.092" x2="6.199" y1="14.207" y2="14.415" xlink:href="#b" gradientUnits="userSpaceOnUse" gradientTransform="matrix(1.023 0 0 1.023 -.311 -.32)"/><linearGradient id="b"><stop offset="0" stop-color="#eeeeec"/><stop offset="1" stop-color="#aaaaa0"/></linearGradient><radialGradient cx="-64.877" cy="220.876" r="14.119" gradientUnits="userSpaceOnUse" gradientTransform="matrix(-1 0 0 1 55.359 0)" fy="220.876" fx="-64.877"><stop offset="0" stop-color="#b3cbd8"/><stop offset=".5" stop-color="#9db7ca"/><stop offset="1" stop-color="#3d6b92"/></radialGradient><radialGradient cx="120.082" cy="221.902" r="10.686" xlink:href="#c" fx="120.082" fy="221.902" gradientUnits="userSpaceOnUse"/><radialGradient id="c" cx="-64.877" cy="220.876" r="14.119" gradientUnits="userSpaceOnUse" gradientTransform="matrix(-1 0 0 1 55.359 0)" fy="220.876" fx="-64.877"><stop offset="0" stop-color="#b3cbd8"/><stop offset=".5" stop-color="#9db7ca"/><stop offset="1" stop-color="#3d6b92"/></radialGradient><radialGradient id="h" cx="119.908" cy="222.077" r="10.686" xlink:href="#d" fx="119.908" fy="222.077" gradientUnits="userSpaceOnUse"/><linearGradient id="k" x1="15.784" x2="19.838" y1="16.818" y2="16.099" xlink:href="#a" gradientUnits="userSpaceOnUse"/><linearGradient id="l" x1="15.784" x2="19.838" y1="16.818" y2="16.099" xlink:href="#a" gradientUnits="userSpaceOnUse"/><linearGradient id="m" x1="15.784" x2="19.838" y1="16.818" y2="16.099" xlink:href="#a" gradientUnits="userSpaceOnUse"/><linearGradient id="g" x1=".019" x2="7.017" y1="13.583" y2="13.583" xlink:href="#e" gradientUnits="userSpaceOnUse"/><linearGradient id="j" x1="7.793" x2="23.11" y1="14.687" y2="14.687" xlink:href="#e" gradientUnits="userSpaceOnUse"/></defs><g transform="translate(0 -8)"><path fill="url(#f)" d="M6.77 9.66v6.9c0 .57-.32 1.15-.95 1.6-1.27.86-3.33.86-4.6 0-.63-.45-.95-.9-.95-1.5v-7" color="#000" overflow="visible" enable-background="accumulate"/><path fill="#eeeeec" d="M1.23 8.83c-1.27.62-1.27 1.62 0 2.24 1.26.62 3.32.62 4.6 0 1.26-.62 1.26-1.62 0-2.24-1.28-.62-3.34-.62-4.6 0z" color="#000" overflow="visible"/><path fill="none" stroke="url(#g)" stroke-width=".5" d="M6.77 9.95v6.6c0 .58-.32 1.16-.95 1.6-1.27.87-3.33.87-4.6 0-.63-.44-.95-.9-.95-1.48V9.95c0-.4.32-.8.96-1.12 1.26-.62 3.32-.62 4.6 0 .62.3.94.7.94 1.12z"/><circle cx="122.958" cy="224.694" r="9.443" fill="url(#h)" stroke="#204a87" stroke-width="2.431" transform="matrix(.494 0 0 .493 -49.896 -94.698)" color="#000" overflow="visible" enable-background="accumulate"/><g fill="url(#i)" stroke="url(#j)" stroke-width=".853" transform="matrix(.6 0 0 .599 -3.647 10.052)"><path fill="url(#k)" d="M22.67 19.26c0 2.07-2.57 3.6-7.42 3.6-4.28 0-7.03-1.62-7.03-3.56 0-.08.03-.16.06-.22l7-12.43c.1-.14.23-.14.32 0l7 12.4c.04.05.06.13.07.2z"/><path fill="url(#l)" d="M15.55 6.52l-4.83 15.54c-2.05-.67-2.72-2.3-2.44-2.98l7.18-12.56h.1z"/><path fill="url(#m)" d="M22.46 18.72c.15.28.23.56.23.85 0 1.86-3.24 3.3-7.23 3.3-3.98 0-7.22-1.44-7.22-3.3 0-.34.12-.68.32-1L15.5 6.52l6.96 12.22z"/></g></g></svg>