<svg xmlns="http://www.w3.org/2000/svg" width="16" height="16" xmlns:xlink="http://www.w3.org/1999/xlink" version="1"><defs><linearGradient id="e"><stop offset="0" stop-color="#81847e"/><stop offset="1" stop-color="#484a46"/></linearGradient><linearGradient id="d"><stop offset="0" stop-color="#eeeeec"/><stop offset="1" stop-color="#3465a4"/></linearGradient><linearGradient id="a"><stop offset="0" stop-color="#eeeeec"/><stop offset="1" stop-color="#aaaaa0"/></linearGradient><linearGradient x1="15.784" x2="19.838" y1="16.818" y2="16.099" xlink:href="#a" gradientUnits="userSpaceOnUse"/><linearGradient x1="1.092" x2="6.199" y1="14.207" y2="14.415" xlink:href="#b" gradientUnits="userSpaceOnUse" gradientTransform="matrix(1.023 0 0 1.023 -.311 -.32)"/><linearGradient id="b"><stop offset="0" stop-color="#eeeeec"/><stop offset="1" stop-color="#aaaaa0"/></linearGradient><radialGradient cx="-64.877" cy="220.876" r="14.119" gradientUnits="userSpaceOnUse" gradientTransform="matrix(-1 0 0 1 55.359 0)" fy="220.876" fx="-64.877"><stop offset="0" stop-color="#b3cbd8"/><stop offset=".5" stop-color="#9db7ca"/><stop offset="1" stop-color="#3d6b92"/></radialGradient><radialGradient cx="120.082" cy="221.902" r="10.686" xlink:href="#c" fx="120.082" fy="221.902" gradientUnits="userSpaceOnUse"/><radialGradient id="c" cx="-64.877" cy="220.876" r="14.119" gradientUnits="userSpaceOnUse" gradientTransform="matrix(-1 0 0 1 55.359 0)" fy="220.876" fx="-64.877"><stop offset="0" stop-color="#b3cbd8"/><stop offset=".5" stop-color="#9db7ca"/><stop offset="1" stop-color="#3d6b92"/></radialGradient><radialGradient id="f" cx="119.908" cy="222.077" r="10.686" xlink:href="#d" fx="119.908" fy="222.077" gradientUnits="userSpaceOnUse"/><linearGradient x1="15.784" x2="19.838" y1="16.818" y2="16.099" xlink:href="#a" gradientUnits="userSpaceOnUse"/><linearGradient x1="15.784" x2="19.838" y1="16.818" y2="16.099" xlink:href="#a" gradientUnits="userSpaceOnUse"/><linearGradient x1="15.784" x2="19.838" y1="16.818" y2="16.099" xlink:href="#a" gradientUnits="userSpaceOnUse"/><linearGradient x1="7.793" x2="23.11" y1="14.687" y2="14.687" xlink:href="#e" gradientUnits="userSpaceOnUse"/><linearGradient x1="7.793" x2="23.11" y1="14.687" y2="14.687" xlink:href="#e" gradientUnits="userSpaceOnUse"/><linearGradient x1="7.793" x2="23.11" y1="14.687" y2="14.687" xlink:href="#e" gradientUnits="userSpaceOnUse"/><linearGradient x1="7.793" x2="23.11" y1="14.687" y2="14.687" xlink:href="#e" gradientUnits="userSpaceOnUse"/><linearGradient x1="7.793" x2="23.11" y1="14.687" y2="14.687" xlink:href="#e" gradientUnits="userSpaceOnUse"/><linearGradient x1="7.793" x2="23.11" y1="14.687" y2="14.687" xlink:href="#e" gradientUnits="userSpaceOnUse" gradientTransform="matrix(.6 0 0 .599 -3.647 10.052)"/><linearGradient x1="7.793" x2="23.11" y1="14.687" y2="14.687" xlink:href="#e" gradientUnits="userSpaceOnUse" gradientTransform="matrix(.6 0 0 .599 -3.647 10.052)"/></defs><g transform="translate(0 -8)"><path fill="#888a85" fill-opacity=".502" stroke="#eeeeec" stroke-width=".5" d="M6.77 9.95v6.6c0 .58-.32 1.16-.95 1.6-1.27.87-3.33.87-4.6 0-.63-.44-.95-.9-.95-1.48V9.95c0-.4.32-.8.96-1.12 1.26-.62 3.32-.62 4.6 0 .62.3.94.7.94 1.12z"/><circle cx="122.958" cy="224.694" r="9.443" fill="url(#f)" stroke="#204a87" stroke-width="2.431" transform="matrix(.494 0 0 .493 -49.896 -94.698)" color="#000" overflow="visible" enable-background="accumulate"/><path fill="#888a85" fill-opacity=".502" stroke="#eeeeec" stroke-width=".5" d="M9.83 21.28c.1.16.14.33.14.5 0 1.12-1.94 1.97-4.33 1.97-2.4 0-4.33-.85-4.33-1.97 0-.2.07-.4.2-.6l4.15-7.23 4.18 7.33z"/></g></svg>