<svg xmlns="http://www.w3.org/2000/svg" width="24" height="24" xmlns:xlink="http://www.w3.org/1999/xlink" version="1"><defs><radialGradient id="b" cx="294.624" cy="80.627" r="48.777" fx="294.624" fy="80.627" gradientUnits="userSpaceOnUse"><stop offset="0" stop-color="#c5d9de"/><stop offset="1" stop-color="#33415a"/></radialGradient><radialGradient id="c" cx="257.459" cy="35.376" r="68.717" fx="257.459" fy="35.376" gradientUnits="userSpaceOnUse"><stop offset="0" stop-color="#fff"/><stop offset="1" stop-color="#7d99b2"/></radialGradient><radialGradient id="a" cx="264.957" cy="80.291" r="53.348" fx="264.957" fy="80.291" gradientUnits="userSpaceOnUse"><stop offset="0" stop-color="#e9f0f2"/><stop offset="1" stop-color="#597995"/></radialGradient><radialGradient id="d" cx="264.957" cy="80.291" r="53.348" xlink:href="#a" gradientUnits="userSpaceOnUse" fx="264.957" fy="80.291"/><radialGradient id="f" cx="294.624" cy="80.627" r="48.777" xlink:href="#b" gradientUnits="userSpaceOnUse" fx="294.624" fy="80.627"/><radialGradient id="e" cx="259.577" cy="42.441" r="68.717" xlink:href="#c" gradientUnits="userSpaceOnUse" fx="259.577" fy="42.441" gradientTransform="matrix(.563 -.003 .002 .501 112.748 18.338)"/></defs><g><path fill="url(#d)" d="M273.55 75.76l-12-14.42-1.98-23.04 13.08 11.6.9 25.86z" transform="matrix(.523 0 0 .523 -133.915 -16.345)"/><path fill="url(#e)" d="M299.2 42.47l-26.55 7.44-13.07-11.6 23.56-5.1 16.06 9.27z" transform="matrix(.523 0 0 .523 -133.915 -16.345)"/><path fill="url(#f)" d="M296.92 66.62l-23.37 9.14-.9-25.85 26.55-7.43-2.28 24.15z" transform="matrix(.523 0 0 .523 -133.915 -16.345)"/><path fill="none" stroke="#2e3436" d="M8.8 9.8l13.22-3.73" stroke-linecap="round"/><path fill="none" stroke="#2e3436" d="M2.15 4l6.7 5.75.24 13" stroke-linecap="round"/><path fill="none" stroke="#2e3436" d="M1.68 3.7l12.45-2.6L22.56 6 21.3 18.65l-12.2 4.7-6.3-7.66L1.7 3.7z"/></g></svg>