<svg xmlns="http://www.w3.org/2000/svg" width="24" height="24" xmlns:xlink="http://www.w3.org/1999/xlink" version="1"><defs><linearGradient id="d"><stop offset="0" stop-color="#f0f0f0"/><stop offset="1" stop-color="#a8a8a8"/></linearGradient><linearGradient id="c"><stop offset="0" stop-color="#fff"/><stop offset="1" stop-color="#d0d0d0"/></linearGradient><linearGradient id="b"><stop offset="0" stop-color="#f0f0f0"/><stop offset="1" stop-color="#a8a8a8"/></linearGradient><linearGradient><stop offset="0" stop-color="#2e3436" stop-opacity=".515"/><stop offset="1" stop-color="#2e3436" stop-opacity="0"/></linearGradient><linearGradient><stop offset="0" stop-color="#fff"/><stop offset="1" stop-color="#88959a"/></linearGradient><linearGradient><stop offset="0" stop-color="#fff"/><stop offset="1" stop-color="#cbcbcb"/></linearGradient><radialGradient id="a" cx="257.459" cy="35.376" r="68.717" fx="257.459" fy="35.376" gradientUnits="userSpaceOnUse"><stop offset="0" stop-color="#5c5c5c"/><stop offset="1"/></radialGradient><linearGradient id="e" x1="259.575" x2="273.031" y1="38.754" y2="75.221" xlink:href="#a" gradientUnits="userSpaceOnUse"/><linearGradient id="g" x1="272.651" x2="297.048" y1="50.116" y2="66.409" xlink:href="#a" gradientUnits="userSpaceOnUse"/><linearGradient id="f" x1="259.575" x2="298.77" y1="38.449" y2="42.329" xlink:href="#a" gradientUnits="userSpaceOnUse"/><linearGradient id="h" x1="1.82" x2="9.159" y1="3.322" y2="22.671" xlink:href="#b" gradientUnits="userSpaceOnUse"/><linearGradient id="i" x1="1.82" x2="22.57" y1="3.322" y2="5.597" xlink:href="#c" gradientUnits="userSpaceOnUse"/><linearGradient id="j" x1="8.622" x2="21.457" y1="9.449" y2="18.256" xlink:href="#d" gradientUnits="userSpaceOnUse"/></defs><g><path fill="url(#e)" d="M273.55 75.76l-12-14.42-1.98-23.04 13.08 11.6.9 25.86z" transform="matrix(.523 0 0 .523 -133.774 -16.604)" color="#000" overflow="visible"/><path fill="url(#f)" d="M299.2 42.47l-26.55 7.44-13.07-11.6 23.56-5.1 16.06 9.27z" transform="matrix(.523 0 0 .523 -133.774 -16.604)"/><path fill="url(#g)" d="M296.92 66.62l-23.37 9.14-.9-25.85 26.55-7.43-2.28 24.15z" transform="matrix(.523 0 0 .523 -133.774 -16.604)" color="#000" overflow="visible"/><path fill="url(#h)" fill-rule="evenodd" d="M1.82 3.32l3.6 3.23.2 6.28L2.4 9.5 1.8 3.3zm3.88 9.54l3.33 3.38.13 6.77L6 19.3l-.3-6.44z" color="#000" overflow="visible"/><path fill="url(#i)" fill-rule="evenodd" d="M1.77 3.4l6.37-1.35 3.4 2.57-6.27 1.9-3.5-3.13zm9.88 1.18l6.37-1.66 4.55 2.65-6.35 1.94-4.57-2.92z" color="#000" overflow="visible"/><path fill="url(#j)" fill-rule="evenodd" d="M22.6 5.5l-6.35 1.93-.26 6.55L22 11.86l.57-6.35zM16 13.94L8.98 16.2l.1 6.83 6.62-2.52.3-6.57z" color="#000" overflow="visible"/><g fill="none" stroke="#2e3436"><path d="M8.84 9.43L22.07 5.7" stroke-linecap="round"/><path d="M2.2 3.62l6.7 5.76.24 12.98" stroke-linecap="round"/><path d="M1.72 3.33L14.18.73l8.42 4.9-1.24 12.64-12.22 4.7-6.3-7.66L1.73 3.34z"/></g></g></svg>