<svg xmlns="http://www.w3.org/2000/svg" width="16" height="16" xmlns:xlink="http://www.w3.org/1999/xlink" viewBox="0 0 20.417 22.542" overflow="visible" enable-background="new 0 0 20.417 22.542" version="1"><defs><linearGradient id="b"><stop offset="0" stop-color="#ddddd8"/><stop offset="1" stop-color="#fff"/></linearGradient><linearGradient x1=".584" x2="17.75" y1="2.542" y2="2.542" gradientUnits="userSpaceOnUse" gradientTransform="matrix(1.198 0 0 .665 -.737 .812)"><stop offset="0" stop-color="#D3D7CF"/><stop offset="1" stop-color="#888A85"/></linearGradient><linearGradient id="a" x1="11.668" x2="14.418" y1="10.009" y2="17.051" gradientUnits="userSpaceOnUse"><stop offset="0" stop-color="#888A85"/><stop offset="1"/></linearGradient><linearGradient x1="11.668" x2="14.418" y1="10.009" y2="17.051" xlink:href="#a" gradientUnits="userSpaceOnUse"/><linearGradient x1="21.016" x2="21.016" y1="18.442" y2="32.728" xlink:href="#b" gradientUnits="userSpaceOnUse" gradientTransform="matrix(.368 0 0 .54 10.13 -8.917)"/><linearGradient id="e" x1="21.016" x2="21.016" y1="18.442" y2="32.728" xlink:href="#b" gradientUnits="userSpaceOnUse" gradientTransform="matrix(.441 0 0 .683 .948 -7.104)"/><filter color-interpolation-filters="sRGB"><feColorMatrix values="1 0 0 0 0 0 1 0 0 0 0 0 1 0 0 0 0 0 1 0" result="result7"/><feGaussianBlur result="result6" stdDeviation="5"/><feComposite in2="result7" operator="atop" in="result6" result="result91"/><feComposite in2="result91" operator="in"/></filter><radialGradient cx="7.283" cy="13.372" r="7.253" xlink:href="#c" fx="7.283" fy="13.372" gradientTransform="matrix(1 0 0 .308 0 9.247)" gradientUnits="userSpaceOnUse"/><linearGradient id="c"><stop offset="0" stop-color="#515151"/><stop offset="1" stop-opacity="0"/></linearGradient><radialGradient id="d" cx="7.283" cy="13.372" r="7.253" fy="13.372" fx="7.283" gradientTransform="matrix(1 0 0 .308 0 9.247)" gradientUnits="userSpaceOnUse" xlink:href="#c"/></defs><path fill="url(#d)" d="M14.54 13.37a7.25 2.24 0 1 1-14.5 0 7.25 2.24 0 1 1 14.5 0z" transform="matrix(1.18 0 0 1.325 1.72 1.208)" color="#000" overflow="visible"/><path fill="url(#e)" fill-rule="evenodd" d="M2.15 9.63C9 .27 15 5.56 18.25 11.03c-3.37 9.4-13.55 5.58-16.1-1.4z"/><path fill="#fff" fill-opacity=".75" fill-rule="evenodd" d="M2.27 10.02c4.76.8 10.05 1.35 14.72.5-4.94-4.3-11.78-2.9-14.73-.5z"/><path d="M13.58 10.52a3.37 3.57 0 1 1-6.74 0 3.37 3.57 0 1 1 6.74 0z" overflow="visible"/><path fill="#eeeeec" fill-opacity=".716" fill-rule="evenodd" d="M10.13 9.1s-.45-.92-.65-1.34c-.67.23-1.72 1-1.9 1.45.3.4.76.86.98 1.16.52-.65.95-1.04 1.57-1.26z"/><path fill="#2e3436" fill-rule="evenodd" d="M1.83 9.97c6.54-4.7 11.6-4.2 15.6 1l1.25-1.03c-2.66-4.23-4.4-5.8-8.8-5.8S1.82 10.1 1.83 9.97z"/><path fill="#babdb6" fill-rule="evenodd" d="M2.05 9.9c5.82 6.7 10.06 6.13 15.06 1.68l1.64 1.62c-7.13 6.13-12.96 4.12-16.7-3.3z"/></svg>