<svg xmlns="http://www.w3.org/2000/svg" width="16" height="16" xmlns:xlink="http://www.w3.org/1999/xlink"><defs><linearGradient id="d"><stop offset="0" stop-color="#2e3436"/><stop offset="1" stop-color="#2e3436" stop-opacity="0"/></linearGradient><linearGradient id="c"><stop offset="0" stop-color="#6c7a7f"/><stop offset="1" stop-color="#2e3436"/></linearGradient><linearGradient id="b"><stop offset="0" stop-color="#a6a6a6"/><stop offset="1" stop-color="#fff"/></linearGradient><linearGradient id="a"><stop offset="0" stop-color="#fff"/><stop offset="1" stop-color="#b7b7af"/></linearGradient><radialGradient id="g" cx="4.387" cy="3.477" r="3.923" xlink:href="#a" fx="4.387" fy="3.477" gradientUnits="userSpaceOnUse"/><linearGradient id="f" x1="5.766" x2="7.298" y1="7.527" y2="10.14" xlink:href="#b" gradientUnits="userSpaceOnUse" gradientTransform="matrix(1.02 .1 -.1 1.019 .469 -.36)"/><linearGradient id="h" x1="3.347" x2="5.472" y1="1.089" y2="5.054" xlink:href="#c" gradientUnits="userSpaceOnUse"/><linearGradient id="e" x1="9.544" x2="15.503" y1="14.102" y2="13.201" xlink:href="#d" gradientUnits="userSpaceOnUse" gradientTransform="matrix(1.071 .189 -.201 1.007 1.631 -.958)"/></defs><g><path fill="url(#e)" d="M7.67 15.82c.74-.02 7.28.24 7.28.24l.98-1.48-6.5-.64z"/><path fill="url(#f)" d="M2.4 4.38l5.57 10.94c.83.23 1.34-.02 1.63-.58L5.45 3.24z"/><path fill="none" stroke="#000" stroke-width=".5" d="M4.22 7.7l3.85 7.95"/><path fill="none" stroke="#949494" stroke-width=".5" d="M6.56 6.5l3.22 8.3"/><path fill="url(#g)" stroke="url(#h)" stroke-width=".976" d="M8.85 4.42a3.42 3.42 0 1 1-6.85 0 3.42 3.42 0 1 1 6.85 0z" transform="matrix(1.02 .1 -.1 1.019 -.997 -1.015)" color="#000" overflow="visible" enable-background="accumulate"/></g></svg>