<svg xmlns="http://www.w3.org/2000/svg" width="16" height="16" xmlns:xlink="http://www.w3.org/1999/xlink"><defs><linearGradient id="d"><stop offset="0" stop-color="#fcaf3e"/><stop offset="1" stop-color="#fdd497"/></linearGradient><linearGradient id="c"><stop offset="0" stop-color="#babdb6"/><stop offset="1" stop-color="#babdb6" stop-opacity="0"/></linearGradient><linearGradient id="b"><stop offset="0" stop-color="#fff"/><stop offset="1" stop-color="#fff" stop-opacity="0"/></linearGradient><linearGradient id="a"><stop offset="0" stop-color="#eaeaea"/><stop offset="1" stop-color="#cbcbc5"/></linearGradient><linearGradient><stop offset="0" stop-color="#fbff7a"/><stop offset=".5" stop-color="#b0ddf5"/><stop offset="1" stop-color="#ff7575"/></linearGradient><linearGradient id="e" x1="1.111" x2="12.188" y1=".993" y2="12.084" xlink:href="#a" gradientUnits="userSpaceOnUse"/><linearGradient id="f" x1="12.385" x2=".986" y1="11.946" y2=".91" xlink:href="#b" gradientUnits="userSpaceOnUse"/><linearGradient id="h" x1="2.27" x2="5.539" y1="2.374" y2="5.577" xlink:href="#c" gradientUnits="userSpaceOnUse"/><linearGradient id="g" x1="5.726" x2="13.236" y1="9.498" y2="9.498" xlink:href="#d" gradientUnits="userSpaceOnUse"/></defs><g stroke-width=".5"><path fill="url(#e)" stroke="#2e3436" d="M1.97.25C1.12.3.3.88.27 1.97v5.1l8.7 8.65 6.8-6.78L7.1.24H1.96zm2 2.03c.94 0 1.72.74 1.72 1.7 0 .93-.8 1.7-1.73 1.7-.95 0-1.72-.77-1.72-1.7 0-.96.77-1.7 1.72-1.7z"/><path fill="none" stroke="url(#f)" d="M1.98.74C1.42.72.75 1.22.78 2v4.88L9 14.95l6.12-6.1-8.2-8.1z"/><path fill="url(#g)" stroke="#f57900" d="M9 13.02L6 10l4-4.02 3 3z"/><path fill="none" stroke="url(#h)" d="M3.97 1.86c1.18 0 2.14.93 2.14 2.1 0 1.18-.95 2.15-2.13 2.15s-2.15-.96-2.15-2.14c0-1.17.97-2.1 2.15-2.1z"/></g></svg>