<svg xmlns="http://www.w3.org/2000/svg" width="16" height="16" xmlns:xlink="http://www.w3.org/1999/xlink"><defs><linearGradient id="b"><stop offset="0" stop-color="#ff9329"/><stop offset="1" stop-color="#c05f00"/></linearGradient><linearGradient><stop offset="0" stop-color="#fff"/><stop offset="1" stop-color="#8fc3d2"/></linearGradient><linearGradient id="a"><stop offset="0" stop-color="#887556"/><stop offset="1" stop-color="#454030"/></linearGradient><radialGradient id="c" cx="5.911" cy="6.194" r="7.226" xlink:href="#a" gradientUnits="userSpaceOnUse" fx="5.911" fy="6.194"/><radialGradient cx="5.911" cy="6.194" r="7.226" xlink:href="#a" gradientUnits="userSpaceOnUse" fx="5.911" fy="6.194" gradientTransform="matrix(1.071 0 0 1.071 -.571 -.571)"/><radialGradient id="d" cx="5.647" cy="6.581" r="6.616" xlink:href="#b" fx="5.647" fy="6.581" gradientTransform="matrix(1 0 0 .952 0 .421)" gradientUnits="userSpaceOnUse"/></defs><g><path fill="url(#c)" stroke="#eeeeec" stroke-width=".933" d="M15 8A7 7 0 1 1 1 8a7 7 0 1 1 14 0z" transform="matrix(1.071 0 0 1.071 -.571 -.571)" color="#000" stroke-linecap="round" stroke-linejoin="round" overflow="visible" enable-background="accumulate"/><path fill="url(#d)" d="M2.1 4.16c1.56-1.28 3.72-2.2 6.68-1.5 3.68.86 5.7 3.44 5.5 6.28-.15 2.1-1.46 4.4-3.3 5.44-1.82 1-4.33.76-6.23-.07C4.2 14.07 3 13 2.1 11.9c-.56-.98-.44-2.5.1-3.56.9-1.83 2.6-3.18 4.4-3.12 1.95.07 4.27 1.42 4.2 3.34-.05 2.07-1.63 3.5-3.2 3.6-1.43.1-2.23-.63-2.4-1.57C5 9.54 5.63 9 6.65 8.7c-.45 1.07.23 1.53.8 1.55.7.02 1.47-.82 1.42-1.5-.07-.88-1.22-1.65-2.1-1.63-1.95.07-3.12 1.65-3.06 3.1.08 2 2.24 3.24 3.97 3.34 2.34.15 4.54-2.26 4.4-4.53-.2-3-2.18-5.15-5.3-5.22-2.04-.03-3.83 1.07-5.74 3.5.03-1.04.56-2.37 1.03-3.14z"/></g></svg>