<svg xmlns="http://www.w3.org/2000/svg" width="16" height="16" xmlns:xlink="http://www.w3.org/1999/xlink"><defs><linearGradient><stop offset="0" stop-color="#fff"/><stop offset="1" stop-color="#d3d7cf"/></linearGradient><linearGradient id="a"><stop offset="0" stop-color="#fbff7a"/><stop offset=".5" stop-color="#b0ddf5"/><stop offset="1" stop-color="#ff7575"/></linearGradient><radialGradient cx="8.03" cy="8.06" r="4.518" xlink:href="#a" fx="8.03" fy="8.06" gradientTransform="matrix(1 0 0 1.03 0 -.241)" gradientUnits="userSpaceOnUse"/><radialGradient id="p" cx="23.335" cy="44.42" r="18.562" gradientUnits="userSpaceOnUse" gradientTransform="matrix(1 0 0 .193 0 35.854)" fy="44.42" fx="23.335" xlink:href="#b"/><linearGradient id="b"><stop offset="0" stop-color="#2e3436" stop-opacity=".619"/><stop offset="1" stop-color="#2e3436" stop-opacity="0"/></linearGradient><linearGradient x1="20.73" x2="23.296" y1="29.815" y2="45.056" gradientTransform="matrix(.989 0 0 .989 .265 .251)" gradientUnits="userSpaceOnUse" xlink:href="#c"/><linearGradient id="c"><stop offset="0" stop-color="#888a85"/><stop offset="1" stop-color="#51534f"/></linearGradient><linearGradient id="r" x1="287.517" x2="289.676" y1="-439.753" y2="-436.322" gradientUnits="userSpaceOnUse" xlink:href="#d"/><linearGradient id="d"><stop offset="0" stop-color="#fff"/><stop offset="1" stop-color="#fff" stop-opacity="0"/></linearGradient><linearGradient id="s" x1="286.512" x2="289.854" y1="-441.291" y2="-436.145" gradientUnits="userSpaceOnUse" xlink:href="#e"/><linearGradient id="e"><stop offset="0" stop-color="#fff"/><stop offset="1" stop-color="#fff" stop-opacity="0"/></linearGradient><linearGradient id="t" x1="285.941" x2="289.391" y1="-439.939" y2="-436.443" gradientUnits="userSpaceOnUse" xlink:href="#f"/><linearGradient id="f"><stop offset="0" stop-color="#fff"/><stop offset="1" stop-color="#fff" stop-opacity="0"/></linearGradient><linearGradient id="u" x1="275.942" x2="279.975" y1="-437.105" y2="-431.918" gradientUnits="userSpaceOnUse" xlink:href="#g"/><linearGradient id="g"><stop offset="0" stop-color="#fff"/><stop offset="1" stop-color="#fff" stop-opacity="0"/></linearGradient><linearGradient id="v" x1="286.666" x2="289.766" y1="-439.484" y2="-436.707" gradientUnits="userSpaceOnUse" xlink:href="#h"/><linearGradient id="h"><stop offset="0" stop-color="#fff"/><stop offset="1" stop-color="#fff" stop-opacity="0"/></linearGradient><linearGradient id="w" x1="284.802" x2="288.9" y1="-441.233" y2="-436.831" gradientUnits="userSpaceOnUse" xlink:href="#f"/><linearGradient id="x" x1="286.246" x2="290.121" y1="-434.732" y2="-439.69" gradientUnits="userSpaceOnUse" xlink:href="#d"/><linearGradient id="y" x1="287.147" x2="289.473" y1="-434.809" y2="-437.594" gradientUnits="userSpaceOnUse" xlink:href="#e"/><linearGradient id="z" x1="286.014" x2="288.375" y1="-435.546" y2="-438.971" gradientUnits="userSpaceOnUse" xlink:href="#f"/><linearGradient id="A" x1="276.614" x2="283.463" y1="-431" y2="-438.722" gradientUnits="userSpaceOnUse" xlink:href="#i"/><linearGradient id="i"><stop offset="0" stop-color="#fff"/><stop offset="1" stop-color="#fff" stop-opacity="0"/></linearGradient><linearGradient id="B" x1="286.295" x2="289.395" y1="-435.628" y2="-438.19" gradientUnits="userSpaceOnUse" xlink:href="#h"/><linearGradient id="C" x1="286.415" x2="290.078" y1="-435.784" y2="-439.289" gradientUnits="userSpaceOnUse" xlink:href="#f"/><linearGradient id="D" x1="286.415" x2="288.375" y1="-435.784" y2="-437.888" gradientUnits="userSpaceOnUse" xlink:href="#f"/><linearGradient x1="271.022" x2="285.029" y1="-441.052" y2="-431.97" gradientTransform="matrix(1.452 0 0 1.286 -383.21 574.384)" gradientUnits="userSpaceOnUse" xlink:href="#i"/><linearGradient x1="29.124" x2="27.356" y1="38.897" y2="34.879" gradientUnits="userSpaceOnUse" xlink:href="#j"/><linearGradient id="j"><stop offset="0" stop-color="#5d5b58"/><stop offset="1" stop-color="#5d5b58" stop-opacity="0"/></linearGradient><linearGradient x1="29.124" x2="27.356" y1="38.897" y2="34.879" gradientTransform="matrix(.917 -.399 .399 .917 -4.08 7.972)" gradientUnits="userSpaceOnUse" xlink:href="#k"/><linearGradient id="k"><stop offset="0" stop-color="#74726e"/><stop offset="1" stop-color="#5d5b58" stop-opacity="0"/></linearGradient><linearGradient id="H" x1="15.989" x2="15.785" y1="48.715" y2="22.666" gradientTransform="matrix(.317 -.087 0 .329 -.228 .046)" xlink:href="#l" gradientUnits="userSpaceOnUse"/><linearGradient id="l"><stop offset="0" stop-color="#888a85"/><stop offset="1" stop-color="#eeeeec"/></linearGradient><linearGradient id="I" x1="19.105" x2="47.62" y1="25.414" y2="51.222" gradientTransform="matrix(.329 0 0 .329 -.236 -.016)" xlink:href="#m" gradientUnits="userSpaceOnUse"/><linearGradient id="m"><stop offset="0" stop-color="#eeeeec"/><stop offset="1" stop-color="#d3d7cf"/></linearGradient><radialGradient id="J" cx="24.803" cy="22.491" r="9.718" xlink:href="#n" fx="24.803" fy="22.491" gradientTransform="matrix(.434 .005 -.005 .473 -2.731 -3.658)" gradientUnits="userSpaceOnUse"/><linearGradient id="n"><stop offset="0" stop-color="#8ae234" stop-opacity="0"/><stop offset=".653" stop-color="#4e9a06" stop-opacity="0"/><stop offset="1" stop-color="#4e9a06"/></linearGradient><linearGradient id="K" x1="24.607" x2="44.875" y1="27.237" y2="47.974" gradientTransform="matrix(.329 0 0 .329 -.236 -.016)" xlink:href="#o" gradientUnits="userSpaceOnUse"/><linearGradient id="o"><stop offset="0"/><stop offset="1" stop-color="#fff"/></linearGradient><linearGradient x1="29.124" x2="27.356" y1="38.897" y2="34.879" gradientTransform="matrix(.917 -.399 .399 .917 -4.08 7.972)" gradientUnits="userSpaceOnUse" xlink:href="#k"/><linearGradient id="G" x1="29.124" x2="27.356" y1="38.897" y2="34.879" xlink:href="#k" gradientUnits="userSpaceOnUse" gradientTransform="matrix(.301 -.131 .131 .301 -1.515 2.639)"/><linearGradient id="F" x1="29.124" x2="27.356" y1="38.897" y2="34.879" xlink:href="#j" gradientUnits="userSpaceOnUse" gradientTransform="matrix(.329 0 0 .329 -.174 .019)"/><linearGradient id="E" x1="271.022" x2="285.029" y1="-441.052" y2="-431.97" xlink:href="#i" gradientUnits="userSpaceOnUse" gradientTransform="matrix(.477 0 0 .423 -126.113 188.786)"/><linearGradient id="q" x1="20.73" x2="23.296" y1="29.815" y2="45.056" xlink:href="#c" gradientUnits="userSpaceOnUse" gradientTransform="matrix(.325 0 0 .325 -.087 .102)"/></defs><g><path fill="url(#p)" fill-rule="evenodd" d="M41.9 44.42a18.56 3.58 0 1 1-37.13 0 18.56 3.58 0 1 1 37.13 0z" transform="matrix(.377 0 0 .377 -1.31 -2.143)" color="#000" overflow="visible"/><path fill="#c4c5c2" stroke="url(#q)" stroke-width=".5" stroke-miterlimit="2" d="M14.12 7.54c.18.28.52.95.52 1.3 0 .73-.48 1.35-1.16 1.7.1.22.17.45.17.7 0 1.2-1.1 2.2-2.47 2.2-.42 0-.8-.13-1.13-.3-.3.92-1.22 1.6-2.34 1.6-1.1 0-2.02-.68-2.33-1.6-.34.17-.7.3-1.12.3-1.37 0-2.48-1-2.48-2.2 0-.25.08-.48.17-.7-.68-.35-1.16-.97-1.16-1.7 0-.4.13-1.32.33-1.65-.2-.32-.3-.66-.3-1.02 0-.74.47-1.36 1.15-1.7-.1-.22-.17-.45-.17-.7 0-1.2 1.1-2.2 2.47-2.2.42 0 .8.12 1.13.28.3-.9 1.2-1.6 2.34-1.6 1.12 0 2.03.7 2.33 1.6.35-.16.72-.27 1.13-.27 1.37 0 2.48.97 2.48 2.17 0 .26-.08.5-.17.7.67.35 1.15.97 1.15 1.7 0 .34-.36 1.1-.53 1.37z"/><g><path fill="#c4c5c2" d="M9.5 2.55c0 .85-.8 1.55-1.76 1.55C6.77 4.1 6 3.4 6 2.55 6 1.7 6.76 1 7.73 1s1.75.7 1.75 1.55z"/><path fill="url(#r)" d="M291.7-437.6c0 1.84-1.5 3.32-3.32 3.32-1.83 0-3.32-1.48-3.32-3.3 0-1.84 1.5-3.33 3.3-3.33 1.84 0 3.33 1.48 3.33 3.3z" transform="matrix(.53 0 0 .467 -144.82 206.899)"/></g><path fill="#c4c5c2" d="M2.97 3.52h10V7.5h-10z"/><path fill="#c4c5c2" d="M4.47 6.18a1.5 1.33 0 1 1-3 0 1.5 1.33 0 1 1 3 0z"/><g><path fill="#c4c5c2" d="M13 3.88c0 .85-.8 1.54-1.76 1.54S9.5 4.72 9.5 3.88c0-.86.78-1.55 1.74-1.55.97 0 1.76.7 1.76 1.55z"/><path fill="url(#s)" d="M291.7-437.6c0 1.84-1.5 3.32-3.32 3.32-1.83 0-3.32-1.48-3.32-3.3 0-1.84 1.5-3.33 3.3-3.33 1.84 0 3.33 1.48 3.33 3.3z" transform="matrix(.53 0 0 .467 -141.313 208.225)"/></g><g><path fill="#c4c5c2" d="M6 3.88c0 .85-.8 1.54-1.76 1.54-.97 0-1.76-.7-1.76-1.54 0-.86.8-1.55 1.76-1.55S6 3.03 6 3.88z"/><path fill="url(#t)" d="M291.7-437.6c0 1.84-1.5 3.32-3.32 3.32-1.83 0-3.32-1.48-3.32-3.3 0-1.84 1.5-3.33 3.3-3.33 1.84 0 3.33 1.48 3.33 3.3z" transform="matrix(.53 0 0 .467 -148.327 208.225)"/></g><g><path fill="#c4c5c2" d="M7.2 2.2c-1.8 0-3.23 1.3-3.23 2.9 0 1.03.67 1.9 1.62 2.4h3.23c.95-.5 1.63-1.38 1.63-2.43C10.46 3.5 9 2.2 7.2 2.2z"/><path fill="url(#u)" d="M280.5-441c-3.6 0-6.5 2.9-6.5 6.5 0 2.38 1.34 4.37 3.25 5.5h6.5c1.9-1.13 3.25-3.12 3.25-5.5 0-3.6-2.9-6.5-6.5-6.5z" transform="matrix(.501 0 0 .442 -133.197 197.236)"/></g><path fill="url(#v)" d="M291.7-437.6a3.3 3.3 0 1 1-6.64 0 3.3 3.3 0 1 1 6.63 0z" transform="matrix(.453 0 0 .401 -127.776 181.452)"/><g><path fill="#c4c5c2" d="M11.62 5.76c0 .98-.9 1.77-2 1.77s-2-.8-2-1.77c0-.98.9-1.77 2-1.77s2 .78 2 1.76z"/><path fill="url(#w)" d="M291.7-437.6c0 1.84-1.5 3.32-3.32 3.32-1.83 0-3.32-1.48-3.32-3.3 0-1.84 1.5-3.33 3.3-3.33 1.84 0 3.33 1.48 3.33 3.3z" transform="matrix(.605 0 0 .534 -164.845 239.423)"/></g><g><path fill="#c4c5c2" d="M9.5 12.5c0-.86-.8-1.55-1.77-1.55-.96 0-1.75.7-1.75 1.54 0 .85.8 1.54 1.75 1.54.97 0 1.76-.7 1.76-1.55z"/><path fill="url(#x)" d="M291.7-437.6c0 1.84-1.5 3.32-3.32 3.32-1.83 0-3.32-1.48-3.32-3.3 0-1.84 1.5-3.33 3.3-3.33 1.84 0 3.33 1.48 3.33 3.3z" transform="matrix(.53 0 0 -.467 -144.826 -191.858)"/></g><path fill="#c4c5c2" d="M2.96 11.52h10V7.54h-10z"/><path fill="#c4c5c2" d="M4.46 8.86C4.46 7.84 3.2 7.2 2.2 7.7c-.45.25-.74.7-.74 1.16 0 1.02 1.25 1.66 2.25 1.15.48-.22.76-.66.76-1.14z"/><g><path fill="#c4c5c2" d="M13 11.17c0-.86-.8-1.55-1.76-1.55-.97 0-1.75.7-1.75 1.55 0 .85.77 1.54 1.74 1.54S13 12.03 13 11.18z"/><path fill="url(#y)" d="M291.7-437.6c0 1.84-1.5 3.32-3.32 3.32-1.83 0-3.32-1.48-3.32-3.3 0-1.84 1.5-3.33 3.3-3.33 1.84 0 3.33 1.48 3.33 3.3z" transform="matrix(.53 0 0 -.467 -141.319 -193.184)"/></g><g><path fill="#c4c5c2" d="M5.98 11.17c0-.86-.78-1.55-1.75-1.55s-1.75.7-1.75 1.55c0 .85.78 1.54 1.75 1.54s1.75-.68 1.75-1.53z"/><path fill="url(#z)" d="M291.7-437.6c0 1.84-1.5 3.32-3.32 3.32-1.83 0-3.32-1.48-3.32-3.3 0-1.84 1.5-3.33 3.3-3.33 1.84 0 3.33 1.48 3.33 3.3z" transform="matrix(.53 0 0 -.467 -148.333 -193.184)"/></g><g><path fill="#c4c5c2" d="M7.2 12.83c-1.8 0-3.24-1.3-3.24-2.87 0-1.05.68-1.92 1.63-2.42h3.23c.95.5 1.62 1.38 1.62 2.43 0 1.58-1.46 2.86-3.25 2.86z"/><path fill="url(#A)" d="M280.5-441c-3.6 0-6.5 2.9-6.5 6.5 0 2.38 1.34 4.37 3.25 5.5h6.5c1.9-1.13 3.25-3.12 3.25-5.5 0-3.6-2.9-6.5-6.5-6.5z" transform="matrix(.501 0 0 -.442 -133.203 -182.195)"/></g><path fill="url(#B)" d="M291.7-437.6a3.3 3.3 0 1 1-6.64 0 3.3 3.3 0 1 1 6.63 0z" transform="matrix(.453 0 0 -.401 -127.782 -166.411)"/><g><path fill="#c4c5c2" d="M10.27 8.4c0-1-.9-1.78-2-1.78s-2 .8-2 1.77.9 1.76 2 1.76 2-.8 2-1.77z"/><path fill="url(#C)" d="M291.7-437.6c0 1.84-1.5 3.32-3.32 3.32-1.83 0-3.32-1.48-3.32-3.3 0-1.84 1.5-3.33 3.3-3.33 1.84 0 3.33 1.48 3.33 3.3z" transform="matrix(.605 0 0 -.534 -166.195 -225.273)"/></g><g><path fill="#c4c5c2" d="M13.43 7.42c0-.98-.9-1.77-2-1.77s-2 .8-2 1.77.9 1.77 2 1.77 2-.8 2-1.78z"/><path fill="url(#D)" d="M291.7-437.6c0 1.84-1.5 3.32-3.32 3.32-1.83 0-3.32-1.48-3.32-3.3 0-1.84 1.5-3.33 3.3-3.33 1.84 0 3.33 1.48 3.33 3.3z" transform="matrix(.605 0 0 -.534 -163.032 -226.247)"/></g><path fill="url(#E)" stroke="#fff" stroke-opacity=".502" stroke-width=".329" stroke-miterlimit="2" d="M1.64 7.26c-.33.33-.4 1.16-.4 1.64 0 .63.54 1.17 1.17 1.48-.07.2-.2.48-.2.7 0 1.12.9 1.96 2.2 1.96.4 0 .87-.23 1.2-.38.3 1.06 1 1.7 2.05 1.7 1.05 0 1.85-.66 2.16-1.7.32.16.92.4 1.3.4 1.27 0 2.1-.86 2.1-1.97 0-.24-.15-.56-.23-.77.63-.3 1.16-.76 1.16-1.43 0-.44-.28-.82-.58-1.34.3-.52.58-.97.58-1.44 0-.67-.53-1.13-1.16-1.43.08-.22.22-.54.22-.77 0-1.1-1.02-1.93-2.3-1.93-.37 0-.77.2-1.1.35C9.5 1.33 8.75.73 7.7.73c-1.05 0-1.78.57-2.1 1.63C5.28 2.2 4.86 2 4.47 2c-1.3 0-2.26.83-2.26 1.93 0 .23.13.56.22.77-.64.3-1.17.8-1.17 1.42 0 .47.08.83.4 1.14z"/><path fill="#888a85" fill-rule="evenodd" d="M13.8 4.1c0 1.16-1.6 1.6-1.6 1.6s1.16-.7 1.16-1.6c0 0 .45 0 .45 0z"/><path fill="url(#F)" fill-rule="evenodd" d="M10.28 13.5c-1.26-.2-1.46-2.02-1.46-2.02s.56 1.37 1.53 1.53c0 0-.07.5-.07.5z"/><path fill="url(#G)" fill-rule="evenodd" d="M13.45 10.83c-1.24.3-2.15-1.27-2.15-1.27s1.07 1.03 2.02.78c0 0 .13.5.13.5z"/><path fill="url(#H)" stroke="#2e3436" stroke-width=".5" stroke-miterlimit="2" d="M5.54 4.78l6.76-1.85c.5-.14.94.03 1.24.22l1.3.8-.85 6.72c-.14.96-.77 1.95-1.7 2.2l-6.5 2.58-1.44-.9c-.33-.2-.5-.62-.5-1.1V6.98c0-.98.75-1.96 1.68-2.22z" color="#000" overflow="visible" enable-background="accumulate"/><rect width="10.502" height="9.95" x="5.467" y="7.58" fill="url(#I)" stroke="#2e3436" stroke-width=".509" stroke-miterlimit="2" transform="matrix(.964 -.265 0 1 0 0)" enable-background="accumulate" ry="1.748" overflow="visible" color="#000"/><rect width="8.013" height="7.602" x="6.813" y="8.765" fill="#2e3436" transform="matrix(.964 -.265 0 1 0 0)" ry="1.335" color="#000" overflow="visible" enable-background="accumulate"/><path fill="url(#J)" d="M12.68 5.28c-.1.2-.2.4-.26.52.18.28.52.95.52 1.3 0 .73-.48 1.35-1.16 1.7.1.2.17.44.17.7 0 1.2-1.1 2.18-2.48 2.18-.4 0-.78-.1-1.13-.27-.24.75-.9 1.34-1.73 1.53L6.56 8.2l.87-1.5z"/><rect width="9.86" height="9.344" x="5.788" y="7.884" fill="none" stroke="#fff" stroke-width=".335" stroke-miterlimit="2" ry="1.39" transform="matrix(.964 -.265 0 1 0 0)" overflow="visible" enable-background="accumulate" color="#000"/><path fill="none" stroke="#4e9a06" stroke-width="1.25" stroke-miterlimit="2" d="M12.68 5.28c-.1.2-.2.4-.26.52.18.28.52.95.52 1.3 0 .73-.48 1.35-1.16 1.7.1.2.17.44.17.7 0 1.2-1.1 2.18-2.48 2.18-.4 0-.78-.1-1.13-.27-.24.75-.9 1.34-1.73 1.53"/><path fill="none" stroke="#8ae234" stroke-width=".75" stroke-miterlimit="2" d="M12.68 5.28c-.1.2-.2.4-.26.52.18.28.52.95.52 1.3 0 .73-.48 1.35-1.16 1.7.1.2.17.44.17.7 0 1.2-1.1 2.18-2.48 2.18-.4 0-.78-.1-1.13-.27-.24.75-.9 1.34-1.73 1.53"/><path fill="none" stroke="#eeeeec" stroke-width=".25" stroke-miterlimit="2" d="M12.68 5.28c-.1.2-.2.4-.26.52.18.28.52.95.52 1.3 0 .73-.48 1.35-1.16 1.7.1.2.17.44.17.7 0 1.2-1.1 2.18-2.48 2.18-.4 0-.78-.1-1.13-.27-.24.75-.9 1.34-1.73 1.53"/><rect width="8.013" height="7.602" x="6.813" y="8.765" fill="none" stroke="url(#K)" stroke-width=".713" stroke-miterlimit="2" transform="matrix(.964 -.265 0 1 0 0)" ry="1.335" overflow="visible" enable-background="accumulate" color="#000"/></g></svg>