<svg xmlns="http://www.w3.org/2000/svg" width="16" height="16"><title>chop_info</title><desc>Created with Sketch.</desc><defs><linearGradient id="a" x1="51.191%" x2="51.512%" y1="8.484%" y2="98.885%"><stop stop-color="#EEEEEC" offset="0%"/><stop stop-color="#616157" offset="100%"/></linearGradient><linearGradient id="b" x1="50.813%" x2="50%" y1="-1.25%" y2="105.714%"><stop stop-color="#fff" offset="0%"/><stop stop-color="#EEEEEC" stop-opacity=".21" offset="100%"/></linearGradient><radialGradient id="c" cx="37.499%" cy="39.551%" r="51.429%" fx="37.499%" fy="39.551%"><stop stop-color="#007400" offset="0%"/><stop stop-color="#2A392A" offset="100%"/></radialGradient><linearGradient id="d" x1="50%" x2="50%" y1="102.358%" y2="-1.368%"><stop stop-color="#EEEEEC" offset="0%"/><stop stop-color="#fff" offset="100%"/></linearGradient></defs><g fill="none"><g><path fill="url(#a)" stroke="#2E3436" d="M15.14 8.07c0 2.52-1.35 4.86-3.54 6.12-2.18 1.25-4.88 1.25-7.07 0C2.35 12.92 1 10.6 1 8.06S2.35 3.2 4.53 1.95c2.2-1.27 4.9-1.27 7.07 0 2.2 1.26 3.54 3.6 3.54 6.12z"/><path stroke="url(#b)" d="M15.14 8.07c0 2.52-1.35 4.86-3.54 6.12-2.18 1.25-4.88 1.25-7.07 0C2.35 12.92 1 10.6 1 8.06S2.35 3.2 4.53 1.95c2.2-1.27 4.9-1.27 7.07 0 2.2 1.26 3.54 3.6 3.54 6.12z"/><path fill="url(#c)" d="M15.14 8.07c0 2.52-1.35 4.86-3.54 6.12-2.18 1.25-4.88 1.25-7.07 0C2.35 12.92 1 10.6 1 8.06S2.35 3.2 4.53 1.95c2.2-1.27 4.9-1.27 7.07 0 2.2 1.26 3.54 3.6 3.54 6.12z"/><g><path stroke="#57A10F" stroke-width="3" d="M14 9.75c-.88-.87-.8-3.73-2-3.73-1.44 0-1.05 4-2.6 3.98-1.56 0-1.16-4-2.6-4-1.44 0-1.05 4-2.6 4C2.8 10 3 6.8 2 6.13"/><path stroke="#EEEEEC" d="M14 9.75c-.88-.87-.8-3.73-2-3.73-1.44 0-1.05 4-2.6 3.98-1.56 0-1.16-4-2.6-4-1.44 0-1.05 4-2.6 4C2.8 10 3 6.8 2 6.13"/></g><path stroke="url(#d)" stroke-width=".972" d="M15.14 8.07c0 2.52-1.35 4.86-3.54 6.12-2.18 1.25-4.88 1.25-7.07 0C2.35 12.92 1 10.6 1 8.06S2.35 3.2 4.53 1.95c2.2-1.27 4.9-1.27 7.07 0 2.2 1.26 3.54 3.6 3.54 6.12z"/></g></g></svg>