<svg xmlns="http://www.w3.org/2000/svg" width="16" height="16"><title>16</title><desc>Created with Sketch.</desc><g fill="none"><g><g transform="translate(1 2)"><path fill="#25AAA3" d="M13.06 7.5c-.62.78-1.47 1.4-2.54 1.83C9.44 9.78 8.27 10 7 10c-.36 0-.74-.02-1.13-.06-1.03.9-2.23 1.54-3.6 1.9-.25.06-.55.12-.9.16-.08 0-.16 0-.23-.07-.07-.06-.1-.13-.13-.23 0-.03 0-.06 0-.1.02-.04.02-.07.02-.08 0 0 0-.03.03-.07.03-.04.05-.06.05-.07 0 0 .02-.03.06-.07.03-.02.05-.05.06-.06.04-.04.12-.13.24-.27.13-.14.22-.23.27-.3.06-.05.14-.16.24-.3.1-.15.2-.28.26-.4s.13-.27.2-.46c.1-.18.15-.38.2-.6C1.84 8.46 1.2 7.9.72 7.2.25 6.5 0 5.78 0 5c0-.68.18-1.32.55-1.94.37-.62.87-1.15 1.5-1.6C2.67 1 3.42.66 4.28.4 5.15.12 6.05 0 7 0c1.27 0 2.44.22 3.52.67 1.07.44 1.92 1.05 2.54 1.82.63.76.94 1.6.94 2.5 0 .9-.3 1.74-.94 2.5z"/><rect width="2" height="8" x="6" y="1" fill="#000" transform="rotate(-270 7 5)" rx="1"/></g></g></g></svg>