<svg xmlns="http://www.w3.org/2000/svg" width="16" height="16" xmlns:xlink="http://www.w3.org/1999/xlink"><title>cop2_info</title><desc>Created with Sketch.</desc><defs><path id="a" d="M1 2h14v12H1z"/><mask id="b" width="14" height="12" x="0" y="0"><use xlink:href="#a"/></mask></defs><g fill="none"><g><use fill="#4990E2" stroke="#000" stroke-width="2" mask="url(#b)" xlink:href="#a"/><path id="Path" fill="#87D0CC" d="M13.07 8.82v3.25H2.87v-1.4l2.3-2.3L6.35 9.5l3.7-3.72z"/><path fill="#F8E81C" d="M5.64 6.04c0 .38-.13.7-.4.98-.27.27-.6.4-1 .4-.38 0-.7-.13-.98-.4-.27-.27-.4-.6-.4-.98 0-.4.13-.72.4-1 .27-.26.6-.4 1-.4.38 0 .7.14.98.4.27.28.4.6.4 1z"/></g></g></svg>