<svg xmlns="http://www.w3.org/2000/svg" width="16" height="16"><title>dop_info</title><desc>Created with Sketch.</desc><defs><linearGradient id="a" x1="0%" y1="50%" y2="50%"><stop stop-color="#F24D4D" offset="0%"/><stop stop-color="#A40000" offset="100%"/></linearGradient><linearGradient id="b" x1="-6.173%" x2="88.889%" y1="-77.937%" y2="-77.937%"><stop stop-color="#F24D4D" offset="0%"/><stop stop-color="#A40000" offset="100%"/></linearGradient><linearGradient id="c" x1="7.692%" x2="92.308%" y1="23.564%" y2="77.07%"><stop stop-color="#F24D4D" offset="0%"/><stop stop-color="#A40000" offset="100%"/></linearGradient><linearGradient id="d" x1="11.538%" x2="96.154%" y1="14.013%" y2="73.646%"><stop stop-color="#F24D4D" offset="0%"/><stop stop-color="#A40000" offset="100%"/></linearGradient><linearGradient id="e" x1="6.849%" x2="83.562%" y1="15.293%" y2="94.166%"><stop stop-color="#F24D4D" offset="0%"/><stop stop-color="#A40000" offset="100%"/></linearGradient><linearGradient id="f" x1="13.829%" x2="92.937%" y1="9.582%" y2="86.428%"><stop stop-color="#F24D4D" offset="0%"/><stop stop-color="#A40000" offset="100%"/></linearGradient><radialGradient id="g" cx="35.535%" cy="37.108%" r="51.542%" fx="35.535%" fy="37.108%"><stop stop-color="#E9F3FD" offset="0%"/><stop stop-color="#3374BB" offset="100%"/></radialGradient></defs><g fill="none"><g><g><path fill="#EEEEEC" d="M2.37.22c.5-.08 1.07.3 1.2.95.13.67-.16 1.74-.07 2.46C3.65 4.83 4.84 5.8 5 7c.13 1.15-.66 3.6-.66 3.6-.3.32-.9.4-1.37.25 0 0-1.44-1.9-1.62-3.04-.2-1.35.78-2.68.73-4.06-.03-.77-.57-1.58-.58-2.26 0-.7.36-1.2.87-1.26z"/><path fill="url(#a)" d="M.77 2.87c.4-.35 1.17-.46 1.7-.2l-.04.7C1.98 3.16 1.4 3.2 1 3.5l-.23-.63z" transform="translate(1 -.207)"/><path fill="url(#b)" d="M1.12 4.23c.35-.3.96-.3 1.44-.18l.2.65c-.6-.2-1.18-.14-1.8.17l.16-.64z" transform="translate(1 -.207)"/></g><g><path fill="#EEEEEC" d="M7.92 6.07c.66-1.23 2.18-1.8 2.9-3.02.4-.72.3-1.84.7-2.4.33-.45 1.06-.7 1.55-.48.46.2.73.88.62 1.37-.22.98-1.2 1.48-1.5 2.36-.43 1.25.1 2.73-.42 3.94-.56 1.27-2.74 3.13-2.74 3.13-.63-.03-1.26-.27-1.62-.77 0 0-.25-2.75.5-4.13z"/><path fill="url(#c)" d="M4.53 2.1c.55-.45 1.55-.07 1.8.75l-.45.6c-.16-.6-.98-1.1-1.5-.7l.15-.65z" transform="translate(6.595 -.025)"/><path fill="url(#d)" d="M4.06 3.3c.65-.3 1.27.12 1.57.6l-.23.64c-.27-.6-1.1-.9-1.7-.75l.36-.5z" transform="translate(6.595 -.025)"/></g><g><path fill="#EEEEEC" d="M7.73 14.03s.7-2.58 1.63-3.4c1.04-.94 1.78-.47 2.72-1.06.9-.55.85-1.76 1.63-2.13.55-.26 1.4-.3 1.8.13.45.5.3 1.42-.03 2-.38.7-1.62.73-2.05 1.4-.5.74-.2 2.03-1.4 3.04-.87.75-3.33 1.16-3.33 1.16-.4-.12-.9-.72-.97-1.13z"/><path fill="url(#e)" d="M6.05 2.06c.05 1.03.6 1.44 1.58 1.55l-.7.35c-.86-.13-1.17-.5-1.25-1.33l.37-.56z" transform="translate(6.873 6.583)"/><path fill="url(#f)" d="M5.5 2.78c-.23.85.36 1.52 1.25 1.28l-.32.5c-1.02.56-1.87-.9-1.47-1.4l.53-.38z" transform="translate(6.873 6.583)"/></g><g><path fill="url(#g)" d="M10.13 4.7c0 1.68-.9 3.23-2.34 4.06-1.46.84-3.25.84-4.7 0C1.65 7.93.76 6.38.76 4.7c0-1.67.9-3.22 2.34-4.06C4.55-.2 6.34-.2 7.8.64c1.44.84 2.33 2.4 2.33 4.06z" transform="translate(1 5.253)"/><path fill="#000" d="M3.94 8.92c-.1.27-.28.48-.46.56-.17.08-.32.02-.4-.16-.06-.18-.04-.46.07-.72.1-.26.28-.47.45-.55.18-.08.33-.02.4.16.07.2.05.46-.06.72"/><path fill="#000" d="M4.08 11.3c.12.3.15.62.08.82-.08.2-.24.27-.44.18-.2-.1-.4-.34-.5-.63-.13-.3-.16-.6-.08-.8.07-.2.24-.28.43-.2.2.1.4.35.5.64"/><path fill="#000" d="M6.12 10.22c0 .3-.15.55-.4.7-.23.13-.53.13-.77 0-.24-.15-.4-.4-.4-.7 0-.28.16-.55.4-.7.24-.13.54-.13.78 0 .24.15.4.42.4.7z"/></g></g></g></svg>