<svg xmlns="http://www.w3.org/2000/svg" width="16" height="16" xmlns:xlink="http://www.w3.org/1999/xlink"><title>export_flag</title><desc>Created with Sketch.</desc><defs><path id="a" d="M5.84 13H4.38C3.06 13 2 11.88 2 10.5v-5C2 4.12 3.07 3 4.38 3h1.34"/><mask id="b" width="3.84" height="10" x="0" y="0"><use xlink:href="#a"/></mask></defs><g fill="none"><g><path fill="#FFA600" d="M13.84 8.37l-4.6 4.47c-.1.1-.23.16-.38.16-.14 0-.27-.05-.38-.16-.1-.1-.16-.22-.16-.37V10.1H5.54c-.15 0-.27-.05-.38-.15-.1-.1-.16-.23-.16-.37V6.42c0-.14.05-.26.16-.37.1-.1.23-.16.38-.16h2.78V3.52c0-.15.06-.27.16-.37.1-.1.24-.16.38-.16.15 0 .28.05.38.16l4.6 4.47c.1.1.16.23.16.37 0 .14-.05.27-.16.37z"/><use stroke="#FFA600" stroke-width="2" mask="url(#b)" stroke-linecap="round" xlink:href="#a"/></g></g></svg>