<svg xmlns="http://www.w3.org/2000/svg" width="16" height="16"><title>changed</title><desc>Created with Sketch.</desc><g fill="none"><g><path fill="#E1AC55" d="M10 4v-.3C10 3.54 9.85 2 7.95 2 6.05 2.02 6 3.47 6 3.58l.2 6.37-2 .06L4 3.6C4.02 3.1 4.3 0 8 0c3.68 0 3.97 3.12 4 3.65V4h-2z"/><rect width="12" height="8" x="2" y="7" fill="#E2AC55" rx="2"/><path fill="#fff" fill-opacity=".228" d="M2 9c0-1.1.9-2 2-2h8c1.1 0 2 .9 2 2v4c0 1.1-.9 2-2 2H4c-1.1 0-2-.9-2-2V9zm0 1c0-1.1.9-2 2-2h8c1.1 0 2 .9 2 2v3c0 1.1-.9 2-2 2H4c-1.1 0-2-.9-2-2v-3z"/></g></g></svg>