<svg xmlns="http://www.w3.org/2000/svg" width="16" height="16"><title>hidden_flag</title><desc>Created with Sketch.</desc><g fill="none"><g><path id="Path" fill="#07182C" stroke="#90BECD" d="M15 8.5c0 .18-.05.36-.16.54-.73 1.2-1.7 2.16-2.94 2.88C10.67 12.64 9.37 13 8 13s-2.67-.36-3.9-1.1c-1.23-.7-2.2-1.67-2.94-2.86-.1-.18-.16-.36-.16-.54 0-.18.05-.36.16-.54.73-1.2 1.7-2.15 2.94-2.87C5.33 4.35 6.63 4 8 4s2.67.36 3.9 1.1c1.23.7 2.2 1.67 2.94 2.86.1.18.16.36.16.54z"/><circle cx="8" cy="8" r="3.5" fill="#90BECD"/><path fill="#fff" d="M7.75 5.38c0-.1-.04-.2-.1-.27-.08-.06-.17-.1-.28-.1-.65 0-1.2.23-1.67.7S5 6.72 5 7.37c0 .1.04.2.1.27.08.07.17.1.28.1.1 0 .2-.03.26-.1.07-.07.1-.16.1-.26 0-.45.17-.84.5-1.15.3-.32.7-.48 1.13-.48.1 0 .2-.04.27-.1.07-.08.1-.17.1-.28z"/><path fill="#08192C" d="M13.26 1L7 15H5l6.26-14z"/><path fill="#B9CFD6" d="M12.26 1L6 15H4l6.26-14z"/></g></g></svg>