<svg xmlns="http://www.w3.org/2000/svg" width="16" height="16"><title>info_button</title><desc>Created with Sketch.</desc><g fill="none"><g fill="#fff"><path d="M11 13.1v1.26c0 .18-.06.33-.18.45-.12.14-.26.2-.42.2H5.6c-.16 0-.3-.06-.42-.2-.12-.1-.18-.26-.18-.44V13.1c0-.18.06-.33.18-.46.12-.12.26-.2.42-.2h.6v-3.8h-.6c-.16 0-.3-.07-.42-.2C5.06 8.33 5 8.18 5 8V6.73c0-.18.06-.32.18-.45s.26-.2.42-.2h3.6c.16 0 .3.07.42.2s.18.27.18.45v5.72h.6c.16 0 .3.07.42.2.12.12.18.27.18.44z"/><ellipse cx="8" cy="2.909" rx="1.8" ry="1.909"/></g></g></svg>