<svg xmlns="http://www.w3.org/2000/svg" width="16" height="16"><title>output_flag</title><desc>Created with Sketch.</desc><g fill="none"><g><path fill="#000" d="M1 6C2.98.78 6.35 5 9.94 2l4.66 8.1c-3.1 3.15-6.78-.54-9.28 4.1L1 6z"/><path fill="#DCCAAC" d="M9.92 11.36c1.56 0 3.18.05 4.68-1.47l-2.57-4.3C10.47 6.94 8.98 6.92 7.6 6.82l2.32 4.54zM5.7 3.06C3.8 2.93 2.16 2.74 1 5.8l2.04 3.87C4.2 6.67 5.8 6.8 7.6 6.82L5.7 3.06z"/><path stroke="#F5A623" d="M1 6C2.98.78 6.35 5 9.94 2l4.66 8.1c-3.1 3.15-6.78-.54-9.28 4.1L1 6z"/></g></g></svg>