<svg xmlns="http://www.w3.org/2000/svg" width="16" height="16" xmlns:xlink="http://www.w3.org/1999/xlink"><title>obj_info</title><desc>Created with Sketch.</desc><defs><path id="a" d="M0 2.26S1.2 1 3.66 1C6.1 1 6.9 2.26 6.9 2.26v8.6s-.98 1.33-3.35 1.33c-2.38 0-3.48-1.35-3.48-1.35L0 2.25z"/><mask id="c" width="6.909" height="11.189" x="0" y="0"><use xlink:href="#a"/></mask><ellipse id="b" cx="12" cy="8" rx="4" ry="4"/><mask id="d" width="8" height="8" x="0" y="0"><use xlink:href="#b"/></mask></defs><g fill="none"><g><use fill="#4990E2" stroke="#193A61" stroke-width="2" mask="url(#c)" xlink:href="#a"/><use fill="#EC3349" stroke="#470907" stroke-width="2" mask="url(#d)" xlink:href="#b"/><path fill="#F8E81C" stroke="#6A6311" d="M12.3 12.6c0 1.2-1.5 2.08-4.33 2.08-2.48 0-4.08-.94-4.08-2.06 0-.05 0-.1.02-.13L8 5.25c.05-.08.13-.08.18 0l4.07 7.2c.02.04.03.08.04.13z"/></g></g></svg>