<svg xmlns="http://www.w3.org/2000/svg" width="16" height="16"><title>pin_out</title><desc>Created with Sketch.</desc><defs><linearGradient id="a" x1="20.47%" x2="83.061%" y1="50%" y2="50%"><stop stop-color="#FBDA61" offset="0%"/><stop stop-color="#F76B1C" offset="100%"/></linearGradient></defs><g fill="none"><g><g><path fill="url(#a)" d="M9.96 10.9H.3S.22 8.84.67 8.3c.46-.56.97-.84 1.54-.84v-4.3c-.3 0-.56-.1-.78-.33-.22-.2-.33-.46-.33-.75 0-.3.12-.55.34-.76.22-.2.48-.32.78-.32h5.56c.3 0 .56.1.78.32.22.2.33.47.33.76 0 .3-.12.54-.34.75-.22.22-.48.32-.78.32v4.3c.57 0 1.08.3 1.54.84.45.54.64 2.6.64 2.6z" transform="rotate(90 8 8) translate(3)"/><path fill="#000" fill-opacity=".4" d="M-10.9 12.96s-.08-2.24-.07-2.9c1.3.03 2.87-.24 3.53-1.63.9-.03 4.42-.04 4.42-.04l.03.74 2 .02C-1 9.56-1 11-1 11s-.07.35-.3.56c-.2.2-.5.33-.78.33-.3 0-.54-.12-.75-.34-.22-.22-.32-.48-.32-.78h-4.3c0 .57-.3 1.08-.84 1.54-.54.45-2.6.64-2.6.64z"/><path id="Line" stroke="#fff" stroke-opacity=".459" d="M-1.5 4.5v7" stroke-linecap="square"/><path fill="#fff" fill-opacity=".554" d="M-3 6v1h-5V6z"/><path id="Line" stroke="#000" stroke-opacity=".283" d="M-3.5 5.5v5" stroke-linecap="square"/><path stroke="#000" stroke-opacity=".646" d="M-10.5 3.5v9" stroke-linecap="square"/><path fill="#fff" d="M-10.02 7l-5.57.77.04.45L-10 9l-.02-2z"/></g></g></g></svg>