<svg xmlns="http://www.w3.org/2000/svg" width="16" height="16" xmlns:xlink="http://www.w3.org/1999/xlink"><title>preview_flag</title><desc>Created with Sketch.</desc><defs><rect id="a" width="14" height="14" x="1" y="1" rx="2"/><mask id="b" width="14" height="14" x="0" y="0"><use xlink:href="#a"/></mask></defs><g fill="none"><g><use fill="#08192C" stroke="#4990E2" stroke-width="2" mask="url(#b)" xlink:href="#a"/><path fill="#4A90E2" d="M13 8c0 .12-.04.24-.1.36-.53.8-1.23 1.44-2.1 1.92-.9.48-1.82.72-2.8.72-.98 0-1.9-.24-2.8-.72-.87-.5-1.57-1.13-2.1-1.92C3.05 8.24 3 8.12 3 8s.04-.24.1-.36c.53-.8 1.23-1.43 2.1-1.92C6.1 5.24 7.03 5 8 5c.98 0 1.9.24 2.8.72.87.5 1.57 1.13 2.1 1.92.06.12.1.24.1.36z"/><circle cx="8" cy="8" r="2" fill="#08192C"/></g></g></svg>