<svg xmlns="http://www.w3.org/2000/svg" width="32" height="32"><title>quickmark_set</title><desc>Created with Sketch.</desc><g fill="none"><g><circle cx="16" cy="16" r="16" fill="#000"/><circle cx="16" cy="16" r="14" stroke="#F8E81C" stroke-width="2"/><g stroke="#F8E81C" stroke-width="2" stroke-linecap="round"><path d="M11 12v8"/><path d="M15 16H7"/></g><path fill="#F8E81C" d="M21.12 20.2V13.1c-1.3 1-2.2 1.52-2.65 1.52-.22 0-.4-.1-.58-.26-.18-.18-.27-.38-.27-.6 0-.27.1-.46.25-.6.17-.1.46-.27.88-.47.63-.28 1.13-.6 1.5-.92.38-.33.7-.7 1-1.1.3-.4.48-.65.57-.74.1-.1.25-.14.5-.14.27 0 .5.1.66.32.15.2.23.5.23.87v8.9c0 1.03-.35 1.55-1.06 1.55-.32 0-.57-.1-.76-.32-.18-.2-.28-.53-.28-.94z"/></g></g></svg>