<svg xmlns="http://www.w3.org/2000/svg" width="32" height="32"><title>quickmark_set</title><desc>Created with Sketch.</desc><g fill="none"><g><circle cx="16" cy="16" r="16" fill="#000"/><circle cx="16" cy="16" r="14" stroke="#F8E81C" stroke-width="2"/><g stroke="#F8E81C" stroke-width="2" stroke-linecap="round"><path d="M11 12v8"/><path d="M15 16H7"/></g><path fill="#F8E81C" d="M23.25 11.8h-3.7l-.44 2.5c.75-.4 1.43-.6 2.05-.6.5 0 .96.1 1.4.3.43.18.8.44 1.13.76.33.33.58.72.77 1.17.2.45.28.94.28 1.46 0 .74-.17 1.42-.5 2.04-.34.6-.83 1.1-1.46 1.46-.64.37-1.37.55-2.2.55-.92 0-1.67-.17-2.25-.5-.58-.36-1-.75-1.23-1.2-.25-.43-.37-.82-.37-1.15 0-.2.08-.4.25-.58.17-.18.38-.27.64-.27.43 0 .75.25.97.75.2.47.47.82.82 1.08.36.26.75.38 1.2.38.38 0 .73-.1 1.03-.3.3-.2.54-.5.7-.86.16-.36.24-.77.24-1.24 0-.5-.1-.92-.27-1.27-.18-.36-.4-.62-.7-.8-.3-.17-.63-.26-1-.26-.44 0-.76.06-.95.17-.2.1-.47.3-.83.58-.36.27-.65.4-.9.4-.24 0-.46-.1-.66-.27-.2-.18-.3-.38-.3-.62 0-.02.02-.2.08-.53l.65-3.72c.07-.44.2-.76.4-.97.2-.2.52-.3.97-.3h4.1c.8 0 1.2.3 1.2.93 0 .25-.1.47-.28.64-.2.16-.5.25-.87.25z"/></g></g></svg>