<svg xmlns="http://www.w3.org/2000/svg" width="32" height="32"><title>quickmark_go</title><desc>Created with Sketch.</desc><g fill="none"><g><circle cx="16" cy="16" r="16" fill="#000"/><circle cx="16" cy="16" r="14" stroke="#4990E2" stroke-width="2"/><g stroke="#4990E2" stroke-width="2" stroke-linecap="round"><path d="M11.52 11.66L15 16"/><path d="M12 20l3-4"/><path d="M15 16H7"/></g><path fill="#4990E2" d="M22.34 20.27v-1.45h-3.9c-.5 0-.86-.1-1.1-.33-.26-.23-.38-.54-.38-.92 0-.1.02-.2.06-.3.03-.1.1-.2.16-.32.07-.1.15-.22.22-.32.08-.1.18-.23.3-.38l4.1-5.5c.28-.37.5-.63.67-.8.18-.16.38-.24.63-.24.78 0 1.18.45 1.18 1.35v6h.33c.4 0 .73.07.97.18.24.1.36.34.36.7 0 .3-.1.53-.3.67-.2.13-.5.2-.88.2h-.47v1.45c0 .4-.1.7-.27.9-.16.18-.4.28-.7.28-.28 0-.52-.1-.7-.3-.18-.2-.26-.5-.26-.88zM19 17.07h3.34v-4.5L19 17.07z"/></g></g></svg>