<svg xmlns="http://www.w3.org/2000/svg" width="16" height="16" xmlns:xlink="http://www.w3.org/1999/xlink"><title>render_flag</title><desc>Created with Sketch.</desc><defs><path id="a" d="M8.13 6.25c.8 0 1.46.28 2.03.84.56.56.84 1.23.84 2.03 0 .8-.28 1.46-.84 2.03-.57.56-1.24.84-2.04.84s-1.46-.28-2.03-.84c-.57-.57-.85-1.24-.85-2.04s.28-1.46.84-2.03c.56-.57 1.23-.85 2.03-.85z"/><mask id="b" width="7.75" height="7.75" x="-1" y="-1"><path fill="#fff" d="M4.25 5.25H12V13H4.25z"/><use xlink:href="#a"/></mask></defs><g fill="none"><g><path id="Path" fill="#BFA3F8" d="M13.13 3.85c.52 0 .96.18 1.32.54.37.35.55.78.55 1.3v6.45c0 .5-.18.95-.55 1.3-.36.37-.8.55-1.32.55H2.87c-.52 0-.96-.18-1.32-.54-.37-.36-.55-.8-.55-1.3V5.68c0-.52.18-.95.55-1.3.36-.37.8-.55 1.32-.55H4.5l.37-.98c.1-.24.26-.44.5-.6.25-.18.5-.27.76-.27h3.74c.25 0 .5.1.75.26.25.17.42.37.5.6l.38 1h1.63z"/><g><use fill="#B69FE8" xlink:href="#a"/><use fill="#000" xlink:href="#a"/><use stroke="#000" stroke-width="2" mask="url(#b)" xlink:href="#a"/></g><circle cx="7" cy="8" r="1" fill="#fff"/></g></g></svg>