<svg xmlns="http://www.w3.org/2000/svg" width="16" height="16" xmlns:xlink="http://www.w3.org/1999/xlink"><title>template_flag</title><desc>Created with Sketch.</desc><defs><path id="a" d="M6 1h4v14H6z"/><mask id="b" width="4" height="14" x="0" y="0"><use xlink:href="#a"/></mask></defs><g fill="none"><g><path fill="#8D6195" d="M7.03 1c-4.1-.27-3.65 2.62-6 2.57C1 3.95 1 5.9 1 5.9h5.95s.1-3.74.08-4.9z"/><path fill="#8D6195" d="M9 1.02c4.1-.28 3.65 2.6 6 2.56.02.38.04 2.34.04 2.34H9.1s-.12-3.75-.1-4.9"/><use fill="#B483BE" stroke="#D3B7D9" stroke-width="2" mask="url(#b)" xlink:href="#a"/><g stroke="#fff" stroke-opacity=".47" stroke-linecap="square"><path d="M8.5 3.5h1"/><path d="M8.5 6.5h1"/><path d="M8.5 9.5h1"/><path d="M8.5 12.5h1"/></g><path fill="#F9E7FD" stroke="#000" d="M8.46 15.72v-10L16 11.86l-4.63.8z" stroke-linejoin="bevel"/></g><path stroke="#fff" stroke-opacity=".468" d="M1.03 4.1c2.04-.02 2.67-2.58 5.24-2.62 1.17-.02 2.68-.04 3.54 0 2.74.08 3.07 2.77 5.15 2.6"/></g></svg>