<svg xmlns="http://www.w3.org/2000/svg" width="16" height="16"><title>sop_info</title><desc>Created with Sketch.</desc><g fill="none"><g><path id="Path" fill="#C3C3C3" d="M15 4.23v6.46c0 .2-.05.37-.15.54-.1.17-.24.3-.4.4L8.5 14.86c-.14.1-.3.13-.5.13s-.36-.04-.5-.13l-5.94-3.24c-.17-.1-.3-.22-.4-.4-.1-.16-.16-.34-.16-.54V4.22c0-.22.06-.43.2-.6.12-.2.3-.33.5-.4l5.93-2.16C7.75 1.02 7.88 1 8 1s.25.02.37.07l5.92 2.15c.2.08.38.2.5.4.14.18.2.4.2.6z"/><path id="Path" fill="#fff" d="M8 6l6-2-6-2-6 2z"/><path fill="#000" d="M9 13l5-2.83V5L9 6.9z"/></g></g></svg>