<svg xmlns="http://www.w3.org/2000/svg" width="16" height="16"><title>verbose</title><desc>Created with Sketch.</desc><g fill="none"><g><rect width="12" height="12" x="2" y="2" fill="#fff" rx="3"/><path fill="#000" d="M12 8.5v-1c0-.14-.05-.25-.15-.35-.1-.1-.2-.15-.35-.15H9V4.5c0-.14-.05-.25-.15-.35-.1-.1-.2-.15-.35-.15h-1c-.14 0-.25.05-.35.15-.1.1-.15.2-.15.35V7H4.5c-.14 0-.25.05-.35.15-.1.1-.15.2-.15.35v1c0 .14.05.25.15.35.1.1.2.15.35.15H7v2.5c0 .14.05.25.15.35.1.1.2.15.35.15h1c.14 0 .25-.05.35-.15.1-.1.15-.2.15-.35V9h2.5c.14 0 .25-.05.35-.15.1-.1.15-.2.15-.35z"/></g></g></svg>