<svg xmlns="http://www.w3.org/2000/svg" width="16" height="16"><title>vop_info</title><desc>Created with Sketch.</desc><defs><linearGradient id="a" x1="50%" x2="50%" y1="54.124%" y2="2.101%"><stop stop-color="#9948AE" offset="0%"/><stop stop-color="#EF98E6" offset="100%"/></linearGradient><linearGradient id="b" x1="3.98%" x2="82.612%" y1="73.153%" y2="17.488%"><stop stop-color="#6F2B8C" offset="0%"/><stop stop-color="#AD7FA8" offset="100%"/></linearGradient><linearGradient id="c" x1="-5.647%" x2="103.394%" y1="49.297%" y2="49.297%"><stop stop-color="#894F98" offset="0%"/><stop stop-color="#321C37" offset="100%"/></linearGradient></defs><g fill="none"><g><path fill="url(#a)" d="M7.68 15.52l7.05-9.75-3.65-2.22-3.38 5.6-3.38-5.6L.67 5.77z"/><path fill="#5C3566" d="M4.3 3.6l.8-2.12 2.62 4.3-.02 3.33z"/><path fill="url(#b)" d="M11.08 3.58l-.8-2.12-2.52 4.42-.08 3.3z"/><path stroke="#fff" stroke-opacity=".27" d="M7.68 14.52l6.17-8.58L11.3 4.4l-3.54 5.82-3.68-5.8-2.56 1.52z"/><path fill="url(#c)" d="M14.75 5.77l-1.9-2.9-2.5-1.34.7 2.05z"/><path fill="#AD7FA8" d="M.58 5.77l1.98-2.93 2.54-1.3-.75 2z"/></g></g></svg>