<svg xmlns="http://www.w3.org/2000/svg" width="48" height="48" xmlns:xlink="http://www.w3.org/1999/xlink"><defs><linearGradient id="f"><stop offset="0" stop-color="#9a9c97"/><stop offset="1" stop-color="#20201f"/></linearGradient><linearGradient id="e"><stop offset="0"/><stop offset="1" stop-opacity="0"/></linearGradient><linearGradient id="d"><stop offset="0"/><stop offset="1" stop-opacity="0"/></linearGradient><linearGradient id="c"><stop offset="0" stop-color="#fff"/><stop offset="1" stop-color="#d0d0d0"/></linearGradient><linearGradient id="b"><stop offset="0" stop-color="#fff" stop-opacity=".414"/><stop offset="1" stop-color="#eeeeec" stop-opacity="0"/></linearGradient><linearGradient id="a"><stop offset="0" stop-color="#838383"/><stop offset="1"/></linearGradient><linearGradient id="k" x1="40.714" x2="40.929" y2="21.786" xlink:href="#a" gradientUnits="userSpaceOnUse"/><linearGradient id="h" x1="7.429" x2="7.643" y2="20.643" xlink:href="#a" gradientUnits="userSpaceOnUse"/><linearGradient id="l" x1="11.473" x2="10.027" y1="13.357" y2="9" xlink:href="#b" gradientUnits="userSpaceOnUse" gradientTransform="matrix(.592 0 0 .632 12.614 -1.671)"/><linearGradient id="m" x1="11.473" x2="10.027" y1="13.357" y2="9" xlink:href="#b" gradientUnits="userSpaceOnUse" gradientTransform="matrix(-.592 0 0 .632 35.315 -1.385)"/><linearGradient id="g" x1="24.036" x2="24.036" y1="22.5" y2="48.071" xlink:href="#c" gradientUnits="userSpaceOnUse"/><radialGradient id="j" cx="25.786" cy="4.786" r="2.643" xlink:href="#d" fx="25.786" fy="4.786" gradientUnits="userSpaceOnUse"/><radialGradient id="i" cx="23.929" cy="6.714" r="8.398" xlink:href="#e" fx="23.929" fy="6.714" gradientTransform="matrix(1.332 0 0 .681 -7.937 2.14)" gradientUnits="userSpaceOnUse"/><linearGradient id="o" x1="38.643" x2="39.286" y1=".143" y2="48.357" xlink:href="#f" gradientUnits="userSpaceOnUse"/><linearGradient id="n" x1="12.714" x2="11.857" y1="-.214" y2="47.857" xlink:href="#f" gradientUnits="userSpaceOnUse"/></defs><g><path fill="url(#g)" d="M12.86 0H35.2v48.07H12.87z" color="#000" overflow="visible" enable-background="accumulate"/><path fill="url(#h)" d="M0 0h13.07l4.36 48H0V0z" color="#000" overflow="visible" enable-background="accumulate"/><path fill="url(#i)" d="M22.6 5.3s-4.98-3.7-6.6-3c-1.02.43-.1 2.5 0 4.5.1 1.78-.74 3.47.16 4.06 1.9 1.25 7.43-3.57 7.43-3.57l-1-2zm2.67.14s4.97-3.68 6.57-3c1.04.44.1 2.52 0 4.5-.08 1.8.76 3.48-.14 4.07-1.9 1.26-7.43-3.56-7.43-3.56l1-2z" color="#000" overflow="visible" enable-background="accumulate"/><path fill="url(#j)" d="M28.43 4.8a2.64 2.64 0 1 1-5.3 0 2.64 2.64 0 1 1 5.3 0z" transform="translate(-1.772 1.933)" color="#000" overflow="visible" enable-background="accumulate"/><path fill="none" stroke="#888a85" d="M23.93.07V48"/><path d="M22.57 3.36S17.6-.32 16 .36c-1.03.43-.1 2.5 0 4.5.1 1.78-.75 3.48.14 4.07 1.9 1.25 7.43-3.57 7.43-3.57l-1-2z" color="#000" overflow="visible" enable-background="accumulate"/><path d="M25.26 3.5s4.96-3.67 6.57-3c1.03.45.1 2.53 0 4.5-.1 1.8.75 3.5-.14 4.08-1.9 1.25-7.44-3.57-7.44-3.57l1-2z" color="#000" overflow="visible" enable-background="accumulate"/><path fill="url(#k)" d="M48.07 0H35l-4.36 48h17.43V0z" color="#000" overflow="visible" enable-background="accumulate"/><path d="M26.64 4.8a2.64 2.64 0 1 1-5.28 0 2.64 2.64 0 1 1 5.28 0z" color="#000" overflow="visible" enable-background="accumulate"/><path fill="url(#l)" d="M20.8 4.43s-2.95-2.32-3.9-1.9c-.6.28-.06 1.6 0 2.85.05 1.13-.44 2.2.1 2.58 1.1.8 4.38-2.26 4.38-2.26l-.6-1.27z" color="#000" overflow="visible" enable-background="accumulate"/><path fill="url(#m)" d="M27.14 4.72s2.94-2.33 3.9-1.9c.6.28.05 1.6 0 2.85-.06 1.13.43 2.2-.1 2.57-1.12.8-4.4-2.26-4.4-2.26l.6-1.26z" color="#000" overflow="visible" enable-background="accumulate"/><path fill="none" stroke="url(#n)" stroke-width="1.5" d="M15.5 47.86L3.43 9.3l9.36-9"/><path fill-rule="evenodd" d="M32.36 48.07L44.8 9.64 46.2 12 32.37 48.07z"/><path fill="none" stroke="url(#o)" stroke-width="1.5" d="M32.57 47.8L44.7 9.7 35.3.2"/><path fill="#555753" d="M27.16 12.18a1.04 1.04 0 1 1-2.07 0 1.04 1.04 0 1 1 2.06 0z" color="#000" overflow="visible" enable-background="accumulate"/><path fill="#555753" d="M27.16 23.17a1.04 1.04 0 1 1-2.07 0 1.04 1.04 0 1 1 2.06 0z" color="#000" overflow="visible" enable-background="accumulate"/><path fill="#555753" d="M27.16 34.15a1.04 1.04 0 1 1-2.07 0 1.04 1.04 0 1 1 2.06 0z" color="#000" overflow="visible" enable-background="accumulate"/><path fill="#555753" d="M27.16 45.14a1.04 1.04 0 1 1-2.07 0 1.04 1.04 0 1 1 2.06 0z" color="#000" overflow="visible" enable-background="accumulate"/></g></svg>