<svg xmlns="http://www.w3.org/2000/svg" width="48" height="48" xmlns:xlink="http://www.w3.org/1999/xlink" version="1" viewBox="0 0 612 792" enable-background="new 0 0 612 792"><defs><radialGradient id="l" cx="321.068" cy="392.414" r="20.935" xlink:href="#a" gradientUnits="userSpaceOnUse" gradientTransform="matrix(1.047 0 0 1 -15.894 0)"/><radialGradient id="m" cx="314.806" cy="385.635" r="9.237" xlink:href="#b" gradientUnits="userSpaceOnUse" gradientTransform="matrix(.059 -.998 .732 .04 12.901 684.682)"/><radialGradient id="n" cx="313.241" cy="381.459" r="17.895" xlink:href="#c" gradientUnits="userSpaceOnUse" gradientTransform="matrix(1.047 0 0 1 -15.894 0)"/><radialGradient id="o" cx="320.212" cy="382.899" r="23.079" xlink:href="#d" gradientUnits="userSpaceOnUse" gradientTransform="matrix(1.03 -.181 .019 .098 -17.614 403.183)"/><radialGradient id="p" cx="318.258" cy="380.999" r="6.657" xlink:href="#e" gradientUnits="userSpaceOnUse" gradientTransform="matrix(1.047 0 0 .4 -15.894 228.599)"/><radialGradient id="q" cx="312.371" cy="387.684" r="9.157" xlink:href="#f" gradientUnits="userSpaceOnUse" gradientTransform="matrix(1.047 0 0 1 -15.894 0)"/><radialGradient id="r" cx="318.774" cy="384.516" r="6.164" xlink:href="#g" gradientUnits="userSpaceOnUse" gradientTransform="matrix(1.047 0 0 1 -15.894 0)"/></defs><g transform="matrix(16.689 0 0 16.689 -4779.639 -6207.282)"><defs><path id="h" d="M282.08 372.15h21.67v11.45h-21.67z"/></defs><clipPath id="i"><use width="612" height="792" xlink:href="#h" overflow="visible"/></clipPath><g clip-path="url(#i)"><path fill="none" stroke="#465e76" stroke-width="1.3" stroke-miterlimit="10" d="M282.62 385.94V377.13l.36-.12 1.4-.48.14.07c.3.2.74.4.9.4.2-.03 1.92-.64 3.33-1.2V375l1.5-.52 12.48 5.12.33.12v10.07l-1.63.8-.32-.22c-.2-.12-.42-.24-.56-.24-.06.02-.53.12-3.27 1.5v.74l-1.83.8-12.82-7.2z" stroke-linecap="round" stroke-linejoin="round"/><path fill="none" stroke="#eef1f5" stroke-miterlimit="10" d="M289.07 375.2v.82c-1.27.5-3.42 1.3-3.66 1.3-.33 0-1.04-.43-1.04-.43l-1.4.46-.02 8.38 12.52 7.04 1.5-.65v-.73c1.12-.56 3.23-1.6 3.58-1.6.36 0 .84.35.9.38l1.3-.6v-9.66l-12.5-5.12-1.17.4" stroke-linecap="round" stroke-linejoin="round"/><path fill="none" d="M295.5 383.2l-12.5-5.8v8.37l12.5 7.04v-9.6z"/><path fill="#e1e7ef" d="M302.8 379.95l-1.3.66s-.6-.42-1.05-.42c-.45 0-4.27 1.7-4.27 1.95s.8.4.8.4l-1.48.66-12.5-5.8 1.4-.5s.72.45 1.06.45c.34 0 4.58-1.62 4.58-1.72 0-.1-.93-.4-.93-.4l1.2-.4 12.5 5.12z"/><path fill="#b3bdcc" d="M293.4 377.07c.53.35.5.72-.06.95l-2.58 1.05c-.57.24-1.26.2-1.9-.16l-1.28-.6c-.57-.35-.12-.67.44-.9l2.57-.97c.55-.24.84-.2 1.64.15l1.16.5z"/><path fill="#b3bdcc" d="M298.22 379.18c.55.37.5.74-.07.98l-2.65 1.15c-.58.26-1.33.1-2.08-.22l-1.22-.57c-.6-.35-.15-.72.43-.96l2.5-1.06c.6-.25 1-.25 1.8.1l1.3.6z"/><path fill="#717f8f" d="M297 392.16l-1.5.65v-9.62l1.5-.67v9.66z"/><path fill="#717f8f" d="M302.8 389.6l-1.33.62v-9.6l1.33-.67v9.65z"/><path fill="#717f8f" d="M301.48 380.6c-.02 0-.58-.42-1.04-.42-.46 0-4.27 1.7-4.27 1.95s.8.4.8.4h-.04l.06-.02v8.94c1.1-.57 3.24-1.62 3.6-1.62.35 0 .84.37.88.4v-9.62z"/><path fill="#b3bdcc" d="M295.5 392.8l-12.5-7.03v-8.38l12.5 5.8v9.6z"/><path fill="#b3bdcc" d="M289.1 375.23s.84.3.9.35c.06.07.03.06-.04.1l-.85.37v-.82z"/><path fill="#717f8f" d="M296.92 378.6c-.64-.27-.96-.48-1.62-.2-.94.37-2.68 1.14-2.94 1.27-.46.2-.65.57-.1.9.7.38 1.1.48 1.74.74.7.3 1.37.13 2.06-.23.33-.16.8-.4.84-.37l.03-2.1z"/><path fill="#b3bdcc" d="M301.47 390.2s-.55-.33-.66-.34v-9.6c.3.07.67.35.67.35v9.6z"/><path fill="#b3bdcc" d="M296.92 380.7l-.7.3v-2.7c.1.04.7.3.7.3v2.1z"/><path fill="#717f8f" d="M292.3 376.6c-.65-.26-.97-.47-1.63-.2-.94.38-2.5.94-2.78 1.05-.64.28-.84.6-.2.9.7.4 1.04.54 1.7.8.54.2 1.17.06 2.02-.37.33-.16.8-.35.84-.33l.04-1.84z"/><path fill="#b3bdcc" d="M292.28 378.44l-.68.3-.02-2.42c.12.03.72.28.72.28l-.02 1.84z"/><path fill="none" stroke="#284964" stroke-width=".4" stroke-miterlimit="10" d="M296.9 392.1v-9.5l-1.3.65" stroke-linecap="round" stroke-linejoin="round"/><path fill="none" stroke="#767c90" stroke-width=".08" stroke-miterlimit="10" d="M293.1 382.03v6.28"/><path fill="none" stroke="#767c90" stroke-width=".08" stroke-miterlimit="10" d="M291.2 381.2v1.85"/><path fill="none" stroke="#767c90" stroke-width=".08" stroke-miterlimit="10" d="M284.8 378.2v3.44"/><ellipse cx="285.315" cy="383.201" fill="#8192a7" rx=".086" ry=".351"/><ellipse cx="286.332" cy="385.599" fill="#8192a7" rx=".086" ry=".351"/><ellipse cx="288.047" cy="381.954" fill="#8192a7" rx=".085" ry=".351"/><ellipse cx="292.133" cy="383.611" fill="#8192a7" rx=".085" ry=".351"/><ellipse cx="292.406" cy="385.833" fill="#8192a7" rx=".086" ry=".351"/><ellipse cx="292.668" cy="386.865" fill="#8192a7" rx=".085" ry=".352"/><ellipse cx="294.109" cy="386.651" fill="#8192a7" rx=".085" ry=".351"/><ellipse cx="293.817" cy="389.38" fill="#8192a7" rx=".085" ry=".351"/><ellipse cx="292.121" cy="387.685" fill="#8192a7" rx=".085" ry=".351"/><ellipse cx="301.906" cy="381.642" fill="#3d5f79" rx=".085" ry=".351"/><ellipse cx="302.412" cy="385.346" fill="#3d5f79" rx=".085" ry=".351"/><ellipse cx="297.923" cy="389.283" fill="#3d5f79" rx=".085" ry=".351"/><ellipse cx="298.242" cy="388.503" fill="#3d5f79" rx=".085" ry=".352"/><ellipse cx="296.41" cy="385.267" fill="#3d5f79" rx=".085" ry=".351"/><ellipse cx="295.396" cy="382.422" fill="#c7cdd8" transform="matrix(.443 .896 -.896 .443 507.371 -51.827)" rx=".117" ry=".351"/><ellipse cx="299.139" cy="379.536" fill="#c7cdd8" transform="matrix(.501 .865 -.865 .501 477.463 -69.61)" rx=".117" ry=".352"/><ellipse cx="301.01" cy="379.615" fill="#c7cdd8" transform="matrix(.461 .887 -.887 .461 498.938 -62.582)" rx=".117" ry=".35"/><ellipse cx="291.302" cy="380.043" fill="#c7cdd8" transform="matrix(.451 .893 -.893 .451 499.349 -51.242)" rx=".118" ry=".351"/><ellipse cx="290.328" cy="376.262" fill="#c7cdd8" transform="matrix(.411 .912 -.912 .411 514.03 -43.048)" rx=".117" ry=".351"/><path fill="none" stroke="#133c57" stroke-width=".08" stroke-miterlimit="10" d="M297.9 381.17v6.28"/><path fill="none" stroke="#133c57" stroke-width=".08" stroke-miterlimit="10" d="M298.87 380.75v4.1"/><path fill="none" stroke="#133c57" stroke-width=".08" stroke-miterlimit="10" d="M294.54 378.72v1.17"/><path fill="none" stroke="#133c57" stroke-width=".08" stroke-miterlimit="10" d="M289.86 376.7v2.5"/><path fill="none" stroke="#133c57" stroke-width=".08" stroke-miterlimit="10" d="M289.4 376.9v1.08"/><path fill="none" stroke="#43556d" stroke-width=".08" stroke-miterlimit="10" d="M296.56 378.44v1.6"/><path fill="none" stroke="#43556d" stroke-width=".08" stroke-miterlimit="10" d="M297.2 379v1.6"/><path fill="none" stroke="#43556d" stroke-width=".08" stroke-miterlimit="10" d="M292.78 376.8v.8"/></g></g><g transform="matrix(16.689 0 0 16.689 -4779.639 -6207.282)"><defs><path id="j" d="M305.4 372.92h23.1v13.65h-23.1z"/></defs><clipPath id="k"><use width="612" height="792" xlink:href="#j" overflow="visible"/></clipPath><g clip-path="url(#k)"><path fill="none" stroke="#225aa9" stroke-width="1.4" stroke-miterlimit="10" d="M317.26 395.54c-3.14 0-5.77-1.06-5.98-2.4l-1-4.65c-1.74-.75-2.9-2.2-3.32-4.1-.55-2.6-.1-4.54.13-5.25 0 0 .05-.13.05-.2 0 0 0-.2 0-.28 0-2.85 5.08-4.12 10.12-4.12 5.03 0 10.1 1.27 10.1 4.12 0 .1 0 .18 0 .26-.02.84-.3 1.58-.83 2.22 0 .36-.2.7-.5.95-.04.04-.1.08-.16.1l-2.64 10.97c-.23 1.3-2.9 2.37-5.98 2.37zm-8.82-14.1c0 .4.02 1.1.2 1.82.18.88.76 1.97 1.15 2.54l-.84-4c-.1-.08-.42-.28-.52-.36z" stroke-linecap="round" stroke-linejoin="round"/><path fill="none" d="M309.43 381.65l2.4 11.36c.15.98 2.45 2 5.46 2 3 0 5.28-1.06 5.45-2l2.75-11.55c-3.33 2.33-12.08 2.64-16.07.2z"/><path fill="none" stroke="#e1f3f8" stroke-width="1.4" stroke-miterlimit="10" d="M326.84 378.9c0-.07.02-.15.02-.23 0-2.5-4.98-3.63-9.6-3.63-4.6 0-9.6 1.14-9.6 3.63 0 .27.07.52.18.75-.07-.15.46 1.5 1.47 2.15l1.16 5.32c-1.06-.63-1.83-1.75-2.23-3.54-.35-1.57-.16-2.27-.1-2.66-.2-.26-.48-.7-.55-1.4-.18.6-.64 2.45-.1 5 .4 1.92 1.6 3.22 3.25 3.83l1.06 4.93c.14.97 2.44 2 5.47 2 3.02 0 5.3-1.06 5.47-2l2.7-11.2c.1-.03.2-.07.27-.14.27-.2.37-.5.3-.73.53-.58.84-1.27.84-2.1z" stroke-linecap="round" stroke-linejoin="round"/><g><path fill="#00ade8" d="M311.84 393.2c.1.6 1.1 1.26 2.62 1.64 1.12.28 2.3.36 3.43.3 1.8-.07 3.3-.54 4.14-1.1.4-.27.66-.57.7-.85.13-.56.25-1.1.37-1.66.22-1.02.55-2.03.78-3.04.23-1.1.52-2.2.75-3.28.46-2.12 1.17-4.24 1.62-6.37-.87 0-2.15-.02-3.02-.02-1.75 0-3.5 0-5.26 0-1.3 0-2.6 0-3.9 0-1.77 0-3.55 0-5.33 0 .46 2.13.9 4.25 1.37 6.38.25 1.1.5 2.2.72 3.28.22 1.02.44 2.04.66 3.06.12.55.24 1.1.36 1.65z"/><radialGradient id="a" cx="321.068" cy="392.414" r="20.935" gradientTransform="matrix(1.047 0 0 1 -15.894 0)" gradientUnits="userSpaceOnUse"><stop offset="0" stop-color="#0B4393"/><stop offset=".871" stop-color="#00B9F2" stop-opacity="0"/></radialGradient><path fill="url(#l)" d="M311.77 392.88c.1.6 1.08 1.25 2.57 1.62 1.1.27 2.24.35 3.36.3 1.78-.08 3.25-.53 4.06-1.08.4-.27.65-.56.7-.84.1-.54.23-1.08.35-1.6.22-1 .55-2 .76-3 .23-1.06.5-2.13.74-3.2.45-2.08 1.14-4.15 1.6-6.23-.87 0-2.12-.03-2.97-.03-1.72 0-3.44 0-5.15 0-1.27 0-2.54 0-3.8 0-1.75 0-3.5 0-5.24 0 .45 2.1.9 4.17 1.35 6.25.22 1.07.45 2.14.68 3.2.2 1 .43 2 .64 3 .12.53.23 1.07.35 1.6z"/><radialGradient id="b" cx="314.806" cy="385.635" r="9.237" gradientTransform="matrix(.059 -.998 .732 .04 12.901 684.682)" gradientUnits="userSpaceOnUse"><stop offset="0" stop-color="#14BDEB"/><stop offset=".908" stop-color="#00B9F2" stop-opacity="0"/></radialGradient><path fill="url(#m)" d="M311.84 393.13c.1.63 1.1 1.28 2.62 1.65 1.12.28 2.3.37 3.43.3 1.8-.07 3.3-.54 4.14-1.1.4-.27.66-.57.7-.85.13-.55.25-1.1.37-1.65.22-1.02.55-2.02.78-3.04.23-1.1.52-2.18.75-3.28.46-2.12 1.17-4.24 1.62-6.36-.87 0-2.15-.02-3.02-.02-1.75 0-3.5 0-5.26 0-1.3 0-2.6 0-3.9 0-1.77 0-3.55 0-5.33 0 .46 2.12.9 4.25 1.37 6.37.25 1.1.5 2.2.72 3.28.22 1.02.44 2.03.66 3.05.12.55.24 1.1.36 1.65z"/></g><path fill="#5eb4e4" d="M317.3 383.3c-4.6 0-9.57-1.05-9.57-4.64 0-2.5 4.96-3.62 9.56-3.62 4.6 0 9.56 1.13 9.56 3.62 0 3.65-4.96 4.64-9.57 4.64z"/><path fill="none" d="M307.78 378.6c0-2.45 4.93-3.57 9.52-3.57 4.58 0 9.5 1.12 9.5 3.57"/><path fill="#3e5eab" d="M318.04 383.74c-.8 0-2.96-.03-4.7-.68 2.5.44 4.32.33 4.8.3 4.2-.14 7.05-1.32 7.87-2.47-1.44 1.87-3.8 2.84-7.96 2.84z"/><path fill="#f4fbfe" d="M320.37 375.8c6.33.46 9.84 5.35-3.53 5.67 2.96-.1 8.42-.48 8.92-2.7.26-1.17-1.84-2.36-5.4-2.96z" opacity=".91"/><path fill="#fbfdff" d="M315.8 375.22c-6.42-.17-12.3 4-3.2 5.86-2.8-.62-6.7-2.6-2.5-4.52 1.1-.5 2.24-.98 5.7-1.34z" opacity=".91"/><path fill="#eaf6f8" d="M307.66 380.12c-.16.34-.67 2.98.42 5.23-.36-1.45-.45-2.05-.48-2.8-.03-.8.06-2.43.06-2.43z"/><radialGradient id="c" cx="313.241" cy="381.459" r="17.895" gradientTransform="matrix(1.047 0 0 1 -15.894 0)" gradientUnits="userSpaceOnUse"><stop offset=".025" stop-color="#00B9F2"/><stop offset=".039" stop-color="#00B4ED"/><stop offset=".178" stop-color="#0092D0"/><stop offset=".319" stop-color="#0078BB"/><stop offset=".459" stop-color="#0065AB"/><stop offset=".598" stop-color="#0057A0"/><stop offset=".735" stop-color="#004C99"/><stop offset=".87" stop-color="#084694"/><stop offset="1" stop-color="#0B4393"/></radialGradient><path fill="url(#n)" d="M309.87 379.9c.94.58 2.5 1.03 4.46 1.26.92.1 1.9.17 2.97.17 3.27 0 6.02-.57 7.4-1.4.15-.1.28-.2.4-.3.98-.8.4-1.75-.5-2.32-1.42-.87-4.1-1.53-7.3-1.53-1.02 0-2 .07-2.9.2-1.9.24-3.45.74-4.4 1.34-.93.58-1.5 1.5-.53 2.33.12.1.25.2.4.28z"/><path fill="none" stroke="#474fa1" stroke-width=".2" stroke-miterlimit="10" d="M325.64 378.66c0 1.47-3.63 2.65-8.35 2.65-4.74 0-8.38-1.17-8.38-2.64 0-1.46 3.64-2.9 8.37-2.9 4.7 0 8.34 1.44 8.34 2.9z" stroke-linecap="round" stroke-linejoin="round"/><path fill="#eff8f9" d="M310.16 382.5c.75.4 1.18.8 2.52 1.05-1.17 2.56.06 7.56.9 10.5-.5-.2-.68-.25-1-.56-.48-1.46-2.42-11-2.42-11z" opacity=".62"/><path fill="#3e5eab" d="M309.9 383.76c.1.56.1.62.43 2.1.62 2.7.57 5.26 4.18 4.62 5.43-.97 9.42-6.68 10.9-8.7 0 0-1.65.98-1.22.78-2.03 1.8-4.53 5.4-9.46 6.5-3.34.73-3.72-.76-4.4-3.75-.04-.23-.4-1.48-.43-1.54z"/><radialGradient id="d" cx="320.212" cy="382.899" r="23.079" gradientTransform="matrix(1.03 -.181 .019 .098 -17.614 403.183)" gradientUnits="userSpaceOnUse"><stop offset="0" stop-color="#006AA7"/><stop offset=".908" stop-color="#00B9F2" stop-opacity="0"/></radialGradient><path fill="url(#o)" d="M309.16 381.37c1.8 1.33 4.75 2.02 8.17 1.93.5 0 1-.04 1.5-.1 2.87-.27 4.66-.37 6.53-1.8.42-.3.8-.66 1.05-1.07.28-.45.43-.97.43-1.56-.26 1.9-3.5 2.98-7.2 3.3-.78.06-1.56.1-2.35.1-4.6 0-9.1-1.2-9.56-3.44 0 .57.14 1.1.4 1.55.26.4.6.77 1.04 1.1z"/><radialGradient id="e" cx="318.258" cy="380.999" r="6.657" gradientTransform="matrix(1.047 0 0 .4 -15.894 228.599)" gradientUnits="userSpaceOnUse"><stop offset="0" stop-color="#F6F6F6"/><stop offset=".908" stop-color="#00B9F2" stop-opacity="0"/></radialGradient><path fill="url(#p)" d="M309.2 381.35c1.82 1.33 4.76 2.02 8.18 1.93.5 0 1-.04 1.5-.1 2.87-.27 4.66-.37 6.53-1.8.43-.3.82-.66 1.06-1.07.27-.44.42-.96.42-1.55-.26 1.9-3.5 2.98-7.2 3.3-.78.06-1.56.1-2.35.1-4.6 0-9.1-1.2-9.56-3.44 0 .58.14 1.1.42 1.56.23.4.57.77 1 1.1z"/><g><g><radialGradient id="f" cx="312.371" cy="387.684" r="9.157" gradientTransform="matrix(1.047 0 0 1 -15.894 0)" gradientUnits="userSpaceOnUse"><stop offset="0" stop-color="#fff"/><stop offset=".066" stop-color="#FFFDEC"/><stop offset=".224" stop-color="#FEF9CA"/><stop offset=".383" stop-color="#FEF6AC"/><stop offset=".541" stop-color="#FEF495"/><stop offset=".698" stop-color="#FEF385"/><stop offset=".852" stop-color="#FEF27A"/><stop offset="1" stop-color="#FEF276"/></radialGradient><path fill="url(#q)" d="M308.94 386.9c1.36 1.34 3.47 1.84 5.86 1.4 1.5-.26 2.88-.77 4.08-1.4 1.35-.7 2.5-1.55 3.48-2.37.2-.18.4-.36.6-.53.96-.88 1.7-1.67 2.2-2.15 0 0 .35-.04.55-.2.53-.42.4-1.25-.4-1.08-.4.06-.63.5-.58.64-1.23 1.1-2.74 2.65-4.83 3.95-1.37.84-2.98 1.58-4.92 2-3.33.74-5.87-.07-6.7-3.87-.36-1.57-.16-2.26-.12-2.65-.2-.26-.47-.7-.53-1.4-.2.6-.65 2.45-.12 4.98.2.85.5 1.56.96 2.15.14.2.3.38.48.55z"/><radialGradient id="g" cx="318.774" cy="384.516" r="6.164" gradientTransform="matrix(1.047 0 0 1 -15.894 0)" gradientUnits="userSpaceOnUse"><stop offset="0" stop-color="#fff"/><stop offset=".066" stop-color="#FAF8E8"/><stop offset=".224" stop-color="#F2EEC1"/><stop offset=".383" stop-color="#EDE6A2"/><stop offset=".541" stop-color="#E9E18A"/><stop offset=".698" stop-color="#E6DD7A"/><stop offset=".852" stop-color="#E4DB70"/><stop offset="1" stop-color="#E3DA6C"/></radialGradient><path fill="url(#r)" d="M313.25 388.46c.28.02 1-.02 1.53-.13 1.62-.33 2.87-.78 4.08-1.4 1.35-.72 2.5-1.57 3.47-2.4.22-.16.42-.34.6-.52.97-.86 1.7-1.65 2.2-2.13 0 0 .36-.04.55-.2.53-.42.4-1.25-.42-1.08-.4.05-.6.5-.55.65-1.2 1.15-2.52 3-4.6 4.3-1.37.85-2.96 1.6-4.88 2.1-2.78.75-3.95.37-5.5-.14 1.63.96 2.38.87 2.56.9.25.05.7 0 .97.06z"/></g><path fill="none" stroke="#9e8a31" stroke-width=".3" stroke-miterlimit="10" d="M307.7 379.1c-.3 1.02-.72 2.58-.18 5.1.7 3.3 3.68 4.75 7.3 4.1 5.4-.96 8.87-5.04 10.34-6.45 0 0 .35-.04.55-.2.54-.42.4-1.24-.4-1.08-.4.06-.63.5-.58.64-2.03 1.8-4.8 4.87-9.74 5.96-3.33.73-5.86-.07-6.7-3.88-.35-1.57-.15-2.4-.1-2.8-.17-.26-.4-.67-.5-1.37z" stroke-linecap="round" stroke-linejoin="round"/></g></g></g><g transform="matrix(16.689 0 0 16.689 -4779.639 -6207.282)"><defs><path id="s" d="M281 397.38h24.62v13.56H281z"/></defs><clipPath id="t"><use width="612" height="792" xlink:href="#s" overflow="visible"/></clipPath><g clip-path="url(#t)"><path fill="none" stroke="#b46738" stroke-width=".8" stroke-miterlimit="10" d="M293.07 419.26c5.18-.44 8.87-5 8.4-10.37-.2-2.3-1.08-4.25-2.56-5.7.9.22 1.62.36 1.9.63.3.3 1 .86 2.38.74.07 0 .13 0 .2-.02l.43-.06-.18-.4c-.2-.42-.3-.77-.4-1.15-.2-.8-.42-1.65-1.84-3.03-1.84-1.8-3.07-1.85-4.17-1.76-.15.02-.3.04-.47.05l-.1.03c-1.3.14-2.46 1.3-2.92 1.77-.38-.25-.48-.9-.5-.92l-.02-.23-.24-.04s-.1 0-.2 0c-.14.02-.26.06-.36.13l-.4.27.36.23c.05.12.1.45.1.63-.05 0-.1 0-.1 0-.07 0-.12-.02-.17-.02h-.06c-.13 0-.23.08-.3.13-.06.04-.08.05-.1.05-.03 0-.08 0-.17-.04-.32-.12-.64-.17-.96-.14-.7.06-1.26.48-1.8.9-.2.14-.4.3-.6.42-.27.17-.52.32-.74.45-.8.5-1.35.83-2 1.47-1.9 1.94-2.88 4.57-2.65 7.2.48 5.57 4.8 9.27 10.3 8.8z" stroke-linecap="round" stroke-linejoin="round"/><path fill="none" stroke="#fff8e0" stroke-width=".8" stroke-miterlimit="10" d="M283.1 410.45c.43 5.08 4.26 9 9.94 8.5 5.08-.44 8.56-4.96 8.12-10.04-.24-2.8-1.6-5.02-3.55-6.46.1.02.3.02.4.03 1.04.1 2.57.7 3.02 1.13.45.43 1.13.8 2.3.63-.67-1.4-.17-2.15-2.16-4.1-2-1.92-3.16-1.74-4.5-1.6-1.34.16-2.6 1.58-2.86 1.83 0 0 0 0 0 .02-.75-.2-.9-1.25-.9-1.25s-.2-.03-.34.06c.13.07.25.86.18 1.04-.06.17-.44.14-.48.14-.03-.02-.07-.02-.1-.03-.2 0-.27.32-.75.13-1.3-.5-2.1.55-3.06 1.15-1.23.76-1.9 1.07-2.67 1.86-1.83 1.84-2.8 4.36-2.57 6.95zm10.83-9.9c-.03 0-.06 0-.1 0 .04 0 .06-.04.07-.06.05 0 .1-.02.2-.05.48-.18.63.1.78.43-.3-.15-.58-.27-.95-.33z" stroke-linecap="round" stroke-linejoin="round"/><path fill="#faa542" d="M283.1 410.45c.43 5.08 4.26 9 9.94 8.5 5.08-.44 8.56-4.96 8.12-10.04-.3-3.5-2.66-6.36-5.27-7.52-.78-.34-1.2-.7-1.97-.83-.35-.07-.65.48-.86.42-.48-.15-.62-.6-.9-.62-.2 0-.28.32-.76.13-1.3-.5-2.1.55-3.06 1.15-1.23.76-1.9 1.07-2.67 1.86-1.83 1.84-2.8 4.36-2.57 6.95z"/><path fill="#ef9e3f" d="M296.76 402.1c-.5-.65 4.35 3.75 4 8-.35 4.22-3.54 8.56-8.58 8.45-2.67-.05-4.24-.5-5.74-1.78 2.02-.87 3.5-.85 5.76-3.17 1.8-1.85 5.64-10.02 4.56-11.5z"/><path fill="#e4983c" d="M297.45 402.9c-.44-.7 4.03 3.38 3.7 7.57-.35 4.2-3.47 8.48-8.4 8.37-2.6-.05-4.54-.88-5.4-1.45 2-.88 4.07-1.48 5.7-3.22 1.73-1.86 5.42-9.74 4.4-11.3z"/><path fill="#d68e38" d="M298.4 403.83c-.45-.67 2.87 2.2 2.53 6.3-.33 4.13-3.2 8.3-7.7 8.5-2.18.1-3.92-.14-4.76-.7 1.97-.85 3.1-.74 5.3-3 1.75-1.8 5.64-9.58 4.62-11.1z"/><path fill="#fbad54" d="M291.65 400.8c-.65-.15-1.12-.46-2.04.2-1.14.8-1.7 1.15-2.12 1.35-.43.2-1.6 1.27-2.05 1.77-.46.5-3.02 3.23-1.7 8.4.46 1.8 1.56 3.14 1.87 3.6.25.4.74-5.57 2-8.32 1.77-3.9 3.2-7.12 4.05-7z"/><path fill="#fcb667" d="M291.13 400.98c-.52-.13-.98-.17-1.4.13-.9.64-1.38.9-1.73 1-.35.14-1.33.83-1.72 1.2-.4.34-2.52 2.27-1.64 6.16.32 1.37 1.07 1.9 1.3 2.25.2.3.74-3.75 1.83-5.76 1.55-2.84 2.7-5.07 3.36-4.96z"/><path fill="#fff" d="M290.1 401.1c.02.12.06.17.2.16.12 0 .3-.15.27-.28 0-.13-.05-.18-.18-.17-.13.02-.3.16-.3.3z"/><path fill="#fff" d="M289.18 401.47c0 .13.05.2.18.17.13 0 .3-.15.3-.27-.02-.13-.06-.2-.2-.18-.12 0-.3.15-.28.27z"/><path fill="#fff" d="M289.64 402.05c0 .13.05.2.18.18.13-.02.3-.16.3-.3-.02-.12-.06-.17-.2-.16-.12 0-.3.15-.28.28z"/><path fill="#fff" d="M290.86 400.98c0 .13.06.18.2.17.1 0 .3-.15.27-.28 0-.13-.05-.18-.18-.17-.13 0-.3.15-.3.28z"/><path fill="#fff" d="M288.6 402.34c.02.13.06.18.2.17.12 0 .3-.14.28-.27 0-.13-.05-.18-.18-.17-.13 0-.3.15-.3.28z"/><path fill="#fff" d="M288.8 402.98c0 .13.04.18.17.17.13 0 .3-.15.3-.28-.02-.13-.06-.18-.2-.17-.12 0-.3.15-.28.28z"/><path fill="#fff" d="M287.58 404.06c0 .13.05.18.18.17.13-.02.3-.16.3-.28-.02-.13-.06-.2-.2-.17-.12 0-.3.15-.28.28z"/><path fill="#fff" d="M286.15 404.5c0 .14.05.2.18.18.13 0 .3-.15.3-.28-.02-.13-.06-.18-.2-.17-.12 0-.3.15-.28.28z"/><path fill="#fff" d="M286.78 403.28c0 .13.06.18.18.17.13 0 .3-.15.3-.28-.02-.13-.06-.18-.2-.17-.12 0-.3.15-.28.28z"/><path fill="#fff" d="M288.1 405.27c0 .1.04.14.14.13.1 0 .24-.1.23-.22 0-.1-.04-.14-.14-.13-.1 0-.24.12-.23.22z"/><path fill="#fff" d="M290.5 401.5c0 .14.04.2.17.18.13 0 .3-.15.3-.28-.02-.13-.06-.18-.2-.17-.12 0-.3.15-.28.28z"/><path fill="#66bc46" d="M292.25 400.38s.43.04.5-.14c.06-.18-.06-.97-.2-1.05.14-.1.35-.07.35-.07s.16 1.16 1.02 1.27c0 .16-.13.17-.28.2-.16 0-.3.3-.43.35-.24.12-.63-.35-.95-.57z"/><path fill="#66bc46" d="M293.8 400.36c.27-.25 1.52-1.67 2.86-1.82 1.34-.15 2.5-.33 4.5 1.6 2 1.94 1.5 2.7 2.17 4.1-1.18.15-2.04-.34-2.48-.77-.45-.43-2.32-.86-3.37-.9-1.48-.02-1.74-.38-2.38-.88-.42-.35-.18-1.55-1-1.25-.18.07-.25.07-.3-.1z"/><path fill="#d9e25c" d="M293.88 400.42c.98-.5 4.2-.92 5.35 0 1.16.94 1.93 1.44 2.55 2.17.62.73 1.4 1.58 1.5 1.62-.2-.37-.52-2.48-1.6-3.5-.95-.9-1.7-1.68-3.02-2.1-2.66-.83-4.78 1.8-4.78 1.8z"/></g></g><g transform="matrix(16.689 0 0 16.689 -4779.639 -6207.282)"><defs><path id="u" d="M305.06 397.2h23v16.7h-23z"/></defs><clipPath id="v"><use width="612" height="792" xlink:href="#u" overflow="visible"/></clipPath><g clip-path="url(#v)"><g fill="none" stroke-width="1.2" stroke-miterlimit="10"><path stroke="#7f4397" d="M314.23 398.85h.02l.07-.03c.66-.17 1.25.07 1.57.33.08.07.16.14.23.2.25.23.3.27.48.27.42-.02 1.07.65 1.4 1.1.24.3.56.83.67 1.4.72-.65 1.77-1 2.28-1.13.38-.1 1.28-.3 1.58-.1.18.14.34.17.93.04.68-.14 1.17.02 1.55.5.74.64.32 1.4.18 1.65-.18.32-.17.38-.13.6 0 .03.02.1.03.14.08.45-.62 2.02-1.7 3 1.3.06 2.67.57 2.83 1.2.1.32.17.57.55.8.7.42.68.98.6 1.48-.1.65-.42 1.04-1.06 1.25-.4.12-.48.23-.63.4-.05.05-.1.1-.15.16-.25.25-.7.4-1.02.5-.75.2-1.96.3-2.98.03.26.7.22 1.44.18 1.82-.02.26-.15 1.14-.52 1.34-.25.13-.42.3-.52.78-.16.7-.77.95-1.2 1.07-.05 0-.1.02-.14.03-.02 0-.05.02-.08.03"/><path stroke="#f1eaf4" d="M319.24 417.4c.52-.1 1-.3 1.12-.86.12-.55.34-.82.68-1 .33-.18.84-2.66-.43-3.66 1.24 1.05 4.12.63 4.7.03.26-.26.33-.44.9-.63.56-.18.77-.5.83-1.02.1-.5.05-.85-.44-1.15-.5-.3-.6-.65-.7-1-.14-.57-2.37-1.3-3.97-.82 1.7-.35 2.93-2.93 2.85-3.4-.06-.34-.14-.44.13-.94.3-.5.32-.92-.1-1.28-.32-.4-.7-.54-1.28-.42-.58.13-.88.14-1.17-.08-.3-.22-3.5.4-4.05 2.05.6-1.5-1.3-3.3-1.68-3.28-.38 0-.5-.17-.93-.54-.3-.24-.83-.4-1.34-.25"/><path stroke="#7f4397" d="M314.33 398.82h-.02l-.07.02c-.65.18-1.05.7-1.2 1.07-.03.12-.07.22-.1.3-.1.33-.13.4-.3.48-.35.2-.58 1.1-.65 1.64-.04.4-.06 1 .13 1.56-.95-.2-2.02 0-2.54.15-.37.1-1.25.37-1.4.7-.1.2-.22.32-.8.5-.65.22-1 .6-1.1 1.2-.3.93.44 1.38.68 1.52.32.2.34.26.4.46.02.06.04.1.06.16.15.42 1.55 1.44 2.98 1.74-1.12.72-2.04 1.83-1.87 2.45.1.33.16.58-.05.97-.4.7-.1 1.2.22 1.57.4.52.87.7 1.53.56.4-.1.52-.04.74.03.06 0 .13.04.2.06.34.1.8 0 1.15-.08.73-.2 1.84-.7 2.58-1.45.13.73.53 1.36.75 1.67.16.2.7.9 1.12.9.28 0 .5.05.85.42.5.53 1.13.44 1.57.32.05 0 .1-.02.13-.03.02 0 .05 0 .1 0"/><path stroke="#f1eaf4" d="M319.3 417.4c-.5.14-1.1.23-1.48-.2-.38-.4-.7-.52-1.08-.5-.38 0-2.06-1.9-1.46-3.4-.54 1.52-3.24 2.6-4.05 2.36-.36-.1-.5-.23-1.1-.1-.58.12-.92-.06-1.23-.47-.33-.4-.46-.73-.2-1.24.3-.5.2-.85.1-1.2-.15-.56 1.42-2.3 3.05-2.7-1.64.55-4-1.07-4.16-1.5-.13-.34-.1-.47-.6-.77-.5-.3-.73-.65-.53-1.18.07-.5.32-.8.9-1 .56-.18.82-.32.97-.65.15-.34 3.24-1.4 4.53-.24-1.27-1-.52-3.5-.18-3.68.32-.18.33-.4.52-.94.14-.34.6-.78 1.14-.9"/></g><g><path fill="#973d94" d="M319.2 417.4c.53-.13 1-.3 1.13-.86.13-.55.35-.82.7-1 .32-.18.82-2.66-.44-3.67 1.22 1.06 4.1.64 4.68.04.26-.26.33-.44.9-.63.56-.18.77-.5.83-1.02.1-.5.05-.86-.44-1.15-.5-.3-.57-.65-.67-1-.16-.58-2.4-1.3-4-.83 1.7-.34 2.94-2.93 2.86-3.38-.06-.37-.15-.46.13-.97.27-.5.3-.92-.14-1.28-.3-.4-.68-.54-1.26-.4-.6.1-.88.12-1.18-.1-.3-.22-3.5.4-4.05 2.05.6-1.5-1.3-3.3-1.67-3.3-.38.03-.5-.16-.94-.53-.3-.24-.8-.4-1.33-.25l4.88 18.27z"/><path fill="#95268c" d="M324.68 401.6c-.54-.38-1-.22-1.6-.14-.6.1-.9-.06-.94-.16-.02-.1-3.62.3-4.33 3.44l.02.53s1.3-.83 1.5-.87c.16-.05.58-.67.94-1 .37-.35 2.47-1.76 4.42-1.8z"/><path fill="#86268c" d="M324.6 401.63c-.5-.26-.9-.06-1.5.02s-.8.04-.82-.07c-.03-.1-3.62.3-4.33 3.44v.53s.95-.78 1.12-.83c.18-.04.65-.83 1-1.17.37-.34 2.6-1.9 4.54-1.92z"/><path fill="#95268c" d="M319.28 417.35c.6-.3.67-.78.88-1.35.2-.57.48-.77.6-.74.1.02 1.1-3.14-1.32-5.25l-.47-.23s.43 1.35.38 1.52c-.04.17.3.83.44 1.3.13.5.37 3-.52 4.75z"/><path fill="#86268c" d="M319.3 417.28c.46-.33.48-.78.7-1.35.2-.57.32-.7.43-.7.1.03 1.07-3.17-1.35-5.28l-.47-.25s.62 1.05.58 1.23c-.05.18.43.96.56 1.44.13.5.45 3.17-.45 4.9z"/><path fill="#95268c" d="M327.02 410.37c-.1-.66-.47-1-.95-1.37-.5-.36-.5-.74-.44-.83.06-.1-2.97-2.15-5.7-.44l-.35.38s1.5.36 1.66.45c.16.1.9-.06 1.4-.04.5.02 2.97.5 4.38 1.87z"/><path fill="#86268c" d="M326.96 410.33c-.18-.54-.53-.82-1-1.2-.5-.35-.5-.57-.43-.66.05-.1-2.98-2.16-5.7-.44l-.36.38s1.22.12 1.38.22c.15.08 1.04-.14 1.54-.13.5 0 3.15.48 4.56 1.83z"/><path fill="#984a99" d="M324.7 401.62c.42.64.1 1.04-.1 1.6-.2.58-.14.9-.05.95.1.05-1.07 3.47-4.2 3.56l-.5-.1s1.07-1.13 1.15-1.3c.1-.16.77-.45 1.17-.73.4-.3 2.06-2.08 2.5-3.98z"/><path fill="#9c62a5" d="M324.67 401.68c.33.55-.02.94-.24 1.5-.2.58-.2.76-.12.8.1.05-1.06 3.47-4.2 3.56l-.48-.1s.94-.77 1.02-.94c.1-.16.93-.47 1.34-.75.4-.3 2.24-2.17 2.7-4.07z"/><path fill="#984a99" d="M314.46 399.2c.76-.17 1 .28 1.45.7.45.4.78.46.86.4.08-.07 2.5 2.37 1.36 5.3l-.3.4s-.32-1.45-.44-1.6c-.1-.13-.12-.87-.23-1.35-.1-.5-1.1-2.7-2.7-3.86z"/><path fill="#9c62a5" d="M314.5 399.22c.65-.1.87.4 1.3.8.45.42.62.5.7.43.08-.07 2.42 2.35 1.3 5.26l-.3.43s0-1.2-.1-1.32c-.12-.14-.07-1.03-.18-1.5-.1-.5-1.13-2.92-2.7-4.08z"/><path fill="#984a99" d="M327 410.35c-.2.75-.7.77-1.27.97-.57.2-.77.48-.75.58.03.1-3.33 1.43-5.42-.9l-.24-.44s1.54.08 1.72.04c.17-.05.83.3 1.3.4.5.13 2.93.23 4.67-.65z"/><path fill="#9c62a5" d="M326.95 410.38c-.2.6-.73.6-1.3.8-.56.2-.7.3-.68.42.02.1-3.34 1.42-5.43-.9l-.24-.45s1.2.22 1.38.18c.17-.04.96.4 1.43.53.5.12 3.1.3 4.85-.58z"/><path fill="#cbc3df" d="M324.7 401.6c-1.1 0-4.17.5-5.35 2.63-1.18 2.15 1.03 2.16 1.72 2.13 1-.04 3.38-2.5 3.62-4.75z"/><path fill="#cbc3df" d="M327.02 410.38c-.65-.8-2.92-2.7-5.4-2.14-2.48.57-1.14 2.18-.7 2.66.65.7 4.13.8 6.1-.52z"/><path fill="#cbc3df" d="M319.22 417.4c.53-.92 1.6-3.72.16-5.62-.73-.95-1.37-.96-1.86-.67l1.7 6.3z"/><path fill="#cbc3df" d="M314.35 399.13c.92.52 3.24 2.42 2.93 4.8-.15 1.18-.7 1.5-1.28 1.5l-1.65-6.3z"/><path fill="#562c8e" d="M318.46 414.6c.3-.07.55-.2.62-.52.07-.32.12-.44.32-.55.2-.1.7-2.1-.06-2.7.72.62 2.17.14 2.52-.2.15-.17.2-.28.52-.4.34-.1.47-.3.5-.6.06-.3.02-.5-.27-.68-.28-.18-.33-.38-.38-.6-.1-.33-.97-.87-1.9-.6.98-.2 1.27-1.6 1.23-1.88-.04-.2-.1-.26.07-.56.17-.3.2-.53-.07-.75-.18-.24-.4-.32-.75-.25-.35.08-.52.08-.7-.05-.17-.12-1.96-.07-2.28.9.36-.9-1.06-2.34-1.28-2.34-.23.02-.3-.1-.56-.3-.17-.15-.48-.25-.8-.16l3.28 12.26z"/><path fill="#602b8d" d="M315.5 402.63l.93 3.85s.83-.1 1.05-.43c.2-.34.28-1.16.14-1.65-.15-.5-.75-1.2-1.25-1.28-.14-.03-.3-.35-.43-.45-.24-.2-.45-.04-.45-.04z"/><path fill="#69308f" d="M315.55 402.83l.8 3.27s.7-.08.9-.37c.17-.3.23-.98.1-1.4-.12-.42-.63-1-1.05-1.1-.13 0-.27-.28-.37-.37-.2-.18-.38-.03-.38-.03z"/><path fill="#6f4196" d="M315.64 403.2l.64 2.62s.56-.06.7-.3c.16-.22.2-.78.1-1.1-.1-.35-.5-.82-.84-.88-.1-.02-.22-.24-.3-.3-.16-.16-.3-.03-.3-.03z"/><path fill="#2d2f8f" d="M318.5 414.03l-.98-3.8s.78-.34 1.14-.16c.35.18.8.85.9 1.35.1.5-.1 1.4-.5 1.74-.12.1-.1.46-.17.6-.12.32-.4.27-.4.27z"/><path fill="#2d2f8f" d="M318.47 413.83l-.84-3.22s.66-.28.96-.13c.3.16.68.72.76 1.15.1.42-.08 1.2-.42 1.48-.1.08-.1.38-.14.5-.1.27-.33.23-.33.23z"/><path fill="#332f8f" d="M318.37 413.46l-.68-2.58s.52-.23.77-.1c.24.12.54.57.6.9.08.35-.06.97-.32 1.2-.1.06-.1.3-.12.4-.08.2-.26.18-.26.18z"/><path fill="#602b8d" d="M322.6 409.74l-3.6-.56s-.25.75-.05 1.07c.2.3.87.67 1.34.7.47.06 1.3-.2 1.56-.6.08-.13.4-.17.54-.23.28-.13.2-.38.2-.38z"/><path fill="#69308f" d="M322.42 409.72l-3.07-.48s-.2.65-.03.9c.17.28.73.58 1.13.62.4.04 1.1-.2 1.34-.53.06-.1.34-.13.45-.2.23-.1.17-.3.17-.3z"/><path fill="#6f4196" d="M322.07 409.66l-2.46-.38s-.15.5-.02.73c.14.22.6.46.9.5.34.03.9-.16 1.08-.43.06-.08.28-.1.37-.15.2-.1.14-.26.14-.26z"/><path fill="#2d2f8f" d="M322.74 409.7l-3.87-.6s0-.84.3-1.1c.3-.25 1.1-.4 1.6-.3.5.12 1.25.66 1.4 1.16.04.15.37.3.48.4.25.22.1.45.1.45z"/><path fill="#2d2f8f" d="M322.54 409.67l-3.28-.5s0-.74.26-.95c.26-.22.93-.34 1.35-.25.43.1 1.06.55 1.2.98.03.12.3.24.4.34.2.18.07.37.07.37z"/><path fill="#332f8f" d="M322.17 409.62l-2.64-.4s0-.6.2-.77c.22-.17.76-.27 1.1-.2.34.08.85.45.95.8.03.1.25.18.32.26.17.16.07.32.07.32z"/><path fill="#602b8d" d="M321.35 404.8l-2.8 2.37s.4.68.78.73c.37.06 1.08-.2 1.42-.53.35-.33.68-1.13.56-1.6-.03-.14.16-.4.2-.55.08-.3-.15-.4-.15-.4z"/><path fill="#69308f" d="M321.2 404.94l-2.36 2s.35.58.66.63c.3.04.9-.2 1.2-.46.3-.27.58-.95.47-1.35-.03-.12.13-.35.16-.46.07-.27-.12-.36-.12-.36z"/><path fill="#6f4196" d="M320.93 405.16l-1.9 1.6s.28.47.54.5c.25.05.72-.13.96-.36.24-.22.46-.77.38-1.08-.02-.1.1-.28.14-.38.05-.2-.1-.28-.1-.28z"/><path fill="#2d2f8f" d="M321.27 404.74l-3 2.52s-.63-.55-.63-.95c0-.4.42-1.08.82-1.4.42-.3 1.32-.5 1.8-.3.13.07.46-.08.6-.1.34-.03.4.24.4.24z"/><path fill="#2d2f8f" d="M321.1 404.86l-2.53 2.15s-.55-.46-.54-.8c0-.34.36-.93.7-1.2.35-.26 1.1-.43 1.5-.25.14.06.4-.08.54-.1.28 0 .34.2.34.2z"/><path fill="#332f8f" d="M320.82 405.1l-2.03 1.73s-.45-.38-.45-.65.3-.74.56-.95c.3-.2.9-.35 1.23-.2.1.04.3-.07.42-.07.22-.03.27.15.27.15z"/><path fill="#8a7db8" d="M315.4 402.78l.92 3.9c.1 0 .2-.12.27-.3.25-.6 0-2.8-1.2-3.6z"/><path fill="#8a7db8" d="M318.44 414.16c.25-.5.42-2.08-.2-3.1-.62-1.04-.66-.66-.8-.33l1 3.43z"/><path fill="#8a7db8" d="M321.26 404.75c-.57-.06-2.07.4-2.8 1.48-.35.5-.4.8-.34.96l3.14-2.45z"/><path fill="#8a7db8" d="M321.38 404.93l-3.26 2.3c.07.18.3.22.5.25.76.08 2.5-.94 2.75-2.55z"/><path fill="#8a7db8" d="M322.75 409.62c-.32-.48-1.64-1.34-2.93-1.23-.6.04-.88.18-.96.34l3.88.9c0-.02 0-.02 0-.02z"/><path fill="#8a7db8" d="M322.68 409.82l-3.84-1.06c-.1.18.02.4.12.55.42.65 2.3 1.35 3.72.52z"/><path fill="#76c8ac" d="M316.65 407.03c.93-.25 1.9.33 2.15 1.3.25.95-.3 1.93-1.23 2.18l-.92-3.47z"/><path fill="#99d4bf" d="M316.8 406.63c.13.48-.1.78-.24.8l-.38-1.4c.14-.03.5.1.62.6z"/><path fill="#76c8ac" d="M317.2 407.24c-.18.05-.4-.2-.5-.52-.08-.34 0-.66.18-.7.2-.06.4.18.5.52.1.33 0 .65-.17.7z"/><path fill="#99d4bf" d="M317.86 407.45c-.24.06-.5-.12-.57-.4-.08-.3.04-.6.28-.65.23-.06.48.12.56.4.08.3-.05.6-.28.65z"/><path fill="#76c8ac" d="M318.5 407.8c-.3.08-.57-.05-.64-.3-.06-.24.1-.5.4-.57.28-.07.56.06.62.3.07.25-.1.5-.4.58z"/><ellipse cx="318.861" cy="407.839" fill="#99d4bf" transform="matrix(.258 .966 -.966 .258 630.807 -5.313)" rx=".358" ry=".617"/><path fill="#76c8ac" d="M319.15 408.5c-.38.12-.7.08-.75-.06-.04-.14.24-.34.6-.44.4-.1.73-.07.77.07.04.15-.24.34-.62.44z"/><path fill="#99d4bf" d="M319.3 409.12c-.3.1-.63 0-.67-.2-.05-.18.17-.4.5-.5.33-.08.64 0 .7.2.04.2-.18.4-.52.5z"/><ellipse cx="319.013" cy="409.432" fill="#76c8ac" transform="matrix(.257 .967 -.967 .257 632.913 -3.933)" rx=".451" ry=".53"/><ellipse cx="318.739" cy="410.166" fill="#99d4bf" transform="matrix(.259 .966 -.966 .259 632.449 -3.859)" rx=".543" ry=".442"/><ellipse cx="318.145" cy="410.566" fill="#76c8ac" transform="matrix(.258 .966 -.966 .258 632.792 -2.686)" rx=".636" ry=".35"/><path fill="#99d4bf" d="M317.93 410.83c.12.47-.07.78-.24.82l-.4-1.4c.18-.06.5.16.63.58z"/><path fill="#f9ad6b" d="M317.3 409.5c.36-.1.58-.47.48-.85-.1-.37-.48-.6-.84-.5l.36 1.36z"/><ellipse cx="317.098" cy="407.891" fill="#e8c11f" transform="matrix(.966 -.258 .258 .966 -94.474 95.585)" rx=".239" ry=".244"/><circle cx="317.574" cy="407.986" r=".238" fill="#e8c11f"/><path fill="#e8c11f" d="M318 407.95c.05.13-.03.27-.16.3-.12.04-.25-.04-.3-.17-.03-.13.05-.27.18-.3.12-.03.26.04.3.17z"/><ellipse cx="317.924" cy="408.325" fill="#ffe500" transform="matrix(.965 -.261 .261 .965 -95.623 97.224)" rx=".239" ry=".246"/><ellipse cx="318.066" cy="408.795" fill="#e8c11f" transform="matrix(.966 -.257 .257 .966 -94.509 95.648)" rx=".239" ry=".246"/><path fill="#e8c11f" d="M318.18 409.2c.03.15-.04.28-.17.3-.12.05-.25-.03-.28-.16-.04-.13.04-.27.16-.3.13-.04.26.04.3.17z"/><ellipse cx="317.604" cy="409.621" fill="#ffe500" transform="matrix(.967 -.254 .254 .967 -93.657 94.144)" rx=".238" ry=".245"/><ellipse cx="318.061" cy="409.754" fill="#ffe500" transform="matrix(.966 -.26 .26 .966 -95.541 96.713)" rx=".239" ry=".245"/><path fill="#ffe500" d="M318.64 409.1c.03.12-.04.26-.17.3-.13.02-.26-.05-.3-.2-.03-.12.05-.25.17-.28.13-.04.26.04.3.17z"/><path fill="#ffe500" d="M318.62 408.38c.04.13-.04.26-.17.3-.12.03-.25-.05-.3-.18-.02-.13.05-.26.18-.3.13-.03.26.05.3.18z"/><path fill="#e8c11f" d="M318.26 407.77c.03.13-.04.27-.17.3-.14.04-.27-.04-.3-.17-.04-.13.04-.27.16-.3.13-.04.27.04.3.17z"/><ellipse cx="317.674" cy="408.1" fill="#e8c11f" transform="matrix(.967 -.256 .256 .967 -93.889 94.926)" rx=".238" ry=".245"/><ellipse cx="317.402" cy="407.987" fill="#e8c11f" transform="matrix(.966 -.258 .258 .966 -94.488 95.667)" rx=".239" ry=".245"/><ellipse cx="317.124" cy="408.005" fill="#e8c11f" transform="matrix(.967 -.256 .256 .967 -93.883 94.782)" rx=".238" ry=".244"/><path fill="#e8c11f" d="M317.27 407.5c.04.14-.04.28-.17.3-.13.05-.26-.03-.3-.16-.03-.13.05-.27.17-.3.13-.03.26.04.3.17z"/><ellipse cx="317.337" cy="407.503" fill="#ffe500" transform="matrix(.965 -.262 .262 .965 -95.595 97.263)" rx=".239" ry=".246"/><path fill="#ffe500" d="M317.68 410.05c.03.13-.05.26-.17.3l-.12-.48c.13-.03.26.05.3.18z"/><ellipse cx="317.816" cy="410.007" fill="#e8c11f" transform="matrix(.966 -.257 .257 .966 -94.704 95.46)" rx=".237" ry=".245"/><ellipse cx="317.512" cy="410.145" fill="#e8c11f" transform="matrix(.966 -.257 .257 .966 -94.875 95.551)" rx=".239" ry=".245"/><path fill="#e8c11f" d="M318.6 409.47c.02.13-.05.27-.18.3-.13.03-.26-.04-.3-.18-.03-.14.05-.27.17-.3.12-.04.25.04.3.17z"/><ellipse cx="318.203" cy="409.402" fill="#e8c11f" transform="matrix(.965 -.262 .262 .965 -96.062 97.556)" rx=".239" ry=".246"/><ellipse cx="317.784" cy="409.897" fill="#e8c11f" transform="matrix(.966 -.258 .258 .966 -95.134 96.048)" rx=".238" ry=".245"/><ellipse cx="317.503" cy="409.801" fill="#e8c11f" transform="matrix(.966 -.258 .258 .966 -95.119 95.973)" rx=".238" ry=".246"/><ellipse cx="317.418" cy="409.116" fill="#e8c11f" transform="matrix(.966 -.259 .259 .966 -95.232 96.306)" rx=".239" ry=".245"/><path fill="#e8c11f" d="M318 408.74c.02.13-.05.26-.18.3-.13.03-.26-.05-.3-.18-.02-.13.05-.27.18-.3.12-.03.25.04.3.18z"/><path fill="#e8c11f" d="M317.83 408.25c.04.13-.04.27-.16.3-.13.03-.26-.04-.3-.17-.03-.14.04-.27.17-.3.13-.04.26.04.3.17z"/><path fill="#e8c11f" d="M317.6 408.5c.02.13-.05.27-.18.3-.13.04-.26-.04-.3-.17-.03-.14.05-.27.18-.3.12-.03.25.04.3.17z"/><path fill="#e8c11f" d="M317.58 408.78c.03.13-.04.26-.17.3-.12.03-.25-.05-.28-.18-.04-.13.03-.26.16-.3.13-.03.26.05.3.18z"/><path fill="#e8c11f" d="M317.43 408.48c.03.13-.04.26-.17.3-.13.03-.26-.05-.3-.18-.03-.13.05-.27.17-.3.13-.04.26.05.3.18z"/><path fill="#e8c11f" d="M317.37 408.26c.03.14-.04.27-.17.3-.13.03-.26-.04-.3-.17-.02-.14.05-.28.18-.3.12-.05.25.03.3.16z"/><ellipse cx="318.364" cy="408.765" fill="#e8c11f" transform="matrix(.966 -.257 .257 .966 -94.491 95.724)" rx=".239" ry=".246"/><ellipse cx="317.884" cy="409.473" fill="#e8c11f" transform="matrix(.966 -.26 .26 .966 -95.475 96.658)" rx=".239" ry=".245"/><path fill="#e8c11f" d="M318.4 408.98c.04.13-.03.26-.16.3-.13.03-.26-.05-.3-.18-.03-.13.05-.26.18-.3.12-.03.25.05.3.18z"/><ellipse cx="317.395" cy="408.5" fill="#e8c11f" transform="matrix(.965 -.261 .261 .965 -95.687 97.092)" rx=".239" ry=".246"/><ellipse cx="317.127" cy="409.462" fill="#e8c11f" transform="matrix(.965 -.261 .261 .965 -95.832 96.902)" rx=".238" ry=".244"/><ellipse cx="316.97" cy="408.979" fill="#e8c11f" transform="matrix(.966 -.257 .257 .966 -94.468 95.208)" rx=".237" ry=".245"/><path fill="#e8c11f" d="M316.96 409.17c.03.13-.04.26-.17.3-.14.03-.27-.05-.3-.18-.04-.14.03-.27.16-.3.13-.04.26.04.3.17z"/><ellipse cx="317.25" cy="410.138" fill="#e8c11f" transform="matrix(.967 -.256 .256 .967 -94.425 94.885)" rx=".238" ry=".245"/><ellipse cx="317.546" cy="409.705" fill="#e8c11f" transform="matrix(.968 -.252 .252 .968 -93.054 93.317)" rx=".238" ry=".246"/><path fill="#e8c11f" d="M318.4 408.16c.04.13-.04.26-.17.3-.12.03-.25-.05-.3-.18-.02-.13.05-.26.18-.3.13-.03.27.05.3.18z"/><path fill="#ffe500" d="M318.77 408.73c.04.13-.03.27-.16.3-.12.04-.25-.04-.3-.17-.02-.13.05-.27.18-.3.13-.04.26.04.3.17z"/><path fill="#ffe500" d="M318.5 408.06c.04.13-.04.26-.17.3-.12.03-.25-.05-.3-.18-.02-.13.05-.26.18-.3.14-.03.27.05.3.18z"/><ellipse cx="317.824" cy="408.294" fill="#ffe500" transform="matrix(.966 -.26 .26 .966 -95.336 96.822)" rx=".238" ry=".247"/><ellipse cx="317.391" cy="408.112" fill="#ffe500" transform="matrix(.966 -.258 .258 .966 -94.686 95.886)" rx=".238" ry=".246"/><path fill="#ffe500" d="M318.17 408.47c.04.13-.04.26-.17.3-.12.03-.25-.04-.3-.18-.02-.14.05-.27.18-.3.13-.04.26.04.3.17z"/><path fill="#ffe500" d="M317.65 408.68c.03.13-.04.27-.17.3-.13.03-.26-.05-.3-.17-.03-.13.05-.26.17-.3.13-.03.26.05.3.18z"/><ellipse cx="317.123" cy="408.326" fill="#ffe500" transform="matrix(.966 -.26 .26 .966 -95.368 96.64)" rx=".238" ry=".246"/><path fill="#ffe500" d="M317.34 407.85c.04.13-.04.26-.17.3-.12.03-.25-.05-.3-.18-.02-.13.05-.27.18-.3.13-.03.26.04.3.18z"/><path fill="#ffe500" d="M318 407.77c.05.13-.02.26-.15.3-.13.03-.26-.05-.3-.18-.03-.14.04-.28.17-.3.13-.05.26.04.3.17z"/><path fill="#ffe500" d="M317.94 409.86c.03.13-.04.26-.17.3-.13.03-.26-.05-.3-.18-.03-.13.04-.27.17-.3.13-.03.26.05.3.18z"/><path fill="#f9db00" d="M318.04 409.57c.02.08-.03.17-.1.2-.08 0-.17-.04-.2-.12 0-.08.04-.16.12-.18.08-.02.15.02.18.1z"/><circle cx="317.786" cy="409.103" r=".146" fill="#f9db00"/><path fill="#ffe500" d="M318.13 408.9c.04.14-.03.28-.16.3-.13.04-.26-.04-.3-.17-.03-.13.04-.26.17-.3.13-.03.26.05.3.18z"/><ellipse cx="317.714" cy="409.263" fill="#ffe500" transform="matrix(.967 -.256 .256 .967 -94.021 94.76)" rx=".239" ry=".245"/><path fill="#ffe500" d="M317.76 409.45c.03.13-.04.26-.17.3-.14.03-.27-.05-.3-.18-.04-.13.03-.26.16-.3.13-.03.26.05.3.18z"/><path fill="#ffe500" d="M317.96 407.58c.03.13-.04.27-.17.3-.13.03-.26-.05-.3-.18-.04-.13.04-.26.17-.3.12-.03.25.05.3.18z"/><path fill="#ffe500" d="M317.18 407.36c.04.13-.04.26-.17.3-.1.03-.24-.05-.28-.18-.03-.13.04-.26.17-.3.12-.03.25.05.28.18z"/><ellipse cx="317.496" cy="407.601" fill="#ffe500" transform="matrix(.966 -.26 .26 .966 -95.001 96.493)" rx=".239" ry=".246"/><path fill="#f9db00" d="M317.82 409.22c.02.08-.02.16-.1.18-.08.02-.15-.02-.18-.1-.02-.1.03-.17.1-.2.1 0 .16.04.18.12z"/><circle cx="317.926" cy="408.837" r=".145" fill="#f9db00"/><ellipse cx="317.344" cy="408.298" fill="#f9db00" transform="matrix(.965 -.261 .261 .965 -95.51 96.904)" rx=".144" ry=".151"/><ellipse cx="317.44" cy="407.649" fill="#f9db00" transform="matrix(.967 -.257 .257 .967 -94.046 95.198)" rx=".144" ry=".151"/><ellipse cx="317.799" cy="407.88" fill="#f9db00" transform="matrix(.967 -.254 .254 .967 -93.069 93.954)" rx=".144" ry=".15"/><circle cx="318.316" cy="408.125" r=".145" fill="#f9db00"/><path fill="#f9db00" d="M317.98 408.17c.02.08-.02.16-.1.18-.08.02-.16-.03-.18-.1-.02-.08.03-.17.1-.2.08 0 .16.04.18.12z"/><path fill="#f9db00" d="M317.6 408.08c0 .08-.03.16-.1.18-.08.02-.17-.03-.2-.1 0-.1.03-.17.1-.2.1 0 .17.04.2.12z"/><path fill="#ffe500" d="M317.3 408.5c.04.14-.03.27-.16.3-.12.04-.25-.04-.3-.17-.02-.13.05-.27.18-.3.13-.03.25.05.3.18z"/><ellipse cx="317.138" cy="408.567" fill="#f9db00" transform="matrix(.968 -.25 .25 .968 -91.965 92.121)" rx=".145" ry=".15"/><path fill="#f9db00" d="M317.23 407.9c.02.08-.02.17-.1.2-.08 0-.16-.04-.18-.12-.02-.08.02-.16.1-.18.08-.03.16.02.18.1z"/><path fill="#f9db00" d="M317.23 407.42c.02.08-.02.16-.1.18-.08.03-.16-.02-.18-.1-.02-.08.02-.16.1-.18.08-.02.16.02.18.1z"/><path fill="#f9db00" d="M318.17 408.72c.02.08-.02.16-.1.18-.08.02-.16-.03-.18-.1-.03-.1.02-.17.1-.2.07 0 .15.04.17.12z"/><path fill="#f9db00" d="M318.6 408.77c.03.08 0 .16-.1.18-.07.02-.15-.03-.17-.1-.02-.1.02-.17.1-.2.08 0 .16.04.18.12z"/><path fill="#f9db00" d="M317.67 409.4c.02.07-.02.15-.1.17-.08.02-.16-.03-.18-.1-.03-.1.02-.17.1-.2.07 0 .15.04.17.12z"/><path fill="#f9db00" d="M317.85 409.27c.02.08-.02.16-.1.18-.08.03-.16-.03-.18-.1-.02-.1.03-.17.1-.2.08 0 .16.04.18.12z"/><path fill="#f9db00" d="M317.86 409.68c.02.07-.02.16-.1.18-.08.02-.16-.03-.18-.1-.02-.1.02-.17.1-.2.08 0 .16.04.18.12z"/><circle cx="318.352" cy="409.42" r=".145" fill="#f9db00"/><path fill="#f9db00" d="M318.27 409.2c.02.06-.02.15-.1.17-.08.02-.16-.03-.18-.1-.03-.1 0-.17.1-.2.07 0 .15.04.17.12z"/><circle cx="317.736" cy="408.705" r=".145" fill="#f9db00"/><path fill="#f9db00" d="M317.52 409.1c.02.08-.02.16-.1.2-.08 0-.16-.05-.18-.12-.02-.08.02-.16.1-.2.08 0 .16.04.18.12z"/><path fill="#f9db00" d="M318.3 408.85c0 .08-.03.17-.1.2-.1 0-.16-.04-.2-.12 0-.08.04-.16.1-.18.1-.02.17.02.2.1z"/><path fill="#973d94" d="M319.2 417.4c-.5.15-1 .23-1.4-.2-.37-.4-.7-.53-1.07-.5-.4 0-2.06-1.9-1.46-3.4-.55 1.5-3.25 2.58-4.05 2.36-.36-.1-.5-.23-1.1-.1-.58.12-.93-.06-1.23-.47-.35-.4-.48-.74-.2-1.24.28-.5.18-.85.1-1.2-.17-.57 1.4-2.3 3.03-2.7-1.63.54-4-1.08-4.16-1.52-.12-.33-.1-.46-.6-.76-.48-.3-.7-.64-.5-1.17.05-.5.3-.8.88-1 .56-.17.82-.3.97-.64.15-.34 3.24-1.4 4.53-.24-1.27-1-.52-3.5-.18-3.7.34-.17.34-.38.54-.92.14-.35.5-.76 1.04-.88l4.87 18.27z"/><path fill="#95268c" d="M306.6 406.43c.28-.6.76-.7 1.33-.92.56-.22.75-.5.72-.6-.03-.1 3.3-1.54 5.47.82l.26.46s-1.55-.06-1.73 0c-.17.04-.85-.3-1.33-.4-.48-.13-3-.3-4.7.65z"/><path fill="#86268c" d="M306.67 406.4c.32-.47.77-.5 1.34-.72.57-.23.7-.36.68-.47-.03-.1 3.3-1.53 5.47.84l.25.46s-1.2-.2-1.38-.16c-.18.05-.97-.4-1.46-.52-.48-.12-3.18-.36-4.9.6z"/><path fill="#95268c" d="M319.13 417.4c-.66.03-.97-.35-1.44-.74-.47-.4-.8-.43-.9-.35-.06.08-2.52-2.15-1.47-5.2l.3-.44s.3 1.38.42 1.5c.12.15.15.9.27 1.38.13.48 1.17 2.78 2.8 3.85z"/><path fill="#86268c" d="M319.1 417.34c-.6-.05-.83-.44-1.3-.83-.46-.38-.64-.44-.72-.36-.08.07-2.52-2.23-1.46-5.27l.28-.44s0 1.2.12 1.35c.13.13.1 1.04.23 1.53.13.5 1.2 2.98 2.84 4.04z"/><path fill="#95268c" d="M308.94 415.2c-.23-.63-.1-1.1.14-1.67.25-.56.06-.88-.03-.93-.1-.06 1.5-3.36 4.72-3.22l.5.15s-1.14 1.05-1.23 1.2c-.1.16-.8.4-1.22.66-.43.25-2.33 1.9-2.88 3.8z"/><path fill="#86268c" d="M308.98 415.13c-.12-.56.04-.98.28-1.53.24-.56.12-.75.03-.8-.1-.06 1.5-3.35 4.7-3.22l.5.15s-1 .7-1.08.86c-.1.15-.97.4-1.4.66-.43.26-2.5 2-3.04 3.87z"/><path fill="#984a99" d="M306.6 406.44c-.06.77.42.96.9 1.35.45.38.55.7.5.78-.06.1 2.65 2.48 5.4 1l.38-.34s-1.48-.44-1.63-.54c-.15-.1-.9-.02-1.38-.06-.5-.05-2.82-.78-4.16-2.2z"/><path fill="#9c62a5" d="M306.65 406.5c0 .63.5.8.96 1.18.47.4.57.54.5.63-.05.1 2.67 2.48 5.42 1l.38-.34s-1.2-.2-1.36-.3c-.15-.1-1.04.06-1.53 0-.48-.04-3-.75-4.35-2.17z"/><path fill="#984a99" d="M314.26 399.24c-.73.24-.73.75-.9 1.33-.18.58-.44.8-.54.78-.1-.02-.97 3.3 1.46 5.26l.46.23s-.44-1.43-.4-1.6c.02-.2-.34-.83-.5-1.3-.14-.47-.37-2.9.42-4.7z"/><path fill="#9c62a5" d="M314.23 399.3c-.6.23-.55.76-.73 1.34-.17.58-.27.73-.38.7-.1 0-.93 3.25 1.5 5.22l.46.2s-.6-1-.57-1.2c.04-.17-.44-.92-.6-1.4-.13-.47-.46-3.08.33-4.86z"/><path fill="#984a99" d="M308.94 415.17c.54.55 1 .3 1.6.2.6-.1.9.03.93.13.03.1 3.6-.42 4.26-3.48l-.02-.5s-1.28.84-1.45.9c-.18.04-.6.65-.94 1-.35.35-2.4 1.65-4.36 1.75z"/><path fill="#9c62a5" d="M309 415.17c.48.42.93.15 1.53.04.6-.1.77-.07.8.03.03.1 3.6-.42 4.26-3.47l-.03-.52s-.92.8-1.1.85c-.17.04-.63.8-1 1.16-.34.34-2.52 1.8-4.47 1.9z"/><path fill="#cbc3df" d="M306.6 406.44c.94-.55 3.85-1.66 5.94-.4 2.1 1.28.18 2.4-.43 2.7-.88.47-4.18-.48-5.5-2.3z"/><path fill="#cbc3df" d="M308.94 415.2c.17-1.02 1.2-3.8 3.62-4.55 2.43-.74 2.07 1.33 1.93 1.97-.23.9-3.2 2.73-5.56 2.58z"/><path fill="#cbc3df" d="M319.2 417.38c-.9-.52-3.24-2.4-2.93-4.77.16-1.18.7-1.5 1.28-1.5l1.66 6.28z"/><path fill="#cbc3df" d="M314.35 399.12c-.54.9-1.62 3.73-.17 5.63.72.95 1.36.97 1.85.67l-1.68-6.3z"/><path fill="#562c8e" d="M318.48 414.6c-.3.1-.58.1-.8-.15-.23-.24-.33-.32-.56-.3-.22 0-1.65-1.5-1.3-2.4-.3.9-1.8 1.2-2.28 1.08-.22-.06-.3-.13-.65-.06-.35.07-.56-.04-.74-.28-.2-.24-.27-.44-.1-.73.15-.3.1-.5.04-.7-.1-.35.4-1.26 1.36-1.5-.97.33-1.92-.75-2.02-1-.07-.2-.05-.27-.34-.45-.3-.18-.43-.38-.3-.7.02-.3.17-.47.5-.58.35-.1.5-.2.6-.4.07-.2 1.65-1.04 2.4-.36-.74-.6-.23-2.56-.03-2.66.2-.1.2-.24.3-.55.1-.2.33-.46.64-.53l3.28 12.26z"/><path fill="#602b8d" d="M315.08 402.74l1.1 3.8s-.75.34-1.1.15c-.38-.2-.84-.86-.96-1.36-.12-.5.06-1.4.44-1.74.12-.1.1-.45.15-.6.12-.3.38-.26.38-.26z"/><path fill="#69308f" d="M315.13 402.94l.94 3.23s-.65.28-.95.13c-.3-.16-.7-.73-.8-1.16-.1-.43.04-1.2.37-1.47.1-.08.07-.38.1-.5.1-.27.33-.23.33-.23z"/><path fill="#6f4196" d="M315.25 403.3l.74 2.6s-.53.23-.77.1c-.25-.13-.56-.6-.64-.92-.1-.35.03-.96.3-1.2.07-.05.06-.3.1-.4.06-.2.25-.17.25-.17z"/><path fill="#2d2f8f" d="M318.14 414.13l-1.03-3.78s-.84.1-1.05.42c-.23.34-.28 1.14-.12 1.62.16.48.8 1.16 1.3 1.25.15.03.33.34.45.44.25.2.46.02.46.02z"/><path fill="#2d2f8f" d="M318.08 413.94l-.88-3.2s-.72.06-.9.35c-.2.27-.23.95-.1 1.36.14.42.67 1 1.1 1.07.13.02.28.3.38.37.22.2.4.04.4.04z"/><path fill="#332f8f" d="M317.98 413.56l-.7-2.57s-.57.05-.72.28c-.15.23-.2.78-.08 1.1.1.34.53.8.88.86.1.02.23.23.3.3.18.14.32.02.32.02z"/><path fill="#602b8d" d="M312.45 412.45l2.86-2.3s.6.55.57.92c0 .38-.4 1-.8 1.28-.4.3-1.24.46-1.67.25-.13-.07-.44.07-.58.08-.3.02-.37-.23-.37-.23z"/><path fill="#69308f" d="M312.6 412.34l2.43-1.94s.5.45.48.77c0 .3-.34.86-.67 1.1-.33.23-1.05.37-1.42.2-.1-.06-.36.06-.48.06-.27.02-.32-.2-.32-.2z"/><path fill="#6f4196" d="M312.88 412.1l1.94-1.54s.4.36.4.62c-.03.25-.3.68-.56.87-.26.2-.84.3-1.14.16-.1-.03-.3.06-.4.07-.2 0-.24-.16-.24-.16z"/><path fill="#2d2f8f" d="M312.32 412.5l3.06-2.46s-.42-.74-.82-.8c-.4-.07-1.15.2-1.53.53-.38.35-.75 1.2-.64 1.7.03.15-.18.43-.23.58-.1.32.15.44.15.44z"/><path fill="#2d2f8f" d="M312.48 412.36l2.6-2.08s-.37-.63-.7-.7c-.34-.05-1 .18-1.3.47-.33.3-.65 1-.54 1.43.02.14-.16.38-.2.5-.07.28.14.38.14.38z"/><path fill="#332f8f" d="M312.78 412.12l2.07-1.66s-.28-.5-.55-.56c-.27-.04-.8.14-1.04.37-.26.24-.52.8-.44 1.15.03.1-.12.3-.15.4-.06.22.1.3.1.3z"/><path fill="#602b8d" d="M311.1 407.54l3.6.66s-.03.8-.32 1.03c-.3.23-1.04.34-1.5.24-.47-.12-1.15-.65-1.28-1.12-.03-.14-.33-.28-.44-.38-.22-.22-.07-.43-.07-.43z"/><path fill="#69308f" d="M311.27 407.6l3.06.55s-.02.67-.26.87c-.25.2-.88.3-1.27.2-.4-.1-1-.55-1.1-.94-.02-.12-.28-.24-.37-.33-.18-.2-.06-.36-.06-.36z"/><path fill="#6f4196" d="M311.63 407.65l2.45.44s-.02.53-.22.7c-.2.15-.7.23-1.02.15-.32-.07-.78-.44-.87-.75-.02-.1-.22-.2-.3-.26-.15-.15-.04-.3-.04-.3z"/><path fill="#2d2f8f" d="M311.12 407.44l3.85.7s.3-.8.08-1.14c-.2-.34-.9-.74-1.4-.8-.52-.06-1.4.2-1.7.63-.1.13-.46.15-.6.2-.3.15-.23.42-.23.42z"/><path fill="#2d2f8f" d="M311.32 407.47l3.27.6s.23-.68.05-.97c-.17-.3-.77-.63-1.2-.7-.43-.04-1.18.2-1.43.55-.08.1-.38.12-.5.18-.26.12-.2.34-.2.34z"/><path fill="#332f8f" d="M311.7 407.55l2.62.47s.2-.54.05-.78c-.14-.23-.62-.5-.96-.54-.34-.05-.94.14-1.14.43-.07.08-.3.1-.4.14-.2.1-.17.28-.17.28z"/><path fill="#8a7db8" d="M315.24 402.82l1.1 3.85c-.1.07-.22 0-.38-.13-.52-.4-1.36-2.44-.72-3.72z"/><path fill="#8a7db8" d="M318.26 414.2c-.47-.3-1.4-1.6-1.38-2.8.03-1.2.26-.88.55-.67l.83 3.48z"/><path fill="#8a7db8" d="M311.13 407.45c.47-.34 2-.68 3.18-.12.56.27.76.5.78.67l-3.94-.54z"/><path fill="#8a7db8" d="M311.13 407.66l3.96.37c.02.2-.17.36-.32.47-.6.45-2.63.44-3.65-.84z"/><path fill="#8a7db8" d="M312.27 412.42c.04-.58.75-1.98 1.93-2.53.56-.27.85-.28 1-.2l-2.92 2.72z"/><path fill="#8a7db8" d="M312.44 412.56l2.8-2.84c.17.1.17.35.16.54-.04.76-1.33 2.3-2.96 2.3z"/><path fill="#76c8ac" d="M316.27 407.13c-.93.25-1.48 1.23-1.22 2.2.25.95 1.22 1.53 2.15 1.28l-.93-3.47z"/><path fill="#99d4bf" d="M315.94 406.86c.13.48.5.62.64.58l-.38-1.4c-.14.03-.4.3-.26.82z"/><ellipse cx="315.726" cy="406.978" fill="#76c8ac" transform="matrix(.257 .966 -.966 .257 627.753 -2.843)" rx=".636" ry=".351"/><ellipse cx="315.292" cy="407.573" fill="#99d4bf" transform="matrix(.26 .966 -.966 .26 626.938 -2.794)" rx=".543" ry=".437"/><ellipse cx="314.946" cy="408.284" fill="#76c8ac" transform="matrix(.26 .966 -.966 .26 627.182 -2.076)" rx=".452" ry=".528"/><path fill="#99d4bf" d="M314.85 409.28c.33-.1.55-.3.5-.5-.05-.2-.36-.28-.7-.2-.32.1-.54.32-.5.5.06.2.37.3.7.2z"/><path fill="#76c8ac" d="M314.84 409.66c.38-.1.65-.3.6-.44-.02-.14-.36-.17-.74-.07s-.65.3-.6.44c.02.13.36.16.74.06z"/><ellipse cx="314.906" cy="409.925" fill="#99d4bf" transform="matrix(.256 .967 -.967 .256 630.6 .607)" rx=".361" ry=".617"/><ellipse cx="315.415" cy="410.392" fill="#76c8ac" transform="matrix(.257 .967 -.967 .257 631.051 .171)" rx=".451" ry=".531"/><path fill="#99d4bf" d="M316.16 411.42c.23-.07.36-.35.28-.64-.07-.3-.33-.48-.56-.4-.24.05-.36.33-.28.62.07.3.33.48.56.42z"/><ellipse cx="316.733" cy="410.941" fill="#76c8ac" transform="matrix(.258 .966 -.966 .258 632.249 -.935)" rx=".635" ry=".349"/><path fill="#99d4bf" d="M317.06 411.06c.1.4.47.63.64.6l-.38-1.42c-.17.05-.37.44-.26.82z"/><path fill="#f9ad6b" d="M316.94 409.6c-.36.1-.74-.12-.84-.5-.1-.37.1-.76.48-.86l.36 1.37z"/><path fill="#e8c11f" d="M316.08 408.16c.03.13.17.2.3.18.12-.04.2-.17.16-.3-.04-.13-.17-.2-.3-.18-.12.04-.2.17-.16.3z"/><path fill="#e8c11f" d="M315.7 408.48c.05.13.18.2.3.18.13-.04.2-.17.17-.3-.03-.13-.16-.2-.3-.18-.12.04-.2.17-.16.3z"/><path fill="#e8c11f" d="M315.55 408.6c.03.14.17.22.3.2.12-.05.2-.18.16-.3-.02-.14-.16-.22-.28-.2-.13.05-.2.18-.17.3z"/><ellipse cx="315.808" cy="408.891" fill="#ffe500" transform="matrix(-.966 .258 -.258 -.966 726.39 722.495)" rx=".239" ry=".245"/><path fill="#e8c11f" d="M315.7 409.43c.02.13.16.2.28.18.13-.03.2-.16.17-.3-.03-.12-.17-.2-.3-.17-.12.04-.2.17-.16.3z"/><path fill="#e8c11f" d="M316.03 409.8c.04.12.17.2.3.16.12-.03.2-.16.16-.3-.04-.13-.17-.2-.3-.17-.13.02-.2.16-.17.3z"/><ellipse cx="316.733" cy="409.854" fill="#ffe500" transform="matrix(-.967 .256 -.256 -.967 727.837 724.964)" rx=".238" ry=".244"/><path fill="#ffe500" d="M316.17 410.26c.04.13.17.2.3.17.12-.03.2-.16.16-.3-.03-.13-.17-.2-.3-.17-.12.03-.2.17-.16.3z"/><ellipse cx="315.801" cy="409.847" fill="#ffe500" transform="matrix(-.967 .257 -.257 -.967 726.167 724.974)" rx=".238" ry=".246"/><path fill="#ffe500" d="M315.23 409.28c.03.13.17.2.3.18.12-.04.2-.17.16-.3-.05-.13-.18-.2-.3-.18-.13.04-.2.17-.17.3z"/><path fill="#e8c11f" d="M315.25 408.58c.03.13.16.2.3.17.1-.03.2-.17.16-.3-.03-.13-.16-.2-.3-.17-.12.03-.2.17-.15.3z"/><path fill="#e8c11f" d="M315.7 408.63c.02.13.15.2.28.18.13-.03.2-.16.16-.3-.03-.12-.16-.2-.3-.17-.12.04-.2.17-.15.3z"/><ellipse cx="316.093" cy="408.337" fill="#e8c11f" transform="matrix(-.967 .256 -.256 -.967 726.188 722.146)" rx=".238" ry=".245"/><path fill="#e8c11f" d="M316.1 408.28c.05.12.18.2.3.17.13-.03.2-.17.17-.3-.03-.13-.16-.2-.3-.17-.12.03-.2.17-.16.3z"/><ellipse cx="316.204" cy="407.797" fill="#e8c11f" transform="matrix(-.966 .259 -.259 -.966 727.339 719.649)" rx=".239" ry=".247"/><path fill="#ffe500" d="M315.68 407.95c.03.13.17.2.3.17.12-.03.2-.17.16-.3-.03-.13-.16-.2-.3-.17-.12.03-.2.16-.16.3z"/><path fill="#ffe500" d="M316.9 410.26c.02.13.15.2.28.18l-.13-.48c-.12.04-.2.17-.17.3z"/><path fill="#e8c11f" d="M316.5 410.36c.05.13.18.2.3.17.13-.03.2-.17.17-.3-.03-.13-.17-.2-.3-.17-.12.03-.2.16-.16.3z"/><ellipse cx="317.073" cy="410.262" fill="#e8c11f" transform="matrix(-.966 .258 -.258 -.966 729.232 724.864)" rx=".239" ry=".246"/><ellipse cx="316.034" cy="410.15" fill="#e8c11f" transform="matrix(-.966 .257 -.257 -.966 726.994 725.13)" rx=".239" ry=".246"/><ellipse cx="316.103" cy="409.961" fill="#e8c11f" transform="matrix(-.967 .257 -.257 -.967 726.79 725.121)" rx=".238" ry=".245"/><ellipse cx="316.713" cy="410.182" fill="#e8c11f" transform="matrix(-.967 .254 -.254 -.967 727.091 726.641)" rx=".239" ry=".245"/><ellipse cx="316.91" cy="409.959" fill="#e8c11f" transform="matrix(-.966 .257 -.257 -.966 728.667 724.528)" rx=".239" ry=".246"/><path fill="#e8c11f" d="M316.4 409.4c.04.12.18.2.3.16.13-.03.2-.17.17-.3-.03-.13-.17-.2-.3-.17-.12.02-.2.15-.16.3z"/><path fill="#e8c11f" d="M316.67 409.33c.04.13.17.2.3.17.13-.03.2-.16.16-.3-.03-.13-.16-.2-.3-.17-.12.03-.2.17-.16.3z"/><ellipse cx="317.104" cy="409.592" fill="#e8c11f" transform="matrix(-.966 .26 -.26 -.966 729.787 722.662)" rx=".237" ry=".244"/><ellipse cx="317.217" cy="409.917" fill="#e8c11f" transform="matrix(-.966 .257 -.257 -.966 729.261 724.367)" rx=".239" ry=".246"/><path fill="#e8c11f" d="M317.04 410.2c.03.13.16.2.3.17.12-.03.2-.17.16-.3-.04-.13-.17-.2-.3-.17-.12.03-.2.16-.16.3z"/><path fill="#e8c11f" d="M316.8 409.28c.03.12.16.2.3.17.1-.03.2-.17.15-.3-.03-.13-.16-.2-.3-.17-.12.03-.2.16-.16.3z"/><ellipse cx="316.896" cy="408.919" fill="#e8c11f" transform="matrix(-.966 .26 -.26 -.966 729.155 721.457)" rx=".239" ry=".245"/><ellipse cx="316.91" cy="408.734" fill="#e8c11f" transform="matrix(-.965 .261 -.261 -.965 729.585 720.495)" rx=".239" ry=".245"/><ellipse cx="316.841" cy="408.479" fill="#e8c11f" transform="matrix(-.965 .261 -.261 -.965 729.384 720.012)" rx=".239" ry=".245"/><path fill="#e8c11f" d="M316.57 408.2c.04.12.17.2.3.17.12-.03.2-.17.17-.3-.04-.13-.17-.2-.3-.18-.13.03-.2.16-.17.3z"/><path fill="#e8c11f" d="M316.46 408.18c.04.13.17.2.3.17.12-.03.2-.17.17-.3-.04-.13-.17-.2-.3-.17-.13.03-.2.16-.17.3z"/><path fill="#e8c11f" d="M316.37 407.96c.04.13.17.2.3.18.12-.04.2-.17.16-.3-.03-.13-.16-.2-.3-.18-.12.04-.2.17-.16.3z"/><ellipse cx="316.793" cy="407.828" fill="#e8c11f" transform="matrix(-.966 .258 -.258 -.966 728.22 719.934)" rx=".238" ry=".246"/><ellipse cx="316.732" cy="407.649" fill="#e8c11f" transform="matrix(-.966 .258 -.258 -.966 727.889 719.816)" rx=".239" ry=".244"/><path fill="#e8c11f" d="M316.46 407.57c.04.13.17.2.3.17.12-.03.2-.17.17-.3-.04-.13-.17-.2-.3-.17-.13.04-.2.17-.17.3z"/><path fill="#e8c11f" d="M316.37 407.64c.04.13.17.2.3.18.12-.04.2-.17.16-.3-.03-.13-.17-.2-.3-.18-.12.04-.2.17-.16.3z"/><path fill="#e8c11f" d="M316.3 407.57c.04.13.17.22.3.18.13-.03.2-.17.17-.3-.04-.13-.17-.2-.3-.18-.13.04-.2.17-.17.3z"/><ellipse cx="316.188" cy="409.218" fill="#e8c11f" transform="matrix(-.965 .261 -.261 -.965 728.293 721.634)" rx=".239" ry=".245"/><ellipse cx="316.083" cy="408.722" fill="#e8c11f" transform="matrix(-.966 .257 -.257 -.966 726.722 722.308)" rx=".239" ry=".245"/><ellipse cx="316.419" cy="408.815" fill="#e8c11f" transform="matrix(-.967 .256 -.256 -.967 726.952 723.001)" rx=".238" ry=".244"/><path fill="#e8c11f" d="M316.34 409.1c.03.14.16.2.3.18.12-.03.2-.16.16-.3-.04-.13-.17-.2-.3-.17-.13.04-.2.18-.16.3z"/><ellipse cx="316.548" cy="408.709" fill="#e8c11f" transform="matrix(-.968 .252 -.252 -.968 725.769 724.597)" rx=".239" ry=".247"/><ellipse cx="316.491" cy="408.498" fill="#e8c11f" transform="matrix(-.965 .262 -.262 -.965 728.867 719.92)" rx=".239" ry=".245"/><path fill="#e8c11f" d="M315.42 409.55c.03.13.16.2.3.18.1-.04.2-.17.16-.3-.04-.13-.17-.2-.3-.18-.12.04-.2.17-.16.3z"/><path fill="#e8c11f" d="M316.2 409.93c.02.13.15.2.28.17.13-.03.2-.17.17-.3-.04-.13-.17-.2-.3-.17-.12.03-.2.17-.17.3z"/><path fill="#e8c11f" d="M315.7 409.7c.05.13.18.2.3.17.13-.03.2-.16.17-.3-.03-.13-.16-.2-.3-.17-.12.04-.2.17-.16.3z"/><ellipse cx="315.542" cy="408.922" fill="#e8c11f" transform="matrix(-.966 .258 -.258 -.966 725.876 722.625)" rx=".239" ry=".246"/><ellipse cx="315.505" cy="409.605" fill="#ffe500" transform="matrix(-.967 .256 -.256 -.967 725.357 724.789)" rx=".238" ry=".246"/><path fill="#ffe500" d="M315.17 408.94c.04.13.17.2.3.18.13-.03.2-.17.16-.3-.03-.13-.16-.2-.3-.17-.12.03-.2.16-.16.3z"/><ellipse cx="315.882" cy="408.813" fill="#ffe500" transform="matrix(-.966 .258 -.258 -.966 726.683 722.105)" rx=".238" ry=".246"/><path fill="#ffe500" d="M315.94 408.5c.03.13.16.2.3.18.1-.04.2-.17.16-.3-.04-.13-.17-.2-.3-.18-.13.04-.2.17-.16.3z"/><ellipse cx="315.896" cy="409.079" fill="#ffe500" transform="matrix(-.967 .256 -.256 -.967 725.992 723.654)" rx=".238" ry=".244"/><path fill="#ffe500" d="M316.23 409.06c.03.13.16.2.3.18.12-.04.2-.17.16-.3-.05-.13-.18-.2-.3-.18-.13.04-.2.17-.17.3z"/><path fill="#ffe500" d="M316.67 409.1c.03.12.16.2.3.17.12-.04.2-.17.16-.3-.04-.13-.17-.2-.3-.18-.13.03-.2.16-.16.3z"/><path fill="#ffe500" d="M317.05 409.72c.03.13.16.2.3.18.1-.03.2-.17.16-.3-.03-.13-.16-.2-.3-.18-.12.04-.2.17-.15.3z"/><path fill="#ffe500" d="M316.66 408.6c.04.13.17.2.3.18.12-.03.2-.17.16-.3-.03-.13-.16-.2-.3-.17-.12.04-.2.17-.16.3z"/><path fill="#ffe500" d="M316.27 408.55c.04.13.17.2.3.18.12-.04.2-.17.16-.3-.03-.13-.16-.2-.3-.18-.12.04-.2.17-.16.3z"/><ellipse cx="316.305" cy="408.122" fill="#ffe500" transform="matrix(-.966 .259 -.259 -.966 727.501 720.42)" rx=".238" ry=".246"/><path fill="#ffe500" d="M315.45 408.45c.04.13.17.2.3.18.12-.04.2-.17.16-.3-.02-.13-.15-.2-.28-.18-.13.03-.2.17-.17.3z"/><path fill="#ffe500" d="M316.56 410.22c.04.13.17.2.3.18.12-.03.2-.17.16-.3-.03-.13-.16-.2-.3-.18-.12.04-.2.17-.16.3z"/><path fill="#f9db00" d="M316.34 410.03c.02.08.1.13.18.1.07-.02.12-.1.1-.18-.02-.08-.1-.13-.18-.1-.08.02-.13.1-.1.18z"/><ellipse cx="316.316" cy="409.496" fill="#f9db00" transform="matrix(-.967 .254 -.254 -.967 726.16 725.361)" rx=".144" ry=".15"/><path fill="#ffe500" d="M315.92 409.5c.03.13.16.2.3.18.12-.03.2-.17.15-.3-.03-.13-.16-.2-.3-.18-.1.04-.2.17-.15.3z"/><ellipse cx="316.459" cy="409.598" fill="#ffe500" transform="matrix(-.967 .255 -.255 -.967 726.936 724.915)" rx=".237" ry=".246"/><path fill="#ffe500" d="M316.52 409.78c.03.13.16.2.3.18.12-.04.2-.17.16-.3-.04-.13-.17-.2-.3-.18-.13.04-.2.17-.16.3z"/><ellipse cx="315.637" cy="408.198" fill="#ffe500" transform="matrix(-.967 .255 -.255 -.967 724.962 722.372)" rx=".237" ry=".245"/><ellipse cx="316.202" cy="407.62" fill="#ffe500" transform="matrix(-.966 .257 -.257 -.966 726.673 720.112)" rx=".239" ry=".246"/><path fill="#ffe500" d="M315.6 408.1c.02.14.16.22.3.2.1-.05.2-.18.15-.3-.03-.14-.16-.23-.3-.2-.12.05-.2.18-.16.3z"/><path fill="#f9db00" d="M316.34 409.62c.02.07.1.12.18.1.08-.02.12-.1.1-.18-.02-.08-.1-.13-.18-.1-.08.02-.12.1-.1.18z"/><ellipse cx="316.062" cy="409.336" fill="#f9db00" transform="matrix(-.966 .259 -.259 -.966 727.197 723.053)" rx=".144" ry=".149"/><path fill="#f9db00" d="M316.16 408.62c.02.07.1.12.18.1.08-.02.12-.1.1-.18-.02-.08-.1-.13-.18-.1-.08.02-.12.1-.1.18z"/><ellipse cx="315.894" cy="408.062" fill="#f9db00" transform="matrix(-.967 .255 -.255 -.967 725.507 721.941)" rx=".143" ry=".151"/><circle cx="315.697" cy="408.441" r=".145" fill="#f9db00"/><circle cx="315.37" cy="408.912" r=".145" fill="#f9db00"/><ellipse cx="315.821" cy="408.748" fill="#f9db00" transform="matrix(-.966 .259 -.259 -.966 726.772 721.695)" rx=".145" ry=".15"/><path fill="#f9db00" d="M315.98 408.5c.02.08.1.14.18.12.07-.03.12-.1.1-.2-.02-.07-.1-.1-.18-.1-.08.03-.13.1-.1.2z"/><path fill="#f9db00" d="M316.2 408.18c.02.08.1.13.18.1.07 0 .12-.1.1-.18-.02-.08-.1-.12-.18-.1-.08.02-.12.1-.1.18z"/><path fill="#ffe500" d="M316.44 408.33c.03.13.16.2.3.18.12-.02.2-.16.16-.3-.04-.12-.17-.2-.3-.17-.13.04-.2.17-.16.3z"/><ellipse cx="316.7" cy="408.29" fill="#f9db00" transform="matrix(-.965 .262 -.262 -.965 729.206 719.478)" rx=".144" ry=".15"/><path fill="#ffe500" d="M316.5 408.78c.03.13.17.2.3.18.12-.04.2-.17.16-.3-.03-.13-.17-.2-.3-.17-.12.02-.2.15-.16.28z"/><ellipse cx="316.761" cy="408.161" fill="#ffe500" transform="matrix(-.967 .257 -.257 -.967 727.622 721.411)" rx=".238" ry=".247"/><ellipse cx="316.915" cy="407.946" fill="#ffe500" transform="matrix(-.966 .259 -.259 -.966 728.655 719.916)" rx=".238" ry=".244"/><path fill="#ffe500" d="M317.02 409.1c.04.13.17.2.3.18.12-.03.2-.16.16-.3-.03-.13-.17-.2-.3-.17-.12.04-.2.18-.16.3z"/><path fill="#ffe500" d="M316.75 409.52c.04.13.17.2.3.18.12-.04.2-.17.16-.3-.02-.13-.15-.2-.28-.18-.13.03-.2.17-.17.3z"/><path fill="#f9db00" d="M316.62 408.78c.02.08.1.13.18.1.08-.02.13-.1.1-.18-.02-.07-.1-.13-.17-.1-.08.02-.13.1-.1.18z"/><path fill="#ffe500" d="M317 409.36c.03.13.16.2.3.17.12-.03.2-.16.16-.3-.04-.13-.17-.2-.3-.17-.13.03-.2.17-.17.3z"/><ellipse cx="316.327" cy="408.857" fill="#ffe500" transform="matrix(-.967 .255 -.255 -.967 726.488 723.492)" rx=".237" ry=".245"/><ellipse cx="317.735" cy="408.566" fill="#ffe500" transform="matrix(-.965 .261 -.261 -.965 731.047 720.102)" rx=".238" ry=".245"/><ellipse cx="317.26" cy="409.317" fill="#f9db00" transform="matrix(-.967 .254 -.254 -.967 727.971 724.77)" rx=".144" ry=".15"/><path fill="#ffe500" d="M316.93 410.2c.03.15.16.22.3.2.1-.04.2-.18.15-.3-.03-.14-.16-.22-.3-.2-.12.05-.2.18-.15.3z"/><path fill="#f9db00" d="M317.05 410.2c.02.1.1.14.18.12.07-.02.12-.1.1-.2-.02-.06-.1-.1-.18-.1-.08.03-.12.1-.1.2z"/><path fill="#ffe500" d="M316.52 407.54c.04.13.17.2.3.17.13-.02.2-.15.16-.28-.03-.13-.16-.2-.3-.18-.12.03-.2.17-.16.3z"/><circle cx="316.789" cy="407.499" r=".145" fill="#f9db00"/><path fill="#f9db00" d="M315.96 407.76c.02.08.1.13.18.1.08 0 .12-.1.1-.17-.02-.1-.1-.14-.18-.12-.08.02-.12.1-.1.18z"/><path fill="#f9db00" d="M315.8 409.35c0 .08.1.13.17.1.08 0 .12-.1.1-.17-.02-.08-.1-.13-.18-.1-.1 0-.13.1-.1.17z"/><path fill="#f9db00" d="M315.44 409.62c.02.07.1.13.18.1.07-.02.12-.1.1-.18-.03-.08-.1-.13-.18-.1-.08.02-.12.1-.1.18z"/><ellipse cx="316.698" cy="409.648" fill="#f9db00" transform="matrix(-.967 .254 -.254 -.967 726.95 725.564)" rx=".144" ry=".15"/><path fill="#f9db00" d="M316.34 409.67c.02.08.1.13.18.1.08 0 .12-.1.1-.17-.02-.08-.1-.13-.18-.1-.07 0-.12.1-.1.17z"/><path fill="#f9db00" d="M317.66 408.68c.02.08.1.13.18.1.08 0 .12-.1.1-.18-.02-.07-.1-.12-.18-.1-.08.02-.12.1-.1.18z"/><ellipse cx="316.677" cy="409.993" fill="#f9db00" transform="matrix(-.967 .257 -.257 -.967 728.027 724.905)" rx=".144" ry=".151"/><ellipse cx="315.984" cy="410.05" fill="#f9db00" transform="matrix(-.967 .254 -.254 -.967 725.648 726.536)" rx=".144" ry=".15"/><path fill="#f9db00" d="M315.94 409.8c.02.1.1.14.18.1.07 0 .12-.1.1-.17-.02-.08-.1-.13-.18-.1-.08.02-.12.1-.1.18z"/><circle cx="316.162" cy="409.125" r=".145" fill="#f9db00"/><ellipse cx="317.046" cy="408.832" fill="#f9db00" transform="matrix(-.967 .254 -.254 -.967 727.427 723.869)" rx=".144" ry=".15"/><circle cx="316.605" cy="408.012" r=".145" fill="#f9db00"/><path fill="#f9db00" d="M316.6 407.8c.02.07.1.1.18.1.08-.03.13-.1.1-.2-.02-.07-.1-.12-.18-.1-.07.03-.12.1-.1.2z"/><path fill="#f9db00" d="M316.85 408.2c.02.08.1.12.18.1.08-.02.12-.1.1-.18-.02-.08-.1-.13-.17-.1-.08.02-.13.1-.1.18z"/><ellipse cx="316.823" cy="409.225" fill="#f9db00" transform="matrix(-.967 .254 -.254 -.967 727.089 724.7)" rx=".144" ry=".15"/><ellipse cx="316.682" cy="409.327" fill="#f9db00" transform="matrix(-.967 .255 -.255 -.967 727.108 724.583)" rx=".144" ry=".152"/><ellipse cx="315.892" cy="409.495" fill="#f9db00" transform="matrix(-.967 .255 -.255 -.967 725.597 725.114)" rx=".144" ry=".152"/></g></g></g><path fill-rule="evenodd" d="M-90 193.58h390.7v205.07H-90z" overflow="visible" enable-background="accumulate"/><path fill-rule="evenodd" d="M313.07 243.08h390.7v153.8h-390.7z" overflow="visible" enable-background="accumulate"/><path fill-rule="evenodd" d="M-90 649.7h394.23V791.1H-90z" overflow="visible" enable-background="accumulate"/><path fill-rule="evenodd" d="M313.07 699.2H707.3v93.68H313.07z" overflow="visible" enable-background="accumulate"/></svg>