<svg xmlns="http://www.w3.org/2000/svg" width="48" height="48" xmlns:xlink="http://www.w3.org/1999/xlink"><defs><linearGradient id="c"><stop offset="0" stop-color="#fff"/><stop offset="1" stop-color="#b3b3b3"/></linearGradient><linearGradient id="b"><stop offset="0" stop-color="#ddd"/><stop offset="1" stop-color="#939393"/></linearGradient><linearGradient id="a"><stop offset="0" stop-color="#4283d5"/><stop offset=".327" stop-color="#a4c3eb"/><stop offset="1" stop-color="#214f8a"/></linearGradient><linearGradient id="d" x1="12.305" x2="35.842" y1="23.857" y2="23.857" xlink:href="#a" gradientUnits="userSpaceOnUse"/><linearGradient id="e" x1=".123" x2="48.023" y1="25.357" y2="25.357" xlink:href="#b" gradientUnits="userSpaceOnUse"/><linearGradient id="f" x1=".857" x2="47" y1="15.929" y2="15.929" xlink:href="#c" gradientUnits="userSpaceOnUse"/><linearGradient id="g" x1="12.305" x2="35.842" y1="23.857" y2="23.857" xlink:href="#a" gradientUnits="userSpaceOnUse" gradientTransform="translate(.254 7.175)"/><linearGradient id="h" x1="12.305" x2="35.842" y1="23.857" y2="23.857" xlink:href="#a" gradientUnits="userSpaceOnUse" gradientTransform="matrix(1 0 0 .686 0 8.939)"/></defs><g fill-rule="evenodd"><path fill="url(#d)" stroke="#142e55" stroke-width=".778" d="M12.7 43.82l.03-39.6c0-2.08 5.1-3.76 11.35-3.76 6.27 0 11.35 1.68 11.35 3.75l.02 39.7c-.02 2-5.1 3.67-11.37 3.67-6.26 0-11.37-1.68-11.37-3.75z" stroke-linecap="round" overflow="visible" enable-background="accumulate"/><path fill="url(#e)" stroke="#7e7e7e" d="M47.52 15.6l-.02 19.55L24.06 42 .66 35.1.63 15.58 24.06 8.7l23.46 6.9z" stroke-linecap="round" overflow="visible" enable-background="accumulate"/><path fill="url(#f)" d="M23.86 9.14l-23 6.72 23 6.85L47 16.15l-23.14-7z"/><g><path fill="url(#g)" d="M12.97 20.78l.02-2.22 11.13-3.5L35.7 18.5v2.35c0 2-5.1 3.67-11.36 3.67-6.27 0-11.4-1.67-11.37-3.74z" overflow="visible" enable-background="accumulate" transform="translate(-.254 -7.048)"/><path fill="#9abadd" d="M34.98 4.3a10.95 3.27 0 1 1-21.9 0 10.95 3.27 0 1 1 21.9 0z" overflow="visible" enable-background="accumulate"/></g><path fill="url(#h)" d="M12.7 39.34l.03-27.5h22.7l.02 27.36-11.26 3.4-11.5-3.26z" overflow="visible" enable-background="accumulate" opacity=".407"/></g></svg>