<svg xmlns="http://www.w3.org/2000/svg" width="48" height="48"><g><path fill-rule="evenodd" d="M5 34.76h39.25v13.52H5z" overflow="visible" enable-background="accumulate"/><path fill="#fff" fill-rule="evenodd" d="M16.87 39.5v5.53h6.64c3.95-.05 4.93-2.16 1.46-2.84 2.6-.8 1.42-2.7-1.38-2.7h-6.7z"/><path fill="none" stroke="#eeeeec" stroke-width="4" d="M13.37 31.55l1.1-1.02C20.4 19.53 28.6 10.3 38 2.03" stroke-linecap="round"/><path fill="none" stroke="#eeeeec" stroke-width="4" d="M14.98 6.48c-.27 14.17 9.32 17.2 18.66 17.56" stroke-linecap="round"/><path fill="none" stroke="#000" stroke-opacity=".251" stroke-width="2" d="M16.9 6.48c-.28 14.16 9.3 17.2 18.65 17.56m-20.27 7.5l1.1-1c5.93-11 14.12-20.23 23.54-28.5" stroke-linecap="round"/><path fill-rule="evenodd" stroke="#eeeeec" stroke-width=".9975" d="M26.2 6.33a3.13 3.13 0 1 1-6.27 0 3.13 3.13 0 1 1 6.27 0z" overflow="visible" enable-background="accumulate"/><path fill-opacity=".251" fill-rule="evenodd" d="M27.3 6.44a2.55 2.55 0 1 1-5.1 0 2.55 2.55 0 1 1 5.1 0z" overflow="visible" enable-background="accumulate"/><path fill="#fff" fill-rule="evenodd" d="M7.47 39.5h8.3v1h-5.75v1.47h4.96v.95H9.95v2.26h-2.4l-.08-5.7z"/><path fill-rule="evenodd" d="M19.2 40.62v1.2h3.25c2.1 0 1.84-1.17.25-1.27l-3.5.07z"/><path fill-rule="evenodd" d="M19.24 42.8V44h3.24c2.5 0 2.46-1.33.25-1.28l-3.5.07z"/><path fill="#fff" fill-rule="evenodd" d="M27.26 39.68h2.77l2.4 1.6 11.63-6.38-10.17 7.36L37.97 45h-2.92l-2.62-1.86-2.8 1.9H26.9l3.97-2.85-3.6-2.52z"/><path fill="none" stroke="#000" stroke-width="2" d="M15.05 6.44C14.8 20.6 24.37 23.64 33.7 24" stroke-linecap="round"/><path fill="none" stroke="#000" stroke-width="2" d="M13.45 31.5l1.1-1c5.92-11 14.1-20.23 23.54-28.5" stroke-linecap="round"/><path fill-rule="evenodd" d="M25.47 6.4a2.55 2.55 0 1 1-5.1 0 2.55 2.55 0 1 1 5.1 0z" overflow="visible" enable-background="accumulate"/></g></svg>