<svg xmlns="http://www.w3.org/2000/svg" width="48" height="48" xmlns:xlink="http://www.w3.org/1999/xlink" version="1" viewBox="0 0 612 792" enable-background="new 0 0 612 792"><g><path fill="#33538f" d="M-31.68 82.14c-.66-1.44-1.37-3.2-1.97-4.34 0 0 .33 1.74 1.97 4.34z"/><g><path fill="#515681" d="M81.44 39.88c12.68 0 123.8 1.08 123.8 38.56v.26l.7.22c-.1.95-.54 3.5-2.23 6.84-.1.63-.93 2.3-2.18 4.16-23.17 56.1-59.58 215.35-33.82 248.7 54.8 71.04 93.72 191.92 38.62 318.06-4.4 10.08-8.25 18.5-11.53 25.6-15.04 32.8-15.04 32.8 5.63 52.77 0 0 6 5.5 6 9.25s-6.97 8.13-6.97 8.13c-38.33 18.9-82.76 22.85-113.32 22.85-44.66 0-88.45-8.25-120.13-22.72 0 0-8.52-4.7-8.52-8.25 0-3.5 6.72-8.6 6.72-8.6 21.88-16.35 21.88-16.35 7.92-44.84-4.36-8.88-9.77-20-15.97-34.18-55.1-126.12-16.18-247 38.62-318.04C21.9 303.44-19.9 132.37-40.7 86.2l.06-.04c-1.17-2.66-1.77-5.22-1.77-7.72 0-37.46 111.18-38.56 123.84-38.56m0-16.98c-52.6 0-140.8 7.2-140.8 55.54 0 4.23.8 8.47 2.42 12.68.2.7.46 1.38.77 2.05C-30.85 149.4-.12 304.25-18.67 328.3c-57.75 74.9-98.8 202.27-40.7 335.2 6.58 15.07 12.4 27 16.28 34.86 3 6.08 6.04 12.35 7.35 15.84-2.3 2.02-6.42 5.1-10.2 7.93-6.22 4.72-13.53 12.34-13.53 22.22 0 11.22 9.42 18.76 17.3 23.12.4.2.78.4 1.17.57 33.75 15.4 80.1 24.24 127.16 24.24 32.37 0 79.6-4.26 120.82-24.6.5-.25 1.04-.52 1.53-.84 5.58-3.5 14.9-11.07 14.9-22.5 0-9.24-6.22-16.92-11.46-21.74-4.24-4.1-9.32-9-10.76-11.22.52-3.36 4.67-12.4 9.06-21.98 3.3-7.16 7.2-15.68 11.66-25.88 58.07-132.95 17.03-260.32-40.74-335.22-16.66-21.6 7.9-162.58 35.5-230.47 1.46-2.36 2.36-4.28 2.9-5.8 2.33-5.05 3.06-9.2 3.26-11.3.3-2.76-.1-5.45-1.04-7.9-6.9-43.3-89.96-49.93-140.34-49.93z"/></g><g><path fill="#c9cee2" d="M81.44 49.75c63.53 0 113.95 12.87 113.95 28.7 0 .53-.2 1.08-.32 1.64.34-.7.73-1.7 1.06-2.3 0 0-.16 1.37-1.23 3.5-.4 1.28-1.12 2.56-2.06 3.86-20.38 48.57-64.1 219.1-32.94 259.5 45.05 58.4 94.9 176.47 37.4 308.08-29.02 66.44-34.23 59.87-2.2 90.84-30.96 15.26-70.22 21.85-108.96 21.85-43.47 0-86.28-8.28-116.02-21.85 36.05-26.92 24.1-24.4-4.92-90.84-57.5-131.62-7.64-249.68 37.4-308.07C34.5 303.3-12.03 125.82-31.67 82.14c.1.2.2.37.34.58-.7-1.44-1.15-2.87-1.15-4.28 0-15.82 50.35-28.7 113.94-28.7m114.7 28.07h.08M81.44 32.8c-30.72 0-130.92 3.3-130.92 45.66 0 2.84.5 5.65 1.52 8.5.22.72.48 1.43.8 2.14 22.6 50.3 60.3 214.12 36.33 245.2-56.05 72.65-95.86 196.24-39.52 325.25 6.26 14.37 11.73 25.5 16.13 34.46 4.78 9.8 9.76 19.93 9.7 22.93-1.23 2.38-11.98 10.4-15.53 13.06-4.8 3.57-7.36 9.43-6.72 15.38.63 5.98 4.38 11.16 9.83 13.65C-4.37 773.88 40.5 782.4 86.12 782.4c31.3 0 76.92-4.1 116.47-23.6 4.94-2.45 8.4-7.14 9.25-12.6.85-5.45-1-10.98-4.97-14.82l-1.53-1.46c-6.8-6.6-14.54-14.07-15.17-16.45-.48-3.04 5.38-15.84 11.05-28.18 3.27-7.17 7.16-15.62 11.6-25.77 56.33-129 16.52-252.58-39.52-325.25-22.55-29.25 9.5-180.22 34.55-241.07 1.12-1.77 2.02-3.54 2.7-5.34.96-2.07 1.56-3.9 1.92-5.4.42-1.5.66-3.05.66-4.68 0-3.58-1.1-6.93-3.02-9.66-14.85-32.6-100.65-35.34-128.66-35.34z"/></g></g><path fill="none" stroke="#414042" stroke-width="16.974" stroke-miterlimit="10" d="M270.1 19.03v765.24" stroke-linecap="round" stroke-linejoin="round"/><path fill="#4169b2" d="M81.24 111.4c111.86 0 114.9-33.6 114.9-33.6-18.32 35.5-69.2 224.1-36.26 266.85 45.05 58.4 94.9 176.47 37.4 308.05-29.02 66.48-34.2 59.9-2.2 90.88-65.7 32.36-168.7 25.64-225 0 36.08-26.92 24.13-24.4-4.9-90.88-57.5-131.58-7.64-249.64 37.4-308.05C35.55 301.9-15.34 113.3-33.67 77.8c.02 0 5.18 33.6 114.92 33.6z"/><path fill="#33538f" d="M195.4 78.44c0 15.9-43.4 33.95-113.5 33.95-69.38 0-114.4-18.07-114.4-33.96 0-15.85 50.35-28.7 113.94-28.7 63.55 0 113.95 12.85 113.95 28.7z"/><path fill="#4f70b6" d="M-14.08 104.97s46.48 29.32 151.6 15.18c43.34-5.84-20.23 151.58-23.25 202.1-1.22 20.38-86.9 120.24-33.36 315.24 18.65 67.86-113.16 75.8-132.37-76.78-10-79.54 37.85-175.82 61.65-212.22 17.2-26.26 20.2-65.67 10.1-118.22-9.6-49.84-34.36-125.3-34.36-125.3z"/><path fill="#627cbd" d="M-7 110.03s47.5 22.24 90.93 17.18c43.46-5.03-18.17 185.95-21.2 206.16-3.05 20.22-89.94 109.15-36.4 304.15 18.63 67.88-66.7 3.07-73.78-76.76C-54.5 480.9-9.6 384.9 14.2 348.52c17.18-26.26 20.2-65.67 10.1-118.23C14.73 180.43-7 110.02-7 110.02z"/><path fill="#8293ca" d="M4.53 125.94s22 18.96 54.13 14.4c32.17-4.56-8.84 167.66-11.1 185.93-2.24 18.28-80.83 83.85-57.6 225.32 6.34 38.54-25.1 48.92-30.3-23.25C-45.6 456.2 2.6 374.42 20.2 341.55c12.73-23.75 14.95-59.4 7.48-106.9-7.08-45.06-23.15-108.7-23.15-108.7z"/><path fill="#a7b1da" d="M9.9 135.37s11.38 10.02 31.58 10.7c21.85.73-.42 155.06-5.36 141.46-5.4-14.82-2.36-38.4-4.74-55.23-6.3-44.85-21.47-96.93-21.47-96.93z"/><path fill="#a7b1da" d="M35.42 342.43C33.2 360.73-39.33 398-16.1 539.48c6.34 38.54-16 51.96-21.2-20.2-5.26-72.2 31.9-132.84 49.48-165.73 12.73-23.75 25.5-29.4 23.24-11.12z"/><path fill="#475f98" d="M181.96 93.85s5.55-14.63 1.02-20.18c-4.57-5.57-40.43-19.2-82.53-12.8-16 2.43-24.56 51.7-24.56 51.7 13.6 1.5 76.75-.52 106.06-18.72z"/><path fill="#6072a6" d="M171.85 97.9s2.78-11.72.4-16.5c-2.44-4.72-27.1-11.56-39.45-10.8-12.37.78-18.04 40.42-18.04 40.42s34.87-1.48 57.1-13.13z"/><g transform="matrix(16.974 0 0 16.974 -5384.297 -6326.135)"><defs><path id="a" d="M332.73 372.2h26.35v24.56h-26.35z"/></defs><clipPath id="b"><use width="612" height="792" xlink:href="#a" overflow="visible"/></clipPath><path fill="#4d6153" d="M349.32 391.2c.68.6 3.22 6.02 3.05 7.3-.17 1.27-4.77 8.8-5 15-.26 6.8-1.45 1.8-1.45 1.8l-.08-1.53s1.2-6.74 5-14.77c.77-1.6-1.6-5-2.88-7.38.34-2.03 1.36-.42 1.36-.42z" clip-path="url(#b)"/><path fill="#87b08f" d="M347.78 398.55c2.3-5.78-.84-13.3-13.1-16.8 1.06 15.48 7.66 17.97 13.1 16.8z" clip-path="url(#b)"/><path fill="#518254" d="M347.22 399.7c-.43-4-4.38-6.98-12.26-4.4 5.13 8.1 9.55 7.05 12.26 4.4z" clip-path="url(#b)"/><g clip-path="url(#b)"><path fill="none" stroke="#7c4d64" stroke-width="1.2" stroke-miterlimit="10" d="M348.2 374.87l.1.02c.64.13 1.06.62 1.22 1 .04.1.08.2.1.27.13.32.16.38.32.46.36.17.63 1.05.72 1.6.07.38.1.97-.05 1.54.94-.25 2-.08 2.53.04.37.1 1.25.32 1.42.65.1.2.23.3.8.45.66.18 1.02.55 1.13 1.15.35.88-.36 1.36-.6 1.52-.3.2-.32.26-.38.47 0 .04-.02.1-.04.14-.14.43-1.47 1.5-2.86 1.85 1.13.67 2.08 1.72 1.95 2.34-.07.33-.13.58.1.95.42.7.16 1.18-.15 1.57-.37.53-.83.72-1.5.6-.37-.05-.5 0-.72.08-.06.02-.13.05-.2.07-.33.1-.8.05-1.12-.03-.75-.16-1.86-.6-2.63-1.3-.1.7-.46 1.36-.67 1.67-.14.2-.65.92-1.06.92-.28 0-.5.08-.82.46-.46.55-1.1.48-1.55.4-.04-.02-.1-.04-.16-.05"/><path fill="none" stroke="#fffdee" stroke-width="1.2" stroke-miterlimit="10" d="M344.14 393.43c.52.13 1.05.18 1.4-.25.36-.43.67-.56 1.05-.56.37 0 1.94-1.95 1.28-3.4.6 1.46 3.32 2.4 4.1 2.15.36-.12.5-.25 1.08-.15.58.1.92-.1 1.2-.52.3-.4.43-.73.13-1.22-.3-.5-.22-.83-.15-1.18.13-.57-1.5-2.22-3.12-2.53 1.63.46 3.9-1.24 4.04-1.68.1-.35.07-.47.55-.8.47-.3.7-.65.47-1.17-.1-.5-.37-.78-.93-.94-.57-.16-.84-.3-1-.62-.15-.32-3.25-1.22-4.48-.03 1.2-1.05.35-3.48 0-3.65-.33-.16-.34-.38-.56-.9-.15-.34-.57-.75-1.1-.84"/><path fill="#db9d5b" d="M344.16 393.4c.52.12 1.02.18 1.38-.25.35-.43.67-.56 1.04-.56.38-.02 1.95-1.97 1.3-3.43.6 1.48 3.3 2.42 4.1 2.17.35-.12.5-.25 1.07-.16.6.1.92-.1 1.2-.5.3-.4.43-.74.13-1.23-.3-.5-.2-.83-.13-1.18.12-.57-1.5-2.22-3.13-2.53 1.64.46 3.9-1.25 4.04-1.68.1-.34.08-.46.55-.78.48-.3.7-.66.48-1.18-.08-.5-.35-.78-.92-.94-.57-.16-.83-.28-1-.6-.15-.33-3.25-1.24-4.47-.05 1.2-1.04.34-3.47 0-3.63-.34-.16-.35-.38-.57-.9-.14-.34-.53-.73-1.06-.83l-4 18.25z"/><path fill="#d68d58" d="M356.13 382.03c-.3-.6-.78-.66-1.35-.86-.56-.2-.76-.46-.74-.57.02-.1-3.32-1.37-5.36 1.06l-.24.46s1.53-.12 1.7-.08c.18.03.83-.32 1.3-.46.48-.13 2.96-.42 4.7.45z"/><path fill="#c48759" d="M356.06 382c-.33-.45-.78-.46-1.35-.66-.55-.2-.7-.32-.67-.43.02-.1-3.32-1.36-5.37 1.07l-.23.46s1.18-.25 1.36-.22c.17.05.94-.42 1.4-.56.48-.13 3.13-.5 4.86.37z"/><path fill="#d68d58" d="M344.24 393.38c.65.02.94-.37 1.4-.78.43-.4.76-.46.84-.38.08.07 2.4-2.25 1.24-5.2l-.3-.42s-.25 1.37-.36 1.5c-.12.14-.1.88-.22 1.36-.1.5-1.03 2.8-2.6 3.92z"/><path fill="#c48759" d="M344.28 393.33c.57-.07.8-.46 1.23-.87.45-.4.63-.47.7-.4.1.07 2.4-2.3 1.22-5.26l-.3-.43s.06 1.2-.06 1.34c-.1.14-.06 1.05-.16 1.53s-1.04 2.98-2.62 4.1z"/><path fill="#d68d58" d="M354.2 390.77c.2-.62.05-1.1-.2-1.63-.27-.54-.1-.87 0-.93.08-.05-1.65-3.23-4.8-2.95l-.5.17s1.16.98 1.26 1.13c.1.15.8.36 1.24.6.43.24 2.4 1.8 3 3.62z"/><path fill="#c48759" d="M354.17 390.7c.1-.55-.1-.95-.35-1.5-.26-.53-.15-.72-.06-.77.1-.06-1.64-3.24-4.8-2.97l-.5.17s1.02.65 1.12.8c.1.15.98.36 1.4.6.44.24 2.57 1.86 3.2 3.7z"/><path fill="#dfa85d" d="M356.13 382.04c.1.75-.37.97-.8 1.37-.45.4-.54.73-.48.8.06.1-2.52 2.57-5.3 1.23l-.38-.32s1.44-.5 1.58-.6c.15-.1.88-.05 1.36-.12.5-.06 2.76-.88 4.02-2.34z"/><path fill="#e7c061" d="M356.1 382.1c.03.62-.46.8-.9 1.2-.45.4-.54.56-.48.64.07.1-2.5 2.56-5.3 1.22l-.38-.32s1.18-.25 1.32-.35c.15-.12 1.03 0 1.5-.07.5-.07 2.97-.88 4.23-2.34z"/><path fill="#dfa85d" d="M348.26 375.26c.73.2.75.7.95 1.28.2.56.47.76.57.74.1-.02 1.1 3.2-1.2 5.26l-.45.23s.37-1.42.33-1.6c-.04-.18.3-.83.42-1.3.12-.47.25-2.88-.6-4.6z"/><path fill="#e7c061" d="M348.3 375.32c.58.2.56.73.76 1.3.2.55.3.7.4.67.1-.03 1.07 3.15-1.24 5.2l-.45.23s.55-1.03.5-1.2c-.03-.18.42-.95.54-1.42.14-.47.35-3.06-.5-4.78z"/><path fill="#dfa85d" d="M354.2 390.75c-.5.57-.97.35-1.56.27-.6-.07-.9.07-.92.17-.02.1-3.57-.27-4.36-3.26v-.5s1.3.77 1.5.82c.16.04.6.63.96.95.36.34 2.45 1.54 4.38 1.55z"/><path fill="#e7c061" d="M354.14 390.75c-.45.44-.9.2-1.5.1-.6-.06-.77-.03-.8.07-.02.1-3.57-.26-4.35-3.25l-.02-.5s.95.73 1.13.78c.18.04.66.8 1.03 1.1.37.34 2.58 1.7 4.5 1.7z"/><path fill="#fff066" d="M356.13 382.03c-.95-.5-3.87-1.47-5.88-.12-2 1.35-.07 2.37.55 2.66.9.4 4.1-.68 5.33-2.53z"/><path fill="#fff066" d="M354.2 390.78c-.2-1-1.33-3.7-3.77-4.33-2.43-.62-2 1.4-1.8 2.02.24.9 3.25 2.57 5.57 2.3z"/><path fill="#fff066" d="M344.15 393.4c.9-.56 3.1-2.53 2.7-4.86-.22-1.17-.77-1.47-1.34-1.43l-1.35 6.3z"/><path fill="#fff066" d="M348.17 375.14c.58.87 1.76 3.62.4 5.56-.67.97-1.3 1-1.8.74l1.4-6.3z"/><path fill="#d28577" d="M344.76 390.6c.3.08.58.08.8-.18.2-.25.3-.33.52-.34.22 0 1.56-1.53 1.17-2.4.36.88 1.85 1.12 2.3.96.22-.06.3-.14.65-.1.34.07.54-.05.7-.3.2-.22.26-.43.08-.7-.17-.3-.12-.5-.08-.7.08-.34-.44-1.22-1.4-1.4.97.27 1.86-.84 1.94-1.1.07-.2.05-.27.33-.45.28-.2.4-.4.27-.7-.05-.3-.2-.47-.54-.57-.34-.1-.5-.17-.6-.36-.08-.2-1.67-.96-2.4-.25.72-.62.13-2.54-.06-2.63-.2-.1-.2-.24-.34-.54-.1-.2-.32-.44-.63-.5l-2.7 12.25z"/><path fill="#dc8877" d="M347.6 378.76l-.93 3.8s.77.3 1.12.1c.33-.2.77-.9.86-1.38.1-.5-.12-1.4-.5-1.7-.13-.1-.13-.44-.2-.58-.1-.3-.36-.24-.36-.24z"/><path fill="#e78f79" d="M347.56 378.95l-.78 3.23s.65.25.94.08c.3-.17.66-.75.74-1.17.08-.44-.1-1.2-.43-1.45-.1-.07-.1-.37-.15-.5-.1-.25-.32-.2-.32-.2z"/><path fill="#f2a17e" d="M347.46 379.32l-.62 2.6s.52.2.76.05c.23-.13.52-.6.6-.94.05-.34-.1-.94-.36-1.15-.08-.06-.08-.3-.12-.4-.08-.2-.26-.16-.26-.16z"/><path fill="#af7e79" d="M345.07 390.12l.86-3.77s.83.05 1.07.37c.23.32.32 1.1.18 1.6-.14.48-.73 1.18-1.23 1.3-.15.03-.3.34-.42.44-.24.23-.46.06-.46.06z"/><path fill="#af7e79" d="M345.13 389.93l.72-3.2s.7.04.9.3c.2.28.28.95.17 1.36-.12.4-.62 1-1.04 1.1-.13.03-.27.3-.36.38-.2.2-.4.05-.4.05z"/><path fill="#c2968f" d="M345.2 389.56l.6-2.57s.56.03.7.25c.17.2.23.75.14 1.08-.1.33-.5.8-.83.9-.1 0-.2.22-.28.3-.17.14-.3.03-.3.03z"/><path fill="#dc8877" d="M350.62 388.22l-2.92-2.13s-.56.54-.52.9c.03.38.45 1 .85 1.24.4.26 1.24.4 1.66.16.12-.06.42.06.56.06.3 0 .36-.24.36-.24z"/><path fill="#e78f79" d="M350.46 388.12l-2.47-1.8s-.5.46-.46.77c.03.3.4.82.72 1.04.34.22 1.06.33 1.4.13.12-.05.38.05.5.05.26 0 .3-.2.3-.2z"/><path fill="#f2a17e" d="M350.18 387.9l-1.98-1.44s-.38.37-.36.62c.03.25.3.67.58.84.27.18.84.27 1.13.1.1-.04.3.05.4.05.2 0 .23-.16.23-.16z"/><path fill="#af7e79" d="M350.75 388.26l-3.13-2.3s.4-.74.77-.82c.38-.08 1.14.15 1.53.46.4.33.8 1.14.7 1.65-.03.15.2.42.25.56.1.33-.13.46-.13.46z"/><path fill="#af7e79" d="M350.6 388.13l-2.66-1.94s.33-.65.65-.72c.32-.07.97.13 1.3.4.33.27.68.97.6 1.4-.03.12.16.35.2.47.1.27-.1.38-.1.38z"/><path fill="#c2968f" d="M350.35 387.85l-2.12-1.55s.26-.5.52-.57c.26-.06.78.1 1.04.32s.54.78.47 1.12c-.02.1.14.28.17.38.07.2-.1.3-.1.3z"/><path fill="#dc8877" d="M351.75 383.32l-3.53.8s.06.8.36 1c.3.22 1.04.3 1.48.17.46-.14 1.1-.7 1.22-1.16.03-.14.32-.3.42-.4.2-.22.05-.42.05-.42z"/><path fill="#e78f79" d="M351.57 383.37l-3 .7s.05.65.3.83c.26.2.9.26 1.27.15.4-.1.94-.58 1.03-.98.03-.12.27-.25.35-.33.18-.2.05-.37.05-.37z"/><path fill="#f2a17e" d="M351.22 383.44l-2.4.55s.04.52.25.67c.2.15.7.2 1 .12.32-.1.76-.48.83-.8.03-.1.22-.2.3-.26.13-.16.02-.3.02-.3z"/><path fill="#af7e79" d="M351.72 383.23l-3.78.85s-.3-.77-.12-1.12c.2-.35.86-.77 1.35-.86.5-.08 1.4.15 1.7.55.1.12.46.13.6.2.3.1.25.38.25.38z"/><path fill="#af7e79" d="M351.52 383.26l-3.2.73s-.27-.67-.1-.97c.15-.3.72-.65 1.14-.72.43-.07 1.18.13 1.45.47.1.1.4.1.5.16.27.1.22.33.22.33z"/><path fill="#c2968f" d="M351.15 383.35l-2.57.58s-.2-.53-.08-.76c.13-.24.6-.53.92-.58.34-.07.95.08 1.16.36.07.08.3.1.4.13.2.07.17.25.17.25z"/><path fill="#fce596" d="M347.47 378.85l-.93 3.83c.1.07.28 0 .43-.12.5-.42 1.2-2.5.5-3.7z"/><path fill="#fce596" d="M344.98 390.2c.44-.32 1.3-1.63 1.23-2.8-.07-1.2-.3-.88-.58-.66l-.64 3.47z"/><path fill="#fce596" d="M351.7 383.23c-.47-.32-2-.58-3.14.02-.53.3-.72.52-.73.7l3.87-.72z"/><path fill="#fce596" d="M351.72 383.44l-3.9.53c-.02.2.17.35.33.46.62.4 2.6.3 3.57-1z"/><path fill="#fce596" d="M350.8 388.18c-.07-.57-.83-1.92-2.02-2.4-.56-.25-.85-.24-1-.14l3 2.54z"/><path fill="#fce596" d="M350.64 388.32l-2.88-2.67c-.17.1-.17.35-.15.54.1.73 1.43 2.2 3.04 2.12z"/><path fill="#1f4c40" d="M346.6 383.14c.95.2 1.53 1.15 1.32 2.1-.2.96-1.14 1.67-2.07 1.47l.76-3.56z"/><path fill="#995c4e" d="M346.94 382.85c-.1.4-.4.65-.6.6l.3-1.4c.15.03.4.3.3.8z"/><path fill="#825a44" d="M347 383.58c-.18-.04-.26-.35-.2-.7.08-.33.3-.57.48-.53.2.04.28.35.2.7-.07.32-.28.57-.47.53z"/><ellipse cx="347.603" cy="383.531" fill="#995c4e" transform="matrix(-.214 .977 -.977 -.214 796.748 126.253)" rx=".537" ry=".435"/><ellipse cx="347.975" cy="384.217" fill="#825a44" transform="matrix(-.215 .977 -.977 -.215 798.134 127.183)" rx=".447" ry=".523"/><ellipse cx="348.192" cy="384.851" fill="#995c4e" transform="matrix(-.215 .977 -.977 -.215 798.799 127.359)" rx=".355" ry=".612"/><ellipse cx="348.196" cy="385.318" fill="#825a44" transform="matrix(-.215 .977 -.977 -.215 799.357 128.093)" rx=".263" ry=".701"/><path fill="#995c4e" d="M348 386.18c-.32-.07-.56-.28-.5-.48.03-.2.33-.28.66-.2.33.06.56.28.52.47-.04.2-.34.28-.67.2z"/><ellipse cx="347.601" cy="386.316" fill="#825a44" transform="matrix(-.216 .977 -.977 -.216 799.789 130.206)" rx=".446" ry=".521"/><ellipse cx="347.028" cy="386.836" fill="#995c4e" transform="matrix(-.215 .977 -.977 -.215 799.456 131.142)" rx=".538" ry=".435"/><ellipse cx="346.325" cy="386.916" fill="#825a44" transform="matrix(-.215 .977 -.977 -.215 798.748 132.047)" rx=".628" ry=".344"/><path fill="#995c4e" d="M346 387.05c-.1.46-.4.65-.6.6l.32-1.4c.18.04.38.42.3.8z"/><path fill="#5c3d1e" d="M346.06 385.6c.37.1.73-.15.8-.53.1-.37-.14-.74-.5-.82l-.3 1.36z"/><ellipse cx="346.62" cy="384.095" fill="#544600" transform="matrix(.976 .216 -.216 .976 91.373 -65.931)" rx=".235" ry=".242"/><ellipse cx="346.995" cy="384.395" fill="#544600" transform="matrix(.977 .216 -.216 .977 91.042 -65.775)" rx=".236" ry=".244"/><ellipse cx="347.162" cy="384.516" fill="#544600" transform="matrix(.977 .216 -.216 .977 91.072 -65.808)" rx=".236" ry=".242"/><ellipse cx="347.149" cy="384.852" fill="#5f5400" transform="matrix(.977 .214 -.214 .977 90.432 -65.392)" rx=".235" ry=".243"/><ellipse cx="347.059" cy="385.33" fill="#544600" transform="matrix(.977 .215 -.215 .977 90.844 -65.539)" rx=".236" ry=".242"/><path fill="#544600" d="M346.97 385.75c-.03.13-.16.2-.3.18-.1-.02-.2-.15-.16-.28.03-.13.16-.22.3-.2.12.04.2.17.17.3z"/><ellipse cx="346.278" cy="385.844" fill="#5f5400" transform="matrix(.977 .216 -.216 .977 91.338 -65.587)" rx=".236" ry=".242"/><ellipse cx="346.619" cy="386.166" fill="#5f5400" transform="matrix(.976 .216 -.216 .976 91.618 -65.767)" rx=".235" ry=".242"/><path fill="#5f5400" d="M347.43 385.85c-.03.13-.16.2-.28.2-.13-.04-.2-.17-.18-.3.02-.13.15-.22.28-.2.13.04.2.17.18.3z"/><ellipse cx="347.506" cy="385.164" fill="#5f5400" transform="matrix(.977 .215 -.215 .977 91.019 -65.753)" rx=".236" ry=".244"/><ellipse cx="347.461" cy="384.469" fill="#544600" transform="matrix(.977 .215 -.215 .977 90.868 -65.76)" rx=".236" ry=".243"/><ellipse cx="347.031" cy="384.541" fill="#544600" transform="matrix(.977 .215 -.215 .977 90.674 -65.552)" rx=".236" ry=".242"/><circle cx="346.843" cy="384.319" r=".236" fill="#544600"/><ellipse cx="346.59" cy="384.208" fill="#544600" transform="matrix(.977 .215 -.215 .977 90.592 -65.465)" rx=".236" ry=".243"/><circle cx="346.71" cy="383.793" r=".236" fill="#544600"/><ellipse cx="347.004" cy="383.863" fill="#5f5400" transform="matrix(.977 .215 -.215 .977 90.727 -65.675)" rx=".236" ry=".244"/><path fill="#5f5400" d="M346.14 386.25c-.02.13-.15.22-.28.2l.1-.5c.13.04.2.17.2.3z"/><path fill="#544600" d="M346.52 386.33c-.03.13-.16.2-.28.2-.13-.04-.2-.17-.18-.3.03-.13.15-.22.28-.2.13.04.2.17.18.3z"/><ellipse cx="345.959" cy="386.262" fill="#544600" transform="matrix(.977 .216 -.216 .977 91.421 -65.508)" rx=".236" ry=".242"/><circle cx="346.979" cy="386.107" r=".236" fill="#544600"/><ellipse cx="346.905" cy="385.923" fill="#544600" transform="matrix(.977 .214 -.214 .977 90.456 -65.201)" rx=".235" ry=".243"/><ellipse cx="346.312" cy="386.167" fill="#544600" transform="matrix(.977 .211 -.211 .977 89.382 -64.437)" rx=".236" ry=".243"/><ellipse cx="346.109" cy="385.956" fill="#544600" transform="matrix(.977 .216 -.216 .977 91.358 -65.547)" rx=".236" ry=".242"/><ellipse cx="346.346" cy="385.316" fill="#544600" transform="matrix(.977 .214 -.214 .977 90.313 -65.096)" rx=".235" ry=".243"/><ellipse cx="346.789" cy="385.191" fill="#544600" transform="matrix(.977 .216 -.216 .977 91.209 -65.712)" rx=".236" ry=".242"/><ellipse cx="346.87" cy="384.697" fill="#544600" transform="matrix(.977 .215 -.215 .977 90.904 -65.627)" rx=".236" ry=".243"/><ellipse cx="346.18" cy="384.103" fill="#544600" transform="matrix(.977 .216 -.216 .977 90.96 -65.606)" rx=".236" ry=".243"/><ellipse cx="346.408" cy="385.038" fill="#544600" transform="matrix(.977 .216 -.216 .977 91.167 -65.633)" rx=".236" ry=".243"/><ellipse cx="346.411" cy="384.707" fill="#544600" transform="matrix(.977 .216 -.216 .977 91.096 -65.642)" rx=".236" ry=".242"/><ellipse cx="346.458" cy="384.496" fill="#544600" transform="matrix(.977 .216 -.216 .977 91.052 -65.657)" rx=".236" ry=".242"/><ellipse cx="347.334" cy="385.438" fill="#544600" transform="matrix(.977 .216 -.216 .977 91.275 -65.824)" rx=".236" ry=".242"/><ellipse cx="346.59" cy="385.84" fill="#544600" transform="matrix(.977 .213 -.213 .977 90.231 -65.023)" rx=".236" ry=".243"/><ellipse cx="347.046" cy="385.595" fill="#544600" transform="matrix(.977 .212 -.212 .977 89.475 -64.718)" rx=".235" ry=".241"/><ellipse cx="347.414" cy="384.872" fill="#544600" transform="matrix(.977 .216 -.216 .977 91.155 -65.854)" rx=".236" ry=".241"/><circle cx="347.479" cy="385.547" r=".236" fill="#5f5400"/><ellipse cx="347.547" cy="384.828" fill="#5f5400" transform="matrix(.976 .216 -.216 .976 91.351 -65.999)" rx=".235" ry=".242"/><path fill="#5f5400" d="M347.3 384.83c-.03.13-.15.2-.28.2-.13-.04-.2-.17-.18-.3.03-.13.16-.2.28-.2.13.04.2.17.18.3z"/><ellipse cx="346.777" cy="384.425" fill="#5f5400" transform="matrix(.976 .216 -.216 .976 91.245 -65.842)" rx=".235" ry=".241"/><path fill="#5f5400" d="M347.3 385.1c-.03.12-.15.2-.28.18-.13-.03-.2-.16-.18-.3.03-.12.16-.2.28-.17.13.03.2.16.18.3z"/><ellipse cx="346.514" cy="384.99" fill="#5f5400" transform="matrix(.977 .214 -.214 .977 90.447 -65.253)" rx=".235" ry=".241"/><ellipse cx="346.444" cy="384.489" fill="#5f5400" transform="matrix(.976 .216 -.216 .976 91.251 -65.769)" rx=".235" ry=".243"/><ellipse cx="346.624" cy="384.117" fill="#5f5400" transform="matrix(.977 .214 -.214 .977 90.263 -65.297)" rx=".235" ry=".243"/><path fill="#5f5400" d="M347.48 384.4c-.03.13-.15.22-.28.2-.13-.04-.2-.17-.18-.3.03-.13.16-.2.28-.2.13.04.2.17.18.3z"/><ellipse cx="346.231" cy="386.15" fill="#5f5400" transform="matrix(.976 .216 -.216 .976 91.605 -65.683)" rx=".235" ry=".242"/><circle cx="346.538" cy="385.968" r=".143" fill="#554c00"/><circle cx="346.672" cy="385.471" r=".144" fill="#554c00"/><ellipse cx="346.837" cy="385.411" fill="#5f5400" transform="matrix(.977 .214 -.214 .977 90.746 -65.427)" rx=".234" ry=".242"/><ellipse cx="346.538" cy="385.58" fill="#5f5400" transform="matrix(.977 .216 -.216 .977 91.287 -65.649)" rx=".236" ry=".242"/><path fill="#5f5400" d="M346.5 385.76c-.04.13-.17.22-.3.2-.12-.04-.2-.17-.17-.3.03-.13.15-.2.28-.2.14.04.22.17.2.3z"/><ellipse cx="347.288" cy="384.164" fill="#5f5400" transform="matrix(.977 .214 -.214 .977 90.088 -65.324)" rx=".235" ry=".243"/><ellipse cx="346.705" cy="383.616" fill="#5f5400" transform="matrix(.976 .217 -.217 .976 91.373 -66.019)" rx=".237" ry=".243"/><ellipse cx="347.1" cy="384.021" fill="#5f5400" transform="matrix(.977 .216 -.216 .977 90.964 -65.807)" rx=".236" ry=".243"/><ellipse cx="346.515" cy="385.56" fill="#554c00" transform="matrix(.977 .215 -.215 .977 91.055 -65.516)" rx=".143" ry=".149"/><ellipse cx="346.917" cy="385.302" fill="#554c00" transform="matrix(.977 .212 -.212 .977 89.506 -64.752)" rx=".143" ry=".149"/><circle cx="346.65" cy="384.565" r=".143" fill="#554c00"/><circle cx="347.029" cy="384.04" r=".142" fill="#554c00"/><ellipse cx="347.24" cy="384.405" fill="#554c00" transform="matrix(.976 .216 -.216 .976 91.156 -65.888)" rx=".143" ry=".148"/><path fill="#554c00" d="M347.72 384.9c0 .06-.1.12-.17.1-.07-.02-.12-.1-.1-.18 0-.08.1-.13.17-.1.07 0 .12.1.1.16z"/><ellipse cx="347.13" cy="384.713" fill="#554c00" transform="matrix(.976 .219 -.219 .976 92.727 -66.71)" rx=".143" ry=".148"/><path fill="#554c00" d="M346.97 384.48c-.02.08-.1.13-.18.12-.08-.02-.13-.1-.1-.18 0-.08.08-.13.16-.1.08 0 .12.08.1.16z"/><circle cx="346.592" cy="384.138" r=".143" fill="#554c00"/><circle cx="346.81" cy="383.715" r=".143" fill="#554c00"/><circle cx="347.047" cy="385.278" r=".143" fill="#554c00"/><circle cx="347.409" cy="385.522" r=".143" fill="#554c00"/><ellipse cx="346.303" cy="385.638" fill="#554c00" transform="matrix(.978 .211 -.211 .978 89.239 -64.429)" rx=".143" ry=".149"/><ellipse cx="346.516" cy="385.616" fill="#554c00" transform="matrix(.976 .216 -.216 .976 91.4 -65.703)" rx=".143" ry=".148"/><circle cx="346.339" cy="385.979" r=".144" fill="#554c00"/><ellipse cx="347.026" cy="386.006" fill="#554c00" transform="matrix(.976 .219 -.219 .976 93.008 -66.656)" rx=".143" ry=".148"/><circle cx="346.919" cy="385.733" r=".143" fill="#554c00"/><ellipse cx="346.809" cy="385.099" fill="#554c00" transform="matrix(.976 .216 -.216 .976 91.296 -65.778)" rx=".143" ry=".148"/><ellipse cx="346.304" cy="385.32" fill="#554c00" transform="matrix(.976 .216 -.216 .976 91.331 -65.664)" rx=".143" ry=".149"/><circle cx="347.092" cy="385.453" r=".143" fill="#554c00"/><path fill="none" stroke="#7c4d64" stroke-width="1.2" stroke-miterlimit="10" d="M348.23 374.88l-.04-.02c-.66-.14-1.25.12-1.54.4-.1.07-.16.14-.23.2-.24.24-.3.3-.47.3-.4 0-1 .68-1.32 1.13-.22.32-.5.84-.6 1.42-.75-.62-1.8-.9-2.3-1.02-.38-.1-1.28-.25-1.56 0-.17.12-.34.15-.92.06-.68-.12-1.16.06-1.5.56-.7.66-.26 1.4-.1 1.63.18.32.18.38.14.6 0 .03-.02.08-.02.14-.06.43.7 1.96 1.82 2.87-1.3.13-2.62.68-2.75 1.3-.08.33-.13.58-.5.82-.66.44-.63 1-.52 1.48.1.64.45 1 1.1 1.2.37.1.46.2.63.36.04.04.1.1.15.15.26.22.7.36 1.04.43.75.17 1.95.22 2.94-.1-.22.7-.16 1.44-.1 1.8.04.27.2 1.13.57 1.3.25.13.43.3.56.77.2.7.8.9 1.24 1 .04 0 .1.02.13.02"/><path fill="none" stroke="#fffdee" stroke-width="1.2" stroke-miterlimit="10" d="M344.15 393.43c-.53-.1-1-.27-1.15-.8-.15-.55-.38-.8-.72-.96-.34-.16-.94-2.6.27-3.64-1.17 1.1-4.03.8-4.63.24-.28-.25-.35-.44-.92-.6-.57-.15-.8-.47-.87-.96-.12-.48-.08-.84.4-1.15.47-.32.54-.67.6-1.02.14-.57 2.3-1.38 3.9-.98-1.67-.27-3-2.77-2.95-3.23.04-.35.12-.44-.17-.93-.3-.5-.34-.9.08-1.28.28-.4.64-.56 1.23-.47.6.1.88.1 1.16-.13.28-.23 3.48.25 4.1 1.85-.66-1.46 1.12-3.3 1.5-3.32.38 0 .48-.2.9-.57.27-.25.8-.45 1.3-.32"/><path fill="#db9d5b" d="M344.17 393.4c-.52-.1-1-.26-1.15-.8-.14-.54-.37-.8-.7-.96-.36-.16-.96-2.6.25-3.64-1.17 1.1-4.03.8-4.63.24-.27-.25-.35-.43-.92-.6-.57-.14-.78-.46-.87-.96-.12-.5-.08-.84.4-1.16.47-.32.54-.67.6-1 .14-.6 2.3-1.4 3.9-1-1.67-.27-3-2.77-2.95-3.22.04-.35.13-.45-.17-.93-.3-.5-.35-.9.07-1.27.28-.42.65-.57 1.23-.47.58.1.87.1 1.15-.14.3-.24 3.48.24 4.1 1.84-.66-1.46 1.13-3.3 1.5-3.32.38 0 .48-.2.9-.57.27-.25.77-.44 1.3-.3l-4 18.24z"/><path fill="#d68d58" d="M338.08 378.05c.5-.4.98-.27 1.58-.2.6.05.9-.1.9-.22.03-.1 3.6.15 4.44 3.2v.53s-1.32-.75-1.5-.8c-.17-.03-.6-.62-1-.95-.36-.3-2.5-1.6-4.42-1.55z"/><path fill="#c48759" d="M338.14 378.06c.5-.27.9-.1 1.5-.04.6.06.8 0 .8-.1.03-.1 3.6.14 4.44 3.2v.53s-.95-.73-1.13-.77c-.18-.04-.67-.8-1.05-1.12-.37-.32-2.62-1.75-4.56-1.7z"/><path fill="#d68d58" d="M344.1 393.35c-.6-.26-.7-.74-.93-1.3-.23-.55-.5-.73-.6-.7-.12.03-1.26-3.05 1.04-5.23l.47-.26s-.36 1.34-.3 1.52c.04.17-.28.84-.4 1.32-.1.48-.23 2.97.73 4.65z"/><path fill="#c48759" d="M344.08 393.3c-.48-.32-.52-.77-.75-1.32-.23-.56-.36-.7-.46-.66-.1.03-1.2-3.1 1.1-5.28l.46-.26s-.56 1.06-.5 1.23c.03.2-.4.98-.5 1.46-.1.48-.3 3.15.65 4.83z"/><path fill="#d68d58" d="M336.15 386.8c.08-.65.42-1 .88-1.4.47-.38.45-.74.4-.84-.07-.1 2.83-2.25 5.6-.67l.37.35s-1.47.4-1.62.5c-.16.1-.9 0-1.38.02-.5.03-2.92.62-4.25 2.02z"/><path fill="#c48759" d="M336.2 386.76c.16-.55.5-.84.95-1.22.47-.38.45-.6.4-.7-.07-.08 2.83-2.24 5.6-.66l.37.36s-1.2.16-1.35.26c-.15.1-1.04-.1-1.53-.06-.5.04-3.1.62-4.43 2.02z"/><path fill="#dfa85d" d="M338.07 378.06c-.4.65-.07 1.03.16 1.6.23.54.18.86.1.9-.1.06 1.2 3.4 4.3 3.34l.47-.13s-1.1-1.06-1.2-1.2c-.07-.17-.76-.43-1.17-.7-.4-.26-2.13-1.95-2.66-3.8z"/><path fill="#e7c061" d="M338.1 378.12c-.3.56.05.93.3 1.48.22.55.24.73.15.78-.1.05 1.2 3.38 4.3 3.33l.48-.12s-.96-.72-1.05-.88c-.1-.15-.94-.42-1.35-.7-.4-.25-2.3-2.02-2.84-3.88z"/><path fill="#dfa85d" d="M348.06 375.22c-.75-.13-.98.33-1.4.75-.42.43-.74.5-.82.44-.08-.05-2.35 2.46-1.1 5.3l.3.4s.26-1.46.36-1.6c.12-.15.1-.88.17-1.36.1-.48 1-2.7 2.5-3.92z"/><path fill="#e7c061" d="M348 375.25c-.62-.06-.82.42-1.24.85-.4.43-.57.5-.65.45-.08-.06-2.28 2.42-1.04 5.25l.3.4s-.06-1.17.05-1.3c.12-.16.04-1.04.12-1.52.1-.48 1-2.92 2.5-4.13z"/><path fill="#dfa85d" d="M336.16 386.78c.23.72.74.72 1.3.9.58.2.8.44.77.54-.02.1 3.35 1.26 5.32-1.12l.2-.45s-1.5.15-1.68.1c-.18-.02-.8.33-1.28.47-.48.14-2.88.36-4.64-.44z"/><path fill="#e7c061" d="M336.2 386.8c.24.6.76.56 1.33.74.57.18.72.28.7.38-.02.1 3.35 1.26 5.32-1.12l.2-.45s-1.16.27-1.34.23c-.16-.03-.9.44-1.38.58-.47.14-3.05.44-4.8-.36z"/><path fill="#fff066" d="M338.07 378.06c1.08-.06 4.13.28 5.4 2.35 1.24 2.08-.94 2.2-1.62 2.2-.98-.02-3.45-2.35-3.78-4.55z"/><path fill="#fff066" d="M336.15 386.8c.6-.8 2.77-2.8 5.24-2.34 2.46.45 1.2 2.1.8 2.6-.62.7-4.05.95-6.05-.25z"/><path fill="#fff066" d="M344.18 393.4c-.57-.88-1.76-3.6-.4-5.54.67-.97 1.3-1 1.8-.74l-1.4 6.27z"/><path fill="#fff066" d="M348.17 375.15c-.88.55-3.1 2.54-2.7 4.87.22 1.16.77 1.46 1.34 1.43l1.37-6.3z"/><path fill="#d28577" d="M344.8 390.62c-.3-.06-.56-.2-.65-.5-.08-.32-.13-.44-.34-.54-.2-.1-.76-2.05-.05-2.67-.7.65-2.14.25-2.5-.1-.15-.13-.2-.24-.53-.34-.34-.1-.47-.27-.52-.57-.07-.3-.04-.5.24-.7.27-.18.3-.4.36-.6.07-.33.9-.9 1.86-.68-1-.15-1.34-1.53-1.3-1.8.02-.2.07-.26-.1-.55-.18-.3-.2-.53.03-.75.16-.25.38-.33.72-.28.35.06.52.06.7-.08.15-.13 1.92-.16 2.28.78-.4-.86.94-2.35 1.17-2.36.22 0 .28-.1.53-.34.16-.14.46-.26.77-.18l-2.66 12.26z"/><path fill="#af7e79" d="M347.3 378.67l-.78 3.83s-.8-.05-1.05-.38c-.23-.32-.33-1.13-.2-1.6.12-.5.68-1.23 1.17-1.34.14-.03.3-.35.4-.45.23-.23.45-.06.45-.06z"/><path fill="#af7e79" d="M347.15 378.86l-.65 3.26s-.7-.05-.9-.32c-.2-.28-.28-.96-.17-1.38.1-.42.58-1.03 1-1.12.12-.03.25-.3.34-.4.2-.18.38-.04.38-.04z"/><path fill="#c2968f" d="M347.08 379.24l-.52 2.6s-.56-.03-.72-.25c-.15-.24-.22-.78-.14-1.12.1-.34.47-.82.8-.9.1-.02.2-.23.27-.3.16-.16.3-.04.3-.04z"/><path fill="#af7e79" d="M344.7 390.04l.82-3.8s-.78-.3-1.13-.1c-.35.2-.76.88-.84 1.37-.08.52.16 1.4.57 1.7.12.1.13.45.2.6.12.3.38.24.38.24z"/><path fill="#af7e79" d="M344.74 389.84l.7-3.2s-.67-.27-.97-.1c-.3.16-.64.73-.7 1.15-.07.42.13 1.17.47 1.44.1.08.12.37.17.5.12.25.34.2.34.2z"/><path fill="#c2968f" d="M344.83 389.47l.55-2.57s-.53-.2-.77-.07c-.22.13-.5.6-.56.93-.05.34.1.94.4 1.15.07.07.08.3.12.4.1.2.27.17.27.17z"/><path fill="#dc8877" d="M340.48 385.98l3.54-.7s.27.73.1 1.05c-.2.32-.84.7-1.3.76-.47.06-1.3-.17-1.58-.56-.08-.1-.4-.13-.54-.2-.28-.1-.22-.36-.22-.36z"/><path fill="#e78f79" d="M340.66 385.96l3-.6s.24.62.08.9c-.15.26-.7.58-1.1.64-.4.06-1.1-.14-1.33-.47-.06-.1-.34-.1-.45-.16-.24-.1-.2-.3-.2-.3z"/><path fill="#f2a17e" d="M341 385.88l2.42-.48s.18.5.06.72c-.13.22-.57.47-.88.52-.32.05-.88-.12-1.07-.38-.06-.07-.28-.08-.37-.13-.2-.08-.16-.25-.16-.25z"/><path fill="#af7e79" d="M340.35 385.96l3.8-.76s-.04-.84-.36-1.08c-.32-.24-1.1-.35-1.6-.22-.5.13-1.2.7-1.33 1.2-.04.15-.35.3-.46.4-.2.25-.05.46-.05.46z"/><path fill="#af7e79" d="M340.6 385.85l3.2-.65s-.02-.7-.3-.9c-.25-.2-.92-.3-1.33-.2-.42.1-1.03.6-1.13 1.02-.04.13-.3.25-.4.35-.2.2-.05.38-.05.38z"/><path fill="#c2968f" d="M340.94 385.73l2.58-.53s-.02-.57-.24-.73c-.2-.16-.75-.23-1.08-.15-.34.1-.82.48-.9.8-.03.12-.24.22-.32.3-.15.15-.04.3-.04.3z"/><path fill="#dc8877" d="M341.5 381.06l2.87 2.2s-.38.7-.74.77c-.36.07-1.07-.16-1.42-.47-.35-.3-.7-1.1-.6-1.55.02-.13-.18-.4-.22-.53-.1-.3.13-.4.13-.4z"/><path fill="#e78f79" d="M341.65 381.2l2.43 1.86s-.32.6-.63.65c-.3.07-.9-.13-1.2-.4-.3-.26-.62-.92-.53-1.3.03-.13-.15-.35-.18-.46-.08-.26.1-.35.1-.35z"/><path fill="#f2a17e" d="M341.93 381.4l1.95 1.5s-.26.47-.5.52c-.25.04-.73-.12-.97-.32-.24-.22-.48-.74-.4-1.06 0-.1-.13-.27-.16-.36-.06-.2.1-.28.1-.28z"/><path fill="#af7e79" d="M341.58 381l3.06 2.36s.6-.58.6-.97c-.04-.4-.47-1.07-.88-1.36-.43-.3-1.32-.45-1.78-.22-.14.07-.46-.07-.6-.08-.34 0-.4.25-.4.25z"/><path fill="#af7e79" d="M341.74 381.1l2.6 2s.53-.48.5-.8c-.02-.35-.4-.9-.74-1.15-.35-.25-1.12-.4-1.5-.2-.12.07-.4-.05-.53-.06-.28-.02-.33.2-.33.2z"/><path fill="#c2968f" d="M342.04 381.34l2.08 1.6s.42-.38.4-.65c-.02-.28-.3-.73-.6-.93-.28-.2-.9-.3-1.2-.14-.1.04-.3-.05-.42-.06-.22 0-.26.17-.26.17z"/><path fill="#fce596" d="M347.27 378.8l-.77 3.87c-.1.02-.25-.1-.34-.3-.26-.58-.04-2.76 1.1-3.57z"/><path fill="#fce596" d="M344.76 390.16c-.26-.5-.5-2.04.07-3.08.56-1.04.67-.68.82-.37l-.9 3.46z"/><path fill="#fce596" d="M341.6 381c.55-.1 2.05.3 2.83 1.34.36.48.44.77.37.94l-3.2-2.27z"/><path fill="#fce596" d="M341.5 381.18l3.3 2.13c-.07.2-.3.25-.5.28-.73.1-2.5-.82-2.8-2.4z"/><path fill="#fce596" d="M340.33 385.87c.3-.5 1.56-1.4 2.84-1.34.6.02.88.15.96.3l-3.8 1.05z"/><path fill="#fce596" d="M340.4 386.07l3.75-1.2c.1.15 0 .37-.1.53-.37.65-2.2 1.42-3.64.67z"/><path fill="#1f4c40" d="M346.25 383.06c-.94-.2-1.86.4-2.07 1.36-.22.96.35 2 1.28 2.2l.8-3.56z"/><path fill="#995c4e" d="M346.07 382.66c-.08.4.1.76.3.8l.3-1.4c-.13-.04-.48.07-.6.6z"/><ellipse cx="345.835" cy="382.671" fill="#825a44" transform="matrix(-.215 .977 -.977 -.215 793.922 127.216)" rx=".629" ry=".346"/><ellipse cx="345.184" cy="382.995" fill="#995c4e" transform="matrix(-.215 .977 -.977 -.215 793.337 128.053)" rx=".537" ry=".434"/><path fill="#825a44" d="M344.46 383.9c.28.06.56-.08.6-.32.06-.25-.13-.5-.4-.56-.3-.06-.56.1-.6.33-.07.24.12.5.4.55z"/><ellipse cx="344.094" cy="383.946" fill="#995c4e" transform="matrix(-.215 .977 -.977 -.215 792.937 130.264)" rx=".355" ry=".612"/><ellipse cx="343.894" cy="384.367" fill="#825a44" transform="matrix(-.215 .977 -.977 -.215 793.1 130.961)" rx=".264" ry=".701"/><ellipse cx="343.779" cy="384.884" fill="#995c4e" transform="matrix(-.215 .977 -.977 -.215 793.546 131.843)" rx=".354" ry=".609"/><ellipse cx="344.014" cy="385.525" fill="#825a44" transform="matrix(-.214 .977 -.977 -.214 794.325 132.159)" rx=".446" ry=".523"/><ellipse cx="344.317" cy="386.237" fill="#995c4e" transform="matrix(-.215 .977 -.977 -.215 795.452 132.837)" rx=".537" ry=".435"/><ellipse cx="344.922" cy="386.605" fill="#825a44" transform="matrix(-.215 .977 -.977 -.215 796.589 132.771)" rx=".627" ry=".344"/><path fill="#995c4e" d="M345.15 386.86c-.1.43.1.76.34.8l.3-1.4c-.2-.04-.57.2-.65.6z"/><path fill="#5c3d1e" d="M345.7 385.53c-.35-.08-.58-.45-.5-.83.08-.37.44-.6.8-.53l-.3 1.36z"/><ellipse cx="345.838" cy="383.92" fill="#544600" transform="matrix(-.977 -.216 .216 -.977 600.764 833.377)" rx=".236" ry=".242"/><ellipse cx="345.372" cy="384.035" fill="#544600" transform="matrix(-.977 -.215 .215 -.977 600.018 833.391)" rx=".236" ry=".243"/><ellipse cx="345.169" cy="384.074" fill="#544600" transform="matrix(-.977 -.215 .215 -.977 599.809 833.311)" rx=".236" ry=".242"/><ellipse cx="345.039" cy="384.386" fill="#5f5400" transform="matrix(-.977 -.214 .214 -.977 599.993 833.611)" rx=".235" ry=".243"/><ellipse cx="344.921" cy="384.857" fill="#544600" transform="matrix(-.976 -.217 .217 -.976 598.04 835.43)" rx=".236" ry=".241"/><ellipse cx="345.06" cy="385.324" fill="#544600" transform="matrix(-.977 -.215 .215 -.977 599.123 835.871)" rx=".236" ry=".242"/><ellipse cx="345.415" cy="385.65" fill="#5f5400" transform="matrix(-.977 -.214 .214 -.977 600.466 836.189)" rx=".235" ry=".243"/><ellipse cx="344.969" cy="385.801" fill="#5f5400" transform="matrix(-.977 -.216 .216 -.977 598.641 836.907)" rx=".236" ry=".242"/><path fill="#5f5400" d="M344.37 385.17c-.03.13.05.26.18.3.13.02.25-.07.28-.2.03-.13-.05-.26-.18-.28-.13-.04-.25.04-.28.17z"/><ellipse cx="344.584" cy="384.518" fill="#5f5400" transform="matrix(-.977 -.215 .215 -.977 598.357 834.175)" rx=".236" ry=".244"/><ellipse cx="344.917" cy="383.906" fill="#544600" transform="matrix(-.977 -.216 .216 -.977 598.947 833.151)" rx=".236" ry=".243"/><ellipse cx="346.153" cy="383.44" fill="#544600" transform="matrix(-.977 -.215 .215 -.977 601.69 832.383)" rx=".236" ry=".243"/><ellipse cx="346.415" cy="383.497" fill="#544600" transform="matrix(-.977 -.215 .215 -.977 602.394 832.438)" rx=".236" ry=".243"/><ellipse cx="346.418" cy="383.809" fill="#544600" transform="matrix(-.977 -.215 .215 -.977 602.134 833.168)" rx=".236" ry=".243"/><ellipse cx="346.097" cy="383.774" fill="#544600" transform="matrix(-.977 -.215 .215 -.977 601.707 832.918)" rx=".236" ry=".243"/><ellipse cx="346.054" cy="384.139" fill="#544600" transform="matrix(-.977 -.216 .216 -.977 601.144 833.856)" rx=".236" ry=".243"/><ellipse cx="346.276" cy="384.042" fill="#544600" transform="matrix(-.977 -.215 .215 -.977 601.804 833.599)" rx=".236" ry=".243"/><ellipse cx="346.007" cy="385.141" fill="#544600" transform="matrix(-.977 -.215 .215 -.977 601.035 835.712)" rx=".236" ry=".242"/><ellipse cx="345.887" cy="385.27" fill="#544600" transform="matrix(-.977 -.216 .216 -.977 600.57 836.055)" rx=".236" ry=".242"/><ellipse cx="345.876" cy="385.65" fill="#544600" transform="matrix(-.977 -.213 .213 -.977 601.777 836.062)" rx=".236" ry=".242"/><ellipse cx="345.82" cy="385.945" fill="#544600" transform="matrix(-.977 -.215 .215 -.977 600.692 837.149)" rx=".236" ry=".244"/><ellipse cx="345.762" cy="386.17" fill="#544600" transform="matrix(-.977 -.213 .213 -.977 601.241 837.179)" rx=".236" ry=".243"/><ellipse cx="345.759" cy="386.225" fill="#544600" transform="matrix(-.977 -.215 .215 -.977 600.513 837.688)" rx=".236" ry=".243"/><ellipse cx="345.278" cy="384.152" fill="#544600" transform="matrix(-.977 -.215 .215 -.977 599.808 833.602)" rx=".236" ry=".242"/><circle cx="345.541" cy="384.031" r=".237" fill="#544600"/><ellipse cx="345.817" cy="384.035" fill="#544600" transform="matrix(-.977 -.215 .215 -.977 600.898 833.486)" rx=".236" ry=".243"/><ellipse cx="345.883" cy="383.607" fill="#544600" transform="matrix(-.977 -.215 .215 -.977 601.32 832.542)" rx=".236" ry=".242"/><ellipse cx="345.585" cy="383.55" fill="#5f5400" transform="matrix(-.977 -.216 .216 -.977 600.344 832.591)" rx=".236" ry=".243"/><path fill="#5f5400" d="M345.36 386.08c-.03.13.05.26.18.3l.1-.5c-.12-.02-.25.07-.28.2z"/><path fill="#544600" d="M345 386c-.04.12.04.25.17.28.13.03.25-.06.28-.2.03-.12-.05-.25-.18-.28-.12-.02-.25.06-.28.2z"/><ellipse cx="345.527" cy="386.164" fill="#544600" transform="matrix(-.976 -.216 .216 -.976 599.463 837.859)" rx=".235" ry=".243"/><ellipse cx="344.666" cy="385.595" fill="#544600" transform="matrix(-.977 -.213 .213 -.977 599.197 835.809)" rx=".236" ry=".242"/><ellipse cx="344.812" cy="385.461" fill="#544600" transform="matrix(-.977 -.216 .216 -.977 598.403 836.201)" rx=".236" ry=".241"/><ellipse cx="345.248" cy="385.931" fill="#544600" transform="matrix(-.977 -.212 .212 -.977 600.99 836.191)" rx=".235" ry=".241"/><ellipse cx="345.521" cy="385.824" fill="#544600" transform="matrix(-.977 -.216 .216 -.977 599.726 837.072)" rx=".236" ry=".242"/><ellipse cx="345.574" cy="385.145" fill="#544600" transform="matrix(-.977 -.216 .216 -.977 599.977 835.74)" rx=".236" ry=".242"/><ellipse cx="345.224" cy="384.844" fill="#544600" transform="matrix(-.977 -.216 .216 -.977 599.351 835.07)" rx=".236" ry=".243"/><ellipse cx="345.358" cy="384.361" fill="#544600" transform="matrix(-.977 -.216 .216 -.977 599.719 834.146)" rx=".236" ry=".243"/><ellipse cx="345.61" cy="384.597" fill="#544600" transform="matrix(-.977 -.213 .213 -.977 601.277 834.037)" rx=".236" ry=".242"/><ellipse cx="345.635" cy="384.866" fill="#544600" transform="matrix(-.977 -.216 .216 -.977 600.159 835.203)" rx=".236" ry=".241"/><ellipse cx="345.77" cy="384.563" fill="#544600" transform="matrix(-.977 -.215 .215 -.977 600.891 834.405)" rx=".236" ry=".242"/><ellipse cx="345.817" cy="384.352" fill="#544600" transform="matrix(-.977 -.215 .215 -.977 601.029 833.998)" rx=".236" ry=".243"/><ellipse cx="344.625" cy="384.838" fill="#544600" transform="matrix(-.977 -.216 .216 -.977 598.169 834.93)" rx=".236" ry=".243"/><ellipse cx="345.131" cy="385.517" fill="#544600" transform="matrix(-.977 -.212 .212 -.977 600.847 835.348)" rx=".235" ry=".243"/><ellipse cx="344.821" cy="385.102" fill="#544600" transform="matrix(-.976 -.216 .216 -.976 598.297 835.607)" rx=".235" ry=".242"/><ellipse cx="344.792" cy="384.293" fill="#544600" transform="matrix(-.976 -.216 .216 -.976 598.414 834.002)" rx=".235" ry=".242"/><ellipse cx="344.449" cy="384.876" fill="#5f5400" transform="matrix(-.977 -.216 .216 -.977 597.811 834.967)" rx=".236" ry=".243"/><ellipse cx="344.688" cy="384.197" fill="#5f5400" transform="matrix(-.976 -.216 .216 -.976 598.23 833.791)" rx=".235" ry=".242"/><ellipse cx="345.14" cy="384.352" fill="#5f5400" transform="matrix(-.976 -.216 .216 -.976 599.088 834.193)" rx=".235" ry=".243"/><path fill="#5f5400" d="M345.33 384.1c-.03.13.05.26.18.3.13.02.26-.07.3-.2 0-.13-.06-.26-.2-.28-.12-.03-.24.05-.27.18z"/><ellipse cx="345.031" cy="384.591" fill="#5f5400" transform="matrix(-.977 -.214 .214 -.977 599.735 834.128)" rx=".235" ry=".242"/><path fill="#5f5400" d="M345.33 384.73c-.03.13.05.25.18.28.13.04.26-.04.3-.17.02-.13-.06-.26-.2-.3-.12-.02-.24.07-.27.2z"/><path fill="#5f5400" d="M345.6 384.3c-.03.13.05.26.18.3.13.02.25-.07.28-.2.03-.13-.05-.26-.17-.28-.14-.03-.27.05-.3.18z"/><path fill="#5f5400" d="M345.83 384.4c-.03.13.05.25.18.28.13.03.26-.05.3-.18 0-.13-.06-.26-.2-.3-.12-.02-.25.07-.27.2z"/><ellipse cx="346.07" cy="384.809" fill="#5f5400" transform="matrix(-.976 -.216 .216 -.976 600.829 835.298)" rx=".235" ry=".242"/><ellipse cx="346.377" cy="383.91" fill="#5f5400" transform="matrix(-.977 -.216 .216 -.977 601.832 833.474)" rx=".236" ry=".243"/><ellipse cx="346.3" cy="383.601" fill="#5f5400" transform="matrix(-.977 -.214 .214 -.977 602.455 832.442)" rx=".235" ry=".241"/><ellipse cx="345.918" cy="386.205" fill="#5f5400" transform="matrix(-.976 -.216 .216 -.976 600.226 838.025)" rx=".235" ry=".242"/><ellipse cx="345.712" cy="385.86" fill="#5f5400" transform="matrix(-.977 -.214 .214 -.977 601.01 836.668)" rx=".235" ry=".241"/><path fill="#5f5400" d="M345.65 384.88c-.03.13.05.26.18.3.12 0 .25-.07.28-.2.04-.13-.04-.26-.17-.3-.13 0-.25.07-.28.2z"/><path fill="#5f5400" d="M345.72 385.38c-.03.13.05.26.18.3.13 0 .25-.07.28-.2.03-.13-.05-.26-.17-.3-.12 0-.25.07-.28.2z"/><ellipse cx="345.825" cy="383.938" fill="#5f5400" transform="matrix(-.977 -.216 .216 -.977 600.733 833.411)" rx=".236" ry=".243"/><ellipse cx="345.158" cy="383.888" fill="#5f5400" transform="matrix(-.977 -.216 .216 -.977 599.426 833.166)" rx=".236" ry=".243"/><path fill="#5f5400" d="M345.1 385.9c-.03.13.05.26.18.28.12.03.25-.05.28-.18.02-.13-.05-.26-.18-.3-.13-.02-.25.07-.28.2z"/><circle cx="345.126" cy="385.654" r=".143" fill="#554c00"/><circle cx="345.213" cy="385.146" r=".143" fill="#554c00"/><ellipse cx="345.088" cy="385.022" fill="#5f5400" transform="matrix(-.977 -.214 .214 -.977 599.755 834.991)" rx=".235" ry=".243"/><path fill="#5f5400" d="M345.06 385.25c-.03.13.05.26.18.3.13.02.25-.07.28-.2.03-.13-.05-.26-.18-.28-.13-.03-.25.05-.28.18z"/><circle cx="345.486" cy="385.541" r=".236" fill="#5f5400"/><ellipse cx="345.202" cy="383.701" fill="#5f5400" transform="matrix(-.976 -.216 .216 -.976 599.352 832.921)" rx=".235" ry=".243"/><ellipse cx="345.962" cy="383.45" fill="#5f5400" transform="matrix(-.977 -.215 .215 -.977 601.31 832.361)" rx=".236" ry=".243"/><ellipse cx="345.433" cy="383.653" fill="#5f5400" transform="matrix(-.977 -.214 .214 -.977 600.93 832.245)" rx=".235" ry=".243"/><ellipse cx="345.319" cy="385.293" fill="#554c00" transform="matrix(-.977 -.214 .214 -.977 599.997 835.665)" rx=".143" ry=".149"/><circle cx="345.061" cy="384.892" r=".143" fill="#554c00"/><circle cx="345.613" cy="384.335" r=".143" fill="#554c00"/><ellipse cx="346.164" cy="384.464" fill="#554c00" transform="matrix(-.977 -.215 .215 -.977 601.517 834.395)" rx=".143" ry=".148"/><ellipse cx="345.872" cy="385.01" fill="#554c00" transform="matrix(-.976 -.216 .216 -.976 600.489 835.599)" rx=".143" ry=".149"/><circle cx="346.336" cy="383.973" r=".143" fill="#554c00"/><circle cx="345.74" cy="385.938" r=".143" fill="#554c00"/><circle cx="345.937" cy="385.499" r=".143" fill="#554c00"/><ellipse cx="346.025" cy="384.889" fill="#554c00" transform="matrix(-.977 -.215 .215 -.977 601.151 835.205)" rx=".143" ry=".148"/><circle cx="345.489" cy="383.699" r=".143" fill="#554c00"/><ellipse cx="345.146" cy="383.941" fill="#554c00" transform="matrix(-.976 -.219 .219 -.976 597.782 834.177)" rx=".143" ry=".148"/><ellipse cx="344.645" cy="384.204" fill="#554c00" transform="matrix(-.977 -.212 .212 -.977 600.067 832.704)" rx=".143" ry=".149"/><ellipse cx="345.116" cy="384.268" fill="#554c00" transform="matrix(-.976 -.219 .219 -.976 597.651 834.814)" rx=".143" ry=".148"/><circle cx="345.5" cy="384.158" r=".144" fill="#554c00"/><path fill="#554c00" d="M345.7 383.94c0 .08.04.16.1.18.1 0 .17-.04.18-.12.02-.08-.03-.16-.1-.17-.08-.02-.15.03-.17.1z"/><circle cx="345.826" cy="383.496" r=".144" fill="#554c00"/><circle cx="344.954" cy="384.813" r=".142" fill="#554c00"/><circle cx="344.522" cy="384.884" r=".143" fill="#554c00"/><circle cx="345.478" cy="385.455" r=".143" fill="#554c00"/><ellipse cx="345.293" cy="385.345" fill="#554c00" transform="matrix(-.977 -.213 .213 -.977 600.782 835.282)" rx=".142" ry=".149"/><path fill="#554c00" d="M345.16 385.72c-.02.08.03.15.1.17.1 0 .16-.04.18-.12.02-.08-.03-.16-.1-.18-.08 0-.16.04-.18.12z"/><circle cx="344.667" cy="385.484" r=".143" fill="#554c00"/><ellipse cx="344.879" cy="385.281" fill="#554c00" transform="matrix(-.977 -.215 .215 -.977 598.801 835.732)" rx=".143" ry=".148"/><circle cx="345.244" cy="384.753" r=".143" fill="#554c00"/><circle cx="345.609" cy="385.166" r=".143" fill="#554c00"/><ellipse cx="344.84" cy="384.954" fill="#554c00" transform="matrix(-.977 -.215 .215 -.977 598.794 835.077)" rx=".143" ry=".148"/></g><ellipse cx="346.461" cy="415.791" fill="#939a91" transform="matrix(.965 -.261 .261 .965 -96.397 104.673)" clip-path="url(#b)" rx=".367" ry="1.128"/><path fill="#4d6153" d="M349.74 401.46l-2.06-2.03-.96-4.88-.1.55.64 4.37-5.9-.97.17.13 5.56 1.3s2.4 1.7 2.4 2.04c0 .34.24-.5.24-.5z" clip-path="url(#b)"/></g><path fill-rule="evenodd" stroke="#412c0a" stroke-width="2" stroke-miterlimit="10" d="M279.48 406.6H702v384.52H279.48z" stroke-linecap="round" overflow="visible" enable-background="accumulate"/></svg>