<svg xmlns="http://www.w3.org/2000/svg" width="16" height="16" xmlns:xlink="http://www.w3.org/1999/xlink"><defs><linearGradient id="b"><stop offset="0" stop-color="#fff"/><stop offset=".5" stop-color="#fce94f"/><stop offset="1" stop-color="#fce94f"/></linearGradient><linearGradient id="a"><stop offset="0" stop-color="#414141"/><stop offset=".2" stop-color="#535353"/><stop offset=".5" stop-color="#aeaeae"/><stop offset=".8" stop-color="#535353"/><stop offset="1" stop-color="#a1a1a1"/></linearGradient><linearGradient x1="3" x2="13" y1="1.783" y2="12.1" xlink:href="#a" gradientUnits="userSpaceOnUse" gradientTransform="matrix(.8 0 0 1 .6 -.011)"/><radialGradient cx="11.694" cy="4.14" r="3.943" xlink:href="#b" fx="11.694" fy="4.14" gradientTransform="matrix(1 0 0 1.017 0 -.07)" gradientUnits="userSpaceOnUse"/></defs><g><path fill="#555753" fill-rule="evenodd" d="M0 14.36h16v-13H0v13z" color="#000" overflow="visible"/><g fill="#eeeeec" color="#000"><path d="M0 13.36v-.98h1.1v.98z" overflow="visible"/><path d="M1.92 13.36v-.98h1.1v.98z" overflow="visible"/><path d="M4 13.34v-.98h1.1v.98z" overflow="visible"/><path d="M6 13.34v-.98h1.1v.98z" overflow="visible"/><path d="M8 13.34v-.98h1.1v.98z" overflow="visible"/><path d="M9.92 13.36v-.98h1.1v.98z" overflow="visible"/><path d="M11.92 13.36v-.98h1.1v.98z" overflow="visible"/><path d="M14 13.34v-.98h1.1v.98z" overflow="visible"/></g><g fill="#eeeeec" color="#000"><path d="M-.07 3.36v-.98h1.1v.98z" overflow="visible"/><path d="M1.84 3.36v-.98h1.1v.98z" overflow="visible"/><path d="M3.93 3.34v-.98h1.1v.98z" overflow="visible"/><path d="M5.93 3.34v-.98h1.1v.98z" overflow="visible"/><path d="M7.93 3.34v-.98h1.1v.98z" overflow="visible"/><path d="M9.84 3.36v-.98h1.1v.98z" overflow="visible"/><path d="M11.84 3.36v-.98h1.1v.98z" overflow="visible"/><path d="M13.93 3.34v-.98h1.1v.98z" overflow="visible"/></g><path fill="#888a85" d="M0 11.36V4.38h4.05v6.98H0zm12.05 0V4.38H16v6.98h-3.95zm-7.03 0v-7h6.08v7H5.02z" color="#000" overflow="visible"/><path fill="none" stroke="#eeeeec" stroke-opacity=".502" d="M0 10.9h3.52V4.85H.02"/><path fill="none" stroke="#eeeeec" stroke-opacity=".502" d="M16.05 10.86h-3.53v-6h3.53"/><path fill="none" stroke="#eeeeec" stroke-opacity=".502" d="M10.58 10.86H5.52v-6h5.06v6z"/><rect width="16.068" height="16.038" x=".03" y="-.008" fill="none" ry="3.937"/><rect width="15.179" height="15.179" x=".459" y=".452" fill="none" stroke="#000" stroke-width=".957" ry="1.934"/></g></svg>