<svg xmlns="http://www.w3.org/2000/svg" width="48" height="48" xmlns:xlink="http://www.w3.org/1999/xlink"><defs><linearGradient id="B"><stop offset="0" stop-color="#fff"/><stop offset="1" stop-color="#fff" stop-opacity="0"/></linearGradient><linearGradient id="A"><stop offset="0" stop-color="#fcaf3e"/><stop offset="1" stop-color="#fcaf3e" stop-opacity="0"/></linearGradient><linearGradient id="z"><stop offset="0" stop-color="#fce94f"/><stop offset="1" stop-color="#fce94f" stop-opacity="0"/></linearGradient><linearGradient id="c" x1="760.679" x2="768.714" y1="1142.194" y2="1177.367" gradientUnits="userSpaceOnUse"><stop offset="0" stop-color="#ABB7BE"/><stop offset="1" stop-color="#7E848C"/></linearGradient><linearGradient id="d" x1="764.75" x2="765.139" y1="1157.428" y2="1173.239" gradientUnits="userSpaceOnUse" gradientTransform="translate(-729.065 -1145.242)"><stop offset="0" stop-color="#27282B"/><stop offset=".062" stop-color="#27282B"/><stop offset=".332" stop-color="#46484C"/><stop offset=".472" stop-color="#46484C"/><stop offset=".747"/><stop offset="1"/></linearGradient><linearGradient id="e" x1="759.301" x2="768.155" y1="1167.034" y2="1163.774" gradientUnits="userSpaceOnUse" gradientTransform="translate(-729.065 -1145.242)"><stop offset="0" stop-color="#27282B"/><stop offset=".23" stop-color="#27282B"/><stop offset=".483" stop-color="#46484C"/><stop offset=".646"/><stop offset="1"/></linearGradient><linearGradient id="f" x1="759.422" x2="762.211" y1="1178.072" y2="1171.575" gradientUnits="userSpaceOnUse"><stop offset="0" stop-color="#27282B"/><stop offset=".062" stop-color="#27282B"/><stop offset=".157" stop-color="#46484C"/><stop offset=".646"/><stop offset="1"/></linearGradient><linearGradient id="g" x1="759.503" x2="770.585" y1="1152.774" y2="1182.598" gradientUnits="userSpaceOnUse"><stop offset="0" stop-color="#E9EDEE"/><stop offset=".758" stop-color="#B6C3CA"/><stop offset="1" stop-color="#A1A8B2"/></linearGradient><linearGradient id="h" x1="741.214" x2="744.2" y1="1162.433" y2="1184.064" gradientUnits="userSpaceOnUse"><stop offset="0" stop-color="#ABB7BE"/><stop offset="1" stop-color="#7E848C"/></linearGradient><linearGradient id="p" x1="733.079" x2="752.542" y1="1193.486" y2="1198.708" gradientUnits="userSpaceOnUse"><stop offset="0" stop-color="#DBE0E1"/><stop offset=".758" stop-color="#B6C3CA"/><stop offset="1" stop-color="#A1A8B2"/></linearGradient><linearGradient id="q" x1="760.154" x2="758.313" y1="1186.292" y2="1201.585" gradientUnits="userSpaceOnUse"><stop offset="0" stop-color="#DBE0E1"/><stop offset=".489" stop-color="#E9ECED"/><stop offset=".758" stop-color="#B6C3CA"/><stop offset="1" stop-color="#A1A8B2"/></linearGradient><linearGradient id="r" x1="753.75" x2="753.442" y1="1196.94" y2="1193.301" gradientUnits="userSpaceOnUse"><stop offset="0" stop-color="#DBE0E1"/><stop offset=".14" stop-color="#B6C3CA"/><stop offset=".36" stop-color="#7E848C"/><stop offset=".427" stop-color="#7E848C"/><stop offset=".876" stop-color="#B6C3CA"/></linearGradient><linearGradient id="a" x1="761.715" x2="762.048" y1="1174.57" y2="1196.127" gradientUnits="userSpaceOnUse" gradientTransform="translate(-729.065 -1145.242)"><stop offset="0" stop-color="#A0A7B2"/><stop offset=".039" stop-color="#B7CAD4"/><stop offset=".483" stop-color="#CEDADE"/><stop offset="1" stop-color="#888F99"/></linearGradient><linearGradient id="b" x1="751.482" x2="756.755" y1="1173.85" y2="1194.47" gradientUnits="userSpaceOnUse" gradientTransform="translate(-729.065 -1145.242)"><stop offset="0" stop-color="#DBE0E1"/><stop offset=".758" stop-color="#B6C3CA"/><stop offset="1" stop-color="#899099"/></linearGradient><linearGradient id="i" x1="740.344" x2="743.552" y1="1168.334" y2="1177.88" gradientUnits="userSpaceOnUse"><stop offset="0" stop-color="#27282B"/><stop offset=".062" stop-color="#27282B"/><stop offset=".332" stop-color="#46484C"/><stop offset=".472" stop-color="#46484C"/><stop offset=".747"/><stop offset="1"/></linearGradient><linearGradient id="j" x1="742.165" x2="740.913" y1="1167.999" y2="1178.994" gradientUnits="userSpaceOnUse"><stop offset="0" stop-color="#27282B"/><stop offset=".23" stop-color="#27282B"/><stop offset=".483" stop-color="#46484C"/><stop offset=".646"/><stop offset="1"/></linearGradient><linearGradient id="k" x1="740.288" x2="742.544" y1="1163.079" y2="1184.708" gradientUnits="userSpaceOnUse"><stop offset="0" stop-color="#E9EDEE"/><stop offset=".758" stop-color="#B6C3CA"/><stop offset="1" stop-color="#A1A8B2"/></linearGradient><linearGradient id="s" x1="751.77" x2="752.265" y1="1179.184" y2="1192.111" gradientUnits="userSpaceOnUse" gradientTransform="translate(-729.065 -1145.242)"><stop offset="0" stop-color="#DBE0E1"/><stop offset=".067" stop-color="#B6C3CA"/><stop offset=".489" stop-color="#DCE0E1"/><stop offset=".809" stop-color="#DCE0E1"/><stop offset=".871" stop-color="#899099"/><stop offset="1" stop-color="#B6C3CA"/></linearGradient><linearGradient id="t" x1="737.51" x2="752.074" y1="1196.554" y2="1180.138" gradientUnits="userSpaceOnUse" gradientTransform="translate(-729.065 -1145.242)"><stop offset="0" stop-color="#DBE0E1"/><stop offset=".758" stop-color="#B6C3CA"/><stop offset="1" stop-color="#A1A8B2"/></linearGradient><linearGradient id="l" x1="747.545" x2="747.69" y1="1180.876" y2="1186.082" gradientUnits="userSpaceOnUse" gradientTransform="translate(-729.065 -1145.242)"><stop offset="0" stop-color="#B9BFC2"/><stop offset=".163" stop-color="#E8ECED"/><stop offset=".219" stop-color="#E8ECED"/><stop offset=".5" stop-color="#A1A9B2"/><stop offset=".652" stop-color="#A1A9B2"/><stop offset="1" stop-color="#B9BFC2"/></linearGradient><linearGradient id="m" x1="746.87" x2="746.26" y1="1186.412" y2="1180.843" gradientUnits="userSpaceOnUse" gradientTransform="translate(-729.065 -1145.242)"><stop offset=".006" stop-color="#A1A9B2"/><stop offset=".579" stop-color="#B9BFC2"/><stop offset="1" stop-color="#E6E7E7"/></linearGradient><linearGradient id="n" x1="745.653" x2="745.654" y1="1181.189" y2="1185.853" gradientUnits="userSpaceOnUse" gradientTransform="translate(-729.065 -1145.242)"><stop offset="0" stop-color="#171819"/><stop offset=".118" stop-color="#46484C"/><stop offset=".343" stop-color="#2E3133"/><stop offset=".646"/><stop offset=".927" stop-color="#3A3C40"/><stop offset="1"/></linearGradient><radialGradient id="o" cx="745.165" cy="1182.492" r="1.573" gradientUnits="userSpaceOnUse" fy="1182.492" fx="745.165" gradientTransform="translate(-729.065 -1145.242)"><stop offset=".006" stop-color="#E6E7E7"/><stop offset=".579" stop-color="#B9BFC2"/><stop offset="1" stop-color="#A1A9B2"/></radialGradient><linearGradient id="u" x1="754.033" x2="758.252" y1="1182.086" y2="1191.206" gradientUnits="userSpaceOnUse" gradientTransform="translate(-729.065 -1145.242)"><stop offset=".332" stop-color="#B8C4CA"/><stop offset="1" stop-color="#899099"/></linearGradient><linearGradient id="v" x1="758.511" x2="757.125" y1="1183.611" y2="1188.988" gradientUnits="userSpaceOnUse" gradientTransform="translate(-729.065 -1145.242)"><stop offset=".006" stop-color="#A1A8B2"/><stop offset=".118" stop-color="#F3F3F3"/><stop offset=".455" stop-color="#EBEEEE"/><stop offset=".714" stop-color="#fff"/><stop offset="1" stop-color="#D2D8D7"/></linearGradient><radialGradient id="w" cx="756.674" cy="1186.637" r="2.021" gradientUnits="userSpaceOnUse" fy="1186.637" fx="756.674"><stop offset=".006" stop-color="#fff"/><stop offset=".225" stop-color="#FFFFFD"/><stop offset=".343" stop-color="#FDFDF4"/><stop offset=".437" stop-color="#FBFBE5"/><stop offset=".517" stop-color="#F7F8D1"/><stop offset=".534" stop-color="#F6F7CC"/><stop offset=".815" stop-color="#F9EAC9"/><stop offset="1" stop-color="#fff"/></radialGradient><linearGradient id="x" x1="755.972" x2="755.84" y1="1183.127" y2="1189.468" gradientUnits="userSpaceOnUse" gradientTransform="translate(-729.065 -1145.242)"><stop offset="0" stop-color="#171819"/><stop offset=".118" stop-color="#46484C"/><stop offset=".343" stop-color="#2E3133"/><stop offset=".646"/><stop offset=".927" stop-color="#3A3C40"/><stop offset="1"/></linearGradient><linearGradient id="y" x1="756.873" x2="759.169" y1="1183.245" y2="1190.285" gradientUnits="userSpaceOnUse"><stop offset=".006" stop-color="#969DA6"/><stop offset=".579" stop-color="#B9BFC2"/><stop offset="1" stop-color="#D6D7D8"/></linearGradient><linearGradient id="O" x1="761.715" x2="762.048" y1="1174.57" y2="1196.127" xlink:href="#a" gradientUnits="userSpaceOnUse" gradientTransform="translate(-766.93 -1174.741)"/><linearGradient id="P" x1="751.482" x2="756.755" y1="1173.85" y2="1194.47" xlink:href="#b" gradientUnits="userSpaceOnUse" gradientTransform="translate(-766.359 -1174.955)"/><linearGradient id="C" x1="760.679" x2="768.714" y1="1142.194" y2="1177.367" xlink:href="#c" gradientUnits="userSpaceOnUse" gradientTransform="matrix(1 -.029 .029 1 -753.262 -1132.335)"/><linearGradient id="D" x1="764.75" x2="765.139" y1="1157.428" y2="1173.239" xlink:href="#d" gradientUnits="userSpaceOnUse" gradientTransform="matrix(1 -.029 .029 1 -753.262 -1132.335)"/><linearGradient id="E" x1="759.301" x2="768.155" y1="1167.034" y2="1163.774" xlink:href="#e" gradientUnits="userSpaceOnUse" gradientTransform="matrix(1 -.029 .029 1 -753.262 -1132.335)"/><linearGradient id="F" x1="759.422" x2="762.211" y1="1178.072" y2="1171.575" xlink:href="#f" gradientUnits="userSpaceOnUse"/><linearGradient id="G" x1="759.503" x2="770.585" y1="1152.774" y2="1182.598" xlink:href="#g" gradientUnits="userSpaceOnUse" gradientTransform="matrix(1 -.029 .029 1 -753.262 -1132.335)"/><linearGradient id="H" x1="741.214" x2="744.2" y1="1162.433" y2="1184.064" xlink:href="#h" gradientUnits="userSpaceOnUse" gradientTransform="translate(-734.11 -1157.291)"/><linearGradient id="I" x1="740.344" x2="743.552" y1="1168.334" y2="1177.88" xlink:href="#i" gradientUnits="userSpaceOnUse"/><linearGradient id="J" x1="742.165" x2="740.913" y1="1167.999" y2="1178.994" xlink:href="#j" gradientUnits="userSpaceOnUse"/><linearGradient id="K" x1="740.288" x2="742.544" y1="1163.079" y2="1184.708" xlink:href="#k" gradientUnits="userSpaceOnUse" gradientTransform="translate(-734.11 -1157.291)"/><linearGradient id="X" x1="747.545" x2="747.69" y1="1180.876" y2="1186.082" xlink:href="#l" gradientUnits="userSpaceOnUse" gradientTransform="translate(-735.321 -1150.854)"/><linearGradient id="Y" x1="746.87" x2="746.26" y1="1186.412" y2="1180.843" xlink:href="#m" gradientUnits="userSpaceOnUse" gradientTransform="translate(-735.321 -1150.854)"/><linearGradient id="Z" x1="745.653" x2="745.654" y1="1181.189" y2="1185.853" xlink:href="#n" gradientUnits="userSpaceOnUse" gradientTransform="translate(-735.321 -1150.854)"/><radialGradient id="aa" cx="745.165" cy="1182.492" r="1.573" xlink:href="#o" gradientUnits="userSpaceOnUse" gradientTransform="translate(-735.321 -1150.854)" fx="745.165" fy="1182.492"/><linearGradient id="L" x1="733.079" x2="752.542" y1="1193.486" y2="1198.708" xlink:href="#p" gradientUnits="userSpaceOnUse"/><linearGradient id="M" x1="760.154" x2="758.313" y1="1186.292" y2="1201.585" xlink:href="#q" gradientUnits="userSpaceOnUse"/><linearGradient id="N" x1="753.75" x2="753.442" y1="1196.94" y2="1193.301" xlink:href="#r" gradientUnits="userSpaceOnUse"/><linearGradient id="Q" x1="751.77" x2="752.265" y1="1179.184" y2="1192.111" xlink:href="#s" gradientUnits="userSpaceOnUse" gradientTransform="translate(-756.716 -1146.526)"/><linearGradient id="R" x1="737.51" x2="752.074" y1="1196.554" y2="1180.138" xlink:href="#t" gradientUnits="userSpaceOnUse" gradientTransform="translate(-756.434 -1146.312)"/><linearGradient id="S" x1="754.033" x2="758.252" y1="1182.086" y2="1191.206" xlink:href="#u" gradientUnits="userSpaceOnUse" gradientTransform="translate(-756.359 -1146.598)"/><linearGradient id="T" x1="758.511" x2="757.125" y1="1183.611" y2="1188.988" xlink:href="#v" gradientUnits="userSpaceOnUse" gradientTransform="translate(-760.859 -1167.669)"/><radialGradient id="U" cx="756.674" cy="1186.637" r="2.021" xlink:href="#w" gradientUnits="userSpaceOnUse" fx="756.674" fy="1186.637"/><linearGradient id="V" x1="755.972" x2="755.84" y1="1183.127" y2="1189.468" xlink:href="#x" gradientUnits="userSpaceOnUse" gradientTransform="translate(-760.859 -1167.669)"/><linearGradient id="W" x1="756.873" x2="759.169" y1="1183.245" y2="1190.285" xlink:href="#y" gradientUnits="userSpaceOnUse" gradientTransform="translate(-760.859 -1167.669)"/><radialGradient id="ab" cx="21.179" cy="33.936" r="14.107" xlink:href="#z" fx="21.179" fy="33.936" gradientTransform="matrix(1.973 .056 -.047 1.645 -19.012 -22.504)" gradientUnits="userSpaceOnUse"/><linearGradient id="ac" x1="19.036" x2="48.643" y1="35.946" y2="35.946" xlink:href="#A" gradientUnits="userSpaceOnUse"/><linearGradient id="ad" x1="20.214" x2="48.571" y1="30.429" y2="30.429" xlink:href="#B" gradientUnits="userSpaceOnUse"/><linearGradient id="ae" x1="20.214" x2="48.571" y1="30.429" y2="30.429" xlink:href="#B" gradientUnits="userSpaceOnUse" gradientTransform="matrix(.98 -.197 -.197 -.98 5.977 71.676)"/><linearGradient id="af" x1="20.214" x2="48.571" y1="30.429" y2="30.429" xlink:href="#B" gradientUnits="userSpaceOnUse" gradientTransform="matrix(1 .121 0 1 -.179 -2.087)"/><linearGradient id="ag" x1="20.214" x2="48.571" y1="30.429" y2="30.429" xlink:href="#B" gradientUnits="userSpaceOnUse" gradientTransform="matrix(.994 .108 .108 -.994 -4.328 66.047)"/></defs><g><path fill="#a9b3bc" fill-rule="evenodd" stroke="#2e3436" d="M18.3 25.7l6.63-10.56-.72-2.7-9.27 12.77 3.36.5z"/><path fill="#a9b3bc" fill-rule="evenodd" stroke="#2e3436" d="M13.93 25.93L7.3 15.36l.7-2.72 9.3 12.8-3.37.5z"/><g><path fill="url(#C)" d="M53.75 7.52c-.48-6.88-4.15-11.4-8.2-10.1-4.06 1.3-6.96 7.96-6.48 14.84.48 6.9 4.15 11.4 8.2 10.1 4.06-1.3 6.96-7.95 6.48-14.84zm-8.36 13c-1.45-.2-2.76-1.22-3.72-2.87l2.3-3.75c.45.67 1.05 1.03 1.7.98l-.3 5.64zm.68-21.07c1.7-.32 3.3.54 4.48 2.22L47.8 6.6c-.38-.82-.93-1.38-1.54-1.55l-.18-5.6zm1.75 20.57l-1-5.72c.53-.5.95-1.26 1.23-2.18l3.42 3.2c-.85 2.17-2.13 3.88-3.65 4.7zm4.5-7.76l-4-1.4c.08-.58.1-1.2.06-1.82-.04-.45-.1-.87-.2-1.26l3.68-3.38c.34 1.06.58 2.27.67 3.58.1 1.46.02 2.92-.22 4.28z" transform="translate(-19.286 3.286)"/><path fill="none" stroke="#3e444c" stroke-width=".4" d="M28 25.65c4.04-1.3 6.94-7.96 6.46-14.84C33.98 3.93 30.3-.6 26.26.7"/><path fill="url(#D)" d="M49.83 8.73c.36 4.27-1.3 8.34-3.73 9.08-2.43.76-4.7-2.1-5.05-6.36-.36-4.27 1.3-8.33 3.74-9.08 2.4-.75 4.67 2.1 5.03 6.37z" transform="translate(-19.286 3.286)"/><path fill="url(#E)" d="M48.9 8.76c.37 4.27-1.3 8.33-3.72 9.08-2.43.75-4.7-2.1-5.05-6.37-.36-4.27 1.3-8.34 3.74-9.1 2.42-.73 4.68 2.12 5.04 6.4z" transform="translate(-19.286 3.286)"/><path fill="url(#F)" d="M765.78 1172.9l-8.26 3.63-1.58.03 7.26-3.6" transform="matrix(1 -.029 .029 1 -772.548 -1129.049)"/><path fill="url(#G)" stroke="#3e444c" stroke-width=".5" d="M51.93 7.58c-.48-6.9-4.15-11.4-8.2-10.1-4.06 1.3-6.96 7.95-6.48 14.84.47 6.88 4.15 11.4 8.2 10.1 4.05-1.32 6.95-7.96 6.48-14.84zm-13.52 4.4c-.1-1.52 0-3.03.25-4.45l2.64 1.42c-.1.55-.13 1.13-.1 1.72.02.63.1 1.23.25 1.76L38.8 14.6c-.2-.82-.32-1.7-.4-2.62zm4.86 8.58c-1.53-.4-2.88-1.78-3.77-3.85l2.34-3.23c.42.84 1 1.37 1.67 1.46l-.24 5.63zM41.62 7.6L39.2 5.32c.82-2.53 2.2-4.54 3.85-5.46l.34 5.36c-.76.34-1.4 1.23-1.78 2.38zm3.4-8.3c1.77 0 3.37 1.3 4.44 3.5L46.14 7c-.37-1-.96-1.7-1.64-1.9l.5-5.8zm.47 21.12l-.78-5.83c.6-.44 1.1-1.24 1.45-2.24l3.4 3.43c-.97 2.27-2.4 4-4.08 4.62zm4.9-7.35l-3.93-1.93c.1-.57.13-1.2.1-1.8 0-.3-.03-.6-.07-.87l3.8-3.35c.24.9.4 1.85.46 2.87.12 1.75 0 3.48-.36 5.07z" transform="translate(-19.286 3.286)"/><path fill="none" stroke="#3e444c" stroke-width=".4" d="M25.77 25.8c.7.13 1.46.1 2.22-.15"/></g><g transform="translate(-.643 -2.929)"><path fill="url(#H)" d="M13.15 15.16c-.2-5.5-2.36-9.43-4.84-8.77-2.48.65-4.33 5.65-4.14 11.15.2 5.5 2.35 9.42 4.84 8.76 2.48-.65 4.34-5.64 4.15-11.14zm-6.22-1L5.5 12.03c.47-1.67 1.22-2.98 2.1-3.6l.38 4c-.44.24-.8.87-1.05 1.73zM8.63 8c1.03-.08 1.97.74 2.65 2.17l-1.7 3.6c-.23-.68-.55-1.16-.92-1.35l-.02-4.4zm.76 16.3l-.52-4.58c.32-.33.58-.9.76-1.6l2 2.83c-.54 1.62-1.33 2.85-2.25 3.35zm2.8-5.67L9.8 17.17c.05-.45.08-.94.06-1.43 0-.35-.04-.7-.1-1l2.25-2.32c.2.87.32 1.84.35 2.87.04 1.15-.03 2.28-.2 3.33z"/><path fill="none" stroke="#3e444c" stroke-width=".4" d="M9 26.3c2.48-.65 4.34-5.64 4.15-11.14-.2-5.5-2.36-9.43-4.84-8.77"/><path fill="none" stroke="#505559" stroke-width=".5" d="M6.13 8.25l.4 4.16c-.42.24-.8.84-1.03 1.65-.02.04-1.6-1.68-1.6-1.68.5-1.72 1.3-3.47 2.23-4.12zm-2.8 9.1c-.04-1.12.05-2.4.2-3.43l1.72 1.25c-.07.5-.1 1.02-.08 1.58.02.47.1 1 .16 1.4l-1.7 1.9c-.16-.83-.27-1.73-.3-2.7zm3.16 7.4c-.9-.3-1.7-1.25-2.27-2.66l1.45-2.87c.28.58.67 1 1.07 1l-.26 4.5zm.83-12.3s0-4.57.05-4.57c1 0 2.03 1 2.7 2.4 0 0-1.93 3.4-1.94 3.36-.22-.62-.46-1-.8-1.2zM8 24.57l-.44-4.78c.32-.36.52-.84.7-1.55l2.16 2.7c-.56 1.67-1.46 3.1-2.42 3.62zm2.87-5.66s-2.4-1.83-2.4-1.93c.04-.37.06-.76.04-1.16 0-.27-.02-.54-.05-.8 0-.07 2.28-2.78 2.28-2.78.2.9.34 2.06.38 3.12.05 1.2-.06 2.5-.23 3.57z"/><path d="M9.85 27.85l-2.54-5.6-1.94-2.4L9.83 30l.02-2.15z"/><ellipse cx="742.128" cy="1173.643" fill="url(#I)" rx="2.653" ry="5.565" transform="translate(-734.11 -1157.291)"/><ellipse cx="741.522" cy="1173.643" fill="url(#J)" rx="2.652" ry="5.565" transform="translate(-734.11 -1157.291)"/><path fill="url(#K)" stroke="#3e444c" stroke-width=".5" d="M11.86 15.1c-.2-5.58-2.4-9.56-4.94-8.9-2.53.67-4.42 5.73-4.23 11.3.2 5.6 2.4 9.57 4.93 8.9 2.53-.67 4.42-5.73 4.23-11.3zM6.13 8.24l.4 4.16c-.42.24-.8.84-1.03 1.65-.02.04-1.6-1.68-1.6-1.68.5-1.72 1.3-3.47 2.23-4.12zm-2.8 9.1c-.04-1.12.05-2.4.2-3.43l1.72 1.25c-.07.5-.1 1.02-.08 1.58.02.47.1 1 .16 1.4l-1.7 1.9c-.16-.83-.27-1.73-.3-2.7zm3.16 7.4c-.9-.3-1.7-1.25-2.27-2.66l1.45-2.87c.28.58.67 1 1.07 1l-.26 4.5zm.83-12.3s0-4.57.05-4.57c1 0 2.03 1 2.7 2.4 0 0-1.93 3.4-1.94 3.36-.22-.62-.46-1-.8-1.2zM8 24.57l-.44-4.78c.32-.36.52-.84.7-1.55l2.16 2.7c-.56 1.67-1.46 3.1-2.42 3.62zm2.87-5.66s-2.4-1.83-2.4-1.93c.04-.37.06-.76.04-1.16 0-.27-.02-.54-.05-.8 0-.07 2.28-2.78 2.28-2.78.2.9.34 2.06.38 3.12.05 1.2-.06 2.5-.23 3.57z"/></g><g><path fill="url(#L)" d="M741.28 1195l10.38 2.12v2.34l-10.4-2.42.02-2.03z" transform="translate(-3.286) translate(-734.002 -1151.955)"/><path fill="url(#M)" d="M751.66 1197.12v2.34l14.3-1.6v-2.17l-14.3 1.42z" transform="translate(-3.286) translate(-734.002 -1151.955)"/><path fill="url(#N)" d="M741.28 1195l14-1.2 10.67 1.9-2.68.25-8.4.84-3.2.32-10.4-2.1z" transform="translate(-3.286) translate(-734.002 -1151.955)"/><path fill="none" stroke="#fff" stroke-width=".5" d="M28.66 43.73l-14.29 1.43v2.34"/><path fill="none" stroke="#dbe0e1" stroke-width=".5" d="M14.37 45.16L4 43.06"/><path fill="none" stroke="#3e444c" d="M11.12 42.44l-7.12.6-.02 2.04 10.4 2.42 14.28-1.58v-2.2l-2.95-.5"/></g><g><path fill="url(#O)" d="M-7.92 21.5c.37.06 1.32-.06 1.66-.1L-5 21.3c.4-.03.73-.06.9-.42 0 0 1.56-3.87 1.8-4.43.15-.32.23-.5.23-.68V6.3c0-.33-.12-.8-.22-1.14L-3.32 1.6C-3.65.52-4.2-.1-5.03-.1H-7.37c.6 0 .75.33 1 1.12l1.25 4.14c.1.34.2.8.2 1.13l-.03 9.24c0 .18 0 .57-.15.9-.26.55-1.87 4.45-1.87 4.45-.18.36-.6.66-.95.6z" transform="translate(28.786 22.929)"/><path fill="#66707f" d="M23.58 43.85c-.03.08.3.1.34 0 0 0 1.6-3.93 1.86-4.5.14-.3.2-.7.2-.87v-9.26c0-.32-.1-.8-.2-1.13l-1.2-4.15c-.04-.1-.4-.08-.36 0l1.2 4.14c.1.33.23.8.23 1.12v9.26c0 .18-.08.56-.22.88-.24.56-1.85 4.5-1.85 4.5z"/><path fill="#66707f" d="M22.93 43.95s1.64-4.03 1.88-4.6c.15-.3.2-.7.2-.87l.02-9.26c0-.32-.1-.8-.2-1.13l-1.2-4.15c-.03-.1-.4-.1-.38 0l1.2 4.14c.1.33.2.8.2 1.12v9.23c0 .17-.06.56-.2.88-.25.56-1.88 4.62-1.88 4.62-.03.08.33.1.37 0"/><path fill="url(#P)" d="M-17.94 19.44c-.33-.06-.56-.3-.6-.6-.04-.3-.67-4.64-.67-4.9 0 0 .02-11.18.02-11.65 0-.47.46-1.5.62-1.87.15-.37.3-.74.62-.74H-6.8c.58 0 .74.3 1 1.1l1.24 4.14c.1.35.2.82.2 1.14l-.02 9.25c0 .17-.02.57-.16.9-.24.55-1.86 4.45-1.86 4.45-.18.37-.6.66-.95.62l-10.6-1.86z" transform="translate(28.786 22.929)"/><path fill="none" stroke="#fff" stroke-width=".5" d="M21.4 22.83c.6 0 .76.33 1.02 1.12l1.23 4.14c.1.33.2.8.2 1.12l-.02 9.25c0 .18 0 .57-.15.9-.25.55-1.87 4.45-1.87 4.45"/><path fill="none" stroke="#3e444c" d="M9.53 26.9c0-.94 0-1.57 0-1.68 0-.46.47-1.5.62-1.86.16-.37.3-.74.62-.74H24.28c.83 0 1.36.63 1.7 1.7L27 27.86c.1.35.2.82.2 1.14v9.47c0 .18-.06.36-.2.68-.25.56-1.83 4.42-1.83 4.42-.15.36-.47.4-.9.43l-1.24.12c-.34.03-1.3.15-1.67.1l-10.6-1.85c-.32-.06-.54-.3-.58-.6-.02-.13-.15-.97-.28-1.92"/></g><g><path fill="url(#Q)" d="M-6.75 45.72l1.8-.14 5.3-.42L2 43.64c.14-.13.25-.38.25-.67l.05-9.82c0-.43-.18-.62-.6-.64l-6.66-.15-7.22.12h.08c.6.03 6.8.3 6.8.3.44 0 .62.2.62.63 0 0-.04 9.6-.04 9.9 0 .27-.1.52-.23.65-.54.54-1.8 1.77-1.8 1.77z" transform="translate(18.429 -5.214)"/><path fill="url(#R)" d="M-4.43 43.5c0 .28-.1.53-.24.66-.54.54-1.8 1.78-1.8 1.78l-4.04-.63-1.8-2.35s-.2-.25-.2-.58c0-.33.06-9.14.06-9.14 0-.42.2-.6.6-.58.6.03 6.84.3 6.84.3.43 0 .6.2.6.63 0 0-.03 9.63-.03 9.9z" transform="translate(18.429 -5.214)"/><path fill="none" stroke="#dbe0e1" stroke-width=".5" d="M14.1 38.73c-.53.54-1.8 1.78-1.8 1.78"/><path fill="none" stroke="#3e444c" d="M20.77 37.62v.35c0 .28-.1.53-.23.66l-1.6 1.53-5.17.42-1.8.14-4.05-.62-1.8-2.36s-.2-.26-.2-.58C5.93 36.83 6 28 6 28c0-.4.2-.58.6-.56h-.08l7.24-.13 4.9.13 1.16.03.6.02c.38 0 .56.16.6.5v3.43"/><path fill="none" stroke="#fff" stroke-width=".5" d="M13.74 27.78c.2.1.3.28.3.58 0 0-.04 9.64-.04 9.92 0 .28-.1.53-.24.67"/><path fill="none" stroke="#3e444c" stroke-width=".4" d="M20.93 37.66c0 .34-.28.62-.62.63l-4.72.33c-.35 0-.62-.27-.62-.6v-6.7c0-.36.27-.64.62-.64l4.76-.18c.34 0 .6.3.6.64v.42"/><path fill="url(#S)" d="M2.65 42.87c0 .34-.28.63-.62.63l-4.74.34c-.35 0-.63-.27-.63-.6v-6.7c0-.35.28-.64.62-.64l4.75-.16c.34 0 .62.3.62.64l-.02 6.5z" transform="translate(18.429 -5.214)"/><g transform="translate(18.429 -5.214) translate(5.071 21.071)"><path fill="url(#T)" d="M-1.84 16.27c-.35-.32-.76-.5-1.2-.46-1.13.07-2.05 1.4-2.05 2.97 0 .9.32 1.74.85 2.25.35.33.76.5 1.2.47C-1.93 21.42-1 20.1-1 18.5c0-.9-.3-1.74-.84-2.25z"/><circle cx="756.971" cy="1186.234" r="1.855" fill="#f6f7cc" stroke="#ead312" stroke-width=".5" transform="translate(-760.859 -1167.669)"/><circle cx="756.971" cy="1186.234" r="1.54" fill="url(#U)" stroke="#f7af3e" stroke-width=".5" transform="translate(-760.859 -1167.669)"/><path fill="url(#V)" d="M-3.05 21.86l-1.63-.05c-1.25-.04-2.25-1.38-2.25-3.08 0-1.77 1.1-3.27 2.42-3.33l1.57.03c-.05 0-.12 0-.12 0-1.33.07-2.42 1.57-2.42 3.34 0 1.78 1.1 3.16 2.42 3.1"/><path fill="url(#W)" stroke="#3e444c" stroke-width=".4" d="M-2.92 15.43c-.06 0-.13 0-.13 0-1.33.07-2.4 1.57-2.4 3.34 0 1.78 1.07 3.16 2.4 3.1.06 0 .13-.02.13-.02C-1.6 21.78-.5 20.3-.5 18.52c0-1.78-1.1-3.16-2.42-3.1zm-.14 6.05c-.43.03-.84-.13-1.2-.46-.52-.5-.83-1.35-.83-2.25 0-1.57.93-2.9 2.07-2.96.43-.02.84.14 1.2.47.52.5.83 1.35.83 2.25 0 1.57-.92 2.9-2.06 2.96z"/><path fill="none" stroke="#fff" stroke-width=".5" d="M-3.06 21.5c-.43 0-.84-.15-1.2-.48-.52-.5-.83-1.34-.83-2.25 0-1.57.93-2.9 2.07-2.96.43-.02.84.15 1.2.47.52.5.83 1.35.83 2.25 0 1.58-.92 2.9-2.06 2.97z"/><circle cx="757.276" cy="1185.954" r="1.149" fill="#f2ec69" transform="translate(-760.859 -1167.669)"/></g></g><g><path fill="url(#X)" stroke="#7a7d80" stroke-width=".4" d="M10.94 30.06l1.4-.04c.04 0 .07 0 .12 0 .64.15 1.15 1.3 1.12 2.73-.02 1.36-.5 2.48-1.1 2.48l-1.4.07" transform="translate(-4.5 1.395)"/><path fill="url(#Y)" d="M10.52 35c.13.15.3.25.45.3.65.13 1.2-.93 1.22-2.37 0-1.44-.5-2.72-1.14-2.86-.22-.05-.43.04-.6.24" transform="translate(-4.5 1.395)"/><path fill="url(#Z)" d="M10.12 30.35c-.83 0-1.42.78-1.46 2.13-.03 1.35.45 2.6 1.42 2.6l.83-.05c.54-.02 1.08-.88 1.1-2.08.02-1.27-.44-2.63-1.02-2.62l-.86.02z" transform="translate(-4.5 1.395)"/><path fill="url(#aa)" stroke="#505559" stroke-width=".4" d="M8.84 32.5c0 1.07.35 2.15.85 2.13.47-.02.88-.7.9-1.77.02-1.07-.36-2.15-.85-2.13-.5 0-.9.7-.9 1.76z" transform="translate(-4.5 1.395)"/><path fill="none" stroke="#3e444c" stroke-width=".4" d="M5.95 31.7c.18-.2.4-.28.6-.23l1.3-.06"/><path fill="none" stroke="#3e444c" stroke-width=".4" d="M6.02 36.38c.13.16.3.27.45.3h.1l1.4-.06"/></g><g><path fill="url(#ab)" fill-rule="evenodd" d="M20.14 32.3C27.1 29.54 48 25.63 48 25.63l.14 21s-21.2-6.62-28.2-10.2c1.63-.96 1.88-3.06.2-4.15z"/><path fill="none" stroke="url(#ac)" d="M19.86 32.36l28.28-7.72m-.1 22.6L19.54 36.2" stroke-linecap="round"/><path fill="url(#ad)" fill-rule="evenodd" d="M20.2 33.64l28.37-6.43v3.23l-28.36 3.2z"/><path fill="url(#ae)" fill-rule="evenodd" d="M19.18 34.7l29.07.74-.64-3.15-28.42 2.4z"/><path fill="url(#af)" fill-rule="evenodd" d="M20.04 34l28.35-3v3.2L20.03 34z"/><path fill="url(#ag)" fill-rule="evenodd" d="M19.4 34.78l27.5 9.44.34-3.2L19.4 34.8z"/></g></g></svg>