<svg xmlns="http://www.w3.org/2000/svg" width="48" height="48" version="1"><g><path fill="#2e3436" fill-rule="evenodd" stroke="#eeeeec" d="M.5.5h47v47H.5z" overflow="visible" enable-background="accumulate"/><path fill="#acc7e3" stroke="#204a87" stroke-width=".5" d="M17.55 5.97l-1.15.45v2.55l-.84.54-1.9-.92-.84.93 1.4 2.04-.5.9-2.3.6v1.25l2.24.74.22.7-1.73 1.96.54 1.06 2.25-.98.6.5-.26 2.42.98.4 1.4-2.3.7.1.82 1.97 1.36-.25.13-2.47.65-.5 1.73.92.9-1.1-1.17-1.77.38-.8 2.08-.6.12-1.2-2.17-.76.06-.8 1.58-1.73-.65-1-2 .94-.75-.5.48-2.7-.97-.5-1.37 2.2h-.8l-1.25-2.27zm1.38 3.78c.97-.05 1.9.27 2.55 1 1.32 1.42 1.04 3.88-.62 5.48-1.65 1.6-4.06 1.72-5.38.28-1.3-1.42-1.03-3.9.62-5.48.83-.8 1.85-1.22 2.83-1.27z" overflow="visible" enable-background="accumulate"/><path fill="#f8a2a2" fill-rule="evenodd" stroke="#a40000" d="M21.16 18.9l-.93 2.07-.94.06-1-1.87-.96.2-.5 2.42-.87.5-1.5-1.63-1.13.5.38 2.52-.8.74-2.1-1-.92.82 1.06 2-.55 1-2.3-.12-.52 1.25 1.57 1.32-.25.8-2.5.94-.12 1.2 2.13.7v.8l-2.18 1.52.12 1h2.5l.2.87-1.7 1.67.5 1 2.3-.87.46.76-1 2.13.68.54 2.12-1.25.62.43-.3 2.26.8.18 1.76-1.76.5.2.38 1.8 1.07.06.8-2.06.88-.2.88 1.58.87-.13.9-2.44.6-.37 1.4 1.24.74-.56-.14-2.06.7-.5 1.5.5.8-.63-.68-1.94.5-.74 1.88.13.5-.95-1.2-1.38.25-.93 1.84-.38.3-1.13-1.62-.56.06-.93 1.8-1.32v-.94l-2-.3-.1-.65 1.68-1.74-.7-.95-1.8.68-.57-.62 1.24-2.1-.87-.76-1.7 1.1-.68-.42.37-2.12-.76-.57-1.6 1.9-.9-.14-.24-2.33-1-.06zm-1.4 10.2c.64-.02 1.23.17 1.66.6.96.98.7 2.82-.58 4.08-1.28 1.26-3.1 1.47-4.06.5-.97-1-.72-2.83.56-4.1.72-.7 1.6-1.06 2.43-1.08z"/><path fill="none" stroke="#4e9a06" d="M31.57 25.44l-.5-2.12 1.07-.44 1.25 1.37.68-.3.75-2.13h1.12l-.12 2.06.75.2 1.56-1.33.75.7-1 1.43.24.94 1.7-.2v1.26l-1.57.75-.25.94 1.37 1.07-.38.93-1.7.07-.68.5.3 2.2-.86.42-1.07-1.3-.6.24-.76 2.2-1 .12-.07-1.82-.5-.44-1.62 1.5-.82-.68 1.2-2-.26-.44-2.06.18-.12-1 2-1.25v-.87l-1.43-1 .18-1.07 2 .13.44-.82z" overflow="visible" enable-background="accumulate"/><path fill="#f89d9d" fill-rule="evenodd" d="M21.13 45.16l-1.28-1.2-.13-.27.5-.07.9 1.53z" overflow="visible" enable-background="accumulate"/><path fill="#f89d9d" fill-rule="evenodd" d="M17.5 45.82l-1.3-1.25-.1-.28.56-.52.43.2.4 1.84z" overflow="visible" enable-background="accumulate"/><path fill="#f89d9d" fill-rule="evenodd" d="M14.06 45.38L12.7 44.1l.23-.94.88-.53.63.44-.37 2.3z" overflow="visible" enable-background="accumulate"/><path fill="#f89d9d" fill-rule="evenodd" d="M10.9 43.4l-1.3-1.27.64-1.2 1.3-.5.4.88-1.04 2.1z" overflow="visible" enable-background="accumulate"/><path fill="#f89d9d" fill-rule="evenodd" d="M9.15 41.38l-1.3-1.26-.45-1.03 1.37-1.3 1.38-.05.22.94-1.22 2.68z" overflow="visible" enable-background="accumulate"/><path fill="#f89d9d" fill-rule="evenodd" d="M7.7 37.75L6.44 36.6l-.2-1 2.3-1.54 1.2.43-.02.84-2 2.4z"/><path fill="#f89d9d" fill-rule="evenodd" d="M7.62 33.77l-1.35-1.15.16-1.3 2.6-.86.18-.9 1.26 1.34-.22.84-2.62 2.03z"/><path fill="#f89d9d" fill-rule="evenodd" d="M8.9 29.52L7.52 28.3l.6-1.25 2.37.16.5-1-1.13-2.03 1-.84 2.03 1 .94-.72-.5-2.46 1.16-.5 1.25 1.2.34.42.77-.47.3-2.38 1.08-.35 3.22-.15.7.03 1.4 1.25.15 2.25-6.28 4.97-8.54 2.1z"/><path fill="#f89d9d" fill-rule="evenodd" d="M23.63 21.04l1.3-1.5.76.56 1.34 1.2-.22.78.84-.54.9.7 1.26 1.24-.6 1 .45-.18 1.37 1.25-2.6 2-4.72-5.04-.1-1.46z" overflow="visible" enable-background="accumulate"/><path fill="none" stroke="#000" stroke-width=".1" d="M32.14 29.18l-1.32-1.3-.5-.02-.3.38.15.62 1.97.32z"/><path fill="none" stroke="#000" stroke-width=".1" d="M31.8 32.93l-1.23-1.2-.3-.18-.04.75 1.56.63z"/><path fill="#bcd2e9" fill-rule="evenodd" d="M16.2 21.17l-.76-.5.3-2.44.63.56-.18 2.37z"/><path fill="#bcd2e9" fill-rule="evenodd" d="M12.93 18.17l-.68-.47 1.8-2-.18-.44.6.25.22.76-1.77 1.9z" overflow="visible" enable-background="accumulate"/><path fill="#bcd2e9" fill-rule="evenodd" d="M22.28 9.72l2.04-.9.75.43-2.07.94-.72-.48z" overflow="visible" enable-background="accumulate"/><path fill="#bcd2e9" fill-rule="evenodd" stroke="#000" stroke-width=".1" d="M24.04 12.57l1.5.53.65.4-2.2-.68.04-.25z" overflow="visible" enable-background="accumulate"/><path fill="none" stroke="#000" stroke-width=".1" d="M20.1 21.3l-1-.88-.38-1.2.47.17.9 1.9z"/><path fill="#c4f199" fill-rule="evenodd" d="M41.27 24.4l-1.63 1.34-.75-.25.15-2-1.38-.74h.44l3.17 1.63z" overflow="visible" enable-background="accumulate"/><path fill="#c4f199" fill-rule="evenodd" d="M41.05 26.42l1.84.88-1.63.12-.22-1z" overflow="visible" enable-background="accumulate"/><path fill="#73d216" fill-rule="evenodd" d="M35.8 36.6l-1.7-1.14 1.07-1.06.53.5.1 1.7z" overflow="visible" enable-background="accumulate"/><path fill="#c4f199" fill-rule="evenodd" d="M33.5 35.9L31 34.03l.94-1.07 1.72-.15.28.44-1.22 2 .8.66z" overflow="visible" enable-background="accumulate"/><path fill="#3465a4" fill-rule="evenodd" d="M12.2 14.8l-.7-.5.03-1.23.68.5v1.22z"/><path fill="#bcd2e9" fill-rule="evenodd" d="M11.5 13.07l2.37-.6.5-.94.7.47-.54.78-2.38.76-.65-.47z" overflow="visible" enable-background="accumulate"/><path fill="#bcd2e9" fill-rule="evenodd" d="M12.93 9.47l.7.44.84-.9 1.9 1 .88-.62-.72-.4-.8.46-1.95-.88-.85.9z" overflow="visible" enable-background="accumulate"/><path fill="#3465a4" fill-rule="evenodd" stroke="#000" stroke-width=".1" d="M12.87 9.47l.72.37 1.46 2.2-.75-.54-1.43-2.03z"/><path fill="#3465a4" fill-rule="evenodd" d="M16.53 8.97L16.5 6.3l.72.5v2.6l-.7-.43z"/><path fill="#bcd2e9" fill-rule="evenodd" d="M16.53 6.34l1.2-.37.65.46-1.13.38-.72-.46z" overflow="visible" enable-background="accumulate"/><path fill="#bcd2e9" fill-rule="evenodd" d="M19.34 8.22h.35l1.43-2.16 1.7.97-1.1-.5-1.35 2.1h-.78l-.26-.4z" overflow="visible" enable-background="accumulate"/><path fill="#3465a4" fill-rule="evenodd" d="M12.78 18.8l.75.46-.6-1.13-.72-.47.58 1.13z"/><path fill="#73d216" fill-rule="evenodd" d="M35.98 21.8l3.23 1.58-1.28.1-3.28-1.7 1.34.03z" overflow="visible" enable-background="accumulate"/><path fill="#c4f199" fill-rule="evenodd" d="M37.9 23.38l-.73 2.2-3.1-1.75.6-2.04 3.24 1.58z" overflow="visible" enable-background="accumulate"/><path fill="#73d216" fill-rule="evenodd" d="M37.2 25.55l-.75.37-1.15-1.4 1.9 1.03z" overflow="visible" enable-background="accumulate"/><path fill="#c4f199" fill-rule="evenodd" d="M31.05 23.3l1.05-.46 3.23 1.64-1.13.44-3.15-1.63z" overflow="visible" enable-background="accumulate"/><path fill="#73d216" fill-rule="evenodd" d="M31.07 23.3l.47 2.2 3.13 1.6-.6-2.27-3-1.53z" overflow="visible" enable-background="accumulate"/><path fill="#c4f199" fill-rule="evenodd" d="M32.23 27.77L31.17 27l.15-1.05.32-.5 3.06 1.7-.5.7-1.97-.08z" overflow="visible" enable-background="accumulate"/><path fill="#73d216" fill-rule="evenodd" d="M32.23 27.8l-.33 1.15-2.17-1.56L31.2 27l1.03.78z" overflow="visible" enable-background="accumulate"/><path fill="#c4f199" fill-rule="evenodd" d="M30.18 28.24l.34-.3 3 1.9-.07.96-1.97 1.16-1.7-.9.4-2.82z" overflow="visible" enable-background="accumulate"/><path fill="#73d216" fill-rule="evenodd" d="M31.54 32l-1.78-.92-.28 1 .8.26 1.32.5-.06-.85z" overflow="visible" enable-background="accumulate"/><path fill="#4e9a06" fill-rule="evenodd" stroke="#000" stroke-width=".1" d="M37.58 34.37l.5-.22 1.12 1.28-1.62-1.06z" overflow="visible" enable-background="accumulate"/><path fill="#8ae234" fill-rule="evenodd" stroke="#4e9a06" stroke-width=".5" d="M34.67 27.08l-.5-2.13 1.06-.43 1.25 1.37.7-.32.74-2.13h1.13l-.13 2.07.75.18 1.57-1.3.75.68-1 1.44.24.94 1.7-.2v1.26l-1.58.75-.25.94 1.4 1.07-.4.94-1.68.07-.68.5.3 2.2-.87.43-1.06-1.3-.62.24-.75 2.2-1 .1-.06-1.8-.5-.44-1.63 1.5-.8-.7 1.18-2-.25-.43-2.07.2-.12-1 2-1.26v-.87l-1.44-1 .2-1.06 2 .12.43-.82z" overflow="visible" enable-background="accumulate"/><path fill="#729fcf" stroke="#204a87" stroke-width=".5" d="M18.35 6.4l-1.14.46V9.4l-.83.55-1.9-.94-.85.95 1.4 2.03-.5.9-2.3.6v1.25l2.24.74.22.72-1.73 1.94.54 1.06 2.25-.98.62.5-.27 2.42.98.4 1.4-2.3.7.1.82 1.97 1.36-.24.13-2.48.66-.5 1.73.93.87-1.08-1.15-1.78.36-.8 2.08-.6.13-1.2-2.2-.76.06-.8 1.6-1.73-.66-1-2 .92-.75-.5.48-2.7-.97-.48-1.36 2.17h-.8L18.35 6.4zm1.38 3.8c.97-.06 1.9.25 2.55.97 1.32 1.44 1.04 3.9-.62 5.5-1.65 1.6-4.06 1.7-5.37.28-1.33-1.44-1.05-3.9.6-5.5.83-.8 1.85-1.2 2.83-1.26z" overflow="visible" enable-background="accumulate"/><path fill="#8ae234" fill-rule="evenodd" stroke="#4e9a06" stroke-width="4.756" d="M95.86 47.5a6.28 5.8 0 1 1-12.57 0 6.28 5.8 0 1 1 12.56 0z" transform="matrix(.118 .133 -.17 .184 34.8 9.476)" overflow="visible" enable-background="accumulate"/><path fill="#ef2929" fill-rule="evenodd" stroke="#a40000" stroke-width=".5" d="M22.47 20.07l-.93 2.07-.94.06-1-1.87-.95.2-.5 2.42-.86.5-1.52-1.63-1.13.5.38 2.52-.8.74-2.08-1-.94.8 1.07 2-.55 1-2.32-.12-.5 1.26 1.56 1.3-.25.82-2.5.94-.1 1.2 2.12.7v.8l-2.2 1.5.14 1h2.5l.18.88-1.68 1.68.5 1 2.3-.87.45.76-1 2.12.7.56 2.12-1.24.6.44-.3 2.25.82.2 1.75-1.77.5.2.38 1.8 1.06.06.8-2.06.88-.2.87 1.58.87-.12.88-2.45.62-.37 1.38 1.23.75-.55-.13-2.05.7-.5 1.5.5.8-.64-.68-1.92.5-.75 1.87.13.5-.94-1.18-1.38.22-.94 1.83-.38.3-1.12-1.62-.56.06-.94 1.8-1.3v-.95l-2-.32-.12-.63 1.7-1.75-.7-.93-1.8.68-.58-.62 1.25-2.13-.87-.74-1.68 1.12-.7-.43.38-2.14-.76-.57-1.62 1.88-.87-.13-.26-2.3-1-.08zm-1.4 10.2c.64-.02 1.23.16 1.66.6.97.98.7 2.8-.57 4.07-1.28 1.26-3.1 1.48-4.07.5-.97-1-.73-2.82.55-4.08.72-.7 1.6-1.08 2.43-1.1z"/><path fill="#888a85" fill-rule="evenodd" stroke="#eeeeec" d="M.5.52h47v4H.5z" overflow="visible" enable-background="accumulate"/><path fill="none" stroke="#fce94f" d="M37.46 6.5h8.07v2.94h-8.07z" overflow="visible" enable-background="accumulate"/><path fill="none" stroke="#fce94f" d="M26.5 6.5h8.06v2.94H26.5z" overflow="visible" enable-background="accumulate"/></g></svg>