<svg xmlns="http://www.w3.org/2000/svg" width="48" height="48"><g><path fill="#204a87" fill-rule="evenodd" stroke="#eeeeec" d="M22.7 18.65S26.6 6.67 33 6.57c4.85-.07 7.7 3.84 7.7 3.84l4.44-1.8-2.43 12.26-11.56-5.88 3.57-1.93s-.53-1.46-2.84-1.3c-3.45.24-9.15 6.9-9.15 6.9z"/><path fill="#204a87" fill-rule="evenodd" stroke="#eeeeec" d="M2.86 18.65S6.72 6.67 13.14 6.57c4.86-.07 7.72 3.84 7.72 3.84l4.43-1.8-2.44 12.26-11.57-5.88 3.56-1.93s-.54-1.46-2.86-1.3c-3.45.24-9.14 6.9-9.14 6.9z"/><path fill="#fce94f" stroke="#7d6600" d="M.7 19.95h14v18.1H.7z" overflow="visible" enable-background="accumulate"/><path fill="#ffbebe" stroke="#a40000" d="M17 19.95h14v18.1H17z" overflow="visible" enable-background="accumulate"/><path fill="#c3defa" stroke="#204a87" d="M33.57 19.95h14v18.1h-14z" overflow="visible" enable-background="accumulate"/><path d="M10.16 23.05v11.4H7v-7.47c-.5.4-1 .7-1.47.94-.48.24-1.08.47-1.8.7v-2.57c1.06-.34 1.9-.75 2.47-1.23.6-.48 1.05-1.07 1.38-1.77h2.58z" style="text-align:start;line-height:100%;-inkscape-font-specification:Arial Black Heavy" font-size="16" font-weight="900" letter-spacing="0" word-spacing="0" font-family="Arial Black"/><path d="M28.62 34.45h-9.34c.1-.92.43-1.8.97-2.6.55-.82 1.56-1.78 3.06-2.88.92-.68 1.5-1.2 1.76-1.55.25-.35.38-.68.38-1 0-.34-.12-.63-.38-.88-.25-.24-.57-.36-.95-.36-.4 0-.7.13-.96.38s-.43.7-.5 1.32l-3.13-.25c.13-.88.35-1.56.68-2.06.33-.5.8-.87 1.38-1.13.6-.26 1.42-.4 2.47-.4 1.1 0 1.95.13 2.56.38.6.25 1.07.64 1.42 1.15.35.52.53 1.1.53 1.74 0 .7-.2 1.35-.6 1.97-.4.62-1.13 1.3-2.2 2.05-.6.43-1.03.74-1.24.9-.2.18-.45.4-.74.7h4.86v2.53z" style="text-align:start;line-height:100%;-inkscape-font-specification:Arial Black Heavy" font-size="16" font-weight="900" letter-spacing="0" word-spacing="0" font-family="Arial Black"/><path d="M39.22 26.48l-2.94-.53c.24-.93.7-1.65 1.4-2.15s1.7-.75 2.97-.75c1.46 0 2.52.27 3.17.82.65.54.98 1.23.98 2.05 0 .5-.13.93-.4 1.32-.26.4-.67.74-1.2 1.03.43.1.76.23 1 .38.37.23.66.53.86.9.2.38.3.82.3 1.34 0 .65-.16 1.27-.5 1.87-.34.6-.83 1.06-1.48 1.4-.64.3-1.48.47-2.53.47-1.02 0-1.82-.12-2.4-.36-.6-.24-1.08-.6-1.46-1.05-.4-.46-.7-1.04-.9-1.74l3.12-.42c.12.63.3 1.06.57 1.3.25.24.58.37.98.37s.76-.16 1.04-.46c.28-.32.42-.73.42-1.24 0-.52-.14-.92-.4-1.2-.27-.3-.64-.43-1.1-.43-.24 0-.58.06-1 .18l.16-2.22c.17.03.3.04.4.04.4 0 .75-.13 1.02-.4.27-.25.4-.56.4-.9 0-.35-.1-.63-.3-.83-.2-.22-.48-.32-.84-.32s-.66.1-.9.34c-.22.22-.38.6-.46 1.16z" style="text-align:start;line-height:100%;-inkscape-font-specification:Arial Black Heavy" font-size="16" font-weight="900" letter-spacing="0" word-spacing="0" font-family="Arial Black"/></g></svg>