<svg xmlns="http://www.w3.org/2000/svg" width="48" height="48" xmlns:xlink="http://www.w3.org/1999/xlink" version="1" viewBox="0 0 612 792" enable-background="new 0 0 612 792"><defs><radialGradient cx="303.8" cy="364.167" r="12.325" xlink:href="#a" gradientUnits="userSpaceOnUse"/><radialGradient id="a" cx="303.8" cy="364.167" r="12.325" gradientUnits="userSpaceOnUse"><stop offset="0" stop-color="#CCA84E" stop-opacity=".95"/><stop offset=".054" stop-color="#CEAB52" stop-opacity=".87"/><stop offset=".115" stop-color="#D5B360" stop-opacity=".779"/><stop offset=".18" stop-color="#DFC275" stop-opacity=".684"/><stop offset=".202" stop-color="#E4C87E" stop-opacity=".651"/><stop offset=".204" stop-color="#E4C87E" stop-opacity=".646"/><stop offset=".35" stop-color="#F5D468" stop-opacity=".221"/><stop offset=".426" stop-color="#FFDB5D" stop-opacity="0"/></radialGradient><radialGradient id="b" cx="303.8" cy="364.167" r="12.325" xlink:href="#a" gradientUnits="userSpaceOnUse" gradientTransform="matrix(16.963 0 0 16.963 -4902.495 -5799.509)"/></defs><g><path fill="#005b76" d="M651.66 303.53l7.2 36.44L688.62 352l3.26 1.4-32.42 18.02-2.35 32.06-.35 3.52-27.1-25.27-31.22 7.8-3.4.75 15.56-33.62-16.96-27.3-1.78-3.05 36.76 4.53 20.7-24.62 2.32-2.67m0-5.1c-1.45 0-2.85.62-3.84 1.74l-2.32 2.65-18.98 22.6-34.03-4.18c-.2-.02-.42-.03-.62-.03-1.7 0-3.3.86-4.26 2.3-1.07 1.6-1.1 3.7-.13 5.36l1.77 3.05 15.6 25.1-14.43 31.13c-.82 1.76-.56 3.83.66 5.32.98 1.2 2.44 1.88 3.95 1.88.36 0 .75-.03 1.1-.1l3.4-.78 28.63-7.14 25.1 23.4c.95.9 2.2 1.38 3.46 1.38.6 0 1.2-.1 1.8-.33 1.8-.7 3.07-2.34 3.26-4.25l.36-3.53 2.13-29.43 30.02-16.68c1.7-.95 2.7-2.78 2.6-4.7-.1-1.95-1.3-3.66-3.08-4.42l-3.27-1.4-27.3-11.04-6.68-33.73c-.36-1.9-1.8-3.43-3.67-3.92-.4-.16-.85-.2-1.27-.2z"/></g><g><path fill="#005b76" d="M549.27 203.3l3.5 17.95 12.53 4.6 3.26 1.37-16 8.85-.5 13.35-.33 3.5-13.37-12.44-12.84 3.68-3.42.73 7.66-16.56-7.4-11.08-1.8-3.02 18.1 2.2 8.23-10.5 2.37-2.64m0-5.1c-1.44 0-2.83.62-3.82 1.73l-2.35 2.64-6.67 8.48-15.25-1.85c-.22 0-.4-.03-.6-.03-1.72 0-3.32.85-4.27 2.3-1.06 1.64-1.1 3.72-.1 5.38l1.77 3.02 5.97 8.93-6.48 13.96c-.8 1.74-.55 3.8.65 5.3 1 1.23 2.47 1.92 3.98 1.92.35 0 .7-.03 1.07-.1l3.42-.73 10.42-2.97 11.25 10.5c.95.88 2.2 1.36 3.46 1.36.62 0 1.23-.1 1.8-.34 1.83-.7 3.1-2.34 3.27-4.27l.34-3.52.4-10.76 13.5-7.46c1.7-.95 2.7-2.78 2.6-4.73-.1-1.95-1.3-3.67-3.1-4.4l-3.27-1.4-10.07-3.7-2.94-15.12c-.37-1.9-1.78-3.42-3.66-3.93-.4-.14-.83-.2-1.3-.2z"/></g><g><path fill="#005b76" d="M546.08 366.84l5.56 28.15 22.06 8.7 3.25 1.44-25.1 13.87-1.48 23.7-.34 3.52-20.95-19.54-23.03 5.92-3.4.85 12.05-26.06-12.67-20.06-1.78-3 28.4 3.45 15.12-18.33 2.3-2.63m0-5.07c-1.43 0-2.82.6-3.82 1.73l-2.33 2.62-13.45 16.3-25.63-3.13c-.2-.03-.4-.05-.6-.05-1.72 0-3.32.85-4.27 2.3-1.07 1.64-1.1 3.73-.12 5.4l1.8 3 11.25 17.83-10.9 23.55c-.82 1.76-.55 3.87.7 5.38.97 1.2 2.43 1.85 3.9 1.85.4 0 .82-.03 1.23-.15l3.4-.85 20.38-5.22 18.92 17.64c.97.9 2.22 1.37 3.48 1.37.6 0 1.22-.1 1.8-.33 1.8-.7 3.08-2.34 3.25-4.27l.34-3.5 1.32-21.1 22.64-12.53c1.7-.95 2.7-2.77 2.6-4.7-.1-1.93-1.26-3.65-3.04-4.43l-3.26-1.42-19.62-7.77-5.04-25.44c-.36-1.9-1.78-3.43-3.66-3.92-.36-.12-.82-.15-1.26-.15z"/></g><g><path fill="#005b76" d="M596.85 473.57l8.4 16.28 13.33.85 3.5.42-12.85 12.98 3.28 12.97.68 3.46-16.33-8.17-11.3 7.17-3.07 1.67 2.68-18.03-10.24-8.57-2.58-2.36 18-3 4.98-12.43 1.53-3.23m0-5.08c-.03 0-.07 0-.1 0-1.94.03-3.68 1.16-4.5 2.9l-1.52 3.22-4.02 10.06-15.18 2.52c-1.93.33-3.5 1.72-4.05 3.58-.54 1.87.02 3.9 1.46 5.2l2.58 2.37 8.22 6.87-2.28 15.2c-.28 1.9.53 3.83 2.12 4.93.87.6 1.9.92 2.92.92.83 0 1.66-.2 2.43-.6L588 524l9.17-5.8 13.76 6.88c.74.36 1.52.54 2.3.54 1.1 0 2.17-.35 3.1-1.03 1.53-1.18 2.28-3.13 1.9-5.03l-.7-3.46-2.62-10.44 10.82-10.94c1.38-1.38 1.83-3.4 1.2-5.24-.64-1.84-2.27-3.16-4.18-3.4l-3.5-.42-10.75-.7-7.1-13.72c-.87-1.7-2.62-2.75-4.52-2.75z"/></g><g><path fill="#005b76" d="M472.2 698.05l17 28.83 28.08 1.14 3.76.26-22.17 25 7.54 27.1.92 3.67-30.6-13.32-23.4 15.57-3.18 2 3.2-33.24-22.03-17.47-2.9-2.45 32.63-7.2 9.72-26.4 1.44-3.5m0-5.1c-.13 0-.26 0-.38 0-1.92.14-3.6 1.38-4.34 3.18l-1.43 3.5-8.82 23.95-29.92 6.6c-1.9.4-3.38 1.88-3.84 3.76-.46 1.88.18 3.87 1.68 5.12l2.92 2.45L448 757.36l-2.9 30.48c-.2 1.92.73 3.8 2.38 4.82.83.5 1.76.74 2.68.74.95 0 1.86-.26 2.7-.77l3.18-1.98 21.2-14.12 28.05 12.22c.65.3 1.33.42 2.02.42 1.17 0 2.36-.4 3.28-1.2 1.5-1.26 2.12-3.23 1.66-5.1l-.92-3.7-6.82-24.54 20.32-22.93c1.3-1.46 1.65-3.53.9-5.3-.73-1.8-2.44-3.03-4.37-3.15l-3.77-.25-25.44-1.03-15.6-26.47c-.9-1.6-2.57-2.54-4.37-2.54z"/></g><g><path fill="#005b76" d="M317.1 725.93l3.72 19.2 13.43 4.9 3.46 1.52-17.1 9.5-.55 14.28-.35 3.78-14.33-13.3-13.76 3.86-3.66.87 8.2-17.78-7.92-11.85-1.92-3.2 19.4 2.33 8.88-11.23 2.5-2.87m0-5.08c-1.44 0-2.83.6-3.8 1.73l-2.5 2.8-7.28 9.2-16.57-1.98c-.2-.02-.4-.03-.6-.03-1.73 0-3.34.86-4.3 2.32-1.04 1.62-1.07 3.7-.07 5.37l1.9 3.2 6.5 9.7-7.03 15.17c-.8 1.76-.56 3.85.68 5.34 1 1.2 2.45 1.87 3.94 1.87.4 0 .78-.03 1.17-.14l3.68-.85 11.2-3.14 12.26 11.38c.96.9 2.2 1.35 3.46 1.35.6 0 1.22-.1 1.8-.34 1.8-.7 3.08-2.36 3.25-4.3l.36-3.78.47-11.67 14.6-8.1c1.68-.94 2.68-2.77 2.6-4.7-.1-1.94-1.27-3.65-3.06-4.42l-3.45-1.5-11.02-4.04-3.17-16.38c-.38-1.9-1.78-3.43-3.67-3.94-.4-.07-.87-.13-1.3-.13z"/></g><g><path fill="#005b76" d="M338.76 576.78l11.57 20.88 18.88 1.07 3.56.36-16.32 17.43 4.77 18.26.77 3.47-21.56-10.1-15.94 10.24-3 1.8 2.87-23.7-14.6-11.97-2.65-2.34 23.4-4.54 6.88-17.64 1.4-3.24m0-5.1c-.08 0-.15 0-.23 0-1.94.1-3.65 1.3-4.43 3.05l-1.43 3.24-5.95 15.22-20.64 3.97c-1.92.36-3.45 1.78-3.95 3.67-.5 1.86.08 3.86 1.54 5.15l2.64 2.33 12.6 10.3-2.54 20.93c-.24 1.92.64 3.82 2.27 4.9.85.53 1.8.8 2.78.8.9 0 1.8-.24 2.6-.7l3.03-1.8 13.74-8.8 19.03 8.9c.68.3 1.42.47 2.15.47 1.12 0 2.26-.38 3.2-1.1 1.5-1.2 2.2-3.18 1.77-5.06l-.76-3.48-4.1-15.77 14.4-15.38c1.32-1.4 1.74-3.46 1.05-5.28-.67-1.8-2.33-3.08-4.25-3.27l-3.55-.36-16.28-.9-10.2-18.45c-.9-1.6-2.6-2.6-4.46-2.6z"/></g><g><path fill="#005b76" d="M430.24 638.8l4.45 22.56 16.48 6.24 3.46 1.53-20.02 11.12-.93 17.63-.37 3.76-16.74-15.62-17.1 4.6-3.64.85 9.6-20.83-9.62-14.74-1.93-3.24 22.8 2.78 11.05-13.76 2.5-2.87m0-5.07c-1.47 0-2.87.62-3.87 1.76l-2.48 2.87-9.4 11.67-19.98-2.44c-.2-.02-.4-.03-.6-.03-1.72 0-3.32.85-4.27 2.3-1.07 1.63-1.1 3.72-.12 5.38l1.94 3.24 8.2 12.54-8.44 18.27c-.8 1.78-.54 3.85.68 5.36 1 1.2 2.45 1.86 3.94 1.86.38 0 .77-.03 1.14-.13l3.65-.85 14.52-3.9 14.67 13.67c.97.9 2.22 1.38 3.48 1.38.6 0 1.22-.1 1.8-.34 1.8-.7 3.08-2.36 3.25-4.27l.36-3.78.8-15 17.54-9.78c1.7-.94 2.7-2.77 2.62-4.68-.1-1.94-1.26-3.63-3.04-4.4l-3.46-1.54-14.1-5.34-3.88-19.78c-.36-1.9-1.8-3.45-3.68-3.94-.37-.08-.83-.13-1.26-.13z"/></g><g><path fill="#005b76" d="M557.02 651l3.55 17.97 12.52 4.58 3.22 1.4-15.96 8.87-.54 13.3-.36 3.5-13.36-12.43-12.83 3.67-3.42.77 7.68-16.6-7.4-11.07-1.83-3.05 18.14 2.24 8.24-10.52 2.34-2.63m0-5.08c-1.44 0-2.83.6-3.82 1.72l-2.32 2.6-6.67 8.5-15.27-1.88c-.22 0-.42-.03-.63-.03-1.7 0-3.3.85-4.25 2.3-1.07 1.63-1.1 3.72-.12 5.38l1.8 3.07 5.98 8.92-6.48 13.98c-.82 1.77-.56 3.82.66 5.33.98 1.23 2.44 1.9 3.95 1.9.36 0 .73-.03 1.1-.1l3.43-.77 10.35-2.97 11.27 10.48c.97.88 2.2 1.36 3.46 1.36.6 0 1.2-.1 1.8-.32 1.8-.7 3.07-2.35 3.26-4.26l.34-3.5.44-10.75 13.47-7.5c1.7-.95 2.7-2.76 2.6-4.7-.1-1.95-1.28-3.66-3.07-4.42l-3.24-1.4-10.1-3.68-3-15.14c-.36-1.9-1.78-3.43-3.66-3.92-.36-.1-.8-.18-1.26-.18z"/></g><g><path fill="#005b76" d="M556.12 577.78l2.94 14.68 9.48 3.27 3.2 1.4-13.04 7.27-.22 10.06-.36 3.54-10.95-10.23-9.6 2.9-3.4.82 6.28-13.6-5.73-8.24-1.82-3 14.84 1.76 6.04-8 2.34-2.64m0-5.1c-1.46 0-2.86.64-3.85 1.76l-2.32 2.66-4.5 5.92-11.96-1.42c-.2-.02-.4-.03-.6-.03-1.73 0-3.32.86-4.27 2.34-1.07 1.64-1.1 3.74-.1 5.4l1.83 3 4.24 6.1-5.06 10.95c-.8 1.76-.54 3.85.68 5.36.98 1.22 2.44 1.88 3.94 1.88.4 0 .8-.04 1.17-.14l3.4-.8 7.08-2.15 8.83 8.22c.97.9 2.22 1.37 3.48 1.37.62 0 1.2-.1 1.8-.33 1.8-.7 3.08-2.34 3.26-4.26l.36-3.53.17-7.52 10.47-5.83c1.7-.95 2.7-2.77 2.6-4.7-.1-1.92-1.26-3.63-3.04-4.4l-3.2-1.42-7.1-2.48-2.37-11.82c-.37-1.9-1.8-3.43-3.68-3.92-.4-.13-.83-.2-1.26-.2z"/></g><g><path fill="#005b76" d="M478.2 601.07l2.88 14.7 9.47 3.28 3.24 1.36-13.1 7.36-.2 10-.34 3.48-10.94-10.2-9.63 2.92-3.4.78 6.26-13.55-5.72-8.22-1.78-3.02 14.82 1.78 6.08-8.04 2.34-2.63m0-5.1c-1.45 0-2.84.62-3.82 1.74l-2.34 2.66-4.56 6-11.93-1.44c-.22 0-.4-.03-.6-.03-1.72 0-3.32.84-4.27 2.3-1.07 1.62-1.1 3.7-.12 5.37l1.8 3.02 4.23 6.12-5.05 10.9c-.82 1.77-.54 3.84.66 5.35 1 1.2 2.47 1.88 3.96 1.88.38 0 .77-.03 1.14-.12l3.4-.78 7.17-2.17 8.78 8.2c.97.9 2.23 1.37 3.48 1.37.6 0 1.22-.1 1.8-.34 1.8-.7 3.1-2.33 3.26-4.27l.32-3.5.16-7.44 10.55-5.93c1.7-.95 2.7-2.78 2.6-4.73-.13-1.95-1.33-3.65-3.13-4.4l-3.24-1.37-7-2.42-2.33-11.84c-.35-1.9-1.78-3.42-3.66-3.93-.37-.12-.83-.2-1.27-.2z"/></g><g><path fill="#005b76" d="M480.37 550.85l2.86 14.65 9.54 3.26 3.24 1.44-13.1 7.26-.2 10-.35 3.52-10.94-10.16-9.6 2.88-3.43.78 6.3-13.55-5.7-8.2-1.8-3.08 14.82 1.82 6.03-7.98 2.34-2.65m0-5.1c-1.44 0-2.85.62-3.84 1.74l-2.34 2.65-4.52 5.92-11.9-1.46c-.2 0-.4-.02-.62-.02-1.7 0-3.3.85-4.25 2.3-1.06 1.6-1.1 3.7-.13 5.35l1.78 3.07 4.24 6.14-5.08 10.9c-.8 1.77-.56 3.84.66 5.35.98 1.2 2.44 1.87 3.95 1.87.36 0 .75-.03 1.12-.12l3.45-.78 7.15-2.13 8.8 8.17c.97.9 2.2 1.37 3.47 1.37.6 0 1.22-.1 1.8-.34 1.8-.7 3.08-2.36 3.25-4.27l.34-3.53.17-7.43 10.56-5.84c1.7-.93 2.7-2.75 2.62-4.68-.1-1.93-1.26-3.65-3.02-4.43l-3.24-1.44-7.17-2.45-2.3-11.8c-.38-1.9-1.8-3.4-3.7-3.92-.38-.12-.82-.17-1.26-.17z"/></g><g><path fill="#005b76" d="M521.47 505.76l2.88 14.64 9.5 3.3 3.2 1.38-13.05 7.26-.23 10.1-.35 3.5-10.93-10.22-9.57 2.93-3.46.78 6.3-13.6-5.76-8.23-1.75-3.04 14.84 1.8 6-8.02 2.37-2.58m0-5.1c-1.4 0-2.78.6-3.77 1.67l-2.37 2.6-4.57 6.04-11.92-1.44c-.2-.02-.4-.04-.6-.04-1.72 0-3.3.84-4.27 2.28-1.07 1.6-1.1 3.7-.13 5.36l1.76 3.04 4.3 6.2-5.08 10.93c-.8 1.77-.56 3.84.66 5.34 1 1.2 2.44 1.88 3.95 1.88.36 0 .75-.03 1.1-.12l3.47-.78 7.14-2.17 8.77 8.2c.97.9 2.2 1.38 3.48 1.38.6 0 1.2-.1 1.8-.32 1.8-.67 3.07-2.33 3.26-4.25l.36-3.5.17-7.57 10.48-5.84c1.7-.95 2.7-2.76 2.6-4.7-.1-1.93-1.28-3.64-3.06-4.4l-3.2-1.38-7.1-2.48-2.3-11.8c-.37-1.87-1.78-3.38-3.63-3.9-.4-.16-.84-.2-1.3-.2z"/></g><path fill="none" stroke="#005b76" stroke-width="16.5" stroke-miterlimit="10" d="M-26.42 788.32l2.78-2.83c.07-.08 7.94-8.02 14.2-19.8 5.78-10.86 4.46-17.44-4.92-25.3-4.97-4.24-7.2-9.43-6.13-14.4 1.15-5.05 5.54-9.1 11.77-10.8C6.7 711 11.85 701.1 10.22 678.5c-.24-3.67-.6-7.08-.97-10.4-1.65-16-3.07-29.84 7.16-60.5 10.4-31.12 27.6-49.82 33.14-55.28-1.82-1.15-5.04-3.46-10.4-7.73-6.07.36-10.18 1.53-12.6 4.08l-.84.88-8.04-3.56c-12.1-5.3-18.77-8.25-35.87-23.58-10.44-9.38-10.9-20.05-11.26-29.53-.44-10.24-.78-19.1-11.86-26.44l-1.1-.75.43-1.24c3.16-9.5 4.9-16.32 6.33-21.77 3.28-12.85 4.8-18.68 18.05-33.34 12.45-13.74 31.14-15.72 41.25-15.72 8.28 0 16.8 1.32 23.97 3.68 1.8.6 3.85.9 6.1.9 10.95 0 25.98-6.62 38.02-11.94 3.9-1.72 7.5-3.3 10.72-4.57-21.4-2.2-84.32-9.8-103.72-24.06-23.46-17.2-41.95-89.68-41.95-94.53-.9-.67-8.9-2.4-14.74-3.7-14.34-3.12-29.14-6.33-27.96-13.37 1.16-6.97 9.08-16.84 23.06-16.84 8.1 0 17.16 3.2 26.9 9.54 8.17 5.3 17.03 27.78 25.6 49.54 5.57 14.15 10.88 27.5 14.46 31.7 8.47 9.9 54.66 19.24 68.93 19.24 3.26 0 10.87-1.25 19.9-2.8-33.42-28.85-77.9-83-74.83-91.54l.43-1.14L21 243l2.43-.3c1.7-1.98.37-10.05-.92-17.9-3.04-18.7-7.25-44.3 12.43-53.25 3.95-1.8 6.16-4 6.75-6.7 1.44-6.67-7.02-16.4-14.48-24.97-7.82-9.03-15.2-17.54-13.8-24.34.6-2.82 2.63-5.07 6.04-6.67 2.62-1.24 4.3-3.1 5.13-5.68C28.23 91.9 15.8 69.44 3.8 47.73-4.3 33.1-11.94 19.27-14.92 8.54l-1.5-5.43 4.3 3.67c4.14 3.5 8 6.6 11.75 9.65 16.98 13.73 33.06 26.7 66.95 69.9 13 16.55 29.13 47.28 49.33 93.93 7.17-2.95 15.65-4.6 18-5.07 1.62-1.85 4.2-4.45 6.27-4.45h.83l.35.27c5.82-10.77 22.55-18.62 38.4-19.93 1.9-.17 3.67-.25 5.3-.25 14 0 17.28 6.05 21.08 13.06 4.08 7.48 19.14 13.35 24.62 15.06l.76.26c1.18-.36 2.35-.65 3.6-1.02 1.45-.44 3-.64 4.54-.64 11.16 0 23.78 11.43 32.4 29.3 12.2-1.08 20.1-7.93 27.07-13.95 5.62-4.85 10.44-9.02 16.48-9.53 6.3-.54 9-11.1 11.4-20.47 2.37-9.35 4.42-17.42 10.2-17.42 4.6 0 30.6-23.43 46.13-37.42 18.65-16.8 21.96-19.53 23.7-19.53h1.06l.62 1.02c.63 1.2-.17 2.46-1.42 4.22-4.07 5.75-7.06 13.15-10.84 22.5-7.07 17.62-16.78 41.72-41.74 76.96-14.86 21-50.74 54.1-78.22 78.2.2 4.98-.42 11.4-1.08 18-.5 2.16-12.15 48.06-25.77 54.86-2.55 1.28-5.7 1.93-9.3 1.93-6.08 0-13.22-1.9-20.24-5.38-3.44 4.5-4.87 8.02-4.27 10.53.83 3.5 5.7 5.64 11.33 8.13 4.48 1.96 9.55 4.18 13.47 7.6 12.16 10.64 64.77 71.95 67.33 74.93-.07-.74 39.4-5.3 69.5-5.3 18.52 0 29.7 1.67 34.14 5.12 10.28 8.02 9.55 26.56 6.92 34.23-.37 1.05-1.45 4.08-3.73 4.08-.9 0-2.12-.45-2.9-2.8-2.8-8.34-18.74-15.7-18.9-15.75l-89.15 12.34c-1.2-.27-18.32-11.7-47-31.55-14.93-10.34-25.1-24.25-32.54-34.36-6.05-8.28-10.85-14.8-14.67-14.8-1.23 0-2.5.74-3.87 2.25-12.52 14.08-44.95 40.32-67.02 40.32-6.45 0-16.94 1.85-28 3.8-6.78 1.17-13.8 2.4-20.32 3.3 24.48 8.8 51.48 14.82 80.57 18.08l1.26.13.28 1.2c.34 1.52.25 4.2-3.24 11.56 6.55 2.4 11.37 4.13 13.1 4.58 10.58 3.07 14.52 23.87 14.52 36.25 0 12.17-67 107.07-74.64 117.84.07 0-8.97 26.1-8.97 41.44 0 19.43-28.36 32.12-31.6 33.5-1.04.44-1.85.64-2.57.64h-.9l-1.44-1.12c-1.34-1.86-.27-4.97 1.67-10.63 2.3-6.77 5.47-16.04 4.84-24.9-.5-7.2-3.77-12.67-6.9-18.03-4.62-7.8-8.96-15.2-2.1-25.5 5.4-8.15 9.63-8.7 14.12-9.32 4.9-.63 10.42-1.36 20.56-12.18 10.43-11.1 14.22-29.08 17.83-46.43 2.22-10.62 4.36-20.8 7.9-29.6-3.6 3.14-9.07 3.63-14.16 3.63-1.77 0-9.64-.24-9.64-.24-2.7 0-6.37.2-7.2 1.82-.9 1.66-1.95 3.2-3.2 4.58 3.15 8.63 3.6 15.6 1.73 19.73-2.47 5.4-11 21.95-21.83 42.8-22.05 42.64-55.4 107-57.47 117.15-1.45 7.44-1.45 15.97-1.45 25.03 0 8.98 0 18.27-1.6 26.85-2.75 15.08-28.65 16.7-39.7 16.7l-6.57-.16zm163.96-555.8c11.53 28.88 21.98 56.53 30.04 77.87l2.4 6.3c4.15-6.6 8.56-13.4 13.12-20.3l-.6-.74c-3.5-3.48-33.77-34.8-24.86-60.6 1.8-5.2 2.97-9.86 3.95-14.08-1.82.2-4.4.35-7.66.35-.27 0-.5 0-.7-.07-.06.48-.18.94-.4 1.4-.24.56-.7 1.25-1.58 1.78-.56 2.15-3.83 3.56-8.18 5.17-1.95.74-3.8 1.8-5.54 2.9z" stroke-linecap="round" stroke-linejoin="round"/><g><path fill="#005b76" d="M393.08 457.6c.7.36 17.35 9.54 20.6 17.64l45.2 62.24-10.67 6.4-57.4-83.77 2.28-2.5m0-5.1c-1.4 0-2.78.57-3.78 1.68l-2.28 2.5c-1.57 1.75-1.76 4.35-.4 6.28l57.4 83.78c.98 1.43 2.56 2.2 4.2 2.2.9 0 1.78-.23 2.6-.7l10.67-6.42c1.2-.73 2.07-1.95 2.36-3.34.3-1.4-.03-2.85-.86-4l-44.88-61.78c-4.2-9.16-19.5-17.9-22.6-19.6-.76-.4-1.6-.6-2.44-.6z"/></g><path fill="#eef2bf" d="M650.2 307.2l6.46 32.97 30.84 13.28-29.38 16.3-3.14 33.44-24.54-22.88-32.76 7.33 14.1-30.43-17.05-28.9 33.28 4.05 22.2-25.17z"/><path fill="#eef2bf" d="M547.8 206.68l2.84 14.48 13.54 5.84-12.87 7.16-1.4 14.67-10.77-10.03-14.4 3.24 6.2-13.38-7.48-12.7 14.6 1.76 9.76-11.04z"/><path fill="#eef2bf" d="M544.64 370.76l4.88 24.73 23.06 9.96-22 12.18-2.36 25.1-18.4-17.16-24.55 5.48 10.55-22.8-12.72-21.64 24.9 3.03 16.64-18.9z"/><path fill="#eef2bf" d="M596.76 477.7l6.86 13.12 14.6 1.8-10.34 10.5 2.8 14.48-13.17-6.58-12.88 7.14 2.17-14.6-10.75-10.06 14.5-2.38 6.2-13.42z"/><path fill="#eef2bf" d="M472.3 702.2l15.07 25.57 29.52 2.03-19.64 22.15 7.14 28.8-27.15-11.85-25.14 15.7 2.86-29.5-22.68-19.04 28.92-6.38 11.1-27.5z"/><path fill="#eef2bf" d="M315.78 729.82l3.02 15.54 14.54 6.22-13.83 7.7-1.48 15.73-11.55-10.76-15.4 3.44 6.63-14.32-8.03-13.55 15.64 1.88 10.48-11.86z"/><path fill="#eef2bf" d="M338.4 580.46l9.88 17.8 20.22 1.95-13.88 14.88 4.36 19.85-18.38-8.63-17.56 10.36 2.48-20.22-15.2-13.47 19.93-3.85 8.16-18.66z"/><path fill="#eef2bf" d="M428.67 643.04l3.73 18.83 17.55 7.58-16.74 9.3-1.82 19.1-14-13.08-18.72 4.2 8.04-17.38-9.72-16.5 19 2.3 12.7-14.36z"/><path fill="#eef2bf" d="M555.38 654.54l2.88 14.54 13.5 5.8-12.87 7.16-1.44 14.7-10.8-10.06-14.4 3.23 6.22-13.4-7.46-12.68 14.62 1.8 9.74-11.08z"/><path fill="#eef2bf" d="M554.68 581.46l2.22 11.22 10.5 4.5-10 5.6-1.1 11.37-8.34-7.82-11.2 2.53 4.8-10.38-5.78-9.82 11.32 1.4 7.58-8.6z"/><path fill="#eef2bf" d="M477 604.75l2.2 11.22 10.48 4.53-10 5.56-1.1 11.38-8.36-7.77-11.16 2.48 4.8-10.38-5.8-9.8 11.35 1.35 7.6-8.57z"/><path fill="#eef2bf" d="M479.32 554.24l2.2 11.2 10.52 4.54-10 5.55-1.1 11.36-8.36-7.78-11.16 2.48 4.8-10.35-5.82-9.84 11.37 1.42 7.55-8.58z"/><path fill="#eef2bf" d="M520.26 509.68l2.2 11.2 10.5 4.56-10 5.5-1.08 11.46-8.35-7.82-11.16 2.5 4.8-10.37-5.8-9.83 11.3 1.36 7.6-8.55z"/><path fill="#6dcde3" d="M138.28 372.43s7.54-.06 27.9-15.35c52.8-39.77 157.7-126.44 185.54-165.75 38.6-54.47 40.76-82.9 52.57-99.46 11.8-16.55-59 54.47-68.66 54.47-9.65 0-7.5 36.7-21.45 37.86-13.97 1.2-22.52 26.07-50.44 23.7-27.87-2.38-115.8 139.7-125.48 164.53z"/><path fill="#b1e0e6" d="M179.5 348.72C169.22 326.98 104.88 138.95 63.72 86.5 22.55 34.07 8.4 26.82-14.75 7.2-6.17 37.9 43.15 98 18.7 109.53c-24.45 11.5 46.3 48.6 15.43 62.67-30.88 14.07 1.3 74.2-14.13 71.62-15.47-2.54 69.47 101.05 102.9 110 33.43 8.96 56.6-5.1 56.6-5.1z"/><path fill="#eac47d" d="M78.07 440.78s92.93 35.84 102.2 38.52c9.3 2.68 13.26 22.58 13.26 34.52 0 11.94-74.33 116.8-74.33 116.8s-9.28 26.58-9.28 42.5c0 15.92-21.27 27.9-30.55 31.87-9.3 3.94 5.3-15.94 3.97-34.53-1.32-18.6-19.9-26.52-9.3-42.46 10.63-15.95 14.6 0 34.53-21.23 19.9-21.3 15.9-65.07 31.85-87.66 6.16-8.7-53.1-10.6-53.1-10.6s-27.9-47.78-26.54-57.12c1.36-9.3 17.3-10.6 17.3-10.6z"/><path fill="#ffdd9f" d="M108.14 379.7s-44.27 24.44-62.6 18.3c-18.3-6.08-47.7-5.72-62.97 11.07-35.37 38.93-9.2 76.47 35.48 115.65 28.26 24.8 32.84 26.33 32.84 26.33s-22.1 19.47-34.34 56.13c-12.23 36.66-7.6 48.9-6.1 70.26 1.54 21.35-2.48 33.67-20.2 38.5-11.1 3.02-15 13.78-4.98 22.17 9.55 8 11.74 15.42 5.33 27.48-6.47 12.2-14.5 20.18-14.5 20.18s37.4 1.6 40.48-15.2c3.07-16.77 0-36.64 3.07-51.9 3.05-15.27 71.75-143.54 79.38-160.3 7.64-16.8-30.55-88.6-38.15-105.35-7.63-16.8 54.93-19.87 76.32-19.87 21.37 0 53.43-25.92 65.64-39.68 12.23-13.74 21.4 24.43 53.45 46.58 28.64 19.8 45.77 31.3 45.77 31.3l90.08-12.2s16.77 7.6 19.86 16.74c3.06 9.18 10.7-22.85-3.06-33.57-13.72-10.7-103.8 0-103.8 0s-54.97-64.13-67.18-74.8c-12.23-10.7-36.64-9.18-19.85-29.8-3.38-1.34-17.3-14.5-20.6-15.98-11.47 15.98-21.73 19.42-25.2 13.72-9.17-15.25-87 4.6-100.73 4.6-13.76 0-61.1-9.18-70.26-19.87-9.15-10.68-26.48-72.38-39.66-80.93-30.55-19.84-45.8-3.07-47.35 6.1-1.52 9.17 42.76 12.22 42.76 16.8s18.3 76.34 41.23 93.1c22.82 16.84 109.84 24.47 109.84 24.47z"/><path fill="#ca5ca3" d="M237.92 367.5s-56.48-16.8-65.63-32.08c-9.18-15.25 8.32 44.34-60.87 44.34-10.3-.54-47.56 24.4-65.88 18.27-18.3-6.1-47.72-5.73-63 11.04-19.07 20.95-13.76 22.9-24.4 54.93 22.9 15.28 2.84 37.86 23.28 56.16C1.33 538 6.98 538.86 23.8 546.5c13.34-14.13 62.97 13.34 76.7-12.62 3.6-6.78 27.2 2.77 33.2-7.98 5.72-10.34 37.4-55.73 35.5-64.14-48.47-5.34-79.55-17.5-87.72-20.7 18.28-1.74 43.56-7.97 55.65-7.97 21.37 0 53.47-25.9 65.65-39.67 12.24-13.7 35.14-25.93 35.14-25.93z"/><path fill="#a24883" d="M411.96 475.87l44.25 61.1-7.6 4.58-56.5-82.4c0-.02 16.77 9.1 19.86 16.72z"/><path fill="#a9218e" d="M226.5 368.65c-4.35 2.2-24.28 15.93-32.58 25.34-8.3 9.4-26.4 27.47-48.48 32.88-22.07 5.42-68.73 10.15-68.73 10.15s47.4-9.42 64.42-18.46c17-9.04 38.32-14.82 48.83-29.65 5.97-8.46 11.93-25.7-1.46-35.47 22.42 10.5 38 15.2 38 15.2z"/><path fill="#a9218e" d="M73.96 444.63c8.2 2.56 81.44 22.27 87.95 21.18 6.53-1.07-21.7 41.83-29.3 48.85-7.6 7.06-3.82 9.2-16.83 8.68-13.02-.54-22.27 1.07-28.75 8.67-6.53 7.63-34.74 5.45-48.3 4.36-13.6-1.07-17.87 3.55-17.36 1.63C35.46 479.93-2 475.57 3.43 464.2c5.43-11.4 61.88-22.3 70.53-19.57z"/><path fill="#9a258f" d="M86.45 450.4c6.7 2.13 70.2 16.06 75.5 15.2 5.32-.9-14.66 26.47-20.83 32.24-6.2 5.77-104.93-43.58-94.82-45.58 14.06-2.82 33.07-4.05 40.15-1.87z"/><path fill="#d178b1" d="M85.38 394.7s-27.13 10.86-37.44 8.15c-10.3-2.72-38.54-9.77-60.25 9.75C-34.03 432.13-34.6 462-34.6 462s17.27 25.07 11.96 13.57c-3.26-7.06-6.53-11.4-.56-26.06 6-14.63 11.4-29.82 29.33-33.08 17.93-3.26 33.65.54 50.46-7.07 16.84-7.6 28.78-14.64 28.78-14.64z"/><path fill="url(#b)" d="M209.5 388.9s25.3-18.77 28.57-19.18c3.26-.36 65.85 74.18 65.85 74.18s-26.76-6.5-46.3-24.6c-19.55-18.08-43.43-31.48-48.13-30.4z"/><path fill="#ca5ca3" d="M137.15 259.5c-4.63 4.93-21.15 16.47-26.72 16.03-.35 3.05 1.12 6.48 1.12 6.48s25.33.7 29.8-11.05c-1.06-3.26-4.58-11.45-4.58-11.45"/><path fill="#ca5ca3" d="M129.7 246.74c-8.16-10.72-22.47-44-21.63-55.75.85-11.8-8.85 2.1-8.85 2.1s9.55 49.8 29.16 61.22c5.44-1.74 1.32-7.58 1.32-7.58"/><path fill="#ca5ca3" d="M149.34 217.13c-4.58-8.42-11.45-33.6-9.92-42 1.54-8.4-6.1.76-6.1.76s2.3 36.63 14.5 46.55c3.83-.74 1.52-5.32 1.52-5.32"/><path fill="#ffdd9f" d="M264.62 218.7c12.38 20.6 10.1 43.53 7.45 69.62 0 0-11.72 47-24.8 53.5-13.05 6.54-41.76-5.23-53.48-27.4-10.48-19.7-52-86.83 3.87-109.6 35.25-14.38 55.5-5.23 66.95 13.87z"/><path fill="#7c4918" d="M100.14 196.52c6.85 27.48 17.16 44.25 22.5 46.54 5.3 2.3 12.98 9.55 14.5 19.47-3.45 6.54-11.44 9.18-19.86 13-9.04 4.07-18.32-8.06-19.82-17.2-1.55-9.15-9.96-37.4-9.96-37.4s4.22-19.82 12.64-24.4z"/><path fill="#7c4918" d="M140.18 272.08c-7.6 8.42-22.13 10.7-25.93 9.93-3.85-.77 7.6 29.78 22.13 33.6 14.5 3.8 12.7 11.78 16.02 26.7 1.54 6.86 9.95 22.9 14.52 24.44-1.5-39.68-10.7-86.26-26.74-94.66z"/><path fill="#864f1c" d="M228.75 179.72s-20.48-6.36-25.06-14.77c-4.6-8.38-7.03-14.54-25.35-13.03-18.32 1.5-38.93 12.52-38.93 26.28 0 13.75 6.12 40.45 12.98 40.45 6.9 0 10.68-.78 10.68-.78s21.4-21.35 35.9-25.2c14.48-3.8 22.12-6.87 29.77-12.95z"/><path fill="#704112" d="M133.33 175.9c-.76 10.7 4.58 32.83 9.14 39.72 4.6 6.85 10.72 6.85-1.5 11.43-12.24 4.6-19.87 19.86-26.72-5.33-6.9-25.17-11.47-34.33-3.06-38.93 8.36-4.6 22.13-6.9 22.13-6.9z"/><path fill="#734313" d="M274.54 249.2c-8.4-25.17-4.85-34.02-21.64-39.4-16.1-5.1-27.5 13.8-27.5 13.8s-25.54-15.33-35.47.7c-9.92 16.03 4.48 29.48 4.48 29.48l6.87 13.76s-13.76-9.9-19.87-15.25c-6.1-5.35-7.6-10.73-10.7-15.26.4 4.8 4.6 44.26 14.54 46.54 9.9 2.3 9.14 9.16 9.9 12.98.77 3.82-3.8 6.1-12.97-3.03-9.16-9.18-32.06-36.68-24.43-58.8 7.65-22.15 3.78-34.43 25.17-44.3 18.35-8.4 22.95-3.06 51.17-11.44 22.04-6.57 50.4 43.5 40.47 70.2z"/><path fill="#c19b4f" d="M198.26 324.14c7.96 8.7 15.58 13.05 17.02 13.76 1.44.73-10.5 11.23 2.9 21.7-13.03-7.6-23.87-22.43-19.92-35.46z"/><g><path fill="#c5e8f3" d="M650.35 307.15l6.48 33 30.8 13.27-29.36 16.28-3.15 33.45-24.55-22.86-32.75 7.32 14.1-30.45-17.04-28.9 33.27 4.05 22.2-25.17m0-3.4c-.97 0-1.88.4-2.54 1.16l-21 23.84-31.48-3.83c-.15 0-.3 0-.4 0-1.14 0-2.2.57-2.84 1.53-.7 1.07-.74 2.48-.08 3.58l16.1 27.37-13.34 28.84c-.54 1.18-.35 2.55.44 3.55.65.82 1.63 1.28 2.63 1.28.26 0 .5-.04.75-.1l31-6.93 23.23 21.65c.65.6 1.48.9 2.33.9.4 0 .82-.05 1.2-.2 1.2-.47 2.06-1.57 2.18-2.86l3-31.66 27.8-15.42c1.13-.63 1.8-1.83 1.76-3.14-.07-1.3-.87-2.44-2.05-2.95l-29.17-12.58-6.12-31.25c-.25-1.27-1.18-2.3-2.43-2.6-.3-.1-.62-.15-.92-.15z"/></g><g><path fill="#c5e8f3" d="M547.96 206.93l2.85 14.5 13.53 5.82-12.9 7.2-1.36 14.67-10.8-10.04-14.4 3.2 6.2-13.38-7.48-12.7 14.58 1.77 9.78-11.04m0-3.4c-.96 0-1.88.4-2.52 1.15l-8.6 9.7-12.83-1.56c-.14-.02-.28-.02-.4-.02-1.13 0-2.2.58-2.83 1.54-.7 1.07-.74 2.48-.08 3.58l6.57 11.16-5.46 11.78c-.54 1.17-.35 2.54.43 3.54.66.82 1.65 1.27 2.65 1.27.25 0 .5-.03.74-.08l12.66-2.84 9.48 8.82c.64.6 1.48.9 2.32.9.4 0 .82-.06 1.2-.2 1.2-.47 2.06-1.57 2.18-2.86l1.2-12.9L566 230.2c1.1-.62 1.8-1.85 1.74-3.13-.05-1.3-.86-2.43-2.05-2.94L553.8 219l-2.5-12.7c-.25-1.3-1.2-2.3-2.44-2.63-.32-.1-.6-.15-.92-.15z"/></g><g><path fill="#c5e8f3" d="M544.8 370.47l4.88 24.7 23.05 10-22 12.18-2.38 25.07-18.38-17.13-24.57 5.45 10.56-22.8-12.73-21.64 24.92 3.06 16.64-18.9m0-3.4c-.98 0-1.9.42-2.55 1.17l-15.44 17.54-23.13-2.84c-.13 0-.28 0-.4 0-1.12 0-2.2.56-2.84 1.5-.7 1.1-.74 2.5-.1 3.6l11.83 20.1-9.8 21.2c-.55 1.17-.37 2.54.42 3.54.66.82 1.64 1.27 2.64 1.27.26 0 .5-.03.73-.08l22.83-5.07 17.08 15.9c.65.6 1.48.9 2.33.9.4 0 .8-.05 1.2-.2 1.2-.46 2.04-1.57 2.16-2.86l2.2-23.3 20.43-11.32c1.13-.62 1.8-1.83 1.76-3.13-.07-1.3-.87-2.46-2.06-2.97l-21.42-9.27-4.55-22.97c-.25-1.27-1.18-2.28-2.46-2.62-.28-.07-.6-.1-.88-.1z"/></g><g><path fill="#c5e8f3" d="M596.56 477.45l6.84 13.1 14.62 1.8-10.35 10.5 2.82 14.46-13.2-6.55-12.9 7.16 2.2-14.62-10.8-10.04 14.54-2.4 6.22-13.4m0-3.38c-.03 0-.05 0-.08 0-1.3.03-2.46.8-3 1.97l-5.45 11.77-12.77 2.12c-1.28.2-2.34 1.12-2.7 2.37-.37 1.23-.02 2.57.93 3.45l9.47 8.82-1.9 12.86c-.2 1.3.34 2.56 1.4 3.3.6.38 1.27.6 1.95.6.56 0 1.12-.13 1.64-.42l11.35-6.3 11.6 5.78c.5.24 1 .36 1.52.36.73 0 1.46-.24 2.05-.7 1.04-.78 1.53-2.08 1.28-3.34l-2.48-12.7 9.1-9.2c.9-.93 1.2-2.3.77-3.5-.4-1.23-1.5-2.1-2.78-2.26l-12.86-1.6-6-11.53c-.6-1.15-1.77-1.84-3.04-1.84z"/></g><g><path fill="#c5e8f3" d="M472.17 702.2l15.07 25.58 29.5 2.04L497.1 752l7.18 28.76-27.15-11.84-25.16 15.7 2.87-29.48-22.68-19.05 28.92-6.38 11.1-27.52m0-3.4c-.1 0-.17 0-.26.03-1.3.08-2.43.9-2.9 2.12l-10.43 25.83-27.2 6c-1.24.3-2.24 1.26-2.55 2.5-.32 1.26.14 2.58 1.1 3.4l21.33 17.9-2.7 27.7c-.12 1.3.5 2.53 1.6 3.2.54.35 1.16.52 1.78.52.62 0 1.23-.17 1.78-.5l23.66-14.77 25.5 11.13c.44.2.9.3 1.37.3.8 0 1.58-.3 2.2-.8 1-.84 1.4-2.16 1.1-3.42l-6.76-27.04 18.48-20.83c.86-.96 1.1-2.34.6-3.52-.48-1.2-1.62-2.02-2.9-2.1l-27.74-1.92-14.16-24.04c-.58-1.06-1.7-1.7-2.9-1.7z"/></g><g><path fill="#c5e8f3" d="M315.66 729.78l3.02 15.54 14.52 6.23-13.8 7.68-1.52 15.74-11.55-10.77-15.4 3.43 6.63-14.32-8.02-13.56 15.66 1.87 10.46-11.82m0-3.4c-.97 0-1.88.42-2.53 1.17l-9.3 10.5-13.87-1.65c-.13-.02-.27-.02-.4-.02-1.14 0-2.2.58-2.84 1.55-.7 1.08-.73 2.47-.08 3.58l7.1 12.03-5.88 12.7c-.54 1.18-.37 2.55.44 3.55.66.82 1.63 1.27 2.65 1.27.25 0 .5-.03.73-.08l13.65-3.04 10.25 9.55c.64.6 1.47.92 2.32.92.4 0 .8-.07 1.2-.22 1.2-.46 2.04-1.56 2.18-2.83l1.34-13.98 12.26-6.82c1.12-.63 1.8-1.85 1.75-3.14-.1-1.28-.88-2.43-2.06-2.92l-12.9-5.53-2.65-13.78c-.25-1.27-1.2-2.3-2.44-2.62-.32-.12-.6-.16-.92-.16z"/></g><g><path fill="#c5e8f3" d="M338.6 580.63l9.88 17.83 20.22 1.93-13.87 14.87 4.36 19.83-18.4-8.62-17.56 10.35 2.5-20.2-15.22-13.47 19.95-3.9 8.14-18.63m0-3.4c-.04 0-.1 0-.16 0-1.27.06-2.42.86-2.95 2.05l-7.44 17-18.18 3.54c-1.28.25-2.3 1.2-2.63 2.44-.34 1.26.07 2.58 1.03 3.44l13.9 12.3-2.3 18.42c-.16 1.3.4 2.55 1.5 3.24.57.38 1.22.56 1.86.56.6 0 1.2-.15 1.73-.47L341 630.3l16.75 7.85c.45.22.96.33 1.44.33.75 0 1.5-.26 2.1-.75 1.03-.82 1.48-2.12 1.2-3.38l-3.97-18.08 12.67-13.57c.88-.95 1.13-2.3.7-3.5-.47-1.2-1.6-2.06-2.86-2.18l-18.45-1.77-9.02-16.25c-.6-1.1-1.73-1.76-2.97-1.76z"/></g><g><path fill="#c5e8f3" d="M428.84 642.72l3.73 18.82 17.55 7.57-16.74 9.3-1.83 19.12-14-13.08-18.72 4.2 8.06-17.36-9.73-16.52 19 2.3 12.67-14.34m0-3.4c-.97 0-1.9.4-2.53 1.16l-11.5 13-17.24-2.1c-.16 0-.3 0-.4 0-1.15 0-2.22.56-2.84 1.53-.72 1.08-.75 2.5-.1 3.6l8.83 14.97-7.3 15.74c-.55 1.18-.36 2.55.43 3.55.65.82 1.63 1.28 2.63 1.28.27 0 .5-.04.76-.1l16.96-3.8 12.7 11.87c.63.6 1.46.9 2.3.9.4 0 .83-.05 1.2-.2 1.2-.46 2.05-1.57 2.2-2.86l1.67-17.35 15.17-8.42c1.14-.63 1.8-1.83 1.76-3.14-.06-1.3-.86-2.44-2.05-2.95l-15.9-6.88-3.4-17.08c-.24-1.26-1.17-2.28-2.45-2.6-.3-.08-.6-.12-.9-.12z"/></g><g><path fill="#c5e8f3" d="M555.73 654.6l2.85 14.53 13.54 5.83-12.9 7.14-1.4 14.7L547 686.72l-14.4 3.23 6.2-13.4-7.46-12.66 14.6 1.77 9.8-11.06m0-3.4c-.97 0-1.9.42-2.55 1.17l-8.6 9.73-12.84-1.56c-.15 0-.28 0-.4 0-1.14 0-2.2.56-2.84 1.53-.7 1.07-.74 2.48-.08 3.58l6.56 11.13-5.44 11.8c-.54 1.16-.36 2.53.44 3.53.64.83 1.63 1.28 2.63 1.28.25 0 .5-.03.75-.08l12.63-2.83 9.53 8.83c.63.6 1.46.92 2.3.92.4 0 .82-.07 1.2-.22 1.2-.46 2.06-1.56 2.18-2.85l1.23-12.9 11.33-6.3c1.14-.6 1.8-1.82 1.77-3.12-.07-1.3-.87-2.45-2.05-2.96l-11.9-5.12-2.5-12.77c-.24-1.27-1.18-2.3-2.43-2.6-.32-.13-.6-.17-.92-.17z"/></g><g><path fill="#c5e8f3" d="M554.83 581.43l2.24 11.2 10.47 4.52-10 5.6-1.08 11.38-8.33-7.82-11.2 2.52 4.83-10.38-5.8-9.82 11.3 1.4 7.57-8.6m0-3.38c-.96 0-1.88.4-2.54 1.15l-6.4 7.23-9.54-1.17c-.13 0-.3-.03-.4-.03-1.14 0-2.2.58-2.84 1.54-.7 1.07-.75 2.48-.08 3.58l4.88 8.3-4.07 8.77c-.54 1.17-.36 2.54.44 3.54.64.82 1.62 1.27 2.62 1.27.26 0 .5-.03.75-.08l9.45-2.12 7.02 6.6c.64.6 1.47.9 2.32.9.4 0 .82-.05 1.2-.2 1.2-.46 2.04-1.57 2.18-2.86l.93-9.6 8.43-4.73c1.12-.64 1.8-1.85 1.75-3.14-.1-1.3-.87-2.44-2.05-2.93l-8.84-3.8-1.9-9.47c-.24-1.27-1.2-2.27-2.44-2.6-.3-.13-.6-.16-.9-.16z"/></g><g><path fill="#c5e8f3" d="M476.9 604.72l2.18 11.2 10.48 4.56-10 5.54-1.08 11.4-8.36-7.77-11.16 2.48 4.78-10.38-5.78-9.8 11.35 1.35 7.6-8.58m0-3.4c-.98 0-1.9.4-2.54 1.14l-6.4 7.25-9.6-1.15c-.13 0-.26 0-.38 0-1.14 0-2.2.56-2.84 1.53-.7 1.07-.74 2.48-.08 3.58l4.87 8.28-4.04 8.78c-.55 1.17-.37 2.55.43 3.55.65.8 1.63 1.27 2.63 1.27.26 0 .48-.03.73-.08l9.42-2.1 7.07 6.57c.62.6 1.45.92 2.3.92.4 0 .82-.07 1.2-.22 1.2-.46 2.06-1.56 2.18-2.85l.9-9.6 8.44-4.68c1.14-.63 1.8-1.83 1.77-3.14-.08-1.3-.88-2.44-2.06-2.95l-8.84-3.83-1.83-9.46c-.26-1.26-1.2-2.28-2.45-2.62-.34-.12-.64-.15-.93-.15z"/></g><g><path fill="#c5e8f3" d="M479.03 554.48l2.22 11.2 10.53 4.54-10 5.58-1.1 11.33-8.37-7.77-11.13 2.5 4.8-10.34-5.82-9.87 11.36 1.4 7.53-8.57m0-3.4c-.97 0-1.9.4-2.55 1.16l-6.34 7.22-9.57-1.18c-.13-.02-.3-.04-.4-.04-1.12 0-2.2.58-2.84 1.53-.7 1.08-.74 2.48-.08 3.58l4.9 8.34-4.05 8.73c-.55 1.17-.36 2.54.44 3.54.64.82 1.63 1.28 2.63 1.28.25 0 .5-.04.74-.1l9.43-2.1 7.07 6.54c.63.58 1.46.9 2.3.9.4 0 .82-.06 1.2-.22 1.22-.45 2.05-1.56 2.18-2.84l.94-9.55 8.44-4.73c1.12-.63 1.8-1.85 1.75-3.14-.04-1.3-.86-2.42-2.04-2.93l-8.9-3.84-1.86-9.44c-.25-1.28-1.2-2.28-2.46-2.62-.34-.08-.62-.12-.9-.12z"/></g><g><path fill="#c5e8f3" d="M520.16 509.37l2.2 11.2 10.47 4.56-10 5.53-1.06 11.45-8.34-7.8-11.16 2.48 4.78-10.36-5.78-9.85 11.3 1.37 7.6-8.57m0-3.4c-.97 0-1.9.4-2.54 1.13l-6.4 7.23-9.56-1.16c-.15 0-.3 0-.4 0-1.12 0-2.2.56-2.84 1.5-.7 1.1-.74 2.5-.1 3.6l4.9 8.32-4.05 8.74c-.54 1.17-.36 2.55.44 3.55.64.8 1.63 1.26 2.63 1.26.25 0 .5-.03.75-.08l9.4-2.12 7.05 6.6c.64.6 1.48.9 2.32.9.4 0 .82-.06 1.2-.2 1.2-.47 2.06-1.57 2.18-2.86l.9-9.65 8.43-4.67c1.12-.62 1.8-1.83 1.76-3.13-.07-1.3-.86-2.43-2.03-2.96l-8.83-3.86-1.85-9.45c-.25-1.28-1.2-2.28-2.44-2.62-.32-.07-.63-.12-.92-.12z"/></g><path fill="none" stroke="#c5e8f3" stroke-width="3.393" stroke-miterlimit="10" d="M140.66 175.92c1.54-8.4-6.07.75-6.07.75m-.03 0s-11.45 1.93-19.83 5.77c-17.2-39.86-35-76.3-49.82-95.15C23.8 34.84 9.62 27.6-13.53 7.97c8.58 30.7 57.9 90.8 33.45 102.33-24.44 11.53 46.3 48.6 15.44 62.7-30.9 14.03 1.28 74.17-14.15 71.6-12.1-2 37.3 60.95 75.37 92.7-11 1.9-19.98 3.5-23.85 3.5-13.74 0-61.1-9.18-70.24-19.85-9.16-10.68-26.5-72.36-39.7-80.92-30.5-19.87-45.8-3.04-47.32 6.12-1.5 9.16 42.77 12.18 42.77 16.77 0 4.58 18.3 76.34 41.22 93.1 22.9 16.82 109.9 24.44 109.9 24.44s-.65.35-1.75.95c-14.28 4.33-44.73 22.7-60.76 17.4-.04 0-.07 0-.07-.02-18.32-6.1-47.7-5.74-63 11.04-.17.2-.27.36-.4.5-18.5 20.45-13.42 22.64-24.02 54.46 22.9 15.27 2.88 37.86 23.3 56.16 19.9 17.83 25.57 18.7 42.36 26.3 3.2-3.38 8.56-4.35 14.95-4.25 9.9 7.97 12.16 8.8 12.16 8.8S30 571.3 17.78 607.94c-12.23 36.63-7.62 48.9-6.1 70.26 1.53 21.37-2.5 33.7-20.23 38.5-11.1 3.04-14.96 13.78-4.97 22.18 9.55 8 11.75 15.4 5.33 27.46-6.47 12.2-14.5 20.22-14.5 20.22s37.4 1.56 40.47-15.25c3.07-16.75.03-36.6 3.07-51.86 3.05-15.3 71.73-143.52 79.36-160.32 1.85-4.03 1-11.34-1.4-20.16 1.1-1.24 2.1-2.67 2.95-4.24 3.6-6.82 27.2 2.73 33.2-8 1.1-2.08 3.42-5.68 6.1-9.88 1.12.9 1.44 1.9.66 3.03-15.93 22.58-11.95 66.4-31.86 87.65-19.92 21.24-23.9 5.3-34.52 21.24-10.64 15.92 7.97 23.88 9.3 42.47 1.33 18.6-13.3 38.5-4 34.55 9.3-3.97 30.57-15.96 30.57-31.9 0-15.9 9.27-42.46 9.27-42.46s74.33-104.88 74.33-116.84c0-11.92-3.97-31.85-13.24-34.52-1.94-.52-7.55-2.58-15.05-5.36 2.8-5.6 4.42-10.04 3.94-12.14-48.46-5.36-79.53-17.5-87.73-20.7 18.32-1.74 43.6-7.92 55.67-7.92 21.4 0 53.46-25.95 65.66-39.7.02-.04.05-.04.07-.08 12.18-13.52 21.35 24.5 53.36 46.63 28.7 19.8 45.78 31.27 45.78 31.27l90.1-12.2s16.77 7.6 19.84 16.78c3.07 9.15 10.7-22.88-3.04-33.57-13.75-10.72-103.84 0-103.84 0s-54.93-64.1-67.16-74.78c0-.02 0-.02 0-.02-12.23-10.7-36.6-9.16-19.88-29.74 10.9 5.72 22.3 7.55 29.25 4.07 13.08-6.5 24.82-53.5 24.82-53.5.68-6.57 1.3-12.9 1.7-19.1 34.13-29.92 64.73-59.25 77.94-77.9 38.6-54.46 40.8-82.9 52.6-99.45 11.76-16.57-59 54.47-68.68 54.47-9.63 0-7.5 36.67-21.44 37.86-12.92 1.1-21.44 22.24-44.75 23.5-8.44-18.02-22.94-32.44-35.4-28.76-2.5.77-4.65 1.3-6.84 1.85.5-.37 1.03-.7 1.52-1.08 0 0-20.47-6.37-25.05-14.75-4.58-8.4-7.02-14.56-25.34-13.05-18.33 1.55-38.94 12.54-38.94 26.26m1.53 48.87c5.87-2.2 7.43-3.34 7.06-4.7 3.4-.95 1.32-5.24 1.32-5.24-.13-.28-.3-.67-.42-.98 1.08 1.48 2.27 2.5 3.48 2.5 5.12 0 8.5-.4 9.94-.63-1.16 4.87-2.43 10.3-4.6 16.63-7.62 22.15 15.26 49.65 24.44 58.8.36.38.7.62 1.05.96.16.33.33.63.5.95-5.53 8.25-10.8 16.42-15.7 24.3-8.53-22.55-20.62-54.85-34.16-88.8 2.2-1.43 4.52-2.85 7.1-3.82z" stroke-linecap="round" stroke-linejoin="round"/><g><path fill="#c5e8f3" d="M391.94 458.96s16.78 9.1 19.87 16.74l44.26 61.1-7.62 4.58-56.5-82.42m0-3.4c-.93 0-1.85.4-2.5 1.13-1.08 1.14-1.16 2.9-.3 4.18l56.5 82.4c.67.95 1.74 1.48 2.8 1.48.6 0 1.2-.16 1.75-.5l7.6-4.57c.84-.5 1.4-1.32 1.6-2.24.2-.93 0-1.9-.57-2.66l-44.26-61.1c-3.05-7.8-19.17-16.74-20.98-17.74-.56-.26-1.12-.4-1.66-.4z"/></g></svg>