<svg xmlns="http://www.w3.org/2000/svg" width="48" height="48" xmlns:xlink="http://www.w3.org/1999/xlink"><defs><linearGradient id="b"><stop offset="0" stop-color="#2e3436"/><stop offset="1" stop-color="#a3adb0"/></linearGradient><linearGradient><stop offset="0" stop-color="#fff"/><stop offset=".25" stop-color="#fff"/><stop offset=".375" stop-color="#a7fd7f"/><stop offset=".5" stop-color="#006efb"/><stop offset=".625" stop-color="#fdf67f"/><stop offset=".75" stop-color="#fff"/><stop offset="1" stop-color="#fff"/></linearGradient><linearGradient id="a"><stop offset="0" stop-color="#f8c29b"/><stop offset="1" stop-color="#ef2929"/></linearGradient><radialGradient id="d" cx="19.71" cy="38.738" r="7.592" xlink:href="#a" gradientUnits="userSpaceOnUse" gradientTransform="matrix(1.245 0 0 1.223 -4.832 -8.628)" fx="19.71" fy="38.738"/><linearGradient id="c" x1="24.54" x2="24.539" y1="26.299" y2="11.004" xlink:href="#b" gradientUnits="userSpaceOnUse"/></defs><g><path fill-opacity=".367" d="M.04 27.15l13.54 7.54c1.9-4.7 5.98-7.78 10.4-7.78 4.56 0 8.17 3.24 10.03 7.93l14.1-6.82-24-9.03L.04 27.15z" overflow="visible" enable-background="accumulate"/><path fill="#eaeaea" stroke="#2e3436" d="M24 11.5C13.6 11.5 4.56 17.93.6 26.87l12.27 5.45c1.86-4.25 6.12-7.2 11.05-7.2 5.1 0 9.46 3.18 11.22 7.66l12.4-5.22c-3.8-9.3-12.88-16.1-23.55-16.1z" overflow="visible" enable-background="accumulate"/></g><g fill-rule="evenodd"><path fill="#adc7e3" d="M41.8 19.57C32.1 9.64 16.9 9.02 6.2 19.43l8.73 8.78c6-4.85 12-4.3 18 .16l8.86-8.8z"/><path fill="#b5ec77" d="M10.8 15.93l6.56 10.57c4.42-2.62 9.13-1.6 13.93.5l5.84-11.2c-8.96-6-17.77-5.12-26.35.13z"/><path fill="#fdc97c" d="M19.93 25.3L15.7 13.35c5.56-1.86 11.1-2.14 16.66 0l-4.3 12.35c-2.06-1.04-6.62-.86-8.13-.4z"/><path fill="#ff8e5d" d="M21.93 25.04l-1.86-12.86c2.95-.8 5.5-.65 8.3 0l-2.08 13.07-4.37-.2z"/></g><g fill="none"><path stroke="url(#c)" d="M24 11.5C13.6 11.5 4.57 17.95.6 26.9l12.27 5.44c1.87-4.24 6.13-7.2 11.05-7.2 5.1 0 9.47 3.2 11.23 7.67l12.4-5.2C43.72 18.3 34.64 11.5 24 11.5z" overflow="visible" enable-background="accumulate"/><g stroke="#000" stroke-linecap="round"><path d="M4.42 23.65l2.87 1.73"/><path d="M8.27 19.54L10 21.46"/><path d="M12.95 16.5l1.33 2.1"/><path d="M18.76 14.43l.5 2.26"/><path d="M24.28 13.57l-.07 2.72"/><path d="M43.72 23.92l-2.86 1.72"/><path d="M39.88 19.8l-1.75 1.93"/><path d="M35.2 16.76l-1.34 2.12"/><path d="M29.4 14.7l-.5 2.25"/></g><path stroke="#fff" stroke-opacity=".502" d="M24 12.46c-9.48 0-18.35 5.72-21.96 13.85l10.4 4.75c1.7-3.86 6.93-6.82 11.42-6.82 4.66 0 10.27 3.1 11.88 7.17l10.44-4.3C42.7 18.62 33.72 12.45 24 12.45z" overflow="visible" enable-background="accumulate"/></g><g><path fill-opacity=".367" d="M31.62 41.58a6.45 6.45 0 1 1-12.9 0 6.45 6.45 0 1 1 12.9 0z" overflow="visible" enable-background="accumulate"/><path fill-opacity=".424" fill-rule="evenodd" d="M24.7 25.57l.66-7.46.56 7.68"/><path fill-opacity=".424" fill-rule="evenodd" d="M26.5 25.92l1.14 15.62-1.85 3.15-1.87-3.3 1.35-15.7"/><path fill="url(#d)" stroke="#a40000" stroke-width="1.184" d="M28.57 40.43a7 7 0 1 1-14 0 7 7 0 1 1 14 0z" transform="matrix(.844 0 0 .845 5.716 6.544)" overflow="visible" enable-background="accumulate"/><path fill-opacity=".424" fill-rule="evenodd" d="M26.36 34.7l1.28 6.63-3.5 3.7 1.07-10.5 1.16.16z"/><path fill="#ef2929" fill-rule="evenodd" stroke="#a40000" d="M22.14 40.76l2-23.15 1.72 23.3L24 44.04l-1.86-3.28z"/><path fill="#fff" fill-opacity=".572" fill-rule="evenodd" d="M24.07 43.6l-2-3.13L24.2 18.4l-.13 25.2z"/></g></svg>