<svg xmlns="http://www.w3.org/2000/svg" width="48" height="48" xmlns:xlink="http://www.w3.org/1999/xlink"><defs><linearGradient id="b"><stop offset="0" stop-color="#ffcf83"/><stop offset="1" stop-color="#f7ae00"/></linearGradient><linearGradient id="a"><stop offset="0" stop-color="#ce5c00"/><stop offset="1" stop-color="#9f4700"/></linearGradient><linearGradient x1="17.857" x2="41.286" y1="17" y2="39.571" xlink:href="#a" gradientUnits="userSpaceOnUse" gradientTransform="matrix(1.043 0 0 1.043 -1.831 -.043)"/><radialGradient cx="24.685" cy="24.541" r="21.113" xlink:href="#b" fx="24.685" fy="24.541" gradientTransform="translate(0 0)" gradientUnits="userSpaceOnUse"/></defs><g><path fill-rule="evenodd" stroke="#fff" d="M7.92 11.52v7.56H.44v5.85h7.48v7.56h5.76v-7.57h7.5v-5.85h-7.5v-7.56H7.92z" overflow="visible" enable-background="accumulate"/><g font-size="14" font-style="italic" font-family="Georgia"><path fill="none" stroke="#fff" stroke-width="1.3" d="M36.65 26.9l-.2.9c-.84.33-1.5.58-1.96.73-.47.15-.94.23-1.4.23-.76 0-1.3-.2-1.7-.58-.36-.38-.54-.86-.54-1.43 0-.2 0-.43.05-.67.05-.25.1-.54.2-.87l1.36-5.2c.1-.4.18-.76.24-1.08.06-.33.1-.6.1-.78 0-.62-.16-1.12-.45-1.48-.3-.36-.74-.54-1.33-.54-.56 0-1.2.18-1.9.56-.7.37-1.38.9-2 1.6l-2.36 10.24h-2.6l2.1-9.03c.04-.23.1-.56.2-.98.08-.42.12-.76.12-1.02 0-.52-.08-.87-.26-1.05-.18-.17-.53-.26-1.06-.26-.2 0-.47.02-.78.1-.32.06-.56.12-.74.17l.2-.9c.73-.32 1.38-.56 1.93-.72.56-.16 1.04-.24 1.44-.24.74 0 1.27.2 1.58.6.32.4.5.96.5 1.67h.1c1-.82 1.9-1.42 2.64-1.82.74-.4 1.6-.6 2.53-.6.9 0 1.6.27 2.1.78.5.52.75 1.2.75 2.03 0 .17-.03.47-.08.9-.05.42-.13.84-.24 1.26L34 23.9c-.08.3-.16.63-.24 1.02-.08.4-.12.7-.12.9 0 .53.12.9.35 1.08.22.2.6.28 1.14.28.17 0 .42-.03.75-.1.32-.05.58-.1.75-.17z" style="-inkscape-font-specification:Georgia Italic" transform="matrix(1.53 0 0 1.547 -8.978 -10.212)"/><path d="M47.1 31.4l-.32 1.4c-1.28.5-2.27.9-2.98 1.12-.7.24-1.43.36-2.16.36-1.13 0-2-.3-2.56-.9-.56-.6-.85-1.33-.85-2.2 0-.32.03-.67.1-1.05.04-.38.14-.83.26-1.35l2.08-8.04c.16-.62.28-1.18.38-1.68.1-.5.14-.9.14-1.2 0-.97-.23-1.74-.7-2.3-.44-.56-1.12-.84-2-.84-.88 0-1.85.3-2.93.86-1.08.58-2.1 1.4-3.05 2.5l-3.6 15.83h-3.97l3.17-13.96c.07-.34.18-.84.3-1.5.15-.65.2-1.18.2-1.58 0-.8-.12-1.35-.4-1.62-.26-.27-.8-.4-1.6-.4-.32 0-.72.04-1.2.15-.5.1-.87.2-1.14.26l.32-1.38c1.1-.5 2.1-.88 2.95-1.12.85-.24 1.58-.37 2.2-.37 1.12 0 1.92.3 2.4.92.5.62.74 1.47.77 2.57h.13c1.56-1.28 2.9-2.22 4.05-2.83 1.14-.6 2.43-.9 3.88-.9 1.37 0 2.43.38 3.2 1.18.77.8 1.15 1.85 1.15 3.14 0 .25-.04.7-.1 1.37-.1.66-.22 1.32-.4 1.96l-1.78 6.92c-.13.46-.25 1-.37 1.6-.12.6-.18 1.05-.18 1.38 0 .82.17 1.38.53 1.67.36.3.94.44 1.75.44.27 0 .66-.04 1.16-.14.5-.1.9-.2 1.16-.3z" style="-inkscape-font-specification:Georgia Italic"/></g></g></svg>