<svg xmlns="http://www.w3.org/2000/svg" width="48" height="48" xmlns:xlink="http://www.w3.org/1999/xlink"><defs><linearGradient id="b"><stop offset="0" stop-color="#c4a000"/><stop offset="1" stop-color="#c4a000" stop-opacity="0"/></linearGradient><linearGradient id="a"><stop offset="0" stop-color="#fff"/><stop offset="1" stop-color="#fce94f" stop-opacity="0"/></linearGradient><linearGradient id="d" x1="8.637" x2="43.588" y1="31.532" y2="27.845" xlink:href="#a" gradientUnits="userSpaceOnUse"/><linearGradient id="c" x1="24.189" x2="35.562" y1="17.12" y2="21.767" xlink:href="#b" gradientUnits="userSpaceOnUse"/></defs><g><path d="M11.4 29.16l.07 2.73L.77 39 0 36.54z"/><path d="M26.05 10.56C17 10.62 8.55 14.74 6.9 20.9c-1.62 5.97 4.23 12.17 13.67 13.16 7.8.82 15.9-2.53 17-7.93.87-4.3-3.5-8.74-10.46-9.2-5.23-.32-10.72 2.1-10.9 5.88-.06 1.32.6 2.57 1.9 3.57 1.27 1 3.37 1.7 5.67 1.54l-.5-2.96c-.7.05-1.2-.12-1.7-.5-.5-.4-.84-1.03-.82-1.53.1-1.86 3.1-3.17 5.94-3 4.16.28 6.94 3.12 6.4 5.84-.75 3.6-6.4 5.94-11.82 5.37-6.77-.7-11.1-5.3-9.9-9.7 1.4-5.3 9.73-8.65 17.7-7.66 9.35 1.17 15.23 7.53 13.4 13.6-2.13 7-13.17 11.38-23.68 9.95-4.42-.62-8.52-2.18-11.56-4.4l-3.37 2c3.68 2.68 8.6 4.57 14 5.3 12.92 1.77 26.4-3.57 29.04-12.27 2.34-7.66-5-15.64-16.98-17.13-1.3-.17-2.58-.25-3.87-.24z" style="text-indent:0;text-align:start;line-height:normal;text-transform:none;block-progression:tb;-inkscape-font-specification:Sans" color="#000" overflow="visible" enable-background="accumulate" font-family="Sans"/><path fill="#edd400" d="M26.06 8.08c-9.27.07-17.96 4.3-19.65 10.6-1.64 6.13 4.35 12.5 14.04 13.5 8 .84 16.3-2.6 17.43-8.12.9-4.4-3.57-8.98-10.72-9.43-5.37-.34-11 2.13-11.2 6.02-.05 1.34.63 2.63 1.94 3.65 1.3 1.02 3.46 1.75 5.83 1.58l-.5-3.05c-.74.06-1.24-.12-1.76-.52-.53-.4-.87-1.03-.84-1.55.1-1.9 3.16-3.26 6.1-3.07 4.26.27 7.12 3.18 6.55 5.97-.76 3.7-6.56 6.1-12.1 5.5-6.96-.7-11.4-5.43-10.18-9.94 1.46-5.43 10-8.87 18.16-7.85 9.6 1.2 15.63 7.72 13.74 13.95-2.17 7.18-13.5 11.67-24.28 10.2-4.53-.62-8.73-2.22-11.85-4.5L3.3 33.06c3.78 2.75 8.84 4.7 14.37 5.44 13.26 1.8 27.08-3.67 29.8-12.6 2.37-7.85-5.17-16.05-17.44-17.58-1.33-.16-2.65-.24-3.97-.24z" style="text-indent:0;text-align:start;line-height:normal;text-transform:none;block-progression:tb;-inkscape-font-specification:Sans" color="#000" overflow="visible" enable-background="accumulate" font-family="Sans"/><path fill="url(#c)" d="M37.87 24.06c.9-4.4-3.57-8.98-10.72-9.43-5.37-.34-11 2.13-11.2 6.02-.05 1.34.63 2.63 1.94 3.65 1.3 1.02 3.46 1.75 5.83 1.58l-.5-3.05c-.74.06-1.24-.12-1.76-.52-.53-.4-.87-1.03-.84-1.55.1-1.9 3.16-3.26 6.1-3.07 4.26.27 7.12 3.18 6.55 5.97" style="text-indent:0;text-align:start;line-height:normal;text-transform:none;block-progression:tb;-inkscape-font-specification:Sans" color="#000" overflow="visible" enable-background="accumulate" font-family="Sans"/><path fill="#edd400" d="M.3 36.35l10.64-7.02L.56 27.95z"/><path fill="url(#d)" d="M.25 36.38l.3-8.63 10.46 1.56-3.32 2.13c12.23 7.6 27.83 3.83 34.14-3.84l2.53 3.53C35.75 40 15 41.83 4.35 33.7z"/><path fill="none" stroke="#c4a000" stroke-width=".5" d="M17.67 38.5c13.26 1.8 27.08-3.67 29.8-12.6 2.37-7.85-5.17-16.05-17.44-17.58-1.33-.16-2.65-.24-3.97-.24-9.27.07-17.96 4.3-19.65 10.6-1.64 6.13 4.35 12.5 14.04 13.5 8 .84 16.3-2.6 17.43-8.12.9-4.4-3.57-8.98-10.72-9.43-5.37-.34-11 2.13-11.2 6.02-.05 1.34.63 2.63 1.94 3.65 1.3 1.02 3.46 1.75 5.83 1.58l-.5-3.05c-.74.06-1.24-.12-1.76-.52-.53-.4-.87-1.03-.84-1.55.1-1.9 3.16-3.26 6.1-3.07 4.26.27 7.12 3.18 6.55 5.97-.76 3.7-6.56 6.1-12.1 5.5-6.96-.7-11.4-5.43-10.18-9.94 1.46-5.43 10-8.87 18.16-7.85 9.6 1.2 15.63 7.72 13.74 13.95-2.17 7.18-13.5 11.67-24.28 10.2-4.16-.57-8.04-1.97-11.05-3.93l3.34-2.2L.6 27.9l-.3 8.38 4.02-2.56c3.63 2.4 8.3 4.08 13.35 4.77z" style="text-indent:0;text-align:start;line-height:normal;text-transform:none;block-progression:tb;-inkscape-font-specification:Sans" color="#000" overflow="visible" enable-background="accumulate" font-family="Sans"/></g></svg>