<svg xmlns="http://www.w3.org/2000/svg" width="48" height="48" xmlns:xlink="http://www.w3.org/1999/xlink"><defs><linearGradient id="a"><stop offset="0"/><stop offset="1" stop-opacity="0"/></linearGradient><linearGradient id="b" x1="7.302" x2="8.381" y1="1.651" y2="5.524" xlink:href="#a" gradientUnits="userSpaceOnUse" gradientTransform="matrix(1.285 .27 -.28 1.24 -4.871 -2.954)"/><linearGradient id="c" x1="7.302" x2="8.381" y1="1.651" y2="5.524" xlink:href="#a" gradientUnits="userSpaceOnUse" gradientTransform="matrix(-.367 .979 -1.015 -.355 51.482 38.77)"/></defs><g fill-rule="evenodd"><path fill="#edd400" stroke="#564600" d="M5.76.63L2.9.66l-.75 5.7C.72 12.93-1.98 26.03 6.48 36.6c8.5 10.63 31.3 11.66 34.48 10.72l6.63-.56-.33-2.64-5.84-1.95c-6.3-7-14.96-8.53-21.03-14.98-6.44-6.85-6.5-13.78-14.14-22.13L5.76.63z"/><path fill="#fdf863" d="M5.76 5.43l-1.34.93S9.6 24.56 15.1 31.03c5.5 6.46 25.94 13.1 25.94 13.1l-.07-1.37c-3.4-5.08-13.66-8.4-20.53-14.95-6.84-6.5-6.8-14.13-14.68-22.37z"/><path fill="url(#b)" d="M2.92 1.15L5.26 1l1.5 5.9-4.4.57.56-6.32z"/><path fill="url(#c)" d="M47.17 44.43l-.12 1.86-5.6.58.46-4.02 5.27 1.57z"/><path fill="#554500" d="M26.54 38.35s2.63 2.4 4.13 2.98c1.5.6 5.14.9 5.14.9s-2.87-2.28-4.3-2.86c-1.45-.6-4.96-1.02-4.96-1.02z"/><path fill="#554500" d="M21.7 39.88s1.82 1.63 2.84 2.04c1.02.4 3.52.6 3.52.6S26.1 41 25.1 40.6c-.98-.4-3.4-.7-3.4-.7z"/><path fill="#554500" d="M31.92 44.07s1.4.85 2.08.85c.67 0 2.14-.74 2.14-.74s-1.48-.7-2.13-.72c-.64 0-2.08.6-2.08.6z"/><path fill="#554500" d="M27.14 44.03s1.13 1.2 1.78 1.37c.65.17 2.26-.16 2.26-.16s-1.24-1.07-1.86-1.25c-.63-.2-2.18.03-2.18.03z"/><path fill="#554500" d="M5 8.47s-.15 1.63.15 2.23c.3.6 1.62 1.6 1.62 1.6s-.02-1.65-.3-2.23c-.3-.6-1.48-1.6-1.48-1.6z"/><path fill="#554500" d="M7.53 9.87s-.14 1.63.16 2.23c.3.6 1.6 1.6 1.6 1.6s0-1.65-.3-2.24c-.28-.58-1.47-1.6-1.47-1.6z"/><path fill="#554500" d="M4 10.63s-.42 1.58-.23 2.23c.2.65 1.3 1.85 1.3 1.85s.28-1.6.1-2.24C5 11.84 4 10.63 4 10.63z"/></g></svg>