<svg xmlns="http://www.w3.org/2000/svg" width="48" height="48" xmlns:xlink="http://www.w3.org/1999/xlink"><defs><linearGradient id="g"><stop offset="0" stop-color="#0c437e"/><stop offset="1" stop-color="#3a90ec"/></linearGradient><linearGradient id="f"><stop offset="0" stop-color="#a3c8f6"/><stop offset="1" stop-color="#1b71e2"/></linearGradient><linearGradient><stop offset="0" stop-color="#184177"/><stop offset="1" stop-color="#3465a4"/></linearGradient><linearGradient id="e"><stop offset="0" stop-color="#fff" stop-opacity=".216"/><stop offset="1" stop-color="#fff" stop-opacity="0"/></linearGradient><linearGradient id="d"><stop offset="0" stop-color="#4099f9"/><stop offset="1" stop-color="#0659b2"/></linearGradient><linearGradient id="c"><stop offset="0" stop-color="#204a87"/><stop offset="1" stop-color="#729fcf"/></linearGradient><linearGradient id="b"><stop offset="0" stop-color="#498ce1"/><stop offset="1" stop-color="#204a87"/></linearGradient><linearGradient id="a"><stop offset="0" stop-color="#8bbdfb"/><stop offset=".204" stop-color="#3b83dd"/><stop offset=".25" stop-color="#a3d0ff"/><stop offset=".375" stop-color="#a8dcff"/><stop offset=".437" stop-color="#4797ff"/><stop offset="1" stop-color="#114586"/></linearGradient><linearGradient id="i" x1="11.179" x2="37.393" y1="8.929" y2="8.929" xlink:href="#a" gradientUnits="userSpaceOnUse" gradientTransform="matrix(1.005 0 0 1.004 -.353 .675)"/><linearGradient id="j" x1="11.179" x2="37.107" y1="33.071" y2="33.071" xlink:href="#b" gradientUnits="userSpaceOnUse" gradientTransform="matrix(1.049 0 0 .689 -1.133 8.299)"/><linearGradient id="k" x1="12.015" x2="36.857" y1="39.929" y2="39.929" xlink:href="#c" gradientUnits="userSpaceOnUse"/><linearGradient x1="1.886" x2="46.501" y1="10.697" y2="35.446" xlink:href="#d" gradientUnits="userSpaceOnUse" gradientTransform="matrix(1.011 0 0 .981 -58.417 -1.98)"/><linearGradient id="n" x1="17.323" x2="16.652" y1="10.667" y2="34.345" xlink:href="#e" gradientUnits="userSpaceOnUse" gradientTransform="matrix(.718 -.263 0 .718 -3.423 11.345)"/><linearGradient id="m" x1=".714" x2="24.536" y1="16.911" y2="28.089" xlink:href="#f" gradientUnits="userSpaceOnUse" gradientTransform="matrix(1.006 0 0 1.006 -.265 -.237)"/><linearGradient id="l" x1="24.734" x2="47.825" y1="8.905" y2="34.833" xlink:href="#g" gradientUnits="userSpaceOnUse" gradientTransform="matrix(1.006 0 0 1.006 -.265 -.237)"/><radialGradient cx="24.345" cy="39.59" r="23.385" xlink:href="#h" fx="24.345" fy="39.59" gradientTransform="matrix(1 0 0 .351 0 25.695)" gradientUnits="userSpaceOnUse"/><linearGradient id="h"><stop offset="0"/><stop offset="1" stop-opacity="0"/></linearGradient><radialGradient cx="24.345" cy="39.59" r="23.385" fy="39.59" fx="24.345" gradientTransform="matrix(1 0 0 .351 0 25.695)" gradientUnits="userSpaceOnUse" xlink:href="#h"/></defs><g><path fill="url(#i)" stroke="#204a87" stroke-width=".5" d="M11.13 7.2c0-1.4 5.72-3.44 12.77-3.44 7.06 0 12.78 2.05 12.78 3.44l.3 7.38H11.12z" color="#000" overflow="visible" enable-background="accumulate"/><path fill="#3465a4" stroke="#729fcf" d="M24.52 42.7L.22 35.3l24.3-6.98 23.4 7.2z" stroke-linejoin="bevel"/><path fill="#204a87" d="M24.44 42.43l-24-7.33-.06-7.47 24-4.45z"/><path fill="url(#j)" stroke="#729fcf" stroke-width=".5" d="M10.85 26.3h26.67v9.55H10.85z" color="#000" overflow="visible" enable-background="accumulate"/><path fill="#729fcf" stroke="#a1bfdf" stroke-width=".50085" d="M37.52 35.76a13.33 2.62 0 1 1-26.67 0 13.33 2.62 0 1 1 26.67 0z" color="#000" overflow="visible" enable-background="accumulate"/><path fill="url(#k)" stroke="#204a87" stroke-width=".738" d="M36.86 39.93a12.7 2.5 0 1 1-25.43 0 12.7 2.5 0 1 1 25.43 0z" transform="matrix(.813 0 0 .564 4.557 13.244)" color="#000" overflow="visible" enable-background="accumulate"/><path fill="url(#l)" stroke="#204a87" stroke-width=".5" d="M.3 16.64l24.17-8.07L47.93 17v18.6l-23.4-7.28L.28 35.28z"/><path fill="url(#m)" d="M.52 34.92V16.86L24.48 8.8l.07 19.26z"/><path fill="url(#n)" d="M.7 35.02L.44 31.2l7.08-16.77L17.6 11.2 9.3 32.53z"/><g fill="#eeeeec"><path d="M35.64 23.85l-2.18.77c1.3 1.9 3.7 2.87 5.6 2.18.6-.22 1.1-.57 1.48-1.02.15-.2.3-.4.4-.63l2.6 1.36c-.02.07-.05.13-.08.2-.62 1.23-1.67 2.2-3.08 2.72-.04.02-.1.04-.14.05-2.7.9-5.92-.17-8.08-2.5-.4-.45-.8-.94-1.1-1.47l-2.15.77.96-4.06.32-1.38 2.36 1.3 3.1 1.73z"/><path d="M33.66 15.58c2.73-.9 5.97.2 8.13 2.56.38.43.74.9 1.05 1.4l2.13-.76-.94 4.05-.32 1.4-2.36-1.3-3.1-1.73 2.17-.78c-1.32-1.9-3.68-2.86-5.6-2.16-.6.22-1.1.57-1.47 1.02-.16.2-.3.4-.4.62l-2.6-1.35c.02-.07.06-.15.1-.22.62-1.22 1.66-2.2 3.06-2.7.04 0 .1-.03.14-.05z"/></g></g></svg>