<svg xmlns="http://www.w3.org/2000/svg" width="48" height="48" xmlns:xlink="http://www.w3.org/1999/xlink"><defs><linearGradient id="f"><stop offset="0" stop-color="#0c437e"/><stop offset="1" stop-color="#3a90ec"/></linearGradient><linearGradient id="e"><stop offset="0" stop-color="#a3c8f6"/><stop offset="1" stop-color="#1b71e2"/></linearGradient><linearGradient><stop offset="0" stop-color="#184177"/><stop offset="1" stop-color="#3465a4"/></linearGradient><linearGradient id="d"><stop offset="0" stop-color="#fff" stop-opacity=".216"/><stop offset="1" stop-color="#fff" stop-opacity="0"/></linearGradient><linearGradient><stop offset="0" stop-color="#4099f9"/><stop offset="1" stop-color="#0659b2"/></linearGradient><linearGradient id="c"><stop offset="0" stop-color="#204a87"/><stop offset="1" stop-color="#729fcf"/></linearGradient><linearGradient id="b"><stop offset="0" stop-color="#498ce1"/><stop offset="1" stop-color="#204a87"/></linearGradient><linearGradient id="a"><stop offset="0" stop-color="#8bbdfb"/><stop offset=".204" stop-color="#3b83dd"/><stop offset=".25" stop-color="#a3d0ff"/><stop offset=".375" stop-color="#a8dcff"/><stop offset=".437" stop-color="#4797ff"/><stop offset="1" stop-color="#114586"/></linearGradient><linearGradient id="h" x1="11.179" x2="37.393" y1="8.929" y2="8.929" xlink:href="#a" gradientUnits="userSpaceOnUse" gradientTransform="matrix(1.005 0 0 1.004 -.353 .675)"/><linearGradient id="i" x1="11.179" x2="37.107" y1="33.071" y2="33.071" xlink:href="#b" gradientUnits="userSpaceOnUse" gradientTransform="matrix(1.049 0 0 .689 -1.133 8.299)"/><linearGradient id="j" x1="12.015" x2="36.857" y1="39.929" y2="39.929" xlink:href="#c" gradientUnits="userSpaceOnUse"/><linearGradient id="m" x1="17.323" x2="16.652" y1="10.667" y2="34.345" xlink:href="#d" gradientUnits="userSpaceOnUse" gradientTransform="matrix(.718 -.263 0 .718 -3.423 11.345)"/><linearGradient id="l" x1=".714" x2="24.536" y1="16.911" y2="28.089" xlink:href="#e" gradientUnits="userSpaceOnUse" gradientTransform="matrix(1.006 0 0 1.006 -.265 -.237)"/><linearGradient id="k" x1="24.734" x2="47.825" y1="8.905" y2="34.833" xlink:href="#f" gradientUnits="userSpaceOnUse" gradientTransform="matrix(1.006 0 0 1.006 -.265 -.237)"/><radialGradient cx="24.345" cy="39.59" r="23.385" xlink:href="#g" fx="24.345" fy="39.59" gradientTransform="matrix(1 0 0 .351 0 25.695)" gradientUnits="userSpaceOnUse"/><linearGradient id="g"><stop offset="0"/><stop offset="1" stop-opacity="0"/></linearGradient></defs><g><path fill="url(#h)" stroke="#204a87" stroke-width=".5" d="M11.13 7.2c0-1.4 5.72-3.44 12.77-3.44 7.06 0 12.78 2.05 12.78 3.44l.3 7.38H11.12z" color="#000" overflow="visible" enable-background="accumulate"/><path fill="#3465a4" stroke="#729fcf" d="M24.52 42.7L.22 35.3l24.3-6.98 23.4 7.2z" stroke-linejoin="bevel"/><path fill="#204a87" d="M24.44 42.43l-24-7.33-.06-7.47 24-4.45z"/><path fill="url(#i)" stroke="#729fcf" stroke-width=".5" d="M10.85 26.3h26.67v9.55H10.85z" color="#000" overflow="visible" enable-background="accumulate"/><path fill="#729fcf" stroke="#a1bfdf" stroke-width=".50085" d="M37.52 35.76a13.33 2.62 0 1 1-26.67 0 13.33 2.62 0 1 1 26.67 0z" color="#000" overflow="visible" enable-background="accumulate"/><path fill="url(#j)" stroke="#204a87" stroke-width=".738" d="M36.86 39.93a12.7 2.5 0 1 1-25.43 0 12.7 2.5 0 1 1 25.43 0z" transform="matrix(.813 0 0 .564 4.557 13.244)" color="#000" overflow="visible" enable-background="accumulate"/><path fill="url(#k)" stroke="#204a87" stroke-width=".5" d="M.3 16.64l24.17-8.07L47.93 17v18.6l-23.4-7.28L.28 35.28z"/><path fill="url(#l)" d="M.52 34.92V16.86L24.48 8.8l.07 19.26z"/><path fill="url(#m)" d="M.7 35.02L.44 31.2l7.08-16.77L17.6 11.2 9.3 32.53z"/><g fill="#eeeeec" style="text-align:start;line-height:125%;-inkscape-font-specification:'Arial Black, Heavy'" font-size="19.263" font-weight="900" letter-spacing="0" word-spacing="0" font-family="Arial Black"><path d="M38.84 26.1l-3.92-1.35v-.4c0-.66.08-1.18.23-1.54.15-.35.38-.65.67-.9.3-.24.97-.6 2.02-1.12.55-.26.83-.58.83-.96 0-.37-.1-.7-.33-1-.23-.28-.56-.5-1.02-.65-.48-.17-.9-.15-1.2.06-.33.22-.53.7-.62 1.48l-4-1.86c.14-1.42.67-2.42 1.6-3 .94-.57 2.36-.53 4.3.13 1.48.52 2.7 1.25 3.6 2.2 1.26 1.26 1.9 2.6 1.9 4 0 .6-.18 1.1-.5 1.53-.32.43-.98.87-1.98 1.3-.7.32-1.13.6-1.3.88-.2.27-.28.68-.28 1.2zm-4.05-.36l4.18 1.44v3.7l-4.2-1.44z"/></g></g></svg>