<svg xmlns="http://www.w3.org/2000/svg" width="48" height="48" version="1" viewBox="0 0 612 792" enable-background="new 0 0 612 792"><path fill-opacity=".378" d="M585.68 636.8l115.73 62.8-141.64 92.78L27.62 647.22l-102.54-113.2 660.6 102.78z"/><path fill="none" stroke="#761d05" stroke-width="17.66" stroke-miterlimit="10" d="M-71.2 84.35V529.6l579.56 145.62 70-38.02V187.06L2.15 47l-73.35 37.35z" stroke-linecap="round" stroke-linejoin="round"/><path fill="#f1c7ba" stroke="#eeefed" stroke-width="5.298" stroke-miterlimit="10" d="M401.44 199.5l103.35 24.67 69.85-33.8-105.47-24.72-67.74 33.86z" stroke-linecap="round" stroke-linejoin="round"/><path fill="#821113" stroke="#d8dad9" stroke-width="5.298" stroke-miterlimit="10" d="M507.5 315.33l67.13-34.8.32-90.7-67.46 33.46v92.03z" stroke-linecap="round" stroke-linejoin="round"/><path fill="#821113" stroke="#d8dad9" stroke-width="5.298" stroke-miterlimit="10" d="M507.5 401.9l67.13-34.84.05-85.98-67.2 33.26v87.56z" stroke-linecap="round" stroke-linejoin="round"/><path fill="#821113" stroke="#d8dad9" stroke-width="5.298" stroke-miterlimit="10" d="M507.5 490.27l67.13-34.82-.27-88.35-66.87 34.25v88.92z" stroke-linecap="round" stroke-linejoin="round"/><path fill="#821113" stroke="#d8dad9" stroke-width="5.298" stroke-miterlimit="10" d="M507.5 580.98l67.13-34.83.05-91.7-67.2 35.3v91.23z" stroke-linecap="round" stroke-linejoin="round"/><path fill="#821113" stroke="#d8dad9" stroke-width="5.298" stroke-miterlimit="10" d="M507.5 670.57l67.13-35.7-.27-88.68-66.87 34.55v89.82z" stroke-linecap="round" stroke-linejoin="round"/><path fill="#f1c7ba" stroke="#eeefed" stroke-width="5.298" stroke-miterlimit="10" d="M167.65 142.65l233.8 56.86L469 165.73 235.37 108.8l-67.72 33.85z" stroke-linecap="round" stroke-linejoin="round"/><path fill="#f1c7ba" stroke="#eeefed" stroke-width="5.298" stroke-miterlimit="10" d="M-65.3 84.63l231.98 58.18 68.36-34.34-232.6-57.7-67.75 33.87z" stroke-linecap="round" stroke-linejoin="round"/><path fill="#a31d21" stroke="#e3e4e2" stroke-width="7.064" stroke-miterlimit="10" d="M339.87 361.92h-.1v88.3l-234.9-57.5v-88.25l-60.95-14.9v-88.5l-110-26.9v.05l108.78 26.6-.35 88.97 62 15.16v88.48l172.94 41.5v88.73L42.34 466.2v-.1l-108.42-26.5v.84l230.14 56.3v-.5l113.6 28.15v-87.97l229.8 56.18v-1.45l-167.6-41v-88.23z" stroke-linecap="round" stroke-linejoin="round"/><path fill="#a31d21" stroke="#e3e4e2" stroke-width="7.066" stroke-miterlimit="10" d="M507.22 581.18l-108.05-26.42.02-.1 108.04 26.44z" stroke-linecap="round" stroke-linejoin="round"/><path fill="#a31d21" stroke="#e3e4e2" stroke-width="7.064" stroke-miterlimit="10" d="M42.35 378.56l13.2 3.15-121.62-29.74v.27l108.42 26.72v-.4z" stroke-linecap="round" stroke-linejoin="round"/><path fill="#a31d21" stroke="#e3e4e2" stroke-width="7.065" stroke-miterlimit="10" d="M278.82 258.5h.1v88.04h-.1z" stroke-linecap="round" stroke-linejoin="round"/><path fill="#a31d21" stroke="#e3e4e2" stroke-width="7.064" stroke-miterlimit="10" d="M42.35 289.8l.35-88.98-108.77-26.6v89.02L42.35 289.8z" stroke-linecap="round" stroke-linejoin="round"/><path fill="#a31d21" stroke="#e3e4e2" stroke-width="7.064" stroke-miterlimit="10" d="M104.36 393.44v-88.48l-62-15.17-108.43-26.54v88.7L55.56 381.7l48.8 11.74z" stroke-linecap="round" stroke-linejoin="round"/><path fill="#a31d21" stroke="#e3e4e2" stroke-width="7.065" stroke-miterlimit="10" d="M42.1 290.04L-66.33 263.5v-.02l108.4 26.54z" stroke-linecap="round" stroke-linejoin="round"/><path fill="#a31d21" stroke="#e3e4e2" stroke-width="7.064" stroke-miterlimit="10" d="M42.35 378.95l-108.42-26.72v87.38l108.42 26.5v-87.15z" stroke-linecap="round" stroke-linejoin="round"/><path fill="#a31d21" stroke="#e3e4e2" stroke-width="7.064" stroke-miterlimit="10" d="M55.56 381.7l-13.2-3.14v87.64l234.93 57.47v-88.74l-172.94-41.5v.24l-48.8-11.96z" stroke-linecap="round" stroke-linejoin="round"/><path fill="#a31d21" stroke="#e3e4e2" stroke-width="7.064" stroke-miterlimit="10" d="M104.36 393.67v-.23l-48.8-11.73 48.8 11.97z" stroke-linecap="round" stroke-linejoin="round"/><path fill="#a31d21" stroke="#e3e4e2" stroke-width="7.064" stroke-miterlimit="10" d="M278.93 346.56l-.1-.02v.5l-173.95-42.57v88.24l234.88 57.5v-88.3l-60.83-14.88v-.46z" stroke-linecap="round" stroke-linejoin="round"/><path fill="#a31d21" stroke="#e3e4e2" stroke-width="7.064" stroke-miterlimit="10" d="M339.87 361.92v88.23l167.6 41v-88.2l-167.6-41.03z" stroke-linecap="round" stroke-linejoin="round"/><path fill="#a31d21" stroke="#e3e4e2" stroke-width="7.064" stroke-miterlimit="10" d="M400.98 288.4L278.93 258.5v88.04l60.83 14.9v.45l.1.02v-.45l167.6 40.96v-87.86L401 288.5v-.1z" stroke-linecap="round" stroke-linejoin="round"/><path fill="#a31d21" stroke="#e3e4e2" stroke-width="7.064" stroke-miterlimit="10" d="M278.93 346.56v.46l60.83 14.9v-.45l-60.83-14.9z" stroke-linecap="round" stroke-linejoin="round"/><path fill="#a31d21" stroke="#e3e4e2" stroke-width="7.064" stroke-miterlimit="10" d="M339.87 361.92l167.6 41.02v-.5l-167.6-40.97v.45z" stroke-linecap="round" stroke-linejoin="round"/><path fill="#a31d21" stroke="#e3e4e2" stroke-width="7.064" stroke-miterlimit="10" d="M277.68 524.4l121.77 30.12v.4l108.02 26.42V492.6l-229.8-56.17v87.96z" stroke-linecap="round" stroke-linejoin="round"/><path fill="#a31d21" stroke="#e3e4e2" stroke-width="7.064" stroke-miterlimit="10" d="M399.45 643.16l108.02 26.7v-88.44L399.45 555v88.16z" stroke-linecap="round" stroke-linejoin="round"/><path fill="#a31d21" stroke="#e3e4e2" stroke-width="7.064" stroke-miterlimit="10" d="M164.54 585.08l234.9 58.15v-.07l-.1-.04-.4-88.23.5.1v-.07L277.7 525.15v-.76l-113.6-28.15v.48l.46.12v88.23z" stroke-linecap="round" stroke-linejoin="round"/><path fill="#a31d21" stroke="#e3e4e2" stroke-width="7.064" stroke-miterlimit="10" d="M164.54 585.08l-.47-.14v-88.2l-230.14-56.3v88.7l230.6 56.08v-.14z" stroke-linecap="round" stroke-linejoin="round"/><path fill="#a31d21" stroke="#e3e4e2" stroke-width="7.064" stroke-miterlimit="10" d="M278.82 346.54V258.5L166.42 231v-.2l-.1-.02v.23L43.9 201.08v88.5l60.96 14.9v-.44l173.94 42.5z" stroke-linecap="round" stroke-linejoin="round"/><path fill="#a31d21" stroke="#e3e4e2" stroke-width="7.064" stroke-miterlimit="10" d="M278.82 346.54l-173.94-42.5v.43l173.94 42.56v-.5z" stroke-linecap="round" stroke-linejoin="round"/><path fill="#a31d21" stroke="#e3e4e2" stroke-width="7.064" stroke-miterlimit="10" d="M43.92 200.84l122.4 29.94v-88.5L-66.1 85.42v88.74l110 26.9v-.23z" stroke-linecap="round" stroke-linejoin="round"/><path fill="#a31d21" stroke="#e3e4e2" stroke-width="7.064" stroke-miterlimit="10" d="M278.82 258.5l.1.02v-.22L401 288.13V199.8l.34.07v-.16l-234.9-57.43v88.52l112.4 27.5v.2z" stroke-linecap="round" stroke-linejoin="round"/><path fill="#a31d21" stroke="#e3e4e2" stroke-width="7.064" stroke-miterlimit="10" d="M278.82 258.5v-.2l-112.4-27.5v.2l112.4 27.5z" stroke-linecap="round" stroke-linejoin="round"/><path fill="#a31d21" stroke="#e3e4e2" stroke-width="7.064" stroke-miterlimit="10" d="M401.32 288.2l106.15 26v-88.4l-106.15-25.93v88.33z" stroke-linecap="round" stroke-linejoin="round"/><path fill="#a31d21" stroke="#e3e4e2" stroke-width="7.064" stroke-miterlimit="10" d="M401.32 288.2v.26l-.34-.07v.1l106.5 26.07v-.37l-106.16-26z" stroke-linecap="round" stroke-linejoin="round"/><path fill="#a31d21" stroke="#e3e4e2" stroke-width="7.065" stroke-miterlimit="10" d="M400.98 288.16h.34v.27h-.34z" stroke-linecap="round" stroke-linejoin="round"/></svg>