<svg xmlns="http://www.w3.org/2000/svg" width="48" height="48" xmlns:xlink="http://www.w3.org/1999/xlink"><defs><linearGradient id="f"><stop offset="0" stop-color="#fff" stop-opacity=".712"/><stop offset=".5" stop-color="#fff" stop-opacity=".441"/><stop offset="1" stop-color="#fff" stop-opacity="0"/></linearGradient><linearGradient id="e"><stop offset="0" stop-color="#fff" stop-opacity="0"/><stop offset=".75" stop-color="#fff" stop-opacity="0"/><stop offset="1" stop-color="#c3c3c3"/></linearGradient><linearGradient id="d"><stop offset="0" stop-color="#ef2929"/><stop offset="1" stop-color="#672608"/></linearGradient><linearGradient id="c"><stop offset="0" stop-color="#ea5800"/><stop offset="1" stop-color="#8a4300"/></linearGradient><linearGradient id="b"><stop offset="0" stop-color="#fff" stop-opacity=".757"/><stop offset="1" stop-color="#fff" stop-opacity="0"/></linearGradient><linearGradient id="a"><stop offset="0"/><stop offset="1" stop-opacity="0"/></linearGradient><radialGradient id="g" cx="22.754" cy="23.479" r="21.744" xlink:href="#a" fx="22.754" fy="23.479" gradientUnits="userSpaceOnUse"/><radialGradient cx="22.249" cy="16.029" r="9.925" xlink:href="#b" fx="22.249" fy="16.029" gradientTransform="matrix(1 0 0 .967 0 .53)" gradientUnits="userSpaceOnUse"/><radialGradient id="i" cx="16.087" cy="22.682" r="21.744" xlink:href="#c" fx="16.087" fy="22.682" gradientTransform="matrix(1.244 -.004 .003 .869 -3.978 8.249)" gradientUnits="userSpaceOnUse"/><radialGradient id="h" cx="22.754" cy="23.479" r="22.244" xlink:href="#d" fx="22.754" fy="23.479" gradientUnits="userSpaceOnUse"/><radialGradient id="j" cx="22.754" cy="23.479" r="22.244" xlink:href="#e" fx="22.754" fy="23.479" gradientUnits="userSpaceOnUse"/><radialGradient id="k" cx="15.91" cy="14.715" r="1.263" xlink:href="#f" fx="15.91" fy="14.715" gradientUnits="userSpaceOnUse"/></defs><g><path fill="url(#g)" d="M44.5 23.48a21.74 21.74 0 1 1-43.5 0 21.74 21.74 0 1 1 43.5 0z" transform="matrix(1 0 0 .379 1.162 30.827)" color="#000" overflow="visible" enable-background="accumulate"/><path fill="url(#h)" d="M44.5 23.48a21.74 21.74 0 1 1-43.5 0 21.74 21.74 0 1 1 43.5 0z" transform="translate(1.414 -1.162)" color="#000" overflow="visible" enable-background="accumulate"/><path fill="url(#i)" d="M45.9 22.32c0 12-9.72 21.74-21.73 21.74-12 0-21.75-9.73-21.75-21.74C5 21.42 14.04 28.96 23.9 29c9.78.02 20.38-7.46 22-6.68z" color="#000" overflow="visible" enable-background="accumulate"/><path fill="none" stroke="#fff" stroke-opacity=".125" stroke-width=".5" d="M3.08 22.32c2.48-.9 11.26 6.64 20.82 6.67 9.5.02 19.77-7.46 21.35-6.68" color="#000" stroke-linecap="round" overflow="visible" enable-background="accumulate"/><path fill="none" stroke="#fff" stroke-opacity=".125" stroke-width=".75" d="M3.08 22.32c2.48-.9 11.26 6.64 20.82 6.67 9.5.02 19.77-7.46 21.35-6.68" color="#000" stroke-linecap="round" overflow="visible" enable-background="accumulate"/><path fill="none" stroke="#fff" stroke-opacity=".125" stroke-width="1.25" d="M3.08 22.32c2.48-.9 11.26 6.64 20.82 6.67 9.5.02 19.77-7.46 21.35-6.68" color="#000" stroke-linecap="round" overflow="visible" enable-background="accumulate"/><path fill="none" stroke="#fff" stroke-opacity=".125" stroke-width="1.6" d="M3.08 22.32c2.48-.9 11.26 6.64 20.82 6.67 9.5.02 19.77-7.46 21.35-6.68" color="#000" stroke-linecap="round" overflow="visible" enable-background="accumulate"/><path fill="url(#j)" stroke="#810000" d="M44.5 23.48a21.74 21.74 0 1 1-43.5 0 21.74 21.74 0 1 1 43.5 0z" transform="translate(1.414 -1.162)" color="#000" stroke-linejoin="bevel" overflow="visible" enable-background="accumulate"/><path fill="url(#k)" d="M17.17 14.72a1.26 1.26 0 1 1-2.52 0 1.26 1.26 0 1 1 2.52 0z" transform="matrix(8.522 -5.821 3.429 5.021 -167.963 32.987)" color="#000" overflow="visible" enable-background="accumulate"/><path fill="#fff" d="M11.87 16.07c1.97-3.76 5.15-6.28 8.63-6.87l3.04 2.53c-4.2 1.4-7.3 3.62-8.9 7.03z"/></g></svg>