<svg xmlns="http://www.w3.org/2000/svg" width="48" height="48" xmlns:xlink="http://www.w3.org/1999/xlink" version="1" viewBox="0 0 612 792" enable-background="new 0 0 612 792"><defs><linearGradient x1="317.305" x2="284.505" y1="478.203" y2="451.585" xlink:href="#a" gradientUnits="userSpaceOnUse"/><radialGradient cx="316.769" cy="487.418" r="14.081" xlink:href="#b" gradientUnits="userSpaceOnUse" gradientTransform="matrix(1.002 -.138 .137 .991 -54.511 48.375)"/><radialGradient cx="323.826" cy="500.709" r="13.057" xlink:href="#c" gradientUnits="userSpaceOnUse" fx="328.129" fy="497.971"/><radialGradient id="k" cx="314.259" cy="481.644" r="10.399" xlink:href="#d" gradientUnits="userSpaceOnUse" gradientTransform="matrix(1.011 0 0 1 -3.064 0)"/><radialGradient id="l" cx="326.5" cy="497.16" r="7.192" xlink:href="#e" gradientUnits="userSpaceOnUse" gradientTransform="matrix(1.011 0 0 1 -3.064 0)"/><radialGradient cx="293.522" cy="499.754" r="21.625" xlink:href="#f" gradientUnits="userSpaceOnUse" gradientTransform="matrix(1.006 -.103 .102 .995 -42.817 32.364)"/><radialGradient id="n" cx="302.836" cy="479.377" r="5.893" xlink:href="#g" gradientUnits="userSpaceOnUse" gradientTransform="matrix(1.011 0 0 1 -3.064 0)"/><linearGradient id="a" x1="317.305" x2="284.505" y1="478.203" y2="451.585" gradientUnits="userSpaceOnUse"><stop offset="0" stop-color="#F9A86D"/><stop offset=".101" stop-color="#FBBB89" stop-opacity=".899"/><stop offset=".227" stop-color="#FDCEA9" stop-opacity=".773"/><stop offset=".359" stop-color="#FEDFC5" stop-opacity=".641"/><stop offset=".497" stop-color="#FFEBDC" stop-opacity=".503"/><stop offset=".642" stop-color="#FFF5ED" stop-opacity=".358"/><stop offset=".802" stop-color="#FFFCF9" stop-opacity=".198"/><stop offset="1" stop-color="#fff" stop-opacity="0"/></linearGradient><radialGradient id="b" cx="316.769" cy="487.418" r="14.081" gradientTransform="matrix(1.002 -.138 .137 .991 -54.511 48.375)" gradientUnits="userSpaceOnUse"><stop offset="0" stop-color="#C6AF8E" stop-opacity=".95"/><stop offset=".11" stop-color="#C1AA89" stop-opacity=".843"/><stop offset=".234" stop-color="#B49B79" stop-opacity=".722"/><stop offset=".307" stop-color="#AA8F6D" stop-opacity=".651"/><stop offset=".34" stop-color="#A4825C" stop-opacity=".469"/><stop offset=".396" stop-color="#9C7242" stop-opacity=".161"/><stop offset=".426" stop-color="#996C39" stop-opacity="0"/></radialGradient><radialGradient id="c" cx="323.826" cy="500.709" r="13.057" fx="328.129" fy="497.971" gradientUnits="userSpaceOnUse"><stop offset="0" stop-color="#C6AF8E" stop-opacity=".8"/><stop offset=".11" stop-color="#C1AA89" stop-opacity=".711"/><stop offset=".234" stop-color="#B49B79" stop-opacity=".61"/><stop offset=".307" stop-color="#AA8F6D" stop-opacity=".55"/><stop offset=".34" stop-color="#A4825C" stop-opacity=".396"/><stop offset=".396" stop-color="#9C7242" stop-opacity=".136"/><stop offset=".426" stop-color="#996C39" stop-opacity="0"/></radialGradient><radialGradient id="d" cx="314.259" cy="481.644" r="10.399" gradientTransform="matrix(1.011 0 0 1 -3.064 0)" gradientUnits="userSpaceOnUse"><stop offset="0" stop-color="#C6AF8E" stop-opacity=".95"/><stop offset=".11" stop-color="#C1AA89" stop-opacity=".843"/><stop offset=".234" stop-color="#B49B79" stop-opacity=".722"/><stop offset=".307" stop-color="#AA8F6D" stop-opacity=".651"/><stop offset=".34" stop-color="#A4825C" stop-opacity=".469"/><stop offset=".396" stop-color="#9C7242" stop-opacity=".161"/><stop offset=".426" stop-color="#996C39" stop-opacity="0"/></radialGradient><radialGradient id="e" cx="326.5" cy="497.16" r="7.192" gradientTransform="matrix(1.011 0 0 1 -3.064 0)" gradientUnits="userSpaceOnUse"><stop offset="0" stop-color="#C6AF8E" stop-opacity=".95"/><stop offset=".116" stop-color="#C1AA89" stop-opacity=".843"/><stop offset=".248" stop-color="#B49B79" stop-opacity=".722"/><stop offset=".325" stop-color="#AA8F6D" stop-opacity=".651"/><stop offset=".353" stop-color="#A4825C" stop-opacity=".469"/><stop offset=".401" stop-color="#9C7242" stop-opacity=".161"/><stop offset=".426" stop-color="#996C39" stop-opacity="0"/></radialGradient><radialGradient id="f" cx="293.522" cy="499.754" r="21.625" gradientTransform="matrix(1.006 -.103 .102 .995 -42.817 32.364)" gradientUnits="userSpaceOnUse"><stop offset="0" stop-color="#C6AF8E" stop-opacity=".95"/><stop offset=".116" stop-color="#C1AA89" stop-opacity=".843"/><stop offset=".248" stop-color="#B49B79" stop-opacity=".722"/><stop offset=".325" stop-color="#AA8F6D" stop-opacity=".651"/><stop offset=".353" stop-color="#A4825C" stop-opacity=".469"/><stop offset=".401" stop-color="#9C7242" stop-opacity=".161"/><stop offset=".426" stop-color="#996C39" stop-opacity="0"/></radialGradient><radialGradient id="g" cx="302.836" cy="479.377" r="5.893" gradientTransform="matrix(1.011 0 0 1 -3.064 0)" gradientUnits="userSpaceOnUse"><stop offset="0" stop-color="#C6AF8E" stop-opacity=".95"/><stop offset=".116" stop-color="#C1AA89" stop-opacity=".843"/><stop offset=".248" stop-color="#B49B79" stop-opacity=".722"/><stop offset=".325" stop-color="#AA8F6D" stop-opacity=".651"/><stop offset=".353" stop-color="#A4825C" stop-opacity=".469"/><stop offset=".401" stop-color="#9C7242" stop-opacity=".161"/><stop offset=".426" stop-color="#996C39" stop-opacity="0"/></radialGradient><radialGradient id="m" cx="293.522" cy="499.754" r="21.625" xlink:href="#f" gradientUnits="userSpaceOnUse" gradientTransform="matrix(16.745 -1.713 1.693 16.56 -5534.323 -7113.983)"/><radialGradient id="j" cx="323.826" cy="500.709" r="13.057" xlink:href="#c" gradientUnits="userSpaceOnUse" fx="328.129" fy="497.971" gradientTransform="matrix(16.647 0 0 16.647 -4821.564 -7652.737)"/><radialGradient id="i" cx="316.769" cy="487.418" r="14.081" xlink:href="#b" gradientUnits="userSpaceOnUse" gradientTransform="matrix(16.673 -2.299 2.274 16.49 -5728.99 -6847.453)"/><linearGradient id="h" x1="317.305" x2="284.505" y1="478.203" y2="451.585" xlink:href="#a" gradientUnits="userSpaceOnUse" gradientTransform="matrix(16.647 0 0 16.647 -4821.564 -7652.737)"/></defs><path fill="none" stroke="#6a5533" stroke-width="16.5" stroke-miterlimit="10" d="M-29.92 614.9l-40.24-9.07-.43-8.8c-2.24-44.67-20.75-437.73 23.17-489.67 16.03-19 44-30.28 59.24-35.33C121.94 35.73 239.4 14.1 326.05 14.1c28.54 0 52 2.42 69.7 7.2 43.74 11.8 243.82 219.5 283.5 261.02l3.2 3.36v77.72s-22.7 11.8-26.17 49.6c-3.46 37.78 26.17 63.8 26.17 63.8v301.1L521.6 741.1s-10.74-15.98-43.76-23.78c-33.03-7.8-56.95.75-56.95.75L250.65 679.1s-17.15-51.45-87.2-68.8C93.4 592.97 44.72 632 44.72 632l-74.64-17.08z"/><path fill="none" stroke="#fff5d5" stroke-width="16.647" stroke-miterlimit="10" d="M392.66 32.53C327.76 15.03 173 31.2 15.54 83.1c-20.63 6.8-42 17.57-53.94 31.72-42.2 49.94-20.42 481.62-20.42 481.62l31.56 7.13 70.2 16.06s47.68-36.37 121.2-18.35c73.53 18.03 94.48 67.66 94.48 67.66l161.77 37.02s23.1-7.66 60.3.67c36 8.04 46.83 23.85 46.83 23.85l143.13 32.76V479.9s-26.54-29.12-23.76-65.54c2.78-36.43 23.94-55.84 23.94-55.84l-.18-68.25c0 .02-235.26-246.22-278-257.74z"/><path fill="#f47920" d="M671.76 290.4S15.66 134.67-9.64 153.88c-25.28 19.24-16.52 449.8-16.52 449.8l-31.56-7.1s-21.8-431.68 20.42-481.62C-25.36 100.77-3.97 90 16.64 83.22c157.46-51.9 312.23-68.1 377.1-50.57C436.5 44.17 671.77 290.4 671.77 290.4z"/><path fill="url(#h)" d="M-38 113.92c11.94-14.2 33.33-24.94 53.94-31.73 157.46-51.92 312.2-68.1 377.1-50.58 42.75 11.5 278 257.75 278 257.75S14.96 133.63-10.33 152.84"/><path fill="#fee99e" d="M671.76 290.4v67.1s-21.05 13.84-25.2 55.13c-4.14 40.9 25.2 67.28 25.2 67.28v283.46l-144.18-32.98s.5-15.7-47.15-24.8c-43.7-8.3-60.34.28-60.34.28l-162.38-37.2s-16.58-47.23-90.8-64.58C92.73 586.74 42.1 619.3 42.1 619.3l-68.26-15.6s-13.2-391.8 15.08-449.8c11.2-23 682.84 136.5 682.84 136.5z"/><path fill="none" stroke="#9e6e29" stroke-width="4.994" stroke-miterlimit="10" d="M-28.16 601.98s-13.32-391.36 14.98-449.34C-2 129.66 668.24 289.16 668.24 289.16" stroke-linecap="round" stroke-linejoin="round"/><path fill="#9e6e29" d="M672.22 357.7c-9.77-10.25-21.7-18.1-35.02-22.05 13.3 3.96 25.23 11.8 35.02 22.06z"/><path fill="#9e6e29" d="M670.9 480c-12.23-12.8-21-29.54-23.66-48.93-3.95-28.45 5.85-55.33 23.93-73.34-9.8-10.26-21.7-18.1-35.02-22.06-10-2.93-20.6-3.86-31.46-2.38-43.46 5.96-73.48 48.53-67.05 95.07 3.2 23.24 14.9 43.12 31.23 56.37 16.3 13.28 37.27 19.98 58.96 17 16.86-2.32 31.58-10.3 43.05-21.73z"/><path fill="url(#i)" d="M670.9 480c-12.23-12.8-21-29.54-23.66-48.93-3.95-28.45 5.85-55.33 23.93-73.34-9.8-10.26-21.7-18.1-35.02-22.06-10-2.93-20.6-3.86-31.46-2.38-43.46 5.96-73.48 48.53-67.05 95.07 3.2 23.24 14.9 43.12 31.23 56.37 16.3 13.28 37.27 19.98 58.96 17 16.86-2.32 31.58-10.3 43.05-21.73z"/><ellipse cx="312.988" cy="479.421" fill="#9e6e29" rx="3.52" ry="3.77" transform="matrix(16.647 0 0 16.647 -4821.564 -7652.737)"/><ellipse cx="325.888" cy="495.618" fill="#9e6e29" rx="2.437" ry="2.611" transform="matrix(16.647 0 0 16.647 -4821.564 -7652.737)"/><path fill="#9e6e29" d="M535.8 699.17c0 10.55-3.7 21.9-8.02 30.6-2.87-7.8-13.27-15.34-41.35-22.6-19.23-5-47.08-7.3-66.07-1.83-.17-1.83-.27-4.27-.27-6.16 0-34.22 25.9-62 57.85-62 31.93 0 57.85 27.76 57.85 62z"/><path fill="url(#j)" d="M535.7 699.17c0 10.55-3.7 21.9-8.04 30.6-2.86-7.8-13.27-15.34-41.35-22.6-19.22-5-47.07-7.3-66.06-1.83-.17-1.83-.27-4.27-.27-6.16 0-34.22 25.92-62 57.87-62 31.93 0 57.85 27.76 57.85 62z"/><ellipse cx="302.183" cy="478.101" fill="#9e6e29" rx="1.999" ry="2.143" transform="matrix(16.647 0 0 16.647 -4821.564 -7652.737)"/><ellipse cx="312.988" cy="479.421" fill="url(#k)" rx="3.52" ry="3.77" transform="matrix(16.647 0 0 16.647 -4821.564 -7652.737)"/><ellipse cx="325.887" cy="495.618" fill="url(#l)" rx="2.436" ry="2.611" transform="matrix(16.647 0 0 16.647 -4821.564 -7652.737)"/><path fill="#9e6e29" d="M281.77 576.13c3.5 34.3-5.82 66.7-23.7 92 17.9-25.3 27.25-57.7 23.74-92-7.3-71.68-67.55-124.35-134.52-117.52 66.94-6.8 127.18 45.88 134.5 117.53z"/><path fill="#9e6e29" d="M39.36 600.92c.58 5.76 1.65 11.33 2.9 16.8 18.63-9.4 39.6-15.84 62.1-18.13 64.85-6.64 124 22 153.7 68.54 17.9-25.32 27.22-57.7 23.7-92-7.3-71.66-67.56-124.33-134.5-117.52-66.9 6.84-115.22 70.63-107.9 142.3z"/><path fill="url(#m)" d="M39.36 600.92c.58 5.76 1.65 11.33 2.9 16.8 18.63-9.4 39.6-15.84 62.1-18.13 64.85-6.64 124 22 153.7 68.54 17.9-25.32 27.22-57.7 23.7-92-7.3-71.66-67.56-124.33-134.5-117.52-66.9 6.84-115.22 70.63-107.9 142.3z"/><ellipse cx="302.172" cy="478.114" fill="url(#n)" rx="1.996" ry="2.139" transform="matrix(16.647 0 0 16.647 -4821.564 -7652.737)"/></svg>