<svg xmlns="http://www.w3.org/2000/svg" width="48" height="48"><g fill="none"><path stroke="#fff" stroke-width="3" d="M0 10.3h47.86"/><path stroke="#fff" stroke-width="3" d="M0 37.98h47.86"/><path stroke="#fff" stroke-width="3" d="M28 37.87C32.14 49.62 37.7 49 42.67 37.8"/><path stroke="#fff" stroke-width="3" d="M5.55 10.24c4.53-11.68 9.2-10.78 13.16-.02"/><path stroke="#fff" stroke-width="3" d="M46.5 24.95c-1.2 5.62-2.5 9.8-3.8 12.94L28 37.86c-2.22-6.38-5.87-18.4-9.3-27.6l-13.15-.03c-1.38 3.55-2.74 8.4-4.05 14.7"/><path stroke="#ef2929" d="M0 10.3h47.86" stroke-dasharray="1.00000002, 1.00000002"/><path stroke="#ef2929" d="M0 37.98h47.86" stroke-dasharray="1.00000002, 1.00000002"/><path stroke="#babdb6" d="M28 37.87C32.14 49.62 37.7 49 42.67 37.8"/><path stroke="#babdb6" d="M5.55 10.24c4.53-11.68 9.2-10.78 13.16-.02"/><path stroke="#000" d="M46.5 24.95c-1.2 5.62-2.5 9.8-3.8 12.94L28 37.86c-2.22-6.38-5.87-18.4-9.3-27.6l-13.15-.03c-1.38 3.55-2.74 8.4-4.05 14.7"/></g></svg>