<svg xmlns="http://www.w3.org/2000/svg" width="48" height="48"><g fill-rule="evenodd" stroke-miterlimit="4.5" stroke-dashoffset="2.6" stroke-linecap="round"><path fill="#729fcf" stroke="#204a87" d="M.5.5h7v7h-7z" overflow="visible" enable-background="accumulate"/><path fill="#edd400" stroke="#c4a000" d="M8.5.5h7v7h-7z" overflow="visible" enable-background="accumulate"/><path fill="#729fcf" stroke="#204a87" d="M16.5.5h7v7h-7z" overflow="visible" enable-background="accumulate"/><path fill="#729fcf" stroke="#204a87" d="M24.5.5h7v7h-7z" overflow="visible" enable-background="accumulate"/><path fill="#729fcf" stroke="#204a87" d="M32.5.5h7v7h-7z" overflow="visible" enable-background="accumulate"/><path fill="#729fcf" stroke="#204a87" d="M40.5.5h7v7h-7z" overflow="visible" enable-background="accumulate"/><path fill="#edd400" stroke="#c4a000" d="M.5 8.5h7v7h-7z" overflow="visible" enable-background="accumulate"/><path fill="#fce94f" stroke="#c4a000" d="M8.5 8.5h7v7h-7z" overflow="visible" enable-background="accumulate"/><path fill="#edd400" stroke="#c4a000" d="M16.5 8.5h7v7h-7z" overflow="visible" enable-background="accumulate" color="#000"/><path fill="#729fcf" stroke="#204a87" d="M24.5 8.5h7v7h-7z" overflow="visible" enable-background="accumulate"/><path fill="#eeeeec" stroke="#babdb6" d="M32.5 8.5h7v7h-7z" overflow="visible" enable-background="accumulate"/><path fill="#eeeeec" stroke="#babdb6" d="M40.5 8.5h7v7h-7z" overflow="visible" enable-background="accumulate"/><path fill="#729fcf" stroke="#204a87" d="M.5 16.5h7v7h-7z" overflow="visible" enable-background="accumulate"/><path fill="#edd400" stroke="#c4a000" d="M8.5 16.5h7v7h-7z" overflow="visible" enable-background="accumulate" color="#000"/><path fill="#729fcf" stroke="#204a87" d="M16.5 16.5h7v7h-7z" overflow="visible" enable-background="accumulate"/><path fill="#eeeeec" stroke="#babdb6" d="M24.5 16.5h7v7h-7z" overflow="visible" enable-background="accumulate"/><path fill="#eeeeec" stroke="#babdb6" d="M32.5 16.5h7v7h-7z" overflow="visible" enable-background="accumulate"/><path fill="#eeeeec" stroke="#babdb6" d="M40.5 16.5h7v7h-7z" overflow="visible" enable-background="accumulate"/><path fill="#729fcf" stroke="#204a87" d="M.5 24.44h7v7h-7z" overflow="visible" enable-background="accumulate"/><path fill="#729fcf" stroke="#204a87" d="M8.5 24.44h7v7h-7z" overflow="visible" enable-background="accumulate"/><path fill="#729fcf" stroke="#204a87" d="M16.5 24.44h7v7h-7z" overflow="visible" enable-background="accumulate"/><path fill="#729fcf" stroke="#204a87" d="M24.5 24.44h7v7h-7z" overflow="visible" enable-background="accumulate"/><path fill="#729fcf" stroke="#204a87" d="M32.5 24.44h7v7h-7z" overflow="visible" enable-background="accumulate"/><path fill="#729fcf" stroke="#204a87" d="M40.5 24.44h7v7h-7z" overflow="visible" enable-background="accumulate"/><path fill="#729fcf" stroke="#204a87" d="M.5 32.5h7v7h-7z" overflow="visible" enable-background="accumulate"/><path fill="#8ae234" stroke="#4e9a06" d="M8.5 32.5h7v7h-7z" overflow="visible" enable-background="accumulate"/><path fill="#8ae234" stroke="#4e9a06" d="M16.5 32.5h7v7h-7z" overflow="visible" enable-background="accumulate"/><path fill="#729fcf" stroke="#204a87" d="M24.5 32.5h7v7h-7z" overflow="visible" enable-background="accumulate"/><path fill="#8ae234" stroke="#4e9a06" d="M32.5 32.5h7v7h-7z" overflow="visible" enable-background="accumulate"/><path fill="#8ae234" stroke="#4e9a06" d="M40.5 32.5h7v7h-7z" overflow="visible" enable-background="accumulate"/><path fill="#73d216" stroke="#4e9a06" d="M.5 40.5h7v7h-7z" overflow="visible" enable-background="accumulate"/><path fill="#73d216" stroke="#4e9a06" d="M8.5 40.5h7v7h-7z" overflow="visible" enable-background="accumulate"/><path fill="#73d216" stroke="#4e9a06" d="M16.5 40.5h7v7h-7z" overflow="visible" enable-background="accumulate"/><path fill="#73d216" stroke="#4e9a06" d="M24.5 40.5h7v7h-7z" overflow="visible" enable-background="accumulate"/><path fill="#73d216" stroke="#4e9a06" d="M32.5 40.5h7v7h-7z" overflow="visible" enable-background="accumulate"/><path fill="#73d216" stroke="#4e9a06" d="M40.5 40.5h7v7h-7z" overflow="visible" enable-background="accumulate"/></g></svg>