<svg xmlns="http://www.w3.org/2000/svg" width="48" height="48" xmlns:xlink="http://www.w3.org/1999/xlink"><defs><linearGradient id="e"><stop offset="0" stop-color="#729fcf"/><stop offset=".5" stop-color="#729fcf"/><stop offset="1" stop-color="#729fcf" stop-opacity="0"/></linearGradient><linearGradient id="d"><stop offset="0" stop-color="#fce94f"/><stop offset=".5" stop-color="#fce94f"/><stop offset="1" stop-color="#fce94f" stop-opacity="0"/></linearGradient><linearGradient id="c"><stop offset="0" stop-color="#fce94f"/><stop offset=".517" stop-color="#fce94f"/><stop offset="1" stop-color="#fce94f" stop-opacity="0"/></linearGradient><linearGradient id="b"><stop offset="0" stop-color="#72a0cf"/><stop offset="1" stop-color="#ffa000"/></linearGradient><linearGradient id="a"><stop offset="0" stop-color="#b87b1b"/><stop offset=".391" stop-color="#e9b96e"/><stop offset="1" stop-color="#724c11"/></linearGradient><linearGradient x1=".452" x2="8.754" y1="24.222" y2="24.222" xlink:href="#a" gradientUnits="userSpaceOnUse" gradientTransform="matrix(.956 0 0 .474 7.579 .929)"/><linearGradient x1=".452" x2="8.754" y1="24.222" y2="24.222" xlink:href="#a" gradientUnits="userSpaceOnUse" gradientTransform="matrix(.965 0 0 .297 7.508 32.645)"/><linearGradient x1=".452" x2="8.754" y1="24.222" y2="24.222" xlink:href="#a" gradientUnits="userSpaceOnUse" gradientTransform="matrix(.963 0 0 .933 39.572 -46.528)"/><linearGradient x1=".452" x2="8.754" y1="24.222" y2="24.222" xlink:href="#a" gradientUnits="userSpaceOnUse" gradientTransform="matrix(.963 0 0 .491 7.572 -23.873)"/><linearGradient x1=".452" x2="8.754" y1="24.222" y2="24.222" xlink:href="#a" gradientUnits="userSpaceOnUse" gradientTransform="matrix(.956 0 0 .474 23.452 1.056)"/><linearGradient x1=".452" x2="8.754" y1="24.222" y2="24.222" xlink:href="#a" gradientUnits="userSpaceOnUse" gradientTransform="matrix(.963 0 0 .32 7.572 -47.327)"/><linearGradient x1=".452" x2="8.754" y1="24.222" y2="24.222" xlink:href="#a" gradientUnits="userSpaceOnUse" gradientTransform="matrix(1.085 0 0 .495 23.456 -48.187)"/><linearGradient x1=".452" x2="8.754" y1="24.222" y2="24.222" xlink:href="#a" gradientUnits="userSpaceOnUse" gradientTransform="matrix(1.085 0 0 .153 23.329 -15.925)"/><linearGradient x1=".452" x2="8.754" y1="24.222" y2="24.222" xlink:href="#a" gradientUnits="userSpaceOnUse" gradientTransform="matrix(.956 0 0 .474 39.579 1.056)"/><linearGradient x1=".452" x2="8.754" y1="24.222" y2="24.222" xlink:href="#a" gradientUnits="userSpaceOnUse" gradientTransform="matrix(.965 0 0 .297 23.381 32.772)"/><linearGradient x1=".452" x2="8.754" y1="24.222" y2="24.222" xlink:href="#a" gradientUnits="userSpaceOnUse" gradientTransform="matrix(1.208 0 0 .493 30.387 15.994)"/><linearGradient x1=".452" x2="8.754" y1="24.222" y2="24.222" xlink:href="#a" gradientUnits="userSpaceOnUse" gradientTransform="matrix(1.261 0 0 .176 30.147 -.169)"/><linearGradient x1=".452" x2="8.754" y1="24.222" y2="24.222" xlink:href="#a" gradientUnits="userSpaceOnUse" gradientTransform="matrix(.965 0 0 .297 39.508 32.772)"/><linearGradient x1=".452" x2="8.754" y1="24.222" y2="24.222" xlink:href="#a" gradientUnits="userSpaceOnUse" gradientTransform="matrix(1.049 0 0 .499 15.09 15.936)"/><linearGradient x1=".452" x2="8.754" y1="24.222" y2="24.222" xlink:href="#a" gradientUnits="userSpaceOnUse" gradientTransform="matrix(1.167 0 0 .168 14.545 .022)"/><linearGradient x1=".452" x2="8.754" y1="24.222" y2="24.222" xlink:href="#a" gradientUnits="userSpaceOnUse" gradientTransform="matrix(1.167 0 0 .168 -1.391 -.041)"/><linearGradient x1=".452" x2="8.754" y1="24.222" y2="24.222" xlink:href="#a" gradientUnits="userSpaceOnUse" gradientTransform="matrix(1.069 0 0 .496 -.528 15.933)"/><radialGradient cx="20.803" cy="24.984" r="20.594" xlink:href="#b" gradientUnits="userSpaceOnUse" gradientTransform="matrix(.958 0 0 1.064 1.415 -2.063)" fx="20.803" fy="24.984"/><radialGradient cx="21.096" cy="19.977" r="12.422" xlink:href="#c" fx="21.096" fy="19.977" gradientTransform="matrix(.44 .807 -1.58 .86 45.695 -15.474)" gradientUnits="userSpaceOnUse" spreadMethod="pad"/><radialGradient id="g" cx="17.143" cy="20.635" r="16.825" xlink:href="#d" fx="17.143" fy="20.635" gradientUnits="userSpaceOnUse"/><radialGradient id="f" cx="17.143" cy="20.635" r="16.825" xlink:href="#e" gradientUnits="userSpaceOnUse" fx="17.143" fy="20.635"/></defs><g fill-rule="evenodd"><path fill="url(#f)" d="M33.97 20.63a16.83 16.83 0 1 1-33.65 0 16.83 16.83 0 1 1 33.65 0z" transform="matrix(1.043 0 0 1.043 12.685 2.184)" overflow="visible" enable-background="accumulate"/><path fill="url(#g)" d="M33.97 20.63a16.83 16.83 0 1 1-33.65 0 16.83 16.83 0 1 1 33.65 0z" transform="matrix(1.013 0 0 1.013 -.449 2.807)" overflow="visible" enable-background="accumulate"/><path fill="url(#f)" d="M33.97 20.63a16.83 16.83 0 1 1-33.65 0 16.83 16.83 0 1 1 33.65 0z" transform="matrix(1.043 0 0 1.043 12.685 2.184)" opacity=".356" overflow="visible" enable-background="accumulate"/></g></svg>