<svg xmlns="http://www.w3.org/2000/svg" width="48" height="48" xmlns:xlink="http://www.w3.org/1999/xlink"><defs><linearGradient id="i"><stop offset="0" stop-color="#856c00"/><stop offset="1" stop-color="#3b3000"/></linearGradient><linearGradient id="h"><stop offset="0" stop-opacity=".502"/><stop offset="1" stop-opacity="0"/></linearGradient><linearGradient id="g"><stop offset="0" stop-color="#fff"/><stop offset=".5" stop-color="#fce94f"/><stop offset="1" stop-color="#fbca08"/></linearGradient><linearGradient id="f"><stop offset="0" stop-opacity=".477"/><stop offset="1" stop-opacity="0"/></linearGradient><linearGradient id="e"><stop offset="0" stop-color="#fce94f"/><stop offset="1" stop-color="#ad9a02"/></linearGradient><linearGradient id="d"><stop offset="0" stop-color="#fef5ac"/><stop offset="1" stop-color="#feed69"/></linearGradient><linearGradient id="c"><stop offset="0" stop-color="#fce94f"/><stop offset="1" stop-color="#8d7e02"/></linearGradient><linearGradient id="b"><stop offset="0" stop-opacity=".234"/><stop offset="1" stop-opacity="0"/></linearGradient><linearGradient id="a"><stop offset="0" stop-opacity=".57"/><stop offset="1" stop-opacity="0"/></linearGradient><radialGradient cx="23.238" cy="34.093" r="13.651" xlink:href="#a" fx="23.238" fy="34.093" gradientTransform="matrix(.949 -.005 .001 .279 1.142 30.157)" gradientUnits="userSpaceOnUse"/><radialGradient cx="23.238" cy="34.093" r="13.651" xlink:href="#a" gradientUnits="userSpaceOnUse" gradientTransform="matrix(.949 -.005 .001 .279 1.142 30.157)" fx="23.238" fy="34.093"/><linearGradient id="u" x1="25.651" x2="26.603" y1="34.952" y2="39.079" xlink:href="#b" gradientUnits="userSpaceOnUse"/><radialGradient id="m" cx="7.456" cy="22.542" r="10.189" xlink:href="#c" fx="7.456" fy="22.542" gradientTransform="matrix(1.081 .017 -.009 .615 -.391 10.888)" gradientUnits="userSpaceOnUse"/><radialGradient id="k" cx="7.456" cy="22.542" r="10.189" xlink:href="#c" gradientUnits="userSpaceOnUse" gradientTransform="matrix(1.081 .017 -.009 .615 27.355 10.888)" fx="7.456" fy="22.542"/><radialGradient id="t" cx="19.023" cy="30.265" r="13.778" xlink:href="#d" fx="19.023" fy="30.265" gradientTransform="matrix(1.244 -.01 .003 .42 -4.733 21.874)" gradientUnits="userSpaceOnUse"/><radialGradient id="r" cx="23.238" cy="34.093" r="13.651" xlink:href="#a" gradientUnits="userSpaceOnUse" gradientTransform="matrix(.949 -.005 .001 .279 1.968 28.062)" fx="23.238" fy="34.093"/><linearGradient id="p" x1="9.482" x2="38.732" y1="37.905" y2="37.905" xlink:href="#e" gradientUnits="userSpaceOnUse"/><radialGradient id="j" cx="24.095" cy="41.492" r="23.968" xlink:href="#f" fx="24.095" fy="41.492" gradientTransform="matrix(1 0 0 .269 0 30.336)" gradientUnits="userSpaceOnUse"/><radialGradient id="w" cx="11.508" cy="36.459" r="12.156" xlink:href="#g" fx="11.508" fy="36.459" gradientTransform="matrix(1.455 .007 -.003 .591 -5.137 10.493)" gradientUnits="userSpaceOnUse"/><radialGradient id="o" cx="11.583" cy="36.836" r="12.156" xlink:href="#g" fx="11.583" fy="36.836" gradientTransform="matrix(1.53 -.029 .012 .666 -6.585 8.042)" gradientUnits="userSpaceOnUse"/><radialGradient id="v" cx="27.746" cy="4.159" r="1.397" xlink:href="#h" fx="27.746" fy="4.159" gradientTransform="matrix(1.727 0 0 2.75 -20.179 -7.278)" gradientUnits="userSpaceOnUse"/><linearGradient id="q" x1="9.482" x2="38.732" y1="37.905" y2="37.905" xlink:href="#i" gradientUnits="userSpaceOnUse"/><linearGradient id="l" x1="27.744" x2="48.121" y1="27.731" y2="27.731" xlink:href="#i" gradientUnits="userSpaceOnUse" gradientTransform="translate(0 -.571)"/><linearGradient id="n" x1="-.002" x2="20.375" y1="27.731" y2="27.731" xlink:href="#i" gradientUnits="userSpaceOnUse" gradientTransform="translate(0 -.571)"/><linearGradient id="s" x1="24.045" x2="24.045" y1=".105" y2="7.881" xlink:href="#i" gradientUnits="userSpaceOnUse"/></defs><g><path fill="url(#j)" fill-rule="evenodd" d="M48.06 41.5a23.97 6.44 0 1 1-47.93 0 23.97 6.44 0 1 1 47.93 0z" transform="matrix(1 0 0 1.217 0 -10.39)" overflow="visible" enable-background="accumulate"/><path fill="url(#k)" fill-rule="evenodd" stroke="url(#l)" d="M47.62 23.17c0 2-4.36 3.6-9.7 3.6-5.34 0-9.68-1.6-9.68-3.6 0 4.4 4.34 7.98 9.68 7.98s9.7-3.58 9.7-7.98z" stroke-linecap="round" overflow="visible" enable-background="accumulate"/><path fill="url(#m)" fill-rule="evenodd" stroke="url(#n)" d="M19.88 23.17c0 2-4.37 3.6-9.7 3.6-5.35 0-9.68-1.6-9.68-3.6 0 4.4 4.33 7.98 9.67 7.98s9.7-3.58 9.7-7.98z" stroke-linecap="round" overflow="visible" enable-background="accumulate"/><path fill="url(#o)" fill-rule="evenodd" stroke="#856c00" stroke-width="1.201" d="M18.67 29.1a11.56 4.35 0 1 1-23.1 0 11.56 4.35 0 1 1 23.1 0z" transform="matrix(.838 0 0 .828 4.23 -.915)" stroke-linecap="round" overflow="visible" enable-background="accumulate"/><path fill="url(#p)" fill-rule="evenodd" stroke="url(#q)" d="M24.1 31.7C16.3 31.7 10 33.72 10 36.24c.84 1.6.55 1.7 0 3.3 0 2.53 6.33 4.57 14.13 4.57 7.8 0 14.13-2.04 14.13-4.56-.87-1.63-.58-1.67 0-3.3 0-2.53-6.33-4.57-14.12-4.57z" stroke-linecap="round" overflow="visible" enable-background="accumulate"/><path fill="url(#r)" fill-rule="evenodd" d="M10.4 36.2c9.1 4.27 18.2 4 27.3 0l-.6 2.27c-8.07 3.42-16.75 3.68-26.18 0l-.5-2.28z"/><path fill="#fce94f" fill-rule="evenodd" stroke="url(#s)" d="M24.04 5.8c5.13 0 11.3.27 15.5 1.5 1.76.52 3.34-1.5 3.34-3.34 0-1.84-1.54-3.64-3.34-3.32-6.07 1.1-9.78 1.9-15.5 1.9-5.7 0-9.42-.8-15.5-1.9-1.8-.32-3.33 1.48-3.33 3.32 0 1.84 1.6 3.86 3.35 3.34 4.2-1.23 10.37-1.5 15.5-1.5zM8.46 2.6c.7 0 1.25.56 1.25 1.26s-.54 1.28-1.24 1.28-1.28-.58-1.28-1.28c0-.7.58-1.25 1.28-1.25zm31.17 0c-.7 0-1.25.56-1.25 1.26s.55 1.28 1.25 1.28 1.28-.58 1.28-1.28c0-.7-.57-1.25-1.27-1.25z" stroke-linecap="round" overflow="visible" enable-background="accumulate"/><path fill="url(#t)" fill-rule="evenodd" d="M37.84 36.13a13.78 4.06 0 1 1-27.55 0 13.78 4.06 0 1 1 27.54 0z" transform="matrix(.945 0 0 .881 1.331 3.713)" overflow="visible" enable-background="accumulate"/><path fill="url(#u)" fill-rule="evenodd" d="M23.56 35.75l7.23 2.92 6.15-2.1-10.22-2.67-3.17 1.85z"/><path fill="url(#v)" fill-rule="evenodd" d="M27.37 2.3l2.4-.08c.5 1.2.54 2.5 0 3.88l-2.1-.07-.3-3.74z"/><path fill="#fce94f" fill-rule="evenodd" stroke="#745900" d="M24 .56c-2.28 0-4.13 1.85-4.13 4.13 0 .6.13 1.2.38 1.74 1.97 2.85 2.23 8.47 2.17 12.47-.07 4-.96 12.52-.58 15.26.2.73 1.13 1.15 2.25 1.15 1.1 0 2.05-.4 2.24-1.14.38-2.74-.67-11.2-.5-15.25.15-4.04.3-9.56 1.9-12.46.25-.53.38-1.13.38-1.75 0-2.3-1.85-4.14-4.12-4.14z" stroke-linecap="round" overflow="visible" enable-background="accumulate"/><path fill="none" stroke="#7a6300" d="M9.02 4L.52 23.3" stroke-linecap="round"/><path fill="none" stroke="#7a6300" d="M9.14 3.68l1.46 22.8" stroke-linecap="round"/><path fill="none" stroke="#7a6300" d="M11.68 6.8l3.56 13.26" stroke-linecap="round"/><path fill="url(#w)" fill-rule="evenodd" stroke="#856c00" stroke-width="1.201" d="M18.67 29.1a11.56 4.35 0 1 1-23.1 0 11.56 4.35 0 1 1 23.1 0z" transform="matrix(.838 0 0 .828 31.921 -.915)" stroke-linecap="round" overflow="visible" enable-background="accumulate"/><path fill="none" stroke="#7a6300" d="M39.3 4l8.5 19.3" stroke-linecap="round"/><path fill="none" stroke="#7a6300" d="M39.17 3.68l-1.33 22.86" stroke-linecap="round"/><path fill="none" stroke="#7a6300" d="M36.63 6.8L33.03 20" stroke-linecap="round"/><path fill="#fff" fill-rule="evenodd" stroke="#856c00" d="M26.48 4.73a2.44 2.44 0 1 1-4.9 0 2.44 2.44 0 1 1 4.9 0z" stroke-linecap="round" overflow="visible" enable-background="accumulate"/></g></svg>