<svg xmlns="http://www.w3.org/2000/svg" width="48" height="48" version="1" viewBox="0 0 612 792" enable-background="new 0 0 612 792"><defs><linearGradient><stop offset="0" stop-color="#c4c4c4"/><stop offset=".087" stop-color="#606060"/><stop offset=".228" stop-color="#fff"/><stop offset=".497" stop-color="#bfbfbf"/><stop offset=".603" stop-color="#717171"/><stop offset=".723" stop-color="#969696"/><stop offset="1" stop-color="#969696"/></linearGradient><linearGradient><stop offset="0" stop-color="#c4c4c4"/><stop offset=".164" stop-color="#606060"/><stop offset=".356" stop-color="#fff"/><stop offset=".576" stop-color="#bfbfbf"/><stop offset=".715" stop-color="#717171"/><stop offset=".787" stop-color="#969696"/><stop offset="1" stop-color="#969696"/></linearGradient><linearGradient><stop offset="0" stop-color="#fff"/><stop offset="1" stop-color="#fff" stop-opacity="0"/></linearGradient><linearGradient><stop offset="0" stop-color="#464648"/><stop offset=".5" stop-color="#464648"/><stop offset="1" stop-color="#464648"/></linearGradient><linearGradient><stop offset="0" stop-color="#656565"/><stop offset="1" stop-color="#232323"/></linearGradient></defs><path fill="none" stroke="#465e76" stroke-width="22.73" stroke-miterlimit="10" d="M-71.87 471l.54-312.6.03-16.1 12.87-4.56 52.88-18.02 4.73 2.88c11.56 6.98 27.7 14.46 33.3 14.46 8.26-1.03 71.94-23.85 124.7-44.74v-31l56.4-19.2L680 233.26l12.36 4.53.04 376.6-61.1 30.05-12.04-8.38c-7.34-4.7-15.95-8.85-21.24-8.85-2.2.23-19.7 4.06-122.2 55.57v27.53l-68.35 29.83L-71.87 471z" stroke-linecap="round" stroke-linejoin="round"/><path fill="none" stroke="#eef1f5" stroke-width="17.485" stroke-miterlimit="10" d="M169.1 69.8v30.58c-47.42 19-127.66 48.55-136.6 48.55-12.75 0-39.45-16.2-39.45-16.2l-52.1 17.78-.36-.15v.26l-.3.12.3.12-.57 313.04 467.98 263 55.9-24.4V675.4c41.94-21.16 120.97-60.15 134.12-60.15 13.46 0 31.52 13.34 33.13 14.5v.4l49.38-23.35V246.23l-.04.02-467.3-191.5-44.1 15.06" stroke-linecap="round" stroke-linejoin="round"/><path fill="none" d="M409.74 368.4L-57.64 151.43l-.58 313.54 467.96 263V368.4z"/><path fill="#e1e7ef" d="M682.26 247.37L633.6 271.8s-22.17-15.97-38.98-15.97c-16.83 0-159.75 64-159.75 73.07 0 9.06 30.3 14.3 30.3 14.3l-55.78 25.18L-57.97 151.8l52.76-17.97s26.68 16.2 39.44 16.2C47 150.02 205.56 89.58 205.56 86c0-3.58-34.73-15.12-34.73-15.12l44.1-15 467.33 191.5z"/><path fill="#b3bdcc" d="M331.23 139.75c19.75 13.13 18.6 26.65-2.46 35.4l-96.53 39.28c-21.05 8.76-46.97 7.92-70.83-6.02l-47.92-23c-21.37-12.83-4.4-24.88 16.68-33.64l95.9-36.17c21.02-8.75 31.8-7.1 61.7 5.7l43.47 18.45z"/><path fill="#b3bdcc" d="M511.3 218.66c20.36 13.53 19.17 27.47-2.54 36.46L409.4 298.3c-21.67 9-49.47 3.52-77.6-8.83l-45.47-21.33c-22-13.22-5.84-27.1 15.85-36.1l93.84-39.9c21.68-9 36.7-8.97 67.54 4.23l47.75 22.3z"/><path fill="#717f8f" d="M465.7 703.56l-55.96 24.4V368.1L465.7 343v360.56z"/><path fill="#717f8f" d="M682.26 607.9l-49.38 23.36V272.02l49.38-24.68V607.9z"/><path fill="#717f8f" d="M633.1 271.74c-.73-.5-21.83-15.87-38.88-15.87-17.3 0-159.76 64.03-159.76 73.07 0 9.04 30.36 14.3 30.36 14.3l-1.9.87 2.35-1.05V676.7c41.84-21.13 121.3-60.35 134.5-60.35 13.56 0 31.97 13.64 33.2 14.56V271.8l.12-.06z"/><path fill="#b3bdcc" d="M409.74 727.97l-467.96-263 .58-313.54L409.74 368.4v359.57z"/><path fill="#b3bdcc" d="M170.83 70.88s30.97 10.74 33.13 13.2c2.12 2.48 1.23 2.22-1.6 4l-31.53 13.36V70.88z"/><path fill="#717f8f" d="M462.47 196.37c-23.86-9.57-35.56-17.52-60.33-7.45-35.1 14.27-100.33 43.24-110.07 47.8-16.98 7.94-24.23 21.58-3.18 33.43 25.46 14.34 40.25 18.34 64.75 28.14 26.56 10.62 50.97 4.25 76.97-9.04 12.06-6.17 30.18-14.72 31.4-13.8l1-78.83-.55-.26z"/><path fill="#b3bdcc" d="M632.88 630.63s-20.7-12.48-24.93-13V258.5c11.13 2.9 24.93 13.52 24.93 13.52v358.6z"/><path fill="#b3bdcc" d="M462.75 275.2L437 286.37l-.68-100.33c4.4.97 26.7 10.36 26.7 10.36l-.27 78.8z"/><path fill="#717f8f" d="M289.43 122.04c-23.88-9.55-35.56-17.52-60.36-7.43-35.1 14.28-93.98 35.03-103.84 39.3-23.73 10.26-30.96 21.94-7.78 33.97 27.26 14.16 39.27 19.92 64.06 29.04 20.16 7.44 43.88 2.85 75.72-13.17 12.12-6.1 30.18-13.4 31.42-12.47l1.33-68.94-.54-.28z"/><path fill="#b3bdcc" d="M289.34 190.98l-25.75 10.7-.36-89.97c4.4.97 26.7 10.36 26.7 10.36l-.6 68.92z"/><path fill="none" stroke="#284964" stroke-width="6.992000000000001" stroke-miterlimit="10" d="M461.78 701.7l.36-355.1-48.64 24.04" stroke-linecap="round" stroke-linejoin="round"/><path fill="none" stroke="#767c90" stroke-width="1.399" stroke-miterlimit="10" d="M319.7 325.1V559.7"/><path fill="none" stroke="#767c90" stroke-width="1.399" stroke-miterlimit="10" d="M248.3 294.5V363"/><path fill="none" stroke="#767c90" stroke-width="1.399" stroke-miterlimit="10" d="M9.36 182.3v128.22"/><ellipse cx="289.784" cy="394.833" fill="#8192a7" rx=".182" ry=".75" transform="matrix(17.485 0 0 17.485 -5037.88 -6534.713)"/><ellipse cx="291.958" cy="399.959" fill="#8192a7" rx=".182" ry=".75" transform="matrix(17.485 0 0 17.485 -5037.88 -6534.713)"/><ellipse cx="295.625" cy="392.167" fill="#8192a7" rx=".182" ry=".75" transform="matrix(17.485 0 0 17.485 -5037.88 -6534.713)"/><ellipse cx="304.359" cy="395.708" fill="#8192a7" rx=".182" ry=".75" transform="matrix(17.485 0 0 17.485 -5037.88 -6534.713)"/><ellipse cx="304.943" cy="400.459" fill="#8192a7" rx=".182" ry=".75" transform="matrix(17.485 0 0 17.485 -5037.88 -6534.713)"/><ellipse cx="305.5" cy="402.667" fill="#8192a7" rx=".182" ry=".75" transform="matrix(17.485 0 0 17.485 -5037.88 -6534.713)"/><ellipse cx="308.583" cy="402.209" fill="#8192a7" rx=".183" ry=".75" transform="matrix(17.485 0 0 17.485 -5037.88 -6534.713)"/><ellipse cx="307.958" cy="408.042" fill="#8192a7" rx=".183" ry=".75" transform="matrix(17.485 0 0 17.485 -5037.88 -6534.713)"/><ellipse cx="304.334" cy="404.417" fill="#8192a7" rx=".182" ry=".75" transform="matrix(17.485 0 0 17.485 -5037.88 -6534.713)"/><ellipse cx="325.25" cy="391.5" fill="#3d5f79" rx=".182" ry=".75" transform="matrix(17.485 0 0 17.485 -5037.88 -6534.713)"/><ellipse cx="326.333" cy="399.417" fill="#3d5f79" rx=".182" ry=".75" transform="matrix(17.485 0 0 17.485 -5037.88 -6534.713)"/><ellipse cx="316.735" cy="407.834" fill="#3d5f79" rx=".182" ry=".75" transform="matrix(17.485 0 0 17.485 -5037.88 -6534.713)"/><ellipse cx="317.417" cy="406.167" fill="#3d5f79" rx=".182" ry=".75" transform="matrix(17.485 0 0 17.485 -5037.88 -6534.713)"/><ellipse cx="313.5" cy="399.25" fill="#3d5f79" rx=".182" ry=".75" transform="matrix(17.485 0 0 17.485 -5037.88 -6534.713)"/><ellipse cx="311.333" cy="393.167" fill="#c7cdd8" transform="matrix(7.751 15.673 -15.673 7.751 4154.53 -7587.215)" rx=".25" ry=".75"/><ellipse cx="319.333" cy="387" fill="#c7cdd8" transform="matrix(8.807 15.105 -15.105 8.807 3578.759 -7999.836)" rx=".25" ry=".75"/><ellipse cx="323.333" cy="387.167" fill="#c7cdd8" transform="matrix(8.05 15.521 -15.521 8.05 4021.726 -7900.582)" rx=".25" ry=".75"/><ellipse cx="302.583" cy="388.083" fill="#c7cdd8" transform="matrix(7.887 15.605 -15.605 7.887 3921.852 -7531.906)" rx=".25" ry=".75"/><ellipse cx="300.5" cy="380" fill="#c7cdd8" transform="matrix(7.214 15.927 -15.927 7.214 4101.031 -7417.798)" rx=".25" ry=".75"/><path fill="none" stroke="#133c57" stroke-width="1.399" stroke-miterlimit="10" d="M498.93 293.06V527.6"/><path fill="none" stroke="#133c57" stroke-width="1.399" stroke-miterlimit="10" d="M535.35 277.02v153"/><path fill="none" stroke="#133c57" stroke-width="1.399" stroke-miterlimit="10" d="M373.62 201.25v43.7"/><path fill="none" stroke="#133c57" stroke-width="1.399" stroke-miterlimit="10" d="M198.77 125.48v93.25"/><path fill="none" stroke="#133c57" stroke-width="1.399" stroke-miterlimit="10" d="M181.3 132.78v40.8"/><path fill="none" stroke="#43556d" stroke-width="1.399" stroke-miterlimit="10" d="M449.38 191.05v59.73"/><path fill="none" stroke="#43556d" stroke-width="1.399" stroke-miterlimit="10" d="M472.7 211.46v59.72"/><path fill="none" stroke="#43556d" stroke-width="1.399" stroke-miterlimit="10" d="M308.05 129.86V159"/></svg>