<svg xmlns="http://www.w3.org/2000/svg" width="48" height="48"><g stroke="#fff"><path d="M13.12 35.93H8.16V14.1l-6.04 4.12-1.7-3.63 7.92-5.55h4.78v26.88z" style="-inkscape-font-specification:Frutiger Linotype" font-size="14" font-family="Frutiger Linotype"/><path d="M47.4 22.5c0 3.9-1.2 7.2-3.55 9.9-2.42 2.78-5.44 4.17-9.05 4.17-3.65 0-6.7-1.4-9.1-4.17-2.35-2.7-3.53-6-3.53-9.9 0-4 1.1-7.3 3.27-9.92C27.77 9.8 30.9 8.4 34.8 8.4c3.9 0 7 1.4 9.3 4.2 2.2 2.63 3.3 5.92 3.3 9.9zm-5.28 0c0-2.47-.6-4.62-1.77-6.47-1.4-2.17-3.24-3.25-5.55-3.25-2.33 0-4.2 1.08-5.58 3.22-1.2 1.86-1.8 4.02-1.8 6.5 0 2.53.58 4.7 1.75 6.5 1.35 2.13 3.23 3.2 5.63 3.2 2.38 0 4.24-1.04 5.58-3.12 1.16-1.8 1.74-3.98 1.74-6.6z" style="-inkscape-font-specification:Frutiger Linotype" font-size="14" font-family="Frutiger Linotype"/><path fill-rule="evenodd" stroke-width=".9984000000000001" stroke-dashoffset="2.6" d="M23.2 32.38a3.85 3.85 0 1 1-7.7 0 3.85 3.85 0 1 1 7.7 0z" stroke-linecap="round" overflow="visible" enable-background="accumulate"/></g></svg>