<svg xmlns="http://www.w3.org/2000/svg" width="48" height="48"><g fill-rule="evenodd"><path fill="#eeeeec" stroke="#000" stroke-width="1.5" d="M47.2 10.23l.06 5.76-6.2 3.33v6.8l-6.5 3.52v7.22l-5.4 2.92v7.44c-.47.1-28.3-9.1-28.3-9.14v-7.5l5.4-2.9v-7.24l6.5-3.5v-6.8l6.2-3.36V1.05l28.24 9.18z"/><path fill="#fff" d="M19.7 7.24l26.87 8.38-.2-4.76L19.53 2.1l.2 5.14z"/><path fill="#d3d7cf" d="M13.52 17.24l26.77 8.28-.1-6.57-26.87-8.47.2 6.76z"/><path fill="#babdb6" d="M7.05 28l26.85 8.3-.2-7.06-26.84-8.3.2 7.06z"/><path fill="#888a85" d="M1.52 37.62l26.96 8.86-.1-6.58-26.86-8.85v6.57z"/></g></svg>