<svg xmlns="http://www.w3.org/2000/svg" width="48" height="48" xmlns:xlink="http://www.w3.org/1999/xlink"><defs><linearGradient id="a"><stop offset="0" stop-color="#ff1919"/><stop offset="1" stop-color="#ffa519"/></linearGradient><linearGradient id="c" x1="16.777" x2="10.844" y1="349.078" y2="366.527" gradientUnits="userSpaceOnUse" gradientTransform="translate(-.186 -343.02)"><stop offset="0" stop-color="#fff"/><stop offset="1" stop-color="#737B87"/></linearGradient><linearGradient id="d" x1="27.872" x2="15.336" y1="354.291" y2="350.584" gradientUnits="userSpaceOnUse" gradientTransform="translate(-.186 -343.02)"><stop offset="0" stop-color="#fff"/><stop offset="1" stop-color="#737B87"/></linearGradient><linearGradient id="e" x1="28.071" x2="24.375" y1="347.351" y2="348.884" gradientUnits="userSpaceOnUse" gradientTransform="translate(-.186 -343.02)"><stop offset="0" stop-color="#fff"/><stop offset="1" stop-color="#737B87"/></linearGradient><linearGradient id="f" x1="30.801" x2="23.71" y1="344.193" y2="347.678" gradientUnits="userSpaceOnUse" gradientTransform="translate(-.186 -343.02)"><stop offset="0" stop-color="#fff"/><stop offset="1" stop-color="#737B87"/></linearGradient><linearGradient id="g" x1="27.349" x2="20.13" y1="352.438" y2="346.832" gradientUnits="userSpaceOnUse" gradientTransform="translate(-.186 -343.02)"><stop offset="0" stop-color="#fff"/><stop offset="1" stop-color="#737B87"/></linearGradient><linearGradient id="h" x1="22.72" x2="16.951" y1="354.561" y2="345.547" gradientUnits="userSpaceOnUse" gradientTransform="translate(-.186 -343.02)"><stop offset="0" stop-color="#fff"/><stop offset="1" stop-color="#737B87"/></linearGradient><linearGradient id="i" x1="28.182" x2="31.786" y1="347.035" y2="348.747" gradientUnits="userSpaceOnUse" gradientTransform="translate(-.186 -343.02)"><stop offset="0" stop-color="#41464C"/><stop offset="1" stop-color="#737B87"/></linearGradient><linearGradient id="j" x1="27.218" x2="21.218" y1="345.949" y2="352.572" gradientUnits="userSpaceOnUse" gradientTransform="translate(-.186 -343.02)"><stop offset="0" stop-color="#fff"/><stop offset="1" stop-color="#737B87"/></linearGradient><linearGradient id="k" x1="21.192" x2="2.079" y1="350.923" y2="348.76" gradientUnits="userSpaceOnUse"><stop offset="0" stop-color="#fff"/><stop offset="1" stop-color="#737B87"/></linearGradient><linearGradient id="l" x1="27.417" x2="16.773" y1="350.748" y2="358.262" gradientUnits="userSpaceOnUse" gradientTransform="translate(-.186 -343.02)"><stop offset="0" stop-color="#fff"/><stop offset="1" stop-color="#737B87"/></linearGradient><linearGradient id="m" x1="27.607" x2="33.23" y1="347.942" y2="351.029" gradientUnits="userSpaceOnUse" gradientTransform="translate(-.186 -343.02)"><stop offset="0" stop-color="#fff"/><stop offset="1" stop-color="#737B87"/></linearGradient><radialGradient id="n" cx="16.831" cy="356.651" r="3.386" gradientUnits="userSpaceOnUse" fy="356.651" fx="16.831" gradientTransform="translate(-.186 -343.02)"><stop offset="0" stop-color="#fff"/><stop offset=".143" stop-color="#FAFAFA"/><stop offset=".319" stop-color="#EBECED"/><stop offset=".513" stop-color="#D1D4D8"/><stop offset=".72" stop-color="#AFB3BA"/><stop offset=".935" stop-color="#828994"/><stop offset="1" stop-color="#737B87"/></radialGradient><linearGradient id="o" x1="7.969" x2="11.203" y1="353.32" y2="360.783" gradientUnits="userSpaceOnUse" gradientTransform="translate(-.186 -343.02)"><stop offset="0" stop-color="#fff"/><stop offset="1" stop-color="#737B87"/></linearGradient><linearGradient id="p" x1="12.482" x2="9.467" y1="360.155" y2="357.386" gradientUnits="userSpaceOnUse" gradientTransform="translate(-.186 -343.02)"><stop offset="0" stop-color="#fff"/><stop offset="1" stop-color="#737B87"/></linearGradient><linearGradient id="q" x1="32.66" x2="15.233" y1="350.288" y2="359.354" gradientUnits="userSpaceOnUse" gradientTransform="translate(-.186 -343.02)"><stop offset="0" stop-color="#fff"/><stop offset=".205" stop-color="#FCFCFC"/><stop offset=".372" stop-color="#F2F2F4"/><stop offset=".526" stop-color="#E1E2E5"/><stop offset=".672" stop-color="#C9CCD0"/><stop offset=".813" stop-color="#A9AEB6"/><stop offset=".947" stop-color="#848B96"/><stop offset="1" stop-color="#737B87"/></linearGradient><linearGradient id="r" x1="19.424" x2="35.998" y1="358.354" y2="352.306" gradientUnits="userSpaceOnUse" gradientTransform="translate(-.186 -343.02)"><stop offset="0" stop-color="#fff"/><stop offset="1" stop-color="#737B87"/></linearGradient><linearGradient id="s" x1="18" x2="23.59" y1="363.912" y2="355.616" gradientUnits="userSpaceOnUse" gradientTransform="translate(-.186 -343.02)"><stop offset="0" stop-color="#fff"/><stop offset="1" stop-color="#737B87"/></linearGradient><linearGradient id="t" x1="37.447" x2="39.977" y1="351.899" y2="350.836" gradientUnits="userSpaceOnUse"><stop offset="0" stop-color="#41464C"/><stop offset="1" stop-color="#737B87"/></linearGradient><radialGradient id="u" cx="29.014" cy="355.446" r="10.77" gradientUnits="userSpaceOnUse" fy="355.446" fx="29.014" gradientTransform="translate(-.186 -343.02)"><stop offset="0" stop-color="#A1A8B3"/><stop offset=".318" stop-color="#CDD0D4"/><stop offset="1" stop-color="#fff"/></radialGradient><linearGradient id="v" x1="30.411" x2="36.466" y1="356.428" y2="350.852" gradientUnits="userSpaceOnUse" gradientTransform="translate(-.186 -343.02)"><stop offset="0" stop-color="#fff"/><stop offset="1" stop-color="#737B87"/></linearGradient><linearGradient id="w" x1="26.809" x2="34.16" y1="347.738" y2="351.336" gradientUnits="userSpaceOnUse" gradientTransform="translate(-.186 -343.02)"><stop offset="0" stop-color="#fff"/><stop offset="1" stop-color="#737B87"/></linearGradient><linearGradient id="x" x1="4.601" x2="-1.626" y1="359.646" y2="362.641" gradientUnits="userSpaceOnUse" gradientTransform="translate(-.186 -343.02)"><stop offset="0" stop-color="#fff"/><stop offset="1" stop-color="#737B87"/></linearGradient><linearGradient id="y" x1="3.851" x2="5.1" y1="359.219" y2="352.681" gradientUnits="userSpaceOnUse" gradientTransform="translate(-.186 -343.02)"><stop offset="0" stop-color="#fff"/><stop offset="1" stop-color="#737B87"/></linearGradient><linearGradient id="z" x1="4.463" x2="9.567" y1="361.382" y2="354.173" gradientUnits="userSpaceOnUse" gradientTransform="translate(-.186 -343.02)"><stop offset="0" stop-color="#fff"/><stop offset=".81" stop-color="#737B87"/></linearGradient><linearGradient id="A" x1="-.156" x2="6.334" y1="358.399" y2="361.644" gradientUnits="userSpaceOnUse" gradientTransform="translate(-.186 -343.02)"><stop offset="0" stop-color="#fff"/><stop offset="1" stop-color="#737B87"/></linearGradient><linearGradient id="B" x1="5.594" x2="13.168" y1="354.942" y2="365.582" gradientUnits="userSpaceOnUse" gradientTransform="translate(-.186 -343.02)"><stop offset="0" stop-color="#fff"/><stop offset="1" stop-color="#737B87"/></linearGradient><radialGradient id="C" cx="32.742" cy="357.924" r="23.157" gradientUnits="userSpaceOnUse" fy="357.924" fx="32.742" gradientTransform="translate(-.186 -343.02)"><stop offset="0" stop-color="#fff"/><stop offset="1" stop-color="#737B87"/></radialGradient><linearGradient id="D" x1="28.655" x2="21.202" y1="356.197" y2="360.404" gradientUnits="userSpaceOnUse" gradientTransform="translate(-.186 -343.02)"><stop offset="0" stop-color="#fff"/><stop offset="1" stop-color="#737B87"/></linearGradient><linearGradient id="E" x1="14.049" x2="6.909" y1="360.613" y2="371.139" gradientUnits="userSpaceOnUse" gradientTransform="translate(-.186 -343.02)"><stop offset="0" stop-color="#fff"/><stop offset="1" stop-color="#737B87"/></linearGradient><linearGradient id="F" x1="22.059" x2="18.043" y1="370.573" y2="365.093" gradientUnits="userSpaceOnUse" gradientTransform="translate(-.186 -343.02)"><stop offset="0" stop-color="#fff"/><stop offset="1" stop-color="#737B87"/></linearGradient><linearGradient id="G" x1="17.941" x2="17.562" y1="356.735" y2="359.332" gradientUnits="userSpaceOnUse" gradientTransform="translate(-.186 -343.02)"><stop offset="0" stop-color="#fff"/><stop offset="1" stop-color="#737B87"/></linearGradient><linearGradient id="H" x1="25.076" x2="13.777" y1="363.834" y2="360.829" gradientUnits="userSpaceOnUse" gradientTransform="translate(-.186 -343.02)"><stop offset="0" stop-color="#fff"/><stop offset="1" stop-color="#737B87"/></linearGradient><linearGradient id="I" x1="13.843" x2="13.573" y1="370.934" y2="364.805" gradientUnits="userSpaceOnUse" gradientTransform="translate(-.186 -343.02)"><stop offset="0" stop-color="#fff"/><stop offset="1" stop-color="#737B87"/></linearGradient><radialGradient id="J" cx="24.571" cy="364.431" r="6.399" gradientUnits="userSpaceOnUse" fy="364.431" fx="24.571" gradientTransform="translate(-.186 -343.02)"><stop offset="0" stop-color="#fff"/><stop offset="1" stop-color="#737B87"/></radialGradient><linearGradient id="K" x1="16.028" x2="14.105" y1="370.299" y2="363.199" gradientUnits="userSpaceOnUse"><stop offset="0" stop-color="#fff"/><stop offset="1" stop-color="#737B87"/></linearGradient><linearGradient id="L" x1="21.8" x2="15.734" y1="382.795" y2="368.592" gradientUnits="userSpaceOnUse" gradientTransform="translate(-.186 -343.02)"><stop offset="0" stop-color="#fff"/><stop offset="1" stop-color="#737B87"/></linearGradient><linearGradient id="M" x1="34.303" x2="31.6" y1="350.937" y2="361.283" gradientUnits="userSpaceOnUse" gradientTransform="translate(-.186 -343.02)"><stop offset="0" stop-color="#fff"/><stop offset="1" stop-color="#737B87"/></linearGradient><radialGradient id="N" cx="21.625" cy="367.496" r="18.024" gradientUnits="userSpaceOnUse" fy="367.496" fx="21.625" gradientTransform="translate(-.186 -343.02)"><stop offset="0" stop-color="#fff"/><stop offset="1" stop-color="#737B87"/></radialGradient><radialGradient id="O" cx="24.575" cy="368.868" r="8.653" gradientUnits="userSpaceOnUse" fy="368.868" fx="24.575" gradientTransform="translate(-.186 -343.02)"><stop offset="0" stop-color="#fff"/><stop offset="1" stop-color="#737B87"/></radialGradient><linearGradient id="P" x1="25.502" x2="41.37" y1="371.535" y2="342.081" gradientUnits="userSpaceOnUse" gradientTransform="translate(-.186 -343.02)"><stop offset="0" stop-color="#fff"/><stop offset="1" stop-color="#737B87"/></linearGradient><linearGradient id="Q" x1="25.402" x2="32.375" y1="365.73" y2="359.478" gradientUnits="userSpaceOnUse" gradientTransform="translate(-.186 -343.02)"><stop offset="0" stop-color="#fff"/><stop offset="1" stop-color="#737B87"/></linearGradient><linearGradient id="R" x1="32.411" x2="21.05" y1="369.606" y2="364.496" gradientUnits="userSpaceOnUse" gradientTransform="translate(-.186 -343.02)"><stop offset="0" stop-color="#fff"/><stop offset="1" stop-color="#737B87"/></linearGradient><linearGradient id="S" x1="29.555" x2="32.711" y1="369.885" y2="358.525" gradientUnits="userSpaceOnUse" gradientTransform="translate(-.186 -343.02)"><stop offset="0" stop-color="#fff"/><stop offset="1" stop-color="#737B87"/></linearGradient><linearGradient id="T" x1="27.142" x2="36.338" y1="374.51" y2="361.528" gradientUnits="userSpaceOnUse" gradientTransform="translate(-.186 -343.02)"><stop offset="0" stop-color="#fff"/><stop offset="1" stop-color="#737B87"/></linearGradient><radialGradient id="U" cx="31.752" cy="356.535" r="9.393" gradientUnits="userSpaceOnUse" fy="356.535" fx="31.752" gradientTransform="translate(-.186 -343.02)"><stop offset="0" stop-color="#fff"/><stop offset="1" stop-color="#737B87"/></radialGradient><linearGradient id="V" x1="38.817" x2="39.502" y1="352.387" y2="353.507" gradientUnits="userSpaceOnUse" gradientTransform="translate(-.186 -343.02)"><stop offset="0" stop-color="#41464C"/><stop offset="1" stop-color="#737B87"/></linearGradient><linearGradient id="W" x1="40.819" x2="34.935" y1="355.65" y2="363.663" gradientUnits="userSpaceOnUse" gradientTransform="translate(-.186 -343.02)"><stop offset="0" stop-color="#fff"/><stop offset="1" stop-color="#737B87"/></linearGradient><linearGradient id="X" x1="43.873" x2="39.406" y1="355.952" y2="353.271" gradientUnits="userSpaceOnUse" gradientTransform="translate(-.186 -343.02)"><stop offset="0" stop-color="#fff"/><stop offset="1" stop-color="#737B87"/></linearGradient><radialGradient id="Y" cx="38.353" cy="356.311" r="9.615" gradientUnits="userSpaceOnUse" fy="356.311" fx="38.353" gradientTransform="translate(-.186 -343.02)"><stop offset="0" stop-color="#fff"/><stop offset=".743" stop-color="#737B87"/><stop offset="1" stop-color="#575D66"/></radialGradient><radialGradient id="Z" cx="40.828" cy="355.447" r="7.237" gradientUnits="userSpaceOnUse" fy="355.447" fx="40.828" gradientTransform="translate(-.186 -343.02)"><stop offset="0" stop-color="#E6E6E6"/><stop offset="1" stop-color="#737B87"/></radialGradient><linearGradient id="aa" x1="28.993" x2="24.611" y1="353.593" y2="367.287" gradientUnits="userSpaceOnUse" gradientTransform="translate(-.186 -343.02)"><stop offset="0" stop-color="#fff"/><stop offset="1" stop-color="#737B87"/></linearGradient><linearGradient id="ab" x1="20.861" x2="51.65" y1="358.827" y2="352.58" gradientUnits="userSpaceOnUse" gradientTransform="translate(-.186 -343.02)"><stop offset="0" stop-color="#fff"/><stop offset="1" stop-color="#737B87"/></linearGradient><linearGradient id="ac" x1="28.072" x2="17.972" y1="381.831" y2="366.982" gradientUnits="userSpaceOnUse" gradientTransform="translate(-.186 -343.02)"><stop offset="0" stop-color="#fff"/><stop offset="1" stop-color="#737B87"/></linearGradient><linearGradient id="ad" x1="38.359" x2="35.158" y1="363.481" y2="363.481" gradientUnits="userSpaceOnUse" gradientTransform="translate(-.186 -343.02)"><stop offset="0" stop-color="#41464C"/><stop offset="1" stop-color="#737B87"/></linearGradient><linearGradient id="ae" x1="29.361" x2="59.651" y1="372.498" y2="342.93" gradientUnits="userSpaceOnUse" gradientTransform="translate(-.186 -343.02)"><stop offset="0" stop-color="#41464C"/><stop offset="1" stop-color="#737B87"/></linearGradient><linearGradient id="af" x1="28.891" x2="18.794" y1="381.269" y2="366.424" gradientUnits="userSpaceOnUse" gradientTransform="translate(-.186 -343.02)"><stop offset="0" stop-color="#fff"/><stop offset="1" stop-color="#737B87"/></linearGradient><linearGradient id="ag" x1="29.016" x2="59.311" y1="372.145" y2="342.571" gradientUnits="userSpaceOnUse" gradientTransform="translate(-.186 -343.02)"><stop offset="0" stop-color="#41464C"/><stop offset="1" stop-color="#737B87"/></linearGradient><linearGradient id="ai" x1="9.799" x2="6.374" y1="364.338" y2="356.856" gradientUnits="userSpaceOnUse"><stop offset="0" stop-color="#fff"/><stop offset="1" stop-color="#737B87"/></linearGradient><linearGradient id="ah" x1="13.982" x2="9.745" y1="359.77" y2="360.942" gradientUnits="userSpaceOnUse"><stop offset="0" stop-color="#fff"/><stop offset="1" stop-color="#737B87"/></linearGradient><linearGradient id="aj" x1="28.956" x2="22.946" y1="347.063" y2="361.247" gradientUnits="userSpaceOnUse" gradientTransform="translate(-.186 -343.02)"><stop offset="0" stop-color="#fff"/><stop offset="1" stop-color="#737B87"/></linearGradient><linearGradient id="ak" x1="40.074" x2="27.302" y1="351.41" y2="371.193" gradientUnits="userSpaceOnUse" gradientTransform="translate(-.186 -343.02)"><stop offset="0" stop-color="#fff"/><stop offset="1" stop-color="#737B87"/></linearGradient><radialGradient id="al" cx="43.572" cy="354.906" r="18.747" gradientUnits="userSpaceOnUse" fy="354.906" fx="43.572" gradientTransform="translate(-.186 -343.02)"><stop offset="0" stop-color="#fff"/><stop offset="1" stop-color="#737B87"/></radialGradient><linearGradient id="am" x1="29.957" x2="36.687" y1="360.217" y2="378.122" gradientUnits="userSpaceOnUse" gradientTransform="translate(-.186 -343.02)"><stop offset="0" stop-color="#fff"/><stop offset="1" stop-color="#737B87"/></linearGradient><linearGradient id="an" x1="18.631" x2="18.723" y1="350.976" y2="360.957" gradientUnits="userSpaceOnUse" gradientTransform="translate(-.186 -343.02)"><stop offset="0" stop-color="#fff"/><stop offset="1" stop-color="#898F97"/></linearGradient><linearGradient id="ao" x1="11.788" x2="27.063" y1="342.668" y2="351.738" gradientUnits="userSpaceOnUse" gradientTransform="translate(-.186 -343.02)"><stop offset="0" stop-color="#fff"/><stop offset=".16" stop-color="#E0E2E4"/><stop offset=".431" stop-color="#B1B6BC"/><stop offset=".671" stop-color="#8F969F"/><stop offset=".869" stop-color="#7B828D"/><stop offset="1" stop-color="#737B87"/></linearGradient><linearGradient id="ap" x1="14.434" x2="21.622" y1="351.184" y2="364.182" gradientUnits="userSpaceOnUse" gradientTransform="translate(-.186 -343.02)"><stop offset="0" stop-color="#fff"/><stop offset=".16" stop-color="#E0E2E4"/><stop offset=".431" stop-color="#B1B6BC"/><stop offset=".671" stop-color="#8F969F"/><stop offset=".869" stop-color="#7B828D"/><stop offset="1" stop-color="#737B87"/></linearGradient><linearGradient id="aq" x1="5.274" x2="10.568" y1="354.008" y2="364.836" gradientUnits="userSpaceOnUse" gradientTransform="translate(-.186 -343.02)"><stop offset="0" stop-color="#fff"/><stop offset="1" stop-color="#737B87"/></linearGradient><linearGradient id="ar" x1="7.266" x2="10.991" y1="356.414" y2="369.032" gradientUnits="userSpaceOnUse" gradientTransform="translate(-.186 -343.02)"><stop offset="0" stop-color="#fff"/><stop offset="1" stop-color="#737B87"/></linearGradient><radialGradient id="as" cx="8.491" cy="359.09" r="11.186" gradientUnits="userSpaceOnUse" fy="359.09" fx="8.491" gradientTransform="translate(-.186 -343.02)"><stop offset="0" stop-color="#fff"/><stop offset="1" stop-color="#737B87"/></radialGradient><linearGradient id="at" x1="20.46" x2="26.831" y1="362.9" y2="354.671" gradientUnits="userSpaceOnUse" gradientTransform="translate(-.186 -343.02)"><stop offset="0" stop-color="#fff"/><stop offset="1" stop-color="#737B87"/></linearGradient><linearGradient id="au" x1="35.288" x2="35.323" y1="355.241" y2="362.751" gradientUnits="userSpaceOnUse" gradientTransform="translate(-.186 -343.02)"><stop offset="0" stop-color="#fff"/><stop offset="1" stop-color="#737B87"/></linearGradient><linearGradient id="av" x1="21.436" x2="19.533" y1="359.776" y2="361.02" gradientUnits="userSpaceOnUse"><stop offset="0" stop-color="#fff"/><stop offset="1" stop-color="#737B87"/></linearGradient><linearGradient id="aw" x1="21.286" x2="15.38" y1="369.5" y2="357.688" gradientUnits="userSpaceOnUse" gradientTransform="translate(-.186 -343.02)"><stop offset="0" stop-color="#fff"/><stop offset="1" stop-color="#737B87"/></linearGradient><linearGradient id="ax" x1="11.296" x2="10.815" y1="362.427" y2="355.695" gradientUnits="userSpaceOnUse" gradientTransform="translate(-.186 -343.02)"><stop offset="0" stop-color="#fff"/><stop offset="1" stop-color="#737B87"/></linearGradient><linearGradient id="b" x1="22.54" x2="22.944" y1="29.329" y2="45.583" xlink:href="#a" gradientUnits="userSpaceOnUse"/></defs><g><path fill="url(#b)" fill-rule="evenodd" stroke="#a40000" stroke-width="2" d="M15.43 20.86V35.3h-11l19.2 11.77L42.87 35.7H31.3V21l-15.87-.14z"/><path fill="none" stroke="#ffc993" d="M16.77 23.48l.13 13.28-7.17.07 13.9 8.48 13.67-8.05-7.58.06.32-13.7-13.27-.12z"/><path fill="#fff" stroke="#363a40" stroke-width="2" d="M1.42 16.48c.96-.57 1.48-.74 1.7-1.53.23-.8.34-1.82.68-2.44.35-.62 1.6-1.76 2.28-1.93.28 0 .68.57.96.74.3.18.8-.27 1.25-.27.45 0 1.47.1 1.47.1.28.13.85.18 1.02-.56.16-.22.56-.28.56-.28.45-1.32 1.36-2.85 1.76-4.1.23-.57 1.2-.8 1.2-.8.4 0 1.53-.28 1.53-.45 0-.17 1.6-2.56 1.87-2.84.3-.27 1.3-.45 1.48-.73.17-.28.63-.4.63-.4h.56s0 .46.22.46c.23 0 1.36.17 1.7.45.35.3.74.7.74.7.17.84.23 1.46.52 1.58.28.1 1.13.68 1.13.68.7-.3.75.23 1.43-.06.7-.3 1.88-.4 2.33-.57.46-.16 2.27.52 2.27.52.4.35.52.9.8.97.28.05.74.1.74.1s.62.23.8.46c.16.23.67.68.67.68l.4-.1c.5-.75 1.14-1.15 1.14-1.15l.23.27c.06.46.46 1.37.7 1.37.22 0 .56.68.56.68l.1.45.92.46c.57 0 1.2.23 1.2.23.62.5-.12.5 1.24 1.42.34.05.68.8.68.8.4.22.9.28.9.28s1.6.34 1.83.17c.4 0 .85.34 1.3.34.46 0 .86.56.86.56l-.24.35c.74.05 1.6.8 1.6.8-.52 1.13-3.07 3-3.07 3-1.2.17-2.5.8-2.86 1.08-.34.3-1.53.34-1.6.86-.04.5-.55 1.98-.95 2.33-.4.34-1.32.17-1.32.17-.8 1.2-3.3 3.3-3.3 3.7 0 .38-1.13.67-1.53 1.24-.4.57-3.8 3.46-4.43 3.92-.63.45-1.65 1.25-1.65 1.25-.45-.23-1.13-.46-1.13-.46s-.3-.8-.74-1.02c-.46-.23-1.93-1.42-2.45-1.42-.5 0-.96.46-1.3.46-.34 0-1.54-.47-1.82-.75-.28-.3-2.73-.8-3.13-.8-.62-.17-.96-1.13-1.36-1.47-.4-.35-1.53-2.28-2.2-2.68 0 0 0-.68-.3-.73-.28-.06-2.04-1.2-2.9-1.65-.85-.46-1.98-1.08-2.67-1.14 0 0 0-.5-1.8-1.48-1.2-.4-1.15-.05-1.9-.56-.73-.52-1.35-1.26-1.35-1.26z"/><path fill="url(#c)" d="M9.28 11.16l1.88.72s.05 1.27.22 1.44c.17.16.88 1.27.55 1.77-.28.4-.44 1.2-1.34 1.76l-.27.88c0-.22 1.6-1.83 1.6-1.83s.94-1.1 1.1-1.1c.17 0 1.5-.54 1.5-.54s1.44-.72 1.66-1c.2-.28.6-1.05.6-1.05.25-.4 1.03-1 1.03-1l.8-.13s1.33.27 1.5.4c.05.02.07.08.06.14h-.02l.7.13.23-.52.58-.68-1.27.4-1.78-.04c-.28 0-1.22.34-1.55.1-.33-.2-.06-1.1-.06-1.1l-.43.06s-.1 1.22-.5 1.44c-.38.22-.6.56-.6.83 0 .3-.33 1.17-.33 1.17s-1.28.55-1.55.55c-.3 0-.9-.44-.9-.44s-.16-1.27-.44-1.44c-.27-.16-1-.44-1-.44l.23-.88-.14-.43s-.4.05-.57.28c-.18.74-.75.68-1.03.56 0 0-1.02-.1-1.48-.1l.98.12z"/><path fill="url(#d)" d="M22.43 8.3s.58 2.85.87 2.85c.3 0 .73.2.73.2-.23-.05-.4.72-.4.72l-.1-.05s-.5-.62-.74-.28c-.24.35-.94-.05-.94-.05h-.52l-.05.22-.02-.02-.4-.17.23-.52.58-.68-1.27.4-.62-.15c.55.1.83-1.27.88-1.55.06-.27-.33-1.16-.33-1.5 0-.32.66-.43.83-.65.05-.07-.05-.2-.2-.33.7.5 1.14 1.1 1.14 1.1s.17.3.33.48z"/><path fill="url(#e)" d="M25.1 5.7s1.2-.34 1.6-.57c.38-.22.65-.38.98-.77l-.03.04c-.5.1-1.1.2-1.52.38-.12.05-.22.08-.3.1v-.02c-.1.2-.46.83-.74.83z"/><path fill="url(#f)" d="M25.83 4.86c-.1.2-.46.83-.74.83-.35 0-1.06.04-1.34-.18s-1.16-.72-1.16-1c0-.27.28-.7.1-.77-.16-.05-.6-.22-.6-.22l.04.02.57-.24.5.07h.02c.08.42.17.7.36.8.28.1 1.13.67 1.13.67.58-.24.7.07 1.13.02z"/><path fill="url(#g)" d="M22.14 3.55l-.65.26-.5.34s-.23 1.1-.45 1.16c-.22.06-.77.5-.66.66.06.12.7.48 1.05.78.44-.1 2.37.83 2.64.88.27.06.55-.72.77-.77.22-.06.55-.4.55-.4l.17-.76c-.35 0-1.06.05-1.34-.18-.28-.22-1.16-.72-1.16-1 0-.27.28-.7.1-.76-.16-.06-.6-.23-.6-.23l.04.02z"/><path fill="url(#h)" d="M21 4.18c-.06.2-.25 1.07-.45 1.12-.22.06-.77.5-.66.66.1.17 1.43.9 1.26 1.1-.16.23-.83.34-.83.67s.4 1.22.33 1.5c-.05.27-.33 1.65-.88 1.54-.55-.1-1.22-.22-1.27-.66-.05-.43 1.34-1.7 1.34-1.7l-.56-1.33-1.2-.28-.07-.5.23-.45c.5-.44 2-1.1 2-1.1l.76-.57z"/><path fill="url(#i)" d="M27.65 4.37l-.03.04c.33-.06.63-.12.8-.18.47-.17 2.28.5 2.28.5.12.1.22.24.3.36h-.03l-1.38-.16-.26-.15s-1.08-.3-1.23-.15l-.45-.25z"/><path fill="url(#j)" d="M28.14 4.6c-.15.16-1.57 1.2-1.72 1.26-.23.07-.4.16-.55.3-.13.13-.37.43-.37.62 0 .2.05.42.1.5l-.46-.15-.44.77s-1.94.6-2.1.55c-.17-.06-.5-.6-.5-.6s-.43-.6-1.15-1.1c.44-.12 2.37.82 2.64.87.27.06.55-.72.77-.77.22-.06.55-.4.55-.4l.17-.76s1.2-.34 1.6-.56c.38-.23.65-.4.98-.78l.46.25z"/><g transform="translate(-.186 -343.02)"><linearGradient x1="21.192" x2="2.079" y1="350.923" y2="348.76" gradientUnits="userSpaceOnUse"><stop offset="0" stop-color="#fff"/><stop offset="1" stop-color="#737B87"/></linearGradient><path fill="url(#k)" d="M23.25 345.58s-.4-.4-.74-.68c-.33-.28-1.47-.45-1.7-.45-.22 0-.22-.46-.22-.46H20s-.44.1-.6.4c-.18.27-1.2.45-1.5.73-.27.28-1.87 2.67-1.87 2.84 0 .17-1.13.45-1.53.45 0 0-.97.23-1.2.8-.4 1.25-1.3 2.78-1.76 4.1l.13.42-.22.88s.72.28 1 .44c.28.17.44 1.44.44 1.44s.6.44.88.44c.27 0 1.54-.55 1.54-.55s.33-.9.33-1.17c0-.28.23-.6.6-.83.4-.22.5-1.44.5-1.44l.45-.05s-.27.9.06 1.1c.33.23 1.27-.1 1.54-.1l1.8.04-.64-.15c-.55-.12-1.2-.23-1.27-.67-.06-.44 1.32-1.72 1.32-1.72l-.55-1.3-1.22-.3-.05-.48.22-.45c.5-.44 2-1.1 2-1.1l1.26-.94 1.2-.5.5.06h.02c-.04-.24-.1-.5-.15-.8zm-6.2 7.2c-.5-.07-.93-.9-1.32-.94-.4-.03-.9.9-1.32 1.05-.4.14-.1.8-.1.8s.62.54.65.96c.03.43-.15 1.02-.15 1.02l-.8.16c-.5-.33-1.18-1.6-1.18-1.6s-1.1-.1-1.15-.24c-.03-.15.25-.87.25-.87s.48-1.38.66-1.74c.18-.37.48-.9.75-1.3 0 0 .6-.97 1-1.18.38-.2 1.6-.63 1.6-.63l.46-.34s.68.06.68.2c0 .16.36 1.28.36 1.28s-.7.8-.45 1.05c.23.23.9.77.9.92 0 .15-.34 1.4-.85 1.35zm2.77-6.77s-.42.85-.72 1.4c-.3.53-.63.8-.78.77-.15-.03-.64-.18-1-.12s-.8-.18-.8-.27c0-.1.83-1.3 1.2-1.86.36-.57.75-.8.84-.87.24-.16 1.26-.18 1.44.2.18.4-.18.76-.18.76z"/></g><path fill="url(#l)" d="M24.03 11.36s-.44-.2-.73-.2c-.3 0-.86-2.85-.86-2.85.05.08.1.14.16.15.17.06 2.1-.55 2.1-.55l.44-.77-.34 1.25 1.04.58s.8.23.23 1.38c-.58 1.16-.83 1.58-.83 1.58l-.02.04c-.4-.2-1.02-.55-1.2-.6z"/><path fill="url(#m)" d="M29.67 6.9c.24-.3.3-1.1.27-1.5-.02-.22-.16-.37-.3-.48h-.02l1.38.16h.03c.1.16.2.32.28.44H30.96l.05.66.4.4s.37.32.37.54c0 .23-.22 1-.22 1l-.83.44-.1-.5.1-.94s-.06-.34-1.05-.22z"/><path fill="url(#n)" d="M12.48 15.88l.56-1.07c.16 0 1.5-.54 1.5-.54s1.43-.72 1.65-1c.2-.28.6-1.05.6-1.05l-.02.25c.06.2.3.37.84.73s.12.6.12.84.84 0 .84 0l-.6 1-1.08.4-1.02.22s-1.3-.57-1.8-.57l-1.6.8z"/><path fill="url(#o)" d="M10.6 16.86c-.16.06.24-2.13.24-2.13v-1.27l-.17-.98s-.47-.3-.64-.4c-.17-.12-.58-.87-.58-.87l-.06-.1c-.34-.03-.83-.07-1.1-.07-.46 0-.98.45-1.26.28-.28-.16-.68-.73-.97-.73l.04.08c.43 0 .6.75 1 .96.3.17.65.62.8.93l.7.12h.45v.46l.17.65.8-.03c.2-.12-.1 1.62-.1 1.62s-.78 1.8-1.05 1.95l1.74-.44z"/><path fill="url(#p)" d="M7.9 12.54l.7.1h.45v.47l.17.65.8-.03-.83.92-.32-.5s-.12-.56-.46-.56c-.35 0-.7.86-.7.86l-.15-1.18c.23-.2.4-.4.4-.47 0-.07 0-.16-.06-.27z"/><path fill="url(#q)" d="M31.1 11.93s-.36.1-.6.14c-.22.06-1.32 0-1.32 0l-1.1-.17-1.15.87s-1.15-.7-1.38-.7c-.06 0-.23 0-.34-.1l.04-.05s.25-.42.83-1.58c.57-1.15-.23-1.38-.23-1.38l-1.04-.58.34-1.25.47.16c.07.08 1.1.86 1.37.9.22 0 1.5-.18 2.03-.3l-.1.6s.55 1.17 1 1.17c.44 0 1.32.55 1.32.55s.44.72.44.94c0 .22-.55.77-.55.77z"/><path fill="url(#r)" d="M25.26 13.8s-.35-.98-.8-.98c-.47 0-.93-.8-.93-.8l.1.05s.17-.76.4-.7c.23.05 1.3.7 1.52.7.23 0 1.38.7 1.38.7l1.16-.87 1.08.17s1.1.06 1.33 0c.24-.05.6-.14.6-.14l1.42.44c-.12.18-1 .75-1.32.84-.33.1-1.62-.35-1.62-.35s-.4-.42-.75-.42c-.36 0-1.02.36-1.02.5 0 .16-.5.8-.7.8-.22 0-.77-.2-1.25.02-.2.1-.4.1-.6.04z"/><path fill="url(#s)" d="M20.08 15.96s.23-1.22.46-1.33c.23-.12 1.1-.8 1.1-.8l.63-1.4-.98-.5.05-.24h.52s.7.4.92.04c.22-.34.74.3.74.3V12s.45.8.92.8c.46 0 .8.98.8.98-.26-.06-.5-.2-.66-.34-.27-.2-.63-.12-.93-.12-.3 0-.54.42-.75.57-.2.16-.6 0-.9.5l-.63.65s-.78.27-.95.5c-.16.2-.66.93-.66.93l.28-.52z"/><path fill="url(#t)" d="M37.32 352.52l.44-.33.76-.2-.56-.05-.9-.46.04.3.22.72z" transform="translate(-.186 -343.02)"/><path fill="url(#u)" d="M36.1 11.05s-.4.5-.4.8c0 .3-.83 1.4-.83 1.4s-.84.3-1.08.3c-.25 0-.3-.3-.43-.67-.12-.36-.85-.5-.85-.5l-1.4-.45s.54-.55.54-.77c0-.22-.44-.94-.44-.94s-.88-.55-1.32-.55c-.45 0-1-1.16-1-1.16l.1-.6c.12-.03.2-.05.22-.07.12-.1.2-.63.45-.93 1-.12 1.06.23 1.06.23l-.1.94.1.5.82-.45s.23-.77.23-1c0-.2-.4-.55-.4-.55L31 6.2l-.05-.68h.36c.07.1.14.15.23.17.04 0 .1 0 .14.02v.03c.27 0 .88.82.88.82l.05.94.4.68.05.82.22.67.44-.5V8.3s-.27-.18-.2-.5c.05-.34.25-.86.25-.86l.4-.12c.5-.73 1.13-1.13 1.13-1.13-.02.7-.24 1.6-.08 1.76.17.16.33 1.1.33 1.1l-.55.5.5 1.05s-.5.78-.72.84c-.22.05-.77.5-.94.44-.05.22.28.6.55.6.28 0 .6-.43.78-.43.16 0 .82-.28.94-.5z"/><path fill="url(#v)" d="M35.28 5.7c-.02.7-.24 1.6-.08 1.76.17.16.33 1.1.33 1.1l-.55.5.5 1.05s-.5.78-.72.84c-.22.05-.78.5-.94.44-.06.22.27.6.55.6s.6-.43.77-.43c.17 0 .83-.28.94-.5.1-.22 1.05-1.55 1.05-1.55l-.22-.72-.03-.3-.1-.46s-.35-.7-.58-.7c-.24 0-.64-.9-.7-1.35l-.22-.28z"/><path fill="url(#w)" d="M31.53 5.7c.28.05.74.1.74.1s.62.23.8.46c.16.22.67.68.67.68s-.2.52-.25.85c-.07.32.2.5.2.5v.87l-.43.5-.22-.67-.06-.82-.4-.67-.05-.93s-.6-.82-.9-.82l-.12-.06z"/><path fill="url(#x)" d="M1.42 16.48s1.34.73 1.52.73c.17 0 2.07.82 2.07.82l.42-.75-.12-.16-.46-.12-1.33-.8-1.17-.22c-.24.15-.54.3-.9.52z"/><path fill="url(#y)" d="M4.95 14.2c-.13-.02-.26-.07-.37-.15-.24-.18-.63-1.4-.63-1.4.03-.65 1.74-2 2.16-2l-.02-.07c-.7.17-1.94 1.3-2.28 1.93-.34.63-.45 1.66-.68 2.45-.14.5-.4.75-.8 1l1.2.22 1.32.8s-.4-1.15-.4-1.32c0-.17.4-1.27.4-1.27l.1-.18z"/><path fill="url(#z)" d="M7.57 13.26l.15 1.18s.35-.86.7-.86c.34 0 .46.57.46.57l.3.5c-.3.37-.58.72-.58.72l-.84.84s-.96.22-1.1.22c-.16 0-1.36.6-1.36.7l-.46-.14s-.4-1.16-.4-1.33c0-.17.4-1.27.4-1.27l.1-.18c.16.02.3 0 .42-.1.2-.14.27-.84.4-.84.1 0 .4.67.74.67.2 0 .72-.36 1.08-.68z"/><path fill="url(#A)" d="M1.42 16.48s1.34.73 1.52.73c.17 0 2.07.82 2.07.82l.42-.75c.23.32.78.93.78.93l.54 1.08.8.3.86.94c-.7-.36-1.43-.7-1.93-.74 0 0 0-.5-1.8-1.48-1.2-.4-1.15-.06-1.9-.57-.73-.5-1.35-1.25-1.35-1.25z"/><path fill="url(#B)" d="M10.5 17.67s.28.98.5 1.2c.24.24-.16.76 0 1.5.2.76.82.93.82.93l-.8-.1-.4-1-.24-.34.3-.58-1.3-.5s.95-.82.95-1.04l.16-.07z"/><path fill="url(#C)" d="M18 15l-.47.3s-.58.8-.34.98c.22.18.9.18.9.18l.7 1.04s.75.88 1.2 1.33c.45.45 2.03 1.26 2.03 1.26l.36.08-.02-.66-.75-.47s-1.4-.8-1.45-.98c-.06-.17-.1-.63-.1-.63l-.53-.4s-.4-.12-.58-.18c-.17-.05-.8-1.1-.8-1.1l1.6.7.3-.52s.23-1.2.46-1.33c.23-.1 1.1-.8 1.1-.8l.63-1.38-.98-.52-.4-.17-.7-.12c0 .25-.25.65-.25.65s-.72.63-.8.93c-.1.3-.55.84-.55.84l-.6 1z"/><path fill="url(#D)" d="M21.38 15.03s-.77.27-.94.5c-.16.22-.66.94-.66.94l-1.6-.7s.62 1.03.8 1.1c.17.05.57.16.57.16l.52.4s.06.47.12.64c.04.18 1.43.98 1.43.98l.75.47s1-.06.94-.3c-.22-.1-.44-.32-.44-.32l.4-.3c-.54-.2-1.25-.7-1.56-.86-.5-.28-.34-1.27-.34-1.27s-.22-.6-.22-.78c0-.18.22-.67.22-.67z"/><path fill="url(#E)" d="M13.04 14.8l-.56 1.08s-.42.6-.6 1.05l-.03.42s.72.67 1 .88c.26.2.44 1.23.44 1.23l.44 1.62s.54.33.78.27l-.1.53-.7-.52-.75-.46-1.03-.06-.06-.7-.55.85c-.13-.15-.25-.35-.32-.62-.16-.75.24-1.27 0-1.5-.22-.23-.5-1.2-.5-1.2l-.17.06c0-.22 1.6-1.83 1.6-1.83s.94-1.1 1.1-1.1z"/><path fill="url(#F)" d="M15.4 21.07s1.04-.75 1.32-1.27c.3-.52.7-.98.7-.98l-.12-.8V16.8l-.65.92c.02.12.04.2.04.2s-.73 2-.88 2.4c-.15.43-1.06.97-1.3 1.03l-.1.53.98-.8"/><path fill="url(#G)" d="M15.88 15.64s.5.33.5.5c0 .15.2 1.16.27 1.6v-.02l.65-.9.8.2.7.48-.7-1.04s-.68 0-.9-.18c-.24-.17.33-.98.33-.98l.46-.28-1.1.4-1.02.22z"/><path fill="url(#H)" d="M17.3 16.8l.8.23.7.47s.75.88 1.2 1.33c.45.45 2.03 1.26 2.03 1.26l2.25.57 1.04.63-3.46.7s-.58-.23-1.16-.58c-.57-.35-1.73-.98-1.73-.98l-.98-.8s-.12-.93-.24-1.1c-.1-.18-.46-.52-.46-.52v-1.2z"/><path fill="url(#I)" d="M15.4 21.07s1.1 1.1 1.32 1.1c.14 0 .54.12.84.22-.05.02-.08.1-.03.23.12.3.87.8.87.8l-.35.12s-.8-.46-.98-.46c-.17 0-.52.74-.52.74l-.3-.52-1.3-.98-2.9.22c-.3-.05-2.05-1.2-2.9-1.64-.24-.13-.5-.27-.75-.4l2.04.2.52.35.05.12.82.1s-.25-.06-.48-.3l.54-.85.06.7 1.03.05.75.46.7.52.98-.8z"/><path fill="url(#J)" d="M19.5 23.32L21.85 22l3.46-.7-.7 1.16s.06.98.18 1.15c.1.18 0 1.05 0 1.05l-.98 1.28-.12-.24.58-.7-.06-.7-.52.06-.23-.86s-.63.23-1.2.1c-.6-.1-.87-.62-1.28-.57-.4.06-1.5.3-1.5.3z"/><path fill="url(#K)" d="M18.27 369.24l-1.02-1.57-.8-1.33-1.33-.98-2.9.22.1.05 5.95 3.6z" transform="translate(-.186 -343.02)"/><path fill="url(#L)" d="M12.13 22.6l5.95 3.62s-.8.93-1.05.95c-.26.03-1.2-.42-1.2-.42s-.8-.62-.87-.62c-.05 0-.23-.06-.36-.1-.02-.02-.04-.04-.06-.06-.4-.34-1.53-2.27-2.2-2.67 0 0 0-.68-.3-.74"/><path fill="url(#M)" d="M38.35 9c.32.07.62.15.62.15.1.1.18.17.22.23h-.02l-1 .16-.82.1-.84 1.07s-.27 1.06-.33 1.52c-.05.3-.1.86-.14 1.2-.44.02-1.14.5-1.47.78-.34.27-1.9 1.7-1.9 1.7l.5.34s1.17-.44 1.5-.44c.33 0 1.1.44 1.5.17.3-.22.92-.53 1.2-.8-.2.45-1.48 1.8-1.48 1.8s-.17.33-.45.33c-.27 0-1.38.44-1.93.6-.55.17-1.27-.05-1.27-.05l-.66-.28.28-.44s-.88.33-1.16.33c-.27 0-.4.77-.4.77s-.48 0-.43-.16c.05-.17 0-.44 0-.44l-.03-.04c.25-.28.56-.55.63-.8.1-.4-1.7-1.05-2-1.05-.27 0-2.1.77-2.1.77.73-.16 1.94-1.55 2.44-1.77.5-.22 1.83-.77 1.83-.94 0-.16-.22-.7-.22-.7.3.1.6.14.75.1.33-.08 1.2-.65 1.32-.83 0 0 .72.15.84.5.12.37.18.67.42.67s1.1-.3 1.1-.3.83-1.1.83-1.4c0-.3.38-.8.38-.8.1-.2 1.05-1.54 1.05-1.54l.44-.33.78-.17z"/><path fill="url(#N)" d="M19.5 23.32l-1-.23-.56-.6s-.17-.04-.38-.1c-.05.03-.08.1-.03.23.12.3.87.8.87.8l-.35.12s-.8-.46-.98-.46c-.17 0-.52.74-.52.74v-.02l.52.83 1 1.57.33-.24.17.57.58.7s.1-.35.28-.53c.18-.17 1.62.12 1.62.12l.75-.17.06-.47.92.12 1.04-.4-.12-.23.58-.7-.06-.7-.52.06-.23-.86s-.63.23-1.2.1c-.6-.1-.87-.62-1.28-.57-.4.06-1.5.3-1.5.3z"/><path fill="url(#O)" d="M25.9 22.92c-.06-.23-1.28-.46-1.28-.46s.06.98.18 1.15c.1.18 0 1.05 0 1.05l-1.33 1.73s-.67 1.24-1.82 1.32l.9.42s1.4.48 1.55.77c.17.27.43.72.6.84.1.07.62.43 1.02.7 0 0-.3-.9-.46-1.18-.17-.3.46-2.07.46-2.07l.35-2.73s-.12-1.32-.17-1.55z"/><path fill="url(#P)" d="M25.9 22.92l1.32-.7c0 .4.17 2.95.3 3.4.1.47.16 1.22.16 1.22l.28 1.3-1.74 2.65s-.22-.16-.5-.35c0 0-.3-.9-.46-1.2-.17-.28.46-2.06.46-2.06l.35-2.73s-.12-1.32-.17-1.55z"/><path fill="url(#Q)" d="M24.63 22.46l.7-1.16.74-.46.98.18h.04l-.17.5s.3.3.3.7l-1.33.7c-.06-.23-1.27-.46-1.27-.46z"/><path fill="url(#R)" d="M27.96 28.13l-.28-1.3s-.05-.74-.17-1.2c-.1-.46-.28-3-.28-3.4 0-.4-.3-.7-.3-.7l.23-.7s.06.55.24.73c.13.15 1 .4 1.65.52l.02.03.7.72.95.83-.6.1s-.6.68-.72 1.06c-.1.4-.56 2-.83 2.22-.28.22-.6 1.1-.6 1.1z"/><path fill="url(#S)" d="M32.25 20.57c-.5.36-.57 1-.96 1.1-.4.13-1.15.5-1.78.46-.13 0-.3-.03-.47-.06v.03l.73.72.94.83-.6.1s-.6.67-.72 1.06c-.1.4-.56 2-.83 2.22-.28.22-.6 1.1-.6 1.1l1.6-1.54.6-2.16.6-.22.23-.55.77-.06.78-2.22-.5.5-.72 1.05.6-1.55.32-.8z"/><path fill="url(#T)" d="M27.96 28.13l-1.74 2.66s.38-.34.5-.34.86-.38 1.05-.74c.2-.35.76-1.16 1.1-1.5.33-.33 1.14-1.38 1.52-1.74.37-.35 1.06-.78 1.06-.78s-1.4 1.8-1.4 1.93c0 .12.92-.6 1.14-.8.2-.23.93-1.32 1.2-1.44.3-.13 1.35-.58 1.35-.58l.5-.28v-.06l.12-.5-.33-.16 1.77-1.38s.07-.45.07-.6c0-.18-.56-.07-.56-.07l-.04-.33-.17-.55.1-.5-.4-.67.04.12-.33.6c-.98.15-1.73-.24-2.25.12l-.3.82-.62 1.53.72-1.05.5-.5-.77 2.22-.78.05-.22.55-.6.23-.6 2.15-1.62 1.55"/><path fill="url(#U)" d="M23.32 19.23c.07.23-.94.3-.94.3v.65l1.9.5 1.04.62.75-.46.98.18.1-.18c.66-.4 2.07-1.4 2.37-1.65.3-.25.72-.58.72-.58.3-.18 1.35-.12 1.35-.12.63.06 2.16.9 2.58.96.15.02.27.07.37.13l.04-.04s1.6-.22 1.7-.4c.12-.15.78.57 1.4.35.65-.66 1.92-2.04 1.92-2.04s-.1-.3-.33-.4c-.23.3-.62.96-1 .73-.4-.23-.6-.9-.94-.83-.33.05-1.44 0-1.44 0s-.17.33-.44.33c-.28 0-1.38.44-1.94.6-.55.17-1.27-.05-1.27-.05l-.66-.28.3-.44s-.9.33-1.17.33c-.28 0-.4.77-.4.77s-.5 0-.43-.16c.05-.17 0-.44 0-.44l-.02-.04c-.13.13-.26.28-.3.4-.18.4-.62 1-.62 1s-2.16 1.4-2.32 1.4c-.17 0 .22-.95-.33-.95s-1.27.22-1.82.28c-.56.05-.94-.4-1.16-.5-.02 0-.04-.02-.06-.03l.06.03z"/><path fill="url(#V)" d="M38.17 9.54l1-.15.02-.03c.16.25 0 .38.48.8-.05.52-.4.6-.48.6-.16-.4-.64-.95-1.03-1.23z"/><path fill="url(#W)" d="M37.4 15.14c-.1.4-1.48 1.83-1.48 1.83s1.1.05 1.44 0c.33-.06.55.6.94.82.38.22.77-.45 1-.73.2-.27.05-1.2.05-1.2l.66-.8s-.16-.37-.6-.26c-.44.12-.94-.05-.66-.54.27-.5.16-1.88.16-1.88v.02c-.03.1-.08.18-.12.26-.3.55-.5 1.33-.85 1.5-.1.07-.27.1-.44.15 0 .2.02.5.02.68 0 .06-.06.14-.15.23l.04-.06z"/><path fill="url(#X)" d="M39.68 10.16c-.06.6-.5.6-.5.6l.5.68.72.27 1.1.34s.6-.05.94-.05c.33 0 .54.64.54.64.38-.22.66-.34.66-.34s0-.43-.25-.43c-.52 0-1.6-.22-1.6-.22s-.5-.05-.9-.28c0 0-.34-.74-.68-.8-.23-.15-.4-.27-.52-.38l-.02-.04z"/><path fill="url(#Y)" d="M46.88 14.3s-.3-.57-.58-.57c-.28 0-.75.16-.93.1-.18-.06-1.24-.36-1.24-.36v-.1c-.25-.28-.28-.85-.28-.85l-.2-.2s-.02-.43-.26-.43v-.03c.1 0 .2 0 .23-.05.4 0 .85.35 1.3.35.46 0 .86.56.86.56l-.24.34c.74.06 1.6.8 1.6.8-.07.14-.16.3-.28.44z"/><path fill="url(#Z)" d="M39.62 17.46s.17.6.78.4c.6-.23 1.65-1.23 2.1-1.45.44-.2 1.43-.38 1.43-.38s1.33-.94 1.6-1.5c.28-.54.12-.7.12-.7-.1.03-.2.03-.28 0-.18-.05-1.24-.35-1.24-.35h.04c0 .36-.72 1.04-1 1.12-.34.08-.94.68-1.4 1.04l-.17-.33c0-.7.4-1.97.48-2.3.1-.33.48-.1.72-.24.07-.04.13-.08.2-.1 0 0-.23-.67-.56-.67-.33 0-.94.04-.94.04l-1.1-.33-.72-.26-.5-.66.08.17c.05.34-.12.95-.35 1.46v-.02s.1 1.38-.16 1.88c-.28.5.22.66.66.55.44-.1.6.3.6.3l-.65.76s.16.94-.06 1.22c.23.08.32.38.32.38z"/><path fill="url(#aa)" d="M23.4 15.9s.08.3.53.3c.44 0 1.43-.3 1.43-.3l1.05.62s1.84-.77 2.1-.77c.3 0 2.12.66 2 1.05-.1.38-.77.83-.94 1.2-.16.4-.6 1-.6 1s-2.16 1.4-2.32 1.4c-.17 0 .22-.95-.34-.95-.55 0-1.27.22-1.82.28-.55.05-.94-.4-1.16-.5-.22-.1-.44-.33-.44-.33l.4-.3c.32.1.58.13.7-.03.33-.45-.16-.6-.33-1.1-.16-.5 0-1.1 0-1.1s-.1-.22-.24-.46z"/><path fill="url(#ab)" d="M23.4 15.9s.08.3.53.3c.44 0 1.43-.3 1.43-.3l1.05.62c.73-.16 1.95-1.55 2.45-1.77.5-.22 1.82-.77 1.82-.94 0-.16-.2-.7-.2-.7-.45-.1-.9-.25-.9-.25s-.38-.42-.74-.42-1.02.36-1.02.5c0 .16-.5.8-.7.8-.22 0-.76-.2-1.24.02-.5.2-1-.1-1.27-.3-.28-.2-.64-.12-.94-.12-.3 0-.54.42-.75.57-.2.15-.6 0-.9.48l-.35.37c.32-.05.78.35 1.06.4.23.02.5.43.7.76z"/><path fill="url(#ac)" d="M14.46 25.98c.4.34.82 1.3 1.44 1.47.4 0 2.85.5 3.13.8.1.08.26.18.46.28.23.03.8-.62 1.13-.74.22-.08.6-.1.82-.1 1.27.06 2.02-1.32 2.02-1.32l.35-.46-1.04.4-.92-.1-.06.45-.75.17s-1.44-.3-1.62-.1c-.17.16-.28.5-.28.5l-.58-.7-.17-.56-.32.24s-.8.93-1.05.96c-.26.02-1.2-.43-1.2-.43s-.8-.62-.87-.62c-.07 0-.5-.15-.5-.15z"/><path fill="url(#ad)" d="M37.7 19.5c.6-.22.43.28.43.28l-1.38.67s-.72.16-1 .38c-.27.22-.16.9-.16.9-.15 0-.3.04-.3.04l-.04-.33-.17-.55.1-.5-.6-.84s1.6-.22 1.7-.4c.12-.15.78.57 1.4.35z"/><path fill="url(#ae)" d="M35.6 21.74c.13 0 .26 0 .26.1 0 .15-.05.6-.05.6l-1.76 1.38.33.16-.1.5.07.1c.66-.76 2.4-2.3 3.04-3.27 0 0 .9.18 1.3-.16.4-.34.9-1.82.97-2.33.06-.5 1.25-.56 1.6-.84.33-.28 1.64-.9 2.83-1.08 0 0 1.97-1.44 2.8-2.56 0 0-.3-.6-.58-.6-.2 0-.44.08-.65.1 0 0 .16.16-.1.7-.3.56-1.62 1.5-1.62 1.5s-1 .17-1.43.4c-.45.2-1.5 1.2-2.1 1.43-.6.22-.78-.4-.78-.4s-1.27 1.4-1.93 2.06c.6-.22.43.28.43.28l-1.38.67s-.72.16-1 .38c-.27.22-.16.9-.16.9z"/><path fill="url(#af)" d="M26.47 31.43c-.45-.23-1.13-.46-1.13-.46s-.3-.8-.74-1.02c-.46-.23-1.93-1.42-2.45-1.42-.5 0-.96.45-1.3.45-.24 0-.9-.22-1.36-.45.23.03.8-.62 1.13-.74.33-.12 1.02-.1 1.02-.1l.9.43s1.4.47 1.55.76c.17.28.43.73.6.85.16.1 1.52 1.04 1.52 1.04l.26.35v.28z"/><path fill="url(#ag)" d="M34.54 24.37l-.8.45s-1.04.45-1.33.57c-.27.1-1 1.2-1.2 1.42-.22.2-1.15.93-1.15.8 0-.1 1.4-1.92 1.4-1.92s-.68.43-1.06.78c-.4.36-1.2 1.4-1.54 1.74-.33.33-.9 1.15-1.1 1.5-.18.36-.92.74-1.04.74s-.5.33-.5.33l.26.35v.27s1-.8 1.64-1.25c.62-.45 4.03-3.35 4.43-3.92.4-.56 1.54-.85 1.54-1.25 0-.1.18-.35.48-.67l-.04.04z"/><g transform="translate(-.186 -343.02)"><linearGradient x1="13.982" x2="9.745" y1="359.77" y2="360.942" gradientUnits="userSpaceOnUse"><stop offset="0" stop-color="#fff"/><stop offset="1" stop-color="#737B87"/></linearGradient><path fill="url(#ah)" d="M9.57 361.8s.94-.82.94-1.04l.3-.88-1.74.43c-.14.1-.85.33-1.5.54l.85.9 1.17.07z"/><linearGradient x1="9.799" x2="6.374" y1="364.338" y2="356.856" gradientUnits="userSpaceOnUse"><stop offset="0" stop-color="#fff"/><stop offset="1" stop-color="#737B87"/></linearGradient><path fill="url(#ai)" d="M6.93 362.3l.8.3.85.94 2.04.2.53.34-.36-.85-.24-.35.3-.58-1.3-.5-1.15-.05-.84-.9c-.6.2-1.17.37-1.17.37l.53 1.08z"/></g><path fill="url(#aj)" d="M26.42 5.86c-.23.07-.4.16-.55.3-.13.13-.37.43-.37.62 0 .2.05.42.1.5.07.1 1.1.88 1.36.9.28.04 2.14-.26 2.26-.35.12-.1.2-.63.45-.93.24-.3.3-1.1.27-1.5-.03-.43-.57-.64-.57-.64s-1.08-.3-1.23-.15c-.15.16-1.57 1.2-1.72 1.26z"/><path fill="url(#ak)" d="M37.36 9.63l.8-.1c.47.34 1.04 1.03 1.1 1.42.06.4-.18 1.18-.48 1.7-.3.56-.5 1.34-.85 1.52-.36.18-1.14.24-1.44.18-.3-.06-.46-.63-.46-.63s.1-1.06.15-1.5c.05-.46.32-1.5.32-1.5l.84-1.1z"/><path fill="url(#al)" d="M42.8 12.76c.48-.3.84-.45.84-.45l.2.22s.04.57.28.84c.24.27-.63 1.14-.96 1.23-.33.08-.93.68-1.38 1.04l-.18-.33c0-.7.4-1.97.48-2.3.1-.33.48-.1.72-.24z"/><path fill="url(#am)" d="M27.14 20.84c.67-.4 2.08-1.4 2.38-1.65.3-.25.72-.58.72-.58.3-.18 1.35-.12 1.35-.12.63.06 2.16.9 2.58.96.42.06.66.4.66.4l-.33.6c-.98.14-1.73-.25-2.25.1-.5.37-.57 1-.96 1.12-.4.12-1.15.48-1.78.45-.63-.03-1.95-.4-2.13-.57-.2-.18-.26-.72-.26-.72z"/><path fill="url(#an)" d="M16.78 12.45c-.1-.32 1.05-1.26 1.05-1.26l.8-.13s1.33.27 1.5.4c.2.1-.2.78-.2.78s-.72.63-.8.93c-.1.3-.55.84-.55.84s-.84.24-.84 0 .42-.48-.12-.84-.78-.52-.84-.73z"/><path fill="url(#ao)" d="M18.37 2.03c.25-.16 1.26-.18 1.44.2.2.4-.17.76-.17.76s-.42.83-.72 1.37c-.3.54-.62.8-.77.78-.15-.03-.63-.18-1-.12-.35.06-.8-.18-.8-.27 0-.1.84-1.3 1.2-1.86.36-.57.75-.8.84-.87z"/><path fill="url(#ap)" d="M13.14 7.08s.6-.97 1-1.18c.38-.2 1.62-.63 1.62-.63l.45-.33s.7.06.7.2c0 .16.36 1.28.36 1.28s-.7.8-.45 1.05c.25.24.9.78.9.93 0 .15-.32 1.4-.83 1.35-.5-.06-.93-.9-1.32-.93-.4-.03-.9.9-1.33 1.05-.42.15-.12.8-.12.8s.63.55.66.97c.03.43-.15 1.03-.15 1.03l-.8.15c-.48-.33-1.17-1.6-1.17-1.6s-1.1-.08-1.14-.24c-.04-.15.23-.87.23-.87s.48-1.37.66-1.73c.17-.36.47-.9.74-1.3z"/><path fill="url(#aq)" d="M3.95 12.64c.03-.64 1.74-2 2.16-2 .43 0 .6.77 1 .97.4.23.9.95.87 1.2-.03.23-1.14 1.13-1.47 1.13-.33 0-.63-.66-.75-.66s-.18.7-.4.84c-.2.16-.53.13-.77-.05s-.63-1.4-.63-1.4z"/><path fill="url(#ar)" d="M10.02 13.72c.2-.12-.1 1.62-.1 1.62s-.77 1.8-1.05 1.95c-.27.14-2.67.9-2.67.9s-.9-1-.9-1.1c0-.08 1.2-.68 1.35-.68.15 0 1.1-.2 1.1-.2l.85-.85s1.18-1.5 1.42-1.65z"/><path fill="url(#as)" d="M11.88 16.93c.18-.45.6-1.05.6-1.05l1.6-.8c.5 0 1.8.56 1.8.56s.5.33.5.5c0 .2.3 1.78.3 1.78s-.7 2-.86 2.4c-.15.43-1.05.97-1.3 1.03-.23.06-.78-.27-.78-.27l-.45-1.62s-.2-1.02-.46-1.24c-.27-.2-1-.87-1-.87l.04-.42z"/><path fill="url(#at)" d="M21.38 15.03s-.22.5-.22.66c0 .16.22.77.22.77s-.16 1 .33 1.27c.5.27 1.95 1.27 2.28.83.33-.45-.17-.6-.33-1.1-.17-.5 0-1.1 0-1.1s-.55-1.17-.94-1.23c-.38-.06-1.1-.77-1.32-.1z"/><path fill="url(#au)" d="M36.1 13.43c-.46 0-1.18.5-1.5.77-.34.27-1.9 1.7-1.9 1.7l.5.34s1.17-.44 1.5-.44c.33 0 1.1.44 1.5.17.38-.28 1.32-.72 1.32-1 0-.27-.05-.88-.05-.88s-.72-.23-.94-.3c-.22-.04-.44-.37-.44-.37z"/><path fill="url(#av)" d="M20.25 359.94l.4-.7.47 1.16-.12.7-.75-1.16z" transform="translate(-.186 -343.02)"/><path fill="url(#aw)" d="M17.3 18.02l.12.8s-.4.46-.7.98c-.28.52-1.32 1.27-1.32 1.27s1.1 1.1 1.32 1.1c.23 0 1.2.35 1.2.35l.6.57.97.22L21.85 22s-.58-.23-1.16-.58c-.57-.35-1.73-.98-1.73-.98l-.98-.8s-.12-.93-.24-1.1c-.1-.18-.46-.52-.46-.52z"/><path fill="url(#ax)" d="M10.6 16.86c.9-.55 1.05-1.36 1.33-1.78.33-.5-.4-1.6-.55-1.77-.17-.15-.22-1.42-.22-1.42l-1.88-.72.17.05s.4.76.58.87c.17.12.64.4.64.4l.17 1v1.26s-.4 2.2-.23 2.13z"/></g></svg>