<svg xmlns="http://www.w3.org/2000/svg" width="48" height="48" xmlns:xlink="http://www.w3.org/1999/xlink"><defs><linearGradient id="a"><stop offset="0" stop-color="#fff"/><stop offset="1" stop-color="#edd400"/></linearGradient><radialGradient cx="25.182" cy="24.538" r="3.51" xlink:href="#a" gradientUnits="userSpaceOnUse" gradientTransform="matrix(.726 .654 -.779 .864 26.014 -13.125)" fx="25.182" fy="24.538"/><radialGradient cx="25.182" cy="24.538" r="3.51" xlink:href="#a" gradientUnits="userSpaceOnUse" gradientTransform="matrix(.726 .654 -.779 .864 26.014 -13.125)" fx="25.182" fy="24.538"/><radialGradient cx="25.182" cy="24.538" r="3.51" xlink:href="#a" gradientUnits="userSpaceOnUse" gradientTransform="matrix(.726 .654 -.779 .864 26.014 -13.125)" fx="25.182" fy="24.538"/><radialGradient id="b" cx="25.182" cy="24.538" r="3.51" xlink:href="#a" gradientUnits="userSpaceOnUse" gradientTransform="matrix(.726 .654 -.779 .864 26.014 -13.125)" fx="25.182" fy="24.538"/><radialGradient id="c" cx="25.182" cy="24.538" r="3.51" xlink:href="#a" gradientUnits="userSpaceOnUse" gradientTransform="matrix(.726 .654 -.779 .864 26.014 -13.125)" fx="25.182" fy="24.538"/></defs><g fill-rule="evenodd" stroke-linejoin="round"><path fill="#ef2929" stroke="#a40000" d="M4.47 24.17L30.5 39.62c1 .67 1 2.05 0 2.34L4.47 26.52c-.9-.65-.8-1.64 0-2.35z" overflow="visible"/><path fill="#729fcf" stroke="#204a87" d="M28.46 24.07L1.36 39.44c-1.03.68-1.03 2.04 0 2.33l27.1-15.37c.92-.64.77-2 0-2.33z" overflow="visible"/><rect width="2.709" height="31.589" x="14.858" y="15.977" fill="#cee14b" stroke="#727e0a" ry="1.044" overflow="visible"/><path fill="url(#b)" stroke="#917600" stroke-width="1.224" d="M28.96 25.02a3 3 0 1 1-6.02 0 3 3 0 1 1 6.02 0z" transform="matrix(.781 0 0 .855 -4.273 10.801)" overflow="visible"/><path fill="#ef2929" stroke="#a40000" d="M17.02 17.6l28.95-7.4c1.17-.2 2.13.74 1.64 1.64l-28.94 7.4c-1.07.17-1.7-.58-1.64-1.64z" overflow="visible"/><path fill="#729fcf" stroke="#204a87" d="M33.7.78l-8.2 29.65c-.24 1.2.7 2.15 1.64 1.63L35.32 2.4c.2-1.08-.85-1.9-1.62-1.62z" overflow="visible"/><rect width="2.675" height="31.187" x="9.844" y="16.388" fill="#cee14b" stroke="#727e0a" ry="1.031" transform="rotate(-45.009)" overflow="visible"/><path fill="url(#c)" stroke="#917600" stroke-width="1.239" d="M28.96 25.02a3 3 0 1 1-6.02 0 3 3 0 1 1 6.02 0z" transform="matrix(.546 -.546 .597 .597 1.579 14.371)" overflow="visible"/></g></svg>