<svg xmlns="http://www.w3.org/2000/svg" width="48" height="48" xmlns:xlink="http://www.w3.org/1999/xlink"><defs><linearGradient id="b"><stop offset="0"/><stop offset="1" stop-opacity="0"/></linearGradient><linearGradient id="a"><stop offset="0" stop-color="#dfdfdf"/><stop offset="1" stop-color="#8f8f8f"/></linearGradient><radialGradient id="c" cx="17.945" cy="25.199" r="24.599" xlink:href="#a" fx="17.945" fy="25.199" gradientTransform="matrix(1 .006 -.008 1.255 .147 4.773)" gradientUnits="userSpaceOnUse"/><linearGradient id="d" x1="26.603" x2="44" y1="31.016" y2="31.587" xlink:href="#b" gradientUnits="userSpaceOnUse" gradientTransform="translate(0 6.095)"/></defs><g><path fill="#fff" fill-rule="evenodd" stroke="#000" stroke-width="1.5" stroke-dashoffset="2.6" d="M18.05 13.9c2.78-.83 7.44-.93 11.06.26l3.03 4.38H15.8l2.25-4.64z" stroke-linecap="round" stroke-linejoin="bevel" overflow="visible" enable-background="accumulate"/><path fill="url(#c)" fill-rule="evenodd" stroke="#000" stroke-width="1.5" d="M.08 47.12c15.9-4.57 31.8-3.82 47.7 0L35.6 30.22c-8.3-3.25-16.6-3.25-24.92 0L.08 47.12z"/><path fill="none" stroke="#fff" stroke-width="1.5" d="M3.56 44.6c13.38-3.33 26-2.8 40.53.07L34.7 31.5c-7.2-2.87-15.95-2.8-22.96 0L3.56 44.6z"/><path fill="#d3d3d3" fill-rule="evenodd" stroke="#000" stroke-width="1.5" stroke-dashoffset="2.6" d="M16 18.66c5.3-.84 10.62-.48 15.94 0V38.6c-5.58-.62-10.87-.57-15.94 0V18.66z" stroke-linecap="round" overflow="visible" enable-background="accumulate"/><path fill="url(#d)" fill-rule="evenodd" d="M32.57 39.37c2.75.18 7.95 1.43 11.43 2.8l-5.02-7.2c-1.82-.83-4.57-1.55-6.66-1.76l.25 6.17z"/><path fill="none" stroke="#fff" stroke-width="1.5" stroke-dashoffset="2.6" d="M17.4 20.15c4.38-.7 8.76-.4 13.14 0v16.9c-4.6-.54-8.96-.5-13.14 0v-16.9z" stroke-linecap="round" overflow="visible" enable-background="accumulate"/><path fill="#ef2929" fill-rule="evenodd" stroke="#fff" stroke-dashoffset="2.6" d="M23.5-.13l-6 10.38h4.2v6.25h3.6v-6.25h4.2l-6-10.38z" stroke-linecap="round" overflow="visible" enable-background="accumulate"/></g></svg>