<svg xmlns="http://www.w3.org/2000/svg" width="48" height="48"><g><path fill="#888a85" fill-rule="evenodd" stroke="#555753" stroke-width="1.9964000000000002" d="M19.55 39.44a7.37 7.37 0 1 1-14.74 0 7.37 7.37 0 1 1 14.75 0z" stroke-linejoin="round" overflow="visible"/><path fill="none" stroke="#babdb6" stroke-width=".991" d="M11.3 34a2.73 2.65 0 1 1-5.45 0 2.73 2.65 0 1 1 5.45 0z" transform="matrix(2.005 0 0 2.033 -4.923 -29.658)" stroke-linejoin="round" overflow="visible"/><path fill="#888a85" fill-rule="evenodd" stroke="#555753" stroke-width=".612" d="M10.86 34a2.3 2.3 0 1 1-4.57 0 2.3 2.3 0 1 1 4.56 0z" transform="matrix(3.265 0 0 3.266 10.251 -102.39)" stroke-linejoin="round" overflow="visible"/><path fill="none" stroke="#babdb6" stroke-width=".978" d="M11.3 34a2.73 2.65 0 1 1-5.45 0 2.73 2.65 0 1 1 5.45 0z" transform="matrix(2.03 0 0 2.059 20.91 -61.344)" stroke-linejoin="round" overflow="visible"/><g fill="none" stroke="#fff" stroke-width="4.216" stroke-linecap="square"><path d="M40.48 10.05L36.2 6.4"/><path d="M12.43 39.4L38.6 8.46"/><path d="M14.58 41.7l-4.82-4.36" overflow="visible" enable-background="accumulate"/></g><path fill="none" stroke="#ef2929" stroke-width="2" d="M14.58 41.7l-4.82-4.36"/><path fill="none" stroke="#ef2929" stroke-width="2" d="M40.48 10.05L36.2 6.4"/><path fill="none" stroke="#ef2929" stroke-width="2" d="M12.43 39.4L38.6 8.46" stroke-dasharray="1.99999998, 1.99999998"/></g></svg>