<svg xmlns="http://www.w3.org/2000/svg" width="48" height="48" xmlns:xlink="http://www.w3.org/1999/xlink"><defs><linearGradient id="a"><stop offset="0"/><stop offset="1" stop-opacity="0"/></linearGradient><radialGradient id="b" cx="31.312" cy="30.379" r="23.429" xlink:href="#a" fx="31.312" fy="30.379" gradientUnits="userSpaceOnUse" gradientTransform="matrix(1.243 -.028 .029 1.28 -8.484 -7.647)"/></defs><g><path fill="url(#b)" fill-rule="evenodd" d="M47.37 23.8a23.43 23.43 0 1 1-46.86 0 23.43 23.43 0 1 1 46.87 0z" transform="matrix(1.024 0 0 1.024 -.52 -.39)" overflow="visible" enable-background="accumulate"/><path fill="none" stroke="#fff" stroke-opacity=".502" stroke-width="3" d="M48 24c0 4.03-10.75 7.3-24 7.3S0 28.03 0 24" stroke-linejoin="bevel" overflow="visible" enable-background="accumulate"/><path fill="none" stroke="#fff" stroke-opacity=".502" stroke-width="3" d="M24.54.1c4.03 0 7.3 10.75 7.3 24 0 13.24-3.27 24-7.3 24" stroke-linejoin="bevel" overflow="visible" enable-background="accumulate"/><path fill="none" stroke="#ef2929" d="M24.54.1c4.03 0 7.3 10.75 7.3 24 0 13.24-3.27 24-7.3 24" stroke-linejoin="bevel" stroke-dasharray="2, 1" overflow="visible" enable-background="accumulate"/><path fill="none" stroke="#ef2929" d="M48 24c0 4.03-10.75 7.3-24 7.3S0 28.03 0 24" stroke-linejoin="bevel" stroke-dasharray="2,1" overflow="visible" enable-background="accumulate"/></g></svg>