<svg xmlns="http://www.w3.org/2000/svg" width="48" height="48" xmlns:xlink="http://www.w3.org/1999/xlink"><defs><linearGradient id="a"><stop offset="0" stop-color="#e3e9eb"/><stop offset="1" stop-color="#b1c6ce"/></linearGradient><radialGradient id="b" cx="25.643" cy="25.214" r="25.714" xlink:href="#a" fx="25.643" fy="25.214" gradientUnits="userSpaceOnUse"/></defs><g><path fill="url(#b)" d="M49.86 25.2a24.2 24.2 0 1 1-48.43 0 24.2 24.2 0 1 1 48.43 0z" transform="matrix(.929 0 0 .929 .173 .571)" color="#000" overflow="visible" enable-background="accumulate"/><path fill="#fff" d="M26.14 15.3h17.43v17.56H26.14z" color="#000" overflow="visible" enable-background="accumulate"/><g style="text-align:start;line-height:125%;-inkscape-font-specification:Baskerville" font-size="18" letter-spacing="0" word-spacing="0" font-family="Baskerville"><path d="M14.6 27.95h-.4l-2.14-5.7-2.2 5.7H9.5l-2.2-5.7c-.25-.66-.44-1.05-.56-1.18-.12-.13-.37-.2-.74-.2v-.4h3.3v.4c-.38 0-.63.04-.77.1-.12.08-.2.2-.2.35 0 .12.13.46.35 1.03l1.46 3.86 2.25-5.73h.34l2.15 5.74 1.58-4.08c.17-.43.26-.7.26-.78 0-.3-.3-.44-.9-.46v-.4h2.34v.4c-.28 0-.5.06-.67.16-.16.1-.3.33-.44.7l-.2.5-2.23 5.7"/><path d="M23.02 23.58l2.02 2.54c.35.44.64.74.87.9.24.15.52.23.84.25v.4h-3.6v-.4c.6 0 .9-.12.9-.35 0-.1-.14-.3-.4-.6l-1.43-1.77-1.3 1.56c-.33.4-.5.62-.5.72 0 .3.33.44.98.45v.4h-2.96v-.4c.26 0 .54-.07.85-.2.3-.14.7-.5 1.2-1.08l1.5-1.77-1.6-2c-.45-.58-.8-.95-1.03-1.1-.23-.17-.5-.25-.82-.25v-.4h3.4v.4c-.5 0-.74.1-.74.32 0 .1.1.28.32.54l1.27 1.56 1.17-1.37c.26-.32.4-.5.4-.6 0-.3-.33-.45-.97-.45v-.4h2.85v.4c-.57 0-1.17.37-1.78 1.08l-1.42 1.62"/><path d="M31.47 26.3l1.67-4c.24-.58.36-.9.36-.97 0-.3-.32-.44-.97-.45v-.4h2.53v.4c-.4 0-.68.12-.86.3-.2.2-.4.62-.68 1.27l-3.2 7.74c-.3.73-.58 1.23-.82 1.5-.23.26-.5.4-.77.4-.38 0-.57-.17-.57-.52 0-.4.3-.73.9-1 .37-.17.6-.3.72-.4.13-.13.25-.33.36-.62l.7-1.7-2.72-5.82c-.24-.5-.44-.83-.6-.96-.15-.14-.42-.2-.8-.2v-.4h3.3v.4c-.58 0-.87.13-.87.36 0 .08.1.37.34.86l1.97 4.2"/><path d="M35.53 27.67v-.27l4.77-6.52h-2.62c-.33 0-.56.02-.68.07-.12.04-.26.18-.43.42-.17.23-.33.6-.5 1.1h-.33l.12-2h6.03v.32l-4.76 6.47h1.97c.65 0 1.07-.04 1.3-.1.2-.08.42-.25.63-.53.2-.28.43-.7.64-1.26h.35l-.2 2.3h-6.3"/></g><path fill="none" stroke="#204a87" stroke-width="2.79.229" d="M46.5 24a22.5 22.5 0 1 1-45 0 22.5 22.5 0 1 1 45 0z" color="#000" stroke-linecap="round" stroke-linejoin="round" overflow="visible" enable-background="accumulate"/></g></svg>