<svg xmlns="http://www.w3.org/2000/svg" width="48" height="48" xmlns:xlink="http://www.w3.org/1999/xlink"><defs><linearGradient id="b"><stop offset="0" stop-color="#ffcf83"/><stop offset="1" stop-color="#f7ae00"/></linearGradient><linearGradient id="a"><stop offset="0" stop-color="#ce5c00"/><stop offset="1" stop-color="#9f4700"/></linearGradient><linearGradient x1="17.857" x2="41.286" y1="17" y2="39.571" xlink:href="#a" gradientUnits="userSpaceOnUse" gradientTransform="matrix(1.043 0 0 1.043 -1.831 -.043)"/><radialGradient cx="24.685" cy="24.541" r="21.113" xlink:href="#b" fx="24.685" fy="24.541" gradientTransform="translate(0 0)" gradientUnits="userSpaceOnUse"/></defs><g font-size="14" font-style="italic" font-family="Georgia"><path fill="none" stroke="#fff" stroke-width="3" d="M43 10.56c0 3.04-.96 5.66-2.9 7.84-1.92 2.18-4.73 3.92-8.42 5.2-2.7 1-5.43 1.78-8.18 2.38-2.76.6-5.8 1.1-9.15 1.5 0 4.54.85 8 2.55 10.4 1.7 2.4 4.2 3.6 7.47 3.6 2.9 0 5.46-.7 7.68-2.15 2.23-1.43 4.4-3.57 6.56-6.42l2.5 1.82c-2.33 3.5-5.23 6.3-8.72 8.4-3.48 2.1-7.1 3.15-10.84 3.15-5.14 0-9.07-1.42-11.8-4.27-2.7-2.84-4.06-6.87-4.06-12.1 0-3.62.57-7.07 1.72-10.36 1.15-3.3 2.82-6.3 5.03-9.03 2.15-2.66 4.8-4.8 7.9-6.45C23.47 2.42 26.92 1.6 30.7 1.6c4.18 0 7.28.84 9.3 2.52C42 5.8 43 7.94 43 10.56zm-8-1.08c0-1.12-.16-2-.48-2.65-.32-.64-.73-1.13-1.22-1.44-.53-.36-1.08-.57-1.66-.66-.58-.08-1.18-.13-1.78-.13-3.5 0-6.7 1.9-9.65 5.7-2.94 3.8-4.8 8.5-5.6 14.17 2.04-.3 4.34-.7 6.9-1.23 2.55-.53 4.67-1.22 6.35-2.1 2.4-1.22 4.2-2.8 5.38-4.75C34.4 14.45 35 12.14 35 9.47z" style="-inkscape-font-specification:Georgia Italic"/><path d="M43 10.56c0 3.04-.96 5.66-2.9 7.84-1.92 2.18-4.73 3.92-8.42 5.2-2.7 1-5.43 1.78-8.18 2.38-2.76.6-5.8 1.1-9.15 1.5 0 4.54.85 8 2.55 10.4 1.7 2.4 4.2 3.6 7.47 3.6 2.9 0 5.46-.7 7.68-2.15 2.23-1.43 4.4-3.57 6.56-6.42l2.5 1.82c-2.33 3.5-5.23 6.3-8.72 8.4-3.48 2.1-7.1 3.15-10.84 3.15-5.14 0-9.07-1.42-11.8-4.27-2.7-2.84-4.06-6.87-4.06-12.1 0-3.62.57-7.07 1.72-10.36 1.15-3.3 2.82-6.3 5.03-9.03 2.15-2.66 4.8-4.8 7.9-6.45C23.47 2.42 26.92 1.6 30.7 1.6c4.18 0 7.28.84 9.3 2.52C42 5.8 43 7.94 43 10.56zm-8-1.08c0-1.12-.16-2-.48-2.65-.32-.64-.73-1.13-1.22-1.44-.53-.36-1.08-.57-1.66-.66-.58-.08-1.18-.13-1.78-.13-3.5 0-6.7 1.9-9.65 5.7-2.94 3.8-4.8 8.5-5.6 14.17 2.04-.3 4.34-.7 6.9-1.23 2.55-.53 4.67-1.22 6.35-2.1 2.4-1.22 4.2-2.8 5.38-4.75C34.4 14.45 35 12.14 35 9.47z" style="-inkscape-font-specification:Georgia Italic"/></g></svg>