<svg xmlns="http://www.w3.org/2000/svg" width="48" height="48" xmlns:xlink="http://www.w3.org/1999/xlink"><defs><linearGradient id="b"><stop offset="0" stop-color="#fff"/><stop offset="1" stop-color="#d3d3d3"/></linearGradient><linearGradient id="a"><stop offset="0"/><stop offset="1" stop-opacity="0"/></linearGradient><radialGradient id="c" cx="25.571" cy="26.429" r="8.857" xlink:href="#a" fx="25.571" fy="26.429" gradientUnits="userSpaceOnUse"/><radialGradient id="d" cx="22.619" cy="22.164" r="9.431" xlink:href="#b" fx="22.619" fy="22.164" gradientUnits="userSpaceOnUse"/></defs><g fill-rule="evenodd"><path fill="#fce94f" stroke="#c4a000" stroke-width=".5.984" stroke-dashoffset="2.6" d="M15.4 3.38L13.33 7.4l4.4.7-4.06 2.03 3.13 3.15-4.47-.74.68 4.4-3.17-3.24-2.03 3.96-.67-4.48-3.97 2 2.1-4-4.4-.7 4.06-2.04L1.78 5.3l4.47.73-.7-4.4 3.2 3.24L10.76.9l.67 4.5 3.97-2.02z" stroke-linecap="round" overflow="visible" enable-background="accumulate"/><path fill="url(#c)" d="M34.43 26.43a8.86 8.86 0 1 1-17.72 0 8.86 8.86 0 1 1 17.73 0z" transform="matrix(1.028 0 0 .323 11.867 36.595)" overflow="visible" enable-background="accumulate"/><path fill="#ef2929" stroke="#fff" d="M8.56 8.28l3.28 12.44 2.7-2.3 22.08 27h4.44l-23.7-29.3 2.8-2.4-11.6-5.44z"/><path fill="url(#d)" stroke="#2e3436" stroke-width="1.148" stroke-dashoffset="2.6" d="M34.43 26.43a8.86 8.86 0 1 1-17.72 0 8.86 8.86 0 1 1 17.73 0z" transform="matrix(.871 0 0 .871 3.141 5.632)" stroke-linecap="round" overflow="visible" enable-background="accumulate"/></g></svg>