<svg xmlns="http://www.w3.org/2000/svg" width="48" height="48" xmlns:xlink="http://www.w3.org/1999/xlink"><defs><linearGradient id="a"><stop offset="0" stop-color="#eeeeec"/><stop offset="1" stop-color="#eeeeec" stop-opacity="0"/></linearGradient><linearGradient id="b" x1="7.757" x2="8.513" y1="5" y2="11" xlink:href="#a" gradientUnits="userSpaceOnUse" gradientTransform="matrix(1.781 0 0 4.63 10.324 -13.044)"/></defs><g><path fill="none" stroke="#fff" stroke-width="3" d="M43.3 18.57L24.3 24"/><path fill="none" stroke="#fff" stroke-width="3" d="M44 29.7l-11-5.27"/><path fill="#729fcf" fill-rule="evenodd" stroke="#204a87" stroke-width="2" stroke-dashoffset="4.2" d="M11.2 10.64h26.73v26.72H11.2z" stroke-linecap="square" overflow="visible"/><path fill="none" stroke="url(#b)" stroke-width="2" stroke-dashoffset="4.2" d="M13 12.42h23.15v23.16H13z" stroke-linecap="square" overflow="visible"/><path fill="none" stroke="#204a87" stroke-width="2" d="M18.02 12.42v23.1" stroke-linecap="square"/><path fill="none" stroke="#204a87" stroke-width="2" d="M24.36 12.47v23.1" stroke-linecap="square"/><path fill="none" stroke="#204a87" stroke-width="2" d="M36.15 17.36h-23.1" stroke-linecap="square"/><path fill="none" stroke="#204a87" stroke-width="2" d="M36.1 24.45H13" stroke-linecap="square"/><path fill-rule="evenodd" stroke="#fff" d="M7.7 4.3a3.57 3.57 0 1 1-7.13 0 3.57 3.57 0 1 1 7.14 0z" stroke-linecap="round" overflow="visible" enable-background="accumulate"/><path fill-rule="evenodd" stroke="#fff" d="M47.57 4.3a3.57 3.57 0 1 1-7.14 0 3.57 3.57 0 1 1 7.14 0z" stroke-linecap="round" overflow="visible" enable-background="accumulate"/><path fill-rule="evenodd" stroke="#fff" d="M17.68 4.3a3.57 3.57 0 1 1-7.14 0 3.57 3.57 0 1 1 7.14 0z" stroke-linecap="round" overflow="visible" enable-background="accumulate"/><path fill="none" stroke="#204a87" stroke-width="2" d="M36.1 30.83H13" stroke-linecap="square"/><path fill="none" stroke="#204a87" stroke-width="2" d="M30.55 12.47v23.1" stroke-linecap="square"/><path fill-rule="evenodd" stroke="#fff" d="M27.64 4.3a3.57 3.57 0 1 1-7.14 0 3.57 3.57 0 1 1 7.14 0z" stroke-linecap="round" overflow="visible" enable-background="accumulate"/><path fill-rule="evenodd" stroke="#fff" d="M37.6 4.3a3.57 3.57 0 1 1-7.14 0 3.57 3.57 0 1 1 7.15 0z" stroke-linecap="round" overflow="visible" enable-background="accumulate"/><path fill-rule="evenodd" stroke="#fff" d="M7.7 43.9a3.57 3.57 0 1 1-7.13 0 3.57 3.57 0 1 1 7.14 0z" stroke-linecap="round" overflow="visible" enable-background="accumulate"/><path fill-rule="evenodd" stroke="#fff" d="M47.57 43.9a3.57 3.57 0 1 1-7.14 0 3.57 3.57 0 1 1 7.14 0z" stroke-linecap="round" overflow="visible" enable-background="accumulate"/><path fill-rule="evenodd" stroke="#fff" d="M17.68 43.9a3.57 3.57 0 1 1-7.14 0 3.57 3.57 0 1 1 7.14 0z" stroke-linecap="round" overflow="visible" enable-background="accumulate"/><path fill-rule="evenodd" stroke="#fff" d="M27.64 43.9a3.57 3.57 0 1 1-7.14 0 3.57 3.57 0 1 1 7.14 0z" stroke-linecap="round" overflow="visible" enable-background="accumulate"/><path fill-rule="evenodd" stroke="#fff" d="M37.6 43.9a3.57 3.57 0 1 1-7.14 0 3.57 3.57 0 1 1 7.15 0z" stroke-linecap="round" overflow="visible" enable-background="accumulate"/><path fill-rule="evenodd" stroke="#fff" d="M4.07 18a3.57 3.57 90 1 1 0-7.15 3.57 3.57 90 1 1 0 7.14z" stroke-linecap="round" overflow="visible" enable-background="accumulate"/><path fill-rule="evenodd" stroke="#fff" d="M4.07 27.95a3.57 3.57 90 1 1 0-7.14 3.57 3.57 90 1 1 0 7.15z" stroke-linecap="round" overflow="visible" enable-background="accumulate"/><path fill-rule="evenodd" stroke="#fff" d="M4.07 37.92a3.57 3.57 90 1 1 0-7.15 3.57 3.57 90 1 1 0 7.15z" stroke-linecap="round" overflow="visible" enable-background="accumulate"/><path fill-rule="evenodd" stroke="#fff" d="M43.88 18a3.57 3.57 90 1 1 0-7.15 3.57 3.57 90 1 1 0 7.14z" stroke-linecap="round" overflow="visible" enable-background="accumulate"/><path fill-rule="evenodd" stroke="#fff" d="M43.88 27.95a3.57 3.57 90 1 1 0-7.14 3.57 3.57 90 1 1 0 7.15z" stroke-linecap="round" overflow="visible" enable-background="accumulate"/><path fill-rule="evenodd" stroke="#fff" d="M43.88 37.92a3.57 3.57 90 1 1 0-7.15 3.57 3.57 90 1 1 0 7.15z" stroke-linecap="round" overflow="visible" enable-background="accumulate"/></g></svg>