<svg xmlns="http://www.w3.org/2000/svg" width="48" height="48" xmlns:xlink="http://www.w3.org/1999/xlink"><defs><linearGradient id="a"><stop offset="0" stop-color="#eeeeec"/><stop offset="1" stop-color="#eeeeec" stop-opacity="0"/></linearGradient><linearGradient id="b" x1="7.757" x2="8.513" y1="5" y2="11" xlink:href="#a" gradientUnits="userSpaceOnUse" gradientTransform="matrix(3.179 0 0 2.831 -1.564 15.428)"/></defs><g><path fill="none" stroke="#fff" stroke-width="3" d="M5.53 18.3H39.2"/><path fill="none" stroke="#fff" stroke-width="3" d="M5.53 30H39.2"/><path fill="none" stroke="#fff" stroke-width="3" d="M5.53 40.7H39.2"/><path fill="none" stroke="#fff" stroke-width="3" d="M5.53 6.57H39.2"/><path fill="#729fcf" fill-rule="evenodd" stroke="#204a87" stroke-width="2" stroke-dashoffset="4.2" d="M28.94 1.24v45.54h18.42V1.24z" stroke-linecap="square" overflow="visible"/><path fill="none" stroke="url(#b)" stroke-width="2" stroke-dashoffset="4.2" d="M3.2 31h41.33v14.15H3.2z" transform="matrix(0 1 1 0 0 0)" stroke-linecap="square" overflow="visible"/><path fill="none" stroke="#204a87" stroke-width="2" d="M30.28 12.28h15.7" stroke-linecap="square"/><path fill="none" stroke="#204a87" stroke-width="2" d="M30.32 24h15.7" stroke-linecap="square"/><path fill="none" stroke="#204a87" stroke-width="2" d="M30.32 35.74h15.7" stroke-linecap="square"/><path fill-rule="evenodd" stroke="#fff" d="M7.7 6.43a3.57 3.57 0 1 1-7.13 0 3.57 3.57 0 1 1 7.14 0z" stroke-linecap="round" overflow="visible" enable-background="accumulate"/><path fill="none" stroke="#000" d="M5.53 6.57H39.2"/><path fill-rule="evenodd" stroke="#fff" d="M7.7 18.14a3.57 3.57 0 1 1-7.13 0 3.57 3.57 0 1 1 7.14 0z" stroke-linecap="round" overflow="visible" enable-background="accumulate"/><path fill="none" stroke="#000" d="M5.53 18.3H39.2"/><path fill-rule="evenodd" stroke="#fff" d="M7.7 29.86a3.57 3.57 0 1 1-7.13 0 3.57 3.57 0 1 1 7.14 0z" stroke-linecap="round" overflow="visible" enable-background="accumulate"/><path fill="none" stroke="#000" d="M5.53 30H39.2"/><path fill-rule="evenodd" stroke="#fff" d="M7.7 40.57a3.57 3.57 0 1 1-7.13 0 3.57 3.57 0 1 1 7.14 0z" stroke-linecap="round" overflow="visible" enable-background="accumulate"/><path fill="none" stroke="#000" d="M5.53 40.7H39.2"/></g></svg>