<svg xmlns="http://www.w3.org/2000/svg" width="48" height="48"><g><path fill="none" stroke="#fff" stroke-width="2" d="M9.67 31.62v-3.1H5.32v-.04l.84-.9c.86-.87 1.62-1.83 2.3-2.9.66-1.04 1-2.26 1.05-3.64.04-1.1-.28-2.08-.96-2.97-.68-.9-1.9-1.37-3.65-1.42-.7 0-1.35.1-1.97.27-.6.18-1.12.38-1.5.62L2 20.27c.3-.2.65-.35 1.03-.5.38-.13.8-.2 1.22-.2.58 0 1.03.17 1.33.5.3.32.47.73.47 1.24-.02.9-.32 1.82-.92 2.77-.6.94-1.4 2-2.4 3.2l-1.58 1.96v2.4h8.52z" font-size="14" font-family="Bitstream Vera Sans"/><path fill="#fff" fill-rule="evenodd" stroke="#fff" stroke-width="3.762" d="M49.4 24.38a18.13 10.66 0 1 1-36.26 0 18.13 10.66 0 1 1 36.26 0z" transform="matrix(1.017 -.225 .215 1.064 -9.374 5.8)" stroke-linecap="square" overflow="visible" enable-background="accumulate"/><path fill="#888a85" d="M9.67 31.62v-3.1H5.32v-.04l.84-.9c.86-.87 1.62-1.83 2.3-2.9.66-1.04 1-2.26 1.05-3.64.04-1.1-.28-2.08-.96-2.97-.68-.9-1.9-1.37-3.65-1.42-.7 0-1.35.1-1.97.27-.6.18-1.12.38-1.5.62L2 20.27c.3-.2.65-.35 1.03-.5.38-.13.8-.2 1.22-.2.58 0 1.03.17 1.33.5.3.32.47.73.47 1.24-.02.9-.32 1.82-.92 2.77-.6.94-1.4 2-2.4 3.2l-1.58 1.96v2.4h8.52z" font-size="14" font-family="Bitstream Vera Sans"/><path fill="none" stroke="#fa0000" stroke-width="1.411" d="M49.4 24.38a18.13 10.66 0 1 1-36.26 0 18.13 10.66 0 1 1 36.26 0z" transform="matrix(1.017 -.225 .215 1.064 -9.374 5.8)" stroke-linecap="square" overflow="visible" enable-background="accumulate"/><path d="M13.2 31.8c.6 0 1.1-.2 1.45-.6.36-.4.55-.96.56-1.65 0-.72-.2-1.28-.58-1.67-.38-.4-.84-.6-1.4-.6-.54 0-1 .22-1.4.64-.38.4-.58.96-.6 1.63.02.7.2 1.24.6 1.64.36.4.82.6 1.36.6h.02z" font-size="14" font-family="Bitstream Vera Sans"/><path d="M24.35 16.83h-6.5l-.76 7.67c.15-.02.3-.03.48-.04.18 0 .35 0 .53 0 .85-.02 1.58.14 2.2.5.6.33.93.96.96 1.86 0 .65-.2 1.16-.58 1.54-.4.37-.95.57-1.68.58-.4 0-.78-.05-1.14-.14-.37-.1-.7-.2-1-.34l-.48 2.77c.3.16.73.3 1.25.4.53.1 1.07.17 1.65.17 1.76-.04 3.1-.57 4.03-1.58.94-1 1.4-2.25 1.42-3.72 0-.74-.1-1.4-.33-1.96-.23-.57-.56-1.05-.98-1.45-.47-.4-.97-.7-1.5-.87-.55-.16-.97-.25-1.28-.26-.13 0-.27 0-.4 0l.22-2.1h3.9v-3.04z" font-size="14" font-family="Bitstream Vera Sans"/><path d="M25.45 31.17c.34.17.76.32 1.28.44.5.13 1.1.2 1.75.2 1.74-.05 3.05-.52 3.93-1.42.9-.9 1.34-1.93 1.34-3.08 0-.93-.24-1.7-.7-2.34-.45-.64-1.05-1.1-1.8-1.37v-.06c.63-.3 1.14-.73 1.52-1.3.37-.55.56-1.2.57-1.95 0-1-.34-1.83-1.03-2.54-.7-.7-1.75-1.08-3.16-1.1-.65 0-1.26.07-1.84.22-.58.15-1.04.32-1.37.52l.4 2.64c.3-.17.6-.3.92-.4.32-.08.64-.12.96-.12.5 0 .9.13 1.2.4.28.25.42.6.43 1.05-.03.62-.3 1.04-.8 1.26-.5.23-1.03.34-1.62.34h-.26v2.54h.4c.73 0 1.35.17 1.87.48.54.3.8.83.84 1.58 0 .5-.18.93-.53 1.27-.35.34-.88.52-1.58.53-.37 0-.76-.05-1.15-.15-.4-.1-.76-.23-1.08-.4l-.45 2.77z" font-size="14" font-family="Bitstream Vera Sans"/><path d="M43.23 31.62v-3.1h-4.35v-.04l.84-.9c.86-.87 1.62-1.83 2.3-2.9.66-1.04 1-2.26 1.05-3.64.03-1.1-.3-2.08-.97-2.97-.68-.9-1.9-1.37-3.65-1.42-.7 0-1.34.1-1.95.27-.62.18-1.12.38-1.5.62l.56 2.73c.3-.2.65-.35 1.03-.5.37-.13.78-.2 1.2-.2.6 0 1.04.17 1.35.5.3.32.46.73.46 1.24 0 .9-.3 1.82-.9 2.77-.6.94-1.4 2-2.42 3.2l-1.57 1.96v2.4h8.53z" font-size="14" font-family="Bitstream Vera Sans"/></g></svg>