<svg xmlns="http://www.w3.org/2000/svg" width="48" height="48" xmlns:xlink="http://www.w3.org/1999/xlink"><defs><linearGradient id="e"><stop offset="0"/><stop offset="1" stop-color="#2e3436" stop-opacity="0"/></linearGradient><linearGradient id="d"><stop offset="0" stop-color="#fff"/><stop offset=".5" stop-color="#fff" stop-opacity="0"/><stop offset="1" stop-color="#fff"/></linearGradient><linearGradient id="c"><stop offset="0" stop-color="#1c2529"/><stop offset="1" stop-color="#3b6674"/></linearGradient><linearGradient id="b"><stop offset="0" stop-color="#518c9e" stop-opacity="0"/><stop offset=".704" stop-color="#b6cad0" stop-opacity="0"/><stop offset="1" stop-color="#fff"/></linearGradient><linearGradient id="a"><stop offset="0" stop-color="#3465a4"/><stop offset="1" stop-color="#bacfe9"/></linearGradient><linearGradient x1="22.571" x2="23.143" y1="24.143" y2="47.286" xlink:href="#a" gradientUnits="userSpaceOnUse"/><radialGradient id="h" cx="26.714" cy="23.429" r="21.107" xlink:href="#b" fx="26.714" fy="23.429" gradientUnits="userSpaceOnUse" gradientTransform="matrix(.787 -.474 .619 1.028 -8.811 11.999)"/><radialGradient id="g" cx="26.143" cy="21.714" r="21.107" xlink:href="#c" fx="26.143" fy="21.714" gradientUnits="userSpaceOnUse"/><linearGradient id="i" x1="11.256" x2="42.616" y1="38.369" y2="8.932" xlink:href="#d" gradientUnits="userSpaceOnUse"/><radialGradient id="f" cx="23.929" cy="41.071" r="23.786" xlink:href="#e" fx="23.929" fy="41.071" gradientTransform="matrix(1 0 0 .291 0 29.108)" gradientUnits="userSpaceOnUse"/></defs><g color="#000"><path fill="url(#f)" d="M47.7 41.07a23.8 6.93 0 1 1-47.56 0 23.8 6.93 0 1 1 47.57 0z" overflow="visible" enable-background="accumulate"/><path fill="url(#g)" stroke="#aec1d5" stroke-width=".482" d="M47.57 23.43a20.86 20.86 0 1 1-41.7 0 20.86 20.86 0 1 1 41.7 0z" transform="matrix(1.038 0 0 1.038 -3.797 -2.244)" overflow="visible" enable-background="accumulate"/><path fill="url(#h)" d="M47.57 23.43a20.86 20.86 0 1 1-41.7 0 20.86 20.86 0 1 1 41.7 0z" transform="matrix(1.038 0 0 1.038 -3.797 -2.244)" overflow="visible" enable-background="accumulate"/><path fill="none" stroke="url(#i)" stroke-width="1.005" d="M47.57 23.43a20.86 20.86 0 1 1-41.7 0 20.86 20.86 0 1 1 41.7 0z" transform="matrix(.995 0 0 .995 -2.657 -1.244)" overflow="visible" enable-background="accumulate"/><path fill="none" stroke="#206487" stroke-width=".50128" d="M45.57 22.07a21.65 21.65 0 1 1-43.3 0 21.65 21.65 0 1 1 43.3 0z" overflow="visible" enable-background="accumulate"/></g></svg>