<svg xmlns="http://www.w3.org/2000/svg" width="48" height="48" xmlns:xlink="http://www.w3.org/1999/xlink" version="1" viewBox="0 0 612 792" enable-background="new 0 0 612 792"><defs><linearGradient id="a"><stop offset="0" stop-color="#a3dfff"/><stop offset="1" stop-color="#10acff"/></linearGradient><radialGradient cx="333.089" cy="392.651" r="0" gradientUnits="userSpaceOnUse" gradientTransform="matrix(.931 -.365 .365 .931 -122.323 137.273)"><stop offset=".574" stop-color="#FFF200" stop-opacity="0"/><stop offset=".798" stop-color="#FFF200" stop-opacity=".651"/><stop offset="1" stop-color="#FFF200" stop-opacity=".95"/></radialGradient><radialGradient cx="279.663" cy="373.675" r="0" gradientUnits="userSpaceOnUse" gradientTransform="matrix(.931 -.365 .365 .931 -122.323 137.273)"><stop offset=".574" stop-color="#FFF200" stop-opacity="0"/><stop offset=".798" stop-color="#FFF200" stop-opacity=".651"/><stop offset="1" stop-color="#FFF200" stop-opacity=".95"/></radialGradient><radialGradient id="b" cx="195.666" cy="293.694" r="395.018" xlink:href="#a" fx="195.666" fy="293.694" gradientTransform="matrix(1.075 .013 -.012 .988 -41.246 -26.999)" gradientUnits="userSpaceOnUse"/></defs><path fill="url(#b)" stroke="#007ead" stroke-width="25.618" d="M270.12 706.58c-190.3 0-345.1-154.83-345.1-345.16 0-190.32 154.8-345.14 345.1-345.14 190.28 0 345.1 154.82 345.1 345.14 0 190.33-154.82 345.16-345.1 345.16z"/><circle cx="222.327" cy="420.166" r="21.568" fill="none" stroke="#eaf5fb" stroke-width="1.329" transform="matrix(15.421 0 0 15.423 -3158.381 -6118.658)"/><path fill="none" stroke="#fff" stroke-opacity=".502" stroke-width="66" d="M546.76 148.03c7.33 7.08 11.26 14.57 11.26 22.3 0 44.3-128.64 80.22-287.32 80.22-158.7 0-287.33-35.9-287.33-80.2 0-6.78 3-13.35 8.66-19.63" color="#000" stroke-linejoin="bevel" overflow="visible" enable-background="accumulate"/><path fill="none" stroke="#ef2929" stroke-width="33" stroke-dashoffset="23.1" d="M546.76 148.03c7.33 7.08 11.26 14.57 11.26 22.3 0 44.3-128.64 80.22-287.32 80.22-158.7 0-287.33-35.9-287.33-80.2 0-6.78 3-13.35 8.66-19.63" color="#000" stroke-linejoin="bevel" stroke-dasharray="66, 33" overflow="visible" enable-background="accumulate"/><path fill="none" stroke="#fff" stroke-opacity=".502" stroke-width="66" d="M270.12 706.58C177.97 706.58 103 551.75 103 361.42c0-190.32 74.97-345.14 167.12-345.14" color="#000" stroke-linejoin="bevel" overflow="visible" enable-background="accumulate"/><path fill="none" stroke="#ef2929" stroke-width="33" stroke-dashoffset="23.1" d="M270.12 706.58C177.97 706.58 103 551.75 103 361.42c0-190.32 74.97-345.14 167.12-345.14" color="#000" stroke-linejoin="bevel" stroke-dasharray="66, 33" overflow="visible" enable-background="accumulate"/><path fill="#ef2929" stroke="#fff" stroke-width=".781" stroke-dashoffset=".7" d="M15.48 15.72a1.8 1.8 0 1 1-3.6 0 1.8 1.8 0 1 1 3.6 0z" transform="matrix(21.129 0 0 21.119 -172.131 -93.932)" color="#000" stroke-linejoin="bevel" overflow="visible" enable-background="accumulate"/><path fill="#2e3436" stroke="#eeeeec" stroke-width="33" d="M241.3 614.22h157.2v138.2l277.02-235.28L398.5 282.48v138.2H241.3z"/></svg>