<svg xmlns="http://www.w3.org/2000/svg" width="48" height="48" xmlns:xlink="http://www.w3.org/1999/xlink"><defs><linearGradient id="a"><stop offset="0" stop-color="#fabbe8"/><stop offset="1" stop-color="#f799dc"/></linearGradient><linearGradient><stop offset="0" stop-color="#fff" stop-opacity=".342"/><stop offset="1" stop-color="#eeeeec" stop-opacity="0"/></linearGradient><radialGradient id="b" cx="24" cy="24" r="23.5" xlink:href="#a" fx="24" fy="24" gradientUnits="userSpaceOnUse"/></defs><g><path fill="none" stroke="#5c3566" d="M23.94.5c-.15 1.9-.57 3.47-1.07 4.92-.36-.8-.44-1.92-.57-2.78-.57.7-.96 1.46-1.16 2.26-.76-1.2-1.74-2.06-2.74-2.9.9 1.33 1.42 2.78 1.76 4.28-.65-1.38-1.92-1.78-2.8-2.8.73 1.63 1.14 3.13 1.4 4.57-.7-.42-1.4-1.02-1.96-1.5.07 1.3.48 2.42 1.25 3.37l-.28.24c-.7-2.25-2.15-3.44-3.6-4.65.84 1.23 1.34 2.54 1.68 3.9-.75-1.16-1.72-2-2.7-2.8 1.15 1.7 1.68 3.55 2 5.5-.8-.4-1.64-1.16-2.32-1.72.04.73.2 1.4.47 2.02-1.32-1.1-2.73-.8-4.1-1.32 1.46 1.1 2.57 2.23 3.5 3.36-.95-.26-1.96-1.22-2.76-1.9.08 1.45.6 2.7 1.54 3.7l-.06.07c-.76-1.2-1.77-2.02-2.77-2.87.73 1.1 1.2 2.23 1.54 3.43-.76-.4-1.53-1.1-2.15-1.62.05 1 .33 1.92.82 2.72-.8-.4-1.58-1.13-2.24-1.68.04.58.15 1.1.32 1.62-.73-1-1.62-1.78-2.52-2.54.95 1.4 1.5 2.93 1.83 4.5-.3-.37-.66-.6-.98-.8-.63-.73-1.36-1.35-2.07-1.96.3.46.57.93.8 1.4-.8-.17-1.62-.2-2.4-.5 1.34 1 2.38 2.06 3.27 3.1.03.12.07.23.1.35-.64-.42-1.27-1-1.8-1.44.06 1.06.36 2 .88 2.82-1.32.12-2.5.6-3.55 1.53 1.3.1 3.17.08 3.87.98-.96 1.02-1.5 2.25-1.57 3.7.72-.6 1.6-1.44 2.45-1.8-.98 1.22-2.12 2.43-3.68 3.6 1.44-.54 2.9-.2 4.3-1.52-.26.64-.45 1.3-.5 2.05.6-.5 1.35-1.17 2.08-1.6-.65.9-1 1.95-1.07 3.13.7-.57 1.56-1.36 2.4-1.74-1 1.28-2.22 2.54-3.84 3.76 1.64-.62 3.34-.08 4.9-2.23C9.5 34.1 9 35.5 8.14 36.8c.6-.5 1.16-1.02 1.7-1.6-.1.4-.16.8-.2 1.23.9-.75 2.08-1.85 3.13-1.96-.97 1.22-2.1 2.42-3.65 3.58 1.53-.58 3.12-.15 4.6-1.83-1 1.33-2.16 2.54-3.66 3.45 1.36-.4 2.73-.75 4-1.65-.28.64-.46 1.33-.5 2.08.76-.64 1.72-1.55 2.64-1.87-1.08 1.45-2.38 2.88-4.22 4.26 1.53-.6 3.1-.18 4.56-1.82-.34 1.24-.8 2.46-1.57 3.58.72-.6 1.45-1.22 2.08-1.96-.07.33-.1.66-.13 1 .8-.66 1.8-1.62 2.77-1.9-1 1.3-2.2 2.56-3.82 3.78 1.6-.6 3.24-.1 4.75-2-.34 1.52-.85 2.98-1.76 4.32 1.32-1.12 2.64-2.23 3.4-4.16.38 1.24 1.12 2.25 2.26 3.06-.14-1.07-.42-2.47-.06-3.4 1.1 1.3 2.06 2.7 2.6 4.35-.05-1.5-.12-3-.87-4.56.84.48 1.8.76 2.86.82-.43-.5-1-1.1-1.4-1.7.96.83 1.92 1.77 2.85 2.95-.45-1.15-.3-2.34-1-3.5.9.32 1.78.7 2.62 1.24-.5-.54-1-1.07-1.55-1.58.5.15 1.02.24 1.58.27-.6-.67-1.36-1.47-1.76-2.27.8.46 1.72.7 2.75.76-.65-.75-1.6-1.68-1.9-2.57 1.23.94 2.47 2.04 3.67 3.54-.54-1.35-.23-2.75-1.45-4.06 1.4.34 2.74.83 4 1.63-.8-.9-1.57-1.8-2.65-2.5.58.2 1.22.32 1.9.36-.62-.7-1.46-1.56-1.84-2.4 1.45.33 2.83.86 4.13 1.68-.68-.76-1.34-1.55-2.2-2.2.7.32 1.48.5 2.33.55-.47-.54-1.08-1.16-1.5-1.8 1.06.86 2.1 1.88 3.14 3.18-.64-1.6-.1-3.26-2.36-4.8.36.08.7.16 1.05.25.72.67 1.43 1.4 2.14 2.3-.24-.58-.33-1.14-.42-1.72.66.26 1.33.55 1.95.95-.7-.78-1.4-1.54-2.27-2.2-.16-.38-.43-.76-.78-1.13.96.72 2.1 1.12 3.4 1.2-.77-.88-1.93-2-2.05-3 1.17.9 2.34 1.97 3.46 3.4-.65-1.6-.1-3.27-2.28-4.78 1.7.33 3.37.83 4.88 1.8-1.23-1.38-2.44-2.75-4.72-3.45 0-.28-.04-.56-.12-.83 1.27-.65 2.18-1.66 2.76-3-.96.35-2.2.9-3.17.88.93-1.14 2.04-2.25 3.5-3.33-1.42.53-2.9.22-4.26 1.46.26-.6.42-1.3.46-2.03-.68.56-1.5 1.32-2.32 1.7.96-1.18 2.1-2.34 3.6-3.48-1.3.5-2.66.24-3.95 1.22.32-1.13.8-2.22 1.5-3.25-.6.5-1.2 1.02-1.73 1.6.04-.25.08-.48.1-.74-.67.55-1.47 1.28-2.27 1.68.6-.87.97-1.87 1.04-3.02-.8.66-1.77 1.6-2.7 1.9.98-1.24 2.1-2.5 3.67-3.67-1.27.5-2.57.28-3.83 1.17.25-.6.4-1.25.44-1.95-.35.3-.76.64-1.18.97.33-1.1.8-2.16 1.48-3.16-.7.6-1.4 1.16-2.02 1.87.05-.25.08-.54.1-.82-.75.63-1.68 1.5-2.58 1.84.9-1.1 2-2.2 3.4-3.24-1.47.55-2.98.2-4.4 1.65.54-.84.8-1.8.87-2.88-.8.67-1.78 1.62-2.73 1.9.82-.93 1.8-1.83 2.98-2.72-1.2.45-2.43.28-3.6.98.85-.98 1.87-1.95 3.13-2.9-1.66.63-3.36.08-4.94 2.3.35-1.6.86-3.13 1.8-4.53-1 .84-1.97 1.7-2.73 2.87.16-1.62-.83-2.58-1.13-3.94zM4.5 25.12s.02 0 .03.03c0 0-.02.02-.03.03v-.06zm28.65 9.78c.1.08.2.14.32.22-.12-.05-.25-.1-.38-.16l.05-.06z" color="#000" overflow="visible" enable-background="accumulate" stroke-linejoin="round"/><path fill="url(#b)" d="M23.94.5c-.15 1.9-.56 3.48-1.07 4.94-.36-.82-.45-1.95-.6-2.82-.56.7-.94 1.46-1.14 2.25C20.36 3.7 19.4 2.85 18.4 2c.9 1.33 1.38 2.76 1.73 4.25-.67-1.34-1.92-1.77-2.8-2.78.74 1.63 1.14 3.13 1.4 4.56-.7-.42-1.35-1.03-1.92-1.5.08 1.3.5 2.42 1.26 3.38l-.28.26c-.7-2.26-2.16-3.45-3.6-4.66.82 1.2 1.3 2.5 1.63 3.84-.74-1.13-1.68-1.93-2.64-2.75 1.15 1.7 1.66 3.55 2 5.5-.82-.4-1.64-1.16-2.32-1.72.04.73.18 1.4.44 2.03-1.32-1.08-2.7-.8-4.06-1.3 1.46 1.1 2.6 2.22 3.53 3.37-.98-.25-2-1.23-2.8-1.9.06 1.28.47 2.42 1.24 3.37-.73-1-1.65-1.75-2.54-2.5.73 1.08 1.2 2.23 1.53 3.44-.76-.42-1.5-1.1-2.14-1.63.06 1 .33 1.92.8 2.72-.78-.4-1.58-1.17-2.23-1.72.03.57.14 1.12.3 1.63-.7-1-1.6-1.75-2.5-2.5.95 1.4 1.48 2.9 1.82 4.46-.3-.36-.65-.58-.97-.78-.63-.73-1.34-1.33-2.06-1.93.3.45.55.92.78 1.4-.8-.18-1.6-.23-2.38-.53 1.34 1 2.36 2.04 3.25 3.1.03.1.07.22.1.34-.63-.42-1.25-.97-1.78-1.4.04 1.03.32 1.95.83 2.77-1.32.13-2.5.65-3.53 1.57 1.3.1 3.13.08 3.84.94-.95 1.03-1.48 2.3-1.56 3.73.73-.6 1.63-1.45 2.5-1.8-.98 1.22-2.15 2.44-3.72 3.6 1.44-.53 2.92-.18 4.3-1.52-.26.64-.45 1.33-.5 2.07.65-.52 1.4-1.27 2.17-1.68-.7.9-1.06 2-1.12 3.2.7-.58 1.54-1.4 2.38-1.77-1 1.28-2.2 2.55-3.84 3.78 1.64-.6 3.34-.08 4.9-2.24-.34 1.44-.84 2.83-1.7 4.12.57-.5 1.16-1 1.7-1.56-.1.38-.16.8-.18 1.22.9-.75 2.04-1.87 3.1-1.97-.98 1.2-2.1 2.4-3.63 3.56 1.53-.58 3.1-.13 4.6-1.8-1 1.32-2.14 2.55-3.64 3.46 1.36-.4 2.7-.8 4-1.73-.3.65-.5 1.35-.54 2.12.75-.63 1.7-1.52 2.6-1.85-1.07 1.44-2.34 2.85-4.16 4.22 1.5-.57 3.07-.15 4.53-1.75-.34 1.23-.8 2.42-1.56 3.53.72-.6 1.43-1.2 2.06-1.94-.07.34-.1.66-.12 1 .82-.66 1.85-1.64 2.82-1.9-1 1.3-2.2 2.56-3.84 3.8 1.58-.6 3.26-.14 4.78-2.04-.35 1.52-.87 2.98-1.8 4.34 1.33-1.12 2.63-2.23 3.4-4.16.37 1.24 1.13 2.26 2.27 3.07-.14-1.06-.42-2.47-.06-3.4 1.1 1.3 2.04 2.68 2.6 4.34-.07-1.5-.1-3-.88-4.6.84.52 1.78.83 2.86.88-.44-.5-.98-1.1-1.4-1.68.97.8 1.94 1.73 2.87 2.9-.46-1.14-.32-2.3-1-3.43.9.3 1.77.7 2.6 1.23-.5-.55-1-1.1-1.54-1.6.48.15 1 .25 1.56.28-.6-.65-1.4-1.47-1.78-2.27.8.46 1.75.73 2.78.78-.68-.75-1.64-1.7-1.94-2.6 1.25.94 2.5 2.04 3.7 3.55-.55-1.35-.22-2.74-1.45-4.06 1.4.32 2.75.8 4 1.6-.83-.92-1.67-1.82-2.8-2.55.62.25 1.28.4 2.02.44-.62-.7-1.45-1.55-1.83-2.4 1.46.35 2.86.84 4.16 1.67-.7-.78-1.43-1.56-2.3-2.22.72.35 1.54.55 2.43.6-.47-.53-1.08-1.16-1.5-1.8 1.06.87 2.07 1.86 3.1 3.14-.65-1.6-.07-3.24-2.3-4.76.33.06.66.1.98.18.73.67 1.45 1.46 2.15 2.35-.24-.58-.34-1.17-.44-1.75.67.26 1.34.57 1.97.97-.7-.8-1.42-1.54-2.3-2.2-.13-.36-.32-.7-.64-1.06.93.66 2.02 1.03 3.27 1.1-.77-.88-1.92-1.98-2.03-3 1.17.9 2.34 1.98 3.47 3.4-.63-1.6-.1-3.26-2.3-4.78 1.7.33 3.38.84 4.9 1.8-1.23-1.37-2.44-2.76-4.72-3.46 0-.28-.04-.55-.12-.8 1.27-.66 2.2-1.64 2.78-2.98-.97.35-2.2.9-3.2.87.95-1.14 2.03-2.26 3.48-3.35-1.42.53-2.87.2-4.25 1.47.27-.63.46-1.32.5-2.06-.68.56-1.5 1.32-2.3 1.7.94-1.16 2.08-2.33 3.58-3.45-1.3.5-2.66.25-3.94 1.2.35-1.13.8-2.2 1.48-3.23-.6.5-1.17 1.02-1.72 1.6.05-.25.08-.5.1-.75-.64.53-1.42 1.25-2.2 1.65.6-.86.92-1.87.98-3-.8.67-1.8 1.64-2.75 1.9.97-1.23 2.16-2.46 3.74-3.64-1.27.47-2.6.26-3.85 1.12.24-.6.4-1.24.43-1.94-.35.3-.78.63-1.2.95.35-1.08.8-2.14 1.45-3.13-.7.6-1.38 1.2-2 1.9.05-.26.08-.54.1-.83-.77.63-1.7 1.55-2.63 1.86.93-1.12 2-2.2 3.44-3.28-1.48.55-2.97.2-4.4 1.63.54-.82.83-1.78.9-2.84-.8.66-1.8 1.58-2.73 1.88.82-.92 1.76-1.8 2.94-2.7-1.2.46-2.4.28-3.6.98.87-1 1.87-1.96 3.14-2.9-1.66.62-3.36.07-4.94 2.3.34-1.6.86-3.15 1.8-4.56-.98.84-1.98 1.7-2.74 2.88.16-1.63-.82-2.58-1.12-3.94zM11.2 15.97c.07.1.17.18.27.28l-.06.06c-.07-.1-.13-.22-.2-.33zm-3.36 3.6c.04.03.07.08.1.12l-.03.02c0-.05-.04-.1-.06-.16zM4.5 25.1c0 .02.03.02.03.04 0 0-.02.02-.03.03v-.07zm28.66 9.8c.1.07.2.13.3.2-.1-.05-.24-.1-.37-.15l.06-.06zm-18.88.5l.03.02c-.1.17-.24.33-.36.5.12-.16.22-.34.34-.53z" color="#000" overflow="visible" enable-background="accumulate"/><path fill="#fff" fill-rule="evenodd" stroke="#000" d="M8.13 16.62h9.28v3H8.14z" overflow="visible" enable-background="accumulate"/><path fill="#fff" fill-rule="evenodd" stroke="#000" d="M7.92 27.9h9.5v3H7.9z" overflow="visible" enable-background="accumulate"/><path fill="#fff" fill-rule="evenodd" stroke="#000" d="M32.3 22.3h9.78v3h-9.8z" overflow="visible" enable-background="accumulate"/><path fill="#fff" fill-rule="evenodd" stroke="#000" d="M16.4 13.24L31.94 23.6 16.4 34.36V13.24z" overflow="visible" enable-background="accumulate"/><path fill="#fff" fill-rule="evenodd" stroke="#000" stroke-width=".67.491" d="M36.78 23.72a3.2 3.16 0 1 1-6.37 0 3.2 3.16 0 1 1 6.38 0z" overflow="visible" enable-background="accumulate"/></g></svg>