<svg xmlns="http://www.w3.org/2000/svg" width="48" height="48" version="1" viewBox="0 0 612 792" enable-background="new 0 0 612 792"><path fill="none" stroke="#3d5f8e" stroke-width="15.172" stroke-miterlimit="10" d="M243.42 776.7c-122.86-26.48-135.38-58.07-149.34-89.73 0 0-5.14-9.56-6.46-18.87L25.77 166.24s-.12-5.9-.2-8.78C23.76 91.98 142.98 9.83 305.18 9.83c162.2 0 302 58.74 302 134.6 0 2.9-.22 5.8-.64 8.63l.5.13-61.26 482.25c-11.75 75.04-27.97 94.88-77.97 117.7-80.5 36.75-167.1 35.93-224.38 23.54z" stroke-linecap="round" stroke-linejoin="round"/><path fill="none" stroke="#e8ebf2" stroke-width="15.172" stroke-miterlimit="10" d="M529.62 640.6c7.9-50 61.4-491.17 61.4-494.57 0-65.7-137.26-121.83-286.57-121.83-149.26 0-266.27 79.2-264.17 124.16.16 3.13.53 9.5 1.6 15.86 1.6 10.57 62.16 500.56 62.16 500.56.64 3.58 8 23.06 8.45 25.85 0 0 8.84 40.66 103.7 64.75 73.48 18.64 180.04 20.56 259.73-21.4 55.9-29.36 49.26-65.42 53.7-93.37z" stroke-linecap="round" stroke-linejoin="round"/><path fill="#d8e0f2" d="M584.26 152.17c0-65.14-119.07-118-265.92-118-146.82 0-265.85 52.86-265.85 118 0 3.18.48 6.28 1.05 9.42-.32-.82-.74-1.6-1.04-2.47l65.85 511.13c9.24 51 90.02 89.18 200.88 89.18 111.05 0 194.44-39.16 200.83-89.18l64.15-511.13c-.33 1.08-.74 2-1.06 3.07.64-3.3 1.12-6.65 1.12-10.03z"/><path fill="#fff" stroke="#5e7bb1" stroke-width="5.057" stroke-miterlimit="10" d="M436.18 598.7c41.94 13.23 125.8 68.4 55.16 116.96-119.56 82.2-334 36.78-364.9-19.84"/><path fill="#ecf0f9" stroke="#6e92cb" stroke-width="3.372" stroke-miterlimit="10" d="M518.93 671.3c0 48.84-89.46 88.6-199.82 88.6-110.42 0-199.87-39.74-199.87-88.6 0-49.08 89.46-88.78 199.88-88.78 110.37 0 199.83 39.7 199.83 88.77z"/><path fill="#e7ecf7" stroke="#6e92cb" stroke-width="5.057" stroke-miterlimit="10" d="M518.2 671c0 48.98-89.48 88.64-199.83 88.64-110.4 0-199.83-39.66-199.83-88.64 0-49.02 89.45-88.7 199.83-88.7 110.35 0 199.84 39.68 199.84 88.7z"/><path fill="none" stroke="#a0b5de" stroke-width="16.5" stroke-miterlimit="10" d="M557.76 151.46c0 56.57-107.5 102.46-240.18 102.46-132.64 0-240.2-45.9-240.2-102.46 0-56.54 107.56-102.4 240.2-102.4 132.7 0 240.18 45.87 240.18 102.4z"/><path fill="#afbbd1" d="M555.92 151.5c0-56.55-107.52-102.44-240.24-102.44-132.6 0-240.1 45.9-240.1 102.43 0 36.02 57.5 440.56 70.74 534.7 54.43 42.7 140.14 48.6 189.8 48.6 49.2 0 135.34-22.1 151.56-53 22.05-92.7 68.24-494.45 68.24-530.3z" opacity=".8"/><path fill="#b9c6dc" d="M275.7 50.3c-12.3.84-24.25 2.08-35.85 3.67-96.6 13.25-166.6 51.92-166.6 97.52 0 36.02 43.74 67.64 109.7 85.9 25.66-8.95 56.12-15.4 89.35-18.38 7.2-.64 14.5-1.14 21.93-1.46-6.74-24.35-23.8-137-18.54-167.25z"/><path fill="#acc2e5" stroke="#6e92cb" stroke-width="16.5" stroke-miterlimit="10" d="M115.77 670.73L49.9 159.6c48.83 154.8 496.43 141.57 531.68 0l-64.1 511.13c-6.37 50-89.92 89.2-200.9 89.2-110.85 0-191.6-38.2-200.8-89.2z" opacity=".2"/><path fill="#e7ecf7" d="M116.36 670.77L50.56 159.6c21.38 67.74 119.06 103.32 225.13 110 3.07 176.7 4.66 312.82 144.34 477.52-29.72 8.14-64.6 12.8-102.8 12.8-110.85 0-191.66-38.16-200.88-89.15z" opacity=".34"/><path fill="#e7ecf7" d="M117.12 656.96l-52.06-443c28.36 50.02 94.22 67.2 178.23 73.4-25 131.4-37.8 146.06 32.84 451.78-87.73 0-151.67-35.2-159.02-82.18z" opacity=".8"/><path fill="#f8fafd" d="M126.76 651.45l-52.1-393.92c12.66 24.95 36.07 39.45 69.35 44.8-4.8 149.06 4 199.67 31.03 407.18-33.2-17.73-43.68-28.6-48.27-58.05z" opacity=".75"/><path fill="#fff" d="M251.3 182.95c-20.6 6.93-31.25 5.5-39.9 12.44-8.76 6.97-33.24-43.05-33.24-43.05s-3.86-55.5 46.56-63.84c14.18 47.23 26.57 94.45 26.57 94.45z" opacity=".63"/><path fill="#fff" d="M193.74 201.5c-20.58 6.94-28.86 16.1-31.56 13.16-11.6-12.86-38.15-71.43-38.15-71.43s11.05-25.84 43.1-36.16c8 82.6 26.6 94.44 26.6 94.44z" opacity=".8"/><path fill="none" stroke="#6e92cb" stroke-width="16.5" stroke-miterlimit="10" d="M447.56 738.42c-34.36 13.35-79 21.38-129.15 21.38-110.85 0-191.62-38.15-200.86-89.12L79 362.58" stroke-linecap="round" stroke-linejoin="round"/><path fill="none" stroke="#6e92cb" stroke-width="16.5" stroke-miterlimit="10" d="M99.96 84.68c48.16-30.34 127.63-50.12 217.5-50.12 35.44 0 69.27 3.04 100.2 8.64" stroke-linecap="round" stroke-linejoin="round"/><path fill="none" stroke="#fff" stroke-width="3.372" stroke-miterlimit="10" d="M99.96 89.44c48.16-30.36 127.63-50.16 217.5-50.16 35.44 0 69.27 3.07 100.2 8.64" stroke-linecap="round" stroke-linejoin="round"/><path fill="none" stroke="#4b74ab" stroke-width="16.5" stroke-miterlimit="10" d="M364.85 268.74c-15.37 1.18-31.24 1.8-47.4 1.8-146.75 0-265.82-52.78-265.82-118 0-12.26 4.2-24.1 12.04-35.17" stroke-linecap="round" stroke-linejoin="round"/></svg>