<svg xmlns="http://www.w3.org/2000/svg" width="48" height="48" xmlns:xlink="http://www.w3.org/1999/xlink"><defs><linearGradient id="d"><stop offset="0"/><stop offset="1" stop-opacity="0"/></linearGradient><linearGradient id="c"><stop offset="0" stop-color="#5b5e59"/><stop offset="1" stop-color="#333532"/></linearGradient><linearGradient id="b"><stop offset="0" stop-color="#fff"/><stop offset=".92" stop-color="#d3d3d3"/><stop offset="1" stop-color="#bfbfbf"/></linearGradient><linearGradient id="a"><stop offset="0" stop-color="#575a55"/><stop offset=".31" stop-color="#575a55"/><stop offset="1"/></linearGradient><radialGradient cx="16.603" cy="17.937" r="19.071" xlink:href="#a" fx="16.603" fy="17.937" gradientUnits="userSpaceOnUse" gradientTransform="matrix(1.249 -.842 .487 .722 -12.858 18.962)"/><radialGradient cx="23.134" cy="19.661" r="2.698" xlink:href="#b" fx="23.134" fy="19.661" gradientUnits="userSpaceOnUse" gradientTransform="matrix(-1.47 -.076 .082 -1.586 55.231 52.91)"/><radialGradient cx="11.401" cy="12.154" r="20.196" xlink:href="#c" fx="11.401" fy="12.154" gradientTransform="matrix(1 0 0 1.004 0 -.054)" gradientUnits="userSpaceOnUse"/><radialGradient cx="32.698" cy="33.564" r="15.111" xlink:href="#d" fx="32.698" fy="33.564" gradientTransform="matrix(.9 -.761 .55 .651 -16.783 35.69)" gradientUnits="userSpaceOnUse"/><radialGradient cx="32.698" cy="33.564" r="15.111" xlink:href="#d" gradientUnits="userSpaceOnUse" gradientTransform="matrix(.9 -.761 .55 .651 -16.783 35.69)" fx="32.698" fy="33.564"/><radialGradient cx="16.603" cy="17.937" r="19.071" xlink:href="#a" gradientUnits="userSpaceOnUse" gradientTransform="matrix(1.249 -.842 .487 .722 -12.858 18.962)" fx="16.603" fy="17.937"/><radialGradient cx="11.401" cy="12.154" r="20.196" xlink:href="#c" gradientUnits="userSpaceOnUse" gradientTransform="matrix(1 0 0 1.004 0 -.054)" fx="11.401" fy="12.154"/><radialGradient cx="23.134" cy="19.661" r="2.698" xlink:href="#b" gradientUnits="userSpaceOnUse" gradientTransform="matrix(-1.47 -.076 .082 -1.586 55.231 52.91)" fx="23.134" fy="19.661"/><radialGradient cx="32.698" cy="33.564" r="15.111" xlink:href="#d" gradientUnits="userSpaceOnUse" gradientTransform="matrix(.475 -.402 .291 .344 -8.86 19.376)" fx="32.698" fy="33.564"/><radialGradient cx="16.603" cy="17.937" r="19.071" xlink:href="#a" gradientUnits="userSpaceOnUse" gradientTransform="matrix(1.249 -.842 .487 .722 -12.858 18.962)" fx="16.603" fy="17.937"/><radialGradient cx="11.401" cy="12.154" r="20.196" xlink:href="#c" gradientUnits="userSpaceOnUse" gradientTransform="matrix(1 0 0 1.004 0 -.054)" fx="11.401" fy="12.154"/><radialGradient cx="23.134" cy="19.661" r="2.698" xlink:href="#b" gradientUnits="userSpaceOnUse" gradientTransform="matrix(-1.47 -.076 .082 -1.586 55.231 52.91)" fx="23.134" fy="19.661"/><radialGradient cx="32.698" cy="33.564" r="15.111" xlink:href="#d" gradientUnits="userSpaceOnUse" gradientTransform="matrix(.475 -.402 .291 .344 -8.86 19.376)" fx="32.698" fy="33.564"/><radialGradient cx="16.603" cy="17.937" r="19.071" xlink:href="#a" gradientUnits="userSpaceOnUse" gradientTransform="matrix(1.249 -.842 .487 .722 -12.858 18.962)" fx="16.603" fy="17.937"/><radialGradient cx="11.401" cy="12.154" r="20.196" xlink:href="#c" gradientUnits="userSpaceOnUse" gradientTransform="matrix(1 0 0 1.004 0 -.054)" fx="11.401" fy="12.154"/><radialGradient cx="23.134" cy="19.661" r="2.698" xlink:href="#b" gradientUnits="userSpaceOnUse" gradientTransform="matrix(-1.47 -.076 .082 -1.586 55.231 52.91)" fx="23.134" fy="19.661"/><radialGradient id="e" cx="32.698" cy="33.564" r="15.111" xlink:href="#d" gradientUnits="userSpaceOnUse" gradientTransform="matrix(.475 -.402 .291 .344 -8.86 19.376)" fx="32.698" fy="33.564"/><radialGradient id="f" cx="16.603" cy="17.937" r="19.071" xlink:href="#a" gradientUnits="userSpaceOnUse" gradientTransform="matrix(1.249 -.842 .487 .722 -12.858 18.962)" fx="16.603" fy="17.937"/><radialGradient id="g" cx="11.401" cy="12.154" r="20.196" xlink:href="#c" gradientUnits="userSpaceOnUse" gradientTransform="matrix(1 0 0 1.004 0 -.054)" fx="11.401" fy="12.154"/><radialGradient id="h" cx="23.134" cy="19.661" r="2.698" xlink:href="#b" gradientUnits="userSpaceOnUse" gradientTransform="matrix(-1.47 -.076 .082 -1.586 55.231 52.91)" fx="23.134" fy="19.661"/><radialGradient id="i" cx="32.698" cy="33.564" r="15.111" xlink:href="#d" gradientUnits="userSpaceOnUse" gradientTransform="matrix(.475 -.402 .291 .344 -8.86 19.376)" fx="32.698" fy="33.564"/><radialGradient id="j" cx="16.603" cy="17.937" r="19.071" xlink:href="#a" gradientUnits="userSpaceOnUse" gradientTransform="matrix(1.249 -.842 .487 .722 -12.858 18.962)" fx="16.603" fy="17.937"/><radialGradient id="k" cx="11.401" cy="12.154" r="20.196" xlink:href="#c" gradientUnits="userSpaceOnUse" gradientTransform="matrix(1 0 0 1.004 0 -.054)" fx="11.401" fy="12.154"/><radialGradient id="l" cx="23.134" cy="19.661" r="2.698" xlink:href="#b" gradientUnits="userSpaceOnUse" gradientTransform="matrix(-1.47 -.076 .082 -1.586 55.231 52.91)" fx="23.134" fy="19.661"/><radialGradient id="m" cx="32.698" cy="33.564" r="15.111" xlink:href="#d" gradientUnits="userSpaceOnUse" gradientTransform="matrix(.475 -.402 .291 .344 -8.86 19.376)" fx="32.698" fy="33.564"/><radialGradient id="n" cx="16.603" cy="17.937" r="19.071" xlink:href="#a" gradientUnits="userSpaceOnUse" gradientTransform="matrix(1.249 -.842 .487 .722 -12.858 18.962)" fx="16.603" fy="17.937"/><radialGradient id="o" cx="11.401" cy="12.154" r="20.196" xlink:href="#c" gradientUnits="userSpaceOnUse" gradientTransform="matrix(1 0 0 1.004 0 -.054)" fx="11.401" fy="12.154"/><radialGradient id="p" cx="23.134" cy="19.661" r="2.698" xlink:href="#b" gradientUnits="userSpaceOnUse" gradientTransform="matrix(-1.47 -.076 .082 -1.586 55.231 52.91)" fx="23.134" fy="19.661"/><radialGradient id="q" cx="32.698" cy="33.564" r="15.111" xlink:href="#d" gradientUnits="userSpaceOnUse" gradientTransform="matrix(.475 -.402 .291 .344 -8.86 19.376)" fx="32.698" fy="33.564"/><radialGradient id="r" cx="16.603" cy="17.937" r="19.071" xlink:href="#a" gradientUnits="userSpaceOnUse" gradientTransform="matrix(1.249 -.842 .487 .722 -12.858 18.962)" fx="16.603" fy="17.937"/><radialGradient id="s" cx="11.401" cy="12.154" r="20.196" xlink:href="#c" gradientUnits="userSpaceOnUse" gradientTransform="matrix(1 0 0 1.004 0 -.054)" fx="11.401" fy="12.154"/><radialGradient id="t" cx="23.134" cy="19.661" r="2.698" xlink:href="#b" gradientUnits="userSpaceOnUse" gradientTransform="matrix(-1.47 -.076 .082 -1.586 55.231 52.91)" fx="23.134" fy="19.661"/></defs><g fill-rule="evenodd"><g><path fill="#ef2929" stroke="#babdb6" stroke-width=".49850999999999995" d="M20.34 19.3l-1.82-1.05.6-1.04 1.82 1.06z" overflow="visible" enable-background="accumulate"/><path fill="#2e3436" stroke="#babdb6" stroke-width=".49850999999999995" d="M21.96 13.2h-2.1v1.22h2.1z" overflow="visible" enable-background="accumulate"/><path fill="url(#e)" d="M8.6 22.23c1.97.88 4.83 1.82 7.34 2.23 4.28-.1 7.23-2.33 7.6-7.84-.64-2.4-1.52-4.53-2.48-6.52L8.6 22.23z" transform="matrix(.873 0 0 .873 -.001 1.156)"/><path fill="url(#f)" stroke="#2e3436" stroke-width="2.421" d="M43.37 25.75a18.57 18.57 0 1 1-37.15 0 18.57 18.57 0 1 1 37.15 0z" transform="matrix(.413 0 0 .413 .855 2.705)" overflow="visible" enable-background="accumulate"/><path fill="#dcdcdc" d="M8.46 8.95l-.78-2.23.5-.26L9.7 8.42l-1.24.53z"/><path fill="url(#g)" stroke="#888a85" stroke-width="3.107" d="M26.92 30.35c-.98.77-5.06-.94-6.22-.47-1.16.47-2.9 4.54-4.14 4.66-1.25.12-3.76-3.53-4.98-3.76-1.23-.23-4.9 2.25-6 1.68-1.12-.57-1.26-5-2.17-5.85-.9-.85-5.32-.75-5.95-1.83-.62-1.08 1.65-4.88 1.35-6.1-.3-1.2-4.07-3.5-4.02-4.75.06-1.25 4.03-3.22 4.43-4.4.4-1.18-1.52-5.16-.8-6.18.72-1.02 5.12-.53 6.1-1.3.98-.78 1.5-5.17 2.67-5.64 1.15-.47 4.6 2.33 5.83 2.2 1.24-.12 4.07-3.53 5.3-3.3 1.22.23 2.6 4.44 3.7 5 1.12.58 5.34-.77 6.25.1.9.85-.2 5.13.42 6.2.62 1.1 4.9 2.24 5.2 3.45.3 1.2-2.96 4.22-3 5.46-.07 1.26 2.9 4.54 2.5 5.72-.4 1.18-4.76 1.95-5.48 2.97-.73 1 0 5.37-.98 6.15z" transform="matrix(.322 0 0 .322 6.439 9.207)" overflow="visible" enable-background="accumulate"/><path fill="url(#h)" d="M24.25 17.87a2.7 2.7 0 1 1-5.4 0 2.7 2.7 0 1 1 5.4 0z" transform="matrix(.413 0 0 .413 .855 3.151)" overflow="visible" enable-background="accumulate"/><path fill="#2e3436" stroke="#babdb6" stroke-width=".49850999999999995" d="M.2 13.2h2.1v1.22H.2z" overflow="visible" enable-background="accumulate"/><path fill="#2e3436" stroke="#babdb6" stroke-width=".49850999999999995" d="M1.7 7.74l1.8 1.04-.6 1.05-1.82-1.05z" overflow="visible" enable-background="accumulate"/><path fill="#2e3436" stroke="#babdb6" stroke-width=".49850999999999995" d="M5.7 3.73l1.05 1.8-1.04.62-1.04-1.82z" overflow="visible" enable-background="accumulate"/><path fill="#2e3436" stroke="#babdb6" stroke-width=".49850999999999995" d="M11.34 2.33v2.1h-1.2v-2.1z" overflow="visible" enable-background="accumulate"/><path fill="#2e3436" stroke="#babdb6" stroke-width=".49850999999999995" d="M20.33 7.6L18.5 8.65l.6 1.04 1.83-1.05z" overflow="visible" enable-background="accumulate"/><path fill="#2e3436" stroke="#babdb6" stroke-width=".49850999999999995" d="M16.1 3.57L15.07 5.4l1.04.6 1.05-1.82z" overflow="visible" enable-background="accumulate"/><path fill="#2e3436" stroke="#babdb6" stroke-width=".49850999999999995" d="M1.67 19.17l1.82-1.05-.6-1.05-1.83 1.05z" overflow="visible" enable-background="accumulate"/></g><g><path fill="#ef2929" stroke="#babdb6" stroke-width=".49850999999999995" d="M46.05 19.3l-1.8-1.05.6-1.04 1.8 1.06z" overflow="visible" enable-background="accumulate"/><path fill="#2e3436" stroke="#babdb6" stroke-width=".49850999999999995" d="M47.67 13.2h-2.1v1.22h2.1z" overflow="visible" enable-background="accumulate"/><path fill="url(#i)" d="M8.6 22.23c1.97.88 4.83 1.82 7.34 2.23 4.28-.1 7.23-2.33 7.6-7.84-.64-2.4-1.52-4.53-2.48-6.52L8.6 22.23z" transform="matrix(.873 0 0 .873 25.713 1.156)"/><path fill="url(#j)" stroke="#2e3436" stroke-width="2.421" d="M43.37 25.75a18.57 18.57 0 1 1-37.15 0 18.57 18.57 0 1 1 37.15 0z" transform="matrix(.413 0 0 .413 26.569 2.705)" overflow="visible" enable-background="accumulate"/><path fill="#dcdcdc" d="M34.18 8.95l-.8-2.23.5-.26 1.53 1.96-1.22.53z"/><path fill="url(#k)" stroke="#888a85" stroke-width="3.107" d="M26.92 30.35c-.98.77-5.06-.94-6.22-.47-1.16.47-2.9 4.54-4.14 4.66-1.25.12-3.76-3.53-4.98-3.76-1.23-.23-4.9 2.25-6 1.68-1.12-.57-1.26-5-2.17-5.85-.9-.85-5.32-.75-5.95-1.83-.62-1.08 1.65-4.88 1.35-6.1-.3-1.2-4.07-3.5-4.02-4.75.06-1.25 4.03-3.22 4.43-4.4.4-1.18-1.52-5.16-.8-6.18.72-1.02 5.12-.53 6.1-1.3.98-.78 1.5-5.17 2.67-5.64 1.15-.47 4.6 2.33 5.83 2.2 1.24-.12 4.07-3.53 5.3-3.3 1.22.23 2.6 4.44 3.7 5 1.12.58 5.34-.77 6.25.1.9.85-.2 5.13.42 6.2.62 1.1 4.9 2.24 5.2 3.45.3 1.2-2.96 4.22-3 5.46-.07 1.26 2.9 4.54 2.5 5.72-.4 1.18-4.76 1.95-5.48 2.97-.73 1 0 5.37-.98 6.15z" transform="matrix(.322 0 0 .322 32.153 9.207)" overflow="visible" enable-background="accumulate"/><path fill="url(#l)" d="M24.25 17.87a2.7 2.7 0 1 1-5.4 0 2.7 2.7 0 1 1 5.4 0z" transform="matrix(.413 0 0 .413 26.569 3.151)" overflow="visible" enable-background="accumulate"/><path fill="#2e3436" stroke="#babdb6" stroke-width=".49850999999999995" d="M25.92 13.2h2.1v1.22h-2.1z" overflow="visible" enable-background="accumulate"/><path fill="#2e3436" stroke="#babdb6" stroke-width=".49850999999999995" d="M27.4 7.74l1.82 1.04-.6 1.05-1.82-1.05z" overflow="visible" enable-background="accumulate"/><path fill="#2e3436" stroke="#babdb6" stroke-width=".49850999999999995" d="M31.42 3.73l1.05 1.8-1.05.62-1.05-1.82z" overflow="visible" enable-background="accumulate"/><path fill="#2e3436" stroke="#babdb6" stroke-width=".49850999999999995" d="M37.06 2.33v2.1h-1.2v-2.1z" overflow="visible" enable-background="accumulate"/><path fill="#2e3436" stroke="#babdb6" stroke-width=".49850999999999995" d="M46.04 7.6l-1.82 1.05.6 1.04 1.82-1.05z" overflow="visible" enable-background="accumulate"/><path fill="#2e3436" stroke="#babdb6" stroke-width=".49850999999999995" d="M41.82 3.57L40.77 5.4l1.05.6 1.05-1.82z" overflow="visible" enable-background="accumulate"/><path fill="#2e3436" stroke="#babdb6" stroke-width=".49850999999999995" d="M27.4 19.17l1.8-1.05-.6-1.05-1.8 1.05z" overflow="visible" enable-background="accumulate"/></g><g><path fill="#ef2929" stroke="#babdb6" stroke-width=".49850999999999995" d="M20.34 44l-1.82-1.05.6-1.04 1.82 1.05z" overflow="visible" enable-background="accumulate"/><path fill="#2e3436" stroke="#babdb6" stroke-width=".49850999999999995" d="M21.96 37.9h-2.1v1.2h2.1z" overflow="visible" enable-background="accumulate"/><path fill="url(#m)" d="M8.6 22.23c1.97.88 4.83 1.82 7.34 2.23 4.28-.1 7.23-2.33 7.6-7.84-.64-2.4-1.52-4.53-2.48-6.52L8.6 22.23z" transform="matrix(.873 0 0 .873 -.001 25.854)"/><path fill="url(#n)" stroke="#2e3436" stroke-width="2.421" d="M43.37 25.75a18.57 18.57 0 1 1-37.15 0 18.57 18.57 0 1 1 37.15 0z" transform="matrix(.413 0 0 .413 .855 27.403)" overflow="visible" enable-background="accumulate"/><path fill="#dcdcdc" d="M8.46 33.65l-.78-2.23.5-.26 1.52 1.96-1.24.53z"/><path fill="url(#o)" stroke="#888a85" stroke-width="3.107" d="M26.92 30.35c-.98.77-5.06-.94-6.22-.47-1.16.47-2.9 4.54-4.14 4.66-1.25.12-3.76-3.53-4.98-3.76-1.23-.23-4.9 2.25-6 1.68-1.12-.57-1.26-5-2.17-5.85-.9-.85-5.32-.75-5.95-1.83-.62-1.08 1.65-4.88 1.35-6.1-.3-1.2-4.07-3.5-4.02-4.75.06-1.25 4.03-3.22 4.43-4.4.4-1.18-1.52-5.16-.8-6.18.72-1.02 5.12-.53 6.1-1.3.98-.78 1.5-5.17 2.67-5.64 1.15-.47 4.6 2.33 5.83 2.2 1.24-.12 4.07-3.53 5.3-3.3 1.22.23 2.6 4.44 3.7 5 1.12.58 5.34-.77 6.25.1.9.85-.2 5.13.42 6.2.62 1.1 4.9 2.24 5.2 3.45.3 1.2-2.96 4.22-3 5.46-.07 1.26 2.9 4.54 2.5 5.72-.4 1.18-4.76 1.95-5.48 2.97-.73 1 0 5.37-.98 6.15z" transform="matrix(.322 0 0 .322 6.439 33.905)" overflow="visible" enable-background="accumulate"/><path fill="url(#p)" d="M24.25 17.87a2.7 2.7 0 1 1-5.4 0 2.7 2.7 0 1 1 5.4 0z" transform="matrix(.413 0 0 .413 .855 27.849)" overflow="visible" enable-background="accumulate"/><path fill="#2e3436" stroke="#babdb6" stroke-width=".49850999999999995" d="M.2 37.9h2.1v1.2H.2z" overflow="visible" enable-background="accumulate"/><path fill="#2e3436" stroke="#babdb6" stroke-width=".49850999999999995" d="M1.7 32.43l1.8 1.05-.6 1.05-1.82-1.05z" overflow="visible" enable-background="accumulate"/><path fill="#2e3436" stroke="#babdb6" stroke-width=".49850999999999995" d="M5.7 28.42l1.05 1.82-1.04.6-1.04-1.8z" overflow="visible" enable-background="accumulate"/><path fill="#2e3436" stroke="#babdb6" stroke-width=".49850999999999995" d="M11.34 27.03v2.1h-1.2v-2.1z" overflow="visible" enable-background="accumulate"/><path fill="#2e3436" stroke="#babdb6" stroke-width=".49850999999999995" d="M20.33 32.3l-1.82 1.05.6 1.04 1.83-1.06z" overflow="visible" enable-background="accumulate"/><path fill="#2e3436" stroke="#babdb6" stroke-width=".49850999999999995" d="M16.1 28.27l-1.04 1.82 1.04.6 1.05-1.83z" overflow="visible" enable-background="accumulate"/><path fill="#2e3436" stroke="#babdb6" stroke-width=".49850999999999995" d="M1.67 43.87l1.82-1.05-.6-1.05-1.83 1.05z" overflow="visible" enable-background="accumulate"/></g><g><path fill="#ef2929" stroke="#babdb6" stroke-width=".49850999999999995" d="M46.05 44l-1.8-1.05.6-1.04 1.8 1.05z" overflow="visible" enable-background="accumulate"/><path fill="#2e3436" stroke="#babdb6" stroke-width=".49850999999999995" d="M47.67 37.9h-2.1v1.2h2.1z" overflow="visible" enable-background="accumulate"/><path fill="url(#q)" d="M8.6 22.23c1.97.88 4.83 1.82 7.34 2.23 4.28-.1 7.23-2.33 7.6-7.84-.64-2.4-1.52-4.53-2.48-6.52L8.6 22.23z" transform="matrix(.873 0 0 .873 25.713 25.854)"/><path fill="url(#r)" stroke="#2e3436" stroke-width="2.421" d="M43.37 25.75a18.57 18.57 0 1 1-37.15 0 18.57 18.57 0 1 1 37.15 0z" transform="matrix(.413 0 0 .413 26.569 27.403)" overflow="visible" enable-background="accumulate"/><path fill="#dcdcdc" d="M34.18 33.65l-.8-2.23.5-.26 1.53 1.96-1.22.53z"/><path fill="url(#s)" stroke="#888a85" stroke-width="3.107" d="M26.92 30.35c-.98.77-5.06-.94-6.22-.47-1.16.47-2.9 4.54-4.14 4.66-1.25.12-3.76-3.53-4.98-3.76-1.23-.23-4.9 2.25-6 1.68-1.12-.57-1.26-5-2.17-5.85-.9-.85-5.32-.75-5.95-1.83-.62-1.08 1.65-4.88 1.35-6.1-.3-1.2-4.07-3.5-4.02-4.75.06-1.25 4.03-3.22 4.43-4.4.4-1.18-1.52-5.16-.8-6.18.72-1.02 5.12-.53 6.1-1.3.98-.78 1.5-5.17 2.67-5.64 1.15-.47 4.6 2.33 5.83 2.2 1.24-.12 4.07-3.53 5.3-3.3 1.22.23 2.6 4.44 3.7 5 1.12.58 5.34-.77 6.25.1.9.85-.2 5.13.42 6.2.62 1.1 4.9 2.24 5.2 3.45.3 1.2-2.96 4.22-3 5.46-.07 1.26 2.9 4.54 2.5 5.72-.4 1.18-4.76 1.95-5.48 2.97-.73 1 0 5.37-.98 6.15z" transform="matrix(.322 0 0 .322 32.153 33.905)" overflow="visible" enable-background="accumulate"/><path fill="url(#t)" d="M24.25 17.87a2.7 2.7 0 1 1-5.4 0 2.7 2.7 0 1 1 5.4 0z" transform="matrix(.413 0 0 .413 26.569 27.849)" overflow="visible" enable-background="accumulate"/><path fill="#2e3436" stroke="#babdb6" stroke-width=".49850999999999995" d="M25.92 37.9h2.1v1.2h-2.1z" overflow="visible" enable-background="accumulate"/><path fill="#2e3436" stroke="#babdb6" stroke-width=".49850999999999995" d="M27.4 32.43l1.82 1.05-.6 1.05-1.82-1.05z" overflow="visible" enable-background="accumulate"/><path fill="#2e3436" stroke="#babdb6" stroke-width=".49850999999999995" d="M31.42 28.42l1.05 1.82-1.05.6-1.05-1.8z" overflow="visible" enable-background="accumulate"/><path fill="#2e3436" stroke="#babdb6" stroke-width=".49850999999999995" d="M37.06 27.03v2.1h-1.2v-2.1z" overflow="visible" enable-background="accumulate"/><path fill="#2e3436" stroke="#babdb6" stroke-width=".49850999999999995" d="M46.04 32.3l-1.82 1.05.6 1.04 1.82-1.06z" overflow="visible" enable-background="accumulate"/><path fill="#2e3436" stroke="#babdb6" stroke-width=".49850999999999995" d="M41.82 28.27l-1.05 1.82 1.05.6 1.05-1.83z" overflow="visible" enable-background="accumulate"/><path fill="#2e3436" stroke="#babdb6" stroke-width=".49850999999999995" d="M27.4 43.87l1.8-1.05-.6-1.05-1.8 1.05z" overflow="visible" enable-background="accumulate"/></g></g></svg>