<svg xmlns="http://www.w3.org/2000/svg" width="48" height="48" xmlns:xlink="http://www.w3.org/1999/xlink"><defs><linearGradient id="a"><stop offset="0" stop-color="#fff" stop-opacity=".657"/><stop offset="1" stop-color="#fff" stop-opacity="0"/></linearGradient><linearGradient x1="27.827" x2="28.213" y1="26.185" y2="11.645" xlink:href="#a" gradientUnits="userSpaceOnUse" gradientTransform="matrix(1.467 0 0 1.465 -25.506 -35.403)"/><linearGradient x1="27.827" x2="28.213" y1="26.185" y2="11.645" xlink:href="#a" gradientUnits="userSpaceOnUse" gradientTransform="matrix(1.467 0 0 1.465 -25.506 -35.403)"/><linearGradient id="b" x1="27.827" x2="28.213" y1="26.185" y2="11.645" xlink:href="#a" gradientUnits="userSpaceOnUse" gradientTransform="matrix(.947 0 0 .946 -11.813 -10.079)"/></defs><g><path fill="none" stroke="#eeeeec" stroke-width="4" d="M37.87 39.78c-18.3-.3-22.3-10.7-38.93-10.34"/><path fill="none" stroke="#4e9a06" stroke-width="2" d="M37.66 40c-18.3-.3-22.3-11.05-38.93-10.7"/><path fill="#888a85" fill-rule="evenodd" stroke="#2e3436" stroke-width="2" d="M38.5 16.24V1.06h8.48v15.18z" stroke-linecap="square" overflow="visible" enable-background="accumulate"/><path fill="none" stroke="#eeeeec" d="M46.25 1.75l-6.57.04v13.94"/><path fill="#eeeeec" fill-rule="evenodd" d="M40.75 6.36L46 8.8l-5.25 2.4V6.37z" overflow="visible" enable-background="accumulate"/><path fill="#888a85" fill-rule="evenodd" stroke="#2e3436" stroke-width="2" d="M38.5 31.87V16.7h8.48v15.17z" stroke-linecap="square" overflow="visible" enable-background="accumulate"/><path fill="none" stroke="#eeeeec" d="M46.25 17.38l-6.57.04v13.95"/><path fill="#eeeeec" fill-rule="evenodd" d="M40.75 22L46 24.4l-5.25 2.42V22z" overflow="visible" enable-background="accumulate"/><path fill="#888a85" fill-rule="evenodd" stroke="#2e3436" stroke-width="2" d="M38.5 47.18V32h8.48v15.18z" stroke-linecap="square" overflow="visible" enable-background="accumulate"/><path fill="none" stroke="#eeeeec" d="M46.25 32.7l-6.57.03v13.95"/><path fill="#eeeeec" fill-rule="evenodd" d="M40.75 37.3L46 39.7l-5.25 2.43V37.3z" overflow="visible" enable-background="accumulate"/><rect width="21.397" height="21.397" x="10.322" y="-10.682" fill="#edd400" fill-rule="evenodd" stroke="#746100" stroke-width="2" transform="matrix(.708 .707 -.708 .707 0 0)" ry="3.127" overflow="visible" enable-background="accumulate"/><path fill="url(#b)" fill-rule="evenodd" d="M2.4 16.98c-1.13-1.12-1.13-2.93 0-4.05L12.83 2.5c1.12-1.1 2.93-1.1 4.06 0L27.7 13.58c-9.42-3.3-19 5.7-25.32 3.4z" overflow="visible" enable-background="accumulate"/><rect width="18.044" height="18.044" x="11.941" y="-8.948" fill="none" stroke="#fff" stroke-opacity=".65" stroke-width="2" ry="1.852" overflow="visible" enable-background="accumulate" transform="matrix(.708 .707 -.708 .707 0 0)"/><path fill="none" stroke="#fff" stroke-width="2" d="M14.83 18h-.56c0-.82.04-1.48.13-1.96.1-.48.2-.85.34-1.13.14-.27.5-.78 1.05-1.52.44-.58.75-1.12.93-1.63.18-.52.27-1.08.27-1.7 0-.82-.24-1.5-.7-2-.48-.5-1.05-.76-1.72-.76-.6 0-1.08.13-1.47.42-.38.3-.58.6-.58.9 0 .16.14.35.42.56.4.33.62.68.62 1.06 0 .34-.1.62-.33.85-.22.2-.5.32-.82.32-.4 0-.72-.16-1-.47-.26-.32-.4-.74-.4-1.25 0-.8.38-1.54 1.12-2.18.75-.65 1.7-.97 2.83-.97 1.16 0 2.12.36 2.88 1.08.75.72 1.13 1.6 1.13 2.63 0 .66-.13 1.26-.4 1.8-.2.4-.68.96-1.48 1.7-1.03.92-1.66 1.6-1.9 2.05-.2.45-.33 1.2-.35 2.2zm-.25 2.3c.35 0 .65.12.9.36.24.25.36.55.36.9 0 .36-.12.67-.37.93-.24.24-.54.37-.9.37-.35 0-.65-.12-.9-.38-.24-.26-.36-.58-.36-.95 0-.35.13-.65.38-.9.24-.24.54-.36.9-.36z" style="-inkscape-font-specification:Century" font-size="14" font-family="Century"/><path d="M14.83 18h-.56c0-.82.04-1.48.13-1.96.1-.48.2-.85.34-1.13.14-.27.5-.78 1.05-1.52.44-.58.75-1.12.93-1.63.18-.52.27-1.08.27-1.7 0-.82-.24-1.5-.7-2-.48-.5-1.05-.76-1.72-.76-.6 0-1.08.13-1.47.42-.38.3-.58.6-.58.9 0 .16.14.35.42.56.4.33.62.68.62 1.06 0 .34-.1.62-.33.85-.22.2-.5.32-.82.32-.4 0-.72-.16-1-.47-.26-.32-.4-.74-.4-1.25 0-.8.38-1.54 1.12-2.18.75-.65 1.7-.97 2.83-.97 1.16 0 2.12.36 2.88 1.08.75.72 1.13 1.6 1.13 2.63 0 .66-.13 1.26-.4 1.8-.2.4-.68.96-1.48 1.7-1.03.92-1.66 1.6-1.9 2.05-.2.45-.33 1.2-.35 2.2zm-.25 2.3c.35 0 .65.12.9.36.24.25.36.55.36.9 0 .36-.12.67-.37.93-.24.24-.54.37-.9.37-.35 0-.65-.12-.9-.38-.24-.26-.36-.58-.36-.95 0-.35.13-.65.38-.9.24-.24.54-.36.9-.36z" style="-inkscape-font-specification:Century" font-size="14" font-family="Century"/></g></svg>