<svg xmlns="http://www.w3.org/2000/svg" width="50pt" height="50pt" viewBox="0 0 50 50"><g stroke="#000"><path id="Path_12" d="M28 28h4v4h-4zM28 18h4v4h-4z"/><path id="Path_10" d="M8 8h4v4H8z"/><path id="Path_11" d="M18 8h4v4h-4z"/><path id="Path_12" d="M28 8h4v4h-4zM38 8h4v4h-4z"/><path d="M8 38h4v4H8z"/><path d="M18 38h4v4h-4z"/><path id="Path_12" d="M28 38h4v4h-4zM38 38h4v4h-4z"/><path fill="none" d="M15 25H5"/><path fill="#fff" d="M12.5 18.75v12.5L25 25z"/><path d="M38 18h4v4h-4zM38 28h4v4h-4z"/></g></svg>