<svg xmlns="http://www.w3.org/2000/svg" width="48" height="48" xmlns:xlink="http://www.w3.org/1999/xlink"><defs><linearGradient id="d"><stop offset="0" stop-color="#0003ff"/><stop offset="1"/></linearGradient><linearGradient id="c"><stop offset="0" stop-color="#13ff00"/><stop offset="1"/></linearGradient><linearGradient id="b"><stop offset="0" stop-color="#f00"/><stop offset="1"/></linearGradient><linearGradient id="a"><stop offset="0" stop-color="#fff"/><stop offset="1" stop-color="#fff" stop-opacity="0"/></linearGradient><linearGradient><stop offset="0"/><stop offset="1" stop-color="#fff"/></linearGradient><radialGradient id="e" cx="270" cy="270" r="270" xlink:href="#a" gradientUnits="userSpaceOnUse" fx="270" fy="270"/><linearGradient x1="29.143" x2="29.143" y1="26.686" y2="47.259" xlink:href="#b" gradientUnits="userSpaceOnUse" gradientTransform="translate(0 -15.556)"/><linearGradient x1="29.143" x2="29.143" y1="26.686" y2="47.259" xlink:href="#c" gradientUnits="userSpaceOnUse" gradientTransform="translate(0 -15.556)"/><linearGradient x1="29.143" x2="29.143" y1="26.686" y2="47.259" xlink:href="#d" gradientUnits="userSpaceOnUse" gradientTransform="translate(0 -15.556)"/><linearGradient id="f" x1="29.143" x2="29.143" y1="26.686" y2="47.259" xlink:href="#b" gradientUnits="userSpaceOnUse" gradientTransform="translate(0 -15.556)"/><linearGradient id="g" x1="29.143" x2="29.143" y1="26.686" y2="47.259" xlink:href="#c" gradientUnits="userSpaceOnUse" gradientTransform="translate(0 -15.556)"/><linearGradient id="h" x1="29.143" x2="29.143" y1="26.686" y2="47.259" xlink:href="#d" gradientUnits="userSpaceOnUse" gradientTransform="translate(0 -15.556)"/></defs><g><g><g fill-rule="evenodd"><path fill="#0247fe" d="M9.34 33.54c-2.18-.57-3.9-1.55-5.48-3.12l8.64-8.52-3.16 11.64z"/><path fill="#0391ce" d="M15.66 33.54c-2.17.57-4.15.57-6.32 0L12.5 21.9l3.16 11.64z"/><path fill="#66b032" d="M21.14 30.42c-1.6 1.57-3.3 2.55-5.48 3.12L12.5 21.9l8.64 8.52z"/><path fill="#d0ea2b" d="M24.3 25.02c-.58 2.14-1.57 3.83-3.16 5.4L12.5 21.9l11.8 3.12z"/><path fill="#fefe33" d="M24.3 18.78c.6 2.14.6 4.1 0 6.24L12.5 21.9l11.8-3.12z"/><path fill="#fabc02" d="M21.14 13.37c1.6 1.57 2.58 3.26 3.17 5.4L12.5 21.9l8.64-8.53z"/><path fill="#fb9902" d="M15.66 10.25c2.18.58 3.9 1.55 5.48 3.12L12.5 21.9l3.16-11.65z"/><path fill="#fd5308" d="M9.34 10.25c2.17-.57 4.15-.57 6.32 0L12.5 21.9 9.34 10.25z"/><path fill="#3d01a4" d="M3.86 30.42c-1.6-1.57-2.6-3.26-3.17-5.4l11.8-3.12-8.64 8.52z"/><path fill="#8601af" d="M.7 25.02c-.6-2.15-.6-4.1 0-6.24l11.8 3.12L.7 25.02z"/><path fill="#fe2712" d="M3.86 13.37c1.6-1.57 3.3-2.54 5.48-3.12L12.5 21.9l-8.64-8.53z"/><path fill="#a7194b" d="M.7 18.78c.57-2.15 1.57-3.84 3.16-5.4l8.64 8.52L.7 18.78z"/></g><path fill="url(#e)" d="M540 270a270 270 0 1 1-540 0 270 270 0 1 1 540 0z" transform="matrix(.045 0 0 .045 .294 9.91)" overflow="visible"/><path fill="none" stroke="#000" stroke-width="1.529" d="M37.17 21.7a18.33 18.33 0 1 1-36.66 0 18.33 18.33 0 1 1 36.67 0z" transform="matrix(.657 0 0 .651 .055 7.548)" overflow="visible" enable-background="accumulate"/><path fill="none" stroke="#fff" stroke-opacity=".502" stroke-width="1.652" d="M37.17 21.7a18.33 18.33 0 1 1-36.66 0 18.33 18.33 0 1 1 36.67 0z" transform="matrix(.608 0 0 .603 .976 8.599)" overflow="visible" enable-background="accumulate"/></g><g fill-rule="evenodd"><path stroke="#000" d="M25.05 10.93H47.5v21.5H25.06z" overflow="visible" enable-background="accumulate"/><path fill="url(#f)" d="M25.56 11.13h7.17V31.7h-7.17z" overflow="visible" enable-background="accumulate" transform="translate(0 .202)"/><path fill="url(#g)" d="M32.63 11.13h7.17V31.7h-7.17z" overflow="visible" enable-background="accumulate" transform="translate(0 .202)"/><path fill="url(#h)" d="M39.83 11.13H47V31.7h-7.17z" overflow="visible" enable-background="accumulate" transform="translate(0 .202)"/></g><path fill-rule="evenodd" stroke="#fff" stroke-width="1.59.255" d="M19.07 14.53l12.38 7.16-12.38 7.14v-14.3z" overflow="visible" enable-background="accumulate"/></g></svg>