<svg xmlns="http://www.w3.org/2000/svg" width="48" height="48" xmlns:xlink="http://www.w3.org/1999/xlink"><defs><linearGradient id="a"><stop offset="0" stop-color="#eeeeec"/><stop offset="1" stop-color="#eeeeec" stop-opacity="0"/></linearGradient><linearGradient id="b" x1="7.757" x2="8.513" y1="5" y2="11" xlink:href="#a" gradientUnits="userSpaceOnUse" gradientTransform="matrix(3.179 0 0 2.831 -1.564 15.143)"/></defs><g><path fill="#729fcf" fill-rule="evenodd" stroke="#204a87" stroke-width="2" stroke-dashoffset="4.2" d="M28.65 1.24v45.54h18.42V1.24z" stroke-linecap="square" overflow="visible"/><path fill="none" stroke="url(#b)" stroke-width="2" stroke-dashoffset="4.2" d="M3.2 30.7h41.33v14.17H3.2z" transform="matrix(0 1 1 0 0 0)" stroke-linecap="square" overflow="visible"/><path fill="none" stroke="#204a87" stroke-width="2" d="M30 12.28h15.7" stroke-linecap="square"/><path fill="none" stroke="#204a87" stroke-width="2" d="M30.03 24h15.7" stroke-linecap="square"/><path fill="none" stroke="#204a87" stroke-width="2" d="M30.03 35.74h15.7" stroke-linecap="square"/><g font-size="14" font-family="Georgia"><path fill="none" stroke="#fff" stroke-width="2" d="M7.6 21.07H1.17v-.93c.12-.14.3-.3.5-.47.23-.18.5-.37.8-.57.17-.13.4-.26.65-.4.25-.15.54-.3.87-.5.36-.18.63-.35.83-.5.2-.14.37-.32.53-.53.1-.14.2-.32.25-.53.07-.2.1-.52.1-.9 0-.58-.15-1-.45-1.26-.3-.27-.7-.4-1.18-.4-.3 0-.57.06-.84.17-.26.12-.46.28-.6.48.04.15.08.32.13.52.04.2.07.4.07.6 0 .17-.07.32-.22.45-.13.14-.34.2-.63.2-.22 0-.4-.07-.52-.23-.13-.16-.2-.37-.2-.63 0-.25.08-.5.22-.74.13-.25.33-.48.6-.7.24-.2.55-.36.92-.5.35-.12.75-.18 1.18-.18.94 0 1.68.2 2.23.62.56.42.83.98.83 1.67 0 .35-.05.65-.15.92-.1.28-.25.52-.47.73-.23.23-.52.43-.84.6-.32.16-.82.4-1.48.7-.4.17-.77.35-1.1.55-.35.2-.63.38-.85.56H7.6v1.2zm3.5-.78c0 .24-.1.46-.3.64-.18.18-.4.27-.65.27-.26 0-.48-.08-.66-.26-.2-.18-.3-.4-.3-.65 0-.27.1-.5.3-.67.17-.2.4-.28.65-.28s.47.1.66.28c.2.18.3.4.3.66zm4.25 3.27c-.43 0-.82-.06-1.17-.16-.36-.1-.67-.25-.92-.43-.26-.18-.45-.4-.6-.63-.13-.23-.2-.48-.2-.73 0-.2.05-.4.16-.6.1-.17.3-.26.53-.26.27 0 .48.06.63.2.14.13.2.3.2.46 0 .15 0 .33-.06.55-.05.23-.1.4-.1.48.02.04.08.1.16.17.1.06.2.13.3.18.16.07.3.12.47.16.16.05.38.07.68.07.27 0 .53-.04.8-.13.24-.1.46-.24.65-.44.2-.2.36-.45.47-.73.1-.28.17-.65.17-1.1 0-.25-.03-.5-.08-.74s-.15-.45-.3-.63c-.13-.18-.32-.3-.57-.4-.24-.1-.55-.16-.92-.16h-.9v-.78h.6c.62 0 1.08-.2 1.35-.53.28-.35.42-.87.42-1.57 0-.57-.13-1-.4-1.3-.27-.28-.65-.42-1.14-.42-.24 0-.43.03-.6.08-.14.06-.26.12-.36.17-.1.07-.2.14-.28.2-.07.1-.13.15-.16.18.03.16.07.34.1.55.06.2.08.4.08.6 0 .17-.07.33-.22.46-.14.14-.35.2-.63.2-.23 0-.4-.07-.52-.25-.1-.17-.16-.37-.16-.6 0-.24.06-.48.2-.72.13-.25.32-.48.58-.7.26-.2.58-.38.95-.5.38-.15.8-.2 1.3-.2.55 0 1.02.07 1.38.24.37.16.66.37.87.6.2.23.35.48.42.73.08.26.12.48.12.66 0 .23-.03.46-.1.7-.06.22-.16.43-.3.63-.17.2-.38.4-.64.57-.27.18-.6.32-1 .43v.1c.26.03.54.1.83.18.3.1.55.22.78.4.25.2.45.43.6.72.16.3.24.67.24 1.12 0 .88-.35 1.6-1.06 2.13-.7.54-1.58.82-2.63.82z" style="-inkscape-font-specification:Georgia"/><path d="M7.6 21.07H1.17v-.93c.12-.14.3-.3.5-.47.23-.18.5-.37.8-.57.17-.13.4-.26.65-.4.25-.15.54-.3.87-.5.36-.18.63-.35.83-.5.2-.14.37-.32.53-.53.1-.14.2-.32.25-.53.07-.2.1-.52.1-.9 0-.58-.15-1-.45-1.26-.3-.27-.7-.4-1.18-.4-.3 0-.57.06-.84.17-.26.12-.46.28-.6.48.04.15.08.32.13.52.04.2.07.4.07.6 0 .17-.07.32-.22.45-.13.14-.34.2-.63.2-.22 0-.4-.07-.52-.23-.13-.16-.2-.37-.2-.63 0-.25.08-.5.22-.74.13-.25.33-.48.6-.7.24-.2.55-.36.92-.5.35-.12.75-.18 1.18-.18.94 0 1.68.2 2.23.62.56.42.83.98.83 1.67 0 .35-.05.65-.15.92-.1.28-.25.52-.47.73-.23.23-.52.43-.84.6-.32.16-.82.4-1.48.7-.4.17-.77.35-1.1.55-.35.2-.63.38-.85.56H7.6v1.2zm3.5-.78c0 .24-.1.46-.3.64-.18.18-.4.27-.65.27-.26 0-.48-.08-.66-.26-.2-.18-.3-.4-.3-.65 0-.27.1-.5.3-.67.17-.2.4-.28.65-.28s.47.1.66.28c.2.18.3.4.3.66zm4.25 3.27c-.43 0-.82-.06-1.17-.16-.36-.1-.67-.25-.92-.43-.26-.18-.45-.4-.6-.63-.13-.23-.2-.48-.2-.73 0-.2.05-.4.16-.6.1-.17.3-.26.53-.26.27 0 .48.06.63.2.14.13.2.3.2.46 0 .15 0 .33-.06.55-.05.23-.1.4-.1.48.02.04.08.1.16.17.1.06.2.13.3.18.16.07.3.12.47.16.16.05.38.07.68.07.27 0 .53-.04.8-.13.24-.1.46-.24.65-.44.2-.2.36-.45.47-.73.1-.28.17-.65.17-1.1 0-.25-.03-.5-.08-.74s-.15-.45-.3-.63c-.13-.18-.32-.3-.57-.4-.24-.1-.55-.16-.92-.16h-.9v-.78h.6c.62 0 1.08-.2 1.35-.53.28-.35.42-.87.42-1.57 0-.57-.13-1-.4-1.3-.27-.28-.65-.42-1.14-.42-.24 0-.43.03-.6.08-.14.06-.26.12-.36.17-.1.07-.2.14-.28.2-.07.1-.13.15-.16.18.03.16.07.34.1.55.06.2.08.4.08.6 0 .17-.07.33-.22.46-.14.14-.35.2-.63.2-.23 0-.4-.07-.52-.25-.1-.17-.16-.37-.16-.6 0-.24.06-.48.2-.72.13-.25.32-.48.58-.7.26-.2.58-.38.95-.5.38-.15.8-.2 1.3-.2.55 0 1.02.07 1.38.24.37.16.66.37.87.6.2.23.35.48.42.73.08.26.12.48.12.66 0 .23-.03.46-.1.7-.06.22-.16.43-.3.63-.17.2-.38.4-.64.57-.27.18-.6.32-1 .43v.1c.26.03.54.1.83.18.3.1.55.22.78.4.25.2.45.43.6.72.16.3.24.67.24 1.12 0 .88-.35 1.6-1.06 2.13-.7.54-1.58.82-2.63.82z" style="-inkscape-font-specification:Georgia"/></g><g><path fill="none" stroke="#fff" stroke-width="2" d="M32.47 14.3V17h-11.8v2h11.8v2.86l6.66-3.72-6.66-3.85z"/><path fill-rule="evenodd" d="M32.47 14.3V17h-11.8v2h11.8v2.86l6.66-3.72-6.66-3.85z"/></g></g></svg>