<svg xmlns="http://www.w3.org/2000/svg" width="48" height="48" xmlns:xlink="http://www.w3.org/1999/xlink"><defs><linearGradient id="a"><stop offset="0" stop-color="#eeeeec"/><stop offset="1" stop-color="#eeeeec" stop-opacity="0"/></linearGradient><linearGradient id="b" x1="7.757" x2="8.513" y1="5" y2="11" xlink:href="#a" gradientUnits="userSpaceOnUse" gradientTransform="matrix(3.179 0 0 2.831 -1.564 -12.429)"/></defs><g><path fill="#729fcf" fill-rule="evenodd" stroke="#204a87" stroke-width="2" stroke-dashoffset="4.2" d="M1.08 1.24v45.54H19.5V1.24z" stroke-linecap="square" overflow="visible"/><path fill="none" stroke="url(#b)" stroke-width="2" stroke-dashoffset="4.2" d="M3.2 3.14h41.33V17.3H3.2z" transform="matrix(0 1 1 0 0 0)" stroke-linecap="square" overflow="visible"/><path fill="none" stroke="#204a87" stroke-width="2" d="M2.43 12.28h15.7" stroke-linecap="square"/><path fill="none" stroke="#204a87" stroke-width="2" d="M2.46 24h15.7" stroke-linecap="square"/><path fill="none" stroke="#204a87" stroke-width="2" d="M2.46 35.74h15.7" stroke-linecap="square"/><g font-size="14" font-family="Georgia"><path fill="none" stroke="#fff" stroke-width="2" d="M35.87 21.07h-6.4v-.93c.12-.14.3-.3.5-.47.23-.18.5-.37.8-.57.17-.13.4-.26.64-.4.27-.15.56-.3.88-.5.36-.18.64-.35.83-.5.2-.14.38-.32.54-.53.1-.14.2-.32.26-.53.06-.2.1-.52.1-.9 0-.58-.16-1-.47-1.26-.3-.27-.7-.4-1.17-.4-.3 0-.58.06-.84.17-.27.12-.47.28-.6.48.03.15.07.32.12.52.05.2.07.4.07.6 0 .17-.06.32-.2.45-.15.14-.36.2-.64.2-.23 0-.4-.07-.53-.23-.12-.16-.18-.37-.18-.63 0-.25.07-.5.2-.74.14-.25.34-.48.6-.7.24-.2.55-.36.92-.5.37-.12.77-.18 1.2-.18.93 0 1.67.2 2.22.62.54.42.82.98.82 1.67 0 .35-.05.65-.15.92-.1.28-.26.52-.48.73-.25.23-.53.43-.85.6-.33.16-.82.4-1.5.7-.38.17-.75.35-1.1.55-.34.2-.62.38-.84.56h5.27v1.2zm3.5-.78c0 .24-.1.46-.28.64-.2.18-.4.27-.67.27-.25 0-.47-.08-.65-.26-.2-.18-.28-.4-.28-.65 0-.27.1-.5.28-.67.18-.2.4-.28.65-.28.26 0 .48.1.66.28.18.18.27.4.27.66zm4.27 3.27c-.43 0-.82-.06-1.18-.16-.35-.1-.66-.25-.9-.43-.27-.18-.47-.4-.6-.63-.14-.23-.2-.48-.2-.73 0-.2.04-.4.15-.6.12-.17.3-.26.54-.26.27 0 .48.06.62.2.15.13.22.3.22.46 0 .15-.03.33-.07.55-.04.23-.08.4-.1.48.02.04.08.1.17.17.08.06.18.13.3.18.15.07.3.12.47.16.16.05.38.07.67.07.3 0 .55-.04.8-.13.25-.1.48-.24.67-.44.2-.2.35-.45.47-.73.1-.28.16-.65.16-1.1 0-.25-.02-.5-.07-.74-.06-.24-.15-.45-.3-.63-.14-.18-.33-.3-.57-.4-.25-.1-.56-.16-.93-.16h-.9v-.78h.6c.63 0 1.08-.2 1.36-.53.27-.35.4-.87.4-1.57 0-.57-.13-1-.4-1.3-.26-.28-.65-.42-1.14-.42-.23 0-.43.03-.58.08-.15.06-.28.12-.37.17-.1.07-.2.14-.27.2-.08.1-.13.15-.17.18.03.16.07.34.12.55.04.2.07.4.07.6 0 .17-.08.33-.22.46-.14.14-.35.2-.63.2-.24 0-.42-.07-.53-.25-.1-.17-.17-.37-.17-.6 0-.24.07-.48.2-.72.13-.25.33-.48.6-.7.25-.2.56-.38.94-.5.37-.15.8-.2 1.3-.2.55 0 1 .07 1.38.24.37.16.66.37.87.6.2.23.33.48.4.73.1.26.13.48.13.66 0 .23-.04.46-.1.7-.06.22-.17.43-.3.63-.17.2-.4.4-.65.57-.26.18-.6.32-1 .43v.1c.27.03.54.1.83.18.3.1.56.22.8.4.24.2.43.43.6.72.14.3.22.67.22 1.12 0 .88-.35 1.6-1.05 2.13-.7.54-1.58.82-2.63.82z" style="-inkscape-font-specification:Georgia"/><path d="M35.87 21.07h-6.4v-.93c.12-.14.3-.3.5-.47.23-.18.5-.37.8-.57.17-.13.4-.26.64-.4.27-.15.56-.3.88-.5.36-.18.64-.35.83-.5.2-.14.38-.32.54-.53.1-.14.2-.32.26-.53.06-.2.1-.52.1-.9 0-.58-.16-1-.47-1.26-.3-.27-.7-.4-1.17-.4-.3 0-.58.06-.84.17-.27.12-.47.28-.6.48.03.15.07.32.12.52.05.2.07.4.07.6 0 .17-.06.32-.2.45-.15.14-.36.2-.64.2-.23 0-.4-.07-.53-.23-.12-.16-.18-.37-.18-.63 0-.25.07-.5.2-.74.14-.25.34-.48.6-.7.24-.2.55-.36.92-.5.37-.12.77-.18 1.2-.18.93 0 1.67.2 2.22.62.54.42.82.98.82 1.67 0 .35-.05.65-.15.92-.1.28-.26.52-.48.73-.25.23-.53.43-.85.6-.33.16-.82.4-1.5.7-.38.17-.75.35-1.1.55-.34.2-.62.38-.84.56h5.27v1.2zm3.5-.78c0 .24-.1.46-.28.64-.2.18-.4.27-.67.27-.25 0-.47-.08-.65-.26-.2-.18-.28-.4-.28-.65 0-.27.1-.5.28-.67.18-.2.4-.28.65-.28.26 0 .48.1.66.28.18.18.27.4.27.66zm4.27 3.27c-.43 0-.82-.06-1.18-.16-.35-.1-.66-.25-.9-.43-.27-.18-.47-.4-.6-.63-.14-.23-.2-.48-.2-.73 0-.2.04-.4.15-.6.12-.17.3-.26.54-.26.27 0 .48.06.62.2.15.13.22.3.22.46 0 .15-.03.33-.07.55-.04.23-.08.4-.1.48.02.04.08.1.17.17.08.06.18.13.3.18.15.07.3.12.47.16.16.05.38.07.67.07.3 0 .55-.04.8-.13.25-.1.48-.24.67-.44.2-.2.35-.45.47-.73.1-.28.16-.65.16-1.1 0-.25-.02-.5-.07-.74-.06-.24-.15-.45-.3-.63-.14-.18-.33-.3-.57-.4-.25-.1-.56-.16-.93-.16h-.9v-.78h.6c.63 0 1.08-.2 1.36-.53.27-.35.4-.87.4-1.57 0-.57-.13-1-.4-1.3-.26-.28-.65-.42-1.14-.42-.23 0-.43.03-.58.08-.15.06-.28.12-.37.17-.1.07-.2.14-.27.2-.08.1-.13.15-.17.18.03.16.07.34.12.55.04.2.07.4.07.6 0 .17-.08.33-.22.46-.14.14-.35.2-.63.2-.24 0-.42-.07-.53-.25-.1-.17-.17-.37-.17-.6 0-.24.07-.48.2-.72.13-.25.33-.48.6-.7.25-.2.56-.38.94-.5.37-.15.8-.2 1.3-.2.55 0 1 .07 1.38.24.37.16.66.37.87.6.2.23.33.48.4.73.1.26.13.48.13.66 0 .23-.04.46-.1.7-.06.22-.17.43-.3.63-.17.2-.4.4-.65.57-.26.18-.6.32-1 .43v.1c.27.03.54.1.83.18.3.1.56.22.8.4.24.2.43.43.6.72.14.3.22.67.22 1.12 0 .88-.35 1.6-1.05 2.13-.7.54-1.58.82-2.63.82z" style="-inkscape-font-specification:Georgia"/></g><g><path fill="none" stroke="#fff" stroke-width="2" d="M21.47 14.3V17H9.67v2h11.8v2.86l6.66-3.72-6.66-3.85z"/><path fill-rule="evenodd" d="M21.47 14.3V17H9.67v2h11.8v2.86l6.66-3.72-6.66-3.85z"/></g></g></svg>