<svg xmlns="http://www.w3.org/2000/svg" width="48" height="48" xmlns:xlink="http://www.w3.org/1999/xlink"><defs><linearGradient id="a"><stop offset="0" stop-color="#fff" stop-opacity=".657"/><stop offset="1" stop-color="#fff" stop-opacity="0"/></linearGradient><linearGradient id="b" x1="27.827" x2="28.213" y1="26.185" y2="11.645" xlink:href="#a" gradientUnits="userSpaceOnUse" gradientTransform="matrix(1.467 0 0 1.465 -17.301 -16.186)"/></defs><g><rect width="34.678" height="34.678" x="17.818" y="-16.384" fill-opacity=".251" fill-rule="evenodd" transform="matrix(.708 .707 -.708 .707 0 0)" ry="5.068" overflow="visible" enable-background="accumulate"/><rect width="33.144" height="33.144" x="16.29" y="-17.657" fill="#edd400" fill-rule="evenodd" stroke="#746100" stroke-width="2" transform="matrix(.708 .707 -.708 .707 0 0)" ry="4.844" overflow="visible" enable-background="accumulate"/><path fill="url(#b)" fill-rule="evenodd" d="M4.7 25.73c-1.73-1.74-1.73-4.54 0-6.28L20.88 3.32c1.74-1.74 4.54-1.74 6.28 0l16.8 17.13c-14.6-5.13-29.44 8.8-39.24 5.28z" overflow="visible" enable-background="accumulate"/><rect width="29.184" height="29.184" x="18.18" y="-15.588" fill="none" stroke="#fff" stroke-opacity=".65" stroke-width="2" ry="2.995" overflow="visible" enable-background="accumulate" transform="matrix(.708 .707 -.708 .707 0 0)"/><path fill="none" stroke="#fff" stroke-width="2" d="M23.97 27.33h-.87c0-1.3.07-2.3.2-3.05.14-.74.32-1.33.53-1.76.2-.43.76-1.22 1.63-2.37.7-.9 1.17-1.74 1.45-2.53.3-.8.43-1.66.43-2.6 0-1.3-.37-2.34-1.1-3.12-.72-.8-1.6-1.18-2.65-1.18-.9 0-1.67.22-2.27.67-.6.44-.9.9-.9 1.37 0 .26.2.55.64.88.64.5.96 1.05.96 1.64 0 .5-.17.95-.5 1.3-.34.35-.77.52-1.28.52-.6 0-1.13-.24-1.55-.73-.42-.5-.63-1.15-.63-1.95 0-1.25.58-2.38 1.74-3.38 1.15-1 2.6-1.5 4.37-1.5 1.8 0 3.3.56 4.46 1.67 1.2 1.12 1.77 2.48 1.77 4.08 0 1.03-.2 1.96-.6 2.8-.3.6-1.08 1.48-2.3 2.6-1.62 1.45-2.6 2.5-2.94 3.2-.34.7-.53 1.82-.56 3.4zm-.4 3.53c.55 0 1.02.2 1.4.58.38.38.57.84.57 1.37 0 .58-.2 1.06-.57 1.46-.38.4-.85.6-1.4.6-.54 0-1-.2-1.4-.6-.37-.38-.56-.87-.56-1.45 0-.53.2-1 .58-1.37.4-.38.85-.57 1.4-.57z" style="-inkscape-font-specification:Century" font-size="14" font-family="Century"/><path d="M23.97 27.33h-.87c0-1.3.07-2.3.2-3.05.14-.74.32-1.33.53-1.76.2-.43.76-1.22 1.63-2.37.7-.9 1.17-1.74 1.45-2.53.3-.8.43-1.66.43-2.6 0-1.3-.37-2.34-1.1-3.12-.72-.8-1.6-1.18-2.65-1.18-.9 0-1.67.22-2.27.67-.6.44-.9.9-.9 1.37 0 .26.2.55.64.88.64.5.96 1.05.96 1.64 0 .5-.17.95-.5 1.3-.34.35-.77.52-1.28.52-.6 0-1.13-.24-1.55-.73-.42-.5-.63-1.15-.63-1.95 0-1.25.58-2.38 1.74-3.38 1.15-1 2.6-1.5 4.37-1.5 1.8 0 3.3.56 4.46 1.67 1.2 1.12 1.77 2.48 1.77 4.08 0 1.03-.2 1.96-.6 2.8-.3.6-1.08 1.48-2.3 2.6-1.62 1.45-2.6 2.5-2.94 3.2-.34.7-.53 1.82-.56 3.4zm-.4 3.53c.55 0 1.02.2 1.4.58.38.38.57.84.57 1.37 0 .58-.2 1.06-.57 1.46-.38.4-.85.6-1.4.6-.54 0-1-.2-1.4-.6-.37-.38-.56-.87-.56-1.45 0-.53.2-1 .58-1.37.4-.38.85-.57 1.4-.57z" style="-inkscape-font-specification:Century" font-size="14" font-family="Century"/></g></svg>