<svg xmlns="http://www.w3.org/2000/svg" width="48" height="48"><g><path fill="none" stroke="#fff" stroke-width="4" d="M48.24 25.77C25.62 25.27 20.7 8.64.14 9.2"/><path fill="none" stroke="#4e9a06" stroke-width="2" d="M48.24 25.77C25.62 25.27 20.7 8.64.14 9.2"/><path fill="#888a85" fill-rule="evenodd" stroke="#2e3436" stroke-width="2" d="M9.1 22.32V1.1h9.04V22.3z" stroke-linecap="square" overflow="visible" enable-background="accumulate"/><path fill="none" stroke="#eeeeec" stroke-width="2" d="M17.42 2.7l-6.77.04v18.94"/><path fill="#eeeeec" fill-rule="evenodd" d="M12.12 9.26l4.36 2.64-4.36 2.63V9.26z" overflow="visible" enable-background="accumulate"/><path fill="#888a85" fill-rule="evenodd" stroke="#2e3436" stroke-width="2" d="M9.1 47.15V25.93h9.04v21.22z" stroke-linecap="square" overflow="visible" enable-background="accumulate"/><path fill="none" stroke="#eeeeec" stroke-width="2" d="M17.42 27.52l-6.77.05V46.5"/><path fill="#eeeeec" fill-rule="evenodd" d="M12.12 34.1l4.36 2.63-4.36 2.64V34.1z" overflow="visible" enable-background="accumulate"/><path fill="#888a85" fill-rule="evenodd" stroke="#2e3436" stroke-width="2" d="M32.05 34.32V13.1h9.05v21.22z" stroke-linecap="square" overflow="visible" enable-background="accumulate"/><path fill="none" stroke="#eeeeec" stroke-width="2" d="M40.38 14.7l-6.78.04v18.94"/><path fill="#eeeeec" fill-rule="evenodd" d="M35.07 21.26l4.36 2.64-4.36 2.63v-5.27z" overflow="visible" enable-background="accumulate"/></g></svg>