<svg xmlns="http://www.w3.org/2000/svg" width="48" height="48" xmlns:i="&ns_ai;" xmlns:xlink="http://www.w3.org/1999/xlink"><defs><radialGradient id="a" cx="111.45" cy="398.607" r="15.925" gradientUnits="userSpaceOnUse" gradientTransform="matrix(1 0 0 1.085 0 -34.977)" fy="398.607" fx="111.45"><stop offset="0" stop-color="#fff"/><stop offset=".079" stop-color="#FEFEF8"/><stop offset=".182" stop-color="#FDFBE7"/><stop offset=".298" stop-color="#FAF5CA"/><stop offset=".424" stop-color="#F5EEA2"/><stop offset=".559" stop-color="#F0E473"/><stop offset=".698" stop-color="#E9D73B"/><stop offset=".809" stop-color="#E4CD10"/></radialGradient><radialGradient cx="111.45" cy="398.607" r="15.925" xlink:href="#a" gradientUnits="userSpaceOnUse" gradientTransform="matrix(1.411 0 0 1.531 -163.62 -592.712)" fx="111.45" fy="398.607"/><linearGradient id="b" x1="106.368" x2="115.904" y1="407.218" y2="407.218" gradientUnits="userSpaceOnUse"><stop offset="0" stop-color="#EFEEEC"/><stop offset=".601" stop-color="#BABDB6"/></linearGradient><linearGradient x1="106.368" x2="115.904" y1="407.218" y2="407.218" xlink:href="#b" gradientUnits="userSpaceOnUse" gradientTransform="matrix(1.411 0 0 1.411 -163.62 -543.349)"/><linearGradient id="c" x1="106.368" x2="115.904" y1="405.266" y2="405.266" gradientUnits="userSpaceOnUse"><stop offset="0" stop-color="#EFEEEC"/><stop offset=".601" stop-color="#BABDB6"/></linearGradient><linearGradient x1="106.368" x2="115.904" y1="405.266" y2="405.266" xlink:href="#c" gradientUnits="userSpaceOnUse" gradientTransform="matrix(1.411 0 0 1.411 -163.62 -543.349)"/><linearGradient id="d" x1="106.368" x2="115.906" y1="409.508" y2="409.508" gradientUnits="userSpaceOnUse"><stop offset="0" stop-color="#EFEEEC"/><stop offset=".601" stop-color="#BABDB6"/></linearGradient><linearGradient x1="106.368" x2="115.906" y1="409.508" y2="409.508" xlink:href="#d" gradientUnits="userSpaceOnUse" gradientTransform="matrix(1.411 0 0 1.411 -163.62 -543.349)"/><radialGradient id="e" cx="116.566" cy="388.978" r="26.146" gradientUnits="userSpaceOnUse" gradientTransform="matrix(1 0 0 1.085 0 -34.977)" fy="388.978" fx="116.566"><stop offset="0" stop-color="#fff"/><stop offset="1" stop-color="#F5F2C4"/></radialGradient><radialGradient cx="116.566" cy="388.978" r="26.146" xlink:href="#e" gradientUnits="userSpaceOnUse" gradientTransform="matrix(1.411 0 0 1.531 -163.62 -592.712)" fx="116.566" fy="388.978"/><radialGradient id="f" cx="110.936" cy="384.101" r="49.543" gradientUnits="userSpaceOnUse" gradientTransform="matrix(1 0 0 1.085 0 -34.977)" fy="384.101" fx="110.936"><stop offset="0" stop-color="#888A85"/><stop offset="1" stop-color="#545652"/></radialGradient><radialGradient cx="110.936" cy="384.101" r="49.543" xlink:href="#f" gradientUnits="userSpaceOnUse" gradientTransform="matrix(1.411 0 0 1.531 -163.62 -592.712)" fx="110.936" fy="384.101"/><linearGradient id="g" x1="105.517" x2="116.824" y1="407.217" y2="407.217" gradientUnits="userSpaceOnUse"><stop offset="0" stop-color="#545652"/><stop offset=".286" stop-color="#888A85"/><stop offset=".635" stop-color="#888A85"/><stop offset="1" stop-color="#545652"/></linearGradient><linearGradient x1="105.517" x2="116.824" y1="407.217" y2="407.217" xlink:href="#g" gradientUnits="userSpaceOnUse"/><linearGradient id="h" x1="105.517" x2="116.825" y1="406.136" y2="406.136" gradientUnits="userSpaceOnUse"><stop offset="0" stop-color="#545652"/><stop offset=".286" stop-color="#888A85"/><stop offset=".635" stop-color="#888A85"/><stop offset="1" stop-color="#545652"/></linearGradient><linearGradient x1="105.517" x2="116.825" y1="406.136" y2="406.136" xlink:href="#h" gradientUnits="userSpaceOnUse"/><linearGradient id="i" x1="105.517" x2="116.825" y1="406.309" y2="406.309" gradientUnits="userSpaceOnUse"><stop offset="0" stop-color="#545652"/><stop offset=".286" stop-color="#888A85"/><stop offset=".635" stop-color="#888A85"/><stop offset="1" stop-color="#545652"/></linearGradient><linearGradient x1="105.517" x2="116.825" y1="406.309" y2="406.309" xlink:href="#i" gradientUnits="userSpaceOnUse"/><linearGradient id="j" x1="105.516" x2="116.825" y1="404.348" y2="404.348" gradientUnits="userSpaceOnUse"><stop offset="0" stop-color="#545652"/><stop offset=".286" stop-color="#888A85"/><stop offset=".635" stop-color="#888A85"/><stop offset="1" stop-color="#545652"/></linearGradient><linearGradient x1="105.516" x2="116.825" y1="404.348" y2="404.348" xlink:href="#j" gradientUnits="userSpaceOnUse" gradientTransform="matrix(1.411 0 0 1.411 -163.62 -543.349)"/><linearGradient id="k" x1="105.517" x2="116.825" y1="404.161" y2="404.161" gradientUnits="userSpaceOnUse"><stop offset="0" stop-color="#545652"/><stop offset=".286" stop-color="#888A85"/><stop offset=".635" stop-color="#888A85"/><stop offset="1" stop-color="#545652"/></linearGradient><linearGradient x1="105.517" x2="116.825" y1="404.161" y2="404.161" xlink:href="#k" gradientUnits="userSpaceOnUse" gradientTransform="matrix(1.411 0 0 1.411 -163.62 -543.349)"/><linearGradient id="l" x1="105.517" x2="116.824" y1="405.265" y2="405.265" gradientUnits="userSpaceOnUse"><stop offset="0" stop-color="#545652"/><stop offset=".286" stop-color="#888A85"/><stop offset=".635" stop-color="#888A85"/><stop offset="1" stop-color="#545652"/></linearGradient><linearGradient x1="105.517" x2="116.824" y1="405.265" y2="405.265" xlink:href="#l" gradientUnits="userSpaceOnUse" gradientTransform="matrix(1.411 0 0 1.411 -163.62 -543.349)"/><linearGradient id="m" x1="105.516" x2="116.825" y1="408.908" y2="408.908" gradientUnits="userSpaceOnUse"><stop offset="0" stop-color="#545652"/><stop offset=".286" stop-color="#888A85"/><stop offset=".635" stop-color="#888A85"/><stop offset="1" stop-color="#545652"/></linearGradient><linearGradient x1="105.516" x2="116.825" y1="408.908" y2="408.908" xlink:href="#m" gradientUnits="userSpaceOnUse" gradientTransform="matrix(1.411 0 0 1.411 -163.62 -543.349)"/><linearGradient id="n" x1="105.517" x2="116.825" y1="408.746" y2="408.746" gradientUnits="userSpaceOnUse"><stop offset="0" stop-color="#545652"/><stop offset=".286" stop-color="#888A85"/><stop offset=".635" stop-color="#888A85"/><stop offset="1" stop-color="#545652"/></linearGradient><linearGradient x1="105.517" x2="116.825" y1="408.746" y2="408.746" xlink:href="#n" gradientUnits="userSpaceOnUse" gradientTransform="matrix(1.411 0 0 1.411 -163.62 -543.349)"/><linearGradient id="o" x1="105.516" x2="116.824" y1="409.506" y2="409.506" gradientUnits="userSpaceOnUse"><stop offset="0" stop-color="#545652"/><stop offset=".286" stop-color="#888A85"/><stop offset=".635" stop-color="#888A85"/><stop offset="1" stop-color="#545652"/></linearGradient><linearGradient x1="105.516" x2="116.824" y1="409.506" y2="409.506" xlink:href="#o" gradientUnits="userSpaceOnUse" gradientTransform="matrix(1.411 0 0 1.411 -163.62 -543.349)"/><linearGradient id="p" x1="111.165" x2="111.165" y1="402.034" y2="403.444" gradientUnits="userSpaceOnUse"><stop offset="0" stop-color="#BABDB6"/><stop offset="1" stop-color="#545652"/></linearGradient><linearGradient x1="111.165" x2="111.165" y1="402.034" y2="403.444" xlink:href="#p" gradientUnits="userSpaceOnUse" gradientTransform="matrix(1.411 0 0 1.411 -163.62 -543.349)"/><linearGradient id="q"><stop offset="0" stop-color="#fff" stop-opacity=".657"/><stop offset="1" stop-color="#fff" stop-opacity="0"/></linearGradient><linearGradient id="r" x1="27.827" x2="28.213" y1="26.185" y2="11.645" xlink:href="#q" gradientUnits="userSpaceOnUse" gradientTransform="matrix(1.038 0 0 1.037 -.858 -.765)"/><radialGradient id="s" cx="111.45" cy="398.607" r="15.925" xlink:href="#a" gradientUnits="userSpaceOnUse" gradientTransform="matrix(1.411 0 0 1.531 -163.62 -592.712)" fx="111.45" fy="398.607"/><linearGradient id="t" x1="106.368" x2="115.904" y1="407.218" y2="407.218" xlink:href="#b" gradientUnits="userSpaceOnUse" gradientTransform="matrix(1.411 0 0 1.411 -163.62 -543.349)"/><linearGradient id="u" x1="106.368" x2="115.904" y1="405.266" y2="405.266" xlink:href="#c" gradientUnits="userSpaceOnUse" gradientTransform="matrix(1.411 0 0 1.411 -163.62 -543.349)"/><linearGradient id="v" x1="106.368" x2="115.906" y1="409.508" y2="409.508" xlink:href="#d" gradientUnits="userSpaceOnUse" gradientTransform="matrix(1.411 0 0 1.411 -163.62 -543.349)"/><radialGradient id="w" cx="116.566" cy="388.978" r="26.146" xlink:href="#e" gradientUnits="userSpaceOnUse" gradientTransform="matrix(1.411 0 0 1.531 -163.62 -592.712)" fx="116.566" fy="388.978"/><radialGradient id="x" cx="110.936" cy="384.101" r="49.543" xlink:href="#f" gradientUnits="userSpaceOnUse" gradientTransform="matrix(1.411 0 0 1.531 -163.62 -592.712)" fx="110.936" fy="384.101"/><linearGradient id="y" x1="105.517" x2="116.825" y1="406.309" y2="406.309" xlink:href="#i" gradientUnits="userSpaceOnUse"/><linearGradient id="z" x1="105.517" x2="116.825" y1="406.136" y2="406.136" xlink:href="#h" gradientUnits="userSpaceOnUse"/><linearGradient id="A" x1="105.517" x2="116.824" y1="407.217" y2="407.217" xlink:href="#g" gradientUnits="userSpaceOnUse"/><linearGradient id="B" x1="105.516" x2="116.825" y1="404.348" y2="404.348" xlink:href="#j" gradientUnits="userSpaceOnUse" gradientTransform="matrix(1.411 0 0 1.411 -163.62 -543.349)"/><linearGradient id="C" x1="105.517" x2="116.825" y1="404.161" y2="404.161" xlink:href="#k" gradientUnits="userSpaceOnUse" gradientTransform="matrix(1.411 0 0 1.411 -163.62 -543.349)"/><linearGradient id="D" x1="105.517" x2="116.824" y1="405.265" y2="405.265" xlink:href="#l" gradientUnits="userSpaceOnUse" gradientTransform="matrix(1.411 0 0 1.411 -163.62 -543.349)"/><linearGradient id="E" x1="105.516" x2="116.825" y1="408.908" y2="408.908" xlink:href="#m" gradientUnits="userSpaceOnUse" gradientTransform="matrix(1.411 0 0 1.411 -163.62 -543.349)"/><linearGradient id="F" x1="105.517" x2="116.825" y1="408.746" y2="408.746" xlink:href="#n" gradientUnits="userSpaceOnUse" gradientTransform="matrix(1.411 0 0 1.411 -163.62 -543.349)"/><linearGradient id="G" x1="105.516" x2="116.824" y1="409.506" y2="409.506" xlink:href="#o" gradientUnits="userSpaceOnUse" gradientTransform="matrix(1.411 0 0 1.411 -163.62 -543.349)"/><linearGradient id="H" x1="111.165" x2="111.165" y1="402.034" y2="403.444" xlink:href="#p" gradientUnits="userSpaceOnUse" gradientTransform="matrix(1.411 0 0 1.411 -163.62 -543.349)"/></defs><g><rect width="20.951" height="44.875" x="7.707" y="1.594" fill="none" stroke="#fff" stroke-width="3" ry="2.367" overflow="visible" enable-background="accumulate"/><rect width="25.331" height="25.331" x="27.845" y="-12.392" fill-opacity=".251" fill-rule="evenodd" transform="rotate(45.009)" ry="3.702" overflow="visible" enable-background="accumulate"/><path fill-rule="evenodd" stroke="#fff" stroke-width="2.00304" d="M28.62 14.03l-4.7-8.13h9.4l-4.7 8.13z" overflow="visible" enable-background="accumulate"/><rect width="20.951" height="44.875" x="7.707" y="1.594" fill="none" stroke="#000" ry="2.367" overflow="visible" enable-background="accumulate"/><rect width="24.211" height="24.211" x="26.729" y="-13.322" fill="#d3d7cf" fill-rule="evenodd" stroke="#555753" stroke-width="2" transform="rotate(45.009)" ry="3.538" overflow="visible" enable-background="accumulate"/><path fill="url(#r)" fill-rule="evenodd" d="M14.7 28.9c-1.22-1.23-1.22-3.2 0-4.44l11.44-11.42c1.23-1.23 3.2-1.23 4.44 0l11.87 12.13c-10.32-3.63-20.8 6.24-27.74 3.74z" overflow="visible" enable-background="accumulate"/><rect width="20.341" height="20.341" x="28.664" y="-11.387" fill="none" stroke="#fff" stroke-opacity=".65" stroke-width="2" ry="2.088" overflow="visible" enable-background="accumulate" transform="rotate(45.009)"/><path fill-rule="evenodd" d="M28.62 14.03l-4.7-8.13h9.4l-4.7 8.13z" overflow="visible" enable-background="accumulate"/><g><path fill="url(#s)" stroke="#babdb6" stroke-width="1.683" d="M-6.73-6.42C1.1-6.42 7.44-.22 7.44 8.26c0 5.42-2.36 7.54-4.64 10.94-.72 1.07-1.4 3.93-2.47 6.13-.9 1.8-4 2.83-7.06 2.83-3.07 0-6.17-1.02-7.06-2.83-1.07-2.2-1.75-5.06-2.46-6.13-2.28-3.4-4.64-5.52-4.64-10.94 0-8.48 6.34-14.68 14.17-14.68z" i:knockout="Off" transform="matrix(.438 0 0 .438 31.139 19.789)"/><path fill="url(#t)" d="M-.96 31.6c-1.35 1-3.6 1.68-5.77 1.68-2.2 0-4.42-.7-5.77-1.67-1.9-1.64-.58-2.67.5-1.9 1.36.8 3.33 1.3 5.27 1.3 1.94 0 3.9-.5 5.27-1.3 1.08-.77 2.4.26.5 1.9z" i:knockout="Off" transform="matrix(.438 0 0 .438 31.139 19.789)"/><path fill="url(#u)" d="M-12 26.95c1.36.8 3.33 1.27 5.27 1.27 1.94 0 3.9-.48 5.27-1.27 1.08-.78 2.4.36.5 2-1.35 1-3.6 1.56-5.77 1.56-2.2 0-4.42-.56-5.77-1.55-1.9-1.64-.58-2.78.5-2z" i:knockout="Off" transform="matrix(.438 0 0 .438 31.139 19.789)"/><path fill="url(#v)" d="M-1.26 35.36c-1.36.98-3.3 1.44-5.47 1.44-2.2 0-4.1-.46-5.46-1.44-1.88-1.65-.88-3.57.2-2.8 1.36.8 3.33 1.28 5.27 1.28 1.94 0 3.9-.5 5.27-1.28 1.08-.77 2.08 1.15.2 2.8z" i:knockout="Off" transform="matrix(.438 0 0 .438 31.139 19.789)"/><path fill="#babdb6" stroke="#babdb6" stroke-width=".44.671" d="M31.43 31.43l-.1.3s.1-.24.1-.3z" i:knockout="Off"/><path fill="#babdb6" stroke="#babdb6" stroke-width=".44.671" d="M27.7 34.47c-1.13-.1-2.16-.58-2.5-1.26.34.7 1.37 1.16 2.5 1.27z" i:knockout="Off"/><path fill="#fff" d="M31.76 20.7c.55 1.95-.85 4.13-3.12 4.88-2.27.76-4.56-.2-5.1-2.15-.56-1.94.83-4.13 3.1-4.88 2.28-.76 4.57.2 5.12 2.15z" i:knockout="Off" opacity=".5"/><path fill="url(#w)" d="M-20.38 8.26c0 4.28 1.55 6.42 3.33 8.9l1.2 1.72c.4.6.78 1.64 1.2 2.84 0 .02 1.32 3.34 1.32 3.34.8 1.66 3.94 2.53 6.6 2.53 2.66 0 5.78-.88 6.6-2.54l1.32-3.34c.4-1.2.78-2.24 1.18-2.85 0 0-.05.03-.08.05.2-.2.5-.66 1.3-1.76 1.77-2.48 3.32-4.62 3.32-8.9C6.92.22 1.05-5.86-6.73-5.86S-20.38.22-20.38 8.26zm7.97 16.27l-1.27-3.2c-.45-1.3-.84-2.4-1.33-3.13l-1.22-1.73c-1.8-2.5-3.12-4.32-3.12-8.2 0-7.4 5.42-13 12.6-13 7.2 0 12.62 5.6 12.62 13 0 3.88-1.3 5.68-3.1 8.2-.02 0-1.23 1.72-1.23 1.72-.5.73-.88 1.84-1.33 3.12 0 0-1.26 3.2-1.26 3.2-.46.94-2.77 1.94-5.7 1.94-2.9 0-5.22-1-5.67-1.93z" i:knockout="Off" transform="matrix(.438 0 0 .438 31.139 19.789)"/><path fill="url(#x)" d="M-21.42 8.26c0 4.67 1.73 7.06 3.56 9.6l1.18 1.67c.32.5.68 1.5 1.06 2.6.4 1.1.83 2.36 1.37 3.46 1.07 2.15 4.54 3.12 7.52 3.12 2.98 0 6.46-.97 7.52-3.13.53-1.1.97-2.37 1.36-3.48.38-1.08.74-2.1 1.07-2.6l1.18-1.67c1.83-2.53 3.56-4.92 3.56-9.6C7.96-.28 1.5-6.98-6.74-6.98-14.95-7-21.4-.3-21.4 8.27zm8.1 16.8c-.52-1.04-.95-2.26-1.33-3.34-.42-1.2-.8-2.24-1.2-2.85l-1.2-1.7c-1.8-2.5-3.33-4.63-3.33-8.9C-20.38.2-14.5-5.87-6.73-5.87S6.9.22 6.9 8.26c0 4.28-1.53 6.42-3.32 8.9l-1.2 1.7c-.4.62-.77 1.66-1.2 2.86-.37 1.08-.8 2.3-1.3 3.34-.73 1.47-3.5 2.53-6.6 2.53-3.1 0-5.9-1.07-6.6-2.54z" i:knockout="Off" transform="matrix(.438 0 0 .438 31.139 19.789)"/><g transform="matrix(.618 0 0 .618 -40.527 -218.198)"><linearGradient x1="105.517" x2="116.825" y1="406.309" y2="406.309" gradientUnits="userSpaceOnUse"><stop offset="0" stop-color="#545652"/><stop offset=".286" stop-color="#888A85"/><stop offset=".635" stop-color="#888A85"/><stop offset="1" stop-color="#545652"/></linearGradient><path fill="url(#y)" d="M116.58 403.83c0 .1-.16.5-.16.5l-.23.45c-.66 1.3-2.82 2-5.03 2-2.22 0-4.38-.7-5.03-2 0 0-.2-.38-.2-.48-.32 0-.03 1.7 0 1.93 0 .1.2.47.2.47.6 1.1 2.32 1.88 4.2 2.05.28.03.55.04.83.04 2.2 0 4.37-.8 5.02-2.1l.2-.47s.18-.4.18-.48c.05-.23.33-1.92 0-1.92zm-1.2 3.56c-.98.7-2.6 1.18-4.2 1.18-1.62 0-3.25-.5-4.24-1.2-1.38-1.15-.43-1.88.36-1.33 1 .56 2.44.9 3.87.9 1.42 0 2.86-.34 3.86-.9.8-.55 1.75.18.36 1.34z" enable-background="new" i:knockout="Off" i:isolated="yes"/><linearGradient x1="105.517" x2="116.825" y1="406.136" y2="406.136" gradientUnits="userSpaceOnUse"><stop offset="0" stop-color="#545652"/><stop offset=".286" stop-color="#888A85"/><stop offset=".635" stop-color="#888A85"/><stop offset="1" stop-color="#545652"/></linearGradient><path fill="url(#z)" d="M116.2 403.78l-.13.4-.2.4c-.55 1.07-2.47 1.8-4.7 1.8s-4.16-.73-4.7-1.8c0 0-.4-.9-.4-.9l-.5.4c-.08.12-.3.43 0 2.22 0-.07.25.6.25.6.62 1.17 2.4 2.06 4.5 2.25 0 0 .85.04.85.04 2.1 0 4.55-.72 5.35-2.3l.2-.5c0 .02.24-.65.24-.65.3-1.72.08-2.02 0-2.14l-.42-.52-.33.7zm.06 1.56c0 .12-.02.2-.04.34 0 0-.16.35-.16.35l-.22.5c-.53 1.07-2.5 1.86-4.67 1.86l-.8-.05c-1.83-.17-3.4-.9-3.9-1.85l-.16-.34c-.02-.22-.05-.4-.07-.6 1.08 1.2 3.24 1.63 4.94 1.63 1.8 0 4.1-.5 5.1-1.86z" i:knockout="Off"/><linearGradient x1="105.517" x2="116.824" y1="407.217" y2="407.217" gradientUnits="userSpaceOnUse"><stop offset="0" stop-color="#545652"/><stop offset=".286" stop-color="#888A85"/><stop offset=".635" stop-color="#888A85"/><stop offset="1" stop-color="#545652"/></linearGradient><path fill="url(#A)" d="M106 405.83c-.12.2-.45.9.7 1.88 1.12.8 2.86 1.28 4.47 1.28 1.6 0 3.35-.5 4.43-1.25l.03-.02c1.16-.97.82-1.68.7-1.87-.3-.44-.97-.5-1.5-.12-.94.53-2.32.85-3.66.85-1.35 0-2.73-.32-3.7-.86-.5-.36-1.16-.3-1.46.13zm1.14 1.23c-.53-.45-.54-.73-.52-.76.02-.04.23-.1.48.08 1.1.62 2.6.97 4.07.97 1.46 0 2.97-.35 4.03-.95.3-.2.5-.14.52-.1 0 0 0 0 0 .02 0 .08-.08.35-.55.75-.97.67-2.54 1.1-4 1.1-1.48 0-3.06-.43-4.03-1.1z" i:knockout="Off"/></g><path fill="url(#B)" d="M-6.73 30.76c3.12 0 6.17-1.02 7.08-2.84l.33-.62.24-.72c.05-.32.46-2.7 0-2.7L.46 25.1c-.9 1.82-4.07 2.83-7.2 2.83-3.1 0-6.27-1-7.18-2.83l-.46-1.23c-.46 0-.05 2.4 0 2.7 0 .14.28.68.28.68 0 .13.28.68.28.68.9 1.8 3.97 2.83 7.1 2.83zm-5.45-3.8c1.4.78 3.44 1.26 5.45 1.26 2 0 4.04-.48 5.45-1.27 1.12-.78 2.47.36.52 2-1.4 1-3.7 1.56-5.97 1.56-2.26 0-4.57-.56-5.97-1.55-1.95-1.64-.6-2.78.52-2z" i:isolated="yes" i:knockout="Off" enable-background="new" transform="matrix(.438 0 0 .438 31.139 19.789)"/><path fill="url(#C)" d="M-14.9 23.57c-.12.16-.45.58 0 3.1 0-.1.34.86.34.86-.07-.28.28.67.28.67 1.15 2.3 4.8 3.12 7.55 3.12 2.76 0 6.4-.82 7.55-3.13l.33-.63.27-.8c.47-2.62.14-3.04 0-3.2l-.56-.74-.44.83-.45 1.23c-.7 1.4-3.54 2.47-6.7 2.47s-6-1.06-6.72-2.53l-.76-2.06-.7.8zm1.55 4.1c0-.02-.23-.5-.23-.5-.05-.2-.28-.7-.28-.7-.04-.22-.06-.4-.08-.62 1.4 1.8 4.47 2.65 7.2 2.65 2.77 0 5.85-.85 7.22-2.62-.03.2-.04.38-.08.6l-.22.63-.3.55c-.74 1.5-3.46 2.54-6.6 2.54-3.16 0-5.88-1.05-6.63-2.54z" i:knockout="Off" transform="matrix(.438 0 0 .438 31.139 19.789)"/><path fill="url(#D)" d="M-14 26.68c-.4.58-.35 1.6.97 2.72 1.5 1.05 3.9 1.68 6.3 1.68s4.8-.63 6.26-1.65c1.36-1.15 1.4-2.17 1-2.75-.42-.64-1.35-.73-2.1-.2-1.3.73-3.26 1.18-5.16 1.18-1.9 0-3.84-.45-5.2-1.2l.04.02c-.74-.53-1.67-.44-2.1.2zm1.6 1.8c-.73-.6-.8-1.05-.74-1.14.06-.1.35-.15.67.08l.04.03c1.5.84 3.64 1.34 5.7 1.34s4.2-.5 5.7-1.35c.36-.25.65-.2.7-.1.07.08 0 .52-.76 1.16-1.25.9-3.42 1.45-5.63 1.45-2.2 0-4.38-.56-5.68-1.47z" i:knockout="Off" transform="matrix(.438 0 0 .438 31.139 19.789)"/><path fill="url(#E)" d="M.64 29.96l-.3.67c-.9 1.82-3.95 2.95-7.07 2.95-.4 0-.77-.02-1.15-.05-2.67-.25-5.1-1.34-5.94-2.9-.46 0-.05 3.63 0 3.96.92 1.8 3.97 2.93 7.1 2.93 3.1 0 6.16-1.13 7.07-2.94.07-.34.75-4.64.3-4.64zm-1.72 5.4c-1.4.98-3.4 1.44-5.65 1.44-2.26 0-4.25-.46-5.65-1.44-1.95-1.65-.92-3.57.2-2.8 1.4.8 3.44 1.28 5.45 1.28 2 0 4.04-.5 5.45-1.28 1.12-.77 2.15 1.15.2 2.8z" enable-background="new" i:knockout="Off" i:isolated="yes" transform="matrix(.438 0 0 .438 31.139 19.789)"/><path fill="url(#F)" d="M.15 29.73l-.28.67c-.75 1.5-3.53 2.62-6.6 2.62l-1.1-.06c-2.6-.24-4.82-1.28-5.52-2.6l-.38-.72-.57.68c-.57.73-.04 4.34-.03 4.37v.08l.05.07c1.12 2.25 4.6 3.25 7.55 3.25s6.43-1 7.55-3.25l.04-.07.02-.1c.18-1 .73-4.4.23-5.04l-.53-.7-.42.8zm.06 1.9c-.08.92-.23 2.06-.35 2.73-.8 1.5-3.54 2.6-6.58 2.6-3.03 0-5.78-1.1-6.58-2.6-.07-.44-.2-1.62-.2-2.5 1.2 1.16 3.2 2 5.57 2.23 0 0 1.2.05 1.2.05 2.58 0 5.48-.83 6.94-2.53z" i:knockout="Off" transform="matrix(.438 0 0 .438 31.139 19.789)"/><path fill="url(#G)" d="M-13.7 32.4c-.56.8-.4 2.23 1 3.4 1.47 1.04 3.52 1.57 5.97 1.57 2.45 0 4.5-.53 5.94-1.54l.05-.03c1.38-1.17 1.55-2.6 1-3.4-.42-.64-1.17-.76-1.82-.3-1.32.72-3.26 1.18-5.16 1.18-1.9 0-3.85-.46-5.2-1.22-.6-.42-1.36-.3-1.78.33zm1.6 2.5c-.86-.75-.96-1.54-.75-1.85.03-.05.13-.2.38-.02 1.55.87 3.68 1.37 5.74 1.37s4.2-.5 5.7-1.34c.3-.2.4-.06.42 0 .05.07.08.2.08.35 0 .4-.23.95-.88 1.5-1.26.87-3.1 1.34-5.33 1.34-2.24 0-4.1-.47-5.36-1.35z" i:knockout="Off" transform="matrix(.438 0 0 .438 31.139 19.789)"/><path fill="url(#H)" d="M-1.8 23.6c-1.44 1.56-2.57 2.45-4.93 2.45s-3.54-.94-4.94-2.45c.33-.36 3.17.9 4.9.9 1.76 0 4.63-1.28 4.97-.9z" i:knockout="Off" transform="matrix(.438 0 0 .438 31.139 19.789)"/><g><path fill="#545652" d="M26.6 29.16v.86l.12.15c.1.1.25.24.44.33 0 .15 0 .34 0 .34h.45v-.76h-.22c-.1 0-.22-.13-.32-.25 0-.15 0-.67 0-.67h-.47z" i:knockout="Off"/></g><g><path fill="#545652" d="M29.27 29.16s0 .52 0 .66c-.1.13-.22.26-.33.26h-.23v.76h.46s0-.2 0-.34c.2-.1.34-.22.44-.33l.12-.14v-.87h-.45z" i:knockout="Off"/></g></g></g></svg>