<svg xmlns="http://www.w3.org/2000/svg" width="48" height="48" xmlns:xlink="http://www.w3.org/1999/xlink"><defs><linearGradient id="b"><stop offset="0" stop-color="#fedba7"/><stop offset="1" stop-color="#fdbf64"/></linearGradient><linearGradient id="a"><stop offset="0" stop-color="#ffa54c"/><stop offset="1" stop-color="#f57900"/></linearGradient><linearGradient id="c" x1="14.929" x2="35.357" y1="17.929" y2="27.929" xlink:href="#a" gradientUnits="userSpaceOnUse" gradientTransform="matrix(.864 0 0 .863 3.346 6.117)"/><linearGradient id="d" x1="2.131" x2="46.011" y1="26.143" y2="26.143" xlink:href="#b" gradientUnits="userSpaceOnUse" gradientTransform="matrix(.967 0 0 .966 .802 .898)"/></defs><g><path fill="none" stroke="#fff" stroke-width="2" d="M39.7 46.14l-8.56-6L37.57 36l2.14 10.14z"/><path fill="none" stroke="#fff" stroke-width="4" d="M30.78 33.5L38 43.13"/><path fill="none" stroke="#fff" stroke-width="4" d="M6.86 1.43l17.5 23.47"/><g stroke-linejoin="round"><path fill="url(#c)" fill-rule="evenodd" stroke="url(#d)" d="M3.35 25.96l21.58-8.63 19.87 8.63-19.87 9-21.58-9z" transform="translate(0 -.857)"/><path fill="none" stroke="#000" d="M1.4 25.07L25 15.4l21.72 9.67-21.7 10.08L1.4 25.07z"/></g><path fill="none" stroke="#000" stroke-width="2" d="M30.78 33.5L38 43.13"/><path fill-rule="evenodd" d="M39.7 46.14l-8.56-6L37.57 36l2.14 10.14z"/><path fill="#ef2929" fill-rule="evenodd" stroke="#a40000" stroke-width=".802" d="M26.7 24.86a2.43 2.43 0 1 1-4.84 0 2.43 2.43 0 1 1 4.85 0z" transform="matrix(1.871 0 0 .831 -21.143 3.342)" overflow="visible" enable-background="accumulate"/><path fill="none" stroke="#000" stroke-width="2" d="M6.86 1.43L23.8 23.9"/></g></svg>