<svg xmlns="http://www.w3.org/2000/svg" width="50pt" height="50pt" viewBox="0 0 50 50"><path fill="#fff" stroke="#000" stroke-width="0.5" d="M5 37.5l-1.5-2.3-1-3.95L10 30l-5-2.5v-5l5-2.5-2.5-3.75 5-2.5L10 10l5-5 5-2.5h5L30 5l2.5 3.75 5 2.5v5L35 20l5 2.5 2.5 3.75v2.5L45 32.5l-2.5 1.25L45 37.5 40 40l-7.5 1.25h-15L10 40z"/><path id="Path_2" fill="#fff" d="M22.5 38.75l5-5 3.8.25 4.8.7 3.9 2.8-7.5 1.25z"/><path id="Path_3" fill="#f8fcf8" d="M25 5l7.5 6.25v5L23.8 9.3z"/><path id="Path_3" fill="none" stroke="#000" stroke-width="0.5" d="M7.5 6.25L25 37.5"/><path fill="#fff" stroke="#000" stroke-width="0.5" d="M6.5 16.7l11 7.4V11.24z"/><path fill="none" stroke="#000" stroke-width="0.5" d="M28.9 35.5l-7.5 3.8"/><path fill="none" stroke="#000" stroke-width="0.5" d="M21 35.7l7.8 3.7"/></svg>