<svg xmlns="http://www.w3.org/2000/svg" width="48" height="48" xmlns:xlink="http://www.w3.org/1999/xlink"><defs><linearGradient id="a"><stop offset="0" stop-color="#e3e9eb"/><stop offset="1" stop-color="#b1c6ce"/></linearGradient><radialGradient id="b" cx="25.643" cy="25.214" r="25.714" xlink:href="#a" fx="25.643" fy="25.214" gradientUnits="userSpaceOnUse"/></defs><g><path fill="url(#b)" d="M49.86 25.2a24.2 24.2 0 1 1-48.43 0 24.2 24.2 0 1 1 48.43 0z" transform="matrix(.929 0 0 .929 .173 .571)" color="#000" overflow="visible" enable-background="accumulate"/><path fill="none" stroke="#204a87" stroke-width="2.79.229" d="M46.5 24a22.5 22.5 0 1 1-45 0 22.5 22.5 0 1 1 45 0z" color="#000" stroke-linecap="round" stroke-linejoin="round" overflow="visible" enable-background="accumulate"/><g style="line-height:125%;-inkscape-font-specification:Baskerville" font-size="32.752" letter-spacing="0" word-spacing="0" font-family="Baskerville"><path d="M17.35 22.83c.33-.1.66-.14 1-.14 1.56 0 2.8.53 3.68 1.6.9 1.07 1.36 2.4 1.36 4.03 0 1.95-.67 3.55-2 4.8-1.34 1.25-3.06 1.87-5.16 1.87-1.4 0-2.6-.32-3.63-.96-1-.64-1.5-1.32-1.5-2.06 0-.3.1-.57.28-.78.2-.23.44-.34.75-.34.56 0 .95.38 1.2 1.14.3.97.7 1.6 1.27 1.87.54.3 1.08.43 1.6.43 1.36 0 2.44-.5 3.27-1.47.85-.98 1.27-2.5 1.27-4.56 0-1.65-.32-2.88-.95-3.7-.62-.8-1.36-1.2-2.2-1.2-.75 0-1.56.44-2.44 1.33-.15.16-.3.24-.47.24-.33 0-.5-.17-.5-.5 0-.16.1-.3.25-.47.17-.17.64-.52 1.4-1.04 1.7-1.14 2.8-2.1 3.35-2.85.55-.76.82-1.7.82-2.86 0-1.1-.28-1.95-.85-2.54-.56-.6-1.32-.9-2.25-.9-.96 0-1.82.3-2.56.9-.74.62-1.1 1.4-1.1 2.35 0 .75.32 1.46.97 2.12.07.08.1.14.1.2 0 .13-.17.28-.52.44-.34.15-.6.23-.75.23-.34 0-.64-.25-.93-.75-.3-.5-.43-1.04-.43-1.63 0-1.18.5-2.25 1.52-3.2 1.02-.97 2.4-1.45 4.1-1.45 1.77 0 3.1.4 4 1.2.9.8 1.35 1.7 1.35 2.7 0 .87-.3 1.7-.92 2.45-.6.74-1.65 1.6-3.1 2.6l-1.3.88"/><path d="M30.24 28.4h-.72v-6.7h.72c.43.8 1 1.2 1.72 1.2.84 0 1.45-.4 1.86-1.2.4-.82.62-2.04.62-3.67 0-1.5-.33-2.6-1-3.3-.65-.68-1.4-1.03-2.26-1.03-1.03 0-1.8.52-2.3 1.57-.23.54-.57.8-1 .8-.52 0-.78-.25-.78-.8 0-.57.42-1.1 1.27-1.57.84-.47 1.8-.7 2.92-.7 1.76 0 3.14.58 4.12 1.74 1 1.16 1.5 2.57 1.5 4.22 0 1.42-.44 2.6-1.28 3.52-.83.92-1.85 1.38-3.05 1.38-.95 0-1.73-.3-2.36-.9v5.45m-2.07 4.88c0-.47.17-.87.5-1.2.34-.35.75-.52 1.22-.52.46 0 .87.17 1.2.52.34.33.5.73.5 1.2 0 .48-.16.88-.5 1.2-.33.35-.74.52-1.2.52-.5 0-.9-.17-1.23-.53-.33-.34-.5-.74-.5-1.2"/></g></g></svg>