<svg xmlns="http://www.w3.org/2000/svg" width="48" height="48" xmlns:xlink="http://www.w3.org/1999/xlink"><defs><linearGradient id="c"><stop offset="0" stop-color="#fff"/><stop offset="1" stop-color="#fff" stop-opacity="0"/></linearGradient><linearGradient id="b"><stop offset="0"/><stop offset="1" stop-opacity="0"/></linearGradient><linearGradient id="a"><stop offset="0" stop-color="#fff" stop-opacity=".657"/><stop offset="1" stop-color="#fff" stop-opacity="0"/></linearGradient><linearGradient id="f" x1="27.827" x2="28.213" y1="26.185" y2="11.645" xlink:href="#a" gradientUnits="userSpaceOnUse" gradientTransform="matrix(1.08 0 0 1.079 .721 -11.643)"/><radialGradient id="e" cx="23.556" cy="39.048" r="23.921" xlink:href="#b" fx="23.556" fy="39.048" gradientTransform="matrix(.979 0 0 .334 .485 25.989)" gradientUnits="userSpaceOnUse"/><linearGradient id="d" x1="23.746" x2="23.746" y1="47.937" y2="21.397" xlink:href="#c" gradientUnits="userSpaceOnUse"/></defs><g><rect width="48.254" height="26.54" y="21.397" fill="url(#d)" fill-rule="evenodd" ry="0" overflow="visible" enable-background="accumulate"/><path fill="url(#e)" fill-rule="evenodd" d="M46.98 39.05a23.43 8 0 1 1-46.85 0 23.43 8 0 1 1 46.85 0z" transform="matrix(1 0 0 1.032 .508 -1.113)" overflow="visible" enable-background="accumulate"/><rect width="24.4" height="24.4" x="21.693" y="-22.314" fill="#edd400" fill-rule="evenodd" stroke="#746100" stroke-width="2" transform="matrix(.708 .707 -.708 .707 0 0)" ry="3.566" overflow="visible" enable-background="accumulate"/><path fill="url(#f)" fill-rule="evenodd" d="M16.93 19.2c-1.3-1.27-1.3-3.33 0-4.6L28.83 2.7c1.27-1.28 3.34-1.28 4.62 0l12.35 12.6c-10.74-3.77-21.66 6.5-28.87 3.9z" overflow="visible" enable-background="accumulate"/><rect width="21.007" height="21.007" x="23.323" y="-20.552" fill="none" stroke="#fff" stroke-opacity=".65" stroke-width="2" ry="2.156" overflow="visible" enable-background="accumulate" transform="matrix(.708 .707 -.708 .707 0 0)"/><path fill="none" stroke="#fff" stroke-width="2" d="M31.1 20.4h-.64c0-.96.05-1.7.15-2.25.12-.55.24-.98.4-1.3.16-.32.56-.9 1.2-1.74.5-.65.86-1.27 1.07-1.85.2-.6.3-1.23.3-1.93 0-.95-.26-1.7-.8-2.3-.53-.57-1.18-.86-1.96-.86-.65 0-1.2.17-1.66.5-.44.33-.67.67-.67 1 0 .2.16.42.48.66.47.37.7.77.7 1.2 0 .4-.12.7-.37.97-.25.25-.56.38-.94.38-.45 0-.83-.18-1.14-.54-.3-.37-.46-.84-.46-1.43 0-.9.42-1.74 1.28-2.48.85-.73 1.92-1.1 3.22-1.1 1.32 0 2.42.4 3.28 1.23.86.82 1.3 1.82 1.3 3 0 .76-.15 1.44-.45 2.05-.22.46-.8 1.1-1.7 1.93-1.18 1.06-1.9 1.84-2.15 2.35-.25.5-.4 1.34-.42 2.5zm-.3 2.6c.42 0 .76.13 1.04.4.28.3.42.63.42 1.03s-.14.77-.42 1.06c-.28.3-.62.43-1.03.43-.4 0-.73-.14-1-.43-.3-.3-.43-.65-.43-1.07 0-.4.14-.74.42-1.02.27-.27.6-.4 1-.4z" style="-inkscape-font-specification:Century" font-size="14" font-family="Century"/><path d="M31.1 20.4h-.64c0-.96.05-1.7.15-2.25.12-.55.24-.98.4-1.3.16-.32.56-.9 1.2-1.74.5-.65.86-1.27 1.07-1.85.2-.6.3-1.23.3-1.93 0-.95-.26-1.7-.8-2.3-.53-.57-1.18-.86-1.96-.86-.65 0-1.2.17-1.66.5-.44.33-.67.67-.67 1 0 .2.16.42.48.66.47.37.7.77.7 1.2 0 .4-.12.7-.37.97-.25.25-.56.38-.94.38-.45 0-.83-.18-1.14-.54-.3-.37-.46-.84-.46-1.43 0-.9.42-1.74 1.28-2.48.85-.73 1.92-1.1 3.22-1.1 1.32 0 2.42.4 3.28 1.23.86.82 1.3 1.82 1.3 3 0 .76-.15 1.44-.45 2.05-.22.46-.8 1.1-1.7 1.93-1.18 1.06-1.9 1.84-2.15 2.35-.25.5-.4 1.34-.42 2.5zm-.3 2.6c.42 0 .76.13 1.04.4.28.3.42.63.42 1.03s-.14.77-.42 1.06c-.28.3-.62.43-1.03.43-.4 0-.73-.14-1-.43-.3-.3-.43-.65-.43-1.07 0-.4.14-.74.42-1.02.27-.27.6-.4 1-.4z" style="-inkscape-font-specification:Century" font-size="14" font-family="Century"/></g></svg>