<svg xmlns="http://www.w3.org/2000/svg" width="48" height="48" xmlns:xlink="http://www.w3.org/1999/xlink"><defs><linearGradient id="a"><stop offset="0" stop-color="#eeeeec"/><stop offset="1" stop-color="#babdb6"/></linearGradient><linearGradient x1="4" x2="44.286" y1="3.786" y2="43.857" xlink:href="#a" gradientUnits="userSpaceOnUse" gradientTransform="translate(-29.597 .96)"/><linearGradient id="b" x1="4" x2="44.286" y1="3.786" y2="43.857" xlink:href="#a" gradientUnits="userSpaceOnUse" gradientTransform="translate(-.013)"/></defs><g><rect width="47.019" height="47.019" x=".491" y=".491" fill="#556149" ry="10.714" color="#000" overflow="visible" enable-background="accumulate"/><path fill="none" stroke="#788867" d="M6.86 23.96l34.1.04"/><path fill="none" stroke="#788867" d="M23.93 7.04L23.9 40.9"/><path fill="none" stroke="#788867" d="M18.1 21.4l-.03 4.9"/><path fill="none" stroke="#788867" d="M12.2 21.4l-.02 4.9"/><path fill="none" stroke="#788867" d="M35.25 21.4l-.04 4.9"/><path fill="none" stroke="#788867" d="M29.36 21.4l-.04 4.9"/><path fill="none" stroke="#788867" d="M26.16 18.23l-4.9-.03"/><path fill="none" stroke="#788867" d="M26.16 12.34l-4.9-.04"/><path fill="none" stroke="#788867" d="M26.16 35.38l-4.9-.04"/><path fill="none" stroke="#8ae234" stroke-width="3" d="M7.48 40.68C7.4 15.55 21.66 13.72 41 11.48" stroke-linecap="round"/><path fill="none" stroke="#788867" d="M26.16 29.48l-4.9-.03"/><path fill="none" stroke="#eeeeec" d="M7.48 40.68C7.4 15.55 21.66 13.72 41 11.48" stroke-linecap="round"/><path fill="#2e3436" fill-opacity=".418" d="M14.86 6.78c-4.4 0-7.94 3.53-7.94 7.93v19c0 2.58 1.2 4.84 3.06 6.3-.5-1.04-.78-2.2-.78-3.44V17.6c0-4.4 3.53-7.98 7.94-7.98h19c1.85 0 3.56.63 4.9 1.7-1.27-2.7-4-4.54-7.18-4.54h-19z" color="#000" overflow="visible" enable-background="accumulate"/><path fill="url(#b)" stroke="#2e3436" stroke-width=".981" d="M11.18.48C5.24.48.48 5.26.48 11.2v25.6c0 5.93 4.76 10.7 10.7 10.7h25.6c5.93 0 10.7-4.77 10.7-10.7V11.2C47.5 5.26 42.72.48 36.8.48h-25.6zm3.3 6.1h19c4.4 0 7.95 3.53 7.95 7.93V33.5c0 4.4-3.54 7.97-7.94 7.97h-19c-4.4 0-7.95-3.57-7.95-7.97V14.5c0-4.4 3.54-7.93 7.94-7.93z" color="#000" stroke-linecap="round" overflow="visible" enable-background="accumulate"/><rect width="45.305" height="45.305" x="1.348" y="1.348" fill="none" stroke="#eeeeec" stroke-width=".981" color="#000" stroke-linecap="round" overflow="visible" enable-background="accumulate" ry="10.324"/></g></svg>