<svg xmlns="http://www.w3.org/2000/svg" width="48" height="48" xmlns:xlink="http://www.w3.org/1999/xlink"><defs><linearGradient id="b"><stop offset="0" stop-color="#ffcf83"/><stop offset="1" stop-color="#f7ae00"/></linearGradient><linearGradient id="a"><stop offset="0" stop-color="#ce5c00"/><stop offset="1" stop-color="#9f4700"/></linearGradient><linearGradient x1="17.857" x2="41.286" y1="17" y2="39.571" xlink:href="#a" gradientUnits="userSpaceOnUse" gradientTransform="matrix(1.043 0 0 1.043 -1.831 -.043)"/><radialGradient cx="24.685" cy="24.541" r="21.113" xlink:href="#b" fx="24.685" fy="24.541" gradientTransform="translate(0 0)" gradientUnits="userSpaceOnUse"/></defs><g fill-rule="evenodd" stroke="#fff" stroke-width="1.5"><path d="M7.34 13.9v6.75H.74v5.23h6.6v6.76h5.1v-6.76h6.64v-5.23h-6.64V13.9h-5.1z" overflow="visible" enable-background="accumulate"/><path d="M35.4 13.9v6.75h-6.6v5.23h6.6v6.76h5.1v-6.76h6.64v-5.23H40.5V13.9h-5.1z" overflow="visible" enable-background="accumulate"/><path d="M28.4 14.8l-4.67 4.77-4.68-4.77-3.62 3.7 4.68 4.77-4.67 4.77 3.6 3.68 4.68-4.77 4.7 4.8 3.63-3.7-4.7-4.8L32 18.48l-3.6-3.68z" overflow="visible" enable-background="accumulate"/></g></svg>