<svg xmlns="http://www.w3.org/2000/svg" width="50pt" height="50pt" viewBox="0 0 50 50"><path id="Path_5" stroke="#000" stroke-width="0.5" d="M20.6 12.8L19 12l-.8-1.2V9.2L19 8l1.6-.8h1.6l1.6.8.8 1.2v1.6l-.8 1.2-1.6.8z"/><path id="Path_3" stroke="#000" stroke-width="0.5" d="M31.64 48.84l-1.16-1.75v-2.33l1.16-1.74 2.33-1.16h2.33l2.32 1.16 1.16 1.74v2.32l-1.16 1.74zM34.03 8.14L31.7 6.98l-1.16-1.75V2.92l1.16-1.73L34.03 0h2.32l2.33 1.17 1.16 1.74v2.34l-1.16 1.74-2.33 1.16z"/><path id="Path_2" stroke="#000" stroke-width="0.5" d="M14.3 31.45l-3.87-1.94-1.94-2.9v-3.86l1.93-2.9 3.87-1.94h3.87l3.86 1.94 1.94 2.9v3.87l-1.93 2.9-3.87 1.95z"/><path id="Path_1" stroke="#000" stroke-width="0.5" d="M31.9 42.35l-6.4-3.2-3.2-4.8-3.2-4.8-1.14-6.27 13.93-.13H39.7l8.2 6.55v4.65l-3.2 4.8-6.4 3.2z"/><path id="Path_0" stroke="#000" stroke-width="0.5" d="M32.02 29.4l-13.36-2.95 1.08-6.26 3.07-4.62 3.08-4.6 6.14-3.08h6.15l6.14 3.07 3.08 4.6v4.34l-8.07 6.43-1.13 3.08z"/><path fill="#fff" stroke="#fff" stroke-width="0.5" d="M32.6 27.4L21.7 25l.9-5.1 2.5-3.74 2.5-3.76 5-2.5h5l5 2.5 2.5 3.76V19l-7.5 5.9v2.5z"/><path fill="#fff" stroke="#fff" stroke-width="0.5" d="M32.6 39.9l-5-2.5-2.5-3.74-2.5-3.75-.9-4.9 10.9-.1h5l7.5 5.9v2.86l-2.5 3.75-5 2.5z"/><path fill="#fff" stroke="#000" stroke-width="0.5" d="M14.85 29.52l-2.75-1.38-1.38-2.05v-2.76l1.38-2.06 2.75-1.38h2.74l2.74 1.38 1.38 2.06v2.75l-1.38 2.04-2.75 1.38z"/><path id="Path_3" fill="#fff" stroke="#000" stroke-width="0.5" d="M34.46 6.7l-1.54-.77-.77-1.15V3.25l.77-1.15 1.54-.77H36l1.53.77.77 1.15v1.53l-.77 1.15L36 6.7z"/><path id="Path_5" fill="#fff" stroke="#000" stroke-width="0.5" d="M20.92 11.63l-.94-.47-.48-.7V9.5l.48-.7.94-.46h.94l.95.46.47.7v.96l-.46.7-.94.47z"/><path fill="#fff" stroke="#000" stroke-width="0.5" d="M34.4 48.56l-1.53-.77-.77-1.15V45.1l.77-1.14 1.53-.77h1.54l1.53.76.77 1.15v1.55l-.77 1.15-1.53.77z"/><path id="Path_5" stroke="#000" stroke-width="0.5" d="M20 42.4l-1.6-.8-.8-1.2v-1.6l.8-1.2 1.6-.8h1.6l1.6.8.8 1.2v1.6l-.8 1.2-1.6.8z"/><path id="Path_5" fill="#fff" stroke="#000" stroke-width="0.5" d="M20.32 41.23l-.94-.47-.47-.7v-.95l.48-.7.94-.47h.94l.94.47.48.7v.95l-.48.7-.94.48z"/><path id="Path_5" stroke="#000" stroke-width="0.5" d="M3.5 27.5l-1.6-.8-.8-1.2v-1.6l.8-1.2 1.6-.8h1.6l1.6.8.8 1.2v1.6l-.8 1.2-1.6.8z"/><path fill="#fff" stroke="#000" stroke-width="0.5" d="M3.82 26.34l-.94-.48-.48-.7v-.95l.48-.7.94-.46h.94l.95.46.47.7v.96l-.46.7-.94.48z"/></svg>