<svg xmlns="http://www.w3.org/2000/svg" width="50pt" height="50pt" viewBox="0 0 50 50"><path stroke="#000" stroke-width="0.5" d="M45.87 25.3l-.25-3.13-.73-3.05-1.2-2.9-1.66-2.67-2.03-2.4-2.38-2.03-2.67-1.63-2.9-1.2L29 5.54l-3.14-.25-3.13.25-3.05.74-2.9 1.2-2.67 1.63-2.38 2.03-2.04 2.4-1.63 2.67-1.2 2.9-.74 3.05-.23 3.13.24 3.13.75 3.05 1.2 2.9 1.63 2.68 2.04 2.38 2.4 2.05 2.67 1.63 2.88 1.2 3.05.73 3.13.24 3.14-.24 3.05-.73 2.9-1.2 2.67-1.65 2.4-2.03 2.02-2.4 1.65-2.66 1.18-2.9.74-3.07z"/></svg>