<svg xmlns="http://www.w3.org/2000/svg" width="50pt" height="50pt" viewBox="0 0 50 50"><g stroke="#000"><path fill="#fff" d="M37.5 32V17H48v15z"/><path id="Path_4" fill="#fff" d="M1.5 38h27V11h-27z"/><path d="M40.5 23H45v3h-4.5z"/><path id="Path_6" fill="#fff" d="M31.5 20l4.5 4.5-4.5 4.5z"/><path d="M6 15.5h3v3H6z"/><path d="M13.5 15.5h3v3h-3z"/><path d="M21 15.5h3v3h-3z"/><path d="M6 23h3v3H6z"/><path d="M13.5 23h3v3h-3z"/><path d="M21 23h3v3h-3z"/><path d="M6 30.5h3v3H6z"/><path d="M13.5 30.5h3v3h-3z"/><path d="M21 30.5h3v3h-3z"/></g></svg>