<svg xmlns="http://www.w3.org/2000/svg" width="50pt" height="50pt" viewBox="0 0 50 50"><path fill="#505450" stroke="#000" stroke-width="0.5" d="M6.4 7.7l-3.17 7.64 1.7 7.2L9.6 25.5l9.4.9 2.1 1.9.74 6.64.8 6.4 3.4 3.6 7.8 1.7 9.9-4.7 2.56-9.04-2.4-6.9-4.2-3-9.5-.7-2.3-1.6-.4-3.7-.3-6.9-5.06-5.96-8.2-.3z"/><path id="Path_1" fill="#7c7e7c" d="M7.74 8.98L5.6 14.9l1.3 5.2 3.6 3.3 9.3 1.9 3 1.4.4 6.2 1 5.8 3.7 4.2 6.4 1.2 7-3.1 3.3-7.8-1.9-4.8-4.6-3.2-5.2-1-5.7-1.5-1.2-3.8-1.4-9.3-4.4-4-7.93.13z"/><path fill="#d0d2d0" d="M10 11l-.6 4.8 1.2 3.9 3 2.7 7.5 2 2.5 1.4 1 4.4 1.2 5.9 2.15 2.8 5.35 2 6.1-2.2 1.9-5.3-1.4-4.6-4.2-2.9-5.2-1.2-4.5-1.1-.8-3.2-1.1-7.5-4.3-4.2-5.9-.5z"/><path fill="#f8fcf8" d="M13.4 13.3l-.2 3.4 2.2 3.2 4.2 2.3 3.2 1.4 1.3 1 1.7 3.6.9 2.4 1.8 4.4 3.3 1.3 3.8-.6 1.3-3.5-1-2.8-3.1-1.9-3.6-1.2-3.9-2.4-1.55-3.85-1.15-3.85-2.1-2.7-3.9-1.6z"/><path fill="#7c7e7c" d="M14.5 14.76l1.15 1.47.47 1.46.7 1.3-.63.32-.7-.62-1.24-.85-.23-.54V14.3z"/><path fill="#7c7e7c" d="M28.6 31.18l1.66 1.27.9 1.47 1.1 1.24-.58.5-.92-.48-1.57-.6-.4-.52-.25-1-.25-1-.32-1.26z"/></svg>