<svg xmlns="http://www.w3.org/2000/svg" width="50pt" height="50pt" viewBox="0 0 50 50"><path id="Path_0" fill="#505450" stroke="#000" stroke-width="0.5" d="M5.87 36.35l2.3 5.93 4.77 3.1 4.17-.82 5.72-4.5L25 40l3.95 3.3 3.83 3.14 3.8.2 5.26-3.2 3-7.9-3.37-6.38-5-2.57-3.94.56-5.66 4.66-2.13.34-2.2-1.85-3.82-3.67-6-.63-4.7 4.2z"/><path id="Path_1" fill="#7c7e7c" d="M7.3 36.35l1.95 4.43 3.5 2.2 3.75-.07 6.18-3.88 2.4-.82 3.54 3.24 3.64 2.7 4.3.37 4.18-2.73L43 36.32l-2.32-6.1-3.6-1.65-4.27.66-3.4 2.2-3.98 2.2-2.7-1.47-5.7-4.42-4.6.1-4.34 4.3z"/><path fill="#d0d2d0" d="M9.63 36.27l2.2 3 2.76 1.53 3.1-.1 5.23-2.87 2.13-.55 2.9 1.9 3.8 2.66 2.7.42 4.03-1.73 2.22-4.48-1.77-3.95-3.23-1.82-3.87.62L28.3 33l-3.07 1.78-2.15-1.36-4.6-3.6-4.63-.04-3.54 2.87z"/><path fill="#f8fcf8" d="M12.74 35.75l1.7 2 2.92.6 3.56-.95 2.52-.92 1.26-.13 2.86 1.1 1.78.85 3.34 1.5 2.53-1.04L37 36.4l-1.13-2.63-2.05-1.03-2.73.6-2.66 1.24-3.45.74L22.1 34l-2.7-1.53-2.6-.38-3.03 1.17z"/><path fill="#7c7e7c" d="M14.12 35.98l1.43.2 1.04.56 1.07.37-.18.5-.72.03-1.15.2-.4-.18-.5-.52-.5-.52-.62-.63z"/><path id="Path_5" fill="#7c7e7c" d="M30.7 37.6l1.6-.16 1.3.34 1.27.1-.06.6-.77.2-1.2.52-.48-.1-.68-.4-.67-.44-.84-.53z"/><path fill="#fff" stroke="#000" stroke-width="0.5" d="M12.78 3.94h5.52v6.15h6.5v5.56h-6.5v6.9h-5.6V15.6H6.2v-5.46h6.58z"/><path fill="none" stroke="#000" stroke-width="0.5" d="M43.7 23.1l-5-2.5v-5l-5-2.5 5-2.5v-5l5-2.5"/></svg>