<svg xmlns="http://www.w3.org/2000/svg" width="50pt" height="50pt" viewBox="0 0 50 50"><path fill="#505450" stroke="#000" stroke-width="0.5" d="M2.92 8.4L.8 15.13l1.13 6.34 3.15 2.6 6.33.8 1.44 1.68.5 5.84.53 5.63 2.3 3.18 5.25 1.5 6.68-4.14 1.73-7.95-1.62-6.1-2.82-2.63-6.4-.62-1.56-1.4-.27-3.26-.2-6.1-3.42-5.24L8 5z"/><path id="Path_1" fill="#7c7e7c" d="M3.82 9.53l-1.44 5.2.88 4.6 2.42 2.9 6.28 1.66 2.02 1.23.27 5.46.68 5.1 2.5 3.7 4.3 1.05 4.73-2.73 2.22-6.87-1.28-4.23-3.1-2.8-3.5-.9-3.86-1.3-.8-3.36-.95-8.2-2.97-3.5-5.36.1z"/><path fill="#d0d2d0" d="M5.34 11.3l-.4 4.23.8 3.44 2.04 2.38 5.06 1.75 1.68 1.23.68 3.88.8 5.2 1.45 2.48 3.6 1.75 4.13-1.94 1.28-4.68-.95-4.04-2.82-2.55-3.5-1.06-3.04-.97-.54-2.8-.74-6.62-2.9-3.7-4-.43z"/><path fill="#f8fcf8" d="M7.64 13.33l-.13 3L9 19.14l2.82 2.02 2.16 1.23.88.88L16 26.45l.6 2.1 1.22 3.9 2.23 1.13 2.56-.53.9-3.08-.68-2.46-2.1-1.66-2.42-1.07-2.64-2.1-1.04-3.4-.77-3.38-1.42-2.4-2.63-1.4z"/><path fill="#7c7e7c" d="M8.38 14.62l.78 1.3.3 1.28.48 1.16-.4.27-.48-.54-.84-.76-.16-.48V14.2z"/><path fill="#7c7e7c" d="M17.9 29.07l1.12 1.13.6 1.3.74 1.08-.4.44-.6-.43-1.07-.52-.28-.46-.16-.9-.18-.88-.2-1.1z"/><path fill="#00fc00" stroke="#000" stroke-width="0.5" d="M38.3 42.87V13.6h-5l7.5-9.3 7.5 9.3h-5v29.27z"/></svg>