<svg xmlns="http://www.w3.org/2000/svg" width="48" height="48" xmlns:xlink="http://www.w3.org/1999/xlink"><defs><radialGradient id="d" cx="99.622" cy="-89.266" r="3.647" xlink:href="#a" gradientUnits="userSpaceOnUse" gradientTransform="matrix(-.707 -.707 .707 -.707 217.776 32.875)" fx="99.622" fy="-89.266"/><radialGradient id="e" cx="99.622" cy="-89.266" r="3.647" xlink:href="#a" gradientUnits="userSpaceOnUse" gradientTransform="matrix(-.707 -.707 .707 -.707 217.776 32.875)" fx="99.622" fy="-89.266"/><radialGradient id="b" cx="113.613" cy="-99.71" r="3.647" gradientUnits="userSpaceOnUse" gradientTransform="matrix(-.707 -.707 .707 -.707 217.776 32.875)" fy="-99.71" fx="113.613"><stop offset="0" stop-color="#BADBEA"/><stop offset=".107" stop-color="#9EC6DF"/><stop offset=".297" stop-color="#72A5CD"/><stop offset=".468" stop-color="#5490C1"/><stop offset=".611" stop-color="#4183BA"/><stop offset=".708" stop-color="#3A80B8"/><stop offset="1" stop-color="#244A87"/></radialGradient><radialGradient id="f" cx="99.622" cy="-89.266" r="3.647" xlink:href="#a" gradientUnits="userSpaceOnUse" gradientTransform="matrix(-.707 -.707 .707 -.707 217.776 32.875)" fx="99.622" fy="-89.266"/><radialGradient id="a" cx="99.622" cy="-89.266" r="3.647" gradientUnits="userSpaceOnUse" gradientTransform="matrix(-.707 -.707 .707 -.707 217.776 32.875)" fy="-89.266" fx="99.622"><stop offset="0" stop-color="#BADBEA"/><stop offset=".107" stop-color="#9EC6DF"/><stop offset=".297" stop-color="#72A5CD"/><stop offset=".468" stop-color="#5490C1"/><stop offset=".611" stop-color="#4183BA"/><stop offset=".708" stop-color="#3A80B8"/><stop offset="1" stop-color="#244A87"/></radialGradient><radialGradient id="c" cx="99.622" cy="-89.266" r="3.647" xlink:href="#a" gradientUnits="userSpaceOnUse" gradientTransform="matrix(-.707 -.707 .707 -.707 217.776 32.875)" fx="99.622" fy="-89.266"/></defs><g><path fill="none" stroke="#fff" stroke-width="2" d="M8.88 13.57h2.14v-9.1H9.1L6.95 5.54l.35 1.7 1.55-.77h.03v7.1z" style="-inkscape-font-specification:Myriad Pro Black Cond Heavy" font-size="14" font-weight="900" font-family="Myriad Pro Black Cond"/><path fill="none" stroke="#fff" stroke-width="2" d="M28.24 13.57v-1.9h-2.67v-.03l.52-.56c.5-.53.98-1.12 1.4-1.77.4-.64.62-1.4.65-2.24.02-.67-.18-1.28-.6-1.83s-1.17-.84-2.25-.87c-.42 0-.82.06-1.2.17-.38.1-.68.23-.92.38l.35 1.7c.2-.13.4-.23.63-.32.24-.08.5-.12.75-.13.37 0 .64.1.83.3.2.2.3.47.3.78-.02.55-.2 1.1-.58 1.7-.36.57-.86 1.23-1.48 1.97L23 12.1v1.47h5.24z" style="-inkscape-font-specification:Myriad Pro Black Cond Heavy" font-size="14" font-weight="900" font-family="Myriad Pro Black Cond"/><path fill="none" stroke="#fff" stroke-width="2" d="M46.18 40.14V38.1h.87v-1.7h-.87v-5.36h-2.1l-2.97 5.6v1.47h3.18v2.04h1.9zM42.9 36.4v-.04l.84-1.6c.12-.24.23-.47.32-.68.1-.2.2-.4.27-.62h.04c-.02.23-.04.46-.06.7 0 .24-.02.46-.02.68v1.55H42.9z" style="-inkscape-font-specification:Myriad Pro Black Cond Heavy" font-size="14" font-weight="900" font-family="Myriad Pro Black Cond"/><path fill="none" stroke="#fff" stroke-width="2" d="M27.6 30.3c.2.1.47.2.8.27.3.07.67.1 1.07.1 1.07-.02 1.87-.3 2.4-.86.56-.55.83-1.18.83-1.9 0-.56-.15-1.04-.43-1.43-.27-.4-.64-.67-1.1-.84v-.03c.38-.18.7-.45.93-.8.23-.34.35-.74.35-1.2 0-.6-.2-1.12-.64-1.56-.4-.43-1.06-.66-1.92-.68-.4 0-.78.05-1.14.14-.35.1-.63.2-.84.32l.25 1.63c.18-.1.37-.2.56-.24.2-.05.4-.08.6-.08.3 0 .56.1.73.25.17.16.26.37.27.65-.02.38-.18.63-.5.77-.3.13-.63.2-1 .2h-.16v1.57h.26c.44 0 .82.1 1.14.28.32.2.5.52.5.98 0 .3-.1.57-.32.78-.2.22-.54.32-.97.33-.23 0-.47-.03-.7-.1-.25-.05-.48-.13-.68-.25l-.26 1.7z" style="-inkscape-font-specification:Myriad Pro Black Cond Heavy" font-size="14" font-weight="900" font-family="Myriad Pro Black Cond"/><path fill="none" stroke="#fff" stroke-width="2" d="M16.73 32.04h-4l-.46 4.72c.1 0 .2-.02.3-.02.1 0 .22 0 .33 0 .5-.02.96.08 1.34.3.37.2.57.6.6 1.15 0 .4-.13.7-.37.93-.23.24-.58.36-1.03.36-.24 0-.48-.04-.7-.1-.22-.05-.43-.12-.6-.2l-.3 1.7c.2.1.44.18.76.25s.66.1 1 .1c1.1-.02 1.92-.35 2.5-.97.57-.62.85-1.4.86-2.3 0-.44-.07-.84-.2-1.2-.14-.34-.34-.64-.6-.9-.3-.24-.6-.4-.93-.5-.33-.12-.6-.17-.78-.17-.08 0-.17 0-.25 0l.14-1.28h2.4v-1.88z" style="-inkscape-font-specification:Myriad Pro Black Cond Heavy" font-size="14" font-weight="900" font-family="Myriad Pro Black Cond"/><g transform="matrix(1.152 0 0 1.152 -53.76 5.691)"><circle cx="67.689" cy="24.125" r="2.605" fill="none" stroke="#152a4c" stroke-width="1.736"/><radialGradient cx="113.613" cy="-99.71" r="3.647" gradientUnits="userSpaceOnUse" gradientTransform="matrix(-.707 -.707 .707 -.707 217.776 32.875)" fy="-99.71" fx="113.613"><stop offset="0" stop-color="#BADBEA"/><stop offset=".107" stop-color="#9EC6DF"/><stop offset=".297" stop-color="#72A5CD"/><stop offset=".468" stop-color="#5490C1"/><stop offset=".611" stop-color="#4183BA"/><stop offset=".708" stop-color="#3A80B8"/><stop offset="1" stop-color="#244A87"/></radialGradient><circle cx="67.689" cy="24.125" r="2.605" fill="url(#b)"/></g><g transform="matrix(1.152 0 0 1.152 -89.511 13.122)"><circle cx="84.967" cy="26.634" r="2.605" fill="none" stroke="#152a4c" stroke-width="1.736"/><radialGradient cx="99.622" cy="-89.266" r="3.647" gradientUnits="userSpaceOnUse" gradientTransform="matrix(-.707 -.707 .707 -.707 217.776 32.875)" fy="-89.266" fx="99.622"><stop offset="0" stop-color="#BADBEA"/><stop offset=".107" stop-color="#9EC6DF"/><stop offset=".297" stop-color="#72A5CD"/><stop offset=".468" stop-color="#5490C1"/><stop offset=".611" stop-color="#4183BA"/><stop offset=".708" stop-color="#3A80B8"/><stop offset="1" stop-color="#244A87"/></radialGradient><circle cx="84.967" cy="26.634" r="2.605" fill="url(#c)"/></g><g transform="matrix(1.152 0 0 1.152 -93.918 -13.871)"><circle cx="84.967" cy="26.634" r="2.605" fill="none" stroke="#152a4c" stroke-width="1.736"/><radialGradient cx="99.622" cy="-89.266" r="3.647" gradientUnits="userSpaceOnUse" gradientTransform="matrix(-.707 -.707 .707 -.707 217.776 32.875)" fy="-89.266" fx="99.622"><stop offset="0" stop-color="#BADBEA"/><stop offset=".107" stop-color="#9EC6DF"/><stop offset=".297" stop-color="#72A5CD"/><stop offset=".468" stop-color="#5490C1"/><stop offset=".611" stop-color="#4183BA"/><stop offset=".708" stop-color="#3A80B8"/><stop offset="1" stop-color="#244A87"/></radialGradient><circle cx="84.967" cy="26.634" r="2.605" fill="url(#d)"/></g><g transform="matrix(1.152 0 0 1.152 -78.117 -14.066)"><circle cx="84.967" cy="26.634" r="2.605" fill="none" stroke="#152a4c" stroke-width="1.736"/><radialGradient cx="99.622" cy="-89.266" r="3.647" gradientUnits="userSpaceOnUse" gradientTransform="matrix(-.707 -.707 .707 -.707 217.776 32.875)" fy="-89.266" fx="99.622"><stop offset="0" stop-color="#BADBEA"/><stop offset=".107" stop-color="#9EC6DF"/><stop offset=".297" stop-color="#72A5CD"/><stop offset=".468" stop-color="#5490C1"/><stop offset=".611" stop-color="#4183BA"/><stop offset=".708" stop-color="#3A80B8"/><stop offset="1" stop-color="#244A87"/></radialGradient><circle cx="84.967" cy="26.634" r="2.605" fill="url(#e)"/></g><g transform="matrix(1.152 0 0 1.152 -59.658 12.446)"><circle cx="84.967" cy="26.634" r="2.605" fill="none" stroke="#152a4c" stroke-width="1.736"/><radialGradient cx="99.622" cy="-89.266" r="3.647" fx="99.622" fy="-89.266" gradientTransform="matrix(-.707 -.707 .707 -.707 217.776 32.875)" gradientUnits="userSpaceOnUse"><stop offset="0" stop-color="#BADBEA"/><stop offset=".107" stop-color="#9EC6DF"/><stop offset=".297" stop-color="#72A5CD"/><stop offset=".468" stop-color="#5490C1"/><stop offset=".611" stop-color="#4183BA"/><stop offset=".708" stop-color="#3A80B8"/><stop offset="1" stop-color="#244A87"/></radialGradient><circle cx="84.967" cy="26.634" r="2.605" fill="url(#f)"/></g><path d="M8.88 13.57h2.14v-9.1H9.1L6.95 5.54l.35 1.7 1.55-.77h.03v7.1z" style="-inkscape-font-specification:Myriad Pro Black Cond Heavy" font-size="14" font-weight="900" font-family="Myriad Pro Black Cond"/><text x="32.571" y="9.286" font-size="14" font-family="Bitstream Vera Sans"/><path d="M28.24 13.57v-1.9h-2.67v-.03l.52-.56c.5-.53.98-1.12 1.4-1.77.4-.64.62-1.4.65-2.24.02-.67-.18-1.28-.6-1.83s-1.17-.84-2.25-.87c-.42 0-.82.06-1.2.17-.38.1-.68.23-.92.38l.35 1.7c.2-.13.4-.23.63-.32.24-.08.5-.12.75-.13.37 0 .64.1.83.3.2.2.3.47.3.78-.02.55-.2 1.1-.58 1.7-.36.57-.86 1.23-1.48 1.97L23 12.1v1.47h5.24z" style="-inkscape-font-specification:Myriad Pro Black Cond Heavy" font-size="14" font-weight="900" font-family="Myriad Pro Black Cond"/><path d="M46.18 40.14V38.1h.87v-1.7h-.87v-5.36h-2.1l-2.97 5.6v1.47h3.18v2.04h1.9zM42.9 36.4v-.04l.84-1.6c.12-.24.23-.47.32-.68.1-.2.2-.4.27-.62h.04c-.02.23-.04.46-.06.7 0 .24-.02.46-.02.68v1.55H42.9z" style="-inkscape-font-specification:Myriad Pro Black Cond Heavy" font-size="14" font-weight="900" font-family="Myriad Pro Black Cond"/><path d="M27.6 30.3c.2.1.47.2.8.27.3.07.67.1 1.07.1 1.07-.02 1.87-.3 2.4-.86.56-.55.83-1.18.83-1.9 0-.56-.15-1.04-.43-1.43-.27-.4-.64-.67-1.1-.84v-.03c.38-.18.7-.45.93-.8.23-.34.35-.74.35-1.2 0-.6-.2-1.12-.64-1.56-.4-.43-1.06-.66-1.92-.68-.4 0-.78.05-1.14.14-.35.1-.63.2-.84.32l.25 1.63c.18-.1.37-.2.56-.24.2-.05.4-.08.6-.08.3 0 .56.1.73.25.17.16.26.37.27.65-.02.38-.18.63-.5.77-.3.13-.63.2-1 .2h-.16v1.57h.26c.44 0 .82.1 1.14.28.32.2.5.52.5.98 0 .3-.1.57-.32.78-.2.22-.54.32-.97.33-.23 0-.47-.03-.7-.1-.25-.05-.48-.13-.68-.25l-.26 1.7z" style="-inkscape-font-specification:Myriad Pro Black Cond Heavy" font-size="14" font-weight="900" font-family="Myriad Pro Black Cond"/><path d="M16.73 32.04h-4l-.46 4.72c.1 0 .2-.02.3-.02.1 0 .22 0 .33 0 .5-.02.96.08 1.34.3.37.2.57.6.6 1.15 0 .4-.13.7-.37.93-.23.24-.58.36-1.03.36-.24 0-.48-.04-.7-.1-.22-.05-.43-.12-.6-.2l-.3 1.7c.2.1.44.18.76.25s.66.1 1 .1c1.1-.02 1.92-.35 2.5-.97.57-.62.85-1.4.86-2.3 0-.44-.07-.84-.2-1.2-.14-.34-.34-.64-.6-.9-.3-.24-.6-.4-.93-.5-.33-.12-.6-.17-.78-.17-.08 0-.17 0-.25 0l.14-1.28h2.4v-1.88z" style="-inkscape-font-specification:Myriad Pro Black Cond Heavy" font-size="14" font-weight="900" font-family="Myriad Pro Black Cond"/></g></svg>