<svg xmlns="http://www.w3.org/2000/svg" width="48" height="48" xmlns:xlink="http://www.w3.org/1999/xlink"><defs><linearGradient id="d"><stop offset="0" stop-color="#2e3436"/><stop offset="1" stop-color="#2e3436" stop-opacity="0"/></linearGradient><linearGradient id="a"><stop offset="0" stop-color="#ab0000"/><stop offset="1" stop-color="#ff1f1f"/></linearGradient><linearGradient id="c"><stop offset="0" stop-color="#b1b1b1"/><stop offset="1" stop-color="#fff"/></linearGradient><linearGradient id="b"><stop offset="0" stop-color="#ef0000"/><stop offset="1" stop-color="#ff7b7b"/></linearGradient><linearGradient id="e" x1="27.542" x2="41" y1="5.926" y2="26.687" xlink:href="#a" gradientUnits="userSpaceOnUse"/><linearGradient id="f" x1="19.369" x2="22.204" y1="2.096" y2="19.634" xlink:href="#b" gradientUnits="userSpaceOnUse"/><linearGradient id="i" x1="30.176" x2="34.5" y1="3.509" y2="3.509" xlink:href="#c" gradientUnits="userSpaceOnUse"/><linearGradient id="j" x1="37.166" x2="40.06" y1="21.909" y2="24.14" xlink:href="#c" gradientUnits="userSpaceOnUse"/><linearGradient id="k" x1="29.118" x2="31.704" y1="9.338" y2="11.755" xlink:href="#c" gradientUnits="userSpaceOnUse"/><linearGradient id="g" x1="18.991" x2="21.36" y1="11.947" y2="14.179" xlink:href="#c" gradientUnits="userSpaceOnUse"/><linearGradient id="h" x1="18.495" x2="20.678" y1="5.446" y2="7.678" xlink:href="#c" gradientUnits="userSpaceOnUse"/><linearGradient id="u" x1="23.356" x2="25.919" y1="20.566" y2="22.488" xlink:href="#c" gradientUnits="userSpaceOnUse"/><linearGradient id="t" x1="24.068" x2="27.212" y1="31.944" y2="33.866" xlink:href="#c" gradientUnits="userSpaceOnUse"/><linearGradient id="v" x1="14.092" x2="17.09" y1="34.11" y2="36.032" xlink:href="#c" gradientUnits="userSpaceOnUse"/><linearGradient id="s" x1="18.774" x2="21.608" y1="26.995" y2="29.325" xlink:href="#c" gradientUnits="userSpaceOnUse"/><linearGradient id="w" x1="12.563" x2="15.673" y1="22.39" y2="24.753" xlink:href="#c" gradientUnits="userSpaceOnUse"/><linearGradient id="r" x1="6.872" x2="9.526" y1="34.156" y2="36.325" xlink:href="#c" gradientUnits="userSpaceOnUse"/><linearGradient id="o" x1="4.017" x2="6.981" y1="28.147" y2="29.998" xlink:href="#c" gradientUnits="userSpaceOnUse"/><linearGradient id="p" x1="1.389" x2="4.105" y1="21.969" y2="23.953" xlink:href="#c" gradientUnits="userSpaceOnUse"/><linearGradient id="q" x1="11.93" x2="16.254" y1="16.201" y2="16.201" xlink:href="#c" gradientUnits="userSpaceOnUse"/><linearGradient id="n" x1="1.001" x2="10.156" y1="18.233" y2="40.295" xlink:href="#b" gradientUnits="userSpaceOnUse"/><linearGradient id="m" x1="10.096" x2="29.625" y1="20.043" y2="35.722" xlink:href="#a" gradientUnits="userSpaceOnUse"/><linearGradient id="l" x1="21.778" x2="32.243" y1="30.97" y2="43.035" xlink:href="#d" gradientUnits="userSpaceOnUse"/></defs><g><path fill="url(#e)" d="M46.45 9.44L42.8 26.16l-2.6 2.1-15.78-1.35-1.84-2.57 3.34-17.46 2.83-2.2 16.07 2.07 1.63 2.7z" transform="matrix(1.024 0 0 1.024 .025 3.101)"/><path fill="#ffb6b6" d="M26.13 7.05l.45 3.1 2.9-2.28-3.35-.82z"/><path fill="url(#f)" d="M22.58 24.33L21.28 26l-5.56-4.76-.32-2.8 2.88-15.92 1.2-1.9 6 3.23.44 3.02-3.34 17.46z" transform="matrix(1.024 0 0 1.024 .025 3.101)"/><path fill="#f35e5e" d="M19.97 3.75l.55-.25 16.8 2.28 2.17.6 7.37 3.37-.93.26-16.46-2.13-3.35-.82-6.16-3.3z"/><path fill="url(#XMLID_73_)" d="M24.43 26.9l-3.16-.9 1.3-1.67 1.86 2.58z" transform="matrix(1.024 0 0 1.024 .025 3.101)"/><circle cx="20.349" cy="13.001" r="1.854" fill="url(#g)" transform="matrix(1.024 0 0 1.024 .025 3.101)"/><circle cx="19.506" cy="6.5" r="1.854" fill="url(#h)" transform="matrix(1.024 0 0 1.024 .025 3.101)"/><ellipse cx="32.338" cy="3.509" fill="url(#i)" ry=".654" rx="2.162" transform="matrix(1.004 .204 -.204 1.004 1.402 -3.415)"/><circle cx="38.644" cy="22.901" r="1.85" fill="url(#j)" transform="matrix(1.024 0 0 1.024 .025 3.101)"/><circle cx="30.473" cy="10.516" r="1.851" fill="url(#k)" transform="matrix(1.024 0 0 1.024 .025 3.101)"/><path fill="none" stroke="#ffb6b6" stroke-width=".99552" d="M19.97 3.75l6.16 3.3 3.35.82L45.94 10l.93-.25"/><path fill="#ffb6b6" d="M26.9 7.06L22.88 28.2l.7.14L27.6 7.2l-.7-.14z"/><path fill="none" stroke="#000" stroke-width=".74664" d="M20.52 3.5l16.8 2.28 2.17.6 7.37 3.37.75 3.02-3.74 17.13-2.7 2.16-16.13-1.4-3.23-.93-5.68-4.87L15.8 22l2.95-16.32 1.22-1.93.55-.25z"/><path fill="url(#l)" d="M6.72 36.77l-2.62.07-.54 1.26 11.32 4.93L17.9 43 34 39.75l.23-2.1-.96-1.96 9.73-.84 1.73-1.6-6.5-3.1-7.76-.22-16.1 9.42-7.62-2.6z" transform="matrix(1.024 0 0 1.024 .025 3.101)" opacity=".5"/><path fill="url(#m)" d="M29.34 17.63l1.52 17.04-1.86 2.8-15.44 3.43-2.54-1.92-2.04-17.65L11 18.37l15.97-2.82 2.37 2.08z" transform="matrix(1.024 0 0 1.024 .153 3.229)"/><path fill="#ffb6b6" d="M8 22.27l1.35 2.8 2.1-3.02-3.46.22z"/><path fill="url(#n)" d="M11.02 38.98l-.75 1.98-6.7-2.86-1.16-2.58L.4 19.47l.57-2.15 6.7 1.27 1.33 2.73 2.04 17.65z" transform="matrix(1.024 0 0 1.024 .153 3.229)"/><path fill="#f35e5e" d="M1.13 20.97l.44-.4 16.7-2.86 2.27-.06 8.05.98-.82.54-16.34 2.9-3.45.2-6.87-1.3z"/><path fill="#ff9c9c" d="M13.9 45l-3.35.07.77-2.03 2.6 1.96z"/><circle cx="5.499" cy="28.849" r="1.854" fill="url(#o)" transform="matrix(1.024 0 0 1.024 .153 3.229)"/><circle cx="2.747" cy="22.899" r="1.854" fill="url(#p)" transform="matrix(1.024 0 0 1.024 .153 3.229)"/><ellipse cx="14.092" cy="16.201" fill="url(#q)" ry=".654" rx="2.162" transform="matrix(1.016 -.134 .134 1.016 -1.896 5.262)"/><circle cx="8.354" cy="35.024" r="1.854" fill="url(#r)" transform="matrix(1.024 0 0 1.024 .153 3.229)"/><circle cx="20.315" cy="28.147" r="1.851" fill="url(#s)" transform="matrix(1.024 0 0 1.024 .153 3.229)"/><circle cx="25.919" cy="32.812" r="1.851" fill="url(#t)" transform="matrix(1.024 0 0 1.024 .153 3.229)"/><circle cx="24.834" cy="21.496" r="1.85" fill="url(#u)" transform="matrix(1.024 0 0 1.024 .153 3.229)"/><circle cx="15.673" cy="34.978" r="1.851" fill="url(#v)" transform="matrix(1.024 0 0 1.024 .153 3.229)"/><circle cx="14.413" cy="23.444" r="1.85" fill="url(#w)" transform="matrix(1.024 0 0 1.024 .153 3.229)"/><path fill="none" stroke="#ffb6b6" stroke-width=".99552" d="M1.13 20.97L8 22.27l3.44-.22 16.34-2.9.8-.53"/><path fill="#ffb6b6" d="M8.8 22.68l2.47 21.38.7-.08L9.5 22.6l-.7.08z"/><path fill="none" stroke="#000" stroke-width=".74664" d="M1.57 20.56l16.7-2.85 2.27-.06 8.05.98 1.6 2.67 1.57 17.45-1.9 2.87-15.83 3.5-3.36.08-6.88-2.94-1.18-2.64L.54 23.17l.6-2.2.43-.4z"/></g></svg>