<svg xmlns="http://www.w3.org/2000/svg" width="50pt" height="50pt" viewBox="0 0 50 50"><g stroke="#000"><path fill="#C0C0C0" fill-opacity=".5" d="M46 37.41l-.26-.78-.77-.77-1.26-.75-1.72-.68-2.13-.6-2.5-.52-2.82-.4-3.05-.32-3.2-.2-3.28-.05-3.3.06-3.2.18-3.04.3-2.8.42-2.52.52-2.13.6-1.7.68-1.27.74-.78.78-.25.8.25.8.78.77 1.25.73 1.73.68 2.14.6 2.5.53 2.82.4 3.05.32 3.2.2 3.3.05 3.3-.06 3.18-.2 3.05-.3 2.8-.4 2.52-.53 2.13-.6 1.73-.67 1.27-.74.77-.8z"/><path fill="none" d="M46 37.41v-5.1l-1-4.8-.9-3.1-1.6-3.15-2.6-4.85-3.6-3.2-3.8-1.95L28 10l-4.6-.2-3.4.2-5.5 1.5L10 15l-2.5 3.75-2 4.85-1.1 3-.5 3.6-.2 2.7.3 4.52"/><path fill="none" d="M25 12.5v25"/><path d="M20 20h10l-5-10z"/><path fill="none" d="M40 22.5L27.5 38.75"/><path d="M32.5 26.25l9.66-5.64-3.76 10z"/><path fill="none" d="M10 27.5l12.5 11.25"/><path d="M10 32.5l-4.75-8.2L15 27.5z"/><path fill="#fff" d="M27.5 3.75v2.5L25 7.5l-2.5-1.25v-2.5L25 2.5z"/><path fill="#fff" d="M37.5 3.75v2.5L35 7.5l-2.5-1.25v-2.5L35 2.5z"/><path fill="#fff" d="M17.5 3.75v2.5L15 7.5l-2.5-1.25v-2.5L15 2.5z"/></g></svg>