<svg xmlns="http://www.w3.org/2000/svg" width="48" height="48" xmlns:xlink="http://www.w3.org/1999/xlink"><defs><linearGradient id="c"><stop offset="0" stop-color="#e9b96e" stop-opacity=".64"/><stop offset="1" stop-color="#e9b96e" stop-opacity="0"/></linearGradient><linearGradient id="b"><stop offset="0" stop-color="#b06e03" stop-opacity="0"/><stop offset=".25" stop-color="#b97303"/><stop offset=".347" stop-color="#cb7f03"/><stop offset=".533" stop-color="#b06e03" stop-opacity="0"/><stop offset="1" stop-color="#b06e03" stop-opacity="0"/></linearGradient><linearGradient id="a"><stop offset="0" stop-color="#241701"/><stop offset=".5" stop-color="#704602"/><stop offset="1" stop-color="#955d03"/></linearGradient><radialGradient id="d" cx="24.912" cy="1.81" r="20.436" xlink:href="#a" fx="24.912" fy="1.81" gradientUnits="userSpaceOnUse" gradientTransform="matrix(.001 1.985 -1.992 .001 28.502 -47.638)"/><radialGradient id="e" cx="24.956" cy="1.6" r="20.436" xlink:href="#b" gradientUnits="userSpaceOnUse" gradientTransform="matrix(.05 1.984 -2.749 .069 28.956 -44.777)" fx="24.956" fy="1.6"/><radialGradient id="f" cx="24.025" cy="43.379" r="20.214" xlink:href="#c" fx="24.025" fy="43.379" gradientUnits="userSpaceOnUse" gradientTransform="matrix(1.389 .056 -.029 .717 -8.075 10.909)"/></defs><g color="#000"><path fill="url(#d)" d="M45 22.2a20.2 20.2 0 1 1-40.43 0 20.2 20.2 0 1 1 40.43 0z" transform="matrix(1.127 0 0 1.127 -3.867 -.683)" overflow="visible" enable-background="accumulate"/><path fill="url(#e)" d="M45 22.2a20.2 20.2 0 1 1-40.43 0 20.2 20.2 0 1 1 40.43 0z" transform="matrix(1.127 0 0 1.127 -3.867 -.683)" overflow="visible" enable-background="accumulate"/><path fill="url(#f)" d="M45 22.2a20.2 20.2 0 1 1-40.43 0 20.2 20.2 0 1 1 40.43 0z" transform="matrix(1.127 0 0 1.127 -3.867 -.683)" overflow="visible" enable-background="accumulate"/><path fill="none" stroke="#412801" stroke-width=".5017199999999999" d="M46.86 24.36a22.8 22.8 0 1 1-45.57 0 22.8 22.8 0 1 1 45.56 0z" overflow="visible" enable-background="accumulate"/></g></svg>