<svg xmlns="http://www.w3.org/2000/svg" width="48" height="48" xmlns:xlink="http://www.w3.org/1999/xlink"><defs><linearGradient id="d"><stop offset="0" stop-color="#fff" stop-opacity=".477"/><stop offset="1" stop-color="#fff" stop-opacity="0"/></linearGradient><linearGradient id="c"><stop offset="0" stop-color="#fff" stop-opacity="0"/><stop offset=".851" stop-color="#fff" stop-opacity="0"/><stop offset="1" stop-color="#fff" stop-opacity=".414"/></linearGradient><linearGradient id="b"><stop offset="0" stop-color="#cbcdc3" stop-opacity="0"/><stop offset=".696" stop-color="#cbcdc3" stop-opacity="0"/><stop offset="1" stop-color="#cbcdc3"/></linearGradient><linearGradient id="a"><stop offset="0" stop-color="#e5e6e1"/><stop offset=".607" stop-color="#a2a19b"/><stop offset="1" stop-color="#756f5e"/></linearGradient><radialGradient id="e" cx="28.453" cy="10.492" r="19.746" xlink:href="#a" fx="28.453" fy="10.492" gradientUnits="userSpaceOnUse" gradientTransform="matrix(-.528 1.704 -1.739 -.539 68.118 -34.935)"/><radialGradient id="f" cx="31.81" cy="13.777" r="19.746" xlink:href="#b" gradientUnits="userSpaceOnUse" gradientTransform="matrix(-.77 .974 -1.11 -.878 63.783 -2.576)" fx="31.81" fy="13.777"/><radialGradient id="g" cx="37.966" cy="12.863" r="19.746" xlink:href="#c" gradientUnits="userSpaceOnUse" gradientTransform="matrix(-.004 1.076 -.974 -.004 35.118 -17.884)" fx="37.966" fy="12.863"/><radialGradient id="h" cx="22.899" cy="22.244" r="19.746" xlink:href="#d" fx="22.899" fy="22.244" gradientUnits="userSpaceOnUse" gradientTransform="matrix(.761 .029 -.029 .739 5.967 4.428)"/></defs><g color="#000"><path fill="url(#e)" d="M41.82 21.84a19.5 19.5 0 1 1-39 0 19.5 19.5 0 1 1 39 0z" transform="matrix(1.176 0 0 1.176 -2.115 -1.524)" overflow="visible" enable-background="accumulate"/><path fill="url(#f)" d="M41.82 21.84a19.5 19.5 0 1 1-39 0 19.5 19.5 0 1 1 39 0z" transform="matrix(1.176 0 0 1.176 -2.115 -1.524)" overflow="visible" enable-background="accumulate"/><path fill="url(#g)" d="M41.82 21.84a19.5 19.5 0 1 1-39 0 19.5 19.5 0 1 1 39 0z" transform="matrix(1.176 0 0 1.176 -2.115 -1.524)" overflow="visible" enable-background="accumulate"/><path fill="url(#h)" d="M41.82 21.84a19.5 19.5 0 1 1-39 0 19.5 19.5 0 1 1 39 0z" transform="matrix(1.176 0 0 1.176 -2.115 -1.524)" overflow="visible" enable-background="accumulate"/><path fill="none" stroke="#2e3436" stroke-width=".5015" d="M47.07 24.16a22.93 22.93 0 1 1-45.86 0 22.93 22.93 0 1 1 45.87 0z" overflow="visible" enable-background="accumulate"/></g></svg>