<svg xmlns="http://www.w3.org/2000/svg" width="48" height="48"><g fill="none"><path stroke="#fff" stroke-width="3" d="M48.07 25.92l-3.26-6.7L42 40 39 1.5l-2.63 30.7-2.8-13-2.83 27.3-2.8-33.8-2.96 13.86-3.8-7.35L18.4 40l-3-38.5-2.63 30.7-2.8-13-2.82 27.3L4.3 12.7 1.5 27"/><path stroke="#fff" stroke-width="3" d="M25.05 1.2v45.4"/><path stroke="#ce5c00" d="M48.07 25.92l-3.26-6.7L42 40 39 1.5l-2.63 30.7-2.8-13-2.83 27.3-2.8-33.8-2.96 13.86-3.8-7.35L18.4 40l-3-38.5-2.63 30.7-2.8-13-2.82 27.3L4.3 12.7 1.5 27"/><path stroke="#000" d="M25.05 1.2v45.4" stroke-dasharray="1.99999999, 1.99999999"/></g></svg>