<svg xmlns="http://www.w3.org/2000/svg" width="48" height="48" xmlns:xlink="http://www.w3.org/1999/xlink" version="1" viewBox="0 0 612 792" enable-background="new 0 0 612 792"><defs><linearGradient id="d"><stop offset="0" stop-color="#4e9a06"/><stop offset="1" stop-color="#4e9a06" stop-opacity="0"/></linearGradient><linearGradient id="c"><stop offset="0" stop-color="#73d01a"/><stop offset=".63" stop-color="#5ead1e"/><stop offset="1" stop-color="#d6f3b9"/></linearGradient><linearGradient id="a"><stop offset="0" stop-color="#264e00"/><stop offset=".322" stop-color="#377700"/><stop offset=".639" stop-color="#5ead1e"/><stop offset="1" stop-color="#d6f3b9"/></linearGradient><linearGradient id="b"><stop offset="0" stop-color="#73d01a"/><stop offset=".704" stop-color="#5ead1e"/><stop offset="1" stop-color="#d6f3b9"/></linearGradient><radialGradient id="f" cx="132.332" cy="327.795" r="96.324" xlink:href="#a" fx="132.332" fy="327.795" gradientTransform="matrix(4.038 -.035 .058 3.785 -250.879 -801.976)" gradientUnits="userSpaceOnUse"/><radialGradient cx="132.826" cy="312.6" r="96.324" xlink:href="#b" gradientUnits="userSpaceOnUse" gradientTransform="matrix(.997 .23 -.324 1.404 331.686 -179.462)" fx="132.826" fy="312.6"/><radialGradient cx="132.826" cy="312.6" r="96.324" xlink:href="#c" gradientUnits="userSpaceOnUse" gradientTransform="matrix(.997 .23 -.324 1.404 409.501 -69.102)" fx="132.826" fy="312.6"/><radialGradient cx="132.826" cy="312.6" r="96.324" xlink:href="#b" gradientUnits="userSpaceOnUse" gradientTransform="matrix(.865 .199 -.281 1.217 385.613 162.504)" fx="132.826" fy="312.6"/><radialGradient cx="132.826" cy="312.6" r="96.324" xlink:href="#b" gradientUnits="userSpaceOnUse" gradientTransform="matrix(1.019 .099 -.139 1.434 213.2 180.433)" fx="132.826" fy="312.6"/><radialGradient cx="132.826" cy="312.6" r="96.324" xlink:href="#b" gradientUnits="userSpaceOnUse" gradientTransform="matrix(1.024 0 0 1.44 141.036 27.722)" fx="132.826" fy="312.6"/><radialGradient cx="132.826" cy="312.6" r="96.324" xlink:href="#b" gradientUnits="userSpaceOnUse" gradientTransform="matrix(1.02 -.085 .12 1.435 -11.738 -17.319)" fx="132.826" fy="312.6"/><radialGradient cx="132.826" cy="312.6" r="96.324" xlink:href="#b" gradientUnits="userSpaceOnUse" gradientTransform="matrix(1.024 0 0 1.44 8.026 -173.096)" fx="132.826" fy="312.6"/><radialGradient id="e" cx="23.25" cy="44.17" r="14.196" xlink:href="#d" fx="23.25" fy="44.17" gradientTransform="matrix(1 0 0 .255 0 32.919)" gradientUnits="userSpaceOnUse"/></defs><path fill="url(#e)" d="M37.45 44.17a14.2 3.62 0 1 1-28.4 0 14.2 3.62 0 1 1 28.4 0z" transform="matrix(21.466 0 0 21.451 -191.209 -228.808)" color="#000" overflow="visible" enable-background="accumulate"/><path fill="url(#f)" stroke="#376e04" stroke-width="16.5" d="M319.58 741c-191.95 4.73-354.4-154.76-363.3-356C-52.7 183.65 95.47 16.8 287.3 12c191.77-4.7 354.34 154.67 363.3 356 8.85 201.36-139.32 368.12-331.02 373z"/><path fill="none" stroke="#caff96" stroke-width="16.5" d="M318.95 727.03C134.42 731.6-21.75 578.2-30.32 384.68c-8.62-193.66 133.83-354.1 318.25-358.7C472.28 21.45 628.58 174.7 637.2 368.3c8.5 193.66-133.95 354.02-318.25 358.7z"/></svg>