<svg xmlns="http://www.w3.org/2000/svg" width="50pt" height="50pt" viewBox="0 0 50 50"><path fill="none" stroke="#000" stroke-width="0.5" d="M42.6 12.5l-10.8 1.15"/><path fill="none" stroke="#000" stroke-width="0.5" d="M42.6 12.5l-4.3 6.35"/><path fill="none" stroke="#000" stroke-width="0.5" d="M17.6 15h-10l5 5"/><path fill="#f8fcf8" stroke="#000" stroke-width="0.5" d="M2.6 40l15 2.5h20l16.4.15-6.9-6.2-7-5.2-6.2-6.4-7-4.5-5.5 3.8-5.7 6.2-5.6 5.9z"/><path fill="none" stroke="#C0C0C0" stroke-width="0.5" d="M26.9 20.35l3.2 5.9 3.1 4.9 5.1 5.2 7.9 6.23"/><path fill="none" stroke="#C0C0C0" stroke-width="0.5" d="M9.1 42.34l6.9-4.6 4.1-4 1.4-6.1 5.4-7.3"/><path fill="none" stroke="#C0C0C0" stroke-width="0.5" d="M25 42.5l2-3.55.6-3.95.3-6.15-1-8.5"/><path fill="none" stroke="#000" stroke-width="0.5" d="M40.1 23.75L7.6 15"/><path fill="none" stroke="#000" stroke-width="0.5" d="M42.6 12.5L7.6 30"/><path fill="#7c7e7c" d="M10.1 36.25l-1 6.1 5.45-3.63 1.45-.97 4.1-4 1.4-6.1 5.4-7.3-5.5 3.8z"/><path fill="#fff" stroke="#000" stroke-width="0.5" d="M9.1 42.34l15.9.16 2-3.55.6-3.95.18-7.15-.88-7.5-5.4 7.3-1.4 6.1-4.52 4.27z"/><path fill="none" stroke="#000" stroke-width="0.5" d="M26.9 20.35l-5.5 3.8L10.23 36.1"/><path fill="none" stroke="#000" stroke-width="0.5" d="M54 42.65"/></svg>