<svg xmlns="http://www.w3.org/2000/svg" width="48" height="48"><g><path fill="none" stroke="#fff" stroke-width="4" d="M17.35.93V46.9"/><rect width="23.148" height="23.148" x="23.938" y="-1.03" fill="#c4d7eb" fill-rule="evenodd" stroke="#3465a4" stroke-width="1.384" transform="matrix(.963 .271 -.963 .271 0 0)" ry="0" stroke-linejoin="bevel" overflow="visible" enable-background="accumulate"/><rect width="23.148" height="23.148" x="67.18" y="42.212" fill="#c4d7eb" fill-rule="evenodd" stroke="#3465a4" stroke-width="1.384" ry="0" transform="matrix(.963 .271 -.963 .271 0 0)" stroke-linejoin="bevel" overflow="visible" enable-background="accumulate"/><path fill="none" stroke="#888a85" stroke-width="2" d="M17.4 38.05l-.05 10.05" stroke-dasharray="2,2"/><path fill="none" stroke="#122e53" stroke-width="2" d="M17.35 11.94v24.7"/><path fill="none" stroke="#888a85" stroke-width="2" d="M17.35.1v11.84" stroke-dasharray="2,2"/><path fill-rule="evenodd" d="M19.5 12.33a2.17 2.17 0 1 1-4.35 0 2.17 2.17 0 1 1 4.34 0z" overflow="visible" enable-background="accumulate"/><path fill-rule="evenodd" d="M19.5 36.33a2.17 2.17 0 1 1-4.35 0 2.17 2.17 0 1 1 4.34 0z" overflow="visible" enable-background="accumulate"/></g></svg>