<svg xmlns="http://www.w3.org/2000/svg" width="48" height="48" xmlns:xlink="http://www.w3.org/1999/xlink"><defs><linearGradient id="b"><stop offset="0" stop-color="#ffcf83"/><stop offset="1" stop-color="#f7ae00"/></linearGradient><linearGradient id="a"><stop offset="0" stop-color="#ce5c00"/><stop offset="1" stop-color="#9f4700"/></linearGradient><linearGradient x1="17.857" x2="41.286" y1="17" y2="39.571" xlink:href="#a" gradientUnits="userSpaceOnUse" gradientTransform="matrix(1.043 0 0 1.043 -1.831 -.043)"/><radialGradient cx="24.685" cy="24.541" r="21.113" xlink:href="#b" fx="24.685" fy="24.541" gradientTransform="translate(0 0)" gradientUnits="userSpaceOnUse"/></defs><g font-style="italic" font-family="Georgia"><path fill="none" stroke="#fff" stroke-width="2" d="M33.5 16.86c-.02 1.13-.43 1.97-1.24 2.5-.82.55-1.7.82-2.66.82-.6 0-1.25-.1-2-.3-.74-.2-1.33-.38-1.76-.52-.88.78-1.9 1.94-3.06 3.47-1.17 1.54-2.27 3.23-3.3 5.07.47 1.87.9 3.46 1.26 4.8.37 1.3.77 2.64 1.2 3.98.37 1.2.96 2.15 1.75 2.87.78.72 1.82 1.08 3.1 1.08.48 0 1.13-.07 1.95-.2.82-.12 1.46-.27 1.9-.42l-.52 1.95c-1.88.8-3.3 1.3-4.24 1.53-.96.24-1.98.36-3.08.36-1.37 0-2.5-.32-3.4-.95-.88-.63-1.6-1.93-2.14-3.9-.4-1.43-.7-2.63-.96-3.6-.24-.97-.48-1.94-.72-2.9-.9 1.35-1.64 2.5-2.23 3.46-.58.95-1.56 2.26-2.93 3.93-1.2 1.44-2.3 2.47-3.3 3.08-1 .6-2 .92-3.04.92-.92 0-1.68-.27-2.27-.8-.6-.55-.9-1.3-.9-2.27 0-.92.35-1.7 1.06-2.37.7-.66 1.66-1 2.9-1 .62 0 1.23.13 1.83.35.6.24 1.2.45 1.86.65.73-.7 1.72-1.8 2.94-3.3 1.22-1.5 2.36-3.2 3.42-5.1-.37-1.4-.78-2.92-1.22-4.6-.44-1.66-.86-3.13-1.25-4.38-.52-1.6-1.1-2.6-1.77-3.07-.66-.45-1.5-.67-2.55-.67-.57 0-1.17.08-1.8.23-.64.16-1.23.32-1.78.47l.56-1.94c1.5-.64 2.86-1.15 4.06-1.56 1.2-.4 2.02-.6 2.45-.6 1.35 0 2.47.33 3.36 1 .9.64 1.6 1.92 2.13 3.8.6 2.18.96 3.5 1.07 4 .1.47.32 1.42.63 2.83.94-1.45 1.7-2.68 2.3-3.68.58-1 1.53-2.33 2.86-3.98 1.24-1.56 2.38-2.62 3.42-3.2 1.05-.58 2.05-.87 3-.87.87 0 1.6.28 2.2.84.6.55.88 1.27.86 2.16z" style="-inkscape-font-specification:Georgia Italic" font-size="37.53"/><path fill="none" stroke="#fff" stroke-width="2" d="M42.66 14.2h-.08c-.75.64-1.47 1.13-2.14 1.5-.68.35-1.46.53-2.32.53-.8 0-1.4-.22-1.87-.68-.46-.45-.7-1.05-.7-1.78 0-.2.03-.43.06-.7.05-.27.12-.67.25-1.2l.95-3.83c.1-.37.16-.7.2-.96.06-.28.1-.54.1-.8 0-.45-.1-.75-.24-.9-.15-.16-.46-.23-.93-.23-.18 0-.4.03-.7.1-.26.06-.48.1-.64.15l.18-.78c.64-.3 1.2-.5 1.7-.65.47-.15.86-.22 1.16-.22.65 0 1.14.15 1.45.44.3.28.46.73.46 1.3 0 .16 0 .36-.05.62-.02.25-.07.5-.13.76l-1.12 4.47c-.08.34-.15.67-.2.96-.06.3-.1.54-.1.7 0 .54.14.98.4 1.3.27.3.66.47 1.18.47.6 0 1.18-.14 1.75-.44.56-.3 1.1-.7 1.6-1.2l2.03-9.18 2.14-.15.14.18-2.1 9.6c-.32 1.4-.7 2.6-1.2 3.6-.48 1-1.04 1.8-1.7 2.42-.67.65-1.4 1.12-2.2 1.4-.77.3-1.67.43-2.67.43-.7 0-1.24-.05-1.65-.15-.4-.1-.73-.23-.97-.4-.24-.16-.4-.35-.48-.55-.08-.2-.12-.4-.12-.62 0-.34.1-.65.32-.92.2-.27.52-.4.92-.4.3 0 .56.08.77.26.2.17.38.35.5.56.15.22.3.47.4.75.13.28.23.5.3.66h.3c.47 0 .96-.1 1.48-.33s1-.6 1.43-1.07c.47-.52.9-1.2 1.27-2.02.37-.83.67-1.82.9-2.97z" style="-inkscape-font-specification:Georgia Italic" font-size="14.406"/><path d="M33.5 16.86c-.02 1.13-.43 1.97-1.24 2.5-.82.55-1.7.82-2.66.82-.6 0-1.25-.1-2-.3-.74-.2-1.33-.38-1.76-.52-.88.78-1.9 1.94-3.06 3.47-1.17 1.54-2.27 3.23-3.3 5.07.47 1.87.9 3.46 1.26 4.8.37 1.3.77 2.64 1.2 3.98.37 1.2.96 2.15 1.75 2.87.78.72 1.82 1.08 3.1 1.08.48 0 1.13-.07 1.95-.2.82-.12 1.46-.27 1.9-.42l-.52 1.95c-1.88.8-3.3 1.3-4.24 1.53-.96.24-1.98.36-3.08.36-1.37 0-2.5-.32-3.4-.95-.88-.63-1.6-1.93-2.14-3.9-.4-1.43-.7-2.63-.96-3.6-.24-.97-.48-1.94-.72-2.9-.9 1.35-1.64 2.5-2.23 3.46-.58.95-1.56 2.26-2.93 3.93-1.2 1.44-2.3 2.47-3.3 3.08-1 .6-2 .92-3.04.92-.92 0-1.68-.27-2.27-.8-.6-.55-.9-1.3-.9-2.27 0-.92.35-1.7 1.06-2.37.7-.66 1.66-1 2.9-1 .62 0 1.23.13 1.83.35.6.24 1.2.45 1.86.65.73-.7 1.72-1.8 2.94-3.3 1.22-1.5 2.36-3.2 3.42-5.1-.37-1.4-.78-2.92-1.22-4.6-.44-1.66-.86-3.13-1.25-4.38-.52-1.6-1.1-2.6-1.77-3.07-.66-.45-1.5-.67-2.55-.67-.57 0-1.17.08-1.8.23-.64.16-1.23.32-1.78.47l.56-1.94c1.5-.64 2.86-1.15 4.06-1.56 1.2-.4 2.02-.6 2.45-.6 1.35 0 2.47.33 3.36 1 .9.64 1.6 1.92 2.13 3.8.6 2.18.96 3.5 1.07 4 .1.47.32 1.42.63 2.83.94-1.45 1.7-2.68 2.3-3.68.58-1 1.53-2.33 2.86-3.98 1.24-1.56 2.38-2.62 3.42-3.2 1.05-.58 2.05-.87 3-.87.87 0 1.6.28 2.2.84.6.55.88 1.27.86 2.16z" style="-inkscape-font-specification:Georgia Italic" font-size="37.53"/><path d="M42.66 14.2h-.08c-.75.64-1.47 1.13-2.14 1.5-.68.35-1.46.53-2.32.53-.8 0-1.4-.22-1.87-.68-.46-.45-.7-1.05-.7-1.78 0-.2.03-.43.06-.7.05-.27.12-.67.25-1.2l.95-3.83c.1-.37.16-.7.2-.96.06-.28.1-.54.1-.8 0-.45-.1-.75-.24-.9-.15-.16-.46-.23-.93-.23-.18 0-.4.03-.7.1-.26.06-.48.1-.64.15l.18-.78c.64-.3 1.2-.5 1.7-.65.47-.15.86-.22 1.16-.22.65 0 1.14.15 1.45.44.3.28.46.73.46 1.3 0 .16 0 .36-.05.62-.02.25-.07.5-.13.76l-1.12 4.47c-.08.34-.15.67-.2.96-.06.3-.1.54-.1.7 0 .54.14.98.4 1.3.27.3.66.47 1.18.47.6 0 1.18-.14 1.75-.44.56-.3 1.1-.7 1.6-1.2l2.03-9.18 2.14-.15.14.18-2.1 9.6c-.32 1.4-.7 2.6-1.2 3.6-.48 1-1.04 1.8-1.7 2.42-.67.65-1.4 1.12-2.2 1.4-.77.3-1.67.43-2.67.43-.7 0-1.24-.05-1.65-.15-.4-.1-.73-.23-.97-.4-.24-.16-.4-.35-.48-.55-.08-.2-.12-.4-.12-.62 0-.34.1-.65.32-.92.2-.27.52-.4.92-.4.3 0 .56.08.77.26.2.17.38.35.5.56.15.22.3.47.4.75.13.28.23.5.3.66h.3c.47 0 .96-.1 1.48-.33s1-.6 1.43-1.07c.47-.52.9-1.2 1.27-2.02.37-.83.67-1.82.9-2.97z" style="-inkscape-font-specification:Georgia Italic" font-size="14.406"/></g></svg>