<svg xmlns="http://www.w3.org/2000/svg" width="48" height="48" xmlns:xlink="http://www.w3.org/1999/xlink"><defs><linearGradient id="d"><stop offset="0" stop-color="#ffa219"/><stop offset="1" stop-color="#f57900"/></linearGradient><linearGradient id="c"><stop offset="0" stop-color="#9c3600"/><stop offset="1" stop-color="#ce5c00"/></linearGradient><linearGradient id="b"><stop offset="0" stop-color="#c4c5c2"/><stop offset="1" stop-color="#888a85"/></linearGradient><linearGradient id="a"><stop offset="0" stop-color="#fff"/><stop offset="1" stop-color="#d6d6d1"/></linearGradient><linearGradient id="e" x1="24.413" x2="23.798" y1=".674" y2="18.099" xlink:href="#a" gradientUnits="userSpaceOnUse" gradientTransform="matrix(1 0 0 .979 -.338 .078)"/><linearGradient id="f" x1="21.028" x2="38.698" y1="1.785" y2="18.099" xlink:href="#b" gradientUnits="userSpaceOnUse" gradientTransform="matrix(1 0 0 .979 -.338 .078)"/><linearGradient id="g" x1="9.856" x2="37.898" y1="23.092" y2="23.092" xlink:href="#c" gradientUnits="userSpaceOnUse" gradientTransform="translate(-.338 -.357)"/><radialGradient id="h" cx="23.682" cy="37.028" r="18.746" xlink:href="#d" fx="23.682" fy="37.028" gradientTransform="matrix(1 .008 -.006 .702 -.125 3.8)" gradientUnits="userSpaceOnUse"/></defs><g><path fill="#2e3436" d="M4.72 27.02h37.4v12.65H4.7z" color="#000" overflow="visible" enable-background="accumulate"/><path fill="#eeeeec" stroke="#888a85" stroke-width=".5" d="M41.26 15.74h1.55v2.65h-1.54z" color="#000" overflow="visible" enable-background="accumulate"/><path fill="#eeeeec" stroke="#888a85" stroke-width=".5" d="M43.24 15.83h1.08V4.5l3.42.9v5.34l-1.98 1.52-.1 5.92-2.8.04z" color="#000" stroke-linejoin="round" overflow="visible" enable-background="accumulate"/><path fill="#babdb6" stroke="#555753" stroke-width=".5" d="M41.8 14.63h1.42v4.7h-1.4z" color="#000" overflow="visible" enable-background="accumulate"/><path fill="#ce5c00" d="M5.62 12.84h35.3v4.1H5.6z" color="#000" overflow="visible" enable-background="accumulate"/><path fill="#2e3436" d="M3.42 15.1h37.82v3.84H3.42z" color="#000" overflow="visible" enable-background="accumulate"/><path fill="#babdb6" d="M5.22 12.3h.75v5.5h-.75z" color="#000" overflow="visible" enable-background="accumulate"/><path fill="url(#e)" stroke="url(#f)" stroke-width=".5" d="M8.77.37h29.4V20H8.76z" color="#000" overflow="visible" enable-background="accumulate"/><path fill="#babdb6" d="M40.86 12.2h.75v5.6h-.74z" color="#000" overflow="visible" enable-background="accumulate"/><path fill="url(#g)" d="M9.52 16.3c8.7 8.72 18.13 7.64 28.04 0v12.88H9.92z" color="#000" overflow="visible" enable-background="accumulate"/><path fill="#2e3436" d="M10.62 18.14l2.5-1.45 4.2.24 2.95.05.5-.5h1.14l.6.7h2.06l.5-.85h1.2l.43.74 3.7-.06 4.6.35 1.26.7c.05 2.64-5.14 9.46-13 9.63-7.85.18-12.44-7.6-12.64-9.6z" color="#000" overflow="visible" enable-background="accumulate"/><path fill="url(#h)" stroke="#833b00" stroke-width=".5" d="M4.67 30.2V18c.18-.77.47-1.48 1.7-1.7h3.1c.2 7.57 7.34 12.63 13.74 12.54 6.42-.1 14-5.17 14.36-12.55h3.1c.97.2 1.3.94 1.5 1.82v12.33c.1 1.04-.66 1.6-1.58 1.57H6.02c-.73-.2-1.28-.67-1.35-1.82z"/><path fill="#babdb6" stroke="#555753" stroke-width=".5" d="M.3 15.18h1.65v3.6H.3z" color="#000" overflow="visible" enable-background="accumulate"/><path fill="#eeeeec" stroke="#888a85" stroke-width=".5" d="M1.74 12.17H3.8v9.63H1.74z" color="#000" overflow="visible" enable-background="accumulate"/><path fill="#f57900" stroke="#833b00" stroke-width=".5" d="M4.72 33.68h37.4v12.2c-.22 1.48-1 1.54-1.74 1.72H6.88c-1.68-.22-2.2-1.1-2.27-2.26z" color="#000" overflow="visible" enable-background="accumulate"/><rect width="31.791" height="11.197" x="7.519" y="35.132" fill="#b53e00" ry=".75" color="#000" overflow="visible" enable-background="accumulate"/><rect width="29.992" height="9.197" x="8.469" y="37.131" fill="#2e3436" ry=".8" color="#000" overflow="visible" enable-background="accumulate"/><path fill="#555753" d="M5.97 13.77H41v.4H5.98z" color="#000" overflow="visible" enable-background="accumulate"/><path fill="#fff" d="M5.97 13.5H41v.4H5.98z" color="#000" overflow="visible" enable-background="accumulate"/><path fill="#fff" d="M22.5 18.9v-3.2h.56v.9h.7v-.86h.6v3.1z" color="#000" overflow="visible" enable-background="accumulate"/><path fill="#fff" d="M19.16 18.1l.86-1.04s1.63 1.72 3.43 1.7c1.8-.03 3.36-1.63 3.36-1.63l.92 1.07s-1.73 1.64-4.18 1.66c-2.46.02-4.38-1.76-4.38-1.76z" color="#000" overflow="visible" enable-background="accumulate"/><path fill="#2e3436" d="M10.87 13.2h1.75v1.1h-1.75z" color="#000" overflow="visible" enable-background="accumulate"/><path fill="#2e3436" d="M34.16 13.2h1.75v1.1h-1.74z" color="#000" overflow="visible" enable-background="accumulate"/><path fill="#d3d7cf" d="M16.66 17.6h13.72v.37H16.66z" color="#000" overflow="visible" enable-background="accumulate"/><path fill="#f57900" d="M17.27 16.96a2.77 2.77 0 1 1-5.55 0 2.77 2.77 0 1 1 5.55 0z" color="#000" overflow="visible" enable-background="accumulate"/><path fill="#f57900" d="M35.06 16.96a2.77 2.77 0 1 1-5.55 0 2.77 2.77 0 1 1 5.56 0z" color="#000" overflow="visible" enable-background="accumulate"/><path fill="#fff" d="M33.22 16.96a.94.94 0 1 1-1.87 0 .94.94 0 1 1 1.87 0z" color="#000" overflow="visible" enable-background="accumulate"/><path fill="#fff" d="M15.48 16.96a.94.94 0 1 1-1.87 0 .94.94 0 1 1 1.88 0z" color="#000" overflow="visible" enable-background="accumulate"/><g fill="#888a85" transform="translate(-.338 -.18)" color="#000"><path d="M12.1 41.32c0 .8-.65 1.46-1.46 1.46-.8 0-1.45-.66-1.45-1.46 0-.8.64-1.45 1.44-1.45.8 0 1.46.65 1.46 1.45z" overflow="visible" enable-background="accumulate"/><path d="M16.5 41.32c0 .8-.65 1.46-1.46 1.46-.8 0-1.45-.66-1.45-1.46 0-.8.64-1.45 1.44-1.45.8 0 1.46.65 1.46 1.45z" overflow="visible" enable-background="accumulate"/><path d="M14.32 44.65c0 .8-.65 1.46-1.46 1.46-.8 0-1.45-.64-1.45-1.45 0-.8.66-1.45 1.46-1.45.8 0 1.46.65 1.46 1.45z" overflow="visible" enable-background="accumulate"/><rect width="16.011" height="2.904" x="15.758" y="43.202" ry="1.452" overflow="visible" enable-background="accumulate"/><path d="M36.14 44.65c0 .8-.65 1.46-1.46 1.46-.8 0-1.45-.64-1.45-1.45 0-.8.65-1.45 1.45-1.45.8 0 1.46.65 1.46 1.45z" overflow="visible" enable-background="accumulate"/><path d="M14.32 38.04c0 .8-.65 1.45-1.46 1.45-.8 0-1.45-.66-1.45-1.46 0-.8.66-1.46 1.46-1.46.8 0 1.46.66 1.46 1.46z" overflow="visible" enable-background="accumulate"/><path d="M18.68 38.04c0 .8-.65 1.45-1.45 1.45-.8 0-1.46-.66-1.46-1.46 0-.8.65-1.46 1.46-1.46.8 0 1.45.66 1.45 1.46z" overflow="visible" enable-background="accumulate"/><path d="M23.05 38.04c0 .8-.65 1.45-1.46 1.45-.8 0-1.46-.66-1.46-1.46 0-.8.65-1.46 1.45-1.46.8 0 1.45.66 1.45 1.46z" overflow="visible" enable-background="accumulate"/><path d="M31.77 38.04c0 .8-.65 1.45-1.45 1.45-.8 0-1.45-.66-1.45-1.46 0-.8.65-1.46 1.45-1.46.8 0 1.45.66 1.45 1.46z" overflow="visible" enable-background="accumulate"/><path d="M36.14 38.04c0 .8-.65 1.45-1.46 1.45-.8 0-1.45-.66-1.45-1.46 0-.8.65-1.46 1.45-1.46.8 0 1.46.66 1.46 1.46z" overflow="visible" enable-background="accumulate"/><path d="M27.4 38.04c0 .8-.64 1.45-1.44 1.45-.8 0-1.46-.66-1.46-1.46 0-.8.65-1.46 1.46-1.46.8 0 1.45.66 1.45 1.46z" overflow="visible" enable-background="accumulate"/><path d="M20.9 41.32c0 .8-.65 1.46-1.45 1.46-.8 0-1.46-.66-1.46-1.46 0-.8.64-1.45 1.45-1.45.8 0 1.45.65 1.45 1.45z" overflow="visible" enable-background="accumulate"/><path d="M25.3 41.32c0 .8-.65 1.46-1.45 1.46-.8 0-1.45-.66-1.45-1.46 0-.8.65-1.45 1.45-1.45.8 0 1.45.65 1.45 1.45z" overflow="visible" enable-background="accumulate"/><path d="M29.7 41.32c0 .8-.64 1.46-1.45 1.46-.8 0-1.45-.66-1.45-1.46 0-.8.65-1.45 1.45-1.45.8 0 1.46.65 1.46 1.45z" overflow="visible" enable-background="accumulate"/><path d="M34.1 41.32c0 .8-.64 1.46-1.45 1.46-.8 0-1.45-.66-1.45-1.46 0-.8.65-1.45 1.45-1.45.8 0 1.46.65 1.46 1.45z" overflow="visible" enable-background="accumulate"/><path d="M38.5 41.32c0 .8-.64 1.46-1.44 1.46-.8 0-1.46-.66-1.46-1.46 0-.8.65-1.45 1.46-1.45.8 0 1.45.65 1.45 1.45z" overflow="visible" enable-background="accumulate"/></g><path fill="#fff" d="M11.76 40.36a1.45 1.45 0 1 1-2.9 0 1.45 1.45 0 1 1 2.9 0z" color="#000" overflow="visible" enable-background="accumulate"/><path fill="#fff" d="M16.16 40.36a1.45 1.45 0 1 1-2.9 0 1.45 1.45 0 1 1 2.9 0z" color="#000" overflow="visible" enable-background="accumulate"/><path fill="#fff" d="M13.98 43.7a1.45 1.45 0 1 1-2.9 0 1.45 1.45 0 1 1 2.9 0z" color="#000" overflow="visible" enable-background="accumulate"/><rect width="16.011" height="2.904" x="15.421" y="42.239" fill="#fff" ry="1.452" color="#000" overflow="visible" enable-background="accumulate"/><path fill="#fff" d="M35.8 43.7a1.45 1.45 0 1 1-2.9 0 1.45 1.45 0 1 1 2.9 0z" color="#000" overflow="visible" enable-background="accumulate"/><path fill="#fff" d="M13.98 37.08a1.45 1.45 0 1 1-2.9 0 1.45 1.45 0 1 1 2.9 0z" color="#000" overflow="visible" enable-background="accumulate"/><path fill="#fff" d="M18.34 37.08a1.45 1.45 0 1 1-2.9 0 1.45 1.45 0 1 1 2.9 0z" color="#000" overflow="visible" enable-background="accumulate"/><path fill="#fff" d="M22.7 37.08a1.45 1.45 0 1 1-2.9 0 1.45 1.45 0 1 1 2.9 0z" color="#000" overflow="visible" enable-background="accumulate"/><path fill="#fff" d="M31.44 37.08a1.45 1.45 0 1 1-2.9 0 1.45 1.45 0 1 1 2.9 0z" color="#000" overflow="visible" enable-background="accumulate"/><path fill="#fff" d="M35.8 37.08a1.45 1.45 0 1 1-2.9 0 1.45 1.45 0 1 1 2.9 0z" color="#000" overflow="visible" enable-background="accumulate"/><path fill="#fff" d="M27.07 37.08a1.45 1.45 0 1 1-2.9 0 1.45 1.45 0 1 1 2.9 0z" color="#000" overflow="visible" enable-background="accumulate"/><path fill="#fff" d="M20.56 40.36a1.45 1.45 0 1 1-2.9 0 1.45 1.45 0 1 1 2.9 0z" color="#000" overflow="visible" enable-background="accumulate"/><path fill="#fff" d="M24.97 40.36a1.45 1.45 0 1 1-2.9 0 1.45 1.45 0 1 1 2.9 0z" color="#000" overflow="visible" enable-background="accumulate"/><path fill="#fff" d="M29.37 40.36a1.45 1.45 0 1 1-2.9 0 1.45 1.45 0 1 1 2.9 0z" color="#000" overflow="visible" enable-background="accumulate"/><path fill="#fff" d="M33.77 40.36a1.45 1.45 0 1 1-2.9 0 1.45 1.45 0 1 1 2.9 0z" color="#000" overflow="visible" enable-background="accumulate"/><path fill="#fff" d="M38.17 40.36a1.45 1.45 0 1 1-2.9 0 1.45 1.45 0 1 1 2.9 0z" color="#000" overflow="visible" enable-background="accumulate"/><path fill="none" stroke="#fff" stroke-width=".5" d="M19.36 18.2l-4.34 5.1"/><path fill="none" stroke="#fff" stroke-width=".5" d="M20.36 18.88l-3.42 5.76"/><path fill="none" stroke="#fff" stroke-width=".5" d="M21.67 19.53l-2.6 6.18"/><path fill="none" stroke="#fff" stroke-width=".5" d="M23.07 19.8l-1.46 6.54"/><path fill="none" stroke="#fff" stroke-width=".5" d="M27.34 18.2l4.35 5.1"/><path fill="none" stroke="#fff" stroke-width=".5" d="M26.34 18.88l3.42 5.76"/><path fill="none" stroke="#fff" stroke-width=".5" d="M25.2 19.53l2.58 6.18"/><path fill="none" stroke="#fff" stroke-width=".5" d="M23.78 19.77l1.16 6.6"/><path fill="none" stroke="#fff" d="M16.53 22.24l-1.1 1.4"/><path fill="none" stroke="#fff" d="M18.12 23.27l-.86 1.58"/><path fill="none" stroke="#fff" d="M20.13 24.23l-.63 1.68"/><path fill="none" stroke="#fff" d="M22.48 24.68l-.28 1.78"/><path fill="none" stroke="#fff" d="M25.34 24.45l.47 1.74"/><path fill="none" stroke="#fff" d="M25.2 24.45l.46 1.74"/><path fill="none" stroke="#fff" d="M27.65 23.78l.7 1.66"/><path fill="none" stroke="#fff" d="M29.46 22.73l.9 1.54"/><path fill="none" stroke="#fff" d="M31 21.54l1.16 1.4"/><g style="text-align:start;line-height:100%;-inkscape-font-specification:Prestige Elite Std Bold" font-size="4" font-weight="bold" letter-spacing="0" word-spacing="0" font-family="Prestige Elite Std"><path d="M11.22 3.48l-.9 2.4h-.2v.23h.8V5.9h-.36l.2-.5h.94l.2.5h-.35v.23h.8V5.9h-.2zm.4 1.66h-.8l.4-1.1z"/><path d="M13.8 3.7c0-.06 0-.1-.02-.15 0-.04-.05-.07-.1-.07-.03 0-.05 0-.07.02 0 0-.02.02-.04.04-.05.05-.12.08-.2.1-.1 0-.18.02-.24 0l-.26.02.04.22h.23c.14 0 .28-.03.4-.05v2.05h-.73v.23h1.66V5.9h-.67z"/><path d="M16.2 3.7c0-.06 0-.1-.02-.15-.02-.04-.05-.07-.1-.07-.04 0-.06 0-.07.02 0 0-.02.02-.04.04-.05.05-.12.08-.2.1-.1 0-.18.02-.25 0l-.24.02.04.22h.23c.14 0 .28-.03.4-.05v2.05h-.74v.23h1.66V5.9h-.67z"/><path d="M19.65 4.45v.22h.27l.4 1.48h.3l.24-.78.27.78h.28l.4-1.48h.2v-.22h-.72v.22h.3l-.32 1.16-.32-.94h-.15l-.32.93-.33-1.16h.28v-.22z"/><path d="M23.23 6.15c.25 0 .46-.1.62-.25.16-.16.25-.37.25-.62 0-.26-.1-.46-.25-.63-.16-.16-.37-.24-.62-.25-.25 0-.46.1-.62.25-.15.17-.24.37-.24.63 0 .25.1.46.25.62.17.16.38.25.63.25zm0-.22c-.2 0-.34-.07-.45-.2-.1-.12-.16-.27-.16-.45 0-.2.06-.34.16-.46.1-.13.26-.2.45-.2.2 0 .33.07.44.2.1.12.17.27.17.46 0 .18-.06.33-.17.46-.1.12-.25.18-.44.2z"/><path d="M25.43 5.05c.1-.08.2-.17.33-.27.14-.1.26-.15.37-.15.05 0 .1.02.12.06.02.04.04.08.06.13l.26-.1c-.04-.1-.1-.18-.15-.24-.06-.07-.14-.1-.25-.1-.14 0-.27.04-.38.12-.12.07-.23.14-.34.23v-.2c0-.06 0-.1 0-.15-.03-.04-.06-.06-.1-.06-.04 0-.06 0-.08.02 0 0-.03.03-.04.05-.04.05-.1.07-.16.1-.06 0-.12 0-.18 0l.03.22.28-.04v1.2h-.34v.23h1.32V5.9h-.73z"/><path d="M27.6 3.68c0-.05 0-.1-.02-.13-.02-.04-.05-.07-.1-.07-.03 0-.05 0-.07.02 0 0-.02.03-.03.05-.05.05-.12.08-.2.1-.08 0-.16 0-.22.02l.03.2.36-.05v2.06h-.38v.23h.93V5.9h-.3v-.3l.36-.32.5.62h-.18v.23h.8V5.9h-.32l-.63-.77.46-.43h.27v-.22h-.77v.22h.17l-.68.62z"/><path d="M11.62 10.1h.58V9.9h-.34V8.9c0-.2-.03-.32-.12-.4-.08-.07-.23-.1-.43-.1-.12 0-.25.02-.4.06-.12.05-.25.1-.37.17v.4h.25v-.25c.1-.05.18-.1.27-.12.1-.02.2-.04.3-.03.14 0 .23.03.25.1.02.06.02.16.02.27v.1c-.14 0-.27.02-.4.03-.12 0-.24.03-.36.06-.15 0-.27.07-.37.14-.1.07-.17.2-.17.35 0 .15.06.27.17.34.1.08.24.1.4.1.12 0 .24 0 .36-.03.12-.02.24-.06.36-.1zm0-.37c-.12.06-.23.1-.35.14-.12.04-.25.06-.37.06-.08 0-.15 0-.22-.05-.06-.03-.1-.1-.1-.2 0-.08.05-.15.12-.2.06-.04.14-.07.22-.08.1-.03.23-.05.35-.06.1 0 .23-.02.35-.02z"/><path d="M13.16 8.85c.1-.06.2-.1.3-.16.1-.05.22-.07.34-.07.16 0 .25.06.28.16.03.1.04.2.03.34v.74h-.26v.23h.8V9.9h-.28v-.75c0-.08 0-.16 0-.24 0-.1-.03-.18-.07-.25-.06-.1-.13-.15-.22-.2-.1-.03-.18-.05-.28-.05-.12 0-.23.02-.33.06-.1.04-.2.08-.3.13v-.07c0-.04 0-.1-.02-.13 0-.04-.05-.06-.1-.07-.03 0-.05 0-.06.02-.03.02-.05.03-.06.05-.05.04-.1.07-.16.08-.06.02-.13.03-.2.03l.04.2.3-.03v1.2h-.28v.24h.8V9.9h-.28z"/><path d="M16.4 9.8c-.06.03-.12.06-.2.1-.07.02-.14.03-.22.03-.17 0-.3-.07-.4-.2-.1-.12-.16-.27-.17-.44 0-.2.07-.35.17-.48.1-.12.26-.2.45-.2.07 0 .14.02.2.04.07.02.13.04.2.08zm0 .3h.57V9.9h-.32v-2.2c0-.05 0-.1 0-.13-.02-.04-.06-.07-.1-.07-.04 0-.06 0-.07.02-.02 0-.04.03-.05.05-.05.05-.12.08-.2.1-.08 0-.15 0-.22.02l.05.2.36-.05v.67c-.06-.04-.14-.05-.2-.07-.1-.02-.16-.03-.23-.03-.25 0-.44.1-.6.27-.14.18-.2.38-.22.62 0 .22.08.43.23.6.15.16.35.25.6.25.07 0 .14 0 .2-.03.08-.02.15-.05.23-.08z"/><path d="M20.36 8.85c.1-.06.2-.1.3-.16.1-.05.22-.07.33-.07.15 0 .24.06.27.16.03.1.04.2.04.34v.74h-.27v.23h.8V9.9h-.28v-.75c0-.08 0-.16 0-.24 0-.1-.03-.18-.06-.25-.06-.1-.13-.15-.22-.2-.1-.03-.2-.05-.3-.05-.1 0-.2.02-.3.06-.12.04-.22.08-.32.13v-.07c0-.04 0-.1-.02-.13 0-.04-.04-.06-.1-.07-.02 0-.04 0-.06.02 0 .02-.03.03-.05.05-.04.04-.1.07-.16.08-.06.02-.12.03-.2.03l.05.2.3-.03v1.2h-.28v.24h.8V9.9h-.28z"/><path d="M23.23 10.15c.25 0 .46-.1.62-.25.16-.16.25-.37.25-.62 0-.26-.1-.46-.25-.63-.16-.16-.37-.24-.62-.25-.25 0-.46.1-.62.25-.15.17-.24.37-.24.63 0 .25.1.46.25.62.17.16.38.25.63.25zm0-.22c-.2 0-.34-.07-.45-.2-.1-.12-.16-.27-.16-.45 0-.2.06-.34.16-.46.1-.13.26-.2.45-.2.2 0 .33.07.44.2.1.12.17.27.17.46 0 .18-.06.33-.17.46-.1.12-.25.18-.44.2z"/><path d="M27.64 8.9c.05-.1.12-.15.2-.2.1-.05.18-.07.27-.07.2 0 .32.07.4.2.1.13.13.28.13.44 0 .18-.05.33-.16.46-.1.13-.26.2-.45.2-.07 0-.13 0-.2-.03-.06 0-.12-.04-.18-.07zm0 1.18c.07.02.15.04.22.05.07 0 .15.02.22.02.08 0 .2-.02.32-.08.12-.05.23-.14.33-.27s.16-.3.16-.53c0-.24-.08-.44-.2-.6-.15-.17-.34-.26-.58-.27-.1 0-.18.02-.26.05-.07.03-.14.07-.22.13v-.05c0-.04 0-.1 0-.13-.02-.04-.06-.06-.1-.07-.04 0-.06 0-.08.02 0 .02-.03.03-.04.05-.05.04-.1.07-.16.08-.07.02-.13.03-.2.03l.04.2.3-.03v2h-.25v.22h.88v-.23h-.4z"/><path d="M30.58 7.7c0-.06 0-.1 0-.15-.03-.04-.06-.07-.12-.07-.03 0-.05 0-.06.02-.02 0-.03.02-.05.04-.05.05-.12.08-.2.1-.1 0-.18.02-.25 0l-.25.02.04.22h.22c.14 0 .28-.03.4-.05v2.05h-.74v.23h1.67V9.9h-.67z"/><path d="M33.2 10.1h.58V9.9h-.33V8.9c0-.2-.04-.32-.12-.4-.1-.07-.23-.1-.43-.1-.13 0-.27.02-.4.06-.14.05-.26.1-.38.17v.4h.25v-.25c.08-.05.17-.1.27-.12.1-.02.2-.04.3-.03.14 0 .22.03.24.1.02.06.03.16.02.27v.1c-.13 0-.26.02-.38.03-.13 0-.25.03-.38.06-.14 0-.26.07-.36.14-.1.07-.16.2-.17.35.02.15.08.27.2.34.1.08.22.1.37.1.13 0 .26 0 .37-.03.12-.02.24-.06.36-.1zm0-.37c-.1.06-.23.1-.35.14-.12.04-.24.06-.36.06-.1 0-.17 0-.23-.05-.06-.03-.1-.1-.1-.2 0-.08.04-.15.1-.2.08-.04.15-.07.24-.08.12-.03.23-.05.35-.06.12 0 .24-.02.35-.02z"/><path d="M34.18 8.45v.22h.25l.7 1.32-.14.27c-.04.1-.1.18-.15.28-.06.1-.14.15-.24.16-.06 0-.12 0-.18-.02-.06-.03-.12-.06-.17-.1l-.1.2c.07.06.14.1.2.12.1.02.17.04.25.04.18 0 .32-.07.4-.2.1-.1.16-.24.23-.4l.74-1.67h.25v-.22h-.83v.22h.3l-.46 1.04-.54-1.03h.3v-.22z"/></g></g></svg>