<svg xmlns="http://www.w3.org/2000/svg" width="48" height="48" xmlns:xlink="http://www.w3.org/1999/xlink"><defs><linearGradient id="b"><stop offset="0" stop-color="#ff8d27"/><stop offset="1" stop-color="#f18d3b" stop-opacity=".445"/></linearGradient><linearGradient id="a"><stop offset="0" stop-color="#fff"/><stop offset="1" stop-color="#fce94f"/></linearGradient><radialGradient id="c" cx="23.74" cy="19.688" r="23.316" xlink:href="#a" fx="23.74" fy="19.688" gradientTransform="matrix(1 0 0 .839 0 3.165)" gradientUnits="userSpaceOnUse"/><radialGradient id="d" cx="21.616" cy="14.314" r="23.381" xlink:href="#b" fx="21.616" fy="14.314" gradientTransform="matrix(1 0 0 1.044 .095 -.986)" gradientUnits="userSpaceOnUse"/></defs><g><path fill="#8f5902" fill-rule="evenodd" d="M36.1 38.03a3.8 2.42 0 1 1-7.63 0 3.8 2.42 0 1 1 7.62 0z" overflow="visible" enable-background="accumulate"/><path fill="url(#c)" fill-rule="evenodd" d="M26.03.12c-.45 0-.96.02-1.63.06-4.2.27-7.33 1.1-9.83 2.6-1.2.73-3.27 2.53-4.57 4-1.3 1.45-3.2 3.53-4.25 4.6-1.05 1.07-2.36 2.67-2.93 3.54-1.4 2.16-2.4 4.8-2.4 6.36 0 2.2 1.27 5.1 2.86 6.65.9.88 1.3 1.53 1.04 1.7-.23.13-.4.68-.4 1.2 0 .64.34 1.1 1.14 1.5.64.34 1.17.85 1.17 1.15 0 .3.2.67.42.8.8.5 4.8.87 5.26.5.26-.2 1.03-.3 1.73-.23.92.1 1.3.33 1.46.94.22.92 1.98 2.46 2.8 2.46.3 0 .75-.22 1-.46.53-.54 1.64-.15 1.64.6 0 .3-.35.62-.78.73-.3.1-.53.22-.64.43h11.8c-.08-.1-.14-.2-.2-.33-.3-.83-.03-1.83.66-2.27.34-.2 1.1-.27 1.66-.13 1.4.35 1.38 1.8-.04 2.47-.25.1-.44.18-.64.26h9.47c.46-.43 1.12-.98 1.62-1.4.93-.76 1.1-1.2 1.2-3.3.1-1.55.35-2.68.75-3.12.35-.4.65-1.2.65-1.82 0-.62.25-1.84.55-2.7.18-.5.35-1.14.46-1.75V23.1c-.74-2.9-4.3-8.82-7-11.43-.8-.74-1.95-2.36-2.6-3.6-1.33-2.47-4.05-4.83-7.93-6.88C28 .37 27.36.1 26.03.1z" overflow="visible" enable-background="accumulate"/><path fill="#a26d49" d="M31.15 48.67l.1-3.05c.07-2.68.18-3.24 1.1-4.45.6-.76 1.24-1.4 1.43-1.4.2 0 .54.36.78.82l1.3.12c.44-.33 1.64-.56 2.9-.56 1.6 0 2.32-.2 2.9-.77.44-.44 1.3-1.15 1.9-1.64.92-.75 1.07-1.2 1.2-3.3.08-1.54.34-2.68.74-3.12.34-.38.64-1.2.65-1.82 0-.62.24-1.84.55-2.7.3-.84.57-2.14.58-2.88.03-2.3-4.1-9.43-7.14-12.36-.77-.75-1.93-2.37-2.6-3.6-1.3-2.48-4.03-4.84-7.9-6.9C27.57.02 27.16-.07 24.5.1c-4.2.28-7.33 1.1-9.83 2.6-1.2.74-3.28 2.53-4.58 4-1.3 1.46-3.22 3.53-4.26 4.6-1.04 1.07-2.35 2.67-2.92 3.54-1.4 2.16-2.4 4.8-2.4 6.36 0 2.2 1.27 5.1 2.86 6.65.9.88 1.3 1.53 1.03 1.7-.22.13-.37.68-.37 1.2 0 .64.33 1.1 1.13 1.52.64.33 1.17.83 1.17 1.13 0 .3.2.68.42.8.8.5 4.8.87 5.26.5.26-.2 1.03-.3 1.73-.23.92.1 1.3.33 1.46.94.22.93 1.98 2.46 2.8 2.46.3 0 .74-.2 1-.45.53-.54 1.64-.14 1.64.6 0 .3-.35.63-.78.74-1.04.27-1 1.26.16 2.63.53.62 1.1 1.76 1.24 2.53.2 1.07.1 1.48-.4 1.75-.4.22-.6.85-.6 1.7v1.32l5.05-.26c.37-.35.47-.35.47 0 0 .62 2 .62 2.66 0 .4-.38.57-.38.7 0l2.02.27zm-6.2-47.6c1.13-.06 2 .1 2.93.45.92.35 1.78.9 1.9 1.23.2.5.04.56-.83.36-.6-.14-1.86-.36-2.86-.48l-1.82-.23-.13 1.32c-.1 1.13-.27 1.33-1.34 1.5-1.4.22-3.04 2-2.68 2.95.18.45.57.55 1.5.4.8-.16 1.52-.05 2 .3.42.32 1.16.6 1.66.6 1.1 0 2.5.66 2.92 1.4.17.28.73.5 1.23.5s1.02.17 1.14.37c.37.6-.22 1.62-1.17 1.98-.53.2-1.02.8-1.17 1.42-.13.6-.5 1.28-.8 1.53-.44.35-.82.3-1.66-.2-.92-.52-1.17-.52-1.7-.1-1.15.97-.5 2.73 1.02 2.73.37 0 1 .2 1.38.46 1.13.7 1.94.13 2.2-1.56.3-1.78 2.4-4.28 3.58-4.28.42 0 .97.26 1.23.58.26.32.7.55.96.55.27 0 .62.6.75 1.3.27 1.38 1.76 3.2 1.76 2.14 0-.32-.16-.76-.4-.98-.2-.23-.45-.95-.54-1.62-.1-.88 0-1.2.4-1.2.3 0 .54.22.54.5 0 .3.8.93 1.76 1.38 1.85.87 2.23 1.85 1.1 2.8-.47.38-.56.88-.4 2.13.16 1.13.1 1.7-.18 1.7-.56 0-2.56 2.2-2.86 3.15-.3.9-.76.88-1.43-.07-.3-.42-1-1.1-1.56-1.52l-1-.82-1.15.98c-.94.8-1.34.9-2.1.6-1.04-.38-1.64-1.4-1.05-1.77.2-.13.36-.5.36-.8 0-.48-.37-.57-1.82-.47-1.65.12-1.86.04-1.98-.74-.06-.48-.17-.88-.26-.88-.17 0-2.22.86-2.46 1.04-.1.07.12.35.5.62.48.36.57.77.37 1.75-.13.7-.5 1.4-.8 1.52-.64.24-1.82-1.27-1.88-2.4-.02-.43-.07-1.36-.1-2.05-.03-.78-.25-1.27-.58-1.27-.3 0-1 .7-1.56 1.56-.57.86-1.45 1.75-1.98 1.95-.65.24-.97.63-.97 1.3 0 .5-.12 1.04-.3 1.15-.53.34-2-.92-2-1.72 0-.4-.1-.77-.23-.77s-.72.36-1.3.77c-.64.46-1.37.66-1.88.52-.46-.12-.88-.32-.9-.45-.8-3.96-.82-4.7-.2-4.7.32 0 .95.47 1.4 1.03l.8 1v-1.16c0-1.32.8-2.16 1.82-1.95.52.1.66.47.58 1.4-.1 1.33.28 1.6 1.04.68.36-.44.38-.9.03-1.95-.25-.75-.34-1.7-.2-2.14.32-1-.55-1.34-2.44-.9-1.08.26-1.46.6-1.55 1.23-.06.48-.54 1.16-1.06 1.5-.72.47-1.26.52-2.18.26-.67-.2-1.26-.52-1.33-.73-.26-.84.66-1.54 2.08-1.55h1.47l.2-2.02c.1-1.17.48-2.3.87-2.7.63-.62.7-.62 1.14.56.54 1.44 1.7 1.78 1.33.4-.23-.9.58-3.57 1.66-5.4.34-.56 1.52-1.82 2.63-2.82 1.47-1.33 2.6-1.97 4.24-2.4 1.82-.48 3.2-.73 4.32-.78zm7.15 15.37c-.1-.02-.2 0-.36.04-.5.1-.83.6-1 1.68-.15.85-.07 1.84.12 2.2.5.96 1.1.85 1.1-.2 0-.46.1-1.5.23-2.32.16-1 .17-1.34-.1-1.4zm4.47 4.25c-.13 0-.25.1-.42.25-.24.24-.32.7-.2 1.04.14.33.4.6.62.6.63 0 .95-1.15.46-1.65-.16-.16-.32-.26-.46-.26zm-19.82 5.77c.6 0 .9.2.8.5-.17.53-1.53.82-1.94.4-.45-.45.13-.9 1.15-.9zm14.44.78c.2 0 .38.14.38.36 0 .22-.18.4-.4.4-.2 0-.38-.18-.38-.4 0-.2.17-.35.4-.35zm4.5.26c.2 0 .48.08.9.24 1.05.4 1.56 1.02.85 1.03-.16 0-.65.1-1.1.23-.83.22-1.34-.37-1.04-1.23.07-.17.2-.26.4-.26zm-14.05.5c.14 0 0 .53-.33 1.16-.62 1.2-1.36 1.56-1.36.65 0-.5 1.2-1.8 1.7-1.8zm10.58 8.37c.3-.03.62 0 .9.06 1.4.36 1.4 1.8-.03 2.47-1.36.63-2 .62-2.27-.07-.32-.83-.04-1.83.65-2.27.17-.1.45-.17.75-.2z"/><path fill="url(#d)" d="M31.15 48.67l.1-3.05c.07-2.68.18-3.24 1.1-4.45.6-.76 1.24-1.4 1.43-1.4.2 0 .54.36.78.82l1.3.12c.44-.33 1.64-.56 2.9-.56 1.6 0 2.32-.2 2.9-.77.44-.44 1.3-1.15 1.9-1.64.92-.75 1.07-1.2 1.2-3.3.08-1.54.34-2.68.74-3.12.34-.38.64-1.2.65-1.82 0-.62.24-1.84.55-2.7.3-.84.57-2.14.58-2.88.03-2.3-4.1-9.43-7.14-12.36-.77-.75-1.93-2.37-2.6-3.6-1.3-2.48-4.03-4.84-7.9-6.9C27.57.02 27.16-.07 24.5.1c-4.2.28-7.33 1.1-9.83 2.6-1.2.74-3.28 2.53-4.58 4-1.3 1.46-3.22 3.53-4.26 4.6-1.04 1.07-2.35 2.67-2.92 3.54-1.4 2.16-2.4 4.8-2.4 6.36 0 2.2 1.27 5.1 2.86 6.65.9.88 1.3 1.53 1.03 1.7-.22.13-.37.68-.37 1.2 0 .64.33 1.1 1.13 1.52.64.33 1.17.83 1.17 1.13 0 .3.2.68.42.8.8.5 4.8.87 5.26.5.26-.2 1.03-.3 1.73-.23.92.1 1.3.33 1.46.94.22.93 1.98 2.46 2.8 2.46.3 0 .74-.2 1-.45.53-.54 1.64-.14 1.64.6 0 .3-.35.63-.78.74-1.04.27-1 1.26.16 2.63.53.62 1.1 1.76 1.24 2.53.2 1.07.1 1.48-.4 1.75-.4.22-.6.85-.6 1.7v1.32l5.05-.26c.37-.35.47-.35.47 0 0 .6 2.02.6 2.63 0 .36-.35.45-.35.45 0l2.3.27zM25.3 1.03c1.87.04 4.17.88 4.5 1.72.18.5.02.56-.85.36-.6-.14-1.88-.36-2.9-.48-1.7-.2-1.84-.17-1.84.62 0 .46-.12.77-.28.68-.16-.1-1.27-.04-2.5.16-1.52.24-2.48.22-3.02-.07-.58-.3-.97-.28-1.46.08-.36.27-.2.03.36-.55 1-1.08 3.9-2.08 7.23-2.47.24-.03.52-.04.78-.03zM12.96 9.2c.06-.02 0 .25-.07.8-.22 1.47.54 3.33 1.37 3.33.36 0 .74-.18.87-.4.14-.2.75-.38 1.37-.38.7 0 1.28.28 1.54.78.23.42.75.78 1.17.78.94 0 3.1-1.52 3.1-2.17 0-.86 1.2-1.45 2.82-1.4 1.22.05 1.83.32 2.5 1.08.48.56 1.37 1.17 1.94 1.34l1.04.3-1.07.4c-.6.26-1.15.84-1.3 1.4-.13.54-.4.88-.6.75-.22-.13-.45.12-.56.55-.2.73-.27.72-1.3.13-.9-.53-1.17-.53-1.7-.1-1.16.97-.52 2.72 1.02 2.72.4 0 1.5.8 2.45 1.76 1.78 1.78 2.82 2.13 3.57 1.23.3-.4.28-.67-.06-1.02-.38-.37-.3-.4.22-.2.53.2.68.03.7-.67 0-.5.08-1.57.2-2.4.26-1.5.3-1.5-.83-1.23l-1.14.26 1.44-1.36c1.28-1.2 1.5-1.3 2.37-.88.63.3 1.07.87 1.2 1.65.26 1.3 1.76 3.07 1.76 2.04 0-.32-.16-.76-.4-.98-.2-.23-.45-.95-.54-1.62-.1-.88 0-1.2.4-1.2.3 0 .54.22.54.5 0 .3.8.93 1.76 1.38 1.85.87 2.23 1.85 1.1 2.8-.47.38-.56.88-.4 2.13.16 1.13.1 1.7-.18 1.7-.56 0-2.56 2.2-2.86 3.15-.3.9-.76.88-1.43-.07-.3-.42-1-1.1-1.56-1.52l-1-.82-1.15.98c-.94.8-1.34.9-2.1.6-1.04-.38-1.64-1.4-1.05-1.77.2-.13.36-.5.36-.8 0-.48-.37-.57-1.82-.47-1.65.12-1.86.04-1.98-.74-.06-.48-.17-.88-.26-.88-.17 0-2.22.86-2.46 1.04-.1.07.12.35.5.62.48.36.57.77.37 1.75-.13.7-.5 1.4-.8 1.52-.64.24-1.82-1.27-1.88-2.4-.02-.43-.07-1.36-.1-2.05-.03-.78-.25-1.27-.58-1.27-.3 0-1 .7-1.56 1.56-.57.86-1.45 1.75-1.98 1.95-.65.24-.97.63-.97 1.3 0 .5-.12 1.04-.3 1.15-.53.34-2-.92-2-1.72 0-.4-.1-.77-.23-.77s-.72.36-1.3.77c-.64.46-1.37.66-1.88.52-.46-.12-.88-.32-.9-.45-.8-3.96-.82-4.7-.2-4.7.32 0 .95.47 1.4 1.03l.8 1v-1.16c0-1.32.8-2.16 1.82-1.95.52.1.66.47.58 1.4-.1 1.33.28 1.6 1.04.68.36-.44.38-.9.03-1.95-.25-.75-.34-1.7-.2-2.14.32-1-.55-1.34-2.44-.9-1.08.26-1.46.6-1.55 1.23-.06.48-.54 1.16-1.06 1.5-.72.47-1.26.52-2.18.26-.67-.2-1.26-.52-1.33-.73-.26-.84.66-1.54 2.08-1.55h1.47l.2-2.02c.1-1.17.48-2.3.87-2.7.63-.62.7-.62 1.14.56.55 1.48 1.7 1.76 1.33.33-.12-.53.03-1.5.36-2.22.3-.63.43-.95.5-.97zm23.62 11.5c-.13 0-.25.1-.42.25-.24.24-.32.7-.2 1.04.14.33.4.6.62.6.63 0 .95-1.15.46-1.65-.16-.16-.32-.26-.46-.26zm-19.82 5.77c.6 0 .9.2.8.5-.17.53-1.53.82-1.94.4-.45-.45.13-.9 1.15-.9zm14.44.78c.2 0 .38.14.38.36 0 .22-.18.4-.4.4-.2 0-.38-.18-.38-.4 0-.2.17-.35.4-.35zm4.5.26c.2 0 .48.08.9.24 1.05.4 1.56 1.02.85 1.03-.16 0-.65.1-1.1.23-.83.22-1.34-.37-1.04-1.23.07-.17.2-.26.4-.26zm-14.05.5c.14 0 0 .53-.33 1.16-.62 1.2-1.36 1.56-1.36.65 0-.5 1.2-1.8 1.7-1.8zm10.58 8.37c.3-.03.62 0 .9.06 1.4.36 1.4 1.8-.03 2.47-1.36.63-2 .62-2.27-.07-.32-.83-.04-1.83.65-2.27.17-.1.45-.17.75-.2z"/><path fill="#985b3a" d="M26.12.22c-.44 0-.95.02-1.62.06-4.2.27-7.33 1.1-9.83 2.6-1.2.73-3.28 2.53-4.58 4-1.3 1.45-3.22 3.53-4.26 4.6C4.8 12.55 3.5 14.14 2.92 15c-1.4 2.17-2.4 4.8-2.4 6.38 0 2.18 1.27 5.1 2.86 6.65.9.88 1.3 1.53 1.03 1.7-.22.13-.37.67-.37 1.2 0 .63.33 1.1 1.13 1.5.64.34 1.17.85 1.17 1.15 0 .3.2.67.42.8.8.5 4.8.87 5.26.5.26-.2 1.03-.3 1.73-.23.92.1 1.3.33 1.46.94.22.92 1.98 2.46 2.8 2.46.3 0 .74-.22 1-.46.53-.54 1.64-.15 1.64.6 0 .3-.35.62-.78.73-1.04.27-1 1.26.16 2.63.53.62 1.1 1.77 1.24 2.53.2 1.07.1 1.47-.4 1.74-.4.22-.6.86-.6 1.7v1.32l4.3.03.5-.88.45-.88.4.88c.42.94 1.74 1.14 2.5.4.36-.37.58-.37.94 0 .13.12.8.2 1.8.28l.1-2.9c.08-2.66.2-3.23 1.12-4.43.58-.77 1.23-1.4 1.42-1.4.2 0 .54.4.78.84l1.3.1c.44-.32 1.64-.54 2.9-.54 1.6 0 2.32-.17 2.9-.75.44-.4 1.3-1.16 1.9-1.64.92-.76 1.07-1.2 1.2-3.3.08-1.55.34-2.7.74-3.13.34-.38.64-1.2.65-1.8 0-.64.24-1.86.55-2.7.3-.86.57-2.15.58-2.9.03-2.3-4.1-9.43-7.14-12.36-.77-.74-1.93-2.36-2.6-3.6-1.3-2.48-4.03-4.83-7.9-6.88C28.08.47 27.45.2 26.1.2zm-1.5.4c1.18-.1 2.2.2 3.52.83 1.8.86 6.4 4.77 6.03 5.13-.28.28-1.84-.48-3.57-1.75-1.76-1.3-4.1-2.17-5-1.82-.33.14-.6.56-.6.95 0 .38-.26 1.08-.6 1.56-.44.64-.85.8-1.52.62-.63-.16-1.17.04-1.75.62-1.08 1.08-.78 2.07.48 1.6.62-.24 1.22-.17 1.86.18.53.3 1.28.52 1.66.52.38 0 1.32.32 2.1.7.8.35 1.97.75 2.6.86.88.16 1.23.5 1.5 1.43.28 1 .6 1.24 1.75 1.43.77.13 1.95.25 2.63.26.83 0 1.46.3 1.95.9.4.5 1.28 1.2 1.97 1.56.7.36 1.43 1.1 1.63 1.63.2.53.74 1.08 1.23 1.27.5.2 1.1.6 1.33.88.82 1 .98 2.9.37 4.38-.63 1.5-1.4 1.53-1.4.06 0-.84-.65-1.8-1.2-1.8-.14 0-.36.5-.5 1.14-.24 1.26-1.14 1.57-1.54.52-.2-.53-.48-.4-1.6.78-.73.78-1.36 1.6-1.36 1.8 0 .2.36.47.78.6 1.53.5.6 2.1-1.2 2.1-.7 0-1.13-.24-1.3-.77-.13-.42-.5-.77-.8-.77-.68 0-.73.48-.1 1.1.34.35.36.58.03.9-.33.34-.78.3-1.8-.2-.72-.34-1.5-.64-1.7-.64-.23 0-.46-.4-.53-.87-.1-.7-.36-.85-1.2-.8-.97.08-1.04-.03-1.04-1.26 0-.88-.22-1.43-.63-1.6-.38-.13-.76.02-.98.4-.5.86-.96.8-1.2-.13-.12-.4-.47-.77-.75-.77-.55 0-1.54 2.37-1.53 3.64 0 .4-.35 1.25-.78 1.85-.8 1.13-1.62 1.35-2.63.7-.46-.3-.36-.56.73-1.68l1.3-1.36-.98-1.7-1-1.67-1.85.23c-1.54.18-1.9.34-1.9.98 0 .54.32.82 1 .92.52.07 1.15.3 1.4.52.38.3.26.7-.5 1.72-1.08 1.4-1.7 1.67-1.7.7 0-.32-.58-.85-1.32-1.16-.74-.3-1.65-1.04-2-1.62-.38-.6-.75-1.16-.83-1.27-.08-.1-.33.14-.55.53-.3.53-.62.65-1.4.46-1.3-.34-2.4-1.3-2.4-2.16 0-1.2-.43-1.9-1.2-1.9-.4 0-.8-.23-.87-.5-.07-.26-.3-1.05-.52-1.72-.28-.9-.24-1.74.14-3.2.62-2.4 1.2-3.2 2.14-2.96.47.12 1-.33 1.72-1.43 1.25-1.88 3.36-4.25 6.52-7.3 1.56-1.5 2.86-2.4 3.9-2.66.85-.22 2.32-.64 3.28-.94.9-.3 1.63-.48 2.33-.52zM11.93 16.8c-.22 0-.53.18-.66.4-.13.2-.05.38.16.38.22 0 .5-.18.62-.4.13-.2.08-.38-.13-.38zm12.65 0c-1.07 0-.82 1.3.3 1.46.45.07 1.03.38 1.3.68.24.3.68.55.93.55.7 0 1.36-.83 1.36-1.66 0-.63-.17-.7-1.3-.5-.76.16-1.44.08-1.6-.15-.12-.23-.56-.4-1-.4zm18.17 12.04c.3-.1.45.07.36.36-.1.28-.4.58-.68.68-.3.1-.46-.07-.36-.36.1-.28.4-.6.68-.68zm-10.5 7.72c.28-.02.6 0 .9.07 1.4.35 1.38 1.8-.04 2.46-1.36.63-2 .6-2.27-.07-.32-.84-.04-1.8.65-2.24.17-.12.45-.2.75-.24z"/><path fill="#6a4a37" d="M25.93.5c-.45 0-.96.03-1.62.07-4.2.27-7.33 1.12-9.83 2.63-1.2.73-3.27 2.53-4.57 4-1.3 1.46-3.2 3.5-4.25 4.57-1.04 1.07-2.36 2.67-2.92 3.54-1.4 2.17-2.4 4.8-2.4 6.37 0 2.2 1.26 5.1 2.85 6.65.9.88 1.3 1.53 1.04 1.7-.23.13-.42.67-.42 1.2 0 .63.36 1.1 1.17 1.5.63.34 1.16.85 1.16 1.15 0 .3.2.67.43.8.8.5 4.8.87 5.25.5.27-.2 1.04-.3 1.73-.23.93.1 1.3.33 1.46.94.23.93 1.98 2.47 2.82 2.47.3 0 .73-.22.97-.46.54-.55 1.65-.16 1.65.58 0 .3-.36.63-.78.74-1.04.28-1 1.3.16 2.66.52.63 1.1 1.74 1.23 2.5.2 1.08.1 1.48-.4 1.76-.38.22-.6.85-.6 1.68v.9l4.67-.02.13-.94c.17-1.15.34-1.34.88-1 .22.13.42.64.42 1.16 0 .74.2.97.94.97.6 0 1-.3 1.17-.78.13-.43.43-.78.65-.78.2 0 .5.35.6.78.1.36.23.54 1.44.64l.06-2.66c.07-2.67.22-3.23 1.14-4.44.58-.76 1.23-1.4 1.43-1.4.18 0 .53.4.77.85l1.3.1c.44-.32 1.63-.55 2.88-.55 1.6 0 2.33-.17 2.92-.74.44-.42 1.3-1.17 1.9-1.65.9-.76 1.07-1.2 1.2-3.3.07-1.55.34-2.7.73-3.13.35-.38.65-1.2.65-1.8 0-.63.25-1.86.55-2.7.3-.86.58-2.15.6-2.9 0-2.3-4.1-9.42-7.15-12.36-.77-.74-1.93-2.36-2.6-3.6-1.32-2.47-4.03-4.83-7.92-6.88C27.9.78 27.27.5 25.93.5zm-.1.14c1.03 0 1.73.25 2.9.84 2.33 1.2 7.5 5.5 7.5 6.27 0 .93-3.42-.6-5.98-2.7-1.64-1.33-2.5-1.8-3.25-1.72-.74.1-1.1.45-1.36 1.3-.2.64-.47 1.4-.62 1.72-.53 1.17.03 1.93 2.08 2.7 1.13.42 3.4.9 5.03 1.03 2.9.27 2.95.28 4.02 1.85.8 1.2 1.3 1.57 1.98 1.5 1.07-.13 1.95.52 1.95 1.42 0 .36.92 1.44 2.08 2.44 3.2 2.76 3.67 5.3 1.55 8.5-.67 1.02-1.22 1.45-1.9 1.45-.72 0-.94-.23-.94-.84 0-.65-.2-.76-.88-.58-.47.12-1.1.02-1.4-.23-.42-.36-.65-.3-1.06.25-.66.9-.33 1.48.64 1.17 1-.3.97.6-.06 1.92-.6.77-1.14 1-2.24 1-.8 0-1.64.2-1.88.46-.33.33-.76.3-1.72-.07-2.6-.97-3.08-1.3-2.9-2 .22-.8-.13-.9-.77-.27-.72.7-1.27 0-1.27-1.62 0-.84-.14-1.53-.3-1.53-.38.02-1.26 1.93-1.26 2.77 0 .87-.67 1.27-1.98 1.17-.82-.06-1.22.2-1.76 1.14-.62 1.05-.88 1.16-2.05.97-2-.32-2.13-.98-.5-2.4 1.08-.94 1.3-1.35.98-1.7-.33-.33-.64-.34-1.23-.02-.9.47-2.9 3.24-3.3 4.54-.3.9-1.24 1.44-1.57.9-.1-.17.07-.54.4-.8.7-.6.72-2.44.02-3.02-.3-.24-1.03-.55-1.7-.68-.65-.13-1.3-.5-1.42-.78-.1-.3-.58-.53-1.07-.53-.82 0-3.53-1.25-4.3-1.98-.2-.2-.16-.57.13-.92.6-.74.3-1.23-1-1.56-.58-.14-1.56-.8-2.18-1.46l-1.14-1.2 1.02-.74c.7-.52 1-1.08 1-1.95 0-1.47 1.12-3.4 2.53-4.38.57-.4 1.3-1 1.63-1.34 4.8-5.12 7.87-7.97 9.18-8.5 2.42-.98 4.84-1.6 7.2-1.8.45-.03.83-.03 1.17-.02zm8.4 11.52c-.4 0-.74.18-.74.4 0 .2.45.38 1 .38.56 0 .88-.17.74-.4-.13-.2-.6-.38-1-.38zm-9.6 4.67c-.1 0-.2.02-.3.1-.1.12-.12.48 0 .8.3.76 1.05.8 1.05.04 0-.46-.4-.9-.75-.94zm3 .75c-.87 0-1.6.66-1.3 1.13.14.26.58.4.93.34.77-.15 1.1-1.47.36-1.46zm14.36 5.78c-.5 0-.94 1.77-.6 2.33.3.45.98.38.98-.1 0-.17 0-.74 0-1.27s-.18-.97-.4-.97zm-25.6 1c-.27-.02-.53.27-.6.62-.08.45.3.74 1.34 1 .8.2 1.63.23 1.8.07.6-.53-.08-1.53-1.1-1.6-.53-.02-1.2-.07-1.45-.1zm7.75 1.92c-.25.03-.52.2-.62.5-.1.35.08.5.55.4.4-.07.67-.3.62-.5-.07-.3-.3-.43-.55-.4zm18.46 2.1c.8 0 1.1.77.56 1.4-.52.62-1.56.75-1.56.2 0-.8.52-1.6 1-1.6zm-30.17.78c.32 0 .58.25.58.56 0 .64-.53 1.1-.9.74-.46-.46-.25-1.3.33-1.3zm4.6 3.87c.1 0 .63.2 1.18.45.55.25.96.65.88.88-.16.5-1.55.74-1.94.35-.3-.3-.38-1.67-.1-1.67zm15.46 3.82c.14.02.3.07.44.1 1.4.36 1.38 1.8-.03 2.47-1.35.63-2 .6-2.26-.1-.33-.83-.05-1.8.64-2.24.26-.16.74-.26 1.2-.23z"/><path fill="#4a382e" d="M27 .57c3.15 1.15 8.1 4.6 9.48 6.88.47.8.87 1.56.87 1.72 0 .16-.26.3-.58.3-.52 0-.54.1-.03 1.07.35.68 1.05 1.26 1.85 1.5.9.25 1.82 1.1 3.3 3.04 1.12 1.48 2.73 4.07 3.57 5.74 1.4 2.84 1.47 3.14 1 4.25-.35.85-.7 1.17-1.26 1.1-.63-.06-.83.2-1 1.47-.26 1.97-1.17 3.4-2.4 3.7-.74.18-1.24 0-2-.78-.57-.56-1.2-.95-1.44-.88-.23.08-.66.6-.94 1.17l-.5 1.04-.7-.9c-.7-.86-.73-.87-1.95-.15-1.34.8-1.2.82-5.3-1.23-1.7-.87-2.1-.92-2.97-.52-.57.26-1.4.45-1.85.45-.46 0-1.28.5-1.82 1.14-.96 1.1-1.06 1.13-2.92.77-1.05-.2-2.16-.3-2.43-.2-.87.34-.5 1.27.6 1.5.57.12 1.38.48 1.8.8.77.6.8.6-.16 1.37-.52.42-1.15.77-1.38.78-.66 0-1.72-1.32-1.72-2.18 0-.63-.18-.72-1.14-.58-.8.12-1.23-.03-1.4-.45-.12-.33-.84-.95-1.58-1.4-1.17-.68-1.3-.93-1.1-1.87.28-1.32-.4-2-2.93-2.95-1.62-.6-1.9-.6-2.92-.07-.62.33-1.35.48-1.6.34-.68-.43-2-3.88-2-5.23 0-1.5 1-4.18 2.37-6.25C5.25 12.82 13.23 4.8 15.6 3.17c1.13-.76 2.77-1.48 3.68-1.62.83-.14 2.13-.46 3.05-.75-3.1.4-5.54 1.18-7.56 2.4-1.2.73-3.28 2.53-4.58 4-1.3 1.46-3.22 3.5-4.26 4.57-1.04 1.07-2.36 2.67-2.92 3.54-1.4 2.17-2.4 4.8-2.4 6.37 0 2.2 1.26 5.1 2.85 6.65.9.88 1.33 1.53 1.07 1.7-.23.13-.42.67-.42 1.2 0 .63.34 1.1 1.14 1.5.64.34 1.17.85 1.17 1.15 0 .3.2.67.42.8.8.5 4.8.87 5.26.5.26-.2 1.03-.3 1.73-.23.92.1 1.34.33 1.5.94.22.93 1.94 2.47 2.78 2.47.3 0 .74-.22.98-.46.55-.55 1.66-.16 1.66.58 0 .3-.36.63-.78.74-1.04.28-1 1.3.16 2.66.52.63 1.1 1.74 1.23 2.5.2 1.08.1 1.48-.38 1.76-.4.22-.62.85-.62 1.68v1.07h4.25v-1.34c0-.73.23-1.46.5-1.62.25-.16 1.17-.34 2.06-.4 1.5-.08 1.67 0 2.15 1.15.3.67.45 1.44.4 1.7-.04.17.48.26 1.55.33l.1-2.63c.07-2.67.18-3.23 1.1-4.44.58-.76 1.24-1.4 1.43-1.4.2 0 .54.4.78.85l1.33.1c.43-.32 1.6-.55 2.85-.55 1.6 0 2.32-.17 2.92-.74.43-.42 1.3-1.17 1.88-1.65.92-.76 1.08-1.2 1.2-3.3.1-1.55.35-2.7.75-3.13.34-.38.64-1.2.64-1.8 0-.63.25-1.86.56-2.7.3-.86.57-2.15.58-2.9.03-2.3-4.1-9.42-7.14-12.36-.77-.74-1.93-2.36-2.6-3.6-1.32-2.47-4.03-4.83-7.9-6.88-1.22-.64-1.88-.9-2.74-1zm.62 3.1c-.7 0-1.46 1.6-1.46 3.04 0 1.2.9 1.86 2.9 2.12 2.22.28 3.6.23 3.8-.1.28-.44-4.52-5.06-5.24-5.06zm-21.2 23.9l1.27.13 1.26.1v2.82c0 3.1-.38 3.5-1.72 1.8-.57-.73-.8-1.6-.8-2.93v-1.93zm7.9 1.76c-.05 0-.08 0-.14.03-.2.13-.4.58-.4 1 0 .43.2.7.4.56.22-.14.4-.58.4-1 0-.33-.13-.56-.27-.6zm10.18 1.5c.25 0 .57.24.8.6.32.47.9.82 1.3.82.42 0 .68.17.56.35-.33.54-2.14.4-2.76-.22-.67-.68-.73-1.15-.12-1.53.06-.04.14-.04.22-.03zM42 33.8c.82 0 1.68.96 1.45 1.63-.22.68-2.63.74-2.88.06-.27-.7.56-1.7 1.42-1.7zm-9.22 3.05c.15.02.3.07.45.1 1.4.36 1.4 1.8-.03 2.47-1.36.63-2 .6-2.27-.1-.32-.83-.05-1.8.65-2.24.25-.16.74-.26 1.2-.23zm-5.42 9.68c-.27-.03-.76.66-1 1.5-.23.73-.12.86.74.86.9 0 .97-.13.74-1.08-.14-.58-.3-1.14-.38-1.23-.03-.04-.06-.07-.1-.07z"/><path fill="#2e2b29" d="M26.25.22c-.14 0-.36.02-.5.03.9.06 1.8.26 2.58.62 2.17.98 5.58 3.3 7.24 4.96.8.8 1.7 2.3 2.08 3.3.43 1.25 1.15 2.22 2.1 2.93 1.52 1.14 4.5 5.42 6.3 9.06.9 1.83 1.03 2.47.8 3.92-.13.96-.5 1.95-.8 2.2-.3.27-.58 1.04-.58 1.73 0 .7-.27 1.5-.65 1.82-1.06.88-3.8 1.58-5.13 1.32-1.26-.25-3.18.54-4.46 1.8-.36.37-.98.66-1.4.66-.5 0-.73-.28-.74-.87 0-.66-.72-1.3-3.08-2.72-2.57-1.56-3.2-1.78-3.86-1.43-.44.23-.78.53-.78.68 0 .7.67 1.15 1.56 1.1.82-.03.94.12.94 1.1 0 1-.14 1.2-1.14 1.3-.64.08-1.36.32-1.62.53-.6.5-1.4.03-1.14-.65.34-.86-.6-1.25-3.34-1.4-2.73-.12-2.76-.06-.3 1.3.68.38 1.17.92 1.08 1.18-.1.26-.77.6-1.5.78-.72.18-1.65.42-2.07.52-1 .23-1.6-.2-2.1-1.5-.3-.76-.67-1.07-1.37-1.07-.62 0-1.56-.57-2.57-1.54-.86-.85-1.74-1.53-1.93-1.53-.2 0-.33.82-.26 1.82.1 1.48 0 1.83-.54 1.95-.4.08-1.14-.36-1.8-1.07-1.2-1.32-1.83-3.8-1.38-5.55.28-1.14-.06-1.3-1-.43-.37.33-.9.5-1.24.36-.87-.32-2.3-3.52-2.5-5.57-.2-1.96.67-4.37 2.6-7.17.64-.94 3.3-3.83 5.9-6.46 3.3-3.35 5.34-5.08 6.8-5.8 1.17-.58 2.5-1.05 2.97-1.05.47 0 1.6-.26 2.5-.58.48-.17.95-.3 1.43-.4-3.58.36-6.32 1.2-8.56 2.54-1.2.74-3.28 2.54-4.58 4-1.3 1.46-3.22 3.54-4.26 4.6C4.9 12.6 3.58 14.15 3.02 15 1.62 17.18.65 19.8.65 21.4c0 2.18 1.23 5.1 2.82 6.65.9.88 1.33 1.53 1.07 1.7-.23.13-.42.67-.42 1.2 0 .63.37 1.1 1.17 1.5.63.34 1.13.88 1.13 1.18 0 .3.2.65.42.8.8.48 4.8.88 5.26.5.26-.2 1.03-.32 1.73-.25.92.1 1.34.36 1.5.97.22.93 1.94 2.44 2.78 2.44.3 0 .74-.2.98-.43.55-.54 1.66-.18 1.66.56 0 .3-.36.62-.78.73-1.04.27-.96 1.3.2 2.66.52.6 1.05 1.76 1.2 2.52.2 1.08.13 1.45-.36 1.72-.4.22-.65.86-.65 1.7v1.35h3.86L24 47.8c-.16-.84.05-1.37.88-2.3.8-.92 1.4-1.25 2.3-1.25.68 0 1.6.3 2.08.7.63.5.88 1.15.9 2.32l.07 1.62h1.08l.07-3.1c.07-2.66.2-3.23 1.14-4.43.57-.77 1.2-1.37 1.38-1.37.2 0 .57.36.8.8l1.3.14c.45-.32 1.65-.55 2.9-.55 1.6 0 2.33-.2 2.92-.8.43-.4 1.26-1.16 1.85-1.64.92-.76 1.08-1.2 1.2-3.3.1-1.55.38-2.7.78-3.13.34-.38.6-1.2.6-1.8.02-.64.3-1.83.6-2.68.3-.85.54-2.17.55-2.92.03-2.3-4.06-9.43-7.1-12.36-.78-.74-1.97-2.36-2.63-3.6-1.33-2.48-4.04-4.83-7.92-6.88C28.2.47 27.6.2 26.25.2zm1.63 6.13c-.6 0-.74.46-.3.9.45.45.88.3.88-.32 0-.3-.26-.58-.58-.58zm6.97 24.76c-.6 0-.76.45-.32.9.3.3.9-.04.9-.53 0-.2-.26-.36-.58-.36zm7.73 1.93c1.12 0 1.3.15 1.5 1.4.1.75.1 1.6 0 1.87-.15.37-.97.5-2.87.46-2.3-.05-2.66-.14-2.84-.8-.4-1.52-.25-1.86.75-1.67.63.1 1.17-.1 1.6-.56.37-.42 1.16-.7 1.88-.7zM32.32 36.6c.3-.03.63 0 .9.06 1.42.35 1.43 1.8 0 2.47-1.35.63-2.03.62-2.3-.07-.3-.83 0-1.83.7-2.27.16-.12.4-.18.7-.2zM27.4 48.12c-.2 0-.48.14-.85.38-.47.3-.4.36.3.36.47 0 .86-.14.86-.36 0-.24-.1-.38-.3-.38z"/></g></svg>