<svg xmlns="http://www.w3.org/2000/svg" width="50pt" height="50pt" viewBox="0 0 50 50"><g stroke="#000"><path id="Path_4" fill="#fff" d="M21 38h27V11H21z"/><path id="Path_6" fill="#fff" d="M15 20l4.5 4.5L15 29z"/><path id="Path_4" d="M25.5 15.5h3v3h-3z"/><path d="M33 15.5h3v3h-3z"/><path d="M40.5 15.5h3v3h-3z"/><path d="M25.5 23h3v3h-3z"/><path d="M33 23h3v3h-3z"/><path d="M40.5 23h3v3h-3z"/><path d="M25.5 30.5h3v3h-3z"/><path d="M33 30.5h3v3h-3z"/><path d="M40.5 30.5h3v3h-3z"/><path fill="#fff" d="M3.13 47.5h9.37v-45H3.12z"/><path d="M6.25 7.5h3.13v5H6.25z"/><path d="M6.25 17.5h3.13v5H6.25z"/><path d="M6.25 27.5h3.13v5H6.25zM6.25 37.5h3.13v5H6.25z"/></g></svg>