<svg xmlns="http://www.w3.org/2000/svg" width="50pt" height="50pt" viewBox="0 0 50 50"><g stroke="#000"><path id="Path_0" fill="none" d="M21 4.8L8.5 43.55"/><path id="Path_1" fill="none" d="M8.4 30.55l5.4 2.5 3.4.2 4-2.6-.2-3.35-2.5-3.75-3.8-2-2.9-.5"/><path id="Path_2" fill="none" d="M8.4 30.55l-1.5-3.4.1-2.6 1.9-2.6 2.9-.9"/><path fill="none" d="M22.2 11.15L21 4.8l-5 5"/><path id="Path_4" fill="none" d="M17.7 25.25L21 27.3l-.7-3.85"/><path fill="none" d="M5 45.35l3.5-1.8 1.3 3.9"/><path fill="#fff" d="M27.9 19.7l4.5 4.5-4.5 4.5z"/><path fill="#fff" d="M37.1 47.4h10.52v-45H37.1z"/><path d="M40.6 7.4h3.52v5H40.6z"/><path d="M40.6 17.4h3.52v5H40.6z"/><path d="M40.6 27.4h3.52v5H40.6zM40.6 37.4h3.52v5H40.6z"/></g></svg>