<svg xmlns="http://www.w3.org/2000/svg" width="48" height="48"><g><g><path fill="#fff" fill-rule="evenodd" d="M47.88 21.96a10 10 0 1 1-19.97 0 10 10 0 1 1 19.98 0z" overflow="visible" enable-background="accumulate"/><path fill="none" stroke="#000" stroke-width="3.68.37" d="M44.73 21.97a6.84 6.85 0 1 1-13.68 0 6.84 6.85 0 1 1 13.68 0z" overflow="visible" enable-background="accumulate"/></g><g fill="none"><g fill-rule="evenodd" stroke="#fff" stroke-width="10.304" stroke-linecap="square"><path d="M2.26 15.74c6.16-4.24 11.76 6.26 19 0"/><path d="M7.17 15.98v13.1" overflow="visible" enable-background="accumulate"/><path d="M16.18 18.8v10.4" overflow="visible" enable-background="accumulate"/></g><g stroke="#000" stroke-width="5.152"><path d="M2.26 15.74c6.16-4.24 11.76 6.26 19 0"/><path d="M7.17 16.17v12.9" overflow="visible" enable-background="accumulate"/><path d="M16.18 18.8V29" overflow="visible" enable-background="accumulate"/></g></g><path fill-rule="evenodd" stroke="#fff" stroke-width="1.00203" d="M21.15 16.27l9.86 5.7-9.84 5.67V16.27z" overflow="visible" enable-background="accumulate"/></g></svg>