<svg xmlns="http://www.w3.org/2000/svg" width="50pt" height="50pt" viewBox="0 0 50 50"><path d="M2.5 5H5v40H2.5z"/><path fill="#505450" d="M5 5h2.5v40H5z"/><path fill="#7c7e7c" d="M7.5 5H10v40H7.5z"/><path fill="#a8a8a8" d="M10 5h2.5v40H10z"/><path fill="#d0d2d0" d="M12.5 5H15v40h-2.5z"/><path fill="#f8fcf8" d="M15 5h2.5v40H15z"/><path d="M17.5 5H20v40h-2.5z"/><path fill="#505450" d="M20 5h2.5v40H20z"/><path fill="#7c7e7c" d="M22.5 5H25v40h-2.5z"/><path fill="#a8a8a8" d="M25 5h2.5v40H25z"/><path fill="#d0d2d0" d="M27.5 5H30v40h-2.5z"/><path fill="#f8fcf8" d="M30 5h2.5v40H30z"/><path d="M32.5 5H35v40h-2.5z"/><path fill="#505450" d="M35 5h2.5v40H35z"/><path fill="#7c7e7c" d="M37.5 5H40v40h-2.5z"/><path fill="#a8a8a8" d="M40 5h2.5v40H40z"/><path fill="#d0d2d0" d="M42.5 5H45v40h-2.5z"/><path fill="#f8fcf8" d="M45 5h2.5v40H45z"/></svg>