<svg xmlns="http://www.w3.org/2000/svg" width="48" height="48" xmlns:xlink="http://www.w3.org/1999/xlink"><defs><linearGradient id="b"><stop offset="0" stop-color="#fff"/><stop offset=".624" stop-color="#fff"/><stop offset=".914" stop-color="#ffda3b"/><stop offset="1" stop-color="#d7ad00"/></linearGradient><linearGradient id="a"><stop offset="0" stop-color="#fff"/><stop offset="1" stop-color="#fcce1b"/></linearGradient><radialGradient id="e" cx="44.607" cy="-2.206" r="23.134" xlink:href="#a" fx="44.607" fy="-2.206" gradientTransform="matrix(.187 -1.432 1.406 .184 19.911 103.308)" gradientUnits="userSpaceOnUse"/><radialGradient id="d" cx="23.365" cy="37.111" r="14.73" xlink:href="#b" fx="23.365" fy="37.111" gradientTransform="matrix(1 0 0 .321 0 25.194)" gradientUnits="userSpaceOnUse"/><radialGradient id="c" cx="23.365" cy="37.111" r="14.73" xlink:href="#b" gradientUnits="userSpaceOnUse" gradientTransform="matrix(1 0 0 .321 0 25.194)" fx="23.365" fy="37.111"/></defs><g fill-rule="evenodd"><path fill="url(#c)" d="M38.1 37.1a14.73 4.73 0 1 1-29.47 0 14.73 4.73 0 1 1 29.47 0z" transform="matrix(1.483 0 0 1.483 -8.613 -14.043)" overflow="visible" enable-background="accumulate"/><path fill="url(#d)" d="M38.1 37.1a14.73 4.73 0 1 1-29.47 0 14.73 4.73 0 1 1 29.47 0z" transform="matrix(.845 0 0 .845 6.292 9.314)" overflow="visible" enable-background="accumulate"/><path fill="url(#e)" stroke="#8b6f00" d="M.65.5L13.7 28.05l-6.38 4.4 18.4 7.38-.68-19.9-5.9 4.12L.63.5z"/></g></svg>