<svg xmlns="http://www.w3.org/2000/svg" width="48" height="48" xmlns:xlink="http://www.w3.org/1999/xlink"><defs><linearGradient id="b"><stop offset="0" stop-color="#fff"/><stop offset=".624" stop-color="#fff"/><stop offset=".914" stop-color="#ffda3b"/><stop offset="1" stop-color="#d7ad00"/></linearGradient><linearGradient id="a"><stop offset="0" stop-color="#fff"/><stop offset="1" stop-color="#fcce1b"/></linearGradient><radialGradient id="d" cx="44.607" cy="-2.206" r="23.134" xlink:href="#a" fx="44.607" fy="-2.206" gradientTransform="matrix(-1.339 .41 -.402 -1.314 103.687 -19.58)" gradientUnits="userSpaceOnUse"/><radialGradient id="c" cx="23.365" cy="37.111" r="14.73" xlink:href="#b" gradientUnits="userSpaceOnUse" gradientTransform="matrix(1 0 0 .321 0 25.194)" fx="23.365" fy="37.111"/></defs><g><path fill="url(#c)" fill-rule="evenodd" d="M38.1 37.1a14.73 4.73 0 1 1-29.47 0 14.73 4.73 0 1 1 29.47 0z" transform="matrix(1.483 0 0 1.483 -11.28 -17.916)" overflow="visible" enable-background="accumulate"/><path fill="url(#d)" fill-rule="evenodd" stroke="#8b6f00" d="M.44 5.05l20.52 31.52 4.66-.07 14.15-20.4 6.45 3.86-.88-19.2-17.27 8.6 6 3.55L23.4 29.83.44 5.05z"/><g stroke="#fff" font-size="24" font-weight="900" font-family="Myriad Pro Black Cond"><path d="M30.16 47.37c1.45 0 2.66-.7 3.63-2.12.96-1.42 1.47-3.63 1.5-6.63.02-1.2-.1-2.43-.33-3.74-.24-1.3-.73-2.42-1.47-3.35-.73-.93-1.83-1.4-3.3-1.45-1.88.08-3.24.98-4.07 2.7-.83 1.7-1.24 3.72-1.22 6.05 0 1.3.14 2.62.45 3.92.3 1.3.83 2.38 1.6 3.26.75.88 1.82 1.33 3.18 1.37h.03zm.02-3.43c-.45.03-.78-.36-.98-1.15-.2-.8-.3-2.16-.26-4.08 0-1.9.1-3.25.3-4.05.23-.8.55-1.2.97-1.17.43 0 .7.44.86 1.3.15.88.22 2.18.22 3.92 0 1.88-.08 3.22-.24 4.03-.16.8-.43 1.2-.83 1.2h-.02z" style="-inkscape-font-specification:Myriad Pro Black Cond Heavy"/><path d="M38.44 47.37c.68 0 1.23-.25 1.65-.7.4-.46.6-1.1.62-1.87-.02-.83-.24-1.46-.67-1.92-.43-.45-.96-.67-1.6-.68-.6 0-1.14.26-1.58.73-.44.48-.67 1.1-.7 1.87.02.78.25 1.4.67 1.87.43.45.95.7 1.57.7h.04z" style="-inkscape-font-specification:Myriad Pro Black Cond Heavy"/><path d="M43.4 47.16h3.97V30.28H43.8l-4 1.98.66 3.14 2.88-1.4h.05v13.16z" style="-inkscape-font-specification:Myriad Pro Black Cond Heavy"/></g></g></svg>