<svg xmlns="http://www.w3.org/2000/svg" width="48" height="48"><defs><marker orient="auto" overflow="visible"><path fill-rule="evenodd" stroke="#000" stroke-width=".8pt" d="M4.62 0L-2.3 4v-8l6.92 4z"/></marker><marker orient="auto" overflow="visible"><path fill-rule="evenodd" stroke="#000" stroke-width=".4pt" d="M2.3 0l-3.45 2v-4L2.3 0z"/></marker><marker orient="auto" overflow="visible"><path fill-rule="evenodd" d="M-5.23-2.42l6.55 2.4-6.55 2.42c1.05-1.42 1.04-3.37 0-4.82z" font-size="12"/></marker><marker orient="auto" overflow="visible"><path fill-rule="evenodd" d="M-10.7-4.44L1.34-.02-10.7 4.4c1.93-2.6 1.92-6.18 0-8.84z" font-size="12"/></marker></defs><g><path fill="#d3d7cf" fill-rule="evenodd" stroke="#2e3436" d="M10.33 32.36h28l9.32 8.5H.45l9.88-8.5z" overflow="visible" enable-background="accumulate"/><path fill="#eb1111" fill-opacity=".272" fill-rule="evenodd" stroke="#ef2929" d="M35.3 22.4L24.5 36.65h17.84c.2-5.38-2.97-11.54-7.04-14.27z" stroke-dasharray="1,1"/><path fill="#888a85" fill-rule="evenodd" stroke="#eeeeec" d="M24.4 6.55l-4.2 7.12h2.76v23.1h2.9v-23.1h3.02L24.4 6.55z"/><g fill-rule="evenodd"><path d="M4.8 10.53l-1.55 1.25 20.38 25.5.8 1 .8-1 19-24.78-1.57-1.22L24.4 35.06 4.8 10.53z"/><path stroke="#000" stroke-width=".4pt" d="M47.1 7.3l-1.28 9.76-7.8-6 9.1-3.76z"/></g><path fill="none" stroke="#ef2929" d="M37.6 19.47l-13.1 17.2h23.24"/></g></svg>