<svg xmlns="http://www.w3.org/2000/svg" width="48" height="48"><defs><marker orient="auto" overflow="visible"><path fill-rule="evenodd" stroke="#000" stroke-width=".8pt" d="M4.62 0L-2.3 4v-8l6.92 4z"/></marker><marker orient="auto" overflow="visible"><path fill-rule="evenodd" stroke="#000" stroke-width=".4pt" d="M2.3 0l-3.45 2v-4L2.3 0z"/></marker><marker orient="auto" overflow="visible"><path fill-rule="evenodd" d="M-5.23-2.42l6.55 2.4-6.55 2.42c1.05-1.42 1.04-3.37 0-4.82z" font-size="12"/></marker><marker orient="auto" overflow="visible"><path fill-rule="evenodd" d="M-10.7-4.44L1.34-.02-10.7 4.4c1.93-2.6 1.92-6.18 0-8.84z" font-size="12"/></marker></defs><g><path fill="#d3d7cf" fill-rule="evenodd" stroke="#2e3436" d="M10.33 20.02h28l9.32 8.5H.45l9.88-8.5z" overflow="visible" enable-background="accumulate"/><path fill="#888a85" fill-rule="evenodd" stroke="#eeeeec" d="M24.4.6l-4.2 7.13h2.76v16.7h2.9V7.72h3.02L24.4.6z"/><path fill="none" stroke="#000" stroke-width="2" d="M3.93 1.54l20.67 22.5-15 19.75"/><g><path fill-rule="evenodd" stroke="#000" stroke-width=".4pt" d="M7.1 47.6l1.28-9.75 7.82 6-9.1 3.75z"/></g><g stroke="#ef2929"><path fill="#eb1111" fill-opacity=".272" fill-rule="evenodd" d="M13.9 38.4l10.8-14.27-12-12.7C5.85 21.72 7.1 32.1 13.9 38.4z" stroke-dasharray="1, 1"/><path fill="none" d="M13.08 39.4l11.6-15.27-12.06-12.8"/></g></g></svg>