<svg xmlns="http://www.w3.org/2000/svg" width="48" height="48" xmlns:xlink="http://www.w3.org/1999/xlink"><defs><linearGradient id="a"><stop offset="0" stop-color="#fff"/><stop offset=".5" stop-color="#fff"/><stop offset="1" stop-color="#b1c6ce"/></linearGradient><radialGradient cx="25.643" cy="25.214" r="25.714" xlink:href="#a" fx="25.643" fy="25.214" gradientUnits="userSpaceOnUse"/><radialGradient id="b" cx="25.643" cy="25.214" r="25.714" xlink:href="#a" gradientUnits="userSpaceOnUse" fx="25.643" fy="25.214"/></defs><g><path fill="url(#b)" d="M49.86 25.2a24.2 24.2 0 1 1-48.43 0 24.2 24.2 0 1 1 48.43 0z" transform="matrix(.929 0 0 .929 .173 .571)" color="#000" overflow="visible" enable-background="accumulate"/><path fill="none" stroke="#204a87" stroke-width="2.79.229" d="M46.5 24a22.5 22.5 0 1 1-45 0 22.5 22.5 0 1 1 45 0z" color="#000" stroke-linecap="round" stroke-linejoin="round" overflow="visible" enable-background="accumulate"/><path d="M7.6 31.6c0-1.3.44-2.4 1.35-3.3.94-.96 2.06-1.43 3.36-1.43 1.33 0 2.45.47 3.36 1.42.94.9 1.4 2 1.4 3.3 0 1.32-.46 2.44-1.4 3.35-.94.94-2.06 1.4-3.35 1.4-1.32 0-2.44-.48-3.35-1.45-.9-.94-1.36-2.04-1.36-3.3" style="line-height:125%;-inkscape-font-specification:Baskerville" font-size="40" letter-spacing="0" word-spacing="0" font-family="Baskerville"/><path d="M28.1 20.37c-.27-1.84-.8-3.94-1.57-6.3-.38-1.12-.57-2-.57-2.62 0-1 .25-1.76.75-2.28.5-.54 1.05-.8 1.63-.8.64 0 1.24.25 1.8.77s.84 1.28.84 2.28c0 .6-.3 1.73-.87 3.37-.62 1.7-1 3.57-1.14 5.57 1.26-.86 2.6-2.1 4-3.75 1.8-2.1 3.32-3.15 4.56-3.15.64 0 1.2.2 1.65.63.47.4.7.95.7 1.65 0 1-.38 1.76-1.15 2.28-.74.52-1.92.93-3.54 1.23-2.08.4-4 1.02-5.74 1.87 1.02.54 2.52 1 4.48 1.35 2.5.46 4.1 1.03 4.83 1.7.75.67 1.12 1.42 1.12 2.26 0 .56-.22 1.06-.67 1.5-.44.42-1 .63-1.65.63-1.32 0-2.85-.97-4.6-2.9-1.68-1.87-3-3.13-4-3.8.17 2.1.65 4.18 1.45 6.22.42 1.08.63 1.9.63 2.5 0 .9-.25 1.63-.75 2.2-.48.6-1.06.88-1.74.88-.62 0-1.2-.27-1.74-.8-.52-.55-.78-1.3-.78-2.26 0-.56.2-1.42.63-2.6.78-2.23 1.26-4.28 1.44-6.14-1.47.92-3 2.38-4.58 4.38-1.24 1.56-2.45 2.34-3.63 2.34-.7 0-1.3-.2-1.8-.6-.5-.4-.73-.96-.73-1.68 0-1.86 1.63-3.05 4.9-3.57 2.66-.44 4.47-.98 5.43-1.62-1.82-.9-3.66-1.52-5.53-1.84-3.14-.57-4.7-1.73-4.7-3.5 0-.63.23-1.17.7-1.6.5-.45 1.07-.67 1.7-.67 1.17 0 2.5.87 4.02 2.6.6.73 1.2 1.35 1.73 1.87l2.46 2.37" style="line-height:125%;-inkscape-font-specification:Baskerville" font-size="40" letter-spacing="0" word-spacing="0" font-family="Baskerville"/></g></svg>