<svg xmlns="http://www.w3.org/2000/svg" width="48" height="48" xmlns:xlink="http://www.w3.org/1999/xlink"><defs><linearGradient id="b"><stop offset="0" stop-color="#e1e1e1"/><stop offset=".716" stop-color="#bababa"/><stop offset="1" stop-color="#757575"/></linearGradient><linearGradient x1="6.758" x2="10.429" y1="32.271" y2="35.906" xlink:href="#a" gradientUnits="userSpaceOnUse"/><linearGradient id="a"><stop offset="0" stop-color="#bcbcbc"/><stop offset="1" stop-color="#272727"/></linearGradient><radialGradient id="c" cx="7.682" cy="33.308" r="2.371" xlink:href="#b" fx="7.682" fy="33.308" gradientUnits="userSpaceOnUse" gradientTransform="matrix(1.177 .02 -.02 1.177 -.681 -6.041)"/><linearGradient id="d" x1="6.758" x2="10.429" y1="32.271" y2="35.906" xlink:href="#a" gradientUnits="userSpaceOnUse"/></defs><g><path fill="url(#c)" fill-rule="evenodd" stroke="url(#d)" stroke-width=".163" d="M10.86 34a2.3 2.3 0 1 1-4.57 0 2.3 2.3 0 1 1 4.56 0z" transform="matrix(6.115 0 0 6.138 -37.845 -193.934)" color="#000" stroke-linejoin="round" overflow="visible"/><path fill="none" stroke="#fff" stroke-opacity=".698" stroke-width=".207" d="M11.3 34a2.73 2.65 0 1 1-5.45 0 2.73 2.65 0 1 1 5.45 0z" transform="matrix(4.816 0 0 4.835 -26.706 -149.635)" color="#000" stroke-linejoin="round" overflow="visible"/><path fill-rule="evenodd" stroke="#fff" stroke-width="2" d="M14.73 26.47v8.98H46.9v-8.98z" overflow="visible" enable-background="accumulate"/></g></svg>