<svg xmlns="http://www.w3.org/2000/svg" width="48" height="48" xmlns:xlink="http://www.w3.org/1999/xlink"><defs><linearGradient id="d"><stop offset="0" stop-color="#0003ff"/><stop offset="1"/></linearGradient><linearGradient id="c"><stop offset="0" stop-color="#13ff00"/><stop offset="1"/></linearGradient><linearGradient id="b"><stop offset="0" stop-color="#f00"/><stop offset="1"/></linearGradient><linearGradient id="a"><stop offset="0" stop-color="#fff"/><stop offset="1" stop-color="#fff" stop-opacity="0"/></linearGradient><linearGradient><stop offset="0"/><stop offset="1" stop-color="#fff"/></linearGradient><radialGradient cx="270" cy="270" r="270" xlink:href="#a" gradientUnits="userSpaceOnUse" fx="270" fy="270"/><linearGradient x1="29.143" x2="29.143" y1="26.686" y2="47.259" xlink:href="#b" gradientUnits="userSpaceOnUse" gradientTransform="translate(0 -15.556)"/><linearGradient x1="29.143" x2="29.143" y1="26.686" y2="47.259" xlink:href="#c" gradientUnits="userSpaceOnUse" gradientTransform="translate(0 -15.556)"/><linearGradient x1="29.143" x2="29.143" y1="26.686" y2="47.259" xlink:href="#d" gradientUnits="userSpaceOnUse" gradientTransform="translate(0 -15.556)"/><linearGradient id="f" x1="29.143" x2="29.143" y1="26.686" y2="47.259" xlink:href="#b" gradientUnits="userSpaceOnUse" gradientTransform="translate(0 -15.556)"/><linearGradient id="g" x1="29.143" x2="29.143" y1="26.686" y2="47.259" xlink:href="#c" gradientUnits="userSpaceOnUse" gradientTransform="translate(0 -15.556)"/><linearGradient id="h" x1="29.143" x2="29.143" y1="26.686" y2="47.259" xlink:href="#d" gradientUnits="userSpaceOnUse" gradientTransform="translate(0 -15.556)"/><radialGradient id="e" cx="270" cy="270" r="270" xlink:href="#a" gradientUnits="userSpaceOnUse" fx="270" fy="270"/></defs><g><g><g fill-rule="evenodd"><path fill="#0247fe" d="M32.34 33.67c-2.15-.58-3.85-1.56-5.42-3.14l8.54-8.57-3.12 11.7z"/><path fill="#0391ce" d="M38.6 33.67c-2.16.57-4.12.57-6.26 0l3.12-11.7 3.13 11.7z"/><path fill="#66b032" d="M44 30.53c-1.56 1.58-3.26 2.56-5.4 3.14l-3.14-11.7L44 30.52z"/><path fill="#d0ea2b" d="M47.14 25.1c-.58 2.15-1.56 3.85-3.13 5.43l-8.54-8.57 11.68 3.14z"/><path fill="#fefe33" d="M47.14 18.82c.57 2.16.57 4.12 0 6.28l-11.68-3.14 11.68-3.14z"/><path fill="#fabc02" d="M44 13.4c1.58 1.57 2.56 3.27 3.14 5.42l-11.68 3.14L44 13.4z"/><path fill="#fb9902" d="M38.6 10.25c2.14.58 3.84 1.56 5.4 3.14l-8.54 8.56 3.13-11.7z"/><path fill="#fd5308" d="M32.34 10.25c2.14-.57 4.1-.57 6.25 0l-3.14 11.7-3.12-11.7z"/><path fill="#3d01a4" d="M26.92 30.53c-1.58-1.58-2.56-3.28-3.13-5.43l11.66-3.14-8.54 8.57z"/><path fill="#8601af" d="M23.8 25.1c-.6-2.16-.6-4.12 0-6.28l11.66 3.14L23.8 25.1z"/><path fill="#fe2712" d="M26.92 13.4c1.57-1.6 3.27-2.57 5.42-3.15l3.12 11.7-8.54-8.56z"/><path fill="#a7194b" d="M23.8 18.82c.56-2.15 1.54-3.85 3.12-5.43l8.54 8.56-11.67-3.14z"/></g><path fill="url(#e)" d="M540 270a270 270 0 1 1-540 0 270 270 0 1 1 540 0z" transform="matrix(.045 0 0 .045 23.393 9.91)" overflow="visible"/><path fill="none" stroke="#000" stroke-width="1.529" d="M37.17 21.7a18.33 18.33 0 1 1-36.66 0 18.33 18.33 0 1 1 36.67 0z" transform="matrix(.657 0 0 .651 23.154 7.548)" overflow="visible" enable-background="accumulate"/><path fill="none" stroke="#fff" stroke-opacity=".502" stroke-width="1.652" d="M37.17 21.7a18.33 18.33 0 1 1-36.66 0 18.33 18.33 0 1 1 36.67 0z" transform="matrix(.608 0 0 .603 24.075 8.599)" overflow="visible" enable-background="accumulate"/></g><g fill-rule="evenodd"><path stroke="#000" d="M.54 10.93H23v21.5H.54z" overflow="visible" enable-background="accumulate"/><path fill="url(#f)" d="M25.56 11.13h7.17V31.7h-7.17z" overflow="visible" enable-background="accumulate" transform="translate(-24.513 .202)"/><path fill="url(#g)" d="M32.63 11.13h7.17V31.7h-7.17z" overflow="visible" enable-background="accumulate" transform="translate(-24.513 .202)"/><path fill="url(#h)" d="M39.83 11.13H47V31.7h-7.17z" overflow="visible" enable-background="accumulate" transform="translate(-24.513 .202)"/></g><path fill-rule="evenodd" stroke="#fff" stroke-width="1.59.255" d="M19.07 14.53l12.38 7.16-12.38 7.14v-14.3z" overflow="visible" enable-background="accumulate"/></g></svg>