<svg xmlns="http://www.w3.org/2000/svg" width="48" height="48"><g fill-rule="evenodd"><path fill="#eeeeec" stroke="#000" stroke-width="2" d="M-5.27 53.9v-15h22.94V15.47h21.4v-21.3h15.47v59.8l-59.8-.07z"/><path fill="#ef2929" stroke="#a40000" d="M25.42 14.5l-5.65 4.24h3.9v2.23c-1.82.72-3.1 2.5-3.1 4.58 0 2.72 2.2 4.94 4.92 4.94 2.72 0 4.95-2.23 4.95-4.95 0-2.18-1.45-4-3.42-4.65v-2.02h4.18l-5.78-4.38z" overflow="visible" enable-background="accumulate"/><path fill="#ef2929" stroke="#a40000" d="M36.03 41.02l-5.65-4.23h3.9v-2.24c-1.82-.73-3.1-2.5-3.1-4.6 0-2.7 2.2-4.92 4.92-4.92 2.73 0 4.96 2.2 4.96 4.93 0 2.18-1.45 4-3.42 4.66v2.02h4.18l-5.8 4.37z" overflow="visible" enable-background="accumulate"/></g></svg>