<svg xmlns="http://www.w3.org/2000/svg" width="48" height="48" version="1" viewBox="0 0 612 792" enable-background="new 0 0 612 792"><path fill="none" stroke="#00586c" stroke-width="25.713" d="M-75.1 777.22l19.23-13.45c.03-.02 13.88-9.72 36.6-26.27-4.6-40.1.85-69.06 1.1-70.33l14.66 1.13c0 .12.22 5.8.77 14.23l.58-.03c.3-5.06.4-8.2.4-8.3l2.56-.2c.7-5.85 1.33-9.26 1.37-9.48l5.98.44c.52-3.86.94-6.08 1-6.4l14.65 1.16c0 .08.12 3.17.4 8.12.85-10.27 2-16.4 2.07-16.75l8.23.63c-.16-35.26 2.78-58.16 2.95-59.48l14.74.77c0 .2.2 9.06.8 22.13l.5-.02c.32-8.02.44-13.06.45-13.22l2.5-.12c.68-8.47 1.3-13.27 1.34-13.58l6 .33c.5-5.58.9-8.8.97-9.23l14.74.77c0 .16.13 4.62.4 11.78.85-14.72 1.94-23.38 2-23.88l14.75.77c0 .33.48 18.74 1.84 41.73l13.68 1.06c0 .1.23 5.83.8 14.26l.58-.04c.3-5.13.4-8.3.4-8.33l2.56-.2c.7-5.85 1.32-9.27 1.36-9.5l1.14.1c-.5-28.9-.54-57.56-.1-85.6-.92-1.47-1.44-3.15-1.44-4.9v-38.44c0-2.6 1.05-4.97 2.8-6.73.65-16.6 1.25-25.84 1.25-25.84l14.8.38c0 .03.1 10.14.4 26.46 1.3 1.63 2 3.6 2 5.7v38.44c0 1.42-.34 2.8-.92 4.05.82 30.24 1.8 57.6 2.9 81.75.64-5.45 1.26-8.6 1.3-8.8l.73.04c-.2-21.07.72-38.18 1.66-49.87-.2-24.53 0-49.4.53-73.45-1.14-1.56-1.75-3.4-1.75-5.4V427.2c0-2.98 1.4-5.65 3.56-7.5.3-5.63.48-8.73.48-8.73l14.8.36.13 9.77c1.44 1.68 2.27 3.8 2.27 6.07v38.43c0 1.7-.47 3.3-1.3 4.73.46 19.68 1.1 42.58 1.98 66.02.48-5.4.88-8.44.9-8.68l6 .33c.5-5.62.94-8.85 1-9.24l2.5.14c.06-9.52.2-18.98.38-28.4-.87-1.43-1.35-3.08-1.35-4.8V447.3c0-2.64 1.1-5.04 2.9-6.8.5-10.74.87-16.64.87-16.64l14.8.36.25 16.82c1.53 1.7 2.42 3.9 2.42 6.24v38.43c0 1.74-.48 3.4-1.4 4.84.15 5.5.3 11.25.47 17.14l7.54.38v-21.4c0-2.5 1.08-4.77 2.88-6.42.5-8.47.9-13.2.9-13.2l10.93.36c.03-9.24.1-18.46.27-27.63-.86-1.4-1.32-3.02-1.32-4.68v-35.03c0-2.45.94-4.68 2.55-6.38.58-15 1.12-23.32 1.12-23.32l14.8.38.38 23.9c1.17 1.55 1.82 3.42 1.82 5.4v35.03c0 1.33-.3 2.65-.82 3.85.43 16.26 1 34.16 1.7 52.23l1.54.08c.4-25.83 2.48-42.1 2.62-43.1l14.74.78c0 .1.1 3.33.3 8.7 0-.37 0-.57 0-.6l2.3-.1c.64-8 1.22-12.47 1.22-12.47l4.27.22c.08-8.98.23-17.4.4-25.1-1.04-1.5-1.6-3.25-1.6-5.15v-35.02c0-2.8 1.28-5.35 3.28-7.15l.42-7.66 14.8.38.1 8.67c1.12 1.37 1.83 3 2 4.77.4-1.67 1.25-3.16 2.45-4.38.43-9.6.75-14.9.75-14.9l12.6.32v-19.22c0-2.45.96-4.68 2.57-6.4.48-11 .86-17.2.86-17.2l14.8.36.25 17.3c1.4 1.62 2.18 3.68 2.18 5.92v35.02c0 1.63-.43 3.18-1.22 4.55.3 11.84.7 24.67 1.1 37.9l1.57.08c.12-.98.2-1.55.22-1.67l6.9.37c.7-10.97 1.53-17.36 1.6-17.82l3.23.17c.54-22.27 2.33-36.12 2.46-37l14.74.76c0 .1.07 3 .26 7.85l1.88-.1c.6-7.78 1.17-12.14 1.17-12.14l5.33.28c.44-5 .82-7.85.86-8.2l14.12.75c.55-6.7 1.05-10.5 1.08-10.8l14.74.8c.02.17.36 14.23 1.36 32.5 32.5-44.65 43.84-78.73 32.86-99.18-19.37-36.08-100.5-56.05-148.98-67.97-18.5-4.56-33.12-8.16-41.02-11.62-7.3-3.2-17.08-8.54-17.98-18.07-.72-7.4 4.28-13.14 9.4-17.27-2.4-22.42.67-38.58.8-39.3l11.1.85c.2-1.52.36-2.35.36-2.35l3.38.26c.3-2.2.55-3.47.58-3.64l8.95.7c.35-3 .7-4.75.7-4.88l5.08.37c.42-3.82.84-6.07.9-6.32l11.1.87c.2-1.52.36-2.35.36-2.35l3.38.26c.3-2.18.55-3.45.58-3.62l8.95.7c.36-3 .7-4.75.72-4.9l14.67 1.13c0 .04.1 2.2.3 5.6l11.07.82c0 .08.22 5.36.82 11.62 22.02-14.3 18.54-22.27 17.36-25-8.37-6.33-91.02-14.37-295.58-14.37-31.43 0-53.12.22-55.83.24 0 0-9.65-1.33-9.65-7.4s9.2-7.4 9.2-7.4h.25c2.33-.06 8.62-.62 18.03-1.44 33.62-2.97 103.57-9.14 177.1-9.14 19.4 0 37.93.44 55.07 1.3 2.47.12 247.87 15.8 254.04 43.47.5 2.24.87 7.88-6.66 11.87-11.43 6.07-32.5 11.32-54.83 16.85-28.38 7.05-75.92 18.86-78.9 30.86-.75 2.86 3 6.77 5.28 8.83 2.2.6 18.9 1.34 35.02 2.06 20.66.93 48.5 2.16 78.56 5.35.14-8.9 1.25-14.64 1.32-14.95l13.85 1.08c2.3-18.28 3.02-36.48 3.04-36.76l14.65-1.13c.06.2.55 2.9 1.12 7.55l1.94-.17c0-4.44.05-8.66.12-12.67l-.76-5.05V87.9c0-1.83.57-3.55 1.58-4.95.36-8.56.63-13.27.63-13.27l14.8.36.2 11.57.07.04L512 87.9v8.74l7.65-.43V81.53c0-2.07.68-3.96 1.9-5.47.4-10.66.8-16.55.8-16.55l14.78.37.3 17.04c.87 1.37 1.33 2.94 1.33 4.64v23.3l2-.12c.06.34.42 2.9.86 7.3l5.33-.3s.55 3.92 1.17 10.8l1.9.1c.17-4.28.26-6.83.26-6.92l14.72-.87c.2 1.4 4.72 33.27 1.27 78.03 4.8 1.6 9.55 3.27 14.18 5.06l-.95 2.45.88.07.87-2.23c1.27.5 2.54 1 3.8 1.52 2.22-17.95 2.9-35.52 2.92-35.73l14.66-1.14c.05.2.55 2.9 1.1 7.54l14.1-1.1c.04.25.4 2.17.86 5.5l5.3-.4s.6 3 1.22 8.3l1.92.15c.17-3.1.26-4.96.26-5.02l14.65-1.17c.2 1.03 4.8 24.5 1.4 57.36 13.95 12.06 24.78 25.73 32.22 40.67 75.58 151.9-204.02 485.7-215.97 499.8l-2.23 2.64H-75.1v.08zm359.95-351c.04-2.05.07-4.06.1-6.03-.63-1.1-1.04-2.32-1.18-3.6-.18.83-.5 1.62-.92 2.36.05 2.35.12 4.7.17 7.15l1.83.1z" stroke-linecap="round" stroke-linejoin="round"/><path fill="none" stroke="#d9e3f3" stroke-width="17.142" d="M669.05 278.07c-7.97-16.03-19.5-29.47-33.4-40.87 4.14-34.18-.85-59-.85-59s-.75 19.84-3.32 39.33c-1.4-14.47-1.85-26.45-1.85-26.45s-3.2 15.87-2.4 39.6c-.95-.66-1.94-1.27-2.9-1.93-3.3-21.22-4.22-45.5-4.22-45.5s-.67 3.6-1.34 9.56c-.76-10.48-2-16.9-2-16.9s-.9 24.23-4.2 45.43c-.1-.05-.18-.08-.26-.14 2.4-29.6-1.73-50.37-1.73-50.37s-.96 25.32-4.44 46.85c-1.56-.82-3.2-1.58-4.75-2.37-2.04-17.56-2.66-33.9-2.66-33.9s-.46 2.43-1 6.5c-.58-14.45-2.36-23.53-2.36-23.53s-.94 24.67-4.3 46.02c-4.1-1.82-8.25-3.55-12.5-5.18-.17-2.45-.22-4-.22-4s-.28 1.4-.55 3.72c-6.34-2.43-12.8-4.66-19.4-6.72 4.3-47.5-.75-82.2-.75-82.2s-.76 27.26-3.33 54.06c-1.4-19.9-1.85-36.38-1.85-36.38s-3.67 25.27-2.1 62.12c-.66-.18-1.3-.36-1.94-.53-4.3-30.9-5.45-72.35-5.45-72.35s-.7 4.96-1.36 13.15c-.75-14.4-2-23.24-2-23.24s-1.02 36.27-4.67 66.25c2.95-42.84-1.5-73.2-1.5-73.2s-.43 15.55-1.75 34.66c-.4-11.1-.72-21.84-.98-31.82.38-.32.63-.75.63-1.25V81.63c0-.68-.56-1.16-1.28-1.45-.24-12.36-.35-20.12-.35-20.12s-.44 7.16-.92 19.95c-1 .17-1.78.77-1.78 1.6v25.86c0 .6.42 1.06 1 1.36-.32 18.53-.37 41.54.2 67.6-.55 4.07-1.15 7.95-1.8 11.6-.35-2.57-.64-5.2-.93-7.85 1.57-26.85-2.12-45.28-2.12-45.28s-.17 4.52-.6 11.3c-.9-14.8-1.2-25.8-1.2-25.8s-.46 3.34-1 8.95c-.57-19.87-2.36-32.33-2.36-32.33s-1.33 48.3-6.56 79.48c-2.3-18.54-3-36.54-3-36.54s-.67 3.6-1.34 9.56c-.75-10.5-2-16.92-2-16.92s-.1 2.7-.37 6.96c-.37-10.18-.66-20.1-.92-29.22.34-.26.53-.62.53-1.03v-21.3c0-.58-.46-.97-1.08-1.2-.2-10.18-.27-16.6-.27-16.6s-.35 5.9-.77 16.45c-.8.14-1.43.65-1.43 1.34v21.3c0 .5.36.86.82 1.12-.26 14.3-.3 31.94.08 51.75-.08-1.3-.2-2.6-.25-3.78-.1-18.84-2.54-30.9-2.54-30.9s-1.22 33.23-6.1 55.93c-.5-.1-1.06-.17-1.6-.26-3.23-21.13-4.14-45.07-4.14-45.07s-.46 2.4-1 6.5c-.57-14.46-2.36-23.54-2.36-23.54s-1.42 37.46-7.06 59.98c-2.62-.36-5.24-.68-7.83-1-1.64-10.28-2.1-22.2-2.1-22.2s-1.78 8.9-1 21.83c-.92-.1-1.8-.2-2.72-.3-.05-1-.1-1.7-.1-1.7s-.1.66-.26 1.63c-63.8-7.18-118-5.26-123.08-9.85-41.8-37.85 95.7-50.37 129.97-68.57 29.03-15.4-162.66-37.27-244.26-41.42-112.84-5.7-239.26 9.3-249.98 9.3 0 0 348.77-3.82 358.56 18.55 6.05 13.84-6.26 25.97-24.57 36.93-.15-2.33-.4-3.83-.4-3.83s-.08 1.82-.28 4.24c-1.55.92-3.14 1.82-4.75 2.72-1.85-10.07-2.37-23.47-2.37-23.47s-.77 4.06-1.03 10.56c-.24-1.85-.42-2.93-.42-2.93s-.36 9.67-1.63 18.77c-.35.2-.7.36-1.05.55-1.95-10.12-2.5-24.06-2.5-24.06s-1.9 9.82-.65 23.7c-1.58-9.75-2.02-21.44-2.02-21.44s-.47 2.54-.8 6.72c-1-9.92-1.28-18.3-1.28-18.3s-1.13 6-1.5 15.56c-.35-2.72-.64-4.35-.64-4.35s-.2 5.1-.72 11.98c-.32-3-.64-4.77-.64-4.77s-.2 5.36-.8 11.84c-1.12-8.74-1.45-17.62-1.45-17.62s-2.15 11.12-.35 26.43c-2.8-14.8-3.55-34.8-3.55-34.8s-2.84 14.47-.97 34.92c-2.34-14.33-3-31.6-3-31.6s-.8 4.24-1.26 11.15c-.4-3.94-.87-6.32-.87-6.32s-.7 18.97-3.3 33.65c-.16.06-.33.15-.47.22-.2-4.03-.6-6.5-.67-6.82.07-13.25-1.6-21.9-1.6-21.9s-.3 7.87-1.18 17.35c-1.64-12.8-2.1-25.8-2.1-25.8s-3.28 16.9-.38 39.95c-.67.3-1.34.6-2 .92-2.8-14.8-3.57-34.97-3.57-34.97s-1.13 6-1.5 15.55c-.35-2.73-.65-4.35-.65-4.35s-.54 14.26-2.38 27.6c-.5.27-1 .5-1.5.75-2.87-14.85-3.66-35.33-3.66-35.33s-2.84 14.48-.98 34.93c-2.33-14.33-2.98-31.6-2.98-31.6s-.8 4.25-1.27 11.15c-.4-3.94-.86-6.32-.86-6.32s-.72 19.33-3.38 34.05c-.46.28-.87.53-1.32.8 1-17.6-1.33-29.68-1.33-29.68s-.3 7.87-1.18 17.35c-1.64-12.8-2.1-25.82-2.1-25.82s-3.4 17.55-.2 41.28c-12.5 8.65-15.23 16.88 3.67 25.16 28.45 12.48 165.38 30.36 193.56 82.85 15.27 28.43-5.52 72.53-45.5 122.93-2.02-27.32-2.63-52.6-2.63-52.6s-1.8 13.82-2.4 36.2c-.5-6.16-.96-9.66-.96-9.66s-.38 15.48-1.5 35.3c-2.33 2.8-4.7 5.6-7.13 8.43-2.5-30.03-3.22-60.23-3.22-60.23s-3.53 26.9-2.3 66.78c-.24.26-.46.5-.7.77-2.47-29.84-3.2-59.63-3.2-59.63s-1.26 9.67-2 25.94c-.66-9.2-1.35-14.5-1.35-14.5s-.72 29.3-3.13 58.88c-1.3 1.42-2.52 2.8-3.84 4.23.05-30.92-2.54-50.87-2.54-50.87s-.45 18.7-1.85 41.27c-2.56-30.4-3.32-61.36-3.32-61.36s-4.4 33.45-1.66 81.03c-.62.64-1.25 1.3-1.87 1.94-1.64-24.84-2.16-46.15-2.16-46.15s-2.6 20-2.63 51.14c-1.4 1.45-2.78 2.9-4.2 4.4-1.24-21.2-1.66-38.07-1.66-38.07s-2.12 16.33-2.53 42.42c-2.76 2.8-5.7 5.64-8.52 8.45-1.83-26.4-2.43-49.9-2.43-49.9s-1.27 9.7-2.04 26.07c-.96-23.38-1.65-46.78-2.16-67.04.73-.43 1.28-1.05 1.28-1.82v-35.02c0-1.06-.96-1.78-2.12-2.1-.23-13.1-.33-21.04-.33-21.04s-.46 7.58-1.03 20.93c-1.32.24-2.4 1.06-2.4 2.2v35.03c0 .77.52 1.37 1.24 1.8-.55 26.78-.76 61.08.17 100.6-1.12 1.1-2.23 2.2-3.36 3.3-.55-23.85-2.5-38.6-2.5-38.6s-.45 19.2-1.9 42.37c-2.65-31.22-3.42-63-3.42-63s-.63 4.8-1.27 13.3c-.17-6.1-.32-12-.46-17.65.77-.43 1.34-1.05 1.34-1.84v-35.03c0-1.08-.98-1.82-2.16-2.13-.2-11.7-.3-18.8-.3-18.8s-.4 6.7-.92 18.7c-1.4.2-2.5 1.08-2.5 2.23v35.03c0 .8.55 1.4 1.28 1.82-.36 16.72-.56 36.4-.46 58.7-1.78-26.08-2.37-49.12-2.37-49.12s-1.85 14.2-2.45 37.22c-.53-6.34-1-9.94-1-9.94s-.54 21.82-2.24 47.03c-1.8 1.72-3.72 3.42-5.55 5.13-1.43-31.46-2.4-64.1-3-90.15.7-.43 1.24-1.05 1.24-1.82V379.4c0-1.02-.9-1.72-2-2.06-.14-7.73-.2-12.27-.2-12.27s-.27 4.3-.63 12c-.02 0-.06-.04-.1-.04-1.6 0-2.92 1.08-2.92 2.38v35.03c0 .93.73 1.56 1.68 1.96-.36 14.16-.6 30.95-.64 49.73-.5 12.38-.72 28.13.05 46.23-.13.14-.3.28-.4.38-2.97-32.53-3.83-67.37-3.83-67.37s-1.28 9.96-2.07 26.7c-.67-9.47-1.37-14.88-1.37-14.88s-.6 24.76-2.56 52.03c-.75-18.4-2.2-29.5-2.2-29.5s-.34 13.47-1.28 31.4c-.9-17.76-1.2-30.65-1.2-30.65s-2.02 15.58-2.67 40.88c-.6-7-1.1-10.95-1.1-10.95s-.08 2.53-.22 6.6c-3-32.7-3.87-67.92-3.87-67.92s-4.62 35.34-1.57 85.3c-1.85 1.66-3.68 3.3-5.55 4.95-1.65-25.9-2.16-47.5-2.16-47.5s-2.64 20.2-2.88 52c-.7.6-1.4 1.17-2.07 1.8-1.5-24.7-2-44.9-2-44.9s-.8 6.06-1.55 16.66c-1.3-27.35-2.2-56-2.87-80.63.55-.43.9-1.05.9-1.7v-35.04c0-.94-.8-1.6-1.77-1.98-.33-16.73-.45-27.24-.45-27.24s-.6 9.7-1.25 27.04c-1.32.22-2.4 1.06-2.4 2.2v35.02c0 .82.6 1.44 1.36 1.85-.52 30.9-.55 70.94.94 116.6-1.7 1.46-3.38 2.94-5.1 4.4-.83-19.05-2.32-30.47-2.32-30.47s-.36 14.4-1.37 33.7c-.12.1-.22.17-.34.28-.77-15.64-1.35-30.92-1.82-44.53.8-.36 1.4-.85 1.4-1.5v-28.75c0-.86-1.04-1.48-2.3-1.73-.26-10.6-.36-17.28-.36-17.28s-.52 6.2-1.12 17.18c-1.46.2-2.62.87-2.62 1.8v28.76c0 .64.58 1.12 1.35 1.5-.02.78-.04 1.52-.08 2.33-.82 10.96-1.68 27.64-1.47 48.2-2.86 2.46-5.74 4.88-8.6 7.3-2.73-33.33-3.54-66.35-3.54-66.35s-2 15.6-2.66 40.9c-.6-7-1.1-10.97-1.1-10.97s-.48 19.85-1.97 44.28c-.5.4-1 .86-1.5 1.27-1.55-33-2.6-67.6-3.3-96.15.82-.48 1.46-1.13 1.46-2.02v-38.43c0-1.17-1.06-2-2.37-2.34-.22-12.84-.32-20.64-.32-20.64s-.47 7.33-1.03 20.5c-1.5.22-2.72 1.16-2.72 2.47v38.43c0 .87.6 1.52 1.4 2-.5 23.93-.76 53.52-.3 87.5-2.07-29.27-2.7-55.48-2.7-55.48s-3.93 30-2.63 74.54c-.27.22-.53.44-.82.67-2.7-33.32-3.52-66.3-3.52-66.3s-1.4 10.9-2.27 29.22c-.73-10.35-1.5-16.28-1.5-16.28s-.74 30.24-3.2 62.04c-1.55 1.28-3.1 2.53-4.64 3.8-.25-31.85-2.9-52.08-2.9-52.08s-.04 2.25-.16 5.87c-1.44-32.85-2.42-66.5-3.05-93.6.78-.48 1.36-1.13 1.36-2v-38.42c0-1.1-1-1.9-2.2-2.28-.15-8.48-.22-13.45-.22-13.45s-.3 4.73-.68 13.16c-.05 0-.07-.03-.12-.03-1.8 0-3.23 1.16-3.23 2.6v38.43c0 1.02.82 1.72 1.83 2.15-.5 21.05-.84 47.3-.63 77.3-1.13 14.15-2.47 39.52-1.07 71.3-.06.07-.15.14-.22.2-.93-12.03-1.24-20.84-1.24-20.84s-1.78 9.02-2.54 23.9c-.17.16-.36.3-.5.43-.4-2.72-.73-4.52-.73-4.52s-.08 2-.27 5.3c-3.56 2.9-7.08 5.73-10.63 8.56-2-36.07-3.36-76.54-4.25-110.22.6-.48.98-1.12.98-1.86v-38.43c0-1.04-.86-1.76-1.92-2.17-.35-18.35-.47-29.9-.47-29.9s-.7 10.65-1.4 29.66c-1.45.24-2.6 1.14-2.6 2.4v38.44c0 .9.62 1.56 1.48 2.03-.52 31.15-.57 70.96.7 116.07-.07.06-.14.1-.2.18-1.28-14.83-1.72-26.45-1.72-26.45s-1.4 7.5-2.27 19.67c-.74-6.92-1.5-11.1-1.5-11.1s-.37 10.08-1.47 23.4c-2.37 1.86-4.65 3.68-7 5.5-.83-12.28-2.26-19.8-2.26-19.8s-.3 8.45-1.18 20.14c-.42-8.2-1.05-13.24-1.05-13.24s-.2 7.34-.7 17.02c-2.25-20.24-2.94-38.9-2.94-38.9s-3.3 17.3-2.73 43.34c-2.25 1.77-4.54 3.58-6.77 5.32-4.75-39.4-6.04-91.52-6.04-91.52s-2.02 15.58-2.67 40.88c-.6-7-1.1-10.95-1.1-10.95s-.92 37.06-4.04 72.32c-1.02.78-2.05 1.6-3.06 2.38-4.96-39.62-6.26-93.3-6.26-93.3s-5.02 38.48-1.78 92.97c-4.07-38.2-5.2-84.04-5.2-84.04s-1.42 10.9-2.28 29.22c-.73-10.35-1.5-16.28-1.5-16.28s-1.2 49.78-5.7 88.83c-.82.6-1.7 1.28-2.5 1.9 1.54-45.87-2.52-76.97-2.52-76.97s-.5 21.07-2.1 46.53c-2.92-34.26-3.76-69.16-3.76-69.16s-5.9 44.98-.8 106.57c-1.98 1.5-3.95 3-5.9 4.43-3.55-24.4-4.56-51.7-4.56-51.7s-2 10.56-2.64 27.45c-.6-4.8-1.14-7.63-1.14-7.63s-.72 19.64-3.12 40.5c-1.68 1.22-3.3 2.46-4.92 3.66-4.18-25.43-5.33-56.48-5.33-56.48s-5 25.6-1.74 61.75v.02c-4.1-25.37-5.24-55.88-5.24-55.88s-1.4 7.5-2.27 19.68c-.75-6.93-1.52-11.1-1.52-11.1S4.35 706.8-.04 732.52c-.88.66-1.8 1.32-2.63 1.94 1.5-30.3-2.5-50.88-2.5-50.88s-.5 13.95-2.1 30.8c-2.92-22.7-3.76-45.8-3.76-45.8s-5.93 30.7-.46 72.33c-24.9 18.17-40.24 28.92-40.24 28.92h505.68c.12-.03 289.4-342.5 215.1-491.78zm-128.5-84.95c.15-1.7.35-3.45.45-5.1.1 1.75.2 3.48.3 5.28-.26-.06-.5-.12-.76-.18zm-55.62-14c.04 1.02.12 2.05.17 3.08-.18-.02-.37-.05-.56-.07.1-1 .27-2.02.4-3zm-209.1-38.1c.02.16.02.3.04.46-.03 0-.05.02-.07.02 0-.15.02-.32.04-.48zm-31.07 15c.02.14.02.26.02.38-.02.02-.04.02-.05.03 0-.13 0-.27.03-.4z" stroke-linecap="round" stroke-linejoin="round"/><path fill="#007cc2" d="M-24.5 68.8s348.78-3.82 358.57 18.55c20 45.72-160 72.85-96.42 100.7 28.45 12.5 165.38 30.37 193.56 82.86C494.08 388.05-51.6 769.8-51.6 769.8h505.68s289.27-342.48 215-491.76c-60.12-120.84-317.9-98.28-329.28-108.56-41.8-37.85 95.7-50.37 129.98-68.57 29.02-15.4-162.7-37.27-244.27-41.42-112.85-5.7-239.27 9.3-250 9.3z"/><path fill="#fff" d="M383.63 548.5c13.73-30.63 50.08-89.38 81.14-106.52-25.7 24.65-66.06 87.9-74.82 111.37-9.7 26.1-75.08 83.53-90.03 106.5-12.9 19.85-43.25 21.24-72.35 47.7-17.63 16-9.1 9.02-24.86 19.34-17.3 15.3-26.78 22.06-35.04 30.4 4.7-9.05 10.74-14.43 27.13-32.84 3.8-4.3 11.48-10.64 21.7-17.26 23.87-15.43 48.23-33.94 74.32-48.74 9.82-5.55 52.8-55.1 57.42-62.63 16.13-26.43 13.36-7.3 35.4-47.33z"/><path fill="#8eb2de" d="M393.26 558.15c13.73-30.63 50.1-89.38 81.15-106.52-25.7 24.65-66.06 87.9-74.82 111.37-9.7 26.1-75.08 83.53-90.02 106.5-12.9 19.85-43.25 21.24-72.36 47.7-17.62 16-9.1 9.03-24.86 19.35-17.3 15.3-26.8 22.06-35.05 30.4 4.7-9.05 10.74-14.43 27.12-32.84 3.83-4.27 11.5-10.63 21.72-17.25 23.86-15.43 48.22-33.94 74.3-48.74 9.84-5.54 52.83-55.08 57.44-62.62 16.13-26.43 13.37-7.3 35.38-47.33z"/><path fill="#fff"/><path fill="#fff" d="M316.93 158.78c-17.15 33.56 22.32 33.56 96.6 45 74.28 11.43 182.67 65 192.66 77.14-10-12.14-113.57-72.14-187.85-83.57-74.3-11.42-115-9.27-101.42-38.57z"/><path fill="#8eb2de" d="M314.78 161.28c-17.58 34.46 13.68 41.06 89.93 52.78 76.24 11.75 187.5 66.72 197.74 79.18-10.25-12.46-116.55-74.03-192.8-85.76-76.22-11.72-108.8-16.15-94.86-46.2z"/><path fill="#fff" d="M361.92 123.8s118.93-31.08 57.86-34.3c77.14 3.22-57.86 34.3-57.86 34.3z"/><path fill="#8eb2de" d="M346.92 122.7s118.93-31.06 57.86-34.27c77.14 3.22-57.86 34.28-57.86 34.28z"/><path fill="#fff"/><g><path fill="#79c043" d="M9.44 665.9s-6.96 35.02.72 81.15c0 0 6.8 2.52 10.7-.24-9.28-22.05-11.42-80.9-11.42-80.9z"/><path fill="#79c043" d="M16.4 660s-6.95 35.03.73 81.16c0 0 6.8 2.52 10.72-.24-9.3-22.07-11.44-80.9-11.44-80.9z"/><path fill="#79c043" d="M33.56 652.52s-6.96 35.02.72 81.15c0 0 6.78 2.52 10.7-.24-9.28-22.08-11.42-80.9-11.42-80.9z"/><path fill="#79c043" d="M-10.9 668.58s-6.97 35.02.7 81.15c0 0 6.8 2.52 10.72-.24-9.3-22.07-11.43-80.92-11.43-80.92z"/><path fill="#5c9733" d="M29.77 672.33s6.96 35.02-.72 81.15c0 0-6.8 2.52-10.72-.24 9.3-22.06 11.44-80.9 11.44-80.9z"/><path fill="#5c9733" d="M52.72 695.37s3.34 16.78-.34 38.86c0 0-3.26 1.2-5.13-.12 4.44-10.57 5.47-38.73 5.47-38.73z"/><path fill="#5c9733" d="M57 718.4s3.35 16.77-.34 38.85c0 0-3.25 1.2-5.12-.12C55.98 746.57 57 718.4 57 718.4z"/><path fill="#5c9733" d="M5.67 674.47s6.96 35.03-.72 81.15c0 0-6.8 2.52-10.72-.24 9.3-22.06 11.44-80.9 11.44-80.9z"/><path fill="#5c9733" d="M-5.05 683.58s6.96 35.02-.72 81.15c0 0-6.8 2.52-10.7-.24 9.28-22.08 11.42-80.92 11.42-80.92z"/></g><g><path fill="#79c043" d="M245.65 120.1s-3.92 19.8.4 45.86c0 0 3.83 1.43 6.05-.13-5.23-12.47-6.45-45.72-6.45-45.72z"/><path fill="#79c043" d="M249.6 116.78s-3.93 19.8.4 45.86c0 0 3.83 1.42 6.04-.14-5.25-12.48-6.45-45.72-6.45-45.72z"/><path fill="#79c043" d="M259.28 112.55s-3.93 19.78.4 45.85c0 0 3.83 1.43 6.04-.13-5.24-12.48-6.44-45.72-6.44-45.72z"/><path fill="#79c043" d="M234.15 121.63s-3.93 19.8.4 45.84c0 0 3.83 1.42 6.04-.12-5.23-12.5-6.45-45.72-6.45-45.72z"/><path fill="#5c9733" d="M257.14 123.74s3.92 19.78-.4 45.86c0 0-3.84 1.42-6.05-.14 5.22-12.48 6.44-45.72 6.44-45.72z"/><path fill="#5c9733" d="M270.1 136.75s1.88 9.48-.2 21.96c0 0-1.83.7-2.9-.06 2.5-5.96 3.1-21.9 3.1-21.9z"/><path fill="#5c9733" d="M272.53 149.76s1.88 9.48-.2 21.96c0 0-1.82.7-2.9-.07 2.52-5.96 3.1-21.9 3.1-21.9z"/><path fill="#5c9733" d="M243.5 124.94s3.93 19.78-.4 45.86c0 0-3.83 1.42-6.04-.14 5.25-12.46 6.45-45.72 6.45-45.72z"/><path fill="#5c9733" d="M237.46 130.1s3.92 19.78-.4 45.86c0 0-3.84 1.42-6.05-.14 5.26-12.48 6.46-45.72 6.46-45.72z"/></g><g><path fill="#79c043" d="M276.73 105.1s-3.93 19.8.4 45.86c0 0 3.83 1.43 6.04-.13-5.24-12.46-6.44-45.72-6.44-45.72z"/><path fill="#79c043" d="M280.65 101.78s-3.92 19.8.4 45.86c0 0 3.84 1.42 6.05-.14-5.23-12.48-6.45-45.72-6.45-45.72z"/><path fill="#79c043" d="M290.34 97.55s-3.93 19.78.4 45.85c0 0 3.83 1.43 6.04-.13-5.22-12.48-6.44-45.72-6.44-45.72z"/><path fill="#79c043" d="M265.23 106.64s-3.93 19.78.4 45.83c0 0 3.83 1.43 6.04-.12-5.24-12.5-6.44-45.7-6.44-45.7z"/><path fill="#5c9733" d="M288.2 108.74s3.92 19.8-.4 45.86c0 0-3.84 1.42-6.05-.14 5.25-12.48 6.45-45.72 6.45-45.72z"/><path fill="#5c9733" d="M301.17 121.75s1.9 9.48-.2 21.96c0 0-1.82.7-2.88-.06 2.5-5.96 3.07-21.9 3.07-21.9z"/><path fill="#5c9733" d="M303.6 134.77s1.88 9.47-.2 21.95c0 0-1.83.7-2.9-.06 2.5-5.97 3.1-21.9 3.1-21.9z"/><path fill="#5c9733" d="M274.6 109.94s3.9 19.8-.4 45.86c0 0-3.85 1.42-6.06-.14 5.23-12.46 6.45-45.72 6.45-45.72z"/><path fill="#5c9733" d="M268.54 115.1s3.92 19.8-.4 45.86c0 0-3.84 1.42-6.05-.14 5.22-12.48 6.44-45.72 6.44-45.72z"/></g><g><path fill="#79c043" d="M292.4 109.14s-2.66 13.5.3 31.26c0 0 2.6.98 4.12-.08-3.57-8.52-4.4-31.18-4.4-31.18z"/><path fill="#79c043" d="M295.1 106.86s-2.7 13.5.28 31.27c0 0 2.6.97 4.13-.1-3.57-8.5-4.4-31.17-4.4-31.17z"/><path fill="#79c043" d="M301.7 103.98s-2.7 13.5.28 31.27c0 0 2.6.97 4.13-.1-3.57-8.5-4.4-31.17-4.4-31.17z"/><path fill="#79c043" d="M284.58 110.17s-2.67 13.5.27 31.26c0 0 2.6.98 4.14-.08-3.6-8.52-4.42-31.18-4.42-31.18z"/><path fill="#5c9733" d="M300.25 111.6s2.7 13.5-.28 31.27c0 0-2.62.98-4.13-.08 3.58-8.53 4.4-31.2 4.4-31.2z"/><path fill="#5c9733" d="M309.1 120.5s1.28 6.45-.13 14.97c0 0-1.25.46-2-.05 1.73-4.08 2.12-14.93 2.12-14.93z"/><path fill="#5c9733" d="M310.74 129.37s1.28 6.44-.12 14.96c0 0-1.25.46-1.97-.03 1.7-4.08 2.1-14.93 2.1-14.93z"/><path fill="#5c9733" d="M290.96 112.43s2.67 13.5-.28 31.27c0 0-2.6.97-4.13-.1 3.58-8.5 4.4-31.17 4.4-31.17z"/><path fill="#5c9733" d="M286.84 115.94s2.68 13.5-.27 31.27c0 0-2.6 1-4.13-.08 3.58-8.5 4.4-31.18 4.4-31.18z"/></g><g><path fill="#79c043" d="M65.15 589.18s-6.96 52.88.72 122.58c0 0 6.8 3.84 10.7-.36-9.28-33.33-11.42-122.22-11.42-122.22z"/><path fill="#79c043" d="M72.12 580.28s-6.95 52.9.72 122.6c0 0 6.8 3.82 10.72-.36-9.3-33.38-11.44-122.24-11.44-122.24z"/><path fill="#79c043" d="M89.27 568.95s-6.96 52.9.72 122.6c0 0 6.77 3.82 10.7-.36-9.3-33.37-11.43-122.25-11.43-122.25z"/><path fill="#79c043" d="M44.8 593.24s-6.96 52.9.72 122.56c0 0 6.8 3.86 10.7-.34C46.95 682.1 44.8 593.24 44.8 593.24z"/><path fill="#407324" d="M85.48 598.88s6.96 52.92-.72 122.6c0 0-6.8 3.82-10.72-.36 9.3-33.34 11.44-122.24 11.44-122.24z"/><path fill="#5c9733" d="M108.43 633.68s3.34 25.35-.34 58.7c0 0-3.27 1.82-5.14-.16 4.44-15.96 5.47-58.54 5.47-58.54z"/><path fill="#5c9733" d="M112.72 668.5s3.34 25.33-.35 58.67c0 0-3.25 1.82-5.12-.17 4.44-15.94 5.47-58.5 5.47-58.5z"/><path fill="#5c9733" d="M61.38 602.12s6.96 52.9-.72 122.6c0 0-6.8 3.82-10.72-.36 9.3-33.33 11.44-122.24 11.44-122.24z"/><path fill="#5c9733" d="M50.66 615.88s6.96 52.9-.72 122.6c0 0-6.8 3.82-10.7-.36 9.28-33.34 11.42-122.24 11.42-122.24z"/></g><g><path fill="#79c043" d="M410.13 669.1s-6.96 35.03.7 81.16c0 0 6.8 2.52 10.7-.24-9.26-22.06-11.4-80.9-11.4-80.9z"/><path fill="#79c043" d="M417.1 663.23s-6.96 35.02.7 81.15c0 0 6.8 2.52 10.72-.24-9.27-22.08-11.42-80.9-11.42-80.9z"/><path fill="#79c043" d="M434.24 655.72s-6.95 35.02.7 81.15c0 0 6.8 2.52 10.72-.24-9.27-22.06-11.42-80.9-11.42-80.9z"/><path fill="#79c043" d="M389.78 671.8s-6.96 35.02.7 81.15c0 0 6.8 2.52 10.72-.24-9.28-22.07-11.42-80.9-11.42-80.9z"/><path fill="#5c9733" d="M430.46 675.54s6.96 35.02-.7 81.15c0 0-6.8 2.5-10.72-.25 9.27-22.06 11.42-80.9 11.42-80.9z"/><path fill="#5c9733" d="M453.4 698.58s3.34 16.78-.33 38.86c0 0-3.26 1.2-5.15-.12 4.46-10.56 5.5-38.74 5.5-38.74z"/><path fill="#5c9733" d="M457.7 721.6s3.32 16.8-.35 38.87c0 0-3.25 1.2-5.14-.12 4.47-10.55 5.5-38.74 5.5-38.74z"/><path fill="#5c9733" d="M406.36 677.68s6.95 35.02-.7 81.15c0 0-6.8 2.52-10.72-.24 9.27-22.07 11.42-80.92 11.42-80.92z"/><path fill="#5c9733" d="M395.64 686.8s6.96 35.02-.7 81.15c0 0-6.8 2.52-10.7-.24 9.26-22.07 11.4-80.9 11.4-80.9z"/></g><path fill="#79c043" d="M471.2 625.07s6.96 52.88-.7 122.58c0 0-6.8 3.84-10.7-.36 9.26-33.33 11.4-122.23 11.4-122.23z"/><path fill="#79c043" d="M450.84 642.42s6.96 52.9-.7 122.6c0 0-6.8 3.82-10.72-.36 9.28-33.38 11.42-122.24 11.42-122.24z"/><path fill="#79c043" d="M465.3 633.76s6.97 52.9-.7 122.6c0 0-6.8 3.82-10.7-.36 9.26-33.34 11.4-122.24 11.4-122.24z"/><path fill="#407324" d="M427.85 643.35s-6.96 52.9.7 122.6c0 0 6.8 3.82 10.72-.37-9.28-33.34-11.42-122.23-11.42-122.23z"/><path fill="#407324" d="M458.38 626.73s-6.96 52.92.7 122.6c0 0 6.8 3.83 10.72-.36-9.28-33.34-11.42-122.24-11.42-122.24z"/><path fill="#407324" d="M479.28 596.74s-6.96 52.9.7 122.6c0 0 6.8 3.82 10.7-.37-9.26-33.34-11.4-122.23-11.4-122.23z"/><path fill="#5c9733" d="M418.82 642.25s-3.33 25.35.34 58.7c0 0 3.26 1.83 5.14-.16-4.45-15.97-5.48-58.55-5.48-58.55z"/><path fill="#5c9733" d="M414.53 677.06s-3.32 25.34.34 58.68c0 0 3.26 1.82 5.15-.17-4.46-15.94-5.5-58.5-5.5-58.5z"/><path fill="#5c9733" d="M471.24 609.1s-6.96 52.9.7 122.6c0 0 6.8 3.82 10.7-.37-9.26-33.34-11.4-122.23-11.4-122.23z"/><g><path fill="#79c043" d="M125.14 609.1s-6.96 35.03.72 81.16c0 0 6.8 2.52 10.72-.24-9.3-22.06-11.44-80.9-11.44-80.9z"/><path fill="#79c043" d="M132.12 603.23s-6.96 35.02.72 81.15c0 0 6.8 2.52 10.7-.24-9.28-22.08-11.42-80.9-11.42-80.9z"/><path fill="#79c043" d="M149.26 595.73s-6.96 35.02.72 81.14c0 0 6.8 2.52 10.72-.24-9.3-22.06-11.44-80.9-11.44-80.9z"/><path fill="#79c043" d="M104.8 611.8s-6.96 35.02.72 81.15c0 0 6.78 2.52 10.7-.24-9.28-22.07-11.42-80.9-11.42-80.9z"/><path fill="#5c9733" d="M145.47 615.54s6.96 35.02-.72 81.15c0 0-6.78 2.5-10.7-.25 9.28-22.06 11.42-80.9 11.42-80.9z"/><path fill="#5c9733" d="M168.43 638.58s3.34 16.78-.35 38.86c0 0-3.25 1.2-5.12-.12 4.44-10.56 5.47-38.74 5.47-38.74z"/><path fill="#5c9733" d="M172.7 661.62s3.36 16.78-.33 38.86c0 0-3.26 1.2-5.13-.12 4.44-10.56 5.47-38.74 5.47-38.74z"/><path fill="#5c9733" d="M121.37 617.68s6.96 35.02-.72 81.15c0 0-6.8 2.52-10.7-.24 9.28-22.07 11.42-80.92 11.42-80.92z"/><path fill="#5c9733" d="M110.66 626.8s6.96 35.02-.72 81.15c0 0-6.8 2.52-10.7-.24 9.28-22.07 11.42-80.9 11.42-80.9z"/></g><g><path fill="#79c043" d="M127.3 647.68s-6.97 35.02.7 81.15c0 0 6.8 2.52 10.72-.24-9.3-22.07-11.43-80.92-11.43-80.92z"/><path fill="#79c043" d="M134.26 641.8s-6.96 35.02.72 81.15c0 0 6.8 2.52 10.72-.24-9.3-22.07-11.44-80.9-11.44-80.9z"/><path fill="#79c043" d="M151.4 634.3s-6.95 35 .73 81.14c0 0 6.78 2.52 10.7-.24-9.28-22.06-11.42-80.9-11.42-80.9z"/><path fill="#79c043" d="M106.94 650.37s-6.96 35.02.72 81.15c0 0 6.8 2.52 10.7-.24-9.28-22.08-11.42-80.9-11.42-80.9z"/><path fill="#5c9733" d="M147.62 654.1s6.96 35.03-.72 81.16c0 0-6.8 2.52-10.72-.24 9.3-22.06 11.44-80.9 11.44-80.9z"/><path fill="#5c9733" d="M170.57 677.15s3.34 16.78-.34 38.86c0 0-3.26 1.2-5.13-.1 4.44-10.57 5.47-38.75 5.47-38.75z"/><path fill="#5c9733" d="M174.86 700.2s3.34 16.77-.35 38.85c0 0-3.24 1.2-5.1-.12 4.43-10.56 5.46-38.74 5.46-38.74z"/><path fill="#407324" d="M123.52 656.25s6.96 35.02-.72 81.15c0 0-6.8 2.52-10.72-.24 9.3-22.06 11.44-80.9 11.44-80.9z"/><path fill="#5c9733" d="M112.8 665.37s6.96 35.02-.72 81.15c0 0-6.8 2.52-10.7-.24 9.28-22.08 11.42-80.9 11.42-80.9z"/></g><path fill="#93b933" d="M154.6 411.45s-6.95 108.75.73 251.95c0 0 6.8 7.85 10.7-.72-9.28-68.57-11.42-251.23-11.42-251.23z"/><path fill="#93b933" d="M128.9 446.8s-6.96 108.76.72 251.96c0 0 6.8 7.86 10.7-.72-9.28-68.56-11.42-251.23-11.42-251.23z"/><g><path fill="#79c043" d="M232.83 500.8s-6.96 52.88.72 122.57c0 0 6.8 3.84 10.7-.36-9.28-33.3-11.42-122.2-11.42-122.2z"/><path fill="#79c043" d="M239.8 491.9s-6.97 52.9.7 122.6c0 0 6.8 3.82 10.72-.36-9.3-33.38-11.43-122.24-11.43-122.24z"/><path fill="#79c043" d="M256.93 480.55s-6.96 52.9.72 122.6c0 0 6.8 3.82 10.7-.36-9.28-33.35-11.42-122.25-11.42-122.25z"/><path fill="#79c043" d="M212.46 504.84s-6.96 52.9.72 122.56c0 0 6.8 3.86 10.72-.34-9.3-33.34-11.44-122.22-11.44-122.22z"/><path fill="#5c9733" d="M253.14 510.5s6.96 52.9-.72 122.6c0 0-6.8 3.82-10.7-.37C251 599.4 253.13 510.5 253.13 510.5z"/><path fill="#5c9733" d="M276.1 545.3s3.34 25.35-.35 58.7c0 0-3.25 1.82-5.12-.17 4.45-15.97 5.46-58.54 5.46-58.54z"/><path fill="#5c9733" d="M229.04 513.74s6.96 52.9-.72 122.6c0 0-6.8 3.82-10.7-.37 9.28-33.32 11.42-122.23 11.42-122.23z"/><path fill="#407324" d="M218.33 527.5s6.96 52.9-.72 122.6c0 0-6.78 3.82-10.7-.36 9.28-33.36 11.43-122.24 11.43-122.24z"/><path fill="#5c9733" d="M292.35 567.8s3.34 25.34-.35 58.68c0 0-3.25 1.8-5.12-.17 4.45-15.94 5.47-58.5 5.47-58.5z"/></g><g><path fill="#79c043" d="M361.68 359.24s-6.18 46.9.62 108.78c0 0 6.03 3.4 9.5-.33-8.2-29.6-10.12-108.46-10.12-108.46z"/><path fill="#79c043" d="M367.87 351.33s-6.17 46.96.62 108.8c0 0 6.02 3.38 9.5-.32-8.24-29.6-10.13-108.47-10.13-108.47z"/><path fill="#79c043" d="M383.06 341.27s-6.17 46.94.62 108.8c0 0 6.05 3.38 9.5-.32-8.2-29.6-10.12-108.48-10.12-108.48z"/><path fill="#79c043" d="M343.63 362.84s-6.18 46.93.62 108.74c0 0 6.03 3.42 9.5-.3-8.23-29.6-10.12-108.44-10.12-108.44z"/><path fill="#5c9733" d="M379.72 367.84s6.17 46.95-.64 108.78c0 0-6.03 3.4-9.5-.3 8.23-29.6 10.14-108.48 10.14-108.48z"/><path fill="#5c9733" d="M400.08 398.7s2.97 22.52-.3 52.1c0 0-2.9 1.64-4.57-.15 3.97-14.15 4.88-51.94 4.88-51.94z"/><path fill="#5c9733" d="M403.87 429.62s2.97 22.47-.3 52.06c0 0-2.9 1.63-4.57-.15 3.98-14.16 4.87-51.9 4.87-51.9z"/><path fill="#5c9733" d="M358.32 370.72s6.18 46.95-.6 108.78c0 0-6.06 3.4-9.53-.3 8.22-29.6 10.12-108.48 10.12-108.48z"/><path fill="#407324" d="M348.8 382.93s6.18 46.93-.6 108.8c0 0-6.04 3.37-9.52-.33 8.24-29.6 10.13-108.47 10.13-108.47z"/></g><g><path fill="#79c043" d="M505.3 132.6s6.2 30.07-.6 69.72c0 0-6.04 2.18-9.52-.2 8.25-18.98 10.13-69.53 10.13-69.53z"/><path fill="#79c043" d="M499.14 127.5s6.17 30.12-.6 69.75c0 0-6.05 2.17-9.53-.2 8.26-18.98 10.14-69.54 10.14-69.54z"/><path fill="#79c043" d="M483.94 121.07s6.17 30.08-.62 69.75c0 0-6.05 2.16-9.5-.2 8.22-18.98 10.12-69.55 10.12-69.55z"/><path fill="#79c043" d="M523.38 134.9s6.2 30.07-.6 69.7c0 0-6.05 2.18-9.53-.2 8.25-18.95 10.13-69.5 10.13-69.5z"/><path fill="#5c9733" d="M487.28 138.1s-6.17 30.1.64 69.74c0 0 6.03 2.18 9.5-.2-8.22-18.96-10.14-69.55-10.14-69.55z"/><path fill="#5c9733" d="M466.93 157.9s-2.96 14.42.3 33.38c0 0 2.9 1.06 4.57-.08-3.96-9.1-4.87-33.3-4.87-33.3z"/><path fill="#5c9733" d="M463.13 177.7s-2.97 14.4.3 33.38c0 0 2.9 1.05 4.57-.1-3.96-9.07-4.87-33.27-4.87-33.27z"/><path fill="#5c9733" d="M508.7 139.94s-6.18 30.1.6 69.73c0 0 6.06 2.18 9.52-.18-8.23-18.97-10.13-69.56-10.13-69.56z"/><path fill="#407324" d="M518.2 147.78s-6.18 30.08.6 69.75c0 0 6.04 2.16 9.52-.2-8.23-19-10.13-69.55-10.13-69.55z"/></g><g><path fill="#79c043" d="M616.74 175.9s6.18 30.07-.62 69.72c0 0-6.03 2.18-9.5-.2 8.23-18.98 10.12-69.53 10.12-69.53z"/><path fill="#79c043" d="M610.57 170.8s6.17 30.12-.62 69.75c0 0-6.04 2.17-9.52-.2 8.25-18.98 10.14-69.54 10.14-69.54z"/><path fill="#79c043" d="M595.36 164.37s6.17 30.08-.62 69.75c0 0-6.05 2.16-9.5-.2 8.22-18.98 10.12-69.55 10.12-69.55z"/><path fill="#79c043" d="M634.8 178.2s6.2 30.07-.6 69.7c0 0-6.05 2.2-9.53-.2 8.25-18.96 10.13-69.5 10.13-69.5z"/><path fill="#5c9733" d="M598.7 181.4s-6.17 30.1.64 69.72c0 0 6.03 2.18 9.5-.18-8.22-18.96-10.14-69.55-10.14-69.55z"/><path fill="#5c9733" d="M578.36 201.2s-2.97 14.4.3 33.38c0 0 2.9 1.05 4.56-.08-3.96-9.1-4.86-33.3-4.86-33.3z"/><path fill="#5c9733" d="M574.55 221s-2.96 14.4.3 33.38c0 0 2.9 1.05 4.57-.1-3.96-9.07-4.87-33.27-4.87-33.27z"/><path fill="#5c9733" d="M620.1 183.24s-6.16 30.1.63 69.75c0 0 6.05 2.17 9.5-.2-8.2-19-10.12-69.56-10.12-69.56z"/><path fill="#407324" d="M629.6 191.08s-6.16 30.08.63 69.75c0 0 6.03 2.16 9.5-.2-8.22-19-10.12-69.55-10.12-69.55z"/></g><g><path fill="#79c043" d="M539.6 112.84s6.2 41.35-.62 95.82c0 0-6.03 3-9.5-.27 8.23-26.08 10.12-95.56 10.12-95.56z"/><path fill="#79c043" d="M533.43 105.86s6.17 41.37-.62 95.84c0 0-6.02 3-9.5-.27 8.24-26.1 10.13-95.57 10.13-95.57z"/><path fill="#79c043" d="M518.22 97s6.17 41.35-.6 95.84c0 0-6.07 2.98-9.53-.3C516.3 166.52 518.2 97 518.2 97z"/><path fill="#79c043" d="M557.67 116s6.18 41.34-.62 95.78c0 0-6.04 3.02-9.5-.24 8.23-26.07 10.12-95.54 10.12-95.54z"/><path fill="#5c9733" d="M521.57 120.4s-6.18 41.36.63 95.84c0 0 6.03 3 9.5-.27-8.2-26.08-10.13-95.57-10.13-95.57z"/><path fill="#5c9733" d="M501.22 147.6s-2.97 19.82.3 45.9c0 0 2.9 1.43 4.57-.13-3.97-12.48-4.88-45.77-4.88-45.77z"/><path fill="#5c9733" d="M497.4 174.84s-2.95 19.8.3 45.87c0 0 2.9 1.44 4.58-.12-3.96-12.5-4.87-45.74-4.87-45.74z"/><path fill="#5c9733" d="M542.98 122.95s-6.18 41.35.6 95.84c0 0 6.06 2.98 9.53-.28-8.22-26.07-10.12-95.57-10.12-95.57z"/><path fill="#407324" d="M552.47 133.7s-6.17 41.35.62 95.84c0 0 6.02 2.98 9.5-.3-8.23-26.04-10.13-95.54-10.13-95.54z"/></g><g><path fill="#79c043" d="M173.36 528.65s-6.96 52.88.72 122.58c0 0 6.8 3.84 10.72-.36-9.3-33.32-11.44-122.22-11.44-122.22z"/><path fill="#79c043" d="M180.32 519.75s-6.96 52.9.72 122.6c0 0 6.8 3.82 10.72-.36-9.3-33.38-11.44-122.25-11.44-122.25z"/><path fill="#79c043" d="M197.47 508.4s-6.96 52.9.72 122.6c0 0 6.77 3.83 10.7-.36-9.3-33.34-11.43-122.24-11.43-122.24z"/><path fill="#79c043" d="M153 532.7s-6.96 52.9.72 122.56c0 0 6.8 3.86 10.7-.34C155.15 621.58 153 532.7 153 532.7z"/><path fill="#5c9733" d="M193.7 538.35s6.95 52.92-.73 122.6c0 0-6.78 3.82-10.7-.36 9.28-33.35 11.42-122.25 11.42-122.25z"/><path fill="#5c9733" d="M216.63 573.15s3.34 25.35-.34 58.7c0 0-3.27 1.83-5.14-.16 4.46-16 5.47-58.55 5.47-58.55z"/><path fill="#5c9733" d="M220.92 607.96s3.34 25.34-.35 58.68c0 0-3.25 1.82-5.12-.17 4.45-15.94 5.47-58.5 5.47-58.5z"/><path fill="#407324" d="M169.58 541.6s6.96 52.9-.72 122.6c0 0-6.8 3.8-10.72-.37 9.3-33.32 11.44-122.24 11.44-122.24z"/><path fill="#5c9733" d="M158.86 555.36s6.96 52.9-.72 122.6c0 0-6.8 3.82-10.7-.37 9.28-33.36 11.42-122.24 11.42-122.24z"/></g><path fill="#93b933" d="M185.7 424.3s-6.97 108.75.7 251.96c0 0 6.8 7.85 10.72-.72-9.3-68.57-11.43-251.23-11.43-251.23z"/><path fill="#93b933" d="M213.54 467.7s-6.96 81.35.72 188.48c0 0 6.8 5.88 10.72-.53-9.3-51.3-11.44-187.96-11.44-187.96z"/><path fill="#7e421c" d="M157.03 465.62c0 1.44-1.44 2.6-3.22 2.6-1.78 0-3.22-1.16-3.22-2.6V427.2c0-1.45 1.44-2.62 3.23-2.62 1.8 0 3.23 1.17 3.23 2.6v38.44z"/><path fill="#7e421c" d="M131.32 517.32c0 1.44-1.44 2.6-3.23 2.6-1.8 0-3.23-1.16-3.23-2.6V478.9c0-1.45 1.44-2.62 3.22-2.62 1.78 0 3.22 1.17 3.22 2.6v38.44z"/><g><path fill="#93b933" d="M529.72 60.04s-4.66 73.15.48 169.47c0 0 4.58 5.3 7.2-.47-6.22-46.1-7.68-169-7.68-169z"/><path fill="#7e421c" d="M531.35 107.48c0 .97-.97 1.76-2.16 1.76-1.2 0-2.17-.8-2.17-1.76V81.63c0-.96.98-1.75 2.16-1.75 1.18 0 2.15.8 2.15 1.75v25.85z"/></g><g><path fill="#93b933" d="M503.24 70.23s-3.86 60.27.4 139.63c0 0 3.77 4.36 5.93-.37-5.13-38.03-6.33-139.27-6.33-139.27z"/><path fill="#7e421c" d="M504.58 109.3c0 .8-.8 1.45-1.8 1.45-.98 0-1.77-.65-1.77-1.44V88c0-.8.8-1.44 1.8-1.44.97 0 1.78.65 1.78 1.44v21.3z"/></g><path fill="#7e421c" d="M188.36 485.7c0 1.45-1.44 2.6-3.22 2.6-1.78 0-3.22-1.15-3.22-2.6V447.3c0-1.44 1.44-2.6 3.22-2.6 1.78 0 3.22 1.16 3.22 2.6v38.43z"/><path fill="#7e421c" d="M216.22 515.45c0 1.08-1.44 1.95-3.22 1.95-1.8 0-3.23-.9-3.23-1.95V486.7c0-1.1 1.44-1.97 3.23-1.97 1.78 0 3.22.9 3.22 1.96v28.75z"/><g><path fill="#93b933" d="M227.1 370.88s-6.34 99.1.65 229.6c0 0 6.2 7.18 9.76-.64-8.43-62.5-10.4-228.96-10.4-228.96z"/><g><path fill="#79c043" d="M315.97 418.12s-6.36 48.2.63 111.73c0 0 6.2 3.5 9.77-.33-8.45-30.4-10.4-111.4-10.4-111.4z"/><path fill="#79c043" d="M329.44 417.14s-6.33 48.22.65 111.75c0 0 6.18 3.47 9.75-.34-8.44-30.4-10.4-111.42-10.4-111.42z"/><path fill="#79c043" d="M337.94 399.67s-6.34 48.22.64 111.75c0 0 6.18 3.48 9.75-.32-8.45-30.4-10.4-111.43-10.4-111.43z"/><path fill="#79c043" d="M297.4 421.82s-6.34 48.22.65 111.7c0 0 6.2 3.5 9.76-.3-8.43-30.42-10.4-111.4-10.4-111.4z"/><path fill="#5c9733" d="M344.47 441.96s6.35 48.22-.65 111.75c0 0-6.2 3.47-9.75-.33 8.45-30.4 10.4-111.4 10.4-111.4z"/><path fill="#5c9733" d="M355.4 458.68s3.03 23.1-.32 53.48c0 0-2.98 1.68-4.68-.14 4.07-14.55 5-53.34 5-53.34z"/><path fill="#5c9733" d="M361.8 492.9s3.04 23.08-.32 53.46c0 0-2.97 1.68-4.68-.16 4.06-14.52 5-53.3 5-53.3z"/><path fill="#5c9733" d="M312.52 429.9s6.34 48.23-.65 111.74c0 0-6.2 3.48-9.75-.32 8.43-30.38 10.4-111.4 10.4-111.4z"/><path fill="#407324" d="M302.75 442.46s6.34 48.22-.65 111.73c0 0-6.2 3.47-9.77-.34 8.47-30.4 10.42-111.4 10.42-111.4z"/></g><g><path fill="#79c043" d="M267.63 445.46s-6.35 48.2.65 111.73c0 0 6.2 3.5 9.75-.34-8.45-30.4-10.4-111.4-10.4-111.4z"/><path fill="#79c043" d="M274 437.35s-6.37 48.2.64 111.73c0 0 6.2 3.48 9.77-.32-8.48-30.4-10.4-111.4-10.4-111.4z"/><path fill="#79c043" d="M289.6 427.02s-6.34 48.2.65 111.73c0 0 6.2 3.48 9.76-.33-8.44-30.4-10.4-111.4-10.4-111.4z"/><path fill="#79c043" d="M249.08 449.15s-6.34 48.22.65 111.7c0 0 6.2 3.5 9.75-.3-8.45-30.4-10.4-111.4-10.4-111.4z"/><path fill="#5c9733" d="M286.16 454.3s6.34 48.2-.65 111.74c0 0-6.18 3.46-9.77-.33 8.47-30.38 10.43-111.4 10.43-111.4z"/><path fill="#5c9733" d="M307.07 486.02s3.05 23.1-.3 53.48c0 0-2.97 1.68-4.7-.14 4.07-14.55 5-53.34 5-53.34z"/><path fill="#5c9733" d="M307.05 517.73s3.04 23.1-.3 53.48c0 0-2.97 1.68-4.67-.16 4.03-14.52 4.97-53.3 4.97-53.3z"/><path fill="#407324" d="M264.18 457.25s6.36 48.22-.65 111.73c0 0-6.2 3.48-9.75-.32 8.45-30.38 10.4-111.4 10.4-111.4z"/><path fill="#5c9733" d="M259.43 479.8s6.35 48.23-.65 111.76c0 0-6.2 3.46-9.77-.34 8.48-30.4 10.43-111.4 10.43-111.4z"/></g><path fill="#93b933" d="M294.57 359.67s-6.34 99.1.66 229.63c0 0 6.18 7.15 9.77-.67-8.47-62.48-10.43-228.96-10.43-228.96z"/><path fill="#93b933" d="M310.58 317.17s-6.34 99.1.66 229.62c0 0 6.18 7.15 9.75-.67-8.46-62.5-10.42-228.96-10.42-228.96z"/><path fill="#7e421c" d="M229.3 435.12c0 1.32-1.3 2.4-2.92 2.4-1.6 0-2.93-1.08-2.93-2.4V400.1c0-1.3 1.32-2.38 2.93-2.38 1.6 0 2.93 1.08 2.93 2.38v35.02z"/><path fill="#7e421c" d="M297 415.62c0 1.3-1.3 2.38-2.92 2.38-1.63 0-2.93-1.08-2.93-2.38v-35.04c0-1.3 1.3-2.38 2.93-2.38 1.6 0 2.93 1.08 2.93 2.38v35.04z"/><path fill="#7e421c" d="M313.04 375.33c0 1.3-1.32 2.4-2.94 2.4-1.6 0-2.93-1.1-2.93-2.4V340.3c0-1.3 1.32-2.37 2.93-2.37 1.62 0 2.94 1.06 2.94 2.38v35.03z"/><path fill="#93b933" d="M274.43 365.13s-6.34 99.1.65 229.62c0 0 6.2 7.15 9.77-.65-8.46-62.5-10.42-228.97-10.42-228.97z"/><path fill="#7e421c" d="M276.63 414.5c0 1.3-1.3 2.38-2.94 2.38-1.62 0-2.94-1.08-2.94-2.4v-35.02c0-1.3 1.32-2.38 2.93-2.38 1.62 0 2.93 1.08 2.93 2.38v35.03z"/></g><path fill="#fff" d="M605.47 315.2c8.58 35.7-28.55 118.57-92.84 191.42 57.86-55 111.43-129.28 92.84-191.42z"/><path fill="#8eb2de" d="M614.58 345.75c8.57 35.7-28.56 118.57-92.84 191.42 57.85-55 111.42-129.3 92.84-191.42z"/></svg>