<svg xmlns="http://www.w3.org/2000/svg" width="48" height="48" xmlns:xlink="http://www.w3.org/1999/xlink" version="1" viewBox="0 0 612 792" enable-background="new 0 0 612 792"><defs><defs><path d="M164.53 373.42h44.88v54.12h-44.87z"/></defs><radialGradient cx="178.274" cy="431.558" r="12.948" xlink:href="#a" gradientUnits="userSpaceOnUse" gradientTransform="matrix(1 0 0 1.203 0 -85.653)"/><radialGradient cx="155.236" cy="431.666" r="12.947" xlink:href="#b" gradientUnits="userSpaceOnUse" gradientTransform="matrix(1 0 0 1.203 0 -85.653)"/><radialGradient cx="167.065" cy="426.123" r="12.947" xlink:href="#c" gradientUnits="userSpaceOnUse" gradientTransform="matrix(1 0 0 1.203 0 -85.653)"/><radialGradient cx="155.143" cy="420.906" r="12.947" xlink:href="#d" gradientUnits="userSpaceOnUse" gradientTransform="matrix(1 0 0 1.203 0 -85.653)"/><radialGradient cx="201.058" cy="431.893" r="12.946" xlink:href="#e" gradientUnits="userSpaceOnUse" gradientTransform="matrix(1 0 0 1.203 0 -85.653)"/><radialGradient cx="189.508" cy="425.981" r="12.947" xlink:href="#f" gradientUnits="userSpaceOnUse" gradientTransform="matrix(1 0 0 1.203 0 -85.653)"/><radialGradient cx="212.42" cy="426.354" r="12.948" xlink:href="#g" gradientUnits="userSpaceOnUse" gradientTransform="matrix(1 0 0 1.203 0 -85.653)"/><radialGradient cx="200.453" cy="420.719" r="12.945" xlink:href="#h" gradientUnits="userSpaceOnUse" gradientTransform="matrix(1 0 0 1.203 0 -85.653)"/><radialGradient cx="212.328" cy="415.597" r="12.947" xlink:href="#i" gradientUnits="userSpaceOnUse" gradientTransform="matrix(1 0 0 1.203 0 -85.653)"/><radialGradient cx="177.423" cy="421.719" r="12.947" xlink:href="#j" gradientUnits="userSpaceOnUse" gradientTransform="matrix(1 0 0 1.203 0 -85.653)"/><radialGradient cx="166.06" cy="416.502" r="12.948" xlink:href="#k" gradientUnits="userSpaceOnUse" gradientTransform="matrix(1 0 0 1.203 0 -85.653)"/><radialGradient cx="188.785" cy="416.317" r="12.947" xlink:href="#l" gradientUnits="userSpaceOnUse" gradientTransform="matrix(1 0 0 1.203 0 -85.653)"/><radialGradient cx="200.148" cy="410.543" r="12.947" xlink:href="#m" gradientUnits="userSpaceOnUse" gradientTransform="matrix(1 0 0 1.203 0 -85.653)"/><radialGradient cx="154.512" cy="410.668" r="12.946" xlink:href="#n" gradientUnits="userSpaceOnUse" gradientTransform="matrix(1 0 0 1.203 0 -85.653)"/><radialGradient cx="177.423" cy="410.729" r="12.947" xlink:href="#o" gradientUnits="userSpaceOnUse" gradientTransform="matrix(1 0 0 1.203 0 -85.653)"/><radialGradient cx="189.25" cy="405.185" r="12.947" xlink:href="#p" gradientUnits="userSpaceOnUse" gradientTransform="matrix(1 0 0 1.203 0 -85.653)"/><radialGradient cx="165.455" cy="405.092" r="12.947" xlink:href="#q" gradientUnits="userSpaceOnUse" gradientTransform="matrix(1 0 0 1.203 0 -85.653)"/><radialGradient cx="177.331" cy="399.97" r="12.946" xlink:href="#r" gradientUnits="userSpaceOnUse" gradientTransform="matrix(1 0 0 1.203 0 -85.653)"/><radialGradient cx="211.951" cy="405.392" r="12.948" xlink:href="#s" gradientUnits="userSpaceOnUse" gradientTransform="matrix(1 0 0 1.203 0 -85.653)"/><radialGradient id="a" cx="178.274" cy="431.558" r="12.948" gradientTransform="matrix(1 0 0 1.203 0 -85.653)" gradientUnits="userSpaceOnUse"><stop offset="0" stop-color="#FFF462" stop-opacity=".95"/><stop offset=".116" stop-color="#FFF467" stop-opacity=".779"/><stop offset=".202" stop-color="#FFF570" stop-opacity=".651"/><stop offset=".302" stop-color="#FFF67E" stop-opacity=".36"/><stop offset=".426" stop-color="#FFF68B" stop-opacity="0"/></radialGradient><radialGradient id="L" cx="178.274" cy="431.558" r="12.948" xlink:href="#a" gradientUnits="userSpaceOnUse" gradientTransform="matrix(16.912 0 0 20.342 -2852.876 -7914.857)"/><radialGradient id="b" cx="155.236" cy="431.666" r="12.947" gradientTransform="matrix(1 0 0 1.203 0 -85.653)" gradientUnits="userSpaceOnUse"><stop offset="0" stop-color="#FFF462" stop-opacity=".95"/><stop offset=".116" stop-color="#FFF467" stop-opacity=".779"/><stop offset=".202" stop-color="#FFF570" stop-opacity=".651"/><stop offset=".302" stop-color="#FFF67E" stop-opacity=".36"/><stop offset=".426" stop-color="#FFF68B" stop-opacity="0"/></radialGradient><radialGradient id="K" cx="155.236" cy="431.666" r="12.947" xlink:href="#b" gradientUnits="userSpaceOnUse" gradientTransform="matrix(16.912 0 0 20.342 -2852.876 -7914.857)"/><radialGradient id="c" cx="167.065" cy="426.123" r="12.947" gradientTransform="matrix(1 0 0 1.203 0 -85.653)" gradientUnits="userSpaceOnUse"><stop offset="0" stop-color="#FFF462" stop-opacity=".95"/><stop offset=".116" stop-color="#FFF467" stop-opacity=".779"/><stop offset=".202" stop-color="#FFF570" stop-opacity=".651"/><stop offset=".302" stop-color="#FFF67E" stop-opacity=".36"/><stop offset=".426" stop-color="#FFF68B" stop-opacity="0"/></radialGradient><radialGradient id="J" cx="167.065" cy="426.123" r="12.947" xlink:href="#c" gradientUnits="userSpaceOnUse" gradientTransform="matrix(16.912 0 0 20.342 -2852.876 -7914.857)"/><radialGradient id="d" cx="155.143" cy="420.906" r="12.947" gradientTransform="matrix(1 0 0 1.203 0 -85.653)" gradientUnits="userSpaceOnUse"><stop offset="0" stop-color="#FFF462" stop-opacity=".95"/><stop offset=".116" stop-color="#FFF467" stop-opacity=".779"/><stop offset=".202" stop-color="#FFF570" stop-opacity=".651"/><stop offset=".302" stop-color="#FFF67E" stop-opacity=".36"/><stop offset=".426" stop-color="#FFF68B" stop-opacity="0"/></radialGradient><radialGradient id="I" cx="155.143" cy="420.906" r="12.947" xlink:href="#d" gradientUnits="userSpaceOnUse" gradientTransform="matrix(16.912 0 0 20.342 -2852.876 -7914.857)"/><radialGradient id="e" cx="201.058" cy="431.893" r="12.946" gradientTransform="matrix(1 0 0 1.203 0 -85.653)" gradientUnits="userSpaceOnUse"><stop offset="0" stop-color="#FFF462" stop-opacity=".95"/><stop offset=".116" stop-color="#FFF467" stop-opacity=".779"/><stop offset=".202" stop-color="#FFF570" stop-opacity=".651"/><stop offset=".302" stop-color="#FFF67E" stop-opacity=".36"/><stop offset=".426" stop-color="#FFF68B" stop-opacity="0"/></radialGradient><radialGradient id="H" cx="201.058" cy="431.893" r="12.946" xlink:href="#e" gradientUnits="userSpaceOnUse" gradientTransform="matrix(16.912 0 0 20.342 -2852.876 -7914.857)"/><radialGradient id="f" cx="189.508" cy="425.981" r="12.947" gradientTransform="matrix(1 0 0 1.203 0 -85.653)" gradientUnits="userSpaceOnUse"><stop offset="0" stop-color="#FFF462" stop-opacity=".95"/><stop offset=".116" stop-color="#FFF467" stop-opacity=".779"/><stop offset=".202" stop-color="#FFF570" stop-opacity=".651"/><stop offset=".302" stop-color="#FFF67E" stop-opacity=".36"/><stop offset=".426" stop-color="#FFF68B" stop-opacity="0"/></radialGradient><radialGradient id="G" cx="189.508" cy="425.981" r="12.947" xlink:href="#f" gradientUnits="userSpaceOnUse" gradientTransform="matrix(16.912 0 0 20.342 -2852.876 -7914.857)"/><radialGradient id="g" cx="212.42" cy="426.354" r="12.948" gradientTransform="matrix(1 0 0 1.203 0 -85.653)" gradientUnits="userSpaceOnUse"><stop offset="0" stop-color="#FFF462" stop-opacity=".95"/><stop offset=".116" stop-color="#FFF467" stop-opacity=".779"/><stop offset=".202" stop-color="#FFF570" stop-opacity=".651"/><stop offset=".302" stop-color="#FFF67E" stop-opacity=".36"/><stop offset=".426" stop-color="#FFF68B" stop-opacity="0"/></radialGradient><radialGradient id="F" cx="212.42" cy="426.354" r="12.948" xlink:href="#g" gradientUnits="userSpaceOnUse" gradientTransform="matrix(16.912 0 0 20.342 -2852.876 -7914.857)"/><radialGradient id="h" cx="200.453" cy="420.719" r="12.945" gradientTransform="matrix(1 0 0 1.203 0 -85.653)" gradientUnits="userSpaceOnUse"><stop offset="0" stop-color="#FFF462" stop-opacity=".95"/><stop offset=".116" stop-color="#FFF467" stop-opacity=".779"/><stop offset=".202" stop-color="#FFF570" stop-opacity=".651"/><stop offset=".302" stop-color="#FFF67E" stop-opacity=".36"/><stop offset=".426" stop-color="#FFF68B" stop-opacity="0"/></radialGradient><radialGradient id="E" cx="200.453" cy="420.719" r="12.945" xlink:href="#h" gradientUnits="userSpaceOnUse" gradientTransform="matrix(16.912 0 0 20.342 -2852.876 -7914.857)"/><radialGradient id="i" cx="212.328" cy="415.597" r="12.947" gradientTransform="matrix(1 0 0 1.203 0 -85.653)" gradientUnits="userSpaceOnUse"><stop offset="0" stop-color="#FFF462" stop-opacity=".95"/><stop offset=".116" stop-color="#FFF467" stop-opacity=".779"/><stop offset=".202" stop-color="#FFF570" stop-opacity=".651"/><stop offset=".302" stop-color="#FFF67E" stop-opacity=".36"/><stop offset=".426" stop-color="#FFF68B" stop-opacity="0"/></radialGradient><radialGradient id="D" cx="212.328" cy="415.597" r="12.947" xlink:href="#i" gradientUnits="userSpaceOnUse" gradientTransform="matrix(16.912 0 0 20.342 -2852.876 -7914.857)"/><radialGradient id="j" cx="177.423" cy="421.719" r="12.947" gradientTransform="matrix(1 0 0 1.203 0 -85.653)" gradientUnits="userSpaceOnUse"><stop offset="0" stop-color="#FFF462" stop-opacity=".95"/><stop offset=".116" stop-color="#FFF467" stop-opacity=".779"/><stop offset=".202" stop-color="#FFF570" stop-opacity=".651"/><stop offset=".302" stop-color="#FFF67E" stop-opacity=".36"/><stop offset=".426" stop-color="#FFF68B" stop-opacity="0"/></radialGradient><radialGradient id="C" cx="177.423" cy="421.719" r="12.947" xlink:href="#j" gradientUnits="userSpaceOnUse" gradientTransform="matrix(16.912 0 0 20.342 -2852.876 -7914.857)"/><radialGradient id="k" cx="166.06" cy="416.502" r="12.948" gradientTransform="matrix(1 0 0 1.203 0 -85.653)" gradientUnits="userSpaceOnUse"><stop offset="0" stop-color="#FFF462" stop-opacity=".95"/><stop offset=".116" stop-color="#FFF467" stop-opacity=".779"/><stop offset=".202" stop-color="#FFF570" stop-opacity=".651"/><stop offset=".302" stop-color="#FFF67E" stop-opacity=".36"/><stop offset=".426" stop-color="#FFF68B" stop-opacity="0"/></radialGradient><radialGradient id="B" cx="166.06" cy="416.502" r="12.948" xlink:href="#k" gradientUnits="userSpaceOnUse" gradientTransform="matrix(16.912 0 0 20.342 -2852.876 -7914.857)"/><radialGradient id="l" cx="188.785" cy="416.317" r="12.947" gradientTransform="matrix(1 0 0 1.203 0 -85.653)" gradientUnits="userSpaceOnUse"><stop offset="0" stop-color="#FFF462" stop-opacity=".95"/><stop offset=".116" stop-color="#FFF467" stop-opacity=".779"/><stop offset=".202" stop-color="#FFF570" stop-opacity=".651"/><stop offset=".302" stop-color="#FFF67E" stop-opacity=".36"/><stop offset=".426" stop-color="#FFF68B" stop-opacity="0"/></radialGradient><radialGradient id="A" cx="188.785" cy="416.317" r="12.947" xlink:href="#l" gradientUnits="userSpaceOnUse" gradientTransform="matrix(16.912 0 0 20.342 -2852.876 -7914.857)"/><radialGradient id="m" cx="200.148" cy="410.543" r="12.947" gradientTransform="matrix(1 0 0 1.203 0 -85.653)" gradientUnits="userSpaceOnUse"><stop offset="0" stop-color="#FFF462" stop-opacity=".95"/><stop offset=".116" stop-color="#FFF467" stop-opacity=".779"/><stop offset=".202" stop-color="#FFF570" stop-opacity=".651"/><stop offset=".302" stop-color="#FFF67E" stop-opacity=".36"/><stop offset=".426" stop-color="#FFF68B" stop-opacity="0"/></radialGradient><radialGradient id="z" cx="200.148" cy="410.543" r="12.947" xlink:href="#m" gradientUnits="userSpaceOnUse" gradientTransform="matrix(16.912 0 0 20.342 -2852.876 -7914.857)"/><radialGradient id="n" cx="154.512" cy="410.668" r="12.946" gradientTransform="matrix(1 0 0 1.203 0 -85.653)" gradientUnits="userSpaceOnUse"><stop offset="0" stop-color="#FFF462" stop-opacity=".95"/><stop offset=".116" stop-color="#FFF467" stop-opacity=".779"/><stop offset=".202" stop-color="#FFF570" stop-opacity=".651"/><stop offset=".302" stop-color="#FFF67E" stop-opacity=".36"/><stop offset=".426" stop-color="#FFF68B" stop-opacity="0"/></radialGradient><radialGradient id="y" cx="154.512" cy="410.668" r="12.946" xlink:href="#n" gradientUnits="userSpaceOnUse" gradientTransform="matrix(16.912 0 0 20.342 -2852.876 -7914.857)"/><radialGradient id="o" cx="177.423" cy="410.729" r="12.947" gradientTransform="matrix(1 0 0 1.203 0 -85.653)" gradientUnits="userSpaceOnUse"><stop offset="0" stop-color="#FFF462" stop-opacity=".95"/><stop offset=".116" stop-color="#FFF467" stop-opacity=".779"/><stop offset=".202" stop-color="#FFF570" stop-opacity=".651"/><stop offset=".302" stop-color="#FFF67E" stop-opacity=".36"/><stop offset=".426" stop-color="#FFF68B" stop-opacity="0"/></radialGradient><radialGradient id="x" cx="177.423" cy="410.729" r="12.947" xlink:href="#o" gradientUnits="userSpaceOnUse" gradientTransform="matrix(16.912 0 0 20.342 -2852.876 -7914.857)"/><radialGradient id="p" cx="189.25" cy="405.185" r="12.947" gradientTransform="matrix(1 0 0 1.203 0 -85.653)" gradientUnits="userSpaceOnUse"><stop offset="0" stop-color="#FFF462" stop-opacity=".95"/><stop offset=".116" stop-color="#FFF467" stop-opacity=".779"/><stop offset=".202" stop-color="#FFF570" stop-opacity=".651"/><stop offset=".302" stop-color="#FFF67E" stop-opacity=".36"/><stop offset=".426" stop-color="#FFF68B" stop-opacity="0"/></radialGradient><radialGradient id="w" cx="189.25" cy="405.185" r="12.947" xlink:href="#p" gradientUnits="userSpaceOnUse" gradientTransform="matrix(16.912 0 0 20.342 -2852.876 -7914.857)"/><radialGradient id="q" cx="165.455" cy="405.092" r="12.947" gradientTransform="matrix(1 0 0 1.203 0 -85.653)" gradientUnits="userSpaceOnUse"><stop offset="0" stop-color="#FFF462" stop-opacity=".95"/><stop offset=".116" stop-color="#FFF467" stop-opacity=".779"/><stop offset=".202" stop-color="#FFF570" stop-opacity=".651"/><stop offset=".302" stop-color="#FFF67E" stop-opacity=".36"/><stop offset=".426" stop-color="#FFF68B" stop-opacity="0"/></radialGradient><radialGradient id="v" cx="165.455" cy="405.092" r="12.947" xlink:href="#q" gradientUnits="userSpaceOnUse" gradientTransform="matrix(16.912 0 0 20.342 -2852.876 -7914.857)"/><radialGradient id="r" cx="177.331" cy="399.97" r="12.946" gradientTransform="matrix(1 0 0 1.203 0 -85.653)" gradientUnits="userSpaceOnUse"><stop offset="0" stop-color="#FFF462" stop-opacity=".95"/><stop offset=".116" stop-color="#FFF467" stop-opacity=".779"/><stop offset=".202" stop-color="#FFF570" stop-opacity=".651"/><stop offset=".302" stop-color="#FFF67E" stop-opacity=".36"/><stop offset=".426" stop-color="#FFF68B" stop-opacity="0"/></radialGradient><radialGradient id="u" cx="177.331" cy="399.97" r="12.946" xlink:href="#r" gradientUnits="userSpaceOnUse" gradientTransform="matrix(16.912 0 0 20.342 -2852.876 -7914.857)"/><radialGradient id="s" cx="211.951" cy="405.392" r="12.948" gradientTransform="matrix(1 0 0 1.203 0 -85.653)" gradientUnits="userSpaceOnUse"><stop offset="0" stop-color="#FFF462" stop-opacity=".95"/><stop offset=".116" stop-color="#FFF467" stop-opacity=".779"/><stop offset=".202" stop-color="#FFF570" stop-opacity=".651"/><stop offset=".302" stop-color="#FFF67E" stop-opacity=".36"/><stop offset=".426" stop-color="#FFF68B" stop-opacity="0"/></radialGradient><radialGradient id="t" cx="211.951" cy="405.392" r="12.948" xlink:href="#s" gradientUnits="userSpaceOnUse" gradientTransform="matrix(16.912 0 0 20.342 -2852.876 -7914.857)"/></defs><path fill="none" stroke="#f1e481" stroke-width="16.91" stroke-miterlimit="10" d="M688.02 132.3v633.4H-71V116.3" stroke-linecap="round" stroke-linejoin="round"/><path fill="#7e7112" d="M732.1 116.72C895.86 116.72 912.4 237 912.4 237c-133.17 7.47-155.44 117.8-155.44 117.8H732.1c-.02 0-24.9 0-24.9 0S683.88 244.5 553.27 237c.02 0 15.03-120.28 178.84-120.28z"/><path fill="url(#t)" d="M732.1 116.72C895.86 116.72 912.45 237 912.45 237c-133.2 7.47-155.47 117.8-155.47 117.8H707.2S683.88 244.5 553.27 237c.02 0 15.03-120.28 178.84-120.28z"/><path fill="#ebdd60" d="M731.45 116.4c155.24 0 170.95 97.4 170.95 97.4-95.6-106.06-253-103.76-340.47 0 0 0 14.25-97.4 169.52-97.4z"/><path fill="#fffcdf" d="M731.42 129c158.6 0 174.65 96.2 174.65 96.2-97.7-104.76-258.43-102.5-347.8 0 0 0 14.58-96.2 173.15-96.2z"/><path fill="#9a7900" d="M146.6 6.42c163.75 0 180.32 120.32 180.32 120.32-133.2 7.43-155.45 117.76-155.45 117.76H121.7S98.36 134.2-32.25 126.74c.02.02 15.04-120.32 178.83-120.32z"/><path fill="url(#u)" d="M146.62 6.42c163.76 0 180.3 120.32 180.3 120.32-133.2 7.43-155.45 117.76-155.45 117.76h-24.85c-.03 0-24.93 0-24.93 0S98.4 134.2-32.2 126.74c0 .02 15.03-120.32 178.82-120.32z"/><path fill="#ebdd60" d="M145.94 6.16c155.27 0 170.98 97.35 170.98 97.35-95.65-106.03-253-103.7-340.52 0 0 0 14.26-97.34 169.54-97.34z"/><path fill="#fffcdf" d="M145.94 18.76c158.57 0 174.65 96.13 174.65 96.13-97.7-104.7-258.45-102.46-347.85 0 .02 0 14.56-96.14 173.2-96.14z"/><path fill="#9a7900" d="M-54.2 110.64c163.73 0 180.3 120.32 180.3 120.32C-7.06 238.4-29.35 348.7-29.35 348.7H-54.2c-.04 0-24.9 0-24.9 0s-23.32-110.3-153.93-117.74c0 0 15-120.32 178.82-120.32z"/><path fill="url(#v)" d="M-54.2 110.64c163.73 0 180.3 120.32 180.3 120.32C-7.06 238.4-29.35 348.7-29.35 348.7H-54.2c-.04 0-24.9 0-24.9 0s-23.32-110.3-153.93-117.74c0 0 15-120.32 178.82-120.32z"/><path fill="#ebdd60" d="M-54.85 110.34c155.22 0 170.95 97.4 170.95 97.4-95.62-106.08-253.02-103.78-340.53 0 0 0 14.28-97.4 169.58-97.4z"/><path fill="#fffcdf" d="M-54.88 122.92c158.56 0 174.63 96.2 174.63 96.2-97.7-104.7-258.43-102.47-347.83 0 0 0 14.55-96.2 173.2-96.2z"/><path fill="#89740b" d="M348.2 112.54c163.77 0 180.3 120.3 180.3 120.3-133.17 7.47-155.43 117.78-155.43 117.78H323.3s-23.32-110.3-153.93-117.77c0 0 15.03-120.3 178.84-120.3z"/><path fill="url(#w)" d="M348.23 112.54c163.74 0 180.28 120.3 180.28 120.3-133.17 7.47-155.43 117.78-155.43 117.78H323.3S300 240.32 169.37 232.85c0 0 15.07-120.3 178.86-120.3z"/><path fill="#ebdd60" d="M347.55 112.23c155.24 0 170.96 97.42 170.96 97.42-95.6-106.07-252.97-103.8-340.5 0 .03 0 14.27-97.42 169.55-97.42z"/><path fill="#fffcdf" d="M347.53 124.83c158.6 0 174.64 96.2 174.64 96.2-97.67-104.74-258.4-102.47-347.8 0 0 0 14.55-96.2 173.16-96.2z"/><path fill="#9a7900" d="M148.18 225.27c163.76 0 180.3 120.3 180.3 120.3C195.28 353.05 173 463.4 173 463.4h-24.82c-.04 0-24.9 0-24.9 0S99.96 353.05-30.65 345.57c0 0 15.04-120.3 178.83-120.3z"/><path fill="url(#x)" d="M148.18 225.27c163.76 0 180.33 120.3 180.33 120.3-133.2 7.47-155.46 117.82-155.46 117.82h-49.76S99.96 353.05-30.65 345.57c0 0 15.04-120.3 178.83-120.3z"/><path fill="#ebdd60" d="M147.53 225c155.24 0 170.97 97.38 170.97 97.38-95.62-106.07-253.02-103.77-340.5 0 0 0 14.23-97.4 169.53-97.4z"/><path fill="#fffcdf" d="M147.5 237.57c158.6 0 174.65 96.2 174.65 96.2-97.7-104.76-258.43-102.5-347.8 0 0 0 14.55-96.2 173.15-96.2z"/><path fill="#89740b" d="M-239.27 224.04c163.74 0 180.3 120.3 180.3 120.3-133.2 7.47-155.46 117.8-155.46 117.8h-24.83c-.03 0-24.93 0-24.93 0s-23.27-110.3-153.88-117.8c-.04 0 15-120.3 178.8-120.3z"/><path fill="url(#y)" d="M-239.27 224.04c163.74 0 180.3 120.3 180.3 120.3-133.17 7.47-155.46 117.8-155.46 117.8h-24.83c-.03 0-24.9 0-24.9 0s-23.3-110.3-153.9-117.8c-.04 0 14.98-120.3 178.8-120.3z"/><path fill="#ebdd60" d="M-239.97 223.73C-84.72 223.73-69 321.15-69 321.15c-95.64-106.1-253-103.8-340.5 0 0 0 14.25-97.42 169.53-97.42z"/><path fill="#fffcdf" d="M-239.97 236.33c158.57 0 174.65 96.2 174.65 96.2-97.7-104.72-258.43-102.47-347.83 0 0 0 14.57-96.2 173.18-96.2z"/><path fill="#7f7111" d="M532.48 221.5c163.74 0 180.32 120.28 180.32 120.28-133.2 7.46-155.47 117.8-155.47 117.8h-24.85c-.03 0-24.9 0-24.9 0s-23.3-110.33-153.92-117.8c0 .02 15.03-120.28 178.82-120.28z"/><path fill="url(#z)" d="M532.48 221.5c163.78 0 180.35 120.28 180.35 120.28-133.23 7.46-155.5 117.8-155.5 117.8h-49.75s-23.3-110.33-153.9-117.8c0 .02 15-120.28 178.8-120.28z"/><path fill="#ebdd60" d="M531.8 221.2c155.28 0 171 97.4 171 97.4-95.63-106.08-253-103.78-340.5 0 0-.02 14.24-97.4 169.5-97.4z"/><path fill="#fffcdf" d="M531.8 233.78c158.62 0 174.64 96.2 174.64 96.2-97.68-104.74-258.38-102.47-347.78 0 0-.02 14.55-96.2 173.15-96.2z"/><path fill="#89740b" d="M340.33 338.97c163.72 0 180.28 120.3 180.28 120.3-133.14 7.45-155.43 117.8-155.43 117.8h-24.84c-.03 0-24.9 0-24.9 0s-23.32-110.33-153.93-117.8c.02 0 15.04-120.3 178.83-120.3z"/><path fill="url(#A)" d="M340.33 338.97c163.76 0 180.32 120.3 180.32 120.3-133.2 7.45-155.48 117.8-155.48 117.8h-24.84c-.03 0-24.9 0-24.9 0s-23.32-110.33-153.93-117.8c.02 0 15.04-120.3 178.83-120.3z"/><path fill="#ebdd60" d="M339.7 338.67c155.2 0 170.9 97.36 170.9 97.36-95.57-106.04-252.97-103.76-340.5 0 .03 0 14.27-97.36 169.6-97.36z"/><path fill="#fffcdf" d="M339.65 351.25c158.57 0 174.62 96.2 174.62 96.2-97.65-104.74-258.4-102.5-347.8 0 0 0 14.57-96.2 173.18-96.2z"/><path fill="#9a7900" d="M-44 342.7c163.75 0 180.3 120.34 180.3 120.34C3.13 470.46-19.16 580.8-19.16 580.8H-44c-.03 0-24.9 0-24.9 0S-92.2 470.5-222.8 463.05c0 0 15.02-120.33 178.83-120.33z"/><path fill="url(#B)" d="M-44 342.7c163.75 0 180.34 120.34 180.34 120.34C3.14 470.46-19.13 580.8-19.13 580.8H-68.9S-92.2 470.5-222.8 463.05c0 0 15.02-120.33 178.83-120.33z"/><path fill="#ebdd60" d="M-44.64 342.44c155.24 0 170.95 97.4 170.95 97.4-95.6-106.04-253-103.76-340.48 0 0 0 14.24-97.4 169.54-97.4z"/><path fill="#fffcdf" d="M-44.67 355.04c158.6 0 174.65 96.18 174.65 96.18-97.7-104.7-258.43-102.47-347.8 0 0-.02 14.53-96.18 173.15-96.18z"/><path fill="#9a7900" d="M148.18 448.85c163.76 0 180.3 120.3 180.3 120.3C195.28 576.6 173 686.93 173 686.93h-24.82c-.04 0-24.9 0-24.9 0S99.96 576.62-30.65 569.16c0 0 15.04-120.3 178.83-120.3z"/><path fill="url(#C)" d="M148.18 448.85c163.76 0 180.33 120.3 180.33 120.3-133.2 7.45-155.46 117.77-155.46 117.77h-49.76S99.96 576.62-30.65 569.16c0 0 15.04-120.3 178.83-120.3z"/><path fill="#ebdd60" d="M147.53 448.54c155.24 0 170.97 97.42 170.97 97.42-95.62-106.1-253.02-103.77-340.5 0 0 0 14.23-97.42 169.53-97.42z"/><path fill="#fffcdf" d="M147.5 461.13c158.6 0 174.65 96.2 174.65 96.2-97.7-104.73-258.43-102.48-347.8 0 0 0 14.55-96.2 173.15-96.2z"/><path fill="#7e7112" d="M738.45 324.26c163.76 0 180.35 120.34 180.35 120.34-133.2 7.45-155.5 117.76-155.5 117.76h-49.75s-23.3-110.3-153.94-117.76c.03.02 15.06-120.34 178.85-120.34z"/><path fill="url(#D)" d="M738.5 324.26c163.75 0 180.3 120.34 180.3 120.34-133.2 7.45-155.5 117.76-155.5 117.76h-24.8c-.05 0-24.94 0-24.94 0s-23.3-110.3-153.92-117.76c.02.02 15.06-120.34 178.85-120.34z"/><path fill="#ebdd60" d="M737.8 323.95c155.28 0 171 97.42 171 97.42-95.65-106.04-253.03-103.76-340.55 0 .02 0 14.28-97.42 169.56-97.42z"/><path fill="#fffcdf" d="M737.8 336.6c158.58 0 174.64 96.13 174.64 96.13-97.7-104.7-258.43-102.45-347.82 0 0-.02 14.56-96.13 173.2-96.13z"/><path fill="#7f7111" d="M537.66 428.5c163.74 0 180.3 120.28 180.3 120.28-133.18 7.46-155.47 117.78-155.47 117.78h-24.84c-.04 0-24.9 0-24.9 0s-23.33-110.3-153.94-117.78c0 .02 15.06-120.3 178.84-120.3z"/><path fill="url(#E)" d="M537.66 428.5c163.74 0 180.3 120.28 180.3 120.28-133.18 7.46-155.47 117.78-155.47 117.78h-24.84c-.04 0-24.9 0-24.9 0s-23.33-110.3-153.9-117.78c0 .02 15.02-120.3 178.8-120.3z"/><path fill="#ebdd60" d="M537 428.18c155.23 0 170.94 97.42 170.94 97.42-95.6-106.08-252.98-103.8-340.48 0 0 0 14.25-97.42 169.54-97.42z"/><path fill="#fffcdf" d="M536.97 440.78c158.58 0 174.63 96.16 174.63 96.16-97.7-104.7-258.38-102.47-347.78 0 0 0 14.55-96.16 173.15-96.16z"/><path fill="#7e7112" d="M740.03 543.12c163.75 0 180.33 120.3 180.33 120.3-133.2 7.47-155.5 117.82-155.5 117.82h-24.83c-.04 0-24.88 0-24.88 0S691.83 670.9 561.2 663.44c.02 0 15.03-120.32 178.83-120.32z"/><path fill="url(#F)" d="M740.03 543.12c163.75 0 180.35 120.3 180.35 120.3C787.16 670.9 764.9 781.25 764.9 781.25h-49.75S691.83 670.9 561.2 663.44c.02 0 15.03-120.32 178.83-120.32z"/><path fill="#ebdd60" d="M739.4 542.8c155.24 0 170.95 97.4 170.95 97.4-95.64-106.06-253.02-103.75-340.5 0 0 0 14.27-97.4 169.55-97.4z"/><path fill="#fffcdf" d="M739.37 555.4c158.6 0 174.63 96.2 174.63 96.2-97.7-104.73-258.43-102.48-347.8 0 0 .02 14.55-96.2 173.17-96.2z"/><path fill="#89740b" d="M352.57 535.54c163.75 0 180.32 120.3 180.32 120.3-133.2 7.47-155.46 117.8-155.46 117.8H327.67s-23.3-110.3-153.92-117.8c0 0 15.03-120.3 178.82-120.3z"/><path fill="url(#G)" d="M352.6 535.54c163.72 0 180.3 120.3 180.3 120.3-133.17 7.47-155.46 117.8-155.46 117.8H352.6c-.03 0-24.9 0-24.9 0s-23.3-110.3-153.95-117.8c0 0 15.05-120.3 178.86-120.3z"/><path fill="#ebdd60" d="M351.93 535.23c155.24 0 170.95 97.42 170.95 97.42-95.62-106.1-253-103.8-340.5 0 0 0 14.25-97.42 169.55-97.42z"/><path fill="#fffcdf" d="M351.93 547.82c158.55 0 174.6 96.18 174.6 96.18-97.65-104.72-258.43-102.46-347.8 0 0 0 14.57-96.18 173.2-96.18z"/><path fill="#7f7111" d="M547.87 655.8c163.74 0 180.3 120.3 180.3 120.3C595 783.58 572.72 893.9 572.72 893.9h-24.85c-.03 0-24.9 0-24.9 0s-23.33-110.3-153.9-117.8c.03 0 15.03-120.3 178.8-120.3z"/><path fill="url(#H)" d="M547.87 655.8c163.74 0 180.34 120.3 180.34 120.3-133.2 7.47-155.45 117.8-155.45 117.8h-49.78s-23.33-110.3-153.9-117.8c.03 0 15.03-120.3 178.8-120.3z"/><path fill="#ebdd60" d="M547.2 655.5c155.25 0 170.98 97.4 170.98 97.4-95.62-106.06-253-103.76-340.5 0 0 0 14.28-97.4 169.53-97.4z"/><path fill="#fffcdf" d="M547.18 668.08c158.62 0 174.67 96.2 174.67 96.2-97.7-104.7-258.42-102.5-347.8 0 0 0 14.55-96.2 173.13-96.2z"/><path fill="#89740b" d="M-228.6 432.3c163.74 0 180.3 120.32 180.3 120.32-133.2 7.46-155.48 117.8-155.48 117.8h-24.82c-.04 0-24.9 0-24.9 0s-23.34-110.32-153.95-117.8c.02 0 15.04-120.3 178.85-120.3z"/><path fill="url(#I)" d="M-228.6 432.3c163.74 0 180.3 120.32 180.3 120.32-133.2 7.46-155.44 117.8-155.44 117.8h-49.76s-23.32-110.32-153.93-117.8c.02 0 15.05-120.3 178.83-120.3z"/><path fill="#ebdd60" d="M-229.26 432.02c155.23 0 170.96 97.38 170.96 97.38-95.62-106.02-253-103.77-340.5 0 0 0 14.25-97.38 169.54-97.38z"/><path fill="#fffcdf" d="M-229.28 444.67c158.6 0 174.65 96.13 174.65 96.13-97.7-104.74-258.43-102.44-347.8 0 0-.02 14.53-96.13 173.15-96.13z"/><path fill="#9a7900" d="M-26.98 538.43c163.74 0 180.3 120.28 180.3 120.28C20.14 666.2-2.15 776.5-2.15 776.5h-24.83c-.03 0-24.9 0-24.9 0S-75.2 666.22-205.83 658.7c0 .03 15.03-120.27 178.84-120.27z"/><path fill="url(#J)" d="M-26.98 538.43c163.74 0 180.3 120.28 180.3 120.28C20.14 666.2-2.15 776.5-2.15 776.5h-24.83c-.03 0-24.9 0-24.9 0S-75.2 666.22-205.83 658.7c0 .03 15.03-120.27 178.84-120.27z"/><path fill="#ebdd60" d="M-27.64 538.14c155.24 0 170.96 97.4 170.96 97.4-95.65-106.07-253.02-103.77-340.48 0 0 0 14.24-97.4 169.52-97.4z"/><path fill="#fff68b" d="M-27.67 550.7c158.6 0 174.65 96.2 174.65 96.2-97.7-104.7-258.43-102.45-347.8 0 0 0 14.55-96.2 173.15-96.2z"/><path fill="#89740b" d="M-227.03 651.18c163.74 0 180.3 120.3 180.3 120.3-133.17 7.47-155.46 117.8-155.46 117.8h-24.83c-.02 0-24.9 0-24.9 0s-23.32-110.3-153.94-117.8c0 .03 15.03-120.3 178.84-120.3z"/><path fill="url(#K)" d="M-227.03 651.18c163.74 0 180.3 120.3 180.3 120.3-133.17 7.47-155.46 117.8-155.46 117.8h-24.83c-.02 0-24.9 0-24.9 0s-23.32-110.3-153.94-117.8c0 .03 15.03-120.3 178.84-120.3z"/><path fill="#ebdd60" d="M-227.67 650.88c155.23 0 170.94 97.4 170.94 97.4-95.65-106.08-253.02-103.78-340.5 0 0 0 14.25-97.4 169.56-97.4z"/><path fill="#fffcdf" d="M-227.7 663.46c158.56 0 174.64 96.2 174.64 96.2-97.68-104.7-258.45-102.47-347.8 0-.02 0 14.52-96.2 173.15-96.2z"/><path fill="#9a7900" d="M162.54 648.95c163.8 0 180.34 120.3 180.34 120.3-133.2 7.5-155.47 117.82-155.47 117.82h-49.76S114.32 776.75-16.3 769.27c.03 0 15.08-120.32 178.84-120.32z"/><path fill="url(#L)" d="M162.54 648.95c163.8 0 180.38 120.3 180.38 120.3-133.2 7.5-155.5 117.82-155.5 117.82H137.67s-23.36-110.32-153.94-117.8c0 0 15.04-120.32 178.8-120.32z"/><path fill="#ebdd60" d="M161.9 648.68c155.24 0 171 97.4 171 97.4-95.66-106.08-253.03-103.8-340.55 0 0 0 14.26-97.4 169.54-97.4z"/><path fill="#fffcdf" d="M161.9 661.25c158.6 0 174.64 96.17 174.64 96.17-97.7-104.7-258.43-102.45-347.83 0 0 0 14.56-96.17 173.2-96.17z"/><path fill="none" stroke="#76723f" stroke-width="16.8" stroke-miterlimit="10" d="M695.2 135.63V781.6H-82.5V119.77" stroke-linecap="round" stroke-linejoin="round"/></svg>