<svg xmlns="http://www.w3.org/2000/svg" width="48" height="48" xmlns:xlink="http://www.w3.org/1999/xlink"><defs><linearGradient id="e"><stop offset="0" stop-opacity=".577"/><stop offset="1" stop-opacity="0"/></linearGradient><linearGradient id="d"><stop offset="0" stop-color="#590b08"/><stop offset="1" stop-color="#590b08" stop-opacity="0"/></linearGradient><linearGradient id="c"><stop offset="0" stop-color="#676c72"/><stop offset="1" stop-color="#2a2c2e"/></linearGradient><radialGradient id="a" cx="27.462" cy="64.743" r="12.032" fx="27.462" fy="64.743" gradientUnits="userSpaceOnUse"><stop offset=".096" stop-color="#eaeef1"/><stop offset=".815" stop-color="#a0a8b2"/></radialGradient><linearGradient x1="29.336" x2="15.586" y1="66.927" y2="82.927" gradientUnits="userSpaceOnUse"><stop offset=".096" stop-color="#EAEEF1"/><stop offset=".815" stop-color="#A0A8B2"/></linearGradient><linearGradient x1="23.532" x2="23.532" y1="63.395" y2="55.327" gradientUnits="userSpaceOnUse" gradientTransform="matrix(1.035 0 0 1.035 -.33 -50.997)"><stop offset="0" stop-color="#fff" stop-opacity="0"/><stop offset=".472" stop-color="#E86712"/><stop offset=".8" stop-color="#D52E0C"/><stop offset="1" stop-color="#CB1009"/></linearGradient><radialGradient cx="27.462" cy="64.743" r="12.032" xlink:href="#a" gradientUnits="userSpaceOnUse" fx="27.462" fy="64.743" gradientTransform="matrix(1.035 0 0 1.035 -.33 -39.745)"/><radialGradient id="b" cx="27.462" cy="64.743" r="12.032" gradientUnits="userSpaceOnUse" fy="64.743" fx="27.462"><stop offset=".096" stop-color="#eaeef1" stop-opacity=".502"/><stop offset=".815" stop-color="#A0A8B2"/></radialGradient><radialGradient cx="27.462" cy="64.743" r="12.032" xlink:href="#b" gradientUnits="userSpaceOnUse" fx="27.462" fy="64.743" gradientTransform="matrix(1.035 0 0 1.035 -.33 -39.745)"/><radialGradient id="g" cx="19.915" cy="65.94" r="12.032" xlink:href="#a" gradientUnits="userSpaceOnUse" gradientTransform="matrix(1.486 .292 -.257 1.307 7.017 -66.278)" fx="19.915" fy="65.94"/><linearGradient id="h" x1="24.142" x2="24.142" y1="23.458" y2="47.997" xlink:href="#c" gradientUnits="userSpaceOnUse" gradientTransform="translate(-.571 -2.759)"/><linearGradient x1="26.001" x2="25.75" y1="12.847" y2="15.228" xlink:href="#d" gradientUnits="userSpaceOnUse"/><radialGradient id="f" cx="23.238" cy="38.714" r="20.286" xlink:href="#e" fx="23.238" fy="38.714" gradientTransform="matrix(1 0 0 .458 0 20.993)" gradientUnits="userSpaceOnUse"/></defs><g><path fill="url(#f)" d="M43.52 38.7a20.3 9.3 0 1 1-40.57 0 20.3 9.3 0 1 1 40.57 0z" color="#000" overflow="visible" enable-background="accumulate"/><path fill="url(#g)" stroke="url(#h)" d="M12.88 27.9c-2.85 2.12-6.7 3.82-11.95 5.5 8.15 4.15 6.18 2.55 10.23 4.6 4.53 2.3 2.85 2.1 11.94 6.74 9.8-4.63 8.48-4.53 12.38-6.54 3.02-1.43 2.15-.34 10.73-4.4C41 32 37.5 30.13 34.7 28.2c-4.73-3.28-7.22-6.98-11.1-6.98-4 0-7.4 3.98-10.72 6.7z"/><g fill="none" stroke="#737880" stroke-width=".725"><path d="M35.48 38.2c-1.26-1.7-3.7-5.17-5.9-9.48-2.36-4.55-4.75-7.8-6.97-7.46"/><path d="M29.44 41.62c-4.88-4.25-7.83-11.33-12-13.08-3.53-1.5-6.5 2.65-10.17 2.5"/><path d="M41.04 36.13c-3.8-2.9-4.96-5.84-8.53-9.6"/><path d="M16.95 41.43c5.57-4.17 7.62-10.6 12.62-12.7 3.7-1.57 6.53 2.5 10.35 2.5"/><path d="M11.16 38c2.1-2.33 3.17-4.5 6.3-9.46 2.32-3.7 4.12-6.62 5.98-7.13 1.3-.34 2.97.48 2.97.48"/><path d="M5.86 35.8c3.4-2.13 6.94-7.75 9.27-9.85"/></g><path fill="none" stroke="#ef2929" d="M23.52 21.33V1.9" stroke-linecap="round"/><path fill="#ef2929" d="M23.55.1l-2.7 5.22H26z"/></g></svg>