<svg xmlns="http://www.w3.org/2000/svg" width="48" height="48" xmlns:xlink="http://www.w3.org/1999/xlink"><defs><linearGradient id="a"><stop offset="0" stop-color="#fff"/><stop offset="1" stop-color="#dfdfdc"/></linearGradient><radialGradient id="b" cx="24.449" cy="9.491" r="15.191" xlink:href="#a" fx="24.449" fy="9.491" gradientUnits="userSpaceOnUse"/></defs><g fill-rule="evenodd"><path d="M-.1 30.66V47.9h48.2V30.67H-.1zm23.8 1.37c9.87 0 17.9 3.08 17.9 6.9 0 3.83-8.03 6.95-17.9 6.95-9.9 0-17.92-3.12-17.92-6.94 0-3.83 8.02-6.9 17.9-6.9z" overflow="visible" enable-background="accumulate"/><path fill="#729fcf" stroke="#204a87" stroke-width="1.276" d="M18.42 34.9c1.82-.16 3.75-.24 5.74-.24 1.4 0 2.77.04 4.1.12" overflow="visible" enable-background="accumulate"/><path fill="url(#b)" stroke="#2e3436" stroke-width=".774" d="M38.86 16.73a14.83 14.83 0 1 1-29.65 0 14.83 14.83 0 1 1 29.66 0z" transform="matrix(1.291 0 0 1.291 -7.348 -1.126)" overflow="visible" enable-background="accumulate"/></g></svg>