<svg xmlns="http://www.w3.org/2000/svg" width="50pt" height="50pt" viewBox="0 0 50 50"><path stroke="#000" stroke-width="0.5" d="M22.5 1.25v12.5h5V1.25z"/><path stroke="#000" stroke-width="0.5" d="M17.5 13.75L25 22.5l7.5-8.75z"/><path id="Path_0" fill="#fff" d="M37.5 48.75v-24.2H13.3v24.2z"/><path d="M19.36 30.6v-6.04H13.3v6.05zM25.4 36.66V30.6h-6.04v6.05zM31.45 42.7v-6.05H25.4v6.05zM37.5 48.75V42.7h-6.05v6.05zM31.45 30.6v-6.04H25.4v6.05zM37.5 36.66V30.6h-6.05v6.05zM19.36 42.7v-6.05H13.3v6.05zM25.4 48.75V42.7h-6.04v6.05z"/><path fill="#fff" d="M18.14 26.25l-.23 3.1-.86-1.94-.25-1.48 1-.6z"/><path fill="#fff" d="M30.54 26.1l-.25 3.1-.88-1.93-.24-1.5 1.02-.58z"/><path fill="#fff" d="M24.48 32.06l-.23 3.1-.88-1.94-.24-1.5 1.02-.58z"/><path fill="#fff" d="M36.87 32l-.24 3.1-.87-1.93-.24-1.5 1-.58z"/><path fill="#fff" d="M37.02 44l-.25 3.1-.87-1.93-.24-1.5 1.02-.58z"/><path fill="#fff" d="M30.63 38.2l-.24 3.1-.88-1.93-.25-1.5 1.02-.6z"/><path fill="#fff" d="M24.48 44.16l-.23 3.1-.88-1.95-.24-1.48 1.02-.6z"/><path fill="#fff" d="M18.1 38.3l-.25 3.1-.87-1.94-.23-1.5 1-.58z"/><path fill="#f8fcf8" d="M18 32.16l-.24 3.1-.87-1.95-.25-1.48 1.02-.6z"/><path fill="#f8fcf8" d="M24.63 26.1l-.24 3.1-.88-1.93-.25-1.5 1.02-.58z"/><path fill="#f8fcf8" d="M37.06 25.91l-.23 3.1-.88-1.93-.24-1.5 1.02-.57z"/><path fill="#f8fcf8" d="M36.97 38.2l-.24 3.1-.88-1.93-.23-1.5 1-.6z"/><path fill="#f8fcf8" d="M30.54 31.96l-.25 3.1-.88-1.94-.24-1.5 1.02-.58z"/><path fill="#f8fcf8" d="M24.54 38.05l-.25 3.1-.88-1.93-.24-1.5 1.02-.58z"/><path fill="#f8fcf8" d="M18 44.63l-.24 3.1-.87-1.93-.25-1.5 1.02-.58z"/><path fill="#f8fcf8" d="M30.58 44.2l-.24 3.1-.87-1.93-.24-1.5 1.02-.6z"/></svg>