<svg xmlns="http://www.w3.org/2000/svg" width="48" height="48" xmlns:xlink="http://www.w3.org/1999/xlink"><defs><linearGradient id="h"><stop offset="0" stop-color="#ffbb3e" stop-opacity=".45"/><stop offset="1" stop-color="#ffbb3e" stop-opacity="0"/></linearGradient><linearGradient id="g"><stop offset="0" stop-color="#ffbb3e" stop-opacity=".45"/><stop offset="1" stop-color="#ffbb3e" stop-opacity="0"/></linearGradient><linearGradient id="f"><stop offset="0" stop-color="#f22" stop-opacity="0"/><stop offset=".531" stop-color="#f22" stop-opacity="0"/><stop offset="1" stop-color="#f80000" stop-opacity=".207"/></linearGradient><linearGradient id="e"><stop offset="0" stop-color="#fff47a" stop-opacity="0"/><stop offset=".887" stop-color="#fff" stop-opacity="0"/><stop offset="1" stop-color="#e7a982"/></linearGradient><linearGradient id="d"><stop offset="0" stop-color="#c17d11"/><stop offset="1" stop-color="#c17d11" stop-opacity="0"/></linearGradient><linearGradient id="c"><stop offset="0" stop-color="#f22" stop-opacity="0"/><stop offset=".887" stop-color="#ffdd75" stop-opacity="0"/><stop offset="1" stop-color="#ffb875"/></linearGradient><linearGradient id="b"><stop offset="0" stop-color="#e9a77e"/><stop offset=".214" stop-color="#e48d59"/><stop offset=".414" stop-color="#c07041"/><stop offset=".811" stop-color="#733828"/><stop offset="1" stop-color="#301712"/></linearGradient><linearGradient id="a"><stop offset="0" stop-color="#841e1c"/><stop offset=".583" stop-color="#a12629"/><stop offset=".799" stop-color="#f83c3b"/><stop offset="1" stop-color="#ffffd8"/></linearGradient><radialGradient cx="24.357" cy="23.786" r="22.643" xlink:href="#a" fx="24.357" fy="23.786" gradientUnits="userSpaceOnUse"/><radialGradient id="i" cx="18.991" cy="17.594" r="22.728" xlink:href="#b" fx="18.991" fy="17.594" gradientUnits="userSpaceOnUse" gradientTransform="matrix(1.178 .018 -.019 1.275 -3.037 -5.183)"/><radialGradient id="j" cx="23.739" cy="23.15" r="22.728" xlink:href="#c" fx="23.739" fy="23.15" gradientUnits="userSpaceOnUse"/><linearGradient x1="39.497" x2="29.193" y1="40.323" y2="28.302" xlink:href="#d" gradientUnits="userSpaceOnUse"/><radialGradient cx="21.415" cy="20.524" r="22.728" xlink:href="#e" gradientUnits="userSpaceOnUse" fx="21.415" fy="20.524" gradientTransform="matrix(.716 .627 -.659 .752 19.613 -8.336)"/><radialGradient cx="24.042" cy="23.352" r="22.728" xlink:href="#f" gradientUnits="userSpaceOnUse" fx="24.042" fy="23.352"/><radialGradient cx="23.436" cy="13.049" r="9.697" xlink:href="#g" fx="23.436" fy="13.049" gradientTransform="matrix(1 0 0 .469 0 6.932)" gradientUnits="userSpaceOnUse"/><radialGradient id="k" cx="23.436" cy="13.049" r="9.697" xlink:href="#h" gradientUnits="userSpaceOnUse" gradientTransform="matrix(1.448 0 0 .734 -10.194 .89)" fx="23.436" fy="13.049"/><radialGradient id="l" cx="23.436" cy="13.049" r="9.697" xlink:href="#g" gradientUnits="userSpaceOnUse" gradientTransform="matrix(1.883 -.359 .252 1.32 -22.458 23.844)" fx="23.436" fy="13.049"/></defs><g color="#000"><path fill="url(#i)" d="M46.77 23.35a22.73 22.73 0 1 1-45.46 0 22.73 22.73 0 1 1 45.47 0z" overflow="visible" enable-background="accumulate"/><path fill="url(#j)" d="M46.77 23.35a22.73 22.73 0 1 1-45.46 0 22.73 22.73 0 1 1 45.47 0z" overflow="visible" enable-background="accumulate"/><path fill="url(#k)" d="M37.78 10.47c0 3.94-6.3 7.12-14.04 7.12-7.76 0-14.04-3.2-14.04-7.13 0-3.93 6.28-7.12 14.04-7.12 7.75 0 14.04 3.2 14.04 7.12z" overflow="visible" enable-background="accumulate"/><path fill="url(#l)" d="M43.2 29.16c1.36 7.07-5.72 14.36-15.8 16.3-10.1 1.9-19.36-2.26-20.7-9.33-1.36-7.07 5.72-14.36 15.8-16.28 10.1-1.93 19.36 2.24 20.7 9.3z" overflow="visible" enable-background="accumulate"/></g></svg>