<svg xmlns="http://www.w3.org/2000/svg" width="48" height="48" xmlns:xlink="http://www.w3.org/1999/xlink"><defs><linearGradient id="c"><stop offset="0" stop-color="#3465a4"/><stop offset="1" stop-color="#3465a4" stop-opacity="0"/></linearGradient><linearGradient id="b"><stop offset="0" stop-color="#fff" stop-opacity="0"/><stop offset=".652" stop-color="#fff" stop-opacity="0"/><stop offset="1" stop-color="#fff"/></linearGradient><linearGradient id="a"><stop offset="0" stop-color="#4e9a06"/><stop offset="1" stop-color="#4e9a06" stop-opacity="0"/></linearGradient><linearGradient id="e" x1="23.623" x2="22.932" y1="20.903" y2="10.194" xlink:href="#a" gradientUnits="userSpaceOnUse"/><radialGradient id="d" cx="22.214" cy="22.071" r="21.5" xlink:href="#b" fx="22.214" fy="22.071" gradientUnits="userSpaceOnUse"/><linearGradient id="f" x1="23.623" x2="24.986" y1="20.903" y2="10.389" xlink:href="#c" gradientUnits="userSpaceOnUse"/></defs><g><path fill="url(#d)" fill-rule="evenodd" d="M43.7 22.07a21.5 21.5 0 1 1-43 0 21.5 21.5 0 1 1 43 0z" transform="matrix(1.116 0 0 1.116 -.797 -.638)" overflow="visible" enable-background="accumulate"/><path fill="none" stroke="#ef2929" stroke-width=".9973500000000001" d="M47.5 24a23.5 23.5 0 1 1-47 0 23.5 23.5 0 1 1 47 0z" stroke-linecap="round" overflow="visible" enable-background="accumulate"/><path fill="none" stroke="url(#e)" stroke-width="1.517" d="M43.7 22.07a21.5 21.5 0 1 1-43 0 21.5 21.5 0 1 1 43 0z" transform="matrix(1.093 0 0 .398 -.281 15.221)" stroke-linecap="round" overflow="visible" enable-background="accumulate"/><path fill="none" stroke="url(#f)" stroke-width="1.517" d="M43.7 22.07a21.5 21.5 0 1 1-43 0 21.5 21.5 0 1 1 43 0z" transform="matrix(0 -1.093 .398 0 15.221 48.281)" stroke-linecap="round" overflow="visible" enable-background="accumulate"/><path fill="none" stroke="#000" stroke-width="2" stroke-dashoffset="2.6" d="M14.33 13c7.98-.1 18.1 2.1 24.94 6.96" stroke-dasharray="2,2"/><path fill-rule="evenodd" stroke="#fff" d="M44.46 21a2.75 2.75 0 1 1-5.5 0 2.75 2.75 0 1 1 5.5 0z" stroke-linecap="round" overflow="visible" enable-background="accumulate"/><path fill-rule="evenodd" d="M32.22 20.9c.16-.63 3.56-7.5 3.56-7.5l5.38 7.32-8.94.2z"/><path fill-rule="evenodd" stroke="#fff" d="M15.57 12.64a2.75 2.75 0 1 1-5.5 0 2.75 2.75 0 1 1 5.5 0z" stroke-linecap="round" overflow="visible" enable-background="accumulate"/></g></svg>