<svg xmlns="http://www.w3.org/2000/svg" width="50pt" height="50pt" viewBox="0 0 50 50"><path fill="#C0C0C0" fill-opacity=".5" stroke="#000" stroke-width="0.5" d="M10 37.5l5 2.5v5l-5 2.5L5 45v-5z"/><path fill="#fff" stroke="#f8fcf8" stroke-width="0.5" d="M10 40l2.5 1.25v2.5L10 45l-2.5-1.25v-2.5z"/><path fill="#C0C0C0" fill-opacity=".5" stroke="#000" stroke-width="0.5" d="M25 37.5l5 2.5v5l-5 2.5-5-2.5v-5z"/><path fill="#fff" stroke="#f8fcf8" stroke-width="0.5" d="M25 40l2.5 1.25v2.5L25 45l-2.5-1.25v-2.5z"/><path fill="#C0C0C0" fill-opacity=".5" stroke="#000" stroke-width="0.5" d="M40 37.5l5 2.5v5l-5 2.5-5-2.5v-5z"/><path fill="#fff" stroke="#f8fcf8" stroke-width="0.5" d="M40 40l2.5 1.25v2.5L40 45l-2.5-1.25v-2.5z"/><path id="Path_6" fill="#C0C0C0" fill-opacity=".5" stroke="#000" stroke-width="0.5" d="M17.5 26.25l5 2.5v5l-5 2.5-5-2.5v-5z"/><path id="Path_7" fill="#fff" stroke="#f8fcf8" stroke-width="0.5" d="M17.5 28.75L20 30v2.5l-2.5 1.25L15 32.5V30z"/><path id="Path_8" fill="#C0C0C0" fill-opacity=".5" stroke="#000" stroke-width="0.5" d="M32.5 26.25l5 2.5v5l-5 2.5-5-2.5v-5z"/><path id="Path_9" fill="#fff" stroke="#f8fcf8" stroke-width="0.5" d="M32.5 28.75L35 30v2.5l-2.5 1.25L30 32.5V30z"/><path fill="#C0C0C0" fill-opacity=".5" stroke="#000" stroke-width="0.5" d="M10 15l5 2.5v5L10 25l-5-2.5v-5z"/><path fill="#fff" stroke="#f8fcf8" stroke-width="0.5" d="M10 17.5l2.5 1.25v2.5L10 22.5l-2.5-1.25v-2.5z"/><path fill="#C0C0C0" fill-opacity=".5" stroke="#000" stroke-width="0.5" d="M25 15l5 2.5v5L25 25l-5-2.5v-5z"/><path fill="#fff" stroke="#f8fcf8" stroke-width="0.5" d="M25 17.5l2.5 1.25v2.5L25 22.5l-2.5-1.25v-2.5z"/><path fill="#C0C0C0" fill-opacity=".5" stroke="#000" stroke-width="0.5" d="M40 15l5 2.5v5L40 25l-5-2.5v-5z"/><path fill="#fff" stroke="#f8fcf8" stroke-width="0.5" d="M40 17.5l2.5 1.25v2.5L40 22.5l-2.5-1.25v-2.5z"/><path fill="#C0C0C0" fill-opacity=".5" stroke="#000" stroke-width="0.5" d="M17.5 3.75l5 2.5v5l-5 2.5-5-2.5v-5z"/><path fill="#fff" stroke="#f8fcf8" stroke-width="0.5" d="M17.5 6.25L20 7.5V10l-2.5 1.25L15 10V7.5z"/><path fill="#C0C0C0" fill-opacity=".5" stroke="#000" stroke-width="0.5" d="M32.5 3.75l5 2.5v5l-5 2.5-5-2.5v-5z"/><path fill="#fff" stroke="#f8fcf8" stroke-width="0.5" d="M32.5 6.25L35 7.5V10l-2.5 1.25L30 10V7.5z"/></svg>