<svg xmlns="http://www.w3.org/2000/svg" width="48" height="48" xmlns:xlink="http://www.w3.org/1999/xlink"><defs><linearGradient id="a"><stop offset="0" stop-color="#fb0000"/><stop offset="1" stop-color="#a40000"/></linearGradient><radialGradient id="b" cx="4.889" cy="5.107" r="28.51" xlink:href="#a" fx="4.889" fy="5.107" gradientTransform="matrix(1 0 0 .978 0 .113)" gradientUnits="userSpaceOnUse"/></defs><g><path fill="url(#b)" fill-rule="evenodd" stroke="#fff" stroke-width="2.387" d="M27.3 20.07c-3 4.93-8.98-7.97-13.55-4.27-4.56 3.7 8.46 11.5 3.43 14.1C12.14 32.53 9.9 17.44 6.38 19c-1.63.7.4 4.28.4 7.47-.03 2.88-2 5.45-4.82 5.32-2.3-.12-4.5-2.55-4.37-5.55.2-4.72 3.64-10.85 2.25-11.63-.85-.48-4.05 5.36-7.46 8.76-1.96 1.95-4 3.1-5.68 1.8-2.3-1.8-1.74-5.13.6-7.26 2.32-2.13 6.4-3.06 4.95-5.5-1.34-2.24-3.92.5-6.8 1.5-3.38 1.2-7.05.72-7.8-2.36-.75-3.06 3.08-4.74 6.7-5.25 3.1-.44 6.07.32 5.72-2.36-.26-1.9-4.05-.26-7.03-1.77-1.6-.8-3.83-3.86-3.24-5.84 1-3.37 4.14-3.8 7.18-2.08 2.1 1.2 4.33 4.84 5.07 3.5.93-1.7-5.32-6.94-9.48-9.54-2.72-1.7-.53-6.82 1.1-8.22 1.56-1.36 5.9-1.63 6.77 1.68 1.47 5.56 3.24 10 6.5 8.3C-.1-11.6-5.43-20.95.35-21.57c5.77-.62 2.62 10.9 5.47 11.8 3.4 1.04 2.77-4.4 4.65-7.98 1.1-2.13 4.43-3.6 6.4-2.66 2.7 1.3 2.7 4.56 1.05 6.78-1.57 2.1-4.8 3.13-2.64 5 4.46 3.84 9-11.15 13.57-2.07C32.35-3.72 14.3-6.1 16.05-.66c1.15 3.6 4.7-.96 9.5-1.4 2.5-.25 6.57 1.93 6.65 5.45.07 3-2.66 4.63-5.6 4.37-2.87-.24-5.94-2.37-6.9.27-1.92 5.37 10.57 7.13 7.6 12.05z" transform="matrix(.838 0 0 .838 19.936 19.114)" overflow="visible" enable-background="accumulate"/></g></svg>