<svg xmlns="http://www.w3.org/2000/svg" width="48" height="48" xmlns:xlink="http://www.w3.org/1999/xlink"><defs><linearGradient id="e"><stop offset="0" stop-color="#af0d0d"/><stop offset="1" stop-color="#ef2929"/></linearGradient><marker orient="auto" overflow="visible"><path fill-rule="evenodd" stroke="#000" stroke-width=".2pt" d="M1.15 0L-.58 1v-2l1.73 1z"/></marker><marker orient="auto" overflow="visible"><path fill-rule="evenodd" stroke="#000" stroke-width=".4pt" d="M2.3 0l-3.45 2v-4L2.3 0z"/></marker><marker orient="auto" overflow="visible"><path fill-rule="evenodd" stroke="#000" stroke-width=".8pt" d="M4.62 0L-2.3 4v-8l6.92 4z"/></marker><linearGradient id="d"><stop offset="0" stop-color="#2e3436" stop-opacity=".523"/><stop offset="1" stop-color="#2e3436" stop-opacity="0"/></linearGradient><linearGradient id="c"><stop offset="0" stop-color="#8f5902"/><stop offset="1" stop-color="#8f5902" stop-opacity="0"/></linearGradient><linearGradient id="b"><stop offset="0" stop-color="#cd953e"/><stop offset="1" stop-color="#8e6525"/></linearGradient><linearGradient id="a"><stop offset="0" stop-color="#e9b96e"/><stop offset="1" stop-color="#b78538"/></linearGradient><linearGradient id="g" x1=".207" x2="47.793" y1="27.954" y2="27.954" xlink:href="#a" gradientUnits="userSpaceOnUse" gradientTransform="matrix(0 1.008 1.008 0 5.001 -.201)"/><linearGradient id="h" x1="42.681" x2="9.874" y1="20.002" y2="8.637" xlink:href="#b" gradientUnits="userSpaceOnUse" gradientTransform="matrix(0 1.008 1.008 0 5.001 -.201)"/><linearGradient id="i" x1="18.839" x2="25.102" y1="18.958" y2="27.393" xlink:href="#c" gradientUnits="userSpaceOnUse"/><linearGradient id="j" x1="18.839" x2="24.698" y1="18.958" y2="22.645" xlink:href="#c" gradientUnits="userSpaceOnUse" gradientTransform="translate(.202 -8.637)"/><linearGradient id="f" x1="40.507" x2="40.406" y1="43.555" y2="3.301" xlink:href="#d" gradientUnits="userSpaceOnUse"/><linearGradient id="l" x1=".451" x2="13.321" y1="39.688" y2="39.188" xlink:href="#e" gradientUnits="userSpaceOnUse"/><linearGradient id="m" x1=".498" x2="13.641" y1="24.234" y2="24.519" xlink:href="#e" gradientUnits="userSpaceOnUse"/><linearGradient id="k" x1=".451" x2="13.321" y1="8.902" y2="9.045" xlink:href="#e" gradientUnits="userSpaceOnUse"/></defs><g><path fill="url(#f)" d="M27.88 47.95l13.94-2.53V4.12l-3.18-.82z"/><path fill="url(#g)" fill-rule="evenodd" stroke="#8f5902" d="M27.74.5v46.95L38.6 44.6V2.87z" color="#000" stroke-linejoin="bevel" overflow="visible" enable-background="accumulate"/><path fill="#e9b96e" fill-rule="evenodd" stroke="#8f5902" d="M10.62 7.62v31.34l17.26 8.5V.5z" color="#000" stroke-linejoin="bevel" overflow="visible" enable-background="accumulate"/><path fill="url(#h)" fill-rule="evenodd" stroke="#8f5902" d="M12.8 9.35v27.93l12.9 6.42V3.97z" color="#000" stroke-linejoin="bevel" overflow="visible" enable-background="accumulate"/><path fill="none" stroke="#8f5902" d="M25.38 15.88l-12.83 2.04"/><path fill="none" stroke="#8f5902" d="M12.86 28.5l12.82 2.44"/><path fill="#eeca91" d="M13.32 36.95l6.48-1.02 5.42 1.73.06 5.3z"/><path fill="#492d01" d="M13.32 9.57l5.73.6 6.22-1.97V4.53z"/><path fill="#653f01" d="M13.42 18.22l5.22.56 6.48-.56.1-1.88z"/><path fill="#eeca91" d="M13.32 28.04l5.97-.8 5.77.45.05 2.53z" color="#000" overflow="visible" enable-background="accumulate"/><path fill="none" stroke="#e9b96e" d="M11.8 29.1L26.6 32"/><path fill="none" stroke="#e9b96e" d="M11.8 17.15l14.8-2.9"/><path fill="none" stroke="#f1d4a4" d="M28.85 1.67l.05 44.52 8.84-2.33-.1-40.17z" color="#000" overflow="visible" enable-background="accumulate"/><path fill="url(#i)" d="M18.6 18.86v8.43l6.45.4.05-9.4z" color="#000" overflow="visible" enable-background="accumulate"/><path fill="url(#j)" d="M18.8 10.22l.14 4.85 6.2-1.26V8.2z" color="#000" overflow="visible" enable-background="accumulate"/><path fill="url(#k)" stroke="#a40000" d="M3.94.98l-3 1.84c3.7 6.08 8.42 9.22 14.76 10.06l-.32 3.94 7.8-4.64-7.13-6.2-.18 3.37C10.53 8.65 7.2 6.37 3.94.98z" style="text-indent:0;text-align:start;line-height:normal;text-transform:none;block-progression:tb;-inkscape-font-specification:Sans" color="#000" overflow="visible" enable-background="accumulate" font-family="Sans"/><path fill="url(#l)" stroke="#a40000" d="M3.94 47.6l-3-1.83c3.7-6.08 8.42-9.22 14.76-10.06l-.32-3.93 7.8 4.64-7.13 6.2-.18-3.36c-5.34.7-8.67 2.98-11.93 8.37z" style="text-indent:0;text-align:start;line-height:normal;text-transform:none;block-progression:tb;-inkscape-font-specification:Sans" color="#000" overflow="visible" enable-background="accumulate" font-family="Sans"/><path fill="url(#m)" stroke="#a40000" d="M1.02 27.75L1 21.13l15.52 1.63.17-3.95 7.16 5.58L16 29.66l.26-3.37z" style="text-indent:0;text-align:start;line-height:normal;text-transform:none;block-progression:tb;-inkscape-font-specification:Sans" color="#000" overflow="visible" enable-background="accumulate" font-family="Sans"/><path fill="none" stroke="#fcaf3e" stroke-width=".5" d="M3.75 2.03L1.83 3.05c3.33 5.5 8.6 8.7 14.63 9.16l-.33 3.3 5.67-3.42-5.13-4.68-.02 2.76C10.8 9.66 6.7 6.9 3.75 2.03z" style="text-indent:0;text-align:start;line-height:normal;text-transform:none;block-progression:tb;-inkscape-font-specification:Sans" color="#000" overflow="visible" enable-background="accumulate" font-family="Sans"/><path fill="none" stroke="#fcaf3e" stroke-width=".5" d="M1.7 27.05l.08-5.1 15.46 1.6.12-3.3 5.28 4.06-5.8 3.93.16-2.8z" style="text-indent:0;text-align:start;line-height:normal;text-transform:none;block-progression:tb;-inkscape-font-specification:Sans" color="#000" overflow="visible" enable-background="accumulate" font-family="Sans"/><path fill="none" stroke="#fcaf3e" stroke-width=".5" d="M3.75 46.45l-1.92-1c3.33-5.5 8.6-8.7 14.63-9.18L16.13 33l5.67 3.4-5.13 4.68-.02-2.76c-5.86.5-9.95 3.27-12.9 8.13z" style="text-indent:0;text-align:start;line-height:normal;text-transform:none;block-progression:tb;-inkscape-font-specification:Sans" color="#000" overflow="visible" enable-background="accumulate" font-family="Sans"/></g></svg>