<svg xmlns="http://www.w3.org/2000/svg" width="48" height="48" xmlns:xlink="http://www.w3.org/1999/xlink"><defs><linearGradient id="i"><stop offset="0"/><stop offset="1" stop-opacity="0"/></linearGradient><linearGradient id="j"><stop offset="0" stop-color="#fff"/><stop offset="1" stop-color="#ccc"/></linearGradient><linearGradient id="c"><stop offset="0" stop-color="#de9523"/><stop offset="1" stop-color="#a36d18"/></linearGradient><linearGradient id="f"><stop offset="0" stop-color="#a0670c"/><stop offset="1" stop-color="#a0670c" stop-opacity="0"/></linearGradient><linearGradient id="b"><stop offset="0" stop-color="#fbf0e0"/><stop offset="1" stop-color="#f0ce99"/></linearGradient><linearGradient id="a"><stop offset="0"/><stop offset=".196"/><stop offset="1" stop-opacity="0"/></linearGradient><linearGradient id="g"><stop offset="0" stop-color="#fff"/><stop offset="1" stop-color="#fff" stop-opacity=".686"/></linearGradient><linearGradient id="h"><stop offset="0" stop-color="#eaba6f"/><stop offset="1" stop-color="#b97a1b"/></linearGradient><linearGradient id="d"><stop offset="0" stop-color="#e9b96e"/><stop offset="1" stop-color="#f1d19e"/></linearGradient><linearGradient id="e"><stop offset="0" stop-color="#875a13"/><stop offset="1" stop-color="#d79020"/></linearGradient><radialGradient id="k" cx="22.93" cy="35.373" r="17.577" xlink:href="#a" gradientUnits="userSpaceOnUse" gradientTransform="matrix(1 0 0 .333 0 23.582)" fx="22.93" fy="35.373"/><linearGradient id="r" x1="30.062" x2="17.696" y1="13.445" y2="12.334" xlink:href="#b" gradientUnits="userSpaceOnUse" gradientTransform="matrix(1.019 0 0 1.019 -.01 4.382)"/><linearGradient id="q" x1="36.289" x2="47.066" y1="14.662" y2="15.268" xlink:href="#c" gradientUnits="userSpaceOnUse" gradientTransform="matrix(1.019 0 0 1.019 -.01 4.382)"/><linearGradient id="p" x1="25.381" x2="24.119" y1="24.721" y2="16.17" xlink:href="#d" gradientUnits="userSpaceOnUse" gradientTransform="matrix(1.019 0 0 1.006 -.01 4.705)"/><linearGradient id="n" x1="16.149" x2="34.194" y1="12.637" y2="12.637" xlink:href="#e" gradientUnits="userSpaceOnUse" gradientTransform="matrix(1.019 0 0 1.059 -.01 4.341)"/><linearGradient id="o" x1="21.907" x2="22.072" y1="9.758" y2="16.021" xlink:href="#f" gradientUnits="userSpaceOnUse" gradientTransform="matrix(1.019 0 0 1.019 -.01 4.382)"/><linearGradient id="m" x1="18.707" x2="30.015" y1="19.912" y2="47.388" xlink:href="#g" gradientUnits="userSpaceOnUse" gradientTransform="matrix(1.019 0 0 1.019 -.01 4.382)"/><linearGradient id="l" x1="24.99" x2="24.99" y1="34.005" y2="22.585" xlink:href="#h" gradientUnits="userSpaceOnUse" gradientTransform="matrix(1.019 0 0 1.019 -.01 4.382)"/><radialGradient cx="23.944" cy="20.8" r="6.429" xlink:href="#i" gradientUnits="userSpaceOnUse" gradientTransform="matrix(1.353 0 0 .636 -8.459 3.413)" fx="23.944" fy="20.8"/><radialGradient cx="21.579" cy="9.026" r="9.586" xlink:href="#j" gradientUnits="userSpaceOnUse" gradientTransform="matrix(.749 0 0 .394 6.227 10.093)" fx="21.579" fy="9.026"/><radialGradient cx="23.944" cy="20.8" r="6.429" xlink:href="#i" gradientUnits="userSpaceOnUse" gradientTransform="matrix(1.353 0 0 .636 -8.459 3.413)" fx="23.944" fy="20.8"/><radialGradient cx="21.579" cy="9.811" r="9.586" xlink:href="#j" gradientUnits="userSpaceOnUse" gradientTransform="matrix(.749 0 0 .394 6.227 10.093)" fx="21.579" fy="9.811"/></defs><g><path fill="url(#k)" d="M40.5 35.37a17.58 5.86 0 1 1-35.15 0 17.58 5.86 0 1 1 35.16 0z" transform="matrix(1.423 0 0 1.423 -8.958 -10.725)" opacity=".57" display="block" overflow="visible"/><rect width="32.596" height="23.563" x="7.597" y="19.955" fill="url(#l)" stroke="#a0670c" ry="2.441" rx="2.471" display="block" overflow="visible"/><rect width="30.38" height="21.486" x="8.653" y="20.942" fill="none" stroke="url(#m)" rx="1.309" opacity=".481" display="block" overflow="visible" ry="1.31"/><path fill="url(#n)" fill-rule="evenodd" stroke="url(#o)" d="M8.93 21.25l5.15-6.94 19.16-.1 5.32 6.9-29.63.15z"/><path fill="url(#p)" stroke="#a0670c" d="M39 21.03l5.3 7.33H4.03l4.75-7.34H39z" stroke-linecap="round" stroke-linejoin="round" display="block" overflow="visible"/><path fill="url(#q)" stroke="#a0670c" d="M33.47 14.18l4.78 7.06 9.2 4.47-8.27-9.08-5.7-2.44z" stroke-linecap="round" stroke-linejoin="round" display="block" overflow="visible"/><path fill="#f8e8cf" stroke="#a0670c" d="M13.87 14.3l-4.05 6.84-9.3 4.47 8.26-9.08 5.1-2.23z" stroke-linecap="round" stroke-linejoin="round" display="block" overflow="visible"/><path fill="none" stroke="#f4e3ca" d="M37.73 21.14l4.54 6.17H5.75L9.97 21l27.76.14z" display="block" overflow="visible"/><path fill="none" stroke="url(#r)" d="M9.83 21.07l3.45-5.9 20.87-.07 3.92 5.97H9.83z" opacity=".88" stroke-linecap="round" stroke-linejoin="round"/><path fill="none" stroke="#fff" stroke-width="4" d="M3.04-1.44c7.03 6.65 13.8 14.36 13.93 21.94"/><path fill="none" stroke="#4e9a06" stroke-width="2" d="M3.04-1.44c7.03 6.65 13.8 14.36 13.93 21.94"/><path fill="none" stroke="#fff" stroke-width="4" d="M13.6-2.03c5.75 7.08 8.13 16.9 8.08 22.6"/><path fill="none" stroke="#4e9a06" stroke-width="2" d="M13.6-2.03c5.75 7.08 8.13 16.9 8.08 22.6"/><path fill="#4e9a06" fill-rule="evenodd" d="M13.86 10.87L7.4 7.97l5.57-4 .9 6.9z"/><path fill="#4e9a06" fill-rule="evenodd" d="M20.92 13.66l-4.97-5.02 6.63-1.73-1.66 6.76z"/><path fill="none" stroke="#fff" stroke-width="4" d="M45.7-1.44C38.65 5.2 31.9 12.92 31.75 20.5"/><path fill="none" stroke="#4e9a06" stroke-width="2" d="M45.7-1.44C38.65 5.2 31.9 12.92 31.75 20.5"/><path fill="none" stroke="#fff" stroke-width="4" d="M35.12-2.03c-5.74 7.08-8.12 16.9-8.06 22.6"/><path fill="none" stroke="#4e9a06" stroke-width="2" d="M35.12-2.03c-5.74 7.08-8.12 16.9-8.06 22.6"/><path fill="#4e9a06" fill-rule="evenodd" d="M34.87 10.87l6.45-2.9-5.56-4-.9 6.9z"/><path fill="#4e9a06" fill-rule="evenodd" d="M27.8 13.66l4.98-5.02-6.63-1.73 1.66 6.76z"/></g></svg>