<svg xmlns="http://www.w3.org/2000/svg" width="48" height="48" xmlns:xlink="http://www.w3.org/1999/xlink"><defs><linearGradient id="k"><stop offset="0" stop-color="#efad29"/><stop offset="1" stop-color="#ef2929"/></linearGradient><radialGradient cx="21.579" cy="9.811" r="9.586" fy="9.811" fx="21.579" gradientTransform="matrix(.749 0 0 .394 6.227 10.093)" gradientUnits="userSpaceOnUse" xlink:href="#a"/><radialGradient cx="23.944" cy="20.8" r="6.429" fy="20.8" fx="23.944" gradientTransform="matrix(1.353 0 0 .636 -8.459 3.413)" gradientUnits="userSpaceOnUse" xlink:href="#b"/><radialGradient cx="21.579" cy="9.026" r="9.586" fy="9.026" fx="21.579" gradientTransform="matrix(.749 0 0 .394 6.227 10.093)" gradientUnits="userSpaceOnUse" xlink:href="#a"/><radialGradient cx="23.944" cy="20.8" r="6.429" fy="20.8" fx="23.944" gradientTransform="matrix(1.353 0 0 .636 -8.459 3.413)" gradientUnits="userSpaceOnUse" xlink:href="#b"/><linearGradient x1="24.99" x2="24.99" y1="34.005" y2="22.585" gradientTransform="matrix(1.019 0 0 1.019 -.01 -.807)" gradientUnits="userSpaceOnUse" xlink:href="#c"/><linearGradient x1="18.707" x2="30.015" y1="19.912" y2="47.388" gradientTransform="matrix(1.019 0 0 1.019 -.01 -.807)" gradientUnits="userSpaceOnUse" xlink:href="#d"/><linearGradient x1="21.907" x2="22.072" y1="9.758" y2="16.021" gradientTransform="matrix(1.019 0 0 1.019 -.01 -.807)" gradientUnits="userSpaceOnUse" xlink:href="#e"/><linearGradient x1="16.149" x2="34.194" y1="12.637" y2="12.637" gradientTransform="matrix(1.019 0 0 1.059 -.01 -.848)" gradientUnits="userSpaceOnUse" xlink:href="#f"/><linearGradient x1="25.381" x2="24.119" y1="24.721" y2="16.17" gradientTransform="matrix(1.019 0 0 1.006 -.01 -.484)" gradientUnits="userSpaceOnUse" xlink:href="#g"/><linearGradient x1="36.289" x2="47.066" y1="14.662" y2="15.268" gradientTransform="matrix(1.019 0 0 1.019 -.01 -.807)" gradientUnits="userSpaceOnUse" xlink:href="#h"/><linearGradient x1="30.062" x2="17.696" y1="13.445" y2="12.334" gradientTransform="matrix(1.019 0 0 1.019 -.01 -.807)" gradientUnits="userSpaceOnUse" xlink:href="#i"/><radialGradient id="l" cx="22.93" cy="35.373" r="17.577" fy="35.373" fx="22.93" gradientTransform="matrix(1 0 0 .333 0 23.582)" gradientUnits="userSpaceOnUse" xlink:href="#j"/><linearGradient id="f"><stop offset="0" stop-color="#875a13"/><stop offset="1" stop-color="#d79020"/></linearGradient><linearGradient id="g"><stop offset="0" stop-color="#e9b96e"/><stop offset="1" stop-color="#f1d19e"/></linearGradient><linearGradient id="c"><stop offset="0" stop-color="#eaba6f"/><stop offset="1" stop-color="#b97a1b"/></linearGradient><linearGradient id="d"><stop offset="0" stop-color="#fff"/><stop offset="1" stop-color="#fff" stop-opacity=".686"/></linearGradient><linearGradient id="j"><stop offset="0"/><stop offset=".196"/><stop offset="1" stop-opacity="0"/></linearGradient><linearGradient id="i"><stop offset="0" stop-color="#fbf0e0"/><stop offset="1" stop-color="#f0ce99"/></linearGradient><linearGradient id="e"><stop offset="0" stop-color="#a0670c"/><stop offset="1" stop-color="#a0670c" stop-opacity="0"/></linearGradient><linearGradient id="h"><stop offset="0" stop-color="#de9523"/><stop offset="1" stop-color="#a36d18"/></linearGradient><linearGradient id="a"><stop offset="0" stop-color="#fff"/><stop offset="1" stop-color="#ccc"/></linearGradient><linearGradient id="b"><stop offset="0"/><stop offset="1" stop-opacity="0"/></linearGradient><linearGradient id="r" x1="30.062" x2="17.696" y1="13.445" y2="12.334" xlink:href="#i" gradientUnits="userSpaceOnUse" gradientTransform="matrix(1.019 0 0 1.019 .006 4.489)"/><linearGradient id="q" x1="36.289" x2="47.066" y1="14.662" y2="15.268" xlink:href="#h" gradientUnits="userSpaceOnUse" gradientTransform="matrix(1.019 0 0 1.019 .006 4.489)"/><linearGradient id="t" x1="25.381" x2="24.119" y1="24.721" y2="16.17" xlink:href="#g" gradientUnits="userSpaceOnUse" gradientTransform="matrix(1.019 0 0 1.006 .006 4.812)"/><linearGradient id="o" x1="16.149" x2="34.194" y1="12.637" y2="12.637" xlink:href="#f" gradientUnits="userSpaceOnUse" gradientTransform="matrix(1.019 0 0 1.059 .006 4.447)"/><linearGradient id="p" x1="21.907" x2="22.072" y1="9.758" y2="16.021" xlink:href="#e" gradientUnits="userSpaceOnUse" gradientTransform="matrix(1.019 0 0 1.019 .006 4.489)"/><linearGradient id="n" x1="18.707" x2="30.015" y1="19.912" y2="47.388" xlink:href="#d" gradientUnits="userSpaceOnUse" gradientTransform="matrix(1.019 0 0 1.019 .006 4.489)"/><linearGradient id="m" x1="24.99" x2="24.99" y1="34.005" y2="22.585" xlink:href="#c" gradientUnits="userSpaceOnUse" gradientTransform="matrix(1.019 0 0 1.019 .006 4.489)"/><radialGradient id="s" cx="23.543" cy="21.387" r="12.78" xlink:href="#k" fx="23.543" fy="21.387" gradientTransform="matrix(.862 .003 -.005 1.54 3.363 -12.439)" gradientUnits="userSpaceOnUse"/></defs><g><path fill="url(#l)" d="M40.5 35.37a17.58 5.86 0 1 1-35.15 0 17.58 5.86 0 1 1 35.16 0z" transform="matrix(1.423 0 0 1.423 -8.943 -10.618)" opacity=".57" color="#000" display="block" overflow="visible"/><rect width="32.596" height="23.563" x="7.612" y="20.062" fill="url(#m)" stroke="#a0670c" color="#000" ry="2.441" rx="2.471" display="block" overflow="visible"/><rect width="30.38" height="21.486" x="8.669" y="21.049" fill="none" stroke="url(#n)" ry="1.31" rx="1.309" color="#000" display="block" overflow="visible" opacity=".481"/><path fill="url(#o)" fill-rule="evenodd" stroke="url(#p)" d="M8.95 21.36l5.14-6.95 19.15-.1 5.32 6.92-29.62.14z"/><path fill="url(#q)" stroke="#a0670c" d="M33.5 14.3l4.76 7.05 9.2 4.47-8.26-9.1-5.7-2.43z" color="#000" stroke-linecap="round" stroke-linejoin="round" display="block" overflow="visible"/><path fill="#f8e8cf" stroke="#a0670c" d="M13.9 14.4l-4.07 6.84-9.3 4.47 8.26-9.07 5.1-2.24z" color="#000" stroke-linecap="round" stroke-linejoin="round" display="block" overflow="visible"/><path fill="none" stroke="url(#r)" d="M9.84 21.18l3.45-5.9 20.87-.07 3.9 5.98H9.85z" opacity=".88" stroke-linecap="round" stroke-linejoin="round"/><path fill="url(#s)" stroke="#740000" d="M18.53.47v9.35H11.3l9.56 13h5.57l9.44-12.9H28.4V.43z"/><path fill="url(#t)" stroke="#a0670c" d="M39.02 21.13l5.3 7.34H4.03l4.76-7.34h30.22z" color="#000" stroke-linecap="round" stroke-linejoin="round" display="block" overflow="visible"/><path fill="none" stroke="#edd400" stroke-width=".5" d="M19.33 1.24v9.3h-6.6l7.68 10.8h6.47l7.7-10.7h-6.93V1.18z"/><path fill="none" stroke="#f4e3ca" d="M37.75 21.25l4.54 6.17H5.75l4.22-6.3 27.77.13z" color="#000" display="block" overflow="visible"/></g></svg>