<svg xmlns="http://www.w3.org/2000/svg" width="48" height="48" xmlns:xlink="http://www.w3.org/1999/xlink"><defs><linearGradient id="a"><stop offset="0" stop-color="#696969"/><stop offset="1"/></linearGradient><linearGradient id="w" x1="18.788" x2="31.02" y1="3.108" y2="31.996" xlink:href="#a" gradientUnits="userSpaceOnUse" gradientTransform="matrix(.722 0 0 .723 11.08 -.114)"/><linearGradient id="b"><stop offset="0" stop-color="#fbf0e0"/><stop offset="1" stop-color="#f0ce99"/></linearGradient><linearGradient id="t" x1="30.062" x2="17.696" y1="13.445" y2="12.334" xlink:href="#b" gradientUnits="userSpaceOnUse" gradientTransform="matrix(.736 0 0 .737 5.272 16.494)"/><linearGradient id="c"><stop offset="0" stop-color="#de9523"/><stop offset="1" stop-color="#a36d18"/></linearGradient><linearGradient id="s" x1="36.289" x2="47.066" y1="14.662" y2="15.268" xlink:href="#c" gradientUnits="userSpaceOnUse" gradientTransform="matrix(.736 0 0 .737 5.717 16.558)"/><linearGradient id="d"><stop offset="0" stop-color="#e9b96e"/><stop offset="1" stop-color="#f1d19e"/></linearGradient><linearGradient id="D" x1="25.381" x2="24.119" y1="24.721" y2="16.17" xlink:href="#d" gradientUnits="userSpaceOnUse" gradientTransform="matrix(.736 0 0 .727 5.272 16.728)"/><linearGradient id="e"><stop offset="0" stop-color="#a0670c"/><stop offset="1" stop-color="#a0670c" stop-opacity="0"/></linearGradient><linearGradient id="r" x1="21.907" x2="22.072" y1="9.758" y2="16.021" xlink:href="#e" gradientUnits="userSpaceOnUse" gradientTransform="matrix(.736 0 0 .737 5.272 16.494)"/><linearGradient id="f"><stop offset="0" stop-color="#875a13"/><stop offset="1" stop-color="#d79020"/></linearGradient><linearGradient id="q" x1="16.149" x2="34.194" y1="12.637" y2="12.637" xlink:href="#f" gradientUnits="userSpaceOnUse" gradientTransform="matrix(.736 0 0 .766 5.272 16.465)"/><linearGradient id="g"><stop offset="0" stop-color="#fff"/><stop offset="1" stop-color="#fff" stop-opacity=".686"/></linearGradient><linearGradient id="p" x1="18.707" x2="30.015" y1="19.912" y2="47.388" xlink:href="#g" gradientUnits="userSpaceOnUse" gradientTransform="matrix(.736 0 0 .737 5.272 16.494)"/><linearGradient id="h"><stop offset="0" stop-color="#eaba6f"/><stop offset="1" stop-color="#b97a1b"/></linearGradient><linearGradient id="o" x1="24.99" x2="24.99" y1="34.005" y2="22.585" xlink:href="#h" gradientUnits="userSpaceOnUse" gradientTransform="matrix(.736 0 0 .737 5.272 16.494)"/><linearGradient id="i"><stop offset="0"/><stop offset=".196"/><stop offset="1" stop-opacity="0"/></linearGradient><radialGradient id="n" cx="22.93" cy="35.373" r="17.577" xlink:href="#i" gradientUnits="userSpaceOnUse" gradientTransform="matrix(1 0 0 .333 0 23.582)" fx="22.93" fy="35.373"/><linearGradient id="m"><stop offset="0" stop-color="#eeeeec"/><stop offset="1" stop-color="#767669"/></linearGradient><linearGradient id="l"><stop offset="0" stop-color="#171b1c"/><stop offset="1" stop-color="#2e3436"/></linearGradient><linearGradient id="k"><stop offset="0" stop-color="#fff"/><stop offset=".366" stop-color="#bbb"/><stop offset=".601" stop-color="#bbb"/><stop offset="1" stop-color="#fff"/></linearGradient><linearGradient><stop offset="0" stop-color="#fff"/><stop offset=".482" stop-color="#bbb"/><stop offset=".601" stop-color="#bbb"/><stop offset="1" stop-color="#fff"/></linearGradient><linearGradient id="j"><stop offset="0" stop-color="#292929"/><stop offset="1"/></linearGradient><linearGradient x1="29.079" x2="23.429" y1="41.683" y2="41.429" xlink:href="#j" gradientUnits="userSpaceOnUse" gradientTransform="matrix(.713 -.283 .261 .775 1.782 4.339)"/><linearGradient x1="27.81" x2="22.349" y1="25.365" y2="25.302" xlink:href="#j" gradientUnits="userSpaceOnUse" gradientTransform="matrix(.713 -.283 .261 .775 1.782 4.339)"/><linearGradient x1="15.556" x2="22.984" y1="24.54" y2="24.54" xlink:href="#j" gradientUnits="userSpaceOnUse" gradientTransform="matrix(.713 -.283 .261 .775 1.782 4.339)"/><linearGradient x1="14.794" x2="21.524" y1="7.997" y2="7.997" xlink:href="#j" gradientUnits="userSpaceOnUse" gradientTransform="matrix(.713 -.283 .261 .775 1.782 4.339)"/><linearGradient x1="2.325" x2="45.954" y1="17.163" y2="29.638" xlink:href="#k" gradientUnits="userSpaceOnUse" gradientTransform="matrix(.713 -.283 .261 .775 1.782 4.339)"/><linearGradient x1="31.72" x2="38.225" y1="23.449" y2="20.973" xlink:href="#l" gradientUnits="userSpaceOnUse" gradientTransform="matrix(1.026 0 0 1 -1.252 0)"/><linearGradient x1="26.839" x2="33.5" y1="10.841" y2="8.746" xlink:href="#l" gradientUnits="userSpaceOnUse" gradientTransform="matrix(1.026 0 0 1 -1.252 0)"/><linearGradient x1="9.996" x2="14.278" y1="27.631" y2="25.726" xlink:href="#m" gradientUnits="userSpaceOnUse" gradientTransform="matrix(1.026 0 0 1 -1.252 0)"/><linearGradient id="u" x1="9.996" x2="14.278" y1="27.631" y2="25.726" xlink:href="#m" gradientUnits="userSpaceOnUse" gradientTransform="matrix(.742 0 0 .723 10.176 -.114)"/><linearGradient id="v" x1="2.325" x2="45.954" y1="17.163" y2="29.638" xlink:href="#k" gradientUnits="userSpaceOnUse" gradientTransform="matrix(.515 -.205 .188 .56 12.368 3.022)"/><linearGradient id="x" x1="14.794" x2="21.524" y1="7.997" y2="7.997" xlink:href="#j" gradientUnits="userSpaceOnUse" gradientTransform="matrix(.515 -.205 .188 .56 12.368 3.022)"/><linearGradient id="y" x1="15.556" x2="22.984" y1="24.54" y2="24.54" xlink:href="#j" gradientUnits="userSpaceOnUse" gradientTransform="matrix(.515 -.205 .188 .56 12.368 3.022)"/><linearGradient id="z" x1="27.81" x2="22.349" y1="25.365" y2="25.302" xlink:href="#j" gradientUnits="userSpaceOnUse" gradientTransform="matrix(.515 -.205 .188 .56 12.368 3.022)"/><linearGradient id="A" x1="29.079" x2="23.429" y1="41.683" y2="41.429" xlink:href="#j" gradientUnits="userSpaceOnUse" gradientTransform="matrix(.515 -.205 .188 .56 12.368 3.022)"/><linearGradient id="B" x1="26.839" x2="33.5" y1="10.841" y2="8.746" xlink:href="#l" gradientUnits="userSpaceOnUse" gradientTransform="matrix(.742 0 0 .723 10.176 -.114)"/><linearGradient id="C" x1="31.72" x2="38.225" y1="23.449" y2="20.973" xlink:href="#l" gradientUnits="userSpaceOnUse" gradientTransform="matrix(.742 0 0 .723 10.176 -.114)"/></defs><g><path fill="url(#n)" d="M40.5 35.37a17.58 5.86 0 1 1-35.15 0 17.58 5.86 0 1 1 35.16 0z" transform="matrix(1.028 0 0 1.029 -1.192 5.575)" opacity=".57" display="block" overflow="visible"/><rect width="23.548" height="17.031" x="10.768" y="27.75" fill="url(#o)" stroke="#a0670c" ry="1.764" rx="1.785" display="block" overflow="visible"/><rect width="21.947" height="15.53" x="11.531" y="28.464" fill="none" stroke="url(#p)" rx=".946" opacity=".481" display="block" overflow="visible" ry=".947"/><path fill="url(#q)" fill-rule="evenodd" stroke="url(#r)" d="M11.73 28.7l3.72-5.03 13.84-.08 3.83 5-21.4.1z"/><path fill="url(#s)" stroke="#a0670c" d="M29.9 23.64l3.45 5.1L40 31.97l-5.97-6.56-4.12-1.76z" stroke-linecap="round" stroke-linejoin="round" display="block" overflow="visible"/><path fill="#f8e8cf" stroke="#a0670c" d="M15.05 23.65l-2.93 4.96-6.73 3.24 5.97-6.57 3.68-1.62z" stroke-linecap="round" stroke-linejoin="round" display="block" overflow="visible"/><path fill="none" stroke="url(#t)" d="M12.38 28.56l2.5-4.26 15.07-.06 2.83 4.32h-20.4z" opacity=".88" stroke-linecap="round" stroke-linejoin="round"/><path fill="url(#u)" fill-rule="evenodd" stroke="#888a85" d="M24.88 29.7L13.66 3.2c-1.13-.2-1.98.4-2.2 1.2L21.72 30l3.16-.3z"/><path fill="url(#v)" fill-rule="evenodd" stroke="url(#w)" d="M20.62 23.04L13.6 5.67S18.3-.4 21.4.4c3.34.88 3.83 4.53 7.2 5.3 3.24.74 9.66-3.75 9.66-3.75l7.07 17.35c-.05-.02-6.47 4.47-9.72 3.73-3.35-.77-3.84-4.43-7.2-5.3-3.1-.8-7.78 5.3-7.78 5.3z"/><path fill="#2e3436" fill-rule="evenodd" d="M13.92 5.68l1.5 3.53c.56-.88 1.35-1.8 2.68-2.8l-1.47-3.57-2.7 2.85z"/><path fill="#2e3436" fill-rule="evenodd" d="M18.06 6.4l1.87 4.78c1.1-.9 2.27-1.64 3.53-2.08l-1.8-4.9c-1.35.42-2.55 1.16-3.6 2.2z"/><path fill="#2e3436" fill-rule="evenodd" d="M17.35 13.88l1.7 4.6c.65-1 1.68-2 2.75-2.84l-1.72-4.56c-1.06.84-2.05 1.72-2.73 2.8z"/><path fill="#2e3436" fill-rule="evenodd" d="M21.7 15.56l1.72 4.35 3.53-2.07-1.72-4.35c-1.28.4-2.45 1.12-3.53 2.08z"/><path fill="url(#x)" fill-rule="evenodd" d="M20.24.74l1.34 3.54c1.52-.14 3.07 1 4.65 2.6l-1.6-3.9C22.75.72 21.3.02 20.23.75z"/><path fill="url(#y)" fill-rule="evenodd" d="M23.45 8.98l1.72 4.56c1.68-.37 3.43.86 5.2 3.13l-2.3-5.57c-1.97-1.97-3.42-2.42-4.62-2.12z"/><path fill="url(#z)" fill-rule="evenodd" d="M26.18 6.73l1.75 4.3c1.24 1.8 2.94 3.34 4.78 3.3l-1.78-4.65c-1.75.04-3.32-1.03-4.74-2.95z"/><path fill="url(#A)" fill-rule="evenodd" d="M30.32 16.6l1.42 3.48c1.3 2.3 2.9 2.97 4.6 2.97l-1.72-4.12c-1.4.14-3.04-1.2-4.3-2.32z"/><path fill="url(#B)" fill-rule="evenodd" d="M29.37 6l1.47 3.76c1.85-.1 3.43-.76 5.02-1.6l-1.4-3.7C32.73 5.5 31.13 5.98 29.37 6z"/><path fill="url(#C)" fill-rule="evenodd" d="M32.7 14.33l1.86 4.75c1.72-.22 3.37-.8 4.95-1.72l-1.7-4.56c-1.6.82-3.22 1.55-5.1 1.53z"/><path fill="#2e3436" fill-rule="evenodd" d="M35.76 8.08l1.94 4.88 3.82-2.13L39.62 6l-3.86 2.08z"/><path fill="#2e3436" fill-rule="evenodd" d="M39.48 17.37l1.62 4.07 3.9-2.26-1.72-4.03-3.8 2.22z"/><path fill="url(#D)" stroke="#a0670c" d="M33.46 28.52l3.82 5.3H8.18l3.44-5.3h21.84z" stroke-linecap="round" stroke-linejoin="round" display="block" overflow="visible"/><path fill="none" stroke="#f4e3ca" d="M32.54 28.6l3.28 4.47H9.42l3.06-4.56 20.06.1z" display="block" overflow="visible"/></g></svg>