<svg xmlns="http://www.w3.org/2000/svg" width="50pt" height="50pt" viewBox="0 0 50 50"><path fill="#fff" stroke="#000" stroke-width="0.5" d="M5 37.5l-1.5-2.3-1-3.95L10 30l-5-2.5v-5l5-2.5-2.5-3.75 5-2.5L10 10l5-5 5-2.5h5L30 5l2.5 3.75 5 2.5v5L35 20l5 2.5 2.5 3.75v2.5L45 32.5l-2.5 1.25L45 37.5 40 40l-7.5 1.25h-15L10 40z"/><path fill="#505450" d="M8.8 32.2l3.7-.95L20 32.5l7.5 1.25-5 5-11.1-.25L5 35z"/><path fill="#505450" d="M22.5 38.75l5-5 3.8.25 4.8.7 3.9 2.8-7.5 1.25z"/><path fill="#f8fcf8" d="M25 5l7.5 6.25v5L23.8 9.3z"/></svg>