<svg xmlns="http://www.w3.org/2000/svg" width="50pt" height="50pt" viewBox="0 0 50 50"><path fill="none" stroke="#000" stroke-width="0.5" d="M30 30h15V5H20v15"/><path id="Path_0" fill="#fff" stroke="#000" stroke-width="0.5" d="M12.52 31.6l-.87-1.32-.56-2.25 4.27-.7-2.85-1.44v-2.86l2.85-1.43-1.43-2.13 2.86-1.42-1.44-2.15 2.86-2.85 2.86-1.43h2.85l2.85 1.43 1.42 2.14 2.86 1.4v2.87l-1.42 2.14 2.84 1.43 1.44 2.14v1.43l1.42 2.14-1.43.7 1.44 2.15-2.86 1.42-4.27.7-8.55.02-4.28-.72z"/><path id="Path_1" fill="#505450" d="M14.68 28.57l2.12-.54 4.27.7 4.3.72-2.87 2.86-6.34-.13-3.64-2z"/><path fill="#505450" d="M22.5 32.3l2.86-2.84 2.16.14 2.74.4 2.22 1.6-4.27.7z"/><path id="Path_3" fill="#f8fcf8" d="M23.93 13.05l4.27 3.56v2.87l-4.96-3.96z"/><path fill="none" stroke="#000" stroke-width="0.5" d="M5 20h25v25H5z"/><path fill="none" stroke="#000" stroke-width="0.5" d="M10 40l-5 5"/><path fill="none" stroke="#000" stroke-width="0.5" d="M15 35l-2.5 2.5"/><path fill="none" stroke="#000" stroke-width="0.5" d="M20 5L5 20"/><path fill="none" stroke="#000" stroke-width="0.5" d="M45 5L30 20"/><path fill="none" stroke="#000" stroke-width="0.5" d="M45 30L30 45"/></svg>