<svg xmlns="http://www.w3.org/2000/svg" width="48" height="48" xmlns:xlink="http://www.w3.org/1999/xlink"><defs><linearGradient id="a"><stop offset="0" stop-color="#e3e9eb"/><stop offset="1" stop-color="#b1c6ce"/></linearGradient><radialGradient id="b" cx="25.643" cy="25.214" r="25.714" xlink:href="#a" fx="25.643" fy="25.214" gradientUnits="userSpaceOnUse"/></defs><g><path fill="url(#b)" d="M49.86 25.2a24.2 24.2 0 1 1-48.43 0 24.2 24.2 0 1 1 48.43 0z" transform="matrix(.929 0 0 .929 .173 .571)" color="#000" overflow="visible" enable-background="accumulate"/><path fill="#fff" d="M13.3 5l10.8 18.7L13 42.95l7.7 2.34L33.35 23.4 21.18 2.36z"/><path fill="none" stroke="#204a87" stroke-width="2.79.229" d="M46.5 24a22.5 22.5 0 1 1-45 0 22.5 22.5 0 1 1 45 0z" color="#000" stroke-linecap="round" stroke-linejoin="round" overflow="visible" enable-background="accumulate"/><g style="line-height:125%;-inkscape-font-specification:Baskerville" font-size="31.805" letter-spacing="0" word-spacing="0" font-family="Baskerville"><path d="M19.62 24.75h-8l-.55 1.33c-.8 1.94-1.2 3.2-1.2 3.8 0 .63.2 1.1.63 1.44.43.32 1 .48 1.66.48v.7H5.9v-.7c.93-.15 1.63-.47 2.08-.98.46-.52 1-1.6 1.65-3.24.05-.16.3-.76.75-1.8l6.1-14.62h.62l7.03 16.73.97 2.2c.22.5.5.88.87 1.17.37.28.92.46 1.66.53v.7h-8.28v-.7c1.02 0 1.7-.07 2.05-.22.36-.15.55-.45.55-.9 0-.23-.24-.9-.72-2.03l-1.6-3.9m-.28-.7l-3.73-8.98-3.7 8.98h7.43"/><path d="M41.5 30.18h.6c-.1 1.77-.98 2.66-2.62 2.66-.7 0-1.26-.2-1.68-.56-.4-.37-.67-.93-.8-1.66-1.03.73-1.97 1.3-2.83 1.66-.85.37-1.6.56-2.3.56-.84 0-1.6-.25-2.2-.75-.63-.5-.94-1.16-.94-1.98 0-1.06.52-2 1.55-2.8 1.05-.8 2.5-1.57 4.32-2.32l2.4-.98v-.62c0-.88-.05-1.52-.16-1.9-.12-.4-.4-.76-.9-1.07-.46-.3-1.1-.46-1.87-.46-1.55 0-2.4.5-2.6 1.55-.15 1.05-.6 1.58-1.3 1.58-.63 0-.94-.3-.94-.9 0-.6.42-1.22 1.26-1.9.83-.68 2.13-1.02 3.9-1.02 1.32 0 2.33.2 3.06.62.72.42 1.2.9 1.43 1.42.23.52.35 1.33.35 2.42v5.14c0 1.2.06 1.97.18 2.3.13.36.4.53.8.53.7 0 1.12-.5 1.28-1.52M37 24.75l-1.68.68c-2.67 1.1-4 2.46-4 4.1 0 .65.16 1.18.5 1.6.34.38.8.58 1.34.58.48 0 1.05-.15 1.7-.48.63-.32 1.35-.8 2.15-1.44v-5.03"/></g></g></svg>