<svg xmlns="http://www.w3.org/2000/svg" width="48" height="48" xmlns:xlink="http://www.w3.org/1999/xlink"><defs><linearGradient id="d"><stop offset="0" stop-color="#d5f6ff"/><stop offset="1" stop-color="#fff"/></linearGradient><linearGradient id="c"><stop offset="0" stop-color="#7da4f1"/><stop offset="1" stop-color="#3a5995"/></linearGradient><linearGradient id="b"><stop offset="0" stop-color="#fff"/><stop offset="1" stop-color="#fff" stop-opacity="0"/></linearGradient><linearGradient id="a"><stop offset="0" stop-color="#fff"/><stop offset=".298" stop-color="#b3e7ff"/><stop offset=".766" stop-color="#b3e7ff"/><stop offset="1" stop-color="#fff"/></linearGradient><linearGradient id="e" x1="24.323" x2="23.873" y1="14.564" y2="46.437" xlink:href="#a" gradientUnits="userSpaceOnUse" gradientTransform="matrix(1.063 0 0 1.063 -1.476 -3.218)"/><linearGradient id="i" x1="23.714" x2="23.714" y1="18.952" y2="23.079" xlink:href="#b" gradientUnits="userSpaceOnUse" gradientTransform="matrix(1.063 0 0 1.063 -1.476 -3.218)"/><linearGradient id="f" x1="19.434" x2="19.233" y1="23.072" y2="47.389" xlink:href="#c" gradientUnits="userSpaceOnUse" gradientTransform="matrix(1.063 0 0 1.063 -1.476 -3.218)"/><radialGradient id="g" cx="23.746" cy="24.815" r="21.405" xlink:href="#d" fx="23.746" fy="24.815" gradientTransform="matrix(1.132 0 0 .604 -3.125 -1.88)" gradientUnits="userSpaceOnUse"/><linearGradient id="h" x1="18.163" x2="18.062" y1="3.167" y2="20.928" xlink:href="#c" gradientUnits="userSpaceOnUse"/></defs><g><path fill="url(#e)" fill-rule="evenodd" stroke="url(#f)" stroke-width="1.5" stroke-dashoffset="2.6" d="M2.03 6.9l19.62 15.52v16.86c-.9.6-1.8 1.15-2.72 1.4-4.85.5-8.27 1.7-8.27 3.12 0 1.85 5.86 3.35 13.08 3.35 7.23 0 13.1-1.5 13.1-3.35 0-1.43-3.55-2.64-8.48-3.12-.9-.23-1.82-.46-2.72-1.4V22.42l20.12-15.5H2.03z" stroke-linecap="round" stroke-linejoin="bevel" overflow="visible" enable-background="accumulate"/><path fill="url(#g)" fill-rule="evenodd" stroke="url(#h)" stroke-width="1.414" stroke-dashoffset="2.6" d="M44.44 8.86a20.7 4.98 0 1 1-41.4 0 20.7 4.98 0 1 1 41.4 0z" stroke-linecap="round" stroke-linejoin="bevel" transform="matrix(1.059 0 0 1.063 -1.196 -3.353)" overflow="visible" enable-background="accumulate"/><path fill="none" stroke="#fff" stroke-width="1.502" stroke-dashoffset="2.6" d="M3.25 5.88c3-2.07 11.14-3.55 20.7-3.55 9.3 0 17.25 1.4 20.44 3.36" stroke-linecap="round" stroke-linejoin="bevel" overflow="visible" enable-background="accumulate"/><path fill="none" stroke="url(#i)" stroke-width="1.25" stroke-miterlimit="4.5" d="M22.34 21.07l-11.8-9.38c8.15 1.33 17.8 1.82 26.37.06l-11.93 9.17"/><path fill="none" stroke="#fff" stroke-width="1.502" stroke-dashoffset="2.6" d="M12.52 43.55c1.64 1.27 6.12 2.18 11.38 2.18 5.1 0 9.46-.86 11.22-2.07" stroke-linecap="round" stroke-linejoin="bevel" overflow="visible" enable-background="accumulate"/><path fill="none" stroke="#3465a4" stroke-opacity=".472" d="M17.84 40.76c3.5-.8 7.6-.75 11.3 0"/></g></svg>