<svg xmlns="http://www.w3.org/2000/svg" width="48" height="48"><g><g><path fill="#d3d2d7" d="M30.03 47.9c2.3-1.28 5.1-2 6.46-4.58 1.2-2.34 3.42-3.54 5.33-5.05 1.45-2.24 3.5-4.3 3.22-7.25.5-2.35-1.18-5.52 1.2-7.06 2.5-1.5 1.76-4.62.78-6.88-.76-3.15-3.7-4.4-5.9-6.2-.73-1.58.67-4.02-2.02-4.23-2.08-1.04-1.27-4.73-4.17-5.16-2.36-1.16-4.84-.22-7.36-.8C25.12 2 22.47-.07 19.9.7c-1.86 2.2-6.1.34-6.9 3.33-1.83 1.07-4.35.95-5.14 3.28-1.9 1.8-4.4 3.52-4.63 6.42.2 2.6-1.78 5.05-2.08 6.92-1.47 1.13 1.34 2.2-.3 3.43C-.6 27.17.3 31.15 2.9 33.3c2.32 2.1 2.06 5.98 4.92 7.7 1.98 1.1 3.9 2.36 5.95 3.3 2 1 4.24 1.05 6.4 1.38 2.1 1.17 3.93-.77 5.94 0 1.73.32 1.48-2.93 2.4-.48.48.92.85 1.92 1.53 2.7z"/><path fill="#bbbbc2" d="M30 47.77c2.16-1.27 4.84-1.85 6.17-4.28 1.3-2.36 3.44-3.77 5.48-5.24 1.38-2.2 3.48-4.17 3.28-7.03.54-2.4-1.2-5.66 1.13-7.32 2.56-1.5 1.86-4.64.86-6.94-.78-3.12-3.68-4.44-5.9-6.2-.8-1.54.7-4-2-4.22-2.07-1.2-1.5-4.97-4.58-5.3-2.04-1.1-4.12.37-6.27-.77-2 1.12-4.46.33-6.5-.17-2.38.1-4.3 2.13-6.8 1.8-2.12.22-1.9 3.1-4.38 2.75-2.28.63-2.95 3.24-4.96 4.5-1.9 1.5-2.5 4-2.58 6.36-.22 1.74-1.8 3.5-1.8 4.82-1.48 1.13 1.33 2.2-.3 3.42-1.45 3.12-.56 7.1 2.07 9.24 2.3 2.12 2.02 6.02 4.9 7.73 2.73 1.5 5.35 3.4 8.4 4.13 2.45-.34 5.02 1.82 7.3.42 1.38-.67 4.22 1.14 4.1-1.58 1.12 1.07 1.35 2.76 2.37 3.9zm-14.7-9.5c-1.44.7-1.78-1.66-.16-.77.78.12 1.4.8.17.76zm-10.33-4.4c-1.38-.48-2.2-5.07-.2-2.35.58.62.75 1.66.2 2.36zm-2.9-2.54c-1.95-1.07-2.2-5.6-.9-6.12.53 1.88 2.05 4.34 1.6 5.94l-.34.14-.35.05zm14.63-.04c.83-1.5 2.8-2.6 3.48-3.83 1.14 1.12-2.26 3.3-3.48 3.82zm5.22-.28c.4-.9 1.77-4 2.15-2.82-.45 1.13-1.4 1.9-2.15 2.82zm-8-3.28c-.13-.7.88-.54 0 0zm13.12-1.7c.43-1.18 2-3.5 2.63-3.18-.86 1.08-1.65 2.22-2.63 3.2zm-1.73-.92c.1-1.04.93-3.12-.6-1.54.1-2 2.12-3.33 3.54-4.55.94-1.06 1.82-1.05.7.35-1.18 1.92-2.2 4.03-3.63 5.74zm-1.25-.62c-.43-.5.7-.66 0 0zm6.4-2.17c.5-.7 1.02-.02 0 0zm-11.82 0c-.9-.93.65-1.1 0 0zm-15.2-.28c-1.15-1.24 2.83-2.75 3.82-2.1-.77 1.35-2.36 1.97-3.8 2.1zm8.92-.14c-.12-1.1.7-1.15 0 0zm7.64-3c-3.25.38-.88-4.15 1.24-3.66.8-.72 3.1-2.94 1.6-.55-1.1.98-1.74 2.28-1.6 3.5-.32.37-.76.67-1.25.7zm-9.88-.23c-.22-1.75-.5-4.42-1.92-2.97-.7-1.13-3.6-.67-1.07-1.04 2.5-1.66 3.32.55 3.17 2.9 0 .38-.06.76-.18 1.1zm19.74-1.07c-.63-1.32 2.26-1.47.4-.24-.1.1-.26.16-.4.24zm-15.82-.75c-.7-.58.3-1.18 0 0zm-6.68 0c-1.45.23-2.1-1.62-.42-.7.2.17.46.38.42.7zm31.9-.56c-2 .04-4-4.53-.86-3.67-.88 1.77.27 1.9 1.4 1.85-.03.64-.4 1.2-.53 1.8zm-23.22-.32c-1.32-.66.63-3 0 0zM27 15.02c-.55-2.33 1.42-3.68 2.77-4.96.65-1.1 2.65-1.25 1.14.27-1.42 1.42-2.46 3.37-3.9 4.7zm-13.95-.76c-1.3-.9.34-1.7 0 0zm28.12-.4c1.53-.75-.48-2.23 1.5-1.2 1.93.98-1 .93-1.5 1.2zm-1.93-1.12c-.53-.24.46-.33 0 0zm1.2-.34c-1.73-1.26.98-1.27 0 0zm-14.86-.52c.7-2.04-.2-4.47.13-6.34.95-.7 4.5-2.54 2.58-.3-1.64 1.86-.57 4.83-2.43 6.43l-.27.2zm9.14-.14c-2.33-.38.1-2.02.22-.1l-.22.1zM5.17 11.7C3.1 10.7 6.93 9.4 7.3 8.15c1.23-.47 1.64-3.3 3-2.16-2.7.25 2.34 1.34.8 3.1-.2 1.65-1.3-2.13-1.86.2-.75 1.64-2.65 1.8-4.07 2.43zm12.93-.47c-.28-2.36 3.56-2.9 4.7-2.82.67 2.5-4.16.8-4.7 2.83zm-2.53-1.2l-.02-.36.02.35zm0-.67c-.45-1.23-.62-2.7 0-2.9.54-1.17-.43-3.5.68-3.9.6 1.13.68 4.52-.55 6.5l-.13.3zm6.12-.38c.33-.22-.58 0 0 0zm-3.24-.17c-.36-2.5 1.93-4.63 4.14-3.47 1.4 1.74-.8 3.23-2.36 2.43-.67.18-1.22.64-1.78 1.05zm14.36-2.85c-.7-.45 2.75-.4.48-.04-.16.03-.32.04-.48.05zm2.66-.48c-.98-.03.55-.6 0 0zm-15.35-1.1c-1.3-.1-3-1.06-1.2-1.3-3.45-1.03 3.32-1.22 2.1.9-.18.34-.58.34-.9.4zm14.75-.14c-2.95.08-1.28-4.73.18-1.9-.2.58-.7 1.33-.18 1.9zm-12.96-.2c-.83-1.37 2.2-1.06 0 0zm7.2-.04c-.65-2.02 4.24-4.23 2.78-1.7-.64.92-1.6 1.82-2.77 1.7zm-1.98-.74C26.82 2 30.3.32 28.3 2.26c-.27.44-.63.9-1.16 1zm-12.1-.34c-.87.18-.26-.5.1-.15l-.1.15zm10.74-.7c-1.22.27-2.74-1.3-.67-.85.33-.1 1.28.62.68.86zm.76-.34c-.72-.43 1.15-.28 0 0zm-6.1-.34c-2.98.16 1.9-1.43.92-.3-.32.05-.63.16-.93.3z"/><path fill="#abacb4" d="M30.03 47.8c2.3-1.3 5.07-2.03 6.46-4.58 1.2-2.34 3.42-3.54 5.33-5.06 1.46-2.24 3.5-4.3 3.22-7.26.5-2.35-1.18-5.5 1.2-7.05 2.5-1.52 1.77-4.63.77-6.9-.75-3.2-3.86-4.34-5.95-6.34-.67-1.5.7-3.7-1.78-3.98-2.32-1.08-1.57-5.1-4.8-5.4-2.33-.8-4.8-.27-7.3-.53-2.4 1.26-5.28-1.3-7.65.15-2.13 1.8-5.98.27-6.85 3.3-1.9.65-4.04.92-4.84 3-1.97 1.85-4.5 3.68-4.7 6.68.26 2.54-1.75 4.86-2 6.7-1.48 1.12 1.33 2.18-.3 3.4C-.6 27.07.3 31.06 2.92 33.2c2.3 2.1 2.02 6 4.9 7.7 1.87 1.08 3.74 2.2 5.68 3.2 2.03 1.1 4.32 1.16 6.52 1.44 2.4 1.17 4.3-.7 6.6.03 1.3-.14.9-2.7 1.74-.72.54 1 .92 2.1 1.67 2.98zm-14.56-9.44c-1.8.7-2.04-1.97-.1-.87.98.2 1.64.77.1.86zm-10.43-4.3c-1.56-1.47-3.98-2.14-4.4-4.62-.85-1.6-.05-5.53.9-5.5.27 2.33.5 5.23 2.5 6.7.93.78 1.9 2.2 1 3.4zm20.94-1c.23-1.34 3.08-3.77 1.07-1.28-.34.44-.7.87-1.07 1.27zm-4.62-1.3c1.1-2.63 3.13-4.77 3.8-7.64 1.1-2.53-3.45 3.37-1.74.52 1.6-2.44 3.1-5 5.6-6.5.36-1.1 3.04-3.3 2.9-2.17-2.78 2.42-4.23 6-6.18 9.08-1.2 2.44-2.28 4.94-4.38 6.72zm-4.82-.16c.12-1.82 2.9-2.54 3.38-4.38 2.36.64-1.35 2.97-2.28 3.88-.35.22-.72.4-1.1.5zm-3.6-1.38c.42-2.9 3.08-5.2 2.2-8.33.88-2.12.78 1.98.3 2.66-.57 1.94-1.3 4.1-2.5 5.66zm13.57-3.3c.68-2.5 3.52-5.8 5.74-4.94-2.22.02-3.33 1.95-4.54 3.57-.37.48-.76.95-1.2 1.36zm-15.05-2.66c.27-1 1.45-4.94.9-1.87-.2.66-.47 1.3-.9 1.86zM19 23.9c-1.06-.63-.57-3.83.13-1.3.15.36.5 1.23-.13 1.3zm-15.53-.57c-2.27-2.17 1.48-3.38 3.2-3.75 3.2.23-.83 1.9-1.9 2.63-.47.33-.92.7-1.3 1.13zm5.7-2.28c-.38-1.22 1.33-.57 0 0zM3.33 19.6c.02-.6 2.04-.2 0 0zm16.2-.55c-3.02-.67-.18-4.4 1.78-4.08.76-.92 3.33-2.62 1.57-.27-1.74 1.4-.42 4.66-3.37 4.35zm-9.35-.17c-.5-.52-.86-2.78-.8-.88-1.15.86.06-2.93-1.8-2.7-.96-1.12-4.84 2.25-2.76.07 1.52-.56 3.62-1.58 4.9-1.6.53 1.56 1.1 3.54.45 5.1zm4.28-.55c-1.03-1.62-1.2-3.23-1.98-4.93.43-1.02 1.93 3.03 2 4.27V18l-.02.33zm32.34-.35c-1.4-.03-.5-1.36 0 0zm-20.78-.27c-.46-2.32.7-5.44 2.52-6.6.42-.87-1.52-2.46.26-1.5.7 1.74 2.47-2.48 3.06.08-1.73 1.86-3.84 3.63-4.7 6.2-.38.6-.57 1.37-1.14 1.83zm13.56-.48c-1.3-1-4.75-3.98-2.4-4.94 2.1.87 2.87-2.22 4.7-.32 1.06.58 3.4 2.1.93 2.2-1.75.33-2.2 2.13-3.23 3.06zM7.8 17.2c-.78-.48-4.06-.84-1.55-1.53.53.15 1.97.8 1.55 1.52zm9.17-.08c-.5-.22.2-.37 0 0zm-.47-.24c-1.72-.45-.18-4.06-.17-1.16 0 .36.5.83.17 1.16zm23.14-2.93c2.3-.07.12-1.88-.48-.06l.08.05h.4zM3.47 13.2c.55-2 1.87-3.45 3.34-4.7 1.64-.82 2.5-4.46 4.48-2.36.3 1.06.4 3.17-.4 3.82-1.6-2.7-1.9 1.32-2.34 1.58-1.36-2-4.02 2.35-4.26.88-.25.27-.44.65-.8.77zM25 13c.58-2.13 1.55-5.97-.7-7.05 1.82-.74 4.34-1.5 5.45-3.64.8-1.8 4.13-1.63 2.03.44C30.16 4.5 27.28 5 27.38 8c-.2 1.9-.9 3.8-2.37 5.02zm-4.84-.73c-1.22-.88-2.77-.5-2.12-2.64.3-2.45.75-5.88 4.02-4.63 2.08.33 1 4.27.3 5.83-.52.74-1.28 1.4-2.2 1.43zm14.42-.18c-1.57-.05-2.5-3.9-.35-1.68.78.36 2 1.48.35 1.68zm-19.14-.76c.3-1.7-1.32-4.35 0-5.16.7-1.63-1.13-3.6-1.95-2.6.8-2.3 3.9-.13 5.4-2.1 2.27-1.56 4.73.32 7.2-.1 1.93 1.1-2.4 1.04-3.18.26-1.26-.52-4.73.83-1.58 1 1.1.18 4.64.2 1.82 1.05-1.73 1.26-4.52.43-5.83.54-.45 2.43-1.6 4.67-1.9 7.12zm-4.52-4.5c.5-.42-.6-.24 0 0zm21.87-.67c-1.83-.84 3.87-.38 1.6-1.98-2.33-.37-1.28-4.27.77-2.4.34 1.18-.13 2.42.96 3.3-.23 1.1-2.48.64-3.34 1.07zm-19.52-.4c-.48-.78-2-1.08-.33-.67.14.14.57.44.33.68zm5.08-.57c-.7-.28.63-.3 0 0zm8.7-1.83c-.85-1.26 3.5-3.32 1.46-1.16-.42.45-.8 1.06-1.45 1.16z"/><path fill="#898c96" d="M30.13 47.9c2.33-1.27 5.1-2 6.46-4.58 1.22-2.4 3.53-3.55 5.43-5.17 1.58-2.26 3.44-4.5 3.13-7.5.42-2.3-1.15-5.34 1.26-6.76 2.45-1.52 1.68-4.6.73-6.82-.8-3.14-3.72-4.4-5.92-6.2-.74-1.57.7-4.02-2-4.23-2.1-1.03-1.3-4.72-4.2-5.15-2.35-1.16-4.83-.22-7.35-.8-2.54 1.32-5.32-.9-7.97.06-1.6 2.28-5.8.18-6.46 3.08-.77 1.2-3.72 1.04-3.83 1.63 2.12-.03 3.86-1 4.72-2.84 2.06-.4 4.08-.03 5.6-1.72 2.53-.6 5 1.14 7.52.26 1.08-.35 3-.1 1.4 1.17-.55 1.64-4.12 1.67-1.5.2 1.34-2.06-2.8 1.33-3.9 1.56-1.33 1.4 2.64 1.9 3.55.75 2.4-.8 2.8-4.65 5.88-3.7 2.5-.18 3.87 1.7 3.9 4.2.57 1.08.46 1.9-.64.7-1.06-.56-3.3 1.34-3.86-.25 1.03-.24 3.88-.73 1.65-1.85-.84-.97-1.1-2.74-2.04-.7-1.78 1.37-3.52 2-4.17 4.5-.55 1.38.9 1.78.83.06.95-1.64.34 1.6 1.07 1.58 2.32-1.4 4.58.4 6.12 2.16.5 1.7-2.5 3.95-2.25.9.14-1.68-1.27-3.28-2.45-1.4-1.88 1.37-3.07 3.44-3.8 5.67-.16.95-1.65 3.36-1.34.9-.56-2.47 2.13-5.04 1.45-7.1-.4 1.08-3.17 4.27-1.97 1.53.6-1.63.7-6.54-1.72-5.55-.33 2.5-.38 5.28-2.2 7.2-2.34 1.33-4.05-2.3-3.34-4.35.23-1.07.87-4.82-.86-2.48-1.24 2.23-1.9 5.2-.77 7.6 1.6 1.87 4.5.74 6.05-.64 1.15-1.14 1.93-.2.67.82-.7 2.25-1.7 6.3-4.8 4.02-2.92-1.4-3-4.94-3-7.8-.1-2.12-.8-3.9-.33-5.75-1.32-2-1.76.57-1.06 1.67.07 2.63-1.55 5.3-.17 7.85.34 1.42 2 3.63 1.37 4.75-2.06-1.55-1.9-4.5-2.92-6.73.02-1.87-3.3-3.66-2.78-.8.48 2.37 2.26 4.86 1 7.3-1.8.82-2.78-3.68-5.17-2.43-.8.26-.62-1.1-1.66.05C3 16.4 5.9 15 6.13 13.97c.76-.36 2.9.7 1.48-.7-.5-3.8-4.44 2.63-4.1-.48.54-1.13.93-1.58.1-.17-.66 2.23-.25 4.88-2.13 6.53 1 1.62-1.58 1.8-.2 3.1.98 1.03-1.4 3.34.18 1.28.62-.13-.18 4.03 1.65 2.83-1.5 2.86 3.5 5.2 1.78 7.55-2.02-.15-3.68-2.75-4.18-4.16.67 2.9 4.04 4.13 4.35 7.2.87 3.05 3.7 4.7 6.26 6 2.53 1.7 5.54 2.5 8.52 2.6 2.03 1.23 4-.33 5.85.07 1.96 1 2.1-3.07 2.94-.42.47.93.85 1.93 1.53 2.7zm-22.1-7.27C6.8 39.96 5 37.48 5.5 36.78c1.17 1 2.25 2.27 2.53 3.85zm2.2-1.3c-.55-.3.55-.42 0 0zm4.78-.87c-1.48-.07-4.96-2.66-4.1-3.04 1.65 1.52 3.9 1.95 5.97 2.5-.5.47-1.22.56-1.86.54zm7.02-1.03c.02-1.5 2.85-1.83.73-.5-.23.2-.47.37-.73.5zm-7.3-1.7c-2.26-.27-.24-1.55 0 0zm10.76-1.9c.23-1.23 2.17-3.95 2.7-3.46-.8 1.23-1.63 2.47-2.7 3.47zm-4.52-1.47c1.04-2.9 3.57-5.2 3.9-8.34-.63.4-2.77 3.33-2.1.97 2.2-1.37 2.2-5 4.95-5.66 1.52-.95 2.98-4.93 4.8-3.47-.03.65-2.14.88-.8 1.1-2.83 1.7-3.94 5.1-5.7 7.8-1.12 2.63-2.5 5.14-4.54 7.12l-.25.23-.24.23zm-5.32-.3c.87-2.35 4.22-3 4.3-5.86-.68-1.48-2.78-3-1.5-4.76 1.57 1.47 4.02 3.1 2.7 5.57-.67 2.37-3.18 4.5-5.5 5.05zm-2.66-.67c-1.05-2.4 1.52-4.4 2.1-6.54.05-1-.6-5.02.93-3.38.15 3.28-1.66 6.14-2.5 9.2l-.22.4-.3.3zm19.5-.73c-.38-1.43 1.78-.04 0 0zm-7.63-.86c1.3-2.46 2.3-5.32 4.4-7.2.73-1.12 4.4-1.08 3.63-.52-3.17-.1-4.88 3.12-6.47 5.46-.48.78-.95 1.58-1.55 2.27zm-17.92-.13c.56-2.4 1.9-.87 0 0zm-6.38-.4C.15 28.1.4 24.5.27 27.7c.04.54.13 1.05.28 1.56zM9.2 28c1.23-2.34 2.65-4.62 3.24-7.23.77 2-1.28 3.8-2.05 5.55-.38.58-.77 1.14-1.2 1.67zm22.6-2.35c-.25-.97 2.84-.24.56-.14-.18.06-.38.1-.57.14zM3.3 24.3c.62-1.48-2.35-2.63.07-3.4 1.9-1.8 5.1-1.6 6.8-.32-.34 1.75-1.46 1.9-2 .4-1.73.5-3.74 1.83-4.86 3.3zm35.64-1.4c-1.16.46-4.2-3-1.73-1.22.6.4 1.24.7 1.74 1.23zM13.84 22c-.36-1.27 1.6-1.45 0 0zM2.3 20.12c.45-1.4 3.52-.84.96-.3-.32.1-.63.23-.95.3zm14.44-1.55c-1.04-.68.12-1.16 0 0zm30.4-.04c-1.7.58-1.2-3.22-.36-.8.15.24.33.5.37.8zm-13.98-.34c-.73.07-.6-.8 0 0zm6.1-.5c-.68-1.63-4.72-4.18-2.28-5.6 1.3.46 2.54-.26 3.07-.93 2.02.5 5.13 2.33 5.3 4.16-1.47-2.04-3.54-.4-4.46 1.28-.35.62-.92 1.12-1.63 1.1zm-30.5-.58c.8-1.62-3.82-2.46-1.35-1 .47.34.88.72 1.36 1zM34.2 15.2c-.58-.66 1.08-.32 0 0zm-21.65-2.94c.3-2.1 1.97-4.94.07-6.64-1.75-.9-.5 2.35-1.16 3.46 0 1.1.43 2.36 1.1 3.18zm-8.28-1.4c.13-.28.3-.63 0 0zm.17-.36c1.47-.82 4-3.6 4.12-4.05-1.22 1.5-2.62 2.85-4.12 4.05zM40.1 7.6c-1.6-.03.83-.5 0 0zM24.6 2.65c.52-.96-2.55-.32-.3 0 .1 0 .2 0 .3 0z"/><path fill="#7a8392" d="M29.8 48.05c2.32-1.3 5.08-2.05 6.48-4.62 1.22-2.33 3.4-3.54 5.33-5.04 1.54-2.28 3.55-4.45 3.25-7.46.4-2.34-1.17-5.46 1.24-6.96 2.07-1.3 2-4.05.98-6.06-.45-1.1-2.3-4.78-1.07-1.95.87.85 1.62 3.9-.15 2 .24-1.4-.84-3-1.8-2.7-1.95-1.2-2.6 2.63-4.5 2.77-.87.6-2.2.02-.98-.92-.95-1.5-2.64-3.47-2.9-4.77-.7.83-1.22 4.65-2.16 1.9-.05-1.85-.98-5.62-2.98-2.85-2.57 1.97-2.98 5.52-4.76 8.05-.83-2.28.48-5.02 1.17-7.33 0-2.2-1.6 2.8-2.92 1.45-2.07 1.6-.8 6.17-4.33 6.03-1.07.05-3.65-3.06-2.38-.45.84 2.56 3.58 3.6 5 5.67 2.53-.56 2.42-4.38 4.8-5.4 2.38-.62 3-5.04 5.74-3.78-.1 1.16.58 2.23 1 3.18-.9-.26-2.65-1.02-2.3-1.3-2.9 1.72-4.1 5.2-5.8 8-1.15 2.62-2.63 5.25-4.9 6.96.78-2.66 3.2-4.74 3.7-7.62-.64-.25-2.8 2.87-2.65.57-.67 2.7-2.5 5-4.77 6.37-1.08.85-2.9.05-1.05-.93 2.13-1.16 4.8-3.93 2.38-6.2-.2-2.9-1.53-5.3-2.66-7.9-.83-2.65-.28-5.57-1.18-8.17-2.1.93-1.34 5-.4 6.93 1.5 3.03 2.62 6.67 1.26 9.98-1.23 1.9-.67 5.05-2.5 6.23-1.78-2.2 1.85-4.76 1.9-7.23.55-1.35-.4-4.04-1.3-1.97 1.22-2.54.1-4.9-.76-7.33-.1-1.4-2.3-5.76-2.6-2.45.38 2.46 2.7 5.08.32 7.24.05 1-1.75 5.3-2 2.35-1.27-2.16-3.35 1.27-4.68 1.62-1.76 2.48.46-2.27-1.93-1.66.62-1.67 4.02-3.46 6.13-2.73 2.5.84-1.03-3.86-2.75-2.76-.77.5-2.36 1.15-1.1-.24-1.3 1.37-1.73.25-.32-.47.86-.35 3.43-3.35 1.45-2.95-.96 1.84-2.88 1.1-1.72-.8C4.7 9.86 7 8.4 8.7 6.48c.54-2.33 4.57-.52 4.8-3.42 1.67-1.53 4.5-.03 6-2.18 1.7-.64 3.45.46 5.12.22-2.6-.58-5.4-.84-7.46 1.02-1.9-.04-4.25.17-4.77 2.3-2.27.36-4.06 1.4-5.2 3.33-1.84 1.72-4.1 3.48-4.24 6.28C3.2 16.6 1.2 18.9.9 20.75c-1.4 1.13 1.4 2.18-.24 3.42-1.44 3.12-.6 7.13 2.06 9.25 2.33 2.1 1.98 6.02 4.88 7.7 1.94 1.1 3.82 2.28 5.82 3.26 2.07 1.08 4.4 1.1 6.62 1.42 2.3 1.06 4.13-.75 6.35-.04 1.3-.46 1.04-2.55 1.88-.44.47.93.85 1.93 1.52 2.73zm15.7-33.48c-1.02-2.2-5.4-2.23-4.7-5.1.77-2.92-3.03-2.02-3.28-4.6-.67-2.86-3.42-4.06-6-3.84-1.98.3-3.85-.58-5.74.23 1.75-.22 3.58-.37 5.1-.04C32.8 1 35.72 1.2 36.52 3.4c.4 1.18 1 5.92-.5 2.83-1.65.03-3.9 1.1-5.37-.86-1.6-1.93-3.22 2-.93 2.25-.1.8-1.08 2.27.52 1.43 2.22-1.35 4.65 2.24 6.9 3 1.88.72 2.88-2.27 4.64-.28 1.34.75 2.6 1.7 3.7 2.8zM8.95 41.25c-1.9-.36-4.35-3.74-3.58-4.9 1.83.82 2.95 3.18 3.58 4.9zm1.56-1.34c-2.28-1.1 3-2.52.8-.6-.26.2-.44.6-.8.6zm4.72-1.3c-2.58-.6-5.52-2.45-5.87-5.33 1.92 2.36 4.56 4.48 7.7 4.35.47.56-1.46 1-1.83.98zm6.42-.76c1.2-2.43 4.1-3.5 4.9-6.25.32-.8 2.92-3.1 1.54-.95-1.9 2.6-3.63 5.6-6.44 7.2zm-12.2-.1c-2.24-.4-.2-2.63.28-.3l-.08.2-.2.1zm5.68-1.83c-1.18.05-4.3-1.92-1.32-1.27.56.14 1.33.6 1.32 1.28zm-10.2-1.6C2.44 33.17.42 30.83.2 27.94c-.45-1.2.85-5.2 1.55-3.96-.44 1.5 1.13 2.23 1.38 2.5-.77 3 3.18 5.07 2.02 7.7l-.2.1zm1.1-.42c-.5-1.6 1-1.68 0 0zm25.6-2.76c-.77-2.3 3.92-.82.95-.16-.33.08-.65.16-.97.16zM6.6 30.64c-.52-1.33 2.54-4.37 1.14-1.38-.22.6-.93.77-1.14 1.38zm18.2-.62c.93-2.6 2.3-5.12 4.1-7.18 1.45-1.33 3.83-1.8 5.44-.48-2.7-.62-5.35.78-6.57 3.32-1 1.43-1.9 2.95-2.96 4.34zM8.97 28.6c.64-2.64 2.96-4.6 3.07-7.4 1.73-1.53.15 2.58-.4 3.27-.8 1.43-1.7 2.84-2.67 4.13zm33.93-1.58c-.63-.83.3-1.48 0 0zm-11.24-1.14c-1.04-1.64 4.44-.23 1.2-.3-.4.07-.8.23-1.2.3zm9.57-1.86c-2.03.08-5.23-2.24-5.42-3.23 1.58 1.07 4.75 2.05 5.43 3.22zm2.33-.35c-.5-.84.97-.72 0 0zM.82 21.37c.16-.54.88-.2 0 0zm14.02-.53c1.13-.6-1.04-.75 0 0zm-12.9-.37c-.4-1.9 4.6-1.52 1.73-.62-.6.16-1.16.38-1.72.62zm40.5-1.97c-1.46-.5.34-3.65.1-1.02-.05.32.26.8-.1 1.02zm1.68-.07c-1.4-2.47 1.53-.44 0 0zm-35.5-1.58c.03-1.5-3.13-1.7-.7-.5.22.2.43.4.7.5zm9.9-1.73c-.7-2.26-.45-5.2-1.32-7.06-1.83 1.2-1.54 4-.76 5.82.4.8 1.23 1.28 2.1 1.24zm3.3-1.3c1.87-.65 4.26-1.34 3.7-3.98.53-1.47-2.57-4.53-1.9-1.74.75.55.6 2.1-.15 1.24-.7 1.4-1.16 2.98-1.65 4.47zm-9.4-2.6c2.04-1.53-.52-5.57-.45-1.54.05.53.13 1.1.45 1.55zM27.6 9c1.04-1.04-.13-2.5 0 0zm12.77-1.1c-3.17-.17 1.14-1.3 0 0zm-27.22-.55c.84-1.6-2.42-1.44-.4-.2.14.06.24.23.4.2zM31.5 5.7c1.3 0 4.53-.94 1.73-1.96-.57-2.65-1.92.7-2.03 1.78l.3.2zm-6.3-.27c1.33-.32 4.17-2.25 3.6-2.77-1 2.5-4.5-.18-5.38 2.14.46.4 1.2.65 1.8.63zm5.53-.72c.78-.58-.4-.22 0 0z"/><path fill="#6a7385" d="M29.93 47.8c2.3-1.3 5.07-2.03 6.46-4.58 1.2-2.35 3.4-3.54 5.32-5.07 1.53-2.27 3.53-4.44 3.24-7.45.4-2.33-1.18-5.45 1.25-6.93 2.5-1.5 1.64-4.6.72-6.8-.78-3.13-3.68-4.45-5.9-6.2-.8-1.55.7-4-2-4.23-2.1-1.12-1.44-4.87-4.43-5.26-2.36-.95-4.76-.14-7.2-.7-2.4 1.34-5.06-.78-7.6 0-1.86 2.2-6.13.33-6.9 3.32-1.82 1.08-4.34.93-5.15 3.26-1.86 1.78-4.33 3.47-4.63 6.32.25 2.47-1.35 4.25-1.82 6.4.27.6-1.65 1.5-.22 2.42-.4 2.37-2 6.1-.03 8.82 2.2 2.13 3.65 4.6 4.63 7.53 1.35 2.5 4.1 3.22 6.25 4.68 2.28 1.36 4.87 2.04 7.48 2.1 1.86.86 3.9.3 5.5-.06 1.37 1 2.82-.84 2.9-1.27.8 1.18 1.16 2.64 2.13 3.7zm-.33-1c-1-.8-1.6-3.97-.46-1.22.2.4.43.78.46 1.23zm-18.12-4.2c-2.3-.43.3-1.4 0 0zm-2.16-1.14c-2.36-.33-4.72-4.03-4.24-5.53 2.15 1 3.28 3.33 4.28 5.38l-.04.16zm1.6-1.3c-1.72.37-.83-2.15-.92-1.8-1.77.2-3.2-4.1-.68-2.1.93 1.34 3.2 1.44 3.3 3.1-.25.68-1.1.8-1.7.8zm28.38-.84c-.9-.48.82-.36 0 0zm-24.06-.7c-2.75-.47-5.64-2.56-6.05-5.6 1.63 1.32 3.3 3.92 5.76 4.32 1.2-.3 3.46.55 1.13 1.17l-.43.1-.43.03zm6.28-.64c1-2.6 4.16-3.56 5-6.38.45-1.1 3.3-3.35 1.65-.93-1.94 2.64-3.65 5.82-6.65 7.3zm4.82-.83c-.25-1.18 1.13-.94 0 0zM15.1 36c-1.52-.34-3.28-1.1-4.1-2.5.92 1.17 4.56.4 4.1 2.5zm-7.77-.16c-1.44-1-.5-1.9 0 0zm34.2-.34c-1.3-1 1.64-1.9 0 0zm-21.4-.07c.04-.86 1.15-.37 0 0zm-13.8-.86c-1.3-.9.52-3.4.23-.87-.06.3-.15.58-.23.87zm-1.26-.1C2.17 33.2.02 30.2.17 26.9c-.08-2.1 1.9-3.73 1.4-5.23 1.1-.06 3.68-2.4 1.2-1.4-1.12.32-2.76 1.97-1.1.18.55-.5-.64-2 .38-1.57.87.73 3.13-.65 3.65.45 1.17-.5 4.4 1.58 2.78-1-.9-.55-2.44-.23-1.8-1.33-1.04-1.02-4.4 2.33-2.87-.12-.92.85-1.86 1.55-.8-.07.22-.95 0-1.47.63-.72 1.54-.2 2.15-3.44.25-1.36-1.65.1.07-3.22.64-4.13 2.04-1.7 3.62-4.2 5.8-5.47 2.8.46 2.92-3.58 5.74-2.8 2.6-.23 4.57-2.5 7.32-1.32 2.5.9 4.8-.64 7.35.3 2.2-.74 6.15.3 6.25 3.26 1.58 2.24-1.2 5.47.52 7.45 1.6.16 3-2.23 4.42-.12 2.26 1.04 4.05 2.8 4.75 5.28.8 1.05.48 2.43-.74 1-1.66.56-4.15 1.74-4.88-.62-.75 1-4.73 1.52-2.66-.4-.45-1.62-3.35-3.68-2.9-4.28-.3 1.17-1.48 4.2-2.05 1.43-.07-1.53-1-5.34-2.72-2.74-2.56 1.7-3.2 4.96-4.5 7.6.87 1.6 3.1-1.9 3.93-2.8 1.97-2.58 3.35.22 3.94 2.16 1.07 2.17-2-1.25-3.2-.1-2.18.73-2.83 3.38-4.07 5.17-1.6 3.05-2.94 6.38-5.58 8.68-1.22.18 1.3-2.83 1.58-3.77.6-.56 2.44-4.37.8-3-2.17 1.4-3.35 3.72-5.23 5.46-.6 1.28-4.8 2.06-2.93 0 2.1-.9 5.02-3.04 3.24-5.7-1.48-1.9-.14-5.35-2.63-6.47-.03 2.57.47 5.7-1.07 8.13-.64 1.42-.4 5.73-2.35 4.87-.96-2.2 1.22-4.16 1.9-6.1.96-1.07.14-5.6-.83-2.6-1 1.7.47-2.1.28-2.7 0-2.46-1.2-4.68-1.83-7-.52-1.83-1.94-.84-1.03.66 1.18 2.5 1.44 5.1 1.6 7.77-.45 2.65-2.4 4.62-3.62 6.9-.66.27.67-2.6 1.26-3.33 1.02-1.4 3.06-5.7.68-5.97-.46 1.55-1.78 4.9-2.2 5.15.37-2.2-2.15-3.98-3.23-1.4-1 .43-2.3 1.2-2.6 2.03.24-1.26-.48-3.83-1.2-1.26-.43 1.4.92 2.2 1.46 2.4-.48 2.75 1.52 4.62 2.3 6.8-.02.48-.18.98-.53 1.32zm1.26-2.77c-.4-1.76 1.73-4.85 2.4-4.75-.48 1.74-1.64 3.15-2.4 4.75zm24.93-.17c-.86-2.04 3.7-2.5 2.14-.6-.72.17-1.44.36-2.14.6zm10.97-.1c-.85-.77.74-.73 0 0zm-17.52-1.2c.76-2.6 2.3-4.93 3.8-7.1 1.52-1.78 5-2.26 6.26-.35-2.3-1.04-4.83-.3-6.18 1.9-1.4 1.78-2.44 3.8-3.87 5.54zm15.93-1.2c-.46-.76.47-.93 0 0zM43 28.5c-1.96-.42-.18-3.5-.05-5.05.46-2.5 1.64.7.37 1.62-.83 1.12.5 2.42-.33 3.43zm-2.33-.48c-.8-1.6.4-2.08 0 0zm3.75-1.38c-.08-1 .12-.68 0 0zm-3.92-.45c-.46-2.58-4.82-3.9-4.76-5.7 1.77 1.25 3.7 2.2 5.64 3.13.4.87-1.16 1.3-.88 2.56zm-9-.15c-.7-2.54 5.06.1 1.78-.4-.6 0-1.2.2-1.8.4zm-8.85-1.38c1.73-1.03 2.8-3.32 2.85-5.32-.6-2.4 1.14-5.3.95-7.13-1.5 1.64-4.47 2.16-3.76 5.16-.37 2.96-4.2 2.62-5.76.8.7 2.92 3.62 4.22 5.37 6.3l.35.2zm22.4-1.45c-1.92-.16 1.45-2.13.3-.17-.1.06-.2.12-.3.17zM5.97 18.95c-.66-.18.4-.3 0 0zm39.35-1.24c1.47-3.17-3.13-1.88 0 0zm-29.88-.58c.2-2.6-.44-5.27-.77-7.8-1.9 0-1.47 4-.57 5.48.3.85.63 1.75 1.34 2.32zm27.6-.03c1.1-1.38-.47-2.18-.22-.37l.04.24.17.12zm-34.38-.3c-.2-1.42-1.72-.6 0 0zM7.23 15.8c.27-.32-.4-.2 0 0zm10.94-1c-.3-1.4 0-5.62-1.84-4.7-.68 1.4-.06 4.7 1.84 4.7zm4.12-1.6c2.6 1.18 4.1-4.03 2.54-4.2-.45 1.2-1.27 3.86-1.3.98-.64.64-.98 2.23-1.25 3.23zm-5.53-1.5c-1.55-.97 1.32-1.2 0 0zm19.6-.28c-.58-1.5 1-5.98-1.8-4.74-1.82 1.2-5.07-2.7-4.44 1.04 1.5 1.38 3.8 1.7 5.4 3.23.28.17.56.33.85.47zm-23.82-.97c1.3-.86.04-3.43-.22-1.08.03.37.08.74.22 1.08zM17.6 9.4c.5-.6-.48-.16 0 0zm12.2-.1c.62-.38-.6-.28 0 0zm10.87-1.14c-3.32.15-.35-2.47 0 0zm-11.2-1.5c.6-1.13-.1-2.3-.54-.43-.63.53.25.5.54.44zM31.8 5.5c1.15.02 3.9-.66 1.53-1.67-.78 1.84-.54.17-.7-.87-.5.36-1.67 2.28-.84 2.54zm-6.62-.1c.95-.05 2.97-1.66.84-1.42-.96-.9-2.62 1.33-.84 1.42z"/><path fill="#656c7a" d="M30.03 47.9c2.3-1.28 5.1-2 6.46-4.58 1.2-2.34 3.42-3.54 5.33-5.05 1.45-2.24 3.5-4.3 3.22-7.25.5-2.35-1.18-5.52 1.2-7.06 2.5-1.5 1.76-4.62.78-6.88-.76-3.15-3.7-4.4-5.9-6.2-.73-1.58.67-4.02-2.02-4.23-2.08-1.04-1.27-4.73-4.17-5.16-2.36-1.16-4.84-.22-7.36-.8C25.12 2 22.47-.07 19.9.7c-1.86 2.2-6.1.34-6.9 3.33-1.8 1.07-4.32.94-5.12 3.22-.97.77-3.22 3.26-3.28 3.13 2.03-1.3 3.32-3.58 5.14-5.03 1.7-.26 3.6-.77 4.02-2.57 2.4-.47 4.8-.9 6.9-2.07 2.46.03 4.94 1.15 7.38.24 2.34.72 4.96-.47 7.3 1 2.33 1.23 1.92 5.85 5.3 5.58-.62 2.3.15 4.75 2.67 5.1 2.13 1.4 3.7 4.1 4 6.53-1.7-2.3-3.56 1.4-5.47.1-1.76-.4-5.48.23-3.68-2.36-.47-1.67-2.38-3.52-3.4-1.33-2.42 1.33-.54-4.4-3.1-4.03-2.32 1.32-3.6 3.73-4.53 6.22-1.57 2.34 1.64 1.5 1.9-.16.97-2.24 4.93-3.63 4.78-.05.82 2.87 3.7 4.22 6.12 5.35 2.02.77 3.48-1.84 5.65-1.06 3.54.8-2.35 2.9-1.03 5.42-1.14-.43-1.6 3.88-3.5 2.42-.8.42-1.16 1.8-.87-.04.47-2.88-.6-5.87-3.2-7.2-1.78-1.34-3.1-4.22-5.66-3.63-2.78.6-3.68 4-5.12 6.2-1.4 2.93-2.95 6.06-5.65 7.92.43-2 2.5-4.15 3.3-6.34.84-2.34-1.66.76-2.25 1.18-1.46 2.1-3.54 3.98-5.93 4.77-2.48 1.1-4.65-1.7-2.7-3.86.96-1.83 2.94-4.73 1.34-6.53-.38 1.2-1.5 4.36-1.05 1.32.32-1.37 1.72-5.12-.4-4.8-.13 2.38.43 4.88-1.53 6.78-1.16 1.1-2.34 4.46-2.6 4.62-.4-3 2.6-4.93 3.07-7.75.88-1-.8-4.04-.6-1.54.04 1.9-2.03 2.9-2.37 4.75-.25-1.36-.43-4.33-2.54-2.72-.34 1.56-4.37 1.48-2.4 3.3 1.12.94 1.42.83 2.26-.1-.07 1.58-1.47 2.9-2.43 2.43-.52 1.54 2 3.95 2.13 4.18.55-2.2.97-4.75 2.92-6.05.18 2.38-2.74 3.87-1.94 6.18 1.67-.1-.5 1.06.83 2.03 1.85 1.6 4.35 2.27 5.7 4.5.92 2.28-4.27 1.1-1.46 2.87 1.05.87 3.87-1.35 3.6-.27-1.82 1.77 2.18-.3 2.9.93 1.3.76 2.45 2.37 3.5 3.1-1.88-.4-3.5-1.65-4.32-2.96-2.86.32-5.9.5-8.38-1.27-2.4-1-4.3-3.6-4.5-6.2 2.6.92 3.53 3.82 5.32 5.72.85-.95-1.67-2.97-2.15-4.24-.95-.6-2.16-3.56-2.3-3.13-1.4 1.64-3.63-1.68-4.5-2.9-1.12-2.76.38 1.54 1.4 2 2.6 1.9 2.24 5.77 4.86 7.7 1.92 1.45 4.1 2.5 6.2 3.64 2.04 1.03 4.33 1.17 6.52 1.46 2.04 1.2 3.9-.68 5.8 0 1.87.7 1.74-3.03 2.65-.46.48.92.85 1.92 1.53 2.7zM.48 29.37c-.2-.76-.27-1.1 0 0zm-.2-.8c-1.36-2.37 2.44-4.96.5-6.95.7-.9 1.15-1.9.9-2.7 2.1-2 1-5.15 2.36-7.4-.05-.27-1.36 2.73-1 3.92.28 2.13-2.3 3-1.55 5.14-2.04.7 1.1 2.62-.77 3.8-.6 1.3-.7 2.8-.45 4.2zm29.75 19.1c-.6-.87-2.53-3.88-1.33-3.7.87 1.08 1.67 2.4 1.33 3.7zm.43-.68c-.5-.24.47-.36 0 0zm-3.82-1.48c-1.16-.04-2.42-1.1-3.5-.16.26-.96 3.2-2.56 1.34-.74.73.1 2.93-2 2.1-.43-.54.3.54.95.06 1.33zm-3.3-1.5c-.06-.77.4.2 0 0zm.38-1.23c.52-.95 3.6-1.03 3.83-2.97 1.36-.86.33-1.88-.17-2.37-.35-1.15-2.56 2.3-2.33-.35.23-1.82 2.9-2.15 4.02-2.46-.1 1.3 1.05.12 1.83.85 2.38-.14-2.02-1.05.42-.75 1.02-.65 1.57-.13.74.95-2.42 1.34-3.62 3.8-5.46 5.77-.8.74-1.8 1.26-2.88 1.33zm-1.37-.3c-1 .25-4-2.42-1.48-1.57.75-1.04 1.35 1.53 1.48 1.56zm-4.45-.87c-2.62-.22 2.6-.65 0 0zm4.55-.1c-1.73-2.06 2.72-1.83 1.9-.97-.75.05-1.07 1.12-1.9.97zm15.13-.28c-.2-.74.9-.22 0 0zm-11.27-.3c-.63-.3.63-.3 0 0zm-.5-.08c-1.6.07-.07-.98 0 0zm13.34-1.38c-.26-2 1.6-4.14 2.5-5.45.78 1.53-.7 3.12-.2 4.28-.86.15-1.23 1.4-2.3 1.18zm.76-.62c1.8-.2.78-4.36-.03-1.48.8.22-.6 1.12.03 1.48zm-24.66-.14c-2.83-.5-5.86-2.6-6.1-5.8 1.6 1.02 3.43 4.2 6.04 4.42 1.05-.1 3.92 0 1.53 1-.46.2-.96.32-1.46.38zm6.32-.5c.13-2.73 3.9-3.26 4.45-6 .54-.93 2.65-3.65 2.87-2.5-1.7 2.55-3.25 5.33-5.58 7.3-.56.44-1.14.84-1.74 1.2zm6.4-.63c.14-.6-.62.12 0 0zM15.52 36c-1.74.43-5.32-2.47-4.6-2.77.7 1.32 2.5.15 2-.06-.1 1.36 5.26 2.1 2.6 2.84zm4.2-.1c.3-1.4 1.96-1.44.38-.27-.1.12-.26.2-.4.28zM33 33.9c-.47-.2.22-.4 0 0zm-4.2-.1c-1.1-.8 1.77-1.12 0 0zm-14.2-.52c-.95-.26.93-.2 0 0zm15.43-.38C30 31 33.8 27.65 34.1 31.12c.35 1.43-.9 1.93-.98.28-1.2-.1-2.22.73-3.1 1.48zM42.7 32c-2.13.37-.42-2.93 0-.43V32zm-27.96-1.1c.32-.48-.63-.8 0 0zm1.2-.33c1.7-.62 4.34-2.9 2.78-4.8-2.7-1.27.34-4.65-2.13-6.3-1.55.24.52 3.5-.02 4.93-.66 1.38-1.74 3.32-1.33 4.48 2.12-.2-.1 1.24.7 1.7zm-5.65 0c.1-1.06.6-.64 0 0zm14.3-.2c.63-2.58 2.3-4.75 3.6-6.96 1.64-2.4 5.94-2.47 7.17-.15-2.15-1.46-5.32-.95-6.66 1.44-1.57 1.7-2.53 3.92-4.1 5.66zm5.66-3.3c.03-.45.55-.3 0 0zm.7-.64c-.35-2.83 4.85-.84 3.28-.38-1.1-.47-2.25-.03-3.28.38zm-28.38-.4c.52-.84.6-4.25-.5-1.88-.1.58-.33 1.73.5 1.87zm20.34-1.57c2.22-1.6 2.82-4.78 2.42-7.38.22-1.25 1.7-5-.47-2.94-2.67-.32-.4 4.94-3.18 5.43-1.4 1.13-4-.8-4.33-.52.7 2.33 3.66 2.55 4.48 4.78.3.27.66.53 1.07.63zm24.6-2.65c-.3-.2.2-.37 0 0zm-6.72-.58c-1.4-.83 1.93-.67 0 0zm1.83-.24c-.83-.6.87-.57 0 0zM9.03 19.9c.65-2.3-3.72-1.25-.98-.4l.48.24.5.17zm4.05-2.54c.1-1.4-.9-4.28-1.6-4.2.46 1.43.46 3.1 1.6 4.2zm32.24-.1c.52-1.54-1.47-1.1 0 0zM8.6 16.74c.1-.82-.9-.2 0 0zm6.8-.14c-.2-2.05.03-5.56-1.06-6.63-1.78 1.6-.32 5.3 1.07 6.63zm2.5-2.4c.77-1.6-1.64-2.14-.44-.3l.2.2.24.1zm6.48-1.32c1.54-.53.88-5.52.2-2.32-.1.65-1.52 2.2-.2 2.32zm13.83-.86c2.6-.04.93-5.53-.52-2.7-.7.9-1.32 2.85.53 2.7zm-3.98-2.1c2.1-3.04-4.04-1.58 0 0zM12.78 9.6c.5-.37-.46-.54 0 0zm12.27-4.27c1.35-.17-.52-.4 0 0zm8.87-.2c1.44-1.08-2.3-1.32-.12-.03l.12.02zm-8.3-.04c.87-.26.22-.5 0 0z"/><path fill="#5b6476" d="M29.93 48.05c2.33-1.33 5.1-2.08 6.5-4.65 1.16-2.54 3.7-3.45 5.48-5.27 1.13-1.92 2.94-3.52 2.96-5.93.27-2.27 0-4.56-.04-6.84 1.3-1.48 3.66-2.8 3.02-5.2-.15-1.75-2.07-5.27-2.25-5.43 1.02 2.35 2.85 5.12 1.63 7.7-2.1 1.63-3.2 3.9-2.57 6.63-.8-1.4-1.3.22-1.85.88-1.7-1.37 1.2 3.77-.77 1.9-1 .5-2.43 2.74-1.06.6 1.28-1-.4-3.9-.83-1.2-.4 1.27-1.54 2.88-.6.54.78-2.67 1.02-6.26-1.28-8.2-2.22-1.57-4.04-4.56-7.03-4.24-2.8.3-3.63 3.52-4.95 5.6-1.52 3-3.08 6.26-5.9 8.13.3-1.68 2.12-3.73 2.88-5.6.3-1.56-1.17 1.77-2.18 1.57-1.8 1.65-4.37 2.8-5.52 4.98.35 1.12 2.3-.75 1.7 1.02 1.4.27-2.07 1.6-2.97.88-1.24-.3-4.4-2.05-3.53-3.16 1.1 1.18.54-.3 1.7-.8-1.68-2.2 1.02-3.94 1.74-5.86.94-.75.48-3.5-.4-1.36-1.52 2.18.1-4.42-1.12-1.2-1.22 2.33-3.37 4.6-3.97 6.96-.26-.8.16-3.26-.66-1.2-.18 1.35-1.53 2.98-.1 3.63-.12 1.05 2.13 3.25 1.25.94-.5-2.88 1.84 1.17 2.76 1.6 1.52 1.96 4.28 1.9 6.2 1.84-1.2.7-2.6 2.22-.2 1.7 2.72.5 3.6-2.66 5.68-3.8 1.88-1.86 2.95-4.45 5.05-6.16 1.14-2.02 3.74-6.12 6.1-3.1.5.74 1.72 3.35.44 1.3-2.16-3.1-5.75.14-6.46 2.82-.82 1.42-2.97 4.04-3 4.7.82-.85 1.62.72 1.83-1.1 1.48-1.2 3.23-2.46 4.63-4.05 3.3-.38 1.76 4.55.1 5.8-2.23 1.87-4.03 4.2-5.86 6.45-1.37 1.13-.53 1.93.58 1.92.68 2.43-2.43 1.25-3.3 1.48-1.88 1.32-3.92-.16-5.9-.24 2.63-.16-2.36-2.7-2.94-1.06-2.1.55-4.12-2-6.22-2.56-3.03-1.22-3.34-4.68-4.83-7.16-2.13-2.08-4.23-4.7-3.62-8 .18-1.9 2.28-3.42.44-5.08 1.86-.53.02-2.5 1.73-3.28 1.16-2.34.46-5.23 2.05-7.45-1.04 1.06-1.57 4.27-1.7 6.3-.8 1.23-1.5 3.03-1.7 4.04-1.45 1.13 1.34 2.2-.3 3.43-1.43 3.12-.6 7.13 2.07 9.25 2.33 2.1 1.98 6.02 4.88 7.7 1.94 1.1 3.82 2.28 5.82 3.26 2.07 1.08 4.4 1.1 6.63 1.43 2.3 1.03 4.14-.74 6.36-.03 1.3-.12.94-2.67 1.75-.7.54 1 .92 2.12 1.68 2.98zm15.3-33.96c-1.22-1.8-5.3-2.03-4.27-4.94.4-2.74-3.16-1.73-3.37-4.36-.05-1.1-3.06-4.28-1.18-2.16 1.03 1.86 1.4 4.78 3.96 4.75.66 1.64-.57 4.45 2.03 4.7.97.6 1.95 1.22 2.82 2zm-10-12.42c-.38-.13-.68-.23-.13-.05l.12.05zm-5.23 46c-.58-.9-3.03-4.3-1.17-3.96.94.9 2.34 3.2 2.92.7.14-1.45 1.1-1.3 1.87-.9 2-1.26-1.14 2.12-1.7 2.6-.62.55-1.27 1.05-1.92 1.55zm-4.82-3.32c.52-.24-.66-.2 0 0zm-8.04-1.04c.65-.2-.83-.18 0 0zm2.52-.82c2.48-.44-.65-1.86 0 0zm-3.22-.56c1.6-.14-1.4-.38 0 0zm2.76-.1c.68-.37-.98-.23 0 0zm18.3-.6c1.63-1.82 1.74-4.52 3.14-6.46.76-2.68 2 .8.9 1.86-.67 1.44 1.3.6-.18 1.7-1.22 1.06-2.92 1.5-3.85 2.9zm-21.76-.36c0-.3-.72.27 0 0zm-.73 0c.33-.2-.57.05 0 0zm21.08-.28c-.48-.58.48-.88 0 0zm.4-1.2c.6-1.6 2.4-4.75 2.44-5.22-.47 1.88-1.22 3.72-2.44 5.2zm-21.54 0c.46-.85 1.76-.28 0-.55-1.1-.46-3.26-1.28-1.2.26.38.2.8.27 1.2.3zm5.95-.32c1.28-.77 2.96 0 3.32-2.12-1.06.7-2.5 1.1-3.33 2.12zm19.37-.86c.8-.22.05-.97 0 0zM6.6 36.42c-.06-1.16-1.03-3.2-1.4-1.72-1.36-.36.56 1.06.7.53-.12 1.13.13.52.7 1.2zm12.6-.06c.07-1.38 3.1-2.62 1-.76-.3.3-.62.6-1 .76zm23.66-.7c-.5-.22.8-.43 0 0zm.23-.9c-.37-1.08.5-1.5 0 0zm-13.2-.6c2.42-.34-.2-1.9 0 0zM5.77 32.6c.3-2.5 1.62-4.65 2.66-6.8-.17-3.1-1.6 1.12-1.95 2.08-.37 1.83-3 2.88-.75 4.48l.04.24zm4.42-.96c-1.1-1.05 1.9-4.08 1.7-3.17-.75.94-1.4 1.98-1.7 3.17zm14.4-1.18c.42-2.6 2.24-4.7 3.47-6.93 1.73-2.4 5.24-2.75 7.3-.63.74.42 2.13 2.6.64.93-1.98-1.82-5.44-1.85-7 .57-1.68 1.84-2.78 4.16-4.4 6.06zm-8.16-.4c2.5.26 3.93-5.48.43-3.7-1.37.64.04 1.15.5 1-.18.94-.76 1.75-.93 2.7zm20.2-.15c-.56-.77.03-.7 0 0zM9.47 26.65c.75-1.08 2.6-3.5 1.82-4.1-1 1.07-2.23 2.47-1.82 4.1zm-3.86-.66c.5-1.7-1.77-.46 0 0zm-3.06-.17c1.27-1.65-1.63-.62 0 0zm20.44-1.5c2.3-1.58 2.47-4.7 2.4-7.25.47-1.25.3-3.2-1-1.23-.8 1.9-1.24 4.05-2.84 5.34.23 1.27.23 2.67 1.44 3.13zm17.82-1.4c1.57-1.65 3.8-1.32 5.9-1.4 2.07-2.2-1.7-4.22-3.17-1.93-1.2-.48-2.57 1.65-.67.96-.27.88-2.5.98-3.38.55 1.52-.47 1.1-2.2-.6-1.62-1.8.7-1.93-1.58-.8-2.47-.38-1.2-2.4-4-2.85-1.35-3.02 2.5.92 5.23 3.04 6.37.8.42 1.64.75 2.53.9zm-23.57-.37c1.46-1.32-1.83-3.68-.7-.8 0 .38.26.9.7.8zm2.66-1.48c.9-.6-.85-.78 0 0zm-6.15-.17c1.08-2.26-2-1.73 0 0zm5.84-.28c-.44-.97-2.45-1.37-.84-.24l.4.17.43.07zm-7.88-.03c.24-1.33-1.27-.3 0 0zm29.45-.7c.24-.8-.67-.04 0 0zm-32.24-.16c-.23-2.15-2.8.1 0 0zm18.67-.68c1.68-1.75 3.72-4.34 5.76-4.3.2-3.13-3.25-2.55-4.25-.44-.57.9-1.95 3.5-1.38 3.6.77-.33-.22.85-.12 1.14zM15.37 16.1c.05-1-.5-5.4-1.26-2.7 0 1.05.65 1.94 1.27 2.7zm16.3-2.25c-.3-1.68 2-1 0 0zm-7.22-1.1c1.22-.43.66-4.4.33-1.72-.1.52-.84 1.2-.33 1.7zm13.92-.9c2.6-1.75-3-1.63-.63 0l.3.03.33-.03zM5.47 9.7c.96-.6 2.2-2.87.74-.82-.18.32-.4.67-.73.83zm2.36-2.4c1.12-.33 1.26-2.9.68-.7-.1.3-.37.57-.67.7zm1.56-2c1.28.15 4.1-1.42 1.38-.22-.46.1-.94.08-1.4.22zm3.15-.9c1.13-.4 1-2.95.57-.6 0 .3-.3.54-.57.6zM34 5.1c.93-1.12-1.9-1.28-.32-.06.1 0 .2.03.3.05zM13.87 2.5c.74-.08 1.35-.24 0 0zm2.76-.3c1.03.75 3.65-2.4 1.6-.53-.44.38-1.02.6-1.6.52zm13.72-.8c.58.03-2.55-1.13-.5-.06.13.08.34.03.5.06zm3.23-.07c-.66-.36-.96 0 0 0zm-2.74-.07c.84-.33.37-.15 0 0zm-3.95-.03c1.2-.38 1.2-.6 0 0zm-1 0c-1.1-.15-3.88-.27-1.24-.08.42.03.83.06 1.25.08zM23 1c-1.22-.45-2-.54-.33-.08.1.02.22.04.33.07zM21.22.56c-1.03.13-.23.03 0 0zm11.34.3c-.3-.04-.66-.1 0 0zm-3.8-.06c-.4-.24-.72.02 0 0z"/><path fill="#515968" d="M30.03 47.8c2-1.28 4.63-1.66 5.92-3.96 1.53-1.98 2.96-4.16 5.3-5.12 1.47-1.87 3.2-3.73 3.57-6.2.27-2.42.1-4.85 0-7.26-.5 3.1.6 6.54-.9 9.42-1.5 2.36-2.83 4.3-5.3 5.66-1.8 1.24-3.35 4.9-4.9 5.1 2-2.1 3.95-4.4 4.45-7.37.67-2.07 2.55-5.78 2.3-6.9-1.44 2.18-1.6 4.98-3.05 7.17-.86 2.57-2.62 4.5-4.06 6.65-.45 1.95-2.42 1.28-3.33 2.8zm14.8-22.54c1.22-1.47 3.56-2.66 3-4.97-.64-2.92-1.74-6.45-4.56-7.8-1.98-.58-2.92-2.34-2.32-4.3-.57-1.85-3.08-1.12-3.32-3.44-.68-2.86-3.42-4.1-6-3.83-2.26.12-4.37-.26-6.66.14-2.42-.28-4.87-1.28-7.03.6-1.58.94-4.83-.34-5 2.38-.84.72-3.88 1.13-3.62 1.36 2.04-.08 4-1.4 4.76-2.87 2.83.33 5.1-2.04 7.8-1.82 2.53.9 5.04.18 7.48.26 2.13.66 4.03-.62 6.06.98 2.42.82 1.44 4.4 3.9 5.15 3.1.03-.43 4.33 2.75 4.8 2.45 1.05 4.13 3.2 4.9 5.8 1.77 3.2.05 5.38-2.15 7.56zM22.24 46.12c1.47-1.84 4.82.72 5.24-1.8.86-.86 1.75 2.85.8.27-1.28-2.4-1.12 2.33-3.15.75-1.57-.98-2.57 1.2-4.06.43.4.08.73.4 1.15.34zm-1.66-.56c-3.47-.4-7.07-.94-9.96-3.14-1-.7-1.95-.94-.3-.14 2.66 1.8 5.68 3.16 8.9 3.1.46.03.9.08 1.35.18zm8.57-2.3c1.94-1.2 3.9-2.48 5.55-4.05 2.3-1.7 3.3-4.4 4.34-6.98 1.28-3.05.9-7.1-1.85-9.16-2.03-1.7-4.56-4.44-7.4-2.9-2.95 2.6-3.88 6.77-6.25 9.84-1.93 2.25-4.06 4.5-6.7 5.82-2.43.95-5.35-.66-6.63-2.88-1.48-3.22 2.8-4.9 2.78-7.78.28-1.05-.12-2.44-.58-.6-.93 2.6-4.3 4.6-2.92 7.8 1.32 2.5 3.96 4.98 6.88 4.85 2.43-.2 3.78-2.54 5.5-4.05 2.4-2.22 3.54-5.37 5.17-8.16 1.2-2.3 3.73-4.37 6.36-3.3 2.77 1.15 4.93 3.94 5.5 6.96.64 1.34-1.8 5.08-.62 2.1.47-2.8-.94-6.1-3.44-7.33-1.4-1.38-3.42 1.6-4 .2.55-.65-2.13.85-2.47 1.68-3.2 4.52-6.32 9.3-10.76 12.62.38 1.62 3.63-.32 4.24-1.55 2.34-1.72 3.9-4.16 5.75-6.35 1.95-1.67 2.44-5.5 5.6-5.17 2.55.78 3.84 4.4 3.46 6.97-1.05 1.95-2.25 4.43-4.32 5.3 1.7-1.97 4.53-4.14 3.83-7.1-.2-2.85-3.72-5.3-5.7-2.45-.85 1.12-2.12 3.4-1.8 4.36 1.73-.67 4.47-4.68 5.57-1.2.28 2.9-1.96 5.36-4.12 6.9-1.4.87-1.3 2.45.27 1.08 1.87-1.3-.27 2.15-.6 2.93-.3.5-.6 1.02-.63 1.62zm-2.76-.32c1.77.24 3.55-3.92.98-1.8-.45.48-1.06 1.08-.97 1.8zm11.84-3.27c1.12-2.3-.56-1.02 0 0zm.67-2.07c.64-.44-.26-.66 0 0zm2.73-.65c1.04-.97 1.86-5.34-.47-4.38.44 1.5 1.6 2.94.47 4.38zM4.9 36.77c-.32-1.1-1.36-3.4-.4-1.03.13.35.27.7.4 1.03zm4.46-2.1c-.45-.8-.5-4.9-1.2-3.54 0 1.27.25 2.65 1.2 3.54zm34.2-.45c1.33-1.37-.56-6.18-.55-2.2.17.75.4 1.46.56 2.2zm-24.83-.24c1.55-1.22 2.65-2.96 3.42-4.8-.14.3-1.22 1.45-.8.22-1.26 1.24-4.46 2.87-2.9 4.5l.1.1.18-.02zm-12.76-3.1c.18-1.72 3.03-4.85 1.88-5.53-.9 1.73-1.47 3.62-1.88 5.53zm12.56-2.62c.84-1.1-.07-2.18-.1-.38-.02 0-.1.47.1.38zm-5.35-1.07c1.25-.2 1.47-3.9.43-1.4-.23.4-.7.88-.42 1.4zM.22 26.2c.07-1.07 2.16-5.15.7-2.32-.4.7-.62 1.5-.7 2.32zm1.2-3.93c-.34-.35-1.12-.95-.32-.27l.3.26zm-.74-.66c.34-.76 1.76-2.67.76-1.18-.32.27-1.35.6-.76 1.18zm9.08 4.27c1-.7 2.48-4.6.68-1.9-.37.56-.74 1.2-.68 1.9zm14.02-2.6c1.48-1.47.42-2.22 1.47-3.65.76-2.23-1.4-1.78-1.85-.15-1.14 1.17-.87 2.8.26 3.4l.03.2.08.2zm16.06-.73c1.7-1.45-3.6-.9-.6-.17.2.1.4.1.6.17zm-1.93-1.14c3.07-.93-3.53-2-.66-4.06-1.2-1.16 1.03-1.98-1-2.44-.78 1.68-2.9 4.06-.28 5.6.58.47 1.3.58 1.95.9zm5.82-.38c1.98.87 2.74-4.16.82-1.87-.56.35-2.46 1.48-.82 1.87zm-34.8-1.3c-.44-1-1.4-.24 0 0zm-7.57-.18c1-1.25 2.17-4.63 1.9-4.95-.05 1.85-1.35 3.27-1.9 4.95zm27.38-1.97c.62-1.14 3.4-2.6 2.9-3.2-2.23.15-3.1.6-2.9 3.2zm-3.75-.65c1.4-1.97-.78-1.05 0 0zm-9.74-1.48c.43-1.35-1.12-3.26-.6-.84.15.3.37.58.6.84zM3 13.67c.6-1.1 1.46-3.13.33-.86-.16.25-.5.53-.32.87zm1.07-2.44c1.22-1.8 3.03-3.07 4.48-4.6.06-.46-2.2 1.98-2.87 2.66-.43.72-1.6 1.02-1.6 1.93zM24.7 12.4c.58-.55-.33-.52 0 0z"/></g></g></svg>