<svg xmlns="http://www.w3.org/2000/svg" width="48" height="48"><g><path fill="none" stroke="#fff" stroke-width="3" d="M1.42 23.1l2.4-12.15 2.38 28.7 2.4-23.18 2.38 11.03 2.24-26.08 2.54 32.7 2.38-17.65 2.78 5.7 2-3.5 2.4 6.62 2.38-9.94 2.4 24.28 2.38-34.2L34.86 33l2.4-18.76 2.38 11.03"/><path fill="none" stroke="#5c3566" d="M1.42 23.1l2.4-12.15 2.38 28.7 2.4-23.18 2.38 11.03 2.24-26.08 2.54 32.7 2.38-17.65 2.78 5.7 2-3.5 2.4 6.62 2.38-9.94 2.4 24.28 2.38-34.2L34.86 33l2.4-18.76 2.38 11.03"/><path fill="none" stroke="#fff" stroke-width="3" d="M19.9 30.44v9.34c.04 2.44.58 4.18 1.63 5.23 1.05 1.06 2.4 1.57 4.06 1.54 1.74.02 3.17-.5 4.28-1.6 1.1-1.07 1.67-2.82 1.7-5.24v-9.26h-2.06v9.4c-.02 1.74-.37 3-1.06 3.83-.68.8-1.62 1.2-2.8 1.2-1.08.02-1.95-.38-2.63-1.2-.68-.8-1.03-2.07-1.06-3.82v-9.4H19.9zM40.87 46.3l5.66-15.86h-2.18l-2.68 7.83c-.37 1.04-.7 2.05-1 3.04-.32 1-.6 1.95-.8 2.87h-.06c-.22-.9-.48-1.86-.77-2.85-.28-.98-.6-2-.92-3.07l-2.46-7.8H33.4l5.2 15.84h2.26z" style="-inkscape-font-specification:Myriad Pro" font-size="23.503" font-family="Myriad Pro"/><path d="M19.9 30.44v9.34c.04 2.44.58 4.18 1.63 5.23 1.05 1.06 2.4 1.57 4.06 1.54 1.74.02 3.17-.5 4.28-1.6 1.1-1.07 1.67-2.82 1.7-5.24v-9.26h-2.06v9.4c-.02 1.74-.37 3-1.06 3.83-.68.8-1.62 1.2-2.8 1.2-1.08.02-1.95-.38-2.63-1.2-.68-.8-1.03-2.07-1.06-3.82v-9.4H19.9zM40.87 46.3l5.66-15.86h-2.18l-2.68 7.83c-.37 1.04-.7 2.05-1 3.04-.32 1-.6 1.95-.8 2.87h-.06c-.22-.9-.48-1.86-.77-2.85-.28-.98-.6-2-.92-3.07l-2.46-7.8H33.4l5.2 15.84h2.26z" style="-inkscape-font-specification:Myriad Pro" font-size="23.503" font-family="Myriad Pro"/></g></svg>