<svg xmlns="http://www.w3.org/2000/svg" width="50pt" height="50pt" viewBox="0 0 50 50"><path id="Path_0" fill="#f8fc00" stroke="#f8fc00" stroke-width="0.5" d="M17.5 3.75H25v7.5h-7.5z"/><path fill="#00fcf8" stroke="#00fcf8" stroke-width="0.5" d="M25 3.75h7.5v7.5H25z"/><path id="Path_2" fill="#00fc00" stroke="#00fc00" stroke-width="0.5" d="M17.5 11.25H25v7.5h-7.5z"/><path id="Path_3" fill="#d054d0" stroke="#f800f8" stroke-width="0.5" d="M25 11.25h7.5v7.5H25z"/><path id="Path_0" fill="none" stroke="#000" stroke-width="0.5" d="M15 27.5h20V45H15z"/><path id="Path_2" stroke="#000" stroke-width="0.5" d="M12.5 32.5l2.5-5v20h-2.5z"/><path id="Path_3" stroke="#000" stroke-width="0.5" d="M12.5 45H35l-2.5 2.5h-20z"/><path id="Path_6" stroke="#000" stroke-width="0.5" d="M22.5 33.9h5v5h-5z"/><path fill="none" stroke="#000" stroke-width="0.5" d="M15 2.5h20V20H15z"/><path stroke="#000" stroke-width="0.5" d="M12.5 7.5l2.5-5v20h-2.5z"/><path stroke="#000" stroke-width="0.5" d="M12.5 20H35l-2.5 2.5h-20z"/><path stroke="#000" stroke-width="0.5" d="M22.5 8.9h5v5h-5z"/></svg>