<svg xmlns="http://www.w3.org/2000/svg" width="50pt" height="50pt" viewBox="0 0 50 50"><path id="Path 0" fill="none" stroke="#000" stroke-width="0.5" d="M7.96 31.59l12.48-26.6 2.43 1.7 3.2 2.28 2.6.78 2.35-.45 1.92-1.2L35.8 4.8"/><path id="Path 2" fill="none" stroke="#000" stroke-width="0.5" d="M26.95 44.32l-4.47 1.92-3.1.18-2.66-1-1.9-.94h-.02M37.98 17.43l-.3-1.1-.12-2.2.4-2.67.35-2.93-.82-2.45-1.68-1.3M37.98 17.43l-2.34 18.53-3.05.73-2.82 1.6-1.3 2.63-.2.63-.46 2.07-.87.7M15.05 44.7l-1.54-.42-3.93-2.52-1.85-2.7-.4-3.3.64-4.17"/><path id="Path 0" fill="none" stroke="#505450" stroke-width="0.5" d="M21.4 13l3.36 2.3 1.2.54 1.72-.04 1.13-.55 1.66-1.55.47-.72"/><path id="Path 2" fill="none" stroke="#505450" stroke-width="0.5" d="M20.34 13.93l1.07-.92M25.58 36.45l-1.65.78-1.8.5-1.53-.13-2.25-1M29.7 31.73l-2.4 1.15-.8 1.55-.4 1.6-.52.4M18.36 36.6l-.9-.18L14.98 35l-.52-.7-.77-1.95.07-1.63.37-2.94-.2-.75 6.4-13.1"/><path fill="none" stroke="#505450" stroke-width="0.5" d="M22 .13l4.32 3.5 2.78 1.33 3.06.13 2.5-1.03L38.8.37"/><path id="Path 2" fill="none" stroke="#505450" stroke-width="0.5" d="M14.36 1.8L16.29.17"/><path id="Path 2" fill="none" stroke="#000" stroke-width="0.5" d="M2.04 49.84l-.75-2.46-.18-2.47.43-4 .5-3.06.14-2.12-.15-1.3L0 31.35 9.18 0M44.9 0L50 16.27l-6.32 27.1-4.4 1.23-4.06 1.15-2.03 1.1-1.96 2.4"/><path id="Path 2" fill="none" stroke="#505450" stroke-width="0.5" d="M43.7 17.5l-.75-2.46-.17-2.47L41.54 0"/><path id="Path 2" fill="none" stroke="#c07070" stroke-width="0.5" d="M50 30.1l-4.7 17.32-6.04 1.56"/><path id="Path 2" fill="none" stroke="#505450" stroke-width="0.5" d="M43.7 17.5L37.5 40l-1.95-.24-2.3.47-2.58 1.88-1.1 2.24-.7 2-1.77.86M27.1 47.2l-2.3 1.3-3.1-.2-4.07 1.16-2.5.04-1.98-.63-5.3-2.6M7.86 46.28l-1.83-2.86L4.9 39.5l-.6-3.9-.45-2.14L14.35 1.8"/><path fill="#603838" d="M21.04 19.6l-2 5.3.9 1.82 3.72 3.8 3.02-1.7.98-7.84L25 20z"/><path fill="none" stroke="#505450" stroke-width="0.5" d="M29.7 31.73l2.87-10.6L32 19.2l.43-3.42-.03-1.07-.3-.73-1.17-1"/></svg>