<svg xmlns="http://www.w3.org/2000/svg" width="48" height="48" xmlns:xlink="http://www.w3.org/1999/xlink"><defs><linearGradient id="a"><stop offset="0" stop-color="#fff" stop-opacity=".657"/><stop offset="1" stop-color="#fff" stop-opacity="0"/></linearGradient><linearGradient id="b" x1="27.827" x2="28.213" y1="26.185" y2="11.645" xlink:href="#a" gradientUnits="userSpaceOnUse" gradientTransform="matrix(1.038 0 0 1.037 -.858 -.765)"/></defs><g><rect width="20.951" height="44.875" x="7.707" y="1.594" fill="none" stroke="#fff" stroke-width="3" ry="2.367" overflow="visible" enable-background="accumulate"/><rect width="25.331" height="25.331" x="27.845" y="-12.392" fill-opacity=".251" fill-rule="evenodd" transform="rotate(45.009)" ry="3.702" overflow="visible" enable-background="accumulate"/><path fill-rule="evenodd" stroke="#fff" stroke-width="2.00304" d="M28.62 14.03l-4.7-8.13h9.4l-4.7 8.13z" overflow="visible" enable-background="accumulate"/><rect width="20.951" height="44.875" x="7.707" y="1.594" fill="none" stroke="#000" ry="2.367" overflow="visible" enable-background="accumulate"/><rect width="24.211" height="24.211" x="26.729" y="-13.322" fill="#fcaf3e" fill-rule="evenodd" stroke="#ce5c00" stroke-width="2" transform="rotate(45.009)" ry="3.538" overflow="visible" enable-background="accumulate"/><path fill="url(#b)" fill-rule="evenodd" d="M14.7 28.9c-1.22-1.23-1.22-3.2 0-4.44l11.44-11.42c1.23-1.23 3.2-1.23 4.44 0l11.87 12.13c-10.32-3.63-20.8 6.24-27.74 3.74z" overflow="visible" enable-background="accumulate"/><rect width="20.341" height="20.341" x="28.664" y="-11.387" fill="none" stroke="#fff" stroke-opacity=".65" stroke-width="2" ry="2.088" overflow="visible" enable-background="accumulate" transform="rotate(45.009)"/><path fill-rule="evenodd" d="M28.62 14.03l-4.7-8.13h9.4l-4.7 8.13z" overflow="visible" enable-background="accumulate"/></g></svg>