<svg xmlns="http://www.w3.org/2000/svg" width="48" height="48" version="1" viewBox="0 0 612 792" enable-background="new 0 0 612 792"><defs><linearGradient><stop offset="0" stop-color="#fff"/><stop offset=".233" stop-color="#729fcf" stop-opacity=".748"/><stop offset="1" stop-color="#294f78" stop-opacity=".577"/></linearGradient><linearGradient><stop offset="0" stop-color="#f57f6d"/><stop offset="1" stop-color="#c5260e"/></linearGradient><linearGradient><stop offset="0" stop-color="#51140a"/><stop offset="1" stop-color="#bc3019"/></linearGradient></defs><g><path fill="none" stroke="#755023" stroke-width="17.04.2" stroke-miterlimit="10" d="M228 774.37l-299.5-142.1-.36-212.57 210.83-52.12v-138.5l140.42-30.4 40.92 8.15.5-128.96 96.46-19.58 178.66 18.26.4 284.3 69.8 15.4v215.8L228 774.37z" stroke-linecap="round" stroke-linejoin="round"/><path fill="none" stroke="#efe7df" stroke-width="17.04" stroke-miterlimit="10" d="M659.66 381.42l-71.1-16.1V84.4l.1-.02h-.1v-.17l-.4.13-170.65-19.48L327.3 83.2l-.53 131.55-47.3-9.47-134 29.04v138.34L-65.4 424.8l.36 203.42L229.9 768.28 659.68 587.8V381.43h-.02z" stroke-linecap="round" stroke-linejoin="round"/><path fill="#a17644" d="M228.06 517.98l431.6-137.82v206.32L228.46 766.3l-.4-248.32z"/><path fill="#c7a37a" d="M227.94 517.87l.8 247.52-294.2-139.24.05-202.7 293.34 94.4z"/><path fill="#e2d4c5" d="M228.06 517.98l431.6-137.82-286.8-65.05-438.27 108.36 293.46 94.52z"/><path fill="none" stroke="#a3855b" stroke-width="5.111999999999999" stroke-miterlimit="10" d="M215.6 513.43c4.25.5 22.63 1.05 22.63 1.05" stroke-linecap="round" stroke-linejoin="round"/><path fill="none" stroke="#a3855b" stroke-width="5.111999999999999" stroke-miterlimit="10" d="M185.87 504.22c22.66 2.83 56.6 4.23 70.43 4.23" stroke-linecap="round" stroke-linejoin="round"/><path fill="none" stroke="#a3855b" stroke-width="5.111999999999999" stroke-miterlimit="10" d="M162.52 496.5c24.76 1.08 103.75 3.74 130.28 1.6" stroke-linecap="round" stroke-linejoin="round"/><path fill="none" stroke="#a3855b" stroke-width="5.111999999999999" stroke-miterlimit="10" d="M105.92 478.05c56.96 7.8 196.34 11.3 222.53 8.13" stroke-linecap="round" stroke-linejoin="round"/><path fill="none" stroke="#a3855b" stroke-width="5.111999999999999" stroke-miterlimit="10" d="M61.7 465.67c56.95 7.8 267.8 14.52 301.06 10.96" stroke-linecap="round" stroke-linejoin="round"/><path fill="none" stroke="#a3855b" stroke-width="5.111999999999999" stroke-miterlimit="10" d="M21.9 451.68c60.5 9.56 338.4 20.7 391.08 8.5" stroke-linecap="round" stroke-linejoin="round"/><path fill="none" stroke="#a3855b" stroke-width="5.111999999999999" stroke-miterlimit="10" d="M-32.75 434.18c66.86 14.33 423.46 27.6 498.27 7.96" stroke-linecap="round" stroke-linejoin="round"/><path fill="none" stroke="#a3855b" stroke-width="5.111999999999999" stroke-miterlimit="10" d="M-33.82 417.72c149.12 28.14 481.3 26.55 556.14 6.9" stroke-linecap="round" stroke-linejoin="round"/><path fill="none" stroke="#a3855b" stroke-width="5.111999999999999" stroke-miterlimit="10" d="M9.18 407.12c149.1 28.12 469.1 27.06 543.9 7.43" stroke-linecap="round" stroke-linejoin="round"/><path fill="none" stroke="#a3855b" stroke-width="5.111999999999999" stroke-miterlimit="10" d="M55.87 395.7c149.1 28.14 463.26 25.2 538.06 5.6" stroke-linecap="round" stroke-linejoin="round"/><path fill="none" stroke="#a3855b" stroke-width="5.111999999999999" stroke-miterlimit="10" d="M111.87 381.64c149.12 28.12 456.1 23.88 530.88 4.25" stroke-linecap="round" stroke-linejoin="round"/><path fill="none" stroke="#a3855b" stroke-width="5.111999999999999" stroke-miterlimit="10" d="M150.33 371.55c149.1 28.12 404 23.52 478.84 3.9" stroke-linecap="round" stroke-linejoin="round"/><path fill="none" stroke="#a3855b" stroke-width="5.111999999999999" stroke-miterlimit="10" d="M191.18 360.94c108.8 19.63 288.66 26 409.12 7.95" stroke-linecap="round" stroke-linejoin="round"/><path fill="none" stroke="#5a3e10" stroke-width="8.52" stroke-miterlimit="10" d="M232.92 539.94c8.42 8.7 17.8 103.45 20.53 128.1 2.83 25.48 3.53 82.13 3.53 82.13" stroke-linecap="round" stroke-linejoin="round"/><path fill="none" stroke="#5a3e10" stroke-width="5.111999999999999" stroke-miterlimit="10" d="M230.72 633.67c9.18 25.87 10.68 123.52 10.68 123.52" stroke-linecap="round" stroke-linejoin="round"/><path fill="none" stroke="#70552b" stroke-width="5.111999999999999" stroke-miterlimit="10" d="M227.28 634.23c-9.2 25.84-11.44 122.33-11.44 122.33" stroke-linecap="round" stroke-linejoin="round"/><path fill="none" stroke="#75582e" stroke-width="8.52" stroke-miterlimit="10" d="M224.07 538.55c-12 14.84-17.43 102.74-20.14 127.38-2.85 25.46-3.9 81.34-3.9 81.34" stroke-linecap="round" stroke-linejoin="round"/><path fill="none" stroke="#5a3e10" stroke-width="8.52" stroke-miterlimit="10" d="M241.88 520.12c13.45 10.6 30.06 113.38 32.8 138 2.84 25.48 10.44 80.38 10.44 80.38" stroke-linecap="round" stroke-linejoin="round"/><path fill="none" stroke="#75582e" stroke-width="8.52" stroke-miterlimit="10" d="M212.38 518.37c-13.44 10.6-31.18 112.3-33.93 136.9-2.84 25.5-9.9 77.48-9.9 77.48" stroke-linecap="round" stroke-linejoin="round"/><path fill="none" stroke="#5a3e10" stroke-width="8.52" stroke-miterlimit="10" d="M259.9 513.5c17 15.57 33.96 111.48 36.7 136.1 2.8 25.5 11.85 79.1 11.85 79.1" stroke-linecap="round" stroke-linejoin="round"/><path fill="none" stroke="#75582e" stroke-width="8.52" stroke-miterlimit="10" d="M184.55 508.45c-16.97 15.58-35.2 108.78-37.95 133.4-2.83 25.46-9.83 75.4-9.83 75.4" stroke-linecap="round" stroke-linejoin="round"/><path fill="none" stroke="#75582e" stroke-width="8.52" stroke-miterlimit="10" d="M159.86 500.5c-16.97 15.58-40.22 106.13-42.96 130.72-2.83 25.5-9.02 72-9.02 72" stroke-linecap="round" stroke-linejoin="round"/><path fill="none" stroke="#75582e" stroke-width="8.52" stroke-miterlimit="10" d="M103.38 482.75C86.4 498.3 70.1 589.65 67.36 614.28c-2.8 25.46-8.5 65.76-8.5 65.76" stroke-linecap="round" stroke-linejoin="round"/><path fill="none" stroke="#75582e" stroke-width="8.52" stroke-miterlimit="10" d="M61 469.2c-14.84 22.65-27 109.82-29.74 134.46-2.8 25.46-5.37 61.6-5.37 61.6" stroke-linecap="round" stroke-linejoin="round"/><path fill="none" stroke="#5a3e10" stroke-width="8.52" stroke-miterlimit="10" d="M296.52 501.3c8.42 8.68 39.1 108.84 41.82 133.43 2.84 25.5 8.88 77.2 8.88 77.2" stroke-linecap="round" stroke-linejoin="round"/><path fill="none" stroke="#5a3e10" stroke-width="8.52" stroke-miterlimit="10" d="M331.8 490.67c7.6 9.5 28.66 110.18 31.08 134.8 2.54 25.53 3.92 78.26 3.92 78.26" stroke-linecap="round" stroke-linejoin="round"/><path fill="none" stroke="#5a3e10" stroke-width="8.52" stroke-miterlimit="10" d="M366.3 479.82c6.8 10.22 23.18 109.7 25.34 134.32 2.22 25.53 3.57 78.2 3.57 78.2" stroke-linecap="round" stroke-linejoin="round"/><path fill="none" stroke="#5a3e10" stroke-width="8.52" stroke-miterlimit="10" d="M415.64 464.96c6.03 11.02 17.8 108.9 19.65 133.57 1.9 25.53 2.37 75.5 2.37 75.5" stroke-linecap="round" stroke-linejoin="round"/><path fill="none" stroke="#5a3e10" stroke-width="8.52" stroke-miterlimit="10" d="M469.24 446.9c4.4 12.6 7.44 108.4 8.74 133.16 1.33 25.56 2.14 75.92 2.14 75.92" stroke-linecap="round" stroke-linejoin="round"/><path fill="none" stroke="#75582e" stroke-width="8.52" stroke-miterlimit="10" d="M19.25 455.9c-4.43 12.62-8.04 109.33-9.34 134.06-1.32 25.56-2.67 66-2.67 66" stroke-linecap="round" stroke-linejoin="round"/><path fill="none" stroke="#75582e" stroke-width="8.52" stroke-miterlimit="10" d="M-33.55 438.4c-4.4 12.6-8.28 110.52-9.6 135.27-1.3 25.6-1.27 57.65-1.27 57.65" stroke-linecap="round" stroke-linejoin="round"/><path fill="none" stroke="#5a3e10" stroke-width="8.52" stroke-miterlimit="10" d="M527.1 428.6c2.82 14.15-2.9 109.25-2.2 134 .74 25.64-2.34 76.13-2.34 76.13" stroke-linecap="round" stroke-linejoin="round"/><path fill="none" stroke="#5a3e10" stroke-width="8.52" stroke-miterlimit="10" d="M554.94 419.83c2.83 14.15-2.9 107.13-2.18 131.9.73 25.62 1.73 73.1 1.73 73.1" stroke-linecap="round" stroke-linejoin="round"/><path fill="none" stroke="#5a3e10" stroke-width="8.52" stroke-miterlimit="10" d="M599.77 405.26c2.83 14.15-.46 100.97.24 125.74.75 25.63 1.12 74.3 1.12 74.3" stroke-linecap="round" stroke-linejoin="round"/><path fill="none" stroke="#5a3e10" stroke-width="8.52" stroke-miterlimit="10" d="M645.94 390.66c2.85 14.16 2.32 96.93 3.03 121.73.74 25.58 1.08 72.1 1.08 72.1" stroke-linecap="round" stroke-linejoin="round"/><path fill="none" stroke="#a17644" stroke-width="1.704" stroke-miterlimit="10" d="M228.78 518.64l.35 246.93" stroke-linecap="round" stroke-linejoin="round"/><path fill="none" stroke="#a17644" stroke-width="1.704" stroke-miterlimit="10" d="M-65.3 424.28l293.26 94.1" stroke-linecap="round" stroke-linejoin="round"/><path fill="none" stroke="#a17644" stroke-width="1.704" stroke-miterlimit="10" d="M-64.58 626.28L228.86 765" stroke-linecap="round" stroke-linejoin="round"/><path fill="none" stroke="#a17644" stroke-width="1.704" stroke-miterlimit="10" d="M658.94 382.7L229.4 519.87" stroke-linecap="round" stroke-linejoin="round"/><path fill="none" stroke="#a17644" stroke-width="1.704" stroke-miterlimit="10" d="M658.7 585.4L229.65 765.33" stroke-linecap="round" stroke-linejoin="round"/><path fill="#a17644" d="M588.56 378.03V82.93l-82.46 21.6V406l82.46-27.95z"/><path fill="#c7a37a" d="M506.1 104.54v301.44l-179.93-40.15 1.1-283.97 178.83 22.68z"/><path fill="#e2d4c5" d="M506.1 104.7l82.56-21.63L417.5 63.52 327.3 81.86 506.1 104.7z"/><path fill="none" stroke="#75582e" stroke-width="6.816" stroke-miterlimit="10" d="M503.2 131c-8.95 7.08-16.1 198.94-17.95 215.33-1.87 17-4.34 50.7-4.34 50.7" stroke-linecap="round" stroke-linejoin="round"/><path fill="none" stroke="#75582e" stroke-width="6.816" stroke-miterlimit="10" d="M480.38 104.65c-11.28 10.36-18.22 150.3-18.56 166.8-.36 17.7-4 120-4 120" stroke-linecap="round" stroke-linejoin="round"/><path fill="none" stroke="#75582e" stroke-width="6.816" stroke-miterlimit="10" d="M454.36 101.73c-11.28 10.36-15.66 155.23-17.5 171.68-2 18.18-4.42 112.54-4.42 112.54" stroke-linecap="round" stroke-linejoin="round"/><path fill="none" stroke="#75582e" stroke-width="6.816" stroke-miterlimit="10" d="M421.47 97.5c-9.87 15.05-2.8 155.14-3.7 171.65-.94 17.3 0 113.55 0 113.55" stroke-linecap="round" stroke-linejoin="round"/><path fill="none" stroke="#75582e" stroke-width="6.816" stroke-miterlimit="10" d="M392.82 93.5c-2.95 9.56 2.7 148.52 1.82 167.28-.9 19.4.84 116.87.84 116.87" stroke-linecap="round" stroke-linejoin="round"/><path fill="none" stroke="#75582e" stroke-width="6.816" stroke-miterlimit="10" d="M364.96 90.06c-2.95 9.56 2.96 147.72 2.08 166.5-.87 19.42 1.38 114.5 1.38 114.5" stroke-linecap="round" stroke-linejoin="round"/><path fill="none" stroke="#75582e" stroke-width="6.816" stroke-miterlimit="10" d="M337.9 87.13c-2.95 9.57 3.16 145.7 2.24 164.45-.88 19.43 1.2 113.87 1.2 113.87" stroke-linecap="round" stroke-linejoin="round"/><path fill="none" stroke="#5f4213" stroke-width="6.816" stroke-miterlimit="10" d="M511 129.6c8.93 7.05 4.52 142.57 6.36 158.96 1.88 17 3.38 109 3.38 109" stroke-linecap="round" stroke-linejoin="round"/><path fill="none" stroke="#5f4213" stroke-width="6.816" stroke-miterlimit="10" d="M529.48 102.53c11.3 10.36 6.92 158.7 8.76 175.1 1.9 17 1.05 113.03 1.05 113.03" stroke-linecap="round" stroke-linejoin="round"/><path fill="none" stroke="#5f4213" stroke-width="6.816" stroke-miterlimit="10" d="M557.1 94.83c7.14 16.45-3.7 171.98-2.13 188.45 1.7 17.53-.03 102.35-.03 102.35" stroke-linecap="round" stroke-linejoin="round"/><path fill="none" stroke="#5f4213" stroke-width="6.816" stroke-miterlimit="10" d="M578.3 89.8c9.9 15.07-.73 174.07 1.08 190.5 1.92 17-.8 96.93-.8 96.93" stroke-linecap="round" stroke-linejoin="round"/><path fill="none" stroke="#a17644" stroke-width="1.704" stroke-miterlimit="10" d="M507.44 404.72l80.15-27.32" stroke-linecap="round" stroke-linejoin="round"/><path fill="none" stroke="#a17644" stroke-width="1.704" stroke-miterlimit="10" d="M327.02 365.2L505.6 405" stroke-linecap="round" stroke-linejoin="round"/><path fill="none" stroke="#a3855b" stroke-width="3.408" stroke-miterlimit="10" d="M482.77 100.93c16.2.27 35.03-1.33 44.05-1.58" stroke-linecap="round" stroke-linejoin="round"/><path fill="none" stroke="#a3855b" stroke-width="3.408" stroke-miterlimit="10" d="M554.43 91.1c-10.62 2.67-80.66 7.72-97.38 6.64" stroke-linecap="round" stroke-linejoin="round"/><path fill="none" stroke="#a3855b" stroke-width="3.408" stroke-miterlimit="10" d="M421.74 93.25c27.08 1.58 140.63-5.58 155.2-8.24" stroke-linecap="round" stroke-linejoin="round"/><path fill="none" stroke="#a3855b" stroke-width="3.408" stroke-miterlimit="10" d="M393.1 89.5c17.78.8 143.8-5.56 156.8-9.8" stroke-linecap="round" stroke-linejoin="round"/><path fill="none" stroke="#a3855b" stroke-width="3.408" stroke-miterlimit="10" d="M365.25 86.34c2.4 0 123.9-5.6 138.5-10.9" stroke-linecap="round" stroke-linejoin="round"/><path fill="none" stroke="#a3855b" stroke-width="3.408" stroke-miterlimit="10" d="M338.46 82.63c5.83 0 106.64-6.65 138.2-11.15" stroke-linecap="round" stroke-linejoin="round"/><path fill="none" stroke="#a3855b" stroke-width="1.704" stroke-miterlimit="10" d="M377.64 72.98c13.5-.25 46.66.36 67.2-4.94" stroke-linecap="round" stroke-linejoin="round"/><path fill="none" stroke="#a3855b" stroke-width="1.704" stroke-miterlimit="10" d="M406.35 67.24c5.83 0 12.22.27 18.6-1.86" stroke-linecap="round" stroke-linejoin="round"/><path fill="none" stroke="#a17644" stroke-width="1.704" stroke-miterlimit="10" d="M327.84 82.63l177.75 22.54" stroke-linecap="round" stroke-linejoin="round"/><path fill="none" stroke="#a17644" stroke-width="1.704" stroke-miterlimit="10" d="M506.9 105.17l80.93-21.5" stroke-linecap="round" stroke-linejoin="round"/><path fill="#c7a37a" d="M278.27 266.17v167.6L145.44 388.1V233l132.83 33.17z"/><path fill="#a17644" d="M278.27 266.17v167.6l127.42-43.64V230.4l-127.43 35.77z"/><path fill="#e2d4c5" d="M145.44 233l132.83 33.17 127.3-35.77-126.1-26.43L145.43 233z"/><path fill="none" stroke="#75582e" stroke-width="6.816" stroke-miterlimit="10" d="M274.3 283.1c-5.6 5.78-12.2 68.4-14.05 84.8-1.85 17-2.2 56-2.2 56" stroke-linecap="round" stroke-linejoin="round"/><path fill="none" stroke="#75582e" stroke-width="6.816" stroke-miterlimit="10" d="M262.64 267.55c-8.98 7.07-21.76 76.55-23.6 92.94-1.9 16.98-5.4 54.92-5.4 54.92" stroke-linecap="round" stroke-linejoin="round"/><path fill="none" stroke="#75582e" stroke-width="6.816" stroke-miterlimit="10" d="M242.34 262.6c-11.3 10.37-22.7 72.5-24.52 88.9-1.86 17-6.1 56.85-6.1 56.85" stroke-linecap="round" stroke-linejoin="round"/><path fill="none" stroke="#75582e" stroke-width="6.816" stroke-miterlimit="10" d="M218.04 256.57c-11.32 10.38-22.8 80.32-25.8 96.58-3.2 17.35-7.43 45.3-7.43 45.3" stroke-linecap="round" stroke-linejoin="round"/><path fill="none" stroke="#75582e" stroke-width="6.816" stroke-miterlimit="10" d="M182.7 247.73c-9.9 15.08-14.8 83.47-16.65 99.9-1.9 16.97-3.17 43.38-3.17 43.38" stroke-linecap="round" stroke-linejoin="round"/><path fill="none" stroke="#75582e" stroke-width="6.816" stroke-miterlimit="10" d="M156.86 241.35c-2.96 9.58-5.35 80.73-6.24 99.5-.85 19.44-.8 45.58-.8 45.58" stroke-linecap="round" stroke-linejoin="round"/><path fill="none" stroke="#5a3e10" stroke-width="6.816" stroke-miterlimit="10" d="M282.73 284.27c5.6 5.8 10.12 67.43 11.9 83.84 1.9 16.98 1.26 57.22 1.26 57.22" stroke-linecap="round" stroke-linejoin="round"/><path fill="none" stroke="#5a3e10" stroke-width="6.816" stroke-miterlimit="10" d="M290.94 267.55c8.97 7.07 21.77 76.55 23.6 92.94 1.9 16.98 6.13 55.3 6.13 55.3" stroke-linecap="round" stroke-linejoin="round"/><path fill="none" stroke="#5a3e10" stroke-width="6.816" stroke-miterlimit="10" d="M311.38 261.45c11.3 10.36 22.54 73.65 24.4 90.06 1.86 17 6.46 57.2 6.46 57.2" stroke-linecap="round" stroke-linejoin="round"/><path fill="none" stroke="#5a3e10" stroke-width="6.816" stroke-miterlimit="10" d="M345.32 252.16c7.18 16.44 13.02 83.04 14.6 99.5 1.7 17.54 2.12 51 2.12 51" stroke-linecap="round" stroke-linejoin="round"/><path fill="none" stroke="#5a3e10" stroke-width="6.816" stroke-miterlimit="10" d="M370.53 245c9.92 15.08 15.17 86.2 16.97 102.63 1.9 16.97 2.5 45.14 2.5 45.14" stroke-linecap="round" stroke-linejoin="round"/><path fill="none" stroke="#5a3e10" stroke-width="6.816" stroke-miterlimit="10" d="M396.02 237.57c2.97 9.56 4.7 85.5 5.58 104.26.88 19.43.08 46.34.08 46.34" stroke-linecap="round" stroke-linejoin="round"/><path fill="none" stroke="#a17644" stroke-width="1.704" stroke-miterlimit="10" d="M146.24 388.53l131.62 45.3" stroke-linecap="round" stroke-linejoin="round"/><path fill="none" stroke="#a17644" stroke-width="1.704" stroke-miterlimit="10" d="M405.58 390.4l-127.1 43.5" stroke-linecap="round" stroke-linejoin="round"/><path fill="none" stroke="#a3855b" stroke-width="3.408" stroke-miterlimit="10" d="M266 262.78c5.6.8 17.8 1.05 20.72.8" stroke-linecap="round" stroke-linejoin="round"/><path fill="none" stroke="#a3855b" stroke-width="3.408" stroke-miterlimit="10" d="M245.56 258.26c13.53 1.86 57.6.55 61.8-.53" stroke-linecap="round" stroke-linejoin="round"/><path fill="none" stroke="#a3855b" stroke-width="3.408" stroke-miterlimit="10" d="M342.43 247.4c-16.2 3.17-89.42 5.03-121.25 3.98" stroke-linecap="round" stroke-linejoin="round"/><path fill="none" stroke="#a3855b" stroke-width="3.408" stroke-miterlimit="10" d="M367.65 240.76c-30.8 3.18-152.57 6.37-180.7 1.84" stroke-linecap="round" stroke-linejoin="round"/><path fill="none" stroke="#a3855b" stroke-width="3.408" stroke-miterlimit="10" d="M393.37 232.8c-36.1 4.52-214.92 5.83-233.78 2.9" stroke-linecap="round" stroke-linejoin="round"/><path fill="none" stroke="#a3855b" stroke-width="3.408" stroke-miterlimit="10" d="M376.9 225.37c-25.18 6.1-175.88 7.43-199 1.86" stroke-linecap="round" stroke-linejoin="round"/><path fill="none" stroke="#a3855b" stroke-width="3.408" stroke-miterlimit="10" d="M352.5 220.07c-27.85 4.52-119.1 6.08-144.07.8" stroke-linecap="round" stroke-linejoin="round"/><path fill="none" stroke="#a3855b" stroke-width="3.408" stroke-miterlimit="10" d="M323.05 214.48c-26 5.57-52.28 5.57-86.5 1.07" stroke-linecap="round" stroke-linejoin="round"/><path fill="none" stroke="#a3855b" stroke-width="3.408" stroke-miterlimit="10" d="M300.86 209.88c-13.44 3.88-25.46 3.54-38.2 0" stroke-linecap="round" stroke-linejoin="round"/><path fill="none" stroke="#a3855b" stroke-width="1.704" stroke-miterlimit="10" d="M288.03 207.6c-5.3 1.32-10.87.25-13.8-.53" stroke-linecap="round" stroke-linejoin="round"/><path fill="none" stroke="#a17644" stroke-width="1.704" stroke-miterlimit="10" d="M146.24 233.94L278.2 267.3" stroke-linecap="round" stroke-linejoin="round"/><path fill="none" stroke="#a17644" stroke-width="1.704" stroke-miterlimit="10" d="M405.04 231.2l-126.02 35.82" stroke-linecap="round" stroke-linejoin="round"/><path fill="#52493d" d="M405.1 389.75l132.3 30.4-105.55 34.14-152.03-19.5 125.3-45.05z" opacity=".48"/><path fill="#52493d" d="M672.9 597.1l31.7 7.7-373.08 179.73-101.72-2.1L672.9 597.1z" opacity=".48"/><path fill="#52493d" d="M589.74 377.67l53.3 9.32-68 21.82-68.84-3.7 83.54-27.45z" opacity=".48"/><path fill="url(#SVGID_1_)" d="M274.63 418.38l25.34-10.44-.26-12-25.2 8.06.13 14.38z" opacity=".64" transform="matrix(17.042 0 0 17.042 -4450.861 -6365.463)"/><path fill="url(#SVGID_2_)" d="M277.46 398.97l7.55-2.64-.12-9.22-7.3 2.2-.12 9.67z" opacity=".64" transform="matrix(17.042 0 0 17.042 -4450.861 -6365.463)"/><path fill="url(#SVGID_3_)" d="M291 397.3l4.7-1.55-.05-17.3-4.7 1.3.06 17.55z" opacity=".64" transform="matrix(17.042 0 0 17.042 -4450.861 -6365.463)"/><path fill="url(#SVGID_4_)" d="M257.28 410.32l17.35 8.13-.13-14.5-17.22-5.56v11.92z" opacity=".64" transform="matrix(17.042 0 0 17.042 -4450.861 -6365.463)"/><path fill="url(#SVGID_5_)" d="M269.8 396.33l7.66 2.64.07-9.74-7.8-1.93.06 9.03z" opacity=".64" transform="matrix(17.042 0 0 17.042 -4450.861 -6365.463)"/><path fill="url(#SVGID_6_)" d="M280.4 394.9l10.56 2.4-.08-17.55-10.5-1.37v16.5z" opacity=".64" transform="matrix(17.042 0 0 17.042 -4450.861 -6365.463)"/></g></svg>