<svg xmlns="http://www.w3.org/2000/svg" width="48" height="48"><g fill-rule="evenodd" stroke="#2e3436"><path fill="#babdb6" d="M.94 14.16l7.66-6.3 2.2-6.9-9.67.17-.2 13.03z"/><path fill="#babdb6" d="M8.87 7.78l6.38 6.47-3.55 12.67-10.57-3.65v-9.3l7.74-6.2z"/><path fill="#babdb6" d="M11.6 26.92l-10.38 8.3.1-11.95 10.3 3.65z"/><path fill="#babdb6" d="M11.6 26.82l7.84 2.2 5.2 14.3-14.77 3.64-9.02-11.4 10.76-8.74z"/><path fill="#babdb6" d="M.76 35.66l.28 11.4 9.02-.2-9.3-11.2z"/><path fill="#babdb6" d="M15.52 14.25l17.23 10.02-13.58 4.92L11.5 27l4.02-12.75z"/><path fill="#babdb6" d="M11.24.76l15.5.55-6.57 15.87-5-3-6.3-6.48L11.24.75z"/><path fill="#babdb6" d="M20.17 17.17c0-.46 4.2-9.66 4.2-9.66l7.83 5.57.1 11.1-12.13-7z"/><path fill="#d3d7cf" d="M32.1.95l9.85 8.83-9.84 14.3V.96z"/><path fill="#babdb6" d="M41.68 9.88l5.37 1.73.1-10.65-14.95.1 9.48 8.83z"/><path fill="#babdb6" d="M32.3 24l6 10.75-13.48 8.57-5.47-14.13L32.3 24z"/><path fill="#babdb6" d="M38.2 34.93l8.76-2.18.1-7.47L32.1 23.9l6.1 11.03z"/><path fill="#babdb6" d="M32.2 23.82l9.84-13.85 5.1 1.73-.18 13.85-14.76-1.73z"/><path fill="#d3d7cf" d="M24.82 43.23l6.74 4H9.6l15.22-4z"/><path fill="#babdb6" d="M38.3 35.03l-1.64 12.2h-5.92l-6.38-3.9 13.94-8.3z"/><path fill="#babdb6" d="M47.05 32.75v14.2l-10.75.2 1.9-12.3 8.85-2.1z"/><path fill="#babdb6" d="M24.23 7.55l2.36-6.38L32.5 1l-.46 12.1-7.83-5.55z"/></g><g><path fill="none" stroke="#f6f6f6" stroke-width="1.3" d="M2.2 11.5l5.3-4.24 1.77-5.24-6.94.24-.14 9.24z"/><path fill="none" stroke="#f6f6f6" stroke-width="1.3" d="M8.88 9.64l5.04 5.04-3.17 10.7-8.1-2.97-.2-7.77 6.43-5z"/><path fill="none" stroke="#f6f6f6" stroke-width="1.3" d="M8.94 27.23l-6.4 5.6-.02-7.9 6.42 2.3z"/><path fill="none" stroke="#f6f6f6" stroke-width="1.3" d="M11.65 28.35l6.7 1.92 4.86 12.2-12.8 3.1-7.83-9.82 9.08-7.4z"/><path fill="none" stroke="#f6f6f6" stroke-width="1.3" d="M1.9 38.98l.28 6.98 5.3-.4-5.57-6.58z"/><path fill="none" stroke="#f6f6f6" stroke-width="1.3" d="M11.94 2.1l12.8.47-5.3 12.9-3.6-2.17-5.63-5.88 1.74-5.3z"/><path fill="none" stroke="#eeeeec" stroke-width="1.3" d="M21.6 16.6l3.27-7.28 6.02 4.65-.22 7.77-9.08-5.13z"/><path fill="#babdb6" fill-rule="evenodd" stroke="#eeeeec" stroke-width="1.3" d="M33.73 4.08l6.5 6.13-6.78 9.93.28-16.05z"/><path fill="none" stroke="#eeeeec" stroke-width="1.3" d="M42.06 8.62l3.78 1.4L46 2.2l-10.75-.02 6.8 6.44z"/><path fill="none" stroke="#f6f6f6" stroke-width="1.3" d="M31.74 25.57l4.95 8.74-11.33 7.2-4.6-11.86 10.97-4.07z"/><path fill="none" stroke="#eeeeec" stroke-width="1.3" d="M38.75 33.47l7.18-1.7-.2-5.15-11.62-1.4 4.65 8.25z"/><path fill="none" stroke="#eeeeec" stroke-width="1.3" d="M34.3 22.8l8.18-11.32 3.7.78-.4 11.9-11.48-1.35z"/><path fill="none" stroke="#f6f6f6" stroke-width="1.3" d="M24.24 44.4l2.85 1.7-10.54.08 7.68-1.77z"/><path fill="none" stroke="#eeeeec" stroke-width="1.3" d="M36.78 37.2l-1.38 8.85h-4.3l-4.54-2.75 10.22-6.1z"/><path fill="none" stroke="#eeeeec" stroke-width="1.3" d="M45.82 34.36l.1 11.34-8.1.15 1.52-9.9 6.48-1.6z"/><path fill="none" stroke="#eeeeec" stroke-width="1.3" d="M25.28 6.97l1.77-4.82L31.47 2l-.34 9.17-5.85-4.2z"/><path fill="none" stroke="#f6f6f6" stroke-width="1.3" d="M16.12 16.16l13.6 7.96L19 28.02l-6.04-1.73 3.16-10.14z"/><path fill="none" stroke="#fff" stroke-width="3" d="M21.63 36l1.2-5.83c.22-1.04.43-2.2.63-3.44.2-1.25.4-2.58.62-4h.06c.15 1.45.3 2.8.46 4.06.15 1.25.3 2.38.48 3.37l.97 5.83h5.43l3.78-22.58H30.2l-.76 8.18c-.12 1.3-.24 2.57-.36 3.84-.1 1.27-.23 2.6-.35 4h-.07c-.13-1.44-.28-2.8-.44-4.08-.17-1.28-.34-2.53-.53-3.76l-1.25-8.18H22.3l-1.4 8.18c-.23 1.3-.45 2.58-.66 3.86-.22 1.3-.42 2.6-.6 3.97h-.05c-.14-1.37-.25-2.7-.34-4.02-.1-1.3-.2-2.57-.3-3.8l-.75-8.18h-5.38L16.47 36h5.16z" style="-inkscape-font-specification:Myriad Pro Black Cond Heavy" font-size="33.5" font-weight="900" font-family="Myriad Pro Black Cond"/><path d="M21.63 36l1.2-5.83c.22-1.04.43-2.2.63-3.44.2-1.25.4-2.58.62-4h.06c.15 1.45.3 2.8.46 4.06.15 1.25.3 2.38.48 3.37l.97 5.83h5.43l3.78-22.58H30.2l-.76 8.18c-.12 1.3-.24 2.57-.36 3.84-.1 1.27-.23 2.6-.35 4h-.07c-.13-1.44-.28-2.8-.44-4.08-.17-1.28-.34-2.53-.53-3.76l-1.25-8.18H22.3l-1.4 8.18c-.23 1.3-.45 2.58-.66 3.86-.22 1.3-.42 2.6-.6 3.97h-.05c-.14-1.37-.25-2.7-.34-4.02-.1-1.3-.2-2.57-.3-3.8l-.75-8.18h-5.38L16.47 36h5.16z" style="-inkscape-font-specification:Myriad Pro Black Cond Heavy" font-size="33.5" font-weight="900" font-family="Myriad Pro Black Cond"/></g></svg>