<svg xmlns="http://www.w3.org/2000/svg" width="48" height="48"><g><path fill="#dbe6f3" fill-rule="evenodd" stroke="#3465a4" stroke-width=".937" d="M5.22 40l.1-23.05L29.63.38 43.2 6.85v23.1L18.96 46.27z"/><path fill="none" stroke="#3465a4" stroke-width=".937" d="M43.34 29.9L29.6 23.37V.43"/><path fill="#fff" fill-rule="evenodd" stroke="#888a85" stroke-width=".937" d="M4.62 39.3l22.5-15.35-.76-1.1 3.26.6-.45 3.5-.95-1.4-22.5 15.36z"/><path fill="#fff" fill-rule="evenodd" stroke="#888a85" stroke-width=".937" d="M4.33 40.32l12.16 5.93-.57 1.22 3.1-1.1-1-3.4-.72 1.52-12.15-5.94z"/><path fill="none" stroke="#3465a4" stroke-width=".937" d="M19 46.46l-.08-23.18L43.3 6.85" stroke-dasharray="1.87499991, 0.93749997"/><path fill="none" stroke="#3465a4" stroke-width=".937" d="M18.92 23.28L5.32 16.9" stroke-dasharray="1.87499991, 0.93749997"/><path fill="#fff" fill-rule="evenodd" stroke="#888a85" stroke-width=".937" d="M4.35 40.15v-20.9H3l2.33-2.37 2.65 2.36h-1.7v20.9z"/><path fill="#fce94f" fill-rule="evenodd" stroke="#c4a000" stroke-width=".937" d="M4.36 39.54L40.9 7.8l-.88-1.02 3.3.23-.05 3.56-1.1-1.3L5.62 41.02z"/><ellipse cx="6.122" cy="289.283" fill="#fff" stroke="#888a85" stroke-width=".953" color="#000" transform="matrix(.983 0 0 .985 -.633 -245.058)" rx="2.391" ry="2.391" stroke-linecap="round" stroke-linejoin="round" overflow="visible" enable-background="accumulate"/></g></svg>