<svg xmlns="http://www.w3.org/2000/svg" width="48" height="48"><g fill="#fff" fill-rule="evenodd" stroke="#000" stroke-width="1.5"><path d="M-2.23 13.7h28.77v4.52H-2.23z" overflow="visible" enable-background="accumulate"/><path d="M-2.67 30.6h28.52v4.5H-2.67z" overflow="visible" enable-background="accumulate"/><path d="M34.3 22.22h16.68v4.5h-16.7z" overflow="visible" enable-background="accumulate"/><path d="M15.06 8.65c11.76 0 27.84 7.1 27.84 15.83S26.82 40.3 15.06 40.3c3.85-5.42 8-10.83 8.13-16.24.1-5.14-3.57-10.27-8.14-15.4z" overflow="visible" enable-background="accumulate"/><path d="M3.7 40.3c3.85-5.42 8-10.83 8.12-16.24.12-5.14-3.55-10.27-8.12-15.4l6.08.02c4.14 5.1 8.07 9.36 7.76 15.38-.35 6.8-3.77 10.82-7.72 16.26z" overflow="visible" enable-background="accumulate"/></g></svg>