<svg xmlns="http://www.w3.org/2000/svg" width="48" height="48" xmlns:xlink="http://www.w3.org/1999/xlink"><defs><linearGradient id="a"><stop offset="0" stop-color="#fff"/><stop offset="1" stop-color="#eeeeec" stop-opacity="0"/></linearGradient><linearGradient id="h" x1="7.5" x2="7.5" y1="14.032" y2="1.148" xlink:href="#a" gradientUnits="userSpaceOnUse" gradientTransform="matrix(1.554 0 0 1.554 24.822 24.822)"/><radialGradient id="b" cx="114.888" cy="165.633" r="36.407" fx="114.888" fy="165.633" gradientUnits="userSpaceOnUse"><stop offset="0" stop-color="#efeeec" stop-opacity=".433"/><stop offset="1" stop-color="#498837"/></radialGradient><radialGradient cx="114.328" cy="171.99" r="55.614" gradientUnits="userSpaceOnUse" fy="171.99" fx="114.328"><stop offset=".006" stop-color="#fff"/><stop offset="1" stop-color="#EFEEEC"/></radialGradient><radialGradient cx="118.36" cy="201.173" r="25.109" gradientUnits="userSpaceOnUse" fy="201.173" fx="118.36"><stop offset="0" stop-color="#BABDB6"/><stop offset=".826" stop-color="#545652"/><stop offset="1" stop-color="#2D3335"/></radialGradient><radialGradient cx="114.324" cy="171.986" r="55.631" gradientUnits="userSpaceOnUse" fy="171.986" fx="114.324"><stop offset="0" stop-color="#fff"/><stop offset="1" stop-color="#EFEEEC"/></radialGradient><radialGradient cx="105.153" cy="165.035" r="24.157" gradientUnits="userSpaceOnUse" fy="165.035" fx="105.153"><stop offset="0" stop-color="#fff"/><stop offset="1" stop-color="#545652"/></radialGradient><radialGradient id="e" cx="25.091" cy="19.413" r="17.565" xlink:href="#b" gradientUnits="userSpaceOnUse" gradientTransform="matrix(1 0 0 .944 0 1.083)" fx="25.091" fy="19.413"/><radialGradient id="f" cx="25.091" cy="19.413" r="17.565" xlink:href="#b" gradientUnits="userSpaceOnUse" gradientTransform="matrix(1 0 0 .944 0 1.083)" fx="25.091" fy="19.413"/><radialGradient id="g" cx="25.091" cy="19.413" r="17.565" xlink:href="#b" gradientUnits="userSpaceOnUse" gradientTransform="matrix(1 0 0 .944 0 1.083)" fx="25.091" fy="19.413"/><radialGradient id="d" cx="25.091" cy="19.413" r="17.565" xlink:href="#b" gradientUnits="userSpaceOnUse" gradientTransform="matrix(1 0 0 .944 0 1.083)" fx="25.091" fy="19.413"/><radialGradient id="c" cx="25.091" cy="19.413" r="17.565" xlink:href="#b" gradientUnits="userSpaceOnUse" gradientTransform="matrix(1 0 0 .944 0 1.083)" fx="25.091" fy="19.413"/></defs><g><path fill="#fff" fill-opacity=".251" stroke="#fff" stroke-width="2.2.716" d="M1.56 6.7l23.7-5.14 16.13 9.32-2.3 24.27-23.5 9.2-12.05-14.5-2-23.16z"/><g stroke="url(#c)" stroke-width=".947" transform="matrix(1.056 0 0 1.056 -5.3 -1.597)"><g fill="none" stroke="url(#d)"><path stroke="url(#e)" d="M28.37 23.75L8 30.48"/><path stroke="url(#f)" d="M28.16 23.42l14.02 12.1"/><path stroke="url(#g)" d="M28.7 3.3l-.5 20.6"/></g></g><path fill="none" stroke="#4e9a06" stroke-width=".9955000000000002" d="M1.56 6.7l23.7-5.14 16.13 9.32-2.3 24.27-23.5 9.2-12.05-14.5-2-23.16z"/><path fill="none" stroke="#4e9a06" d="M15.82 18.45l-.3 25.44" overflow="visible" enable-background="accumulate"/><path fill="none" stroke="#4e9a06" d="M41.27 10.87l-25.55 7.95L1.44 7.35" overflow="visible" enable-background="accumulate"/><path fill="none" stroke="#4e9a06" d="M40.16 23.45L15.52 32 2.65 19.6" overflow="visible" enable-background="accumulate"/><path fill="none" stroke="#4e9a06" d="M27 39.9l1-25.05L13.3 4.1" overflow="visible" enable-background="accumulate"/><path fill="none" stroke="#4e9a06" d="M9.28 37.32l-1-24.5 25.34-6.37" overflow="visible" enable-background="accumulate"/><path fill="#eeeeec" fill-opacity=".502" fill-rule="evenodd" d="M32.6 24.82v7.77H24.8v7.76h7.77v7.77h7.76v-7.77h7.77V32.6h-7.77V24.8H32.6z" overflow="visible"/><path fill="#2e3436" fill-rule="evenodd" d="M34.15 26.38v7.77h-7.77v4.66h7.77v7.78h4.66V38.8h7.78v-4.65H38.8v-7.77h-4.65z" overflow="visible"/><path fill="none" stroke="url(#h)" stroke-opacity=".251" stroke-dashoffset="4.2" d="M35 27.15v7.77H27.2l-.07 3.12H35v7.7h2.97v-7.7h7.9v-3.12h-7.9v-7.77H35z" overflow="visible"/></g></svg>