<svg xmlns="http://www.w3.org/2000/svg" width="48" height="48" xmlns:xlink="http://www.w3.org/1999/xlink"><defs><linearGradient id="f"><stop offset="0" stop-color="#fff"/><stop offset="1" stop-color="#a7bdce"/></linearGradient><linearGradient id="e"><stop offset="0"/><stop offset="1" stop-opacity="0"/></linearGradient><linearGradient><stop offset="0" stop-opacity=".577"/><stop offset="1" stop-opacity="0"/></linearGradient><radialGradient cx="257.459" cy="35.376" r="68.717" fx="257.459" fy="35.376" gradientUnits="userSpaceOnUse"><stop offset="0" stop-opacity="0"/><stop offset="1" stop-color="#8794a0" stop-opacity="0"/></radialGradient><radialGradient id="d" cx="257.459" cy="35.376" r="68.717" gradientUnits="userSpaceOnUse" fy="35.376" fx="257.459"><stop offset="0"/><stop offset="1" stop-color="#8794a0" stop-opacity="0"/></radialGradient><linearGradient id="a"><stop offset="0" stop-opacity=".594"/><stop offset="1" stop-opacity="0"/></linearGradient><radialGradient cx="279.388" cy="41.553" r="19.813" xlink:href="#a" fx="279.388" fy="41.553" gradientTransform="matrix(.837 -.536 .375 .586 30.067 166.892)" gradientUnits="userSpaceOnUse"/><linearGradient id="c"><stop offset="0" stop-color="#fff"/><stop offset="1" stop-color="#bfd0dc"/></linearGradient><radialGradient id="b" cx="257.459" cy="35.376" r="68.717" fx="257.459" fy="35.376" gradientUnits="userSpaceOnUse"><stop offset="0" stop-color="#eeeff1"/><stop offset="1" stop-color="#8794A0"/></radialGradient><linearGradient><stop offset="0" stop-color="#fedba7"/><stop offset="1" stop-color="#fdbf64"/></linearGradient><linearGradient><stop offset="0" stop-color="#ffa54c"/><stop offset="1" stop-color="#f57900"/></linearGradient><linearGradient x1="14.243" x2="33.941" y1="21.433" y2="31.535" xlink:href="#b" gradientUnits="userSpaceOnUse"/><linearGradient x1="18.378" x2="37.729" y1="19.266" y2="29.671" xlink:href="#c" gradientUnits="userSpaceOnUse"/><linearGradient x1="14.243" x2="33.941" y1="21.433" y2="31.535" xlink:href="#b" gradientUnits="userSpaceOnUse"/><linearGradient x1="18.378" x2="37.729" y1="19.266" y2="29.671" xlink:href="#c" gradientUnits="userSpaceOnUse"/><linearGradient x1="14.243" x2="33.941" y1="21.433" y2="31.535" xlink:href="#b" gradientUnits="userSpaceOnUse"/><linearGradient x1="18.378" x2="37.729" y1="19.266" y2="29.671" xlink:href="#c" gradientUnits="userSpaceOnUse"/><linearGradient x1="14.243" x2="33.941" y1="21.433" y2="31.535" xlink:href="#b" gradientUnits="userSpaceOnUse"/><linearGradient x1="18.378" x2="37.729" y1="19.266" y2="29.671" xlink:href="#c" gradientUnits="userSpaceOnUse"/><linearGradient x1="14.243" x2="33.941" y1="21.433" y2="31.535" xlink:href="#b" gradientUnits="userSpaceOnUse" gradientTransform="matrix(.891 0 0 .887 24.89 18.069)"/><linearGradient x1="18.378" x2="37.729" y1="19.266" y2="29.671" xlink:href="#c" gradientUnits="userSpaceOnUse" gradientTransform="matrix(.891 0 0 .887 24.89 18.069)"/><linearGradient x1="14.243" x2="33.941" y1="21.433" y2="31.535" xlink:href="#b" gradientUnits="userSpaceOnUse" gradientTransform="matrix(.891 0 0 .887 2.857 4.299)"/><linearGradient x1="18.378" x2="37.729" y1="19.266" y2="29.671" xlink:href="#c" gradientUnits="userSpaceOnUse" gradientTransform="matrix(.891 0 0 .887 2.857 4.299)"/><radialGradient cx="24.293" cy="32.32" r="18.457" xlink:href="#d" fx="24.293" fy="32.32" gradientTransform="matrix(-1 0 0 -.5 48.586 46.99)" gradientUnits="userSpaceOnUse"/><radialGradient cx="24.293" cy="32.32" r="18.457" xlink:href="#d" gradientUnits="userSpaceOnUse" gradientTransform="matrix(-1 0 0 -.5 48.586 46.99)" fx="24.293" fy="32.32"/><linearGradient x1="14.243" x2="33.941" y1="21.433" y2="31.535" xlink:href="#b" gradientUnits="userSpaceOnUse" gradientTransform="matrix(.891 0 0 .887 2.857 4.299)"/><linearGradient x1="18.378" x2="37.729" y1="19.266" y2="29.671" xlink:href="#c" gradientUnits="userSpaceOnUse" gradientTransform="matrix(.891 0 0 .887 2.857 4.299)"/><linearGradient x1="6.541" x2="46.401" y1="25.639" y2="38.51" xlink:href="#b" gradientUnits="userSpaceOnUse" gradientTransform="matrix(1.038 0 0 1.042 -.972 -2.936)"/><linearGradient x1="6.541" x2="46.401" y1="25.639" y2="38.51" xlink:href="#c" gradientUnits="userSpaceOnUse" gradientTransform="matrix(1.038 0 0 1.042 -.972 -2.936)"/><linearGradient id="k" x1="24.106" x2="24.106" y1="22.979" y2="38.071" xlink:href="#e" gradientUnits="userSpaceOnUse" gradientTransform="matrix(.889 0 0 .596 4.151 28.153)"/><linearGradient id="l" x1="6.541" x2="46.401" y1="25.639" y2="38.51" xlink:href="#b" gradientUnits="userSpaceOnUse" gradientTransform="matrix(.923 0 0 .88 2.794 12.092)"/><linearGradient id="m" x1="6.541" x2="46.401" y1="25.639" y2="38.51" xlink:href="#c" gradientUnits="userSpaceOnUse" gradientTransform="matrix(.923 0 0 .88 2.794 12.092)"/><linearGradient x1="5.649" x2="41.934" y1="29.75" y2="29.75" xlink:href="#f" gradientUnits="userSpaceOnUse"/><linearGradient x1="5.649" x2="41.934" y1="29.75" y2="29.75" xlink:href="#f" gradientUnits="userSpaceOnUse"/><linearGradient x1="5.649" x2="41.934" y1="29.75" y2="29.75" xlink:href="#f" gradientUnits="userSpaceOnUse"/><linearGradient x1="5.649" x2="41.934" y1="29.75" y2="29.75" xlink:href="#f" gradientUnits="userSpaceOnUse"/><linearGradient x1="5.649" x2="41.934" y1="29.75" y2="29.75" xlink:href="#f" gradientUnits="userSpaceOnUse"/><linearGradient x1="5.649" x2="41.934" y1="29.75" y2="29.75" xlink:href="#f" gradientUnits="userSpaceOnUse"/><linearGradient id="s" x1="5.649" x2="41.934" y1="29.75" y2="29.75" xlink:href="#f" gradientUnits="userSpaceOnUse" gradientTransform="matrix(1.06 0 0 1 -.203 10.857)"/><linearGradient id="r" x1="5.649" x2="41.934" y1="29.75" y2="29.75" xlink:href="#f" gradientUnits="userSpaceOnUse" gradientTransform="matrix(1.06 0 0 1 -.203 10.857)"/><linearGradient id="q" x1="5.649" x2="41.934" y1="29.75" y2="29.75" xlink:href="#f" gradientUnits="userSpaceOnUse" gradientTransform="matrix(1.06 0 0 1.034 -1.418 9.634)"/><linearGradient id="p" x1="5.649" x2="41.934" y1="29.75" y2="29.75" xlink:href="#f" gradientUnits="userSpaceOnUse" gradientTransform="matrix(1.06 0 0 1.034 -.918 9.634)"/><linearGradient id="o" x1="5.649" x2="41.934" y1="29.75" y2="29.75" xlink:href="#f" gradientUnits="userSpaceOnUse" gradientTransform="matrix(1.06 0 0 1.034 .511 9.634)"/><linearGradient id="n" x1="5.649" x2="41.934" y1="29.75" y2="29.75" xlink:href="#f" gradientUnits="userSpaceOnUse" gradientTransform="matrix(1.06 0 0 1.034 .35 9.634)"/><linearGradient id="t" x1="1373.516" x2="1409.461" y1="1597.558" y2="1597.558" xlink:href="#g" gradientUnits="userSpaceOnUse" gradientTransform="matrix(-1 0 0 1 1812.6 0)"/><linearGradient id="g" x1="1373.516" x2="1409.461" y1="1597.558" y2="1597.558" gradientTransform="matrix(-1 0 0 1 1812.6 0)" gradientUnits="userSpaceOnUse"><stop offset=".006" stop-color="#E8EDED"/><stop offset=".354" stop-color="#A1ACB3"/><stop offset="1" stop-color="#575D66"/></linearGradient><linearGradient id="u" x1="1366.53" x2="1380.07" y1="1608.206" y2="1608.206" xlink:href="#h" gradientUnits="userSpaceOnUse" gradientTransform="matrix(-1 0 0 1 1812.6 0)"/><linearGradient id="h" x1="1366.53" x2="1380.07" y1="1608.206" y2="1608.206" gradientTransform="matrix(-1 0 0 1 1812.6 0)" gradientUnits="userSpaceOnUse"><stop offset="0" stop-color="#A1ACB3"/><stop offset=".326" stop-color="#D0D6D8"/><stop offset="1" stop-color="#575D66"/></linearGradient><linearGradient id="v" x1="1382.951" x2="1409.461" y1="1596.607" y2="1596.607" xlink:href="#i" gradientUnits="userSpaceOnUse" gradientTransform="matrix(-1 0 0 1 1812.6 0)"/><linearGradient id="i" x1="1382.951" x2="1409.461" y1="1596.607" y2="1596.607" gradientTransform="matrix(-1 0 0 1 1812.6 0)" gradientUnits="userSpaceOnUse"><stop offset="0" stop-color="#A1ACB3"/><stop offset=".489" stop-color="#E8EDED"/><stop offset="1" stop-color="#575D66"/></linearGradient><linearGradient id="w" x1="1373.569" x2="1386.847" y1="1593.281" y2="1593.281" xlink:href="#j" gradientUnits="userSpaceOnUse" gradientTransform="matrix(-1 0 0 1 1812.6 0)"/><linearGradient id="j" x1="1373.569" x2="1386.847" y1="1593.281" y2="1593.281" gradientTransform="matrix(-1 0 0 1 1812.6 0)" gradientUnits="userSpaceOnUse"><stop offset="0" stop-color="#fff"/><stop offset=".208" stop-color="#D0D6D8"/><stop offset=".393" stop-color="#737B87"/><stop offset="1" stop-color="#D0D6D8"/></linearGradient></defs><g><path fill="url(#k)" d="M8.66 41.86h33.72l4.6 8.98-42.8.02 4.48-9z" color="#000" overflow="visible"/><path fill="url(#l)" stroke="url(#m)" d="M10.3 34.33l28.66-.2 7.25 12.5-42.14.16 6.25-12.47z" color="#000" stroke-linecap="round" stroke-linejoin="round" overflow="visible"/><path fill="none" stroke="url(#n)" d="M15.7 33.86L11.5 46.7"/><path fill="none" stroke="url(#o)" d="M22.23 33.93l-1.97 13"/><path fill="none" stroke="url(#p)" d="M27.1 33.93l2.18 13"/><path fill="none" stroke="url(#q)" d="M33.02 33.93l4.24 12.85"/><path fill="none" stroke="url(#r)" d="M7.75 37.36h33.88"/><path fill="none" stroke="url(#s)" d="M6.3 41.36h37.4"/><path fill="#ef2929" d="M31.36 37.36a3.46 1.14 0 1 1-6.93 0 3.46 1.14 0 1 1 6.93 0z" color="#000" overflow="visible" enable-background="accumulate"/><path fill="none" stroke="#2e3436" d="M9.7 33.46l29.85-.06 8.17 14.15-45 .08 7-14.17z" color="#000" stroke-linecap="round" stroke-linejoin="round" overflow="visible"/><g><g><path fill="#737b87" d="M1.2 17.96c1.08-1.1 2.63-1.48 3.95-1.57.82-.07 1.56-.02 2.02.03 3.9.45 8.27 2.76 13.04 6.84 0-.1.04-.17.04-.25 0-6.06-7.05-11.08-10.08-12.96-3.48-2.14-5.1-4.75-5.06-8.2 0-.47.4-.85.86-.84.47 0 .85.4.85.86 0 2.86 1.26 4.88 4.25 6.73 4.08 2.53 10.92 7.75 10.9 14.42 0 .55-.08 1.1-.2 1.65 1.97 1.9 3.72 3.98 5 6.02 1.3 2.04 2.84 4.95 1.34 6.53-.33.35-.87.36-1.22.04-.34-.33-.35-.87-.03-1.2.08-.1.7-.92-1.54-4.46-1.06-1.7-2.54-3.5-4.2-5.17-.56 1.18-1.4 2.3-2.5 3.24-1.84 1.6-4.14 2.56-6.32 2.72-.6.03-1.16.02-1.72-.06C5.86 31.68.66 26.4.06 21.7c-.18-1.5.2-2.8 1.13-3.74zm18.57 7.2c-.18-.15-.35-.33-.53-.48-4.56-3.94-8.68-6.14-12.26-6.55-.58-.07-1.14-.08-1.67-.04-1.25.08-2.3.46-2.9 1.07-.55.56-.76 1.3-.63 2.3.5 4 5.06 8.62 9.03 9.18.45.06.9.07 1.38.04 1.8-.14 3.74-.97 5.3-2.32 1.08-.94 1.84-2.05 2.3-3.2z"/></g><path fill="none" stroke="#41464c" stroke-width=".49809999999999993" d="M20.94 24.28c-.1-.1-.23-.2-.34-.3-3.44-2.97-8.07-6.22-12.73-6.76-3.1-.35-6.62.64-6.15 4.3.55 4.37 5.42 9.3 9.76 9.92" stroke-linecap="round"/><path fill="none" stroke="#4c5259" stroke-width=".39864999999999995" d="M28.28 36.6c1.2-1.27-.77-4.44-1.44-5.5-1.3-2.1-3.07-4.15-4.9-5.9" stroke-linecap="round"/><path fill="none" stroke="#cfdade" stroke-width=".49809999999999993" d="M27.85 36.62c1.2-1.26-.76-4.43-1.43-5.5-1.63-2.58-3.95-5.12-6.25-7.1-3.44-2.98-8.07-6.23-12.72-6.77-3.1-.35-6.62.64-6.16 4.3.54 4.37 5.42 9.3 9.75 9.92 4.7.66 10.4-3.56 10.42-8.48 0-5.88-5.92-10.87-10.5-13.7-2.9-1.78-4.67-3.97-4.65-7.46" stroke-linecap="round"/><g transform="matrix(.062 .851 .851 -.062 -1371.023 -242.916)"><linearGradient x1="1373.516" x2="1409.461" y1="1597.558" y2="1597.558" gradientUnits="userSpaceOnUse" gradientTransform="matrix(-1 0 0 1 1812.6 0)"><stop offset=".006" stop-color="#E8EDED"/><stop offset=".354" stop-color="#A1ACB3"/><stop offset="1" stop-color="#575D66"/></linearGradient><path fill="url(#t)" d="M412.7 1594.27c2.54 3.5 9.22 11.55 16.68 11 2.42-.2 4.82-1.65 6.57-4 1.95-2.6 3.06-5.9 2.48-8.6-.03-.13.06-.27.2-.3.13-.03.26.06.3.2.6 2.83-.54 6.28-2.57 9-1.85 2.47-4.38 4-6.94 4.2-7.72.57-14.54-7.65-17.1-11.2-2.57-3.55-5.32-5-8.9-4.7-.15 0-.27-.1-.28-.24 0-.13.1-.26.23-.27 3.8-.3 6.67 1.2 9.34 4.9z"/></g><g transform="matrix(.062 .851 .851 -.062 -1371.023 -242.916)"><linearGradient x1="1366.53" x2="1380.07" y1="1608.206" y2="1608.206" gradientUnits="userSpaceOnUse" gradientTransform="matrix(-1 0 0 1 1812.6 0)"><stop offset="0" stop-color="#A1ACB3"/><stop offset=".326" stop-color="#D0D6D8"/><stop offset="1" stop-color="#575D66"/></linearGradient><path fill="url(#u)" d="M432.95 1604.92c2.1 1.78 4.38 3.38 6.46 4.5 4.16 2.2 5.73 1.9 6.32 1.25.07-.1.2-.1.28-.02.08.08.1.2.02.3-1.14 1.2-3.3.7-6.8-1.18-2.1-1.13-4.5-2.84-6.62-4.64-.08-.07-.1-.2-.02-.3.07-.07.28.02.37.1z"/></g><g transform="matrix(.062 .851 .851 -.062 -1371.023 -242.916)"><linearGradient x1="1382.951" x2="1409.461" y1="1596.607" y2="1596.607" gradientUnits="userSpaceOnUse" gradientTransform="matrix(-1 0 0 1 1812.6 0)"><stop offset="0" stop-color="#A1ACB3"/><stop offset=".489" stop-color="#E8EDED"/><stop offset="1" stop-color="#575D66"/></linearGradient><path fill="url(#v)" d="M412.7 1593.37c2.54 3.5 9.22 11.55 16.68 11 .14-.02.26.08.27.22 0 .13-.1.15-.23.16-7.72.58-14.54-7.64-17.1-11.2-2.57-3.54-5.32-5-8.9-4.7-.15 0-.27 0-.28-.13 0-.14.1-.26.23-.27 3.8-.3 6.67 1.2 9.34 4.9z"/></g><path fill="#4c5259" d="M21.53 25.7s.24-.66.3-.85l.26.25-.32.83-.25-.22z"/><g transform="matrix(.062 .851 .851 -.062 -1371.023 -242.916)"><linearGradient x1="1373.569" x2="1386.847" y1="1593.281" y2="1593.281" gradientUnits="userSpaceOnUse" gradientTransform="matrix(-1 0 0 1 1812.6 0)"><stop offset="0" stop-color="#fff"/><stop offset=".208" stop-color="#D0D6D8"/><stop offset=".393" stop-color="#737B87"/><stop offset="1" stop-color="#D0D6D8"/></linearGradient><path fill="url(#w)" d="M426.02 1581.3c5.27.28 11.73 5.6 12.84 10.77.6 2.83-.47 6.28-2.5 9-1.85 2.47-4.38 4-6.94 4.2-.14 0-.26-.1-.27-.24 0-.14.1-.26.23-.27 2.42-.18 4.82-1.64 6.57-4 1.95-2.6 2.8-5.9 2.22-8.6-1.05-4.86-7.2-10.1-12.18-10.36-.15 0-.25-.13-.25-.26 0-.14.13-.25.27-.24z"/></g></g></g></svg>