<svg xmlns="http://www.w3.org/2000/svg" width="48" height="48" xmlns:xlink="http://www.w3.org/1999/xlink"><defs><linearGradient id="a"><stop offset="0" stop-color="#a1abb4"/><stop offset="1" stop-color="#a1abb4" stop-opacity="0"/></linearGradient><linearGradient id="e" x1="11.357" x2="4.143" y1="31.714" y2="19.857" xlink:href="#a" gradientUnits="userSpaceOnUse"/><radialGradient id="b" cx="125.836" cy="22.138" r="29.536" gradientUnits="userSpaceOnUse" fy="22.138" fx="125.836"><stop offset="0" stop-color="#fff"/><stop offset="1" stop-color="#8794A0"/></radialGradient><radialGradient id="h" cx="125.836" cy="22.138" r="29.536" xlink:href="#b" gradientUnits="userSpaceOnUse" fx="125.836" fy="22.138"/><radialGradient id="c" cx="113.36" cy="23.414" r="20.93" gradientUnits="userSpaceOnUse" fy="23.414" fx="113.36"><stop offset="0" stop-color="#fff"/><stop offset="1" stop-color="#8794A0"/></radialGradient><radialGradient id="g" cx="113.36" cy="23.414" r="20.93" xlink:href="#c" gradientUnits="userSpaceOnUse" fx="113.36" fy="23.414"/><radialGradient id="d" cx="108.535" cy="-1.444" r="32.544" gradientUnits="userSpaceOnUse" fy="-1.444" fx="108.535"><stop offset="0" stop-color="#fff"/><stop offset="1" stop-color="#8794A0"/></radialGradient><radialGradient id="f" cx="108.535" cy="-1.444" r="32.544" xlink:href="#d" gradientUnits="userSpaceOnUse" fx="108.535" fy="-1.444"/><radialGradient id="q" cx="264.885" cy="1499.855" r="8.559" gradientUnits="userSpaceOnUse" fy="1499.855" fx="264.885" gradientTransform="translate(9.073 -1121.746)"><stop offset=".006" stop-color="#FCDFA8"/><stop offset="1" stop-color="#F3841A"/></radialGradient><linearGradient id="p" x1="260.883" x2="274.926" y1="1494.385" y2="1509.797" gradientUnits="userSpaceOnUse" gradientTransform="translate(9.073 -1121.746)"><stop offset=".006" stop-color="#F17912"/><stop offset=".292" stop-color="#FAAF3E"/><stop offset=".59" stop-color="#F17912"/><stop offset="1" stop-color="#73340F"/></linearGradient><linearGradient id="o" x1="264.233" x2="266.049" y1="1505.209" y2="1503.704" gradientUnits="userSpaceOnUse" gradientTransform="translate(9.073 -1121.746)"><stop offset=".006" stop-color="#a82900" stop-opacity="0"/><stop offset="1" stop-color="#8a3e0e"/></linearGradient><linearGradient id="n" x1="255.886" x2="263.778" y1="1504.661" y2="1513.642" gradientUnits="userSpaceOnUse" gradientTransform="translate(9.073 -1121.746)"><stop offset=".006" stop-color="#F17912"/><stop offset=".022" stop-color="#F27D15"/><stop offset=".098" stop-color="#F78E21"/><stop offset=".157" stop-color="#F99326"/><stop offset=".674" stop-color="#C56417"/><stop offset="1" stop-color="#994511"/></linearGradient><linearGradient id="m" x1="250.594" x2="260.634" y1="1507.167" y2="1518.866" gradientUnits="userSpaceOnUse" gradientTransform="translate(9.073 -1121.746)"><stop offset=".006" stop-color="#F17912"/><stop offset=".315" stop-color="#FAAF3E"/><stop offset=".59" stop-color="#F17912"/><stop offset="1" stop-color="#6E290A"/></linearGradient><radialGradient id="l" cx="247.017" cy="1513.643" r="14.582" gradientUnits="userSpaceOnUse" fy="1513.643" fx="247.017" gradientTransform="translate(9.073 -1121.746)"><stop offset=".006" stop-color="#FAAF3E"/><stop offset=".337" stop-color="#FAAF3E"/><stop offset=".652" stop-color="#F17912"/><stop offset="1" stop-color="#73340F"/></radialGradient><linearGradient id="k" x1="244.283" x2="261.463" y1="1505.286" y2="1525.255" gradientUnits="userSpaceOnUse" gradientTransform="translate(9.073 -1121.746)"><stop offset=".006" stop-color="#F17912"/><stop offset=".292" stop-color="#FAAF3E"/><stop offset=".545" stop-color="#FAAF3E"/><stop offset=".652" stop-color="#F17912"/><stop offset="1" stop-color="#73340F"/></linearGradient><linearGradient id="j" x1="242.98" x2="260.03" y1="1506.586" y2="1526.39" gradientUnits="userSpaceOnUse" gradientTransform="translate(9.073 -1121.746)"><stop offset=".006" stop-color="#73340F"/><stop offset=".461" stop-color="#F17912"/><stop offset="1" stop-color="#73340F"/></linearGradient><linearGradient id="i" x1="238.486" x2="240.81" y1="1525.703" y2="1528.29" gradientUnits="userSpaceOnUse"><stop offset=".006" stop-color="#3E444C"/><stop offset=".298" stop-color="#ADBECA"/><stop offset=".477" stop-color="#ADBECA"/><stop offset=".702" stop-color="#828F99"/><stop offset="1" stop-color="#292E33"/></linearGradient></defs><g><path fill="url(#e)" fill-rule="evenodd" d="M7 41.43c-3.7-14-7-16.57-7-16.57L7.3 16S18 20.84 22.7 31.43L7 41.43z"/><g><path fill="none" stroke="#192333" stroke-width="2" d="M8 41.13L18.6 47l6.55-10.65-3.36-4.38-8.77-4.9L7.4 35.6l.6 5.53z"/><path fill="url(#f)" d="M111.04 5.3L109 1.7l-5.64 8.53.6 5.54 7.08-10.43z" transform="translate(-13.286 25.493) translate(-82.681 -.102)"/><path fill="url(#g)" d="M121.12 10.96l-6.56 10.65-10.6-5.87 7.08-10.42 10.08 5.66z" transform="translate(-13.286 25.493) translate(-82.681 -.102)"/><path fill="url(#h)" d="M109 1.68l8.75 4.9 3.37 4.38-10.08-5.65L109 1.7z" transform="translate(-13.286 25.493) translate(-82.681 -.102)"/><path fill="none" stroke="#fff" stroke-width=".7" d="M15.07 30.7L8 41.13"/><path fill="none" stroke="#fff" stroke-width=".7" d="M15.07 30.7l-2.04-3.63"/><path fill="none" stroke="#e0e1e2" stroke-width=".7" d="M15.07 30.7l10.08 5.65"/><path fill="none" stroke="#9a9999" stroke-width=".7" d="M8 41.13L18.6 47"/></g><path fill="none" stroke="#fff" stroke-width="4" stroke-dashoffset=".8" d="M29.36 18l-14.3 20" stroke-linecap="round"/><path fill="#ef2929" fill-rule="evenodd" stroke="#fff" stroke-width="2.9.062" stroke-dashoffset=".8" d="M17.8 37.57a2.3 2.3 0 1 1-4.6 0 2.3 2.3 0 1 1 4.6 0z" color="#000" stroke-linecap="round" overflow="visible" enable-background="accumulate"/><path fill="none" stroke="#ef2929" stroke-width="2" stroke-dashoffset=".8" d="M29.3 18L15 38" stroke-linecap="round"/><path fill="none" stroke="#ef2929" stroke-width="2" stroke-dashoffset=".8" d="M49.57 34.7L29.3 18" stroke-dasharray="2, 2" color="#000" overflow="visible" enable-background="accumulate"/><g transform="matrix(.309 -.137 .137 .309 -101.581 -75.767)"><path fill="none" stroke="#3e444c" stroke-width="2.963" d="M255.28 401.7l-9.12 7.4-2.8 1.04 1.37-2.8 8.22-8.23"/><path fill="url(#i)" d="M246.2 1523.44l-9.1 7.4-2.8 1.04 1.36-2.8 8.22-8.22" transform="translate(9.073 -1121.746)"/><path fill="none" stroke="#99440f" stroke-width="2.963" d="M267.38 389.34c3.82 4.48 5.48 12.32 1.72 15.3-3.75 2.98-10.6.97-15.32-4.5-4.7-5.47-5.48-12.32-1.72-15.3 3.75-2.98 11.02-.53 15.32 4.5z"/><path fill="none" stroke="#99440f" stroke-width="2.963" d="M268.74 388.12c3.86 4.52 5.55 12.4 1.8 15.4-3.76 2.97-10.65.92-15.4-4.6-4.74-5.5-5.54-12.4-1.78-15.38 3.75-2.98 11.05-.5 15.38 4.58z"/><ellipse cx="253.555" cy="1514.673" fill="none" stroke="#99440f" stroke-width="2.963" transform="matrix(.783 -.622 .622 .783 -877.939 -635.486)" rx="7.751" ry="11.967"/><path fill="none" stroke="#99440f" stroke-width="2.963" d="M269.8 395.6c-1.6 1.3-4.92.05-7.37-2.78-2.46-2.84-3.14-6.2-1.52-7.5l.2-.14c.53-.33 8.13-6.05 8.43-6.3.36-.26 1.1-1.2 1.47-1.76l8.45 9.5c-.62.28-1.7.94-2.02 1.26-.28.26-7 7-7.4 7.5l-.22.2z"/><path fill="none" stroke="#99440f" stroke-width="2.963" d="M285.07 387.08l1.3-1.1c-2.17 1.64-6.9-.45-10.66-4.73-3.7-4.22-5.13-9.02-3.28-10.9l-1.28 1.3c-1.85 1.88-.45 6.65 3.24 10.84 3.8 4.3 8.6 6.35 10.7 4.58z"/><ellipse cx="270.451" cy="1499.792" fill="none" stroke="#99440f" stroke-width="2.963" transform="matrix(.765 -.644 .644 .765 -893.213 -595.2)" rx="4.981" ry="10.488"/><path fill="url(#j)" d="M267.38 389.34c3.82 4.48 5.48 12.32 1.72 15.3-3.75 2.98-10.6.97-15.32-4.5-4.7-5.47-5.48-12.32-1.72-15.3 3.75-2.98 11.02-.53 15.32 4.5z"/><path fill="url(#k)" d="M268.74 388.12c3.86 4.52 5.55 12.4 1.8 15.4-3.76 2.97-10.65.92-15.4-4.6-4.74-5.5-5.54-12.4-1.78-15.38 3.75-2.98 11.05-.5 15.38 4.58z"/><path fill="url(#l)" d="M268.7 388.1c4.3 5.02 5.08 11.24 1.73 13.9-3.36 2.66-9.57.76-13.87-4.25-4.3-5.02-5.08-11.24-1.73-13.9s9.56-.76 13.87 4.26z"/><path fill="url(#m)" d="M268.55 388.2c2.77 3.23 3.3 7.23 1.16 8.92-2.13 1.7-6.1.45-8.87-2.78-2.77-3.23-3.3-7.23-1.16-8.92 2.13-1.7 6.1-.45 8.88 2.78z"/><path fill="url(#n)" d="M269.8 395.6c-1.6 1.3-4.92.05-7.37-2.78-2.46-2.84-3.14-6.2-1.53-7.5l.2-.14c.53-.33 8.13-6.05 8.43-6.3.36-.26 1.1-1.2 1.46-1.76l8.45 9.5c-.62.28-1.7.94-2.02 1.26-.28.26-7 7-7.4 7.5l-.22.2z"/><path fill="none" d="M269.8 395.6c-1.6 1.3-4.92.05-7.37-2.78-2.46-2.84-3.14-6.2-1.53-7.5l.2-.14c.53-.33 8.13-6.05 8.43-6.3.36-.26 1.1-1.2 1.46-1.76l8.45 9.5c-.62.28-1.7.94-2.02 1.26-.28.26-7 7-7.4 7.5l-.22.2z"/><path fill="url(#o)" d="M279.26 386.7c-1.93-.18-4.13-1.33-5.9-3.24-1.76-1.93-2.66-4.17-2.58-6.02l.22-.32 8.45 9.5-.2.1z"/><path fill="url(#p)" d="M285.07 387.08l1.3-1.1c-2.17 1.64-6.9-.45-10.66-4.73-3.7-4.22-5.13-9.02-3.28-10.9l-1.28 1.3c-1.85 1.88-.45 6.65 3.24 10.84 3.8 4.3 8.6 6.35 10.7 4.58z"/><path fill="url(#q)" d="M283.34 374.84c3.82 4.34 5.22 9.3 3.12 11.07-2.1 1.78-6.92-.3-10.75-4.65-3.8-4.34-5.2-9.3-3.1-11.07 2.1-1.77 6.9.3 10.74 4.66z"/></g><path fill="#ef2929" fill-rule="evenodd" d="M17.7 37.57a2.3 2.3 0 1 1-4.56 0 2.3 2.3 0 1 1 4.57 0z" color="#000" overflow="visible" enable-background="accumulate"/></g></svg>