<svg xmlns="http://www.w3.org/2000/svg" width="48" height="48" xmlns:xlink="http://www.w3.org/1999/xlink" version="1" viewBox="0 0 612 792" enable-background="new 0 0 612 792"><defs><linearGradient x1="359.044" x2="335.905" y1="526.438" y2="557.289" xlink:href="#a" gradientUnits="userSpaceOnUse" gradientTransform="matrix(-1 0 0 1 620.262 0)"/><radialGradient cx="343.847" cy="523.315" r="13.426" xlink:href="#b" gradientUnits="userSpaceOnUse" gradientTransform="matrix(-1.374 0 0 1.078 737.606 -32.806)"/><radialGradient cx="349.796" cy="529.239" r="12.549" xlink:href="#c" gradientUnits="userSpaceOnUse" gradientTransform="matrix(-1.374 0 0 1.078 737.606 -32.806)"/><radialGradient cx="335.391" cy="517.516" r="10.991" xlink:href="#d" gradientUnits="userSpaceOnUse" gradientTransform="matrix(-.714 -.921 -.822 .392 941.46 631.374)"/><linearGradient id="a" x1="359.044" x2="335.905" y1="526.438" y2="557.289" gradientUnits="userSpaceOnUse" gradientTransform="matrix(-1 0 0 1 620.262 0)"><stop offset="0" stop-color="#fff" stop-opacity="0"/><stop offset="1" stop-color="#00718D"/></linearGradient><radialGradient id="b" cx="343.847" cy="523.315" r="13.426" gradientTransform="matrix(-1.374 0 0 1.078 737.606 -32.806)" gradientUnits="userSpaceOnUse"><stop offset="0" stop-color="#93C5D8"/><stop offset="1" stop-color="#fff" stop-opacity="0"/></radialGradient><radialGradient id="c" cx="349.796" cy="529.239" r="12.549" gradientTransform="matrix(-1.374 0 0 1.078 737.606 -32.806)" gradientUnits="userSpaceOnUse"><stop offset="0" stop-color="#DCF2FD"/><stop offset="1" stop-color="#92B5D0" stop-opacity="0"/></radialGradient><radialGradient id="d" cx="335.391" cy="517.516" r="10.991" gradientTransform="matrix(-.714 -.921 -.822 .392 941.46 631.374)" gradientUnits="userSpaceOnUse"><stop offset="0" stop-color="#1A5C79"/><stop offset="1" stop-color="#6D7DAA" stop-opacity="0"/></radialGradient><radialGradient id="h" cx="335.391" cy="517.516" r="10.991" xlink:href="#d" gradientUnits="userSpaceOnUse" gradientTransform="matrix(-12.046 -15.554 -13.873 6.619 11604.836 2113.192)"/><radialGradient id="g" cx="349.796" cy="529.239" r="12.549" xlink:href="#c" gradientUnits="userSpaceOnUse" gradientTransform="matrix(-23.193 0 0 18.203 8163.55 -9098.914)"/><radialGradient id="f" cx="343.847" cy="523.315" r="13.426" xlink:href="#b" gradientUnits="userSpaceOnUse" gradientTransform="matrix(-23.193 0 0 18.203 8163.55 -9098.914)"/><linearGradient id="e" x1="359.044" x2="335.905" y1="526.438" y2="557.289" xlink:href="#a" gradientUnits="userSpaceOnUse" gradientTransform="matrix(-16.881 0 0 16.881 6182.65 -8545.115)"/></defs><path fill="none" stroke="#3e3e41" stroke-width="24.75" stroke-miterlimit="10" d="M33.08 105.13c1.94-4.47 8.98.46 16.15 5.4 42.27 29.06 84.17 68.93 113.75 99.42l41.22 44.8 66.92-18.2 15.34-68.15s-110.5-99.17-185.2-139.23C76.73 16.02 49.8 12.42 24.08 14.82c-15.68 1.45-55 7.22-69.4 37.34-2.87 4.2-17.52 27.35-26.3 75.12 3.4 40.77 35.8 83.22 66.43 114.84l-.18.6c11.53 11.96 25.6 24.32 36.75 33.65 11.45 9.76 19.16 15.5 19.16 15.5l70.4-18.48 14.95-65.33L86 164.03c-22.25-20.8-44.65-43.6-52.92-58.9z" stroke-linecap="round" stroke-linejoin="round"/><path fill="#9d9fa2" stroke="#6d6e71" stroke-width="1.688" stroke-miterlimit="10" d="M120.93 272.86l-70.4 18.5L65.9 223.2l69.98-15.67-14.95 65.33z" stroke-linecap="round" stroke-linejoin="round"/><path fill="#9d9fa2" stroke="#6d6e71" stroke-width="1.688" stroke-miterlimit="10" d="M271.12 236l-66.92 18.23 12.26-70.7 70-15.65L271.12 236z" stroke-linecap="round" stroke-linejoin="round"/><path fill="#ef3e23" stroke="#6d6e71" stroke-width="1.688" stroke-miterlimit="10" d="M286.46 167.88S175.96 68.7 101.26 28.64C76.73 15.5 49.8 11.9 24.08 14.28 3.8 16.18-56.1 25.05-50.42 84.65-42.98 163.5 65.6 225 65.6 225l70.28-17.47S29.63 119.65 29.26 94.3c-.38-26.2 30.12-33.97 73.8-5.26 26.48 17.42 114.8 95.57 114.8 95.57l68.6-16.72z" stroke-linecap="round" stroke-linejoin="round"/><path fill="#bc3019" stroke="#6d6e71" stroke-width="1.688" stroke-miterlimit="10" d="M204.2 254.23l13.68-69.6S115.38 86.82 74.03 73.5c-27.8-8.98-53.5 3.6-40.97 31.1 1.94-4.48 8.98.45 16.16 5.4 77.97 53.6 155 144.23 154.98 144.23z" stroke-linecap="round" stroke-linejoin="round"/><path fill="#bc3019" stroke="#6d6e71" stroke-width="1.688" stroke-miterlimit="10" d="M65.6 225l-15.07 66.35s-115.58-85.62-122.15-164.6c9.8-53.12 26.9-76 26.9-76S-90.95 108.96 65.62 225z" stroke-linecap="round" stroke-linejoin="round"/><path fill="#fff" stroke="#6d6e71" stroke-width="1.688" stroke-miterlimit="10" d="M135.88 207.53L65.6 225l-52.27-44.4L85.7 163.2l50.18 44.3z" stroke-linecap="round" stroke-linejoin="round"/><path fill="#fff" stroke="#6d6e71" stroke-width="1.688" stroke-miterlimit="10" d="M217.88 184.62l68.58-16.74-55.38-46.5-65.2 16.13 52 47.12z" stroke-linecap="round" stroke-linejoin="round"/><path fill="#dadbdc" stroke="#6d6e71" stroke-width="1.688" stroke-miterlimit="10" d="M217.88 184.62l-52-47.1-16.76 56.83 55.08 59.88 13.68-69.6z" stroke-linecap="round" stroke-linejoin="round"/><path fill="#dadbdc" stroke="#6d6e71" stroke-width="1.688" stroke-miterlimit="10" d="M65.6 225l-15.07 66.35S17.5 265.97-5.37 242.2l18.68-61.6L65.6 225z" stroke-linecap="round" stroke-linejoin="round"/><path fill="none" stroke="#005b6e" stroke-width="20.257" d="M685.77 781.03l.14-5.26c.26-8.5 5.98-191.43 4.95-209.26-1.04-17.2-93.92-191-165.15-245.86-41.93-32.3-103.75-54.4-145.06-58.9-45.1-4.98-101.6-2.64-103.76 19.5-1.3 13.18 28.3 19.54 51.52 64.2 29.84 57.32-70.95 107.26-155.65 126.8-31.68 7.3-53.92 12.33-173.7 21.6-39.37 3.07-64.52 1.35-64.83 1.33l-7.97-.54v198.8l95.96 87.6h663.57z" stroke-linecap="round" stroke-linejoin="round"/><path fill="none" stroke="#bfdde6" stroke-width="16.881" d="M678.66 775.68H25.53l-91.98-83.3V502.25s101.9.9 200.38-14.72c83.07-13.18 223.5-62.95 208.2-128.36-2.95-12.54-7.52-30.42-31.27-55.22-9.73-10.16-29.3-19.65-21.58-25.32 19.42-14.25 59.1-12.05 73.42-10.2 65.4 8.44 109.73 22.17 156.15 58.04 62.98 48.67 125.56 149.3 164.74 240.32 1.02 17.83-4.94 208.9-4.94 208.9z" stroke-linecap="round" stroke-linejoin="round"/><path fill="#0091b7" d="M680.6 774.7V566.5c-.03 0-82.4-209.5-211.08-269.77-59.4-27.83-158.4-34.37-175.4-19.34-15.96 14.1 8.04-8.12 75.1 81.22 76.64 102.2-59.24 196.28-129.62 207.9-73.95 12.28-212.16 1.6-212.16 1.6L26.7 775.8l653.9-1.08z"/><path fill="#00677d" d="M26.7 775.23L-67 690.7V503.62l94.44 63.94-.73 207.66z"/><path fill="#6db7cb" d="M369.23 358.6c76.64 102.2-59.23 196.28-129.6 207.9-73.97 12.28-212.17 1.6-212.17 1.6L-67 504.18c114.28 6.33 562.25-46.3 356.82-221.3 34.53 17.9 73.3 67.63 79.4 75.73z"/><path fill="url(#e)" d="M680.4 775V566.8c-.03 0-82.36-209.5-211.1-269.78-59.37-27.84-156-34.66-173.03-19.63-15.97 14.1 5.73-7.85 72.73 81.5 76.7 102.17-59.22 196.27-129.57 207.9-73.97 12.25-212.18 1.6-212.18 1.6l-.7 207.65L680.4 775z"/><path fill="url(#f)" d="M680.94 774.72v-208.2s-82.38-209.5-211.05-269.8c-59.4-27.8-158.03-34.36-175.06-19.33-15.96 14.1 7.73-8.12 74.76 81.24 76.66 102.2-59.23 196.27-129.63 207.9-73.97 12.26-212.18 1.6-212.18 1.6l-.7 207.66 653.84-1.08z"/><path fill="url(#g)" d="M351.73 338.14c6.45 5.64 12.8 12.36 18.9 20.48 76.68 102.2-59.22 196.28-129.6 207.9-73.98 12.26-212.17 1.6-212.17 1.6l-94.42-63.94c36.68 1.68 582.76-26.95 354.86-220.8 18.32 10 34.5 17.93 62.43 54.76z"/><path fill="url(#h)" d="M680.62 775.13V566.9s-82.38-209.48-211.1-269.76c-59.37-27.84-158.4-34.8-175.4-19.77-15.94 14.1 8.08-7.7 75.1 81.64 76.7 102.2-59.2 196.28-129.58 207.9-74 12.3-212.2 1.64-212.2 1.64l-.7 207.63 653.88-1.04z"/><path fill="#7cbdd0" d="M351.42 378.18c47.15 88.8-81.77 171.3-242.48 171.5 171.92-7.78 268.13-106.03 242.48-171.5z"/><path fill="#88c2d4" d="M362.95 437.13c-3 95.1-154.65 134.93-302.64 116.45 170.03 8.3 292.05-49.35 302.65-116.45z"/><path fill="#488ca5" d="M395.45 367.35c108.04 56.63 3.1 194.96-118.88 264 130-80.4 190.52-217.8 118.88-264z"/><path fill="#458aa4" d="M461.23 414.1c68.7 86.6-135.7 225.47-213.05 243.92C359.8 618.2 502.26 479.35 461.23 414.1z"/><path fill="#30829f" d="M400.88 346.38c129.92 2.33 98.6 156.25 42.76 265.9 54.78-122.6 49.3-257.07-42.76-265.9z"/><path fill="#107f9f" d="M488.35 358.15c117.13 44.17 2.26 240.42-50.44 288.56 67.02-80.58 129.65-250.7 50.45-288.55z"/></svg>