<svg xmlns="http://www.w3.org/2000/svg" width="48" height="48" xmlns:xlink="http://www.w3.org/1999/xlink"><defs><linearGradient id="b"><stop offset="0" stop-color="#729fcf"/><stop offset="1" stop-color="#3f7ab9"/></linearGradient><linearGradient id="c" x1="37.245" x2="14.995" y1="36.382" y2="5.882" gradientUnits="userSpaceOnUse"><stop offset=".388" stop-color="#fff"/><stop offset=".803" stop-color="#A3C1CB"/><stop offset=".892" stop-color="#9FBCC5"/><stop offset=".951" stop-color="#93AEB5"/><stop offset="1" stop-color="#81979E"/></linearGradient><linearGradient id="d" x1="32.291" x2="31.457" y1="47.38" y2="27.048" gradientUnits="userSpaceOnUse"><stop offset=".433" stop-color="#E3EBEE"/><stop offset=".978" stop-color="#A3C1CB"/></linearGradient><linearGradient x1="3.294" x2="19.923" y1="27.207" y2="27.207" gradientUnits="userSpaceOnUse"><stop offset="0" stop-color="#E96712"/><stop offset=".527" stop-color="#F28F29"/><stop offset="1" stop-color="#FAAF3E"/></linearGradient><linearGradient x1="32.401" x2="30.734" y1="37.659" y2="31.826" gradientUnits="userSpaceOnUse"><stop offset="0" stop-color="#FAAF3E"/><stop offset=".09" stop-color="#F6A034"/><stop offset=".287" stop-color="#F08624"/><stop offset=".495" stop-color="#EC751A"/><stop offset=".722" stop-color="#E96A13"/><stop offset="1" stop-color="#E96712"/></linearGradient><linearGradient id="f" x1="30.159" x2="15.984" y1="26.489" y2="5.149" gradientUnits="userSpaceOnUse" gradientTransform="matrix(1.061 0 0 1.058 -2.785 2.432)"><stop offset="0" stop-color="#E3EBED"/><stop offset=".264" stop-color="#fff"/><stop offset=".373" stop-color="#F8FAFB"/><stop offset=".53" stop-color="#E6EEF1"/><stop offset=".713" stop-color="#C7D9DF"/><stop offset=".888" stop-color="#A3C1CB"/><stop offset=".933" stop-color="#9FBCC4"/><stop offset=".974" stop-color="#8FA9B1"/><stop offset="1" stop-color="#81989E"/></linearGradient><linearGradient id="g" x1="11.834" x2="19.806" y1="6.917" y2="17.434" gradientUnits="userSpaceOnUse" gradientTransform="matrix(1.061 0 0 1.058 -2.785 2.432)"><stop offset=".567" stop-color="#fff"/><stop offset=".729" stop-color="#EDF3F5"/><stop offset="1" stop-color="#C7D9DE"/></linearGradient><linearGradient id="h" x1="1.227" x2="27.602" y1="10.512" y2="46.012" gradientUnits="userSpaceOnUse"><stop offset="0" stop-color="#CDDDE1"/><stop offset=".556" stop-color="#A3C1CB"/><stop offset=".818" stop-color="#8AA2A9"/><stop offset="1" stop-color="#768B91"/></linearGradient><linearGradient id="i" x1="37.588" x2="35.673" y1="20.529" y2="16.655" gradientUnits="userSpaceOnUse" gradientTransform="matrix(1.061 0 0 1.058 -2.785 2.432)"><stop offset="0" stop-color="#F2F6F7"/><stop offset=".573" stop-color="#DDE7EA"/><stop offset=".691" stop-color="#D6E3E6"/><stop offset=".859" stop-color="#C4D7DC"/><stop offset="1" stop-color="#AFC9D1"/></linearGradient><linearGradient id="j" x1="26.269" x2="29.447" y1="4.571" y2="12.847" gradientUnits="userSpaceOnUse" gradientTransform="matrix(1.061 0 0 1.058 -2.785 2.432)"><stop offset=".118" stop-color="#fff"/><stop offset=".539" stop-color="#DDE7EA"/><stop offset="1" stop-color="#9FBDC6"/></linearGradient><linearGradient id="k" x1="11.144" x2="2.001" y1="11.209" y2="8.732" xlink:href="#a" gradientUnits="userSpaceOnUse" gradientTransform="matrix(1.533 0 0 1.533 -.642 2.132)"/><linearGradient id="a"><stop offset="0" stop-color="#3d444c" stop-opacity=".557"/><stop offset="1" stop-color="#3d444c" stop-opacity="0"/></linearGradient><linearGradient id="l" x1="10.128" x2="-.983" y1="7.209" y2="2.828" xlink:href="#a" gradientUnits="userSpaceOnUse" gradientTransform="matrix(1.533 0 0 1.533 6.126 15.122)"/><linearGradient><stop offset="0" stop-color="#3d444c" stop-opacity=".557"/><stop offset="1" stop-color="#3d444c" stop-opacity="0"/></linearGradient><linearGradient id="m" x1="11.906" x2="5.938" y1="5.24" y2="-2.696" xlink:href="#a" gradientUnits="userSpaceOnUse" gradientTransform="matrix(1.533 0 0 1.533 -.644 28.944)"/><linearGradient><stop offset="0" stop-color="#3d444c" stop-opacity=".557"/><stop offset="1" stop-color="#3d444c" stop-opacity="0"/></linearGradient><linearGradient id="e" x1="3.294" x2="19.923" y1="27.207" y2="27.207" xlink:href="#b" gradientUnits="userSpaceOnUse"/></defs><g><path fill="none" stroke="#590b08" stroke-width=".795" d="M.7 18.16l.08 1.5 17.46 24.62 23.66-11.6.34-1.73"/><path fill="none" stroke="#3d444c" stroke-width=".795" d="M.7 18.16l-.17-3.7 19.5-7.16 3.33 2.5L37.9 4.4c1.67.3 3.4 3.3-.02 7.18-.44.5-1.02.88-1.65 1.14l-5.8 2.36h.02c3.47 2.13 6.3 3.2 8.76 3.37l8.78-3.8c-1.38 1.32-2.74 2.33-4.17 2.98l-7.53 3.3 6.83 5.75-.86 4.3"/><path fill="url(#c)" d="M21.52 4.6l21.75 18.3-23.1 10.88L3.1 11.36z" transform="matrix(1.061 0 0 1.058 -2.785 2.432)"/><path fill="url(#d)" d="M43.27 22.9l-.82 4.05L19.92 37.9l.24-4.12z" transform="matrix(1.061 0 0 1.058 -2.785 2.432)"/><path fill="url(#e)" d="M3.36 16.28l16.47 23.27.1-1.65L3.28 14.87z" transform="matrix(1.061 0 0 1.058 -2.785 2.432)"/><path fill="#204a87" d="M18.35 42.54l23.9-11.6-.35 1.74-23.66 11.6z"/><path fill="url(#f)" d="M20.04 7.3c8.84 7.42 14.6 10.8 19.17 11.14L25.4 24.4c-3.53 6.26-15.3 2.6-24.87-9.97l19.5-7.15z"/><path fill="url(#g)" d="M18.28 11.25c1.66.74 2.66 4.3.16 7.7-.7.96-1.52 1.6-2.5 2.02-4.68 2-11.82-1.8-15.4-6.52l19.5-7.15c.62.52 2.66 2.07 3.23 2.5l-5 1.45z"/><path d="M15 15.43l-2.7 1.93c.68 1.17 1.13 2.17 2.77 2.78l1.8-.57c-.98-.36-1.25-1.02-1.3-1.93.65.8.83 1.12 2.43 1.36 1.1-1.24 1.8-2.76 1.5-5l-2.8.43z"/><path fill="url(#h)" d="M3.12 11.36l.17 3.5L19.91 37.9l.24-4.12z" transform="matrix(1.061 0 0 1.058 -2.785 2.432)"/><path fill="url(#i)" d="M25.4 24.42c-.63 1.12-1.52 1.92-2.62 2.4h.04l21-9.2c1.42-.66 2.8-1.67 4.16-3l-22.58 9.8z"/><path fill="url(#j)" d="M15.95 20.97l20.28-8.27c.63-.26 1.2-.63 1.65-1.14 3.42-3.86 2.18-6.88.5-7.18l-19.42 7.26c1.66.74 1.98 3.92-.52 7.3-.7.97-1.52 1.6-2.5 2.03z"/><path fill="none" stroke="url(#k)" stroke-width=".5" d="M23.95 9.5l-5.47 1.92C24.52 22.1 6.88 24.3.22 14.22" color="#000" overflow="visible"/><path fill="none" stroke="url(#l)" stroke-width=".5" d="M39.22 18.17L25.25 24.4c-2.14 4.36-15.22 3.25-21.57-6.23" color="#000" overflow="visible"/><path fill="none" stroke="url(#m)" stroke-width=".397" d="M43.26 26.74l-24.78 11.5L3.33 17.4" color="#000" overflow="visible"/><path d="M17.3 13.6a3.6 1.82 0 1 1-7.23 0 3.6 1.82 0 1 1 7.22 0z" color="#000" overflow="visible" enable-background="accumulate"/><path d="M20.07 19.36c1.66 1.57 3.85 2.63 7 2.7l2.8-1.35c-2.6-.38-5.3-.7-6.37-2.4l1.3-.66c1.2 1.4 4.44 1.58 7.34 1.86l2.93-1.14c-3.35-.35-7.14-.25-9-1.72z"/><path d="M20.36 27.43L24 33l2.8-1.36-2.73-5 1.3-.43 4.5 4 3.34-1.34-6.56-3.93c-2.1 1.2-4.2 2.6-6.28 2.5z"/><path d="M15.14 26.43l1.07 2.2 2.23.3-.5-2c-.93.2-1.86-.13-2.8-.5z"/></g></svg>