<svg xmlns="http://www.w3.org/2000/svg" width="48" height="48" xmlns:xlink="http://www.w3.org/1999/xlink"><defs><linearGradient id="K"><stop offset="0" stop-color="#72e209"/><stop offset="1" stop-color="#4e9a06"/></linearGradient><linearGradient id="J"><stop offset="0" stop-color="#8f5902"/><stop offset="1" stop-color="#8f5902" stop-opacity="0"/></linearGradient><linearGradient id="I"><stop offset="0" stop-color="#c17d11"/><stop offset="1" stop-color="#8f5902"/></linearGradient><linearGradient id="p"><stop offset="0" stop-color="#3465a4"/><stop offset="1" stop-color="#3465a4" stop-opacity="0"/></linearGradient><linearGradient id="o"><stop offset="0" stop-color="#c3f6ff"/><stop offset="1" stop-color="#c3f6ff" stop-opacity="0"/></linearGradient><linearGradient id="n"><stop offset="0" stop-color="#e5c32a" stop-opacity=".604"/><stop offset="1" stop-color="#c4a000" stop-opacity="0"/></linearGradient><linearGradient id="m"><stop offset="0" stop-color="#bb7403"/><stop offset="1" stop-color="#3b2501"/></linearGradient><linearGradient id="l"><stop offset="0" stop-color="#714b27" stop-opacity=".369"/><stop offset="1" stop-color="#f57900" stop-opacity="0"/></linearGradient><linearGradient id="k"><stop offset="0" stop-color="#8f5902"/><stop offset="1"/></linearGradient><linearGradient id="i"><stop offset="0" stop-color="#82b8f3"/><stop offset="1" stop-color="#4591e1"/></linearGradient><linearGradient id="h"><stop offset="0" stop-color="#729fcf"/><stop offset=".624" stop-color="#80a8d3"/><stop offset="1" stop-color="#b0c9e4" stop-opacity="0"/></linearGradient><linearGradient id="g"><stop offset="0" stop-color="#ffef3b"/><stop offset="1" stop-color="#fcaf3e"/></linearGradient><linearGradient><stop offset="0" stop-color="#3465a4"/><stop offset="1" stop-color="#3465a4"/></linearGradient><linearGradient id="d"><stop offset="0" stop-color="#c4ddde" stop-opacity=".423"/><stop offset="1" stop-color="#b1efff" stop-opacity="0"/></linearGradient><linearGradient id="b"><stop offset="0" stop-color="#2f4664"/><stop offset="1" stop-color="#3e5d84" stop-opacity="0"/></linearGradient><linearGradient id="a"><stop offset="0" stop-color="#fff"/><stop offset="1" stop-color="#fff" stop-opacity="0"/></linearGradient><linearGradient id="c"><stop offset="0" stop-color="#b8c7d9"/><stop offset=".321" stop-color="#54769c"/><stop offset=".491" stop-color="#b8c8d9"/><stop offset=".691" stop-color="#54769c"/><stop offset="1" stop-color="#b8c8d9"/></linearGradient><radialGradient cx="24.277" cy="30.201" r="7.528" xlink:href="#a" gradientUnits="userSpaceOnUse" gradientTransform="matrix(1 0 0 .295 0 21.304)" fx="24.277" fy="30.201"/><radialGradient cx="24.277" cy="30.201" r="7.528" xlink:href="#a" gradientUnits="userSpaceOnUse" gradientTransform="matrix(1 0 0 .295 0 21.304)" fx="24.277" fy="30.201"/><radialGradient cx="19.998" cy="41.295" r="5.494" xlink:href="#b" gradientUnits="userSpaceOnUse" gradientTransform="matrix(1.371 0 0 -.363 -3.148 41.369)" fx="19.998" fy="41.295"/><radialGradient cx="19.998" cy="41.295" r="5.494" xlink:href="#b" gradientUnits="userSpaceOnUse" gradientTransform="matrix(.83 0 0 .363 7.717 6.189)" fx="19.998" fy="41.295"/><radialGradient cx="23.402" cy="37.269" r="24.405" xlink:href="#c" gradientUnits="userSpaceOnUse" gradientTransform="matrix(1 0 0 .573 0 1.625)" spreadMethod="pad" fx="23.402" fy="37.269"/><radialGradient cx="24.277" cy="30.201" r="7.528" xlink:href="#a" gradientUnits="userSpaceOnUse" gradientTransform="matrix(1 0 0 .295 0 21.304)" fx="24.277" fy="30.201"/><radialGradient cx="23.402" cy="37.269" r="24.405" xlink:href="#c" gradientUnits="userSpaceOnUse" gradientTransform="matrix(1 0 0 .573 0 1.625)" spreadMethod="pad" fx="23.402" fy="37.269"/><radialGradient cx="24.277" cy="30.201" r="7.528" xlink:href="#a" gradientUnits="userSpaceOnUse" gradientTransform="matrix(1 0 0 .295 0 21.304)" fx="24.277" fy="30.201"/><radialGradient cx="19.998" cy="41.295" r="5.494" xlink:href="#b" gradientUnits="userSpaceOnUse" gradientTransform="matrix(.83 0 0 .363 7.717 6.189)" fx="19.998" fy="41.295"/><radialGradient cx="19.998" cy="41.295" r="5.494" xlink:href="#b" gradientUnits="userSpaceOnUse" gradientTransform="matrix(1.371 0 0 -.363 -3.148 41.369)" fx="19.998" fy="41.295"/><linearGradient id="Q" x1="14.236" x2="4.506" y1="19.527" y2="19.201" xlink:href="#d" gradientUnits="userSpaceOnUse" gradientTransform="matrix(.893 0 0 .892 .036 4.713)"/><linearGradient x1="12.865" x2="8.032" y1="22.205" y2="17.568" xlink:href="#d" gradientUnits="userSpaceOnUse" gradientTransform="matrix(-.923 0 0 .923 31.798 4.562)"/><linearGradient id="S" x1="2.024" x2="-4.506" y1="27.625" y2="21.356" xlink:href="#d" gradientUnits="userSpaceOnUse" gradientTransform="matrix(.893 0 0 .892 16.009 6.461)"/><linearGradient id="e"><stop offset="0" stop-color="#c7dfe0"/><stop offset="1" stop-color="#b1efff" stop-opacity="0"/></linearGradient><linearGradient x1="14.236" x2="4.506" y1="19.527" y2="19.201" gradientTransform="translate(2.087 -14.893)" gradientUnits="userSpaceOnUse" xlink:href="#e"/><linearGradient id="f"><stop offset="0" stop-color="#3465a4"/><stop offset="1" stop-color="#3465a4" stop-opacity="0"/></linearGradient><linearGradient x1="36.636" x2="48.064" y1="19.005" y2="21.944" gradientTransform="translate(-36.443 -14.175)" gradientUnits="userSpaceOnUse" xlink:href="#f"/><linearGradient id="U" x1="20.832" x2="26.71" y1="29.127" y2="35.2" xlink:href="#d" gradientUnits="userSpaceOnUse" gradientTransform="matrix(.893 0 0 .892 .036 4.713)"/><linearGradient id="M" x1="42.687" x2="47.128" y1="20.637" y2="30.693" xlink:href="#g" gradientUnits="userSpaceOnUse" gradientTransform="matrix(.899 0 0 .898 .033 4.673)"/><linearGradient id="P" x1="12.724" x2="27.233" y1="26.664" y2="6.918" xlink:href="#h" gradientUnits="userSpaceOnUse" gradientTransform="matrix(.899 0 0 .898 .033 4.673)"/><radialGradient cx="23.165" cy="21.64" r="22.24" xlink:href="#i" gradientUnits="userSpaceOnUse" gradientTransform="matrix(1.235 -.03 .018 .739 -7.441 11.577)" fx="23.165" fy="21.64"/><radialGradient cx="23.165" cy="21.64" r="22.24" xlink:href="#j" gradientUnits="userSpaceOnUse" gradientTransform="matrix(1.235 -.03 .018 .739 -7.441 11.577)" fx="23.165" fy="21.64"/><linearGradient id="j"><stop offset="0" stop-color="#82b8f3"/><stop offset="1" stop-color="#4591e1"/></linearGradient><radialGradient id="W" cx="23.165" cy="21.64" r="22.24" fy="21.64" fx="23.165" gradientTransform="matrix(1.194 -.029 .017 .714 -7.187 12.81)" gradientUnits="userSpaceOnUse" xlink:href="#j"/><linearGradient id="N" x1="28.702" x2="26.697" y1="7.789" y2="51.608" xlink:href="#k" gradientUnits="userSpaceOnUse" gradientTransform="matrix(.967 0 0 .967 .012 1.584)"/><linearGradient id="Y" x1="42.644" x2="43.493" y1="23.446" y2="35.004" xlink:href="#l" gradientUnits="userSpaceOnUse" gradientTransform="matrix(.967 0 0 .967 .012 1.584)"/><linearGradient id="Z" x1="40.946" x2="43.819" y1="31.902" y2="41.959" xlink:href="#m" gradientUnits="userSpaceOnUse" gradientTransform="matrix(.967 0 0 .967 .012 1.584)"/><linearGradient id="O" x1="31.803" x2="27.232" y1="15.184" y2="19.756" xlink:href="#n" gradientUnits="userSpaceOnUse" gradientTransform="matrix(.967 0 0 .967 .012 1.584)"/><linearGradient id="aa" x1="39.444" x2="29.648" y1="25.699" y2="36.866" xlink:href="#o" gradientUnits="userSpaceOnUse" gradientTransform="matrix(.967 0 0 .967 .012 1.584)"/><linearGradient id="X" x1="31.54" x2="40.686" y1="33.241" y2="23.641" xlink:href="#p" gradientUnits="userSpaceOnUse" gradientTransform="matrix(.967 0 0 .967 .012 1.584)"/><linearGradient id="T" x1="12.865" x2="8.032" y1="22.205" y2="17.568" xlink:href="#d" gradientUnits="userSpaceOnUse" gradientTransform="matrix(-.893 0 0 .892 30.441 6.247)"/><linearGradient id="V" x1="6.792" x2="1.045" y1="25.862" y2="18.744" xlink:href="#d" gradientUnits="userSpaceOnUse" gradientTransform="matrix(-.893 0 0 .892 33.03 9.549)"/><linearGradient id="R" x1="14.236" x2="4.506" y1="19.527" y2="19.201" xlink:href="#d" gradientUnits="userSpaceOnUse" gradientTransform="matrix(-.893 0 0 .892 22.013 1.624)"/><linearGradient id="q"><stop offset="0"/><stop offset="1" stop-opacity="0"/></linearGradient><linearGradient id="r"><stop offset="0" stop-color="#fff"/><stop offset="1" stop-color="#fff" stop-opacity="0"/></linearGradient><linearGradient x1="-706.558" x2="-706.558" y1="149.336" y2="1256.956" xlink:href="#q" gradientUnits="userSpaceOnUse"/><linearGradient x1="-775.11" x2="-775.11" y1="-225.794" y2="1256.093" xlink:href="#r" gradientUnits="userSpaceOnUse"/><radialGradient cx="281.848" cy="663.862" r="75.596" gradientUnits="userSpaceOnUse" gradientTransform="matrix(.882 .008 -.006 .145 37.323 565.23)" fy="617.284" fx="287.466" xlink:href="#s"/><radialGradient cx="291.211" cy="663.862" r="75.596" gradientUnits="userSpaceOnUse" gradientTransform="matrix(1 0 0 .183 0 542.635)" fy="663.862" fx="291.211" xlink:href="#t"/><radialGradient cx="260.315" cy="678.981" r="156.452" gradientUnits="userSpaceOnUse" gradientTransform="matrix(.869 0 0 .17 34.11 563.702)" fy="678.981" fx="260.315" xlink:href="#u"/><radialGradient cx="277.073" cy="482.715" r="171.073" fy="482.715" fx="277.073" gradientTransform="matrix(.787 0 0 .787 85.376 121.141)" gradientUnits="userSpaceOnUse" xlink:href="#v"/><radialGradient cx="317.307" cy="527.659" r="138.571" fy="583.431" fx="331.692" gradientUnits="userSpaceOnUse" xlink:href="#w"/><linearGradient x1="281.909" x2="294.572" y1="404.571" y2="493.875" gradientUnits="userSpaceOnUse" xlink:href="#x"/><radialGradient cx="286.354" cy="445.193" r="76.306" fy="445.193" fx="286.354" gradientTransform="matrix(1 0 0 .269 0 325.517)" gradientUnits="userSpaceOnUse" xlink:href="#y"/><linearGradient x1="371.182" x2="315.996" y1="583.565" y2="374.124" gradientUnits="userSpaceOnUse" xlink:href="#z"/><linearGradient x1="371.182" x2="315.996" y1="583.565" y2="374.124" gradientUnits="userSpaceOnUse" xlink:href="#z"/><linearGradient x1="297.211" x2="323.063" y1="342.803" y2="519.92" gradientUnits="userSpaceOnUse" xlink:href="#A"/><linearGradient x1="194.45" x2="323.063" y1="330.829" y2="519.92" gradientUnits="userSpaceOnUse" xlink:href="#B"/><radialGradient cx="128.46" cy="639.226" r="159.943" gradientUnits="userSpaceOnUse" gradientTransform="matrix(2.351 -.407 .15 .865 -251.956 18.869)" fy="639.226" fx="128.46" xlink:href="#C"/><linearGradient x1="168.042" x2="434.953" y1="553.113" y2="460.129" gradientTransform="translate(4 -38)" gradientUnits="userSpaceOnUse" xlink:href="#C"/><linearGradient x1="118.79" x2="434.953" y1="547.81" y2="460.129" gradientTransform="translate(4 -38)" gradientUnits="userSpaceOnUse" xlink:href="#D"/><linearGradient x1="104.107" x2="434.953" y1="584.676" y2="460.129" gradientTransform="translate(4 -38)" gradientUnits="userSpaceOnUse" xlink:href="#C"/><linearGradient x1="104.107" x2="434.953" y1="584.676" y2="460.129" gradientTransform="translate(4 -38)" gradientUnits="userSpaceOnUse" xlink:href="#C"/><linearGradient x1="104.107" x2="434.953" y1="584.676" y2="460.129" gradientTransform="translate(4 -38)" gradientUnits="userSpaceOnUse" xlink:href="#D"/><radialGradient cx="277.073" cy="482.715" r="171.073" gradientTransform="matrix(.993 0 0 .993 3.18 4.639)" gradientUnits="userSpaceOnUse" fy="482.715" fx="277.073" xlink:href="#E"/><linearGradient x1="255.993" x2="334.444" y1="353.059" y2="657.263" gradientUnits="userSpaceOnUse" xlink:href="#F"/><radialGradient cx="317.143" cy="503.791" r="138.571" gradientTransform="matrix(1.108 0 0 1.113 -34.33 -57.131)" gradientUnits="userSpaceOnUse" fy="503.791" fx="317.143" xlink:href="#G"/><radialGradient cx="345.714" cy="576.648" r="138.571" gradientUnits="userSpaceOnUse" fy="576.648" fx="345.714" xlink:href="#H"/><linearGradient id="H"><stop offset="0" stop-color="#2259db"/><stop offset="1" stop-color="#1a2b73"/></linearGradient><linearGradient id="G"><stop offset="0"/><stop offset=".801" stop-color="#3650ee"/><stop offset="1" stop-color="#9518ff" stop-opacity="0"/></linearGradient><linearGradient id="y"><stop offset="0" stop-color="#c2d9e8"/><stop offset="1" stop-color="#6265c4" stop-opacity="0"/></linearGradient><linearGradient id="x"><stop offset="0" stop-color="#fff" stop-opacity=".591"/><stop offset="1" stop-color="#629ec4" stop-opacity="0"/></linearGradient><linearGradient id="F"><stop offset="0" stop-color="#0c0047"/><stop offset="1" stop-color="#ff06f0"/></linearGradient><linearGradient id="A"><stop offset="0" stop-color="#fff" stop-opacity=".835"/><stop offset="1" stop-color="#a854bf" stop-opacity="0"/></linearGradient><linearGradient id="E"><stop offset="0" stop-color="#fff" stop-opacity="0"/><stop offset=".836" stop-color="#fff" stop-opacity=".226"/><stop offset="1" stop-color="#fff" stop-opacity=".671"/></linearGradient><linearGradient id="w"><stop offset="0" stop-color="#5bf3ff" stop-opacity=".784"/><stop offset=".355" stop-color="#addbff" stop-opacity=".392"/><stop offset="1" stop-color="#665bff" stop-opacity="0"/></linearGradient><linearGradient id="v"><stop offset="0" stop-color="#255aff" stop-opacity="0"/><stop offset=".836" stop-color="#9c7eff" stop-opacity=".224"/><stop offset="1" stop-color="#f1d7ff" stop-opacity=".671"/></linearGradient><linearGradient id="D"><stop offset="0" stop-color="#fff"/><stop offset="1" stop-color="#68ffec" stop-opacity="0"/></linearGradient><linearGradient id="C"><stop offset="0" stop-color="#fff"/><stop offset="1" stop-color="#64ebff" stop-opacity="0"/></linearGradient><linearGradient id="z"><stop offset="0" stop-color="#fff" stop-opacity=".278"/><stop offset="1" stop-color="#fff" stop-opacity=".009"/></linearGradient><linearGradient id="B"><stop offset="0" stop-color="#fff" stop-opacity=".313"/><stop offset="1" stop-color="#a854bf" stop-opacity="0"/></linearGradient><linearGradient id="u"><stop offset="0" stop-opacity=".609"/><stop offset=".436" stop-opacity=".302"/><stop offset="1" stop-opacity="0"/></linearGradient><linearGradient id="s"><stop offset="0" stop-color="#c600f4" stop-opacity=".835"/><stop offset="1" stop-color="#c000f0" stop-opacity="0"/></linearGradient><linearGradient id="t"><stop offset="0" stop-color="#56fbff" stop-opacity=".365"/><stop offset="1" stop-color="#00a2ba" stop-opacity="0"/></linearGradient><linearGradient x1="168.042" x2="434.953" y1="553.113" y2="460.129" xlink:href="#C" gradientUnits="userSpaceOnUse" gradientTransform="translate(4 -38)"/><linearGradient x1="104.107" x2="434.953" y1="584.676" y2="460.129" xlink:href="#D" gradientUnits="userSpaceOnUse" gradientTransform="translate(4 -38)"/><linearGradient x1="-706.558" x2="-706.558" y1="149.336" y2="1256.956" xlink:href="#q" gradientUnits="userSpaceOnUse"/><radialGradient cx="128.46" cy="639.226" r="159.943" xlink:href="#C" gradientUnits="userSpaceOnUse" gradientTransform="matrix(2.351 -.407 .15 .865 -251.956 18.869)" fx="128.46" fy="639.226"/><linearGradient x1="104.107" x2="434.953" y1="584.676" y2="460.129" xlink:href="#C" gradientUnits="userSpaceOnUse" gradientTransform="translate(4 -38)"/><linearGradient x1="118.79" x2="434.953" y1="547.81" y2="460.129" xlink:href="#D" gradientUnits="userSpaceOnUse" gradientTransform="translate(4 -38)"/><linearGradient x1="104.107" x2="434.953" y1="584.676" y2="460.129" xlink:href="#C" gradientUnits="userSpaceOnUse" gradientTransform="translate(4 -38)"/><linearGradient x1="118.79" x2="434.953" y1="547.81" y2="460.129" xlink:href="#D" gradientUnits="userSpaceOnUse" gradientTransform="translate(4 -38)"/><radialGradient cx="-846.201" cy="164.482" r="49.5" xlink:href="#r" fx="-846.201" fy="164.482" gradientUnits="userSpaceOnUse" gradientTransform="matrix(.08 1.4 -3.06 .174 -279.402 1333.227)"/><radialGradient cx="-846.201" cy="164.482" r="49.5" xlink:href="#r" gradientUnits="userSpaceOnUse" gradientTransform="matrix(.08 1.4 -3.06 .174 -279.402 1333.227)" fx="-846.201" fy="164.482"/><radialGradient cx="-846.201" cy="164.482" r="49.5" xlink:href="#r" gradientUnits="userSpaceOnUse" gradientTransform="matrix(.08 1.4 -3.06 .174 -279.402 1333.227)" fx="-846.201" fy="164.482"/><radialGradient cx="-846.201" cy="164.482" r="49.5" xlink:href="#r" gradientUnits="userSpaceOnUse" gradientTransform="matrix(.08 1.4 -3.06 .174 -279.402 1333.227)" fx="-846.201" fy="164.482"/><radialGradient cx="-846.201" cy="164.482" r="49.5" xlink:href="#r" gradientUnits="userSpaceOnUse" gradientTransform="matrix(.08 1.4 -3.06 .174 -279.402 1333.227)" fx="-846.201" fy="164.482"/><radialGradient cx="-846.201" cy="164.482" r="49.5" xlink:href="#r" gradientUnits="userSpaceOnUse" gradientTransform="matrix(.08 1.4 -3.06 .174 -279.402 1333.227)" fx="-846.201" fy="164.482"/><linearGradient x1="38.169" x2="37.735" y1="12.024" y2="3.204" xlink:href="#I" gradientUnits="userSpaceOnUse" gradientTransform="translate(1.755 2.078)"/><linearGradient id="ac" x1="38.169" x2="37.735" y1="12.024" y2="3.204" xlink:href="#I" gradientUnits="userSpaceOnUse" gradientTransform="matrix(.913 0 0 .914 5.54 4.087)"/><radialGradient id="ab" cx="38.443" cy="20.548" r="5.056" xlink:href="#J" fx="38.443" fy="20.548" gradientTransform="matrix(1 0 0 .489 0 10.508)" gradientUnits="userSpaceOnUse"/><radialGradient id="ad" cx="34.364" cy="4.254" r="4.783" xlink:href="#K" fx="34.364" fy="4.254" gradientTransform="matrix(1 0 0 .524 0 2.024)" gradientUnits="userSpaceOnUse"/><radialGradient id="af" cx="34.364" cy="4.254" r="4.783" xlink:href="#L" fx="34.364" fy="4.254" gradientTransform="matrix(1 0 0 .524 0 2.024)" gradientUnits="userSpaceOnUse"/><linearGradient id="L"><stop offset="0" stop-color="#72e209"/><stop offset="1" stop-color="#4e9a06"/></linearGradient><radialGradient cx="34.364" cy="4.254" r="4.783" fy="4.254" fx="34.364" gradientTransform="matrix(1 0 0 .524 -29.581 .277)" gradientUnits="userSpaceOnUse" xlink:href="#L"/><radialGradient id="ae" cx="34.641" cy="9.54" r="4.783" xlink:href="#L" gradientUnits="userSpaceOnUse" gradientTransform="matrix(1.039 -.463 .214 .479 -3.375 18.51)" fx="34.641" fy="9.54"/><radialGradient id="ag" cx="42.478" cy="1.216" r="4.783" xlink:href="#L" gradientUnits="userSpaceOnUse" gradientTransform="matrix(1.055 -.232 .074 .335 -2.432 12.106)" fx="42.478" fy="1.216"/><radialGradient id="ah" cx="43.507" cy="7.69" r="4.783" xlink:href="#L" gradientUnits="userSpaceOnUse" gradientTransform="matrix(.936 .285 -.115 .378 3.645 -9.229)" fx="43.507" fy="7.69"/></defs><g><path fill="url(#M)" stroke="url(#N)" d="M17.26 13.64l10.4-4.24 18.4 11.94-.13 12.74-18.5 9.85L6.28 30z"/><path fill="url(#O)" d="M18.77 13.52l4.1-1.77C32.8 15 33.5 20.47 43.14 23.18l-3.47 1.9c-6.47-.72-13.63-10.72-20.9-11.56z"/><path fill="url(#P)" d="M17.66 13.34c11.4-1.84 15.72 11.85 22.1 11.75-2.7 1.1-6.86 7.63-12.6 6.23-.77 4.23-3.43 6.93-5.78 9-2.3.02-5.5-2.9-6.77-6.98-4.44.4-8.3-3.67-9.05-8.5l-5.1-.37c2.93-2.08 4.9-3.4 6.2-6 3.55.5 5.5-3.18 7.72-3.52.92-.14 2.82-.84 3.3-1.62z"/><path fill="url(#Q)" d="M.2 24.53c3.1-1.74 5.65-2.6 6.25-6.03 1.85 2.33 5.1 3.08 7.3 2.7-.63 3.2-3.52 6.56-8.12 3.85z"/><path fill="url(#R)" d="M23.82 17.88c-3.6 2.53-9.25 1.16-10.03-2.44-1.4.68-4.54 4.3-7.03 3.13 1.67 4.07 5.4 4.88 9.82 2.87 2.9 1.73 6.88-.83 7.22-3.56z"/><path fill="url(#S)" d="M5.52 25.1c5.17 2.47 7.73 0 8.33-4.13 1.48 3.7 5.62 6.2 8.1 5.2-.03 4.93-3.2 6.84-7.4 7.15-5.33.37-8.32-4.27-9.03-8.2z" color="#000" overflow="visible" enable-background="accumulate"/><path fill="url(#T)" d="M27.3 22.4c-1.16.12-5.76.9-6.54-2.7-1.7.75-4.5 2.65-7 1.47 1.6 4.2 6.06 5.6 7.94 5.3 2.43.45 4.33-1.94 5.6-4.08z"/><path fill="url(#U)" d="M14.38 33.32c3.6-.1 7.3-1.38 7.57-7.05.2 3.2 2.53 5.44 5.13 4.96-.56 3.77-2.63 6.67-5.77 9.38-2.18-.5-6.36-3.7-6.92-7.28z" color="#000" overflow="visible" enable-background="accumulate"/><path fill="url(#V)" d="M33.85 27.56c-3.25-.28-5.7-1.6-7.17-4.67-.66 1.96-2.53 3.16-4.67 3.08 0 4 3.23 5.5 5.26 5.3 2.5.34 4.68-.94 6.6-3.72z"/><path fill="none" stroke="#3465a4" stroke-width=".75" d="M.44 24.48c2.94-2.08 4.9-3.6 6.22-6.06 3.22.6 5.37-3.1 6.74-3.27 1.57-.2 2.54-.94 3.84-1.62" stroke-linejoin="round"/><path fill="url(#W)" stroke="url(#X)" stroke-width=".75" d="M.43 24.52l-.12.03.07 7.85 20.15 15.32 6.65-3.65c9.04-6.93 5.24-12.03 12.45-18.77l-3.7 1.67-.68.33c-2.94 2.3-3.93 5.1-8.07 4.08-.76 4.4-3.57 5.06-6.05 6.07-1.85.22-4.48-1.63-6.52-4.08-2.74-.98-7.4-4.4-9.06-8.46z" stroke-linejoin="round"/><path fill="url(#Y)" d="M29.94 42.3c3.83-4.6 5.12-11.66 9.6-17.1l6-3.6-.13 12.18z"/><path fill="url(#Z)" d="M29.94 42.3c7.7-6.16 9.47-12.25 15.66-12.94l.2 4.63z"/><path fill="url(#aa)" d="M38.2 26.14c-2.67 1-4.67 3.36-6.4 4.7-.73.56-3.03 1.38-4.33.98-.33 1.18-.9 2.6-1.63 3.3l4.92 5.1c2.72-2.9 3.27-9.44 7.45-14.08z"/><path fill="none" d="M-136.55 96.84c44.65 20.6 88.33 18.92 131.25 0" overflow="visible" enable-background="accumulate"/><path fill="url(#ab)" d="M43.5 20.55a5.06 2.47 0 1 1-10.1 0 5.06 2.47 0 1 1 10.1 0z" transform="matrix(1.168 0 0 1.168 -6.652 -3.457)" color="#000" overflow="visible" enable-background="accumulate"/><path fill="url(#ac)" stroke="#e9b96e" stroke-width=".5" d="M39.47 4.67c-.08 0-.15 0-.23.03-.64.13-1 .97-.83 1.9.15.64.54 1.14.98 1.33.94 5.26-.2 9.1-2.7 12.22.63.93 1.38.8 2.13.74 2.76-3.72 3.15-8.06 1.67-13.3.26-.35.37-.9.25-1.5-.16-.8-.7-1.38-1.25-1.43z"/><path fill="url(#ad)" stroke="#8ae234" stroke-width=".5" d="M38.9 5.75c-.13-.17-2.02-3.7-3.8-3.75-2.3-.1-5.27 4.5-5.27 4.5s3.33-2.2 5.23-2.22c1.37-.03 3.84 1.47 3.84 1.47z"/><path fill="url(#ae)" stroke="#8ae234" stroke-width=".5" d="M39.67 6.18c-.2-.1-3.8-2.23-5.7-1.34-2.5 1.15-3.57 6.84-3.57 6.84s2.55-3.74 4.54-4.78c1.44-.75 4.73-.72 4.73-.72z" color="#000" overflow="visible" enable-background="accumulate"/><path fill="url(#af)" stroke="#73d216" stroke-width=".5" d="M39.6 7.2c-.12-.04-2.42-.92-3.44-.22-1.34.9-1.4 4.3-1.4 4.3s1.1-2.4 2.17-3.2c.76-.58 2.68-.9 2.68-.9z" color="#000" overflow="visible" enable-background="accumulate"/><path fill="url(#ag)" stroke="#8ae234" stroke-width=".5" d="M39.26 5.6c.04-.2.2-4.2 1.77-5.02 2.05-1.1 6.72 1.75 6.72 1.75s-3.96-.52-5.68.28c-1.25.58-2.8 3-2.8 3z" color="#000" overflow="visible" enable-background="accumulate"/><path fill="url(#ah)" stroke="#8ae234" stroke-width=".5" d="M38.72 5.74c.17-.07 2.9-1.7 4.75-1.4 2.38.35 4.35 3.42 4.35 3.42s-2.9-1.8-4.84-2.16c-1.4-.25-4.26.14-4.26.14z" color="#000" overflow="visible" enable-background="accumulate"/><path fill="url(#af)" stroke="#73d216" stroke-width=".5" d="M40.14 5.88c.13-.03 2.43-.9 3.46-.2 1.33.9 1.4 4.3 1.4 4.3s-1.12-2.42-2.17-3.22c-.77-.57-2.7-.88-2.7-.88z" color="#000" overflow="visible" enable-background="accumulate"/><path fill="url(#af)" stroke="#73d216" stroke-width=".5" d="M39.52 6.6c.13.05 2.5.54 3.3 1.34 1.04 1.05.3 2.9.3 2.9s-.48-1.77-1.3-2.63c-.57-.62-2.3-1.6-2.3-1.6z" color="#000" overflow="visible" enable-background="accumulate"/></g></svg>