<svg xmlns="http://www.w3.org/2000/svg" width="48" height="48"><defs><radialGradient id="a" cx="4.718" cy="82.038" r="39.666" gradientUnits="userSpaceOnUse" fy="82.038" fx="4.718" gradientTransform="matrix(1.065 0 0 1.065 -1.955 -70.04)"><stop offset="0" stop-color="#fff"/><stop offset="1" stop-color="#8794A0"/></radialGradient><radialGradient id="b" cx="-2.441" cy="122.36" r="49.194" gradientUnits="userSpaceOnUse" fy="122.36" fx="-2.441"><stop offset="0" stop-color="#fff"/><stop offset="1" stop-color="#8794A0"/></radialGradient><radialGradient id="c" cx="60.558" cy="141.36" r="64.444" gradientUnits="userSpaceOnUse" fy="141.36" fx="60.558" gradientTransform="matrix(1.065 0 0 1.065 -1.955 -70.04)"><stop offset="0" stop-color="#fff"/><stop offset="1" stop-color="#8794A0"/></radialGradient><radialGradient id="d" cx="15.068" cy="90.611" r="20.416" gradientUnits="userSpaceOnUse" fy="90.611" fx="15.068"><stop offset="0" stop-color="#EFEEEC"/><stop offset="1" stop-color="#ACB6BE"/></radialGradient><radialGradient id="f" cx="15.067" cy="90.611" r="20.427" gradientUnits="userSpaceOnUse" fy="90.611" fx="15.067"><stop offset="0" stop-color="#EFEEEC"/><stop offset="1" stop-color="#ACB6BE"/></radialGradient><radialGradient id="e" cx="13.48" cy="89.602" r="13.858" gradientUnits="userSpaceOnUse" fy="89.602" fx="13.48"><stop offset="0" stop-color="#BAD1D7"/><stop offset="1" stop-color="#8794A0"/></radialGradient></defs><g><circle cx="30.625" cy="83.019" r="15.789" fill="#eeeeec" fill-opacity=".519" stroke="#949aa1" stroke-width=".751" transform="matrix(1.065 0 0 1.065 -1.955 -70.04)"/><path fill="url(#a)" d="M.38 17l14.6-4.68c-1.38 4.56 4.8 7.47 14.33 8.2l-15.22 5.9L.38 17z"/><path fill="url(#b)" d="M15.07 90.6L2.2 81.77l1.4 18.12 11.93 10.17-.46-19.44z" transform="matrix(1.065 0 0 1.065 -1.955 -70.04)"/><path fill="url(#c)" d="M29.3 20.52c-1.85 3.44-3.3 11.78 3.36 13.82l-.2 4.1-17.88 8.68-.5-20.7 15.23-5.9z"/><g transform="matrix(1.065 0 0 1.065 -1.955 -70.04)"><radialGradient cx="15.068" cy="90.611" r="20.416" gradientUnits="userSpaceOnUse" fy="90.611" fx="15.068"><stop offset="0" stop-color="#EFEEEC"/><stop offset="1" stop-color="#ACB6BE"/></radialGradient><path fill="url(#d)" d="M14.9 90.15l-.34.12.48 19.8 1-.03s-.45-18.4-.46-19.1c.62-.23 13.97-5.4 13.97-5.4l-.37-.94-14.3 5.55z"/></g><g transform="matrix(1.065 0 0 1.065 -1.955 -70.04)"><radialGradient cx="13.48" cy="89.602" r="13.858" gradientUnits="userSpaceOnUse" fy="89.602" fx="13.48"><stop offset="0" stop-color="#BAD1D7"/><stop offset="1" stop-color="#8794A0"/></radialGradient><path fill="url(#e)" d="M15.07 90.6L2.2 81.77" enable-background="new"/><radialGradient cx="15.067" cy="90.611" r="20.427" gradientUnits="userSpaceOnUse" fy="90.611" fx="15.067"><stop offset="0" stop-color="#EFEEEC"/><stop offset="1" stop-color="#ACB6BE"/></radialGradient><path fill="url(#f)" d="M1.9 82.17l12.88 8.85.57-.82-12.88-8.85-.56.82z"/></g><path fill="none" stroke="#192333" stroke-width=".8" d="M29.3 20.52c-1.85 3.44-3.3 11.78 3.36 13.82l-.2 4.1-17.88 8.68L1.88 36.3.4 17l14.6-4.68c-1.38 4.56 4.8 7.47 14.33 8.2z"/></g></svg>