<svg xmlns="http://www.w3.org/2000/svg" width="48" height="48"><defs><radialGradient id="a" cx="362.289" cy="154.609" r="17.379" gradientUnits="userSpaceOnUse" gradientTransform="matrix(-1.018 0 0 1.02 394.899 -12.724)" fy="154.609" fx="362.289"><stop offset="0" stop-color="#fff"/><stop offset="1" stop-color="#8794A0"/></radialGradient><radialGradient id="b" cx="4.718" cy="150.038" r="39.666" gradientUnits="userSpaceOnUse" fy="150.038" fx="4.718" gradientTransform="matrix(1.065 0 0 1.065 -1.936 -142.707)"><stop offset="0" stop-color="#fff"/><stop offset="1" stop-color="#8794A0"/></radialGradient><radialGradient id="c" cx="-2.441" cy="190.36" r="49.194" gradientUnits="userSpaceOnUse" fy="190.36" fx="-2.441"><stop offset="0" stop-color="#fff"/><stop offset="1" stop-color="#8794A0"/></radialGradient><radialGradient id="d" cx="60.558" cy="209.36" r="64.444" gradientUnits="userSpaceOnUse" fy="209.36" fx="60.558" gradientTransform="matrix(1.065 0 0 1.065 -1.936 -142.707)"><stop offset="0" stop-color="#fff"/><stop offset="1" stop-color="#8794A0"/></radialGradient><radialGradient id="e" cx="15.051" cy="158.76" r="20.073" gradientUnits="userSpaceOnUse" fy="158.76" fx="15.051"><stop offset="0" stop-color="#EFEEEC"/><stop offset="1" stop-color="#ACB6BE"/></radialGradient><radialGradient id="g" cx="15.067" cy="158.611" r="20.427" gradientUnits="userSpaceOnUse" fy="158.611" fx="15.067"><stop offset="0" stop-color="#EFEEEC"/><stop offset="1" stop-color="#ACB6BE"/></radialGradient><radialGradient id="f" cx="13.48" cy="157.602" r="13.858" gradientUnits="userSpaceOnUse" fy="157.602" fx="13.48"><stop offset="0" stop-color="#BAD1D7"/><stop offset="1" stop-color="#8794A0"/></radialGradient></defs><g><g transform="matrix(1.065 0 0 1.065 -1.936 -142.707)"><radialGradient cx="362.289" cy="154.609" r="17.379" gradientUnits="userSpaceOnUse" gradientTransform="matrix(-1.018 0 0 1.02 394.899 -12.724)" fy="154.609" fx="362.289"><stop offset="0" stop-color="#fff"/><stop offset="1" stop-color="#8794A0"/></radialGradient><circle cx="30.625" cy="151.043" r="15.789" fill="url(#a)"/></g><path fill="url(#b)" d="M.4 16.76L15 12.08c-1.38 4.56 4.8 7.47 14.33 8.2l-15.22 5.9L.4 16.77z"/><path fill="url(#c)" d="M15.07 158.6L2.2 149.77l1.4 18.12 11.93 10.17-.46-19.44z" transform="matrix(1.065 0 0 1.065 -1.936 -142.707)"/><path fill="url(#d)" d="M29.33 20.28C27.48 23.72 26 32.06 32.7 34.1l-.2 4.1-17.9 8.7-.5-20.7 15.23-5.92z"/><g transform="matrix(1.065 0 0 1.065 -1.936 -142.707)"><radialGradient cx="15.051" cy="158.76" r="20.073" gradientUnits="userSpaceOnUse" fy="158.76" fx="15.051"><stop offset="0" stop-color="#EFEEEC"/><stop offset="1" stop-color="#ACB6BE"/></radialGradient><path fill="url(#e)" d="M14.9 158.15l-.34.12.48 19.8 1-.03s-.45-18.4-.46-19.1c.62-.23 13.46-5.22 13.46-5.22l-.36-.93-13.8 5.35z"/></g><g transform="matrix(1.065 0 0 1.065 -1.936 -142.707)"><radialGradient cx="13.48" cy="157.602" r="13.858" gradientUnits="userSpaceOnUse" fy="157.602" fx="13.48"><stop offset="0" stop-color="#BAD1D7"/><stop offset="1" stop-color="#8794A0"/></radialGradient><path fill="url(#f)" d="M15.07 158.6L2.2 149.77" enable-background="new"/><radialGradient cx="15.067" cy="158.611" r="20.427" gradientUnits="userSpaceOnUse" fy="158.611" fx="15.067"><stop offset="0" stop-color="#EFEEEC"/><stop offset="1" stop-color="#ACB6BE"/></radialGradient><path fill="url(#g)" d="M1.9 150.17l12.88 8.85.57-.82-12.88-8.85-.56.82z"/></g><path fill="none" stroke="#e8eced" d="M14.97 12.1c-1.4 4.55 4.8 7.47 14.32 8.2"/><path fill="none" stroke="#192333" stroke-width=".8" d="M32.65 34.86c8.35-.98 14.84-8.1 14.84-16.73 0-9.3-7.54-16.84-16.83-16.84-7.16 0-13.27 4.48-15.7 10.8L.4 16.76l1.5 19.3L14.6 46.9l17.9-8.7.2-4.1"/><path fill="none" stroke="#828d99" d="M29 20.25c-1.87 3.44-3.33 11.78 3.34 13.82"/><g transform="matrix(1.065 0 0 1.065 -1.936 -142.707)"><radialGradient cx="362.289" cy="154.609" r="17.379" fx="362.289" fy="154.609" gradientTransform="matrix(-1.018 0 0 1.02 394.899 -12.724)" gradientUnits="userSpaceOnUse"><stop offset="0" stop-color="#fff"/><stop offset="1" stop-color="#8794A0"/></radialGradient><circle cx="30.625" cy="151.043" r="15.789" fill="url(#a)"/></g><path fill="url(#b)" d="M.4 16.76L15 12.08c-1.38 4.56 4.8 7.47 14.33 8.2l-15.22 5.9L.4 16.77z"/><path fill="url(#c)" d="M15.07 158.6L2.2 149.77l1.4 18.12 11.93 10.17-.46-19.44z" transform="matrix(1.065 0 0 1.065 -1.936 -142.707)"/><path fill="url(#d)" d="M29.33 20.28C27.48 23.72 26 32.06 32.7 34.1l-.2 4.1-17.9 8.7-.5-20.7 15.23-5.92z"/><g transform="matrix(1.065 0 0 1.065 -1.936 -142.707)"><radialGradient cx="15.051" cy="158.76" r="20.073" fx="15.051" fy="158.76" gradientUnits="userSpaceOnUse"><stop offset="0" stop-color="#EFEEEC"/><stop offset="1" stop-color="#ACB6BE"/></radialGradient><path fill="url(#e)" d="M14.9 158.15l-.34.12.48 19.8 1-.03s-.45-18.4-.46-19.1c.62-.23 13.46-5.22 13.46-5.22l-.36-.93-13.8 5.35z"/></g><g transform="matrix(1.065 0 0 1.065 -1.936 -142.707)"><radialGradient cx="13.48" cy="157.602" r="13.858" fx="13.48" fy="157.602" gradientUnits="userSpaceOnUse"><stop offset="0" stop-color="#BAD1D7"/><stop offset="1" stop-color="#8794A0"/></radialGradient><path fill="url(#f)" d="M15.07 158.6L2.2 149.77" enable-background="new"/><radialGradient cx="15.067" cy="158.611" r="20.427" fx="15.067" fy="158.611" gradientUnits="userSpaceOnUse"><stop offset="0" stop-color="#EFEEEC"/><stop offset="1" stop-color="#ACB6BE"/></radialGradient><path fill="url(#g)" d="M1.9 150.17l12.88 8.85.57-.82-12.88-8.85-.56.82z"/></g><path fill="none" stroke="#e8eced" d="M14.97 12.1c-1.4 4.55 4.8 7.47 14.32 8.2"/><path fill="none" stroke="#192333" stroke-width=".8" d="M32.65 34.86c8.35-.98 14.84-8.1 14.84-16.73 0-9.3-7.54-16.84-16.83-16.84-7.16 0-13.27 4.48-15.7 10.8L.4 16.76l1.5 19.3L14.6 46.9l17.9-8.7.2-4.1"/><path fill="none" stroke="#828d99" d="M29 20.25c-1.87 3.44-3.33 11.78 3.34 13.82"/></g></svg>