<svg xmlns="http://www.w3.org/2000/svg" width="48" height="48" xmlns:xlink="http://www.w3.org/1999/xlink"><defs><linearGradient id="d"><stop offset="0" stop-color="#ff1919"/><stop offset="1" stop-color="#a40000"/></linearGradient><linearGradient x1="23.775" x2="23.775" y1="202.3" y2="158.049" gradientUnits="userSpaceOnUse" gradientTransform="translate(-.917 -161.66)"><stop offset="0" stop-color="#E96712"/><stop offset=".648" stop-color="#D4290C"/><stop offset="1" stop-color="#CB1009"/></linearGradient><linearGradient x1="17.424" x2="46.846" y1="20.086" y2="20.086" gradientUnits="userSpaceOnUse" gradientTransform="matrix(.767 0 0 .761 6.565 11.12)"><stop offset="0" stop-color="#fff"/><stop offset="1" stop-color="#B4D8E9"/></linearGradient><radialGradient id="c" cx="294.624" cy="80.627" r="48.777" gradientUnits="userSpaceOnUse" fy="80.627" fx="294.624"><stop offset="0" stop-color="#ebebeb"/><stop offset="1" stop-color="#c5c5c5"/></radialGradient><linearGradient id="a"><stop offset="0" stop-color="#fff"/><stop offset="1" stop-color="#eeeeec" stop-opacity="0"/></linearGradient><linearGradient id="g" x1="14.107" x2="39.69" y1="4.772" y2="43.606" xlink:href="#a" gradientUnits="userSpaceOnUse" gradientTransform="matrix(1.058 0 0 1.058 -.956 -.907)"/><linearGradient id="b"><stop offset="0" stop-color="#f0f0f0"/><stop offset="1" stop-color="#f0f0f0" stop-opacity="0"/></linearGradient><linearGradient id="f" x1="16.601" x2="17.363" y1="19.142" y2="45.175" xlink:href="#b" gradientUnits="userSpaceOnUse" gradientTransform="matrix(1.058 0 0 1.058 -.956 -.907)"/><radialGradient id="e" cx="289.834" cy="61.701" r="48.777" xlink:href="#c" gradientUnits="userSpaceOnUse" gradientTransform="matrix(1.014 -.262 .193 .746 -273.565 69.425)" fx="289.834" fy="61.701"/><radialGradient id="h" cx="31.143" cy="31.079" r="8.707" xlink:href="#d" fx="31.143" fy="31.079" gradientTransform="matrix(1.002 -.208 .278 1.335 -8.701 -3.208)" gradientUnits="userSpaceOnUse"/></defs><g><path fill="url(#e)" d="M43.57 37.12L17.7 47.22 5.1 31.33 2.25 6.53 28.14 1l17.95 9.4-2.53 26.74z"/><path fill="#bdbdbd" fill-opacity=".506" fill-rule="evenodd" d="M4.52 31.1l23.12-6.8 15.87 13-25.68 9.82L4.52 31.1z"/><path fill="none" stroke="#f0f0f0" d="M17 18.96l28.03-7.9" stroke-linecap="round"/><path fill="none" stroke="url(#f)" d="M2.94 6.65l14.2 12.2.5 27.5" stroke-linecap="round"/><path fill="none" stroke="url(#g)" stroke-width="1.5" d="M3.2 6.9L28.2 1.68l16.93 9.88-2.5 25.36-24.56 9.4L5.44 30.96 3.2 6.9z"/><path fill="none" stroke="#3f3131" d="M1.93 6.03L28.33.5l17.83 10.42-2.64 26.76-25.88 9.93L4.32 31.4 1.92 6.03z"/><path fill="none" stroke="#fff" d="M28.17 2.6l-.37 22.14" stroke-linecap="round"/><path fill="none" stroke="#fff" d="M5.5 31l22.28-6.2" stroke-linecap="round"/><path fill="none" stroke="#fff" d="M27.7 24.7l14.82 11.8" stroke-linecap="round"/><path fill="#eeeeec" fill-opacity=".37" d="M17.72 47.02L4.85 31.35l-1.1-24.2 13.48 11.76.5 28.12z"/><path fill="#3d3d3d" fill-opacity=".136" d="M42.84 37l-24.87 9.72-.28-27.2 27.76-8.25L42.84 37z"/><path fill="url(#h)" stroke="#eeeeec" d="M31.14 39.4c-2.9.4-8.2-.63-8.2-6.44 0-.57.05-1.25.16-1.98-.1.7 1.72 2.62 1.72 1.53 0-.78-1.22-2.64-1.22-3.83 0-2.28 1.25-2.9 2.32-4.6-.33 1.2-.78 2.88.6 3.7 0 0 1.68-.25 1.9-3.55.2-3.3-2-3.03-2-6.38.77 2.1 6.14 2.23 7.95 6.13 0-.6-.1-2.85-1.33-3.93 1.53.34 3.03 1.3 4.38 3.75.82 1.48.34 3.83 1 4.68.37-.44.3-1.56.46-2.12.3 1.1.47 3.02.47 4.27 0 5.8-5.02 8.32-8.2 8.77z"/></g></svg>