<svg xmlns="http://www.w3.org/2000/svg" width="48" height="48"><defs><radialGradient id="a" cx="26.397" cy="8.814" r="17.804" gradientUnits="userSpaceOnUse" fy="8.814" fx="26.397" gradientTransform="matrix(1.019 0 0 1.019 -3.706 8.636)"><stop offset=".006" stop-color="#FFFDE6"/><stop offset=".091" stop-color="#FAF8E3"/><stop offset=".2" stop-color="#EAEAD9"/><stop offset=".322" stop-color="#D0D3C9"/><stop offset=".451" stop-color="#ACB3B3"/><stop offset=".579" stop-color="#818C99"/><stop offset=".809" stop-color="#98A5B3"/><stop offset="1" stop-color="#E6EBF2"/></radialGradient><linearGradient id="b" x1="42.989" x2="37.845" y1="20.789" y2="13.666" gradientUnits="userSpaceOnUse" gradientTransform="matrix(1.019 0 0 1.019 -3.706 8.636)"><stop offset=".006" stop-color="#7C838C"/><stop offset="1" stop-color="#E6EBF2"/></linearGradient><radialGradient id="c" cx="26.862" cy="31.077" r="23.088" gradientUnits="userSpaceOnUse" fy="31.077" fx="26.862" gradientTransform="matrix(1.019 0 0 1.019 -3.706 8.636)"><stop offset="0" stop-color="#CBCCB2"/><stop offset=".419" stop-color="#EBE18D"/><stop offset="1" stop-color="#9FA9B3"/></radialGradient><radialGradient id="d" cx="29.624" cy="35.636" r="23.465" gradientUnits="userSpaceOnUse" fy="35.636" fx="29.624" gradientTransform="matrix(1.019 0 0 1.019 -3.706 8.636)"><stop offset=".006" stop-color="#FFF8BF"/><stop offset=".137" stop-color="#FCF7C4"/><stop offset=".302" stop-color="#F5F3D4"/><stop offset=".487" stop-color="#E8ECEE"/><stop offset=".511" stop-color="#E6EBF2"/><stop offset=".753" stop-color="#EBE18D"/><stop offset=".893" stop-color="#C5C6AD"/></radialGradient><linearGradient id="e" x1="10.688" x2="46.388" y1="33.516" y2="30.187" gradientUnits="userSpaceOnUse" gradientTransform="matrix(1.019 0 0 1.019 -3.706 8.636)"><stop offset="0" stop-color="#8893A0"/><stop offset=".213" stop-color="#DBE7F2"/><stop offset=".296" stop-color="#D6E2ED"/><stop offset=".401" stop-color="#C6D2DD"/><stop offset=".518" stop-color="#ACB8C4"/><stop offset=".643" stop-color="#8994A1"/><stop offset=".646" stop-color="#8893A0"/><stop offset=".803" stop-color="#8893A0"/><stop offset="1" stop-color="#ACB4BF"/></linearGradient><linearGradient id="f" x1="4.983" x2="49.483" y1="24.568" y2="24.568" gradientUnits="userSpaceOnUse" gradientTransform="matrix(1.019 0 0 1.019 -3.706 8.636)"><stop offset="0" stop-color="#6C7580"/><stop offset=".213" stop-color="#ADB6BF"/><stop offset=".34" stop-color="#A8B1BA"/><stop offset=".5" stop-color="#98A1AB"/><stop offset=".678" stop-color="#7E8893"/><stop offset=".719" stop-color="#77818C"/><stop offset=".803" stop-color="#77818C"/><stop offset="1" stop-color="#ACB4BF"/></linearGradient><linearGradient id="g" x1="7.376" x2="47.486" y1="26.399" y2="10.408" gradientUnits="userSpaceOnUse"><stop offset="0" stop-color="#6C7580"/><stop offset=".213" stop-color="#fff"/><stop offset=".286" stop-color="#FAFAFA"/><stop offset=".378" stop-color="#EAEBED"/><stop offset=".48" stop-color="#D0D3D7"/><stop offset=".589" stop-color="#ACB2B8"/><stop offset=".704" stop-color="#7E8792"/><stop offset=".719" stop-color="#77818C"/><stop offset=".803" stop-color="#77818C"/><stop offset="1" stop-color="#C4CCD9"/></linearGradient><radialGradient id="h" cx="26.027" cy="1132.491" r="9.209" gradientUnits="userSpaceOnUse" gradientTransform="matrix(1 0 0 1.195 0 -1342.658)" fy="1132.491" fx="26.027"><stop offset=".09" stop-color="#F6E94E"/><stop offset="1" stop-color="#fff"/></radialGradient><radialGradient id="i" cx="25.813" cy="20.469" r="14.65" gradientUnits="userSpaceOnUse" fy="20.469" fx="25.813" gradientTransform="matrix(1.293 0 0 1.29 -10.841 2.217)"><stop offset=".101" stop-color="#CCAC7B"/><stop offset=".343" stop-color="#BFB560"/><stop offset=".601" stop-color="#FFF499"/><stop offset=".634" stop-color="#FFF5A4"/><stop offset=".693" stop-color="#FFF8C3"/><stop offset=".77" stop-color="#FFFEF3"/><stop offset=".786" stop-color="#fff"/></radialGradient><radialGradient id="j" cx="25.891" cy="15.639" r="5.912" gradientUnits="userSpaceOnUse" fy="15.639" fx="25.891" gradientTransform="matrix(1.293 0 0 1.29 -10.841 2.217)"><stop offset="0" stop-color="#99815C"/><stop offset=".416" stop-color="#6C3700"/><stop offset=".562" stop-color="#6C3700"/><stop offset=".719" stop-color="#BFB560"/><stop offset=".86" stop-color="#FFF499"/><stop offset=".884" stop-color="#FFF5A4"/><stop offset=".929" stop-color="#FFF8C3"/><stop offset=".987" stop-color="#FFFEF3"/><stop offset="1" stop-color="#fff"/></radialGradient></defs><g><path fill="none" stroke="#6c7580" stroke-width="1.5" d="M47.2 26v-.7c.1-5.83-10.55-10.06-22.96-9.23-13.1.87-23.5 6.62-23.5 12.46 0 .37.06 1.24.14 1.6l.84 2.15c.5 2.02 2.06 3.9 4.4 5.4l.84 2.75c1.34 4.25 9 7.5 18.08 6.7 9.54-.85 17.6-5.45 18.3-10.1l.6-3.7c1.56-1.6 2.5-3.3 2.67-5.04l.6-2.3z"/><path fill="none" stroke="#6c7580" stroke-width="1.5" d="M46.7 25.8c.1-5.83-10.05-10.06-22.46-9.23-13.1.87-23 6.62-23 12.46"/><path fill="url(#a)" d="M20.17 20.2c1.3-.22 2.67-.4 4.1-.5.92-.05 1.82-.08 2.7-.07 9 0 14.08 5.52 14 9.78 0 .3 1.57-1.3 1.5-1 .7-.7 1.13-2.2 1.13-3.07.08-4.9-8.7-8.47-19.44-7.77C12.84 18.28 4.26 23.1 4.28 28c0 1.43.75 2.78 2.08 3.96-.48-.74-.74-1.53-.74-2.35 0-4 6.02-7.93 14.55-9.4z"/><path fill="url(#b)" d="M26.98 19.63c8.4.07 14.85 3.16 14.78 7.28 0 1.35-.7 2.7-1.94 3.96 0 .04-.02.08-.04.1 1.32-.94 2.35-1.96 3-3.02.06-.3.1-.58.1-.87.07-4.25-6.9-7.44-15.9-7.44z"/><path fill="#babdb6" d="M6.36 29.4c0-3.9 5.7-7.76 13.8-9.2-8.52 1.47-14.55 5.4-14.54 9.4 0 .83.26 1.62.74 2.36.73.65 1.63 1.25 2.67 1.77C7.33 32.5 6.36 31 6.36 29.4z"/><path fill="url(#c)" d="M9.07 32.03c0-3.98 6.74-7.9 15.64-8.48 8.45-.56 15.36 2.3 15.3 6.3 0 .33-.08.67-.18 1 1.24-1.25 1.94-2.6 1.94-3.94.07-4.1-6.4-7.2-14.78-7.27-.83 0-1.67.03-2.52.08-1.5.1-2.92.28-4.3.5-8.1 1.44-13.8 5.3-13.8 9.22 0 1.6.98 3.08 2.67 4.32.22.1.45.22.7.33-.42-.65-.66-1.34-.66-2.04z"/><path fill="url(#d)" d="M24.7 23.55c-8.9.6-15.63 4.5-15.63 8.48 0 .7.24 1.4.65 2.04 3.6 1.62 8.65 2.5 14.2 2.04 6.27-.5 11.95-2.43 15.58-4.92.1-.1.2-.2.32-.32.1-.34.17-.68.17-1.02.06-3.98-6.85-6.85-15.3-6.3z"/><path fill="url(#e)" d="M43.95 33.34l-.62 3.7v-.02c-.7 4.66-8.75 9.26-18.3 10.1-9.05.8-16.73-2.44-18.07-6.7l-.84-2.74c4.1 2.64 10.6 4.2 17.84 3.6 8.54-.7 16.13-3.95 20-7.94"/><path fill="url(#f)" d="M46.7 26l-.08 2.3c-.57 6.02-10.7 11.98-22.66 12.97-11.36.94-20.9-3.43-22.24-8.98v-.02l-.34-2.13v-.04c1.17 5.35 10.95 9.53 22.56 8.56 12.3-1.04 22.62-6.93 22.76-12.73V26z"/><path fill="none" stroke="#efeeec" stroke-width=".5" d="M43.6 25.33c0 4.9-8.96 9.9-19.68 10.78C13.2 37 4.28 32.9 4.28 28c0-4.9 8.56-9.72 19.88-10.44 10.74-.7 19.52 2.86 19.43 7.77z"/><g><path fill="none" stroke="#e6edf2" stroke-width="1.00164" d="M24.24 16.57c-13.1.87-23 6.62-23 12.46.02 5.83 10.3 10.67 22.7 9.63 12.4-1.04 22.77-7 22.76-12.85.1-5.83-10.05-10.06-22.46-9.23z"/></g><g transform="matrix(1.019 0 0 1.019 -3.706 8.636)"><linearGradient x1="7.376" x2="47.486" y1="26.399" y2="10.408" gradientUnits="userSpaceOnUse"><stop offset="0" stop-color="#6C7580"/><stop offset=".213" stop-color="#fff"/><stop offset=".286" stop-color="#FAFAFA"/><stop offset=".378" stop-color="#EAEBED"/><stop offset=".48" stop-color="#D0D3D7"/><stop offset=".589" stop-color="#ACB2B8"/><stop offset=".704" stop-color="#7E8792"/><stop offset=".719" stop-color="#77818C"/><stop offset=".803" stop-color="#77818C"/><stop offset="1" stop-color="#C4CCD9"/></linearGradient><path fill="url(#g)" d="M27.44 7.8C14.6 8.63 4.87 14.27 4.87 20c0 5.75 10.1 10.5 22.27 9.47 12.17-1.02 22.35-6.88 22.35-12.6.1-5.75-9.88-9.9-22.06-9.08zm-.32 19.17c-10.53.85-19.28-3.14-19.28-7.95 0-4.82 8.4-9.55 19.5-10.26 10.56-.68 19.18 2.8 19.1 7.63 0 4.8-8.8 9.72-19.32 10.57z"/></g><ellipse cx="26.027" cy="11.008" fill="url(#h)" transform="matrix(1.293 0 0 1.29 -10.841 2.217)" ry="11.008" rx="9.209" opacity=".8"/><path fill="none" stroke="#fff" d="M19.47 18.74c0 5.03.9 10.92 3.44 10.92 1.16 0 2.05-1.16 2.65-3.43.52-1.93.8-4.6.8-7.5 0-5.88-2.03-9.65-3.44-9.65-1.4 0-3.43 3.76-3.43 9.66z" opacity=".5"/><path fill="url(#i)" d="M22.9 29c1.66 0 2.8-4.43 2.8-10.26 0-5.84-2.03-9-2.8-9-.75 0-2.78 3.16-2.78 9 0 5.83 1.14 10.27 2.8 10.27z"/><path fill="url(#j)" d="M22.8 22.5c.24.05.44 1.2.36 1.7-.24 1.52.47 4.3.3 5.83-.03.42-.77.45-.82 0 0 0-.1-.76-.1-1.4 0-.63-.33-3.17-.26-4.44.03-.64.3-1.73.53-1.7z"/></g></svg>