<svg xmlns="http://www.w3.org/2000/svg" width="48" height="48"><g fill="none"><path stroke="#77ace6" stroke-width=".75" d="M5 31.4l22.3-6.67"/><path stroke="#77ace6" stroke-width=".75" d="M28 1.4l-.7 23.33"/><path stroke="#77ace6" stroke-width=".75" d="M42.7 37.04l-15.4-12.3"/><path stroke="#77ace6" stroke-width=".75" d="M2.88 6.84L28 1.4l17.14 9.88-2.44 25.76-24.92 9.75-12.8-15.4L2.9 6.84z"/><path stroke="#77ace6" stroke-width=".75" d="M2.88 6.84l13.94 12.38.96 27.57"/><g stroke="#d3d7cf" stroke-width="2" transform="translate(.962 -165.891)"><path d="M22.33 190.4v2.18"/><path d="M22.33 183.84v2.2"/><path d="M26.7 188.2h-2.2"/><path d="M20.14 188.2h-2.18"/><circle cx="22.329" cy="188.212" r="2.184"/></g><g stroke="#ed2728" transform="translate(.962 -165.891)"><path d="M22.33 190.4v2.18"/><path d="M22.33 183.84v2.2"/><path d="M26.7 188.2h-2.2"/><path d="M20.14 188.2h-2.18"/><circle cx="22.329" cy="188.212" r="2.184"/></g><path stroke="#77ace6" stroke-width=".75" d="M16.82 19.22l28.3-7.94"/><g stroke="#cb1009" stroke-width="2.062"><path d="M4.6 27.08L5 31.4l2.13 2.56"/><path d="M15.1 43.57l2.68 3.22 4.25-1.67"/><path d="M38.85 38.55l3.85-1.5.38-4.04"/><path d="M44.7 16.02l.44-4.74L41.2 9"/><path d="M30.84 3.03L28 1.4l-3.95.85"/><path d="M7.52 5.83l-4.65 1 .4 4.48"/><path d="M13.98 16.7l2.84 2.52 4.82-1.35"/><path d="M17 24.5l-.18-5.28"/><path d="M17.62 42.26l.16 4.53"/><path d="M2.87 6.84L5.42 9.1"/></g></g></svg>