<svg xmlns="http://www.w3.org/2000/svg" width="48" height="48" xmlns:xlink="http://www.w3.org/1999/xlink"><defs><linearGradient id="k"><stop offset="0" stop-color="#fff"/><stop offset="1" stop-color="#fff" stop-opacity="0"/></linearGradient><linearGradient id="i"><stop offset="0" stop-color="#2e3436"/><stop offset="1"/></linearGradient><linearGradient id="g"><stop offset="0" stop-color="#eeeeec"/><stop offset="1" stop-color="#eeeeec" stop-opacity="0"/></linearGradient><linearGradient id="j"><stop offset="0" stop-color="#2e3436"/><stop offset="1" stop-color="#2e3436" stop-opacity="0"/></linearGradient><linearGradient id="h"><stop offset="0"/><stop offset="1" stop-opacity="0"/></linearGradient><linearGradient id="a"><stop offset="0" stop-color="#b30000"/><stop offset=".5" stop-color="#ff5c5c"/><stop offset="1" stop-color="#c30000"/></linearGradient><linearGradient id="z" x1="10.615" x2="2.007" y1="28.123" y2="27.235" xlink:href="#a" gradientUnits="userSpaceOnUse" gradientTransform="matrix(1.177 0 0 1.177 -.162 -5.875)"/><linearGradient id="b"><stop offset="0" stop-color="#dac203"/><stop offset=".5" stop-color="#fdec69"/><stop offset="1" stop-color="#fdef7e"/></linearGradient><linearGradient id="y" x1="11.997" x2="17.774" y1="19.592" y2="16.235" xlink:href="#b" gradientUnits="userSpaceOnUse" gradientTransform="matrix(1.015 0 0 1.006 -.046 -.961)"/><linearGradient id="x" x1="16.929" x2="14.045" y1="34.011" y2="29" xlink:href="#c" gradientUnits="userSpaceOnUse" gradientTransform="matrix(.866 -.5 .861 1.492 -17.594 -14.731)"/><linearGradient id="w" x1="14.045" x2="14.045" y1="37.576" y2="29" xlink:href="#c" gradientUnits="userSpaceOnUse" gradientTransform="matrix(.866 -.5 .801 1.388 -12.533 -11.965)"/><linearGradient id="v" x1="15.097" x2="14.045" y1="36.968" y2="29" xlink:href="#c" gradientUnits="userSpaceOnUse" gradientTransform="matrix(.866 -.5 .843 1.461 -19.455 -11.955)"/><linearGradient id="u" x1="19.616" x2="18.486" y1="39.253" y2="29.909" xlink:href="#c" gradientUnits="userSpaceOnUse" gradientTransform="matrix(.866 -.5 .798 1.382 -15.444 -10.098)"/><linearGradient id="c"><stop offset="0" stop-color="#c4a000"/><stop offset="1" stop-color="#c4a000" stop-opacity="0"/></linearGradient><linearGradient id="t" x1="9.105" x2="10.147" y1="38.828" y2="30.141" xlink:href="#c" gradientUnits="userSpaceOnUse" gradientTransform="matrix(.866 -.5 .797 1.381 -15.413 -10.046)"/><linearGradient id="d"><stop offset="0" stop-color="#fef088"/><stop offset=".5" stop-color="#fde63a"/><stop offset="1" stop-color="#dac203"/></linearGradient><radialGradient id="s" cx="20.764" cy="19.541" r="14.8" xlink:href="#d" fx="20.764" fy="19.541" gradientTransform="matrix(.449 -.216 .564 1.172 -1.147 1.725)" gradientUnits="userSpaceOnUse"/><linearGradient id="e"><stop offset="0" stop-color="#fff"/><stop offset="1" stop-color="#fff" stop-opacity="0"/></linearGradient><linearGradient id="m" x1="9.562" x2="14.767" y1="6.953" y2="14.2" xlink:href="#e" gradientUnits="userSpaceOnUse" gradientTransform="translate(.286 -.821)"/><linearGradient id="f"><stop offset="0" stop-color="#c17d10"/><stop offset="1" stop-color="#9b650c"/></linearGradient><linearGradient id="l" x1="12.233" x2="16.871" y1="12.363" y2="17.111" xlink:href="#f" gradientUnits="userSpaceOnUse" gradientTransform="matrix(.966 .262 -.259 .978 3.243 -6.76)"/><linearGradient><stop offset="0"/><stop offset="1" stop-opacity="0"/></linearGradient><linearGradient x1="23.357" x2="36.571" y1="41.357" y2="41" xlink:href="#g" gradientUnits="userSpaceOnUse"/><linearGradient x1="20.357" x2="42.143" y1="38" y2="38" xlink:href="#h" gradientUnits="userSpaceOnUse"/><radialGradient cx="13.535" cy="30.502" r="7.822" xlink:href="#i" gradientUnits="userSpaceOnUse" gradientTransform="matrix(1.475 .011 -.009 1.175 -6.166 -3.815)" fx="13.535" fy="30.502"/><linearGradient x1="25.874" x2="35.463" y1="40.107" y2="37.321" xlink:href="#j" gradientUnits="userSpaceOnUse"/><linearGradient x1="33.071" x2="44.571" y1="37.929" y2="37.929" xlink:href="#k" gradientUnits="userSpaceOnUse"/><linearGradient id="r" x1="33.071" x2="44.571" y1="37.929" y2="37.929" xlink:href="#k" gradientUnits="userSpaceOnUse" gradientTransform="matrix(1 0 0 1.125 0 -6)"/><linearGradient id="q" x1="25.874" x2="36.32" y1="40.107" y2="36.929" xlink:href="#j" gradientUnits="userSpaceOnUse" gradientTransform="matrix(1 0 0 1.125 0 -6)"/><radialGradient id="p" cx="13.535" cy="30.502" r="7.822" xlink:href="#i" gradientUnits="userSpaceOnUse" gradientTransform="matrix(1.475 .012 -.009 1.322 -6.166 -10.292)" fx="13.535" fy="30.502"/><linearGradient id="n" x1="23.357" x2="36.571" y1="41.357" y2="41" xlink:href="#g" gradientUnits="userSpaceOnUse" gradientTransform="matrix(1 0 0 1.125 0 -6)"/><linearGradient id="o" x1="20.357" x2="42.143" y1="38" y2="38" xlink:href="#h" gradientUnits="userSpaceOnUse" gradientTransform="matrix(1 0 0 1.125 0 -6)"/></defs><g><path fill="url(#l)" fill-rule="evenodd" stroke="#8f5902" stroke-width="1.006" d="M7.2.96c1.73-.88 4.13 0 5 1.55L16.4 12c.9 1.55.64 3.37-.56 4.07-1.2.7-2.88 0-3.77-1.54l-5.9-8.35C5.24 4.62 5.5 1.82 7.2.96z" stroke-linecap="round"/><path fill="none" stroke="url(#m)" stroke-width="1.006" d="M7.73 1.92c1.42-.8 2.82-.2 3.7 1.33l4.45 10.1-2.44 1.4-6.3-8.8c-.87-1.54-.87-3.23.6-4.03z" opacity=".423" stroke-linecap="round"/><path fill="url(#n)" fill-rule="evenodd" stroke="url(#o)" stroke-width="2" d="M1 46.87l7.24-19.82 30.63-.07L47 46.88H1z" stroke-linejoin="bevel"/><path fill="url(#p)" fill-rule="evenodd" d="M8.87 28.07l14.06-.4.07 9.3H5.64l3.23-8.9z"/><path fill="url(#q)" fill-rule="evenodd" d="M41.2 35.63l-18.2-.1v10.22h22.18L41.2 35.62z"/><path fill="none" stroke="url(#r)" stroke-opacity=".502" d="M3.5 45.2l5.8-16.62 24.64-.43L44.07 45.2H3.5z"/><path fill="url(#s)" fill-rule="evenodd" stroke="#c4a000" d="M15.07 21.97c-.8 4.3.63 13.96 6.26 19.7 4.34.14 14-3.42 20.53-10.2-9.24-4.52-15.54-15.72-20.44-13.28l-6.35 3.77z"/><path fill="none" stroke="url(#t)" d="M16.62 23.55c2.35 6.27 2.5 12.78 7.2 17.92" stroke-linecap="round"/><path fill="none" stroke="#fff" d="M16.2 22.6c-.9.5-.16 12.5 5.6 18 7.37-.2 15.5-6.4 18.38-8.84-9.5-6-14.92-14.77-18.48-12.58l-5.5 3.4z" opacity=".462"/><path fill="none" stroke="url(#u)" d="M24.13 21.45c.87-.75 5.75 6.1 15 12.38" stroke-linecap="round"/><path fill="none" stroke="url(#v)" d="M18.3 22.04c3.7 5.35 2.96 12.43 8.84 18.08" stroke-linecap="round"/><path fill="none" stroke="url(#w)" d="M23.27 21.96s8.18 13.07 11.18 15.1" stroke-linecap="round"/><path fill="none" stroke="url(#x)" d="M19.6 21.38c3.43 2.92 8.7 14.16 11.3 17.48" stroke-linecap="round"/><path fill="url(#y)" fill-rule="evenodd" stroke="#c4a000" stroke-width="1.01" d="M8.8 17.24l11.46-6.56c.6 2.38-.35 3.24 1.8 7.15l-7.92 4.53c-1.45-3.48-3.56-3.4-5.35-5.12z" stroke-linecap="round" stroke-linejoin="round"/><path fill="none" stroke="#fff" d="M14.33 20.43c-.8-1.43-2.56-2.24-3.68-3.13l8.76-4.94c0 1.5.57 3.1.88 4.52l-5.95 3.55z" opacity=".247"/><rect width="13.015" height="3.46" x="-.755" y="23.607" fill="url(#z)" fill-rule="evenodd" stroke="#690000" rx="1" stroke-linecap="round" transform="rotate(-30.003)" ry="1"/><path fill="#fff" fill-rule="evenodd" stroke="#8f5902" stroke-width=".6.655" d="M10.08 4.04a1.3 1.3 15 1 1-2.5-.68 1.3 1.3 15 1 1 2.5.68z" stroke-linecap="round" stroke-linejoin="round"/><path fill="#fff" fill-rule="evenodd" d="M28.02 39.73s1.5-.5 2.18-.94c-1.24-1.95-3.4-5.9-5.4-8.88 1.2 6.54 3.22 9.8 3.22 9.8z" opacity=".317"/><path fill="#fff" fill-rule="evenodd" d="M31.43 38.24l2.02-1.1C31.5 35.3 26 27.05 26 27.05l5.43 11.2z" opacity=".317"/><path fill="#fff" fill-rule="evenodd" d="M35.94 35.57l2.44-1.75c-3.18-1.32-11.6-9.88-11.6-9.88 2.4 3 6.78 8.62 9.16 11.63z" opacity=".317"/><path fill="#fff" fill-rule="evenodd" d="M39.44 33.1l1.7-1.4c-3.32-1.52-12.5-9.92-12.5-9.92s6.07 9.2 10.8 11.32z" opacity=".317"/><path fill="#fff" fill-rule="evenodd" d="M24.66 40.75s1.2-.28 2.05-.45c-1.45-1.24-3.8-4.44-5.1-8.62.54 6.9 3.06 9.07 3.06 9.07z" opacity=".317"/><path fill="#fff" fill-rule="evenodd" d="M21.66 41.15s1.24 0 1.24 0c-2.3-2.53-3.13-5.38-4.43-9.42-.13 4.68 3.2 9.42 3.2 9.42z" opacity=".317"/></g></svg>