<svg xmlns="http://www.w3.org/2000/svg" width="48" height="48" xmlns:xlink="http://www.w3.org/1999/xlink" version="1" viewBox="0 0 612 792" enable-background="new 0 0 612 792"><defs><linearGradient id="g" x1="242.294" x2="275.039" y1="305.3" y2="335.084" xlink:href="#a" gradientUnits="userSpaceOnUse"/><radialGradient id="h" cx="254.306" cy="323.275" r="42.03" xlink:href="#b" gradientUnits="userSpaceOnUse" gradientTransform="matrix(1 0 0 1.026 0 -11.091)"/><radialGradient id="i" cx="260.765" cy="324.567" r="38.936" xlink:href="#c" gradientUnits="userSpaceOnUse" gradientTransform="matrix(1 0 0 1.026 0 -11.091)"/><linearGradient id="j" x1="244.015" x2="278.474" y1="320.422" y2="320.422" xlink:href="#d" gradientUnits="userSpaceOnUse"/><radialGradient id="k" cx="263.129" cy="333.601" r="28.975" xlink:href="#e" gradientUnits="userSpaceOnUse" gradientTransform="matrix(1 0 0 .205 0 262.676)"/><radialGradient id="l" cx="258.095" cy="329.476" r="24.588" xlink:href="#f" gradientUnits="userSpaceOnUse" gradientTransform="matrix(1 0 0 1.026 0 -11.091)"/></defs><g transform="matrix(16.892 0 0 16.892 -4053.919 -4902.143)"><path fill="none" stroke="#007ea6" stroke-miterlimit="10" d="M271.18 333.3c-.92 0-2-.02-3.25-.06-.16 0-.35-.05-.72-.15-.65-.2-1.74-.47-3.44-.73-1.52-.1-2.86-.13-3.94-.13-2.36 0-3.07.2-3.6.38-.34.1-.68.2-1.28.2-.36 0-.8-.03-1.4-.1-2.28-.32-3.76-.35-5.6-.35h-4.86s.07-.73.07-.8h-7.84l.06-.68c0-.05.08-1 .4-2.16.7-2.56 1.86-3.87 3.5-3.87.36 0 .75.08 1.15.22.36.1.65.17.88.17.14 0 .25-.02.32-.06-.03-.02-.1-.32-.14-.53-.13-.63-.3-1.5.3-2.18.14-.22.25-.3.4-.4.57-.4 1.13-.92.98-1.78-.04-.28-.12-.57-.2-.86-.07-.34-.16-.7-.22-1.04-.16-.9-.75-1.98-1.3-3.03-1.07-1.96-2.17-3.97-.93-5.5.24-.3.5-.77.76-1.26.7-1.26 1.54-2.83 3.06-2.86.44 0 .9.04 1.34.18-.04-.2-.08-.43-.12-.63-.36-1.96-.6-3.53-.1-4.38.47-.77 2.7-2.05 4.23-2.05.46 0 .85.1 1.18.3.07-.1.15-.24.22-.36.43-.74 1.14-1.98 2.46-1.98.57 0 1.18.24 1.8.72.86.65 1.32.8 1.55.8.34 0 .56-.45.94-1.37.56-1.35 1.4-3.4 4.15-3.4.17 0 .34 0 .52.03 0 0 0 0 .02 0 .98 0 2.8.14 3.58 1.07.13.15 2.4 3.4 3.02 4.97.24-.02.53-.05.86-.05.85 0 1.54.2 2.1.63 1.68 1.27 1.87 2.86 2.03 4.13.05.35.1.7.16 1.02.42 1.9 1.22 3.12 2.15 4.5.76 1.14 1.62 2.43 2.32 4.26 1.2 3.08.72 3.92-.18 4.94-.56.62-1.18 1.32-1.06 3.82.06.42 1.1 2.44 1.78 3.77 1.82 3.54 2 4.06 1.72 4.55l-.18.3-.4.03h-1.38c0 .17-.03.32-.1.44l-.14.25-.32.1c-.33.07-.6.15-.88.24-1.02.33-2.18.7-6.4.7z"/><path fill="none" stroke="#e5f4f8" stroke-width=".8" d="M243.9 330.94c-.1.47-.14.8-.14.8.78 0 1.56 0 2.33 0 2.98 0 4.63-.06 7.52.34 3.76.5.45-.92 10.23-.34 2.56.38 3.8.86 4.1.86 8.53.27 8.58-.47 10.38-.86.12-.03.08-.35-.07-.8.96 0 1.7 0 2.14 0 .63 0-3.5-6.94-3.54-8-.3-5.88 3.4-3 1.28-8.55-1.5-3.93-3.7-5.17-4.5-8.86-.32-1.53-.05-3.34-1.93-4.78-1.26-.96-3.06-.2-3.06-.5 0-.73-2.68-4.75-3-5.14-.7-.8-2.62-.86-3.2-.86-5.53-.48-2.84 7.35-7.48 3.83-2.45-1.87-3.2 1.18-3.78 1.7-.18.15-.34.18-.57 0-1.25-.93-4.23.84-4.62 1.5-.82 1.36 1.22 6.9.02 5.6-.36-.4-1.05-.5-1.67-.5-1.66.05-2.42 2.74-3.36 3.9-1.56 1.93 1.9 5.37 2.36 8 .12.67.32 1.3.43 1.9.3 1.67-1.33 2.42-1.4 2.54-.04.07-.08.13-.13.2-.77.82.4 2.33-.3 2.8-.32.22-.86.26-1.72-.05-2.35-.84-3.36 1.4-3.84 3.2-.3 1.1-.37 2.04-.37 2.04 1 0 1.98 0 2.98 0 2.12 0 3.53 0 4.93 0z"/><linearGradient id="a" x1="242.294" x2="275.039" y1="305.3" y2="335.084" gradientUnits="userSpaceOnUse"><stop offset="0" stop-color="#fff"/><stop offset="1" stop-color="#91D9F8"/></linearGradient><path fill="url(#g)" d="M236.05 330.92c1 0 2 0 2.98 0 3.8 0 5 0 8.8 0 4.85 0 9.7 0 14.54 0 0 0 1.4 0 1.78 0 .98 0 13.7 0 16.1 0 .62 0-3.48-6.93-3.53-7.98-.3-5.88 3.4-3 1.27-8.55-1.5-3.9-3.68-5.15-4.47-8.83-.33-1.53-.06-3.34-1.94-4.77-1.27-.96-3.06-.2-3.06-.5 0-.73-2.67-4.74-3-5.13-.67-.8-2.6-.86-3.17-.86-5.5-.46-2.83 7.35-7.44 3.84-2.44-1.86-3.2 1.18-3.77 1.7-.17.15-.34.18-.56 0-1.26-.92-4.22.84-4.6 1.48-.82 1.37 1.2 6.9 0 5.6-.34-.38-1.03-.5-1.65-.48-1.66.03-2.4 2.72-3.34 3.9-1.54 1.9 1.9 5.33 2.36 7.96.1.67.32 1.3.42 1.9.3 1.66-1.32 2.4-1.4 2.53-.03.07-.07.13-.12.2-.76.82.4 2.33-.3 2.8-.32.2-.85.25-1.7-.06-2.35-.83-3.36 1.4-3.85 3.22-.28 1.1-.35 2.02-.35 2.02z"/><radialGradient id="b" cx="254.306" cy="323.275" r="42.03" gradientUnits="userSpaceOnUse" gradientTransform="matrix(1 0 0 1.026 0 -11.091)"><stop offset=".104" stop-color="#1CA2D0"/><stop offset=".509" stop-color="#fff" stop-opacity="0"/></radialGradient><path fill="url(#h)" d="M236.05 330.92c1 0 2 0 2.98 0 3.8 0 5 0 8.8 0 4.85 0 9.7 0 14.54 0 0 0 1.4 0 1.78 0 .98 0 13.7 0 16.1 0 .62 0-3.48-6.93-3.53-7.98-.3-5.88 3.4-3 1.27-8.55-1.5-3.9-3.68-5.15-4.47-8.84-.33-1.52-.06-3.33-1.94-4.76-1.27-.96-3.06-.2-3.06-.5 0-.73-2.67-4.75-3-5.13-.67-.8-2.6-.86-3.17-.86-5.5-.46-2.83 7.35-7.44 3.84-2.44-1.86-3.2 1.18-3.77 1.7-.17.15-.34.18-.56 0-1.26-.92-4.22.84-4.6 1.48-.82 1.37 1.2 6.9 0 5.6-.34-.38-1.03-.5-1.65-.48-1.66.03-2.4 2.72-3.34 3.9-1.54 1.9 1.9 5.33 2.36 7.96.1.67.32 1.3.42 1.9.3 1.66-1.32 2.4-1.4 2.53-.03.07-.07.13-.12.2-.76.82.4 2.33-.3 2.8-.32.2-.85.25-1.7-.06-2.35-.83-3.36 1.4-3.85 3.22-.28 1.1-.35 2.02-.35 2.02z"/><radialGradient id="c" cx="260.765" cy="324.567" r="38.936" gradientUnits="userSpaceOnUse" gradientTransform="matrix(1 0 0 1.026 0 -11.091)"><stop offset=".423" stop-color="#fff" stop-opacity="0"/><stop offset=".834" stop-color="#1CA2D0"/></radialGradient><path fill="url(#i)" d="M236 330.83c1 0 2 0 3 0 3.8 0 4.98 0 8.8 0 4.84 0 9.7 0 14.53 0 0 0 1.4 0 1.77 0 .98 0 13.7 0 16.1 0 .63 0-3.47-6.93-3.52-7.98-.3-5.88 3.4-3 1.27-8.54-1.5-3.9-3.67-5.14-4.46-8.82-.35-1.53-.07-3.34-1.95-4.77-1.26-.95-3.06-.2-3.06-.5 0-.72-2.67-4.73-3-5.12-.67-.8-2.6-.85-3.17-.85-5.5-.48-2.83 7.33-7.45 3.82-2.43-1.86-3.18 1.2-3.76 1.7-.18.15-.34.18-.57 0-1.25-.92-4.2.84-4.6 1.48-.8 1.37 1.22 6.9.02 5.6-.35-.38-1.04-.5-1.66-.48-1.65.04-2.4 2.72-3.34 3.9-1.54 1.9 1.9 5.33 2.35 7.96.13.68.34 1.32.44 1.9.28 1.67-1.33 2.42-1.4 2.54-.03.07-.08.13-.12.2-.77.82.4 2.33-.3 2.8-.32.2-.86.25-1.7-.05-2.36-.84-3.36 1.4-3.85 3.2-.3 1.1-.36 2.03-.36 2.03z"/><g><linearGradient id="d" x1="244.015" x2="278.474" y1="320.422" y2="320.422" gradientUnits="userSpaceOnUse"><stop offset="0" stop-color="#fff"/><stop offset="1" stop-color="#91D9F8"/></linearGradient><path fill="url(#j)" d="M244 331.52c.8 0 1.56 0 2.33 0 2.97 0 4.6-.05 7.5.34 3.74.5.44-.92 10.17-.34 2.55.4 3.8.86 4.08.87 8.5.25 8.54-.5 10.32-.88.48-.1-1.63-4.4-1.98-4.94-2.54-3.8.83-3.9-.82-7.42-1.16-2.5-2.75-1.12-3.37-3.47-.26-.97-.04-2.12-1.5-3.03-.98-.62-2.17-1.1-2.17-1.28 0-.47-1.3-2.4-1.6-2.6-1.76-1.24-2.6.86-3.03.86-4.55-.33-1.1 4.44-4.34 1.86-1.73-1.37-2.2.64-2.62 1.08-.1.1-.2.1-.3 0-.56-.68-2.1-.2-2.9 2.3-.57 1.77 2.7 4.56 1.5 3.37-.37-.34-1.04-.5-1.82-.5-1.28 0-2.84.45-3.57 1.2-1.2 1.2-.55 2.86-.2 4.53.1.43.25.83.33 1.2.22 1.06-1.03 1.54-1.08 1.62-.03.04-.06.08-.1.12-.6.53.3 1.5-.22 1.78-.26.14-.68.16-1.35-.03-1.82-.53-2.6.88-2.98 2.04-.23.7-.3 1.28-.3 1.28z"/><radialGradient id="e" cx="263.129" cy="333.601" r="28.975" gradientUnits="userSpaceOnUse" gradientTransform="matrix(1 0 0 .205 0 262.676)"><stop offset="0" stop-color="#5AB0D1"/><stop offset="1" stop-color="#fff" stop-opacity="0"/></radialGradient><path fill="url(#k)" d="M244 331.53c.77 0 1.55 0 2.32 0 2.97 0 4.6-.06 7.5.33 3.73.5.43-.92 10.16-.33 2.55.38 3.8.85 4.08.86 8.5.25 8.54-.48 10.33-.87.47-.1-1.64-4.42-2-4.95-2.53-3.8.83-3.9-.82-7.42-1.16-2.48-2.74-1.12-3.36-3.46-.26-.97-.05-2.12-1.5-3.03-1-.62-2.17-1.1-2.17-1.28 0-.47-1.3-2.4-1.6-2.6-1.77-1.24-2.6.87-3.04.87-4.53-.34-1.07 4.44-4.33 1.85-1.7-1.37-2.18.64-2.6 1.08-.1.1-.2.1-.3 0-.57-.68-2.1-.2-2.9 2.3-.58 1.78 2.7 4.56 1.48 3.37-.35-.34-1.03-.5-1.8-.5-1.3 0-2.84.45-3.58 1.2-1.2 1.2-.54 2.86-.18 4.53.08.43.24.83.3 1.2.24 1.07-1 1.55-1.07 1.62-.03.05-.06.08-.1.12-.6.53.32 1.5-.22 1.78-.25.14-.67.16-1.34-.03-1.82-.53-2.6.88-2.98 2.04-.22.7-.28 1.3-.28 1.3z"/></g><radialGradient id="f" cx="258.095" cy="329.476" r="24.588" gradientUnits="userSpaceOnUse" gradientTransform="matrix(1 0 0 1.026 0 -11.091)"><stop offset=".423" stop-color="#fff" stop-opacity="0"/><stop offset=".988" stop-color="#278FBA"/></radialGradient><path fill="url(#l)" d="M243.84 331.35c.78 0 1.55 0 2.32 0 2.97 0 4.6-.06 7.5.33 3.73.5.44-.9 10.17-.33 2.54.38 3.8.85 4.07.86 8.5.27 8.54-.46 10.33-.85.48-.1-1.63-4.42-1.98-4.95-2.54-3.8.83-3.9-.82-7.42-1.17-2.48-2.75-1.12-3.37-3.46-.26-.97-.04-2.12-1.5-3.03-1-.62-2.17-1.1-2.17-1.28 0-.47-1.32-2.4-1.6-2.6-1.78-1.24-2.6.87-3.05.87-4.54-.35-1.08 4.43-4.33 1.84-1.72-1.36-2.2.64-2.6 1.08-.1.1-.2.1-.3 0-.57-.68-2.1-.2-2.92 2.3-.56 1.78 2.7 4.56 1.5 3.37-.36-.35-1.04-.5-1.8-.5-1.3 0-2.85.44-3.58 1.18-1.2 1.22-.54 2.87-.2 4.55.1.42.26.82.34 1.2.22 1.06-1.03 1.54-1.08 1.6-.03.06-.07.1-.1.13-.6.53.3 1.5-.23 1.78-.25.14-.67.16-1.34-.03-1.8-.5-2.6.9-2.97 2.06-.23.7-.3 1.3-.3 1.3z"/></g></svg>