<svg xmlns="http://www.w3.org/2000/svg" width="48" height="48" xmlns:xlink="http://www.w3.org/1999/xlink" version="1" viewBox="0 0 612 792" enable-background="new 0 0 612 792"><defs><radialGradient cx="334.965" cy="402.084" r="17.147" xlink:href="#a" gradientUnits="userSpaceOnUse"/><radialGradient cx="334.825" cy="396.366" r="23.366" xlink:href="#b" gradientUnits="userSpaceOnUse" gradientTransform="matrix(.521 -.853 .512 .313 -42.664 558.13)"/><radialGradient cx="332.941" cy="387.478" r="22.413" xlink:href="#c" gradientUnits="userSpaceOnUse"/><radialGradient cx="334.576" cy="389.436" r=".697" xlink:href="#d" gradientUnits="userSpaceOnUse"/><radialGradient id="a" cx="334.965" cy="402.084" r="17.147" gradientUnits="userSpaceOnUse"><stop offset="0" stop-color="#F9A57D"/><stop offset="1" stop-color="#fff" stop-opacity="0"/></radialGradient><radialGradient id="b" cx="334.825" cy="396.366" r="23.366" gradientTransform="matrix(.521 -.853 .512 .313 -42.664 558.13)" gradientUnits="userSpaceOnUse"><stop offset=".203" stop-color="#FFF200"/><stop offset="1" stop-color="#fff" stop-opacity="0"/></radialGradient><radialGradient id="c" cx="332.941" cy="387.478" r="22.413" gradientUnits="userSpaceOnUse"><stop offset=".08" stop-color="#F9A57D" stop-opacity=".8"/><stop offset="1" stop-color="#fff" stop-opacity="0"/></radialGradient><radialGradient id="g" cx="332.941" cy="387.478" r="22.413" xlink:href="#c" gradientUnits="userSpaceOnUse" gradientTransform="matrix(17.226 0 0 17.226 -5437.682 -6533.45)"/><radialGradient id="f" cx="334.825" cy="396.366" r="23.366" xlink:href="#b" gradientUnits="userSpaceOnUse" gradientTransform="matrix(8.98 -14.7 8.82 5.388 -6172.604 3080.73)"/><radialGradient id="e" cx="334.965" cy="402.084" r="17.147" xlink:href="#a" gradientUnits="userSpaceOnUse" gradientTransform="matrix(17.226 0 0 17.226 -5437.682 -6533.45)"/><radialGradient id="h" cx="334.576" cy="389.436" r=".697" xlink:href="#d" gradientUnits="userSpaceOnUse"/></defs><g><path fill="#9a2e34" d="M173.66 130.2c53.16 0 104.7 18.92 145.2 53.27l2.56 2.15 8.86 36.4c147.7 9.75 262.3 131.38 262.3 280.23 0 155.05-126.14 281.2-281.17 281.2-144.08 0-266.02-111.32-279.66-254.3-2.45-1.92-4.62-3.83-6.57-5.8-49.8-49.87-76.1-108.12-76.1-168.5-.02-123.87 100.74-224.64 224.6-224.64m0-12.05C43.16 118.15-63 224.35-63 354.85c0 63.65 27.54 124.87 79.63 177.03 1.12 1.12 2.33 2.26 3.6 3.38C36.78 681.6 163.7 795.48 311.4 795.48c161.68 0 293.2-131.57 293.2-293.25 0-150.77-115.54-277.14-264.68-291.52l-6.78-27.93-.95-3.83-3.03-2.55-2.55-2.16c-42.6-36.16-96.94-56.1-152.96-56.1z"/></g><g><path fill="#fef7e0" d="M173.66 140.55c52.78 0 101.17 19.1 138.5 50.78l9.88 40.58c144.6 5.64 260.18 124.38 260.18 270.32 0 149.57-121.25 270.87-270.84 270.87-142.4 0-258.85-109.96-269.8-249.5-3.4-2.42-6.5-4.92-9.14-7.55-42.1-42.2-73.07-96.97-73.07-161.2 0-118.36 95.95-214.3 214.3-214.3m0-12.06C48.86 128.5-52.7 230.02-52.7 354.84c0 60.82 26.5 119.5 76.62 169.73 1.84 1.84 3.9 3.66 6.13 5.46 14.06 143.52 136.6 255.14 281.33 255.14 156 0 282.9-126.92 282.9-282.93 0-149.33-114.64-271.42-262.64-281.86l-7.77-31.92-.93-3.8-2.98-2.53c-40.78-34.6-92.75-53.66-146.3-53.66z"/></g><circle cx="333.722" cy="408.44" r="15.724" fill="#3b74b1" transform="matrix(17.226 0 0 17.226 -5437.682 -6533.45)"/><path fill="url(#e)" d="M582.05 502.34c0 149.57-121.26 270.87-270.84 270.87-149.6 0-270.87-121.3-270.87-270.86S161.6 231.48 311.2 231.48c149.6.02 270.85 121.32 270.85 270.86z"/><path fill="url(#f)" d="M641.58 10.56c114.2 141.65 55.2 378.6-131.7 529.3-186.9 150.72-385.24 137.83-499.43-3.83C-103.75 394.37-90.53 177.68 96.37 27c186.93-150.7 431.1-158.07 545.2-16.44z"/><path fill="#c60e55" d="M333.26 282.67c-2.8 8.22-13.94 12.5-18.63 20.33-2.72 4.58-1.3 7.55-3.87 15-1.57 4.52-6.65 6.98-7.05 10.2-1.66 13.37-3.24 28.5-4.67 42.22 3.93 18 15.88 33.25 12.6 48.5-7.16 33.17-21 67.1-52.46 101.57 0 0-46.34 26.42-101.46 28.24-63.74 2.1-106.17-11.7-126.14-31.7-42.1-42.14-73.05-96.9-73.05-161.16 0-118.34 95.9-214.3 214.28-214.3 52.78 0 101.17 19.1 138.5 50.8l21.98 90.3z"/><path fill="url(#g)" d="M333.46 282c-2.96 8.65-14.8 14-19.88 23.02-2.46 19.5-8.97 18.1-9.7 23.3-2.72 18.7-4.32 33.1-4.6 42.24 1.88 10.5 14.55 34.45 13.2 42.53-5.68 34.1-18.57 68.36-53.7 107.53 0 0-46.3 26.42-101.43 28.23-63.76 2.12-106.18-11.7-126.15-31.62-42.13-42.2-73.05-96.97-73.05-161.2 0-118.36 95.9-214.3 214.25-214.3 52.82 0 101.4 19 138.76 50.65l22.3 89.6z"/><g><g><path fill="#fef7e0" d="M425.07 140l28.87 31.62 9.94 14 35.6-21.5 4.9 24.66 20.25 20.9-33.1 15.56-4.74 17.26-10.26 21.74-22.62-7.08-26.56 16.6-20.62-16.9 31.85-40.88-56.18-6.33 5.5-27.35 38.56-.07-1.4-42.24m-5.66-13.86l.46 14.03 1.24 36.9-33.22.08h-4.22l-.83 4.13-5.5 27.36-1.12 5.53 5.6.64 47 5.3-26.17 33.58-3.1 3.98 3.9 3.2 20.6 16.92 2.9 2.36 3.14-1.96 24.55-15.35L475 269.2l4.3 1.33 1.9-4.06 10.26-21.74.2-.4.1-.43 4.14-14.97 30.94-14.57 6.54-3.1-5.03-5.2-19.2-19.78-4.62-23.15-1.43-7.22-6.3 3.82-31.5 19-7.14-10.08-29.27-32.13-9.48-10.36z"/></g><g><path fill="#fef7e0" d="M386.05 319.8l5.53 17.9 13.56 13.76-1.1 20.96-27.12-5-9.14 34.82-19.93-16.28-29.5-5.93-8.73-28.57L315.1 321l41.9 11.82 10.78-.78 18.27-12.24m2.9-8.17l-5.77 3.88L366.05 327l-8.5.62-41.04-11.58-5.45-1.53-1 5.6-5.5 30.44-.22 1.23.37 1.2 8.7 28.56.92 2.95 3.04.6 28.25 5.67 18.95 15.47 6.22 5.08 2.04-7.77 7.95-30.2 22.4 4.14 5.8 1.08.32-5.9 1.1-20.95.1-2.28-1.6-1.63-12.67-12.85-5.15-16.72-2.1-6.6z"/></g><g><path fill="#fef7e0" d="M364.06 455.1l15.74 8.17-15.74 7.44-9.86-7.43 9.86-8.17m-.66-6.15l-2.63 2.17-9.86 8.17-5.02 4.16 5.22 3.94 9.85 7.44 2.5 1.88 2.83-1.32 15.74-7.45 9.44-4.46-9.27-4.8-15.75-8.18-3.05-1.57z"/></g><g><path fill="#fef7e0" d="M446.95 403.62l18.3 9.88-18.3 15.82-6.58-15.82 6.58-9.88m-1.7-6.8l-2.6 3.94-6.57 9.88-1.54 2.3 1.07 2.54 6.6 15.82 2.73 6.6 5.4-4.67 18.32-15.82 5.67-4.88-6.6-3.55-18.3-9.88-4.16-2.3z"/></g><g><path fill="#fef7e0" d="M356.03 213.96l25.44 8-25.44 22.35-7.12-22.33 7.13-8m-1.66-5.95l-2.22 2.5-7.1 8.02-1.96 2.2.9 2.8 7.1 22.34 2.4 7.55 5.96-5.22 25.44-22.34 6.87-6.06-8.75-2.76-25.44-8-3.2-1.02z"/></g><g><path fill="#fef7e0" d="M344.37 255.56l7.9 7.24-8.6 25.3-21.78-25.92 22.47-6.62m1.34-5.77l-2.8.8-22.48 6.6-7.58 2.24 5.1 6.06 21.8 25.93 5.9 7.02 2.95-8.7 8.57-25.3 1.08-3.2-2.48-2.26-7.9-7.25-2.16-1.96z"/></g><g><path fill="#fef7e0" d="M250.3 77.64l20.17 11.14 7.22 1.8 12.63 7.2-3.7 16.17-16.16-4.55-21.36 9.77L238 97.8l12.33-20.16m-1.8-6.9l-2.58 4.2-12.35 20.16-1.53 2.5 1.36 2.6 11.13 21.36 2.25 4.34 4.48-2.03 19.64-8.97 14.35 4.03 5.22 1.46 1.2-5.3 3.7-16.15.87-3.74-3.33-1.9-12.63-7.22-.62-.36-.7-.18-6.55-1.62-19.55-10.8-4.34-2.4z"/></g><g><path fill="#fef7e0" d="M421.8 25.37l15.9 24.86-15.9 11.8-24.12-11.8 24.13-24.86m.86-8.28l-4.55 4.67L394 46.63 389 51.75l6.4 3.13 24.14 11.8 2.82 1.38 2.52-1.88 15.9-11.8 3.87-2.87-2.58-4.06-15.9-24.86-3.5-5.5z"/></g><g><path fill="#fef7e0" d="M540.62 104.25l6.82 13.4-6.82 17.52-7.18-17.53 7.18-13.4m.1-11.13l-4.67 8.7-7.18 13.4-1.14 2.14.93 2.26 7.2 17.53 4.88 11.98 4.68-12.05 6.83-17.54.84-2.14-1.06-2.07-6.82-13.4-4.5-8.8z"/></g><g><path fill="#fef7e0" d="M597.88 191.43l6.18 3.07-6.18 5.75-11.13-5.75 11.13-3.07m.5-5.5l-1.88.52-11.13 3.07-12.7 3.5 11.72 6.08 11.12 5.75 3.24 1.7 2.65-2.5 6.2-5.75 5.47-5.1-6.72-3.32-6.18-3.07-1.78-.86z"/></g><g><path fill="#fef7e0" d="M330.3 161.3l6.97 13.58-6.96 13.7-13.27-13.7 13.28-13.58m1.34-8.73l-5.03 5.1-13.27 13.6-3.52 3.6 3.5 3.6 13.3 13.72 5.04 5.2 3.27-6.47 6.97-13.7 1.2-2.35-1.22-2.35-6.96-13.57-3.26-6.4z"/></g><g><path fill="#fef7e0" d="M387.05 281.74l27.3 7.64-27.3 25.16-11.2-25.16 11.2-7.64m-.93-5.63l-1.98 1.37-11.2 7.63-3.56 2.43 1.76 3.95 11.2 25.16 2.92 6.58 5.3-4.87 27.3-25.17 6.83-6.3-8.93-2.48-27.3-7.63-2.35-.66z"/></g><g><path fill="#fef7e0" d="M443.76 281.1l9.77 23.12 1.13 9.8.33 11.22-11.24 13.7-28 3.06 4.8-28-3.5-26.7 26.7-6.2m3.05-6.04l-4.23 1-26.7 6.22-4.56 1.07.6 4.65 3.4 25.92-4.67 27.22-1.15 6.77 6.82-.75 28-3.07 2.1-.22 1.32-1.64 11.23-13.7 1.22-1.5-.05-1.92-.32-11.23-1.18-10.23-.08-.73-.3-.67-9.76-23.14-1.67-4.04z"/></g><g><path fill="#fef7e0" d="M306.25 147.02l27.35.52-6.6 27.35 10.1 30.86L306.26 222l-31.4-15.74 1.4-31.37 22.7-7.3 7.3-20.58m-3.64-5.23l-1.23 3.5-6.44 18.17-20.26 6.5-3.4 1.1-.18 3.58-1.4 31.37-.16 3.34 3 1.5 31.38 15.73 2.38 1.18 2.36-1.24 30.87-16.23 3.87-2.02-1.36-4.15-9.66-29.48 6.25-25.92 1.5-6.26-6.43-.12-27.35-.5-3.74-.06z"/></g><g><path fill="#fef7e0" d="M359.2 148.26l13.14 11.66-13.14 14.92-8.3-14.92 8.3-11.66m-.86-7.7l-3.33 4.7-8.27 11.65-1.9 2.66 1.6 2.86 8.3 14.92 3.54 6.4 4.82-5.5 13.15-14.92 3.4-3.86-3.86-3.43-13.16-11.66-4.3-3.8z"/></g><g><path fill="#fef7e0" d="M316.62 107.87l6.75 3.24-6.75 1.88-5.46-1.87 5.46-3.23m-.26-5.86l-2.38 1.42-5.46 3.24-9.65 5.7 10.58 3.64 5.46 1.88 1.53.5 1.56-.42 6.75-1.88 13.24-3.7-12.4-5.94-6.76-3.24-2.48-1.2z"/></g><g><path fill="#fef7e0" d="M328.66 160.94l6.94 13.6-6.94 13.7-13.28-13.7 13.28-13.6m1.32-8.75l-5.03 5.14-13.28 13.6-3.5 3.6 3.5 3.6 13.28 13.7 5.03 5.17 3.28-6.45 6.94-13.68 1.2-2.34-1.2-2.34-6.94-13.62-3.28-6.4z"/></g></g><g><path fill="#c60e55" d="M524.77 209.96l-33.1 15.58-4.76 17.26-10.22 21.75-22.62-7.1-26.56 16.6-20.64-16.9 31.87-40.86-56.17-6.34 5.5-27.37 38.56-.08-1.43-42.25 28.86 31.64 9.94 14.02 35.6-21.5 4.9 24.65 20.27 20.9z"/></g><g><path fill="#c60e55" d="M309.76 351.72l8.72 28.57 29.5 5.94 19.93 16.27 9.18-34.83 27.13 5 1.08-20.95L391.72 338l-5.53-17.95-18.3 12.25-10.73.8-41.93-11.82-5.48 30.44z"/></g><g><path fill="#c60e55" d="M379.94 463.54L364.18 471l-9.86-7.46 9.86-8.14 15.76 8.14z"/></g><g><path fill="#c60e55" d="M440.5 413.8l6.58 15.8 18.3-15.8-18.3-9.9-6.58 9.9z"/></g><g><path fill="#c60e55" d="M381.6 222.26l-25.43 22.33-7.12-22.34 7.12-8 25.42 8z"/></g><g><path fill="#c60e55" d="M343.82 288.38l-21.8-25.93 22.48-6.6 7.9 7.24-8.58 25.28z"/></g><g><path fill="#c60e55" d="M290.47 98.1l-3.72 16.16-16.14-4.57-21.34 9.78L238.1 98.1l12.33-20.17L270.6 89.1l7.22 1.78 12.65 7.22z"/></g><g><path fill="#c60e55" d="M397.82 50.52l24.13 11.8 15.9-11.8-15.9-24.85-24.13 24.85z"/></g><g><path fill="#c60e55" d="M547.58 117.93l-6.84 17.52-7.18-17.52 7.18-13.4 6.84 13.4z"/></g><g><path fill="#c60e55" d="M604.2 194.77l-6.2 5.8-11.1-5.8 11.1-3.06 6.2 3.07z"/></g><g><path fill="#c60e55" d="M337.4 175.2l-6.97 13.68-13.28-13.7 13.28-13.58 6.98 13.6z"/></g><g><path fill="#c60e55" d="M414.47 289.7l-27.3 25.15-11.2-25.16 11.2-7.66 27.3 7.65z"/></g><g><path fill="#c60e55" d="M420.7 314.28l-4.8 28 27.98-3.04 11.25-13.7-.33-11.26-1.14-9.76-9.78-23.15-26.68 6.2 3.5 26.7z"/></g><g><path fill="#c60e55" d="M327.14 175.17l10.1 30.87-30.86 16.22-31.36-15.72 1.36-31.37 22.7-7.3 7.3-20.56 27.36.5-6.6 27.37z"/></g><g><path fill="#c60e55" d="M372.48 160.18l-13.14 14.94-8.3-14.94 8.3-11.64 13.14 11.64z"/></g><g><path fill="#c60e55" d="M323.47 111.38l-6.7 1.9-5.48-1.9 5.47-3.24 6.7 3.24z"/></g><g transform="matrix(17.226 0 0 17.226 -5437.682 -6533.45)"><radialGradient id="d" cx="334.576" cy="389.436" r=".697" gradientUnits="userSpaceOnUse"><stop offset="0" stop-color="#F9A57D" stop-opacity=".43"/><stop offset=".294" stop-color="#fff" stop-opacity="0"/></radialGradient><path fill="url(#h)" d="M335.16 389.43l-.4.8-.77-.8.76-.8.4.8z"/></g></svg>