<svg xmlns="http://www.w3.org/2000/svg" width="48" height="48" xmlns:xlink="http://www.w3.org/1999/xlink"><defs><linearGradient id="c"><stop offset="0" stop-color="#fff"/><stop offset="1" stop-color="#fff" stop-opacity="0"/></linearGradient><linearGradient id="b"><stop offset="0" stop-color="#fff" stop-opacity=".502"/><stop offset="1" stop-color="#fff" stop-opacity="0"/></linearGradient><linearGradient id="a"><stop offset="0" stop-color="#3465a4"/><stop offset="1" stop-color="#89afd7"/></linearGradient><linearGradient id="d" x1="1.968" x2="45.905" y1="1.841" y2="46.032" xlink:href="#a" gradientUnits="userSpaceOnUse"/><radialGradient cx="7.873" cy="42.222" r="2.286" xlink:href="#b" fx="7.873" fy="42.222" gradientUnits="userSpaceOnUse"/><radialGradient cx="7.873" cy="42.222" r="2.286" xlink:href="#b" fx="7.873" fy="42.222" gradientUnits="userSpaceOnUse"/><radialGradient cx="7.873" cy="42.222" r="2.286" xlink:href="#b" fx="7.873" fy="42.222" gradientUnits="userSpaceOnUse"/><radialGradient cx="7.873" cy="42.222" r="2.286" xlink:href="#b" fx="7.873" fy="42.222" gradientUnits="userSpaceOnUse"/><radialGradient cx="7.873" cy="42.222" r="2.286" xlink:href="#b" fx="7.873" fy="42.222" gradientUnits="userSpaceOnUse"/><radialGradient cx="7.873" cy="42.222" r="2.286" xlink:href="#b" fx="7.873" fy="42.222" gradientUnits="userSpaceOnUse"/><radialGradient cx="7.873" cy="42.222" r="2.286" xlink:href="#b" gradientUnits="userSpaceOnUse" fx="7.873" fy="42.222"/><radialGradient cx="7.873" cy="42.222" r="2.286" xlink:href="#b" gradientUnits="userSpaceOnUse" fx="7.873" fy="42.222"/><radialGradient cx="7.873" cy="42.222" r="2.286" xlink:href="#b" gradientUnits="userSpaceOnUse" fx="7.873" fy="42.222"/><radialGradient cx="7.873" cy="42.222" r="2.286" xlink:href="#b" gradientUnits="userSpaceOnUse" fx="7.873" fy="42.222"/><radialGradient cx="7.873" cy="42.222" r="2.286" xlink:href="#b" gradientUnits="userSpaceOnUse" fx="7.873" fy="42.222"/><radialGradient cx="7.873" cy="42.222" r="2.286" xlink:href="#b" gradientUnits="userSpaceOnUse" fx="7.873" fy="42.222"/><radialGradient cx="7.873" cy="42.222" r="2.286" xlink:href="#b" gradientUnits="userSpaceOnUse" fx="7.873" fy="42.222"/><radialGradient cx="7.873" cy="42.222" r="2.286" xlink:href="#b" gradientUnits="userSpaceOnUse" fx="7.873" fy="42.222"/><radialGradient cx="7.873" cy="42.222" r="2.286" xlink:href="#b" gradientUnits="userSpaceOnUse" fx="7.873" fy="42.222"/><radialGradient cx="7.873" cy="42.222" r="2.286" xlink:href="#b" gradientUnits="userSpaceOnUse" fx="7.873" fy="42.222"/><radialGradient cx="7.873" cy="42.222" r="2.286" xlink:href="#b" gradientUnits="userSpaceOnUse" fx="7.873" fy="42.222"/><radialGradient cx="7.873" cy="42.222" r="2.286" xlink:href="#b" gradientUnits="userSpaceOnUse" fx="7.873" fy="42.222"/><radialGradient cx="7.873" cy="42.222" r="2.286" xlink:href="#b" gradientUnits="userSpaceOnUse" fx="7.873" fy="42.222"/><radialGradient cx="7.873" cy="42.222" r="2.286" xlink:href="#b" gradientUnits="userSpaceOnUse" fx="7.873" fy="42.222"/><radialGradient cx="7.873" cy="42.222" r="2.286" xlink:href="#b" gradientUnits="userSpaceOnUse" fx="7.873" fy="42.222"/><radialGradient cx="7.873" cy="42.222" r="2.286" xlink:href="#b" gradientUnits="userSpaceOnUse" fx="7.873" fy="42.222"/><radialGradient cx="7.873" cy="42.222" r="2.286" xlink:href="#b" gradientUnits="userSpaceOnUse" fx="7.873" fy="42.222"/><radialGradient cx="7.873" cy="42.222" r="2.286" xlink:href="#b" gradientUnits="userSpaceOnUse" fx="7.873" fy="42.222"/><radialGradient cx="7.873" cy="42.222" r="2.286" xlink:href="#b" gradientUnits="userSpaceOnUse" fx="7.873" fy="42.222"/><radialGradient cx="7.873" cy="42.222" r="2.286" xlink:href="#b" gradientUnits="userSpaceOnUse" fx="7.873" fy="42.222"/><radialGradient cx="7.873" cy="42.222" r="2.286" xlink:href="#b" gradientUnits="userSpaceOnUse" fx="7.873" fy="42.222"/><radialGradient cx="7.873" cy="42.222" r="2.286" xlink:href="#b" gradientUnits="userSpaceOnUse" fx="7.873" fy="42.222"/><radialGradient cx="7.873" cy="42.222" r="2.286" xlink:href="#b" gradientUnits="userSpaceOnUse" fx="7.873" fy="42.222"/><radialGradient cx="7.873" cy="42.222" r="2.286" xlink:href="#b" gradientUnits="userSpaceOnUse" fx="7.873" fy="42.222"/><radialGradient cx="7.873" cy="42.222" r="2.286" xlink:href="#b" gradientUnits="userSpaceOnUse" fx="7.873" fy="42.222"/><radialGradient cx="7.873" cy="42.222" r="2.286" xlink:href="#b" gradientUnits="userSpaceOnUse" fx="7.873" fy="42.222"/><radialGradient cx="7.873" cy="42.222" r="2.286" xlink:href="#b" gradientUnits="userSpaceOnUse" fx="7.873" fy="42.222"/><radialGradient cx="7.873" cy="42.222" r="2.286" xlink:href="#b" gradientUnits="userSpaceOnUse" fx="7.873" fy="42.222"/><linearGradient id="e" x1="37.714" x2="-.698" y1="4.714" y2="55.429" xlink:href="#c" gradientUnits="userSpaceOnUse"/></defs><g fill-rule="evenodd"><path fill="url(#d)" stroke="#204a87" stroke-width="2" d="M1 1h46v46H1z" color="#000" overflow="visible"/><path fill="url(#e)" d="M37.7 4.7L3.15 45.87l22-24.3L10.7 46.3l27-41.6z"/><path fill="#fff" fill-opacity=".125" d="M10.16 42.22a2.3 2.3 0 1 1-4.57 0 2.3 2.3 0 1 1 4.56 0z" color="#000" overflow="visible"/><path fill="#fff" fill-opacity=".125" d="M11.57 39.7a2.3 2.3 0 1 1-4.57 0 2.3 2.3 0 1 1 4.57 0z" color="#000" overflow="visible"/><path fill="#fff" fill-opacity=".125" d="M13 41.7a2.3 2.3 0 1 1-4.57 0 2.3 2.3 0 1 1 4.57 0z" color="#000" overflow="visible"/><path fill="#fff" fill-opacity=".125" d="M13.78 37.2a2.3 2.3 0 1 1-4.57 0 2.3 2.3 0 1 1 4.58 0z" color="#000" overflow="visible"/><path fill="#fff" fill-opacity=".125" d="M14.86 38.67a2.3 2.3 0 1 1-4.57 0 2.3 2.3 0 1 1 4.56 0z" color="#000" overflow="visible"/><path fill="#fff" fill-opacity=".125" d="M16 35.56a2.3 2.3 0 1 1-4.57 0 2.3 2.3 0 1 1 4.57 0z" color="#000" overflow="visible"/><path fill="#fff" fill-opacity=".125" d="M16.76 32.76a2.3 2.3 0 1 1-4.57 0 2.3 2.3 0 1 1 4.56 0z" color="#000" overflow="visible"/><path fill="#fff" fill-opacity=".125" d="M18.4 33.65a2.3 2.3 0 1 1-4.56 0 2.3 2.3 0 1 1 4.57 0z" color="#000" overflow="visible"/><path fill="#fff" fill-opacity=".125" d="M18.98 30.73a2.3 2.3 0 1 1-4.57 0 2.3 2.3 0 1 1 4.58 0z" color="#000" overflow="visible"/><path fill="#fff" fill-opacity=".125" d="M21.33 28.8a1.94 1.94 0 1 1-3.87 0 1.94 1.94 0 1 1 3.87 0z" color="#000" overflow="visible"/><path fill="#fff" fill-opacity=".125" d="M22.25 26.37a1.94 1.94 0 1 1-3.88 0 1.94 1.94 0 1 1 3.88 0z" color="#000" overflow="visible"/><path fill="#fff" fill-opacity=".125" d="M23.97 25.2a1.94 1.94 0 1 1-3.87 0 1.94 1.94 0 1 1 3.87 0z" color="#000" overflow="visible"/><path fill="#fff" fill-opacity=".125" d="M25.64 22.66a1.94 1.94 0 1 1-3.88 0 1.94 1.94 0 1 1 3.88 0z" color="#000" overflow="visible"/><path fill="#fff" fill-opacity=".125" d="M28 21.2a1.94 1.94 0 1 1-3.87 0 1.94 1.94 0 1 1 3.88 0z" color="#000" overflow="visible"/><path fill="#fff" fill-opacity=".125" d="M28.97 19.05a1.94 1.94 0 1 1-3.87 0 1.94 1.94 0 1 1 3.87 0z" color="#000" overflow="visible"/><path fill="#fff" fill-opacity=".125" d="M30.86 17.1a1.94 1.94 0 1 1-3.88 0 1.94 1.94 0 1 1 3.88 0z" color="#000" overflow="visible"/><path fill="#fff" fill-opacity=".125" d="M7.05 43.62a2.3 2.3 0 1 1-4.57 0 2.3 2.3 0 1 1 4.57 0z" color="#000" overflow="visible"/><path fill="#fff" fill-opacity=".125" d="M11.5 45.4a2.3 2.3 0 1 1-4.58 0 2.3 2.3 0 1 1 4.57 0z" color="#000" overflow="visible"/><path fill="#fff" fill-opacity=".125" d="M12.67 44.55a2.3 2.3-6.3 1 1-4.55.5 2.3 2.3-6.3 1 1 4.55-.5z" color="#000" overflow="visible"/><path fill="#fff" fill-opacity=".125" d="M13.8 41.9a2.3 2.3-6.3 1 1-4.55.5 2.3 2.3-6.3 1 1 4.55-.5z" color="#000" overflow="visible"/><path fill="#fff" fill-opacity=".125" d="M15.44 43.74a2.3 2.3-6.3 1 1-4.55.5 2.3 2.3-6.3 1 1 4.54-.5z" color="#000" overflow="visible"/><path fill="#fff" fill-opacity=".125" d="M15.7 39.17a2.3 2.3-6.3 1 1-4.53.5 2.3 2.3-6.3 1 1 4.54-.5z" color="#000" overflow="visible"/><path fill="#fff" fill-opacity=".125" d="M16.95 40.5a2.3 2.3-6.3 1 1-4.55.5 2.3 2.3-6.3 1 1 4.55-.5z" color="#000" overflow="visible"/><path fill="#fff" fill-opacity=".125" d="M17.74 37.3a2.3 2.3-6.3 1 1-4.54.5 2.3 2.3-6.3 1 1 4.54-.5z" color="#000" overflow="visible"/><path fill="#fff" fill-opacity=".125" d="M18.2 34.42a2.3 2.3-6.3 1 1-4.55.5 2.3 2.3-6.3 1 1 4.54-.5z" color="#000" overflow="visible"/><path fill="#fff" fill-opacity=".125" d="M19.93 35.13a2.3 2.3-6.3 1 1-4.54.5 2.3 2.3-6.3 1 1 4.53-.5z" color="#000" overflow="visible"/><path fill="#fff" fill-opacity=".125" d="M20.18 32.16a2.3 2.3-6.3 1 1-4.55.5 2.3 2.3-6.3 1 1 4.55-.5z" color="#000" overflow="visible"/><path fill="#fff" fill-opacity=".125" d="M21.9 31.08a2.3 2.3-6.3 1 1-4.53.5 2.3 2.3-6.3 1 1 4.54-.5z" color="#000" overflow="visible"/><path fill="#fff" fill-opacity=".125" d="M22.9 27.33a1.94 1.94-6.3 1 1-3.85.42 1.94 1.94-6.3 1 1 3.85-.42z" color="#000" overflow="visible"/><path fill="#fff" fill-opacity=".125" d="M24.48 25.96a1.94 1.94-6.3 1 1-3.85.43 1.94 1.94-6.3 1 1 3.85-.44z" color="#000" overflow="visible"/><path fill="#fff" fill-opacity=".125" d="M25.86 23.27a1.94 1.94-6.3 1 1-3.85.42 1.94 1.94-6.3 1 1 3.86-.43z" color="#000" overflow="visible"/><path fill="#fff" fill-opacity=".125" d="M28.05 21.56a1.94 1.94-6.3 1 1-3.85.43 1.94 1.94-6.3 1 1 3.85-.44z" color="#000" overflow="visible"/><path fill="#fff" fill-opacity=".125" d="M28.78 19.32a1.94 1.94-6.3 1 1-3.85.42 1.94 1.94-6.3 1 1 3.85-.42z" color="#000" overflow="visible"/><path fill="#fff" fill-opacity=".125" d="M31.96 15.4a1.5 1.5-6.3 1 1-2.97.32 1.5 1.5-6.3 1 1 2.96-.33z" color="#000" overflow="visible"/><path fill="#fff" fill-opacity=".125" d="M11.95 43.74a2.3 2.3-6.3 1 1-4.54.5 2.3 2.3-6.3 1 1 4.55-.5z" color="#000" overflow="visible"/><path fill="#fff" fill-opacity=".125" d="M11.95 47.9a2.3 2.3-6.3 1 1-4.54.5 2.3 2.3-6.3 1 1 4.55-.5z" color="#000" overflow="visible"/><path fill="#fff" fill-opacity=".125" d="M15.14 36.95a1.94 1.94 0 1 1-3.87 0 1.94 1.94 0 1 1 3.87 0z" color="#000" overflow="visible"/><path fill="#fff" fill-opacity=".125" d="M16.06 34.53a1.94 1.94 0 1 1-3.88 0 1.94 1.94 0 1 1 3.88 0z" color="#000" overflow="visible"/><path fill="#fff" fill-opacity=".125" d="M17.78 33.34a1.94 1.94 0 1 1-3.87 0 1.94 1.94 0 1 1 3.88 0z" color="#000" overflow="visible"/><path fill="#fff" fill-opacity=".125" d="M19.45 30.82a1.94 1.94 0 1 1-3.88 0 1.94 1.94 0 1 1 3.88 0z" color="#000" overflow="visible"/><path fill="#fff" fill-opacity=".125" d="M21.82 29.36a1.94 1.94 0 1 1-3.88 0 1.94 1.94 0 1 1 3.88 0z" color="#000" overflow="visible"/><path fill="#fff" fill-opacity=".125" d="M22.78 27.2a1.94 1.94 0 1 1-3.87 0 1.94 1.94 0 1 1 3.88 0z" color="#000" overflow="visible"/><path fill="#fff" fill-opacity=".125" d="M24.67 25.27a1.94 1.94 0 1 1-3.88 0 1.94 1.94 0 1 1 3.87 0z" color="#000" overflow="visible"/><path fill="#fff" fill-opacity=".125" d="M16.7 35.5a1.94 1.94-6.3 1 1-3.85.4 1.94 1.94-6.3 1 1 3.85-.4z" color="#000" overflow="visible"/><path fill="#fff" fill-opacity=".125" d="M18.4 37.87a1.94 1.94-6.3 1 1-3.84.42 1.94 1.94-6.3 1 1 3.85-.43z" color="#000" overflow="visible"/><path fill="#fff" fill-opacity=".125" d="M10.14 39.87a1.94 1.94-6.3 1 1-3.85.42 1.94 1.94-6.3 1 1 3.84-.43z" color="#000" overflow="visible"/><path fill="#fff" fill-opacity=".125" d="M21.86 29.72a1.94 1.94-6.3 1 1-3.85.43 1.94 1.94-6.3 1 1 3.86-.43z" color="#000" overflow="visible"/><path fill="#fff" fill-opacity=".125" d="M22.6 27.48a1.94 1.94-6.3 1 1-3.87.42 1.94 1.94-6.3 1 1 3.86-.42z" color="#000" overflow="visible"/><path fill="#fff" fill-opacity=".125" d="M24.24 25.34a1.94 1.94-6.3 1 1-3.85.43 1.94 1.94-6.3 1 1 3.84-.43z" color="#000" overflow="visible"/><path fill="#fff" fill-opacity=".125" d="M13.05 44.76a1.94 1.94 0 1 1-3.88 0 1.94 1.94 0 1 1 3.88 0z" color="#000" overflow="visible"/><path fill="#fff" fill-opacity=".125" d="M8.25 43.1a1.94 1.94 0 1 1-3.88 0 1.94 1.94 0 1 1 3.88 0z" color="#000" overflow="visible"/><path fill="#fff" fill-opacity=".125" d="M10.8 42.8a1.94 1.94 0 1 1-3.88 0 1.94 1.94 0 1 1 3.88 0z" color="#000" overflow="visible"/><path fill="#fff" fill-opacity=".125" d="M12.46 40.28a1.94 1.94 0 1 1-3.87 0 1.94 1.94 0 1 1 3.86 0z" color="#000" overflow="visible"/><path fill="#fff" fill-opacity=".125" d="M14.83 38.82a1.94 1.94 0 1 1-3.87 0 1.94 1.94 0 1 1 3.87 0z" color="#000" overflow="visible"/><path fill="#fff" fill-opacity=".125" d="M8.12 41.94a1.94 1.94 0 1 1-3.88 0 1.94 1.94 0 1 1 3.88 0z" color="#000" overflow="visible"/><path fill="#fff" fill-opacity=".125" d="M16.35 39.18a1.94 1.94 0 1 1-3.87 0 1.94 1.94 0 1 1 3.87 0z" color="#000" overflow="visible"/><path fill="#fff" fill-opacity=".125" d="M10.8 41.77a1.94 1.94-6.3 1 1-3.85.43 1.94 1.94-6.3 1 1 3.85-.43z" color="#000" overflow="visible"/><path fill="#fff" fill-opacity=".125" d="M12.68 40.9a1.94 1.94-6.3 1 1-3.85.4 1.94 1.94-6.3 1 1 3.85-.4z" color="#000" overflow="visible"/><path fill="#fff" fill-opacity=".125" d="M14.87 39.18a1.94 1.94-6.3 1 1-3.85.43 1.94 1.94-6.3 1 1 3.85-.42z" color="#000" overflow="visible"/><path fill="#fff" fill-opacity=".125" d="M15.4 42.4a1.94 1.94-6.3 1 1-3.84.42 1.94 1.94-6.3 1 1 3.85-.42z" color="#000" overflow="visible"/><path fill="#fff" fill-opacity=".125" d="M12.7 36.14a1.94 1.94-6.3 1 1-3.86.42 1.94 1.94-6.3 1 1 3.85-.42z" color="#000" overflow="visible"/><path fill="#fff" fill-opacity=".125" d="M32.28 14a1.5 1.5-6.3 1 1-2.97.32A1.5 1.5-6.3 1 1 32.3 14z" color="#000" overflow="visible"/><path fill="#fff" fill-opacity=".125" d="M30.88 15.52a1.5 1.5-6.3 1 1-2.97.33 1.5 1.5-6.3 1 1 2.98-.33z" color="#000" overflow="visible"/><path fill="#fff" fill-opacity=".125" d="M32.9 12.7a1.24 1.24-6.3 1 1-2.45.26 1.24 1.24-6.3 1 1 2.46-.27z" color="#000" overflow="visible"/><path fill="#fff" fill-opacity=".125" d="M26.05 20.28a1.5 1.5-6.3 1 1-2.96.33 1.5 1.5-6.3 1 1 2.95-.32z" color="#000" overflow="visible"/><path fill="#fff" fill-opacity=".125" d="M23.2 29.3a1.5 1.5-6.3 1 1-2.97.32 1.5 1.5-6.3 1 1 2.97-.32z" color="#000" overflow="visible"/><path fill="#fff" fill-opacity=".125" d="M19.52 27.77a1.5 1.5-6.3 1 1-2.97.33 1.5 1.5-6.3 1 1 2.97-.33z" color="#000" overflow="visible"/><path fill="#fff" fill-opacity=".125" d="M13.67 34.44a1.5 1.5-6.3 1 1-2.96.33 1.5 1.5-6.3 1 1 2.97-.33z" color="#000" overflow="visible"/><path fill="#fff" fill-opacity=".125" d="M10.88 37.74a1.5 1.5-6.3 1 1-2.97.33 1.5 1.5-6.3 1 1 2.98-.33z" color="#000" overflow="visible"/><path fill="#fff" fill-opacity=".125" d="M8.6 39.84a1.5 1.5-6.3 1 1-2.97.32 1.5 1.5-6.3 1 1 2.96-.32z" color="#000" overflow="visible"/><path fill="#fff" fill-opacity=".125" d="M15.52 41.87a1.5 1.5-6.3 1 1-2.97.33 1.5 1.5-6.3 1 1 2.97-.33z" color="#000" overflow="visible"/><path fill="#fff" fill-opacity=".125" d="M23.9 23.72a1.94 1.94-6.3 1 1-3.86.43 1.94 1.94-6.3 1 1 3.85-.43z" color="#000" overflow="visible"/><path fill="#fff" fill-opacity=".125" d="M12.95 35.56a2.3 2.3 0 1 1-4.57 0 2.3 2.3 0 1 1 4.57 0z" color="#000" overflow="visible"/><path fill="#fff" fill-opacity=".125" d="M9.9 39.17a2.3 2.3 0 1 1-4.57 0 2.3 2.3 0 1 1 4.57 0z" color="#000" overflow="visible"/><path fill="#fff" fill-opacity=".125" d="M7.37 41.52a2.3 2.3 0 1 1-4.58 0 2.3 2.3 0 1 1 4.57 0z" color="#000" overflow="visible"/><path fill="#fff" fill-opacity=".125" d="M16.2 42.16a2.3 2.3 0 1 1-4.58 0 2.3 2.3 0 1 1 4.57 0z" color="#000" overflow="visible"/><path fill="#fff" fill-opacity=".125" d="M21.52 34.16a2.3 2.3 0 1 1-4.57 0 2.3 2.3 0 1 1 4.57 0z" color="#000" overflow="visible"/><path fill="#fff" fill-opacity=".125" d="M11.9 39.65a1.76 1.76 0 1 1-3.53 0 1.76 1.76 0 1 1 3.52 0z" color="#000" overflow="visible"/><path fill="#fff" fill-opacity=".125" d="M12.98 37.72a1.76 1.76 0 1 1-3.53 0 1.76 1.76 0 1 1 3.53 0z" color="#000" overflow="visible"/><path fill="#fff" fill-opacity=".125" d="M14.08 39.26a1.76 1.76 0 1 1-3.52 0 1.76 1.76 0 1 1 3.52 0z" color="#000" overflow="visible"/><path fill="#fff" fill-opacity=".125" d="M14.68 35.78a1.76 1.76 0 1 1-3.53 0 1.76 1.76 0 1 1 3.53 0z" color="#000" overflow="visible"/><path fill="#fff" fill-opacity=".125" d="M15.5 36.9a1.76 1.76 0 1 1-3.5 0 1.76 1.76 0 1 1 3.5 0z" color="#000" overflow="visible"/><path fill="#fff" fill-opacity=".125" d="M16.4 34.5a1.76 1.76 0 1 1-3.53 0 1.76 1.76 0 1 1 3.52 0z" color="#000" overflow="visible"/><path fill="#fff" fill-opacity=".125" d="M16.98 32.36a1.76 1.76 0 1 1-3.53 0 1.76 1.76 0 1 1 3.53 0z" color="#000" overflow="visible"/><path fill="#fff" fill-opacity=".125" d="M18.25 33.04a1.76 1.76 0 1 1-3.52 0 1.76 1.76 0 1 1 3.52 0z" color="#000" overflow="visible"/><path fill="#fff" fill-opacity=".125" d="M18.7 30.8a1.76 1.76 0 1 1-3.53 0 1.76 1.76 0 1 1 3.52 0z" color="#000" overflow="visible"/><path fill="#fff" fill-opacity=".125" d="M20.5 29.3a1.5 1.5 0 1 1-2.98 0 1.5 1.5 0 1 1 2.98 0z" color="#000" overflow="visible"/><path fill="#fff" fill-opacity=".125" d="M21.2 27.43a1.5 1.5 0 1 1-2.98 0 1.5 1.5 0 1 1 2.98 0z" color="#000" overflow="visible"/><path fill="#fff" fill-opacity=".125" d="M22.53 26.52a1.5 1.5 0 1 1-2.98 0 1.5 1.5 0 1 1 2.98 0z" color="#000" overflow="visible"/><path fill="#fff" fill-opacity=".125" d="M23.82 24.57a1.5 1.5 0 1 1-3 0 1.5 1.5 0 1 1 3 0z" color="#000" overflow="visible"/><path fill="#fff" fill-opacity=".125" d="M25.64 23.45a1.5 1.5 0 1 1-2.98 0 1.5 1.5 0 1 1 2.98 0z" color="#000" overflow="visible"/><path fill="#fff" fill-opacity=".125" d="M26.4 21.8a1.5 1.5 0 1 1-3 0 1.5 1.5 0 1 1 3 0z" color="#000" overflow="visible"/><path fill="#fff" fill-opacity=".125" d="M27.84 20.3a1.5 1.5 0 1 1-3 0 1.5 1.5 0 1 1 3 0z" color="#000" overflow="visible"/><path fill="#fff" fill-opacity=".125" d="M9.5 40.73a1.76 1.76 0 1 1-3.53 0 1.76 1.76 0 1 1 3.52 0z" color="#000" overflow="visible"/><path fill="#fff" fill-opacity=".125" d="M13.82 41.45a1.76 1.76-6.3 1 1-3.5.38 1.76 1.76-6.3 1 1 3.5-.38z" color="#000" overflow="visible"/><path fill="#fff" fill-opacity=".125" d="M14.7 39.4a1.76 1.76-6.3 1 1-3.5.4 1.76 1.76-6.3 1 1 3.5-.4z" color="#000" overflow="visible"/><path fill="#fff" fill-opacity=".125" d="M15.96 40.82a1.76 1.76-6.3 1 1-3.5.38 1.76 1.76-6.3 1 1 3.5-.38z" color="#000" overflow="visible"/><path fill="#fff" fill-opacity=".125" d="M16.17 37.3a1.76 1.76-6.3 1 1-3.5.38 1.76 1.76-6.3 1 1 3.5-.38z" color="#000" overflow="visible"/><path fill="#fff" fill-opacity=".125" d="M17.12 38.32a1.76 1.76-6.3 1 1-3.5.4 1.76 1.76-6.3 1 1 3.5-.4z" color="#000" overflow="visible"/><path fill="#fff" fill-opacity=".125" d="M17.73 35.84a1.76 1.76-6.3 1 1-3.5.4 1.76 1.76-6.3 1 1 3.5-.4z" color="#000" overflow="visible"/><path fill="#fff" fill-opacity=".125" d="M18.08 33.64a1.76 1.76-6.3 1 1-3.5.4 1.76 1.76-6.3 1 1 3.5-.4z" color="#000" overflow="visible"/><path fill="#fff" fill-opacity=".125" d="M19.42 34.18a1.76 1.76-6.3 1 1-3.5.4 1.76 1.76-6.3 1 1 3.5-.4z" color="#000" overflow="visible"/><path fill="#fff" fill-opacity=".125" d="M19.6 31.9a1.76 1.76-6.3 1 1-3.5.38 1.76 1.76-6.3 1 1 3.5-.38z" color="#000" overflow="visible"/><path fill="#fff" fill-opacity=".125" d="M20.94 31.06a1.76 1.76-6.3 1 1-3.5.4 1.76 1.76-6.3 1 1 3.5-.4z" color="#000" overflow="visible"/><path fill="#fff" fill-opacity=".125" d="M21.7 28.17a1.5 1.5-6.3 1 1-2.96.33 1.5 1.5-6.3 1 1 2.96-.33z" color="#000" overflow="visible"/><path fill="#fff" fill-opacity=".125" d="M22.92 27.12a1.5 1.5-6.3 1 1-2.97.33 1.5 1.5-6.3 1 1 2.97-.33z" color="#000" overflow="visible"/><path fill="#fff" fill-opacity=".125" d="M23.98 25.04a1.5 1.5-6.3 1 1-2.96.33 1.5 1.5-6.3 1 1 2.96-.33z" color="#000" overflow="visible"/><path fill="#fff" fill-opacity=".125" d="M25.68 23.73a1.5 1.5-6.3 1 1-2.97.33 1.5 1.5-6.3 1 1 2.98-.33z" color="#000" overflow="visible"/><path fill="#fff" fill-opacity=".125" d="M26.23 22a1.5 1.5-6.3 1 1-2.96.33 1.5 1.5-6.3 1 1 2.96-.33z" color="#000" overflow="visible"/><path fill="#fff" fill-opacity=".125" d="M28.7 18.97a1.15 1.15-6.3 1 1-2.3.26 1.15 1.15-6.3 1 1 2.3-.26z" color="#000" overflow="visible"/><path fill="#fff" fill-opacity=".125" d="M13.27 44.02a1.76 1.76-6.3 1 1-3.5.38 1.76 1.76-6.3 1 1 3.5-.38z" color="#000" overflow="visible"/><path fill="#fff" fill-opacity=".125" d="M15.73 35.6a1.5 1.5 0 1 1-3 0 1.5 1.5 0 1 1 3 0z" color="#000" overflow="visible"/><path fill="#fff" fill-opacity=".125" d="M16.43 33.72a1.5 1.5 0 1 1-2.98 0 1.5 1.5 0 1 1 2.98 0z" color="#000" overflow="visible"/><path fill="#fff" fill-opacity=".125" d="M17.76 32.8a1.5 1.5 0 1 1-2.98 0 1.5 1.5 0 1 1 2.98 0z" color="#000" overflow="visible"/><path fill="#fff" fill-opacity=".125" d="M19.05 30.86a1.5 1.5 0 1 1-3 0 1.5 1.5 0 1 1 3 0z" color="#000" overflow="visible"/><path fill="#fff" fill-opacity=".125" d="M20.87 29.74a1.5 1.5 0 1 1-2.98 0 1.5 1.5 0 1 1 2.97 0z" color="#000" overflow="visible"/><path fill="#fff" fill-opacity=".125" d="M21.62 28.08a1.5 1.5 0 1 1-3 0 1.5 1.5 0 1 1 3 0z" color="#000" overflow="visible"/><path fill="#fff" fill-opacity=".125" d="M23.07 26.6a1.5 1.5 0 1 1-3 0 1.5 1.5 0 1 1 3 0z" color="#000" overflow="visible"/><path fill="#fff" fill-opacity=".125" d="M16.93 34.46a1.5 1.5-6.3 1 1-2.96.33 1.5 1.5-6.3 1 1 2.96-.34z" color="#000" overflow="visible"/><path fill="#fff" fill-opacity=".125" d="M18.25 36.3a1.5 1.5-6.3 1 1-2.97.32 1.5 1.5-6.3 1 1 2.97-.33z" color="#000" overflow="visible"/><path fill="#fff" fill-opacity=".125" d="M11.88 37.84a1.5 1.5-6.3 1 1-2.97.32 1.5 1.5-6.3 1 1 2.98-.32z" color="#000" overflow="visible"/><path fill="#fff" fill-opacity=".125" d="M20.9 30.02a1.5 1.5-6.3 1 1-2.96.32 1.5 1.5-6.3 1 1 2.96-.32z" color="#000" overflow="visible"/><path fill="#fff" fill-opacity=".125" d="M21.46 28.3a1.5 1.5-6.3 1 1-2.96.3 1.5 1.5-6.3 1 1 2.96-.3z" color="#000" overflow="visible"/><path fill="#fff" fill-opacity=".125" d="M22.74 26.64a1.5 1.5-6.3 1 1-2.96.33 1.5 1.5-6.3 1 1 2.96-.33z" color="#000" overflow="visible"/><path fill="#fff" fill-opacity=".125" d="M11.05 41a1.5 1.5 0 1 1-2.98 0 1.5 1.5 0 1 1 2.98 0z" color="#000" overflow="visible"/><path fill="#fff" fill-opacity=".125" d="M12.38 40.1a1.5 1.5 0 1 1-3 0 1.5 1.5 0 1 1 3 0z" color="#000" overflow="visible"/><path fill="#fff" fill-opacity=".125" d="M13.66 38.15a1.5 1.5 0 1 1-2.98 0 1.5 1.5 0 1 1 2.98 0z" color="#000" overflow="visible"/><path fill="#fff" fill-opacity=".125" d="M15.5 37.03a1.5 1.5 0 1 1-3 0 1.5 1.5 0 1 1 3 0z" color="#000" overflow="visible"/><path fill="#fff" fill-opacity=".125" d="M10.3 39.43a1.5 1.5 0 1 1-2.97 0 1.5 1.5 0 1 1 2.98 0z" color="#000" overflow="visible"/><path fill="#fff" fill-opacity=".125" d="M16.66 37.3a1.5 1.5 0 1 1-3 0 1.5 1.5 0 1 1 3 0z" color="#000" overflow="visible"/><path fill="#fff" fill-opacity=".125" d="M13.83 38.62a1.5 1.5-6.3 1 1-2.96.33 1.5 1.5-6.3 1 1 2.96-.33z" color="#000" overflow="visible"/><path fill="#fff" fill-opacity=".125" d="M15.52 37.3a1.5 1.5-6.3 1 1-2.96.33 1.5 1.5-6.3 1 1 2.96-.32z" color="#000" overflow="visible"/><path fill="#fff" fill-opacity=".125" d="M15.94 39.78a1.5 1.5-6.3 1 1-2.97.33 1.5 1.5-6.3 1 1 2.97-.32z" color="#000" overflow="visible"/><path fill="#fff" fill-opacity=".125" d="M13.84 34.96a1.5 1.5-6.3 1 1-2.97.33 1.5 1.5-6.3 1 1 2.97-.34z" color="#000" overflow="visible"/><path fill="#fff" fill-opacity=".125" d="M28.93 17.9a1.15 1.15-6.3 1 1-2.28.25 1.15 1.15-6.3 1 1 2.28-.25z" color="#000" overflow="visible"/><path fill="#fff" fill-opacity=".125" d="M27.86 19.07a1.15 1.15-6.3 1 1-2.3.25 1.15 1.15-6.3 1 1 2.3-.25z" color="#000" overflow="visible"/><path fill="#fff" fill-opacity=".125" d="M29.42 16.9a.95.95-6.3 1 1-1.9.2.95.95-6.3 1 1 1.9-.2z" color="#000" overflow="visible"/><path fill="#fff" fill-opacity=".125" d="M24.14 22.74a1.15 1.15-6.3 1 1-2.3.25 1.15 1.15-6.3 1 1 2.3-.26z" color="#000" overflow="visible"/><path fill="#fff" fill-opacity=".125" d="M21.94 29.7a1.15 1.15-6.3 1 1-2.3.24 1.15 1.15-6.3 1 1 2.3-.25z" color="#000" overflow="visible"/><path fill="#fff" fill-opacity=".125" d="M19.1 28.5a1.15 1.15-6.3 1 1-2.3.27 1.15 1.15-6.3 1 1 2.3-.26z" color="#000" overflow="visible"/><path fill="#fff" fill-opacity=".125" d="M14.6 33.65a1.15 1.15-6.3 1 1-2.3.25 1.15 1.15-6.3 1 1 2.3-.25z" color="#000" overflow="visible"/><path fill="#fff" fill-opacity=".125" d="M12.44 36.2a1.15 1.15-6.3 1 1-2.28.25 1.15 1.15-6.3 1 1 2.28-.25z" color="#000" overflow="visible"/><path fill="#fff" fill-opacity=".125" d="M10.68 37.8a1.15 1.15-6.3 1 1-2.28.26 1.15 1.15-6.3 1 1 2.28-.25z" color="#000" overflow="visible"/><path fill="#fff" fill-opacity=".125" d="M16.02 39.38a1.15 1.15-6.3 1 1-2.3.25 1.15 1.15-6.3 1 1 2.3-.25z" color="#000" overflow="visible"/><path fill="#fff" fill-opacity=".125" d="M22.47 25.4a1.5 1.5-6.3 1 1-2.96.32 1.5 1.5-6.3 1 1 2.97-.33z" color="#000" overflow="visible"/><path fill="#fff" fill-opacity=".125" d="M14.04 34.5a1.76 1.76 0 1 1-3.52 0 1.76 1.76 0 1 1 3.52 0z" color="#000" overflow="visible"/><path fill="#fff" fill-opacity=".125" d="M11.7 37.3a1.76 1.76 0 1 1-3.53 0 1.76 1.76 0 1 1 3.52 0z" color="#000" overflow="visible"/><path fill="#fff" fill-opacity=".125" d="M9.74 39.1a1.76 1.76 0 1 1-3.53 0 1.76 1.76 0 1 1 3.54 0z" color="#000" overflow="visible"/><path fill="#fff" fill-opacity=".125" d="M16.54 39.6a1.76 1.76 0 1 1-3.53 0 1.76 1.76 0 1 1 3.54 0z" color="#000" overflow="visible"/><path fill="#fff" fill-opacity=".125" d="M20.65 33.44a1.76 1.76 0 1 1-3.53 0 1.76 1.76 0 1 1 3.53 0z" color="#000" overflow="visible"/><path fill="#fff" fill-opacity=".125" d="M15.25 35.4a2.3 2.3 0 1 1-4.57 0 2.3 2.3 0 1 1 4.57 0z" color="#000" overflow="visible"/><path fill="#fff" fill-opacity=".125" d="M16.67 32.9a2.3 2.3 0 1 1-4.58 0 2.3 2.3 0 1 1 4.57 0z" color="#000" overflow="visible"/><path fill="#fff" fill-opacity=".125" d="M18.1 34.9a2.3 2.3 0 1 1-4.58 0 2.3 2.3 0 1 1 4.57 0z" color="#000" overflow="visible"/><path fill="#fff" fill-opacity=".125" d="M18.87 30.4a2.3 2.3 0 1 1-4.57 0 2.3 2.3 0 1 1 4.57 0z" color="#000" overflow="visible"/><path fill="#fff" fill-opacity=".125" d="M19.95 31.85a2.3 2.3 0 1 1-4.57 0 2.3 2.3 0 1 1 4.57 0z" color="#000" overflow="visible"/><path fill="#fff" fill-opacity=".125" d="M21.1 28.74a2.3 2.3 0 1 1-4.58 0 2.3 2.3 0 1 1 4.57 0z" color="#000" overflow="visible"/><path fill="#fff" fill-opacity=".125" d="M21.86 25.95a2.3 2.3 0 1 1-4.57 0 2.3 2.3 0 1 1 4.56 0z" color="#000" overflow="visible"/><path fill="#fff" fill-opacity=".125" d="M23.5 26.83a2.3 2.3 0 1 1-4.56 0 2.3 2.3 0 1 1 4.57 0z" color="#000" overflow="visible"/><path fill="#fff" fill-opacity=".125" d="M24.08 23.9a2.3 2.3 0 1 1-4.57 0 2.3 2.3 0 1 1 4.58 0z" color="#000" overflow="visible"/><path fill="#fff" fill-opacity=".125" d="M26.43 21.97a1.94 1.94 0 1 1-3.87 0 1.94 1.94 0 1 1 3.87 0z" color="#000" overflow="visible"/><path fill="#fff" fill-opacity=".125" d="M27.34 19.55a1.94 1.94 0 1 1-3.87 0 1.94 1.94 0 1 1 3.87 0z" color="#000" overflow="visible"/><path fill="#fff" fill-opacity=".125" d="M29.07 18.37a1.94 1.94 0 1 1-3.88 0 1.94 1.94 0 1 1 3.87 0z" color="#000" overflow="visible"/><path fill="#fff" fill-opacity=".125" d="M30.73 15.84a1.94 1.94 0 1 1-3.87 0 1.94 1.94 0 1 1 3.87 0z" color="#000" overflow="visible"/><path fill="#fff" fill-opacity=".125" d="M33.1 14.4a1.94 1.94 0 1 1-3.87 0 1.94 1.94 0 1 1 3.87 0z" color="#000" overflow="visible"/><path fill="#fff" fill-opacity=".125" d="M34.07 12.23a1.94 1.94 0 1 1-3.87 0 1.94 1.94 0 1 1 3.87 0z" color="#000" overflow="visible"/><path fill="#fff" fill-opacity=".125" d="M35.95 10.3a1.94 1.94 0 1 1-3.87 0 1.94 1.94 0 1 1 3.87 0z" color="#000" overflow="visible"/><path fill="#fff" fill-opacity=".125" d="M12.14 36.8a2.3 2.3 0 1 1-4.57 0 2.3 2.3 0 1 1 4.57 0z" color="#000" overflow="visible"/><path fill="#fff" fill-opacity=".125" d="M16.6 38.58a2.3 2.3 0 1 1-4.58 0 2.3 2.3 0 1 1 4.57 0z" color="#000" overflow="visible"/><path fill="#fff" fill-opacity=".125" d="M18.9 35.1a2.3 2.3-6.3 1 1-4.55.5 2.3 2.3-6.3 1 1 4.54-.5z" color="#000" overflow="visible"/><path fill="#fff" fill-opacity=".125" d="M20.53 36.92a2.3 2.3-6.3 1 1-4.54.5 2.3 2.3-6.3 1 1 4.53-.5z" color="#000" overflow="visible"/><path fill="#fff" fill-opacity=".125" d="M20.8 32.35a2.3 2.3-6.3 1 1-4.54.5 2.3 2.3-6.3 1 1 4.55-.5z" color="#000" overflow="visible"/><path fill="#fff" fill-opacity=".125" d="M22.04 33.7a2.3 2.3-6.3 1 1-4.54.5 2.3 2.3-6.3 1 1 4.54-.5z" color="#000" overflow="visible"/><path fill="#fff" fill-opacity=".125" d="M22.84 30.47a2.3 2.3-6.3 1 1-4.55.5 2.3 2.3-6.3 1 1 4.54-.5z" color="#000" overflow="visible"/><path fill="#fff" fill-opacity=".125" d="M23.3 27.6a2.3 2.3-6.3 1 1-4.56.5 2.3 2.3-6.3 1 1 4.55-.5z" color="#000" overflow="visible"/><path fill="#fff" fill-opacity=".125" d="M25.02 28.3a2.3 2.3-6.3 1 1-4.54.5 2.3 2.3-6.3 1 1 4.54-.5z" color="#000" overflow="visible"/><path fill="#fff" fill-opacity=".125" d="M25.27 25.34a2.3 2.3-6.3 1 1-4.54.5 2.3 2.3-6.3 1 1 4.54-.5z" color="#000" overflow="visible"/><path fill="#fff" fill-opacity=".125" d="M27 24.26a2.3 2.3-6.3 1 1-4.54.5 2.3 2.3-6.3 1 1 4.54-.5z" color="#000" overflow="visible"/><path fill="#fff" fill-opacity=".125" d="M28 20.5a1.94 1.94-6.3 1 1-3.86.44A1.94 1.94-6.3 1 1 28 20.5z" color="#000" overflow="visible"/><path fill="#fff" fill-opacity=".125" d="M29.57 19.15a1.94 1.94-6.3 1 1-3.85.42 1.94 1.94-6.3 1 1 3.85-.42z" color="#000" overflow="visible"/><path fill="#fff" fill-opacity=".125" d="M30.95 16.45a1.94 1.94-6.3 1 1-3.85.43 1.94 1.94-6.3 1 1 3.85-.43z" color="#000" overflow="visible"/><path fill="#fff" fill-opacity=".125" d="M33.14 14.75a1.94 1.94-6.3 1 1-3.85.42 1.94 1.94-6.3 1 1 3.84-.42z" color="#000" overflow="visible"/><path fill="#fff" fill-opacity=".125" d="M33.87 12.5a1.94 1.94-6.3 1 1-3.85.43 1.94 1.94-6.3 1 1 3.85-.43z" color="#000" overflow="visible"/><path fill="#fff" fill-opacity=".125" d="M17.05 41.07a2.3 2.3-6.3 1 1-4.55.5 2.3 2.3-6.3 1 1 4.55-.5z" color="#000" overflow="visible"/><path fill="#fff" fill-opacity=".125" d="M20.24 30.13a1.94 1.94 0 1 1-3.88 0 1.94 1.94 0 1 1 3.88 0z" color="#000" overflow="visible"/><path fill="#fff" fill-opacity=".125" d="M21.15 27.7a1.94 1.94 0 1 1-3.87 0 1.94 1.94 0 1 1 3.87 0z" color="#000" overflow="visible"/><path fill="#fff" fill-opacity=".125" d="M22.87 26.53a1.94 1.94 0 1 1-3.87 0 1.94 1.94 0 1 1 3.87 0z" color="#000" overflow="visible"/><path fill="#fff" fill-opacity=".125" d="M24.54 24a1.94 1.94 0 1 1-3.87 0 1.94 1.94 0 1 1 3.87 0z" color="#000" overflow="visible"/><path fill="#fff" fill-opacity=".125" d="M26.9 22.55a1.94 1.94 0 1 1-3.86 0 1.94 1.94 0 1 1 3.87 0z" color="#000" overflow="visible"/><path fill="#fff" fill-opacity=".125" d="M27.88 20.4a1.94 1.94 0 1 1-3.88 0 1.94 1.94 0 1 1 3.88 0z" color="#000" overflow="visible"/><path fill="#fff" fill-opacity=".125" d="M29.76 18.46a1.94 1.94 0 1 1-3.87 0 1.94 1.94 0 1 1 3.86 0z" color="#000" overflow="visible"/><path fill="#fff" fill-opacity=".125" d="M21.8 28.67a1.94 1.94-6.3 1 1-3.85.43 1.94 1.94-6.3 1 1 3.85-.43z" color="#000" overflow="visible"/><path fill="#fff" fill-opacity=".125" d="M23.5 31.05a1.94 1.94-6.3 1 1-3.84.43 1.94 1.94-6.3 1 1 3.85-.43z" color="#000" overflow="visible"/><path fill="#fff" fill-opacity=".125" d="M15.24 33.05a1.94 1.94-6.3 1 1-3.85.43 1.94 1.94-6.3 1 1 3.84-.43z" color="#000" overflow="visible"/><path fill="#fff" fill-opacity=".125" d="M26.95 22.9a1.94 1.94-6.3 1 1-3.85.43 1.94 1.94-6.3 1 1 3.85-.43z" color="#000" overflow="visible"/><path fill="#fff" fill-opacity=".125" d="M27.68 20.66a1.94 1.94-6.3 1 1-3.85.42 1.94 1.94-6.3 1 1 3.85-.42z" color="#000" overflow="visible"/><path fill="#fff" fill-opacity=".125" d="M29.34 18.53a1.94 1.94-6.3 1 1-3.85.42 1.94 1.94-6.3 1 1 3.84-.42z" color="#000" overflow="visible"/><path fill="#fff" fill-opacity=".125" d="M19.93 32a1.94 1.94 0 1 1-3.88 0 1.94 1.94 0 1 1 3.88 0z" color="#000" overflow="visible"/><path fill="#fff" fill-opacity=".125" d="M13.2 35.12a1.94 1.94 0 1 1-3.86 0 1.94 1.94 0 1 1 3.87 0z" color="#000" overflow="visible"/><path fill="#fff" fill-opacity=".125" d="M21.44 32.36a1.94 1.94 0 1 1-3.87 0 1.94 1.94 0 1 1 3.87 0z" color="#000" overflow="visible"/><path fill="#fff" fill-opacity=".125" d="M19.97 32.36a1.94 1.94-6.3 1 1-3.85.43 1.94 1.94-6.3 1 1 3.85-.44z" color="#000" overflow="visible"/><path fill="#fff" fill-opacity=".125" d="M20.5 35.58a1.94 1.94-6.3 1 1-3.84.42 1.94 1.94-6.3 1 1 3.85-.42z" color="#000" overflow="visible"/><path fill="#fff" fill-opacity=".125" d="M17.78 29.32a1.94 1.94-6.3 1 1-3.85.43 1.94 1.94-6.3 1 1 3.85-.43z" color="#000" overflow="visible"/><path fill="#fff" fill-opacity=".125" d="M36.5 7.6a1.05 1.05-6.3 1 1-2.1.24 1.05 1.05-6.3 1 1 2.1-.23z" color="#000" overflow="visible"/><path fill="#fff" fill-opacity=".125" d="M35.98 8.7a1.5 1.5-6.3 1 1-2.97.33A1.5 1.5-6.3 1 1 36 8.7z" color="#000" overflow="visible"/><path fill="#fff" fill-opacity=".125" d="M31.15 13.46a1.5 1.5-6.3 1 1-2.97.33 1.5 1.5-6.3 1 1 2.97-.34z" color="#000" overflow="visible"/><path fill="#fff" fill-opacity=".125" d="M28.3 22.48a1.5 1.5-6.3 1 1-2.97.33 1.5 1.5-6.3 1 1 2.96-.32z" color="#000" overflow="visible"/><path fill="#fff" fill-opacity=".125" d="M24.6 20.96a1.5 1.5-6.3 1 1-2.96.32 1.5 1.5-6.3 1 1 2.97-.32z" color="#000" overflow="visible"/><path fill="#fff" fill-opacity=".125" d="M18.77 27.62a1.5 1.5-6.3 1 1-2.97.33 1.5 1.5-6.3 1 1 2.97-.33z" color="#000" overflow="visible"/><path fill="#fff" fill-opacity=".125" d="M15.98 30.92a1.5 1.5-6.3 1 1-2.97.33 1.5 1.5-6.3 1 1 2.98-.33z" color="#000" overflow="visible"/><path fill="#fff" fill-opacity=".125" d="M13.7 33.02a1.5 1.5-6.3 1 1-2.98.33 1.5 1.5-6.3 1 1 2.97-.33z" color="#000" overflow="visible"/><path fill="#fff" fill-opacity=".125" d="M20.6 35.05a1.5 1.5-6.3 1 1-2.96.33 1.5 1.5-6.3 1 1 2.97-.33z" color="#000" overflow="visible"/><path fill="#fff" fill-opacity=".125" d="M29 16.9a1.94 1.94-6.3 1 1-3.86.43A1.94 1.94-6.3 1 1 29 16.9z" color="#000" overflow="visible"/><path fill="#fff" fill-opacity=".125" d="M18.05 28.74a2.3 2.3 0 1 1-4.57 0 2.3 2.3 0 1 1 4.57 0z" color="#000" overflow="visible"/><path fill="#fff" fill-opacity=".125" d="M15 32.36a2.3 2.3 0 1 1-4.57 0 2.3 2.3 0 1 1 4.57 0z" color="#000" overflow="visible"/><path fill="#fff" fill-opacity=".125" d="M12.46 34.7a2.3 2.3 0 1 1-4.57 0 2.3 2.3 0 1 1 4.56 0z" color="#000" overflow="visible"/><path fill="#fff" fill-opacity=".125" d="M21.3 35.34a2.3 2.3 0 1 1-4.6 0 2.3 2.3 0 1 1 4.6 0z" color="#000" overflow="visible"/><path fill="#fff" fill-opacity=".125" d="M26.62 27.34a2.3 2.3 0 1 1-4.57 0 2.3 2.3 0 1 1 4.57 0z" color="#000" overflow="visible"/><path fill="#fff" fill-opacity=".125" d="M18.07 30.9a1.76 1.76 0 1 1-3.52 0 1.76 1.76 0 1 1 3.52 0z" color="#000" overflow="visible"/><path fill="#fff" fill-opacity=".125" d="M19.77 28.97a1.76 1.76 0 1 1-3.52 0 1.76 1.76 0 1 1 3.52 0z" color="#000" overflow="visible"/><path fill="#fff" fill-opacity=".125" d="M23.78 23.98a1.76 1.76 0 1 1-3.52 0 1.76 1.76 0 1 1 3.52 0z" color="#000" overflow="visible"/><path fill="#fff" fill-opacity=".125" d="M25.6 22.48a1.5 1.5 0 1 1-3 0 1.5 1.5 0 1 1 3 0z" color="#000" overflow="visible"/><path fill="#fff" fill-opacity=".125" d="M26.3 20.62a1.5 1.5 0 1 1-3 0 1.5 1.5 0 1 1 3 0z" color="#000" overflow="visible"/><path fill="#fff" fill-opacity=".125" d="M27.63 19.7a1.5 1.5 0 1 1-3 0 1.5 1.5 0 1 1 3 0z" color="#000" overflow="visible"/><path fill="#fff" fill-opacity=".125" d="M28.9 17.76a1.5 1.5 0 1 1-2.97 0 1.5 1.5 0 1 1 2.98 0z" color="#000" overflow="visible"/><path fill="#fff" fill-opacity=".125" d="M30.74 16.64a1.5 1.5 0 1 1-3 0 1.5 1.5 0 1 1 3 0z" color="#000" overflow="visible"/><path fill="#fff" fill-opacity=".125" d="M31.48 14.98a1.5 1.5 0 1 1-2.98 0 1.5 1.5 0 1 1 2.98 0z" color="#000" overflow="visible"/><path fill="#fff" fill-opacity=".125" d="M32.93 13.48a1.5 1.5 0 1 1-2.98 0 1.5 1.5 0 1 1 2.98 0z" color="#000" overflow="visible"/><path fill="#fff" fill-opacity=".125" d="M14.6 33.9a1.76 1.76 0 1 1-3.54 0 1.76 1.76 0 1 1 3.53 0z" color="#000" overflow="visible"/><path fill="#fff" fill-opacity=".125" d="M21.05 34a1.76 1.76-6.3 1 1-3.5.4 1.76 1.76-6.3 1 1 3.5-.4z" color="#000" overflow="visible"/><path fill="#fff" fill-opacity=".125" d="M22.2 31.5a1.76 1.76-6.3 1 1-3.5.4 1.76 1.76-6.3 1 1 3.5-.4z" color="#000" overflow="visible"/><path fill="#fff" fill-opacity=".125" d="M24.5 27.36a1.76 1.76-6.3 1 1-3.5.4 1.76 1.76-6.3 1 1 3.5-.4z" color="#000" overflow="visible"/><path fill="#fff" fill-opacity=".125" d="M24.7 25.08a1.76 1.76-6.3 1 1-3.5.4 1.76 1.76-6.3 1 1 3.5-.4z" color="#000" overflow="visible"/><path fill="#fff" fill-opacity=".125" d="M26.04 24.24a1.76 1.76-6.3 1 1-3.5.4 1.76 1.76-6.3 1 1 3.5-.4z" color="#000" overflow="visible"/><path fill="#fff" fill-opacity=".125" d="M26.8 21.36a1.5 1.5-6.3 1 1-2.97.32 1.5 1.5-6.3 1 1 2.97-.32z" color="#000" overflow="visible"/><path fill="#fff" fill-opacity=".125" d="M28.02 20.3a1.5 1.5-6.3 1 1-2.97.33 1.5 1.5-6.3 1 1 2.97-.33z" color="#000" overflow="visible"/><path fill="#fff" fill-opacity=".125" d="M29.08 18.23a1.5 1.5-6.3 1 1-2.97.32 1.5 1.5-6.3 1 1 2.98-.32z" color="#000" overflow="visible"/><path fill="#fff" fill-opacity=".125" d="M30.77 16.9a1.5 1.5-6.3 1 1-2.97.34 1.5 1.5-6.3 1 1 2.97-.33z" color="#000" overflow="visible"/><path fill="#fff" fill-opacity=".125" d="M31.33 15.18a1.5 1.5-6.3 1 1-2.97.33 1.5 1.5-6.3 1 1 2.97-.32z" color="#000" overflow="visible"/><path fill="#fff" fill-opacity=".125" d="M33.78 12.16a1.15 1.15-6.3 1 1-2.28.25 1.15 1.15-6.3 1 1 2.28-.24z" color="#000" overflow="visible"/><path fill="#fff" fill-opacity=".125" d="M18.36 37.2a1.76 1.76-6.3 1 1-3.5.4 1.76 1.76-6.3 1 1 3.5-.4z" color="#000" overflow="visible"/><path fill="#fff" fill-opacity=".125" d="M24.14 24.04a1.5 1.5 0 1 1-2.98 0 1.5 1.5 0 1 1 2.98 0z" color="#000" overflow="visible"/><path fill="#fff" fill-opacity=".125" d="M25.97 22.92a1.5 1.5 0 1 1-3 0 1.5 1.5 0 1 1 3 0z" color="#000" overflow="visible"/><path fill="#fff" fill-opacity=".125" d="M26.7 21.26a1.5 1.5 0 1 1-2.97 0 1.5 1.5 0 1 1 2.98 0z" color="#000" overflow="visible"/><path fill="#fff" fill-opacity=".125" d="M23.34 29.48a1.5 1.5-6.3 1 1-2.96.33 1.5 1.5-6.3 1 1 2.96-.32z" color="#000" overflow="visible"/><path fill="#fff" fill-opacity=".125" d="M16.97 31.02a1.5 1.5-6.3 1 1-2.97.33 1.5 1.5-6.3 1 1 2.97-.33z" color="#000" overflow="visible"/><path fill="#fff" fill-opacity=".125" d="M15.4 32.62a1.5 1.5 0 1 1-2.98 0 1.5 1.5 0 1 1 3 0z" color="#000" overflow="visible"/><path fill="#fff" fill-opacity=".125" d="M21.03 32.97a1.5 1.5-6.3 1 1-2.97.32 1.5 1.5-6.3 1 1 2.97-.33z" color="#000" overflow="visible"/><path fill="#fff" fill-opacity=".125" d="M18.93 28.14a1.5 1.5-6.3 1 1-2.96.33 1.5 1.5-6.3 1 1 2.96-.33z" color="#000" overflow="visible"/><path fill="#fff" fill-opacity=".125" d="M34.03 11.08a1.15 1.15-6.3 1 1-2.3.25 1.15 1.15-6.3 1 1 2.3-.25z" color="#000" overflow="visible"/><path fill="#fff" fill-opacity=".125" d="M32.95 12.25a1.15 1.15-6.3 1 1-2.28.26 1.15 1.15-6.3 1 1 2.28-.25z" color="#000" overflow="visible"/><path fill="#fff" fill-opacity=".125" d="M34.52 10.07a.95.95-6.3 1 1-1.9.2.95.95-6.3 1 1 1.9-.2z" color="#000" overflow="visible"/><path fill="#fff" fill-opacity=".125" d="M29.23 15.92a1.15 1.15-6.3 1 1-2.28.26 1.15 1.15-6.3 1 1 2.28-.26z" color="#000" overflow="visible"/><path fill="#fff" fill-opacity=".125" d="M19.7 26.84a1.15 1.15-6.3 1 1-2.3.25 1.15 1.15-6.3 1 1 2.3-.26z" color="#000" overflow="visible"/><path fill="#fff" fill-opacity=".125" d="M17.54 29.38a1.15 1.15-6.3 1 1-2.3.25 1.15 1.15-6.3 1 1 2.3-.25z" color="#000" overflow="visible"/><path fill="#fff" fill-opacity=".125" d="M15.78 31a1.15 1.15-6.3 1 1-2.3.25 1.15 1.15-6.3 1 1 2.3-.26z" color="#000" overflow="visible"/><path fill="#fff" fill-opacity=".125" d="M21.1 32.56a1.15 1.15-6.3 1 1-2.28.25 1.15 1.15-6.3 1 1 2.3-.24z" color="#000" overflow="visible"/><path fill="#fff" fill-opacity=".125" d="M19.14 27.7a1.76 1.76 0 1 1-3.53 0 1.76 1.76 0 1 1 3.54 0z" color="#000" overflow="visible"/><path fill="#fff" fill-opacity=".125" d="M16.8 30.48a1.76 1.76 0 1 1-3.54 0 1.76 1.76 0 1 1 3.53 0z" color="#000" overflow="visible"/><path fill="#fff" fill-opacity=".125" d="M14.83 32.3a1.76 1.76 0 1 1-3.52 0 1.76 1.76 0 1 1 3.53 0z" color="#000" overflow="visible"/><path fill="#fff" fill-opacity=".125" d="M21.63 32.78a1.76 1.76 0 1 1-3.52 0 1.76 1.76 0 1 1 3.53 0z" color="#000" overflow="visible"/></g></svg>