<svg xmlns="http://www.w3.org/2000/svg" width="48" height="48"><defs><radialGradient id="a" cx="315.203" cy="358.042" r="21.887" gradientUnits="userSpaceOnUse" fy="358.042" fx="315.203"><stop offset="0" stop-color="#8893A0"/><stop offset=".492" stop-color="#ADB8C4"/><stop offset=".681" stop-color="#C9D0D8"/><stop offset=".994" stop-color="#fff"/></radialGradient><radialGradient id="b" cx="318.133" cy="370.921" r="26.49" gradientUnits="userSpaceOnUse" fy="370.921" fx="318.133" gradientTransform="matrix(1.041 0 0 1.041 -304.283 -348.747)"><stop offset="0" stop-color="#6C7580"/><stop offset="1" stop-color="#929CA6"/></radialGradient><radialGradient id="c" cx="314.765" cy="363.809" r="8.405" gradientUnits="userSpaceOnUse" fy="363.809" fx="314.765" gradientTransform="matrix(1.041 0 0 1.041 -304.283 -348.747)"><stop offset="0" stop-color="#6C7580"/><stop offset="1" stop-color="#929CA6"/></radialGradient><radialGradient id="d" cx="318.768" cy="354.42" r="15.165" gradientUnits="userSpaceOnUse" fy="354.42" fx="318.768" gradientTransform="matrix(1.041 0 0 1.041 -304.283 -348.747)"><stop offset="0" stop-color="#76808C"/><stop offset="1" stop-color="#B0B8BF"/></radialGradient><radialGradient id="e" cx="304.332" cy="361.986" r="17.851" gradientUnits="userSpaceOnUse" fy="361.986" fx="304.332" gradientTransform="matrix(1.041 0 0 1.041 -304.283 -348.747)"><stop offset="0" stop-color="#76808C"/><stop offset="1" stop-color="#B0B8BF"/></radialGradient><radialGradient id="f" cx="307.729" cy="351.74" r="7.897" gradientUnits="userSpaceOnUse" fy="351.74" fx="307.729" gradientTransform="matrix(1.041 0 0 1.041 -304.283 -348.747)"><stop offset="0" stop-color="#76808C"/><stop offset="1" stop-color="#B0B8BF"/></radialGradient><radialGradient id="g" cx="318.574" cy="372.9" r="15.221" gradientUnits="userSpaceOnUse" fy="372.9" fx="318.574" gradientTransform="matrix(1.041 0 0 1.041 -304.283 -348.747)"><stop offset="0" stop-color="#6C7580"/><stop offset=".492" stop-color="#929CA6"/><stop offset=".638" stop-color="#AEB5BD"/><stop offset=".952" stop-color="#F5F6F7"/><stop offset=".994" stop-color="#fff"/></radialGradient><radialGradient id="h" cx="335.62" cy="374.565" r="14.869" gradientUnits="userSpaceOnUse" fy="374.565" fx="335.62" gradientTransform="matrix(1.041 0 0 1.041 -304.283 -348.747)"><stop offset="0" stop-color="#6C7580"/><stop offset=".492" stop-color="#929CA6"/><stop offset=".638" stop-color="#AEB5BD"/><stop offset=".952" stop-color="#F5F6F7"/><stop offset=".994" stop-color="#fff"/></radialGradient><radialGradient id="i" cx="332.892" cy="368.342" r="14.863" gradientUnits="userSpaceOnUse" fy="368.342" fx="332.892" gradientTransform="matrix(1.041 0 0 1.041 -304.283 -348.747)"><stop offset="0" stop-color="#6C7580"/><stop offset=".492" stop-color="#929CA6"/><stop offset=".638" stop-color="#AEB5BD"/><stop offset=".952" stop-color="#F5F6F7"/><stop offset=".994" stop-color="#fff"/></radialGradient><radialGradient id="j" cx="314.765" cy="363.809" r="8.405" gradientUnits="userSpaceOnUse" fy="363.809" fx="314.765" gradientTransform="matrix(1.041 0 0 1.041 -304.283 -348.747)"><stop offset="0" stop-color="#6C7580"/><stop offset="1" stop-color="#929CA6"/></radialGradient><radialGradient id="k" cx="318.375" cy="361.222" r="18.375" gradientUnits="userSpaceOnUse" fy="361.222" fx="318.375" gradientTransform="matrix(1.041 0 0 1.041 -304.283 -348.747)"><stop offset="0" stop-color="#8893A0"/><stop offset=".492" stop-color="#ADB8C4"/><stop offset=".681" stop-color="#C9D0D8"/><stop offset=".994" stop-color="#fff"/></radialGradient><radialGradient id="l" cx="315.69" cy="355.318" r="16.055" gradientUnits="userSpaceOnUse" fy="355.318" fx="315.69" gradientTransform="matrix(1.041 0 0 1.041 -304.283 -348.747)"><stop offset="0" stop-color="#8893A0"/><stop offset=".492" stop-color="#ADB8C4"/><stop offset=".681" stop-color="#C9D0D8"/><stop offset=".994" stop-color="#fff"/></radialGradient><radialGradient id="m" cx="311.576" cy="358.001" r="12.205" gradientUnits="userSpaceOnUse" fy="358.001" fx="311.576" gradientTransform="matrix(1.041 0 0 1.041 -304.283 -348.747)"><stop offset="0" stop-color="#8893A0"/><stop offset=".492" stop-color="#ADB8C4"/><stop offset=".681" stop-color="#C9D0D8"/><stop offset=".994" stop-color="#fff"/></radialGradient><radialGradient id="n" cx="307.998" cy="364.442" r="13.441" gradientUnits="userSpaceOnUse" fy="364.442" fx="307.998" gradientTransform="matrix(1.041 0 0 1.041 -304.283 -348.747)"><stop offset="0" stop-color="#8893A0"/><stop offset=".492" stop-color="#ADB8C4"/><stop offset=".681" stop-color="#C9D0D8"/><stop offset=".994" stop-color="#fff"/></radialGradient><radialGradient id="o" cx="320.128" cy="381.382" r="31.953" gradientUnits="userSpaceOnUse" fy="381.382" fx="320.128" gradientTransform="matrix(1.041 0 0 1.041 -304.283 -348.747)"><stop offset="0" stop-color="#8893A0"/><stop offset=".492" stop-color="#ADB8C4"/><stop offset=".681" stop-color="#C9D0D8"/><stop offset=".994" stop-color="#fff"/></radialGradient><radialGradient id="w" cx="302.668" cy="338.619" r="35.988" gradientUnits="userSpaceOnUse" fy="338.619" fx="302.668"><stop offset="0" stop-color="#fff"/><stop offset="1" stop-color="#929CA6"/></radialGradient><radialGradient id="v" cx="302.667" cy="338.616" r="35.992" gradientUnits="userSpaceOnUse" fy="338.616" fx="302.667"><stop offset="0" stop-color="#fff"/><stop offset="1" stop-color="#929CA6"/></radialGradient><radialGradient id="u" cx="302.669" cy="338.614" r="35.991" gradientUnits="userSpaceOnUse" fy="338.614" fx="302.669"><stop offset="0" stop-color="#fff"/><stop offset="1" stop-color="#929CA6"/></radialGradient><radialGradient id="t" cx="302.668" cy="338.617" r="35.986" gradientUnits="userSpaceOnUse" fy="338.617" fx="302.668"><stop offset="0" stop-color="#fff"/><stop offset="1" stop-color="#929CA6"/></radialGradient><radialGradient id="s" cx="302.668" cy="338.618" r="35.981" gradientUnits="userSpaceOnUse" fy="338.618" fx="302.668"><stop offset="0" stop-color="#fff"/><stop offset="1" stop-color="#929CA6"/></radialGradient><radialGradient id="r" cx="302.668" cy="338.615" r="35.993" gradientUnits="userSpaceOnUse" fy="338.615" fx="302.668"><stop offset="0" stop-color="#fff"/><stop offset="1" stop-color="#929CA6"/></radialGradient><radialGradient id="q" cx="302.667" cy="338.615" r="35.993" gradientUnits="userSpaceOnUse" fy="338.615" fx="302.667"><stop offset="0" stop-color="#fff"/><stop offset="1" stop-color="#929CA6"/></radialGradient><radialGradient id="p" cx="302.663" cy="338.614" r="36.001" gradientUnits="userSpaceOnUse" fy="338.614" fx="302.663"><stop offset="0" stop-color="#fff"/><stop offset="1" stop-color="#929CA6"/></radialGradient></defs><g><circle cx="315.203" cy="358.042" r="21.887" fill="url(#a)" transform="matrix(1.041 0 0 1.041 -304.283 -348.747)"/><g fill="none" stroke="#363b40" stroke-width="2.401"><path d="M8.23 29.5c-3.38 1.67-2.94 6.77.76 6.57 1.82 4.33 7.2 7.4 14.74 7.43 7.5.04 15.12-2.9 15.02-7.2 1.68-.87 3.2-2.3 3.9-3.8.7-1.58.53-2.77.1-3.7 2.27-.77 1.73-4.54.28-4.7"/><path d="M43.04 24.1c2.25-2.23.4-5.9-2.28-5.3 2.1-6.87-8.12-10.28-11.15-4.35"/><path d="M29.6 14.45c1.6-3.1 5.12-3.64 7.85-2.5.46-1.78-1.33-2.44-2.12-1.88 0-.86-.03-2.55-1.88-3.64-2.08-1.24-4.28-.04-4.95.7-3.6-5.2-12.56-1.68-10.32 4.66"/><path d="M11.86 13.68c-1.96-.9-4.83-.38-6.3 1.76-1.24 1.83-.83 3.5-.32 4.48l.06.04c-.75.27-.8 1.74.47 2.3h-.04c.7-.16 1.6 0 2.55.82"/><path d="M11.86 13.68c-.7-.32-1.54-.46-2.4-.4-1.04-3.93 3.87-5.3 5.5-3.34.45-.93 2.17-1.17 2.87.05 0 .6.1 1.1.35 1.8"/><path d="M8.23 29.5c-1.26.63-2 1.74-2.22 2.87-1.58-.37-1.92-2.25-.94-3-1.6-1.14-1.05-2.75-.2-3.14-1.25-.74-1.14-2.52-.18-3.4.72-.67 2.08-1.08 3.6.25"/></g><path fill="url(#b)" d="M13.14 29.93c-.93-.92-3.52-1.07-4.95-.38-3.4 1.67-2.95 6.78.76 6.57 1.82 4.34 7.22 7.42 14.77 7.46 7.52.03 15.15-2.92 15.05-7.22 1.68-.87 3.2-2.3 3.9-3.8.72-1.6.54-2.78.1-3.73 2.28-.76 1.74-4.54.3-4.68.2-.83-.7-1.05-1.06-.68-.86-5.6-8.2-5.23-9-1.3-.52-1.4-4.78-2.5-6.34 1.27-6.5-2.86-12.58 2.26-13.54 6.5z"/><path fill="url(#c)" d="M43.07 24.15c2.25-2.25.4-5.94-2.3-5.3 2.13-6.9-8.13-10.33-11.16-4.38-.55-1.37-2.65-1.96-3.16.3-2.42-3.44-9.5-1-9.04 3.66l-.13.05c-1 .23-1.95.9-2.3 1.93 1.03.42 1.84 1.16 2.46 2.13.75-.3 1.7-.16 2.35.58l.02.02c2.07-.7 4.45-.76 6.88.32 1.56-3.78 5.82-2.66 6.33-1.27.8-3.93 8.16-4.3 9.02 1.3.37-.37 1.27-.15 1.05.68z"/><path fill="url(#d)" d="M37.46 11.97c.47-1.8-1.32-2.45-2.12-1.9 0-.86-.03-2.55-1.88-3.64-2.1-1.25-4.3-.04-4.96.7-3.6-5.22-12.58-1.68-10.34 4.67-1.32-.6-3.03.52-2.34 2.35.64 0 1.3.3 1.9.93.47-.47.76.08.76.08 2-2.3 6.2-2.88 7.96-.38.5-2.27 2.6-1.68 3.17-.3 1.6-3.1 5.13-3.67 7.86-2.5z"/><path fill="url(#e)" d="M14.96 20.4c.36-1 1.3-1.7 2.3-1.92l.14-.05c-.13-1.3.33-2.42 1.1-3.3l-.02.03s-.3-.55-.76-.08c-1.2-1.26-2.72-1.27-3.74.07-.7-.68-1.42-1.15-2.15-1.45-1.96-.9-4.84-.4-6.3 1.76-1.26 1.83-.84 3.5-.33 4.5l.05.02c-.74.28-.8 1.75.48 2.3l-.04.02c.7-.17 1.6-.02 2.54.8.82-1.63 2.92-3.22 5.2-3.03.56.04 1.07.16 1.54.35h-.02z"/><path fill="url(#f)" d="M17.8 10c.02.6.12 1.12.37 1.8-1.33-.6-3.04.52-2.35 2.35-.67 0-1.32.32-1.84 1-.7-.68-1.42-1.15-2.15-1.45-.7-.33-1.55-.47-2.4-.4C8.4 9.34 13.3 8 14.95 9.93c.44-.92 2.16-1.17 2.86.06z"/><path fill="url(#g)" d="M21.28 35.3c-3.4-.42-4.23-2.87-4.16-5.26.06-1.92 1.1-3.07 1.64-3-.27-2.66 5.25-5.87 9.08-1.85 1.36-.7 3.13 1.22 3.4 2.04.28.82-.8.34-1.22.55 1.03.44 2.25 2.1 2.25 3.4 0 1.37-1.26 3.9-4.12 3.9-2.85 0-3.04-2.12-3.04-2.66 0-.98.8-2.82 2.86-2.82-2.03 0-3.04.22-4.06 2.9-1.04-2.46-.28-5.54 1.9-6.52-1.64 0-3.52 1.05-4.12 2.25-.66-1.08-.66-1.8-.22-2.63-2.48 1.55-1.75 4.1-1.08 5-2.73 1.82.9 4.67.9 4.67z" opacity=".7"/><path fill="url(#h)" d="M40.96 31.86c-1-.87-2.7-1.18-3.72.46-.65-1.18.64-1.94.64-1.94-1.52.04-1.82 2-1.8 2.17-1.28-1.68.17-4.83 2.56-5.02 2.4-.2 3.65 1.44 3.6 2.36-1.1-1.16-2.42-.85-2.42-.85s3.3 1.25 1.14 2.8z" opacity=".7"/><path fill="url(#i)" d="M38.12 25.4c-1-.9-2.7-1.2-3.73.44-.65-1.17.64-1.93.64-1.93-1.52.04-1.82 2.02-1.8 2.17-1.28-1.67.17-4.82 2.56-5 2.4-.2 3.65 1.43 3.6 2.34-1.1-1.13-2.42-.82-2.42-.82s3.3 1.25 1.14 2.8z" opacity=".7"/><path fill="url(#j)" d="M17.43 22.53c.75-.3 1.7-.16 2.35.58l.02.02c-3.45 1.18-6.06 4.17-6.66 6.8-.92-.9-3.52-1.06-4.95-.37-1.28.63-2 1.74-2.23 2.87-1.6-.37-1.93-2.26-.96-3-1.6-1.15-1.03-2.76-.18-3.15-1.26-.74-1.15-2.53-.2-3.4.74-.67 2.1-1.1 3.62.24.82-1.63 2.92-3.22 5.2-3.03 1.82.15 3.1 1.05 4 2.46z"/><path fill="url(#k)" d="M43.1 24.35c2.25-2.25.4-5.93-2.3-5.3 2.12-6.9-8.13-10.32-11.17-4.37-.56-1.37-2.66-1.96-3.16.3-2.43-3.44-9.5-1-9.05 3.66l-.13.04c-1 .24-1.95.92-2.3 1.94 1.03.4 1.83 1.15 2.45 2.12.75-.3 1.7-.16 2.36.58h.02c2.07-.7 4.45-.75 6.9.32 1.55-3.77 5.8-2.65 6.3-1.26.82-3.93 8.16-4.3 9.03 1.3.37-.37 1.27-.15 1.04.67z"/><path fill="url(#l)" d="M37.5 12.18c.46-1.8-1.34-2.45-2.13-1.9 0-.86-.04-2.55-1.88-3.65-2.1-1.24-4.3-.03-4.98.7-3.6-5.2-12.58-1.67-10.33 4.68-1.34-.6-3.05.53-2.35 2.35.64 0 1.3.32 1.9.94.47-.48.75.07.75.07 2-2.3 6.2-2.88 7.96-.38.5-2.28 2.6-1.7 3.17-.32 1.6-3.1 5.13-3.66 7.86-2.5z"/><path fill="url(#m)" d="M15 20.62c.35-1.02 1.3-1.7 2.3-1.94l.12-.04c-.13-1.3.33-2.42 1.1-3.3v.03s-.3-.55-.78-.08C16.54 14 15.02 14 14 15.34c-.68-.67-1.4-1.14-2.14-1.44-1.97-.9-4.84-.38-6.3 1.77-1.26 1.82-.85 3.5-.34 4.5l.06.02c-.75.27-.8 1.73.47 2.3h-.03c.7-.16 1.6 0 2.55.82.82-1.64 2.92-3.23 5.2-3.04.56.04 1.07.16 1.53.35z"/><path fill="url(#n)" d="M17.45 22.74c.75-.3 1.7-.16 2.36.58h.03c-3.46 1.18-6.07 4.18-6.67 6.82-.92-.92-3.52-1.08-4.94-.37-1.27.62-2 1.73-2.23 2.86-1.6-.38-1.94-2.26-.96-3-1.62-1.15-1.05-2.76-.2-3.15-1.25-.74-1.15-2.53-.18-3.4.72-.68 2.1-1.08 3.6.24.83-1.64 2.92-3.23 5.2-3.04 1.82.15 3.1 1.05 4 2.46z"/><path fill="url(#o)" d="M42.17 28.9c1.8-.42 3.25-3.85-.15-5.43.22-3.66-6.74-5.95-9-1.34-1.22-1.08-4.46-.96-5.32 2.2-4.47-3.52-11.25.14-13.04 2.72-.42.5-1.52 2.88-1.52 2.88-.92-.92-3.52-1.07-4.95-.38-3.4 1.67-2.95 6.78.76 6.57.7-.1 1.17.5 1.9.25 2.1 10.1 27.72 7.16 27.06-.13 2.08-.72 5.9-3.75 4.25-7.33z"/><g transform="matrix(1.041 0 0 1.041 -304.283 -348.747)" opacity=".7"><radialGradient cx="302.663" cy="338.614" r="36.001" gradientUnits="userSpaceOnUse" fy="338.614" fx="302.663"><stop offset="0" stop-color="#fff"/><stop offset="1" stop-color="#929CA6"/></radialGradient><path fill="url(#p)" d="M324.42 345.56c-.95-.83-2.6-1.13-3.58.44-.62-1.13.62-1.86.62-1.86-1.46.04-1.75 1.94-1.7 2.08-1.25-1.6.13-4.63 2.43-4.8 2.3-.2 3.5 1.37 3.46 2.25-1.06-1.1-2.34-.8-2.34-.8s3.18 1.2 1.1 2.7z"/><radialGradient cx="302.667" cy="338.615" r="35.993" gradientUnits="userSpaceOnUse" fy="338.615" fx="302.667"><stop offset="0" stop-color="#fff"/><stop offset="1" stop-color="#929CA6"/></radialGradient><path fill="url(#q)" d="M316.4 352.58c-.94-.84-2.58-1.13-3.57.44-.62-1.13.63-1.86.63-1.86-1.46.03-1.76 1.93-1.72 2.08-1.24-1.6.14-4.64 2.44-4.82 2.3-.18 3.5 1.4 3.47 2.26-1.06-1.1-2.33-.8-2.33-.8s3.17 1.2 1.1 2.7z"/><radialGradient cx="302.668" cy="338.615" r="35.993" gradientUnits="userSpaceOnUse" fy="338.615" fx="302.668"><stop offset="0" stop-color="#fff"/><stop offset="1" stop-color="#929CA6"/></radialGradient><path fill="url(#r)" d="M322.53 350.42c1.02.6 2.56-.36 3.25-1.2.7-.84 1.24-1.9 2.7-1.46-1.1-.48-2.23 1.4-2.3 2.48.88.14 1.57-.8 2.77-.84.55 0 .76.4 1.24.18.54-.25 1.05-.73-.33-1.75-1.4-1.02-3.25-2.26-6-.9-2.73 1.34-1.68 3.3-1.34 3.5z"/><radialGradient cx="302.668" cy="338.618" r="35.981" gradientUnits="userSpaceOnUse" fy="338.618" fx="302.668"><stop offset="0" stop-color="#fff"/><stop offset="1" stop-color="#929CA6"/></radialGradient><path fill="url(#s)" d="M302.5 346.93c.7.4 1.7-.24 2.17-.8.46-.56.83-1.27 1.8-.98-.73-.3-1.48.93-1.53 1.66.58.1 1.05-.53 1.85-.55.35 0 .5.27.8.12.38-.17.72-.5-.2-1.17-.93-.68-2.17-1.5-4-.6-1.82.9-1.12 2.2-.9 2.33z"/><radialGradient cx="302.668" cy="338.617" r="35.986" gradientUnits="userSpaceOnUse" fy="338.617" fx="302.668"><stop offset="0" stop-color="#fff"/><stop offset="1" stop-color="#929CA6"/></radialGradient><path fill="url(#t)" d="M302.75 354.52c-.63 0-1.56.48-2.04-.82-.47-1.3.83-2.04 1.1-2.04-1.3.2-2.18 1.7-1.98 2.45-.95-.6-.6-1.97 0-2.37-.54.13-.6.4-.6.4-.5.55-.33-2.3 1.23-3.04 1.73-.8 3.2.24 3.67.65.8-.34 2.24.27 2.52.6.27.35 1.77 2.12.54 1.78-.6-.13-1.3-1.97-2.93-1.15.9-.14 1.7.33 1.9 1.02.1.26.2.47-.13 1.15-.15.3-1.77 1.37-3.27 1.37z"/><radialGradient cx="302.669" cy="338.614" r="35.991" gradientUnits="userSpaceOnUse" fy="338.614" fx="302.669"><stop offset="0" stop-color="#fff"/><stop offset="1" stop-color="#929CA6"/></radialGradient><path fill="url(#u)" d="M314.36 345.62c-.63 0-1.57.48-2.05-.82-.47-1.3.83-2.04 1.1-2.04-1.3.2-2.18 1.7-1.97 2.45-.96-.6-.62-1.96 0-2.37-.55.14-.62.4-.62.4-.46.55 0-1.56 1.1-2.17 1.1-.62 3.34-.62 3.82-.2.8-.35 2.25.26 2.52.6.27.35 1.77 2.12.55 1.78-.63-.14-1.3-1.98-2.95-1.16.9-.14 1.7.34 1.9 1.02.1.26.22.48-.13 1.16-.15.3-1.77 1.36-3.26 1.36z"/><radialGradient cx="302.667" cy="338.616" r="35.992" gradientUnits="userSpaceOnUse" fy="338.616" fx="302.667"><stop offset="0" stop-color="#fff"/><stop offset="1" stop-color="#929CA6"/></radialGradient><path fill="url(#v)" d="M306.84 359.26c-.95-.83-2.6-1.13-3.58.44-.62-1.13.62-1.86.62-1.86-1.46.04-1.75 1.94-1.7 2.08-1.25-1.6.13-4.63 2.43-4.8 2.3-.2 3.5 1.37 3.48 2.25-1.06-1.1-2.34-.8-2.34-.8s3.18 1.2 1.1 2.7z"/><radialGradient cx="302.668" cy="338.619" r="35.988" gradientUnits="userSpaceOnUse" fy="338.619" fx="302.668"><stop offset="0" stop-color="#fff"/><stop offset="1" stop-color="#929CA6"/></radialGradient><path fill="url(#w)" d="M304.6 364c-1.5-.96-3.4-1.13-3.98.57-.38 1.1.65 1.96 1.87 2.06 1.2.1 4.1.28 4.76 1.02-.94-2.14-1.63-3-2.66-3.66z"/></g><g fill="#c8d0d9"><path d="M34.02 23.05c.57-2.78 4.4-3.77 6.9-2.13-2.28-2.78-7.2-1.95-7.9 1.2.5.25.87.58 1 .93z"/><path d="M9.2 30.44c1.43-.7 4.03-.54 4.95.38.96-4.23 7.05-9.35 13.55-6.5 1.15-2.8 3.78-2.9 5.28-2.2-.6-1.37-4.76-2.4-6.3 1.3-6.5-2.84-12.58 2.28-13.54 6.5-.93-.9-3.52-1.07-4.95-.37-2.84 1.4-2.98 5.2-.78 6.28-1.04-1.57-.5-4.27 1.78-5.4z"/><path d="M9.97 37c-.2.02-.4 0-.6 0 .66 1.15 1.58 2.2 2.73 3.1-.93-.92-1.65-1.96-2.13-3.1z"/><path d="M33.02 22.13s-.03 0-.04-.02c0 .03.02.05.03.07 0-.02.02-.03.02-.04z"/></g><g fill="#c8d0d9"><path d="M17.65 19.5l.13-.05c-.46-4.67 6.62-7.1 9.04-3.66.5-2.28 2.6-1.7 3.17-.32 2.33-4.6 8.96-3.6 10.9.26-1.2-4.67-8.76-6.24-11.3-1.27-.56-1.37-2.65-1.96-3.16.3-2.42-3.44-9.5-1-9.04 3.66l-.13.05c-1 .23-1.95.9-2.3 1.93.25.1.5.23.7.37.48-.66 1.2-1.1 1.98-1.28z"/><path d="M44 21.15c-.25-1.3-1.27-2.37-2.6-2.38-.05.35-.12.7-.24 1.08 1.23-.3 2.28.33 2.85 1.3z"/></g><g><path fill="#dbdfe6" d="M18.85 12.83C16.6 6.48 25.6 2.95 29.2 8.16c.66-.74 2.86-1.94 4.95-.7.36.2.63.44.86.7-.25-.62-.7-1.24-1.53-1.73-2.1-1.25-4.3-.04-4.97.7-3.6-5.22-12.58-1.68-10.33 4.67-1.33-.6-3.04.52-2.35 2.35.18 0 .36.02.54.07.1-1.23 1.42-1.87 2.5-1.4z"/><path fill="#c8d0d9" d="M37.52 11.15c-.14-.88-.93-1.3-1.6-1.26.1.46.1.9.1 1.2.4-.26 1-.24 1.5.05z"/></g><g><path fill="#dbdfe6" d="M6.33 21.2l-.06-.03c-.5-1-.93-2.67.32-4.5 1.46-2.14 4.34-2.65 6.3-1.75.73.3 1.46.76 2.16 1.44.8-1.07 1.96-1.26 3-.64.13-.2.28-.4.44-.6l-.02.04s-.3-.55-.76-.08c-1.2-1.26-2.72-1.27-3.74.06-.7-.67-1.42-1.14-2.15-1.44-1.97-.9-4.84-.4-6.3 1.76-1.26 1.82-.84 3.5-.33 4.5l.05.02c-.74.28-.8 1.74.48 2.3l-.04.02c.03 0 .07-.02.1-.02-.05-.5.15-.94.53-1.08z"/></g><g><path fill="#ebeef2" d="M15.54 10.87c.35-.72 1.48-1.02 2.3-.52-.02-.12-.03-.23-.03-.35-.7-1.23-2.4-.98-2.86-.06C13.3 8 8.38 9.34 9.42 13.3h.02c.15-.02.3-.02.45 0-.1-3.2 4.14-4.2 5.64-2.43z"/></g><g fill="#c8d0d9"><path d="M19.58 23.2c.07-.02.15-.05.22-.08h-.02c-.58-.67-1.4-.85-2.1-.66.23.25.44.53.64.83.4-.16.83-.2 1.26-.1z"/><path d="M5.9 30.17c-1.62-1.14-1.05-2.75-.2-3.14-1.25-.74-1.15-2.53-.18-3.4.72-.68 2.1-1.1 3.6.24.83-1.64 2.92-3.23 5.2-3.04.95.08 1.75.36 2.42.8-.83-.88-1.9-1.45-3.3-1.56-2.28-.2-4.38 1.4-5.2 3.04-1.52-1.32-2.88-.9-3.6-.24-.97.88-1.08 2.67.18 3.4-.85.4-1.42 2 .2 3.15-.9.7-.68 2.32.6 2.88-.43-.7-.34-1.64.28-2.1z"/></g><g fill="none" stroke="#fff" stroke-width=".48"><path d="M37.46 11.97c.47-1.8-1.32-2.45-2.12-1.9 0-.86-.03-2.55-1.88-3.64-2.1-1.25-4.3-.04-4.96.7-3.6-5.22-12.58-1.68-10.34 4.67-1.34-.6-3.08.55-2.3 2.42"/><path d="M17.8 10c-.7-1.23-2.4-.98-2.85-.06C13.3 8 8.4 9.34 9.43 13.3"/><path d="M11.62 13.7c-1.97-.9-4.63-.4-6.1 1.76-1.66 2.44-.37 4.6.16 5.23"/><path d="M5.25 19.98c-.76.28-.8 1.8.56 2.34"/><path d="M14.95 20.45c.7-2.1 3.8-2.78 5.06-1.2"/><path d="M19.7 18.95c.7-.76 3.17-1.7 4.63.57"/><path d="M17.42 18.6c-.67-4.77 6.57-7.32 9.02-3.82.5-2.27 2.6-1.68 3.17-.3 3.04-5.96 13.3-2.54 11.18 4.36 2.7-.63 4.54 3.06 2.3 5.3 1.44.15 1.98 3.93-.3 4.7.44.94.62 2.13-.1 3.7-1.02 2.22-3.87 4.3-6.33 4.63"/><path d="M17.68 22.93c-.9-1.54-2.32-2.7-4.24-2.86-2.28-.2-4.38 1.4-5.2 3.04-1.52-1.32-2.88-.9-3.6-.24-.97.88-1.08 2.67.18 3.4-.85.4-1.42 2 .2 3.15-.98.76-.64 2.64.95 3.02"/><path d="M5.56 15.46c1.2-2.1 5.2-3.48 8.42-.32 1.02-1.33 2.54-1.32 3.74-.06"/><path d="M13.1 31.73c-.9-4.75 7.45-12.96 15.7-7.1"/><path d="M26.67 23.47c1.55-3.82 5.83-2.7 6.34-1.3"/><path d="M33 22.17c.8-3.93 8.16-4.3 9.02 1.3"/><path d="M17.43 22.53c.75-.3 1.7-.16 2.35.58"/><path d="M13.14 29.93c-.93-.92-3.52-1.07-4.95-.38-3.4 1.67-2.95 6.78.76 6.57 1.82 4.34 7.22 7.42 14.77 7.46 7.52.03 15.15-2.92 15.05-7.22"/></g><circle cx="315.203" cy="358.042" r="22.5" fill="none" stroke="#ed2728" stroke-width=".96" transform="matrix(1.041 0 0 1.041 -304.283 -348.747)" stroke-dasharray="1.72865854, 2.40091463"/></g></svg>