<svg xmlns="http://www.w3.org/2000/svg" width="48" height="48" xmlns:xlink="http://www.w3.org/1999/xlink"><defs><linearGradient id="b"><stop offset="0" stop-color="#fff"/><stop offset="1" stop-color="#ece7ba"/></linearGradient><linearGradient id="a"><stop offset="0" stop-color="#f2eda9"/><stop offset="1" stop-color="#f2eda9" stop-opacity="0"/></linearGradient><linearGradient><stop offset="0" stop-color="#e2ebf5"/><stop offset="1" stop-color="#4781d4"/></linearGradient><radialGradient id="c" cx="24.071" cy="23.929" r="22.786" xlink:href="#a" fx="24.071" fy="23.929" gradientUnits="userSpaceOnUse"/><radialGradient id="d" cx="23.929" cy="24.714" r="5.714" xlink:href="#b" fx="23.929" fy="24.714" gradientTransform="matrix(1 0 0 .588 -9.773 36.648)" gradientUnits="userSpaceOnUse"/><radialGradient id="e" cx="23.929" cy="24.714" r="5.714" xlink:href="#b" gradientUnits="userSpaceOnUse" gradientTransform="matrix(1 0 0 .588 4.827 25.672)" fx="23.929" fy="24.714"/><radialGradient id="f" cx="23.929" cy="24.714" r="5.714" xlink:href="#b" gradientUnits="userSpaceOnUse" gradientTransform="matrix(1 0 0 .588 7.984 15.649)" fx="23.929" fy="24.714"/><radialGradient id="g" cx="23.929" cy="24.714" r="5.714" xlink:href="#b" gradientUnits="userSpaceOnUse" gradientTransform="matrix(1 0 0 .588 9.977 -1.568)" fx="23.929" fy="24.714"/><radialGradient id="h" cx="23.929" cy="24.714" r="5.714" xlink:href="#b" gradientUnits="userSpaceOnUse" gradientTransform="matrix(1 0 0 .588 3.412 -18.195)" fx="23.929" fy="24.714"/><radialGradient id="i" cx="23.929" cy="24.714" r="5.714" xlink:href="#b" gradientUnits="userSpaceOnUse" gradientTransform="matrix(1 0 0 .588 -13.249 -66.751)" fx="23.929" fy="24.714"/><radialGradient id="j" cx="23.929" cy="24.714" r="5.714" xlink:href="#b" gradientUnits="userSpaceOnUse" gradientTransform="matrix(1 0 0 .588 -5.838 -61.945)" fx="23.929" fy="24.714"/><radialGradient id="k" cx="23.929" cy="24.714" r="5.714" xlink:href="#b" gradientUnits="userSpaceOnUse" gradientTransform="matrix(1 0 0 .588 -26.097 -63.568)" fx="23.929" fy="24.714"/><radialGradient id="l" cx="23.929" cy="24.714" r="5.714" xlink:href="#b" gradientUnits="userSpaceOnUse" gradientTransform="matrix(1 0 0 .588 22.323 -25.459)" fx="23.929" fy="24.714"/><radialGradient id="m" cx="23.929" cy="24.714" r="5.714" xlink:href="#b" gradientUnits="userSpaceOnUse" gradientTransform="matrix(1 0 0 .588 12.896 -44.136)" fx="23.929" fy="24.714"/><radialGradient id="n" cx="23.929" cy="24.714" r="5.714" xlink:href="#b" gradientUnits="userSpaceOnUse" gradientTransform="matrix(1 0 0 .588 -25.304 -59.909)" fx="23.929" fy="24.714"/><radialGradient id="o" cx="23.929" cy="24.714" r="5.714" xlink:href="#b" gradientUnits="userSpaceOnUse" gradientTransform="matrix(1 0 0 .588 -46.3 -47.811)" fx="23.929" fy="24.714"/><radialGradient id="p" cx="23.929" cy="24.714" r="5.714" xlink:href="#b" gradientUnits="userSpaceOnUse" gradientTransform="matrix(1 0 0 .588 -32.511 18.334)" fx="23.929" fy="24.714"/><radialGradient id="q" cx="23.929" cy="24.714" r="5.714" xlink:href="#b" gradientUnits="userSpaceOnUse" gradientTransform="matrix(1 0 0 .587 -51.436 -18.259)" fx="23.929" fy="24.714"/><radialGradient id="r" cx="23.929" cy="24.714" r="5.714" xlink:href="#b" gradientUnits="userSpaceOnUse" gradientTransform="matrix(1 0 0 .587 -59.288 -3.333)" fx="23.929" fy="24.714"/><radialGradient id="s" cx="23.929" cy="24.714" r="5.714" xlink:href="#b" gradientUnits="userSpaceOnUse" gradientTransform="matrix(1 0 0 .587 -6.484 22.221)" fx="23.929" fy="24.714"/><radialGradient id="t" cx="23.929" cy="24.714" r="5.714" xlink:href="#b" gradientUnits="userSpaceOnUse" gradientTransform="matrix(1 0 0 .587 -18.473 28.453)" fx="23.929" fy="24.714"/><radialGradient id="u" cx="23.929" cy="24.714" r="5.714" xlink:href="#b" gradientUnits="userSpaceOnUse" gradientTransform="matrix(1 0 0 .587 15.092 -37.078)" fx="23.929" fy="24.714"/><radialGradient id="v" cx="23.929" cy="24.714" r="5.714" xlink:href="#b" gradientUnits="userSpaceOnUse" gradientTransform="matrix(1 0 0 .587 -20.269 -61.661)" fx="23.929" fy="24.714"/><radialGradient id="w" cx="23.929" cy="24.714" r="5.714" xlink:href="#b" gradientUnits="userSpaceOnUse" gradientTransform="matrix(1 0 0 .587 -28.522 -53.77)" fx="23.929" fy="24.714"/><radialGradient id="x" cx="23.929" cy="24.714" r="5.714" xlink:href="#b" gradientUnits="userSpaceOnUse" gradientTransform="matrix(1 0 0 .587 -47.504 -42.205)" fx="23.929" fy="24.714"/><radialGradient id="y" cx="23.929" cy="24.714" r="5.714" xlink:href="#b" gradientUnits="userSpaceOnUse" gradientTransform="matrix(1 0 0 .587 -29.054 15.644)" fx="23.929" fy="24.714"/><radialGradient id="z" cx="23.929" cy="24.714" r="5.714" xlink:href="#b" gradientUnits="userSpaceOnUse" gradientTransform="matrix(1 0 0 .587 -55.956 -18.731)" fx="23.929" fy="24.714"/><radialGradient id="C" cx="23.929" cy="24.714" r="5.714" xlink:href="#b" gradientUnits="userSpaceOnUse" gradientTransform="matrix(1 0 0 .587 -35.973 6.982)" fx="23.929" fy="24.714"/><radialGradient id="A" cx="23.929" cy="24.714" r="5.714" xlink:href="#b" gradientUnits="userSpaceOnUse" gradientTransform="matrix(1 0 0 .587 -25.81 6.109)" fx="23.929" fy="24.714"/><radialGradient id="B" cx="23.929" cy="24.714" r="5.714" xlink:href="#b" gradientUnits="userSpaceOnUse" gradientTransform="matrix(1 0 0 .587 -.294 11.259)" fx="23.929" fy="24.714"/></defs><g><circle cx="315.203" cy="442.042" r="22.5" fill="none" stroke="#ed2728" stroke-width=".961" transform="matrix(1.041 0 0 1.041 -304.211 -436.113)" stroke-dasharray="1.72903715, 2.40144049"/><path fill="url(#c)" fill-rule="evenodd" d="M46.86 23.93a22.8 22.8 0 1 1-45.57 0 22.8 22.8 0 1 1 45.56 0z" color="#000" overflow="visible" enable-background="accumulate"/><rect width="10.429" height="5.714" x="8.941" y="48.311" fill="url(#d)" fill-rule="evenodd" stroke="#a4944d" ry="2.857" transform="rotate(-24.46)" enable-background="accumulate" overflow="visible" color="#000"/><rect width="10.429" height="5.714" x="23.542" y="37.335" fill="url(#e)" fill-rule="evenodd" stroke="#a4944d" color="#000" ry="2.857" transform="rotate(6.053)" overflow="visible" enable-background="accumulate"/><rect width="10.429" height="5.714" x="26.699" y="27.311" fill="url(#f)" fill-rule="evenodd" stroke="#a4944d" ry="2.857" transform="rotate(26.141)" enable-background="accumulate" overflow="visible" color="#000"/><rect width="10.429" height="5.714" x="28.691" y="10.094" fill="url(#g)" fill-rule="evenodd" stroke="#a4944d" color="#000" ry="2.857" transform="rotate(55.55)" overflow="visible" enable-background="accumulate"/><rect width="10.429" height="5.714" x="22.126" y="-6.533" fill="url(#h)" fill-rule="evenodd" stroke="#a4944d" ry="2.857" transform="rotate(87.366)" enable-background="accumulate" overflow="visible" color="#000"/><rect width="10.429" height="5.714" x="5.465" y="-55.089" fill="url(#i)" fill-rule="evenodd" stroke="#a4944d" color="#000" ry="2.857" transform="matrix(-.492 .871 -.871 -.492 0 0)" overflow="visible" enable-background="accumulate"/><rect width="10.429" height="5.714" x="12.876" y="-50.283" fill="url(#j)" fill-rule="evenodd" stroke="#a4944d" ry="2.857" transform="matrix(-.192 .981 -.981 -.192 0 0)" enable-background="accumulate" overflow="visible" color="#000"/><rect width="10.429" height="5.714" x="-7.382" y="-51.905" fill="url(#k)" fill-rule="evenodd" stroke="#a4944d" color="#000" ry="2.857" transform="matrix(-.665 .747 -.747 -.665 0 0)" overflow="visible" enable-background="accumulate"/><rect width="10.429" height="5.714" x="41.038" y="-13.797" fill="url(#l)" fill-rule="evenodd" stroke="#a4944d" ry="2.857" transform="rotate(58.49)" enable-background="accumulate" overflow="visible" color="#000"/><rect width="10.429" height="5.714" x="31.61" y="-32.474" fill="url(#m)" fill-rule="evenodd" stroke="#a4944d" color="#000" ry="2.857" transform="rotate(89.513)" overflow="visible" enable-background="accumulate"/><rect width="10.429" height="5.714" x="-6.589" y="-48.247" fill="url(#n)" fill-rule="evenodd" stroke="#a4944d" ry="2.857" transform="matrix(-.871 .491 -.491 -.871 0 0)" enable-background="accumulate" overflow="visible" color="#000"/><rect width="10.429" height="5.714" x="-27.586" y="-36.149" fill="url(#o)" fill-rule="evenodd" stroke="#a4944d" color="#000" ry="2.857" transform="matrix(-.987 -.159 .159 -.987 0 0)" overflow="visible" enable-background="accumulate"/><rect width="10.429" height="5.714" x="-13.797" y="29.996" fill="url(#p)" fill-rule="evenodd" stroke="#a4944d" ry="2.857" transform="rotate(-36.241)" enable-background="accumulate" overflow="visible" color="#000"/><rect width="10.429" height="5.714" x="-32.722" y="-6.596" fill="url(#q)" fill-rule="evenodd" stroke="#a4944d" color="#000" ry="2.857" transform="matrix(-.446 -.895 .895 -.446 0 0)" overflow="visible" enable-background="accumulate"/><rect width="10.429" height="5.714" x="-40.573" y="8.33" fill="url(#r)" fill-rule="evenodd" stroke="#a4944d" ry="2.857" transform="matrix(-.214 -.977 .977 -.214 0 0)" enable-background="accumulate" overflow="visible" color="#000"/><rect width="10.429" height="5.714" x="12.23" y="33.883" fill="url(#s)" fill-rule="evenodd" stroke="#a4944d" color="#000" ry="2.857" transform="rotate(-11.39)" overflow="visible" enable-background="accumulate"/><rect width="10.429" height="5.714" x=".242" y="40.115" fill="url(#t)" fill-rule="evenodd" stroke="#a4944d" ry="2.857" transform="rotate(-39.969)" enable-background="accumulate" overflow="visible" color="#000"/><rect width="10.429" height="5.714" x="33.807" y="-25.416" fill="url(#u)" fill-rule="evenodd" stroke="#a4944d" color="#000" ry="2.857" transform="rotate(63.068)" overflow="visible" enable-background="accumulate"/><rect width="10.429" height="5.714" x="-1.555" y="-49.999" fill="url(#v)" fill-rule="evenodd" stroke="#a4944d" ry="2.857" transform="matrix(-.392 .92 -.92 -.392 0 0)" enable-background="accumulate" overflow="visible" color="#000"/><rect width="10.429" height="5.714" x="-9.808" y="-42.107" fill="url(#w)" fill-rule="evenodd" stroke="#a4944d" color="#000" ry="2.857" transform="matrix(-.679 .734 -.734 -.679 0 0)" overflow="visible" enable-background="accumulate"/><rect width="10.429" height="5.714" x="-28.789" y="-30.543" fill="url(#x)" fill-rule="evenodd" stroke="#a4944d" ry="2.857" transform="matrix(-1 .029 -.029 -1 0 0)" enable-background="accumulate" overflow="visible" color="#000"/><rect width="10.429" height="5.714" x="-10.34" y="27.307" fill="url(#y)" fill-rule="evenodd" stroke="#a4944d" color="#000" ry="2.857" transform="rotate(-41.962)" overflow="visible" enable-background="accumulate"/><rect width="10.429" height="5.714" x="-37.242" y="-7.068" fill="url(#z)" fill-rule="evenodd" stroke="#a4944d" ry="2.857" transform="matrix(-.818 -.575 .575 -.818 0 0)" enable-background="accumulate" overflow="visible" color="#000"/><rect width="10.429" height="5.714" x="-7.096" y="17.772" fill="url(#A)" fill-rule="evenodd" stroke="#a4944d" ry="2.857" transform="rotate(-24.333)" enable-background="accumulate" overflow="visible" color="#000"/><rect width="10.429" height="5.714" x="18.421" y="22.922" fill="url(#B)" fill-rule="evenodd" stroke="#a4944d" color="#000" ry="2.857" transform="rotate(-16.782)" overflow="visible" enable-background="accumulate"/><rect width="10.429" height="5.714" x="-17.259" y="18.644" fill="url(#C)" fill-rule="evenodd" stroke="#a4944d" color="#000" ry="2.857" transform="rotate(-63.269)" overflow="visible" enable-background="accumulate"/></g></svg>