<svg xmlns="http://www.w3.org/2000/svg" width="48" height="48"><defs><radialGradient id="a" cx="314.852" cy="274.267" r="21.887" gradientUnits="userSpaceOnUse" fy="274.267" fx="314.852"><stop offset="0" stop-color="#F17912"/><stop offset=".348" stop-color="#F6E94F"/><stop offset=".603" stop-color="#FAAF3E"/><stop offset=".662" stop-color="#FBBE62"/><stop offset=".779" stop-color="#FDDAA5"/><stop offset=".878" stop-color="#FEEED6"/><stop offset=".952" stop-color="#FFFAF4"/><stop offset=".994" stop-color="#fff"/></radialGradient><linearGradient id="b" x1="314.846" x2="314.846" y1="293.769" y2="254.912" gradientUnits="userSpaceOnUse" gradientTransform="matrix(1.041 0 0 1.041 -303.917 -261.515)"><stop offset="0" stop-color="#E86712"/><stop offset=".622" stop-color="#D52E0C"/><stop offset="1" stop-color="#CB1009"/></linearGradient><linearGradient id="c" x1="314.353" x2="314.353" y1="291.228" y2="247.325" gradientUnits="userSpaceOnUse" gradientTransform="matrix(1.041 0 0 1.041 -303.917 -261.515)"><stop offset="0" stop-color="#EBD30F"/><stop offset=".393" stop-color="#E86712"/><stop offset=".771" stop-color="#D52E0C"/><stop offset="1" stop-color="#CB1009"/></linearGradient><linearGradient id="d" x1="315.672" x2="315.672" y1="293.125" y2="269.378" gradientUnits="userSpaceOnUse" gradientTransform="matrix(1.041 0 0 1.041 -303.917 -261.515)"><stop offset=".124" stop-color="#fff"/><stop offset=".207" stop-color="#FBF6B9"/><stop offset=".304" stop-color="#F8ED6D"/><stop offset=".348" stop-color="#F6E94F"/><stop offset=".607" stop-color="#FAAF3E"/><stop offset="1" stop-color="#F17912"/></linearGradient><linearGradient id="e" x1="-88.272" x2="-88.272" y1="728.894" y2="704.701" gradientTransform="matrix(.952 -.422 .422 .952 -191.527 -694.993)" gradientUnits="userSpaceOnUse"><stop offset=".124" stop-color="#fff"/><stop offset=".207" stop-color="#FBF6B9"/><stop offset=".304" stop-color="#F8ED6D"/><stop offset=".348" stop-color="#F6E94F"/><stop offset=".607" stop-color="#FAAF3E"/><stop offset="1" stop-color="#F17912"/></linearGradient></defs><g><circle cx="314.852" cy="274.267" r="21.887" fill="url(#a)" transform="matrix(1.041 0 0 1.041 -303.917 -261.515)"/><path fill="url(#b)" stroke="#99140d" d="M23.93 44.84c-7.78 0-18.46-5.03-20.62-18.26-.12-1.53-.25-3.4.03-5.17-.22 1.67 5 7.03 5 4.38 0-1.95-3-4-3-6.93-.48-6.06 3.07-7.77 5.72-11.07-.83 2.8-1.94 6.6 1.45 9.04 0 0 4.68 3.45 4.68-2.7 0-8.02 2.1-10.3 4.92-10.66-3.6 4.5 7.78 8.95 9.3 13.95 0-1.45 4.77-5.72-5.63-14.02 3.76.7 8.56 1.06 13.67 6.87 2.92 3.34.83 8.07 2.44 10.38.93-.94.5-3.93.92-5.25 1.36 2.76 2.16 7.8 1.8 10.84-1.54 12.7-12.8 18.62-20.67 18.62z"/><path fill="url(#c)" d="M20.5 8.22c-2.2 2.54 1.8 13.34-6.5 12.05l-2.56-.9-1.56-.95c-.56-.4-1.3-1.37-1.6-2.1-.23.67-.57 1.87.46 4.1.96 2.07 2.63 3.74 2.63 5.32 0 2.47-1.28 3.03-1.94 3.37-.37.2-3.5-.9-4.46-1.42 4.8 4.3 6.52 16.45 18.96 16.45.68 0 14.38-.66 16.1-13.52.6-4.23 1.9-5.87 1.82-6.57-.3.58-2.2 1.5-2.93 2.23-1.68-2.02-.4-7.85-.36-10.37.06-3.15-1.45-5.97-2.33-6.86-.63-.63-1.34-1.5-2.47-2.17 2.1 2.97 1.82 9.33-2.5 16.75-.85-7.14-11.84-10.6-10.76-15.4.42 1.3.03-.44 0 0z"/><path fill="url(#d)" d="M30.87 40.2c-.5.6-.53-.83-.17-2.7-2.35 2.35-1.57 4.73-3.8 5.74-4.02 1.2 1.36-4.57-1.37-8.13 0 3.02-2.8 8.92-3.76 8.46-.5-.12-.97-.22-1.23-.42-1.43-.67-1.48-3.72-2.4-5 0 1.05-.23 2.5-.55 2.12-1.3-1.55-5.2-5.1-5.2-7.15 0-5.22 1.87-7.96.26-10.94 2.7 1.03 6.83 7.47 9.06 7.23 1.04-2.18-1.83-3.3-2.23-5.07-.4-1.7-.4-3 .37-5 .18 6.13 10.57 8.45 10.57 11.6.64-.65 3.52-2.18 2.96-5-.32-1.7 2.45-6.48 3.22-7.25-.5 2.14-1.1 6.97.13 11.1.9 3.07.26 5-1.03 6.55-1.26 1.5-3.65 2.37-4.85 3.86z"/><path fill="url(#e)" d="M31.43 28.1c-2.95-3.4-8.53-5.12-9.67-7.7-.7-1.55-.9-3.16-1.07-5.35C24.9 21 28 21.25 30 24.28c.85 1.3 1.23 2.65 1.4 3.8z"/><circle cx="314.852" cy="274.267" r="22.5" fill="none" stroke="#ed2728" stroke-width=".96" transform="matrix(1.041 0 0 1.041 -303.917 -261.515)" stroke-dasharray="1.72865854, 2.40091463"/></g></svg>