<svg xmlns="http://www.w3.org/2000/svg" width="48" height="48"><defs><radialGradient id="a" cx="315.203" cy="442.042" r="21.887" gradientUnits="userSpaceOnUse" fy="442.042" fx="315.203"><stop offset="0" stop-color="#8BC4F2"/><stop offset=".209" stop-color="#9ECEF4"/><stop offset=".632" stop-color="#D0E7FA"/><stop offset=".994" stop-color="#fff"/></radialGradient><radialGradient id="b" cx="309.748" cy="439.215" r="24.293" gradientUnits="userSpaceOnUse" fy="439.215" fx="309.748" gradientTransform="matrix(1.041 0 0 1.041 -304.211 -436.113)"><stop offset="0" stop-color="#fff"/><stop offset=".124" stop-color="#FAFCFE"/><stop offset=".28" stop-color="#EAF4FD"/><stop offset=".452" stop-color="#D1E5FB"/><stop offset=".636" stop-color="#ADD2F7"/><stop offset=".828" stop-color="#80B9F3"/><stop offset=".855" stop-color="#79B5F2"/><stop offset="1" stop-color="#8BC5FF"/></radialGradient><radialGradient id="c" cx="328.864" cy="445.757" r="1.996" gradientUnits="userSpaceOnUse" fy="445.757" fx="328.864"><stop offset="0" stop-color="#fff"/><stop offset=".124" stop-color="#FAFCFE"/><stop offset=".28" stop-color="#EAF4FD"/><stop offset=".452" stop-color="#D1E5FB"/><stop offset=".636" stop-color="#ADD2F7"/><stop offset=".828" stop-color="#80B9F3"/><stop offset=".855" stop-color="#79B5F2"/><stop offset="1" stop-color="#8BC5FF"/></radialGradient><radialGradient id="d" cx="328.784" cy="438.438" r="1.467" gradientUnits="userSpaceOnUse" fy="438.438" fx="328.784"><stop offset="0" stop-color="#fff"/><stop offset=".124" stop-color="#FAFCFE"/><stop offset=".28" stop-color="#EAF4FD"/><stop offset=".452" stop-color="#D1E5FB"/><stop offset=".636" stop-color="#ADD2F7"/><stop offset=".828" stop-color="#80B9F3"/><stop offset=".855" stop-color="#79B5F2"/><stop offset="1" stop-color="#8BC5FF"/></radialGradient><radialGradient id="e" cx="322.109" cy="441.181" r="1.1" gradientUnits="userSpaceOnUse" fy="441.181" fx="322.109"><stop offset="0" stop-color="#fff"/><stop offset=".124" stop-color="#FAFCFE"/><stop offset=".28" stop-color="#EAF4FD"/><stop offset=".452" stop-color="#D1E5FB"/><stop offset=".636" stop-color="#ADD2F7"/><stop offset=".828" stop-color="#80B9F3"/><stop offset=".855" stop-color="#79B5F2"/><stop offset="1" stop-color="#8BC5FF"/></radialGradient><radialGradient id="f" cx="324.26" cy="434.635" r="1.306" gradientUnits="userSpaceOnUse" fy="434.635" fx="324.26"><stop offset="0" stop-color="#fff"/><stop offset=".124" stop-color="#FAFCFE"/><stop offset=".28" stop-color="#EAF4FD"/><stop offset=".452" stop-color="#D1E5FB"/><stop offset=".636" stop-color="#ADD2F7"/><stop offset=".828" stop-color="#80B9F3"/><stop offset=".855" stop-color="#79B5F2"/><stop offset="1" stop-color="#8BC5FF"/></radialGradient><radialGradient id="g" cx="326.218" cy="442.563" r="2.229" gradientUnits="userSpaceOnUse" fy="442.563" fx="326.218"><stop offset="0" stop-color="#fff"/><stop offset=".124" stop-color="#FAFCFE"/><stop offset=".28" stop-color="#EAF4FD"/><stop offset=".452" stop-color="#D1E5FB"/><stop offset=".636" stop-color="#ADD2F7"/><stop offset=".828" stop-color="#80B9F3"/><stop offset=".855" stop-color="#79B5F2"/><stop offset="1" stop-color="#8BC5FF"/></radialGradient><radialGradient id="h" cx="319.745" cy="450.768" r="1.466" gradientUnits="userSpaceOnUse" fy="450.768" fx="319.745"><stop offset="0" stop-color="#fff"/><stop offset=".124" stop-color="#FAFCFE"/><stop offset=".28" stop-color="#EAF4FD"/><stop offset=".452" stop-color="#D1E5FB"/><stop offset=".636" stop-color="#ADD2F7"/><stop offset=".828" stop-color="#80B9F3"/><stop offset=".855" stop-color="#79B5F2"/><stop offset="1" stop-color="#8BC5FF"/></radialGradient><radialGradient id="i" cx="324.224" cy="452.593" r="1.107" gradientUnits="userSpaceOnUse" fy="452.593" fx="324.224"><stop offset="0" stop-color="#fff"/><stop offset=".124" stop-color="#FAFCFE"/><stop offset=".28" stop-color="#EAF4FD"/><stop offset=".452" stop-color="#D1E5FB"/><stop offset=".636" stop-color="#ADD2F7"/><stop offset=".828" stop-color="#80B9F3"/><stop offset=".855" stop-color="#79B5F2"/><stop offset="1" stop-color="#8BC5FF"/></radialGradient><radialGradient id="j" cx="318.229" cy="444.976" r="1.895" gradientUnits="userSpaceOnUse" fy="444.976" fx="318.229"><stop offset="0" stop-color="#fff"/><stop offset=".124" stop-color="#FAFCFE"/><stop offset=".28" stop-color="#EAF4FD"/><stop offset=".452" stop-color="#D1E5FB"/><stop offset=".636" stop-color="#ADD2F7"/><stop offset=".828" stop-color="#80B9F3"/><stop offset=".855" stop-color="#79B5F2"/><stop offset="1" stop-color="#8BC5FF"/></radialGradient><radialGradient id="k" cx="304.844" cy="433.035" r="1.671" gradientUnits="userSpaceOnUse" fy="433.035" fx="304.844"><stop offset="0" stop-color="#fff"/><stop offset=".124" stop-color="#FAFCFE"/><stop offset=".28" stop-color="#EAF4FD"/><stop offset=".452" stop-color="#D1E5FB"/><stop offset=".636" stop-color="#ADD2F7"/><stop offset=".828" stop-color="#80B9F3"/><stop offset=".855" stop-color="#79B5F2"/><stop offset="1" stop-color="#8BC5FF"/></radialGradient><radialGradient id="l" cx="313.255" cy="433.693" r="1.504" gradientUnits="userSpaceOnUse" fy="433.693" fx="313.255"><stop offset="0" stop-color="#fff"/><stop offset=".124" stop-color="#FAFCFE"/><stop offset=".28" stop-color="#EAF4FD"/><stop offset=".452" stop-color="#D1E5FB"/><stop offset=".636" stop-color="#ADD2F7"/><stop offset=".828" stop-color="#80B9F3"/><stop offset=".855" stop-color="#79B5F2"/><stop offset="1" stop-color="#8BC5FF"/></radialGradient><radialGradient id="m" cx="309.371" cy="432.805" r="1.254" gradientUnits="userSpaceOnUse" fy="432.805" fx="309.371"><stop offset="0" stop-color="#fff"/><stop offset=".124" stop-color="#FAFCFE"/><stop offset=".28" stop-color="#EAF4FD"/><stop offset=".452" stop-color="#D1E5FB"/><stop offset=".636" stop-color="#ADD2F7"/><stop offset=".828" stop-color="#80B9F3"/><stop offset=".855" stop-color="#79B5F2"/><stop offset="1" stop-color="#8BC5FF"/></radialGradient><radialGradient id="n" cx="325.784" cy="432.841" r="1.671" gradientUnits="userSpaceOnUse" fy="432.841" fx="325.784"><stop offset="0" stop-color="#fff"/><stop offset=".124" stop-color="#FAFCFE"/><stop offset=".28" stop-color="#EAF4FD"/><stop offset=".452" stop-color="#D1E5FB"/><stop offset=".636" stop-color="#ADD2F7"/><stop offset=".828" stop-color="#80B9F3"/><stop offset=".855" stop-color="#79B5F2"/><stop offset="1" stop-color="#8BC5FF"/></radialGradient><radialGradient id="o" cx="318.101" cy="435.283" r="1.214" gradientUnits="userSpaceOnUse" fy="435.283" fx="318.101"><stop offset="0" stop-color="#fff"/><stop offset=".124" stop-color="#FAFCFE"/><stop offset=".28" stop-color="#EAF4FD"/><stop offset=".452" stop-color="#D1E5FB"/><stop offset=".636" stop-color="#ADD2F7"/><stop offset=".828" stop-color="#80B9F3"/><stop offset=".855" stop-color="#79B5F2"/><stop offset="1" stop-color="#8BC5FF"/></radialGradient><radialGradient id="p" cx="318.178" cy="440.113" r="1.359" gradientUnits="userSpaceOnUse" fy="440.113" fx="318.178"><stop offset="0" stop-color="#fff"/><stop offset=".124" stop-color="#FAFCFE"/><stop offset=".28" stop-color="#EAF4FD"/><stop offset=".452" stop-color="#D1E5FB"/><stop offset=".636" stop-color="#ADD2F7"/><stop offset=".828" stop-color="#80B9F3"/><stop offset=".855" stop-color="#79B5F2"/><stop offset="1" stop-color="#8BC5FF"/></radialGradient><radialGradient id="q" cx="267.88" cy="473.936" r="2.23" gradientUnits="userSpaceOnUse" gradientTransform="matrix(.999 -.034 .034 .999 15.959 -27.091)" fy="473.936" fx="267.88"><stop offset="0" stop-color="#fff"/><stop offset=".124" stop-color="#FAFCFE"/><stop offset=".28" stop-color="#EAF4FD"/><stop offset=".452" stop-color="#D1E5FB"/><stop offset=".636" stop-color="#ADD2F7"/><stop offset=".828" stop-color="#80B9F3"/><stop offset=".855" stop-color="#79B5F2"/><stop offset="1" stop-color="#8BC5FF"/></radialGradient><radialGradient id="r" cx="314.561" cy="436.988" r=".832" gradientUnits="userSpaceOnUse" fy="436.988" fx="314.561"><stop offset="0" stop-color="#fff"/><stop offset=".124" stop-color="#FAFCFE"/><stop offset=".28" stop-color="#EAF4FD"/><stop offset=".452" stop-color="#D1E5FB"/><stop offset=".636" stop-color="#ADD2F7"/><stop offset=".828" stop-color="#80B9F3"/><stop offset=".855" stop-color="#79B5F2"/><stop offset="1" stop-color="#8BC5FF"/></radialGradient><radialGradient id="s" cx="320.227" cy="434.232" r="1.794" gradientUnits="userSpaceOnUse" fy="434.232" fx="320.227"><stop offset="0" stop-color="#fff"/><stop offset=".124" stop-color="#FAFCFE"/><stop offset=".28" stop-color="#EAF4FD"/><stop offset=".452" stop-color="#D1E5FB"/><stop offset=".636" stop-color="#ADD2F7"/><stop offset=".828" stop-color="#80B9F3"/><stop offset=".855" stop-color="#79B5F2"/><stop offset="1" stop-color="#8BC5FF"/></radialGradient><radialGradient id="t" cx="323.271" cy="425.159" r="3.79" gradientUnits="userSpaceOnUse" fy="425.159" fx="323.271" gradientTransform="matrix(1.041 0 0 1.041 -304.211 -436.113)"><stop offset="0" stop-color="#fff"/><stop offset=".297" stop-color="#FDFEFF"/><stop offset=".472" stop-color="#F4FAFF"/><stop offset=".615" stop-color="#E6F3FF"/><stop offset=".742" stop-color="#D2E8FF"/><stop offset=".857" stop-color="#B8DBFF"/><stop offset=".962" stop-color="#98CCFF"/><stop offset="1" stop-color="#8BC5FF"/></radialGradient><radialGradient id="u" cx="312.858" cy="423.078" r="3.37" gradientUnits="userSpaceOnUse" fy="423.078" fx="312.858" gradientTransform="matrix(1.041 0 0 1.041 -304.211 -436.113)"><stop offset="0" stop-color="#fff"/><stop offset=".297" stop-color="#FDFEFF"/><stop offset=".472" stop-color="#F4FAFF"/><stop offset=".615" stop-color="#E6F3FF"/><stop offset=".742" stop-color="#D2E8FF"/><stop offset=".857" stop-color="#B8DBFF"/><stop offset=".962" stop-color="#98CCFF"/><stop offset="1" stop-color="#8BC5FF"/></radialGradient><radialGradient id="v" cx="306.611" cy="423.268" r="2.709" gradientUnits="userSpaceOnUse" fy="423.268" fx="306.611" gradientTransform="matrix(1.041 0 0 1.041 -304.211 -436.113)"><stop offset="0" stop-color="#fff"/><stop offset=".297" stop-color="#FDFEFF"/><stop offset=".472" stop-color="#F4FAFF"/><stop offset=".615" stop-color="#E6F3FF"/><stop offset=".742" stop-color="#D2E8FF"/><stop offset=".857" stop-color="#B8DBFF"/><stop offset=".962" stop-color="#98CCFF"/><stop offset="1" stop-color="#8BC5FF"/></radialGradient><radialGradient id="w" cx="317.935" cy="431.26" r="1.111" gradientUnits="userSpaceOnUse" fy="431.26" fx="317.935"><stop offset="0" stop-color="#fff"/><stop offset=".124" stop-color="#FAFCFE"/><stop offset=".28" stop-color="#EAF4FD"/><stop offset=".452" stop-color="#D1E5FB"/><stop offset=".636" stop-color="#ADD2F7"/><stop offset=".828" stop-color="#80B9F3"/><stop offset=".855" stop-color="#79B5F2"/><stop offset="1" stop-color="#8BC5FF"/></radialGradient><radialGradient id="x" cx="275" cy="467.883" r="2.23" gradientUnits="userSpaceOnUse" gradientTransform="matrix(.999 -.034 .034 .999 15.959 -27.091)" fy="467.883" fx="275"><stop offset="0" stop-color="#fff"/><stop offset=".124" stop-color="#FAFCFE"/><stop offset=".28" stop-color="#EAF4FD"/><stop offset=".452" stop-color="#D1E5FB"/><stop offset=".636" stop-color="#ADD2F7"/><stop offset=".828" stop-color="#80B9F3"/><stop offset=".855" stop-color="#79B5F2"/><stop offset="1" stop-color="#8BC5FF"/></radialGradient><radialGradient id="y" cx="313.288" cy="430.332" r="1.874" gradientUnits="userSpaceOnUse" fy="430.332" fx="313.288"><stop offset="0" stop-color="#fff"/><stop offset=".124" stop-color="#FAFCFE"/><stop offset=".28" stop-color="#EAF4FD"/><stop offset=".452" stop-color="#D1E5FB"/><stop offset=".636" stop-color="#ADD2F7"/><stop offset=".828" stop-color="#80B9F3"/><stop offset=".855" stop-color="#79B5F2"/><stop offset="1" stop-color="#8BC5FF"/></radialGradient><radialGradient id="z" cx="325.492" cy="430.036" r="1.527" gradientUnits="userSpaceOnUse" fy="430.036" fx="325.492"><stop offset="0" stop-color="#fff"/><stop offset=".124" stop-color="#FAFCFE"/><stop offset=".28" stop-color="#EAF4FD"/><stop offset=".452" stop-color="#D1E5FB"/><stop offset=".636" stop-color="#ADD2F7"/><stop offset=".828" stop-color="#80B9F3"/><stop offset=".855" stop-color="#79B5F2"/><stop offset="1" stop-color="#8BC5FF"/></radialGradient><radialGradient id="A" cx="321.393" cy="429.538" r="1.109" gradientUnits="userSpaceOnUse" fy="429.538" fx="321.393"><stop offset="0" stop-color="#fff"/><stop offset=".124" stop-color="#FAFCFE"/><stop offset=".28" stop-color="#EAF4FD"/><stop offset=".452" stop-color="#D1E5FB"/><stop offset=".636" stop-color="#ADD2F7"/><stop offset=".828" stop-color="#80B9F3"/><stop offset=".855" stop-color="#79B5F2"/><stop offset="1" stop-color="#8BC5FF"/></radialGradient></defs><g><circle cx="315.203" cy="442.041" r="21.887" fill="url(#a)" transform="matrix(1.041 0 0 1.041 -304.211 -436.113)"/><g fill="none" stroke="#3065a0" stroke-width=".72"><path d="M39.1 11.4c-9.42-.7-13.75-3.5-19.84-3.5-.24.47 1.87.82-.7 2.35-3.08 1.8-6.6 1.72-9.8 1.14-2.88 3.42-4.6 7.84-4.6 12.67C4.15 35 13 43.85 23.92 43.85c10.92 0 19.78-8.85 19.78-19.78 0-4.83-1.72-9.25-4.6-12.7v.02z"/><path d="M29.58 10.23C31.54 7.3 33 4.78 34.9 6.38c1.3 1.08 1 2.37-.2 3.26-1.12.85-2.92 0-5.12.6z"/><path d="M25.1 8.1c-2.48-1-4.56-1.66-3.68-3.3.6-1.13 1.58-1.1 2.42-.38.8.7.47 2.15 1.25 3.68z"/><path d="M18.3 7.2c-1.47-1.92-2.58-3.57-3.8-2.4-.84.8-.58 1.66.28 2.22.8.53 2-.13 3.52.18z"/></g><path fill="url(#b)" d="M30.76 10.03c4.17 1.24 8.3 1.3 8.24 1.23 2.94 3.45 4.7 7.93 4.7 12.8 0 10.94-8.85 19.8-19.77 19.8C13 43.85 4.15 35 4.15 24.05c0-4.87 1.77-9.33 4.7-12.78-.05.05 2.26.68 4.75.47 6.42-.87 6.75-2.9 5.66-3.84 2.98 0 7.08 1.02 11.5 2.13z"/><path fill="none" stroke="#fff" stroke-width="1.5" d="M28.8 10.72c5.03 1.45 10.3 1.2 10.3 1.2-5.18 1.47-25.46.8-30.35 0 7.06 1.73 12.97-1 11.96-3.17.78.06 4.8 1 8.1 1.97z"/><circle cx="329.292" cy="446.151" r="1.493" fill="url(#c)" transform="matrix(1.041 0 0 1.041 -304.211 -436.113)"/><circle cx="329.099" cy="438.727" r="1.097" fill="url(#d)" transform="matrix(1.041 0 0 1.041 -304.211 -436.113)"/><circle cx="322.345" cy="441.398" r=".823" fill="url(#e)" transform="matrix(1.041 0 0 1.041 -304.211 -436.113)"/><circle cx="324.54" cy="434.893" r=".977" fill="url(#f)" transform="matrix(1.041 0 0 1.041 -304.211 -436.113)"/><circle cx="326.696" cy="443" r="1.668" fill="url(#g)" transform="matrix(1.041 0 0 1.041 -304.211 -436.113)"/><circle cx="320.06" cy="451.058" r="1.097" fill="url(#h)" transform="matrix(1.041 0 0 1.041 -304.211 -436.113)"/><circle cx="324.461" cy="452.812" r=".828" fill="url(#i)" transform="matrix(1.041 0 0 1.041 -304.211 -436.113)"/><circle cx="318.636" cy="445.35" r="1.417" fill="url(#j)" transform="matrix(1.041 0 0 1.041 -304.211 -436.113)"/><circle cx="305.203" cy="433.365" r="1.25" fill="url(#k)" transform="matrix(1.041 0 0 1.041 -304.211 -436.113)"/><circle cx="313.578" cy="433.99" r="1.125" fill="url(#l)" transform="matrix(1.041 0 0 1.041 -304.211 -436.113)"/><circle cx="309.641" cy="433.053" r=".938" fill="url(#m)" transform="matrix(1.041 0 0 1.041 -304.211 -436.113)"/><circle cx="326.144" cy="433.171" r="1.25" fill="url(#n)" transform="matrix(1.041 0 0 1.041 -304.211 -436.113)"/><circle cx="318.361" cy="435.523" r=".908" fill="url(#o)" transform="matrix(1.041 0 0 1.041 -304.211 -436.113)"/><circle cx="318.47" cy="440.382" r="1.017" fill="url(#p)" transform="matrix(1.041 0 0 1.041 -304.211 -436.113)"/><circle cx="300.427" cy="437.797" r="1.668" fill="url(#q)" transform="matrix(1.041 0 0 1.041 -304.211 -436.113)"/><circle cx="314.74" cy="437.152" r=".622" fill="url(#r)" transform="matrix(1.041 0 0 1.041 -304.211 -436.113)"/><circle cx="320.611" cy="434.587" r="1.342" fill="url(#s)" transform="matrix(1.041 0 0 1.041 -304.211 -436.113)"/><path fill="none" stroke="#fff" stroke-width="1.5" d="M38.7 11.72c2.9 3.45 4.5 7.84 4.5 12.35 0 10.62-8.65 19.26-19.27 19.26S4.67 34.7 4.67 24.07c0-4.5 1.6-8.9 4.48-12.35" opacity=".5"/><path fill="none" stroke="#3065a0" stroke-width=".5" d="M39.1 11.38c2.88 3.44 4.6 7.86 4.6 12.7 0 10.92-8.85 19.77-19.77 19.77C13 43.85 4.15 35 4.15 24.07c0-4.83 1.73-9.25 4.6-12.68"/><path fill="none" stroke="#3065a0" stroke-width=".5" d="M39.1 11.4c-9.42-.7-13.75-3.5-19.84-3.5-.24.47 1.87.82-.7 2.35-3.08 1.8-6.6 1.72-9.8 1.14"/><path fill="url(#t)" stroke="#3065a0" stroke-width=".5" d="M29.58 10.23C31.54 7.3 33 4.78 34.9 6.38c1.3 1.08 1 2.37-.2 3.26-1.12.85-2.92 0-5.12.6z"/><path fill="url(#u)" stroke="#3065a0" stroke-width=".5" d="M25.1 8.1c-2.48-1-4.56-1.66-3.68-3.3.6-1.13 1.58-1.1 2.42-.38.8.7.47 2.15 1.25 3.68z"/><path fill="url(#v)" stroke="#3065a0" stroke-width=".5" d="M18.3 7.2c-1.47-1.92-2.58-3.57-3.8-2.4-.84.8-.58 1.66.28 2.22.8.53 2-.13 3.52.18z"/><path fill="none" stroke="#3065a0" stroke-width=".25" d="M39.1 11.4c-3.24-.52-29.45 4.8-30.35 0"/><circle cx="318.173" cy="431.48" r=".831" fill="url(#w)" transform="matrix(1.041 0 0 1.041 -304.211 -436.113)"/><circle cx="307.335" cy="431.503" r="1.668" fill="url(#x)" transform="matrix(1.041 0 0 1.041 -304.211 -436.113)"/><circle cx="313.69" cy="430.702" r="1.401" fill="url(#y)" transform="matrix(1.041 0 0 1.041 -304.211 -436.113)"/><circle cx="325.82" cy="430.338" r="1.142" fill="url(#z)" transform="matrix(1.041 0 0 1.041 -304.211 -436.113)"/><circle cx="321.631" cy="429.758" r=".83" fill="url(#A)" transform="matrix(1.041 0 0 1.041 -304.211 -436.113)"/><circle cx="315.203" cy="442.042" r="22.5" fill="none" stroke="#ed2728" stroke-width=".961" transform="matrix(1.041 0 0 1.041 -304.211 -436.113)" stroke-dasharray="1.72903715, 2.40144049"/></g></svg>