<svg xmlns="http://www.w3.org/2000/svg" width="48" height="48" xmlns:xlink="http://www.w3.org/1999/xlink"><defs><linearGradient id="b"><stop offset="0" stop-color="#ebce12"/><stop offset=".653" stop-color="#d82020"/><stop offset="1" stop-color="#7d0808"/></linearGradient><linearGradient id="a"><stop offset="0" stop-color="#ef9429"/><stop offset=".857" stop-color="#a21717"/><stop offset="1" stop-color="#550606"/></linearGradient><radialGradient id="c" cx="314.852" cy="274.267" r="21.887" gradientUnits="userSpaceOnUse" fy="274.267" fx="314.852"><stop offset="0" stop-color="#F17912"/><stop offset=".348" stop-color="#F6E94F"/><stop offset=".603" stop-color="#FAAF3E"/><stop offset=".662" stop-color="#FBBE62"/><stop offset=".779" stop-color="#FDDAA5"/><stop offset=".878" stop-color="#FEEED6"/><stop offset=".952" stop-color="#FFFAF4"/><stop offset=".994" stop-color="#fff"/></radialGradient><linearGradient x1="314.846" x2="314.846" y1="293.769" y2="254.912" gradientUnits="userSpaceOnUse" gradientTransform="matrix(1.041 0 0 1.041 -303.917 -261.515)"><stop offset="0" stop-color="#E86712"/><stop offset=".622" stop-color="#D52E0C"/><stop offset="1" stop-color="#CB1009"/></linearGradient><linearGradient x1="314.353" x2="314.353" y1="291.228" y2="247.325" gradientUnits="userSpaceOnUse" gradientTransform="matrix(1.041 0 0 1.041 -303.917 -261.515)"><stop offset="0" stop-color="#EBD30F"/><stop offset=".393" stop-color="#E86712"/><stop offset=".771" stop-color="#D52E0C"/><stop offset="1" stop-color="#CB1009"/></linearGradient><linearGradient x1="315.672" x2="315.672" y1="293.125" y2="269.378" gradientUnits="userSpaceOnUse" gradientTransform="matrix(1.041 0 0 1.041 -303.917 -261.515)"><stop offset=".124" stop-color="#fff"/><stop offset=".207" stop-color="#FBF6B9"/><stop offset=".304" stop-color="#F8ED6D"/><stop offset=".348" stop-color="#F6E94F"/><stop offset=".607" stop-color="#FAAF3E"/><stop offset="1" stop-color="#F17912"/></linearGradient><linearGradient x1="-88.272" x2="-88.272" y1="728.894" y2="704.701" gradientTransform="matrix(.952 -.422 .422 .952 -191.527 -694.993)" gradientUnits="userSpaceOnUse"><stop offset=".124" stop-color="#fff"/><stop offset=".207" stop-color="#FBF6B9"/><stop offset=".304" stop-color="#F8ED6D"/><stop offset=".348" stop-color="#F6E94F"/><stop offset=".607" stop-color="#FAAF3E"/><stop offset="1" stop-color="#F17912"/></linearGradient><radialGradient cx="321.393" cy="429.538" r="1.109" fx="321.393" fy="429.538" gradientUnits="userSpaceOnUse"><stop offset="0" stop-color="#fff"/><stop offset=".124" stop-color="#FAFCFE"/><stop offset=".28" stop-color="#EAF4FD"/><stop offset=".452" stop-color="#D1E5FB"/><stop offset=".636" stop-color="#ADD2F7"/><stop offset=".828" stop-color="#80B9F3"/><stop offset=".855" stop-color="#79B5F2"/><stop offset="1" stop-color="#8BC5FF"/></radialGradient><radialGradient cx="325.492" cy="430.036" r="1.527" fx="325.492" fy="430.036" gradientUnits="userSpaceOnUse"><stop offset="0" stop-color="#fff"/><stop offset=".124" stop-color="#FAFCFE"/><stop offset=".28" stop-color="#EAF4FD"/><stop offset=".452" stop-color="#D1E5FB"/><stop offset=".636" stop-color="#ADD2F7"/><stop offset=".828" stop-color="#80B9F3"/><stop offset=".855" stop-color="#79B5F2"/><stop offset="1" stop-color="#8BC5FF"/></radialGradient><radialGradient cx="313.288" cy="430.332" r="1.874" fx="313.288" fy="430.332" gradientUnits="userSpaceOnUse"><stop offset="0" stop-color="#fff"/><stop offset=".124" stop-color="#FAFCFE"/><stop offset=".28" stop-color="#EAF4FD"/><stop offset=".452" stop-color="#D1E5FB"/><stop offset=".636" stop-color="#ADD2F7"/><stop offset=".828" stop-color="#80B9F3"/><stop offset=".855" stop-color="#79B5F2"/><stop offset="1" stop-color="#8BC5FF"/></radialGradient><radialGradient cx="275" cy="467.883" r="2.23" fx="275" fy="467.883" gradientTransform="matrix(.999 -.034 .034 .999 15.959 -27.091)" gradientUnits="userSpaceOnUse"><stop offset="0" stop-color="#fff"/><stop offset=".124" stop-color="#FAFCFE"/><stop offset=".28" stop-color="#EAF4FD"/><stop offset=".452" stop-color="#D1E5FB"/><stop offset=".636" stop-color="#ADD2F7"/><stop offset=".828" stop-color="#80B9F3"/><stop offset=".855" stop-color="#79B5F2"/><stop offset="1" stop-color="#8BC5FF"/></radialGradient><radialGradient cx="317.935" cy="431.26" r="1.111" fx="317.935" fy="431.26" gradientUnits="userSpaceOnUse"><stop offset="0" stop-color="#fff"/><stop offset=".124" stop-color="#FAFCFE"/><stop offset=".28" stop-color="#EAF4FD"/><stop offset=".452" stop-color="#D1E5FB"/><stop offset=".636" stop-color="#ADD2F7"/><stop offset=".828" stop-color="#80B9F3"/><stop offset=".855" stop-color="#79B5F2"/><stop offset="1" stop-color="#8BC5FF"/></radialGradient><radialGradient cx="306.611" cy="423.268" r="2.709" gradientTransform="matrix(1.041 0 0 1.041 -304.211 -436.113)" fx="306.611" fy="423.268" gradientUnits="userSpaceOnUse"><stop offset="0" stop-color="#fff"/><stop offset=".297" stop-color="#FDFEFF"/><stop offset=".472" stop-color="#F4FAFF"/><stop offset=".615" stop-color="#E6F3FF"/><stop offset=".742" stop-color="#D2E8FF"/><stop offset=".857" stop-color="#B8DBFF"/><stop offset=".962" stop-color="#98CCFF"/><stop offset="1" stop-color="#8BC5FF"/></radialGradient><radialGradient cx="312.858" cy="423.078" r="3.37" gradientTransform="matrix(1.041 0 0 1.041 -304.211 -436.113)" fx="312.858" fy="423.078" gradientUnits="userSpaceOnUse"><stop offset="0" stop-color="#fff"/><stop offset=".297" stop-color="#FDFEFF"/><stop offset=".472" stop-color="#F4FAFF"/><stop offset=".615" stop-color="#E6F3FF"/><stop offset=".742" stop-color="#D2E8FF"/><stop offset=".857" stop-color="#B8DBFF"/><stop offset=".962" stop-color="#98CCFF"/><stop offset="1" stop-color="#8BC5FF"/></radialGradient><radialGradient cx="323.271" cy="425.159" r="3.79" gradientTransform="matrix(1.041 0 0 1.041 -304.211 -436.113)" fx="323.271" fy="425.159" gradientUnits="userSpaceOnUse"><stop offset="0" stop-color="#fff"/><stop offset=".297" stop-color="#FDFEFF"/><stop offset=".472" stop-color="#F4FAFF"/><stop offset=".615" stop-color="#E6F3FF"/><stop offset=".742" stop-color="#D2E8FF"/><stop offset=".857" stop-color="#B8DBFF"/><stop offset=".962" stop-color="#98CCFF"/><stop offset="1" stop-color="#8BC5FF"/></radialGradient><radialGradient cx="320.227" cy="434.232" r="1.794" fx="320.227" fy="434.232" gradientUnits="userSpaceOnUse"><stop offset="0" stop-color="#fff"/><stop offset=".124" stop-color="#FAFCFE"/><stop offset=".28" stop-color="#EAF4FD"/><stop offset=".452" stop-color="#D1E5FB"/><stop offset=".636" stop-color="#ADD2F7"/><stop offset=".828" stop-color="#80B9F3"/><stop offset=".855" stop-color="#79B5F2"/><stop offset="1" stop-color="#8BC5FF"/></radialGradient><radialGradient cx="314.561" cy="436.988" r=".832" fx="314.561" fy="436.988" gradientUnits="userSpaceOnUse"><stop offset="0" stop-color="#fff"/><stop offset=".124" stop-color="#FAFCFE"/><stop offset=".28" stop-color="#EAF4FD"/><stop offset=".452" stop-color="#D1E5FB"/><stop offset=".636" stop-color="#ADD2F7"/><stop offset=".828" stop-color="#80B9F3"/><stop offset=".855" stop-color="#79B5F2"/><stop offset="1" stop-color="#8BC5FF"/></radialGradient><radialGradient cx="267.88" cy="473.936" r="2.23" fx="267.88" fy="473.936" gradientTransform="matrix(.999 -.034 .034 .999 15.959 -27.091)" gradientUnits="userSpaceOnUse"><stop offset="0" stop-color="#fff"/><stop offset=".124" stop-color="#FAFCFE"/><stop offset=".28" stop-color="#EAF4FD"/><stop offset=".452" stop-color="#D1E5FB"/><stop offset=".636" stop-color="#ADD2F7"/><stop offset=".828" stop-color="#80B9F3"/><stop offset=".855" stop-color="#79B5F2"/><stop offset="1" stop-color="#8BC5FF"/></radialGradient><radialGradient cx="318.178" cy="440.113" r="1.359" fx="318.178" fy="440.113" gradientUnits="userSpaceOnUse"><stop offset="0" stop-color="#fff"/><stop offset=".124" stop-color="#FAFCFE"/><stop offset=".28" stop-color="#EAF4FD"/><stop offset=".452" stop-color="#D1E5FB"/><stop offset=".636" stop-color="#ADD2F7"/><stop offset=".828" stop-color="#80B9F3"/><stop offset=".855" stop-color="#79B5F2"/><stop offset="1" stop-color="#8BC5FF"/></radialGradient><radialGradient cx="318.101" cy="435.283" r="1.214" fx="318.101" fy="435.283" gradientUnits="userSpaceOnUse"><stop offset="0" stop-color="#fff"/><stop offset=".124" stop-color="#FAFCFE"/><stop offset=".28" stop-color="#EAF4FD"/><stop offset=".452" stop-color="#D1E5FB"/><stop offset=".636" stop-color="#ADD2F7"/><stop offset=".828" stop-color="#80B9F3"/><stop offset=".855" stop-color="#79B5F2"/><stop offset="1" stop-color="#8BC5FF"/></radialGradient><radialGradient cx="325.784" cy="432.841" r="1.671" fx="325.784" fy="432.841" gradientUnits="userSpaceOnUse"><stop offset="0" stop-color="#fff"/><stop offset=".124" stop-color="#FAFCFE"/><stop offset=".28" stop-color="#EAF4FD"/><stop offset=".452" stop-color="#D1E5FB"/><stop offset=".636" stop-color="#ADD2F7"/><stop offset=".828" stop-color="#80B9F3"/><stop offset=".855" stop-color="#79B5F2"/><stop offset="1" stop-color="#8BC5FF"/></radialGradient><radialGradient cx="309.371" cy="432.805" r="1.254" fx="309.371" fy="432.805" gradientUnits="userSpaceOnUse"><stop offset="0" stop-color="#fff"/><stop offset=".124" stop-color="#FAFCFE"/><stop offset=".28" stop-color="#EAF4FD"/><stop offset=".452" stop-color="#D1E5FB"/><stop offset=".636" stop-color="#ADD2F7"/><stop offset=".828" stop-color="#80B9F3"/><stop offset=".855" stop-color="#79B5F2"/><stop offset="1" stop-color="#8BC5FF"/></radialGradient><radialGradient cx="313.255" cy="433.693" r="1.504" fx="313.255" fy="433.693" gradientUnits="userSpaceOnUse"><stop offset="0" stop-color="#fff"/><stop offset=".124" stop-color="#FAFCFE"/><stop offset=".28" stop-color="#EAF4FD"/><stop offset=".452" stop-color="#D1E5FB"/><stop offset=".636" stop-color="#ADD2F7"/><stop offset=".828" stop-color="#80B9F3"/><stop offset=".855" stop-color="#79B5F2"/><stop offset="1" stop-color="#8BC5FF"/></radialGradient><radialGradient cx="304.844" cy="433.035" r="1.671" fx="304.844" fy="433.035" gradientUnits="userSpaceOnUse"><stop offset="0" stop-color="#fff"/><stop offset=".124" stop-color="#FAFCFE"/><stop offset=".28" stop-color="#EAF4FD"/><stop offset=".452" stop-color="#D1E5FB"/><stop offset=".636" stop-color="#ADD2F7"/><stop offset=".828" stop-color="#80B9F3"/><stop offset=".855" stop-color="#79B5F2"/><stop offset="1" stop-color="#8BC5FF"/></radialGradient><radialGradient cx="318.229" cy="444.976" r="1.895" fx="318.229" fy="444.976" gradientUnits="userSpaceOnUse"><stop offset="0" stop-color="#fff"/><stop offset=".124" stop-color="#FAFCFE"/><stop offset=".28" stop-color="#EAF4FD"/><stop offset=".452" stop-color="#D1E5FB"/><stop offset=".636" stop-color="#ADD2F7"/><stop offset=".828" stop-color="#80B9F3"/><stop offset=".855" stop-color="#79B5F2"/><stop offset="1" stop-color="#8BC5FF"/></radialGradient><radialGradient cx="324.224" cy="452.593" r="1.107" fx="324.224" fy="452.593" gradientUnits="userSpaceOnUse"><stop offset="0" stop-color="#fff"/><stop offset=".124" stop-color="#FAFCFE"/><stop offset=".28" stop-color="#EAF4FD"/><stop offset=".452" stop-color="#D1E5FB"/><stop offset=".636" stop-color="#ADD2F7"/><stop offset=".828" stop-color="#80B9F3"/><stop offset=".855" stop-color="#79B5F2"/><stop offset="1" stop-color="#8BC5FF"/></radialGradient><radialGradient cx="319.745" cy="450.768" r="1.466" fx="319.745" fy="450.768" gradientUnits="userSpaceOnUse"><stop offset="0" stop-color="#fff"/><stop offset=".124" stop-color="#FAFCFE"/><stop offset=".28" stop-color="#EAF4FD"/><stop offset=".452" stop-color="#D1E5FB"/><stop offset=".636" stop-color="#ADD2F7"/><stop offset=".828" stop-color="#80B9F3"/><stop offset=".855" stop-color="#79B5F2"/><stop offset="1" stop-color="#8BC5FF"/></radialGradient><radialGradient cx="326.218" cy="442.563" r="2.229" fx="326.218" fy="442.563" gradientUnits="userSpaceOnUse"><stop offset="0" stop-color="#fff"/><stop offset=".124" stop-color="#FAFCFE"/><stop offset=".28" stop-color="#EAF4FD"/><stop offset=".452" stop-color="#D1E5FB"/><stop offset=".636" stop-color="#ADD2F7"/><stop offset=".828" stop-color="#80B9F3"/><stop offset=".855" stop-color="#79B5F2"/><stop offset="1" stop-color="#8BC5FF"/></radialGradient><radialGradient cx="324.26" cy="434.635" r="1.306" fx="324.26" fy="434.635" gradientUnits="userSpaceOnUse"><stop offset="0" stop-color="#fff"/><stop offset=".124" stop-color="#FAFCFE"/><stop offset=".28" stop-color="#EAF4FD"/><stop offset=".452" stop-color="#D1E5FB"/><stop offset=".636" stop-color="#ADD2F7"/><stop offset=".828" stop-color="#80B9F3"/><stop offset=".855" stop-color="#79B5F2"/><stop offset="1" stop-color="#8BC5FF"/></radialGradient><radialGradient cx="322.109" cy="441.181" r="1.1" fx="322.109" fy="441.181" gradientUnits="userSpaceOnUse"><stop offset="0" stop-color="#fff"/><stop offset=".124" stop-color="#FAFCFE"/><stop offset=".28" stop-color="#EAF4FD"/><stop offset=".452" stop-color="#D1E5FB"/><stop offset=".636" stop-color="#ADD2F7"/><stop offset=".828" stop-color="#80B9F3"/><stop offset=".855" stop-color="#79B5F2"/><stop offset="1" stop-color="#8BC5FF"/></radialGradient><radialGradient cx="328.784" cy="438.438" r="1.467" fx="328.784" fy="438.438" gradientUnits="userSpaceOnUse"><stop offset="0" stop-color="#fff"/><stop offset=".124" stop-color="#FAFCFE"/><stop offset=".28" stop-color="#EAF4FD"/><stop offset=".452" stop-color="#D1E5FB"/><stop offset=".636" stop-color="#ADD2F7"/><stop offset=".828" stop-color="#80B9F3"/><stop offset=".855" stop-color="#79B5F2"/><stop offset="1" stop-color="#8BC5FF"/></radialGradient><radialGradient cx="328.864" cy="445.757" r="1.996" fx="328.864" fy="445.757" gradientUnits="userSpaceOnUse"><stop offset="0" stop-color="#fff"/><stop offset=".124" stop-color="#FAFCFE"/><stop offset=".28" stop-color="#EAF4FD"/><stop offset=".452" stop-color="#D1E5FB"/><stop offset=".636" stop-color="#ADD2F7"/><stop offset=".828" stop-color="#80B9F3"/><stop offset=".855" stop-color="#79B5F2"/><stop offset="1" stop-color="#8BC5FF"/></radialGradient><radialGradient cx="309.748" cy="439.215" r="24.293" gradientTransform="matrix(1.041 0 0 1.041 -304.211 -436.113)" fx="309.748" fy="439.215" gradientUnits="userSpaceOnUse"><stop offset="0" stop-color="#fff"/><stop offset=".124" stop-color="#FAFCFE"/><stop offset=".28" stop-color="#EAF4FD"/><stop offset=".452" stop-color="#D1E5FB"/><stop offset=".636" stop-color="#ADD2F7"/><stop offset=".828" stop-color="#80B9F3"/><stop offset=".855" stop-color="#79B5F2"/><stop offset="1" stop-color="#8BC5FF"/></radialGradient><radialGradient cx="315.203" cy="442.042" r="21.887" fx="315.203" fy="442.042" gradientUnits="userSpaceOnUse"><stop offset="0" stop-color="#8BC4F2"/><stop offset=".209" stop-color="#9ECEF4"/><stop offset=".632" stop-color="#D0E7FA"/><stop offset=".994" stop-color="#fff"/></radialGradient><radialGradient id="e" cx="23.828" cy="19.937" r="19.107" xlink:href="#a" fx="23.828" fy="19.937" gradientTransform="matrix(.999 -.037 .037 1.01 -.722 3.957)" gradientUnits="userSpaceOnUse"/><radialGradient id="d" cx="24.143" cy="19.476" r="18.107" xlink:href="#b" fx="24.143" fy="19.476" gradientTransform="matrix(1 0 0 .319 0 13.266)" gradientUnits="userSpaceOnUse"/><radialGradient cx="24.143" cy="19.476" r="18.107" xlink:href="#b" gradientUnits="userSpaceOnUse" gradientTransform="matrix(1 0 0 .319 -48.429 5.694)" fx="24.143" fy="19.476"/><radialGradient cx="23.828" cy="19.937" r="19.107" xlink:href="#a" gradientUnits="userSpaceOnUse" gradientTransform="matrix(.999 -.037 .037 1.01 -49.15 -3.614)" fx="23.828" fy="19.937"/><radialGradient id="g" cx="24.143" cy="19.476" r="18.107" xlink:href="#b" gradientUnits="userSpaceOnUse" gradientTransform="matrix(1 0 0 .319 .071 13.266)" fx="24.143" fy="19.476"/><radialGradient id="f" cx="23.5" cy="17.684" r="18.107" xlink:href="#b" gradientUnits="userSpaceOnUse" gradientTransform="matrix(1.292 -.008 .002 .319 -6.823 13.451)" fx="23.5" fy="17.684"/></defs><g><circle cx="314.852" cy="274.267" r="21.887" fill="url(#c)" transform="matrix(1.041 0 0 1.041 -303.917 -261.515)"/><circle cx="314.852" cy="274.267" r="22.5" fill="none" stroke="#ed2728" stroke-width=".96" transform="matrix(1.041 0 0 1.041 -303.917 -261.515)" stroke-dasharray="1.72865854, 2.40091463"/><path fill="url(#d)" stroke="#a40000" stroke-width=".5" d="M6.3 17.3c9.68-8.95 20.7 3.22 35.7.4l-5.5 6.2-27.53.04z" color="#000" stroke-linejoin="round" overflow="visible" enable-background="accumulate"/><path fill="url(#e)" stroke="#a40000" stroke-width=".5" d="M41.85 17.6c.65 1.16.94 4.55.94 6.47 0 10.42-8.46 18.86-18.87 18.86-10.42 0-18.86-8.44-18.86-18.86 0-2.33.42-4.56 1.2-6.6 13.1 6.9 24.96 6.76 35.58.12z"/><g><path fill="#fcfb93" d="M16.3 25.86c-1.85.27-1.66-3.07.22-2 1.9.17 3.34-1.5 4.34-2.9.92-1.3 1.8-3.5 3.77-3.1 1.02 0 1.04 1.68-.08 1-1.57.4-2.74 1.9-3.6 3.2.05.7-1.58 1.95-.88.7.88-1.32-1.14.76-1.5 1.03-.75.7-1.46 1.43-2.27 2.06z"/><path fill="#fcfb93" d="M22.95 19.6z"/><path fill="#fcfb93" d="M22.6 20.4c.36-.4.55-.22 0 0z"/><path fill="#fbef57" d="M17.8 28.34c-.93-.66-3.94-.4-3.13-2.06.98-.68-2.43-1.7-.45-2.5.7-2.15 3.64.96 4.33-1 .15-1.33 2.3-1.77 3.02-3.05 1.2-1.25-.58 1-.96 1.47-.88 1.08-1.9 2.08-3.2 2.66-1.58-1.82-3.74 2.5-1.02 1.74 1.66-.83 2.64-2.48 4.06-3.6-.05-.06-.4 1.6.2.34 1.2-1.78 2.95-3.5 5.14-3.9 1.56-.3 1.37 2.45 3.04 1.2 1.65.73-.57 2-1 2.66-1.08-.47-3.87-1.38-5.03.42-1.13.97-.96 3.2.6 3.62-2.2.58-.85-2.68-2.17-3.27-1-.12-2.4 2.1-2.18 2.08.53-.25 2.2-2.08 1.15-.66-.7 1.3-.7 3.32-2.4 3.84z"/><path fill="#fbef57" d="M22.74 20.32c.36-.05.38-.58 0 0z"/><path fill="#fbef57" d="M23.38 26.9z"/><path fill="#fbef57" d="M23.6 26.85z"/><path fill="#fbef57" d="M23.8 26.78c-.14-.18.18.04 0 0z"/><path fill="#fbef57" d="M24.5 25.94z"/><path fill="#fbef57" d="M35.75 24.35c-.53-.12.08-.42 0 0z"/><path fill="#fbef57" d="M23.23 24.08c-.28-.25.3-.05 0 0z"/><path fill="#fbef57" d="M23.22 23.74c-.22-.88 2.07-1.24.55-.5-.2.13-.4.3-.55.5z"/><path fill="#fbef57" d="M24.4 22.92c.15-.4.12.4 0 0z"/><path fill="#fbef57" d="M25.1 22.8c-.67-.38.4-.1 0 0z"/><path fill="#fbef57" d="M25.95 22.5c.08-.4.18.32 0 0z"/><path fill="#fbef57" d="M26.24 22.45c.03 0 .03 0 0 0z"/><path fill="#fbef57" d="M26.83 22.43c.1-.25.1.24 0 0z"/><path fill="#fbef57" d="M26.04 22c.02 0 .02 0 0 0z"/><path fill="#fbef57" d="M28.46 21.9c.1-.3.15.38 0 0z"/><path fill="#fbef57" d="M28.25 21.9c.23-.17-.04.3 0 0z"/><path fill="#fbef57" d="M22.93 19.6z"/><path fill="#fbd536" d="M24.93 35.87c-.3-.05.2-.14 0 0z"/><path fill="#fbd536" d="M22.25 35.17c-.04-.54.4.14 0 0z"/><path fill="#fbd536" d="M21.6 34.95c.1-.54.64.12 0 0z"/><path fill="#fbd536" d="M18.6 33.15c.38-.17 0 .47 0 0z"/><path fill="#fbd536" d="M17.43 32.95c-.36.14-.33-.55 0 0z"/><path fill="#fbd536" d="M19.6 32.76c-.4-.3.57.2.25.1l-.26-.1z"/><path fill="#fbd536" d="M17.3 32.54c-1.78-.84-3.9-1-5.77-.27.24-1.95 3.77.04 3.62-1.1-.94-.1-1.5-1.25-.1-.78 1.84.16 1.6-2.57-.24-2.15-1.15.15-3.2-.1-2.23-1.73.5-.68 1.02-1.64-.3-1.4-.72-.88 1.62-1.9.46-3 .8-1.23 2.7 1.92 3.96.43.43-1.15-2.66-.48-1.96-1.18 2 .75 3.32-2.1 2.36-3.06 1.12.12 2.27 2.9 3.2 1 0-1.42 2.42-1.64 1.7 0-1.05 1.1-2.3 2.07-3.46 3.05-.6.28-1.27.8-.16.4-.9 1.66-3.14.27-4.5 1.06-.9.9 1.85 2.05.35 2.6.48.76-.73.52.24.87 1.47 1.03 4.25 1.7 4.94-.56.46-1.1.56-2.45 1.52-3.28-.35.65-2.05 1.83-1 .4.47-1.22 2.88-1 1.65.5-.38 1.17 1.52 2.47 1.84 1.9-1.8-.43-1.4-2.9-.34-3.93 1.23-1.74 3.98-.03 4.8-.02.35-.95 2.8-1.68.75-2.65-.9.14-2.6 0-1.5-1.3 1.52-1.25 3.74-.2 5.26.54 1.84 1.28-2-1.12-1.6-.4 1.44.3.83 2.05-.05 2.5-.6 1.53-2.14 3.47-3.96 2.66-1.3-.32-3.77.45-3.52 1.94 1.54.22 3.5.27 4.04 2.12.15.4.9 1.93.43.57-.75-1.83-3.04-2.18-4.68-1.4-.93.03-2.13 1.43-.47 1.4 1.12-.3 1.3.56.27.9-1.3 1.3-2.22 3.48-4.5 2.86-.4.04-.8.18-1 .5z"/><path fill="#fbd536" d="M23.4 26.9z"/><path fill="#fbd536" d="M23.63 26.86c-.36-.1-.07.6 0 0z"/><path fill="#fbd536" d="M23.85 26.78c-.18-.03.14.2 0 0z"/><path fill="#fbd536" d="M24.53 25.94z"/><path fill="#fbd536" d="M24.63 25.84c-.02 0-.02 0 0 0z"/><path fill="#fbd536" d="M22.94 24.9c.36-.16-.25-.4 0 0z"/><path fill="#fbd536" d="M23.14 24.77c-.1-.13 0 .17 0 0z"/><path fill="#fbd536" d="M22.23 24.4c.66-.4 2.34-1.88 1.34-2.23-.56.67-.93 1.46-1.34 2.23z"/><path fill="#fbd536" d="M23.28 22.78c.02 0 .02 0 0 0z"/><path fill="#fbd536" d="M22.84 24.7z"/><path fill="#fbd536" d="M23.6 24.32c-.02.03-.02.03 0 0z"/><path fill="#fbd536" d="M23.84 24.2c.44.22.02-.5 0 0z"/><path fill="#fbd536" d="M23.7 24.03c1.22.4.2-1.28 0 0z"/><path fill="#fbd536" d="M23.3 24.08c-.36.04.4.5 0 0z"/><path fill="#fbd536" d="M24.3 23.8c-.03-.15-.03.14 0 0z"/><path fill="#fbd536" d="M23.34 23.7c.2-.6 1.38-1.26.32-.44l-.17.22-.16.23z"/><path fill="#fbd536" d="M23.3 23.6c0-.32-.45.82 0 0z"/><path fill="#fbd536" d="M24.4 23.66z"/><path fill="#fbd536" d="M24.58 22.85c-.33-.24.08.38 0 0z"/><path fill="#fbd536" d="M25.16 22.8c.64-.14-.22-.16 0 0z"/><path fill="#fbd536" d="M25.5 22.7c-.16.05-.08.02 0 0z"/><path fill="#fbd536" d="M26.06 22.5c.56.44.12-.28 0 0z"/><path fill="#fbd536" d="M26.32 22.45c-.02 0-.02 0 0 0z"/><path fill="#fbd536" d="M26.98 22.43c-.1-.25-.1.24 0 0z"/><path fill="#fbd536" d="M27.53 22.4c-.62-.44-1.04.16 0 0z"/><path fill="#fbd536" d="M26.55 22.23z"/><path fill="#fbd536" d="M24.18 22.06c-.2-.04.13.25 0 0z"/><path fill="#fbd536" d="M26.1 22c-.02 0-.02 0 0 0z"/><path fill="#fbd536" d="M28.58 21.92c-.33-.18-.22.7 0 0z"/><path fill="#fbd536" d="M24.3 21.75c-.47.03.17.64 0 0z"/><path fill="#fbd536" d="M11.4 30.66c.04-.34.22.27 0 0z"/><path fill="#fbd536" d="M22.92 29.04z"/><path fill="#fbd536" d="M31.06 28.82c-1.57-.7-1.46-3.9.6-3.6 1.03-.45 3.47-2.53 4.04-.4-.63 1.57-2.45 1.92-3.8 2.02-.53.54-.63 1.3-.84 1.98z"/><path fill="#fbd536" d="M35.8 24.26c-.3.3.7.06 0 0z"/><path fill="#fbd536" d="M24.94 28c-.05-.54.62-.12 0 0z"/><path fill="#fbd536" d="M25.42 27.24c-.5-.1.3-.37 0 0z"/><path fill="#fbd536" d="M25.53 27.07c-.22-.12.2-.06 0 0z"/><path fill="#fbd536" d="M23.9 25.67c.02 0 .02 0 0 0z"/><path fill="#fbd536" d="M35.38 24.73c-.12-.13.16.03 0 0z"/><path fill="#fbd536" d="M34.6 23.42c-.57-.18.14-.37 0 0z"/><path fill="#fbd536" d="M27.5 21.28c-.52.24-.76-.4 0 0z"/><path fill="#fbd536" d="M31.67 20.58c-.74-.1.4-.6 0 0z"/><path fill="#fbd536" d="M35 20.16c.35-.04.47-.05 0 0z"/><path fill="#fbd536" d="M34.6 20.14c.5-.1-.02.55 0 0z"/><path fill="#fbd536" d="M26.12 19.43c-.56-.9 1.07-.18 0 0z"/><path fill="#e86021" d="M16.05 40.14c-.95-1.04 3.6-1.1 1.54-.14-.5.13-1.04.03-1.55.14z"/><path fill="#e86021" d="M16.24 39.12c-2.5.52-1.24-3.8.7-2.24 2.05-.18 3.4-2 5.32-2.53.9.35 2.53 1.77 2.46 2.2-1.37.53-4.93-1.1-4.32 1.56-.33.16-1.23-2.14-1.67-.76 0 .58-1.9 1.28-2.5 1.78z"/><path fill="#e86021" d="M24.76 36c.74-.38.02.17 0 0z"/><path fill="#e86021" d="M22.74 35.24z"/><path fill="#e86021" d="M22.4 35.15c-.46-.03.2.74 0 0z"/><path fill="#e86021" d="M21.73 34.9c.42 0-.12-.5 0 0z"/><path fill="#e86021" d="M22.44 34.77z"/><path fill="#e86021" d="M22.5 34.56c.14-.17-.13.02 0 0z"/><path fill="#e86021" d="M9.57 32.26c0-1.84 2.53-1.5 3.23-2.83.02-1.87-2.64.47-2.77.37 1.47-.83 2.58-2.92 1.37-4.4-.37-1.6-2.27-3.2-3.84-2-.2-1.2 2.1-3.1-.27-3.34 1-.67 2.22.1 3.33.37 1.02.17 1.37-.36 2.2.35 2.2.7 2.58-3.12.27-2.64-.6.48-3.1-.2-1.5-.42 1.55.22 3.1.5 4.67.74 2.16.16 1.57 3.33-.45 3.03-.73.02-2 .13-.5.24 1-.24 2.2 1.15.58 1.2-1.03-.17-3.15-2.1-2.92.03-.43.76-2 2.32-.24 2.2-.08 1.23-.96 3.58 1.3 2.9 1.1-.3 3.46 1.48 1.68 2.06-.76-.1-2.72.24-.96.7 1.2.53.5 1.03-.4.55-.66-.23-2.7.1-2.33.6 1.87-.54 3.77.32 5.66.07 2 .7 3.6-1.04 4.7-2.4.77-.3 1.87-1.94.22-1.25-1.7-.1-.67-1.6.5-1.64 1.62-.6 3.87-.18 4.6 1.56-.34-1.65-2.06-2.67-3.68-2.5-2.16-.57.67-2.57 1.86-2.13 1.64.4 3.08-.58 4.33-1.1-1-1.56 3.36-2.8 1-3.8-1.6-.5.3-.9.8-.03.6.52 1.36.76.36-.06-.5-.56 1.18 1.1 1.8.9 1.26.37 2.8-.7 3.66-.8-.7 1.4-3.02.54-3.85 1.93-1.25 1.72 1.44 3.07 2.52 1.52.45-.25 1.42-1.53.7-.42.77-.07-.23 1.6-.23 2.34-.17 1.36-1.38 2.1-2.17 3-.07.75.6 2.15-.74 1.38-1.88.2.06 2.5-1.77 2.72-1.3.62-1.97-.6-1.8-1.62-.6-.4-1.6-2.72-1.38-1.07.1 1.56-1.08 3.3-.2 4.72.6.4 2 2.25.57 1.05-1.57-1.43-2.1-3.76-1.64-5.8-.5-1.95-2.58-.36-3.04.74-1.03 1.25-1.73 3.44-3.73 3.28-.64-.32-2.84.25-1.64.68-1.6.82-3-.62-4.65-.46-1.64-.53-3.03 1.24-4.53.77.16-.76-1.03-.6-.7-1.3z"/><path fill="#e86021" d="M9 34.64c.68-1.68 1.93-3.45 3.85-3.7-2.18-.53-3.5 1.93-3.84 3.7z"/><path fill="#e86021" d="M10.33 32.3c.06-.18.06.16 0 0z"/><path fill="#e86021" d="M18.03 33.25c-.17-.14.04.26 0 0z"/><path fill="#e86021" d="M17.84 33.22c-.06 0-.06 0 0 0z"/><path fill="#e86021" d="M18.82 33.14c-.15-.45-.23.32 0 0z"/><path fill="#e86021" d="M17.56 32.97c-.3-.4-.56.13 0 0z"/><path fill="#e86021" d="M10.93 32.24c.47.32.32-.6 0 0z"/><path fill="#e86021" d="M10.23 31.52c.37.32.2-.3 0 0z"/><path fill="#e86021" d="M11.52 30.62c-.36-.14-.17.68 0 0z"/><path fill="#e86021" d="M12.44 30.05c.6-.3-.95.22 0 0z"/><path fill="#e86021" d="M22.97 29.03c-.05-.14-.04.13 0 0z"/><path fill="#e86021" d="M31.24 28.86c-.68-1.8 1.52-2.34 2.62-2.3 1.16-.37 3.13-2.32.94-2.7-1.6-.3-2.18 1.64-3.7 1.4-2 .86-1 2.55.14 3.6z"/><path fill="#e86021" d="M25.15 27.78c.5-.17.1-.32-.08-.03l.08.03z"/><path fill="#e86021" d="M22.93 27.83c1 .55 1.7-1.94.43-.65-.2.17-.37.4-.43.65z"/><path fill="#e86021" d="M25.03 26.54z"/><path fill="#e86021" d="M25.7 27.75z"/><path fill="#e86021" d="M24.4 27.48c-.36-.03.25.3 0 0z"/><path fill="#e86021" d="M26.07 27.35c0 .06 0 .06 0 0z"/><path fill="#e86021" d="M25.74 27.42c-.2.06.27.17 0 0z"/><path fill="#e86021" d="M25.2 27.28c1.24-.36-.76-.8 0 0z"/><path fill="#e86021" d="M25.45 27.27c.5-.1-.3-.36 0 0z"/><path fill="#e86021" d="M22.94 27.25c-.3-.04.2.28 0 0z"/><path fill="#e86021" d="M23.1 27.22c-.25-.03.2.32 0 0z"/><path fill="#e86021" d="M23.24 27.13z"/><path fill="#e86021" d="M25.58 27.02c-.02.02-.02.02 0 0z"/><path fill="#e86021" d="M26.05 26.94c.58-1-1.14 0 0 0z"/><path fill="#e86021" d="M23.95 25.65z"/><path fill="#e86021" d="M32.04 24.04c2.28.6.6-4.08-.32-1.54-.1.54.2 1.03.32 1.54z"/><path fill="#e86021" d="M32.46 23.26c.02 0 .02 0 0 0z"/><path fill="#e86021" d="M31.73 22.3c.02 0 .02 0 0 0z"/><path fill="#e86021" d="M32.92 22.3c-.2.07.03-.18 0 0z"/><path fill="#e86021" d="M32.15 21.8z"/><path fill="#e86021" d="M33.6 22.67z"/><path fill="#e86021" d="M31.7 20.5c.42-.68-.78 0 0 0z"/><path fill="#e86021" d="M35.37 20.14c-.15-.14-.6.5 0 0z"/><path fill="#e86021" d="M34.75 20.14c-.02-.42-.27.2 0 0z"/><path fill="#e86021" d="M9.35 35.3c.24-1.15 1.25-.02 0 0z"/><path fill="#e86021" d="M22.37 34.15c-.2-.4.4.12 0 0z"/><path fill="#e86021" d="M19.3 33.53c.02 0 .02 0 0 0z"/><path fill="#e86021" d="M20.03 32.98z"/><path fill="#e86021" d="M26.36 27.5c-.3-.03.12-.15 0 0z"/><path fill="#e86021" d="M26.4 27.26c-.3-.14.15-.1 0 0z"/><path fill="#e86021" d="M36.94 26.95c-.33-2.03 1.52-3.4 2.6-4.84 1.82 1.62-1.54 2.47-1.83 3.92-.12.38-.35.78-.76.93z"/><path fill="#e86021" d="M24.6 25.85z"/><path fill="#e86021" d="M21.8 25.05c.28-1.12 1.16-.12 0 0z"/><path fill="#e86021" d="M22.87 24.9c-.13-.43.38-.13 0 0z"/><path fill="#e86021" d="M21.92 24.73c.53-.82 1.98-2.53 2.16-2.64-.65.92-1.23 1.94-2.16 2.63z"/><path fill="#e86021" d="M23.33 22.78z"/><path fill="#e86021" d="M22.8 24.7c.02 0 .02 0 0 0z"/><path fill="#e86021" d="M23.74 24.24c-.02-.53.55.12 0 0z"/><path fill="#e86021" d="M39.28 24.23c-.08-.4.48 0 0 0z"/><path fill="#e86021" d="M23.47 24.17c.13-1.25 1.2.33 0 0z"/><path fill="#e86021" d="M24.36 23.66c.02 0 .02 0 0 0z"/><path fill="#e86021" d="M34.62 22.72c.03-.12.03.12 0 0z"/><path fill="#e86021" d="M25.44 22.7c.02 0 .02 0 0 0z"/><path fill="#e86021" d="M17.72 22.68c.2-1.5 1.5.12 0 0z"/><path fill="#e86021" d="M27.38 22.4c-1.02.24-.92-.84 0 0z"/><path fill="#e86021" d="M26.5 22.24c.02 0 .02 0 0 0z"/><path fill="#e86021" d="M24.12 22.06c-.12-.2.2.07 0 0z"/><path fill="#e86021" d="M33.98 22.03c.02 0 .02 0 0 0z"/><path fill="#e86021" d="M18.07 21.98c-2.43.03.98-1.83 0 0z"/><path fill="#e86021" d="M34.65 21.28c.27 0-.2.3 0 0z"/><path fill="#e86021" d="M19 20.4c.25-.93-1.94-2.54.1-2.57 1.64-.2 1.56 2.95-.1 2.58z"/><path fill="#e86021" d="M21.68 18.58c-.92-1.05 1.23-.45 0 0z"/><path fill="#e86021" d="M28.36 18.42c-1.56-.26.6-.82 0 0z"/><path fill="#d2321f" d="M16.97 40.65c-1.82.24-3.63-1.93-2.83-3.65 1.73-.7 4 .13 5.4-1.37-.04-.6-.9.25-.62-.65-.78-.94-2.6-.02-3.1-1.43-1.45-.9-3.35.9-4.6.2 2.16-1.32 4.75-.62 7.06-.23.63.28 1.57-.32.8-.8 1.1-1.6 4 .7 4.52-1.8.9-1.1 1.53-2.82 3.1-3.07 2.16.47.63 3.4 1.5 4.85.5 1.57 2.06 2.04 3.44 2.4.8.27 3.14 1.05 1.15.9-1.14.2 1.6.27 1.92.64-2.37-.68-5.2-.04-7.2-1.76-.86-.8-3.5.07-1.4.6 1.07 1.52-1 1.5-1.97 1.67-1.04.04-1.05 1.75-.9 1.67-1.36-.6-3.2-.4-3.85.93-.77.34-1.62.8-2.43.9z"/><path fill="#d2321f" d="M16.32 40.13c.9.7 2.43-1.56.72-.8-.4-.03-2.08.92-.72.8z"/><path fill="#d2321f" d="M16.35 39.08c1.38.2 2.47-3.02 3.46-1.68.43 1.5.2-1.07 1.27-.78 1.04-.25 3.9.8 3.46-1-.97-1.65-3.4-1.5-4.52-.1-1.23 1-2.9 1.82-4.52 1.24-2.2-.04-.62 2.95.87 2.32z"/><path fill="#d2321f" d="M22.7 35.24z"/><path fill="#d2321f" d="M22.42 34.8c0-.02 0-.02 0 0z"/><path fill="#d2321f" d="M22.46 34.54c.14-.04-.12.17 0 0z"/><path fill="#d2321f" d="M29.67 35.67c-1.3-1.8-3.65-3.3-5.9-2.48-.2 1.95 2.33 1.03 3.47 1.5.75.44 1.6.73 2.43.97z"/><path fill="#d2321f" d="M28.9 34.8z"/><path fill="#d2321f" d="M22.45 34.13c.05-.04.05-.04 0 0z"/><path fill="#d2321f" d="M19.35 33.53z"/><path fill="#d2321f" d="M20.07 32.97z"/><path fill="#d2321f" d="M19.45 32.92c-.13.08.2.06 0 0z"/><path fill="#d2321f" d="M26.55 39.44c-1.02-1.74 2.9-2.8 3.03-1-.5 1.1-2.75-.58-3.03 1z"/><path fill="#d2321f" d="M37.46 31.9c-1.65-.86-2.5-2.86-2.46-4.65 1.54-1.48 2.3-3.55 2.75-5.6-1.12.2-2.23 1.86-3.36.83 2.1.2 3.5-2.04 5.3-2.24.84-.15 2.6-1.24.98-.2-1.17.54-3.28 1.94-2.62 3.17.8-.4 2.36-2.65 2.53-.56-.2 1.04-2.52 1.9-1.1 2.93-.93.05-1.28 2.4-2.22 1.17.7-1.36 2.44-2.2 2.5-3.84-.6-1.3-1.94 1-2.22 1.8-1 1.92-2 4.35-.95 6.47.16.37.5.6.86.73z"/><path fill="#d2321f" d="M34.64 22.7z"/><path fill="#d2321f" d="M30.05 31.4c.16-.7 1.1-1.82.12-2.32 1.87-.03.3 1.64-.12 2.32z"/><path fill="#d2321f" d="M32.78 31.35c-1.02-1.1 2.42-2.18 1.1-.7-.3.32-.68.58-1.1.7z"/><path fill="#d2321f" d="M11.5 30.28c-.44-.26.4.04 0 0z"/><path fill="#d2321f" d="M24.46 28.9c-.05-1.3 1.23.07 0 0z"/><path fill="#d2321f" d="M10.96 28.93c-1.2.48-.08-1.33 0 0z"/><path fill="#d2321f" d="M22.9 27.84c.04-1.04 2.12-.66.52-.22-.18.08-.35.15-.53.22z"/><path fill="#d2321f" d="M25.07 26.53c-.02 0-.02 0 0 0z"/><path fill="#d2321f" d="M25.66 27.74z"/><path fill="#d2321f" d="M26.07 27.55c0-.05 0-.05 0 0z"/><path fill="#d2321f" d="M25.07 27.3c-.45-1.2 1.2-.3 0 0z"/><path fill="#d2321f" d="M23.2 27.14z"/><path fill="#d2321f" d="M25.95 26.98c-.78-.23.62-.5 0 0z"/><path fill="#d2321f" d="M37.04 24.18c-.7-.8.6-1.02 0 0z"/><path fill="#d2321f" d="M31.96 24.08c-1.7-1.7 2.48-2.48.52-.25l-.24.16-.28.08z"/><path fill="#d2321f" d="M32.5 23.26z"/><path fill="#d2321f" d="M32.56 22.46c-.04-.14-.04.14 0 0z"/><path fill="#d2321f" d="M31.78 22.26c-.02 0-.02 0 0 0z"/><path fill="#d2321f" d="M32.34 22.16c.66-.46-.67-.4 0 0z"/><path fill="#d2321f" d="M32.94 22.24c0 .02 0 .02 0 0z"/><path fill="#d2321f" d="M32.2 21.77c-.02 0-.02 0 0 0z"/><path fill="#d2321f" d="M32.97 23.95c-.87-1 1.08-.64 0 0z"/><path fill="#d2321f" d="M40.76 24.03c-1.12-.84 1.58-3.27.53-1.2-.24.37-.45.76-.54 1.2z"/><path fill="#d2321f" d="M32.66 22.47c.08-.13.03.22 0 0z"/><path fill="#d2321f" d="M33.98 22.06c-.24-.24.42.03 0 0z"/><path fill="#d2321f" d="M32.85 21.96c.1-.08-.05.13 0 0z"/><path fill="#d2321f" d="M34.48 21.06c.02 0 .02 0 0 0z"/><path fill="#d2321f" d="M34.55 20.9c-.37.1.17-.3 0 0z"/><path fill="#d2321f" d="M34.84 20.33c.27-.32-.04.53 0 0z"/><path fill="#a65117" d="M23.72 40.36c1-.86-1.84-3.28.6-2.7 1.48.17 2.76-2.43.68-2.33-.4-1.13.66-.04 1.25-.15 1.64 1.32-.03 3.7-1.78 2.64-1.62.32.2 2.05-.75 2.54z"/><path fill="#a65117" d="M23.65 38.53z"/><path fill="#a65117" d="M23.9 40c0-.03 0-.03 0 0z"/><path fill="#a65117" d="M33.23 36.23c-.74.78-1.96-.95-.5-.47 1.02 0 2.05.77 2.9.93-.82.08-1.65-.13-2.4-.47z"/><path fill="#a65117" d="M24 39.66z"/><path fill="#a65117" d="M24 39.5c0-.02 0-.02 0 0z"/><path fill="#a65117" d="M23.83 39.15z"/><path fill="#a65117" d="M23.76 39.07c.02 0 .02 0 0 0z"/><path fill="#a65117" d="M23.62 38.9z"/><path fill="#a65117" d="M10.02 33.7c1.47 1.14 3.18-.18 4.75-.3 1.66.04 2.94 1.36 4.4 2.02 1.15.66-1.6 1.04-2.16.47-1.02-.68-.83-2.27-2.5-1.98-1.28-.1-2.6.22-3.82-.23l-.33-.02-.33.03z"/><path fill="#a65117" d="M8.6 30.58c.8-.96 2.8-3.23.62-3.78.38-2.13-2.38-2.47-3.2-4.02-1.35-1.6 1.84-3.8 2.54-1.8-.2.7-1.72 2.15-.42 2.27 1.46-.9 2.62.86 3.1 2.03 1.2 1.5.13 2.95-1.13 3.94-.58 2.12 1.64-.68 2.58-.4.64 1.93-3.23 1.5-3.36 3.47-.87 1.68-.5-1.43-.7-1.72z"/><path fill="#a65117" d="M11.2 29.92c.28-.62-.4.3 0 0z"/><path fill="#a65117" d="M10.9 29.82c0-.17-.06.13 0 0z"/><path fill="#a65117" d="M23.46 38.76z"/><path fill="#a65117" d="M23.37 38.7z"/><path fill="#a65117" d="M25.4 35.75c-.84-.5.56-.52 0 0z"/><path fill="#a65117" d="M29.54 35.7c-2-.96-4.2-1.5-6.42-1.46.7-1.88 3.32-1.55 4.6-.46.7.52 1.4 1.14 1.82 1.92z"/><path fill="#a65117" d="M28.47 35.04c-.56-1.25-3.2-2.6-3.74-1.03.96 1.02 2.68.2 3.74 1.04z"/><path fill="#a65117" d="M28.9 34.82c-.17.07.02-.1 0 0z"/><path fill="#a65117" d="M12.32 30.76c-.57.2-1.88 1.7-.9.44.25-.23.56-.42.9-.44z"/><path fill="#a65117" d="M30.48 33.08c-.82-.15-.9-2.55-1.8-1.18.1-1.15.38-3.74.76-4 .55 1.17 1.9 2.25.67 3.47.32.7-.4.8.63.98.96.46-.44.37-.25.73z"/><path fill="#a65117" d="M33.45 32.37c-1.96-.8 2.13-2.3.05-2.82.6-1.5 2.7-.15 2.84 1.1.58 1.92-.62-1.8-1.65-.77-.76.62-.28 1.93-1.25 2.5z"/><path fill="#a65117" d="M37.27 31.7z"/><path fill="#a65117" d="M37.02 31.53z"/><path fill="#a65117" d="M36.7 31.37c0-.13.3.35 0 0z"/><path fill="#a65117" d="M37.1 28.9c.5-.52-.88-2.15.38-1.9-.35 1.65 1.94-1.16.86.62-.4.45-.88.8-1.24 1.28z"/><path fill="#a65117" d="M40 26.17c-1.43-.58-.93-2.7.5-2.75.8-.78-.1-3.1-.96-1.47-.27.85-2.68 1.7-1.58.16 1.05-.47 2.7-1.7 3.2-.3.7-.78-.4 1.3-.74 1.68-.55.77-1.02 1.8-.42 2.7z"/><path fill="#a65117" d="M39.02 24.5c.64-.3.05-.4 0 0z"/><path fill="#a65117" d="M12.4 24.54c-1.24-.12-.3-1.37 0 0z"/><path fill="#a65117" d="M12.07 23.56c-1.27-.18 0-1.33 0 0z"/><path fill="#a65117" d="M10.76 23.1c-1.2.58-2.3-2.07-.48-1.04.4.15 1.17.7.48 1.05z"/><path fill="#a65117" d="M9.78 22.9c.52.07-.2.62 0 0z"/><path fill="#a65117" d="M11.9 22.74c-1.28.07.4-1.3 0 0z"/><path fill="#a65117" d="M32.72 22.65c-1.33-.38 1.25-1.73.17-.38l-.1.2-.08.18z"/><path fill="#a65117" d="M32.7 22.47c.18-.14-.17 0 0 0z"/><path fill="#a65117" d="M32.6 22.2c-.2.04.25.13 0 0z"/><path fill="#a65117" d="M32.9 21.97c.03-.14-.1.08 0 0z"/><path fill="#a65117" d="M35.1 22.54c-2.56.05-.6-3.92 1.22-2.7.74-.03 1.88-1.55.44-.72-1.18.6-3.2 1.1-4.03-.27-.2-1.68 2.44.22 3.44-.48 1.7-.5 4.42-1.3 5.7.27-.2 1.7-2.75 1.3-3.83 2.36-.98.5-1.93 1.1-2.95 1.54z"/><path fill="#a65117" d="M34.05 22c.48-.1-.2-.33 0 0z"/><path fill="#a65117" d="M35.63 21.5c1.2.18 3.9-1.2 2.57-2.5-1.14-.12-3.45 1-2.57 2.5z"/><path fill="#a65117" d="M35.3 20.4c0-.2.14.17 0 0z"/><path fill="#a65117" d="M35.47 20.32c-.08-.2.17.1 0 0z"/><path fill="#a65117" d="M34.72 21.3c.12-.22-.22.1 0 0z"/><path fill="#a65117" d="M34.9 20.7c-.12-.05.1.18 0 0z"/><path fill="#a65117" d="M34.8 20.57c-.23.36.62-.04 0 0z"/><path fill="#a65117" d="M34.66 20.55c.5-.74-.82 0 0 0z"/><path fill="#a65117" d="M34.98 20.33c-.1-.34-.14.35 0 0z"/><path fill="#a65117" d="M35.27 20.26c-.4-.26-.28.63 0 0z"/><path fill="#a65117" d="M32.52 22.46c.04-.14.04.14 0 0z"/><path fill="#a65117" d="M33.8 22.43c.86-.17 1.4.78.28.05l-.14-.05h-.15z"/><path fill="#a65117" d="M41.7 22.33c-.23-.9 1.04-.63 0 0z"/><path fill="#a65117" d="M32.18 22.28c-.54-.6.82-.46 0 0z"/><path fill="#a65117" d="M9.7 21.24c-.24-1.06 1.32.57 0 0z"/><path fill="#a65117" d="M13.94 21c-1.62-.97-3.62-.43-5.36-1-.7-.26-2.68.47-1.47-.35-.7-1.5.6-1.96 1.88-1.73 1.5.06 2.98.33 4.48.26 1.5.13 2.2 2.36.48 2.82z"/><path fill="#a65117" d="M16.4 20.92c-1.8.12.7-2.64.23-.6l-.12.3-.1.3z"/><path fill="#a65117" d="M15.55 19.2c-1.26.1.14-1.96.03-.33v.17l-.03.17z"/><path fill="#a65117" d="M15.6 18.64c-.78-.47.76-.55 0 0z"/><path fill="#a65117" d="M37.48 17.85z"/></g><path fill="url(#f)" stroke="#a40000" stroke-width=".5" d="M14.9 13.95c-3-.03-5.83.83-8.56 3.34l.1.18c12.94 6.8 24.62 6.75 35.12.34C31.02 19.57 22.44 14 14.9 13.95z" color="#000" stroke-linejoin="round" overflow="visible" enable-background="accumulate"/><path fill="url(#g)" stroke="#a40000" stroke-width=".5" d="M41.97 17.73c0 .02.02.04.03.06l.06-.07c-.03 0-.06 0-.1 0z" color="#000" stroke-linejoin="round" overflow="visible" enable-background="accumulate"/></g></svg>