<svg xmlns="http://www.w3.org/2000/svg" width="48" height="48" xmlns:xlink="http://www.w3.org/1999/xlink"><defs><linearGradient id="d"><stop offset="0" stop-color="#fff"/><stop offset="1" stop-color="#ededed" stop-opacity=".09"/></linearGradient><linearGradient id="c"><stop offset="0" stop-color="#fff"/><stop offset=".5" stop-color="#7fd6e4"/><stop offset="1" stop-color="#434343"/></linearGradient><linearGradient id="b"><stop offset="0" stop-opacity=".694"/><stop offset="1" stop-opacity="0"/></linearGradient><linearGradient id="a"><stop offset="0" stop-color="#cfd7d7"/><stop offset=".767" stop-color="#aebabc"/><stop offset="1" stop-color="#627176"/></linearGradient><radialGradient id="f" cx="24.665" cy="18.006" r="10.821" xlink:href="#a" fx="24.665" fy="18.006" gradientTransform="matrix(2.154 -.005 .005 2.14 -32.119 -22.56)" gradientUnits="userSpaceOnUse"/><radialGradient id="e" cx="28.688" cy="43.909" r="19.041" xlink:href="#b" fx="28.688" fy="43.909" gradientTransform="matrix(1 0 0 .196 0 35.29)" gradientUnits="userSpaceOnUse"/><radialGradient id="g" cx="23.857" cy="21.429" r="21.466" xlink:href="#c" fx="23.857" fy="21.429" gradientUnits="userSpaceOnUse"/><radialGradient id="h" cx="20.625" cy="23.301" r="8.752" xlink:href="#d" fx="20.625" fy="23.301" gradientTransform="matrix(1.162 0 0 1.929 -3.348 -21.637)" gradientUnits="userSpaceOnUse"/></defs><g color="#000"><path fill="url(#e)" d="M47.73 43.9a19.04 3.74 0 1 1-38.08 0 19.04 3.74 0 1 1 38.08 0z" transform="translate(.505 .455)" overflow="visible" enable-background="accumulate"/><path fill="url(#f)" stroke="#555753" stroke-width=".5" d="M20.6.3c12.64 0 22.88 10.23 22.88 22.87s-10.24 22.9-22.9 22.9z" overflow="visible" enable-background="accumulate"/><path fill="url(#g)" stroke="#555753" stroke-width=".647" d="M45 21.43a21.14 21.14 0 1 1-42.3 0 21.14 21.14 0 1 1 42.3 0z" transform="matrix(.552 0 0 1.082 7.412 -.024)" overflow="visible" enable-background="accumulate"/><path fill="url(#h)" d="M21.64 6.42a.3.3 0 0 0-.03.04.3.3 0 0 0-.07.07L20.2 8.06a.58.58 0 0 0-.66-.26.58.58 0 0 0-.37.33c-.08-.03-.17-.03-.3-.07-.22-.08-.53-.2-.82-.3-.6-.18-1.17-.35-1.17-.35a.3.3 0 0 0-.03 0 .3.3 0 0 0-.08 0 .3.3 0 0 0-.07 0 .3.3 0 0 0-.1.08.3.3 0 0 0-.04.07.3.3 0 0 0-.04.07.3.3 0 0 0 0 .08.3.3 0 0 0 0 .07.3.3 0 0 0 .1.14.3.3 0 0 0 .05.05.3.3 0 0 0 .03.04s.58.16 1.16.35c.3.1.6.18.84.25.12.04.22.05.3.08.06.02.14.1.1.07l.04.76-1.93.27a.3.3 0 0 0-.03 0 .3.3 0 0 0-.14.1.3.3 0 0 0-.04.04.3.3 0 0 0-.04.16.3.3 0 0 0 .03.1.3.3 0 0 0 .03.08.3.3 0 0 0 .04.03.3.3 0 0 0 .03.04.3.3 0 0 0 .1.05.3.3 0 0 0 .08 0l1.9-.26.06 1.48-2.03-.32a.3.3 0 0 0-.06-.04.3.3 0 0 0-.04.04.3.3 0 0 0-.1.03.3.3 0 0 0-.08.06.3.3 0 0 0-.04.1.3.3 0 0 0 0 .1.3.3 0 0 0 0 .02.3.3 0 0 0 .04.1.3.3 0 0 0 .04.05.3.3 0 0 0 .03.03.3.3 0 0 0 .07.04.3.3 0 0 0 .03 0l2.18.36.07 2.07c-.34-.1-.72-.2-1.12-.32-.94-.26-1.85-.5-1.85-.5a.3.3 0 0 0-.08-.04.3.3 0 0 0-.07 0 .3.3 0 0 0-.04.04.3.3 0 0 0-.08.03.3.3 0 0 0-.04.04.3.3 0 0 0-.03.04.3.3 0 0 0-.04.12.3.3 0 0 0 0 .07.3.3 0 0 0 .05.1.3.3 0 0 0 .03.07.3.3 0 0 0 .08.04.3.3 0 0 0 .07.04s.88.24 1.82.5c.46.15.93.3 1.3.4.02.02.03 0 .04 0l.03.77-3.05-.35a.3.3 0 0 0-.08 0 .3.3 0 0 0-.07 0 .3.3 0 0 0-.04.04.3.3 0 0 0-.04 0l.03-.16a.3.3 0 0 0 0-.07.3.3 0 0 0 0-.07.3.3 0 0 0-.04-.1.3.3 0 0 0-.1-.12.3.3 0 0 0-.16-.04.3.3 0 0 0-.07 0 .3.3 0 0 0-.04 0 .3.3 0 0 0-.08.07.3.3 0 0 0-.03.05.3.3 0 0 0-.05.07l-.9 2.36-2.8-2.2a.58.58 0 1 0-.73.9l.94.76c-.15.07-.28.15-.43.22-.57.24-1.13.47-1.13.47a.3.3 0 0 0-.1.07.3.3 0 0 0-.05.08.3.3 0 0 0 0 .07.3.3 0 0 0 0 .03.3.3 0 0 0 0 .08.3.3 0 0 0 0 .03.3.3 0 0 0 .08.1.3.3 0 0 0 .03.04.3.3 0 0 0 .1.03.3.3 0 0 0 .1 0 .3.3 0 0 0 .06 0 .3.3 0 0 0 .03-.03s.53-.23 1.1-.47c.25-.1.5-.2.72-.3l.8.62-1.1 1.2a.3.3 0 0 0-.03.03.3.3 0 0 0-.03.07.3.3 0 0 0 0 .04.3.3 0 0 0 0 .07.3.3 0 0 0 .04.12.3.3 0 0 0 .1.1.3.3 0 0 0 .12.04.3.3 0 0 0 .07 0 .3.3 0 0 0 .04 0 .3.3 0 0 0 .1-.03.3.3 0 0 0 .05-.04l1.1-1.24 1.15.9-1.75 1.06a.3.3 0 0 0-.07.07.3.3 0 0 0-.03.06.3.3 0 0 0 0 .08.3.3 0 0 0 0 .07.3.3 0 0 0 0 .08.3.3 0 0 0 .07.1.3.3 0 0 0 .06.05.3.3 0 0 0 .1.03.3.3 0 0 0 .08 0 .3.3 0 0 0 .07-.03.3.3 0 0 0 .05 0l1.93-1.2.98.8-1.7.4a.3.3 0 0 0-.08.03.3.3 0 0 0-.1.1.3.3 0 0 0-.05.12.3.3 0 0 0 0 .07.3.3 0 0 0 .04.1.3.3 0 0 0 .03.05.3.3 0 0 0 .04.03.3.3 0 0 0 .04.04.3.3 0 0 0 .07.04.3.3 0 0 0 .14 0l2.14-.5 2.58 2.03-1.67-.03a.58.58 0 0 0-.2 0 .58.58 0 0 0-.06.03l-1.93.95-1.9-.58-1-1.9a.3.3 0 0 0-.08-.1.3.3 0 0 0-.08-.04.3.3 0 0 0-.1-.03.3.3 0 0 0-.05 0 .3.3 0 0 0-.07.03.3.3 0 0 0-.07.04.3.3 0 0 0-.08.07.3.3 0 0 0-.03.07.3.3 0 0 0 0 .08.3.3 0 0 0 0 .07.3.3 0 0 0 .03.06l.8 1.5a.58.58 0 0 0-.25.1l-2.18 1.63a.58.58 0 1 0 .7.94l1.9-1.5 2.3.74a.58.58 0 0 0 .44-.04l2-.98 1.67.04-.2.58-1.95.3a.3.3 0 0 0-.07.02.3.3 0 0 0-.06.04.3.3 0 0 0-.04.04.3.3 0 0 0-.04.03.3.3 0 0 0-.03.12.3.3 0 0 0 0 .1.3.3 0 0 0 .1.16.3.3 0 0 0 .04.03.3.3 0 0 0 .08.05.3.3 0 0 0 .07 0 .3.3 0 0 0 .04 0l1.67-.26-.5 1.48-4.77-.2a.3.3 0 0 0-.04 0 .3.3 0 0 0-.07 0 .3.3 0 0 0-.04.02.3.3 0 0 0-.06.04.3.3 0 0 0-.07.14.3.3 0 0 0 0 .04.3.3 0 0 0 0 .07.3.3 0 0 0 .04.1.3.3 0 0 0 .08.07.3.3 0 0 0 .07.04.3.3 0 0 0 .1.05l4.55.2-.44 1.36-3.2-.32a.3.3 0 0 0-.03 0 .3.3 0 0 0-.07 0 .3.3 0 0 0-.04 0 .3.3 0 0 0-.07.07.3.3 0 0 0-.04.04.3.3 0 0 0-.06.14.3.3 0 0 0 .04.14.3.3 0 0 0 .03.07.3.3 0 0 0 .05.04.3.3 0 0 0 .14.06.3.3 0 0 0 .03 0l3.02.3-.3.9-3.66.76a.3.3 0 0 0-.16.08.3.3 0 0 0-.03.03.3.3 0 0 0-.03.08.3.3 0 0 0 0 .08.3.3 0 0 0 0 .1.3.3 0 0 0 .1.15.3.3 0 0 0 .08.04.3.3 0 0 0 .07 0 .3.3 0 0 0 .08 0l3.34-.7-.7 2.04-2.28.2a.3.3 0 0 0-.07 0 .3.3 0 0 0-.12.07.3.3 0 0 0-.04.03.3.3 0 0 0-.04.04.3.3 0 0 0-.03.1.3.3 0 0 0 0 .08.3.3 0 0 0 .07.15.3.3 0 0 0 .04.03.3.3 0 0 0 .07.04.3.3 0 0 0 .1.04.3.3 0 0 0 .05 0l2.03-.2-.44 1.36h-2.55a.3.3 0 0 0-.07 0 .3.3 0 0 0-.07 0 .3.3 0 0 0-.1.1.3.3 0 0 0-.04.08.3.3 0 0 0 0 .07.3.3 0 0 0 0 .06.3.3 0 0 0 .04.1.3.3 0 0 0 .07.1.3.3 0 0 0 .07.02.3.3 0 0 0 .1.04H16l-.26.8-2.7.98a.3.3 0 0 0-.1.1.3.3 0 0 0-.07.15.3.3 0 0 0 0 .04.3.3 0 0 0 0 .06.3.3 0 0 0 .04.07.3.3 0 0 0 .02.04.3.3 0 0 0 .08.07.3.3 0 0 0 .07.04.3.3 0 0 0 .07 0 .3.3 0 0 0 .08 0 .3.3 0 0 0 .03-.04l2.22-.83-.9 2.73a.58.58 0 1 0 1.08.37l.73-2.18c.15.17.32.35.5.54.43.45.88.87.88.87a.3.3 0 0 0 .03.04.3.3 0 0 0 .1.04.3.3 0 0 0 .07 0 .3.3 0 0 0 .08 0 .3.3 0 0 0 .1-.07.3.3 0 0 0 .04-.03.3.3 0 0 0 .03-.1.3.3 0 0 0 0-.1.3.3 0 0 0 0-.06.3.3 0 0 0-.04-.07.3.3 0 0 0-.04-.07s-.42-.4-.84-.84c-.2-.22-.4-.47-.58-.65-.06-.05-.1-.1-.15-.14l.28-.8 1.7.66a.3.3 0 0 0 .05 0 .3.3 0 0 0 .07 0 .3.3 0 0 0 .07 0 .3.3 0 0 0 .08-.04.3.3 0 0 0 .1-.1.3.3 0 0 0 .04-.12.3.3 0 0 0 0-.07.3.3 0 0 0-.05-.08.3.3 0 0 0-.03-.07.3.3 0 0 0-.04-.04.3.3 0 0 0-.07-.03l-1.73-.65.5-1.45 1.75 1.34a.3.3 0 0 0 .03.05.3.3 0 0 0 .08.03.3.3 0 0 0 .07 0 .3.3 0 0 0 .04 0 .3.3 0 0 0 .14-.07.3.3 0 0 0 .04-.03.3.3 0 0 0 .03-.07.3.3 0 0 0 .04-.1.3.3 0 0 0 0-.08.3.3 0 0 0-.05-.07.3.3 0 0 0-.03-.04.3.3 0 0 0-.04-.03l-1.9-1.45a.3.3 0 0 0-.02-.04l.72-2.1c.07.08.16.15.26.25.27.28.63.64.98.98.7.7 1.34 1.36 1.34 1.36a.3.3 0 0 0 .04.03.3.3 0 0 0 .07.03.3.3 0 0 0 .04 0 .3.3 0 0 0 .08 0 .3.3 0 0 0 .04 0 .3.3 0 0 0 .1-.04.3.3 0 0 0 .1-.12.3.3 0 0 0 .05-.14.3.3 0 0 0-.04-.1.3.3 0 0 0-.03-.08.3.3 0 0 0-.04-.04s-.66-.66-1.34-1.34c-.35-.34-.68-.67-.95-.95-.13-.14-.28-.27-.36-.36-.06-.07-.08-.1-.1-.1l.22-.63 3.05 2.18a.3.3 0 0 0 .14.04.3.3 0 0 0 .1 0 .3.3 0 0 0 .02 0 .3.3 0 0 0 .1-.07.3.3 0 0 0 .05-.05.3.3 0 0 0 .03-.07.3.3 0 0 0 .04-.1.3.3 0 0 0-.04-.12.3.3 0 0 0-.1-.1l-3.2-2.33.58-1.68 1.78 2.62a.3.3 0 0 0 .04.04.3.3 0 0 0 .03.04.3.3 0 0 0 .1.04.3.3 0 0 0 .08 0 .3.3 0 0 0 .1 0 .3.3 0 0 0 .1-.07.3.3 0 0 0 .03-.07.3.3 0 0 0 .04-.1.3.3 0 0 0 0-.08.3.3 0 0 0 0-.03.3.3 0 0 0-.04-.08l-2-2.98.37-1.1 1.16 1.8a.3.3 0 0 0 .04.03.3.3 0 0 0 .07.03.3.3 0 0 0 .1.03.3.3 0 0 0 .08 0 .3.3 0 0 0 .07 0 .3.3 0 0 0 .1-.07.3.3 0 0 0 .05-.08.3.3 0 0 0 .04-.1.3.3 0 0 0 0-.08.3.3 0 0 0 0-.04.3.3 0 0 0-.03-.07l-1.3-1.93a.3.3 0 0 0-.05-.07.3.3 0 0 0-.07-.04.3.3 0 0 0-.03-.04l.32-1.02 2.58 3.05-.8 1.55a.3.3 0 0 0-.03.08.3.3 0 0 0 0 .07.3.3 0 0 0 0 .07.3.3 0 0 0 .02.07.3.3 0 0 0 .04.08.3.3 0 0 0 .07.03.3.3 0 0 0 .07.04.3.3 0 0 0 .08 0 .3.3 0 0 0 .07 0 .3.3 0 0 0 .1-.08.3.3 0 0 0 .04-.04.3.3 0 0 0 .03-.04l.7-1.38 1 1.2-1.08 1.82a.3.3 0 0 0-.04.03.3.3 0 0 0-.02.16.3.3 0 0 0 .03.1.3.3 0 0 0 .12.12.3.3 0 0 0 .07.03.3.3 0 0 0 .07 0 .3.3 0 0 0 .07 0 .3.3 0 0 0 .1-.02.3.3 0 0 0 .04-.04.3.3 0 0 0 .04-.07l1.02-1.64.83 1.02-1.45 2.07a.3.3 0 0 0-.04.04.3.3 0 0 0-.03.1.3.3 0 0 0 0 .08.3.3 0 0 0 .03.1.3.3 0 0 0 .1.12.3.3 0 0 0 .16.03.3.3 0 0 0 .03 0 .3.3 0 0 0 .1-.04.3.3 0 0 0 .1-.08l1.4-1.96.55.66-.18 1.52a.3.3 0 0 0 0 .04.3.3 0 0 0 .03.1.3.3 0 0 0 0 .04l.9 1.57a.3.3 0 0 0 .05.03.3.3 0 0 0 .03.04.3.3 0 0 0 .04.04.3.3 0 0 0 .1.03.3.3 0 0 0 .1 0 .3.3 0 0 0 .15-.08.3.3 0 0 0 .04-.04.3.3 0 0 0 .03-.07.3.3 0 0 0 0-.06.3.3 0 0 0 0-.08.3.3 0 0 0-.04-.1l-.88-1.5.1-.94a.58.58 0 0 0 .84-.5c.47 0 .98.03.98.03a.3.3 0 0 0 .07 0 .3.3 0 0 0 .05 0 .3.3 0 0 0 .07-.04.3.3 0 0 0 .1-.1.3.3 0 0 0 .05-.1.3.3 0 0 0 0-.08.3.3 0 0 0-.04-.07.3.3 0 0 0-.07-.1.3.3 0 0 0-.07-.04.3.3 0 0 0-.12-.03s-.84-.05-1.35-.07l-.2-.26 1.44-.94a.3.3 0 0 0 .07-.08.3.3 0 0 0 .04-.07.3.3 0 0 0 .03-.1.3.3 0 0 0-.02-.12.3.3 0 0 0-.07-.1.3.3 0 0 0-.07-.04.3.3 0 0 0-.1-.05.3.3 0 0 0-.04 0 .3.3 0 0 0-.12.04.3.3 0 0 0-.04.03l-1.5.98-.97-1.16 1.46-.03a.3.3 0 0 0 .03 0 .3.3 0 0 0 .07-.03.3.3 0 0 0 .08-.04.3.3 0 0 0 .04-.07.3.3 0 0 0 .04-.07.3.3 0 0 0 0-.08.3.3 0 0 0 0-.08.3.3 0 0 0-.07-.14.3.3 0 0 0-.03-.04.3.3 0 0 0-.1-.03.3.3 0 0 0-.08 0l-1.9.07-.8-.98 1.38.33a.3.3 0 0 0 .07 0 .3.3 0 0 0 .04 0 .3.3 0 0 0 .1-.04.3.3 0 0 0 .1-.06.3.3 0 0 0 .05-.08.3.3 0 0 0 0-.07.3.3 0 0 0 0-.08.3.3 0 0 0-.04-.1.3.3 0 0 0-.03-.05.3.3 0 0 0-.07-.07.3.3 0 0 0-.07-.04l-2.15-.43-.7-.87a.3.3 0 0 0 .05-.15.3.3 0 0 0-.04-.06l-.84-2.07 1.7.3.8 2.35a.3.3 0 0 0 .08.14.3.3 0 0 0 .1.04.3.3 0 0 0 .12.04.3.3 0 0 0 .1-.04.3.3 0 0 0 .1-.1.3.3 0 0 0 .05-.08.3.3 0 0 0 0-.07.3.3 0 0 0 0-.08.3.3 0 0 0 0-.03l-.68-2.07 1.42.22.6 2.5a.3.3 0 0 0 .05.06.3.3 0 0 0 .03.08.3.3 0 0 0 .07.03.3.3 0 0 0 .14.04.3.3 0 0 0 .08 0 .3.3 0 0 0 .14-.1.3.3 0 0 0 .04-.07.3.3 0 0 0 .03-.1.3.3 0 0 0 0-.08l-.58-2.26.95.14 1.52 2.25a.3.3 0 0 0 .1.1.3.3 0 0 0 .16.04.3.3 0 0 0 .1-.04.3.3 0 0 0 .12-.07.3.3 0 0 0 .03-.07.3.3 0 0 0 0-.08.3.3 0 0 0 0-.07.3.3 0 0 0 0-.06.3.3 0 0 0-.03-.08l-1.24-1.85a.6.6 0 0 0 .33-.9c.03-.05.08-.1.13-.18.14-.2.3-.46.48-.72.34-.52.62-1.06.62-1.06a.3.3 0 0 0 .04-.03.3.3 0 0 0 .04-.07.3.3 0 0 0 0-.07.3.3 0 0 0-.04-.07.3.3 0 0 0-.04-.08.3.3 0 0 0-.03-.04.3.3 0 0 0-.05-.04.3.3 0 0 0-.07-.03.3.3 0 0 0-.15 0 .3.3 0 0 0-.07.04.3.3 0 0 0-.1.1s-.33.5-.66 1.03c-.17.26-.34.52-.48.73-.06.1-.1.15-.14.2l-.8-.1.22-1.85a.3.3 0 0 0 0-.07.3.3 0 0 0-.04-.07.3.3 0 0 0-.03-.07.3.3 0 0 0-.04-.03.3.3 0 0 0-.05-.04.3.3 0 0 0-.1-.03.3.3 0 0 0-.08 0 .3.3 0 0 0-.04 0 .3.3 0 0 0-.03.03.3.3 0 0 0-.07.04.3.3 0 0 0-.04.03.3.3 0 0 0-.05.04.3.3 0 0 0-.03.07.3.3 0 0 0 0 .04l-.22 1.82-1.5-.22.88-1.9a.3.3 0 0 0 0-.06.3.3 0 0 0 0-.04.3.3 0 0 0 0-.07.3.3 0 0 0-.03-.1.3.3 0 0 0-.08-.07.3.3 0 0 0-.07-.04.3.3 0 0 0-.1-.05.3.3 0 0 0-.05 0 .3.3 0 0 0-.14.08.3.3 0 0 0-.03.03.3.3 0 0 0-.03.08l-.9 2.03-1.17-.18 1.05-1.17a.3.3 0 0 0 .04-.04.3.3 0 0 0 .03-.08.3.3 0 0 0 0-.08.3.3 0 0 0 0-.07.3.3 0 0 0-.04-.1.3.3 0 0 0-.04-.04.3.3 0 0 0-.04-.04.3.3 0 0 0-.1-.05.3.3 0 0 0-.08 0 .3.3 0 0 0-.07 0 .3.3 0 0 0-.04 0 .3.3 0 0 0-.12.08l-1.3 1.45-2.4-.4c.2-.35.37-.6.73-1.13.02-.02.03-.05.04-.07l1.96.36a.3.3 0 0 0 .04.04.3.3 0 0 0 .07 0 .3.3 0 0 0 .08-.04.3.3 0 0 0 .1-.1.3.3 0 0 0 .05-.08.3.3 0 0 0 0-.07.3.3 0 0 0 0-.05.3.3 0 0 0 0-.07.3.3 0 0 0-.07-.1.3.3 0 0 0-.04-.04.3.3 0 0 0-.1-.04l-1.68-.33 1.3-.98a.3.3 0 0 0 .08-.08.3.3 0 0 0 .04-.07.3.3 0 0 0 0-.04l1.67.45a.3.3 0 0 0 .07 0 .3.3 0 0 0 .04 0 .3.3 0 0 0 .14-.08.3.3 0 0 0 .04-.03.3.3 0 0 0 .04-.08.3.3 0 0 0 .03-.1.3.3 0 0 0 0-.08.3.3 0 0 0-.15-.18.3.3 0 0 0-.08-.04l-1.96-.5c.1-.1.15-.22.23-.33.3-.4.3-.4.58-.76l2.45.83a.3.3 0 0 0 .03 0 .3.3 0 0 0 .07 0 .3.3 0 0 0 .08 0 .3.3 0 0 0 .14-.1.3.3 0 0 0 .04-.04.3.3 0 0 0 .04-.1.3.3 0 0 0-.03-.12.3.3 0 0 0-.1-.15.3.3 0 0 0-.04-.04.3.3 0 0 0-.03 0l-2.26-.77c.05-.07.07-.1.1-.15l1.1-.55a.3.3 0 0 0 .04-.03h1.06a.3.3 0 0 0 .08 0 .3.3 0 0 0 .07-.04l2.15-1.2a.3.3 0 0 0 .07-.03.3.3 0 0 0 .04-.04.3.3 0 0 0 .04-.1.3.3 0 0 0 0-.08.3.3 0 0 0 0-.04.3.3 0 0 0-.04-.1.3.3 0 0 0-.1-.12.3.3 0 0 0-.15-.03.3.3 0 0 0-.03 0 .3.3 0 0 0-.07.02l-2.1 1.17h-1.24c.15-.2.7-.92.7-.92a.58.58 0 0 0-.63-.95.58.58 0 0 0-.07 0l-.15-.4 1.2-1.88a.3.3 0 0 0 .05-.08.3.3 0 0 0 0-.07.3.3 0 0 0 0-.04.3.3 0 0 0 0-.07.3.3 0 0 0-.08-.12.3.3 0 0 0-.03-.03.3.3 0 0 0-.1-.04.3.3 0 0 0-.1-.03.3.3 0 0 0-.06.04.3.3 0 0 0-.07.05.3.3 0 0 0-.06.07l-1.27 2a.3.3 0 0 0-.04.03.3.3 0 0 0-.04.1.3.3 0 0 0 0 .08.3.3 0 0 0 .03.04l.3.84c-.08.1-.7.93-1.1 1.46l-.84-.7a.3.3 0 0 0 .03-.03.3.3 0 0 0 .04-.07.3.3 0 0 0 .03-.15.3.3 0 0 0-.03-.1.3.3 0 0 0-.1-.1.3.3 0 0 0-.08-.04.3.3 0 0 0-.1 0 .3.3 0 0 0-.06 0 .3.3 0 0 0-.07 0l-.15.07L23 15a.3.3 0 0 0-.12-.04.3.3 0 0 0-.15-.04.3.3 0 0 0-.1.08.3.3 0 0 0-.04.03.3.3 0 0 0-.1.15.3.3 0 0 0 0 .03.3.3 0 0 0 0 .05l-1.7.73a.3.3 0 0 0 0-.04.3.3 0 0 0-.1-.14.3.3 0 0 0-.04-.04.3.3 0 0 0-.07 0v-.1a.3.3 0 0 0 .06 0 .3.3 0 0 0 .1-.05.3.3 0 0 0 .08-.02l3.2-2.73a.3.3 0 0 0 .04-.03.3.3 0 0 0 .03-.04.3.3 0 0 0 .05-.07.3.3 0 0 0 0-.06.3.3 0 0 0 0-.04.3.3 0 0 0-.04-.1.3.3 0 0 0-.02-.08.3.3 0 0 0-.04-.04.3.3 0 0 0-.04-.03.3.3 0 0 0-.1-.04.3.3 0 0 0-.04 0 .3.3 0 0 0-.1.05.3.3 0 0 0-.08.03l-3.13 2.65-.1-2.36 2.2-1.4a.3.3 0 0 0 .05-.05.3.3 0 0 0 .03-.07.3.3 0 0 0 .04-.08.3.3 0 0 0 0-.07.3.3 0 0 0 0-.07.3.3 0 0 0-.04-.07.3.3 0 0 0-.03-.08.3.3 0 0 0-.08-.03.3.3 0 0 0-.07-.04.3.3 0 0 0-.07 0 .3.3 0 0 0-.08 0 .3.3 0 0 0-.07.05l-1.9 1.27-.06-1.5L22.6 9.3a.3.3 0 0 0 .1-.08.3.3 0 0 0 .03-.07.3.3 0 0 0 .04-.1.3.3 0 0 0-.04-.12.3.3 0 0 0-.03-.07.3.3 0 0 0-.08-.07.3.3 0 0 0-.07-.05.3.3 0 0 0-.07 0 .3.3 0 0 0-.04 0 .3.3 0 0 0-.07 0 .3.3 0 0 0-.04.04l-2 1.08-.03-1.06 1.67-1.92a.3.3 0 0 0 .07-.15.3.3 0 0 0 0-.03.3.3 0 0 0 0-.08.3.3 0 0 0-.03-.07.3.3 0 0 0-.03-.04.3.3 0 0 0-.07-.07.3.3 0 0 0-.08-.04.3.3 0 0 0-.07 0 .3.3 0 0 0-.07 0 .3.3 0 0 0-.04 0zm-5.6 9.2a.3.3 0 0 0 .04.07.3.3 0 0 0 .04.02.3.3 0 0 0 .04.04.3.3 0 0 0 .03.04.3.3 0 0 0 .1.03l3.13.37.07 1.34-1.78-.9a.3.3 0 0 0-.15-.05.3.3 0 0 0-.07 0 .3.3 0 0 0 0-.04.3.3 0 0 0 0-.07.3.3 0 0 0-.04-.1.3.3 0 0 0-.03-.06.3.3 0 0 0-.04-.04.3.3 0 0 0-.04-.03.3.3 0 0 0-.1-.04.3.3 0 0 0-.1 0 .3.3 0 0 0-.06 0 .3.3 0 0 0-.03.04.3.3 0 0 0-.08.03.3.3 0 0 0-.04.04.3.3 0 0 0-.04.07.3.3 0 0 0 0 .05l-.62 2.07-1.1-.87.85-2.04zm6.87.1l1.07.87c-.25.32-.3.37-.58.76l-.5.25-.9-1.48.9-.4zm-1.48.66l.98 1.5-.8.35-.18-.7a.3.3 0 0 0-.03-.1.3.3 0 0 0-.05-.04.3.3 0 0 0-.03-.04.3.3 0 0 0-.04-.04.3.3 0 0 0-.1-.04.3.3 0 0 0-.05 0 .3.3 0 0 0-.1.04.3.3 0 0 0-.1.07.3.3 0 0 0-.05.07.3.3 0 0 0-.04.1.3.3 0 0 0 .04.1l.18.67-.36-.18-.07-1.46.8-.32zm-4.06.65a.3.3 0 0 0 .07.07.3.3 0 0 0 .03.04l2.08 1.05.03 1.05-.62-.33a.3.3 0 0 0-.14-.04.3.3 0 0 0-.03 0 .3.3 0 0 0-.07.04.3.3 0 0 0-.1.07.3.3 0 0 0-.05.06.3.3 0 0 0 0 .2.3.3 0 0 0 .04.1.3.3 0 0 0 .03.03.3.3 0 0 0 .03.03.3.3 0 0 0 .04 0l.9.47.04 1.27-2.83-2.25.56-1.9zm5.3 1.34c-.26.37-.48.73-.73 1.1l-.18-.66.9-.43zm-1.93.44l.1.08a.3.3 0 0 0 .1.04.3.3 0 0 0 .06 0 .3.3 0 0 0 0 .04.3.3 0 0 0 .02.03.3.3 0 0 0 .04.03.3.3 0 0 0 .1.03.3.3 0 0 0 .08 0l.22.84a.3.3 0 0 0 .07.15c-.14.2-.33.45-.47.65-.1.14-.16.26-.25.4l-.03-.55a.3.3 0 0 0 .1 0 .3.3 0 0 0 .12-.03.3.3 0 0 0 .06-.04.3.3 0 0 0 .07-.07.3.3 0 0 0 .04-.06.3.3 0 0 0 0-.08.3.3 0 0 0 0-.03.3.3 0 0 0 0-.08.3.3 0 0 0-.07-.1.3.3 0 0 0-.08-.08l-.25-.14-.04-1.02zm1.02 4.95l.65.1a.3.3 0 0 0 0 .05.3.3 0 0 0 0 .03l.5 1.2-1.15-1.38z" style="text-indent:0;text-align:start;line-height:normal;text-transform:none;block-progression:tb;-inkscape-font-specification:Sans" overflow="visible" enable-background="accumulate" font-family="Sans"/></g></svg>