<svg xmlns="http://www.w3.org/2000/svg" width="48" height="48" xmlns:xlink="http://www.w3.org/1999/xlink"><defs><linearGradient id="m"><stop offset="0" stop-color="#a40000"/><stop offset="1" stop-color="#a40000" stop-opacity="0"/></linearGradient><linearGradient id="l"><stop offset="0" stop-color="#ef2929"/><stop offset="1" stop-color="#ef2929" stop-opacity="0"/></linearGradient><linearGradient x1="1183.881" x2="1181.998" y1="1698.929" y2="1699.999" gradientUnits="userSpaceOnUse" gradientTransform="translate(-1156.642 -1655.956)"><stop offset="0" stop-color="#F4B167"/><stop offset=".292" stop-color="#F3D196"/><stop offset=".376" stop-color="#F3D196"/><stop offset="1" stop-color="#EE8424"/></linearGradient><linearGradient x1="1177.703" x2="1175.606" y1="1701.176" y2="1701.476" gradientUnits="userSpaceOnUse" gradientTransform="translate(-1156.642 -1655.956)"><stop offset="0" stop-color="#F4B167"/><stop offset=".292" stop-color="#F3D196"/><stop offset=".376" stop-color="#F3D196"/><stop offset="1" stop-color="#EE8424"/></linearGradient><radialGradient id="k" cx="1190.832" cy="1670.785" r=".401" gradientUnits="userSpaceOnUse" fy="1670.785" fx="1190.832" gradientTransform="translate(-1156.642 -1655.956)"><stop offset="0" stop-color="#F3D196"/><stop offset=".129" stop-color="#F3D196"/><stop offset="1" stop-color="#EE8424"/></radialGradient><linearGradient id="j" x1="1192.739" x2="1192.124" y1="1671.622" y2="1672.399" gradientUnits="userSpaceOnUse" gradientTransform="translate(-1156.642 -1655.956)"><stop offset=".006" stop-color="#F3D196"/><stop offset=".517" stop-color="#F0943B"/></linearGradient><radialGradient id="i" cx="1187.812" cy="1667.972" r=".517" gradientUnits="userSpaceOnUse" fy="1667.972" fx="1187.812" gradientTransform="translate(-1156.642 -1655.956)"><stop offset="0" stop-color="#F3D196"/><stop offset=".129" stop-color="#F3D196"/><stop offset="1" stop-color="#EE8424"/></radialGradient><linearGradient id="h" x1="1189.773" x2="1189.064" y1="1668.994" y2="1670.081" gradientUnits="userSpaceOnUse" gradientTransform="translate(-1156.642 -1655.956)"><stop offset="0" stop-color="#F4B167"/><stop offset=".292" stop-color="#E3C18A"/><stop offset="1" stop-color="#EE8424"/></linearGradient><linearGradient id="g" x1="1186.393" x2="1185.306" y1="1665.963" y2="1667.476" gradientUnits="userSpaceOnUse" gradientTransform="translate(-1156.642 -1655.956)"><stop offset="0" stop-color="#F4B167"/><stop offset=".292" stop-color="#E3C18A"/><stop offset="1" stop-color="#EE8424"/></linearGradient><radialGradient id="f" cx="1184.265" cy="1665.213" r="1.103" gradientUnits="userSpaceOnUse" fy="1665.213" fx="1184.265" gradientTransform="translate(-1156.642 -1655.956)"><stop offset="0" stop-color="#F3D196"/><stop offset=".129" stop-color="#F3D196"/><stop offset="1" stop-color="#EE8424"/></radialGradient><linearGradient x1="1183.125" x2="1180.992" y1="1693.45" y2="1693.264" gradientUnits="userSpaceOnUse" gradientTransform="translate(-1156.642 -1655.956)"><stop offset="0" stop-color="#F4B167"/><stop offset=".292" stop-color="#F3D196"/><stop offset=".371" stop-color="#F3D196"/><stop offset="1" stop-color="#EE8424"/></linearGradient><radialGradient cx="1182.75" cy="1688.885" r=".986" gradientUnits="userSpaceOnUse" fy="1688.885" fx="1182.75" gradientTransform="translate(-1156.642 -1655.956)"><stop offset="0" stop-color="#F3D196"/><stop offset=".129" stop-color="#F3D196"/><stop offset="1" stop-color="#EE8424"/></radialGradient><linearGradient x1="1183.917" x2="1180.772" y1="1683.48" y2="1683.445" gradientUnits="userSpaceOnUse" gradientTransform="translate(-1156.642 -1655.956)"><stop offset="0" stop-color="#F4B167"/><stop offset=".292" stop-color="#F3D196"/><stop offset=".421" stop-color="#F3D196"/><stop offset="1" stop-color="#EE8424"/></linearGradient><linearGradient x1="1177.789" x2="1175.625" y1="1694.808" y2="1694.406" gradientUnits="userSpaceOnUse" gradientTransform="translate(-1156.642 -1655.956)"><stop offset="0" stop-color="#F4B167"/><stop offset=".292" stop-color="#F3D196"/><stop offset=".376" stop-color="#F3D196"/><stop offset="1" stop-color="#EE8424"/></linearGradient><radialGradient cx="1178.121" cy="1689.425" r=".954" gradientUnits="userSpaceOnUse" fy="1689.425" fx="1178.121" gradientTransform="translate(-1156.642 -1655.956)"><stop offset="0" stop-color="#F3D196"/><stop offset=".129" stop-color="#F3D196"/><stop offset="1" stop-color="#EE8424"/></radialGradient><linearGradient x1="1179.933" x2="1176.614" y1="1683.922" y2="1683.538" gradientUnits="userSpaceOnUse" gradientTransform="translate(-1156.642 -1655.956)"><stop offset="0" stop-color="#F4B167"/><stop offset=".292" stop-color="#F3D196"/><stop offset=".421" stop-color="#F3D196"/><stop offset="1" stop-color="#EE8424"/></linearGradient><radialGradient cx="1179.168" cy="1678.608" r="1.459" gradientUnits="userSpaceOnUse" fy="1678.608" fx="1179.168" gradientTransform="translate(-1156.642 -1655.956)"><stop offset="0" stop-color="#F3D196"/><stop offset=".129" stop-color="#F3D196"/><stop offset="1" stop-color="#EE8424"/></radialGradient><radialGradient cx="1182.831" cy="1678.495" r="1.552" gradientUnits="userSpaceOnUse" fy="1678.495" fx="1182.831" gradientTransform="translate(-1156.642 -1655.956)"><stop offset="0" stop-color="#F3D196"/><stop offset=".107" stop-color="#F3D196"/><stop offset="1" stop-color="#EE8424"/></radialGradient><radialGradient cx="1181.204" cy="1675.502" r="3.561" gradientUnits="userSpaceOnUse" fy="1675.502" fx="1181.204" gradientTransform="translate(-1156.642 -1655.956)"><stop offset="0" stop-color="#F3D196"/><stop offset=".197" stop-color="#F3D196"/><stop offset="1" stop-color="#EE8424"/></radialGradient><radialGradient id="e" cx="1181.392" cy="1672.234" r="2.981" gradientUnits="userSpaceOnUse" fy="1672.234" fx="1181.392" gradientTransform="translate(-1156.642 -1655.956)"><stop offset="0" stop-color="#F3D196"/><stop offset="1" stop-color="#EE8324"/></radialGradient><radialGradient id="d" cx="1181.547" cy="1665.856" r="5.775" gradientUnits="userSpaceOnUse" fy="1665.856" fx="1181.547" gradientTransform="translate(-1156.642 -1655.956)"><stop offset="0" stop-color="#F3D196"/><stop offset=".197" stop-color="#F3D196"/><stop offset="1" stop-color="#EE8424"/></radialGradient><radialGradient id="c" cx="1176.868" cy="1664.601" r="1.28" gradientUnits="userSpaceOnUse" fy="1664.601" fx="1176.868" gradientTransform="translate(-1156.642 -1655.956)"><stop offset="0" stop-color="#F3D196"/><stop offset=".129" stop-color="#F3D196"/><stop offset="1" stop-color="#EE8424"/></radialGradient><linearGradient x1="1173.058" x2="1174.429" y1="1666.42" y2="1668.075" gradientUnits="userSpaceOnUse" gradientTransform="translate(-1156.642 -1655.956)"><stop offset="0" stop-color="#F4B167"/><stop offset=".292" stop-color="#F3D196"/><stop offset=".421" stop-color="#F3D196"/><stop offset="1" stop-color="#EE8424"/></linearGradient><radialGradient cx="1171.076" cy="1668.957" r=".712" gradientUnits="userSpaceOnUse" fy="1668.957" fx="1171.076" gradientTransform="translate(-1156.642 -1655.956)"><stop offset="0" stop-color="#F3D196"/><stop offset=".129" stop-color="#F3D196"/><stop offset="1" stop-color="#EE8424"/></radialGradient><linearGradient x1="1168.026" x2="1169.255" y1="1670.603" y2="1671.928" gradientUnits="userSpaceOnUse" gradientTransform="translate(-1156.642 -1655.956)"><stop offset="0" stop-color="#F4B167"/><stop offset=".292" stop-color="#F3D196"/><stop offset=".421" stop-color="#F3D196"/><stop offset="1" stop-color="#EE8424"/></linearGradient><radialGradient cx="1166.426" cy="1673.148" r=".612" gradientUnits="userSpaceOnUse" fy="1673.148" fx="1166.426" gradientTransform="translate(-1156.642 -1655.956)"><stop offset="0" stop-color="#F3D196"/><stop offset=".129" stop-color="#F3D196"/><stop offset="1" stop-color="#EE8424"/></radialGradient><linearGradient x1="1164.108" x2="1165.697" y1="1674.438" y2="1675.82" gradientUnits="userSpaceOnUse" gradientTransform="translate(-1156.642 -1655.956)"><stop offset=".506" stop-color="#F3D196"/><stop offset="1" stop-color="#F0943B"/></linearGradient><radialGradient id="b" cx="1181.263" cy="1662.666" r="1.542" gradientUnits="userSpaceOnUse" fy="1662.666" fx="1181.263" gradientTransform="translate(-1156.642 -1655.956)"><stop offset="0" stop-color="#F3D196"/><stop offset=".129" stop-color="#F3D196"/><stop offset="1" stop-color="#EE8424"/></radialGradient><radialGradient id="a" cx="1182.248" cy="1658.428" r="3.295" gradientUnits="userSpaceOnUse" fy="1658.428" fx="1182.248" gradientTransform="translate(-1156.642 -1655.956)"><stop offset="0" stop-color="#F3D196"/><stop offset=".197" stop-color="#F3D196"/><stop offset="1" stop-color="#EE8424"/></radialGradient><radialGradient id="B" cx="1182.248" cy="1658.428" r="3.295" xlink:href="#a" gradientUnits="userSpaceOnUse" gradientTransform="matrix(2.146 0 0 2.149 -2520.543 -3559.226)" fx="1182.248" fy="1658.428"/><radialGradient id="A" cx="1181.263" cy="1662.666" r="1.542" xlink:href="#b" gradientUnits="userSpaceOnUse" gradientTransform="matrix(2.146 0 0 2.149 -2520.543 -3559.226)" fx="1181.263" fy="1662.666"/><radialGradient id="x" cx="1176.868" cy="1664.601" r="1.28" xlink:href="#c" gradientUnits="userSpaceOnUse" gradientTransform="matrix(2.146 0 0 2.149 -2520.543 -3551.748)" fx="1176.868" fy="1664.601"/><radialGradient id="w" cx="1181.547" cy="1665.856" r="5.775" xlink:href="#d" gradientUnits="userSpaceOnUse" gradientTransform="matrix(2.146 0 0 2.149 -2520.543 -3551.748)" fx="1181.547" fy="1665.856"/><radialGradient id="v" cx="1181.392" cy="1672.234" r="2.981" xlink:href="#e" gradientUnits="userSpaceOnUse" gradientTransform="matrix(2.146 0 0 2.149 -2520.543 -3551.748)" fx="1181.392" fy="1672.234"/><radialGradient id="u" cx="1184.265" cy="1665.213" r="1.103" xlink:href="#f" gradientUnits="userSpaceOnUse" gradientTransform="matrix(2.146 0 0 2.149 -2520.543 -3551.748)" fx="1184.265" fy="1665.213"/><linearGradient id="t" x1="1186.393" x2="1185.306" y1="1665.963" y2="1667.476" xlink:href="#g" gradientUnits="userSpaceOnUse" gradientTransform="matrix(2.08 0 0 2.083 -2435.676 -3438.799)"/><linearGradient id="s" x1="1189.773" x2="1189.064" y1="1668.994" y2="1670.081" xlink:href="#h" gradientUnits="userSpaceOnUse" gradientTransform="matrix(2.08 0 0 2.083 -2435.676 -3438.799)"/><radialGradient id="r" cx="1187.812" cy="1667.972" r=".517" xlink:href="#i" gradientUnits="userSpaceOnUse" gradientTransform="matrix(2.08 0 0 2.083 -2435.676 -3438.799)" fx="1187.812" fy="1667.972"/><linearGradient id="q" x1="1192.739" x2="1192.124" y1="1671.622" y2="1672.399" xlink:href="#j" gradientUnits="userSpaceOnUse" gradientTransform="matrix(2.08 0 0 2.083 -2435.676 -3438.799)"/><radialGradient id="p" cx="1190.832" cy="1670.785" r=".401" xlink:href="#k" gradientUnits="userSpaceOnUse" gradientTransform="matrix(2.08 0 0 2.083 -2435.676 -3438.799)" fx="1190.832" fy="1670.785"/><linearGradient id="n" x1="25.179" x2="28.143" y1="28.571" y2="30.5" xlink:href="#l" gradientUnits="userSpaceOnUse" gradientTransform="matrix(1.58 0 0 1.591 -13.473 -15.636)"/><linearGradient id="o" x1="26.071" x2="27.5" y1="29.786" y2="30.786" xlink:href="#m" gradientUnits="userSpaceOnUse" gradientTransform="matrix(1.58 0 0 1.591 -13.473 -15.636)"/><linearGradient id="y" x1="25.179" x2="28.143" y1="28.571" y2="30.5" xlink:href="#l" gradientUnits="userSpaceOnUse" gradientTransform="matrix(-.932 -1.412 1.414 -.931 -3.977 80.963)"/><linearGradient id="z" x1="26.071" x2="27.5" y1="29.786" y2="30.786" xlink:href="#m" gradientUnits="userSpaceOnUse" gradientTransform="matrix(-.932 -1.412 1.414 -.931 -3.977 80.963)"/></defs><g><path fill="url(#n)" fill-rule="evenodd" stroke="url(#o)" d="M29.56 34.4l-4.25-2.6-1.76 2.77-2.5-7.35 7.7-.86-1.77 2.47 4.55 2.84-1.96 2.73z"/><path fill="none" stroke="#66330d" stroke-width="1.2" d="M41.86 41.12c.14 0 .42.28.45.55.03.27-.5 1.22-.86 1.17-.35-.05-.73-.35-.74-.52-.02-.18 1-1.2 1.16-1.2z"/><path fill="none" stroke="#66330d" stroke-width="1.2" d="M41.34 42.87c.56-.3.94-.88.97-1.2.04-.36 2.3.6 4.44 3.6.77 1.06.73 2.3.58 2.12 0 0-1.1-.3-3.45-2.18-1.3-1.04-2.15-1.83-2.53-2.35z"/><path fill="none" stroke="#66330d" stroke-width="1.2" d="M34.56 35.22c.4-.06 1.26.4 1.6.98.3.53-.9 2.06-1.28 2.1-.36.05-1.33-.65-1.43-1.14-.1-.48.9-1.92 1.1-1.94z"/><path fill="none" stroke="#66330d" stroke-width="1.2" d="M35.6 37.13c.3-.48.5-1 .58-1 .54-.14 5.66 4.6 5.7 4.9.02.35-.8 1.4-1.27 1.37-.28-.02-5.67-3.3-5.8-4-.04-.1.44-.68.8-1.27z"/><path fill="none" stroke="#66330d" stroke-width="1.2" d="M29.1 29.67c.42.18 4 3.02 5.5 5.3.4.6-.73 2.45-1.28 2.32-.58-.14-5.6-3.45-5.7-3.83-.6-2 .86-4.07 1.5-3.8z"/><path fill="none" stroke="#66330d" stroke-width="1.2" d="M19.37 24.1c.48.07 2.07.64 2.44 1.86.38 1.22-.67 3.94-1.58 4.35-.9.4-.85-6.2-.85-6.2z"/><path fill="none" stroke="#66330d" stroke-width="1.2" d="M8.9 40.3c.73-.65 6.54-1.68 8.42-.26.45.33.97 3.45.6 3.76-1.45 1.23-7.15 1.76-9.85.23-.75-.44.4-3.4.82-3.74z"/><path fill="none" stroke="#66330d" stroke-width="1.2" d="M4.87 23.36c.53-.5 8.8-2.1 14.62.35.73.32 1.26 6.28 1.16 6.75-.4 1.78-2.54 8.83-3.1 9.5-.46.58-5.78 1-8.86.37-.07-.02-.1.54-.27.36-.2-.2-1.08-1.36-1.6-2.15-.85-1.24-3.33-5.96-4-10-.36-2.2.85-4.07 2.04-5.17z"/><path fill="none" stroke="#66330d" stroke-width="1.2" d="M5 24.05c1.7.6 2.56 4.36 1.3 5.78-.82.9-2.38 1.02-3 .62-.67-.43-2.45-3.03-2.42-3.57.05-1.37 1.2-2.23 1.94-2.6 1.03-.5 1.8-.37 2.2-.23z"/><path fill="url(#p)" stroke="#66330d" stroke-width=".25" d="M41.86 41.12c.14 0 .42.3.45.55.03.27-.5 1.22-.86 1.17-.35-.04-.73-.34-.74-.52-.02-.17 1-1.2 1.16-1.2z"/><path fill="url(#q)" stroke="#66330d" stroke-width=".25" d="M41.34 42.87c.57-.3.94-.88.97-1.2.04-.36 2.3.6 4.44 3.6.77 1.06.73 2.3.58 2.12 0 0-1.1-.3-3.45-2.18-1.3-1.04-2.15-1.83-2.53-2.35z"/><path fill="url(#r)" stroke="#66330d" stroke-width=".25" d="M34.56 35.22c.42-.06 1.26.4 1.6.98.3.54-.9 2.06-1.28 2.1-.36.05-1.33-.64-1.43-1.14-.1-.48.9-1.92 1.1-1.94z"/><path fill="url(#s)" stroke="#66330d" stroke-width=".25" d="M35.6 37.14c.3-.5.5-1 .58-1 .54-.15 5.66 4.6 5.7 4.9.02.34-.8 1.4-1.27 1.36-.28-.02-5.67-3.3-5.8-4-.04-.1.44-.68.8-1.26z"/><path fill="url(#t)" stroke="#66330d" stroke-width=".25" d="M29.12 29.67c.4.2 3.98 3.03 5.5 5.3.4.6-.75 2.45-1.3 2.32-.58-.14-5.6-3.44-5.7-3.83-.6-2 .86-4.07 1.5-3.8z"/><path fill="url(#u)" stroke="#66330d" stroke-width=".25" d="M19.37 24.12c.48.05 2.07.62 2.44 1.84.38 1.22-.67 3.94-1.58 4.35-.9.42-.85-6.18-.85-6.18z"/><path fill="url(#v)" stroke="#66330d" stroke-width=".25" d="M8.9 40.3c.74-.65 6.54-1.68 8.42-.26.45.33.97 3.45.6 3.77-1.45 1.23-7.15 1.76-9.85.23-.75-.44.4-3.4.82-3.74z"/><path fill="url(#w)" stroke="#66330d" stroke-width=".25" d="M4.87 23.36c.53-.48 8.82-2.1 14.62.35.73.32 1.26 6.28 1.16 6.75-.4 1.8-2.54 8.83-3.1 9.5-.46.58-5.77 1-8.86.37-.06 0-.1.54-.27.36-.2-.2-1.08-1.36-1.6-2.14-.85-1.25-3.33-5.96-4-10-.35-2.2.85-4.08 2.04-5.18z"/><path fill="url(#x)" stroke="#66330d" stroke-width=".25" d="M5 24.05c1.7.6 2.57 4.36 1.3 5.78-.82.9-2.38 1.02-3 .62-.67-.43-2.44-3.03-2.42-3.57.05-1.37 1.2-2.23 1.95-2.6 1.02-.5 1.78-.37 2.18-.23z"/><path fill="url(#y)" fill-rule="evenodd" stroke="url(#z)" d="M15.1 14.32l-.03 4.56h3.18l-4.57 6.75-4.64-6.48 2.67.03-.04-4.63 3.44-.23z"/><path fill="none" stroke="#66330d" stroke-width="1.2" d="M10.97 15.2c.08.3 1.32.8 2.6.8s1.9-.4 2.1-.66c.17-.25.2-3-.05-3.13-.4-.2-4.04-.26-4.54.02-.3.17-.2 2.7-.1 2.97z"/><path fill="none" stroke="#66330d" stroke-width="1.2" d="M15.43.78c1.42.42 2.97 2.28 2.9 5.62-.1 3.33-1.42 5.4-2.2 5.93-.66.47-5.07.6-5.64-.25-1.73-2.57-2.44-7.3-1.03-9.45C10.7.78 13.83.3 15.43.78z"/><path fill="url(#A)" stroke="#66330d" stroke-width=".25" d="M10.97 15.2c.08.3 1.32.8 2.6.8s1.9-.4 2.1-.66c.17-.25.2-3-.05-3.13-.4-.2-4.04-.26-4.54.03-.3.16-.18 2.7-.1 2.96z"/><path fill="url(#B)" stroke="#66330d" stroke-width=".25" d="M15.43.78c1.42.42 2.97 2.28 2.9 5.62-.1 3.33-1.42 5.4-2.2 5.94-.66.46-5.07.58-5.64-.26-1.73-2.56-2.44-7.3-1.03-9.45C10.7.78 13.83.3 15.43.78z"/></g></svg>