<svg xmlns="http://www.w3.org/2000/svg" width="48" height="48" xmlns:xlink="http://www.w3.org/1999/xlink" xmlns:sodipodi="http://inkscape.sourceforge.net/DTD/sodipodi-0.dtd" sodipodi:version=".32" sodipodi:docbase="E:\dev_clean\src\houdini\support\icons\shelf\model" sodipodi:docname="curve_nurbs.svg" version="1"><defs><linearGradient id="e"><stop offset="0"/><stop offset="1" stop-opacity="0"/></linearGradient><linearGradient id="d"><stop offset="0"/><stop offset="1" stop-opacity="0"/></linearGradient><linearGradient id="c"><stop offset="0" stop-color="#fff"/><stop offset="1" stop-color="#fff" stop-opacity="0"/></linearGradient><linearGradient id="b"><stop offset="0" stop-color="#5b90c8"/><stop offset=".316" stop-color="#8fb0d1"/><stop offset="1" stop-color="#34679d"/></linearGradient><linearGradient id="a"><stop offset="0" stop-color="#729fcf"/><stop offset=".316" stop-color="#a5bfda"/><stop offset="1" stop-color="#376ca4"/></linearGradient><linearGradient><stop offset="0"/><stop offset="1" stop-color="#c9c9c9"/></linearGradient><linearGradient><stop offset="0" stop-color="#c1c1c1"/><stop offset="1" stop-color="#acacac"/></linearGradient><linearGradient><stop offset="0" stop-color="#ffd1d1"/><stop offset=".5" stop-color="#ff1d1d"/><stop offset="1" stop-color="#6f0000"/></linearGradient><linearGradient><stop offset="0" stop-color="#fff"/><stop offset=".329" stop-color="#fff" stop-opacity=".69"/><stop offset=".658" stop-color="#c2c2c2" stop-opacity=".34"/><stop offset="1" stop-color="#fff" stop-opacity="0"/></linearGradient><linearGradient><stop offset="0" stop-color="#959791"/><stop offset=".5" stop-color="#f8f8f8"/><stop offset="1" stop-color="#8c8c8c"/></linearGradient><linearGradient><stop offset="0" stop-color="#f5f5f5" stop-opacity=".09"/><stop offset=".263" stop-color="#fff" stop-opacity=".9"/><stop offset=".748" stop-color="#c7c7c7" stop-opacity=".46"/><stop offset="1" stop-color="#fff" stop-opacity=".78"/></linearGradient><linearGradient id="g" x1="28.245" x2="28.245" y1="60.446" y2="68.225" xlink:href="#a" gradientUnits="userSpaceOnUse" gradientTransform="matrix(-.493 -.717 .717 -.493 -9.268 79.419)"/><linearGradient id="h" x1="28.245" x2="28.245" y1="60.446" y2="68.225" xlink:href="#b" gradientUnits="userSpaceOnUse" gradientTransform="matrix(-.493 -.717 .717 -.493 -9.268 79.419)"/><linearGradient id="i" x1="28.245" x2="28.245" y1="60.446" y2="68.225" xlink:href="#a" gradientUnits="userSpaceOnUse" gradientTransform="matrix(-.493 -.717 .717 -.493 -9.268 79.419)"/><linearGradient id="j" x1="55.876" x2="38.061" y1="62.402" y2="62.827" xlink:href="#c" gradientUnits="userSpaceOnUse" gradientTransform="matrix(-.493 -.717 .717 -.493 -9.268 79.419)"/><linearGradient x1="2.875" x2="12.875" y1="23.625" y2="11.125" xlink:href="#d" gradientUnits="userSpaceOnUse"/><linearGradient id="f" x1="14.431" x2="8.198" y1="19.955" y2="13.484" xlink:href="#e" gradientUnits="userSpaceOnUse" gradientTransform="matrix(1.405 .19 -.176 1.219 -1.266 -13.659)"/></defs><sodipodi:namedview width="48" height="48" fill="#eeeeec" stroke="#ef2929" pagecolor="#ffffff" bordercolor="#666666" borderopacity=".255" showgrid="false" objecttolerance="1"/><g><path fill="url(#f)" fill-rule="evenodd" d="M22.68 43.62s-13.3-.33-17.44-7.7c-3.7-6.63 8.33-10.56 10.4-16.4C18.07 12.63.85-1.1.85-1.1s18.8 13.32 17.7 19.75c-1.17 6.97-11.34 10.1-10.23 14.7 1.3 5.44 15.3 6.68 15.3 6.68l-.95 3.6z" sodipodi:nodetypes="csscsscc"/><path fill="none" stroke="#f60000" stroke-opacity=".42" d="M23.13 42.88l-18-.13-3.25-10.63 22.5-15-6.5-7.62L6.5 4.75" sodipodi:nodetypes="cccccc"/><g color="#000"><path fill="#e7e7e7" fill-rule="evenodd" stroke="#7d7d7d" d="M30 30.9c-.94-.53-3.25 1.86-5.24 5.3-1.98 3.44-2.16 7.05-1.95 7.17.23.13 3.25-1.85 5.23-5.3 2-3.43 2.9-6.63 1.96-7.16z" sodipodi:nodetypes="cszsc" overflow="visible"/><g stroke="#3465a4" stroke-width="1.254"><path fill="none" d="M42.22 20.66C46.52 16 48.9 7.3 46.66 4.5" sodipodi:cy="62" sodipodi:rx="13.063" sodipodi:ry="5.5" sodipodi:cx="40.188" sodipodi:start="4.043" sodipodi:end="6.067" sodipodi:open="true" overflow="visible" sodipodi:type="arc"/><path fill="#729fcf" fill-rule="evenodd" d="M44.86 16.83c-.62-.87-2.06.2-2.6 1.9-.22.76-.22 1.46.03 1.88l1.3-1.84z" sodipodi:rx="3" sodipodi:ry="1.563" sodipodi:cx="33.5" sodipodi:start="5.982" sodipodi:end="9.063" sodipodi:type="arc" sodipodi:cy="54.938" overflow="visible"/></g><path fill="url(#g)" fill-rule="evenodd" stroke="#3465a4" d="M18.3 27.05c2.95 4.15 5.84 7.75 8.23 10.33l3.87-2.66c-1.77-3.55-4.5-8.14-7.83-12.97-6-8.73-11.96-15.37-14.32-16.16-.07-.03-.17-.06-.23-.07-.05 0-.12 0-.16 0-.06 0-.15 0-.2.02-.02 0-.06 0-.07 0-.03.02-.05.04-.07.05 0 0-.02 0-.02 0 0 .02 0 .03-.02.03 0 0-.04.03-.05.04 0 0-.02.05-.03.06-.04.04-.08.12-.1.18-.02.05-.05.1-.06.16 0 .06 0 .16-.02.24-.1 2.48 3.98 10.4 9.98 19.14.38.54.74 1.08 1.1 1.6z" overflow="visible" transform="matrix(-.997 .08 .08 .997 51.441 -.404)"/><path fill="url(#h)" fill-rule="evenodd" stroke="#3465a4" d="M13.74 20.85c.75 1.05 1.52 2.06 2.26 3l5.4-3.72c-.87-1.46-1.85-3-2.92-4.53C13.42 8.24 8.18 2.77 5.94 2.3c-.02-.02-.07-.02-.1-.03 0 0-.05 0-.07 0-.05-.02-.12-.02-.16-.02 0 0-.04 0-.06 0-.05.02-.12.03-.16.05-.02 0-.06 0-.07 0 0 .02-.05.05-.07.06 0 0-.02.02-.02.02s0 0-.02.02c-.02 0-.06.04-.08.05 0 0-.02.05-.03.06-.03.05-.07.1-.1.15 0 .02-.02.05-.03.06 0 .05-.04.12-.05.16 0 .02-.02.07-.02.1 0 0-.02.05-.02.07-.35 2.28 2.9 9.1 7.95 16.47.33.46.63.9.94 1.35z" overflow="visible" transform="matrix(-.997 .08 .08 .997 51.441 -.404)"/><path fill="url(#i)" fill-rule="evenodd" stroke="#3465a4" d="M6.2 8.02l3.82-2.63C8 3.12 6.16 1.72 5.18 1.77c0 0-.03 0-.04 0 0 0-.03 0-.04 0 0 0-.03 0-.03 0-.04.02-.1.04-.13.05 0 0-.02.02-.02.02s-.03 0-.04 0c0 0-.02.02-.02.02s-.03 0-.03.02c0 0-.02 0-.03 0 0 0-.02.02-.02.02s-.02.02-.03.02c0 0-.02 0-.02.02 0 0 0 .03-.02.03-.04.03-.08.08-.1.1 0 .02 0 .04 0 .04s-.02.03-.03.04c0 0 0 .03 0 .03-.42.9.24 3.12 1.63 5.82z" overflow="visible" transform="matrix(-.997 .08 .08 .997 51.441 -.404)"/><path fill="none" stroke="url(#j)" d="M15.42 21.24c.2.27.38.52.56.78l3.75-2.58c-.5-.78-1.23-2.05-1.77-2.86C11.74 7.26 5.66 2.6 5.4 2.78c-.28.2 2.17 7.48 8.5 16.28.37.52 1.16 1.68 1.52 2.18z" sodipodi:nodetypes="cccszsc" opacity=".357" stroke-linecap="round" stroke-linejoin="round" overflow="visible" transform="matrix(-.997 .08 .08 .997 51.441 -.404)"/></g><path fill="#fff" fill-opacity=".654" fill-rule="evenodd" stroke="#f00" d="M20 10.06a1.94 1.94 0 1 1-3.88 0 1.94 1.94 0 1 1 3.88 0z" sodipodi:cx="21.313" sodipodi:type="arc" sodipodi:cy="11.813" sodipodi:rx="1.938" sodipodi:ry="1.938" stroke-linejoin="round"/><path fill="#fff" fill-opacity=".654" fill-rule="evenodd" stroke="#f00" d="M26.06 17.13a1.94 1.94 0 1 1-3.87 0 1.94 1.94 0 1 1 3.86 0z" sodipodi:cx="21.313" sodipodi:type="arc" sodipodi:cy="11.813" sodipodi:rx="1.938" sodipodi:ry="1.938" stroke-linejoin="round"/><path fill="#fff" fill-opacity=".654" fill-rule="evenodd" stroke="#f00" d="M4.2 32.13a1.94 1.94 0 1 1-3.9 0 1.94 1.94 0 1 1 3.9 0z" sodipodi:cx="21.313" sodipodi:type="arc" sodipodi:cy="11.813" sodipodi:rx="1.938" sodipodi:ry="1.938" stroke-linejoin="round"/><path fill="#fff" fill-opacity=".654" fill-rule="evenodd" stroke="#f00" d="M7.06 42.5a1.94 1.94 0 1 1-3.87 0 1.94 1.94 0 1 1 3.86 0z" sodipodi:cx="21.313" sodipodi:type="arc" sodipodi:cy="11.813" sodipodi:rx="1.938" sodipodi:ry="1.938" stroke-linejoin="round"/><path fill="#fff" fill-opacity=".654" fill-rule="evenodd" stroke="#f00" d="M14.7 24.75a1.94 1.94 0 1 1-3.9 0 1.94 1.94 0 1 1 3.9 0z" sodipodi:cx="21.313" sodipodi:type="arc" sodipodi:cy="11.813" sodipodi:rx="1.938" sodipodi:ry="1.938" stroke-linejoin="round"/></g></svg>