<svg xmlns="http://www.w3.org/2000/svg" width="48" height="48" xmlns:xlink="http://www.w3.org/1999/xlink"><defs><linearGradient id="l"><stop offset="0" stop-color="#c17d11"/><stop offset="1" stop-color="#e9b96e" stop-opacity="0"/></linearGradient><linearGradient id="k"><stop offset="0" stop-color="#fff"/><stop offset="1" stop-color="#fff" stop-opacity="0"/></linearGradient><linearGradient id="j"><stop offset="0" stop-color="#e9b96e"/><stop offset="1" stop-color="#e9b96e" stop-opacity="0"/></linearGradient><radialGradient cx="24.264" cy="109.233" r="20.483" gradientUnits="userSpaceOnUse" gradientTransform="translate(-.629 -81.982)"><stop offset="0" stop-color="#F17912"/><stop offset=".103" stop-color="#F18218"/><stop offset=".27" stop-color="#F39A29"/><stop offset=".479" stop-color="#F5C043"/><stop offset=".676" stop-color="#F7EB61"/><stop offset="1" stop-color="#fff"/></radialGradient><radialGradient cx="23.747" cy="108.937" r="19.625" gradientUnits="userSpaceOnUse" gradientTransform="translate(-.629 -81.982)"><stop offset="0" stop-color="#F6E94E"/><stop offset=".064" stop-color="#F7DF47"/><stop offset=".588" stop-color="#FD9214"/><stop offset=".83" stop-color="#FF7400"/><stop offset=".864" stop-color="#FE7D06"/><stop offset=".92" stop-color="#FC9516"/><stop offset=".99" stop-color="#F9BB2F"/><stop offset="1" stop-color="#F9C133"/></radialGradient><radialGradient cx="471.034" cy="113.042" r="13.634" gradientTransform="matrix(-1 0 0 1 423.78 -99.839)" gradientUnits="userSpaceOnUse"><stop offset="0" stop-color="#fff"/><stop offset=".064" stop-color="#FEEED5"/><stop offset=".172" stop-color="#FCD395"/><stop offset=".262" stop-color="#FBBF66"/><stop offset=".331" stop-color="#FAB349"/><stop offset=".371" stop-color="#FAAF3E"/><stop offset=".691" stop-color="#F17912"/><stop offset="1" stop-color="#A65414"/></radialGradient><radialGradient cx="9.284" cy="110.004" r="22.748" gradientUnits="userSpaceOnUse"><stop offset="0" stop-color="#fff"/><stop offset=".064" stop-color="#FEEED5"/><stop offset=".172" stop-color="#FCD395"/><stop offset=".262" stop-color="#FBBF66"/><stop offset=".331" stop-color="#FAB349"/><stop offset=".371" stop-color="#FAAF3E"/><stop offset=".691" stop-color="#F17912"/><stop offset="1" stop-color="#B15A12"/></radialGradient><radialGradient cx="25.143" cy="110.699" r="11.469" gradientUnits="userSpaceOnUse" gradientTransform="translate(-.629 -81.982)"><stop offset="0" stop-color="#fff"/><stop offset=".368" stop-color="#FBF6B9"/><stop offset=".8" stop-color="#F8ED6C"/><stop offset="1" stop-color="#F6E94E"/></radialGradient><radialGradient cx="24.43" cy="110.838" r="7.595" gradientUnits="userSpaceOnUse" gradientTransform="translate(-.629 -81.982)"><stop offset="0" stop-color="#fff"/><stop offset=".368" stop-color="#FBF6B9"/><stop offset=".8" stop-color="#F8ED6C"/><stop offset="1" stop-color="#F6E94E"/></radialGradient><radialGradient cx="28.307" cy="109.263" r="17.505" gradientUnits="userSpaceOnUse"><stop offset="0" stop-color="#fff"/><stop offset=".368" stop-color="#FBF6B9"/><stop offset=".8" stop-color="#F8ED6C"/><stop offset="1" stop-color="#F6E94E"/></radialGradient><radialGradient cx="25.413" cy="109.111" r="26.053" gradientUnits="userSpaceOnUse"><stop offset="0" stop-color="#fff"/><stop offset=".368" stop-color="#FBF6B9"/><stop offset=".8" stop-color="#F8ED6C"/><stop offset="1" stop-color="#F6E94E"/></radialGradient><radialGradient cx="24.673" cy="108.844" r="29.004" gradientUnits="userSpaceOnUse"><stop offset="0" stop-color="#fff"/><stop offset=".368" stop-color="#FBF6B9"/><stop offset=".8" stop-color="#F8ED6C"/><stop offset="1" stop-color="#F6E94E"/></radialGradient><radialGradient cx="25.41" cy="109.119" r="26.048" gradientUnits="userSpaceOnUse"><stop offset="0" stop-color="#fff"/><stop offset=".368" stop-color="#FBF6B9"/><stop offset=".8" stop-color="#F8ED6C"/><stop offset="1" stop-color="#F6E94E"/></radialGradient><radialGradient cx="25.41" cy="109.112" r="26.072" gradientUnits="userSpaceOnUse"><stop offset="0" stop-color="#fff"/><stop offset=".368" stop-color="#FBF6B9"/><stop offset=".8" stop-color="#F8ED6C"/><stop offset="1" stop-color="#F6E94E"/></radialGradient><radialGradient cx="25.41" cy="109.113" r="26.061" gradientUnits="userSpaceOnUse"><stop offset="0" stop-color="#fff"/><stop offset=".368" stop-color="#FBF6B9"/><stop offset=".8" stop-color="#F8ED6C"/><stop offset="1" stop-color="#F6E94E"/></radialGradient><radialGradient id="b" cx="39.827" cy="123.439" r="5.507" gradientUnits="userSpaceOnUse"><stop offset="0" stop-color="#fff"/><stop offset=".064" stop-color="#FDEED5"/><stop offset=".172" stop-color="#FBD395"/><stop offset=".262" stop-color="#F9BF66"/><stop offset=".331" stop-color="#F7B349"/><stop offset=".371" stop-color="#F7AF3E"/><stop offset=".691" stop-color="#EF7916"/><stop offset="1" stop-color="#A65416"/></radialGradient><linearGradient id="a" x1="37.807" x2="40.397" y1="128.381" y2="126.362" gradientUnits="userSpaceOnUse"><stop offset=".006" stop-color="#F7AF3E"/><stop offset="1" stop-color="#994410"/></linearGradient><radialGradient id="d" cx="3043.88" cy="7217.28" r="3.309" gradientTransform="matrix(-.989 .151 -.151 -.989 4115.845 6772.22)" gradientUnits="userSpaceOnUse"><stop offset="0" stop-color="#fff"/><stop offset=".064" stop-color="#FDEED5"/><stop offset=".172" stop-color="#FBD395"/><stop offset=".262" stop-color="#F9BF66"/><stop offset=".331" stop-color="#F7B349"/><stop offset=".371" stop-color="#F7AF3E"/><stop offset=".691" stop-color="#EF7916"/><stop offset="1" stop-color="#A65416"/></radialGradient><linearGradient id="c" x1="3042.666" x2="3044.223" y1="7220.249" y2="7219.036" gradientUnits="userSpaceOnUse" gradientTransform="matrix(-.989 .151 -.151 -.989 4115.845 6772.22)"><stop offset=".006" stop-color="#F7AF3E"/><stop offset="1" stop-color="#994410"/></linearGradient><radialGradient id="f" cx="5361.921" cy="5016.79" r="3.308" gradientTransform="matrix(-.765 -.644 .644 -.765 906.786 7393.486)" gradientUnits="userSpaceOnUse"><stop offset="0" stop-color="#fff"/><stop offset=".064" stop-color="#FDEED5"/><stop offset=".172" stop-color="#FBD395"/><stop offset=".262" stop-color="#F9BF66"/><stop offset=".331" stop-color="#F7B349"/><stop offset=".371" stop-color="#F7AF3E"/><stop offset=".691" stop-color="#EF7916"/><stop offset="1" stop-color="#A65416"/></radialGradient><linearGradient id="e" x1="5360.706" x2="5362.262" y1="5019.758" y2="5018.545" gradientUnits="userSpaceOnUse" gradientTransform="matrix(-.765 -.644 .644 -.765 906.786 7393.486)"><stop offset=".006" stop-color="#F7AF3E"/><stop offset="1" stop-color="#994410"/></linearGradient><radialGradient id="g" cx="4238.554" cy="496.331" r="5.507" gradientTransform="matrix(.409 -.912 .912 .409 -2150.214 3757.324)" gradientUnits="userSpaceOnUse"><stop offset="0" stop-color="#fff"/><stop offset=".064" stop-color="#FDEED5"/><stop offset=".172" stop-color="#FBD395"/><stop offset=".262" stop-color="#F9BF66"/><stop offset=".331" stop-color="#F7B349"/><stop offset=".371" stop-color="#F7AF3E"/><stop offset=".691" stop-color="#EF7916"/><stop offset="1" stop-color="#A65416"/></radialGradient><radialGradient id="h" cx="-2083.664" cy="3695.694" r="5.507" gradientTransform="matrix(.424 .906 -.906 .424 4260.018 439.238)" gradientUnits="userSpaceOnUse"><stop offset="0" stop-color="#fff"/><stop offset=".064" stop-color="#FDEED5"/><stop offset=".172" stop-color="#FBD395"/><stop offset=".262" stop-color="#F9BF66"/><stop offset=".331" stop-color="#F7B349"/><stop offset=".371" stop-color="#F7AF3E"/><stop offset=".691" stop-color="#EF7916"/><stop offset="1" stop-color="#A65416"/></radialGradient><radialGradient id="i" cx="4074.888" cy="6708.084" r="4.284" gradientTransform="matrix(-.988 -.156 .156 -.988 3003.856 7356.637)" gradientUnits="userSpaceOnUse"><stop offset="0" stop-color="#fff"/><stop offset=".064" stop-color="#FDEED5"/><stop offset=".172" stop-color="#FBD395"/><stop offset=".262" stop-color="#F9BF66"/><stop offset=".331" stop-color="#F7B349"/><stop offset=".371" stop-color="#F7AF3E"/><stop offset=".691" stop-color="#EF7916"/><stop offset="1" stop-color="#A65416"/></radialGradient><linearGradient id="B" x1="37.807" x2="40.397" y1="128.381" y2="126.362" xlink:href="#a" gradientUnits="userSpaceOnUse"/><radialGradient id="C" cx="39.827" cy="123.439" r="5.507" xlink:href="#b" gradientUnits="userSpaceOnUse"/><linearGradient id="D" x1="3042.666" x2="3044.223" y1="7220.249" y2="7219.036" xlink:href="#c" gradientUnits="userSpaceOnUse" gradientTransform="matrix(-.989 .151 -.151 -.989 4115.845 6772.22)"/><radialGradient id="E" cx="3043.88" cy="7217.28" r="3.309" xlink:href="#d" gradientUnits="userSpaceOnUse" gradientTransform="matrix(-.989 .151 -.151 -.989 4115.845 6772.22)"/><linearGradient id="G" x1="5360.706" x2="5362.262" y1="5019.758" y2="5018.545" xlink:href="#e" gradientUnits="userSpaceOnUse" gradientTransform="matrix(-.765 -.644 .644 -.765 906.786 7393.486)"/><radialGradient id="H" cx="5361.921" cy="5016.79" r="3.308" xlink:href="#f" gradientUnits="userSpaceOnUse" gradientTransform="matrix(-.765 -.644 .644 -.765 906.786 7393.486)"/><radialGradient id="J" cx="4238.554" cy="496.331" r="5.507" xlink:href="#g" gradientUnits="userSpaceOnUse" gradientTransform="matrix(.409 -.912 .912 .409 -2150.214 3757.324)"/><radialGradient id="K" cx="-2083.664" cy="3695.694" r="5.507" xlink:href="#h" gradientUnits="userSpaceOnUse" gradientTransform="matrix(.424 .906 -.906 .424 4260.018 439.238)"/><radialGradient id="M" cx="4074.888" cy="6708.084" r="4.284" xlink:href="#i" gradientUnits="userSpaceOnUse" gradientTransform="matrix(-.988 -.156 .156 -.988 3003.856 7356.637)"/><radialGradient id="y" cx="4238.554" cy="496.331" r="5.507" xlink:href="#g" gradientUnits="userSpaceOnUse" gradientTransform="matrix(.409 -.912 .912 .409 -2150.214 3757.324)"/><radialGradient id="U" cx="4074.888" cy="6708.084" r="4.284" xlink:href="#i" gradientUnits="userSpaceOnUse" gradientTransform="matrix(-.988 -.156 .156 -.988 3003.856 7356.637)"/><linearGradient id="u" x1="37.807" x2="40.397" y1="128.381" y2="126.362" xlink:href="#a" gradientUnits="userSpaceOnUse"/><radialGradient id="v" cx="39.827" cy="123.439" r="5.507" xlink:href="#b" gradientUnits="userSpaceOnUse"/><radialGradient id="z" cx="-2083.664" cy="3695.694" r="5.507" xlink:href="#h" gradientUnits="userSpaceOnUse" gradientTransform="matrix(.424 .906 -.906 .424 4260.018 439.238)"/><linearGradient id="s" x1="23.618" x2="-3.382" y1="6.186" y2="41.939" xlink:href="#j" gradientUnits="userSpaceOnUse" gradientTransform="matrix(1.026 -.1 .1 1.026 -2.326 -2.107)"/><linearGradient id="r" x1="7.475" x2="-7.367" y1="15.218" y2="33.082" xlink:href="#j" gradientUnits="userSpaceOnUse" gradientTransform="matrix(.996 -.267 .267 .996 -.435 6.04)"/><linearGradient id="I" x1="7.475" x2="-7.367" y1="15.218" y2="33.082" xlink:href="#j" gradientUnits="userSpaceOnUse" gradientTransform="matrix(1.031 0 0 1.031 26.475 13.512)"/><linearGradient id="N" x1="7.475" x2="-7.367" y1="15.218" y2="33.082" xlink:href="#k" gradientUnits="userSpaceOnUse" gradientTransform="matrix(1.031 0 0 1.031 10.43 -12.407)"/><linearGradient id="O" x1="3042.666" x2="3044.223" y1="7220.249" y2="7219.036" xlink:href="#c" gradientUnits="userSpaceOnUse" gradientTransform="matrix(-.989 .151 -.151 -.989 4115.845 6772.22)"/><radialGradient id="P" cx="3043.88" cy="7217.28" r="3.309" xlink:href="#d" gradientUnits="userSpaceOnUse" gradientTransform="matrix(-.989 .151 -.151 -.989 4115.845 6772.22)"/><linearGradient id="L" x1="7.475" x2="-7.367" y1="15.218" y2="33.082" xlink:href="#k" gradientUnits="userSpaceOnUse" gradientTransform="matrix(1.031 0 0 1.031 12.185 -2.751)"/><linearGradient id="p" x1="23.618" x2="-3.382" y1="6.186" y2="41.939" xlink:href="#j" gradientUnits="userSpaceOnUse" gradientTransform="matrix(1.113 0 0 1.113 5.284 5.954)"/><linearGradient id="A" x1="22.319" x2="14.227" y1="-2.69" y2="6.324" xlink:href="#l" gradientUnits="userSpaceOnUse" gradientTransform="matrix(1.269 0 0 1.27 .545 9.23)"/><linearGradient id="F" x1="22.319" x2="9.798" y1="-2.69" y2="12.015" xlink:href="#l" gradientUnits="userSpaceOnUse" gradientTransform="matrix(1.2 .412 -.412 1.201 4.833 2.985)"/><linearGradient id="q" x1="25.742" x2="11.497" y1="6.924" y2="34.122" xlink:href="#l" gradientUnits="userSpaceOnUse" gradientTransform="matrix(1.2 .412 -.412 1.201 4.574 .106)"/><linearGradient id="o" x1="23.618" x2="-3.382" y1="6.186" y2="41.939" xlink:href="#j" gradientUnits="userSpaceOnUse" gradientTransform="matrix(.916 -.124 .124 .916 -1.438 4.16)"/><linearGradient id="n" x1="22.319" x2="9.798" y1="-2.69" y2="12.015" xlink:href="#l" gradientUnits="userSpaceOnUse" gradientTransform="matrix(1.2 .412 -.412 1.201 13.601 9.473)"/><linearGradient id="t" x1="29.743" x2="11.776" y1="35" y2="51.082" xlink:href="#k" gradientUnits="userSpaceOnUse" gradientTransform="matrix(1.031 0 0 1.031 9.989 -12.113)"/><linearGradient id="m" x1="7.475" x2="-7.367" y1="15.218" y2="33.082" xlink:href="#j" gradientUnits="userSpaceOnUse" gradientTransform="matrix(1.031 0 0 1.031 32.528 -4.599)"/><radialGradient cx="4074.888" cy="6708.084" r="4.284" xlink:href="#i" gradientUnits="userSpaceOnUse" gradientTransform="matrix(-.988 -.156 .156 -.988 3003.856 7356.637)"/><linearGradient id="R" x1="3042.666" x2="3044.223" y1="7220.249" y2="7219.036" xlink:href="#c" gradientUnits="userSpaceOnUse" gradientTransform="matrix(-.989 .151 -.151 -.989 4115.845 6772.22)"/><radialGradient id="S" cx="3043.88" cy="7217.28" r="3.309" xlink:href="#d" gradientUnits="userSpaceOnUse" gradientTransform="matrix(-.989 .151 -.151 -.989 4115.845 6772.22)"/><radialGradient id="T" cx="4074.888" cy="6708.084" r="4.284" xlink:href="#i" gradientUnits="userSpaceOnUse" gradientTransform="matrix(-.988 -.156 .156 -.988 3003.856 7356.637)"/><linearGradient id="w" x1="5360.706" x2="5362.262" y1="5019.758" y2="5018.545" xlink:href="#e" gradientUnits="userSpaceOnUse" gradientTransform="matrix(-.765 -.644 .644 -.765 906.786 7393.486)"/><radialGradient id="x" cx="5361.921" cy="5016.79" r="3.308" xlink:href="#f" gradientUnits="userSpaceOnUse" gradientTransform="matrix(-.765 -.644 .644 -.765 906.786 7393.486)"/><radialGradient id="Q" cx="4074.888" cy="6708.084" r="4.284" xlink:href="#i" gradientUnits="userSpaceOnUse" gradientTransform="matrix(-.988 -.156 .156 -.988 3003.856 7356.637)"/></defs><g><path fill="url(#m)" fill-rule="evenodd" d="M36.45 11.33c-1.12 1.44-2.98 2.5-3.26 4.45-.26 1.8.17 3.8-1 5.36-.7 1.14-1.38 2.46-2.66 3.04-.95.28-2.27.08-2.8 1.12-.9 1.56-1.84 3.23-1.8 5.08 1.25-2.08 3.36-3.4 5.3-4.75.88-.77 1.1-2 1.8-2.9.98-1.08 2.56-1.47 3.38-2.73-.02-1.25 1.3-1.84 2.33-2.05 1.2-.46 2.08-1.5 3.3-1.96.85-.46 1.18-1.76.4-2.44-1.06-1.15-2.3-2.56-4-2.46-.35.02-.67.15-1 .23z" overflow="visible" enable-background="accumulate"/><path fill="url(#n)" fill-rule="evenodd" d="M41.48 15.5c-1.48-.9-3.04.3-4.85 1.17-1.64.8-1.83.85-2.84 2.58-.67 1.15-2.16.92-2.8 1.9-.5.8-3.6.95-4.63 2.13-1.64 1.9 1.78-.87 2.78-1.36 1.73-.84 4.44-1.8 6.4-2.06.73-.1 2.43-2.2 3.1-2.85.63-.6 2.08-.63 2.83-1.5z" overflow="visible" enable-background="accumulate"/><path fill="url(#o)" fill-rule="evenodd" d="M42.68 22.84c-2.94-1.34-5.52.6-7.14 2.34-1.96.64-2.33 2.84-4.68 1.84-3.18.68-2.88 5.27-5.74 7.1-.72 1.54-1.3 2.7-2.43 4 2.88 3.42-5.86 3.8-1.9 7.22.65 1.37-.26 8.13 1.37 4.07 1.76-2.45 1.4-5.65 3.15-8.1 1.85-2.4 4.83-3.62 5.5-6.9 1.07-1.17 3.38.76 3.76-.47.56 3.83 5.53.85 7.63.36.9-3.5 5.22-3.18 5.82-6.48.92-3.28-1.85-6.92-5.34-4.98z" overflow="visible" enable-background="accumulate"/><path fill="url(#p)" fill-rule="evenodd" d="M27.7 13.43c-4.95-1.4-2.9 8.2-7.8 4.94-1.67.9-1.13 3.6-3.93 4-3.23 1.37-2.76 4.73-5.03 6.8 1.05 3.5-1.12 5.5-3.4 7.6 1.3 2.6 2.9 6.46.25 8.95-2.2 1.04-1.3 7.1 0 2.57 1.64-3 5.1-5.2 5.52-8.7-.78-4.37 4-7.28 7.84-5.95 1.72.44 2.15-5.17 5.2-3.22.42-4.6 5.98-3.37 6.15-8.1 4.07-1.63 2.82-6.4-.75-7.94-1.18-.7-2.65-1.48-4.05-.97z"/><path fill="url(#q)" fill-rule="evenodd" d="M33.74 20.36c-.36.07-1.8 2.1-2.8 3.1-.95.95-1.65 2-3.1 2.35-1.03.28-1.36 1.23-2.64 1.5-.65.12-1.63 2.06-2.5 2.5-1.44.7-2.07.55-2.07 2.5 0 1.1-2.43 1.18-3.1 1.18-1.58 0-2.8.2-2.8 1.9 0 1.17-2.26.8-3.1 1.63-.16.18-.38.3-.57.45-1.36 1.02-.88 2.2-2.95 2.2-.48 0 3.08-2.9 3.54-3.38 1.45-1.44 2-1.07 2.36-3.24.16-.95 2.35-.52 2.95-1.32.8-1.07 1.53-1.44 2.8-1.76 1.2-.3 1.9-2.55 3.53-3.1 1.52-.5 1.53-2.6 2.95-2.94 1.18-.3 2.23-1.9 2.95-2.8.78-.98.66-2.06 2.06-2.06.2 0 .4 0 .6 0 .6 0 1.55.97 1.9 1.32z" overflow="visible" enable-background="accumulate"/><path fill="url(#r)" fill-rule="evenodd" d="M7.47 20.42c-.7 1.68-2.23 3.18-2 5.14.23 1.8 1.17 3.63.44 5.43-.37 1.27-.7 2.73-1.78 3.6-.85.53-2.17.67-2.42 1.82-.46 1.74-.94 3.6-.43 5.38.68-2.34 2.38-4.16 3.9-5.97.66-.97.56-2.2.98-3.25.68-1.3 2.1-2.1 2.57-3.52-.34-1.2.77-2.12 1.72-2.6 1.05-.75 1.62-2 2.68-2.73.7-.66.7-2-.24-2.46-1.32-.83-2.88-1.87-4.5-1.34-.34.1-.6.32-.9.5z" overflow="visible" enable-background="accumulate"/><path fill="url(#s)" fill-rule="evenodd" d="M19.02 2.77c-1.22-1.3-2.08.4-2.78 1.9-.9 1.2-1.1 2.8-1.25 4.22-1.14-.18-3.25-2.36-3.76-.3.14 1.14.72 2.9-1.13 2.7-1.1-.07-1.6.8-1.6 1.6-1.1.28-2.43.74-1.64 2.16.9 1.95-2.2 2.06-2.16 3.75.57 1.5.86 3.08.45 4.68-1.1.9-3.08 1.2-2.78 2.88.68.9 2.48 1.38 1.1 2.73.6 1.08 2.48 2.06.93 3.43-.6 1.44-1.92 2.7-1.84 4.3.18.65.32 2.84.44 2.53.24-1.92 1.02-3.68 2.43-5.03.87-1.1.56-2.52 2-3.16 1.2-1.36.4-3.24.68-4.86.25-1.38.26-2.4 1.65-3.24 1.54.55 2.34-2.36 4.02-1.3.97 1.1 2.7 1.03 2.14-.78.38-1.02 1.16-3.6 2.53-2.18 1.75 1 1.05-2.83 1.94-3.7.7-.63 1.94.3 2.58-.87 1.6-1.13-.03-3.57 1.94-4.5 2.15-.77 2.03-3.27.45-4.62-1.27-1.6-3.4-2.05-5.2-2.76-.42-.04-.77.25-1.13.43z"/><path fill="url(#t)" fill-rule="evenodd" d="M39.75 23.98c-2.1.06-2.84 1.64-4.28 2.36-1.08.54-1.38 1.96-2.35 2.2-1.07.27-2.65 2.07-3.4 2.8-.9.92-2.08 1.3-2.35 2.66-.25 1.26-2 2.3-2.5 3.53-.35.88 1.1-1.54 1.77-2.2.2-.2.4-.4.58-.6.9-.88 2.38-1.74 3.4-2.5 1.02-.77 1.75-1.57 2.8-2.36.2-.14.38-.3.58-.44 1-.74 2-1.62 3.1-2.06 1.12-.45 1.7-1.26 2.8-1.92.88-.53 1.2-1.47-.15-1.47z" overflow="visible" enable-background="accumulate"/><g transform="matrix(1.49 .86 -.86 1.49 89.406 -194.679)"><path fill="none" stroke="#994410" stroke-width=".872" d="M38.55 124.66c-.12.16-.1.83-.17.9.3.2.62.9.74 1.1.13.2.68 1.1.68 1.1s1.42.03 1.56.06c.14.04.9.24.9.24s0-1 .12-1.23c.1-.24.57-1.04.62-1.36.06-.32.22-1.02.25-1.07.04-.06.18-.3.18-.3l-1.7-1.6-1.03.4-.77.6-.13-.02-1.25 1.18z"/><path fill="#fff" d="M38.55 124.66l1.25-1.18.13.02.77-.6 1.02-.4 1.7 1.6-.7.78-4.17-.22z"/><linearGradient x1="37.807" x2="40.397" y1="128.381" y2="126.362" gradientUnits="userSpaceOnUse"><stop offset=".006" stop-color="#F7AF3E"/><stop offset="1" stop-color="#994410"/></linearGradient><path fill="url(#u)" d="M39.38 124.5s-.7 0-.83.16c-.12.16-.1.83-.17.9.3.2.62.9.74 1.1.13.2.68 1.1.68 1.1s1.42.03 1.56.06c.14.04.9.24.9.24s0-1 .12-1.23c.1-.24.57-1.04.62-1.36.06-.32.22-1.02.25-1.07.04-.06.18-.3.18-.3l-.5.4h-3.55z"/><radialGradient cx="39.827" cy="123.439" r="5.507" gradientUnits="userSpaceOnUse"><stop offset="0" stop-color="#fff"/><stop offset=".064" stop-color="#FDEED5"/><stop offset=".172" stop-color="#FBD395"/><stop offset=".262" stop-color="#F9BF66"/><stop offset=".331" stop-color="#F7B349"/><stop offset=".371" stop-color="#F7AF3E"/><stop offset=".691" stop-color="#EF7916"/><stop offset="1" stop-color="#A65416"/></radialGradient><path fill="url(#v)" d="M39.38 124.5s1.44-.93 1.94-1.48c0 0 .77.7.86.7.1 0 .5-.3.5-.3.1.24.25.92.2 1-.02.1-.06.48-.06.67 0 .2-.3 1.17-.43 1.32-.13.14-.6.67-.6.78-.16-.27-.4-1.14-.4-1.14l-.43-.15s-.8.03-.88-.15c-.08-.18-.26-.73-.33-.82-.07-.1-.4-.43-.4-.43z"/></g><g transform="matrix(1.031 0 0 1.031 -1.562 -89.877)"><path fill="none" stroke="#994410" stroke-width="1.455" d="M40.4 101.86c.12-.03.37-.34.43-.34-.05-.22.07-.66.1-.8 0-.14.1-.77.1-.77s-.64-.56-.7-.63c-.04-.07-.3-.46-.3-.46s-.4.46-.55.52c-.14.07-.66.26-.8.4-.16.1-.5.37-.54.38-.04 0-.2.07-.2.07l.18 1.4.62.2.58.03.05.06 1.03-.06z"/><path fill="#fff" d="M40.4 101.86l-1.03.06-.05-.06-.58-.03-.63-.2-.16-1.4.62-.1 1.84 1.73z"/><linearGradient x1="5360.706" x2="5362.262" y1="5019.758" y2="5018.545" gradientUnits="userSpaceOnUse" gradientTransform="matrix(-.765 -.644 .644 -.765 906.786 7393.486)"><stop offset=".006" stop-color="#F7AF3E"/><stop offset="1" stop-color="#994410"/></linearGradient><path fill="url(#w)" d="M39.96 101.6s.32.28.44.26c.12-.03.37-.34.43-.34-.05-.22.07-.66.1-.8 0-.14.1-.77.1-.77s-.64-.56-.7-.63c-.04-.07-.3-.46-.3-.46s-.4.46-.55.52c-.14.07-.66.26-.8.4-.16.1-.5.37-.54.38-.04 0-.2.07-.2.07l.4.02 1.62 1.36z"/><radialGradient cx="5361.921" cy="5016.79" r="3.308" gradientTransform="matrix(-.765 -.644 .644 -.765 906.786 7393.486)" gradientUnits="userSpaceOnUse"><stop offset="0" stop-color="#fff"/><stop offset=".064" stop-color="#FDEED5"/><stop offset=".172" stop-color="#FBD395"/><stop offset=".262" stop-color="#F9BF66"/><stop offset=".331" stop-color="#F7B349"/><stop offset=".371" stop-color="#F7AF3E"/><stop offset=".691" stop-color="#EF7916"/><stop offset="1" stop-color="#A65416"/></radialGradient><path fill="url(#x)" d="M39.96 101.6s-1.02-.12-1.46-.06c0 0-.1-.62-.13-.65-.04-.05-.35-.07-.35-.07.05-.15.25-.52.3-.55.05-.02.2-.18.3-.27.06-.08.58-.42.7-.43.1-.02.54-.08.58-.13-.04.18-.27.67-.27.67l.15.25s.38.3.34.4c-.04.12-.17.45-.17.52 0 .06 0 .34 0 .34z"/></g><g transform="matrix(1.69 0 0 1.69 -36.906 -140.222)"><path fill="none" stroke="#994410" stroke-width=".888" d="M38.07 94.88c.1.18.7.43.74.53.34-.18 1.1-.2 1.33-.22.23-.04 1.28-.18 1.28-.18s.62-1.27.7-1.4c.1-.1.58-.7.58-.7s-.9-.43-1.07-.63c-.16-.2-.7-.94-.97-1.12-.27-.18-.84-.6-.88-.67-.03-.05-.2-.3-.2-.3l-2.15.93-.05 1.1.23.95-.07.1.57 1.63z"/><path fill="#fff" d="M38.07 94.88l-.56-1.63.08-.1-.23-.95.05-1.1 2.15-.9.43.95-1.9 3.73z"/><path fill="#fff" d="M38.27 94.06s-.3.64-.2.82c.1.18.7.43.75.53.32-.18 1.08-.2 1.3-.22.24-.04 1.3-.18 1.3-.18s.6-1.27.7-1.4c.08-.1.57-.7.57-.7-.02 0-.92-.43-1.1-.63-.16-.2-.7-.94-.97-1.12-.27-.18-.84-.6-.88-.67-.03-.05-.2-.3-.2-.3l.15.63-1.44 3.26z"/><radialGradient cx="4238.554" cy="496.331" r="5.507" gradientTransform="matrix(.409 -.912 .912 .409 -2150.214 3757.324)" gradientUnits="userSpaceOnUse"><stop offset="0" stop-color="#fff"/><stop offset=".064" stop-color="#FDEED5"/><stop offset=".172" stop-color="#FBD395"/><stop offset=".262" stop-color="#F9BF66"/><stop offset=".331" stop-color="#F7B349"/><stop offset=".371" stop-color="#F7AF3E"/><stop offset=".691" stop-color="#EF7916"/><stop offset="1" stop-color="#A65416"/></radialGradient><path fill="url(#y)" d="M38.27 94.06s-.26-1.7-.56-2.38c0 0 .96-.42 1-.5.03-.08-.08-.58-.08-.58.27 0 .95.15 1.02.22.07.07.4.26.57.34.2.08.96.76 1.04.93.08.16.37.82.47.87-.3.02-1.18-.13-1.18-.13l-.32.35s-.3.73-.5.72c-.2 0-.77-.07-.88-.04-.1.03-.55.18-.55.18z"/></g><g transform="matrix(2.014 0 0 2.014 -18.98 -238.794)"><path fill="none" stroke="#994410" stroke-width=".993" d="M27.87 118.98c-.2-.05-.8.25-.9.22-.05.36-.55.95-.67 1.15-.13.2-.7 1.07-.7 1.07s.56 1.3.6 1.44c.02.15.16.9.16.9s.9-.4 1.17-.4c.26 0 1.18.08 1.5 0 .3-.1 1-.25 1.07-.24.06 0 .35.03.35.03l.7-2.22-.8-.75-.85-.45-.04-.12-1.6-.62z"/><path fill="#fff" d="M27.87 118.98l1.6.63.03.13.86.45.8.75-.7 2.22-1.02-.3-1.57-3.87z"/><path fill="#fff" d="M28.36 119.66s-.3-.63-.5-.68c-.2-.05-.78.25-.88.22-.06.36-.56.95-.68 1.15-.13.2-.7 1.07-.7 1.07s.56 1.3.6 1.44c.02.15.16.9.16.9s.9-.4 1.17-.4c.26 0 1.18.08 1.5 0 .3-.1 1-.25 1.07-.24.06 0 .35.03.35.03l-.57-.28-1.52-3.2z"/><radialGradient cx="-2083.664" cy="3695.694" r="5.507" gradientTransform="matrix(.424 .906 -.906 .424 4260.018 439.238)" gradientUnits="userSpaceOnUse"><stop offset="0" stop-color="#fff"/><stop offset=".064" stop-color="#FDEED5"/><stop offset=".172" stop-color="#FBD395"/><stop offset=".262" stop-color="#F9BF66"/><stop offset=".331" stop-color="#F7B349"/><stop offset=".371" stop-color="#F7AF3E"/><stop offset=".691" stop-color="#EF7916"/><stop offset="1" stop-color="#A65416"/></radialGradient><path fill="url(#z)" d="M28.36 119.66s1.46.9 2.17 1.13c0 0-.3.98-.27 1.06.04.08.5.33.5.33-.2.2-.75.6-.84.6-.1.02-.46.15-.63.23-.2.08-1.2.22-1.4.17-.17-.05-.86-.26-.96-.2.18-.26.88-.84.88-.84l-.06-.47s-.36-.73-.23-.87c.13-.14.56-.53.6-.64.06-.1.23-.54.23-.54z"/></g><path fill="url(#A)" fill-rule="evenodd" d="M28.87 5.87c-1.7-.37-2.78 1.26-4.2 2.7-1.3 1.28-1.46 1.38-1.85 3.35-.26 1.3-1.74 1.57-2.02 2.7-.23.9-3.1 2.07-3.7 3.52-.93 2.34 1.4-1.4 2.2-2.2 1.36-1.35 3.6-3.14 5.37-4.02.66-.33 1.6-2.86 2-3.7.4-.8 1.77-1.28 2.2-2.35z" overflow="visible" enable-background="accumulate"/><g transform="matrix(.739 0 0 .739 -11.6 -65.213)"><path fill="none" stroke="#994410" stroke-width="2.03" d="M38.55 124.66c-.12.16-.1.83-.17.9.3.2.62.9.74 1.1.13.2.68 1.1.68 1.1s1.42.03 1.56.06c.14.04.9.24.9.24s0-1 .12-1.23c.1-.24.57-1.04.62-1.36.06-.32.22-1.02.25-1.07.04-.06.18-.3.18-.3l-1.7-1.6-1.03.4-.77.6-.13-.02-1.25 1.18z"/><path fill="#fff" d="M38.55 124.66l1.25-1.18.13.02.77-.6 1.02-.4 1.7 1.6-.7.78-4.17-.22z"/><linearGradient x1="37.807" x2="40.397" y1="128.381" y2="126.362" gradientUnits="userSpaceOnUse"><stop offset=".006" stop-color="#F7AF3E"/><stop offset="1" stop-color="#994410"/></linearGradient><path fill="url(#B)" d="M39.38 124.5s-.7 0-.83.16c-.12.16-.1.83-.17.9.3.2.62.9.74 1.1.13.2.68 1.1.68 1.1s1.42.03 1.56.06c.14.04.9.24.9.24s0-1 .12-1.23c.1-.24.57-1.04.62-1.36.06-.32.22-1.02.25-1.07.04-.06.18-.3.18-.3l-.5.4h-3.55z"/><radialGradient cx="39.827" cy="123.439" r="5.507" gradientUnits="userSpaceOnUse"><stop offset="0" stop-color="#fff"/><stop offset=".064" stop-color="#FDEED5"/><stop offset=".172" stop-color="#FBD395"/><stop offset=".262" stop-color="#F9BF66"/><stop offset=".331" stop-color="#F7B349"/><stop offset=".371" stop-color="#F7AF3E"/><stop offset=".691" stop-color="#EF7916"/><stop offset="1" stop-color="#A65416"/></radialGradient><path fill="url(#C)" d="M39.38 124.5s1.44-.93 1.94-1.48c0 0 .77.7.86.7.1 0 .5-.3.5-.3.1.24.25.92.2 1-.02.1-.06.48-.06.67 0 .2-.3 1.17-.43 1.32-.13.14-.6.67-.6.78-.16-.27-.4-1.14-.4-1.14l-.43-.15s-.8.03-.88-.15c-.08-.18-.26-.73-.33-.82-.07-.1-.4-.43-.4-.43z"/></g><g transform="matrix(1.031 0 0 1.031 -4.256 -77.968)"><path fill="none" stroke="#994410" stroke-width="1.455" d="M15.64 97.64c.06-.1 0-.5.02-.55-.2-.1-.45-.5-.54-.6-.1-.1-.5-.6-.5-.6s-.85.12-.93.1c-.1 0-.57-.04-.57-.04s.08.6.04.74c-.04.15-.24.67-.25.86 0 .2-.03.63-.05.66 0 .03-.08.2-.08.2l1.16.8.56-.35.4-.42H15l.64-.8z"/><path fill="#fff" d="M15.64 97.64l-.64.8h-.07l-.4.43-.57.34-1.17-.78.34-.53 2.5-.26z"/><linearGradient x1="3042.666" x2="3044.223" y1="7220.249" y2="7219.036" gradientUnits="userSpaceOnUse" gradientTransform="matrix(-.989 .151 -.151 -.989 4115.845 6772.22)"><stop offset=".006" stop-color="#F7AF3E"/><stop offset="1" stop-color="#994410"/></linearGradient><path fill="url(#D)" d="M15.17 97.8s.4-.06.47-.16c.06-.1 0-.5.02-.55-.2-.1-.45-.5-.54-.6-.1-.1-.5-.6-.5-.6s-.85.12-.93.1c-.1 0-.57-.04-.57-.04s.08.6.04.74c-.04.15-.24.67-.25.86 0 .2-.03.63-.05.66 0 .03-.08.2-.08.2l.26-.28 2.1-.33z"/><radialGradient cx="3043.88" cy="7217.28" r="3.309" gradientTransform="matrix(-.989 .151 -.151 -.989 4115.845 6772.22)" gradientUnits="userSpaceOnUse"><stop offset="0" stop-color="#fff"/><stop offset=".064" stop-color="#FDEED5"/><stop offset=".172" stop-color="#FBD395"/><stop offset=".262" stop-color="#F9BF66"/><stop offset=".331" stop-color="#F7B349"/><stop offset=".371" stop-color="#F7AF3E"/><stop offset=".691" stop-color="#EF7916"/><stop offset="1" stop-color="#A65416"/></radialGradient><path fill="url(#E)" d="M15.17 97.8s-.78.7-1.03 1.06c0 0-.52-.34-.57-.33-.05 0-.27.22-.27.22-.08-.13-.23-.52-.22-.58.02-.06 0-.28-.02-.4 0-.12.08-.73.14-.82.06-.1.3-.46.3-.53.1.15.3.65.3.65l.3.04s.47-.07.53.03c.06.1.2.4.26.46.04.03.27.2.27.2z"/></g><path fill="url(#F)" fill-rule="evenodd" d="M32.7 9c-1.47-.9-3.02.3-4.83 1.2-1.65.8-1.83.84-2.84 2.57-.67 1.14-2.15.92-2.78 1.9-.52.78-3.63.94-4.64 2.13-1.64 1.9 1.8-.88 2.78-1.36 1.74-.85 4.45-1.8 6.4-2.07.73-.1 2.44-2.2 3.1-2.85.63-.6 2.08-.64 2.83-1.5z" overflow="visible" enable-background="accumulate"/><g transform="matrix(1.031 0 0 1.031 -10.752 -96.36)"><path fill="none" stroke="#994410" stroke-width="1.455" d="M40.4 101.86c.12-.03.37-.34.43-.34-.05-.22.07-.66.1-.8 0-.14.1-.77.1-.77s-.64-.56-.7-.63c-.04-.07-.3-.46-.3-.46s-.4.46-.55.52c-.14.07-.66.26-.8.4-.16.1-.5.37-.54.38-.04 0-.2.07-.2.07l.18 1.4.62.2.58.03.05.06 1.03-.06z"/><path fill="#fff" d="M40.4 101.86l-1.03.06-.05-.06-.58-.03-.63-.2-.16-1.4.62-.1 1.84 1.73z"/><linearGradient x1="5360.706" x2="5362.262" y1="5019.758" y2="5018.545" gradientUnits="userSpaceOnUse" gradientTransform="matrix(-.765 -.644 .644 -.765 906.786 7393.486)"><stop offset=".006" stop-color="#F7AF3E"/><stop offset="1" stop-color="#994410"/></linearGradient><path fill="url(#G)" d="M39.96 101.6s.32.28.44.26c.12-.03.37-.34.43-.34-.05-.22.07-.66.1-.8 0-.14.1-.77.1-.77s-.64-.56-.7-.63c-.04-.07-.3-.46-.3-.46s-.4.46-.55.52c-.14.07-.66.26-.8.4-.16.1-.5.37-.54.38-.04 0-.2.07-.2.07l.4.02 1.62 1.36z"/><radialGradient cx="5361.921" cy="5016.79" r="3.308" gradientTransform="matrix(-.765 -.644 .644 -.765 906.786 7393.486)" gradientUnits="userSpaceOnUse"><stop offset="0" stop-color="#fff"/><stop offset=".064" stop-color="#FDEED5"/><stop offset=".172" stop-color="#FBD395"/><stop offset=".262" stop-color="#F9BF66"/><stop offset=".331" stop-color="#F7B349"/><stop offset=".371" stop-color="#F7AF3E"/><stop offset=".691" stop-color="#EF7916"/><stop offset="1" stop-color="#A65416"/></radialGradient><path fill="url(#H)" d="M39.96 101.6s-1.02-.12-1.46-.06c0 0-.1-.62-.13-.65-.04-.05-.35-.07-.35-.07.05-.15.25-.52.3-.55.05-.02.2-.18.3-.27.06-.08.58-.42.7-.43.1-.02.54-.08.58-.13-.04.18-.27.67-.27.67l.15.25s.38.3.34.4c-.04.12-.17.45-.17.52 0 .06 0 .34 0 .34z"/></g><path fill="url(#I)" fill-rule="evenodd" d="M30.4 29.44c-1.13 1.44-3 2.5-3.26 4.45-.25 1.78.18 3.8-1 5.35-.7 1.14-1.38 2.46-2.65 3.04-.97.27-2.28.07-2.82 1.1-.9 1.57-1.83 3.24-1.8 5.1 1.26-2.08 3.37-3.4 5.32-4.76.87-.77 1.1-2 1.78-2.9 1-1.08 2.57-1.46 3.4-2.73-.03-1.24 1.28-1.83 2.32-2.04 1.2-.46 2.08-1.5 3.3-1.96.85-.45 1.18-1.75.4-2.43-1.06-1.15-2.3-2.56-4.02-2.46-.34.03-.65.16-.98.24z" overflow="visible" enable-background="accumulate"/><g transform="matrix(1.031 0 0 1.031 -6.492 -64.557)"><path fill="none" stroke="#994410" stroke-width="1.455" d="M38.07 94.88c.1.18.7.43.74.53.34-.18 1.1-.2 1.33-.22.23-.04 1.28-.18 1.28-.18s.62-1.27.7-1.4c.1-.1.58-.7.58-.7s-.9-.43-1.07-.63c-.16-.2-.7-.94-.97-1.12-.27-.18-.84-.6-.88-.67-.03-.05-.2-.3-.2-.3l-2.15.93-.05 1.1.23.95-.07.1.57 1.63z"/><path fill="#fff" d="M38.07 94.88l-.56-1.63.08-.1-.23-.95.05-1.1 2.15-.9.43.95-1.9 3.73z"/><path fill="#fff" d="M38.27 94.06s-.3.64-.2.82c.1.18.7.43.75.53.32-.18 1.08-.2 1.3-.22.24-.04 1.3-.18 1.3-.18s.6-1.27.7-1.4c.08-.1.57-.7.57-.7-.02 0-.92-.43-1.1-.63-.16-.2-.7-.94-.97-1.12-.27-.18-.84-.6-.88-.67-.03-.05-.2-.3-.2-.3l.15.63-1.44 3.26z"/><radialGradient cx="4238.554" cy="496.331" r="5.507" gradientTransform="matrix(.409 -.912 .912 .409 -2150.214 3757.324)" gradientUnits="userSpaceOnUse"><stop offset="0" stop-color="#fff"/><stop offset=".064" stop-color="#FDEED5"/><stop offset=".172" stop-color="#FBD395"/><stop offset=".262" stop-color="#F9BF66"/><stop offset=".331" stop-color="#F7B349"/><stop offset=".371" stop-color="#F7AF3E"/><stop offset=".691" stop-color="#EF7916"/><stop offset="1" stop-color="#A65416"/></radialGradient><path fill="url(#J)" d="M38.27 94.06s-.26-1.7-.56-2.38c0 0 .96-.42 1-.5.03-.08-.08-.58-.08-.58.27 0 .95.15 1.02.22.07.07.4.26.57.34.2.08.96.76 1.04.93.08.16.37.82.47.87-.3.02-1.18-.13-1.18-.13l-.32.35s-.3.73-.5.72c-.2 0-.77-.07-.88-.04-.1.03-.55.18-.55.18z"/></g><g transform="matrix(1.031 0 0 1.031 -5.141 -102.302)"><path fill="none" stroke="#994410" stroke-width="1.455" d="M27.87 118.98c-.2-.05-.8.25-.9.22-.05.36-.55.95-.67 1.15-.13.2-.7 1.07-.7 1.07s.56 1.3.6 1.44c.02.15.16.9.16.9s.9-.4 1.17-.4c.26 0 1.18.08 1.5 0 .3-.1 1-.25 1.07-.24.06 0 .35.03.35.03l.7-2.22-.8-.75-.85-.45-.04-.12-1.6-.62z"/><path fill="#fff" d="M27.87 118.98l1.6.63.03.13.86.45.8.75-.7 2.22-1.02-.3-1.57-3.87z"/><path fill="#fff" d="M28.36 119.66s-.3-.63-.5-.68c-.2-.05-.78.25-.88.22-.06.36-.56.95-.68 1.15-.13.2-.7 1.07-.7 1.07s.56 1.3.6 1.44c.02.15.16.9.16.9s.9-.4 1.17-.4c.26 0 1.18.08 1.5 0 .3-.1 1-.25 1.07-.24.06 0 .35.03.35.03l-.57-.28-1.52-3.2z"/><radialGradient cx="-2083.664" cy="3695.694" r="5.507" gradientTransform="matrix(.424 .906 -.906 .424 4260.018 439.238)" gradientUnits="userSpaceOnUse"><stop offset="0" stop-color="#fff"/><stop offset=".064" stop-color="#FDEED5"/><stop offset=".172" stop-color="#FBD395"/><stop offset=".262" stop-color="#F9BF66"/><stop offset=".331" stop-color="#F7B349"/><stop offset=".371" stop-color="#F7AF3E"/><stop offset=".691" stop-color="#EF7916"/><stop offset="1" stop-color="#A65416"/></radialGradient><path fill="url(#K)" d="M28.36 119.66s1.46.9 2.17 1.13c0 0-.3.98-.27 1.06.04.08.5.33.5.33-.2.2-.75.6-.84.6-.1.02-.46.15-.63.23-.2.08-1.2.22-1.4.17-.17-.05-.86-.26-.96-.2.18-.26.88-.84.88-.84l-.06-.47s-.36-.73-.23-.87c.13-.14.56-.53.6-.64.06-.1.23-.54.23-.54z"/></g><path fill="url(#L)" fill-rule="evenodd" d="M16.1 13.18c-1.12 1.44-2.98 2.5-3.25 4.45-.25 1.8.18 3.8-1 5.36-.7 1.13-1.38 2.45-2.65 3.02-.96.3-2.27.08-2.8 1.13-.9 1.56-1.84 3.23-1.8 5.08 1.25-2.08 3.36-3.4 5.3-4.76.88-.77 1.1-1.98 1.8-2.88.98-1.1 2.56-1.5 3.38-2.75-.02-1.25 1.3-1.84 2.33-2.05 1.22-.46 2.1-1.5 3.3-1.96.86-.45 1.2-1.75.4-2.43-1.05-1.14-2.3-2.55-4-2.45-.35.02-.66.15-1 .23z" overflow="visible" enable-background="accumulate"/><g transform="matrix(1.031 0 0 1.031 -7.216 -82.218)"><path fill="none" stroke="#994410" stroke-width="1.455" d="M25.6 94.33c.1-.1.18-.62.24-.66-.2-.2-.37-.78-.44-.95-.07-.16-.4-.92-.4-.92s-1.07-.2-1.17-.24c-.1-.05-.66-.3-.66-.3s-.14.78-.25.95c-.1.17-.56.73-.64.97-.08.25-.3.76-.33.8-.03.03-.17.2-.17.2l1.13 1.44.84-.18.66-.36.1.03 1.1-.77z"/><path fill="#fff" d="M25.6 94.33l-1.1.75-.1-.02-.66.35-.83.2-1.12-1.42.63-.52 3.2.67z"/><path fill="#fff" d="M24.95 94.35s.53.1.65-.02c.1-.1.18-.62.24-.66-.2-.2-.37-.78-.44-.95-.07-.16-.4-.92-.4-.92s-1.07-.2-1.18-.24c-.1-.04-.65-.3-.65-.3s-.14.78-.25.95c-.1.17-.56.73-.64.97-.08.25-.3.76-.33.8-.03.03-.17.2-.17.2l.43-.23 2.75.4z"/><radialGradient cx="4074.888" cy="6708.084" r="4.284" gradientTransform="matrix(-.988 -.156 .156 -.988 3003.856 7356.637)" gradientUnits="userSpaceOnUse"><stop offset="0" stop-color="#fff"/><stop offset=".064" stop-color="#FDEED5"/><stop offset=".172" stop-color="#FBD395"/><stop offset=".262" stop-color="#F9BF66"/><stop offset=".331" stop-color="#F7B349"/><stop offset=".371" stop-color="#F7AF3E"/><stop offset=".691" stop-color="#EF7916"/><stop offset="1" stop-color="#A65416"/></radialGradient><path fill="url(#M)" d="M24.95 94.35s-1.23.54-1.68.9c0 0-.5-.62-.57-.63-.07 0-.43.17-.43.17-.05-.22-.07-.75-.04-.82.04-.06.1-.35.14-.5.02-.15.38-.87.5-.96.1-.1.54-.45.55-.53.08.2.15.9.15.9l.33.18s.62.08.65.23c.03.15.1.6.15.68.04.07.25.37.25.37z"/></g><path fill="url(#N)" fill-rule="evenodd" d="M14.35 3.52c-1.12 1.45-2.98 2.5-3.26 4.46-.26 1.78.18 3.8-1 5.35-.7 1.14-1.38 2.47-2.66 3.04-.95.3-2.27.08-2.8 1.12-.9 1.55-1.84 3.22-1.8 5.08 1.26-2.08 3.37-3.4 5.3-4.76.9-.77 1.12-2 1.8-2.9.98-1.07 2.57-1.46 3.4-2.73-.04-1.26 1.27-1.85 2.32-2.05 1.2-.47 2.07-1.52 3.3-1.97.85-.45 1.17-1.75.4-2.43-1.07-1.15-2.3-2.56-4.02-2.46-.34 0-.66.15-1 .22z" overflow="visible" enable-background="accumulate"/><g transform="matrix(1.031 0 0 1.031 .8 -93.582)"><path fill="none" stroke="#994410" stroke-width="1.455" d="M15.64 97.64c.06-.1 0-.5.02-.55-.2-.1-.45-.5-.54-.6-.1-.1-.5-.6-.5-.6s-.85.12-.93.1c-.1 0-.57-.04-.57-.04s.08.6.04.74c-.04.15-.24.67-.25.86 0 .2-.03.63-.05.66 0 .03-.08.2-.08.2l1.16.8.56-.35.4-.42H15l.64-.8z"/><path fill="#fff" d="M15.64 97.64l-.64.8h-.07l-.4.43-.57.34-1.17-.78.34-.53 2.5-.26z"/><linearGradient x1="3042.666" x2="3044.223" y1="7220.249" y2="7219.036" gradientUnits="userSpaceOnUse" gradientTransform="matrix(-.989 .151 -.151 -.989 4115.845 6772.22)"><stop offset=".006" stop-color="#F7AF3E"/><stop offset="1" stop-color="#994410"/></linearGradient><path fill="url(#O)" d="M15.17 97.8s.4-.06.47-.16c.06-.1 0-.5.02-.55-.2-.1-.45-.5-.54-.6-.1-.1-.5-.6-.5-.6s-.85.12-.93.1c-.1 0-.57-.04-.57-.04s.08.6.04.74c-.04.15-.24.67-.25.86 0 .2-.03.63-.05.66 0 .03-.08.2-.08.2l.26-.28 2.1-.33z"/><radialGradient cx="3043.88" cy="7217.28" r="3.309" gradientTransform="matrix(-.989 .151 -.151 -.989 4115.845 6772.22)" gradientUnits="userSpaceOnUse"><stop offset="0" stop-color="#fff"/><stop offset=".064" stop-color="#FDEED5"/><stop offset=".172" stop-color="#FBD395"/><stop offset=".262" stop-color="#F9BF66"/><stop offset=".331" stop-color="#F7B349"/><stop offset=".371" stop-color="#F7AF3E"/><stop offset=".691" stop-color="#EF7916"/><stop offset="1" stop-color="#A65416"/></radialGradient><path fill="url(#P)" d="M15.17 97.8s-.78.7-1.03 1.06c0 0-.52-.34-.57-.33-.05 0-.27.22-.27.22-.08-.13-.23-.52-.22-.58.02-.06 0-.28-.02-.4 0-.12.08-.73.14-.82.06-.1.3-.46.3-.53.1.15.3.65.3.65l.3.04s.47-.07.53.03c.06.1.2.4.26.46.04.03.27.2.27.2z"/></g><g transform="matrix(.719 0 0 .719 9.867 -29.425)"><radialGradient cx="4074.888" cy="6708.084" r="4.284" gradientTransform="matrix(-.988 -.156 .156 -.988 3003.856 7356.637)" gradientUnits="userSpaceOnUse"><stop offset="0" stop-color="#fff"/><stop offset=".064" stop-color="#FDEED5"/><stop offset=".172" stop-color="#FBD395"/><stop offset=".262" stop-color="#F9BF66"/><stop offset=".331" stop-color="#F7B349"/><stop offset=".371" stop-color="#F7AF3E"/><stop offset=".691" stop-color="#EF7916"/><stop offset="1" stop-color="#A65416"/></radialGradient><g><path fill="none" stroke="#994410" stroke-width="2.087" d="M25.6 94.33c.1-.1.18-.62.24-.66-.2-.2-.37-.78-.44-.95-.07-.16-.4-.92-.4-.92s-1.07-.2-1.17-.24c-.1-.05-.66-.3-.66-.3s-.14.78-.25.95c-.1.17-.56.73-.64.97-.08.25-.3.76-.33.8-.03.03-.17.2-.17.2l1.13 1.44.84-.18.66-.36.1.03 1.1-.77z"/><path fill="#fff" d="M25.6 94.33l-1.1.75-.1-.02-.66.35-.83.2-1.12-1.42.63-.52 3.2.67z"/><path fill="#fff" d="M24.95 94.35s.53.1.65-.02c.1-.1.18-.62.24-.66-.2-.2-.37-.78-.44-.95-.07-.16-.4-.92-.4-.92s-1.07-.2-1.18-.24c-.1-.04-.65-.3-.65-.3s-.14.78-.25.95c-.1.17-.56.73-.64.97-.08.25-.3.76-.33.8-.03.03-.17.2-.17.2l.43-.23 2.75.4z"/><path fill="url(#Q)" d="M24.95 94.35s-1.23.54-1.68.9c0 0-.5-.62-.57-.63-.07 0-.43.17-.43.17-.05-.22-.07-.75-.04-.82.04-.06.1-.35.14-.5.02-.15.38-.87.5-.96.1-.1.54-.45.55-.53.08.2.15.9.15.9l.33.18s.62.08.65.23c.03.15.1.6.15.68.04.07.25.37.25.37z"/></g></g><g transform="matrix(.413 -.945 .945 .413 -69.303 5.001)"><path fill="none" stroke="#994410" stroke-width="1.455" d="M15.64 97.64c.06-.1 0-.5.02-.55-.2-.1-.45-.5-.54-.6-.1-.1-.5-.6-.5-.6s-.85.12-.93.1c-.1 0-.57-.04-.57-.04s.08.6.04.74c-.04.15-.24.67-.25.86 0 .2-.03.63-.05.66 0 .03-.08.2-.08.2l1.16.8.56-.35.4-.42H15l.64-.8z"/><path fill="#fff" d="M15.64 97.64l-.64.8h-.07l-.4.43-.57.34-1.17-.78.34-.53 2.5-.26z"/><linearGradient x1="3042.666" x2="3044.223" y1="7220.249" y2="7219.036" gradientUnits="userSpaceOnUse" gradientTransform="matrix(-.989 .151 -.151 -.989 4115.845 6772.22)"><stop offset=".006" stop-color="#F7AF3E"/><stop offset="1" stop-color="#994410"/></linearGradient><path fill="url(#R)" d="M15.17 97.8s.4-.06.47-.16c.06-.1 0-.5.02-.55-.2-.1-.45-.5-.54-.6-.1-.1-.5-.6-.5-.6s-.85.12-.93.1c-.1 0-.57-.04-.57-.04s.08.6.04.74c-.04.15-.24.67-.25.86 0 .2-.03.63-.05.66 0 .03-.08.2-.08.2l.26-.28 2.1-.33z"/><radialGradient cx="3043.88" cy="7217.28" r="3.309" gradientTransform="matrix(-.989 .151 -.151 -.989 4115.845 6772.22)" gradientUnits="userSpaceOnUse"><stop offset="0" stop-color="#fff"/><stop offset=".064" stop-color="#FDEED5"/><stop offset=".172" stop-color="#FBD395"/><stop offset=".262" stop-color="#F9BF66"/><stop offset=".331" stop-color="#F7B349"/><stop offset=".371" stop-color="#F7AF3E"/><stop offset=".691" stop-color="#EF7916"/><stop offset="1" stop-color="#A65416"/></radialGradient><path fill="url(#S)" d="M15.17 97.8s-.78.7-1.03 1.06c0 0-.52-.34-.57-.33-.05 0-.27.22-.27.22-.08-.13-.23-.52-.22-.58.02-.06 0-.28-.02-.4 0-.12.08-.73.14-.82.06-.1.3-.46.3-.53.1.15.3.65.3.65l.3.04s.47-.07.53.03c.06.1.2.4.26.46.04.03.27.2.27.2z"/></g><g transform="matrix(.514 -.494 .494 .514 -45.21 -23.935)"><path fill="none" stroke="#994410" stroke-width="2.103" d="M25.6 94.33c.1-.1.18-.62.24-.66-.2-.2-.37-.78-.44-.95-.07-.16-.4-.92-.4-.92s-1.07-.2-1.17-.24c-.1-.05-.66-.3-.66-.3s-.14.78-.25.95c-.1.17-.56.73-.64.97-.08.25-.3.76-.33.8-.03.03-.17.2-.17.2l1.13 1.44.84-.18.66-.36.1.03 1.1-.77z"/><path fill="#fff" d="M25.6 94.33l-1.1.75-.1-.02-.66.35-.83.2-1.12-1.42.63-.52 3.2.67z"/><path fill="#fff" d="M24.95 94.35s.53.1.65-.02c.1-.1.18-.62.24-.66-.2-.2-.37-.78-.44-.95-.07-.16-.4-.92-.4-.92s-1.07-.2-1.18-.24c-.1-.04-.65-.3-.65-.3s-.14.78-.25.95c-.1.17-.56.73-.64.97-.08.25-.3.76-.33.8-.03.03-.17.2-.17.2l.43-.23 2.75.4z"/><radialGradient cx="4074.888" cy="6708.084" r="4.284" gradientTransform="matrix(-.988 -.156 .156 -.988 3003.856 7356.637)" gradientUnits="userSpaceOnUse"><stop offset="0" stop-color="#fff"/><stop offset=".064" stop-color="#FDEED5"/><stop offset=".172" stop-color="#FBD395"/><stop offset=".262" stop-color="#F9BF66"/><stop offset=".331" stop-color="#F7B349"/><stop offset=".371" stop-color="#F7AF3E"/><stop offset=".691" stop-color="#EF7916"/><stop offset="1" stop-color="#A65416"/></radialGradient><path fill="url(#T)" d="M24.95 94.35s-1.23.54-1.68.9c0 0-.5-.62-.57-.63-.07 0-.43.17-.43.17-.05-.22-.07-.75-.04-.82.04-.06.1-.35.14-.5.02-.15.38-.87.5-.96.1-.1.54-.45.55-.53.08.2.15.9.15.9l.33.18s.62.08.65.23c.03.15.1.6.15.68.04.07.25.37.25.37z"/></g><g transform="matrix(-.116 1.608 -1.608 -.116 174.658 -20.62)"><path fill="none" stroke="#994410" stroke-width=".931" d="M25.6 94.33c.1-.1.18-.62.24-.66-.2-.2-.37-.78-.44-.95-.07-.16-.4-.92-.4-.92s-1.07-.2-1.17-.24c-.1-.05-.66-.3-.66-.3s-.14.78-.25.95c-.1.17-.56.73-.64.97-.08.25-.3.76-.33.8-.03.03-.17.2-.17.2l1.13 1.44.84-.18.66-.36.1.03 1.1-.77z"/><path fill="#fff" d="M25.6 94.33l-1.1.75-.1-.02-.66.35-.83.2-1.12-1.42.63-.52 3.2.67z"/><path fill="#fff" d="M24.95 94.35s.53.1.65-.02c.1-.1.18-.62.24-.66-.2-.2-.37-.78-.44-.95-.07-.16-.4-.92-.4-.92s-1.07-.2-1.18-.24c-.1-.04-.65-.3-.65-.3s-.14.78-.25.95c-.1.17-.56.73-.64.97-.08.25-.3.76-.33.8-.03.03-.17.2-.17.2l.43-.23 2.75.4z"/><radialGradient cx="4074.888" cy="6708.084" r="4.284" gradientTransform="matrix(-.988 -.156 .156 -.988 3003.856 7356.637)" gradientUnits="userSpaceOnUse"><stop offset="0" stop-color="#fff"/><stop offset=".064" stop-color="#FDEED5"/><stop offset=".172" stop-color="#FBD395"/><stop offset=".262" stop-color="#F9BF66"/><stop offset=".331" stop-color="#F7B349"/><stop offset=".371" stop-color="#F7AF3E"/><stop offset=".691" stop-color="#EF7916"/><stop offset="1" stop-color="#A65416"/></radialGradient><path fill="url(#U)" d="M24.95 94.35s-1.23.54-1.68.9c0 0-.5-.62-.57-.63-.07 0-.43.17-.43.17-.05-.22-.07-.75-.04-.82.04-.06.1-.35.14-.5.02-.15.38-.87.5-.96.1-.1.54-.45.55-.53.08.2.15.9.15.9l.33.18s.62.08.65.23c.03.15.1.6.15.68.04.07.25.37.25.37z"/></g></g></svg>