<svg xmlns="http://www.w3.org/2000/svg" width="48" height="48" xmlns:xlink="http://www.w3.org/1999/xlink"><defs><linearGradient id="i"><stop offset="0" stop-color="#3c83ce"/><stop offset="1" stop-color="#acd4ff"/></linearGradient><linearGradient id="h"><stop offset="0" stop-color="#3465a4"/><stop offset="1" stop-color="#729fcf" stop-opacity="0"/></linearGradient><linearGradient id="g"><stop offset="0" stop-color="#348dec"/><stop offset="1" stop-color="#729fcf" stop-opacity="0"/></linearGradient><linearGradient id="f"><stop offset="0" stop-color="#c4d7eb"/><stop offset="1" stop-color="#729fcf" stop-opacity="0"/></linearGradient><linearGradient id="e"><stop offset="0" stop-color="#fff"/><stop offset="1" stop-color="#bebebe"/></linearGradient><linearGradient id="d"><stop offset="0" stop-color="#fcff92"/><stop offset="1" stop-color="#fff" stop-opacity="0"/></linearGradient><linearGradient id="c"><stop offset="0" stop-color="#c4a000" stop-opacity=".684"/><stop offset="1" stop-color="#c4a000" stop-opacity="0"/></linearGradient><linearGradient id="b"><stop offset="0" stop-color="#fce94f"/><stop offset="1" stop-color="#edd400"/></linearGradient><linearGradient><stop offset="0" stop-color="#ef2929"/><stop offset="1" stop-color="#ae0d0d"/></linearGradient><linearGradient id="a"><stop offset="0" stop-color="#4a4a4a"/><stop offset="1" stop-color="#fff"/></linearGradient><linearGradient x1="60.084" x2="105.916" y1="7.071" y2="7.071" xlink:href="#a" gradientUnits="userSpaceOnUse"/><linearGradient x1="14.304" x2="37.315" y1="17.465" y2="35.496" xlink:href="#b" gradientUnits="userSpaceOnUse"/><linearGradient x1="26.87" x2="22.425" y1="19.994" y2="18.074" xlink:href="#c" gradientUnits="userSpaceOnUse"/><linearGradient x1="13.445" x2="19.688" y1="14.334" y2="16.303" xlink:href="#d" gradientUnits="userSpaceOnUse"/><linearGradient x1="8.421" x2="37.385" y1="27.345" y2="37.699" xlink:href="#e" gradientUnits="userSpaceOnUse"/><radialGradient id="p" cx="24.851" cy="52.313" r="22.692" xlink:href="#f" fx="24.851" fy="52.313" gradientTransform="matrix(2.134 -.006 .005 1.771 -29.445 -46.518)" gradientUnits="userSpaceOnUse"/><radialGradient id="q" cx="24.851" cy="52.313" r="22.692" xlink:href="#g" gradientUnits="userSpaceOnUse" gradientTransform="matrix(1.874 -.038 .046 2.049 -25.043 -59.381)" fx="24.851" fy="52.313"/><radialGradient id="r" cx="24.851" cy="52.313" r="22.692" xlink:href="#h" gradientUnits="userSpaceOnUse" gradientTransform="matrix(1.106 -.003 .003 .842 -3.781 3.416)" fx="24.851" fy="52.313"/><linearGradient x1="13.445" x2="19.688" y1="14.334" y2="16.303" xlink:href="#d" gradientUnits="userSpaceOnUse"/><linearGradient x1="14.304" x2="37.315" y1="17.465" y2="35.496" xlink:href="#b" gradientUnits="userSpaceOnUse"/><linearGradient x1="8.421" x2="37.385" y1="27.345" y2="37.699" xlink:href="#e" gradientUnits="userSpaceOnUse"/><radialGradient cx="27.779" cy="16.681" r="7.475" xlink:href="#c" fx="27.779" fy="16.681" gradientTransform="matrix(.649 .225 -.529 1.523 18.572 -14.898)" gradientUnits="userSpaceOnUse"/><linearGradient x1="60.084" x2="105.916" y1="7.071" y2="7.071" xlink:href="#a" gradientUnits="userSpaceOnUse"/><linearGradient x1="8.421" x2="37.385" y1="27.345" y2="37.699" xlink:href="#e" gradientUnits="userSpaceOnUse"/><linearGradient x1="14.304" x2="37.315" y1="17.465" y2="35.496" xlink:href="#b" gradientUnits="userSpaceOnUse"/><linearGradient x1="13.445" x2="19.688" y1="14.334" y2="16.303" xlink:href="#d" gradientUnits="userSpaceOnUse"/><radialGradient cx="27.779" cy="16.681" r="7.475" xlink:href="#c" gradientUnits="userSpaceOnUse" gradientTransform="matrix(.649 .225 -.529 1.523 18.572 -14.898)" fx="27.779" fy="16.681"/><radialGradient cx="27.779" cy="16.681" r="7.475" xlink:href="#c" gradientUnits="userSpaceOnUse" gradientTransform="matrix(.649 .225 -.529 1.523 18.572 -14.898)" fx="27.779" fy="16.681"/><linearGradient x1="13.445" x2="19.688" y1="14.334" y2="16.303" xlink:href="#d" gradientUnits="userSpaceOnUse"/><linearGradient x1="14.304" x2="37.315" y1="17.465" y2="35.496" xlink:href="#b" gradientUnits="userSpaceOnUse"/><linearGradient x1="8.421" x2="37.385" y1="27.345" y2="37.699" xlink:href="#e" gradientUnits="userSpaceOnUse"/><linearGradient id="k" x1="60.084" x2="105.916" y1="7.071" y2="7.071" xlink:href="#a" gradientUnits="userSpaceOnUse"/><linearGradient id="l" x1="8.421" x2="37.385" y1="27.345" y2="37.699" xlink:href="#e" gradientUnits="userSpaceOnUse"/><linearGradient id="m" x1="14.304" x2="37.315" y1="17.465" y2="35.496" xlink:href="#b" gradientUnits="userSpaceOnUse"/><linearGradient id="n" x1="13.445" x2="19.688" y1="14.334" y2="16.303" xlink:href="#d" gradientUnits="userSpaceOnUse"/><radialGradient id="o" cx="27.779" cy="16.681" r="7.475" xlink:href="#c" gradientUnits="userSpaceOnUse" gradientTransform="matrix(.649 .225 -.529 1.523 18.572 -14.898)" fx="27.779" fy="16.681"/><radialGradient id="j" cx="35.361" cy="27.224" r="6.708" xlink:href="#i" fx="35.361" fy="27.224" gradientTransform="matrix(.684 .015 -.021 .967 11.747 .604)" gradientUnits="userSpaceOnUse"/></defs><g><path fill="#729fcf" stroke="#204a87" stroke-width=".5" d="M2.35 41.5s3.17-2.53 3.36-3.44c.42-2 1.86-3.2 1.38-5.18-.2-.86-.05-1.8-.33-2.64-.44-1.34-1.7-2.36-2.1-3.7-.35-1.2.44-2.67-.23-3.73-.4-.62-1.55-.55-1.97-1.16-.3-.42.06-1.1-.25-1.5-.33-.46-1.18-.37-1.5-.82-.23-.3-.47-.85-.18-1.1.57-.44 1.6.13 2.13.63.52.5.02 1.6.62 2.02.64.43 1.63-.4 2.37-.12 1.68.6 2.2 2.87 3.8 3.6.7.3 1.6-.1 2.27.24 1.34.68 1.36 3.15 2.87 3.36 1.65.23 1.9-2.84 3.57-2.7 2.3.17 3.23 2.78 4.57 5.2 1.3 2.35 3.02 4.5 5.84 4.6 1.58.03 3.67-.84 4.88-2.43 1.46-1.9 1.93-4.6 2.57-4.52 1.07.17.75 2.46 1.84 2.57 2.4.25 4.74-5.86 8.02-7.67.4-.22 1.08-.7 1.35-.35.26.33-.5.66-.72 1-.68 1.02-1.53 1.96-1.9 3.1-.3 1.03-.06 2.2-.36 3.22-.64 2.24-1.16 4.17-1.56 6.46-.7 3.96 1.35 4.7 4.63 6.54-9.77 5.12-28.22 8.78-44.95-1.48z"/><path fill="url(#j)" stroke="#204a87" stroke-width=".5" d="M26.72 30.44s.82-.2 1.13-1.18c.17-.52.3-2.6.67-2.66.38-.05.7 2.08 1.22 2.17.52.08 2.64-1.5 2.75-2.74.16-2 1.22-1.95 1.87-2.25.78-.36.23-2.23.75-2.44.5-.2.54.55.87.5.56-.1.76-.7.95-1.2.2-.55-.15-1.28.1-1.8.18-.3.56-.77.9-.65.57.18.3.76.24 1.14-.1.55-.65.8-.82 1.32-.26.84-.6 2.08-.08 2.6.43.45.66-.06.9.16.76.74-.65 3.32 0 4.8.24.57 1.3 1.56 1.3 1.56l-1.6 4.9-10.07-.24-1.25-4z"/><g><path fill="#729fcf" stroke="#204a87" stroke-width=".5" d="M15.96 21.96c.25.08.44.34.35.74-.08.4-.42.6-.6.54-.18-.06-.48-.66-.42-.92s.43-.45.68-.36z"/><path fill="url(#k)" stroke="#000" stroke-width="1.322" d="M105.37 7.07c0 3.66-10.02 6.62-22.37 6.62-12.35 0-22.37-2.97-22.37-6.63C60.63 3.42 70.65.45 83 .45c12.35 0 22.37 2.97 22.37 6.62z" transform="matrix(.348 .157 -.16 .338 .874 -10.352)" color="#000" overflow="visible" enable-background="accumulate"/><path stroke="#fff" d="M23.28 7.6l3.7-8.66 9.17.8-7.1 10.9z"/><path fill="url(#l)" stroke="#000" stroke-width=".5" d="M8.88 25.2l-1.12 3.88c3.2 3.13 7.7 2.25 11.48 4 3.27 1.52 5.9 5.15 9.54 6 2.93.7 6.43.9 8.83-.8l.24-2.07z" transform="matrix(.996 .088 -.088 .996 4.1 -1.941)"/><path fill="url(#m)" d="M16.95 2.3c-2.55 5.4-1.65 13.32-3.18 15.45C12.25 19.87 9.8 22.8 9 25.2c.38 2.78 8 4.16 9.36 4.4 4.1.77 6.74 5.76 10.83 7.2 2.9 1.02 6.62.97 8.64-.65.3-2.86-1.42-4.94-3.65-7-3.12-2.9-7.4-6.53-7.07-9.9.2-2.16 4.2-7.05 5.83-11-5.98.45-11.7-1.5-16-5.95z" transform="matrix(.996 .088 -.088 .996 4.1 -1.941)"/><path fill="url(#n)" d="M16.95 2.3c-2.55 5.4-1.65 13.32-3.18 15.45C12.25 19.87 9.8 22.8 9 25.2c.38 2.78 8 4.16 9.36 4.4 4.1.77 6.74 5.76 10.83 7.2 2.9 1.02 6.62.97 8.64-.65.3-2.86-1.42-4.94-3.65-7-3.12-2.9-7.4-6.53-7.07-9.9.2-2.16 4.2-7.05 5.83-11-5.98.45-11.7-1.5-16-5.95z" transform="matrix(.996 .088 -.088 .996 4.1 -1.941)"/><path fill="url(#o)" d="M23.28 7.04c-.92 8.8-.17 13.46-5.1 18.64 3-1.52 4.45 0 5.86-.34 2.32-.54 4.3-1.2 3.28-4.36l-.2-2.17 3.54-6.36L33.13 8l-3.23.45-3.94-.7z" transform="matrix(.996 .088 -.088 .996 4.1 -1.941)"/><path fill="none" stroke="#986d00" d="M20.78 1.84c-3 5.16-2.82 13.12-4.53 15.1-1.7 1.98-4.4 4.7-5.4 7 .13 2.8 7.6 4.86 8.93 5.23 4.02 1.1 6.2 6.3 10.15 8.1 2.82 1.28 6.52 1.56 8.68.12.55-2.83-.97-5.05-3-7.3-2.85-3.15-6.8-7.15-6.17-10.48.4-2.13 4.8-6.65 6.77-10.45-6-.07-11.52-2.53-15.42-7.33z"/></g><path fill="url(#p)" stroke="#204a87" stroke-width=".5" d="M2.35 41.5s3.17-2.53 3.36-3.44c.42-2 1.86-3.2 1.38-5.18-.2-.86-.05-1.8-.33-2.64-.44-1.34-1.7-2.36-2.1-3.7-.35-1.2.44-2.67-.23-3.73-.4-.62-1.55-.55-1.97-1.16-.3-.42.06-1.1-.25-1.5-.33-.46-1.18-.37-1.5-.82-.23-.3-.47-.85-.18-1.1.57-.44 1.6.13 2.13.63.52.5.02 1.6.62 2.02.64.43 1.63-.4 2.37-.12 1.68.6 2.2 2.87 3.8 3.6.7.3 1.6-.1 2.27.24 1.34.68 1.36 3.15 2.87 3.36 1.65.23 1.9-2.84 3.57-2.7 2.3.17 3.23 2.78 4.57 5.2 1.3 2.35 3.02 4.5 5.84 4.6 1.58.03 3.67-.84 4.88-2.43 1.46-1.9 1.93-4.6 2.57-4.52 1.07.17.75 2.46 1.84 2.57 2.4.25 4.74-5.86 8.02-7.67.4-.22 1.08-.7 1.35-.35.26.33-.5.66-.72 1-.68 1.02-1.53 1.96-1.9 3.1-.3 1.03-.06 2.2-.36 3.22-.64 2.24-1.16 4.17-1.56 6.46-.7 3.96 1.35 4.7 4.63 6.54-9.77 5.12-28.22 8.78-44.95-1.48z"/><path fill="#729fcf" stroke="#204a87" stroke-width=".5" d="M1.12 13.55c.26-.33.75-.47 1.3-.12s.66.97.47 1.2c-.2.23-1.27.35-1.62.12-.35-.24-.42-.87-.16-1.2z"/><path fill="#729fcf" stroke="#204a87" stroke-width=".5" d="M1.22 17.13c0-.23.18-.46.56-.48.37-.03.64.2.63.38 0 .18-.45.58-.7.6-.23 0-.48-.26-.48-.5z"/><path fill="#729fcf" stroke="#204a87" stroke-width=".5" d="M4.3 15.84c.2-.1.5-.03.67.3.18.3.08.66-.08.72-.17.06-.74-.16-.85-.37-.12-.22.02-.56.24-.66z"/><path fill="#729fcf" stroke="#204a87" stroke-width=".5" d="M5.26 18.1c.18.03.32.2.3.48-.05.28-.27.44-.4.4-.13-.02-.37-.42-.34-.6.02-.18.26-.33.44-.3z"/><path fill="#729fcf" stroke="#204a87" stroke-width=".5" d="M5.07 13.66c.15.1.23.3.1.55-.14.26-.4.34-.52.26-.1-.07-.2-.52-.1-.68.08-.16.36-.22.52-.12z"/><path fill="#729fcf" stroke="#204a87" stroke-width=".5" d="M11.23 18.92c-.03-.48.3-1.18.78-1.23.63-.07.72.54.84.95.12.4-.1.73 0 1.12.13.54.64.92.8 1.45.1.26.2.64 0 .82-.15.15-.48.13-.63-.02-.24-.26.05-.74-.2-1.24-.43-.8-1.5-.97-1.57-1.86z"/><path fill="#729fcf" stroke="#204a87" stroke-width=".5" d="M42.58 22.56c.43.33.63.94.17 1.64-.46.7-1.3.86-1.6.62-.32-.25-.5-1.6-.18-2.05.3-.45 1.15-.55 1.6-.2z"/><path fill="#729fcf" stroke="#204a87" stroke-width=".5" d="M35.05 18.8c.35.05.67.34.64.88-.03.53-.45.87-.7.83-.27-.04-.8-.75-.8-1.1.03-.35.48-.66.85-.6z"/><path fill="#729fcf" stroke="#204a87" stroke-width=".42000000000000004.586" d="M39.4 21.84a.58.52 0 1 1-1.15 0 .58.52 0 1 1 1.16 0z" color="#000" overflow="visible" enable-background="accumulate"/><path fill="#729fcf" stroke="#204a87" stroke-width=".44.539" d="M46.26 20.87a.46.4 0 1 1-.9 0 .46.4 0 1 1 .9 0z" color="#000" overflow="visible" enable-background="accumulate"/><path fill="#729fcf" stroke="#204a87" stroke-width=".44.539" d="M43.57 24.82a.46.4 0 1 1-.9 0 .46.4 0 1 1 .9 0z" color="#000" overflow="visible" enable-background="accumulate"/><path fill="#729fcf" stroke="#204a87" stroke-width=".44.539" d="M40.65 24.5a.46.4 0 1 1-.92 0 .46.4 0 1 1 .92 0z" color="#000" overflow="visible" enable-background="accumulate"/><path fill="#729fcf" stroke="#204a87" stroke-width="3.143" d="M-301.63-52.6a4.04 3.84 0 1 1-8.08 0 4.04 3.84 0 1 1 8.07 0z" transform="matrix(.164 0 0 .155 90.606 34.115)" color="#000" overflow="visible" enable-background="accumulate"/><path fill="#729fcf" stroke="#204a87" stroke-width=".42000000000000004.586" d="M39.4 21.84a.58.52 0 1 1-1.15 0 .58.52 0 1 1 1.16 0z" color="#000" overflow="visible" enable-background="accumulate"/><path fill="#729fcf" stroke="#204a87" stroke-width=".44.539" d="M46.06 17.04a.46.4 0 1 1-.92 0 .46.4 0 1 1 .92 0z" color="#000" overflow="visible" enable-background="accumulate"/><path fill="#729fcf" stroke="#204a87" stroke-width=".5" d="M46.1 14.13c.22.4.18 1.03-.33 1.62-.5.6-1.12.6-1.27.3-.14-.28.1-1.6.45-2 .34-.37.94-.32 1.16.08z"/><path fill="#729fcf" stroke="#204a87" stroke-width=".5" d="M40.54 18.76c.7.22.55-.58.86-1.07.3-.5 1.3-.77 1.47-1.5.18-.73.15-1.28-.5-1.5-.65-.2-1.25.2-1.45.82-.2.6.13 1.4-.04 1.86-.18.47-1 1.18-.34 1.38z"/><path fill="#729fcf" stroke="#204a87" stroke-width=".5" d="M44.9 17.94c.3.18.47.57.22 1.05-.25.47-.78.62-1 .48-.2-.14-.4-1-.24-1.3.17-.32.7-.43 1.02-.24z"/><path fill="url(#q)" d="M5.06 43.28s2.8-2.03 2.96-2.77c.36-1.6 1.62-2.56 1.2-4.15-.18-.7-.04-1.45-.3-2.13-.38-1.07-1.47-1.9-1.82-3-.32-.95.37-2.13-.22-3-.35-.5-1.35-.43-1.72-.92-.27-.35.05-.88-.22-1.22-.3-.36-1.04-.3-1.33-.65-.18-.25-.4-.7-.14-.88.5-.37 1.42.1 1.87.5.46.4.02 1.3.54 1.62.57.35 1.44-.3 2.1-.1 1.46.5 1.9 2.32 3.34 2.9.6.26 1.4-.08 2 .2 1.16.56 1.18 2.54 2.5 2.7 1.46.2 1.67-2.28 3.13-2.17 2.03.14 2.85 2.25 4.02 4.2 1.15 1.9 2.65 3.63 5.12 3.7 1.4.03 3.23-.67 4.3-1.95 1.27-1.55 1.7-3.72 2.25-3.64.95.13.67 1.98 1.62 2.07 2.1.2 4.17-4.72 7.05-6.18.35-.2.94-.58 1.18-.3.22.28-.45.54-.65.82-.6.8-1.34 1.58-1.65 2.5-.28.82-.07 1.76-.33 2.6-.56 1.8-1.02 3.34-1.37 5.2-.6 3.18 1.2 3.78 4.07 5.25-8.57 4.13-24.8 7.07-39.5-1.2z"/><path fill="url(#r)" d="M12.7 45.24s1.64-1.2 1.74-1.63c.22-.94.96-1.5.7-2.45-.1-.4 0-.85-.16-1.25-.23-.64-.87-1.13-1.08-1.77-.2-.57.22-1.26-.13-1.77-.2-.3-.8-.26-1.02-.55-.15-.2.03-.5-.13-.7-.17-.22-.6-.18-.78-.4-.1-.14-.24-.4-.1-.5.3-.23.85.05 1.12.28.27.24 0 .77.32.96.33.2.84-.18 1.23-.05.88.28 1.14 1.35 1.98 1.7.36.15.83-.05 1.17.1.7.34.7 1.5 1.5 1.6.84.12.97-1.34 1.83-1.28 1.2.1 1.68 1.33 2.37 2.47.68 1.12 1.56 2.14 3.03 2.18.8.02 1.9-.4 2.52-1.15.76-.9 1-2.2 1.34-2.15.56.08.4 1.17.95 1.22 1.24.12 2.45-2.78 4.16-3.65.2-.1.56-.33.7-.16.13.15-.27.3-.4.47-.33.48-.78.93-.96 1.47-.17.48-.04 1.04-.2 1.53-.33 1.06-.6 1.98-.8 3.07-.36 1.88.7 2.24 2.4 3.1-5.06 2.44-14.63 4.18-23.3-.7z"/></g></svg>