<svg xmlns="http://www.w3.org/2000/svg" width="48" height="48" xmlns:xlink="http://www.w3.org/1999/xlink" enable-background="new 0 0 612 792"><defs><linearGradient id="b"><stop offset="0"/><stop offset="1" stop-opacity="0"/></linearGradient><linearGradient id="a"><stop offset="0"/><stop offset="1" stop-color="#2e3436" stop-opacity="0"/></linearGradient><radialGradient cx="28.132" cy="34.677" r="14.999" xlink:href="#a" fx="28.132" fy="34.677" gradientTransform="matrix(1.314 -.461 .193 .551 -15.628 32.696)" gradientUnits="userSpaceOnUse"/><radialGradient id="c" cx="24.274" cy="37.449" r="24.136" xlink:href="#b" fx="24.274" fy="37.449" gradientTransform="matrix(1 0 0 .449 0 20.651)" gradientUnits="userSpaceOnUse"/></defs><path fill="url(#c)" d="M48.4 37.45a24.14 10.83 0 1 1-48.26 0 24.14 10.83 0 1 1 48.27 0z" color="#000" overflow="visible" enable-background="accumulate"/><path fill="none" stroke="#4d3002" stroke-width="2" d="M7.46 13.92l1.4 7.85 1.6 3.08-3.07 6.83L18.3 45.7l21.57-8.52-.6-2.12-2.34-3.67 2.93-6.1-.3-1.62-32.14-9.76z"/><path fill="#8d622a" d="M39.75 25.27l-2 4.77-.78 1.45 2.44 3.6.35 2.26-21.34 8.4 3.24-4.62v-9.2l-3.23-9.1 21.35-1.4z"/><path fill="#7b5521" d="M18.4 22.83l21.35-1.4L26.22 8.6 7.34 13.05z"/><path fill="#b78d5c" d="M7.34 31.53L18.4 45.76l3.24-4.58v-9.23l-3.23-9.12-11.06-9.78 1.52 8.65 1.55 3.07z"/><path fill="#9f723a" d="M39.75 21.43L26.22 8.6v14.55z"/><path fill="#bfa07a" d="M10.66 26.8l-.3-.47.05-1.56-1.36 3.02 1.23-1.33.32.47.42 2.04z"/><path fill="#674410" d="M39.75 24.54l-.02-1.46-15.02 1.5-6.3-1.75 3.38 5.23 17.4-2.6z"/><path fill="#5d3c09" d="M36.26 33.07l-.6-.5-2.16 1.07-2.6.7 2.5-.37 2.2-.97z"/><path fill="#c7a77f" stroke="#543502" stroke-width="1.0034399999999999" d="M26.22 8.6l13.53 12.83 7.5-9.57-13.1-8.06z"/><path fill="#c7a77f" stroke="#543502" stroke-width="1.0034399999999999" d="M26.22 8.6L7.34 13.05 4.67 8.08 20 4.45z"/><path fill="#c7a77f" stroke="#543502" stroke-width="1.0034399999999999" d="M43.82 22.64L25.66 25l-7.25-2.17 21.35-1.4z"/><path fill="#9f7b4f" stroke="#543502" stroke-width="1.0034399999999999" d="M.3 8.08l14.1 7.63 4 7.1-11.06-9.7z"/><path fill="#937145" d="M21.64 31.95l1.75 1.63 3.82 1.9 2.72-1 2.44 1.73 2.05.28-6.82 1.6-1.96 1.34-1.7.33-2.3 1.45v-1.27z"/><path fill="#5c3b08" d="M21.64 31.95l1.75 1.63 3.82 1.9 2.72-1 4.5 2-4.1-.54-5.36 1.34-.66-.42-1.04-.23-1.64.17z"/><path fill="#c3ae8d" d="M18.86 36.48L20 38.3l1.03 1.26.6 1.64.82-5.05-.8-4.2-1.12.2-2.3.12-.78 1-2.1-1.13-1.53-1.22-1.3-1.84 1.15 1.97.82.57.9.76 1.5 3.24z"/><path fill="#92714d" d="M20.52 37l1.93-.85-.8-4.2-1.12.2-2.3.12-.78 1-1.97-1.05-1.66-1.3-1.3-1.84 1.15 1.97 1.8 1.5.8 1.7 3.78.96z"/><path fill="#5c3b08" d="M39.4 35.07l-2.43-3.58.8-1.46 1.98-4.77-3.38 2.6-.48 2.65-.3 1.62z"/><path fill="#845c26" d="M37.76 30.04l-1.4-2.17-.77 4.27 1.37-.65z"/><path fill="#a3845d" d="M36.97 31.5l-1.38.64 3.8 2.96z"/><path fill="#b39d79" d="M21.93 39.42l-1.48-2.54 3.84-.05z"/><path fill="#775525" d="M21.64 31.95l2.65 4.88-3.85.05z"/></svg>