<svg xmlns="http://www.w3.org/2000/svg" width="48" height="48" xmlns:xlink="http://www.w3.org/1999/xlink"><defs><linearGradient id="a"><stop offset="0" stop-color="#efd529"/><stop offset="1" stop-color="#ef2929"/></linearGradient><linearGradient id="b" x1="1.112" x2="11.46" y1="1.058" y2="11.725" xlink:href="#a" gradientUnits="userSpaceOnUse" gradientTransform="matrix(1.136 0 0 1.136 -.073 -.077)"/><linearGradient id="c" x1="1.112" x2="11.46" y1="1.058" y2="11.725" xlink:href="#a" gradientUnits="userSpaceOnUse" gradientTransform="matrix(1.136 0 0 1.136 -.073 -.077)"/><linearGradient id="d" x1="1.112" x2="11.46" y1="1.058" y2="11.725" xlink:href="#a" gradientUnits="userSpaceOnUse" gradientTransform="matrix(1.136 0 0 1.136 -.073 -.077)"/><linearGradient id="e" x1="1.112" x2="11.46" y1="1.058" y2="11.725" xlink:href="#a" gradientUnits="userSpaceOnUse" gradientTransform="matrix(1.136 0 0 1.136 -.073 -.077)"/></defs><g><g><path fill="#729fcf" fill-rule="evenodd" d="M33.45 3.3l-9.4 2.66-.05 3.6 9.25-2.65.2-3.6z"/><path fill="#babdb6" fill-rule="evenodd" d="M15 3.03l9.06 3.06v4.55L15 6.23v-3.2z"/><path fill="#eeeeec" fill-rule="evenodd" d="M24.27.5l9.25 2.73-9.46 2.86-8.98-3.14L24.28.5z"/><path fill="none" stroke="#555753" stroke-width=".49862000000000006" d="M19.23 6.37V4.53l9.53-2.66" overflow="visible" enable-background="accumulate"/><path fill="none" stroke="#555753" stroke-width=".49862000000000006" d="M19.82 1.74l9.12 2.95-.14 1.98" overflow="visible" enable-background="accumulate"/><path fill="none" stroke="#000" stroke-width=".9983100000000001" d="M15 3.03L24.55.58 33.6 3.3l-.28 1.84L27 7.2l.1 2.1-3.14-1.28-3.23 1 .1-1.88-5.75-2.27L15 3.03z" overflow="visible" enable-background="accumulate"/></g><g><path fill="#729fcf" fill-rule="evenodd" d="M45.64 24.06l-8.85 4.22-.7 12.1 8.52-4.68 1.02-11.64z"/><path fill="#babdb6" fill-rule="evenodd" d="M28.35 24.54l8.44 3.67-.62 12.06-8.24-3.88.4-11.84z"/><path fill="#eeeeec" fill-rule="evenodd" d="M38.22 21l7.35 3.13-8.78 4.08-8.8-3.73L38.23 21z"/><path fill="none" stroke="#555753" stroke-width=".49862000000000006" d="M31.48 28.78v-2.63l4.72-2.23 5.17 2.27-.9 11.74" overflow="visible" enable-background="accumulate"/><path fill="none" stroke="#555753" stroke-width=".49862000000000006" d="M33.57 33.18l2.9 1.4 8.7-4.53"/><path fill="none" stroke="#000" stroke-width=".9983100000000001" d="M41.62 22.43l4.08 1.77-1.15 11.56-8.44 4.7-2.7-1.43.3-9.12-4.7-2.3 4.68-2.38.05-2.18 3.6 1.44 4.3-2.05z" overflow="visible" enable-background="accumulate"/></g><g><path fill="#729fcf" fill-opacity=".251" fill-rule="evenodd" d="M16.7 25.22l-6.04 2.85.34 11.3 6.6-3.06-.9-11.08z"/><path fill="#babdb6" fill-rule="evenodd" d="M2.15 23.38l8.5 4.56.35 11.98-7.96-5.04-.9-11.5z"/><path fill="#d3d7cf" fill-rule="evenodd" d="M10.38 20.66l9.26 3.67-9.12 3.54-8.3-4.42 8.16-2.8z"/><path fill="#729fcf" fill-rule="evenodd" d="M19.7 24.2l-9.1 3.67.47 11.9 9.1-3.87-.46-11.7z"/><path fill="none" stroke="#555753" stroke-width=".49862000000000006" d="M14.22 25l-2.56-1.44-5.45 2 .74 11.84" overflow="visible" enable-background="accumulate"/><path fill="none" stroke="#555753" stroke-width=".49862000000000006" d="M2.5 29.23l8.43 4.9 2.5-1.18" overflow="visible" enable-background="accumulate"/><path fill="none" stroke="#000" stroke-width=".49862000000000006" d="M15.92 26.2v3" overflow="visible" enable-background="accumulate"/><path fill="none" stroke="#000" stroke-width=".9983100000000001" d="M6.03 22.02L2.3 23.38l.74 11.64L11 39.98l2.52-1.22-.24-9.12 4.45-1.77-4.62-2.38-.06-2.46-2.72 1.07-4.3-2.08z" overflow="visible" enable-background="accumulate"/></g><g><path fill="#d3d7cf" fill-rule="evenodd" d="M23.86 24.88l9.87 4.96-10.42 4.9-9.92-5.24 10.48-4.62z"/><path fill="#729fcf" fill-rule="evenodd" d="M33.66 29.78L23.18 34.8v12.8l10.2-5.58.28-12.24z"/><path fill="#babdb6" fill-rule="evenodd" d="M13.24 29.5l10.14 5.3-.2 12.74-9.66-6-.28-12.04z"/><path fill="none" stroke="#555753" stroke-width=".49862000000000006" d="M18.2 44.57l-.15-12.48 5.4-2.46 5.35 2.63-.4 12.43" overflow="visible" enable-background="accumulate"/><path fill="none" stroke="#555753" stroke-width=".49862000000000006" d="M13.42 35.63l9.85 5.85 10.3-5.44" overflow="visible" enable-background="accumulate"/><path fill="none" stroke="#000" stroke-width=".9983100000000001" d="M17.67 27.8l-4.5 1.64.55 12.45 9.53 5.77 10.14-5.7.33-12.06-4.5-2.23-6.12 2.9-5.43-2.77z" overflow="visible" enable-background="accumulate"/></g><path fill="none" stroke="#000" stroke-width=".5" d="M10.52 27.87l5.5-2.18"/><g><path fill="#eeeeec" fill-rule="evenodd" d="M11.8 3.92l9.06 3.2-11.22 3.33-8.78-3.6L11.8 3.9z"/><path fill="#729fcf" fill-rule="evenodd" d="M20.6 7.25l-10.83 3.2.6 13.54 10.1-4.02.12-12.73z"/><path fill="#babdb6" fill-rule="evenodd" d="M1.13 6.9l8.78 3.62.42 13.33-8.3-4.2L1.1 6.9z"/><path fill="none" stroke="#555753" stroke-width=".49862000000000006" d="M1.4 13.44l8.78 4.1 2.72-1.1" overflow="visible" enable-background="accumulate"/><path fill="none" stroke="#555753" stroke-width=".49862000000000006" d="M5.96 21.88L5.14 8.54l11.03-3.06" overflow="visible" enable-background="accumulate"/><path fill="none" stroke="#555753" stroke-width=".49862000000000006" d="M6.53 5.28l8.94 3.44.13 2.1" overflow="visible" enable-background="accumulate"/><path fill="none" stroke="#000" stroke-width=".9983100000000001" d="M11.8 3.85l-10.87 3 .95 13 8.44 4.28 2.72-1.16-.3-11.2 8.06-2.82.06-1.9-9.05-3.2z"/></g><g><path fill="#eeeeec" fill-rule="evenodd" d="M36.52 4.2L47.2 7.4l-9.46 3.32-10.6-3.6 9.38-2.93z"/><path fill="#babdb6" fill-rule="evenodd" d="M27 7.1l10.88 3.62-.9 13.75-9.5-3.6-.5-13.76z"/><path fill="#729fcf" fill-rule="evenodd" d="M47.13 7.32l-9.25 3.47-.82 13.53 8.98-3.88 1.1-13.13z"/><path fill="none" stroke="#555753" stroke-width=".49862000000000006" d="M32.1 11.06l.13-2.18 9.46-3.26" overflow="visible" enable-background="accumulate"/><path fill="none" stroke="#555753" stroke-width=".49862000000000006" d="M31.84 5.6L42.7 9.03l-1.06 13.34" overflow="visible" enable-background="accumulate"/><path fill="none" stroke="#555753" stroke-width=".49862000000000006" d="M34.34 16.7l3.13 1.23 9.2-3.87" overflow="visible" enable-background="accumulate"/><path fill="none" stroke="#000" stroke-width=".9983100000000001" d="M36.52 3.98L26.85 7.1 27 9.3l7.3 2.8-.5 10.94 3.33 1.56 8.9-4.22L47.2 7.25 36.52 3.98z" overflow="visible" enable-background="accumulate"/></g><path fill="none" stroke="#000" stroke-width=".5" d="M14.94 2.96l9.2 3.13L24 8.8"/><g><path fill="#babdb6" fill-rule="evenodd" d="M12.83 11.6l10.7 4.3-.15 14.7-10.2-5.18-.35-13.8z"/><path fill="#729fcf" fill-rule="evenodd" d="M34.45 11.9L23.6 15.8l-.3 14.5 10.74-4.43.4-14z"/><path fill="#eeeeec" fill-rule="evenodd" d="M24 8l10.6 3.88-11.22 4-10.48-4.34L24 8z"/><path fill="none" stroke="#555753" stroke-width=".49862000000000006" d="M18.57 9.75l10.7 4.12-.44 14.3" overflow="visible" enable-background="accumulate"/><path fill="none" stroke="#555753" stroke-width=".49862000000000006" d="M29.1 9.88l-11.25 3.8.22 14.4" overflow="visible" enable-background="accumulate"/><path fill="none" stroke="#555753" stroke-width=".49862000000000006" d="M12.83 18.6l10.7 5.05 11-4.63" overflow="visible" enable-background="accumulate"/><path fill="none" stroke="#000" stroke-width=".9983100000000001" d="M23.93 7.93l-11.3 3.68.6 13.9 10.3 5.3 10.6-4.97.8-13.95-11-3.95z" overflow="visible" enable-background="accumulate"/></g><path fill="none" stroke="#000" stroke-width=".5" d="M.93 6.77l8.84 3.6 10.96-3.2"/><path fill="none" stroke="#000" stroke-width=".5" d="M9.7 10.45l.68 13.6"/><path fill="none" stroke="#000" stroke-width=".5" d="M12.63 11.67l10.82 4.3 10.9-4.02"/><path fill="none" stroke="#000" stroke-width=".5" d="M23.45 15.9l-.14 14.7"/><path fill="none" stroke="#000" stroke-width=".5" d="M26.92 7.1l10.96 3.7-.95 13.74"/><path fill="none" stroke="#000" stroke-width=".5" d="M37.88 10.86l9.25-3.54"/><path fill="none" stroke="#000" stroke-width=".5" d="M2.22 23.45l8.3 4.42.48 12.1"/><path fill="none" stroke="#000" stroke-width=".5" d="M13.24 29.5l10.07 5.38-.2 12.66"/><path fill="none" stroke="#000" stroke-width=".5" d="M32.64 26.44l4.22 1.97-.68 12.06"/><path fill="none" stroke="#000" stroke-width=".5" d="M33.52 3.37l-9.4 2.72"/><path fill="none" stroke="#000" stroke-width=".5" d="M23.18 34.88l10.34-4.9"/><path fill="none" stroke="#000" stroke-width=".5" d="M37 28.4l8.64-4.2"/><g><path fill="url(#b)" fill-rule="evenodd" stroke="#a40000" d="M.53.56l1.43 13.26 3.2-3.2 5.76 5.85 5.28-5.28-5.76-5.85L13.8 2 .52.55z" overflow="visible" enable-background="accumulate"/><path fill="none" stroke="#fff" stroke-opacity=".502" d="M1.55 1.66l1.25 10.2 2.36-2.7 5.76 5.9 3.9-3.82-5.78-5.9 2.44-2.62-9.93-1.06z" overflow="visible" enable-background="accumulate"/></g><g><path fill="url(#c)" fill-rule="evenodd" stroke="#a40000" d="M.53.56l1.43 13.26 3.2-3.2 5.76 5.85 5.28-5.28-5.76-5.85L13.8 2 .52.55z" overflow="visible" enable-background="accumulate" transform="matrix(-1 0 0 1 48.037 0)"/><path fill="none" stroke="#fff" stroke-opacity=".502" d="M46.5 1.66l-1.27 10.2-2.35-2.7-5.77 5.9-3.87-3.82L39 5.34l-2.45-2.62 9.94-1.06z" overflow="visible" enable-background="accumulate"/></g><g><path fill="url(#d)" fill-rule="evenodd" stroke="#a40000" d="M.53.56l1.43 13.26 3.2-3.2 5.76 5.85 5.28-5.28-5.76-5.85L13.8 2 .52.55z" overflow="visible" enable-background="accumulate" transform="matrix(1 0 0 -1 0 47.957)"/><path fill="none" stroke="#fff" stroke-opacity=".502" d="M1.55 46.3L2.8 36.1l2.36 2.7 5.76-5.9 3.9 3.8-5.78 5.9 2.44 2.64-9.93 1.06z" overflow="visible" enable-background="accumulate"/></g><g><path fill="url(#e)" fill-rule="evenodd" stroke="#a40000" d="M.53.56l1.43 13.26 3.2-3.2 5.76 5.85 5.28-5.28-5.76-5.85L13.8 2 .52.55z" overflow="visible" enable-background="accumulate" transform="matrix(-1 0 0 -1 48.037 47.957)"/><path fill="none" stroke="#fff" stroke-opacity=".502" d="M46.5 46.3l-1.27-10.2-2.35 2.7-5.77-5.9-3.87 3.8L39 42.6l-2.45 2.64 9.94 1.06z" overflow="visible" enable-background="accumulate"/></g></g></svg>