<svg xmlns="http://www.w3.org/2000/svg" width="48" height="48" xmlns:xlink="http://www.w3.org/1999/xlink"><defs><linearGradient id="e"><stop offset="0" stop-color="#eeeeec"/><stop offset="1" stop-color="#aaaaa0"/></linearGradient><linearGradient id="b"><stop offset="0" stop-color="#91c6ff"/><stop offset=".655" stop-color="#589ee9"/><stop offset=".719" stop-color="#fff"/><stop offset=".786" stop-color="#0057b3"/><stop offset=".822" stop-color="#002853"/><stop offset=".884" stop-color="#4b8cd2"/><stop offset="1" stop-color="#7eb4ed"/></linearGradient><linearGradient id="d"><stop offset="0" stop-color="#fff" stop-opacity="0"/><stop offset="1" stop-color="#fff" stop-opacity=".559"/></linearGradient><linearGradient id="c"><stop offset="0" stop-color="#005bbc"/><stop offset="1" stop-color="#89bbef"/></linearGradient><linearGradient id="a"><stop offset="0"/><stop offset=".5"/><stop offset="1" stop-color="#2e3436" stop-opacity="0"/></linearGradient><radialGradient id="f" cx="23.082" cy="7.543" r="18.536" xlink:href="#a" fx="23.082" fy="7.543" gradientTransform="matrix(1 0 0 .308 0 5.221)" gradientUnits="userSpaceOnUse"/><radialGradient id="h" cx="22.744" cy="27.927" r="10.647" xlink:href="#b" fx="22.744" fy="27.927" gradientTransform="matrix(1.623 .038 -.061 2.948 -12.349 -51.254)" gradientUnits="userSpaceOnUse"/><radialGradient id="j" cx="23.385" cy="41.08" r="5.202" xlink:href="#c" gradientUnits="userSpaceOnUse" fx="23.385" fy="41.08"/><radialGradient id="k" cx="23.36" cy="41.452" r="5.202" xlink:href="#d" gradientUnits="userSpaceOnUse" gradientTransform="matrix(3.241 .046 -.014 .994 -51.734 -.97)" fx="23.36" fy="41.452"/><radialGradient id="l" cx="23.385" cy="41.08" r="5.202" xlink:href="#c" gradientUnits="userSpaceOnUse" fx="23.385" fy="41.08"/><radialGradient id="m" cx="23.36" cy="41.452" r="5.202" xlink:href="#d" gradientUnits="userSpaceOnUse" gradientTransform="matrix(3.241 .046 -.014 .994 -51.734 -.97)" fx="23.36" fy="41.452"/><radialGradient id="n" cx="23.632" cy="37.851" r="5.202" xlink:href="#d" gradientUnits="userSpaceOnUse" gradientTransform="matrix(-3.752 .003 -.002 -3.75 113.18 178.029)" fx="23.632" fy="37.851"/><radialGradient id="i" cx="23.504" cy="40.561" r="5.202" xlink:href="#c" gradientUnits="userSpaceOnUse" gradientTransform="matrix(3.752 .007 -.002 .977 -64.188 .627)" fx="23.504" fy="40.561"/><linearGradient id="g" x1="9.621" x2="9.659" y1="5.106" y2="9.5" xlink:href="#e" gradientUnits="userSpaceOnUse"/></defs><g><path fill="url(#f)" d="M41.62 7.54a18.54 5.7 0 1 1-37.07 0 18.54 5.7 0 1 1 37.07 0z" transform="matrix(1.289 0 0 1.592 -5.758 -6.851)" color="#000" overflow="visible" enable-background="accumulate"/><path d="M38.24 5.17a14.25 3.3 0 1 1-28.5 0 14.25 3.3 0 1 1 28.5 0z" color="#000" overflow="visible" enable-background="accumulate"/><path fill="url(#g)" d="M24 .1C14.9.1 7.5 2.35 7.5 5.15s7.4 5.06 16.5 5.06 16.47-2.27 16.47-5.06C40.47 2.36 33.1.1 24 .1zm0 1.77c7.87 0 14.25 1.47 14.25 3.3 0 1.8-6.38 3.3-14.25 3.3S9.75 6.97 9.75 5.17c0-1.83 6.38-3.3 14.25-3.3z" color="#000" overflow="visible" enable-background="accumulate"/><path fill="url(#h)" stroke="#3465a4" d="M12.22 2.9c2.07 1.74 8.64 8.9 8.45 11.98-.2 3.07-4.5 5.4-4.4 8.7.12 3.3 2.5 7.18 6.58 7.17 4.1-.02 6.27-3.28 6.27-7.26 0-4-3.25-5.3-3.34-8.62-.08-3.33 6.55-9.2 9.5-11.97-2-3.22-23.15-2.24-23.06 0z"/><path fill="url(#i)" d="M28.6 41.08a5.2 5.2 0 1 1-10.42 0 5.2 5.2 0 1 1 10.4 0z" transform="matrix(1.141 0 0 1.138 -3.901 -22.515)" color="#000" overflow="visible" enable-background="accumulate"/><g color="#000"><path fill="url(#j)" stroke="#3465a4" stroke-width=".946" d="M28.6 41.08c0 2.87-2.34 5.2-5.2 5.2-2.9 0-5.22-2.33-5.22-5.2s2.33-5.2 5.2-5.2c2.88 0 5.2 2.33 5.2 5.2z" transform="matrix(1.326 0 0 1.323 -7.936 -13.84)" overflow="visible" enable-background="accumulate"/><path fill="url(#k)" d="M28.6 41.08c0 2.87-2.34 5.2-5.2 5.2-2.9 0-5.22-2.33-5.22-5.2s2.33-5.2 5.2-5.2c2.88 0 5.2 2.33 5.2 5.2z" transform="matrix(1.244 0 0 1.241 -6.013 -10.576)" overflow="visible" enable-background="accumulate"/><path fill="#fff" d="M22.38 37.78c0 1.3-1.05 2.35-2.35 2.35s-2.35-1.05-2.35-2.35 1.05-2.35 2.35-2.35 2.35 1.05 2.35 2.35z" overflow="visible" enable-background="accumulate"/></g><path fill="#fff" d="M22.22 23.05a2.22 2.22 0 1 1-4.44 0 2.22 2.22 0 1 1 4.44 0z" color="#000" overflow="visible" enable-background="accumulate"/><path fill="url(#l)" stroke="#3465a4" stroke-width=".946" d="M28.6 41.08a5.2 5.2 0 1 1-10.42 0 5.2 5.2 0 1 1 10.4 0z" transform="matrix(1.326 0 0 1.323 -7.934 -13.838)" color="#000" overflow="visible" enable-background="accumulate"/><path fill="url(#m)" d="M28.6 41.08a5.2 5.2 0 1 1-10.42 0 5.2 5.2 0 1 1 10.4 0z" transform="matrix(1.244 0 0 1.241 -6.011 -10.574)" color="#000" overflow="visible" enable-background="accumulate"/><path fill="#fff" d="M22.38 37.78a2.35 2.35 0 1 1-4.7 0 2.35 2.35 0 1 1 4.7 0z" color="#000" overflow="visible" enable-background="accumulate"/><path fill="url(#n)" d="M28.6 41.08a5.2 5.2 0 1 1-10.42 0 5.2 5.2 0 1 1 10.4 0z" transform="matrix(1.141 0 0 1.138 -3.901 -22.515)" color="#000" overflow="visible" enable-background="accumulate"/><path fill="#eeeeec" d="M23.95.1c-9.1 0-16.5 2.26-16.5 5.06H9.7c0-1.82 6.38-3.3 14.25-3.3S38.2 3.35 38.2 5.17h2.22c0-2.8-7.36-5.07-16.47-5.07z" color="#000" overflow="visible" enable-background="accumulate"/></g></svg>