<svg xmlns="http://www.w3.org/2000/svg" width="48" height="48" xmlns:xlink="http://www.w3.org/1999/xlink"><defs><linearGradient id="p"><stop offset="0" stop-color="#643e01"/><stop offset=".181" stop-color="#794b01"/><stop offset="1" stop-color="#8f5902" stop-opacity="0"/></linearGradient><linearGradient id="o"><stop offset="0" stop-color="#c6a100"/><stop offset="1" stop-color="#574700"/></linearGradient><linearGradient id="m"><stop offset="0" stop-color="#8f5902" stop-opacity="0"/><stop offset="1" stop-color="#8f5902" stop-opacity=".315"/></linearGradient><linearGradient id="l"><stop offset="0" stop-color="#fff"/><stop offset="1" stop-color="#fff" stop-opacity="0"/></linearGradient><linearGradient id="i"><stop offset="0" stop-opacity=".624"/><stop offset="1" stop-opacity="0"/></linearGradient><linearGradient id="g"><stop offset="0" stop-color="#fce94f"/><stop offset="1" stop-color="#c4a000"/></linearGradient><linearGradient id="f"><stop offset="0" stop-color="#8b7200"/><stop offset="1" stop-color="#c4a000" stop-opacity="0"/></linearGradient><linearGradient id="e"><stop offset="0" stop-color="#a7c4e1"/><stop offset="1" stop-color="#a7c4e1" stop-opacity="0"/></linearGradient><linearGradient id="d"><stop offset="0" stop-color="#204a87"/><stop offset="1" stop-color="#204a87" stop-opacity="0"/></linearGradient><linearGradient id="c"><stop offset="0" stop-color="#fff"/><stop offset="1" stop-color="#fff" stop-opacity="0"/></linearGradient><linearGradient id="b"><stop offset="0" stop-color="#fff"/><stop offset="1" stop-color="#fff" stop-opacity="0"/></linearGradient><linearGradient id="a"><stop offset="0" stop-color="#fff"/><stop offset="1" stop-color="#fff" stop-opacity="0"/></linearGradient><linearGradient><stop offset="0" stop-color="#740000"/><stop offset="1" stop-color="#460000"/></linearGradient><linearGradient><stop offset="0" stop-color="#fce94f"/><stop offset=".341" stop-color="#e7bd00"/><stop offset=".471" stop-color="#fce94f"/><stop offset=".624" stop-color="#fce94f"/><stop offset=".807" stop-color="#e7bd00"/><stop offset="1" stop-color="#fce94f"/></linearGradient><linearGradient><stop offset="0" stop-color="#7f0000"/><stop offset="1" stop-color="#e06666"/></linearGradient><linearGradient x1="12.726" x2="18.539" y1="14.456" y2="14.456" xlink:href="#a" gradientUnits="userSpaceOnUse"/><linearGradient x1="4.094" x2="11.816" y1="4.563" y2="4.563" xlink:href="#b" gradientUnits="userSpaceOnUse"/><linearGradient x1="6.063" x2="11.968" y1="7.455" y2="7.455" xlink:href="#c" gradientUnits="userSpaceOnUse"/><linearGradient x1="8.738" x2="12.425" y1="20.625" y2="18.655" xlink:href="#d" gradientUnits="userSpaceOnUse"/><linearGradient x1="19.092" x2="14.95" y1="18.054" y2="19.165" xlink:href="#e" gradientUnits="userSpaceOnUse"/><linearGradient x1="16.162" x2="17.021" y1="24.304" y2="28.294" xlink:href="#f" gradientUnits="userSpaceOnUse"/><linearGradient x1="33.59" x2="38.939" y1="20.288" y2="26.198" xlink:href="#g" gradientUnits="userSpaceOnUse" gradientTransform="translate(-51.265 -1.212)"/><linearGradient x1="25.408" x2="35.201" y1="21.854" y2="27.511" xlink:href="#h" gradientUnits="userSpaceOnUse" gradientTransform="translate(-51.265 -1.212)"/><linearGradient id="h"><stop offset="0" stop-color="#fce94f"/><stop offset="1" stop-color="#c4a000"/></linearGradient><linearGradient x1="33.59" x2="38.939" y1="20.288" y2="26.198" gradientTransform="translate(-23.034 -19.5)" gradientUnits="userSpaceOnUse" xlink:href="#h"/><linearGradient x1="16.162" x2="17.021" y1="24.304" y2="28.294" xlink:href="#f" gradientUnits="userSpaceOnUse"/><linearGradient x1="8.738" x2="12.425" y1="20.625" y2="18.655" xlink:href="#d" gradientUnits="userSpaceOnUse"/><linearGradient x1="4.094" x2="11.816" y1="4.563" y2="4.563" xlink:href="#b" gradientUnits="userSpaceOnUse"/><linearGradient x1="6.063" x2="11.968" y1="7.455" y2="7.455" xlink:href="#c" gradientUnits="userSpaceOnUse"/><linearGradient x1="19.092" x2="14.95" y1="18.054" y2="19.165" xlink:href="#e" gradientUnits="userSpaceOnUse"/><linearGradient x1="12.726" x2="18.539" y1="14.456" y2="14.456" xlink:href="#a" gradientUnits="userSpaceOnUse"/><radialGradient cx="24.345" cy="30.575" r="23.234" xlink:href="#i" fx="24.345" fy="30.575" gradientTransform="matrix(1 0 0 .441 0 17.082)" gradientUnits="userSpaceOnUse"/><linearGradient id="j"><stop offset="0" stop-color="#fce94f"/><stop offset="1" stop-color="#c4a000"/></linearGradient><linearGradient x1="33.59" x2="38.939" y1="20.288" y2="26.198" gradientTransform="translate(-22.909 -19.375)" gradientUnits="userSpaceOnUse" xlink:href="#j"/><linearGradient x1="82.229" x2="90.053" y1="12.561" y2="33.774" xlink:href="#k" gradientUnits="userSpaceOnUse" gradientTransform="translate(-51.265 -1.212)"/><linearGradient id="k"><stop offset="0" stop-color="#fce94f"/><stop offset="1" stop-color="#c4a000"/></linearGradient><linearGradient x1="33.59" x2="38.939" y1="20.288" y2="26.198" gradientTransform="translate(-22.909 -19.375)" gradientUnits="userSpaceOnUse" xlink:href="#k"/><linearGradient x1="22.605" x2="22.299" y1="4.466" y2="40.326" xlink:href="#l" gradientUnits="userSpaceOnUse"/><radialGradient cx="33.189" cy="19.613" r="11.492" xlink:href="#m" fx="33.189" fy="19.613" gradientTransform="matrix(1.549 .013 -.015 1.734 -19.03 -15.114)" gradientUnits="userSpaceOnUse"/><linearGradient id="n"><stop offset="0" stop-color="#8f5902" stop-opacity="0"/><stop offset="1" stop-color="#8f5902" stop-opacity=".315"/></linearGradient><radialGradient cx="33.189" cy="19.613" r="11.492" fy="19.613" fx="33.189" gradientTransform="matrix(1.549 .013 -.015 1.734 -42.719 -19.879)" gradientUnits="userSpaceOnUse" xlink:href="#n"/><linearGradient x1="18.031" x2="14.142" y1="17.115" y2="42.722" xlink:href="#n" gradientUnits="userSpaceOnUse"/><linearGradient x1="20.686" x2="45.381" y1="4.996" y2="34.745" xlink:href="#o" gradientUnits="userSpaceOnUse"/><linearGradient x1="82.229" x2="90.053" y1="12.561" y2="33.774" xlink:href="#k" gradientUnits="userSpaceOnUse" gradientTransform="translate(-51.265 -1.212)"/><linearGradient x1="20.686" x2="45.381" y1="4.996" y2="34.745" xlink:href="#o" gradientUnits="userSpaceOnUse"/><radialGradient cx="33.189" cy="19.613" r="11.492" xlink:href="#m" gradientUnits="userSpaceOnUse" gradientTransform="matrix(1.549 .013 -.015 1.734 -19.03 -15.114)" fx="33.189" fy="19.613"/><linearGradient x1="18.031" x2="14.142" y1="17.115" y2="42.722" xlink:href="#n" gradientUnits="userSpaceOnUse"/><linearGradient x1="22.605" x2="22.299" y1="4.466" y2="40.326" xlink:href="#l" gradientUnits="userSpaceOnUse"/><radialGradient cx="24.042" cy="26.812" r="24.143" xlink:href="#p" fx="24.042" fy="26.812" gradientTransform="matrix(1 0 0 .434 0 15.173)" gradientUnits="userSpaceOnUse"/><linearGradient x1="22.605" x2="22.299" y1="4.466" y2="40.326" xlink:href="#l" gradientUnits="userSpaceOnUse" gradientTransform="matrix(.885 0 0 .93 2.613 3.043)"/><linearGradient x1="18.031" x2="14.142" y1="17.115" y2="42.722" xlink:href="#n" gradientUnits="userSpaceOnUse" gradientTransform="matrix(.885 0 0 .93 2.613 3.043)"/><radialGradient cx="33.189" cy="19.613" r="11.492" xlink:href="#m" gradientUnits="userSpaceOnUse" gradientTransform="matrix(1.372 .012 -.013 1.612 -14.237 -11.01)" fx="33.189" fy="19.613"/><linearGradient x1="82.229" x2="90.053" y1="12.561" y2="33.774" xlink:href="#k" gradientUnits="userSpaceOnUse" gradientTransform="matrix(.885 0 0 .93 -42.779 1.916)"/><linearGradient x1="20.686" x2="45.381" y1="4.996" y2="34.745" xlink:href="#o" gradientUnits="userSpaceOnUse" gradientTransform="matrix(.885 0 0 .93 2.613 3.043)"/><linearGradient x1="64.09" x2="69.118" y1="27.174" y2="45.399" xlink:href="#q" gradientUnits="userSpaceOnUse" gradientTransform="matrix(.913 0 0 .93 -44.547 1.916)"/><linearGradient id="q"><stop offset="0" stop-color="#fce94f"/><stop offset="1" stop-color="#c4a000"/></linearGradient><linearGradient x1="7.053" x2="20.111" y1="27.215" y2="41.21" xlink:href="#r" gradientUnits="userSpaceOnUse" gradientTransform="matrix(.913 0 0 .93 2.277 3.043)"/><linearGradient id="r"><stop offset="0" stop-color="#c6a100"/><stop offset="1" stop-color="#574700"/></linearGradient><linearGradient x1="82.229" x2="90.053" y1="12.561" y2="33.774" gradientTransform="matrix(.885 0 0 .93 -47.208 -5.182)" gradientUnits="userSpaceOnUse" xlink:href="#q"/><linearGradient x1="20.686" x2="45.381" y1="4.996" y2="34.745" gradientTransform="matrix(.885 0 0 .93 -1.816 -4.055)" gradientUnits="userSpaceOnUse" xlink:href="#r"/><radialGradient cx="24.042" cy="26.812" r="24.143" xlink:href="#p" gradientUnits="userSpaceOnUse" gradientTransform="matrix(1 0 0 .434 0 15.173)" fx="24.042" fy="26.812"/><linearGradient x1="12.195" x2="15.172" y1="25.3" y2="42.215" xlink:href="#s" gradientUnits="userSpaceOnUse" gradientTransform="matrix(.815 0 0 .856 3.459 5.551)"/><linearGradient id="s"><stop offset="0" stop-color="#fff"/><stop offset="1" stop-color="#fff" stop-opacity="0"/></linearGradient><linearGradient x1="22.605" x2="22.299" y1="4.466" y2="40.326" gradientTransform="matrix(.885 0 0 .93 -2.522 -4.87)" gradientUnits="userSpaceOnUse" xlink:href="#s"/><radialGradient cx="19.345" cy="27.081" r="11.492" xlink:href="#t" gradientUnits="userSpaceOnUse" gradientTransform="matrix(1.372 .012 -.013 1.612 -14.237 -11.01)" fx="19.345" fy="27.081"/><linearGradient id="t"><stop offset="0" stop-color="#8f5902" stop-opacity="0"/><stop offset="1" stop-color="#8f5902" stop-opacity=".315"/></linearGradient><radialGradient cx="33.189" cy="19.613" r="11.492" fy="19.613" fx="33.189" gradientTransform="matrix(1.372 .012 -.013 1.612 -37.825 -18.483)" gradientUnits="userSpaceOnUse" xlink:href="#t"/><radialGradient id="A" cx="24.042" cy="26.812" r="24.143" xlink:href="#p" gradientUnits="userSpaceOnUse" gradientTransform="matrix(1 0 0 .434 0 15.173)" fx="24.042" fy="26.812"/><linearGradient id="B" x1="64.09" x2="69.118" y1="27.174" y2="45.399" xlink:href="#q" gradientUnits="userSpaceOnUse" gradientTransform="matrix(.913 0 0 .93 -44.547 1.916)"/><linearGradient id="C" x1="7.053" x2="20.111" y1="27.215" y2="41.21" xlink:href="#r" gradientUnits="userSpaceOnUse" gradientTransform="matrix(.913 0 0 .93 2.277 3.043)"/><linearGradient id="D" x1="12.195" x2="15.172" y1="25.3" y2="42.215" xlink:href="#s" gradientUnits="userSpaceOnUse" gradientTransform="matrix(.815 0 0 .856 3.459 5.551)"/><radialGradient id="E" cx="19.345" cy="27.081" r="11.492" xlink:href="#t" gradientUnits="userSpaceOnUse" gradientTransform="matrix(1.372 .012 -.013 1.612 -14.237 -11.01)" fx="19.345" fy="27.081"/><radialGradient cx="24.042" cy="26.812" r="24.143" xlink:href="#p" gradientUnits="userSpaceOnUse" gradientTransform="matrix(1 0 0 .434 0 15.173)" fx="24.042" fy="26.812"/><linearGradient x1="82.229" x2="90.053" y1="12.561" y2="33.774" xlink:href="#k" gradientUnits="userSpaceOnUse" gradientTransform="matrix(.885 0 0 .93 -42.779 1.916)"/><linearGradient x1="20.686" x2="45.381" y1="4.996" y2="34.745" xlink:href="#o" gradientUnits="userSpaceOnUse" gradientTransform="matrix(.885 0 0 .93 2.613 3.043)"/><radialGradient cx="33.189" cy="19.613" r="11.492" xlink:href="#m" gradientUnits="userSpaceOnUse" gradientTransform="matrix(1.372 .012 -.013 1.612 -14.237 -11.01)" fx="33.189" fy="19.613"/><linearGradient x1="18.031" x2="14.142" y1="17.115" y2="42.722" xlink:href="#n" gradientUnits="userSpaceOnUse" gradientTransform="matrix(.885 0 0 .93 2.613 3.043)"/><linearGradient x1="22.605" x2="22.299" y1="4.466" y2="40.326" xlink:href="#l" gradientUnits="userSpaceOnUse" gradientTransform="matrix(.885 0 0 .93 2.613 3.043)"/><linearGradient id="z" x1="22.605" x2="22.299" y1="4.466" y2="40.326" xlink:href="#l" gradientUnits="userSpaceOnUse" gradientTransform="matrix(.88 0 0 .925 2.194 -.826)"/><linearGradient id="y" x1="18.031" x2="14.142" y1="17.115" y2="42.722" xlink:href="#n" gradientUnits="userSpaceOnUse" gradientTransform="matrix(.88 0 0 .925 2.194 -.826)"/><radialGradient id="x" cx="33.189" cy="19.613" r="11.492" xlink:href="#m" gradientUnits="userSpaceOnUse" gradientTransform="matrix(1.363 .012 -.013 1.604 -14.55 -14.809)" fx="33.189" fy="19.613"/><linearGradient id="v" x1="82.229" x2="90.053" y1="12.561" y2="33.774" xlink:href="#k" gradientUnits="userSpaceOnUse" gradientTransform="matrix(.88 0 0 .925 -42.913 -1.948)"/><linearGradient id="w" x1="20.686" x2="45.381" y1="4.996" y2="34.745" xlink:href="#o" gradientUnits="userSpaceOnUse" gradientTransform="matrix(.88 0 0 .925 2.194 -.826)"/><radialGradient id="u" cx="24.042" cy="26.812" r="24.143" xlink:href="#p" gradientUnits="userSpaceOnUse" gradientTransform="matrix(1 0 0 .434 0 15.173)" fx="24.042" fy="26.812"/></defs><g color="#000"><path fill="url(#u)" d="M48.18 26.8a24.14 10.48 0 1 1-48.28 0 24.14 10.48 0 1 1 48.28 0z" transform="matrix(.989 .118 -.094 1.15 2.685 -11.277)" overflow="visible" enable-background="accumulate"/><path fill="url(#v)" stroke="url(#w)" stroke-width=".75" d="M4.37 21.25C4.32 19.9 9.2 8 12.85 7.97c3.3-.04 5.94 4.83 7.9 4.87 1.8.03 6.88-9.18 10.1-9.26 3.17-.08 12.6 15.68 12.4 18.13-.2 2.72-7.94 10.23-13.55 9.97-4.1-.2-6.26-4.5-8.8-4.48-1.96 0-6.7 1.1-9.15 1-2.4-.07-7.3-5.2-7.38-6.95z" overflow="visible" enable-background="accumulate"/><path fill="url(#x)" d="M30.86 3.58c3.16-.08 12.6 15.68 12.4 18.13-.22 2.72-7.95 10.23-13.56 9.97-2.98-.15-4.88-2.86-6.66-4.34 3.92-4.2 10.48-5.98 12.1-10.33 1.2-3.3-2.07-6.65-4.28-13.42z" overflow="visible" enable-background="accumulate"/><path fill="url(#y)" d="M14.02 8.35c2.2 7.72-.46 13.52-5.6 17.75 0 0 2.2 1.85 3.5 1.83 1.68-.03 9.5-1 9.5-1-4.17-1.94-1.48-12.28-.65-13.72z" overflow="visible" enable-background="accumulate"/><path fill="none" stroke="url(#z)" stroke-width=".5" d="M4.95 21.25C4.9 20 9.48 8.6 13 8.57c3.18-.04 5.87 5 7.77 5.03 1.75.04 7-9.26 10.1-9.33 3.07-.07 11.95 14.9 11.77 17.2-.2 2.53-7.37 9.7-12.78 9.46-3.98-.18-6.37-4.38-8.82-4.37-1.9 0-6.48 1.07-8.83 1-2.3-.1-7.18-4.67-7.25-6.3z" overflow="visible" enable-background="accumulate"/><g><path fill="url(#A)" d="M48.18 26.8c0 5.8-10.8 10.5-24.14 10.5C10.7 37.3-.1 32.6-.1 26.8c0-5.78 10.8-10.47 24.14-10.47s24.14 4.7 24.14 10.48z" transform="matrix(.629 0 0 .68 17.438 19.746)" overflow="visible" enable-background="accumulate"/><path fill="url(#B)" stroke="url(#C)" stroke-width=".599" d="M5 37.24c0-3 4.9-10.74 8.5-10.76 3.68-.02 7.9 7.66 8.02 11.57.08 2.94-4.27 4.5-8.03 4.6-3.52.07-8.5-2.58-8.5-5.4z" overflow="visible" enable-background="accumulate" transform="matrix(1.252 0 0 1.252 14.972 -11.054)"/><path fill="none" stroke="url(#D)" stroke-width=".399" d="M5.66 37.03c-.02-2.77 4.52-9.88 7.8-9.9 3.4-.02 7.3 7.04 7.4 10.64.07 2.7-3.93 4.16-7.4 4.23-3.22.07-7.8-2.37-7.8-4.97z" overflow="visible" enable-background="accumulate" transform="matrix(1.252 0 0 1.252 14.972 -11.054)"/><path fill="url(#E)" d="M13.7 26.9c4.04 6.72 4.65 12.27-5.2 14.18 7.03 2.9 13.22 1.23 12.8-2.88-.02-4.3-4.72-11.33-7.6-11.3z" overflow="visible" enable-background="accumulate" transform="matrix(1.252 0 0 1.252 14.972 -11.054)"/></g></g></svg>