<svg xmlns="http://www.w3.org/2000/svg" width="48" height="48" xmlns:xlink="http://www.w3.org/1999/xlink"><defs><linearGradient id="a"><stop offset="0" stop-color="#f0f0eb"/><stop offset="1" stop-color="#9b9178"/></linearGradient><linearGradient id="b" x1="24.032" x2="24.032" y1="18.885" y2="32.916" xlink:href="#a" gradientUnits="userSpaceOnUse"/></defs><g><path fill="url(#b)" fill-rule="evenodd" d="M12.32 11.15l-8.06 2.72-3.7 6.6 6.83 10.78 14.14 2.6 15.54-1.5 6.2-4.12 4.23-6.6-4-6.83-5.5-3.13-12.4-1.28-13.28.75z"/><path fill="none" stroke="#8f5902" stroke-width=".5" d="M4.5 14.16l2.9 3.3L21.4 19.2l15.77-1.1 6.02-3.2"/><path fill="none" stroke="#8f5902" stroke-width=".5" d="M3.8 25.1l17.04 2.6 19.02-1.5 7.48-4.5"/><path fill="none" stroke="#8f5902" stroke-width=".5" d="M13.9 16.13L7.27 17.3 3.8 25.27"/><path fill="none" stroke="#8f5902" stroke-width=".5" d="M22.4 17.05l-1.04 2.32-.57 8.4.62 6.5"/><path fill="none" stroke="#8f5902" stroke-width=".5" d="M31.63 16.48l5.5 1.62 2.84 8.16-3.13 6.6"/><path fill="none" stroke="#8f5902" stroke-width=".5" d="M35.5 14.68l7.84.17"/><path fill="none" stroke="#8f5902" stroke-width=".5" d="M12.2 14.1l-7.82-.17"/><path fill="none" stroke="#8f5902" stroke-width=".5" d="M38 11.67l-5.33 1.04L31 16.54"/><path fill="none" stroke="#8f5902" stroke-width=".5" d="M25.7 10.4l-.74 1.5-.4 5.15"/><path fill="none" stroke="#8f5902" stroke-width=".5" d="M12.55 11.2l4 1.16L18 16.48"/><path fill="none" stroke="#fff" stroke-width="3" d="M2.48 17.65l3.17 3.68 15.37 2.54 17.58-1.4 6.86-3.93"/><path fill="none" stroke="#ff1919" d="M2.48 17.65l3.17 3.68 15.37 2.54 17.58-1.4 6.86-3.93" stroke-dasharray="2,1"/><path fill="none" stroke="#000" d="M12.32 11.15l-8.06 2.72-3.7 6.6 6.83 10.78 14.14 2.6 15.54-1.5 6.2-4.12 4.23-6.6-4-6.83-5.5-3.13-12.4-1.28-13.28.75z"/><path fill="none" stroke="#603c00" stroke-width=".75" d="M16.44 12.36l-4.3 1.68 2.04 2.1 8.17.97 9.22-.57 4.06-1.85-2.9-1.97-7.9-.8-8.4.46z"/></g></svg>