<svg xmlns="http://www.w3.org/2000/svg" width="48" height="48" xmlns:xlink="http://www.w3.org/1999/xlink"><defs><linearGradient id="d"><stop offset="0" stop-color="#a40000" stop-opacity="0"/><stop offset=".5" stop-color="#b30000" stop-opacity="0"/><stop offset=".75" stop-color="#f86105" stop-opacity=".498"/><stop offset="1" stop-color="#f8ff0b"/></linearGradient><linearGradient id="c"><stop offset="0" stop-color="#ffde0b"/><stop offset=".25" stop-color="#eaa400" stop-opacity=".55"/><stop offset=".5" stop-color="#ea0000" stop-opacity=".288"/><stop offset="1" stop-color="#a40000" stop-opacity="0"/></linearGradient><linearGradient id="b"><stop offset="0" stop-color="#fff"/><stop offset="1" stop-color="#fff" stop-opacity=".162"/></linearGradient><linearGradient id="a"><stop offset="0" stop-color="#efbf29"/><stop offset=".5" stop-color="#ef2929"/><stop offset="1" stop-color="#780909"/></linearGradient><radialGradient cx="23.884" cy="41.615" r="19.165" xlink:href="#a" fx="23.884" fy="41.615" gradientTransform="matrix(1 0 0 .265 0 30.606)" gradientUnits="userSpaceOnUse"/><radialGradient id="f" cx="20.455" cy="21.793" r="21.076" xlink:href="#b" fx="20.455" fy="21.793" gradientTransform="matrix(1 0 0 1.058 0 -1.26)" gradientUnits="userSpaceOnUse"/><radialGradient id="e" cx="30.81" cy="38.202" r="16.162" xlink:href="#c" fx="30.81" fy="38.202" gradientTransform="matrix(1 0 0 .559 0 16.833)" gradientUnits="userSpaceOnUse"/><radialGradient id="g" cx="-6.401" cy="19.362" r="3.687" xlink:href="#d" fx="-6.401" fy="19.362" gradientUnits="userSpaceOnUse" gradientTransform="matrix(2.192 .016 -.017 2.342 6.48 -27.548)"/><radialGradient id="h" cx="-6.401" cy="19.362" r="3.687" xlink:href="#d" gradientUnits="userSpaceOnUse" gradientTransform="matrix(2.192 .016 -.017 2.342 6.48 -27.548)" fx="-6.401" fy="19.362"/><radialGradient id="i" cx="-6.401" cy="19.362" r="3.687" xlink:href="#d" gradientUnits="userSpaceOnUse" gradientTransform="matrix(2.192 .016 -.017 2.342 6.48 -27.548)" fx="-6.401" fy="19.362"/><radialGradient id="j" cx="-6.401" cy="19.362" r="3.687" xlink:href="#d" gradientUnits="userSpaceOnUse" gradientTransform="matrix(2.192 .016 -.017 2.342 6.48 -27.548)" fx="-6.401" fy="19.362"/><radialGradient id="k" cx="-6.401" cy="19.362" r="3.687" xlink:href="#d" gradientUnits="userSpaceOnUse" gradientTransform="matrix(2.192 .016 -.017 2.342 6.48 -27.548)" fx="-6.401" fy="19.362"/><radialGradient id="m" cx="-6.401" cy="19.362" r="3.687" xlink:href="#d" gradientUnits="userSpaceOnUse" gradientTransform="matrix(2.192 .016 -.017 2.342 6.48 -27.548)" fx="-6.401" fy="19.362"/><radialGradient id="n" cx="-6.401" cy="19.362" r="3.687" xlink:href="#d" gradientUnits="userSpaceOnUse" gradientTransform="matrix(2.192 .016 -.017 2.342 6.48 -27.548)" fx="-6.401" fy="19.362"/><radialGradient id="l" cx="-6.401" cy="19.362" r="3.687" xlink:href="#d" gradientUnits="userSpaceOnUse" gradientTransform="matrix(2.192 .016 -.017 2.342 6.48 -27.548)" fx="-6.401" fy="19.362"/></defs><g><path fill="url(#e)" d="M46.97 38.2a16.16 9.04 0 1 1-32.32 0 16.16 9.04 0 1 1 32.32 0z" transform="matrix(.977 0 0 1.063 3.304 .525)" color="#000" overflow="visible" enable-background="accumulate"/><path fill="url(#f)" stroke="#fff" stroke-opacity=".124" stroke-width="2" d="M11 .5C9.17.5 7.64 1.68 7.07 3.3c-.66-.43-1.46-.74-2.3-.74-2.33 0-4.18 1.9-4.18 4.22 0 1.25.56 2.33 1.43 3.1-1 .76-1.65 2-1.65 3.34 0 1.57.87 2.92 2.15 3.64 0 .05 0 .1 0 .16 0 1.5.76 2.8 1.94 3.55-.35.6-.58 1.32-.58 2.07 0 2.3 1.85 4.13 4.12 4.17-.62.74-1 1.7-1 2.74 0 2.3 1.87 4.2 4.18 4.2.37 0 .74-.07 1.08-.15.02 1 .42 1.88 1.03 2.6-.62.72-1.02 1.63-1.02 2.67 0 2.32 1.86 4.22 4.17 4.22 1.73 0 3.25-1.07 3.88-2.57.68.48 1.54.74 2.44.74 2.3 0 4.17-1.86 4.17-4.17 0-.9-.3-1.75-.78-2.44 1.15-.74 1.9-2.03 1.9-3.5 0-.7-.2-1.37-.5-1.95.8-.62 1.35-1.52 1.53-2.55.07 0 .15.04.24.04 2.3 0 4.2-1.9 4.2-4.23 0-.83-.27-1.6-.7-2.27 1.93-.1 3.5-1.5 3.85-3.34 2.14-.18 3.83-1.94 3.83-4.13 0-1.35-.66-2.54-1.65-3.3 0-.07 0-.12 0-.17 0-2.32-1.9-4.18-4.2-4.18-1.3 0-2.4.56-3.15 1.45-.18-.1-.36-.18-.54-.25 0-.18.03-.35.03-.53 0-2.32-1.86-4.22-4.17-4.22-1.5 0-2.8.8-3.55 1.98-.74-1.16-2-1.97-3.5-1.97-1.77 0-3.27 1.1-3.9 2.65-.26 0-.5.06-.77.12C14.93 2.17 13.18.5 11 .5z" color="#000" stroke-linecap="round" stroke-linejoin="round" overflow="visible" enable-background="accumulate"/><path fill="#7c0000" d="M31.87 40.65c-1.9-.04-3.44 1.7-5.3 2.1-1.64.34-3.4-.22-5.03.2-1.5.37-4.35 1.35-4.12 2.03.28.88 2.76 2.37 4.47 2.75 1.88.42 3.8-.68 5.74-.66 2.74.03 5.4 1.34 8.14 1.12 1.93-.17 4.94-.8 6.82-1.24 2.2-.5 5.2-.56 5.45-1.52.3-1.06-3.63-2.8-5.8-3.26-1.9-.4-3.85.87-5.75.56-1.67-.27-2.94-2.04-4.63-2.1z"/><path fill="#ef2929" d="M32.23 40c-1.67-.04-3.02 1.5-4.64 1.83-1.46.3-3-.2-4.43.18-1.3.34-3.82 1.2-3.62 1.8.25.76 2.43 2.07 3.93 2.4 1.65.37 3.35-.6 5.04-.58 2.4.03 4.75 1.18 7.14 1 1.7-.15 4.33-.7 6-1.1 1.92-.43 4.53-.48 4.76-1.32.25-.93-3.18-2.46-5.1-2.86-1.64-.35-3.36.76-5.03.5-1.48-.25-2.6-1.8-4.07-1.84z"/><path fill="#f57900" d="M32.23 39.52c-1.45-.03-2.62 1.3-4.03 1.6-1.25.25-2.6-.17-3.83.15-1.13.28-3.3 1.02-3.14 1.54.22.68 2.1 1.82 3.4 2.1 1.44.32 2.9-.5 4.38-.5 2.1.02 4.13 1.03 6.2.85 1.48-.12 3.76-.6 5.2-.93 1.68-.38 3.94-.43 4.14-1.16.22-.8-2.76-2.13-4.4-2.48-1.45-.3-2.94.67-4.4.43-1.26-.2-2.23-1.55-3.5-1.58z"/><path fill="#fcaf3e" d="M32.5 39.1c-1.26-.02-2.3 1.14-3.52 1.4-1.1.24-2.28-.14-3.37.14-.98.25-2.9.9-2.74 1.36.2.6 1.85 1.58 3 1.84 1.25.27 2.54-.46 3.83-.45 1.82 0 3.6.9 5.43.74 1.3-.1 3.3-.52 4.55-.8 1.48-.35 3.47-.4 3.64-1.03.2-.7-2.42-1.86-3.87-2.17-1.26-.26-2.58.58-3.85.37-1.1-.18-1.96-1.36-3.1-1.4z"/><path fill="#d2d2d2" fill-opacity=".314" d="M9.72 10.1a4.4 4.4 0 1 1-8.8 0 4.4 4.4 0 1 1 8.8 0z" opacity=".905" color="#000" overflow="visible" enable-background="accumulate"/><path fill="#d2d2d2" fill-opacity=".314" d="M13.28 14.36a4.4 4.4 0 1 1-8.8 0 4.4 4.4 0 1 1 8.8 0z" opacity=".905" color="#000" overflow="visible" enable-background="accumulate"/><path fill="#d2d2d2" fill-opacity=".314" d="M12.56 19.33a4.4 4.4 0 1 1-8.8 0 4.4 4.4 0 1 1 8.8 0z" opacity=".905" color="#000" overflow="visible" enable-background="accumulate"/><path fill="#d2d2d2" fill-opacity=".314" d="M14.4 24.3a4.4 4.4 0 1 1-8.8 0 4.4 4.4 0 1 1 8.8 0z" opacity=".905" color="#000" overflow="visible" enable-background="accumulate"/><path fill="#d2d2d2" fill-opacity=".314" d="M17.54 29.85a4.4 4.4 0 1 1-8.8 0 4.4 4.4 0 1 1 8.8 0z" opacity=".905" color="#000" overflow="visible" enable-background="accumulate"/><path fill="#fcaf3e" fill-opacity=".314" d="M20.8 35.03a4.4 4.4 0 1 1-8.8 0 4.4 4.4 0 1 1 8.8 0z" opacity=".905" color="#000" overflow="visible" enable-background="accumulate"/><path fill="#d2d2d2" fill-opacity=".314" d="M18.8 25.94a4.4 4.4 0 1 1-8.8 0 4.4 4.4 0 1 1 8.8 0z" opacity=".905" color="#000" overflow="visible" enable-background="accumulate"/><path fill="#d2d2d2" fill-opacity=".314" d="M17.82 17.56a4.4 4.4 0 1 1-8.8 0 4.4 4.4 0 1 1 8.8 0z" opacity=".905" color="#000" overflow="visible" enable-background="accumulate"/><path fill="#d2d2d2" fill-opacity=".314" d="M15.33 9.6a4.4 4.4 0 1 1-8.8 0 4.4 4.4 0 1 1 8.8 0z" opacity=".905" color="#000" overflow="visible" enable-background="accumulate"/><path fill="#d2d2d2" fill-opacity=".314" d="M17.75 7.05a4.4 4.4 0 1 1-8.8 0 4.4 4.4 0 1 1 8.8 0z" opacity=".905" color="#000" overflow="visible" enable-background="accumulate"/><path fill="#d2d2d2" fill-opacity=".314" d="M10.8 6.9a4.4 4.4 0 1 1-8.82 0 4.4 4.4 0 1 1 8.8 0z" opacity=".905" color="#000" overflow="visible" enable-background="accumulate"/><path fill="#d2d2d2" fill-opacity=".314" d="M20.38 13.58a4.4 4.4 0 1 1-8.8 0 4.4 4.4 0 1 1 8.8 0z" opacity=".905" color="#000" overflow="visible" enable-background="accumulate"/><path fill="#d2d2d2" fill-opacity=".314" d="M25.42 8.6a4.4 4.4 0 1 1-8.8 0 4.4 4.4 0 1 1 8.8 0z" opacity=".905" color="#000" overflow="visible" enable-background="accumulate"/><path fill="#d2d2d2" fill-opacity=".314" d="M24.92 14.65a4.4 4.4 0 1 1-8.8 0 4.4 4.4 0 1 1 8.8 0z" opacity=".905" color="#000" overflow="visible" enable-background="accumulate"/><path fill="#d2d2d2" fill-opacity=".314" d="M24.92 20.97a4.4 4.4 0 1 1-8.8 0 4.4 4.4 0 1 1 8.8 0z" opacity=".905" color="#000" overflow="visible" enable-background="accumulate"/><path fill="#fcaf3e" fill-opacity=".314" d="M27.83 28.35a4.4 4.4 0 1 1-8.8 0 4.4 4.4 0 1 1 8.8 0z" opacity=".905" color="#000" overflow="visible" enable-background="accumulate"/><path fill="#fcaf3e" fill-opacity=".314" d="M24.57 29.92a4.4 4.4 0 1 1-8.8 0 4.4 4.4 0 1 1 8.8 0z" opacity=".905" color="#000" overflow="visible" enable-background="accumulate"/><path fill="#fcaf3e" fill-opacity=".314" d="M21.73 22.53a4.4 4.4 0 1 1-8.8 0 4.4 4.4 0 1 1 8.8 0z" opacity=".905" color="#000" overflow="visible" enable-background="accumulate"/><path fill="#fce94f" fill-opacity=".314" d="M25.06 36.52a4.4 4.4 0 1 1-8.8 0 4.4 4.4 0 1 1 8.8 0z" opacity=".905" color="#000" overflow="visible" enable-background="accumulate"/><path fill="#fce94f" fill-opacity=".314" d="M21.3 38.5a4.4 4.4 0 1 1-8.8 0 4.4 4.4 0 1 1 8.8 0z" opacity=".905" color="#000" overflow="visible" enable-background="accumulate"/><path fill="#fce94f" fill-opacity=".314" d="M28.2 31.34a4.4 4.4 0 1 1-8.82 0 4.4 4.4 0 1 1 8.8 0z" opacity=".905" color="#000" overflow="visible" enable-background="accumulate"/><path fill="#fcaf3e" fill-opacity=".314" d="M31.1 21.75a4.4 4.4 0 1 1-8.8 0 4.4 4.4 0 1 1 8.8 0z" opacity=".905" color="#000" overflow="visible" enable-background="accumulate"/><path fill="#fcaf3e" fill-opacity=".314" d="M32.52 22.6a4.4 4.4 0 1 1-8.8 0 4.4 4.4 0 1 1 8.8 0z" opacity=".905" color="#000" overflow="visible" enable-background="accumulate"/><path fill="#d2d2d2" fill-opacity=".314" d="M34.87 17.56a4.4 4.4 0 1 1-8.8 0 4.4 4.4 0 1 1 8.8 0z" opacity=".905" color="#000" overflow="visible" enable-background="accumulate"/><path fill="#d2d2d2" fill-opacity=".314" d="M39.13 15.22a4.4 4.4 0 1 1-8.8 0 4.4 4.4 0 1 1 8.8 0z" opacity=".905" color="#000" overflow="visible" enable-background="accumulate"/><path fill="#d2d2d2" fill-opacity=".314" d="M39.13 12.73a4.4 4.4 0 1 1-8.8 0 4.4 4.4 0 1 1 8.8 0z" opacity=".905" color="#000" overflow="visible" enable-background="accumulate"/><path fill="#d2d2d2" fill-opacity=".314" d="M37.42 10.24a4.4 4.4 0 1 1-8.8 0 4.4 4.4 0 1 1 8.8 0z" opacity=".905" color="#000" overflow="visible" enable-background="accumulate"/><path fill="#d2d2d2" fill-opacity=".314" d="M31.3 12.02a4.4 4.4 0 1 1-8.8 0 4.4 4.4 0 1 1 8.8 0z" opacity=".905" color="#000" overflow="visible" enable-background="accumulate"/><path fill="#d2d2d2" fill-opacity=".314" d="M29.6 16.56a4.4 4.4 0 1 1-8.8 0 4.4 4.4 0 1 1 8.8 0z" opacity=".905" color="#000" overflow="visible" enable-background="accumulate"/><path fill="#d2d2d2" fill-opacity=".314" d="M30.68 7.4a4.4 4.4 0 1 1-8.8 0 4.4 4.4 0 1 1 8.8 0z" opacity=".905" color="#000" overflow="visible" enable-background="accumulate"/><path fill="#d2d2d2" fill-opacity=".314" d="M23.08 7.2a4.4 4.4 0 1 1-8.8 0 4.4 4.4 0 1 1 8.8 0z" opacity=".905" color="#000" overflow="visible" enable-background="accumulate"/><path fill="#d2d2d2" fill-opacity=".314" d="M19.1 15a4.4 4.4 0 1 1-8.8 0 4.4 4.4 0 1 1 8.8 0z" opacity=".905" color="#000" overflow="visible" enable-background="accumulate"/><path fill="#fcaf3e" fill-opacity=".314" d="M24.2 23.88a4.4 4.4 0 1 1-8.8 0 4.4 4.4 0 1 1 8.8 0z" opacity=".905" color="#000" overflow="visible" enable-background="accumulate"/><path fill="#d2d2d2" fill-opacity=".314" d="M19.67 17.9a4.4 4.4 0 1 1-8.8 0 4.4 4.4 0 1 1 8.8 0z" opacity=".905" color="#000" overflow="visible" enable-background="accumulate"/><path fill="#d2d2d2" fill-opacity=".314" d="M27.12 17.5a4.4 4.4 0 1 1-8.8 0 4.4 4.4 0 1 1 8.8 0z" opacity=".905" color="#000" overflow="visible" enable-background="accumulate"/><path fill="#eeeeec" fill-opacity=".314" d="M19.88 12.45a4.4 4.4 0 1 1-8.8 0 4.4 4.4 0 1 1 8.8 0z" opacity=".905" color="#000" overflow="visible" enable-background="accumulate"/><path fill="#eeeeec" fill-opacity=".314" d="M15.76 19.26a4.4 4.4 0 1 1-8.8 0 4.4 4.4 0 1 1 8.8 0z" opacity=".905" color="#000" overflow="visible" enable-background="accumulate"/><path fill="#fcaf3e" fill-opacity=".314" d="M21.8 29.7a4.4 4.4 0 1 1-8.8 0 4.4 4.4 0 1 1 8.8 0z" opacity=".905" color="#000" overflow="visible" enable-background="accumulate"/><path fill="#fcaf3e" fill-opacity=".314" d="M25.63 24.73a4.4 4.4 0 1 1-8.8 0 4.4 4.4 0 1 1 8.8 0z" opacity=".905" color="#000" overflow="visible" enable-background="accumulate"/><path fill="#fcaf3e" fill-opacity=".314" d="M22.15 23.95a4.4 4.4 0 1 1-8.8 0 4.4 4.4 0 1 1 8.8 0z" opacity=".905" color="#000" overflow="visible" enable-background="accumulate"/><path fill="#eeeeec" fill-opacity=".314" d="M27.98 17.56a4.4 4.4 0 1 1-8.8 0 4.4 4.4 0 1 1 8.8 0z" opacity=".905" color="#000" overflow="visible" enable-background="accumulate"/><path fill="#d2d2d2" fill-opacity=".314" d="M25.14 11.45a4.4 4.4 0 1 1-8.8 0 4.4 4.4 0 1 1 8.8 0z" opacity=".905" color="#000" overflow="visible" enable-background="accumulate"/><path fill="#d2d2d2" fill-opacity=".314" d="M31.46 11.74a4.4 4.4 0 1 1-8.8 0 4.4 4.4 0 1 1 8.8 0z" opacity=".905" color="#000" overflow="visible" enable-background="accumulate"/><path fill="#d2d2d2" fill-opacity=".314" d="M16.9 11.74a4.4 4.4 0 1 1-8.8 0 4.4 4.4 0 1 1 8.8 0z" opacity=".905" color="#000" overflow="visible" enable-background="accumulate"/><path fill="#d2d2d2" fill-opacity=".314" d="M16.9 11.74a4.4 4.4 0 1 1-8.8 0 4.4 4.4 0 1 1 8.8 0z" opacity=".905" color="#000" overflow="visible" enable-background="accumulate"/><path fill="#fcaf3e" fill-opacity=".314" d="M27.62 28.7a4.4 4.4 0 1 1-8.8 0 4.4 4.4 0 1 1 8.8 0z" opacity=".905" color="#000" overflow="visible" enable-background="accumulate"/><path fill="#fce94f" fill-opacity=".314" d="M21.73 31.12a4.4 4.4 0 1 1-8.8 0 4.4 4.4 0 1 1 8.8 0z" opacity=".905" color="#000" overflow="visible" enable-background="accumulate"/><path fill="#fff" d="M10.22 6.56c-2.43 0-4.4 1.97-4.4 4.4 0 1.53.77 2.86 1.94 3.65-.47-.7-.72-1.54-.72-2.45 0-2.43 1.97-4.4 4.4-4.4.9 0 1.7.27 2.38.72-.8-1.15-2.1-1.9-3.6-1.9z" opacity=".905" color="#000" overflow="visible" enable-background="accumulate"/><path fill="#fff" d="M14.12 19.27c-2.43 0-4.4 1.98-4.4 4.4 0 1.53.77 2.86 1.95 3.65-.48-.7-.72-1.54-.72-2.45 0-2.44 1.97-4.4 4.4-4.4.88 0 1.7.27 2.38.7-.8-1.13-2.1-1.9-3.6-1.9z" opacity=".905" color="#000" overflow="visible" enable-background="accumulate"/><path fill="#fff" d="M21.02 5.17c-1.7-1.75-4.48-1.8-6.23-.12-1.1 1.06-1.53 2.54-1.3 3.93.2-.83.63-1.6 1.3-2.22 1.74-1.7 4.53-1.63 6.22.12.6.63.97 1.4 1.12 2.2.28-1.36-.08-2.83-1.12-3.9z" opacity=".905" color="#000" overflow="visible" enable-background="accumulate"/><path fill="#fff" d="M24.02 12.3c-1.2-.77-2.8-.44-3.57.75-.48.74-.53 1.65-.2 2.4-.02-.5.13-.98.42-1.43.78-1.18 2.38-1.52 3.57-.74.43.28.74.68.93 1.12-.02-.82-.42-1.6-1.15-2.1z" opacity=".905" color="#000" overflow="visible" enable-background="accumulate"/><path fill="#fff" d="M29.75 15.1c-.26-1.4-1.6-2.33-3-2.06-.88.16-1.57.75-1.9 1.5.36-.34.82-.57 1.34-.67 1.4-.26 2.74.66 3 2.06.1.5.02 1-.16 1.44.57-.58.87-1.42.7-2.28z" opacity=".905" color="#000" overflow="visible" enable-background="accumulate"/><path fill="#eeeeec" d="M24.33 27.53c-1.27-1.22-3.3-1.17-4.5.1-.77.8-1.03 1.9-.82 2.9.12-.62.4-1.18.87-1.66 1.22-1.28 3.24-1.32 4.5-.1.48.43.76.98.9 1.56.15-1-.15-2.05-.94-2.8z" opacity=".905" color="#000" overflow="visible" enable-background="accumulate"/><path fill="#910000" fill-opacity=".593" d="M26.77 42.5c-.27-.06-.36.43-.6.56-.25.14-.8-.05-.82.23 0 .36.76.15 1.06.37.24.16.26.68.54.66.3-.02.24-.56.46-.76.26-.23 1-.1.94-.45-.08-.45-1 .14-1.36-.13-.14-.12-.03-.47-.2-.5z"/><path fill="#910000" fill-opacity=".593" d="M41.14 42.97c-.2.2.2.53.2.8 0 .3-.45.68-.2.83.3.2.5-.58.84-.74.26-.12.72.12.84-.14s-.37-.48-.44-.76c-.08-.34.4-.93.07-1.05-.43-.14-.37.95-.78 1.13-.17.08-.42-.2-.53-.06z"/><path fill="#910000" fill-opacity=".593" d="M24.92 41.73c-.27-.06-.37.43-.6.56-.25.13-.8-.06-.82.22-.02.38.75.16 1.06.38.23.16.24.68.53.66.28-.02.22-.56.44-.75.26-.23 1-.1.95-.45-.1-.45-1 .14-1.38-.13-.14-.1-.03-.46-.2-.5z"/><path fill="#910000" fill-opacity=".905" d="M37.03 45.02c-.28-.05-.37.44-.6.57-.26.13-.8-.06-.82.22 0 .37.76.16 1.07.38.23.16.24.68.53.66.3-.02.23-.56.45-.76.26-.23 1-.1.94-.45-.08-.45-1 .14-1.37-.13-.14-.1-.03-.46-.2-.5z"/><path fill="#910000" fill-opacity=".593" d="M30.1 42.46c-.26-.06-.35.43-.6.56-.24.14-.8-.05-.8.23-.02.38.75.16 1.05.38.23.16.25.68.53.66.3-.03.24-.57.46-.76.26-.24 1-.1.94-.46-.08-.45-1 .14-1.36-.13-.14-.1-.03-.46-.2-.5z"/><path fill="#910000" fill-opacity=".905" d="M34.54 43.12c-.27-.06-.37.43-.6.57-.25.12-.8-.07-.82.2 0 .4.75.17 1.06.4.23.16.24.67.53.65.3-.02.24-.56.46-.75.26-.24 1-.1.95-.46-.07-.45-1 .14-1.36-.13-.14-.1-.03-.44-.2-.48z"/><path fill="#910000" fill-opacity=".905" d="M27.54 43.4c-.27-.06-.36.43-.6.56-.25.14-.8-.05-.82.23 0 .36.76.15 1.06.37.23.16.25.68.53.66.3-.02.25-.56.46-.76.26-.23 1-.1.95-.45-.07-.45-.98.14-1.35-.13-.15-.12-.04-.47-.2-.5z"/><path fill="#910000" fill-opacity=".905" d="M24.6 44.38c-.26-.06-.35.43-.6.57-.24.14-.8-.06-.8.22-.02.38.75.17 1.05.38.23.17.25.68.53.66.3 0 .24-.54.46-.74.26-.24 1-.1.94-.46-.08-.44-1 .14-1.36-.13-.14-.1-.03-.45-.2-.5z"/><path fill="#910000" fill-opacity=".474" d="M36.9 43.17c-.06.28.44.35.58.58.15.24 0 .8.27.8.38 0 .12-.76.33-1.08.15-.23.66-.28.63-.56-.02-.28-.56-.2-.77-.4-.24-.25-.15-1-.5-.93-.44.1.2 1-.06 1.37-.1.15-.45.06-.48.23z"/><path fill="#910000" fill-opacity=".905" d="M43.7 44.14c-.27-.05-.36.44-.6.57-.25.15-.8-.04-.8.24-.03.37.74.16 1.05.38.23.16.24.68.52.66.3-.02.24-.56.46-.76.26-.23 1-.1.94-.45-.08-.45-1 .14-1.36-.13-.13-.1-.02-.46-.2-.5z"/><path fill="#910000" fill-opacity=".905" d="M32.43 44.8c-.27-.05-.36.44-.6.58-.25.14-.8-.06-.82.22 0 .38.77.16 1.07.38.23.17.25.68.53.66.3-.02.24-.55.46-.75.25-.25 1-.12.94-.47-.08-.45-1 .14-1.36-.13-.14-.1-.03-.45-.2-.5z"/><path fill="#910000" fill-opacity=".905" d="M21.6 43.3c-.27.1-.08.55-.2.8-.13.24-.7.4-.56.63.2.32.72-.28 1.1-.27.27.02.57.44.8.27.23-.18-.1-.6-.04-.88.1-.34.8-.65.55-.9-.32-.33-.76.66-1.22.63-.17 0-.27-.36-.44-.3z"/><path fill="#910000" fill-opacity=".593" d="M35.4 42.77c-.26-.06-.35.43-.6.57-.24.14-.8-.06-.8.23-.02.37.75.16 1.05.37.23.17.25.68.53.67.3 0 .24-.55.46-.75.25-.24 1-.1.94-.45-.08-.45-1 .13-1.36-.14-.14-.1-.03-.45-.2-.5z"/><path fill="#910000" fill-opacity=".905" d="M24.1 42.52c-.16-.23-.56.07-.83 0-.27-.05-.56-.57-.75-.37-.27.27.45.63.53 1 .06.27-.28.66-.06.84.23.17.54-.27.84-.27.35 0 .82.6 1 .3.25-.38-.82-.56-.92-1-.03-.18.28-.37.18-.5z"/><path fill="#910000" fill-opacity=".905" d="M25.76 43.8c-.27.07-.13.55-.3.78-.15.23-.73.3-.62.56.15.34.75-.2 1.12-.13.28.06.52.5.77.37.25-.14-.04-.6.07-.88.13-.33.85-.55.65-.83-.27-.37-.84.56-1.28.48-.18-.03-.24-.4-.4-.35z"/><path fill="#910000" fill-opacity=".593" d="M31.94 43.82c-.25.1-.05.56-.16.82-.12.25-.7.42-.53.65.2.3.7-.32 1.08-.32.28 0 .6.4.82.23.22-.17-.14-.58-.08-.87.08-.34.76-.67.5-.92-.32-.3-.72.7-1.18.7-.18 0-.3-.35-.46-.28z"/><path fill="#910000" fill-opacity=".905" d="M39.63 44.9c-.26.12-.05.57-.17.82-.1.26-.68.42-.52.66.2.3.7-.3 1.08-.3.28 0 .6.4.8.22.24-.2-.12-.6-.06-.88.07-.34.75-.68.5-.92-.32-.32-.72.7-1.18.68-.18 0-.3-.34-.45-.27z"/><path fill="#910000" fill-opacity=".905" d="M29.85 44.18c-.25.1-.04.56-.16.8-.13.27-.7.44-.54.67.2.3.7-.3 1.08-.3.3 0 .6.4.82.22.23-.2-.13-.6-.07-.88.06-.35.74-.7.5-.93-.33-.32-.74.7-1.2.7-.17-.02-.28-.36-.45-.3z"/><path fill="#910000" fill-opacity=".905" d="M33.8 44.34c-.26.1-.06.56-.17.8-.12.26-.7.43-.53.67.2.32.7-.3 1.08-.3.28 0 .6.4.82.23.22-.2-.14-.6-.08-.88.08-.34.76-.68.5-.92-.32-.32-.72.7-1.18.68-.17 0-.3-.34-.45-.26z"/><path fill="#910000" fill-opacity=".593" d="M27.1 43.06c0 .28.5.3.66.5.17.24.07.82.35.78.38-.04.05-.77.22-1.1.13-.25.64-.35.57-.62-.07-.3-.6-.15-.82-.34-.27-.22-.26-.98-.6-.86-.42.14.3.96.08 1.36-.08.16-.44.1-.45.28z"/><path fill="#910000" fill-opacity=".905" d="M38.04 43.84c-.27-.06-.36.43-.6.57-.25.14-.8-.05-.8.23-.03.38.74.16 1.04.38.23.18.25.7.53.67.3-.02.25-.56.47-.75.26-.24 1-.1.94-.46-.07-.45-.98.14-1.35-.13-.14-.1-.03-.45-.2-.5z"/><path fill="#910000" fill-opacity=".905" d="M22.3 44.57c-.28-.06-.37.43-.6.56-.26.14-.8-.05-.82.23-.02.37.75.16 1.05.38.23.16.25.68.53.66.3-.02.24-.56.46-.76.26-.23 1-.1.94-.45-.08-.46-1 .13-1.36-.14-.14-.1-.03-.46-.2-.5z"/><path fill="#fce94f" d="M32.14 38.74c-.92-.02-1.66.82-2.56 1-.8.18-1.65-.1-2.43.1-.72.2-2.1.66-2 1 .14.42 1.34 1.14 2.17 1.32.9.2 1.84-.33 2.78-.32 1.32.02 2.6.65 3.93.54.94-.07 2.4-.38 3.3-.6 1.07-.23 2.5-.26 2.63-.72.14-.5-1.75-1.36-2.8-1.58-.9-.2-1.86.42-2.78.27-.8-.13-1.42-1-2.24-1z"/><path fill="url(#g)" d="M-2.12 20.32a3.7 3.7 0 1 1-7.38 0 3.7 3.7 0 1 1 7.38 0z" transform="translate(22.93 12.475)" opacity=".543" color="#000" overflow="visible" enable-background="accumulate"/><path fill="url(#h)" d="M-2.12 20.32a3.7 3.7 0 1 1-7.38 0 3.7 3.7 0 1 1 7.38 0z" transform="matrix(.708 .295 -.295 .708 32.484 21.737)" opacity=".543" color="#000" overflow="visible" enable-background="accumulate"/><path fill="url(#i)" d="M-2.12 20.32a3.7 3.7 0 1 1-7.38 0 3.7 3.7 0 1 1 7.38 0z" transform="translate(29.042 7.879)" opacity=".543" color="#000" overflow="visible" enable-background="accumulate"/><path fill="url(#j)" d="M-2.12 20.32a3.7 3.7 0 1 1-7.38 0 3.7 3.7 0 1 1 7.38 0z" transform="matrix(.857 .514 -.514 .857 42.761 7.905)" opacity=".543" color="#000" overflow="visible" enable-background="accumulate"/><path fill="url(#k)" d="M-2.12 20.32a3.7 3.7 0 1 1-7.38 0 3.7 3.7 0 1 1 7.38 0z" transform="translate(21.92 5.253)" opacity=".905" color="#000" overflow="visible" enable-background="accumulate"/><path fill="url(#l)" d="M-2.12 20.32a3.7 3.7 0 1 1-7.38 0 3.7 3.7 0 1 1 7.38 0z" transform="translate(24.244 9.293)" opacity=".543" color="#000" overflow="visible" enable-background="accumulate"/><path fill="url(#m)" d="M-2.12 20.32a3.7 3.7 0 1 1-7.38 0 3.7 3.7 0 1 1 7.38 0z" transform="matrix(.938 .347 -.347 .938 34.219 4.188)" opacity=".543" color="#000" overflow="visible" enable-background="accumulate"/><path fill="url(#n)" d="M-2.12 20.32a3.7 3.7 0 1 1-7.38 0 3.7 3.7 0 1 1 7.38 0z" transform="matrix(.548 0 0 .548 20.507 26.965)" opacity=".543" color="#000" overflow="visible" enable-background="accumulate"/></g></svg>