<svg xmlns="http://www.w3.org/2000/svg" width="48" height="48" version="1" viewBox="0 0 612 792" enable-background="new 0 0 612 792"><path stroke="#485133" stroke-width="16.98" stroke-miterlimit="10" d="M266.36 683.5l-21.43-59.07L76.55 520.6l-16.4 30.25-93.9-59.86-47.44-96.02L92.87 24.7 654.16 86l40.87 112.23-68.1 137.66-52.1-17.55-101.13 217.9 27.9 62.54-91.2 178.65-144.04-93.94z" stroke-linecap="round" stroke-linejoin="round"/><path fill="#e5eee5" d="M101.28 33.88l549 60L372.2 659.95l-440.08-266.2L101.28 33.87z"/><path fill="#90987f" d="M650.28 93.87l37.27 102.4L627.7 318.4l-38.7-46.1-126.87 265.52 27.96 62.52-80.62 161.98-37.28-102.38 278.08-566.1z"/><path fill="#b7bdab" d="M-67.88 393.75l44.08 89.2 78.5 50.5-20.44-52.67 221.47 136 21.5 59.28 132.25 86.28-37.28-102.38-440.08-266.2z"/><path fill="none" stroke="#c6d5c7" stroke-width="6.902" stroke-miterlimit="10" d="M372.2 659.96L649.57 96.8" stroke-linecap="round" stroke-linejoin="round"/><path fill="none" stroke="#c6d5c7" stroke-width="6.9" stroke-miterlimit="10" d="M408.02 757.96l-35.82-98L-64.64 395.2" stroke-linecap="round" stroke-linejoin="round"/><path fill="none" stroke="#000" stroke-width="16.828" stroke-miterlimit="10" d="M130.76 88.03L2.6 366.63" stroke-linecap="round" stroke-linejoin="round"/><path fill="none" stroke="#000" stroke-width="16.828" stroke-miterlimit="10" d="M244.6 107.35L95.35 415.52" stroke-linecap="round" stroke-linejoin="round"/><path fill="none" stroke="#000" stroke-width="16.828" stroke-miterlimit="10" d="M529.17 147.95l-197.8 387.68" stroke-linecap="round" stroke-linejoin="round"/><path fill="none" stroke="#000" stroke-width="16.828" stroke-miterlimit="10" d="M379.3 122.9l-172.53 353" stroke-linecap="round" stroke-linejoin="round"/><path fill="#201c5a" d="M628.3 318.83l-39.25-46.34-14.55 28.9 53.8 17.43z"/><path fill="#201c5a" d="M54.78 533.57l16-30.04-36.55-22.8 20.55 52.84z"/><path fill="none" stroke="#000" stroke-opacity=".314" stroke-width="16.828" stroke-miterlimit="10" d="M580.6 145.2c10.76-36.2-66.64-61.44-88.16-25.24l-204.42 411.3c-19.36 37.3 51.57 80.1 84.92 35.1L580.6 145.2z"/><path fill="none" stroke="#000" stroke-opacity=".314" stroke-width="16.828" stroke-miterlimit="10" d="M422.9 124.76c9.55-32.9-60.8-55.4-80.17-22.43l-177.66 362.8c-17.4 33.95 47.2 72.4 77.24 31.38l180.6-371.74z"/><path fill="none" stroke="#000" stroke-opacity=".314" stroke-width="16.828" stroke-miterlimit="10" d="M287.38 104.16c8.45-29.23-54.02-49.1-71.14-19.8L59.82 407.9c-15.38 30.1 42.03 64.18 68.62 27.72l158.94-331.46z"/><path fill="none" stroke="#000" stroke-opacity=".314" stroke-width="16.828" stroke-miterlimit="10" d="M168.96 85.42c7.17-26.35-49.17-43.2-64.06-16.67L-30.54 360.78c-13.34 27.26 38.6 56.88 61.9 23.82l137.6-299.18z"/><path fill="#b3595e" d="M475.4 282.44l-66.57-20.6c-4.52-18.34 12.85-51.64 25.1-53.68l72.3 17.97c-15.57 3.45-32.73 39.6-30.82 56.3z"/><path fill="#8d1534" d="M506.23 226.1c-12.3 1.8-33.27 33.24-30.96 56.45l14.08 28.17 28.87-55.4-12-29.2z"/><path fill="#9f1b3c" d="M475.4 282.44l-66.57-20.6L424.96 286l64.4 24.72-13.95-28.28z"/><path fill="#dbf0ef" d="M483.3 249.3l-69.67-20.4c.8-1.98 2.86-5.7 3.95-6.8l70.05 20.26c-1.07 1.12-3.23 4.47-4.33 6.95z"/><path fill="#b3595e" d="M356.5 190.84l-57.22-17.74c-3.88-15.73 11.06-44.37 21.6-46.13l62.15 15.44c-13.42 3-28.2 34.07-26.53 48.44z"/><path fill="#8d1534" d="M383.02 142.4c-10.58 1.55-28.64 28.58-26.63 48.53l12.57 24 24.35-47.42-10.3-25.1z"/><path fill="#9f1b3c" d="M356.5 190.84l-57.23-17.74 13.85 20.8 55.83 21.05-12.45-24.1z"/><path fill="#dbf0ef" d="M363.3 162.37l-59.94-17.56c.7-1.68 2.5-4.86 3.45-5.82l60.2 17.4c-.9.97-2.77 3.84-3.7 6z"/><path fill="#b3595e" d="M133.5 357.4l-56.74-17.55c-3.85-15.62 10.96-44.02 21.43-45.76l61.62 15.3c-13.3 2.96-27.93 33.78-26.3 48z"/><path fill="#8d1534" d="M159.82 309.38c-10.5 1.5-28.4 28.34-26.42 48.12l12.3 24.17 24.33-47.4-10.2-24.9z"/><path fill="#9f1b3c" d="M133.5 357.4l-56.74-17.55 13.75 20.6 55.2 21.24-12.2-24.3z"/><path fill="#dbf0ef" d="M140.25 329.18l-59.4-17.42c.7-1.68 2.47-4.82 3.4-5.78l59.7 17.27c-.9.95-2.76 3.8-3.7 5.93z"/><path fill="#b3595e" d="M76.62 224.33L27.12 209c-3.33-13.6 9.58-38.36 18.7-39.92l53.75 13.36c-11.6 2.6-24.36 29.5-22.95 41.9z"/><path fill="#8d1534" d="M99.57 182.46c-9.16 1.34-24.76 24.72-23.05 41.96l11.87 21.24 20.1-41.48-8.93-21.72z"/><path fill="#9f1b3c" d="M76.62 224.33L27.12 209l12.03 18 49.24 18.66-11.78-21.33z"/><path fill="#dbf0ef" d="M82.52 199.7l-51.85-15.17c.63-1.45 2.18-4.2 3-5.06l52.1 15.1c-.83.8-2.47 3.3-3.25 5.14z"/></svg>