<svg xmlns="http://www.w3.org/2000/svg" width="48" height="48" xmlns:xlink="http://www.w3.org/1999/xlink"><defs><linearGradient id="O" x1="23.763" x2="23.835" y1="11.109" y2="15.153" xlink:href="#a" gradientUnits="userSpaceOnUse"/><linearGradient id="N" x1="21.244" x2="21.415" y1="11.805" y2="18.075" xlink:href="#b" gradientUnits="userSpaceOnUse"/><linearGradient id="M" x1="26.282" x2="26.188" y1="12.998" y2="19.136" xlink:href="#c" gradientUnits="userSpaceOnUse"/><linearGradient id="L" x1="23.763" x2="23.835" y1="11.109" y2="15.153" xlink:href="#a" gradientUnits="userSpaceOnUse"/><linearGradient id="K" x1="21.244" x2="21.415" y1="11.805" y2="18.075" xlink:href="#b" gradientUnits="userSpaceOnUse"/><linearGradient id="J" x1="26.282" x2="26.188" y1="12.998" y2="19.136" xlink:href="#c" gradientUnits="userSpaceOnUse"/><linearGradient id="I" x1="23.763" x2="23.835" y1="11.109" y2="15.153" xlink:href="#a" gradientUnits="userSpaceOnUse"/><linearGradient id="H" x1="21.244" x2="21.415" y1="11.805" y2="18.075" xlink:href="#b" gradientUnits="userSpaceOnUse"/><linearGradient id="G" x1="26.282" x2="26.188" y1="12.998" y2="19.136" xlink:href="#c" gradientUnits="userSpaceOnUse"/><linearGradient id="a"><stop offset="0" stop-color="#eeeeec"/><stop offset="1" stop-color="#eeeeec" stop-opacity="0"/></linearGradient><linearGradient id="F" x1="23.763" x2="23.835" y1="11.109" y2="15.153" xlink:href="#a" gradientUnits="userSpaceOnUse"/><linearGradient id="b"><stop offset="0" stop-color="#8e0000"/><stop offset="1" stop-color="#8e0000" stop-opacity="0"/></linearGradient><linearGradient id="E" x1="21.244" x2="21.415" y1="11.805" y2="18.075" xlink:href="#b" gradientUnits="userSpaceOnUse"/><linearGradient id="c"><stop offset="0" stop-color="#ef2929"/><stop offset="1" stop-color="#ef2929" stop-opacity="0"/></linearGradient><linearGradient id="D" x1="26.282" x2="26.188" y1="12.998" y2="19.136" xlink:href="#c" gradientUnits="userSpaceOnUse"/><linearGradient id="d"><stop offset="0" stop-color="#74726e"/><stop offset="1" stop-color="#5d5b58" stop-opacity="0"/></linearGradient><linearGradient id="C" x1="29.124" x2="27.356" y1="38.897" y2="34.879" xlink:href="#d" gradientUnits="userSpaceOnUse" gradientTransform="matrix(.959 -.417 .417 .958 -5.717 8.702)"/><linearGradient id="e"><stop offset="0" stop-color="#5d5b58"/><stop offset="1" stop-color="#5d5b58" stop-opacity="0"/></linearGradient><linearGradient id="B" x1="29.124" x2="27.356" y1="38.897" y2="34.879" xlink:href="#e" gradientUnits="userSpaceOnUse" gradientTransform="matrix(1.046 0 0 1.045 -1.451 .37)"/><linearGradient id="A" x1="271.022" x2="285.029" y1="-441.052" y2="-431.97" xlink:href="#f" gradientUnits="userSpaceOnUse" gradientTransform="matrix(1.518 0 0 1.344 -402.107 600.685)"/><linearGradient id="z" x1="286.415" x2="288.375" y1="-435.784" y2="-437.888" xlink:href="#g" gradientUnits="userSpaceOnUse"/><linearGradient id="y" x1="286.415" x2="290.078" y1="-435.784" y2="-439.289" xlink:href="#g" gradientUnits="userSpaceOnUse"/><linearGradient id="x" x1="286.295" x2="289.395" y1="-435.628" y2="-438.19" xlink:href="#h" gradientUnits="userSpaceOnUse"/><linearGradient id="f"><stop offset="0" stop-color="#fff"/><stop offset="1" stop-color="#fff" stop-opacity="0"/></linearGradient><linearGradient id="w" x1="276.614" x2="283.463" y1="-431" y2="-438.722" xlink:href="#f" gradientUnits="userSpaceOnUse"/><linearGradient id="v" x1="286.014" x2="288.375" y1="-435.546" y2="-438.971" xlink:href="#g" gradientUnits="userSpaceOnUse"/><linearGradient id="u" x1="287.147" x2="289.473" y1="-434.809" y2="-437.594" xlink:href="#i" gradientUnits="userSpaceOnUse"/><linearGradient id="t" x1="286.246" x2="290.121" y1="-434.732" y2="-439.69" xlink:href="#j" gradientUnits="userSpaceOnUse"/><linearGradient id="s" x1="284.802" x2="288.9" y1="-441.233" y2="-436.831" xlink:href="#g" gradientUnits="userSpaceOnUse"/><linearGradient id="h"><stop offset="0" stop-color="#fff"/><stop offset="1" stop-color="#fff" stop-opacity="0"/></linearGradient><linearGradient id="r" x1="286.666" x2="289.766" y1="-439.484" y2="-436.707" xlink:href="#h" gradientUnits="userSpaceOnUse"/><linearGradient id="k"><stop offset="0" stop-color="#fff"/><stop offset="1" stop-color="#fff" stop-opacity="0"/></linearGradient><linearGradient id="q" x1="275.942" x2="279.975" y1="-437.105" y2="-431.918" xlink:href="#k" gradientUnits="userSpaceOnUse"/><linearGradient id="g"><stop offset="0" stop-color="#fff"/><stop offset="1" stop-color="#fff" stop-opacity="0"/></linearGradient><linearGradient id="p" x1="285.941" x2="289.391" y1="-439.939" y2="-436.443" xlink:href="#g" gradientUnits="userSpaceOnUse"/><linearGradient id="i"><stop offset="0" stop-color="#fff"/><stop offset="1" stop-color="#fff" stop-opacity="0"/></linearGradient><linearGradient id="o" x1="286.512" x2="289.854" y1="-441.291" y2="-436.145" xlink:href="#i" gradientUnits="userSpaceOnUse"/><linearGradient id="j"><stop offset="0" stop-color="#fff"/><stop offset="1" stop-color="#fff" stop-opacity="0"/></linearGradient><linearGradient id="n" x1="287.517" x2="289.676" y1="-439.753" y2="-436.322" xlink:href="#j" gradientUnits="userSpaceOnUse"/><linearGradient id="l"><stop offset="0" stop-color="#888a85"/><stop offset="1" stop-color="#51534f"/></linearGradient><linearGradient id="m" x1="20.73" x2="23.296" y1="29.815" y2="45.056" xlink:href="#l" gradientUnits="userSpaceOnUse" gradientTransform="matrix(1.034 0 0 1.034 -1.174 .632)"/></defs><g><g><path fill="#c4c5c2" stroke="url(#m)" stroke-width="1.5" stroke-miterlimit="2" d="M44.03 24.28c.57.9 1.65 3.02 1.65 4.12 0 2.35-1.53 4.32-3.7 5.4.3.7.55 1.45.55 2.25C42.53 39.9 39 43 34.66 43c-1.32 0-2.5-.35-3.6-.86-.95 2.9-3.85 5.04-7.43 5.04-3.57 0-6.47-2.15-7.43-5.04-1.1.5-2.27.87-3.6.87-4.34 0-7.87-3.1-7.87-6.95 0-.8.26-1.54.54-2.26-2.16-1.08-3.7-3.05-3.7-5.4 0-1.24.43-4.18 1.06-5.23-.68-1-1.03-2.07-1.03-3.2 0-2.36 1.53-4.33 3.7-5.4-.3-.72-.55-1.46-.55-2.26 0-3.83 3.53-6.95 7.88-6.95 1.3 0 2.5.36 3.6.87.95-2.9 3.84-5.04 7.42-5.04s6.47 2.15 7.43 5.04c1.1-.5 2.28-.87 3.6-.87 4.34 0 7.87 3.12 7.87 6.96 0 .8-.25 1.55-.54 2.27 2.17 1.07 3.7 3.04 3.7 5.4 0 1.06-1.13 3.43-1.67 4.3z" transform="translate(.067 .1)"/><g><path fill="#c4c5c2" d="M29.38 8.13a5.57 4.92 0 1 1-11.15 0 5.57 4.92 0 1 1 11.15 0z"/><path fill="url(#n)" d="M291.7-437.6a3.3 3.3 0 1 1-6.64 0 3.3 3.3 0 1 1 6.63 0z" transform="matrix(1.684 0 0 1.486 -461.534 658.396)"/></g><path fill="#c4c5c2" d="M8.6 11.62h31.86v12.65H8.6z"/><path fill="#c4c5c2" d="M13.28 19.97a4.78 4.22 0 1 1-9.55 0 4.78 4.22 0 1 1 9.55 0z"/><g><path fill="#c4c5c2" d="M40.53 12.35a5.57 4.92 0 1 1-11.15 0 5.57 4.92 0 1 1 11.15 0z"/><path fill="url(#o)" d="M291.7-437.6a3.3 3.3 0 1 1-6.64 0 3.3 3.3 0 1 1 6.63 0z" transform="matrix(1.684 0 0 1.486 -450.383 662.614)"/></g><g><path fill="#c4c5c2" d="M18.22 12.35a5.57 4.92 0 1 1-11.15 0 5.57 4.92 0 1 1 11.15 0z"/><path fill="url(#p)" d="M291.7-437.6a3.3 3.3 0 1 1-6.64 0 3.3 3.3 0 1 1 6.63 0z" transform="matrix(1.684 0 0 1.486 -472.685 662.614)"/></g><g><path fill="#c4c5c2" d="M22.2 7.66c-5.7 0-10.3 4.1-10.3 9.13 0 3.33 2.15 6.1 5.18 7.68h10.3c3.03-1.6 5.18-4.4 5.18-7.73 0-5.03-4.65-9.1-10.35-9.1z"/><path fill="url(#q)" d="M280.5-441c-3.6 0-6.5 2.9-6.5 6.5 0 2.38 1.34 4.37 3.25 5.5h6.5c1.9-1.13 3.25-3.12 3.25-5.5 0-3.6-2.9-6.5-6.5-6.5z" transform="matrix(1.593 0 0 1.406 -424.579 627.657)"/></g><path fill="url(#r)" d="M291.7-437.6a3.3 3.3 0 1 1-6.64 0 3.3 3.3 0 1 1 6.63 0z" transform="matrix(1.442 0 0 1.274 -407.331 577.461)"/><g><path fill="#c4c5c2" d="M35.64 18.8a6.37 5.62 0 1 1-12.74 0 6.37 5.62 0 1 1 12.74 0z"/><path fill="url(#s)" d="M291.7-437.6a3.3 3.3 0 1 1-6.64 0 3.3 3.3 0 1 1 6.63 0z" transform="matrix(1.924 0 0 1.699 -525.27 761.847)"/></g><g><path fill="#c4c5c2" d="M29.36 40.52c0-3.8-4.65-6.16-8.37-4.27-1.73.88-2.8 2.5-2.8 4.27 0 3.8 4.65 6.15 8.37 4.26 1.72-.88 2.8-2.5 2.8-4.26z"/><path fill="url(#t)" d="M291.7-437.6a3.3 3.3 0 1 1-6.64 0 3.3 3.3 0 1 1 6.63 0z" transform="matrix(1.684 0 0 -1.486 -461.553 -609.747)"/></g><path fill="#c4c5c2" d="M8.6 37.04h31.84V24.38H8.6z"/><path fill="#c4c5c2" d="M13.26 28.68c0-3.25-3.98-5.28-7.16-3.65-1.48.75-2.4 2.15-2.4 3.65 0 3.25 4 5.28 7.18 3.66 1.47-.76 2.38-2.15 2.38-3.66z"/><g><path fill="#c4c5c2" d="M40.5 36.3c0-3.8-4.64-6.16-8.36-4.26-1.72.88-2.78 2.5-2.78 4.26 0 3.8 4.64 6.16 8.36 4.26 1.72-.88 2.8-2.5 2.8-4.26z"/><path fill="url(#u)" d="M291.7-437.6a3.3 3.3 0 1 1-6.64 0 3.3 3.3 0 1 1 6.63 0z" transform="matrix(1.684 0 0 -1.486 -450.402 -613.965)"/></g><g><path fill="#c4c5c2" d="M18.2 36.3c0-3.8-4.64-6.16-8.36-4.26-1.72.88-2.78 2.5-2.78 4.26 0 3.8 4.64 6.16 8.36 4.26 1.72-.88 2.8-2.5 2.8-4.26z"/><path fill="url(#v)" d="M291.7-437.6a3.3 3.3 0 1 1-6.64 0 3.3 3.3 0 1 1 6.63 0z" transform="matrix(1.684 0 0 -1.486 -472.704 -613.965)"/></g><g><path fill="#c4c5c2" d="M22.2 41c-5.7 0-10.32-4.1-10.32-9.14 0-3.34 2.15-6.1 5.18-7.7h10.3c3.03 1.6 5.18 4.4 5.18 7.74 0 5.03-4.65 9.1-10.35 9.1z"/><path fill="url(#w)" d="M280.5-441c-3.6 0-6.5 2.9-6.5 6.5 0 2.38 1.34 4.37 3.25 5.5h6.5c1.9-1.13 3.25-3.12 3.25-5.5 0-3.6-2.9-6.5-6.5-6.5z" transform="matrix(1.593 0 0 -1.406 -424.598 -579.008)"/></g><path fill="url(#x)" d="M291.7-437.6a3.3 3.3 0 1 1-6.64 0 3.3 3.3 0 1 1 6.63 0z" transform="matrix(1.442 0 0 -1.274 -407.35 -528.812)"/><g><path fill="#c4c5c2" d="M31.35 27c0-4.33-5.3-7.03-9.56-4.87-1.98 1-3.2 2.86-3.2 4.87 0 4.33 5.32 7.04 9.56 4.88 1.97-1 3.2-2.87 3.2-4.88z"/><path fill="url(#y)" d="M291.7-437.6a3.3 3.3 0 1 1-6.64 0 3.3 3.3 0 1 1 6.63 0z" transform="matrix(1.924 0 0 -1.699 -529.566 -716.031)"/></g><g><path fill="#c4c5c2" d="M41.4 23.9c0-4.32-5.3-7.03-9.54-4.86-1.97 1-3.2 2.86-3.2 4.87 0 4.34 5.32 7.04 9.57 4.88 1.97-1 3.18-2.86 3.18-4.87z"/><path fill="url(#z)" d="M291.7-437.6a3.3 3.3 0 1 1-6.64 0 3.3 3.3 0 1 1 6.63 0z" transform="matrix(1.924 0 0 -1.699 -519.502 -719.126)"/></g><path fill="url(#A)" stroke="#fff" stroke-opacity=".502" stroke-miterlimit="2" d="M4.3 23.4c-1.03 1.04-1.23 3.7-1.23 5.2 0 2 1.7 3.75 3.7 4.73-.27.65-.67 1.53-.67 2.26 0 3.5 2.9 6.2 7 6.2 1.23 0 2.77-.76 3.8-1.22 1 3.37 3.23 5.44 6.56 5.44 3.32 0 5.85-2.16 6.84-5.4 1 .45 2.9 1.2 4.13 1.2 4.04 0 6.62-2.73 6.62-6.23 0-.74-.44-1.77-.7-2.43 2-.98 3.7-2.42 3.7-4.56 0-1.4-.9-2.58-1.84-4.24.93-1.67 1.86-3.1 1.86-4.58 0-2.14-1.68-3.6-3.7-4.57.27-.64.7-1.67.7-2.4 0-3.5-3.2-6.14-7.24-6.14-1.22 0-2.5.66-3.5 1.12-1-3.26-3.42-5.14-6.74-5.14-3.33 0-5.65 1.8-6.67 5.17-1-.45-2.34-1.1-3.57-1.1-4.12 0-7.2 2.6-7.2 6.1 0 .73.4 1.8.66 2.44-2.02.98-3.7 2.55-3.7 4.54 0 1.47.23 2.62 1.2 3.63z" transform="translate(.067 .1)"/><path fill="#888a85" fill-rule="evenodd" d="M43.1 13.44c0 3.7-5.07 5.1-5.07 5.1s3.65-2.23 3.63-5.08c0 0 1.45-.02 1.45-.02z"/><path fill="url(#B)" fill-rule="evenodd" d="M31.8 43.25c-4-.65-4.65-6.43-4.65-6.43s1.78 4.37 4.9 4.85c0 0-.25 1.58-.25 1.58z" transform="translate(.067 .1)"/><path fill="url(#C)" fill-rule="evenodd" d="M41.9 34.74c-3.94 1-6.83-4.03-6.83-4.03s3.38 3.3 6.42 2.5c0 0 .4 1.54.4 1.54z" transform="translate(.067 .1)"/></g><g><path fill="url(#D)" stroke="url(#E)" d="M23.73 2.66l-5.83 8.08h3.45V24.4H26V10.74h3.7l-5.97-8.08z" transform="translate(-.198 -2.153)"/><path fill="none" stroke="url(#F)" d="M22.2 15.85V9.88h-2.45l3.98-5.5 4.05 5.44-2.8.06.08 5.77" transform="translate(-.198 -2.153)"/></g><g><path fill="url(#G)" stroke="url(#H)" d="M23.73 2.66l-5.83 8.08h3.45V24.4H26V10.74h3.7l-5.97-8.08z" transform="matrix(0 1 -1 0 50.59 .822)"/><path fill="none" stroke="url(#I)" d="M22.2 15.85V9.88h-2.45l3.98-5.5 4.05 5.44-2.8.06.08 5.77" transform="matrix(0 1 -1 0 50.59 .822)"/></g><g><path fill="url(#J)" stroke="url(#K)" d="M23.73 2.66l-5.83 8.08h3.45V24.4H26V10.74h3.7l-5.97-8.08z" transform="matrix(-1 0 0 -1 47.27 49.552)"/><path fill="none" stroke="url(#L)" d="M22.2 15.85V9.88h-2.45l3.98-5.5 4.05 5.44-2.8.06.08 5.77" transform="matrix(-1 0 0 -1 47.27 49.552)"/></g><g><path fill="url(#M)" stroke="url(#N)" d="M23.73 2.66l-5.83 8.08h3.45V24.4H26V10.74h3.7l-5.97-8.08z" transform="matrix(0 -1 1 0 -2.59 48.498)"/><path fill="none" stroke="url(#O)" d="M22.2 15.85V9.88h-2.45l3.98-5.5 4.05 5.44-2.8.06.08 5.77" transform="matrix(0 -1 1 0 -2.59 48.498)"/></g><path fill="#edd400" stroke="#c4a000" stroke-width="2" d="M30.3 24.63a6.76 6.76 0 1 1-13.53 0 6.76 6.76 0 1 1 13.53 0z" overflow="visible" enable-background="accumulate"/><path fill="none" stroke="#fce94f" stroke-width="1.52.615" d="M28.7 24.63a5.17 5.17 0 1 1-10.34 0 5.17 5.17 0 1 1 10.34 0z" overflow="visible" enable-background="accumulate"/></g></svg>