<svg xmlns="http://www.w3.org/2000/svg" width="48" height="48"><defs><radialGradient id="a" cx="24.264" cy="109.233" r="20.483" gradientUnits="userSpaceOnUse" gradientTransform="translate(-.629 -81.982)"><stop offset="0" stop-color="#F17912"/><stop offset=".103" stop-color="#F18218"/><stop offset=".27" stop-color="#F39A29"/><stop offset=".479" stop-color="#F5C043"/><stop offset=".676" stop-color="#F7EB61"/><stop offset="1" stop-color="#fff"/></radialGradient><radialGradient id="b" cx="23.747" cy="108.937" r="19.625" gradientUnits="userSpaceOnUse" gradientTransform="translate(-.629 -81.982)"><stop offset="0" stop-color="#F6E94E"/><stop offset=".064" stop-color="#F7DF47"/><stop offset=".588" stop-color="#FD9214"/><stop offset=".83" stop-color="#FF7400"/><stop offset=".864" stop-color="#FE7D06"/><stop offset=".92" stop-color="#FC9516"/><stop offset=".99" stop-color="#F9BB2F"/><stop offset="1" stop-color="#F9C133"/></radialGradient><radialGradient id="c" cx="471.034" cy="113.042" r="13.634" gradientTransform="matrix(-1 0 0 1 484.923 -81.982)" gradientUnits="userSpaceOnUse"><stop offset="0" stop-color="#fff"/><stop offset=".064" stop-color="#FEEED5"/><stop offset=".172" stop-color="#FCD395"/><stop offset=".262" stop-color="#FBBF66"/><stop offset=".331" stop-color="#FAB349"/><stop offset=".371" stop-color="#FAAF3E"/><stop offset=".691" stop-color="#F17912"/><stop offset="1" stop-color="#A65414"/></radialGradient><radialGradient id="d" cx="9.284" cy="110.004" r="22.748" gradientUnits="userSpaceOnUse"><stop offset="0" stop-color="#fff"/><stop offset=".064" stop-color="#FEEED5"/><stop offset=".172" stop-color="#FCD395"/><stop offset=".262" stop-color="#FBBF66"/><stop offset=".331" stop-color="#FAB349"/><stop offset=".371" stop-color="#FAAF3E"/><stop offset=".691" stop-color="#F17912"/><stop offset="1" stop-color="#B15A12"/></radialGradient><radialGradient id="e" cx="25.143" cy="110.699" r="11.469" gradientUnits="userSpaceOnUse" gradientTransform="translate(-.629 -81.982)"><stop offset="0" stop-color="#fff"/><stop offset=".368" stop-color="#FBF6B9"/><stop offset=".8" stop-color="#F8ED6C"/><stop offset="1" stop-color="#F6E94E"/></radialGradient><radialGradient id="f" cx="24.43" cy="110.838" r="7.595" gradientUnits="userSpaceOnUse" gradientTransform="translate(-.629 -81.982)"><stop offset="0" stop-color="#fff"/><stop offset=".368" stop-color="#FBF6B9"/><stop offset=".8" stop-color="#F8ED6C"/><stop offset="1" stop-color="#F6E94E"/></radialGradient><radialGradient id="g" cx="28.307" cy="109.263" r="17.505" gradientUnits="userSpaceOnUse"><stop offset="0" stop-color="#fff"/><stop offset=".368" stop-color="#FBF6B9"/><stop offset=".8" stop-color="#F8ED6C"/><stop offset="1" stop-color="#F6E94E"/></radialGradient><radialGradient id="h" cx="25.413" cy="109.111" r="26.053" gradientUnits="userSpaceOnUse"><stop offset="0" stop-color="#fff"/><stop offset=".368" stop-color="#FBF6B9"/><stop offset=".8" stop-color="#F8ED6C"/><stop offset="1" stop-color="#F6E94E"/></radialGradient><radialGradient id="i" cx="24.673" cy="108.844" r="29.004" gradientUnits="userSpaceOnUse"><stop offset="0" stop-color="#fff"/><stop offset=".368" stop-color="#FBF6B9"/><stop offset=".8" stop-color="#F8ED6C"/><stop offset="1" stop-color="#F6E94E"/></radialGradient><radialGradient id="j" cx="25.41" cy="109.119" r="26.048" gradientUnits="userSpaceOnUse"><stop offset="0" stop-color="#fff"/><stop offset=".368" stop-color="#FBF6B9"/><stop offset=".8" stop-color="#F8ED6C"/><stop offset="1" stop-color="#F6E94E"/></radialGradient><radialGradient id="k" cx="25.41" cy="109.112" r="26.072" gradientUnits="userSpaceOnUse"><stop offset="0" stop-color="#fff"/><stop offset=".368" stop-color="#FBF6B9"/><stop offset=".8" stop-color="#F8ED6C"/><stop offset="1" stop-color="#F6E94E"/></radialGradient><radialGradient id="l" cx="25.41" cy="109.113" r="26.061" gradientUnits="userSpaceOnUse"><stop offset="0" stop-color="#fff"/><stop offset=".368" stop-color="#FBF6B9"/><stop offset=".8" stop-color="#F8ED6C"/><stop offset="1" stop-color="#F6E94E"/></radialGradient><radialGradient id="n" cx="39.827" cy="123.439" r="5.507" gradientUnits="userSpaceOnUse"><stop offset="0" stop-color="#fff"/><stop offset=".064" stop-color="#FDEED5"/><stop offset=".172" stop-color="#FBD395"/><stop offset=".262" stop-color="#F9BF66"/><stop offset=".331" stop-color="#F7B349"/><stop offset=".371" stop-color="#F7AF3E"/><stop offset=".691" stop-color="#EF7916"/><stop offset="1" stop-color="#A65416"/></radialGradient><linearGradient id="m" x1="37.807" x2="40.397" y1="128.381" y2="126.362" gradientUnits="userSpaceOnUse"><stop offset=".006" stop-color="#F7AF3E"/><stop offset="1" stop-color="#994410"/></linearGradient><radialGradient id="p" cx="3043.88" cy="7217.28" r="3.309" gradientTransform="matrix(-.989 .151 -.151 -.989 4115.845 6772.22)" gradientUnits="userSpaceOnUse"><stop offset="0" stop-color="#fff"/><stop offset=".064" stop-color="#FDEED5"/><stop offset=".172" stop-color="#FBD395"/><stop offset=".262" stop-color="#F9BF66"/><stop offset=".331" stop-color="#F7B349"/><stop offset=".371" stop-color="#F7AF3E"/><stop offset=".691" stop-color="#EF7916"/><stop offset="1" stop-color="#A65416"/></radialGradient><linearGradient id="o" x1="3042.666" x2="3044.223" y1="7220.249" y2="7219.036" gradientUnits="userSpaceOnUse" gradientTransform="matrix(-.989 .151 -.151 -.989 4115.845 6772.22)"><stop offset=".006" stop-color="#F7AF3E"/><stop offset="1" stop-color="#994410"/></linearGradient><radialGradient id="r" cx="5361.921" cy="5016.79" r="3.308" gradientTransform="matrix(-.765 -.644 .644 -.765 906.786 7393.486)" gradientUnits="userSpaceOnUse"><stop offset="0" stop-color="#fff"/><stop offset=".064" stop-color="#FDEED5"/><stop offset=".172" stop-color="#FBD395"/><stop offset=".262" stop-color="#F9BF66"/><stop offset=".331" stop-color="#F7B349"/><stop offset=".371" stop-color="#F7AF3E"/><stop offset=".691" stop-color="#EF7916"/><stop offset="1" stop-color="#A65416"/></radialGradient><linearGradient id="q" x1="5360.706" x2="5362.262" y1="5019.758" y2="5018.545" gradientUnits="userSpaceOnUse" gradientTransform="matrix(-.765 -.644 .644 -.765 906.786 7393.486)"><stop offset=".006" stop-color="#F7AF3E"/><stop offset="1" stop-color="#994410"/></linearGradient><radialGradient id="s" cx="4238.554" cy="496.331" r="5.507" gradientTransform="matrix(.409 -.912 .912 .409 -2150.214 3757.324)" gradientUnits="userSpaceOnUse"><stop offset="0" stop-color="#fff"/><stop offset=".064" stop-color="#FDEED5"/><stop offset=".172" stop-color="#FBD395"/><stop offset=".262" stop-color="#F9BF66"/><stop offset=".331" stop-color="#F7B349"/><stop offset=".371" stop-color="#F7AF3E"/><stop offset=".691" stop-color="#EF7916"/><stop offset="1" stop-color="#A65416"/></radialGradient><radialGradient id="t" cx="-2083.664" cy="3695.694" r="5.507" gradientTransform="matrix(.424 .906 -.906 .424 4260.018 439.238)" gradientUnits="userSpaceOnUse"><stop offset="0" stop-color="#fff"/><stop offset=".064" stop-color="#FDEED5"/><stop offset=".172" stop-color="#FBD395"/><stop offset=".262" stop-color="#F9BF66"/><stop offset=".331" stop-color="#F7B349"/><stop offset=".371" stop-color="#F7AF3E"/><stop offset=".691" stop-color="#EF7916"/><stop offset="1" stop-color="#A65416"/></radialGradient><radialGradient id="u" cx="4074.888" cy="6708.084" r="4.284" gradientTransform="matrix(-.988 -.156 .156 -.988 3003.856 7356.637)" gradientUnits="userSpaceOnUse"><stop offset="0" stop-color="#fff"/><stop offset=".064" stop-color="#FDEED5"/><stop offset=".172" stop-color="#FBD395"/><stop offset=".262" stop-color="#F9BF66"/><stop offset=".331" stop-color="#F7B349"/><stop offset=".371" stop-color="#F7AF3E"/><stop offset=".691" stop-color="#EF7916"/><stop offset="1" stop-color="#A65416"/></radialGradient></defs><g><path fill="url(#a)" d="M42.5 29.72s2.8 1.45 3.25 1.45c.45 0 4.25.78 4.25.78s-4.36 1.9-4.8 2.02c-.45.1-.23 1.68-.23 1.68l-3.7 1s.23 1.57 3.7 4.02l-3.8-.78.45.77-2.7-1.56 1.13 1.46-2.23-1.3 3.1 2.58s-2.97-1.3-3.94-1.62c-.97-.32 1.3 1.36 1.3 1.36l-1.88-.78.7.97s-.64-.26-1.4-.78c0 0 .72 3.27 1.54 5.35l-1.5 1.36c-.76-.64-2.05-2-2.7-2.18-.64-.2-2.26 0-2.26 0l.52 2.25-3.88-5.3.65 2.08-2.07-2.2-.23 1-.77-.4-.1 1.65-.57-.48-.58 1.35-2.12.1V44.4l-.67.97-.77-1.25-.6 1.06-1.05-.68-.2-1.54-.77.3v-3.38l-.96.38.2-3.08-1.07.2-1.64-1.26-3.65.77-.96-.4-4.64 1.84 2.6-2.6-1.92-.1.86-.77-7.03-.58 2.12-1.94-1.55-.77.67-.88-1.06-.67 2.03-.58L.13 28.3l2.22-.57-.58-.77 1.16-.3L.62 26l2.32-.58L4 24.07l1.15-.3-2.02-1.53.38-.55-1.3-1.15.6-.18-1.57-1.56 1.68-.05-.17-.65 1.08.23-.1-.83 2.8.37c.12-.56-.43-2.13-.43-2.13l1.1.56-1-2.9.8.55-.35-1.56 1.35.32-.67-1.1v-1.13l-.34-1.8h.56V7.58l1.68.8-.45-2.7 1.9.9V5.24l1 .78.9-.78 1.12 1.67.78 1.47 1.23 1.9-.1-3.47 1.22.78.1-1.34.57.1V3.9l.56.55L18.6 3l.43 1.12.68-.67.8 4.47.88-.67 1.9 5.03.45-.78.34 1.34 1.23-1.46.1 1.46 1.8-1.57-.42 1.5 4.46-4.2-.9 3.76 1.15-.65s-1.04 1.04-.4 1.16c.65.13 1.04.2 1.04.2l-.32.77 2.77-1.2s.25.24.18.7c-.06.45-.12 1.68-.12 1.68l1.55-.7 2.27-1.3-.84 1.74.32.32-1.36 1.35 1.8-.52s.84.26-.52 2.13c-1.35 1.88-2.5 3.3-2.5 3.3l1-.12-1.06 2.12 1.92-.1.87 1.54 1.36-.57-.87 1.25 1.34.2-1.06.76 3.1.96 1.05 1.45-1.26-.1.74 1.02z"/><path fill="url(#b)" d="M4.07 19.94l2.13.27-.58-.57H8.6l3.46 1.47-2.66-1.96h.98l-2.3-2.3-.72-1.7.1-1.06 1.58 1.07-.53-1.52 2.85 1.07v-1.24l2.13 1.24v-.9l1.42 1.8 1.7 1.4 1.33 1.87.08-4-.34-4.17 1.24.9V9l.9 2.13.6.35 1.17 3.3.62-.9.25.45.54-1.6s.43 1.68.43 1.95.53-.7.53-.7l.27 1.23.7-.44-.08 3.45 1.78-2.75 1.15-1.33-.35-.27.8-.8.17.9h.63l-.54 2.03 1.86-1.15 1.24-.18-.27.8 1.16-.8.25.7-.17 1.07 1.33-.62h.98l.27.7-.27 1 1.07-.1-.98 2.13h.8l-.7 1.5-.1.8-1.33 1.96 1.6-.26 1.15.26h.7l.45 1.16-.18.7 1.07.2-1.42.6 4 1.34h-1.08l1.96 1.6h-1.24l3.64 2.5-1.42.34.8 1.16-1.5.26 1.94.9-.8.97-2.3-.45v.72l-.54.17.26 1.17s-2.4-.8-3.46-.36l-.9-.43 1.8 2.13-1.25.44-.45.72-1.77-.1-.88-1.06-.98.18-2.22-1.5h-1.06l-1.16-.2.27 1.7-2.04-1.16 1.15 3.82-1.7-1.42-.88 1.06-.17 1.07-.8-1.15-.1 2.48-.7.1-.45 1.4-.62-.08-.88-1.06-1.87-.1-.88-2.4-.62.8.1-2.74-.63-.27-.27-2.66-1.33-.1-1.42-.97.27-.53 1.06-.9-2.75.28L15.7 33l-7.46 1.68 1.34-1.33-5.7.27 4.9-1.25-2.5-1.33-3.36-.44.35-1.33-1.33-.7 2.22-1.08-.98-.54 2.22-.54-1.24-.7 3.02-1.07-1.7-1.16L4 21.9l-.18-1.07.27-.9z"/><path fill="none" stroke="#99440f" stroke-width="2" d="M7.24 35.56c0 5.04 4.1 9.13 9.13 9.13 5.05 0 9.14-4.1 9.14-9.14 0-5.05-4.08-9.15-9.13-9.15-5.04 0-9.13 4.1-9.13 9.16z"/><path fill="url(#c)" d="M7.24 35.56c0 5.04 4.1 9.13 9.13 9.13 5.05 0 9.14-4.1 9.14-9.14 0-5.05-4.08-9.15-9.13-9.15-5.04 0-9.13 4.1-9.13 9.16z"/><g transform="translate(-.629 -81.982)"><radialGradient cx="9.284" cy="110.004" r="22.748" gradientUnits="userSpaceOnUse"><stop offset="0" stop-color="#fff"/><stop offset=".064" stop-color="#FEEED5"/><stop offset=".172" stop-color="#FCD395"/><stop offset=".262" stop-color="#FBBF66"/><stop offset=".331" stop-color="#FAB349"/><stop offset=".371" stop-color="#FAAF3E"/><stop offset=".691" stop-color="#F17912"/><stop offset="1" stop-color="#B15A12"/></radialGradient><path fill="url(#d)" d="M7.87 117.54c0 5.03 4.1 9.13 9.13 9.13 5.04 0 9.14-4.1 9.14-9.13 0-5.04-4.1-9.15-9.14-9.15-5.04 0-9.13 4.1-9.13 9.14zm1.16 0c0-4.4 3.58-7.98 7.97-7.98 4.4 0 7.98 3.58 7.98 7.98S21.4 125.5 17 125.5s-7.97-3.57-7.97-7.96z"/></g><path fill="url(#e)" d="M24.85 20.2l1.95-3.37 1.7-.18.52-.62h2.22l.36.8 1.06.27 1.43-.54-.37 1.16.53-.18-.7 2.5.97-1-.1 1.88-1.85 3.9v.53l1.06-.35.98-.62 1.86-.1.36 1-1.33 1.5-.8.44 4 1.07 1.78 1.58-1.42-.08 1.42 2.66-.54 3.2s-1.86-.18-4 .17l-2.83-.35 3.2 1.95-1.86.27-1.7.26-2.12-1.42-1.86-.17-1.16-1.25.27 1.16-1.16.35-1.14-.8h-.7v1.87l.97 1.33-.98 1.33-1.33-.18.18 1.7-.7 1.68s-.73 0-1 0c-.26 0-.26-2.5-.26-2.5l-.44 1.52-1.16.62-.44-2.04-.36.1-.08-2.05-1.07-.35v-3.37l-.45.1-.53-1.6.88-1-1.06-.52-3.73.1-2.4-1.08-2.83-.35 3.1-.7-6.83-1.52 7.2-1.15s-4.7-.7-4-.8c.7-.1 3.46-.62 3.46-.62l-1.7-1.06 2.23-.8-2.84-2.58 3.46.17.97-.63 3.2-.7-2.66-3.82 4.43 3.28.9-.7 1.4 1.86-.88-6.22 1.52.53-.27-.97 1.68.7.98 3.38.45-1.07.97 2.5z"/><path fill="url(#f)" d="M24.02 23.22l1.3-2.23 1.1-.13.37-.4h1.46l.23.52.7.16.94-.35-.24.78.36-.12-.47 1.64.63-.64-.06 1.23-1.23 2.58v.35l.7-.23.65-.4 1.23-.07.23.64-.88 1-.53.3 2.65.7 1.17 1.06-.94-.06.94 1.77-.35 2.1s-1.23-.1-2.65.13l-1.88-.23 2.1 1.3-1.23.16-1.1.18-1.42-.94-1.24-.12-.75-.82.17.77-.76.23-.77-.53h-.48v1.23l.65.9-.65.87-.88-.12.12 1.12-.47 1.12s-.48 0-.66 0c-.17 0-.17-1.66-.17-1.66l-.3 1-.77.4-.3-1.34-.22.06-.06-1.35-.7-.23v-2.23l-.3.05-.36-1.06.6-.65-.7-.36-2.48.06-1.6-.7-1.87-.24 2.07-.48-4.53-1 4.76-.76s-3.1-.47-2.64-.53c.47-.07 2.3-.42 2.3-.42l-1.13-.7 1.47-.53-1.88-1.7 2.3.1.64-.4 2.12-.47-1.77-2.53 2.95 2.17.6-.47.93 1.24-.6-4.13 1 .36-.16-.65 1.1.47.66 2.23.3-.7.64 1.64z"/><path fill="url(#g)" d="M31.43 108.76l.44.98 2.3-.7.72-1.08-1.87.1-1.6.7z" transform="translate(-.629 -81.982)"/><path fill="url(#h)" d="M28.05 104.06l1.07-.63.36.98-.98.72-.53-.45.08-.6z" transform="translate(-.629 -81.982)"/><path fill="url(#i)" d="M26 111.6l.72 1.6.27-1.16 1.05.63-.44-1.07 1.25-.1-.62-.52 2.5-.36-2.4-.8 2.03-.8-1.95-.17 1.87-1.07-2.13.18 1.96-1.5-2.13.35 1.5-1.4-1.77.52-.27-.9-.9.1.28-1.7-1.06.1-1.77.45-.45 1.42-.7.34-.36-.62-1.6-.7 1.33 2.47-.1 1.4-.88.37-1.33-.7-1.44 2.4 1.5 1.5H19v1.77l1.95.36.45-1.5.17-.8 1.07-.2 1.42 1.43.44-1.42 1.07 1.34.35-1.42" transform="translate(-.629 -81.982)"/><path fill="url(#j)" d="M24.24 113.73l1.42.54.7.7-.53.72.8 1.58-1.5-1.06-.36 1.06-.9-.88-.7-.45 1.07-2.22z" transform="translate(-.629 -81.982)"/><path fill="url(#k)" d="M22.2 113.02l1.06.8-1.5 2.13.43-2.93z" transform="translate(-.629 -81.982)"/><path fill="url(#l)" d="M20.33 106.54l-5.86-1.6 4.7 2.58 1.16-.98z" transform="translate(-.629 -81.982)"/><g transform="translate(-.629 -81.982)"><path fill="none" stroke="#994410" stroke-width="1.5" d="M38.55 124.66c-.12.16-.1.83-.17.9.3.2.62.9.74 1.1.13.2.68 1.1.68 1.1s1.42.03 1.56.06c.14.04.9.24.9.24s0-1 .12-1.23c.1-.24.57-1.04.62-1.36.06-.32.22-1.02.25-1.07.04-.06.18-.3.18-.3l-1.7-1.6-1.03.4-.77.6-.13-.02-1.25 1.18z"/><path fill="#fff" d="M38.55 124.66l1.25-1.18.13.02.77-.6 1.02-.4 1.7 1.6-.7.78-4.17-.22z"/><linearGradient x1="37.807" x2="40.397" y1="128.381" y2="126.362" gradientUnits="userSpaceOnUse"><stop offset=".006" stop-color="#F7AF3E"/><stop offset="1" stop-color="#994410"/></linearGradient><path fill="url(#m)" d="M39.38 124.5s-.7 0-.83.16c-.12.16-.1.83-.17.9.3.2.62.9.74 1.1.13.2.68 1.1.68 1.1s1.42.03 1.56.06c.14.04.9.24.9.24s0-1 .12-1.23c.1-.24.57-1.04.62-1.36.06-.32.22-1.02.25-1.07.04-.06.18-.3.18-.3l-.5.4h-3.55z"/><radialGradient cx="39.827" cy="123.439" r="5.507" gradientUnits="userSpaceOnUse"><stop offset="0" stop-color="#fff"/><stop offset=".064" stop-color="#FDEED5"/><stop offset=".172" stop-color="#FBD395"/><stop offset=".262" stop-color="#F9BF66"/><stop offset=".331" stop-color="#F7B349"/><stop offset=".371" stop-color="#F7AF3E"/><stop offset=".691" stop-color="#EF7916"/><stop offset="1" stop-color="#A65416"/></radialGradient><path fill="url(#n)" d="M39.38 124.5s1.44-.93 1.94-1.48c0 0 .77.7.86.7.1 0 .5-.3.5-.3.1.24.25.92.2 1-.02.1-.06.48-.06.67 0 .2-.3 1.17-.43 1.32-.13.14-.6.67-.6.78-.16-.27-.4-1.14-.4-1.14l-.43-.15s-.8.03-.88-.15c-.08-.18-.26-.73-.33-.82-.07-.1-.4-.43-.4-.43z"/></g><g transform="translate(-.629 -81.982)"><path fill="none" stroke="#994410" stroke-width="1.5" d="M15.64 97.64c.06-.1 0-.5.02-.55-.2-.1-.45-.5-.54-.6-.1-.1-.5-.6-.5-.6s-.85.12-.93.1c-.1 0-.57-.04-.57-.04s.08.6.04.74c-.04.15-.24.67-.25.86 0 .2-.03.63-.05.66 0 .03-.08.2-.08.2l1.16.8.56-.35.4-.42H15l.64-.8z"/><path fill="#fff" d="M15.64 97.64l-.64.8h-.07l-.4.43-.57.34-1.17-.78.34-.53 2.5-.26z"/><linearGradient x1="3042.666" x2="3044.223" y1="7220.249" y2="7219.036" gradientUnits="userSpaceOnUse" gradientTransform="matrix(-.989 .151 -.151 -.989 4115.845 6772.22)"><stop offset=".006" stop-color="#F7AF3E"/><stop offset="1" stop-color="#994410"/></linearGradient><path fill="url(#o)" d="M15.17 97.8s.4-.06.47-.16c.06-.1 0-.5.02-.55-.2-.1-.45-.5-.54-.6-.1-.1-.5-.6-.5-.6s-.85.12-.93.1c-.1 0-.57-.04-.57-.04s.08.6.04.74c-.04.15-.24.67-.25.86 0 .2-.03.63-.05.66 0 .03-.08.2-.08.2l.26-.28 2.1-.33z"/><radialGradient cx="3043.88" cy="7217.28" r="3.309" gradientTransform="matrix(-.989 .151 -.151 -.989 4115.845 6772.22)" gradientUnits="userSpaceOnUse"><stop offset="0" stop-color="#fff"/><stop offset=".064" stop-color="#FDEED5"/><stop offset=".172" stop-color="#FBD395"/><stop offset=".262" stop-color="#F9BF66"/><stop offset=".331" stop-color="#F7B349"/><stop offset=".371" stop-color="#F7AF3E"/><stop offset=".691" stop-color="#EF7916"/><stop offset="1" stop-color="#A65416"/></radialGradient><path fill="url(#p)" d="M15.17 97.8s-.78.7-1.03 1.06c0 0-.52-.34-.57-.33-.05 0-.27.22-.27.22-.08-.13-.23-.52-.22-.58.02-.06 0-.28-.02-.4 0-.12.08-.73.14-.82.06-.1.3-.46.3-.53.1.15.3.65.3.65l.3.04s.47-.07.53.03c.06.1.2.4.26.46.04.03.27.2.27.2z"/></g><g transform="translate(-.629 -81.982)"><path fill="none" stroke="#994410" stroke-width="1.5" d="M40.4 101.86c.12-.03.37-.34.43-.34-.05-.22.07-.66.1-.8 0-.14.1-.77.1-.77s-.64-.56-.7-.63c-.04-.07-.3-.46-.3-.46s-.4.46-.55.52c-.14.07-.66.26-.8.4-.16.1-.5.37-.54.38-.04 0-.2.07-.2.07l.18 1.4.62.2.58.03.05.06 1.03-.06z"/><path fill="#fff" d="M40.4 101.86l-1.03.06-.05-.06-.58-.03-.63-.2-.16-1.4.62-.1 1.84 1.73z"/><linearGradient x1="5360.706" x2="5362.262" y1="5019.758" y2="5018.545" gradientUnits="userSpaceOnUse" gradientTransform="matrix(-.765 -.644 .644 -.765 906.786 7393.486)"><stop offset=".006" stop-color="#F7AF3E"/><stop offset="1" stop-color="#994410"/></linearGradient><path fill="url(#q)" d="M39.96 101.6s.32.28.44.26c.12-.03.37-.34.43-.34-.05-.22.07-.66.1-.8 0-.14.1-.77.1-.77s-.64-.56-.7-.63c-.04-.07-.3-.46-.3-.46s-.4.46-.55.52c-.14.07-.66.26-.8.4-.16.1-.5.37-.54.38-.04 0-.2.07-.2.07l.4.02 1.62 1.36z"/><radialGradient cx="5361.921" cy="5016.79" r="3.308" gradientTransform="matrix(-.765 -.644 .644 -.765 906.786 7393.486)" gradientUnits="userSpaceOnUse"><stop offset="0" stop-color="#fff"/><stop offset=".064" stop-color="#FDEED5"/><stop offset=".172" stop-color="#FBD395"/><stop offset=".262" stop-color="#F9BF66"/><stop offset=".331" stop-color="#F7B349"/><stop offset=".371" stop-color="#F7AF3E"/><stop offset=".691" stop-color="#EF7916"/><stop offset="1" stop-color="#A65416"/></radialGradient><path fill="url(#r)" d="M39.96 101.6s-1.02-.12-1.46-.06c0 0-.1-.62-.13-.65-.04-.05-.35-.07-.35-.07.05-.15.25-.52.3-.55.05-.02.2-.18.3-.27.06-.08.58-.42.7-.43.1-.02.54-.08.58-.13-.04.18-.27.67-.27.67l.15.25s.38.3.34.4c-.04.12-.17.45-.17.52 0 .06 0 .34 0 .34z"/></g><g transform="translate(-.629 -81.982)"><path fill="none" stroke="#994410" stroke-width="1.5" d="M38.07 94.88c.1.18.7.43.74.53.34-.18 1.1-.2 1.33-.22.23-.04 1.28-.18 1.28-.18s.62-1.27.7-1.4c.1-.1.58-.7.58-.7s-.9-.43-1.07-.63c-.16-.2-.7-.94-.97-1.12-.27-.18-.84-.6-.88-.67-.03-.05-.2-.3-.2-.3l-2.15.93-.05 1.1.23.95-.07.1.57 1.63z"/><path fill="#fff" d="M38.07 94.88l-.56-1.63.08-.1-.23-.95.05-1.1 2.15-.9.43.95-1.9 3.73z"/><path fill="#fff" d="M38.27 94.06s-.3.64-.2.82c.1.18.7.43.75.53.32-.18 1.08-.2 1.3-.22.24-.04 1.3-.18 1.3-.18s.6-1.27.7-1.4c.08-.1.57-.7.57-.7-.02 0-.92-.43-1.1-.63-.16-.2-.7-.94-.97-1.12-.27-.18-.84-.6-.88-.67-.03-.05-.2-.3-.2-.3l.15.63-1.44 3.26z"/><radialGradient cx="4238.554" cy="496.331" r="5.507" gradientTransform="matrix(.409 -.912 .912 .409 -2150.214 3757.324)" gradientUnits="userSpaceOnUse"><stop offset="0" stop-color="#fff"/><stop offset=".064" stop-color="#FDEED5"/><stop offset=".172" stop-color="#FBD395"/><stop offset=".262" stop-color="#F9BF66"/><stop offset=".331" stop-color="#F7B349"/><stop offset=".371" stop-color="#F7AF3E"/><stop offset=".691" stop-color="#EF7916"/><stop offset="1" stop-color="#A65416"/></radialGradient><path fill="url(#s)" d="M38.27 94.06s-.26-1.7-.56-2.38c0 0 .96-.42 1-.5.03-.08-.08-.58-.08-.58.27 0 .95.15 1.02.22.07.07.4.26.57.34.2.08.96.76 1.04.93.08.16.37.82.47.87-.3.02-1.18-.13-1.18-.13l-.32.35s-.3.73-.5.72c-.2 0-.77-.07-.88-.04-.1.03-.55.18-.55.18z"/></g><g transform="translate(-.629 -81.982)"><path fill="none" stroke="#994410" stroke-width="1.5" d="M27.87 118.98c-.2-.05-.8.25-.9.22-.05.36-.55.95-.67 1.15-.13.2-.7 1.07-.7 1.07s.56 1.3.6 1.44c.02.15.16.9.16.9s.9-.4 1.17-.4c.26 0 1.18.08 1.5 0 .3-.1 1-.25 1.07-.24.06 0 .35.03.35.03l.7-2.22-.8-.75-.85-.45-.04-.12-1.6-.62z"/><path fill="#fff" d="M27.87 118.98l1.6.63.03.13.86.45.8.75-.7 2.22-1.02-.3-1.57-3.87z"/><path fill="#fff" d="M28.36 119.66s-.3-.63-.5-.68c-.2-.05-.78.25-.88.22-.06.36-.56.95-.68 1.15-.13.2-.7 1.07-.7 1.07s.56 1.3.6 1.44c.02.15.16.9.16.9s.9-.4 1.17-.4c.26 0 1.18.08 1.5 0 .3-.1 1-.25 1.07-.24.06 0 .35.03.35.03l-.57-.28-1.52-3.2z"/><radialGradient cx="-2083.664" cy="3695.694" r="5.507" gradientTransform="matrix(.424 .906 -.906 .424 4260.018 439.238)" gradientUnits="userSpaceOnUse"><stop offset="0" stop-color="#fff"/><stop offset=".064" stop-color="#FDEED5"/><stop offset=".172" stop-color="#FBD395"/><stop offset=".262" stop-color="#F9BF66"/><stop offset=".331" stop-color="#F7B349"/><stop offset=".371" stop-color="#F7AF3E"/><stop offset=".691" stop-color="#EF7916"/><stop offset="1" stop-color="#A65416"/></radialGradient><path fill="url(#t)" d="M28.36 119.66s1.46.9 2.17 1.13c0 0-.3.98-.27 1.06.04.08.5.33.5.33-.2.2-.75.6-.84.6-.1.02-.46.15-.63.23-.2.08-1.2.22-1.4.17-.17-.05-.86-.26-.96-.2.18-.26.88-.84.88-.84l-.06-.47s-.36-.73-.23-.87c.13-.14.56-.53.6-.64.06-.1.23-.54.23-.54z"/></g><g transform="translate(-.629 -81.982)"><path fill="none" stroke="#994410" stroke-width="1.5" d="M25.6 94.33c.1-.1.18-.62.24-.66-.2-.2-.37-.78-.44-.95-.07-.16-.4-.92-.4-.92s-1.07-.2-1.17-.24c-.1-.05-.66-.3-.66-.3s-.14.78-.25.95c-.1.17-.56.73-.64.97-.08.25-.3.76-.33.8-.03.03-.17.2-.17.2l1.13 1.44.84-.18.66-.36.1.03 1.1-.77z"/><path fill="#fff" d="M25.6 94.33l-1.1.75-.1-.02-.66.35-.83.2-1.12-1.42.63-.52 3.2.67z"/><path fill="#fff" d="M24.95 94.35s.53.1.65-.02c.1-.1.18-.62.24-.66-.2-.2-.37-.78-.44-.95-.07-.16-.4-.92-.4-.92s-1.07-.2-1.18-.24c-.1-.04-.65-.3-.65-.3s-.14.78-.25.95c-.1.17-.56.73-.64.97-.08.25-.3.76-.33.8-.03.03-.17.2-.17.2l.43-.23 2.75.4z"/><radialGradient cx="4074.888" cy="6708.084" r="4.284" gradientTransform="matrix(-.988 -.156 .156 -.988 3003.856 7356.637)" gradientUnits="userSpaceOnUse"><stop offset="0" stop-color="#fff"/><stop offset=".064" stop-color="#FDEED5"/><stop offset=".172" stop-color="#FBD395"/><stop offset=".262" stop-color="#F9BF66"/><stop offset=".331" stop-color="#F7B349"/><stop offset=".371" stop-color="#F7AF3E"/><stop offset=".691" stop-color="#EF7916"/><stop offset="1" stop-color="#A65416"/></radialGradient><path fill="url(#u)" d="M24.95 94.35s-1.23.54-1.68.9c0 0-.5-.62-.57-.63-.07 0-.43.17-.43.17-.05-.22-.07-.75-.04-.82.04-.06.1-.35.14-.5.02-.15.38-.87.5-.96.1-.1.54-.45.55-.53.08.2.15.9.15.9l.33.18s.62.08.65.23c.03.15.1.6.15.68.04.07.25.37.25.37z"/></g></g></svg>