<svg xmlns="http://www.w3.org/2000/svg" width="48" height="48" xmlns:xlink="http://www.w3.org/1999/xlink" version="1"><defs><radialGradient id="i" cx="33.161" cy="46.365" r="28.435" gradientUnits="userSpaceOnUse" gradientTransform="matrix(-1 0 0 1 55.359 0)" fy="46.365" fx="33.161"><stop offset="0" stop-color="#fffe5c"/><stop offset="1" stop-color="#ae9600"/></radialGradient><linearGradient id="h"><stop offset="0" stop-color="#192333" stop-opacity=".502"/><stop offset="1" stop-color="#192333" stop-opacity="0"/></linearGradient><linearGradient id="g"><stop offset="0" stop-color="#a5b0b8" stop-opacity=".502"/><stop offset="1" stop-color="#a5b0b8" stop-opacity="0"/></linearGradient><linearGradient id="f"><stop offset="0" stop-color="#2e3436"/><stop offset="1" stop-color="#2e3436" stop-opacity="0"/></linearGradient><linearGradient><stop offset="0" stop-color="#655300"/><stop offset="1" stop-color="#c4a000"/></linearGradient><linearGradient><stop offset="0" stop-color="#555753"/><stop offset="1" stop-color="#444643"/></linearGradient><linearGradient><stop offset="0" stop-color="#c6c6bf"/><stop offset="1" stop-color="#eeeeec"/></linearGradient><linearGradient><stop offset="0" stop-color="#555753"/><stop offset="1" stop-color="#373836"/></linearGradient><linearGradient><stop offset="0" stop-color="#eeeeec"/><stop offset="1" stop-color="#c6c6bf"/></linearGradient><linearGradient id="a" x1="100.512" x2="122.106" y1="48.775" y2="75.352" gradientUnits="userSpaceOnUse"><stop offset="0" stop-color="#FAFAFA"/><stop offset=".579" stop-color="#828B99"/><stop offset=".78" stop-color="#868F9D"/><stop offset=".957" stop-color="#939EAD"/><stop offset="1" stop-color="#98A4B2"/></linearGradient><linearGradient id="l" x1="100.512" x2="122.106" y1="48.775" y2="75.352" xlink:href="#a" gradientUnits="userSpaceOnUse"/><linearGradient id="b" x1="105.015" x2="100.976" y1="53.14" y2="51.033" gradientUnits="userSpaceOnUse" gradientTransform="translate(-65.05 -40.617)"><stop offset="0" stop-color="#EFEEEC"/><stop offset="1" stop-color="#98A7B2"/></linearGradient><linearGradient id="k" x1="105.015" x2="100.976" y1="53.14" y2="51.033" xlink:href="#b" gradientUnits="userSpaceOnUse" gradientTransform="translate(-65.05 -40.617)"/><linearGradient id="c" x1="97.967" x2="124.216" y1="54.748" y2="54.054" gradientUnits="userSpaceOnUse" gradientTransform="translate(-65.05 -40.617)"><stop offset="0" stop-color="#fff"/><stop offset=".105" stop-color="#ECEEF0"/><stop offset=".317" stop-color="#BBC2C8"/><stop offset=".539" stop-color="#828F99"/><stop offset=".858" stop-color="#8895A0"/><stop offset="1" stop-color="#8D9BA6"/></linearGradient><linearGradient id="j" x1="97.967" x2="124.216" y1="54.748" y2="54.054" xlink:href="#c" gradientUnits="userSpaceOnUse" gradientTransform="translate(-65.05 -40.617)"/><radialGradient id="d" cx="33.161" cy="46.365" r="28.435" fx="33.161" fy="46.365" gradientTransform="matrix(-1 0 0 1 55.359 0)" gradientUnits="userSpaceOnUse"><stop offset="0" stop-color="#fff"/><stop offset=".09" stop-color="#F9FAFA"/><stop offset=".211" stop-color="#E8EBED"/><stop offset=".35" stop-color="#CCD2D7"/><stop offset=".5" stop-color="#A5B0B8"/><stop offset=".579" stop-color="#8E9CA6"/><stop offset="1" stop-color="#505359"/></radialGradient><radialGradient id="e" cx="38.921" cy="39.927" r="34.589" fx="38.921" fy="39.927" gradientTransform="matrix(-1 0 0 1 55.359 0)" gradientUnits="userSpaceOnUse"><stop offset="0" stop-color="#fff"/><stop offset="1" stop-color="#8D9BA6"/></radialGradient><radialGradient cx="33.161" cy="46.365" r="28.435" xlink:href="#d" gradientUnits="userSpaceOnUse" gradientTransform="matrix(-1 0 0 1 55.359 0)" fx="33.161" fy="46.365"/><radialGradient cx="38.921" cy="39.927" r="34.589" xlink:href="#e" gradientUnits="userSpaceOnUse" gradientTransform="matrix(-1 0 0 1 55.359 0)" fx="38.921" fy="39.927"/><linearGradient x1="36.516" x2="38.306" y1="34.834" y2="38.045" xlink:href="#f" gradientUnits="userSpaceOnUse" gradientTransform="matrix(.933 0 0 .933 -1.817 6.544)"/><linearGradient id="m" x1="14.363" x2="17.749" y1="18.72" y2="29.437" xlink:href="#g" gradientUnits="userSpaceOnUse" gradientTransform="matrix(-1 .01 -.01 -1 44.704 44.46)"/><linearGradient id="n" x1="15.694" x2="19.059" y1="16.627" y2="30.592" xlink:href="#h" gradientUnits="userSpaceOnUse" gradientTransform="matrix(-1 .01 -.01 -1 44.704 44.46)"/><radialGradient id="o" cx="33.161" cy="46.365" r="28.435" xlink:href="#d" gradientUnits="userSpaceOnUse" gradientTransform="matrix(-1 0 0 1 55.359 0)" fx="33.161" fy="46.365"/><radialGradient id="p" cx="38.921" cy="39.927" r="34.589" xlink:href="#e" gradientUnits="userSpaceOnUse" gradientTransform="matrix(-1 0 0 1 55.359 0)" fx="38.921" fy="39.927"/><radialGradient id="q" cx="33.161" cy="46.365" r="28.435" xlink:href="#i" gradientUnits="userSpaceOnUse" gradientTransform="matrix(-1 0 0 1 55.359 0)" fx="33.161" fy="46.365"/></defs><g><g><path fill="url(#j)" d="M65.07 25.5c0 5.35-6.6 9.27-19.1 9.27-11 0-18.1-4.16-18.1-9.15.02-.2.07-.4.16-.58L46.08-6.94c.22-.4.57-.4.8 0l18.04 31.9c.1.14.14.34.15.55z" transform="matrix(.405 0 0 .404 -10.705 3.867)"/><path fill="url(#k)" d="M46.76-7.28l-12.46 40c-5.28-1.7-7-5.9-6.27-7.68L46.5-7.28h.26z" transform="matrix(.405 0 0 .404 -10.705 3.867)"/><path fill="none" stroke="#192333" stroke-width="2.471" d="M64.54 24.14c.4.7.6 1.43.6 2.2 0 4.76-8.32 8.44-18.6 8.44-10.26 0-18.58-3.68-18.58-8.45 0-.9.3-1.75.83-2.56L46.6-7.3l17.94 31.44z" transform="matrix(.405 0 0 .404 -10.705 3.867)"/><g transform="matrix(.405 0 0 .404 -37.05 -12.542)"><linearGradient x1="100.512" x2="122.106" y1="48.775" y2="75.352" gradientUnits="userSpaceOnUse"><stop offset="0" stop-color="#FAFAFA"/><stop offset=".579" stop-color="#828B99"/><stop offset=".78" stop-color="#868F9D"/><stop offset=".957" stop-color="#939EAD"/><stop offset="1" stop-color="#98A4B2"/></linearGradient><path fill="url(#l)" d="M111.2 35.07l-16.95 29.6c-.5.74-.74 1.5-.74 2.27 0 4.4 8.12 7.95 18.1 7.95 9.98 0 18.1-3.57 18.1-7.96 0-.65-.2-1.3-.54-1.94 0 0-17.52-30.7-17.52-30.7l-.43.77zM94.5 66.94c0-.57.2-1.15.58-1.72l.06-.1s15.68-27.36 16.5-28.8c.83 1.45 16.65 29.17 16.65 29.17.26.47.4.96.4 1.44 0 3.7-8 6.95-17.1 6.95-9.1 0-17.1-3.25-17.1-6.96z"/></g></g><path fill="url(#m)" stroke="url(#n)" d="M42.2 28.55C34.83 21.52 30.7 13 30.04 4.73L18.72 8c.66 10.17 2.15 20.4 7.06 30.15l16.42-9.6z" color="#000" overflow="visible"/><g transform="matrix(.427 0 0 .427 11.974 -14.219)"><circle cx="27.679" cy="54.053" r="19.018" fill="url(#o)" stroke="#192333" stroke-width="2.342"/><g><radialGradient cx="38.921" cy="39.927" r="34.589" gradientUnits="userSpaceOnUse" gradientTransform="matrix(-1 0 0 1 55.359 0)" fy="39.927" fx="38.921"><stop offset="0" stop-color="#fff"/><stop offset="1" stop-color="#8D9BA6"/></radialGradient><path fill="url(#p)" d="M27.68 35.53c-10.2 0-18.52 8.3-18.52 18.52 0 10.2 8.3 18.52 18.52 18.52 10.2 0 18.52-8.3 18.52-18.52 0-10.2-8.3-18.52-18.52-18.52zm0 36.04c-9.66 0-17.52-7.86-17.52-17.52s7.86-17.52 17.52-17.52S45.2 44.4 45.2 54.05s-7.86 17.52-17.52 17.52z"/></g></g><g transform="matrix(.498 -.064 .064 .498 17.622 9.607)"><circle cx="27.679" cy="54.053" r="19.018" fill="url(#q)" stroke="#192333" stroke-width="1.992"/><g><radialGradient cx="38.921" cy="39.927" r="34.589" gradientUnits="userSpaceOnUse" gradientTransform="matrix(-1 0 0 1 55.359 0)" fy="39.927" fx="38.921"><stop offset="0" stop-color="#fff"/><stop offset="1" stop-color="#8D9BA6"/></radialGradient></g></g><g fill="none" stroke="#fff" stroke-opacity=".502" stroke-width="1.121" transform="matrix(.444 -.057 .057 .444 19.489 12.319)"><circle cx="27.679" cy="54.053" r="19.018"/><g><radialGradient cx="38.921" cy="39.927" r="34.589" gradientUnits="userSpaceOnUse" gradientTransform="matrix(-1 0 0 1 55.359 0)" fy="39.927" fx="38.921"><stop offset="0" stop-color="#fff"/><stop offset="1" stop-color="#8D9BA6"/></radialGradient></g></g><path fill="#eeeeec" fill-rule="evenodd" stroke="#000" d="M35.94 35.4l2.72 12 2.14-5.47 6.15-.24-11-6.3z"/></g></svg>