<svg xmlns="http://www.w3.org/2000/svg" width="48" height="48"><defs><linearGradient id="a" x1="23.775" x2="23.775" y1="202.3" y2="158.049" gradientUnits="userSpaceOnUse" gradientTransform="translate(.226 -156.565)"><stop offset="0" stop-color="#E96712"/><stop offset=".648" stop-color="#D4290C"/><stop offset="1" stop-color="#CB1009"/></linearGradient><linearGradient id="b" x1="23.875" x2="23.875" y1="199.295" y2="156.129" gradientUnits="userSpaceOnUse" gradientTransform="translate(.226 -156.565)"><stop offset="0" stop-color="#EBD30F"/><stop offset=".393" stop-color="#E96712"/><stop offset=".786" stop-color="#D4290C"/><stop offset="1" stop-color="#CB1009"/></linearGradient><linearGradient id="c" x1="24.223" x2="24.223" y1="201.565" y2="176.179" gradientUnits="userSpaceOnUse" gradientTransform="translate(.226 -156.565)"><stop offset=".124" stop-color="#fff"/><stop offset=".205" stop-color="#FBF6B8"/><stop offset=".303" stop-color="#F8ED6C"/><stop offset=".348" stop-color="#F6E94F"/><stop offset=".607" stop-color="#FAAF3E"/><stop offset="1" stop-color="#F17912"/></linearGradient><linearGradient id="d" x1="25.197" x2="25.197" y1="190.424" y2="169.442" gradientUnits="userSpaceOnUse" gradientTransform="translate(.226 -156.565)"><stop offset=".124" stop-color="#fff"/><stop offset=".205" stop-color="#FBF6B8"/><stop offset=".303" stop-color="#F8ED6C"/><stop offset=".348" stop-color="#F6E94F"/><stop offset=".607" stop-color="#FAAF3E"/><stop offset="1" stop-color="#F17912"/></linearGradient><linearGradient x1="13.661" x2="43.845" y1="75.423" y2="106.331" gradientUnits="userSpaceOnUse"><stop offset="0" stop-color="#fff"/><stop offset="1" stop-color="#B4D8E9"/></linearGradient><linearGradient x1="11.222" x2="41.411" y1="77.802" y2="108.715" gradientUnits="userSpaceOnUse"><stop offset="0" stop-color="#fff"/><stop offset="1" stop-color="#B4D8E9"/></linearGradient><linearGradient x1="14.953" x2="45.131" y1="74.165" y2="105.066" gradientUnits="userSpaceOnUse"><stop offset="0" stop-color="#fff"/><stop offset="1" stop-color="#B4D8E9"/></linearGradient><linearGradient x1="17.059" x2="47.251" y1="72.102" y2="103.018" gradientUnits="userSpaceOnUse"><stop offset="0" stop-color="#fff"/><stop offset="1" stop-color="#B4D8E9"/></linearGradient><linearGradient x1="13.109" x2="43.292" y1="75.964" y2="106.871" gradientUnits="userSpaceOnUse"><stop offset="0" stop-color="#fff"/><stop offset="1" stop-color="#B4D8E9"/></linearGradient><linearGradient x1="8.585" x2="38.767" y1="80.382" y2="111.287" gradientUnits="userSpaceOnUse"><stop offset="0" stop-color="#fff"/><stop offset="1" stop-color="#B4D8E9"/></linearGradient><linearGradient x1="7.433" x2="37.617" y1="81.506" y2="112.413" gradientUnits="userSpaceOnUse"><stop offset="0" stop-color="#fff"/><stop offset="1" stop-color="#B4D8E9"/></linearGradient><linearGradient x1="7.038" x2="37.221" y1="81.892" y2="112.799" gradientUnits="userSpaceOnUse"><stop offset="0" stop-color="#fff"/><stop offset="1" stop-color="#B4D8E9"/></linearGradient><linearGradient x1="9.898" x2="40.088" y1="79.098" y2="110.012" gradientUnits="userSpaceOnUse"><stop offset="0" stop-color="#fff"/><stop offset="1" stop-color="#B4D8E9"/></linearGradient><linearGradient x1="9.594" x2="39.778" y1="79.397" y2="110.304" gradientUnits="userSpaceOnUse"><stop offset="0" stop-color="#fff"/><stop offset="1" stop-color="#B4D8E9"/></linearGradient><linearGradient x1="3.55" x2="33.735" y1="85.297" y2="116.206" gradientUnits="userSpaceOnUse"><stop offset="0" stop-color="#fff"/><stop offset="1" stop-color="#B4D8E9"/></linearGradient><linearGradient x1="4.039" x2="34.208" y1="84.834" y2="115.726" gradientUnits="userSpaceOnUse"><stop offset="0" stop-color="#fff"/><stop offset="1" stop-color="#B4D8E9"/></linearGradient><linearGradient x1=".06" x2="30.244" y1="88.706" y2="119.613" gradientUnits="userSpaceOnUse"><stop offset="0" stop-color="#fff"/><stop offset="1" stop-color="#B4D8E9"/></linearGradient><linearGradient x1="2.113" x2="32.302" y1="86.7" y2="117.613" gradientUnits="userSpaceOnUse"><stop offset="0" stop-color="#fff"/><stop offset="1" stop-color="#B4D8E9"/></linearGradient><linearGradient x1="5.917" x2="36.1" y1="82.987" y2="113.894" gradientUnits="userSpaceOnUse"><stop offset="0" stop-color="#fff"/><stop offset="1" stop-color="#B4D8E9"/></linearGradient><linearGradient x1="1.133" x2="31.317" y1="87.658" y2="118.565" gradientUnits="userSpaceOnUse"><stop offset="0" stop-color="#fff"/><stop offset="1" stop-color="#B4D8E9"/></linearGradient><linearGradient x1="3.852" x2="34.035" y1="85.004" y2="115.912" gradientUnits="userSpaceOnUse"><stop offset="0" stop-color="#fff"/><stop offset="1" stop-color="#B4D8E9"/></linearGradient><linearGradient x1="-3.058" x2="27.132" y1="91.745" y2="122.658" gradientUnits="userSpaceOnUse"><stop offset="0" stop-color="#fff"/><stop offset="1" stop-color="#B4D8E9"/></linearGradient><linearGradient x1="-3.083" x2="27.095" y1="91.781" y2="122.682" gradientUnits="userSpaceOnUse"><stop offset="0" stop-color="#fff"/><stop offset="1" stop-color="#B4D8E9"/></linearGradient><linearGradient x1="3.816" x2="34.006" y1="85.031" y2="115.945" gradientUnits="userSpaceOnUse"><stop offset="0" stop-color="#fff"/><stop offset="1" stop-color="#B4D8E9"/></linearGradient><linearGradient x1="3.678" x2="33.862" y1="85.175" y2="116.082" gradientUnits="userSpaceOnUse"><stop offset="0" stop-color="#fff"/><stop offset="1" stop-color="#B4D8E9"/></linearGradient><linearGradient x1="6.115" x2="36.298" y1="82.794" y2="113.701" gradientUnits="userSpaceOnUse"><stop offset="0" stop-color="#fff"/><stop offset="1" stop-color="#B4D8E9"/></linearGradient><linearGradient x1="2.386" x2="32.569" y1="86.435" y2="117.342" gradientUnits="userSpaceOnUse"><stop offset="0" stop-color="#fff"/><stop offset="1" stop-color="#B4D8E9"/></linearGradient><linearGradient x1=".284" x2="30.458" y1="88.502" y2="119.4" gradientUnits="userSpaceOnUse"><stop offset="0" stop-color="#fff"/><stop offset="1" stop-color="#B4D8E9"/></linearGradient><linearGradient x1="4.222" x2="34.42" y1="84.626" y2="115.547" gradientUnits="userSpaceOnUse"><stop offset="0" stop-color="#fff"/><stop offset="1" stop-color="#B4D8E9"/></linearGradient><linearGradient x1="8.754" x2="38.936" y1="80.217" y2="111.123" gradientUnits="userSpaceOnUse"><stop offset="0" stop-color="#fff"/><stop offset="1" stop-color="#B4D8E9"/></linearGradient><linearGradient x1="9.91" x2="40.087" y1="79.097" y2="109.997" gradientUnits="userSpaceOnUse"><stop offset="0" stop-color="#fff"/><stop offset="1" stop-color="#B4D8E9"/></linearGradient><linearGradient x1="10.3" x2="40.484" y1="78.706" y2="109.613" gradientUnits="userSpaceOnUse"><stop offset="0" stop-color="#fff"/><stop offset="1" stop-color="#B4D8E9"/></linearGradient><linearGradient x1="7.44" x2="37.624" y1="81.499" y2="112.406" gradientUnits="userSpaceOnUse"><stop offset="0" stop-color="#fff"/><stop offset="1" stop-color="#B4D8E9"/></linearGradient><linearGradient x1="7.745" x2="37.928" y1="81.203" y2="112.11" gradientUnits="userSpaceOnUse"><stop offset="0" stop-color="#fff"/><stop offset="1" stop-color="#B4D8E9"/></linearGradient><linearGradient x1="13.787" x2="43.97" y1="75.3" y2="106.207" gradientUnits="userSpaceOnUse"><stop offset="0" stop-color="#fff"/><stop offset="1" stop-color="#B4D8E9"/></linearGradient><linearGradient x1="13.306" x2="43.489" y1="75.77" y2="106.678" gradientUnits="userSpaceOnUse"><stop offset="0" stop-color="#fff"/><stop offset="1" stop-color="#B4D8E9"/></linearGradient><linearGradient x1="17.278" x2="47.462" y1="71.892" y2="102.799" gradientUnits="userSpaceOnUse"><stop offset="0" stop-color="#fff"/><stop offset="1" stop-color="#B4D8E9"/></linearGradient><linearGradient x1="15.224" x2="45.408" y1="73.897" y2="104.804" gradientUnits="userSpaceOnUse"><stop offset="0" stop-color="#fff"/><stop offset="1" stop-color="#B4D8E9"/></linearGradient><linearGradient x1="11.421" x2="41.605" y1="77.611" y2="108.518" gradientUnits="userSpaceOnUse"><stop offset="0" stop-color="#fff"/><stop offset="1" stop-color="#B4D8E9"/></linearGradient><linearGradient x1="16.199" x2="46.395" y1="72.934" y2="103.853" gradientUnits="userSpaceOnUse"><stop offset="0" stop-color="#fff"/><stop offset="1" stop-color="#B4D8E9"/></linearGradient><linearGradient x1="13.487" x2="43.671" y1="75.595" y2="106.502" gradientUnits="userSpaceOnUse"><stop offset="0" stop-color="#fff"/><stop offset="1" stop-color="#B4D8E9"/></linearGradient><linearGradient x1="20.393" x2="50.576" y1="68.85" y2="99.757" gradientUnits="userSpaceOnUse"><stop offset="0" stop-color="#fff"/><stop offset="1" stop-color="#B4D8E9"/></linearGradient><linearGradient x1="20.427" x2="50.605" y1="68.823" y2="99.724" gradientUnits="userSpaceOnUse"><stop offset="0" stop-color="#fff"/><stop offset="1" stop-color="#B4D8E9"/></linearGradient><linearGradient x1="13.52" x2="43.703" y1="75.563" y2="106.47" gradientUnits="userSpaceOnUse"><stop offset="0" stop-color="#fff"/><stop offset="1" stop-color="#B4D8E9"/></linearGradient><linearGradient x1="1.705" x2="31.127" y1="16.045" y2="16.045" gradientUnits="userSpaceOnUse" gradientTransform="translate(-.275 -.861)"><stop offset="0" stop-color="#fff"/><stop offset="1" stop-color="#B4D8E9"/></linearGradient><linearGradient x1="17.424" x2="46.846" y1="20.086" y2="20.086" gradientUnits="userSpaceOnUse" gradientTransform="translate(-.275 -.861)"><stop offset="0" stop-color="#fff"/><stop offset="1" stop-color="#B4D8E9"/></linearGradient><linearGradient x1="154.141" x2="167.273" y1="25.191" y2="14.091" gradientUnits="userSpaceOnUse" gradientTransform="matrix(1.041 0 0 1.042 -151.199 -.89)"><stop offset="0" stop-color="#fff"/><stop offset="1" stop-color="#B4D8E9"/></linearGradient><linearGradient x1="171.713" x2="183.595" y1="28.418" y2="17.318" gradientUnits="userSpaceOnUse" gradientTransform="matrix(1.041 0 0 1.042 -151.199 -.89)"><stop offset="0" stop-color="#fff"/><stop offset="1" stop-color="#B4D8E9"/></linearGradient><linearGradient x1="155.912" x2="156.375" y1="-96.79" y2="-90.701" gradientTransform="matrix(.982 .187 -.187 .982 12.655 93.395)" gradientUnits="userSpaceOnUse"><stop offset="0" stop-color="#fff"/><stop offset="1" stop-color="#B4D8E9"/></linearGradient><linearGradient x1="155.723" x2="156.147" y1="-97.031" y2="-93.009" gradientTransform="matrix(.982 .187 -.187 .982 12.655 93.395)" gradientUnits="userSpaceOnUse"><stop offset="0" stop-color="#fff"/><stop offset="1" stop-color="#B4D8E9"/></linearGradient><linearGradient x1="149.361" x2="149.824" y1="-88.419" y2="-82.329" gradientTransform="matrix(.982 .187 -.187 .982 12.655 93.395)" gradientUnits="userSpaceOnUse"><stop offset="0" stop-color="#fff"/><stop offset="1" stop-color="#B4D8E9"/></linearGradient><linearGradient x1="149.172" x2="149.596" y1="-88.659" y2="-84.638" gradientTransform="matrix(.982 .187 -.187 .982 12.655 93.395)" gradientUnits="userSpaceOnUse"><stop offset="0" stop-color="#fff"/><stop offset="1" stop-color="#B4D8E9"/></linearGradient><linearGradient x1="140.194" x2="140.658" y1="-93.801" y2="-87.71" gradientTransform="matrix(.982 .187 -.187 .982 12.655 93.395)" gradientUnits="userSpaceOnUse"><stop offset="0" stop-color="#fff"/><stop offset="1" stop-color="#B4D8E9"/></linearGradient><linearGradient x1="140.005" x2="140.429" y1="-94.04" y2="-90.019" gradientTransform="matrix(.982 .187 -.187 .982 12.655 93.395)" gradientUnits="userSpaceOnUse"><stop offset="0" stop-color="#fff"/><stop offset="1" stop-color="#B4D8E9"/></linearGradient><linearGradient x1="123.729" x2="124.192" y1="-94.739" y2="-88.65" gradientTransform="matrix(.982 .187 -.187 .982 12.655 93.395)" gradientUnits="userSpaceOnUse"><stop offset="0" stop-color="#fff"/><stop offset="1" stop-color="#B4D8E9"/></linearGradient><linearGradient x1="123.54" x2="123.964" y1="-94.98" y2="-90.959" gradientTransform="matrix(.982 .187 -.187 .982 12.655 93.395)" gradientUnits="userSpaceOnUse"><stop offset="0" stop-color="#fff"/><stop offset="1" stop-color="#B4D8E9"/></linearGradient><linearGradient x1="131.679" x2="132.142" y1="-85.055" y2="-78.966" gradientTransform="matrix(.982 .187 -.187 .982 12.655 93.395)" gradientUnits="userSpaceOnUse"><stop offset="0" stop-color="#fff"/><stop offset="1" stop-color="#B4D8E9"/></linearGradient><linearGradient x1="131.491" x2="131.914" y1="-85.295" y2="-81.273" gradientTransform="matrix(.982 .187 -.187 .982 12.655 93.395)" gradientUnits="userSpaceOnUse"><stop offset="0" stop-color="#fff"/><stop offset="1" stop-color="#B4D8E9"/></linearGradient></defs><g><path fill="url(#a)" stroke="#99140d" d="M24 46.24c-5.97 0-16.87-3.65-16.87-15.5 0-1.18.1-2.55.33-4C7.28 28.1 11 32.56 11 30.35c0-1.6-2.5-5.76-2.5-8.2 0-4.65 2.56-5.54 4.77-8.7-.7 2.32-1.62 5.65 1.2 7.7 0 0 3.47 0 3.9-6.67.44-6.68-4.06-6.76-4.06-13.6 1.57 4.5 12.6 6.32 16.33 14.8 0-1.2-.17-5.84-2.72-8.4 3.14 1.13 6.24 3.5 9 8.92 1.7 3.3.7 7.93 2.05 9.86.78-.78.6-3.1.95-4.2.62 2.3.97 6.3.97 8.85 0 11.86-10.33 15.5-16.87 15.5z"/><path fill="url(#b)" d="M21.4 13.62c0 .34 0 .7-.03 1.06-.6 9.36-6.63 9.47-6.9 9.47h-.96l-.77-.57c-.47-.34-.83-.72-1.18-1.1.14.86.73 2.36 1.17 3.42.7 1.76 1.27 3.15 1.27 4.46 0 2.06-1.28 2.95-1.83 3.23-.3.15-.9.37-1.66.35C12.37 41.47 20.6 45 24 45c.57 0 11.98.1 13.4-10.6.5-3.55.2-4.9.12-5.5-.23.5-.44 1.27-1.04 1.87-1.4-1.7-1.24-6.55-1.4-8.64-.1-1.65-.23-3.36-.84-4.54-.34-.67-.68-1.27-1.02-1.82 0 3.2-1.7 4.74-3 7.6-.72-5.94-6.56-11.78-9.42-13.57.35 1.08.6 2.3.6 3.82z"/><path fill="url(#c)" d="M31.4 41.3c-.54.64-.57-.87-.2-2.84-2.47 2.47-1.64 4.98-4 6.05-4.24 1.26 1.44-4.8-1.44-8.56 0 3.17-2.97 9.4-3.96 8.9-.52-.12-1.03-.22-1.3-.43-1.5-.7-1.56-3.92-2.52-5.26 0 1.1-.26 2.63-.6 2.23-1.36-1.63-2.34-3.63-2.34-5.78 0-5.52 3.4-8.74 1.7-11.88 1.43.68 5 5 5 6.2 1.1-2.3-.23-3.48-.66-5.34-.42-1.8.1-3.15.9-5.27.2 6.47 5.86 8.9 5.86 12.22.68-.68 2.55-2.3 1.96-5.26-.35-1.78-.8-3.52 0-4.32 0 2.12 3.2 4.2 3.9 8.4.22 1.4.18 4.24.08 5.42-.17 2.06-1.12 3.96-2.4 5.53z"/><path fill="url(#d)" d="M27.66 27.53c-1.1-3.57-4.78-6.76-4.78-9.1 0-1.42.4-2.72 1-4.45 1.2 5.96 3.48 7.2 3.98 10.18.22 1.27.05 2.43-.2 3.37z"/></g></svg>