<svg xmlns="http://www.w3.org/2000/svg" width="48" height="48" version="1" viewBox="0 0 612 792" enable-background="new 0 0 612 792"><g transform="matrix(17.03 0 0 17.03 -4890.851 -6407.118)"><path fill="none" stroke="#883a00" stroke-width="1.3" stroke-miterlimit="10" d="M284.94 418.57c-.93-.95-1.23-1.85-1.02-2.44.44-1.27 3.87-5.73 4.24-6.23 0 0 .4-.36.57-.42.17-.06.42-.12.7-.12.2 0 .4.02.64.06.32-.46.7-1 1.1-1.6 1.42-2.02 3.55-5.08 3.8-6.1l.15-.54c.1-.4.2-.84.33-1.3.06-.48.12-1.02.17-1.52.17-1.64.3-2.94 1.08-3.77l1.87-2.02.27.88c.07-.1.14-.18.23-.27.1-.13.2-.22.23-.27-1.1-1.52-.83-3.28-.48-4.1.27-.6.93-1.36 1-1.45l.2-.2c-1.32-.3-3.2-1.3-3.67-2.86-.3-.97-.16-2.38.77-3.4-.36-.13-1.74-.32-2.58-.8-.77-.46-3.14-2.24-4.37-3.2 1.1.04 37.56 0 37.56 0v13.97l-1.07-.24c-.48-.12-1.27-.28-1.5-.3-.2 0-.63.08-1.57.56-.2.1-.45.26-.72.44-.88.6-2.2 1.5-3.9 1.6-.03 0-1.85.14-1.93.15l1.95.52c-.36.93-1.38 1.94-1.5 2.03-.5.4-2.32 1.38-5.18 1.73-.05 0-.33.48-.33.48-.34.83-1.7 2.94-3.83 4.13-.82.44-1.72.76-2.5 1.05-.28.1-.67.2-1.1.3-.64.15-1.7.42-2 .67-1.44 1.93-4.78 6.65-6.83 9.54.48.8.5 1.57.46 1.78-.06.2-.27.58-.27.58-.66.88-3.98 5.34-4.65 5.93-.1.1-.3.22-.6.22-.17 0-.63 0-1.85-.72l-1.13 1.4s-4.36.08-5.35.02c-.1 0-.2-.4-.2-.5 0-.14 2.8-3.7 2.8-3.7zm16.96-29.68l.03.1c.02.04.1.1.2.14 0-.26-.05-.56-.14-.74-.37-.68-.9-1.05-1.27-1.12l1.17 1.6z" stroke-linecap="round"/><path fill="none" stroke="#f78e1e" stroke-miterlimit="10" d="M292.33 377.54c.53.53 1.85 1.53 2.58 2 .74.48 3.5.86 4.38 1.95.06.08.7.5.5.62-.67.3-2.1-.82-2.1-.82-.83.8-.95 2.03-.7 2.83.45 1.5 2.63 2.42 3.68 2.48.66.05 1.43.6 1.9 1.5.3.57.25 1.65.07 1.82-1.35-.03-2.4-1.82-2.4-1.82s-.7.72-.94 1.26-.46 1.87.56 3.22c.2.28.3.4-.32 1.06-.52.54-.63 1.18-.7 1.6-.02.08-.03.17-.05.25-.03-.04-.04-.07-.05-.1l-.47-1.55-1.1 1.18c-.84.9-.78 2.76-1.1 5.02-.18.68-.34 1.3-.47 1.82-.38 1.5-3.8 6.12-5.24 8.3-.83-.25-1.46-.22-1.7.17 0 0 0 0 0-.02 0 0 .02-.02.03-.03 0 0-3.9 5.1-4.32 6.33-.14.4.44 1.17 1.3 1.97 0 0-2.98 3.58-2.9 3.72.07.1.5.03.5.03l3.96-.02 1.27-1.57c1.06.67 1.96 1.08 2.2.88.65-.58 4.76-6.2 4.8-6.25.23-.4 0-1.1-.55-1.85 1.53-2.16 5.56-7.85 7.13-9.98.58-.55 2.56-.85 3.36-1.14.77-.27 1.64-.58 2.4-1 1.97-1.1 3.26-3.07 3.55-3.8l.3-.82c.2-.03.4-.06.54-.07 2.76-.33 4.4-1.16 4.74-1.45.36-.32.92-.8 1.1-1.25-.4.02-2.48 0-2.35-.7.07-.38.83-.62.83-.62 1.2-.2 2.23-.38 2.37-.4 1.53-.1 2.72-.9 3.6-1.48.28-.2.55-.38.77-.5.83-.4 1.45-.62 1.87-.6.42 0 1.83.3 1.83.3l.03-12.5c0 .02-34.1.03-34.7.02z" stroke-linecap="round"/><path fill="#401b56" stroke="#281e4e" stroke-width=".3" stroke-miterlimit="10" d="M282.82 422.4l3.44-4.52 2.8 2.1-1.83 2.4-4.4.02z" stroke-linecap="round" stroke-linejoin="round"/><path fill="#582f80" stroke="#281e4e" stroke-width=".3" stroke-miterlimit="10" d="M291.12 414.37c-1.92-1.4-3.1-3.18-2.66-3.94 0-.02.02-.03.03-.04 0 0-3.7 4.97-4.13 6.2-.43 1.24 5.64 5.65 6.3 5.05.68-.6 4.64-5.93 4.64-5.93l-.02-.02c-.62.53-2.4-.02-4.16-1.33z" stroke-linecap="round" stroke-linejoin="round"/><path fill="#ae9fc1" stroke="#281e4e" stroke-width=".3" stroke-miterlimit="10" d="M295.4 415.57c-.45.77-2.38.24-4.3-1.17-1.9-1.4-3.1-3.18-2.65-3.95.45-.76 2.38-.24 4.3 1.18 1.9 1.4 3.1 3.18 2.65 3.94z" stroke-linecap="round" stroke-linejoin="round"/><path fill="#e7ea81" stroke="#281e4e" stroke-width=".3" stroke-miterlimit="10" d="M294.3 414.72c-.3.53-1.65.16-2.98-.82-1.34-.98-2.17-2.22-1.85-2.75.3-.53 1.65-.17 3 .82 1.33.98 2.15 2.2 1.84 2.75z" stroke-linecap="round" stroke-linejoin="round"/><path fill="#fbb416" d="M295.75 401.45c.65-2.96.34-5.46 1.37-6.57l1.1-1.2.5 1.57c0 .04.02.07.03.1.02-.08.03-.17.05-.24.08-.43.2-1.08.72-1.63.63-.68.54-.8.32-1.08-1.04-1.38-.72-2.58-.48-3.13.24-.56.9-1.28.9-1.28l1 1.14c.33.37.9.53 1.4.55.18-.18.24-1.28-.07-1.86-.5-.93-1.28-1.47-1.95-1.5-1.06-.07-3.28-1-3.74-2.53-.24-.8-.12-2.05.7-2.88 0 0 1.48 1.15 2.15.84.2-.1-.43-.55-.5-.63-.9-1.1-3.57-1.72-4.35-2.13-.94-.5-1.4-1.15-1.4-1.15l33.07-.02-.02 11.97s-.56-.3-.98-.3c-.43-.03-1.06.2-1.9.6-.23.12-.5.3-.8.5-.88.6-2.1 1.4-3.65 1.5-.14.03-1.2.2-2.4.42 0 0-.85.3-1.1.62-.18.27 1.78.78 2.2.75-.18.46-.4.63-.7.94-.42.4-2 1.43-4.8 1.77-.15.03-.34.05-.54.1l-.32.82c-.3.74-1.6 2.75-3.6 3.86-.78.44-1.66.75-2.44 1.03-.85.3-3.03.63-3.5 1.24-1.07 1.36-6.27-2.2-6.27-2.2z"/><path fill="#f5eb23" d="M294.25 414.56s7.64-10.8 8.43-11.76c.8-.95 3.12-1.3 4.82-2.25 1.7-.94 2.92-2.72 3.18-3.38-.5.2-1.9 1.7-2.23.76-.16-.45-.12-1.1.68-1.46.8-.36 2.36-.7 3.2-.8 2.52-.28 3.75-1.45 4-1.75.26-.3-2.74.46-1.25-1-2.6.05.1-1.07.1-1.07s3.75-.67 3.98-.68c1.8-.12 3.1-1.42 4.08-1.9 1.84-.93 3.34-.54 3.34-.54v-10.88h-32.2s4.34 1.1 5.6 2.68c2.14 2.67 1.47 2.72 1.16 2.7-.32 0-3.32-.45-3.2-1.16-.76 1.54 1.3 3.14 2.8 3.23 1.3.08 2.18 1.13 2.7 2.1.5.97.5 3.3-.83 3.24-1.33-.06-2.1-1.18-2.22-1.5-.74.6-.24 2.1.2 2.67.45.58.7 1.2-.38 2.32-.8.84-.1 2.2-1.48 2.22-.33 0-.74-.24-.9-.8-1.07 1.12-1.83 4.5-2.3 6.3-.45 1.8-5.1 7.86-5.88 9.3-.65 1.22 3.83 4.8 4.6 3.42z"/><path fill="#f7e48c" d="M300.62 396.14c0-.08.13-1.56.15-1.65.95-1.35.92-2.03.87-2.86.93-.06 2.02-.4 2.52-1.2.82-1.37 1.58-2.7.95-3.92-.48-.93-1.48-2.7-1.45-2.74.62-1.28-1.07-4.24-4.08-5.93l26.97-.04v7.47c-.8.05-3.03.6-4.15 1.15-.4.2-1.34.98-1.7 1.23-.73.48-1.27 1.18-2.06 1.23-.12 0 .06.42-3.8 1.1l-.2.04-.17.08c-.68.28-2.74 1.13-2.38 2.96.04.23-.1.94.9 1.3.96.33-3.27.7-4.3 1.3-.65.38-1.15.84-2.72 3.05-.05.07-.16-.36-.87-.1-1.3.45-4.8-.75-4.48-2.46z"/><path fill="#f8f29a" d="M304.4 398c-.9 0-2.32-.5-2.9-1.18-.25-.3-.2-.5-.2-.55 0-.04.03-.32.06-.65.03-.3.06-.67.08-.88.7-1.05.9-1.77.9-2.5.8-.13 1.84-.5 2.42-1.45.8-1.34 1.8-3 .97-4.6-.2-.37-.48-.87-.74-1.35-.22-.38-.46-.84-.6-1.1.4-1.44-.7-4.2-2.6-5.87l24.78-.13v6.9c-1.23.18-3.48.64-4.5 1.15-.28.14-.68.44-1.22.85-.22.18-.43.34-.56.42-.23.16-.44.33-.65.5-.4.32-.72.6-1.05.6l-.27.03-.23.22c-.05.04-.52.38-3.37.88l-.27.05-.26.1c-2.16.9-3.1 2.16-2.8 3.75.03.2.05.6.3.97-.16.03-.3.06-.43.08-1.37.27-2.38.48-2.92.8-.73.43-1.26.94-2.6 2.8-.07-.03-.15-.03-.24-.03-.2 0-.4.04-.62.1-.06.04-.2.08-.47.08z"/><path fill="#f9eff3" d="M293.07 414.48c-.9-.12-2.8-1.75-3-2.45.3-.5 1.5-2.1 2.26-3.2 2.14-3.08 3.68-5.5 4.13-6.65.46-1.2 1.2-2.8 1.36-3.55 1.3.12 2.08-.5 2.48-1.77.46-1.47.7-1.7 1.38-2.84.47-.8.12-1.46.27-2 .47.64.75.18 1.15 0 1.85-.94 2.94-2.34 5.9-2.87.58 1.3-.34 4.2.6 5.1-.47.63-1.33.53-1.57.8-.96 1-1.43 2.96-2.13 3.78-.2.22-.15 1.17-.32 1.26-1.1.57-3 1.34-3.63 2.1-.77.92-8.07 11.14-8.88 12.28z"/><ellipse cx="291.991" cy="412.802" fill="#e7e861" stroke="#000" stroke-width=".1" stroke-miterlimit="10" transform="matrix(.819 .573 -.573 .819 289.422 -92.824)" rx=".931" ry=".325" stroke-linecap="round" stroke-linejoin="round"/><path fill="#e7ea81" stroke="#281e4e" stroke-width=".3" stroke-miterlimit="10" d="M294.36 414.76c-.3.53-1.66.17-3-.82-1.33-.98-2.16-2.2-1.84-2.75.3-.54 1.65-.17 3 .8 1.33 1 2.16 2.23 1.84 2.76z" opacity=".3" stroke-linecap="round" stroke-linejoin="round"/><path fill="#bc8ca5" d="M292.9 413.76c-.83-.2-1.5-.67-1.74-1.35.4-.6 1.42-2.14 2-3 2.64-3.77 3.98-5.97 4.72-7.1 1.1-1.7 3.78-4.6 5.2-5 .05 1.44-2 5.25-2.67 6.04-.8.96-5.44 7.5-7.5 10.42z"/><path fill="#8fc5eb" d="M292.47 413.38c-.74-.17-1.36-.6-1.57-1.23.36-.56 1.46-2.14 2-2.92 2.4-3.45 3.62-5.45 4.3-6.5 1-1.53 3.45-4.17 4.73-4.54.06 1.3-1.82 4.77-2.43 5.5-.72.86-5.14 7-7.03 9.68z"/><path fill="#d4effc" d="M291.95 413.18c-.3-.07-.56-.26-.64-.5.16-.24.6-.9.83-1.2.98-1.42 1.48-2.24 1.76-2.66.4-.63 1.4-1.7 1.92-1.86.03.53-.74 1.95-1 2.25-.28.36-2.1 2.88-2.87 3.98z"/><path fill="#80679c" d="M288.04 411.54c.13.5 1.04 1.63 1.04 1.63l-3.3 4.8s-1.2-.9-1.07-1.26c.13-.37 3.34-5.16 3.34-5.16z"/><path fill="#f6f5c2" d="M288 411.67c.2.45.46.7.46.7l-3.38 4.9s-.43-.23-.3-.6c.12-.38 3.22-5 3.22-5z"/><path fill="#80679c" d="M285.7 419.02c.14.23.68.67.68.67l-1.88 2.55s-.64.02-1.02-.02c.07-.2 2.2-3.2 2.2-3.2z"/><path fill="#f6f5c2" d="M285.7 419.05c.14.25.35.37.35.37l-2.08 2.83s-.22.03-.5-.03c.1-.2 2.22-3.17 2.22-3.17z"/></g></svg>