<svg xmlns="http://www.w3.org/2000/svg" width="48" height="48"><defs><radialGradient id="a" cx="-1268.078" cy="132.7" r="20.105" gradientUnits="userSpaceOnUse" gradientTransform="matrix(-1 0 0 1 -1245.968 0)" fy="132.7" fx="-1268.078"><stop offset="0" stop-color="#fff"/><stop offset="1" stop-color="#709EC3"/></radialGradient><linearGradient id="b" x1="-1263.636" x2="-1270.868" y1="132.362" y2="123.171" gradientTransform="matrix(-1.01 0 0 1.01 -1259.126 -84.809)" gradientUnits="userSpaceOnUse"><stop offset="0" stop-color="#fff"/><stop offset=".805" stop-color="#5983B3"/><stop offset="1" stop-color="#3065A0"/></linearGradient><linearGradient id="c" x1="-1262.643" x2="-1263.794" y1="127.96" y2="126.617" gradientTransform="matrix(-1 0 0 1 -1245.968 0)" gradientUnits="userSpaceOnUse"><stop offset="0" stop-color="#fff"/><stop offset="1" stop-color="#94ABC8"/></linearGradient><radialGradient id="d" cx="-1262.744" cy="124.579" r="12.87" gradientUnits="userSpaceOnUse" gradientTransform="matrix(-1.01 0 0 1.01 -1259.126 -84.809)" fy="124.579" fx="-1262.744"><stop offset="0" stop-color="#fff"/><stop offset="1" stop-color="#709EC3"/></radialGradient><radialGradient id="e" cx="-1265.814" cy="115.859" r="18.249" gradientUnits="userSpaceOnUse" gradientTransform="matrix(-1.01 0 0 1.01 -1259.126 -84.809)" fy="115.859" fx="-1265.814"><stop offset="0" stop-color="#1B3859"/><stop offset=".216" stop-color="#1C3B5E"/><stop offset=".475" stop-color="#21456D"/><stop offset=".756" stop-color="#285485"/><stop offset="1" stop-color="#3065A0"/></radialGradient><linearGradient id="f" x1="-1263.874" x2="-1252.526" y1="110.235" y2="104.465" gradientTransform="matrix(-1.01 0 0 1.01 -1259.126 -84.809)" gradientUnits="userSpaceOnUse"><stop offset=".045" stop-color="#97B7D1"/><stop offset=".24" stop-color="#BFD2DF"/><stop offset=".592" stop-color="#fff"/><stop offset=".675" stop-color="#F4F7F9"/><stop offset="1" stop-color="#CADAE4"/></linearGradient><radialGradient id="g" cx="-1267.316" cy="106.865" r="13.394" gradientUnits="userSpaceOnUse" gradientTransform="matrix(-1.01 0 0 1.01 -1259.126 -84.809)" fy="106.865" fx="-1267.316"><stop offset="0" stop-color="#1B3859"/><stop offset=".71" stop-color="#89A9C3"/><stop offset="1" stop-color="#C4D7E6"/></radialGradient><radialGradient id="h" cx="-1263.418" cy="122.903" r="15.36" gradientUnits="userSpaceOnUse" gradientTransform="matrix(-1 0 0 1 -1245.968 0)" fy="122.903" fx="-1263.418"><stop offset="0" stop-color="#fff"/><stop offset=".135" stop-color="#F9FBFD"/><stop offset=".314" stop-color="#E8F0F5"/><stop offset=".519" stop-color="#CCDDEA"/><stop offset=".743" stop-color="#A6C2DA"/><stop offset=".979" stop-color="#75A1C5"/><stop offset="1" stop-color="#709EC3"/></radialGradient><radialGradient id="i" cx="-1265.691" cy="120.788" r="9.033" gradientUnits="userSpaceOnUse" gradientTransform="matrix(-1.01 0 0 1.01 -1259.126 -84.809)" fy="120.788" fx="-1265.691"><stop offset="0" stop-color="#fff"/><stop offset=".129" stop-color="#F7F9FB"/><stop offset=".33" stop-color="#E1E9F0"/><stop offset=".492" stop-color="#CAD9E4"/><stop offset=".788" stop-color="#A2BFD5"/><stop offset=".967" stop-color="#CAD9E4"/><stop offset="1" stop-color="#C3D4E1"/></radialGradient><linearGradient id="j" x1="-1273.605" x2="-1264.943" y1="113.551" y2="113.551" gradientTransform="matrix(-1.01 0 0 1.01 -1259.126 -84.809)" gradientUnits="userSpaceOnUse"><stop offset=".006" stop-color="#A9C4D8"/><stop offset=".151" stop-color="#709EC3"/><stop offset=".218" stop-color="#709EC3"/><stop offset=".654" stop-color="#fff"/><stop offset=".719" stop-color="#F7FAFB"/><stop offset=".817" stop-color="#E3EBEF"/><stop offset=".855" stop-color="#D9E4EA"/><stop offset="1" stop-color="#A6C1D5"/></linearGradient><radialGradient id="k" cx="-1266.966" cy="108.158" r="7.628" gradientUnits="userSpaceOnUse" gradientTransform="matrix(-1.01 0 0 1.01 -1259.126 -84.809)" fy="108.158" fx="-1266.966"><stop offset="0" stop-color="#fff"/><stop offset=".492" stop-color="#CAD9E4"/><stop offset=".788" stop-color="#A2BFD5"/><stop offset=".905" stop-color="#CAD9E4"/></radialGradient><radialGradient id="l" cx="-1271.372" cy="109.702" r="10.166" gradientUnits="userSpaceOnUse" gradientTransform="matrix(-1.01 0 0 1.01 -1259.126 -84.809)" fy="109.702" fx="-1271.372"><stop offset="0" stop-color="#fff"/><stop offset=".077" stop-color="#F4F7F9"/><stop offset=".38" stop-color="#CADAE4"/><stop offset=".462" stop-color="#C3D4DF"/><stop offset=".58" stop-color="#B0C3D0"/><stop offset=".72" stop-color="#90A7B7"/><stop offset=".875" stop-color="#658095"/><stop offset=".961" stop-color="#4A6880"/></radialGradient><linearGradient id="m" x1="-1267.229" x2="-1273.69" y1="103.715" y2="103.715" gradientTransform="matrix(-1.01 0 0 1.01 -1259.126 -84.809)" gradientUnits="userSpaceOnUse"><stop offset="0" stop-color="#fff"/><stop offset=".115" stop-color="#E2ECF5"/><stop offset=".29" stop-color="#B8D1E6"/><stop offset=".398" stop-color="#B1CBE1"/><stop offset=".554" stop-color="#9EBAD1"/><stop offset=".739" stop-color="#7E9EB8"/><stop offset=".927" stop-color="#577B99"/></linearGradient><linearGradient id="n" x1="-1258.873" x2="-1265.333" y1="118.339" y2="99.514" gradientTransform="matrix(-1.01 0 0 1.01 -1259.126 -84.809)" gradientUnits="userSpaceOnUse"><stop offset="0" stop-color="#fff"/><stop offset=".077" stop-color="#F4F7F9"/><stop offset=".38" stop-color="#CADAE4"/><stop offset=".49" stop-color="#C3D5E1"/><stop offset=".65" stop-color="#B0C9DA"/><stop offset=".838" stop-color="#91B4CF"/><stop offset="1" stop-color="#709EC3"/></linearGradient><linearGradient id="o" x1="-1262.678" x2="-1259.8" y1="107.012" y2="100.747" gradientTransform="matrix(-1.01 0 0 1.01 -1259.126 -84.809)" gradientUnits="userSpaceOnUse"><stop offset=".045" stop-color="#97B7D1"/><stop offset=".24" stop-color="#BFD2DF"/><stop offset=".592" stop-color="#fff"/><stop offset=".675" stop-color="#F4F7F9"/><stop offset="1" stop-color="#CADAE4"/></linearGradient><linearGradient id="p" x1="-1261.183" x2="-1261.183" y1="98.946" y2="108.993" gradientTransform="matrix(-1.01 0 0 1.01 -1259.126 -84.809)" gradientUnits="userSpaceOnUse"><stop offset="0" stop-color="#CADAE4"/><stop offset=".099" stop-color="#D1DFE8"/><stop offset=".243" stop-color="#E4ECF1"/><stop offset=".391" stop-color="#fff"/><stop offset=".631" stop-color="#fff"/><stop offset=".842" stop-color="#C2D5E4"/><stop offset="1" stop-color="#98B9D2"/></linearGradient><radialGradient id="q" cx="-1271.687" cy="107.034" r="5.613" gradientUnits="userSpaceOnUse" gradientTransform="matrix(-1.01 0 0 1.01 -1259.126 -84.809)" fy="107.034" fx="-1271.687"><stop offset="0" stop-color="#8FB0CC"/><stop offset=".284" stop-color="#BACFE0"/><stop offset=".574" stop-color="#E0E9F1"/><stop offset=".808" stop-color="#F7F9FB"/><stop offset=".955" stop-color="#fff"/></radialGradient><radialGradient id="r" cx="-1268.93" cy="93.57" r="9.886" gradientUnits="userSpaceOnUse" gradientTransform="matrix(-1 0 0 1 -1245.968 0)" fy="93.57" fx="-1268.93"><stop offset="0" stop-color="#fff"/><stop offset=".547" stop-color="#B7CEDE"/><stop offset="1" stop-color="#7FA8C4"/></radialGradient><radialGradient id="s" cx="-1268.433" cy="92.609" r="6.967" gradientUnits="userSpaceOnUse" gradientTransform="matrix(-1.01 0 0 1.01 -1259.126 -84.809)" fy="92.609" fx="-1268.433"><stop offset="0" stop-color="#fff"/><stop offset=".547" stop-color="#B7CEDE"/><stop offset="1" stop-color="#7FA8C4"/></radialGradient><radialGradient id="t" cx="-1261.918" cy="125.303" r="79.165" gradientUnits="userSpaceOnUse" gradientTransform="matrix(-1.01 0 0 1.01 -1259.126 -84.809)" fy="125.303" fx="-1261.918"><stop offset="0" stop-color="#fff"/><stop offset="1" stop-color="#709EC3"/></radialGradient><radialGradient id="u" cx="-1269.377" cy="91.697" r="9.089" gradientUnits="userSpaceOnUse" gradientTransform="matrix(-1.01 0 0 1.01 -1259.126 -84.809)" fy="91.697" fx="-1269.377"><stop offset="0" stop-color="#fff"/><stop offset=".211" stop-color="#FAFBFD"/><stop offset=".464" stop-color="#EBF1F5"/><stop offset=".738" stop-color="#D3E0EA"/><stop offset="1" stop-color="#B5CBDB"/></radialGradient><linearGradient id="v" x1="-1269.689" x2="-1270.023" y1="99.334" y2="94.574" gradientTransform="matrix(-1.01 0 0 1.01 -1259.126 -84.809)" gradientUnits="userSpaceOnUse"><stop offset=".117" stop-color="#fff"/><stop offset=".332" stop-color="#B8C6D6"/><stop offset=".666" stop-color="#507298"/><stop offset=".816" stop-color="#265080"/><stop offset="1" stop-color="#265080"/></linearGradient><radialGradient id="w" cx="-1281.593" cy="81.428" r="14.92" gradientUnits="userSpaceOnUse" gradientTransform="matrix(-1.01 0 0 1.01 -1259.126 -84.809)" fy="81.428" fx="-1281.593"><stop offset="0" stop-color="#1B3859"/><stop offset=".71" stop-color="#89A9C3"/><stop offset="1" stop-color="#DAE7F2"/></radialGradient><radialGradient id="x" cx="-1268.8" cy="92.998" r="11.996" gradientUnits="userSpaceOnUse" gradientTransform="matrix(-1 0 0 1 -1245.968 0)" fy="92.998" fx="-1268.8"><stop offset="0" stop-color="#1B3859"/><stop offset=".71" stop-color="#89A9C3"/><stop offset="1" stop-color="#C4D7E6"/></radialGradient><linearGradient id="y" x1="-1270.846" x2="-1268.411" y1="91.289" y2="91.289" gradientTransform="matrix(-1.01 0 0 1.01 -1259.126 -84.809)" gradientUnits="userSpaceOnUse"><stop offset="0" stop-color="#1B3859"/><stop offset="1" stop-color="#709EC3"/></linearGradient><radialGradient id="z" cx="-1297.88" cy="122.321" r="51.766" gradientUnits="userSpaceOnUse" gradientTransform="matrix(-1.01 0 0 1.01 -1259.126 -84.809)" fy="122.321" fx="-1297.88"><stop offset="0" stop-color="#1B3859"/><stop offset=".453" stop-color="#89A9C3"/><stop offset="1" stop-color="#D5E5F2"/></radialGradient><radialGradient id="A" cx="-1271.79" cy="86.059" r="3.234" gradientUnits="userSpaceOnUse" gradientTransform="matrix(-1.01 0 0 1.01 -1259.126 -84.809)" fy="86.059" fx="-1271.79"><stop offset="0" stop-color="#1B3859"/><stop offset=".71" stop-color="#89A9C3"/><stop offset="1" stop-color="#C4D7E6"/></radialGradient><radialGradient id="B" cx="-1270.439" cy="86.047" r="4.664" gradientUnits="userSpaceOnUse" gradientTransform="matrix(-1.01 0 0 1.01 -1259.126 -84.809)" fy="86.047" fx="-1270.439"><stop offset="0" stop-color="#1B3859"/><stop offset=".71" stop-color="#89A9C3"/><stop offset="1" stop-color="#C4D7E6"/></radialGradient><linearGradient id="C" x1="-1269.872" x2="-1275.498" y1="96.832" y2="88.127" gradientTransform="matrix(-1.01 0 0 1.01 -1259.126 -84.809)" gradientUnits="userSpaceOnUse"><stop offset="0" stop-color="#fff"/><stop offset=".077" stop-color="#F4F7F9"/><stop offset=".38" stop-color="#CADAE4"/><stop offset=".49" stop-color="#C3D5E1"/><stop offset=".65" stop-color="#B0C9DA"/><stop offset=".838" stop-color="#91B4CF"/><stop offset="1" stop-color="#709EC3"/></linearGradient><radialGradient id="D" cx="-1271.827" cy="89.685" r="27.313" gradientUnits="userSpaceOnUse" gradientTransform="matrix(-1.01 0 0 1.01 -1259.126 -84.809)" fy="89.685" fx="-1271.827"><stop offset="0" stop-color="#1B3859"/><stop offset=".102" stop-color="#1E3B5C"/><stop offset=".18" stop-color="#284565"/><stop offset=".25" stop-color="#385574"/><stop offset=".315" stop-color="#4F6C89"/><stop offset=".377" stop-color="#6D89A4"/><stop offset=".435" stop-color="#91ADC5"/><stop offset=".447" stop-color="#99B5CC"/><stop offset="1" stop-color="#B8D1E6"/></radialGradient><radialGradient id="E" cx="-1273.211" cy="92.602" r="3.336" gradientUnits="userSpaceOnUse" gradientTransform="matrix(-1.01 0 0 1.01 -1259.126 -84.809)" fy="92.602" fx="-1273.211"><stop offset="0" stop-color="#1B3859"/><stop offset=".453" stop-color="#B8D1E6"/><stop offset=".642" stop-color="#C4D7E6"/><stop offset=".838" stop-color="#709EC3"/></radialGradient><radialGradient id="F" cx="-1277.596" cy="99.49" r="13.145" gradientUnits="userSpaceOnUse" gradientTransform="matrix(-1.01 0 0 1.01 -1259.126 -84.809)" fy="99.49" fx="-1277.596"><stop offset="0" stop-color="#1B3859"/><stop offset=".335" stop-color="#89A9C3"/><stop offset=".393" stop-color="#9FBAD0"/><stop offset=".464" stop-color="#B4CADC"/><stop offset=".534" stop-color="#C0D4E4"/><stop offset=".603" stop-color="#C4D7E6"/><stop offset=".71" stop-color="#C4D7E6"/><stop offset=".905" stop-color="#89A9C3"/></radialGradient><radialGradient id="G" cx="-1276.84" cy="90.99" r="2.393" gradientUnits="userSpaceOnUse" gradientTransform="matrix(-1 0 0 1 -1245.968 0)" fy="90.99" fx="-1276.84"><stop offset="0" stop-color="#1B3859"/><stop offset=".71" stop-color="#89A9C3"/><stop offset="1" stop-color="#C4D7E6"/></radialGradient><radialGradient id="H" cx="-1275.436" cy="90.669" r="4.015" gradientUnits="userSpaceOnUse" gradientTransform="matrix(-1 0 0 1 -1245.968 0)" fy="90.669" fx="-1275.436"><stop offset="0" stop-color="#1B3859"/><stop offset=".71" stop-color="#89A9C3"/><stop offset="1" stop-color="#C4D7E6"/></radialGradient><radialGradient id="I" cx="-1276.024" cy="89.805" r="5.073" gradientUnits="userSpaceOnUse" gradientTransform="matrix(-1.01 0 0 1.01 -1259.126 -84.809)" fy="89.805" fx="-1276.024"><stop offset="0" stop-color="#1B3859"/><stop offset=".71" stop-color="#89A9C3"/><stop offset="1" stop-color="#C4D7E6"/></radialGradient><radialGradient id="J" cx="-1273.562" cy="89.412" r="2.167" gradientUnits="userSpaceOnUse" gradientTransform="matrix(-1.01 0 0 1.01 -1259.126 -84.809)" fy="89.412" fx="-1273.562"><stop offset="0" stop-color="#1B3859"/><stop offset=".71" stop-color="#89A9C3"/><stop offset="1" stop-color="#C4D7E6"/></radialGradient><radialGradient id="K" cx="-1273.606" cy="90.838" r="4.433" gradientUnits="userSpaceOnUse" gradientTransform="matrix(-1.01 0 0 1.01 -1259.126 -84.809)" fy="90.838" fx="-1273.606"><stop offset="0" stop-color="#1B3859"/><stop offset=".445" stop-color="#C1D4E4"/><stop offset=".453" stop-color="#C4D7E6"/><stop offset=".642" stop-color="#C4D7E6"/><stop offset=".838" stop-color="#709EC3"/></radialGradient></defs><g><path fill="none" stroke="#284459" stroke-width="1.5" d="M29.2 16.03l-1.56 4.46-.05 1.88v.08-.08c.23.18.4.4.4.84 0 .24-.16.47-.44.67l-.25 9.6.02-.1c.33.32.57.66.7 1.04v-.04c1.13.77 1.22 1.85 1.3 2.23.07.27.12.54.1.83v-.05c2.06 1.03 3.3 2.6 3.14 4.35-.27 3.07-4.72 5.57-9.95 5.57-.94 0-1.84-.08-2.7-.24l-6.1-6.12c.35-1.04 1.2-2 2.35-2.77.18-1.17.26-1.95.5-2.5.3-.7 1.67-1.6 1.67-1.6.12-.2.3-.42.5-.62l.04-9.45"/><path fill="none" stroke="#284459" stroke-width="1.5" d="M16.82 15.5v-.02c0 1.36-3.9 3.46-5.5 3.95-1.6.5-1.67.78-1.78 1.9 0 0 0 .56 0 1.14 0 .63-.02 1.28.3 1.56l1.56 1.2s.47.32.85-.02c.05-.04.1-.13.12-.25v.02h.02l8.22-1.3s.43-.07.43-.27"/><path fill="none" stroke="#284459" stroke-width="1.5" d="M28.6 12.2c1.44.23 2.14.8 2.14 1.72 0 .75 0 1.17 0 1.17-.1.85-3.35 1.55-7.26 1.55-3.9 0-6.98-.7-6.87-1.56 0 0 0-.36 0-1.1 0-.94.7-1.52 2.05-1.76l.13-.03c1.18-.22 2.96-.38 4.94-.38 1.97 0 3.72.15 4.88.38z"/><path fill="none" stroke="#284459" stroke-width="1.5" d="M23.67 4.37c-.45.14-1.35.05-1.77-.7-.8-1.43.95-2.85 4.32-2.85h.03"/><path fill="none" stroke="#284459" stroke-width="1.5" d="M24.77 1.18c-.93-.57-2.3-.05-2.43 1.27-.12 1.2.18 2.15.56 2.2l-.3 8.9c-.02.2.1.3.52.3.46 0 .64-.1.65-.3l.27-8.96.73-3.42z"/><path fill="none" stroke="#284459" stroke-width="1.5" d="M27.4 5.53c-.67 0-1.26.46-1.35 1.07v-.02l-.48 5.28"/><path fill="none" stroke="#284459" stroke-width="1.5" d="M30.68 11.47c.38.86.78 2.32 1.2 3.94.9 3.3.5 4.18 1.47 7.8s1.47 5.5 1.7 6.36c.24.9.3 2.17-.4 3.1l.83.98.93.43c.9-1.36 1.42-2.9.97-4.56 0 0-.63-2.35-1.8-6.7-1.17-4.37.03-8.35-1.82-15.24C31.9.66 27.35.44 25.4.96c-2.23.6-2.86 2.12-1.85 3.3.63.72 1.35.18 1.66-.1.62-.54.46-.73.86-.88.76-.34 3.28-.3 1.83 3.13.17.2.3.32.3.32"/><path fill="none" stroke="#284459" stroke-width="1.5" d="M26.24 3.2c.84.25 1.4 1.23 1 2.63"/><g transform="matrix(1.01 0 0 1.01 -.363 -84.809)"><radialGradient cx="-1268.078" cy="132.7" r="20.105" gradientUnits="userSpaceOnUse" gradientTransform="matrix(-1 0 0 1 -1245.968 0)" fy="132.7" fx="-1268.078"><stop offset="0" stop-color="#fff"/><stop offset="1" stop-color="#709EC3"/></radialGradient><path fill="url(#a)" d="M14.3 124.16l5.94 5.9c.8.13 1.64.2 2.52.2 5.03 0 9.32-2.35 9.58-5.24.26-2.9-3.6-5.24-8.65-5.24-4.53 0-8.45 1.9-9.4 4.38zm2.25-.54c.18-2.03 3.3-3.68 7-3.68 3.68 0 6.52 1.65 6.35 3.68-.18 2.03-3.3 3.68-7 3.68-3.68 0-6.52-1.65-6.35-3.68z"/></g><path fill="url(#b)" d="M14.1 40.6c.94-2.5 4.9-4.42 9.48-4.42 5.08 0 9 2.37 8.73 5.3-.25 2.9-4.6 5.28-9.67 5.28-.9 0-1.75-.07-2.55-.2l-.18.52c.86.16 1.76.24 2.7.24 5.24 0 9.7-2.5 9.96-5.57.27-3.08-3.75-5.58-8.97-5.58-4.77 0-8.9 2.1-9.8 4.78l.3-.35z"/><path fill="url(#c)" d="M14.02 124.5l6.04 6.07.18-.52-5.93-5.9-.28.36z" transform="matrix(1.01 0 0 1.01 -.363 -84.809)"/><path fill="url(#d)" d="M18.33 34.1s-1.38.9-1.7 1.6c-.24.6-.3 1.46-.53 2.8-.15.9-.46.75-.7 1.2-.18.38-.1.8 1.94 2.78 3.25 3.13 3.7 3.38 7.94 2.73 6.15-.93 6.22-4.18 5.6-5.52-.43-.95-.98-1.35-1.5-2.06l-.06.3c.35.74.52 2.13.52 2.13-.17 1.94-3 3.53-6.42 3.7-.8 0-1.45-.58-1.42-1.3.02-.7.7-1.3 1.5-1.3h-.03c3.18-.2 5.77-1.78 5.94-3.7.04-.28 0-.55-.07-.83-.1-.37-.18-1.45-1.32-2.22l-9.67-.3z"/><path fill="url(#e)" d="M29.32 37.93c.36.73.52 2.13.52 2.13-.17 1.93-2.98 3.52-6.42 3.7-.8 0-1.45-.58-1.42-1.3.02-.7.68-1.28 1.47-1.3 2.93-.2 5.38-1.55 5.86-3.27v.03z"/><path fill="url(#f)" d="M11.65 22.77c0 .64.04 1.4-.12 1.3l-1.55-1.03 1.67-.27z"/><path fill="url(#g)" d="M19.6 16.37c0 .68-.13 2.5-6.82 4.6-1.24.38-1.14.83-1.14 1.5 0 .1 0 .2 0 .3l-1.66.27c0-1.48 0-2.68.72-2.9 3.44-1 6.04-2.96 6.67-4.33v.03c.52.23 1.3.42 2.24.56v-.03z"/><ellipse cx="23.08" cy="119.827" fill="url(#h)" transform="matrix(1.01 0 0 1.01 -.363 -84.809)" ry="3.05" rx="6.013"/><path fill="url(#i)" d="M27.3 33.83c0 1.13-1.9 2.05-4.25 2.05-2.34 0-4.24-.92-4.24-2.05v-.35c-.45.44-.7.97-.7 1.52 0 1.63 2.23 2.95 5 2.95s5-1.32 5-2.95c0-.6-.28-1.13-.78-1.6l-.02.43z"/><path fill="url(#j)" d="M18.8 33.83l.06-9.8c.85.48 2.43.8 4.24.8 1.98 0 3.7-.4 4.46-.94l-.26 9.93c0 1.13-1.9 2.05-4.25 2.05-2.34 0-4.24-.92-4.24-2.05z"/><path fill="url(#k)" d="M18.74 23.96c.8.5 2.46.86 4.36.86 2.7 0 4.9-.7 4.9-1.6 0-.43-.17-.66-.4-.84v.08c0 .78-2.02 1.4-4.5 1.4-.9 0-1.73-.07-2.43-.2l-1.93.3z"/><path fill="url(#l)" d="M20.62 23.66s.43-.06.43-.26L21 16.8c0-.1.03-.24-.52-.3.9.1 1.92.15 3 .15 2.3 0 4.4-.25 5.72-.62l-1.55 4.46-.05 1.88v.08c0 .78-2.02 1.4-4.5 1.4-.9 0-1.73-.07-2.43-.2h-.05z"/><path fill="url(#m)" d="M20.62 23.66s.43-.06.43-.26L21 16.8c0-.1.03-.24-.52-.3.9.1 1.92.15 3 .15 2.3 0 4.4-.25 5.72-.62l-1.55 4.46-.05 1.88v.08c0 .78-2.02 1.4-4.5 1.4-.9 0-1.73-.07-2.43-.2h-.05z"/><path fill="url(#n)" d="M20.48 16.48c0 2-2.45 3.57-7.3 5.06-.85.26-.8 1.02-.8 1.77 0 .6.07 1.28-.02 1.67h.03l8.22-1.3s.43-.07.43-.27L21 16.8c0-.1.03-.24-.52-.3v-.02z"/><path fill="url(#o)" d="M9.98 23.04c0-1.48 0-2.68.72-2.9 3.44-1 6.04-2.96 6.67-4.33v.03c-.24-.1-.42-.2-.55-.32v-.02c0 1.36-3.9 3.46-5.5 3.95-1.6.5-1.67.78-1.78 1.9 0 0 0 .56 0 1.14 0 .63-.02 1.28.3 1.56l1.56 1.2s.47.32.84-.02c.25-.2.15-1.14.15-1.9 0-.74-.07-1.5.77-1.76 4.86-1.5 7.3-3.05 7.3-5.06v.02c-.3-.04-.58-.07-.86-.1v-.03c0 .68-.13 2.5-6.82 4.6-1.24.38-1.14.83-1.14 1.5 0 .66.08 1.72-.1 1.6l-1.56-1.03"/><path fill="url(#p)" d="M9.98 23.04c0-1.48 0-2.68.72-2.9 3.44-1 6.04-2.96 6.67-4.33v.03c-.24-.1-.42-.2-.55-.32v-.02c0 1.36-3.9 3.46-5.5 3.95-1.6.5-1.67.78-1.78 1.9 0 0 0 .56 0 1.14 0 .63-.02 1.28.3 1.56l1.56 1.2s.47.32.84-.02c.25-.2.15-1.14.15-1.9 0-.74-.07-1.5.77-1.76 4.86-1.5 7.3-3.05 7.3-5.06v.02c-.3-.04-.58-.07-.86-.1v-.03c0 .68-.13 2.5-6.82 4.6-1.24.38-1.14.83-1.14 1.5 0 .66.08 1.72-.1 1.6l-1.56-1.03"/><path fill="url(#q)" d="M20.62 23.66s.43-.06.43-.26L21 16.8c0-.1.03-.24-.52-.3.9.1 1.92.15 3 .15 2.3 0 4.4-.25 5.72-.62l-1.55 4.46-.05 1.88v.08c0 .78-2.02 1.4-4.5 1.4-.9 0-1.73-.07-2.43-.2h-.05z"/><path fill="none" stroke="#284459" d="M18.65 12.24c-1.35.24-2.04.82-2.04 1.75 0 .74 0 1.1 0 1.1-.1.85 2.98 1.55 6.88 1.55s7.15-.7 7.26-1.56c0 0 0-.43 0-1.18 0-.92-.66-1.48-2.1-1.7-1.17-.24-2.93-.4-4.92-.4-1.92 0-3.64.15-4.82.37l-.25.04z"/><ellipse cx="23.792" cy="96.713" fill="url(#r)" transform="matrix(1.01 0 0 1.01 -.363 -84.809)" ry="1.045" rx="6.288"/><path fill="url(#s)" d="M27.46 13.23c-2.1.62-5.47 1.05-7.88.06-.53-.2-.06-.56 3.66-.56 3.73 0 4.64.37 4.22.5z"/><path fill="url(#t)" d="M20.76 39.23s.65 2.84.17 5.62c-.22.98-5.8-4.3-5.5-4.75.4-.6.8-.34 1.3-3.64.53 2.2 4.03 2.77 4.03 2.77z"/><path fill="none" stroke="#284459" stroke-width="1.5" d="M30.74 15.1c-.1.85-3.35 1.55-7.26 1.55-3.9 0-6.98-.7-6.87-1.56"/><path fill="url(#u)" d="M18.65 12.24c-1.35.24-2.04.82-2.04 1.75 0 .74 0 1.1 0 1.1-.1.85 2.98 1.55 6.88 1.55s7.15-.7 7.26-1.56c0 0 0-.43 0-1.18 0-.92-.57-1.46-2.02-1.7l-.17-.02c.93.18 1.5.42 1.48.68-.03.58-2.9 1.05-6.4 1.05-3.5 0-6.33-.47-6.3-1.05 0-.25.53-.48 1.4-.66l-.08.02z"/><path fill="url(#v)" d="M18.65 12.24c-1.35.24-2.04.82-2.04 1.75 0 .74 0 1.1 0 1.1-.1.85 2.98 1.55 6.88 1.55s7.15-.7 7.26-1.56c0 0 0-.43 0-1.18 0-.92-.57-1.46-2.02-1.7l-.17-.02c.93.18 1.5.42 1.48.68-.03.58-2.9 1.05-6.4 1.05-3.5 0-6.33-.47-6.3-1.05 0-.25.53-.48 1.4-.66l-.08.02z"/><path fill="url(#w)" d="M26.25.8c-.3.04-.6.1-.84.16-2.23.6-2.86 2.12-1.85 3.3.04.03.08.07.12.1-.45.16-1.35.06-1.77-.7-.8-1.42.95-2.84 4.32-2.84h.03z"/><path fill="url(#x)" d="M26.78 92.34l-.2 3.43.94.1.46-3.38-1.2-.16z" transform="matrix(1.01 0 0 1.01 -.363 -84.809)"/><path fill="none" stroke="#284459" stroke-width=".7" d="M24.77 1.18c-.93-.57-2.3-.05-2.43 1.27-.12 1.2.18 2.15.56 2.2l-.3 8.9c-.02.2.1.3.52.3.46 0 .64-.1.65-.3l.27-8.96.73-3.42z"/><path fill="url(#y)" d="M24.77 1.18c-.93-.57-2.3-.05-2.43 1.27-.12 1.2.18 2.15.56 2.2l-.3 8.9c-.02.2.1.3.52.3.46 0 .64-.1.65-.3l.27-8.96.73-3.42z"/><path fill="url(#z)" d="M30.72 8.76c.87.64 1.72 3.26 2.25 5.7.6 2.2.35 4.86 1.47 9 1.1 4.16 1.62 6.06 1.62 6.06.3 1.16.68 2-.5 4.03l-.08.1.93.42c.9-1.36 1.42-2.9.97-4.56 0 0-.63-2.35-1.8-6.7-1.17-4.37.03-8.35-1.82-15.24C31.9.66 27.35.44 25.4.96c-2.23.6-2.86 2.12-1.85 3.3.63.72 1.35.18 1.66-.1.62-.54.46-.73.86-.88.76-.34 3.28-.3 1.83 3.13.17.2.3.32.3.32l2.52 2.04z"/><path fill="url(#A)" d="M24.13 2.82c0 .52.35.95.77.95.43 0 .77-.43.77-.95 0-.53-.34-.95-.77-.95-.42 0-.77.42-.77.95z"/><path fill="url(#B)" d="M24.54 2.82c0 .4.25.73.57.73.32 0 .57-.33.57-.73 0-.4-.25-.73-.56-.73-.3 0-.56.3-.56.72z"/><path fill="url(#C)" d="M26.47 11.93l.22-3.47 1.7-2.55c-.27-.22-.62-.37-1-.37-.67 0-1.26.46-1.35 1.07v-.02l-.48 5.28"/><path fill="url(#D)" d="M30.72 8.76c.87.64 1.72 3.26 2.25 5.7.6 2.2.35 4.86 1.47 9 1.1 4.16 1.62 6.06 1.62 6.06.3 1.16.68 2-.5 4.03l-.08.1-.82-.98c.7-.94.63-2.22.4-3.1-.24-.88-.75-2.75-1.7-6.37-.98-3.62-.58-4.5-1.47-7.8-.45-1.6-.84-3.07-1.22-3.93l.04-2.7z"/><path fill="none" stroke="#284459" stroke-width="1.5" d="M27.44 12.02l.7-5c.07-.66.62-1.16 1.26-1.16.7 0 1.3.63 1.34 1.4l-.08 6.13"/><path fill="url(#E)" d="M28.74 6.12c-.55-.46-1.86-.62-2.25.4-.47 1.18-.03 2.02.66 2.2.53.08.75-.1.75-.1l.84-2.5z"/><path fill="url(#F)" d="M27.44 12.02l.7-5c.07-.66.62-1.16 1.26-1.16.7 0 1.3.63 1.34 1.4l-.08 6.13c-.2-.62-.8-1-1.94-1.17-.37-.08-.8-.15-1.28-.2z"/><circle cx="29.844" cy="91.353" r=".76" fill="url(#G)" transform="matrix(1.01 0 0 1.01 -.363 -84.809)"/><circle cx="30.046" cy="91.353" r=".559" fill="url(#H)" transform="matrix(1.01 0 0 1.01 -.363 -84.809)"/><path fill="url(#I)" d="M28.7 6.1s-.24-.23-.6-.28l-.2.6.3.3c.14-.4.5-.63.5-.63z"/><path fill="url(#J)" d="M26.5 6.5s.3-.26.6-.26c.05-.14.1-.28.13-.4-.56.13-.74.67-.74.67z"/><path fill="url(#K)" d="M26.24 3.2c.84.25 1.4 1.23 1 2.63.3-.16.87 0 .87 0 1.05-3.34-1.86-2.62-1.86-2.62z"/></g></svg>