<svg xmlns="http://www.w3.org/2000/svg" width="48" height="48" xmlns:xlink="http://www.w3.org/1999/xlink"><defs><linearGradient id="g"><stop offset="0" stop-color="#2e3436" stop-opacity=".508"/><stop offset="1" stop-color="#2e3436" stop-opacity="0"/></linearGradient><linearGradient id="f"><stop offset="0" stop-color="#fff"/><stop offset="1" stop-color="#fff" stop-opacity="0"/></linearGradient><linearGradient id="e"><stop offset="0"/><stop offset="1" stop-opacity="0"/></linearGradient><linearGradient id="d"><stop offset="0"/><stop offset="1" stop-opacity="0"/></linearGradient><linearGradient id="c"><stop offset="0" stop-color="#555753"/><stop offset="1"/></linearGradient><linearGradient id="b"><stop offset="0" stop-color="#eeeeec"/><stop offset="1" stop-color="#babdb6"/></linearGradient><linearGradient id="a"><stop offset="0" stop-color="#babdb6"/><stop offset="1" stop-color="#eeeeec"/></linearGradient><linearGradient id="j" x1="38.5" x2="43.506" y1="12.17" y2="9.742" xlink:href="#a" gradientUnits="userSpaceOnUse" gradientTransform="matrix(.998 -.07 .07 .998 -1.208 1.14)"/><linearGradient x1="38.5" x2="43.506" y1="12.17" y2="9.742" xlink:href="#a" gradientUnits="userSpaceOnUse" gradientTransform="translate(.818 -7.742)"/><linearGradient id="h" x1="27.856" x2="31.292" y1="7.14" y2="6.313" xlink:href="#a" gradientUnits="userSpaceOnUse" gradientTransform="matrix(.998 -.07 .07 .998 -1.208 1.14)"/><radialGradient id="l" cx="28.336" cy="14.652" r="12.732" xlink:href="#b" fx="28.336" fy="14.652" gradientTransform="matrix(1.763 1.176 -.643 .964 -13.352 -36.258)" gradientUnits="userSpaceOnUse"/><linearGradient id="m" x1="22.524" x2="42.988" y1="5.286" y2="21.286" xlink:href="#c" gradientUnits="userSpaceOnUse" gradientTransform="matrix(.998 -.07 .07 .998 -1.208 1.14)"/><linearGradient id="k" x1="37.071" x2="42.935" y1="9.313" y2="13.17" xlink:href="#c" gradientUnits="userSpaceOnUse" gradientTransform="matrix(.998 -.07 .07 .998 -1.208 1.14)"/><linearGradient id="i" x1="27.856" x2="31.784" y1="5.426" y2="8.426" xlink:href="#c" gradientUnits="userSpaceOnUse" gradientTransform="matrix(.998 -.07 .07 .998 -1.208 1.14)"/><linearGradient x1="37.699" x2="40.214" y1="21.893" y2="18.893" xlink:href="#d" gradientUnits="userSpaceOnUse"/><linearGradient x1="26.429" x2="28.964" y1="14.857" y2="19.071" xlink:href="#e" gradientUnits="userSpaceOnUse" gradientTransform="matrix(.998 -.07 .07 .998 -1.208 1.14)"/><linearGradient id="n" x1="36.201" x2="39.418" y1="12.654" y2="17.226" xlink:href="#f" gradientUnits="userSpaceOnUse"/><radialGradient id="o" cx="31.027" cy="15.798" r="9.607" xlink:href="#g" fx="31.027" fy="15.798" gradientTransform="matrix(1.315 .797 -.178 .294 -6.379 -12.638)" gradientUnits="userSpaceOnUse"/></defs><g><path fill="none" stroke="#eeeeec" stroke-width="3" d="M12.12 2.45c9.1 4.4 21.22 11.42 27.5 16.26 2.65 2.23 5.47 7.9 1.2 9.8-8.84 3.97-18.87-7.98-30.9-1.54-9.15 4.9-7.8 17.93 12.53 19.54"/><path fill="url(#h)" fill-rule="evenodd" stroke="url(#i)" d="M29.68 7.77s2.45-1.95.94-2.98c-1.1-.77-6.4.44-7.7.53" color="#000" overflow="visible" enable-background="accumulate"/><path fill="url(#j)" fill-rule="evenodd" stroke="url(#k)" d="M40.37 12.75s4.56-4.5 2.97-5.3c-2.57-1.32-9.37 2.07-9.37 2.07"/><path fill="none" stroke="#ed2728" d="M12.48 2.64c9.1 4.42 21.22 11.43 27.5 16.27 2.64 2.23 5.47 7.9 1.2 9.8-8.85 3.97-18.88-7.98-30.9-1.54C1.12 32.06 2.46 45.1 22.8 46.7"/><path fill="none" stroke="#fff" stroke-width=".75" d="M22.74 47.5l.13-1.6"/><path fill="#fff" stroke="#ed2728" stroke-width=".75" d="M11.38 1.44h2.7v2.7h-2.7z"/><path fill="#fff" fill-rule="evenodd" d="M42.4 8.1l-7.6 2.97c1.04-1.74 3.7-2.7 7.6-2.97z" color="#000" overflow="visible" enable-background="accumulate"/><path fill="url(#l)" fill-rule="evenodd" stroke="url(#m)" d="M22.2 5.62c-1.36.77-5.82 3.3-4.47 4.9 1.06 1.3 6.1.25 6.1.25l2.9 2.98s-8.82 6.37-7.5 7.94c1.52 1.78 13.7-2.53 13.7-2.53s7.45 2.46 8.94 1.13c1.24-1.1-1.17-4.6-1.23-6.7-.12-3.87-8.76-4.48-12.8-7.07-1.8-1.15-2.58-4.8-3.95-5.6-.98-.56-1.7 4.7-1.7 4.7z"/><path fill="#fff" fill-rule="evenodd" d="M28.1 14.9l-7.8 6.07c1.44-2.4 4.78-5.12 7.8-6.07z" color="#000" overflow="visible" enable-background="accumulate"/><path fill="#2e3436" fill-rule="evenodd" d="M33.43 12.86c2.38.96 4.76 2.22 7.14 1.7l.57 1.94c-3.1.17-5.67-1.4-7.7-3.64z"/><path fill="url(#n)" fill-rule="evenodd" d="M25.3 7.3c5 2.32 15.62 2 14.62 9.57-3.02-3.27-8.24-6.13-14.65-8.78l.02-.8z"/><path fill="url(#o)" fill-rule="evenodd" d="M22.8 8.86c.16 2.33 3.1 4.64 5.4 7 .87.88 2.83 2.24 4.94 3.28l5.8 1.72L42 20c-5.33-4.37-12.53-8.95-19.2-11.14z"/><path fill="#fff" fill-rule="evenodd" d="M22.93 5.8l.86-4L25 3.92 22.93 5.8z"/></g></svg>