<svg xmlns="http://www.w3.org/2000/svg" width="48" height="48"><g><g stroke="#eeeeec" stroke-width="3.171"><path d="M25.53 16.93c1.78-1.63 4.82-3.3 8.3-1.46 1.57.83 2 2.53 3.17 3.68 1.15 1.16 1.86 1.48 3.24 2.5.9.68 1.57 1.33 2.46 2.32.9.97 1.85 1.85 2.3 2.74.44.9.65 2.24.56 3.6-.1 1.5-1.52 2.22-1.8 3.2-.26.98-.27 2.5-1.7 3.5-1.43.97-2.47 1.72-3.73 2-2.84.63-3.35-.2-6.4.47-1.37.3-3.13-2.23-2.6-4 .54-1.8 2.22-3.88 2.94-6.34.4-1.33 1.43-2.97.08-3.82-1.75-1.1-3.64-1.87-5.25-2.05-1.6-.18-3.75-1.02-3.28-3.3.35-1.7 1.1-2.47 1.7-3.02z"/><path d="M31.6 40.63c.57-.76.88-.85 1.64-1.02.76-.17 1.6-.26 2 .23.4.5.1.43 1.3 1.33 1.2.9.98 1.7.27 2.8-.7 1.13-1.77 1.62-3.2 1.3-1.43-.3-2.27-1.1-2.4-2.1-.14-.97.4-2.53.4-2.53z"/><path d="M37.3 40.25c.26-.35 1.87-.65 2.57-.55.64.08 1.28.34 1.77.65.5.3.74.6.65 1.17-.1.58-.6 1.15-1.26 1.3-1.05.23-1.96.44-2.63 0-.66-.45-1.33-2.24-1.1-2.57z"/><path d="M40.66 38.2c.5-.04 1.45-1.22 1.98-1 .32.45 1.6.67 1.74 1.16.14.5-.07 1.45-.7 1.78-1.22.6-1.88.04-2.73-.4-.44-.45-.42-1.13-.3-1.54z"/><path d="M43.03 36.98c0-.37.07-.77.3-1.3.33-.82.52-1.06 1.1-1.1.57-.05 1.32.1 1.64.55.23.33.27.94.1 1.5-.3.96-.86 1.2-1.53 1.15-.67-.04-1.6-.4-1.6-.8z"/><path d="M44.1 33c.15-.46.68-.7 1.13-.74.44-.05 1.38.04 1.5.53.15.48.15 1.46-.2 1.6-.37.13-.95.22-1.43.04-.5-.18-1.25-.5-1-1.43z"/><path d="M14.7 3.3c-1.96-.6-4.25-.76-6.37 1-.94.78-1.04 1.82-1.67 2.77-.63.95-1.14 1.18-1.94 2.07-.53.6-.96 1.43-1.4 2.24-.24.45-.78 2.95-.47 3.88.33 1 1.4 1.24 1.73 1.87.32.63 1.4 1.3 2.52 1.76 1.1.46 2.16.6 3.06.62 2.03.04 2.3-1.36 4.48-1.34.96 0 2.12-1.6 1.5-2.75-.6-1.14-3-1.18-3.83-2.76-.44-.85-1.96-2.53-1.16-3.3 1.04-1 1.84-2.22 2.9-2.57 1.08-.35 3.12-1.34 2.32-2.44-.34-.46-1.1-.9-1.65-1.07z"/><path d="M15.33 19.63c-.57-.35-.8-.33-1.33-.25-.53.07-1.72.46-2.06.74-.22.18-.6.7-.53 1.25.1.7.65 1.2 1.4 1.73.73.55 1.55.6 2.4.03.84-.56 1.2-1.3 1.03-1.96-.16-.67-.9-1.54-.9-1.54z"/><path d="M10.03 20.7c-.25-.17-1.52-.28-1.95-.05-.4.22-.74.54-.98.87-.24.33-.33.57-.12.93.2.35.68.6 1.13.52.75-.1 1.6 0 1.93-.44.32-.46.23-1.68 0-1.83z"/><path d="M7.3 19.44c-.34.1-1.25-.43-1.54-.15-.1.36-.87.83-.83 1.18.03.35.4.93.9.98.94.1 1.23-.44 1.67-.95.18-.4 0-.83-.2-1.06z"/><path d="M5.3 19.06c-.1-.24-.24-.48-.5-.76-.45-.46-.63-.56-1-.45-.4.12-1.16.4-1.26.76-.07.28-.03.8.22 1.12.45.55 1.27.46 1.7.27.42-.2.94-.68.83-.94z"/><path d="M3.26 16.57c-.2-.28-.6-.3-.9-.2-.3.07-.9.36-.86.72.04.34.3.97.55.97.27 0 .66-.1.94-.33.26-.24.67-.63.26-1.17z"/></g><g><path d="M25.53 16.97c1.78-1.63 4.82-3.3 8.3-1.45 1.57.82 2 2.52 3.17 3.68 1.15 1.16 1.86 1.47 3.24 2.5.9.68 1.57 1.33 2.46 2.3.9 1 1.85 1.86 2.3 2.75.44.9.65 2.23.56 3.6-.1 1.48-1.52 2.2-1.8 3.2-.26.97-.27 2.5-1.7 3.5-1.43.97-2.47 1.7-3.73 2-2.84.62-3.35-.2-6.4.46-1.37.3-3.13-2.22-2.6-4 .54-1.78 2.22-3.87 2.94-6.33.4-1.33 1.43-2.97.08-3.82-1.75-1.1-3.64-1.88-5.25-2.06-1.6-.2-3.75-1.03-3.28-3.32.35-1.7 1.1-2.45 1.7-3z"/><path d="M31.6 40.67c.57-.75.88-.84 1.64-1.02.76-.18 1.6-.27 2 .22.4.5.1.44 1.3 1.33 1.2.9.98 1.7.27 2.82-.7 1.1-1.77 1.6-3.2 1.3-1.43-.33-2.27-1.13-2.4-2.1-.14-1 .4-2.55.4-2.55z"/><path d="M37.3 40.3c.26-.35 1.87-.65 2.57-.56.64.08 1.28.34 1.77.65.5.3.74.6.65 1.17-.1.57-.6 1.14-1.26 1.3-1.05.22-1.96.43-2.63 0-.66-.46-1.33-2.25-1.1-2.57z"/><path d="M40.66 38.25c.5-.04 1.45-1.23 1.98-1 .32.44 1.6.66 1.74 1.15.14.5-.07 1.46-.7 1.78-1.22.62-1.88.05-2.73-.4-.44-.44-.42-1.13-.3-1.53z"/><path d="M43.03 37.02c0-.37.07-.77.3-1.3.33-.82.52-1.06 1.1-1.1.57-.05 1.32.1 1.64.56.23.32.27.93.1 1.5-.3.96-.86 1.2-1.53 1.14-.67-.04-1.6-.4-1.6-.8z"/><path d="M44.1 33.06c.15-.48.68-.72 1.13-.76.44-.05 1.38.04 1.5.53.15.5.15 1.47-.2 1.6-.37.14-.95.23-1.43.05-.5-.18-1.25-.5-1-1.42z"/><path d="M14.7 3.34c-1.96-.6-4.25-.75-6.37 1-.94.78-1.04 1.82-1.67 2.77-.63.96-1.14 1.2-1.94 2.08-.53.6-.96 1.43-1.4 2.24-.24.46-.78 2.95-.47 3.9.33.97 1.4 1.22 1.73 1.85.32.63 1.4 1.3 2.52 1.77 1.1.47 2.16.6 3.06.63 2.03.03 2.3-1.36 4.48-1.35.96 0 2.12-1.6 1.5-2.75-.6-1.14-3-1.18-3.83-2.75-.44-.86-1.96-2.54-1.16-3.3 1.04-1 1.84-2.23 2.9-2.58 1.08-.34 3.12-1.33 2.32-2.44-.34-.46-1.1-.9-1.65-1.06z"/><path d="M15.33 19.67c-.57-.35-.8-.33-1.33-.25-.53.07-1.72.47-2.06.74-.22.18-.6.72-.53 1.25.1.72.65 1.2 1.4 1.75.73.54 1.55.6 2.4.03.84-.56 1.2-1.3 1.03-1.97-.16-.65-.9-1.53-.9-1.53z"/><path d="M10.03 20.74c-.25-.16-1.52-.28-1.95-.04-.4.2-.74.54-.98.86-.24.33-.33.58-.12.93.2.34.68.58 1.13.5.75-.1 1.6.02 1.93-.43.32-.46.23-1.68 0-1.83z"/><path d="M7.3 19.5c-.34.1-1.25-.45-1.54-.17-.1.37-.87.84-.83 1.2.03.34.4.92.9.97.94.1 1.23-.44 1.67-.94.18-.4 0-.85-.2-1.07z"/><path d="M5.3 19.1c-.1-.24-.24-.48-.5-.76-.45-.45-.63-.56-1-.44-.4.1-1.16.38-1.26.75-.07.27-.03.8.22 1.1.45.56 1.27.48 1.7.28.42-.2.94-.66.83-.92z"/><path d="M3.26 16.6c-.2-.26-.6-.28-.9-.2-.3.08-.9.38-.86.73.04.35.3 1 .55.98.27 0 .66-.08.94-.32.26-.24.67-.63.26-1.17z"/></g></g></svg>