<svg xmlns="http://www.w3.org/2000/svg" width="48" height="48" ns:viewOrigin="0.3799 47.5942" ns:rulerOrigin="0 0" ns:pageBounds="0 48 48 0" xmlns:ns="&ns_ai;" xmlns:xlink="http://www.w3.org/1999/xlink" viewBox="0 0 48.396 47.596" overflow="visible" enable-background="new 0 0 48.396 47.596" version="1"><defs><linearGradient id="d"><stop offset="0" stop-color="#fff"/><stop offset="1" stop-color="#c7e5ff"/></linearGradient><linearGradient id="a"><stop offset="0" stop-opacity=".539"/><stop offset="1" stop-opacity="0"/></linearGradient><radialGradient id="b" cx="-62.017" cy="217.679" r="17.176" fx="-62.017" fy="217.679" gradientTransform="matrix(-1 0 0 1 55.359 0)" gradientUnits="userSpaceOnUse"><stop offset="0" stop-color="#fff"/><stop offset="1" stop-color="#8fffff"/></radialGradient><radialGradient id="c" cx="-64.877" cy="220.876" r="14.119" gradientUnits="userSpaceOnUse" gradientTransform="matrix(-1 0 0 1 55.359 0)" fy="220.876" fx="-64.877"><stop offset="0" stop-color="#fff"/><stop offset=".5" stop-color="#7fcfff"/><stop offset="1" stop-color="#006bab"/></radialGradient><radialGradient id="e" cx="11.739" cy="34.109" r="8.363" xlink:href="#a" fx="11.739" fy="34.109" gradientTransform="matrix(1 0 0 .358 0 21.905)" gradientUnits="userSpaceOnUse"/><linearGradient id="g" x1="115.859" x2="130.057" y1="217.696" y2="232.275" xlink:href="#b" gradientUnits="userSpaceOnUse"/><radialGradient id="f" cx="-64.877" cy="220.876" r="14.119" xlink:href="#c" gradientUnits="userSpaceOnUse" gradientTransform="matrix(-1 0 0 1 55.359 0)" fx="-64.877" fy="220.876"/><radialGradient id="h" cx="13.367" cy="24.941" r="13.56" xlink:href="#d" fx="13.367" fy="24.941" gradientTransform="matrix(.925 -.006 .008 1.364 2.868 -5.828)" gradientUnits="userSpaceOnUse"/></defs><path fill="none" stroke="#babdb6" stroke-width="1.008" d="M24.93 27.27L1.96 19.9" ns:knockout="Off"/><path fill="none" stroke="#babdb6" stroke-width="1.008" d="M23.86 19.2l-18.9 9.05" ns:knockout="Off"/><path fill="url(#e)" fill-rule="evenodd" d="M20.1 34.1a8.36 3 0 1 1-16.72 0 8.36 3 0 1 1 16.72 0z" transform="matrix(1.475 0 0 1.472 -2.091 -6.716)" overflow="visible" enable-background="accumulate"/><circle cx="122.958" cy="224.694" r="9.443" fill="url(#f)" stroke="#204a87" stroke-width=".802" transform="matrix(1.51 0 0 1.508 -170.261 -324.083)"/><circle cx="122.958" cy="224.694" r="9.443" fill="none" stroke="url(#g)" stroke-width=".731" transform="matrix(1.38 0 0 1.377 -154.22 -294.819)"/><path fill="url(#h)" fill-rule="evenodd" stroke="#60adff" d="M.7 17.87c1.9 6.38 4.9 8.78 6.22 14.76 1.17-1.14.48-2.8 2.8-4.4 2.94 2.84 3.75 8.4 5.18 12.3 1.1-3.65 1.7-8.4 2.94-10.6.63-1.13 3.1-.75 4.02-2.1 1.84 1.78 2.7 3.93 3.87 7.45.7-6.78 1.78-11.95 4.44-17.66-2.13-.4-8.33 5.16-10.06 5.8-1.87.7-1.66-5.42-2.46-5.2-1.2.3-4.18 4.1-5 4.07-1.7-.03-1.54-6.86-3.6-6.74-2.43.14-1.43 5.58-2.14 5.5-2.48-.24-3.2-.87-6.2-3.2z" stroke-linejoin="round"/><path fill="#cce9ff" fill-rule="evenodd" d="M7 31.3c-.1-.27 1.84-7.58 2.93-7.72 1.16.77 1.15 2.17.15 4.03-2.2.57-2 2.37-3.08 3.7z"/><path fill="#cce9ff" fill-rule="evenodd" d="M14.83 38.33l.9-9.74c2.17-3.94 5.73-2.55 6.17-1.33-7.5 2.53-5.22 7.45-7.07 11.06z" overflow="visible" enable-background="accumulate"/><rect width="34.066" height="14.805" x="14.339" y="33.023" fill="#fff" fill-opacity=".502" fill-rule="evenodd" ry="5.253" overflow="visible" enable-background="accumulate"/><g><g font-size="12.57" font-family="Bitstream Vera Sans"><path d="M21.13 35.94c-.67 0-1.18.33-1.5 1-.35.65-.52 1.64-.52 2.97 0 1.33.18 2.32.52 3 .33.65.84.98 1.5.98.7 0 1.2-.33 1.53-1 .34-.66.5-1.65.5-2.97 0-1.32-.16-2.3-.5-2.97-.34-.66-.84-1-1.52-1zm0-1.04c1.08 0 1.9.43 2.48 1.3.58.84.86 2.08.86 3.7 0 1.63-.28 2.87-.85 3.73-.56.85-1.4 1.28-2.47 1.28-1.08 0-1.9-.42-2.48-1.27-.57-.86-.85-2.1-.85-3.72s.28-2.86.85-3.7c.57-.87 1.4-1.3 2.48-1.3z"/><path d="M25.68 42.5h1.88V44l-1.46 2.86h-1.15l.73-2.85v-1.5z"/><path d="M31.64 35.94c-.67 0-1.17.33-1.5 1-.35.65-.52 1.64-.52 2.97 0 1.33.17 2.32.5 3 .35.65.85.98 1.52.98.68 0 1.2-.33 1.52-1 .34-.66.5-1.65.5-2.97 0-1.32-.16-2.3-.5-2.97-.33-.66-.84-1-1.52-1zm0-1.04c1.08 0 1.9.43 2.48 1.3.57.84.86 2.08.86 3.7 0 1.63-.3 2.87-.86 3.73-.57.85-1.4 1.28-2.48 1.28s-1.9-.42-2.47-1.27c-.57-.86-.86-2.1-.86-3.72s.3-2.86.87-3.7c.57-.87 1.4-1.3 2.47-1.3z"/><path d="M42.16 35.94c-.68 0-1.18.33-1.52 1-.34.65-.5 1.64-.5 2.97 0 1.33.16 2.32.5 3 .34.65.84.98 1.52.98.67 0 1.18-.33 1.52-1 .34-.66.5-1.65.5-2.97 0-1.32-.16-2.3-.5-2.97-.34-.66-.85-1-1.52-1zm0-1.04c1.08 0 1.9.43 2.47 1.3.57.84.86 2.08.86 3.7 0 1.63-.3 2.87-.87 3.73-.57.85-1.4 1.28-2.47 1.28-1.1 0-1.9-.42-2.48-1.27-.57-.86-.86-2.1-.86-3.72s.3-2.86.86-3.7c.57-.87 1.4-1.3 2.48-1.3z"/><path d="M35.98 42.5h1.88V44l-1.46 2.86h-1.15l.73-2.85v-1.5z"/></g></g></svg>