<svg xmlns="http://www.w3.org/2000/svg" width="48" height="48"><defs><radialGradient id="a" cx="17.471" cy="365.763" r="11.749" gradientUnits="userSpaceOnUse" fy="365.763" fx="17.471" gradientTransform="matrix(1.026 0 0 1.026 -5.152 -342.596)"><stop offset="0" stop-color="#8AC92E"/><stop offset=".578" stop-color="#64AD27"/><stop offset="1" stop-color="#4C9C23"/></radialGradient><radialGradient id="b" cx="23.737" cy="355.955" r="15.263" gradientUnits="userSpaceOnUse" fy="355.955" fx="23.737" gradientTransform="matrix(1.026 0 0 1.026 -5.152 -342.596)"><stop offset="0" stop-color="#8AC92E"/><stop offset=".578" stop-color="#64AD27"/><stop offset="1" stop-color="#4C9C23"/></radialGradient><radialGradient id="c" cx="20.173" cy="373.96" r="3.559" gradientUnits="userSpaceOnUse" fy="373.96" fx="20.173" gradientTransform="matrix(1.026 0 0 1.026 -5.152 -342.596)"><stop offset="0" stop-color="#8AC92E"/><stop offset=".578" stop-color="#64AD27"/><stop offset="1" stop-color="#4C9C23"/></radialGradient><radialGradient id="d" cx="33.495" cy="374.632" r="3.864" gradientUnits="userSpaceOnUse" fy="374.632" fx="33.495" gradientTransform="matrix(1.026 0 0 1.026 -5.152 -342.596)"><stop offset="0" stop-color="#8AC92E"/><stop offset=".578" stop-color="#64AD27"/><stop offset="1" stop-color="#4C9C23"/></radialGradient><radialGradient id="e" cx="39.171" cy="366.259" r="9.772" gradientUnits="userSpaceOnUse" fy="366.259" fx="39.171" gradientTransform="matrix(1.026 0 0 1.026 -5.152 -342.596)"><stop offset="0" stop-color="#8AC92E"/><stop offset=".578" stop-color="#64AD27"/><stop offset="1" stop-color="#4C9C23"/></radialGradient><radialGradient id="f" cx="26.56" cy="366.144" r="9.612" gradientUnits="userSpaceOnUse" fy="366.144" fx="26.56" gradientTransform="matrix(1.026 0 0 1.026 -5.152 -342.596)"><stop offset="0" stop-color="#8AC92E"/><stop offset=".578" stop-color="#64AD27"/><stop offset="1" stop-color="#4C9C23"/></radialGradient></defs><g stroke="#306316"><g fill="none" stroke-width="1.268"><path d="M21.5 42.82l3.36 1.68C21.1 37.46 11.4 23.16.66 20.5c11.55 5 16.5 13.75 19.48 22.35l1.36-.03z"/><path d="M20.14 42.85C15.9 16.57 17.68 5.27 22 .5c-7.85 8.06-5.8 30.93-3.77 41.45 1.4.98 2.5 4.42 1.9.9z"/><path d="M18.23 44.1c-2.04-2.87-4.08-5.32-6.43-6.75 3.5 1.9 6.48 5.54 7.48 7.12-.75-.58-1.05-.38-1.05-.38z"/><path d="M27.73 44.55c.6-3.36 1.72-4.9 5.2-7.14 0 0-5.32 2.05-7.46 8.4l2.26-1.25z"/><path d="M25.17 42.56c4.4-18.07 14.6-21.04 20.32-17.26-8.15-5.15-16.96 1.12-20.96 11.27.92 2.12.63 6 .63 6z"/><path d="M24.52 41c-1.22-12-3.38-21.08-4.88-21.83.57 0 .94 14.98 1.5 22-.03 2.6 2.28 3.45 2.5 5.45 1.04-2.3.88-5.63.88-5.63z"/></g><path fill="url(#a)" stroke-width=".25" d="M21.5 42.82l3.36 1.68C21.1 37.46 11.4 23.16.66 20.5c11.55 5 16.5 13.75 19.48 22.35l1.36-.03z"/><path fill="url(#b)" stroke-width=".25" d="M20.14 42.85C15.9 16.57 17.68 5.27 22 .5c-7.85 8.06-5.8 30.93-3.77 41.45 1.4.98 2.5 4.42 1.9.9z"/><path fill="url(#c)" stroke-width=".25" d="M18.23 44.1c-2.04-2.87-4.08-5.32-6.43-6.75 3.5 1.9 6.48 5.54 7.48 7.12-.75-.58-1.05-.38-1.05-.38z"/><path fill="url(#d)" stroke-width=".25" d="M27.73 44.55c.6-3.36 1.72-4.9 5.2-7.14 0 0-5.32 2.05-7.46 8.4l2.26-1.25z"/><path fill="url(#e)" stroke-width=".25" d="M25.17 42.56c4.4-18.07 14.6-21.04 20.32-17.26-8.15-5.15-16.96 1.12-20.96 11.27.92 2.12.63 6 .63 6z"/><path fill="url(#f)" stroke-width=".25" d="M24.52 41c-1.22-12-3.38-21.08-4.88-21.83.57 0 .94 14.98 1.5 22-.03 2.6 2.28 3.45 2.5 5.45 1.04-2.3.88-5.63.88-5.63z"/></g></svg>