<svg xmlns="http://www.w3.org/2000/svg" width="48" height="48" xmlns:xlink="http://www.w3.org/1999/xlink"><defs><linearGradient id="B"><stop offset="0" stop-color="#fff"/><stop offset=".778" stop-color="#f6f6f5" stop-opacity=".498"/><stop offset="1" stop-color="#eeeeec" stop-opacity="0"/></linearGradient><linearGradient id="f"><stop offset="0" stop-color="#3465a4"/><stop offset="1" stop-color="#c2deea"/></linearGradient><linearGradient><stop offset="0" stop-color="#3465a4"/><stop offset="1" stop-color="#3465a4"/></linearGradient><linearGradient id="d"><stop offset="0" stop-color="#c7dfe0"/><stop offset="1" stop-color="#b1efff" stop-opacity="0"/></linearGradient><linearGradient id="b"><stop offset="0" stop-color="#2f4664"/><stop offset="1" stop-color="#3e5d84" stop-opacity="0"/></linearGradient><linearGradient id="a"><stop offset="0" stop-color="#fff"/><stop offset="1" stop-color="#fff" stop-opacity="0"/></linearGradient><linearGradient id="c"><stop offset="0" stop-color="#b8c7d9"/><stop offset=".321" stop-color="#54769c"/><stop offset=".491" stop-color="#b8c8d9"/><stop offset=".691" stop-color="#54769c"/><stop offset="1" stop-color="#b8c8d9"/></linearGradient><radialGradient cx="24.277" cy="30.201" r="7.528" xlink:href="#a" gradientUnits="userSpaceOnUse" gradientTransform="matrix(1 0 0 .295 0 21.304)" fx="24.277" fy="30.201"/><radialGradient cx="24.277" cy="30.201" r="7.528" xlink:href="#a" gradientUnits="userSpaceOnUse" gradientTransform="matrix(1 0 0 .295 0 21.304)" fx="24.277" fy="30.201"/><radialGradient cx="19.998" cy="41.295" r="5.494" xlink:href="#b" gradientUnits="userSpaceOnUse" gradientTransform="matrix(1.371 0 0 -.363 -3.148 41.369)" fx="19.998" fy="41.295"/><radialGradient cx="19.998" cy="41.295" r="5.494" xlink:href="#b" gradientUnits="userSpaceOnUse" gradientTransform="matrix(.83 0 0 .363 7.717 6.189)" fx="19.998" fy="41.295"/><radialGradient cx="23.402" cy="37.269" r="24.405" xlink:href="#c" gradientUnits="userSpaceOnUse" gradientTransform="matrix(1 0 0 .573 0 1.625)" spreadMethod="pad" fx="23.402" fy="37.269"/><radialGradient cx="24.277" cy="30.201" r="7.528" xlink:href="#a" gradientUnits="userSpaceOnUse" gradientTransform="matrix(1 0 0 .295 0 21.304)" fx="24.277" fy="30.201"/><radialGradient cx="23.402" cy="37.269" r="24.405" xlink:href="#c" gradientUnits="userSpaceOnUse" gradientTransform="matrix(1 0 0 .573 0 1.625)" spreadMethod="pad" fx="23.402" fy="37.269"/><radialGradient cx="24.277" cy="30.201" r="7.528" xlink:href="#a" gradientUnits="userSpaceOnUse" gradientTransform="matrix(1 0 0 .295 0 21.304)" fx="24.277" fy="30.201"/><radialGradient cx="19.998" cy="41.295" r="5.494" xlink:href="#b" gradientUnits="userSpaceOnUse" gradientTransform="matrix(.83 0 0 .363 7.717 6.189)" fx="19.998" fy="41.295"/><radialGradient cx="19.998" cy="41.295" r="5.494" xlink:href="#b" gradientUnits="userSpaceOnUse" gradientTransform="matrix(1.371 0 0 -.363 -3.148 41.369)" fx="19.998" fy="41.295"/><linearGradient id="C" x1="14.236" x2="4.506" y1="19.527" y2="19.201" xlink:href="#d" gradientUnits="userSpaceOnUse"/><linearGradient id="D" x1="14.236" x2="4.506" y1="19.527" y2="19.201" xlink:href="#d" gradientUnits="userSpaceOnUse" gradientTransform="translate(9.534 -3.984)"/><linearGradient id="E" x1="14.236" x2="4.506" y1="19.527" y2="19.201" xlink:href="#d" gradientUnits="userSpaceOnUse" gradientTransform="translate(17.24 -5.943)"/><linearGradient id="F" x1="12.865" x2="6.269" y1="22.205" y2="16.458" xlink:href="#d" gradientUnits="userSpaceOnUse" gradientTransform="translate(17.893 1.959)"/><linearGradient id="G" x1="14.171" x2="4.963" y1="18.156" y2="13.258" xlink:href="#d" gradientUnits="userSpaceOnUse" gradientTransform="translate(25.599)"/><linearGradient id="V" x1="2.024" x2="-4.506" y1="27.625" y2="21.356" xlink:href="#e" gradientUnits="userSpaceOnUse" gradientTransform="translate(17.893 1.959)"/><linearGradient id="e"><stop offset="0" stop-color="#c7dfe0"/><stop offset="1" stop-color="#b1efff" stop-opacity="0"/></linearGradient><linearGradient x1="14.236" x2="4.506" y1="19.527" y2="19.201" gradientTransform="translate(2.087 -14.893)" gradientUnits="userSpaceOnUse" xlink:href="#e"/><linearGradient id="U" x1="6.792" x2="3.069" y1="25.862" y2="20.376" xlink:href="#d" gradientUnits="userSpaceOnUse" gradientTransform="translate(29.452 3.918)"/><linearGradient id="I" x1="37.289" x2="48.064" y1="19.135" y2="21.944" xlink:href="#f" gradientUnits="userSpaceOnUse"/><linearGradient id="g"><stop offset="0" stop-color="#3465a4"/><stop offset="1" stop-color="#3465a4" stop-opacity="0"/></linearGradient><linearGradient x1="36.636" x2="48.064" y1="19.005" y2="21.944" gradientTransform="translate(-36.443 -14.175)" gradientUnits="userSpaceOnUse" xlink:href="#g"/><linearGradient id="T" x1="20.832" x2="26.71" y1="29.127" y2="35.2" xlink:href="#f" gradientUnits="userSpaceOnUse"/><linearGradient id="R" x1="99.678" x2="99.678" y1="207.766" y2="215.915" xlink:href="#h" gradientUnits="userSpaceOnUse"/><linearGradient id="h"><stop offset="0" stop-color="#fff"/><stop offset="1" stop-color="#c0d4d9"/></linearGradient><linearGradient x1="99.678" x2="99.678" y1="207.766" y2="215.915" xlink:href="#h" gradientUnits="userSpaceOnUse"/><linearGradient><stop offset="0" stop-color="#fff"/><stop offset="1" stop-color="#c0d4d9"/></linearGradient><linearGradient id="k" x1="99.669" x2="99.067" y1="214.562" y2="243.985" xlink:href="#i" gradientUnits="userSpaceOnUse"/><linearGradient id="i"><stop offset="0" stop-color="#fff"/><stop offset="1" stop-color="#fff" stop-opacity="0"/></linearGradient><linearGradient><stop offset="0" stop-color="#fff"/><stop offset="1" stop-color="#fff" stop-opacity="0"/></linearGradient><radialGradient id="l" cx="264.957" cy="80.291" r="53.348" fx="264.957" fy="80.291" gradientUnits="userSpaceOnUse"><stop offset="0" stop-color="#BAD1D7"/><stop offset="1" stop-color="#8794A0"/></radialGradient><linearGradient x1="10.343" x2="37.468" y1="25.075" y2="25.075" xlink:href="#j" gradientUnits="userSpaceOnUse"/><radialGradient id="j" cx="294.624" cy="80.627" r="48.777" gradientUnits="userSpaceOnUse" fy="80.627" fx="294.624"><stop offset="0" stop-color="#BAD1D7"/><stop offset=".185" stop-color="#cbd9dd"/><stop offset=".265" stop-color="#dce1e4"/><stop offset=".826" stop-color="#6D7580"/><stop offset="1" stop-color="#41454C"/></radialGradient><radialGradient cx="-38.266" cy="214.142" r="20.102" fx="-38.266" fy="214.142" gradientTransform="matrix(-1 0 0 1 55.653 0)" gradientUnits="userSpaceOnUse"><stop fill="url(#k)" offset="0" stop-color="#fff"/><stop fill="url(#k)" offset="1" stop-color="#3065A0"/></radialGradient><linearGradient id="N" x1="10.343" x2="37.468" y1="25.075" y2="25.075" xlink:href="#j" gradientUnits="userSpaceOnUse" gradientTransform="matrix(.481 0 0 .484 57.285 4.327)"/><linearGradient id="O" x1="13.581" x2="25.942" y1="5.055" y2="10.712" xlink:href="#l" gradientUnits="userSpaceOnUse" gradientTransform="matrix(.481 0 0 .484 57.285 4.327)"/><linearGradient id="P" x1="99.669" x2="99.067" y1="214.562" y2="247.981" xlink:href="#i" gradientUnits="userSpaceOnUse" gradientTransform="matrix(.837 0 0 .817 -14.67 -165.345)"/><linearGradient id="S" x1="99.678" x2="99.678" y1="207.766" y2="215.915" xlink:href="#h" gradientUnits="userSpaceOnUse"/><linearGradient id="Q" x1="99.678" x2="99.678" y1="207.766" y2="215.915" xlink:href="#h" gradientUnits="userSpaceOnUse"/><radialGradient cx="2056.345" cy="286.008" r="10.591" fy="286.008" fx="2056.345" gradientTransform="matrix(1.452 0 0 1.007 -2964.556 -250.099)" gradientUnits="userSpaceOnUse" xlink:href="#m"/><radialGradient cx="2056.345" cy="286.008" r="10.591" gradientUnits="userSpaceOnUse" gradientTransform="matrix(1.442 0 0 1 -2944.569 0)" fy="286.008" fx="2056.345"><stop offset=".258" stop-color="#F5F7FB"/><stop offset=".41" stop-color="#EAF0F5"/><stop offset=".573" stop-color="#E6EDF2"/><stop offset=".815" stop-color="#C2DCF2"/><stop offset="1" stop-color="#B3DDFF"/></radialGradient><radialGradient cx="2056.345" cy="285.004" r="8.72" gradientUnits="userSpaceOnUse" gradientTransform="matrix(1.442 0 0 1 -2944.569 0)" fy="285.004" fx="2056.345"><stop offset=".258" stop-color="#F5F7FB"/><stop offset=".41" stop-color="#EAF0F5"/><stop offset=".573" stop-color="#E6EDF2"/><stop offset=".815" stop-color="#C2DCF2"/><stop offset="1" stop-color="#B3DDFF"/></radialGradient><linearGradient x1="22.277" x2="26.351" y1="263.513" y2="263.979" gradientTransform="matrix(1.007 0 0 1.007 -.297 -250.099)" gradientUnits="userSpaceOnUse"><stop offset="0" stop-color="#B4BFCC"/><stop offset=".371" stop-color="#F6F7FA"/><stop offset=".478" stop-color="#D8DCE1"/><stop offset=".71" stop-color="#8C96A2"/><stop offset=".742" stop-color="#818C99"/><stop offset=".803" stop-color="#818C99"/><stop offset="1" stop-color="#B4BFCC"/></linearGradient><radialGradient cx="26.106" cy="260.826" r="20.172" gradientTransform="matrix(1.007 0 0 1.007 -.297 -250.099)" fx="26.106" fy="260.826" gradientUnits="userSpaceOnUse"><stop offset="0" stop-color="#CB1009"/><stop offset=".348" stop-color="#ED2728"/><stop offset=".517" stop-color="#ED2728"/><stop offset=".608" stop-color="#DC1B18"/><stop offset=".714" stop-color="#CF130D"/><stop offset=".815" stop-color="#CB1009"/><stop offset="1" stop-color="#A40E0A"/></radialGradient><linearGradient x1="24.456" x2="26.883" y1="250.123" y2="249.945" gradientUnits="userSpaceOnUse"><stop offset="0" stop-color="#B4BFCC"/><stop offset=".371" stop-color="#F6F7FA"/></linearGradient><radialGradient id="m" cx="2056.345" cy="286.008" r="10.591" fx="2056.345" fy="286.008" gradientTransform="matrix(1.442 0 0 1 -2944.569 0)" gradientUnits="userSpaceOnUse"><stop offset=".258" stop-color="#F5F7FB"/><stop offset=".41" stop-color="#EAF0F5"/><stop offset=".573" stop-color="#E6EDF2"/><stop offset=".815" stop-color="#C2DCF2"/><stop offset="1" stop-color="#B3DDFF"/></radialGradient><radialGradient cx="2056.345" cy="285.004" r="8.72" fx="2056.345" fy="285.004" gradientTransform="matrix(1.442 0 0 1 -2944.569 0)" gradientUnits="userSpaceOnUse"><stop offset=".258" stop-color="#F5F7FB"/><stop offset=".41" stop-color="#EAF0F5"/><stop offset=".573" stop-color="#E6EDF2"/><stop offset=".815" stop-color="#C2DCF2"/><stop offset="1" stop-color="#B3DDFF"/></radialGradient><radialGradient cx="2054.125" cy="281.606" r="12.638" fx="2054.125" fy="281.606" gradientTransform="matrix(1.442 0 0 1 -2944.569 0)" gradientUnits="userSpaceOnUse"><stop offset=".258" stop-color="#F5F7FB"/><stop offset=".41" stop-color="#EAF0F5"/><stop offset=".573" stop-color="#E6EDF2"/><stop offset=".815" stop-color="#B7BFCC"/><stop offset="1" stop-color="#B8C9D9"/></radialGradient><linearGradient x1="42.822" x2="38.608" y1="19.714" y2="12.5" gradientTransform="matrix(.55 -.28 .282 .555 15.478 10.829)" gradientUnits="userSpaceOnUse" xlink:href="#n"/><linearGradient x1="42.822" x2="38.608" y1="19.714" y2="12.5" gradientTransform="matrix(.608 .105 -.107 .614 17.83 6.705)" gradientUnits="userSpaceOnUse" xlink:href="#n"/><radialGradient cx="29.2" cy="26.302" r="11.357" gradientUnits="userSpaceOnUse" gradientTransform="matrix(2.682 -.356 .157 1.183 -53.446 3.114)" fy="26.302" fx="29.2" xlink:href="#o"/><linearGradient x1="29.701" x2="27.727" y1="21.071" y2="16.5" gradientTransform="matrix(.998 -.061 .061 .998 1.033 -1.76)" gradientUnits="userSpaceOnUse" xlink:href="#p"/><radialGradient cx="25.505" cy="5.779" r="14.633" fy="5.779" fx="25.505" gradientTransform="matrix(1.641 -.196 .092 .767 -17.225 11.144)" gradientUnits="userSpaceOnUse" xlink:href="#q"/><linearGradient x1="42.822" x2="38.608" y1="19.714" y2="12.5" gradientTransform="matrix(.998 -.061 .061 .998 -.491 1.451)" gradientUnits="userSpaceOnUse" xlink:href="#n"/><linearGradient x1="40.625" x2="36.695" y1="15.78" y2="11.709" gradientTransform="matrix(.803 -.596 .596 .803 -2.681 22.232)" gradientUnits="userSpaceOnUse" xlink:href="#r"/><linearGradient x1="38.568" x2="32.496" y1="11.548" y2="9.405" gradientTransform="matrix(.998 -.061 .061 .998 -.491 1.451)" gradientUnits="userSpaceOnUse" xlink:href="#s"/><linearGradient x1="40.625" x2="36.695" y1="15.78" y2="11.709" gradientTransform="matrix(.998 -.061 .061 .998 -.491 1.451)" gradientUnits="userSpaceOnUse" xlink:href="#r"/><linearGradient x1="34.296" x2="33.095" y1="20.485" y2="15.557" gradientTransform="matrix(.998 -.061 .061 .998 -.491 1.451)" gradientUnits="userSpaceOnUse" xlink:href="#t"/><linearGradient x1="38.273" x2="36.37" y1="19.214" y2="14.929" gradientTransform="matrix(.998 -.061 .061 .998 -.491 1.451)" gradientUnits="userSpaceOnUse" xlink:href="#u"/><linearGradient x1="29.701" x2="27.727" y1="21.071" y2="16.5" gradientTransform="matrix(.998 -.061 .061 .998 -.491 1.451)" gradientUnits="userSpaceOnUse" xlink:href="#p"/><linearGradient x1="19.022" x2="19.022" y1="23.942" y2="18.321" gradientTransform="matrix(.998 -.061 .061 .998 -.491 1.451)" gradientUnits="userSpaceOnUse" xlink:href="#v"/><linearGradient x1="23.701" x2="21.299" y1="22.071" y2="17.429" gradientTransform="matrix(.998 -.061 .061 .998 -.491 1.451)" gradientUnits="userSpaceOnUse" xlink:href="#w"/><linearGradient x1="25.487" x2="23.941" y1="20.023" y2="14.786" gradientTransform="matrix(.998 -.061 .061 .998 -.491 1.451)" gradientUnits="userSpaceOnUse" xlink:href="#x"/><linearGradient x1="25.487" x2="23.941" y1="20.023" y2="14.786" gradientUnits="userSpaceOnUse" xlink:href="#x"/><linearGradient x1="23.701" x2="21.299" y1="22.071" y2="17.429" gradientUnits="userSpaceOnUse" xlink:href="#w"/><linearGradient x1="19.022" x2="19.022" y1="23.942" y2="18.321" gradientUnits="userSpaceOnUse" xlink:href="#v"/><linearGradient x1="29.701" x2="27.727" y1="21.071" y2="16.5" gradientUnits="userSpaceOnUse" xlink:href="#p"/><linearGradient x1="38.273" x2="36.37" y1="19.214" y2="14.929" gradientUnits="userSpaceOnUse" xlink:href="#u"/><linearGradient x1="34.296" x2="33.095" y1="20.485" y2="15.557" gradientUnits="userSpaceOnUse" xlink:href="#t"/><linearGradient x1="40.625" x2="36.695" y1="15.78" y2="11.709" gradientUnits="userSpaceOnUse" xlink:href="#r"/><linearGradient x1="40.625" x2="36.695" y1="15.78" y2="11.709" gradientTransform="matrix(.838 -.546 .546 .838 -3.445 20.61)" gradientUnits="userSpaceOnUse" xlink:href="#r"/><linearGradient x1="38.568" x2="32.496" y1="11.548" y2="9.405" gradientUnits="userSpaceOnUse" xlink:href="#s"/><linearGradient x1="42.822" x2="38.608" y1="19.714" y2="12.5" gradientUnits="userSpaceOnUse" xlink:href="#n"/><radialGradient cx="25.505" cy="5.779" r="14.633" fy="5.779" fx="25.505" gradientTransform="matrix(1.65 -.097 .045 .771 -17.29 8.661)" gradientUnits="userSpaceOnUse" xlink:href="#q"/><linearGradient x1="38.568" x2="32.496" y1="11.548" y2="9.405" gradientUnits="userSpaceOnUse" xlink:href="#s"/><linearGradient x1="40.625" x2="36.695" y1="15.78" y2="11.709" gradientTransform="matrix(.838 -.546 .546 .838 -3.445 20.61)" gradientUnits="userSpaceOnUse" xlink:href="#r"/><linearGradient x1="19.022" x2="19.022" y1="23.942" y2="18.321" gradientUnits="userSpaceOnUse" xlink:href="#v"/><linearGradient x1="23.701" x2="21.299" y1="22.071" y2="17.429" gradientUnits="userSpaceOnUse" xlink:href="#w"/><linearGradient x1="25.487" x2="23.941" y1="20.023" y2="14.786" gradientUnits="userSpaceOnUse" xlink:href="#x"/><linearGradient x1="29.701" x2="27.727" y1="21.071" y2="16.5" gradientUnits="userSpaceOnUse" xlink:href="#p"/><linearGradient x1="34.296" x2="33.095" y1="20.485" y2="15.557" gradientUnits="userSpaceOnUse" xlink:href="#t"/><linearGradient x1="38.273" x2="36.37" y1="19.214" y2="14.929" gradientUnits="userSpaceOnUse" xlink:href="#u"/><linearGradient x1="40.625" x2="36.695" y1="15.78" y2="11.709" gradientUnits="userSpaceOnUse" xlink:href="#r"/><linearGradient x1="42.822" x2="38.608" y1="19.714" y2="12.5" gradientUnits="userSpaceOnUse" xlink:href="#n"/><radialGradient cx="25.505" cy="5.779" r="14.633" gradientUnits="userSpaceOnUse" gradientTransform="matrix(1.65 -.097 .045 .771 -17.29 8.661)" fy="5.779" fx="25.505" xlink:href="#q"/><linearGradient x1="2.5" x2="5.429" y1="25.679" y2="42.929" gradientUnits="userSpaceOnUse" xlink:href="#y"/><radialGradient cx="25.567" cy="40.914" r="20.063" gradientUnits="userSpaceOnUse" gradientTransform="matrix(1.077 -.204 .151 .797 -6.091 -3.006)" fy="40.914" fx="25.567" xlink:href="#z"/><linearGradient x1="8.781" x2="10.81" y1="29.236" y2="43.273" gradientTransform="matrix(.866 0 0 .865 5.617 -10.96)" gradientUnits="userSpaceOnUse" xlink:href="#A"/><radialGradient id="z" cx="309.748" cy="439.215" r="24.293" gradientTransform="matrix(1.041 0 0 1.041 -251.997 -439.278)" fx="309.748" fy="439.215" gradientUnits="userSpaceOnUse"><stop offset="0" stop-color="#fff"/><stop offset="1" stop-color="#6fb7ff"/></radialGradient><linearGradient id="A"><stop offset="0" stop-color="#1a65d1"/><stop offset=".25" stop-color="#74aaf7"/><stop offset=".75" stop-color="#74aaf7"/><stop offset="1" stop-color="#1a65d1"/></linearGradient><linearGradient id="y"><stop offset="0"/><stop offset=".358" stop-opacity="0"/><stop offset=".66" stop-opacity="0"/><stop offset="1"/></linearGradient><linearGradient id="q"><stop offset="0" stop-color="#fff"/><stop offset="1" stop-color="#d9d9d4"/></linearGradient><linearGradient id="n"><stop offset="0" stop-color="#3465a4"/><stop offset="1" stop-color="#3465a4" stop-opacity="0"/></linearGradient><linearGradient id="r"><stop offset="0" stop-color="#3465a4"/><stop offset="1" stop-color="#3465a4" stop-opacity="0"/></linearGradient><linearGradient id="u"><stop offset="0" stop-color="#3465a4"/><stop offset="1" stop-color="#3465a4" stop-opacity="0"/></linearGradient><linearGradient id="t"><stop offset="0" stop-color="#3465a4"/><stop offset="1" stop-color="#3465a4" stop-opacity="0"/></linearGradient><linearGradient id="p"><stop offset="0" stop-color="#3465a4"/><stop offset="1" stop-color="#3465a4" stop-opacity="0"/></linearGradient><linearGradient id="x"><stop offset="0" stop-color="#3465a4"/><stop offset="1" stop-color="#3465a4" stop-opacity="0"/></linearGradient><linearGradient id="w"><stop offset="0" stop-color="#3465a4"/><stop offset="1" stop-color="#3465a4" stop-opacity="0"/></linearGradient><linearGradient id="v"><stop offset="0" stop-color="#3465a4"/><stop offset="1" stop-color="#3465a4" stop-opacity="0"/></linearGradient><linearGradient id="s"><stop offset="0" stop-color="#fff"/><stop offset="1" stop-color="#fff" stop-opacity="0"/></linearGradient><linearGradient id="o"><stop offset="0" stop-color="#204a87" stop-opacity="0"/><stop offset="1" stop-color="#204a87"/></linearGradient><linearGradient id="af" x1="42.822" x2="38.608" y1="19.714" y2="12.5" xlink:href="#n" gradientUnits="userSpaceOnUse" gradientTransform="matrix(.55 -.28 .282 .555 12.138 9.088)"/><linearGradient id="ae" x1="42.822" x2="38.608" y1="19.714" y2="12.5" xlink:href="#n" gradientUnits="userSpaceOnUse" gradientTransform="matrix(.608 .105 -.107 .614 8.09 10.776)"/><linearGradient id="J" x1="29.701" x2="27.727" y1="21.071" y2="16.5" xlink:href="#p" gradientUnits="userSpaceOnUse" gradientTransform="matrix(.093 -.996 .996 .093 14.435 39.068)"/><linearGradient id="ad" x1="25.487" x2="23.941" y1="20.023" y2="14.786" xlink:href="#x" gradientUnits="userSpaceOnUse" gradientTransform="matrix(.998 -.061 .061 .998 .152 7.351)"/><linearGradient id="ac" x1="23.701" x2="21.299" y1="22.071" y2="17.429" xlink:href="#w" gradientUnits="userSpaceOnUse" gradientTransform="matrix(.998 -.061 .061 .998 2.046 9.963)"/><linearGradient id="ab" x1="19.022" x2="19.022" y1="23.942" y2="18.321" xlink:href="#v" gradientUnits="userSpaceOnUse" gradientTransform="matrix(.998 -.061 .061 .998 2.503 5.588)"/><linearGradient id="Z" x1="29.701" x2="27.727" y1="21.071" y2="16.5" xlink:href="#p" gradientUnits="userSpaceOnUse" gradientTransform="matrix(.911 -.411 .411 .911 8.34 6.628)"/><linearGradient id="L" x1="38.273" x2="36.37" y1="19.214" y2="14.929" xlink:href="#u" gradientUnits="userSpaceOnUse" gradientTransform="matrix(.985 -.17 .17 .985 -2.02 10.129)"/><linearGradient id="Y" x1="34.296" x2="33.095" y1="20.485" y2="15.557" xlink:href="#t" gradientUnits="userSpaceOnUse" gradientTransform="matrix(.716 .698 -.698 .716 8.476 -10.445)"/><linearGradient id="H" x1="40.625" x2="36.695" y1="15.78" y2="11.709" xlink:href="#r" gradientUnits="userSpaceOnUse" gradientTransform="matrix(.702 -.712 .712 .702 .482 33.935)"/><linearGradient id="W" x1="38.568" x2="32.496" y1="11.548" y2="9.405" xlink:href="#s" gradientUnits="userSpaceOnUse" gradientTransform="matrix(.998 -.061 .061 .998 -13.039 10.486)"/><linearGradient id="X" x1="40.625" x2="36.695" y1="15.78" y2="11.709" xlink:href="#r" gradientUnits="userSpaceOnUse" gradientTransform="matrix(.803 -.596 .596 .803 -15.23 31.267)"/><linearGradient id="aa" x1="42.822" x2="38.608" y1="19.714" y2="12.5" xlink:href="#n" gradientUnits="userSpaceOnUse" gradientTransform="matrix(.979 .206 -.206 .979 -15.365 -4.99)"/><radialGradient cx="25.505" cy="5.779" r="14.633" xlink:href="#q" gradientUnits="userSpaceOnUse" gradientTransform="matrix(1.641 -.196 .092 .767 -68.237 16.13)" fx="25.505" fy="5.779"/><radialGradient cx="29.2" cy="26.302" r="11.357" xlink:href="#o" gradientUnits="userSpaceOnUse" gradientTransform="matrix(2.682 -.356 .157 1.183 -104.459 8.1)" fx="29.2" fy="26.302"/><radialGradient cx="25.567" cy="40.914" r="20.063" xlink:href="#z" gradientUnits="userSpaceOnUse" gradientTransform="matrix(1.077 -.204 .151 .797 -57.104 1.98)" fx="25.567" fy="40.914"/><linearGradient x1="8.781" x2="10.81" y1="29.236" y2="43.273" xlink:href="#A" gradientUnits="userSpaceOnUse" gradientTransform="matrix(.866 0 0 .865 -45.395 -5.975)"/><linearGradient x1="2.5" x2="5.429" y1="25.679" y2="42.929" xlink:href="#y" gradientUnits="userSpaceOnUse" gradientTransform="translate(-51.013 4.986)"/><linearGradient id="ai" x1="42.822" x2="38.608" y1="19.714" y2="12.5" xlink:href="#n" gradientUnits="userSpaceOnUse" gradientTransform="matrix(.425 .606 -.591 .436 13.864 -15.841)"/><linearGradient id="ah" x1="42.822" x2="38.608" y1="19.714" y2="12.5" xlink:href="#n" gradientUnits="userSpaceOnUse" gradientTransform="matrix(.425 .606 -.591 .436 11.839 -14.013)"/><linearGradient id="ag" x1="42.822" x2="38.608" y1="19.714" y2="12.5" xlink:href="#n" gradientUnits="userSpaceOnUse" gradientTransform="matrix(.266 .399 -.369 .287 15.293 -6.285)"/><linearGradient id="K" x1="29.701" x2="27.727" y1="21.071" y2="16.5" xlink:href="#p" gradientUnits="userSpaceOnUse" gradientTransform="matrix(.781 -.625 .625 .781 4.956 16.698)"/><linearGradient id="aj" x1="42.822" x2="38.608" y1="19.714" y2="12.5" xlink:href="#n" gradientUnits="userSpaceOnUse" gradientTransform="matrix(.216 -.578 .583 .218 16.577 24.649)"/><linearGradient id="ak" x1="42.822" x2="38.608" y1="19.714" y2="12.5" xlink:href="#n" gradientUnits="userSpaceOnUse" gradientTransform="matrix(.006 .74 -.733 .023 30.121 -8.628)"/><radialGradient id="M" cx="22.628" cy="16.229" r="10.416" xlink:href="#B" fx="22.628" fy="16.229" gradientTransform="matrix(1 0 0 .486 0 8.344)" gradientUnits="userSpaceOnUse"/></defs><g><path fill="#729fcf" d="M24.38 8.85c2.07 1.8 5.1 1.88 6.7 1.26 2.83 4.77 5.6 6.32 11.4 4.36 1.12 4.32 1.74 6.33 5.65 7.35-2.22 1.63-4.45 3.25-6.33.45-3.33 5.7-3.85 9.7-11.53 7.65-.88 4.74-3.85 7.77-6.5 10.07-2.55.03-6.14-3.23-7.57-7.8-5 .45-9.33-4.13-10.15-9.52l-5.73-.43c3.3-2.33 6.36-4.74 6.83-8 5.16 2.4 7.78 1.53 9.56-3.32 1.8 1.38 6.04-.18 7.68-2.05z"/><path fill="url(#C)" d="M.2 22.2c3.44-1.93 6.24-4.32 6.92-8.16 1.78 4.1 5.44 5.57 8.23 4.44-.7 3.58-3.93 7.35-9.08 4.3z"/><path fill="url(#D)" d="M7.5 14.24c4.04 2.83 8.28.77 9.15-3.27 2.24 5.14 7.67 3.88 10.45 2.55-1.87 4.56-6.54 6.96-11.5 4.7-3.24 1.95-7.7-.93-8.1-3.98z"/><path fill="url(#E)" d="M16.9 10.9c2.15 1.2 5.8-.13 7.46-1.9 1.33 1.3 4.13 1.93 6.72 1.25-.36 3.2-2.1 4.6-4.04 2.94-4.5 2.92-9.42 1.35-10.13-2.3z"/><path fill="url(#F)" d="M15.67 18.16c4.04 2.82 10.5-.6 11.37-4.64 2.04 4.1 6.74 6.5 9.53 5.16-1.33 5.88-8.02 8.94-11.95 5.48-2.72.5-7.4-1.45-8.95-6z"/><path fill="url(#G)" d="M26.97 13.52c2.34 1.3 4.2-.8 4.18-3.53 2.33 5.12 5.98 6.52 11.56 4.17-.36 3.2-3.6 6.83-6.13 4.57-3.64 1.5-8.05-1.78-9.6-5.22z"/><path fill="none" stroke="#204a87" stroke-width=".5" d="M30.3 29.7c-2.5.7-6.04-1.54-5.78-5.5-4.35.92-8.13-3.84-9.17-5.78-3.33 1.26-6.37.08-8.36-4.05" opacity=".5"/><path fill="#fff" fill-rule="evenodd" stroke="url(#H)" stroke-width=".75" d="M33.52 15.05s2.62 2.57 4.06 2.6c.95 0 2.56-.7 2.72-1.65.14-.8-.96-1.84-1.74-2.1-1.46-.5-5.04 1.15-5.04 1.15z"/><path fill="none" stroke="#204a87" stroke-width=".5" d="M41.8 22.27c-2.5.7-5.07-1.7-5.33-3.37-5.65 1.06-8.53-3.3-9.56-5.25-4.76 1.65-8.26 1.98-10.25-3.07" opacity=".5"/><path fill="url(#I)" d="M36.5 18.94c3.2 1.65 5.73-1.38 6.34-4.7.02 4.1 2.37 7.27 5.42 7.5-2.2 1.96-4 3.38-6.53.66-2.2.38-4.46-.8-5.22-3.46z"/><path fill="none" stroke="#204a87" stroke-width=".5" d="M16.13 32c5.3-.1 7.8-2.86 8.4-7.68C30.36 27.6 34.74 23.5 36.7 19c3 1.07 5.32-1.22 5.8-4.7" opacity=".5"/><path fill="none" stroke="#204a87" stroke-width=".5" d="M6.4 22.6c3.4 2.77 8.2.86 9.04-4.16 4.88 1.85 9.5.1 11.6-4.92 2.35 1.13 3.88-1.16 3.85-3.27" opacity=".5"/><path fill="#fff" fill-rule="evenodd" stroke="url(#J)" stroke-width=".75" d="M32.2 13.9s3.6.7 4.82-.1c.8-.5 1.74-2 1.35-2.86-.33-.75-1.8-1-2.6-.8-1.5.4-3.57 3.75-3.57 3.75z"/><path fill="#fff" fill-rule="evenodd" stroke="url(#K)" stroke-width=".75" d="M35.4 12s2 3.07 3.42 3.4c.92.2 2.64-.14 3-1.02.3-.76-.54-2-1.24-2.43-1.32-.8-5.17.04-5.17.04z"/><path fill="#fff" fill-rule="evenodd" stroke="url(#L)" stroke-width=".75" d="M34.73 17.27s.27 3.67 1.34 4.63c.7.64 2.38 1.16 3.12.57.63-.52.5-2.02.08-2.73-.77-1.35-4.55-2.47-4.55-2.47z"/><path fill="url(#M)" d="M33.04 16.23a10.42 5.06 0 1 1-20.83 0 10.42 5.06 0 1 1 20.84 0z" transform="matrix(.954 -.299 .299 .954 -5.911 6.149)" color="#000" overflow="visible" enable-background="accumulate"/><g><path fill="url(#N)" d="M75.3 7.22v22.3c0 1.17-.65 2.33-1.92 3.22-2.54 1.78-6.67 1.78-9.22 0-1.27-.9-1.9-1.8-1.9-2.98V7.22" color="#000" overflow="visible" transform="translate(-40.554 1.633)"/><path fill="url(#O)" d="M64.17 5.53c-2.55 1.25-2.55 3.3 0 4.54 2.54 1.25 6.66 1.25 9.2 0 2.55-1.25 2.55-3.28 0-4.54-2.54-1.25-6.66-1.25-9.2 0z" color="#000" overflow="visible" transform="translate(-40.554 1.633)"/><path fill="url(#P)" d="M75.26 8.2v21.43c0 1.13-.66 2.2-1.86 3-2.54 1.72-6.67 1.72-9.2 0-1.2-.8-1.87-1.63-1.86-2.75V8.28l.73.36v21.24c0 .94.4 1.43 1.44 2.14 2.37 1.6 6.22 1.6 8.58 0 1.04-.7 1.45-1.45 1.45-2.4v-21z" transform="translate(-40.554 1.633)"/><g fill="url(#Q)" transform="matrix(.796 0 0 .802 -51.056 -160.119)"><radialGradient cx="96.07" cy="217.459" r="30.602" fx="96.07" fy="217.459" gradientTransform="matrix(1 0 0 .847 0 28.519)" gradientUnits="userSpaceOnUse"><stop fill="url(#R)" offset="0" stop-color="#fff"/><stop fill="url(#R)" offset=".066" stop-color="#F4F7FA"/><stop fill="url(#R)" offset=".182" stop-color="#D7E1EC"/><stop fill="url(#R)" offset=".335" stop-color="#A7BDD7"/><stop fill="url(#R)" offset=".516" stop-color="#668DB9"/><stop fill="url(#R)" offset=".652" stop-color="#3065A0"/><stop fill="url(#R)" offset=".916" stop-color="#1A3A6B"/></radialGradient><path fill="url(#S)" d="M93.98 208.92c-1.58.77-2.44 1.8-2.44 2.92 0 1.1.86 2.15 2.44 2.92 3.14 1.54 8.26 1.54 11.4 0 1.57-.77 2.44-1.8 2.44-2.92 0-1.1-.87-2.15-2.44-2.92-3.14-1.54-8.26-1.54-11.4 0zm.6 5.3c-1.3-.65-2.03-1.5-2.03-2.38 0-.89.72-1.73 2.03-2.37 2.8-1.37 7.38-1.37 10.2 0 1.3.64 2.03 1.5 2.03 2.37 0 .89-.7 1.73-2.02 2.37-2.8 1.38-7.4 1.38-10.2 0zm-.6-5.3z"/></g><path fill="none" stroke="#003745" stroke-width=".761" d="M21.7 31.66c0 1.16.63 2.08 1.9 2.97 2.55 1.78 6.68 1.78 9.22 0 1.27-.88 1.9-2.05 1.9-3.2V9.36c0-.75-.62-1.58-1.9-2.2-2.54-1.26-6.67-1.26-9.2 0-1.28.62-1.92 1.44-1.92 2.2z"/></g><path fill="url(#T)" d="M16.06 32.07c4.04-.12 8.18-1.55 8.5-7.9.2 3.56 2.82 6.1 5.74 5.54-.63 4.25-2.95 7.5-6.46 10.53-2.46-.6-7.14-4.17-7.78-8.16z" color="#000" overflow="visible" enable-background="accumulate"/><path fill="url(#U)" d="M24.62 24.1c4.5 3.6 11.27-.34 11.95-5.23.74 2.2 3.22 3.94 5.22 3.47-1.8 3.84-4.26 10.35-11.43 7.3-2.53.9-5.37-1.64-5.75-5.54z"/><path fill="none" stroke="#204a87" stroke-width=".75" d="M40.5 14.98c.65-.14 1.35-.33 2.1-.6 1.13 4.33 1.75 6.35 5.66 7.36-2.22 1.62-4.45 3.25-6.33.45-3.33 5.7-3.85 9.67-11.53 7.63-.88 4.74-3.85 7.77-6.5 10.07-2.55.04-6.13-3.23-7.57-7.8-5 .45-9.33-4.12-10.15-9.52l-5.73-.42c3.3-2.33 6.36-4.74 6.83-8 5.16 2.38 7.78 1.53 9.56-3.33 1.16.9 3.36.56 5.2-.3" stroke-linejoin="round"/><path fill="url(#V)" d="M6.14 22.86c5.8 2.76 8.66 0 9.34-4.64 1.65 4.16 6.3 6.95 9.07 5.8-.04 5.55-3.6 7.7-8.3 8.05-5.96.4-9.32-4.8-10.1-9.2z" color="#000" overflow="visible" enable-background="accumulate"/><path fill="url(#W)" fill-rule="evenodd" stroke="url(#X)" stroke-width=".75" d="M20.33 17.7s2.2 2.95 3.6 3.2c.95.15 2.64-.3 2.95-1.2.26-.78-.67-1.97-1.4-2.36-1.36-.72-5.15.36-5.15.36z"/><path fill="#fff" fill-rule="evenodd" stroke="url(#Y)" stroke-width=".75" d="M20.58 21.58s-2.8 2.37-2.96 3.8c-.1.95.46 2.6 1.38 2.86.8.2 1.92-.78 2.26-1.53.63-1.4-.68-5.12-.68-5.12z"/><path fill="#fff" fill-rule="evenodd" stroke="url(#Z)" stroke-width=".75" d="M39 9.63s1.18 3.48 2.47 4.14c.84.44 2.6.53 3.16-.23.48-.66-.03-2.08-.6-2.67C42.93 9.77 39 9.63 39 9.63z"/><path fill="#fff" fill-rule="evenodd" stroke="url(#aa)" stroke-width=".75" d="M19.85 17s-.76 3.6 0 4.83c.5.8 1.97 1.77 2.85 1.4.75-.32 1.03-1.8.84-2.6-.37-1.5-3.7-3.62-3.7-3.62z"/><path fill="#fff" fill-rule="evenodd" stroke="url(#ab)" stroke-width=".75" d="M21.94 21.23s-1.53 3.33-1.06 4.7c.32.9 1.53 2.16 2.47 2 .8-.15 1.4-1.53 1.4-2.35-.04-1.55-2.8-4.35-2.8-4.35z"/><path fill="#fff" fill-rule="evenodd" stroke="url(#ac)" stroke-width=".75" d="M23.35 24.9s-.14 3.68.82 4.76c.64.7 2.24 1.4 3.04.9.7-.44.73-1.95.4-2.7-.62-1.43-4.25-2.95-4.25-2.95z"/><path fill="#fff" fill-rule="evenodd" stroke="url(#ad)" stroke-width=".75" d="M23.3 19.6s-.14 3.68.82 4.76c.63.7 2.24 1.4 3.04.9.7-.44.72-1.95.4-2.7-.63-1.43-4.26-2.95-4.26-2.95z"/><path fill="#fff" fill-rule="evenodd" stroke="url(#ae)" stroke-width=".75" d="M30.27 23.63s-.4 2.26.1 3c.33.5 1.26 1.06 1.8.8.45-.2.6-1.14.45-1.63-.26-.93-2.35-2.17-2.35-2.17z"/><path fill="#fff" fill-rule="evenodd" stroke="url(#af)" stroke-width=".75" d="M37.6 6.1s1.03 2.04 1.88 2.34c.56.2 1.63.1 1.9-.42.25-.45-.2-1.28-.6-1.6-.76-.58-3.18-.32-3.18-.32z"/><path fill="#fff" fill-rule="evenodd" stroke="url(#ag)" stroke-width=".75" d="M20.37 13.4S19 14.43 18.9 15.13c-.1.46.1 1.3.52 1.46.35.13.9-.32 1.08-.67.33-.67-.13-2.54-.13-2.54z"/><path fill="#fff" fill-rule="evenodd" stroke="url(#ah)" stroke-width=".75" d="M19.96 15.82s-2.17 1.6-2.36 2.66c-.13.7.18 1.97.84 2.2.56.2 1.44-.47 1.72-1 .54-1.02-.2-3.86-.2-3.86z"/><path fill="#fff" fill-rule="evenodd" stroke="url(#ai)" stroke-width=".75" d="M21.98 14s-2.17 1.6-2.36 2.65c-.12.7.2 1.97.84 2.2.56.2 1.44-.47 1.73-1 .53-1.02-.22-3.86-.22-3.86z"/><path fill="#fff" fill-rule="evenodd" stroke="url(#aj)" stroke-width=".75" d="M33.32 5.24s2.14.8 2.97.45c.53-.24 1.26-1.05 1.1-1.62-.12-.5-1-.8-1.5-.75-.98.08-2.58 1.9-2.58 1.9z"/><path fill="#fff" fill-rule="evenodd" stroke="url(#ak)" stroke-width=".75" d="M19.86 20.54s-2.7.08-3.45.85c-.5.5-.95 1.7-.55 2.28.35.5 1.46.43 2 .15 1.02-.53 2-3.3 2-3.3z"/></g></svg>