<svg xmlns="http://www.w3.org/2000/svg" width="48" height="48" xmlns:xlink="http://www.w3.org/1999/xlink" version="1" viewBox="0 0 612 792" enable-background="new 0 0 612 792"><defs><linearGradient x1="340.353" x2="335.096" y1="475.421" y2="457.896" xlink:href="#a" gradientUnits="userSpaceOnUse"/><radialGradient cx="339.367" cy="453.958" r="95.967" xlink:href="#b" gradientUnits="userSpaceOnUse" gradientTransform="matrix(1.017 0 0 1 -5.605 0)"/><radialGradient cx="351.672" cy="481.788" r="33.5" xlink:href="#c" gradientUnits="userSpaceOnUse" gradientTransform="matrix(1.017 0 0 1 -5.605 0)"/><radialGradient cx="359.026" cy="475.631" r="18.771" xlink:href="#d" gradientUnits="userSpaceOnUse" gradientTransform="matrix(1.017 0 0 1 -5.605 0)"/><radialGradient cx="352.289" cy="458.565" r="26.958" xlink:href="#e" gradientUnits="userSpaceOnUse" gradientTransform="matrix(.481 .881 -.314 .166 327.089 72.261)"/><radialGradient cx="334.403" cy="452.116" r="21.01" xlink:href="#f" gradientUnits="userSpaceOnUse" gradientTransform="matrix(-.514 .863 -.175 -.101 585.923 209.356)"/><radialGradient cx="335.654" cy="485.615" r="26.517" xlink:href="#g" gradientUnits="userSpaceOnUse" gradientTransform="matrix(1.007 -.141 .101 .693 -51.073 196.57)"/><radialGradient cx="347.987" cy="479.824" r="13.794" xlink:href="#h" gradientUnits="userSpaceOnUse" gradientTransform="matrix(.986 -.245 .174 .679 -78.438 239.297)"/><linearGradient id="a" x1="340.353" x2="335.096" y1="475.421" y2="457.896" gradientUnits="userSpaceOnUse"><stop offset="0" stop-color="#D8B08D" stop-opacity=".75"/><stop offset=".203" stop-color="#E9CFB5" stop-opacity=".385"/><stop offset=".749" stop-color="#fff" stop-opacity="0"/></linearGradient><radialGradient id="b" cx="339.367" cy="453.958" r="95.967" gradientTransform="matrix(1.017 0 0 1 -5.605 0)" gradientUnits="userSpaceOnUse"><stop offset="0" stop-color="#CDA183" stop-opacity=".75"/><stop offset=".141" stop-color="#E9CFB5" stop-opacity=".385"/><stop offset=".607" stop-color="#fff" stop-opacity="0"/></radialGradient><radialGradient id="c" cx="351.672" cy="481.788" r="33.5" gradientTransform="matrix(1.017 0 0 1 -5.605 0)" gradientUnits="userSpaceOnUse"><stop offset="0" stop-color="#161002" stop-opacity=".89"/><stop offset=".331" stop-color="#3F2E01" stop-opacity=".385"/><stop offset=".749" stop-color="#4C2F04" stop-opacity="0"/></radialGradient><radialGradient id="d" cx="359.026" cy="475.631" r="18.771" gradientTransform="matrix(1.017 0 0 1 -5.605 0)" gradientUnits="userSpaceOnUse"><stop offset=".037" stop-color="#443A22"/><stop offset=".429" stop-color="#1F1000" stop-opacity=".385"/><stop offset="1" stop-color="#4E3107" stop-opacity="0"/></radialGradient><radialGradient id="e" cx="352.289" cy="458.565" r="26.958" gradientTransform="matrix(.481 .881 -.314 .166 327.089 72.261)" gradientUnits="userSpaceOnUse"><stop offset=".037" stop-color="#8A756F"/><stop offset=".429" stop-color="#633812" stop-opacity=".385"/><stop offset="1" stop-color="#6F4C39" stop-opacity="0"/></radialGradient><radialGradient id="f" cx="334.403" cy="452.116" r="21.01" gradientTransform="matrix(-.514 .863 -.175 -.101 585.923 209.356)" gradientUnits="userSpaceOnUse"><stop offset="0" stop-color="#ECE7E8" stop-opacity=".52"/><stop offset=".203" stop-color="#DED8CD" stop-opacity=".385"/><stop offset=".749" stop-color="#603E14" stop-opacity="0"/></radialGradient><radialGradient id="g" cx="335.654" cy="485.615" r="26.517" gradientTransform="matrix(1.007 -.141 .101 .693 -51.073 196.57)" gradientUnits="userSpaceOnUse"><stop offset="0" stop-color="#CD925D"/><stop offset=".749" stop-color="#fff" stop-opacity="0"/></radialGradient><radialGradient id="h" cx="347.987" cy="479.824" r="13.794" gradientTransform="matrix(.986 -.245 .174 .679 -78.438 239.297)" gradientUnits="userSpaceOnUse"><stop offset="0" stop-color="#CD925D"/><stop offset=".749" stop-color="#fff" stop-opacity="0"/></radialGradient><radialGradient id="p" cx="347.987" cy="479.824" r="13.794" xlink:href="#h" gradientUnits="userSpaceOnUse" gradientTransform="matrix(17.279 -4.287 3.052 11.889 -7083.434 -3623.922)"/><radialGradient id="o" cx="335.654" cy="485.615" r="26.517" xlink:href="#g" gradientUnits="userSpaceOnUse" gradientTransform="matrix(17.641 -2.477 1.764 12.14 -6604.043 -4372.417)"/><radialGradient id="n" cx="334.403" cy="452.116" r="21.01" xlink:href="#f" gradientUnits="userSpaceOnUse" gradientTransform="matrix(-9.012 15.113 -3.075 -1.771 4555.287 -4148.428)"/><radialGradient id="m" cx="352.289" cy="458.565" r="26.958" xlink:href="#e" gradientUnits="userSpaceOnUse" gradientTransform="matrix(8.428 15.435 -5.496 2.899 20.853 -6550.059)"/><radialGradient id="l" cx="359.026" cy="475.631" r="18.771" xlink:href="#d" gradientUnits="userSpaceOnUse" gradientTransform="matrix(17.82 0 0 17.518 -5807.49 -7815.931)"/><radialGradient id="k" cx="351.672" cy="481.788" r="33.5" xlink:href="#c" gradientUnits="userSpaceOnUse" gradientTransform="matrix(17.82 0 0 17.518 -5807.49 -7815.931)"/><radialGradient id="j" cx="339.367" cy="453.958" r="95.967" xlink:href="#b" gradientUnits="userSpaceOnUse" gradientTransform="matrix(17.82 0 0 17.518 -5807.49 -7815.931)"/><linearGradient id="i" x1="340.353" x2="335.096" y1="475.421" y2="457.896" xlink:href="#a" gradientUnits="userSpaceOnUse" gradientTransform="matrix(17.519 0 0 17.518 -5709.305 -7815.931)"/></defs><path d="M424.17 731.7c-9.53-14.1-36.77-34.57-51.1-44.12-26.4-17.62-44.57-15.8-73.66-9.33-35.6 7.86-66.02 32.44-92.74 67.63-39.78 52.24-57.62 45.92-61.6 35.4-16.7-65.6 63.32-169.86 64.44-250.96.03-2.55.14-5.57.24-8.72.55-12.07.18-25.45.18-25.45s-36.18 5.5-63.45 6.13c-15.75.24-29.94-1.12-35.57-6.43-12.9-12.25-24.5-38.3-20.42-83.04 4.13-44.74-9.16-71.6-5.2-97.32 3.04-19.48 14.92-46.65 23.26-63.1 11.67-23.03 15.84-47.38 23.33-72.3 10.38-34.38 28.1-70.05 56.6-93.07 9.06-7.3 19.68-13.18 31.33-17.08 10.1 2.64 25.5 6.37 39.82 24.45 12.58 15.85 16.84 19.5 25.47 36.02 2.95 5.6 6.54 10.7 11.03 12.95 4.13 2.07 8.72 1.8 14.7-.8-2.14 6.5 2.45 20.72 3.36 25.2 3.74 19.17 33.8 36.46 39.2 86.32 1.7 15.64 5.03 30.58 8.25 41.97 6.2 22.26 23.72 41.97 30.8 52.15 3.52 25.1 17 68.15 12.96 109.07-1.78 18.2-21 34.6-18.3 50.44 2.5 14.62 6.6 27.93 13.74 38.02.23 58.4 3.38 71.1 5.57 83.28 2.23 12.13 19.3 82.4 17.77 102.7z"/><path fill="#e9cdab" d="M424.17 731.7c-9.53-14.1-36.77-34.57-51.1-44.12-26.4-17.62-44.57-15.8-73.66-9.33-35.6 7.86-66.02 32.44-92.74 67.63-39.78 52.24-57.62 45.92-61.6 35.4-16.7-65.6 63.32-169.86 64.44-250.96.03-2.55.14-5.57.24-8.72.55-12.07.18-25.45.18-25.45s-36.18 5.5-63.45 6.13c-15.75.24-29.94-1.12-35.57-6.43-12.9-12.25-24.5-38.3-20.42-83.04 4.13-44.74-9.16-71.6-5.2-97.32 3.04-19.48 14.92-46.65 23.26-63.1 11.67-23.03 15.84-47.38 23.33-72.3 10.38-34.38 28.1-70.05 56.6-93.07 9.06-7.3 19.68-13.18 31.33-17.08 10.1 2.64 25.5 6.37 39.82 24.45 12.58 15.85 16.84 19.5 25.47 36.02 2.95 5.6 6.54 10.7 11.03 12.95 4.13 2.07 8.72 1.8 14.7-.8-2.14 6.5 2.45 20.72 3.36 25.2 3.74 19.17 33.8 36.46 39.2 86.32 1.7 15.64 5.03 30.58 8.25 41.97 6.2 22.26 23.72 41.97 30.8 52.15 3.52 25.1 17 68.15 12.96 109.07-1.78 18.2-21 34.6-18.3 50.44 2.5 14.62 6.6 27.93 13.74 38.02.23 58.4 3.38 71.1 5.57 83.28 2.23 12.13 19.3 82.4 17.77 102.7z"/><path fill="url(#i)" d="M424.47 732.17c-9.55-14.1-36.8-34.57-51.12-44.1-26.4-17.64-44.57-15.8-73.65-9.35-35.63 7.87-66.04 32.44-92.76 67.64-39.78 52.24-57.62 45.9-61.58 35.4-16.7-65.62 63.32-169.87 64.42-250.96.03-2.56.14-5.57.24-8.73.55-12.07.2-25.45.2-25.45s-36.2 5.5-63.47 6.13c-15.75.25-29.92-1.12-35.55-6.43-12.93-12.24-24.5-38.3-20.42-83.03 4.13-44.8-9.18-71.64-5.23-97.34 3.05-19.48 14.93-46.67 23.27-63.12 11.67-23.02 15.84-47.37 23.33-72.28 10.38-34.4 28.12-70.04 56.6-93.07 9.06-7.34 19.68-13.2 31.33-17.1 10.1 2.63 25.5 6.37 39.82 24.46 12.6 15.86 16.84 19.5 25.47 36.02 2.96 5.64 6.55 10.72 11.04 12.96 4.14 2.05 8.73 1.8 14.73-.8-2.16 6.5 2.43 20.72 3.34 25.2 3.77 19.17 33.8 36.44 39.23 86.32 1.7 15.64 5.02 30.58 8.23 41.97 6.2 22.26 23.72 41.97 30.8 52.13 3.54 25.16 17 68.18 12.96 109.1-1.8 18.2-21.03 34.6-18.32 50.44 2.5 14.6 6.6 27.92 13.76 38 .2 58.42 3.36 71.12 5.55 83.3 2.2 12.1 19.28 82.38 17.77 102.67z"/><path fill="url(#j)" d="M425.07 730.2c-9.53-14.1-36.78-34.58-51.1-44.12-26.4-17.63-44.57-15.8-73.67-9.34-35.63 7.87-66.03 32.44-92.76 67.64-39.8 52.24-57.6 45.9-61.58 35.4-16.7-65.62 63.3-169.87 64.43-250.96.03-2.56.12-5.57.24-8.73.54-12.08.17-25.46.17-25.46s-36.18 5.5-63.46 6.13c-15.73.25-29.92-1.12-35.54-6.43-12.9-12.24-24.5-38.3-20.43-83.03 4.14-44.77-9.16-71.62-5.22-97.32 3.05-19.48 14.94-46.67 23.28-63.12 11.67-23.02 15.84-47.37 23.34-72.28 10.37-34.4 27.3-70.4 55.78-93.42 9.07-7.33 19.53-13.62 31.16-17.52 10.12 2.63 26.5 7.16 40.83 25.24 12.58 15.86 16.84 19.5 25.47 36.02 2.96 5.64 6.54 10.72 11.04 12.96 4.13 2.05 8.72 1.8 14.72-.8-2.16 6.5 2.43 20.72 3.34 25.2 3.75 19.17 33.8 36.44 39.2 86.32 1.73 15.64 5.04 30.58 8.24 41.97 6.22 22.26 23.74 41.97 30.82 52.13 3.52 25.16 17 68.18 12.96 109.1-1.8 18.2-21.02 34.6-18.3 50.44 2.5 14.6 6.6 27.92 13.73 38 .2 58.42 3.36 71.12 5.57 83.3 2.2 12.1 19.27 82.36 17.75 102.67z"/><path fill="#432511" d="M525.7 659.73c1.2 21.86-2.23 25.38-26.83 28.54-8.95 1.12-14.5 15.12-26.38 23.72-5.1 3.72-40.1-12.03-48.15-19.9-115.2-113.3-205.85 4.7-214.03-2.5-21.55-18.64 96.46-148.5 116.48-219.66 13.2-47-19.3-44.16-9.26-131.75 2.36-37.9-12.88-82.72-7.48-108.85 3.7-17.92-3.68-25.6-7.73-35.32-4.55-10.98-6.36-24.73-.4-51.33-9.62 1.53-13.6-6.02-26.32-20.93-27.5-32.13-25.98-43.8-55.9-53.9-24.48 8.23-42.28 24.35-57.5 46.58-20.87 30.37-30.6 64.04-39.24 99.18-8.4 34.34-31.4 63.28-37.27 98.6-2.58 15.55 1.1 31.07 3.43 50.96 1.24 10.1 2.1 21.44 1.65 34.48-.3 9.1-2.67 36.23.73 54.4.76 4.23 4.74 21.82 9.93 29.35 1.12 1.6 4.94 9 9.7 12.07.98.65 7.45 6.82 33.34 6.33 1.82-.04 30.8-.76 65.64-6.78 2.13 23.73-2.56 85.87-15.26 104.56-7.2 19.5-38.9 23-44.87 24.17-9.48 1.87-22.4 4.48-32.93 4.24-4.3-.06-46.7-1.7-45.94-3.83 31.34-86.62-36.47-316.44-29.52-375.1 8-67.02 33.9-163.65 81.92-199.23 51.63-38.26 123.38-58.2 179.7-39.92 10.48 3.38 18.1 8.3 24.27 13.93 23.33-.9 35.9-2.23 51.9-1.26 2.16.13 5.46.44 11.15 1.74 14.2 3.36 39.17 2.2 56.78 22.47 16.43 18.83 37.7 29.1 49.52 34.7 7.83 3.33 15.02 10.3 21.34 19.88 15.14 23.3 36.8 45.88 37.98 87.98 1.77 59.42 18.3 88.8 14.5 106.66-1.13 5.28-1 12.13.3 21.22 7.6 53.55-37.3 144.56-50.08 176.93-13.6 34.37-1.7 136.73 4.85 167.56z"/><path fill="url(#k)" d="M526.03 660.55c1.2 21.87-2.23 25.4-26.84 28.54-8.95 1.1-14.5 15.1-26.4 23.7-5.1 3.74-40.08-12-48.12-19.87-115.22-113.3-205.86 4.7-214.04-2.5-21.55-18.65 96.46-148.5 116.48-219.67 13.2-47-19.3-44.16-9.27-131.75 2.38-37.86-12.87-82.7-7.48-108.83 3.73-17.92-3.68-25.6-7.72-35.32-4.56-10.98-6.35-24.73-.4-51.32-9.62 1.52-13.62-6.03-26.32-20.94-27.5-32.14-26-43.8-55.9-53.9-24.5 8.22-42.27 24.34-57.52 46.57-20.85 30.38-30.57 64.05-39.2 99.2-8.4 34.32-31.44 63.26-37.3 98.6-2.55 15.53 1.1 31.06 3.46 50.94 1.23 10.13 2.1 21.47 1.63 34.5-.3 9.1-2.65 36.23.73 54.4.75 4.23 4.73 21.82 9.9 29.36 1.13 1.6 4.97 9 9.72 12.07.98.64 7.44 6.8 33.34 6.32 1.8-.04 30.78-.75 65.63-6.78 2.12 23.74-2.58 85.87-15.26 104.56-7.18 19.5-38.93 23-44.88 24.16-9.5 1.87-22.4 4.48-32.95 4.23-4.27-.07-46.67-1.72-45.93-3.83 31.34-86.63-36.48-316.45-29.5-375.12 7.97-67 33.88-163.63 81.9-199.2 51.64-38.27 123.4-58.2 179.7-39.94 10.5 3.38 18.08 8.3 24.27 13.93 23.32-.9 35.92-2.23 51.9-1.26 2.15.15 5.46.46 11.14 1.76 14.2 3.36 39.17 2.2 56.77 22.48 16.45 18.8 37.73 29.08 49.54 34.68 7.83 3.33 15 10.3 21.35 19.88 15.1 23.3 36.78 45.88 37.96 87.98 1.78 59.42 18.3 88.82 14.5 106.67-1.14 5.27-1 12.12.3 21.2 7.6 53.56-37.28 144.57-50.1 176.94-13.56 34.36-1.7 136.72 4.87 167.55z"/><path fill="none" stroke="#601300" stroke-width="5.054" stroke-miterlimit="10" d="M311.84 17.87C330 30.37 338.8 42.13 348.7 51.33" stroke-linecap="round" stroke-linejoin="round"/><path fill="#432511" d="M643.72 551.85c-1.75 68.96-5.03 62.68-12.8 47.15-1.03-2.02-2.9-3.16-5.9-2.44-6.78 1.44-.94 16.8-4.23 21.1-8.4 10.7-2.24-15.6-13.54-15.9-3.15-.07-5.06 2.26-6.3 5.85-3.97 12.07-1.85 39.36-9 37.28-18.14-5.2-50.94-118.18-71.6-195.33-5.1-19.13-10.4-39-18.47-57.18-19.85-44.7-43.3-103.95-47.07-115.43-10.4-12.2-65.55-85.54-84.98-82.4-3.87 3.6-5.52 3.22-5.52.28.03-6.76 8.7-27.14 19.85-45.92 7.78-13.24 16.83-25.73 24.94-32.02 12.7-5.66 22.95-11.56 31.73-16.6 7.9-4.56 14.54-8.43 20.74-10.9 4.34-1.68 8.37-2.75 12.4-2.8 29.4-.37 70.14-.07 93.53 52.92 13.22 30.25 22.86 57.68 26.63 75.1 2.48 11.58-4.56 21.53-2.67 32.72 2.18 12.9 6.27 25.44 9.84 39.75 4.15 16.26 3.77 34.35 5.83 48.93 2.05 13.42 3.33 23.12 5.2 28.67 13.02 36.72 28.95 48.4 31.12 93.8 2 42.2 3.06 69.9.22 93.38z"/><path fill="url(#l)" d="M643.66 552.12c-1.76 68.95-5.02 62.68-12.8 47.14-1.02-2.02-2.9-3.16-5.9-2.44-6.77 1.44-.93 16.8-4.23 21.1-8.4 10.72-2.22-15.6-13.52-15.9-3.15-.06-5.05 2.27-6.3 5.86-3.96 12.05-1.84 39.34-9 37.26-18.13-5.2-50.93-118.18-71.58-195.33-5.1-19.12-10.4-38.98-18.5-57.15C482 347.93 458.57 288.7 454.8 277.2c-10.4-12.17-65.56-85.53-84.98-82.4-3.88 3.58-5.52 3.24-5.52.3.03-6.78 8.7-27.15 19.85-45.93 7.77-13.25 16.83-25.75 24.94-32 12.7-5.68 22.95-11.57 31.73-16.62 7.9-4.57 14.54-8.44 20.74-10.9 4.35-1.7 8.36-2.76 12.4-2.8 29.42-.38 70.15-.06 93.54 52.93 13.22 30.25 22.86 57.68 26.62 75.06 2.5 11.6-4.55 21.53-2.66 32.74 2.17 12.93 6.27 25.44 9.85 39.77 4.14 16.22 3.75 34.32 5.82 48.9 2.05 13.43 3.33 23.15 5.2 28.67 13.02 36.75 28.94 48.4 31.12 93.8 2 42.2 3.06 69.92.22 93.4z"/><path fill="url(#m)" d="M643.87 552.82c-1.75 68.95-5.02 62.68-12.8 47.14-1.02-2.02-2.9-3.15-5.9-2.44-6.77 1.44-.93 16.8-4.23 21.1-8.4 10.72-2.2-15.6-13.52-15.9-3.15-.06-5.06 2.27-6.3 5.86-3.97 12.05-1.85 39.34-9 37.26-18.14-5.2-50.94-118.18-71.58-195.33-5.1-19.12-10.42-38.98-18.5-57.15C482.2 348.65 458.8 289.4 455 277.92c-10.38-12.2-65.57-85.54-85-82.42-3.87 3.6-5.5 3.24-5.5.3.02-6.76 8.7-27.15 19.84-45.93 7.8-13.25 16.85-25.74 24.96-32 12.67-5.67 22.93-11.57 31.7-16.6 7.9-4.57 14.55-8.46 20.75-10.9 4.35-1.7 8.37-2.76 12.4-2.83 29.42-.37 70.15-.05 93.54 52.94 13.2 30.25 22.85 57.7 26.6 75.08 2.52 11.6-4.52 21.53-2.63 32.74 2.17 12.9 6.25 25.42 9.83 39.75 4.15 16.24 3.76 34.34 5.83 48.9 2.05 13.43 3.6 28.18 5.47 33.72 12.1 34.17 28.24 34.14 30.86 88.74 2 42.23 3.05 69.94.2 93.42z"/><path fill="url(#n)" d="M118.23 231.57c-8.7 23.34-45.32 102.2-48.95 54.13-2.45-32.53 18.34-101.7 25.68-115 4.6-8.46 9.7-18.83 11.58-25.14 5.82-19.1 15.98-42.97 26.96-55.18 13.42-15 40.63-25.23 63.07-26.88 6.9-.5 16.3 4.6 22.58 6.9-18.1 6.8-33.1 17.4-45.63 31.96-29.37 33.95-44.92 78.9-53.07 121.9-.07.3.8-.76.77-.55-.2.78-2.82 7.26-3 7.87z"/><path fill="none" stroke="#e0d7cd" stroke-width="5.054" stroke-miterlimit="10" d="M369.02 85.63c-22.6 17-27.66 27.77-39.4 36.02-12.98 9.16-20.6 18.74-27.45 21.9" stroke-linecap="round" stroke-linejoin="round"/><path fill="none" stroke="#601300" stroke-width="5.054" stroke-miterlimit="10" d="M373.54 84.9c-22.58 17-27.68 27.74-39.38 36-13 9.16-23.05 19.82-29.88 22.96-7.63 19.3-7.42 40.03 1.1 56.2 10 18.97-.35 42.13 7.76 71.17 5.96 21.16 7.08 26.65 15.98 40.52" stroke-linecap="round" stroke-linejoin="round"/><path fill="none" stroke="#601300" stroke-width="5.054" stroke-miterlimit="10" d="M116.98 120.56c14.46-35.4 42.85-51 80.75-55.85 7.65-.95 29.83 4.95 38.96 10.9 0 0 9.45 9.26 39.37 50.02 4.77 6.54 15.92 21.87 25.95 17.14" stroke-linecap="round" stroke-linejoin="round"/><g><path fill="#d8e142" d="M661.4 425.43c-2.92-21.8-29.8-73.9-45.5-85.72-3.2-2.4-7.52 1.94-13.7 3.3-2.03.56 33.6 74 33.46 80.15-.07 1.37-17.47 7.55-17.47 7.55s-5.98-17.3-13.85-25.68c-7.48-7.87-14.28-4.56-14.22 5.8 0 10.47 9.72 26.6 8.42 27.2-1.9.84-29.92 11.02-32.2 12.1-.57.2-6.53-21.3-12.5-26.3-9.95-8.38-15.1-4.16-16.82 4.95-1.14 6.2 9.7 28.8 8.74 29.24-8.18 3.3-21.43 8.3-27.84 10.6-1.82.64-28.1-67.63-31.57-70.22-12.73-9.22-14.26-7.74-15.18 6.1-.53 6.86 28.67 70.87 27 71.47-5.3 2.1-20.28 8.18-27.1 10.58-1.1.3-25.48-63.1-31.77-69.28-11.97-11.85-12.76-9.85-15.72 5.8-1.02 5.53 26.9 71.82 25.36 72.38-1.3.6-44.84 18.67-49.68 20.32-15.2 5.32-35.2 14.03-54.97 24-43.88 21.95-71.6 55.92-63.27 71.72 8.35 15.76 51.24 16.1 95.07-5.92 21.3-10.6 41.45-23.27 56.17-30.75 17.53-8.97 216.16-72.8 231.35-113.86 3.06-8.17-1.1-27.58-2.23-35.5z"/><path fill="#aec230" d="M633.35 375.62s33.2 52.52 22.28 78.24c-4.77 11.23-13.82 18.67-16.75 21.35-13.9 12.8-125.43 68.72-230.58 102.12 0 0 128.64-56.74 146.95-64.48 18.34-7.78 74.9-37.22 78.1-41.17 3.15-3.9 24.66-16.34 17.5-41.13-7.17-24.82-17.5-54.92-17.5-54.92z"/></g><path fill="#e8d3ba" d="M-19.75 749.2c18.2 14.2 58.48 26.78 108.37 16.3 7.64-1.66 14.8-3.7 21.22-6.18 44.02-17.24 113.55-121.56 160.03-148.5 17.43.07 26.33-1.3 32.48-2.2 26.6-3.8 17 12.83 37.5 16.44 10.1 1.8 9.52-.52 13-4.75 4.03-5.08-6.18-22.57 3.77-21.6 5.12.45 11.62 5.6 17.75 11.77 3.9 3.84 4.66 6.03 11.38 7.43 9.7-.58 12.7-5.9 9.4-16.2-7.14-21.87-7.12-30.82-4.44-33.92 18.28-21 44.67 27.3 52.7 24.5 5.26-1.76 4.8-3.76 6.7-7.93 8.92-18.97-53.1-58.2-33.78-59.67 7.52-.54 26.7 4.12 34.88 11.32 17.05 15 31.87 44.13 41.58 25.2.43-.9.82-2.15.78-3-.08-2.14-8.8-17.35-18.97-36.42-4.18-7.8-23.75-17.15-31.93-22.65-9.28-5.47-17.17-11.32-27.47-14.6-8.16-2.57-22.33-8.86-35.58-3.52-17.06 6.86-35.07 16.58-60.94 23.98-18.24 5.23-52.74 17.02-86.63 45.82-26.35 9.95-65.7 29.7-105.33 45.4-38 15-42.18 16.6-66.7 25.43-5.5 1.98-10.15 3.62-13.88 4.82-8.45 2.73-15.44 3.94-21.92 10.6-20.65 21.14-45 79-48.42 101.04-.74 4.65.56 8 4.45 11.1z"/><path fill="url(#o)" d="M-21.24 749.9c18.22 14.22 58.48 26.8 108.37 16.3 7.66-1.64 14.8-3.7 21.22-6.16 44.04-17.24 113.55-121.56 160.03-148.5 17.45.07 26.35-1.3 32.48-2.2 26.63-3.8 17 12.83 37.5 16.44 10.1 1.8 9.54-.53 13-4.75 4.03-5.1-6.18-22.58 3.77-21.6 5.12.44 11.63 5.6 17.77 11.76 3.9 3.82 4.64 6 11.38 7.42 9.67-.58 12.67-5.9 9.4-16.2-7.15-21.87-7.14-30.82-4.44-33.92 18.27-21 44.66 27.3 52.7 24.5 5.25-1.77 4.78-3.76 6.67-7.93 8.93-18.97-53.07-58.2-33.76-59.67 7.53-.54 26.7 4.12 34.9 11.32 17.02 15 31.84 44.13 41.56 25.2.43-.9.8-2.15.78-3-.1-2.14-8.78-17.35-18.96-36.43-4.17-7.8-23.76-17.16-31.94-22.66-9.26-5.46-17.16-11.3-27.45-14.6-8.16-2.56-22.33-8.85-35.58-3.5-17.06 6.84-35.1 16.56-60.95 23.95-18.25 5.23-52.74 17.02-86.63 45.82-26.36 9.95-65.7 29.7-105.32 45.4-38 15-42.18 16.6-66.7 25.43-5.5 1.98-10.15 3.62-13.9 4.8-8.45 2.75-15.44 3.96-21.9 10.6-20.65 21.16-45.02 79.02-48.42 101.06-.77 4.67.52 8.03 4.43 11.1z"/><path fill="url(#p)" d="M-19.77 749.18c18.24 14.2 58.48 26.78 108.37 16.3 7.66-1.66 14.8-3.7 21.22-6.18 44.04-17.23 113.57-121.55 160.05-148.5 17.43.07 26.33-1.3 32.48-2.2 26.6-3.8 17 12.84 37.5 16.44 10.1 1.8 9.52-.5 13-4.73 4.03-5.08-6.18-22.57 3.75-21.6 5.14.44 11.64 5.6 17.77 11.77 3.9 3.84 4.66 6.03 11.38 7.43 9.7-.58 12.7-5.92 9.4-16.2-7.14-21.9-7.12-30.82-4.44-33.94 18.28-20.97 44.67 27.3 52.7 24.53 5.28-1.8 4.8-3.78 6.7-7.95 8.92-19-53.1-58.23-33.78-59.67 7.52-.54 26.7 4.1 34.88 11.32 17.05 14.98 31.85 44.1 41.58 25.2.43-.9.82-2.16.78-3.02-.08-2.12-8.8-17.34-18.97-36.4-4.18-7.8-23.75-17.17-31.93-22.65-9.28-5.5-17.17-11.32-27.47-14.6-8.16-2.57-22.33-8.88-35.58-3.54-17.06 6.84-35.07 16.58-60.94 23.98-18.24 5.23-52.74 17-86.62 45.8-26.38 9.96-65.7 29.7-105.32 45.4-38 15-42.18 16.6-66.73 25.43-5.5 2-10.1 3.64-13.88 4.83-8.44 2.73-15.43 3.94-21.9 10.6-20.64 21.14-45.02 79-48.42 101.04-.77 4.66.53 8.02 4.43 11.1z"/></svg>