<svg xmlns="http://www.w3.org/2000/svg" width="48" height="48" xmlns:xlink="http://www.w3.org/1999/xlink"><defs><linearGradient id="d"><stop offset="0" stop-color="#fff"/><stop offset=".5" stop-color="#f8f800"/><stop offset="1" stop-color="#ffeddb" stop-opacity=".207"/></linearGradient><linearGradient id="c"><stop offset="0" stop-color="#fff"/><stop offset=".25" stop-color="#ffd007"/><stop offset=".5" stop-color="#ea0000"/><stop offset=".75" stop-color="#41110e"/><stop offset="1" stop-color="#474e41"/></linearGradient><linearGradient id="b"><stop offset="0" stop-opacity=".694"/><stop offset="1" stop-opacity="0"/></linearGradient><linearGradient id="a"><stop offset="0" stop-color="#cfd7d7"/><stop offset=".767" stop-color="#aebabc"/><stop offset="1" stop-color="#627176"/></linearGradient><radialGradient id="f" cx="24.665" cy="18.006" r="10.821" xlink:href="#a" fx="24.665" fy="18.006" gradientTransform="matrix(2.154 -.005 .005 2.14 -32.119 -22.56)" gradientUnits="userSpaceOnUse"/><radialGradient id="e" cx="28.688" cy="43.909" r="19.041" xlink:href="#b" fx="28.688" fy="43.909" gradientTransform="matrix(1 0 0 .196 0 35.29)" gradientUnits="userSpaceOnUse"/><radialGradient id="g" cx="23.857" cy="21.429" r="21.466" xlink:href="#c" fx="23.857" fy="21.429" gradientUnits="userSpaceOnUse"/><radialGradient cx="20.719" cy="24.008" r="10.732" xlink:href="#d" fx="20.719" fy="24.008" gradientTransform="matrix(1 0 0 1.386 -28.429 -8.899)" gradientUnits="userSpaceOnUse"/></defs><g color="#000"><path fill="url(#e)" d="M47.73 43.9a19.04 3.74 0 1 1-38.08 0 19.04 3.74 0 1 1 38.08 0z" transform="translate(.505 .455)" overflow="visible" enable-background="accumulate"/><path fill="url(#f)" stroke="#555753" stroke-width=".5" d="M20.6.3c12.64 0 22.88 10.23 22.88 22.87s-10.24 22.9-22.9 22.9z" overflow="visible" enable-background="accumulate"/><path fill="url(#g)" stroke="#555753" stroke-width=".647" d="M45 21.43a21.14 21.14 0 1 1-42.3 0 21.14 21.14 0 1 1 42.3 0z" transform="matrix(.552 0 0 1.082 7.412 -.024)" overflow="visible" enable-background="accumulate"/><path fill="#eeeeec" d="M18.8 19.97a1.3 2.73 0 1 1-2.57 0 1.3 2.73 0 1 1 2.58 0z" opacity=".517" overflow="visible" enable-background="accumulate"/><path fill="#eeeeec" d="M21.2 18.46a1.3 2.73 0 1 1-2.57 0 1.3 2.73 0 1 1 2.57 0z" overflow="visible" enable-background="accumulate" opacity=".517"/><path fill="#eeeeec" d="M24.2 21.64a1.3 2.73 0 1 1-2.57 0 1.3 2.73 0 1 1 2.57 0z" overflow="visible" enable-background="accumulate" opacity=".517"/><path fill="#eeeeec" d="M23.77 27.3a1.3 2.73 0 1 1-2.57 0 1.3 2.73 0 1 1 2.57 0z" overflow="visible" enable-background="accumulate" opacity=".517"/><path fill="#eeeeec" d="M20.42 28.67a1.3 2.73 0 1 1-2.58 0 1.3 2.73 0 1 1 2.58 0z" overflow="visible" enable-background="accumulate" opacity=".517"/><path fill="#eeeeec" d="M18.15 25.2a1.3 2.73 0 1 1-2.58 0 1.3 2.73 0 1 1 2.58 0z" opacity=".517" overflow="visible" enable-background="accumulate"/><path fill="#eeeeec" d="M20.42 24.74a1.3 2.73 0 1 1-2.58 0 1.3 2.73 0 1 1 2.58 0z" overflow="visible" enable-background="accumulate" opacity=".517"/><path fill="#edd400" d="M19.13 15.03a1.3 2.73 0 1 1-2.58 0 1.3 2.73 0 1 1 2.58 0z" overflow="visible" enable-background="accumulate" opacity=".517"/><path fill="#edd400" d="M23.8 15.92a1.3 2.73 0 1 1-2.57 0 1.3 2.73 0 1 1 2.58 0z" overflow="visible" enable-background="accumulate" opacity=".517"/><path fill="#edd400" d="M25.8 22.66a1.3 2.73 0 1 1-2.58 0 1.3 2.73 0 1 1 2.58 0z" opacity=".517" overflow="visible" enable-background="accumulate"/><path fill="#edd400" d="M26.35 26.8a1.3 2.73 0 1 1-2.58 0 1.3 2.73 0 1 1 2.58 0z" overflow="visible" enable-background="accumulate" opacity=".517"/><path fill="#edd400" d="M23.67 32.24a1.3 2.73 0 1 1-2.58 0 1.3 2.73 0 1 1 2.57 0z" overflow="visible" enable-background="accumulate" opacity=".517"/><path fill="#edd400" d="M21.17 32.67a1.3 2.73 0 1 1-2.58 0 1.3 2.73 0 1 1 2.57 0z" overflow="visible" enable-background="accumulate" opacity=".517"/><path fill="#edd400" d="M17.77 30.46a1.3 2.73 0 1 1-2.57 0 1.3 2.73 0 1 1 2.57 0z" overflow="visible" enable-background="accumulate" opacity=".517"/><path fill="#edd400" d="M16.02 26.92a1.3 2.73 0 1 1-2.57 0 1.3 2.73 0 1 1 2.57 0z" overflow="visible" enable-background="accumulate" opacity=".517"/><path fill="#edd400" d="M16.46 21.62a1.3 2.73 0 1 1-2.57 0 1.3 2.73 0 1 1 2.56 0z" opacity=".517" overflow="visible" enable-background="accumulate"/><path fill="#edd400" d="M16.5 17.35a1.3 2.73 0 1 1-2.6 0 1.3 2.73 0 1 1 2.6 0z" overflow="visible" enable-background="accumulate" opacity=".517"/><path fill="#edd400" d="M21.63 13a1.3 2.73 0 1 1-2.58 0 1.3 2.73 0 1 1 2.58 0z" overflow="visible" enable-background="accumulate" opacity=".517"/><path fill="#ef2929" d="M25.42 11.5a1.3 2.73 0 1 1-2.58 0 1.3 2.73 0 1 1 2.58 0z" overflow="visible" enable-background="accumulate" opacity=".517"/><path fill="#ef2929" d="M27.42 15.74a1.3 2.73 0 1 1-2.58 0 1.3 2.73 0 1 1 2.58 0z" overflow="visible" enable-background="accumulate" opacity=".517"/><path fill="#ef2929" d="M27.87 24.63a1.3 2.73 0 1 1-2.57 0 1.3 2.73 0 1 1 2.57 0z" opacity=".517" overflow="visible" enable-background="accumulate"/><path fill="#ef2929" d="M25.35 30.78a1.3 2.73 0 1 1-2.57 0 1.3 2.73 0 1 1 2.57 0z" opacity=".517" overflow="visible" enable-background="accumulate"/><path fill="#ef2929" d="M22.33 36.8a1.3 2.73 0 1 1-2.58 0 1.3 2.73 0 1 1 2.58 0z" opacity=".517" overflow="visible" enable-background="accumulate"/><path fill="#ef2929" d="M18.87 35.36a1.3 2.73 0 1 1-2.58 0 1.3 2.73 0 1 1 2.57 0z" opacity=".517" overflow="visible" enable-background="accumulate"/><path fill="#ef2929" d="M15.5 32.17a1.3 2.73 0 1 1-2.57 0 1.3 2.73 0 1 1 2.58 0z" opacity=".517" overflow="visible" enable-background="accumulate"/><path fill="#ef2929" d="M14.2 24.33a1.3 2.73 0 1 1-2.57 0 1.3 2.73 0 1 1 2.58 0z" opacity=".517" overflow="visible" enable-background="accumulate"/><path fill="#ef2929" d="M14.13 17.74a1.3 2.73 0 1 1-2.58 0 1.3 2.73 0 1 1 2.58 0z" overflow="visible" enable-background="accumulate" opacity=".517"/><path fill="#ef2929" d="M16.77 11.53a1.3 2.73 0 1 1-2.57 0 1.3 2.73 0 1 1 2.57 0z" overflow="visible" enable-background="accumulate" opacity=".517"/><path fill="#ef2929" d="M20 8.74a1.3 2.73 0 1 1-2.6 0 1.3 2.73 0 1 1 2.6 0z" overflow="visible" enable-background="accumulate" opacity=".517"/><path fill="#ef2929" d="M23.38 8.1a1.3 2.73 0 1 1-2.58 0 1.3 2.73 0 1 1 2.58 0z" overflow="visible" enable-background="accumulate" opacity=".517"/><path fill="#edd400" d="M25.78 18.3a1.3 2.73 0 1 1-2.58 0 1.3 2.73 0 1 1 2.58 0z" opacity=".517" overflow="visible" enable-background="accumulate"/></g></svg>