<svg xmlns="http://www.w3.org/2000/svg" width="48" height="48" xmlns:xlink="http://www.w3.org/1999/xlink" version="1"><defs><linearGradient id="a"><stop offset="0" stop-color="#2e3436"/><stop offset="1" stop-color="#2e3436" stop-opacity="0"/></linearGradient><linearGradient id="b" x1="15.789" x2="15.667" y1="34.588" y2="29.902" xlink:href="#a" gradientUnits="userSpaceOnUse"/><linearGradient id="c" x1="22.618" x2="18.083" y1="25.316" y2="28.191" xlink:href="#a" gradientUnits="userSpaceOnUse"/></defs><g><circle cx="122.958" cy="224.694" r="9.443" fill="#eeeeec" stroke="#2e3436" stroke-width="1.273" stroke-dashoffset=".637" transform="matrix(1.569 0 0 1.572 -160.569 -332.566)" stroke-dasharray="2.54659374, 1.27329687"/><path fill="#babdb6" d="M32.5 6.88c-7.72 0-13.97 6.27-13.97 14 0 3.85 1.56 7.35 4.1 9.9-1.48-2.23-2.34-4.9-2.34-7.76 0-7.72 6.27-14 13.98-14 3.85 0 7.32 1.6 9.84 4.1-2.5-3.77-6.77-6.24-11.63-6.24z"/><path fill="#eeeeec" stroke="#2e3436" stroke-width="2" stroke-dashoffset="1" d="M31.52 35.97c.33.6.5 1.2.5 1.85 0 4.02-7 8.2-15.65 8.2C7.73 46 .72 41.83.72 37.8c0-.75.24-1.47.7-2.15l15-26.22 15.1 26.52z" stroke-dasharray="4,2"/><path fill="#babdb6" d="M16.4 11.24l-14 24.53c-.4.64-.63 1.3-.63 2.02 0 1.1.57 2.2 1.57 3.23-.12-.36-.2-.75-.2-1.1 0-.7.22-1.4.64-2.03L17.7 13.52l-1.3-2.28z"/><path fill="none" stroke="url(#b)" stroke-width="2" d="M32.4 38.7c0-4.04-7-8.2-15.65-8.2-8.64 0-15.65 4.16-15.65 8.2" stroke-dasharray="4, 2"/><path fill="none" stroke="url(#c)" stroke-width="2" stroke-dashoffset="1" d="M32.28 35.5c-8.18 0-14.82-6.66-14.82-14.85 0-2.4.57-4.66 1.57-6.66" stroke-dasharray="4,2"/></g></svg>