<svg xmlns="http://www.w3.org/2000/svg" width="48" height="48" xmlns:xlink="http://www.w3.org/1999/xlink"><defs><linearGradient id="b"><stop offset="0" stop-color="#5a838c"/><stop offset=".555" stop-color="#fff"/><stop offset=".721" stop-color="#fff"/><stop offset="1" stop-color="#a5b9c5"/></linearGradient><linearGradient id="d"><stop offset="0" stop-opacity="0"/><stop offset="1" stop-opacity=".516"/></linearGradient><linearGradient id="c"><stop offset="0" stop-color="#313131"/><stop offset="1" stop-color="#858585"/></linearGradient><linearGradient><stop offset="0" stop-color="#737373"/><stop offset=".555" stop-color="#fff"/><stop offset=".721" stop-color="#fff"/><stop offset="1" stop-color="#b5b5b5"/></linearGradient><linearGradient><stop offset="0" stop-color="#737373"/><stop offset=".553" stop-color="#fff"/><stop offset=".727" stop-color="#fff"/><stop offset="1" stop-color="#b5b5b5"/></linearGradient><linearGradient id="a"><stop offset="0" stop-opacity=".719"/><stop offset="1" stop-opacity="0"/></linearGradient><radialGradient id="h" cx="22.762" cy="13.683" r="4.032" xlink:href="#a" fx="22.762" fy="13.683" gradientTransform="matrix(1.042 -1.042 .754 .754 -15.22 32.793)" gradientUnits="userSpaceOnUse"/><linearGradient id="f" x1="19.246" x2="26.278" y1="29.079" y2="29.079" xlink:href="#b" gradientUnits="userSpaceOnUse" gradientTransform="matrix(.548 -.547 .717 .717 -3.585 21.682)"/><linearGradient id="i" x1="18.289" x2="27.235" y1="7.409" y2="7.333" xlink:href="#b" gradientUnits="userSpaceOnUse" gradientTransform="matrix(.527 -.527 .797 .797 -3.202 21.257)"/><linearGradient id="g" x1="23.95" x2="28.735" y1="29.177" y2="23.907" xlink:href="#c" gradientUnits="userSpaceOnUse" gradientTransform="matrix(1.014 0 0 1.014 -.051 -.01)"/><linearGradient id="j" x1="11.606" x2="17.893" y1="18.244" y2="11.832" xlink:href="#c" gradientUnits="userSpaceOnUse" gradientTransform="matrix(.945 0 0 .945 1.013 1.083)"/><linearGradient id="e" x1="6.476" x2="42.476" y1="44.984" y2="44.984" xlink:href="#d" gradientUnits="userSpaceOnUse" gradientTransform="matrix(.94 0 0 .94 4.532 1.851)"/></defs><g><path fill="url(#e)" fill-rule="evenodd" d="M10.62 41.84h33.84v4.6H10.62z" transform="matrix(.999 .035 -.035 .999 0 0)" overflow="visible" enable-background="accumulate"/><path fill="url(#f)" fill-rule="evenodd" stroke="url(#g)" d="M19.8 15.72L47 42.95c.38.38.06 2.04-1.15 3.26-1.22 1.23-2.88 1.54-3.28 1.15l-27.22-27.2c-.38-.4.3-1.7 1.52-2.9 1.22-1.22 2.52-1.9 2.9-1.53z" overflow="visible" enable-background="accumulate"/><path fill="url(#h)" fill-rule="evenodd" d="M20.44 16.8l3.03 3c.35.36-.32 1.6-1.5 2.77-1.16 1.18-2.4 1.84-2.77 1.47l-3-3c-.36-.36.3-1.6 1.48-2.77 1.17-1.17 2.4-1.84 2.76-1.48z" overflow="visible" enable-background="accumulate"/><path fill="url(#i)" fill-rule="evenodd" d="M13.26 8.34l8.24 8.24c.53.53 0 2.42-1.48 3.9-1.48 1.5-3.37 2.02-3.93 1.47l-8.23-8.22c-.53-.53-.1-2.53 1.38-4 1.5-1.5 3.48-1.92 4-1.4z" overflow="visible" enable-background="accumulate"/><g fill="none" stroke="#6e6e6e" stroke-opacity=".5" stroke-width="1.091"><path d="M8.6 14.1c3.38.96 6.87.78 9.03-.92"/><path d="M10.97 16.5c3.4.94 6.88.76 9.03-.95"/><path d="M13.4 18.92c2.84.8 5.75.8 7.9-.23"/><path d="M11.8 12.48c1.42-.18 2.7-.64 3.7-1.43"/></g><g fill="none" stroke="#848484" stroke-opacity=".5" stroke-width="1.091"><path d="M13.68 9.2c.94 3.38.77 6.87-.94 9.03"/><path d="M16.06 11.57c.94 3.4.77 6.88-.94 9.04"/><path d="M18.5 14c.78 2.84.78 5.75-.24 7.9"/><path d="M12.04 12.4c-.17 1.42-.63 2.7-1.42 3.7"/></g><path fill="#fff" fill-rule="evenodd" d="M13.45 9c1.07 1.06-.33 3.8-2.5 4.9-1.03.53-1.96.55-2.45.05-1.06-1.06.34-3.78 2.52-4.9 1-.52 1.94-.54 2.43-.05z" overflow="visible" enable-background="accumulate"/><path fill="none" stroke="url(#j)" d="M13.26 8.34l8.24 8.24c.53.53 0 2.42-1.48 3.9-1.48 1.5-3.37 2.02-3.93 1.47l-8.23-8.22c-.53-.53-.1-2.53 1.38-4 1.5-1.5 3.48-1.92 4-1.4z" overflow="visible" enable-background="accumulate"/><path fill="#fff" fill-rule="evenodd" stroke="#555753" stroke-width=".75" d="M12.63 9.18L4.37.5c-2 5.34-.5 7.37 4.5 12.52l3.76-3.84z"/><path fill="#d3d7cf" fill-rule="evenodd" d="M12.12 9.16l-4.4-4.68c-1.08 2.88-.28 3.98 2.38 6.76l2.02-2.08z"/></g></svg>