<svg xmlns="http://www.w3.org/2000/svg" width="48" height="48" xmlns:xlink="http://www.w3.org/1999/xlink"><defs><linearGradient id="a"><stop offset="0" stop-color="#fff"/><stop offset="1" stop-color="#d0d0cb"/></linearGradient><radialGradient id="b" cx="8.006" cy="10.25" r="11.561" xlink:href="#a" fx="8.006" fy="10.25" gradientTransform="matrix(1.166 -.006 .006 1.182 -1.617 -1.98)" gradientUnits="userSpaceOnUse"/><radialGradient id="c" cx="8.006" cy="10.25" r="11.561" xlink:href="#a" gradientUnits="userSpaceOnUse" gradientTransform="matrix(1.166 -.006 .006 1.182 -1.617 -1.98)" fx="8.006" fy="10.25"/></defs><g><path fill="url(#b)" stroke="#192333" stroke-width="1.153" d="M22.22 12.4a10.98 10.83 0 1 1-21.97 0 10.98 10.83 0 1 1 21.97 0z" transform="matrix(.863 0 0 .872 .281 -.884)" color="#000" overflow="visible"/><path stroke="#192333" stroke-width=".77.291" d="M15.7 13.9a3 3 0 1 1-6 0 3 3 0 1 1 6 0z" color="#000" overflow="visible"/><path fill="url(#c)" stroke="#192333" stroke-width="1.153" d="M22.22 12.4a10.98 10.83 0 1 1-21.97 0 10.98 10.83 0 1 1 21.97 0z" transform="matrix(.863 0 0 .872 21.281 -.757)" color="#000" overflow="visible"/><path stroke="#192333" stroke-width=".77.291" d="M35.5 14.02a3 3 0 1 1-6 0 3 3 0 1 1 6 0z" color="#000" overflow="visible"/><path fill="none" stroke="#a40000" d="M13 14l26.5 27.38" stroke-dasharray="2,2"/><path fill="none" stroke="#a40000" d="M32.77 14l6.75 27.52" stroke-dasharray="2, 2"/><path fill="#ef2929" stroke="#eeeeec" d="M37.5 35.5v4h-4v4h4v4h4v-4h4v-4h-4v-4h-4z" color="#000" stroke-linecap="round" overflow="visible"/></g></svg>