<svg xmlns="http://www.w3.org/2000/svg" width="48" height="48" xmlns:xlink="http://www.w3.org/1999/xlink"><defs><linearGradient id="a"><stop offset="0" stop-color="#fff"/><stop offset="1" stop-color="#ceebeb"/></linearGradient><radialGradient cx="279.663" cy="373.675" r="0" gradientUnits="userSpaceOnUse" gradientTransform="matrix(.931 -.365 .365 .931 -122.323 137.273)"><stop offset=".574" stop-color="#FFF200" stop-opacity="0"/><stop offset=".798" stop-color="#FFF200" stop-opacity=".651"/><stop offset="1" stop-color="#FFF200" stop-opacity=".95"/></radialGradient><radialGradient cx="333.089" cy="392.651" r="0" gradientUnits="userSpaceOnUse" gradientTransform="matrix(.931 -.365 .365 .931 -122.323 137.273)"><stop offset=".574" stop-color="#FFF200" stop-opacity="0"/><stop offset=".798" stop-color="#FFF200" stop-opacity=".651"/><stop offset="1" stop-color="#FFF200" stop-opacity=".95"/></radialGradient><radialGradient id="b" cx="15.335" cy="9.339" r="12.624" xlink:href="#a" fx="15.335" fy="9.339" gradientTransform="matrix(1 .028 -.011 .404 .111 1.541)" gradientUnits="userSpaceOnUse"/></defs><path fill="#f4f9ed" d="M32.13 4.74c.1.03.23.04.34.07 0 0-10.13-4.97-19.58-3.7-1.62.2-3.16.52-5.2 1.58C4 4.6.8 7.4.9 14.64c.08 4.13 2.15 8.17 3.9 10.9C11 35.2 21.9 41.6 21.9 41.6s.9.6 1.5 1.07l-2.1-3.87.3-2.1 2.33-2.58s6.12 1.48 7.25 1.18c1.13-.3 3.22-2.4 3.22-2.4V31l4.83-1.24 1.36-2.3c.07-.43.15-.87.22-1.32 1.55-10.5-2.32-19.93-8.7-21.4z" opacity=".68"/><path fill="#ceebeb" d="M20.18 38.12c-3.5-2.44-9.77-7.38-13.9-13.8-1.6-2.47-3.5-6.2-3.57-9.83-.1-5.94 2.15-8.3 5.8-10.2 1.88-.96 3.25-1.2 4.6-1.4.95-.12 1.96-.2 3-.2 7.87 0 15.53 3.72 15.6 3.76l.04.07c5.3 1.56 8.66 9.86 7.27 19.2-.03.3-.08.6-.14.9l-.88 1.48-5.4 1.67.04 2.36c-.65.78-1.14 1.56-1.44 1.7-1.18-.04-4.35-.33-6.3-.76l-.6-.13-3.73 2.45-.37 2.72z" opacity=".39"/><path fill="url(#b)" d="M27.96 4.95C24.98 3.9 20.56 2.7 16.1 2.7c-1.04 0-2.05.08-3 .2-1.35.2-2.72.44-4.6 1.4-3.65 1.9-5.9 4.26-5.8 10.2.08 3.63 2 7.35 3.6 9.83 4.1 6.4 6.87 8.34 12.03 12.44-4.4-8.23-1.3-28.83 9.63-31.82z"/><path fill="#a0ceda" d="M16.4 31.26c-3.58-1.53-6.38-6.56-9.88-9.64-1.6-1.4-3.52-3.5-3.58-5.56-.02-.53-.6-5.38.4-4.88 2.4 1.25 4.5 5.12 14.03 6.03-1.36 4-1.87 10.06-.97 14.06z"/><path fill="#b0d4dc" d="M18.33 36.77c-3.6-2.7-8.66-7.08-12.16-12.53-1.6-2.48-3.52-6.2-3.58-9.85-.02-.94.23-5.54 1.22-4.64 2.4 2.2 4.9 4.8 14.42 6.4-2.5 5.25-2.4 14.5.1 20.6z" opacity=".39"/><path fill="#bad9e1" d="M5.14 11.12c0 .05-.02.1-.03.15-.2.88-.77 1.5-1.33 1.38-.6-.1-.95-1-.78-1.95.15-.96.76-1.65 1.35-1.53.6.1.95.98.8 1.95z"/><path fill="none" stroke="#627ca1" stroke-width=".936" stroke-miterlimit="10" d="M11.36 33.25c.1-.1-.07-.32-.2-.67-.48-1.2-.55-2.78-.55-2.78l-3.28-3.47.26-2.6-1.56-3.5 1.54-4.56"/><path fill="none" stroke="#627ca1" stroke-width=".936" stroke-miterlimit="10" d="M10.67 29.48l.12-1.8 2.24.25-3.2-5.1 1.2-2.78"/><path fill="none" stroke="#406292" stroke-width=".936" stroke-miterlimit="10" d="M34.44 31.04L32 29.62l-.1-2.1-1.8-1.94-6.83-1.63-1.47.6-2.17-1.73"/><path fill="none" stroke="#406292" stroke-width=".936" stroke-miterlimit="10" d="M28.3 24.92l1.04-3.66-3.12-2.86"/><path fill="none" stroke="#406292" stroke-width=".936" stroke-miterlimit="10" d="M40.7 26.13l-1.97-1.06V23.6l-1.93-.92-2.1-2.92-2.15 2.37"/><path fill="none" stroke="#406292" stroke-width=".936" stroke-miterlimit="10" d="M37.2 22.63l.38-2.4 1.97-1.06"/><path fill="none" stroke="#406292" stroke-width=".936" stroke-miterlimit="10" d="M23.85 34.56l-1.97-1.62-3.64.02"/><path fill="none" stroke="#406292" stroke-width=".936" stroke-miterlimit="10" d="M22.42 33.28L24 32.7l-.76-1.3 3.26-1.33-3.67-1.92"/><path fill="none" stroke="#586f9b" stroke-miterlimit="10" d="M32.48 4.66C25.9 2.22 19.44-.06 12.88 1.1c-1.6.27-3.14.52-5.17 1.58C4 4.6.8 7.4.9 14.64c.08 4.13 2.15 8.17 3.9 10.9C11 35.2 21.86 41.7 21.86 41.7c-.02-.03 1 .66 1.55.96l-2.1-3.98.3-2.1 2.6-2.5s5.97 1.7 7.1 1.4c1.14-.3 3.3-2.63 3.3-2.63l-.16-1.9 4.8-1.2 1.34-2.3c.1-.42.16-.87.23-1.3 1.57-10.52-1.87-19.1-8.32-21.5z"/><path fill="none" stroke="#586f9b" stroke-miterlimit="10" d="M40.58 27.47l-1.35 2.3-4.83 1.18.17 1.73s-2.1 2.4-3.22 2.7c-1.13.3-7.12-1.18-7.12-1.18l-2.57 2.27-.28 2.1 2 4.1c-5.07-2.98-8.5-11.4-7.12-20.73 1.6-10.74 8.8-18.43 15.44-17.3 6.63 1.13 10.7 10.75 9.1 21.5-.06.45-.13.9-.22 1.33z"/><path fill="#e0f2ef" stroke="#586f9b" stroke-miterlimit="10" d="M27.5 36.5l9.12 2.18-9.13-2.18-2.65 1.36-.08 2.54 3.62-.24c1.46 1.38 1.63 1.64 2.85 3.64l3.03-2.6 7.85-1.64 1.7-1.8c-1.83.3-5.74 1.1-7.12.92" stroke-linecap="round"/><path fill="#e0f2ef" stroke="#586f9b" stroke-miterlimit="10" d="M42.6 44.72l-2.83-1.94-4.7 1.94-3.47 2.6c4.88.43 10.5.08 16.23-1l-2.93-2.5-2.3.98" stroke-linecap="round"/><path fill="#e0f2ef" stroke="#586f9b" stroke-width=".03" stroke-miterlimit="10" stroke-linecap="round"/><path fill="#e0f2ef" stroke="#586f9b" stroke-miterlimit="10" d="M39 33.12l-.72.9 2.85 1.32 2.3-.62-1-2.17c-.65-.02-1.3-.03-1.95-.03l-1.47.6z" stroke-linecap="round"/><path fill="#fbfcf5" d="M5.15 20.48c.13.45-1.07-2.33-1.47-5.03C2.3 6 11.22.8 24.14 4.7c-.1.78-2.7.78-2 2.08-4.85-3.73-15.86-1.2-17.16 6.5-.23 1.4-.6 4.34.17 7.2z"/></svg>