<svg xmlns="http://www.w3.org/2000/svg" width="48" height="48" xmlns:xlink="http://www.w3.org/1999/xlink"><defs><linearGradient id="g"><stop offset="0" stop-color="#b8a974" stop-opacity="0"/><stop offset="1" stop-color="#b8a974"/></linearGradient><linearGradient id="f"><stop offset="0" stop-color="#2e3436"/><stop offset="1" stop-color="#2e3436" stop-opacity="0"/></linearGradient><linearGradient id="e"><stop offset="0" stop-color="#d08203"/><stop offset="1" stop-color="#8f5902"/></linearGradient><linearGradient id="c"><stop offset="0" stop-color="#e9b96e"/><stop offset="1" stop-color="#bb7d1c"/></linearGradient><linearGradient id="b"><stop offset="0" stop-color="#8f5902"/><stop offset="1" stop-color="#8f5902" stop-opacity="0"/></linearGradient><linearGradient id="a"><stop offset="0" stop-color="#f4f2ea"/><stop offset="1" stop-color="#dfd8c0"/></linearGradient><radialGradient id="l" cx="19.962" cy="19.105" r="15.101" xlink:href="#a" fx="19.962" fy="19.105" gradientTransform="matrix(1.079 .75 -.95 1.532 17.983 -33.477)" gradientUnits="userSpaceOnUse"/><radialGradient id="k" cx="19.147" cy="28.816" r="8.786" xlink:href="#b" fx="19.147" fy="28.816" gradientTransform="matrix(1.381 .562 -.13 .358 -4.156 9.854)" gradientUnits="userSpaceOnUse"/><linearGradient id="i" x1="13.143" x2="24.179" y1="24.48" y2="37.837" xlink:href="#c" gradientUnits="userSpaceOnUse" gradientTransform="matrix(1.138 0 0 1.138 -3.721 -4.107)"/><radialGradient id="m" cx="56.367" cy="24.792" r="15.101" xlink:href="#d" fx="56.367" fy="24.792" gradientTransform="matrix(.656 .028 -.015 .359 .456 30.896)" gradientUnits="userSpaceOnUse"/><linearGradient id="d"><stop offset="0" stop-color="#f4f2ea"/><stop offset="1" stop-color="#dfd8c0"/></linearGradient><radialGradient cx="27.713" cy="19.453" r="15.101" fy="19.453" fx="27.713" gradientTransform="matrix(.66 .474 -.939 1.308 16.06 -23.688)" gradientUnits="userSpaceOnUse" xlink:href="#d"/><linearGradient id="j" x1="6.135" x2="31.608" y1="31.355" y2="31.355" xlink:href="#e" gradientUnits="userSpaceOnUse" gradientTransform="matrix(1.032 0 0 1.032 -.96 -1.538)"/><radialGradient id="h" cx="12.778" cy="42.722" r="12.223" xlink:href="#f" fx="12.778" fy="42.722" gradientTransform="matrix(1 0 0 .357 0 27.452)" gradientUnits="userSpaceOnUse"/><radialGradient id="n" cx="29.022" cy="28.958" r="3.581" xlink:href="#g" fx="29.022" fy="28.958" gradientTransform="matrix(2.646 .177 -.117 1.962 -44.867 -33.532)" gradientUnits="userSpaceOnUse"/></defs><g><path fill="url(#h)" d="M25 42.72a12.22 4.37 0 1 1-24.44 0 12.22 4.37 0 1 1 24.44 0z" transform="matrix(1.058 0 0 1.058 .121 -1.79)" color="#000" overflow="visible" enable-background="accumulate"/><path fill="url(#i)" stroke="url(#j)" stroke-width=".5" d="M11.08 17.35L8.93 24.1 8.9 27 5.62 38.64c4.16 4.2 9.53 6.46 16.5 6.1L27.1 33.8l.87-.03 3.44-6.42-9.02-10.48z" color="#000" overflow="visible" enable-background="accumulate"/><path fill="none" stroke="#8f5902" d="M16.5 43.05l4.85-11.1" stroke-dasharray="2.00000011, 2.00000011"/><path fill="none" stroke="#c17d11" d="M10.56 40.34l3.84-10.6" stroke-dasharray="2.00000011, 2.00000011"/><path fill="none" stroke="#8f5902" d="M19.74 43.58l4.95-10.43" stroke-dasharray="2.00000011, 2.00000011"/><path fill="none" stroke="#c17d11" d="M7.28 38.57l3.63-11.4" stroke-dasharray="2.00000011, 2.00000011"/><path fill="none" stroke="#c17d11" d="M13.33 41.96l4.53-11.15" stroke-dasharray="2.00000011, 2.00000011"/><path fill="url(#k)" d="M9.36 26.65l-.65 2.9c4.7 4.14 10.37 5.93 17 6.95l1.45-3c-5.42-.2-11.47-1.95-17.8-6.85z"/><path fill="#e9b96e" stroke="#e9b96e" stroke-width=".5" d="M8.36 26.4l.56-2.22c6.1 5.3 12.52 7.7 20.52 7.2l-1.3 2.26c-9.2-.4-13.96-2.62-19.78-7.23z" color="#000" stroke-linejoin="round" overflow="visible" enable-background="accumulate"/><path fill="#eec98f" d="M8.6 24.54l.15-.8c6.1 5.28 12.53 7.7 20.53 7.2l-.9.83c-9.18-.4-13.96-2.62-19.78-7.23z" color="#000" overflow="visible" enable-background="accumulate"/><path fill="url(#l)" stroke="#b8a974" stroke-width=".5" d="M9.56 13.97c.48-3.05 3.84-3.88 3.84-3.88 1.4-3.3 4.04-3.7 7.06-4.15 1.06-1.54 2.9-1.87 5.1-1.18 1.54-4 6.77-2 8.6-2.53 1.35-.4 2.3-1.3 4.16-1.86 1.5-.45 4.72 2.53 4.72 2.53s-2.9.18-3.7.44c-.9.3-1.83 1.3-1.83 1.3 0 1.12 2.37 2.97 2.5 5.57.06 1.28-.86 2.6-.86 2.6.23 1.5.45 3.02-.22 4.73 1.12 4.27.6 6.68-2.93 7.36 0 0 2.22 5 2.2 7.42-.02 3.67-3.02 3.1-3.4-.08-.14-1.1.43-2-.47-3.66-4.04 5.4-.82 4.8-1.54 8.15-.5 1.18-1.14 1.78-2.03 1.86-1.27.1-2.13-1.3-2.8-4.93 0 0-3.2-.86-3.1-2.98.1-2.33 3.74-6.2-.22-7.77-.13 2.18-1.53 3.66-3.53 3.2-2.8-.6-2.6-4.35-2.6-4.35-2.83.12-4.2-1-5.65-3.9-2.8.65-3.63-1.8-3.3-3.9z"/><path fill="#bcaf7d" d="M18.04 7.9c2.42-.97 4.86-.73 7.1-.33 3 .54 5.6 1.4 7.33-.02-1.68 1.92-4.05 1.02-7.34.4-2-.35-4.35-.6-7.1-.04z" color="#000" overflow="visible" enable-background="accumulate"/><path fill="#bcaf7d" d="M13.44 10.1c1.26-.15 1.87.18 2.66.4l-.4.22c-.7-.55-2.04-.4-3.43-.2z" color="#000" overflow="visible" enable-background="accumulate"/><path fill="#bcaf7d" d="M11.43 14.74c.06-1.88 2.37-3.98 4.86-4.23 4.65-.45 7.27 2.06 9.02 3.6 1.22 1.08 3.48 2.27 5.76 2.88-2.47-.07-4.75-1.83-6.2-2.9-.68-.5-3.68-3.7-8.32-3.16-3.08.35-4.63 2.05-5.13 3.82z" color="#000" overflow="visible" enable-background="accumulate"/><path fill="#bcaf7d" d="M27.4 33.54c2.14-.12 2.3-1.25 3.17-2.7 1.48-2.5.66-5.7 1.08-6.7.4-.96 2.2-1.06 2.6-3.4.2 2.33-2.3 2.66-2.47 3.8 0 0 .53 4.37-.9 6.64-1 1.6-1.4 2.66-3.5 2.73z" color="#000" overflow="visible" enable-background="accumulate"/><path fill="#bcaf7d" d="M34.14 28.6l.47.28s.57-2.04.55-2.9c-.03-1.05-.15-1.92-.63-3.4.2 1.48.4 2.55.33 3.7-.05.72-.7 2.3-.7 2.3z" color="#000" overflow="visible" enable-background="accumulate"/><path fill="#bcaf7d" d="M39 12.5l.15.23s-.55.65-.98.9c-.5.3-.86.46-1.47.85.4-.67.95-.84 1.5-1.24.32-.24.8-.74.8-.74z" color="#000" overflow="visible" enable-background="accumulate"/><path fill="#bcaf7d" d="M38.8 17.07s-.63.95-1.72.9c-.5-.04-1.93-.7-3.72-1.76-1.64-.95-3.6-2-5.43-3.13 1.86.93 3.64 2.22 5.36 3.4 1.22.83 3.12 1.93 4.02 1.86.68-.05 1.7-.7 1.7-.7z" color="#000" overflow="visible" enable-background="accumulate"/><path fill="#fff" d="M11.58 15.4s.48-2.22 3.2-3.28c3.63-1.42 6.76.36 8.7 1.6 2.23 1.44 5.17 4.56 8.66 4.53-3.58.54-5.92-1.12-8.25-2.72-2.23-1.5-4.44-2.97-7.7-2.44 1.06 1.8 2.86 3.58 5.02 4.8-1.95-.04-5.9-1.13-8.15-3.76-.56.23-1.08.56-1.5 1.27z" color="#000" overflow="visible" enable-background="accumulate"/><path fill="#fff" d="M25.94 7.2s.33-3.1 2.53-4.22c1.4-.7 4.66.37 7.04-.1.75-.15 3.52-1.74 4.4-1.78-1.47 1.07-2.77 1.44-3.87 2.06-2.3 1.3-4.83-.23-7.04.53-1.8.6-3.06 3.5-3.06 3.5z" color="#000" overflow="visible" enable-background="accumulate"/><path fill="#fff" d="M14.93 8.53s1.34-1.4 2.74-1.87c1.64-.56 3.7-.08 3.7-.08s-2.45.26-3.62.63c-1 .32-2.82 1.33-2.82 1.33z" color="#000" overflow="visible" enable-background="accumulate"/><path fill="url(#m)" stroke="#b8a974" stroke-width=".5" d="M24.85 44.83c.1.88 3.46.8 4.7 1.22.95.32 1.03.98 1.92 1.23 1.62.46 2.28-.77 3.96-.73 1.27.02 2.1 1.08 3.58 1.35.67.12 1.72-.6 2.82-.46.9.1 1.92-.9 2.58-1.05 1.46-.35 3.53.5 3.33-.74-.4-2.47-4.7-2.3-6.72-3.75-1.84-1.33-2.85-3.08-4.1-2.96-1.2.1-1.92 2.1-2.77 2.2-1.23.1-2-1.5-3.24-1.37-.9.1-1.76 1.86-2.77 2.9-.9.95-3.38 1.35-3.28 2.16z" color="#000" overflow="visible" enable-background="accumulate"/><path fill="#fff" d="M26.2 44.57c2.32-1.1 3.7-2.46 5.1-3.76.8-.72 1.8 1.58 2.88 1.52 1.3-.06 2.07-2.7 3.28-2.18 1.16.48 2.92 2.78 9.4 5.1-4.26-.66-8.4-3.54-9.2-3.54-1.45 0-2.18 2.06-3.64 2.03-1.06-.02-2-1.86-2.92-1.3-1.05.65-2.4 1.63-4.9 2.14z"/><path fill="url(#n)" d="M25.95 27.3c1.33 1.03 4.23 2.44 5.8-.2-.2 2.3-1.6 6.76-3.93 6.52-1.02-.1-2.9-.77-3.03-2.32-.13-1.3 1.15-4 1.15-4z"/></g></svg>