<svg xmlns="http://www.w3.org/2000/svg" width="48" height="48" version="1" viewBox="0 0 612 792" enable-background="new 0 0 612 792"><path stroke="#000" stroke-width="5.069" stroke-miterlimit="10" d="M-40.7 93.62c17.72-2.1 56.9 15.13 59 23.44 2.1 8.35 103.47 141.7 118.97 156.55 23.98 22.95 132.02 71.9 132.02 71.9l2.56 38-30.13 70.8s-140.7 84.96-156 95.8c-11.53 8.17-17.8 175.2-17.8 175.2-1.92-7.8-56.5-13.65-83.88-2.8-21.32 8.42-37.58 37.58-37.58 37.58s26.6 21.38 40.76 17.85c12.47-3.16 90.9-17.1 99.22-22.97l43.3-167.52s79.94-42.93 98.7-38.75c4 .9 40.8-3.54 42.62.1 3 5.95 2.3 12.76.65 18.63-9.1-.46-16.62.84-20.1 2.57-9.2 4.58-37.55 63-34.8 79.6 2.77 16.6 5.3 21.55 1.76 28.54-4.77 9.28-3.7 26.75 15.65 47.05 19.08 19.93 69.2 23.04 92.3-17.55 23.06-40.62 18.65-77.97-8.2-116.77-2.27-3.24-4.82-6-7.55-8.48 2.02-10.48 6.76-31.95 11.5-31.95 6.26 0 44.38-11 54.8-8.17 8.7 2.32 20.65-.9 29.56-1.8 19.1-1.9 84.22 47.4 106.05 44.37 9.23-1.27-15.54 142.82-15.54 142.82l1.64-.86c-1.06.9-1.8 1.57-1.8 1.57s5.06 20.5 19.66 21.2c14.6.68 39.98 15.53 52.72 23.8 9.6 6.26 50.33-5.72 50.33-5.72s-10.5-10.96-19.5-28.37c-8.33-15.95-53.6-27.4-72.96-27.42l.46-.26s42.76-160.87 25.1-165.53c-44.98-11.83-177.36-66.87-177.36-66.87l13.54-65.32s11.93-26.1 17.98-47.23c5.17-18 11.4-32.25 16.14-59.76 6.76-39.16 50.83-65.25 76.95-91.8 38.5-39.22 71.5-129.2 86.7-146.6 10.46-11.97 71.35-29.86 65.1-35.08-6.26-5.22-7.3-11.48-15.65-15.62-8.33-4.2-110 16.17-106.5 29.56 2.64 10.1 8.54 23 8.54 23l-20.9 16.35s-47.67 65.48-87.25 93.73c-31.6 22.58-95.23 94.07-95.23 94.07-36.68-17.05-142.92-62.27-195.93-99-24.72-17.16-83.8-56.17-79.62-74.96C63.5 81.8 50.95 59.9 38.48 61.97c-12.5 2.08-33.34-.6-46.9-6.86-13.56-6.22-25.7-10.3-37.13-9.26C-57.03 46.87-70.58 50-70.58 50S-58.43 95.7-40.7 93.6z" stroke-linecap="round" stroke-linejoin="round"/><g><path fill="#4a4b4c" d="M627.93 9.47c7.37 0 9.76 2.4 11.04 3.04 6.27 3.14 9.26 7.2 11.93 10.86 1.54 2.1 9.7 7.74 9.7 10.3 0 9.88-60.77 33.27-72.97 42.2-8.5 6.24-25.6 25.25-30.38 36.76-7.54 18.2-38.86 90.45-61.47 113.06-23.1 23.1-66.24 53.2-67.85 74.9-3.55 48.07-12.1 45.7-19.08 69.28-6 20.16-12 42.73-12.72 45.93l-11.66 59c26.9 9.9 114.84 45.92 157.6 60.76 3.9 1.37 8.8 3.9 12.34 4.8 1.74.47 4.13 1.65 5.93 4.73 10.86 18.68-15.97 126.67-25.05 161.52 20.25 3.04 61.87 13.84 70.27 29.97 3.1 5.98 23.67 27.22 22.4 31.7-4.7 10.46-35.9 14.93-50.57 14.93-3.16 0-5.55-.22-6.75-.6-4.64-1.54-30.87-17.2-42.02-22.63-2.6-1.25-11.7-4.34-14.34-4.48-12.76-.6-20.07-15.7-21.63-19.1-1.54-3.4-.94-11.2-.94-11.2 7.18-42.26 13.9-111.46 15.57-131.8-11.78-1.32-78.6-44.1-89.78-44.1-.06 0-.1 0-.17 0-2.24.08-4.63.1-7.1.1-16.38 0-35.97-1.6-37.57-1.6-8.06 0-45.4 8.13-48.28 8.47-1.37 2.38-4 9.4-7 24.1 2.23 2.27 4.2 4.6 5.93 7.12 29 41.9 31.78 82.14 8.5 123.1-12.54 22.16-34.17 34.85-59.3 34.85-16.93 0-32.8-6.02-42.45-16.1-21.22-22.26-22.52-42.44-16.7-53.88 1.72-3.3 1.34-5.75-.4-14.44-.55-2.92-1.2-6.3-1.9-10.4-3.13-18.82 25.7-79.78 38.03-85.94 3.9-1.94 10.58-3.14 17.96-3.26.4-3.02.3-5.64-.38-7.94-.97-.1-2.47-.17-4.75-.17-5.64 0-33.8 1.03-34.63 1.22-47.37 11.05-75.28 31.2-92.28 37.38l-42.06 168.8c-3.02 2.15-10.2 5.1-19.1 7.02C63.46 770 6.2 778.6-.7 778.6c-1.98.46-4.2.68-6.58.68-16.2 0-39.78-10.04-47.53-17.25-6.74-6.26 27.38-45.87 55.4-50.33 9.3-1.48 20.8-2.13 31.58-2.13 11.9 0 22.9.8 28.93 2.13 3.2-26.76 5.42-154.34 18.46-163.4 19.35-13.43 140.63-89.76 156.7-97.9l29.72-67.85-2.18-31.53c-21.53-7.14-112.5-51.27-132.3-72.87-29.68-32.3-40.2-48.02-109.2-139.17-6.07-8.03-10.43-18.17-10.82-19.74-.64-.1-27.82-18.35-51.37-19.62l-2.07.1c-21.04 0-33.58-44.32-34.4-48.54 0 0-.65-2.98.28-4.84.94-1.84 4.25-2.07 4.25-2.07.58-.14 14.1-3.2 25.82-4.3 4.52-.4 9.03-.8 13.66-.8 9.5 0 23.57 10.6 32.15 13.17 12.75 3.84 43.1 1.83 51.6 7.03 11.45 7 16.54 30.23 13.8 42.55-3.8 17 153.3 118.12 204.87 138.62 11.6 4.6 56.3 23.3 62.54 24.92 35.95-40.47 59.96-68 93.9-89.2 27.55-24.03 84.1-93.3 102.45-108.83-7.24-13.62-5.38-15.76-5.3-19.07.7-30.4 54.94-26.67 83.3-34.92 9.66-3 16.32-3.97 20.98-3.97m0-8.45c-6.37 0-14.04 1.4-23.42 4.3-7.02 2.02-16.28 3.32-26.06 4.7-27.85 3.93-62.52 8.8-63.2 38.08-.5 4.56-.5 8.75 3.36 17.32-9.37 9.08-23.37 24.76-39.13 42.45-20.4 22.88-43.5 48.78-58 61.54-33.47 21.05-57.87 48.44-91.4 86.2-9.43-3.54-29.4-11.72-41.2-16.55-6.74-2.76-12.46-5.1-15.68-6.4C222.66 212.6 83.8 121.53 73.75 102.16c2.57-14.98-2.85-40.78-17.96-50-6.05-3.7-15.88-4.54-31.36-5.45-8.6-.5-17.46-1.05-22.2-2.47-2.52-.76-6.46-2.84-10.26-4.86-8.06-4.26-16.38-8.7-24.34-8.7-4.85 0-9.44.42-13.9.8-11.63 1.07-24.23 3.8-26.95 4.4-2.52.34-7.9 1.6-10.44 6.67-2.05 4.13-1.35 8.7-.96 10.45.05.3 12.84 55.16 42.63 55.16l2-.1c8.36.54 22.76 3.95 44.62 16.98 2 4.7 5.93 12.44 10.92 19.03 13.67 18.06 25.04 33.17 34.72 46.03 39.08 51.9 50.87 67.55 74.95 93.76 19.55 21.33 101.53 61.87 130.47 73.2l1.66 24-27.7 63.27c-24.6 13.65-137.02 84.57-154.95 97C64.6 548.4 60.4 576.36 55.28 671.5c-.64 11.92-1.22 22.7-1.8 30.56-6.04-.6-13.44-.95-21.3-.95-12.2 0-23.88.8-32.9 2.24-26.3 4.2-57.62 34.96-62.6 51.35-2.27 7.4.75 11.64 2.75 13.5 9.5 8.83 35.4 19.5 53.3 19.5 2.75 0 5.33-.24 7.66-.72 11.28-.6 66.17-9.02 75.2-10.95 9.23-1.97 17.77-5.22 22.26-8.4 1.64-1.18 2.8-2.9 3.3-4.84l41-164.63c4.62-2 9.77-4.63 15.5-7.6 16.6-8.5 39.34-20.17 70.97-27.64 1.4-.1 5.4-.27 10.2-.44-16.75 18.14-39.16 71.1-36.1 89.54.64 3.7 1.22 6.77 1.74 9.48l.22 1.1c.62 3.16 1.53 7.75 1.33 8.7-7.32 14.4-6.32 38.46 17.94 63.9 11.2 11.72 29.35 18.7 48.57 18.7 28.25 0 52.55-14.25 66.64-39.1 25.03-44.04 22.12-87.25-8.9-132.06-1.14-1.68-2.37-3.27-3.72-4.84 1.6-7.08 2.92-11.5 3.85-14.1 1.43-.3 3.1-.62 4.95-1 9.7-1.95 32.42-6.53 37.36-6.53.36 0 1.6.1 3.35.2 6.97.47 21.46 1.4 34.22 1.4 2.57 0 5.07-.02 7.4-.1 4.72.7 27.72 13.46 42.9 21.9 18.5 10.25 30.1 16.56 37.7 19.73-2.3 26.03-8.48 86.62-14.9 124.4-.34 3.77-.62 11.24 1.56 16.1 3.24 7 12.48 23.3 28.94 24.06 1.7.22 9.03 2.66 11.1 3.65 4.94 2.42 13.24 7.07 21.3 11.6 13.1 7.36 18.75 10.46 21.73 11.44 1.32.42 3.77 1.03 9.4 1.03.48 0 49.57-.54 58.27-19.92.17-.36.33-.75.4-1.14 1.94-6.76-3.22-13.4-15.1-27.76-3.02-3.65-7.13-8.64-7.92-10.16-10-19.16-49.2-29.13-67.3-32.78 16.45-64.33 32.56-140.7 21.9-159.06-2.5-4.34-6.3-7.35-10.94-8.64-1.6-.4-3.86-1.38-6.04-2.33-2-.84-4-1.7-5.8-2.3-26.75-9.3-71.56-27.03-107.6-41.26-17.2-6.8-32.53-12.88-43.1-16.92l10.26-52c.66-2.9 6.7-25.54 12.54-45.14 2.06-6.97 4.24-11.38 6.56-16.03 5.1-10.27 10.32-20.92 12.86-55 .9-12.32 24.1-32.63 42.75-48.94 8.28-7.25 16.1-14.1 22.63-20.6 25.43-25.46 59.5-106.66 63.3-115.83 4.1-9.92 20.1-27.7 27.57-33.17 3.76-2.76 14.86-8.05 25.6-13.15 36.9-17.57 50.83-25.2 50.83-35.88 0-5.52-4.46-9.36-9.15-13.4-.97-.87-1.87-1.62-2.4-2.18-2.68-3.68-6.67-9.1-14.76-13.1-3.03-2.02-7.22-4-14.8-4z"/></g><g><path fill="#e0e1e2" d="M628.97 16.28c1.53 0 2.9.32 4.1 1.1 7.74 5.2 12.62 10.85 18.88 16.07 6.25 5.22-64.05 23.4-77.73 43.82-7.64 11.4-17.85 20.3-23.32 33.9-7.93 19.68-38.16 85.53-67.16 115.92-25.7 26.95-61.76 40.88-64.8 80.56-2.55 33.1-10.1 38.6-15.85 55.17-7.17 20.76-14.04 51.08-14.04 51.08l-13.53 65.34s132.38 55.03 177.34 66.86c17.68 4.63-25.1 165.54-25.1 165.54l-.46.23c19.37.05 64.66 11.5 72.97 27.45 9 17.37 19.38 27.66 19.38 27.66s-24.07 8.87-40.4 8.87c-3.28 0-6.25-.36-8.65-1.22-10.8-3.87-39.27-24.35-53.87-25.02-14.62-.7-18.88-17.08-19.48-21.9 0 0 24.16-137.8 14.1-141.58-31.88-12.07-82.47-44.07-97.75-44.07-6.83 0-20.63.88-30.72.88-3.1 0-5.88-.1-7.98-.3-.62-.08-1.3-.1-2.1-.1-12.65 0-44.55 7.97-50.42 7.97-4.74 0-9.5 21.47-11.5 31.93 2.73 2.47 5.3 5.26 7.53 8.5 26.88 38.8 31.3 76.15 8.2 116.75-12.95 22.8-34.43 31.82-54.17 31.82-15.4 0-29.75-5.5-38.1-14.26-19.37-20.3-20.4-37.77-15.68-47.04 3.56-7 1-11.95-1.76-28.56-2.76-16.6 25.6-75 34.82-79.6 3-1.5 9.04-2.66 16.52-2.66 1.17 0 2.37 0 3.6.08 1.64-5.86 2.33-12.67-.67-18.62-.6-1.18-4.7-1.6-10.18-1.6-10.63 0-26.42 1.5-31.7 1.5-.28 0-.53 0-.75-.02-.2 0-.4 0-.6 0-20.18 0-98.1 38.77-98.1 38.77L86.55 755c-8.36 5.9-79.9 13.45-92.36 16.54-1.36.34-2.83.5-4.44.5-15.22 0-40.16-13.88-40.16-13.88s22.7-30.77 44.6-37.58c8.3-2.57 19.96-3.7 31.6-3.7 20.57 0 41 3.48 42.22 8.46 0 0 5.58-165.4 17.05-172.07 48.07-27.73 156.75-98.94 156.75-98.94l30.18-70.8-2.64-38s-108-48.93-132.03-71.87C121.86 258.8 20.48 125.44 18.4 117.1c-1.97-7.86-36.98-23.6-55.8-23.6-1.12 0-2.2.06-3.18.18-.4.05-.78.06-1.17.06-17.1 0-28.74-43.7-28.74-43.7s13.56-3.14 25.03-4.15c1.22-.13 2.44-.18 3.65-.18 10.38 0 21.34 3.87 33.46 9.44 10.53 4.87 25.4 7.58 37.4 7.58 3.48 0 6.7-.24 9.5-.7.58-.1 1.14-.15 1.7-.15 11.66 0 20.5 20.44 19.14 38.7-2.46 33.43 174.2 135 213.76 149.1 17.56 6.28 43.3 17.97 61.8 24.87 0 0 55.5-68.67 96.5-93.4 21.2-16.27 72.75-76.07 81.28-87.65 9.9-13.4 21.9-26.14 21.9-26.14s-1.97-8.75-3.53-19.08c-1.88-12.48 26.96-22.64 71.52-25.26 9.82-.57 19.6-6.76 26.35-6.76m0-8.45c-4.67 0-9.3 1.68-14.2 3.42-4.27 1.53-8.68 3.12-12.6 3.34-22.75 1.33-62.78 5.92-75.45 21.54-4.16 5.12-4.45 10.12-3.94 13.4.9 6.12 1.96 11.66 2.7 15.3-4.3 4.72-12.37 13.95-19.5 23.63-8 10.82-58.87 69.8-79.27 85.67-35.8 21.8-80.88 74.15-94.36 90.32-7.3-2.85-15.45-6.25-23.4-9.56-11.5-4.8-23.4-9.77-32.9-13.16C227.6 224.44 66.07 125.7 67.88 101.2c1.13-15.16-3.7-31.38-12-40.34-4.53-4.87-9.9-7.44-15.58-7.44-1.02 0-2.06.1-3.1.27-2.3.37-5.02.57-8.1.57-11.47 0-25.1-2.72-33.86-6.8-10.98-5.05-23.96-10.2-37-10.2-1.5 0-2.96.07-4.43.2-11.9 1.07-25.58 4.2-26.15 4.35-2.23.5-4.16 1.9-5.34 3.87-1.18 1.95-1.5 4.3-.9 6.52 3.12 11.72 15.02 49.97 36.9 49.97.7 0 1.42-.04 2.15-.13.7-.08 1.42-.1 2.2-.1 15.84 0 43.83 12.88 47.95 18.15 7.23 17.47 109.84 148.97 120.94 159.62 22.15 21.2 108.53 61.6 129.78 71.38l2.14 30.97-28.35 66.57c-15.47 10.1-110.57 72.14-154.2 97.28-4.13 2.42-14.93 8.7-20.8 165.86-9.87-2.6-22.73-3.36-34.2-3.36-13.56 0-25.68 1.44-34.12 4.06-24.27 7.53-47.9 39.27-48.9 40.62-1.44 1.94-1.98 4.45-1.46 6.8.52 2.38 2.03 4.42 4.16 5.6 2.75 1.52 27.34 14.94 44.27 14.94 2.33 0 4.53-.27 6.5-.74 3.9-.98 15.82-2.65 28.46-4.45 42.04-5.93 60.6-9.1 66.7-13.4 1.65-1.16 2.8-2.85 3.3-4.8l42.35-163.75c29.86-14.67 78.14-36.2 90.9-36.2l1.35.03c2.3 0 6.47-.27 11.37-.57 6.38-.4 14.34-.9 20.33-.9 1.52 0 2.7.02 3.6.07.16 1 .23 2.06.16 3.2-6.9.32-12.9 1.53-16.78 3.46-13.18 6.6-42.7 68.55-39.4 88.57.7 4.1 1.35 7.52 1.92 10.45 1.7 8.65 1.9 10.4.65 12.9-6.26 12.2-5.04 33.5 17.08 56.7 10.1 10.58 26.63 16.88 44.22 16.88 26.08 0 48.48-13.15 61.53-36.1 23.8-41.88 20.97-83-8.6-125.73-1.6-2.3-3.37-4.48-5.3-6.53 2.46-11.72 4.6-18.14 5.92-20.93 3.26-.4 8.03-1.34 15-2.7 10.6-2.1 25.12-4.96 31.83-4.96.45 0 .88 0 1.23.05 2.33.24 5.4.34 8.84.34 5.64 0 12.42-.27 18.55-.5 4.8-.2 9.18-.36 12.2-.36 6.68 0 29.02 11.52 46.95 20.78 15.34 7.93 31.2 16.1 44.62 21.5 1.93 14.6-6.45 77.5-16.25 133.44-.16.83-.17 1.68-.07 2.5 1.23 9.74 8.55 28.4 27.46 29.3 7.4.34 23.05 9.28 33.4 15.18 7.26 4.16 13.52 7.74 18.02 9.36 3.2 1.15 6.98 1.72 11.5 1.72 17.63 0 42.3-9 43.32-9.4 2.7-1 4.7-3.3 5.32-6.13.6-2.82-.25-5.77-2.32-7.8-.08-.1-9.6-9.68-17.82-25.55-9.23-17.7-46.4-28.24-69.34-31.16 12.6-48.5 34.83-141.88 24.02-160.47-2.23-3.8-5.3-5.28-7.44-5.86-38.27-10.08-142.75-52.7-169.8-63.83l12.1-58.5c.04-.14 6.82-29.96 13.75-50.04 1.47-4.22 3.07-7.67 4.76-11.35 4.7-10.1 9.55-20.55 11.5-45.93 1.9-24.54 18.53-37.97 37.8-53.54 8.3-6.68 16.88-13.62 24.72-21.84 29.82-31.27 60.47-97.75 68.86-118.6 3.1-7.67 8.12-13.86 13.44-20.42 3.04-3.76 6.18-7.63 9.06-11.93 6.5-9.68 34.42-21.16 51.1-28.02 20.38-8.38 27.24-11.2 28.33-18.33.5-3.25-.74-6.5-3.3-8.64-2.07-1.73-3.98-3.5-5.92-5.3-3.98-3.7-8.1-7.55-13.7-11.3-2.58-1.62-5.54-2.47-8.83-2.47z"/></g><circle cx="291.819" cy="485.393" r=".997" fill="#e1f3fa" transform="matrix(16.898 0 0 16.898 -4938.375 -7453.86)"/><circle cx="295.282" cy="484.907" r=".759" fill="#e1f3fa" transform="matrix(16.898 0 0 16.898 -4938.375 -7453.86)"/><circle cx="326.645" cy="485.532" r=".959" fill="#e1f3fa" transform="matrix(16.898 0 0 16.898 -4938.375 -7453.86)"/><circle cx="323.969" cy="484.406" r=".831" fill="#e1f3fa" transform="matrix(16.898 0 0 16.898 -4938.375 -7453.86)"/><circle cx="309.413" cy="483.208" r="1.099" fill="#e1f3fa" transform="matrix(16.898 0 0 16.898 -4938.375 -7453.86)"/><circle cx="306.716" cy="479.601" r="1.098" fill="#e1f3fa" transform="matrix(16.898 0 0 16.898 -4938.375 -7453.86)"/><circle cx="306.8" cy="472.198" r="1.098" fill="#e1f3fa" transform="matrix(22.59 0 0 22.59 -6686.071 -10149.328)"/><circle cx="313.908" cy="471.843" r="1.098" fill="#e1f3fa" transform="matrix(24.867 0 0 24.867 -7455.047 -11219.185)"/><circle cx="323.801" cy="474.536" r="1.098" fill="#e1f3fa" transform="matrix(22.59 0 0 22.59 -6785.349 -10155.136)"/><circle cx="314.434" cy="462.743" r="1.098" fill="#e1f3fa" transform="matrix(27.144 0 0 27.144 -8162.699 -12227.823)"/><circle cx="309.852" cy="462.853" r="1.098" fill="#e1f3fa" transform="matrix(24.867 0 0 24.867 -7402.722 -11142.54)"/><circle cx="301.722" cy="456.304" r="1.098" fill="#e1f3fa" transform="matrix(26.006 0 0 26.006 -7688.939 -11632.348)"/><circle cx="319.787" cy="453.543" r="1.098" fill="#e1f3fa" transform="matrix(22.59 0 0 22.59 -6754.999 -10049.385)"/><circle cx="329.155" cy="443.005" r=".68" fill="#e1f3fa" transform="matrix(16.898 0 0 16.898 -4938.375 -7453.86)"/><circle cx="293.985" cy="446.237" r="1.098" fill="#e1f3fa" transform="matrix(16.898 0 0 16.898 -4938.375 -7453.86)"/><circle cx="298.52" cy="474.875" r="1.098" fill="#e1f3fa" transform="matrix(23.729 0 0 23.729 -6973.8 -10698.957)"/><circle cx="289.978" cy="445.141" r=".83" fill="#e1f3fa" transform="matrix(16.898 0 0 16.898 -4938.375 -7453.86)"/><circle cx="325.056" cy="444.094" r=".831" fill="#e1f3fa" transform="matrix(16.898 0 0 16.898 -4938.375 -7453.86)"/></svg>