<svg xmlns="http://www.w3.org/2000/svg" width="48" height="48" xmlns:xlink="http://www.w3.org/1999/xlink"><defs><radialGradient id="d" cx="2054.125" cy="281.606" r="12.638" gradientUnits="userSpaceOnUse" gradientTransform="matrix(1.442 0 0 1 -2944.569 0)" fy="281.606" fx="2054.125"><stop offset=".258" stop-color="#F5F7FB"/><stop offset=".41" stop-color="#EAF0F5"/><stop offset=".573" stop-color="#E6EDF2"/><stop offset=".815" stop-color="#B7BFCC"/><stop offset="1" stop-color="#B8C9D9"/></radialGradient><radialGradient id="b" cx="2056.345" cy="285.004" r="8.72" gradientUnits="userSpaceOnUse" gradientTransform="matrix(1.442 0 0 1 -2944.569 0)" fy="285.004" fx="2056.345"><stop offset=".258" stop-color="#F5F7FB"/><stop offset=".41" stop-color="#EAF0F5"/><stop offset=".573" stop-color="#E6EDF2"/><stop offset=".815" stop-color="#C2DCF2"/><stop offset="1" stop-color="#B3DDFF"/></radialGradient><radialGradient id="c" cx="2056.345" cy="286.008" r="10.591" gradientUnits="userSpaceOnUse" gradientTransform="matrix(1.442 0 0 1 -2944.569 0)" fy="286.008" fx="2056.345"><stop offset=".258" stop-color="#F5F7FB"/><stop offset=".41" stop-color="#EAF0F5"/><stop offset=".573" stop-color="#E6EDF2"/><stop offset=".815" stop-color="#C2DCF2"/><stop offset="1" stop-color="#B3DDFF"/></radialGradient><linearGradient id="h" x1="24.456" x2="26.883" y1="250.123" y2="249.945" gradientUnits="userSpaceOnUse"><stop offset="0" stop-color="#B4BFCC"/><stop offset=".371" stop-color="#F6F7FA"/></linearGradient><radialGradient id="a" cx="26.106" cy="260.826" r="20.172" gradientUnits="userSpaceOnUse" fy="260.826" fx="26.106" gradientTransform="matrix(1.007 0 0 1.007 -.297 -250.099)"><stop offset="0" stop-color="#CB1009"/><stop offset=".348" stop-color="#ED2728"/><stop offset=".517" stop-color="#ED2728"/><stop offset=".608" stop-color="#DC1B18"/><stop offset=".714" stop-color="#CF130D"/><stop offset=".815" stop-color="#CB1009"/><stop offset="1" stop-color="#A40E0A"/></radialGradient><linearGradient id="i" x1="22.277" x2="26.351" y1="263.513" y2="263.979" gradientUnits="userSpaceOnUse" gradientTransform="matrix(1.007 0 0 1.007 -.297 -250.099)"><stop offset="0" stop-color="#B4BFCC"/><stop offset=".371" stop-color="#F6F7FA"/><stop offset=".478" stop-color="#D8DCE1"/><stop offset=".71" stop-color="#8C96A2"/><stop offset=".742" stop-color="#818C99"/><stop offset=".803" stop-color="#818C99"/><stop offset="1" stop-color="#B4BFCC"/></linearGradient><radialGradient id="e" cx="21.088" cy="40.843" r="12.64" xlink:href="#a" fx="21.088" fy="40.843" gradientTransform="matrix(1 0 0 .429 0 25.107)" gradientUnits="userSpaceOnUse"/><radialGradient cx="2056.345" cy="285.004" r="8.72" fx="2056.345" fy="285.004" gradientTransform="matrix(1.442 0 0 1 -2944.569 0)" gradientUnits="userSpaceOnUse"><stop offset=".258" stop-color="#F5F7FB"/><stop offset=".41" stop-color="#EAF0F5"/><stop offset=".573" stop-color="#E6EDF2"/><stop offset=".815" stop-color="#C2DCF2"/><stop offset="1" stop-color="#B3DDFF"/></radialGradient><radialGradient id="f" cx="2056.345" cy="285.004" r="8.72" xlink:href="#b" gradientUnits="userSpaceOnUse" gradientTransform="matrix(1.452 0 0 1.007 -2964.556 -250.099)" fx="2056.345" fy="285.004"/><radialGradient cx="2056.345" cy="286.008" r="10.591" fx="2056.345" fy="286.008" gradientTransform="matrix(1.442 0 0 1 -2944.569 0)" gradientUnits="userSpaceOnUse"><stop offset=".258" stop-color="#F5F7FB"/><stop offset=".41" stop-color="#EAF0F5"/><stop offset=".573" stop-color="#E6EDF2"/><stop offset=".815" stop-color="#C2DCF2"/><stop offset="1" stop-color="#B3DDFF"/></radialGradient><radialGradient id="g" cx="2056.345" cy="286.008" r="10.591" xlink:href="#c" gradientUnits="userSpaceOnUse" gradientTransform="matrix(1.452 0 0 1.007 -2964.556 -250.099)" fx="2056.345" fy="286.008"/></defs><g><ellipse cx="21.298" cy="284.977" fill="none" stroke="#4c5259" stroke-width="1.271" rx="12.611" ry="8.743" transform="matrix(1.007 0 0 1.039 -.297 -259.698)"/><circle cx="25.569" cy="250.042" r=".642" fill="none" stroke="#4c5259" stroke-width="1.291" transform="matrix(1.007 0 0 1.007 -.297 -250.099)"/><path fill="none" stroke="#4c5259" stroke-width="1.3" d="M26.08 1.73c0 .13-.3.2-.66.13-.35-.06-.63-.22-.6-.35l-3.2 27.3c0 .15.28.3.63.36s.65 0 .66-.13l3.18-27.3z"/><path fill="none" stroke="#8c0c09" stroke-width="1.2" d="M26 2.5c2.1 1.97 1.72 5.02-1.08 9.07 1.6-.13 4.37-.97 7.17-.24 2.8.74 4.55 1.98 7.23 2.03 2.67.04 5.96-1.4 7.75-1.15-3.24-1-5.55-.07-10.73-5.07C31.17 2.13 27.8 2.3 26 2.5z"/><ellipse cx="21.298" cy="284.977" fill="url(#d)" transform="matrix(1.007 0 0 1.151 -.297 -290.115)" ry="8.743" rx="12.611"/><path fill="url(#e)" d="M21.14 48.06c6.44 0 11.76-3.8 12.6-8.74-.22 1.27-6.04 1.8-13 1.2-6.85-.6-12.27-2.06-12.26-3.3-.02.25-.03.5-.03.77 0 5.55 5.68 10.06 12.7 10.06z"/><path fill="url(#f)" d="M8.83 34.43c-3.25.47-5.26 1.13-5.26 1.92 0 1.57 7.87 2.84 17.57 2.84s17.58-1.28 17.58-2.85c0-.8-2.02-1.46-5.27-1.92l.08.22c2.02.35 3.22.8 3.22 1.34 0 1.28-6.98 2.33-15.6 2.33-8.63 0-15.62-1.05-15.62-2.34 0-.55 1.2-1 3.24-1.36l.06-.2z"/><path fill="url(#g)" d="M9.12 33.8c-5.4.66-8.94 1.8-8.94 3.38 0 2.57 9.4 4.66 20.96 4.66 11.58 0 20.96-2.1 20.96-4.66 0-1.58-3.53-2.73-8.94-3.38l.08.15c5.1.6 8.4 1.65 8.4 2.98 0 2.22-9.17 4.02-20.5 4.02-11.32 0-20.5-1.8-20.5-4.02 0-1.33 3.3-2.37 8.4-2.98l.08-.15z"/><path fill="#fff" d="M8.65 38.35c-3.14-.5-5.08-1.22-5.08-2 0-.8 2.05-1.46 5.34-1.93.07-.16.15-.32.22-.48-5.14.62-8.48 1.65-8.48 3 0 1.36 3.5 2.57 8.82 3.3 3.32.45 7.34.7 11.68.7 4.35 0 8.37-.25 11.7-.7 5.32-.73 8.8-1.94 8.8-3.3 0-1.35-3.33-2.38-8.47-3 .07.16.14.32.2.48 3.3.47 5.35 1.13 5.35 1.94 0 .77-1.94 1.48-5.08 2-3.18.5-7.6.83-12.5.83-4.88 0-9.3-.33-12.5-.85z" opacity=".694"/><path fill="#fff" d="M33.46 34.63l.05.16c0 .96-5.53 1.75-12.38 1.75-6.84 0-12.35-.8-12.35-1.76l.06-.17c-2.07.36-3.3.82-3.3 1.36 0 .5 1.1.97 2.94 1.36 2.84.6 7.46.97 12.67.97 5.22 0 9.84-.38 12.67-.97 1.86-.4 2.95-.86 2.95-1.37 0-.55-1.23-1-3.3-1.37z" opacity=".672"/><circle cx="25.569" cy="250.042" r=".642" fill="url(#h)" transform="matrix(1.007 0 0 1.007 -.297 -250.099)"/><path fill="url(#a)" d="M26 2.5c2.1 1.97 1.72 5.02-1.08 9.07 1.6-.13 4.37-.97 7.17-.24 2.8.74 4.55 1.98 7.23 2.03 2.67.04 5.96-1.4 7.75-1.15-3.24-1-5.55-.07-10.73-5.07C31.17 2.13 27.8 2.3 26 2.5z"/><path fill="url(#i)" d="M26.08 1.73c0 .13-.3.2-.66.13-.35-.06-.63-.22-.6-.35l-3.2 27.3c0 .15.28.3.63.36s.65 0 .66-.13l3.18-27.3z"/><path fill="none" stroke="#fff" d="M33.5 35.72c0 1.1-5.53 2-12.38 2-6.84 0-12.35-.9-12.35-2"/><path fill="none" stroke="#77818c" stroke-width=".6" d="M21.32 28.84c-.04.44.45.7.88.78.17.03.6.1.86-.13"/></g></svg>