<svg xmlns="http://www.w3.org/2000/svg" width="48" height="48" xmlns:xlink="http://www.w3.org/1999/xlink"><defs><radialGradient id="Z" cx="48.472" cy="-9.966" r="13.752" xlink:href="#a" gradientUnits="userSpaceOnUse" gradientTransform="matrix(.996 .087 -.087 .996 -17.804 27.412)" fx="48.472" fy="-9.966"/><radialGradient id="a" cx="48.472" cy="-9.966" r="13.752" gradientUnits="userSpaceOnUse" gradientTransform="matrix(.996 .087 -.087 .996 -17.804 27.412)" fy="-9.966" fx="48.472"><stop offset="0" stop-color="#FBC670"/><stop offset=".449" stop-color="#FAAF3E"/><stop offset=".714" stop-color="#F17912"/></radialGradient><radialGradient id="aa" cx="48.471" cy="-9.966" r="13.754" xlink:href="#b" gradientUnits="userSpaceOnUse" gradientTransform="matrix(.996 .087 -.087 .996 -17.804 27.412)" fx="48.471" fy="-9.966"/><radialGradient id="b" cx="48.471" cy="-9.966" r="13.754" gradientUnits="userSpaceOnUse" gradientTransform="matrix(.996 .087 -.087 .996 -17.804 27.412)" fy="-9.966" fx="48.471"><stop offset="0" stop-color="#FBC670"/><stop offset=".449" stop-color="#FAAF3E"/><stop offset=".714" stop-color="#F17912"/></radialGradient><radialGradient id="ab" cx="48.473" cy="-9.966" r="13.752" xlink:href="#c" gradientUnits="userSpaceOnUse" gradientTransform="matrix(.996 .087 -.087 .996 -17.804 27.412)" fx="48.473" fy="-9.966"/><radialGradient id="c" cx="48.473" cy="-9.966" r="13.752" gradientUnits="userSpaceOnUse" gradientTransform="matrix(.996 .087 -.087 .996 -17.804 27.412)" fy="-9.966" fx="48.473"><stop offset="0" stop-color="#FBC670"/><stop offset=".449" stop-color="#FAAF3E"/><stop offset=".714" stop-color="#F17912"/></radialGradient><radialGradient id="ac" cx="48.473" cy="-9.966" r="13.752" xlink:href="#d" gradientUnits="userSpaceOnUse" gradientTransform="matrix(.996 .087 -.087 .996 -17.804 27.412)" fx="48.473" fy="-9.966"/><radialGradient id="d" cx="48.473" cy="-9.966" r="13.752" gradientUnits="userSpaceOnUse" gradientTransform="matrix(.996 .087 -.087 .996 -17.804 27.412)" fy="-9.966" fx="48.473"><stop offset="0" stop-color="#FBC670"/><stop offset=".449" stop-color="#FAAF3E"/><stop offset=".714" stop-color="#F17912"/></radialGradient><radialGradient id="ad" cx="48.473" cy="-9.967" r="13.752" xlink:href="#e" gradientUnits="userSpaceOnUse" gradientTransform="matrix(.996 .087 -.087 .996 -17.804 27.412)" fx="48.473" fy="-9.967"/><radialGradient id="e" cx="48.473" cy="-9.967" r="13.752" gradientUnits="userSpaceOnUse" gradientTransform="matrix(.996 .087 -.087 .996 -17.804 27.412)" fy="-9.967" fx="48.473"><stop offset="0" stop-color="#FBC670"/><stop offset=".449" stop-color="#FAAF3E"/><stop offset=".714" stop-color="#F17912"/></radialGradient><radialGradient id="ae" cx="48.472" cy="-9.966" r="13.754" xlink:href="#f" gradientUnits="userSpaceOnUse" gradientTransform="matrix(.996 .087 -.087 .996 -17.804 27.412)" fx="48.472" fy="-9.966"/><radialGradient id="f" cx="48.472" cy="-9.966" r="13.754" gradientUnits="userSpaceOnUse" gradientTransform="matrix(.996 .087 -.087 .996 -17.804 27.412)" fy="-9.966" fx="48.472"><stop offset="0" stop-color="#FBC670"/><stop offset=".449" stop-color="#FAAF3E"/><stop offset=".714" stop-color="#F17912"/></radialGradient><radialGradient id="af" cx="48.473" cy="-9.968" r="13.752" xlink:href="#g" gradientUnits="userSpaceOnUse" gradientTransform="matrix(.996 .087 -.087 .996 -17.804 27.412)" fx="48.473" fy="-9.968"/><radialGradient id="g" cx="48.473" cy="-9.968" r="13.752" gradientUnits="userSpaceOnUse" gradientTransform="matrix(.996 .087 -.087 .996 -17.804 27.412)" fy="-9.968" fx="48.473"><stop offset="0" stop-color="#FBC670"/><stop offset=".449" stop-color="#FAAF3E"/><stop offset=".714" stop-color="#F17912"/></radialGradient><radialGradient id="ag" cx="48.472" cy="-9.967" r="13.753" xlink:href="#h" gradientUnits="userSpaceOnUse" gradientTransform="matrix(.996 .087 -.087 .996 -17.804 27.412)" fx="48.472" fy="-9.967"/><radialGradient id="h" cx="48.472" cy="-9.967" r="13.753" gradientUnits="userSpaceOnUse" gradientTransform="matrix(.996 .087 -.087 .996 -17.804 27.412)" fy="-9.967" fx="48.472"><stop offset="0" stop-color="#FBC670"/><stop offset=".449" stop-color="#FAAF3E"/><stop offset=".714" stop-color="#F17912"/></radialGradient><radialGradient id="ah" cx="48.471" cy="-9.966" r="13.753" xlink:href="#i" gradientUnits="userSpaceOnUse" gradientTransform="matrix(.996 .087 -.087 .996 -17.804 27.412)" fx="48.471" fy="-9.966"/><radialGradient id="i" cx="48.471" cy="-9.966" r="13.753" gradientUnits="userSpaceOnUse" gradientTransform="matrix(.996 .087 -.087 .996 -17.804 27.412)" fy="-9.966" fx="48.471"><stop offset="0" stop-color="#FBC670"/><stop offset=".449" stop-color="#FAAF3E"/><stop offset=".714" stop-color="#F17912"/></radialGradient><radialGradient id="ai" cx="48.473" cy="-9.968" r="13.752" xlink:href="#j" gradientUnits="userSpaceOnUse" gradientTransform="matrix(.996 .087 -.087 .996 -17.804 27.412)" fx="48.473" fy="-9.968"/><radialGradient id="j" cx="48.473" cy="-9.968" r="13.752" gradientUnits="userSpaceOnUse" gradientTransform="matrix(.996 .087 -.087 .996 -17.804 27.412)" fy="-9.968" fx="48.473"><stop offset="0" stop-color="#FBC670"/><stop offset=".449" stop-color="#FAAF3E"/><stop offset=".714" stop-color="#F17912"/></radialGradient><radialGradient id="aj" cx="48.473" cy="-9.967" r="13.752" xlink:href="#k" gradientUnits="userSpaceOnUse" gradientTransform="matrix(.996 .087 -.087 .996 -17.804 27.412)" fx="48.473" fy="-9.967"/><radialGradient id="k" cx="48.473" cy="-9.967" r="13.752" gradientUnits="userSpaceOnUse" gradientTransform="matrix(.996 .087 -.087 .996 -17.804 27.412)" fy="-9.967" fx="48.473"><stop offset="0" stop-color="#FBC670"/><stop offset=".449" stop-color="#FAAF3E"/><stop offset=".714" stop-color="#F17912"/></radialGradient><radialGradient id="ak" cx="48.469" cy="-9.967" r="13.753" xlink:href="#l" gradientUnits="userSpaceOnUse" gradientTransform="matrix(.996 .087 -.087 .996 -17.804 27.412)" fx="48.469" fy="-9.967"/><radialGradient id="l" cx="48.469" cy="-9.967" r="13.753" gradientUnits="userSpaceOnUse" gradientTransform="matrix(.996 .087 -.087 .996 -17.804 27.412)" fy="-9.967" fx="48.469"><stop offset="0" stop-color="#FBC670"/><stop offset=".449" stop-color="#FAAF3E"/><stop offset=".714" stop-color="#F17912"/></radialGradient><radialGradient id="al" cx="48.471" cy="-9.967" r="13.754" xlink:href="#m" gradientUnits="userSpaceOnUse" gradientTransform="matrix(.996 .087 -.087 .996 -17.804 27.412)" fx="48.471" fy="-9.967"/><radialGradient id="m" cx="48.471" cy="-9.967" r="13.754" gradientUnits="userSpaceOnUse" gradientTransform="matrix(.996 .087 -.087 .996 -17.804 27.412)" fy="-9.967" fx="48.471"><stop offset="0" stop-color="#FBC670"/><stop offset=".449" stop-color="#FAAF3E"/><stop offset=".714" stop-color="#F17912"/></radialGradient><radialGradient id="am" cx="48.471" cy="-9.966" r="13.755" xlink:href="#n" gradientUnits="userSpaceOnUse" gradientTransform="matrix(.996 .087 -.087 .996 -17.804 27.412)" fx="48.471" fy="-9.966"/><radialGradient id="n" cx="48.471" cy="-9.966" r="13.755" gradientUnits="userSpaceOnUse" gradientTransform="matrix(.996 .087 -.087 .996 -17.804 27.412)" fy="-9.966" fx="48.471"><stop offset="0" stop-color="#FBC670"/><stop offset=".449" stop-color="#FAAF3E"/><stop offset=".714" stop-color="#F17912"/></radialGradient><radialGradient id="an" cx="48.472" cy="-9.967" r="13.752" xlink:href="#o" gradientUnits="userSpaceOnUse" gradientTransform="matrix(.996 .087 -.087 .996 -17.804 27.412)" fx="48.472" fy="-9.967"/><radialGradient id="o" cx="48.472" cy="-9.967" r="13.752" gradientUnits="userSpaceOnUse" gradientTransform="matrix(.996 .087 -.087 .996 -17.804 27.412)" fy="-9.967" fx="48.472"><stop offset="0" stop-color="#FBC670"/><stop offset=".449" stop-color="#FAAF3E"/><stop offset=".714" stop-color="#F17912"/></radialGradient><radialGradient id="ao" cx="48.472" cy="-9.965" r="13.753" xlink:href="#p" gradientUnits="userSpaceOnUse" gradientTransform="matrix(.996 .087 -.087 .996 -17.804 27.412)" fx="48.472" fy="-9.965"/><radialGradient id="p" cx="48.472" cy="-9.965" r="13.753" gradientUnits="userSpaceOnUse" gradientTransform="matrix(.996 .087 -.087 .996 -17.804 27.412)" fy="-9.965" fx="48.472"><stop offset="0" stop-color="#FBC670"/><stop offset=".449" stop-color="#FAAF3E"/><stop offset=".714" stop-color="#F17912"/></radialGradient><radialGradient id="ap" cx="48.466" cy="-9.967" r="13.758" xlink:href="#q" gradientUnits="userSpaceOnUse" gradientTransform="matrix(.996 .087 -.087 .996 -17.804 27.412)" fx="48.466" fy="-9.967"/><radialGradient id="q" cx="48.466" cy="-9.967" r="13.758" gradientUnits="userSpaceOnUse" gradientTransform="matrix(.996 .087 -.087 .996 -17.804 27.412)" fy="-9.967" fx="48.466"><stop offset="0" stop-color="#FBC670"/><stop offset=".449" stop-color="#FAAF3E"/><stop offset=".714" stop-color="#F17912"/></radialGradient><radialGradient id="I" cx="48.472" cy="-9.966" r="13.752" xlink:href="#a" gradientUnits="userSpaceOnUse" gradientTransform="matrix(.996 .087 -.087 .996 -17.804 27.412)" fx="48.472" fy="-9.966"/><radialGradient id="J" cx="48.471" cy="-9.966" r="13.754" xlink:href="#b" gradientUnits="userSpaceOnUse" gradientTransform="matrix(.996 .087 -.087 .996 -17.804 27.412)" fx="48.471" fy="-9.966"/><radialGradient id="K" cx="48.473" cy="-9.966" r="13.752" xlink:href="#c" gradientUnits="userSpaceOnUse" gradientTransform="matrix(.996 .087 -.087 .996 -17.804 27.412)" fx="48.473" fy="-9.966"/><radialGradient id="L" cx="48.473" cy="-9.966" r="13.752" xlink:href="#d" gradientUnits="userSpaceOnUse" gradientTransform="matrix(.996 .087 -.087 .996 -17.804 27.412)" fx="48.473" fy="-9.966"/><radialGradient id="M" cx="48.473" cy="-9.967" r="13.752" xlink:href="#e" gradientUnits="userSpaceOnUse" gradientTransform="matrix(.996 .087 -.087 .996 -17.804 27.412)" fx="48.473" fy="-9.967"/><radialGradient id="N" cx="48.472" cy="-9.966" r="13.754" xlink:href="#f" gradientUnits="userSpaceOnUse" gradientTransform="matrix(.996 .087 -.087 .996 -17.804 27.412)" fx="48.472" fy="-9.966"/><radialGradient id="O" cx="48.473" cy="-9.968" r="13.752" xlink:href="#g" gradientUnits="userSpaceOnUse" gradientTransform="matrix(.996 .087 -.087 .996 -17.804 27.412)" fx="48.473" fy="-9.968"/><radialGradient id="P" cx="48.472" cy="-9.967" r="13.753" xlink:href="#h" gradientUnits="userSpaceOnUse" gradientTransform="matrix(.996 .087 -.087 .996 -17.804 27.412)" fx="48.472" fy="-9.967"/><radialGradient id="Q" cx="48.471" cy="-9.966" r="13.753" xlink:href="#i" gradientUnits="userSpaceOnUse" gradientTransform="matrix(.996 .087 -.087 .996 -17.804 27.412)" fx="48.471" fy="-9.966"/><radialGradient id="R" cx="48.473" cy="-9.968" r="13.752" xlink:href="#j" gradientUnits="userSpaceOnUse" gradientTransform="matrix(.996 .087 -.087 .996 -17.804 27.412)" fx="48.473" fy="-9.968"/><radialGradient id="S" cx="48.473" cy="-9.967" r="13.752" xlink:href="#k" gradientUnits="userSpaceOnUse" gradientTransform="matrix(.996 .087 -.087 .996 -17.804 27.412)" fx="48.473" fy="-9.967"/><radialGradient id="T" cx="48.469" cy="-9.967" r="13.753" xlink:href="#l" gradientUnits="userSpaceOnUse" gradientTransform="matrix(.996 .087 -.087 .996 -17.804 27.412)" fx="48.469" fy="-9.967"/><radialGradient id="U" cx="48.471" cy="-9.967" r="13.754" xlink:href="#m" gradientUnits="userSpaceOnUse" gradientTransform="matrix(.996 .087 -.087 .996 -17.804 27.412)" fx="48.471" fy="-9.967"/><radialGradient id="V" cx="48.471" cy="-9.966" r="13.755" xlink:href="#n" gradientUnits="userSpaceOnUse" gradientTransform="matrix(.996 .087 -.087 .996 -17.804 27.412)" fx="48.471" fy="-9.966"/><radialGradient id="W" cx="48.472" cy="-9.967" r="13.752" xlink:href="#o" gradientUnits="userSpaceOnUse" gradientTransform="matrix(.996 .087 -.087 .996 -17.804 27.412)" fx="48.472" fy="-9.967"/><radialGradient id="X" cx="48.472" cy="-9.965" r="13.753" xlink:href="#p" gradientUnits="userSpaceOnUse" gradientTransform="matrix(.996 .087 -.087 .996 -17.804 27.412)" fx="48.472" fy="-9.965"/><radialGradient id="Y" cx="48.466" cy="-9.967" r="13.758" xlink:href="#q" gradientUnits="userSpaceOnUse" gradientTransform="matrix(.996 .087 -.087 .996 -17.804 27.412)" fx="48.466" fy="-9.967"/><radialGradient id="r" cx="48.472" cy="-9.966" r="13.752" xlink:href="#a" gradientUnits="userSpaceOnUse" gradientTransform="matrix(.996 .087 -.087 .996 -17.804 27.412)" fx="48.472" fy="-9.966"/><radialGradient id="s" cx="48.471" cy="-9.966" r="13.754" xlink:href="#b" gradientUnits="userSpaceOnUse" gradientTransform="matrix(.996 .087 -.087 .996 -17.804 27.412)" fx="48.471" fy="-9.966"/><radialGradient id="t" cx="48.473" cy="-9.966" r="13.752" xlink:href="#c" gradientUnits="userSpaceOnUse" gradientTransform="matrix(.996 .087 -.087 .996 -17.804 27.412)" fx="48.473" fy="-9.966"/><radialGradient id="u" cx="48.473" cy="-9.966" r="13.752" xlink:href="#d" gradientUnits="userSpaceOnUse" gradientTransform="matrix(.996 .087 -.087 .996 -17.804 27.412)" fx="48.473" fy="-9.966"/><radialGradient id="v" cx="48.473" cy="-9.967" r="13.752" xlink:href="#e" gradientUnits="userSpaceOnUse" gradientTransform="matrix(.996 .087 -.087 .996 -17.804 27.412)" fx="48.473" fy="-9.967"/><radialGradient id="w" cx="48.472" cy="-9.966" r="13.754" xlink:href="#f" gradientUnits="userSpaceOnUse" gradientTransform="matrix(.996 .087 -.087 .996 -17.804 27.412)" fx="48.472" fy="-9.966"/><radialGradient id="x" cx="48.473" cy="-9.968" r="13.752" xlink:href="#g" gradientUnits="userSpaceOnUse" gradientTransform="matrix(.996 .087 -.087 .996 -17.804 27.412)" fx="48.473" fy="-9.968"/><radialGradient id="y" cx="48.472" cy="-9.967" r="13.753" xlink:href="#h" gradientUnits="userSpaceOnUse" gradientTransform="matrix(.996 .087 -.087 .996 -17.804 27.412)" fx="48.472" fy="-9.967"/><radialGradient id="z" cx="48.471" cy="-9.966" r="13.753" xlink:href="#i" gradientUnits="userSpaceOnUse" gradientTransform="matrix(.996 .087 -.087 .996 -17.804 27.412)" fx="48.471" fy="-9.966"/><radialGradient id="A" cx="48.473" cy="-9.968" r="13.752" xlink:href="#j" gradientUnits="userSpaceOnUse" gradientTransform="matrix(.996 .087 -.087 .996 -17.804 27.412)" fx="48.473" fy="-9.968"/><radialGradient id="B" cx="48.473" cy="-9.967" r="13.752" xlink:href="#k" gradientUnits="userSpaceOnUse" gradientTransform="matrix(.996 .087 -.087 .996 -17.804 27.412)" fx="48.473" fy="-9.967"/><radialGradient id="C" cx="48.469" cy="-9.967" r="13.753" xlink:href="#l" gradientUnits="userSpaceOnUse" gradientTransform="matrix(.996 .087 -.087 .996 -17.804 27.412)" fx="48.469" fy="-9.967"/><radialGradient id="D" cx="48.471" cy="-9.967" r="13.754" xlink:href="#m" gradientUnits="userSpaceOnUse" gradientTransform="matrix(.996 .087 -.087 .996 -17.804 27.412)" fx="48.471" fy="-9.967"/><radialGradient id="E" cx="48.471" cy="-9.966" r="13.755" xlink:href="#n" gradientUnits="userSpaceOnUse" gradientTransform="matrix(.996 .087 -.087 .996 -17.804 27.412)" fx="48.471" fy="-9.966"/><radialGradient id="F" cx="48.472" cy="-9.967" r="13.752" xlink:href="#o" gradientUnits="userSpaceOnUse" gradientTransform="matrix(.996 .087 -.087 .996 -17.804 27.412)" fx="48.472" fy="-9.967"/><radialGradient id="G" cx="48.472" cy="-9.965" r="13.753" xlink:href="#p" gradientUnits="userSpaceOnUse" gradientTransform="matrix(.996 .087 -.087 .996 -17.804 27.412)" fx="48.472" fy="-9.965"/><radialGradient id="H" cx="48.466" cy="-9.967" r="13.758" xlink:href="#q" gradientUnits="userSpaceOnUse" gradientTransform="matrix(.996 .087 -.087 .996 -17.804 27.412)" fx="48.466" fy="-9.967"/></defs><g><path fill="none" stroke="#77ace6" stroke-width=".75" d="M5 31.4l22.3-6.67"/><path fill="none" stroke="#77ace6" stroke-width=".75" d="M28 1.4l-.7 23.33"/><path fill="none" stroke="#77ace6" stroke-width=".75" d="M42.7 37.04l-15.4-12.3"/><g transform="matrix(1.024 0 0 1.024 -1.981 3.298)" opacity=".302"><circle cx="34.494" cy="27.881" r="11.864" fill="#fff"/><g><radialGradient cx="48.472" cy="-9.966" r="13.752" gradientUnits="userSpaceOnUse" gradientTransform="matrix(.996 .087 -.087 .996 -17.804 27.412)" fy="-9.966" fx="48.472"><stop offset="0" stop-color="#FBC670"/><stop offset=".449" stop-color="#FAAF3E"/><stop offset=".714" stop-color="#F17912"/></radialGradient><path fill="url(#r)" d="M33.87 17.83c-5.5 2.12-10.35 7.57-10.83 12.13-.08.84-.02 1.6.2 2.3l.47-.14c-.18-.63-.24-1.33-.16-2.1.46-4.4 5.18-9.66 10.5-11.73 2.6-1.02 5.02-1.1 6.63-.26l.24-.44c-1.76-.93-4.26-.85-7.03.23z"/></g><g><radialGradient cx="48.471" cy="-9.966" r="13.754" gradientUnits="userSpaceOnUse" gradientTransform="matrix(.996 .087 -.087 .996 -17.804 27.412)" fy="-9.966" fx="48.471"><stop offset="0" stop-color="#FBC670"/><stop offset=".449" stop-color="#FAAF3E"/><stop offset=".714" stop-color="#F17912"/></radialGradient><path fill="url(#s)" d="M35.35 17.25c-5.7-.17-10.84 2.57-12.25 6.52l.47.17c1.32-3.7 6.38-6.35 11.77-6.2 4.35.15 8.1 2.08 9.54 4.93l.44-.22c-1.52-3-5.43-5.05-9.97-5.2z"/></g><g><radialGradient cx="48.473" cy="-9.966" r="13.752" gradientUnits="userSpaceOnUse" gradientTransform="matrix(.996 .087 -.087 .996 -17.804 27.412)" fy="-9.966" fx="48.473"><stop offset="0" stop-color="#FBC670"/><stop offset=".449" stop-color="#FAAF3E"/><stop offset=".714" stop-color="#F17912"/></radialGradient><path fill="url(#t)" d="M27.1 18.3l.32.37c1.88-1.63 5.08-1.93 8.36-.8 5.57 1.95 10.1 7.13 10.1 11.55l-.14 1.38.48.12.17-1.5c-.02-4.7-4.6-9.97-10.46-12-3.44-1.2-6.83-.87-8.85.87z"/></g><g><radialGradient cx="48.473" cy="-9.966" r="13.752" gradientUnits="userSpaceOnUse" gradientTransform="matrix(.996 .087 -.087 .996 -17.804 27.412)" fy="-9.966" fx="48.473"><stop offset="0" stop-color="#FBC670"/><stop offset=".449" stop-color="#FAAF3E"/><stop offset=".714" stop-color="#F17912"/></radialGradient><path fill="url(#u)" d="M31.9 16.05l.1.5c.46-.12 1-.07 1.6.14 3.32 1.15 7.08 6.88 8.36 12.77.85 3.9.56 6.88-.8 7.94l.3.4c1.54-1.2 1.9-4.27 1-8.44-1.33-6.04-5.23-11.94-8.7-13.14-.7-.24-1.32-.3-1.87-.17z"/></g><g><radialGradient cx="48.473" cy="-9.967" r="13.752" gradientUnits="userSpaceOnUse" gradientTransform="matrix(.996 .087 -.087 .996 -17.804 27.412)" fy="-9.967" fx="48.473"><stop offset="0" stop-color="#FBC670"/><stop offset=".449" stop-color="#FAAF3E"/><stop offset=".714" stop-color="#F17912"/></radialGradient><path fill="url(#v)" d="M35.4 17.22c-2.9 2.52-6.27 9.07-7.54 14.6-.77 3.38-.6 5.75.44 6.48l.3-.4c-.68-.48-1.1-2.3-.25-5.98 1.24-5.43 4.56-11.86 7.38-14.32.8-.7 1.44-1 1.93-.9l.1-.48c-.65-.15-1.4.17-2.36 1z"/></g><g><radialGradient cx="48.472" cy="-9.966" r="13.754" gradientUnits="userSpaceOnUse" gradientTransform="matrix(.996 .087 -.087 .996 -17.804 27.412)" fy="-9.966" fx="48.472"><stop offset="0" stop-color="#FBC670"/><stop offset=".449" stop-color="#FAAF3E"/><stop offset=".714" stop-color="#F17912"/></radialGradient><path fill="url(#w)" d="M31.25 17.82c-.1 1.22 1.63 2.33 3.95 2.53 2.32.2 4.22-.6 4.33-1.8.1-1.23-1.63-2.35-3.95-2.55-2.32-.2-4.22.6-4.33 1.82zm.5.04c.08-.9 1.8-1.54 3.78-1.36 1.98.17 3.58 1.1 3.5 2-.08.9-1.82 1.53-3.8 1.36-1.96-.18-3.56-1.1-3.48-2z"/></g><g><radialGradient cx="48.473" cy="-9.968" r="13.752" gradientUnits="userSpaceOnUse" gradientTransform="matrix(.996 .087 -.087 .996 -17.804 27.412)" fy="-9.968" fx="48.473"><stop offset="0" stop-color="#FBC670"/><stop offset=".449" stop-color="#FAAF3E"/><stop offset=".714" stop-color="#F17912"/></radialGradient><path fill="url(#x)" d="M30.26 16.56c-1.56.65-2.48 1.64-2.58 2.78-.2 2.3 3.02 4.47 7.18 4.83 2 .18 3.9-.08 5.38-.72 1.53-.65 2.43-1.65 2.53-2.8.2-2.24-3.1-4.43-7.18-4.8-1.96-.16-3.85.1-5.34.7zm-2.08 2.82c.08-.94.9-1.78 2.27-2.36 1.4-.58 3.26-.82 5.1-.66 3.75.33 6.9 2.3 6.73 4.25-.1.97-.88 1.8-2.24 2.4-1.4.6-3.22.84-5.13.68-3.88-.34-6.9-2.27-6.72-4.3z"/></g><g><radialGradient cx="48.472" cy="-9.967" r="13.753" gradientUnits="userSpaceOnUse" gradientTransform="matrix(.996 .087 -.087 .996 -17.804 27.412)" fy="-9.967" fx="48.472"><stop offset="0" stop-color="#FBC670"/><stop offset=".449" stop-color="#FAAF3E"/><stop offset=".714" stop-color="#F17912"/></radialGradient><path fill="url(#y)" d="M23.05 24.45c-.37 4.23 4.57 8.12 11 8.68l1.6.07v-.5l-1.56-.07c-6.17-.54-10.9-4.18-10.55-8.13.04-.46.16-.92.35-1.37l-.46-.2c-.2.5-.34 1-.4 1.52z"/></g><g><radialGradient cx="48.471" cy="-9.966" r="13.753" gradientUnits="userSpaceOnUse" gradientTransform="matrix(.996 .087 -.087 .996 -17.804 27.412)" fy="-9.966" fx="48.471"><stop offset="0" stop-color="#FBC670"/><stop offset=".449" stop-color="#FAAF3E"/><stop offset=".714" stop-color="#F17912"/></radialGradient><path fill="url(#z)" d="M45.66 24.67c.17.6.23 1.2.18 1.77-.3 3.63-4.6 6.26-10.18 6.26v.5c5.85 0 10.34-2.82 10.68-6.7.06-.66 0-1.32-.2-1.97l-.48.14z"/></g><g><radialGradient cx="48.473" cy="-9.968" r="13.752" gradientUnits="userSpaceOnUse" gradientTransform="matrix(.996 .087 -.087 .996 -17.804 27.412)" fy="-9.968" fx="48.473"><stop offset="0" stop-color="#FBC670"/><stop offset=".449" stop-color="#FAAF3E"/><stop offset=".714" stop-color="#F17912"/></radialGradient><path fill="url(#A)" d="M46.06 29.05c-.4 4.6-5.78 7.73-12.24 7.17-6.4-.56-11.3-4.68-10.9-9.2l-.5-.03c-.43 4.77 4.67 9.13 11.35 9.72 6.75.6 12.36-2.76 12.8-7.62l-.5-.05z"/></g><g><radialGradient cx="48.473" cy="-9.967" r="13.752" gradientUnits="userSpaceOnUse" gradientTransform="matrix(.996 .087 -.087 .996 -17.804 27.412)" fy="-9.967" fx="48.473"><stop offset="0" stop-color="#FBC670"/><stop offset=".449" stop-color="#FAAF3E"/><stop offset=".714" stop-color="#F17912"/></radialGradient><path fill="url(#B)" d="M23.2 32.27c1.4 3.6 5.54 6.28 10.34 6.7 4.52.4 8.7-1.18 10.86-4.1l-.4-.3c-2.07 2.78-6.06 4.28-10.42 3.9-4.6-.4-8.6-2.97-9.9-6.38l-.48.17z"/></g><g><radialGradient cx="48.469" cy="-9.967" r="13.753" gradientUnits="userSpaceOnUse" gradientTransform="matrix(.996 .087 -.087 .996 -17.804 27.412)" fy="-9.967" fx="48.469"><stop offset="0" stop-color="#FBC670"/><stop offset=".449" stop-color="#FAAF3E"/><stop offset=".714" stop-color="#F17912"/></radialGradient><path fill="url(#C)" d="M35.4 32.97c-.2 4.4-.58 6.34-.77 6.55l.1.46c.27 0 .82 0 1.18-7h-.5z"/></g><g opacity=".8"><radialGradient cx="48.471" cy="-9.967" r="13.754" gradientUnits="userSpaceOnUse" gradientTransform="matrix(.996 .087 -.087 .996 -17.804 27.412)" fy="-9.967" fx="48.471"><stop offset="0" stop-color="#FBC670"/><stop offset=".449" stop-color="#FAAF3E"/><stop offset=".714" stop-color="#F17912"/></radialGradient><path fill="url(#D)" d="M35.4 32.97l.5.02.17-5.1v-3.93h-.5v3.92z" opacity=".75"/></g><g><radialGradient cx="48.471" cy="-9.966" r="13.755" gradientUnits="userSpaceOnUse" gradientTransform="matrix(.996 .087 -.087 .996 -17.804 27.412)" fy="-9.966" fx="48.471"><stop offset="0" stop-color="#FBC670"/><stop offset=".449" stop-color="#FAAF3E"/><stop offset=".714" stop-color="#F17912"/></radialGradient><path fill="url(#E)" d="M35.02 15.78l-.1.46c.2.24.55 2.56.64 7.74h.5c-.14-8.2-.8-8.2-1.04-8.2z"/></g><g><radialGradient cx="48.472" cy="-9.967" r="13.752" gradientUnits="userSpaceOnUse" gradientTransform="matrix(.996 .087 -.087 .996 -17.804 27.412)" fy="-9.967" fx="48.472"><stop offset="0" stop-color="#FBC670"/><stop offset=".449" stop-color="#FAAF3E"/><stop offset=".714" stop-color="#F17912"/></radialGradient><path fill="url(#F)" d="M24.86 21.73c-.2 2.17 1.57 4.36 4.6 5.72l.2-.46c-2.82-1.27-4.47-3.27-4.3-5.23.07-.86.63-1.85 1.46-2.6l-.34-.37c-.93.84-1.53 1.94-1.62 2.93z"/></g><g opacity=".6"><radialGradient cx="48.472" cy="-9.965" r="13.753" gradientUnits="userSpaceOnUse" gradientTransform="matrix(.996 .087 -.087 .996 -17.804 27.412)" fy="-9.965" fx="48.472"><stop offset="0" stop-color="#FBC670"/><stop offset=".449" stop-color="#FAAF3E"/><stop offset=".714" stop-color="#F17912"/></radialGradient><path fill="url(#G)" d="M34.5 28.2c-1.72-.15-3.4-.57-4.83-1.2l-.2.45c1.48.66 3.2 1.1 5 1.25 2.7.24 5.28-.16 7.3-1.13l-.23-.45c-1.93.93-4.42 1.3-7.03 1.08z"/></g><g><radialGradient cx="48.466" cy="-9.967" r="13.758" gradientUnits="userSpaceOnUse" gradientTransform="matrix(.996 .087 -.087 .996 -17.804 27.412)" fy="-9.967" fx="48.466"><stop offset="0" stop-color="#FBC670"/><stop offset=".449" stop-color="#FAAF3E"/><stop offset=".714" stop-color="#F17912"/></radialGradient><path fill="url(#H)" d="M43.62 20.7c.74.9 1.1 1.85 1 2.76-.12 1.46-1.2 2.76-3.08 3.66l.22.45c2.03-.98 3.23-2.43 3.37-4.07.1-1.03-.3-2.1-1.13-3.12l-.38.32z"/></g><circle cx="34.494" cy="27.881" r="11.864" fill="none" stroke="#bf580f"/></g><path fill="none" stroke="#77ace6" stroke-width=".75" d="M2.88 6.84L28 1.4l17.14 9.88-2.44 25.76-24.92 9.75-12.8-15.4L2.9 6.84z"/><g transform="matrix(1.024 0 0 1.024 -7.624 -1.988)" opacity=".461"><circle cx="34.494" cy="27.881" r="11.864" fill="#fff"/><g><radialGradient cx="48.472" cy="-9.966" r="13.752" fx="48.472" fy="-9.966" gradientTransform="matrix(.996 .087 -.087 .996 -17.804 27.412)" gradientUnits="userSpaceOnUse"><stop offset="0" stop-color="#FBC670"/><stop offset=".449" stop-color="#FAAF3E"/><stop offset=".714" stop-color="#F17912"/></radialGradient><path fill="url(#I)" d="M33.87 17.83c-5.5 2.12-10.35 7.57-10.83 12.13-.08.84-.02 1.6.2 2.3l.47-.14c-.18-.63-.24-1.33-.16-2.1.46-4.4 5.18-9.66 10.5-11.73 2.6-1.02 5.02-1.1 6.63-.26l.24-.44c-1.76-.93-4.26-.85-7.03.23z"/></g><g><radialGradient cx="48.471" cy="-9.966" r="13.754" fx="48.471" fy="-9.966" gradientTransform="matrix(.996 .087 -.087 .996 -17.804 27.412)" gradientUnits="userSpaceOnUse"><stop offset="0" stop-color="#FBC670"/><stop offset=".449" stop-color="#FAAF3E"/><stop offset=".714" stop-color="#F17912"/></radialGradient><path fill="url(#J)" d="M35.35 17.25c-5.7-.17-10.84 2.57-12.25 6.52l.47.17c1.32-3.7 6.38-6.35 11.77-6.2 4.35.15 8.1 2.08 9.54 4.93l.44-.22c-1.52-3-5.43-5.05-9.97-5.2z"/></g><g><radialGradient cx="48.473" cy="-9.966" r="13.752" fx="48.473" fy="-9.966" gradientTransform="matrix(.996 .087 -.087 .996 -17.804 27.412)" gradientUnits="userSpaceOnUse"><stop offset="0" stop-color="#FBC670"/><stop offset=".449" stop-color="#FAAF3E"/><stop offset=".714" stop-color="#F17912"/></radialGradient><path fill="url(#K)" d="M27.1 18.3l.32.37c1.88-1.63 5.08-1.93 8.36-.8 5.57 1.95 10.1 7.13 10.1 11.55l-.14 1.38.48.12.17-1.5c-.02-4.7-4.6-9.97-10.46-12-3.44-1.2-6.83-.87-8.85.87z"/></g><g><radialGradient cx="48.473" cy="-9.966" r="13.752" fx="48.473" fy="-9.966" gradientTransform="matrix(.996 .087 -.087 .996 -17.804 27.412)" gradientUnits="userSpaceOnUse"><stop offset="0" stop-color="#FBC670"/><stop offset=".449" stop-color="#FAAF3E"/><stop offset=".714" stop-color="#F17912"/></radialGradient><path fill="url(#L)" d="M31.9 16.05l.1.5c.46-.12 1-.07 1.6.14 3.32 1.15 7.08 6.88 8.36 12.77.85 3.9.56 6.88-.8 7.94l.3.4c1.54-1.2 1.9-4.27 1-8.44-1.33-6.04-5.23-11.94-8.7-13.14-.7-.24-1.32-.3-1.87-.17z"/></g><g><radialGradient cx="48.473" cy="-9.967" r="13.752" fx="48.473" fy="-9.967" gradientTransform="matrix(.996 .087 -.087 .996 -17.804 27.412)" gradientUnits="userSpaceOnUse"><stop offset="0" stop-color="#FBC670"/><stop offset=".449" stop-color="#FAAF3E"/><stop offset=".714" stop-color="#F17912"/></radialGradient><path fill="url(#M)" d="M35.4 17.22c-2.9 2.52-6.27 9.07-7.54 14.6-.77 3.38-.6 5.75.44 6.48l.3-.4c-.68-.48-1.1-2.3-.25-5.98 1.24-5.43 4.56-11.86 7.38-14.32.8-.7 1.44-1 1.93-.9l.1-.48c-.65-.15-1.4.17-2.36 1z"/></g><g><radialGradient cx="48.472" cy="-9.966" r="13.754" fx="48.472" fy="-9.966" gradientTransform="matrix(.996 .087 -.087 .996 -17.804 27.412)" gradientUnits="userSpaceOnUse"><stop offset="0" stop-color="#FBC670"/><stop offset=".449" stop-color="#FAAF3E"/><stop offset=".714" stop-color="#F17912"/></radialGradient><path fill="url(#N)" d="M31.25 17.82c-.1 1.22 1.63 2.33 3.95 2.53 2.32.2 4.22-.6 4.33-1.8.1-1.23-1.63-2.35-3.95-2.55-2.32-.2-4.22.6-4.33 1.82zm.5.04c.08-.9 1.8-1.54 3.78-1.36 1.98.17 3.58 1.1 3.5 2-.08.9-1.82 1.53-3.8 1.36-1.96-.18-3.56-1.1-3.48-2z"/></g><g><radialGradient cx="48.473" cy="-9.968" r="13.752" fx="48.473" fy="-9.968" gradientTransform="matrix(.996 .087 -.087 .996 -17.804 27.412)" gradientUnits="userSpaceOnUse"><stop offset="0" stop-color="#FBC670"/><stop offset=".449" stop-color="#FAAF3E"/><stop offset=".714" stop-color="#F17912"/></radialGradient><path fill="url(#O)" d="M30.26 16.56c-1.56.65-2.48 1.64-2.58 2.78-.2 2.3 3.02 4.47 7.18 4.83 2 .18 3.9-.08 5.38-.72 1.53-.65 2.43-1.65 2.53-2.8.2-2.24-3.1-4.43-7.18-4.8-1.96-.16-3.85.1-5.34.7zm-2.08 2.82c.08-.94.9-1.78 2.27-2.36 1.4-.58 3.26-.82 5.1-.66 3.75.33 6.9 2.3 6.73 4.25-.1.97-.88 1.8-2.24 2.4-1.4.6-3.22.84-5.13.68-3.88-.34-6.9-2.27-6.72-4.3z"/></g><g><radialGradient cx="48.472" cy="-9.967" r="13.753" fx="48.472" fy="-9.967" gradientTransform="matrix(.996 .087 -.087 .996 -17.804 27.412)" gradientUnits="userSpaceOnUse"><stop offset="0" stop-color="#FBC670"/><stop offset=".449" stop-color="#FAAF3E"/><stop offset=".714" stop-color="#F17912"/></radialGradient><path fill="url(#P)" d="M23.05 24.45c-.37 4.23 4.57 8.12 11 8.68l1.6.07v-.5l-1.56-.07c-6.17-.54-10.9-4.18-10.55-8.13.04-.46.16-.92.35-1.37l-.46-.2c-.2.5-.34 1-.4 1.52z"/></g><g><radialGradient cx="48.471" cy="-9.966" r="13.753" fx="48.471" fy="-9.966" gradientTransform="matrix(.996 .087 -.087 .996 -17.804 27.412)" gradientUnits="userSpaceOnUse"><stop offset="0" stop-color="#FBC670"/><stop offset=".449" stop-color="#FAAF3E"/><stop offset=".714" stop-color="#F17912"/></radialGradient><path fill="url(#Q)" d="M45.66 24.67c.17.6.23 1.2.18 1.77-.3 3.63-4.6 6.26-10.18 6.26v.5c5.85 0 10.34-2.82 10.68-6.7.06-.66 0-1.32-.2-1.97l-.48.14z"/></g><g><radialGradient cx="48.473" cy="-9.968" r="13.752" fx="48.473" fy="-9.968" gradientTransform="matrix(.996 .087 -.087 .996 -17.804 27.412)" gradientUnits="userSpaceOnUse"><stop offset="0" stop-color="#FBC670"/><stop offset=".449" stop-color="#FAAF3E"/><stop offset=".714" stop-color="#F17912"/></radialGradient><path fill="url(#R)" d="M46.06 29.05c-.4 4.6-5.78 7.73-12.24 7.17-6.4-.56-11.3-4.68-10.9-9.2l-.5-.03c-.43 4.77 4.67 9.13 11.35 9.72 6.75.6 12.36-2.76 12.8-7.62l-.5-.05z"/></g><g><radialGradient cx="48.473" cy="-9.967" r="13.752" fx="48.473" fy="-9.967" gradientTransform="matrix(.996 .087 -.087 .996 -17.804 27.412)" gradientUnits="userSpaceOnUse"><stop offset="0" stop-color="#FBC670"/><stop offset=".449" stop-color="#FAAF3E"/><stop offset=".714" stop-color="#F17912"/></radialGradient><path fill="url(#S)" d="M23.2 32.27c1.4 3.6 5.54 6.28 10.34 6.7 4.52.4 8.7-1.18 10.86-4.1l-.4-.3c-2.07 2.78-6.06 4.28-10.42 3.9-4.6-.4-8.6-2.97-9.9-6.38l-.48.17z"/></g><g><radialGradient cx="48.469" cy="-9.967" r="13.753" fx="48.469" fy="-9.967" gradientTransform="matrix(.996 .087 -.087 .996 -17.804 27.412)" gradientUnits="userSpaceOnUse"><stop offset="0" stop-color="#FBC670"/><stop offset=".449" stop-color="#FAAF3E"/><stop offset=".714" stop-color="#F17912"/></radialGradient><path fill="url(#T)" d="M35.4 32.97c-.2 4.4-.58 6.34-.77 6.55l.1.46c.27 0 .82 0 1.18-7h-.5z"/></g><g opacity=".8"><radialGradient cx="48.471" cy="-9.967" r="13.754" fx="48.471" fy="-9.967" gradientTransform="matrix(.996 .087 -.087 .996 -17.804 27.412)" gradientUnits="userSpaceOnUse"><stop offset="0" stop-color="#FBC670"/><stop offset=".449" stop-color="#FAAF3E"/><stop offset=".714" stop-color="#F17912"/></radialGradient><path fill="url(#U)" d="M35.56 23.98v3.9l-.15 5.1h.5l.17-5.08v-3.93h-.5z" opacity=".75"/></g><g><radialGradient cx="48.471" cy="-9.966" r="13.755" fx="48.471" fy="-9.966" gradientTransform="matrix(.996 .087 -.087 .996 -17.804 27.412)" gradientUnits="userSpaceOnUse"><stop offset="0" stop-color="#FBC670"/><stop offset=".449" stop-color="#FAAF3E"/><stop offset=".714" stop-color="#F17912"/></radialGradient><path fill="url(#V)" d="M35.02 15.78l-.1.46c.2.24.55 2.56.64 7.74h.5c-.14-8.2-.8-8.2-1.04-8.2z"/></g><g><radialGradient cx="48.472" cy="-9.967" r="13.752" fx="48.472" fy="-9.967" gradientTransform="matrix(.996 .087 -.087 .996 -17.804 27.412)" gradientUnits="userSpaceOnUse"><stop offset="0" stop-color="#FBC670"/><stop offset=".449" stop-color="#FAAF3E"/><stop offset=".714" stop-color="#F17912"/></radialGradient><path fill="url(#W)" d="M24.86 21.73c-.2 2.17 1.57 4.36 4.6 5.72l.2-.46c-2.82-1.27-4.47-3.27-4.3-5.23.07-.86.63-1.85 1.46-2.6l-.34-.37c-.93.84-1.53 1.94-1.62 2.93z"/></g><g opacity=".6"><radialGradient cx="48.472" cy="-9.965" r="13.753" fx="48.472" fy="-9.965" gradientTransform="matrix(.996 .087 -.087 .996 -17.804 27.412)" gradientUnits="userSpaceOnUse"><stop offset="0" stop-color="#FBC670"/><stop offset=".449" stop-color="#FAAF3E"/><stop offset=".714" stop-color="#F17912"/></radialGradient><path fill="url(#X)" d="M34.5 28.2c-1.72-.15-3.4-.57-4.83-1.2l-.2.45c1.48.66 3.2 1.1 5 1.25 2.7.24 5.28-.16 7.3-1.13l-.23-.45c-1.93.93-4.42 1.3-7.03 1.08z"/></g><g><radialGradient cx="48.466" cy="-9.967" r="13.758" fx="48.466" fy="-9.967" gradientTransform="matrix(.996 .087 -.087 .996 -17.804 27.412)" gradientUnits="userSpaceOnUse"><stop offset="0" stop-color="#FBC670"/><stop offset=".449" stop-color="#FAAF3E"/><stop offset=".714" stop-color="#F17912"/></radialGradient><path fill="url(#Y)" d="M43.62 20.7c.74.9 1.1 1.85 1 2.76-.12 1.46-1.2 2.76-3.08 3.66l.22.45c2.03-.98 3.23-2.43 3.37-4.07.1-1.03-.3-2.1-1.13-3.12l-.38.32z"/></g><circle cx="34.494" cy="27.881" r="11.864" fill="none" stroke="#bf580f"/></g><g fill="none" stroke="#d3d7cf" stroke-width="2" transform="translate(.962 -165.891)"><path d="M22.33 190.4v2.18"/><path d="M22.33 183.84v2.2"/><path d="M26.7 188.2h-2.2"/><path d="M20.14 188.2h-2.18"/><circle cx="22.329" cy="188.212" r="2.184"/></g><g transform="matrix(1.024 0 0 1.024 -12.552 -6.202)"><circle cx="34.494" cy="27.881" r="11.864" fill="#fff"/><g><radialGradient cx="48.472" cy="-9.966" r="13.752" gradientUnits="userSpaceOnUse" gradientTransform="matrix(.996 .087 -.087 .996 -17.804 27.412)" fy="-9.966" fx="48.472"><stop offset="0" stop-color="#FBC670"/><stop offset=".449" stop-color="#FAAF3E"/><stop offset=".714" stop-color="#F17912"/></radialGradient><path fill="url(#Z)" d="M33.87 17.83c-5.5 2.12-10.35 7.57-10.83 12.13-.08.84-.02 1.6.2 2.3l.47-.14c-.18-.63-.24-1.33-.16-2.1.46-4.4 5.18-9.66 10.5-11.73 2.6-1.02 5.02-1.1 6.63-.26l.24-.44c-1.76-.93-4.26-.85-7.03.23z"/></g><g><radialGradient cx="48.471" cy="-9.966" r="13.754" gradientUnits="userSpaceOnUse" gradientTransform="matrix(.996 .087 -.087 .996 -17.804 27.412)" fy="-9.966" fx="48.471"><stop offset="0" stop-color="#FBC670"/><stop offset=".449" stop-color="#FAAF3E"/><stop offset=".714" stop-color="#F17912"/></radialGradient><path fill="url(#aa)" d="M35.35 17.25c-5.7-.17-10.84 2.57-12.25 6.52l.47.17c1.32-3.7 6.38-6.35 11.77-6.2 4.35.15 8.1 2.08 9.54 4.93l.44-.22c-1.52-3-5.43-5.05-9.97-5.2z"/></g><g><radialGradient cx="48.473" cy="-9.966" r="13.752" gradientUnits="userSpaceOnUse" gradientTransform="matrix(.996 .087 -.087 .996 -17.804 27.412)" fy="-9.966" fx="48.473"><stop offset="0" stop-color="#FBC670"/><stop offset=".449" stop-color="#FAAF3E"/><stop offset=".714" stop-color="#F17912"/></radialGradient><path fill="url(#ab)" d="M27.1 18.3l.32.37c1.88-1.63 5.08-1.93 8.36-.8 5.57 1.95 10.1 7.13 10.1 11.55l-.14 1.38.48.12.17-1.5c-.02-4.7-4.6-9.97-10.46-12-3.44-1.2-6.83-.87-8.85.87z"/></g><g><radialGradient cx="48.473" cy="-9.966" r="13.752" gradientUnits="userSpaceOnUse" gradientTransform="matrix(.996 .087 -.087 .996 -17.804 27.412)" fy="-9.966" fx="48.473"><stop offset="0" stop-color="#FBC670"/><stop offset=".449" stop-color="#FAAF3E"/><stop offset=".714" stop-color="#F17912"/></radialGradient><path fill="url(#ac)" d="M31.9 16.05l.1.5c.46-.12 1-.07 1.6.14 3.32 1.15 7.08 6.88 8.36 12.77.85 3.9.56 6.88-.8 7.94l.3.4c1.54-1.2 1.9-4.27 1-8.44-1.33-6.04-5.23-11.94-8.7-13.14-.7-.24-1.32-.3-1.87-.17z"/></g><g><radialGradient cx="48.473" cy="-9.967" r="13.752" gradientUnits="userSpaceOnUse" gradientTransform="matrix(.996 .087 -.087 .996 -17.804 27.412)" fy="-9.967" fx="48.473"><stop offset="0" stop-color="#FBC670"/><stop offset=".449" stop-color="#FAAF3E"/><stop offset=".714" stop-color="#F17912"/></radialGradient><path fill="url(#ad)" d="M35.4 17.22c-2.9 2.52-6.27 9.07-7.54 14.6-.77 3.38-.6 5.75.44 6.48l.3-.4c-.68-.48-1.1-2.3-.25-5.98 1.24-5.43 4.56-11.86 7.38-14.32.8-.7 1.44-1 1.93-.9l.1-.48c-.65-.15-1.4.17-2.36 1z"/></g><g><radialGradient cx="48.472" cy="-9.966" r="13.754" gradientUnits="userSpaceOnUse" gradientTransform="matrix(.996 .087 -.087 .996 -17.804 27.412)" fy="-9.966" fx="48.472"><stop offset="0" stop-color="#FBC670"/><stop offset=".449" stop-color="#FAAF3E"/><stop offset=".714" stop-color="#F17912"/></radialGradient><path fill="url(#ae)" d="M31.25 17.82c-.1 1.22 1.63 2.33 3.95 2.53 2.32.2 4.22-.6 4.33-1.8.1-1.23-1.63-2.35-3.95-2.55-2.32-.2-4.22.6-4.33 1.82zm.5.04c.08-.9 1.8-1.54 3.78-1.36 1.98.17 3.58 1.1 3.5 2-.08.9-1.82 1.53-3.8 1.36-1.96-.18-3.56-1.1-3.48-2z"/></g><g><radialGradient cx="48.473" cy="-9.968" r="13.752" gradientUnits="userSpaceOnUse" gradientTransform="matrix(.996 .087 -.087 .996 -17.804 27.412)" fy="-9.968" fx="48.473"><stop offset="0" stop-color="#FBC670"/><stop offset=".449" stop-color="#FAAF3E"/><stop offset=".714" stop-color="#F17912"/></radialGradient><path fill="url(#af)" d="M30.26 16.56c-1.56.65-2.48 1.64-2.58 2.78-.2 2.3 3.02 4.47 7.18 4.83 2 .18 3.9-.08 5.38-.72 1.53-.65 2.43-1.65 2.53-2.8.2-2.24-3.1-4.43-7.18-4.8-1.96-.16-3.85.1-5.34.7zm-2.08 2.82c.08-.94.9-1.78 2.27-2.36 1.4-.58 3.26-.82 5.1-.66 3.75.33 6.9 2.3 6.73 4.25-.1.97-.88 1.8-2.24 2.4-1.4.6-3.22.84-5.13.68-3.88-.34-6.9-2.27-6.72-4.3z"/></g><g><radialGradient cx="48.472" cy="-9.967" r="13.753" gradientUnits="userSpaceOnUse" gradientTransform="matrix(.996 .087 -.087 .996 -17.804 27.412)" fy="-9.967" fx="48.472"><stop offset="0" stop-color="#FBC670"/><stop offset=".449" stop-color="#FAAF3E"/><stop offset=".714" stop-color="#F17912"/></radialGradient><path fill="url(#ag)" d="M23.05 24.45c-.37 4.23 4.57 8.12 11 8.68l1.6.07v-.5l-1.56-.07c-6.17-.54-10.9-4.18-10.55-8.13.04-.46.16-.92.35-1.37l-.46-.2c-.2.5-.34 1-.4 1.52z"/></g><g><radialGradient cx="48.471" cy="-9.966" r="13.753" gradientUnits="userSpaceOnUse" gradientTransform="matrix(.996 .087 -.087 .996 -17.804 27.412)" fy="-9.966" fx="48.471"><stop offset="0" stop-color="#FBC670"/><stop offset=".449" stop-color="#FAAF3E"/><stop offset=".714" stop-color="#F17912"/></radialGradient><path fill="url(#ah)" d="M45.66 24.67c.17.6.23 1.2.18 1.77-.3 3.63-4.6 6.26-10.18 6.26v.5c5.85 0 10.34-2.82 10.68-6.7.06-.66 0-1.32-.2-1.97l-.48.14z"/></g><g><radialGradient cx="48.473" cy="-9.968" r="13.752" gradientUnits="userSpaceOnUse" gradientTransform="matrix(.996 .087 -.087 .996 -17.804 27.412)" fy="-9.968" fx="48.473"><stop offset="0" stop-color="#FBC670"/><stop offset=".449" stop-color="#FAAF3E"/><stop offset=".714" stop-color="#F17912"/></radialGradient><path fill="url(#ai)" d="M46.06 29.05c-.4 4.6-5.78 7.73-12.24 7.17-6.4-.56-11.3-4.68-10.9-9.2l-.5-.03c-.43 4.77 4.67 9.13 11.35 9.72 6.75.6 12.36-2.76 12.8-7.62l-.5-.05z"/></g><g><radialGradient cx="48.473" cy="-9.967" r="13.752" gradientUnits="userSpaceOnUse" gradientTransform="matrix(.996 .087 -.087 .996 -17.804 27.412)" fy="-9.967" fx="48.473"><stop offset="0" stop-color="#FBC670"/><stop offset=".449" stop-color="#FAAF3E"/><stop offset=".714" stop-color="#F17912"/></radialGradient><path fill="url(#aj)" d="M23.2 32.27c1.4 3.6 5.54 6.28 10.34 6.7 4.52.4 8.7-1.18 10.86-4.1l-.4-.3c-2.07 2.78-6.06 4.28-10.42 3.9-4.6-.4-8.6-2.97-9.9-6.38l-.48.17z"/></g><g><radialGradient cx="48.469" cy="-9.967" r="13.753" gradientUnits="userSpaceOnUse" gradientTransform="matrix(.996 .087 -.087 .996 -17.804 27.412)" fy="-9.967" fx="48.469"><stop offset="0" stop-color="#FBC670"/><stop offset=".449" stop-color="#FAAF3E"/><stop offset=".714" stop-color="#F17912"/></radialGradient><path fill="url(#ak)" d="M35.4 32.97c-.2 4.4-.58 6.34-.77 6.55l.1.46c.27 0 .82 0 1.18-7h-.5z"/></g><g opacity=".8"><radialGradient cx="48.471" cy="-9.967" r="13.754" gradientUnits="userSpaceOnUse" gradientTransform="matrix(.996 .087 -.087 .996 -17.804 27.412)" fy="-9.967" fx="48.471"><stop offset="0" stop-color="#FBC670"/><stop offset=".449" stop-color="#FAAF3E"/><stop offset=".714" stop-color="#F17912"/></radialGradient><path fill="url(#al)" d="M36.06 23.97h-.5v3.92l-.15 5.07.5.02.17-5.1z" opacity=".75"/></g><g><radialGradient cx="48.471" cy="-9.966" r="13.755" gradientUnits="userSpaceOnUse" gradientTransform="matrix(.996 .087 -.087 .996 -17.804 27.412)" fy="-9.966" fx="48.471"><stop offset="0" stop-color="#FBC670"/><stop offset=".449" stop-color="#FAAF3E"/><stop offset=".714" stop-color="#F17912"/></radialGradient><path fill="url(#am)" d="M35.02 15.78l-.1.46c.2.24.55 2.56.64 7.74h.5c-.14-8.2-.8-8.2-1.04-8.2z"/></g><g><radialGradient cx="48.472" cy="-9.967" r="13.752" gradientUnits="userSpaceOnUse" gradientTransform="matrix(.996 .087 -.087 .996 -17.804 27.412)" fy="-9.967" fx="48.472"><stop offset="0" stop-color="#FBC670"/><stop offset=".449" stop-color="#FAAF3E"/><stop offset=".714" stop-color="#F17912"/></radialGradient><path fill="url(#an)" d="M24.86 21.73c-.2 2.17 1.57 4.36 4.6 5.72l.2-.46c-2.82-1.27-4.47-3.27-4.3-5.23.07-.86.63-1.85 1.46-2.6l-.34-.37c-.93.84-1.53 1.94-1.62 2.93z"/></g><g opacity=".6"><radialGradient cx="48.472" cy="-9.965" r="13.753" gradientUnits="userSpaceOnUse" gradientTransform="matrix(.996 .087 -.087 .996 -17.804 27.412)" fy="-9.965" fx="48.472"><stop offset="0" stop-color="#FBC670"/><stop offset=".449" stop-color="#FAAF3E"/><stop offset=".714" stop-color="#F17912"/></radialGradient><path fill="url(#ao)" d="M34.5 28.2c-1.72-.15-3.4-.57-4.83-1.2l-.2.45c1.48.66 3.2 1.1 5 1.25 2.7.24 5.28-.16 7.3-1.13l-.23-.45c-1.93.93-4.42 1.3-7.03 1.08z"/></g><g><radialGradient cx="48.466" cy="-9.967" r="13.758" gradientUnits="userSpaceOnUse" gradientTransform="matrix(.996 .087 -.087 .996 -17.804 27.412)" fy="-9.967" fx="48.466"><stop offset="0" stop-color="#FBC670"/><stop offset=".449" stop-color="#FAAF3E"/><stop offset=".714" stop-color="#F17912"/></radialGradient><path fill="url(#ap)" d="M43.62 20.7c.74.9 1.1 1.85 1 2.76-.12 1.46-1.2 2.76-3.08 3.66l.22.45c2.03-.98 3.23-2.43 3.37-4.07.1-1.03-.3-2.1-1.13-3.12l-.38.32z"/></g><circle cx="34.494" cy="27.881" r="11.864" fill="none" stroke="#bf580f"/></g><g fill="none" stroke="#ed2728" transform="translate(.962 -165.891)"><path d="M22.33 190.4v2.18"/><path d="M22.33 183.84v2.2"/><path d="M26.7 188.2h-2.2"/><path d="M20.14 188.2h-2.18"/><circle cx="22.329" cy="188.212" r="2.184"/></g><path fill="none" stroke="#77ace6" stroke-width=".75" d="M16.82 19.22l28.3-7.94"/><path fill="none" stroke="#77ace6" stroke-width=".75" d="M2.88 6.84l13.94 12.38.96 27.57"/><g fill="none" stroke="#cb1009" stroke-width="2.062"><path d="M4.6 27.08L5 31.4l2.13 2.56"/><path d="M15.1 43.57l2.68 3.22 4.25-1.67"/><path d="M38.85 38.55l3.85-1.5.38-4.04"/><path d="M44.7 16.02l.44-4.74L41.2 9"/><path d="M30.84 3.03L28 1.4l-3.95.85"/><path d="M7.52 5.83l-4.65 1 .4 4.48"/><path d="M13.98 16.7l2.84 2.52 4.82-1.35"/><path d="M17 24.5l-.18-5.28"/><path d="M17.62 42.26l.16 4.53"/><path d="M2.87 6.84L5.42 9.1"/></g></g></svg>