<svg xmlns="http://www.w3.org/2000/svg" width="48" height="48" xmlns:xlink="http://www.w3.org/1999/xlink" version="1" viewBox="0 0 612 792" enable-background="new 0 0 612 792"><defs><linearGradient id="a"><stop offset="0" stop-color="#a3dfff"/><stop offset="1" stop-color="#10acff"/></linearGradient><radialGradient cx="333.089" cy="392.651" r="0" gradientUnits="userSpaceOnUse" gradientTransform="matrix(.931 -.365 .365 .931 -122.323 137.273)"><stop offset=".574" stop-color="#FFF200" stop-opacity="0"/><stop offset=".798" stop-color="#FFF200" stop-opacity=".651"/><stop offset="1" stop-color="#FFF200" stop-opacity=".95"/></radialGradient><radialGradient cx="279.663" cy="373.675" r="0" gradientUnits="userSpaceOnUse" gradientTransform="matrix(.931 -.365 .365 .931 -122.323 137.273)"><stop offset=".574" stop-color="#FFF200" stop-opacity="0"/><stop offset=".798" stop-color="#FFF200" stop-opacity=".651"/><stop offset="1" stop-color="#FFF200" stop-opacity=".95"/></radialGradient><radialGradient id="b" cx="195.666" cy="293.694" r="395.018" xlink:href="#a" fx="195.666" fy="293.694" gradientTransform="matrix(1.19 .014 -.013 1.094 -39.489 -34.24)" gradientUnits="userSpaceOnUse"/></defs><path fill="url(#b)" stroke="#007ead" stroke-width="25.618" d="M305.36 778.12c-210.76 0-382.2-171.46-382.2-382.23 0-210.76 171.44-382.22 382.2-382.22 210.73 0 382.2 171.46 382.2 382.2 0 210.78-171.47 382.24-382.2 382.24z"/><circle cx="222.327" cy="420.166" r="21.568" fill="none" stroke="#eaf5fb" stroke-width="1.2" transform="matrix(17.079 0 0 17.079 -3491.749 -6780.092)"/><g><path fill="#ddecc9" d="M251.27 43.1l12.02 16.4 2.14 15.67 1.63 22.62 12.62 17.72 16.14 13.8 10.2 18.7 14.5 14.83 18.27 10.67 12.8 14 18.35 4.12 18.17 1.05 18.33-3.33 15.45-10.14 14.2-9.07 15.2 2.97 13.57 11.84 10.06 20.78 9.46 19.9 8.18 15.83 17.18 6.3 15.13 9.98 4.87-12.44-20.66-7.87-11.1-18.38-4.67-16.87-5.6-16.62-6.53-16.1-16.96-15.67-20.05-11.6-20.78 5.72-22.68-.24-3.3-20.32 10.32-15.65 17.64-5.26 18.77 1.84 18.38-4.25 18.57 1.2 21.33 2.45 20.83 9.06-18.66-11.82-14.3-15.44-18.14-9.86-19.76-6.45-17.14-11.84-20.02-5.2-19.83-4.9-19.66-5.5-19.7-6.6-20.74.58-20.5-1.6-20.47 1.6-20.33 3.13-22.76.28z"/><path fill="none" stroke="#44602d" stroke-width="6.832" d="M251.27 43.1l12.02 16.4 2.14 15.67 1.63 22.62 12.62 17.72 16.14 13.8 10.2 18.7 14.5 14.83 18.27 10.67 12.8 14 18.35 4.12 18.17 1.05 18.33-3.33 15.45-10.14 14.2-9.07 15.2 2.97 13.57 11.84 10.06 20.78 9.46 19.9 8.18 15.83 17.18 6.3 15.13 9.98 4.87-12.44-20.66-7.87-11.1-18.38-4.67-16.87-5.6-16.62-6.53-16.1-16.96-15.67-20.05-11.6-20.78 5.72-22.68-.24-3.3-20.32 10.32-15.65 17.64-5.26 18.77 1.84 18.38-4.25 18.57 1.2 21.33 2.45 20.83 9.06-18.66-11.82-14.3-15.44-18.14-9.86-19.76-6.45-17.14-11.84-20.02-5.2-19.83-4.9-19.66-5.5-19.7-6.6-20.74.58-20.5-1.6-20.47 1.6-20.33 3.13-22.76.28z"/></g><g><path fill="#ddecc9" d="M538.93 251.62l22.44-4.7 22.08 2.83 21.06 7.77 21.12-.52 16.8 11.86 7.9 22.8 5.8 23.94 1.73 21.66-.67 21.64-5.02 21.1-2.95 21.36-3.8 21.28-4.53 19.2-4.88 19.2-4.74 18.98-8.78 18.3-.05 20.1-6.6-8.2 1.93-18.6-1.36-18.16 3.57-18.05 6.6-19.44.9-20.84-7.76-19.52-12.44-16.14-13.8-15.1-13.2-13.75-18.48 4.57-19.2.9-18.8 3.15-12.52-14.63-12.4-16.12-9.53-17.9 4.58-18.84 14.2-13.97 16.02-12.4 14.8-13.75z"/><path fill="none" stroke="#44602d" stroke-width="6.832" d="M538.93 251.62l22.44-4.7 22.08 2.83 21.06 7.77 21.12-.52 16.8 11.86 7.9 22.8 5.8 23.94 1.73 21.66-.67 21.64-5.02 21.1-2.95 21.36-3.8 21.28-4.53 19.2-4.88 19.2-4.74 18.98-8.78 18.3-.05 20.1-6.6-8.2 1.93-18.6-1.36-18.16 3.57-18.05 6.6-19.44.9-20.84-7.76-19.52-12.44-16.14-13.8-15.1-13.2-13.75-18.48 4.57-19.2.9-18.8 3.15-12.52-14.63-12.4-16.12-9.53-17.9 4.58-18.84 14.2-13.97 16.02-12.4 14.8-13.75z"/></g><g><path fill="#ddecc9" d="M-20.9 539.6l5.84-23.24 15.76-.13 16.9 2.4 14.63 8.34L47 541.2l14.13 15.03L74.7 571.8l8.77 18.7-19.58 7.25-21.47.08-25.33 6L5.72 588.6-5.92 573.7l-9.86-16.22-5.1-17.85z"/><path fill="none" stroke="#44602d" stroke-width="6.832" d="M-20.9 539.6l5.84-23.24 15.76-.13 16.9 2.4 14.63 8.34L47 541.2l14.13 15.03L74.7 571.8l8.77 18.7-19.58 7.25-21.47.08-25.33 6L5.72 588.6-5.92 573.7l-9.86-16.22-5.1-17.85z"/></g><g><path fill="#ddecc9" d="M205.38 54l-8.9 21.63-20.4 4.3-17.43 10.2-17.63 8.47-17.23 8.7-17.74 7.68-17.98 6.67-20.34 12.54-17.3 16.08 11.32-14.98 14.7-14.8 16.25-13.16 16.97-12.23 18.17-10.37 19.62-7.45 18.1-10.43 19.5-7.62L205.4 54z"/><path fill="none" stroke="#44602d" stroke-width="6.832" d="M205.38 54l-8.9 21.63-20.4 4.3-17.43 10.2-17.63 8.47-17.23 8.7-17.74 7.68-17.98 6.67-20.34 12.54-17.3 16.08 11.32-14.98 14.7-14.8 16.25-13.16 16.97-12.23 18.17-10.37 19.62-7.45 18.1-10.43 19.5-7.62L205.4 54z"/></g></svg>