<svg xmlns="http://www.w3.org/2000/svg" width="48" height="48" xmlns:xlink="http://www.w3.org/1999/xlink"><defs><linearGradient id="f"><stop offset="0" stop-color="#3465a4"/><stop offset="1" stop-color="#c2deea"/></linearGradient><linearGradient><stop offset="0" stop-color="#3465a4"/><stop offset="1" stop-color="#3465a4"/></linearGradient><linearGradient id="d"><stop offset="0" stop-color="#c7dfe0"/><stop offset="1" stop-color="#b1efff" stop-opacity="0"/></linearGradient><linearGradient id="b"><stop offset="0" stop-color="#2f4664"/><stop offset="1" stop-color="#3e5d84" stop-opacity="0"/></linearGradient><linearGradient id="a"><stop offset="0" stop-color="#fff"/><stop offset="1" stop-color="#fff" stop-opacity="0"/></linearGradient><linearGradient id="c"><stop offset="0" stop-color="#b8c7d9"/><stop offset=".321" stop-color="#54769c"/><stop offset=".491" stop-color="#b8c8d9"/><stop offset=".691" stop-color="#54769c"/><stop offset="1" stop-color="#b8c8d9"/></linearGradient><radialGradient cx="24.277" cy="30.201" r="7.528" xlink:href="#a" gradientUnits="userSpaceOnUse" gradientTransform="matrix(1 0 0 .295 0 21.304)" fx="24.277" fy="30.201"/><radialGradient cx="24.277" cy="30.201" r="7.528" xlink:href="#a" gradientUnits="userSpaceOnUse" gradientTransform="matrix(1 0 0 .295 0 21.304)" fx="24.277" fy="30.201"/><radialGradient cx="19.998" cy="41.295" r="5.494" xlink:href="#b" gradientUnits="userSpaceOnUse" gradientTransform="matrix(1.371 0 0 -.363 -3.148 41.369)" fx="19.998" fy="41.295"/><radialGradient cx="19.998" cy="41.295" r="5.494" xlink:href="#b" gradientUnits="userSpaceOnUse" gradientTransform="matrix(.83 0 0 .363 7.717 6.189)" fx="19.998" fy="41.295"/><radialGradient cx="23.402" cy="37.269" r="24.405" xlink:href="#c" gradientUnits="userSpaceOnUse" gradientTransform="matrix(1 0 0 .573 0 1.625)" spreadMethod="pad" fx="23.402" fy="37.269"/><radialGradient cx="24.277" cy="30.201" r="7.528" xlink:href="#a" gradientUnits="userSpaceOnUse" gradientTransform="matrix(1 0 0 .295 0 21.304)" fx="24.277" fy="30.201"/><radialGradient cx="23.402" cy="37.269" r="24.405" xlink:href="#c" gradientUnits="userSpaceOnUse" gradientTransform="matrix(1 0 0 .573 0 1.625)" spreadMethod="pad" fx="23.402" fy="37.269"/><radialGradient cx="24.277" cy="30.201" r="7.528" xlink:href="#a" gradientUnits="userSpaceOnUse" gradientTransform="matrix(1 0 0 .295 0 21.304)" fx="24.277" fy="30.201"/><radialGradient cx="19.998" cy="41.295" r="5.494" xlink:href="#b" gradientUnits="userSpaceOnUse" gradientTransform="matrix(.83 0 0 .363 7.717 6.189)" fx="19.998" fy="41.295"/><radialGradient cx="19.998" cy="41.295" r="5.494" xlink:href="#b" gradientUnits="userSpaceOnUse" gradientTransform="matrix(1.371 0 0 -.363 -3.148 41.369)" fx="19.998" fy="41.295"/><linearGradient x1="14.236" x2="4.506" y1="19.527" y2="19.201" xlink:href="#d" gradientUnits="userSpaceOnUse"/><linearGradient x1="14.236" x2="4.506" y1="19.527" y2="19.201" xlink:href="#d" gradientUnits="userSpaceOnUse" gradientTransform="translate(9.534 -3.984)"/><linearGradient x1="14.236" x2="4.506" y1="19.527" y2="19.201" xlink:href="#d" gradientUnits="userSpaceOnUse" gradientTransform="translate(17.24 -5.943)"/><linearGradient x1="12.865" x2="6.269" y1="22.205" y2="16.458" xlink:href="#d" gradientUnits="userSpaceOnUse" gradientTransform="translate(17.893 1.959)"/><linearGradient x1="14.171" x2="4.963" y1="18.156" y2="13.258" xlink:href="#d" gradientUnits="userSpaceOnUse" gradientTransform="translate(25.599)"/><linearGradient x1="2.024" x2="-4.506" y1="27.625" y2="21.356" xlink:href="#e" gradientUnits="userSpaceOnUse" gradientTransform="translate(17.893 1.959)"/><linearGradient id="e"><stop offset="0" stop-color="#c7dfe0"/><stop offset="1" stop-color="#b1efff" stop-opacity="0"/></linearGradient><linearGradient x1="14.236" x2="4.506" y1="19.527" y2="19.201" gradientTransform="translate(2.087 -14.893)" gradientUnits="userSpaceOnUse" xlink:href="#e"/><linearGradient x1="6.792" x2="3.069" y1="25.862" y2="20.376" xlink:href="#d" gradientUnits="userSpaceOnUse" gradientTransform="translate(29.452 3.918)"/><linearGradient x1="37.289" x2="48.064" y1="19.135" y2="21.944" xlink:href="#f" gradientUnits="userSpaceOnUse"/><linearGradient id="g"><stop offset="0" stop-color="#3465a4"/><stop offset="1" stop-color="#3465a4" stop-opacity="0"/></linearGradient><linearGradient x1="36.636" x2="48.064" y1="19.005" y2="21.944" gradientTransform="translate(-36.443 -14.175)" gradientUnits="userSpaceOnUse" xlink:href="#g"/><linearGradient x1="20.832" x2="26.71" y1="29.127" y2="35.2" xlink:href="#f" gradientUnits="userSpaceOnUse"/><linearGradient id="h" x1="14.236" x2="4.506" y1="19.527" y2="19.201" xlink:href="#d" gradientUnits="userSpaceOnUse"/><linearGradient id="i" x1="14.236" x2="4.506" y1="19.527" y2="19.201" xlink:href="#d" gradientUnits="userSpaceOnUse" gradientTransform="translate(9.534 -3.984)"/><linearGradient id="j" x1="14.236" x2="4.506" y1="19.527" y2="19.201" xlink:href="#d" gradientUnits="userSpaceOnUse" gradientTransform="translate(17.24 -5.943)"/><linearGradient id="k" x1="2.024" x2="-4.506" y1="27.625" y2="21.356" xlink:href="#e" gradientUnits="userSpaceOnUse" gradientTransform="translate(17.893 1.959)"/><linearGradient id="l" x1="12.865" x2="6.269" y1="22.205" y2="16.458" xlink:href="#d" gradientUnits="userSpaceOnUse" gradientTransform="translate(17.893 1.959)"/><linearGradient id="m" x1="14.171" x2="4.963" y1="18.156" y2="13.258" xlink:href="#d" gradientUnits="userSpaceOnUse" gradientTransform="translate(25.599)"/><linearGradient id="n" x1="20.832" x2="26.71" y1="29.127" y2="35.2" xlink:href="#f" gradientUnits="userSpaceOnUse"/><linearGradient id="o" x1="6.792" x2="3.069" y1="25.862" y2="20.376" xlink:href="#d" gradientUnits="userSpaceOnUse" gradientTransform="translate(29.452 3.918)"/><linearGradient id="p" x1="37.289" x2="48.064" y1="19.135" y2="21.944" xlink:href="#f" gradientUnits="userSpaceOnUse"/></defs><g><g><path fill="#729fcf" d="M24 9.1c2.06 1.8 5.08 1.9 6.67 1.27 2.85 4.76 5.62 6.3 11.4 4.35 1.13 4.32 1.76 6.33 5.67 7.35-2.22 1.62-4.45 3.24-6.33.44-3.32 5.72-3.84 9.7-11.52 7.66-.88 4.74-3.86 7.77-6.5 10.07-2.55.04-6.14-3.23-7.57-7.8-4.98.45-9.32-4.13-10.14-9.52l-5.73-.42c3.3-2.33 6.35-4.73 6.83-8 5.16 2.4 7.78 1.53 9.56-3.32 1.77 1.38 6.03-.18 7.67-2.05z"/><path fill="url(#h)" d="M.2 22.2c3.44-1.93 6.24-4.32 6.92-8.16 1.78 4.1 5.44 5.57 8.23 4.44-.7 3.58-3.93 7.35-9.08 4.3z" transform="translate(-.392 .261)"/><path fill="url(#i)" d="M7.5 14.24c4.04 2.83 8.28.77 9.15-3.27 2.24 5.14 7.67 3.88 10.45 2.55-1.87 4.56-6.54 6.96-11.5 4.7-3.24 1.95-7.7-.93-8.1-3.98z" transform="translate(-.392 .261)"/><path fill="url(#j)" d="M16.9 10.9c2.15 1.2 5.8-.13 7.46-1.9 1.33 1.3 4.13 1.93 6.72 1.25-.36 3.2-2.1 4.6-4.04 2.94-4.5 2.92-9.42 1.35-10.13-2.3z" transform="translate(-.392 .261)"/><path fill="url(#k)" d="M6.14 22.86c5.8 2.76 8.66 0 9.34-4.64 1.65 4.16 6.3 6.95 9.07 5.8-.04 5.55-3.6 7.7-8.3 8.05-5.96.4-9.32-4.8-10.1-9.2z" color="#000" overflow="visible" enable-background="accumulate" transform="translate(-.392 .261)"/><path fill="url(#l)" d="M15.67 18.16c4.04 2.82 10.5-.6 11.37-4.64 2.04 4.1 6.74 6.5 9.53 5.16-1.33 5.88-8.02 8.94-11.95 5.48-2.72.5-7.4-1.45-8.95-6z" transform="translate(-.392 .261)"/><path fill="url(#m)" d="M26.97 13.52c2.34 1.3 4.2-.8 4.18-3.53 2.33 5.12 5.98 6.52 11.56 4.17-.36 3.2-3.6 6.83-6.13 4.57-3.64 1.5-8.05-1.78-9.6-5.22z" transform="translate(-.392 .261)"/><path fill="url(#n)" d="M16.06 32.07c4.04-.12 8.18-1.55 8.5-7.9.2 3.56 2.82 6.1 5.74 5.54-.63 4.25-2.95 7.5-6.46 10.53-2.46-.6-7.14-4.17-7.78-8.16z" color="#000" overflow="visible" enable-background="accumulate" transform="translate(-.392 .261)"/><path fill="url(#o)" d="M24.62 24.1c4.5 3.6 11.27-.34 11.95-5.23.74 2.2 3.22 3.94 5.22 3.47-1.8 3.84-4.26 10.35-11.43 7.3-2.53.9-5.37-1.64-5.75-5.54z" transform="translate(-.392 .261)"/><path fill="url(#p)" d="M36.5 18.94c3.2 1.65 5.73-1.38 6.34-4.7.02 4.1 2.37 7.27 5.42 7.5-2.2 1.96-4 3.38-6.53.66-2.2.38-4.46-.8-5.22-3.46z" transform="translate(-.392 .261)"/><path fill="none" stroke="#204a87" stroke-width=".5" d="M29.9 29.98c-2.5.68-6.04-1.56-5.77-5.53-4.35.93-8.14-3.83-9.18-5.77-3.33 1.26-6.36.08-8.35-4.05" opacity=".5"/><path fill="none" stroke="#204a87" stroke-width=".5" d="M41.4 22.53c-2.5.7-5.06-1.7-5.32-3.37-5.66 1.06-8.53-3.3-9.57-5.25-4.75 1.66-8.25 2-10.24-3.06" opacity=".5"/><path fill="none" stroke="#204a87" stroke-width=".5" d="M15.74 32.26c5.3-.1 7.8-2.86 8.4-7.68 5.84 3.28 10.22-.83 12.17-5.3 3 1.05 5.33-1.24 5.82-4.72" opacity=".5"/><path fill="none" stroke="#204a87" stroke-width=".5" d="M6 22.86c3.42 2.77 8.2.86 9.05-4.16 4.88 1.85 9.5.1 11.6-4.92 2.35 1.13 3.88-1.16 3.85-3.26" opacity=".5"/><path fill="none" stroke="#204a87" stroke-width=".75" d="M24.12 9.05c2.07 1.8 5.1 1.88 6.68 1.25 2.85 4.76 5.62 6.3 11.4 4.36 1.14 4.32 1.76 6.33 5.67 7.34-2.22 1.62-4.45 3.25-6.33.45-3.33 5.7-3.85 9.7-11.53 7.64-.87 4.73-3.84 7.76-6.48 10.06-2.56.04-6.15-3.23-7.58-7.8-5 .45-9.33-4.12-10.15-9.5L.05 22.4c3.3-2.33 6.35-4.74 6.83-8 5.15 2.4 7.77 1.53 9.55-3.32 1.77 1.38 6.03-.18 7.67-2.05z" stroke-linejoin="round"/></g><g fill="#fff" stroke="#000" style="text-align:start;line-height:125%;-inkscape-font-specification:Arial Bold" font-size="36.268" font-weight="bold" letter-spacing="0" word-spacing="0" font-family="Arial"><path d="M29.28 47.4V21.7h5.25v21.34h13.04v4.37z"/></g></g></svg>