<svg xmlns="http://www.w3.org/2000/svg" width="48" height="48" xmlns:xlink="http://www.w3.org/1999/xlink"><defs><linearGradient id="e"><stop offset="0" stop-color="#ff3030"/><stop offset=".5" stop-color="#fffb59"/><stop offset=".75" stop-color="#8ce191"/><stop offset="1" stop-color="#c3c6bf"/></linearGradient><linearGradient id="g" x1="28.059" x2="33.437" y1="18.868" y2="23.743" xlink:href="#a" gradientUnits="userSpaceOnUse" gradientTransform="translate(-3.907 -1.803)"/><linearGradient id="a"><stop offset="0" stop-color="#6e3d09"/><stop offset=".242" stop-color="#ea8113"/><stop offset=".621" stop-color="#5c3307"/><stop offset="1" stop-color="#e07c12"/></linearGradient><linearGradient id="h" x1="19.395" x2="23.109" y1="30.001" y2="33.439" xlink:href="#b" gradientUnits="userSpaceOnUse" gradientTransform="translate(-3.907 -1.803)"/><linearGradient id="b"><stop offset="0" stop-color="#bdbdbd"/><stop offset=".333" stop-color="#e2e2e2"/><stop offset=".667" stop-color="#a3a3a3"/><stop offset="1" stop-color="#ddd"/></linearGradient><radialGradient id="i" cx="15.415" cy="35.357" r="7.579" xlink:href="#c" gradientUnits="userSpaceOnUse" gradientTransform="matrix(.995 0 0 .969 -4.583 .166)" fx="15.415" fy="35.357"/><linearGradient id="c"><stop offset="0" stop-color="#696969"/><stop offset="1"/></linearGradient><linearGradient id="j" x1="13.236" x2="7.752" y1="37.752" y2="42.282" xlink:href="#d" gradientUnits="userSpaceOnUse" gradientTransform="matrix(.852 0 0 .852 -1.675 3.754)"/><linearGradient id="d"><stop offset="0" stop-color="#fff"/><stop offset="1" stop-color="#fff" stop-opacity="0"/></linearGradient><radialGradient cx="-32.675" cy="18.567" r="21.445" xlink:href="#e" fx="-32.675" fy="18.567" gradientTransform="matrix(-.83 -.298 .245 -.682 -9.308 28.553)" gradientUnits="userSpaceOnUse"/><radialGradient id="f" cx="21.974" cy="25.739" r="21.445" xlink:href="#e" fx="21.974" fy="25.739" gradientTransform="matrix(.706 .214 -.187 .614 11.265 5.217)" gradientUnits="userSpaceOnUse"/></defs><g><path fill="url(#f)" d="M35.5 47.35c-.8-2-2.33-5.6-5-3.54-6.4 3.14-14.3 1.55-19.83-2.63-3.5-2.5-6.43-5.65-9.36-8.75-1.75-2.6-.1-5.64.7-8.28 2.22-6 5.4-11.76 9.78-16.45 1.7-1.65 3.65-3.3 6-3.86 2.8-.05 5.63.73 8.3 1.55 2.16 1.34 2.6 4.63 1.35 6.73-1.5 2.14-4.3 1.13-6.44.97-1.15-1.12-1.73-4.13-3.65-1.7-1.95 1.8-2.77 4.54-2.53 7.14-.07 2.45-.57 5.02-2.1 7 2.6.68 4.27-1.97 6.8-1.95 3.27-.43 6.46 1.2 8.67 3.52 1.95 1.48 3.47-1.78 5.52-1.92 2.64-1.1 5.98-.8 7.93 1.44 2.2 1.5 1.66 4.24 1.73 6.5.04 3.93.32 8.18-1.64 11.73-1.3 1.95-3.77 2.92-6.07 2.75l-.17-.27z"/><path fill-opacity=".093" d="M35.6 47.38c-.96-1.83-2.04-5.66-4.8-3.76-5.98 3.04-13.4 1.96-18.9-1.68-3.3-2.16-6.1-5-8.9-7.8C1.55 32.6-.05 30.78.84 28.5c1.07-5 3.4-9.68 5.94-14.1 1.73-2.9 3.8-5.64 6.36-7.84-2.83 4.16-3.8 9.22-6.12 13.66-1.48 3.02-3.33 6.67-1.62 10 1.55 3 4.44 4.96 6.6 7.48 3.6 3.66 8.83 6.22 14.05 5.2 3-.43 6.3-2.48 6.4-5.8-.27-2.24-1.02-4.45-1.98-6.46-1.6-1.63-1-3.73 1.16-4.32 2.78-1.7 6.72-2.53 9.4-.2.74.63 2.47 2.47 1.93 2.85-3.45-.65-7.43 1-8.96 4.23-.66 2.7 1.56 4.84 3.17 6.67 1.3 1.78 3.98 4.55 2.92 6.6-1.3.83-2.95 1.32-4.47.9z"/><path fill="#fff" fill-opacity=".479" d="M23 38.7c-3.76-1.24-7.15-3.9-8.9-7.5-.83-1.7-1.37-3.58-1.44-5.5.78-.15 1.68.18 2.4-.18 1.75-1.22 3.86-2.13 6.05-1.93 1.02.06 2 .3 2.93.72-1.22-.07-2.55-.05-3.58.7-1.4.94-2.25 2.48-2.8 4.02-.6 2 .18 4.12 1.4 5.7 1.2 1.63 2.8 2.93 4.44 4.1-.08.06-.37-.12-.5-.13z"/><path fill="none" stroke="#555753" d="M35.5 47.35c-.8-2-2.33-5.6-5-3.54-6.4 3.14-14.3 1.55-19.83-2.63-3.5-2.5-6.43-5.65-9.36-8.75-1.75-2.6-.1-5.64.7-8.28 2.22-6 5.4-11.76 9.78-16.45 1.7-1.65 3.65-3.3 6-3.86 2.8-.05 5.63.73 8.3 1.55 2.16 1.34 2.6 4.63 1.35 6.73-1.5 2.14-4.3 1.13-6.44.97-1.15-1.12-1.73-4.13-3.65-1.7-1.95 1.8-2.77 4.54-2.53 7.14-.07 2.45-.57 5.02-2.1 7 2.6.68 4.27-1.97 6.8-1.95 3.27-.43 6.46 1.2 8.67 3.52 1.95 1.48 3.47-1.78 5.52-1.92 2.64-1.1 5.98-.8 7.93 1.44 2.2 1.5 1.66 4.24 1.73 6.5.04 3.93.32 8.18-1.64 11.73-1.3 1.95-3.77 2.92-6.07 2.75l-.17-.27z"/><g color="#000"><path fill="url(#g)" stroke="#673907" stroke-width="1.272" d="M19.65 22.6l4.07 3.8c7.2-7.08 17.78-24 17.78-24 .43-1.2-1.1-2-1.85-1.16 0 0-13.7 14.1-20 21.35z" stroke-linecap="round" overflow="visible" transform="matrix(.665 .024 -.024 .665 19.929 -1.005)"/><path fill="url(#h)" stroke="#888a85" stroke-width="1.272" d="M12.05 32.8l2.25 1.95 8.5-7.37.26-.7 1.1-.02c-.44-1.57-2.94-4.4-4.82-4.4l.08 1.1-.67.38-6.7 9.07z" stroke-linecap="round" overflow="visible" transform="matrix(.665 .024 -.024 .665 19.929 -1.005)"/><path fill="url(#i)" d="M1.76 40.72c6.6 0 11.62.8 12.56-4.02.77-3.87-4.56-5.72-7.2-2.27-2.54 3.33-5.36 6.3-5.36 6.3z" overflow="visible" transform="matrix(.665 .024 -.024 .665 19.929 -1.005)"/><path fill="#fff" d="M26.63 22.38c-.02.4-.34.7-.74.68-.4 0-.7-.34-.7-.73.02-.4.35-.7.74-.7.4.03.7.36.7.75z" opacity=".528" overflow="visible"/><path fill="#fff" d="M33.46 16.14c0 .36-.32.65-.68.63-.36 0-.64-.3-.63-.68 0-.37.32-.65.68-.64.36.02.64.32.63.68z" overflow="visible"/><path fill="none" stroke="#fff" stroke-width=".67.272" d="M31.9 17l-3.68 3.96" stroke-linecap="round" stroke-linejoin="round" overflow="visible"/><path fill="url(#j)" d="M3.07 40.07s3.34-1.64 4.77-4.1c.5-.85 1.64-.1.94.75-1.52 1.86-5.7 3.35-5.7 3.35z" opacity=".428" overflow="visible" transform="matrix(.665 .024 -.024 .665 19.929 -1.005)"/><path fill="#fff" d="M46.83 1.2c0 .1-.1.2-.2.2s-.2-.1-.2-.2c0-.12.1-.2.2-.2.12 0 .2.1.2.2z" opacity=".533" overflow="visible"/></g></g></svg>