<svg xmlns="http://www.w3.org/2000/svg" width="48" height="48" xmlns:xlink="http://www.w3.org/1999/xlink"><defs><linearGradient id="j"><stop offset="0" stop-color="#fff"/><stop offset="1" stop-color="#fff" stop-opacity=".407"/></linearGradient><linearGradient id="i"><stop offset="0" stop-color="#ab0000"/><stop offset="1" stop-color="#580000"/></linearGradient><linearGradient id="h"><stop offset="0" stop-color="#ef2929"/><stop offset="1" stop-color="#a40000"/></linearGradient><linearGradient id="g"><stop offset="0" stop-color="#7d7d7d"/><stop offset="1" stop-color="#3f3f3f"/></linearGradient><linearGradient id="f"><stop offset="0"/><stop offset="1" stop-opacity="0"/></linearGradient><linearGradient id="e"><stop offset="0"/><stop offset=".5" stop-color="#fff"/><stop offset="1"/></linearGradient><linearGradient id="d"><stop offset="0" stop-color="#630000" stop-opacity=".75"/><stop offset="1" stop-opacity="0"/></linearGradient><linearGradient id="c"><stop offset="0" stop-color="#2e3436"/><stop offset=".5" stop-color="#89969a"/><stop offset="1" stop-color="#2e3436"/></linearGradient><linearGradient id="b"><stop offset="0" stop-color="#ffc7c7" stop-opacity=".663"/><stop offset="1" stop-color="#fff" stop-opacity="0"/></linearGradient><linearGradient id="a"><stop offset="0" stop-color="#ff1717"/><stop offset="1" stop-color="#9f0000"/></linearGradient><linearGradient id="m" x1="15.305" x2="46.29" y1="15.535" y2="38.75" xlink:href="#a" gradientUnits="userSpaceOnUse" gradientTransform="matrix(.951 0 0 .951 1.226 -.328)"/><linearGradient id="o" x1="22.357" x2="22.037" y1="9.429" y2="40.827" xlink:href="#b" gradientUnits="userSpaceOnUse" gradientTransform="matrix(.951 0 0 .951 1.226 -.328)"/><linearGradient id="r" x1="15.826" x2="20.85" y1="18.272" y2="13.114" xlink:href="#c" gradientUnits="userSpaceOnUse" gradientTransform="matrix(.973 0 0 .974 1.421 -1.675)"/><linearGradient id="p" x1="18.75" x2="15.429" y1="17.536" y2="23.893" xlink:href="#d" gradientUnits="userSpaceOnUse" gradientTransform="matrix(.951 0 0 .951 1.226 -.328)"/><radialGradient cx="8.648" cy="10.219" r="9.122" xlink:href="#e" fx="8.648" fy="10.219" gradientTransform="matrix(1.944 1.29 -.394 .593 -5.031 -9.13)" gradientUnits="userSpaceOnUse"/><radialGradient id="k" cx="24.25" cy="42.071" r="22.893" xlink:href="#f" fx="24.25" fy="42.071" gradientTransform="matrix(1 0 0 .262 0 31.045)" gradientUnits="userSpaceOnUse"/><linearGradient x1="5.383" x2="12.281" y1=".535" y2="13.678" xlink:href="#g" gradientUnits="userSpaceOnUse"/><linearGradient id="s" x1="17.216" x2="17.216" y1="8.477" y2="18.736" xlink:href="#g" gradientUnits="userSpaceOnUse" gradientTransform="matrix(.974 0 0 .974 1.212 .339)"/><radialGradient cx="8.648" cy="10.219" r="9.122" xlink:href="#e" gradientUnits="userSpaceOnUse" gradientTransform="matrix(1.944 1.29 -.394 .593 -5.031 -9.13)" fx="8.648" fy="10.219"/><linearGradient x1="5.383" x2="12.281" y1=".535" y2="13.678" xlink:href="#g" gradientUnits="userSpaceOnUse"/><linearGradient id="l" x1="29.055" x2="29.953" y1="13.509" y2="16.236" xlink:href="#h" gradientUnits="userSpaceOnUse" gradientTransform="translate(0 .808)"/><linearGradient id="n" x1="20.95" x2="42.987" y1="8.847" y2="38.546" xlink:href="#i" gradientUnits="userSpaceOnUse"/><linearGradient id="q" x1="20.201" x2="45.595" y1="12.086" y2="36.936" xlink:href="#j" gradientUnits="userSpaceOnUse"/><radialGradient id="t" cx="8.648" cy="10.219" r="9.122" xlink:href="#e" gradientUnits="userSpaceOnUse" gradientTransform="matrix(2.005 1.071 -.327 .612 -6.033 -6.886)" fx="8.648" fy="10.219"/><linearGradient id="u" x1="5.383" x2="12.281" y1=".535" y2="13.678" xlink:href="#g" gradientUnits="userSpaceOnUse" gradientTransform="matrix(.97 -.093 .093 .97 -.307 1.502)"/></defs><g><path fill="url(#k)" fill-rule="evenodd" d="M47.14 42.07a22.9 6 0 1 1-45.78 0 22.9 6 0 1 1 45.78 0z" transform="matrix(.992 -.2 .201 .992 -5.764 3.248)" overflow="visible" enable-background="accumulate"/><path fill="url(#l)" fill-rule="evenodd" stroke="#580000" d="M15.1 15.8c.28-.14 24.66-3.33 24.66-3.33l4.85 3.3-19.13 4.54-10.36-4.5z" stroke-linejoin="bevel"/><path fill="url(#m)" fill-rule="evenodd" stroke="url(#n)" stroke-width=".75" d="M14 15.12l-.32 21.74c-.1 1.5.5 2.3 1.37 2.83l6.23 4.28c1.43 1.36 2.66.9 3.9.58l19.7-6.62c.93-.53 1.7-1.13 1.52-2.23l.12-19.32c0-1.2-.6-2-1.4-2.68L38.7 8.2c-1.52-1.47-2.63-1.26-3.78-1.24l-10.05.77c-.92.2-1.63.05-3.1 1.13l-7.74 6.26zm11.58-4.07L37.1 9.82l3.63 3.4c.94.92.48 1.36-1.04 1.45l-12.8 2.55c-1.3.15-1.9-.4-1.96-1.5l.64-4.67z"/><path fill="url(#o)" fill-rule="evenodd" d="M21.87 44.08l.75-25.46L23.7 9.8l14.6-1.3c-.76-.52-1.37-1.2-2.64-1.22l-10.74.83-2.1.54-8.42 6.72-.2 23.16 7.67 5.56z"/><path fill="url(#p)" fill-rule="evenodd" d="M16.03 17.6l-.14 7.13 4.68 2.85-.07-8.83 1.7-3.05-6.17 1.9z"/><path fill="none" stroke="url(#q)" stroke-opacity=".502" d="M14.93 15.6l-.38 21.53c-.1.93.28 1.55 1.1 2.06l5.48 3.58c1.36 1.3 2.45 1.18 3.64.9l19.37-6.48c.88-.5 1.63-1.07 1.44-2.1l.12-19.7-7.43-6.37c-1.44-1.37-2.2-1.3-3.58-1.16l-9.52.73c-.86.2-1.54.05-2.9 1.07l-7.35 5.93z"/><path fill="url(#r)" fill-rule="evenodd" stroke="url(#s)" stroke-width=".953" d="M16.8 17.74l-2.44-2.4c-.8-1.1-.84-2.8 0-4.22 1.1-1.84 3.24-2.58 4.8-1.66.36.2.64.47.87.8l1.8 1.85c.58 1.12.55 2.64-.22 3.94-1.08 1.85-3.24 2.62-4.8 1.7z" overflow="visible" enable-background="accumulate"/><path fill="none" stroke="#a40000" d="M25.67 41.16l8.3-11.34 8.82 5.98-17.13 5.36z"/><path fill="none" stroke="#a40000" d="M23.9 22l-.4 18.7 8.83-12.44L23.9 22z" overflow="visible" enable-background="accumulate"/><path fill="none" stroke="#a40000" d="M35.4 28.2l8.2-9.85v15.48l-8.2-5.64z" overflow="visible" enable-background="accumulate"/><path fill="none" stroke="#a40000" d="M24.93 20.18l8.76 6.25 8.07-9.1-16.84 2.85z"/><path fill="url(#t)" fill-rule="evenodd" stroke="url(#u)" stroke-width=".75" d="M17.56 10.07c-5.48-5.96-10.53-8.8-15.5-8.3C.56 2.1.16 3.52.78 4.83c6.86 1.1 10.4 4.48 14.05 8.92 1.9-.2 3.05-1.68 2.73-3.68z"/><path fill-rule="evenodd" d="M2.4 3.58c-.23.82-.98 1.18-1.36.63C.86 3.97.8 3.57.92 3.2c.22-.83.97-1.18 1.35-.64.18.26.23.65.12 1.04z" overflow="visible" enable-background="accumulate"/></g></svg>