<svg xmlns="http://www.w3.org/2000/svg" width="48" height="48" xmlns:xlink="http://www.w3.org/1999/xlink"><defs><linearGradient id="h"><stop offset="0" stop-color="#729fcf"/><stop offset=".632" stop-color="#729fcf"/><stop offset="1" stop-color="#729fcf" stop-opacity="0"/></linearGradient><linearGradient id="g"><stop offset="0"/><stop offset="1" stop-opacity="0"/></linearGradient><linearGradient id="f"><stop offset="0" stop-color="#5d5d5d"/><stop offset="1"/></linearGradient><linearGradient id="b"><stop offset="0" stop-color="#fff"/><stop offset="1" stop-color="#fff" stop-opacity="0"/></linearGradient><linearGradient id="c"><stop offset="0" stop-opacity=".422"/><stop offset="1" stop-opacity="0"/></linearGradient><linearGradient id="e"><stop offset="0" stop-color="#f13e3e"/><stop offset="1" stop-color="#e61111"/></linearGradient><linearGradient id="d"><stop offset="0" stop-color="#fff" stop-opacity="0"/><stop offset=".5" stop-color="#fff"/><stop offset="1" stop-color="#fff" stop-opacity="0"/></linearGradient><linearGradient id="a"><stop offset="0" stop-color="#fff"/><stop offset="1" stop-color="#fff" stop-opacity="0"/></linearGradient><linearGradient><stop offset="0" stop-color="#ab0000"/><stop offset="1" stop-color="#580000"/></linearGradient><linearGradient><stop offset="0" stop-color="#ef2929"/><stop offset="1" stop-color="#a40000"/></linearGradient><linearGradient><stop offset="0" stop-color="#7d7d7d"/><stop offset="1" stop-color="#3f3f3f"/></linearGradient><linearGradient><stop offset="0"/><stop offset=".5" stop-color="#fff"/><stop offset="1"/></linearGradient><linearGradient><stop offset="0" stop-color="#630000" stop-opacity=".75"/><stop offset="1" stop-opacity="0"/></linearGradient><linearGradient><stop offset="0" stop-color="#2e3436"/><stop offset=".5" stop-color="#89969a"/><stop offset="1" stop-color="#2e3436"/></linearGradient><linearGradient><stop offset="0" stop-color="#ffc7c7" stop-opacity=".663"/><stop offset="1" stop-color="#fff" stop-opacity="0"/></linearGradient><linearGradient><stop offset="0" stop-color="#ff1717"/><stop offset="1" stop-color="#9f0000"/></linearGradient><radialGradient id="m" cx="21.516" cy="40.02" r="5.455" xlink:href="#a" gradientUnits="userSpaceOnUse" fx="21.516" fy="40.02"/><linearGradient id="o" x1="25.38" x2="19.875" y1="27.241" y2="27.241" xlink:href="#b" gradientUnits="userSpaceOnUse" gradientTransform="translate(0 3.839)"/><linearGradient id="p" x1="25.38" x2="19.875" y1="27.241" y2="27.241" xlink:href="#c" gradientUnits="userSpaceOnUse" gradientTransform="translate(0 3.839)"/><linearGradient id="q" x1="25.38" x2="19.875" y1="27.241" y2="27.241" xlink:href="#b" gradientUnits="userSpaceOnUse" gradientTransform="translate(.038 .652)"/><linearGradient id="r" x1="25.38" x2="19.875" y1="27.241" y2="27.241" xlink:href="#c" gradientUnits="userSpaceOnUse" gradientTransform="translate(.038 .652)"/><linearGradient id="s" x1="25.38" x2="19.875" y1="27.241" y2="27.241" xlink:href="#b" gradientUnits="userSpaceOnUse" gradientTransform="translate(-.013 -6.369)"/><linearGradient id="t" x1="25.38" x2="19.875" y1="27.241" y2="27.241" xlink:href="#c" gradientUnits="userSpaceOnUse" gradientTransform="translate(-.013 -6.369)"/><linearGradient id="v" x1="25.38" x2="19.875" y1="27.241" y2="27.241" xlink:href="#c" gradientUnits="userSpaceOnUse" gradientTransform="matrix(1.032 0 0 1.032 18.65 -36.072)"/><linearGradient id="u" x1="25.38" x2="19.875" y1="27.241" y2="27.241" xlink:href="#b" gradientUnits="userSpaceOnUse" gradientTransform="matrix(1.032 0 0 1.032 18.65 -36.072)"/><linearGradient id="n" x1="18.385" x2="23.436" y1="19.817" y2="19.817" xlink:href="#d" gradientUnits="userSpaceOnUse" gradientTransform="matrix(1.032 0 0 1.032 18.611 -23.579)"/><radialGradient id="l" cx="20.909" cy="33.204" r="6.078" xlink:href="#e" gradientUnits="userSpaceOnUse" gradientTransform="matrix(.914 .479 -.574 1.095 29.435 -14.797)" fx="20.909" fy="33.204"/><linearGradient id="k" x1="29.312" x2="41.116" y1="22.994" y2="30.709" xlink:href="#f" gradientUnits="userSpaceOnUse" gradientTransform="matrix(1.032 0 0 1.032 -1.534 -5.695)"/><radialGradient id="j" cx="34.714" cy="43.357" r="7.429" xlink:href="#g" fx="34.714" fy="43.357" gradientTransform="matrix(1 0 0 .596 0 17.51)" gradientUnits="userSpaceOnUse"/><radialGradient id="i" cx="40.893" cy="32.143" r="20.393" xlink:href="#h" fx="40.893" fy="32.143" gradientTransform="matrix(1 0 0 .495 0 16.221)" gradientUnits="userSpaceOnUse"/></defs><g fill-rule="evenodd"><path fill="url(#i)" d="M61.3 32.14a20.4 10.1 0 1 1-40.8 0 20.4 10.1 0 1 1 40.8 0z" transform="matrix(.778 1.026 -1.026 .778 23.035 -40.365)" overflow="visible" enable-background="accumulate"/><path fill="#8ae234" d="M8.88 10.7c1.1 5.9 4.12 19.62 7.5 24 5.47 7.1 13.18 7.28 16.72 6.84 1.64-.2 2.02-.27 2.13-1.57.33-3.76-1.6-10.83-4.7-15.3-3.1-4.44-14.96-12.35-19.98-15.28-1.28-.74-1.94-.27-1.67 1.3z"/><path fill="#fce94f" d="M22.82 37.92c-6.18-2.8-10.66-16.05-12-25.02-.26-1.62.8-1.4 1.87-.33 9.15 5.96 11.54 8.52 16.75 13.13"/><path fill="#fcaf3e" d="M22.74 36.03c-5.1-5.45-7.8-12.15-8.77-18.7-.2-1.18.6-1.03 1.37-.23 5.77 4.56 11.17 9.12 19.7 12.1"/><path fill="#ef2929" d="M28.26 38.87c-5.53-5-9.7-10.5-11.22-16.94-.28-1.17.5-1.08 1.35-.36 5.8 4.77 7.94 7.2 16.7 9.47"/><path fill="url(#j)" d="M42.14 43.36a7.43 4.43 0 1 1-14.85 0 7.43 4.43 0 1 1 14.84 0z" transform="matrix(1.232 0 0 1.232 -11.189 -14.652)" overflow="visible" enable-background="accumulate"/><path fill="#ccc" stroke="url(#k)" stroke-width=".75" d="M45.34.9c-1.9-.9-4.16-.08-5.07 1.82L29.45 25.65c-2.87.12-5.56 1.8-6.87 4.57-1.88 3.98-.18 8.72 3.8 10.6 3.98 1.88 8.73.18 10.6-3.8 1.28-2.7.9-5.73-.7-8L47.15 5.97c.9-1.9.1-4.16-1.82-5.06z" overflow="visible" enable-background="accumulate"/><path fill="url(#l)" stroke="#a40000" stroke-width=".75" d="M40.27 11.64c-1.12-.53-2.44-.03-2.98 1.1l-7.1 15.04c-2.33-.12-4.6 1.14-5.64 3.37-1.4 2.94-.15 6.46 2.8 7.85 2.93 1.4 6.46.12 7.85-2.82 1.05-2.2.57-4.74-.97-6.46l7.12-15.07c.53-1.13.04-2.48-1.08-3z" overflow="visible" enable-background="accumulate"/><path fill="url(#m)" d="M26.97 40.02a5.45 5.45 0 1 1-10.9 0 5.45 5.45 0 1 1 10.9 0z" transform="matrix(.417 .776 -1.049 .563 61.673 -9.673)" overflow="visible" enable-background="accumulate"/><rect width="7.508" height="30.239" x="37.589" y="-18.243" fill="url(#n)" ry="3.754" transform="rotate(25.311)" overflow="visible" enable-background="accumulate"/><g transform="matrix(.933 .441 -.441 .933 26.565 -12.664)"><rect width="5.505" height="2" x="19.9" y="28.07" fill="url(#o)" ry="0" overflow="visible" enable-background="accumulate"/><rect width="5.505" height="2" x="19.875" y="30.08" fill="url(#p)" ry="0" overflow="visible" enable-background="accumulate"/></g><g transform="matrix(.933 .441 -.441 .933 26.556 -12.645)"><rect width="5.505" height="2" x="19.938" y="21.044" fill="url(#q)" ry="0" overflow="visible" enable-background="accumulate"/><rect width="5.505" height="2" x="19.913" y="23.054" fill="url(#r)" ry="0" overflow="visible" enable-background="accumulate"/></g><g transform="matrix(.933 .441 -.441 .933 26.55 -12.631)"><rect width="5.505" height="2" x="19.887" y="14.024" fill="url(#s)" ry="0" overflow="visible" enable-background="accumulate"/><rect width="5.505" height="2" x="19.862" y="16.034" fill="url(#t)" ry="0" overflow="visible" enable-background="accumulate"/></g><rect width="5.683" height="2.064" x="39.192" y="-15.022" fill="url(#u)" ry="0" transform="rotate(25.311)" overflow="visible" enable-background="accumulate"/><rect width="5.683" height="2.064" x="39.166" y="-12.947" fill="url(#v)" ry="0" transform="rotate(25.311)" overflow="visible" enable-background="accumulate"/></g></svg>