<svg xmlns="http://www.w3.org/2000/svg" width="48" height="48" xmlns:xlink="http://www.w3.org/1999/xlink" version="1"><defs><linearGradient id="j"><stop offset="0" stop-color="#2e3436"/><stop offset="1" stop-color="#2e3436" stop-opacity="0"/></linearGradient><linearGradient id="h"><stop offset="0" stop-color="#fff"/><stop offset="1" stop-color="#eeeeec" stop-opacity="0"/></linearGradient><linearGradient id="g"><stop offset="0" stop-color="#f0f0f0"/><stop offset="1" stop-color="#f0f0f0" stop-opacity="0"/></linearGradient><radialGradient id="f" cx="294.624" cy="80.627" r="48.777" fx="294.624" fy="80.627" gradientUnits="userSpaceOnUse"><stop offset="0" stop-color="#BAD1D7"/><stop offset=".826" stop-color="#6D7580"/><stop offset="1" stop-color="#41454C"/></radialGradient><radialGradient id="e" cx="257.459" cy="35.376" r="68.717" fx="257.459" fy="35.376" gradientUnits="userSpaceOnUse"><stop offset="0" stop-color="#fff"/><stop offset="1" stop-color="#8794A0"/></radialGradient><radialGradient id="d" cx="264.957" cy="80.291" r="53.348" fx="264.957" fy="80.291" gradientUnits="userSpaceOnUse"><stop offset="0" stop-color="#BAD1D7"/><stop offset="1" stop-color="#8794A0"/></radialGradient><linearGradient id="a"><stop offset="0" stop-opacity=".633"/><stop offset="1" stop-opacity="0"/></linearGradient><linearGradient x1="26.22" x2="43.015" y1="36.124" y2="42.537" xlink:href="#a" gradientUnits="userSpaceOnUse" gradientTransform="translate(37.993 -41.602)"/><linearGradient id="b"><stop offset="0"/><stop offset="1" stop-opacity="0"/></linearGradient><radialGradient id="c" cx="33.161" cy="46.365" r="28.435" fx="33.161" fy="46.365" gradientTransform="matrix(-1 0 0 1 55.359 0)" gradientUnits="userSpaceOnUse"><stop offset="0" stop-color="#fff"/><stop offset=".09" stop-color="#F9FAFA"/><stop offset=".211" stop-color="#E8EBED"/><stop offset=".35" stop-color="#CCD2D7"/><stop offset=".5" stop-color="#A5B0B8"/><stop offset=".579" stop-color="#8E9CA6"/><stop offset="1" stop-color="#505359"/></radialGradient><radialGradient id="i" cx="38.921" cy="39.927" r="34.589" fx="38.921" fy="39.927" gradientTransform="matrix(-1 0 0 1 55.359 0)" gradientUnits="userSpaceOnUse"><stop offset="0" stop-color="#fff"/><stop offset="1" stop-color="#8D9BA6"/></radialGradient><radialGradient cx="24.205" cy="40.568" r="18.837" xlink:href="#b" gradientUnits="userSpaceOnUse" gradientTransform="matrix(1 0 0 .263 0 29.898)" fx="24.205" fy="40.568"/><radialGradient cx="33.161" cy="46.365" r="28.435" xlink:href="#c" gradientUnits="userSpaceOnUse" gradientTransform="matrix(-1 0 0 1 55.359 0)" fx="33.161" fy="46.365"/><radialGradient id="k" cx="264.957" cy="80.291" r="53.348" xlink:href="#d" gradientUnits="userSpaceOnUse" fx="264.957" fy="80.291"/><radialGradient id="l" cx="257.459" cy="35.376" r="68.717" xlink:href="#e" gradientUnits="userSpaceOnUse" fx="257.459" fy="35.376"/><radialGradient id="m" cx="294.624" cy="80.627" r="48.777" xlink:href="#f" gradientUnits="userSpaceOnUse" fx="294.624" fy="80.627"/><linearGradient id="n" x1="16.601" x2="17.363" y1="19.142" y2="45.175" xlink:href="#g" gradientUnits="userSpaceOnUse" gradientTransform="matrix(.547 0 0 .548 58.952 39.232)"/><linearGradient id="o" x1="14.107" x2="39.69" y1="4.772" y2="43.606" xlink:href="#h" gradientUnits="userSpaceOnUse" gradientTransform="matrix(.547 0 0 .548 58.952 39.232)"/><radialGradient cx="38.921" cy="39.927" r="34.589" xlink:href="#i" gradientUnits="userSpaceOnUse" gradientTransform="matrix(-1 0 0 1 55.359 0)" fx="38.921" fy="39.927"/><radialGradient cx="38.921" cy="39.927" r="34.589" gradientUnits="userSpaceOnUse" gradientTransform="matrix(-1 0 0 1 55.359 0)" fy="39.927" fx="38.921"><stop offset="0" stop-color="#fff"/><stop offset="1" stop-color="#8D9BA6"/></radialGradient><radialGradient cx="38.921" cy="39.927" r="34.589" xlink:href="#i" gradientUnits="userSpaceOnUse" gradientTransform="matrix(-.5 0 0 .5 31.772 -14.632)" fx="38.921" fy="39.927"/><linearGradient x1="7.662" x2="47.696" y1="54.053" y2="54.053" xlink:href="#i" gradientUnits="userSpaceOnUse"/><radialGradient id="q" cx="33.161" cy="46.365" r="28.435" xlink:href="#c" gradientUnits="userSpaceOnUse" gradientTransform="matrix(-1 0 0 1 55.359 0)" fx="33.161" fy="46.365"/><linearGradient id="r" x1="7.662" x2="47.696" y1="54.053" y2="54.053" xlink:href="#i" gradientUnits="userSpaceOnUse"/><linearGradient id="p" x1="35.137" x2="38.644" y1="30.922" y2="33.132" xlink:href="#j" gradientUnits="userSpaceOnUse"/></defs><g><g><path fill="url(#k)" d="M273.55 75.76l-12-14.42-1.98-23.04 13.08 11.6.9 25.86z" transform="matrix(.522 0 0 .523 -110.615 8.03)"/><path fill="url(#l)" d="M299.2 42.47l-26.55 7.44-13.07-11.6 23.56-5.1 16.06 9.27z" transform="matrix(.522 0 0 .523 -110.615 8.03)"/><path fill="url(#m)" d="M296.92 66.62l-23.37 9.14-.9-25.85 26.55-7.43-2.28 24.15z" transform="matrix(.522 0 0 .523 -110.615 8.03)"/><path fill="none" stroke="#f0f0f0" stroke-width=".91.096" d="M31.82 34.3l13.22-3.74" stroke-linecap="round"/><path fill="none" stroke="url(#n)" stroke-width="1.096" d="M60.97 43.15l7.33 6.3.26 14.24" stroke-linecap="round" transform="matrix(.912 0 0 .912 -30.443 -10.891)"/><path fill="none" stroke="url(#o)" stroke-width="1.644" d="M61.1 43.28l12.93-2.7 8.75 5.1-1.3 13.12-12.68 4.87-6.53-7.95-1.17-12.44z" transform="matrix(.912 0 0 .912 -30.443 -10.891)"/><path fill="none" stroke="#3f3131" stroke-width=".91.096" d="M24.68 28.16l12.44-2.6 8.4 4.9L44.3 43.1l-12.2 4.7-6.3-7.66-1.12-11.98z"/></g><path fill="url(#p)" fill-rule="evenodd" d="M33.73 31.8l2.95.63 6.87-1.75-7.22-1.27-2.6 2.4z"/><path fill="none" stroke="#346804" stroke-width="6" d="M13.75 15.14c.4 14.8 20.3-.64 20.34 13.75" stroke-linecap="round"/><path fill="none" stroke="#8ae234" stroke-width="3" d="M13.75 15.14c.4 14.8 20.3-.64 20.34 13.75" stroke-linecap="round"/><path fill="none" stroke="#d0f4ac" d="M13.68 15.04c.4 14.8 20.3-.65 20.34 13.74" stroke-linecap="round"/><g transform="matrix(.902 0 0 .902 1.359 -1.131)"><circle cx="27.679" cy="54.053" r="19.018" fill="url(#q)" stroke="#192333" stroke-width="2.216" transform="matrix(.5 0 0 .5 .011 -15.684)"/><circle cx="27.679" cy="54.053" r="19.018" fill="none" stroke="url(#r)" stroke-width="2.482" transform="matrix(.445 0 0 .449 1.501 -12.93)"/></g></g></svg>