<svg xmlns="http://www.w3.org/2000/svg" width="48" height="48" xmlns:xlink="http://www.w3.org/1999/xlink"><defs><linearGradient id="a"><stop offset="0" stop-color="#fff"/><stop offset="1" stop-color="#fff" stop-opacity="0"/></linearGradient><linearGradient><stop offset="0"/><stop offset="1" stop-color="#2e3436" stop-opacity="0"/></linearGradient><radialGradient cx="839.264" cy="1627.754" r="20.816" gradientUnits="userSpaceOnUse" gradientTransform="matrix(1 -.245 0 1.154 -820.308 -1631.989)" fy="1627.754" fx="839.264"><stop offset="0" stop-color="#B5BABE"/><stop offset="1" stop-color="#fff"/></radialGradient><linearGradient id="b" x1="1038.135" x2="1041.376" y1="1646.058" y2="1652.928" gradientTransform="matrix(.757 .203 -.203 .757 -427.847 -1435.059)" gradientUnits="userSpaceOnUse"><stop offset="0" stop-color="#ED2829"/><stop offset="1" stop-color="#CB1009"/></linearGradient><linearGradient><stop offset="0" stop-color="#fff"/><stop offset="1" stop-color="#edd400"/></linearGradient><radialGradient id="c" cx="23.955" cy="22.107" r="18.571" xlink:href="#a" fx="23.955" fy="22.107" gradientTransform="matrix(1.346 -1.127 .597 .714 -22.598 33.718)" gradientUnits="userSpaceOnUse"/></defs><g><g fill="none" stroke-width="1.5" stroke-linecap="round"><path stroke="#c1e54c" d="M7.17 32.64v14.5"/><path stroke="#729fcf" d="M.93 43.5l12.47-7.2"/><path stroke="#ef2929" d="M1.45 36.6l11.43 6.6"/></g><g fill="none" stroke-width="1.5" stroke-linecap="round"><path stroke="#c1e54c" d="M41.17.86v14.5"/><path stroke="#729fcf" d="M34.93 11.7L47.4 4.5"/><path stroke="#ef2929" d="M35.45 4.8l11.43 6.6"/></g><path fill="#fff" d="M40.4 7.18c-.6.57-1.16 1.03-1.52 1.23-1.08.6-2.35 1.24-3.03 1.2-.68-.04-3.52-.04-5.46.84-4.27 1.95-13.7 10.9-17.73 16.93-4.03 6-3.3 7.84-4.58 9.44-.74.9-1.24 1.72-2 2.66-.56.7 1.7 1.4 2.6.7 2.72-2.17 3.67-2.36 5.4-3.55 8.4-5.7 16.6-13.76 18.4-15.45 2.07-1.93 3.12-3.2 5.48-7.44 1.3-2.3 2.86-4.4 4.23-6.03 1.16-1.36-.57-1.62-1.8-.5z"/><path fill="url(#b)" d="M13.3 37.13c.24-.15.5-.32.8-.52 8.4-5.7 16.6-13.76 18.4-15.45.76-.7 1.4-1.33 2-2.04.07-.12.06-.56.45-1.26.4-.7.26-1.35 1.06-2.8 1.28-2.14.9-2.3 1.14-2.66.68-.85 1.14-2 1.46-2.4.33-.43-.6-.82-1.24-.8-.6.27-1.14.45-1.5.42-.7-.04-3.54-.04-5.47.84-4.27 1.95-13.7 10.9-17.73 16.93-.4.6-.8 1.3-1.12 1.8-.2.42.04.88-.06 1.25-.12.37-.97 2.04-1.32 2.87-.35.82-.37 2.2.07 2.67.43.48.87 1.22 2.37.85s1 .03.67.3z"/><path fill="#cb1009" d="M32.73 20.83c.12-.13.26-.25.38-.38.4-.38.67-.8.98-1.23.1-.16.02-.25.08-.44.06-.16.18-.3.27-.43.2-.32.12-.76.23-1.1.06-.17.2-.34.28-.5.1-.16.1-.33.2-.5.16-.35.36-.68.47-1.06.07-.25-.03-.23-.1-.44-.03-.18.1-.4.2-.53.3-.3.7-.66.86-1.03.1-.23.1-.5.2-.7.1-.2.3-.38.43-.57.26-.4.5-.84.75-1.28.1-.18.2-.37.28-.55.05-.15.13-.42.02-.54-.17-.2-.74-.2-.98-.18-.32.02-.62.23-1.05.35-.25.05-3.76-.48-7.06 1.5-.33.2 3.75-1.68 5.42-1.2.15.02-1.1.43-3.25 1.94-2.15 1.52-6.24 3.93-6.75 5.4-.52 1.47-.28 4.34-.96 5.42-.68 1.06-1.4 2.18-2.9 3.77-1.52 1.6-5 2.9-6.5 3.63-1.5.7-3.6 2.46-3.75 2.95-.16.47-.47 1.68.27 2.64.73.94 1.34.8 2.52.54 1.17-.26.95.02.92.1-.02.08 6.13-4.55 7.6-5.8 1.5-1.27 10.77-9.62 10.95-9.8z"/><path fill="#b3090a" d="M36.6 12.25c.28-.4.36-1.24-.37-1.13-.73.12-3.43 1-5.35 2.5-1.92 1.5-2.13 2.22-2.53 4.63-.14.75-4.06 4.48-4.98 5.6-.98 1.16-1.87 2.24-2.74 3.06-.87.83-2.35 1.93-6.08 4.3-1.52.96-2.9 2.94-2.5 3.3 1.18 1.15 3.2.83 4.5 0 1.3-.8 15.74-13.34 16.6-14.5.87-1.14 1.32-4.26 1.86-5.17.6-1 1.4-2.28 1.6-2.58z"/><path fill="#a40e0a" d="M35.63 13.13c.32-.46-.8-1.4-2.3-.67-1.5.7-3.2 1.22-4.48 5.22-.62 2.06-3.03 4.1-4.3 6.43-.8 1.45.8 2.88 6.36-2.42 2.5-2.3 2.74-3.2 2.97-4.34.23-1.16.97-3.1 1.76-4.2z"/><path fill="none" stroke="#414951" stroke-width=".8" d="M42.38 7.46c-1.4 1.65-3.06 3.84-4.4 6.25-2.36 4.25-3.4 5.52-5.48 7.45-1.8 1.7-10 9.76-18.4 15.46-1.84 1.28-2.8 1.4-5.92 3.98"/><path fill="none" stroke="#5b6772" stroke-width=".8" d="M40.56 7.04c-.68.63-1.3 1.15-1.68 1.37-1.08.6-2.35 1.24-3.03 1.2-.68-.04-3.52-.04-5.46.84-4.27 1.95-13.7 10.9-17.73 16.93-4.03 6-3.3 7.84-4.58 9.44-.8 1-1.33 1.86-2.2 2.9"/><g fill="none" stroke-width=".511"><path stroke="#7f0c07" stroke-width="0.78" d="M35.76 14.5c-2.2 1.5-3.9 2.87-9.87 8.75-6 5.9-9.33 8.9-14.44 13"/><path stroke="#f8170f" stroke-width="0.78" d="M11.68 36.53c5.04-4.04 8.28-6.96 14.46-13.02 6.08-5.97 7.73-7.3 9.82-8.7"/><path stroke="#7f0c07" stroke-width="0.78" d="M36.73 11.8c-1.17.35-4.1 1.53-6.55 3.57-2.45 2.05-4.7 4.1-8.03 7.42-3.33 3.32-7.47 7.67-11.87 11.66"/><path stroke="#f8170f" stroke-width="0.78" d="M10.52 34.72c3.35-3.04 6.55-6.28 9.36-9.13l2.52-2.55c3.13-3.13 5.38-5.2 8-7.4 2.34-1.94 5.14-3.12 6.44-3.5"/><path stroke="#7f0c07" stroke-width="0.78" d="M35.45 10.4c-1.8.47-3.27.42-6.5 2.42-3.22 2-10.9 9.97-13 12.07-2.1 2.1-4.2 5.1-4.2 5.1"/><path stroke="#f8170f" stroke-width="0.78" d="M12.05 30.2c.02-.02 2.1-3 4.16-5.06L17.36 24C20.28 21 26.4 14.8 29.15 13.1c2.5-1.55 3.9-1.84 5.27-2.1l1.12-.26"/></g><path fill="none" stroke="url(#c)" stroke-width="3" d="M7.5 40.07c8.9-11.9 16.72-20.23 30.5-29.5" stroke-linecap="round"/><path fill="none" stroke="#ef2929" d="M6.7 39.64C16.54 28.3 27.1 17.34 40.87 8.07" stroke-dasharray="2,1"/></g></svg>