<svg xmlns="http://www.w3.org/2000/svg" width="48" height="48" xmlns:xlink="http://www.w3.org/1999/xlink" version="1" viewBox="0 0 612 792" enable-background="new 0 0 612 792"><defs><linearGradient id="a"><stop offset="0" stop-color="#2e3436"/><stop offset="1" stop-color="#2e3436" stop-opacity="0"/></linearGradient><linearGradient><stop offset="0" stop-color="#b57676"/><stop offset="1" stop-color="#96132a"/></linearGradient><radialGradient id="b" cx="23.304" cy="43.179" r="22.286" xlink:href="#a" fx="23.304" fy="43.179" gradientTransform="matrix(1 0 0 .173 0 35.705)" gradientUnits="userSpaceOnUse"/></defs><path fill="url(#b)" d="M45.6 43.18a22.3 3.86 0 1 1-44.58 0 22.3 3.86 0 1 1 44.57 0z" transform="matrix(16.5 0 0 16.5 -74.973 15.911)" color="#000" overflow="visible" enable-background="accumulate"/><path fill="none" stroke="#675ba7" stroke-width="16.885" stroke-miterlimit="10" d="M524.06 720.9l-4.8 3.83-7.52-8.56c-4.23-4.75-7.98-9.53-11.58-14.12-2.4-3.06-4.73-6-7-8.7-56.08 30.28-120.4 46.24-186.68 46.24-209.02 0-385.6-164.98-385.6-360.27 0-210.12 126.2-346.05 329.67-355.28 19.9-9.3 44.44-14.2 71.2-14.2 59.2 0 133.64 25.04 154.9 71.43 85.53 50.9 150.58 129.18 178.97 215.5 24.37 39.58 36.72 86.64 36.72 139.9 0 75.8-44.26 144.2-85.72 182.9-2.8 2.57-5.47 5.3-8.07 7.95-34.58 26.02-42 99.9-74.5 93.36z" stroke-linecap="round" stroke-linejoin="round"/><path fill="none" stroke="#efedf7" stroke-width="16.885" stroke-miterlimit="10" d="M644.65 301.9C616.13 213.8 549.7 137.7 467.13 89.6c-.48-1.1-.88-2.23-1.4-3.3C441.66 33.6 322.38 1.9 253.5 35.9 38.83 44.5-67.15 191-67.15 379.3c0 194.25 179.47 348.3 373.63 348.3 69.47 0 134.24-17.9 189.1-49.36 23.87 25.2 36.35 27.62 89.93-54.32 4.12-4.46 8.42-8.88 12.93-13.1 31.08-29.04 81.9-94.36 81.9-174.15 0-53.48-13.04-98.57-35.68-134.78z" stroke-linecap="round" stroke-linejoin="round"/><path fill="#7b8f9f" d="M209.46 490.65c-13.44-5.86-26.6-11-43.5-12.63C78.65 469.56-9.5 412.72-9.5 304.96c0-102.32 74.93-185.5 166.98-185.5 92.07 0 166.9 83.18 166.9 185.5 0 80.3-83.83 163.7-114.92 185.7z" opacity=".13"/><path fill="#c78313" d="M7.62 534c18.4 31.25 162.56 253.72 421.5 154.6 62.62-23.96 158.4-104.9 167.53-152.8-44.38-1.7-525.96-20.1-593.9-20.1C-.04 522 7.63 534 7.63 534z"/><ellipse cx="274.008" cy="430.35" fill="#faa31b" rx="17.082" ry="4.097" transform="matrix(17.544 0 0 17.545 -4505.293 -7032.078)"/><path fill="#7b8f9f" d="M-67.87 379.3c0 194.28 179.47 348.3 373.63 348.3 194.2 0 353.4-137.6 353.4-331.78 0-194.18-192.24-360.75-386.45-360.75-228.3 0-340.57 150.1-340.57 344.24z" opacity=".4"/><path fill="#7b8f9f" d="M503.18 648.22c-16.28-6.42-32.28-12.04-52.74-13.8-105.9-9.22-212.86-71.26-212.86-188.95C237.58 333.8 328.48 243 440.1 243c111.7 0 202.48 90.8 202.48 202.47.02 87.7-101.7 178.7-139.4 202.75z" opacity=".4"/><path fill="#2d2e74" d="M440.44 199.4c-136.24 0-246.7 110.4-246.7 246.65s125.02 238.98 259.9 219.35c36.3-5.3 45.6 19.33 66.3 42.82 14.33-11.44 37.78-60.18 77.73-97.42 31.1-29.04 81.9-94.34 81.9-174.15.03-151.34-102.93-237.26-239.13-237.26zm76.76 455.93c-13.14-38.34-50-41.85-70.5-40.4-101.57 7.24-187.94-42.84-208.76-168.9-18.23-110.2 90.87-202.48 202.5-202.48 111.7 0 202.48 90.8 202.48 202.48 0 49.38-46.86 71.22-78.02 111.96-24.12 31.6-31.25 86.83-47.7 97.33z" opacity=".65"/><path fill="#dddaed" d="M211.8 444.26c-7.64-122.3 114-232.87 227.35-228.76 14.65-6.2 6.86-10.58 6.86-10.58-136.28 0-250.1 108.7-246.7 246.68 0 0 5.2 10.6 12.5-7.34z" opacity=".86"/><path fill="#f9f8fc" d="M13.13 556.18C1.03 369.9 138.53 113.25 301.27 87.33c-64.25-4.5-84.35-4.38-84.35-4.38C73.22 80.4-50.73 257.62-32.48 462.9c0 0 29 87.07 45.6 93.28z" opacity=".31"/><path fill="#f7f8fc" d="M-11.75 505.4c-12.1-186.32 70.5-405.3 213.5-418.75 18.66 1.03-8.27-8.63-8.27-8.63-143.68-2.55-252.9 153.74-234.67 359 0 0 12.87 62.17 29.45 68.4z" opacity=".67"/><path fill="#fff" d="M11.7 285.75c23.18-73.67 81.02-165.6 134.45-187 5.3-6.22-3.46-7.6-3.46-7.6C60.43 101.48 15.54 219.64 5.96 245.4c0 0-2.12 34.68 5.74 40.35z"/><path fill="#faa31b" d="M573.25 588.92c-10.03-27.5-16.47-31.03 9.98-51.24 5.62-4.8 14.58-15 21.7-20.43-2.5-8.87-10.38-16.2-24.68-24.66-34.23-20.15-81.37-31.54-183.24-41.44-36.45-3.52-109.47-5.68-158.52-2.28-2.65 23.2 12.54 69.97 25.1 87.43 137.16 154.28 140.27 34.82 163.8 130.16 93.87 133.15 145.1 79.3 145.87-77.54z"/><path fill="url(#SVGID_2_)" d="M316.02 588.6c156.97 0 286.18-43.12 285.92-70.33-.37-38.85-121.3-68.43-284-71.87-25.13-.5-58.4-1.1-79.83 1.92-1.13 17.86 6.06 51.14 17.24 73.37 15.1 30.06 52.33 63.1 60.68 66.9z"/><path fill="#ffeabf" d="M260.48 528.28c8.63 22.14 33.4 47.1 72.03 72.63 22.23 14.7 45.83 22.54 77.87 28.3 4.1 30.7 59.84 108.34 96.12 109.9-61.77-44.17-60.84-93.82-74.02-118.03-13.1-24.16-42.5-45.82-78.44-51.37-35.9-5.5-64.54-22.74-93.56-41.42z"/><path fill="#d27d18" d="M544.85 731.48s25.35-47.9 28.55-122.57c2.84-67.02-5.85-73.9-21.05-85.98.9 9.67 12.83 35.34 12.8 50.57-.14 43.13-7.52 134.8-20.3 157.98z"/><path fill="#514a73" d="M386.25 181.67c31.1 11.4 53.7 8.4 78.76-2.98 14.7-6.7 15.78-57.93 0-92.42-30.78-67.32-217.3-100.88-254.96-6.2 28 7.25 66.44-13.48 66.44-13.48s-10.32-25.16 24.77-26.95c60.12-3.1 92.62 22.52 95.35 50.8 3.62 36.96 2.2 71.83-10.35 91.22z"/><path fill="#f7f8fc" d="M213.67 77.5c6.74-14 28.86-43.7 67.56-50.26 36.92-6.26 80.16-4.16 108.83 14.16 32.96 21.04 29.38 43.18 32.5 71.18 3.1 27.97-.34 60.44-5.52 67.7-5.17 7.27-13.65 2.95-24.54-.15 8.82-17.13 18.65-87.6 6.2-109.36-10.68-18.72-23.3-37.84-60.6-40.95-37.34-3.1-71.53 2.07-89.67 17.1-18.65 15.43-18 32.1-34.76 30.57z" opacity=".87"/></svg>