<svg xmlns="http://www.w3.org/2000/svg" width="48" height="48" xmlns:xlink="http://www.w3.org/1999/xlink"><defs><linearGradient id="a"><stop offset="0" stop-color="#fbf51d"/><stop offset=".671" stop-color="#ffad15"/><stop offset="1" stop-color="#eb2c28"/></linearGradient><linearGradient><stop offset="0" stop-opacity="0"/><stop offset=".868" stop-opacity="0"/><stop offset="1" stop-opacity=".251"/></linearGradient><radialGradient cx="23.641" cy="22.873" r="21.297" xlink:href="#a" fx="23.641" fy="22.873" gradientTransform="matrix(1.126 0 0 .693 -2.559 6.478)" gradientUnits="userSpaceOnUse"/><linearGradient><stop offset="0" stop-color="#fff"/><stop offset="1" stop-color="#fce94f"/></linearGradient><linearGradient><stop offset="0" stop-color="#ff8d27"/><stop offset="1" stop-color="#f18d3b" stop-opacity=".445"/></linearGradient><linearGradient id="b" x1="23.775" x2="23.775" y1="202.3" y2="158.049" gradientUnits="userSpaceOnUse" gradientTransform="translate(.226 -156.565)"><stop offset="0" stop-color="#E96712"/><stop offset=".648" stop-color="#D4290C"/><stop offset="1" stop-color="#CB1009"/></linearGradient><linearGradient id="c" x1="23.875" x2="23.875" y1="199.295" y2="156.129" gradientUnits="userSpaceOnUse" gradientTransform="translate(-6.4 -156.964)"><stop offset="0" stop-color="#EBD30F"/><stop offset=".393" stop-color="#E96712"/><stop offset=".786" stop-color="#D4290C"/><stop offset="1" stop-color="#CB1009"/></linearGradient><linearGradient id="d" x1="24.223" x2="24.223" y1="201.565" y2="176.179" gradientUnits="userSpaceOnUse" gradientTransform="translate(-6.4 -156.964)"><stop offset=".124" stop-color="#fff"/><stop offset=".205" stop-color="#FBF6B8"/><stop offset=".303" stop-color="#F8ED6C"/><stop offset=".348" stop-color="#F6E94F"/><stop offset=".607" stop-color="#FAAF3E"/><stop offset="1" stop-color="#F17912"/></linearGradient><linearGradient id="e" x1="25.197" x2="25.197" y1="190.424" y2="169.442" gradientUnits="userSpaceOnUse" gradientTransform="translate(-6.4 -156.964)"><stop offset=".124" stop-color="#fff"/><stop offset=".205" stop-color="#FBF6B8"/><stop offset=".303" stop-color="#F8ED6C"/><stop offset=".348" stop-color="#F6E94F"/><stop offset=".607" stop-color="#FAAF3E"/><stop offset="1" stop-color="#F17912"/></linearGradient><linearGradient id="n" x1="23.775" x2="23.775" y1="202.3" y2="158.049" xlink:href="#b" gradientUnits="userSpaceOnUse" gradientTransform="translate(-62.774 -203.565)"/><linearGradient id="o" x1="23.875" x2="23.875" y1="199.295" y2="156.129" xlink:href="#c" gradientUnits="userSpaceOnUse" gradientTransform="translate(-62.774 -203.565)"/><linearGradient id="p" x1="24.223" x2="24.223" y1="201.565" y2="176.179" xlink:href="#d" gradientUnits="userSpaceOnUse" gradientTransform="translate(-62.774 -203.565)"/><linearGradient id="q" x1="25.197" x2="25.197" y1="190.424" y2="169.442" xlink:href="#e" gradientUnits="userSpaceOnUse" gradientTransform="translate(-62.774 -203.565)"/><linearGradient id="z" x1="23.775" x2="23.775" y1="202.3" y2="158.049" xlink:href="#b" gradientUnits="userSpaceOnUse" gradientTransform="translate(-62.774 -203.565)"/><linearGradient id="A" x1="23.875" x2="23.875" y1="199.295" y2="156.129" xlink:href="#c" gradientUnits="userSpaceOnUse" gradientTransform="translate(-62.774 -203.565)"/><linearGradient id="B" x1="24.223" x2="24.223" y1="201.565" y2="176.179" xlink:href="#d" gradientUnits="userSpaceOnUse" gradientTransform="translate(-62.774 -203.565)"/><linearGradient id="C" x1="25.197" x2="25.197" y1="190.424" y2="169.442" xlink:href="#e" gradientUnits="userSpaceOnUse" gradientTransform="translate(-62.774 -203.565)"/><linearGradient id="v" x1="23.775" x2="23.775" y1="202.3" y2="158.049" xlink:href="#b" gradientUnits="userSpaceOnUse" gradientTransform="translate(-62.774 -203.565)"/><linearGradient id="w" x1="23.875" x2="23.875" y1="199.295" y2="156.129" xlink:href="#c" gradientUnits="userSpaceOnUse" gradientTransform="translate(-62.774 -203.565)"/><linearGradient id="x" x1="24.223" x2="24.223" y1="201.565" y2="176.179" xlink:href="#d" gradientUnits="userSpaceOnUse" gradientTransform="translate(-62.774 -203.565)"/><linearGradient id="y" x1="25.197" x2="25.197" y1="190.424" y2="169.442" xlink:href="#e" gradientUnits="userSpaceOnUse" gradientTransform="translate(-62.774 -203.565)"/><linearGradient id="r" x1="23.775" x2="23.775" y1="202.3" y2="158.049" xlink:href="#b" gradientUnits="userSpaceOnUse" gradientTransform="translate(-62.774 -203.565)"/><linearGradient id="s" x1="23.875" x2="23.875" y1="199.295" y2="156.129" xlink:href="#c" gradientUnits="userSpaceOnUse" gradientTransform="translate(-62.774 -203.565)"/><linearGradient id="t" x1="24.223" x2="24.223" y1="201.565" y2="176.179" xlink:href="#d" gradientUnits="userSpaceOnUse" gradientTransform="translate(-62.774 -203.565)"/><linearGradient id="u" x1="25.197" x2="25.197" y1="190.424" y2="169.442" xlink:href="#e" gradientUnits="userSpaceOnUse" gradientTransform="translate(-62.774 -203.565)"/><linearGradient id="f" x1="23.775" x2="23.775" y1="202.3" y2="158.049" xlink:href="#b" gradientUnits="userSpaceOnUse" gradientTransform="translate(-62.774 -203.565)"/><linearGradient id="g" x1="23.875" x2="23.875" y1="199.295" y2="156.129" xlink:href="#c" gradientUnits="userSpaceOnUse" gradientTransform="translate(-62.774 -203.565)"/><linearGradient id="h" x1="24.223" x2="24.223" y1="201.565" y2="176.179" xlink:href="#d" gradientUnits="userSpaceOnUse" gradientTransform="translate(-62.774 -203.565)"/><linearGradient id="i" x1="25.197" x2="25.197" y1="190.424" y2="169.442" xlink:href="#e" gradientUnits="userSpaceOnUse" gradientTransform="translate(-62.774 -203.565)"/><linearGradient id="j" x1="23.775" x2="23.775" y1="202.3" y2="158.049" xlink:href="#b" gradientUnits="userSpaceOnUse" gradientTransform="translate(-62.774 -203.565)"/><linearGradient id="k" x1="23.875" x2="23.875" y1="199.295" y2="156.129" xlink:href="#c" gradientUnits="userSpaceOnUse" gradientTransform="translate(-62.774 -203.565)"/><linearGradient id="l" x1="24.223" x2="24.223" y1="201.565" y2="176.179" xlink:href="#d" gradientUnits="userSpaceOnUse" gradientTransform="translate(-62.774 -203.565)"/><linearGradient id="m" x1="25.197" x2="25.197" y1="190.424" y2="169.442" xlink:href="#e" gradientUnits="userSpaceOnUse" gradientTransform="translate(-62.774 -203.565)"/></defs><g><g><path fill="url(#f)" stroke="#99140d" stroke-width="2.555" d="M-39-.76c-5.97 0-16.87-3.65-16.87-15.5 0-1.18.1-2.55.33-4-.18 1.37 3.54 5.83 3.54 3.62 0-1.6-2.5-5.76-2.5-8.2 0-4.65 2.56-5.54 4.77-8.7-.7 2.32-1.62 5.65 1.2 7.7 0 0 3.47 0 3.9-6.67.44-6.68-4.06-6.76-4.06-13.6 1.57 4.5 12.6 6.32 16.33 14.8 0-1.2-.17-5.84-2.72-8.4 3.14 1.13 6.24 3.5 9 8.92 1.7 3.3.7 7.93 2.05 9.86.78-.78.6-3.1.95-4.2.62 2.3.97 6.3.97 8.85C-22.13-4.4-32.46-.77-39-.77z" transform="matrix(.391 0 0 .391 46.585 20.344)"/><path fill="url(#g)" d="M-41.6-33.38c0 .34 0 .7-.03 1.06-.6 9.36-6.63 9.47-6.9 9.47h-.96l-.77-.57c-.47-.34-.83-.72-1.17-1.1.13.86.73 2.36 1.16 3.42.7 1.76 1.28 3.15 1.28 4.46 0 2.06-1.28 2.95-1.83 3.23-.3.15-.9.37-1.66.35C-50.63-5.53-42.4-2-39-2c.57 0 11.98.1 13.42-10.6.5-3.55.18-4.9.1-5.5-.23.5-.44 1.27-1.04 1.87-1.4-1.7-1.24-6.55-1.4-8.64-.1-1.65-.23-3.36-.84-4.54-.34-.67-.68-1.27-1-1.82 0 3.2-1.72 4.74-3.02 7.6-.72-5.94-6.56-11.78-9.42-13.57.35 1.08.6 2.3.6 3.82z" transform="matrix(.391 0 0 .391 46.585 20.344)"/><path fill="url(#h)" d="M-31.6-5.7c-.54.64-.57-.87-.2-2.84-2.47 2.47-1.64 4.98-4 6.05-4.24 1.26 1.44-4.8-1.44-8.56 0 3.17-2.97 9.4-3.96 8.9-.52-.12-1.03-.22-1.3-.43-1.5-.7-1.56-3.92-2.52-5.26 0 1.1-.26 2.63-.6 2.23-1.37-1.63-2.34-3.63-2.34-5.78 0-5.52 3.4-8.74 1.7-11.88 1.43.68 5 5 5 6.2 1.1-2.3-.23-3.48-.67-5.34-.4-1.8.1-3.15.92-5.27.18 6.47 5.84 8.9 5.84 12.22.68-.68 2.55-2.3 1.95-5.26-.34-1.78-.8-3.52 0-4.32 0 2.12 3.2 4.2 3.9 8.4.23 1.4.18 4.24.08 5.42-.17 2.06-1.12 3.96-2.4 5.53z" transform="matrix(.391 0 0 .391 46.585 20.344)"/><path fill="url(#i)" d="M-35.34-19.47c-1.1-3.57-4.78-6.76-4.78-9.1 0-1.42.4-2.72 1-4.45 1.2 5.96 3.48 7.2 3.98 10.18.22 1.27.05 2.43-.2 3.37z" transform="matrix(.391 0 0 .391 46.585 20.344)"/></g><g><path fill="url(#j)" stroke="#99140d" stroke-width="2.335" d="M-39-.76c-5.97 0-16.87-3.65-16.87-15.5 0-1.18.1-2.55.33-4-.18 1.37 3.54 5.83 3.54 3.62 0-1.6-2.5-5.76-2.5-8.2 0-4.65 2.56-5.54 4.77-8.7-.7 2.32-1.62 5.65 1.2 7.7 0 0 3.47 0 3.9-6.67.44-6.68-4.06-6.76-4.06-13.6 1.57 4.5 12.6 6.32 16.33 14.8 0-1.2-.17-5.84-2.72-8.4 3.14 1.13 6.24 3.5 9 8.92 1.7 3.3.7 7.93 2.05 9.86.78-.78.6-3.1.95-4.2.62 2.3.97 6.3.97 8.85C-22.13-4.4-32.46-.77-39-.77z" transform="matrix(.428 0 0 .428 35.37 23.612)"/><path fill="url(#k)" d="M-41.6-33.38c0 .34 0 .7-.03 1.06-.6 9.36-6.63 9.47-6.9 9.47h-.96l-.77-.57c-.47-.34-.83-.72-1.17-1.1.13.86.73 2.36 1.16 3.42.7 1.76 1.28 3.15 1.28 4.46 0 2.06-1.28 2.95-1.83 3.23-.3.15-.9.37-1.66.35C-50.63-5.53-42.4-2-39-2c.57 0 11.98.1 13.42-10.6.5-3.55.18-4.9.1-5.5-.23.5-.44 1.27-1.04 1.87-1.4-1.7-1.24-6.55-1.4-8.64-.1-1.65-.23-3.36-.84-4.54-.34-.67-.68-1.27-1-1.82 0 3.2-1.72 4.74-3.02 7.6-.72-5.94-6.56-11.78-9.42-13.57.35 1.08.6 2.3.6 3.82z" transform="matrix(.428 0 0 .428 35.37 23.612)"/><path fill="url(#l)" d="M-31.6-5.7c-.54.64-.57-.87-.2-2.84-2.47 2.47-1.64 4.98-4 6.05-4.24 1.26 1.44-4.8-1.44-8.56 0 3.17-2.97 9.4-3.96 8.9-.52-.12-1.03-.22-1.3-.43-1.5-.7-1.56-3.92-2.52-5.26 0 1.1-.26 2.63-.6 2.23-1.37-1.63-2.34-3.63-2.34-5.78 0-5.52 3.4-8.74 1.7-11.88 1.43.68 5 5 5 6.2 1.1-2.3-.23-3.48-.67-5.34-.4-1.8.1-3.15.92-5.27.18 6.47 5.84 8.9 5.84 12.22.68-.68 2.55-2.3 1.95-5.26-.34-1.78-.8-3.52 0-4.32 0 2.12 3.2 4.2 3.9 8.4.23 1.4.18 4.24.08 5.42-.17 2.06-1.12 3.96-2.4 5.53z" transform="matrix(.428 0 0 .428 35.37 23.612)"/><path fill="url(#m)" d="M-35.34-19.47c-1.1-3.57-4.78-6.76-4.78-9.1 0-1.42.4-2.72 1-4.45 1.2 5.96 3.48 7.2 3.98 10.18.22 1.27.05 2.43-.2 3.37z" transform="matrix(.428 0 0 .428 35.37 23.612)"/></g><g><path fill="url(#n)" stroke="#99140d" stroke-width="1.943" d="M-39-.76c-5.97 0-16.87-3.65-16.87-15.5 0-1.18.1-2.55.33-4-.18 1.37 3.54 5.83 3.54 3.62 0-1.6-2.5-5.76-2.5-8.2 0-4.65 2.56-5.54 4.77-8.7-.7 2.32-1.62 5.65 1.2 7.7 0 0 3.47 0 3.9-6.67.44-6.68-4.06-6.76-4.06-13.6 1.57 4.5 12.6 6.32 16.33 14.8 0-1.2-.17-5.84-2.72-8.4 3.14 1.13 6.24 3.5 9 8.92 1.7 3.3.7 7.93 2.05 9.86.78-.78.6-3.1.95-4.2.62 2.3.97 6.3.97 8.85C-22.13-4.4-32.46-.77-39-.77z" transform="matrix(.515 0 0 .515 29.461 35.875)"/><path fill="url(#o)" d="M-41.6-33.38c0 .34 0 .7-.03 1.06-.6 9.36-6.63 9.47-6.9 9.47h-.96l-.77-.57c-.47-.34-.83-.72-1.17-1.1.13.86.73 2.36 1.16 3.42.7 1.76 1.28 3.15 1.28 4.46 0 2.06-1.28 2.95-1.83 3.23-.3.15-.9.37-1.66.35C-50.63-5.53-42.4-2-39-2c.57 0 11.98.1 13.42-10.6.5-3.55.18-4.9.1-5.5-.23.5-.44 1.27-1.04 1.87-1.4-1.7-1.24-6.55-1.4-8.64-.1-1.65-.23-3.36-.84-4.54-.34-.67-.68-1.27-1-1.82 0 3.2-1.72 4.74-3.02 7.6-.72-5.94-6.56-11.78-9.42-13.57.35 1.08.6 2.3.6 3.82z" transform="matrix(.515 0 0 .515 29.461 35.875)"/><path fill="url(#p)" d="M-31.6-5.7c-.54.64-.57-.87-.2-2.84-2.47 2.47-1.64 4.98-4 6.05-4.24 1.26 1.44-4.8-1.44-8.56 0 3.17-2.97 9.4-3.96 8.9-.52-.12-1.03-.22-1.3-.43-1.5-.7-1.56-3.92-2.52-5.26 0 1.1-.26 2.63-.6 2.23-1.37-1.63-2.34-3.63-2.34-5.78 0-5.52 3.4-8.74 1.7-11.88 1.43.68 5 5 5 6.2 1.1-2.3-.23-3.48-.67-5.34-.4-1.8.1-3.15.92-5.27.18 6.47 5.84 8.9 5.84 12.22.68-.68 2.55-2.3 1.95-5.26-.34-1.78-.8-3.52 0-4.32 0 2.12 3.2 4.2 3.9 8.4.23 1.4.18 4.24.08 5.42-.17 2.06-1.12 3.96-2.4 5.53z" transform="matrix(.515 0 0 .515 29.461 35.875)"/><path fill="url(#q)" d="M-35.34-19.47c-1.1-3.57-4.78-6.76-4.78-9.1 0-1.42.4-2.72 1-4.45 1.2 5.96 3.48 7.2 3.98 10.18.22 1.27.05 2.43-.2 3.37z" transform="matrix(.515 0 0 .515 29.461 35.875)"/></g><g><path fill="url(#r)" stroke="#99140d" stroke-width="2.123" d="M-39-.76c-5.97 0-16.87-3.65-16.87-15.5 0-1.18.1-2.55.33-4-.18 1.37 3.54 5.83 3.54 3.62 0-1.6-2.5-5.76-2.5-8.2 0-4.65 2.56-5.54 4.77-8.7-.7 2.32-1.62 5.65 1.2 7.7 0 0 3.47 0 3.9-6.67.44-6.68-4.06-6.76-4.06-13.6 1.57 4.5 12.6 6.32 16.33 14.8 0-1.2-.17-5.84-2.72-8.4 3.14 1.13 6.24 3.5 9 8.92 1.7 3.3.7 7.93 2.05 9.86.78-.78.6-3.1.95-4.2.62 2.3.97 6.3.97 8.85C-22.13-4.4-32.46-.77-39-.77z" transform="matrix(.471 0 0 .471 57.973 33.796)"/><path fill="url(#s)" d="M-41.6-33.38c0 .34 0 .7-.03 1.06-.6 9.36-6.63 9.47-6.9 9.47h-.96l-.77-.57c-.47-.34-.83-.72-1.17-1.1.13.86.73 2.36 1.16 3.42.7 1.76 1.28 3.15 1.28 4.46 0 2.06-1.28 2.95-1.83 3.23-.3.15-.9.37-1.66.35C-50.63-5.53-42.4-2-39-2c.57 0 11.98.1 13.42-10.6.5-3.55.18-4.9.1-5.5-.23.5-.44 1.27-1.04 1.87-1.4-1.7-1.24-6.55-1.4-8.64-.1-1.65-.23-3.36-.84-4.54-.34-.67-.68-1.27-1-1.82 0 3.2-1.72 4.74-3.02 7.6-.72-5.94-6.56-11.78-9.42-13.57.35 1.08.6 2.3.6 3.82z" transform="matrix(.471 0 0 .471 57.973 33.796)"/><path fill="url(#t)" d="M-31.6-5.7c-.54.64-.57-.87-.2-2.84-2.47 2.47-1.64 4.98-4 6.05-4.24 1.26 1.44-4.8-1.44-8.56 0 3.17-2.97 9.4-3.96 8.9-.52-.12-1.03-.22-1.3-.43-1.5-.7-1.56-3.92-2.52-5.26 0 1.1-.26 2.63-.6 2.23-1.37-1.63-2.34-3.63-2.34-5.78 0-5.52 3.4-8.74 1.7-11.88 1.43.68 5 5 5 6.2 1.1-2.3-.23-3.48-.67-5.34-.4-1.8.1-3.15.92-5.27.18 6.47 5.84 8.9 5.84 12.22.68-.68 2.55-2.3 1.95-5.26-.34-1.78-.8-3.52 0-4.32 0 2.12 3.2 4.2 3.9 8.4.23 1.4.18 4.24.08 5.42-.17 2.06-1.12 3.96-2.4 5.53z" transform="matrix(.471 0 0 .471 57.973 33.796)"/><path fill="url(#u)" d="M-35.34-19.47c-1.1-3.57-4.78-6.76-4.78-9.1 0-1.42.4-2.72 1-4.45 1.2 5.96 3.48 7.2 3.98 10.18.22 1.27.05 2.43-.2 3.37z" transform="matrix(.471 0 0 .471 57.973 33.796)"/></g><g><path fill="url(#v)" stroke="#99140d" stroke-width="1.781" d="M-39-.76c-5.97 0-16.87-3.65-16.87-15.5 0-1.18.1-2.55.33-4-.18 1.37 3.54 5.83 3.54 3.62 0-1.6-2.5-5.76-2.5-8.2 0-4.65 2.56-5.54 4.77-8.7-.7 2.32-1.62 5.65 1.2 7.7 0 0 3.47 0 3.9-6.67.44-6.68-4.06-6.76-4.06-13.6 1.57 4.5 12.6 6.32 16.33 14.8 0-1.2-.17-5.84-2.72-8.4 3.14 1.13 6.24 3.5 9 8.92 1.7 3.3.7 7.93 2.05 9.86.78-.78.6-3.1.95-4.2.62 2.3.97 6.3.97 8.85C-22.13-4.4-32.46-.77-39-.77z" transform="matrix(.561 0 0 .561 53.157 48.078)"/><path fill="url(#w)" d="M-41.6-33.38c0 .34 0 .7-.03 1.06-.6 9.36-6.63 9.47-6.9 9.47h-.96l-.77-.57c-.47-.34-.83-.72-1.17-1.1.13.86.73 2.36 1.16 3.42.7 1.76 1.28 3.15 1.28 4.46 0 2.06-1.28 2.95-1.83 3.23-.3.15-.9.37-1.66.35C-50.63-5.53-42.4-2-39-2c.57 0 11.98.1 13.42-10.6.5-3.55.18-4.9.1-5.5-.23.5-.44 1.27-1.04 1.87-1.4-1.7-1.24-6.55-1.4-8.64-.1-1.65-.23-3.36-.84-4.54-.34-.67-.68-1.27-1-1.82 0 3.2-1.72 4.74-3.02 7.6-.72-5.94-6.56-11.78-9.42-13.57.35 1.08.6 2.3.6 3.82z" transform="matrix(.561 0 0 .561 53.157 48.078)"/><path fill="url(#x)" d="M-31.6-5.7c-.54.64-.57-.87-.2-2.84-2.47 2.47-1.64 4.98-4 6.05-4.24 1.26 1.44-4.8-1.44-8.56 0 3.17-2.97 9.4-3.96 8.9-.52-.12-1.03-.22-1.3-.43-1.5-.7-1.56-3.92-2.52-5.26 0 1.1-.26 2.63-.6 2.23-1.37-1.63-2.34-3.63-2.34-5.78 0-5.52 3.4-8.74 1.7-11.88 1.43.68 5 5 5 6.2 1.1-2.3-.23-3.48-.67-5.34-.4-1.8.1-3.15.92-5.27.18 6.47 5.84 8.9 5.84 12.22.68-.68 2.55-2.3 1.95-5.26-.34-1.78-.8-3.52 0-4.32 0 2.12 3.2 4.2 3.9 8.4.23 1.4.18 4.24.08 5.42-.17 2.06-1.12 3.96-2.4 5.53z" transform="matrix(.561 0 0 .561 53.157 48.078)"/><path fill="url(#y)" d="M-35.34-19.47c-1.1-3.57-4.78-6.76-4.78-9.1 0-1.42.4-2.72 1-4.45 1.2 5.96 3.48 7.2 3.98 10.18.22 1.27.05 2.43-.2 3.37z" transform="matrix(.561 0 0 .561 53.157 48.078)"/></g><g><path fill="url(#z)" stroke="#99140d" stroke-width="1.862" d="M-39-.76c-5.97 0-16.87-3.65-16.87-15.5 0-1.18.1-2.55.33-4-.18 1.37 3.54 5.83 3.54 3.62 0-1.6-2.5-5.76-2.5-8.2 0-4.65 2.56-5.54 4.77-8.7-.7 2.32-1.62 5.65 1.2 7.7 0 0 3.47 0 3.9-6.67.44-6.68-4.06-6.76-4.06-13.6 1.57 4.5 12.6 6.32 16.33 14.8 0-1.2-.17-5.84-2.72-8.4 3.14 1.13 6.24 3.5 9 8.92 1.7 3.3.7 7.93 2.05 9.86.78-.78.6-3.1.95-4.2.62 2.3.97 6.3.97 8.85C-22.13-4.4-32.46-.77-39-.77z" transform="matrix(.537 0 0 .537 36.308 47.337)"/><path fill="url(#A)" d="M-41.6-33.38c0 .34 0 .7-.03 1.06-.6 9.36-6.63 9.47-6.9 9.47h-.96l-.77-.57c-.47-.34-.83-.72-1.17-1.1.13.86.73 2.36 1.16 3.42.7 1.76 1.28 3.15 1.28 4.46 0 2.06-1.28 2.95-1.83 3.23-.3.15-.9.37-1.66.35C-50.63-5.53-42.4-2-39-2c.57 0 11.98.1 13.42-10.6.5-3.55.18-4.9.1-5.5-.23.5-.44 1.27-1.04 1.87-1.4-1.7-1.24-6.55-1.4-8.64-.1-1.65-.23-3.36-.84-4.54-.34-.67-.68-1.27-1-1.82 0 3.2-1.72 4.74-3.02 7.6-.72-5.94-6.56-11.78-9.42-13.57.35 1.08.6 2.3.6 3.82z" transform="matrix(.537 0 0 .537 36.308 47.337)"/><path fill="url(#B)" d="M-31.6-5.7c-.54.64-.57-.87-.2-2.84-2.47 2.47-1.64 4.98-4 6.05-4.24 1.26 1.44-4.8-1.44-8.56 0 3.17-2.97 9.4-3.96 8.9-.52-.12-1.03-.22-1.3-.43-1.5-.7-1.56-3.92-2.52-5.26 0 1.1-.26 2.63-.6 2.23-1.37-1.63-2.34-3.63-2.34-5.78 0-5.52 3.4-8.74 1.7-11.88 1.43.68 5 5 5 6.2 1.1-2.3-.23-3.48-.67-5.34-.4-1.8.1-3.15.92-5.27.18 6.47 5.84 8.9 5.84 12.22.68-.68 2.55-2.3 1.95-5.26-.34-1.78-.8-3.52 0-4.32 0 2.12 3.2 4.2 3.9 8.4.23 1.4.18 4.24.08 5.42-.17 2.06-1.12 3.96-2.4 5.53z" transform="matrix(.537 0 0 .537 36.308 47.337)"/><path fill="url(#C)" d="M-35.34-19.47c-1.1-3.57-4.78-6.76-4.78-9.1 0-1.42.4-2.72 1-4.45 1.2 5.96 3.48 7.2 3.98 10.18.22 1.27.05 2.43-.2 3.37z" transform="matrix(.537 0 0 .537 36.308 47.337)"/></g></g></svg>