<svg xmlns="http://www.w3.org/2000/svg" width="48" height="48" xmlns:xlink="http://www.w3.org/1999/xlink"><defs><linearGradient id="d"><stop offset="0" stop-color="#8f8b02"/><stop offset="1" stop-color="#8f5902" stop-opacity="0"/></linearGradient><linearGradient id="b"><stop offset="0" stop-color="#875504"/><stop offset="1"/></linearGradient><linearGradient id="c"><stop offset="0" stop-color="#fdffa8"/><stop offset="1" stop-color="#fff" stop-opacity="0"/></linearGradient><linearGradient id="a"><stop offset="0" stop-color="#ebde39"/><stop offset="1" stop-color="#c9a400"/></linearGradient><radialGradient id="bp" cx="18.643" cy="11.254" r="7.018" xlink:href="#a" gradientUnits="userSpaceOnUse" gradientTransform="matrix(1 0 0 .573 0 5.771)" fx="18.643" fy="11.254"/><linearGradient id="bq" x1="13.893" x2="27.679" y1="13.5" y2="13.5" xlink:href="#b" gradientUnits="userSpaceOnUse"/><radialGradient id="br" cx="18.643" cy="11.254" r="7.018" xlink:href="#a" gradientUnits="userSpaceOnUse" gradientTransform="matrix(.935 0 0 .496 1.341 6.798)" fx="18.643" fy="11.254"/><linearGradient id="bs" x1="14.321" x2="27.25" y1="13.5" y2="13.5" xlink:href="#c" gradientUnits="userSpaceOnUse"/><radialGradient id="x" cx="18.643" cy="11.254" r="7.018" xlink:href="#a" gradientUnits="userSpaceOnUse" gradientTransform="matrix(1 0 0 .573 0 5.771)" fx="18.643" fy="11.254"/><linearGradient id="y" x1="13.893" x2="27.679" y1="13.5" y2="13.5" xlink:href="#b" gradientUnits="userSpaceOnUse"/><radialGradient id="z" cx="18.643" cy="11.254" r="7.018" xlink:href="#a" gradientUnits="userSpaceOnUse" gradientTransform="matrix(.935 0 0 .496 1.341 6.798)" fx="18.643" fy="11.254"/><linearGradient id="A" x1="14.321" x2="27.25" y1="13.5" y2="13.5" xlink:href="#c" gradientUnits="userSpaceOnUse"/><radialGradient id="t" cx="18.643" cy="11.254" r="7.018" xlink:href="#a" gradientUnits="userSpaceOnUse" gradientTransform="matrix(1 0 0 .573 0 5.771)" fx="18.643" fy="11.254"/><linearGradient id="u" x1="13.893" x2="27.679" y1="13.5" y2="13.5" xlink:href="#b" gradientUnits="userSpaceOnUse"/><radialGradient id="v" cx="18.643" cy="11.254" r="7.018" xlink:href="#a" gradientUnits="userSpaceOnUse" gradientTransform="matrix(.935 0 0 .496 1.341 6.798)" fx="18.643" fy="11.254"/><linearGradient id="w" x1="14.321" x2="27.25" y1="13.5" y2="13.5" xlink:href="#c" gradientUnits="userSpaceOnUse"/><radialGradient id="p" cx="18.643" cy="11.254" r="7.018" xlink:href="#a" gradientUnits="userSpaceOnUse" gradientTransform="matrix(1 0 0 .573 0 5.771)" fx="18.643" fy="11.254"/><linearGradient id="q" x1="13.893" x2="27.679" y1="13.5" y2="13.5" xlink:href="#b" gradientUnits="userSpaceOnUse"/><radialGradient id="r" cx="18.643" cy="11.254" r="7.018" xlink:href="#a" gradientUnits="userSpaceOnUse" gradientTransform="matrix(.935 0 0 .496 1.341 6.798)" fx="18.643" fy="11.254"/><linearGradient id="s" x1="14.321" x2="27.25" y1="13.5" y2="13.5" xlink:href="#c" gradientUnits="userSpaceOnUse"/><radialGradient id="ax" cx="18.643" cy="11.254" r="7.018" xlink:href="#a" gradientUnits="userSpaceOnUse" gradientTransform="matrix(1 0 0 .573 0 5.771)" fx="18.643" fy="11.254"/><linearGradient id="ay" x1="13.893" x2="27.679" y1="13.5" y2="13.5" xlink:href="#b" gradientUnits="userSpaceOnUse"/><radialGradient id="az" cx="18.643" cy="11.254" r="7.018" xlink:href="#a" gradientUnits="userSpaceOnUse" gradientTransform="matrix(.935 0 0 .496 1.341 6.798)" fx="18.643" fy="11.254"/><linearGradient id="aA" x1="14.321" x2="27.25" y1="13.5" y2="13.5" xlink:href="#c" gradientUnits="userSpaceOnUse"/><radialGradient id="B" cx="18.643" cy="11.254" r="7.018" xlink:href="#a" gradientUnits="userSpaceOnUse" gradientTransform="matrix(1 0 0 .573 0 5.771)" fx="18.643" fy="11.254"/><linearGradient id="C" x1="13.893" x2="27.679" y1="13.5" y2="13.5" xlink:href="#b" gradientUnits="userSpaceOnUse"/><radialGradient id="D" cx="18.643" cy="11.254" r="7.018" xlink:href="#a" gradientUnits="userSpaceOnUse" gradientTransform="matrix(.935 0 0 .496 1.341 6.798)" fx="18.643" fy="11.254"/><linearGradient id="E" x1="14.321" x2="27.25" y1="13.5" y2="13.5" xlink:href="#c" gradientUnits="userSpaceOnUse"/><radialGradient id="F" cx="18.643" cy="11.254" r="7.018" xlink:href="#a" gradientUnits="userSpaceOnUse" gradientTransform="matrix(1 0 0 .573 0 5.771)" fx="18.643" fy="11.254"/><linearGradient id="G" x1="13.893" x2="27.679" y1="13.5" y2="13.5" xlink:href="#b" gradientUnits="userSpaceOnUse"/><radialGradient id="H" cx="18.643" cy="11.254" r="7.018" xlink:href="#a" gradientUnits="userSpaceOnUse" gradientTransform="matrix(.935 0 0 .496 1.341 6.798)" fx="18.643" fy="11.254"/><linearGradient id="I" x1="14.321" x2="27.25" y1="13.5" y2="13.5" xlink:href="#c" gradientUnits="userSpaceOnUse"/><radialGradient id="J" cx="18.643" cy="11.254" r="7.018" xlink:href="#a" gradientUnits="userSpaceOnUse" gradientTransform="matrix(1 0 0 .573 0 5.771)" fx="18.643" fy="11.254"/><linearGradient id="K" x1="13.893" x2="27.679" y1="13.5" y2="13.5" xlink:href="#b" gradientUnits="userSpaceOnUse"/><radialGradient id="L" cx="18.643" cy="11.254" r="7.018" xlink:href="#a" gradientUnits="userSpaceOnUse" gradientTransform="matrix(.935 0 0 .496 1.341 6.798)" fx="18.643" fy="11.254"/><linearGradient id="M" x1="14.321" x2="27.25" y1="13.5" y2="13.5" xlink:href="#c" gradientUnits="userSpaceOnUse"/><radialGradient id="N" cx="18.643" cy="11.254" r="7.018" xlink:href="#a" gradientUnits="userSpaceOnUse" gradientTransform="matrix(1 0 0 .573 0 5.771)" fx="18.643" fy="11.254"/><linearGradient id="O" x1="13.893" x2="27.679" y1="13.5" y2="13.5" xlink:href="#b" gradientUnits="userSpaceOnUse"/><radialGradient id="P" cx="18.643" cy="11.254" r="7.018" xlink:href="#a" gradientUnits="userSpaceOnUse" gradientTransform="matrix(.935 0 0 .496 1.341 6.798)" fx="18.643" fy="11.254"/><linearGradient id="Q" x1="14.321" x2="27.25" y1="13.5" y2="13.5" xlink:href="#c" gradientUnits="userSpaceOnUse"/><radialGradient id="ah" cx="18.643" cy="11.254" r="7.018" xlink:href="#a" gradientUnits="userSpaceOnUse" gradientTransform="matrix(1 0 0 .573 0 5.771)" fx="18.643" fy="11.254"/><linearGradient id="ai" x1="13.893" x2="27.679" y1="13.5" y2="13.5" xlink:href="#b" gradientUnits="userSpaceOnUse"/><radialGradient id="aj" cx="18.643" cy="11.254" r="7.018" xlink:href="#a" gradientUnits="userSpaceOnUse" gradientTransform="matrix(.935 0 0 .496 1.341 6.798)" fx="18.643" fy="11.254"/><linearGradient id="ak" x1="14.321" x2="27.25" y1="13.5" y2="13.5" xlink:href="#c" gradientUnits="userSpaceOnUse"/><radialGradient id="ad" cx="18.643" cy="11.254" r="7.018" xlink:href="#a" gradientUnits="userSpaceOnUse" gradientTransform="matrix(1 0 0 .573 0 5.771)" fx="18.643" fy="11.254"/><linearGradient id="ae" x1="13.893" x2="27.679" y1="13.5" y2="13.5" xlink:href="#b" gradientUnits="userSpaceOnUse"/><radialGradient id="af" cx="18.643" cy="11.254" r="7.018" xlink:href="#a" gradientUnits="userSpaceOnUse" gradientTransform="matrix(.935 0 0 .496 1.341 6.798)" fx="18.643" fy="11.254"/><linearGradient id="ag" x1="14.321" x2="27.25" y1="13.5" y2="13.5" xlink:href="#c" gradientUnits="userSpaceOnUse"/><radialGradient id="R" cx="18.643" cy="11.254" r="7.018" xlink:href="#a" gradientUnits="userSpaceOnUse" gradientTransform="matrix(1 0 0 .573 0 5.771)" fx="18.643" fy="11.254"/><linearGradient id="S" x1="13.893" x2="27.679" y1="13.5" y2="13.5" xlink:href="#b" gradientUnits="userSpaceOnUse"/><radialGradient id="T" cx="18.643" cy="11.254" r="7.018" xlink:href="#a" gradientUnits="userSpaceOnUse" gradientTransform="matrix(.935 0 0 .496 1.341 6.798)" fx="18.643" fy="11.254"/><linearGradient id="U" x1="14.321" x2="27.25" y1="13.5" y2="13.5" xlink:href="#c" gradientUnits="userSpaceOnUse"/><radialGradient id="V" cx="18.643" cy="11.254" r="7.018" xlink:href="#a" gradientUnits="userSpaceOnUse" gradientTransform="matrix(1 0 0 .573 0 5.771)" fx="18.643" fy="11.254"/><linearGradient id="W" x1="13.893" x2="27.679" y1="13.5" y2="13.5" xlink:href="#b" gradientUnits="userSpaceOnUse"/><radialGradient id="X" cx="18.643" cy="11.254" r="7.018" xlink:href="#a" gradientUnits="userSpaceOnUse" gradientTransform="matrix(.935 0 0 .496 1.341 6.798)" fx="18.643" fy="11.254"/><linearGradient id="Y" x1="14.321" x2="27.25" y1="13.5" y2="13.5" xlink:href="#c" gradientUnits="userSpaceOnUse"/><radialGradient id="Z" cx="18.643" cy="11.254" r="7.018" xlink:href="#a" gradientUnits="userSpaceOnUse" gradientTransform="matrix(1 0 0 .573 0 5.771)" fx="18.643" fy="11.254"/><linearGradient id="aa" x1="13.893" x2="27.679" y1="13.5" y2="13.5" xlink:href="#b" gradientUnits="userSpaceOnUse"/><radialGradient id="ab" cx="18.643" cy="11.254" r="7.018" xlink:href="#a" gradientUnits="userSpaceOnUse" gradientTransform="matrix(.935 0 0 .496 1.341 6.798)" fx="18.643" fy="11.254"/><linearGradient id="ac" x1="14.321" x2="27.25" y1="13.5" y2="13.5" xlink:href="#c" gradientUnits="userSpaceOnUse"/><radialGradient id="at" cx="18.643" cy="11.254" r="7.018" xlink:href="#a" gradientUnits="userSpaceOnUse" gradientTransform="matrix(1 0 0 .573 0 5.771)" fx="18.643" fy="11.254"/><linearGradient id="au" x1="13.893" x2="27.679" y1="13.5" y2="13.5" xlink:href="#b" gradientUnits="userSpaceOnUse"/><radialGradient id="av" cx="18.643" cy="11.254" r="7.018" xlink:href="#a" gradientUnits="userSpaceOnUse" gradientTransform="matrix(.935 0 0 .496 1.341 6.798)" fx="18.643" fy="11.254"/><linearGradient id="aw" x1="14.321" x2="27.25" y1="13.5" y2="13.5" xlink:href="#c" gradientUnits="userSpaceOnUse"/><radialGradient id="ap" cx="18.643" cy="11.254" r="7.018" xlink:href="#a" gradientUnits="userSpaceOnUse" gradientTransform="matrix(1 0 0 .573 0 5.771)" fx="18.643" fy="11.254"/><linearGradient id="aq" x1="13.893" x2="27.679" y1="13.5" y2="13.5" xlink:href="#b" gradientUnits="userSpaceOnUse"/><radialGradient id="ar" cx="18.643" cy="11.254" r="7.018" xlink:href="#a" gradientUnits="userSpaceOnUse" gradientTransform="matrix(.935 0 0 .496 1.341 6.798)" fx="18.643" fy="11.254"/><linearGradient id="as" x1="14.321" x2="27.25" y1="13.5" y2="13.5" xlink:href="#c" gradientUnits="userSpaceOnUse"/><radialGradient id="al" cx="18.643" cy="11.254" r="7.018" xlink:href="#a" gradientUnits="userSpaceOnUse" gradientTransform="matrix(1 0 0 .573 0 5.771)" fx="18.643" fy="11.254"/><linearGradient id="am" x1="13.893" x2="27.679" y1="13.5" y2="13.5" xlink:href="#b" gradientUnits="userSpaceOnUse"/><radialGradient id="an" cx="18.643" cy="11.254" r="7.018" xlink:href="#a" gradientUnits="userSpaceOnUse" gradientTransform="matrix(.935 0 0 .496 1.341 6.798)" fx="18.643" fy="11.254"/><linearGradient id="ao" x1="14.321" x2="27.25" y1="13.5" y2="13.5" xlink:href="#c" gradientUnits="userSpaceOnUse"/><radialGradient id="aB" cx="18.643" cy="11.254" r="7.018" xlink:href="#a" gradientUnits="userSpaceOnUse" gradientTransform="matrix(1 0 0 .573 0 5.771)" fx="18.643" fy="11.254"/><linearGradient id="aC" x1="13.893" x2="27.679" y1="13.5" y2="13.5" xlink:href="#b" gradientUnits="userSpaceOnUse"/><radialGradient id="aD" cx="18.643" cy="11.254" r="7.018" xlink:href="#a" gradientUnits="userSpaceOnUse" gradientTransform="matrix(.935 0 0 .496 1.341 6.798)" fx="18.643" fy="11.254"/><linearGradient id="aE" x1="14.321" x2="27.25" y1="13.5" y2="13.5" xlink:href="#c" gradientUnits="userSpaceOnUse"/><radialGradient id="aF" cx="18.643" cy="11.254" r="7.018" xlink:href="#a" gradientUnits="userSpaceOnUse" gradientTransform="matrix(1 0 0 .573 0 5.771)" fx="18.643" fy="11.254"/><linearGradient id="aG" x1="13.893" x2="27.679" y1="13.5" y2="13.5" xlink:href="#b" gradientUnits="userSpaceOnUse"/><radialGradient id="aH" cx="18.643" cy="11.254" r="7.018" xlink:href="#a" gradientUnits="userSpaceOnUse" gradientTransform="matrix(.935 0 0 .496 1.341 6.798)" fx="18.643" fy="11.254"/><linearGradient id="aI" x1="14.321" x2="27.25" y1="13.5" y2="13.5" xlink:href="#c" gradientUnits="userSpaceOnUse"/><radialGradient id="aJ" cx="18.643" cy="11.254" r="7.018" xlink:href="#a" gradientUnits="userSpaceOnUse" gradientTransform="matrix(1 0 0 .573 0 5.771)" fx="18.643" fy="11.254"/><linearGradient id="aK" x1="13.893" x2="27.679" y1="13.5" y2="13.5" xlink:href="#b" gradientUnits="userSpaceOnUse"/><radialGradient id="aL" cx="18.643" cy="11.254" r="7.018" xlink:href="#a" gradientUnits="userSpaceOnUse" gradientTransform="matrix(.935 0 0 .496 1.341 6.798)" fx="18.643" fy="11.254"/><linearGradient id="aM" x1="14.321" x2="27.25" y1="13.5" y2="13.5" xlink:href="#c" gradientUnits="userSpaceOnUse"/><radialGradient id="aR" cx="18.643" cy="11.254" r="7.018" xlink:href="#a" gradientUnits="userSpaceOnUse" gradientTransform="matrix(1 0 0 .573 0 5.771)" fx="18.643" fy="11.254"/><linearGradient id="aS" x1="13.893" x2="27.679" y1="13.5" y2="13.5" xlink:href="#b" gradientUnits="userSpaceOnUse"/><radialGradient id="aT" cx="18.643" cy="11.254" r="7.018" xlink:href="#a" gradientUnits="userSpaceOnUse" gradientTransform="matrix(.935 0 0 .496 1.341 6.798)" fx="18.643" fy="11.254"/><linearGradient id="aU" x1="14.321" x2="27.25" y1="13.5" y2="13.5" xlink:href="#c" gradientUnits="userSpaceOnUse"/><radialGradient id="aN" cx="18.643" cy="11.254" r="7.018" xlink:href="#a" gradientUnits="userSpaceOnUse" gradientTransform="matrix(1 0 0 .573 0 5.771)" fx="18.643" fy="11.254"/><linearGradient id="aO" x1="13.893" x2="27.679" y1="13.5" y2="13.5" xlink:href="#b" gradientUnits="userSpaceOnUse"/><radialGradient id="aP" cx="18.643" cy="11.254" r="7.018" xlink:href="#a" gradientUnits="userSpaceOnUse" gradientTransform="matrix(.935 0 0 .496 1.341 6.798)" fx="18.643" fy="11.254"/><linearGradient id="aQ" x1="14.321" x2="27.25" y1="13.5" y2="13.5" xlink:href="#c" gradientUnits="userSpaceOnUse"/><radialGradient id="aV" cx="18.643" cy="11.254" r="7.018" xlink:href="#a" gradientUnits="userSpaceOnUse" gradientTransform="matrix(1 0 0 .573 0 5.771)" fx="18.643" fy="11.254"/><linearGradient id="aW" x1="13.893" x2="27.679" y1="13.5" y2="13.5" xlink:href="#b" gradientUnits="userSpaceOnUse"/><radialGradient id="aX" cx="18.643" cy="11.254" r="7.018" xlink:href="#a" gradientUnits="userSpaceOnUse" gradientTransform="matrix(.935 0 0 .496 1.341 6.798)" fx="18.643" fy="11.254"/><linearGradient id="aY" x1="14.321" x2="27.25" y1="13.5" y2="13.5" xlink:href="#c" gradientUnits="userSpaceOnUse"/><radialGradient id="aZ" cx="18.643" cy="11.254" r="7.018" xlink:href="#a" gradientUnits="userSpaceOnUse" gradientTransform="matrix(1 0 0 .573 0 5.771)" fx="18.643" fy="11.254"/><linearGradient id="ba" x1="13.893" x2="27.679" y1="13.5" y2="13.5" xlink:href="#b" gradientUnits="userSpaceOnUse"/><radialGradient id="bb" cx="18.643" cy="11.254" r="7.018" xlink:href="#a" gradientUnits="userSpaceOnUse" gradientTransform="matrix(.935 0 0 .496 1.341 6.798)" fx="18.643" fy="11.254"/><linearGradient id="bc" x1="14.321" x2="27.25" y1="13.5" y2="13.5" xlink:href="#c" gradientUnits="userSpaceOnUse"/><radialGradient id="bd" cx="18.643" cy="11.254" r="7.018" xlink:href="#a" gradientUnits="userSpaceOnUse" gradientTransform="matrix(1 0 0 .573 0 5.771)" fx="18.643" fy="11.254"/><linearGradient id="be" x1="13.893" x2="27.679" y1="13.5" y2="13.5" xlink:href="#b" gradientUnits="userSpaceOnUse"/><radialGradient id="bf" cx="18.643" cy="11.254" r="7.018" xlink:href="#a" gradientUnits="userSpaceOnUse" gradientTransform="matrix(.935 0 0 .496 1.341 6.798)" fx="18.643" fy="11.254"/><linearGradient id="bg" x1="14.321" x2="27.25" y1="13.5" y2="13.5" xlink:href="#c" gradientUnits="userSpaceOnUse"/><radialGradient id="bh" cx="18.643" cy="11.254" r="7.018" xlink:href="#a" gradientUnits="userSpaceOnUse" gradientTransform="matrix(1 0 0 .573 0 5.771)" fx="18.643" fy="11.254"/><linearGradient id="bi" x1="13.893" x2="27.679" y1="13.5" y2="13.5" xlink:href="#b" gradientUnits="userSpaceOnUse"/><radialGradient id="bj" cx="18.643" cy="11.254" r="7.018" xlink:href="#a" gradientUnits="userSpaceOnUse" gradientTransform="matrix(.935 0 0 .496 1.341 6.798)" fx="18.643" fy="11.254"/><linearGradient id="bk" x1="14.321" x2="27.25" y1="13.5" y2="13.5" xlink:href="#c" gradientUnits="userSpaceOnUse"/><radialGradient id="bl" cx="18.643" cy="11.254" r="7.018" xlink:href="#a" gradientUnits="userSpaceOnUse" gradientTransform="matrix(1 0 0 .573 0 5.771)" fx="18.643" fy="11.254"/><linearGradient id="bm" x1="13.893" x2="27.679" y1="13.5" y2="13.5" xlink:href="#b" gradientUnits="userSpaceOnUse"/><radialGradient id="bn" cx="18.643" cy="11.254" r="7.018" xlink:href="#a" gradientUnits="userSpaceOnUse" gradientTransform="matrix(.935 0 0 .496 1.341 6.798)" fx="18.643" fy="11.254"/><linearGradient id="bo" x1="14.321" x2="27.25" y1="13.5" y2="13.5" xlink:href="#c" gradientUnits="userSpaceOnUse"/><radialGradient id="l" cx="18.643" cy="11.254" r="7.018" xlink:href="#a" gradientUnits="userSpaceOnUse" gradientTransform="matrix(1 0 0 .573 0 5.771)" fx="18.643" fy="11.254"/><linearGradient id="m" x1="13.893" x2="27.679" y1="13.5" y2="13.5" xlink:href="#b" gradientUnits="userSpaceOnUse"/><radialGradient id="n" cx="18.643" cy="11.254" r="7.018" xlink:href="#a" gradientUnits="userSpaceOnUse" gradientTransform="matrix(.935 0 0 .496 1.341 6.798)" fx="18.643" fy="11.254"/><linearGradient id="o" x1="14.321" x2="27.25" y1="13.5" y2="13.5" xlink:href="#c" gradientUnits="userSpaceOnUse"/><radialGradient id="bt" cx="18.643" cy="11.254" r="7.018" xlink:href="#a" gradientUnits="userSpaceOnUse" gradientTransform="matrix(1 0 0 .573 0 5.771)" fx="18.643" fy="11.254"/><linearGradient id="bu" x1="13.893" x2="27.679" y1="13.5" y2="13.5" xlink:href="#b" gradientUnits="userSpaceOnUse"/><radialGradient id="bv" cx="18.643" cy="11.254" r="7.018" xlink:href="#a" gradientUnits="userSpaceOnUse" gradientTransform="matrix(.935 0 0 .496 1.341 6.798)" fx="18.643" fy="11.254"/><linearGradient id="bw" x1="14.321" x2="27.25" y1="13.5" y2="13.5" xlink:href="#c" gradientUnits="userSpaceOnUse"/><radialGradient id="bx" cx="18.643" cy="11.254" r="7.018" xlink:href="#a" gradientUnits="userSpaceOnUse" gradientTransform="matrix(1 0 0 .573 0 5.771)" fx="18.643" fy="11.254"/><linearGradient id="by" x1="13.893" x2="27.679" y1="13.5" y2="13.5" xlink:href="#b" gradientUnits="userSpaceOnUse"/><radialGradient id="bz" cx="18.643" cy="11.254" r="7.018" xlink:href="#a" gradientUnits="userSpaceOnUse" gradientTransform="matrix(.935 0 0 .496 1.341 6.798)" fx="18.643" fy="11.254"/><linearGradient id="bA" x1="14.321" x2="27.25" y1="13.5" y2="13.5" xlink:href="#c" gradientUnits="userSpaceOnUse"/><linearGradient id="k" x1="29.143" x2="31.416" y1="15.17" y2="7.139" xlink:href="#d" gradientUnits="userSpaceOnUse"/><linearGradient id="j" x1="29.143" x2="31.416" y1="15.17" y2="7.139" xlink:href="#d" gradientUnits="userSpaceOnUse" gradientTransform="matrix(-.754 0 0 1 41.175 -5.051)"/><linearGradient id="i" x1="29.143" x2="31.416" y1="15.17" y2="7.139" xlink:href="#d" gradientUnits="userSpaceOnUse" gradientTransform="matrix(-.6 0 0 1 40.136 7.425)"/><radialGradient id="e" cx="18.643" cy="11.254" r="7.018" xlink:href="#a" gradientUnits="userSpaceOnUse" gradientTransform="matrix(1 0 0 .573 0 5.771)" fx="18.643" fy="11.254"/><linearGradient id="f" x1="13.893" x2="27.679" y1="13.5" y2="13.5" xlink:href="#b" gradientUnits="userSpaceOnUse"/><radialGradient id="g" cx="18.643" cy="11.254" r="7.018" xlink:href="#a" gradientUnits="userSpaceOnUse" gradientTransform="matrix(.935 0 0 .496 1.341 6.798)" fx="18.643" fy="11.254"/><linearGradient id="h" x1="14.321" x2="27.25" y1="13.5" y2="13.5" xlink:href="#c" gradientUnits="userSpaceOnUse"/></defs><g><g stroke-width=".694" color="#000"><path fill="url(#e)" stroke="url(#f)" d="M17.8 9.86h6c2 0 3.63 1.62 3.63 3.64s-1.63 3.64-3.64 3.64h-6c-2.03 0-3.66-1.62-3.66-3.64s1.63-3.64 3.65-3.64z" overflow="visible" enable-background="accumulate" transform="matrix(-.434 .575 -.575 -.434 33.496 24.522)"/><path fill="url(#g)" stroke="url(#h)" d="M17.98 10.34h5.6c1.9 0 3.42 1.4 3.42 3.16 0 1.75-1.52 3.16-3.4 3.16h-5.62c-1.9 0-3.4-1.4-3.4-3.16 0-1.75 1.5-3.16 3.4-3.16z" overflow="visible" enable-background="accumulate" transform="matrix(-.434 .575 -.575 -.434 33.496 24.522)"/></g><path fill="url(#i)" d="M25.57 20.17L25.52 12 19.9 15.1v9.3z"/><path fill="url(#j)" d="M23.04 8.76L23-.7l-7.24 3.35v9.3z"/><path fill="url(#k)" d="M24.1 13.45v-9.1l9.6 3.35V17z"/><g stroke-width=".694" color="#000"><path fill="url(#l)" stroke="url(#m)" d="M17.8 9.86h6c2 0 3.63 1.62 3.63 3.64s-1.63 3.64-3.64 3.64h-6c-2.03 0-3.66-1.62-3.66-3.64s1.63-3.64 3.65-3.64z" overflow="visible" enable-background="accumulate" transform="matrix(.701 .167 -.167 .701 -5.497 27.417)"/><path fill="url(#n)" stroke="url(#o)" d="M17.98 10.34h5.6c1.9 0 3.42 1.4 3.42 3.16 0 1.75-1.52 3.16-3.4 3.16h-5.62c-1.9 0-3.4-1.4-3.4-3.16 0-1.75 1.5-3.16 3.4-3.16z" overflow="visible" enable-background="accumulate" transform="matrix(.701 .167 -.167 .701 -5.497 27.417)"/></g><g stroke-width=".84" color="#000"><path fill="url(#p)" stroke="url(#q)" d="M17.8 9.86h6c2 0 3.63 1.62 3.63 3.64s-1.63 3.64-3.64 3.64h-6c-2.03 0-3.66-1.62-3.66-3.64s1.63-3.64 3.65-3.64z" overflow="visible" enable-background="accumulate" transform="matrix(-.453 .386 -.386 -.453 34.036 8.346)"/><path fill="url(#r)" stroke="url(#s)" d="M17.98 10.34h5.6c1.9 0 3.42 1.4 3.42 3.16 0 1.75-1.52 3.16-3.4 3.16h-5.62c-1.9 0-3.4-1.4-3.4-3.16 0-1.75 1.5-3.16 3.4-3.16z" overflow="visible" enable-background="accumulate" transform="matrix(-.453 .386 -.386 -.453 34.036 8.346)"/></g><g stroke-width=".84" color="#000"><path fill="url(#t)" stroke="url(#u)" d="M17.8 9.86h6c2 0 3.63 1.62 3.63 3.64s-1.63 3.64-3.64 3.64h-6c-2.03 0-3.66-1.62-3.66-3.64s1.63-3.64 3.65-3.64z" overflow="visible" enable-background="accumulate" transform="matrix(-.152 .576 -.576 -.152 33.679 12.019)"/><path fill="url(#v)" stroke="url(#w)" d="M17.98 10.34h5.6c1.9 0 3.42 1.4 3.42 3.16 0 1.75-1.52 3.16-3.4 3.16h-5.62c-1.9 0-3.4-1.4-3.4-3.16 0-1.75 1.5-3.16 3.4-3.16z" overflow="visible" enable-background="accumulate" transform="matrix(-.152 .576 -.576 -.152 33.679 12.019)"/></g><g stroke-width=".875" color="#000"><path fill="url(#x)" stroke="url(#y)" d="M17.8 9.86h6c2 0 3.63 1.62 3.63 3.64s-1.63 3.64-3.64 3.64h-6c-2.03 0-3.66-1.62-3.66-3.64s1.63-3.64 3.65-3.64z" overflow="visible" enable-background="accumulate" transform="matrix(.379 .428 -.428 .379 29.707 15.896)"/><path fill="url(#z)" stroke="url(#A)" d="M17.98 10.34h5.6c1.9 0 3.42 1.4 3.42 3.16 0 1.75-1.52 3.16-3.4 3.16h-5.62c-1.9 0-3.4-1.4-3.4-3.16 0-1.75 1.5-3.16 3.4-3.16z" overflow="visible" enable-background="accumulate" transform="matrix(.379 .428 -.428 .379 29.707 15.896)"/></g><g stroke-width=".694" color="#000"><path fill="url(#B)" stroke="url(#C)" d="M17.8 9.86h6c2 0 3.63 1.62 3.63 3.64s-1.63 3.64-3.64 3.64h-6c-2.03 0-3.66-1.62-3.66-3.64s1.63-3.64 3.65-3.64z" overflow="visible" enable-background="accumulate" transform="matrix(.478 .539 -.539 .478 18.978 17.219)"/><path fill="url(#D)" stroke="url(#E)" d="M17.98 10.34h5.6c1.9 0 3.42 1.4 3.42 3.16 0 1.75-1.52 3.16-3.4 3.16h-5.62c-1.9 0-3.4-1.4-3.4-3.16 0-1.75 1.5-3.16 3.4-3.16z" overflow="visible" enable-background="accumulate" transform="matrix(.478 .539 -.539 .478 18.978 17.219)"/></g><g stroke-width=".694" color="#000"><path fill="url(#F)" stroke="url(#G)" d="M17.8 9.86h6c2 0 3.63 1.62 3.63 3.64s-1.63 3.64-3.64 3.64h-6c-2.03 0-3.66-1.62-3.66-3.64s1.63-3.64 3.65-3.64z" overflow="visible" enable-background="accumulate" transform="matrix(-.332 .64 -.64 -.332 38.762 22.378)"/><path fill="url(#H)" stroke="url(#I)" d="M17.98 10.34h5.6c1.9 0 3.42 1.4 3.42 3.16 0 1.75-1.52 3.16-3.4 3.16h-5.62c-1.9 0-3.4-1.4-3.4-3.16 0-1.75 1.5-3.16 3.4-3.16z" overflow="visible" enable-background="accumulate" transform="matrix(-.332 .64 -.64 -.332 38.762 22.378)"/></g><g stroke-width=".694" color="#000"><path fill="url(#J)" stroke="url(#K)" d="M17.8 9.86h6c2 0 3.63 1.62 3.63 3.64s-1.63 3.64-3.64 3.64h-6c-2.03 0-3.66-1.62-3.66-3.64s1.63-3.64 3.65-3.64z" overflow="visible" enable-background="accumulate" transform="matrix(-.434 .575 -.575 -.434 36.274 27.098)"/><path fill="url(#L)" stroke="url(#M)" d="M17.98 10.34h5.6c1.9 0 3.42 1.4 3.42 3.16 0 1.75-1.52 3.16-3.4 3.16h-5.62c-1.9 0-3.4-1.4-3.4-3.16 0-1.75 1.5-3.16 3.4-3.16z" overflow="visible" enable-background="accumulate" transform="matrix(-.434 .575 -.575 -.434 36.274 27.098)"/></g><g stroke-width=".694" color="#000"><path fill="url(#N)" stroke="url(#O)" d="M17.8 9.86h6c2 0 3.63 1.62 3.63 3.64s-1.63 3.64-3.64 3.64h-6c-2.03 0-3.66-1.62-3.66-3.64s1.63-3.64 3.65-3.64z" overflow="visible" enable-background="accumulate" transform="matrix(.478 .539 -.539 .478 13.043 18.621)"/><path fill="url(#P)" stroke="url(#Q)" d="M17.98 10.34h5.6c1.9 0 3.42 1.4 3.42 3.16 0 1.75-1.52 3.16-3.4 3.16h-5.62c-1.9 0-3.4-1.4-3.4-3.16 0-1.75 1.5-3.16 3.4-3.16z" overflow="visible" enable-background="accumulate" transform="matrix(.478 .539 -.539 .478 13.043 18.621)"/></g><g stroke-width=".694" color="#000"><path fill="url(#R)" stroke="url(#S)" d="M17.8 9.86h6c2 0 3.63 1.62 3.63 3.64s-1.63 3.64-3.64 3.64h-6c-2.03 0-3.66-1.62-3.66-3.64s1.63-3.64 3.65-3.64z" overflow="visible" enable-background="accumulate" transform="matrix(-.035 .72 -.72 -.035 18.384 25.53)"/><path fill="url(#T)" stroke="url(#U)" d="M17.98 10.34h5.6c1.9 0 3.42 1.4 3.42 3.16 0 1.75-1.52 3.16-3.4 3.16h-5.62c-1.9 0-3.4-1.4-3.4-3.16 0-1.75 1.5-3.16 3.4-3.16z" overflow="visible" enable-background="accumulate" transform="matrix(-.035 .72 -.72 -.035 18.384 25.53)"/></g><g stroke-width=".694" color="#000"><path fill="url(#V)" stroke="url(#W)" d="M17.8 9.86h6c2 0 3.63 1.62 3.63 3.64s-1.63 3.64-3.64 3.64h-6c-2.03 0-3.66-1.62-3.66-3.64s1.63-3.64 3.65-3.64z" overflow="visible" enable-background="accumulate" transform="matrix(.181 .698 -.698 .181 16.13 18.876)"/><path fill="url(#X)" stroke="url(#Y)" d="M17.98 10.34h5.6c1.9 0 3.42 1.4 3.42 3.16 0 1.75-1.52 3.16-3.4 3.16h-5.62c-1.9 0-3.4-1.4-3.4-3.16 0-1.75 1.5-3.16 3.4-3.16z" overflow="visible" enable-background="accumulate" transform="matrix(.181 .698 -.698 .181 16.13 18.876)"/></g><g stroke-width=".694" color="#000"><path fill="url(#Z)" stroke="url(#aa)" d="M17.8 9.86h6c2 0 3.63 1.62 3.63 3.64s-1.63 3.64-3.64 3.64h-6c-2.03 0-3.66-1.62-3.66-3.64s1.63-3.64 3.65-3.64z" overflow="visible" enable-background="accumulate" transform="matrix(.662 .284 -.284 .662 4.798 17.788)"/><path fill="url(#ab)" stroke="url(#ac)" d="M17.98 10.34h5.6c1.9 0 3.42 1.4 3.42 3.16 0 1.75-1.52 3.16-3.4 3.16h-5.62c-1.9 0-3.4-1.4-3.4-3.16 0-1.75 1.5-3.16 3.4-3.16z" overflow="visible" enable-background="accumulate" transform="matrix(.662 .284 -.284 .662 4.798 17.788)"/></g><g stroke-width=".694" color="#000"><path fill="url(#ad)" stroke="url(#ae)" d="M17.8 9.86h6c2 0 3.63 1.62 3.63 3.64s-1.63 3.64-3.64 3.64h-6c-2.03 0-3.66-1.62-3.66-3.64s1.63-3.64 3.65-3.64z" overflow="visible" enable-background="accumulate" transform="matrix(-.465 .551 -.551 -.465 29.341 35.79)"/><path fill="url(#af)" stroke="url(#ag)" d="M17.98 10.34h5.6c1.9 0 3.42 1.4 3.42 3.16 0 1.75-1.52 3.16-3.4 3.16h-5.62c-1.9 0-3.4-1.4-3.4-3.16 0-1.75 1.5-3.16 3.4-3.16z" overflow="visible" enable-background="accumulate" transform="matrix(-.465 .551 -.551 -.465 29.341 35.79)"/></g><g stroke-width=".694" color="#000"><path fill="url(#ah)" stroke="url(#ai)" d="M17.8 9.86h6c2 0 3.63 1.62 3.63 3.64s-1.63 3.64-3.64 3.64h-6c-2.03 0-3.66-1.62-3.66-3.64s1.63-3.64 3.65-3.64z" overflow="visible" enable-background="accumulate" transform="matrix(.687 .217 -.217 .687 4.724 25.439)"/><path fill="url(#aj)" stroke="url(#ak)" d="M17.98 10.34h5.6c1.9 0 3.42 1.4 3.42 3.16 0 1.75-1.52 3.16-3.4 3.16h-5.62c-1.9 0-3.4-1.4-3.4-3.16 0-1.75 1.5-3.16 3.4-3.16z" overflow="visible" enable-background="accumulate" transform="matrix(.687 .217 -.217 .687 4.724 25.439)"/></g><g stroke-width=".694" color="#000"><path fill="url(#al)" stroke="url(#am)" d="M17.8 9.86h6c2 0 3.63 1.62 3.63 3.64s-1.63 3.64-3.64 3.64h-6c-2.03 0-3.66-1.62-3.66-3.64s1.63-3.64 3.65-3.64z" overflow="visible" enable-background="accumulate" transform="matrix(.297 .657 -.657 .297 31.998 15.59)"/><path fill="url(#an)" stroke="url(#ao)" d="M17.98 10.34h5.6c1.9 0 3.42 1.4 3.42 3.16 0 1.75-1.52 3.16-3.4 3.16h-5.62c-1.9 0-3.4-1.4-3.4-3.16 0-1.75 1.5-3.16 3.4-3.16z" overflow="visible" enable-background="accumulate" transform="matrix(.297 .657 -.657 .297 31.998 15.59)"/></g><g stroke-width=".694" color="#000"><path fill="url(#ap)" stroke="url(#aq)" d="M17.8 9.86h6c2 0 3.63 1.62 3.63 3.64s-1.63 3.64-3.64 3.64h-6c-2.03 0-3.66-1.62-3.66-3.64s1.63-3.64 3.65-3.64z" overflow="visible" enable-background="accumulate" transform="matrix(.478 .539 -.539 .478 21.828 15.864)"/><path fill="url(#ar)" stroke="url(#as)" d="M17.98 10.34h5.6c1.9 0 3.42 1.4 3.42 3.16 0 1.75-1.52 3.16-3.4 3.16h-5.62c-1.9 0-3.4-1.4-3.4-3.16 0-1.75 1.5-3.16 3.4-3.16z" overflow="visible" enable-background="accumulate" transform="matrix(.478 .539 -.539 .478 21.828 15.864)"/></g><g stroke-width=".694" color="#000"><path fill="url(#at)" stroke="url(#au)" d="M17.8 9.86h6c2 0 3.63 1.62 3.63 3.64s-1.63 3.64-3.64 3.64h-6c-2.03 0-3.66-1.62-3.66-3.64s1.63-3.64 3.65-3.64z" overflow="visible" enable-background="accumulate" transform="matrix(.069 .717 -.717 .069 27.555 20.117)"/><path fill="url(#av)" stroke="url(#aw)" d="M17.98 10.34h5.6c1.9 0 3.42 1.4 3.42 3.16 0 1.75-1.52 3.16-3.4 3.16h-5.62c-1.9 0-3.4-1.4-3.4-3.16 0-1.75 1.5-3.16 3.4-3.16z" overflow="visible" enable-background="accumulate" transform="matrix(.069 .717 -.717 .069 27.555 20.117)"/></g><g stroke-width=".694" color="#000"><path fill="url(#ax)" stroke="url(#ay)" d="M17.8 9.86h6c2 0 3.63 1.62 3.63 3.64s-1.63 3.64-3.64 3.64h-6c-2.03 0-3.66-1.62-3.66-3.64s1.63-3.64 3.65-3.64z" overflow="visible" enable-background="accumulate" transform="matrix(-.334 .638 -.638 -.334 45.098 25.277)"/><path fill="url(#az)" stroke="url(#aA)" d="M17.98 10.34h5.6c1.9 0 3.42 1.4 3.42 3.16 0 1.75-1.52 3.16-3.4 3.16h-5.62c-1.9 0-3.4-1.4-3.4-3.16 0-1.75 1.5-3.16 3.4-3.16z" overflow="visible" enable-background="accumulate" transform="matrix(-.334 .638 -.638 -.334 45.098 25.277)"/></g><g stroke-width=".694" color="#000"><path fill="url(#aB)" stroke="url(#aC)" d="M17.8 9.86h6c2 0 3.63 1.62 3.63 3.64s-1.63 3.64-3.64 3.64h-6c-2.03 0-3.66-1.62-3.66-3.64s1.63-3.64 3.65-3.64z" overflow="visible" enable-background="accumulate" transform="matrix(.478 .539 -.539 .478 22.996 20.678)"/><path fill="url(#aD)" stroke="url(#aE)" d="M17.98 10.34h5.6c1.9 0 3.42 1.4 3.42 3.16 0 1.75-1.52 3.16-3.4 3.16h-5.62c-1.9 0-3.4-1.4-3.4-3.16 0-1.75 1.5-3.16 3.4-3.16z" overflow="visible" enable-background="accumulate" transform="matrix(.478 .539 -.539 .478 22.996 20.678)"/></g><g stroke-width=".694" color="#000"><path fill="url(#aF)" stroke="url(#aG)" d="M17.8 9.86h6c2 0 3.63 1.62 3.63 3.64s-1.63 3.64-3.64 3.64h-6c-2.03 0-3.66-1.62-3.66-3.64s1.63-3.64 3.65-3.64z" overflow="visible" enable-background="accumulate" transform="matrix(-.404 .597 -.597 -.404 35.842 33.388)"/><path fill="url(#aH)" stroke="url(#aI)" d="M17.98 10.34h5.6c1.9 0 3.42 1.4 3.42 3.16 0 1.75-1.52 3.16-3.4 3.16h-5.62c-1.9 0-3.4-1.4-3.4-3.16 0-1.75 1.5-3.16 3.4-3.16z" overflow="visible" enable-background="accumulate" transform="matrix(-.404 .597 -.597 -.404 35.842 33.388)"/></g><g stroke-width=".694" color="#000"><path fill="url(#aJ)" stroke="url(#aK)" d="M17.8 9.86h6c2 0 3.63 1.62 3.63 3.64s-1.63 3.64-3.64 3.64h-6c-2.03 0-3.66-1.62-3.66-3.64s1.63-3.64 3.65-3.64z" overflow="visible" enable-background="accumulate" transform="matrix(.701 .167 -.167 .701 3.616 30.221)"/><path fill="url(#aL)" stroke="url(#aM)" d="M17.98 10.34h5.6c1.9 0 3.42 1.4 3.42 3.16 0 1.75-1.52 3.16-3.4 3.16h-5.62c-1.9 0-3.4-1.4-3.4-3.16 0-1.75 1.5-3.16 3.4-3.16z" overflow="visible" enable-background="accumulate" transform="matrix(.701 .167 -.167 .701 3.616 30.221)"/></g><g stroke-width=".694" color="#000"><path fill="url(#aN)" stroke="url(#aO)" d="M17.8 9.86h6c2 0 3.63 1.62 3.63 3.64s-1.63 3.64-3.64 3.64h-6c-2.03 0-3.66-1.62-3.66-3.64s1.63-3.64 3.65-3.64z" overflow="visible" enable-background="accumulate" transform="matrix(.623 .362 -.362 .623 28.119 18.471)"/><path fill="url(#aP)" stroke="url(#aQ)" d="M17.98 10.34h5.6c1.9 0 3.42 1.4 3.42 3.16 0 1.75-1.52 3.16-3.4 3.16h-5.62c-1.9 0-3.4-1.4-3.4-3.16 0-1.75 1.5-3.16 3.4-3.16z" overflow="visible" enable-background="accumulate" transform="matrix(.623 .362 -.362 .623 28.119 18.471)"/></g><g stroke-width=".694" color="#000"><path fill="url(#aR)" stroke="url(#aS)" d="M17.8 9.86h6c2 0 3.63 1.62 3.63 3.64s-1.63 3.64-3.64 3.64h-6c-2.03 0-3.66-1.62-3.66-3.64s1.63-3.64 3.65-3.64z" overflow="visible" enable-background="accumulate" transform="matrix(.173 .699 -.699 .173 36.961 19.917)"/><path fill="url(#aT)" stroke="url(#aU)" d="M17.98 10.34h5.6c1.9 0 3.42 1.4 3.42 3.16 0 1.75-1.52 3.16-3.4 3.16h-5.62c-1.9 0-3.4-1.4-3.4-3.16 0-1.75 1.5-3.16 3.4-3.16z" overflow="visible" enable-background="accumulate" transform="matrix(.173 .699 -.699 .173 36.961 19.917)"/></g><g stroke-width=".694" color="#000"><path fill="url(#aV)" stroke="url(#aW)" d="M17.8 9.86h6c2 0 3.63 1.62 3.63 3.64s-1.63 3.64-3.64 3.64h-6c-2.03 0-3.66-1.62-3.66-3.64s1.63-3.64 3.65-3.64z" overflow="visible" enable-background="accumulate" transform="matrix(.478 .539 -.539 .478 26.828 22.594)"/><path fill="url(#aX)" stroke="url(#aY)" d="M17.98 10.34h5.6c1.9 0 3.42 1.4 3.42 3.16 0 1.75-1.52 3.16-3.4 3.16h-5.62c-1.9 0-3.4-1.4-3.4-3.16 0-1.75 1.5-3.16 3.4-3.16z" overflow="visible" enable-background="accumulate" transform="matrix(.478 .539 -.539 .478 26.828 22.594)"/></g><g stroke-width=".694" color="#000"><path fill="url(#aZ)" stroke="url(#ba)" d="M17.8 9.86h6c2 0 3.63 1.62 3.63 3.64s-1.63 3.64-3.64 3.64h-6c-2.03 0-3.66-1.62-3.66-3.64s1.63-3.64 3.65-3.64z" overflow="visible" enable-background="accumulate" transform="matrix(-.211 .689 -.689 -.211 35.651 31.491)"/><path fill="url(#bb)" stroke="url(#bc)" d="M17.98 10.34h5.6c1.9 0 3.42 1.4 3.42 3.16 0 1.75-1.52 3.16-3.4 3.16h-5.62c-1.9 0-3.4-1.4-3.4-3.16 0-1.75 1.5-3.16 3.4-3.16z" overflow="visible" enable-background="accumulate" transform="matrix(-.211 .689 -.689 -.211 35.651 31.491)"/></g><g stroke-width=".694" color="#000"><path fill="url(#bd)" stroke="url(#be)" d="M17.8 9.86h6c2 0 3.63 1.62 3.63 3.64s-1.63 3.64-3.64 3.64h-6c-2.03 0-3.66-1.62-3.66-3.64s1.63-3.64 3.65-3.64z" overflow="visible" enable-background="accumulate" transform="matrix(-.004 .721 -.721 -.004 46.175 23.185)"/><path fill="url(#bf)" stroke="url(#bg)" d="M17.98 10.34h5.6c1.9 0 3.42 1.4 3.42 3.16 0 1.75-1.52 3.16-3.4 3.16h-5.62c-1.9 0-3.4-1.4-3.4-3.16 0-1.75 1.5-3.16 3.4-3.16z" overflow="visible" enable-background="accumulate" transform="matrix(-.004 .721 -.721 -.004 46.175 23.185)"/></g><g stroke-width=".694" color="#000"><path fill="url(#bh)" stroke="url(#bi)" d="M17.8 9.86h6c2 0 3.63 1.62 3.63 3.64s-1.63 3.64-3.64 3.64h-6c-2.03 0-3.66-1.62-3.66-3.64s1.63-3.64 3.65-3.64z" overflow="visible" enable-background="accumulate" transform="matrix(.478 .539 -.539 .478 30.614 23.949)"/><path fill="url(#bj)" stroke="url(#bk)" d="M17.98 10.34h5.6c1.9 0 3.42 1.4 3.42 3.16 0 1.75-1.52 3.16-3.4 3.16h-5.62c-1.9 0-3.4-1.4-3.4-3.16 0-1.75 1.5-3.16 3.4-3.16z" overflow="visible" enable-background="accumulate" transform="matrix(.478 .539 -.539 .478 30.614 23.949)"/></g><g stroke-width=".694" color="#000"><path fill="url(#bl)" stroke="url(#bm)" d="M17.8 9.86h6c2 0 3.63 1.62 3.63 3.64s-1.63 3.64-3.64 3.64h-6c-2.03 0-3.66-1.62-3.66-3.64s1.63-3.64 3.65-3.64z" overflow="visible" enable-background="accumulate" transform="matrix(.679 .242 -.242 .679 31.13 25.262)"/><path fill="url(#bn)" stroke="url(#bo)" d="M17.98 10.34h5.6c1.9 0 3.42 1.4 3.42 3.16 0 1.75-1.52 3.16-3.4 3.16h-5.62c-1.9 0-3.4-1.4-3.4-3.16 0-1.75 1.5-3.16 3.4-3.16z" overflow="visible" enable-background="accumulate" transform="matrix(.679 .242 -.242 .679 31.13 25.262)"/></g><g stroke-width=".668" color="#000"><path fill="url(#bp)" stroke="url(#bq)" d="M17.8 9.86h6c2 0 3.63 1.62 3.63 3.64s-1.63 3.64-3.64 3.64h-6c-2.03 0-3.66-1.62-3.66-3.64s1.63-3.64 3.65-3.64z" overflow="visible" enable-background="accumulate" transform="matrix(.629 .406 -.406 .629 21.358 -1.801)"/><path fill="url(#br)" stroke="url(#bs)" d="M17.98 10.34h5.6c1.9 0 3.42 1.4 3.42 3.16 0 1.75-1.52 3.16-3.4 3.16h-5.62c-1.9 0-3.4-1.4-3.4-3.16 0-1.75 1.5-3.16 3.4-3.16z" overflow="visible" enable-background="accumulate" transform="matrix(.629 .406 -.406 .629 21.358 -1.801)"/></g><g stroke-width=".694" color="#000"><path fill="url(#bt)" stroke="url(#bu)" d="M17.8 9.86h6c2 0 3.63 1.62 3.63 3.64s-1.63 3.64-3.64 3.64h-6c-2.03 0-3.66-1.62-3.66-3.64s1.63-3.64 3.65-3.64z" overflow="visible" enable-background="accumulate" transform="matrix(.721 .008 -.008 .721 24.106 32.276)"/><path fill="url(#bv)" stroke="url(#bw)" d="M17.98 10.34h5.6c1.9 0 3.42 1.4 3.42 3.16 0 1.75-1.52 3.16-3.4 3.16h-5.62c-1.9 0-3.4-1.4-3.4-3.16 0-1.75 1.5-3.16 3.4-3.16z" overflow="visible" enable-background="accumulate" transform="matrix(.721 .008 -.008 .721 24.106 32.276)"/></g><g stroke-width=".694" color="#000"><path fill="url(#bx)" stroke="url(#by)" d="M17.8 9.86h6c2 0 3.63 1.62 3.63 3.64s-1.63 3.64-3.64 3.64h-6c-2.03 0-3.66-1.62-3.66-3.64s1.63-3.64 3.65-3.64z" overflow="visible" enable-background="accumulate" transform="matrix(.678 .244 -.244 .678 16.075 29.251)"/><path fill="url(#bz)" stroke="url(#bA)" d="M17.98 10.34h5.6c1.9 0 3.42 1.4 3.42 3.16 0 1.75-1.52 3.16-3.4 3.16h-5.62c-1.9 0-3.4-1.4-3.4-3.16 0-1.75 1.5-3.16 3.4-3.16z" overflow="visible" enable-background="accumulate" transform="matrix(.678 .244 -.244 .678 16.075 29.251)"/></g></g></svg>