<svg xmlns="http://www.w3.org/2000/svg" width="48" height="48"><defs><radialGradient id="a" cx="19.495" cy="337.082" r="30.701" gradientUnits="userSpaceOnUse" fy="337.082" fx="19.495"><stop offset="0" stop-color="#fff"/><stop offset="1" stop-color="#8794A0"/></radialGradient><radialGradient id="b" cx="31.729" cy="315.743" r="9.914" gradientUnits="userSpaceOnUse" fy="315.743" fx="31.729"><stop offset="0" stop-color="#fff"/><stop offset="1" stop-color="#8794A0"/></radialGradient><radialGradient id="c" cx="5.988" cy="313.929" r="23.088" gradientUnits="userSpaceOnUse" fy="313.929" fx="5.988"><stop offset="0" stop-color="#fff"/><stop offset="1" stop-color="#8794A0"/></radialGradient><radialGradient id="d" cx="19.084" cy="292.834" r="42.124" gradientUnits="userSpaceOnUse" fy="292.834" fx="19.084"><stop offset="0" stop-color="#fff"/><stop offset="1" stop-color="#8794A0"/></radialGradient><radialGradient id="e" cx="24.974" cy="335.191" r="36.272" gradientUnits="userSpaceOnUse" fy="335.191" fx="24.974"><stop offset="0" stop-color="#fff"/><stop offset="1" stop-color="#8794A0"/></radialGradient><radialGradient id="f" cx="40.426" cy="327.795" r="43.249" gradientUnits="userSpaceOnUse" fy="327.795" fx="40.426"><stop offset="0" stop-color="#fff"/><stop offset="1" stop-color="#8794A0"/></radialGradient><linearGradient id="i" x1="14.246" x2="36.727" y1="298.988" y2="321.468" gradientUnits="userSpaceOnUse"><stop offset=".545" stop-color="#CB1009"/><stop offset="1" stop-color="#DC6247"/></linearGradient><linearGradient id="h" x1="12.225" x2="37.181" y1="296.966" y2="321.922" gradientUnits="userSpaceOnUse"><stop offset="0" stop-color="#E9A389"/><stop offset="1" stop-color="#CB1009"/></linearGradient><linearGradient id="g" x1="23.631" x2="25.889" y1="308.373" y2="310.631" gradientUnits="userSpaceOnUse"><stop offset="0" stop-color="#E3876B"/><stop offset=".545" stop-color="#CB1009"/></linearGradient></defs><g><path fill="url(#a)" d="M19.7 318.3l.06 14.34H4.03l-.4-14.3 16.08-.04z" transform="matrix(1.135 0 0 1.135 -1.887 -330.311)"/><path fill="url(#b)" d="M19.7 318.3l1.52-3.48.06 12.7-1.52 5.12-.05-14.34z" transform="matrix(1.135 0 0 1.135 -1.887 -330.311)"/><path fill="none" stroke="#fff" stroke-width=".5" d="M20.1 47.35V31.1"/><path fill="url(#c)" d="M20.27 318.3l-1.33-3.8-13.04.05-2.27 3.8 16.64-.05z" transform="matrix(1.135 0 0 1.135 -1.887 -330.311)"/><path fill="none" stroke="#fff" stroke-width=".5" d="M2.23 31.1h18.9"/><path fill="none" stroke="#192333" stroke-width="1.00434" d="M22.2 29.98l.07 11.56-1.72 5.8H2.7L2.22 31.1l2.58-4.3 14.82-.06 2.58 3.24z"/><path fill="url(#d)" d="M21.66 303.6l-.96-6.7-6.94 10.5.07 7.76 7.83-11.55z" transform="matrix(1.135 0 0 1.135 -1.887 -330.311)"/><path fill="url(#e)" d="M34.9 310.9l-7.68 11.68-13.4-7.42 7.84-11.55 13.24 7.3z" transform="matrix(1.135 0 0 1.135 -1.887 -330.311)"/><path fill="url(#f)" d="M20.7 296.9l10.96 5.56 3.24 8.45-13.24-7.28-.96-6.73z" transform="matrix(1.135 0 0 1.135 -1.887 -330.311)"/><path fill="none" stroke="#fff" d="M21.62 6.75l1.1 7.64"/><path fill="none" stroke="#fff" stroke-width="1.00434" d="M13.82 27.5l8.9-13.1 15.02 8.28"/><path fill="none" stroke="#192333" stroke-width="1.00434" d="M37.74 22.68l-3.68-9.6-12.44-6.33-7.88 11.94.08 8.8 15.2 8.43 8.72-13.25z"/><g><path fill="none" stroke="#991109" stroke-width="1.14.321" d="M6.23 21.07c0 11.03 8.97 20 20 20 11.02 0 20-8.97 20-20 0-11.02-8.98-20-20-20-11.03 0-20 8.98-20 20z"/><path fill="none" stroke="#9a1309" stroke-width="1.14.321" d="M9.68 21.07c0-9.12 7.42-16.54 16.55-16.54 9.12 0 16.54 7.42 16.54 16.54 0 9.13-7.42 16.55-16.54 16.55-9.13 0-16.55-7.42-16.55-16.55z"/><g><path fill="#cb1009" d="M14.53 35.13l-2.45-2.45L37.93 6.84l2.44 2.44z"/><g transform="matrix(1.135 0 0 1.135 -1.887 -330.311)"><linearGradient x1="23.631" x2="25.889" y1="308.373" y2="310.631" gradientUnits="userSpaceOnUse"><stop offset="0" stop-color="#E3876B"/><stop offset=".545" stop-color="#CB1009"/></linearGradient><path fill="url(#g)" d="M33.8 298.2L13.32 318.7l2.26 2.25L36.3 300.2l-2.26-2.25-.27.26zm1.26-.2c.3.33.87.9 1.2 1.2-.53.52-21.28 21.27-21.8 21.8-.32-.32-.88-.88-1.2-1.2.53-.5 21.3-21.27 21.8-21.8z"/></g></g><g><path fill="#cb1009" d="M6.22 20.97c0 11.02 8.97 20 20 20 11.02 0 19.98-8.98 19.98-20s-8.96-20-20-20c-11 0-19.98 8.98-19.98 20zm3.46 0c0-9.12 7.42-16.54 16.54-16.54s16.53 7.42 16.53 16.54S35.33 37.5 26.22 37.5c-9.12 0-16.54-7.4-16.54-16.53z"/><g transform="matrix(1.135 0 0 1.135 -1.887 -330.311)"><linearGradient x1="12.225" x2="37.181" y1="296.966" y2="321.922" gradientUnits="userSpaceOnUse"><stop offset="0" stop-color="#E9A389"/><stop offset="1" stop-color="#CB1009"/></linearGradient><path fill="url(#h)" d="M7.15 309.5c0 9.7 7.9 17.6 17.6 17.6 9.72 0 17.62-7.9 17.62-17.6 0-9.7-7.9-17.6-17.6-17.6-9.72 0-17.62 7.9-17.62 17.6zm.6 0c0-9.38 7.63-17 17-17 9.38 0 17 7.63 17 17 0 9.38-7.62 17-17 17-9.37 0-17-7.62-17-17z"/><linearGradient x1="14.246" x2="36.727" y1="298.988" y2="321.468" gradientUnits="userSpaceOnUse"><stop offset=".545" stop-color="#CB1009"/><stop offset="1" stop-color="#DC6247"/></linearGradient><path fill="url(#i)" d="M9.58 309.5c0 8.37 6.8 15.18 15.18 15.18 8.37 0 15.18-6.8 15.18-15.18 0-8.37-6.8-15.18-15.18-15.18-8.37 0-15.18 6.8-15.18 15.18zm.6 0c0-8.03 6.55-14.57 14.58-14.57 8.04 0 14.57 6.54 14.57 14.57 0 8.04-6.54 14.57-14.57 14.57-8.04 0-14.57-6.53-14.57-14.57z"/></g></g><path fill="none" stroke="#9a1309" stroke-width=".75354" d="M16.03 34.03L39.26 10.8"/><path fill="none" stroke="#9a1309" stroke-width=".75354" d="M13.07 31.02L36.25 7.84"/></g></g></svg>