<svg xmlns="http://www.w3.org/2000/svg" width="48" height="48" xmlns:xlink="http://www.w3.org/1999/xlink"><defs><linearGradient id="b"><stop offset="0" stop-opacity=".692"/><stop offset="1" stop-opacity="0"/></linearGradient><linearGradient id="a"><stop offset="0" stop-color="#fff"/><stop offset="1" stop-color="#c4a000"/></linearGradient><radialGradient id="l" cx="3.712" cy="11.761" r="2.649" xlink:href="#a" gradientUnits="userSpaceOnUse" fx="3.712" fy="11.761"/><radialGradient id="m" cx="3.712" cy="11.761" r="2.649" xlink:href="#a" gradientUnits="userSpaceOnUse" fx="3.712" fy="11.761"/><radialGradient id="n" cx="3.712" cy="11.761" r="2.649" xlink:href="#a" gradientUnits="userSpaceOnUse" fx="3.712" fy="11.761"/><radialGradient id="o" cx="3.712" cy="11.761" r="2.649" xlink:href="#a" gradientUnits="userSpaceOnUse" fx="3.712" fy="11.761"/><radialGradient id="p" cx="3.712" cy="11.761" r="2.649" xlink:href="#a" gradientUnits="userSpaceOnUse" fx="3.712" fy="11.761"/><radialGradient id="q" cx="3.712" cy="11.761" r="2.649" xlink:href="#a" gradientUnits="userSpaceOnUse" fx="3.712" fy="11.761"/><radialGradient id="s" cx="3.712" cy="11.761" r="2.649" xlink:href="#a" gradientUnits="userSpaceOnUse" fx="3.712" fy="11.761"/><radialGradient id="t" cx="3.712" cy="11.761" r="2.649" xlink:href="#a" gradientUnits="userSpaceOnUse" fx="3.712" fy="11.761"/><radialGradient id="u" cx="3.712" cy="11.761" r="2.649" xlink:href="#a" gradientUnits="userSpaceOnUse" fx="3.712" fy="11.761"/><radialGradient id="v" cx="3.712" cy="11.761" r="2.649" xlink:href="#a" gradientUnits="userSpaceOnUse" fx="3.712" fy="11.761"/><radialGradient id="w" cx="3.712" cy="11.761" r="2.649" xlink:href="#a" gradientUnits="userSpaceOnUse" fx="3.712" fy="11.761"/><radialGradient id="x" cx="3.712" cy="11.761" r="2.649" xlink:href="#a" gradientUnits="userSpaceOnUse" fx="3.712" fy="11.761"/><radialGradient id="z" cx="3.712" cy="11.761" r="2.649" xlink:href="#a" gradientUnits="userSpaceOnUse" fx="3.712" fy="11.761"/><radialGradient id="A" cx="3.712" cy="11.761" r="2.649" xlink:href="#a" gradientUnits="userSpaceOnUse" fx="3.712" fy="11.761"/><radialGradient id="B" cx="3.712" cy="11.761" r="2.649" xlink:href="#a" gradientUnits="userSpaceOnUse" fx="3.712" fy="11.761"/><radialGradient id="C" cx="3.712" cy="11.761" r="2.649" xlink:href="#a" gradientUnits="userSpaceOnUse" fx="3.712" fy="11.761"/><radialGradient id="D" cx="3.712" cy="11.761" r="2.649" xlink:href="#a" gradientUnits="userSpaceOnUse" fx="3.712" fy="11.761"/><radialGradient id="E" cx="3.712" cy="11.761" r="2.649" xlink:href="#a" gradientUnits="userSpaceOnUse" fx="3.712" fy="11.761"/><radialGradient id="G" cx="3.712" cy="11.761" r="2.649" xlink:href="#a" gradientUnits="userSpaceOnUse" fx="3.712" fy="11.761"/><radialGradient id="H" cx="3.712" cy="11.761" r="2.649" xlink:href="#a" gradientUnits="userSpaceOnUse" fx="3.712" fy="11.761"/><radialGradient id="I" cx="3.712" cy="11.761" r="2.649" xlink:href="#a" gradientUnits="userSpaceOnUse" fx="3.712" fy="11.761"/><radialGradient id="J" cx="3.712" cy="11.761" r="2.649" xlink:href="#a" gradientUnits="userSpaceOnUse" fx="3.712" fy="11.761"/><radialGradient id="K" cx="3.712" cy="11.761" r="2.649" xlink:href="#a" gradientUnits="userSpaceOnUse" fx="3.712" fy="11.761"/><radialGradient id="L" cx="3.712" cy="11.761" r="2.649" xlink:href="#a" gradientUnits="userSpaceOnUse" fx="3.712" fy="11.761"/><radialGradient id="N" cx="3.712" cy="11.761" r="2.649" xlink:href="#a" gradientUnits="userSpaceOnUse" fx="3.712" fy="11.761"/><radialGradient id="P" cx="3.712" cy="11.761" r="2.649" xlink:href="#a" gradientUnits="userSpaceOnUse" fx="3.712" fy="11.761"/><radialGradient id="Q" cx="3.712" cy="11.761" r="2.649" xlink:href="#a" gradientUnits="userSpaceOnUse" fx="3.712" fy="11.761"/><radialGradient id="R" cx="3.712" cy="11.761" r="2.649" xlink:href="#a" gradientUnits="userSpaceOnUse" fx="3.712" fy="11.761"/><radialGradient id="S" cx="3.712" cy="11.761" r="2.649" xlink:href="#a" gradientUnits="userSpaceOnUse" fx="3.712" fy="11.761"/><radialGradient id="T" cx="3.712" cy="11.761" r="2.649" xlink:href="#a" gradientUnits="userSpaceOnUse" fx="3.712" fy="11.761"/><radialGradient id="W" cx="3.712" cy="11.761" r="2.649" xlink:href="#a" gradientUnits="userSpaceOnUse" fx="3.712" fy="11.761"/><radialGradient id="X" cx="3.712" cy="11.761" r="2.649" xlink:href="#a" gradientUnits="userSpaceOnUse" fx="3.712" fy="11.761"/><radialGradient id="Y" cx="3.712" cy="11.761" r="2.649" xlink:href="#a" gradientUnits="userSpaceOnUse" fx="3.712" fy="11.761"/><radialGradient id="Z" cx="3.712" cy="11.761" r="2.649" xlink:href="#a" gradientUnits="userSpaceOnUse" fx="3.712" fy="11.761"/><radialGradient id="aa" cx="3.712" cy="11.761" r="2.649" xlink:href="#a" gradientUnits="userSpaceOnUse" fx="3.712" fy="11.761"/><radialGradient id="ab" cx="3.712" cy="11.761" r="2.649" xlink:href="#a" gradientUnits="userSpaceOnUse" fx="3.712" fy="11.761"/><radialGradient id="ae" cx="3.712" cy="11.761" r="2.649" xlink:href="#a" gradientUnits="userSpaceOnUse" fx="3.712" fy="11.761"/><radialGradient id="af" cx="3.712" cy="11.761" r="2.649" xlink:href="#a" gradientUnits="userSpaceOnUse" fx="3.712" fy="11.761"/><radialGradient id="ag" cx="3.712" cy="11.761" r="2.649" xlink:href="#a" gradientUnits="userSpaceOnUse" fx="3.712" fy="11.761"/><radialGradient id="ah" cx="3.712" cy="11.761" r="2.649" xlink:href="#a" gradientUnits="userSpaceOnUse" fx="3.712" fy="11.761"/><radialGradient id="ai" cx="3.712" cy="11.761" r="2.649" xlink:href="#a" gradientUnits="userSpaceOnUse" fx="3.712" fy="11.761"/><radialGradient id="aj" cx="3.712" cy="11.761" r="2.649" xlink:href="#a" gradientUnits="userSpaceOnUse" fx="3.712" fy="11.761"/><radialGradient id="ak" cx="3.712" cy="11.761" r="2.649" xlink:href="#a" gradientUnits="userSpaceOnUse" fx="3.712" fy="11.761"/><radialGradient id="an" cx="3.712" cy="11.761" r="2.649" xlink:href="#a" gradientUnits="userSpaceOnUse" fx="3.712" fy="11.761"/><radialGradient id="ao" cx="3.712" cy="11.761" r="2.649" xlink:href="#a" gradientUnits="userSpaceOnUse" fx="3.712" fy="11.761"/><radialGradient id="ap" cx="3.712" cy="11.761" r="2.649" xlink:href="#a" gradientUnits="userSpaceOnUse" fx="3.712" fy="11.761"/><radialGradient id="aq" cx="3.712" cy="11.761" r="2.649" xlink:href="#a" gradientUnits="userSpaceOnUse" fx="3.712" fy="11.761"/><radialGradient id="ar" cx="3.712" cy="11.761" r="2.649" xlink:href="#a" gradientUnits="userSpaceOnUse" fx="3.712" fy="11.761"/><radialGradient id="as" cx="3.712" cy="11.761" r="2.649" xlink:href="#a" gradientUnits="userSpaceOnUse" fx="3.712" fy="11.761"/><radialGradient id="at" cx="3.712" cy="11.761" r="2.649" xlink:href="#a" gradientUnits="userSpaceOnUse" fx="3.712" fy="11.761"/><radialGradient id="ay" cx="3.712" cy="11.761" r="2.649" xlink:href="#a" gradientUnits="userSpaceOnUse" fx="3.712" fy="11.761"/><radialGradient id="az" cx="3.712" cy="11.761" r="2.649" xlink:href="#a" gradientUnits="userSpaceOnUse" fx="3.712" fy="11.761"/><radialGradient id="aA" cx="3.712" cy="11.761" r="2.649" xlink:href="#a" gradientUnits="userSpaceOnUse" fx="3.712" fy="11.761"/><radialGradient id="aB" cx="3.712" cy="11.761" r="2.649" xlink:href="#a" gradientUnits="userSpaceOnUse" fx="3.712" fy="11.761"/><radialGradient id="d" cx="3.712" cy="11.761" r="2.649" xlink:href="#a" gradientUnits="userSpaceOnUse" fx="3.712" fy="11.761"/><radialGradient id="e" cx="3.712" cy="11.761" r="2.649" xlink:href="#a" gradientUnits="userSpaceOnUse" fx="3.712" fy="11.761"/><radialGradient id="f" cx="3.712" cy="11.761" r="2.649" xlink:href="#a" gradientUnits="userSpaceOnUse" fx="3.712" fy="11.761"/><radialGradient id="g" cx="3.712" cy="11.761" r="2.649" xlink:href="#a" gradientUnits="userSpaceOnUse" fx="3.712" fy="11.761"/><radialGradient id="h" cx="3.712" cy="11.761" r="2.649" xlink:href="#a" gradientUnits="userSpaceOnUse" fx="3.712" fy="11.761"/><radialGradient id="i" cx="3.712" cy="11.761" r="2.649" xlink:href="#a" gradientUnits="userSpaceOnUse" fx="3.712" fy="11.761"/><radialGradient id="j" cx="3.712" cy="11.761" r="2.649" xlink:href="#a" gradientUnits="userSpaceOnUse" fx="3.712" fy="11.761"/><radialGradient id="F" cx="3.712" cy="11.761" r="2.649" xlink:href="#a" gradientUnits="userSpaceOnUse" fx="3.712" fy="11.761"/><radialGradient id="M" cx="3.712" cy="11.761" r="2.649" xlink:href="#a" gradientUnits="userSpaceOnUse" fx="3.712" fy="11.761"/><radialGradient id="ac" cx="3.712" cy="11.761" r="2.649" xlink:href="#a" gradientUnits="userSpaceOnUse" fx="3.712" fy="11.761"/><radialGradient id="O" cx="3.712" cy="11.761" r="2.649" xlink:href="#a" gradientUnits="userSpaceOnUse" fx="3.712" fy="11.761"/><radialGradient id="V" cx="3.712" cy="11.761" r="2.649" xlink:href="#a" gradientUnits="userSpaceOnUse" fx="3.712" fy="11.761"/><radialGradient id="ad" cx="3.712" cy="11.761" r="2.649" xlink:href="#a" gradientUnits="userSpaceOnUse" fx="3.712" fy="11.761"/><radialGradient id="am" cx="3.712" cy="11.761" r="2.649" xlink:href="#a" gradientUnits="userSpaceOnUse" fx="3.712" fy="11.761"/><radialGradient id="al" cx="3.712" cy="11.761" r="2.649" xlink:href="#a" gradientUnits="userSpaceOnUse" fx="3.712" fy="11.761"/><radialGradient id="ax" cx="3.712" cy="11.761" r="2.649" xlink:href="#a" gradientUnits="userSpaceOnUse" fx="3.712" fy="11.761"/><radialGradient id="aw" cx="3.712" cy="11.761" r="2.649" xlink:href="#a" gradientUnits="userSpaceOnUse" fx="3.712" fy="11.761"/><radialGradient id="av" cx="3.712" cy="11.761" r="2.649" xlink:href="#a" gradientUnits="userSpaceOnUse" fx="3.712" fy="11.761"/><radialGradient id="au" cx="3.712" cy="11.761" r="2.649" xlink:href="#a" gradientUnits="userSpaceOnUse" fx="3.712" fy="11.761"/><radialGradient id="k" cx="3.712" cy="11.761" r="2.649" xlink:href="#a" gradientUnits="userSpaceOnUse" fx="3.712" fy="11.761"/><radialGradient id="r" cx="3.712" cy="11.761" r="2.649" xlink:href="#a" gradientUnits="userSpaceOnUse" fx="3.712" fy="11.761"/><radialGradient id="y" cx="3.712" cy="11.761" r="2.649" xlink:href="#a" gradientUnits="userSpaceOnUse" fx="3.712" fy="11.761"/><radialGradient id="U" cx="3.712" cy="11.761" r="2.649" xlink:href="#a" gradientUnits="userSpaceOnUse" fx="3.712" fy="11.761"/><radialGradient id="c" cx="23.789" cy="29.63" r="22.93" xlink:href="#b" fx="23.789" fy="29.63" gradientTransform="matrix(.958 -.007 .004 .575 .866 13.615)" gradientUnits="userSpaceOnUse"/></defs><g><path fill="url(#c)" d="M17.27 46.48L.67 26.08l25.2-8.7L46.5 32.96z"/><path fill="#c4a000" stroke="#766000" d="M2.2 11.58c5.36 3.53 6.54 24.56 16.5 27.4L46.22 24.4C35.28 19.95 35.6 7.22 24.88 4.26z"/><path fill="url(#d)" stroke="#766000" stroke-width=".521" d="M6.92 12.52a2.4 2.4 0 1 1-4.8 0 2.4 2.4 0 1 1 4.8 0z" transform="matrix(.959 0 0 .959 21.09 -7.095)" color="#000" stroke-linecap="round" stroke-linejoin="round" overflow="visible" enable-background="accumulate"/><path fill="url(#e)" stroke="#766000" stroke-width=".521" d="M6.92 12.52a2.4 2.4 0 1 1-4.8 0 2.4 2.4 0 1 1 4.8 0z" transform="matrix(.959 0 0 .959 17.699 -6.029)" color="#000" stroke-linecap="round" stroke-linejoin="round" overflow="visible" enable-background="accumulate"/><path fill="url(#f)" stroke="#766000" stroke-width=".521" d="M6.92 12.52a2.4 2.4 0 1 1-4.8 0 2.4 2.4 0 1 1 4.8 0z" transform="matrix(.959 0 0 .959 13.969 -4.867)" color="#000" stroke-linecap="round" stroke-linejoin="round" overflow="visible" enable-background="accumulate"/><path fill="url(#g)" stroke="#766000" stroke-width=".521" d="M6.92 12.52a2.4 2.4 0 1 1-4.8 0 2.4 2.4 0 1 1 4.8 0z" transform="matrix(.959 0 0 .959 10.142 -3.753)" color="#000" stroke-linecap="round" stroke-linejoin="round" overflow="visible" enable-background="accumulate"/><path fill="url(#h)" stroke="#766000" stroke-width=".521" d="M6.92 12.52a2.4 2.4 0 1 1-4.8 0 2.4 2.4 0 1 1 4.8 0z" transform="matrix(.959 0 0 .959 6.122 -2.59)" color="#000" stroke-linecap="round" stroke-linejoin="round" overflow="visible" enable-background="accumulate"/><path fill="url(#i)" stroke="#766000" stroke-width=".521" d="M6.92 12.52a2.4 2.4 0 1 1-4.8 0 2.4 2.4 0 1 1 4.8 0z" transform="matrix(.959 0 0 .959 2.053 -1.476)" color="#000" stroke-linecap="round" stroke-linejoin="round" overflow="visible" enable-background="accumulate"/><path fill="url(#j)" stroke="#766000" stroke-width=".521" d="M6.92 12.52a2.4 2.4 0 1 1-4.8 0 2.4 2.4 0 1 1 4.8 0z" transform="matrix(.959 0 0 .959 -1.677 -.217)" color="#000" stroke-linecap="round" stroke-linejoin="round" overflow="visible" enable-background="accumulate"/><path fill="url(#k)" stroke="#766000" stroke-width=".521" d="M6.92 12.52a2.4 2.4 0 1 1-4.8 0 2.4 2.4 0 1 1 4.8 0z" transform="matrix(.959 0 0 .959 24.152 -5.608)" color="#000" stroke-linecap="round" stroke-linejoin="round" overflow="visible" enable-background="accumulate"/><path fill="url(#l)" stroke="#766000" stroke-width=".521" d="M6.92 12.52a2.4 2.4 0 1 1-4.8 0 2.4 2.4 0 1 1 4.8 0z" transform="matrix(.959 0 0 .959 20.509 -4.189)" color="#000" stroke-linecap="round" stroke-linejoin="round" overflow="visible" enable-background="accumulate"/><path fill="url(#m)" stroke="#766000" stroke-width=".521" d="M6.92 12.52a2.4 2.4 0 1 1-4.8 0 2.4 2.4 0 1 1 4.8 0z" transform="matrix(.959 0 0 .959 16.779 -3.026)" color="#000" stroke-linecap="round" stroke-linejoin="round" overflow="visible" enable-background="accumulate"/><path fill="url(#n)" stroke="#766000" stroke-width=".521" d="M6.92 12.52a2.4 2.4 0 1 1-4.8 0 2.4 2.4 0 1 1 4.8 0z" transform="matrix(.959 0 0 .959 12.952 -1.912)" color="#000" stroke-linecap="round" stroke-linejoin="round" overflow="visible" enable-background="accumulate"/><path fill="url(#o)" stroke="#766000" stroke-width=".521" d="M6.92 12.52a2.4 2.4 0 1 1-4.8 0 2.4 2.4 0 1 1 4.8 0z" transform="matrix(.959 0 0 .959 8.931 -.749)" color="#000" stroke-linecap="round" stroke-linejoin="round" overflow="visible" enable-background="accumulate"/><path fill="url(#p)" stroke="#766000" stroke-width=".521" d="M6.92 12.52a2.4 2.4 0 1 1-4.8 0 2.4 2.4 0 1 1 4.8 0z" transform="matrix(.959 0 0 .959 4.862 .365)" color="#000" stroke-linecap="round" stroke-linejoin="round" overflow="visible" enable-background="accumulate"/><path fill="url(#q)" stroke="#766000" stroke-width=".521" d="M6.92 12.52a2.4 2.4 0 1 1-4.8 0 2.4 2.4 0 1 1 4.8 0z" transform="matrix(.959 0 0 .959 1.133 1.624)" color="#000" stroke-linecap="round" stroke-linejoin="round" overflow="visible" enable-background="accumulate"/><path fill="url(#r)" stroke="#766000" stroke-width=".521" d="M6.92 12.52a2.4 2.4 0 1 1-4.8 0 2.4 2.4 0 1 1 4.8 0z" transform="matrix(.959 0 0 .959 26.481 -3.236)" color="#000" stroke-linecap="round" stroke-linejoin="round" overflow="visible" enable-background="accumulate"/><path fill="url(#s)" stroke="#766000" stroke-width=".521" d="M6.92 12.52a2.4 2.4 0 1 1-4.8 0 2.4 2.4 0 1 1 4.8 0z" transform="matrix(.959 0 0 .959 22.301 -1.476)" color="#000" stroke-linecap="round" stroke-linejoin="round" overflow="visible" enable-background="accumulate"/><path fill="url(#t)" stroke="#766000" stroke-width=".521" d="M6.92 12.52a2.4 2.4 0 1 1-4.8 0 2.4 2.4 0 1 1 4.8 0z" transform="matrix(.959 0 0 .959 18.571 -.313)" color="#000" stroke-linecap="round" stroke-linejoin="round" overflow="visible" enable-background="accumulate"/><path fill="url(#u)" stroke="#766000" stroke-width=".521" d="M6.92 12.52a2.4 2.4 0 1 1-4.8 0 2.4 2.4 0 1 1 4.8 0z" transform="matrix(.959 0 0 .959 14.744 .801)" color="#000" stroke-linecap="round" stroke-linejoin="round" overflow="visible" enable-background="accumulate"/><path fill="url(#v)" stroke="#766000" stroke-width=".521" d="M6.92 12.52a2.4 2.4 0 1 1-4.8 0 2.4 2.4 0 1 1 4.8 0z" transform="matrix(.959 0 0 .959 10.724 1.963)" color="#000" stroke-linecap="round" stroke-linejoin="round" overflow="visible" enable-background="accumulate"/><path fill="url(#w)" stroke="#766000" stroke-width=".521" d="M6.92 12.52a2.4 2.4 0 1 1-4.8 0 2.4 2.4 0 1 1 4.8 0z" transform="matrix(.959 0 0 .959 6.655 3.077)" color="#000" stroke-linecap="round" stroke-linejoin="round" overflow="visible" enable-background="accumulate"/><path fill="url(#x)" stroke="#766000" stroke-width=".521" d="M6.92 12.52a2.4 2.4 0 1 1-4.8 0 2.4 2.4 0 1 1 4.8 0z" transform="matrix(.959 0 0 .959 2.925 4.337)" color="#000" stroke-linecap="round" stroke-linejoin="round" overflow="visible" enable-background="accumulate"/><path fill="url(#y)" stroke="#766000" stroke-width=".521" d="M6.92 12.52a2.4 2.4 0 1 1-4.8 0 2.4 2.4 0 1 1 4.8 0z" transform="matrix(.959 0 0 .959 28.511 -.623)" color="#000" stroke-linecap="round" stroke-linejoin="round" overflow="visible" enable-background="accumulate"/><path fill="url(#z)" stroke="#766000" stroke-width=".521" d="M6.92 12.52a2.4 2.4 0 1 1-4.8 0 2.4 2.4 0 1 1 4.8 0z" transform="matrix(.959 0 0 .959 24.674 .898)" color="#000" stroke-linecap="round" stroke-linejoin="round" overflow="visible" enable-background="accumulate"/><path fill="url(#A)" stroke="#766000" stroke-width=".521" d="M6.92 12.52a2.4 2.4 0 1 1-4.8 0 2.4 2.4 0 1 1 4.8 0z" transform="matrix(.959 0 0 .959 20.509 2.109)" color="#000" stroke-linecap="round" stroke-linejoin="round" overflow="visible" enable-background="accumulate"/><path fill="url(#B)" stroke="#766000" stroke-width=".521" d="M6.92 12.52a2.4 2.4 0 1 1-4.8 0 2.4 2.4 0 1 1 4.8 0z" transform="matrix(.959 0 0 .959 16.488 3.513)" color="#000" stroke-linecap="round" stroke-linejoin="round" overflow="visible" enable-background="accumulate"/><path fill="url(#C)" stroke="#766000" stroke-width=".521" d="M6.92 12.52a2.4 2.4 0 1 1-4.8 0 2.4 2.4 0 1 1 4.8 0z" transform="matrix(.959 0 0 .959 12.564 4.627)" color="#000" stroke-linecap="round" stroke-linejoin="round" overflow="visible" enable-background="accumulate"/><path fill="url(#D)" stroke="#766000" stroke-width=".521" d="M6.92 12.52a2.4 2.4 0 1 1-4.8 0 2.4 2.4 0 1 1 4.8 0z" transform="matrix(.959 0 0 .959 8.205 5.887)" color="#000" stroke-linecap="round" stroke-linejoin="round" overflow="visible" enable-background="accumulate"/><path fill="url(#E)" stroke="#766000" stroke-width=".521" d="M6.92 12.52a2.4 2.4 0 1 1-4.8 0 2.4 2.4 0 1 1 4.8 0z" transform="matrix(.959 0 0 .959 3.991 7.388)" color="#000" stroke-linecap="round" stroke-linejoin="round" overflow="visible" enable-background="accumulate"/><path fill="url(#F)" stroke="#766000" stroke-width=".521" d="M6.92 12.52a2.4 2.4 0 1 1-4.8 0 2.4 2.4 0 1 1 4.8 0z" transform="matrix(.959 0 0 .959 29.712 2.254)" color="#000" stroke-linecap="round" stroke-linejoin="round" overflow="visible" enable-background="accumulate"/><path fill="url(#G)" stroke="#766000" stroke-width=".521" d="M6.92 12.52a2.4 2.4 0 1 1-4.8 0 2.4 2.4 0 1 1 4.8 0z" transform="matrix(.959 0 0 .959 26.031 3.61)" color="#000" stroke-linecap="round" stroke-linejoin="round" overflow="visible" enable-background="accumulate"/><path fill="url(#H)" stroke="#766000" stroke-width=".521" d="M6.92 12.52a2.4 2.4 0 1 1-4.8 0 2.4 2.4 0 1 1 4.8 0z" transform="matrix(.959 0 0 .959 22.107 4.966)" color="#000" stroke-linecap="round" stroke-linejoin="round" overflow="visible" enable-background="accumulate"/><path fill="url(#I)" stroke="#766000" stroke-width=".521" d="M6.92 12.52a2.4 2.4 0 1 1-4.8 0 2.4 2.4 0 1 1 4.8 0z" transform="matrix(.959 0 0 .959 17.99 6.371)" color="#000" stroke-linecap="round" stroke-linejoin="round" overflow="visible" enable-background="accumulate"/><path fill="url(#J)" stroke="#766000" stroke-width=".521" d="M6.92 12.52a2.4 2.4 0 1 1-4.8 0 2.4 2.4 0 1 1 4.8 0z" transform="matrix(.959 0 0 .959 13.775 7.582)" color="#000" stroke-linecap="round" stroke-linejoin="round" overflow="visible" enable-background="accumulate"/><path fill="url(#K)" stroke="#766000" stroke-width=".521" d="M6.92 12.52a2.4 2.4 0 1 1-4.8 0 2.4 2.4 0 1 1 4.8 0z" transform="matrix(.959 0 0 .959 9.367 8.793)" color="#000" stroke-linecap="round" stroke-linejoin="round" overflow="visible" enable-background="accumulate"/><path fill="url(#L)" stroke="#766000" stroke-width=".521" d="M6.92 12.52a2.4 2.4 0 1 1-4.8 0 2.4 2.4 0 1 1 4.8 0z" transform="matrix(.959 0 0 .959 5.056 10.295)" color="#000" stroke-linecap="round" stroke-linejoin="round" overflow="visible" enable-background="accumulate"/><path fill="url(#M)" stroke="#766000" stroke-width=".521" d="M6.92 12.52a2.4 2.4 0 1 1-4.8 0 2.4 2.4 0 1 1 4.8 0z" transform="matrix(.959 0 0 .959 31.456 4.87)" color="#000" stroke-linecap="round" stroke-linejoin="round" overflow="visible" enable-background="accumulate"/><path fill="url(#N)" stroke="#766000" stroke-width=".521" d="M6.92 12.52a2.4 2.4 0 1 1-4.8 0 2.4 2.4 0 1 1 4.8 0z" transform="matrix(.959 0 0 .959 28.743 6.42)" color="#000" stroke-linecap="round" stroke-linejoin="round" overflow="visible" enable-background="accumulate"/><path fill="url(#O)" stroke="#766000" stroke-width=".521" d="M6.92 12.52a2.4 2.4 0 1 1-4.8 0 2.4 2.4 0 1 1 4.8 0z" transform="matrix(.959 0 0 .959 25.256 7.388)" color="#000" stroke-linecap="round" stroke-linejoin="round" overflow="visible" enable-background="accumulate"/><path fill="url(#P)" stroke="#766000" stroke-width=".521" d="M6.92 12.52a2.4 2.4 0 1 1-4.8 0 2.4 2.4 0 1 1 4.8 0z" transform="matrix(.959 0 0 .959 22.204 8.503)" color="#000" stroke-linecap="round" stroke-linejoin="round" overflow="visible" enable-background="accumulate"/><path fill="url(#Q)" stroke="#766000" stroke-width=".521" d="M6.92 12.52a2.4 2.4 0 1 1-4.8 0 2.4 2.4 0 1 1 4.8 0z" transform="matrix(.959 0 0 .959 18.135 9.762)" color="#000" stroke-linecap="round" stroke-linejoin="round" overflow="visible" enable-background="accumulate"/><path fill="url(#R)" stroke="#766000" stroke-width=".521" d="M6.92 12.52a2.4 2.4 0 1 1-4.8 0 2.4 2.4 0 1 1 4.8 0z" transform="matrix(.959 0 0 .959 14.018 10.731)" color="#000" stroke-linecap="round" stroke-linejoin="round" overflow="visible" enable-background="accumulate"/><path fill="url(#S)" stroke="#766000" stroke-width=".521" d="M6.92 12.52a2.4 2.4 0 1 1-4.8 0 2.4 2.4 0 1 1 4.8 0z" transform="matrix(.959 0 0 .959 9.949 12.184)" color="#000" stroke-linecap="round" stroke-linejoin="round" overflow="visible" enable-background="accumulate"/><path fill="url(#T)" stroke="#766000" stroke-width=".521" d="M6.92 12.52a2.4 2.4 0 1 1-4.8 0 2.4 2.4 0 1 1 4.8 0z" transform="matrix(.959 0 0 .959 6.17 13.54)" color="#000" stroke-linecap="round" stroke-linejoin="round" overflow="visible" enable-background="accumulate"/><path fill="url(#U)" stroke="#766000" stroke-width=".521" d="M6.92 12.52a2.4 2.4 0 1 1-4.8 0 2.4 2.4 0 1 1 4.8 0z" transform="matrix(.959 0 0 .959 33.242 7.595)" color="#000" stroke-linecap="round" stroke-linejoin="round" overflow="visible" enable-background="accumulate"/><path fill="url(#V)" stroke="#766000" stroke-width=".521" d="M6.92 12.52a2.4 2.4 0 1 1-4.8 0 2.4 2.4 0 1 1 4.8 0z" transform="matrix(.959 0 0 .959 30.875 9.084)" color="#000" stroke-linecap="round" stroke-linejoin="round" overflow="visible" enable-background="accumulate"/><path fill="url(#W)" stroke="#766000" stroke-width=".521" d="M6.92 12.52a2.4 2.4 0 1 1-4.8 0 2.4 2.4 0 1 1 4.8 0z" transform="matrix(.959 0 0 .959 27.29 10.15)" color="#000" stroke-linecap="round" stroke-linejoin="round" overflow="visible" enable-background="accumulate"/><path fill="url(#X)" stroke="#766000" stroke-width=".521" d="M6.92 12.52a2.4 2.4 0 1 1-4.8 0 2.4 2.4 0 1 1 4.8 0z" transform="matrix(.959 0 0 .959 23.221 11.409)" color="#000" stroke-linecap="round" stroke-linejoin="round" overflow="visible" enable-background="accumulate"/><path fill="url(#Y)" stroke="#766000" stroke-width=".521" d="M6.92 12.52a2.4 2.4 0 1 1-4.8 0 2.4 2.4 0 1 1 4.8 0z" transform="matrix(.959 0 0 .959 19.104 12.572)" color="#000" stroke-linecap="round" stroke-linejoin="round" overflow="visible" enable-background="accumulate"/><path fill="url(#Z)" stroke="#766000" stroke-width=".521" d="M6.92 12.52a2.4 2.4 0 1 1-4.8 0 2.4 2.4 0 1 1 4.8 0z" transform="matrix(.959 0 0 .959 15.18 14.025)" color="#000" stroke-linecap="round" stroke-linejoin="round" overflow="visible" enable-background="accumulate"/><path fill="url(#aa)" stroke="#766000" stroke-width=".521" d="M6.92 12.52a2.4 2.4 0 1 1-4.8 0 2.4 2.4 0 1 1 4.8 0z" transform="matrix(.959 0 0 .959 11.353 15.284)" color="#000" stroke-linecap="round" stroke-linejoin="round" overflow="visible" enable-background="accumulate"/><path fill="url(#ab)" stroke="#766000" stroke-width=".521" d="M6.92 12.52a2.4 2.4 0 1 1-4.8 0 2.4 2.4 0 1 1 4.8 0z" transform="matrix(.959 0 0 .959 7.478 16.64)" color="#000" stroke-linecap="round" stroke-linejoin="round" overflow="visible" enable-background="accumulate"/><path fill="url(#ac)" stroke="#766000" stroke-width=".521" d="M6.92 12.52a2.4 2.4 0 1 1-4.8 0 2.4 2.4 0 1 1 4.8 0z" transform="matrix(.959 0 0 .959 35.622 9.762)" color="#000" stroke-linecap="round" stroke-linejoin="round" overflow="visible" enable-background="accumulate"/><path fill="url(#ad)" stroke="#766000" stroke-width=".521" d="M6.92 12.52a2.4 2.4 0 1 1-4.8 0 2.4 2.4 0 1 1 4.8 0z" transform="matrix(.959 0 0 .959 32.037 11.554)" color="#000" stroke-linecap="round" stroke-linejoin="round" overflow="visible" enable-background="accumulate"/><path fill="url(#ae)" stroke="#766000" stroke-width=".521" d="M6.92 12.52a2.4 2.4 0 1 1-4.8 0 2.4 2.4 0 1 1 4.8 0z" transform="matrix(.959 0 0 .959 28.21 13.347)" color="#000" stroke-linecap="round" stroke-linejoin="round" overflow="visible" enable-background="accumulate"/><path fill="url(#af)" stroke="#766000" stroke-width=".521" d="M6.92 12.52a2.4 2.4 0 1 1-4.8 0 2.4 2.4 0 1 1 4.8 0z" transform="matrix(.959 0 0 .959 24.481 14.509)" color="#000" stroke-linecap="round" stroke-linejoin="round" overflow="visible" enable-background="accumulate"/><path fill="url(#ag)" stroke="#766000" stroke-width=".521" d="M6.92 12.52a2.4 2.4 0 1 1-4.8 0 2.4 2.4 0 1 1 4.8 0z" transform="matrix(.959 0 0 .959 20.654 15.623)" color="#000" stroke-linecap="round" stroke-linejoin="round" overflow="visible" enable-background="accumulate"/><path fill="url(#ah)" stroke="#766000" stroke-width=".521" d="M6.92 12.52a2.4 2.4 0 1 1-4.8 0 2.4 2.4 0 1 1 4.8 0z" transform="matrix(.959 0 0 .959 16.633 16.786)" color="#000" stroke-linecap="round" stroke-linejoin="round" overflow="visible" enable-background="accumulate"/><path fill="url(#ai)" stroke="#766000" stroke-width=".521" d="M6.92 12.52a2.4 2.4 0 1 1-4.8 0 2.4 2.4 0 1 1 4.8 0z" transform="matrix(.959 0 0 .959 12.564 17.9)" color="#000" stroke-linecap="round" stroke-linejoin="round" overflow="visible" enable-background="accumulate"/><path fill="url(#aj)" stroke="#766000" stroke-width=".521" d="M6.92 12.52a2.4 2.4 0 1 1-4.8 0 2.4 2.4 0 1 1 4.8 0z" transform="matrix(.959 0 0 .959 8.835 19.159)" color="#000" stroke-linecap="round" stroke-linejoin="round" overflow="visible" enable-background="accumulate"/><path fill="url(#ak)" stroke="#766000" stroke-width=".521" d="M6.92 12.52a2.4 2.4 0 1 1-4.8 0 2.4 2.4 0 1 1 4.8 0z" transform="matrix(.959 0 0 .959 38.238 11.797)" color="#000" stroke-linecap="round" stroke-linejoin="round" overflow="visible" enable-background="accumulate"/><path fill="url(#al)" stroke="#766000" stroke-width=".521" d="M6.92 12.52a2.4 2.4 0 1 1-4.8 0 2.4 2.4 0 1 1 4.8 0z" transform="matrix(.959 0 0 .959 34.992 12.668)" color="#000" stroke-linecap="round" stroke-linejoin="round" overflow="visible" enable-background="accumulate"/><path fill="url(#am)" stroke="#766000" stroke-width=".521" d="M6.92 12.52a2.4 2.4 0 1 1-4.8 0 2.4 2.4 0 1 1 4.8 0z" transform="matrix(.959 0 0 .959 31.94 13.928)" color="#000" stroke-linecap="round" stroke-linejoin="round" overflow="visible" enable-background="accumulate"/><path fill="url(#an)" stroke="#766000" stroke-width=".521" d="M6.92 12.52a2.4 2.4 0 1 1-4.8 0 2.4 2.4 0 1 1 4.8 0z" transform="matrix(.959 0 0 .959 29.518 15.623)" color="#000" stroke-linecap="round" stroke-linejoin="round" overflow="visible" enable-background="accumulate"/><path fill="url(#ao)" stroke="#766000" stroke-width=".521" d="M6.92 12.52a2.4 2.4 0 1 1-4.8 0 2.4 2.4 0 1 1 4.8 0z" transform="matrix(.959 0 0 .959 25.788 16.786)" color="#000" stroke-linecap="round" stroke-linejoin="round" overflow="visible" enable-background="accumulate"/><path fill="url(#ap)" stroke="#766000" stroke-width=".521" d="M6.92 12.52a2.4 2.4 0 1 1-4.8 0 2.4 2.4 0 1 1 4.8 0z" transform="matrix(.959 0 0 .959 21.429 18.239)" color="#000" stroke-linecap="round" stroke-linejoin="round" overflow="visible" enable-background="accumulate"/><path fill="url(#aq)" stroke="#766000" stroke-width=".521" d="M6.92 12.52a2.4 2.4 0 1 1-4.8 0 2.4 2.4 0 1 1 4.8 0z" transform="matrix(.959 0 0 .959 17.554 19.692)" color="#000" stroke-linecap="round" stroke-linejoin="round" overflow="visible" enable-background="accumulate"/><path fill="url(#ar)" stroke="#766000" stroke-width=".521" d="M6.92 12.52a2.4 2.4 0 1 1-4.8 0 2.4 2.4 0 1 1 4.8 0z" transform="matrix(.959 0 0 .959 13.727 21.097)" color="#000" stroke-linecap="round" stroke-linejoin="round" overflow="visible" enable-background="accumulate"/><path fill="url(#as)" stroke="#766000" stroke-width=".521" d="M6.92 12.52a2.4 2.4 0 1 1-4.8 0 2.4 2.4 0 1 1 4.8 0z" transform="matrix(.959 0 0 .959 10.433 22.744)" color="#000" stroke-linecap="round" stroke-linejoin="round" overflow="visible" enable-background="accumulate"/><path fill="url(#at)" stroke="#766000" stroke-width=".521" d="M6.92 12.52a2.4 2.4 0 1 1-4.8 0 2.4 2.4 0 1 1 4.8 0z" transform="matrix(.959 0 0 .959 40.902 12.862)" color="#000" stroke-linecap="round" stroke-linejoin="round" overflow="visible" enable-background="accumulate"/><path fill="url(#au)" stroke="#766000" stroke-width=".521" d="M6.92 12.52a2.4 2.4 0 1 1-4.8 0 2.4 2.4 0 1 1 4.8 0z" transform="matrix(.959 0 0 .959 38.326 14.174)" color="#000" stroke-linecap="round" stroke-linejoin="round" overflow="visible" enable-background="accumulate"/><path fill="url(#av)" stroke="#766000" stroke-width=".521" d="M6.92 12.52a2.4 2.4 0 1 1-4.8 0 2.4 2.4 0 1 1 4.8 0z" transform="matrix(.959 0 0 .959 34.872 15.979)" color="#000" stroke-linecap="round" stroke-linejoin="round" overflow="visible" enable-background="accumulate"/><path fill="url(#aw)" stroke="#766000" stroke-width=".521" d="M6.92 12.52a2.4 2.4 0 1 1-4.8 0 2.4 2.4 0 1 1 4.8 0z" transform="matrix(.959 0 0 .959 31.433 17.281)" color="#000" stroke-linecap="round" stroke-linejoin="round" overflow="visible" enable-background="accumulate"/><path fill="url(#ax)" stroke="#766000" stroke-width=".521" d="M6.92 12.52a2.4 2.4 0 1 1-4.8 0 2.4 2.4 0 1 1 4.8 0z" transform="matrix(.959 0 0 .959 27.857 19.022)" color="#000" stroke-linecap="round" stroke-linejoin="round" overflow="visible" enable-background="accumulate"/><path fill="url(#ay)" stroke="#766000" stroke-width=".521" d="M6.92 12.52a2.4 2.4 0 1 1-4.8 0 2.4 2.4 0 1 1 4.8 0z" transform="matrix(.959 0 0 .959 24.335 20.903)" color="#000" stroke-linecap="round" stroke-linejoin="round" overflow="visible" enable-background="accumulate"/><path fill="url(#az)" stroke="#766000" stroke-width=".521" d="M6.92 12.52a2.4 2.4 0 1 1-4.8 0 2.4 2.4 0 1 1 4.8 0z" transform="matrix(.959 0 0 .959 20.557 22.55)" color="#000" stroke-linecap="round" stroke-linejoin="round" overflow="visible" enable-background="accumulate"/><path fill="url(#aA)" stroke="#766000" stroke-width=".521" d="M6.92 12.52a2.4 2.4 0 1 1-4.8 0 2.4 2.4 0 1 1 4.8 0z" transform="matrix(.959 0 0 .959 17.021 24.1)" color="#000" stroke-linecap="round" stroke-linejoin="round" overflow="visible" enable-background="accumulate"/><path fill="url(#aB)" stroke="#766000" stroke-width=".521" d="M6.92 12.52a2.4 2.4 0 1 1-4.8 0 2.4 2.4 0 1 1 4.8 0z" transform="matrix(.959 0 0 .959 13.485 25.747)" color="#000" stroke-linecap="round" stroke-linejoin="round" overflow="visible" enable-background="accumulate"/></g></svg>