<svg xmlns="http://www.w3.org/2000/svg" width="48" height="48" xmlns:xlink="http://www.w3.org/1999/xlink"><defs><linearGradient id="j"><stop offset="0" stop-opacity=".624"/><stop offset="1" stop-opacity="0"/></linearGradient><linearGradient id="h"><stop offset="0" stop-color="#fce94f"/><stop offset="1" stop-color="#c4a000"/></linearGradient><linearGradient id="g"><stop offset="0" stop-color="#8b7200"/><stop offset="1" stop-color="#c4a000" stop-opacity="0"/></linearGradient><linearGradient id="f"><stop offset="0" stop-color="#a7c4e1"/><stop offset="1" stop-color="#a7c4e1" stop-opacity="0"/></linearGradient><linearGradient id="e"><stop offset="0" stop-color="#204a87"/><stop offset="1" stop-color="#204a87" stop-opacity="0"/></linearGradient><linearGradient id="d"><stop offset="0" stop-color="#fff"/><stop offset="1" stop-color="#fff" stop-opacity="0"/></linearGradient><linearGradient id="c"><stop offset="0" stop-color="#fff"/><stop offset="1" stop-color="#fff" stop-opacity="0"/></linearGradient><linearGradient id="b"><stop offset="0" stop-color="#fff"/><stop offset="1" stop-color="#fff" stop-opacity="0"/></linearGradient><linearGradient><stop offset="0" stop-color="#740000"/><stop offset="1" stop-color="#460000"/></linearGradient><linearGradient id="a"><stop offset="0" stop-color="#fce94f"/><stop offset=".341" stop-color="#e7bd00"/><stop offset=".471" stop-color="#fce94f"/><stop offset=".624" stop-color="#fce94f"/><stop offset=".807" stop-color="#e7bd00"/><stop offset="1" stop-color="#fce94f"/></linearGradient><linearGradient><stop offset="0" stop-color="#7f0000"/><stop offset="1" stop-color="#e06666"/></linearGradient><linearGradient id="l" x1="9.902" x2="43.131" y1="15.069" y2="16.332" xlink:href="#a" gradientUnits="userSpaceOnUse" gradientTransform="translate(0 4.95)"/><linearGradient x1="12.726" x2="18.539" y1="14.456" y2="14.456" xlink:href="#b" gradientUnits="userSpaceOnUse"/><linearGradient x1="4.094" x2="11.816" y1="4.563" y2="4.563" xlink:href="#c" gradientUnits="userSpaceOnUse"/><linearGradient x1="6.063" x2="11.968" y1="7.455" y2="7.455" xlink:href="#d" gradientUnits="userSpaceOnUse"/><linearGradient x1="8.738" x2="12.425" y1="20.625" y2="18.655" xlink:href="#e" gradientUnits="userSpaceOnUse"/><linearGradient x1="19.092" x2="14.95" y1="18.054" y2="19.165" xlink:href="#f" gradientUnits="userSpaceOnUse"/><linearGradient x1="16.162" x2="17.021" y1="24.304" y2="28.294" xlink:href="#g" gradientUnits="userSpaceOnUse"/><linearGradient id="m" x1="33.59" x2="38.939" y1="20.288" y2="26.198" xlink:href="#h" gradientUnits="userSpaceOnUse"/><linearGradient id="n" x1="25.408" x2="35.201" y1="21.854" y2="27.511" xlink:href="#i" gradientUnits="userSpaceOnUse"/><linearGradient id="i"><stop offset="0" stop-color="#fce94f"/><stop offset="1" stop-color="#c4a000"/></linearGradient><linearGradient x1="33.59" x2="38.939" y1="20.288" y2="26.198" gradientTransform="translate(-23.034 -19.5)" gradientUnits="userSpaceOnUse" xlink:href="#i"/><linearGradient id="o" x1="16.162" x2="17.021" y1="24.304" y2="28.294" xlink:href="#g" gradientUnits="userSpaceOnUse"/><linearGradient id="p" x1="8.738" x2="12.425" y1="20.625" y2="18.655" xlink:href="#e" gradientUnits="userSpaceOnUse"/><linearGradient id="q" x1="4.094" x2="11.816" y1="4.563" y2="4.563" xlink:href="#c" gradientUnits="userSpaceOnUse"/><linearGradient id="r" x1="6.063" x2="11.968" y1="7.455" y2="7.455" xlink:href="#d" gradientUnits="userSpaceOnUse"/><linearGradient id="s" x1="19.092" x2="14.95" y1="18.054" y2="19.165" xlink:href="#f" gradientUnits="userSpaceOnUse"/><linearGradient id="t" x1="12.726" x2="18.539" y1="14.456" y2="14.456" xlink:href="#b" gradientUnits="userSpaceOnUse"/><radialGradient id="k" cx="24.345" cy="30.575" r="23.234" xlink:href="#j" fx="24.345" fy="30.575" gradientTransform="matrix(1 0 0 .441 0 17.082)" gradientUnits="userSpaceOnUse"/></defs><g><path fill="url(#k)" d="M47.58 30.57a23.23 10.25 0 1 1-46.47 0 23.23 10.25 0 1 1 46.48 0z" transform="matrix(1.048 0 0 .581 -1.366 16.691)" color="#000" overflow="visible" enable-background="accumulate"/><path fill="#a40000" d="M.3 28.9h47.17l-.5 6.7H1.42z"/><path fill="#f57c7c" d="M.45 29l9.2-12.37 27.62.06 10.26 12.2z"/><path fill="#8c3030" d="M36.56 17.62l8.58 10.27H2.76l7.5-10.27z"/><path fill="none" stroke="#5b0000" stroke-width=".5" d="M37.27 16.44l10.4 12.26-.75 6.94H1.5L.26 29l9.27-12.6z" color="#000" overflow="visible" enable-background="accumulate"/><path d="M2.17 28.75l8.13-11.1v5.6L6.9 28.8z"/><path fill="#e99696" d="M45.7 28.55l-9.08-10.9v5.5l4.43 5.46z"/><path fill="#f57c7c" stroke="#6b0000" stroke-width=".5" d="M37.26 16.45l-27.62-.07.72 1.1m0 0h26.3l.6-1.03" stroke-linejoin="bevel"/><path fill="url(#l)" stroke="#967a00" stroke-width=".75" d="M3.64 28.45L10 19.72c1.08-.9 1.96-1.44 5.46-1.82 2.65-.3 5.8-.14 7.47-1.2 2.47-1.6 3.74-2.82 5.9-2.84 2.56-.03 5.33 5.32 7.94 5.6l7.32 9.15z"/><path fill="none" stroke="#600" stroke-width=".5" d="M.3 28.8l2.63-1.3"/><path fill="none" stroke="#600" stroke-width=".5" d="M37.38 16.43l-.76 1.1"/><path fill="none" stroke="#600" stroke-width=".5" d="M47.43 28.55L45 27.3"/><path fill="#fff" stroke="#000" stroke-width=".5" d="M3.18 30.52a.8.8 0 1 1-1.6 0 .8.8 0 1 1 1.6 0z" color="#000" overflow="visible" enable-background="accumulate"/><path fill="#fff" stroke="#000" stroke-width=".5" d="M3.7 34.16a.8.8 0 1 1-1.63 0 .8.8 0 1 1 1.62 0z" color="#000" overflow="visible" enable-background="accumulate"/><path fill="#fff" stroke="#000" stroke-width=".5" d="M46.67 30.42a.8.8 0 1 1-1.62 0 .8.8 0 1 1 1.62 0z" color="#000" overflow="visible" enable-background="accumulate"/><path fill="#fff" stroke="#000" stroke-width=".5" d="M46.06 33.9a.8.8 0 1 1-1.6 0 .8.8 0 1 1 1.6 0z" color="#000" overflow="visible" enable-background="accumulate"/><path fill="url(#m)" stroke="#967a00" stroke-width=".75" d="M23.28 23.56c.08.13 6.92-3.2 9.78-3.8 1.68-.35 5.72 4.4 6.74 3.57l3.7 4.55-18.75.12z" color="#000" overflow="visible" enable-background="accumulate"/><path fill="url(#n)" stroke="#967a00" stroke-width=".75" d="M6.87 28.15c6.83-3.5 9-6.32 15.1-6.62 6.48-.3 6.18 2.3 17.88 6.52z" color="#000" overflow="visible" enable-background="accumulate"/><path fill="#f8a0a0" stroke="#6b0000" stroke-width=".5" d="M37.2 16.45l10.26 12.22-47.06.1 9.2-12.4.7 1.1m0 0L2.77 27.52l42.37-.02-8.5-10 .58-1.03" stroke-linejoin="bevel"/><g><path fill="none" stroke="#600" stroke-width=".5" d="M10.5 15.42l.86 1.1"/><path fill="url(#o)" d="M11.72 25.68l1.36 1.76 14.65-.05-7.12-3.95c-3.67-.04-7.8-.57-8.88 2.23z" transform="translate(1.01 -.909)"/><path fill="#509ef1" stroke="#204a87" stroke-width=".5" d="M11.4 2.37c-2.56-.05-5.24.94-6.44 1.85l1.27 3.83c1.26.25 2.45.4 3.7.12l1.9 5.1c-1.24.54-3.7 2.4-4.34 3.96l5.22 7.35c3.07-2.75 6.13-.96 8.77-2.06l-1.84-8.78c-1.12-.9-4.13-1.57-5.8-1.06L11.6 7.63c.97-.06 1.95-.87 2.55-1.47l-1.64-3.7c-.35-.06-.72-.08-1.1-.1zm.22 1.34l.8 1.8c-1.2 1-3.38 1.37-5.15 1.08l-.54-1.75c1.54-.8 3.16-1.23 4.9-1.12z"/><path fill="url(#p)" d="M11.72 25.47l-5.36-7.42c1.08-1.68 2.4-3.15 4.55-3.9l4.4 9.76c-.84.13-2.83.95-3.58 1.57z" transform="translate(1.01 -.909)"/><path fill="none" stroke="url(#q)" stroke-width=".5" d="M4.34 5.42C6.6 3.96 9.04 3.7 11.57 3.7" stroke-linecap="round" transform="translate(1.01 -.909)"/><path fill="none" stroke="url(#r)" stroke-width=".5" d="M6.3 8.05c1.4.3 4.52-.37 5.42-1.26" stroke-linecap="round" transform="translate(1.01 -.909)"/><path fill="none" stroke="#fff" stroke-width=".5" d="M8.03 17.24c.83-1.25 2.18-2.9 4.04-3.48" stroke-linecap="round"/><path fill="url(#s)" d="M20.46 23.45l-1.82-8.9c-1.8-.94-3.7-1.26-5.76-1L15.9 23.8c1.53-.07 3.04.33 4.56-.35z" transform="translate(1.01 -.909)"/><path fill="none" stroke="url(#t)" stroke-width=".5" d="M12.98 14.1c1.2-.32 3.77.03 5.3.83" stroke-linecap="round" transform="translate(1.01 -.909)"/></g><path fill="none" stroke="#f8a2a2" stroke-width=".5" d="M.7 29.2H47.5"/></g></svg>