<svg xmlns="http://www.w3.org/2000/svg" width="48" height="48" xmlns:xlink="http://www.w3.org/1999/xlink"><defs><linearGradient id="a"><stop offset="0" stop-color="#fff3c2"/><stop offset="1" stop-color="#e4c126"/></linearGradient><linearGradient id="b"><stop offset="0" stop-color="#ffde4c"/><stop offset="1" stop-color="#c4a000"/></linearGradient><radialGradient id="x" cx="20.885" cy="9.538" r="5.629" xlink:href="#a" fx="20.885" fy="9.538" gradientUnits="userSpaceOnUse"/><radialGradient id="i" cx="20.885" cy="9.538" r="5.629" xlink:href="#b" gradientUnits="userSpaceOnUse" fx="20.885" fy="9.538"/><radialGradient id="j" cx="20.885" cy="9.538" r="5.629" xlink:href="#b" gradientUnits="userSpaceOnUse" fx="20.885" fy="9.538"/><radialGradient id="k" cx="20.885" cy="9.538" r="5.629" xlink:href="#b" gradientUnits="userSpaceOnUse" fx="20.885" fy="9.538"/><radialGradient id="l" cx="20.885" cy="9.538" r="5.629" xlink:href="#b" gradientUnits="userSpaceOnUse" fx="20.885" fy="9.538"/><radialGradient id="d" cx="20.885" cy="9.538" r="5.629" xlink:href="#b" gradientUnits="userSpaceOnUse" fx="20.885" fy="9.538"/><radialGradient id="u" cx="20.885" cy="9.538" r="5.629" xlink:href="#b" gradientUnits="userSpaceOnUse" fx="20.885" fy="9.538"/><radialGradient id="t" cx="20.885" cy="9.538" r="5.629" xlink:href="#b" gradientUnits="userSpaceOnUse" fx="20.885" fy="9.538"/><radialGradient id="v" cx="20.885" cy="9.538" r="5.629" xlink:href="#b" gradientUnits="userSpaceOnUse" fx="20.885" fy="9.538"/><radialGradient id="o" cx="20.885" cy="9.538" r="5.629" xlink:href="#b" gradientUnits="userSpaceOnUse" fx="20.885" fy="9.538"/><radialGradient id="e" cx="20.885" cy="9.538" r="5.629" xlink:href="#b" gradientUnits="userSpaceOnUse" fx="20.885" fy="9.538"/><radialGradient id="f" cx="20.885" cy="9.538" r="5.629" xlink:href="#b" gradientUnits="userSpaceOnUse" fx="20.885" fy="9.538"/><radialGradient id="g" cx="20.885" cy="9.538" r="5.629" xlink:href="#b" gradientUnits="userSpaceOnUse" fx="20.885" fy="9.538"/><radialGradient id="h" cx="20.885" cy="9.538" r="5.629" xlink:href="#b" gradientUnits="userSpaceOnUse" fx="20.885" fy="9.538"/><radialGradient id="n" cx="20.885" cy="9.538" r="5.629" xlink:href="#b" gradientUnits="userSpaceOnUse" fx="20.885" fy="9.538"/><radialGradient id="p" cx="20.885" cy="9.538" r="5.629" xlink:href="#b" gradientUnits="userSpaceOnUse" fx="20.885" fy="9.538"/><radialGradient id="q" cx="20.885" cy="9.538" r="5.629" xlink:href="#b" gradientUnits="userSpaceOnUse" fx="20.885" fy="9.538"/><radialGradient id="r" cx="20.885" cy="9.538" r="5.629" xlink:href="#b" gradientUnits="userSpaceOnUse" fx="20.885" fy="9.538"/><radialGradient id="s" cx="20.885" cy="9.538" r="5.629" xlink:href="#b" gradientUnits="userSpaceOnUse" fx="20.885" fy="9.538"/><radialGradient id="y" cx="20.885" cy="9.538" r="5.629" xlink:href="#b" gradientUnits="userSpaceOnUse" fx="20.885" fy="9.538"/><radialGradient id="w" cx="20.885" cy="9.538" r="5.629" xlink:href="#b" gradientUnits="userSpaceOnUse" fx="20.885" fy="9.538"/><radialGradient id="m" cx="20.885" cy="9.538" r="5.629" xlink:href="#c" fx="20.885" fy="9.538" gradientUnits="userSpaceOnUse"/><linearGradient id="c"><stop offset="0" stop-color="#fff3c2"/><stop offset="1" stop-color="#e4c126"/></linearGradient><radialGradient cx="20.885" cy="9.538" r="5.629" fy="9.538" fx="20.885" gradientUnits="userSpaceOnUse" xlink:href="#c"/></defs><g stroke="#816900" color="#000" stroke-linecap="round" stroke-linejoin="round"><path fill="url(#d)" stroke-width=".865" d="M27.63 11.4a5.38 5.38 0 1 1-10.76 0 5.38 5.38 0 1 1 10.76 0z" transform="matrix(.578 0 0 .578 31.736 24.281)" overflow="visible" enable-background="accumulate"/><path fill="url(#e)" stroke-width=".865" d="M27.63 11.4a5.38 5.38 0 1 1-10.76 0 5.38 5.38 0 1 1 10.76 0z" transform="matrix(.578 0 0 .578 27.84 26.549)" overflow="visible" enable-background="accumulate"/><path fill="url(#f)" stroke-width=".865" d="M27.63 11.4a5.38 5.38 0 1 1-10.76 0 5.38 5.38 0 1 1 10.76 0z" transform="matrix(.578 0 0 .578 23.421 29.05)" overflow="visible" enable-background="accumulate"/><path fill="url(#g)" stroke-width=".865" d="M27.63 11.4a5.38 5.38 0 1 1-10.76 0 5.38 5.38 0 1 1 10.76 0z" transform="matrix(.578 0 0 .578 18.245 31.725)" overflow="visible" enable-background="accumulate"/><path fill="url(#h)" stroke-width=".865" d="M27.63 11.4a5.38 5.38 0 1 1-10.76 0 5.38 5.38 0 1 1 10.76 0z" transform="matrix(.578 0 0 .578 13.186 34.69)" overflow="visible" enable-background="accumulate"/><path fill="url(#i)" stroke-width=".865" d="M27.63 11.4a5.38 5.38 0 1 1-10.76 0 5.38 5.38 0 1 1 10.76 0z" transform="matrix(.578 0 0 .578 18.885 2.998)" overflow="visible" enable-background="accumulate"/><path fill="url(#j)" stroke-width=".865" d="M27.63 11.4a5.38 5.38 0 1 1-10.76 0 5.38 5.38 0 1 1 10.76 0z" transform="matrix(.578 0 0 .578 21.967 8.29)" overflow="visible" enable-background="accumulate"/><path fill="url(#k)" stroke-width=".865" d="M27.63 11.4a5.38 5.38 0 1 1-10.76 0 5.38 5.38 0 1 1 10.76 0z" transform="matrix(.578 0 0 .578 24.932 13.43)" overflow="visible" enable-background="accumulate"/><path fill="url(#l)" stroke-width=".865" d="M27.63 11.4a5.38 5.38 0 1 1-10.76 0 5.38 5.38 0 1 1 10.76 0z" transform="matrix(.578 0 0 .578 28.31 18.831)" overflow="visible" enable-background="accumulate"/><path fill="url(#m)" stroke-width=".434" d="M27.63 11.4a5.38 5.38 0 1 1-10.76 0 5.38 5.38 0 1 1 10.76 0z" transform="matrix(1.151 0 0 1.151 -18.866 11.175)" overflow="visible" enable-background="accumulate"/><path fill="url(#m)" stroke-width=".434" d="M27.63 11.4a5.38 5.38 0 1 1-10.76 0 5.38 5.38 0 1 1 10.76 0z" transform="matrix(1.151 0 0 1.151 -11.714 5.243)" overflow="visible" enable-background="accumulate"/><path fill="url(#m)" stroke-width=".434" d="M27.63 11.4a5.38 5.38 0 1 1-10.76 0 5.38 5.38 0 1 1 10.76 0z" transform="matrix(1.151 0 0 1.151 -4.154 .184)" overflow="visible" enable-background="accumulate"/><path fill="url(#m)" stroke-width=".434" d="M27.63 11.4a5.38 5.38 0 1 1-10.76 0 5.38 5.38 0 1 1 10.76 0z" transform="matrix(1.151 0 0 1.151 -16.075 15.71)" overflow="visible" enable-background="accumulate"/><path fill="url(#m)" stroke-width=".434" d="M27.63 11.4a5.38 5.38 0 1 1-10.76 0 5.38 5.38 0 1 1 10.76 0z" transform="matrix(1.151 0 0 1.151 -7.992 10.012)" overflow="visible" enable-background="accumulate"/><path fill="url(#m)" stroke-width=".434" d="M27.63 11.4a5.38 5.38 0 1 1-10.76 0 5.38 5.38 0 1 1 10.76 0z" transform="matrix(1.151 0 0 1.151 -11.423 21.235)" overflow="visible" enable-background="accumulate"/><path fill="url(#n)" stroke-width=".865" d="M27.63 11.4a5.38 5.38 0 1 1-10.76 0 5.38 5.38 0 1 1 10.76 0z" transform="matrix(.578 0 0 .578 27.258 22.595)" overflow="visible" enable-background="accumulate"/><path fill="url(#o)" stroke-width=".865" d="M27.63 11.4a5.38 5.38 0 1 1-10.76 0 5.38 5.38 0 1 1 10.76 0z" transform="matrix(.578 0 0 .578 23.13 25.154)" overflow="visible" enable-background="accumulate"/><path fill="url(#p)" stroke-width=".865" d="M27.63 11.4a5.38 5.38 0 1 1-10.76 0 5.38 5.38 0 1 1 10.76 0z" transform="matrix(.578 0 0 .578 18.303 27.596)" overflow="visible" enable-background="accumulate"/><path fill="url(#q)" stroke-width=".865" d="M27.63 11.4a5.38 5.38 0 1 1-10.76 0 5.38 5.38 0 1 1 10.76 0z" transform="matrix(.578 0 0 .578 13.07 30.155)" overflow="visible" enable-background="accumulate"/><path fill="url(#r)" stroke-width=".865" d="M27.63 11.4a5.38 5.38 0 1 1-10.76 0 5.38 5.38 0 1 1 10.76 0z" transform="matrix(.578 0 0 .578 24.176 18.99)" overflow="visible" enable-background="accumulate"/><path fill="url(#s)" stroke-width=".865" d="M27.63 11.4a5.38 5.38 0 1 1-10.76 0 5.38 5.38 0 1 1 10.76 0z" transform="matrix(.578 0 0 .578 19.525 21.49)" overflow="visible" enable-background="accumulate"/><path fill="url(#t)" stroke-width=".865" d="M27.63 11.4a5.38 5.38 0 1 1-10.76 0 5.38 5.38 0 1 1 10.76 0z" transform="matrix(.578 0 0 .578 21.443 16.315)" overflow="visible" enable-background="accumulate"/><path fill="url(#u)" stroke-width=".865" d="M27.63 11.4a5.38 5.38 0 1 1-10.76 0 5.38 5.38 0 1 1 10.76 0z" transform="matrix(.578 0 0 .578 15.803 18.35)" overflow="visible" enable-background="accumulate"/><path fill="url(#v)" stroke-width=".865" d="M27.63 11.4a5.38 5.38 0 1 1-10.76 0 5.38 5.38 0 1 1 10.76 0z" transform="matrix(.578 0 0 .578 19.021 12.849)" overflow="visible" enable-background="accumulate"/><path fill="url(#w)" stroke-width=".865" d="M27.63 11.4a5.38 5.38 0 1 1-10.76 0 5.38 5.38 0 1 1 10.76 0z" transform="matrix(.578 0 0 .578 17.257 7.999)" overflow="visible" enable-background="accumulate"/><path fill="url(#x)" stroke-width=".49" d="M27.63 11.4a5.38 5.38 0 1 1-10.76 0 5.38 5.38 0 1 1 10.76 0z" transform="matrix(1.02 0 0 1.02 3.719 -4.817)" overflow="visible" enable-background="accumulate"/><path fill="url(#m)" stroke-width=".434" d="M27.63 11.4a5.38 5.38 0 1 1-10.76 0 5.38 5.38 0 1 1 10.76 0z" transform="matrix(1.151 0 0 1.151 -1.305 4.604)" overflow="visible" enable-background="accumulate"/><path fill="url(#y)" stroke-width=".865" d="M27.63 11.4a5.38 5.38 0 1 1-10.76 0 5.38 5.38 0 1 1 10.76 0z" transform="matrix(.578 0 0 .578 14.291 24.398)" overflow="visible" enable-background="accumulate"/><path fill="url(#m)" stroke-width=".434" d="M27.63 11.4a5.38 5.38 0 1 1-10.76 0 5.38 5.38 0 1 1 10.76 0z" transform="matrix(1.151 0 0 1.151 -3.515 16.292)" overflow="visible" enable-background="accumulate"/><path fill="url(#m)" stroke-width=".434" d="M27.63 11.4a5.38 5.38 0 1 1-10.76 0 5.38 5.38 0 1 1 10.76 0z" transform="matrix(1.151 0 0 1.151 -5.724 27.108)" overflow="visible" enable-background="accumulate"/></g></svg>