<svg xmlns="http://www.w3.org/2000/svg" width="48" height="48" xmlns:xlink="http://www.w3.org/1999/xlink"><defs><linearGradient id="b"><stop offset="0" stop-color="#e9b96e"/><stop offset="1" stop-color="#8f5902"/></linearGradient><linearGradient id="a"><stop offset="0" stop-color="#e2ebf5"/><stop offset="1" stop-color="#4781d4"/></linearGradient><radialGradient cx="24.013" cy="31.31" r="23.875" gradientUnits="userSpaceOnUse" fy="31.31" fx="24.013" gradientTransform="matrix(1.042 0 0 1.042 -1.022 1.764)"><stop offset=".506" stop-color="#709EC3"/><stop offset=".727" stop-color="#8cb1cf"/><stop offset="1" stop-color="#fff" stop-opacity="0"/></radialGradient><radialGradient cx="17.151" cy="30.625" r="24.584" gradientUnits="userSpaceOnUse" fy="30.625" fx="17.151" gradientTransform="matrix(1.042 0 0 1.042 -1.022 1.764)"><stop offset="0" stop-color="#709EC3"/><stop offset=".088" stop-color="#739FC3"/><stop offset="1" stop-color="#8FAABF"/></radialGradient><radialGradient cx="23.628" cy="24.686" r="15.818" gradientUnits="userSpaceOnUse" fy="24.686" fx="23.628" gradientTransform="matrix(1.042 0 0 1.042 -1.022 1.764)"><stop offset="0" stop-color="#131619"/><stop offset="1" stop-color="#575F66"/></radialGradient><radialGradient cx="16.941" cy="35.913" r="18.285" gradientUnits="userSpaceOnUse" fy="35.913" fx="16.941"><stop offset="0" stop-color="#fff"/><stop offset=".421" stop-color="#AAD0E4"/><stop offset="1" stop-color="#7297BA"/></radialGradient><linearGradient x1="12.819" x2="33.272" y1="21.021" y2="40.24" gradientUnits="userSpaceOnUse"><stop offset=".332" stop-color="#fff"/><stop offset=".506" stop-color="#C1D7DC"/><stop offset="1" stop-color="#707F8C"/></linearGradient><radialGradient cx="22.68" cy="30.638" r="30.723" gradientUnits="userSpaceOnUse" fy="30.638" fx="22.68" gradientTransform="matrix(1.02 0 0 1.02 -.009 2.724)"><stop offset="0" stop-color="#224987"/><stop offset=".438" stop-color="#3065A0"/><stop offset=".469" stop-color="#3A6CA4"/><stop offset=".694" stop-color="#81A4C6"/><stop offset=".798" stop-color="#9FBCD5"/><stop offset="1" stop-color="#fff"/></radialGradient><radialGradient cx="22.5" cy="18.643" r="5.286" xlink:href="#a" gradientUnits="userSpaceOnUse" fx="22.5" fy="18.643"/><radialGradient id="h" cx="22.5" cy="18.643" r="5.286" xlink:href="#a" gradientUnits="userSpaceOnUse" fx="22.5" fy="18.643"/><radialGradient cx="22.5" cy="18.643" r="5.286" xlink:href="#a" gradientUnits="userSpaceOnUse" fx="22.5" fy="18.643"/><radialGradient id="c" cx="22.5" cy="18.643" r="5.286" xlink:href="#a" gradientUnits="userSpaceOnUse" fx="22.5" fy="18.643"/><radialGradient cx="22.5" cy="18.643" r="5.286" xlink:href="#a" gradientUnits="userSpaceOnUse" fx="22.5" fy="18.643"/><radialGradient cx="22.5" cy="18.643" r="5.286" xlink:href="#a" gradientUnits="userSpaceOnUse" fx="22.5" fy="18.643"/><radialGradient cx="22.5" cy="18.643" r="5.286" xlink:href="#a" gradientUnits="userSpaceOnUse" fx="22.5" fy="18.643"/><radialGradient id="f" cx="22.5" cy="18.643" r="5.286" xlink:href="#a" gradientUnits="userSpaceOnUse" fx="22.5" fy="18.643"/><radialGradient cx="22.5" cy="18.643" r="5.286" xlink:href="#a" gradientUnits="userSpaceOnUse" fx="22.5" fy="18.643"/><radialGradient cx="22.5" cy="18.643" r="5.286" xlink:href="#a" gradientUnits="userSpaceOnUse" fx="22.5" fy="18.643"/><radialGradient cx="22.5" cy="18.643" r="5.286" xlink:href="#a" gradientUnits="userSpaceOnUse" fx="22.5" fy="18.643"/><radialGradient cx="22.5" cy="18.643" r="5.286" xlink:href="#a" gradientUnits="userSpaceOnUse" fx="22.5" fy="18.643"/><radialGradient cx="22.5" cy="18.643" r="5.286" xlink:href="#a" gradientUnits="userSpaceOnUse" fx="22.5" fy="18.643"/><radialGradient cx="22.5" cy="18.643" r="5.286" xlink:href="#a" gradientUnits="userSpaceOnUse" fx="22.5" fy="18.643"/><radialGradient cx="22.5" cy="18.643" r="5.286" xlink:href="#a" gradientUnits="userSpaceOnUse" fx="22.5" fy="18.643"/><radialGradient cx="22.5" cy="18.643" r="5.286" xlink:href="#a" gradientUnits="userSpaceOnUse" fx="22.5" fy="18.643"/><radialGradient cx="22.5" cy="18.643" r="5.286" xlink:href="#a" gradientUnits="userSpaceOnUse" fx="22.5" fy="18.643"/><radialGradient id="d" cx="22.5" cy="18.643" r="5.286" xlink:href="#a" gradientUnits="userSpaceOnUse" fx="22.5" fy="18.643"/><radialGradient cx="22.5" cy="18.643" r="5.286" xlink:href="#a" gradientUnits="userSpaceOnUse" fx="22.5" fy="18.643"/><radialGradient cx="22.5" cy="18.643" r="5.286" xlink:href="#a" gradientUnits="userSpaceOnUse" fx="22.5" fy="18.643"/><radialGradient id="e" cx="22.5" cy="18.643" r="5.286" xlink:href="#a" gradientUnits="userSpaceOnUse" fx="22.5" fy="18.643"/><radialGradient cx="22.5" cy="18.643" r="5.286" xlink:href="#a" gradientUnits="userSpaceOnUse" fx="22.5" fy="18.643"/><radialGradient cx="22.5" cy="18.643" r="5.286" xlink:href="#a" gradientUnits="userSpaceOnUse" fx="22.5" fy="18.643"/><radialGradient cx="22.5" cy="18.643" r="5.286" xlink:href="#a" gradientUnits="userSpaceOnUse" fx="22.5" fy="18.643"/><radialGradient cx="22.5" cy="18.643" r="5.286" xlink:href="#a" gradientUnits="userSpaceOnUse" fx="22.5" fy="18.643"/><radialGradient id="g" cx="22.5" cy="18.643" r="5.286" xlink:href="#a" gradientUnits="userSpaceOnUse" fx="22.5" fy="18.643"/><radialGradient cx="22.5" cy="18.643" r="5.286" xlink:href="#a" gradientUnits="userSpaceOnUse" fx="22.5" fy="18.643" gradientTransform="matrix(.637 0 0 .637 53.141 10.973)"/><radialGradient cx="22.5" cy="18.643" r="5.286" xlink:href="#a" gradientUnits="userSpaceOnUse" fx="22.5" fy="18.643"/><radialGradient cx="22.5" cy="18.643" r="5.286" xlink:href="#a" gradientUnits="userSpaceOnUse" fx="22.5" fy="18.643"/><radialGradient cx="22.5" cy="18.643" r="5.286" xlink:href="#a" gradientUnits="userSpaceOnUse" fx="22.5" fy="18.643"/><radialGradient cx="22.5" cy="18.643" r="5.286" xlink:href="#a" gradientUnits="userSpaceOnUse" fx="22.5" fy="18.643"/><radialGradient cx="22.5" cy="18.643" r="5.286" xlink:href="#a" gradientUnits="userSpaceOnUse" fx="22.5" fy="18.643"/><radialGradient cx="22.5" cy="18.643" r="5.286" xlink:href="#a" gradientUnits="userSpaceOnUse" fx="22.5" fy="18.643"/><radialGradient cx="22.5" cy="18.643" r="5.286" xlink:href="#a" gradientUnits="userSpaceOnUse" fx="22.5" fy="18.643"/><radialGradient cx="22.5" cy="18.643" r="5.286" xlink:href="#a" gradientUnits="userSpaceOnUse" fx="22.5" fy="18.643"/><radialGradient cx="22.5" cy="18.643" r="5.286" xlink:href="#a" gradientUnits="userSpaceOnUse" fx="22.5" fy="18.643"/><radialGradient cx="22.5" cy="18.643" r="5.286" xlink:href="#a" gradientUnits="userSpaceOnUse" fx="22.5" fy="18.643"/><radialGradient cx="22.5" cy="18.643" r="5.286" xlink:href="#a" gradientUnits="userSpaceOnUse" fx="22.5" fy="18.643"/><radialGradient cx="22.5" cy="18.643" r="5.286" xlink:href="#a" gradientUnits="userSpaceOnUse" fx="22.5" fy="18.643"/><radialGradient cx="22.5" cy="18.643" r="5.286" xlink:href="#a" gradientUnits="userSpaceOnUse" fx="22.5" fy="18.643"/><radialGradient cx="22.5" cy="18.643" r="5.286" xlink:href="#a" gradientUnits="userSpaceOnUse" fx="22.5" fy="18.643"/><radialGradient cx="22.5" cy="18.643" r="5.286" xlink:href="#a" gradientUnits="userSpaceOnUse" fx="22.5" fy="18.643"/><radialGradient cx="22.5" cy="18.643" r="5.286" xlink:href="#a" gradientUnits="userSpaceOnUse" fx="22.5" fy="18.643"/><radialGradient cx="22.5" cy="18.643" r="5.286" xlink:href="#a" gradientUnits="userSpaceOnUse" fx="22.5" fy="18.643"/><radialGradient cx="22.5" cy="18.643" r="5.286" xlink:href="#a" gradientUnits="userSpaceOnUse" fx="22.5" fy="18.643"/><radialGradient cx="22.5" cy="18.643" r="5.286" xlink:href="#a" gradientUnits="userSpaceOnUse" fx="22.5" fy="18.643"/><radialGradient cx="22.5" cy="18.643" r="5.286" xlink:href="#a" gradientUnits="userSpaceOnUse" fx="22.5" fy="18.643"/><radialGradient cx="22.5" cy="18.643" r="5.286" xlink:href="#a" gradientUnits="userSpaceOnUse" fx="22.5" fy="18.643"/><radialGradient cx="22.5" cy="18.643" r="5.286" xlink:href="#a" gradientUnits="userSpaceOnUse" fx="22.5" fy="18.643"/><radialGradient cx="22.5" cy="18.643" r="5.286" xlink:href="#a" gradientUnits="userSpaceOnUse" fx="22.5" fy="18.643"/><radialGradient cx="22.5" cy="18.643" r="5.286" xlink:href="#a" gradientUnits="userSpaceOnUse" fx="22.5" fy="18.643"/><radialGradient cx="22.5" cy="18.643" r="5.286" xlink:href="#a" gradientUnits="userSpaceOnUse" fx="22.5" fy="18.643"/><radialGradient id="i" cx="22.5" cy="18.643" r="5.286" xlink:href="#a" gradientUnits="userSpaceOnUse" fx="22.5" fy="18.643"/><radialGradient id="j" cx="22.5" cy="18.643" r="5.286" xlink:href="#a" gradientUnits="userSpaceOnUse" fx="22.5" fy="18.643"/><radialGradient id="k" cx="22.5" cy="18.643" r="5.286" xlink:href="#a" gradientUnits="userSpaceOnUse" fx="22.5" fy="18.643"/><radialGradient id="l" cx="22.5" cy="18.643" r="5.286" xlink:href="#a" gradientUnits="userSpaceOnUse" fx="22.5" fy="18.643"/><radialGradient id="m" cx="22.5" cy="18.643" r="5.286" xlink:href="#a" gradientUnits="userSpaceOnUse" fx="22.5" fy="18.643"/><radialGradient id="n" cx="22.5" cy="18.643" r="5.286" xlink:href="#a" gradientUnits="userSpaceOnUse" fx="22.5" fy="18.643"/><radialGradient id="o" cx="22.5" cy="18.643" r="5.286" xlink:href="#a" gradientUnits="userSpaceOnUse" fx="22.5" fy="18.643"/><radialGradient id="p" cx="22.5" cy="18.643" r="5.286" xlink:href="#a" gradientUnits="userSpaceOnUse" fx="22.5" fy="18.643"/><radialGradient id="q" cx="22.5" cy="18.643" r="5.286" xlink:href="#a" gradientUnits="userSpaceOnUse" fx="22.5" fy="18.643"/><radialGradient id="r" cx="22.5" cy="18.643" r="5.286" xlink:href="#a" gradientUnits="userSpaceOnUse" fx="22.5" fy="18.643"/><radialGradient id="t" cx="22.5" cy="18.643" r="5.286" xlink:href="#a" gradientUnits="userSpaceOnUse" fx="22.5" fy="18.643"/><radialGradient id="u" cx="22.5" cy="18.643" r="5.286" xlink:href="#a" gradientUnits="userSpaceOnUse" fx="22.5" fy="18.643"/><radialGradient id="v" cx="22.5" cy="18.643" r="5.286" xlink:href="#a" gradientUnits="userSpaceOnUse" fx="22.5" fy="18.643"/><radialGradient id="H" cx="22.5" cy="18.643" r="5.286" xlink:href="#a" gradientUnits="userSpaceOnUse" fx="22.5" fy="18.643"/><radialGradient id="w" cx="22.5" cy="18.643" r="5.286" xlink:href="#a" gradientUnits="userSpaceOnUse" fx="22.5" fy="18.643"/><radialGradient id="y" cx="22.5" cy="18.643" r="5.286" xlink:href="#a" gradientUnits="userSpaceOnUse" fx="22.5" fy="18.643"/><radialGradient id="z" cx="22.5" cy="18.643" r="5.286" xlink:href="#a" gradientUnits="userSpaceOnUse" fx="22.5" fy="18.643"/><radialGradient id="A" cx="22.5" cy="18.643" r="5.286" xlink:href="#a" gradientUnits="userSpaceOnUse" fx="22.5" fy="18.643"/><radialGradient id="B" cx="22.5" cy="18.643" r="5.286" xlink:href="#a" gradientUnits="userSpaceOnUse" fx="22.5" fy="18.643"/><radialGradient id="C" cx="22.5" cy="18.643" r="5.286" xlink:href="#a" gradientUnits="userSpaceOnUse" fx="22.5" fy="18.643"/><radialGradient id="D" cx="22.5" cy="18.643" r="5.286" xlink:href="#a" gradientUnits="userSpaceOnUse" fx="22.5" fy="18.643"/><radialGradient id="E" cx="22.5" cy="18.643" r="5.286" xlink:href="#a" gradientUnits="userSpaceOnUse" fx="22.5" fy="18.643"/><radialGradient id="F" cx="22.5" cy="18.643" r="5.286" xlink:href="#a" gradientUnits="userSpaceOnUse" fx="22.5" fy="18.643"/><radialGradient id="G" cx="22.5" cy="18.643" r="5.286" xlink:href="#a" gradientUnits="userSpaceOnUse" fx="22.5" fy="18.643"/><radialGradient id="I" cx="22.5" cy="18.643" r="5.286" xlink:href="#a" gradientUnits="userSpaceOnUse" fx="22.5" fy="18.643"/><radialGradient id="J" cx="22.5" cy="18.643" r="5.286" xlink:href="#a" gradientUnits="userSpaceOnUse" fx="22.5" fy="18.643"/><radialGradient id="K" cx="22.5" cy="18.643" r="5.286" xlink:href="#a" gradientUnits="userSpaceOnUse" fx="22.5" fy="18.643"/><radialGradient id="L" cx="22.5" cy="18.643" r="5.286" xlink:href="#a" gradientUnits="userSpaceOnUse" fx="22.5" fy="18.643"/><radialGradient id="M" cx="22.5" cy="18.643" r="5.286" xlink:href="#a" gradientUnits="userSpaceOnUse" fx="22.5" fy="18.643"/><radialGradient id="av" cx="22.5" cy="18.643" r="5.286" xlink:href="#a" gradientUnits="userSpaceOnUse" fx="22.5" fy="18.643"/><radialGradient id="N" cx="22.5" cy="18.643" r="5.286" xlink:href="#a" gradientUnits="userSpaceOnUse" fx="22.5" fy="18.643"/><radialGradient id="O" cx="22.5" cy="18.643" r="5.286" xlink:href="#a" gradientUnits="userSpaceOnUse" fx="22.5" fy="18.643"/><radialGradient id="P" cx="22.5" cy="18.643" r="5.286" xlink:href="#a" gradientUnits="userSpaceOnUse" fx="22.5" fy="18.643"/><radialGradient id="Q" cx="22.5" cy="18.643" r="5.286" xlink:href="#a" gradientUnits="userSpaceOnUse" fx="22.5" fy="18.643"/><radialGradient id="R" cx="22.5" cy="18.643" r="5.286" xlink:href="#a" gradientUnits="userSpaceOnUse" fx="22.5" fy="18.643"/><radialGradient id="S" cx="22.5" cy="18.643" r="5.286" xlink:href="#a" gradientUnits="userSpaceOnUse" fx="22.5" fy="18.643"/><radialGradient id="T" cx="22.5" cy="18.643" r="5.286" xlink:href="#a" gradientUnits="userSpaceOnUse" fx="22.5" fy="18.643"/><radialGradient id="U" cx="22.5" cy="18.643" r="5.286" xlink:href="#a" gradientUnits="userSpaceOnUse" fx="22.5" fy="18.643"/><radialGradient id="V" cx="22.5" cy="18.643" r="5.286" xlink:href="#a" gradientUnits="userSpaceOnUse" fx="22.5" fy="18.643"/><radialGradient id="W" cx="22.5" cy="18.643" r="5.286" xlink:href="#a" gradientUnits="userSpaceOnUse" fx="22.5" fy="18.643"/><radialGradient id="X" cx="22.5" cy="18.643" r="5.286" xlink:href="#a" gradientUnits="userSpaceOnUse" fx="22.5" fy="18.643"/><radialGradient id="Y" cx="22.5" cy="18.643" r="5.286" xlink:href="#a" gradientUnits="userSpaceOnUse" fx="22.5" fy="18.643"/><radialGradient id="Z" cx="22.5" cy="18.643" r="5.286" xlink:href="#a" gradientUnits="userSpaceOnUse" fx="22.5" fy="18.643"/><radialGradient id="aa" cx="22.5" cy="18.643" r="5.286" xlink:href="#a" gradientUnits="userSpaceOnUse" fx="22.5" fy="18.643"/><radialGradient id="ab" cx="22.5" cy="18.643" r="5.286" xlink:href="#a" gradientUnits="userSpaceOnUse" fx="22.5" fy="18.643"/><radialGradient id="ax" cx="22.5" cy="18.643" r="5.286" xlink:href="#a" gradientUnits="userSpaceOnUse" fx="22.5" fy="18.643"/><radialGradient id="ac" cx="22.5" cy="18.643" r="5.286" xlink:href="#a" gradientUnits="userSpaceOnUse" fx="22.5" fy="18.643"/><radialGradient id="ae" cx="22.5" cy="18.643" r="5.286" xlink:href="#a" gradientUnits="userSpaceOnUse" fx="22.5" fy="18.643"/><radialGradient id="af" cx="22.5" cy="18.643" r="5.286" xlink:href="#a" gradientUnits="userSpaceOnUse" fx="22.5" fy="18.643"/><radialGradient id="x" cx="22.5" cy="18.643" r="5.286" xlink:href="#a" gradientUnits="userSpaceOnUse" fx="22.5" fy="18.643"/><radialGradient id="ad" cx="22.5" cy="18.643" r="5.286" xlink:href="#a" gradientUnits="userSpaceOnUse" fx="22.5" fy="18.643"/><radialGradient id="s" cx="22.5" cy="18.643" r="5.286" xlink:href="#a" gradientUnits="userSpaceOnUse" fx="22.5" fy="18.643"/><radialGradient id="ai" cx="22.5" cy="18.643" r="5.286" xlink:href="#a" gradientUnits="userSpaceOnUse" fx="22.5" fy="18.643"/><radialGradient id="ak" cx="22.5" cy="18.643" r="5.286" xlink:href="#a" gradientUnits="userSpaceOnUse" fx="22.5" fy="18.643"/><radialGradient id="am" cx="22.5" cy="18.643" r="5.286" xlink:href="#a" gradientUnits="userSpaceOnUse" fx="22.5" fy="18.643"/><radialGradient id="an" cx="22.5" cy="18.643" r="5.286" xlink:href="#a" gradientUnits="userSpaceOnUse" fx="22.5" fy="18.643"/><radialGradient id="ao" cx="22.5" cy="18.643" r="5.286" xlink:href="#a" gradientUnits="userSpaceOnUse" fx="22.5" fy="18.643"/><radialGradient id="ap" cx="22.5" cy="18.643" r="5.286" xlink:href="#a" gradientUnits="userSpaceOnUse" fx="22.5" fy="18.643"/><radialGradient id="aq" cx="22.5" cy="18.643" r="5.286" xlink:href="#a" gradientUnits="userSpaceOnUse" fx="22.5" fy="18.643"/><radialGradient id="al" cx="22.5" cy="18.643" r="5.286" xlink:href="#a" gradientUnits="userSpaceOnUse" fx="22.5" fy="18.643"/><radialGradient id="ar" cx="22.5" cy="18.643" r="5.286" xlink:href="#a" gradientUnits="userSpaceOnUse" fx="22.5" fy="18.643"/><radialGradient id="aj" cx="22.5" cy="18.643" r="5.286" xlink:href="#a" gradientUnits="userSpaceOnUse" fx="22.5" fy="18.643"/><radialGradient id="as" cx="22.5" cy="18.643" r="5.286" xlink:href="#a" gradientUnits="userSpaceOnUse" fx="22.5" fy="18.643"/><radialGradient id="at" cx="22.5" cy="18.643" r="5.286" xlink:href="#a" gradientUnits="userSpaceOnUse" fx="22.5" fy="18.643"/><radialGradient id="au" cx="22.5" cy="18.643" r="5.286" xlink:href="#a" gradientUnits="userSpaceOnUse" fx="22.5" fy="18.643"/><linearGradient id="ah" x1="19.496" x2="35.557" y1="42.646" y2="40.323" xlink:href="#b" gradientUnits="userSpaceOnUse"/><radialGradient id="aw" cx="22.5" cy="18.643" r="5.286" xlink:href="#a" gradientUnits="userSpaceOnUse" fx="22.5" fy="18.643"/><radialGradient id="ag" cx="22.5" cy="18.643" r="5.286" xlink:href="#a" gradientUnits="userSpaceOnUse" fx="22.5" fy="18.643"/><radialGradient id="ay" cx="22.5" cy="18.643" r="5.286" xlink:href="#a" gradientUnits="userSpaceOnUse" fx="22.5" fy="18.643"/><radialGradient id="az" cx="22.5" cy="18.643" r="5.286" xlink:href="#a" gradientUnits="userSpaceOnUse" fx="22.5" fy="18.643"/><radialGradient id="aA" cx="22.5" cy="18.643" r="5.286" xlink:href="#a" gradientUnits="userSpaceOnUse" fx="22.5" fy="18.643"/><radialGradient id="aB" cx="22.5" cy="18.643" r="5.286" xlink:href="#a" gradientUnits="userSpaceOnUse" fx="22.5" fy="18.643"/><radialGradient id="aC" cx="22.5" cy="18.643" r="5.286" xlink:href="#a" gradientUnits="userSpaceOnUse" fx="22.5" fy="18.643"/></defs><g><path fill="#2e3436" fill-rule="evenodd" stroke="#623c00" d="M37.6 34.23L20.34 37.7C9.7 46.07 5.33 39.2 2.27 29.1L.7 39.15l17.82 8.34 16.6-2.68c1.63-.85 8.83-7.92 8.83-7.92l1.62-14.13s-2.72 14.45-5 15.97c-2.2 1.45-2.98-4.5-2.98-4.5z"/><path fill="#e9b96e" fill-rule="evenodd" d="M2.27 32.43c3.34 8.46 8.7 13.28 17.8 6.22L18.67 47 1.34 38.92l.92-6.5z"/><path fill="#c17d11" fill-rule="evenodd" stroke="#764900" d="M10.27 7.8c1.93 9.03-1.9 18.08-8.23 21.77 2.93 9.98 7.3 16.85 17.96 8.48 2.03-2.86 4.3-6.75 3.32-13.25 4.2 4.08 8.37 8.24 14.34 9.76-.07.02.57 5.85 2.76 4.4 2.3-1.52 4.8-16.25 4.8-16.32C33.6 19.5 26.4 10.6 21.98.34 20.84 12.26 11.94 11.7 10.28 7.8z"/><path fill="url(#c)" fill-rule="evenodd" d="M28.43 19.8a4.8 4.8 0 1 1-9.57 0 4.8 4.8 0 1 1 9.57 0z" transform="matrix(.515 0 0 .514 7.977 -3.389)" overflow="visible" enable-background="accumulate"/><path fill="url(#d)" fill-rule="evenodd" d="M28.43 19.8a4.8 4.8 0 1 1-9.57 0 4.8 4.8 0 1 1 9.57 0z" transform="matrix(.525 0 0 .524 -.722 -3.086)" overflow="visible" enable-background="accumulate"/><path fill="url(#e)" fill-rule="evenodd" d="M28.43 19.8a4.8 4.8 0 1 1-9.57 0 4.8 4.8 0 1 1 9.57 0z" transform="matrix(.651 0 0 .65 -.689 -3.075)" overflow="visible" enable-background="accumulate"/><path fill="url(#f)" fill-rule="evenodd" d="M28.43 19.8a4.8 4.8 0 1 1-9.57 0 4.8 4.8 0 1 1 9.57 0z" transform="matrix(.515 0 0 .514 7.983 -.095)" overflow="visible" enable-background="accumulate"/><path fill="url(#g)" fill-rule="evenodd" d="M28.43 19.8a4.8 4.8 0 1 1-9.57 0 4.8 4.8 0 1 1 9.57 0z" transform="matrix(.515 0 0 .514 3.647 -3.022)" overflow="visible" enable-background="accumulate"/><path fill="url(#h)" fill-rule="evenodd" d="M28.43 19.8a4.8 4.8 0 1 1-9.57 0 4.8 4.8 0 1 1 9.57 0z" transform="matrix(.43 0 0 .429 7.286 -.364)" overflow="visible" enable-background="accumulate"/><path fill="url(#i)" fill-rule="evenodd" d="M28.43 19.8a4.8 4.8 0 1 1-9.57 0 4.8 4.8 0 1 1 9.57 0z" transform="matrix(.515 0 0 .514 10.742 1.689)" overflow="visible" enable-background="accumulate"/><path fill="url(#j)" fill-rule="evenodd" d="M28.43 19.8a4.8 4.8 0 1 1-9.57 0 4.8 4.8 0 1 1 9.57 0z" transform="matrix(.515 0 0 .514 7.549 2.327)" overflow="visible" enable-background="accumulate"/><path fill="url(#k)" fill-rule="evenodd" d="M28.43 19.8a4.8 4.8 0 1 1-9.57 0 4.8 4.8 0 1 1 9.57 0z" transform="matrix(.651 0 0 .65 -.849 .282)" overflow="visible" enable-background="accumulate"/><path fill="url(#l)" fill-rule="evenodd" d="M28.43 19.8a4.8 4.8 0 1 1-9.57 0 4.8 4.8 0 1 1 9.57 0z" transform="matrix(.515 0 0 .514 1.323 1.768)" overflow="visible" enable-background="accumulate"/><path fill="url(#m)" fill-rule="evenodd" d="M28.43 19.8a4.8 4.8 0 1 1-9.57 0 4.8 4.8 0 1 1 9.57 0z" transform="matrix(.515 0 0 .514 1.723 5.44)" overflow="visible" enable-background="accumulate"/><path fill="url(#n)" fill-rule="evenodd" d="M28.43 19.8a4.8 4.8 0 1 1-9.57 0 4.8 4.8 0 1 1 9.57 0z" transform="matrix(.515 0 0 .514 5.793 4.881)" overflow="visible" enable-background="accumulate"/><path fill="url(#o)" fill-rule="evenodd" d="M28.43 19.8a4.8 4.8 0 1 1-9.57 0 4.8 4.8 0 1 1 9.57 0z" transform="matrix(.651 0 0 .65 8.142 3.212)" overflow="visible" enable-background="accumulate"/><path fill="url(#p)" fill-rule="evenodd" d="M28.43 19.8a4.8 4.8 0 1 1-9.57 0 4.8 4.8 0 1 1 9.57 0z" transform="matrix(.515 0 0 .514 13.137 4.562)" overflow="visible" enable-background="accumulate"/><path fill="url(#q)" fill-rule="evenodd" d="M28.43 19.8a4.8 4.8 0 1 1-9.57 0 4.8 4.8 0 1 1 9.57 0z" transform="matrix(.651 0 0 .65 15.011 5.838)" overflow="visible" enable-background="accumulate"/><path fill="url(#r)" fill-rule="evenodd" d="M28.43 19.8a4.8 4.8 0 1 1-9.57 0 4.8 4.8 0 1 1 9.57 0z" transform="matrix(.515 0 0 .514 12.339 7.595)" overflow="visible" enable-background="accumulate"/><path fill="url(#s)" fill-rule="evenodd" d="M28.43 19.8a4.8 4.8 0 1 1-9.57 0 4.8 4.8 0 1 1 9.57 0z" transform="matrix(.567 0 0 .566 8.117 5.284)" overflow="visible" enable-background="accumulate"/><path fill="url(#t)" fill-rule="evenodd" d="M28.43 19.8a4.8 4.8 0 1 1-9.57 0 4.8 4.8 0 1 1 9.57 0z" transform="matrix(.651 0 0 .65 6.121 6.545)" overflow="visible" enable-background="accumulate"/><path fill="url(#u)" fill-rule="evenodd" d="M28.43 19.8a4.8 4.8 0 1 1-9.57 0 4.8 4.8 0 1 1 9.57 0z" transform="matrix(.515 0 0 .514 4.915 7.675)" overflow="visible" enable-background="accumulate"/><path fill="url(#v)" fill-rule="evenodd" d="M28.43 19.8a4.8 4.8 0 1 1-9.57 0 4.8 4.8 0 1 1 9.57 0z" transform="matrix(.651 0 0 .65 -2.061 8.061)" overflow="visible" enable-background="accumulate"/><path fill="url(#w)" fill-rule="evenodd" d="M28.43 19.8a4.8 4.8 0 1 1-9.57 0 4.8 4.8 0 1 1 9.57 0z" transform="matrix(.651 0 0 .65 -.142 10.586)" overflow="visible" enable-background="accumulate"/><path fill="url(#x)" fill-rule="evenodd" d="M28.43 19.8a4.8 4.8 0 1 1-9.57 0 4.8 4.8 0 1 1 9.57 0z" transform="matrix(.482 0 0 .482 6.982 9.983)" overflow="visible" enable-background="accumulate"/><path fill="url(#y)" fill-rule="evenodd" d="M28.43 19.8a4.8 4.8 0 1 1-9.57 0 4.8 4.8 0 1 1 9.57 0z" transform="matrix(.651 0 0 .65 4.707 9.879)" overflow="visible" enable-background="accumulate"/><path fill="url(#z)" fill-rule="evenodd" d="M28.43 19.8a4.8 4.8 0 1 1-9.57 0 4.8 4.8 0 1 1 9.57 0z" transform="matrix(.651 0 0 .65 5.515 12.505)" overflow="visible" enable-background="accumulate"/><path fill="url(#A)" fill-rule="evenodd" d="M28.43 19.8a4.8 4.8 0 1 1-9.57 0 4.8 4.8 0 1 1 9.57 0z" transform="matrix(.651 0 0 .65 3.899 16.041)" overflow="visible" enable-background="accumulate"/><path fill="url(#B)" fill-rule="evenodd" d="M28.43 19.8a4.8 4.8 0 1 1-9.57 0 4.8 4.8 0 1 1 9.57 0z" transform="matrix(.651 0 0 .65 3.697 18.667)" overflow="visible" enable-background="accumulate"/><path fill="url(#C)" fill-rule="evenodd" d="M28.43 19.8a4.8 4.8 0 1 1-9.57 0 4.8 4.8 0 1 1 9.57 0z" transform="matrix(.651 0 0 .65 2.081 21.698)" overflow="visible" enable-background="accumulate"/><path fill="url(#D)" fill-rule="evenodd" d="M28.43 19.8a4.8 4.8 0 1 1-9.57 0 4.8 4.8 0 1 1 9.57 0z" transform="matrix(.651 0 0 .65 -1.455 21.496)" overflow="visible" enable-background="accumulate"/><path fill="url(#E)" fill-rule="evenodd" d="M28.43 19.8a4.8 4.8 0 1 1-9.57 0 4.8 4.8 0 1 1 9.57 0z" transform="matrix(.651 0 0 .65 1.778 13.717)" overflow="visible" enable-background="accumulate"/><path fill="url(#F)" fill-rule="evenodd" d="M28.43 19.8a4.8 4.8 0 1 1-9.57 0 4.8 4.8 0 1 1 9.57 0z" transform="matrix(.651 0 0 .65 1.879 16.95)" overflow="visible" enable-background="accumulate"/><path fill="url(#G)" fill-rule="evenodd" d="M28.43 19.8a4.8 4.8 0 1 1-9.57 0 4.8 4.8 0 1 1 9.57 0z" transform="matrix(.651 0 0 .65 -3.172 12.909)" overflow="visible" enable-background="accumulate"/><path fill="url(#H)" fill-rule="evenodd" d="M28.43 19.8a4.8 4.8 0 1 1-9.57 0 4.8 4.8 0 1 1 9.57 0z" transform="matrix(.651 0 0 .65 -3.172 11.192)" overflow="visible" enable-background="accumulate"/><path fill="url(#I)" fill-rule="evenodd" d="M28.43 19.8a4.8 4.8 0 1 1-9.57 0 4.8 4.8 0 1 1 9.57 0z" transform="matrix(.651 0 0 .65 -1.657 15.334)" overflow="visible" enable-background="accumulate"/><path fill="url(#J)" fill-rule="evenodd" d="M28.43 19.8a4.8 4.8 0 1 1-9.57 0 4.8 4.8 0 1 1 9.57 0z" transform="matrix(.651 0 0 .65 -6.001 15.132)" overflow="visible" enable-background="accumulate"/><path fill="url(#K)" fill-rule="evenodd" d="M28.43 19.8a4.8 4.8 0 1 1-9.57 0 4.8 4.8 0 1 1 9.57 0z" transform="matrix(.651 0 0 .65 -8.728 17.758)" overflow="visible" enable-background="accumulate"/><path fill="url(#L)" fill-rule="evenodd" d="M28.43 19.8a4.8 4.8 0 1 1-9.57 0 4.8 4.8 0 1 1 9.57 0z" transform="matrix(.651 0 0 .65 -3.172 18.465)" overflow="visible" enable-background="accumulate"/><path fill="url(#M)" fill-rule="evenodd" d="M28.43 19.8a4.8 4.8 0 1 1-9.57 0 4.8 4.8 0 1 1 9.57 0z" transform="matrix(.651 0 0 .65 -6.708 21.395)" overflow="visible" enable-background="accumulate"/><path fill="url(#N)" fill-rule="evenodd" d="M28.43 19.8a4.8 4.8 0 1 1-9.57 0 4.8 4.8 0 1 1 9.57 0z" transform="matrix(.651 0 0 .65 -4.586 24.324)" overflow="visible" enable-background="accumulate"/><path fill="url(#O)" fill-rule="evenodd" d="M28.43 19.8a4.8 4.8 0 1 1-9.57 0 4.8 4.8 0 1 1 9.57 0z" transform="matrix(.651 0 0 .65 -.748 24.122)" overflow="visible" enable-background="accumulate"/><path fill="url(#P)" fill-rule="evenodd" d="M28.43 19.8a4.8 4.8 0 1 1-9.57 0 4.8 4.8 0 1 1 9.57 0z" transform="matrix(.651 0 0 .65 9.657 9.475)" overflow="visible" enable-background="accumulate"/><path fill="url(#Q)" fill-rule="evenodd" d="M28.43 19.8a4.8 4.8 0 1 1-9.57 0 4.8 4.8 0 1 1 9.57 0z" transform="matrix(.651 0 0 .65 10.566 13.313)" overflow="visible" enable-background="accumulate"/><path fill="url(#R)" fill-rule="evenodd" d="M28.43 19.8a4.8 4.8 0 1 1-9.57 0 4.8 4.8 0 1 1 9.57 0z" transform="matrix(.651 0 0 .65 12.889 16.344)" overflow="visible" enable-background="accumulate"/><path fill="url(#S)" fill-rule="evenodd" d="M28.43 19.8a4.8 4.8 0 1 1-9.57 0 4.8 4.8 0 1 1 9.57 0z" transform="matrix(.651 0 0 .65 15.819 18.768)" overflow="visible" enable-background="accumulate"/><path fill="url(#T)" fill-rule="evenodd" d="M28.43 19.8a4.8 4.8 0 1 1-9.57 0 4.8 4.8 0 1 1 9.57 0z" transform="matrix(.651 0 0 .65 18.647 20.182)" overflow="visible" enable-background="accumulate"/><path fill="url(#U)" fill-rule="evenodd" d="M28.43 19.8a4.8 4.8 0 1 1-9.57 0 4.8 4.8 0 1 1 9.57 0z" transform="matrix(.651 0 0 .65 21.172 22.91)" overflow="visible" enable-background="accumulate"/><path fill="url(#V)" fill-rule="evenodd" d="M28.43 19.8a4.8 4.8 0 1 1-9.57 0 4.8 4.8 0 1 1 9.57 0z" transform="matrix(.651 0 0 .65 22.587 22.506)" overflow="visible" enable-background="accumulate"/><path fill="url(#W)" fill-rule="evenodd" d="M28.43 19.8a4.8 4.8 0 1 1-9.57 0 4.8 4.8 0 1 1 9.57 0z" transform="matrix(.651 0 0 .65 24.304 18.465)" overflow="visible" enable-background="accumulate"/><path fill="url(#X)" fill-rule="evenodd" d="M28.43 19.8a4.8 4.8 0 1 1-9.57 0 4.8 4.8 0 1 1 9.57 0z" transform="matrix(.651 0 0 .65 24.304 18.061)" overflow="visible" enable-background="accumulate"/><path fill="url(#Y)" fill-rule="evenodd" d="M28.43 19.8a4.8 4.8 0 1 1-9.57 0 4.8 4.8 0 1 1 9.57 0z" transform="matrix(.651 0 0 .65 17.233 14.728)" overflow="visible" enable-background="accumulate"/><path fill="url(#Z)" fill-rule="evenodd" d="M28.43 19.8a4.8 4.8 0 1 1-9.57 0 4.8 4.8 0 1 1 9.57 0z" transform="matrix(.651 0 0 .65 14.606 11.899)" overflow="visible" enable-background="accumulate"/><path fill="url(#aa)" fill-rule="evenodd" d="M28.43 19.8a4.8 4.8 0 1 1-9.57 0 4.8 4.8 0 1 1 9.57 0z" transform="matrix(.651 0 0 .65 17.536 10.485)" overflow="visible" enable-background="accumulate"/><path fill="url(#ab)" fill-rule="evenodd" d="M28.43 19.8a4.8 4.8 0 1 1-9.57 0 4.8 4.8 0 1 1 9.57 0z" transform="matrix(.651 0 0 .65 24.506 14.424)" overflow="visible" enable-background="accumulate"/><path fill="url(#ac)" fill-rule="evenodd" d="M28.43 19.8a4.8 4.8 0 1 1-9.57 0 4.8 4.8 0 1 1 9.57 0z" transform="matrix(.651 0 0 .65 23.496 10.99)" overflow="visible" enable-background="accumulate"/><path fill="url(#ad)" fill-rule="evenodd" d="M28.43 19.8a4.8 4.8 0 1 1-9.57 0 4.8 4.8 0 1 1 9.57 0z" transform="matrix(.567 0 0 .566 13.269 7.204)" overflow="visible" enable-background="accumulate"/><path fill="url(#ae)" fill-rule="evenodd" d="M28.43 19.8a4.8 4.8 0 1 1-9.57 0 4.8 4.8 0 1 1 9.57 0z" transform="matrix(.482 0 0 .482 15.568 12.003)" overflow="visible" enable-background="accumulate"/><path fill="url(#af)" fill-rule="evenodd" d="M28.43 19.8a4.8 4.8 0 1 1-9.57 0 4.8 4.8 0 1 1 9.57 0z" transform="matrix(.588 0 0 .587 20.55 10.122)" overflow="visible" enable-background="accumulate"/><path fill="url(#ag)" fill-rule="evenodd" d="M28.43 19.8a4.8 4.8 0 1 1-9.57 0 4.8 4.8 0 1 1 9.57 0z" transform="matrix(.757 0 0 .756 18.068 19.003)" overflow="visible" enable-background="accumulate"/><path fill="#b2f174" fill-rule="evenodd" stroke="#4e9a06" d="M20.78 37.87c1.84-3.8 3.3-7.84 2.54-13.14 4.2 4.08 8.37 8.24 14.4 9.75l-16.94 3.4z"/><path fill="url(#ah)" fill-rule="evenodd" d="M18.6 47l1.2-8.4 17.47-3.53-1.8 9.1-16.88 2.82z"/><path fill="url(#ai)" fill-rule="evenodd" d="M28.43 19.8a4.8 4.8 0 1 1-9.57 0 4.8 4.8 0 1 1 9.57 0z" transform="matrix(.325 0 0 .324 14.55 1.483)" overflow="visible" enable-background="accumulate"/><path fill="url(#aj)" fill-rule="evenodd" d="M28.43 19.8a4.8 4.8 0 1 1-9.57 0 4.8 4.8 0 1 1 9.57 0z" transform="matrix(.325 0 0 .324 12.732 -2.658)" overflow="visible" enable-background="accumulate"/><path fill="url(#ak)" fill-rule="evenodd" d="M28.43 19.8a4.8 4.8 0 1 1-9.57 0 4.8 4.8 0 1 1 9.57 0z" transform="matrix(.325 0 0 .324 10.61 -1.547)" overflow="visible" enable-background="accumulate"/><path fill="url(#al)" fill-rule="evenodd" d="M28.43 19.8a4.8 4.8 0 1 1-9.57 0 4.8 4.8 0 1 1 9.57 0z" transform="matrix(.325 0 0 .324 4.752 -2.355)" overflow="visible" enable-background="accumulate"/><path fill="url(#am)" fill-rule="evenodd" d="M28.43 19.8a4.8 4.8 0 1 1-9.57 0 4.8 4.8 0 1 1 9.57 0z" transform="matrix(.325 0 0 .324 6.671 -1.648)" overflow="visible" enable-background="accumulate"/><path fill="url(#an)" fill-rule="evenodd" d="M28.43 19.8a4.8 4.8 0 1 1-9.57 0 4.8 4.8 0 1 1 9.57 0z" transform="matrix(.325 0 0 .324 2.731 -1.446)" overflow="visible" enable-background="accumulate"/><path fill="url(#ao)" fill-rule="evenodd" d="M28.43 19.8a4.8 4.8 0 1 1-9.57 0 4.8 4.8 0 1 1 9.57 0z" transform="matrix(.325 0 0 .324 5.055 1.888)" overflow="visible" enable-background="accumulate"/><path fill="url(#ap)" fill-rule="evenodd" d="M28.43 19.8a4.8 4.8 0 1 1-9.57 0 4.8 4.8 0 1 1 9.57 0z" transform="matrix(.325 0 0 .324 14.247 -1.446)" overflow="visible" enable-background="accumulate"/><path fill="url(#aq)" fill-rule="evenodd" d="M28.43 19.8a4.8 4.8 0 1 1-9.57 0 4.8 4.8 0 1 1 9.57 0z" transform="matrix(.325 0 0 .324 8.085 3.403)" overflow="visible" enable-background="accumulate"/><path fill="#e9b96e" fill-rule="evenodd" stroke="#633d00" d="M6.93.3c1.3 8.55 1.93 19.16.57 23.58 1.77-3.13 4.13-7.43 3-15.5C9.8 5 8.02 2.34 6.92.27z"/><path fill="url(#ar)" fill-rule="evenodd" d="M28.43 19.8a4.8 4.8 0 1 1-9.57 0 4.8 4.8 0 1 1 9.57 0z" transform="matrix(.325 0 0 .324 7.277 -.032)" overflow="visible" enable-background="accumulate"/><path fill="url(#as)" fill-rule="evenodd" d="M28.43 19.8a4.8 4.8 0 1 1-9.57 0 4.8 4.8 0 1 1 9.57 0z" transform="matrix(.482 0 0 .482 1.729 8.266)" overflow="visible" enable-background="accumulate"/><path fill="url(#at)" fill-rule="evenodd" d="M28.43 19.8a4.8 4.8 0 1 1-9.57 0 4.8 4.8 0 1 1 9.57 0z" transform="matrix(.482 0 0 .482 16.073 5.539)" overflow="visible" enable-background="accumulate"/><path fill="url(#au)" fill-rule="evenodd" d="M28.43 19.8a4.8 4.8 0 1 1-9.57 0 4.8 4.8 0 1 1 9.57 0z" transform="matrix(.482 0 0 .482 12.639 1.902)" overflow="visible" enable-background="accumulate"/><path fill="url(#av)" fill-rule="evenodd" d="M28.43 19.8a4.8 4.8 0 1 1-9.57 0 4.8 4.8 0 1 1 9.57 0z" transform="matrix(.757 0 0 .756 -5.469 19.508)" overflow="visible" enable-background="accumulate"/><path fill="url(#aw)" fill-rule="evenodd" d="M28.43 19.8a4.8 4.8 0 1 1-9.57 0 4.8 4.8 0 1 1 9.57 0z" transform="matrix(.325 0 0 .324 10.307 4.716)" overflow="visible" enable-background="accumulate"/><path fill="#8f5902" fill-rule="evenodd" d="M37.1 35.2l-1.84 9.17 8.55-7.77.84-7.4c-2.8 12.04-5.9 13.5-7.54 6z"/><path fill="none" stroke="#5d3900" d="M37.57 34.52c-.07 0 .57 5.85 2.75 4.4 2.3-1.52 4.8-16.26 4.8-16.32"/><path fill="url(#ax)" fill-rule="evenodd" d="M28.43 19.8a4.8 4.8 0 1 1-9.57 0 4.8 4.8 0 1 1 9.57 0z" transform="matrix(.651 0 0 .65 20.465 13.515)" overflow="visible" enable-background="accumulate"/><path fill="url(#ay)" fill-rule="evenodd" d="M28.43 19.8a4.8 4.8 0 1 1-9.57 0 4.8 4.8 0 1 1 9.57 0z" transform="matrix(.325 0 0 .324 9.196 -2.355)" overflow="visible" enable-background="accumulate"/><path fill="url(#az)" fill-rule="evenodd" d="M28.43 19.8a4.8 4.8 0 1 1-9.57 0 4.8 4.8 0 1 1 9.57 0z" transform="matrix(.325 0 0 .324 10.307 -3.264)" overflow="visible" enable-background="accumulate"/><path fill="url(#aA)" fill-rule="evenodd" d="M28.43 19.8a4.8 4.8 0 1 1-9.57 0 4.8 4.8 0 1 1 9.57 0z" transform="matrix(.325 0 0 .324 7.075 -3.769)" overflow="visible" enable-background="accumulate"/><path fill="url(#aB)" fill-rule="evenodd" d="M28.43 19.8a4.8 4.8 0 1 1-9.57 0 4.8 4.8 0 1 1 9.57 0z" transform="matrix(.325 0 0 .324 13.338 3.1)" overflow="visible" enable-background="accumulate"/><path fill="url(#aC)" fill-rule="evenodd" d="M28.43 19.8a4.8 4.8 0 1 1-9.57 0 4.8 4.8 0 1 1 9.57 0z" transform="matrix(.651 0 0 .65 21.456 16.592)" overflow="visible" enable-background="accumulate"/></g></svg>