<svg xmlns="http://www.w3.org/2000/svg" width="48" height="48" xmlns:xlink="http://www.w3.org/1999/xlink" xmlns:sodipodi="http://inkscape.sourceforge.net/DTD/sodipodi-0.dtd" sodipodi:version=".32" sodipodi:docbase="/home/cb/dev/src/houdini/support/icons/DOP" sodipodi:docname="seedvorticles.svg"><defs><linearGradient><stop offset="0" stop-color="#729fcf" stop-opacity=".495"/><stop offset="1" stop-color="#2d6aaa" stop-opacity=".485"/></linearGradient><linearGradient id="h"><stop offset="0" stop-color="#eeeeec"/><stop offset="1" stop-color="#eeeeec" stop-opacity="0"/></linearGradient><linearGradient id="g"><stop offset="0" stop-color="#eeeeec"/><stop offset="1" stop-color="#eeeeec" stop-opacity="0"/></linearGradient><linearGradient id="f"><stop offset="0" stop-color="#25356e"/><stop offset="1" stop-color="#25356e" stop-opacity=".153"/></linearGradient><linearGradient id="e"><stop offset="0" stop-color="#fff"/><stop offset="1" stop-color="#eeeeec" stop-opacity=".67"/></linearGradient><linearGradient><stop offset="0" stop-color="#95b8dc" stop-opacity=".733"/><stop offset="1" stop-color="#28609a" stop-opacity=".576"/></linearGradient><linearGradient id="d"><stop offset="0" stop-color="#378be5" stop-opacity=".454"/><stop offset="1" stop-color="#adc7e3" stop-opacity=".68"/></linearGradient><linearGradient id="c"><stop offset="0" stop-color="#eeeeec" stop-opacity=".753"/><stop offset="1" stop-color="#eeeeec" stop-opacity="0"/></linearGradient><radialGradient id="b" cx="294.624" cy="80.627" r="48.777" gradientUnits="userSpaceOnUse" fy="80.627" fx="294.624"><stop offset="0" stop-color="#e3f0f3"/><stop offset="1" stop-color="#b3cdd7"/></radialGradient><linearGradient id="a"><stop offset="0" stop-color="#fff"/><stop offset="1" stop-color="#eeeeec" stop-opacity="0"/></linearGradient><linearGradient id="l" x1="14.107" x2="39.69" y1="4.772" y2="43.606" xlink:href="#a" gradientUnits="userSpaceOnUse" gradientTransform="translate(.315 .251)"/><radialGradient cx="294.624" cy="80.627" r="48.777" fx="294.624" fy="80.627" gradientUnits="userSpaceOnUse"><stop offset="0" stop-color="#c2e9f3"/><stop offset="1" stop-color="#3b8fb1"/></radialGradient><radialGradient cx="257.459" cy="35.376" r="68.717" fx="257.459" fy="35.376" gradientUnits="userSpaceOnUse"><stop offset="0" stop-color="#fff"/><stop offset="1" stop-color="#8794A0"/></radialGradient><radialGradient cx="264.957" cy="80.291" r="53.348" fx="264.957" fy="80.291" gradientUnits="userSpaceOnUse"><stop offset="0" stop-color="#BAD1D7"/><stop offset="1" stop-color="#8794A0"/></radialGradient><radialGradient cx="289.834" cy="61.701" r="48.777" xlink:href="#b" gradientUnits="userSpaceOnUse" gradientTransform="matrix(.548 -.126 .104 .451 121.382 77.666)" fx="289.834" fy="61.701"/><radialGradient id="k" cx="289.834" cy="61.701" r="48.777" xlink:href="#b" gradientUnits="userSpaceOnUse" gradientTransform="matrix(.958 -.247 .182 .706 -257.368 66.738)" fx="289.834" fy="61.701"/><radialGradient id="m" cx="260.054" cy="50.502" r="6.304" xlink:href="#c" fx="260.054" fy="50.502" gradientTransform="matrix(1.711 4.804 -2.815 1.003 -297.53 -1290.63)" gradientUnits="userSpaceOnUse"/><linearGradient x1="9.19" x2="30.786" y1="24.181" y2="9.324" xlink:href="#d" gradientUnits="userSpaceOnUse" gradientTransform="translate(31.298 4.295)"/><linearGradient id="n" x1="8.595" x2="8.595" y1="11.654" y2="41.368" xlink:href="#e" gradientUnits="userSpaceOnUse" gradientTransform="translate(2.349 1.079)"/><linearGradient id="j" x1="18.975" x2="18.889" y1="47.084" y2=".079" xlink:href="#f" gradientUnits="userSpaceOnUse" gradientTransform="translate(1.429)"/><linearGradient x1="32.286" x2="24.714" y1="2.643" y2="39.929" xlink:href="#g" gradientUnits="userSpaceOnUse"/><linearGradient x1="32.286" x2="24.714" y1="2.643" y2="39.929" xlink:href="#g" gradientUnits="userSpaceOnUse" gradientTransform="translate(-13.071 3.643)"/><radialGradient cx="25.571" cy="27.357" r="6.857" xlink:href="#h" fx="25.571" fy="27.357" gradientTransform="matrix(1 0 0 .969 0 .855)" gradientUnits="userSpaceOnUse"/><linearGradient x1="47.394" x2="35.424" y1="40.406" y2="43.691" gradientUnits="userSpaceOnUse" xlink:href="#i"/><linearGradient id="x" x1="46.755" x2="38.024" y1="26.744" y2="33.53" gradientUnits="userSpaceOnUse" xlink:href="#i" gradientTransform="matrix(.688 0 0 .69 -40.912 -30.304)"/><linearGradient id="u" x1="45.48" x2="39.452" y1="13.341" y2="22.341" gradientTransform="matrix(.688 0 0 .69 -40.961 -29.693)" gradientUnits="userSpaceOnUse" xlink:href="#i"/><linearGradient x1="44.608" x2="39.518" y1="10.778" y2=".778" gradientUnits="userSpaceOnUse" xlink:href="#i"/><linearGradient id="w" x1="33.616" x2="26.841" y1="47.05" y2="37.55" gradientUnits="userSpaceOnUse" xlink:href="#i" gradientTransform="matrix(.688 0 0 .69 -40.912 -30.304)"/><linearGradient id="t" x1="35.578" x2="25.38" y1="29.079" y2="31.007" gradientUnits="userSpaceOnUse" xlink:href="#i" gradientTransform="matrix(.688 0 0 .69 -40.912 -30.304)"/><linearGradient id="v" x1="32.429" x2="28.976" y1="23.277" y2="12.492" gradientUnits="userSpaceOnUse" xlink:href="#i" gradientTransform="matrix(.688 0 0 .69 -40.912 -30.304)"/><linearGradient x1="35.52" x2="24.583" y1="6.845" y2="4.559" gradientUnits="userSpaceOnUse" xlink:href="#i"/><linearGradient id="s" x1="15.976" x2="20.422" y1="37.226" y2="47.868" gradientUnits="userSpaceOnUse" xlink:href="#i" gradientTransform="matrix(.688 0 0 .69 -40.912 -30.304)"/><linearGradient id="r" x1="22.825" x2="13.083" y1="27.173" y2="33.03" gradientUnits="userSpaceOnUse" xlink:href="#i" gradientTransform="matrix(.688 0 0 .69 -40.912 -30.304)"/><linearGradient id="q" x1="14.286" x2="23.21" y1="15.558" y2="21.201" gradientUnits="userSpaceOnUse" xlink:href="#i" gradientTransform="matrix(.688 0 0 .69 -40.912 -30.304)"/><linearGradient x1="23.391" x2="12.735" y1="4.956" y2="6.242" gradientUnits="userSpaceOnUse" xlink:href="#i"/><linearGradient x1="6.136" x2="6.136" y1="47.793" y2="36.222" gradientUnits="userSpaceOnUse" xlink:href="#i"/><linearGradient id="p" x1="1.857" x2="11.004" y1="27.027" y2="33.241" gradientUnits="userSpaceOnUse" xlink:href="#i" gradientTransform="matrix(.688 0 0 .69 -40.912 -30.304)"/><linearGradient id="o" x1="11.482" x2=".24" y1="18.736" y2="17.522" gradientUnits="userSpaceOnUse" xlink:href="#i" gradientTransform="matrix(.688 0 0 .69 -40.912 -30.304)"/><linearGradient x1="3.049" x2="9.341" y1="1.131" y2="11.346" gradientUnits="userSpaceOnUse" xlink:href="#i"/><linearGradient id="i"><stop offset="0" stop-color="#115971"/><stop offset="1" stop-color="#2e3436"/></linearGradient></defs><sodipodi:namedview pagecolor="#ffffff" bordercolor="#666666" borderopacity="1" showgrid="true"/><g><path fill="none" stroke="url(#j)" stroke-width="3" d="M3.05 6.8L28 1.58l16.85 9.86-2.5 25.3L17.9 46.1 5.3 30.8l-2.25-24z"/><path fill="url(#k)" d="M42.4 36.2l-24.45 9.56L6.03 30.73 3.36 7.3l24.46-5.27 16.78 9.6-2.2 24.57z" sodipodi:nodetypes="ccccccc"/><path fill="#b1c8c9" fill-opacity=".506" fill-rule="evenodd" d="M5.5 30.5l21.85-6.42 15 12.3-24.3 9.27L5.5 30.5z"/><path fill="none" stroke="#fff" d="M27.4 24.46l14 11.15" sodipodi:nodetypes="cc" stroke-linecap="round"/><path fill="none" stroke="#fff" d="M6.43 30.42l21.05-5.86" sodipodi:nodetypes="cc" stroke-linecap="round"/><path fill="none" stroke="#fff" d="M27.85 3.57L27.5 24.5" sodipodi:nodetypes="cc" stroke-linecap="round"/><path fill="none" stroke="#f0f0f0" d="M17.3 19.04l27-7.23" sodipodi:nodetypes="cc" stroke-linecap="round"/><path fill="none" stroke="url(#l)" stroke-width="1.5" d="M4.23 7.64L27.9 2.7l16 9.33L41.53 36l-23.2 8.9L6.37 30.36 4.23 7.64z"/><path fill="url(#m)" d="M17.97 45.56L5.8 30.76 4.78 7.87l12.73 11.1.47 26.58z" sodipodi:nodetypes="ccccc"/><path fill="none" stroke="url(#n)" d="M4.28 7.68l13.14 11.24.76 26.1" sodipodi:nodetypes="ccc" stroke-linecap="round"/><g fill-rule="evenodd" stroke="#eeeeec" stroke-width=".689"><path fill="url(#o)" d="M-41.32-18.44l5.26-3.93-.28 2.67 3.9.43-.37 3.56-3.9-.44-.3 2.67-4.32-4.97z" sodipodi:nodetypes="cccccccc" transform="translate(48.118 34.489)"/><path fill="url(#p)" d="M-32.7-7l-6.47.87 1.5-2.17-3.24-2.24 1.97-2.9 3.24 2.24 1.5-2.18L-32.7-7z" sodipodi:nodetypes="cccccccc" transform="translate(48.118 34.489)"/><path fill="url(#q)" d="M-24.26-15.4l-6.2 1.3 1.35-2.3-3.22-2.06 1.82-3.08 3.2 2.06 1.36-2.32 1.68 6.4z" sodipodi:nodetypes="cccccccc" transform="translate(48.118 34.489)"/><path fill="url(#r)" d="M-32.44-7.24l2.02-6.37 1.35 2.32 3.46-2.03 1.8 3.1-3.47 2.02 1.34 2.33-6.5-1.4z" sodipodi:nodetypes="cccccccc" transform="translate(48.118 34.489)"/><path fill="url(#s)" d="M-26.52 3.2l-6.2-2.7 2.55-1.12-1.6-3.72 3.42-1.5 1.58 3.72 2.55-1.13-2.3 6.46z" sodipodi:nodetypes="cccccccc" transform="translate(48.118 34.489)"/><path fill="url(#t)" d="M-24.2-8.8l3.8-4.9.42 2.46 3.66-.64.57 3.28-3.66.64.42 2.46-5.23-3.3z" sodipodi:nodetypes="cccccccc" transform="translate(48.118 34.489)"/><path fill="url(#u)" d="M-14.2-13.74l-.94-6.3 2.13 1.42 2.1-3.2 2.85 1.9-2.12 3.2 2.14 1.4-6.16 1.58z" sodipodi:nodetypes="cccccccc" transform="translate(48.118 34.489)"/><path fill="url(#v)" d="M-21.15-22.37l5.72 3.53-2.6.78 1.15 3.9-3.45 1.04-1.15-3.9-2.58.76 2.9-6.1z" sodipodi:nodetypes="cccccccc" transform="translate(48.118 34.489)"/><path fill="url(#w)" d="M-22.82-4.95l6.73 1.45-2.24 1.62 2.42 3.37-3 2.15-2.42-3.37-2.25 1.62.78-6.85z" sodipodi:nodetypes="cccccccc" transform="translate(48.118 34.489)"/><path fill="url(#x)" d="M-8.18-12.28l-1.14 6.45-1.6-2.1-3.1 2.43-2.16-2.78 3.1-2.42-1.6-2.08 6.5.5z" sodipodi:nodetypes="cccccccc" transform="translate(48.118 34.489)"/></g></g></svg>