<svg xmlns="http://www.w3.org/2000/svg" width="48" height="48" xmlns:xlink="http://www.w3.org/1999/xlink"><defs><linearGradient id="c"><stop offset="0" stop-opacity=".315"/><stop offset=".363" stop-opacity=".108"/><stop offset=".631" stop-opacity=".108"/><stop offset="1" stop-opacity=".297"/></linearGradient><linearGradient id="b"><stop offset="0" stop-color="#2e3436"/><stop offset="1" stop-color="#2e3436" stop-opacity="0"/></linearGradient><linearGradient id="a"><stop offset="0" stop-color="#fff"/><stop offset="1" stop-color="#acb4a5"/></linearGradient><radialGradient id="d" cx="13.136" cy="2.735" r="12.42" xlink:href="#a" fx="13.136" fy="2.735" gradientUnits="userSpaceOnUse" gradientTransform="matrix(1.119 -.784 .614 .877 -5.622 13.374)"/><radialGradient id="e" cx="32.426" cy="40.626" r="15.501" xlink:href="#b" fx="32.426" fy="40.626" gradientTransform="matrix(1 0 0 .332 0 27.137)" gradientUnits="userSpaceOnUse"/><linearGradient id="f" x1="10.354" x2="30.406" y1="31.055" y2="16.812" xlink:href="#c" gradientUnits="userSpaceOnUse" gradientTransform="translate(0 1.212)"/></defs><g><path fill="url(#d)" stroke="#2e3436" d="M27.88 13.96a11.92 11.92 0 1 1-23.84 0 11.92 11.92 0 1 1 23.84 0z" transform="translate(-3.586 -.253)" overflow="visible" enable-background="accumulate"/><path fill="none" stroke="#eeeeec" stroke-width=".92.088" d="M23.33 13.7a10.96 10.96 0 1 1-21.92 0 10.96 10.96 0 1 1 21.93 0z" overflow="visible" enable-background="accumulate"/><path fill="url(#e)" d="M47.43 40.63a15 4.65 0 1 1-30 0 15 4.65 0 1 1 30 0z" transform="translate(0 1.212)" overflow="visible" enable-background="accumulate"/><path fill="url(#f)" fill-rule="evenodd" d="M2.17 20.88l15.26 21.16c.04 2.4 8.3 4.44 14.8 4.4 6.5-.05 15.15-1.46 15.15-4.4l-25.5-36.3c-.4 2.97-4.02 7.35-7.12 9.8-3.1 2.45-9 4.9-12.6 5.34z"/></g></svg>