<svg xmlns="http://www.w3.org/2000/svg" width="48" height="48"><defs><radialGradient id="a" cx="29.164" cy="200.964" r="13.852" gradientUnits="userSpaceOnUse" fy="200.964" fx="29.164" gradientTransform="translate(-.162 -166.619)"><stop offset="0" stop-color="#45484C"/><stop offset="1" stop-color="#232426"/></radialGradient><radialGradient id="b" cx="40.959" cy="186.152" r="10.142" gradientUnits="userSpaceOnUse" fy="186.152" fx="40.959" gradientTransform="translate(-.162 -166.619)"><stop offset=".006" stop-color="#7A7F87"/><stop offset=".257" stop-color="#72767E"/><stop offset=".674" stop-color="#5B5F64"/><stop offset="1" stop-color="#45484C"/></radialGradient><radialGradient id="c" cx="44.196" cy="194.711" r="7.938" gradientUnits="userSpaceOnUse" fy="194.711" fx="44.196" gradientTransform="translate(-.162 -166.619)"><stop offset="0" stop-color="#DCE0E6"/><stop offset=".363" stop-color="#B9C1CC"/><stop offset="1" stop-color="#7A7F87"/></radialGradient><radialGradient id="d" cx="40.3" cy="195.863" r="5.845" gradientUnits="userSpaceOnUse" fy="195.863" fx="40.3" gradientTransform="translate(-.162 -166.619)"><stop offset=".006" stop-color="#7A7F87"/><stop offset=".257" stop-color="#72767E"/><stop offset=".674" stop-color="#5B5F64"/><stop offset="1" stop-color="#45484C"/></radialGradient><radialGradient id="e" cx="27.134" cy="191.287" r="5.39" gradientUnits="userSpaceOnUse" fy="191.287" fx="27.134" gradientTransform="translate(-.162 -166.619)"><stop offset=".006" stop-color="#7A7F87"/><stop offset="1" stop-color="#45484C"/></radialGradient><radialGradient id="f" cx="25.801" cy="177.97" r="12.27" gradientUnits="userSpaceOnUse" fy="177.97" fx="25.801" gradientTransform="translate(-.162 -166.619)"><stop offset="0" stop-color="#959CA6"/><stop offset=".43" stop-color="#A1A8B3"/><stop offset=".591" stop-color="#AAB1BC"/><stop offset=".858" stop-color="#C1C9D6"/><stop offset="1" stop-color="#D0D9E6"/></radialGradient><radialGradient id="g" cx="14.956" cy="188.785" r="12.493" gradientUnits="userSpaceOnUse" fy="188.785" fx="14.956" gradientTransform="translate(-.162 -166.619)"><stop offset="0" stop-color="#45484C"/><stop offset="1" stop-color="#232426"/></radialGradient><radialGradient id="h" cx="25.763" cy="185.824" r="6.391" gradientUnits="userSpaceOnUse" fy="185.824" fx="25.763" gradientTransform="translate(-.162 -166.619)"><stop offset=".006" stop-color="#232426"/><stop offset=".396" stop-color="#252729"/><stop offset=".659" stop-color="#2D2F32"/><stop offset=".884" stop-color="#3B3D41"/><stop offset="1" stop-color="#45484C"/></radialGradient><radialGradient id="i" cx="16.209" cy="180.536" r="8.41" gradientUnits="userSpaceOnUse" fy="180.536" fx="16.209" gradientTransform="translate(-.162 -166.619)"><stop offset=".006" stop-color="#7A7F87"/><stop offset=".257" stop-color="#72767E"/><stop offset=".674" stop-color="#5B5F64"/><stop offset="1" stop-color="#45484C"/></radialGradient><radialGradient id="j" cx="25.73" cy="201.197" r="14.331" gradientUnits="userSpaceOnUse" fy="201.197" fx="25.73" gradientTransform="translate(-.162 -166.619)"><stop offset="0" stop-color="#45484C"/><stop offset="1" stop-color="#232426"/></radialGradient><linearGradient id="k" x1="20.39" x2="24.998" y1="164.793" y2="194.636" gradientUnits="userSpaceOnUse" gradientTransform="translate(-.162 -166.619)"><stop offset="0" stop-color="#B9C1CC"/><stop offset="1" stop-color="#7A7F87"/></linearGradient><linearGradient id="l" x1="21.839" x2="14.156" y1="175.51" y2="184.085" gradientUnits="userSpaceOnUse" gradientTransform="translate(-.162 -166.619)"><stop offset="0" stop-color="#B9C1CC"/><stop offset="1" stop-color="#7A7F87"/></linearGradient><radialGradient id="m" cx="30.215" cy="176.464" r="20.857" gradientUnits="userSpaceOnUse" fy="176.464" fx="30.215" gradientTransform="translate(-.162 -166.619)"><stop offset="0" stop-color="#C5CDD9"/><stop offset=".391" stop-color="#B9C1CC"/><stop offset="1" stop-color="#7A7F87"/></radialGradient><radialGradient id="n" cx="25.805" cy="190.717" r="11.571" gradientUnits="userSpaceOnUse" fy="190.717" fx="25.805" gradientTransform="translate(-.162 -166.619)"><stop offset=".006" stop-color="#7A7F87"/><stop offset=".257" stop-color="#72767E"/><stop offset=".674" stop-color="#5B5F64"/><stop offset="1" stop-color="#45484C"/></radialGradient><radialGradient id="o" cx="37.998" cy="197.499" r="5.553" gradientUnits="userSpaceOnUse" fy="197.499" fx="37.998" gradientTransform="translate(-.162 -166.619)"><stop offset=".006" stop-color="#7A7F87"/><stop offset=".299" stop-color="#7D828A"/><stop offset=".517" stop-color="#858B93"/><stop offset=".712" stop-color="#949AA4"/><stop offset=".89" stop-color="#A9B0BA"/><stop offset="1" stop-color="#B9C1CC"/></radialGradient><radialGradient id="p" cx="-339.195" cy="253.592" r="5.552" gradientUnits="userSpaceOnUse" gradientTransform="matrix(1.153 0 0 1.16 416.124 -253.436)" fy="253.592" fx="-339.195"><stop offset=".006" stop-color="#7A7F87"/><stop offset=".257" stop-color="#72767E"/><stop offset=".674" stop-color="#5B5F64"/><stop offset="1" stop-color="#45484C"/></radialGradient><radialGradient id="q" cx="-1814.346" cy="2452.24" r="26.88" gradientUnits="userSpaceOnUse" gradientTransform="matrix(.141 -.854 1.374 .228 -3092.436 -2066.132)" fy="2452.24" fx="-1814.346"><stop offset="0" stop-color="#45484C"/><stop offset="1" stop-color="#232426"/></radialGradient><radialGradient id="r" cx="-1820.169" cy="2452.891" r="12.435" gradientUnits="userSpaceOnUse" gradientTransform="matrix(.141 -.854 1.374 .228 -3092.436 -2066.132)" fy="2452.891" fx="-1820.169"><stop offset=".006" stop-color="#7A7F87"/><stop offset=".257" stop-color="#72767E"/><stop offset=".674" stop-color="#5B5F64"/><stop offset="1" stop-color="#45484C"/></radialGradient><radialGradient id="s" cx="13.473" cy="198.051" r="11.141" gradientUnits="userSpaceOnUse" fy="198.051" fx="13.473" gradientTransform="translate(-.162 -166.619)"><stop offset=".006" stop-color="#7A7F87"/><stop offset=".257" stop-color="#72767E"/><stop offset=".674" stop-color="#5B5F64"/><stop offset="1" stop-color="#45484C"/></radialGradient><radialGradient id="t" cx="16.985" cy="176.936" r="16.354" gradientUnits="userSpaceOnUse" fy="176.936" fx="16.985" gradientTransform="translate(-.162 -166.619)"><stop offset="0" stop-color="#C5CDD9"/><stop offset=".391" stop-color="#B9C1CC"/><stop offset="1" stop-color="#7A7F87"/></radialGradient><radialGradient id="u" cx="9.994" cy="189.229" r="2.421" gradientUnits="userSpaceOnUse" fy="189.229" fx="9.994" gradientTransform="translate(-.162 -166.619)"><stop offset="0" stop-color="#C5CDD9"/><stop offset=".391" stop-color="#B9C1CC"/><stop offset="1" stop-color="#7A7F87"/></radialGradient><radialGradient id="v" cx="32.541" cy="173.929" r="4.713" gradientUnits="userSpaceOnUse" fy="173.929" fx="32.541" gradientTransform="translate(-.162 -166.619)"><stop offset="0" stop-color="#B9C1CC"/><stop offset="1" stop-color="#7A7F87"/></radialGradient><radialGradient id="w" cx="26.766" cy="171.939" r="2.15" gradientUnits="userSpaceOnUse" fy="171.939" fx="26.766" gradientTransform="translate(-.162 -166.619)"><stop offset="0" stop-color="#686C73"/><stop offset=".477" stop-color="#6B6F76"/><stop offset=".832" stop-color="#73787F"/><stop offset="1" stop-color="#7A7F87"/></radialGradient></defs><g><g><path fill="none" stroke="#232426" stroke-width="2" d="M35.63 36.22c2.3 1.6 5.3-.44 5.4-2.06 4.84-.1 4.84-3.73 4.84-4.83 0-2.4-1.1-3.4-2.63-4.4h.04l-.03.02c1.03-.3 2.02-1.02 1.84-2.63 2.65-1.06 1.77-4.07 0-4.25 1.77-.18 1.23-3.37-.54-3 .3-1.55-2.44-3.75-4.45-2.8l.1-.05c-.13-.35-.9-1.35-1.96-1.12.36-.7.24-1.4-.82-2.24 1.18.23 2-1.3.7-2 1.3-2-.7-3.67-1.9-3.08-.8-2-4.94-2.48-6.24-1.06-.95-1.18-2.95-1.9-4.25-1.3-1.62.74-2 2.13-2.13 3.78-.7-.12-3.43.85-3.67 3.7h.03c-1.22-.95-2.9-1.64-4.46-1.64-2.5 0-4.97 2.13-4.8 4.43-2.65 0-3.53 5.13-.17 6.2-.7 0-2.12.88-1.95 1.94-2.12-.35-4.25 1.6-4.25 4.08-1.06-.35-4.96 3-1.24 5.32-1.25.88-.72 3.36 3.36 4.07-1.44 2.86 1.4 3.36 1.4 3.36C10.16 44.73 17.66 47 21.52 47c4.32 0 11.74-2.24 13.76-10.64l.35-.14z"/></g><path fill="url(#a)" d="M29.44 30.6c-.76-.1-2.6 1.2-.76 2.72.28.28 1.3.1 1.3.1l.4.1h.03c-1 .27-1.9.86-2.46 1.45-2.26-1.4-4.33-.15-5.36 1.45l-.33-.48c-.87-3.82 2.84-3.7 3.7-3.05-.65-2.08 1.53-2.74 1.53-2.74l.18-.2c-2.04-.4-2.83-1.92-2.13-3.16-1.16-.27-2.73-2.62-2.46-4.2l-.05-.02h.05c.08-.44.3-.82.74-1.07l.2.34c0 2.4 2.23 4.86 4.43 4.53-.77 1.42.1 2.85 2.08 2.85l-1.06 1.38z"/><path fill="#232426" d="M32.5 29.65h.05c.4-.24.95-.8.95-1.4h-.02c-1.43.25-3.35.36-4.06-.8 0 0 0 .56.74 1.4 1-.3 2.43.03 2.4.8h-.06z"/><path fill="url(#b)" d="M35.12 27.9s2.5-.8 3.2-3.13c.7 1.88 2.88.4 2.88.4s4.25.35 3.9-2.85c-.1 1.26-.52 1.4-.52 1.4-.9.42-.82-2.37-.82-3.77-1.4.5-2.96-1.32-3.04-1.98 0 2.47-1.73 2.72-2.56 2.72-.82 0-2.63-.6-2.14-2.4.5-1.8-1.8-1.15-1.06.08.74 1.24 1.15 2.22.74 3.46-.47 1.4-3.38 2.14-5.1-.33-.3.96-.1 1.25-.1 1.25.27.78 1.07 1.48 1.86 1.8-1.25.25-1.63 1.27-1.63 1.27-.33.66-1.86.44-1.86.44l-.44.1c-.77 1.43.1 2.86 2.08 2.86-1.08-1.06-1.08-1.76-1.08-1.76 1.1 1.76 5.04.55 5.7.44z"/><path fill="url(#c)" d="M35.63 36.22c1.7.04 4.98-2.75 4.78-4.73-.2-2.2-1.74-1.98-1.74-1.98 2.52-1.65 4.08-3.9 2.53-4.36 0 0 1.06.1 2.08-.22h-.04c1.54 1 2.63 1.98 2.63 4.4 0 1.1 0 4.7-4.83 4.82-.1 1.64-3.2 3.7-5.5 2l.1.06z"/><path fill="url(#d)" d="M35.12 27.9c-.82.98-1.7 2.15-1.27 3.53l-.16.04c0-.9-.5-1.8-1.2-1.82h.05c.07-1.34-4.3-1.34-3.1.95-.44.43-1 1.74.54 2.83l.38.1c1.67-.45 3.65-.02 4.9 2.83l-.13-.26c1.42.77 5.48-2.4 5.26-4.6-.2-2.2-1.74-1.98-1.74-1.98 2.52-1.65 4.1-3.9 2.54-4.36 0 0-2.18 1.5-2.88-.4-.7 2.34-3.2 3.14-3.2 3.14z"/><path d="M33.7 31.47c0-.9-.5-1.8-1.2-1.82h.05c.4-.24.95-.8.95-1.4.77-.14 1.4-.3 1.62-.35-.82 1-1.7 2.16-1.26 3.57h-.17z"/><path fill="url(#e)" d="M24 21.84c0 2.4 2.23 4.86 4.43 4.53l.44-.1s1.53.2 1.86-.45c0 0 .38-1.02 1.63-1.26-.8-.33-1.6-1.03-1.85-1.8l.1-1.25c-.9 2.23-2.06 2.23-3.8 2.07-1.72-.17-2.54-1-2.8-1.73"/><path fill="url(#f)" d="M30.67 11.12c.95-1 2.4-1.66 3.6-1.56 2.14.18 4.27 1.6 4.98 3.37.28-.33.6-.56.94-.7-.13-.36-.9-1.36-1.96-1.13.36-.7.24-1.4-.82-2.24 1.18.23 2-1.3.7-2 1.3-2-.7-3.67-1.9-3.08-.8-2-4.94-2.48-6.24-1.06-.95-1.18-2.95-1.9-4.25-1.3-1.62.74-2 2.13-2.13 3.78-.7-.12-3.43.85-3.67 3.7.75.56 1.32 1.23 1.6 1.9 1.54-.22 2.9.95 3.55 2.24v.08c2.3-1.32 1.9-3.63 2.3-4.86.33.9 1.9.74 2.23.33-.24 1.3-.25 2.36 1.07 2.52z"/><path fill="url(#g)" d="M23.02 22.58c-3.04 1.07-4.36 1-5.67 0-.33 3.46-4.7 6.67-8.56 6.67 3.03-1.9 4.43 1.15 4.43 1.15 1-3.13 7.74-3.54 9.14 1.97.82-1.64 3.62-2.05 3.62-2.05-3.3-2.06-1.33-3.13-1.33-3.13-3.54-.92-2.3-3.63-2.3-3.63l.7-.96c-.27 1.58 1.3 3.93 2.46 4.2-.7 1.24.1 2.75 2.13 3.17l-.18.2s-2.18.64-1.52 2.72c-.87-.67-4.58-.78-3.7 3.04l.32.48c-.35.53-.58 1.1-.66 1.64-2-1.4-6.03-1.93-6.64 3.4-.1-2.66-1.93-4.64-3.86-5.24 1.38 0 2.4-2.26.6-3.1-.45-1.78-2.6-2.4-3.54-.86l-.35.44c-2.8-.66-4.7-2.3-4.12-3.45-.9 0-1-1.53-.56-2.14.9-1.23 1.56-.32 1.56-.32 1.15 1.48 3.7.98 3.2-.5 2.73 1 4.12-2.7 4.12-2.7.35-.35.5-.67.5-.67 1.64-.73 1.8-2.2 1.8-4.02 0-1-1.06-1.9-1.06-1.9 1.15 1.57 3.46 1.57 4.36-.33.58 1.98 1.32 2.4 2.47 2.47-.67 1.82 1.22 3.46 2.62 3.46h.05"/><path fill="url(#h)" d="M28.87 14.27c-.83.94-.98 3.16.1 5.04-.18-1.23-3.02-1.94-4.08-.34 0 0-.2-1.77-1.43-1.42 0 0 1.42-.7 1.95-2.3.14-.4.1-.92-.04-1.44l.03-.02c1 .24 2.3-1.73 2.3-1.73.18 1.15 1.17 2.22 1.17 2.22z"/><path fill="url(#i)" d="M23.07 22.58c.08-.44.3-.82.74-1.07.12-.8-.9-3.2-2.3-3.32.6 0 1-1.93.18-2.85-.8-.92-2.38-.87-3.27.2 0 0 .47-3.67-2.75-3.56-2.25.08-2 2.63-2 2.63-1.98-.9-4.53.9-1.65 3.62-2.14.16-3.38 1.97-3.38 2.96 2.64-.24 3.7 1.24 3.7 2.4.35-.35.5-.67.5-.67 1.65-.73 1.8-2.2 1.8-4.02 0-1-1.06-1.9-1.06-1.9 1.15 1.57 3.46 1.57 4.36-.32.58 1.97 1.32 2.38 2.47 2.47-.67 1.8 1.23 3.45 2.63 3.45h.04z"/><path fill="url(#j)" d="M35.28 36.36c-1.9 7.85-9.68 9.7-13.76 9.7-3.64 0-11.5-1.84-13.66-9.4 0 0 .9-.36 1.3-.45 2.5-.84 5.96 1.55 6.12 5.26.6-5.33 4.63-4.8 6.64-3.4.33-2.12 3-4.94 6.02-3.1 1.47-1.54 5.33-3.16 7.34 1.4z"/><path d="M22.37 23.57s-1.24 2.7 2.3 3.62c0 0-1.98 1.06 1.32 3.12 0 0-2.8.4-3.63 2.05-1.4-5.5-8.15-5.1-9.14-1.97 0 0-1.4-3.05-4.44-1.15 3.85 0 8.22-3.2 8.55-6.67 1.3 1 2.63 1.07 5.67 0l-.65 1z"/><path fill="#7a7f87" d="M28.84 14.24c.23-.27.5-.42.83-.42-.15-1 .28-1.94 1-2.7-1.23-.2-1.3-1.24-1.06-2.53-.32.4-1.9.57-2.22-.34-.4 1.24 0 3.54-2.3 4.86l.02-.02c.1.22.2.46.27.7l.04-.03c1 .25 2.3-1.72 2.3-1.72.18 1.15 1.17 2.22 1.17 2.22l-.03-.03z"/><path fill="url(#k)" d="M8.13 32.7c-2.8-.66-4.7-2.3-4.12-3.45-.9 0-1-1.53-.56-2.14.9-1.23 1.56-.32 1.56-.32 1.15 1.48 3.7.98 3.2-.5 2.73 1 4.13-1.56 4.13-2.7 0-1.17-1.07-2.65-3.7-2.4 0-1 1.23-2.8 3.36-2.96-2.88-2.72-.33-4.53 1.64-3.62 0 0-.25-2.55 2-2.63 3.22-.1 2.77 3.56 2.77 3.56.9-1.07 2.47-1.12 3.28-.2.8.92.4 2.85-.17 2.85 1.4.1 2.42 2.53 2.3 3.33.2 0 .2.34.2.34.26.74 1.08 1.56 2.8 1.73 1.73.16 2.9.16 3.8-2.06 1.72 2.48 4.63 1.73 5.1.34.4-1.24 0-2.22-.75-3.46-.74-1.23 1.57-1.9 1.07-.08-.5 1.8 1.32 2.4 2.14 2.4.83 0 2.55-.26 2.55-2.73.1.66 1.66 2.47 3.06 1.98 0 1.4-.08 4.2.82 3.78.18-.06.3 0 .3 0 .2-.36.28-.82.2-1.4 2.67-1.07 1.8-4.08 0-4.26 1.8-.18 1.25-3.37-.52-3 .36-1.78-3.37-4.44-5.32-2.14-.7-1.77-2.83-3.2-4.96-3.37-2.12-.17-4.96 1.95-4.6 4.26-1.42 0-2.13 3-.7 5.5-.2-1.25-3.03-1.96-4.1-.36 0 0-.17-1.78-1.4-1.42 0 0 1.4-.7 1.94-2.3.53-1.6-1.42-4.8-3.9-4.44-.7-1.77-3.54-3.54-6.02-3.54-2.5 0-4.97 2.12-4.8 4.43-2.65 0-3.53 5.13-.17 6.2-.7 0-2.12.88-1.95 1.94-2.12-.35-4.25 1.6-4.25 4.08-1.06-.36-4.96 3-1.24 5.32-1.25.88-.72 3.36 3.36 4.07.16-1.22 1.67-.6 1.67-.6z"/><path fill="url(#l)" d="M8.62 21.18c0-1 1.24-2.8 3.38-2.96-2.88-2.72-.33-4.53 1.64-3.62 0 0-.25-2.55 2-2.63 3.22-.1 2.77 3.56 2.77 3.56.9-1.07 2.48-1.12 3.28-.2.8.92.4 2.85-.17 2.85l1.97-.64s1.42-.7 1.95-2.3c.53-1.6-1.42-4.8-3.9-4.44-.7-1.77-3.54-3.54-6.03-3.54-2.5 0-4.97 2.13-4.8 4.43-2.65 0-3.54 5.13-.17 6.2-.7 0-2.12.88-1.95 1.94l.04 1.34z"/><path fill="url(#m)" d="M31.6 12.04c-.24.27-.64.8-.64 1.38 0 .07 0 .13.02.2l.17 1.14s-1.03.26-1.3.33c-.16.13-.34.64-.34 1.34 0 .64.16 1.43.6 2.22l-2.44.84.05.14c-.06-.1-.46-.3-.98-.3-.24.03-.56.1-.74.35 0 0-.46.68-.92 1.37 0 .1.07.2.07.3.1.2.22.5.22.5l-.1-.44c.12.32.62.73 1.68.83 1.5.14 1.86.18 2.44-1.24l.92-2.24 1.37 1.98c.75 1.06 1.64 1.08 2 1.04.47-.06.74-.3.78-.38.22-.65.07-1.2-.62-2.35-.53-.88-.43-1.9.24-2.57.64-.66 1.65-.82 2.4-.4.64.38 1.18 1.23.82 2.55-.08.28-.02.36 0 .4.14.17.6.32.86.32.8 0 1.24-.22 1.24-1.4l2.62-.16-.03-.1c.15.38 1 1.13 1.32 1 0 0 1.44-.5 1.64-.57 0-.68 0-1.37 0-1.37-.03 0-.1.06-.1.1.05-.12-.02-.45-.12-.54L43 16.6l.27-1.78c0-.24-.54-1-1.44-1.33-1-.4-1.44.12-1.58.3l-1.4 1.65-.83-2.03c-.5-1.3-2.2-2.4-3.85-2.54-.8-.07-1.87.42-2.56 1.16zM45.1 20.8c.22-.2.38-.4.38-.66 0-.05 0-.1 0-.13-.05-.25-.2-.45-.38-.54 0 .2 0 1.27 0 1.33z"/><path fill="none" stroke="#000" stroke-width=".25" d="M13.56 16.98c1.15 1.57 3.46 1.57 4.36-.33.58 1.98 1.32 2.4 2.47 2.47-.67 1.82 1.22 3.46 2.62 3.46-3.04 1.07-4.36 1-5.67 0-.33 3.46-4.7 6.67-8.56 6.67 3.03-1.9 4.43 1.15 4.43 1.15 1-3.13 7.74-3.54 9.14 1.97.82-1.64 3.62-2.05 3.62-2.05-3.3-2.06-1.33-3.13-1.33-3.13-3.54-.92-2.3-3.63-2.3-3.63"/><path d="M20.14 19.3c-1.3.73-2.96.15-3.45-.75-.34 1.9.97 2.63 2.04 2.63 1.93 0 1.4-1.9 1.4-1.9z"/><path fill="none" stroke="#222626" stroke-width=".5" d="M14.63 18.88c0 1.8-.17 3.3-1.8 4.03"/><path fill="url(#n)" d="M15.7 31.36c.46-2.63 3.9-1.6 4.23-.34 1.26-.34 3.2 1.83.23 2.63-.68 1.02-2.4 1.37-3.08.8.1.73-.8 1.04-1.46.85-.45-.14-.6-.97-.6-.97-1.7-.68-1.37-3.43.7-2.97z"/><circle cx="22.677" cy="193.697" r=".855" fill="#3a3b40" transform="translate(-.162 -166.619)"/><path fill="#45484c" d="M36.44 22.3c1.64 1.32 3.95.45 4.28.12-1.65 2.52-3.73 3.73-5.5.98 1 .1 1.22-1.1 1.22-1.1z"/><path fill="#45484c" d="M28 24.17c-.12.77.76 1.32 1.52.88.77-.44.55-1.1.22-1.1-.32 0-1.75.22-1.75.22z"/><path fill="none" stroke="#000" stroke-width=".25" d="M24 21.84c0 2.4 2.23 4.86 4.43 4.53-.77 1.42.1 2.85 2.08 2.85"/><path fill="none" stroke="#000" stroke-width=".25" d="M29.42 27.46c1.1 1.76 5.04.55 5.7.44-1.1 1.32-2.3 2.97-.33 5.05"/><path fill="url(#o)" d="M40.6 27.25c1.76-.77 3.3.32 3.4 1.42.12 1.1-.76 2.2-1.53 2.4.55.56.92.85.33 1.44-.33.34-1.6.53-2.52.45-2.77-.4.44-1.54.44-1.54-1.76.34-3.84 0-3.84-1.52 0-1.54.55-1.87 1.97-2.2-1-1.8 1.97-2.2 1.76-.43z"/><path fill="url(#p)" d="M28.1 36.4c2.02-.88 3.8.4 3.92 1.67.12 1.27-.9 2.54-1.77 2.8.63.63 1.06.97.37 1.65-.37.38-1.84.6-2.9.5-3.2-.47.5-1.77.5-1.77-2.02.38-4.43 0-4.43-1.78s.62-2.17 2.27-2.55c-1.15-2.1 2.27-2.55 2.02-.5z"/><path fill="url(#q)" d="M17.2 41.04c-.82-1.67.9-2.73 2.42-2.58 1.53.16 2.9 1.16 3.1 1.86.84-.34 1.28-.6 2 .05.4.35.5 1.48.25 2.25-.96 2.27-2.04-.72-2.04-.72.2 1.57-.55 3.27-2.66 2.92-2.1-.34-2.48-.9-2.73-2.18-2.64.44-2.75-2.18-.35-1.6z"/><path fill="url(#r)" d="M21.28 40.2c-.8-1.68.92-2.74 2.44-2.58 1.53.16 2.9 1.16 3.1 1.86.83-.34 1.28-.6 2 .04.4.36.5 1.5.26 2.26-.97 2.27-2.05-.73-2.05-.73.2 1.58-.55 3.28-2.65 2.93-2.1-.35-2.5-.9-2.74-2.18-2.64.44-2.75-2.18-.36-1.6z"/><path fill="none" stroke="#000" stroke-width=".25" d="M35.28 36.36c-2-4.56-5.87-2.94-7.34-1.4-3-1.84-5.7.98-6.02 3.1-2-1.4-6.03-1.93-6.64 3.4-.16-3.7-3.63-6.1-6.1-5.26"/><path fill="url(#s)" d="M7.86 36.66s-2.85-.5-1.4-3.35c.16-1.22 1.67-.6 1.67-.6l.35-.44c.93-1.54 3.1-.92 3.55.86 1.78.85.77 3.1-.62 3.1-.75-.24-1.53-.25-2.23-.02-.4.1-1.3.46-1.3.46z"/><path fill="url(#t)" d="M12.75 9.82c-.5.56-.77 1.2-.73 1.77l.1 1.4h-1.4c-.54 0-.92.7-1.03 1.36-.02.07-.04.22-.04.4.07-.13.14-.3.2-.37.57-.86 1.57-1.32 2.65-1.34.4-1.3 1.4-2.35 3.1-2.4 1.6-.06 2.53.6 3.05 1.16.46.5.73 1.1.9 1.7.2-.05.4-.15.6-.16.98 0 1.9.4 2.52 1.1.4.44.57 1 .67 1.56.3-.26.65-.65.83-1.2.02-.05.02-.1.02-.18 0-.37-.23-1.05-.73-1.66-.26-.3-.93-1-1.76-.87l-1.02.15-.38-.96c-.5-1.23-2.8-2.72-4.8-2.72-1 0-2.04.47-2.75 1.24z"/><path fill="url(#u)" d="M6.67 21.68c-.64.54-1.02 1.38-1.02 2.24v1.48s-.25-.03-.37-.05c.1.05.5.28.77.67 0 0 0-.05 0-.05.22.3.57.4.8.4-.13-.53-.6-2.14-.6-2.14l2.4.82c.6.22 1.1.18 1.53-.1.58-.42.83-1.16.83-1.38 0-.1-.02-.38-.3-.65-.4-.36-1.1-.5-1.96-.43l-1.43.13s0-.86 0-1.2c-.2.1-.44.1-.63.25z"/><path fill="url(#v)" d="M28.78 3.98c1.9-1.1 4.77-.25 3.13 1.4-1.64 1.65-.65 3.13 1.5 2.96 2.13-.16 4.27 1.32 4.43 2.8-2.47-1.8-5.12-1.67-7.17 0-1.7.17-1.06-2.55-1.06-2.55-1.8 1.06-2.46-.1-2.63-1.16-.17-1.07 0-2.4 1.8-3.46z"/><path fill="url(#w)" d="M24.42 5.13c.33-1.23 2.4-2.96 4.36-1.15-.9.5-.57 1.57-.08 1.73-1.32-.15-1.73 1.4-1.73 1.74-.16-1.48-2.55-2.3-2.55-2.3z"/><g><path fill="#424b4f" d="M21.52 46.07c-3.64 0-11.5-1.85-13.66-9.4C10.16 44.72 17.66 47 21.52 47c4.32 0 11.74-2.24 13.76-10.64-1.9 7.85-9.68 9.7-13.76 9.7z"/></g><path fill="none" stroke="#000" stroke-width=".25" d="M22.25 35.94c-.87-3.82 2.84-3.7 3.7-3.05-.65-2.08 1.53-2.74 1.53-2.74"/><path d="M30 33.43c-1.54-1.1-1-2.4-.56-2.83-.76-.1-2.6 1.2-.76 2.72.28.28 1.3.1 1.3.1z"/><path fill="none" stroke="#000" stroke-width=".25" d="M33.47 28.53c-.12.5-.52.88-.92 1.12h-.05c.7.02 1.2.92 1.2 1.82"/></g></svg>