<svg xmlns="http://www.w3.org/2000/svg" width="48" height="48" xmlns:xlink="http://www.w3.org/1999/xlink"><defs><linearGradient x1="6.894" x2="27.4" y1="-359.824" y2="-381.302" xlink:href="#a" gradientUnits="userSpaceOnUse" gradientTransform="matrix(-.054 .103 -.093 -.059 198.905 -255.689)"/><radialGradient cx="21.92" cy="-382.965" r="21.744" xlink:href="#b" gradientUnits="userSpaceOnUse" gradientTransform="matrix(.071 .042 -.062 .109 207.476 -189.818)" fx="21.92" fy="-382.965"/><linearGradient x1="6.894" x2="27.4" y1="-359.824" y2="-381.302" xlink:href="#a" gradientUnits="userSpaceOnUse" gradientTransform="matrix(-.054 .103 -.093 -.059 198.905 -255.689)"/><radialGradient cx="21.92" cy="-382.965" r="21.744" xlink:href="#b" gradientUnits="userSpaceOnUse" gradientTransform="matrix(.071 .042 -.062 .109 207.476 -189.818)" fx="21.92" fy="-382.965"/><linearGradient x1="6.894" x2="27.4" y1="-359.824" y2="-381.302" xlink:href="#a" gradientUnits="userSpaceOnUse" gradientTransform="matrix(-.054 .103 -.093 -.059 198.905 -255.689)"/><radialGradient cx="21.92" cy="-382.965" r="21.744" xlink:href="#b" gradientUnits="userSpaceOnUse" gradientTransform="matrix(.071 .042 -.062 .109 207.476 -189.818)" fx="21.92" fy="-382.965"/><linearGradient x1="6.894" x2="27.4" y1="-359.824" y2="-381.302" xlink:href="#a" gradientUnits="userSpaceOnUse" gradientTransform="matrix(-.054 .103 -.093 -.059 198.905 -255.689)"/><radialGradient cx="21.92" cy="-382.965" r="21.744" xlink:href="#b" gradientUnits="userSpaceOnUse" gradientTransform="matrix(.071 .042 -.062 .109 207.476 -189.818)" fx="21.92" fy="-382.965"/><linearGradient x1="6.894" x2="27.4" y1="-359.824" y2="-381.302" xlink:href="#a" gradientUnits="userSpaceOnUse" gradientTransform="matrix(-.054 .103 -.093 -.059 198.905 -255.689)"/><radialGradient cx="21.92" cy="-382.965" r="21.744" xlink:href="#b" gradientUnits="userSpaceOnUse" gradientTransform="matrix(.071 .042 -.062 .109 207.476 -189.818)" fx="21.92" fy="-382.965"/><linearGradient id="a"><stop offset="0" stop-color="#fff"/><stop offset="1" stop-color="#fff" stop-opacity="0"/></linearGradient><linearGradient x1="6.894" x2="27.4" y1="-359.824" y2="-381.302" xlink:href="#a" gradientUnits="userSpaceOnUse" gradientTransform="matrix(-.054 .103 -.093 -.059 198.905 -255.689)"/><linearGradient id="b"><stop offset="0" stop-color="#fff"/><stop offset="1" stop-color="#fff" stop-opacity="0"/></linearGradient><radialGradient cx="21.92" cy="-382.965" r="21.744" xlink:href="#b" gradientUnits="userSpaceOnUse" gradientTransform="matrix(.071 .042 -.062 .109 207.476 -189.818)" fx="21.92" fy="-382.965"/><linearGradient id="c" x1="1.705" x2="31.127" y1="16.045" y2="16.045" gradientUnits="userSpaceOnUse" gradientTransform="translate(-.275 -.861)"><stop offset="0" stop-color="#fff"/><stop offset="1" stop-color="#B4D8E9"/></linearGradient><linearGradient id="d" x1="17.424" x2="46.846" y1="20.086" y2="20.086" gradientUnits="userSpaceOnUse" gradientTransform="translate(-.275 -.861)"><stop offset="0" stop-color="#fff"/><stop offset="1" stop-color="#B4D8E9"/></linearGradient><linearGradient x1="154.141" x2="167.273" y1="25.191" y2="14.091" gradientUnits="userSpaceOnUse" gradientTransform="matrix(1.041 0 0 1.042 -151.199 -.89)"><stop offset="0" stop-color="#fff"/><stop offset="1" stop-color="#B4D8E9"/></linearGradient><linearGradient x1="171.713" x2="183.595" y1="28.418" y2="17.318" gradientUnits="userSpaceOnUse" gradientTransform="matrix(1.041 0 0 1.042 -151.199 -.89)"><stop offset="0" stop-color="#fff"/><stop offset="1" stop-color="#B4D8E9"/></linearGradient><linearGradient x1="155.912" x2="156.375" y1="-96.79" y2="-90.701" gradientTransform="matrix(.982 .187 -.187 .982 12.655 93.395)" gradientUnits="userSpaceOnUse"><stop offset="0" stop-color="#fff"/><stop offset="1" stop-color="#B4D8E9"/></linearGradient><linearGradient x1="155.723" x2="156.147" y1="-97.031" y2="-93.009" gradientTransform="matrix(.982 .187 -.187 .982 12.655 93.395)" gradientUnits="userSpaceOnUse"><stop offset="0" stop-color="#fff"/><stop offset="1" stop-color="#B4D8E9"/></linearGradient><linearGradient x1="149.361" x2="149.824" y1="-88.419" y2="-82.329" gradientTransform="matrix(.982 .187 -.187 .982 12.655 93.395)" gradientUnits="userSpaceOnUse"><stop offset="0" stop-color="#fff"/><stop offset="1" stop-color="#B4D8E9"/></linearGradient><linearGradient x1="149.172" x2="149.596" y1="-88.659" y2="-84.638" gradientTransform="matrix(.982 .187 -.187 .982 12.655 93.395)" gradientUnits="userSpaceOnUse"><stop offset="0" stop-color="#fff"/><stop offset="1" stop-color="#B4D8E9"/></linearGradient><linearGradient x1="140.194" x2="140.658" y1="-93.801" y2="-87.71" gradientTransform="matrix(.982 .187 -.187 .982 12.655 93.395)" gradientUnits="userSpaceOnUse"><stop offset="0" stop-color="#fff"/><stop offset="1" stop-color="#B4D8E9"/></linearGradient><linearGradient x1="140.005" x2="140.429" y1="-94.04" y2="-90.019" gradientTransform="matrix(.982 .187 -.187 .982 12.655 93.395)" gradientUnits="userSpaceOnUse"><stop offset="0" stop-color="#fff"/><stop offset="1" stop-color="#B4D8E9"/></linearGradient><linearGradient x1="123.729" x2="124.192" y1="-94.739" y2="-88.65" gradientTransform="matrix(.982 .187 -.187 .982 12.655 93.395)" gradientUnits="userSpaceOnUse"><stop offset="0" stop-color="#fff"/><stop offset="1" stop-color="#B4D8E9"/></linearGradient><linearGradient x1="123.54" x2="123.964" y1="-94.98" y2="-90.959" gradientTransform="matrix(.982 .187 -.187 .982 12.655 93.395)" gradientUnits="userSpaceOnUse"><stop offset="0" stop-color="#fff"/><stop offset="1" stop-color="#B4D8E9"/></linearGradient><linearGradient x1="131.679" x2="132.142" y1="-85.055" y2="-78.966" gradientTransform="matrix(.982 .187 -.187 .982 12.655 93.395)" gradientUnits="userSpaceOnUse"><stop offset="0" stop-color="#fff"/><stop offset="1" stop-color="#B4D8E9"/></linearGradient><linearGradient x1="131.491" x2="131.914" y1="-85.295" y2="-81.273" gradientTransform="matrix(.982 .187 -.187 .982 12.655 93.395)" gradientUnits="userSpaceOnUse"><stop offset="0" stop-color="#fff"/><stop offset="1" stop-color="#B4D8E9"/></linearGradient><radialGradient cx="21.92" cy="-382.965" r="21.744" xlink:href="#b" gradientUnits="userSpaceOnUse" gradientTransform="matrix(.071 .042 -.062 .109 207.476 -189.818)" fx="21.92" fy="-382.965"/><linearGradient x1="6.894" x2="27.4" y1="-359.824" y2="-381.302" xlink:href="#a" gradientUnits="userSpaceOnUse" gradientTransform="matrix(-.054 .103 -.093 -.059 198.905 -255.689)"/></defs><g><path fill="url(#c)" stroke="#285080" d="M25.75 15.67c.22-.73.28-1.4.26-1.88-.1-2.3-2.9-4.53-5.26-3.65-1.24-1.8-3.4-3.07-5.78-3.07-3.82 0-6.9 2.76-6.9 6.52-.14 0-.28-.02-.43-.02-3.42 0-6.2 2.75-6.2 6.15 0 3.4 2.78 3.52 6.2 3.52l17.96.03c2.9 0 5.25-.12 5.25-2.73 0-2.6-2-5.08-5.1-4.88z"/><g><g><path fill="#fff" d="M22.24 21.9c2.3 0 4.16-.08 4.16-2.15 0-2.06-1.86-3.73-4.16-3.73h-.12c.28-.43.45-.92.45-1.45 0-1.68-1.66-3.14-3.7-2.18-.83-1.94-2.77-3.3-5.04-3.3-3.02 0-5.46 2.4-5.46 5.38v-.23c-.1 0-.2 0-.33 0-2.7 0-4.9 2.17-4.9 4.85 0 2.68 2.2 2.8 4.9 2.8h14.2z"/></g></g><path fill="#c3dbe5" d="M8.86 14.24c.83.07 2.97 1.45 2.97 1.94.27-1.1 3.04-3.87 6.28-3.6-.6-.75-4.82-1.3-6.34 1.32-.48-.7-2.5-.42-2.9.34"/><path fill="url(#d)" stroke="#285080" d="M41.47 19.7c.22-.72.28-1.38.26-1.87-.1-2.3-2.9-4.52-5.27-3.63-1.24-1.8-3.4-3.08-5.78-3.08-3.82 0-6.9 2.76-6.9 6.52-.14 0-.28-.02-.43-.02-3.42 0-6.2 2.75-6.2 6.15 0 3.4 2.78 3.52 6.2 3.52l17.96.03c2.92 0 5.27-.12 5.27-2.73 0-2.62-2-5.1-5.1-4.9z"/><g><g><path fill="#fff" d="M37.96 25.95c2.3 0 4.16-.1 4.16-2.16 0-2.07-1.87-3.74-4.16-3.74h-.13c.3-.43.46-.92.46-1.45 0-1.67-1.67-3.13-3.7-2.16-.84-1.94-2.78-3.3-5.05-3.3-3.02 0-5.46 2.4-5.46 5.38v-.22c-.1 0-.23-.02-.34-.02-2.7 0-4.9 2.18-4.9 4.86s2.2 2.8 4.9 2.8h14.2z"/></g></g><path fill="#c3dbe5" d="M24.58 18.3c.83.05 2.97 1.44 2.97 1.92.27-1.1 3.03-3.87 6.28-3.6-.62-.75-4.83-1.3-6.35 1.32-.5-.7-2.5-.4-2.9.35"/><path fill="#fff" stroke="#729fcf" stroke-width=".69.459" stroke-miterlimit="0" d="M37.48 30a-1.5 1.5 0 1 1 3.03 0-1.5 1.5 0 1 1-3.02 0z"/><path fill="#fff" stroke="#729fcf" stroke-width=".92.092" stroke-miterlimit="0" d="M29.45 33.53a-2.02 2.02 0 1 1 4.05 0-2.02 2.02 0 1 1-4.05 0z"/><path fill="#fff" stroke="#729fcf" stroke-width="1.475" stroke-miterlimit="0" d="M31.82-316.78a2.2 2.2 0 1 1-4.42 0 2.2 2.2 0 1 1 4.42 0z" transform="matrix(-.672 0 0 .684 57.926 254.636)"/><path fill="#fff" stroke="#729fcf" stroke-width=".68.468" stroke-miterlimit="0" d="M7.5 35a-1.5 1.5 0 1 1 3 0-1.5 1.5 0 1 1-3 0z"/><path fill="#fff" stroke="#729fcf" stroke-width=".899" stroke-miterlimit="0" d="M31.82-316.78a2.2 2.2 0 1 1-4.42 0 2.2 2.2 0 1 1 4.42 0z" transform="matrix(-1.107 0 0 1.117 53.779 384.936)"/><path fill="#fff" stroke="#729fcf" stroke-width=".918" stroke-miterlimit="0" d="M31.82-316.78a2.2 2.2 0 1 1-4.42 0 2.2 2.2 0 1 1 4.42 0z" transform="matrix(-1.128 0 0 1.052 49.385 371.388)"/><path fill="#fff" stroke="#729fcf" stroke-width="1.464" stroke-miterlimit="0" d="M31.82-316.78a2.2 2.2 0 1 1-4.42 0 2.2 2.2 0 1 1 4.42 0z" transform="matrix(-.686 0 0 .68 46.309 254.578)"/><path fill="#fff" stroke="#729fcf" stroke-width=".92.092" stroke-miterlimit="0" d="M6.3 26.66a-2.02 2.02 0 1 1 4.06 0-2.02 2.02 0 1 1-4.05 0z"/><path fill="#fff" stroke="#729fcf" stroke-width="1.464" stroke-miterlimit="0" d="M31.82-316.78a2.2 2.2 0 1 1-4.42 0 2.2 2.2 0 1 1 4.42 0z" transform="matrix(-.686 0 0 .68 23.168 247.707)"/></g></svg>