<svg xmlns="http://www.w3.org/2000/svg" width="48" height="48"><defs><radialGradient id="a" cx="313.984" cy="189.703" r="22.368" gradientUnits="userSpaceOnUse" fy="189.703" fx="313.984"><stop offset=".006" stop-color="#fff"/><stop offset=".113" stop-color="#FFFEFC"/><stop offset=".187" stop-color="#FFFBF3"/><stop offset=".25" stop-color="#FEF7E4"/><stop offset=".308" stop-color="#FDF0CE"/><stop offset=".362" stop-color="#FCE8B2"/><stop offset=".412" stop-color="#FBDE91"/><stop offset=".447" stop-color="#FAD574"/><stop offset=".687" stop-color="#FEFF8B"/><stop offset=".739" stop-color="#FEFFA8"/><stop offset="1" stop-color="#fff" stop-opacity="0"/></radialGradient><radialGradient id="f" cx="-2370.475" cy="1443.172" r="21.261" gradientUnits="userSpaceOnUse" gradientTransform="matrix(-.703 -.711 .711 -.703 -2380.837 -482.811)" fy="1443.172" fx="-2370.475"><stop offset="0" stop-color="#fff"/><stop offset=".085" stop-color="#FFFBF8"/><stop offset=".208" stop-color="#FDEFE5"/><stop offset=".353" stop-color="#FBDBC6"/><stop offset=".516" stop-color="#F8C09B"/><stop offset=".691" stop-color="#F49E64"/><stop offset=".754" stop-color="#F3904E"/><stop offset="1" stop-color="#FEFF8B"/></radialGradient><radialGradient id="e" cx="-2369.795" cy="1446.465" r="21.888" gradientUnits="userSpaceOnUse" gradientTransform="matrix(-.703 -.711 .711 -.703 -2380.837 -482.811)" fy="1446.465" fx="-2369.795"><stop offset="0" stop-color="#fff"/><stop offset=".096" stop-color="#FFFEF8"/><stop offset=".233" stop-color="#FEFCE5"/><stop offset=".395" stop-color="#FCF8C6"/><stop offset=".577" stop-color="#FAF39B"/><stop offset=".773" stop-color="#F7EC64"/><stop offset=".844" stop-color="#F6E94E"/><stop offset="1" stop-color="#F3904E"/></radialGradient><radialGradient id="d" cx="-2369.795" cy="1446.466" r="21.896" gradientUnits="userSpaceOnUse" gradientTransform="matrix(-.703 -.711 .711 -.703 -2380.837 -482.811)" fy="1446.466" fx="-2369.795"><stop offset="0" stop-color="#fff"/><stop offset=".096" stop-color="#FFFEF8"/><stop offset=".233" stop-color="#FEFCE5"/><stop offset=".395" stop-color="#FCF8C6"/><stop offset=".577" stop-color="#FAF39B"/><stop offset=".773" stop-color="#F7EC64"/><stop offset=".844" stop-color="#F6E94E"/><stop offset="1" stop-color="#F3904E"/></radialGradient><radialGradient id="c" cx="-2341.536" cy="-987.847" r="21.262" gradientUnits="userSpaceOnUse" gradientTransform="matrix(-.613 .79 -.79 -.613 -1900.934 1432.073)" fy="-987.847" fx="-2341.536"><stop offset="0" stop-color="#fff"/><stop offset=".085" stop-color="#FFFBF8"/><stop offset=".208" stop-color="#FDEFE5"/><stop offset=".353" stop-color="#FBDBC6"/><stop offset=".516" stop-color="#F8C09B"/><stop offset=".691" stop-color="#F49E64"/><stop offset=".754" stop-color="#F3904E"/><stop offset="1" stop-color="#FEFF8B"/></radialGradient><radialGradient id="b" cx="-2339.449" cy="-989.205" r="21.888" gradientUnits="userSpaceOnUse" gradientTransform="matrix(-.613 .79 -.79 -.613 -1900.934 1432.073)" fy="-989.205" fx="-2339.449"><stop offset="0" stop-color="#fff"/><stop offset=".085" stop-color="#FFFBF8"/><stop offset=".208" stop-color="#FDEFE5"/><stop offset=".353" stop-color="#FBDBC6"/><stop offset=".516" stop-color="#F8C09B"/><stop offset=".691" stop-color="#F49E64"/><stop offset=".754" stop-color="#F3904E"/><stop offset="1" stop-color="#FEFF8B"/></radialGradient><linearGradient id="g" x1="322.274" x2="323.395" y1="198.571" y2="197.45" gradientUnits="userSpaceOnUse" gradientTransform="matrix(1.019 0 0 1.019 -296.866 -169.761)"><stop offset=".006" stop-color="#8893A0"/><stop offset=".369" stop-color="#D0D3D6"/><stop offset=".553" stop-color="#D0D3D6"/><stop offset="1" stop-color="#8893A0"/></linearGradient><radialGradient id="ab" cx="314.532" cy="189.196" r="14.876" gradientUnits="userSpaceOnUse" fy="189.196" fx="314.532"><stop offset="0" stop-color="#fff"/><stop offset=".436" stop-color="#F3904E"/><stop offset=".844" stop-color="#FEFF8B"/><stop offset="1" stop-color="#fff"/></radialGradient><radialGradient id="aa" cx="314.533" cy="189.196" r="14.875" gradientUnits="userSpaceOnUse" fy="189.196" fx="314.533"><stop offset="0" stop-color="#fff"/><stop offset=".436" stop-color="#F3904E"/><stop offset=".844" stop-color="#FEFF8B"/><stop offset="1" stop-color="#fff"/></radialGradient><radialGradient id="Z" cx="314.533" cy="189.196" r="14.872" gradientUnits="userSpaceOnUse" fy="189.196" fx="314.533"><stop offset="0" stop-color="#fff"/><stop offset=".436" stop-color="#F3904E"/><stop offset=".844" stop-color="#FEFF8B"/><stop offset="1" stop-color="#fff"/></radialGradient><radialGradient id="Y" cx="314.533" cy="189.196" r="14.873" gradientUnits="userSpaceOnUse" fy="189.196" fx="314.533"><stop offset="0" stop-color="#fff"/><stop offset=".436" stop-color="#F3904E"/><stop offset=".844" stop-color="#FEFF8B"/><stop offset="1" stop-color="#fff"/></radialGradient><radialGradient id="X" cx="314.531" cy="189.197" r="14.877" gradientUnits="userSpaceOnUse" fy="189.197" fx="314.531"><stop offset="0" stop-color="#fff"/><stop offset=".436" stop-color="#F3904E"/><stop offset=".844" stop-color="#FEFF8B"/><stop offset="1" stop-color="#fff"/></radialGradient><radialGradient id="W" cx="314.534" cy="189.197" r="14.873" gradientUnits="userSpaceOnUse" fy="189.197" fx="314.534"><stop offset="0" stop-color="#fff"/><stop offset=".436" stop-color="#F3904E"/><stop offset=".844" stop-color="#FEFF8B"/><stop offset="1" stop-color="#fff"/></radialGradient><radialGradient id="V" cx="314.531" cy="189.196" r="14.877" gradientUnits="userSpaceOnUse" fy="189.196" fx="314.531"><stop offset="0" stop-color="#fff"/><stop offset=".436" stop-color="#F3904E"/><stop offset=".844" stop-color="#FEFF8B"/><stop offset="1" stop-color="#fff"/></radialGradient><radialGradient id="U" cx="314.531" cy="189.196" r="14.876" gradientUnits="userSpaceOnUse" fy="189.196" fx="314.531"><stop offset="0" stop-color="#fff"/><stop offset=".436" stop-color="#F3904E"/><stop offset=".844" stop-color="#FEFF8B"/><stop offset="1" stop-color="#fff"/></radialGradient><radialGradient id="T" cx="314.532" cy="189.196" r="14.875" gradientUnits="userSpaceOnUse" fy="189.196" fx="314.532"><stop offset="0" stop-color="#fff"/><stop offset=".436" stop-color="#F3904E"/><stop offset=".844" stop-color="#FEFF8B"/><stop offset="1" stop-color="#fff"/></radialGradient><radialGradient id="S" cx="314.533" cy="189.196" r="14.873" gradientUnits="userSpaceOnUse" fy="189.196" fx="314.533"><stop offset="0" stop-color="#fff"/><stop offset=".436" stop-color="#F3904E"/><stop offset=".844" stop-color="#FEFF8B"/><stop offset="1" stop-color="#fff"/></radialGradient><radialGradient id="R" cx="314.532" cy="189.196" r="14.873" gradientUnits="userSpaceOnUse" fy="189.196" fx="314.532"><stop offset="0" stop-color="#fff"/><stop offset=".436" stop-color="#F3904E"/><stop offset=".844" stop-color="#FEFF8B"/><stop offset="1" stop-color="#fff"/></radialGradient><radialGradient id="Q" cx="314.533" cy="189.196" r="14.879" gradientUnits="userSpaceOnUse" fy="189.196" fx="314.533"><stop offset="0" stop-color="#fff"/><stop offset=".436" stop-color="#F3904E"/><stop offset=".844" stop-color="#FEFF8B"/><stop offset="1" stop-color="#fff"/></radialGradient><radialGradient id="P" cx="314.532" cy="189.195" r="14.872" gradientUnits="userSpaceOnUse" fy="189.195" fx="314.532"><stop offset="0" stop-color="#fff"/><stop offset=".436" stop-color="#F3904E"/><stop offset=".844" stop-color="#FEFF8B"/><stop offset="1" stop-color="#fff"/></radialGradient><radialGradient id="O" cx="314.532" cy="189.196" r="14.875" gradientUnits="userSpaceOnUse" fy="189.196" fx="314.532"><stop offset="0" stop-color="#fff"/><stop offset=".436" stop-color="#F3904E"/><stop offset=".844" stop-color="#FEFF8B"/><stop offset="1" stop-color="#fff"/></radialGradient><radialGradient id="N" cx="314.532" cy="189.196" r="14.875" gradientUnits="userSpaceOnUse" fy="189.196" fx="314.532"><stop offset="0" stop-color="#fff"/><stop offset=".436" stop-color="#F3904E"/><stop offset=".844" stop-color="#FEFF8B"/><stop offset="1" stop-color="#fff"/></radialGradient><radialGradient id="M" cx="314.531" cy="189.197" r="14.875" gradientUnits="userSpaceOnUse" fy="189.197" fx="314.531"><stop offset="0" stop-color="#fff"/><stop offset=".436" stop-color="#F3904E"/><stop offset=".844" stop-color="#FEFF8B"/><stop offset="1" stop-color="#fff"/></radialGradient><radialGradient id="L" cx="314.532" cy="189.198" r="14.877" gradientUnits="userSpaceOnUse" fy="189.198" fx="314.532"><stop offset="0" stop-color="#fff"/><stop offset=".436" stop-color="#F3904E"/><stop offset=".844" stop-color="#FEFF8B"/><stop offset="1" stop-color="#fff"/></radialGradient><radialGradient id="K" cx="314.533" cy="189.196" r="14.877" gradientUnits="userSpaceOnUse" fy="189.196" fx="314.533"><stop offset="0" stop-color="#fff"/><stop offset=".436" stop-color="#F3904E"/><stop offset=".844" stop-color="#FEFF8B"/><stop offset="1" stop-color="#fff"/></radialGradient><radialGradient id="J" cx="314.531" cy="189.198" r="14.874" gradientUnits="userSpaceOnUse" fy="189.198" fx="314.531"><stop offset="0" stop-color="#fff"/><stop offset=".436" stop-color="#F3904E"/><stop offset=".844" stop-color="#FEFF8B"/><stop offset="1" stop-color="#fff"/></radialGradient><radialGradient id="I" cx="314.532" cy="189.198" r="14.873" gradientUnits="userSpaceOnUse" fy="189.198" fx="314.532"><stop offset="0" stop-color="#fff"/><stop offset=".436" stop-color="#F3904E"/><stop offset=".844" stop-color="#FEFF8B"/><stop offset="1" stop-color="#fff"/></radialGradient><radialGradient id="H" cx="314.531" cy="189.195" r="14.874" gradientUnits="userSpaceOnUse" fy="189.195" fx="314.531"><stop offset="0" stop-color="#fff"/><stop offset=".436" stop-color="#F3904E"/><stop offset=".844" stop-color="#FEFF8B"/><stop offset="1" stop-color="#fff"/></radialGradient><radialGradient id="G" cx="314.53" cy="189.198" r="14.878" gradientUnits="userSpaceOnUse" fy="189.198" fx="314.53"><stop offset="0" stop-color="#fff"/><stop offset=".436" stop-color="#F3904E"/><stop offset=".844" stop-color="#FEFF8B"/><stop offset="1" stop-color="#fff"/></radialGradient><radialGradient id="F" cx="314.53" cy="189.196" r="14.877" gradientUnits="userSpaceOnUse" fy="189.196" fx="314.53"><stop offset="0" stop-color="#fff"/><stop offset=".436" stop-color="#F3904E"/><stop offset=".844" stop-color="#FEFF8B"/><stop offset="1" stop-color="#fff"/></radialGradient><radialGradient id="E" cx="314.533" cy="189.196" r="14.877" gradientUnits="userSpaceOnUse" fy="189.196" fx="314.533"><stop offset="0" stop-color="#fff"/><stop offset=".436" stop-color="#F3904E"/><stop offset=".844" stop-color="#FEFF8B"/><stop offset="1" stop-color="#fff"/></radialGradient><radialGradient id="D" cx="308.157" cy="187.696" r="10.808" gradientUnits="userSpaceOnUse" fy="187.696" fx="308.157"><stop offset="0" stop-color="#fff"/><stop offset=".436" stop-color="#F3904E"/><stop offset=".844" stop-color="#FEFF8B"/><stop offset="1" stop-color="#fff"/></radialGradient><radialGradient id="C" cx="314.531" cy="189.196" r="14.872" gradientUnits="userSpaceOnUse" fy="189.196" fx="314.531"><stop offset="0" stop-color="#fff"/><stop offset=".436" stop-color="#F3904E"/><stop offset=".844" stop-color="#FEFF8B"/><stop offset="1" stop-color="#fff"/></radialGradient><radialGradient id="B" cx="314.532" cy="189.196" r="14.875" gradientUnits="userSpaceOnUse" fy="189.196" fx="314.532"><stop offset="0" stop-color="#fff"/><stop offset=".436" stop-color="#F3904E"/><stop offset=".844" stop-color="#FEFF8B"/><stop offset="1" stop-color="#fff"/></radialGradient><radialGradient id="A" cx="314.532" cy="189.197" r="14.875" gradientUnits="userSpaceOnUse" fy="189.197" fx="314.532"><stop offset="0" stop-color="#fff"/><stop offset=".436" stop-color="#F3904E"/><stop offset=".844" stop-color="#FEFF8B"/><stop offset="1" stop-color="#fff"/></radialGradient><radialGradient id="z" cx="314.532" cy="189.196" r="14.876" gradientUnits="userSpaceOnUse" fy="189.196" fx="314.532"><stop offset="0" stop-color="#fff"/><stop offset=".436" stop-color="#F3904E"/><stop offset=".844" stop-color="#FEFF8B"/><stop offset="1" stop-color="#fff"/></radialGradient><radialGradient id="y" cx="315.907" cy="195.821" r="9.648" gradientUnits="userSpaceOnUse" fy="195.821" fx="315.907"><stop offset="0" stop-color="#fff"/><stop offset=".436" stop-color="#F3904E"/><stop offset=".844" stop-color="#FEFF8B"/><stop offset="1" stop-color="#fff"/></radialGradient><radialGradient id="x" cx="313.407" cy="199.321" r="8.158" gradientUnits="userSpaceOnUse" fy="199.321" fx="313.407"><stop offset="0" stop-color="#fff"/><stop offset=".436" stop-color="#F3904E"/><stop offset=".844" stop-color="#FEFF8B"/><stop offset="1" stop-color="#fff"/></radialGradient><radialGradient id="w" cx="312.907" cy="198.946" r="7.659" gradientUnits="userSpaceOnUse" fy="198.946" fx="312.907"><stop offset="0" stop-color="#fff"/><stop offset=".436" stop-color="#F3904E"/><stop offset=".844" stop-color="#FEFF8B"/><stop offset="1" stop-color="#fff"/></radialGradient><radialGradient id="v" cx="314.532" cy="189.196" r="14.875" gradientUnits="userSpaceOnUse" fy="189.196" fx="314.532"><stop offset="0" stop-color="#fff"/><stop offset=".436" stop-color="#F3904E"/><stop offset=".844" stop-color="#FEFF8B"/><stop offset="1" stop-color="#fff"/></radialGradient><radialGradient id="u" cx="313.406" cy="195.197" r="11.491" gradientUnits="userSpaceOnUse" fy="195.197" fx="313.406"><stop offset="0" stop-color="#fff"/><stop offset=".436" stop-color="#F3904E"/><stop offset=".844" stop-color="#FEFF8B"/><stop offset="1" stop-color="#fff"/></radialGradient><radialGradient id="t" cx="314.875" cy="191.032" r="11.861" gradientUnits="userSpaceOnUse" fy="191.032" fx="314.875"><stop offset="0" stop-color="#fff"/><stop offset=".436" stop-color="#F3904E"/><stop offset=".844" stop-color="#FEFF8B"/><stop offset="1" stop-color="#fff"/></radialGradient><radialGradient id="s" cx="314.532" cy="189.196" r="14.875" gradientUnits="userSpaceOnUse" fy="189.196" fx="314.532"><stop offset="0" stop-color="#fff"/><stop offset=".436" stop-color="#F3904E"/><stop offset=".844" stop-color="#FEFF8B"/><stop offset="1" stop-color="#fff"/></radialGradient><radialGradient id="r" cx="314.532" cy="189.196" r="14.873" gradientUnits="userSpaceOnUse" fy="189.196" fx="314.532"><stop offset="0" stop-color="#fff"/><stop offset=".436" stop-color="#F3904E"/><stop offset=".844" stop-color="#FEFF8B"/><stop offset="1" stop-color="#fff"/></radialGradient><radialGradient id="q" cx="314.782" cy="187.571" r="16.967" gradientUnits="userSpaceOnUse" fy="187.571" fx="314.782"><stop offset="0" stop-color="#fff"/><stop offset=".436" stop-color="#F3904E"/><stop offset=".844" stop-color="#FEFF8B"/><stop offset="1" stop-color="#fff"/></radialGradient><radialGradient id="p" cx="314.531" cy="189.197" r="14.877" gradientUnits="userSpaceOnUse" fy="189.197" fx="314.531"><stop offset="0" stop-color="#fff"/><stop offset=".436" stop-color="#F3904E"/><stop offset=".844" stop-color="#FEFF8B"/><stop offset="1" stop-color="#fff"/></radialGradient><radialGradient id="o" cx="314.532" cy="189.196" r="14.876" gradientUnits="userSpaceOnUse" fy="189.196" fx="314.532"><stop offset="0" stop-color="#fff"/><stop offset=".436" stop-color="#F3904E"/><stop offset=".844" stop-color="#FEFF8B"/><stop offset="1" stop-color="#fff"/></radialGradient><radialGradient id="n" cx="313.266" cy="191.63" r="14.885" gradientUnits="userSpaceOnUse" fy="191.63" fx="313.266"><stop offset="0" stop-color="#fff"/><stop offset=".436" stop-color="#F3904E"/><stop offset=".844" stop-color="#FEFF8B"/><stop offset="1" stop-color="#fff"/></radialGradient><radialGradient id="m" cx="312.658" cy="190.321" r="16.047" gradientUnits="userSpaceOnUse" fy="190.321" fx="312.658"><stop offset="0" stop-color="#fff"/><stop offset=".436" stop-color="#F3904E"/><stop offset=".844" stop-color="#FEFF8B"/><stop offset="1" stop-color="#fff"/></radialGradient><radialGradient id="l" cx="312.074" cy="189.836" r="21.259" gradientUnits="userSpaceOnUse" fy="189.836" fx="312.074"><stop offset="0" stop-color="#fff"/><stop offset=".096" stop-color="#FFFEF8"/><stop offset=".233" stop-color="#FEFCE5"/><stop offset=".395" stop-color="#FCF8C6"/><stop offset=".577" stop-color="#FAF39B"/><stop offset=".773" stop-color="#F7EC64"/><stop offset=".844" stop-color="#F6E94E"/><stop offset="1" stop-color="#F3904E"/></radialGradient><radialGradient id="k" cx="314.59" cy="188.144" r="21.888" gradientUnits="userSpaceOnUse" fy="188.144" fx="314.59"><stop offset="0" stop-color="#fff"/><stop offset=".096" stop-color="#FFFEF8"/><stop offset=".233" stop-color="#FEFCE5"/><stop offset=".395" stop-color="#FCF8C6"/><stop offset=".577" stop-color="#FAF39B"/><stop offset=".773" stop-color="#F7EC64"/><stop offset=".844" stop-color="#F6E94E"/><stop offset="1" stop-color="#F3904E"/></radialGradient><radialGradient id="j" cx="314.59" cy="188.145" r="21.889" gradientUnits="userSpaceOnUse" fy="188.145" fx="314.59"><stop offset="0" stop-color="#fff"/><stop offset=".096" stop-color="#FFFEF8"/><stop offset=".233" stop-color="#FEFCE5"/><stop offset=".395" stop-color="#FCF8C6"/><stop offset=".577" stop-color="#FAF39B"/><stop offset=".773" stop-color="#F7EC64"/><stop offset=".844" stop-color="#F6E94E"/><stop offset="1" stop-color="#F3904E"/></radialGradient><radialGradient id="i" cx="314.532" cy="189.195" r="14.876" gradientUnits="userSpaceOnUse" fy="189.195" fx="314.532"><stop offset="0" stop-color="#fff"/><stop offset=".436" stop-color="#F3904E"/><stop offset=".844" stop-color="#FEFF8B"/><stop offset="1" stop-color="#fff"/></radialGradient><radialGradient id="h" cx="314.532" cy="189.196" r="14.876" gradientUnits="userSpaceOnUse" fy="189.196" fx="314.532"><stop offset="0" stop-color="#fff"/><stop offset=".436" stop-color="#F3904E"/><stop offset=".844" stop-color="#FEFF8B"/><stop offset="1" stop-color="#fff"/></radialGradient><linearGradient id="ac" x1="308.83" x2="309.952" y1="185.125" y2="184.002" gradientUnits="userSpaceOnUse" gradientTransform="matrix(1.019 0 0 1.019 -296.866 -169.761)"><stop offset=".006" stop-color="#8893A0"/><stop offset=".369" stop-color="#D0D3D6"/><stop offset=".553" stop-color="#D0D3D6"/><stop offset="1" stop-color="#8893A0"/></linearGradient><radialGradient id="ad" cx="314.443" cy="190.232" r="9.392" gradientUnits="userSpaceOnUse" fy="190.232" fx="314.443" gradientTransform="matrix(1.019 0 0 1.019 -296.866 -169.761)"><stop offset=".402" stop-color="#fff"/><stop offset=".693" stop-color="#FEFF8B"/><stop offset="1" stop-color="#F3904E"/></radialGradient></defs><g><circle cx="313.985" cy="189.702" r="22.368" fill="url(#a)" transform="matrix(1.019 0 0 1.019 -296.866 -169.761)"/><path fill="none" stroke="#575d66" d="M25.13 25.1l1.48.32 12.24 12.23c.32.32.32.83 0 1.14-.3.3-.83.3-1.14 0L25.3 26.4l-.17-1.3z"/><g><g transform="matrix(1.019 0 0 1.019 -296.866 -169.761)"><radialGradient cx="-2339.449" cy="-989.205" r="21.888" gradientUnits="userSpaceOnUse" gradientTransform="matrix(-.613 .79 -.79 -.613 -1900.934 1432.073)" fy="-989.205" fx="-2339.449"><stop offset="0" stop-color="#fff"/><stop offset=".085" stop-color="#FFFBF8"/><stop offset=".208" stop-color="#FDEFE5"/><stop offset=".353" stop-color="#FBDBC6"/><stop offset=".516" stop-color="#F8C09B"/><stop offset=".691" stop-color="#F49E64"/><stop offset=".754" stop-color="#F3904E"/><stop offset="1" stop-color="#FEFF8B"/></radialGradient><path fill="url(#b)" d="M334.2 197.94c-2.95-1.72-17.42-7.78-18.04-8.03l-.27.65c.14.07 15.04 6.3 17.94 8l.35-.6z"/></g><g transform="matrix(1.019 0 0 1.019 -296.866 -169.761)"><radialGradient cx="-2341.536" cy="-987.847" r="21.262" gradientUnits="userSpaceOnUse" gradientTransform="matrix(-.613 .79 -.79 -.613 -1900.934 1432.073)" fy="-987.847" fx="-2341.536"><stop offset="0" stop-color="#fff"/><stop offset=".085" stop-color="#FFFBF8"/><stop offset=".208" stop-color="#FDEFE5"/><stop offset=".353" stop-color="#FBDBC6"/><stop offset=".516" stop-color="#F8C09B"/><stop offset=".691" stop-color="#F49E64"/><stop offset=".754" stop-color="#F3904E"/><stop offset="1" stop-color="#FEFF8B"/></radialGradient><path fill="url(#c)" d="M333.2 176.04c-2 1.25-18.28 10.74-18.44 10.83l.35.6c.17-.1 16.47-9.58 18.46-10.84l-.37-.6z"/></g><g transform="matrix(1.019 0 0 1.019 -296.866 -169.761)"><radialGradient cx="-2369.795" cy="1446.466" r="21.896" gradientUnits="userSpaceOnUse" gradientTransform="matrix(-.703 -.711 .711 -.703 -2380.837 -482.811)" fy="1446.466" fx="-2369.795"><stop offset="0" stop-color="#fff"/><stop offset=".096" stop-color="#FFFEF8"/><stop offset=".233" stop-color="#FEFCE5"/><stop offset=".395" stop-color="#FCF8C6"/><stop offset=".577" stop-color="#FAF39B"/><stop offset=".773" stop-color="#F7EC64"/><stop offset=".844" stop-color="#F6E94E"/><stop offset="1" stop-color="#F3904E"/></radialGradient><path fill="url(#d)" d="M303.24 203.7c2.08-2.7 9.98-16.24 10.32-16.82l-.6-.35c-.1.14-8.22 14.1-10.28 16.75l.56.43z"/></g><g transform="matrix(1.019 0 0 1.019 -296.866 -169.761)"><radialGradient cx="-2369.795" cy="1446.465" r="21.888" gradientUnits="userSpaceOnUse" gradientTransform="matrix(-.703 -.711 .711 -.703 -2380.837 -482.811)" fy="1446.465" fx="-2369.795"><stop offset="0" stop-color="#fff"/><stop offset=".096" stop-color="#FFFEF8"/><stop offset=".233" stop-color="#FEFCE5"/><stop offset=".395" stop-color="#FCF8C6"/><stop offset=".577" stop-color="#FAF39B"/><stop offset=".773" stop-color="#F7EC64"/><stop offset=".844" stop-color="#F6E94E"/><stop offset="1" stop-color="#F3904E"/></radialGradient><path fill="url(#e)" d="M308.43 207.18l6.2-21.65-.68-.2-6.2 21.66.68.18z"/></g><g transform="matrix(1.019 0 0 1.019 -296.866 -169.761)"><radialGradient cx="-2370.475" cy="1443.172" r="21.261" gradientUnits="userSpaceOnUse" gradientTransform="matrix(-.703 -.711 .711 -.703 -2380.837 -482.811)" fy="1443.172" fx="-2370.475"><stop offset="0" stop-color="#fff"/><stop offset=".085" stop-color="#FFFBF8"/><stop offset=".208" stop-color="#FDEFE5"/><stop offset=".353" stop-color="#FBDBC6"/><stop offset=".516" stop-color="#F8C09B"/><stop offset=".691" stop-color="#F49E64"/><stop offset=".754" stop-color="#F3904E"/><stop offset="1" stop-color="#FEFF8B"/></radialGradient><path fill="url(#f)" d="M320.78 207.84c-.98-2.12-8.25-19.5-8.32-19.7l-.65.28c.08.18 7.36 17.58 8.34 19.72l.64-.3z"/></g></g><path fill="url(#g)" d="M25.13 25.1l1.48.32 12.24 12.23c.32.32.32.83 0 1.14-.3.3-.83.3-1.14 0L25.3 26.4l-.17-1.3z"/><path fill="none" stroke="#575d66" stroke-width=".7" d="M38.84 38.8l8.86 8.85"/><g><g transform="matrix(1.019 0 0 1.019 -296.866 -169.761)"><radialGradient cx="314.532" cy="189.196" r="14.876" gradientUnits="userSpaceOnUse" fy="189.196" fx="314.532"><stop offset="0" stop-color="#fff"/><stop offset=".436" stop-color="#F3904E"/><stop offset=".844" stop-color="#FEFF8B"/><stop offset="1" stop-color="#fff"/></radialGradient><path fill="url(#h)" d="M313.97 197.34l.7-.07c-.26-2.44 1.3-6.25 1.33-6.3l-.65-.26c-.07.17-1.65 4.03-1.38 6.64z"/></g><g transform="matrix(1.019 0 0 1.019 -296.866 -169.761)"><radialGradient cx="314.532" cy="189.195" r="14.876" gradientUnits="userSpaceOnUse" fy="189.195" fx="314.532"><stop offset="0" stop-color="#fff"/><stop offset=".436" stop-color="#F3904E"/><stop offset=".844" stop-color="#FEFF8B"/><stop offset="1" stop-color="#fff"/></radialGradient><path fill="url(#i)" d="M306.73 199.95l.66.24c1.05-2.93 7-8.3 7.06-8.36l-.47-.52c-.26.23-6.15 5.55-7.27 8.63z"/></g><g transform="matrix(1.019 0 0 1.019 -296.866 -169.761)"><radialGradient cx="314.59" cy="188.145" r="21.889" gradientUnits="userSpaceOnUse" fy="188.145" fx="314.59"><stop offset="0" stop-color="#fff"/><stop offset=".096" stop-color="#FFFEF8"/><stop offset=".233" stop-color="#FEFCE5"/><stop offset=".395" stop-color="#FCF8C6"/><stop offset=".577" stop-color="#FAF39B"/><stop offset=".773" stop-color="#F7EC64"/><stop offset=".844" stop-color="#F6E94E"/><stop offset="1" stop-color="#F3904E"/></radialGradient><path fill="url(#j)" d="M309.06 167.62c.45 3.37 4.53 18.52 4.7 19.16l.68-.18c-.04-.15-4.24-15.74-4.68-19.08l-.7.1z"/></g><g transform="matrix(1.019 0 0 1.019 -296.866 -169.761)"><radialGradient cx="314.59" cy="188.144" r="21.888" gradientUnits="userSpaceOnUse" fy="188.144" fx="314.59"><stop offset="0" stop-color="#fff"/><stop offset=".096" stop-color="#FFFEF8"/><stop offset=".233" stop-color="#FEFCE5"/><stop offset=".395" stop-color="#FCF8C6"/><stop offset=".577" stop-color="#FAF39B"/><stop offset=".773" stop-color="#F7EC64"/><stop offset=".844" stop-color="#F6E94E"/><stop offset="1" stop-color="#F3904E"/></radialGradient><path fill="url(#k)" d="M302.94 168.87l11.04 19.62.6-.35-11.03-19.63-.6.35z"/></g><g transform="matrix(1.019 0 0 1.019 -296.866 -169.761)"><radialGradient cx="312.074" cy="189.836" r="21.259" gradientUnits="userSpaceOnUse" fy="189.836" fx="312.074"><stop offset="0" stop-color="#fff"/><stop offset=".096" stop-color="#FFFEF8"/><stop offset=".233" stop-color="#FEFCE5"/><stop offset=".395" stop-color="#FCF8C6"/><stop offset=".577" stop-color="#FAF39B"/><stop offset=".773" stop-color="#F7EC64"/><stop offset=".844" stop-color="#F6E94E"/><stop offset="1" stop-color="#F3904E"/></radialGradient><path fill="url(#l)" d="M291.95 182.16c2.2.8 19.68 7.86 19.85 7.93l.27-.66c-.18-.07-17.67-7.13-19.88-7.94l-.25.66z"/></g><g transform="matrix(1.019 0 0 1.019 -296.866 -169.761)"><radialGradient cx="312.658" cy="190.321" r="16.047" gradientUnits="userSpaceOnUse" fy="190.321" fx="312.658"><stop offset="0" stop-color="#fff"/><stop offset=".436" stop-color="#F3904E"/><stop offset=".844" stop-color="#FEFF8B"/><stop offset="1" stop-color="#fff"/></radialGradient><path fill="url(#m)" d="M295.93 189.43l16.2 1.4.07-.7-16.2-1.4-.07.7z"/></g><g transform="matrix(1.019 0 0 1.019 -296.866 -169.761)"><radialGradient cx="313.266" cy="191.63" r="14.885" gradientUnits="userSpaceOnUse" fy="191.63" fx="313.266"><stop offset="0" stop-color="#fff"/><stop offset=".436" stop-color="#F3904E"/><stop offset=".844" stop-color="#FEFF8B"/><stop offset="1" stop-color="#fff"/></radialGradient><path fill="url(#n)" d="M307.5 189.75h.7V204h-.7z"/></g><g transform="matrix(1.019 0 0 1.019 -296.866 -169.761)"><radialGradient cx="314.532" cy="189.196" r="14.876" gradientUnits="userSpaceOnUse" fy="189.196" fx="314.532"><stop offset="0" stop-color="#fff"/><stop offset=".436" stop-color="#F3904E"/><stop offset=".844" stop-color="#FEFF8B"/><stop offset="1" stop-color="#fff"/></radialGradient><path fill="url(#o)" d="M298.8 195.74l.05.7c1.62-.13 12.8-4.73 13.26-4.93l-.25-.64c-3.2 1.33-11.8 4.78-13.06 4.88z"/></g><g transform="matrix(1.019 0 0 1.019 -296.866 -169.761)"><radialGradient cx="314.531" cy="189.197" r="14.877" gradientUnits="userSpaceOnUse" fy="189.197" fx="314.531"><stop offset="0" stop-color="#fff"/><stop offset=".436" stop-color="#F3904E"/><stop offset=".844" stop-color="#FEFF8B"/><stop offset="1" stop-color="#fff"/></radialGradient><path fill="url(#p)" d="M316.12 188.98l.42.56c.3-.22 7.43-5.53 7.95-5.98l-.47-.53c-.4.35-5.34 4.04-7.9 5.95z"/></g><g transform="matrix(1.019 0 0 1.019 -296.866 -169.761)"><radialGradient cx="314.782" cy="187.571" r="16.967" gradientUnits="userSpaceOnUse" fy="187.571" fx="314.782"><stop offset="0" stop-color="#fff"/><stop offset=".436" stop-color="#F3904E"/><stop offset=".844" stop-color="#FEFF8B"/><stop offset="1" stop-color="#fff"/></radialGradient><path fill="url(#q)" d="M314.9 187.16l.7.05c.02-.13 1.1-14 1.5-16.4l-.7-.12c-.4 2.44-1.44 15.9-1.5 16.48z"/></g><g transform="matrix(1.019 0 0 1.019 -296.866 -169.761)"><radialGradient cx="314.532" cy="189.196" r="14.873" gradientUnits="userSpaceOnUse" fy="189.196" fx="314.532"><stop offset="0" stop-color="#fff"/><stop offset=".436" stop-color="#F3904E"/><stop offset=".844" stop-color="#FEFF8B"/><stop offset="1" stop-color="#fff"/></radialGradient><path fill="url(#r)" d="M315.6 187.7l.7.17c0-.05 1.26-5 1.7-6l-.66-.27c-.45 1.05-1.67 5.9-1.72 6.1z"/></g><g transform="matrix(1.019 0 0 1.019 -296.866 -169.761)"><radialGradient cx="314.532" cy="189.196" r="14.875" gradientUnits="userSpaceOnUse" fy="189.196" fx="314.532"><stop offset="0" stop-color="#fff"/><stop offset=".436" stop-color="#F3904E"/><stop offset=".844" stop-color="#FEFF8B"/><stop offset="1" stop-color="#fff"/></radialGradient><path fill="url(#s)" d="M317.8 190.94l11.04 2.47.16-.67-11.04-2.48-.15.7z"/></g><g transform="matrix(1.019 0 0 1.019 -296.866 -169.761)"><radialGradient cx="314.875" cy="191.032" r="11.861" gradientUnits="userSpaceOnUse" fy="191.032" fx="314.875"><stop offset="0" stop-color="#fff"/><stop offset=".436" stop-color="#F3904E"/><stop offset=".844" stop-color="#FEFF8B"/><stop offset="1" stop-color="#fff"/></radialGradient><path fill="url(#t)" d="M314.88 191.03c.12.4 3.05 9.65 3.77 10.98l.62-.32c-.7-1.28-3.7-10.76-3.73-10.86l-.67.2z"/></g><g transform="matrix(1.019 0 0 1.019 -296.866 -169.761)"><radialGradient cx="313.406" cy="195.197" r="11.491" gradientUnits="userSpaceOnUse" fy="195.197" fx="313.406"><stop offset="0" stop-color="#fff"/><stop offset=".436" stop-color="#F3904E"/><stop offset=".844" stop-color="#FEFF8B"/><stop offset="1" stop-color="#fff"/></radialGradient><path fill="url(#u)" d="M305.62 203.97l.66.24c.3-.85 4.44-5.67 7.14-8.7l-.52-.46c-.7.78-6.82 7.66-7.28 8.93z"/></g><g transform="matrix(1.019 0 0 1.019 -296.866 -169.761)"><radialGradient cx="314.532" cy="189.196" r="14.875" gradientUnits="userSpaceOnUse" fy="189.196" fx="314.532"><stop offset="0" stop-color="#fff"/><stop offset=".436" stop-color="#F3904E"/><stop offset=".844" stop-color="#FEFF8B"/><stop offset="1" stop-color="#fff"/></radialGradient><path fill="url(#v)" d="M317.43 185.43l.6.4c.5-.8 5.08-7.8 5.44-8.8l-.66-.23c-.27.78-3.97 6.5-5.37 8.63z"/></g><g transform="matrix(1.019 0 0 1.019 -296.866 -169.761)"><radialGradient cx="312.907" cy="198.946" r="7.659" gradientUnits="userSpaceOnUse" fy="198.946" fx="312.907"><stop offset="0" stop-color="#fff"/><stop offset=".436" stop-color="#F3904E"/><stop offset=".844" stop-color="#FEFF8B"/><stop offset="1" stop-color="#fff"/></radialGradient><path fill="url(#w)" d="M309.8 205.95l.67.2c.42-1.4 2.8-7.84 2.83-7.9l-.66-.25c-.1.27-2.4 6.52-2.84 7.95z"/></g><g transform="matrix(1.019 0 0 1.019 -296.866 -169.761)"><radialGradient cx="313.407" cy="199.321" r="8.158" gradientUnits="userSpaceOnUse" fy="199.321" fx="313.407"><stop offset="0" stop-color="#fff"/><stop offset=".436" stop-color="#F3904E"/><stop offset=".844" stop-color="#FEFF8B"/><stop offset="1" stop-color="#fff"/></radialGradient><path fill="url(#x)" d="M310.74 207.6l.7.13c.23-1.38 2.25-8.98 2.27-9.06l-.66-.18c-.1.3-2.05 7.7-2.3 9.1z"/></g><g transform="matrix(1.019 0 0 1.019 -296.866 -169.761)"><radialGradient cx="315.907" cy="195.821" r="9.648" gradientUnits="userSpaceOnUse" fy="195.821" fx="315.907"><stop offset="0" stop-color="#fff"/><stop offset=".436" stop-color="#F3904E"/><stop offset=".844" stop-color="#FEFF8B"/><stop offset="1" stop-color="#fff"/></radialGradient><path fill="url(#y)" d="M315.36 195.06l2.5 10.22.68-.18-2.5-10.2-.68.16z"/></g><g transform="matrix(1.019 0 0 1.019 -296.866 -169.761)"><radialGradient cx="314.532" cy="189.196" r="14.876" gradientUnits="userSpaceOnUse" fy="189.196" fx="314.532"><stop offset="0" stop-color="#fff"/><stop offset=".436" stop-color="#F3904E"/><stop offset=".844" stop-color="#FEFF8B"/><stop offset="1" stop-color="#fff"/></radialGradient><path fill="url(#z)" d="M314.08 204.07l.7-.06c-.32-3.4.3-9.45.32-9.5l-.7-.1c-.03.27-.64 6.2-.32 9.67z"/></g><g transform="matrix(1.019 0 0 1.019 -296.866 -169.761)"><radialGradient cx="314.532" cy="189.197" r="14.875" gradientUnits="userSpaceOnUse" fy="189.197" fx="314.532"><stop offset="0" stop-color="#fff"/><stop offset=".436" stop-color="#F3904E"/><stop offset=".844" stop-color="#FEFF8B"/><stop offset="1" stop-color="#fff"/></radialGradient><path fill="url(#A)" d="M314.9 194.6l1.48 8.18.7-.13-1.5-8.17-.68.12z"/></g><g transform="matrix(1.019 0 0 1.019 -296.866 -169.761)"><radialGradient cx="314.532" cy="189.196" r="14.875" gradientUnits="userSpaceOnUse" fy="189.196" fx="314.532"><stop offset="0" stop-color="#fff"/><stop offset=".436" stop-color="#F3904E"/><stop offset=".844" stop-color="#FEFF8B"/><stop offset="1" stop-color="#fff"/></radialGradient><path fill="url(#B)" d="M301.17 183.05c1.06.5 10.23 6.16 10.32 6.2l.36-.58c-.38-.23-9.3-5.72-10.38-6.25l-.3.63z"/></g><g transform="matrix(1.019 0 0 1.019 -296.866 -169.761)"><radialGradient cx="314.531" cy="189.196" r="14.872" gradientUnits="userSpaceOnUse" fy="189.196" fx="314.531"><stop offset="0" stop-color="#fff"/><stop offset=".436" stop-color="#F3904E"/><stop offset=".844" stop-color="#FEFF8B"/><stop offset="1" stop-color="#fff"/></radialGradient><path fill="url(#C)" d="M302.93 181.5l8.72 7.06.44-.54-8.72-7.05-.45.53z"/></g><g transform="matrix(1.019 0 0 1.019 -296.866 -169.761)"><radialGradient cx="308.157" cy="187.696" r="10.808" gradientUnits="userSpaceOnUse" fy="187.696" fx="308.157"><stop offset="0" stop-color="#fff"/><stop offset=".436" stop-color="#F3904E"/><stop offset=".844" stop-color="#FEFF8B"/><stop offset="1" stop-color="#fff"/></radialGradient><path fill="url(#D)" d="M297.47 185.36c1.4.65 9.26 2.6 9.6 2.7l.16-.7c-.08 0-8.1-2.02-9.46-2.64l-.3.64z"/></g><g transform="matrix(1.019 0 0 1.019 -296.866 -169.761)"><radialGradient cx="314.533" cy="189.196" r="14.877" gradientUnits="userSpaceOnUse" fy="189.196" fx="314.533"><stop offset="0" stop-color="#fff"/><stop offset=".436" stop-color="#F3904E"/><stop offset=".844" stop-color="#FEFF8B"/><stop offset="1" stop-color="#fff"/></radialGradient><path fill="url(#E)" d="M300.12 186.9l9.74 2.3.16-.67-9.74-2.3-.16.67z"/></g><g transform="matrix(1.019 0 0 1.019 -296.866 -169.761)"><radialGradient cx="314.53" cy="189.196" r="14.877" gradientUnits="userSpaceOnUse" fy="189.196" fx="314.53"><stop offset="0" stop-color="#fff"/><stop offset=".436" stop-color="#F3904E"/><stop offset=".844" stop-color="#FEFF8B"/><stop offset="1" stop-color="#fff"/></radialGradient><path fill="url(#F)" d="M319.85 184.34l.5.48c.15-.15 3.42-3.62 4.15-4.88l-.6-.35c-.7 1.18-4.02 4.7-4.05 4.74z"/></g><g transform="matrix(1.019 0 0 1.019 -296.866 -169.761)"><radialGradient cx="314.53" cy="189.198" r="14.878" gradientUnits="userSpaceOnUse" fy="189.198" fx="314.53"><stop offset="0" stop-color="#fff"/><stop offset=".436" stop-color="#F3904E"/><stop offset=".844" stop-color="#FEFF8B"/><stop offset="1" stop-color="#fff"/></radialGradient><path fill="url(#G)" d="M318.42 176.12h.7v4.98h-.7z"/></g><g transform="matrix(1.019 0 0 1.019 -296.866 -169.761)"><radialGradient cx="314.531" cy="189.195" r="14.874" gradientUnits="userSpaceOnUse" fy="189.195" fx="314.531"><stop offset="0" stop-color="#fff"/><stop offset=".436" stop-color="#F3904E"/><stop offset=".844" stop-color="#FEFF8B"/><stop offset="1" stop-color="#fff"/></radialGradient><path fill="url(#H)" d="M320 177.22h.7v4.6h-.7z"/></g><g transform="matrix(1.019 0 0 1.019 -296.866 -169.761)"><radialGradient cx="314.532" cy="189.198" r="14.873" gradientUnits="userSpaceOnUse" fy="189.198" fx="314.532"><stop offset="0" stop-color="#fff"/><stop offset=".436" stop-color="#F3904E"/><stop offset=".844" stop-color="#FEFF8B"/><stop offset="1" stop-color="#fff"/></radialGradient><path fill="url(#I)" d="M320.36 192.28l2.72 1.25.3-.63-2.73-1.26-.3.64z"/></g><g transform="matrix(1.019 0 0 1.019 -296.866 -169.761)"><radialGradient cx="314.531" cy="189.198" r="14.874" gradientUnits="userSpaceOnUse" fy="189.198" fx="314.531"><stop offset="0" stop-color="#fff"/><stop offset=".436" stop-color="#F3904E"/><stop offset=".844" stop-color="#FEFF8B"/><stop offset="1" stop-color="#fff"/></radialGradient><path fill="url(#J)" d="M319.73 198.55l2.77 2.46.46-.5-2.76-2.47-.47.52z"/></g><g transform="matrix(1.019 0 0 1.019 -296.866 -169.761)"><radialGradient cx="314.533" cy="189.196" r="14.877" gradientUnits="userSpaceOnUse" fy="189.196" fx="314.533"><stop offset="0" stop-color="#fff"/><stop offset=".436" stop-color="#F3904E"/><stop offset=".844" stop-color="#FEFF8B"/><stop offset="1" stop-color="#fff"/></radialGradient><path fill="url(#K)" d="M308.77 178.16l3.96 7.93.62-.32-3.95-7.9-.63.28z"/></g><g transform="matrix(1.019 0 0 1.019 -296.866 -169.761)"><radialGradient cx="314.532" cy="189.198" r="14.877" gradientUnits="userSpaceOnUse" fy="189.198" fx="314.532"><stop offset="0" stop-color="#fff"/><stop offset=".436" stop-color="#F3904E"/><stop offset=".844" stop-color="#FEFF8B"/><stop offset="1" stop-color="#fff"/></radialGradient><path fill="url(#L)" d="M313.18 172.73h.7v6.62h-.7z"/></g><g transform="matrix(1.019 0 0 1.019 -296.866 -169.761)"><radialGradient cx="314.531" cy="189.197" r="14.875" gradientUnits="userSpaceOnUse" fy="189.197" fx="314.531"><stop offset="0" stop-color="#fff"/><stop offset=".436" stop-color="#F3904E"/><stop offset=".844" stop-color="#FEFF8B"/><stop offset="1" stop-color="#fff"/></radialGradient><path fill="url(#M)" d="M314.18 178.84h.7v5.88h-.7z"/></g><g transform="matrix(1.019 0 0 1.019 -296.866 -169.761)"><radialGradient cx="314.532" cy="189.196" r="14.875" gradientUnits="userSpaceOnUse" fy="189.196" fx="314.532"><stop offset="0" stop-color="#fff"/><stop offset=".436" stop-color="#F3904E"/><stop offset=".844" stop-color="#FEFF8B"/><stop offset="1" stop-color="#fff"/></radialGradient><path fill="url(#N)" d="M314.03 180.18h.7v6.3h-.7z"/></g><g transform="matrix(1.019 0 0 1.019 -296.866 -169.761)"><radialGradient cx="314.532" cy="189.196" r="14.875" gradientUnits="userSpaceOnUse" fy="189.196" fx="314.532"><stop offset="0" stop-color="#fff"/><stop offset=".436" stop-color="#F3904E"/><stop offset=".844" stop-color="#FEFF8B"/><stop offset="1" stop-color="#fff"/></radialGradient><path fill="url(#O)" d="M312.7 179.07l1.2 7.27.68-.1-1.2-7.28-.68.1z"/></g><g transform="matrix(1.019 0 0 1.019 -296.866 -169.761)"><radialGradient cx="314.532" cy="189.195" r="14.872" gradientUnits="userSpaceOnUse" fy="189.195" fx="314.532"><stop offset="0" stop-color="#fff"/><stop offset=".436" stop-color="#F3904E"/><stop offset=".844" stop-color="#FEFF8B"/><stop offset="1" stop-color="#fff"/></radialGradient><path fill="url(#P)" d="M310.48 180.3l2.52 6.8.65-.25-2.5-6.8-.67.26z"/></g><g transform="matrix(1.019 0 0 1.019 -296.866 -169.761)"><radialGradient cx="314.533" cy="189.196" r="14.879" gradientUnits="userSpaceOnUse" fy="189.196" fx="314.533"><stop offset="0" stop-color="#fff"/><stop offset=".436" stop-color="#F3904E"/><stop offset=".844" stop-color="#FEFF8B"/><stop offset="1" stop-color="#fff"/></radialGradient><path fill="url(#Q)" d="M307.5 186.52h.7v10.53h-.7z"/></g><g transform="matrix(1.019 0 0 1.019 -296.866 -169.761)"><radialGradient cx="314.532" cy="189.196" r="14.873" gradientUnits="userSpaceOnUse" fy="189.196" fx="314.532"><stop offset="0" stop-color="#fff"/><stop offset=".436" stop-color="#F3904E"/><stop offset=".844" stop-color="#FEFF8B"/><stop offset="1" stop-color="#fff"/></radialGradient><path fill="url(#R)" d="M307 185.9h.7v9.6h-.7z"/></g><g transform="matrix(1.019 0 0 1.019 -296.866 -169.761)"><radialGradient cx="314.533" cy="189.196" r="14.873" gradientUnits="userSpaceOnUse" fy="189.196" fx="314.533"><stop offset="0" stop-color="#fff"/><stop offset=".436" stop-color="#F3904E"/><stop offset=".844" stop-color="#FEFF8B"/><stop offset="1" stop-color="#fff"/></radialGradient><path fill="url(#S)" d="M316.85 187.55l.8-.1c.12 0 .28-.03 5.53-4.38l-.44-.54c-1 .83-2.35 1.93-3.44 2.8 1.06-1.46 2.23-3.08 2.23-3.08l-.56-.4-4.12 5.7z"/></g><g transform="matrix(1.019 0 0 1.019 -296.866 -169.761)"><radialGradient cx="314.532" cy="189.196" r="14.875" gradientUnits="userSpaceOnUse" fy="189.196" fx="314.532"><stop offset="0" stop-color="#fff"/><stop offset=".436" stop-color="#F3904E"/><stop offset=".844" stop-color="#FEFF8B"/><stop offset="1" stop-color="#fff"/></radialGradient><path fill="url(#T)" d="M317.1 182.4h.7v5.74h-.7z"/></g><g transform="matrix(1.019 0 0 1.019 -296.866 -169.761)"><radialGradient cx="314.531" cy="189.196" r="14.876" gradientUnits="userSpaceOnUse" fy="189.196" fx="314.531"><stop offset="0" stop-color="#fff"/><stop offset=".436" stop-color="#F3904E"/><stop offset=".844" stop-color="#FEFF8B"/><stop offset="1" stop-color="#fff"/></radialGradient><path fill="url(#U)" d="M317.25 189.65l8.1 1.87.16-.68-8.1-1.87-.15.68z"/></g><g transform="matrix(1.019 0 0 1.019 -296.866 -169.761)"><radialGradient cx="314.531" cy="189.196" r="14.877" gradientUnits="userSpaceOnUse" fy="189.196" fx="314.531"><stop offset="0" stop-color="#fff"/><stop offset=".436" stop-color="#F3904E"/><stop offset=".844" stop-color="#FEFF8B"/><stop offset="1" stop-color="#fff"/></radialGradient><path fill="url(#V)" d="M320.8 188.77h3.6v.7h-3.6z"/></g><g transform="matrix(1.019 0 0 1.019 -296.866 -169.761)"><radialGradient cx="314.534" cy="189.197" r="14.873" gradientUnits="userSpaceOnUse" fy="189.197" fx="314.534"><stop offset="0" stop-color="#fff"/><stop offset=".436" stop-color="#F3904E"/><stop offset=".844" stop-color="#FEFF8B"/><stop offset="1" stop-color="#fff"/></radialGradient><path fill="url(#W)" d="M324.97 193.5l4.98 1.8.24-.65-5-1.8-.23.65z"/></g><g transform="matrix(1.019 0 0 1.019 -296.866 -169.761)"><radialGradient cx="314.531" cy="189.197" r="14.877" gradientUnits="userSpaceOnUse" fy="189.197" fx="314.531"><stop offset="0" stop-color="#fff"/><stop offset=".436" stop-color="#F3904E"/><stop offset=".844" stop-color="#FEFF8B"/><stop offset="1" stop-color="#fff"/></radialGradient><path fill="url(#X)" d="M319.35 185.1h.7v5.5h-.7z"/></g><g transform="matrix(1.019 0 0 1.019 -296.866 -169.761)"><radialGradient cx="314.533" cy="189.196" r="14.873" gradientUnits="userSpaceOnUse" fy="189.196" fx="314.533"><stop offset="0" stop-color="#fff"/><stop offset=".436" stop-color="#F3904E"/><stop offset=".844" stop-color="#FEFF8B"/><stop offset="1" stop-color="#fff"/></radialGradient><path fill="url(#Y)" d="M315.45 189.1l.33.6c1.8-.95 4.76-2.5 5.06-2.6l-.13-.7c-.07.02-.28.05-5.25 2.7z"/></g><g transform="matrix(1.019 0 0 1.019 -296.866 -169.761)"><radialGradient cx="314.533" cy="189.196" r="14.872" gradientUnits="userSpaceOnUse" fy="189.196" fx="314.533"><stop offset="0" stop-color="#fff"/><stop offset=".436" stop-color="#F3904E"/><stop offset=".844" stop-color="#FEFF8B"/><stop offset="1" stop-color="#fff"/></radialGradient><path fill="url(#Z)" d="M318.7 182.97h.7v7.33h-.7z"/></g><g transform="matrix(1.019 0 0 1.019 -296.866 -169.761)"><radialGradient cx="314.533" cy="189.196" r="14.875" gradientUnits="userSpaceOnUse" fy="189.196" fx="314.533"><stop offset="0" stop-color="#fff"/><stop offset=".436" stop-color="#F3904E"/><stop offset=".844" stop-color="#FEFF8B"/><stop offset="1" stop-color="#fff"/></radialGradient><path fill="url(#aa)" d="M308.68 188.03h.7v15.07h-.7z"/></g><g transform="matrix(1.019 0 0 1.019 -296.866 -169.761)"><radialGradient cx="314.532" cy="189.196" r="14.876" gradientUnits="userSpaceOnUse" fy="189.196" fx="314.532"><stop offset="0" stop-color="#fff"/><stop offset=".436" stop-color="#F3904E"/><stop offset=".844" stop-color="#FEFF8B"/><stop offset="1" stop-color="#fff"/></radialGradient><path fill="url(#ab)" d="M309.08 187.78h.7v12.66h-.7z"/></g></g><path fill="none" stroke="#575d66" d="M25.13 25.1l.18 1.3-14.76-14.76c-.3-.32-.3-.83 0-1.15.32-.32.83-.32 1.15 0L26.6 25.4l-1.47-.33z"/><path fill="url(#ac)" d="M25.13 25.1l.18 1.3-14.76-14.76c-.3-.32-.3-.83 0-1.15.32-.32.83-.32 1.15 0L26.6 25.4l-1.47-.33z"/><path fill="url(#ad)" stroke="#feff8b" stroke-width=".5" d="M17.06 21.02l4.27 1.4-3.16-1.64 4.13 1.46-2.7-4.62 2.95 3.95-1.17-6.9 2.22 5.7 1-5.6.16 5.72 2.75-4.85-1.15 4.95 4.3-2.86-3.57 4h6.13l-6.28 1.58 3.96.26-4.62.7 3.15 1.76-4.27-.95s.55 4.02.74 5.15c-.6-2.33-1.56-4.55-1.56-4.55-.96 2.45-2.5 6.18-2.5 6.18.4-2.47 1.34-5.58 1.34-5.58s-4.7 5.2-4.8 5.35c-.1.15 3.9-6.2 3.9-6.2s-6.77 4.3-8.9 6.08c2.64-2.34 6.84-5.85 6.84-5.85-3.42 1.48-6.85 2.36-6.85 2.36 3.6-1.57 7.2-3.4 7.2-3.4l-5.83.98 6.17-1.93-10.9-2.38 11.07 1.8-3.98-2.1z"/><g fill="#fff" transform="matrix(1.019 0 0 1.019 -296.866 -169.761)"><circle cx="302.4" cy="176.924" r=".355"/><circle cx="301.827" cy="177.853" r=".356"/><circle cx="302.756" cy="177.596" r=".355"/><circle cx="302.756" cy="178.347" r=".355"/><circle cx="303.664" cy="178.347" r=".355"/><circle cx="303.369" cy="178.999" r=".356"/><circle cx="304.1" cy="179.374" r=".355"/><circle cx="304.91" cy="179.828" r=".355"/><circle cx="304.654" cy="180.441" r=".356"/><circle cx="305.147" cy="180.935" r=".356"/><circle cx="305.791" cy="180.394" r=".356"/><circle cx="304.061" cy="180.085" r=".355"/><circle cx="306.115" cy="181.073" r=".356"/><circle cx="304.85" cy="178.899" r=".356"/><circle cx="306.075" cy="181.903" r=".356"/><circle cx="307.063" cy="181.902" r=".356"/><circle cx="306.786" cy="182.535" r=".356"/><circle cx="307.479" cy="182.872" r=".355"/><circle cx="308.406" cy="182.872" r=".355"/><circle cx="307.982" cy="183.652" r=".355"/><circle cx="309" cy="183.652" r=".355"/><circle cx="308.604" cy="184.433" r=".356"/><circle cx="309.434" cy="184.472" r=".355"/><circle cx="310.303" cy="184.827" r=".356"/><circle cx="309.631" cy="185.38" r=".356"/><circle cx="310.383" cy="186.132" r=".355"/><circle cx="310.936" cy="185.499" r=".355"/><circle cx="311.332" cy="186.566" r=".356"/><circle cx="311.766" cy="187.396" r=".355"/><circle cx="306.984" cy="181.034" r=".355"/><circle cx="307.854" cy="182.141" r=".355"/></g></g></svg>