<svg xmlns="http://www.w3.org/2000/svg" width="48" height="48" xmlns:xlink="http://www.w3.org/1999/xlink"><defs><linearGradient id="c"><stop offset="0" stop-color="#004193"/><stop offset=".253" stop-color="#004193"/><stop offset="1" stop-color="#004193" stop-opacity="0"/></linearGradient><linearGradient id="a"><stop offset="0" stop-color="#71746f"/><stop offset="1" stop-color="#434542"/></linearGradient><linearGradient id="b"><stop offset="0" stop-color="#babdb6"/><stop offset="1" stop-color="#babdb6" stop-opacity="0"/></linearGradient><linearGradient id="e" x1="18.286" x2="29.064" y1="15.321" y2="31.25" xlink:href="#a" gradientUnits="userSpaceOnUse"/><linearGradient id="f" x1="18.643" x2="24.143" y1="16.464" y2="23.607" xlink:href="#b" gradientUnits="userSpaceOnUse"/><radialGradient id="d" cx="25.662" cy="24.172" r="8.445" xlink:href="#c" fx="25.662" fy="24.172" gradientTransform="matrix(1.454 1.288 -.9 1.015 12.815 -28.934)" gradientUnits="userSpaceOnUse"/></defs><g fill-rule="evenodd"><path fill="#5dbaff" stroke="#c9e1ff" d="M14.4 25.95c.28-.93-5.17-2.68-6.17-4.7-1.2-2.4-6.5-2.14-7.1-5.3-.45-2.36-.23-4.24 1.42-4.24 1.7 0 2.8 2.3 4.66 2.3 1.3 0 1.7-2.15 1.7-3.15 0-1.75.58-3.62 1.18-5.12.55-1.4 2.9-.92 3.52-.13.64.8.04 1.88.9 2.76 1.2 1.2 3.73-.2 4.7-.92 1.33-1 2.56-2.05 3.78-3.28.85-.86 1.88-.8 2.48 0 .43.58 0 3.3 0 4.07 0 1.6 2.7.35 3.38 0 1.5-.76 2.66-1.8 4.05-2.5 1.67-.85 2.3.62 2.07 1.84-.33 1.68-1.34 2.15-1.04 3.94.22 1.37 1.57 1.72 2.73 1.72 1.1 0 3.9-.65 3.9.92 0 1.16-1.1 1.77-2.07 1.97-2 1.65-1.77 3.53-4.06 5.44-5.3.52-8.1-.13-13.42 1.4-3.7 2.25-2.84 1.17-6.63 3z" opacity=".551"/><path fill="#fff" fill-opacity=".406" d="M23.82 11.97c-2.48-.5-5.25-.16-7.62.7-1.97.7-1.96 2.66-2.85 4.14-.7 1.17-.7 3.64-.9 4.98-.27 1.95-.58 2.87.66 4.72 1.4 2.1 4.07 3.24 4.9 5.7.45 1.38 1.38 2.2 2.03 3.5 1.08 2.17 4.33 2.13 5.95 3.75.84.85 1.44.44 1.95 1.47.52 1.03 4.14 2.48 5.3 3.17 1.32.78 2.7 2.36 3.82.8.82-1.15.24-4.36.24-5.78 0-1.32.68-3 1.13-4.23.72-1.9.2-5.25-.24-7.18-.1-.38-.17-.76-.25-1.14-.5-2.37-1.17-4.64-2.53-6.67-1.2-1.8-3.32-3.18-4.97-4.55-.2-.16-.38-.33-.57-.5-.95-.8-5-2.67-6.06-2.88z"/><path fill="#fff" fill-opacity=".6" d="M26.25 16.7c-2.32-.45-4.9-.13-7.13.66-1.84.66-1.83 2.5-2.66 3.88-.65 1.08-.66 3.4-.84 4.65-.26 1.8-.55 2.67.6 4.4 1.32 1.97 3.8 3.03 4.58 5.33.43 1.3 1.3 2.06 1.9 3.28 1.02 2.03 4.05 2 5.56 3.5.8.8 1.35.42 1.83 1.38.48.97 3.87 2.32 4.94 2.97 1.24.74 2.55 2.2 3.58.76.77-1.07.23-4.07.23-5.4 0-1.23.64-2.8 1.07-3.96.66-1.77.17-4.9-.23-6.7-.1-.35-.16-.7-.24-1.06-.48-2.22-1.1-4.35-2.36-6.24-1.12-1.7-3.1-2.98-4.65-4.27-.18-.15-.35-.3-.53-.45-.9-.77-4.68-2.5-5.67-2.7z"/><path fill="url(#d)" d="M28.38 40.4l10.46.72 3.75-4.2.02-5.58-3.75-7.17-4.6-4.12-6.6-3.86-7.62 18.93 8.33 5.27z"/><path fill="#91bdff" stroke="#c9e1ff" d="M14.9 25.18c.2-.68-.62-3.5-1.35-4.97-.88-1.75-2.93-3.2-4.3-4.57C8 14.38 9 14.3 10.2 14.3c1.25 0 1.9 1.33 3.25 1.33.96 0 1.25-1.57 1.25-2.3 0-1.26.42-2.62.86-3.7.4-1.02 2.12-.68 2.57-.1.47.58.03 1.36.67 2 .87.86 2.73-.14 3.44-.67.97-.73 1.87-1.5 2.77-2.4.63-.6 1.38-.57 1.82 0 .32.44 0 2.43 0 2.97 0 1.17 1.98.26 2.48 0 1.1-.55 1.95-1.3 2.96-1.8 1.24-.63 1.7.44 1.53 1.33-.25 1.22-1 1.56-.77 2.86.16 1 1.15 1.24 2 1.24.8 0 2.87-.47 2.87.67 0 .84-.8 1.3-1.53 1.43-.9.18-1.38.88-1.15 1.8.2.85 1.05.88.1 1.83-.6.6-2.8.18-3.63.18-2.7 0-5.55.3-8.12 1.14-1.86.62-4.4 2.2-6.4 2.2-.67 0-1.74.53-2.3.86z"/><g><path fill="#888a85" stroke="url(#e)" stroke-width=".831" d="M16.28 17l-1.2 5.38 4.35 7.03 6.66 2.98 6-2.9.46-5.5-2.9-5.84-1.55-1.16-3.64-2.7-4.3.65L16.28 17z" transform="matrix(1.203 0 0 1.203 -2.455 -.425)"/><path fill="url(#f)" d="M16.8 17.3l-1.23 5.06 4.36 6.85L18 23.65l4.03-.84 3.38-2.36-1.04-3.23 5.14 1.37-5.2-3.7-3.94.5-3.57 1.92z" transform="matrix(1.203 0 0 1.203 -2.455 -.425)"/><path fill="#6c6e69" d="M21.6 34.63l5.93-1.54 1.9-4.05 4.38-2.32 2.5 1.8-.7 6.1L29.43 38l-7.82-3.37z"/></g><path fill="#eeeeec" stroke="#c9e1ff" stroke-width=".98.015" d="M18.17 4.67a2 2 0 1 1-4 0 2 2 0 1 1 4 0z" overflow="visible" enable-background="accumulate"/><path fill="#eeeeec" stroke="#c9e1ff" stroke-width=".98.015" d="M16.65 11.2a2 2 0 1 1-4 0 2 2 0 1 1 4 0z" overflow="visible" enable-background="accumulate"/><path fill="#eeeeec" stroke="#c9e1ff" stroke-width=".98.015" d="M25.8 8.16a2 2 0 1 1-4.02 0 2 2 0 1 1 4 0z" overflow="visible" enable-background="accumulate"/><path fill="#eeeeec" stroke="#c9e1ff" d="M33.15 3.9c-.38 1.04-2.14 3.2-3.18 2.82-1.04-.4-.96-3.18-.58-4.2.38-1.05 1.53-1.58 2.57-1.2 1.04.4 1.57 1.54 1.18 2.58z" overflow="visible" enable-background="accumulate"/><path fill="#eeeeec" stroke="#c9e1ff" stroke-width=".98.015" d="M37.1 11.1a2 2 0 1 1-4 0 2 2 0 1 1 4 0z" overflow="visible" enable-background="accumulate"/><path fill="#eeeeec" stroke="#c9e1ff" stroke-width=".98.015" d="M43.64 10.77a2 2 0 1 1-4 0 2 2 0 1 1 4 0z" overflow="visible" enable-background="accumulate"/><path fill="#eeeeec" stroke="#c9e1ff" stroke-width=".98.015" d="M12.08 18.7a2 2 0 1 1-4 0 2 2 0 1 1 4 0z" overflow="visible" enable-background="accumulate"/><path fill="#eeeeec" stroke="#c9e1ff" stroke-width=".98.015" d="M22.3 18.82a2 2 0 1 1-4 0 2 2 0 1 1 4 0z" overflow="visible" enable-background="accumulate"/><path fill="#eeeeec" stroke="#c9e1ff" stroke-width=".98.015" d="M32.43 19.58a2 2 0 1 1-4 0 2 2 0 1 1 4 0z" overflow="visible" enable-background="accumulate"/><path fill="#eeeeec" stroke="#c9e1ff" stroke-width=".98.015" d="M29.82 17.2a2 2 0 1 1-4 0 2 2 0 1 1 4 0z" overflow="visible" enable-background="accumulate"/><path fill="#eeeeec" stroke="#c9e1ff" stroke-width=".98.015" d="M25.36 16.1a2 2 0 1 1-4 0 2 2 0 1 1 4 0z" overflow="visible" enable-background="accumulate"/><path fill="#eeeeec" stroke="#c9e1ff" stroke-width=".98.015" d="M39.07 19.14a2 2 0 1 1-4 0 2 2 0 1 1 4 0z" overflow="visible" enable-background="accumulate"/><path fill="#eeeeec" stroke="#c9e1ff" stroke-width=".98.015" d="M16.2 23.6a2 2 0 1 1-4 0 2 2 0 1 1 4 0z" overflow="visible" enable-background="accumulate"/><path fill="#eeeeec" stroke="#c9e1ff" stroke-width=".98.015" d="M17.74 18.06a2 2 0 1 1-4 0 2 2 0 1 1 4 0z" overflow="visible" enable-background="accumulate"/><path fill="#eeeeec" stroke="#c9e1ff" stroke-width=".98.015" d="M19.7 22.08a2 2 0 1 1-4 0 2 2 0 1 1 4 0z" opacity=".764" overflow="visible" enable-background="accumulate"/><path fill="#eeeeec" stroke="#c9e1ff" stroke-width=".98.015" d="M38.85 25.67a2 2 0 1 1-4 0 2 2 0 1 1 4 0z" overflow="visible" enable-background="accumulate"/><path fill="#eeeeec" stroke="#c9e1ff" stroke-width=".98.015" d="M45.28 20.12a2 2 0 1 1-4 0 2 2 0 1 1 4 0z" overflow="visible" enable-background="accumulate"/><path fill="#eeeeec" stroke="#c9e1ff" d="M6.48 5.25c.9.63 2.56 2.88 1.92 3.8-.63.9-3.3.12-4.22-.5-.9-.64-1.13-1.9-.5-2.8.64-.9 1.9-1.13 2.8-.5z" overflow="visible" enable-background="accumulate"/><path fill="#eeeeec" stroke="#c9e1ff" d="M40.98 4.04c-.7.86-3.05 2.35-3.9 1.66-.87-.7.1-3.3.78-4.17.7-.87 1.96-1 2.82-.3.86.7 1 1.95.3 2.8z" overflow="visible" enable-background="accumulate"/><path fill="#eeeeec" stroke="#c9e1ff" stroke-width=".98.015" d="M27.2 18.7a2 2 0 1 1-4 0 2 2 0 1 1 4 0z" opacity=".764" overflow="visible" enable-background="accumulate"/></g></svg>