<svg xmlns="http://www.w3.org/2000/svg" width="48" height="48" xmlns:xlink="http://www.w3.org/1999/xlink"><defs><linearGradient id="g"><stop offset="0" stop-color="#fcdddd"/><stop offset="1" stop-color="#fcdddd" stop-opacity="0"/></linearGradient><linearGradient id="d"><stop offset="0" stop-color="#5f6b4d"/><stop offset="1" stop-color="#39402e"/></linearGradient><linearGradient id="c"><stop offset="0" stop-color="#ebeee7"/><stop offset="1" stop-color="#d9ded1" stop-opacity="0"/></linearGradient><linearGradient id="b"><stop offset="0" stop-color="#abb699"/><stop offset="1" stop-color="#cad0bf"/></linearGradient><linearGradient><stop offset="0" stop-color="#e3e6e1"/><stop offset="1" stop-color="#c6cbc0"/></linearGradient><linearGradient id="a"><stop offset="0" stop-color="#007298"/><stop offset="1" stop-color="#2e3436" stop-opacity="0"/></linearGradient><radialGradient id="i" cx="22.754" cy="34.11" r="20.329" xlink:href="#a" fx="22.754" fy="34.11" gradientTransform="matrix(1 0 0 .455 0 18.602)" gradientUnits="userSpaceOnUse"/><radialGradient id="n" cx="20.354" cy="22.293" r="23.321" xlink:href="#b" fx="20.354" fy="22.293" gradientTransform="matrix(.537 -.171 .314 .984 4.314 5.263)" gradientUnits="userSpaceOnUse"/><radialGradient id="p" cx="12.854" cy="15.213" r="8.643" xlink:href="#c" fx="12.854" fy="15.213" gradientTransform="matrix(.862 -.184 .413 1.935 -2.288 -11.497)" gradientUnits="userSpaceOnUse"/><linearGradient id="o" x1="5.871" x2="17.31" y1=".228" y2="27.401" xlink:href="#d" gradientUnits="userSpaceOnUse" gradientTransform="matrix(.993 .12 -.12 .993 4.705 -.832)"/><radialGradient id="j" cx="20.354" cy="22.293" r="23.321" xlink:href="#b" fx="20.354" fy="22.293" gradientTransform="matrix(.537 -.171 .314 .984 4.314 5.263)" gradientUnits="userSpaceOnUse"/><linearGradient id="f"><stop offset="0" stop-color="#bcc5ae"/><stop offset="1" stop-color="#e0e4da"/></linearGradient><linearGradient id="k" x1="5.871" x2="17.31" y1=".228" y2="27.401" xlink:href="#e" gradientUnits="userSpaceOnUse" gradientTransform="matrix(.993 .12 -.12 .993 4.705 -.832)"/><linearGradient id="e"><stop offset="0" stop-color="#5f6b4d"/><stop offset="1" stop-color="#39402e"/></linearGradient><radialGradient cx="20.354" cy="22.293" r="23.321" fy="22.293" fx="20.354" gradientTransform="matrix(.512 -.235 .43 .939 .128 6.123)" gradientUnits="userSpaceOnUse" xlink:href="#f"/><linearGradient x1="5.871" x2="17.31" y1=".228" y2="27.401" gradientTransform="translate(-.214 .024)" gradientUnits="userSpaceOnUse" xlink:href="#e"/><radialGradient id="l" cx="20.354" cy="22.293" r="23.321" xlink:href="#b" gradientUnits="userSpaceOnUse" gradientTransform="matrix(.537 -.171 .314 .984 4.314 5.263)" fx="20.354" fy="22.293"/><linearGradient id="m" x1="5.871" x2="17.31" y1=".228" y2="27.401" xlink:href="#e" gradientUnits="userSpaceOnUse" gradientTransform="matrix(.993 .12 -.12 .993 4.705 -.832)"/><radialGradient id="h" cx="20.329" cy="18.226" r="16.188" xlink:href="#g" fx="20.329" fy="18.226" gradientUnits="userSpaceOnUse"/></defs><g><path fill="url(#h)" d="M36.52 18.23a16.2 16.2 0 1 1-32.38 0 16.2 16.2 0 1 1 32.38 0z" transform="translate(-.051 -1.515)" color="#000" overflow="visible" enable-background="accumulate"/><path fill="url(#i)" d="M43.08 34.1a20.33 9.24 0 1 1-40.66 0 20.33 9.24 0 1 1 40.66 0z" transform="matrix(.993 .12 -.12 .993 4.43 -.662)" color="#000" overflow="visible" enable-background="accumulate"/><path fill="url(#j)" stroke="url(#k)" d="M17.66 28.78s-3.77-4.5-6.08-3.58c-3.7 1.5-8.5-1.94-8.5-1.94s3.44 5.42 8.1 4.54c2.3-.45 5.94 3.77 5.94 3.77z" color="#000" overflow="visible" enable-background="accumulate"/><path fill="url(#l)" stroke="url(#m)" d="M39.02 21.23c5.26 2.1 7.1 6.38 1.1 7.54-4.46.87-12.08-2.13-11.62-5.32l-.96 7.04s6.47 1.45 9.75 1.46c5.37 0 9.8-1.85 9.88-5.64.07-3.2-8.16-5.1-8.16-5.1z" color="#000" overflow="visible" enable-background="accumulate"/><path fill="url(#n)" stroke="url(#o)" d="M26.4 17.2c-1.2-1.88 4.1-2.73 3.38-5.35-.48-1.75-4-2.1-4.96-2.3C18.16 7.96 14.5-.56 10.72.57c-2.12.62 2.83 8.76-1.35 11.1-1.02.6-3.52 3-2.44 3.97 1.2 1.06 3.34 1.2 4.73 2 3.1 1.77 4.2 5.4 4.7 9.4.47 3.48-2.97 7.03-6.07 5.1-6.1-3.8-9.12 2.13-9.12 2.13s4.4-1.12 6.56-.64c1.6.36 2.58 2.47 4.22 2.52 1.73.06 4.62-2.35 4.62-2.35.1.2-.48 4.85-5.05 5.96-2.77.66-6.1-.3-7.72 2.02C2.98 43 2.5 46.6 2.5 46.6s1.6-2.15 2.82-2.84c2.55-1.42 5.5-.57 8.38-1.13 3.77-.73 6.4-7.94 6.4-7.94s-.1 6.1-2.43 9c-1.7 2.1-7.2 3.65-7.2 3.65s8.4-1.15 11-4.07c2.34-2.63 2.7-8.26 2.7-8.26s1.03 4.14 3.35 5.76c4.42 3.06 6.36.73 9.28 1.06 3.64.4 2.77 5.8 2.77 5.8s4.83-3.06 2.9-6.2C40 37.37 31.7 40.05 29.56 37.7c-1.64-1.77-1.27-4.06-1.27-4.06s1.95 3.05 6.36 3.6c2.65.34 5.43-2.16 7.92-1.2 2.26.88 4.05 2.8 4.05 2.8-.76-2.6-2.3-5.12-4.78-5.62-2.36-.47-4.8 1.3-7.17.94-2.47-.4-4.63-4.26-4.63-7.06 0-3.54-2-7.3-3.63-9.9z" stroke-linejoin="round"/><path fill="url(#p)" d="M12.4 1.7s-1.4.6-.36 3.84c.97 4.08-.12 5.45-4.3 9.33 0 0 4.68 1.15 6.43 2.58.76.63 3.08 8.77 4.15 12.04.96 2.93 4.5 2.37 4.84 1.52-.72-4.7-.53-10.33-1.95-15.3-1.55-5.48-4.86-10.24-8.8-14.03z"/><path fill="#fff" d="M12.93 2.9s-.8.42-.25 2.54c.35 1.38.83 3.58.45 4.68-.63 1.8-4.08 4.52-4.08 4.52s2.85-1.46 4.1-1.77c1.42-.36 2.8-.4 3.17-1.42.6-1.62-1.5-4.3-2.62-6.1-.8-1.35-.77-2.45-.77-2.45z"/><path fill="none" stroke="#f6f9f3" d="M29.1 27.66c0-4-2.43-8.78-3.8-10.96-1-1.57 3.8-3.16 3.45-4.56-.25-1.07-3.97-1.68-4.78-1.87-5.6-1.32-11.22-9.65-12.66-8.8-.78.46 2.65 8.6-.87 10.6-.86.48-2.86 2.27-2.63 3.15.14.55 3.23.8 4.4 1.47 2.6 1.48 5.45 5.44 4.95 12.75"/><g color="#000"><path fill="#2e3436" stroke="#eeeeec" stroke-width=".801" d="M19.36 18.4c0 1.9-1.38 3.46-3.07 3.46-1.7 0-3.1-1.55-3.1-3.47 0-1.92 1.4-3.47 3.1-3.47 1.68 0 3.06 1.55 3.06 3.46z" transform="matrix(1.04 -.317 .419 1.372 -6.27 4.859)" overflow="visible" enable-background="accumulate"/><g fill="#fff"><path d="M17.86 23.4c-.07.54-.55.92-1.08.85-.53-.06-.9-.54-.85-1.07.07-.54.55-.9 1.08-.85.54.06.92.55.86 1.08z" overflow="visible" enable-background="accumulate"/><path d="M18.7 21.92c-.04.27-.3.47-.57.43-.27-.03-.47-.28-.44-.55.03-.28.28-.48.55-.44.28.03.47.28.44.56z" overflow="visible" enable-background="accumulate"/></g></g><g color="#000"><path fill="#2e3436" stroke="#eeeeec" stroke-width=".851" d="M19.36 18.4c0 1.9-1.38 3.46-3.07 3.46-1.7 0-3.1-1.55-3.1-3.47 0-1.92 1.4-3.47 3.1-3.47 1.68 0 3.06 1.55 3.06 3.46z" transform="matrix(1.023 -.022 .029 1.348 9.81 -.219)" overflow="visible" enable-background="accumulate"/><g fill="#fff"><path d="M27 23c-.1.57-.65.94-1.22.83-.57-.1-.95-.66-.84-1.23.1-.57.66-.95 1.24-.84.57.1.94.66.83 1.23z" overflow="visible" enable-background="accumulate"/><path d="M28.03 21.44c-.06.3-.35.5-.64.43-.3-.05-.5-.34-.45-.64.06-.3.35-.5.64-.43.3.05.48.34.43.64z" overflow="visible" enable-background="accumulate"/></g></g><path fill="none" stroke="#eeeeec" stroke-width=".75" d="M16.2 28.05s-1.9-1.8-3.42-2.07c-1.17-.2-2.7.6-3.9.5-1.32-.1-3.78-1.56-3.78-1.56" stroke-linecap="round"/><path fill="none" stroke="#eeeeec" stroke-width=".75" d="M17.17 29.5s-1.6 4.16-4.95 4.1c-2.02-.03-3.94-2.02-5.8-1.86-2.1.17-4 1.76-4 1.76" stroke-linecap="round"/><path fill="none" stroke="#eeeeec" stroke-width=".75" d="M17.32 34.3c-.35 1.68-2.24 5.4-4.4 5.92-2.77.67-6.44.56-7.82 1.57-1 .7-1.82 2.87-1.82 2.87" stroke-linecap="round"/><path fill="none" stroke="#eeeeec" stroke-width=".75" d="M20.35 34.46c.52 1.85-.2 6.32-.55 7.38-.58 1.68-2.25 3.05-3.84 3.74" stroke-linecap="round"/><path fill="none" stroke="#eeeeec" stroke-width=".75" d="M27.43 33.55c-.5 2.43.76 4.44 2.47 5.4 2.16 1.23 5.4.46 7.98.97 1.94.38 4.1 1.3 4.34 3.48" stroke-linecap="round"/><path fill="none" stroke="#eeeeec" stroke-width=".75" d="M30.9 32.04s2.1 2.57 3.55 2.93c2.2.55 5.16-1.34 7.37-.76 1.74.47 3.64 2.84 3.64 2.84" stroke-linecap="round"/><path fill="none" stroke="#eeeeec" stroke-width=".75" d="M30.5 27.4c2.5 2.27 9.64 3.2 12.63 1.26 3.13-2.04 1.2-4.98.05-5.5" stroke-linecap="round"/></g></svg>