<svg xmlns="http://www.w3.org/2000/svg" width="48" height="48" xmlns:xlink="http://www.w3.org/1999/xlink"><defs><radialGradient id="a" cx="4.019" cy="35.203" r="22.264" gradientUnits="userSpaceOnUse" fy="35.203" fx="4.019"><stop offset=".006" stop-color="#9EA6B3"/><stop offset=".872" stop-color="#4C5159"/><stop offset="1" stop-color="#737B87"/></radialGradient><radialGradient id="b" cx="22.131" cy="5.154" r="2.122" gradientUnits="userSpaceOnUse" fy="5.154" fx="22.131"><stop offset="0" stop-color="#E0E3E5"/><stop offset=".151" stop-color="#DDE0E3"/><stop offset=".283" stop-color="#D0D4D8"/><stop offset=".408" stop-color="#BDC1CA"/><stop offset=".527" stop-color="#A3AAB7"/><stop offset=".547" stop-color="#9EA6B3"/><stop offset="1" stop-color="#737B87"/></radialGradient><radialGradient id="c" cx="21.484" cy="5.065" r="7.232" gradientUnits="userSpaceOnUse" fy="5.065" fx="21.484"><stop offset="0" stop-color="#E0E3E5"/><stop offset=".151" stop-color="#DDE0E3"/><stop offset=".283" stop-color="#D0D4D8"/><stop offset=".408" stop-color="#BDC1CA"/><stop offset=".527" stop-color="#A3AAB7"/><stop offset=".547" stop-color="#9EA6B3"/><stop offset="1" stop-color="#737B87"/></radialGradient><radialGradient id="d" cx="21.974" cy="6.552" r="3.592" gradientUnits="userSpaceOnUse" fy="6.552" fx="21.974"><stop offset=".006" stop-color="#9EA6B3"/><stop offset=".659" stop-color="#4C5159"/><stop offset="1" stop-color="#737B87"/></radialGradient><radialGradient id="e" cx="3.65" cy="25.666" r="16.436" gradientUnits="userSpaceOnUse" fy="25.666" fx="3.65"><stop offset=".006" stop-color="#9EA6B3"/><stop offset=".872" stop-color="#4C5159"/><stop offset="1" stop-color="#737B87"/></radialGradient><radialGradient id="t" cx="143.255" cy="-1406.636" r="19.146" gradientUnits="userSpaceOnUse" gradientTransform="matrix(1.307 -.011 0 .415 -163.059 596.829)" fy="-1406.636" fx="143.255"><stop offset="0" stop-color="#E0E3E5"/><stop offset=".48" stop-color="#CED5DB"/><stop offset=".698" stop-color="#BBC2CA"/><stop offset=".818" stop-color="#A6ADBA"/><stop offset=".827" stop-color="#A4ACB8"/></radialGradient><radialGradient id="s" cx="141.352" cy="-1421.644" r="13.92" gradientUnits="userSpaceOnUse" gradientTransform="matrix(1.307 -.011 0 .415 -163.059 596.829)" fy="-1421.644" fx="141.352"><stop offset=".179" stop-color="#98A4B3"/><stop offset=".693" stop-color="#ADB6C1"/><stop offset="1" stop-color="#D4DBDF"/></radialGradient><radialGradient id="r" cx="12.057" cy="10.16" r="8.432" gradientUnits="userSpaceOnUse" fy="10.16" fx="12.057"><stop offset="0" stop-color="#9EA6B3"/><stop offset="1" stop-color="#737B87"/></radialGradient><radialGradient id="f" cx="1002.977" cy="-1767.609" r="3.358" gradientUnits="userSpaceOnUse" gradientTransform="matrix(.672 -1.242 .291 .157 -119.602 1540.764)" fy="-1767.609" fx="1002.977"><stop offset="0" stop-color="#fff"/><stop offset=".5" stop-color="#fff"/><stop offset="1" stop-color="#fff" stop-opacity="0"/></radialGradient><radialGradient id="g" cx="36.947" cy="12.435" r="12.918" gradientUnits="userSpaceOnUse" fy="12.435" fx="36.947"><stop offset="0" stop-color="#F3F4F4"/><stop offset=".376" stop-color="#E0E3E5"/><stop offset=".506" stop-color="#DDE0E3"/><stop offset=".618" stop-color="#D0D4D8"/><stop offset=".725" stop-color="#BDC1CA"/><stop offset=".827" stop-color="#A3AAB7"/><stop offset=".844" stop-color="#9EA6B3"/><stop offset=".927" stop-color="#737B87"/><stop offset="1" stop-color="#8D9299"/></radialGradient><radialGradient id="o" cx="24.759" cy="11.482" r="14.104" gradientUnits="userSpaceOnUse" fy="11.482" fx="24.759"><stop offset="0" stop-color="#fff"/><stop offset=".447" stop-color="#F2F3F4"/><stop offset=".558" stop-color="#DDE2E5"/><stop offset=".626" stop-color="#CED5DB"/><stop offset=".832" stop-color="#BBC2CA"/><stop offset=".988" stop-color="#A6ADBA"/><stop offset="1" stop-color="#A4ACB8"/></radialGradient><radialGradient id="h" cx="4.464" cy="15.279" r="8.867" gradientUnits="userSpaceOnUse" fy="15.279" fx="4.464"><stop offset="0" stop-color="#fff"/><stop offset=".34" stop-color="#FDFDFD"/><stop offset=".513" stop-color="#F4F4F5"/><stop offset=".648" stop-color="#E5E6E7"/><stop offset=".763" stop-color="#D0D3D6"/><stop offset=".866" stop-color="#B5BBC1"/><stop offset=".959" stop-color="#98A1AB"/><stop offset="1" stop-color="#8893A0"/></radialGradient><radialGradient id="j" cx="24.619" cy="14.832" r="17.976" gradientUnits="userSpaceOnUse" fy="14.832" fx="24.619"><stop offset=".106" stop-color="#F3F4F4"/><stop offset=".38" stop-color="#D6D9DD"/><stop offset=".67" stop-color="#9EA6B3"/><stop offset="1" stop-color="#4d5462"/></radialGradient><radialGradient id="l" cx="21.434" cy="-3.174" r="35.217" gradientUnits="userSpaceOnUse" fy="-3.174" fx="21.434"><stop offset=".224" stop-color="#8D9299"/><stop offset=".376" stop-color="#E0E3E5"/><stop offset=".498" stop-color="#DDE0E3"/><stop offset=".604" stop-color="#D0D4D8"/><stop offset=".704" stop-color="#BDC1CA"/><stop offset=".8" stop-color="#A3AAB7"/><stop offset=".816" stop-color="#9EA6B3"/><stop offset=".927" stop-color="#737B87"/><stop offset="1" stop-color="#9EA6B3"/></radialGradient><linearGradient id="i" x1="1.582" x2="4.472" y1="11.347" y2="10.046" gradientUnits="userSpaceOnUse"><stop offset="0" stop-color="#737B87"/><stop offset=".29" stop-color="#BBC2CA"/><stop offset=".547" stop-color="#BBC2CA"/><stop offset=".743" stop-color="#9EA6B3"/><stop offset="1" stop-color="#838B97"/></linearGradient><radialGradient id="y" cx="4.019" cy="35.203" r="22.264" xlink:href="#a" gradientUnits="userSpaceOnUse" fx="4.019" fy="35.203" gradientTransform="matrix(1.009 0 0 1.009 0 8.743)"/><radialGradient id="x" cx="22.131" cy="5.154" r="2.122" xlink:href="#b" gradientUnits="userSpaceOnUse" fx="22.131" fy="5.154" gradientTransform="matrix(1.009 0 0 1.009 0 8.743)"/><radialGradient id="w" cx="21.484" cy="5.065" r="7.232" xlink:href="#c" gradientUnits="userSpaceOnUse" fx="21.484" fy="5.065" gradientTransform="matrix(1.009 0 0 1.009 0 8.743)"/><radialGradient id="v" cx="21.974" cy="6.552" r="3.592" xlink:href="#d" gradientUnits="userSpaceOnUse" fx="21.974" fy="6.552" gradientTransform="matrix(1.009 0 0 1.009 0 8.743)"/><radialGradient id="u" cx="3.65" cy="25.666" r="16.436" xlink:href="#e" gradientUnits="userSpaceOnUse" fx="3.65" fy="25.666" gradientTransform="matrix(1.009 0 0 1.009 0 8.743)"/><radialGradient id="q" cx="1002.977" cy="-1767.609" r="3.358" xlink:href="#f" gradientUnits="userSpaceOnUse" gradientTransform="matrix(.678 -1.253 .293 .159 -120.691 1563.54)" fx="1002.977" fy="-1767.609"/><radialGradient id="p" cx="36.947" cy="12.435" r="12.918" xlink:href="#g" gradientUnits="userSpaceOnUse" fx="36.947" fy="12.435" gradientTransform="matrix(1.009 0 0 1.009 0 8.743)"/><radialGradient id="n" cx="4.464" cy="15.279" r="8.867" xlink:href="#h" gradientUnits="userSpaceOnUse" fx="4.464" fy="15.279" gradientTransform="matrix(1.009 0 0 1.009 0 8.743)"/><linearGradient id="k" x1="1.582" x2="4.472" y1="11.347" y2="10.046" xlink:href="#i" gradientUnits="userSpaceOnUse" gradientTransform="matrix(1.009 0 0 1.009 0 8.743)"/><radialGradient cx="24.619" cy="14.832" r="17.976" xlink:href="#j" gradientUnits="userSpaceOnUse" fx="24.619" fy="14.832"/><radialGradient id="m" cx="24.619" cy="14.832" r="17.976" xlink:href="#j" gradientUnits="userSpaceOnUse" fx="24.619" fy="14.832" gradientTransform="matrix(1.009 0 0 1.009 0 8.743)"/></defs><g><g fill="none" stroke="#2b2e33" stroke-width="1.387"><path d="M8.4 16.28c-1.32-.4-3.1-.8-4.44-.62-.52.04-.92 2.15 1.94 5.75"/><path d="M4.7 24.9C1.12 20.77.57 18.23.73 15.57c.04-.64.82-1.77 2.57-2.1 2.34-.47 5.43.5 6.8.58"/></g><path fill="url(#k)" d="M3.96 15.66c-.52.04-1.02 2.04 1.94 5.75-.46 1.12-.9 2.3-1.2 3.5C1.12 20.77.57 18.23.73 15.57c.04-.64.82-1.77 2.57-2.1 2.34-.47 5.43.5 6.8.58-.63.42-1 .83-1.15 1.15-.14.3-.33.66-.54 1.08-1.32-.4-3.1-.8-4.44-.62z"/><g transform="matrix(1.009 0 0 1.009 0 8.743)"><radialGradient cx="21.434" cy="-3.174" r="35.217" fx="21.434" fy="-3.174" gradientUnits="userSpaceOnUse"><stop offset=".224" stop-color="#8D9299"/><stop offset=".376" stop-color="#E0E3E5"/><stop offset=".498" stop-color="#DDE0E3"/><stop offset=".604" stop-color="#D0D4D8"/><stop offset=".704" stop-color="#BDC1CA"/><stop offset=".8" stop-color="#A3AAB7"/><stop offset=".816" stop-color="#9EA6B3"/><stop offset=".927" stop-color="#737B87"/><stop offset="1" stop-color="#9EA6B3"/></radialGradient><path fill="url(#l)" d="M34.56 6.4c-.45-1.12-3.65-3.43-12.9-3.43h-.14C12.88 2.97 9.4 5.24 8.87 6.4 7.4 9.57.83 19.57 6.25 25.46c.75.75 2.95 2.12 3.84 2.95 2.18 1.34 5.6 2.6 11.5 2.6 11.25-.07 12.05-3.8 15.34-5.55 5.42-5.9-1.06-15.83-2.38-19.07zM21.74 11C14.98 11.08 9.5 9.4 9.5 7.27c0-2.13 5.48-3.9 12.24-3.97 6.77-.07 12.24 1.6 12.24 3.75 0 2.13-5.47 3.9-12.24 3.96z"/></g><path fill="url(#m)" d="M34.88 15.2c-.46-1.13-3.7-3.46-13.02-3.46h-.14c-8.73 0-12.23 2.3-12.77 3.46C7.47 18.4.85 28.5 6.3 34.45c.77.75 2.98 2.13 3.88 2.97 2.2 1.36 5.66 2.63 11.6 2.63 11.37-.07 12.18-3.85 15.5-5.6 5.46-5.95-1.08-15.98-2.4-19.25zm-12.94 4.66c-6.82.06-12.35-1.64-12.35-3.8 0-2.15 5.52-3.94 12.34-4 6.82-.06 12.35 1.64 12.35 3.8 0 2.14-5.54 3.94-12.36 4z"/><path fill="url(#n)" d="M4.84 24.38c-1.8-1.8-4.5-7.77-3.27-7.77.7 0 1.74 5.65 3.8 6.18l-.53 1.6z" opacity=".6"/><g transform="matrix(1.009 0 0 1.009 .303 8.92)"><radialGradient cx="24.759" cy="11.482" r="14.104" fx="24.759" fy="11.482" gradientUnits="userSpaceOnUse"><stop offset="0" stop-color="#fff"/><stop offset=".447" stop-color="#F2F3F4"/><stop offset=".558" stop-color="#DDE2E5"/><stop offset=".626" stop-color="#CED5DB"/><stop offset=".832" stop-color="#BBC2CA"/><stop offset=".988" stop-color="#A6ADBA"/><stop offset="1" stop-color="#A4ACB8"/></radialGradient><path fill="url(#o)" d="M8.45 7.26c0 .7.3 1.33.88 1.9 1.82 1.8 6.67 2.95 12.35 2.9 6.36-.05 13.2-1.64 13.2-5.02 0-.68-.6-1.03-1.17-1.6l-.17.17c.37.4.45 1.05.45 1.45 0 2.13-5.6 3.9-12.3 3.96-5.26.06-10.03-1-11.6-2.58-.4-.37-.58-.76-.58-1.16 0-.55 0-1.42.7-1.92l-.12-.3c-.98.7-1.63 1.3-1.63 2.22z"/></g><path fill="none" stroke="#2b2e33" stroke-width=".7" d="M34.88 15.2c-.46-1.13-3.7-3.46-13.02-3.46h-.14c-8.73 0-12.23 2.3-12.77 3.46C7.47 18.4.85 28.5 6.3 34.45c.77.75 2.98 2.13 3.88 2.97 2.2 1.36 5.66 2.63 11.6 2.63 11.37-.07 12.18-3.85 15.5-5.6 5.46-5.95-1.08-15.98-2.4-19.25z"/><path fill="url(#p)" d="M33.3 32.25c0-1 .85-4.45 3.82-4.45.75 0 .82-.07 1.12-.48.23-.32 2.2-5.1 3.8-6.1.68-.4 1.96-.4 3.33-.18 1.04.16 2.3.5 2.3.82 0 .4-.63.6-1.5.8-.82.2-1.74.22-2.63 2.3-1 2.3-.75 4.4-2.2 6.53-1.22 1.75-3.58 3.6-6.7 3.3-.9-.06-1.33-1.48-1.33-2.55z"/><path fill="url(#q)" d="M43.17 22.22c.55.3-.03 2.42-1.3 4.74-1.24 2.33-2.7 3.97-3.25 3.68-.54-.3.04-2.42 1.3-4.74 1.25-2.33 2.7-3.97 3.25-3.68z" opacity=".8"/><path fill="none" stroke="#2b2e33" stroke-width=".7" d="M37.12 27.8c.75 0 .82-.07 1.12-.48.23-.32 2.2-5.1 3.8-6.1.68-.4 1.96-.4 3.33-.18 1.04.16 2.3.5 2.3.82 0 .4-.63.6-1.5.8-.82.2-1.74.22-2.63 2.3-1 2.3-.75 4.4-2.2 6.53-1.22 1.75-3.58 3.6-6.7 3.3"/><g transform="matrix(1.009 0 0 1.009 0 8.743)"><radialGradient cx="12.057" cy="10.16" r="8.432" fx="12.057" fy="10.16" gradientUnits="userSpaceOnUse"><stop offset="0" stop-color="#9EA6B3"/><stop offset="1" stop-color="#737B87"/></radialGradient><path fill="url(#r)" d="M33.98 7.04c0-2.13-5.47-3.8-12.24-3.75C14.98 3.34 9.5 5.12 9.5 7.25s5.48 3.8 12.24 3.75c.02 0 .04 0 .06 0-6.44.03-11.63-1.57-11.63-3.62 0-2.06 5.3-3.77 11.83-3.83 6.54-.06 11.83 1.57 11.83 3.63 0 .5-.32 1-.9 1.45.67-.5 1.05-1.03 1.05-1.6z"/></g><ellipse cx="21.669" cy="7.151" fill="url(#s)" rx="12.165" ry="3.861" transform="matrix(1.009 0 0 1.009 0 8.743)"/><ellipse cx="21.669" cy="7.151" fill="url(#t)" rx="12.165" ry="3.861" transform="matrix(1.009 0 0 1.009 0 8.743)"/><g><path fill="#626a73" d="M22.2 12.32c-6.54 0-12.3 2.04-12.3 3.87 0 .48.2.95.65 1.38 1.16 1.16 5.87 2.28 11.32 2.28 8.34-.2 12.5-2.3 12.27-3.87-.15-2.47-6.16-3.68-11.94-3.68zm-11.4 5c-.44-.45-.44-.75-.44-1.03 0-1.62 5.03-3.9 11.84-3.98 6.72-.06 11.4 2 11.56 3.58-.08 1.68-4.73 3.63-11.66 3.7-5.76 0-9.84-.84-11.3-2.28z"/></g><path fill="none" stroke="#2b2e33" stroke-width=".7" d="M3.23 16.27c.05-.06.14-.16.78-.25 1-.13 2.43.07 4.23.6"/><path fill="url(#u)" d="M8.7 15.68c-.1.22-.15.34-.3.6-1.32-.4-3.1-.8-4.44-.62-1.35.18-.75.5-1.42.5-.2 0-1.46-.35-1.46 2.82-.63-2.26.16-3 .26-3.2.1-.22.85-.85 1.52-.97 1.9-.33 3.13.27 5.85.88z"/><path fill="none" stroke="#2b2e33" stroke-width="1.4" d="M20.87 13.2c0-.24-2.37-1.98-2.37-2.4 0-.34 1.27-1.2 1.5-1.3.16-.06 1.2-.05 1.9-.05.66 0 1.7-.02 1.88.06.22.1 1.5.96 1.5 1.3 0 .42-2.38 2.16-2.38 2.4"/><path fill="url(#v)" d="M25.28 10.8c0 .42-1.96 2.16-1.96 2.38 0 .17.6.5 1.02.5.43 0-.32.17-.8 0-.5-.2-.4-.3-1.06-.3-.68 0-1.7.53-2.5.53-.78 0-1.12-.27-.4-.36.67-.07.87-.08.87-.35 0-.24-1.95-1.98-1.95-2.4"/><path fill="url(#w)" d="M21.9 11.74c-1.87 0-3.4-.54-3.4-.95 0-.34 1.27-1.2 1.5-1.3.16-.06 1.2-.05 1.9-.05.66 0 1.7-.02 1.88.06.22.1 1.5.96 1.5 1.3 0 .4-1.54.94-3.4.94z"/><path fill="url(#x)" d="M21.5 13.93c0-.15.26-.18.74-.18s.82.1.82.23c0 .14.23.33-.74.33s-.83-.03-.83-.37z"/><path fill="url(#y)" d="M6.06 21.05S3.5 17.7 4 16.02c-.84 0-1.48-.17-.77 2.04.72 2.22 1.22 3.15 2.4 4l.43-1z" opacity=".7"/><path fill="#626a73" d="M45.66 22.1c-2 .2-2.4-.27-2.8-.48.5-.34 1.37.08 1.96.15.6.08 1.75.22.84.33z"/></g></svg>