<svg xmlns="http://www.w3.org/2000/svg" width="48" height="48" xmlns:xlink="http://www.w3.org/1999/xlink"><defs><linearGradient id="c"><stop offset="0" stop-color="#575d66"/><stop offset="1" stop-color="#575d66" stop-opacity="0"/></linearGradient><linearGradient x1="8.89" x2="20.644" y1="9.889" y2="17.46" xlink:href="#a" gradientUnits="userSpaceOnUse" gradientTransform="matrix(-1 0 0 1 40.644 1.073)"/><linearGradient x1="8.89" x2="20.644" y1="9.889" y2="17.46" xlink:href="#a" gradientUnits="userSpaceOnUse"/><linearGradient x1="21.319" x2="32.073" y1="20.318" y2="13.746" xlink:href="#a" gradientUnits="userSpaceOnUse" gradientTransform="matrix(-1 0 0 1 57.602 10.983)"/><clipPath><path d="M42.13 8.35l-8.3 14-14.07-8.36 8.3-14z"/></clipPath><clipPath><path d="M28 5.47l-1.68 6.9-1.94-1.08.57 5.97 6.27-2.2-1.86-1.02 7.03-8.3-8.4-.28z"/></clipPath><clipPath><path d="M27.32 17.7H43v7.54H27.32z"/></clipPath><clipPath><path d="M40.8 18.68l-8.15.86-.67-1.98-4.35 3.58 6.72 3.44-.7-2.08 9.43.64-2.3-4.46z"/></clipPath><linearGradient id="a"><stop offset="0" stop-color="#f57900"/><stop offset="1" stop-color="#c00"/></linearGradient><linearGradient x1="21.319" x2="32.073" y1="20.318" y2="13.746" xlink:href="#a" gradientUnits="userSpaceOnUse" gradientTransform="translate(-14.176 11.931)"/><linearGradient id="b"><stop offset="0" stop-color="#fff"/><stop offset="1" stop-color="#bbd3dc"/></linearGradient><radialGradient cx="20.491" cy="22.247" r="23.86" xlink:href="#b" fx="20.491" fy="22.247" gradientTransform="matrix(1.156 -.32 .214 .772 46.14 17.705)" gradientUnits="userSpaceOnUse"/><radialGradient id="d" cx="20.491" cy="22.247" r="23.86" xlink:href="#b" gradientUnits="userSpaceOnUse" gradientTransform="matrix(1.142 -.316 .211 .762 -7.381 11.659)" fx="20.491" fy="22.247"/><linearGradient id="e" x1="20.325" x2="19.167" y1="21.746" y2="16.071" xlink:href="#c" gradientUnits="userSpaceOnUse"/></defs><g><path fill="url(#d)" stroke="#575d66" d="M2.28 39.86c2.92-.45 6.92.52 10.74-2.47 3.8-3 5.24-2.8 6.5-3.38.36-1.24 2.17-7.26.72-12.32.83 3.1 8.53 8.94 9.36 9.15 1.78-.94 6.95-.8 9.84-2.34 2.9-1.54 5.88-4.53 7.84-4.64-1.03-1.23-4.02-2.16-8.88-3.92-4.85-1.75-7.12-4.02-7.53-4.95-.4-.94-1.03-3-.4-5.8-.94.94-8.58.12-14.67 3.3C9.7 15.7 3.2 15.93.63 15.93c.53 1.8 3.7 6.55 3.96 7.5.26.95.7 1.9.88 3 .13.85.28 2.9.33 3.67.13 1.54-2.62 8.2-3.52 9.76z"/><path fill="none" stroke="url(#e)" d="M20.25 21.7l-1.08-5.13"/><path fill="none" stroke="#6e7483" d="M20.57 25.9l1.4-.12"/><path fill="none" stroke="#6e7483" d="M20.63 27.68c.74-.23 1.34-.08 1.9.2"/><path fill="none" stroke="#6e7483" d="M20.57 29.4c.72-.42 1.3-.17 1.84.25"/><path fill="none" stroke="#6e7483" d="M20.25 31.3c.86.4 1.6.22 2.3-.38"/><path fill="none" stroke="#6e7483" d="M19.8 33.2c1.16-.3 1.96-.02 2.6.5"/><path fill="none" stroke="#6e7483" d="M23.55 26.03l-1.07.9"/><path fill="none" stroke="#6e7483" d="M24.77 27.33c-.55.1-1.04.48-1.42 1.26"/><path fill="none" stroke="#6e7483" d="M26.04 28.5c-.35.63-.67 1.34-1.34 1.16"/><path fill="none" stroke="#6e7483" d="M27.62 29.6c-.6.33-1.3.54-1.4 1.68"/><path fill="none" stroke="#6e7483" d="M29.28 30.62c-.88.3-1.67 1.2-2.1 2.02"/></g></svg>