<svg xmlns="http://www.w3.org/2000/svg" width="48" height="48"><defs><radialGradient cx="309.748" cy="439.215" r="24.293" gradientTransform="matrix(1.041 0 0 1.041 -304.211 -436.113)" fx="309.748" fy="439.215" gradientUnits="userSpaceOnUse"><stop offset="0" stop-color="#fff"/><stop offset=".5" stop-color="#f0cd63"/><stop offset="1" stop-color="#8b7e13"/></radialGradient><radialGradient cx="306.611" cy="423.268" r="2.709" gradientTransform="matrix(1.041 0 0 1.041 -304.211 -436.113)" fx="306.611" fy="423.268" gradientUnits="userSpaceOnUse"><stop offset="0" stop-color="#fff"/><stop offset=".747" stop-color="#e2db9e"/><stop offset="1" stop-color="#c5b73e"/></radialGradient><radialGradient cx="315.203" cy="442.042" r="21.887" gradientUnits="userSpaceOnUse" fy="442.042" fx="315.203"><stop offset="0" stop-color="#f2e78b"/><stop offset=".994" stop-color="#fff"/></radialGradient><radialGradient cx="306.611" cy="423.268" r="2.709" gradientTransform="matrix(1.041 0 0 1.041 -304.211 -436.113)" fx="306.611" fy="423.268" gradientUnits="userSpaceOnUse"><stop offset="0" stop-color="#fff"/><stop offset=".747" stop-color="#e2db9e"/><stop offset="1" stop-color="#c5b73e"/></radialGradient><radialGradient cx="306.611" cy="423.268" r="2.709" gradientTransform="matrix(1.041 0 0 1.041 -304.211 -436.113)" fx="306.611" fy="423.268" gradientUnits="userSpaceOnUse"><stop offset="0" stop-color="#fff"/><stop offset=".747" stop-color="#e2db9e"/><stop offset="1" stop-color="#c5b73e"/></radialGradient><radialGradient cx="306.611" cy="423.268" r="2.709" gradientTransform="matrix(1.041 0 0 1.041 -304.211 -436.113)" fx="306.611" fy="423.268" gradientUnits="userSpaceOnUse"><stop offset="0" stop-color="#fff"/><stop offset=".747" stop-color="#e2db9e"/><stop offset="1" stop-color="#c5b73e"/></radialGradient><radialGradient cx="309.748" cy="439.215" r="24.293" gradientTransform="matrix(1.041 0 0 1.041 -304.211 -436.113)" fx="309.748" fy="439.215" gradientUnits="userSpaceOnUse"><stop offset="0" stop-color="#fff"/><stop offset=".5" stop-color="#f0cd63"/><stop offset="1" stop-color="#8b7e13"/></radialGradient><radialGradient cx="315.203" cy="442.042" r="21.887" gradientUnits="userSpaceOnUse" fy="442.042" fx="315.203"><stop offset="0" stop-color="#f2e78b"/><stop offset=".994" stop-color="#fff"/></radialGradient></defs><g stroke="#eeeeec" color="#000"><path fill="#d3d7cf" stroke-dashoffset=".7" d="M0 40h8v8H0z" overflow="visible" enable-background="accumulate"/><path fill="#babdb6" d="M8 40h8v8H8z" overflow="visible" enable-background="accumulate"/><path fill="#fce94f" d="M16 40h8v8h-8z" overflow="visible" enable-background="accumulate"/><path fill="#ef2929" stroke-dashoffset=".7" d="M0 40h8v8H0z" overflow="visible" enable-background="accumulate"/><path fill="#fce94f" d="M8 40h8v8H8z" overflow="visible" enable-background="accumulate"/><path fill="#babdb6" d="M24 40h8v8h-8z" overflow="visible" enable-background="accumulate"/><path fill="#73d216" d="M32 40h8v8h-8z" overflow="visible" enable-background="accumulate"/><path fill="#ef2929" d="M24 40h8v8h-8z" overflow="visible" enable-background="accumulate"/><path fill="#729fcf" d="M40 40h8v8h-8z" overflow="visible" enable-background="accumulate"/><path fill="#d3d7cf" d="M0 24h8v8H0z" overflow="visible" enable-background="accumulate"/><path fill="#babdb6" d="M8 24h8v8H8z" overflow="visible" enable-background="accumulate"/><path fill="#eeeeec" d="M16 24h8v8h-8z" overflow="visible" enable-background="accumulate"/><path fill="#fce94f" d="M0 24h8v8H0z" overflow="visible" enable-background="accumulate"/><path fill="#eeeeec" d="M8 24h8v8H8z" overflow="visible" enable-background="accumulate"/><path fill="#babdb6" d="M24 24h8v8h-8z" overflow="visible" enable-background="accumulate"/><path fill="#ef2929" d="M32 24h8v8h-8z" overflow="visible" enable-background="accumulate"/><path fill="#fce94f" d="M24 24h8v8h-8z" overflow="visible" enable-background="accumulate"/><path fill="#729fcf" d="M40 24h8v8h-8z" overflow="visible" enable-background="accumulate"/><path fill="#d3d7cf" d="M0 8h8v8H0z" overflow="visible" enable-background="accumulate"/><path fill="#babdb6" d="M8 8h8v8H8z" overflow="visible" enable-background="accumulate"/><path fill="#ef2929" d="M16 8h8v8h-8z" overflow="visible" enable-background="accumulate"/><path fill="#73d216" d="M0 8h8v8H0z" overflow="visible" enable-background="accumulate"/><path fill="#ef2929" d="M8 8h8v8H8z" overflow="visible" enable-background="accumulate"/><path fill="#babdb6" d="M24 8h8v8h-8z" overflow="visible" enable-background="accumulate"/><path fill="#729fcf" d="M32 8h8v8h-8z" overflow="visible" enable-background="accumulate"/><path fill="#73d216" d="M24 8h8v8h-8z" overflow="visible" enable-background="accumulate"/><path fill="#73d216" d="M40 8h8v8h-8z" overflow="visible" enable-background="accumulate"/><path fill="#d3d7cf" d="M48 32h-8v8h8z" overflow="visible" enable-background="accumulate"/><path fill="#babdb6" d="M40 32h-8v8h8z" overflow="visible" enable-background="accumulate"/><path fill="#fce94f" d="M32 32h-8v8h8z" overflow="visible" enable-background="accumulate"/><path fill="#729fcf" d="M48 32h-8v8h8z" overflow="visible" enable-background="accumulate"/><path fill="#ef2929" d="M40 32h-8v8h8z" overflow="visible" enable-background="accumulate"/><path fill="#babdb6" d="M24 32h-8v8h8z" overflow="visible" enable-background="accumulate"/><path fill="#eeeeec" d="M16 32H8v8h8z" overflow="visible" enable-background="accumulate"/><path fill="#eeeeec" d="M24 32h-8v8h8z" overflow="visible" enable-background="accumulate"/><path fill="#fce94f" d="M8 32H0v8h8z" overflow="visible" enable-background="accumulate"/><path fill="#d3d7cf" d="M48 16h-8v8h8z" overflow="visible" enable-background="accumulate"/><path fill="#babdb6" d="M40 16h-8v8h8z" overflow="visible" enable-background="accumulate"/><path fill="#ef2929" d="M32 16h-8v8h8z" overflow="visible" enable-background="accumulate"/><path fill="#729fcf" d="M48 16h-8v8h8z" overflow="visible" enable-background="accumulate"/><path fill="#73d216" d="M40 16h-8v8h8z" overflow="visible" enable-background="accumulate"/><path fill="#babdb6" d="M24 16h-8v8h8z" overflow="visible" enable-background="accumulate"/><path fill="#fce94f" d="M16 16H8v8h8z" overflow="visible" enable-background="accumulate"/><path fill="#fce94f" d="M24 16h-8v8h8z" overflow="visible" enable-background="accumulate"/><path fill="#ef2929" d="M8 16H0v8h8z" overflow="visible" enable-background="accumulate"/><path fill="#d3d7cf" d="M48 0h-8v8h8z" overflow="visible" enable-background="accumulate"/><path fill="#babdb6" d="M40 0h-8v8h8z" overflow="visible" enable-background="accumulate"/><path fill="#729fcf" d="M32 0h-8v8h8z" overflow="visible" enable-background="accumulate"/><path fill="#ef2929" d="M48 0h-8v8h8z" overflow="visible" enable-background="accumulate"/><path fill="#73d216" d="M40 0h-8v8h8z" overflow="visible" enable-background="accumulate"/><path fill="#babdb6" d="M24 0h-8v8h8z" overflow="visible" enable-background="accumulate"/><path fill="#729fcf" d="M16 0H8v8h8z" overflow="visible" enable-background="accumulate"/><path fill="#729fcf" d="M24 0h-8v8h8z" overflow="visible" enable-background="accumulate"/><path fill="#729fcf" d="M8 0H0v8h8z" overflow="visible" enable-background="accumulate"/></g></svg>