<svg xmlns="http://www.w3.org/2000/svg" width="48" height="48" xmlns:xlink="http://www.w3.org/1999/xlink"><defs><linearGradient id="g"><stop offset="0"/><stop offset="1" stop-opacity="0"/></linearGradient><linearGradient id="f"><stop offset="0" stop-color="#8ae234"/><stop offset="1" stop-color="#8ae234" stop-opacity="0"/></linearGradient><linearGradient id="e"><stop offset="0" stop-color="#7ac92f"/><stop offset="1" stop-color="#4e9a06"/></linearGradient><linearGradient id="d"><stop offset="0" stop-color="#729fcf"/><stop offset="1" stop-color="#729fcf" stop-opacity="0"/></linearGradient><linearGradient id="c"><stop offset="0" stop-color="#72ccd4"/><stop offset=".556" stop-color="#7a7c77"/><stop offset="1" stop-color="#206000"/></linearGradient><linearGradient id="b"><stop offset="0" stop-color="#fff"/><stop offset="1" stop-color="#c3fffa"/></linearGradient><linearGradient id="a"><stop offset="0" stop-color="#cfd1cc"/><stop offset="1" stop-color="#787d71"/></linearGradient><radialGradient id="k" cx="20.542" cy="21.269" r="23.234" xlink:href="#a" fx="20.542" fy="21.269" gradientTransform="matrix(1 -.008 .006 .763 -.13 1.702)" gradientUnits="userSpaceOnUse"/><radialGradient id="m" cx="22.464" cy="13.64" r="9.936" xlink:href="#b" fx="22.464" fy="13.64" gradientTransform="matrix(1.522 .011 -.012 1.636 -11.656 -12.242)" gradientUnits="userSpaceOnUse"/><linearGradient id="n" x1="25.38" x2="25.561" y1="8.834" y2="35.548" xlink:href="#c" gradientUnits="userSpaceOnUse" gradientTransform="translate(0 -4.071)"/><radialGradient id="j" cx="24.357" cy="24" r="23.714" xlink:href="#d" fx="24.357" fy="24" gradientUnits="userSpaceOnUse"/><radialGradient id="l" cx="12.402" cy="30.519" r="23.045" xlink:href="#e" fx="12.402" fy="30.519" gradientTransform="matrix(1.483 .039 -.028 .626 -5.149 10.777)" gradientUnits="userSpaceOnUse"/><radialGradient id="h" cx="24.036" cy="40.036" r="23.536" xlink:href="#f" fx="24.036" fy="40.036" gradientTransform="matrix(1 0 0 .338 0 26.488)" gradientUnits="userSpaceOnUse"/><radialGradient id="i" cx="28.462" cy="17.499" r="20.557" xlink:href="#g" fx="28.462" fy="17.499" gradientTransform="matrix(1.258 -.285 .163 .717 -9.402 24.623)" gradientUnits="userSpaceOnUse"/></defs><g><path fill="url(#h)" d="M47.57 40.04a23.54 7.96 0 1 1-47.07 0 23.54 7.96 0 1 1 47.07 0z" transform="matrix(1 0 0 1.677 0 -32.502)" color="#000" overflow="visible" enable-background="accumulate"/><path fill="url(#i)" d="M6.46 36.28l10.6 4.35 8.6 3.83 10.5-.4 10.6.5.82-13.43z"/><path fill="url(#j)" d="M48.07 24c0 4.75-1.4 9.17-3.8 12.88l-40.7-1.45C1.7 32.03.64 28.13.64 24 .64 10.9 11.26.3 24.36.3s23.7 10.6 23.7 23.7z" transform="translate(-.143 -.214)" color="#000" overflow="visible" enable-background="accumulate"/><path fill="url(#k)" d="M.8 31.96l4.6-6.16 5.88-4.35 4.24-6s2.93-4.07 3.46-4.1c.34-.02.48.62.82.66.7.07 4.6-7.03 5.6-6.96 1.14.07 2.75 5.4 3.85 5.4.4 0 .6-.67.98-.65.6.02 2.86 4.3 3.7 4.48.34.08 1.02.15 1.02.15l.93.96 6.33 10.45 5.08 6.2z"/><path fill="url(#l)" d="M5.34 26.6l4.97-1.72 1.32.27.24-1.05.78-.9 1.47-.53 1.66-1.25-.34 1.75 1.56-1.36.63 1.25-.57 1.95 2.3-1.17.08 1.55.94.94 1.56-1.63.05 1.42 1.26 1.63 1-2.33 1.35 2.88L27 29.8l.9-2.55 1.94-2.9.05 1.3 1.64.82.5-1.5.92-1.33.3.77 1.7.75.2-.9-.2-.96 1.2 1.3.64.9.68.7 1.56.43 1.8.07.98.6.4-.44 5 4.38s-2.85 4.32-5.17 5.58c-1.87 1-4.85-1.1-7.7-.34-3.4.9-10.06 3.48-10.06 3.48s-5.37-2.4-9.1-3.13c-3.24-.65-7.4.67-9.53-.45-2.18-1.15-4.88-6-4.88-6z"/><path fill="url(#m)" d="M14.9 16.03l1.14.23 1.5-2.67-.15 2.25 1.25-.54 1.3-1.34.15 1.03-.4.45v1.22l.3.3-.23 2.26.6-1.34.68-2.8 2.2-1.97-.3 2.1.85 1.56.1-1.75.57-1.28 1.9 2.85 1.02-.18 1.44 1.7 1.74-2.16 1.85 8.13 1.9-2.84.1-2.73.46-1.33.72 1.22.17 1.86 1.38-2.52-1.86-2.84-1.4-.76-3.58-4.38-1.2.55c-1.33-2.17-2.1-3.86-3.6-5.9l-5.75 7.6-1.67-.97z"/><path fill="none" stroke="url(#n)" d="M.9 30.95l4.5-5.15 5.88-4.35 4.24-6s1.93-4.57 2.46-4.6c.34-.02 1.48 1.12 1.82 1.16.7.07 4.6-7.03 5.6-6.96 1.14.07 2.75 5.4 3.85 5.4.4 0 .6-.67.98-.65.6.02 2.86 4.3 3.7 4.48.34.08 1.02.15 1.02.15l.93.96 6.33 10.45 5.08 5.4s-2.76 3.32-5.3 5c-1.56 1.04-5.6-.5-8.03.05-5.36 1.24-6.15 3.85-9.6 3.83-3.17 0-3.52-2.42-8.8-3.63-3.1-.7-7.98.33-9.95-1C3.32 33.93.9 30.94.9 30.94z"/><path fill="#8ae234" d="M5.37 31.45l2.47-1.48 5.36-6.2-.22 6.3 4.72-5.6-1 7.48 4.35-3.62 1.15 5.72 1.64-1.4.8 2.45-2.16-.23-.85.7-1.5-3.62-5.36 3.5-1.72-3.03-1.78 1.86-1.43-3.6z"/><path fill="#8ae234" d="M27.2 37.34l2.72-3.8 2.86-2.17.56-3.16 1.35 5.23 2.3 2.5-3.42-.76-2.7.65-2 2.6z"/><path fill="#8ae234" d="M35.57 27.57l1.8 4.22 5.34 2.56 3.3-2.43-5.64-.8z" color="#000" overflow="visible" enable-background="accumulate"/><path fill="#fff" d="M30.3 10.3l-3.73 2.5-1.64 1.4 1.43 2.66.93-.5L28.7 18l-.5-3.8z"/></g></svg>