<svg xmlns="http://www.w3.org/2000/svg" width="48" height="48"><defs><radialGradient id="a" cx="128.946" cy="334.425" r="41.208" gradientUnits="userSpaceOnUse" gradientTransform="matrix(1.031 0 0 1.031 -112.193 -350.514)"><stop offset=".181" stop-color="#8A6647"/><stop offset=".478" stop-color="#BAA593"/><stop offset=".805" stop-color="#EBE5E0"/><stop offset=".956" stop-color="#fff"/></radialGradient><radialGradient id="b" cx="129.184" cy="339.173" r="37.636" gradientUnits="userSpaceOnUse" gradientTransform="matrix(1.031 0 0 1.031 -112.193 -350.514)"><stop offset="0" stop-color="#fff"/><stop offset=".032" stop-color="#FAF7F5"/><stop offset=".087" stop-color="#EEE3D9"/><stop offset=".159" stop-color="#DAC1AC"/><stop offset=".243" stop-color="#BF936F"/><stop offset=".286" stop-color="#B0794D"/><stop offset=".389" stop-color="#906B4C"/><stop offset=".456" stop-color="#80644C"/><stop offset=".676" stop-color="#66594D"/><stop offset="1" stop-color="#594A3E"/></radialGradient><linearGradient id="c" x1="108.923" x2="155.381" y1="353.044" y2="353.044" gradientUnits="userSpaceOnUse"><stop offset="0" stop-color="#fff"/><stop offset=".027" stop-color="#F8FCF5"/><stop offset=".074" stop-color="#E7F4D9"/><stop offset=".135" stop-color="#CAE6AC"/><stop offset=".207" stop-color="#A3D46E"/><stop offset=".286" stop-color="#72BD22"/><stop offset=".702" stop-color="#72BD22"/><stop offset=".844" stop-color="#B9DE92"/><stop offset=".951" stop-color="#EBF6E0"/><stop offset="1" stop-color="#fff"/></linearGradient><linearGradient id="d" x1="108.961" x2="155.453" y1="355.247" y2="355.247" gradientUnits="userSpaceOnUse"><stop offset="0" stop-color="#fff"/><stop offset=".028" stop-color="#F7F6F5"/><stop offset=".077" stop-color="#E1DED9"/><stop offset=".14" stop-color="#BDB6AC"/><stop offset=".215" stop-color="#8D806F"/><stop offset=".286" stop-color="#59462E"/><stop offset=".702" stop-color="#59462E"/><stop offset=".854" stop-color="#AFA69B"/><stop offset="1" stop-color="#fff"/></linearGradient></defs><g><path fill="url(#a)" d="M.16 43V15.28c1.2-.1 18.74.1 20.05 0 1.32-.1 7.97.1 8.9.18.95.1 18.2-.28 18.84-.37V43H.16z"/><path fill="url(#b)" d="M18.04.34c.1 2.48-.16 9.86-.16 10.17 0 .33-1.1 4.46-1.44 4.97-.33.52-1.34 1.7-1.5 1.83-.16.14-.63.6-.85.87-.22.28-1.97 1.23-2.24 1.42-.27.18-2.32 1.52-2.54 1.7-.22.15-1.15.83-1.42 1.08-.27.24-1.55 1.2-1.72 1.34.5-.25.96-.6.96-.6l-.1.46c.15-.4.45-.68.45-.68s.24-.25.5-.4c.28-.18 2.03-.94 2.17-1 .13-.05.16.14.16.14s-.7 1.4-.93 1.9c-.22.48-1.23 2.77-1.3 2.96-.1.2-.42 1.53-.42 1.53.36-.96.82-2.02 1.04-2.43.22-.4.93-1.7 1.17-2.2.24-.53 1.06-2.03 1.3-2.33.25-.3.77-.66.93-.7.16-.07 2.43-1.16 2.7-1.16.28 0 .66.18.66.18-.23.9-2.8 7.33-3.94 8.48-1.15 1.15-4 3-4.83 3.3-.85.3-4.8 1.6-5.27 1.6.63-.04 1.9-.34 1.9-.26 0 .08-1.93 1.7-2.14 1.85C1 34.52 0 35.77 0 35.77c.7-.7 1.14-1.1 1.35-1.25.22-.17 2.1-1.47 2.46-1.7.36-.2 2.05-.76 2.05-.76s-.6 1.4-.76 1.9c.43-.86 1.1-2.1 1.25-2.14.13-.06 2.56-.7 2.73-.88.16-.16 1-.84 1-.84-1.36 1.83-3.9 4.77-4.36 5.07 1.1-.7 2.67-2.42 2.97-2.78.3-.36 2.64-3.07 3.02-3.53.38-.46 1.88-2.67 2.05-2.6.16.1.05 3.64.02 3.9-.03.28-.63 3.15-.66 3.3-.03.12-.8.8-.93.86.48-.22 1.13-.77 1.2-.77.1 0 .67-3 .78-3.33.1-.32.62-5.37 1.1-6.1.45-.74 4.1-6.47 4.35-6.47s.5 2.72.63 3.35c.14.64.4 4.05.4 4.54 0 .5-.65 3.17-.75 3.63-.1.47-.92 4.53-1 4.75.57-1.94 1.22-3.87 1.25-4.12.03-.25.63-2.76.76-2.76.15 0 1.24 3.25 1.3 3.44.05.2.73 2.18.87 2.38.14.2.68 2.73.74 3.03-.18-1.2-.37-3.1-.46-3.34-.08-.25-.95-2.98-.84-2.98.1 0 3.03 3.7 3.38 3.93.36.23 2.87 1.7 3 1.87.14.16 2.4 3 2.73 3.93.34.93 1.32 2.15 1.32 2.15-.9-1.82-.98-3-1.17-3.38-.2-.38-1-1.45-.8-1.5.23-.06 3.74 1.14 4.07 1.34.33.2 3.63.74 4.94 1.32-1.75-.93-3.05-1.15-3.4-1.3-.37-.12-2.2-.78-2.6-1.02-.4-.25-2.76-.8-3.1-1.07-.37-.27-2.4-1.36-2.6-1.6-.23-.25-.96-1.35-.74-1.37.2-.03 3.03-.08 3.16-.1.14-.04 2.24 0 2.68-.12.43-.1 1.5-.38 1.7-.38.18 0 .97.08 1.3.33-.57-.56-1.45-.6-1.78-.53-.32.08-1.52.4-1.82.38-.3-.03-3.17-.14-3.7-.3-.56-.16-3.2-1.48-3.48-1.66-.27-.2-2.35-3.15-2.7-3.92-.36-.76-.88-8.48-.82-8.87.06-.37-.1-1.32.1-1.38.23-.05 3.12.85 3.6 1.2.5.36 1.35.88 1.54 1.04.2.16 3.9 5.4 4.34 6.06.43.65.8 1.4 1 1.58.22.2 1.18 1.7 1.23 2.05-.24-.93-.08-1-.2-1.18-.1-.16-.94-1.14-1.08-1.36-.15-.2-.64-1-.53-1 .1 0 1.1.24 1.23.27.13.03.9.36 1.4.68.48.33 1.55.5 1.98.55.44.05 1.67.38 1.67.38-1.15-.6-2.16-.74-2.62-.9-.47-.16-1.48-.87-1.6-.95-.15-.1-2.47-.96-2.47-.96s-1.5-2.2-1.5-2.6c0-.37-1.23-2.4-1.1-2.5.15-.1 1.07-.22 1.56 0 .5.2 4.45 2.7 4.86 2.75.4.06 2.57.9 2.8.9.26 0 2.93.06 3.3.25.34.2 2.44 1.64 2.63 1.74.2.12 1.65 1.5 2.74 3.34-.82-1.63-2.46-3.52-2.56-3.6-.1-.08-2.1-1.6-2.3-1.7.6-.1 1.3-.65 1.5-.65.22 0 1.94-.44 2.1-.44.17 0 2.13.57 2.13.57-1.13-.6-2.4-.96-2.58-.9-.2.06-1.83.24-2.32.55-.5.3-1.28.2-1.58.13-.3-.07-2.87.07-3.28-.15-.4-.22-4.72-2.7-5.4-3.14-.68-.43-4.58-3.43-6.08-4.76-1.5-1.34-2.02-3.14-2.02-3.14S24.08.9 24.3-.3"/><path fill="none" stroke="#4c3c27" stroke-width=".7" d="M26.56 13.54c-1.5-1.34-2.02-3.14-2.02-3.14s-.46-8.3-.24-9.5"/><path fill="none" stroke="#4c3c27" stroke-width=".7" d="M18.04.34c.1 2.48-.16 9.86-.16 10.17 0 .33-1.1 4.46-1.44 4.97"/><g transform="matrix(1.031 0 0 1.031 -112.193 -350.514)"><linearGradient x1="108.923" x2="155.381" y1="353.044" y2="353.044" gradientUnits="userSpaceOnUse"><stop offset="0" stop-color="#fff"/><stop offset=".027" stop-color="#F8FCF5"/><stop offset=".074" stop-color="#E7F4D9"/><stop offset=".135" stop-color="#CAE6AC"/><stop offset=".207" stop-color="#A3D46E"/><stop offset=".286" stop-color="#72BD22"/><stop offset=".702" stop-color="#72BD22"/><stop offset=".844" stop-color="#B9DE92"/><stop offset=".951" stop-color="#EBF6E0"/><stop offset="1" stop-color="#fff"/></linearGradient><path fill="url(#c)" d="M135.26 353.84l.78-1.85.08 1.9h.7l.22-1.9.38 1.67 2.3-.15.14-.7.38.93.16-1.45.68 1.37 3.06-.07.38-1 .76.92.23-2.37.32 2.52v-.84l1.07.77.6-1.38.46 1.38h.76l.23-1.22.53 1.37.46-1.83.3 1.57c.8-.03.42-1.24.6-2.24.14 1.1.2 2.2.82 2.18 1.17-.03 3.42.15 3.58.13l.14 1c-.76.1-17.6.43-18.4.35-.9-.1-7.34-.26-8.54-.18-.65.05-5.1.03-9.8 0-4.47-.02-9.07-.04-9.64 0l-.08-1c.2 0 .86-.02 1.82-.02l.38-1.8.42 1.77.5-1.2v.77l.68-.17.85.25 3.03.17.5-1.7.1 1.28.42-.68.08 1.44.5-2.03.18 1.52.42-1 .25 1.1h.76l.18-.43.25.33 1.44.1.17-1.45.17 1.6h.6v-1l.6 1.1.5-1.6.26 1.67c.58 0 1.14 0 1.64 0l-.02-1.93.46 2 .38-1.54.46 1.45.38-2.6.23 2.6.3-1 .3.92h1.6l.77-1.06.08.92.53-.76.16.7 1.14.22.46-2.37.15 2.38.3-1.76.3 1.6.84-1.37.82 1.7z"/></g><g><g transform="matrix(1.031 0 0 1.031 -112.193 -350.514)"><linearGradient x1="108.961" x2="155.453" y1="355.247" y2="355.247" gradientUnits="userSpaceOnUse"><stop offset="0" stop-color="#fff"/><stop offset=".028" stop-color="#F7F6F5"/><stop offset=".077" stop-color="#E1DED9"/><stop offset=".14" stop-color="#BDB6AC"/><stop offset=".215" stop-color="#8D806F"/><stop offset=".286" stop-color="#59462E"/><stop offset=".702" stop-color="#59462E"/><stop offset=".854" stop-color="#AFA69B"/><stop offset="1" stop-color="#fff"/></linearGradient><path fill="url(#d)" d="M137.04 354.93c-.9-.1-7.43-.27-8.63-.2-.62.06-5.23.04-9.68 0-5.4 0-9.2-.03-9.76 0l.08 1c.55-.03 5.56 0 9.6 0 4.96.04 9.17.06 9.84 0 1.18-.07 7.56.1 8.46.2.8.07 17.75-.27 18.5-.38l-.13-1c-.76.12-17.5.45-18.26.38z"/></g></g></g></svg>