<svg xmlns="http://www.w3.org/2000/svg" width="48" height="48"><defs><linearGradient id="a" x1="313.923" x2="321.06" y1="107.466" y2="116.945" gradientUnits="userSpaceOnUse" gradientTransform="matrix(1.031 0 0 1.031 -297.87 -88.664)"><stop offset="0" stop-color="#4C9C23"/><stop offset=".082" stop-color="#4C9C23"/><stop offset=".153" stop-color="#58A628"/><stop offset=".403" stop-color="#7DC438"/><stop offset=".636" stop-color="#98D944"/><stop offset=".842" stop-color="#A8E64B"/><stop offset="1" stop-color="#AEEB4D"/></linearGradient><linearGradient id="b" x1="306.041" x2="315.001" y1="95.572" y2="108.897" gradientUnits="userSpaceOnUse" gradientTransform="matrix(1.031 0 0 1.031 -297.87 -88.664)"><stop offset="0" stop-color="#74D43F"/><stop offset=".316" stop-color="#57B425"/><stop offset=".621" stop-color="#389109"/><stop offset=".781" stop-color="#458C1F"/><stop offset=".786" stop-color="#458C20"/><stop offset=".881" stop-color="#57A22F"/><stop offset="1" stop-color="#71C446"/></linearGradient><linearGradient id="c" x1="290.287" x2="333.373" y1="124.763" y2="95.928" gradientUnits="userSpaceOnUse" gradientTransform="matrix(1.031 0 0 1.031 -297.87 -88.664)"><stop offset="0" stop-color="#4C9C23"/><stop offset=".028" stop-color="#61B237"/><stop offset=".077" stop-color="#8EE361"/><stop offset=".621" stop-color="#4C9C23"/><stop offset="1" stop-color="#4C9C23"/></linearGradient><linearGradient id="d" x1="296.788" x2="310.595" y1="101.933" y2="122.465" gradientUnits="userSpaceOnUse" gradientTransform="matrix(1.031 0 0 1.031 -297.87 -88.664)"><stop offset="0" stop-color="#8EE361"/><stop offset=".489" stop-color="#4C9C23"/><stop offset=".555" stop-color="#4C9C23"/><stop offset=".715" stop-color="#61B237"/><stop offset="1" stop-color="#8EE361"/></linearGradient><linearGradient id="e" x1="305.09" x2="318.896" y1="96.35" y2="116.88" gradientUnits="userSpaceOnUse" gradientTransform="matrix(1.031 0 0 1.031 -297.87 -88.664)"><stop offset="0" stop-color="#8EE361"/><stop offset=".489" stop-color="#4C9C23"/><stop offset=".555" stop-color="#4C9C23"/><stop offset=".715" stop-color="#61B237"/><stop offset="1" stop-color="#8EE361"/></linearGradient><linearGradient id="f" x1="312.387" x2="326.194" y1="91.443" y2="111.976" gradientUnits="userSpaceOnUse" gradientTransform="matrix(1.031 0 0 1.031 -297.87 -88.664)"><stop offset="0" stop-color="#8EE361"/><stop offset=".489" stop-color="#4C9C23"/><stop offset=".555" stop-color="#4C9C23"/><stop offset=".715" stop-color="#61B237"/><stop offset="1" stop-color="#8EE361"/></linearGradient><linearGradient id="g" x1="299.414" x2="320.637" y1="114.41" y2="122.899" gradientUnits="userSpaceOnUse" gradientTransform="matrix(1.031 0 0 1.031 -297.87 -88.664)"><stop offset="0" stop-color="#8EE361"/><stop offset=".141" stop-color="#86DA5A"/><stop offset=".367" stop-color="#71C345"/><stop offset=".648" stop-color="#4E9E25"/><stop offset=".659" stop-color="#4C9C23"/></linearGradient><linearGradient id="h" x1="306.233" x2="321.572" y1="106.672" y2="113.713" gradientUnits="userSpaceOnUse" gradientTransform="matrix(1.031 0 0 1.031 -297.87 -88.664)"><stop offset="0" stop-color="#83D857"/><stop offset=".764" stop-color="#5DAE33"/></linearGradient><linearGradient id="i" x1="314.239" x2="328.041" y1="90.204" y2="110.73" gradientUnits="userSpaceOnUse" gradientTransform="matrix(1.031 0 0 1.031 -297.87 -88.664)"><stop offset="0" stop-color="#8EE361"/><stop offset=".489" stop-color="#4C9C23"/><stop offset=".555" stop-color="#4C9C23"/></linearGradient></defs><g><g fill="none" stroke="#326617" stroke-width="1.94"><path d="M5.25 34.95c1.6-2.1-4.58-13.53 6.46-21.16C21 7.36 31 10.37 35.23 10.52c4.2.15 4.97.34 10.82-.9 2-.43-.08 1.95-1.32 3.15-3.14 3.05-4.92 8.12-9.22 13.93-4.3 5.83-9.07 10-16.7 10.86-7.64.86-8.93-2-12.9-1.32"/><path d="M1.1 41.24c1.28-2.92 1.67-5.1 6-7.45 4.3-2.36 19.82-12.05 23.44-14.07 3.62-2.03 13.24-7.87 14.26-8.6 1-.72 1.5-1.93 1.95-1.44.26.28.13.64-1.62 1.8C43.4 12.63 25.9 23 23.17 24.93 20.44 26.9 11 32.22 8.4 34.28c-2.58 2.05-3.73 2.67-4.74 4.5-1 1.82-1.52 2.73-1.63 3.04-.1.3-1.27.17-.94-.58z"/></g><path fill="url(#a)" d="M7.77 34.15L44.75 11.4l1.86-1.8c.93.18-.8 2.13-1.88 3.18-3.14 3.05-4.92 8.12-9.22 13.93-4.3 5.83-9.07 10-16.7 10.86-7.64.85-8.93-2-12.9-1.33l1.87-2.08z"/><path fill="url(#b)" d="M45.2 11.22L8.8 33.18l-3.55 1.77c1.6-2.1-4.58-13.53 6.46-21.16C21 7.36 31 10.37 35.23 10.52c4.2.15 4.97.34 10.82-.9.25-.06.44-.07.57-.04l-1.4 1.62z"/><path fill="url(#c)" d="M1.1 41.24c1.28-2.92 1.67-5.1 6-7.45 4.3-2.36 19.82-12.05 23.44-14.07 3.62-2.03 13.24-7.87 14.26-8.6 1-.72 1.5-1.93 1.95-1.44.26.28.13.64-1.62 1.8C43.4 12.63 25.9 23 23.17 24.93 20.44 26.9 11 32.22 8.4 34.28c-2.58 2.05-3.73 2.67-4.74 4.5-1 1.82-1.52 2.73-1.63 3.04-.1.3-1.27.17-.94-.58z"/><path fill="url(#d)" d="M12.5 30.63c1.13-5.28-1.3-7.62.04-15.14-.73 5.85 1 9.72.63 14.73l-.68.4z"/><path fill="url(#e)" d="M21.73 25.02c1.25-3.43-.68-8.47-.28-13.92.03 4.7 1.92 10.54.8 13.6l-.52.32z"/><path fill="url(#f)" d="M30.36 19.8c1.08-4.22-.47-4.5 1.05-8.3-.98 3.66.1 5.18-.6 8.08l-.44.23z"/><path fill="url(#g)" d="M12.87 31.32c2.75 2.22 6.08 3.64 13.96 2.52-10.55.68-12.3-1.88-13.35-2.9l-.6.38z"/><path fill="url(#h)" d="M21.92 25.78c2.74 2.22 7.23 2.43 13.03.55-6.62 1.58-10.7 1-12.58-.84l-.45.28z"/><path fill="url(#i)" d="M30.55 20.32c2.76 1.18 5.47-1.74 10.28-3.3-4.08 1-8.18 4.03-9.83 3l-.45.3z"/></g></svg>