<svg xmlns="http://www.w3.org/2000/svg" width="48" height="48" xmlns:xlink="http://www.w3.org/1999/xlink"><defs><linearGradient id="c"><stop offset="0" stop-color="#78490f"/><stop offset="1" stop-color="#cd7d1a"/></linearGradient><linearGradient id="b"><stop offset="0" stop-color="#a6dd3d"/><stop offset="1" stop-color="#579e2b"/></linearGradient><linearGradient id="a"><stop offset="0" stop-color="#249f16"/><stop offset="1" stop-color="#147220"/></linearGradient><defs><path id="f" d="M25.27 28.55c.1.3.53.1.53.1s.2.23.3-.02c0 0 .07-.08.1.07 0 0 .32-.37.52-.3 0 0-.18.54.06.82 0 0 .35-.04.5.1.03-.12.24-.14.37-.5 0 0-.34-.32-.54-.34 0-.07.2-.13.2-.13s.53.24.68.1c-.2.16.04.63.04.63-.2.1-.52.57-.52.88 0 .32.02.52.02.52.3-.2.6-.54.6-.54s-.15-.7.12-.77c.05.18.1.54.1.54s.62-.17.62-.35c.23.14.72.1.72.1-.1-.12-.02-.34-.02-.34.25.05.63.4.63.4 0-.3.67-.2.67-.2 0-.26.75.08.75.08-.4 0-.1.38-.1.38-.2 0-.2.63.32.45-.38.24-.63.78-.63.78s-.04-.36-.1-.4c.24 0 .22-.34.22-.34l-.02-.2c-.34-.03-.56.3-.56.3s-.25-.06-.3 0c-.04.2.07.64.07.64-.2-.14-.4-.14-.55 0 .27 0 .58.34.58.34-.5-.02-.65.16-.65.16.25.24.56.58.77.58-.16.3-.1.52-.1.52-.2 0-.4.23-.4.23l.14.17c-.44-.14-.46.24-.46.24l-.2.1s-.34 0-.44.04c0 0 .07-.36-.07-.5 0 0-.25.14-.27.4l-.35.04c.04.32.3.43.3.43-.1.1.5.22.5.07l.12-.04.25.02.24.24s.15-.16.15.2c0 0 .14-.4-.03-.58 0 0 .2 0 .34-.14 0 0 .15.08.15.23-.05 0-.2.2-.16.26.03.05.16 0 .3-.1.16-.1.05-.2.05-.2l.18-.1s0 .1-.05.2-.13.45-.13.45.1.36.3.35c.2-.02.3-.57.26-.83l.12-.14s.2.4.32.52c0 0 .07-.25.07-.34 0-.1-.23-.33-.23-.33l.27-.07s.08.22.17.25c.1.04.4-.23.38-.3-.02-.05-.05-.2.08-.2.12 0 .03.18 0 .25-.04.06.14.26.27.3.13.03.36-.15.36-.15s0-.12.03-.18c0-.07.1 0 .1 0s.18-.22.1-.44c0 0 .22.1.5.1s.3-.18.3-.18l.02.15.23.03s0 .12.02.18c.03.06.42 0 .36-.12.1 0 .15-.14.08-.2.1-.03.12-.22.12-.22s-.15.06-.1-.12c.05-.17.15-.05.15-.05s0-.03 0-.12c0-.1.16-.06.16-.06l.03.16s-.1-.03-.13.07c-.05.1.1.13.1.13v.13l.06.03s.1.28.16.4c.08.1.27.07.27.07s.15-.26.15-.36c0-.1-.16-.28-.4-.4.17-.03.35.1.35.1l.16-.07s.02-.05-.13-.2c.06.17.33.14.4-.02-.02.06.12.24.24.27-.04.1.15.28.33.28-.04.1.14.38.34.36.04.13.43.14.55.14.12 0 .37-.54.3-.8l.1-.12s.2.03.26-.03c.3.53.72.64.8.65.1 0 .53-.28.57-.37.04-.08-.1-.13-.2-.27.1 0 .3-.2.3-.35 0 0 .24-.14.23-.3 0 0 .15 0 .22-.06 0 0 0-.4 0-.5 0-.08-.1-.08-.2-.13 0 0 .14-.06.14-.16 0 0 .3-.04.48-.06 0 0-.3-.43-.4-.45-.1-.03-.2-.04-.35.02 0 0 .3-.6.25-.84 0 0 .1-.04.2.07 0 0 .16-.03.12-.23 0 0 .53.25.7.26-.16-.4-.56-.68-.58-.7-.02-.03-.57-.05-.85-.03.14-.1.05-.42-.03-.65 0 0 .12 0 .3.06.1-.1.23-.56.08-.77.17 0 .28-.02.4-.14 0 0 .06.12.22.17 0 0 .18-.32.2-.43 0-.1-.16-.3-.5-.52 0 0 .2 0 .3.1 0 0 .07-.2-.06-.3 0 .02.16-.07.23-.2.1.24.5.2.5.2s-.1-.33-.33-.37c0 0 .42-.37.64-.63l.12.17s.26-.13.38-.33c0 0 .08.08.22.16 0 0 .03-.12 0-.24l.2-.04s.06-.2-.02-.36l.3-.2v-.3l-.26-.1s-.2.05-.3.2l-.12.05c-.03-.28-.4-.5-.76-.47 0 0 .4.25.56.45 0 0-.08-.12-.36-.14-.3 0-.33.32-.2.52 0 0-.37-.12-.47 0l.22.2s.18.04.3.24c0 0-.43-.25-.56-.1 0 0-.2-.2-.45-.14 0 0 .06-.1.18-.1-.03-.05-.1-.22-.45-.1 0 0-.1-.36-.27-.35 0 0-.1.03-.18.14-.1-.48-.64-.6-.9-.53-.03-.25-.37-.53-.62-.53 0 0 0-.18-.1-.25l.12-.03s.33.25.52.24v-.28l.02-.1s.15.13.25.14c.1.02.56-.2.5-.36-.03-.16-.45-.23-.6.08 0 0-.1-.4-.26-.4.2-.1.1-.32-.02-.46.1-.04.07-.1.02-.14l.2-.14c.28-.2.14-.27.04-.26l.07-.17s.04.1.3.1c.23 0 .4-.1.4-.28 0-.17-.34-.3-.58-.07 0 0 0-.42-.07-.6 0 0 .14-.23.18-.32 0 0 .28-.06.25-.28.12 0 .64-.28.53-.7.25.12.37-.16.37-.26.16.04.37-.25.17-.42 0 0 .18-.06.4-.2.2-.14.35-.12.53-.06-.1-.17-.34-.23-.55-.08 0 0-.23-.2-.4-.1-.02 0-.24-.1-.26-.22-.02-.1.07-.23.08-.3 0 0 .47.3.67.37-.13-.46-.28-.6-.6-.54l.17-.16s.17 0 .37-.18c.2-.18.13-.36-.16-.34 0 0 .3-.4.17-.67 0 0-.37.15-.45.42-.06-.24-.54-.37-.72-.27 0 0 .2.08.3.25 0 0-.2.16-.18.3 0 0-.1-.07-.17-.02 0 0 .2-.44-.15-.46 0 0-.12-.33-.4-.28l.02-.1c.2.05.4-.22.3-.3 0 0 .2-.14.37-.33 0 0-.42.07-.52.32 0 0-.2-.25-.4-.25 0 0 .63-.55.4-.7.07-.04.05-.28-.17-.35 0 0 .53-.28.53-.43.1.16.46.12.66.03 0 0-.16-.13-.38-.16 0 0 .4-.06.83.02 0 0-.12-.12-.2-.2l.15-.06s-.58-.23-.73-.1c0 0-.13-.16-.3-.1.12-.12.04-.5-.12-.54 0 0 .15-.14.1-.28.02-.1.37 0 .67.07 0-.18-.43-.47-.43-.47s-.4-.15-.45.14c0 0-.28-.08-.24.32 0 0-.17-.26-.42-.14 0 0 .3-.4 0-.34 0 0 .1-.2 0-.37 0 0-.3.14-.43.4 0 0-.22-.23-.4-.22 0 0-.02.3.25.57-.47-.2-.32.56-.14.9 0 0-.27-.04-.36.2 0 0-.13-.2-.36.06-.23.27-.32-.06-.22-.1.03 0 .4-.02.47-.24.08-.22-.12-.27-.26-.22 0 0 .1-.2.3-.16 0 0-.13-.16-.27-.14l.13-.14c-.2-.24-.45-.2-.57.12-.05-.1-.3-.1-.38.05 0 0-.26-.08-.54.1 0 0 .25-.27.3-.34 0 0-.2-.1-.4 0 0-.08-.16-.36-.37-.33.4-.36.47-.93.24-1.06.28-.1.16-.32 0-.38.33-.1.4-.3.36-.38.37-.12.72.32.78.52.1-.33-.2-.68-.65-.66 0 0 .43-.37.28-.4 0 0 .27-.14.27-.26 0 0 .35-.33.56-.62 0 0-.5.2-.53.4 0 0-.08-.08-.12-.04 0-.46-.14-.55-.32-.66 0 0-.04.25.1.48 0 0-.3-.06-.42 0l.17-.2-.2-.07s-.4.2-.28.46c0 0-.32-.16-.48 0 .06-.1-.25-.4-.4-.23 0 0 0-.27-.12-.33 0 0 .14-.12.25-.2.12-.1-.08-.27-.1-.18-.02.08-.27.07-.25-.13.02-.2.3-.03.47.2.04-.08 0-.5-.14-.68.13-.06.37.1.43.07.08-.03-.07-.15-.22-.2.15 0 .28-.4.14-.47.15-.45.43-.16.48 0 .14-.4-.3-.6-.62-.54 0 0 .2-.36-.18-.35l-.14.06.07-.12.17-.22s-.34-.37-.44-.26c0 0-.46-.05-.63.2 0 0-.55.08-.6.23 0 0-.24-.3-.2-.58l.3-.4s.25.03.32.15c0 0 .22-.22.4-.12 0 0-.33-.25-.42-.25 0 0 .05-.17.3-.1 0 0-.25-.3-.38-.2 0 0-.05-.1-.07-.23-.02-.13-.14-.05-.14-.05l-.13-.12s-.26.2-.26.37l-.14-.2s-.22 0-.24.23c0 0-.27-.12-.37 0-.37-.24-.5.08-.6.13.02 0 .02-.17-.12-.22-.33-.12-.64.44-.58.63 0 0-.45.1-.5.45 0 0 0-.13-.2-.24-.22-.12-.33.17-.33.17s-.06-.3-.33-.23c0 0-.3-.43-.53-.4 0 0 .44-.4.62-.38 0 0-.16-.44-.56-.4 0 0 .18-.27.35-.14 0 0-.45-.35-.57-.23l-.5-.3s-.55.1-.7.43l-.18-.26s-.02-.4-.43-.6c0 0-.18.94-.33.96-.5-.25-.32-.9-.1-1.12-.2-.07-.4.26-.4.26s-.12.33-.38.3c0 0-.1.66-.17.87 0 0-.1-.15-.44-.3 0 0 0 .3-.2.3 0 0 .14.13-.02.34 0 0 .54 0 .7.13l-.1.27c.1-.05.42.1.55.36l-.25.2c-.23-.07-.46.13-.44.2.18-.02.4.4.4.4s0 .17-.22.14c0 0 .35.05.46.33-.23-.13-.64-.13-.82.13 0 0 .26-.18.03-.36-.24-.17-.55-.28-.65.03-.2-.26-.5-.15-.73-.15.12.1-.2.68-.26.83 0 0-.25-.2-.5-.4 0 0-.14.15-.14.4 0 0-.22-.1-.27-.3-.26 0-.5.3-.5.66 0 0-.55-.22-.55-.52l-.36.1s.07-.24.4-.37c0 0-.57.08-.74 0 .14.14-.1.2-.1.2l-.23-.23-.1.24-.34-.02.03.2S20.3 6.9 20 7c0 0 .16.2 0 .38 0 0-.42 0-.25.3 0 0-.5.18-.68.45.3-.24.68.17.85.4 0 0-.48-.23-.64.1 0 0-.28.1-.07.34 0 0-.26-.03-.5-.13 0 0-.13.17 0 .44 0 0-.3-.27-.47-.44 0 0-.24.17-.24.27 0 0-.42-.16-.48-.4 0 0-.48 0-.48.17 0 0-.6-.27-.7-.6 0 0-.75-.2-.65.06 0 0-.66 0-.76.34.34-.14.68.13 1 .3l-.66.4s-.3.08-.68.08c0 0 .58.3.58.44 0 0 .3-.15.44-.12l.44-.6s.64-.2.94.13c0 0 .75 0 .95.32 0 0 .65-.2.95.03 0 0-.44.1-.44.37-.3 0-.68.54-.7 1.22-.45-.27-.45-.78-.42-1.22 0 0-.44.07-.47.48-.27-.07-.44-.82-.04-.95-.5-.2-.74.37-.74.37s-.14.27-.38.4c0 0-.17-.43-.48-.26 0 0 .24.84-.2 1.25.27-.13.48-.03.68.24.13-.27.6-.27.57-.03 0 0 .33.35.23.8 0 0-.6.1-.6.6-.62-.24-.9.2-1 .74 0 0 .48-.23.76-.07l-.52.55s-.1.6.03.8c-.53-.13-1.1.4-.94.65-1.05-.3-1.2.5-.47.78 0 0-.72.03-1.03.34 0 0 .48.1.82.53 0 0-.35.07-.66.24 0 0 .7.23.75.37 0 0 .36-.6.53-.5.1-.38.95-.9 1.5-.65 0 0-.2-1.06.02-.86 0 0 .34-.64.48-.34l.16-.4c0-.3.4-.6.67-.54-.44-.3-.03-1.02-.03-1.02.57-.24.84.07.84.07 0-.53.6-.8.6-.8.15-.3 1.06.33 1.06.33.1-.6.48-.9.48-.9-.48-.08-.75-.42-.75-.42.14-.16.34-.16.34-.16-.3-.3 0-.7 0-.7.55.16.82.4.82.4.2-.34.85-.14.88.2.32-.24.4-.1.4-.1-.16.27-.13.88-.13.88-.25-.13-.66.17-.66.17.24.15-.4.07-.47.2.17.2.3.53.3.53-.13.15-.28.15-.28.15.15.08.03.4.03.4.27-.14.8.4.8.4.1-.16.67-.1.82.1-.02-.36.13-.72.13-.72h.18c.04-.33.16-.33.16-.33.15.28.05.77.05.77s-.1.78-.24.86c.33-.1 1-.15 1-.15 0-.17.35-.68.35-.68l.2.03s0 .38 0 .53c-.1-.03-.2.33-.2.33.16-.04.36.08.36.08 0-.25.44-.25.44-.25-.03-.18.23-.48.53-.43.05-.13.15-.26.15-.26h.56c0-.28.44-.1.44-.1s.2-.46.6-.25l-.07.17c.24-.13.77.15.77.15-.33-.33-.15-.56-.15-.56-.18-.03-.43-.33-.43-.33 0 .2-.4.18-.4.18l-.12-.17c.2.08.62-.28.62-.28.02.1.07.24.2.38 0 0 .16-.13.3-.13.15 0 .2.2.2.42 0 0 .14 0 .24.07l.04-.15c.12-.05.27.27.27.27-.17.1-.4.33-.4.33.3-.12.42 0 .42 0 0-.16.3-.38.3-.38-.16-.07.25-.38.54-.34.3.05.13.32.13.32.28 0 .16.16.16.16-.32.04-.4.54-.4.54.25-.07.5-.02.5-.02.1-.3.66-.2.66-.2 0 .24-.57.84-.57.84-.16 0-.23.4-.23.4.17-.04.55.2.55.2.14-.2.22-.24.22-.48s.35-.55.7-.47c.13-.02.23-.02.23-.02-.12.4-.8.84-.9 1 .08.13.23.34-.35.6-.04.12-.1.24-.1.24-.16-.2-.54-.38-.54-.38-.17-.2-.05-.36-.05-.36-.12 0-.22-.16-.45-.02-.24.14-.5.3-.5.3.2 0 .23.15.23.15.23-.18.5.08.5.2 0 .13 0 .3 0 .3 0 .14-.23.25-.23.25.1.06.22.08.35-.04-.07.12.1.34.3.46-.05.02-.22.14-.16.4-.07-.06-.43.03-.6 0 .04.08.02.28.3.58-.18.02-.33.12-.45.26-.1.13-.07.42 0 .6 0 0-.12.02-.23.07-.17-.13-.52-.06-.5.34.05-.04.35-.04.35-.04s.05.12.15.07c-.32.2-.15.52.1.6 0 0-.3 0-.38.2-.18-.07-.7 0-.74.42l-.22.17c-.27-.07-.46.28-.4.44-.04 0-.06.15-.06.15s-.15-.14-.22-.2c-.07-.05-.05-.4-.05-.4l-.48-.32c0-.2 0-.56.12-.68.33-.28-.2-.86-.12-1 .12.06.17.02.14-.07-.15-.45-.3-.76.06-.28.16-.13.16-.32.12-.93.15-.3-.1-.6-.25-.63 0 0-.47 0-.96.13 0-.3.6-.18.6-.18s-.2-.3-.5-.2c0-.07.14-.4.14-.4l-.13-.15s-.3-.04-.72.23c0 0 .2-.34.5-.5 0 0-.37-.22-.78.14 0 0-.1-.23.12-.36 0 0-.34-.06-.52.2 0 0-.6-.26-.73-.06 0 0-.7.16-.74-.04-.04-.2-.95-.43-1.13-.16-.4-.45-1.06-.18-1.1.1.43 0 .6.37.58.64.4 0 .57.32.7.82-.06-.18-.56-.5-.83-.5-.27 0-.45.27-.45.38 0 0-.45.25-.6.6 0 0-.24-.2-.4-.26 0 0-.45.14-.45.34.07-.05.55-.1.55-.1.38.1.04.42.04.42-.1.13-.28-.03-.28-.03l-.25.1c.1.27-.02.7-.15.83 0 0-.3-.27-.5-.6-.07.17-.6.24-.6.24.28.04.78.72.73.88-.04.16-.25.54-.25.54l-.73.57c.55-.34.95-.66 1.42-.32.13-.07.64.44.64.44-.14-.58.34-1.15.34-1.15.13.3.13.88.13.88.25-.24.76-.65 1.03-.6.27.02.5.36.47.83.17-.17.54.07.54.07 0-.64.65-1.02.65-1.02-.15.34-.08.92-.08.92.37-.07 1.05.37 1.05.47-.85-.2-.7.34-.92.5-.2.18-.5 0-.5 0 0 .35-.6 1-.6 1-.42-.25-.9-.18-.9-.18.28.34-.3.8-.3.8-.27-.4-.27-.73-.27-.73s-.7-.26-.9-.1l.2.35c-.25.02-.73-.14-.73-.14l-.1.12c.26.07.2.3.2.3l-.2.02c.35.14-.17.43-.17.43.54.16-.57.97-.57.97-.17-.23-.62-.2-.62-.2-.3-.34-.74.02-.72.2.27-.32.63 0 .63 0 .2.02.15.25.15.25-.27-.17-.43.62-.43.62.34 0 .32.52.32.52-.15 0-.16.25-.2.38 0 0 .12.13.1.38 0 0-.24.23-.3.23-.24-.1-.3-.5-.1-.63 0 0-.42-.4-.37-.64 0 0-.33-.12-.4-.25 0 0-.5.2-.66.4.54 0 .46.22.46.7 0 0-.5-.33-.83-.1 0 0-.23.35-.1.66l.32.05c.3-.22.54 0 .6.24.72-.6.75.38.75.25-.2-.3-.46-.06-.46-.06s-.48.08-.56.33c0 0-.43-.25-.43-.5 0 0-.5-.03-.66.25.32-.16.63.17.83.4 0 0 .5 0 .73.18 0 0-.35.38-.3.58 0 0-.23 0-.53-.15 0 0 .2.4-.13.43 0 0 .3.13.4.26 0 0 0 .28-.2.25 0 0-.4.15-.45.3 0 0 .25.1.17.33 0 0 .33-.1.44 0 0 0 .05.15-.18.38 0 0 .4 0 .55.26 0 0-.25.1-.22.43 0 0-.37 0-.42.13 0 0-.6-.26-.66.05 0 0 0 .53-.26.86l-.53-.64.1-.26c-.12-.14-.4.2-.4.2-.2-.04-.2-.4-.2-.4l-.2-.25s.07.2-.04.3c.3.26.1.48.1.48.22.24.17.66.17.66-.22-.26-.33-.62-.33-.62-.2 0-.2-.22-.2-.22-.2.16-.7-.16-.7-.16.18.02.4-.3.4-.3-.17.27-.66.16-.66.16-.22.1-.72-.1-.83-.36.1.25-.22.72-.55.52v.02c.07.06.16.1.3.1l-.1.17c.28 0 .33.25.76 0s.62.02.62.02c-.13.13-.2.24-.2.24.15 0 .56.34.72.23-.16.5-.04.8.45.85.03.28.3.6.74.48-.06.3.16.35.16.35-.03.4.42.83.6.73.2-.1.24-.47.16-.58.27.17.7.06.52-.4.08.05.18.27.18.27.23-.22.28-.6.14-.75.18.04.35-.23.44-.2.15.2.64.35.85-.07-.05-.06-.18-.18-.18-.18l-.23-.06c.16-.16.07-.4.07-.4-.1-.06-.22-.18-.22-.18.26.06.35-.08.35-.08l.14.12c.07.14.34.1.34.1-.04-.5.2-.95.48-.95 0-.22.05-.62.5-.52 0-.25.24-.34.24-.34s.5-.04.57.08l.04-.17c-.13-.34-.62-.56-.8-.5l-.12-.26c.1-.34.84-.14.84-.05 0-.25.35-.25.35-.25-.36-.15-.68-.67-.68-.67.22.12.87.1.87.1-.5-.2-.4-.4-.4-.4l-.28-.44c.17.14 1.1.74 1.1.74l.28-.14s-.3-.1-.3-.26c-.2.05-.56-.12-.56-.12-.32-.22-.18-.7-.18-.7-.14-.12-.32-.34-.32-.34 0 .2-.24.4-.24.4s-.32-.15-.38-.28c-.05-.12-.14-.6.22-.68.3-.1.56.54.56.54.05-.27.2-.68.2-.68h.28s.1.3.1.52c.16.14-.15.48-.15.48.18 0 .2.27.2.27.1-.42.54-.46.7-.44.16.02.38.36.38.6 0 .2-.24.55-.33.55-.1.17.32.2.4.2.2-.3.9-.5 1.07-.44.25.02.07.43.07.43.2 0 .73.12.73.12-.04-.27 0-.45 0-.45.27-.04.77.25.77.25.1-.34.43-.36.6-.25.4-.18.73-.56 1.48-.2l-.18.18.3-.1s.36.03.62.03c0 0-.28.28-.15.57"/></defs><radialGradient id="g" cx="39.94" cy="33.749" r="16.566" xlink:href="#a" fx="39.94" fy="33.749" gradientTransform="matrix(-.006 -1.595 1.682 -.006 -16.596 96.945)" gradientUnits="userSpaceOnUse"/><radialGradient id="d" cx="10.899" cy="7.511" r="18.346" xlink:href="#b" fx="10.899" fy="7.511" gradientTransform="matrix(-1.304 .023 -.026 -1.466 25.301 18.6)" gradientUnits="userSpaceOnUse"/><linearGradient id="e" x1="23.642" x2="23.819" y1="27.956" y2="46.391" xlink:href="#c" gradientUnits="userSpaceOnUse"/></defs><g><path fill="#72ba28" d="M25.64 43.3c.13.02.1.2.1.33.1-.06.17-.3.23-.1"/><path fill="#72ba28" d="M20.82 43.85c-.1.03-.1.1-.22.1"/><path fill="#72ba28" d="M20.82 43.85c.12-.02.06-.1 0-.1"/><path fill="#72ba28" d="M20.6 43.96c-.08.43.54.07.66 0-.15-.27-.33.2-.44-.1"/><path fill="#72ba28" d="M16.66 46.15c.26.05.23-.2.54-.1.02.3-.32.25-.32.54-.1-.08-.2-.14-.22 0-.3-.04.15-.2 0-.45"/><path fill="#72ba28" d="M28.97 47.56c.2.2.27.02.55 0-.05.3-.34.32-.55.44v-.44z"/><path fill="#72ba28" d="M27.1 47.12c.08-.24.76.4.88.1.34.18-.08.5-.32.45.2-.37.06-.26-.33-.22-.1-.08-.07-.3-.22-.33"/><path fill="#72ba28" d="M27.55 45.92c.1.03.07.22.2.22-.05.33-.23.56-.64.55-.02-.43.52-.3.45-.78"/><path fill="#72ba28" d="M19.6 45.5c.77-.13.28.38.9.1-.04.6-.46.1-.78.33-.02-.1.04-.1.1-.1-.06-.1-.24-.12-.2-.33"/><path fill="#72ba28" d="M28.2 47.12v-.43c.25.3.56.25.44-.34.37.46.34-.16.88-.1-.18.36-.85.45-.55.97-.33-.02-.37.4-.65.1.15-.15.34-.22-.12-.2"/><path fill="#72ba28" d="M26.78 45.26c.15.14.25.42.1.55-.15-.1-.34-.15-.32-.43.13.02.2-.02.22-.1"/><path fill="#72ba28" d="M26.78 45.92c.1.1.06.3.22.33-.23.24-.66.28-1.1.1.13-.13.3-.2.22-.54.4.05.27.3.66.12"/><path fill="#72ba28" d="M24.37 45.8c.02-.1.1-.05.1 0 .32.1.3-.15.56-.1-.36-.14-.1-.48.33-.44-.07.45.32-.05.65.1-.07.36-.28.15-.54.12.5.3-.13.5.44.66-.06.1-.13.2 0 .22-.4.32-.76 0-1.1.33.17-.27.24-.22.12-.56.3.3.4-.14.65-.22.04-.25-.3-.12-.33-.33-.2.14-.3.4-.65.43-.06-.1-.1-.2-.23-.22"/><path fill="#72ba28" d="M15.34 45.06c.25-.33.8-.12.88.33-.22-.05-.34 0-.33.2-.25-.2-.8-.07-1.2-.1.2-.23.5-.4.86-.22.1-.02.1-.1.22-.1-.1-.33-.16-.14-.44-.12"/><path fill="#72ba28" d="M20.82 44.84c-.33-.08-.32.2-.66.1.28-.18.08-.17.22-.43.32.1.36.33.55.12.27.27 0 .96-.33.98 0-.33.35-.3.22-.76"/><path fill="#72ba28" d="M19.3 44.62c.24.44.17-.1.53-.1 0 .52-.68.6-.43 1.1-.24.04-.2-.17-.22-.34-.18-.03-.2.1-.33.1.07.12.25.12.22.34-.36-.2-.7.1-1 0 .1-.2.35-.25.67-.22-.9-.23.02-.66 0-.22.38.08.35-.63.55-.1.3-.1-.08-.37 0-.56"/><path fill="#72ba28" d="M21.91 44.4c-.2-.07.13-.17.12 0 .2-.3.3-.05.66-.22.13.46-.46.2-.55.44-.1-.03-.07-.2-.2-.22"/><path fill="#72ba28" d="M28.74 45.04c.35-.57 1.03-.34 1.53-.33-.34.5-1.2 0-1.53.34"/><path fill="#72ba28" d="M28.63 44.93c-.26-.23-.37.28-.88.1 0 .34.4.28.33.67-.06-.4-.65-.27-.77-.33-.08.1 1-1.02 1-.55.16-.16.16-.5.55-.44-.05.2-.32.2-.22.55"/><path fill="#72ba28" d="M25.3 44.84c-.27 0-.12-.08-.1-.22-.2-.03-.6.35-.55-.1.3.17.63-.22.66.32"/><path fill="#72ba28" d="M22.13 43.96c.4-.22.65.12 1.1-.1.16.25.23.2.1.54.23-.1.18-.48.56-.44-.07.27-.27.4-.45.55.16.15.5-.23.77.12.1 0 .08-.13.1-.22-.04-.16-.14.05-.32 0 .57-.63.3.47.87.44-.18.5-1.68-.45-1.53.1-.06.27-.3-.26-.1-.32-.32-.1-.3.16-.56.1.04-.28.45-.18.55-.65.02-.1-.04-.1-.1-.1-.17.47-.36.1-1 0"/><path fill="#72ba28" d="M18.63 43.85c.16.07-.2.52-.44.55.02-.07.26-.42 0-.44.02-.38.4.28.43-.1"/><path fill="#72ba28" d="M30.57 43.63c.03-.12.22-.07.22-.22.25.08-.23.48.2.45-.2.34.15.57-.1.88-.13-.34-.17-.27-.1-.88-.25-.07-.36.3-.34-.1.26.1.5-.16.1-.12"/><path fill="#72ba28" d="M34.19 44.07c-.08.1-.32.17-.12.22-.1.17-.5.07-.55.32.2.26.5-.3.87-.22 0-.3-.18-.22 0-.44"/><path fill="#72ba28" d="M33.2 44.07c-.13.15-.04.17 0 .33.2-.27.47-.18.66-.33"/><path fill="#72ba28" d="M31.88 43.74c.26-.03.2-.38.55-.33 0 .12-.13.1-.22.12-.02.18.12.2.12.33.13.02.2-.02.22-.1"/><path fill="#72ba28" d="M31 43.1c.2.2-.05.2 0 .53.1.17.17-.02.45.1"/><path fill="#72ba28" d="M30.68 43.1c-.73-.16-.65 0-.44.53.1-.07.17-.2.22-.32"/><path fill="#72ba28" d="M28.82 43.3c.4.56.3.4.87.66.14-.1.2-.3.43-.33-.06-.15-.17-.26-.33-.32"/><path fill="#72ba28" d="M27.72 43.52c0 .1.13.1.22.1-.04-.24.44-.1.22-.53l.1-.02"/><path fill="#72ba28" d="M26.63 43.63c.2 0 .14.3.43.22 0-.1-.13-.08-.22-.1.03-.16.33-.04.33-.23"/><path fill="#72ba28" d="M26.63 43.96c-.02.1-.02.66-.22.77.52.3.5-.85.23-1"/><path fill="#72ba28" d="M26.08 43.74c.12.33-.43.48-.66.77.2.12.22.38.44.45.1-.14-.14-.18-.1-.55.2 0 .22-.13.43-.1-.63.54.6.05 0-.12 0-.4.35.23.32-.1"/><path fill="#72ba28" d="M25.53 43.52c-.05.13-.78.28-.22.33-.1.16-.08.43-.43.33.1.32.36-.06.55 0-.24-.15.14-.26-.1-.33.07-.28.62.27.65-.22"/><path fill="#72ba28" d="M24.22 43.52c.3.1-.34.25 0 .44.12-.02.1-.2.1-.33.16.04.1.28.1.44.2.03.2-.1.34-.1.17-.05-.04-.15 0-.34.27.05.24-.2.55-.1"/><path fill="#72ba28" d="M20.5 43.74c-.03-.15-.34-.03-.34-.22"/><path fill="#72ba28" d="M20.82 43.74c-.15.14-.17.05-.33 0"/><path fill="#72ba28" d="M19.72 43.41c-.02.1-.1.12-.1.23-.1-.02-.1.05-.1.1-.17-.03 0-.08 0-.2-.78.16-.1.45-.12.76.43-.04-.13-.4.33-.34-.12.4.23.36.32.55.17-.04-.04-.13 0-.32.5.3.46.06 1.1.1.26-.02.06-.5.44-.43-.12-.14-.38-.14-.45-.33-.15.27-.22.07-.33.22"/><path fill="#72ba28" d="M17.86 43.63c.23-.27.45.37.77 0"/><path fill="#72ba28" d="M18.63 43.63c-.3-.18-.62-.48-.77 0"/><path fill="#72ba28" d="M19.72 43.41c-.38-.06-.63.1-1.1.23"/><path fill="#72ba28" d="M25.97 43.63v-.1"/><path fill="#72ba28" d="M26.08 43.74c.02-.1-.04-.1-.1-.1"/><path fill="#72ba28" d="M26.52 44.07c.04-.3-.4-.1-.44-.33"/><path fill="#72ba28" d="M26.63 43.96c0 .1-.04.1-.1.1"/><path fill="#72ba28" d="M26.63 43.74v.22"/><path fill="#72ba28" d="M26.63 43.63v.1"/><path fill="#72ba28" d="M26.84 43.1c-.22 0-.02.47-.2.53"/><path fill="#72ba28" d="M31.45 43.74c.16-.3-.16-.5.32-.55-.4-.4-.33.3-.76-.1"/><path fill="#72ba28" d="M31.88 43.74c-.16-.13-.27-.13-.43 0"/><path fill="#72ba28" d="M31.77 43.52c.02.1.1.1.1.22"/><path fill="#72ba28" d="M32.54 43.74c-.6-.27.7-.32.22-.76"/><path fill="#72ba28" d="M33.2 44.07c-.1-.1-.12-.24-.1-.44-.32-.1-.3.16-.56.1"/><path fill="#72ba28" d="M33.86 44.07c-.3-.13-.28-.05-.66 0"/><path fill="#72ba28" d="M34.19 44.07h-.34"/><path fill="#72ba28" d="M34.4 43.96c-.08.02-.1.1-.22.1"/><path fill="none" stroke="#653f10" stroke-width="1.5" d="M28.73 29.98c1.47-1.03-.25-.24-.8-.24"/><path fill="none" stroke="#653f10" stroke-width="1.5" d="M29.14 30.08c.74-.48 2.1-1.5.58-.52-.25.16-.5.3-.75.47"/><path fill="none" stroke="#653f10" stroke-width="1.25" d="M21.86 30.28c.12.1.67.53.7.64.04.12-.02 1.45-.02 1.53 0 .07-.04.35-.04.45 0 .1-.9-.26-1.03-.38-.1-.1-.38-.42-.48-.44-.1 0-.64-.38-.7-.44-.08-.07-.1-.3-.2-.52l-.05-.52-.17.3c.04.1.13.63.16.7.04.1.46.48.46.48s-.06.12-.18.18c-.1.05-.92 0-1.26-.04-.34-.04-1.2-.3-1.35-.36-.14-.04-.77-.53-1.02-.73l-.2.33c.26.12 1.04.67 1.04.67s.83.23.98.3c.14.1.9.15 1 .18.1.03 1.14-.1 1.5.05.38.15 1.4.88 1.45 1.07.07.2.12 1.1.12 1.18 0 .06-.58-.17-.63-.22-.06-.04-.2-.4-.2-.43 0-.03-.13-.16-.2-.3-.04-.17-.3-.86-.35-1.14l-.25.13s.57 1.46.57 1.54c0 .08-.43-.02-.72-.12-.3-.1-.86-.26-1.2-.4l-.3.27c.46.08.83.4 1.32.42.48.02.9.3 1 .32.1.04.83.38.95.48.1.1.08.5.08 1.16 0 .66-.12 2.64-.1 3.33 0 .7-.26 2.8-.26 3.04 0 .24.13 1.8.2 3.12l-.12.54.27.36 1.27-.36.72-.36.45.1-.4-1.66c-.15-.9-.13-4.2-.13-4.28 0-.1.06-.4.06-.47 0-.05-.1-.17-.1-.22-.28-2.96 0-3.96.12-4.17.37-.17 1.35-.84 1.42-.84.07 0 1.95-.15 2.1-.22.2-.08.63-.2.63-.2s.04-.2 0-.23c-.02-.05-.14 0-.14-.05 0-.04.5-.63.64-.74.16-.1.87-.8.87-.8l1.88-.23-.13-.2-1.9.32c-.2.2-1.15 1.05-1.2 1.05-.07 0 .23-.7.26-.8l.28-.17-.06-.07-.14-.1s-.14-.94-.14-1.1c0-.14-.05-.65-.03-.72 0-.08.14-.4.14-.4l-.17-.05s-.13.18-.2.24c-.08.05-.25-.1-.25-.1l-.45-.24-.4.02.77.43.27.2.18 1.9c-.04.14-.5 1.55-.6 1.6-.08.07-1.3.17-1.48.12-.2-.04-1.02.13-1.07.15-.04 0-1.06.72-1.14.7-.1 0-.18-.1-.2-.38 0-.28-.1-2.05 0-2.3.1-.24.7-.83.78-.93.1-.1.43-.33.6-.48.17-.16.6-.75.98-.77.38-.02 1.8-.18 1.97-.22 0 0-.47-.27-.8-.24-.32.03-.7-.02-.8-.02-.1 0-.83.17-.9.22-.07.04-.54.55-.68.63-.14.1-.72.54-.92.67 0 0-.2.1-.26-.1-.05-.18 0-1.2 0-1.2s.24-.57.36-.7c0 0 .27-.2.34-.2.08 0 .56.35.7.46l.1-.15s-.2-.15-.2-.26c0-.12.23-.18.23-.18l.63-.1.53.1v-.2l-.94-.12s-1.33.2-1.48.15c-.15-.05-2.1.37-2.1.37l.05.93c-.08-.02-.53-.25-.53-.25l-.3-.25-.3.22.4.5z"/><path fill="none" stroke="#104c22" stroke-width="1.25" d="M21.1 5.77z"/><path fill="none" stroke="#104c22" stroke-width="1.25" d="M21.45 5.14z"/><path fill="none" stroke="#104c22" stroke-width="1.25" d="M40.92 24.44z"/><path fill="none" stroke="#104c22" stroke-width="1.25" d="M20.43 33.75z"/><path fill="none" stroke="#104c22" stroke-width="1.25" d="M7.8 27.79c.16.03.1.02 0-.02z"/><path fill="none" stroke="#104c22" stroke-width="1.25" d="M41.82 24.32c-1.44-.76-1.6 1.57-2.93.3-.93-.3-1.8-1.24-.8-1.67-1.1-1.05.6-1.67.23-2.9.56-.7 2.17-1.7 1.14-2.27.67.52.56-2.3-.67-1.32-.7.48-.2-1.32-.7-1.54.2-1.08 2.2-1.15.53-1.98.12-.6.92-.65-.2-.64-.97-.12-1.38-.65-1.58.8-.36 1.26-.62-.9-1.7-.6-1.3-.36 0-2.5.58-1.75-.74-.5 1.2-2.24-.53-1.58-1.97.54-1.07-1.37-.66-2.27-.2-.94-.03-2.34-1.36-2.5-.7-1.58-2.8-.05-3.67-.92.83-1.68-2.28.15-2.15-1.8-.63-1.2-.3.97-1.3.1-.97-.04-1.7-.87-2.15.38-1.3-.23-1.34.5-.24.94.7.93-1.22 2.22-1.2.67-1.3.2-.96 2.56-2.34 1.32-1.1-.62-2.16-1.67-3.28-2.33-1.04.63-2.3.6-1.78 1.74-1.04 1.08-1.38-.2-2.5.86-.53.8-2.4-.82-1.88.73.23.84-.32 1.23.64 1.32-.16.5-1.33 1.32-.08 1.34-.6 1.16 2 2.78-.35 2.55-1.02-.1.05.23-.4.8.86.63.26.97-.44 1.02 1.13 1.28-1.4 0-.3 1.25-.06.53-2.36 1.65-1 2 1.08-.83-.8 1.93.67 1.63-.73 1.3-2.2 2.4-3.43 1.33-.12.5-.5.8-.62.86.6.7 2.5 1.52.9 2.38.65 1.12 0 1.58.56 2.7-.1.75.7 1.77 1.06.93.54.36.5 1.78-.3 1-.64 1.15 1.1 1.27.96 2.56-2.03.02.55 1.97 1.6 2.15 1.28 1.02 2.43 3.55 4.02 1.18.28-1.7 2.3-.5 1.66.6-1.27.3 1.77.6 1.7 1.66.64 1.73 4.43.4 2.35-.72-.53-2.32 2.5-1.3 3.83-1.25.9-1.1-1.24-5.22 1.6-4.7.77 1.32 1.45-1.3 1.42.5-.5 1.38.04.98.66.28 1.08-.08 3.42-.78 3.1 1.06-.38.38-.67-1-1.12.2-.65 1.03.87 2.5-1.12 2.5-1.6.66 1.5.37 1.63.87-.1 1.25.65-1.26.78.04.37-1.36 2.5-.57 3.4-1.54.67 1.46.23-1.15 1.34.2.8 1.03 1.6-.16 1.96-.1 1.95.75 1.7-2.38 2-3 1.6-.4-1.77-.75-.23-1.82.38-1.63 2.08-2.05 2.67-3.52zm-13.78-6.67c-1.36.67-.98 4.28-3.08 3.06-.82-1.27-.16-5.53 1.9-4 .47.56 1.63-.2 1.18.95z"/><path fill="none" stroke="#104c22" stroke-width="1.25" d="M34.83 32.43c-.13-.14-.06-.07 0 0z"/><path fill="none" stroke="#104c22" stroke-width="1.25" d="M21.64 32.64c0-1.36-2.33.06-2.26.56.34-1.36-1.3.93-.98-.72.4-1.04-1.48-1 .02-1.17.25-1.64 3.57 1.26 3.6-.97-.12-1.52 1.3.07.85.94.04.86-.15 3.05-1.23 1.37z"/><path fill="none" stroke="#104c22" stroke-width="1.25" d="M23.44 31.6c.87-.44 2.3 2.08 2.15.02-.16-1.06 1.73.7.9-.37-1.26-1.74 2.7.07.9 1.4-.16 1.42-1.68 1.05-2.1 2.08-.04-.76-1.15-2.34-.94-.63-.26-.56-1.24-1.56-1.66-.4-2.32-.27.18-1.44.74-2.1z"/><path fill="url(#d)" d="M41.82 24.32l-.26-.1s-.2.06-.3.2l-.12.06c-.03-.3-.4-.52-.76-.48 0 0 .37.24.54.43 0 .02.02.03.02.03s0-.02-.02-.03c-.04-.03-.13-.1-.34-.12-.3 0-.32.33-.2.52 0 0-.37-.1-.47 0l.23.2s.18.05.3.25c0 0-.43-.26-.56-.1 0 0-.2-.22-.43-.15 0 0 .05-.1.17-.1-.02-.04-.1-.2-.44-.08 0 0-.1-.37-.27-.36 0 0-.1.03-.2.13-.1-.48-.64-.6-.9-.52-.03-.26-.37-.54-.62-.54 0 0 0-.18-.1-.24l.12-.02s.33.24.52.24v-.3l.02-.08s.14.1.25.13c.1.02.54-.2.5-.36-.05-.15-.47-.23-.6.08 0 0-.12-.4-.28-.4.2-.08.1-.32-.02-.45.1-.04.07-.12.02-.15l.2-.13c.28-.2.14-.28.04-.27l.07-.17s.04.1.3.1c.23 0 .4-.1.4-.28 0-.17-.34-.3-.58-.07 0 0 0-.4-.07-.6 0 0 .14-.22.18-.32 0 0 .28-.06.25-.28.13 0 .65-.28.54-.7.25.12.37-.15.37-.26.17.04.38-.25.18-.42 0 0 .18-.05.4-.2.2-.14.35-.12.53-.05-.1-.17-.33-.23-.54-.1 0 0-.23-.2-.4-.07-.02 0-.24-.13-.26-.23-.02-.1.07-.23.08-.3 0 0 .47.3.67.36-.13-.45-.28-.6-.6-.53l.17-.16s.17 0 .37-.17c.2-.18.12-.37-.18-.35 0 0 .3-.4.17-.66 0 0-.4.13-.47.4-.06-.23-.54-.36-.72-.27 0 0 .2.1.3.26 0 0-.2.17-.16.3 0 0-.1-.06-.18-.02 0 0 .2-.43-.15-.45 0 0-.1-.34-.4-.3l.03-.07c.2.03.4-.23.3-.33 0 0 .2-.13.37-.3 0 0-.42.05-.52.3 0 0-.2-.25-.4-.25 0 0 .63-.56.4-.72.07-.03.05-.27-.17-.33 0 0 .54-.3.54-.44.1.16.46.12.66.04 0 0-.16-.14-.38-.16 0 0 .4-.07.83.02 0 0-.12-.12-.2-.2l.15-.06s-.58-.23-.73-.08c0 0-.13-.18-.3-.12.13-.12.05-.5-.1-.53 0 0 .14-.14.08-.28.03-.08.38 0 .68.08 0-.17-.43-.47-.43-.47s-.4-.14-.45.15c0 0-.28-.08-.24.32 0 0-.16-.26-.4-.14 0 0 .27-.4-.03-.34 0 0 .1-.2.02-.37 0 0-.33.14-.45.4 0 0-.22-.23-.4-.22 0 0-.02.3.25.57-.47-.2-.32.56-.14.92 0 0-.27-.05-.36.2 0 0-.13-.22-.36.04-.23.27-.32-.05-.22-.1.03 0 .4-.02.47-.24.06-.22-.14-.27-.28-.22 0 0 .1-.2.3-.16 0 0-.13-.16-.27-.13l.13-.14c-.2-.23-.45-.2-.57.13-.05-.1-.28-.13-.37.04 0 0-.26-.08-.54.1 0 0 .23-.28.3-.34 0 0-.23-.1-.42 0 0-.08-.16-.35-.37-.33.4-.36.48-.93.25-1.05.28-.1.16-.34 0-.4.33-.1.4-.3.36-.38.38-.12.73.33.8.53.07-.34-.2-.7-.67-.67 0 0 .43-.36.28-.4 0 0 .28-.13.28-.26 0 0 .35-.33.56-.62 0 0-.5.2-.53.4 0 0-.07-.08-.1-.03 0-.47-.16-.57-.34-.67 0 0-.04.25.1.48 0 0-.3-.06-.42 0l.17-.2-.2-.06s-.38.2-.27.46c0 0-.32-.16-.48 0 .06-.1-.25-.4-.4-.22 0 0 0-.28-.12-.34 0 0 .14-.12.25-.2.12-.1-.08-.26-.1-.18-.02.1-.27.08-.25-.12.02-.2.3-.04.47.2.04-.1 0-.5-.14-.7.13-.05.37.13.43.1.06-.05-.1-.16-.23-.2.14-.03.27-.4.13-.5.15-.43.43-.15.48 0 .14-.4-.3-.6-.62-.53 0 0 .2-.35-.18-.34.35-.13.74-.94.76-1.2l-.25.15s-.12.25-.22.3c0 0-.04-.16 0-.24 0 0-.3-.07-.35-.2 0 0 .32-.2.4-.36 0 0-.23.02-.47.14 0 0 .15-.3.15-.46 0 0-.1-.13-.3 0V4.4s-.25.02-.25.25c0 0-.18.06-.27.2 0 0-.13-.1-.1-.2 0 0 .32-.4.14-.7 0 0-.25.06-.24.43 0 0-.2-.12-.28 0-.06-.06.13-.5-.03-.43.1-.4-.23-.45-.26-.45 0 0-.3 0-.36.44-.1-.14-.5-.47-.8-.2.07-.27-.46-.53-.46-.1 0 0-.27-.2-.48-.1.05 0 .1.16.35.28 0 0-.23 0-.28.2-.03-.1-.32-.18-.4 0-.1-.4-.56-.36-.72-.26 0 0 .16-.45 0-.6.2.15.45-.28.75-.47 0 0 .02-.15-.27-.08 0 0 .03-.2.03-.3-.16.18-.6.23-.52.64 0 0-.1-.18-.22-.1-.03-.16-.55-.37-.77.03 0 0-.18-.23-.4-.15 0 0-.06-.38-.4-.2l.22-.3s.07-.2-.23-.22c0 0-.2 0-.2-.16 0-.3.3-1 .14-1-.16 0-.3.33-.22.7 0 0-.24-.2-.33-.16 0 0 .03-.1.03-.15 0-.04-.3-.06-.4.04-.1.1.08.2.3.25 0 0 0 .17.2.4 0 0-.23.02-.24.22 0 0-.1-.1-.23-.07 0 0 .12-.17.13-.26 0-.08-.2-.22-.36-.04 0-.07-.17-.17-.5-.1 0 0 .1.08.13.2 0 0-.22-.2-.4.28 0-.03 0-.33-.2-.43.04-.06.02-.3-.16-.32-.18-.02-.2.2-.33.3-.13.1.27-.52-.02-.72-.25.1-.34.44-.23.7-.04.03-.4-.23-.55-.18-.14.05-.03.17.12.28 0 0-.02.04-.16.16.16-.06.33.08.58.22 0 0-.27-.05-.33.06-.05-.03-.3-.18-.48-.06 0-.08-.17-.1-.25.1-.16-.08-.2.07-.23.05-.03-.02-.26-.45-.43-.45-.16 0-.24.28.1.47-.13 0-.3.2-.3.2.14 0 .68.25.78.25l.75 1.2-.14.1-.2-.14c0-.1-.27-.15-.24.23-.06-.07-.27-.02-.27-.02.04-.07.1-.16.1-.16-.13-.06-.4 0-.44.42l-.2.42-.2-.15c.1-.33.38-.55.38-.55-.08-.17-.37-.13-.4-.08.04-.27.07-.85-.3-.13-.2-.14-.5.05-.5.05.03.1.18.35.18.35-.18-.07-.2.2-.2.2-.15-.07-.53-.02-.45.27.05.2.14.3.2.32 0 0 0 .02.03.02 0 0-.02 0-.04-.02-.32-.17-.5.05-.5.05.18-.05.24.1.24.1-.14.07-.15.32-.1.47.03.03.04.06.06.1-.02-.03-.04-.06-.05-.1-.1-.16-.22-.3-.36-.27.07-.25 0-.62 0-.62-.27 0-.44.22-.44.3 0 .1 0 .35 0 .35-.08-.44-.4-.36-.4-.36.02-.14.2-.24.2-.24-.26-.25-.64-.03-.64-.03.15-.33.1-.6.1-.6-.3-.07-.54.17-.54.25-.1-.15-.44-.05-.44-.05.14-.15.2-.3.2-.3-.12-.2-.3-.22-.3-.22.06-.12.32-.16.32-.16-.24-.28-.57-.13-.57-.13-.06-.14-.18-.15-.18-.15-.3-.1-.6-.02-.68.06l-.1-.25c.14-.08.1-.4.27-.44-.06-.1-.4-.05-.4-.05-.15-.26-.6-.2-.6-.2.06.1.07.34.07.34-.27-.1-.58.1-.52.55l-.16-.12c.03-.26-.3-.55-.6-.4-.05.1.1.4.1.4-.08 0-.12.43-.08.5-.3-.43-.73-.46-.73-.46.37.17.68.53.68.53-.36-.16-.4 0-.4 0 .1.16.4.24.4.24s-.33.36-.2.47c-.35-.14-.77.08-.83.22-.02-.17-.25-.2-.3.53-.15-.38-.04-.7.17-.78-.23-.15-.6-.1-.6.2-.38-.17-.52.22-.53.6-.06-.07-.26-.25-.26-.25-.16-.33-.46-.17-.46-.17s.28.2.37.25c-.2-.04-.26.2-.26.2-.13-.2-.52-.2-.53 0-.17-.02-.33.2-.3.32h-.14l-.24-.25c.08-.26-.2-.5-.2-.5-.2.07-.3.32-.16.5-.27-.2-.6-.03-.6-.03.17.3.46.6.63.6l.15.12c-.02.1.02.2.02.2s-.26-.06-.35.13c-.16-.04-.34.12-.34.12.15.1.43.22.73.2-.52.1-.72.36-.7.7.1-.45.62-.6.8-.52-.16.07-.33.17-.33.17.23 0 .54.18.54.18v.12c-.1-.04-.24.28-.24.37-.15 0-.44.2-.3.4-.08-.1-.4-.23-.65-.2.17.05.24.13.24.13s.2.24.38.24c0 0 .14.27.3.28-.15 0 .27.12.27.12l.1.1c-.24.05-.3.24-.14.38-.1.06-.04.2-.04.2-.34 0-.3.37-.2.48.1.12.3.18.4.12.04.04.24.1.24.1 0 .05.05.17.1.17-.1.12.2.5.2.5l-.06.4c-.08-.1-.36-.18-.45-.03-.07-.1-.27-.06-.3-.04-.05-.14-.22-.2-.36-.1-.05.05-.08.08-.08.08s-.6-.08-.67-.02c-.08.06-.17.35-.17.35.25-.1.75-.22.8-.2-.04.1-.04.44-.04.44h-.12s-.2-.2-.33-.1c.1.36.23.52.76.7l-.04.22h.2v.12c-.35-.04-.7.27-.7.45-.15-.34-.76-.32-.76-.32.06.26.2.43.68.45l.12.17c-.18 0-.28.23-.28.36l-.1.16-.27-.13c.02-.26-.04-.45-.36-.5-.1.12-.06.32-.03.36h-.33c.17.18.17.36.67.28l.2.08c-.26.1-.6.4-.58.8-.08-.1-.2.03-.2.07 0 0-.3-.12-.32-.2-.07.07 0 .35.17.38-.33.06-.52.3-.44.55-.18-.02-.43.1-.43.1.03.1-.07.5-.07.5-.05.32.4.46.53.22.13-.24.17-.46.1-.5.22-.02.33-.3.33-.3 0 .28.25.42.25.42-.23 0-.44.48-.23.72-.1.02-.2.1-.2.1.03.05.08.17.08.17-.12.02-.16.22-.16.22s-.04.13.04.18c-.14 0-.5.22-.5.22.12.22.46.38.76.23.05-.14 0-.35 0-.35.18.06.3.04.3.04s0 .14.08.33c0 0-.1.13-.1.23-.16 0-.43.23-.43.23-.07.25-.05.44-.05.44-.2 0-.38.32-.38.32.02-.2.02-.4.02-.4-.18.14-.25.38-.24.42-.28-.14-.62.04-.62.04.1.13.23.26.23.26-.23-.06-.34.12-.34.12.1-.02.2.1.2.1-.28 0-.6.15-.55.55-.14-.14.04-.44.04-.44-.12-.33-.72-.45-.72-.45s-.1.23 0 .34l-.05.1-.1-.1c-.1-.36.15-.63.24-.64-.35 0-.47.47-.47.47-.2-.3-.6-.27-.6-.27 0 .26.1.4.1.4l.44.12c-.3 0-.24.15-.24.15-.2-.16-.65-.05-.65-.05s.18.05.18.13c-.18-.04-.33 0-.33 0l.58.37c-.26.05-.2.32-.2.32.2.06.58-.12.58-.12l.38.16c-.04.06 0 .2 0 .2-.12-.07-.2-.05-.2-.05 0 .2 0 .4.16.4.15 0 .28.05.35-.06.07-.12.35-.1.4-.05.02.05.03.1.03.1-.08 0-.14.22-.14.22-.08 0-.03.38-.03.38-.13-.08-.52-.1-.52-.1-.03.1-.02.47-.02.47-.12-.14-.37.03-.4.13.12 0 .3.07.3.07-.1 0-.12.08-.12.08.06.28.18.34.18.34.1 0 .26.1.26.1-.25 0-.38.2-.38.2.13.17.2.37.6.35-.34.03-.67.2-.65.6.22.16.65.2.65.2-.22.13-.35.44-.35.44.28-.14.58-.28.58-.28-.14.15-.23.45-.23.45-.27-.02-.5.22-.35.37.05.06.17.1.17.1-.14.05-.08.22-.08.22.25.1.62.22.62.22-.2.18-.32.66.4.9-.03-.25.08-.4.08-.52 0-.13-.03-.47.04-.48.07 0 .04.67.04.67.1.27.44.06.44.06-.12.4.12.54.33.54-.06.1-.08.26-.08.26-.13-.16-.45-.2-.43 0-.18-.26-.62-.28-.62-.28-.07.27.07.56.3.66.06 0 .1.02.14.04-.04 0-.1-.02-.13-.04-.44-.08-.8.15-.8.15.33.08.7.1.7.1-.45.37.44.63.63.53-.08.32.04.84.47 1.1l-.05.52c-.43-.7-1.14-.56-1.3-.34.35.02.44.42.66.45-.25 0-.42.24-.42.24.15.02.34.46.54.46s.44-.13.44-.13c-.1.32-.04.55.33.56l-.1.17c.26-.02.3.24.75 0 .43-.26.6.02.6.02-.12.12-.17.23-.17.23.13 0 .54.34.7.24-.16.5-.03.8.46.84.03.3.3.6.73.5-.04.3.17.34.17.34-.02.4.42.83.6.73.2-.1.24-.48.16-.58.27.17.7.05.52-.4.08.05.18.26.18.26.23-.2.3-.6.15-.73.17.03.34-.23.43-.2.16.2.65.34.85-.08-.04-.05-.18-.18-.18-.18l-.23-.07c.16-.15.07-.38.07-.38-.12-.08-.24-.2-.24-.2.26.07.36-.07.36-.07l.13.1c.07.16.34.1.34.1 0 .33.12.92.62.9l.02.15s.18-.07.4-.07c-.2.1-.3.42-.2.5-.24-.13-.62-.08-.83.13.04.13.04.55.55.55.28 0 .43-.18.43-.18.2.04.42-.04.42-.04-.27.33-.02.76.26.84.12.25.68.52.95.37.14.4.2.78.2.78.03.18.4.2.4.2-.03-.15.06-.28.06-.28.12 0 .4-.2.4-.2.02.23.02.54.05.6.04.05.23.17.23.17.2-.1.2-.28.2-.28.46 0 .85-.26.85-.26 0-.25-.1-.77-.1-.77.17.13.25.43.16.7.17-.15.18-.62.18-.62.17.07.24-.23.24-.23-.07-.3-.37-.28-.37-.28l-.2.05c-.1-.14-.28-.07-.36.02-.08-.13-.38-.32-.38-.32.2 0 .28-.2.46-.15 0-.17.1-.52-.15-.66.4.18.6.03.66.05-.1-.25-.37-.36-.37-.36.23-.1.23-.26.23-.26.2-.15.48-.3.57-.23.12.05.27.24.4.24.16 0 .44-.2.44-.2l1.4.63 1-.02c0-.4-.4-4.5-.4-4.5l.87-1.02 2.37.06 3.85.4.47 2.23-1.78 2.98c-.07 0-.2.2-.18.26.03.05.16 0 .3-.1.16-.1.05-.2.05-.2l.2-.1s0 .1-.06.2c-.04.1-.12.45-.12.45s.1.36.3.35c.2-.02.3-.57.25-.83l.13-.14s.2.4.32.52c0 0 .07-.25.07-.34 0-.1-.23-.33-.23-.33l.27-.07s.05.22.15.25c.1.04.4-.23.38-.3-.02-.05-.05-.2.08-.2s.04.18 0 .25c-.03.06.15.26.28.3.13.03.36-.15.36-.15s0-.12.03-.18c.02-.07.12 0 .12 0s.16-.22.1-.44c0 0 .2.1.48.1.28 0 .3-.18.3-.18l.02.15.22.03s0 .12.03.18.42 0 .36-.12c.1 0 .16-.14.1-.2.1-.03.1-.22.1-.22s-.15.06-.1-.12c.05-.17.15-.05.15-.05s0-.03 0-.12c0-.1.16-.06.16-.06l.04.16s-.1-.03-.14.07c-.04.1.1.13.1.13v.13l.07.03s.1.28.17.4c.08.1.27.07.27.07s.16-.26.16-.36c0-.1-.16-.28-.4-.4.17-.03.35.1.35.1l.17-.07s.02-.03-.04-.1c-.04-.02-.06-.05-.08-.1.03.05.06.07.08.1.1.05.27 0 .32-.1-.02.03.12.2.24.24-.06.1.13.28.3.28-.03.1.15.38.35.36.04.13.43.14.55.14.12 0 .37-.54.3-.8l.1-.12s.2.03.25-.03c.3.53.73.64.82.65.08 0 .52-.28.56-.37.03-.08-.12-.13-.2-.27.1 0 .3-.18.3-.34 0 0 .23-.15.22-.3 0 0 .15 0 .23-.07 0 0 0-.4 0-.5 0-.08-.1-.08-.2-.13 0 0 .13-.06.13-.16 0 0 .3-.03.5-.06 0 0-.3-.43-.4-.45-.1-.03-.2-.04-.36.02 0 0 .3-.6.26-.84 0 0 .1-.04.2.07 0 0 .15-.03.12-.23 0 0 .53.25.7.26-.16-.4-.57-.68-.58-.7-.02-.03-.57-.05-.85-.03.12-.1.03-.42-.05-.65 0 0 .12 0 .3.06.1-.1.23-.56.08-.77.17 0 .28-.02.4-.14 0 0 .06.12.22.17 0 0 .18-.32.2-.43 0-.1-.16-.3-.5-.52 0 0 .2 0 .3.1 0 0 .06-.2-.07-.28 0 0 .16-.1.23-.2.1.22.5.2.5.2s-.1-.35-.32-.4c0 0 .42-.37.64-.63l.12.17s.26-.13.38-.33c0 0 .07.08.2.17 0 0 .05-.12 0-.25l.23-.04s.05-.2-.04-.36l.3-.2.02-.3zm-13.78-6.67c-.07-.05-.43.04-.6.02.04.07.02.27.3.58-.18 0-.33.1-.45.25-.13.14-.1.42-.02.6 0 0-.12.03-.22.08-.17-.14-.53-.07-.5.34.04-.05.34-.05.34-.05s.05.1.16.06c-.32.2-.16.53.1.6 0 0-.3 0-.4.2-.16-.07-.67 0-.72.42l-.22.17c-.27-.07-.46.3-.4.44-.04.02-.06.15-.06.15s-.15-.14-.22-.2c-.06-.04-.05-.4-.05-.4l-.5-.32c0-.2 0-.56.12-.68.33-.28-.2-.86-.12-1 .12.06.17.02.14-.06-.15-.46-.3-.77.06-.3.16-.12.16-.3.12-.92.15-.3-.1-.6-.25-.63 0 0 .24-.06.2-.24.05.16.44.08.44-.2 0 0 .06.04.18.18-.02-.35.58-.9.93-.76 0 0-.07.17-.12.34-.02.64 1.03.67 1.1.37 0 0 .25.38.52.1-.07.12.1.34.3.46-.04.02-.2.14-.16.4"/><path fill="#fff" d="M29.62 12.4c1.32.07-.44 1.66.13.2-.04-.07-.08-.14-.13-.2z"/><path fill="#fff" d="M33.24 17.28c1.27-.88.38 2.1.2.06l-.1-.06h-.1z"/><path fill="#fff" d="M24.6 7.37c.93-1.27.75 1 0 0z"/><path fill="#fff" d="M31.82 8.87c.37-1.22 1.13.06 0 0z"/><path fill="#fff" d="M31.6 17.65c1.4-.08-.64 1.74.14.17-.04-.06-.1-.1-.13-.17z"/><path fill="#fff" d="M35.67 21.2c.62-.26.92-2.12 1.43-.68-1.15-.32.7 1.9-1.13 1.32-.32-.06.72-.9-.3-.63z"/><path fill="#fff" d="M29.7 21.4c.7-.87 2 1.3.67.5-.33.98-.63-.1-.68-.5z"/><path fill="#fff" d="M35.47 28.27c1.08.45.8-.38.97-.63 1.67-.32.23 2.5-.63.67l-.15-.03h-.18z"/><path fill="#fff" d="M23.25 12.92c1.1-.64.76 1.26 0 0z"/><path fill="#fff" d="M25.9 12.7c1.07-.4.97 1.6.18.3l-.2-.3z"/><path fill="#fff" d="M23.42 18.66c.96-.43.25 1 0 0z"/><path fill="#fff" d="M8.8 29.13c.6-.9 2.67-.9 1.08.1-1.32.48 1.8 1.47-.28 1.15-.6-.2-.66-.8-.8-1.25z"/><path fill="#fff" d="M13.05 21.37c1.2-.87 1.06.93 0 0z"/><path fill="#fff" d="M19.48 7.52c1.37-1.14.27 1.2 0 0z"/><path fill="#fff" d="M25.14 12.66c.66 1.13-.95.93 0 0z"/><path fill="#fff" d="M32.2 17.26c1.45.24.63-1.24 0 0z"/><path fill="#fff" d="M31.66 21.62c2.12.2-.37 1.07 0 0z"/><path fill="#fff" d="M37.68 30.5c.93-1 1.22.5 0 0z"/><path fill="#fff" d="M38.3 30.7c.72-.45.37.83 0 0z"/><path fill="#fff" d="M37.12 31.52c.7.5-.55.8 0 0z"/><path fill="#fff" d="M36.94 30.21c.43-.87.78.4 0 .02z"/><path fill="#fff" d="M32.8 32.27c.9-1.27.54 1.08 0 0z"/><path fill="#fff" d="M34.25 19.34c-.15-1.5 2.52.02.63-.38-.28-.1-.43.27-.63.38z"/><path fill="#fff" d="M11.67 6.63c.54-1.27 1.35.97 0 0z"/><path fill="#fff" d="M12.17 5.9c.9.06.26 1.07 0 0z"/><path fill="#fff" d="M12.8 5.52c.62 1.14-.43 1.2 0 0z"/><path fill="#fff" d="M13.16 5.67c.63-.92.36 1 0 0z"/><path fill="#fff" d="M19.6 24.44c.9-.64 1.26 1.35.2.2l-.2-.2z"/><path fill="#fff" d="M16.44 33.7c-.2-2 1.78 1.25.18.17l-.18-.16z"/><path fill="#fff" d="M17.3 33.32c.58-.6.43.83 0 0z"/><path fill="#fff" d="M17.64 33.67c.7-.36-.06.7 0 0z"/><path fill="#fff" d="M17.7 34.47c.43-1.07.68.84 0 0z"/><path fill="#fff" d="M30.2 32.57c.34-1.27 1.1.76 0 0z"/><path fill="#fff" d="M34.1 22.4c.4-.9 2.28-2.88 1.44-.7-.27.48-.8 1.34-1.45.7z"/><path fill="#fff" d="M32.4 20.94c.97-.55.28 1.03 0 0z"/><path fill="#fff" d="M33 21.7c.7-.7 1 .65 0 0z"/><path fill="#fff" d="M35.75 29.75c.57-.22.06.6 0 0z"/><path fill="#fff" d="M36.57 30c.58.14-.32.54 0 0z"/><path fill="#fff" d="M36.88 30.6c.67.26-.2.6 0 0z"/><path fill="#fff" d="M17.4 4.57c.7-1.86 1.1 1.9.05.55 0-.2.66-1.35-.04-.55z"/><path fill="#fff" d="M20.45 6.1c1.23-.8 1.06 1.13 0 0z"/><path fill="#fff" d="M22.84 5c.72.58-.12-1.03 0 0z"/><path fill="#fff" d="M11.42 8.02c1.05 1.18-.46 1.58 0 0z"/><path fill="#fff" d="M11.85 8.4c1.15-.24-.38.98 0 0z"/><path fill="#fff" d="M18.3 6.2c.1-.88.7.32 0 0z"/><path fill="#fff" d="M19.2 5.57c.46-.7.5.7 0 0z"/><path fill="#fff" d="M19.27 5.76c.74-.02-.36.42 0 0z"/><path fill="#fff" d="M24.9 9.48c.78-.9 1.2.26 0 0z"/><path fill="#fff" d="M28.08 12.9c.15-1.13.68.6 0 0z"/><path fill="#fff" d="M28.6 13.68c-.12-1.8 1.6-.02 0 0z"/><path fill="#fff" d="M32.56 13.9c.64-.37-.06 1 0 0z"/><path fill="#fff" d="M34.05 12.93c1 1.2.1-1.5 0 0z"/><path fill="#fff" d="M35.6 13.97c1.27-.6.74.86 0 0z"/><path fill="#fff" d="M21.64 32.64c1.4-.7-1.2-.5-1.8-.3.54.93-1.47 1.54-.22.48-.1-.64-1.1.63-1.16.64-.33-.66.65-2.2-.55-1.66-.08.48-.73-1.07.38-.38 1.18.08-.6-.94.8-.76 1 .25 1.66 1.12 2.73.2 1.56.37-.87-.65.47-1.5.43-.72.54 1.3.5 1.86 0 .7 0 1.4 0 2.1-.48-.16-.97-.12-1.13-.68z"/><path fill="none" stroke="#104c22" stroke-width=".5" d="M21.64 32.64c1.4-.7-1.2-.5-1.8-.3.54.93-1.47 1.54-.22.48-.1-.64-1.1.63-1.16.64-.33-.66.65-2.2-.55-1.66-.08.48-.73-1.07.38-.38 1.18.08-.6-.94.8-.76 1 .25 1.66 1.12 2.73.2 1.56.37-.87-.65.47-1.5.43-.72.54 1.3.5 1.86 0 .7 0 1.4 0 2.1-.48-.16-.97-.12-1.13-.68z"/><path fill="none" stroke="#104c22" stroke-width="1.5" d="M23.44 31.6c.87-.44 2.3 2.08 2.15.02-.16-1.06 1.73.7.9-.37-1.26-1.74 2.7.07.9 1.4-.16 1.42-1.68 1.05-2.1 2.08-.04-.76-1.15-2.34-.94-.63-.26-.56-1.24-1.56-1.66-.4-2.32-.27.18-1.44.74-2.1z"/><path fill="url(#e)" d="M28.9 29.5c-.18.08-.64.2-.97.24-.33.03-.7-.02-.8-.02-.1 0-.83.17-.9.22-.07.04-.54.55-.68.63-.14.1-.73.54-.93.67 0 0-.2.1-.25-.1-.06-.18-.02-1.2-.02-1.2s.26-.57.37-.7c0 0 .27-.2.35-.2.07 0 .56.35.7.46l.1-.15s-.2-.15-.2-.26c0-.12.22-.18.22-.18l.63-.1.52.1v-.2l-.93-.12s-1.33.2-1.48.15c-.15-.05-.3-.36-.3-.36l-.18-.86-1.72-.04.15 2.55c-.08-.02-.53-.25-.53-.25l-.23.37c.12.1.7.64.73.75.03.12-.04 1.45-.04 1.53 0 .08-.03.35-.03.45 0 .04-.15 0-.33-.06l-.15.46c.23.18.4.35.44.42.06.2.1 1.1.1 1.18 0 .06-.57-.17-.62-.22-.06-.05-.18-.4-.2-.43 0-.03-.13-.16-.2-.3-.04-.17-.3-.86-.35-1.14l-.25.13s.57 1.46.57 1.54c0 .08-.43-.03-.72-.12-.3-.1-.86-.26-1.2-.4l-.3.27c.46.08.83.4 1.32.4.48.04.9.3 1 .34.1.04.84.38.95.48.1.1.08.5.08 1.16 0 .66-.1 2.64-.1 3.33 0 .68-.26 2.8-.26 3.04 0 .24.13 1.8.2 3.1l-.12.57.27.36 1.27-.36.72-.36.45.1-.4-1.66c-.15-.9-.13-4.2-.13-4.3 0-.08.06-.4.06-.45 0-.05-.1-.17-.1-.22-.28-2.96 0-3.96.12-4.17.38-.17 1.35-.84 1.43-.84.07 0 1.94-.15 2.1-.22.18-.08.62-.2.62-.2s.04-.2 0-.23c-.02-.05-.14 0-.14-.05 0-.04.5-.63.65-.74.16-.1.87-.8.87-.8l1.88-.23-.13-.2-1.9.32c-.2.2-1.15 1.05-1.2 1.05-.07 0 .23-.7.26-.8l.28-.17-.05-.08-.14-.1s-.14-.94-.14-1.1c0-.14-.05-.65-.03-.72 0-.08.14-.4.14-.4l1.84-1.3-2 1.24s-.14.2-.22.25c-.07.05-.24-.1-.24-.1l-.45-.24-.4.02.77.43.27.2.18 1.9c-.04.14-.5 1.55-.6 1.6-.08.07-1.28.16-1.48.12-.2-.04-1.02.13-1.06.15-.05 0-1.07.72-1.15.7-.1 0-.18-.1-.2-.38 0-.28-.1-2.05 0-2.3.1-.24.7-.83.78-.93.1-.1.43-.33.6-.48.17-.16.6-.75.98-.77.38-.02 1.8-.18 1.97-.22l.35-.34-.17-.13z"/><use width="48.25" height="48.25" fill="url(#g)" xlink:href="#f" transform="translate(-1.118 .002)"/><path fill="#4c9c25" d="M34.5 12.27c-.14-1.4 1.4-1.4 1.2-2.5 1.65-1.48-3.08.33-1.58-1.66 1.35-1.35-.85-2.4-1.7-2.4 1.68-1.53-1.74-1.5-2.44-.47-1.84 1-1.1-2.14-3.1-1.55-.86-.3-.9.46-1.5-.37-.85.75-1.27 1.5-.33 2.2-.27 1.1.08 2.3 1 2.56.06 1.1 1.9 3.15 1.1 1.12.3-.94-.18-1.06.72-1.02.94-1 1.24.8 1.56.8 1.9-1.27 3.17 2.12 4.95.72-.48.7-1.28 1.53-.2 1.86-.15.4-.42 1.6.33.73z"/><path fill="#72ba28" d="M26.56 24.66c-1.44.65-.02-1.55-1.44-.86-.84-.62-.26-2.2-1.92-1.4-1.35.5-2.14 3.62.03 2.38.74.34-.6 2.73.7 1.3.58-1.57 1.47-.75 2.63-1.42zm-2.53-.1c-1.16.58-1.8-1.67-.4-.52.45-.13.7.1.4.5z"/><path fill="#ec2628" d="M22.3 23.77z"/><path fill="#4c9c25" d="M23.8 24.12c-1.55-1.46-1.4.9.27.22l-.05-.1-.2-.12z"/><path fill="#fff" d="M19.27 19.02c1-.3.1 1 0 0z"/><path fill="none" stroke="#104c22" stroke-width=".5" d="M19.27 19.02c1-.3.1 1 0 0z"/><path fill="#4c9c25" d="M9.52 23.5c1.96-.2-.87-3.25 1.33-2.04.87-1.45 4.54.6 2.6 1.72-.68-1.67-2.42.7-.88.8-.7.76-2.22 1.5-.78 2.18.46 1.34-.86.86-1.4.47.54 1.28-.56 1.8-1.1.5-1.56-1.12.24-1.24.93-1.64-1.06-.7-2.47-1.8-1.03-2.62l.16.26.16.36z"/><path fill="#8ac32c" d="M27.2 7.93c.17 1.18 2.08-1.08 1.47.43 1.15.17.3.64.93 1-1.2 1.12-2.56-.32-2.4-1.43z"/><path fill="#72ba28" d="M21.2 11.9c.53-.8 1.5-1.26 2-1.52-1.26-.13.15-1.55-1.32-.98-.97.7-.34 1.64-.7 2.5z"/><path fill="#72ba28" d="M20.94 9.57c-.78-1.22 1.58-.96.1-.08l-.1.06z"/><path fill="#fff" d="M15.98 4.36c-.52-1.4 2.32-.5.65-.18.46.84-.36-.14-.65.18z"/><path fill="none" stroke="#104c22" stroke-width=".5" d="M15.98 4.36c-.5-1.42 2.32-.5.64-.17.45.74-.38-.1-.64.16z"/><path fill="#fff" d="M15.52 3.97c-.46-.48.56-.3 0 0z"/><path fill="none" stroke="#104c22" stroke-width=".75" d="M15.52 3.97c-.43-.53.55-.34 0 0z"/><path fill="#fff" d="M37.8 25.2c.6-.64.77-.6 1.14.12 1.63.38-.76.07-1.13-.12z"/><path fill="none" stroke="#104c22" stroke-width=".5" d="M37.8 25.2c.6-.64.77-.6 1.14.12 1.63.38-.76.07-1.13-.12z"/><path fill="#8f5813" d="M26.6 17.8c-.17-.87.13-1.14.15-.12.8-.73 1.6-.82.4.07-.87.7-1.67 3.3-1.95 3.1-1.23-.55 1.05-1.63 0-2.7-.17-.66 0-1.87.12-.5.14.76.06 2.36.76.86.17-.23.34-.47.5-.7z"/><path fill="#8f5813" d="M25.3 20.28c.35 0 1.85.14 1.4-.1-1.16.24 1.1-1.03.24-.58-.44.5-1.2.46-1.63.55v.13z"/><path fill="#72ba28" d="M23.44 31.6c.92-.17 2.5 1.9 2.18-.26.58-.18 1.55.72.7-.38.32-1.3 2.56 1.2 1.03 1.93-.23.75-2.03 1.72-2.1 1.52-.26-1.43-1.1-.77-1.02-.55-.6-1.67-2.15.72-2.46-.78.4-.65 1.16-.95 1.67-1.5z"/><path fill="none" stroke="#104c22" stroke-width=".5" d="M40.92 24.44z"/><path fill="none" stroke="#104c22" stroke-width=".5" d="M20.43 33.75z"/><path fill="none" stroke="#104c22" stroke-width=".5" d="M21.1 5.77z"/><path fill="none" stroke="#104c22" stroke-width=".5" d="M21.45 5.14z"/><path fill="none" stroke="#104c22" stroke-width=".5" d="M34.83 32.43c-.13-.14-.06-.07 0 0z"/><path fill="none" stroke="#104c22" stroke-width=".5" d="M7.8 27.79c.16.03.1.02 0-.02z"/><path fill="#fff" d="M29.62 12.4c1.32.07-.44 1.66.13.2-.04-.07-.08-.14-.13-.2z"/><path fill="none" stroke="#104c22" stroke-width=".5" d="M29.62 12.4c1.32.07-.44 1.66.13.2-.04-.07-.08-.14-.13-.2z"/><path fill="#fff" d="M33.24 17.28c1.27-.88.38 2.1.2.06l-.1-.06h-.1z"/><path fill="none" stroke="#104c22" stroke-width=".5" d="M33.24 17.28c1.27-.88.38 2.1.2.06l-.1-.06h-.1z"/><path fill="#fff" d="M24.6 7.37c.93-1.27.75 1 0 0z"/><path fill="none" stroke="#104c22" stroke-width=".5" d="M24.6 7.37c.93-1.27.75 1 0 0z"/><path fill="#fff" d="M31.82 8.87c.37-1.22 1.13.06 0 0z"/><path fill="none" stroke="#104c22" stroke-width=".5" d="M31.82 8.87c.37-1.22 1.13.06 0 0z"/><path fill="#fff" d="M31.6 17.65c1.4-.08-.64 1.74.14.17-.04-.06-.1-.1-.13-.17z"/><path fill="none" stroke="#104c22" stroke-width=".5" d="M31.6 17.65c1.4-.08-.64 1.74.14.17-.04-.06-.1-.1-.13-.17z"/><path fill="#fff" d="M35.67 21.2c.62-.26.92-2.12 1.43-.68-1.15-.32.7 1.9-1.13 1.32-.32-.06.72-.9-.3-.63z"/><path fill="none" stroke="#104c22" stroke-width=".5" d="M35.67 21.2c.62-.26.92-2.12 1.43-.68-1.15-.32.7 1.9-1.13 1.32-.32-.06.72-.9-.3-.63z"/><path fill="#fff" d="M29.7 21.4c.7-.87 2 1.3.67.5-.33.98-.63-.1-.68-.5z"/><path fill="none" stroke="#104c22" stroke-width=".5" d="M29.7 21.4c.7-.87 2 1.3.67.5-.33.98-.63-.1-.68-.5z"/><path fill="#fff" d="M35.47 28.27c1.08.45.8-.38.97-.63 1.67-.32.23 2.5-.63.67l-.15-.03h-.18z"/><path fill="none" stroke="#104c22" stroke-width=".5" d="M35.47 28.27c1.08.45.8-.38.97-.63 1.67-.32.23 2.5-.63.67l-.15-.03h-.18z"/><path fill="#fff" d="M23.25 12.92c1.1-.64.76 1.26 0 0z"/><path fill="none" stroke="#104c22" stroke-width=".5" d="M23.25 12.92c1.1-.64.76 1.26 0 0z"/><path fill="#fff" d="M25.9 12.7c1.07-.4.97 1.6.18.3l-.2-.3z"/><path fill="none" stroke="#104c22" stroke-width=".5" d="M25.9 12.7c1.07-.4.97 1.6.18.3l-.2-.3z"/><path fill="#fff" d="M23.42 18.66c.96-.43.25 1 0 0z"/><path fill="none" stroke="#104c22" stroke-width=".5" d="M23.42 18.66c.96-.43.25 1 0 0z"/><path fill="#fff" d="M8.8 29.13c.6-.9 2.67-.9 1.08.1-1.32.48 1.8 1.47-.28 1.15-.6-.2-.66-.8-.8-1.25z"/><path fill="none" stroke="#104c22" stroke-width=".5" d="M8.8 29.13c.58-1.13 2.66-.55.88.2-.52.56 1.53 1.35-.07 1.06-.54-.17-.68-.78-.8-1.27z"/><path fill="#fff" d="M13.05 21.37c1.2-.87 1.06.93 0 0z"/><path fill="none" stroke="#104c22" stroke-width=".5" d="M13.05 21.37c1.23-.87 1.05.93 0 0z"/><path fill="#fff" d="M19.48 7.52c1.54-1.1.13 1.26 0 0z"/><path fill="none" stroke="#104c22" stroke-width=".5" d="M19.48 7.52c1.54-1.1.13 1.26 0 0z"/><path fill="#fff" d="M25.14 12.66c.8 1.12-1.1.9 0 0z"/><path fill="none" stroke="#104c22" stroke-width=".5" d="M25.14 12.66c.7 1.07-1.02.93 0 0z"/><path fill="#fff" d="M32.2 17.26c1.45.24.63-1.24 0 0z"/><path fill="none" stroke="#104c22" stroke-width=".5" d="M32.2 17.26c1.45.23.66-1.24 0 0z"/><path fill="#fff" d="M31.66 21.62c2.12.2-.37 1.07 0 0z"/><path fill="none" stroke="#104c22" stroke-width=".5" d="M31.66 21.62c1.83.15-.28 1.14 0 0z"/><path fill="#fff" d="M37.68 30.5c.93-1 1.22.5 0 0z"/><path fill="none" stroke="#104c22" stroke-width=".5" d="M37.68 30.5c.93-1 1.22.5 0 0z"/><path fill="#fff" d="M38.3 30.7c.72-.45.37.83 0 0z"/><path fill="none" stroke="#104c22" stroke-width=".5" d="M38.3 30.7c.72-.45.37.83 0 0z"/><path fill="#fff" d="M37.12 31.52c.7.5-.55.8 0 0z"/><path fill="none" stroke="#104c22" stroke-width=".5" d="M37.12 31.52c.68.57-.5.77 0 0z"/><path fill="#fff" d="M36.94 30.21c.43-.87.78.4 0 .02z"/><path fill="none" stroke="#104c22" stroke-width=".5" d="M36.94 30.21c.43-.87.78.4 0 .02z"/><path fill="#fff" d="M32.8 32.27c.9-1.27.54 1.08 0 0z"/><path fill="none" stroke="#104c22" stroke-width=".5" d="M32.8 32.27c1-1.4.53 1.2 0 0z"/><path fill="#fff" d="M34.25 19.34c-.15-1.5 2.52.02.63-.38-.28-.1-.43.27-.63.38z"/><path fill="none" stroke="#104c22" stroke-width=".5" d="M34.25 19.34c-.15-1.5 2.52.02.63-.38-.28-.1-.43.27-.63.38z"/><path fill="#fff" d="M11.67 6.63c.54-1.27 1.35.97 0 0z"/><path fill="none" stroke="#104c22" stroke-width=".5" d="M11.67 6.63c.16-1.27 1.73.82.17.06l-.1-.04-.07-.03z"/><path fill="#fff" d="M12.17 5.9c.9.06.26 1.07 0 0z"/><path fill="none" stroke="#104c22" stroke-width=".5" d="M12.17 5.9c.9.06.27 1.07 0 0z"/><path fill="#fff" d="M12.8 5.52c.62 1.14-.43 1.2 0 0z"/><path fill="none" stroke="#104c22" stroke-width=".5" d="M12.8 5.52c.62 1.14-.43 1.2 0 0z"/><path fill="#fff" d="M13.16 5.67c.63-.92.36 1 0 0z"/><path fill="none" stroke="#104c22" stroke-width=".5" d="M13.16 5.67c.63-.92.36 1 0 0z"/><path fill="#fff" d="M19.6 24.44c.9-.64 1.26 1.35.2.2l-.2-.2z"/><path fill="none" stroke="#104c22" stroke-width=".5" d="M19.6 24.44c.77-.7 1.42 1.3.3.27l-.3-.26z"/><path fill="#fff" d="M16.44 33.7c-.2-2 1.78 1.25.18.17l-.18-.16z"/><path fill="none" stroke="#104c22" stroke-width=".5" d="M16.44 33.7c-.27-1.88 1.66.87.4.3l-.22-.14-.18-.15z"/><path fill="#fff" d="M17.3 33.32c.58-.6.43.83 0 0z"/><path fill="none" stroke="#104c22" stroke-width=".5" d="M17.3 33.32c.58-.6.43.83 0 0z"/><path fill="#fff" d="M17.64 33.67c.7-.36-.06.7 0 0z"/><path fill="none" stroke="#104c22" stroke-width=".5" d="M17.64 33.67c.7-.36-.06.7 0 0z"/><path fill="#fff" d="M17.7 34.47c.43-1.07.68.84 0 0z"/><path fill="none" stroke="#104c22" stroke-width=".5" d="M17.7 34.47c.43-1.07.68.82 0 0z"/><path fill="#fff" d="M30.2 32.57c.34-1.27 1.1.76 0 0z"/><path fill="none" stroke="#104c22" stroke-width=".5" d="M30.2 32.57c.34-1.14 1.02.7 0 0z"/><path fill="#fff" d="M34.1 22.4c.4-.9 2.28-2.88 1.44-.7-.27.48-.8 1.34-1.45.7z"/><path fill="none" stroke="#104c22" stroke-width=".5" d="M34.1 22.4c.4-.9 2.28-2.88 1.44-.7-.27.48-.8 1.34-1.45.7z"/><path fill="#fff" d="M32.4 20.94c.97-.55.28 1.03 0 0z"/><path fill="none" stroke="#104c22" stroke-width=".5" d="M32.4 20.94c1-.54.3 1.02 0 0z"/><path fill="#fff" d="M33 21.7c.7-.7 1 .65 0 0z"/><path fill="none" stroke="#104c22" stroke-width=".5" d="M33 21.7c.7-.7 1 .65 0 0z"/><path fill="#fff" d="M35.75 29.75c.57-.22.06.6 0 0z"/><path fill="none" stroke="#104c22" stroke-width=".5" d="M35.75 29.75c.57-.22.06.6 0 0z"/><path fill="#fff" d="M36.57 30c.58.14-.32.54 0 0z"/><path fill="none" stroke="#104c22" stroke-width=".5" d="M36.57 30c.6.14-.36.6 0 0z"/><path fill="#fff" d="M36.88 30.6c.67.26-.2.6 0 0z"/><path fill="none" stroke="#104c22" stroke-width=".5" d="M36.88 30.6c.67.26-.2.6 0 0z"/><path fill="#fff" d="M17.4 4.57c.7-1.86 1.1 1.9.05.55 0-.2.66-1.35-.04-.55z"/><path fill="none" stroke="#104c22" stroke-width=".5" d="M17.4 4.57c.72-1.86 1.1 1.93.05.53.08-.28.55-1.27-.04-.53z"/><path fill="#fff" d="M20.45 6.1c1.23-.8 1.06 1.13 0 0z"/><path fill="none" stroke="#104c22" stroke-width=".5" d="M20.45 6.1c1.23-.8 1.06 1.13 0 0z"/><path fill="#fff" d="M22.84 5c.72.58-.12-1.03 0 0z"/><path fill="none" stroke="#104c22" stroke-width=".5" d="M22.84 5c.72.58-.12-1.03 0 0z"/><path fill="#fff" d="M11.42 8.02c1.05 1.18-.46 1.58 0 0z"/><path fill="none" stroke="#104c22" stroke-width=".5" d="M11.42 8.02c1.05 1.18-.46 1.58 0 0z"/><path fill="#fff" d="M11.85 8.4c1.15-.24-.38.98 0 0z"/><path fill="none" stroke="#104c22" stroke-width=".5" d="M11.85 8.4c1.14-.23-.37.98 0 0z"/><path fill="#fff" d="M18.3 6.2c-.02-.82.66.33 0 0z"/><path fill="none" stroke="#104c22" stroke-width=".5" d="M18.3 6.2c-.02-.82.66.33 0 0z"/><path fill="#fff" d="M19.2 5.57c.46-.7.5.7 0 0z"/><path fill="none" stroke="#104c22" stroke-width=".5" d="M19.2 5.57c.5-.77.6.76 0 0z"/><path fill="#fff" d="M19.27 5.76c.74-.02-.36.42 0 0z"/><path fill="none" stroke="#104c22" stroke-width=".5" d="M19.27 5.76c.74-.02-.36.42 0 0z"/><path fill="#fff" d="M24.9 9.48c.78-.9 1.2.26 0 0z"/><path fill="none" stroke="#104c22" stroke-width=".5" d="M24.9 9.48c.78-.9 1.2.26 0 0z"/><path fill="#fff" d="M28.08 12.9c.15-1.13.68.6 0 0z"/><path fill="none" stroke="#104c22" stroke-width=".5" d="M28.08 12.9c.15-1.13.68.6 0 0z"/><path fill="#fff" d="M28.6 13.68c-.12-1.8 1.6-.02 0 0z"/><path fill="none" stroke="#104c22" stroke-width=".5" d="M28.6 13.68c-.12-1.8 1.6-.02 0 0z"/><path fill="#fff" d="M32.56 13.9c.64-.37-.06 1 0 0z"/><path fill="none" stroke="#104c22" stroke-width=".5" d="M32.56 13.9c.64-.37-.06 1 0 0z"/><path fill="#fff" d="M34.05 12.93c1 1.2.1-1.5 0 0z"/><path fill="none" stroke="#104c22" stroke-width=".5" d="M34.05 12.93c1 1.2.1-1.5 0 0z"/><path fill="#fff" d="M35.6 13.97c1.27-.6.74.86 0 0z"/><path fill="none" stroke="#104c22" stroke-width=".5" d="M35.6 13.97c1.27-.6.74.86 0 0z"/><path fill="#8ac32c" d="M24.1 31.8c.38 1.36-1.1.7 0 0z"/></g></svg>