<svg xmlns="http://www.w3.org/2000/svg" width="48" height="48" xmlns:xlink="http://www.w3.org/1999/xlink"><defs><linearGradient id="a" x1="16.221" x2="18.095" y1="43.398" y2="43.398" gradientUnits="userSpaceOnUse"><stop offset="0" stop-color="#8F5813"/><stop offset=".122" stop-color="#784A12"/><stop offset=".249" stop-color="#684010"/><stop offset=".352" stop-color="#633D0F"/><stop offset=".698" stop-color="#633D0F"/><stop offset="1" stop-color="#8F5813"/></linearGradient><linearGradient x1="16.221" x2="18.095" y1="43.397" y2="43.397" gradientUnits="userSpaceOnUse"><stop offset="0" stop-color="#8F5813"/><stop offset=".122" stop-color="#784A12"/><stop offset=".249" stop-color="#684010"/><stop offset=".352" stop-color="#633D0F"/><stop offset=".698" stop-color="#633D0F"/><stop offset="1" stop-color="#8F5813"/></linearGradient><linearGradient id="b" x1="16.221" x2="18.095" y1="43.398" y2="43.398" xlink:href="#a" gradientUnits="userSpaceOnUse" gradientTransform="translate(7.634 -.071)"/></defs><g><g><g><g fill="none" stroke="#104c22" stroke-width="1.3"><path d="M31.93 46.05c0 .05 0 .1 0 .14"/><path d="M31.35 45.33c-.37 0-.18.1-.14.3"/><path d="M16.65 44.17c-.05 0-.1 0-.15 0"/><path d="M36.1 44.6c0 .05 0 .1 0 .15"/><path d="M35.68 40.57c-.1 0-.2 0-.3 0"/><path d="M37.98 39.42c-.05 0-.1 0-.14 0"/><path d="M40 36.82c-.23.04-.25-.13-.43-.14"/><path d="M40.43 36.68c.05-.3-.4.03-.43.14"/><path d="M19.67 44.03c.18-.17.5-.16.87-.15.2-.06-.02-.12 0-.28"/><path d="M18.1 44.17c.17.2.67.2.85 0"/><path d="M16.65 44.75c.6.03 1.2.05 1.3-.43"/><path d="M16.5 44.17c0 .23-.06.55.15.58"/><path d="M15.92 44.46c.3 0 .2-.4.58-.3"/><path d="M15.06 44.03c.05 0 .1 0 .15 0 .05.33-.02.55-.14.72.27-.08.7-.57.57.14.14-.1.23-.27.3-.44"/><path d="M11.17 43.74c-.1 0-.2 0-.3 0-.03.96 1.85-.02 2.03.72"/><path d="M11.9 43.02c-.25-.04-.26.14-.44.14-.04.66.86-.32.86.44"/><path d="M10.16 40.86c-.2 0-.4 0-.58 0 .35.18.43.63 1 .58"/><path d="M15.06 42.44c-.2-.03-.05-.43-.3-.43"/><path d="M16.65 41.44c.48.38 1.2.53 1.58 1-.25.04-.72-.14-.58.3"/><path d="M16.2 41c.08.13.14.26.3.3"/><path d="M15.92 39.27c.17.4-.08.52.3.58"/><path d="M14.48 39.27c0 .05 0 .1 0 .15.52-.13.86.4 1-.15"/><path d="M11.9 37.4c.1.13.25.22.42.3"/><path d="M9.87 36.25c.13.3.77.95.87.43-.03.37.36.5 1 .3.08.1.16.22.15.42"/><path d="M9.73 35.96c-.17.17-.13.3.14.3"/><path d="M9.44 34.95c-.34-.05-.55.02-.72.14-.1.5.42.43.86.42-.1.14-.33.54.15.44"/><path d="M9.44 34.23c.08.08.33.68 0 .72"/><path d="M8.28 32.93c0-.24 0-.48 0-.72"/><path d="M8.86 33.94c-.86-.03.04-.82-.58-1"/><path d="M12.18 38.26c.1-.12.15-.32.14-.57"/><path d="M13.04 38.7c-.36.02-.6-.08-.72-.3"/><path d="M16.93 42.44c.1.2.56.03.58.3"/><path d="M11.6 42.3c-.3-.26-1-.14-1.15-.58"/><path d="M31.64 45.76c-.14-.1-.22-.26-.3-.43"/><path d="M36.25 32.5c0-.05 0-.1 0-.15"/><path d="M37.26 31.77c.05.25-.1.28-.3.3.13.14.7.54.73.28"/><path d="M36.97 31.34c-.14 0-.3 0-.43 0 .24.26.04.9-.3 1"/><path d="M35.68 29.18c0-.05 0-.1 0-.14"/><path d="M35.82 29.47c.02-.17-.03-.26-.14-.3"/><path d="M35.53 25.43c.27.14.48-.43.58 0 .1-.24.44-.23.58-.43"/><path d="M36.83 26.88c.12.02.14-.06.14-.15"/><path d="M36.25 27.6c-.35-.8 1.14-.15.58-.72"/><path d="M36.68 27.6c-.18-.18-.23-.06-.43 0"/><path d="M36.97 26.73c-.03-.37-.25.2-.57 0"/><path d="M9.15 34.08c0-.14-.18-.1-.3-.14"/><path d="M9.44 34.23c-.17.02-.26-.03-.3-.15"/><path d="M12.32 38.4c-.26.05-.3-.13-.14-.14"/><path d="M14.48 39.27c.14-.82-1.04-.6-1.3-.28-.13-.02-.1-.2-.14-.3"/><path d="M15.92 39.27c-.14 0-.3 0-.43 0"/><path d="M16.2 41c-.18 0-.37 0-.56 0 .4-.6 1.4-.63 2.16-.86-.08-.12-.15-.23-.15-.44-.64-.23-1.55.56-1.44.15"/><path d="M16.65 41.44c-.13.02-.14-.06-.15-.15"/><path d="M17.5 42.73c.06 0 .1 0 .15 0"/><path d="M15.06 42.44c.62 0 1.25 0 1.87 0"/><path d="M10.16 40.86c1.03.7 2.1.67 3.3.58.3.34.63.63 1.3.57"/><path d="M10.45 41.72c0-.14.17-.1.3-.14 0-.12-.07-.14-.16-.14"/><path d="M11.9 43.02c.26-.26-.2-.42-.3-.72"/><path d="M11.17 43.74c.5-.1 1 .45 1.15-.14"/><path d="M15.06 44.03c-.56.12-.52-.35-.87-.43-.3.7-.84.3-1.3.86"/><path d="M18.1 44.17c0 .13-.07.14-.16.15"/><path d="M19.67 44.03c-.16.12-.38.2-.72.14"/><path d="M23.85 43.3c-.34 0-.42-.24-.86-.14.07-.1.14-.23.14-.43-.96.2-1.63.68-2.6.87"/><path d="M14.9 25.3c0-.06 0-.1 0-.16"/><path d="M32.94 24.86c-.2.05-.23.25-.44.3"/><path d="M32.5 25.14c0 .05 0 .1 0 .15"/><path d="M32.94 24.86c0-.1 0-.2 0-.3"/><path d="M33.37 24.7c-.12.1-.23.16-.43.16"/><path d="M30.48 20.96c.07-.2.13.02.3 0"/><path d="M33.37 19.66c-.4-.1-.3.3-.58.3"/><path d="M32.8 19.95c-.05.34-.4.34-.6.15-.13.43.34.25.6.3 0 .04 0 .1 0 .13"/><path d="M23.27 19.23c-.04 0-.1 0-.14 0"/><path d="M33.66 19.1c.02.1-.06.12-.15.13"/><path d="M33.5 19.23c0 .12-.13.15-.13.3"/><path d="M32.22 15.5c0-.06 0-.1 0-.16"/><path d="M33.37 14.77c-.03-.12-.15-.15-.15-.3"/><path d="M28.6 12.6c0 .1 0 .2 0 .3"/><path d="M24.43 9.14c-.3.53-.46-.28-.72-.3"/><path d="M24.29 8.57c-.48.28-.2.38.13.57"/><path d="M29.04 4.53c.12-.03.15-.14.3-.14"/><path d="M22.7 14.33c0-.04 0-.1 0-.14"/><path d="M22.84 14.33c-.04 0-.1 0-.14 0"/><path d="M23.27 7.4c.27.13.44.7 0 .73.34.06.2.58.44.72"/><path d="M32.22 16.2c.18-.24.68-.17.72-.57"/><path d="M32.8 21.26c0 .4-.25.28 0 .57"/><path d="M38.4 25.43c-.63-.18.4-1.27-.56-.57"/><path d="M38.4 36.68c0-.05 0-.1 0-.15"/><path d="M38.84 36.68c-.03.18-.43.2-.43 0"/><path d="M38.84 37.98c.2 0 .4 0 .58 0"/><path d="M35.96 40.86c.3.28.82.1 1.16 0-.05.54-1.1.54-1.16 0z"/><path d="M27.17 1.07c-.07.55-.23 2.82-.3 1.6 0-.32-.23-1.32.3-1.6z"/><path d="M39.42 34.52c-.3.3-.7.55-1.3.57.22-.4.9-.36 1.3-.6z"/><path d="M25.73 43.88c.9-.5 2.1-.12 2.88.3"/><path d="M10.16 33.22c-.4-.03-.6-.25-.58-.72-.3-.03-.06.5-.14.72-.56-.16-.7-.73-1.16-1"/><path d="M10.73 33.36c-.26.02-.3-.18-.57-.14"/><path d="M10.88 33.36c-.05 0-.1 0-.15 0"/><path d="M11.9 33.94c-.3.04-.7-.28-1.02-.58"/><path d="M15.06 35.1c-.78-.5-1.6-.16-1.73-.73-.3.25-.42.33-.86.15.24-.3-.02-.2 0-.58-.22.16-.37.16-.58 0"/><path d="M15.63 35.38c-.02-.27-.48-.1-.57-.3"/><path d="M17.37 34.95c0 .05 0 .1 0 .14-.63-.34-.94.35-1.73.28"/><path d="M17.37 34.52c0 .14 0 .28 0 .43"/><path d="M17.22 34.52c.05 0 .1 0 .15 0"/><path d="M16.36 34.23c.18.2.5.27.86.3"/><path d="M14.9 33.94c.26 0 .5 0 .74 0-.04.2-.43.05-.43.3.3.86.68.3 1.16 0"/><path d="M14.48 33.94c.15 0 .3 0 .43 0"/><path d="M14.05 33.8c.12.07.23.14.43.14"/><path d="M13.47 33.22c.02.37.2.56.58.57"/><path d="M12.9 33.22c.2 0 .38 0 .57 0"/><path d="M12.18 32.5c-.24.6.7 1.3.72.72"/><path d="M11.6 31.92c-.1.5.08.7.58.58"/><path d="M11.02 30.33c.12.03.15.15.3.15-.15.4-.4-.2-.6.14.42.27.4.95 1.17.87-.02.13-.2.1-.3.13-.2.07.02.13 0 .3"/><path d="M11.17 30.04c-.23-.35-.58-.57-.87-.86-.42.2.72 1.07-.43.86.25.23.77.2 1.15.3"/><path d="M12.18 30.33c-.16.04-.1.3-.3.3-.48.05-.43-.44-.7-.6"/><path d="M13.2 30.48c-.4 0-.84.05-1.02-.15"/><path d="M14.05 31.34c-.1 0-.2 0-.3 0-.04-.42-.24-.7-.56-.86"/><path d="M14.2 31.34c-.05 0-.1 0-.15 0"/><path d="M14.77 31.5c-.13-.12-.32-.17-.58-.16"/><path d="M15.06 30.9c-.02.27.18.3.15.6-.14 0-.3 0-.43 0"/><path d="M13.76 30.33c-.43.1.14.3 0 .58.4-.47.83-.2 1.3 0"/><path d="M12.6 29.32c-.13 0-.28 0-.42 0 .2.76.75.38 1.44.73.02.1.14.14.14.28"/><path d="M12.75 29.32c-.04 0-.1 0-.14 0"/><path d="M12.75 29.18c0 .05 0 .1 0 .14"/><path d="M12.32 28.46c-.33-.04-.54.04-.58.3.28-.1.42.03 1 .42"/><path d="M13.33 28.17c-.6.08-.5-.57-1-.58-.35.12.4.35.14.86-.05 0-.1 0-.15 0"/><path d="M13.33 28.03c0 .04 0 .1 0 .14"/><path d="M13.76 28.32c0-.54-.73-1-.43-.3"/><path d="M14.48 28.6c-.02-.3-.36-.3-.72-.28"/><path d="M15.06 28.32c-.23.06-.12.45-.58.3"/><path d="M15.5 28.17c-.13.07-.24.15-.44.15"/><path d="M14.9 26.6c.3.05.38.3.74.28 0 .5-.3.66-.87.57.02.32.6.06.87.14.06.3-.1.38-.15.57"/><path d="M14.2 26.44c.37 0 .17.1.14.3.26 0 .3-.2.58-.15"/><path d="M14.2 25.3c-.1 0-.2 0-.3 0 0 .16.28.74.3 1.14"/><path d="M14.9 25.14c-.24-.26-.4.07-.7.15"/><path d="M15.63 24.57c-.3.14-.6.25-.72.57"/><path d="M17.22 25c-.17-.5-1.03-.32-1.58-.43"/><path d="M18.38 25.72c-.16-.47-.74-.5-1.16-.72"/><path d="M19.53 26c-.1-.5-1.06-.98-1.16-.28"/><path d="M20.25 25.87c-.14 0-.1.17-.14.28-.27-.26-.1-.26-.57-.14"/><path d="M20.25 25.58c0 .1 0 .2 0 .3"/><path d="M19.67 25.14c.3.05.28.4.58.44"/><path d="M19.1 24.13c0 .54.23.83.57 1.02"/><path d="M18.66 24.13c.13-.02.14.06.15.15.52-.15-.1-.64.44-.58.04.23-.14.25-.14.43"/><path d="M17.8 23.56c.07.5.55.37.86.3-.08.1-.17.24 0 .27"/><path d="M17.5 23.56c.1 0 .2 0 .3 0"/><path d="M17.22 23.41c.14.1.22.4.3.16"/><path d="M16.5 22.12c.47.5.43.85.72 1.3"/><path d="M16.93 21.68c.37.54-.36.13-.57 0 0 .2-.02.4.14.44"/><path d="M17.94 21.54c-.14-.38-.58-.48-.72-.87-.05.1-.24.66.15.73-.14.4-.4-.2-.58.14-.04.12.05.14.13.14"/><path d="M18.23 21.54c-.1 0-.2 0-.3 0"/><path d="M18.52 21.97c-.12-.1-.08-.4-.3-.43"/><path d="M19.1 22.55c-.07-.3.1-.38.14-.58-.02-.32-.36.2-.72 0"/><path d="M19.38 22.4c-.1.03-.14.15-.3.15"/><path d="M19.82 22.26c-.22-.56-.23-.03-.44.15"/><path d="M20.97 22.84c-.2-.4-.7-.18-1.15-.58"/><path d="M21.26 22.98c0-.14-.18-.1-.3-.14"/><path d="M21.55 23.12c0-.36-.1-.17-.3-.14"/><path d="M22.27 23.41c-.1-.23-.68.03-.72-.28"/><path d="M23.13 22.98c-.18.25-.86 0-.86.43"/><path d="M23.56 22.84c.1.48-.3.23-.43.14"/><path d="M21.55 21.83c-.12.03-.15.14-.3.14.4.7 1.34.22 2.03.3-.46.2-.23.57.3.57"/><path d="M21.1 21.1c.1 0 .2 0 .3 0-.04.4-.3.48.3.44 0 .17-.04.26-.15.3"/><path d="M20.68 21.1c-.35.67.16.23.43 0"/><path d="M19.24 20.53c.43.05.74.22.87.58.18-.03.6-.63.58 0"/><path d="M19.24 19.52c-.54.24-.73.93 0 1"/><path d="M19.1 18.8c.02-.12-.06-.13-.15-.14-.1.23.08.5.3.86"/><path d="M22.4 20.24c-.35.2-.7-.32-.7 0 0-.44-.62-.48-.3-1.15-.47 0-.34.6-.86.56-.4-.4-.6-.37-.43-1.15-.2.1-.26.32-.28.6-.47.06-.3-.73-.73-.3"/><path d="M22.7 20.24c-.04-.18-.3-.14-.3 0"/><path d="M23.27 20.4c-.04-.2-.36-.13-.57-.16"/><path d="M23.56 19.95c-.4.02-.3-.23-.57 0-.06.4.8-.13.56.44-.1 0-.2 0-.3 0"/><path d="M23.13 19.23c.04.24-.13.25-.14.43.24.04.7-.14.56.3"/><path d="M22.84 19.1c.12.02.15.14.3.13"/><path d="M22.7 19.1c.05 0 .1 0 .15 0"/><path d="M21.98 18.5c-.04.4.56.13.43.6-.18 0-.38 0-.56 0-.03.22.88.22.86 0"/><path d="M21.7 17.8c-.17-.03-.27.02-.3.14-.04.37.3.37.58.43"/><path d="M22.13 17.07c-.13.26-.38.4-.44.72"/><path d="M22.13 16.93c0 .04 0 .1 0 .14"/><path d="M22.27 16.78c-.3.1-.95-.18-1 .15.13.4.6-.04.85 0"/><path d="M22.27 16.64c0 .05 0 .1 0 .14"/><path d="M20.54 16.06c.6.02.03.1 0 .3.54.34 1.4.02 1.73.28"/><path d="M20.25 15.2c-.04.16-.3.1-.3.3.27.1.46.3.6.56"/><path d="M20.97 15.46c-.08-.42-1.46-.74-.72-.26"/><path d="M21.4 15.92c.2-.52-.53-1.26-.43-.43 0-.02 0-.03 0-.04"/><path d="M22.7 16.35c-.5-.07-.5-.64-1-.72-.24.1.4.68-.3.3"/><path d="M22.84 16.35c-.04 0-.1 0-.14 0"/><path d="M22.56 15.92c.17.06.3.18.3.43"/><path d="M23 15.05c0 .05 0 .1 0 .15-.25 0-.5 0-.73 0 .5.15-.02.53.3.72"/><path d="M23 14.9c0 .06 0 .1 0 .15"/><path d="M22.13 14.62c-.68.2.87.15.86.3"/><path d="M21.84 13.76c-.1-.15-.34-.15-.3-.44-.24-.05-.27.12-.28.3-.4.02.12-.9-.3-.87-.36.03.2.25 0 .57-.4-.2-.37-.87-1.14-.72.12.42.2.17.58.15-.58.27.28.45-.3.72.02.32.62.06.87.14-.82.35.22 1.05 1.15.88 0 .04 0 .1 0 .14"/><path d="M22.13 14.33c.03-.32-.04-.54-.3-.57"/><path d="M22.7 14.2c-.12-.44-.2.32-.57.13"/><path d="M23 13.6c-.4-.1.1.7-.3.6"/><path d="M22.4 12.75c.48.33.26.46.6.86"/><path d="M22.4 12.17c-.1.26-.47.45 0 .58"/><path d="M22.27 11.45c-.4.18.62.42.14.72"/><path d="M22.27 11.16c.1.13.17.26 0 .3"/><path d="M22.4 10.3c0-.2 0-.4 0-.58-.44.2-.78-.04-1.14-.3.4.55.14 1.23 1 1.74"/><path d="M23 10.15c0-.04 0-.1 0-.14-.3-.04-.46.04-.44.3-.05 0-.1 0-.15 0"/><path d="M23.13 10.58c-.08-.1-.15-.23-.14-.43"/><path d="M23.7 10.73c0-.22-.38-.47-.28 0-.1-.03-.15-.15-.28-.15"/><path d="M24.43 11.16c-.04-.66-.64.13-.72-.43"/><path d="M24.72 11.02c-.12.02-.15.14-.3.14"/><path d="M24.86 10.44c-.6-.04.02.2-.14.58"/><path d="M24 9.58c-.04.15-.3.1-.3.28.46.14.9.03 1.16.44 0 .04 0 .1 0 .14"/><path d="M23.42 9.58c.2 0 .38 0 .58 0"/><path d="M22.84 9.14c.03.17.15.08.15 0 .27.02-.32.62.42.44"/><path d="M22.84 8.7c-.13-.24-.32-.44-.57-.57-.35.3.1 1.03.57 1"/><path d="M23 8.7c-.06 0-.1 0-.15 0"/><path d="M23.27 7.4c.14.67-.23.83-.28 1.3"/><path d="M24.43 8.57c-.05 0-.1 0-.14 0"/><path d="M24.43 8c0 .18 0 .38 0 .57"/><path d="M24.57 6.98c-.2.42 0 .45-.14 1"/><path d="M24.86 6.84c-.17-.03-.25.03-.3.14"/><path d="M25.3 6.84c-.1-.3-.3-.47-.44-.72-.33.03-.08.63 0 .72"/><path d="M26 7.56c-.2-.18-.32-.55-.13-.72-.4-.02-.3.24-.57 0"/><path d="M26.3 6.4c.2.68-.47.5-.3 1.16"/><path d="M26.74 5.83c-.22.07-.37.2-.58.3-.02.15.03.24.14.27"/><path d="M26.74 5.68c0 .05 0 .1 0 .15"/><path d="M26.6 4.96c-.04.12-.15.15-.15.3-.4.1-.38-.2-.72-.15 0 .5.53.43 1 .44 0 .05 0 .1 0 .14"/><path d="M26.45 4.4c0 .2-.07.54.14.56"/><path d="M26.3 3.67c-.4.1-.3-.3-.57-.3-.23.25.58.67.72 1.02"/><path d="M26.6 3.8c0-.13-.18-.1-.3-.13"/><path d="M26.88 3.38c-.25-.55 0 .56-.3.43"/><path d="M27.32 3.38c.02-.5.5-.55.57-1-.43-.02-.63.54-1.02 1"/><path d="M27.17 3.95c-.02-.26.18-.3.14-.57"/><path d="M27.03 4.82c.5-.52 1.43-.8 2-1.6-.64.44-1.58.57-1.86.73"/><path d="M27.17 4.82c-.05 0-.1 0-.15 0"/><path d="M28.46 5.1c-.25-.26-.83-.68-1.3-.28"/><path d="M29.04 4.53c-.4-.02-.36.4-.57.58"/><path d="M29.33 4.4c.1-.35.48-.4.58-.73-.23-.23-.72.5-.86.86"/><path d="M29.04 5.54c.4-.04.26-.6.58-.72-.02-.17-.26-.12-.44-.14.03-.12.15-.15.15-.3"/><path d="M29.04 5.68c0-.04 0-.1 0-.14"/><path d="M29.2 5.83c0-.13-.07-.14-.16-.15"/><path d="M29.62 5.68c-.23-.04-.25.14-.44.15"/><path d="M29.2 6.7c.86.14.58-.86 1-1.16-.26-.02-.3.18-.58.14"/><path d="M29.04 6.98c.03-.12.15-.14.15-.3"/><path d="M27.74 8.28c.33.22.96-.48 1.3-.72-.1-.15-.33-.15-.3-.44.2.17.3.13.3-.14"/><path d="M27.6 8.42c-.02-.12.06-.13.14-.14"/><path d="M27.9 9.14c.05-.13.12-.26.28-.3-.14-.18-.4-.27-.58-.42"/><path d="M28.46 9.58c-.1 0-.2 0-.28 0-.05-.2-.26-.23-.3-.44"/><path d="M30.2 10.15c.13-.1.2-.26.28-.43-.03-.18-.43-.2-.43 0-.42-.4.68-.46.72-.87-.4-.34-.75.6-1.15.73-.13-.16-.53-.05-.43-.44-.38.02-.52.27-.73.44"/><path d="M28.9 11.16c.47.22 1.02-.56 1.3-1"/><path d="M28.32 12.03c.54-.2.3-.34.58-.87"/><path d="M28.9 11.88c-.03.26-.25.33-.58.3"/><path d="M30.48 11.45c-.65-.2-1.34.4-1.58.43"/><path d="M30.63 11.45c-.05 0-.1 0-.15 0"/><path d="M30.48 11.88c.27-.3.9-.26 1-.72-.48-.1-.6.16-.85.3"/><path d="M30.34 12.3c.12-.06.23-.13.43-.13-.03-.16-.28-.1-.3-.3"/><path d="M30.05 12.3c.13.1.26.2.3 0"/><path d="M28.6 12.9c.27.2.34.12.3-.3.54.3 1.23.03 1.15-.3"/><path d="M28.46 12.9c.05 0 .1 0 .15 0"/><path d="M28.03 13.47c.15 0 .3 0 .43 0-.05-.28-.55-.12-.43-.58.12.1.4.2.43 0"/><path d="M28.03 13.76c-.2-.07.02-.13 0-.3"/><path d="M28.6 14.33c-.2-.18 0-.76-.57-.57"/><path d="M29.04 14.62c.07-.3-.2-.27-.43-.3"/><path d="M29.62 14.62c0 .15 0 .3 0 .43-.3-.04-.28-.4-.58-.43"/><path d="M29.76 14.2c-.07.1-.15.22-.14.42"/><path d="M30.92 14.04c-.36-.28-1.05-.4-1.16.15"/><path d="M31.64 13.76c-.46-.13-.45.23-.72.28"/><path d="M31.93 13.47c0-.34-.4.05-.3.3"/><path d="M32.22 14.04c.33-.47.9-.7 1.3-1.15-.58.05-.8.46-1.16.7-.23.05-.25-.12-.43-.13"/><path d="M32.07 14.04c.05 0 .1 0 .15 0"/><path d="M31.78 14.33c.13-.06.26-.12.3-.3"/><path d="M32.65 14.48c0-.05 0-.1 0-.15-.5-.08-.48.68-.87.3 0-.1 0-.2 0-.3"/><path d="M33.22 14.48c-.12.06-.25.13-.28.3-.16-.05-.1-.3-.3-.3"/><path d="M32.22 15.5c.24 0 .47 0 .72 0-.3-.42.3-.2 0-.73.14 0 .28 0 .43 0"/><path d="M32.94 15.63c-.25 0-.38.1-.44.3-.13-.1-.22-.4-.28-.15-.2-.04-.15-.3 0-.3"/><path d="M32.65 17.5c.2-.12.94-.7.57-.14.4-.2.35-.8.58-1.15-.93-.06-.45 1.28-1.58 1.02-.1-.26.4-.6 0-.72.2.04.93-.63.72-.87"/><path d="M32.5 17.8c.03-.13.15-.15.15-.3"/><path d="M33.22 18.37c-.24 0-.48 0-.72 0 .25-.48.96-.5 1.16-1-.3-.28-.66.58-1.16.57 0-.05 0-.1 0-.15"/><path d="M33.66 19.1c-.1-.3-.42-.48-.15-.73-.1 0-.18 0-.28 0"/><path d="M33.37 19.52c.55-.2.94-.6 1.3-1-.57-.05-.45.6-1 .57"/><path d="M33.37 19.66c0-.04 0-.1 0-.14"/><path d="M32.8 20.53c.16-.04.67-.44.28-.58.05-.2.36-.12.58-.14 0-.13-.18-.1-.3-.14"/><path d="M31.93 20.53c.14.4.6-.04.86 0"/><path d="M30.77 20.96c.2-.43.5-.1 1.16-.43"/><path d="M31.06 20.96c-.1 0-.2 0-.3 0"/><path d="M32.8 21.26c-.15.1-.23.25-.3.42-.46-.07-.85-.52-1.15 0-.3-.14.24-.57-.3-.72"/><path d="M34.23 21.54c-.2 0-.38 0-.57 0 .27-.4.7-.65 1-1-.26-.17-.93.5-1.15.86-.24-.1 0-.27 0-.44-.7-.05-.05.74-.7.3"/><path d="M34.8 21.97c-.04 0-.1 0-.14 0-.06-.45.4-.38.44-.7-.26.1-.72.03-.87.27"/><path d="M35.1 21.97c-.1 0-.2 0-.3 0"/><path d="M35.24 21.83c-.12-.03-.14.05-.14.14"/><path d="M35.53 22.55c.36-.2.25-.5.15-.87-.2 0-.4-.02-.44.15"/><path d="M34.52 23.85c.08-.12.15-.24.14-.44.15.02.3.02.44.02.08-.16-.05-.76.43-.87"/><path d="M33.37 24.7c.26-.37 1.4-.4 1.15-.85"/><path d="M32.5 25.3c.56.06.77-.2.87-.6"/><path d="M32.65 25.72c-.08-.12-.15-.23-.15-.43"/><path d="M33.37 25.87c-.4.1-.38-.2-.72-.15"/><path d="M33.94 26c-.25.03-.3-.17-.57-.14"/><path d="M34.8 25.72c-.15-.33-.73.12-.86.3"/><path d="M35.53 25.43c0 .1 0 .2 0 .3-.2-.2-.53-.2-.72 0"/><path d="M36.68 25c-.36-.3-.95.12-1.15.43"/><path d="M37.26 25.14c-.05-.2-.36-.1-.58-.14"/><path d="M37.84 24.86c-.03.26-.5.08-.58.3"/><path d="M38.4 25.43c-.43-.66.66-.83 1.02-1.15-.07-.12-.15-.24-.14-.43-.68.14-1.12.5-1.44 1"/><path d="M36.68 27.6c.17-.17.5-.17.87-.15.06-.36.46-.4.72-.57-.2-.27-.65.3-1 0-.06-1.02 1.38-.54 1.57-1.3-.02-.17-.26-.13-.43-.15"/><path d="M35.82 28.32c-.27-.8.92-.15.86-.73"/><path d="M35.82 29.47c.28-.25.72-.34.86-.72-.25-.2-.37-.5-.86-.43"/><path d="M37.12 29.32c-.57-.03-1 .06-1.16.44-.14 0-.1-.18-.14-.3"/><path d="M37.98 29.04c-.25.13-.72.05-.86.28"/><path d="M37.12 30.77c.16-1.04 1.33-1.07 1.87-1.73-.1-.3-.9-.14-1.02 0"/><path d="M36.97 31.34c-.06-.3.1-.38.15-.57"/><path d="M37.26 31.77c-.17-.02-.26.04-.3.15-.35-.02-.03-.5 0-.58"/><path d="M37.7 32.35c-.05-.23.13-.25.14-.43-.3.06-.38-.1-.58-.15"/><path d="M38.56 33.5c-.1-.56.76-.55.72-1.43-.52.07-1.13.6-1.6.28"/><path d="M37.98 33.94c.47.13.2-.48.58-.43"/><path d="M37.26 34.08c.2-.08.75.17.72-.14"/><path d="M36.4 34.23c0 .36.6.42.43-.15.14 0 .3 0 .43 0"/><path d="M36.1 34.52c-.05-.25.12-.28.3-.3"/><path d="M36.54 35.1c.04-.4-.56-.12-.43-.6"/><path d="M36.83 35.52c-.02-.17-.27-.1-.44-.14.02-.12.14-.14.14-.3"/><path d="M37.26 35.52c-.14 0-.3 0-.43 0"/><path d="M38.4 36.53c-.12-.25-.26-.5-.7-.43.16-.3.15-.8.42-1-.42 0-.5.37-.86.42"/><path d="M38.84 36.68c-.45-.12.26-.2.44-.15-.38-.4-.5-.15-.87 0"/><path d="M39.57 36.68c-.24 0-.48 0-.73 0"/><path d="M40.43 36.68c.14 0 .1-.18.15-.3-.05-.16-.9.05-1 .3"/><path d="M39.57 37.98c.35-.37.75-.7.86-1.3"/><path d="M39.42 37.98c.05 0 .1 0 .15 0"/><path d="M38.27 39c.15.35.93-.6.57-.74.14-.4.53.3.58-.28"/><path d="M37.98 39.42c.67.12-.1-.48.3-.43"/><path d="M37.12 39.7c.25-.13.7-.05.86-.28"/><path d="M36.1 39.7c.42.15.6.15 1.02 0"/><path d="M35.96 40.14c.3-.06.38.1.58.14.1-.38-.3-.28-.43-.43 0-.05 0-.1 0-.15"/><path d="M35.68 40.28c0-.14.17-.1.28-.14"/><path d="M35.68 40.57c.1 0 .2 0 .28 0-.06-.13-.12-.26-.28-.3"/><path d="M39.7 41.87c.45-.18-.1-.55-.13-.72-.98.16-1.46-.04-2.3.3"/><path d="M38.84 42.3c.33-.1.8-.08.87-.43"/><path d="M37.4 42.73c.5.43 1.1-.24 1.44-.43"/><path d="M37.26 42.73c.05 0 .1 0 .14 0"/><path d="M36.83 43.02c.2-.33.46.28.43-.3"/><path d="M36.25 43.02c.2 0 .4 0 .58 0"/><path d="M37.12 43.3c-.1-.28-.8.04-.87-.28"/><path d="M39.7 43.45c.06 0 .1 0 .16 0-.63-.33-1.88-.05-2.74-.14"/><path d="M37.12 44.75c.95.23 2.13-.55 2.6-1.3"/><path d="M36.4 44.17c.23.2.45.4.72.58"/><path d="M36.1 44.6c-.1-.12-.15-.32-.14-.57.12.07.24.15.44.14"/><path d="M36.1 44.75c-.04.38.2.47.58.43.07-.45-.36-.4-.57-.57"/><path d="M33.94 44.75c.14-.06.26-.13.3-.3.36.17.7.37 1 .6.3-.2-.36-.6-.28-1.02.37.26.63.62 1.15.72"/><path d="M33.66 45.04c.03-.16.28-.1.28-.3"/><path d="M33.94 45.18c0-.14-.17-.1-.28-.14"/><path d="M34.52 45.9c-.4-.03-.44-.42-.58-.72"/><path d="M33.37 45.33c.14.14.28.3.43.43"/><path d="M32.65 45.04c.36-.02.44.22.72.3"/><path d="M31.64 45.76c0-.57.56-.6 1-.72"/><path d="M31.93 46.05c-.13-.07-.26-.13-.3-.3"/><path d="M31.93 46.2c.1.36.46.5 1 .42-.3-.2-.66-.4-1-.57"/><path d="M31.2 45.62c.3.14.23.63.73.57"/><path d="M30.92 45.62c.1 0 .2 0 .3 0"/><path d="M31.06 46.05c-.17-.02-.12-.27-.14-.43"/><path d="M30.34 46.34c-.02.12.06.13.14.14.5-.06.2-.4.73-.14.03-.17-.02-.26-.14-.3"/><path d="M30.2 46.2c-.03.12.05.13.14.14"/><path d="M29.62 45.76c.14.2.38.3.58.43"/><path d="M29.04 45.04c-.1.54.17.7.58.72"/><path d="M29.04 44.9c0 .04 0 .1 0 .14"/><path d="M28.6 44.17c.23.17.23.55.44.72"/><path d="M33.8 45.76c.3.1.47.3.72.43.17-.04.08-.15 0-.15 0-.05 0-.1 0-.15"/><path d="M34.52 45.9c.22.17.64.13.58.58-.54-.1-.62.25-1.16.14-.12-.5.48-.24.58-.14-.1-.32-.5-.36-.72-.58 0-.04 0-.1 0-.14"/></g></g></g><path fill="#cbe96a" d="M40.57 36.4c-.16.73-1.78.16-.16-.07l.17.06z"/><path fill="#89c139" d="M40 36.82c1.44-.64-1.33 1.9-.43.74.47-.35-.6-.18.44-.6v-.14z"/><path fill="#386a1c" d="M40 36.82c-.2.47-.8.48-.24.6-.78.3.14.8-1.35.56-.08-.9.78-1.3 1.6-1.16z"/><path fill="#386a1c" d="M39.85 43.45c-1.14 1.03-2.53 1.03-3.9.58.77 1.77-1.9-1.03-.63.83-.52-.2-1.42-.13-2.1-.4.22-.83.33-1.86.74-1.56-.43 1.3.8.04.4-.46 1.1.7 0 .64.02 1.14.35.06.34.17.8-.18.04 1 .3-.66 1.12.14.95.16 1.93-.64 3.55-.1z"/><path fill="#f4f8d9" d="M39.56 41.15c.95 1.15-.75.07-1.22.4-1.2-.15-1.1-.2.03-.32.4 0 .8 0 1.2-.08z"/><path fill="#cbe96a" d="M38.56 41.72c1.16-1.06 1.5.97.05.53-.14-.36.54-.66-.63-.33-1.33.3.66-.6-.85-.34.16.44-1.96.03-.65.8.2.28-.7-.23-.8.35-.2-.6-1.17-2.1.38-1.3.82.18 1.82-.3 2.5.3z"/><path fill="#e9f6a2" d="M38.84 36.68c1.96-.16-1.62 1.08-.43 0 .05.2.4.18.44 0z"/><path fill="#cbe96a" d="M38.84 37.97c1.2.03-.36.26-.37 1.08-.48-.1 0-.5-.05-.8l.22-.1.2-.18z"/><path fill="#f4f8d9" d="M39.28 23.85c.38.63-1.3 1.14-1.04 1.48.33-1.2-.9-.14.18-1.1.26-.2.55-.32.86-.38z"/><path fill="#89c139" d="M39.28 32.06c-.06 1.3-1.08 1.3-1.58 1.22.74.37-.2.46.2.8-1.54.25-.85-1.1-.14-1.23-1.04-.1-1.88.08-1.12-1.26-.1-.67.45-.12.22.3.55-.26.12.73 1.2.55.44-.04.8-.3 1.22-.4z"/><path fill="#f4f8d9" d="M39.28 36.53c-.46.07-1.26.47-.43-.2l.2.02.23.18z"/><path fill="#f4f8d9" d="M37.98 44.46c.88-.24 2.5-1.6.96-.2-1 .6-1.84.66-1.47.32-1.02-.7.3-.37.5-.12z"/><path fill="#89c139" d="M39.42 34.5c-.7.85-1.92.47-.34.14l.34-.13z"/><path fill="#89c139" d="M38.4 37.97c.88-.2-.36.58-.1.62-1.06-.2-.08 1.33-.9.4 0 1.16-1.17-.83-1.15.42-1.4-.7.35-1.48.9-1.34-.53-.65 1.37-.74.4.04.34.2.55-.2.86-.15z"/><path fill="#619924" d="M38.84 41.87c-.93.3.65.53-.66.88-1.07.27-.6-.2-.2-.45-.78-.43.6-.62.86-.43z"/><path fill="#89c139" d="M38.4 25.43c1.5.23-2.57 1.4-.57 1.47 1.36.03-2.68 1.25-1.2.25.57-.17.3-1.22 1.15-1.34.35-.92-2.07.33-1.26-.35.6.1 1.98-1.6 1.9-.02z"/><path fill="#619924" d="M37.98 29.04c2.36-.58-.96 1.2-.98 1.62-.54-.37.32.6-.7.38-.68.17-.3-.95-.08-.93-.53-.36-1.2.74-1.7-.06 1.32.5.38-.63 1.28-.77-.3 1.03 1.87-.48 1.1.22-.87.08-.4.5.14.34-.53.8 1.38-.3.94-.8z"/><path fill="#619924" d="M38.27 37.26c.86-1.02-.27 1.97 0 0z"/><path fill="#619924" d="M38.56 33.5c-.2.5-1.35.58-.44 0-1.22-.3.3-.62.44 0z"/><path fill="#cbe96a" d="M38.4 36.53c-.4 1.1-.35.63-1.14.44 1.2.65-.68 1.17-.56.28-1.33-.74-.1 1.77-.98.17-.5-1.07 1.54.3 1.25-1.03.07-.3 1.1-.46.3-.88 1.3-.98.18.3.7.58.23.04.35.25.44.43z"/><path fill="#a2d558" d="M38.4 39c-.27.36-.58.7-.7-.3.36-.2.5.13.7.3z"/><path fill="#386a1c" d="M38.12 37.83c.25.6-1.22.06-.03-.24-.35-.62.6-.4.02.23z"/><path fill="#e9f6a2" d="M37.98 37.4c.24.74-1.33-.77-.15-.43.05.1-.05.4.15.43z"/><path fill="#cbe96a" d="M37.98 29.04c.3.67-1.38 1.54-1.02.74-1.37.05.28-.2.32-.58.22-.1.48-.06.7-.16z"/><path fill="#386a1c" d="M37.98 42.3c-.33.7-1.18.1-.23-.05l.1.04h.13z"/><path fill="#cbe96a" d="M37.84 39.42c.08.63-2.08-.3-.44 0-.22-.77.22-.3.44 0z"/><path fill="#a2d558" d="M37.98 42.3c-.77-.3-.97 1.6-1.5.06-1.1-.65 1.08-.8 1.36-.64-.92.12-.07.25.14.58z"/><path fill="#a2d558" d="M37.26 31.77c1.66.46-.86 1.16 0 0z"/><path fill="#619924" d="M37.7 25.3c.64 1.3-1.26.2 0 0z"/><path fill="#89c139" d="M37.1 44.17c1.7 1.26-1.7-.13-.16.12l.17-.13z"/><path fill="#cbe96a" d="M36.97 32.64c.62.46 1.23.08 0 .58-1.24.45-.67-.72-.23-.52l.08-.06h.15z"/><path fill="#386a1c" d="M37.4 25.87c.16.1-.52.66-.52-.02-1.38.45.3-.74.52.02z"/><path fill="#a2d558" d="M37.26 35.52c1.3 1.2-1.54-.02 0 0z"/><path fill="#a2d558" d="M37.26 34.08c-.3 0-.97.87-.7-.13-1.53-.63 1.48-1.13.27 0 .1.03.4-.07.43.13z"/><path fill="#cbe96a" d="M37.26 25.14c-.7.44-1.04.12-.96 1-1.2-.03-.48 1.57-1.5.3-.33.75-1.3.3-1.14 1.12-.73-1.4.75-.67.87-1.46.92.23-.07-.9 1-.38.1-.35 1.2-.84 1.73-.58z"/><path fill="#89c139" d="M37.1 43.3c.38.8-2.1-.04-.8-.2.23.2.65-.07.8.2z"/><path fill="#619924" d="M37.1 36.1c.04 1.02-1.75.05-.33.18-.46-.53.18-.98.34-.18z"/><path fill="#619924" d="M37.1 25.87c.55 1.5-1.9.65-.5.13.15-.1.32-.24.5-.13z"/><path fill="#386a1c" d="M36.97 37.83c.77 1.03-2.9.05-.88.13.78-.4.78-.55-.1-.72.62-.37.93.14.97.6z"/><path fill="#386a1c" d="M36.97 30.48c.33.9-.55.76-.5 1.7-.7.46-.96.2-1.66-.55-.36.47.6 1.4-.27 1.06-.28.66.24-.97-.43.1-.43-.18-1.55-1 0-.73-1-.4-1.3-.6 0-.86.7.14.33-.85.7 0 .24-.7.48-.6.44-.15.33-.9 1.65.68 1.54-.3-.33-.17.14-.15.2-.27zm-.58 1.15c.37-.02-.83-.2-.87-.15.2-.66-1.2-.05-.15-.02-1.07.25.53.6 1 .17z"/><path fill="#a2d558" d="M36.83 39.27c.5.37-.24.84-.87.3.43.2.65-.25.87-.3z"/><path fill="#cbe96a" d="M36.4 26.73c1.88 0-2.23.45 0 0z"/><path fill="#386a1c" d="M36.83 26.88c.33.3-.95.44-.7.6-1.1-1.03-1.83.9-.9.84-.45-.2-2.13-1.04-.84-1.3.1-.3 1.6.44 1-.58.97-.5 1.18.53.3.47.28.35.8 0 1.13-.02z"/><path fill="#a2d558" d="M36.83 36.68c.44.47-1 .52-.2.14-1.03-.06-.7-1.04-1.17-1.4-.04-.7-.4-1.32.63-.76 1.18.47-1.04.8.14 1.2.38.52-.78.67.6.82z"/><path fill="#619924" d="M36.54 42.6c.82.75-1.56.38-1.3 1.28-.02-1.02-.6.15-.86-.3-.1-.73 1.7-.07 1.55-1.13.18-.23.48 0 .6.14z"/><path fill="#cbe96a" d="M36.83 35.52c.02 1.18-.68.6-.72-.07.46-.22.23.45.73.07z"/><path fill="#e9f6a2" d="M36.1 37.4c1.55-.37-.16 1.02-.1.02l.1-.02z"/><path fill="#89c139" d="M36.83 35.52c-.63.5-.52-.6 0 0z"/><path fill="#a2d558" d="M36.1 44.6c1.27.28-.12 1.07 0 0z"/><path fill="#cbe96a" d="M36.68 27.6c-.43.3-1.6 1-.8.15.06-1.13 0 0 .8-.16z"/><path fill="#386a1c" d="M36.68 39.27c-.65 1.18-2.06-1.04-.62.08.45.2.34-1.07.62-.08z"/><path fill="#f4f8d9" d="M37.1 40.86c-.44.96-1.92-.26-.26.08l.27-.08z"/><path fill="#619924" d="M36.1 39.85c1.05.77-.6-.03-.66-.14-.65.58-.53-.58-.65.63-.35.45 1.33-.05.16.53-.5.6-1 .44-.9-.03.57-.46-.35-.5-.6-.54.46-.66.17-.9.82-.05.3-.4-.78-1.4 0-1.12.23.68 1.48-.15.12-.3-.4-.04-1.5.96-.65-.08 1.08-.6.17-.55-.08-.5-.02-.44-1.22.45-.4-.4.3-.66 1.98.32 1-.37-.68-.27 1.45-.7-.04-.52.13-.42 1.13-1.08.03-.44-1.98-.3 1.93-.8-.26-.73-.74-.3-.9-.55-.4-.47-.46-.58-3.13.17-.95-.68 1.8 1.4-1.6-1.56-.04-.76.74.1 1.25-1.1-.05-.7-.98-.6.6-.1-.3-.88-.83-.42 1.1.26.97-.26.4.43.68.56.37 1.04 1.47.17-1.4 1.34.22 1.9.14-.4.8 0 .44.24.32 1.02.9-.5 1.16.4-.24.08.18 1.88.25.6.08.36 1.76.75.3.72-.94.04-1.15-.26-.66.4.4.96.34.7-.5 1.04 1.63.1-.14.82 1.3 1.3v.15z"/><path fill="#a2d558" d="M36.54 31.63c-.7.7-1.58-.7 0 0z"/><path fill="#89c139" d="M36.1 33.5c1.1.58-.62 1.53-1.1.48.25-.04.6-.75.83-.5.03-.13.26-.14.28.03z"/><path fill="#f4f8d9" d="M35.53 25.43c.43-.74 1.68-.57.58 0-.08-.43-.35.16-.57 0z"/><path fill="#89c139" d="M36.54 35.1c-.32.8-1.5.5 0 0z"/><path fill="#619924" d="M36.25 32.5c.24.46-.18 1.37-.62.9-1.28-.63.55-.3.33-.77l.07-.14h.22z"/><path fill="#a2d558" d="M36.68 28.75c-.66 1.7-2.2-.9-.56-.4.24.05.38.26.56.4z"/><path fill="#cbe96a" d="M36.25 32.35c0 .96-1.88.63-1.44-.72.97.55.53 1.15 1.45.72z"/><path fill="#a2d558" d="M36.25 30.33c-.15-.37-1.6 1.33-.88.32-.96.15 1.04-1.36.88-.32z"/><path fill="#619924" d="M36.1 27.3c-.12.3-.7.72-1.08-.03.34-.16.76-.13 1.1.04z"/><path fill="#89c139" d="M35.96 40.57c-1.37-.17-.7-1.16 0 0z"/><path fill="#89c139" d="M35.53 35.67c.76.15-.26 1.95-.22.4-.36-.44.22-.14.23-.4z"/><path fill="#a2d558" d="M35.82 38.4c.1.75-.42.25-.45.1-1.44-.1.2-.6.45-.1z"/><path fill="#386a1c" d="M35.96 40.14c-.5.03-1.2-.17-.3.43-.76 0-1.2 0-.7-1 .06 1 .67-.52 1 .57z"/><path fill="#89c139" d="M35.53 36.97c.7.92-.3 1.3-.14.14-.8-.14-.46-.3.13-.13z"/><path fill="#89c139" d="M35.82 28.32c-1.14.3-1.5-1.22-.15-.58-.1.13-.2.6.15.58z"/><path fill="#f4f8d9" d="M35.67 21.68c.4 2.2-1.13-.2 0 0z"/><path fill="#89c139" d="M35.4 42.3c1.18.7-1.1 1.35-.6.14 1.15.13-1.18-.5.13-.95.3-.7.46.7.46.8z"/><path fill="#a2d558" d="M35.67 40.57c-.5.77-1.6.83-.35.12l.07-.13h.27z"/><path fill="#619924" d="M35.67 31.63c-.3.53-.96-.15-.3-.17-1-.2.32-.53.3.17z"/><path fill="#cbe96a" d="M35.67 29.04c-.5.84-.13 1.34-1.44.96-.1-.87.56.32.8-.38-1.16-.28.92-.14.07-.73.2-.06.36.17.57.14z"/><path fill="#619924" d="M35.67 29.04c-.93-.5-.1.85-1.15.14-.9-.37-.2-.44.43-.43-.73-1.18.55-.26.72.3z"/><path fill="#cbe96a" d="M35.53 34.66c-.1 1.2-.35.5-1.16 1-.7-1.03 1.04-.02 0-1 .6-.06.6.57 1.16 0z"/><path fill="#386a1c" d="M35.1 33.22c.83.1-.1 1.12-.4 1.12-1.06-.25.64 1.6-.34.48-1.2.24.6-1.08.4-1.03 1.3-.65-1.13-.14.34-.58z"/><path fill="#e9f6a2" d="M35.53 22.55c-.73.25-.3-.77 0 0z"/><path fill="#a2d558" d="M35.24 22.26c.32.38-.24 1.5-1.15 1.6-.35-1.13.52-.28 0-1.14-.28-.92 1.93-.77.27-.3.3.17.6 0 .87-.16z"/><path fill="#e9f6a2" d="M35.24 21.83c.37.87-1.76.6-.15.28 0-.08-.05-.3.14-.27z"/><path fill="#619924" d="M35.4 27.02c-1.32.43-.83-1.4 0 0z"/><path fill="#89c139" d="M34.54 33.76l-.17-.1.17.1zm0 0c.57.5-1.75 1.5-.6.6-.98-.45-.15-.03.38-.76-.3-1.38 1.48-.68.33-.07.98-.53.6.32-.1.23z"/><path fill="#cbe96a" d="M35.24 42.44c-.87.24-2.24-1.4-.72-.72.15.68.2.44.72.72z"/><path fill="#619924" d="M35.4 34.37c-.13 1.2-2.02-.3-.3-.14l.15.06.14.07z"/><path fill="#cbe96a" d="M34.52 30.2c1.3-.1.07 1.34.02.73-.14.54-2.48.78-1.32.12.58.37.52-.6 1.3-.43-.12-.2-.5-.43 0-.43z"/><path fill="#f4f8d9" d="M34.52 45.9c1.9.7-1.66.78-.15.5.17.02-1.33-1.17.15-.2.3-.1-.17-.12 0-.3z"/><path fill="#a2d558" d="M34.66 29.32c.57.38.15.65-.22.43-.18-.44-.37.4.08.44-.54.1-1.85-.3-1.83-.1-.07.07-.7-.83.16-.35.32-.92.93.38.5-.7.77-.5.77.56 1.3.27z"/><path fill="#386a1c" d="M34.66 41.3c1.1.45-1.02.17-1.28.44-.28.95-1.56-.03-1.92-.1-.46-.03-.45-1.72-.83-.35-.55-.24-2-1.54-.9-.34.7.48.53 1.24 1.18.7.04.6.82 1.12 1.46.5.04 1.15 1.3-.37.63 1.14-.14.36-.04 1.76.94 1.88-.92.75-2.6-1.77-1.73-.43-.6.86-.36-1.27-.9.07-.55.77-1.4-1.6-1.35.15-.04.58.9 1.76-.33.8-.84-.57.04-1.88-1.67-1.9-1.6-.83-2.85.25-2 1.9 1.17 2-2.63 1-2.97 1 1.24-.6 1.2-3.7.1-3.8-.4-.56-2.27 1.04-2.86.42.42.62-.68-.06-.85.77-.9-.16-1.1-.95-1.43.15-.13-.18-1.76.35-1.3-.87-.6.33-.05.7-.8.95.1-.63-.86.4-.27-.5-1.06.1-1.63-.44-2.67.56.32-1.08-2.84-.02-1.36-.7.9.43 2.26-.94.47-.65-.25-1.07-.5-1.2-1.52-1.46.5-.22-1.08-1.15.46-.38 1.2.26 3.4.14 3.7.98-1.04.15 1.46.33 2.06.2 1 .34-.94.1.24.56.77-.27 3.37-1.03 1.46-1.33 1.76-.6-2.8.22-1.54-.38 1.44-.73-2.57.1-.57-.78 1 .07 2.2-1 .6-.77-1.96.5 1.16-.5-.1-.48.6-.4.62-.46.74-.8.5 1.1 1.62-.76.57-.04.07.58-.52-.6-.86-.3-1.06-.2-.5-.85.4-.6-.67-.22-1.12-.58-1.28-.75-.56.65.5.47-.7.82-.9.22 1.3.48.14 1.06 1 .92-.6.32-.8.5-.56.1-1.15-.85-1.93-.28 1.18-1.03-2-.24-.46-.62.67-.9 1.7-1.74 1.9-1.47.55.7 1.03.7.33-.06.34-.48-.74-.73-1.15-.4.14-1.16-2.2-.1-2.23-1.54-1.05.2-1.46-.6-2.6-.86-.1-.33.5-.5.48-.6.76-.47.13.44-.12.6.7.03 1.08-.17 1.68-.58.22.5-.48.6.4.6 0 .5 1.66-.5 1.2.55.65-.05 2.4.25 2.35.72.06.62 3.02-.33 3.1-.54-.53.08.63-1.1-.43-.33-.6.38.4-1.03 1.02-.4-.3-1.28-1.9.77-3.08.7-.66-.63.86-.8-.53-.7-.2-.44 1.26-.48.14-.64-.7 1-1.3.34-.5-.07-.45-.35-.9.47-.88-.16-1.12.47-.45-.37-1.22-.48.28-.44.2-.6-.7-.25-.16-.5.02-.78-.1-.87-1.1-.48-.65-1-.48-1.06-.65-1.27.7.9 1.02-.1.36 1.1 1.34.43 1.55 1.15.73-.36.75.6 1.6 1.16-.16.27 1.34.24.16.73.28.7 1.4-1.1.85 0 .63-.04 2.23.43 1-.3.38-.58.8-.74.6-.13.95-.03 1.18-.86 1.35-1.06-.08-.88.18-.66-.64-.53-.3-1.27-.87-.92-.14.15-.87-.4-.82-.5-.72.13-1.7-.52.87.8-.6.53-.72 0-1.9-1.44-2.25-2.17-.1-.3.8-.15-.04-.32-.22.78-1.1 1.1-.77.25-.6.25-2.08-.94-.83-.57-.04-.3-1.43-1.03-.36-.6.66.2.2-.2.07-.46.57.16.22-.5.6.08 1.04-.16-.2 1.4.6 1.25-.37-.66 1.6-.68 1-.13.78-.26.83-1.2 1.16-1.37-.67-.1-1 .73-.73-.54-1.58-.1-.12.13 0-.72-.92.06-1.22-1.2-.28-.44-.9-1 .35-1.17.6-.35-1 .4.2.8.12-.1.77.4.48.35.28.67.9-.13.95-.4 2.02.5.03.56.5-.75.95.16.92-.17-.64.83.2.67.67-.33 1.1.7 2.2.07-.57.25-.9.9.32 1.12.32 1.04-.4-.6-.64.3-.92-.4-2.83 1.75-2.46-.15-1.07-.66.12 2.26.4 1 .4.63 1.6-.67.48.56 1.2-.38 1.35.56.14 1.02-.4.07-1.43 1.2-.14 1.3-1.28.33 1.82.9-.1 1-.3.45 1.37.14 1.4.6.28-.78.5.36.13.32-1.73.6 1.2.7.3 1.18-.2.53.62.88.86 1.08-.53-1.16.95-.26.16.58.7-.7.25-1.22 1.07-1.2-.53-.35-.58-1.55.16-.3.5.26-.46 1.06-.66.78.55.82.6.52 1.3.43-.94-.34.28-.88.1-.15.62-.2 2.34 1.16.65.8-.95.22.3-1.25-.6-.3.12.9.54.88 1.13.58.52.3.22-.67.8-.07.68.26-1.83.82-1.67 1.34-.58.04-.27-.55-1.3-.48.65 1.3 2.44.64 3.53-.1-.93-.13 1.86-1.03 1.63-1.12-.47.7 1.12-.3.23.7-1.73-.1-1.08.72-.55 1.7.02.5-1.57-.17-.36.7.46-.34 1.53-1 .43-.73.66-.56.5-.47-.22-.63.1-.45-.02-.64.9-.46-.3-1.27.65.98.8-.17-.78-.72 2.48 1.75 1.2.54-1.32-.53.8-.66-.62-1.03-.33-.7.83.6.76-.55 1.27-.27-.76-.2-.78 0 .66-.57 1.6-.63 1.53-.12-.7.93.1 1.04.43.4.8.57-.48.34-.28.86-.94 0-1.54-.17-.84.45 1.56-.03 2.07-.2 1.73-1.04.78-.47 0 1.3.9.13.54-.56 1.64.78.36.42-.23-.94-.76.45.17.5-.3 1.15-.82-1.08-.85.26-1.4.1-1.3.86.02.68.96-.07-.12.7.96.5zm-1.3.14c-1.44-.82-1.14.85 0 0zm-2 2.3c1.28.46 1.42.16.7-.86-.06.43-.7.4-.7.86zm.56-2.88c-.5-.92-1.5.14 0 0zm-1.15 1.73c.98-.35-1.83-1-2.18-.93-1.26-.24 1.34 2.14 1.5.48.96-.36.35 1.5.67.44zm-.72 1.28c.36-.82-.54-.53-.84-.93-.08.36-.73-.72-.88.2 1.13-.55-.5.93.72.16.24.33.6.6 1 .58zm-2.16-1.44c1.4.3-.76-1.23-.37-.43.88-.14 0 .56.36.44zm-.3.87c-.97-.4-1.8.16-.34.14l.34-.13zm-1-2.3c.42.13.9.82.68-.15-.67.25-.2-.56-1.23-.48-1-.1.72.24-.18.47.25.46-1 .5.15.58l.37-.2.2-.22zm.42.58c-.88-.56-1.2 1.27 0 0zm-.72.86c-.6-.52-.12.2-.86.15.24.22.7.14.86-.16zm-1.73-1.73c.92-.17 1.25-.9.15-.23l-.15.24zm-.14-2.3c-1.27-.32-.33 1.24 0 0zm-.3 2.6c-.57.02-.35.58-.73.52.37.92-.87.22-.27-.23-1.44.53.02.8.3 1-.1-.5.88-.17.56-1.04l.14-.26zm-.28-.57c-.97.9-.6-.42-.82-.54-.74 1.37.3-.97-.94-.34-.57.05.5.98-.55.3-.28 1.18 2.43.56.46 1.13-.36.1-.66-.93-.5 0-1.75.48.9-.96-.48-1.12.55-.8-1.12-.6-1.08-.66-.05.6 1.62.53.64 1.2-1.12-.4-1.55-.85-1.5.62.8.5 2 .28 2.77.4.5.1 1.94-.17 2-1zm-2.6-3.32c-.03-1.5-2.13-.02-.34-.44.2-.52-.15.8.36.45zm-.13.44c-.5-1.07-.68.74-1.3-.14-1.3 1 1.37.64.9 0 .12.05.24.17.4.14zm-.73 4.76c-.5-.72-1.24.64 0 0zm-.58-6.78c-.98-1.18-2.28 1.82-.73.44-1.4.56-.08-.5.72-.44zm-1.16 7.35c1.75-.17.06-1.04 0 0zm.43-15.13c-.22-.97-.87.47-1.33-.07-.4.4-1.15-.5-1.14.72-.25.4-.04.4-.56 1 .57.03.25-.07 0 .5.43-.34 2.2.8 1.58.15-1-.1 1.5-.96-.15-.96-.6-.4 1.83-.1.44-.64-.4-.53.8-.17 1-1 .04.06 0 .28.15.28zm0 7.2c-.62.12-2.74.66-1.5 1.1.34-.5 1.17-.47 1.5-1.1zm0 5.34c-.54-.1-1.08.34-1.4.4 0 .46 1.32-.03 1.4-.4zM15.77 27.3c1.36 0-.42-1.25 0 0z"/><path fill="#89c139" d="M34.66 28.17c1.23 1.5-2.75-.07-.54-.4.34-.2.45.2.54.4z"/><path fill="#e9f6a2" d="M34.8 25.72c.67.63-.8.12-.63.93-.38 0-.08-1.52.64-.93z"/><path fill="#619924" d="M34.8 42.44c.05.78-1.08-.45-.28.58-.9 1.2-.5-.23-.7-.2-.6.3-.33 1-.48 1.78 1.56.55-1.18.35-.26-.94-.52-.27.68-1.73-.58-.93-.2-.7-.83-1.17.4-.55.65-.16.7 1.32.72.1-.37-1.42.55 0 1.2.16z"/><path fill="#cbe96a" d="M34.8 36.97c-.6.27-2 1.3-2.24.85.5-.85-.97-1.13-1.62-.45-.04-.45-.58-1.17.4-1.03.4.2 1.42.93 1.6.05-.56 1.46 1.27-1.02.86.57.27.36.93-.45 1 0z"/><path fill="#f4f8d9" d="M34.66 21.97c.16.22-1.58.72-.43-.26.4-.62 1.23-.7.43.27z"/><path fill="#386a1c" d="M34.8 36.1c0 .52-.63.7-1 .87.12-.64.62-.37 1-.87z"/><path fill="#b4e084" d="M33.65 19.1c.6-.26 1.42-1.06.44 0-.27.18-1.28.9-.45 0z"/><path fill="#89c139" d="M34.8 35.96c-.66.1-2.7.54-1.6-.4-.58 1.2 1.06-.52 1.6.4z"/><path fill="#a2d558" d="M33.5 21.4c.54-.92 1.77-1.15.38-.13-.4.38.92.26-.08 1-.53.05-.57-.14-1 0-.08-.8-.03-1 .7-1.3 0 .1-.24.37 0 .42z"/><path fill="#619924" d="M34.52 46.05c-.23.5-1.72-1.43-.5-.64-.04.4.56.37.5.65z"/><path fill="#89c139" d="M34.52 23.85c-.4.84-2.28 1.4-1.36-.12.52-.98-1.56-1.24-.24-1.3.42-.62.68.04 1.27.05-.3.77.52.66-.26.8.42.12-.22.96.58.57z"/><path fill="#386a1c" d="M34.52 29.18c-.22.65-.95-1.12-1.12.1.33 1.37-.8-2.22-.9-.84.55.43.73 1.8-.16.8-.35-.68-1.38 1.33-2.43.66 1.08 1.26 3.4-.45 3.88.42-1.56.08-2.53.58-2.43 2.03-.54-.13-.82-.93-1.73-.73-.3.46-1-.92-.08-.74.2 1.18.34-1.1-.64-.12-1.06.2-.92-.22-.73-.58-.92.93-1.75-.08-.83-.26.04-.8-1.12-1.1.2-1.1-.1-.9 2.48-.6 1.14-.07.6.34-1.3.16-.36-.3-1.7.85.7.52 1.54.7.77.87 1.3.9.58-.27-.35-1.08 1.58.12.28-.2.02.28.75.22.77.64.16-.7-.85-1.55.18-.74-.73-1.03 2.04-.94 1.85-.17.9 0 .28.84 1 .78zm-2.3-.57c1 1.28-.73-1.38-.4-.3.13.58-.36 1.26.4.3zm-.87 2.6c.1-1.42-1.1-.13 0 0zm-.43.43c-.48-.83-1.67-.12-.15-.1l.15.1zm-1.88-1c.26-.82-.87-.5 0-.96-1.06-.2.02.73-.47.7-.5.43.33.2.47.25z"/><path fill="#a2d558" d="M34.52 32.35c.22 1.45-1.92.62-.25.32l.1-.17.15-.15z"/><path fill="#386a1c" d="M34.66 37.83c-1.56.1-.2-.96 0 0z"/><path fill="#386a1c" d="M34.37 33.65l.17.1-.17-.1z"/><path fill="#89c139" d="M34.37 26.88c-.35 1.07-1.4 0 0 0z"/><path fill="#cbe96a" d="M33.8 38.4c1-.65 0 .58-.68.44-.06-.5.5-.13.17-.7.68-.52.13.12.5.27z"/><path fill="#a2d558" d="M34.37 27.74c-.8.3-1.58.46-1.3-.58-.64.47-.92.18-1.43.72-1.26-.1-.62-.36.28-.43.28-1.23-1-.33-.9-1.18.2-.38.9-.7 1.05-.55.37 1 1.08-.6 1.2.4-.74.2-1.35 1.7-.32.73.77-.04.5.88 1.42.9z"/><path fill="#89c139" d="M34.37 40.57c-1 .55-2.83-.12-.86-.43-.54.73.78-.27.87.43z"/><path fill="#619924" d="M34.23 30.33c.53.2-.54.45-.72.87-.38-.6-1.07.8.34.7.47.36-1.38.2-1.2-.56-1.8.52-.85-.78.35-.38-.1-.6.84-.82 1.23-.63z"/><path fill="#386a1c" d="M34.1 33.36c.87.56-1.47 1.12 0 0z"/><path fill="#619924" d="M33.94 26c.32.75-1.5 1.23-1.72 1.02.75-.45.87-1.4 1.72-1z"/><path fill="#386a1c" d="M33.8 34.8c-.3.87-.73-1.5.14-.43-.36-.14-.58.54-.14.43z"/><path fill="#f4f8d9" d="M32.23 16.5c-.1 1.18.8.57 1.28-.26.64-.2-.3 1.57-.35.93-.88.72-1.07.74-1.15-.2-.76-.3 2.07-2.12.45-.56l-.22.1z"/><path fill="#386a1c" d="M33.22 35.24c.07.57 1.1.34 0 .74.32-.48-1.64-.56-2.2-.76-.36 1.43-1.3-.8-.2.07.1-.55 2.1-.63.67-1.07 1.05-.54 2.4 1.6 1.15.43-1.2.37-1 .62.12.45.66-.3 1.43.76.45.14z"/><path fill="#f4f8d9" d="M33.65 19.1c-.45.3-.3-.62-1 0 .08-.7 1-1.05 1 0z"/><path fill="#386a1c" d="M33.65 36.24c-.25.46-1 .96-.84.24-.87 1.28.2-.9-1.02-.52 1.46 1.02-2.08.2-.2.03.74-.9 1.33.43 2.07.24z"/><path fill="#e9f6a2" d="M33.65 19.8c-.68-.12-.8 1.42-1.43.3.57.55.82-1 1.43-.3z"/><path fill="#a2d558" d="M33.5 41.58c.64 1.6-.63 1.25 0 0z"/><path fill="#e9f6a2" d="M32.5 17.94c.57-.38 1.7-.95.6-.06-1.56.56 1.1.52-.45.78.04.87.7-.3.86.57-.12.3-.92.2-1.1.24.25-.1-.96.05-.56-.52.88-.5-.52-.2.5-1l.16-.16v.14z"/><path fill="#386a1c" d="M33.5 38.55c-1.33-.05-1.3-.34-.42-.72-.26.74.12.3.43.72z"/><path fill="#89c139" d="M33.37 19.52c-.42.85-1.43-.1-.15-.3.04.1 0 .3.15.3z"/><path fill="#89c139" d="M33.37 14.77c-.9.42-.1-.8 0 0z"/><path fill="#619924" d="M32.5 41.15c1.65.2-.1.83-.06.3l.05-.13v-.17z"/><path fill="#89c139" d="M33.22 33.22c.75.54-1.26.82 0 .1v-.1z"/><path fill="#619924" d="M33.37 42l-.08.1.07-.1z"/><path fill="#619924" d="M32.5 28.03c1.37.25.2 2.22.44.72-.26 0-.77-.5-.44-.72z"/><path fill="#cbe96a" d="M33.22 33.22c-.34.97-1.8.2-.57 1.15-.82-.2-1.76-.48-1 .43-1 .6-.24-1.1-.88 0-.72.2-.62-.26-1.13-.54.48-.34.78-1.33.55-.03 1.25 0 .02-1.18 1.5-.63.4-.2.75.05.84-.3.32.23.2-.58.68-.08z"/><path fill="#89c139" d="M33.22 27.74c.02 1-2.2-.53-.76-.24.8-.2.27-.5.76.24z"/><path fill="#a2d558" d="M33.37 39.56c-.58.32-2.83.26-2.15-.22 1.14.5 1.36-1.1 1.96.08l.2.14z"/><path fill="#e9f6a2" d="M33.08 22.98c.43 1.12-1.33-.3 0 0z"/><path fill="#a2d558" d="M33.08 23.4c.2 1.3-2.66-.8-.43 0-.1-.38.28.14.43 0z"/><path fill="#386a1c" d="M33.22 32.06c-.1.36-1.67.24-1.74-.04.5-.3 1.4-.06 1.74.04z"/><path fill="#386a1c" d="M32.36 22.55c1.04.44.5.4-.17.22-.2.87-2.37 1.08-1 .5.05-.6 1.44-.44 1.42-1.45.66-.02.02.67-.26.73z"/><path fill="#89c139" d="M33.08 30.48c.2 1.28-2.54 0-.5.02h.25l.25-.02z"/><path fill="#619924" d="M33.08 38.55c-.04 1.13-.75-.88-1.06.5-.67-.04.45-1.57-.3-1.26-.22-.53 1.9-.52.64.18 1.54.1-1.04.05.4.55l.32.02z"/><path fill="#a2d558" d="M32.2 35.52c1.7-.44.57.85 0 0z"/><path fill="#b4e084" d="M32.94 24.86c1.46-.17-1.4.98 0 0z"/><path fill="#619924" d="M33.08 23.85c.1 1-1.4 1.1-1.16.14-.58.76-.33 1.5.58 1.14-.54.1-.4 1.1-.78.45-.48 1.3-1.2-1.45-1.23-.02.44.4-1.1.95-1.32.53-.68.18-1.14-.37-1.36.14-.45-.72-1.1-.42-.05-.73-.26.53 1.04.15.72.12.02-.56-.87.02-.18-.76.58.36.85-.58.86.25.9.77 1.34.5.33-.25-1.16-.95-1.54.9-2.76.32-1.4-.28-1.45 2.17-2.45.7 1.25.24 1.5-.76.86-.66-.4-1.2 2.18.33.9-.76-1.45-.37.25-.2.53-.45-.7-1.12 1.8-.03.13.28.98.86 2.05-.88 2.3-.16-.08-.22 1.72.43.83.9.85-.33.84-.9.17-.73 1.26-.9-.88-.12-.35-.56-1.5-.4-.7-1.36.6-1-1.1-.02.7 1.54 1.03.67.65-.47 1.04.8 1.78.45zm-4.33 2.02c1.43.13-.65-1.56 0 0z"/><path fill="#89c139" d="M32.94 14.77c.3 1.6-1.45-.1-.57.12.3.44.2-.92.57-.13z"/><path fill="#a2d558" d="M32.94 24.57c.08.88-1.98.7-1.14.23.28.35.54-.63.86-.24.03-.15.26-.15.28 0z"/><path fill="#619924" d="M32.5 15.92c1.33-.73-1.9 1.4-.58-.14-.64-.5.5-.35.35-.1l.06.04.17.2z"/><path fill="#a2d558" d="M33.5 12.9c-.38.7-1.92 1.33-1.38.66.5.24.8-.8 1.4-.67z"/><path fill="#619924" d="M32.94 46.62c-1.02.25-1.35-1.1-.25-.15l.24.15z"/><path fill="#cbe96a" d="M32.94 31.92c-.22.2-2.15-.63-.6-.5.55-.4.2.42.6.5z"/><path fill="#f4f8d9" d="M32.8 21.26c-.2 1.02-.2 1.26-.9.4-1.3 1.23-.77-1.76-.55.03.45-.78 1.1.58 1.44-.44z"/><path fill="#a2d558" d="M32.8 20.4c-1.27 1.32-.8-1.6-.4-.93 1.18 1-1.22.63.4.92z"/><path fill="#89c139" d="M32.8 29.6c-1.2.04.83.78-.6.64-1.02.4-.63-.93.16-.34-.8-.15-.6-.9-.2-.7-.36.26.72-.17.63.4z"/><path fill="#89c139" d="M32.07 32.93c1.2.3.12.64-.06.6-.05.4-.6-1.12.07-.6z"/><path fill="#f4f8d9" d="M32.65 14.48c.03 1.18-.72-.5-.44.86-.8.3-.15-.18-.65-.5.15-.74.42.2 1.1-.5v.14z"/><path fill="#619924" d="M32.07 44.17c.37.82.88.83-.34 1.25-.82.95-.12-2.25.06-.5 1 .26-.4-.48.27-.75z"/><path fill="#cbe96a" d="M32.65 25.72c-.12 1.52-1.1-1.4-.1-.2l.1.2z"/><path fill="#619924" d="M32.65 23.27c-1.3.62-.08-1.3 0 0z"/><path fill="#619924" d="M32.65 27.16l-.02-.05.02.06z"/><path fill="#386a1c" d="M32.65 32.93c-.7-.38-1.3.45-1.24-.13-.5-.23 1.3-.52 1.25.13z"/><path fill="#619924" d="M32.65 43.88c-1.46.56-1.36-1.07-.4-.78.1.25.04.72.4.78z"/><path fill="#619924" d="M32.65 28.9c-.42.38-.53-.8-.87.28-.07-1.28 0-1.4.87-.3z"/><path fill="#a2d558" d="M32.65 17.5c-.07 1.5-2.3.46-.73.3.02-1.46.05.77.73-.3z"/><path fill="#89c139" d="M31.64 37.1c.98-.7.94.63 0 .6-.85.65-.06-.27 0-.6z"/><path fill="#cbe96a" d="M32.2 21.68c.3.7-.05 1.16-.14.43-.74 1.4-.92-.88.15-.42z"/><path fill="#89c139" d="M32.36 31.77c-.24.34-1.1-.16-1 .58-.36-1.1.4-.76 1-.58z"/><path fill="#a2d558" d="M32.5 32.5c-1.04.17-2.35.55-1.15-.15.38-.15.86-.2 1.15.15z"/><path fill="#89c139" d="M31.78 35.96c.98-.44.74 1.28 0 .57.82-.16.25-.25 0-.57z"/><path fill="#619924" d="M31.92 18.5c.2.04.47.3-.25.6.28.1-.76 1.62-.82.48.84-.37.6-.8.4-1.05.12-.33.7-.5.67-.02z"/><path fill="#619924" d="M32.2 35.52c-.3.18-1.9.8-1.72.3.73-.9.64-.53 1.73-.3z"/><path fill="#89c139" d="M32.2 22.12c-.17.87-.87.62-1 1.15-.94-.62.62-.7 1-1.15z"/><path fill="#619924" d="M32.2 14.04c-1.24.7-.75-.3-.28-.57-.15.3.3.32.3.57z"/><path fill="#89c139" d="M32.07 19.38c.26.64-.82 1.85-1.76 1.47.54-1.03-1.26.05-.1.26-1.35.43 1.64.18 0 .58-.38.15-1.75-1.2-.1-1.57.96.03 1.55.92 1.5-.62-.48-.4.44-.3.47-.1z"/><path fill="#b4e084" d="M31.78 16.93c1.03.73-.22.17-.7.27.07-.33.6.07.7-.27z"/><path fill="#386a1c" d="M32.36 29.9c-.6-.18-1.7.2-.46-.3.18 0 .46.06.46.3z"/><path fill="#cbe96a" d="M32.07 24.7c-.92.84.24-1.7-.15-.1l.03.07.12.04z"/><path fill="#cbe96a" d="M32.07 42c-.08.84-1.42-.57-.15-.28.03.08 0 .3.15.3z"/><path fill="#e9f6a2" d="M31.64 16.5c1.2-.97-.34 1.2-.22-.12-.76.08.4-.4-.18-.7.6-.55.63.35.4.82z"/><path fill="#a2d558" d="M31.5 14.33c1.1-.86-.47.9.38.97-.7.7-.83-.78-.4-.97z"/><path fill="#619924" d="M31.5 34.23c1.54.2-1.07 1.1.15.44-.26-.04-.55-.9-.16-.44z"/><path fill="#e9f6a2" d="M31.5 26.73c1.4-.05-.84 1.67 0 .37l.1-.18-.1-.2z"/><path fill="#619924" d="M31.06 40.43c1.85.15.27 1.04 0 0z"/><path fill="#386a1c" d="M31.92 46.05c-.65.43-1.04-1.63-.18-.1l.18.1z"/><path fill="#f4f8d9" d="M31.92 17.22c.18 1.4-2.25.3-.67.4-.3-.28.55-.64.67-.4z"/><path fill="#cbe96a" d="M31.64 33.07c.58.8-1.5-.27-.37-.3 1.12.18-.62.24.37.3z"/><path fill="#386a1c" d="M31.78 33.36c.15.8-2.13-.62-.38-.06h.18l.2.06z"/><path fill="#619924" d="M31.78 16.78c-.85 1.2-1.68-1.36-.3-.72-.9.1.16.7.3.72z"/><path fill="#619924" d="M31.64 42c.12 1.35-.92-.82-.33-.3-.27.07.34.66.34.3z"/><path fill="#b4e084" d="M31.64 19.8c.05 1.48-1.7.02 0 0z"/><path fill="#619924" d="M31.78 28.46c-.26.15-1.13-.6-.3.14-.1 1.47.07-.06-.85.3.66-.15.53-.68-.1-.96-.23.84.85 2.84-.5 1.32-1.03-.2 1.06-.36.07-.8-.97 1.13-.33-2.07-.23-.75 1.1-.13.57-1.27.33-.33-.56-.67.82-.8.57-1.5.3.74 1.38 1.25 0 1.72.27.5 1.04-.12.82.78l.18.08z"/><path fill="#619924" d="M31.78 29.32c-1.2.67.73 1-.68 1-1.12.03-1.5-.6-.2-.27.2-.36.37-.8.88-.73z"/><path fill="#619924" d="M31.64 37.1c-.5 1.63-1-.03 0 0z"/><path fill="#b4e084" d="M31.64 13.76c-.16.8-1.48.48-.27-.02l.27.02z"/><path fill="#89c139" d="M31.06 37.97c1.3.12.03.24-.14.88-.5-.6-1.4.07-.48-.92 1.57-1.27-.7 1.24.62.04z"/><path fill="#619924" d="M30.63 39.27c.37.56 1.5 1.4.18.56-.42-.54-1.53-.97-.75-.27-.76.2-.7-.2-.92-.6.42 1.14-1.14-.07-.8.74.3.25-.6.7-.42-.35-.7-.08.78-.62 1.28-.5-.3-.72 1.8-.97.8-.2.27-.14 1.95.74.65.62z"/><path fill="#fbfcf4" d="M31.64 22.12c-.27.77-1.04-.12-1.53-.23.4-.84 1 .17 1.54.22z"/><path fill="#fbfcf4" d="M31.5 18.22c-.2.85-.75 1.08-.6.06.24.15.54-.46.6-.06z"/><path fill="#89c139" d="M31.2 14.2c.66.7-1 .9-1.52 1.1.4.96-1.07.07-1.05.3-.08-.72.53-1.24 1-.55-.14-.42 1-.35 1.57-.86z"/><path fill="#386a1c" d="M31.35 18.66c.56.5-.8.92-.58 1.44-1.1-.1-2 .7-1.15 1.44-.6.8-1.52.74-2.3 1.3-1.05-.7-1.86 1.24-.7 1.27-1.2.48-.6-1-1.62-.68-.02-.8-2.34-.4-2-1.16-.96.55-2.5-.74-.9-.14.56-.03.5-.52.84-.86-.38-.78-1.3.33-.98-.44-.3-.67-1.57-.37-.27 0-.38.22-1.54 1.12-.92-.16.66-.93-1.3.43-.8-.34 1.05.1-1-.44-.57-.86-.43-.8-.17-.86.4-.37.18-1.4.6 1.7 1.6 0-.72 1.34 1.97 1.1.7 1.45.67.44.95-1 1.46.27 1.1.4-1.42 1.22.43.86.02-1.52.95.02 1.53-.05-.57.34-1.58.37-.53.63-.94.94 1.8.07.15-.14.96-.17 1.58-.74 1.48.3 1.25.1 1.6-.84 2.4-.6-.58-.92-.56-1.06.6-1.72.74-.1 1.44-.83 1.72-1.44zm-6.63 3.75c-.68.24-.56-.46-1.3.15.32.17 1.17.36 1.3-.14z"/><path fill="#a2d558" d="M30.48 36.24c.52-.93 1.8-.16.44-.14-.8 1.35-.76-1.27-.44.14z"/><path fill="#f4f8d9" d="M31.2 14.9c.46.94-.35 1.06-.42.63-.9.88.45.32-.3 1.36.1-.93-1.17-.93-.57-1.85.86.44.5-.28 1.3-.14z"/><path fill="#cbe96a" d="M31.2 45.04c.27.57-.38.6-.4.25-.68 1.06-1.2-.98-.55-.9.43.08.5.78.95.64z"/><path fill="#e9f6a2" d="M30.63 11.45c1.3-.9.6.5-.3.36.1-.13.3-.15.3-.35z"/><path fill="#619924" d="M31.2 30.48c.66 1.6-.98.22 0 0z"/><path fill="#89c139" d="M31.2 17.36c-.07.27-1.02.55 0 .58-.14.77-1.16.13-1.3-.3.34-.22.54-1.18-.17-.3-.4.63-.98.45-.26 1.03-.68.08-.82-.56-.7.15-.47-.6-.96.67-.6-.44-.32.84-1.7-1.27-.27-.38.84-.34 1.95-.18 2.43-1.32.05.67.78.16.87.98z"/><path fill="#cbe96a" d="M31.35 22.55c-.4.17-.64 1.6-1.05.6.3-.47-.75-.42.04-1.03.63-.1.67.03 1 .43z"/><path fill="#619924" d="M31.2 34.37c.13.9-1.34 1.14-.73.3.53.52.12-.5.73-.3z"/><path fill="#619924" d="M31.06 46.05c.45.37-1.36.57-.42-.05-.35-1.14.24.5.42.05z"/><path fill="#a2d558" d="M31.2 41.3c.03.82-1.4.44-.13-.1l.13.1z"/><path fill="#619924" d="M31.2 41c-.06.02-1.24 1.47-.86.44-.68-.32-1.58-1.62-.4-.62 1.2 1.44.33-.83 1.26.18z"/><path fill="#89c139" d="M30.92 36.1c.63.3-.94.46.1 1.08-1.46-.42-1.17 1.54-2.18 1.3-.95-.4 1.43-1.1.5-2.1.24.96-1.03.86-.34.06-.35 0 1.07-1.7.96-.24.22.6.7.24.96-.1z"/><path fill="#e9f6a2" d="M31.06 20.96c.03 1.14 0 .6-.63.38-.97.53.34-.87.63-.38z"/><path fill="#89c139" d="M31.2 15.92c-.83.5-1 .1-.3-.58-.06.2.04.57.3.58z"/><path fill="#619924" d="M31.2 42.44c-.5.34-.6.75-.57-.17-1.1-.5.46.04.57.17z"/><path fill="#386a1c" d="M31.06 37.4c-.36.63-.48-.37-1.1-.02.24-.4.88-.18 1.1.02z"/><path fill="#e9f6a2" d="M30.92 19.1c-.1.17-1 .75-1.6.28 1.2-.1.48-1.34.73-1.3.47-.24 1.3 1 .2.46-.23.27.46.6.67.55z"/><path fill="#386a1c" d="M31.35 26c-.76.07-.54-.2-.76.52-.58.28-1.07 1.23-1.1.4-.9.94-1.48-1-1.76.53-.42-.38.04-.96-.74-.3-.8.16.08-.8-1-.42.92.9-.6-.14 0 .86-.83.1-.82-1.64-1.57-.44-.8.48-.92-.3-2.02.43.36-.67-1.14-.05-.28-.58-1.25-.23-1.96.16-1.15-1.15 1.45-.18-.9.7.68.25.54.2.33.52 1.05.18 1.14.53.4-1.56.2-.8-.24.45.06-1.36-1-.5 0-.54-1.8.5-1-.7.92-1.3-1.04.15-.32.38-1 .2-.24-.74-1.05-.1.2-.6-.46-.46-.45-.87-.2 1.38-.56-.93-1.57-.14.26-.54.76-.62-.02-.9.03-.33 1.15-.08 1.18-.43.52.55.58.04.86.73.86.12 1.63.3.4.47.3.87 2.05-1.25 1.44-.04.28.35.04.85.76.88-.5.97.9-.35 1.72-.24 1.1-.37.5.08.23.34-.2.5.68.22.92.56.6-1-.34 1.18.6.33.08.65-2.32.83-.58 1.03.25-.34 1.47-1.8 2.87-1 .48-2.22 3.7 1.48 1.28-.18-.2-.42.06-.54-.68-.05-.3-.57-.75.8-.04.22.58.84-.66.27-.63.43-.1-.6-1.4.33-.24.12.38.93.5-.3 1.34.3.78.2 1.06.04 1.97-.42l.26.1.2.18zM18.1 23.4c1.02.32 2.27-.14.58-.28-.22.04-.47.1-.6.3z"/><path fill="#386a1c" d="M31.06 46.05c-.33.06-1-.88-.26-.76.3-.5-.05.77.26.75z"/><path fill="#619924" d="M30.92 32.35c-.12 1.14-1.3-1.52-1.16.15.23.66 1.54.1.93.86.22.04.44.9-.5.87.42-.93-.65-.77-.92-1.65-.16-.35.06-1.5 1.05-.9.36-.03.68.3.6.67z"/><path fill="#cbe96a" d="M30.63 27.88c1.1.8-.64.8 0 0z"/><path fill="#b4e084" d="M30.92 25.14c.12 1.45-1.22-.17 0 0z"/><path fill="#89c139" d="M30.92 18.66c.13 1.26-1.5-.7 0 0z"/><path fill="#cbe96a" d="M30.34 32.5c2.1.76-1.84.28 0 0z"/><path fill="#619924" d="M30.92 37.54c-.47.62-1.8.35-.48-.24l.26.03.22.2z"/><path fill="#f4f8d9" d="M30.92 14.04c-.12.88-.96-.32-1.1-.03.26-.36.8-.17 1.1.04z"/><path fill="#b4e084" d="M30.77 12.17c-.75.3-.3-.58-1.3-.14.37-.52 1.45-.73 1-.15 0 .2.26.13.3.3z"/><path fill="#f4f8d9" d="M30.48 45.62c.6 1.62-.94.07 0 0z"/><path fill="#b4e084" d="M29.62 9.58c.63-.95 1.77-.85.36-.1.6.2.4.57-.36.96-.02-.46-1.03.2-.15-.58-.74.23-1.16.75-.58-.1-1.08.24.25-1.12.72-.18z"/><path fill="#e9f6a2" d="M30.63 14.48c-.78 1.12-1.45-.7-.24-.3l.08.1.15.2z"/><path fill="#386a1c" d="M30.05 24.42c1.56-.72-.95 1.4.15.15-1-.4.93-1.1-.15-.15z"/><path fill="#619924" d="M29.9 31.2c1.17-.06 1.4.87 0 0z"/><path fill="#386a1c" d="M30.48 26.88c.5.98-1.33.66-.14.57.07-.14-.1-.5.14-.57z"/><path fill="#386a1c" d="M30.48 20.96c-.27.65-1.13.3-.34.06-1.06.02.56-1.36.34-.06z"/><path fill="#cbe96a" d="M30.48 35.8c-1.56.1 0-1.55 0 0z"/><path fill="#619924" d="M30.2 19.66c.83-1.23.06 1.1-.67.23-.2.03-1.04-1.63.23-1.24-.68.5.08.43-.3.88.2.08.7-.23.74.12z"/><path fill="#a2d558" d="M30.34 11.88c.08.87-.56.1-1 .72-.03-.64.36-.6 1-.72z"/><path fill="#f4f8d9" d="M30.34 22.84c.46.92-1.35-.17 0 0z"/><path fill="#e9f6a2" d="M30.34 17.07c-.4 1.4-1.06-.33 0 0z"/><path fill="#a2d558" d="M30.34 42c-.26.52-1.17.26-1.45.16-.48.36-1-1.22-.15-.37.57-.38.84.24 1.6.2z"/><path fill="#cbe96a" d="M30.34 37.97c-.74 1.14-.72-.97-.53-.1.13.15.42-.14.54.1z"/><path fill="#89c139" d="M30.34 23.7c-.38.9-1.56.35-1.46.3-.25-.7 1.08-.15.85-.04.2-.1.36-.3.6-.26z"/><path fill="#a2d558" d="M30.34 22.12c.06.98-2.2.73-.87.14.15-.9.46-.17.87-.14z"/><path fill="#386a1c" d="M30.34 32.5c-1.04.42-.37-1.58 0 0z"/><path fill="#a2d558" d="M29.62 28.75c1-.74.8.7-.3.3-.02-.04.4-.74.3-.3z"/><path fill="#f4f8d9" d="M28.9 11.88c.78-.7 2.4-.37.64-.07-.17.72-.4.56-.64.08z"/><path fill="#386a1c" d="M30.05 34.37c.45.87-.67.32-1.22.33.96-1.04-.98.6-.85-.6-1.53-1.04 1.64-.57 1.36.25l.28.02h.43z"/><path fill="#cbe96a" d="M30.2 43.3c.1 1.36-2.13-.4-.37 0h.37z"/><path fill="#a2d558" d="M30.2 34.95c-.6.54-.9.12-1.08 0-.82-.48 1.03-.05 1.08 0z"/><path fill="#a2d558" d="M30.2 16.5c-.98 1.68-1.28-1.43 0-.52.04.18-.2.32 0 .52z"/><path fill="#b4e084" d="M29.62 5.68c1.55-.67-.95 2.06-.34.6.13-.1.53-.35.34-.6z"/><path fill="#a2d558" d="M29.76 18.08c1.4.55-1.16 1.64.02.5-1.05-1.42 1.2-.63-.02-.5z"/><path fill="#619924" d="M30.2 35.8c.6 1.75-1.07-.55 0 0z"/><path fill="#89c139" d="M29.62 10.44c1.8-1.1-2 2.32-.94.08.03-.83 1.43-.6.22-.37.02.3.6.85.72.3z"/><path fill="#f4f8d9" d="M30.2 21.68c0 .75-.6-.26-.92.6-.87-.3.86-1.1.76-.53l.16-.07z"/><path fill="#619924" d="M30.05 33.65c.23 1.22-1.66-.2 0 0z"/><path fill="#619924" d="M30.05 12.3c-.37.6-1.14.44-1.44.6.46-1.22.8.1 1.45-.6z"/><path fill="#386a1c" d="M30.05 33.5c-.7.68-1.1-.77-1.63-.3-.95.05-2.67-.52-.8-.5.9.47.76-.23 1.24-.36-1.28-.62.08-.92.1-.43.23.48.72 1.43 1.1 1.6z"/><path fill="#f4f8d9" d="M30.05 27.3c-.64.87-1.15-.92-.3-.14-.77.45.6-.46.3.15z"/><path fill="#619924" d="M29.76 35.24c.9.5-1.8-.04 0 0z"/><path fill="#386a1c" d="M29.9 17.65c-.75.1.43 1.3-.85 1.12-.3.72-2.15-.18-.87-.7-.66.7 1.12.5.57 0 .84.64.73.07.3-.28.37.46.46-.76.86-.15z"/><path fill="#b4e084" d="M29.04 4.53c.85-1.6 1.28-.78 0 0z"/><path fill="#89c139" d="M29.47 33.65c-.16.2.7 1-.3.58.16-.37-.9-1.03-.23-1.03-.1.3.45.23.53.45z"/><path fill="#fbfcf4" d="M29.76 15.77c-.32.88-1.52-.16-.73-.13.2.15.5.15.73.13z"/><path fill="#619924" d="M29.76 30.77c.1 1.28-.68-.8-.67.52.32.66-1.7-.08-.37-.2.13-.32.75-.84 1.03-.33z"/><path fill="#a2d558" d="M29.62 5.68c-.5.6-.3 1.53-1.25 1.18-1.14.38.73-.77 1.1-1.17l.15-.02z"/><path fill="#619924" d="M29.62 17.07c-.2.8-1.65-.2-.44-.43-.3.32.3.35.44.43z"/><path fill="#cbe96a" d="M29.62 28.03c.24.7-.78 1.54-.54.6-.4-.2.38-.17-.33-.46.65.32.04-.88.87-.14z"/><path fill="#f4f8d9" d="M29.62 10.15c.05 1.17-1.28-.25-.23.07l.22-.07z"/><path fill="#fbfcf4" d="M29.2 19.66c1.4.5-1.02.95-.72-.1.14.03.83-.24.7.1z"/><path fill="#386a1c" d="M29.47 27.45c.32.64.02.35-.62.32-.3.38-.4-.43-.67.4-1.1-.05-.44-.3-1-.58 1.22-.6 1.12 0 2.3-.15z"/><path fill="#cbe96a" d="M29.2 35.24c1.26.1-1.8 2.8-1.04.76-.5-.65-2.02 1.64-1.77.5-1-.55.25 1.1-.6.04-1.2-.22.65-1.3.8-.44.42-1 .66-.23 1-1.15-1.62-.24 1-.38.15.14.8-.38 1.55-1.33 1.23-.2.66.14.56-.1.2.34z"/><path fill="#619924" d="M29.04 43.16c1.54-.63-1.2 1.08-.35 0 .48-.1-1.16-.1.2-.43l.1.2.04.23z"/><path fill="#e9f6a2" d="M29.2 4.68c1.25.24-2.17 2.6-.83.55 0-.3 1.3-1.3.82-.55z"/><path fill="#89c139" d="M29.47 22.26c-.7.4-1.08 1.47-1.87 1.88-.25-.2-1.03-1.1-1.15-.37-.62.88-.45-1.85.86-.93 0 .6 1.66.05.73-.43.85-.05.73-.24 1.44-.14z"/><path fill="#89c139" d="M30.05 42.44c-.43.84-2.1-.3-1.16-.28-.2.53.77-.33 1.15.28z"/><path fill="#619924" d="M29.33 36.4c1.06 1.2-1.75 1.47-.68.95.27.13.94-.7.68-.96z"/><path fill="#619924" d="M29.33 16.06c-.05 1-1.86.02-1.3-.72.96-.26.44 1.18 1.3.72z"/><path fill="#89c139" d="M29.2 27.16c.77.8-1.43.18 0 0z"/><path fill="#cbe96a" d="M29.33 23.56c-.46.55-1.33 0-.36-.3.1.15.1.44.36.3z"/><path fill="#f4f8d9" d="M29.33 16.5c.03 1.05-.43-.5-.56.57-1.2.55-1.33-.97.2-.57h.36z"/><path fill="#cbe96a" d="M29.2 45.47c1.1.9-.98-.58.13-.3l-.14.3z"/><path fill="#89c139" d="M29.2 31.63c.87.46-.75 1.26 0 0z"/><path fill="#386a1c" d="M29.33 25.72c-1.16.37-.45-1.24 0 0z"/><path fill="#e9f6a2" d="M29.2 5.83c-.64 1.66-1-.42 0 0z"/><path fill="#a2d558" d="M28.6 17.07c1.46.2-.73.8-.45 0 .16.03.36.24.46 0z"/><path fill="#cbe96a" d="M29.2 37.7c-.73.74-2-.55 0 0z"/><path fill="#f4f8d9" d="M29.04 19.1c.54.63-2.08.06-.5-.06h.18l.32.05z"/><path fill="#386a1c" d="M29.2 19.38c-.35.47-2.38.2-1.1.03.32.18.74-.4 1.1-.02z"/><path fill="#619924" d="M29.2 28.17c-1.1.64-1.1-.6-.62-.34.35.23.5-.46.6.34z"/><path fill="#619924" d="M28.9 28.6c.88.8-2.7.5-.58-.14-.9.48 1.23.78.3 0h.28v.15z"/><path fill="#a2d558" d="M28.6 44.17c1.02-.36.58 1.65 0 0z"/><path fill="#b4e084" d="M28.9 11.88c1 1.12-1.57.54 0 0z"/><path fill="#e9f6a2" d="M28.6 14.33c1.43.2-1.2 1.5 0 .72 0-.24.3-.5 0-.72z"/><path fill="#89c139" d="M28.9 21.26c.3 1.14-.6.2-1 .86.44-.4-.06-.96.3-1.05-.23-1.26-.1 0 .7.2z"/><path fill="#619924" d="M29.04 30.04c.32 1.02-1.16.42-.2.2-1.15-.38.77-.9-.18-.25l.1.03h.28z"/><path fill="#b4e084" d="M29.04 6.98c-.33.32-.07 1.27-1.3 1.3.5-.7.3-1.75 1.3-1.3z"/><path fill="#619924" d="M29.04 5.54c-.3.82-1.65 1.54-.65 1.62-.36.62-.98 1.47-1.26.47 1.38.1-1.04-1.07.2-1.32.02.06 1.1-1.33.7-.18.44.35.6-.53 1-.58z"/><path fill="#89c139" d="M28.46 40.57c1.38-.45-.76 1.44-1 .14.82.28 1.17.1.86-.7 1.25.16.5-.1.14.57z"/><path fill="#a2d558" d="M28.46 9.86c1.3-.23-1.33.95 0 1.45 1.4.02-1.5 1.66-1.58.15.55.44 1.73.1.58-.43-.95.96-.86-.57-.27-.96-.07-.3 1.08-.43 1.26-.2z"/><path fill="#b4e084" d="M28.9 27.16c-.5.47-1.82-.1-.58-.43-.04.83.2.04.58.43z"/><path fill="#cbe96a" d="M28.9 30.77c-.48.77-1.06.46.14.86-.82.16-1.62-.55-2.47.05.57-.9.93-.85 2.07-.9h.26z"/><path fill="#a2d558" d="M28.9 36.97c0 .73-.47 0-.58.43-.4-.27.4-.65.58-.43z"/><path fill="#a2d558" d="M28.9 32.5c-1.18-.66-2.72.52-3.32.14.03-.9.5-.9 1.15-1.6.9-.2-1.2.9.17 1.08.9-.17 1.54.28 1.13-.63.2.33.74.58.87 1z"/><path fill="#a2d558" d="M29.2 20.4c-.5.77-1 .25-1.13.23-.1.64-.6.8-.12 1.15-1.26.4-1.98-.63-1.46-1.56-.2-1.3.93.83.5-.48.32-.9 1.78-1.3.63-.15.4-.02 1.18.3 1.56.8z"/><path fill="#386a1c" d="M28.75 36.4c.58.62-1.62 1.04-1.85 1.16.18.57-1.44-.04-.17-.17.24-.58 1.55 0 2.02-1z"/><path fill="#89c139" d="M28.9 36.97l-.1-.1.1.1z"/><path fill="#386a1c" d="M28.75 22.98c.2.8-1.03 1.5-.74.84.57.04.14-.76.75-.84z"/><path fill="#e9f6a2" d="M28.46 10.3c.75.06-.27 1.48-.43.28.2.07.32-.17.43-.28z"/><path fill="#cbe96a" d="M28.6 14.33c.3.62-.34.88-.46 1.04.04-.47-1.13-.83-.14-1.22-.3-.68.63-.48.6.18z"/><path fill="#a2d558" d="M28.75 33.36c1.05 1.1-2.97-.6-.62-.22l.3.06.32.16z"/><path fill="#cbe96a" d="M28.32 12.17c1.3 1.6-2.47-.46 0-.14v.14z"/><path fill="#386a1c" d="M28.18 16.35c1.6.1-2.8.6-.6.03.1-.38.6-.53.6-.03z"/><path fill="#619924" d="M28.32 37.4c-.1.5.65 1.24-.66 1.38-.8.6-1.45-1.16-1.8.06-.25-.7-1.32.57-.62-.22-.67-.46 1.87-.2.23-.65-.08-.53-1.8-.54-.54-.8.3-.74.64-.7 1.22-.3-.04-.26-.5-.7.44-.34-.86 1.2 1.65-1.6.86.44 1.32-.5-.15.43-.6.2-.5.6-.98.44.02.66.1 1.72 1.05-1.78 1.44-.43z"/><path fill="#e9f6a2" d="M28.46 9.58c.18.4-1.7.17-.57-.15-.88-.5.46 0 .56.15z"/><path fill="#619924" d="M28.46 13.47c-1.8.32-1.08-1.8-.06-.47-.93-.28-.16.27.06.47z"/><path fill="#619924" d="M28.46 42.3c-.54.28-.8.12-.54-.22-1.23-.3.18-.5.54.22z"/><path fill="#b4e084" d="M28.46 5.1c.04.8-1.6 1.12-1.25.34.2-.17-.13-1.3 1.02-.54l.24.2z"/><path fill="#89c139" d="M28.32 32.5c.6.82-2.4-.26-1.38.5 1.26.12-1.1.92-.26.07-.9-.36 1.37-1.18 1.64-.57z"/><path fill="#cbe96a" d="M28.03 22.4c1.15.96-1.9.6-.14.3-.12.12.04-.66.13-.3z"/><path fill="#619924" d="M28.32 34.66c-.44 1.04-.62-.4-1.24.16.88-.02.15 1-.14.7-.27 1.1-1.83-.13-.23-.2 1.1-1.03-2.08.08-1.08-1.2-1.37.03.3-1.42.56-.14.47.14 1.6-.3.72.34.56-.06.9.35 1.42.34z"/><path fill="#619924" d="M28.32 30.33c-.42.58-1.1.57-.3-.04.06-.22.28-.1.3.03z"/><path fill="#386a1c" d="M28.32 32.06c-1.1.5-2.56-.46-1.6-.67-.56.97 1.63-.77 1.26.42l.34.24z"/><path fill="#386a1c" d="M27.9 21.54c.55.52-.4.5-.1.03-.34-.6.96-.6.2-.2l-.1.17z"/><path fill="#cbe96a" d="M27.74 34.08c1.75.97-1.7.23 0 0z"/><path fill="#cbe96a" d="M28.18 28.17c-.56.1-.7 1.2-1.45.44 1.3-.07-.65-.72.44-1 .57.3-.08.52 1 .57z"/><path fill="#386a1c" d="M27.9 35.8c.77.4-.72 2-.44.3.04-.2.32-.16.43-.3z"/><path fill="#b4e084" d="M27.17 3.95c.8-.2 2.7-1.17 1.1 0-.86.6-2.1 1.66-1.92-.05.3-.9.34 1.46.82.05z"/><path fill="#a2d558" d="M27.74 24c1.44-.03-.53.83 0 0z"/><path fill="#89c139" d="M28.18 15.05c0 .8-.63 1.5-1 .3-.77.85.1-1.1-.88-.15.08-.68-.92.22-.57-1 .83-.36 1.32-1 1.87-.88-1.28.45 1.45.63-.14 1.3.25.13.43.4.72.43z"/><path fill="#e9f6a2" d="M28.03 13.47c.08 1.1-1.6-.15-.18-.1l.18.1z"/><path fill="#cbe96a" d="M28.03 17.22c.54 1.02-2.14-.02-.57-.15-1.37-.1-.98-.64.08-.3.6-.5-.06.65.5.45z"/><path fill="#b4e084" d="M28.18 8.85c-.42.87-1.02-.26-1-.14.47-.3.55-.32 1 .15z"/><path fill="#619924" d="M27.46 11.02c1.5.6-.8.96-.38.2.12-.08.47.13.38-.2z"/><path fill="#619924" d="M27.9 21.97c-.58 1.4-2.18-.36-.84-.2.25.13.53.25.83.2z"/><path fill="#89c139" d="M26.88 3.38c.3-.8 1.54-1.37.52-.3.12.25-.42.62-.52.3z"/><path fill="#a2d558" d="M27.74 27.3c-.1.27-1.62.68-1.8.83.48-.7-.44-1.12.4-1.07-.84-.46.8-.56.25.1.6.16 1.22-.9.93.2l.2.1v-.15z"/><path fill="#619924" d="M27.74 18.37c.57.8-1.9 1-.3 0-.13-.25.45-.26.3 0z"/><path fill="#89c139" d="M27.6 9.3c.73.96-2.07-.7-.3-.05-.7-.62.4-.72.3.04z"/><path fill="#a2d558" d="M27.17 17.5c.6.7.65.67-.3.72.2-.4-.64-.23-.57-1.15.47 1.05-1.46-.04-.17-.17.36-.36 1.84.3.86.5l.17.1z"/><path fill="#f4f8d9" d="M27.6 24.13c.33 1.06-1.75-.35-.2-.02l.2.03z"/><path fill="#89c139" d="M27.46 33.65c.95.54-1.32 1.02-.15.3-1.3.22 1.15-1.26.16-.3z"/><path fill="#e9f6a2" d="M27.6 7.27c.22.3-.85.52-.83.96-.3-.72.4-.7.83-.96z"/><path fill="#f4f8d9" d="M27.6 19.1c-.9 1.1-1.52-.48-.13.03l.13-.04z"/><path fill="#89c139" d="M27.6 30.48c.1 1.42-2.55-.72-.72.14.28.16.44-.22.72-.14z"/><path fill="#a2d558" d="M27.74 8.28c-.92 1.48-1.12-1.6 0 0z"/><path fill="#386a1c" d="M27.6 12.46c-.72.26.26 1.37-.58.72-.6 1.23-1.9.83-.6.17-.9-.4 1.37-.27.5-.73-.44.25-1.45.14-1.7.27.25-.93-.34.5-.5-.48-.38.43.02-1.34-.73-.4 0-1.2 1.27-1.06 1.56-.8-1.13.5.38 1.5.54 1.05.73.3.67.46.78-.4.26.8.43.4.72.6z"/><path fill="#619924" d="M26.3 43.3c.84-.5 1.8.43.3.08l-.3-.07z"/><path fill="#386a1c" d="M27.46 18.22c-.44.77-1.02 1.33-1.34.68-.58-.13 1-1.48.97-.7.1-.07.27-.13.36.02z"/><path fill="#619924" d="M27.46 12.03c.07.96-1.2-.56-1.34-.43.54-1.32.47.23 1.34.43z"/><path fill="#619924" d="M27.46 9.72c-.03.37-1.18 1.72-1.67.7.66.06 1.34-.2.36-.56.45-.45.74-1 1.3-.14z"/><path fill="#cbe96a" d="M27.46 5.97c-.02.4-.3.32-.74.66-1.12-.7.72-.05 0-.95.24 0 .6.06.74.3z"/><path fill="#e9f6a2" d="M27.46 5.4c-1.1.6-.3-1.64 0 0z"/><path fill="#619924" d="M27.46 30.04c-.92.33-.03-.82-1.02-.43.73.7-1.08-.62.15-.28.68-.3.4-.2.86.72z"/><path fill="#386a1c" d="M27.3 33.36c.15.6-1.62.96-1.7.14-.36-.17-.9.83-1.2.03-1.3.3 1.62-1.73.46-.17.8.1.64-1.26 1-.23.56.43.84.27 1.45.23z"/><path fill="#89c139" d="M27.6 37.54c-.74 2.03-1.18-.9 0 0z"/><path fill="#386a1c" d="M27.17 6.4c-.62 1.1 1.1.82-.32 1.2-.55.7-.96-.76.05-.72-.1-.2.08-.42.27-.48z"/><path fill="#a2d558" d="M27.74 16.06c-.6.9-1.9.74-1.44-.72-.48.14-.6.66-1.44.15.93 1.16-.6-.28-.85.48-.26-.52.44-.66.4-.83-.25-.9 1.12-1.2.32.05 1.17.1.3-.9 1.22-.15.56-.42.08.32 1.08 0-.57.9.15.1.54.88l.18.13z"/><path fill="#cbe96a" d="M27.3 3.38c-.14 1.18-.93 1.22-.55.06-.08-.63.3.53.56-.06z"/><path fill="#89c139" d="M27.17 28.17c.33.58-.7.23-.15.72-.08.5-.6.53-.57-.44-1.05.56-.26.28-.44 1-.33-.33-1.18.14-.38-.67.62-1 1.13-1.14 1.55-.63z"/><path fill="#e9f6a2" d="M27.17 9.14c-.04.45-1.13-.9-.06-.6.1.27-.23.22.07.6z"/><path fill="#89c139" d="M26.73 38.84c.98-.25-.34.47.35.47-.92 1-1.57-.78-.35-.46z"/><path fill="#619924" d="M27.17 41.3c-.34-.63-1.78.53-1.58-.05.57-.26.6-.7.12-.97.83.17 1.12.28 1.27.62.7-.6.16 1.1.17.4z"/><path fill="#619924" d="M27.17 30.9c-.45.05-1.5.94-1.25.43-.75.52-1.4.3-.94-.27 1.2.34.36-.65 1.42-.03l.33-.12h.44z"/><path fill="#386a1c" d="M26.6 19.52c.82-.44.47 1.53 0 .15-.48.62-.07 1.6-.16 1.6-.68-.24-1.94.1-1.55-.8.6.02.65-.1.88.06.7-.28.74-1.18-.2-.86.2-.34.73-.38 1-.15z"/><path fill="#386a1c" d="M26.45 29.6c.93-.44.53.94-.13.25.05.12.86-.32.13-.24z"/><path fill="#89c139" d="M26.45 12.9c1.38-.8-.12.9-.44-.15.34-.17.3-.18.45.14z"/><path fill="#89c139" d="M26.6 34.66c1.1.67-.8.95-1.02 1.15-.43.74.3.76-.43.88.42.82-2.52.75-.93-.15.58-.58.7-.3.86-.07.55-1.13.02-1.78 1.5-1.8z"/><path fill="#619924" d="M27.02 8.13c-.67.6.2 1.34-.86.73.72.58-.73.5-.4-.15-1-.14 1.24-.07-.04-.57.82.56.9-.76 1.15.1l.15-.1z"/><path fill="#89c139" d="M27.02 5.54c-.27.45-2.17-.68-.57-.3.5-.94.5-.27.57.3z"/><path fill="#b4e084" d="M27.17 1.07c-.04 1.05-.32 2.87-.35.78 0-.28.06-.63.35-.78z"/><path fill="#a2d558" d="M26.88 30.04c.46.75-1.2.32-1.08.37.5-.3-.02-1.5.64-.64-.64.57.7.03.44.28z"/><path fill="#a2d558" d="M26.88 6.7c-.15.7-.9.24-.55.93-.73 1-.1-2.2.55-.94z"/><path fill="#619924" d="M26.88 5.83c.06 1-1.57.13 0 0z"/><path fill="#619924" d="M26.16 42c.67-1.24 1.33-.13 0 0z"/><path fill="#cbe96a" d="M26.16 30.48c-.08.1 1.3.56.02.47-.86-.54 0 .55-1.2.1-.97-.48 1.2-.27-.34-.6-.2-.7 1.24.55 1.52.03z"/><path fill="#89c139" d="M26.73 21.68c-.17.3-3.33.8-1.63.14.36-.35 1.34-1.34 1.32-.28l.3.14z"/><path fill="#a2d558" d="M26.73 10.44c-1.83-.9-.02 1.62-1.3 1 .37-.57-.74.1-.12-.9-.84-.8-1.32-1.17 0-1.54.02 1.25 1.1.54 1.43 1.44zm-1.3 0c.98-.8-1.46-.95 0 0z"/><path fill="#89c139" d="M26.88 11.88c-.1.85-.05.7-.78.4.25.38-1.04-.1-.7-.3-1.06-.82.97-.05.73-.8.17.7-.36.6.75.7z"/><path fill="#386a1c" d="M26 32.93c.18-1.05 1.35.08 0 0z"/><path fill="#cbe96a" d="M26.45 33.07c.7.68-2-.58 0-.14v.14z"/><path fill="#619924" d="M26.45 19.23c.38.23-.95.4-1.1.42-.15-.5 1.32-1.15 1.1-.42z"/><path fill="#386a1c" d="M26.6 10.87c-.4 1.15-1.35-.8 0 0z"/><path fill="#e9f6a2" d="M26.6 9.3c-.23 1.74-2.27-.74-.55-.1.9.26-.25-.87.54.1z"/><path fill="#f4f8d9" d="M26.3 7.84c1.16.53-1.5.2-.14.58-.98.56-1.24-1.65-.15-.57h.3z"/><path fill="#cbe96a" d="M26.6 29.32c-1.2-.2-.6-.83-.2-.64.04.22.2.4.2.64z"/><path fill="#89c139" d="M26.6 18.08c-.4.6-1.44.97-.6-.2.14-.45.37-.25.3-.8.17.3.18.67.3 1z"/><path fill="#e9f6a2" d="M26.3 3.67c.88 2-1.52-1.1 0 0z"/><path fill="#89c139" d="M26.3 13.32c-.12.34-1.5 1.28-2.16.87-.82-.55 1.06-.5-.25-.47-.65.57-1.32-.48-.34.03-.14-.56-.78-.13-.28-.87.62-.18.34.04.86.42 0-.53-.07-2.28.4-1.15-.13.56.63.73.65.4.44.28-.47.4 1.1.75z"/><path fill="#619924" d="M26 39.13c1.6 1.22-2.94 1-1 .86-.17-.64.57-.8 1-.87z"/><path fill="#386a1c" d="M26.6 24.86c-1.07.33-1.76-1-.27-.22l.26.22z"/><path fill="#a2d558" d="M26.3 19.66c-.42 1.47-.75.63-1.87.44.52-.97-.87-.45-.16-1.17.15-1.3.85-.56.46-.17 1-.27.67.22.7.47-.5.8.5.37.87.43z"/><path fill="#89c139" d="M26.3 15.34c.5 1.56-.56 1.8-1.03 1.35-.37.15.23-1-.4-1.2 1.15.6.74.02 1.43-.16z"/><path fill="#cbe96a" d="M26.16 13.04c.73 1.3-2.02-1.1 0 0z"/><path fill="#619924" d="M26 42.3c.8.7-1.42.04 0 .3-.46-.45.23-.6 0-.3z"/><path fill="#619924" d="M26 29.47c.35.7-.57 1.5-1.14.72.84.16 1.06-.83.32-.35.26-.2.48-1.08.83-.38z"/><path fill="#619924" d="M26 27.6c.54.35-1.7 3.1-1.28 1.58.9-.54.42-.6.06-1.26.26-.04 1.5.73.77-.14-.72-.65-2.04.32-.92-.85.88-.86.4.85 1.38.66z"/><path fill="#cbe96a" d="M26 31.63c.04.6-1.53-.16-.08-.3.3-.42-.24.3.1.3z"/><path fill="#386a1c" d="M26 17.5c-.2 1.17-.8 1.45-.85.73-1.1.43 1.46-.94-.4-.4-.4.95-.75-.06-1.04-.33-.36.06-.28-1.15-.42 0-.72-.17-.48-.8-1.1-1.22.73.4 2.08-.27 1.35.54.53.84.8.63 1.58.54-.05.47.45-.92.9.14z"/><path fill="#e9f6a2" d="M26 18.66c-.4 1.3-1.38.22 0 0z"/><path fill="#89c139" d="M26 7.56c-.1.83-2.38-1.2-.46-.64.65-.4-.04.46.47.64z"/><path fill="#89c139" d="M25.72 23.85c.6.57-2.3-.06-.57-.15l.33.03.24.12z"/><path fill="#f4f8d9" d="M25.44 8.7c1.56.26-1.62.98-.15 0h.14z"/><path fill="#cbe96a" d="M25.3 27.74c.9.12.36 1 0 .14-.32.88-.83-.8 0-.14z"/><path fill="#cbe96a" d="M25.72 14.2c-.08.76.23.86-.4.48.6.76-1.23.65-.36-.25-.76-.25 1.26-.87.76-.24z"/><path fill="#619924" d="M25.44 16.5c.6.53-.32 1.2-.65.73-.6.85-1.7-.57-.34-.34.63-.3-.9-.16.3-.74.93-.94-.14 1.43.68.34z"/><path fill="#386a1c" d="M25.3 29.9c1.4-.5-1.4 1.04-.44-.14.46-.9.7-.56.43.14z"/><path fill="#619924" d="M25.72 31.77c0 .47-.63 2.23-.7 1.33.4-1-1.58.85-.65-.43.28-.4.78-1.07 1.35-.9z"/><path fill="#619924" d="M25.72 23.4c-.06.92-2.16-.33-1.08-.42.6-.23.23.9 1.08.43z"/><path fill="#a2d558" d="M25.15 22.12c1.97.2-1.63 1.27 0 0z"/><path fill="#619924" d="M25.72 10c-.42 1.15-1.23-1 0 0z"/><path fill="#619924" d="M25.44 35.24c.4.56-2.47.14-.6.06l.3.02.3-.08z"/><path fill="#a2d558" d="M25.15 34.23c.94-.5.3 1.8-.62 1.06-.88.08 1.04.72-.53.22-.5-.43.5-.32.62-.9.72 0-.08-.8.53-.4z"/><path fill="#386a1c" d="M25.58 24c-.63.73-1.6-.24 0 0z"/><path fill="#a2d558" d="M25.58 8.42c-.35 1.25-1.75.22-.86-.72-.12 1.07.03.83.86.72z"/><path fill="#fbfcf4" d="M25.3 7.56c.1.56.32 1.18-.58.9-.07-.37.15-1.43.57-.9z"/><path fill="#cbe96a" d="M24.72 35.52c1.18-.28.5 0 .36.94-.17.2-.2-.87-.5-.07-.95-.88-2.23-.06-1.45-1.6-.2.87.96-.25.43.72.3-.37 1.25.7 1.16 0z"/><path fill="#f4f8d9" d="M25.58 21.54c-1.48-.06-.27-.97 0 0z"/><path fill="#89c139" d="M25.58 24.13c-.3.6-.58 1.17-1.08.37.23-.5.74-.1 1.08-.37z"/><path fill="#619924" d="M25 18.37c1.27-.37-1.17.92 0 0z"/><path fill="#cbe96a" d="M25.44 28.75c-.66.22-.94.8-1.73.3.85.27-.26 1.48-.57.7.62-.5-.14-1.17 1.14-1 .05-.15.34.82.54-.17.24-.65.14-.4.64.17z"/><path fill="#386a1c" d="M25.3 31.63c-.6.22-1.07 1.96-1.6 1.3-.13-.42-1.1-.33-1.13-.16-.38-.54.28-1.24-.34-.67-.5.3-.93-.12-1.15-.5-.53-.72 2.75-.8 1-.26-.5.84 1.16-.33 1.14-.23.84-.44 1.12-.5.63.25 1.34-.6-.65.7.56.23.35.16.5-.45.6.2l.1-.06.2-.1z"/><path fill="#89c139" d="M25.3 30.77c-1.1-.3-.1 1.22-1.3 1 .14-.72.7-.48-.2-.52.9-.44-.43-.76.48-.92-1.7-.06.44-.67.6.2.14 0 .4.04.4.24z"/><path fill="#cbe96a" d="M25.15 10.44c.52 1.27-1.52.03 0 0z"/><path fill="#619924" d="M25.3 20.53c-1.04-.6.05 1.46-1.07.4.48.86-2 1.08-.44.43.37-.5-.96-.8-.24-1.23-1.4-.1.86-.46 1-.6-.46.87.43.42.73 1z"/><path fill="#89c139" d="M24.72 18.08c.46-1.14 1.4.3 0 0z"/><path fill="#619924" d="M25.58 40.14c-.8.94-1.6.28 0 0z"/><path fill="#cbe96a" d="M25 33.8c.3.34-.5 1.3-1.24 1.1.54-1.44-1.2-.77-1.6-.37-1.7.1.45-1.04.47-.88.22.97-.1-1.17.4-.34.4-.46.16.8.87.07.26.32.68.3 1.1.42z"/><path fill="#386a1c" d="M25.15 23.7c-1 .43-1.03-.5-.63-.4-.23.54.42-.12.63.4z"/><path fill="#e9f6a2" d="M24.86 6.12c1.27 1.1-.62 1.1 0 0z"/><path fill="#386a1c" d="M25.15 10.44c-.4-.1-2.32-1.08-.56-.73.25.2.38.5.55.74z"/><path fill="#89c139" d="M25 38.4c.5 1.1-1.25-1.04.15-.57-.47-.08-.62.52-.14.58z"/><path fill="#386a1c" d="M25.3 27.74c-.9-.37-.2 1.9-.84.36-1.72-.3.77-1 .83-.36z"/><path fill="#f4f8d9" d="M25 7.4c-.27.62-.86.62-.43-.42l.22.2.2.23z"/><path fill="#386a1c" d="M24.86 15.92c-.67 1.24-.96-.03-1.86-.15.16-1.58.58 1.08 1.27 0 .58-.27.1.08.6.15z"/><path fill="#89c139" d="M24.86 9.14c-.42.65-1.2-1.1-.22-.35l.08.34h.14z"/><path fill="#e9f6a2" d="M24.57 29.76c.83.4-1.92.37-.2 0h.2z"/><path fill="#386a1c" d="M24.72 29.18c.44.9-1.9.7-.35.3-.26-.74.16.12.35-.3z"/><path fill="#619924" d="M24.72 23.7c-.82.5-2.2.8-2.02-.14.8.04 1.2-.1 2.02.14z"/><path fill="#89c139" d="M24.72 28.75c-.38 1.03-.18-.58-.62.1-1.43-.08-.07-1.57.62-.1z"/><path fill="#619924" d="M24.57 24c.5.47-.63 1.27-.57.14.12-.07.52.1.57-.15z"/><path fill="#619924" d="M24.28 22.26c-.3.4 1.1.12-.14.46-1.28-.03-.53-.45.14-.46z"/><path fill="#a2d558" d="M24.28 16.64c1.4.15-1.72.6-.43-.14-.92-.56.24-.55.43.14z"/><path fill="#cbe96a" d="M23.85 27.74c1.05.4 1 1.17-.03.34-.95.13-.53 1.7-1.4.53-.03-.58-.24-.76.26-.58-.5-.46 1.44-1.4.97-.47-.27-.2-.36.32-.35.35.42.24.32.1.55-.16z"/><path fill="#a2d558" d="M24.57 39.56c0 1.2-.54.22-1-.14.45.18.7.14 1 .14z"/><path fill="#619924" d="M24.43 9.14c.13 1.04-1.88-.13-.54-.17.08.2.4.55.53.17z"/><path fill="#f4f8d9" d="M24.57 14.48c-.3 1-1.52-.27-1.76-.3-.16-1.1.9.1 1.63-.57-.6.42-.8.23.14.88z"/><path fill="#619924" d="M24 37.26c1 .64-.33.45-.33.58-.8-.8-.25-.47.04-.73l.07.1.23.06z"/><path fill="#89c139" d="M24.43 18.22c.04.85-.8 2.2-.54 1.1-1.58.2 1.06-.52-.48-.8-.1-.7.75.3.37-.64.84-.44-.38.93.63.34z"/><path fill="#619924" d="M24.28 14.9c.5.98-.5-.14-.3.96-.44-.02-.44-1.28-1.27-.3-.23.9-.7-1.12.3-.36.44-.48.9-.24 1.14-.58.03.08 0 .3.14.3z"/><path fill="#619924" d="M23.85 38.4c1.5-.36-.32 1.24 0 0z"/><path fill="#a2d558" d="M23.7 27.45c1.42-.84-.1 1.03-.52.34.7-.14-.13-.3.53-.35z"/><path fill="#fbfcf4" d="M24.28 22.98c.43 1.58-1.8-.33 0 0z"/><path fill="#619924" d="M24.28 34.95c.36.46-1.04.08-.28.57-.9.23.13-.9-.84-.33 0-.95-.52 1.05.04.8.56 1.06-1.1.06-.48-.38-.46-.67.15 1.87-.7.55-.47-.3-1.45-.8-.2-.65 0-.7-1.64.28-.58-.38-.06-.27.56-.3.05-.74 1.12.65 1.68-.97 2.55.26-.33.36.22.47.43.3z"/><path fill="#619924" d="M24.28 29.18c.65 1.2-1.63-.7 0 0z"/><path fill="#619924" d="M23.56 30.33c1.15-.2.3.42.1.56-.7.45-.93.34-1.74.8.4-.73.88-.6.53-.98 1 0 .5.38 1.1-.4z"/><path fill="#619924" d="M23.7 10.73c1.18 0 .3 1.2-.27.66.25-.52.57.14.28-.67z"/><path fill="#619924" d="M24.57 36.4c-.73.52-.53.43-.8.07-1.2-1 .34-.64.8-.08z"/><path fill="#89c139" d="M24 33.07c.86.17-1.15 1.02-.72 0-.7.17-.43.1-.58.87-.03-1-.92.6-.9-.5-.93-.8-.7.66-.98.64 0-.48-1-.7 0-.72-1.34-1.28 1.38.23 1.12-1.33.7-.08.7-.3.34.77 0 .92 1.8-1 1.43.4.08-.02.3.02.3-.13z"/><path fill="#a2d558" d="M24 12.03c.7.94-.2 1.6-.3.7-.33.25-1.15.78-.13.8-.44.68-1.94-1.48-.2-1.12.16-.8-1.37-.66-.97-1.26.8.7.83-1.73 1.45.02-1.42.74.8-.14.15.87z"/><path fill="#619924" d="M23.7 41c.62-.38.26 1.37.02.88-.53.9-.78.06-.17-.07-.74-1.4.62.57.16-.8z"/><path fill="#a2d558" d="M24 17.5c-.1.92-.63.5-.54 1.4-.72.96-.46-.9-.67-1 .32-.2.73-1.5.62-.4H24z"/><path fill="#a2d558" d="M24 34.66c-.8-.05-1-1.37-.2-.3l.2.3z"/><path fill="#e9f6a2" d="M23.7 19.8c.15.4-1.32-.8-.14-.44.76-.17.25.13.15.45z"/><path fill="#b4e084" d="M23.56 22.84c.98.25-1.24 1.3-.73.52.3-.58.68.1.73-.52z"/><path fill="#619924" d="M23.13 40.7c.58-.38 1.02-.13.12.5-.85.22-1.4.36-.5-.14.4-.78-1.8-.32-1.05-1.15.96.66-.56-.8.9-.34.37-.02-.15 1.56.43.33.47-.34-.1.5.1.8z"/><path fill="#89c139" d="M23.7 14.62c-.12.67-1.26.4-.28.13-1.15-.32-.5-.72.3-.13z"/><path fill="#f4f8d9" d="M23.7 8.85c-1.1.92-.17-2.6-.3-.75-.25-.1.3.6.3.75z"/><path fill="#f4f8d9" d="M23.42 15.2c.9-.35-.4 2.22 0 0z"/><path fill="#cbe96a" d="M24 19.1c-1.08.3-.7-.22-.32-.55l.13.15.2.4z"/><path fill="#a2d558" d="M23.56 28.75c.34-.1-.77.17 0 .57-.72 1.04-.98-.62-.43-.47 0-.9.2-.44.43-.1z"/><path fill="#386a1c" d="M23.56 30.04c-.7.78-1.26-1.06-.54-.2l.12.1.42.1z"/><path fill="#b4e084" d="M23.13 16.06c1.28.53-1.33.47-.3-.64.43-.36-.04.57.3.64z"/><path fill="#cbe96a" d="M23.56 30.33c-.57.25-1.37.3-1.65-.1 1.15-.56-2.62-.48-.42-.76.13-.87.9.8.56-.28-1.52-.2-.58-1.67 0-.16 1.4.14.46.62.57.84.28.24.64.33.96.45z"/><path fill="#b4e084" d="M23.42 9c.28 1.26-1.06-.04-.43-.3l.27.1.15.2z"/><path fill="#a2d558" d="M23.28 36.53c1 .5-1.53.6-.78-.35-.1-.83.4-.87.06-.08.97-.32-.2.5.72.43z"/><path fill="#386a1c" d="M22.84 14.33c.5.53.84.62-.3.48-.97-.02-.6-.16.3-.47z"/><path fill="#89c139" d="M23.42 12.3c-.4.13-.83-.28-.9-.34-1.06-.77.77-.47.9.35z"/><path fill="#386a1c" d="M23.28 30.48c0 .7-1.03.08-1.58.35-.74-.7.73.27 1-.5.2.27.18.43.58.15z"/><path fill="#89c139" d="M23 25.14c.5.72.4 1.4-.24 1.07.55-.4-.44-.24.23-1.06z"/><path fill="#89c139" d="M23.13 41.3c.25.28-.64.56 0 .7-.82-.1-1.02-.17 0-.7z"/><path fill="#89c139" d="M23.13 22.98c-.3.58-.93 1.23-.75.22.24-.13.54-.02.75-.22z"/><path fill="#cbe96a" d="M22.84 32.5c1 .68-1.4.4-.27.27.3.5 0-.27.27-.27z"/><path fill="#619924" d="M23 36.82c.47.48-.9 1.73-.3.45.28 0 0-.5.3-.45z"/><path fill="#89c139" d="M23.13 10.58c.3 1.04-1.08.2-.84-.13.5.5.62-.83.83.13z"/><path fill="#e9f6a2" d="M23 17.5c.1.53-1.1.24-.66-.22-.5-1 .56-.63.65.22z"/><path fill="#619924" d="M22.7 18.08c1.22 1.04-1.76 1.45-.27.87-1.27-.54 1.2-.5-.45-.58.08-.5 1.2-.9.72-.3z"/><path fill="#386a1c" d="M23 18.8c-.46-1.78.45.8-.37.1l.17-.1h.2z"/><path fill="#619924" d="M22.4 20.82c1.1.57-.04.86 0 1.3-.74-1.02-1.04-.5 0-1.3z"/><path fill="#a2d558" d="M23 10c-.1.94-1.67.32-.43.14.07-.17.28-.16.42-.13z"/><path fill="#b4e084" d="M22.4 12.17c1.75-.67-.87 1.54 0 0z"/><path fill="#a2d558" d="M22.7 25.87c.94.93-2.26-.42-.5-.4.12.14.6.14.5.4z"/><path fill="#f4f8d9" d="M22.84 8.7c-.1 1.42-1.35-1.68 0 0z"/><path fill="#a2d558" d="M22.7 23.7c.6.14-.85 1.6-.3.15.1 0 .34.04.3-.15z"/><path fill="#e9f6a2" d="M22.84 11.16c-.55.86-2.53-2.6-.75-1.36 1.08.15-.82.55.36 1.03l.2.15.18.18z"/><path fill="#619924" d="M22.7 20.24c.27.95-1.28 0-.16.25.03-.16-.3-.63.16-.26z"/><path fill="#619924" d="M22.7 24.86c.8 1.75-2.92-.17-1 0 .05.45.56-.12 1 0z"/><path fill="#e9f6a2" d="M22.7 40.86c.1.83-1.74.66-.22.1l.22-.1z"/><path fill="#a2d558" d="M22.56 27.6c.58.82-.7-.06-.15 1-.73 0-.85-.7-1.48-.55.43-.82-.03-.86 1.06-.6.56-.6.2-.14.58.14z"/><path fill="#89c139" d="M22.7 29.04c-.95.62-1.08-1.23-.15-.2l.15.2z"/><path fill="#89c139" d="M22.7 14.2c-.43.96-2.4-.14-1.97-.6-1.2.2.12-1.08-.9-1 .77-.16 1.28 1.26 1.14.15.37.37-.08 1.18.58.57.13.35-.06 1.47 1.15.87z"/><path fill="#a2d558" d="M21.7 41c1.06-.33 1.15-.14.13.3-.2.03-1.93.17-.57 0 .2-.07.18-1.48.43-.3z"/><path fill="#f4f8d9" d="M22.27 17.8c.6.48-1.43.07-.15-.73.88.76.14.14.15.72z"/><path fill="#cbe96a" d="M22.56 23.85c-1.1.8-1.77-1.2-.44-.54.53.26-.13.3.44.55z"/><path fill="#619924" d="M22.7 16.35c-.7 0-.45.3-1.47.18-1.16 0-.06-1-1.2-1.55 1.2.03 1 1.12 1.35 1.35.13-.2-.2-.4.34-.37-.34-1 .76.5.98.4z"/><path fill="#89c139" d="M22.56 36.82c-.74-.27.18 1.27-.53.36-.9-.4-.6-2.07.53-.36z"/><path fill="#619924" d="M22.4 23.85c.3 1.02-.8 1.06-.34.27-1.04 0-.07-.1.35-.27z"/><path fill="#619924" d="M21.83 25.87c1.16 0 .08 1.32-.02.24-1.57.4-.68.05.03-.23z"/><path fill="#a2d558" d="M21.7 21.26c.37.5 1.2 1.1-.07.77-.08-.6-.82-1.3.2-.92l-.03.12-.1.04z"/><path fill="#386a1c" d="M21.83 33.94c1.63-.84-.9.7-.42.1.17 0 .26-.17.43-.1z"/><path fill="#386a1c" d="M22.27 16.78c-.84.73-1.47-.28 0 0z"/><path fill="#386a1c" d="M21.83 13.76c1.3 1.3-1.13.12 0 0z"/><path fill="#619924" d="M22.27 30.04c-.77.32.46 1.04-.87.44.33.45 1.4.7.16.63-.72-.1-.7.76-.74-.2-.57-.2 1.1-.92.23-1 .12-.43 1-.04 1.22.14z"/><path fill="#619924" d="M22.12 27.02h-.2.2z"/><path fill="#89c139" d="M22.12 18.08c-.73 1-1.1-1 0 0z"/><path fill="#619924" d="M21.98 27.45c-1.03-.2-.55-.15-1.35.2-.08-.72 1.14-1.37 1.35-.2z"/><path fill="#619924" d="M21.7 20.4c1.05 1.22-1.7-.25 0 0z"/><path fill="#a2d558" d="M21.98 33.65c-.78.48-.55.53-.98 1.26-.43-.72-.4-.66.1-.95-.57-.67.55-1.07.88-.3z"/><path fill="#cbe96a" d="M21.98 25.43c-.5.27-.02.85-.93.14-.23-.47.65-.1.93-.14z"/><path fill="#cbe96a" d="M21.83 32.2c.1 1.42-2.3-.33-.5.26.06-.2.4-.06.5-.25z"/><path fill="#a2d558" d="M21.83 35.52c-1.62-.26.68.7-.75.4-1.57-.28.86-1.04.75-.4z"/><path fill="#89c139" d="M21.4 15.92c.27.6-.56.52-.14-.3-.85-.04.38-1.05.14.3z"/><path fill="#e9f6a2" d="M21.55 32.35c-1.52-.73-.37-1.5 0 0z"/><path fill="#619924" d="M21.12 39.27c-.2.86.85 1.22-.53 1.64-.6.3 1.2-1.67-.5-1.2-.52-1.45.28.15 1.02-.43z"/><path fill="#619924" d="M20.97 25.43c1.25.77-1.88.45-.1-.1h.05l.05.1z"/><path fill="#386a1c" d="M21.4 32.35c-.57.13-2.4-.08-.78-.4.5-.34.38.4.78.4z"/><path fill="#e9f6a2" d="M20.97 30.04c.95-.08-.88 1.38-1.13.75.78-.52.1-1.3 1.37-1.4-1.12.57.04 0-.23.64z"/><path fill="#a2d558" d="M21.26 22.98c-.83 1.07-.9-.58 0 0z"/><path fill="#619924" d="M20.97 36.4c.56.5-.1 1.2 0 .13-.78.82-1.43-.38 0-.14z"/><path fill="#e9f6a2" d="M21.26 41c-.48 1.1-1.33-.55-.43.1l.12.04.3-.14z"/><path fill="#89c139" d="M20.4 24.13c.84-.34.9-.68.37.5-.26.3.9.56.15.7-.38.97-1.98-.85-1-.25-.04-.66 1.16.13.47-.95z"/><path fill="#619924" d="M21.26 32.78c-.46.1-.97-.2-1.08.37-.04-1.4-.22 1.02-.58-.15-1.26.3.7-2.02.36-.65.6-.1.73.3 1.3.43z"/><path fill="#89c139" d="M21.12 27.6c-.12 1.62-2.04-.35-.5.05l.12.04.38-.1z"/><path fill="#619924" d="M20.54 37.1c1.27.38-.1.28.15.48-.5 1.32-1.93-.42-.6-.04.34.58.4-.22.44-.43z"/><path fill="#619924" d="M20.68 23.27c1.45-.2-1.67.7-.44.06l.23.02.2-.08z"/><path fill="#a2d558" d="M20.82 31.5c.62.55-1.62.9-.42.14 0-.1.55-.54.42-.15z"/><path fill="#89c139" d="M20.25 25.87c1.1-.33.5 1.4-.16 1.2-.98.32 1.03-.43-.25-.64.3-.58-1.28.3-.47-.6.3.2.77.4.87.04z"/><path fill="#e9f6a2" d="M20.97 22.84c-.44.43-1.18.05-1.15-.58.3.36.9.17 1.15.58z"/><path fill="#a2d558" d="M20.82 27.02c-.1.67-2.22 1.35-1.25.54.13-.22-1.08-1.04-1.2-.1.07-.66.16-1.93 1.16-1.02.36-.8 1.1.87.3.72.32-.14.66-.04 1-.14z"/><path fill="#cbe96a" d="M20.82 40.28c-.62.57-.52.92-.2 1.27-.74-.25-1.28-.4-.8-1.4.35-.07.7.5 1 .13z"/><path fill="#386a1c" d="M20.82 33.36c-1.23.68-.8-1.1-.68-.45 0 .75.47-.46.68.46z"/><path fill="#619924" d="M20.82 34.08c-.36-.14.16.96-.43.15-.85-.82 0-.94.42-.15z"/><path fill="#619924" d="M20.97 20.24c-.37.96-.04.47-.87.87-.55-.47-1.25-1.16-.15-.55.35.27.66-.33 1.02-.3z"/><path fill="#e9f6a2" d="M20.25 15.2c.9.5 0 1.2-.25.18.08-.07.22-.06.25-.18z"/><path fill="#619924" d="M20.54 43.6c.3.6-1.66.35-.5 0 .62.6-.04-.86.5 0z"/><path fill="#619924" d="M19.1 30.33c.37-.6 2-.8 1.02-.23.1.94-.98-.1-1.03.67-.6-.6-.82-1.94-.08-1.27-.12.2-.2.74.07.83z"/><path fill="#e9f6a2" d="M20.4 34.23c.44.64-1.83.03-.2-.1l.2.1z"/><path fill="#89c139" d="M19.53 42.44c1-1.02 1.23.2 0 0z"/><path fill="#e9f6a2" d="M20.4 33.36c-.27.8-1.78-.3 0 0z"/><path fill="#cbe96a" d="M20.4 22.84c-.2.8-1.87-.27-.7-.82 0 .36.24 1.1.7.82z"/><path fill="#f4f8d9" d="M19.67 19.66c-.7.25 1.62.94.2.6-.5.32-1.73.15-.63-.74.03.2.33.1.43.14z"/><path fill="#619924" d="M19.96 24.7c1.06.33-1.03.25-.43-.13.38-.06.63-.64.43.14z"/><path fill="#619924" d="M19.82 40c.2.98-1.05 1.78-.6.43-.32-1.42.07.18.6-.44z"/><path fill="#cbe96a" d="M19.1 24.13c.8-.3.48 1.95.03.36l-.04-.37z"/><path fill="#619924" d="M18.23 36.1c.18-1.14 2.6-.7.75-.4-.88.62-.54.4.1.26-.13.3-.73.7-.85.14z"/><path fill="#b4e084" d="M19.67 19.66c-1-.02-.7-1.86-.25-.2l.25.2z"/><path fill="#b4e084" d="M19.53 26c-.57-.73-1.7 1.74-1.25-.02.04-.93 1.06-.66 1.25.03z"/><path fill="#cbe96a" d="M18.8 31.34c.82-.73.43.78.4.78-.42 0-.28 1.02-.68.1 1.33-.8-1.33-.4-.73-1.06.18-.08 1.1.8 1 .18z"/><path fill="#e9f6a2" d="M19.24 42.3c.67.8-1.72.76 0 0z"/><path fill="#e9f6a2" d="M18.52 41.87c2.26-.1-2.3 1.3-.3.57-.5-.6-2.47-1.2-.65-.85.64-.36.53.35.95.27z"/><path fill="#619924" d="M18.52 21.97c1.25-.5.44 1.14-.08.2.32.82-.96.08.08-.2z"/><path fill="#619924" d="M19.1 27.3c.1.62-.5.1-.86.9-.73.13-.85-.15-.22-.6.27.6.2-.2 1.07-.3z"/><path fill="#89c139" d="M18.23 35.24c1.4-.83.24.67 0 .14v-.14z"/><path fill="#619924" d="M19.67 23.56c-.8-.02-2.33-.24-.72-.45.28.02.7.1.72.46z"/><path fill="#619924" d="M17.94 41.58c.5-.36 1.5-.17.46.1.26.86-.3-.4-.46-.1z"/><path fill="#cbe96a" d="M18.1 40.43c0 .5 1.43-.86.75.15-.33.43-1.97.26-.76-.15z"/><path fill="#619924" d="M18.23 31.77c1.34-.7.04 1.5-.27.46-.62.66-1.15-.4-.18-.06-.02-.3.33-.25.02-.83l.26.17.17.27z"/><path fill="#e9f6a2" d="M18.8 31.34c-.56.74-.92-2.16-.24-.25l.1.24h.15z"/><path fill="#619924" d="M18.1 43.6c1.3-.13.48 1.32.1.42 0-.16-.18-.25-.1-.42z"/><path fill="#619924" d="M17.8 23.4c2.05.4.46 1.16 0 0z"/><path fill="#89c139" d="M18.52 32.2c.34 1.13-.87.42-.7.37-1.16.45.95 1.3-.73.8-.76-.3-.76-2.44-.18-.53.43-.13 1-.8 1.6-.34-.16 0-.16-.28 0-.3z"/><path fill="#619924" d="M18.52 26.44c.3 1.4-1.15-.38-1.48.2.05-.2.57-.97.18-1.64 1.35-.07.95 1.43 1.08 1.7l.1-.17.12-.1z"/><path fill="#89c139" d="M18.23 21.54c.95.87-1.58 1.25-.1.27l.08-.1.03-.16z"/><path fill="#619924" d="M18.37 33.36c.22.74-.4.6-.85.4.43-.03.48-.35.85-.4z"/><path fill="#cbe96a" d="M17.94 28.46c1.28.55-1.16.45 0 0z"/><path fill="#619924" d="M18.1 38.26c1.57.17-1.24 1-.6-.14.5-.3.57 1.46.6.14z"/><path fill="#cbe96a" d="M18.23 21.54c-.26 1.02-1.6 1.38-1.88.14.78.4 1.06.1 1.88-.14z"/><path fill="#fbfcf4" d="M18.23 35.38c-.08.93-1.63.3-.18-.02l.18.02z"/><path fill="#f4f8d9" d="M18.23 35.24c-.4.16-1 .55-.74.84-.85-.05.16-1.2.73-.84z"/><path fill="#619924" d="M18.1 29.18c-.3 1.44-1.45-.44-1.45.5.33.34-1.44.23-.16-.24-.6.27-.32-.44.1-.7-.33-.5 1-.24.9.35l.3.06.3.02z"/><path fill="#89c139" d="M18.1 34.8c-1.5.78-.22-1.4-.1-.44-.7.3-.24.2.1.44z"/><path fill="#89c139" d="M17.94 22.84c-.37 1.38-1.32.33 0 0z"/><path fill="#89c139" d="M17.8 31.63c.93 1.07-1.9-.6 0 0z"/><path fill="#b4e084" d="M17.94 21.54c.05.33-1.3.56-1-.12.83.55-.3-1.43.64-.3l.2.18.16.24z"/><path fill="#619924" d="M17.36 30.04c1.63.2-.97.22-.23-.05l.1.04h.13z"/><path fill="#619924" d="M17.8 44.46c.6.2-2.35.37-.58 0-.02-.52.58-.4.58 0z"/><path fill="#89c139" d="M17.8 28.32c.28.67-1 .52-.3-.15l.1.12.2.02z"/><path fill="#a2d558" d="M17.65 27.88c.07.52-1.66 1.2-.82-.17.68-.5.15.4.82.18z"/><path fill="#cbe96a" d="M17.65 32.35c-.5.88-.85.3-1.15-.43.47-.1.68.9 1.15.43z"/><path fill="#f4f8d9" d="M17.5 22.84c-.14 1.58-1.65-1.86-.26-.27.2-.02.27 0 .27.27z"/><path fill="#89c139" d="M17.5 33.94c-.02 1.13-2.03.1-.3.06l.3-.06z"/><path fill="#89c139" d="M17.36 38.4c.65.8-1.2.53-.14 1.02-1.08.46.02-.8-.43-.8.54.2.44-.67.56-.2z"/><path fill="#cbe96a" d="M17.36 29.9c-.66.58-1.04-1.2-.14-.3l.14.3z"/><path fill="#89c139" d="M16.98 42.5c1.53.43-1.2.52-.2.18.13.5.32-.05.2-.18z"/><path fill="#a2d558" d="M17.65 37.54c-.7-.13-2.52.8-2 .06.82-.37 1.2-.7 2-.06z"/><path fill="#89c139" d="M17.22 44.17c.18.43-1.28.76-.58 0 .1.44.36-.16.58 0z"/><path fill="#619924" d="M17.22 38.26c0 .7-1.78 1.15-1.16.15.17 1.2.7-.9.96-.44.18-.03.27.17.2.3z"/><path fill="#89c139" d="M17.22 25c.8.83-.8 2.12-.82 1.5.83-.02-2.2-2.2-.06-1.88.3.02.76.02.88.38zm0 .87c-.45-.9-2 .27 0 0z"/><path fill="#e9f6a2" d="M17.22 41c-.1.9-1.8-.3-.27-.13l.27.13z"/><path fill="#386a1c" d="M16.93 25.43c.9 1.23-1.67.1 0 0z"/><path fill="#386a1c" d="M16.8 38.84c.65 0-1.2 1.27-.22.15l.2-.16z"/><path fill="#89c139" d="M16.93 42.44l.04.06-.04-.06z"/><path fill="#a2d558" d="M16.35 32.5c1.3.45-.4 1.4.3.43-.83.6-1.33.9-.73-.15-.8.36-.66-.6-1.3-.86.7-.1 1.33.35 1.73.58z"/><path fill="#89c139" d="M16.64 37.83c.35.8-.9 1.4-.72.14-.12-.55.47.07.72-.14z"/><path fill="#cbe96a" d="M16.64 39.42c.26.7-1.5.08-.28-.3 0 .42-.26.5.28.3z"/><path fill="#e9f6a2" d="M16.5 37.26c-1.14.1.6-1.33 0 0z"/><path fill="#e9f6a2" d="M16.64 44.17c-.76.18-.82.33-.14-.3-.56-.23.5-.68.14.3z"/><path fill="#cbe96a" d="M16.64 32.35c-.48.3-2.36-.76-1.45-1.03-.43-1.47.92 1.32.72.02.58.1.3.8.72 1z"/><path fill="#619924" d="M16.5 26.3c-.52-.7-.6.92-1 0 1.74 0-1.68-1.35 0-.95.47.06.75.6 1 .95z"/><path fill="#619924" d="M15.92 28.03c.98.1-.1.6-.3 1.15.37-.58-1.14-1.04-.1-.82.2.34.32-.23.4-.33z"/><path fill="#619924" d="M15.5 31.05c.9.08.38 1.34-.13.14-.05-.12-.67-1.1.14-.4v.25z"/><path fill="#89c139" d="M15.92 44.03c-.04.5-.16 1.1-.43.5-.67.76-.55-1.34.13-.5-.66.16-.3.73.3 0z"/><path fill="#619924" d="M16.35 27.02c-.7 1.1-1-1.02 0 0z"/><path fill="#a2d558" d="M15.63 28.6c.16.95-.76 1.12-.43.15-1 .52-1.1-.22-.08-.28l.12.1.4.04z"/><path fill="#b4e084" d="M15.63 24.57c.1.92-.06.85-.72.57.12-.32.46-.43.73-.57z"/><path fill="#e9f6a2" d="M15.5 39c.16.95-1.92.3-.3.03l.3-.04z"/><path fill="#89c139" d="M15.06 35.1c1.7.43-1.36.53 0 0z"/><path fill="#89c139" d="M15.35 33.22c.32.57-.64.5-.87.72.23-.3.44-.7.87-.72z"/><path fill="#89c139" d="M15.35 29.9c-.76-.57.06 1.1-.78.53-.1-.4.5-1.2.78-.53z"/><path fill="#619924" d="M15.2 28.75c-.3.83-.9.45-.52.03.16.66.16-.17.52-.03z"/><path fill="#e9f6a2" d="M14.9 25.87c1.4.93-1.58.03 0-.3-.44-.6.73.04 0 .3z"/><path fill="#619924" d="M14.77 31.5c.87 1.16-1.55-.6 0 0z"/><path fill="#e9f6a2" d="M15.06 30.48c.34.72-1.35 0-1.3.24-.58-.55.96-.1 1.3-.24z"/><path fill="#619924" d="M15.06 30.33c.2.28-1 .5 0 0z"/><path fill="#619924" d="M14.63 36.1c.4.5.06.57.72 1.3-.84-.32-1.08-1.1-1.26-.47-.52.3-2.38 1.93-1.63.95.53-.28.03-1.02 1.18-1.06.95-.44-.48-.7.98-.72z"/><path fill="#89c139" d="M14.77 42c1 1.1-1.44-.12-.02.26l.02-.25z"/><path fill="#386a1c" d="M14.9 25.14c-.02 1.67-1.42-.35 0 0z"/><path fill="#619924" d="M14.9 26.6c-1.13.55-.5-1.56 0 0z"/><path fill="#cbe96a" d="M14.77 29.18c-.97-.5-.43 1.27-1 .14 1.12-.45-.8-1.28.64-.9.08.8-.6.17.37.76z"/><path fill="#e9f6a2" d="M14.57 30.43l.06.05-.06-.05z"/><path fill="#cbe96a" d="M14.48 33.07c.4.9-1.73.66-.67.02-.53.77.4-.14.68-.03z"/><path fill="#89c139" d="M14.2 25.43c.62-.03-.27 1.8-.15.35-.32-.17 0-1 .14-.35z"/><path fill="#a2d558" d="M13.76 29.76c.12.34.8.23.04.8.2-.93-2.5-.78-1.2-1.24.36.23.68.7 1.16.44z"/><path fill="#e9f6a2" d="M14.05 31.34c-.4.95-1.26-1.87-.36-.3l.06.3h.3z"/><path fill="#a2d558" d="M13.9 36.4c.47.6-1.72-.06-.43-.3-.14-1.22.28.5.44.3z"/><path fill="#89c139" d="M13.33 28.03c.04-1.18.72 1.3 0 0z"/><path fill="#619924" d="M13.18 30.48c.97 1.1-1.32.37-.82-.04.27.07.55.04.82.04z"/><path fill="#89c139" d="M13.47 28.75c-.63.22-1.47-.48-.3.38.34.74-1.34-.4-.67-1-.92-1.26 1.74.52.4.33.13.22.5 0 .57.3z"/><path fill="#89c139" d="M13.47 36.1c-.57.35-.15.66-1.08.62-.46 1-.7.2-1.6.2 0 .05-1.66-.92-.38-.43 1.06.36 2.64-.16 1.2-.67-.15-.53-.47-.92-.45-1.03.55.75 1.6.86 2.3 1.3z"/><path fill="#386a1c" d="M13.18 36.53c1.74.5-1.8.18-.78.87.6-.9.44 1.4-.5 0 .3-.85.84-.66 1.28-.87z"/><path fill="#e9f6a2" d="M13.33 38.26c-.35.95-1.66-.1-.18.1l.18-.1z"/><path fill="#cbe96a" d="M13.04 32.93c-.1.77-1.17.24-.76-.4.1.47.58.08.76.4z"/><path fill="#e9f6a2" d="M12.75 43.88c.6.94-1.2.1-1.8.14-.84-.7 1.17.54 1.8-.14z"/><path fill="#cbe96a" d="M13.04 36.97c-.54.4-1.33.46-.3-.1l.3.1z"/><path fill="#619924" d="M11.9 43.02c.78-.18 1.64.65.42.58-.03-.5-1.52-.15-.43-.58z"/><path fill="#89c139" d="M12.6 32.06c-.04.6-.25.82-1.03.18.35-.93.06.7.78-.14l.26-.04z"/><path fill="#386a1c" d="M11.9 36.1c1.23-.03-.9.97-.74.36.1-.28.42-.5.73-.36z"/><path fill="#e9f6a2" d="M12.32 28.46c.8 1.05-.2.42-.52.13l.12-.1.4-.04z"/><path fill="#e9f6a2" d="M10.88 33.36c.33.5 1.56.55.43.87-.23-.66-.56-.1-.42-.87z"/><path fill="#619924" d="M11.9 36.1c-.72.36-1.57.77-2.26-.02.46-.77 2.8-.92.97-.1-.28.97 1.18-.86 1.3.12z"/><path fill="#e9f6a2" d="M11.74 41.87c.03 1.07-2.24-.63-.65.07l.32.02.32-.1z"/><path fill="#cbe96a" d="M11.46 35.52c.37.8-2 .82-.3.14l.3-.14z"/><path fill="#f4f8d9" d="M11.02 34.95c1.1.17-1.03 1.1-.96.26-1.3-.5 0-1.28.52-.5.18-.05.34.12.44.25z"/><path fill="#89c139" d="M11.17 30.04c-.27 0-.55.56-1.3 0 1.1.43-.22-1.62.9-.45l.2.2.2.24z"/><path fill="#e9f6a2" d="M10.73 33.36c-.05 1.07-1.35-.63 0 0z"/><path fill="#619924" d="M10.6 41.44c-1.6-.43-.84-1.1 0 0z"/><path fill="#619924" d="M10.16 33.65c.82-.15-.67.27-.5.28-1.25.3.7-.9-.1-.67-.47.03-1.1 1.35-1.05-.1-.64-.88.07-1.1.58-.13.66.7.2-1.44.63 0 .17.3.82-.03.46.62z"/><path fill="#89c139" d="M10.16 35.52c.4.08-1.22.88-.58 0-2.42-.16.8-1.08.58 0z"/><path fill="url(#b)" d="M25.73 43.9c.05 1.37.24 1.74.43 3-.05 0-.1 0-.15 0-.5 0-1.04 0-1.57 0s-1.06 0-1.6 0c.15-.24.52-.25.73-.42-.07-.75.4-.94.3-1.73 0-.48 0-.96 0-1.44l-.07-1.5c.06-.03.2.2.2.2-.1-.47-.1-.68.14-1-.15.05-.43 0-.43 0v-.1c.1-.17.15-.47.15-.47s-.1-.1-.18-.04c.04-.28.05-.66.05-.66.16.07.56 0 .57.1 0 .1-.12.45.13.48.23-.17.48-.3 1.3-.3-.18.3-.05 2.64 0 3.87z"/></g></svg>