<svg xmlns="http://www.w3.org/2000/svg" width="48" height="48" xmlns:xlink="http://www.w3.org/1999/xlink"><defs><radialGradient id="g" cx="1151.796" cy="531.623" r="28.839" gradientUnits="userSpaceOnUse" fy="531.623" fx="1151.796"><stop offset="0" stop-color="#fff"/><stop offset="1" stop-color="#ACB6BE"/></radialGradient><radialGradient id="f" cx="1151.793" cy="531.624" r="28.841" gradientUnits="userSpaceOnUse" fy="531.624" fx="1151.793"><stop offset="0" stop-color="#fff"/><stop offset="1" stop-color="#ACB6BE"/></radialGradient><radialGradient id="e" cx="1161.531" cy="547.073" r="31.715" gradientUnits="userSpaceOnUse" fy="547.073" fx="1161.531"><stop offset=".006" stop-color="#E9EAEB"/><stop offset="1" stop-color="#8794A0"/></radialGradient><radialGradient id="d" cx="1182.724" cy="544.445" r="25.962" gradientUnits="userSpaceOnUse" fy="544.445" fx="1182.724"><stop offset="0" stop-color="#fff"/><stop offset="1" stop-color="#8794A0"/></radialGradient><radialGradient id="c" cx="1162.188" cy="528.675" r="17.312" gradientUnits="userSpaceOnUse" fy="528.675" fx="1162.188"><stop offset=".006" stop-color="#E9EAEB"/><stop offset="1" stop-color="#8794A0"/></radialGradient><linearGradient id="h" x1="1160.057" x2="1160.057" y1="507.702" y2="517.78" gradientUnits="userSpaceOnUse" gradientTransform="matrix(1.134 0 0 1.134 -1292.246 -575.489)"><stop offset="0" stop-color="#E96712"/><stop offset=".648" stop-color="#D4290C"/><stop offset="1" stop-color="#CB1009"/></linearGradient><linearGradient id="b" x1="1145.153" x2="1145.153" y1="1809.316" y2="1817.061" gradientTransform="matrix(1.009 .517 -1.099 .711 848.11 -1842.485)" gradientUnits="userSpaceOnUse"><stop offset="0" stop-color="#E96712"/><stop offset=".648" stop-color="#D4290C"/><stop offset="1" stop-color="#CB1009"/></linearGradient><linearGradient id="a" x1="4350.458" x2="4350.458" y1="-523.467" y2="-515.413" gradientTransform="matrix(-1.009 .517 1.099 .711 4998.348 -1842.485)" gradientUnits="userSpaceOnUse"><stop offset="0" stop-color="#E96712"/><stop offset=".648" stop-color="#D4290C"/><stop offset="1" stop-color="#CB1009"/></linearGradient><linearGradient x1="4350.458" x2="4350.458" y1="-523.467" y2="-515.413" xlink:href="#a" gradientUnits="userSpaceOnUse" gradientTransform="matrix(-1.009 .517 1.099 .711 4998.348 -1842.485)"/><linearGradient x1="1145.153" x2="1145.153" y1="1809.316" y2="1817.061" xlink:href="#b" gradientUnits="userSpaceOnUse" gradientTransform="matrix(1.009 .517 -1.099 .711 848.11 -1842.485)"/><linearGradient id="j" x1="4350.458" x2="4350.458" y1="-523.467" y2="-515.413" xlink:href="#a" gradientUnits="userSpaceOnUse" gradientTransform="matrix(-.931 .647 1.184 .558 4703.516 -2486.666)"/><linearGradient id="i" x1="1145.153" x2="1145.153" y1="1809.316" y2="1817.061" xlink:href="#b" gradientUnits="userSpaceOnUse" gradientTransform="matrix(.93 .649 -1.186 .555 1094.874 -1711.693)"/></defs><g><g transform="matrix(1.134 0 0 1.134 -1292.246 -575.489)"><radialGradient cx="1162.188" cy="528.675" r="17.312" gradientUnits="userSpaceOnUse" fy="528.675" fx="1162.188"><stop offset=".006" stop-color="#E9EAEB"/><stop offset="1" stop-color="#8794A0"/></radialGradient><path fill="url(#c)" d="M1159 522.77c4.9 3.52 13.22 4.83 17.34 4.44-3.57 3.58-8.9 6.3-14.9 6.87-6.85 0-13.25-2.52-18.12-6.04 8.82-.3 13.8-3.8 15.68-5.26z"/><radialGradient cx="1182.724" cy="544.445" r="25.962" gradientUnits="userSpaceOnUse" fy="544.445" fx="1182.724"><stop offset="0" stop-color="#fff"/><stop offset="1" stop-color="#8794A0"/></radialGradient><path fill="url(#d)" d="M1176.34 527.2c-3.57 3.58-8.9 6.3-14.9 6.87.33 2.24 1.07 6.75-.14 11 2.98-.77 13.57-7.17 14.42-8.35 1-2.16 1.04-7.86.62-9.5z"/><radialGradient cx="1161.531" cy="547.073" r="31.715" gradientUnits="userSpaceOnUse" fy="547.073" fx="1161.531"><stop offset=".006" stop-color="#E9EAEB"/><stop offset="1" stop-color="#8794A0"/></radialGradient><path fill="url(#e)" d="M1161.45 534.07c-6.86 0-13.26-2.52-18.13-6.04-.4 1.7-.53 7.7.6 9.73 3.34 2.1 11.34 5.55 17.4 7.32 1.2-4.26.45-8.77.13-11z"/><g><radialGradient cx="1151.793" cy="531.624" r="28.841" gradientUnits="userSpaceOnUse" fy="531.624" fx="1151.793"><stop offset="0" stop-color="#fff"/><stop offset="1" stop-color="#ACB6BE"/></radialGradient><path fill="url(#f)" d="M1161.4 533.67c-6.17 0-12.52-2.12-17.84-5.96l-.47.65c5.45 3.94 11.97 6.12 18.35 6.12 5.76-.55 11.28-3.1 15.17-6.98l-.56-.57c-3.77 3.76-9.1 6.22-14.65 6.74z"/></g><g><radialGradient cx="1151.796" cy="531.623" r="28.839" gradientUnits="userSpaceOnUse" fy="531.623" fx="1151.796"><stop offset="0" stop-color="#fff"/><stop offset="1" stop-color="#ACB6BE"/></radialGradient><path fill="url(#g)" d="M1161.06 534.12l.05.34c.34 2.3.95 6.54-.18 10.52l.77.2c1.16-4.13.53-8.5.2-10.83l-.06-.34-.78.12z"/></g><path fill="none" stroke="#192333" stroke-width=".882" d="M1161.3 545.1c-6.04-1.8-14.05-5.24-17.37-7.34-1.14-2.02-1-8.02-.6-9.73 8.8-.28 13.78-3.8 15.66-5.26 4.9 3.52 13.2 4.83 17.34 4.44.42 1.66.4 7.36-.62 9.52-.85 1.18-11.44 7.58-14.4 8.37z"/></g><path fill="url(#h)" stroke="#590b08" stroke-width="1.5" d="M16.4.2v9.18h-4.83c-.27 0-.5.22-.5.5 0 .12.07.25.16.34h.02c2.47 2.56 11 10.14 11 10.14.4.4 1 .4 1.4 0l11.03-10.14c.1-.08.15-.2.15-.35 0-.27-.22-.5-.5-.5H29.5V.2"/><g><path fill="#f62724" d="M28.07.2v10.6s2.67 0 3.88 0c-2.08 1.92-7.74 7.12-9 8.27-1-.88-6.07-5.4-9.08-8.27 1.22 0 3.96 0 3.96 0V.2H16.7s0 8.4 0 9.47c-.86 0-4.37 0-4.37 0l-.2.4c-.03.07-.05.16-.05.25 0 .2.1.42.24.58 3.12 3.02 10.06 9.2 10.13 9.25l.27.27.23-.06.5-.22S33.5 10.9 33.5 10.9c.25-.2.34-.54.23-.82l-.15-.36-.46-.05s-3.07 0-3.9 0c0-1.06 0-9.48 0-9.48h-1.15z"/></g><path fill="url(#i)" stroke="#590b08" stroke-width="1.5" d="M11.35 33.85L4.65 37l-3.23-2.25c-.15-.1-.42-.13-.6-.06-.08.04-.12.1-.13.17l-.1 7.47c-.03.27.23.5.8.56l12.86 1.42c.1 0 .2 0 .3-.05.17-.08.18-.23.03-.34l-3.35-2.34 6.72-3.16"/><path fill="none" stroke="#f62724" stroke-width=".75" d="M17.05 38.1l-7.2 3.37s2.13 1.5 2.76 1.93c.05.03.04.06 0 .06-2.53-.3-11.13-1.25-11.13-1.25-.1 0-.18-.14-.18-.2-.03-1.15.03-6.35.03-6.35 0-.04.06-.08.08-.06.62.4 3.18 2.2 3.18 2.2l7.07-3.32"/><path fill="url(#j)" stroke="#590b08" stroke-width="1.5" d="M36.06 32.92l7.14 3.46 3.24-2.23c.16-.1.42-.13.6-.05.08.04.13.1.13.16l.08 7.5c.02.26-.16.48-.8.55L33.6 43.7c-.1 0-.23 0-.3-.05-.2-.08-.2-.23-.04-.34l3.33-2.33-7.16-3.48"/><path fill="none" stroke="#f62724" stroke-width=".75" d="M30.36 37.16l7.6 3.7s-2.1 1.48-2.73 1.92c-.03.03-.03.06 0 .06 2.55-.28 11.14-1.23 11.14-1.23.1 0 .2-.15.2-.22 0-1.17-.04-6.33-.04-6.33 0-.03-.06-.08-.08-.06-.6.4-3.18 2.2-3.18 2.2l-7.5-3.65"/></g></svg>