<svg xmlns="http://www.w3.org/2000/svg" width="48" height="48"><defs><radialGradient id="a" cx="1036.37" cy="540.398" r="41.737" gradientUnits="userSpaceOnUse" fy="540.398" fx="1036.37" gradientTransform="matrix(1.104 0 0 1.104 -1083.266 -559.872)"><stop offset="0" stop-color="#fff"/><stop offset="1" stop-color="#8794A0"/></radialGradient><radialGradient id="b" cx="982.077" cy="520.617" r="59.844" gradientUnits="userSpaceOnUse" fy="520.617" fx="982.077"><stop offset="0" stop-color="#fff"/><stop offset="1" stop-color="#8794A0"/></radialGradient><radialGradient id="c" cx="997.44" cy="551.34" r="40.979" gradientUnits="userSpaceOnUse" fy="551.34" fx="997.44" gradientTransform="matrix(1.104 0 0 1.104 -1083.266 -559.872)"><stop offset="0" stop-color="#fff"/><stop offset="1" stop-color="#8794A0"/></radialGradient></defs><g><path fill="url(#a)" d="M36.07 47.5l11.36-13.66c0-21.66-8.86-26.1-15.85-31.18l-9.03 13.38C35.97 23 35.22 32.72 36.07 47.5z"/><path fill="url(#b)" d="M981.5 523.25l12.22-10.84 15.93-3-8.18 12.1-19.97 1.75z" transform="matrix(1.104 0 0 1.104 -1083.266 -559.872)"/><path fill="url(#c)" d="M22.55 16.04C35.97 23 35.22 32.72 36.07 47.5l-22.13-8.66h.13c0-4.5-.55-14.6-13.57-20.88l22.05-1.92z"/><path fill="none" stroke="#ed2728" stroke-width="1.5" d="M22.7 16.04C36.1 23 35.2 31.72 36.06 46.5" stroke-linecap="round"/><path fill="none" stroke="#fff" d="M.5 17.96l22.05-1.92" stroke-linecap="round"/><path fill="none" stroke="#fff" d="M31.58 2.66l-9.03 13.38" stroke-linecap="round"/><path fill="none" stroke="#ed2728" stroke-width="1.5" d="M13.94 38.84h.14c0-4.5-.56-14.6-13.58-20.88" stroke-linecap="round"/><path fill="none" stroke="#192333" d="M47.43 33.84L36.07 47.5l-22.13-8.66"/><path fill="none" stroke="#ed2728" stroke-width="1.5" d="M31.58 2.66c7 5.1 15.85 9.5 15.85 31.18" stroke-linecap="round"/><path fill="none" stroke="#192333" d="M.5 17.96L14 6l17.58-3.34" stroke-linecap="round"/></g></svg>