<svg xmlns="http://www.w3.org/2000/svg" width="48" height="48"><defs><radialGradient id="a" cx="907.254" cy="510.9" r="57.212" gradientUnits="userSpaceOnUse" fy="510.9" fx="907.254"><stop offset="0" stop-color="#fff"/><stop offset="1" stop-color="#8794A0"/></radialGradient><radialGradient id="b" cx="899.132" cy="540.535" r="36.603" gradientUnits="userSpaceOnUse" fy="540.535" fx="899.132" gradientTransform="matrix(1.122 0 0 1.122 -1013.67 -568.986)"><stop offset="0" stop-color="#fff"/><stop offset="1" stop-color="#8794A0"/></radialGradient><radialGradient id="c" cx="917.664" cy="506.138" r="37.254" gradientUnits="userSpaceOnUse" fy="506.138" fx="917.664" gradientTransform="matrix(1.122 0 0 1.122 -1013.67 -568.986)"><stop offset="0" stop-color="#fff"/><stop offset="1" stop-color="#8794A0"/></radialGradient><radialGradient id="d" cx="923.229" cy="518.321" r="30.086" gradientUnits="userSpaceOnUse" fy="518.321" fx="923.229"><stop offset="0" stop-color="#fff"/><stop offset="1" stop-color="#ACB6BE"/></radialGradient></defs><g><path fill="url(#a)" d="M908.73 512.24l15 5.98 18.57-4.95-15.23-5.34-18.34 4.3z" transform="matrix(1.122 0 0 1.122 -1013.67 -568.986)"/><path fill="url(#b)" d="M9.4 45.18l26.05 2.32c-2.8-10.37-8.4-21.82-12.44-35.24L6.2 5.56c-.73 17.8 1.77 32.28 3.2 39.62z"/><path fill="url(#c)" d="M35.45 47.5c-2.8-10.37-9.1-18.84-12.44-35.24l20.86-5.54c.7 10.28-3.04 24.68-4.47 29.96L35.44 47.5z"/><path fill="none" stroke="#ed2728" stroke-width="1.5" d="M6.2 5.55c-.73 17.8-.04 24.24 3.2 39.62" stroke-linecap="round"/><path fill="none" stroke="#ed2728" stroke-width="1.5" d="M39.4 36.68c1.42-7.5 5.17-19.68 4.46-29.96" stroke-linecap="round"/><path fill="none" stroke="#ef2929" stroke-width="1.5" d="M23 12.57c1.43 14 10.3 23.3 12.3 34.57" stroke-linecap="round"/><path fill="none" stroke="#192333" d="M9.4 45.18l26.05 2.32 3.94-10.82" stroke-linecap="round"/><g transform="matrix(1.122 0 0 1.122 -1013.67 -568.986)"><radialGradient cx="923.229" cy="518.321" r="30.086" gradientUnits="userSpaceOnUse" fy="518.321" fx="923.229"><stop offset="0" stop-color="#fff"/><stop offset="1" stop-color="#ACB6BE"/></radialGradient><path fill="url(#d)" d="M908.54 512.7l15.15 6.04 18.73-4.98-.26-.97s-18.1 4.8-18.42 4.9c-.3-.13-14.84-5.93-14.84-5.93l-.36.93z"/></g><path fill="none" stroke="#192333" d="M43.86 6.72l-17.1-6L6.2 5.55" stroke-linecap="round"/></g></svg>