<svg xmlns="http://www.w3.org/2000/svg" width="48" height="48" xmlns:xlink="http://www.w3.org/1999/xlink" version="1" viewBox="0 0 612 792" enable-background="new 0 0 612 792"><defs><linearGradient id="h"><stop offset="0" stop-color="#d3d7cf" stop-opacity=".216"/><stop offset=".5" stop-color="#656e5c"/><stop offset="1" stop-color="#d3d7cf" stop-opacity=".27"/></linearGradient><linearGradient id="g"><stop offset="0" stop-color="#fffc83"/><stop offset=".5" stop-color="#ff5e5e" stop-opacity=".624"/><stop offset="1" stop-color="#ff7575" stop-opacity="0"/></linearGradient><radialGradient cx="396.108" cy="394.418" r="11.026" xlink:href="#a" gradientUnits="userSpaceOnUse" gradientTransform="matrix(-.944 .354 -.209 -.576 852.846 480.783)"/><radialGradient cx="394.306" cy="393.273" r="5.427" xlink:href="#b" gradientUnits="userSpaceOnUse" gradientTransform="matrix(1.006 0 0 1.024 -1.444 -10.153)"/><linearGradient x1="379.365" x2="413.304" y1="420.568" y2="397.565" xlink:href="#c" gradientUnits="userSpaceOnUse"/><radialGradient cx="389.193" cy="408.471" r="17.68" xlink:href="#d" gradientUnits="userSpaceOnUse" gradientTransform="matrix(.725 -.709 .488 .517 -91.492 473.054)"/><radialGradient cx="394.817" cy="404.805" r="32.125" xlink:href="#e" gradientUnits="userSpaceOnUse" gradientTransform="matrix(1.006 0 0 .512 -1.444 197.086)"/><linearGradient x1="382.685" x2="398.205" y1="404.262" y2="404.262" xlink:href="#f" gradientUnits="userSpaceOnUse"/><radialGradient id="b" cx="394.306" cy="393.273" r="5.427" gradientTransform="matrix(1.006 0 0 1.024 -1.444 -10.153)" gradientUnits="userSpaceOnUse"><stop offset=".098" stop-color="#EF3C24" stop-opacity=".66"/><stop offset=".35" stop-color="#EF4723" stop-opacity=".45"/><stop offset=".434" stop-color="#EF4823" stop-opacity=".391"/><stop offset="1" stop-color="#F04D23" stop-opacity="0"/></radialGradient><linearGradient id="c" x1="379.365" x2="413.304" y1="420.568" y2="397.565" gradientUnits="userSpaceOnUse"><stop offset="0" stop-color="#A9ABAE"/><stop offset="1" stop-color="#463B27"/></linearGradient><radialGradient id="d" cx="389.193" cy="408.471" r="17.68" gradientTransform="matrix(.725 -.709 .488 .517 -91.492 473.054)" gradientUnits="userSpaceOnUse"><stop offset="0" stop-color="#B83826"/><stop offset=".084" stop-color="#B83C26" stop-opacity=".892"/><stop offset=".178" stop-color="#B84726" stop-opacity=".77"/><stop offset=".278" stop-color="#B85827" stop-opacity=".641"/><stop offset=".356" stop-color="#B86728" stop-opacity=".54"/><stop offset=".413" stop-color="#A9652D" stop-opacity=".492"/><stop offset=".629" stop-color="#71533B" stop-opacity=".311"/><stop offset=".806" stop-color="#483C33" stop-opacity=".163"/><stop offset=".934" stop-color="#221E1D" stop-opacity=".056"/><stop offset="1" stop-opacity="0"/></radialGradient><radialGradient id="e" cx="394.817" cy="404.805" r="32.125" gradientTransform="matrix(1.006 0 0 .512 -1.444 197.086)" gradientUnits="userSpaceOnUse"><stop offset=".574" stop-opacity="0"/><stop offset=".609" stop-color="#22201F" stop-opacity=".1"/><stop offset=".675" stop-color="#4A4540" stop-opacity=".294"/><stop offset=".766" stop-color="#786E5D" stop-opacity=".559"/><stop offset=".797" stop-color="#8A7D66" stop-opacity=".651"/><stop offset=".821" stop-color="#978A73" stop-opacity=".685"/><stop offset=".869" stop-color="#AFA18B" stop-opacity=".757"/><stop offset=".916" stop-color="#C0B29D" stop-opacity=".826"/><stop offset=".961" stop-color="#CABCA8" stop-opacity=".892"/><stop offset="1" stop-color="#CEC0AB" stop-opacity=".95"/></radialGradient><linearGradient id="f" x1="382.685" x2="398.205" y1="404.262" y2="404.262" gradientUnits="userSpaceOnUse"><stop offset=".294" stop-color="#EF3F25"/><stop offset=".546" stop-color="#FDBA12"/><stop offset=".724" stop-color="#E64525"/></linearGradient><linearGradient x1="382.685" x2="398.205" y1="404.262" y2="404.262" xlink:href="#f" gradientUnits="userSpaceOnUse" gradientTransform="matrix(16.885 0 0 16.885 -6362.305 -6256.18)"/><radialGradient id="o" cx="394.817" cy="404.805" r="32.125" xlink:href="#e" gradientUnits="userSpaceOnUse" gradientTransform="matrix(16.978 0 0 8.645 -6386.691 -2928.441)"/><radialGradient cx="389.193" cy="408.471" r="17.68" xlink:href="#d" gradientUnits="userSpaceOnUse" gradientTransform="matrix(12.243 -11.978 8.233 8.726 -8171.119 1500.188)"/><linearGradient id="n" x1="379.365" x2="413.304" y1="420.568" y2="397.565" xlink:href="#c" gradientUnits="userSpaceOnUse" gradientTransform="matrix(16.885 0 0 16.885 -6362.305 -6256.18)"/><radialGradient cx="394.306" cy="393.273" r="5.427" xlink:href="#b" gradientUnits="userSpaceOnUse" gradientTransform="matrix(16.978 0 0 17.288 -6386.691 -6427.616)"/><radialGradient id="m" cx="396.108" cy="394.418" r="11.026" xlink:href="#a" gradientUnits="userSpaceOnUse" gradientTransform="matrix(-.944 .354 -.209 -.576 852.846 480.783)"/><radialGradient cx="332.522" cy="375.729" r="370.394" xlink:href="#g" fx="332.522" fy="375.729" gradientUnits="userSpaceOnUse"/><linearGradient x1="140.137" x2="458.028" y1="202.907" y2="202.907" xlink:href="#h" gradientUnits="userSpaceOnUse"/><radialGradient cx="26.766" cy="171.939" r="2.15" gradientTransform="translate(-.162 -166.619)" fx="26.766" fy="171.939" gradientUnits="userSpaceOnUse"><stop offset="0" stop-color="#686C73"/><stop offset=".477" stop-color="#6B6F76"/><stop offset=".832" stop-color="#73787F"/><stop offset="1" stop-color="#7A7F87"/></radialGradient><radialGradient cx="32.541" cy="173.929" r="4.713" gradientTransform="translate(-.162 -166.619)" fx="32.541" fy="173.929" gradientUnits="userSpaceOnUse"><stop offset="0" stop-color="#B9C1CC"/><stop offset="1" stop-color="#7A7F87"/></radialGradient><radialGradient cx="9.994" cy="189.229" r="2.421" gradientTransform="translate(-.162 -166.619)" fx="9.994" fy="189.229" gradientUnits="userSpaceOnUse"><stop offset="0" stop-color="#C5CDD9"/><stop offset=".391" stop-color="#B9C1CC"/><stop offset="1" stop-color="#7A7F87"/></radialGradient><radialGradient cx="16.985" cy="176.936" r="16.354" gradientTransform="translate(-.162 -166.619)" fx="16.985" fy="176.936" gradientUnits="userSpaceOnUse"><stop offset="0" stop-color="#C5CDD9"/><stop offset=".391" stop-color="#B9C1CC"/><stop offset="1" stop-color="#7A7F87"/></radialGradient><radialGradient cx="13.473" cy="198.051" r="11.141" gradientTransform="translate(-.162 -166.619)" fx="13.473" fy="198.051" gradientUnits="userSpaceOnUse"><stop offset=".006" stop-color="#7A7F87"/><stop offset=".257" stop-color="#72767E"/><stop offset=".674" stop-color="#5B5F64"/><stop offset="1" stop-color="#45484C"/></radialGradient><radialGradient id="i" cx="-1820.169" cy="2452.891" r="12.435" fx="-1820.169" fy="2452.891" gradientTransform="matrix(.141 -.854 1.374 .228 -3092.436 -2066.132)" gradientUnits="userSpaceOnUse"><stop offset=".006" stop-color="#7A7F87"/><stop offset=".257" stop-color="#72767E"/><stop offset=".674" stop-color="#5B5F64"/><stop offset="1" stop-color="#45484C"/></radialGradient><radialGradient id="j" cx="-1814.346" cy="2452.24" r="26.88" fx="-1814.346" fy="2452.24" gradientTransform="matrix(.141 -.854 1.374 .228 -3092.436 -2066.132)" gradientUnits="userSpaceOnUse"><stop offset="0" stop-color="#45484C"/><stop offset="1" stop-color="#232426"/></radialGradient><radialGradient id="k" cx="-339.195" cy="253.592" r="5.552" fx="-339.195" fy="253.592" gradientTransform="matrix(1.153 0 0 1.16 416.124 -253.436)" gradientUnits="userSpaceOnUse"><stop offset=".006" stop-color="#7A7F87"/><stop offset=".257" stop-color="#72767E"/><stop offset=".674" stop-color="#5B5F64"/><stop offset="1" stop-color="#45484C"/></radialGradient><radialGradient cx="37.998" cy="197.499" r="5.553" gradientTransform="translate(-.162 -166.619)" fx="37.998" fy="197.499" gradientUnits="userSpaceOnUse"><stop offset=".006" stop-color="#7A7F87"/><stop offset=".299" stop-color="#7D828A"/><stop offset=".517" stop-color="#858B93"/><stop offset=".712" stop-color="#949AA4"/><stop offset=".89" stop-color="#A9B0BA"/><stop offset="1" stop-color="#B9C1CC"/></radialGradient><radialGradient cx="25.805" cy="190.717" r="11.571" gradientTransform="translate(-.162 -166.619)" fx="25.805" fy="190.717" gradientUnits="userSpaceOnUse"><stop offset=".006" stop-color="#7A7F87"/><stop offset=".257" stop-color="#72767E"/><stop offset=".674" stop-color="#5B5F64"/><stop offset="1" stop-color="#45484C"/></radialGradient><radialGradient cx="30.215" cy="176.464" r="20.857" gradientTransform="translate(-.162 -166.619)" fx="30.215" fy="176.464" gradientUnits="userSpaceOnUse"><stop offset="0" stop-color="#C5CDD9"/><stop offset=".391" stop-color="#B9C1CC"/><stop offset="1" stop-color="#7A7F87"/></radialGradient><linearGradient x1="21.839" x2="14.156" y1="175.51" y2="184.085" gradientTransform="translate(-.162 -166.619)" gradientUnits="userSpaceOnUse"><stop offset="0" stop-color="#B9C1CC"/><stop offset="1" stop-color="#7A7F87"/></linearGradient><linearGradient x1="20.39" x2="24.998" y1="164.793" y2="194.636" gradientTransform="translate(-.162 -166.619)" gradientUnits="userSpaceOnUse"><stop offset="0" stop-color="#B9C1CC"/><stop offset="1" stop-color="#7A7F87"/></linearGradient><radialGradient id="l" cx="25.73" cy="201.197" r="14.331" gradientTransform="translate(-.162 -166.619)" fx="25.73" fy="201.197" gradientUnits="userSpaceOnUse"><stop offset="0" stop-color="#45484C"/><stop offset="1" stop-color="#232426"/></radialGradient><radialGradient cx="16.209" cy="180.536" r="8.41" gradientTransform="translate(-.162 -166.619)" fx="16.209" fy="180.536" gradientUnits="userSpaceOnUse"><stop offset=".006" stop-color="#7A7F87"/><stop offset=".257" stop-color="#72767E"/><stop offset=".674" stop-color="#5B5F64"/><stop offset="1" stop-color="#45484C"/></radialGradient><radialGradient cx="25.763" cy="185.824" r="6.391" gradientTransform="translate(-.162 -166.619)" fx="25.763" fy="185.824" gradientUnits="userSpaceOnUse"><stop offset=".006" stop-color="#232426"/><stop offset=".396" stop-color="#252729"/><stop offset=".659" stop-color="#2D2F32"/><stop offset=".884" stop-color="#3B3D41"/><stop offset="1" stop-color="#45484C"/></radialGradient><radialGradient cx="14.956" cy="188.785" r="12.493" gradientTransform="translate(-.162 -166.619)" fx="14.956" fy="188.785" gradientUnits="userSpaceOnUse"><stop offset="0" stop-color="#45484C"/><stop offset="1" stop-color="#232426"/></radialGradient><radialGradient cx="25.801" cy="177.97" r="12.27" gradientTransform="translate(-.162 -166.619)" fx="25.801" fy="177.97" gradientUnits="userSpaceOnUse"><stop offset="0" stop-color="#959CA6"/><stop offset=".43" stop-color="#A1A8B3"/><stop offset=".591" stop-color="#AAB1BC"/><stop offset=".858" stop-color="#C1C9D6"/><stop offset="1" stop-color="#D0D9E6"/></radialGradient><radialGradient cx="27.134" cy="191.287" r="5.39" gradientTransform="translate(-.162 -166.619)" fx="27.134" fy="191.287" gradientUnits="userSpaceOnUse"><stop offset=".006" stop-color="#7A7F87"/><stop offset="1" stop-color="#45484C"/></radialGradient><radialGradient cx="40.3" cy="195.863" r="5.845" gradientTransform="translate(-.162 -166.619)" fx="40.3" fy="195.863" gradientUnits="userSpaceOnUse"><stop offset=".006" stop-color="#7A7F87"/><stop offset=".257" stop-color="#72767E"/><stop offset=".674" stop-color="#5B5F64"/><stop offset="1" stop-color="#45484C"/></radialGradient><radialGradient cx="44.196" cy="194.711" r="7.938" gradientTransform="translate(-.162 -166.619)" fx="44.196" fy="194.711" gradientUnits="userSpaceOnUse"><stop offset="0" stop-color="#DCE0E6"/><stop offset=".363" stop-color="#B9C1CC"/><stop offset="1" stop-color="#7A7F87"/></radialGradient><radialGradient cx="40.959" cy="186.152" r="10.142" gradientTransform="translate(-.162 -166.619)" fx="40.959" fy="186.152" gradientUnits="userSpaceOnUse"><stop offset=".006" stop-color="#7A7F87"/><stop offset=".257" stop-color="#72767E"/><stop offset=".674" stop-color="#5B5F64"/><stop offset="1" stop-color="#45484C"/></radialGradient><radialGradient cx="29.164" cy="200.964" r="13.852" gradientTransform="translate(-.162 -166.619)" fx="29.164" fy="200.964" gradientUnits="userSpaceOnUse"><stop offset="0" stop-color="#45484C"/><stop offset="1" stop-color="#232426"/></radialGradient><radialGradient cx="-1820.169" cy="2452.891" r="12.435" xlink:href="#i" gradientUnits="userSpaceOnUse" gradientTransform="matrix(2.335 -14.089 22.668 3.757 -51914.821 -34365.699)" fx="-1820.169" fy="2452.891"/><radialGradient cx="-1814.346" cy="2452.24" r="26.88" xlink:href="#j" gradientUnits="userSpaceOnUse" gradientTransform="matrix(2.335 -14.089 22.668 3.757 -51914.821 -34365.699)" fx="-1814.346" fy="2452.24"/><radialGradient cx="-339.195" cy="253.592" r="5.552" xlink:href="#k" gradientUnits="userSpaceOnUse" gradientTransform="matrix(19.031 0 0 19.133 5976.425 -4456.216)" fx="-339.195" fy="253.592"/><radialGradient cx="25.73" cy="201.197" r="14.331" xlink:href="#l" gradientUnits="userSpaceOnUse" gradientTransform="matrix(16.5 0 0 16.5 -1023.563 -3012.48)" fx="25.73" fy="201.197"/></defs><path fill="none" stroke="#56513f" stroke-width="11.819" stroke-miterlimit="10" d="M323.8 786.04c-11.4 0-24.22-2.4-39.07-5.18-20.5-3.85-43.73-8.17-71.9-8.17-19.43 0-38.3 2.07-57.7 6.32-3.85.86-8.3 1.25-13.63 1.25-9.05 0-19.35-1.22-29.33-2.38-9.17-1.07-18.7-2.2-26.2-2.2-6.7 0-20.53 4.57-26.65 4.57-15.83 0-35.1-7.26-43.05-11.1-20.5-9.84-38.94-10.68-55.18-11.4-14.85-.68-27.7-1.27-37.66-8.92 0 0-5.47-2.64-5.47-7.18 0-4.52 3.6-8.4 3.6-8.4C-39.38 684.73.18 647.4 38.46 611.3c65.82-62.1 122.65-115.72 159.26-208.94l6.16-17.24c2.9-3.85 6.05-7.63 8.47-9.52 2.38-1.9 5.04-3.58 8.22-5.1 3.42-1.66 14.4-2.9 20.52-2.9 13.3 0 20.75 4.64 24.77 7.12.3.18.5.3.62.4 10.48-.98 20.75-12.4 28.3-20.83 6.78-7.58 11.7-13.05 18.82-13.05l1.8.14c1.05-.37 2.32-2.97 3.15-4.7 2.6-5.5 7.03-20.08 17.85-22.1 10.15-1.88 17.53-6.63 21.02-9.3 2.47-1.9 5.56-2.92 8.85-2.92 10.9 0 22.6 11.65 23.93 12.97.64.63 5.94 7.3 9.1 11.9l11.6 25.92c13.96 96.43 83.83 163.68 157.73 234.9 44.58 42.9 90.66 87.26 124.68 139.25 3.2 4.9 3.44 10.97.66 16.3-8.3 15.8-43.6 24.1-74.18 24.1-11.8 0-23.57-1.13-35-3.32-1.53-.34-18.77 2.55-27.1 6.06-10.3 4.36-39 9.22-40.44 9.13-3.58-.26-7.05-.36-10.47-.36-11.9 0-23.25 1.3-34.24 2.53-10.76 1.22-21.87 2.47-33.2 2.47-7.77 0-14.93-.58-21.9-1.76-7.82-1.3-16.25-1.94-25.82-1.94-16.24 0-32.33 1.9-45.23 3.46-9.44 1.17-16.92 2.04-22.66 2.04z" stroke-linecap="round" stroke-linejoin="round"/><path fill="none" stroke="#b1ab9d" stroke-width="15.196" stroke-miterlimit="10" d="M684.5 733.38c-88.8-135.62-260.82-218.13-284.12-378.62-.07.05-.1.05-.17.12-1.36-6.62-14.33-28.64-17.47-31.83-3.3-3.38-14.42-12.43-18.86-9.03-4.46 3.4-13.34 9.03-25.54 11.3-12.2 2.26-8.9 29.1-24.4 26.84-6.7-1-24.42 33.9-48.85 33.9-5.47 0-8.43-13.15-40.5-5.3-2.88 1.07-15.68 18.64-16.44 25.67-.16-.04-.33.03-.5-.04-59.18 150.67-172.4 202.68-277.82 333.8 16.46 12.55 50.26-.37 91.02 19.2 7.3 3.53 35.5 14.7 49.93 7.94 16.4-7.74 60.75 5.8 82.13 1.1 82.13-18.06 136.66 6.76 170.9 6.76 16.96 0 58.54-9.62 95.47-3.36 33.26 5.66 61.93-5.52 98.78-3.03 27.74 1.9 45.48-19.56 68.77-15.06 55.33 10.74 105.48-8.47 97.68-20.36z" stroke-linecap="round" stroke-linejoin="round"/><path fill="#2e3436" d="M238.77 408.23c-7.64-13.83-30.85-19.83-31.25-35.63-.4-15.12 24-21.06 28.12-35.62 1.94-6.87-2.54-14.12-2.5-21.25.07-11.35 6.5-22.6 4.38-33.76-2.98-15.66-22.74-25.93-23.13-41.87-.3-11.83 14.74-20.08 15.62-31.88.66-8.94-8.37-16.67-8.13-25.63.3-11.8 14.14-21.45 12.5-33.13-1.85-13.12-21.4-18.84-23.76-31.88-1.47-8.12 7.5-15.54 6.88-23.76-1.56-20.17-24.12-34.83-25.63-55-1-13.22-2-38.1 11.24-38.13L427.54.1c14.1-.03-33.32 11.5-33.77 25.63-.38 12.12 22.47 12.75 27.5 23.76 3.3 7.2-1.18 15.93 0 23.75 1.9 12.52 14.37 24 11.26 36.27-2.73 10.7-14.27 17.45-23.75 23.12-7.13 4.25-18.8.83-23.76 7.5-10.06 13.54 3.16 34.17-.62 50.62-1.76 7.63-9.38 13.45-10 21.25-.77 9.73 7.06 18.43 8.12 28.13.37 3.32-1.24 6.72-.62 10 .64 3.4 4.44 5.92 4.37 9.37-.17 9.13-13.6 15.3-12.5 24.38 1 8.2 11.97 11.67 16.25 18.75 3.25 5.36 7.83 11.3 6.88 17.5-1.46 9.52-15.15 13.34-18.13 22.5-2.57 7.94 2.73 16.8 1.25 25-3.92 21.87-8.22 48.28-26.25 61.26-28.84 20.76-76.9 28.8-106.25 8.75-8.44-5.76-3.8-20.43-8.75-29.37z"/><g transform="matrix(16.885 0 0 16.885 -6362.305 -6256.18)"><path fill="#502d08" d="M390.96 394.6c.2.3.35.7.6.97.57.66 1.78.22 2.43-.12.9-.47 1.5-1.16 2.32-1.2.1 0 .18 0 .27.02.58.08.93-.06 1.2-.3.34-.3.57-.7 1-1.05.86-.7 1-.3 1.27-.55.83-.8 0-1.9-.56-2.6 0-.04-.03-.06-.04-.07-.1-.1-.26-.24-.44-.36-.25-.17-.53-.3-.68-.18-.26.2-.8.54-1.5.67-.73.13-.54 1.75-1.45 1.6-.32-.07-.82.7-1 .9-.45.48-1.4 1.42-2.14 1-.35-.18-.92-.6-2.06-.26-.02 0-.05.02-.07.03-.47.2-.94.95-1.05 1.42-.1.48.9.03 1.5-.02.18 0 .32 0 .38.1z"/><radialGradient id="a" cx="396.108" cy="394.418" r="11.026" gradientTransform="matrix(-.944 .354 -.209 -.576 852.846 480.783)" gradientUnits="userSpaceOnUse"><stop offset=".098" stop-color="#E24C20"/><stop offset=".35" stop-color="#EF4723" stop-opacity=".45"/><stop offset=".434" stop-color="#EF4823" stop-opacity=".391"/><stop offset="1" stop-color="#F04D23" stop-opacity="0"/></radialGradient><path fill="url(#m)" d="M390.96 394.6c.2.3.35.7.6.97.57.66 1.78.22 2.43-.12.9-.47 1.5-1.16 2.32-1.2.1 0 .18 0 .27.02.58.08.93-.06 1.2-.3.34-.3.57-.7 1-1.05.86-.7 1-.3 1.27-.55.83-.8 0-1.9-.56-2.6 0-.04-.03-.06-.04-.07-.1-.1-.26-.24-.44-.36-.25-.17-.53-.3-.68-.18-.26.2-.8.54-1.5.67-.73.13-.54 1.75-1.45 1.6-.32-.07-.82.7-1 .9-.45.48-1.4 1.42-2.14 1-.35-.18-.92-.6-2.06-.26-.02 0-.05.02-.07.03-.47.2-.94.95-1.05 1.42-.1.48.9.03 1.5-.02.18 0 .32 0 .38.1z"/></g><g><path fill="#c7845f" d="M416.13-13.55c-5.68 9.1-44.6 18.5-19.48 27.05C412 11.14 440.03-14.85 416.3-17l-.67 1.6.5 1.85zm3.35 106.78c-1.93 12.68-34.16 22.24-29.24 30.17 15.12-1.2 45.7-19.66 29.24-30.17zm-82.92 24.7c-11.97 11.33 25.4-7.8 1.65-1.04l-1.06.67-.58.35zm22.57 46.24c3.34 8.82-18.8 32.44-4.16 31.37 16.87-10.26 23.6-29.1 5.8-38.68-1.65 2.26-1.92 4.83-1.64 7.3zm8.42 84.67c-2.97 7.02-20.5 37.5 1.2 21.43 16.42-3.75-1.34-18.95-1.2-21.43zm-12.52 105.5c3.76 7.6 4.68-4.77 0 0zm.03 21.65c.5 15.73 11.92-.33 3.03-3.7l-1.38 1.28-1.66 2.4zm43.75 57.5c-7.13 9.5 12.94 15.36 8.3 3.32 8.65-12.67-11.76-23.8-8.3-3.33z"/><path fill="#ba8166" d="M402.2-17.3c13.4 16.1-47.95 8.57-17.13 28.93 7.4 2.8.63-17.5 17.5-15.46 11.8-3.84 21.24-15.5-.36-13.46zM414.27 5.2c-5.4 6.47 12.42-9.56 0 0zM398.1 41.54c5.12 7.24 11.38-9.12 0 0zm9.75 56.63c-4.8 6.57-37.44 30.34-12.98 17.2 9.26-.65 36.5-33.23 12.98-17.2zm-71.12 12.73c-29.68 6.68 12 30.38 11.95 6.9.4-4.45-5.07-10.15-11.95-6.9zm10.1 5.26c-8.03 11.68-20.35.6-2.6-1.8l1.93.33.66 1.46zm59.22.66c-5.6 6.52 11.37-8.25 0 0zm-53.6 37.2c-9.74 5.83 10.5 25.6-12.1 18.55-19.52 5.84-5.6 17.9 3.22 19.88 6.7 22.14 6.7-12.52 13.28-18.32 1.9-5.86 8.93-18.48-4.4-20.1zm5.38 85.8c7.82 9.75-19.76 38.3 1.77 33.62-4.8-10 20.6-30.28-1.77-33.6zm15.4 28.3c-5.6 6.53 11.37-8.25 0 0zm-51.13 19.6c-12.22 18.3 24.88.26 4.82-2.63-2.28.2-3.34 1.56-4.82 2.63zm13.52 73.23c-4.97 13.05 23.4 21.4 13.95 33.32 16.3 1.65 7.53-30.5-7.2-34.52l-3.24.04-3.5 1.15zm57.28 62.3c-4.3 8.22 5 36.7 6.7 13.05-.32-2.2-1.5-25.53-6.7-13.06z"/><path fill="#c47c4f" d="M386.62 18.1c-1.7 12.44 11.04-12.47 0 0zm17.6 24.2c-5.88 8.78 11.58-2.32 0 0zm4.14 14.4c4.5 21.3 16.4-3.08 0 0zm9.48 31.93c-2.1 9.83 14.23-4.26 0 0zm-21.37 34c-29.35-4.74-29.1 21.7-34.8 34.02 8.3 12.02 19 25.1-2.2 33.9C339 197.6 368 230.03 372.3 207.2c12.5-20.53-4-42.12-1.4-62.92.98-13.7 48.32-11.52 29.76-22.87l-4.2 1.22zm-33 105.93c-3.15 8.14 9.45 34.07 13.26 30.58 1.07-8.77-4-37.25-13.16-33.53l-.1 2.96zm-6.9 48.43c-15.97 11.48 16.8 2.66 0 0zm16.74 22.34c5.7 19.56-6.73 38.56-21.66 52.2-3.36 10.78 9.6 27.63 12.55 30.27 24.72-12.7-7.15-32.6 15.02-46.68 17.84-12.4 8.3-29.38-5.9-35.78zm-14.17 55.9c-6.76 5.02-2.33-7.17 0 0zm32.2 53.9c3.54 11 27.22 17.1 15.63 29.28-3.57 6.22-20.7 23.08.52 17.8 8.62-13.46 12.9-39.57-4.82-48.15-3.82-.33-7.77-.06-11.33 1.07z"/><path fill="#ad7964" d="M382.2-17.1c-12.6 6.56-8.34 34.53 1.4 28.28-15.08-14.86 9-17.82 21.98-21.43 2.14-7.4-16.76-10.14-23.38-6.85zm8.44 55.7c-.7 18.62 23.35-12.02 0 0zm9.52 35.9c3.5 5.3 5.42-3.1 0 0zm1.37 17.23c.82 6.8-30.9 31.08-8.12 20.33 2.14-5.9 34.67-21.88 8.13-20.33zm-74.8 14c-13.5 10.35-11.75 33.7 14.34 28.25 14.56-7.32 2.57-8.35-7.44-5.68-21.2-8.03 5.03-21.47 13.5-17.34-6.86-1.63-14.04-9.42-20.4-5.23zm12.86 45.3c21.16 21.03-31.06 14.42-24.25 34.94 5.3 8.32 22.68 11.62 29.42 14.48 8.37-13.6-31.05-13.72-6.98-26.2 10.74-5.82 19.2 2.2 11.53-9.03.44-6.92 7.7-18.47-9.74-14.18zm1.7 84.6c-1.2 9.5 22.94 17.48 1.12 23.17-10.42 7.82 15.8 25.05 7.76 7.64 8-8.4 19.54-38.2-8.88-30.8zM313 279.7c-18.7 13.82 14.86 34.4 21.7 11.47 5.85-7.47-13.5-17.45-21.7-11.47zm20.72 7.05c-.38 17.12-25.33 5.03-5.96-1.95 2.33-.47 5.05.35 5.96 1.95zm-30 29.85c-21.95 14.13 20.95 21.64 14.92 2.52.24-10.36-8.95-12.76-14.9-2.52zm28.74 6.86c-9.96 13.62 15.8-5 0 0zm-6.84 26.32c-7.23 12.7-10.38 30.94 14.3 33.12-.5 7.82-.43 23.62 14.54 14.53-14.53-6.17 2.58-17.65-15.17-24.72-15.6-9.1 16.55-15.18-7.17-20.2-6.65-1.2-6.6-13-6.5-2.72zm61.62 78.4c-8.23 7.42 6.22 26.8 6.6 8.45.72-7.22-4.63-29.68-6.6-8.46zm-10.16 32.25c7.8 1.5 6.2-2.53 0 0z"/><path fill="#af7352" d="M427.77-14.92c-4.2 9.8 5.8-5.58 0 0zm-2.83 6.4c1.5 7.7 1.88-5.7 0 0zm-20.05 19.3c-7.63 8.37 15.8-9.85 0 0zm-25.26 4.15c1.25 22.86 17.06-4 0 0zm12.27 1.67c-9.23 9.25 12.78-7.73 0 0zm14.4 23.45c4.77 8.9-29.05 5-9.73 16.8 8.88 8.97-1.07 45.6 23.47 30.6 7.47 6.27 6.58 23.88 5.16 5.5-3.3-10.55-14.86-21.32-7.8-32.32-4 13.94-11.52-10.14-3.9-5.8-4.27-1.02-1.1-23.3-7.2-14.78zm-9.1 57.6c-1.18 5.58 5.93-6.6 0 0zm-62.7 8.52c10.36 8.4 6.68-7.16 0 0zm88.22 1c-12.7 10.26 6.77 2.9.3-1.23l-.24 1-.06.22zm-40.24 4c-5.6 12.9-40.53 25-31.98 1.54 4.63 6-14.18 22.3-5.35 26.77 24.28 3.77-18 10.32 4.56 12.16 26.93 4.02 14.13-26.46 31.2-32.32-.06-3.44 14.8-14.34 1.58-8.12zm24.24 6.3c-6.05 20.16 9.34-8.37 0 0zm-3.48 12.94c-8.65 5.63 16.12-5.12 0 0zm-24.16 4.92c-11.17 4.46-9.05 27.42-6.46 25.65-1.76-11.73 3.3-29.64 24.46-28.8-6.2-.37-13.1.03-18 3.15zm-37.3 24.94c-9.18 14.1 11.4.43-.2-2.02l.2 2.02zm36.33 25.24c.93 12.78 1.47-11.2 0 0zm-43.36 11.18c8.57 12.9 3.92 36.17 24.67 40.9 13-12.98 5.03-29.8-15.06-36.25-.44-1.7-19-13.56-9.6-4.65zm38.9 4.85c1.52 7.7 1.9-5.7 0 0zm-2.93 28.77c3.92 14.24.68-9.98 0 0zm3.9 8.92c7.05 17.7.35 33.73-20.37 42.47.03-15.14-31.2-11.73-23.74-1.62 19.57 5.8-23.4 34.42-.83 16.97 18.6-15.03 43.1-1.28 35.2 15.94 3.2 17.5-23.78 29.7-30.95 40.87 10.44 9.33 25.25 6.82 20.1-4.94 18.13-14.6 22.4-35.43 20.28-52.6 2.6 9.18 18.75 19.25 5.67 4.7-10.74-11.5-23.94-22.78-3.68-33.8 6-8.35 1.93-20 2.1-27.7l-3.8-.3zm-24.85 11.64c5.27 8.5 3.46-7.9 0 0zm-31.32 69.05c1.96 9.1 1.05-8.23 0 0zm70.7.8c-4.97 10.6 6.33-4.52 0 0zm-58.36 1.78c-10.3 7.9 2.36 12.1 7.77 3.24-14.4 11.33 3.52-13.3-7.77-3.24zm50.8 10.46c-16.47 11.75 5.2.36 4.7-2.92-1.8.74-3.1 2-4.7 2.92zm-9.73 18.55c.75 9.98 1.73-8.28 0 0zm-.24 7.2c1.5 7.72 1.88-5.7 0 0zm-5.72 21.43c-9.83 5.58-5.83 22.8-23.78 19.9 12 14.65 38.66-7.5 35.42 11.9 5.37 7.82 10.37 19.9 13.38 4.97-2.78-10.45 25.06-8.3 3.78-12.17-13.58-7.3-37.77-24.42-21.93-29.55-2.5 1.5-4.58 3.3-6.87 4.95zm-25.05 5.02c1.5 7.7 1.88-5.7 0 0zm72.04 38.32c.75 10 1.73-8.28 0 0zm-.34 6.6c-.8 8.52 9.4 4.5 0 0zm2.3 13.23c1.98 9.1 1.07-8.24 0 0zm-30.05 7.38c-13.04 19.46 37.02 4.18 24.3 5.93-10.77 13.86-18.78-25.35-24.3-5.92z"/><path fill="#8d6b66" d="M370.94-14.65c-15.24 4.24 4.05 32.6 3.33 12.28.26-5.13 15.56-21.9-3.33-12.28zm6.65 57.57c5.28 14.1 5.8-11.2 0 0zm-60.47 59.5c.7 28.96 27.2-18.12 0 0zm-10.04 16.9c-14.6 11.3 27.2 25.44 12.06 9.4-5.38-5.85 5.73-17.93-12.07-9.4zm14.28 31.27c-.26 22.04-52.2 35.2-30.63 58.56 19.66 9.4 10.52-9.2 7.53-15.77 5.88-14.05 34.13 14.75 18.56-4.97-13.08-11.7 31.56-26.16 4.54-37.84zm-1.45 60.7c18.68 7.47-8.76-8.68-2.7-1.95l2.7 1.94zm12.44 22.07c11.07 22.12-30.08 31.38-30.66 48.38-5.52 15.24-18.7 34.34-9.32 52.82-1.3 10.13 24.5 21.73 21.36 5.87-7.1-8.9-23.57-12.58-12.15-23.92-15.47-11.8 15.54-20.9 11.77-35.45 15.86-13.15 38.8-25.48 27.74-45.57-.15-4.04-5.48-7.52-8.73-2.13zm-15.3 127.3c-17.1 8.78-6.8 38.97 7.8 40.97 17.9-14.66-16.18-26.7-2.62-42.63l-.92-.05-4.25 1.73zm-3.92 53.04c-16.18 17.73 27.15 17.14 25.93 31.94 33.12 7.12 9.2-24.42-10.2-25.1-5.5-1.92-11.14-3.86-15.73-6.83zm-87.43 34.8c-2.4 13.72 16.16-9.6 0 0z"/><path fill="#936655" d="M369.4 11.47c-5.1 14.93 20.18 7.76 6.33-3-3.78-4.54-8.97-.5-6.34 3zm9.4 22c1.25 18.7 17.17 36.87 11.6 55.4-7.5 10.8-28.47 31.3-35.44 32.28-10.36-8.53 2.5 18.35 11.22 2.37 20.92-13.56 46.62-32.73 34.2-54.73-13.3-12.95 2.65-41.12-23.7-39.85l.65 1.86 1.48 2.67zm-49.04 67.4c7.22 6.27 30.73 11.66 13.2-.13-2.17-2.22-14.48-5.24-13.2.13zm-15.8 8.6c-10.1 20.05 21.56-4.02 0 0zm7.7 26.82c-1.15 4.63 16.35 9.47 1.57 12.86 7.66 4.68 1.37 24.13 18 14.9-11.33-13.9 28.6-22.52-3.1-28.42-5-1.66-12.36-3-16.47.65zm-22.15 54.5c-8.64 19.77 29.17 10.08 33.65 28.6 1.1 8.1 15.93 19.68 13 4.84-12.75-10.06-.95-35.88-28.68-28.08-4.9-3.63-9.18-13-17.96-5.35zm41.9 57.88c2.04 17.35 16.3-8.1 0 0zm-5.35 13.03c-13.74 6.05-12.77 24.32 1.1 8.7 1.26-1.7 7.5-13.3-1.1-8.7zm41.28 6.42c-5.6 6.53 11.37-8.25 0 0zm-76.3 14.86c-8.88 15.3 6.5 5.8 0 0zm30 14.9c-5.48 12.8-44.97-5.5-32.24 16.32 21.06-10.47 24.34 5.5 15.43 16.02-5.33 7.36-1.08 30.47 8.03 27.45 6.86-6.68 1.02-14.32 12.32-8.45 7.76-2.17 29.64-19.58 11.1-8.38-30.82 1.22 11.82-17.02-8.2-24.7-8.82-5.76-9.23-17.4 5.74-14.1 10.06-13.4-2.72-14.64-12.2-4.15zm7.26 25.58c-11.1 25.3-15.73-10.83 0 0zm21.16-12.93c-2.38 5.47-13.95 23.92 2.25 17.1 3.53-1.88 1.76-34.36-2.24-17.1zm19.92 25.17c-5.6 6.52 11.37-8.26 0 0zm-50.6 46.2c1.9 11.5.6 20.28-12.8 26.56 3.9 15.08 34.18 23.07 50.62 14.48 24.24 6 6.34 30.08 6.9 37.4 23.1-8.67 12.94-35.94 3.3-50.47-14.53-5.18-42.13-4.38-39.77-23.45 1.84-5.07-1.8-9.1-8.26-4.52z"/><path fill="#6f636d" d="M368.36-16.5c-14.78-2.24-2.95 23.82-.26 6.24.64-1.26 8.52-11 .26-6.23zM356 23.57c3.27 20.67 10.83-9.48 0 0zm-70.72 97.65c-8.2 14.56 40.72 27.2 21.5 6.95 10.02-10.12-21.64-16.63-21.5-6.94zm-65.65 4.2c3.1 11.92 14.88 2.95 0 0zm83.4 40.93c-11.52 13.85-34.5 21.86-21.72 40.42-.72 14.98 31.9 20.84 23.2 4.5-28.28 4.5-18.8-31.37.37-38.55 14.16-5.5 15.9-18.48-1.83-6.37zm16.58 46.52c12.44 5.56-4.82-5.02 0 0zm7.3 26.26c2.28 17.18-26.67 21.8-30.3 34.57 17.06-3.86 43.5-19.84 32.17-34.55h-1.87zm-40.93 54.13c-11.13 16.8-15.57 51.7 12.05 58.52 20.6-2.8-12.3-10.27-7.08-20.95-8.96-12.08 12.6-34.67-3.22-40.44l-1.2 1.07-.55 1.8zm11.16 83.6c-9.68 13.04 19.78 17.25 15.47 24.24 2.5-12.62-1.16-27.1-9.66-37.1-6.36 2.64-5.42 8.4-5.8 12.86zm-78.52 7.7c7.6 5.67 4.36-5.4 0 0zm83.1 35.5c-13.1 17.5 33.98 18.32 30.46 35.66 15.65 3.74 27.26-10.07 8.6-10.64-4.98-15.9-35.63-11.6-32.03-29.02-3.13.47-4.9 2.53-7.04 4zm-60.53 23.27c-13.9 2.45-26.43 26.58-6.98 10.25 1.66-1.4 20.2-13.7 6.97-10.25z"/><path fill="#5b6176" d="M195.02-16.52c16.87 3.6 10.3 25.36 32.9 19.62 8.58 5.1 43.94 7.3 25.94-3.12-12.76-5.23-21.36-23.6-36.48-9.24-.98-12.3-9.18-10.5-22.36-7.26zm53.33.03c4.94 5.08 6.74-5.74 0 0zm-48.13 48.2c-.23 17.9 9.3 45.53 30.33 53.47 14.52-.9 27.92-13.26 4.63-7.86-21.7-2.18-9.96-15.76-5.8-22.4-20.34-6.37 2.93-30.24-26-23.24l-3.16.03zm45.5 72.7c-4 6.26-12.53 27-10.34 8.55-7.08-19.2-29.98 6.2-11.87 14.57 5.75 12.13 45.26 36.2 45.6 11.76-10.62-11.2 7.87-22.05 18.56-9.56 2.07-10-4.6-26.22-22.07-14.46-18.27 13.67 3.5-31.2-19.87-10.85zm-16.1 62.37c-10.54 20.34 18.74 42.97-1.4 61.6-24.27 16.47 20.4 19.48 14.08 37.35 12.27 17.08-3.1 37.28-2.4 56.48-2.22 9.98 14.46 21.13-6.58 25.97-15.34 13-28.16 33.3-1.62 43.87 19.4 11.48 13.6 26.8 12.08 42.84 15.6 9.5-36.02 29.13-1.22 25.52 13.33-20.03 43.25 11.34 61.9-1.26-5.4-8.65-6.65-17.88 1.67-24.15-5.2-17.63-49.9 7.6-39.73-17.63 2.27-15.28-15.7-42.97 18.26-42.7 15.1-14.65-13.16-17.9-24.97-21.82-12.44-11.1 5.38-22.04 16.9-9.45 15.14-5.6-8.45-23.92 2.4-34.42-1.72-8.8-45.6-20.17-17.2-22.2 22.35-.35 8.93-30.08-10.7-25.54 9.3-15.1.4-27.94-12.82-38.37 14-8.8 41.24 11.03 52.37-5-12.22-3.64-29.08-1.6-24.9-16.6 3.4-14.15-12.92-17.75-27.64-18.2-6.94-5.2 13.35-28.14-8.47-16.3zm40.77 142.85c2.83 18.83-29.16 1.08-8.15-4.16 3.57-.46 8.6 1.12 8.14 4.16zm-28.2 48.57c4.82 6.2 12.06 34.72-2.76 18.68-5.1-3.57-5.6-35.7 2.76-18.7zm53.8 23.4c1.1 10.84 1.3-10.66 0 0zm25.23 71.9c-23.17 12.43 25.66 4.76 3.5-3.95-1.88 1-1.84 2.85-3.5 3.96z"/><path fill="#935b38" d="M428.1-12.76c-4.97 10.62 6.33-4.5 0 0zM407.15 11.8c-9.6 8.74 11.97-8.12.1-.07l-.1.06zm-17.18 8.7c-3.27 5.76-22.04-5.56-10.16 6.72 13.87 13.48 7.8-6.08 16.53-10.97-2.32 1.26-4.3 2.8-6.37 4.25zm21.7 22.63c3.7 8.65 5.98 33.7 6.35 31.9 4.58-10.17-4.2-27.24-6.34-31.9zm9 41c11.65 7.72-6.08-6.52 0 0zm6.68 11.76c.92 12.77 1.47-11.2 0 0zm-2.56 11.94c-12.06 18.07 14.24-1.1 0 0zM351.93 115c-2.92 23.27 29.45-13.06 9.22-2.72-5.22-.78-14.24-5.5-9.22 2.7zm56.15 3.3c-3.2 10.25 4.18 16.05.85 2.07l-.85-2.08zm-10.5 14.55c7.8 1.5 6.2-2.52 0 0zm-16.4 3.08c-19.44 10.65 33.05-9.82 0 0zm-6.46 9.56c-5.97 9.4 3.25 36.44.27 12.98-.98-2.4 3.9-15.2-.28-13zm3.76 37.43c2.26 20.25 2.48-13.95-.08-6.46.03 2.15.05 4.3.08 6.46zm-2.54 15.8c.86 9.8 1.7-8.24 0 0zm-2.2 7.84c-14.3 17.1 11.73 35.1 5.5 53.3 5.88 10 .07-11.34 2.3-15.2-7.62-12.5-12.35-27.3-7.8-38.1zm-.15 64.18c-10.86 3.78-8.92 15.16-1.8 2.54 6.07-2.05 12.24-8.7 1.8-2.55zm-10.3 14.3c14.52 6.22 25.34 30.33 29.14 31.87-4.42-10.8-17.74-30.93-29.14-31.86zm-13.97 6.3c-.42 13.62-28.24 8.75-15.04 21.27 21.42 8.97-6.15 18.6 2.4 27.72 18.96 4.24 23.08-10.42 15.9-19.5 6.48-4.68 22.75-35.98-3.27-29.5zm5.14 15.7c7.5 13.86-24.76 13.1-10.17.64 2.6-4.35 13.3-10.2 10.17-.66zm-9.7 25.25c-4.28 10.02-4.8-6.7 0 0zm43.32-4.24c-7.77 12.25 5.6-2.48 0 0zm-13.45 12.3c-9.75 11.97 10.67-5.93 0 0zm-.76 21.4c.85 9.82 1.7-8.2 0 0zm2.04 8.82c.76 10 1.73-8.27 0 0zm-7.42 9.43c-11.06 10.53 26.93 17.86 24.23 22.2-1.82-10.3-37.7-15.33-17.5-26.47l-3.53 2-3.2 2.28zm2.28 21.65c-3.96 9.56 15.85-2.56 0 0zm31.3 4.95c21.35-1.24 8.1 32.15 14.88 27.26 5.5-10.96-6.8-32.38-17.04-27.7l1.37.27.8.17zm7.88 49.6c-8.62 13.36 11.7-13.44 0 0z"/><path fill="#575969" d="M197.45 39.2c1.5 7.26 0-15.5 14.13-7.97 20-2.48-2.4 23.24 20.77 25.26-21.6 7.73-4.7 27.4 15.17 19-.02 14.96-38.35 8.48-36.2-7.4-2.66-8.4-10.95-23.34-5.4-6.62 3.3 15.24 30.06 28.74 15.85 43.86-2.54 2.55 15.22-3.54 13.63 6.8-.37 12.43 1.32 10.6 6.04.07-1.17-10.18 23.58-17.96 15.52-2.75.9 21.17 23.67-11.7 36.28 6.5 10.72-2.34 22.48-26.55 3.08-14.64-10.7 1.7-33.44 10-32.43-4.42-17.55 5.4-33.35-4.06-12.15-11.56 24.13-5.5 25.2-25.86.2-30.78-18.94-11.32 5.33-32.95-25.6-32.9-21.86-6.47-.06-17.4 13.28-9.18 14.3 6.36 48.08 2.52 51.3 8-9.1 19.96 30.7 36.12 53.05 26.17 16.16-2.56 18.95-26.26 8.27-26.76-1.93 20.82-50.44 5.1-18.74-4.77 22.2-3.25-5.3-14.15-16.08-6.2-12.08-26.92-120.7-38.35-73.66-13.12 12.07 1.8 26.35 14.64 4.8 11.37-87.24-25.6-26.26-36.24-51.1 32.06zm63.2-7.2c5.27 6.22 5.08-6 0 0zM199.2 45.94c2.96 9.9 6.05.4 0 0zm80.9 24.33c-1.22 7.12 8.17-6 0 0zm-62.34 40.55c-7.2 8.25 4.78 4.06 0 0zm-2.13 11.2c12.37 14.7 39.1 28.8 12.88 44.88 22.6-13.25-4.8 26.32 24.68 17.55 20.95.85 5.7 41.8 27.34 27.36-2.1-9.42 1.22-28.97-5.05-30.58-17.6 4.9-23.47-4.75-19.85-14.32-22.74-11.52 4.86-17.77 19.47-12.62-22.96 19.8 41.16 23.06 30.92-.93-5.55-6.94 1.37-15.93-14.68-21.23-8.75-10.47-34-9.2-22.33 5.78 5 20.83-35.18 9.3-39.4-4.03-4.34-4.15-9.54-7.92-14-11.83zm11.18 61.72c8.05 19.17 7.82 40.4-8.33 55.5 15.1 11.1 24.1 22.56 25.32 37.88-3.4 7.65-.84 37.16-.4 16.18 10.56-16.97.36-34.3-14.33-47.52-23.03-10.74 25.27-31.06 2.44-46.8-4.66-8.13-6.36-49.77-4.7-15.23zm11.5 38.1c8.97 11.52 25.72 26.6 13.26 36.8 24.27 4.57 31.57 34.06.3 28.5 1.03 14.23 38.73 24.25 35 1.44-19.25-18.7 20.4-22.66 32.87-36.15 10.64-14.03-3.9-12.73-9.85-1.25-12.76 12.6-56.87 3.17-46.05-15.1-21.7-10.02 7.1-7 17.52-6.58 10.56-.2 37.05-13.2 11.88-7.28-17.8 5.25-40.24-4.43-54.9-.4zm2.22 88.5c-2.55 9.6-1.2 18.23 1.16 3.73.58-4.76-1.6-14.43-1.16-3.72zm16.56-3.43c-11.62 19 28.13 8.27 8.02-1.36l-4.26.1zm-20.74 22c20.1 8.54-23.4 27.66 1.1 16.62 14.06-1.77 2.64-24.64-1.1-16.63zm20.2 9.7c-15.08 19.8 53.4 18.54 26.78 35.42-33.82 2.47-13.3 28.37-17.1 43.73-7.83 23.36 43.35 10.43 37.08-7.62 3.56-17.74-14.58-1.44-18.64-2.96-12.85-11.16 32.1-8.9 11.28-20.54 3-16.47 10-35.45-18.36-42.67-6.03-2.67-13.46-8.17-21.03-5.37zM226 352.97c-15.97 6.2-12.86 34.02-9.16 30.44-10.45-10.94 15.28-28.02 9.16-30.44zm9.7 1.46c-4.42 7.26 6.9 37.77 13.12 22.43-1.95-3.28-6.78-30.62-13.12-22.43zm-10.4 33.1c7.46 11.7 6.48-3.9-2.83-.64zm6.72 9.8c4.93 7.03 25.46 17.57 9.44 5.46-3.37-1.63-5.64-4.25-9.44-5.46zm8.62 28.35c1.1 10.84 1.28-10.66 0 0zm3.5 8.34c0 14.43 6.53-2.23-.85-1.42l.57.94zm58.74 5.73c-18.8 20.3 32.58 26.2 21.33 2-5-4.23-15.12-5.8-21.34-2zm-55.02 13.97c-12.22 13.12 47.63 8 14.3-.1-4.36-1.78-10.03-1.96-14.3.1zm81.9 3.8c-4.04 9.6 19.04-6.5 0 0z"/><path fill="#6e5654" d="M361.18-16.5c6.9 5.44 10.1-6.1 0 0zm-10 7.4c-15.83 10.57 17.02 22.82 9.88 36.7 2.45 20.36 25.54 39.35 18.27 59.76-3.27 7.47-26.1 30.3-3.4 17.63 26.55-14.64 13.73-37.97 4.55-56.06-1.7-19.44-14.1-36.86-16.2-56.24-1.2-5.36-8.86-6-13.1-1.8zm-37.9 102.54c-5.24 7.12-27.8 33.88-3.86 19.7 7.15-9.66 22.87-23.38 37.33-10.7-6-7.4-22.1-14.4-33.47-9zm-1.35 45.8c-9.33 7.9-3.7 34.8 8.7 15.54 7.8-9.36 13.45-18.82-8.7-15.55zm-23.23 36.7c-13.96 17.47 23-12.33 0 0zm17.65 34.4c4.9 10.24 23.53 15.03 19.22 27.23 17.1-8.46 7.2-26.52-9.6-29.3-5.94-6.26-11.87-6.44-9.62 2.07zm8.16 45.06c-15 9.1 16.97-1.44 0 0zm-22.02 18.23c-15.68 8.92 8.95 25.22 8.03 8.12 0-1.98-7.5-19.6-8.02-8.12zm7.9 77.37c-14.96 15.66 34.8 11.74 12.2-1.06-4.06-.94-8.46-.23-12.2 1.06zm4.74 42c-.9 8.8-11.27 35.36 8.88 19.2 12.44-9.02-8.18-9.8-3.63-20.22l-2-.1-3.25 1.1zm49.03 33.2c-10.2 7.64 15.5 22.76-9.63 27.63-7.77 15.27 40.94 5.74 34.52-9.75 3.38-11.03-5.6-29.63-24.9-17.9zm14.03 4.98c7.9 6.64-5.5 34.3-7.2 15.5-2.76-5.76-6.48-30.16 7.2-15.5zm-146.33 20.07c1.5 7.7 1.88-5.7 0 0z"/><path fill="#544d55" d="M284.53-15.77c21.53 3.33 15.44 39.12 45.24 20.88 19.84 1.33 10.9 15.5-4.77 12.6-15.87 12.73 29.42 18.5 29.06 1.32 5.52-18.3-24.02-29.9-42.25-37.07-8.4 1.65-20.88-2.54-27.27 2.28zM198.6-10.6c22.08 19.66-14 42.85.9 64.2 11.17 20.58 30.4 40.5 15.06 62.12-3.07 18.92 38.36 29.66 13.75 47.97-13.67 17.3 4.57 36.27 2.45 54.44-14.2 11.5-21.2 25.78 1.36 35.4 9.1 17.1 8.64 37.26 5.46 56.08-6.17 15.07 7.52 33.17-15.7 42.43-21.03 16.78-7.43 35.82 12.5 48.04 14.38 5.83.26 39.1 8.62 19.1 9.95-15.72-17.7-26.16-28.2-38.48-10.96-16.7 22.2-30.73 23.52-44.35-2.83-28.12 15.04-58.68-5.5-84.97-37.1-13.5 19.98-35.75-4.1-52.67-1.07-13.4-7.46-29.58 6.22-40.5 21.2-19.22-30.66-25.68-17.4-46.3 17.95-15.23.33-29.08-8.3-45-19.12-18.4-7.2-41.5.7-61.03 4.93-4.84-20.8-26.98-11.3-16.5zm19.15 21.15c-6.82 16.03 47.94 11.67 23.27 29.1.15 15.7 52.08 27.37 19.1 41.05-15.36 3.1-29.94 23.58-3.02 15.65 13.75 1.55 9.8 16.08 26.65 8.14C297.98 97.54 339 93.86 311 81.93c-10.7-18.74 36.23-6.36 36.73 6.67 12.43 22.4 42.14 2.32 32.5-14.65-7.46-10.42-7.04-35.2-22.25-36.56-15.65 18.55-61.25 14.2-67.94-6.96 9.13-10.62-1.87-19.48-16.62-11.9-18.98-.87-36.3-11-55.67-8zM264.77 32c-5.26 6.22-5.07-6 0 0zm18.42 38.95c-9.67 6.38 3.2-6.9 0 0zm11.25 41.9c-1.67 6.9 8.67-3.6 0 0zm6.32 33.6c-.32 24.3 20.14-6.53 0 0zm-52.2 7.7c-6.3 8.87 18.56 16.66 7.3 26.1 13.82 8.37 54.77-9.72 19.4-11.7-16.4-7.88 13.4-18.64-12.43-15.56-4.8.1-9.56.53-14.27 1.14zm58.37 66.97c-10.16 12.63-46.9 3.72-49.94 10.52 10.53 9.4 5.74 28.77 31.3 24.6 27.38 6.56 51.54-37.86 19.86-36.44l-1.22 1.32zm-26.17 52.57c-.8 23.48 25.42-13.97 0 0zm18.87 122.6c-18.72-6.65-20.1 20.42-6.8 7.6.47-1.6 18.23-9.5 6.8-7.6zm-59.4 34.24c12.2 7.4-20.4 18.83 3.28 10.68 3.75-3.3.78-8.3-3.3-10.68zm125.74 2.7c-9.14 5.78 2.18 18.8 2.55 4.45.44 1.12-3-9.46-2.55-4.46zm-144.13 22.42c1.5 7.7 1.88-5.7 0 0zm112.66 3.8c2 6.18 11.77-6.2 0 0z"/><path fill="#6d4733" d="M409.2 11.8c-9.6 8.74 11.97-8.12.08-.07l-.08.06zm-17.25 20.77c6.76 5.2 5.45-2.22 0 0zm19.7 7c13.8 9.98-11.32-10.88 0 0zm5.24 32.08c1.96 9.1 1.05-8.23 0 0zm1.88 6.9c2.82 9.47 15.2 12.33 2.94 3.43-.97 0-1.67-5.7-2.94-3.42zm-92.52 12.9c17.85-.68 30.52 34.42 42.36 9.94-14.2.84-23.34-4.03-34.3-10.14-1.67-.06-8.08-2.7-8.06.2zM427 103.1c1.5 7.72 1.87-5.7 0 0zm.7 7.74c-8.57 5.24-7.26 6.07 2.85 2.55 1.96-1.47-5.1-7.66-2.84-2.56zm-18.36 8.2c-.74 14.1 7 8.44 0 0zm-14.78 15.2c6.22 2.1 4.98-3.1 0 0zm-16.9 5.67c-7.56 9.77 9-4.87 0 0zm4.44 45.6c.85 9.8 1.7-8.23 0 0zm-4.34 10.16c1.5 7.7 1.88-5.7 0 0zm-1.9 9.67c1.97 9.1 1.06-8.24 0 0zm-6.3 13.83c1.5 7.7 1.87-5.7 0 0zm6.14 14.22c7.56 11.04 5.1.26.12-.5l-.12.5zm3.94 26.2c4.76 9.54 2.4-5.66 0 0zm-1.13 9.7c-17.63 8.3-.57 5.33 5.5-2.46-2.2.1-4.48 1-5.5 2.46zm-12.67 14.5c2.97 5.9 5.83 2.08.7-.6l-.7.6zm9.7 6c11.65 7.72-6.08-6.52 0 0zm4.5 7.36c.87 9.8 1.72-8.23 0 0zm-34.42 9.2c-16.83 10.9 14.76 16.63 8.78 1.15 2.83-9.9-3.86-5.74-8.77-1.16zm44.5 2.85c10.55 9.6-5.75-8 0 0zm-.04 17.2c1.5 7.7 1.88-5.7 0 0zm-49.4 6.8c6.22 7.5 2.25-9.2 0 0zm33.45 17.55c1.2 13.77.73-13.58 0 0zm1.6 13.84c1.5 7.7 1.88-5.7 0 0zm-5.48 15.9c-11.5 10.03 14.55-10.1 0 0zm3.44 7.5c10.67 5.86 11.3 1.42 0 0zm16.3 12.15c5.17 7.3 18.4 4.07 0 0zm16.52 5.37c7.66 6.28 13.03 2.4 0 0zm10.6 15c.95 12.74 1.47-11.18 0 0zm-57.95 7.8c-13.37 7.6 22.18 18.27 9.07 3.62-.68-3.1-6.3-10.63-9.07-3.63zm58 13.5c1.2 13.5 1.15-13.52 0 0zm-55.7 4.82c-10.3 17.25 22.96-1.36 0 0zm53.25 4.6c1.5 7.72 1.88-5.7 0 0z"/><path fill="#533527" d="M191.04-16.04c26.96 17.08-1.14 41.2 3.83 60.85 6.44 12.24-3.32-14.68 4.44-18.43 10.7-14.57 7.7-36.2-8.26-42.4zm238.78 5.8c2.66 19.18-50.1 26.43-34.65 42.68 25.96 5.23 22.33 24.26 25.6 39.7-1.17 14.6 23.5 37.44-3.3 45.35-4.38 7.36-15.85 19.95-34.1 20.45-20.78 18.03 7.13 40.64-4.16 60.18-14.4 19.3 2.9 36.84 2.7 55.94 8.04 16.47-28.42 26.5-2.74 39.7 14.02 14.1 22.83 33.76-1.32 46.83-8.54 11.54 7.95 29.76-7.4 40.42 1.88 9.57 23.34 15.42 29.68 22.26 28.75 8.9 19.22 38.22 12 55.2 10.4-10.4 14.15-34.98 3.52-49.3-13.24-7.9-37.73-18.12-41.08-28.93 14.43-12.87-7.1-31.08 9.9-42.7 16.38-11.93 15.08-29-1.44-40.24-21.05-15.75 12.77-29.27-.5-46.98 8.45-17.36-21.4-35.22.54-51.9 7.47-19.15-16.62-43.2 4.36-59.18 17.35-2.6 29.78-12.7 34.87-20.86 28.5-12.6-7.02-37.1.18-55.18 4.2-16.65-15.04-27.3-26.65-36.56 7.1-15.8 41.97-23.07 37.68-41.58l-2.3 1.4-1.38 3.3zM199.36 57.1c11.3 19.64 29.57 40.37 11.3 60.93 5.36 16.76 37.12 29.17 14.6 47 .6 2.93 22.7-19.26 5.2-25.44-29.75-13.93-3.36-35.22-12.23-54.16-4.5-10.9-14.94-22.42-19.1-31.82l.23 3.48zm109.78 16.3c-3.34 17.24 41.74 20.25 46.54 26.38-4.14-14.16-24.36-30.76-46.54-26.38zm-86.78 107.7c.66 16.9 1.16-16.02 0 0zm1.68 14.77c17.62 12.44-11.94 39.62-8.5 42.57 11.37-14.33 24.07-31.3 8.85-46.63l-.36 4.07zm-8.5 49.1c26.13 10.14 19.17 34.4 22.37 51.94 1.5-12.08 4.13-34.1-9.5-46.33-3.27-.82-10.02-6.53-12.87-5.6zm21.14 66.86c.84 14.62 1.3-13.52 0 0zm-2.52 11.63c1.5 7.7 1.88-5.7 0 0zm-2.04 6.38c12.2 8.65-20.34 26.08 4.43 11.78 5.28-3.9-.4-8.93-4.43-11.78zm-16.3 27.1c-18.95 17.33 3.05 34.06 18 46.15 12.27 5 3.98 24.12 8.8 7.23-5.63-15.16-35.17-21.84-31.9-38.67-2.53-3.82 18.1-26.04 5.1-14.7zm20.43 66.94c15.98 13.72-28.28 28.43-15.02 33.03-2.26-17.6 37.54-12.02 15.02-33.02z"/></g><path fill="url(#n)" d="M-71.2 739.44c6.62 5.07 16 6 27.54 6.6 17.16.82 39.06.88 63.47 12.58 7.34 3.57 35.54 14.73 49.98 7.94 16.4-7.7 60.75 5.83 82.1 1.1 3.08-.63 6.1-1.24 9.1-1.8 77.07-14.4 128.85 8.62 161.8 8.62 2.9 0 6.53-.3 10.72-.7 20.3-2.14 54.16-7.9 84.74-2.7 33.3 5.66 61.95-5.48 98.78-3 27.77 1.9 45.5-19.57 68.84-15.08 40.86 7.92 78.85-.45 92.78-10.18 4.98-3.44 6.9-7.06 4.88-10.16-16.6-25.37-36.1-48.8-56.97-71.33-38.94-41.87-82.72-80.37-121.54-120.9-46.98-49.04-86.73-101.08-101.77-166.02-1.55-6.64-2.82-13.4-3.85-20.38-3.75 2.66-6.38 12.4-9.62 13.66-4.95 1.85-9.85-1.3-18.9 6.45-3.64 3.12-5.82 8.3-8.34 10.48-7.26 6.43-14.5 16.44-26.34 13.32-8.24-2.13-15.26 1.85-23.27 5.62-8.26 3.82-15.6 4.22-25.46 11.33-5.1 3.7-10.2 7.5-17.13 9.76-15.1 4.96-21.4.64-25.94-10.84-6.3-15.82-16.8-11.16-25.12-10.68-4.76.27-6.5 1.92-12.6 2.53-2.55 6.5-5.2 12.82-7.98 19-26.88 60.04-62.87 103.95-103.32 145C61.86 603.6 25.3 635.53-11.7 673.07c-19.83 20.16-39.82 41.86-59.5 66.37z"/><path fill="#6a6658" d="M382.63 412.4s65.45 153.7 133.17 200.05c67.7 46.35 93.22 92.68 93.22 92.68s-39.73-2.06-78.82 6.77c-29.92 6.77-85.45-125.47-109.85-140.14-24.43-14.72-20-48.6-27.76-81.37-7.15-30.25-6.66-50.86-9.97-78z"/><path fill="#827e70" d="M369.3 537.87c34.5 33.9 5.43 23.1 48.86 55.37C447 614.7 465.86 714.17 528.04 730c-12.24 1.12-25.54-2.26-37.77 0-21.92 4.06-58.5-66.2-69.9-83.63-12.9-19.67-39.78-22.87-51.04-56.5-7.2-21.38 1.03-37.3-.02-52z"/><path fill="#a8a499" d="M217.25 436.14S151.78 589.86 84.08 636.2c-67.7 46.32-93.22 92.66-93.22 92.66S7 725.53 31.92 730c18.86 3.36 100.68-119.25 123.2-136.78 18.87-14.7 34.4-52 42.17-84.78 7.13-30.2 16.62-45.2 19.95-72.3z"/><path fill="url(#o)" d="M-71.2 739.44c6.62 5.07 16 6 27.54 6.6 17.16.82 39.06.88 63.47 12.58 7.34 3.57 35.54 14.73 49.98 7.94 16.4-7.7 60.75 5.83 82.1 1.1 3.08-.63 6.1-1.24 9.1-1.8 77.07-14.4 128.85 8.62 161.8 8.62 2.9 0 6.53-.3 10.72-.7 20.3-2.14 54.16-7.9 84.74-2.7 33.3 5.66 61.95-5.48 98.78-3 27.77 1.9 45.5-19.57 68.84-15.08 40.86 7.92 78.85-.45 92.78-10.18 4.98-3.44 6.9-7.06 4.88-10.16-16.6-25.37-36.1-48.8-56.97-71.33-38.94-41.87-82.72-80.37-121.54-120.9-46.98-49.04-86.73-101.08-101.77-166.02-1.55-6.64-2.82-13.4-3.85-20.38-3.75 2.66-6.38 12.4-9.62 13.67-4.95 1.85-9.85-1.32-18.9 6.44-3.64 3.1-5.82 8.3-8.34 10.47-7.26 6.43-14.5 16.44-26.34 13.32-8.24-2.13-15.26 1.85-23.27 5.62-8.26 3.82-15.6 4.22-25.46 11.33-5.1 3.7-10.2 7.5-17.13 9.76-15.1 4.96-21.4.64-25.94-10.84-6.3-15.82-16.8-11.16-25.12-10.68-4.76.27-6.5 1.92-12.6 2.53-2.55 6.5-5.2 12.82-7.98 19-26.88 60.04-62.87 103.95-103.32 145C61.86 603.6 25.3 635.53-11.7 673.07c-19.83 20.16-39.82 41.86-59.5 66.37z"/></svg>