<svg xmlns="http://www.w3.org/2000/svg" width="48" height="48" xmlns:xlink="http://www.w3.org/1999/xlink"><defs><linearGradient id="i"><stop offset="0" stop-color="#fff"/><stop offset="1" stop-color="#fff" stop-opacity="0"/></linearGradient><linearGradient id="h"><stop offset="0" stop-color="#c64000"/><stop offset="1" stop-color="#fff" stop-opacity="0"/></linearGradient><linearGradient id="g"><stop offset="0" stop-color="#ffd315"/><stop offset="1" stop-color="#fff" stop-opacity="0"/></linearGradient><linearGradient id="f"><stop offset="0" stop-color="#fff"/><stop offset="1" stop-color="#fff" stop-opacity="0"/></linearGradient><linearGradient id="a"><stop offset="0" stop-color="#fffc91"/><stop offset=".5" stop-color="#efca29" stop-opacity=".502"/><stop offset="1" stop-color="#bc0e0e" stop-opacity="0"/></linearGradient><radialGradient id="k" cx="24.357" cy="39.643" r="24.071" xlink:href="#a" fx="24.357" fy="39.643" gradientTransform="matrix(1 0 0 .329 0 26.585)" gradientUnits="userSpaceOnUse"/><linearGradient id="b" x1="23.775" x2="23.775" y1="202.3" y2="158.049" gradientUnits="userSpaceOnUse" gradientTransform="translate(.226 -156.565)"><stop offset="0" stop-color="#E96712"/><stop offset=".648" stop-color="#D4290C"/><stop offset="1" stop-color="#CB1009"/></linearGradient><linearGradient id="c" x1="23.875" x2="23.875" y1="199.295" y2="156.129" gradientUnits="userSpaceOnUse" gradientTransform="matrix(.661 0 0 .664 9.42 -103.869)"><stop offset="0" stop-color="#EBD30F"/><stop offset=".393" stop-color="#E96712"/><stop offset=".786" stop-color="#D4290C"/><stop offset="1" stop-color="#CB1009"/></linearGradient><linearGradient id="d" x1="24.223" x2="24.223" y1="201.565" y2="176.179" gradientUnits="userSpaceOnUse" gradientTransform="matrix(.661 0 0 .664 9.42 -103.869)"><stop offset=".124" stop-color="#fff"/><stop offset=".205" stop-color="#FBF6B8"/><stop offset=".303" stop-color="#F8ED6C"/><stop offset=".348" stop-color="#F6E94F"/><stop offset=".607" stop-color="#FAAF3E"/><stop offset="1" stop-color="#F17912"/></linearGradient><linearGradient id="e" x1="25.197" x2="25.197" y1="190.424" y2="169.442" gradientUnits="userSpaceOnUse" gradientTransform="matrix(.661 0 0 .664 9.42 -103.869)"><stop offset=".124" stop-color="#fff"/><stop offset=".205" stop-color="#FBF6B8"/><stop offset=".303" stop-color="#F8ED6C"/><stop offset=".348" stop-color="#F6E94F"/><stop offset=".607" stop-color="#FAAF3E"/><stop offset="1" stop-color="#F17912"/></linearGradient><linearGradient x1="23.775" x2="23.775" y1="202.3" y2="158.049" gradientTransform="matrix(.661 0 0 .664 9.42 -103.869)" gradientUnits="userSpaceOnUse" xlink:href="#b"/><linearGradient id="l" x1="23.775" x2="23.775" y1="202.3" y2="158.049" xlink:href="#b" gradientUnits="userSpaceOnUse" gradientTransform="matrix(.661 0 0 .664 9.42 -103.869)"/><linearGradient id="m" x1="23.875" x2="23.875" y1="199.295" y2="156.129" xlink:href="#c" gradientUnits="userSpaceOnUse" gradientTransform="matrix(.661 0 0 .664 9.42 -103.869)"/><linearGradient id="n" x1="24.223" x2="24.223" y1="201.565" y2="176.179" xlink:href="#d" gradientUnits="userSpaceOnUse" gradientTransform="matrix(.661 0 0 .664 9.42 -103.869)"/><linearGradient id="o" x1="25.197" x2="25.197" y1="190.424" y2="169.442" xlink:href="#e" gradientUnits="userSpaceOnUse" gradientTransform="matrix(.661 0 0 .664 9.42 -103.869)"/><linearGradient x1="18.143" x2="2.286" y1="39.571" y2="45.857" xlink:href="#f" gradientUnits="userSpaceOnUse"/><linearGradient x1="18.143" x2="2.286" y1="39.571" y2="45.857" xlink:href="#g" gradientUnits="userSpaceOnUse" gradientTransform="matrix(-1 0 0 1 50.714 -2.286)"/><linearGradient x1="18.143" x2="2.286" y1="39.571" y2="45.857" xlink:href="#f" gradientUnits="userSpaceOnUse" gradientTransform="matrix(.116 -.993 .993 .116 -14.879 51.846)"/><linearGradient x1="18.143" x2="7.477" y1="39.571" y2="45.972" xlink:href="#h" gradientUnits="userSpaceOnUse" gradientTransform="matrix(.116 -.993 .993 .116 -14.879 51.846)"/><radialGradient id="j" cx="25.714" cy="22.571" r="21.857" xlink:href="#i" fx="25.714" fy="22.571" gradientUnits="userSpaceOnUse"/><linearGradient x1="18.143" x2="7.477" y1="39.571" y2="45.972" xlink:href="#h" gradientUnits="userSpaceOnUse" gradientTransform="matrix(.61 .793 -.793 .61 40.755 -2.061)"/></defs><g><path fill="url(#j)" d="M47.57 22.57a21.86 21.86 0 1 1-43.7 0 21.86 21.86 0 1 1 43.7 0z" transform="translate(-1.571 -.714)" color="#000" overflow="visible" enable-background="accumulate"/><path fill="url(#k)" d="M48.43 39.64a24.07 7.93 0 1 1-48.14 0 24.07 7.93 0 1 1 48.13 0z" color="#000" overflow="visible" enable-background="accumulate"/><g><path fill="url(#l)" stroke="#99140d" d="M25.14 30.77c-3.94 0-11.16-2.43-11.16-10.3 0-.78.08-1.7.23-2.66-.12.93 2.34 3.9 2.34 2.42 0-1.07-1.65-3.83-1.65-5.44 0-3.1 1.7-3.68 3.15-5.8-.46 1.56-1.07 3.77.8 5.13 0 0 2.3 0 2.57-4.42.3-4.42-2.7-4.48-2.7-9.02 1.04 3 8.34 4.2 10.8 9.83 0-.82-.1-3.9-1.8-5.6 2.08.76 4.13 2.34 5.96 5.94 1.12 2.18.47 5.26 1.35 6.54.5-.52.4-2.05.63-2.78.4 1.52.64 4.17.64 5.87 0 7.87-6.83 10.3-11.16 10.3z" transform="translate(-.286 3.571)"/><path fill="url(#m)" d="M23.43 9.1c0 .23 0 .47-.03.7-.4 6.23-4.38 6.3-4.55 6.3h-.64l-.5-.38c-.32-.22-.56-.48-.8-.73.1.56.5 1.56.78 2.26.47 1.17.85 2.1.85 2.96 0 1.37-.85 1.96-1.2 2.15-.2.1-.6.25-1.1.23 1.2 5 6.65 7.34 8.9 7.34.4 0 7.93.07 8.88-7.04.34-2.35.14-3.26.1-3.64-.17.32-.3.83-.7 1.23-.93-1.13-.83-4.36-.92-5.74-.08-1.1-.16-2.23-.56-3.02-.23-.43-.45-.83-.68-1.2 0 2.13-1.12 3.15-1.98 5.05-.48-3.95-4.34-7.83-6.23-9.02.23.7.4 1.5.4 2.53z" transform="translate(-.286 3.571)"/><path fill="url(#n)" d="M30.03 27.48c-.35.43-.37-.57-.12-1.88-1.63 1.64-1.08 3.3-2.64 4.02-2.8.82.95-3.2-.95-5.7 0 2.1-1.96 6.24-2.6 5.92-.36-.1-.7-.15-.88-.3-1-.47-1.03-2.6-1.66-3.5 0 .74-.17 1.75-.4 1.5-.9-1.1-1.55-2.42-1.55-3.84 0-3.66 2.26-5.8 1.14-7.9.95.46 3.3 3.34 3.3 4.12.74-1.52-.15-2.3-.43-3.54-.26-1.2.08-2.1.6-3.5.14 4.3 3.9 5.92 3.9 8.1.43-.44 1.67-1.5 1.28-3.48-.23-1.18-.54-2.34 0-2.87 0 1.4 2.12 2.8 2.58 5.57.15.93.12 2.83.05 3.6-.1 1.38-.73 2.64-1.57 3.68z" transform="translate(-.286 3.571)"/><path fill="url(#o)" d="M27.56 18.35c-.73-2.38-3.16-4.5-3.16-6.05 0-.94.27-1.8.66-2.95.8 3.96 2.3 4.78 2.64 6.76.14.85.03 1.62-.14 2.25z" transform="translate(-.286 3.571)"/></g></g></svg>