<svg xmlns="http://www.w3.org/2000/svg" width="48" height="48" xmlns:xlink="http://www.w3.org/1999/xlink"><defs><radialGradient cx="315.203" cy="442.042" r="21.887" gradientUnits="userSpaceOnUse" fy="442.042" fx="315.203"><stop offset="0" stop-color="#8BC4F2"/><stop offset=".209" stop-color="#9ECEF4"/><stop offset=".632" stop-color="#D0E7FA"/><stop offset=".994" stop-color="#fff"/></radialGradient><radialGradient cx="309.748" cy="439.215" r="24.293" gradientUnits="userSpaceOnUse" fy="439.215" fx="309.748" gradientTransform="matrix(1.041 0 0 1.041 -256.425 -394.256)"><stop offset="0" stop-color="#fff"/><stop offset=".124" stop-color="#FAFCFE"/><stop offset=".28" stop-color="#EAF4FD"/><stop offset=".452" stop-color="#D1E5FB"/><stop offset=".636" stop-color="#ADD2F7"/><stop offset=".828" stop-color="#80B9F3"/><stop offset=".855" stop-color="#79B5F2"/><stop offset="1" stop-color="#8BC5FF"/></radialGradient><radialGradient cx="328.864" cy="445.757" r="1.996" gradientUnits="userSpaceOnUse" fy="445.757" fx="328.864"><stop offset="0" stop-color="#fff"/><stop offset=".124" stop-color="#FAFCFE"/><stop offset=".28" stop-color="#EAF4FD"/><stop offset=".452" stop-color="#D1E5FB"/><stop offset=".636" stop-color="#ADD2F7"/><stop offset=".828" stop-color="#80B9F3"/><stop offset=".855" stop-color="#79B5F2"/><stop offset="1" stop-color="#8BC5FF"/></radialGradient><radialGradient cx="328.784" cy="438.438" r="1.467" gradientUnits="userSpaceOnUse" fy="438.438" fx="328.784"><stop offset="0" stop-color="#fff"/><stop offset=".124" stop-color="#FAFCFE"/><stop offset=".28" stop-color="#EAF4FD"/><stop offset=".452" stop-color="#D1E5FB"/><stop offset=".636" stop-color="#ADD2F7"/><stop offset=".828" stop-color="#80B9F3"/><stop offset=".855" stop-color="#79B5F2"/><stop offset="1" stop-color="#8BC5FF"/></radialGradient><radialGradient cx="322.109" cy="441.181" r="1.1" gradientUnits="userSpaceOnUse" fy="441.181" fx="322.109"><stop offset="0" stop-color="#fff"/><stop offset=".124" stop-color="#FAFCFE"/><stop offset=".28" stop-color="#EAF4FD"/><stop offset=".452" stop-color="#D1E5FB"/><stop offset=".636" stop-color="#ADD2F7"/><stop offset=".828" stop-color="#80B9F3"/><stop offset=".855" stop-color="#79B5F2"/><stop offset="1" stop-color="#8BC5FF"/></radialGradient><radialGradient cx="324.26" cy="434.635" r="1.306" gradientUnits="userSpaceOnUse" fy="434.635" fx="324.26"><stop offset="0" stop-color="#fff"/><stop offset=".124" stop-color="#FAFCFE"/><stop offset=".28" stop-color="#EAF4FD"/><stop offset=".452" stop-color="#D1E5FB"/><stop offset=".636" stop-color="#ADD2F7"/><stop offset=".828" stop-color="#80B9F3"/><stop offset=".855" stop-color="#79B5F2"/><stop offset="1" stop-color="#8BC5FF"/></radialGradient><radialGradient cx="326.218" cy="442.563" r="2.229" gradientUnits="userSpaceOnUse" fy="442.563" fx="326.218"><stop offset="0" stop-color="#fff"/><stop offset=".124" stop-color="#FAFCFE"/><stop offset=".28" stop-color="#EAF4FD"/><stop offset=".452" stop-color="#D1E5FB"/><stop offset=".636" stop-color="#ADD2F7"/><stop offset=".828" stop-color="#80B9F3"/><stop offset=".855" stop-color="#79B5F2"/><stop offset="1" stop-color="#8BC5FF"/></radialGradient><radialGradient cx="319.745" cy="450.768" r="1.466" gradientUnits="userSpaceOnUse" fy="450.768" fx="319.745"><stop offset="0" stop-color="#fff"/><stop offset=".124" stop-color="#FAFCFE"/><stop offset=".28" stop-color="#EAF4FD"/><stop offset=".452" stop-color="#D1E5FB"/><stop offset=".636" stop-color="#ADD2F7"/><stop offset=".828" stop-color="#80B9F3"/><stop offset=".855" stop-color="#79B5F2"/><stop offset="1" stop-color="#8BC5FF"/></radialGradient><radialGradient cx="324.224" cy="452.593" r="1.107" gradientUnits="userSpaceOnUse" fy="452.593" fx="324.224"><stop offset="0" stop-color="#fff"/><stop offset=".124" stop-color="#FAFCFE"/><stop offset=".28" stop-color="#EAF4FD"/><stop offset=".452" stop-color="#D1E5FB"/><stop offset=".636" stop-color="#ADD2F7"/><stop offset=".828" stop-color="#80B9F3"/><stop offset=".855" stop-color="#79B5F2"/><stop offset="1" stop-color="#8BC5FF"/></radialGradient><radialGradient cx="318.229" cy="444.976" r="1.895" gradientUnits="userSpaceOnUse" fy="444.976" fx="318.229"><stop offset="0" stop-color="#fff"/><stop offset=".124" stop-color="#FAFCFE"/><stop offset=".28" stop-color="#EAF4FD"/><stop offset=".452" stop-color="#D1E5FB"/><stop offset=".636" stop-color="#ADD2F7"/><stop offset=".828" stop-color="#80B9F3"/><stop offset=".855" stop-color="#79B5F2"/><stop offset="1" stop-color="#8BC5FF"/></radialGradient><radialGradient cx="304.844" cy="433.035" r="1.671" gradientUnits="userSpaceOnUse" fy="433.035" fx="304.844"><stop offset="0" stop-color="#fff"/><stop offset=".124" stop-color="#FAFCFE"/><stop offset=".28" stop-color="#EAF4FD"/><stop offset=".452" stop-color="#D1E5FB"/><stop offset=".636" stop-color="#ADD2F7"/><stop offset=".828" stop-color="#80B9F3"/><stop offset=".855" stop-color="#79B5F2"/><stop offset="1" stop-color="#8BC5FF"/></radialGradient><radialGradient cx="313.255" cy="433.693" r="1.504" gradientUnits="userSpaceOnUse" fy="433.693" fx="313.255"><stop offset="0" stop-color="#fff"/><stop offset=".124" stop-color="#FAFCFE"/><stop offset=".28" stop-color="#EAF4FD"/><stop offset=".452" stop-color="#D1E5FB"/><stop offset=".636" stop-color="#ADD2F7"/><stop offset=".828" stop-color="#80B9F3"/><stop offset=".855" stop-color="#79B5F2"/><stop offset="1" stop-color="#8BC5FF"/></radialGradient><radialGradient cx="309.371" cy="432.805" r="1.254" gradientUnits="userSpaceOnUse" fy="432.805" fx="309.371"><stop offset="0" stop-color="#fff"/><stop offset=".124" stop-color="#FAFCFE"/><stop offset=".28" stop-color="#EAF4FD"/><stop offset=".452" stop-color="#D1E5FB"/><stop offset=".636" stop-color="#ADD2F7"/><stop offset=".828" stop-color="#80B9F3"/><stop offset=".855" stop-color="#79B5F2"/><stop offset="1" stop-color="#8BC5FF"/></radialGradient><radialGradient cx="325.784" cy="432.841" r="1.671" gradientUnits="userSpaceOnUse" fy="432.841" fx="325.784"><stop offset="0" stop-color="#fff"/><stop offset=".124" stop-color="#FAFCFE"/><stop offset=".28" stop-color="#EAF4FD"/><stop offset=".452" stop-color="#D1E5FB"/><stop offset=".636" stop-color="#ADD2F7"/><stop offset=".828" stop-color="#80B9F3"/><stop offset=".855" stop-color="#79B5F2"/><stop offset="1" stop-color="#8BC5FF"/></radialGradient><radialGradient cx="318.101" cy="435.283" r="1.214" gradientUnits="userSpaceOnUse" fy="435.283" fx="318.101"><stop offset="0" stop-color="#fff"/><stop offset=".124" stop-color="#FAFCFE"/><stop offset=".28" stop-color="#EAF4FD"/><stop offset=".452" stop-color="#D1E5FB"/><stop offset=".636" stop-color="#ADD2F7"/><stop offset=".828" stop-color="#80B9F3"/><stop offset=".855" stop-color="#79B5F2"/><stop offset="1" stop-color="#8BC5FF"/></radialGradient><radialGradient cx="318.178" cy="440.113" r="1.359" gradientUnits="userSpaceOnUse" fy="440.113" fx="318.178"><stop offset="0" stop-color="#fff"/><stop offset=".124" stop-color="#FAFCFE"/><stop offset=".28" stop-color="#EAF4FD"/><stop offset=".452" stop-color="#D1E5FB"/><stop offset=".636" stop-color="#ADD2F7"/><stop offset=".828" stop-color="#80B9F3"/><stop offset=".855" stop-color="#79B5F2"/><stop offset="1" stop-color="#8BC5FF"/></radialGradient><radialGradient cx="267.88" cy="473.936" r="2.23" gradientUnits="userSpaceOnUse" gradientTransform="matrix(.999 -.034 .034 .999 15.959 -27.091)" fy="473.936" fx="267.88"><stop offset="0" stop-color="#fff"/><stop offset=".124" stop-color="#FAFCFE"/><stop offset=".28" stop-color="#EAF4FD"/><stop offset=".452" stop-color="#D1E5FB"/><stop offset=".636" stop-color="#ADD2F7"/><stop offset=".828" stop-color="#80B9F3"/><stop offset=".855" stop-color="#79B5F2"/><stop offset="1" stop-color="#8BC5FF"/></radialGradient><radialGradient cx="314.561" cy="436.988" r=".832" gradientUnits="userSpaceOnUse" fy="436.988" fx="314.561"><stop offset="0" stop-color="#fff"/><stop offset=".124" stop-color="#FAFCFE"/><stop offset=".28" stop-color="#EAF4FD"/><stop offset=".452" stop-color="#D1E5FB"/><stop offset=".636" stop-color="#ADD2F7"/><stop offset=".828" stop-color="#80B9F3"/><stop offset=".855" stop-color="#79B5F2"/><stop offset="1" stop-color="#8BC5FF"/></radialGradient><radialGradient cx="320.227" cy="434.232" r="1.794" gradientUnits="userSpaceOnUse" fy="434.232" fx="320.227"><stop offset="0" stop-color="#fff"/><stop offset=".124" stop-color="#FAFCFE"/><stop offset=".28" stop-color="#EAF4FD"/><stop offset=".452" stop-color="#D1E5FB"/><stop offset=".636" stop-color="#ADD2F7"/><stop offset=".828" stop-color="#80B9F3"/><stop offset=".855" stop-color="#79B5F2"/><stop offset="1" stop-color="#8BC5FF"/></radialGradient><radialGradient cx="323.271" cy="425.159" r="3.79" gradientUnits="userSpaceOnUse" fy="425.159" fx="323.271" gradientTransform="matrix(1.041 0 0 1.041 -308.282 -434.613)"><stop offset="0" stop-color="#fff"/><stop offset=".297" stop-color="#FDFEFF"/><stop offset=".472" stop-color="#F4FAFF"/><stop offset=".615" stop-color="#E6F3FF"/><stop offset=".742" stop-color="#D2E8FF"/><stop offset=".857" stop-color="#B8DBFF"/><stop offset=".962" stop-color="#98CCFF"/><stop offset="1" stop-color="#8BC5FF"/></radialGradient><radialGradient cx="312.858" cy="423.078" r="3.37" gradientUnits="userSpaceOnUse" fy="423.078" fx="312.858" gradientTransform="matrix(1.041 0 0 1.041 -308.425 -434.327)"><stop offset="0" stop-color="#fff"/><stop offset=".297" stop-color="#FDFEFF"/><stop offset=".472" stop-color="#F4FAFF"/><stop offset=".615" stop-color="#E6F3FF"/><stop offset=".742" stop-color="#D2E8FF"/><stop offset=".857" stop-color="#B8DBFF"/><stop offset=".962" stop-color="#98CCFF"/><stop offset="1" stop-color="#8BC5FF"/></radialGradient><radialGradient cx="306.611" cy="423.268" r="2.709" gradientUnits="userSpaceOnUse" fy="423.268" fx="306.611" gradientTransform="matrix(1.041 0 0 1.041 -308.068 -434.541)"><stop offset="0" stop-color="#fff"/><stop offset=".297" stop-color="#FDFEFF"/><stop offset=".472" stop-color="#F4FAFF"/><stop offset=".615" stop-color="#E6F3FF"/><stop offset=".742" stop-color="#D2E8FF"/><stop offset=".857" stop-color="#B8DBFF"/><stop offset=".962" stop-color="#98CCFF"/><stop offset="1" stop-color="#8BC5FF"/></radialGradient><radialGradient cx="317.935" cy="431.26" r="1.111" gradientUnits="userSpaceOnUse" fy="431.26" fx="317.935"><stop offset="0" stop-color="#fff"/><stop offset=".124" stop-color="#FAFCFE"/><stop offset=".28" stop-color="#EAF4FD"/><stop offset=".452" stop-color="#D1E5FB"/><stop offset=".636" stop-color="#ADD2F7"/><stop offset=".828" stop-color="#80B9F3"/><stop offset=".855" stop-color="#79B5F2"/><stop offset="1" stop-color="#8BC5FF"/></radialGradient><radialGradient cx="275" cy="467.883" r="2.23" gradientUnits="userSpaceOnUse" gradientTransform="matrix(.999 -.034 .034 .999 15.959 -27.091)" fy="467.883" fx="275"><stop offset="0" stop-color="#fff"/><stop offset=".124" stop-color="#FAFCFE"/><stop offset=".28" stop-color="#EAF4FD"/><stop offset=".452" stop-color="#D1E5FB"/><stop offset=".636" stop-color="#ADD2F7"/><stop offset=".828" stop-color="#80B9F3"/><stop offset=".855" stop-color="#79B5F2"/><stop offset="1" stop-color="#8BC5FF"/></radialGradient><radialGradient cx="313.288" cy="430.332" r="1.874" gradientUnits="userSpaceOnUse" fy="430.332" fx="313.288"><stop offset="0" stop-color="#fff"/><stop offset=".124" stop-color="#FAFCFE"/><stop offset=".28" stop-color="#EAF4FD"/><stop offset=".452" stop-color="#D1E5FB"/><stop offset=".636" stop-color="#ADD2F7"/><stop offset=".828" stop-color="#80B9F3"/><stop offset=".855" stop-color="#79B5F2"/><stop offset="1" stop-color="#8BC5FF"/></radialGradient><radialGradient cx="325.492" cy="430.036" r="1.527" gradientUnits="userSpaceOnUse" fy="430.036" fx="325.492"><stop offset="0" stop-color="#fff"/><stop offset=".124" stop-color="#FAFCFE"/><stop offset=".28" stop-color="#EAF4FD"/><stop offset=".452" stop-color="#D1E5FB"/><stop offset=".636" stop-color="#ADD2F7"/><stop offset=".828" stop-color="#80B9F3"/><stop offset=".855" stop-color="#79B5F2"/><stop offset="1" stop-color="#8BC5FF"/></radialGradient><radialGradient cx="321.393" cy="429.538" r="1.109" gradientUnits="userSpaceOnUse" fy="429.538" fx="321.393"><stop offset="0" stop-color="#fff"/><stop offset=".124" stop-color="#FAFCFE"/><stop offset=".28" stop-color="#EAF4FD"/><stop offset=".452" stop-color="#D1E5FB"/><stop offset=".636" stop-color="#ADD2F7"/><stop offset=".828" stop-color="#80B9F3"/><stop offset=".855" stop-color="#79B5F2"/><stop offset="1" stop-color="#8BC5FF"/></radialGradient><linearGradient x1="14.107" x2="39.69" y1="4.772" y2="43.606" xlink:href="#a" gradientUnits="userSpaceOnUse" gradientTransform="matrix(1.058 0 0 1.058 -1.073 -.96)"/><linearGradient id="a"><stop offset="0" stop-color="#fff"/><stop offset="1" stop-color="#eeeeec" stop-opacity="0"/></linearGradient><linearGradient x1="16.601" x2="17.363" y1="19.142" y2="45.175" xlink:href="#b" gradientUnits="userSpaceOnUse" gradientTransform="matrix(1.058 0 0 1.058 -1.073 -.96)"/><linearGradient id="b"><stop offset="0" stop-color="#f0f0f0"/><stop offset="1" stop-color="#f0f0f0" stop-opacity="0"/></linearGradient><radialGradient cx="289.834" cy="61.701" r="48.777" xlink:href="#c" gradientUnits="userSpaceOnUse" gradientTransform="matrix(1.014 -.262 .193 .746 -273.565 69.425)" fx="289.834" fy="61.701"/><radialGradient id="c" cx="294.624" cy="80.627" r="48.777" gradientUnits="userSpaceOnUse" fy="80.627" fx="294.624"><stop offset="0" stop-color="#dcf3f9"/><stop offset="1" stop-color="#a8d2e2"/></radialGradient><radialGradient cx="289.834" cy="61.701" r="48.777" fy="61.701" fx="289.834" gradientTransform="matrix(1.014 -.262 .193 .746 -273.682 69.373)" gradientUnits="userSpaceOnUse" xlink:href="#c"/><radialGradient id="d" cx="309.748" cy="439.215" r="24.293" gradientUnits="userSpaceOnUse" fy="439.215" fx="309.748" gradientTransform="matrix(1.041 0 0 1.041 -256.425 -394.256)"><stop offset="0" stop-color="#fff"/><stop offset=".124" stop-color="#FAFCFE"/><stop offset=".28" stop-color="#EAF4FD"/><stop offset=".452" stop-color="#D1E5FB"/><stop offset=".636" stop-color="#ADD2F7"/><stop offset=".828" stop-color="#80B9F3"/><stop offset=".855" stop-color="#79B5F2"/><stop offset="1" stop-color="#8BC5FF"/></radialGradient><radialGradient cx="309.748" cy="439.215" r="24.293" fy="439.215" fx="309.748" gradientTransform="matrix(1.041 0 0 1.041 -308.36 -444.02)" gradientUnits="userSpaceOnUse" xlink:href="#d"/><radialGradient cx="266.841" cy="403.708" r="24.293" xlink:href="#d" gradientUnits="userSpaceOnUse" gradientTransform="matrix(.885 .012 -.012 .891 -157.816 -340.289)" fx="266.841" fy="403.708"/><radialGradient id="e" cx="377.522" cy="339.912" r="7.119" gradientUnits="userSpaceOnUse" gradientTransform="matrix(1.01 0 0 .539 -2.928 150.458)"><stop offset="0" stop-color="#DCF2FD" stop-opacity=".72"/><stop offset="1" stop-color="#92B5D0" stop-opacity="0"/></radialGradient><radialGradient id="f" cx="384.69" cy="337.995" r="13.306" gradientUnits="userSpaceOnUse" gradientTransform="matrix(.996 -.177 .083 .532 -25.702 220.098)"><stop offset="0" stop-color="#DCF2FD" stop-opacity=".72"/><stop offset="1" stop-color="#92B5D0" stop-opacity="0"/></radialGradient><radialGradient id="g" cx="377.772" cy="343.026" r="14.921" gradientUnits="userSpaceOnUse" gradientTransform="matrix(.525 -.921 .604 .392 -26.799 550.683)"><stop offset="0" stop-color="#1A5C79"/><stop offset="1" stop-color="#6D7DAA" stop-opacity="0"/></radialGradient><radialGradient id="h" cx="397.397" cy="358.955" r="16.991" gradientUnits="userSpaceOnUse" gradientTransform="matrix(1.01 0 0 1.078 -2.928 -32.806)"><stop offset="0" stop-color="#DCF2FD"/><stop offset="1" stop-color="#92B5D0" stop-opacity="0"/></radialGradient><radialGradient id="i" cx="389.293" cy="350.871" r="18.222" gradientUnits="userSpaceOnUse" gradientTransform="matrix(1.01 0 0 1.078 -2.928 -32.806)"><stop offset="0" stop-color="#93C5D8"/><stop offset="1" stop-color="#fff" stop-opacity="0"/></radialGradient><linearGradient id="j" x1="397.742" x2="369.256" y1="338.838" y2="376.82" gradientUnits="userSpaceOnUse"><stop offset="0" stop-color="#fff" stop-opacity="0"/><stop offset="1" stop-color="#00718D"/></linearGradient><radialGradient cx="377.522" cy="339.912" r="7.119" gradientTransform="matrix(1.01 0 0 .539 -2.928 150.458)" gradientUnits="userSpaceOnUse" xlink:href="#e"/><radialGradient cx="384.69" cy="337.995" r="13.306" gradientTransform="matrix(.996 -.177 .083 .532 -25.702 220.098)" gradientUnits="userSpaceOnUse" xlink:href="#f"/><radialGradient cx="377.772" cy="343.026" r="14.921" gradientTransform="matrix(.525 -.921 .604 .392 -26.799 550.683)" gradientUnits="userSpaceOnUse" xlink:href="#g"/><radialGradient cx="397.397" cy="358.955" r="16.991" gradientTransform="matrix(1.01 0 0 1.078 -2.928 -32.806)" gradientUnits="userSpaceOnUse" xlink:href="#h"/><radialGradient cx="389.293" cy="350.871" r="18.222" gradientTransform="matrix(1.01 0 0 1.078 -2.928 -32.806)" gradientUnits="userSpaceOnUse" xlink:href="#i"/><linearGradient x1="397.742" x2="369.256" y1="338.838" y2="376.82" gradientUnits="userSpaceOnUse" xlink:href="#j"/><radialGradient id="o" cx="377.522" cy="339.912" r="7.119" xlink:href="#e" gradientUnits="userSpaceOnUse" gradientTransform="matrix(.961 0 0 .513 -343.345 -169.171)"/><radialGradient id="n" cx="384.69" cy="337.995" r="13.306" xlink:href="#f" gradientUnits="userSpaceOnUse" gradientTransform="matrix(.948 -.169 .079 .506 -365.022 -102.902)"/><radialGradient id="m" cx="397.397" cy="358.955" r="16.991" xlink:href="#h" gradientUnits="userSpaceOnUse" gradientTransform="matrix(.961 0 0 1.026 -343.345 -343.561)"/><radialGradient id="l" cx="207.589" cy="413.505" r="24.293" xlink:href="#k" gradientUnits="userSpaceOnUse" gradientTransform="matrix(.981 .014 -.014 .987 -177.478 -381.437)" fx="207.589" fy="413.505"/><radialGradient id="k" cx="309.748" cy="439.215" r="24.293" gradientUnits="userSpaceOnUse" fy="439.215" fx="309.748" gradientTransform="matrix(1.041 0 0 1.041 -256.425 -394.256)"><stop offset="0" stop-color="#d8eaef"/><stop offset="1" stop-color="#6eb2c2"/></radialGradient><radialGradient cx="266.841" cy="403.708" r="24.293" fy="403.708" fx="266.841" gradientTransform="matrix(.885 .012 -.012 .891 -213.512 -345.756)" gradientUnits="userSpaceOnUse" xlink:href="#k"/></defs><g><path fill="none" stroke="#fff" d="M3.36 29.8l24.67-6.86" stroke-linecap="round"/><path fill="none" stroke="#fff" d="M27.96 22.82l16.4 13.06" stroke-linecap="round"/><path fill="none" stroke="#005b6e" stroke-width="1.031" d="M2.22 20.5c.06-1.32 4.35-7.1 7.45-10.67 4.64-5.2 8.05-5.83 10.4-6.17.3-.05.68-.02.77-.06.1-.04.22-.12.4-.22 1.24-.7 4.35-2.56 7.62-2.56H29c3.55.06 4.82 1.25 6.56 2.2l.36.18c1.3.7 3.92 3.38 3.75 4.25l-.13.25s-.3.13-.3.13c-.46 0-1-.32-1.9-.84-.3-.2-.74-.47-1.05-.62.03.15.1.36.24.65.07.14.14.3.02.5l-.12.2H36l-.18-.26c-.13-.17-.77-.6-1.26-.84.25.6.7 1.5.94 1.97.04.05.07.1.1.16l.07.2-.1.2-.12.13s-.23.05-.23.05c-.23 0-.33-.16-.4-.3-.17-.17-.54-.45-.9-.68.18.33.26.6.12.83l-.12.2-.3.04c-.32 0-.78-.27-2-1.07-.1-.06-.2-.13-.3-.2.02.14 0 .26-.08.38l-.13.17-.28.04c-.1 0-.18-.02-.28-.06-.5-.2-.66-.35-.87-.17 0 0 .9.6.47 1.07-.43.48-1.22.36-1.22.36s-.33.6-1.27 2.1c-2.34 3.73-.83 7.46 4 8.56 1.8.42 3.4.9 10 1.13 2.22.08 3.6-.16 3.62-.16l.45-.06-1.1 15.33-27.9 10.55-13.97-17.8z" stroke-linecap="round" stroke-linejoin="round"/><path fill="url(#l)" d="M3.5 29.45l-.95-9.4c1.9-3.8 5.22-9.08 12.5-13.7 3.34-2.14 7.22-2.83 11.42-.3.6.36 1.77 1.52 2.73 2.67.9 1.1-4.7-4.48-8.5 2.38-4.33 7.84 3.35 15.07 7.32 15.96 4.18.95 16.73-4.54 16.73-4.54l-.6 13.9-27.18 10.04z" color="#000" overflow="visible" enable-background="accumulate"/><path fill="none" stroke="#bfdde6" stroke-width=".859" d="M3.62 29.2L17 46.37l26.96-10.13.8-13.95s-5.18.3-10.77-.7c-4.1-.74-8.4-1.7-7.95-7.13.08-.98.94-2.6 1.76-3.84.54-.8.96-1.23 1.27-1.43.33.12.44.13.52.03l-.34-.56.4-.6s.44 0 1.03.24c.6.25-.2-.94.05-.94.24 0 2.44 1.67 2.86 1.67.42 0-.7-1.37-.47-1.5.24-.1 1.96 1.08 2.08 1.38.13.3-1.24-2.37-1.24-2.8 0-.4 1.97.78 2.2 1.14.24.36-.47-.83-.3-1.3.2-.5 2.74 1.54 3.34 1.48.6-.06-1.7-2.9-3.47-3.85-1.8-.96-3.05-2.28-6.73-2.34-3.7-.06-7.26 2.38-7.97 2.74-.72.36-4.94.35-8.87 4.4C9 11.64 3 19 2.96 20.37c-.07 1.36.66 8.83.66 8.83z" stroke-linecap="round" stroke-linejoin="round"/><path fill="#6db7cb" stroke="#278ea6" stroke-width=".5" d="M27.7 9.75c-.08.43-2.04-2.16-2.78-2.1.47 1.1.77 3.07.62 3.25-.15.2-2.6-1.63-2.6-1.37 0 .25.34 1.66-.02 1.8-.2.07-.7-.9-1.15-1.8-.37.43-.73.94-1.07 1.57-4.33 7.85 3.35 15.07 7.32 15.97C32.2 28 40.24 26 40.24 26l5.17-4.28c-2.06.13-29.96 2.06-14.36-14.8-.6-1.02-3.5.6-3.5.6s.24 1.8.16 2.23z"/><path fill="#9ddcf9" d="M22.02 5.4s8.05-6.68 15.27-.2c5.27 4.74-1.5.32-1.43.67.06.32.4.54.45 1.28.05.52-.84-.93-2.25-1.18-.6-.1 1.2 1.66 1.26 2.63.06.96-.9-.87-2.04-1.1-.5-.1.1.77.35 1.42.24.64-1.68-1.16-2.22-1.42-.54-.25-1.26-.22-.66.6.6.85-.78-.1-1.8-.47C28.56 7.5 22 5.4 22 5.4z"/><path fill="url(#m)" d="M27.62 9.75c-.08.43-2.04-2.16-2.78-2.1.47 1.1.77 3.07.62 3.26-.15.2-2.6-1.63-2.6-1.37 0 .25.34 1.66-.02 1.8-.2.07-.7-.9-1.15-1.8-.38.43-.74.95-1.08 1.57-4.33 7.85 3.35 15.07 7.32 15.97 3.94.86 12.46-1.23 12.46-1.23l4.85-3.56c-2.07.13-31 1.58-14.3-15.67-.6-1.02-3.48.9-3.48.9s.23 1.82.15 2.25z"/><path fill="#0091b7" d="M21.12 4.43s8.04-6.68 15.26-.2c5.3 4.75-1.92-.25-1.86.1.06.32.4.55.45 1.28.04.53-.84-.92-2.25-1.17-.6-.1 1.2 1.66 1.26 2.63.06.96-.9-.87-2.04-1.1-.5-.1.12.78.36 1.42.24.64-1.68-1.16-2.22-1.4-.55-.27-1.27-.24-.67.6.62.83-.77-.13-1.8-.5-.37-.12-6.48-1.65-6.48-1.65z"/><path fill="url(#n)" d="M21.12 4.43s8.04-6.68 15.26-.2c5.3 4.75-1.93-.25-1.86.1.06.32.4.55.45 1.28.04.53-.84-.92-2.25-1.17-.6-.1 1.2 1.66 1.26 2.63.06.96-.9-.87-2.04-1.1-.5-.1.12.78.36 1.42.24.64-1.7-1.16-2.23-1.4-.54-.27-1.26-.24-.66.6.6.83-.77-.13-1.8-.5-.37-.12-6.48-1.65-6.48-1.65z"/><path fill="#7cbdd0" d="M23.58 11.24c-3.02 6.56 3.9 13.56 12.96 14.42-9.65-1.5-14.67-9.53-12.96-14.42z"/><path fill="#88c2d4" d="M22.7 15.7c-.23 7.3 8.16 11.15 16.57 10.52-9.62-.26-16.25-5.32-16.58-10.52z"/><path fill="#9ddcf9" d="M15.04 6.34c2.08-.25 4.25 3.58 4.52 3.24.27-.34.15-2.3.15-2.3s.3-.1 1.27.87c.48.48 1.6 3.3 1.96 3.17.36-.13.02-1.54.02-1.8 0-.25 2.44 1.57 2.6 1.38.14-.18-.16-2.16-.63-3.24.74-.07 2.7 2.52 2.78 2.1.08-.44-.1-1.55-.1-1.55s2.03 1.28 1.9.97c-.12-.3-1.34-2.1-3.03-3.12-4.2-2.54-8.08-1.84-11.43.3z"/><path fill="#0091b7" d="M16.25 5.8c1.63-.2 2.17.68 2.65.74.48.07-.1-.7-.1-.7s.54-.35 1.3.4c.37.38 1.06 1.87 1.63 2.05.56.17-.54-1.72-.54-1.92 0-.2 2.78 2.43 3.26 2.58.48.15-.74-2.16-1.1-3.02.57-.05 2.26 1.9 2.64 1.98.38.07-.54-1.54-.54-1.54s2.04 1.24 2.42 1.2c.38-.07-1.35-1.36-2.67-2-3.42-1.7-6.32-1.45-8.95.22z"/><path fill="url(#o)" d="M16.25 5.8c1.63-.2 2.17.68 2.65.74.48.07-.1-.7-.1-.7s.54-.35 1.3.4c.37.38 1.06 1.87 1.63 2.05.56.17-.54-1.72-.54-1.92 0-.2 2.78 2.43 3.26 2.58.48.15-.74-2.16-1.1-3.02.57-.05 2.26 1.9 2.64 1.98.38.07-.54-1.54-.54-1.54s2.04 1.24 2.42 1.2c.38-.07-1.35-1.36-2.67-2-3.42-1.7-6.32-1.45-8.95.22z"/></g></svg>