<svg xmlns="http://www.w3.org/2000/svg" width="48" height="48" xmlns:xlink="http://www.w3.org/1999/xlink" version="1" viewBox="0 0 612 792" enable-background="new 0 0 612 792"><defs><linearGradient id="m"><stop offset="0" stop-color="#e64c60"/><stop offset="1" stop-color="#9f0015"/></linearGradient><linearGradient id="l"><stop offset="0" stop-color="#a40000"/><stop offset="1" stop-color="#a40000" stop-opacity="0"/></linearGradient><linearGradient id="k"><stop offset="0"/><stop offset="1" stop-opacity="0"/></linearGradient><linearGradient id="j"><stop offset="0" stop-color="#ff9ba8"/><stop offset="1" stop-color="#ff1433"/></linearGradient><linearGradient><stop offset="0" stop-color="#452b01"/><stop offset=".544" stop-color="#6a4201"/><stop offset="1" stop-color="#9f6302"/></linearGradient><linearGradient id="i"><stop offset="0" stop-color="#452b01"/><stop offset=".364" stop-color="#6a4201"/><stop offset="1" stop-color="#9f6302"/></linearGradient><linearGradient id="g"><stop offset="0" stop-color="#081323"/><stop offset="1" stop-color="#204a87" stop-opacity="0"/></linearGradient><linearGradient id="h"><stop offset="0" stop-color="#452b01"/><stop offset=".575" stop-color="#6a4201"/><stop offset="1" stop-color="#9f6302"/></linearGradient><linearGradient id="c"><stop offset="0" stop-color="#fef5ae"/><stop offset="1" stop-color="#fce94f"/></linearGradient><linearGradient id="b"><stop offset="0" stop-color="#3e5eab"/><stop offset="1" stop-color="#3e5eab" stop-opacity="0"/></linearGradient><radialGradient id="a" cx="417.595" cy="388.21" r="45.114" gradientUnits="userSpaceOnUse" gradientTransform="matrix(1.047 0 0 1 -15.894 0)"><stop offset="0" stop-color="#097fc8"/><stop offset=".475" stop-color="#00b9f2"/></radialGradient><radialGradient id="d" cx="400.725" cy="364.601" r="38.566" gradientUnits="userSpaceOnUse" gradientTransform="matrix(1.047 0 0 1 -15.894 0)"><stop offset=".025" stop-color="#00B9F2"/><stop offset=".039" stop-color="#00B4ED"/><stop offset=".178" stop-color="#0092D0"/><stop offset=".319" stop-color="#0078BB"/><stop offset=".459" stop-color="#0065AB"/><stop offset=".598" stop-color="#0057A0"/><stop offset=".735" stop-color="#004C99"/><stop offset=".87" stop-color="#084694"/><stop offset="1" stop-color="#0B4393"/></radialGradient><radialGradient cx="398.849" cy="378.017" r="19.734" gradientUnits="userSpaceOnUse" gradientTransform="matrix(1.047 0 0 1 -15.894 0)"><stop offset="0" stop-color="#fff"/><stop offset=".066" stop-color="#FFFDEC"/><stop offset=".224" stop-color="#FEF9CA"/><stop offset=".383" stop-color="#FEF6AC"/><stop offset=".541" stop-color="#FEF495"/><stop offset=".698" stop-color="#FEF385"/><stop offset=".852" stop-color="#FEF27A"/><stop offset="1" stop-color="#FEF276"/></radialGradient><radialGradient cx="412.648" cy="371.189" r="13.284" gradientUnits="userSpaceOnUse" gradientTransform="matrix(1.047 0 0 1 -15.894 0)"><stop offset="0" stop-color="#fff"/><stop offset=".066" stop-color="#FAF8E8"/><stop offset=".224" stop-color="#F2EEC1"/><stop offset=".383" stop-color="#EDE6A2"/><stop offset=".541" stop-color="#E9E18A"/><stop offset=".698" stop-color="#E6DD7A"/><stop offset=".852" stop-color="#E4DB70"/><stop offset="1" stop-color="#E3DA6C"/></radialGradient><radialGradient cx="417.595" cy="388.21" r="45.114" gradientTransform="matrix(1.047 0 0 1 -15.894 0)" gradientUnits="userSpaceOnUse"><stop offset="0" stop-color="#097fc8"/><stop offset=".871" stop-color="#00b9f2"/></radialGradient><radialGradient cx="404.099" cy="373.601" r="19.907" gradientTransform="matrix(.059 -.998 .732 .04 109.912 762.274)" gradientUnits="userSpaceOnUse"><stop offset="0" stop-color="#14BDEB"/><stop offset=".908" stop-color="#00B9F2" stop-opacity="0"/></radialGradient><radialGradient id="e" cx="415.745" cy="367.705" r="49.738" gradientTransform="matrix(1.03 -.181 .019 .098 -15.675 406.77)" gradientUnits="userSpaceOnUse"><stop offset="0" stop-color="#006AA7"/><stop offset=".908" stop-color="#00B9F2" stop-opacity="0"/></radialGradient><radialGradient id="f" cx="411.537" cy="363.609" r="14.345" gradientTransform="matrix(1.047 0 0 .4 -15.894 218.165)" gradientUnits="userSpaceOnUse"><stop offset="0" stop-color="#F6F6F6"/><stop offset=".908" stop-color="#00B9F2" stop-opacity="0"/></radialGradient><radialGradient id="p" cx="417.595" cy="388.21" r="45.114" xlink:href="#a" gradientUnits="userSpaceOnUse" gradientTransform="matrix(-4.597 17.158 -16.388 -4.391 8292.669 -5066.008)"/><linearGradient id="q" x1="302.957" x2="391.719" y1="632.995" y2="263.513" xlink:href="#b" gradientUnits="userSpaceOnUse"/><linearGradient id="r" x1="341.007" x2="111.466" y1="662.923" y2="35.333" xlink:href="#b" gradientUnits="userSpaceOnUse"/><linearGradient id="s" x1="274.868" x2="350.294" y1="80.984" y2="240.975" xlink:href="#c" gradientUnits="userSpaceOnUse"/><radialGradient id="t" cx="400.725" cy="364.601" r="38.566" xlink:href="#d" gradientUnits="userSpaceOnUse" gradientTransform="matrix(-4.597 17.158 -16.388 -4.391 8292.669 -5066.008)"/><radialGradient id="u" cx="415.745" cy="367.705" r="49.738" xlink:href="#e" gradientUnits="userSpaceOnUse" gradientTransform="matrix(-1.557 17.669 -1.694 -.122 1625.642 -6848.582)"/><radialGradient id="v" cx="411.537" cy="363.609" r="14.345" xlink:href="#f" gradientUnits="userSpaceOnUse" gradientTransform="matrix(-4.597 17.158 -6.555 -1.756 4717.42 -6023.993)"/><linearGradient id="o" x1="24" x2="5.679" y1="31.393" y2="25.5" xlink:href="#g" gradientUnits="userSpaceOnUse" gradientTransform="matrix(16.5 2.886 0 16.5 -70.554 -76.898)"/><radialGradient id="x" cx="376.245" cy="485.248" r="254.156" xlink:href="#h" gradientUnits="userSpaceOnUse" gradientTransform="matrix(1.317 .83 -.311 .494 31.785 -75.587)" fx="376.245" fy="485.248"/><radialGradient id="w" cx="376.245" cy="485.248" r="254.156" xlink:href="#i" gradientUnits="userSpaceOnUse" gradientTransform="matrix(.616 .383 -.19 .305 326.558 144.876)" fx="376.245" fy="485.248"/><radialGradient cx="238.848" cy="557.272" r="301.271" xlink:href="#j" fx="238.848" fy="557.272" gradientTransform="matrix(1 0 0 .537 0 280.334)" gradientUnits="userSpaceOnUse"/><radialGradient cx="236.348" cy="638.614" r="295.083" xlink:href="#k" fx="236.348" fy="638.614" gradientTransform="matrix(1 0 0 .528 0 301.56)" gradientUnits="userSpaceOnUse"/><linearGradient x1="10.872" x2="10.834" y1="39.401" y2="37.734" xlink:href="#l" gradientUnits="userSpaceOnUse"/><linearGradient x1="10.528" x2="10.521" y1="39.426" y2="38.562" xlink:href="#l" gradientUnits="userSpaceOnUse" gradientTransform="matrix(-16.205 -3.105 -3.105 16.205 682.573 75.821)"/><linearGradient x1="140.088" x2="139.473" y1="454.23" y2="759.245" xlink:href="#m" gradientUnits="userSpaceOnUse"/><linearGradient x1="39.882" x2="39.94" y1="5.655" y2="5.584" xlink:href="#n" gradientUnits="userSpaceOnUse" gradientTransform="matrix(-16.205 -3.105 -3.105 16.205 682.573 75.821)"/><linearGradient id="n"><stop offset="0" stop-color="#a40000"/><stop offset="1" stop-color="#a40000" stop-opacity="0"/></linearGradient><linearGradient x1="10.528" x2="10.521" y1="39.426" y2="38.562" gradientTransform="matrix(-.982 -.188 -.188 .982 24.6 -33.978)" gradientUnits="userSpaceOnUse" xlink:href="#n"/><radialGradient id="y" cx="236.348" cy="638.614" r="295.083" xlink:href="#k" gradientUnits="userSpaceOnUse" gradientTransform="matrix(1 0 0 .528 0 301.56)" fx="236.348" fy="638.614"/><radialGradient id="z" cx="238.848" cy="557.272" r="301.271" xlink:href="#j" gradientUnits="userSpaceOnUse" gradientTransform="matrix(1 0 0 .537 0 280.334)" fx="238.848" fy="557.272"/><linearGradient id="A" x1="140.088" x2="139.473" y1="454.23" y2="759.245" xlink:href="#m" gradientUnits="userSpaceOnUse"/><linearGradient id="B" x1="10.872" x2="10.834" y1="39.401" y2="37.734" xlink:href="#l" gradientUnits="userSpaceOnUse"/><linearGradient id="C" x1="10.528" x2="10.521" y1="39.426" y2="38.562" xlink:href="#l" gradientUnits="userSpaceOnUse" gradientTransform="matrix(-16.205 -3.105 -3.105 16.205 682.573 75.821)"/><linearGradient id="D" x1="39.882" x2="39.94" y1="5.655" y2="5.584" xlink:href="#n" gradientUnits="userSpaceOnUse" gradientTransform="matrix(-16.205 -3.105 -3.105 16.205 682.573 75.821)"/></defs><path fill="url(#o)" d="M222.9 567.77L-35.2 390.7l130.82-63.75L429.75 450.8z"/><g><path fill="none" d="M306.56 62.95L7.02 47.07C-18.05 44.3-58.72 94.8-78.88 170c-20.14 75.2-9.28 138.94 12.9 149.4l270.12 145.74c-35.92-98.5 14.84-319 102.42-402.2z"/><path fill="url(#p)" stroke="#204a87" stroke-width="11.678" d="M74.85 90c-22.63-2.48-54.43 26.34-81.55 75.58-19.87 36-33.73 75.52-42.54 115.73C-63.18 345.04-61 401-49.38 434.98c5.7 16.68 13.67 28.1 23.1 32.55 17.88 9.14 35.76 18.33 53.62 27.5 33.17 17 65 37.8 98.14 54.86 35.6 18.3 70.64 38.23 106.22 56.53 69.26 35.57 135.94 79.5 205.2 115 8.1-30.17 20.68-74.17 28.76-104.3 16.25-60.66 32.5-121.3 48.74-181.9 12-44.84 24.02-89.67 36.02-134.46 16.5-61.6 33.02-123.22 49.53-184.82-77.8-3.82-155.54-7.67-233.27-11.5-39.98-2-79.94-3.92-119.82-5.9-37.3-1.86-74.55-3.7-111.8-5.52-20.07-1-40.14-2-60.2-3z" transform="matrix(.707 0 0 .706 -42.135 -17.22)"/><path fill="url(#q)" d="M411.17 236.9L334.4 658.55l-52-30.56c12.7-178.44 69.92-306.93 128.77-391.1z" transform="matrix(.707 0 0 .706 -42.135 -17.22)"/><path fill="#eaf6f8" d="M356.96 29.1C349.36 22.86 287-7.6 223.5 4.63c38.64.78 54.08 2.34 73.32 6.7 20.15 4.56 60.14 17.77 60.14 17.77z"/><path fill="#eff8f9" d="M280.64 75.4c-15.1 16.22-28.18 24.12-42.9 55.88L-30.3 83.98c7.9-11.37 10.67-15.7 20.38-21.78z" opacity=".62"/><path fill="url(#r)" d="M414.65 109.85c-20.88-1.6-22.8-2.1-77.95-4.17-101.5-3.77-191.63-29.83-203.04 103.6C116.44 410.14 280.5 604.9 337.3 676.65c0 .02-18.34-67.8-15.35-50.68C277.83 537.34 173.67 414.6 182 230.2 187.7 105.58 244 106 355.83 110.83c8.86.34 56.32-.05 58.83-.97z" transform="matrix(.707 0 0 .706 -42.135 -17.22)"/><path fill="url(#s)" stroke="#9e8a31" stroke-width="11.678" stroke-miterlimit="10" d="M597.2 87.76C564.4 67.62 513.04 38.4 418.46 33.3c-122.54-6.5-202.24 85.18-213.7 218.62-17.17 200.8 94.36 361.6 130.1 426.9 0 .02-1.9 12.65 1.92 21.24 9.92 22.57 40.25 25.92 42.27-4.57 1.67-14.7-11.48-26.64-17.33-26.17-44.14-88.62-126.22-215.8-117.84-400.2 5.65-124.65 58.03-206.47 200.4-200.23 58.6 2.58 85.94 17.65 99.33 23.03 11.23-3.56 27.85-8.1 53.6-4.17z" stroke-linecap="round" stroke-linejoin="round" transform="matrix(.707 0 0 .706 -42.135 -17.22)"/><path fill="#5eb4e4" stroke="#204a87" stroke-width="7.81.678" d="M213.04 248C243.86 133.13 303.1 16.52 392.92 40.55c62 16.6 57.08 147.75 26.26 262.6-30.82 114.85-92.22 230.9-154.23 214.3-91.3-24.43-82.73-154.6-51.9-269.45z"/><path fill="none" d="M393.93 42.2c61.38 16.43 56.33 146.92 25.66 261.22-30.67 114.3-91.63 229.8-153.02 213.37"/><path fill="#f4fbfe" d="M379.5 374.75c-53.75 154.83-199.1 209.7-117.8-125.8-17.6 74.22-44.32 213.23 7.87 240.5 27.27 14.22 71.17-30.27 109.92-114.7z" opacity=".91"/><path fill="#fbfdff" d="M424.9 264.55C471.88 105.87 406.92-69 299.87 145.5 333.9 80.44 409.94-3.96 429.55 113.67c5.15 30.8 9.4 62.5-4.65 150.88z" opacity=".91"/><path fill="url(#t)" d="M550.82 145.56c-29.05 27.66-59.8 79.1-86.3 145.62-12.5 31.4-24.05 66.15-34.02 103.33-31.02 115.77-36.84 218.26-20.24 274.83 1.8 6.08 3.86 11.7 6.18 16.67 19.63 42.37 58.15 31.1 87.1 4.05 44.42-41.48 93.2-130.2 123.4-242.93 9.67-36.1 16.47-71.12 20.68-103.88 8.9-69.6 6.05-129.3-6-168.9-11.48-37.77-39-66.85-77.1-40.1-4.53 3.17-9.1 6.95-13.7 11.32z" transform="matrix(.707 0 0 .706 -42.135 -17.22)"/><path fill="none" stroke="#204a87" stroke-width="7.81.678" stroke-miterlimit="10" d="M272.97 487.05c-36.54-9.78-41.9-108.1-10.3-225.9 31.62-117.8 85.63-200.78 122.17-191 36.56 9.78 48.3 110.35 16.68 228.14-31.6 117.8-92 198.53-128.55 188.75z" stroke-linecap="round" stroke-linejoin="round"/><path fill="url(#u)" d="M505.95 106.66c-63.9 51.43-116.24 148.7-145.5 270.27-4.3 17.77-8 35.88-11.04 54.2-17.1 103.66-30.5 167.8 2.16 247.37 6.9 17.75 15.98 34.76 28 47.2 13.4 13.95 30.24 24.16 50.98 29.72-64.62-27.25-72.24-151.55-48.08-286.03 4.95-27.6 11.3-55.65 18.7-83.3 43.6-162.7 128.7-309.8 211.9-305.45-20.3-5.44-39.94-5.17-58.7.17-16.84 4.74-33 13.5-48.4 25.84z" transform="matrix(.707 0 0 .706 -42.135 -17.22)"/><path fill="url(#v)" d="M506.18 108.62c-63.96 51.42-116.24 148.7-145.5 270.27-4.3 17.77-8 35.9-11.07 54.2-17.1 103.63-30.47 167.77 2.17 247.37 6.88 17.74 15.97 34.76 27.98 47.2 13.4 13.9 30.24 24.15 51 29.7-64.64-27.23-72.26-151.54-48.1-286.05 4.96-27.58 11.3-55.64 18.7-83.27 43.58-162.7 128.7-309.83 211.92-305.45-20.33-5.44-39.95-5.17-58.7.15-16.83 4.77-33 13.56-48.4 25.87z" transform="matrix(.707 0 0 .706 -42.135 -17.22)"/></g><path fill="url(#w)" stroke="#5e3a01" stroke-width="8.25" d="M357.06 297.78c11.4 7.34 54.92 18.55 70.32 20.66 6.44 11.93 18.05-2.13 26.06 9.68 12.25 8.08 12.7 25.97 18.85 33.84 11.4 3.9 16.46 20.3 8.85 30.33 1.5 12.54 22.4 5.22 21.8 18.4 13.52-12.24 27 20.45 33.6 4.5 8 1 13.17-11.14 20.2.7 11.35 9.72 11.2 24.78 19.8 36.5 1.34 6.7 9.8 11.4 14.72 10.83 6.26-11.64 25.88-2.63 25.4 8.72 13.6 3.57 15.04 16.72 21.18 25.7 4.92 9.9 20.38 14.12 26.82 25.23-22.9 20.13-37.7 7.14-61.13 11.58-14.47 3.77-29.24-1.7-43.82-2.78-8.96-1.2-17.93-2.4-26.9-3.6-10.7 12.2-28.84-1.8-39.78 8.67-12.92 4.65-23.6-6.97-35.5-7.47-15.37 3.6-30.97 2.03-46.55 1.67-10.98-2.35-7.4-19.76-22.22-12.93-11.84 1.93-6.68-13.9-19.66-10.05-13.23.43-3.43-10.74-10.56-16.65 3.35-8.1 19.52-.25 23.5-10.1 6.32-7.16 12.9-1.8 15.6-10.32 4.1-12.8-6.54-31.5-11.4-46.2-11-44.7-35.13-70.42-29.2-126.92z"/><path fill="none" stroke="#d9a654" stroke-width="8.25" d="M353.37 305.1c11.4 7.35 54.92 18.56 70.33 20.67 6.44 11.93 18.05-2.13 26.06 9.68 12.24 8.08 12.68 25.97 18.84 33.84 11.4 3.9 16.47 20.3 8.86 30.32 1.5 12.55 22.4 5.23 21.8 18.4 13.52-12.23 27 20.46 33.6 4.5 8 1 13.17-11.13 20.2.7 11.35 9.73 11.2 24.8 19.8 36.5 1.34 6.7 9.8 11.4 14.72 10.84 6.26-11.64 25.9-2.63 25.4 8.72 13.6 3.57 15.04 16.72 21.18 25.7 3.4 6.84 17.44 11.28 21.95 19.33" color="#000" overflow="visible" enable-background="accumulate"/><path fill="url(#x)" stroke="#533401" stroke-width="8.25" d="M270.78 237.97c18.47 11.93 18.1 42.3 43.06 45.74 10.44 19.4 29.26-3.44 42.24 15.74 19.84 13.13 20.56 42.2 30.55 54.98 18.48 6.35 26.68 33 14.35 49.27 2.43 20.38 36.3 8.5 35.32 29.88 21.93-19.86 43.77 33.24 54.47 7.34 12.95 1.6 21.34-18.1 32.72 1.13 18.4 15.78 18.18 40.26 32.1 59.28 2.17 10.9 15.88 18.53 23.86 17.6 10.15-18.9 41.95-4.26 41.18 14.17 22.04 5.8 24.36 27.17 34.32 41.76 7.96 16.1 33.02 22.94 43.46 41-17.76-2.94-35.52-5.88-53.28-8.8 8.45 30.94-34.25 12.82-45.8 27.6-23.44 6.12-47.4-2.75-71-4.5-14.54-1.97-29.07-3.92-43.6-5.87-17.34 19.8-46.76-2.95-64.48 14.08-20.95 7.55-38.27-11.33-57.55-12.14-24.9 5.87-50.18 3.3-75.43 2.7-17.78-3.8-11.96-32.1-35.98-21-19.2 3.15-10.85-22.55-31.9-16.32-21.42.7-5.54-17.45-17.1-27.05 5.44-13.14 31.64-.4 38.1-16.4 10.22-11.65 20.9-2.9 25.26-16.78 6.67-20.8-10.6-51.16-18.44-75.05-17.85-72.62-8.33-150.97 23.56-218.38z"/><path fill="none" stroke="#d9a654" stroke-width="8.25" d="M267.03 246.72c18.47 11.93 18.1 42.3 43.06 45.74 10.43 19.4 29.25-3.45 42.23 15.73 19.84 13.12 20.56 42.18 30.55 54.97 18.48 6.35 26.68 33 14.35 49.27 2.43 20.4 36.3 8.5 35.32 29.9 21.92-19.87 43.77 33.23 54.47 7.33 12.95 1.6 21.34-18.1 32.72 1.13 18.42 15.78 18.2 40.26 32.1 59.28 2.18 10.9 15.9 18.53 23.87 17.6 10.16-18.9 41.96-4.26 41.2 14.17 22.03 5.8 13.1 10.92 23.06 25.5 7.96 16.1 33.02 22.95 43.46 41" color="#000" overflow="visible" enable-background="accumulate"/><g><path fill="url(#y)" d="M137.57 612.42L40.85 506.06c-3.03-19.6 8.14-25.12 27.4-22.63 43.86 30 79.12 72.5 134.05 87.5 29.1 7.95 60.93 14.54 90.63 7.54l140.9-33.2c31-3.8 23.28 10.3 25.9 19.63-32.08 39.43-80.03 50.55-121.1 73.92 29.03 20.88 75.75 25.72 97.43 40.9 25.5 17.87 58.73 22.18 89.92 25.47 17.78 4.88-11.4 37.02-37.32 36.95-30.73-4.07-65.64-19.27-85.44-18.73-40.43 1.1-83.34-7.66-120.95-21.24-40.14 63.38-101.68 72.58-159.17 92.02-24.7 2.22-50.46-19.53-27.42-42.24 34.05-14.25 76.57-37.26 91.4-60.34-34.95.78-67.32-18.64-98.5-12.3-47.2 9.56-91.38 5.63-134.56-2.8-11.64-11.55-20.6-23.12-2.28-34.7 74.9 7.83 117.03-34.3 185.83-29.4z" transform="translate(-25.001 10.001)"/><path fill="url(#z)" stroke="url(#A)" stroke-width="12.375" d="M137.57 579.9L40.85 473.57c-3.03-19.6 8.14-25.12 27.4-22.63 43.86 30 79.12 72.48 134.05 87.5 29.1 7.95 60.93 14.54 90.63 7.54l140.9-33.2c31-3.8 23.28 10.3 25.9 19.62-32.08 39.43-80.03 50.54-121.1 73.9 29.03 20.9 75.75 25.74 97.43 40.92 25.5 17.86 58.73 22.18 89.92 25.47 17.78 4.88-11.4 37.02-37.32 36.95-30.73-4.07-65.64-19.27-85.44-18.73-40.43 1.1-83.34-7.66-120.95-21.24-40.14 63.37-101.68 72.58-159.17 92.02-24.7 2.22-50.46-19.54-27.42-42.24 34.05-14.25 76.57-37.26 91.4-60.34-34.95.78-67.32-18.64-98.5-12.32-47.2 9.58-91.38 5.65-134.56-2.77-11.64-11.57-20.6-23.13-2.28-34.7 74.9 7.82 117.03-34.3 185.83-29.42z" transform="translate(-25.001 10.001)"/><path fill="url(#B)" d="M2.3 37.92c4.57 1.26 9.2-.66 13.7-.26-.15.78.67 1.6 1.46 1.93-2.13.06-3.94-.5-5.8-.83-2.86.44-5.7.57-8.97.1z" transform="matrix(16.5 0 0 16.5 -115.001 10.001)"/><path fill="url(#C)" d="M306.6 636.46c-.24 13.02-15.95 23.7-29.93 26.72 43.3 13.32 91.8 25.2 134.97 22.3 33.73 10.15 84.44 32.05 105.42 6.28-63.6-5.64-193.97-37.42-210.45-55.3z" transform="translate(-25.001 10.001)"/><path fill="none" stroke="#fff" stroke-width="8.25" d="M39.38 468.23c50.17 42.93 123.63 97.36 180 100 67.24 3.17 123.86-22.48 198.77-40.62" stroke-linecap="round"/><path fill="none" stroke="#fff" stroke-width="8.25" d="M301.9 620.12c27.98 21.35 71 29.5 96.25 41.87 24.2 14.07 59 29.25 101.26 27.5" color="#000" stroke-linecap="round" overflow="visible" enable-background="accumulate"/><path fill="none" stroke="#fff" stroke-width="8.25" d="M126.26 598.24C45.42 593.27 5.1 637.12-70.62 627.62" color="#000" stroke-linecap="round" overflow="visible" enable-background="accumulate"/><path fill="url(#D)" d="M11.1 44.82c3.15.2 7.6-1.78 9.8-4.77.5.2 1.03.2 1.5.22-1.5 3-6.34 4.88-9.63 5.57-1.14-.12-1.56-.42-1.67-1.02z" transform="matrix(16.5 0 0 16.5 -115.001 10.001)" color="#000" overflow="visible" enable-background="accumulate"/><path fill="none" stroke="#fff" stroke-width="8.25" d="M73.13 736.37c26.2-9.62 79.78-29.78 101.88-73.13" color="#000" stroke-linecap="round" overflow="visible" enable-background="accumulate"/></g></svg>