<svg xmlns="http://www.w3.org/2000/svg" width="48" height="48" xmlns:xlink="http://www.w3.org/1999/xlink"><defs><radialGradient id="a" cx="264.885" cy="1499.855" r="8.559" gradientUnits="userSpaceOnUse" fy="1499.855" fx="264.885" gradientTransform="translate(9.073 -1121.746)"><stop offset=".006" stop-color="#FCDFA8"/><stop offset="1" stop-color="#F3841A"/></radialGradient><radialGradient id="z" cx="264.885" cy="1499.855" r="8.559" xlink:href="#a" gradientUnits="userSpaceOnUse" gradientTransform="translate(9.073 -1121.746)" fx="264.885" fy="1499.855"/><linearGradient id="b" x1="260.883" x2="274.926" y1="1494.385" y2="1509.797" gradientUnits="userSpaceOnUse" gradientTransform="translate(9.073 -1121.746)"><stop offset=".006" stop-color="#F17912"/><stop offset=".292" stop-color="#FAAF3E"/><stop offset=".59" stop-color="#F17912"/><stop offset="1" stop-color="#73340F"/></linearGradient><linearGradient id="y" x1="260.883" x2="274.926" y1="1494.385" y2="1509.797" xlink:href="#b" gradientUnits="userSpaceOnUse" gradientTransform="translate(9.073 -1121.746)"/><linearGradient id="c" x1="264.233" x2="266.049" y1="1505.209" y2="1503.704" gradientUnits="userSpaceOnUse" gradientTransform="translate(9.073 -1121.746)"><stop offset=".006" stop-color="#a82900" stop-opacity="0"/><stop offset="1" stop-color="#8a3e0e"/></linearGradient><linearGradient id="x" x1="264.233" x2="266.049" y1="1505.209" y2="1503.704" xlink:href="#c" gradientUnits="userSpaceOnUse" gradientTransform="translate(9.073 -1121.746)"/><linearGradient id="d" x1="255.886" x2="263.778" y1="1504.661" y2="1513.642" gradientUnits="userSpaceOnUse" gradientTransform="translate(9.073 -1121.746)"><stop offset=".006" stop-color="#F17912"/><stop offset=".022" stop-color="#F27D15"/><stop offset=".098" stop-color="#F78E21"/><stop offset=".157" stop-color="#F99326"/><stop offset=".674" stop-color="#C56417"/><stop offset="1" stop-color="#994511"/></linearGradient><linearGradient id="w" x1="255.886" x2="263.778" y1="1504.661" y2="1513.642" xlink:href="#d" gradientUnits="userSpaceOnUse" gradientTransform="translate(9.073 -1121.746)"/><linearGradient id="e" x1="250.594" x2="260.634" y1="1507.167" y2="1518.866" gradientUnits="userSpaceOnUse" gradientTransform="translate(9.073 -1121.746)"><stop offset=".006" stop-color="#F17912"/><stop offset=".315" stop-color="#FAAF3E"/><stop offset=".59" stop-color="#F17912"/><stop offset="1" stop-color="#6E290A"/></linearGradient><linearGradient id="v" x1="250.594" x2="260.634" y1="1507.167" y2="1518.866" xlink:href="#e" gradientUnits="userSpaceOnUse" gradientTransform="translate(9.073 -1121.746)"/><radialGradient id="f" cx="247.017" cy="1513.643" r="14.582" gradientUnits="userSpaceOnUse" fy="1513.643" fx="247.017" gradientTransform="translate(9.073 -1121.746)"><stop offset=".006" stop-color="#FAAF3E"/><stop offset=".337" stop-color="#FAAF3E"/><stop offset=".652" stop-color="#F17912"/><stop offset="1" stop-color="#73340F"/></radialGradient><radialGradient id="u" cx="247.017" cy="1513.643" r="14.582" xlink:href="#f" gradientUnits="userSpaceOnUse" gradientTransform="translate(9.073 -1121.746)" fx="247.017" fy="1513.643"/><linearGradient id="g" x1="244.283" x2="261.463" y1="1505.286" y2="1525.255" gradientUnits="userSpaceOnUse" gradientTransform="translate(9.073 -1121.746)"><stop offset=".006" stop-color="#F17912"/><stop offset=".292" stop-color="#FAAF3E"/><stop offset=".545" stop-color="#FAAF3E"/><stop offset=".652" stop-color="#F17912"/><stop offset="1" stop-color="#73340F"/></linearGradient><linearGradient id="t" x1="244.283" x2="261.463" y1="1505.286" y2="1525.255" xlink:href="#g" gradientUnits="userSpaceOnUse" gradientTransform="translate(9.073 -1121.746)"/><linearGradient id="h" x1="242.98" x2="260.03" y1="1506.586" y2="1526.39" gradientUnits="userSpaceOnUse" gradientTransform="translate(9.073 -1121.746)"><stop offset=".006" stop-color="#73340F"/><stop offset=".461" stop-color="#F17912"/><stop offset="1" stop-color="#73340F"/></linearGradient><linearGradient id="s" x1="242.98" x2="260.03" y1="1506.586" y2="1526.39" xlink:href="#h" gradientUnits="userSpaceOnUse" gradientTransform="translate(9.073 -1121.746)"/><linearGradient id="i" x1="238.486" x2="240.81" y1="1525.703" y2="1528.29" gradientUnits="userSpaceOnUse"><stop offset=".006" stop-color="#3E444C"/><stop offset=".298" stop-color="#ADBECA"/><stop offset=".477" stop-color="#ADBECA"/><stop offset=".702" stop-color="#828F99"/><stop offset="1" stop-color="#292E33"/></linearGradient><linearGradient id="r" x1="238.486" x2="240.81" y1="1525.703" y2="1528.29" xlink:href="#i" gradientUnits="userSpaceOnUse"/><linearGradient id="j" x1="1373.516" x2="1409.461" y1="1597.558" y2="1597.558" gradientTransform="matrix(-1 0 0 1 1812.6 0)" gradientUnits="userSpaceOnUse"><stop offset=".006" stop-color="#E8EDED"/><stop offset=".354" stop-color="#A1ACB3"/><stop offset="1" stop-color="#575D66"/></linearGradient><linearGradient id="k" x1="1366.53" x2="1380.07" y1="1608.206" y2="1608.206" gradientTransform="matrix(-1 0 0 1 1812.6 0)" gradientUnits="userSpaceOnUse"><stop offset="0" stop-color="#A1ACB3"/><stop offset=".326" stop-color="#D0D6D8"/><stop offset="1" stop-color="#575D66"/></linearGradient><linearGradient id="l" x1="1382.951" x2="1409.461" y1="1596.607" y2="1596.607" gradientTransform="matrix(-1 0 0 1 1812.6 0)" gradientUnits="userSpaceOnUse"><stop offset="0" stop-color="#A1ACB3"/><stop offset=".489" stop-color="#E8EDED"/><stop offset="1" stop-color="#575D66"/></linearGradient><linearGradient id="m" x1="1373.569" x2="1386.847" y1="1593.281" y2="1593.281" gradientTransform="matrix(-1 0 0 1 1812.6 0)" gradientUnits="userSpaceOnUse"><stop offset="0" stop-color="#fff"/><stop offset=".208" stop-color="#D0D6D8"/><stop offset=".393" stop-color="#737B87"/><stop offset="1" stop-color="#D0D6D8"/></linearGradient><linearGradient id="n" x1="1373.516" x2="1409.461" y1="1597.558" y2="1597.558" xlink:href="#j" gradientUnits="userSpaceOnUse" gradientTransform="matrix(-1 0 0 1 1812.6 0)"/><linearGradient id="o" x1="1366.53" x2="1380.07" y1="1608.206" y2="1608.206" xlink:href="#k" gradientUnits="userSpaceOnUse" gradientTransform="matrix(-1 0 0 1 1812.6 0)"/><linearGradient id="p" x1="1382.951" x2="1409.461" y1="1596.607" y2="1596.607" xlink:href="#l" gradientUnits="userSpaceOnUse" gradientTransform="matrix(-1 0 0 1 1812.6 0)"/><linearGradient id="q" x1="1373.569" x2="1386.847" y1="1593.281" y2="1593.281" xlink:href="#m" gradientUnits="userSpaceOnUse" gradientTransform="matrix(-1 0 0 1 1812.6 0)"/></defs><g><g><g><path fill="#737b87" d="M20.9 13.8c-1.3 1.48-1.62 3.46-1.62 5.12 0 1.05.13 1.96.24 2.54.9 4.84 4.2 10.13 9.77 15.74-.1 0-.2.06-.32.06-7.6.58-14.55-7.83-17.18-11.47-3.02-4.18-6.43-5.96-10.76-5.6-.6.04-1.03.56-.98 1.15.05.6.56 1.03 1.16.98 3.6-.28 6.24 1.13 8.83 4.72 3.54 4.9 10.72 13 19.1 12.36.68-.04 1.37-.2 2.04-.4 2.55 2.3 5.33 4.32 8 5.75 2.7 1.43 6.5 3.1 8.35 1.07.4-.44.37-1.12-.07-1.52-.44-.4-1.12-.37-1.52.07-.1.1-1.08.96-5.73-1.52-2.25-1.2-4.65-2.9-6.88-4.8 1.42-.83 2.74-2 3.83-3.46 1.83-2.46 2.84-5.44 2.84-8.2 0-.73-.07-1.45-.22-2.14-1.26-5.84-8.35-11.88-14.32-12.2-1.9-.1-3.5.5-4.58 1.75zM31.64 36.5c-.22-.2-.45-.4-.67-.63-5.35-5.36-8.5-10.33-9.34-14.8-.14-.7-.2-1.42-.2-2.08 0-1.58.38-2.93 1.1-3.74.64-.75 1.57-1.08 2.83-1 5.05.26 11.27 5.56 12.34 10.5.12.54.17 1.12.17 1.7 0 2.3-.86 4.8-2.4 6.88-1.1 1.45-2.42 2.5-3.83 3.18z"/></g><path fill="none" stroke="#41464c" stroke-width=".49862000000000006" d="M30.57 37.34c-.14-.13-.28-.27-.42-.4-4.04-4.05-8.54-9.56-9.63-15.36-.73-3.85.2-8.36 4.84-8.12 5.52.3 12.16 5.96 13.33 11.35" stroke-linecap="round"/><path fill="none" stroke="#4c5259" stroke-width=".39804" d="M46.7 45.42c-1.48 1.6-5.64-.56-7.04-1.3-2.74-1.46-5.48-3.48-7.86-5.62" stroke-linecap="round"/><path fill="none" stroke="#cfdade" stroke-width=".49862000000000006" d="M46.7 44.88c-1.48 1.6-5.64-.55-7.04-1.3-3.4-1.8-6.8-4.47-9.5-7.2-4.05-4.03-8.55-9.54-9.64-15.33-.73-3.86.2-8.37 4.84-8.12 5.52.3 12.16 5.95 13.33 11.34 1.24 5.83-3.53 13.38-9.7 13.85-7.36.55-14.17-6.44-18.13-11.92-2.52-3.47-5.43-5.5-9.8-5.15" stroke-linecap="round"/><g transform="matrix(1.074 0 0 1.074 -432.165 -1685.657)"><linearGradient x1="1373.516" x2="1409.461" y1="1597.558" y2="1597.558" gradientUnits="userSpaceOnUse" gradientTransform="matrix(-1 0 0 1 1812.6 0)"><stop offset=".006" stop-color="#E8EDED"/><stop offset=".354" stop-color="#A1ACB3"/><stop offset="1" stop-color="#575D66"/></linearGradient><path fill="url(#n)" d="M412.7 1594.27c2.54 3.5 9.22 11.55 16.68 11 2.42-.2 4.82-1.65 6.57-4 1.95-2.6 3.06-5.9 2.48-8.6-.03-.13.06-.27.2-.3.13-.02.26.06.3.2.6 2.83-.54 6.28-2.57 9-1.85 2.47-4.38 4-6.94 4.2-7.72.57-14.54-7.65-17.1-11.2-2.57-3.55-5.32-5-8.9-4.7-.15 0-.27-.1-.28-.24 0-.13.1-.26.23-.27 3.8-.3 6.67 1.2 9.34 4.9z"/></g><g transform="matrix(1.074 0 0 1.074 -432.165 -1685.657)"><linearGradient x1="1366.53" x2="1380.07" y1="1608.206" y2="1608.206" gradientUnits="userSpaceOnUse" gradientTransform="matrix(-1 0 0 1 1812.6 0)"><stop offset="0" stop-color="#A1ACB3"/><stop offset=".326" stop-color="#D0D6D8"/><stop offset="1" stop-color="#575D66"/></linearGradient><path fill="url(#o)" d="M432.95 1604.92c2.1 1.78 4.38 3.38 6.47 4.5 4.14 2.2 5.7 1.9 6.3 1.25.07-.1.2-.1.28-.02.08.08.1.2.02.3-1.14 1.2-3.3.7-6.8-1.18-2.1-1.13-4.5-2.84-6.62-4.64-.08-.07-.1-.2-.02-.3.07-.07.28.02.37.1z"/></g><g transform="matrix(1.074 0 0 1.074 -432.165 -1685.657)"><linearGradient x1="1382.951" x2="1409.461" y1="1596.607" y2="1596.607" gradientUnits="userSpaceOnUse" gradientTransform="matrix(-1 0 0 1 1812.6 0)"><stop offset="0" stop-color="#A1ACB3"/><stop offset=".489" stop-color="#E8EDED"/><stop offset="1" stop-color="#575D66"/></linearGradient><path fill="url(#p)" d="M412.7 1593.37c2.54 3.5 9.22 11.55 16.68 11 .14-.02.26.08.27.22 0 .13-.1.15-.23.16-7.72.58-14.54-7.64-17.1-11.2-2.57-3.54-5.32-5-8.9-4.7-.15 0-.27 0-.28-.13 0-.14.1-.26.23-.27 3.8-.3 6.67 1.2 9.34 4.9z"/></g><path fill="#4c5259" d="M32.42 37.94s-.83.37-1.05.46l.34.3 1.02-.46-.3-.3z"/><g transform="matrix(1.074 0 0 1.074 -432.165 -1685.657)"><linearGradient x1="1373.569" x2="1386.847" y1="1593.281" y2="1593.281" gradientUnits="userSpaceOnUse" gradientTransform="matrix(-1 0 0 1 1812.6 0)"><stop offset="0" stop-color="#fff"/><stop offset=".208" stop-color="#D0D6D8"/><stop offset=".393" stop-color="#737B87"/><stop offset="1" stop-color="#D0D6D8"/></linearGradient><path fill="url(#q)" d="M426.02 1581.3c5.27.28 11.73 5.6 12.84 10.77.6 2.83-.47 6.28-2.5 9-1.85 2.47-4.38 4-6.94 4.2-.14 0-.26-.1-.27-.24 0-.14.1-.26.23-.27 2.42-.18 4.82-1.63 6.57-4 1.95-2.6 2.8-5.9 2.22-8.6-1.05-4.86-7.2-10.1-12.18-10.36-.15 0-.25-.13-.25-.26 0-.14.13-.25.27-.24z"/></g></g><g transform="matrix(.45 0 0 .45 -108.148 -164.143)"><path fill="none" stroke="#3e444c" stroke-width="2.222" d="M255.28 401.7l-9.12 7.4-2.8 1.04 1.37-2.8 8.22-8.23"/><path fill="url(#r)" d="M246.2 1523.44l-9.1 7.4-2.8 1.04 1.36-2.8 8.22-8.22" transform="translate(9.073 -1121.746)"/><path fill="none" stroke="#99440f" stroke-width="2.222" d="M267.38 389.34c3.82 4.48 5.48 12.32 1.72 15.3-3.75 2.98-10.6.97-15.32-4.5-4.7-5.47-5.48-12.32-1.72-15.3 3.75-2.98 11.02-.53 15.32 4.5z"/><path fill="none" stroke="#99440f" stroke-width="2.222" d="M268.74 388.12c3.86 4.52 5.55 12.4 1.8 15.4-3.76 2.97-10.65.92-15.4-4.6-4.74-5.5-5.54-12.4-1.78-15.38 3.75-2.98 11.05-.5 15.38 4.58z"/><ellipse cx="253.555" cy="1514.673" fill="none" stroke="#99440f" stroke-width="2.222" transform="matrix(.783 -.622 .622 .783 -877.939 -635.486)" rx="7.751" ry="11.967"/><path fill="none" stroke="#99440f" stroke-width="2.222" d="M269.8 395.6c-1.6 1.3-4.92.05-7.37-2.78-2.46-2.84-3.14-6.2-1.52-7.5l.2-.14c.53-.33 8.13-6.05 8.43-6.3.36-.26 1.1-1.2 1.47-1.76l8.45 9.5c-.62.28-1.7.94-2.02 1.26-.28.26-7 7-7.4 7.5l-.22.2z"/><path fill="none" stroke="#99440f" stroke-width="2.222" d="M285.07 387.08l1.3-1.1c-2.17 1.64-6.9-.45-10.66-4.73-3.7-4.22-5.13-9.02-3.28-10.9l-1.28 1.3c-1.85 1.88-.45 6.65 3.24 10.84 3.8 4.3 8.6 6.35 10.7 4.58z"/><ellipse cx="270.451" cy="1499.792" fill="none" stroke="#99440f" stroke-width="2.222" transform="matrix(.765 -.644 .644 .765 -893.213 -595.2)" rx="4.981" ry="10.488"/><path fill="url(#s)" d="M267.38 389.34c3.82 4.48 5.48 12.32 1.72 15.3-3.75 2.98-10.6.97-15.32-4.5-4.7-5.47-5.48-12.32-1.72-15.3 3.75-2.98 11.02-.53 15.32 4.5z"/><path fill="url(#t)" d="M268.74 388.12c3.86 4.52 5.55 12.4 1.8 15.4-3.76 2.97-10.65.92-15.4-4.6-4.74-5.5-5.54-12.4-1.78-15.38 3.75-2.98 11.05-.5 15.38 4.58z"/><path fill="url(#u)" d="M268.7 388.1c4.3 5.02 5.08 11.24 1.73 13.9-3.36 2.66-9.57.76-13.87-4.25-4.3-5.02-5.08-11.24-1.73-13.9s9.56-.76 13.87 4.26z"/><path fill="url(#v)" d="M268.55 388.2c2.77 3.23 3.3 7.23 1.16 8.92-2.13 1.7-6.1.45-8.87-2.78-2.77-3.23-3.3-7.23-1.16-8.92 2.13-1.7 6.1-.45 8.88 2.78z"/><path fill="url(#w)" d="M269.8 395.6c-1.6 1.3-4.92.05-7.37-2.78-2.46-2.84-3.14-6.2-1.53-7.5l.2-.14c.53-.33 8.13-6.05 8.43-6.3.36-.26 1.1-1.2 1.46-1.76l8.45 9.5c-.62.28-1.7.94-2.02 1.26-.28.26-7 7-7.4 7.5l-.22.2z"/><path fill="none" d="M269.8 395.6c-1.6 1.3-4.92.05-7.37-2.78-2.46-2.84-3.14-6.2-1.53-7.5l.2-.14c.53-.33 8.13-6.05 8.43-6.3.36-.26 1.1-1.2 1.46-1.76l8.45 9.5c-.62.28-1.7.94-2.02 1.26-.28.26-7 7-7.4 7.5l-.22.2z"/><path fill="url(#x)" d="M279.26 386.7c-1.93-.18-4.13-1.33-5.9-3.24-1.76-1.93-2.66-4.17-2.58-6.02l.22-.32 8.45 9.5-.2.1z"/><path fill="url(#y)" d="M285.07 387.08l1.3-1.1c-2.17 1.64-6.9-.45-10.66-4.73-3.7-4.22-5.13-9.02-3.28-10.9l-1.28 1.3c-1.85 1.88-.45 6.65 3.24 10.84 3.8 4.3 8.6 6.35 10.7 4.58z"/><path fill="url(#z)" d="M283.34 374.84c3.82 4.34 5.22 9.3 3.12 11.07-2.1 1.78-6.92-.3-10.75-4.65-3.8-4.34-5.2-9.3-3.1-11.07 2.1-1.77 6.9.3 10.74 4.66z"/></g></g></svg>