<svg xmlns="http://www.w3.org/2000/svg" width="48" height="48" xmlns:xlink="http://www.w3.org/1999/xlink"><defs><linearGradient id="L" x1="1373.569" x2="1386.847" y1="1593.281" y2="1593.281" xlink:href="#a" gradientUnits="userSpaceOnUse" gradientTransform="matrix(-1 0 0 1 1812.6 0)"/><linearGradient id="K" x1="1382.951" x2="1409.461" y1="1596.607" y2="1596.607" xlink:href="#b" gradientUnits="userSpaceOnUse" gradientTransform="matrix(-1 0 0 1 1812.6 0)"/><linearGradient id="J" x1="1366.53" x2="1380.07" y1="1608.206" y2="1608.206" xlink:href="#c" gradientUnits="userSpaceOnUse" gradientTransform="matrix(-1 0 0 1 1812.6 0)"/><linearGradient id="I" x1="1373.516" x2="1409.461" y1="1597.558" y2="1597.558" xlink:href="#d" gradientUnits="userSpaceOnUse" gradientTransform="matrix(-1 0 0 1 1812.6 0)"/><radialGradient id="y" cx="10.159" cy="19.429" r="12.063" xlink:href="#e" gradientUnits="userSpaceOnUse" gradientTransform="matrix(1 0 0 .142 0 16.668)" fx="10.159" fy="19.429"/><radialGradient id="x" cx="10.159" cy="19.429" r="12.063" xlink:href="#e" gradientUnits="userSpaceOnUse" gradientTransform="matrix(1 0 0 .142 0 16.668)" fx="10.159" fy="19.429"/><linearGradient id="e"><stop offset="0" stop-color="#fff"/><stop offset="1" stop-color="#fff" stop-opacity="0"/></linearGradient><radialGradient id="w" cx="10.159" cy="19.429" r="12.063" xlink:href="#e" gradientUnits="userSpaceOnUse" gradientTransform="matrix(1 0 0 .142 0 16.668)" fx="10.159" fy="19.429"/><linearGradient id="v" x1="6.349" x2="12.193" y1="20.635" y2="21.09" xlink:href="#f" gradientUnits="userSpaceOnUse" gradientTransform="matrix(.809 .464 -.464 .81 29.011 13.683)"/><linearGradient id="u" x1="6.349" x2="15.576" y1="20.635" y2="15.863" xlink:href="#f" gradientUnits="userSpaceOnUse" gradientTransform="matrix(.809 .464 -.464 .81 21.52 .599)"/><linearGradient id="f"><stop offset="0" stop-color="#2e3436"/><stop offset="1" stop-color="#2e3436" stop-opacity="0"/></linearGradient><linearGradient id="t" x1="6.349" x2="16.698" y1="20.635" y2="15.556" xlink:href="#f" gradientUnits="userSpaceOnUse" gradientTransform="matrix(.808 .467 -.466 .808 15.023 -13.308)"/><linearGradient id="s" x1="2.921" x2="10.315" y1="10.567" y2="15.011" xlink:href="#g" gradientUnits="userSpaceOnUse" gradientTransform="matrix(.808 .467 -.466 .808 15.023 -13.308)"/><linearGradient id="r" x1="9.969" x2="22.823" y1="16.345" y2="25.043" xlink:href="#g" gradientUnits="userSpaceOnUse" gradientTransform="matrix(.808 .467 -.466 .808 15.023 -13.308)"/><linearGradient id="g"><stop offset="0" stop-color="#555753"/><stop offset="1" stop-color="#2e3436"/></linearGradient><linearGradient id="q" x1="22.159" x2="34.76" y1="25.678" y2="37.297" xlink:href="#g" gradientUnits="userSpaceOnUse" gradientTransform="matrix(.808 .467 -.466 .808 15.023 -13.308)"/><radialGradient id="h" cx="264.885" cy="1499.855" r="8.559" gradientUnits="userSpaceOnUse" fy="1499.855" fx="264.885" gradientTransform="translate(9.073 -1121.746)"><stop offset=".006" stop-color="#FCDFA8"/><stop offset="1" stop-color="#F3841A"/></radialGradient><radialGradient id="H" cx="264.885" cy="1499.855" r="8.559" xlink:href="#h" gradientUnits="userSpaceOnUse" gradientTransform="translate(9.073 -1121.746)" fx="264.885" fy="1499.855"/><linearGradient id="i" x1="260.883" x2="274.926" y1="1494.385" y2="1509.797" gradientUnits="userSpaceOnUse" gradientTransform="translate(9.073 -1121.746)"><stop offset=".006" stop-color="#F17912"/><stop offset=".292" stop-color="#FAAF3E"/><stop offset=".59" stop-color="#F17912"/><stop offset="1" stop-color="#73340F"/></linearGradient><linearGradient id="G" x1="260.883" x2="274.926" y1="1494.385" y2="1509.797" xlink:href="#i" gradientUnits="userSpaceOnUse" gradientTransform="translate(9.073 -1121.746)"/><linearGradient id="j" x1="264.233" x2="266.049" y1="1505.209" y2="1503.704" gradientUnits="userSpaceOnUse" gradientTransform="translate(9.073 -1121.746)"><stop offset=".006" stop-color="#a82900" stop-opacity="0"/><stop offset="1" stop-color="#8a3e0e"/></linearGradient><linearGradient id="F" x1="264.233" x2="266.049" y1="1505.209" y2="1503.704" xlink:href="#j" gradientUnits="userSpaceOnUse" gradientTransform="translate(9.073 -1121.746)"/><linearGradient id="k" x1="255.886" x2="263.778" y1="1504.661" y2="1513.642" gradientUnits="userSpaceOnUse" gradientTransform="translate(9.073 -1121.746)"><stop offset=".006" stop-color="#F17912"/><stop offset=".022" stop-color="#F27D15"/><stop offset=".098" stop-color="#F78E21"/><stop offset=".157" stop-color="#F99326"/><stop offset=".674" stop-color="#C56417"/><stop offset="1" stop-color="#994511"/></linearGradient><linearGradient id="E" x1="255.886" x2="263.778" y1="1504.661" y2="1513.642" xlink:href="#k" gradientUnits="userSpaceOnUse" gradientTransform="translate(9.073 -1121.746)"/><linearGradient id="l" x1="250.594" x2="260.634" y1="1507.167" y2="1518.866" gradientUnits="userSpaceOnUse" gradientTransform="translate(9.073 -1121.746)"><stop offset=".006" stop-color="#F17912"/><stop offset=".315" stop-color="#FAAF3E"/><stop offset=".59" stop-color="#F17912"/><stop offset="1" stop-color="#6E290A"/></linearGradient><linearGradient id="D" x1="250.594" x2="260.634" y1="1507.167" y2="1518.866" xlink:href="#l" gradientUnits="userSpaceOnUse" gradientTransform="translate(9.073 -1121.746)"/><radialGradient id="m" cx="247.017" cy="1513.643" r="14.582" gradientUnits="userSpaceOnUse" fy="1513.643" fx="247.017" gradientTransform="translate(9.073 -1121.746)"><stop offset=".006" stop-color="#FAAF3E"/><stop offset=".337" stop-color="#FAAF3E"/><stop offset=".652" stop-color="#F17912"/><stop offset="1" stop-color="#73340F"/></radialGradient><radialGradient id="C" cx="247.017" cy="1513.643" r="14.582" xlink:href="#m" gradientUnits="userSpaceOnUse" gradientTransform="translate(9.073 -1121.746)" fx="247.017" fy="1513.643"/><linearGradient id="n" x1="244.283" x2="261.463" y1="1505.286" y2="1525.255" gradientUnits="userSpaceOnUse" gradientTransform="translate(9.073 -1121.746)"><stop offset=".006" stop-color="#F17912"/><stop offset=".292" stop-color="#FAAF3E"/><stop offset=".545" stop-color="#FAAF3E"/><stop offset=".652" stop-color="#F17912"/><stop offset="1" stop-color="#73340F"/></linearGradient><linearGradient id="B" x1="244.283" x2="261.463" y1="1505.286" y2="1525.255" xlink:href="#n" gradientUnits="userSpaceOnUse" gradientTransform="translate(9.073 -1121.746)"/><linearGradient id="o" x1="242.98" x2="260.03" y1="1506.586" y2="1526.39" gradientUnits="userSpaceOnUse" gradientTransform="translate(9.073 -1121.746)"><stop offset=".006" stop-color="#73340F"/><stop offset=".461" stop-color="#F17912"/><stop offset="1" stop-color="#73340F"/></linearGradient><linearGradient id="A" x1="242.98" x2="260.03" y1="1506.586" y2="1526.39" xlink:href="#o" gradientUnits="userSpaceOnUse" gradientTransform="translate(9.073 -1121.746)"/><linearGradient id="p" x1="238.486" x2="240.81" y1="1525.703" y2="1528.29" gradientUnits="userSpaceOnUse"><stop offset=".006" stop-color="#3E444C"/><stop offset=".298" stop-color="#ADBECA"/><stop offset=".477" stop-color="#ADBECA"/><stop offset=".702" stop-color="#828F99"/><stop offset="1" stop-color="#292E33"/></linearGradient><linearGradient id="z" x1="238.486" x2="240.81" y1="1525.703" y2="1528.29" xlink:href="#p" gradientUnits="userSpaceOnUse"/><linearGradient id="d" x1="1373.516" x2="1409.461" y1="1597.558" y2="1597.558" gradientTransform="matrix(-1 0 0 1 1812.6 0)" gradientUnits="userSpaceOnUse"><stop offset=".006" stop-color="#E8EDED"/><stop offset=".354" stop-color="#A1ACB3"/><stop offset="1" stop-color="#575D66"/></linearGradient><linearGradient id="c" x1="1366.53" x2="1380.07" y1="1608.206" y2="1608.206" gradientTransform="matrix(-1 0 0 1 1812.6 0)" gradientUnits="userSpaceOnUse"><stop offset="0" stop-color="#A1ACB3"/><stop offset=".326" stop-color="#D0D6D8"/><stop offset="1" stop-color="#575D66"/></linearGradient><linearGradient id="b" x1="1382.951" x2="1409.461" y1="1596.607" y2="1596.607" gradientTransform="matrix(-1 0 0 1 1812.6 0)" gradientUnits="userSpaceOnUse"><stop offset="0" stop-color="#A1ACB3"/><stop offset=".489" stop-color="#E8EDED"/><stop offset="1" stop-color="#575D66"/></linearGradient><linearGradient id="a" x1="1373.569" x2="1386.847" y1="1593.281" y2="1593.281" gradientTransform="matrix(-1 0 0 1 1812.6 0)" gradientUnits="userSpaceOnUse"><stop offset="0" stop-color="#fff"/><stop offset=".208" stop-color="#D0D6D8"/><stop offset=".393" stop-color="#737B87"/><stop offset="1" stop-color="#D0D6D8"/></linearGradient><linearGradient x1="1373.516" x2="1409.461" y1="1597.558" y2="1597.558" gradientUnits="userSpaceOnUse" gradientTransform="matrix(-1 0 0 1 1812.6 0)"><stop offset=".006" stop-color="#E8EDED"/><stop offset=".354" stop-color="#A1ACB3"/><stop offset="1" stop-color="#575D66"/></linearGradient></defs><g><g><path fill="#d3d7cf" fill-rule="evenodd" stroke="#2e3436" stroke-width="1.491" d="M37.3 32.9c-4.4-3.02-14.2-1.5-21.62-.33-1.75.72-.83 4.83.97 4.55 7.3-1.1 12.63-3.03 17.86-.34 2.57 1.32 4.94-2.4 2.8-3.87z" transform="matrix(.434 .319 .346 -.392 -3.572 22.863)"/><path fill="none" stroke="#fff" stroke-width=".745" d="M36.47 33.58c-4.23-2.45-12.9-1.36-19.4-.7-1.53.42-1.9 3.43-.34 3.18 6.4-1.02 12.4-3.16 18.37-.04 1.46.77 2.87-1.57 1.37-2.44z" transform="matrix(.434 .319 .346 -.392 -3.572 22.863)"/><path fill="#d3d7cf" fill-rule="evenodd" stroke="url(#q)" stroke-width="1.491" d="M28.82 23.15c.98 2.33-10.7 7.62-13.58 9.67-1.92 1.37-.46 5.35 2.08 4.24 3.57-1.56 14.36-7.1 16.76-12.88.52-1.24-.56-4.24-2.1-5.13-2.94-1.7-12.44-1.1-21.45-.2-1.75.72-.73 4.24.62 4.42 5.64.76 16.87-2.03 17.67-.12z" color="#000" overflow="visible" transform="matrix(.434 .319 .346 -.392 -3.572 22.863)"/><path fill="none" stroke="#fff" stroke-width=".745" d="M29.68 22.75c1.47 3.26-10.95 9.43-13.73 10.78-1.28.62-.32 3.78 1.9 2.8C21 34.97 30.7 28.7 33.2 23.98c.55-1.04-.66-3.5-2-4.3-2.6-1.47-10.92-.94-18.83-.17-1.54.64-1.72 2.8-.53 2.94 5.28.54 16.67-2.35 17.86.3z" color="#000" overflow="visible" transform="matrix(.434 .319 .346 -.392 -3.572 22.863)"/><path fill="#d3d7cf" fill-rule="evenodd" stroke="url(#r)" stroke-width="1.491" d="M29.66 10.65c-4.16 5.5-14.85 10.72-17.54 12.5-1.75 1.16-3.53-2.23-2.64-3.38 2.47-3.22 15.07-9.08 14.44-10.57-.62-1.46-12.03 1.1-18.07.02C4.5 8.98 3.7 5.72 5.45 5c9.32-.07 14.5-1.27 21.83.14 2.34.45 3.8 3.6 2.38 5.5z" color="#000" overflow="visible" transform="matrix(.434 .319 .346 -.392 -3.572 22.863)"/><path fill="none" stroke="#fff" stroke-width=".745" d="M28.77 10.2c-3.63 4.88-14.88 10.33-17.02 12-.77.6-1.85-1.42-1.48-1.9 2.12-2.68 15.6-8.9 14.62-11.45-1-2.62-12.93.43-17.8-.56-1.13-.23-2.2-2.1-.7-2.7 7.83-.04 14.23-.8 20.4.37 1.98.38 3.16 2.6 1.97 4.22z" color="#000" overflow="visible" transform="matrix(.434 .319 .346 -.392 -3.572 22.863)"/><path fill="#d3d7cf" fill-rule="evenodd" stroke="url(#s)" stroke-width="1.491" d="M22.05-8.7c1.1.6 2.78 2.8 1.96 4.58C21.3 1.82 11.3 5.1 7 9.36 5.2 9.86 3.94 7 4.6 5.83 7.26 1.1 20.15-3.97 19.1-5.5c-1.34-1.97 1.18-4.15 2.93-3.2z" transform="matrix(.434 .319 .346 -.392 -3.572 22.863)"/><path fill="url(#t)" fill-rule="evenodd" d="M7.16 9.76l3.88-3.33L15.1 4.1l8.8.24-3.06 4.73c-4.3.4-8.05 1.2-13.68.7z" transform="matrix(.434 .319 .346 -.392 -3.572 22.863)"/><path fill="url(#u)" fill-rule="evenodd" d="M11.88 23.74L22.1 17.5l6.75.24-2.56 5.13c-4.8.37-9.62 1-14.42.87z" transform="matrix(.434 .319 .346 -.392 -3.572 22.863)"/><path fill="url(#v)" fill-rule="evenodd" d="M19.43 36.25l7.97-4.85 6.06.03-2.4 4.03-11.63.8z" transform="matrix(.434 .319 .346 -.392 -3.572 22.863)"/><path fill="url(#w)" fill-rule="evenodd" d="M22.22 19.43a12.06 1.7 0 1 1-24.12 0 12.06 1.7 0 1 1 24.12 0z" transform="matrix(.149 .405 .356 -.212 -5.679 27.065)" color="#000" overflow="visible"/><path fill="url(#x)" fill-rule="evenodd" d="M22.22 19.43a12.06 1.7 0 1 1-24.12 0 12.06 1.7 0 1 1 24.12 0z" transform="matrix(.175 .504 .446 -.254 -.244 22.818)" color="#000" overflow="visible"/><path fill="url(#y)" fill-rule="evenodd" d="M22.22 19.43a12.06 1.7 0 1 1-24.12 0 12.06 1.7 0 1 1 24.12 0z" transform="matrix(.158 .46 .408 -.231 7.743 18.342)" color="#000" overflow="visible"/><path fill="none" stroke="#fff" stroke-width=".745" d="M21.76-7.8c.78.44 1.9 2.2 1.3 3.48C20.77.6 9.72 5.18 6.67 8.2c-1.3.38-1.67-1.13-1.2-1.96 1.9-3.36 15.57-10.4 14.8-11.46-1.3-1.73.25-3.24 1.5-2.57z" transform="matrix(.434 .319 .346 -.392 -3.572 22.863)"/></g><g transform="matrix(.34 -.101 .101 .34 -99.754 -95.161)"><path fill="none" stroke="#3e444c" stroke-width="2.818" d="M255.28 401.7l-9.12 7.4-2.8 1.04 1.37-2.8 8.22-8.23"/><path fill="url(#z)" d="M246.2 1523.44l-9.1 7.4-2.8 1.04 1.36-2.8 8.22-8.22" transform="translate(9.073 -1121.746)"/><path fill="none" stroke="#99440f" stroke-width="2.818" d="M267.38 389.34c3.82 4.48 5.48 12.32 1.72 15.3-3.75 2.98-10.6.97-15.32-4.5-4.7-5.47-5.48-12.32-1.72-15.3 3.75-2.98 11.02-.53 15.32 4.5z"/><path fill="none" stroke="#99440f" stroke-width="2.818" d="M268.74 388.12c3.86 4.52 5.55 12.4 1.8 15.4-3.76 2.97-10.65.92-15.4-4.6-4.74-5.5-5.54-12.4-1.78-15.38 3.75-2.98 11.05-.5 15.38 4.58z"/><ellipse cx="253.555" cy="1514.673" fill="none" stroke="#99440f" stroke-width="2.818" transform="matrix(.783 -.622 .622 .783 -877.939 -635.486)" rx="7.751" ry="11.967"/><path fill="none" stroke="#99440f" stroke-width="2.818" d="M269.8 395.6c-1.6 1.3-4.92.05-7.37-2.78-2.46-2.84-3.14-6.2-1.52-7.5l.2-.14c.53-.33 8.13-6.05 8.43-6.3.36-.26 1.1-1.2 1.47-1.76l8.45 9.5c-.62.28-1.7.94-2.02 1.26-.28.26-7 7-7.4 7.5l-.22.2z"/><path fill="none" stroke="#99440f" stroke-width="2.818" d="M285.07 387.08l1.3-1.1c-2.17 1.64-6.9-.45-10.66-4.73-3.7-4.22-5.13-9.02-3.28-10.9l-1.28 1.3c-1.85 1.88-.45 6.65 3.24 10.84 3.8 4.3 8.6 6.35 10.7 4.58z"/><ellipse cx="270.451" cy="1499.792" fill="none" stroke="#99440f" stroke-width="2.818" transform="matrix(.765 -.644 .644 .765 -893.213 -595.2)" rx="4.981" ry="10.488"/><path fill="url(#A)" d="M267.38 389.34c3.82 4.48 5.48 12.32 1.72 15.3-3.75 2.98-10.6.97-15.32-4.5-4.7-5.47-5.48-12.32-1.72-15.3 3.75-2.98 11.02-.53 15.32 4.5z"/><path fill="url(#B)" d="M268.74 388.12c3.86 4.52 5.55 12.4 1.8 15.4-3.76 2.97-10.65.92-15.4-4.6-4.74-5.5-5.54-12.4-1.78-15.38 3.75-2.98 11.05-.5 15.38 4.58z"/><path fill="url(#C)" d="M268.7 388.1c4.3 5.02 5.08 11.24 1.73 13.9-3.36 2.66-9.57.76-13.87-4.25-4.3-5.02-5.08-11.24-1.73-13.9s9.56-.76 13.87 4.26z"/><path fill="url(#D)" d="M268.55 388.2c2.77 3.23 3.3 7.23 1.16 8.92-2.13 1.7-6.1.45-8.87-2.78-2.77-3.23-3.3-7.23-1.16-8.92 2.13-1.7 6.1-.45 8.88 2.78z"/><path fill="url(#E)" d="M269.8 395.6c-1.6 1.3-4.92.05-7.37-2.78-2.46-2.84-3.14-6.2-1.53-7.5l.2-.14c.53-.33 8.13-6.05 8.43-6.3.36-.26 1.1-1.2 1.46-1.76l8.45 9.5c-.62.28-1.7.94-2.02 1.26-.28.26-7 7-7.4 7.5l-.22.2z"/><path fill="none" d="M269.8 395.6c-1.6 1.3-4.92.05-7.37-2.78-2.46-2.84-3.14-6.2-1.53-7.5l.2-.14c.53-.33 8.13-6.05 8.43-6.3.36-.26 1.1-1.2 1.46-1.76l8.45 9.5c-.62.28-1.7.94-2.02 1.26-.28.26-7 7-7.4 7.5l-.22.2z"/><path fill="url(#F)" d="M279.26 386.7c-1.93-.18-4.13-1.33-5.9-3.24-1.76-1.93-2.66-4.17-2.58-6.02l.22-.32 8.45 9.5-.2.1z"/><path fill="url(#G)" d="M285.07 387.08l1.3-1.1c-2.17 1.64-6.9-.45-10.66-4.73-3.7-4.22-5.13-9.02-3.28-10.9l-1.28 1.3c-1.85 1.88-.45 6.65 3.24 10.84 3.8 4.3 8.6 6.35 10.7 4.58z"/><path fill="url(#H)" d="M283.34 374.84c3.82 4.34 5.22 9.3 3.12 11.07-2.1 1.78-6.92-.3-10.75-4.65-3.8-4.34-5.2-9.3-3.1-11.07 2.1-1.77 6.9.3 10.74 4.66z"/></g><g><g><path fill="#737b87" d="M22.64 27c-1.22.9-1.53 2.08-1.53 3.1 0 .62.13 1.17.24 1.52.86 2.92 3.98 6.12 9.24 9.5-.1.02-.2.04-.3.05-7.2.34-13.76-4.74-16.25-6.94-2.85-2.5-6.08-3.6-10.17-3.38-.56.03-.98.34-.93.7.04.36.53.62 1.1.6 3.4-.18 5.9.67 8.35 2.85 3.35 2.95 10.14 7.85 18.06 7.46.65-.03 1.3-.12 1.94-.25 2.42 1.4 5.05 2.63 7.6 3.5 2.53.86 6.12 1.87 7.87.64.38-.27.35-.68-.06-.92-.43-.24-1.07-.22-1.45.04-.1.07-1.02.58-5.42-.92-2.13-.72-4.4-1.74-6.5-2.9 1.34-.5 2.58-1.2 3.62-2.1 1.73-1.47 2.68-3.27 2.68-4.93 0-.44-.07-.87-.2-1.3-1.2-3.52-7.9-7.17-13.56-7.36-1.8-.06-3.3.3-4.33 1.06zM32.8 40.7c-.2-.13-.43-.26-.63-.38-5.06-3.24-8.04-6.25-8.83-8.94-.13-.44-.2-.87-.2-1.27 0-.94.36-1.76 1.03-2.25.62-.45 1.5-.65 2.7-.6 4.77.15 10.66 3.36 11.66 6.34.12.32.17.67.17 1.03 0 1.38-.8 2.9-2.28 4.15-1.03.87-2.28 1.5-3.6 1.9z"/></g><path fill="none" stroke="#41464c" stroke-width=".616" d="M28.47 27.02c-.14-.13-.26-.26-.4-.4-3.75-3.75-7.94-8.88-8.96-14.28-.67-3.6.2-7.8 4.52-7.56 5.14.27 11.32 5.55 12.4 10.57" stroke-linecap="round" transform="matrix(1.016 0 0 .649 2.842 24.59)"/><path fill="none" stroke="#4c5259" stroke-width=".492" d="M43.48 34.54c-1.37 1.5-5.24-.52-6.55-1.2-2.55-1.37-5.1-3.25-7.32-5.25" stroke-linecap="round" transform="matrix(1.016 0 0 .649 2.842 24.59)"/><path fill="none" stroke="#cfdade" stroke-width=".616" d="M43.48 34.03c-1.37 1.5-5.24-.5-6.55-1.2-3.16-1.7-6.33-4.17-8.85-6.7-3.76-3.76-7.95-8.9-8.97-14.3-.67-3.58.2-7.78 4.5-7.55 5.15.27 11.34 5.55 12.43 10.57 1.17 5.42-3.28 12.46-9.02 12.9-6.85.5-13.2-6-16.88-11.1C7.78 13.4 5.07 11.5 1 11.84" stroke-linecap="round" transform="matrix(1.016 0 0 .649 2.842 24.59)"/><g transform="matrix(1.016 0 0 .649 -405.984 -999.058)"><linearGradient x1="1373.516" x2="1409.461" y1="1597.558" y2="1597.558" gradientUnits="userSpaceOnUse" gradientTransform="matrix(-1 0 0 1 1812.6 0)"><stop offset=".006" stop-color="#E8EDED"/><stop offset=".354" stop-color="#A1ACB3"/><stop offset="1" stop-color="#575D66"/></linearGradient><path fill="url(#I)" d="M412.7 1594.27c2.54 3.5 9.22 11.55 16.68 11 2.42-.2 4.82-1.65 6.57-4 1.95-2.6 3.06-5.9 2.48-8.6-.03-.13.06-.27.2-.3.13-.02.26.06.3.2.6 2.83-.54 6.28-2.57 9-1.85 2.47-4.38 4-6.94 4.2-7.72.57-14.54-7.65-17.1-11.2-2.57-3.55-5.32-5-8.9-4.7-.15 0-.27-.1-.28-.24 0-.13.1-.26.23-.27 3.8-.3 6.67 1.2 9.34 4.9z"/></g><g transform="matrix(1.016 0 0 .649 -405.984 -999.058)"><linearGradient x1="1366.53" x2="1380.07" y1="1608.206" y2="1608.206" gradientUnits="userSpaceOnUse" gradientTransform="matrix(-1 0 0 1 1812.6 0)"><stop offset="0" stop-color="#A1ACB3"/><stop offset=".326" stop-color="#D0D6D8"/><stop offset="1" stop-color="#575D66"/></linearGradient><path fill="url(#J)" d="M432.95 1604.92c2.1 1.78 4.38 3.38 6.47 4.5 4.14 2.2 5.7 1.9 6.3 1.25.07-.1.2-.1.28-.02.08.08.1.2.02.3-1.14 1.2-3.3.7-6.8-1.18-2.1-1.13-4.5-2.84-6.62-4.64-.08-.07-.1-.2-.02-.3.07-.07.28.02.37.1z"/></g><g transform="matrix(1.016 0 0 .649 -405.984 -999.058)"><linearGradient x1="1382.951" x2="1409.461" y1="1596.607" y2="1596.607" gradientUnits="userSpaceOnUse" gradientTransform="matrix(-1 0 0 1 1812.6 0)"><stop offset="0" stop-color="#A1ACB3"/><stop offset=".489" stop-color="#E8EDED"/><stop offset="1" stop-color="#575D66"/></linearGradient><path fill="url(#K)" d="M412.7 1593.37c2.54 3.5 9.22 11.55 16.68 11 .14-.02.26.08.27.22 0 .13-.1.15-.23.16-7.72.58-14.54-7.64-17.1-11.2-2.57-3.54-5.32-5-8.9-4.7-.15 0-.27 0-.28-.13 0-.14.1-.26.23-.27 3.8-.3 6.67 1.2 9.34 4.9z"/></g><path fill="#4c5259" d="M33.5 42.5s-.77.2-.98.27l.32.18.96-.28-.3-.18z"/><g transform="matrix(1.016 0 0 .649 -405.984 -999.058)"><linearGradient x1="1373.569" x2="1386.847" y1="1593.281" y2="1593.281" gradientUnits="userSpaceOnUse" gradientTransform="matrix(-1 0 0 1 1812.6 0)"><stop offset="0" stop-color="#fff"/><stop offset=".208" stop-color="#D0D6D8"/><stop offset=".393" stop-color="#737B87"/><stop offset="1" stop-color="#D0D6D8"/></linearGradient><path fill="url(#L)" d="M426.02 1581.3c5.27.28 11.73 5.6 12.84 10.77.6 2.83-.47 6.28-2.5 9-1.85 2.47-4.38 4-6.94 4.2-.14 0-.26-.1-.27-.24 0-.14.1-.26.23-.27 2.42-.18 4.82-1.63 6.57-4 1.95-2.6 2.8-5.9 2.22-8.6-1.05-4.86-7.2-10.1-12.18-10.36-.15 0-.25-.13-.25-.26 0-.14.13-.25.27-.24z"/></g></g></g></svg>