<svg xmlns="http://www.w3.org/2000/svg" width="48" height="48" xmlns:xlink="http://www.w3.org/1999/xlink"><defs><linearGradient id="a"><stop offset="0" stop-color="#f3f4ff"/><stop offset="1" stop-color="#9193af"/></linearGradient><radialGradient id="r" cx="11.329" cy="10.584" r="15.532" xlink:href="#a" gradientUnits="userSpaceOnUse" fx="11.329" fy="10.584"/><linearGradient id="b"><stop offset="0" stop-color="#a0a0a0"/><stop offset="1" stop-color="#fff"/></linearGradient><linearGradient id="q" x1="6.342" x2="22.218" y1="7.789" y2="25.884" xlink:href="#b" gradientUnits="userSpaceOnUse"/><linearGradient id="c"><stop offset="0" stop-color="#fffffd"/><stop offset="1" stop-color="#cbcbc9"/></linearGradient><radialGradient id="p" cx="11.902" cy="10.045" r="29.293" xlink:href="#c" gradientUnits="userSpaceOnUse" fx="11.902" fy="10.045"/><linearGradient id="d"><stop offset="0" stop-color="#9497b3"/><stop offset="1" stop-color="#4c4059"/></linearGradient><radialGradient id="o" cx="8.747" cy="6.828" r="29.89" xlink:href="#d" gradientUnits="userSpaceOnUse" fx="8.747" fy="6.828"/><linearGradient id="e"><stop offset="0" stop-color="#9aa29a"/><stop offset="1" stop-color="#b5beb5"/></linearGradient><linearGradient id="n" x1="8.916" x2="9.886" y1="37.197" y2="52.091" xlink:href="#e" gradientUnits="userSpaceOnUse" gradientTransform="matrix(1.9 0 0 .59 .473 -12.025)"/><linearGradient id="f" x1="1373.516" x2="1409.461" y1="1597.558" y2="1597.558" gradientTransform="matrix(-1 0 0 1 1812.6 0)" gradientUnits="userSpaceOnUse"><stop offset=".006" stop-color="#E8EDED"/><stop offset=".354" stop-color="#A1ACB3"/><stop offset="1" stop-color="#575D66"/></linearGradient><linearGradient id="g" x1="1366.53" x2="1380.07" y1="1608.206" y2="1608.206" gradientTransform="matrix(-1 0 0 1 1812.6 0)" gradientUnits="userSpaceOnUse"><stop offset="0" stop-color="#A1ACB3"/><stop offset=".326" stop-color="#D0D6D8"/><stop offset="1" stop-color="#575D66"/></linearGradient><linearGradient id="h" x1="1382.951" x2="1409.461" y1="1596.607" y2="1596.607" gradientTransform="matrix(-1 0 0 1 1812.6 0)" gradientUnits="userSpaceOnUse"><stop offset="0" stop-color="#A1ACB3"/><stop offset=".489" stop-color="#E8EDED"/><stop offset="1" stop-color="#575D66"/></linearGradient><linearGradient id="i" x1="1373.569" x2="1386.847" y1="1593.281" y2="1593.281" gradientTransform="matrix(-1 0 0 1 1812.6 0)" gradientUnits="userSpaceOnUse"><stop offset="0" stop-color="#fff"/><stop offset=".208" stop-color="#D0D6D8"/><stop offset=".393" stop-color="#737B87"/><stop offset="1" stop-color="#D0D6D8"/></linearGradient><linearGradient id="j" x1="1373.516" x2="1409.461" y1="1597.558" y2="1597.558" xlink:href="#f" gradientUnits="userSpaceOnUse" gradientTransform="matrix(-1 0 0 1 1812.6 0)"/><linearGradient id="k" x1="1366.53" x2="1380.07" y1="1608.206" y2="1608.206" xlink:href="#g" gradientUnits="userSpaceOnUse" gradientTransform="matrix(-1 0 0 1 1812.6 0)"/><linearGradient id="l" x1="1382.951" x2="1409.461" y1="1596.607" y2="1596.607" xlink:href="#h" gradientUnits="userSpaceOnUse" gradientTransform="matrix(-1 0 0 1 1812.6 0)"/><linearGradient id="m" x1="1373.569" x2="1386.847" y1="1593.281" y2="1593.281" xlink:href="#i" gradientUnits="userSpaceOnUse" gradientTransform="matrix(-1 0 0 1 1812.6 0)"/></defs><g><g><g><path fill="#737b87" d="M26.87 45.74c1.3-1.48 1.62-3.46 1.62-5.12 0-1.04-.14-1.96-.25-2.54-.9-4.83-4.2-10.13-9.78-15.73.1-.02.2-.06.32-.07 7.6-.57 14.54 7.83 17.17 11.48 3 4.16 6.43 5.94 10.75 5.6.6-.05 1.04-.57 1-1.16-.06-.6-.57-1.04-1.17-1-3.6.3-6.24-1.1-8.83-4.7-3.54-4.9-10.72-13-19.1-12.36-.7.05-1.37.2-2.04.4-2.56-2.3-5.34-4.3-8.03-5.74-2.7-1.44-6.48-3.1-8.33-1.08-.4.44-.37 1.12.07 1.52.43.4 1.1.37 1.5-.06.1-.1 1.08-.96 5.74 1.52 2.25 1.2 4.65 2.9 6.88 4.8-1.43.83-2.74 2-3.83 3.46-1.84 2.45-2.85 5.42-2.85 8.17 0 .74.07 1.46.22 2.15 1.26 5.84 8.35 11.88 14.32 12.2 1.9.1 3.48-.5 4.57-1.74zM16.12 23.07c.22.2.46.4.68.62 5.35 5.35 8.5 10.33 9.34 14.78.13.72.2 1.43.2 2.1 0 1.58-.38 2.93-1.1 3.74-.64.75-1.57 1.08-2.83 1-5.04-.26-11.27-5.56-12.33-10.5-.12-.54-.18-1.12-.18-1.7 0-2.3.86-4.8 2.4-6.88 1.1-1.45 2.42-2.5 3.82-3.17z"/></g><path fill="none" stroke="#41464c" stroke-width=".49862000000000006" d="M17.2 22.2c.14.14.28.28.4.4 4.05 4.06 8.56 9.57 9.65 15.36.73 3.86-.2 8.37-4.84 8.12-5.5-.3-12.16-5.96-13.32-11.35" stroke-linecap="round"/><path fill="none" stroke="#4c5259" stroke-width=".39804" d="M1.08 14.13c1.47-1.6 5.63.55 7.03 1.3 2.75 1.46 5.5 3.47 7.87 5.62" stroke-linecap="round"/><path fill="none" stroke="#cfdade" stroke-width=".49862000000000006" d="M1.08 14.67c1.47-1.62 5.63.55 7.03 1.3 3.4 1.8 6.8 4.47 9.5 7.18 4.05 4.04 8.56 9.56 9.65 15.35.73 3.85-.2 8.37-4.84 8.12-5.5-.3-12.16-5.96-13.32-11.35-1.26-5.83 3.5-13.38 9.68-13.84 7.37-.56 14.18 6.44 18.14 11.9 2.5 3.5 5.42 5.52 9.8 5.17" stroke-linecap="round"/><g transform="matrix(-1.074 0 0 -1.074 479.933 1745.202)"><linearGradient x1="1373.516" x2="1409.461" y1="1597.558" y2="1597.558" gradientUnits="userSpaceOnUse" gradientTransform="matrix(-1 0 0 1 1812.6 0)"><stop offset=".006" stop-color="#E8EDED"/><stop offset=".354" stop-color="#A1ACB3"/><stop offset="1" stop-color="#575D66"/></linearGradient><path fill="url(#j)" d="M412.7 1594.27c2.54 3.5 9.22 11.55 16.68 11 2.42-.2 4.82-1.65 6.57-4 1.95-2.6 3.06-5.9 2.48-8.6-.03-.13.06-.27.2-.3.13-.02.26.06.3.2.6 2.83-.54 6.28-2.57 9-1.85 2.47-4.38 4-6.94 4.2-7.72.57-14.54-7.65-17.1-11.2-2.57-3.55-5.32-5-8.9-4.7-.15 0-.27-.1-.28-.24 0-.13.1-.26.23-.27 3.8-.3 6.67 1.2 9.34 4.9z"/></g><g transform="matrix(-1.074 0 0 -1.074 479.933 1745.202)"><linearGradient x1="1366.53" x2="1380.07" y1="1608.206" y2="1608.206" gradientUnits="userSpaceOnUse" gradientTransform="matrix(-1 0 0 1 1812.6 0)"><stop offset="0" stop-color="#A1ACB3"/><stop offset=".326" stop-color="#D0D6D8"/><stop offset="1" stop-color="#575D66"/></linearGradient><path fill="url(#k)" d="M432.95 1604.92c2.1 1.78 4.38 3.38 6.47 4.5 4.14 2.2 5.7 1.9 6.3 1.25.07-.1.2-.1.28-.02.08.08.1.2.02.3-1.14 1.2-3.3.7-6.8-1.18-2.1-1.13-4.5-2.84-6.62-4.64-.08-.07-.1-.2-.02-.3.07-.07.28.02.37.1z"/></g><g transform="matrix(-1.074 0 0 -1.074 479.933 1745.202)"><linearGradient x1="1382.951" x2="1409.461" y1="1596.607" y2="1596.607" gradientUnits="userSpaceOnUse" gradientTransform="matrix(-1 0 0 1 1812.6 0)"><stop offset="0" stop-color="#A1ACB3"/><stop offset=".489" stop-color="#E8EDED"/><stop offset="1" stop-color="#575D66"/></linearGradient><path fill="url(#l)" d="M412.7 1593.37c2.54 3.5 9.22 11.55 16.68 11 .14-.02.26.08.27.22 0 .13-.1.15-.23.16-7.72.58-14.54-7.64-17.1-11.2-2.57-3.54-5.32-5-8.9-4.7-.15 0-.27 0-.28-.13 0-.14.1-.26.23-.27 3.8-.3 6.67 1.2 9.34 4.9z"/></g><path fill="#4c5259" d="M15.35 21.6s.82-.37 1.05-.46l-.34-.3-1 .46.3.3z"/><g transform="matrix(-1.074 0 0 -1.074 479.933 1745.202)"><linearGradient x1="1373.569" x2="1386.847" y1="1593.281" y2="1593.281" gradientUnits="userSpaceOnUse" gradientTransform="matrix(-1 0 0 1 1812.6 0)"><stop offset="0" stop-color="#fff"/><stop offset=".208" stop-color="#D0D6D8"/><stop offset=".393" stop-color="#737B87"/><stop offset="1" stop-color="#D0D6D8"/></linearGradient><path fill="url(#m)" d="M426.02 1581.3c5.27.28 11.73 5.6 12.84 10.77.6 2.83-.47 6.28-2.5 9-1.85 2.47-4.38 4-6.94 4.2-.14 0-.26-.1-.27-.24 0-.14.1-.26.23-.27 2.42-.18 4.82-1.63 6.57-4 1.95-2.6 2.8-5.9 2.22-8.6-1.05-4.86-7.2-10.1-12.18-10.36-.15 0-.25-.13-.25-.26 0-.14.13-.25.27-.24z"/></g></g><path fill="url(#n)" fill-rule="evenodd" d="M31.17.75L22.44 10.9l.76.75L31.17.75z" color="#000" overflow="visible"/><path fill="#fefefe" fill-rule="evenodd" d="M31.1.7l-7.8 10.8 1.12.97L31.1.7z"/><path fill="url(#o)" fill-rule="evenodd" stroke="#605773" stroke-width="1.149" d="M31.16 16.9a14.9 14.9 0 1 1-29.82 0 14.9 14.9 0 1 1 29.82 0z" transform="matrix(.871 0 0 .871 20.215 -1.114)" stroke-linecap="round" stroke-linejoin="round"/><path fill="url(#p)" fill-rule="evenodd" stroke="url(#q)" stroke-width="1.17" d="M31.16 16.9a14.9 14.9 0 1 1-29.82 0 14.9 14.9 0 1 1 29.82 0z" transform="matrix(.708 0 0 .708 22.803 1.581)" stroke-linecap="round" stroke-linejoin="round"/><path fill="#b6b9b1" fill-rule="evenodd" d="M35.28 5.2a1.03 1.03 0 1 1-2.07 0 1.03 1.03 0 1 1 2.08 0z"/><path fill="#b6b9b1" fill-rule="evenodd" d="M35.28 21.76a1.03 1.03 0 1 1-2.07 0 1.03 1.03 0 1 1 2.08 0z"/><path fill="#b6b9b1" fill-rule="evenodd" d="M27 13.5a1.03 1.03 0 1 1-2.07 0 1.03 1.03 0 1 1 2.07 0z"/><path fill="#b6b9b1" fill-rule="evenodd" d="M43.55 13.5a1.03 1.03 0 1 1-2.07 0 1.03 1.03 0 1 1 2.07 0z"/><path fill="none" stroke="url(#r)" stroke-width="1.211" d="M31.16 16.9a14.9 14.9 0 1 1-29.82 0 14.9 14.9 0 1 1 29.82 0z" transform="matrix(.826 0 0 .826 20.945 -.408)" stroke-linecap="round" stroke-linejoin="round"/><path fill-rule="evenodd" stroke="#fff" d="M33.4 14c.18.58.8.9 1.42.76.62-.15 1.04-.72.97-1.32l.02-8.75c0-.66-.54-1.16-1.22-1.14-.68.02-1.23.57-1.24 1.22l-.03 8.75c0 .16 0 .32.07.47z" stroke-linecap="round"/><path fill-rule="evenodd" stroke="#fff" d="M35.9 13.76l.02-4.7c-.02-1.22-.34-1.9-1.33-1.9-1-.02-1.16.85-1.2 1.7l-.05 4.7c0 .7.23 1.72 1.17 1.7.94 0 1.2-.62 1.38-1.5z" stroke-linecap="round"/><path fill="#f3f3f3" fill-rule="evenodd" stroke="#000" stroke-width=".9991800000000001" d="M36.1 13.7a1.54 1.54 0 1 1-3.06 0 1.54 1.54 0 1 1 3.07 0z" stroke-linecap="round" stroke-linejoin="round"/></g></svg>