<svg xmlns="http://www.w3.org/2000/svg" width="16" height="16" xmlns:xlink="http://www.w3.org/1999/xlink" version="1"><defs><linearGradient id="f"><stop offset="0" stop-color="#fff"/><stop offset="1" stop-color="#fff" stop-opacity="0"/></linearGradient><linearGradient id="h"><stop offset="0" stop-color="#729fcf"/><stop offset="1" stop-color="#2b5582"/></linearGradient><linearGradient id="j"><stop offset="0" stop-color="#729fcf"/><stop offset="1" stop-color="#3c74b1"/></linearGradient><linearGradient id="g"><stop offset="0" stop-color="#f2f2f2"/><stop offset="1" stop-color="#c3c3c3"/></linearGradient><linearGradient id="i"><stop offset="0" stop-color="#aeaeae"/><stop offset="1" stop-color="#c4c4c4" stop-opacity="0"/></linearGradient><linearGradient id="e"><stop offset="0" stop-color="#fff"/><stop offset="1" stop-color="#fff" stop-opacity="0"/></linearGradient><linearGradient id="d"><stop offset="0"/><stop offset="1" stop-opacity="0"/></linearGradient><linearGradient id="c"><stop offset="0" stop-color="#696969"/><stop offset="1"/></linearGradient><linearGradient id="b"><stop offset="0" stop-color="#6e3d09"/><stop offset=".242" stop-color="#ea8113"/><stop offset=".621" stop-color="#5c3307"/><stop offset="1" stop-color="#e07c12"/></linearGradient><linearGradient id="a"><stop offset="0" stop-color="#bdbdbd"/><stop offset=".333" stop-color="#e2e2e2"/><stop offset=".667" stop-color="#a3a3a3"/><stop offset="1" stop-color="#ddd"/></linearGradient><linearGradient x1="19.395" x2="23.109" y1="30.001" y2="33.439" xlink:href="#a" gradientUnits="userSpaceOnUse" gradientTransform="translate(-3.907 -1.803)"/><linearGradient x1="28.059" x2="33.437" y1="18.868" y2="23.743" xlink:href="#b" gradientUnits="userSpaceOnUse" gradientTransform="translate(-3.907 -1.803)"/><radialGradient cx="15.415" cy="35.357" r="7.579" xlink:href="#c" fx="15.415" fy="35.357" gradientTransform="matrix(.995 0 0 .969 -4.583 .166)" gradientUnits="userSpaceOnUse"/><radialGradient cx="26.782" cy="42.343" r="14.407" xlink:href="#d" fx="26.782" fy="42.343" gradientTransform="matrix(1 0 0 .282 0 30.394)" gradientUnits="userSpaceOnUse"/><linearGradient x1="13.236" x2="7.752" y1="37.752" y2="42.282" xlink:href="#e" gradientUnits="userSpaceOnUse" gradientTransform="matrix(.852 0 0 .852 -1.675 3.754)"/><radialGradient cx="26.782" cy="42.343" r="14.407" xlink:href="#d" gradientUnits="userSpaceOnUse" gradientTransform="matrix(1 0 0 .282 0 30.394)" fx="26.782" fy="42.343"/><linearGradient x1="48.25" x2="48.25" y1="54.75" y2="71.25" xlink:href="#f" gradientUnits="userSpaceOnUse" gradientTransform="matrix(.719 0 0 .719 -1.897 -20.686)"/><linearGradient x1="60.169" x2="60.441" y1="40.12" y2="43.87" xlink:href="#g" gradientUnits="userSpaceOnUse" gradientTransform="matrix(.737 0 0 .771 -8.532 7.122)"/><linearGradient x1="49.853" x2="62.768" y1="64.26" y2="64.26" xlink:href="#h" gradientUnits="userSpaceOnUse" gradientTransform="matrix(.719 0 0 .719 -1.897 -22.425)"/><linearGradient x1="61.872" x2="61.872" y1="29.615" y2="41.459" xlink:href="#i" gradientUnits="userSpaceOnUse" gradientTransform="matrix(.889 0 0 .719 -18.298 9.472)"/><linearGradient x1="53.169" x2="69.691" y1="24.245" y2="24.245" xlink:href="#g" gradientUnits="userSpaceOnUse" gradientTransform="matrix(.719 0 0 .719 -7.696 9.472)"/><linearGradient x1="52.718" x2="67.466" y1="2.316" y2="2.316" xlink:href="#j" gradientUnits="userSpaceOnUse" gradientTransform="matrix(.862 0 0 .581 -16.257 11.013)"/><radialGradient cx="26.782" cy="42.343" r="14.407" xlink:href="#d" gradientUnits="userSpaceOnUse" gradientTransform="matrix(1 0 0 .282 0 30.394)" fx="26.782" fy="42.343"/><linearGradient x1="28.059" x2="33.437" y1="18.868" y2="23.743" xlink:href="#b" gradientUnits="userSpaceOnUse" gradientTransform="translate(-3.907 -1.803)"/><linearGradient x1="19.395" x2="23.109" y1="30.001" y2="33.439" xlink:href="#a" gradientUnits="userSpaceOnUse" gradientTransform="translate(-3.907 -1.803)"/><radialGradient cx="26.782" cy="42.343" r="14.407" xlink:href="#d" gradientUnits="userSpaceOnUse" gradientTransform="matrix(1 0 0 .282 0 30.394)" fx="26.782" fy="42.343"/><radialGradient cx="15.415" cy="35.357" r="7.579" xlink:href="#c" gradientUnits="userSpaceOnUse" gradientTransform="matrix(.995 0 0 .969 -4.583 .166)" fx="15.415" fy="35.357"/><linearGradient x1="13.236" x2="7.752" y1="37.752" y2="42.282" xlink:href="#e" gradientUnits="userSpaceOnUse" gradientTransform="matrix(.852 0 0 .852 -1.675 3.754)"/><radialGradient cx="26.782" cy="42.343" r="14.407" xlink:href="#d" gradientUnits="userSpaceOnUse" gradientTransform="matrix(1 0 0 .282 0 30.394)" fx="26.782" fy="42.343"/><linearGradient x1="28.059" x2="33.437" y1="18.868" y2="23.743" xlink:href="#b" gradientUnits="userSpaceOnUse" gradientTransform="translate(-3.907 -1.803)"/><linearGradient x1="19.395" x2="23.109" y1="30.001" y2="33.439" xlink:href="#a" gradientUnits="userSpaceOnUse" gradientTransform="translate(-3.907 -1.803)"/><radialGradient cx="26.782" cy="42.343" r="14.407" xlink:href="#d" gradientUnits="userSpaceOnUse" gradientTransform="matrix(1 0 0 .282 0 30.394)" fx="26.782" fy="42.343"/><radialGradient cx="15.415" cy="35.357" r="7.579" xlink:href="#c" gradientUnits="userSpaceOnUse" gradientTransform="matrix(.995 0 0 .969 -4.583 .166)" fx="15.415" fy="35.357"/><linearGradient x1="13.236" x2="7.752" y1="37.752" y2="42.282" xlink:href="#e" gradientUnits="userSpaceOnUse" gradientTransform="matrix(.852 0 0 .852 -1.675 3.754)"/><linearGradient x1="13.236" x2="7.752" y1="37.752" y2="42.282" xlink:href="#e" gradientUnits="userSpaceOnUse" gradientTransform="matrix(.639 0 0 .639 -1.348 2.818)"/><radialGradient cx="15.415" cy="35.357" r="7.579" xlink:href="#c" gradientUnits="userSpaceOnUse" gradientTransform="matrix(.746 0 0 .727 -3.528 .127)" fx="15.415" fy="35.357"/><linearGradient x1="19.395" x2="23.109" y1="30.001" y2="33.439" xlink:href="#a" gradientUnits="userSpaceOnUse" gradientTransform="matrix(.75 0 0 .75 -3.021 -1.35)"/><linearGradient x1="28.059" x2="33.437" y1="18.868" y2="23.743" xlink:href="#b" gradientUnits="userSpaceOnUse" gradientTransform="matrix(.75 0 0 .75 -3.021 -1.35)"/><linearGradient id="k" x1="28.059" x2="33.437" y1="18.868" y2="23.743" xlink:href="#b" gradientUnits="userSpaceOnUse" gradientTransform="matrix(.75 0 0 .75 -3.021 -1.35)"/><linearGradient id="l" x1="19.395" x2="23.109" y1="30.001" y2="33.439" xlink:href="#a" gradientUnits="userSpaceOnUse" gradientTransform="matrix(.75 0 0 .75 -3.021 -1.35)"/><radialGradient id="m" cx="15.415" cy="35.357" r="7.579" xlink:href="#c" gradientUnits="userSpaceOnUse" gradientTransform="matrix(.746 0 0 .727 -3.528 .127)" fx="15.415" fy="35.357"/><linearGradient id="n" x1="13.236" x2="7.752" y1="37.752" y2="42.282" xlink:href="#e" gradientUnits="userSpaceOnUse" gradientTransform="matrix(.639 0 0 .639 -1.348 2.818)"/><radialGradient cx="26.782" cy="42.343" r="14.407" xlink:href="#d" gradientUnits="userSpaceOnUse" gradientTransform="matrix(1 0 0 .282 0 30.394)" fx="26.782" fy="42.343"/><radialGradient cx="26.782" cy="42.343" r="14.407" xlink:href="#d" gradientUnits="userSpaceOnUse" gradientTransform="matrix(1 0 0 .282 0 30.394)" fx="26.782" fy="42.343"/></defs><g><g color="#000"><path fill="url(#k)" stroke="#673907" stroke-width="1.043" d="M14.65 16.94l3.05 2.85c5.4-5.3 13.33-18 13.33-18 .32-.9-.8-1.5-1.38-.87 0 0-10.27 10.57-15 16z" stroke-linecap="round" overflow="visible" transform="matrix(.523 0 0 .523 -.641 .003)"/><path fill="url(#l)" stroke="#888a85" stroke-width="1.043" d="M8.95 24.6l1.68 1.46L17 20.54l.2-.53h.83c-.33-1.18-2.2-3.3-3.62-3.3l.08.82-.5.3-5.03 6.8z" stroke-linecap="round" overflow="visible" transform="matrix(.523 0 0 .523 -.641 .003)"/><path fill="url(#m)" d="M1.23 30.54c4.95 0 8.7.6 9.42-3 .58-2.92-3.42-4.3-5.4-1.7-1.9 2.48-4.02 4.7-4.02 4.7z" overflow="visible" transform="matrix(.523 0 0 .523 -.641 .003)"/><path fill="#fff" d="M3.74 13.62c0 .23-.2.42-.42.42-.23 0-.4-.2-.4-.42 0-.23.17-.4.4-.4.23-.02.42.17.42.4z" opacity=".528" overflow="visible"/><path fill="#fff" d="M7.65 9.82c0 .2-.17.38-.4.38-.2 0-.37-.17-.37-.38 0-.22.17-.4.38-.4.22 0 .4.18.4.4z" overflow="visible"/><path fill="none" stroke="#fff" stroke-width=".52.043" d="M6.74 10.36l-2.08 2.4" stroke-linecap="round" stroke-linejoin="round" overflow="visible"/><path fill="url(#n)" d="M2.2 30.05S4.73 28.82 5.8 27c.38-.66 1.24-.1.7.54-1.13 1.4-4.27 2.5-4.27 2.5z" opacity=".428" overflow="visible" transform="matrix(.523 0 0 .523 -.641 .003)"/><path fill="#fff" d="M15.2.73c0 .06-.04.12-.1.12-.07 0-.12-.06-.12-.12s.05-.12.12-.12c.06 0 .1.07.1.13z" opacity=".533" overflow="visible"/></g></g></svg>