<svg xmlns="http://www.w3.org/2000/svg" width="16" height="16" xmlns:xlink="http://www.w3.org/1999/xlink"><defs><linearGradient><stop offset="0" stop-color="#fff"/><stop offset=".5" stop-color="#fff"/><stop offset="1" stop-color="#d1d1cc"/></linearGradient><linearGradient x1="359.477" x2="360.143" y1="165.859" y2="190.359" gradientUnits="userSpaceOnUse"><stop offset=".006" stop-color="#fff"/><stop offset=".1" stop-color="#F6F7FA"/><stop offset=".255" stop-color="#DCE3EC"/><stop offset=".453" stop-color="#B3C1D6"/><stop offset=".685" stop-color="#7A92B7"/><stop offset=".944" stop-color="#325790"/><stop offset="1" stop-color="#224987"/></linearGradient><linearGradient x1="340.538" x2="349.505" y1="174.625" y2="187.975" xlink:href="#a" gradientUnits="userSpaceOnUse" gradientTransform="matrix(1.061 0 0 1.061 -359.674 -173.654)"/><linearGradient id="a" x1="353.787" x2="342.12" y1="167.674" y2="191.342" gradientUnits="userSpaceOnUse" gradientTransform="translate(-339.088 -158.956)"><stop offset="0" stop-color="#224987"/><stop offset=".876" stop-color="#fff"/></linearGradient><linearGradient x1="3.864" x2="10.081" y1="21.655" y2="25.572" xlink:href="#b" gradientUnits="userSpaceOnUse"/><linearGradient id="b"><stop offset="0" stop-color="#193766"/><stop offset="1" stop-color="#193766" stop-opacity="0"/></linearGradient><radialGradient cx="16.405" cy="23.17" r="15.604" xlink:href="#c" fx="16.405" fy="23.17" gradientTransform="matrix(1 0 0 .407 0 13.733)" gradientUnits="userSpaceOnUse"/><linearGradient id="c"><stop offset="0" stop-color="#fff"/><stop offset="1" stop-color="#3465a4"/></linearGradient><radialGradient cx="16.405" cy="23.17" r="15.604" fy="23.17" fx="16.405" gradientTransform="matrix(-.511 -.154 0 .203 16.389 5.149)" gradientUnits="userSpaceOnUse" xlink:href="#c"/><radialGradient id="e" cx="16.405" cy="23.17" r="15.604" xlink:href="#c" gradientUnits="userSpaceOnUse" gradientTransform="matrix(-.511 -.154 0 .203 16.389 6.057)" fx="16.405" fy="23.17"/><radialGradient id="d" cx="16.405" cy="23.17" r="15.604" xlink:href="#c" gradientUnits="userSpaceOnUse" gradientTransform="matrix(-.511 -.154 0 .203 16.389 6.057)" fx="16.405" fy="23.17"/></defs><g stroke-width=".5"><path fill="url(#d)" fill-rule="evenodd" stroke="#204a87" d="M8.7 7.48L3.86 4.8l1.42-.3L.3 3.57.77 6l1.62-.44 3.97 2.3"/><path fill="#fff" stroke="#000" d="M5.3 1.63v10.35L7.13 9.5l1.9 4.88 1.1-.4-1.78-5.1h3.56L5.3 1.63z"/><path fill="url(#e)" fill-rule="evenodd" stroke="#204a87" d="M6.37 7.87l5.65 3.28-1.47.76 5.17.56-.85-2.9-1.23.64L8.7 7.48z"/></g></svg>