<svg xmlns="http://www.w3.org/2000/svg" width="16" height="16" xmlns:xlink="http://www.w3.org/1999/xlink" version="1"><defs><linearGradient id="b"><stop offset="0" stop-color="#2e3436"/><stop offset=".214" stop-color="#2e3436"/><stop offset="1" stop-color="#2e3436" stop-opacity="0"/></linearGradient><linearGradient id="a"><stop offset="0" stop-color="#3d444c" stop-opacity=".557"/><stop offset="1" stop-color="#3d444c" stop-opacity="0"/></linearGradient><linearGradient id="c" x1="37.245" x2="14.995" y1="36.382" y2="5.882" gradientUnits="userSpaceOnUse"><stop offset=".388" stop-color="#fff"/><stop offset=".803" stop-color="#A3C1CB"/><stop offset=".892" stop-color="#9FBCC5"/><stop offset=".951" stop-color="#93AEB5"/><stop offset="1" stop-color="#81979E"/></linearGradient><linearGradient id="d" x1="32.291" x2="31.457" y1="47.38" y2="27.048" gradientUnits="userSpaceOnUse"><stop offset=".433" stop-color="#E3EBEE"/><stop offset=".978" stop-color="#A3C1CB"/></linearGradient><linearGradient id="e" x1="3.294" x2="19.923" y1="27.207" y2="27.207" gradientUnits="userSpaceOnUse"><stop offset="0" stop-color="#E96712"/><stop offset=".527" stop-color="#F28F29"/><stop offset="1" stop-color="#FAAF3E"/></linearGradient><linearGradient id="f" x1="32.401" x2="30.734" y1="37.659" y2="31.826" gradientUnits="userSpaceOnUse"><stop offset="0" stop-color="#FAAF3E"/><stop offset=".09" stop-color="#F6A034"/><stop offset=".287" stop-color="#F08624"/><stop offset=".495" stop-color="#EC751A"/><stop offset=".722" stop-color="#E96A13"/><stop offset="1" stop-color="#E96712"/></linearGradient><linearGradient id="g" x1="30.159" x2="15.984" y1="26.489" y2="5.149" gradientUnits="userSpaceOnUse" gradientTransform="matrix(.344 0 0 .343 -.65 16.944)"><stop offset="0" stop-color="#E3EBED"/><stop offset=".264" stop-color="#fff"/><stop offset=".373" stop-color="#F8FAFB"/><stop offset=".53" stop-color="#E6EEF1"/><stop offset=".713" stop-color="#C7D9DF"/><stop offset=".888" stop-color="#A3C1CB"/><stop offset=".933" stop-color="#9FBCC4"/><stop offset=".974" stop-color="#8FA9B1"/><stop offset="1" stop-color="#81989E"/></linearGradient><linearGradient id="h" x1="11.834" x2="19.806" y1="6.917" y2="17.434" gradientUnits="userSpaceOnUse" gradientTransform="matrix(.344 0 0 .343 -.65 16.944)"><stop offset=".567" stop-color="#fff"/><stop offset=".729" stop-color="#EDF3F5"/><stop offset="1" stop-color="#C7D9DE"/></linearGradient><linearGradient id="i" x1="1.227" x2="27.602" y1="10.512" y2="46.012" gradientUnits="userSpaceOnUse"><stop offset="0" stop-color="#CDDDE1"/><stop offset=".556" stop-color="#A3C1CB"/><stop offset=".818" stop-color="#8AA2A9"/><stop offset="1" stop-color="#768B91"/></linearGradient><linearGradient id="j" x1="37.588" x2="35.673" y1="20.529" y2="16.655" gradientUnits="userSpaceOnUse" gradientTransform="matrix(.344 0 0 .343 -.65 16.944)"><stop offset="0" stop-color="#F2F6F7"/><stop offset=".573" stop-color="#DDE7EA"/><stop offset=".691" stop-color="#D6E3E6"/><stop offset=".859" stop-color="#C4D7DC"/><stop offset="1" stop-color="#AFC9D1"/></linearGradient><linearGradient id="k" x1="26.269" x2="29.447" y1="4.571" y2="12.847" gradientUnits="userSpaceOnUse" gradientTransform="matrix(.344 0 0 .343 -.65 16.944)"><stop offset=".118" stop-color="#fff"/><stop offset=".539" stop-color="#DDE7EA"/><stop offset="1" stop-color="#9FBDC6"/></linearGradient><linearGradient id="l" x1="11.144" x2="2.001" y1="11.209" y2="8.732" xlink:href="#a" gradientUnits="userSpaceOnUse" gradientTransform="matrix(.497 0 0 .497 .045 16.846)"/><linearGradient id="m" x1="10.128" x2="-.983" y1="7.209" y2="2.828" xlink:href="#a" gradientUnits="userSpaceOnUse" gradientTransform="matrix(.497 0 0 .497 2.239 21.058)"/><linearGradient id="n" x1="11.906" x2="5.938" y1="5.24" y2="-2.696" xlink:href="#a" gradientUnits="userSpaceOnUse" gradientTransform="matrix(.497 0 0 .497 .044 25.539)"/><radialGradient cx="16.02" cy="19.69" r="15.98" xlink:href="#b" fx="16.02" fy="19.69" gradientTransform="matrix(1 0 0 .724 0 5.442)" gradientUnits="userSpaceOnUse"/></defs><g><path fill="none" stroke="#590b08" stroke-width=".68.315" d="M.48 6.04l.03.5 5.67 7.97 7.67-3.75.1-.56"/><path fill="none" stroke="#3d444c" stroke-width=".795" d="M.48 6.04l-.06-1.2 6.33-2.32 1.08.82 4.7-1.77c.55.1 1.1 1.08 0 2.33-.14.17-.33.3-.53.37l-1.88.77c1.13.7 2.04 1.03 2.84 1.1L15.8 4.9c-.44.43-.88.75-1.35.96L12 6.94l2.22 1.85-.28 1.4"/><path fill="url(#c)" d="M21.52 4.6l21.75 18.3-23.1 10.88L3.1 11.36z" transform="matrix(.344 0 0 .343 -.65 .944)"/><path fill="url(#d)" d="M43.27 22.9l-.82 4.05L19.92 37.9l.24-4.12z" transform="matrix(.344 0 0 .343 -.65 .944)"/><path fill="url(#e)" d="M3.3 14.87l.06 1.4 16.47 23.28.1-1.65L3.28 14.87z" transform="matrix(.344 0 0 .343 -.65 .944)"/><path fill="url(#f)" d="M19.92 37.9l22.53-10.95-.32 1.63-22.3 10.97z" transform="matrix(.344 0 0 .343 -.65 .944)"/><path fill="url(#g)" d="M6.75 18.52c2.86 2.4 4.73 3.5 6.2 3.6L8.5 24.08C7.33 26.1 3.52 24.9.4 20.84l6.33-2.32z" transform="translate(0 -16)"/><path fill="url(#h)" d="M6.18 19.8c.54.24.86 1.4.05 2.5-.23.3-.5.52-.8.65-1.53.66-3.84-.58-5-2.1l6.32-2.33c.2.17.86.67 1.04.82l-1.62.46z" transform="translate(0 -16)"/><path fill="url(#i)" d="M3.12 11.36l.17 3.5L19.91 37.9l.24-4.12z" transform="matrix(.344 0 0 .343 -.65 .944)"/><path fill="url(#j)" d="M8.5 24.07c-.22.36-.5.62-.86.78l6.8-3c.48-.2.92-.52 1.37-.95l-7.3 3.17z" transform="translate(0 -16)"/><path fill="url(#k)" d="M5.42 22.95L12 20.27c.2-.08.4-.2.53-.37 1.1-1.25.7-2.23.17-2.33l-6.3 2.36c.54.24.64 1.27-.17 2.37-.23.3-.5.52-.8.65z" transform="translate(0 -16)"/><path fill="none" stroke="url(#l)" stroke-width=".397" d="M8.06 19.1l-1.82.76c1.96 3.46-3.76 4.17-5.92.9" color="#000" overflow="visible" transform="translate(0 -16)"/><path fill="none" stroke="url(#m)" stroke-width=".397" d="M15.65 20.82l-7.2 3.25c-.7 1.4-4.94 1.05-7-2.02" color="#000" overflow="visible" transform="translate(0 -16)"/><path fill="none" stroke="url(#n)" stroke-width=".397" d="M14.28 24.83l-8.04 3.72-4.9-6.76" color="#000" overflow="visible" transform="translate(0 -16)"/></g></svg>