<svg xmlns="http://www.w3.org/2000/svg" width="16" height="16" xmlns:xlink="http://www.w3.org/1999/xlink"><defs><linearGradient id="a"><stop offset="0" stop-color="#6a777c"/><stop offset="1" stop-color="#2e3436"/></linearGradient><linearGradient><stop offset="0" stop-color="#aaa"/><stop offset="1" stop-color="#393939"/></linearGradient><linearGradient id="b" x1="7.898" x2="10.442" y1="2.456" y2="2.456" xlink:href="#a" gradientUnits="userSpaceOnUse"/><linearGradient id="e" x1="4.041" x2="6.079" y1="1.966" y2="5.097" xlink:href="#a" gradientUnits="userSpaceOnUse"/><linearGradient id="d" x1="6.364" x2="9.459" y1="5.609" y2="10.068" xlink:href="#a" gradientUnits="userSpaceOnUse"/><linearGradient id="c" x1="3.053" x2="5.099" y1="9.014" y2="10.411" xlink:href="#a" gradientUnits="userSpaceOnUse"/><linearGradient id="f" x1="6.836" x2="9.396" y1="12.792" y2="14.008" xlink:href="#a" gradientUnits="userSpaceOnUse"/></defs><g color="#000"><path fill="none" stroke="url(#b)" d="M8.4 3.8c-.1.48 1.33.94 1.42.27.2-1.48.18-2.46-.35-3.43-.1-.2-.48-.17-.52.06-.07.38-.4 2.4-.55 3.1z" overflow="visible" enable-background="accumulate"/><path fill="#eeeeec" d="M8.4 3.8c-.1.48 1.33.94 1.42.27.2-1.48.18-2.46-.35-3.43-.1-.2-.48-.17-.52.06-.07.38-.4 2.4-.55 3.1z" overflow="visible" enable-background="accumulate"/><path fill="none" stroke="url(#c)" d="M3.62 8.5c.1-.48 1.58-.37 1.42.28-.36 1.46-.75 2.35-1.6 3.06-.18.15-.5-.02-.47-.25.08-.4.53-2.37.65-3.1z" overflow="visible" enable-background="accumulate"/><path fill="#d3d7cf" stroke="url(#d)" d="M5.67 6.5l.2 1.22 1 .18-.1 1.1.06.8.43.34 1.68-.3.4-.26.9-1.4-.2-.5-.6-.43L8.27 7l.25-.9-1.06-.74-1.8 1.14z" overflow="visible" enable-background="accumulate"/><path fill="#d3d7cf" stroke="url(#e)" d="M6 2.53c.46.7.8 1.7-.17 2.3-.97.62-1.77-.04-2.22-.74-.44-.7-.06-1.35.6-1.78.67-.43 1.36-.48 1.8.2z" overflow="visible" enable-background="accumulate"/><path fill="#d3d7cf" stroke="url(#f)" d="M8.34 11.38c-.1-.5-1.28-.05-1.23.24.34 1.8.82 2.9 1.63 3.82.16.18.3-.03.4-.27 0 0-.65-3.1-.8-3.8z" overflow="visible" enable-background="accumulate"/><path fill="#d3d7cf" stroke="#2e3436" d="M10.43 9.82c-.24-.44.9-.83 1.03-.57.9 1.6 1.25 2.73 1.26 3.94 0 .23-.24.16-.45.02 0 0-1.5-2.78-1.84-3.4z" overflow="visible" enable-background="accumulate"/><path fill="#eeeeec" d="M5.67 6.5l.2 1.22 1 .18-.1 1.1.06.8.43.34 1.68-.3.4-.26.9-1.4-.2-.5-.6-.43L8.27 7l.25-.9-1.06-.74-1.8 1.14z" overflow="visible" enable-background="accumulate"/><path fill="#eeeeec" d="M6 2.53c.46.7.8 1.7-.17 2.3-.97.62-1.77-.04-2.22-.74-.44-.7-.06-1.35.6-1.78.67-.43 1.36-.48 1.8.2z" overflow="visible" enable-background="accumulate"/><path fill="#eeeeec" d="M3.62 8.5c.1-.48 1.58-.37 1.42.28-.36 1.46-.75 2.35-1.6 3.06-.18.15-.5-.02-.47-.25.08-.4.53-2.37.65-3.1z" overflow="visible" enable-background="accumulate"/><path fill="#ef2929" stroke="#555753" stroke-width=".49967999999999996" d="M9.7 4.48c.37.6-.03 1.4-.74 1.43-.33.02-.64-.14-.82-.4-.4-.6.02-1.4.72-1.44.33-.02.65.14.83.42z" overflow="visible" enable-background="accumulate"/><path fill="#eeeeec" d="M8.34 11.38c-.1-.5-1.28-.05-1.23.24.34 1.8.82 2.9 1.63 3.82.16.18.3-.03.4-.27 0 0-.65-3.1-.8-3.8z" overflow="visible" enable-background="accumulate"/><path fill="#ef2929" stroke="#555753" stroke-width=".49967999999999996" d="M8.7 10.62c.22.68-.38 1.34-1.08 1.2-.32-.1-.58-.32-.68-.64-.2-.68.4-1.33 1.08-1.18.32.07.58.3.68.62z" overflow="visible" enable-background="accumulate"/><path fill="#eeeeec" d="M10.43 9.82c-.24-.44.9-.83 1.03-.57.9 1.6 1.25 2.73 1.26 3.94 0 .23-.24.16-.45.02 0 0-1.5-2.78-1.84-3.4z" overflow="visible" enable-background="accumulate"/><path fill="#ef2929" stroke="#555753" stroke-width=".50024" d="M11.72 8.72c.22.7-.4 1.37-1.1 1.2-.34-.06-.6-.3-.7-.63-.23-.7.38-1.4 1.1-1.23.33.08.6.32.7.65z" overflow="visible" enable-background="accumulate"/><path fill="#ef2929" stroke="#555753" stroke-width=".49967999999999996" d="M5.47 7.2c.4.6-.02 1.38-.73 1.42-.33.02-.64-.14-.82-.42-.38-.6.02-1.4.73-1.43.33 0 .64.15.82.42z" overflow="visible" enable-background="accumulate"/><path fill="#f57900" stroke="#555753" stroke-width=".331" d="M8 4.7a.64.64 0 1 1-1.3 0 .64.64 0 1 1 1.3 0z" transform="matrix(1.267 -.823 .823 1.272 -5.472 7.765)" overflow="visible" enable-background="accumulate"/><path fill="#ef2929" stroke="#555753" stroke-width=".331" d="M8 4.7a.64.64 0 1 1-1.3 0 .64.64 0 1 1 1.3 0z" transform="matrix(1.267 -.823 .823 1.272 -5.472 7.765)" overflow="visible" enable-background="accumulate"/></g></svg>