<svg xmlns="http://www.w3.org/2000/svg" width="16" height="16" xmlns:xlink="http://www.w3.org/1999/xlink" version="1"><defs><linearGradient id="d" x1="1018.654" x2="1018.654" y1="227.37" y2="217.521" gradientUnits="userSpaceOnUse" gradientTransform="matrix(.528 0 0 .528 -530.16 -97.004)"><stop offset=".124" stop-color="#F86D31"/><stop offset=".803" stop-color="#CB1009"/></linearGradient><radialGradient id="e" cx="1019.723" cy="228.862" r="16.509" gradientUnits="userSpaceOnUse" fy="228.862" fx="1019.723" gradientTransform="matrix(.528 0 0 .528 -530.16 -97.004)"><stop offset=".23" stop-color="#F86D31"/><stop offset=".374" stop-color="#F76A2F"/><stop offset=".486" stop-color="#F25F2A"/><stop offset=".587" stop-color="#EA4D22"/><stop offset=".683" stop-color="#DE3518"/><stop offset=".773" stop-color="#D1180D"/><stop offset=".803" stop-color="#CB1009"/></radialGradient><radialGradient id="n" cx="1018.281" cy="230.682" r="8.495" gradientUnits="userSpaceOnUse" fy="230.682" fx="1018.281"><stop offset="0" stop-color="#EFEEEC"/><stop offset="1" stop-color="#A0B0BE"/></radialGradient><radialGradient id="m" cx="1018.38" cy="237.373" r="6.188" gradientUnits="userSpaceOnUse" fy="237.373" fx="1018.38"><stop offset="0" stop-color="#BABDB6"/><stop offset=".826" stop-color="#545652"/><stop offset="1" stop-color="#2D3335"/></radialGradient><radialGradient id="c" cx="1018.28" cy="230.681" r="8.499" gradientUnits="userSpaceOnUse" fy="230.681" fx="1018.28"><stop offset="0" stop-color="#EFEEEC"/><stop offset="1" stop-color="#A0B0BE"/></radialGradient><radialGradient id="b" cx="1023.136" cy="230.977" r="7.697" gradientUnits="userSpaceOnUse" fy="230.977" fx="1023.136"><stop offset="0" stop-color="#BABDB6"/><stop offset=".826" stop-color="#545652"/><stop offset="1" stop-color="#2D3335"/></radialGradient><radialGradient id="j" cx="1018.281" cy="230.68" r="8.521" gradientUnits="userSpaceOnUse" fy="230.68" fx="1018.281"><stop offset="0" stop-color="#EFEEEC"/><stop offset="1" stop-color="#A0B0BE"/></radialGradient><radialGradient id="i" cx="1015.125" cy="228.471" r="5.952" gradientUnits="userSpaceOnUse" fy="228.471" fx="1015.125"><stop offset="0" stop-color="#fff"/><stop offset="1" stop-color="#545652"/></radialGradient><radialGradient id="h" cx="1023.136" cy="237.616" r="10.927" gradientUnits="userSpaceOnUse" fy="237.616" fx="1023.136"><stop offset="0" stop-color="#BAD1D7"/><stop offset=".826" stop-color="#6D7580"/><stop offset="1" stop-color="#41454C"/></radialGradient><radialGradient id="g" cx="1014.808" cy="227.476" r="15.398" gradientUnits="userSpaceOnUse" fy="227.476" fx="1014.808"><stop offset="0" stop-color="#fff"/><stop offset="1" stop-color="#8794A0"/></radialGradient><radialGradient id="f" cx="1016.488" cy="237.541" r="11.957" gradientUnits="userSpaceOnUse" fy="237.541" fx="1016.488"><stop offset="0" stop-color="#BAD1D7"/><stop offset="1" stop-color="#8794A0"/></radialGradient><radialGradient id="a" cx="1025.997" cy="241.903" r="20.997" gradientUnits="userSpaceOnUse" fy="241.903" fx="1025.997"><stop offset="0" stop-color="#BAD1D7"/><stop offset=".826" stop-color="#6D7580"/><stop offset="1" stop-color="#41454C"/></radialGradient><radialGradient id="p" cx="1009.998" cy="222.424" r="29.582" gradientUnits="userSpaceOnUse" fy="222.424" fx="1009.998"><stop offset="0" stop-color="#fff"/><stop offset="1" stop-color="#8794A0"/></radialGradient><radialGradient id="o" cx="1013.226" cy="241.76" r="22.967" gradientUnits="userSpaceOnUse" fy="241.76" fx="1013.226"><stop offset="0" stop-color="#BAD1D7"/><stop offset="1" stop-color="#8794A0"/></radialGradient><radialGradient cx="466.731" cy="193.481" r="25.699" gradientUnits="userSpaceOnUse" fy="193.481" fx="466.731"><stop offset="0" stop-color="#BABDB6"/><stop offset=".826" stop-color="#545652"/><stop offset="1" stop-color="#2D3335"/></radialGradient><radialGradient cx="447.146" cy="169.636" r="36.213" gradientUnits="userSpaceOnUse" fy="169.636" fx="447.146"><stop offset="0" stop-color="#fff"/><stop offset="1" stop-color="#545652"/></radialGradient><radialGradient cx="451.097" cy="193.305" r="28.114" gradientUnits="userSpaceOnUse" fy="193.305" fx="451.097"><stop offset="0" stop-color="#BABDB6"/><stop offset="1" stop-color="#5E615C"/></radialGradient><radialGradient cx="456.15" cy="179.031" r="15.868" fx="456.15" fy="179.031" gradientUnits="userSpaceOnUse"><stop offset="0" stop-color="#EFEEEC"/><stop offset="1" stop-color="#545652"/></radialGradient><radialGradient cx="457.303" cy="187.356" r="7.159" fx="457.303" fy="187.356" gradientUnits="userSpaceOnUse"><stop offset="0" stop-color="#BABDB6"/><stop offset=".826" stop-color="#545652"/><stop offset="1" stop-color="#2D3335"/></radialGradient><radialGradient cx="456.151" cy="179.033" r="15.866" fx="456.151" fy="179.033" gradientUnits="userSpaceOnUse"><stop offset="0" stop-color="#EFEEEC"/><stop offset="1" stop-color="#545652"/></radialGradient><radialGradient cx="453.534" cy="177.048" r="6.892" fx="453.534" fy="177.048" gradientUnits="userSpaceOnUse"><stop offset="0" stop-color="#fff"/><stop offset="1" stop-color="#545652"/></radialGradient><radialGradient cx="462.811" cy="187.639" r="12.658" gradientUnits="userSpaceOnUse" fy="187.639" fx="462.811"><stop offset="0" stop-color="#BABDB6"/><stop offset=".826" stop-color="#545652"/><stop offset="1" stop-color="#2D3335"/></radialGradient><radialGradient cx="453.167" cy="175.895" r="17.832" gradientUnits="userSpaceOnUse" fy="175.895" fx="453.167"><stop offset="0" stop-color="#fff"/><stop offset="1" stop-color="#545652"/></radialGradient><radialGradient cx="455.113" cy="187.552" r="13.846" gradientUnits="userSpaceOnUse" fy="187.552" fx="455.113"><stop offset="0" stop-color="#BABDB6"/><stop offset="1" stop-color="#5E615C"/></radialGradient><radialGradient cx="427.802" cy="214.219" r="12.001" fx="427.802" fy="214.219" gradientTransform="matrix(1.029 0 0 1.062 3.464 -39.359)" gradientUnits="userSpaceOnUse"><stop offset="0" stop-color="#224987"/><stop offset="1" stop-color="#fff"/></radialGradient><linearGradient x1="468.552" x2="461.443" y1="191.687" y2="184.759" gradientUnits="userSpaceOnUse"><stop offset="0" stop-color="#224987"/><stop offset="1" stop-color="#fff"/></linearGradient><linearGradient x1="456.777" x2="457.527" y1="163.091" y2="177.718" gradientUnits="userSpaceOnUse"><stop offset="0" stop-color="#224987"/><stop offset="1" stop-color="#fff"/></linearGradient><radialGradient id="q" cx="1025.997" cy="241.903" r="20.997" xlink:href="#a" gradientUnits="userSpaceOnUse" fx="1025.997" fy="241.903"/><radialGradient id="k" cx="1023.136" cy="230.977" r="7.697" xlink:href="#b" gradientUnits="userSpaceOnUse" fx="1023.136" fy="230.977"/><radialGradient id="l" cx="1018.28" cy="230.681" r="8.499" xlink:href="#c" gradientUnits="userSpaceOnUse" fx="1018.28" fy="230.681"/></defs><g><path fill="url(#d)" stroke="#590b08" stroke-width=".5" d="M8.8 24.87l.08-5.73 1.46-.4c.06 0 .15-.08.02-.25L8.2 16.24c-.07-.1-.27-.1-.33.06L5.8 19.67s-.03.04 0 .1c.03.06.1.07.17.06l1.43-.36.15 5.48" transform="translate(0 -16)"/><path fill="url(#e)" stroke="#590b08" stroke-width=".5" d="M8.8 26.03L3.52 27.7l-.88-.92c-.04-.05-.14-.1-.22.07l-1.32 2.3c-.05.1.05.25.2.25l4.27.7s.04.02.08-.03c.03-.04 0-.1-.03-.14l-1.05-1.1 3.65-1.34 2.47 2.44-1.6.6c-.1.05-.1.15 0 .17l4.36.96c.2.04.28-.05.3-.15 0 0 .44-2.67.44-2.67s0-.08-.1-.1c-.07-.04-.14 0-.2.03l-1.54.64-3.56-3.37z" transform="translate(0 -16)"/><path fill="url(#f)" d="M1018.4 236.53l-2.67-3.23-.45-5.17 2.93 2.6z" transform="matrix(.528 0 0 .528 -530.159 -113.004)"/><path fill="url(#g)" d="M1024.16 229.06l-5.95 1.67-2.92-2.6 5.28-1.14z" transform="matrix(.528 0 0 .528 -530.159 -113.004)"/><path fill="url(#h)" d="M1023.65 234.48l-5.24 2.05-.2-5.8 5.96-1.66z" transform="matrix(.528 0 0 .528 -530.159 -113.004)"/><g transform="matrix(.528 0 0 .528 -530.159 -113.004)"><radialGradient cx="1015.125" cy="228.471" r="5.952" fx="1015.125" fy="228.471" gradientUnits="userSpaceOnUse"><stop offset="0" stop-color="#fff"/><stop offset="1" stop-color="#545652"/></radialGradient><path fill="url(#i)" d="M1018.2 230.73l-2.92-2.6" enable-background="new"/><radialGradient cx="1018.281" cy="230.68" r="8.521" fx="1018.281" fy="230.68" gradientUnits="userSpaceOnUse"><stop offset="0" stop-color="#EFEEEC"/><stop offset="1" stop-color="#A0B0BE"/></radialGradient><path fill="url(#j)" d="M1015.2 228.22l2.94 2.6.15-.17-2.94-2.6z"/></g><g transform="matrix(.087 .511 -.521 .146 40.164 -547.247)"><radialGradient cx="1023.136" cy="230.977" r="7.697" fx="1023.136" fy="230.977" gradientUnits="userSpaceOnUse"><stop offset="0" stop-color="#BABDB6"/><stop offset=".826" stop-color="#545652"/><stop offset="1" stop-color="#2D3335"/></radialGradient><path fill="url(#k)" d="M1018.2 230.73l5.96-1.66" enable-background="new"/><radialGradient cx="1018.28" cy="230.681" r="8.499" fx="1018.28" fy="230.681" gradientUnits="userSpaceOnUse"><stop offset="0" stop-color="#EFEEEC"/><stop offset="1" stop-color="#A0B0BE"/></radialGradient><path fill="url(#l)" d="M1021.08 226.8h.22v6.2h-.22z"/></g><g transform="matrix(.528 0 0 .528 -530.159 -113.004)"><radialGradient cx="1018.38" cy="237.373" r="6.188" fx="1018.38" fy="237.373" gradientUnits="userSpaceOnUse"><stop offset="0" stop-color="#BABDB6"/><stop offset=".826" stop-color="#545652"/><stop offset="1" stop-color="#2D3335"/></radialGradient><path fill="url(#m)" d="M1018.4 236.53l-.2-5.8" enable-background="new"/><radialGradient cx="1018.281" cy="230.682" r="8.495" fx="1018.281" fy="230.682" gradientUnits="userSpaceOnUse"><stop offset="0" stop-color="#EFEEEC"/><stop offset="1" stop-color="#A0B0BE"/></radialGradient><path fill="url(#n)" d="M1018.2 230.73h.23v5.8h-.23z"/></g><path fill="none" stroke="#192333" stroke-width=".53.131" d="M10.6 7.94l-.27 2.86-2.77 1.08-1.42-1.7-.23-2.73 2.8-.6z"/><g opacity=".4"><path fill="url(#o)" d="M1016.92 239.8l-5.16-6.2-.85-9.92 5.64 5z" transform="matrix(.528 0 0 .528 -529.968 -112.963)"/><path fill="url(#p)" d="M1027.97 225.48l-11.43 3.2-5.63-5 10.15-2.2z" transform="matrix(.528 0 0 .528 -529.968 -112.963)"/><path fill="url(#q)" d="M1026.98 235.87l-10.06 3.94-.38-11.12 11.43-3.2z" transform="matrix(.528 0 0 .528 -530.005 -112.963)"/></g><path fill="none" stroke="#2d3335" stroke-width=".50138" d="M12.6 6.05l-.5 5.5-5.32 2.07-2.73-3.28L3.6 5.1l5.36-1.16z" opacity=".5"/></g></svg>