<svg xmlns="http://www.w3.org/2000/svg" width="16" height="16" xmlns:xlink="http://www.w3.org/1999/xlink"><defs><linearGradient id="a"><stop offset="0" stop-color="#6e6e6e"/><stop offset="1"/></linearGradient><linearGradient id="d" x1="16.672" x2="40.52" y1="296.05" y2="314.1" xlink:href="#a" gradientUnits="userSpaceOnUse"/><linearGradient id="b"><stop offset="0" stop-color="#fff"/><stop offset="1" stop-color="#bcbcb4"/></linearGradient><linearGradient id="c" x1="17.916" x2="33.156" y1="287.34" y2="323.642" xlink:href="#b" gradientUnits="userSpaceOnUse"/></defs><g><path fill="#f57900" fill-rule="evenodd" d="M0 4h1.9c0 1.67.03 3.1 1.17 3V5L6 8l-2.97 3V9C1.2 8.97-.05 7.6 0 4z"/><g><path fill="url(#c)" stroke="url(#d)" stroke-width="3.454" d="M17.44 322.16l7.4-10.55 5.63 13.58 5.7-4.2-5.5-11.8h10.66l-24-24 .1 36.98z" transform="matrix(.298 0 0 .281 3.315 -75.789)" stroke-linejoin="round"/><path fill="#fff" d="M10.47 11L9.04 5.9l.13 6.78 1.3-1.68z"/></g><path fill="#f57900" fill-rule="evenodd" d="M8 7H6.1c0-1.66-.02-3.1-1.17-3v2L2 3l2.98-3v2C6.8 2.05 8.05 3.4 8 7z"/></g></svg>