<svg xmlns="http://www.w3.org/2000/svg" width="16" height="16" xmlns:xlink="http://www.w3.org/1999/xlink" version="1"><defs><linearGradient id="a"><stop offset="0" stop-color="#fff"/><stop offset="1" stop-color="#eeeeec" stop-opacity="0"/></linearGradient><linearGradient id="b" x1="14.107" x2="39.69" y1="4.772" y2="43.606" xlink:href="#a" gradientUnits="userSpaceOnUse" gradientTransform="matrix(.275 0 0 .284 1.827 9.347)"/></defs><g><path fill="#babdb6" d="M6.38 6.58l.26 7.68-3.45-4.3-.58-6.83z"/><path fill="#d3d7cf" d="M9.4 1.62l4.63 2.75-7.65 2.2-3.76-3.44z"/><path fill="#888a85" d="M14.03 4.37l-.66 7.17-6.73 2.72-.26-7.68z"/><path fill="none" stroke="#f0f0f0" stroke-width=".665" d="M6.5 6.68l7.3-2.12" stroke-linecap="round"/><path fill="none" stroke="#eeeeec" stroke-width=".665" d="M2.84 3.38l3.7 3.27" stroke-linecap="round"/><path fill="none" stroke="url(#b)" stroke-width=".997" d="M2.9 11.45l6.52-1.4 4.4 2.64-.64 6.8-6.4 2.53L3.5 17.9l-.6-6.45z" transform="translate(0 -8)"/><path fill="none" stroke="#555753" stroke-width=".665" d="M2.58 3.2l6.87-1.48 4.64 2.8-.7 7.2-6.73 2.65-3.47-4.35-.62-6.8z"/><g color="#000" stroke-linejoin="round"><path fill="#fde661" fill-rule="evenodd" stroke="#9a6700" stroke-width=".66294" d="M8.68 7.03c0 1.1-.9 2-2 2s-2-.9-2-2 .9-2 2-2 2 .9 2 2z" overflow="visible"/><path fill="none" stroke="#eeeeec" stroke-width="1.343" d="M11.3 34c0 1.46-1.22 2.65-2.73 2.65-1.5 0-2.72-1.2-2.72-2.65 0-1.46 1.22-2.65 2.72-2.65 1.5 0 2.73 1.2 2.73 2.65z" transform="matrix(.488 0 0 .502 2.5 -10.05)" overflow="visible"/></g><g color="#000" stroke-linejoin="round"><path fill="#fde661" fill-rule="evenodd" stroke="#9a6700" stroke-width=".66294" d="M8.68 13.68c0 1.1-.9 2-2 2s-2-.9-2-2 .9-2 2-2 2 .9 2 2z" overflow="visible"/><path fill="none" stroke="#eeeeec" stroke-width="1.343" d="M11.3 34c0 1.46-1.22 2.65-2.73 2.65-1.5 0-2.72-1.2-2.72-2.65 0-1.46 1.22-2.65 2.72-2.65 1.5 0 2.73 1.2 2.73 2.65z" transform="matrix(.488 0 0 .502 2.5 -3.4)" overflow="visible"/></g><g color="#000" stroke-linejoin="round"><path fill="#fde661" fill-rule="evenodd" stroke="#9a6700" stroke-width=".66294" d="M4.7 9.7c0 1.1-.9 2-2 2s-2-.9-2-2 .9-2 2-2 2 .9 2 2z" overflow="visible"/><path fill="none" stroke="#eeeeec" stroke-width="1.343" d="M11.3 34c0 1.46-1.22 2.65-2.73 2.65-1.5 0-2.72-1.2-2.72-2.65 0-1.46 1.22-2.65 2.72-2.65 1.5 0 2.73 1.2 2.73 2.65z" transform="matrix(.488 0 0 .502 -1.489 -7.39)" overflow="visible"/></g><g color="#000" stroke-linejoin="round"><path fill="#888a85" fill-rule="evenodd" stroke="#555753" stroke-width=".64.046" d="M10.96 1.82c0 .8-.65 1.45-1.45 1.45-.8 0-1.44-.65-1.44-1.45 0-.8.65-1.45 1.45-1.45.8 0 1.46.65 1.46 1.45z" overflow="visible"/><path fill="none" stroke="#babdb6" stroke-opacity=".438" stroke-width="2.268" d="M11.3 34c0 1.46-1.22 2.65-2.73 2.65-1.5 0-2.72-1.2-2.72-2.65 0-1.46 1.22-2.65 2.72-2.65 1.5 0 2.73 1.2 2.73 2.65z" transform="matrix(.289 0 0 .297 7.034 -8.281)" overflow="visible"/></g><g color="#000" stroke-linejoin="round"><path fill="#888a85" fill-rule="evenodd" stroke="#555753" stroke-width=".64.046" d="M15.57 4.55c0 .8-.65 1.46-1.46 1.46-.8 0-1.44-.64-1.44-1.45 0-.8.65-1.45 1.45-1.45.82 0 1.47.65 1.47 1.45z" overflow="visible"/><path fill="none" stroke="#babdb6" stroke-opacity=".438" stroke-width="2.268" d="M11.3 34c0 1.46-1.22 2.65-2.73 2.65-1.5 0-2.72-1.2-2.72-2.65 0-1.46 1.22-2.65 2.72-2.65 1.5 0 2.73 1.2 2.73 2.65z" transform="matrix(.289 0 0 .297 11.639 -5.543)" overflow="visible"/></g><g color="#000" stroke-linejoin="round"><path fill="#888a85" fill-rule="evenodd" stroke="#555753" stroke-width=".64.046" d="M14.56 11.55c0 .8-.65 1.45-1.45 1.45-.8 0-1.45-.65-1.45-1.45 0-.8.65-1.46 1.46-1.46.8 0 1.46.64 1.46 1.45z" overflow="visible"/><path fill="none" stroke="#babdb6" stroke-opacity=".438" stroke-width="2.268" d="M11.3 34c0 1.46-1.22 2.65-2.73 2.65-1.5 0-2.72-1.2-2.72-2.65 0-1.46 1.22-2.65 2.72-2.65 1.5 0 2.73 1.2 2.73 2.65z" transform="matrix(.289 0 0 .297 10.631 1.448)" overflow="visible"/></g><g color="#000" stroke-linejoin="round"><path fill="#fde661" fill-rule="evenodd" stroke="#9a6700" stroke-width=".66294" d="M4.7 3.04c0 1.1-.9 2-2 2s-2-.9-2-2 .9-2 2-2 2 .9 2 2z" overflow="visible"/><path fill="none" stroke="#eeeeec" stroke-width="1.343" d="M11.3 34c0 1.46-1.22 2.65-2.73 2.65-1.5 0-2.72-1.2-2.72-2.65 0-1.46 1.22-2.65 2.72-2.65 1.5 0 2.73 1.2 2.73 2.65z" transform="matrix(.488 0 0 .502 -1.489 -14.039)" overflow="visible"/></g></g></svg>