<svg xmlns="http://www.w3.org/2000/svg" width="16" height="16" xmlns:xlink="http://www.w3.org/1999/xlink"><defs><linearGradient id="d"><stop offset="0" stop-color="#ae7cbb"/><stop offset="1" stop-color="#5c3566"/></linearGradient><linearGradient id="a"><stop offset="0" stop-color="#9a7e00"/><stop offset="1" stop-color="#643e00"/></linearGradient><linearGradient x1="6.509" x2="10.484" y1="32.061" y2="36.162" xlink:href="#a" gradientUnits="userSpaceOnUse"/><linearGradient id="c"><stop offset="0" stop-color="#6e6e6e"/><stop offset="1"/></linearGradient><linearGradient id="b"><stop offset="0" stop-color="#fff"/><stop offset="1" stop-color="#bcbcb4"/></linearGradient><linearGradient x1="17.916" x2="33.156" y1="287.34" y2="323.642" xlink:href="#b" gradientUnits="userSpaceOnUse"/><linearGradient x1="13.022" x2="22.006" y1="290.949" y2="323.544" xlink:href="#c" gradientUnits="userSpaceOnUse"/><linearGradient x1="6.509" x2="10.484" y1="32.061" y2="36.162" xlink:href="#a" gradientUnits="userSpaceOnUse"/><linearGradient x1="6.758" x2="10.429" y1="32.271" y2="35.906" xlink:href="#d" gradientUnits="userSpaceOnUse"/><linearGradient id="e" x1="6.758" x2="10.429" y1="32.271" y2="35.906" xlink:href="#d" gradientUnits="userSpaceOnUse"/></defs><g><g color="#000" stroke-linejoin="round"><path fill="#ad7fa8" fill-rule="evenodd" stroke="url(#e)" stroke-width=".657" d="M10.86 34a2.3 2.3 0 1 1-4.57 0 2.3 2.3 0 1 1 4.56 0z" transform="matrix(1.519 0 0 1.524 -6.988 -45.84)" overflow="visible"/><path fill="none" stroke="#fff" stroke-opacity=".698" stroke-width="1.095" d="M11.3 34a2.73 2.65 0 1 1-5.45 0 2.73 2.65 0 1 1 5.45 0z" transform="matrix(.911 0 0 .915 -1.781 -25.11)" overflow="visible"/></g></g></svg>