<svg xmlns="http://www.w3.org/2000/svg" width="16" height="16" xmlns:xlink="http://www.w3.org/1999/xlink" version="1"><defs><linearGradient id="e"><stop offset="0" stop-color="#6e6e6e"/><stop offset="1"/></linearGradient><linearGradient id="d"><stop offset="0" stop-color="#eeeeec"/><stop offset="1" stop-color="#eeeeec" stop-opacity="0"/></linearGradient><radialGradient id="c" cx="-64.877" cy="220.876" r="14.119" gradientUnits="userSpaceOnUse" gradientTransform="matrix(-1 0 0 1 55.359 0)" fy="220.876" fx="-64.877"><stop offset="0" stop-color="#b5b5b5"/><stop offset="1" stop-color="#383838"/></radialGradient><linearGradient id="a" x1="107.77" x2="105.604" y1="228.699" y2="227.569" gradientUnits="userSpaceOnUse"><stop offset="0" stop-color="#EFEEEC"/><stop offset="1" stop-color="#F6E94F"/></linearGradient><linearGradient id="b" x1="103.99" x2="118.07" y1="229.561" y2="229.189" gradientUnits="userSpaceOnUse"><stop offset="0" stop-color="#ffe36c"/><stop offset=".232" stop-color="#fff89b"/><stop offset="1" stop-color="#ffcc0f"/></linearGradient><linearGradient x1="107.77" x2="105.604" y1="228.699" y2="227.569" xlink:href="#a" gradientUnits="userSpaceOnUse" gradientTransform="matrix(.78 0 0 .783 -78.542 -166.929)"/><linearGradient id="h" x1="106.703" x2="117.84" y1="228.871" y2="231.49" xlink:href="#b" gradientUnits="userSpaceOnUse" gradientTransform="matrix(.52 0 0 .521 -52.315 -102.799)"/><radialGradient id="f" cx="-64.877" cy="220.876" r="14.119" xlink:href="#c" gradientUnits="userSpaceOnUse" gradientTransform="matrix(-1 0 0 1 55.359 0)" fx="-64.877" fy="220.876"/><linearGradient id="g" x1="115.455" x2="130.11" y1="218.174" y2="232.827" xlink:href="#d" gradientUnits="userSpaceOnUse"/><linearGradient x1="16.672" x2="41.972" y1="305.18" y2="305.18" xlink:href="#e" gradientUnits="userSpaceOnUse"/><linearGradient x1="16.672" x2="41.972" y1="305.18" y2="305.18" xlink:href="#e" gradientUnits="userSpaceOnUse"/><linearGradient x1="16.672" x2="41.972" y1="305.18" y2="305.18" xlink:href="#e" gradientUnits="userSpaceOnUse"/><linearGradient x1="16.672" x2="41.972" y1="305.18" y2="305.18" xlink:href="#e" gradientUnits="userSpaceOnUse"/></defs><g transform="translate(0 -8)"><circle cx="122.958" cy="224.694" r="9.443" fill="url(#f)" stroke="#555753" stroke-width="1.255" transform="matrix(.53 0 0 .531 -54.487 -104.978)"/><circle cx="122.958" cy="224.694" r="9.443" fill="none" stroke="url(#g)" stroke-width="1.453" transform="matrix(.458 0 0 .458 -45.721 -88.602)"/><path fill="url(#h)" d="M10.67 20.04c0 1.5-1.84 2.6-5.32 2.6-3.07 0-5.05-1.17-5.05-2.56 0-.06.02-.12.05-.17l5.03-8.93c.06-.1.16-.1.22 0l5.03 8.92c.02.03.04.1.04.14z"/><path fill="none" stroke="#540" stroke-width=".666" d="M10.78 19.64c.1.2.17.4.17.62 0 1.36-2.38 2.4-5.3 2.4-2.94 0-5.32-1.04-5.32-2.4 0-.25.08-.5.23-.72l5.1-8.85 5.12 8.94z"/><path fill="none" stroke="#eeeeec" stroke-width=".666" d="M10.14 19.48c.1.17.15.34.15.52 0 1.13-2.1 2-4.67 2-2.58 0-4.66-.87-4.66-2 0-.2.07-.42.2-.6L5.64 12l4.5 7.46z"/></g></svg>