<svg xmlns="http://www.w3.org/2000/svg" width="16" height="16" xmlns:xlink="http://www.w3.org/1999/xlink" version="1"><defs><linearGradient id="a"><stop offset="0" stop-color="#5f5f5f"/><stop offset=".5" stop-color="#fff"/><stop offset="1" stop-color="#5f5f5f"/></linearGradient><linearGradient x1="3.589" x2="6.588" y1="21.475" y2="20.618" xlink:href="#a" gradientUnits="userSpaceOnUse" gradientTransform="translate(-.293 -.135)"/><linearGradient x1="3.589" x2="6.588" y1="21.475" y2="20.547" xlink:href="#a" gradientUnits="userSpaceOnUse" gradientTransform="matrix(.801 0 0 .801 -.272 6.163)"/><linearGradient id="b" x1="3.589" x2="6.588" y1="21.475" y2="20.547" xlink:href="#a" gradientUnits="userSpaceOnUse" gradientTransform="matrix(.801 0 0 .801 -.272 6.163)"/></defs><g><g fill-rule="evenodd"><path fill="#2e3436" stroke="#eeeeec" stroke-width="1.602" d="M3.16 6.5c-.77.4-1.27-.56-1.35-1.42-.1-1.13-.57-2.56-.57-2.56s2.34.55 2.72 1.62c.38 1.07.4 2.08-.8 2.35z"/><path fill="#555753" stroke="#eeeeec" stroke-width="1.602" d="M2.76 6.95c.9 3.37 2.36 8.64 3.16 8.24.83-.44-.25-5.5-1.37-8.96l-1.8.7z"/><path fill="#555753" d="M2.7 7.3c.84 3.3 2.5 8.3 3.26 7.9.8-.42-.2-5.35-1.24-8.75L2.7 7.3z"/><path fill="#2e3436" d="M3.18 6.15c-.77.42-1.53-.44-1.6-1.3C1.45 3.72.73 2 .73 2s2.65.8 3.2 1.8c.46.86.42 2.1-.76 2.35z"/><path fill="#eeeeec" fill-opacity=".75" d="M3.7 5.57C3.6 3.95 3.33 3.1 1.9 2.84c.9 1.22 1.36 1.84 1.8 2.73z"/><path fill="url(#b)" d="M2.26 22.32l.7 2.05 2.05-.9-.5-2.06-2.24.92z" color="#000" overflow="visible" transform="translate(0 -16) translate(.071 .107)"/></g><g><path stroke="#efeeec" stroke-width=".38.472" d="M11.54 9.5h4.1L6.4.28v13.04l2.9-2.9 2.15 5.22 2.24-.93z" stroke-linejoin="round"/><path fill="#babdb6" d="M7.2 3.4v7.64l.85-.9L7.3 3.4z"/></g></g></svg>