<svg xmlns="http://www.w3.org/2000/svg" width="16" height="16" xmlns:xlink="http://www.w3.org/1999/xlink" version="1"><defs><linearGradient id="a"><stop offset="0" stop-color="#c4a000"/><stop offset="1" stop-color="#c4a000" stop-opacity="0"/></linearGradient><linearGradient x1="7.423" x2="1.171" y1="6.338" y2="12.6" xlink:href="#a" gradientUnits="userSpaceOnUse" gradientTransform="translate(7.078 13.337)"/><linearGradient x1="7.423" x2="1.171" y1="6.338" y2="12.6" xlink:href="#a" gradientUnits="userSpaceOnUse"/><linearGradient x1="7.423" x2="1.171" y1="6.338" y2="12.6" xlink:href="#a" gradientUnits="userSpaceOnUse" gradientTransform="translate(10.017 1.45)"/><linearGradient id="d" x1="7.423" x2="1.171" y1="6.338" y2="12.6" xlink:href="#a" gradientUnits="userSpaceOnUse" gradientTransform="matrix(.635 .151 -.151 .635 6.417 14.142)"/><linearGradient id="b" x1="7.423" x2="1.171" y1="6.338" y2="12.6" xlink:href="#a" gradientUnits="userSpaceOnUse" gradientTransform="matrix(.635 .151 -.151 .635 8.25 7.917)"/><linearGradient id="c" x1="7.423" x2="1.171" y1="6.338" y2="12.6" xlink:href="#a" gradientUnits="userSpaceOnUse" gradientTransform="matrix(.635 .151 -.151 .635 1.334 7.687)"/></defs><g><path fill="url(#b)" fill-rule="evenodd" d="M12.34 10.08l2.12 4-6.77 3.5-1.2-2.6 5.84-4.9z" transform="translate(0 -8)"/><g color="#000" stroke-linejoin="round"><path fill="#fde661" fill-rule="evenodd" stroke="#9a6700" stroke-width=".65532" d="M15.57 4.36c-.25 1.05-1.3 1.7-2.36 1.45-1.04-.24-1.7-1.3-1.44-2.35.25-1.05 1.3-1.7 2.36-1.45 1.05.25 1.7 1.3 1.45 2.36z" overflow="visible"/><path fill="none" stroke="#eeeeec" stroke-width="1.343" d="M11.3 34c0 1.46-1.22 2.65-2.73 2.65-1.5 0-2.72-1.2-2.72-2.65 0-1.46 1.22-2.65 2.72-2.65 1.5 0 2.73 1.2 2.73 2.65z" transform="matrix(.466 .111 -.114 .479 13.542 -13.332)" overflow="visible"/></g><path fill="url(#c)" fill-rule="evenodd" d="M5.43 9.85l2.12 4-6.78 3.5-1.18-2.6 5.83-4.9z" transform="translate(0 -8)"/><g color="#000" stroke-linejoin="round"><path fill="#fde661" fill-rule="evenodd" stroke="#9a6700" stroke-width=".65532" d="M8.3 4.35C8.07 5.4 7 6.05 5.97 5.8 4.9 5.55 4.26 4.5 4.5 3.44 4.75 2.4 5.8 1.74 6.86 2c1.05.24 1.7 1.3 1.45 2.35z" overflow="visible"/><path fill="none" stroke="#eeeeec" stroke-width="1.343" d="M11.3 34c0 1.46-1.22 2.65-2.73 2.65-1.5 0-2.72-1.2-2.72-2.65 0-1.46 1.22-2.65 2.72-2.65 1.5 0 2.73 1.2 2.73 2.65z" transform="matrix(.466 .111 -.114 .479 6.288 -13.34)" overflow="visible"/></g><path fill="url(#d)" fill-rule="evenodd" d="M10.5 16.3l2.13 4.02-6.77 3.48-1.2-2.6 5.85-4.9z" transform="translate(0 -8)"/><g color="#000" stroke-linejoin="round"><path fill="#fde661" fill-rule="evenodd" stroke="#9a6700" stroke-width=".65532" d="M13.68 10.64c-.25 1.06-1.3 1.7-2.36 1.46-1.05-.25-1.7-1.3-1.45-2.36.25-1.05 1.3-1.7 2.36-1.45 1.05.24 1.7 1.3 1.45 2.34z" overflow="visible"/><path fill="none" stroke="#eeeeec" stroke-width="1.343" d="M11.3 34c0 1.46-1.22 2.65-2.73 2.65-1.5 0-2.72-1.2-2.72-2.65 0-1.46 1.22-2.65 2.72-2.65 1.5 0 2.73 1.2 2.73 2.65z" transform="matrix(.466 .111 -.114 .479 11.653 -7.045)" overflow="visible"/></g></g></svg>