<svg xmlns="http://www.w3.org/2000/svg" width="16" height="16" xmlns:xlink="http://www.w3.org/1999/xlink" version="1"><defs><linearGradient id="b"><stop offset="0" stop-opacity=".495"/><stop offset="1" stop-opacity="0"/></linearGradient><linearGradient id="a"><stop offset="0" stop-color="#fff"/><stop offset="1" stop-color="#fdffc5"/></linearGradient><linearGradient><stop offset="0" stop-color="#555753"/><stop offset="1" stop-color="#373836"/></linearGradient><linearGradient><stop offset="0" stop-color="#555753"/><stop offset="1" stop-color="#444643"/></linearGradient><linearGradient><stop offset="0" stop-color="#eeeeec"/><stop offset="1" stop-color="#c6c6bf"/></linearGradient><linearGradient><stop offset="0" stop-color="#c6c6bf"/><stop offset="1" stop-color="#eeeeec"/></linearGradient><linearGradient><stop offset="0" stop-color="#eeeeec"/><stop offset="1" stop-color="#eeeeec"/></linearGradient><linearGradient id="d" x1="1" x2="15" y1="1" y2="15" xlink:href="#a" gradientUnits="userSpaceOnUse" gradientTransform="translate(0 -.932)"/><radialGradient id="c" cx="8" cy="14.5" r="8" xlink:href="#b" fx="8" fy="14.5" gradientTransform="matrix(1 0 0 .25 0 10.375)" gradientUnits="userSpaceOnUse"/></defs><g><path fill="url(#c)" fill-rule="evenodd" d="M2 12l-2 4h16l-2-4H2z"/><path fill="url(#d)" fill-rule="evenodd" d="M1 .07h14v14H1z" color="#000" overflow="visible"/><g fill="#2e3436" fill-rule="evenodd" color="#000"><path d="M1 .07v2h1v-1h1v-1H1z" overflow="visible"/><path d="M4 0h1.93v1.07H4z" overflow="visible"/><path d="M9.93 0H12v1.07H9.93z" overflow="visible"/><path d="M7 0h1.93v1.07H7z" overflow="visible"/><path d="M15 .07v2h-1v-1h-1v-1h2z" overflow="visible"/><path d="M1.07 14.07h2v-1h-1v-1h-1v2z" overflow="visible"/><path d="M1 11.07V9.14h1.07v1.93z" overflow="visible"/><path d="M1 5.14V3.07h1.07v2.07z" overflow="visible"/><path d="M1 8.07V6.14h1.07v1.93z" overflow="visible"/><g><path d="M15 14.07v-2h-1v1h-1v1h2z" overflow="visible"/><path d="M12 14.14h-1.93v-1.07H12z" overflow="visible"/><path d="M6.07 14.14H4v-1.07h2.07z" overflow="visible"/><path d="M9 14.14H7.07v-1.07H9z" overflow="visible"/></g><path d="M15.07 3.07V5H14V3.07z" overflow="visible"/><path d="M15.07 9v2.07H14V9z" overflow="visible"/><path d="M15.07 6.07V8H14V6.07z" overflow="visible"/></g><path fill="none" stroke="#fff" d="M2.5 1.5h11v11.08h-11z" color="#000" stroke-linejoin="round" overflow="visible"/></g></svg>