<svg xmlns="http://www.w3.org/2000/svg" width="16" height="16" xmlns:xlink="http://www.w3.org/1999/xlink"><title>16</title><desc>Created with Sketch.</desc><defs><path id="a" d="M1.43 3.9s1.58-.56 2.2.37c.6.94 1.3 1.25 1.67.76.36-.5.25-1.27.06-1.83-.18-.56-.6-2.57.8-2.62 1.4-.05.98 1.42.8 2.24-.2.82-.44 1.72.05 1.97.5.23 1.3-.06 1.56-.3.25-.23 1.35-.62 1.74.2.4.8-.32 1.66-.92 1.75-.6.08-1.32.42-1.46.83-.13.42.6 1.4.64 1.95.04.57-.17 1.65-1.08 1.7-.9.05-1.2-.52-1.26-.94-.06-.44.07-1-.3-1.1-.37-.1-.7.03-.9.5-.22.44-.52.87-1 .52-.47-.36-.43-.9-.22-1.22.2-.32.47-.65.43-1.18-.04-.53-.6-1.16-1.2-1.26-.64-.1-1.5-.66-1.62-1.04-.12-.37-.28-.8.03-1.3z"/><mask id="b" width="10.16" height="11.349" x="-.5" y="-.5"><path fill="#fff" d="M.75.08H10.9v11.35H.76z"/><use xlink:href="#a"/></mask><linearGradient id="d" x1="2.495%" x2="65.97%" y1="5.394%" y2="96.162%"><stop stop-color="#fff" offset="0%"/><stop stop-color="#BCBCB4" offset="100%"/></linearGradient><linearGradient id="c" x1="-2.688%" x2="96.641%" y1="27.173%" y2="72.303%"><stop stop-color="#6E6E6E" offset="0%"/><stop offset="100%"/></linearGradient></defs><g fill="none"><g><g transform="rotate(-88 5.831 5.757)"><use fill="#B8E986" xlink:href="#a"/><use stroke="#749552" mask="url(#b)" xlink:href="#a"/></g><g><path fill="url(#d)" stroke="url(#c)" stroke-width=".569" d="M3.7 11.1l1.8-.75L4.2 7.4h3.26L.1.06v10.4l2.3-2.3z" transform="translate(6 4.5)"/><path fill="#fff" d="M8.37 11.78L6.9 6.22l.07 6.85 1.4-1.3z"/></g></g></g></svg>