<svg xmlns="http://www.w3.org/2000/svg" width="16" height="16" xmlns:xlink="http://www.w3.org/1999/xlink" version="1"><defs><linearGradient id="e"><stop offset="0" stop-color="#c4a000"/><stop offset="1" stop-color="#edd400"/></linearGradient><linearGradient id="d"><stop offset="0" stop-color="#c4a000"/><stop offset="1" stop-color="#c4a000" stop-opacity="0"/></linearGradient><radialGradient cx="108.535" cy="-1.444" r="32.544" gradientUnits="userSpaceOnUse" fy="-1.444" fx="108.535"><stop offset="0" stop-color="#fff"/><stop offset="1" stop-color="#8794A0"/></radialGradient><radialGradient cx="113.36" cy="23.414" r="20.93" gradientUnits="userSpaceOnUse" fy="23.414" fx="113.36"><stop offset="0" stop-color="#fff"/><stop offset="1" stop-color="#8794A0"/></radialGradient><radialGradient cx="125.836" cy="22.138" r="29.536" gradientUnits="userSpaceOnUse" fy="22.138" fx="125.836"><stop offset="0" stop-color="#fff"/><stop offset="1" stop-color="#8794A0"/></radialGradient><linearGradient id="c"><stop offset="0" stop-color="#fff"/><stop offset="1" stop-color="#eeeeec" stop-opacity="0"/></linearGradient><radialGradient cx="294.624" cy="80.627" r="48.777" fx="294.624" fy="80.627" gradientUnits="userSpaceOnUse"><stop offset="0" stop-color="#BAD1D7"/><stop offset=".826" stop-color="#6D7580"/><stop offset="1" stop-color="#41454C"/></radialGradient><radialGradient cx="257.459" cy="35.376" r="68.717" fx="257.459" fy="35.376" gradientUnits="userSpaceOnUse"><stop offset="0" stop-color="#fff"/><stop offset="1" stop-color="#8794A0"/></radialGradient><radialGradient cx="264.957" cy="80.291" r="53.348" fx="264.957" fy="80.291" gradientUnits="userSpaceOnUse"><stop offset="0" stop-color="#BAD1D7"/><stop offset="1" stop-color="#8794A0"/></radialGradient><linearGradient id="a"><stop offset="0" stop-color="#fff"/><stop offset="1" stop-color="#cdcdcd"/></linearGradient><linearGradient x1="2.131" x2="46.011" y1="26.143" y2="26.143" xlink:href="#a" gradientUnits="userSpaceOnUse" gradientTransform="matrix(.967 0 0 .966 .802 .898)"/><linearGradient id="b"><stop offset="0" stop-color="#e8e8e8"/><stop offset="1" stop-color="#b8b8b8"/></linearGradient><linearGradient x1="14.929" x2="35.357" y1="17.929" y2="27.929" xlink:href="#b" gradientUnits="userSpaceOnUse" gradientTransform="matrix(.864 0 0 .863 3.346 6.117)"/><linearGradient><stop offset="0" stop-color="#ae7cbb"/><stop offset="1" stop-color="#5c3566"/></linearGradient><linearGradient><stop offset="0" stop-color="#9a7e00"/><stop offset="1" stop-color="#643e00"/></linearGradient><linearGradient><stop offset="0" stop-color="#6e6e6e"/><stop offset="1"/></linearGradient><linearGradient><stop offset="0" stop-color="#fff"/><stop offset="1" stop-color="#bcbcb4"/></linearGradient><linearGradient x1="14.929" x2="35.357" y1="17.929" y2="27.929" xlink:href="#b" gradientUnits="userSpaceOnUse" gradientTransform="matrix(.245 0 0 .241 2.154 1.147)"/><linearGradient x1="2.131" x2="46.011" y1="26.143" y2="26.143" xlink:href="#a" gradientUnits="userSpaceOnUse" gradientTransform="matrix(.275 0 0 .27 1.431 -.313)"/><linearGradient x1="14.929" x2="35.357" y1="17.929" y2="27.929" xlink:href="#b" gradientUnits="userSpaceOnUse" gradientTransform="matrix(.245 0 0 .241 2.154 1.147)"/><linearGradient x1="2.131" x2="46.011" y1="26.143" y2="26.143" xlink:href="#a" gradientUnits="userSpaceOnUse" gradientTransform="matrix(.275 0 0 .27 1.431 -.313)"/><linearGradient x1="14.929" x2="35.357" y1="17.929" y2="27.929" xlink:href="#b" gradientUnits="userSpaceOnUse" gradientTransform="matrix(.208 0 0 .49 1.5 -4.864)"/><linearGradient x1="2.131" x2="46.011" y1="26.143" y2="26.143" xlink:href="#a" gradientUnits="userSpaceOnUse" gradientTransform="matrix(.233 0 0 .548 .886 -7.825)"/><linearGradient x1="14.929" x2="35.357" y1="17.929" y2="27.929" xlink:href="#b" gradientUnits="userSpaceOnUse" gradientTransform="matrix(.208 0 0 .49 1.5 -4.864)"/><linearGradient x1="9.086" x2="34.217" y1="25.773" y2="30.354" xlink:href="#a" gradientUnits="userSpaceOnUse" gradientTransform="matrix(.233 0 0 .548 .886 -7.825)"/><linearGradient x1="14.929" x2="35.357" y1="17.929" y2="27.929" xlink:href="#b" gradientUnits="userSpaceOnUse" gradientTransform="matrix(.208 0 0 .49 1.5 -4.864)"/><linearGradient x1="2.131" x2="34.217" y1="26.143" y2="30.354" xlink:href="#a" gradientUnits="userSpaceOnUse" gradientTransform="matrix(.233 0 0 .548 .886 -7.825)"/><linearGradient x1="14.929" x2="35.357" y1="17.929" y2="27.929" xlink:href="#b" gradientUnits="userSpaceOnUse" gradientTransform="matrix(.208 0 0 .49 1.5 -4.864)"/><linearGradient x1="9.086" x2="34.217" y1="25.773" y2="30.354" xlink:href="#a" gradientUnits="userSpaceOnUse" gradientTransform="matrix(.233 0 0 .548 .886 -7.825)"/><linearGradient x1="14.107" x2="39.69" y1="4.772" y2="43.606" xlink:href="#c" gradientUnits="userSpaceOnUse" gradientTransform="matrix(.503 0 0 .518 .111 -.224)"/><linearGradient id="f" x1="10.857" x2="-.045" y1="9.517" y2="11.814" xlink:href="#d" gradientUnits="userSpaceOnUse" gradientTransform="matrix(.67 0 0 .67 -.03 7.895)"/><linearGradient id="g" x1="110.949" x2="114.404" y1="6.388" y2="21.609" xlink:href="#e" gradientUnits="userSpaceOnUse"/></defs><g><path fill="url(#f)" fill-rule="evenodd" d="M7.03 8.85c-2.77-.08-5.07.47-7.12 1.7L0 21.6c3.8-.3 7.5.5 11.13 2.3L7.03 8.84z" transform="translate(0 -8)"/><path fill="none" stroke="#655300" stroke-width=".67" d="M3.48 11.3l7.54 4.17 4.64-7.62-2.4-3.14-6.1-3.43-4.12 6.05.44 3.97z" color="#000" overflow="visible"/><path fill="#fce94f" d="M3.43 7.4l.4 3.72 4.74-7L7.2 1.7z"/><path fill="url(#g)" d="M103.97 15.73l7.07-10.42 10.08 5.66-6.56 10.65z" transform="matrix(.67 0 0 .67 -65.827 .574)"/><path fill="#edd400" d="M15.32 7.92l-6.75-3.8L7.2 1.7 13.07 5z"/><path fill="none" stroke="#f0f0f0" stroke-width=".67" d="M8.37 4.5l-4.35 6.34" color="#000" stroke-linecap="round" overflow="visible"/><path fill="none" stroke="#f0f0f0" stroke-width=".67" d="M8.43 4.5L7.3 2.14" color="#000" stroke-linecap="round" overflow="visible"/><path fill="none" stroke="#f0f0f0" stroke-width=".67" d="M8.46 4.46l6.4 3.43" color="#000" stroke-linecap="round" overflow="visible"/><path fill="none" stroke="#eeeeec" stroke-opacity=".753" stroke-width=".67" d="M3.74 7.53L7.3 2.15l5.52 3.08 2.1 2.68-4.12 6.68-6.76-3.7-.3-3.35z"/></g></svg>