<svg xmlns="http://www.w3.org/2000/svg" width="16" height="16" xmlns:xlink="http://www.w3.org/1999/xlink" version="1"><defs><linearGradient x1="18.11" x2="11.367" y1="3.569" y2="10.688" xlink:href="#a" gradientUnits="userSpaceOnUse" gradientTransform="matrix(.973 .231 -.231 .973 16.837 -3.319)"/><linearGradient x1="7.423" x2="1.171" y1="6.338" y2="12.6" xlink:href="#a" gradientUnits="userSpaceOnUse" gradientTransform="matrix(.973 .231 -.231 .973 20.215 -3.319)"/><linearGradient id="a"><stop offset="0" stop-color="#555753"/><stop offset="1" stop-color="#888a85" stop-opacity="0"/></linearGradient><linearGradient x1="18.073" x2="11.173" y1="13.162" y2="20.596" xlink:href="#a" gradientUnits="userSpaceOnUse" gradientTransform="matrix(.973 .231 -.231 .973 15.711 -5.617)"/><linearGradient id="b"><stop offset="0" stop-color="#fce94f"/><stop offset="1" stop-color="#fce94f" stop-opacity=".502"/></linearGradient><linearGradient id="c" x1="12.738" x2="12.437" y1="28.134" y2="17.284" xlink:href="#b" gradientUnits="userSpaceOnUse"/><linearGradient x1="18.11" x2="11.367" y1="3.569" y2="10.688" xlink:href="#a" gradientUnits="userSpaceOnUse" gradientTransform="matrix(.973 .231 -.231 .973 16.837 -3.319)"/><linearGradient x1="7.423" x2="1.171" y1="6.338" y2="12.6" xlink:href="#a" gradientUnits="userSpaceOnUse" gradientTransform="matrix(.973 .231 -.231 .973 20.215 -3.319)"/><linearGradient x1="18.073" x2="11.173" y1="13.162" y2="20.596" xlink:href="#a" gradientUnits="userSpaceOnUse" gradientTransform="matrix(.973 .231 -.231 .973 15.711 -5.617)"/><linearGradient id="f" x1="18.073" x2="13.595" y1="13.162" y2="18.033" xlink:href="#a" gradientUnits="userSpaceOnUse" gradientTransform="matrix(.057 .574 -.574 .057 14.373 1.223)"/><linearGradient id="e" x1="7.423" x2="3.807" y1="6.338" y2="10.353" xlink:href="#a" gradientUnits="userSpaceOnUse" gradientTransform="matrix(.057 .574 -.574 .057 15.492 6.282)"/><linearGradient id="d" x1="18.11" x2="14.431" y1="3.569" y2="7.106" xlink:href="#a" gradientUnits="userSpaceOnUse" gradientTransform="matrix(.057 .574 -.574 .057 13.306 5.023)"/></defs><g><path fill="none" stroke="#8b7100" stroke-width="1.84.104" d="M10.3 4.24a5.55 2.18-44.65 1 1-7.92 7.8 5.55 2.18-44.65 1 1 7.9-7.8z" color="#000" stroke-linecap="round" stroke-linejoin="round" overflow="visible"/><path fill="#fce94f" fill-rule="evenodd" stroke="#8b7100" stroke-width="1.254" d="M13.27 14.97l-4-1.75 2.17-2.12 1.83 3.87z"/><path fill="none" stroke="#8b7100" stroke-width="1.88" d="M2.1 11.43l-.52-8.2L9.63 4"/><path fill="none" stroke="#8b7100" stroke-width="1.88" d="M2.28 3.85l8.28 8.5"/><path fill="none" stroke="#fce94f" stroke-width=".783" d="M1.6 3.2l9.14 9.35"/><path fill="none" stroke="#8b7100" stroke-width="1.88" d="M9.83 7.3c-.46.77-1.1 1.58-1.88 2.35C7 10.6 6 11.33 5.08 11.78" color="#000" stroke-linecap="round" stroke-linejoin="round" overflow="visible"/><path fill="none" stroke="url(#c)" stroke-width="1.71" d="M24.7 22.8a12.12 4.75 0 1 1-24.25 0 12.12 4.75 0 1 1 24.24 0z" transform="matrix(.326 -.322 .322 .326 -5.11 4.684)" color="#000" stroke-linecap="round" stroke-linejoin="round" overflow="visible"/><path fill="none" stroke="#fce94f" stroke-width=".783" d="M2.1 11.4l-.52-8.24 8.2.74"/><path fill="#fce94f" fill-rule="evenodd" d="M13.34 15.02l-4.1-1.86 2.22-2L13.34 15z"/><path fill="url(#d)" fill-rule="evenodd" d="M14.48 14.9l-2.73 2.92-4.87-4.64 1.83-1.74 5.78 3.46z" color="#000" overflow="visible" transform="translate(0 -8)"/><path fill="#babdb6" fill-rule="evenodd" stroke="#2e3436" stroke-width=".62928" d="M13.5 10.25a1.73 1.73 84.3 1 1-.34-3.44 1.73 1.73 84.3 1 1 .34 3.45z" color="#000" stroke-linejoin="round" overflow="visible"/><path fill="none" stroke="#eeeeec" stroke-width="1.46" d="M11.3 34a2.73 2.65 0 1 1-5.45 0 2.73 2.65 0 1 1 5.45 0z" transform="matrix(.042 .421 -.433 .043 27.7 3.455)" color="#000" stroke-linejoin="round" overflow="visible"/><path fill="url(#e)" fill-rule="evenodd" d="M14.87 10.32l-2.74 2.93L7.26 8.6 9.1 6.86l5.77 3.46z" transform="translate(0 -8)"/><path fill="#babdb6" fill-rule="evenodd" stroke="#2e3436" stroke-width=".62928" d="M13.6 5.46A1.73 1.73 84.3 1 1 13.27 2a1.73 1.73 84.3 1 1 .35 3.46z" color="#000" stroke-linejoin="round" overflow="visible"/><path fill="none" stroke="#eeeeec" stroke-width="1.46" d="M11.3 34a2.73 2.65 0 1 1-5.45 0 2.73 2.65 0 1 1 5.45 0z" transform="matrix(.042 .421 -.433 .043 27.801 -1.341)" color="#000" stroke-linejoin="round" overflow="visible"/><path fill="url(#f)" fill-rule="evenodd" d="M9.82 11.36L7.1 14.3 2.2 9.63 4.05 7.9l5.77 3.46z" color="#000" overflow="visible" transform="translate(0 -8)"/><path fill="#babdb6" fill-rule="evenodd" stroke="#2e3436" stroke-width=".62928" d="M8.78 6.7a1.73 1.73 84.3 1 1-.35-3.45 1.73 1.73 84.3 1 1 .35 3.44z" color="#000" stroke-linejoin="round" overflow="visible"/><path fill="none" stroke="#eeeeec" stroke-width="1.46" d="M11.3 34a2.73 2.65 0 1 1-5.45 0 2.73 2.65 0 1 1 5.45 0z" transform="matrix(.042 .421 -.433 .043 22.973 -.109)" color="#000" stroke-linejoin="round" overflow="visible"/></g></svg>