<svg xmlns="http://www.w3.org/2000/svg" width="16" height="16" version="1"><defs><linearGradient><stop offset="0" stop-color="#fff"/><stop offset="1" stop-color="#eeeeec" stop-opacity="0"/></linearGradient></defs><g color="#000" stroke-linejoin="round"><g><path fill="#888a85" fill-rule="evenodd" stroke="#555753" stroke-width=".88.143" d="M4.53 6.5a2 2 0 1 1-4 0 2 2 0 1 1 4 0z" overflow="visible"/><path fill="none" stroke="#babdb6" stroke-opacity=".557" stroke-width=".46.086" d="M3.8 6.5a1.25 1.23 0 1 1-2.5 0 1.25 1.23 0 1 1 2.5 0z" overflow="visible"/></g><g><path fill="#888a85" fill-rule="evenodd" stroke="#555753" stroke-width=".88.143" d="M7.54 11.5a2 2 0 1 1-4 0 2 2 0 1 1 4 0z" overflow="visible"/><path fill="none" stroke="#babdb6" stroke-opacity=".557" stroke-width=".46.086" d="M6.8 11.5a1.25 1.23 0 1 1-2.5 0 1.25 1.23 0 1 1 2.5 0z" overflow="visible"/></g><g><path fill="#888a85" fill-rule="evenodd" stroke="#555753" stroke-width=".88.143" d="M15.5 8.5a2 2 0 1 1-4 0 2 2 0 1 1 4 0z" overflow="visible"/><path fill="none" stroke="#babdb6" stroke-opacity=".557" stroke-width=".46.086" d="M14.77 8.5a1.25 1.23 0 1 1-2.5 0 1.25 1.23 0 1 1 2.5 0z" overflow="visible"/></g><g><path fill="#888a85" fill-rule="evenodd" stroke="#555753" stroke-width=".88.143" d="M11.52 4.5a2 2 0 1 1-4 0 2 2 0 1 1 4 0z" overflow="visible"/><path fill="none" stroke="#babdb6" stroke-opacity=".557" stroke-width=".46.086" d="M10.8 4.48a1.25 1.23 0 1 1-2.5 0 1.25 1.23 0 1 1 2.5 0z" overflow="visible"/></g></g></svg>