<svg xmlns="http://www.w3.org/2000/svg" width="16" height="16" xmlns:xlink="http://www.w3.org/1999/xlink"><defs><linearGradient id="a"><stop offset="0" stop-color="#6e6e6e"/><stop offset="1"/></linearGradient><linearGradient x1="16.672" x2="40.52" y1="296.05" y2="314.1" xlink:href="#a" gradientUnits="userSpaceOnUse"/><linearGradient id="b"><stop offset="0" stop-color="#fff"/><stop offset="1" stop-color="#bcbcb4"/></linearGradient><linearGradient x1="17.916" x2="33.156" y1="287.34" y2="323.642" xlink:href="#b" gradientUnits="userSpaceOnUse"/><linearGradient x1="21.016" x2="21.016" y1="18.442" y2="32.728" xlink:href="#c" gradientUnits="userSpaceOnUse" gradientTransform="matrix(.441 0 0 .683 .874 -5.613)"/><linearGradient id="c"><stop offset="0" stop-color="#ddddd8"/><stop offset="1" stop-color="#fff"/></linearGradient><linearGradient x1="21.016" x2="21.016" y1="18.442" y2="32.728" gradientTransform="matrix(.313 0 0 .485 .763 -10.45)" gradientUnits="userSpaceOnUse" xlink:href="#c"/><linearGradient id="d" x1="21.016" x2="21.016" y1="18.442" y2="32.728" xlink:href="#c" gradientUnits="userSpaceOnUse" gradientTransform="matrix(.313 0 0 .485 .763 -10.45)"/><linearGradient id="e" x1="17.916" x2="33.156" y1="287.34" y2="323.642" xlink:href="#b" gradientUnits="userSpaceOnUse" gradientTransform="matrix(.298 0 0 .281 3.317 -75.827)"/><linearGradient id="f" x1="16.672" x2="40.52" y1="296.05" y2="314.1" xlink:href="#a" gradientUnits="userSpaceOnUse" gradientTransform="matrix(.298 0 0 .281 3.317 -75.827)"/></defs><g><g><path fill="url(#d)" fill-rule="evenodd" d="M1.62 1.43c4.86-6.65 9.1-2.9 11.43.98-2.4 6.7-9.63 3.98-11.43-.97z" transform="translate(-1.351 2.568)"/><path fill="#fff" fill-opacity=".75" fill-rule="evenodd" d="M.35 4.27c3.38.58 7.13.96 10.45.37C7.3 1.57 2.44 2.56.35 4.27z"/><path d="M8.38 4.63c0 1.4-1.07 2.53-2.4 2.53-1.32 0-2.4-1.14-2.4-2.53C3.6 3.23 4.67 2.1 6 2.1c1.33 0 2.4 1.13 2.4 2.53z" overflow="visible"/><path fill="#eeeeec" fill-opacity=".716" fill-rule="evenodd" d="M5.93 3.62s-.32-.65-.46-.95c-.47.17-1.22.7-1.34 1.03.2.28.53.6.7.82.36-.46.66-.74 1.1-.9z"/><path fill="#2e3436" fill-rule="evenodd" d="M.04 4.24C4.68.9 8.28 1.26 11.1 4.94l.9-.72C10.1 1.22 8.87.1 5.75.1 2.65.1.03 4.34.05 4.24z"/><path fill="#babdb6" fill-rule="evenodd" d="M.2 4.18c4.12 4.77 7.13 4.36 10.68 1.2l1.16 1.15C6.98 10.88 2.84 9.46.2 4.18z"/></g><path fill="url(#e)" stroke="url(#f)" stroke-width=".75" d="M8.5 14.8l2.22-2.97 1.67 3.82 1.7-1.18-1.64-3.3h3.17L8.48 4.4l.03 10.4z" stroke-linejoin="round"/><path fill="#fff" d="M10.46 11.1L9.04 6l.13 6.78 1.3-1.68z"/></g></svg>