<svg xmlns="http://www.w3.org/2000/svg" width="16" height="16" xmlns:xlink="http://www.w3.org/1999/xlink" version="1"><defs><linearGradient><stop offset="0" stop-color="#ffb56c"/><stop offset="1" stop-color="#f57900"/></linearGradient><linearGradient id="a"><stop offset="0" stop-color="#fedba7"/><stop offset="1" stop-color="#fdbf64"/></linearGradient><linearGradient x1="2.131" x2="46.011" y1="26.143" y2="26.143" xlink:href="#a" gradientUnits="userSpaceOnUse" gradientTransform="matrix(.967 0 0 .966 -15.543 -17.947)"/><linearGradient id="b"><stop offset="0" stop-color="#ffa54c"/><stop offset="1" stop-color="#f57900"/></linearGradient><linearGradient x1="14.929" x2="35.357" y1="17.929" y2="27.929" xlink:href="#b" gradientUnits="userSpaceOnUse" gradientTransform="matrix(.864 0 0 .863 -13 -12.728)"/><linearGradient><stop offset="0" stop-color="#ae7cbb"/><stop offset="1" stop-color="#5c3566"/></linearGradient><linearGradient><stop offset="0" stop-color="#9a7e00"/><stop offset="1" stop-color="#643e00"/></linearGradient><linearGradient><stop offset="0" stop-color="#6e6e6e"/><stop offset="1"/></linearGradient><linearGradient><stop offset="0" stop-color="#fff"/><stop offset="1" stop-color="#bcbcb4"/></linearGradient><linearGradient x1="14.929" x2="35.357" y1="17.929" y2="27.929" xlink:href="#b" gradientUnits="userSpaceOnUse" gradientTransform="matrix(.245 0 0 .241 2.154 1.147)"/><linearGradient x1="2.131" x2="46.011" y1="26.143" y2="26.143" xlink:href="#a" gradientUnits="userSpaceOnUse" gradientTransform="matrix(.275 0 0 .27 1.431 -.313)"/><linearGradient x1="14.929" x2="35.357" y1="17.929" y2="27.929" xlink:href="#b" gradientUnits="userSpaceOnUse" gradientTransform="matrix(.245 0 0 .241 2.154 1.147)"/><linearGradient x1="2.131" x2="46.011" y1="26.143" y2="26.143" xlink:href="#a" gradientUnits="userSpaceOnUse" gradientTransform="matrix(.275 0 0 .27 1.431 -.313)"/><linearGradient x1="14.929" x2="35.357" y1="17.929" y2="27.929" xlink:href="#b" gradientUnits="userSpaceOnUse" gradientTransform="matrix(.864 0 0 .863 -13 -12.728)"/><linearGradient x1="2.131" x2="46.011" y1="26.143" y2="26.143" xlink:href="#a" gradientUnits="userSpaceOnUse" gradientTransform="matrix(.967 0 0 .966 -15.543 -17.947)"/></defs><g stroke-width=".669" transform="translate(0 -8)"><path fill="#888a85" fill-rule="evenodd" stroke="#555753" d="M.4 16l7.63-7.67 7.6 7.64L8 23.64.4 16z" color="#000" stroke-linejoin="round" overflow="visible"/><path fill="none" stroke="#babdb6" d="M1.43 16.05L8.05 9.4 14.63 16 8 22.7l-6.57-6.65z" color="#000" overflow="visible"/><path fill="none" stroke="#555753" d="M4.12 12.08l7.98 7.98"/><path fill="none" stroke="#555753" d="M11.93 12.1l-8 7.97"/><rect width="5.435" height="5.435" x="-11.037" y="16.982" fill="#fde661" fill-rule="evenodd" stroke="#9a6700" ry="0" transform="rotate(-45.009)" overflow="visible" stroke-linejoin="round" color="#000"/><rect width="3.922" height="3.922" x="-10.35" y="17.773" fill="none" stroke="#eeeeec" ry="0" transform="matrix(.709 -.705 .709 .705 0 0)" color="#000" overflow="visible"/></g></svg>