<svg xmlns="http://www.w3.org/2000/svg" width="16" height="16" xmlns:xlink="http://www.w3.org/1999/xlink" version="1"><defs><linearGradient id="e"><stop offset="0" stop-color="#555753"/><stop offset="1" stop-color="#373836"/></linearGradient><linearGradient id="d"><stop offset="0" stop-color="#555753"/><stop offset="1" stop-color="#444643"/></linearGradient><linearGradient id="c"><stop offset="0" stop-color="#eeeeec"/><stop offset="1" stop-color="#c6c6bf"/></linearGradient><linearGradient id="b"><stop offset="0" stop-color="#c6c6bf"/><stop offset="1" stop-color="#eeeeec"/></linearGradient><linearGradient><stop offset="0" stop-color="#eeeeec"/><stop offset="1" stop-color="#eeeeec"/></linearGradient><linearGradient id="a"><stop offset="0"/><stop offset="1" stop-opacity="0"/></linearGradient><linearGradient x1="7.232" x2="19.072" y1="30.579" y2="25.114" xlink:href="#a" gradientUnits="userSpaceOnUse" gradientTransform="matrix(1.28 0 0 1.136 -1.68 -4.353)"/><linearGradient x1="27.509" x2="5.954" y1="14.138" y2="6.594" xlink:href="#b" gradientUnits="userSpaceOnUse"/><linearGradient x1="5.918" x2="8.4" y1="14.183" y2="30.655" xlink:href="#c" gradientUnits="userSpaceOnUse"/><linearGradient x1="7.232" x2="19.072" y1="30.579" y2="25.114" xlink:href="#a" gradientUnits="userSpaceOnUse" gradientTransform="matrix(1.28 0 0 1.136 -1.68 -4.353)"/><linearGradient x1="5.918" x2="8.4" y1="14.183" y2="30.655" xlink:href="#c" gradientUnits="userSpaceOnUse"/><linearGradient x1="27.509" x2="5.954" y1="14.138" y2="6.594" xlink:href="#b" gradientUnits="userSpaceOnUse"/><linearGradient id="i" x1="23.033" x2="5.954" y1="16.761" y2="6.594" xlink:href="#b" gradientUnits="userSpaceOnUse" gradientTransform="matrix(.499 0 0 .494 .015 .116)"/><linearGradient id="g" x1="5.918" x2="8.4" y1="14.183" y2="30.655" xlink:href="#c" gradientUnits="userSpaceOnUse" gradientTransform="matrix(.499 0 0 .499 .015 .012)"/><linearGradient id="f" x1="7.232" x2="19.072" y1="30.579" y2="25.114" xlink:href="#a" gradientUnits="userSpaceOnUse" gradientTransform="matrix(.638 0 0 .567 -.823 -2.158)"/><linearGradient id="j" x1="2.984" x2="11.503" y1="3.301" y2="8.372" xlink:href="#d" gradientUnits="userSpaceOnUse" gradientTransform="matrix(1 0 0 .99 0 .103)"/><linearGradient id="h" x1=".96" x2="6.557" y1="11.309" y2="11.309" xlink:href="#e" gradientUnits="userSpaceOnUse"/></defs><g fill-rule="evenodd"><path fill="url(#f)" d="M3 14.84l7.96-3.36L12.48 13l-8.2 2.97L3 14.84z" opacity=".553"/><path fill="url(#g)" stroke="url(#h)" stroke-width=".75" d="M5.64 8c-.3-.53-1.18-1.2-2.03-1.08-.74.13-1.15.2-1.52.64-.37.44-.7 1.26-.75 1.98.1 1.13.78 2.25 1.98 2.48.36.07.72.05 1.07 0-.24 1-.6 2-1.22 2.67l1.1 1c1.04-1.13 1.8-3.76 1.9-5.1.12-1.34-.2-2.06-.5-2.6zm-1.2.82c.2.3.22.85.2 1.57-.3.13-.7.13-1.03.15-.3-.06-.78-.6-.76-1.12 0-.38.33-.8.4-.87.14-.1.84-.22 1.2.26"/><path fill="url(#i)" stroke="url(#j)" stroke-width=".75" d="M6.4 1.22c-1.98.73-3.64 1.8-4.74 3S-.04 6.85.46 8.2c.5 1.33 1.93 2.02 3.56 2.2 1.63.2 3.6-.06 5.58-.8 1.98-.7 3.63-1.77 4.73-2.97 1.1-1.2 1.7-2.63 1.2-3.97-.5-1.33-1.93-2.03-3.56-2.22-1.63-.2-3.6.05-5.57.78zm.56 1.46c1.77-.65 3.5-.85 4.8-.7 1.3.16 2.07.65 2.3 1.23.2.58-.04 1.44-.92 2.4s-2.33 1.9-4.1 2.56c-1.77.65-3.5.86-4.82.7-1.3-.15-2.06-.64-2.28-1.2-.22-.6.03-1.45.9-2.4.9-.96 2.35-1.93 4.12-2.58z" color="#000" stroke-linejoin="round" overflow="visible"/><path fill="#eeeeec" stroke="#555753" stroke-width=".75" d="M4.88 8.83c-.42-.87-1.25-.6-1.55-.45-.34.17-.56.68-.57 1.1 0 .53.36.97.67 1.08.3.12.83.23 1.27-.02-.07.46-.16 1.1-.3 1.5-.48.13-1.2 0-1.73-.27-.92-.47-1.25-1.05-1.34-2.23.05-.75.4-1.6.8-2.07.92-1.05 3.66-1.28 4.1 1.37H4.87z" stroke-linejoin="bevel"/></g></svg>