<svg xmlns="http://www.w3.org/2000/svg" width="16" height="16" xmlns:xlink="http://www.w3.org/1999/xlink"><defs><linearGradient id="d"><stop offset="0" stop-color="#3c3e3b"/><stop offset=".5" stop-color="#60645f"/><stop offset="1" stop-color="#373836"/></linearGradient><linearGradient id="c"><stop offset="0" stop-color="#fff"/><stop offset="1" stop-color="#fdffc5"/></linearGradient><linearGradient id="b"><stop offset="0" stop-color="#2e3436" stop-opacity=".619"/><stop offset="1" stop-color="#2e3436" stop-opacity="0"/></linearGradient><linearGradient id="a"><stop offset="0" stop-color="#5f5f5f"/><stop offset=".5" stop-color="#fff"/><stop offset="1" stop-color="#5f5f5f"/></linearGradient><linearGradient id="h" x1="3.589" x2="6.588" y1="21.475" y2="20.547" xlink:href="#a" gradientUnits="userSpaceOnUse" gradientTransform="matrix(.763 0 0 .798 7.89 -9.849)"/><linearGradient id="e" x1="10.224" x2="3.827" y1="14.785" y2="10.04" xlink:href="#b" gradientUnits="userSpaceOnUse" gradientTransform="translate(3.747)"/><radialGradient id="f" cx="6.747" cy="4.061" r="6.994" xlink:href="#c" fx="6.747" fy="4.061" gradientTransform="matrix(.916 -.407 .193 .433 -.617 5.564)" gradientUnits="userSpaceOnUse"/><linearGradient id="g" x1="11.735" x2="13.589" y1="10.791" y2="10.25" xlink:href="#d" gradientUnits="userSpaceOnUse"/></defs><g fill-rule="evenodd"><path fill="#2e3436" stroke="#eeeeec" stroke-width="2" d="M11.1 6.3c-.74.43-1.2-.53-1.3-1.4-.1-1.12-.54-2.55-.54-2.55s2.22.56 2.6 1.62c.35 1.07.36 2.08-.76 2.34z"/><path fill="#555753" stroke="#eeeeec" stroke-width="2" d="M10.7 6.77c.87 3.36 2.26 8.6 3.02 8.2.8-.4-.23-5.44-1.3-8.9l-1.7.7z"/><path fill="url(#e)" d="M4.72 12.23c4.17 1.43 8.8 3.28 9.16 2.64.36-.63-3.53-2.6-7.08-4.26l-2.08 1.63z"/><path fill="url(#f)" stroke="#2e3436" stroke-dashoffset="2" d="M13.25 3.18c.82 1.7-.48 3.8-2.14 4.34-2.74-1.55-4.9-.4-6.73 2.2C2.13 11.27.57 9 .5 7.3.35 1.63 10.6-2.37 13.26 3.17z" color="#000" stroke-linejoin="round" stroke-dasharray="2,1" overflow="visible"/><path fill="#eeeeec" stroke="#eeeeec" d="M10.17 6.33l.65 2.05 1.97-.9-.5-2.05-2.13.9z" color="#000" overflow="visible"/><path fill="url(#g)" d="M10.65 7.13c.8 3.3 2.38 8.25 3.1 7.86.77-.42-.17-5.34-1.17-8.73l-1.93.86z"/><path fill="#2e3436" d="M11.12 5.98c-.74.42-1.46-.44-1.54-1.3-.1-1.13-.8-2.83-.8-2.83s2.53.8 3.05 1.8c.44.84.4 2.06-.7 2.33z"/><path fill="#eeeeec" fill-opacity=".75" d="M11.6 5.4c-.1-1.62-.35-2.45-1.7-2.72.86 1.22 1.3 1.83 1.7 2.72z"/><path fill="url(#h)" d="M10.3 6.25l.66 2.05 1.96-.9-.5-2.05-2.12.9z" color="#000" overflow="visible"/></g></svg>