<svg xmlns="http://www.w3.org/2000/svg" width="16" height="16" xmlns:xlink="http://www.w3.org/1999/xlink" version="1"><defs><linearGradient><stop offset="0" stop-color="#ffb56c"/><stop offset="1" stop-color="#f57900"/></linearGradient><linearGradient id="b"><stop offset="0" stop-color="#fedba7"/><stop offset="1" stop-color="#fdbf64"/></linearGradient><linearGradient id="a"><stop offset="0" stop-color="#ffa54c"/><stop offset="1" stop-color="#f57900"/></linearGradient><linearGradient><stop offset="0" stop-color="#ae7cbb"/><stop offset="1" stop-color="#5c3566"/></linearGradient><linearGradient><stop offset="0" stop-color="#9a7e00"/><stop offset="1" stop-color="#643e00"/></linearGradient><linearGradient><stop offset="0" stop-color="#6e6e6e"/><stop offset="1"/></linearGradient><linearGradient><stop offset="0" stop-color="#fff"/><stop offset="1" stop-color="#bcbcb4"/></linearGradient><linearGradient x1="14.929" x2="35.357" y1="17.929" y2="27.929" xlink:href="#a" gradientUnits="userSpaceOnUse" gradientTransform="matrix(.245 0 0 .241 2.154 1.147)"/><linearGradient x1="2.131" x2="46.011" y1="26.143" y2="26.143" xlink:href="#b" gradientUnits="userSpaceOnUse" gradientTransform="matrix(.275 0 0 .27 1.431 -.313)"/><linearGradient x1="14.929" x2="35.357" y1="17.929" y2="27.929" xlink:href="#a" gradientUnits="userSpaceOnUse" gradientTransform="matrix(.245 0 0 .241 2.154 1.147)"/><linearGradient x1="2.131" x2="46.011" y1="26.143" y2="26.143" xlink:href="#b" gradientUnits="userSpaceOnUse" gradientTransform="matrix(.275 0 0 .27 1.431 -.313)"/><linearGradient x1="14.929" x2="35.357" y1="17.929" y2="27.929" xlink:href="#a" gradientUnits="userSpaceOnUse" gradientTransform="matrix(.208 0 0 .49 1.5 -4.864)"/><linearGradient x1="2.131" x2="46.011" y1="26.143" y2="26.143" xlink:href="#b" gradientUnits="userSpaceOnUse" gradientTransform="matrix(.233 0 0 .548 .886 -7.825)"/><linearGradient x1="14.929" x2="35.357" y1="17.929" y2="27.929" xlink:href="#a" gradientUnits="userSpaceOnUse" gradientTransform="matrix(.208 0 0 .49 1.5 -4.864)"/><linearGradient x1="2.131" x2="46.011" y1="26.143" y2="26.143" xlink:href="#b" gradientUnits="userSpaceOnUse" gradientTransform="matrix(.233 0 0 .548 .886 -7.825)"/><linearGradient x1="14.929" x2="35.357" y1="17.929" y2="27.929" xlink:href="#a" gradientUnits="userSpaceOnUse" gradientTransform="matrix(.125 0 0 .294 3.5 -.318)"/><linearGradient x1="2.131" x2="46.011" y1="26.143" y2="26.143" xlink:href="#b" gradientUnits="userSpaceOnUse" gradientTransform="matrix(.14 0 0 .329 3.132 -2.095)"/><linearGradient x1="14.929" x2="35.357" y1="17.929" y2="27.929" xlink:href="#a" gradientUnits="userSpaceOnUse" gradientTransform="matrix(.125 0 0 .294 3.5 -.318)"/><linearGradient x1="2.131" x2="46.011" y1="26.143" y2="26.143" xlink:href="#b" gradientUnits="userSpaceOnUse" gradientTransform="matrix(.14 0 0 .329 3.132 -2.095)"/><linearGradient x1="14.929" x2="35.357" y1="17.929" y2="27.929" xlink:href="#a" gradientUnits="userSpaceOnUse" gradientTransform="matrix(.125 0 0 .294 3.5 -.318)"/><linearGradient x1="2.131" x2="46.011" y1="26.143" y2="26.143" xlink:href="#b" gradientUnits="userSpaceOnUse" gradientTransform="matrix(.14 0 0 .329 3.132 -2.095)"/><linearGradient x1="14.929" x2="35.357" y1="17.929" y2="27.929" xlink:href="#a" gradientUnits="userSpaceOnUse" gradientTransform="matrix(.125 0 0 .294 3.5 -.318)"/><linearGradient x1="2.131" x2="46.011" y1="26.143" y2="26.143" xlink:href="#b" gradientUnits="userSpaceOnUse" gradientTransform="matrix(.14 0 0 .329 3.132 -2.095)"/></defs><g><path fill="#fde661" fill-rule="evenodd" stroke="#9a6700" stroke-width=".687" d="M2.06 8.06l5.9-5.92 5.92 5.92-5.9 5.9-5.92-5.9z" color="#000" stroke-linejoin="round" overflow="visible"/><path fill="none" stroke="#9a6700" stroke-width=".687" d="M4.86 4.94l6.22 6.22"/><path fill="none" stroke="#9a6700" stroke-width=".687" d="M11.1 4.9l-6.22 6.2"/><path fill="none" stroke="#eeeeec" stroke-width=".687" d="M5.85 5.07l2.22-2.1 2.05 2.1-2.05 2.2-2.22-2.2z" stroke-linejoin="round"/><path fill="none" stroke="#eeeeec" stroke-width=".687" d="M8.76 8L11 5.9 13.06 8 11 10.17l-2.24-2.2z" stroke-linejoin="round"/><path fill="none" stroke="#eeeeec" stroke-width=".687" d="M5.8 10.96l2.23-2.1 2.06 2.1-2.07 2.2-2.23-2.2z" stroke-linejoin="round"/><path fill="none" stroke="#eeeeec" stroke-width=".687" d="M2.88 8L5.1 5.9 7.16 8 5.1 10.17 2.9 7.98z" stroke-linejoin="round"/><g fill="none" color="#000"><path stroke="#d3d7cf" stroke-opacity=".502" stroke-width="2.099" stroke-dashoffset="4.409" d="M22.43 11.43c0 6.08-4.93 11.02-11 11.02C5.32 22.45.4 17.5.4 11.43c0-6.08 4.94-11 11.02-11 6.08 0 11 4.92 11 11z" transform="matrix(.655 0 0 .653 .533 .503)" overflow="visible"/><path stroke="#555753" stroke-width="1.575" stroke-dashoffset="3.307" d="M22.43 11.43c0 6.08-4.93 11.02-11 11.02C5.32 22.45.4 17.5.4 11.43c0-6.08 4.94-11 11.02-11 6.08 0 11 4.92 11 11z" transform="matrix(.655 0 0 .653 .517 .499)" stroke-dasharray="1.57458992, 1.57458992" overflow="visible"/></g></g></svg>