<svg xmlns="http://www.w3.org/2000/svg" width="32" height="32" xmlns:xlink="http://www.w3.org/1999/xlink" version="1"><defs><linearGradient id="p" x1="359.477" x2="360.143" y1="165.859" y2="190.359" gradientUnits="userSpaceOnUse"><stop offset="0" stop-color="#b3c1d6"/><stop offset="1" stop-color="#224987"/></linearGradient><linearGradient id="o"><stop offset="0" stop-color="#193a6c"/><stop offset="1" stop-color="#193a6c" stop-opacity="0"/></linearGradient><linearGradient id="n"><stop offset="0" stop-color="#b3c1d6"/><stop offset="1" stop-color="#849abc" stop-opacity="0"/></linearGradient><linearGradient id="a" x1="116.365" x2="117.487" y1="315.413" y2="317.743" gradientUnits="userSpaceOnUse"><stop offset="0"/><stop offset=".163" stop-color="#070707"/><stop offset=".302" stop-color="#111"/><stop offset=".432" stop-color="#1D1D1D"/><stop offset=".557" stop-color="#2F3030"/><stop offset=".678" stop-color="#444"/><stop offset=".797" stop-color="#565859"/><stop offset=".91" stop-color="#616569"/><stop offset="1" stop-color="#626B73"/></linearGradient><linearGradient id="V" x1="116.365" x2="117.487" y1="315.413" y2="317.743" xlink:href="#a" gradientUnits="userSpaceOnUse" gradientTransform="matrix(1.014 0 0 1.014 -88.778 -287)"/><linearGradient id="b" x1="115.039" x2="116.658" y1="317.404" y2="314.497" gradientUnits="userSpaceOnUse"><stop offset="0" stop-color="#6D7780"/><stop offset=".138" stop-color="#717B84"/><stop offset=".274" stop-color="#7E878E"/><stop offset=".408" stop-color="#939CA2"/><stop offset=".542" stop-color="#B2BDC1"/><stop offset=".646" stop-color="#D3E0E4"/><stop offset=".819" stop-color="#A3AEB4"/><stop offset="1" stop-color="#7A858F"/></linearGradient><linearGradient id="U" x1="115.039" x2="116.658" y1="317.404" y2="314.497" xlink:href="#b" gradientUnits="userSpaceOnUse" gradientTransform="matrix(1.014 0 0 1.014 -88.778 -287)"/><linearGradient id="T" x1="117.931" x2="112.091" y1="301.457" y2="302.191" gradientUnits="userSpaceOnUse"><stop offset="0" stop-color="#B6C1CA"/><stop offset=".295" stop-color="#B9C4CC"/><stop offset=".547" stop-color="#C5CED5"/><stop offset=".783" stop-color="#D7DEE2"/><stop offset="1" stop-color="#F0F5F5"/></linearGradient><linearGradient id="S" x1="107.249" x2="107.311" y1="310.911" y2="304.16" gradientUnits="userSpaceOnUse"><stop offset="0" stop-color="#A5AEB8"/><stop offset=".424" stop-color="#A1AAB5"/><stop offset=".786" stop-color="#96A1AB"/><stop offset="1" stop-color="#8B97A3"/></linearGradient><linearGradient id="R" x1="115.32" x2="109.787" y1="309.503" y2="302.446" gradientUnits="userSpaceOnUse"><stop offset="0" stop-color="#ACB5BE"/><stop offset=".479" stop-color="#848B93"/><stop offset="1" stop-color="#596169"/></linearGradient><linearGradient id="c" x1="117.953" x2="115.538" y1="298" y2="295.644" gradientUnits="userSpaceOnUse"><stop offset="0" stop-color="#121414"/><stop offset="1" stop-color="#2B3033"/></linearGradient><linearGradient id="Q" x1="117.953" x2="115.538" y1="298" y2="295.644" xlink:href="#c" gradientUnits="userSpaceOnUse" gradientTransform="matrix(1.014 0 0 1.014 -88.778 -287)"/><linearGradient id="d" x1="102.519" x2="99.309" y1="307.758" y2="303.465" gradientUnits="userSpaceOnUse"><stop offset="0" stop-color="#121414"/><stop offset="1" stop-color="#2B3033"/></linearGradient><linearGradient id="P" x1="102.519" x2="99.309" y1="307.758" y2="303.465" xlink:href="#d" gradientUnits="userSpaceOnUse" gradientTransform="matrix(1.014 0 0 1.014 -88.778 -287)"/><linearGradient id="e" x1="100.924" x2="98.381" y1="302.737" y2="306.53" gradientUnits="userSpaceOnUse"><stop offset=".006" stop-color="#2C2F33"/><stop offset=".506" stop-color="#5A6166"/><stop offset=".638" stop-color="#585E63"/><stop offset=".751" stop-color="#50565A"/><stop offset=".856" stop-color="#43484C"/><stop offset=".957" stop-color="#34373B"/><stop offset="1" stop-color="#2C2F33"/></linearGradient><linearGradient id="O" x1="100.924" x2="98.381" y1="302.737" y2="306.53" xlink:href="#e" gradientUnits="userSpaceOnUse" gradientTransform="matrix(1.014 0 0 1.014 -88.778 -287)"/><linearGradient id="N" x1="104.598" x2="105.609" y1="313.838" y2="320.968" gradientUnits="userSpaceOnUse"><stop offset="0" stop-color="#CFDDE2"/><stop offset=".152" stop-color="#CBD8DD"/><stop offset=".281" stop-color="#BCC9CD"/><stop offset=".402" stop-color="#A7B1B5"/><stop offset=".519" stop-color="#899297"/><stop offset=".63" stop-color="#677077"/><stop offset=".646" stop-color="#626B73"/><stop offset="1" stop-color="#121212"/></linearGradient><linearGradient id="M" x1="105.425" x2="104.552" y1="320.149" y2="314.416" gradientUnits="userSpaceOnUse"><stop offset="0"/><stop offset=".123" stop-color="#070707"/><stop offset=".225" stop-color="#111"/><stop offset=".319" stop-color="#1C1C1C"/><stop offset=".409" stop-color="#2F2F2F"/><stop offset=".496" stop-color="#434444"/><stop offset=".58" stop-color="#555757"/><stop offset=".661" stop-color="#606467"/><stop offset=".73" stop-color="#626B73"/><stop offset=".751" stop-color="#596167"/><stop offset=".838" stop-color="#383B3D"/><stop offset=".912" stop-color="#232323"/><stop offset=".968" stop-color="#171616"/><stop offset="1" stop-color="#121212"/></linearGradient><linearGradient id="f" x1="108.432" x2="107.471" y1="318.345" y2="314.445" gradientUnits="userSpaceOnUse"><stop offset="0"/><stop offset=".123" stop-color="#070707"/><stop offset=".225" stop-color="#111"/><stop offset=".319" stop-color="#1C1C1C"/><stop offset=".409" stop-color="#2F2F2F"/><stop offset=".496" stop-color="#434444"/><stop offset=".58" stop-color="#555757"/><stop offset=".661" stop-color="#606467"/><stop offset=".73" stop-color="#626B73"/><stop offset=".751" stop-color="#596167"/><stop offset=".838" stop-color="#383B3D"/><stop offset=".912" stop-color="#232323"/><stop offset=".968" stop-color="#171616"/><stop offset="1" stop-color="#121212"/></linearGradient><linearGradient id="L" x1="108.432" x2="107.471" y1="318.345" y2="314.445" xlink:href="#f" gradientUnits="userSpaceOnUse" gradientTransform="matrix(1.014 0 0 1.014 -88.778 -287)"/><linearGradient id="g" x1="101.549" x2="104.147" y1="318.713" y2="316.779" gradientUnits="userSpaceOnUse"><stop offset="0" stop-color="#87959F"/><stop offset=".071" stop-color="#939EA6"/><stop offset=".489" stop-color="#D6D5D5"/><stop offset=".573" stop-color="#CECECE"/><stop offset=".673" stop-color="#B9B9B9"/><stop offset=".781" stop-color="#9A9C9C"/><stop offset=".894" stop-color="#737779"/><stop offset="1" stop-color="#4D5359"/></linearGradient><linearGradient id="K" x1="101.549" x2="104.147" y1="318.713" y2="316.779" xlink:href="#g" gradientUnits="userSpaceOnUse" gradientTransform="matrix(1.014 0 0 1.014 -88.778 -287)"/><linearGradient id="J" x1="110.47" x2="111.507" y1="323.062" y2="325.202" gradientUnits="userSpaceOnUse"><stop offset="0" stop-color="#161617"/><stop offset=".208" stop-color="#171718"/><stop offset=".385" stop-color="#1B1C1D"/><stop offset=".551" stop-color="#232425"/><stop offset=".711" stop-color="#2E2F32"/><stop offset=".864" stop-color="#3E4145"/><stop offset="1" stop-color="#52585E"/></linearGradient><linearGradient id="I" x1="115.234" x2="116.434" y1="322.629" y2="325.482" gradientUnits="userSpaceOnUse"><stop offset="0" stop-color="#1C1C1F"/><stop offset=".208" stop-color="#1E1E21"/><stop offset=".385" stop-color="#222326"/><stop offset=".551" stop-color="#2B2C30"/><stop offset=".711" stop-color="#383A3E"/><stop offset=".864" stop-color="#4B4F55"/><stop offset="1" stop-color="#626B73"/></linearGradient><linearGradient id="H" x1="111.698" x2="111.512" y1="321.808" y2="313.356" gradientUnits="userSpaceOnUse"><stop offset="0" stop-color="#616973"/><stop offset=".417" stop-color="#5E666F"/><stop offset=".772" stop-color="#565D64"/><stop offset="1" stop-color="#4D5359"/></linearGradient><linearGradient id="G" x1="112.503" x2="119.393" y1="312.623" y2="311.58" gradientUnits="userSpaceOnUse"><stop offset="0" stop-color="#6C7680"/><stop offset=".355" stop-color="#69727C"/><stop offset=".659" stop-color="#5F6870"/><stop offset=".942" stop-color="#51575E"/><stop offset="1" stop-color="#4D5359"/></linearGradient><linearGradient id="F" x1="118.09" x2="114.701" y1="320.286" y2="313.285" gradientUnits="userSpaceOnUse"><stop offset="0" stop-color="#6C7680"/><stop offset=".355" stop-color="#69727C"/><stop offset=".659" stop-color="#5F6870"/><stop offset=".942" stop-color="#51575E"/><stop offset="1" stop-color="#4D5359"/></linearGradient><linearGradient id="h" x1="115.751" x2="117.563" y1="299.183" y2="295.308" gradientUnits="userSpaceOnUse"><stop offset=".006" stop-color="#2C2F33"/><stop offset=".506" stop-color="#5A6166"/><stop offset=".638" stop-color="#585E63"/><stop offset=".751" stop-color="#50565A"/><stop offset=".856" stop-color="#43484C"/><stop offset=".957" stop-color="#34373B"/><stop offset="1" stop-color="#2C2F33"/></linearGradient><linearGradient id="E" x1="115.751" x2="117.563" y1="299.183" y2="295.308" xlink:href="#h" gradientUnits="userSpaceOnUse" gradientTransform="matrix(1.014 0 0 1.014 -88.778 -287)"/><linearGradient id="D" x1="115.693" x2="111.95" y1="296.266" y2="290.414" gradientUnits="userSpaceOnUse"><stop offset="0" stop-color="#161719"/><stop offset="1" stop-color="#B2B2B2"/></linearGradient><linearGradient id="C" x1="110.121" x2="121.872" y1="292.456" y2="301.456" gradientUnits="userSpaceOnUse"><stop offset=".006" stop-color="#212326"/><stop offset="1" stop-color="#596669"/></linearGradient><linearGradient id="i" x1="99.238" x2="94.868" y1="304.31" y2="297.577" gradientUnits="userSpaceOnUse"><stop offset="0" stop-color="#161719"/><stop offset="1" stop-color="#ccc"/></linearGradient><linearGradient id="B" x1="99.238" x2="94.868" y1="304.31" y2="297.577" xlink:href="#i" gradientUnits="userSpaceOnUse" gradientTransform="matrix(1.014 0 0 1.014 -88.778 -287)"/><linearGradient id="j" x1="95.831" x2="104.749" y1="300.837" y2="310.642" gradientUnits="userSpaceOnUse"><stop offset=".006" stop-color="#212326"/><stop offset="1" stop-color="#596669"/></linearGradient><linearGradient id="A" x1="95.831" x2="104.749" y1="300.837" y2="310.642" xlink:href="#j" gradientUnits="userSpaceOnUse" gradientTransform="matrix(1.014 0 0 1.014 -88.778 -287)"/><linearGradient id="k" x1="99.486" x2="90.171" y1="295.642" y2="308.361" gradientUnits="userSpaceOnUse"><stop offset="0" stop-color="#141617"/><stop offset=".483" stop-color="#566063"/><stop offset="1" stop-color="#232729"/></linearGradient><linearGradient id="z" x1="99.486" x2="90.171" y1="295.642" y2="308.361" xlink:href="#k" gradientUnits="userSpaceOnUse" gradientTransform="matrix(1.014 0 0 1.014 -88.778 -287)"/><linearGradient id="l" x1="113.933" x2="109.224" y1="286.865" y2="299.691" gradientUnits="userSpaceOnUse"><stop offset="0" stop-color="#141617"/><stop offset=".483" stop-color="#566063"/><stop offset="1" stop-color="#232729"/></linearGradient><linearGradient id="y" x1="113.933" x2="109.224" y1="286.865" y2="299.691" xlink:href="#l" gradientUnits="userSpaceOnUse" gradientTransform="matrix(1.014 0 0 1.014 -88.778 -287)"/><radialGradient id="x" cx="109.941" cy="312.073" r="9.655" fx="109.941" fy="312.073" gradientUnits="userSpaceOnUse"><stop offset="0" stop-color="#828E99"/><stop offset="1" stop-color="#373C40"/></radialGradient><radialGradient id="w" cx="109.94" cy="312.074" r="9.655" fx="109.94" fy="312.074" gradientUnits="userSpaceOnUse"><stop offset="0" stop-color="#828E99"/><stop offset="1" stop-color="#373C40"/></radialGradient><linearGradient id="v" x1="109.501" x2="124.153" y1="309.648" y2="309.648" gradientUnits="userSpaceOnUse"><stop offset="0" stop-color="#121314"/><stop offset=".19" stop-color="#131415"/><stop offset=".352" stop-color="#17191A"/><stop offset=".504" stop-color="#1F2022"/><stop offset=".65" stop-color="#2A2C2E"/><stop offset=".791" stop-color="#3A3E42"/><stop offset=".927" stop-color="#52595F"/><stop offset="1" stop-color="#626B73"/></linearGradient><linearGradient id="u" x1="106.022" x2="108.701" y1="312.679" y2="325.27" gradientUnits="userSpaceOnUse"><stop offset="0" stop-color="#161617"/><stop offset=".195" stop-color="#171718"/><stop offset=".361" stop-color="#1C1C1D"/><stop offset=".516" stop-color="#242426"/><stop offset=".665" stop-color="#2F3033"/><stop offset=".81" stop-color="#404447"/><stop offset=".95" stop-color="#585E65"/><stop offset="1" stop-color="#626B73"/></linearGradient><linearGradient id="t" x1="113.713" x2="122.957" y1="315.036" y2="322.672" gradientUnits="userSpaceOnUse"><stop offset="0" stop-color="#11100F"/><stop offset=".171" stop-color="#121110"/><stop offset=".316" stop-color="#181817"/><stop offset=".453" stop-color="#242322"/><stop offset=".584" stop-color="#323130"/><stop offset=".711" stop-color="#414141"/><stop offset=".835" stop-color="#515356"/><stop offset=".954" stop-color="#5E646A"/><stop offset="1" stop-color="#626B73"/></linearGradient><linearGradient id="s" x1="124.724" x2="123.134" y1="313.892" y2="309.237" gradientUnits="userSpaceOnUse"><stop offset=".006" stop-color="#3D4247"/><stop offset=".596" stop-color="#1E2024"/><stop offset="1" stop-color="#121314"/></linearGradient><linearGradient id="r" x1="121.422" x2="122.305" y1="306.692" y2="309.137" gradientUnits="userSpaceOnUse"><stop offset=".006" stop-color="#3D4247"/><stop offset=".596" stop-color="#1E2024"/><stop offset="1" stop-color="#121314"/></linearGradient><linearGradient id="m" x1="127.034" x2="129.194" y1="304.143" y2="313.917" gradientUnits="userSpaceOnUse"><stop offset=".006" stop-color="#3D4247"/><stop offset=".202" stop-color="#121314"/><stop offset=".27" stop-color="#131415"/><stop offset=".298" stop-color="#151718"/><stop offset=".32" stop-color="#1A1C1D"/><stop offset=".338" stop-color="#222426"/><stop offset=".353" stop-color="#2D3032"/><stop offset=".367" stop-color="#3C4044"/><stop offset=".379" stop-color="#50575C"/><stop offset=".388" stop-color="#626B73"/><stop offset=".413" stop-color="#4F565C"/><stop offset=".447" stop-color="#3E4248"/><stop offset=".485" stop-color="#313439"/><stop offset=".531" stop-color="#282B2F"/><stop offset=".586" stop-color="#222529"/><stop offset=".665" stop-color="#1F2125"/><stop offset=".882" stop-color="#1E2024"/><stop offset="1" stop-color="#121314"/></linearGradient><linearGradient id="q" x1="127.034" x2="129.194" y1="304.143" y2="313.917" xlink:href="#m" gradientUnits="userSpaceOnUse" gradientTransform="matrix(1.014 0 0 1.014 -88.778 -287)"/><linearGradient x1="359.477" x2="360.143" y1="165.859" y2="190.359" gradientUnits="userSpaceOnUse"><stop offset=".006" stop-color="#fff"/><stop offset=".1" stop-color="#F6F7FA"/><stop offset=".255" stop-color="#DCE3EC"/><stop offset=".453" stop-color="#B3C1D6"/><stop offset=".685" stop-color="#7A92B7"/><stop offset=".944" stop-color="#325790"/><stop offset="1" stop-color="#224987"/></linearGradient><linearGradient id="W" x1="9.208" x2="3.507" y1="2.605" y2="10.701" xlink:href="#n" gradientUnits="userSpaceOnUse" gradientTransform="matrix(1.02 -.107 .107 1.019 -1.128 .814)"/><linearGradient id="X" x1="7.482" x2="3.346" y1="4.298" y2="9.049" xlink:href="#o" gradientUnits="userSpaceOnUse" gradientTransform="matrix(1.02 -.107 .107 1.019 -1.128 .814)"/><linearGradient id="Y" x1="341.333" x2="360.221" y1="182.406" y2="189.775" xlink:href="#p" gradientUnits="userSpaceOnUse" gradientTransform="matrix(.114 1.081 -1.082 .114 166.949 -387.719)"/></defs><g><g><path fill="none" stroke="#000" stroke-width="1.04.877" d="M14.14 18.18v.27l-.95.02c-.15 0-.26.13-.33.4-.18.6-.04 1.7.3 2.45.26.55.55.76.76.6l.74-.36 2.44 2.32.42-.13.76.7 4.14-1.32v-.9l1.63-.5.05-3.78 1.26-.25"/><path fill="none" stroke="#000" stroke-width="1.04.877" d="M25.36 17.73l4 .96c.14.02.28-.08.3-.25l.32-3.75c.02-.2-.12-.4-.3-.45l-4.6-1.58c-.12-.04-.22 0-.3.06l-1.4 1.65-1.66.32-.75-.34"/><path fill="url(#q)" d="M38.16 30.55l7.65 1.84c.3.05.57-.15.6-.47l.62-7.2c.03-.35-.22-.73-.57-.85l-8.83-3.03c-.22-.07-.42-.02-.55.1l-2.7 3.2" transform="matrix(.521 0 0 .521 5.463 1.799)"/><path fill="url(#r)" d="M122.26 309.26l-4-1.88 3.17-.6 4.03 1.7-3.2.78z" transform="matrix(.528 0 0 .528 -40.79 -147.728)"/><path fill="url(#s)" d="M122.12 313.84l3.05-.73.3-4.63-3.2.8-.15 4.57z" transform="matrix(.528 0 0 .528 -40.79 -147.728)"/><path fill="url(#t)" d="M122.7 320.68l-13.13 4.06-.16-12.2 13.7-2.9-.4 11.04z" transform="matrix(.528 0 0 .528 -40.79 -147.728)"/><path fill="url(#u)" d="M109.57 324.74l-5.5-5.25-.2-10.44 5.54 3.5.17 12.18z" transform="matrix(.528 0 0 .528 -40.79 -147.728)"/><path fill="url(#v)" d="M123.1 309.65l-13.7 2.9-5.55-3.5 13.07-2.3 6.17 2.9z" transform="matrix(.528 0 0 .528 -40.79 -147.728)"/><g transform="matrix(.528 0 0 .528 -40.79 -147.728)"><radialGradient cx="109.94" cy="312.074" r="9.655" fx="109.94" fy="312.074" gradientUnits="userSpaceOnUse"><stop offset="0" stop-color="#828E99"/><stop offset="1" stop-color="#373C40"/></radialGradient><path fill="url(#w)" d="M103.72 309.27l5.64 3.55 13.78-2.93-.1-.5s-13.4 2.85-13.58 2.9c-.17-.1-5.47-3.45-5.47-3.45l-.28.42z"/></g><g transform="matrix(.528 0 0 .528 -40.79 -147.728)"><radialGradient cx="109.941" cy="312.073" r="9.655" fx="109.941" fy="312.073" gradientUnits="userSpaceOnUse"><stop offset="0" stop-color="#828E99"/><stop offset="1" stop-color="#373C40"/></radialGradient><path fill="url(#x)" d="M109.24 312.56h.5v12.18h-.5z"/></g><path fill="none" stroke="#73797f" stroke-width=".50138" d="M14.1 15.66l6.9-1.23 3.26 1.54-.18 5.83"/><path fill="url(#y)" stroke="#000" stroke-width="1.534" d="M30.42 5.14l-3.48-.26c-.12 0-.24 0-.36 0-.22 0-.45 0-.67.03-3.8.45-7.08 4.3-7.5 8.93-.04.65-.04 1.28.02 1.9.36 4 3.06 6.96 6.6 6.94" transform="matrix(.521 0 0 .521 5.463 1.799)"/><path fill="url(#z)" stroke="#000" stroke-width="1.534" d="M18.14 14.1l-3.56-1.53c-1.03-.5-2.2-.8-3.45-.86-.27 0-.55 0-.82.02-4.67.26-8.7 4.14-9.2 9-.08.7-.08 1.36 0 2 .2 2.04 1.08 3.84 2.4 5.2l2 1.9L18.13 14.1z" transform="matrix(.521 0 0 .521 5.463 1.799)"/><path fill="url(#A)" d="M22.05 22.9c-.56 5.45-5.3 9.7-10.58 9.5-4.6-.15-8.1-3.6-8.56-8.07-.07-.68-.07-1.4 0-2.1.53-5.14 4.8-9.22 9.7-9.5.3 0 .6-.02.88 0 5.3.2 9.12 4.75 8.57 10.18z" enable-background="new" transform="matrix(.521 0 0 .521 5.463 1.799)"/><path fill="url(#B)" d="M12.6 12.48c-5.13.3-9.4 4.47-9.95 9.72-.07.72-.07 1.45 0 2.16.5 4.65 4.2 8.14 8.8 8.3 5.42.2 10.28-4.16 10.85-9.72.28-2.76-.52-5.38-2.25-7.37-1.66-1.9-4-3-6.56-3.1h-.9zm-1.12 19.68C7.13 32 3.63 28.7 3.16 24.3c-.07-.67-.07-1.36 0-2.05.5-5 4.58-9 9.47-9.26 0 0 .85-.02.85-.02 2.43.1 4.62 1.12 6.2 2.92 1.63 1.9 2.4 4.37 2.12 7-.55 5.3-5.18 9.45-10.32 9.26z" transform="matrix(.521 0 0 .521 5.463 1.799)"/><g transform="matrix(.528 0 0 .528 -40.79 -147.728)"><linearGradient x1="110.121" x2="121.872" y1="292.456" y2="301.456" gradientUnits="userSpaceOnUse"><stop offset=".006" stop-color="#212326"/><stop offset="1" stop-color="#596669"/></linearGradient><path fill="url(#C)" d="M123.83 297.1c-.44 5.03-4.2 9.14-8.37 9.17-3.63.03-6.4-3.02-6.77-7.12-.07-.62-.07-1.27 0-1.94.4-4.74 3.77-8.67 7.66-9.1.23-.04.46-.06.7-.06 4.18-.03 7.2 4.02 6.77 9.06z" enable-background="new"/><linearGradient x1="115.693" x2="111.95" y1="296.266" y2="290.414" gradientUnits="userSpaceOnUse"><stop offset="0" stop-color="#161719"/><stop offset="1" stop-color="#B2B2B2"/></linearGradient><path fill="url(#D)" d="M117.05 288l-.7.04c-4.1.47-7.48 4.3-7.9 9.15v1.98c.4 4.28 3.34 7.37 7 7.34 4.3-.03 8.18-4.25 8.63-9.4.24-2.8-.56-5.42-2.2-7.2-1.28-1.38-3-1.94-4.83-1.93zm-8.1 11.13v-1.9c.4-4.55 3.66-8.46 7.44-8.9l.66-.04c1.68-.02 3.27.68 4.45 1.96 1.56 1.68 2.3 4.16 2.08 6.82-.43 4.9-4.07 8.9-8.12 8.94-3.4.02-6.15-2.87-6.52-6.9z"/></g><g><path fill="#f0efed" d="M12.35 11.85c-.97.05-1.78.84-1.88 1.83v.4c.1.92.82 1.6 1.7 1.63 1.04.04 1.96-.78 2.07-1.83 0-.07 0-.14 0-.2 0-.46-.15-.88-.44-1.22-.32-.37-.77-.6-1.28-.6h-.17zm.15.8c.27 0 .53.12.7.32.2.22.28.5.25.82-.07.63-.62 1.14-1.24 1.1-.5 0-.9-.38-.94-.9 0 0 0-.24 0-.24.06-.6.56-1.1 1.14-1.12 0 0 .1 0 .1 0zm1.74 1.22z"/></g><g><path fill="#f0efed" d="M20.97 7.8h-.14c-.74.1-1.35.8-1.43 1.66 0 0 0 .34 0 .35.07.8.63 1.36 1.33 1.36.8 0 1.5-.74 1.57-1.66.04-.5-.1-.97-.4-1.3-.25-.26-.58-.4-.93-.4zm-.07.63s.07 0 .07 0c.22 0 .37.1.46.2.18.2.26.5.24.8-.06.6-.5 1.1-.94 1.1-.37 0-.65-.32-.7-.78 0 0 0-.23 0-.23.05-.56.43-1.04.87-1.1z"/></g><path fill="url(#E)" d="M31.63 14.6c-.12 1.43-1.2 2.6-2.4 2.62-1.04 0-1.83-.87-1.94-2.04-.02-.18-.03-.37 0-.56.1-1.36 1.07-2.5 2.2-2.62.06 0 .12 0 .2 0 1.2-.02 2.06 1.14 1.93 2.6z" transform="matrix(.521 0 0 .521 5.463 1.799)"/><path fill="url(#F)" d="M120.6 319.8l-8.7 2.5v-8.98l9-2.02-.3 8.5z" transform="matrix(.528 0 0 .528 -40.79 -147.728)"/><path fill="url(#G)" d="M120.9 311.3l-9 2.02-.65-.43 9.06-2.06.6.46z" transform="matrix(.528 0 0 .528 -40.79 -147.728)"/><path fill="url(#H)" d="M111.9 313.32v9l-.6-.48-.05-8.95.65.42z" transform="matrix(.528 0 0 .528 -40.79 -147.728)"/><path fill="url(#I)" d="M119.6 323.33l-7.82 2.5v-1.77l7.83-2.43v1.7z" transform="matrix(.528 0 0 .528 -40.79 -147.728)"/><path fill="url(#J)" d="M111.78 325.83l-1.44-1.33 1.44-.44v1.77z" transform="matrix(.528 0 0 .528 -40.79 -147.728)"/><path fill="url(#K)" d="M16.62 37.96c-.34 1.16-1.16.93-1.82-.52-.67-1.45-.94-3.56-.6-4.73.34-1.15 1.15-.92 1.82.53.67 1.45.94 3.57.6 4.73z" transform="matrix(.521 0 0 .521 5.463 1.799)"/><path fill="url(#L)" d="M19.1 32.2l1.35-.3-.02.02c.3-.08.67.17 1 .72.5.83.7 2.03.42 2.7-.08.2-.2.32-.34.37h.04l-1.42.53" transform="matrix(.521 0 0 .521 5.463 1.799)"/><g transform="matrix(.528 0 0 .528 -40.79 -147.728)"><linearGradient x1="105.425" x2="104.552" y1="320.149" y2="314.416" gradientUnits="userSpaceOnUse"><stop offset="0"/><stop offset=".123" stop-color="#070707"/><stop offset=".225" stop-color="#111"/><stop offset=".319" stop-color="#1C1C1C"/><stop offset=".409" stop-color="#2F2F2F"/><stop offset=".496" stop-color="#434444"/><stop offset=".58" stop-color="#555757"/><stop offset=".661" stop-color="#606467"/><stop offset=".73" stop-color="#626B73"/><stop offset=".751" stop-color="#596167"/><stop offset=".838" stop-color="#383B3D"/><stop offset=".912" stop-color="#232323"/><stop offset=".968" stop-color="#171616"/><stop offset="1" stop-color="#121212"/></linearGradient><path fill="url(#M)" d="M107.05 319.28l-3.6 1.84h-.02c.2-.06.38-.3.5-.7.33-1.15.06-3.23-.6-4.66-.37-.8-.8-1.24-1.15-1.24l3.66-.08c.27 0 .62.3.94.92.55 1.05.8 2.58.58 3.43-.07.24-.18.4-.3.48z"/><linearGradient x1="104.598" x2="105.609" y1="313.838" y2="320.968" gradientUnits="userSpaceOnUse"><stop offset="0" stop-color="#CFDDE2"/><stop offset=".152" stop-color="#CBD8DD"/><stop offset=".281" stop-color="#BCC9CD"/><stop offset=".402" stop-color="#A7B1B5"/><stop offset=".519" stop-color="#899297"/><stop offset=".63" stop-color="#677077"/><stop offset=".646" stop-color="#626B73"/><stop offset="1" stop-color="#121212"/></linearGradient><path fill="url(#N)" d="M105.82 314.2l-3.65.07v.5c.2 0 .57.3.94 1.1.46.97.72 2.27.72 3.33 0 .44-.04.83-.14 1.15-.08.3-.2.5-.34.54l.17.46c.03 0 .04-.03.06-.04 0 0 0 .02 0 .02l3.6-1.84c.2-.1.36-.33.44-.65.25-.9-.02-2.5-.6-3.6-.36-.7-.78-1.07-1.18-1.06zm.02.5c.1 0 .4.15.72.77.4.75.63 1.8.63 2.6 0 .24-.03.47-.08.65-.07.26-.16.32-.2.34 0 0-1.78.92-2.75 1.4.1-.35.15-.8.15-1.27 0-1.14-.27-2.5-.76-3.55-.18-.4-.38-.67-.58-.9.97-.02 2.86-.06 2.86-.06z"/></g><path fill="url(#O)" d="M14.95 20.34l-.56-.24-.1-.03c-.25-.1-.53-.15-.82-.16-.1 0-.18 0-.27 0-1.46.1-2.73 1.3-2.88 2.84-.03.22-.03.43 0 .63.06.64.34 1.2.76 1.63l.05.05.6.54 3.22-5.26z" transform="matrix(.521 0 0 .521 5.463 1.799)"/><path fill="url(#P)" d="M16.74 23.33c-.17 1.68-1.64 3-3.28 2.94-1.42-.05-2.5-1.12-2.65-2.5-.02-.2-.02-.43 0-.66.17-1.58 1.5-2.84 3.02-2.93.1 0 .18 0 .27 0 1.63.06 2.82 1.47 2.64 3.16z" transform="matrix(.521 0 0 .521 5.463 1.799)"/><path fill="url(#Q)" d="M32.88 14.86c-.14 1.6-1.32 2.88-2.63 2.9-1.15 0-2-.96-2.13-2.25-.02-.18-.02-.4 0-.6.13-1.5 1.2-2.73 2.4-2.87.08 0 .16 0 .23-.02 1.3 0 2.27 1.28 2.13 2.86z" transform="matrix(.521 0 0 .521 5.463 1.799)"/><path fill="none" stroke="#000" stroke-width=".52.534" d="M19.5 4.34l1.86.14c2.12.1 3.63 2.2 3.4 4.78-.23 2.66-2.2 4.83-4.4 4.84-.25 0-.5-.02-.7-.07l-1.98-.52"/><path fill="none" stroke="#000" stroke-width=".52.534" d="M16.98 13.2c0 .18 0 .36-.03.54-.3 2.83-2.76 5.05-5.5 4.95-1.25-.06-2.33-.56-3.13-1.36l-1.13-1.1" enable-background="new"/><path fill="none" stroke="#000" stroke-width=".52.151" d="M12.45 8.1s.8.3 1 .38c.17.07 1.27.6 1.27.6 1.38.83 2.26 2.36 2.26 4.13"/><path fill="none" stroke="#121212" stroke-width="1.06.269" d="M21.64 15.76l.1-4.08-.37-.16-5.64.8.1 4.33"/><path fill="url(#R)" d="M118.08 309.27l-10.4 2.16-.23-8.4 10.8-1.47-.17 7.7z" transform="matrix(.528 0 0 .528 -40.79 -147.728)"/><path fill="url(#S)" d="M107.67 311.43l-.22-8.4-.55-.28.2 8.2.57.48z" transform="matrix(.528 0 0 .528 -40.79 -147.728)"/><path fill="url(#T)" d="M118.26 301.56l-10.8 1.47-.56-.28 10.68-1.5.68.3z" transform="matrix(.528 0 0 .528 -40.79 -147.728)"/><path fill="none" stroke="#565b66" stroke-width=".49868" d="M16 20.66l.68-.26"/><path fill="url(#U)" d="M28.96 35.6l-1.04-.7h.02c-.36-.2-.57-.6-.58-1.12 0-.1 0-.23.03-.34.14-.85.8-1.54 1.5-1.62.03 0 .07 0 .12 0 .18 0 .34.03.48.1h-.03l1.07.53" transform="matrix(.521 0 0 .521 5.463 1.799)"/><path fill="#d6e0e4" d="M21.72 19.53c-.1.48-.48.88-.9.88-.34.02-.58-.28-.58-.67 0-.06 0-.12.02-.2.08-.45.43-.83.8-.87.03 0 .06 0 .08 0 .4 0 .66.4.58.87z"/><path fill="url(#V)" d="M30.84 34.04c-.12.7-.7 1.25-1.26 1.26-.5 0-.85-.42-.85-.98 0-.1 0-.18.02-.27.12-.66.63-1.2 1.17-1.26.03 0 .06 0 .1 0 .57-.02.94.54.82 1.24z" transform="matrix(.521 0 0 .521 5.463 1.799)"/><path fill="none" stroke="#8b99a3" stroke-width=".24908" d="M18.34 22.58v-4.76"/><path fill="none" stroke="#8b99a3" stroke-width=".25069" d="M23.13 16.83l-4.76 1.07-.34-.22"/><path fill="none" stroke="#cdd8dd" stroke-width="0.52" d="M24.78 12.72l-1.34 1.58"/><path fill="none" stroke="#000" stroke-width=".52.151" d="M24.65 12.6l-1.4 1.65"/><path fill="none" stroke="#cdd8de" stroke-width=".49868" d="M15.4 18.58l.7-.15"/><path fill="none" stroke="#52585e" stroke-width=".49868" d="M18.27 23.5v.93"/><path fill="none" stroke="#52585e" stroke-width=".49868" d="M17.1 23.86l6.94-2.15"/><path fill="none" stroke="#a1aab2" stroke-width=".25069" d="M29.9 14.45l-4.36.9-2.06-.9"/></g><path fill="url(#W)" stroke="url(#X)" d="M8.92 4.44c-2.06 0-3.86 4.07-3.9 9l-2.16-3.2C3.34 4.85 5.38.9 8.06.63"/><path fill="url(#Y)" stroke="#1a3e71" d="M7.93.63C11.57.25 16 7.16 16.36 15.68c.1 2.14.1 4.1-.1 5.7-.5 5.55-2.46 9.74-5.22 10.03-3.02.33-6.06-4.13-7.53-10.5l-1.63 2.23.16-8.75 4.4 2.6-1.1 1.47c.96 5.35 3.36 9.25 5.72 9 2.1-.22 3.55-3.67 3.66-8.4 0-1.3 0-2.5-.06-3.72-.34-6.55-3.24-11.5-5.9-10.87"/></g></svg>