<svg xmlns="http://www.w3.org/2000/svg" width="32" height="32" xmlns:xlink="http://www.w3.org/1999/xlink" xmlns:sodipodi="http://inkscape.sourceforge.net/DTD/sodipodi-0.dtd" sodipodi:version=".32" version="1" sodipodi:docbase="e:\dev_clean\src\houdini\support\icons\tools" sodipodi:docname="track.svg"><defs><linearGradient id="K"><stop offset="0" stop-color="#fff"/><stop offset="1" stop-color="#729fcf"/></linearGradient><linearGradient><stop offset="0" stop-color="#729fcf"/><stop offset="1" stop-color="#164d88"/></linearGradient><linearGradient><stop offset="0" stop-color="#3465a4"/><stop offset=".5" stop-color="#77a0d4"/><stop offset="1" stop-color="#3465a4" stop-opacity="0"/></linearGradient><linearGradient><stop offset="0" stop-color="#fff"/><stop offset="1" stop-color="#729fcf"/></linearGradient><linearGradient id="as" x1="116.365" x2="117.487" y1="315.413" y2="317.743" xlink:href="#a" gradientUnits="userSpaceOnUse" gradientTransform="matrix(1.014 0 0 1.014 -88.778 -287)"/><linearGradient id="ar" x1="115.039" x2="116.658" y1="317.404" y2="314.497" xlink:href="#b" gradientUnits="userSpaceOnUse" gradientTransform="matrix(1.014 0 0 1.014 -88.778 -287)"/><linearGradient id="an" x1="117.953" x2="115.538" y1="298" y2="295.644" xlink:href="#c" gradientUnits="userSpaceOnUse" gradientTransform="matrix(1.014 0 0 1.014 -88.778 -287)"/><linearGradient id="am" x1="102.519" x2="99.309" y1="307.758" y2="303.465" xlink:href="#d" gradientUnits="userSpaceOnUse" gradientTransform="matrix(1.014 0 0 1.014 -88.778 -287)"/><linearGradient id="al" x1="100.924" x2="98.381" y1="302.737" y2="306.53" xlink:href="#e" gradientUnits="userSpaceOnUse" gradientTransform="matrix(1.014 0 0 1.014 -88.778 -287)"/><linearGradient id="ai" x1="108.432" x2="107.471" y1="318.345" y2="314.445" xlink:href="#f" gradientUnits="userSpaceOnUse" gradientTransform="matrix(1.014 0 0 1.014 -88.778 -287)"/><linearGradient id="ah" x1="101.549" x2="104.147" y1="318.713" y2="316.779" xlink:href="#g" gradientUnits="userSpaceOnUse" gradientTransform="matrix(1.014 0 0 1.014 -88.778 -287)"/><linearGradient id="ab" x1="115.751" x2="117.563" y1="299.183" y2="295.308" xlink:href="#h" gradientUnits="userSpaceOnUse" gradientTransform="matrix(1.014 0 0 1.014 -88.778 -287)"/><linearGradient id="Y" x1="99.238" x2="94.868" y1="304.31" y2="297.577" xlink:href="#i" gradientUnits="userSpaceOnUse" gradientTransform="matrix(1.014 0 0 1.014 -88.778 -287)"/><linearGradient id="X" x1="95.831" x2="104.749" y1="300.837" y2="310.642" xlink:href="#j" gradientUnits="userSpaceOnUse" gradientTransform="matrix(1.014 0 0 1.014 -88.778 -287)"/><linearGradient id="W" x1="99.486" x2="90.171" y1="295.642" y2="308.361" xlink:href="#k" gradientUnits="userSpaceOnUse" gradientTransform="matrix(1.014 0 0 1.014 -88.778 -287)"/><linearGradient id="V" x1="113.933" x2="109.224" y1="286.865" y2="299.691" xlink:href="#l" gradientUnits="userSpaceOnUse" gradientTransform="matrix(1.014 0 0 1.014 -88.778 -287)"/><linearGradient><stop offset="0" stop-color="#fff" stop-opacity="0"/><stop offset=".5" stop-color="#a3bfe2"/><stop offset="1" stop-color="#3465a4"/></linearGradient><linearGradient><stop offset="0" stop-color="#fff"/><stop offset="1" stop-color="#3465a4"/></linearGradient><linearGradient id="a" x1="116.365" x2="117.487" y1="315.413" y2="317.743" gradientUnits="userSpaceOnUse"><stop offset="0"/><stop offset=".163" stop-color="#070707"/><stop offset=".302" stop-color="#111"/><stop offset=".432" stop-color="#1D1D1D"/><stop offset=".557" stop-color="#2F3030"/><stop offset=".678" stop-color="#444"/><stop offset=".797" stop-color="#565859"/><stop offset=".91" stop-color="#616569"/><stop offset="1" stop-color="#626B73"/></linearGradient><linearGradient id="b" x1="115.039" x2="116.658" y1="317.404" y2="314.497" gradientUnits="userSpaceOnUse"><stop offset="0" stop-color="#6D7780"/><stop offset=".138" stop-color="#717B84"/><stop offset=".274" stop-color="#7E878E"/><stop offset=".408" stop-color="#939CA2"/><stop offset=".542" stop-color="#B2BDC1"/><stop offset=".646" stop-color="#D3E0E4"/><stop offset=".819" stop-color="#A3AEB4"/><stop offset="1" stop-color="#7A858F"/></linearGradient><linearGradient id="J" x1="117.931" x2="112.091" y1="301.457" y2="302.191" gradientUnits="userSpaceOnUse"><stop offset="0" stop-color="#B6C1CA"/><stop offset=".295" stop-color="#B9C4CC"/><stop offset=".547" stop-color="#C5CED5"/><stop offset=".783" stop-color="#D7DEE2"/><stop offset="1" stop-color="#F0F5F5"/></linearGradient><linearGradient id="I" x1="107.249" x2="107.311" y1="310.911" y2="304.16" gradientUnits="userSpaceOnUse"><stop offset="0" stop-color="#A5AEB8"/><stop offset=".424" stop-color="#A1AAB5"/><stop offset=".786" stop-color="#96A1AB"/><stop offset="1" stop-color="#8B97A3"/></linearGradient><linearGradient id="H" x1="115.32" x2="109.787" y1="309.503" y2="302.446" gradientUnits="userSpaceOnUse"><stop offset="0" stop-color="#ACB5BE"/><stop offset=".479" stop-color="#848B93"/><stop offset="1" stop-color="#596169"/></linearGradient><linearGradient id="c" x1="117.953" x2="115.538" y1="298" y2="295.644" gradientUnits="userSpaceOnUse"><stop offset="0" stop-color="#121414"/><stop offset="1" stop-color="#2B3033"/></linearGradient><linearGradient id="d" x1="102.519" x2="99.309" y1="307.758" y2="303.465" gradientUnits="userSpaceOnUse"><stop offset="0" stop-color="#121414"/><stop offset="1" stop-color="#2B3033"/></linearGradient><linearGradient id="e" x1="100.924" x2="98.381" y1="302.737" y2="306.53" gradientUnits="userSpaceOnUse"><stop offset=".006" stop-color="#2C2F33"/><stop offset=".506" stop-color="#5A6166"/><stop offset=".638" stop-color="#585E63"/><stop offset=".751" stop-color="#50565A"/><stop offset=".856" stop-color="#43484C"/><stop offset=".957" stop-color="#34373B"/><stop offset="1" stop-color="#2C2F33"/></linearGradient><linearGradient id="G" x1="104.598" x2="105.609" y1="313.838" y2="320.968" gradientUnits="userSpaceOnUse"><stop offset="0" stop-color="#CFDDE2"/><stop offset=".152" stop-color="#CBD8DD"/><stop offset=".281" stop-color="#BCC9CD"/><stop offset=".402" stop-color="#A7B1B5"/><stop offset=".519" stop-color="#899297"/><stop offset=".63" stop-color="#677077"/><stop offset=".646" stop-color="#626B73"/><stop offset="1" stop-color="#121212"/></linearGradient><linearGradient id="F" x1="105.425" x2="104.552" y1="320.149" y2="314.416" gradientUnits="userSpaceOnUse"><stop offset="0"/><stop offset=".123" stop-color="#070707"/><stop offset=".225" stop-color="#111"/><stop offset=".319" stop-color="#1C1C1C"/><stop offset=".409" stop-color="#2F2F2F"/><stop offset=".496" stop-color="#434444"/><stop offset=".58" stop-color="#555757"/><stop offset=".661" stop-color="#606467"/><stop offset=".73" stop-color="#626B73"/><stop offset=".751" stop-color="#596167"/><stop offset=".838" stop-color="#383B3D"/><stop offset=".912" stop-color="#232323"/><stop offset=".968" stop-color="#171616"/><stop offset="1" stop-color="#121212"/></linearGradient><linearGradient id="f" x1="108.432" x2="107.471" y1="318.345" y2="314.445" gradientUnits="userSpaceOnUse"><stop offset="0"/><stop offset=".123" stop-color="#070707"/><stop offset=".225" stop-color="#111"/><stop offset=".319" stop-color="#1C1C1C"/><stop offset=".409" stop-color="#2F2F2F"/><stop offset=".496" stop-color="#434444"/><stop offset=".58" stop-color="#555757"/><stop offset=".661" stop-color="#606467"/><stop offset=".73" stop-color="#626B73"/><stop offset=".751" stop-color="#596167"/><stop offset=".838" stop-color="#383B3D"/><stop offset=".912" stop-color="#232323"/><stop offset=".968" stop-color="#171616"/><stop offset="1" stop-color="#121212"/></linearGradient><linearGradient id="g" x1="101.549" x2="104.147" y1="318.713" y2="316.779" gradientUnits="userSpaceOnUse"><stop offset="0" stop-color="#87959F"/><stop offset=".071" stop-color="#939EA6"/><stop offset=".489" stop-color="#D6D5D5"/><stop offset=".573" stop-color="#CECECE"/><stop offset=".673" stop-color="#B9B9B9"/><stop offset=".781" stop-color="#9A9C9C"/><stop offset=".894" stop-color="#737779"/><stop offset="1" stop-color="#4D5359"/></linearGradient><linearGradient id="E" x1="110.47" x2="111.507" y1="323.062" y2="325.202" gradientUnits="userSpaceOnUse"><stop offset="0" stop-color="#161617"/><stop offset=".208" stop-color="#171718"/><stop offset=".385" stop-color="#1B1C1D"/><stop offset=".551" stop-color="#232425"/><stop offset=".711" stop-color="#2E2F32"/><stop offset=".864" stop-color="#3E4145"/><stop offset="1" stop-color="#52585E"/></linearGradient><linearGradient id="D" x1="115.234" x2="116.434" y1="322.629" y2="325.482" gradientUnits="userSpaceOnUse"><stop offset="0" stop-color="#1C1C1F"/><stop offset=".208" stop-color="#1E1E21"/><stop offset=".385" stop-color="#222326"/><stop offset=".551" stop-color="#2B2C30"/><stop offset=".711" stop-color="#383A3E"/><stop offset=".864" stop-color="#4B4F55"/><stop offset="1" stop-color="#626B73"/></linearGradient><linearGradient id="C" x1="111.698" x2="111.512" y1="321.808" y2="313.356" gradientUnits="userSpaceOnUse"><stop offset="0" stop-color="#616973"/><stop offset=".417" stop-color="#5E666F"/><stop offset=".772" stop-color="#565D64"/><stop offset="1" stop-color="#4D5359"/></linearGradient><linearGradient id="B" x1="112.503" x2="119.393" y1="312.623" y2="311.58" gradientUnits="userSpaceOnUse"><stop offset="0" stop-color="#6C7680"/><stop offset=".355" stop-color="#69727C"/><stop offset=".659" stop-color="#5F6870"/><stop offset=".942" stop-color="#51575E"/><stop offset="1" stop-color="#4D5359"/></linearGradient><linearGradient id="A" x1="118.09" x2="114.701" y1="320.286" y2="313.285" gradientUnits="userSpaceOnUse"><stop offset="0" stop-color="#6C7680"/><stop offset=".355" stop-color="#69727C"/><stop offset=".659" stop-color="#5F6870"/><stop offset=".942" stop-color="#51575E"/><stop offset="1" stop-color="#4D5359"/></linearGradient><linearGradient id="h" x1="115.751" x2="117.563" y1="299.183" y2="295.308" gradientUnits="userSpaceOnUse"><stop offset=".006" stop-color="#2C2F33"/><stop offset=".506" stop-color="#5A6166"/><stop offset=".638" stop-color="#585E63"/><stop offset=".751" stop-color="#50565A"/><stop offset=".856" stop-color="#43484C"/><stop offset=".957" stop-color="#34373B"/><stop offset="1" stop-color="#2C2F33"/></linearGradient><linearGradient id="z" x1="115.693" x2="111.95" y1="296.266" y2="290.414" gradientUnits="userSpaceOnUse"><stop offset="0" stop-color="#161719"/><stop offset="1" stop-color="#B2B2B2"/></linearGradient><linearGradient id="y" x1="110.121" x2="121.872" y1="292.456" y2="301.456" gradientUnits="userSpaceOnUse"><stop offset=".006" stop-color="#212326"/><stop offset="1" stop-color="#596669"/></linearGradient><linearGradient id="i" x1="99.238" x2="94.868" y1="304.31" y2="297.577" gradientUnits="userSpaceOnUse"><stop offset="0" stop-color="#161719"/><stop offset="1" stop-color="#ccc"/></linearGradient><linearGradient id="j" x1="95.831" x2="104.749" y1="300.837" y2="310.642" gradientUnits="userSpaceOnUse"><stop offset=".006" stop-color="#212326"/><stop offset="1" stop-color="#596669"/></linearGradient><linearGradient id="k" x1="99.486" x2="90.171" y1="295.642" y2="308.361" gradientUnits="userSpaceOnUse"><stop offset="0" stop-color="#141617"/><stop offset=".483" stop-color="#566063"/><stop offset="1" stop-color="#232729"/></linearGradient><linearGradient id="l" x1="113.933" x2="109.224" y1="286.865" y2="299.691" gradientUnits="userSpaceOnUse"><stop offset="0" stop-color="#141617"/><stop offset=".483" stop-color="#566063"/><stop offset="1" stop-color="#232729"/></linearGradient><radialGradient id="x" cx="109.941" cy="312.073" r="9.655" fx="109.941" fy="312.073" gradientUnits="userSpaceOnUse"><stop offset="0" stop-color="#828E99"/><stop offset="1" stop-color="#373C40"/></radialGradient><radialGradient id="w" cx="109.94" cy="312.074" r="9.655" fx="109.94" fy="312.074" gradientUnits="userSpaceOnUse"><stop offset="0" stop-color="#828E99"/><stop offset="1" stop-color="#373C40"/></radialGradient><linearGradient id="v" x1="109.501" x2="124.153" y1="309.648" y2="309.648" gradientUnits="userSpaceOnUse"><stop offset="0" stop-color="#121314"/><stop offset=".19" stop-color="#131415"/><stop offset=".352" stop-color="#17191A"/><stop offset=".504" stop-color="#1F2022"/><stop offset=".65" stop-color="#2A2C2E"/><stop offset=".791" stop-color="#3A3E42"/><stop offset=".927" stop-color="#52595F"/><stop offset="1" stop-color="#626B73"/></linearGradient><linearGradient id="u" x1="106.022" x2="108.701" y1="312.679" y2="325.27" gradientUnits="userSpaceOnUse"><stop offset="0" stop-color="#161617"/><stop offset=".195" stop-color="#171718"/><stop offset=".361" stop-color="#1C1C1D"/><stop offset=".516" stop-color="#242426"/><stop offset=".665" stop-color="#2F3033"/><stop offset=".81" stop-color="#404447"/><stop offset=".95" stop-color="#585E65"/><stop offset="1" stop-color="#626B73"/></linearGradient><linearGradient id="t" x1="113.713" x2="122.957" y1="315.036" y2="322.672" gradientUnits="userSpaceOnUse"><stop offset="0" stop-color="#11100F"/><stop offset=".171" stop-color="#121110"/><stop offset=".316" stop-color="#181817"/><stop offset=".453" stop-color="#242322"/><stop offset=".584" stop-color="#323130"/><stop offset=".711" stop-color="#414141"/><stop offset=".835" stop-color="#515356"/><stop offset=".954" stop-color="#5E646A"/><stop offset="1" stop-color="#626B73"/></linearGradient><linearGradient id="s" x1="124.724" x2="123.134" y1="313.892" y2="309.237" gradientUnits="userSpaceOnUse"><stop offset=".006" stop-color="#3D4247"/><stop offset=".596" stop-color="#1E2024"/><stop offset="1" stop-color="#121314"/></linearGradient><linearGradient id="r" x1="121.422" x2="122.305" y1="306.692" y2="309.137" gradientUnits="userSpaceOnUse"><stop offset=".006" stop-color="#3D4247"/><stop offset=".596" stop-color="#1E2024"/><stop offset="1" stop-color="#121314"/></linearGradient><linearGradient id="m" x1="127.034" x2="129.194" y1="304.143" y2="313.917" gradientUnits="userSpaceOnUse"><stop offset=".006" stop-color="#3D4247"/><stop offset=".202" stop-color="#121314"/><stop offset=".27" stop-color="#131415"/><stop offset=".298" stop-color="#151718"/><stop offset=".32" stop-color="#1A1C1D"/><stop offset=".338" stop-color="#222426"/><stop offset=".353" stop-color="#2D3032"/><stop offset=".367" stop-color="#3C4044"/><stop offset=".379" stop-color="#50575C"/><stop offset=".388" stop-color="#626B73"/><stop offset=".413" stop-color="#4F565C"/><stop offset=".447" stop-color="#3E4248"/><stop offset=".485" stop-color="#313439"/><stop offset=".531" stop-color="#282B2F"/><stop offset=".586" stop-color="#222529"/><stop offset=".665" stop-color="#1F2125"/><stop offset=".882" stop-color="#1E2024"/><stop offset="1" stop-color="#121314"/></linearGradient><linearGradient id="N" x1="127.034" x2="129.194" y1="304.143" y2="313.917" xlink:href="#m" gradientUnits="userSpaceOnUse" gradientTransform="matrix(1.014 0 0 1.014 -88.778 -287)"/><linearGradient x1="406.135" x2="415.861" y1="179.186" y2="189.96" gradientUnits="userSpaceOnUse"><stop offset=".006" stop-color="#fff"/><stop offset=".1" stop-color="#F6F7FA"/><stop offset=".255" stop-color="#DCE3EC"/><stop offset=".453" stop-color="#B3C1D6"/><stop offset=".685" stop-color="#7A92B7"/><stop offset=".944" stop-color="#325790"/><stop offset="1" stop-color="#224987"/></linearGradient><radialGradient cx="404.988" cy="179.222" r="15.423" fx="404.988" fy="179.222" gradientUnits="userSpaceOnUse"><stop offset=".006" stop-color="#fff"/><stop offset=".1" stop-color="#F6F7FA"/><stop offset=".255" stop-color="#DCE3EC"/><stop offset=".453" stop-color="#B3C1D6"/><stop offset=".685" stop-color="#7A92B7"/><stop offset=".944" stop-color="#325790"/><stop offset="1" stop-color="#224987"/></radialGradient><radialGradient cx="-514.137" cy="375.896" r="13.348" fx="-514.137" fy="375.896" gradientTransform="matrix(-1 0 0 -1 -106.76 554.833)" gradientUnits="userSpaceOnUse"><stop offset=".006" stop-color="#fff"/><stop offset=".1" stop-color="#F6F7FA"/><stop offset=".255" stop-color="#DCE3EC"/><stop offset=".453" stop-color="#B3C1D6"/><stop offset=".685" stop-color="#7A92B7"/><stop offset=".944" stop-color="#325790"/><stop offset="1" stop-color="#224987"/></radialGradient><radialGradient cx="-444.643" cy="353.562" r="12.78" fx="-444.643" fy="353.562" gradientTransform="matrix(-1 0 0 -1 -39.18 532.977)" gradientUnits="userSpaceOnUse"><stop offset=".006" stop-color="#fff"/><stop offset=".1" stop-color="#F6F7FA"/><stop offset=".255" stop-color="#DCE3EC"/><stop offset=".453" stop-color="#B3C1D6"/><stop offset=".685" stop-color="#7A92B7"/><stop offset=".944" stop-color="#325790"/><stop offset="1" stop-color="#224987"/></radialGradient><radialGradient cx="400.543" cy="186.385" r="21.378" gradientUnits="userSpaceOnUse" fy="186.385" fx="400.543"><stop offset="0" stop-color="#BABDB6"/><stop offset="1" stop-color="#5E615C"/></radialGradient><radialGradient cx="397.538" cy="168.383" r="27.542" gradientUnits="userSpaceOnUse" fy="168.383" fx="397.538"><stop offset="0" stop-color="#fff"/><stop offset="1" stop-color="#545652"/></radialGradient><radialGradient cx="412.434" cy="186.519" r="19.549" gradientUnits="userSpaceOnUse" fy="186.519" fx="412.434"><stop offset="0" stop-color="#BABDB6"/><stop offset=".826" stop-color="#545652"/><stop offset="1" stop-color="#2D3335"/></radialGradient><radialGradient cx="402.146" cy="173.225" r="24.506" gradientUnits="userSpaceOnUse" fy="173.225" fx="402.146"><stop offset="0" stop-color="#EFEEEC"/><stop offset="1" stop-color="#545652"/></radialGradient><radialGradient cx="398.106" cy="170.164" r="10.642" gradientUnits="userSpaceOnUse" fy="170.164" fx="398.106"><stop offset="0" stop-color="#fff"/><stop offset="1" stop-color="#545652"/></radialGradient><radialGradient cx="402.141" cy="173.227" r="24.507" gradientUnits="userSpaceOnUse" fy="173.227" fx="402.141"><stop offset="0" stop-color="#EFEEEC"/><stop offset="1" stop-color="#545652"/></radialGradient><radialGradient cx="403.924" cy="186.083" r="11.063" gradientUnits="userSpaceOnUse" fy="186.083" fx="403.924"><stop offset="0" stop-color="#BABDB6"/><stop offset=".826" stop-color="#545652"/><stop offset="1" stop-color="#2D3335"/></radialGradient><linearGradient id="n" x1="359.477" x2="360.143" y1="165.859" y2="190.359" gradientUnits="userSpaceOnUse"><stop offset=".006" stop-color="#fff"/><stop offset=".1" stop-color="#F6F7FA"/><stop offset=".255" stop-color="#DCE3EC"/><stop offset=".453" stop-color="#B3C1D6"/><stop offset=".685" stop-color="#7A92B7"/><stop offset=".944" stop-color="#325790"/><stop offset="1" stop-color="#224987"/></linearGradient><linearGradient id="o" x1="353.787" x2="342.12" y1="167.674" y2="191.342" gradientUnits="userSpaceOnUse" gradientTransform="translate(-339.088 -158.956)"><stop offset="0" stop-color="#224987"/><stop offset=".876" stop-color="#fff"/></linearGradient><radialGradient id="q" cx="-294.017" cy="168.652" r="14.977" gradientUnits="userSpaceOnUse" gradientTransform="matrix(-1 0 0 1 55.359 0)" fy="168.652" fx="-294.017"><stop offset="0" stop-color="#fff"/><stop offset="1" stop-color="#545652"/></radialGradient><radialGradient id="p" cx="-296.51" cy="171.442" r="12.31" gradientUnits="userSpaceOnUse" gradientTransform="matrix(-1 0 0 1 55.359 0)" fy="171.442" fx="-296.51"><stop offset="0" stop-color="#fff"/><stop offset=".826" stop-color="#545652"/><stop offset="1" stop-color="#2D3335"/></radialGradient><linearGradient x1="359.477" x2="360.143" y1="165.859" y2="190.359" xlink:href="#n" gradientUnits="userSpaceOnUse"/><linearGradient x1="353.787" x2="342.12" y1="167.674" y2="191.342" xlink:href="#o" gradientUnits="userSpaceOnUse" gradientTransform="translate(-339.088 -158.956)"/><radialGradient cx="-296.51" cy="171.442" r="12.31" xlink:href="#p" gradientUnits="userSpaceOnUse" gradientTransform="matrix(-1 0 0 1 55.359 0)" fx="-296.51" fy="171.442"/><radialGradient cx="-294.017" cy="168.652" r="14.977" xlink:href="#q" gradientUnits="userSpaceOnUse" gradientTransform="matrix(-1 0 0 1 55.359 0)" fx="-294.017" fy="168.652"/><linearGradient id="O" x1="121.422" x2="122.305" y1="306.692" y2="309.137" xlink:href="#r" gradientUnits="userSpaceOnUse"/><linearGradient id="P" x1="124.724" x2="123.134" y1="313.892" y2="309.237" xlink:href="#s" gradientUnits="userSpaceOnUse"/><linearGradient id="Q" x1="113.713" x2="122.957" y1="315.036" y2="322.672" xlink:href="#t" gradientUnits="userSpaceOnUse"/><linearGradient id="R" x1="106.022" x2="108.701" y1="312.679" y2="325.27" xlink:href="#u" gradientUnits="userSpaceOnUse"/><linearGradient id="S" x1="109.501" x2="124.153" y1="309.648" y2="309.648" xlink:href="#v" gradientUnits="userSpaceOnUse"/><radialGradient id="T" cx="109.94" cy="312.074" r="9.655" xlink:href="#w" gradientUnits="userSpaceOnUse" fx="109.94" fy="312.074"/><radialGradient id="U" cx="109.941" cy="312.073" r="9.655" xlink:href="#x" gradientUnits="userSpaceOnUse" fx="109.941" fy="312.073"/><linearGradient id="Z" x1="110.121" x2="121.872" y1="292.456" y2="301.456" xlink:href="#y" gradientUnits="userSpaceOnUse"/><linearGradient id="aa" x1="115.693" x2="111.95" y1="296.266" y2="290.414" xlink:href="#z" gradientUnits="userSpaceOnUse"/><linearGradient id="ac" x1="118.09" x2="114.701" y1="320.286" y2="313.285" xlink:href="#A" gradientUnits="userSpaceOnUse"/><linearGradient id="ad" x1="112.503" x2="119.393" y1="312.623" y2="311.58" xlink:href="#B" gradientUnits="userSpaceOnUse"/><linearGradient id="ae" x1="111.698" x2="111.512" y1="321.808" y2="313.356" xlink:href="#C" gradientUnits="userSpaceOnUse"/><linearGradient id="af" x1="115.234" x2="116.434" y1="322.629" y2="325.482" xlink:href="#D" gradientUnits="userSpaceOnUse"/><linearGradient id="ag" x1="110.47" x2="111.507" y1="323.062" y2="325.202" xlink:href="#E" gradientUnits="userSpaceOnUse"/><linearGradient id="aj" x1="105.425" x2="104.552" y1="320.149" y2="314.416" xlink:href="#F" gradientUnits="userSpaceOnUse"/><linearGradient id="ak" x1="104.598" x2="105.609" y1="313.838" y2="320.968" xlink:href="#G" gradientUnits="userSpaceOnUse"/><linearGradient id="ao" x1="115.32" x2="109.787" y1="309.503" y2="302.446" xlink:href="#H" gradientUnits="userSpaceOnUse"/><linearGradient id="ap" x1="107.249" x2="107.311" y1="310.911" y2="304.16" xlink:href="#I" gradientUnits="userSpaceOnUse"/><linearGradient id="aq" x1="117.931" x2="112.091" y1="301.457" y2="302.191" xlink:href="#J" gradientUnits="userSpaceOnUse"/><linearGradient id="au" x1="13.477" x2="13.384" y1="8.578" y2="1.607" xlink:href="#K" gradientUnits="userSpaceOnUse" gradientTransform="translate(0 -.744)"/><linearGradient id="at" x1="21.47" x2="29.743" y1="22.334" y2="26.516" xlink:href="#K" gradientUnits="userSpaceOnUse" gradientTransform="translate(-.837 .093)"/><linearGradient id="M" x1="13.57" x2="13.477" y1="22.91" y2="30.699" xlink:href="#K" gradientUnits="userSpaceOnUse" gradientTransform="translate(0 .093)"/><linearGradient id="L" x1="7.807" x2="1.58" y1="13.597" y2="9.879" xlink:href="#K" gradientUnits="userSpaceOnUse" gradientTransform="translate(0 -1.394)"/></defs><sodipodi:namedview fill="#729fcf" stroke="#204a87" pagecolor="#ffffff" bordercolor="#666666" borderopacity="1" showguides="true"><sodipodi:guide orientation="vertical" position="10.782"/></sodipodi:namedview><g><path fill="url(#L)" fill-rule="evenodd" stroke="#204a87" d="M11.9 13.04l-4.1.93-4.73-2.6-2.8 1.2.75-4.55 8.74.65-3.35 1.4 5.5 2.97z" sodipodi:nodetypes="cccccccc" color="#000" stroke-linejoin="round" overflow="visible"/><path fill="url(#M)" fill-rule="evenodd" stroke="#204a87" d="M15.6 24.08l-4.3-2.04v3.36l-4.56-1.97 6.68 8.12 5.67-2.95-3.4-1.6-.1-2.92z" sodipodi:nodetypes="cccccccc" color="#000" stroke-linejoin="round" overflow="visible"/><g><path fill="none" stroke="#000" stroke-width="1.29.496" d="M11.93 20.04v.22l-.78.02c-.1 0-.2.1-.27.3-.14.5-.03 1.42.26 2.04.2.45.45.63.62.5l.6-.3 2.02 1.9.33-.1.64.58 3.4-1.1v-.73l1.35-.4.02-3.13 1.04-.2" sodipodi:nodetypes="cccccccccsscccc"/><path fill="none" stroke="#000" stroke-width="1.29.496" d="M21.16 19.66l3.28.8c.13.02.24-.06.26-.2l.26-3.1c.02-.14-.1-.3-.24-.36l-3.8-1.3c-.08-.03-.17 0-.22.05l-1.16 1.36-1.38.27-.6-.27"/><path fill="url(#N)" d="M38.16 30.55l7.65 1.84c.3.05.57-.15.6-.47l.62-7.2c.03-.35-.22-.73-.57-.85l-8.83-3.03c-.22-.07-.42-.02-.55.1l-2.7 3.2" transform="matrix(.429 0 0 .429 4.79 6.558)"/><path fill="url(#O)" d="M122.26 309.26l-4-1.88 3.17-.6 4.03 1.7-3.2.78z" transform="matrix(.435 0 0 .435 -33.296 -116.565)"/><path fill="url(#P)" d="M122.12 313.84l3.05-.73.3-4.63-3.2.8-.15 4.57z" transform="matrix(.435 0 0 .435 -33.296 -116.565)"/><path fill="url(#Q)" d="M122.7 320.68l-13.13 4.06-.16-12.2 13.7-2.9-.4 11.04z" transform="matrix(.435 0 0 .435 -33.296 -116.565)"/><path fill="url(#R)" d="M109.57 324.74l-5.5-5.25-.2-10.44 5.54 3.5.17 12.18z" transform="matrix(.435 0 0 .435 -33.296 -116.565)"/><path fill="url(#S)" d="M123.1 309.65l-13.7 2.9-5.55-3.5 13.07-2.3 6.17 2.9z" transform="matrix(.435 0 0 .435 -33.296 -116.565)"/><g transform="matrix(.435 0 0 .435 -33.296 -116.565)"><radialGradient cx="109.94" cy="312.074" r="9.655" fx="109.94" fy="312.074" gradientUnits="userSpaceOnUse"><stop offset="0" stop-color="#828E99"/><stop offset="1" stop-color="#373C40"/></radialGradient><path fill="url(#T)" d="M103.72 309.27l5.64 3.55 13.78-2.93-.1-.5s-13.4 2.85-13.58 2.9c-.17-.1-5.47-3.45-5.47-3.45l-.28.42z"/></g><g transform="matrix(.435 0 0 .435 -33.296 -116.565)"><radialGradient cx="109.941" cy="312.073" r="9.655" fx="109.941" fy="312.073" gradientUnits="userSpaceOnUse"><stop offset="0" stop-color="#828E99"/><stop offset="1" stop-color="#373C40"/></radialGradient><path fill="url(#U)" d="M109.24 312.56h.5v12.18h-.5z"/></g><path fill="none" stroke="#73797f" stroke-width=".43.149" d="M11.86 17.88l5.68-1.02 2.68 1.27-.14 4.8"/><path fill="url(#V)" stroke="#000" stroke-width="1.865" d="M30.42 5.14l-3.48-.26c-.12 0-.24 0-.36 0-.22 0-.45 0-.67.03-3.8.45-7.08 4.3-7.5 8.93-.04.65-.04 1.28.02 1.9.36 4 3.06 6.96 6.6 6.94" transform="matrix(.429 0 0 .429 4.79 6.558)"/><path fill="url(#W)" stroke="#000" stroke-width="1.865" d="M18.14 14.1l-3.56-1.53c-1.03-.5-2.2-.8-3.45-.86-.27 0-.55 0-.82.02-4.67.26-8.7 4.14-9.2 9-.08.7-.08 1.36 0 2 .2 2.04 1.08 3.84 2.4 5.2l2 1.9L18.13 14.1z" transform="matrix(.429 0 0 .429 4.79 6.558)"/><path fill="url(#X)" d="M22.05 22.9c-.56 5.45-5.3 9.7-10.58 9.5-4.6-.15-8.1-3.6-8.56-8.07-.07-.68-.07-1.4 0-2.1.53-5.14 4.8-9.22 9.7-9.5.3 0 .6-.02.88 0 5.3.2 9.12 4.75 8.57 10.18z" enable-background="new" transform="matrix(.429 0 0 .429 4.79 6.558)"/><path fill="url(#Y)" d="M12.6 12.48c-5.13.3-9.4 4.47-9.95 9.72-.07.72-.07 1.45 0 2.16.5 4.65 4.2 8.14 8.8 8.3 5.42.2 10.28-4.16 10.85-9.72.28-2.76-.52-5.38-2.25-7.37-1.66-1.9-4-3-6.56-3.1h-.9zm-1.12 19.68C7.13 32 3.63 28.7 3.16 24.3c-.07-.67-.07-1.36 0-2.05.5-5 4.58-9 9.47-9.26 0 0 .85-.02.85-.02 2.43.1 4.62 1.12 6.2 2.92 1.63 1.9 2.4 4.37 2.12 7-.55 5.3-5.18 9.45-10.32 9.26z" transform="matrix(.429 0 0 .429 4.79 6.558)"/><g transform="matrix(.435 0 0 .435 -33.296 -116.565)"><linearGradient x1="110.121" x2="121.872" y1="292.456" y2="301.456" gradientUnits="userSpaceOnUse"><stop offset=".006" stop-color="#212326"/><stop offset="1" stop-color="#596669"/></linearGradient><path fill="url(#Z)" d="M123.83 297.1c-.44 5.03-4.2 9.14-8.37 9.17-3.63.03-6.4-3.02-6.77-7.12-.07-.62-.07-1.27 0-1.94.4-4.74 3.77-8.67 7.66-9.1.23-.04.46-.06.7-.06 4.18-.03 7.2 4.02 6.77 9.06z" enable-background="new"/><linearGradient x1="115.693" x2="111.95" y1="296.266" y2="290.414" gradientUnits="userSpaceOnUse"><stop offset="0" stop-color="#161719"/><stop offset="1" stop-color="#B2B2B2"/></linearGradient><path fill="url(#aa)" d="M117.05 288l-.7.04c-4.1.47-7.48 4.3-7.9 9.15v1.98c.4 4.28 3.34 7.37 7 7.34 4.3-.03 8.18-4.25 8.63-9.4.24-2.8-.56-5.42-2.2-7.2-1.28-1.38-3-1.94-4.83-1.93zm-8.1 11.13v-1.9c.4-4.55 3.66-8.46 7.44-8.9l.66-.04c1.68-.02 3.27.68 4.45 1.96 1.56 1.68 2.3 4.16 2.08 6.82-.43 4.9-4.07 8.9-8.12 8.94-3.4.02-6.15-2.87-6.52-6.9z"/></g><g><path fill="#f0efed" d="M10.43 14.74c-.8.05-1.47.7-1.55 1.5v.35c.08.73.67 1.3 1.4 1.3.85.04 1.6-.63 1.7-1.5 0-.05 0-.1 0-.17 0-.37-.12-.72-.36-1-.26-.3-.64-.47-1.05-.5h-.14zm.12.65c.23 0 .43.1.58.27.16.18.23.4.2.67-.05.53-.5.94-1.02.92-.4 0-.72-.32-.77-.74 0 0 0-.2 0-.2.05-.5.46-.9.94-.93 0 0 .08 0 .08 0zm1.43 1z"/></g><g><path fill="#f0efed" d="M17.5 11.4l-.1.02c-.6.07-1.1.65-1.17 1.36 0 0 0 .28 0 .28.06.65.52 1.12 1.1 1.1.65 0 1.2-.6 1.28-1.35.05-.4-.07-.8-.32-1.05-.2-.22-.47-.34-.77-.34zm-.04.53s.06 0 .06 0c.18 0 .3.1.38.17.14.16.2.4.2.66-.05.48-.4.9-.78.9-.3 0-.54-.27-.57-.65 0 0 0-.18 0-.18.04-.45.35-.84.7-.9z"/></g><path fill="url(#ab)" d="M31.63 14.6c-.12 1.43-1.2 2.6-2.4 2.62-1.04 0-1.83-.87-1.94-2.04-.02-.18-.03-.37 0-.56.1-1.36 1.07-2.5 2.2-2.62.06 0 .12 0 .2 0 1.2-.02 2.06 1.14 1.93 2.6z" transform="matrix(.429 0 0 .429 4.79 6.558)"/><path fill="url(#ac)" d="M120.6 319.8l-8.7 2.5v-8.98l9-2.02-.3 8.5z" transform="matrix(.435 0 0 .435 -33.296 -116.565)"/><path fill="url(#ad)" d="M120.9 311.3l-9 2.02-.65-.43 9.06-2.06.6.46z" transform="matrix(.435 0 0 .435 -33.296 -116.565)"/><path fill="url(#ae)" d="M111.9 313.32v9l-.6-.48-.05-8.95.65.42z" transform="matrix(.435 0 0 .435 -33.296 -116.565)"/><path fill="url(#af)" d="M119.6 323.33l-7.82 2.5v-1.77l7.83-2.43v1.7z" transform="matrix(.435 0 0 .435 -33.296 -116.565)"/><path fill="url(#ag)" d="M111.78 325.83l-1.44-1.33 1.44-.44v1.77z" transform="matrix(.435 0 0 .435 -33.296 -116.565)"/><path fill="url(#ah)" d="M16.62 37.96c-.34 1.16-1.16.93-1.82-.52-.67-1.45-.94-3.56-.6-4.73.34-1.15 1.15-.92 1.82.53.67 1.45.94 3.57.6 4.73z" transform="matrix(.429 0 0 .429 4.79 6.558)"/><path fill="url(#ai)" d="M19.1 32.2l1.35-.3-.02.02c.3-.08.67.17 1 .72.5.83.7 2.03.42 2.7-.08.2-.2.32-.34.37h.04l-1.42.53" transform="matrix(.429 0 0 .429 4.79 6.558)"/><g transform="matrix(.435 0 0 .435 -33.296 -116.565)"><linearGradient x1="105.425" x2="104.552" y1="320.149" y2="314.416" gradientUnits="userSpaceOnUse"><stop offset="0"/><stop offset=".123" stop-color="#070707"/><stop offset=".225" stop-color="#111"/><stop offset=".319" stop-color="#1C1C1C"/><stop offset=".409" stop-color="#2F2F2F"/><stop offset=".496" stop-color="#434444"/><stop offset=".58" stop-color="#555757"/><stop offset=".661" stop-color="#606467"/><stop offset=".73" stop-color="#626B73"/><stop offset=".751" stop-color="#596167"/><stop offset=".838" stop-color="#383B3D"/><stop offset=".912" stop-color="#232323"/><stop offset=".968" stop-color="#171616"/><stop offset="1" stop-color="#121212"/></linearGradient><path fill="url(#aj)" d="M107.05 319.28l-3.6 1.84h-.02c.2-.06.38-.3.5-.7.33-1.15.06-3.23-.6-4.66-.37-.8-.8-1.24-1.15-1.24l3.66-.08c.27 0 .62.3.94.92.55 1.05.8 2.58.58 3.43-.07.24-.18.4-.3.48z"/><linearGradient x1="104.598" x2="105.609" y1="313.838" y2="320.968" gradientUnits="userSpaceOnUse"><stop offset="0" stop-color="#CFDDE2"/><stop offset=".152" stop-color="#CBD8DD"/><stop offset=".281" stop-color="#BCC9CD"/><stop offset=".402" stop-color="#A7B1B5"/><stop offset=".519" stop-color="#899297"/><stop offset=".63" stop-color="#677077"/><stop offset=".646" stop-color="#626B73"/><stop offset="1" stop-color="#121212"/></linearGradient><path fill="url(#ak)" d="M105.82 314.2l-3.65.07v.5c.2 0 .57.3.94 1.1.46.97.72 2.27.72 3.33 0 .44-.04.83-.14 1.15-.08.3-.2.5-.34.54l.17.46c.03 0 .04-.03.06-.04 0 0 0 .02 0 .02l3.6-1.84c.2-.1.36-.33.44-.65.25-.9-.02-2.5-.6-3.6-.36-.7-.78-1.07-1.18-1.06zm.02.5c.1 0 .4.15.72.77.4.75.63 1.8.63 2.6 0 .24-.03.47-.08.65-.07.26-.16.32-.2.34 0 0-1.78.92-2.75 1.4.1-.35.15-.8.15-1.27 0-1.14-.27-2.5-.76-3.55-.18-.4-.38-.67-.58-.9.97-.02 2.86-.06 2.86-.06z"/></g><path fill="url(#al)" d="M14.95 20.34l-.56-.24-.1-.03c-.25-.1-.53-.15-.82-.16-.1 0-.18 0-.27 0-1.46.1-2.73 1.3-2.88 2.84-.03.22-.03.43 0 .63.06.64.34 1.2.76 1.63l.05.05.6.54 3.22-5.26z" transform="matrix(.429 0 0 .429 4.79 6.558)"/><path fill="url(#am)" d="M16.74 23.33c-.17 1.68-1.64 3-3.28 2.94-1.42-.05-2.5-1.12-2.65-2.5-.02-.2-.02-.43 0-.66.17-1.58 1.5-2.84 3.02-2.93.1 0 .18 0 .27 0 1.63.06 2.82 1.47 2.64 3.16z" transform="matrix(.429 0 0 .429 4.79 6.558)"/><path fill="url(#an)" d="M32.88 14.86c-.14 1.6-1.32 2.88-2.63 2.9-1.15 0-2-.96-2.13-2.25-.02-.18-.02-.4 0-.6.13-1.5 1.2-2.73 2.4-2.87.08 0 .16 0 .23-.02 1.3 0 2.27 1.28 2.13 2.86z" transform="matrix(.429 0 0 .429 4.79 6.558)"/><path fill="none" stroke="#000" stroke-width=".43.865" d="M16.35 8.65l1.53.1c1.75.1 3 1.82 2.8 3.95-.2 2.2-1.82 3.98-3.63 4-.2 0-.4-.03-.58-.07l-1.62-.43"/><path fill="none" stroke="#000" stroke-width=".43.865" d="M14.27 15.96c0 .14 0 .28-.02.43-.24 2.32-2.27 4.14-4.54 4.06-1-.03-1.9-.45-2.56-1.1l-.93-.92" enable-background="new"/><path fill="none" stroke="#000" stroke-width=".43.399" d="M10.55 11.75s.66.24.8.3c.15.07 1.06.5 1.06.5 1.15.7 1.88 1.95 1.87 3.4"/><path fill="none" stroke="#121212" stroke-width=".86.758" d="M18.07 17.96l.07-3.35-.3-.13-4.64.65.1 3.57"/><path fill="url(#ao)" d="M118.08 309.27l-10.4 2.16-.23-8.4 10.8-1.47-.17 7.7z" transform="matrix(.435 0 0 .435 -33.296 -116.565)"/><path fill="url(#ap)" d="M107.67 311.43l-.22-8.4-.55-.28.2 8.2.57.48z" transform="matrix(.435 0 0 .435 -33.296 -116.565)"/><path fill="url(#aq)" d="M118.26 301.56l-10.8 1.47-.56-.28 10.68-1.5.68.3z" transform="matrix(.435 0 0 .435 -33.296 -116.565)"/><path fill="none" stroke="#565b66" stroke-width=".43.165" d="M13.46 22.1l.57-.23"/><path fill="url(#ar)" d="M28.96 35.6l-1.04-.7h.02c-.36-.2-.57-.6-.58-1.12 0-.1 0-.23.03-.34.14-.85.8-1.54 1.5-1.62.03 0 .07 0 .12 0 .18 0 .34.03.48.1h-.03l1.07.53" transform="matrix(.429 0 0 .429 4.79 6.558)"/><path fill="#d6e0e4" d="M18.17 21.16c-.07.4-.4.72-.72.73-.3 0-.5-.26-.5-.58 0-.05 0-.1.02-.15.07-.38.36-.7.67-.73.02 0 .04 0 .06 0 .33 0 .54.32.47.72z"/><path fill="url(#as)" d="M30.84 34.04c-.12.7-.7 1.25-1.26 1.26-.5 0-.85-.42-.85-.98 0-.1 0-.18.02-.27.12-.66.63-1.2 1.17-1.26.03 0 .06 0 .1 0 .57-.02.94.54.82 1.24z" transform="matrix(.429 0 0 .429 4.79 6.558)"/><path fill="none" stroke="#8b99a3" stroke-width=".25068999999999997" d="M15.4 23.67v-3.92"/><path fill="none" stroke="#8b99a3" stroke-width=".24724999999999997" d="M19.3 18.84l-3.92.88-.28-.2"/><path fill="none" stroke="#cdd8dd" stroke-width="0.43" d="M20.7 15.55l-1.1 1.3"/><path fill="none" stroke="#000" stroke-width=".43.399" d="M20.6 15.45l-1.17 1.36"/><path fill="none" stroke="#cdd8de" stroke-width=".43.165" d="M12.97 20.37l.58-.12"/><path fill="none" stroke="#52585e" stroke-width=".43.165" d="M15.34 24.43v.77"/><path fill="none" stroke="#52585e" stroke-width=".43.165" d="M14.37 24.72l5.72-1.77"/><path fill="none" stroke="#a1aab2" stroke-width=".24724999999999997" d="M24.86 16.88l-3.58.73-1.7-.72"/></g><path fill="url(#at)" fill-rule="evenodd" stroke="#204a87" d="M15.8 21.87l5.2-1.5 6.14 3 3.07-1.13-.74 4.93-10.96-.47 4.1-1.3-6.8-3.53z" sodipodi:nodetypes="cccccccc" color="#000" stroke-linejoin="round" overflow="visible"/><path fill="url(#au)" fill-rule="evenodd" stroke="#204a87" d="M11.36 12.1l4.32 2.02V6.2l4.55 1.98L13.55.06 7.88 3l3.38 1.6.1 7.5z" sodipodi:nodetypes="cccccccc" stroke-linejoin="round"/></g></svg>