<svg xmlns="http://www.w3.org/2000/svg" width="32" height="32" xmlns:xlink="http://www.w3.org/1999/xlink" version="1"><defs><linearGradient id="q"><stop offset="0" stop-color="#f30"/><stop offset="1" stop-color="#881a00"/></linearGradient><linearGradient id="p"><stop offset="0" stop-color="#c6c6bf"/><stop offset="1" stop-color="#292925"/></linearGradient><linearGradient id="o" x1="110.121" x2="121.872" y1="292.456" y2="301.456" gradientUnits="userSpaceOnUse"><stop offset=".006" stop-color="#212326"/><stop offset=".698" stop-color="#7a878d"/><stop offset="1" stop-color="#596669"/></linearGradient><linearGradient id="a"><stop offset="0" stop-color="#fff"/><stop offset="1" stop-color="#3465a4"/></linearGradient><linearGradient id="b" x1="116.365" x2="117.487" y1="315.413" y2="317.743" gradientUnits="userSpaceOnUse"><stop offset="0"/><stop offset=".163" stop-color="#070707"/><stop offset=".302" stop-color="#111"/><stop offset=".432" stop-color="#1D1D1D"/><stop offset=".557" stop-color="#2F3030"/><stop offset=".678" stop-color="#444"/><stop offset=".797" stop-color="#565859"/><stop offset=".91" stop-color="#616569"/><stop offset="1" stop-color="#626B73"/></linearGradient><linearGradient id="c" x1="115.039" x2="116.658" y1="317.404" y2="314.497" gradientUnits="userSpaceOnUse"><stop offset="0" stop-color="#6D7780"/><stop offset=".138" stop-color="#717B84"/><stop offset=".274" stop-color="#7E878E"/><stop offset=".408" stop-color="#939CA2"/><stop offset=".542" stop-color="#B2BDC1"/><stop offset=".646" stop-color="#D3E0E4"/><stop offset=".819" stop-color="#A3AEB4"/><stop offset="1" stop-color="#7A858F"/></linearGradient><linearGradient id="X" x1="117.931" x2="112.091" y1="301.457" y2="302.191" gradientUnits="userSpaceOnUse"><stop offset="0" stop-color="#B6C1CA"/><stop offset=".295" stop-color="#B9C4CC"/><stop offset=".547" stop-color="#C5CED5"/><stop offset=".783" stop-color="#D7DEE2"/><stop offset="1" stop-color="#F0F5F5"/></linearGradient><linearGradient id="W" x1="107.249" x2="107.311" y1="310.911" y2="304.16" gradientUnits="userSpaceOnUse"><stop offset="0" stop-color="#A5AEB8"/><stop offset=".424" stop-color="#A1AAB5"/><stop offset=".786" stop-color="#96A1AB"/><stop offset="1" stop-color="#8B97A3"/></linearGradient><linearGradient id="V" x1="115.32" x2="109.787" y1="309.503" y2="302.446" gradientUnits="userSpaceOnUse"><stop offset="0" stop-color="#ACB5BE"/><stop offset=".479" stop-color="#848B93"/><stop offset="1" stop-color="#596169"/></linearGradient><linearGradient id="d" x1="117.953" x2="115.538" y1="298" y2="295.644" gradientUnits="userSpaceOnUse"><stop offset="0" stop-color="#121414"/><stop offset="1" stop-color="#2B3033"/></linearGradient><linearGradient id="e" x1="102.519" x2="99.309" y1="307.758" y2="303.465" gradientUnits="userSpaceOnUse"><stop offset="0" stop-color="#121414"/><stop offset="1" stop-color="#2B3033"/></linearGradient><linearGradient id="f" x1="100.924" x2="98.381" y1="302.737" y2="306.53" gradientUnits="userSpaceOnUse"><stop offset=".006" stop-color="#2C2F33"/><stop offset=".506" stop-color="#5A6166"/><stop offset=".638" stop-color="#585E63"/><stop offset=".751" stop-color="#50565A"/><stop offset=".856" stop-color="#43484C"/><stop offset=".957" stop-color="#34373B"/><stop offset="1" stop-color="#2C2F33"/></linearGradient><linearGradient id="R" x1="104.598" x2="105.609" y1="313.838" y2="320.968" gradientUnits="userSpaceOnUse"><stop offset="0" stop-color="#CFDDE2"/><stop offset=".152" stop-color="#CBD8DD"/><stop offset=".281" stop-color="#BCC9CD"/><stop offset=".402" stop-color="#A7B1B5"/><stop offset=".519" stop-color="#899297"/><stop offset=".63" stop-color="#677077"/><stop offset=".646" stop-color="#626B73"/><stop offset="1" stop-color="#121212"/></linearGradient><linearGradient id="Q" x1="105.425" x2="104.552" y1="320.149" y2="314.416" gradientUnits="userSpaceOnUse"><stop offset="0"/><stop offset=".123" stop-color="#070707"/><stop offset=".225" stop-color="#111"/><stop offset=".319" stop-color="#1C1C1C"/><stop offset=".409" stop-color="#2F2F2F"/><stop offset=".496" stop-color="#434444"/><stop offset=".58" stop-color="#555757"/><stop offset=".661" stop-color="#606467"/><stop offset=".73" stop-color="#626B73"/><stop offset=".751" stop-color="#596167"/><stop offset=".838" stop-color="#383B3D"/><stop offset=".912" stop-color="#232323"/><stop offset=".968" stop-color="#171616"/><stop offset="1" stop-color="#121212"/></linearGradient><linearGradient id="g" x1="108.432" x2="107.471" y1="318.345" y2="314.445" gradientUnits="userSpaceOnUse"><stop offset="0"/><stop offset=".123" stop-color="#070707"/><stop offset=".225" stop-color="#111"/><stop offset=".319" stop-color="#1C1C1C"/><stop offset=".409" stop-color="#2F2F2F"/><stop offset=".496" stop-color="#434444"/><stop offset=".58" stop-color="#555757"/><stop offset=".661" stop-color="#606467"/><stop offset=".73" stop-color="#626B73"/><stop offset=".751" stop-color="#596167"/><stop offset=".838" stop-color="#383B3D"/><stop offset=".912" stop-color="#232323"/><stop offset=".968" stop-color="#171616"/><stop offset="1" stop-color="#121212"/></linearGradient><linearGradient id="h" x1="101.549" x2="104.147" y1="318.713" y2="316.779" gradientUnits="userSpaceOnUse"><stop offset="0" stop-color="#87959F"/><stop offset=".071" stop-color="#939EA6"/><stop offset=".489" stop-color="#D6D5D5"/><stop offset=".573" stop-color="#CECECE"/><stop offset=".673" stop-color="#B9B9B9"/><stop offset=".781" stop-color="#9A9C9C"/><stop offset=".894" stop-color="#737779"/><stop offset="1" stop-color="#4D5359"/></linearGradient><linearGradient id="N" x1="110.47" x2="111.507" y1="323.062" y2="325.202" gradientUnits="userSpaceOnUse"><stop offset="0" stop-color="#161617"/><stop offset=".208" stop-color="#171718"/><stop offset=".385" stop-color="#1B1C1D"/><stop offset=".551" stop-color="#232425"/><stop offset=".711" stop-color="#2E2F32"/><stop offset=".864" stop-color="#3E4145"/><stop offset="1" stop-color="#52585E"/></linearGradient><linearGradient id="M" x1="115.234" x2="116.434" y1="322.629" y2="325.482" gradientUnits="userSpaceOnUse"><stop offset="0" stop-color="#1C1C1F"/><stop offset=".208" stop-color="#1E1E21"/><stop offset=".385" stop-color="#222326"/><stop offset=".551" stop-color="#2B2C30"/><stop offset=".711" stop-color="#383A3E"/><stop offset=".864" stop-color="#4B4F55"/><stop offset="1" stop-color="#626B73"/></linearGradient><linearGradient id="L" x1="111.698" x2="111.512" y1="321.808" y2="313.356" gradientUnits="userSpaceOnUse"><stop offset="0" stop-color="#616973"/><stop offset=".417" stop-color="#5E666F"/><stop offset=".772" stop-color="#565D64"/><stop offset="1" stop-color="#4D5359"/></linearGradient><linearGradient id="K" x1="112.503" x2="119.393" y1="312.623" y2="311.58" gradientUnits="userSpaceOnUse"><stop offset="0" stop-color="#6C7680"/><stop offset=".355" stop-color="#69727C"/><stop offset=".659" stop-color="#5F6870"/><stop offset=".942" stop-color="#51575E"/><stop offset="1" stop-color="#4D5359"/></linearGradient><linearGradient id="J" x1="118.09" x2="114.701" y1="320.286" y2="313.285" gradientUnits="userSpaceOnUse"><stop offset="0" stop-color="#6C7680"/><stop offset=".355" stop-color="#69727C"/><stop offset=".659" stop-color="#5F6870"/><stop offset=".942" stop-color="#51575E"/><stop offset="1" stop-color="#4D5359"/></linearGradient><linearGradient id="i" x1="115.751" x2="117.563" y1="299.183" y2="295.308" gradientUnits="userSpaceOnUse"><stop offset=".006" stop-color="#2C2F33"/><stop offset=".506" stop-color="#5A6166"/><stop offset=".638" stop-color="#585E63"/><stop offset=".751" stop-color="#50565A"/><stop offset=".856" stop-color="#43484C"/><stop offset=".957" stop-color="#34373B"/><stop offset="1" stop-color="#2C2F33"/></linearGradient><linearGradient id="H" x1="115.693" x2="111.95" y1="296.266" y2="290.414" gradientUnits="userSpaceOnUse"><stop offset="0" stop-color="#161719"/><stop offset="1" stop-color="#B2B2B2"/></linearGradient><linearGradient id="n" x1="110.121" x2="121.872" y1="292.456" y2="301.456" gradientUnits="userSpaceOnUse"><stop offset=".006" stop-color="#212326"/><stop offset="1" stop-color="#596669"/></linearGradient><linearGradient id="j" x1="99.238" x2="94.868" y1="304.31" y2="297.577" gradientUnits="userSpaceOnUse"><stop offset="0" stop-color="#161719"/><stop offset="1" stop-color="#ccc"/></linearGradient><linearGradient id="k" x1="95.831" x2="104.749" y1="300.837" y2="310.642" gradientUnits="userSpaceOnUse"><stop offset=".006" stop-color="#212326"/><stop offset="1" stop-color="#596669"/></linearGradient><linearGradient id="l" x1="99.486" x2="90.171" y1="295.642" y2="308.361" gradientUnits="userSpaceOnUse"><stop offset="0" stop-color="#141617"/><stop offset=".483" stop-color="#566063"/><stop offset="1" stop-color="#232729"/></linearGradient><linearGradient id="m" x1="113.933" x2="109.224" y1="286.865" y2="299.691" gradientUnits="userSpaceOnUse"><stop offset="0" stop-color="#141617"/><stop offset=".483" stop-color="#566063"/><stop offset="1" stop-color="#232729"/></linearGradient><radialGradient id="B" cx="109.941" cy="312.073" r="9.655" fx="109.941" fy="312.073" gradientUnits="userSpaceOnUse"><stop offset="0" stop-color="#828E99"/><stop offset="1" stop-color="#373C40"/></radialGradient><radialGradient id="A" cx="109.94" cy="312.074" r="9.655" fx="109.94" fy="312.074" gradientUnits="userSpaceOnUse"><stop offset="0" stop-color="#828E99"/><stop offset="1" stop-color="#373C40"/></radialGradient><linearGradient id="z" x1="109.501" x2="124.153" y1="309.648" y2="309.648" gradientUnits="userSpaceOnUse"><stop offset="0" stop-color="#121314"/><stop offset=".19" stop-color="#131415"/><stop offset=".352" stop-color="#17191A"/><stop offset=".504" stop-color="#1F2022"/><stop offset=".65" stop-color="#2A2C2E"/><stop offset=".791" stop-color="#3A3E42"/><stop offset=".927" stop-color="#52595F"/><stop offset="1" stop-color="#626B73"/></linearGradient><linearGradient id="y" x1="106.022" x2="108.701" y1="312.679" y2="325.27" gradientUnits="userSpaceOnUse"><stop offset="0" stop-color="#161617"/><stop offset=".195" stop-color="#171718"/><stop offset=".361" stop-color="#1C1C1D"/><stop offset=".516" stop-color="#242426"/><stop offset=".665" stop-color="#2F3033"/><stop offset=".81" stop-color="#404447"/><stop offset=".95" stop-color="#585E65"/><stop offset="1" stop-color="#626B73"/></linearGradient><linearGradient id="x" x1="113.713" x2="122.957" y1="315.036" y2="322.672" gradientUnits="userSpaceOnUse"><stop offset="0" stop-color="#11100F"/><stop offset=".171" stop-color="#121110"/><stop offset=".316" stop-color="#181817"/><stop offset=".453" stop-color="#242322"/><stop offset=".584" stop-color="#323130"/><stop offset=".711" stop-color="#414141"/><stop offset=".835" stop-color="#515356"/><stop offset=".954" stop-color="#5E646A"/><stop offset="1" stop-color="#626B73"/></linearGradient><linearGradient id="w" x1="124.724" x2="123.134" y1="313.892" y2="309.237" gradientUnits="userSpaceOnUse"><stop offset=".006" stop-color="#3D4247"/><stop offset=".596" stop-color="#1E2024"/><stop offset="1" stop-color="#121314"/></linearGradient><linearGradient id="v" x1="121.422" x2="122.305" y1="306.692" y2="309.137" gradientUnits="userSpaceOnUse"><stop offset=".006" stop-color="#3D4247"/><stop offset=".596" stop-color="#1E2024"/><stop offset="1" stop-color="#121314"/></linearGradient><linearGradient x1="127.034" x2="129.194" y1="304.143" y2="313.917" gradientUnits="userSpaceOnUse"><stop offset=".006" stop-color="#3D4247"/><stop offset=".202" stop-color="#121314"/><stop offset=".27" stop-color="#131415"/><stop offset=".298" stop-color="#151718"/><stop offset=".32" stop-color="#1A1C1D"/><stop offset=".338" stop-color="#222426"/><stop offset=".353" stop-color="#2D3032"/><stop offset=".367" stop-color="#3C4044"/><stop offset=".379" stop-color="#50575C"/><stop offset=".388" stop-color="#626B73"/><stop offset=".413" stop-color="#4F565C"/><stop offset=".447" stop-color="#3E4248"/><stop offset=".485" stop-color="#313439"/><stop offset=".531" stop-color="#282B2F"/><stop offset=".586" stop-color="#222529"/><stop offset=".665" stop-color="#1F2125"/><stop offset=".882" stop-color="#1E2024"/><stop offset="1" stop-color="#121314"/></linearGradient><radialGradient id="r" cx="16.405" cy="23.17" r="15.604" xlink:href="#a" fx="16.405" fy="23.17" gradientTransform="matrix(.565 0 0 .272 13.793 15.51)" gradientUnits="userSpaceOnUse"/><linearGradient id="Z" x1="116.365" x2="117.487" y1="315.413" y2="317.743" xlink:href="#b" gradientUnits="userSpaceOnUse" gradientTransform="matrix(.529 0 0 .529 -46.403 -147.749)"/><linearGradient id="Y" x1="115.039" x2="116.658" y1="317.404" y2="314.497" xlink:href="#c" gradientUnits="userSpaceOnUse" gradientTransform="matrix(.529 0 0 .529 -46.403 -147.749)"/><linearGradient id="U" x1="117.953" x2="115.538" y1="298" y2="295.644" xlink:href="#d" gradientUnits="userSpaceOnUse" gradientTransform="matrix(.529 0 0 .529 -46.403 -147.749)"/><linearGradient id="T" x1="102.519" x2="99.309" y1="307.758" y2="303.465" xlink:href="#e" gradientUnits="userSpaceOnUse" gradientTransform="matrix(.529 0 0 .529 -46.403 -147.749)"/><linearGradient id="S" x1="100.924" x2="98.381" y1="302.737" y2="306.53" xlink:href="#f" gradientUnits="userSpaceOnUse" gradientTransform="matrix(.529 0 0 .529 -46.403 -147.749)"/><linearGradient id="P" x1="108.432" x2="107.471" y1="318.345" y2="314.445" xlink:href="#g" gradientUnits="userSpaceOnUse" gradientTransform="matrix(.529 0 0 .529 -46.403 -147.749)"/><linearGradient id="O" x1="101.549" x2="104.147" y1="318.713" y2="316.779" xlink:href="#h" gradientUnits="userSpaceOnUse" gradientTransform="matrix(.529 0 0 .529 -46.403 -147.749)"/><linearGradient id="I" x1="115.751" x2="117.563" y1="299.183" y2="295.308" xlink:href="#i" gradientUnits="userSpaceOnUse" gradientTransform="matrix(.529 0 0 .529 -46.403 -147.749)"/><linearGradient id="F" x1="99.238" x2="94.868" y1="304.31" y2="297.577" xlink:href="#j" gradientUnits="userSpaceOnUse" gradientTransform="matrix(.529 0 0 .529 -46.403 -147.749)"/><linearGradient id="E" x1="95.831" x2="104.749" y1="300.837" y2="310.642" xlink:href="#k" gradientUnits="userSpaceOnUse" gradientTransform="matrix(.529 0 0 .529 -46.403 -147.749)"/><linearGradient id="D" x1="99.486" x2="90.171" y1="295.642" y2="308.361" xlink:href="#l" gradientUnits="userSpaceOnUse" gradientTransform="matrix(.529 0 0 .529 -46.403 -147.749)"/><linearGradient id="C" x1="113.933" x2="109.224" y1="286.865" y2="299.691" xlink:href="#m" gradientUnits="userSpaceOnUse" gradientTransform="matrix(.529 0 0 .529 -46.403 -147.749)"/><linearGradient id="G" x1="110.121" x2="121.872" y1="292.456" y2="301.456" xlink:href="#n" gradientUnits="userSpaceOnUse"/><linearGradient x1="20.65" x2="19.344" y1="6.677" y2="1.638" xlink:href="#o" gradientUnits="userSpaceOnUse" gradientTransform="translate(-5.642 11.711)"/><linearGradient x1="10.059" x2="11.794" y1="13.694" y2="19.811" xlink:href="#p" gradientUnits="userSpaceOnUse" gradientTransform="matrix(.995 .104 -.104 .995 -5.536 .79)"/><linearGradient id="u" x1="10.059" x2="11.794" y1="13.694" y2="19.811" xlink:href="#p" gradientUnits="userSpaceOnUse" gradientTransform="matrix(.825 .086 -.086 .825 6.679 2.627)"/><linearGradient id="s" x1="20.65" x2="19.344" y1="6.677" y2="1.638" xlink:href="#o" gradientUnits="userSpaceOnUse" gradientTransform="matrix(.829 0 0 .829 6.591 11.681)"/><linearGradient id="t" x1="26.783" x2="28.088" y1="12.071" y2="16.201" xlink:href="#q" gradientUnits="userSpaceOnUse"/></defs><g><path fill="url(#r)" fill-rule="evenodd" stroke="#204a87" stroke-width=".75" d="M17.13 24.2l2.35-4.15 1.1 1.18 6.1-1.33-2.34-1.4 7.26 1.3-.73 3.5-2-1.5-5.93 1.63 1.32 1.52-7.13-.75z"/><path fill="url(#s)" fill-rule="evenodd" stroke="#000" d="M28.22 11.2c1.2-.43 2.56.33 3.04 1.7.48 1.35-.1 2.8-1.3 3.22l-9.52 2.58c-1.27.42-2.7-.38-3.2-1.8s.1-2.93 1.36-3.37l9.64-2.34" color="#000" overflow="visible"/><path fill="none" stroke="#d3d7cf" stroke-width=".5" d="M21.2 13.6l1.37-.34"/><path fill="none" stroke="#eeeeec" stroke-width=".5" d="M21.92 14.53l1.37-.34"/><path fill="none" stroke="#d3d7cf" stroke-width=".5" d="M22.3 15.6l1.37-.35"/><path fill="none" stroke="#babdb6" stroke-width=".5" d="M22.4 16.65l1.37-.34"/><path fill="none" stroke="#888a85" stroke-width=".5" d="M22.2 17.78l1.36-.34"/><path fill="none" stroke="url(#t)" stroke-width=".75" d="M26.8 11.9c.66.33 1.34 1.04 1.53 2 .22 1.1.07 2.02-.46 2.56" color="#000" stroke-linecap="round" overflow="visible"/><path fill="none" stroke="url(#u)" stroke-width=".5" d="M20.13 13.53c.68.32 1.28 1.12 1.4 2.1.15 1.12-.13 2.05-.62 2.52" color="#000" stroke-linecap="round" overflow="visible"/><path fill="none" stroke="#000" stroke-width="1.5" d="M8.56 18.27v.27l-.95.02c-.12 0-.24.14-.3.4-.2.6-.05 1.7.3 2.46.25.54.55.76.76.6l.74-.37 2.43 2.32.4-.13.78.7 4.15-1.32v-.9l1.63-.5.04-3.78 1.26-.24"/><path fill="url(#v)" d="M122.26 309.26l-4-1.88 3.17-.6 4.03 1.7-3.2.78z" transform="matrix(.529 0 0 .529 -46.403 -147.749)"/><path fill="url(#w)" d="M122.12 313.84l3.05-.73.3-4.63-3.2.8-.15 4.57z" transform="matrix(.529 0 0 .529 -46.403 -147.749)"/><path fill="url(#x)" d="M122.7 320.68l-13.13 4.06-.16-12.2 13.7-2.9-.4 11.04z" transform="matrix(.529 0 0 .529 -46.403 -147.749)"/><path fill="url(#y)" d="M109.57 324.74l-5.5-5.25-.2-10.44 5.54 3.5.17 12.18z" transform="matrix(.529 0 0 .529 -46.403 -147.749)"/><path fill="url(#z)" d="M123.1 309.65l-13.7 2.9-5.55-3.5 13.07-2.3 6.17 2.9z" transform="matrix(.529 0 0 .529 -46.403 -147.749)"/><g transform="matrix(.529 0 0 .529 -46.403 -147.749)"><radialGradient cx="109.94" cy="312.074" r="9.655" gradientUnits="userSpaceOnUse" fy="312.074" fx="109.94"><stop offset="0" stop-color="#828E99"/><stop offset="1" stop-color="#373C40"/></radialGradient><path fill="url(#A)" d="M103.72 309.27l5.64 3.55 13.78-2.93-.1-.5s-13.4 2.85-13.58 2.9c-.17-.1-5.47-3.45-5.47-3.45l-.28.42z"/></g><g transform="matrix(.529 0 0 .529 -46.403 -147.749)"><radialGradient cx="109.941" cy="312.073" r="9.655" gradientUnits="userSpaceOnUse" fy="312.073" fx="109.941"><stop offset="0" stop-color="#828E99"/><stop offset="1" stop-color="#373C40"/></radialGradient><path fill="url(#B)" d="M109.24 312.56h.5v12.18h-.5z"/></g><path fill="none" stroke="#73797f" stroke-width=".50138" d="M8.5 15.7l6.9-1.24L18.66 16l-.18 5.82"/><path fill="url(#C)" stroke="#000" stroke-width=".8" d="M15.75 4.57l-1.82-.13c-.06 0-.12 0-.18 0-.12 0-.24 0-.36 0-2 .24-3.7 2.24-3.9 4.66-.04.34-.04.67 0 1 .18 2.07 1.6 3.62 3.43 3.6"/><path fill="url(#D)" stroke="#000" stroke-width=".8" d="M9.34 9.24l-1.85-.8c-.55-.26-1.16-.42-1.8-.44-.15 0-.3 0-.44 0-2.44.14-4.55 2.16-4.8 4.7-.04.36-.04.7 0 1.04.1 1.06.56 2 1.26 2.7l1.03 1 6.6-8.2z"/><path fill="url(#E)" d="M11.38 13.84c-.3 2.83-2.76 5.05-5.52 4.95-2.4-.1-4.2-1.9-4.46-4.22-.04-.36-.04-.72 0-1.1.27-2.68 2.5-4.8 5.06-4.95.15 0 .3 0 .46 0 2.75.1 4.75 2.47 4.46 5.3z" enable-background="new"/><path fill="url(#F)" d="M6.45 8.4c-2.67.15-4.9 2.33-5.18 5.07-.04.37-.04.75 0 1.12.26 2.42 2.2 4.24 4.6 4.32 2.8.1 5.35-2.17 5.64-5.07.16-1.44-.26-2.8-1.16-3.84-.87-.98-2.08-1.56-3.42-1.6h-.47zm-.58 10.26c-2.27-.08-4.1-1.8-4.34-4.1-.03-.35-.03-.7 0-1.07.27-2.62 2.4-4.7 4.94-4.84 0 0 .44 0 .44 0 1.28.04 2.42.6 3.24 1.52.86 1 1.25 2.28 1.1 3.65-.27 2.76-2.7 4.93-5.37 4.83z"/><g transform="matrix(.529 0 0 .529 -46.403 -147.749)"><linearGradient x1="110.121" x2="121.872" y1="292.456" y2="301.456" gradientUnits="userSpaceOnUse"><stop offset=".006" stop-color="#212326"/><stop offset="1" stop-color="#596669"/></linearGradient><path fill="url(#G)" d="M123.83 297.1c-.44 5.03-4.2 9.14-8.37 9.17-3.63.03-6.4-3.02-6.77-7.12-.07-.62-.07-1.27 0-1.94.4-4.74 3.77-8.67 7.66-9.1.23-.04.46-.06.7-.06 4.18-.03 7.2 4.02 6.77 9.06z" enable-background="new"/><linearGradient x1="115.693" x2="111.95" y1="296.266" y2="290.414" gradientUnits="userSpaceOnUse"><stop offset="0" stop-color="#161719"/><stop offset="1" stop-color="#B2B2B2"/></linearGradient><path fill="url(#H)" d="M117.05 288l-.7.04c-4.1.47-7.48 4.3-7.9 9.15v1.98c.4 4.28 3.34 7.37 7 7.34 4.3-.03 8.18-4.25 8.63-9.4.24-2.8-.56-5.42-2.2-7.2-1.28-1.38-3-1.94-4.83-1.93zm-8.1 11.13v-1.9c.4-4.55 3.66-8.46 7.44-8.9l.66-.04c1.68-.02 3.27.68 4.45 1.96 1.56 1.68 2.3 4.16 2.08 6.82-.43 4.9-4.07 8.9-8.12 8.94-3.4.02-6.15-2.87-6.52-6.9z"/></g><g><path fill="#f0efed" d="M6.75 11.88c-.97.05-1.78.84-1.88 1.83v.42c.1.9.82 1.58 1.7 1.6 1.04.05 1.96-.77 2.07-1.82 0-.07 0-.14 0-.2 0-.46-.14-.9-.44-1.22-.32-.37-.77-.6-1.27-.6h-.18zm.15.8c.28 0 .53.12.7.32.2.22.28.5.25.82-.06.64-.62 1.14-1.24 1.12-.5-.02-.9-.4-.94-.9 0 0 0-.25 0-.25.06-.6.56-1.1 1.14-1.13 0 0 .1 0 .1 0zm1.74 1.22z"/></g><g><path fill="#f0efed" d="M15.37 7.82h-.14c-.74.1-1.36.8-1.43 1.67 0-.02 0 .33 0 .33.07.8.63 1.36 1.33 1.36.8-.02 1.5-.75 1.57-1.68.04-.5-.1-.96-.4-1.3-.25-.25-.58-.4-.93-.4zm-.07.64s.07 0 .07 0c.22 0 .37.1.46.2.18.2.26.5.23.8-.05.6-.48 1.1-.93 1.1-.37 0-.66-.32-.7-.78 0 0 0-.24 0-.24.05-.55.43-1.03.87-1.08z"/></g><path fill="url(#I)" d="M16.38 9.5c-.07.75-.63 1.37-1.25 1.37-.54 0-.96-.45-1-1.07-.02-.1-.02-.18 0-.3.05-.7.55-1.28 1.13-1.35.04 0 .07 0 .1 0 .63 0 1.1.6 1.02 1.35z"/><path fill="url(#J)" d="M120.6 319.8l-8.7 2.5v-8.98l9-2.02-.3 8.5z" transform="matrix(.529 0 0 .529 -46.403 -147.749)"/><path fill="url(#K)" d="M120.9 311.3l-9 2.02-.65-.43 9.06-2.06.6.46z" transform="matrix(.529 0 0 .529 -46.403 -147.749)"/><path fill="url(#L)" d="M111.9 313.32v9l-.6-.48-.05-8.95.65.42z" transform="matrix(.529 0 0 .529 -46.403 -147.749)"/><path fill="url(#M)" d="M119.6 323.33l-7.82 2.5v-1.77l7.83-2.43v1.7z" transform="matrix(.529 0 0 .529 -46.403 -147.749)"/><path fill="url(#N)" d="M111.78 325.83l-1.44-1.33 1.44-.44v1.77z" transform="matrix(.529 0 0 .529 -46.403 -147.749)"/><path fill="url(#O)" d="M8.55 21.68c-.18.6-.6.5-.95-.27-.35-.74-.5-1.84-.3-2.45.16-.6.6-.5.94.27.35.75.5 1.86.3 2.46z"/><path fill="url(#P)" d="M9.84 18.68l.7-.15c.15-.04.35.1.52.38.26.44.36 1.07.22 1.4-.04.12-.1.18-.18.2h.02l-.74.28"/><g transform="matrix(.529 0 0 .529 -46.403 -147.749)"><linearGradient x1="105.425" x2="104.552" y1="320.149" y2="314.416" gradientUnits="userSpaceOnUse"><stop offset="0"/><stop offset=".123" stop-color="#070707"/><stop offset=".225" stop-color="#111"/><stop offset=".319" stop-color="#1C1C1C"/><stop offset=".409" stop-color="#2F2F2F"/><stop offset=".496" stop-color="#434444"/><stop offset=".58" stop-color="#555757"/><stop offset=".661" stop-color="#606467"/><stop offset=".73" stop-color="#626B73"/><stop offset=".751" stop-color="#596167"/><stop offset=".838" stop-color="#383B3D"/><stop offset=".912" stop-color="#232323"/><stop offset=".968" stop-color="#171616"/><stop offset="1" stop-color="#121212"/></linearGradient><path fill="url(#Q)" d="M107.05 319.28l-3.6 1.84h-.02c.2-.06.38-.3.5-.7.33-1.15.06-3.23-.6-4.66-.37-.8-.8-1.24-1.15-1.24l3.66-.08c.27 0 .62.3.94.92.55 1.05.8 2.58.58 3.43-.07.24-.18.4-.3.48z"/><linearGradient x1="104.598" x2="105.609" y1="313.838" y2="320.968" gradientUnits="userSpaceOnUse"><stop offset="0" stop-color="#CFDDE2"/><stop offset=".152" stop-color="#CBD8DD"/><stop offset=".281" stop-color="#BCC9CD"/><stop offset=".402" stop-color="#A7B1B5"/><stop offset=".519" stop-color="#899297"/><stop offset=".63" stop-color="#677077"/><stop offset=".646" stop-color="#626B73"/><stop offset="1" stop-color="#121212"/></linearGradient><path fill="url(#R)" d="M105.82 314.2l-3.65.07v.5c.2 0 .57.3.94 1.1.46.97.72 2.27.72 3.33 0 .44-.04.83-.14 1.15-.08.3-.2.5-.34.54l.17.46c.03 0 .04-.03.06-.04 0 0 0 .02 0 .02l3.6-1.84c.2-.1.36-.33.44-.65.25-.9-.02-2.5-.6-3.6-.36-.7-.78-1.07-1.18-1.06zm.02.5c.1 0 .4.15.72.77.4.75.63 1.8.63 2.6 0 .24-.03.47-.08.65-.07.26-.16.32-.2.34 0 0-1.78.92-2.75 1.4.1-.35.15-.8.15-1.27 0-1.14-.27-2.5-.76-3.55-.18-.4-.38-.67-.58-.9.97-.02 2.86-.06 2.86-.06z"/></g><path fill="url(#S)" d="M7.68 12.5l-.3-.13h-.03c-.14-.06-.28-.1-.44-.1-.03 0-.08 0-.12 0-.77.05-1.43.68-1.52 1.48 0 .1 0 .22 0 .33.04.33.18.63.4.85l.03.02.3.28 1.68-2.73z"/><path fill="url(#T)" d="M8.62 14.05c-.1.88-.86 1.57-1.72 1.54-.74-.04-1.3-.6-1.38-1.32 0-.1 0-.22 0-.34.08-.83.77-1.5 1.57-1.53.04 0 .08 0 .13 0 .86.04 1.48.78 1.4 1.65z"/><path fill="url(#U)" d="M17.03 9.64c-.07.83-.7 1.5-1.37 1.5-.6 0-1.05-.5-1.1-1.16-.02-.1-.02-.2 0-.32.05-.78.6-1.42 1.25-1.5.04 0 .08 0 .12 0 .68 0 1.18.66 1.1 1.48z"/><path fill="none" stroke="#000" stroke-width=".8" d="M13.93 4.44l1.87.13c2.12.1 3.63 2.2 3.4 4.8-.23 2.65-2.2 4.82-4.42 4.84-.24 0-.47-.02-.7-.06l-1.97-.53"/><path fill="none" stroke="#000" stroke-width=".8" d="M11.4 13.3c0 .2 0 .36-.02.54-.3 2.83-2.76 5.05-5.52 4.95-1.23-.05-2.32-.56-3.1-1.36l-1.15-1.1" enable-background="new"/><path fill="none" stroke="#000" stroke-width=".6" d="M6.88 8.2s.8.3 1 .37c.17.08 1.27.6 1.27.6 1.38.84 2.27 2.37 2.26 4.14"/><path fill="none" stroke="#121212" stroke-width="1.06.269" d="M16.04 15.8l.1-4.1-.37-.15-5.64.8.1 4.33"/><path fill="url(#V)" d="M118.08 309.27l-10.4 2.16-.23-8.4 10.8-1.47-.17 7.7z" transform="matrix(.529 0 0 .529 -46.403 -147.749)"/><path fill="url(#W)" d="M107.67 311.43l-.22-8.4-.55-.28.2 8.2.57.48z" transform="matrix(.529 0 0 .529 -46.403 -147.749)"/><path fill="url(#X)" d="M118.26 301.56l-10.8 1.47-.56-.28 10.68-1.5.68.3z" transform="matrix(.529 0 0 .529 -46.403 -147.749)"/><path fill="none" stroke="#565b66" stroke-width=".5" d="M10.42 20.76l.7-.25"/><path fill="url(#Y)" d="M14.98 20.45l-.53-.36c-.18-.1-.3-.33-.3-.6 0-.05 0-.1.02-.17.08-.44.42-.8.78-.85.02 0 .04 0 .07 0 .1 0 .17.02.25.06h-.02l.56.27"/><path fill="#d6e0e4" d="M16.15 19.64c-.08.48-.48.88-.88.88-.35 0-.6-.3-.6-.7 0-.05 0-.1.02-.17.07-.46.43-.84.8-.88.03 0 .05 0 .08 0 .4 0 .66.38.57.87z"/><path fill="url(#Z)" d="M15.97 19.64c-.07.36-.36.65-.66.66-.25 0-.43-.22-.44-.5 0-.06 0-.1.02-.15.06-.35.32-.63.6-.66.02 0 .04 0 .06 0 .3 0 .5.28.43.64z"/><path fill="none" stroke="#8b99a3" stroke-width=".25" d="M12.77 22.7v-4.77"/><path fill="none" stroke="#8b99a3" stroke-width=".25069" d="M17.53 16.86l-4.76 1.07-.35-.23"/><path fill="none" stroke="#cdd8de" stroke-width=".5" d="M9.83 18.68l.7-.15"/><path fill="none" stroke="#52585e" stroke-width=".5" d="M12.7 23.6v.94"/><path fill="none" stroke="#52585e" stroke-width=".5" d="M11.53 23.97l6.95-2.15"/></g></svg>