<svg xmlns="http://www.w3.org/2000/svg" width="48" height="48" xmlns:xlink="http://www.w3.org/1999/xlink"><defs><linearGradient id="a"><stop offset="0" stop-color="#fff"/><stop offset="1" stop-color="#eeeeec" stop-opacity="0"/></linearGradient><linearGradient id="m" x1="14.107" x2="39.69" y1="4.772" y2="43.606" xlink:href="#a" gradientUnits="userSpaceOnUse" gradientTransform="matrix(.568 0 0 .569 10.177 11.154)"/><linearGradient id="b"><stop offset="0" stop-color="#f0f0f0"/><stop offset="1" stop-color="#f0f0f0" stop-opacity="0"/></linearGradient><linearGradient id="l" x1="16.601" x2="17.363" y1="19.142" y2="45.175" xlink:href="#b" gradientUnits="userSpaceOnUse" gradientTransform="matrix(.568 0 0 .569 10.177 11.154)"/><radialGradient id="c" cx="294.624" cy="80.627" r="48.777" fx="294.624" fy="80.627" gradientUnits="userSpaceOnUse"><stop offset="0" stop-color="#BAD1D7"/><stop offset=".826" stop-color="#6D7580"/><stop offset="1" stop-color="#41454C"/></radialGradient><radialGradient id="k" cx="294.624" cy="80.627" r="48.777" xlink:href="#c" gradientUnits="userSpaceOnUse" fx="294.624" fy="80.627"/><radialGradient id="d" cx="257.459" cy="35.376" r="68.717" fx="257.459" fy="35.376" gradientUnits="userSpaceOnUse"><stop offset="0" stop-color="#fff"/><stop offset="1" stop-color="#8794A0"/></radialGradient><radialGradient id="j" cx="257.459" cy="35.376" r="68.717" xlink:href="#d" gradientUnits="userSpaceOnUse" fx="257.459" fy="35.376"/><radialGradient id="e" cx="264.957" cy="80.291" r="53.348" fx="264.957" fy="80.291" gradientUnits="userSpaceOnUse"><stop offset="0" stop-color="#BAD1D7"/><stop offset="1" stop-color="#8794A0"/></radialGradient><radialGradient id="i" cx="264.957" cy="80.291" r="53.348" xlink:href="#e" gradientUnits="userSpaceOnUse" fx="264.957" fy="80.291"/><defs><path id="f" d="M23.53 22.5L11.4 16.24l.22 14.73L23.6 37.5l-.07-15z"/></defs><clipPath><use width="48.25" height="48.25" xlink:href="#f"/></clipPath><defs><path id="g" d="M23.53 22.5L11.4 16.24l13.15-5.64L36.7 16.6l-13.17 5.9z"/></defs><clipPath><use width="48.25" height="48.25" xlink:href="#g"/></clipPath><defs><path id="h" d="M36.6 31.33l-13 6.17-.07-15 13.18-5.92-.1 14.75z"/></defs><clipPath><use width="48.25" height="48.25" xlink:href="#h"/></clipPath></defs><g><path stroke="#2e659e" stroke-width=".5" d="M.38 3.68h47.24v40.64H.38V3.68zM5.53 8.5v31h36.93v-31H5.53z"/><path fill="url(#i)" d="M273.55 75.76l-12-14.42-1.98-23.04 13.08 11.6.9 25.86z" transform="matrix(.594 0 0 .595 -142.371 -8.046)"/><path fill="url(#j)" d="M299.2 42.47l-26.55 7.44-13.07-11.6 23.56-5.1 16.06 9.27z" transform="matrix(.594 0 0 .595 -142.371 -8.046)"/><path fill="url(#k)" d="M296.92 66.62l-23.37 9.14-.9-25.85 26.55-7.43-2.28 24.15z" transform="matrix(.594 0 0 .595 -142.371 -8.046)"/><path fill="none" stroke="#f0f0f0" d="M19.82 21.84l15.04-4.26" stroke-linecap="round"/><path fill="none" stroke="url(#l)" d="M12.27 15.22l7.62 6.55.26 14.8" stroke-linecap="round"/><path fill="none" stroke="url(#m)" stroke-width="1.5" d="M12.4 15.35l13.44-2.8 9.1 5.3-1.35 13.63-13.2 5.06-6.78-8.26-1.22-12.93z"/><path fill="none" stroke="#3f3131" d="M11.73 14.88L25.9 11.9l9.57 5.6-1.42 14.4-13.9 5.33-7.14-8.7-1.27-13.65z"/></g></svg>