<svg xmlns="http://www.w3.org/2000/svg" width="48" height="48" xmlns:xlink="http://www.w3.org/1999/xlink"><defs><linearGradient id="a"><stop offset="0" stop-color="#fff"/><stop offset="1" stop-color="#f6e94e"/></linearGradient><radialGradient id="b" cx="23.964" cy="24.035" r="9.053" xlink:href="#a" fx="23.964" fy="24.035" gradientTransform="translate(0 -.001)" gradientUnits="userSpaceOnUse"/></defs><g stroke="#987c00"><path fill="url(#b)" stroke-width="2" d="M32.02 24.04c0 4.44-3.6 8.05-8.06 8.05-4.44 0-8.05-3.62-8.05-8.06 0-4.45 3.62-8.06 8.06-8.06 4.45 0 8.06 3.6 8.06 8.06z"/><g stroke-width="1.558"><path fill="#f6e94e" d="M36.38 22.36c-.85 0-1.54.75-1.54 1.67 0 .93.7 1.68 1.54 1.68h8.93c.86 0 1.55-.74 1.55-1.67 0-.92-.7-1.67-1.54-1.67H36.4z"/></g><g stroke-width="1.63"><path fill="#f6e94e" d="M37.97 7.86l-6.3 6.3c-.6.6-.6 1.58 0 2.18.6.6 1.56.6 2.16 0l6.3-6.3c.6-.6.6-1.58 0-2.18-.6-.6-1.56-.6-2.16 0z"/></g><g stroke-width="1.519"><path fill="#f6e94e" d="M22.24 2.6v9.12c0 .86.77 1.57 1.72 1.57.96 0 1.73-.72 1.73-1.58V2.6C25.7 1.7 24.9 1 23.95 1c-.95 0-1.72.7-1.72 1.57z"/></g><g stroke-width="1.543"><path fill="#f6e94e" d="M7.55 7.62c-.63.63-.63 1.66 0 2.3l6.66 6.66c.65.63 1.67.63 2.3 0 .64-.64.64-1.66 0-2.3L9.85 7.63C9.2 7 8.18 7 7.54 7.62z"/></g><g stroke-width="1.599"><path fill="#f6e94e" d="M2.72 22.4c-.83 0-1.5.74-1.5 1.64 0 .9.67 1.62 1.5 1.62h8.73c.83 0 1.5-.73 1.5-1.62 0-.9-.67-1.63-1.5-1.63H2.72z"/></g><g stroke-width="1.586"><path fill="#f6e94e" d="M14 31.76l-6.48 6.48c-.6.62-.6 1.62 0 2.23.62.62 1.62.62 2.23 0l6.5-6.48c.6-.63.6-1.63 0-2.24-.63-.62-1.62-.62-2.24 0z"/></g><g stroke-width="1.558"><path fill="#f6e94e" d="M22.3 36.45v8.93c0 .85.74 1.54 1.66 1.54.93 0 1.68-.7 1.68-1.54v-8.93c0-.84-.75-1.53-1.68-1.53-.92 0-1.67.68-1.67 1.53z"/></g><g stroke-width="1.636"><path fill="#f6e94e" d="M31.68 31.75c-.6.6-.6 1.57 0 2.16l6.28 6.3c.6.6 1.57.6 2.16 0 .6-.6.6-1.57 0-2.17l-6.28-6.28c-.6-.6-1.57-.6-2.16 0z"/></g></g></svg>