<svg xmlns="http://www.w3.org/2000/svg" width="48" height="48" xmlns:xlink="http://www.w3.org/1999/xlink"><defs><linearGradient id="d"><stop offset="0" stop-color="#fcd43e"/><stop offset="1" stop-color="#fcd43e" stop-opacity="0"/></linearGradient><linearGradient id="c"><stop offset="0" stop-color="#efb429"/><stop offset=".5" stop-color="#ef2929"/><stop offset=".75" stop-color="#ef2929"/><stop offset="1" stop-color="#ef2929" stop-opacity="0"/></linearGradient><linearGradient id="b"><stop offset="0" stop-color="#680000"/><stop offset="1" stop-color="#680000" stop-opacity="0"/></linearGradient><linearGradient id="a"><stop offset="0"/><stop offset="1" stop-color="#fff" stop-opacity="0"/></linearGradient><linearGradient id="e" x1="22.429" x2="22.5" y1="27" y2="1" xlink:href="#a" gradientUnits="userSpaceOnUse"/><linearGradient id="f" x1="22.429" x2="22.5" y1="27" y2="1" xlink:href="#a" gradientUnits="userSpaceOnUse" gradientTransform="translate(22 20)"/><linearGradient id="h" x1="19.268" x2="14.507" y1="19.719" y2="9.219" xlink:href="#b" gradientUnits="userSpaceOnUse"/><linearGradient id="g" x1="26.643" x2="15.5" y1="34.357" y2="11.357" xlink:href="#c" gradientUnits="userSpaceOnUse"/><linearGradient id="i" x1="20.618" x2="17.357" y1="22.184" y2="15.541" xlink:href="#d" gradientUnits="userSpaceOnUse"/></defs><g><path fill="#eeeeec" stroke="#2e3436" d="M.5.5h25v27H.5z" color="#000" overflow="visible" enable-background="accumulate"/><path fill="#ef2929" d="M1 1h6v26H1z" color="#000" overflow="visible" enable-background="accumulate"/><path fill="#73d216" d="M7 1h6v26H7z" color="#000" overflow="visible" enable-background="accumulate"/><path fill="#3465a4" d="M13 1h6v26h-6z" color="#000" overflow="visible" enable-background="accumulate"/><path fill="url(#e)" d="M19 1h6v26h-6z" color="#000" overflow="visible" enable-background="accumulate"/><path fill="none" stroke="#fff" stroke-opacity=".502" d="M1.5 1.5h23v25h-23z" color="#000" overflow="visible" enable-background="accumulate"/><path fill="#eeeeec" stroke="#2e3436" d="M22.5 20.5h25v27h-25z" color="#000" overflow="visible" enable-background="accumulate"/><path fill="#3465a4" d="M23 21h6v26h-6z" color="#000" overflow="visible" enable-background="accumulate"/><path fill="#fce94f" d="M29 21h6v26h-6z" color="#000" overflow="visible" enable-background="accumulate"/><path fill="#ad7fa8" d="M35 21h6v26h-6z" color="#000" overflow="visible" enable-background="accumulate"/><path fill="url(#f)" d="M41 21h6v26h-6z" color="#000" overflow="visible" enable-background="accumulate"/><path fill="none" stroke="#fff" stroke-opacity=".502" d="M23.5 21.5h23v25h-23z" color="#000" overflow="visible" enable-background="accumulate"/><path fill="url(#g)" fill-rule="evenodd" stroke="url(#h)" stroke-width="1.5" d="M14.83 9.25l9.52 13.95 5-2.88-2.14 14.87-14.58-5.05 5.22-2.96-3-17.95z"/><path fill="none" stroke="url(#i)" d="M17.1 14.86l6.8 10.02 3.8-2.3-1.5 10.86-10.44-3.6 3.58-1.75-2.24-13.24z"/></g></svg>