<svg xmlns="http://www.w3.org/2000/svg" width="48" height="48"><g><path fill="#a7d734" d="M0 0h48v48H0z"/><path fill="none" stroke="#000" d="M28.23 42.3s-.46-5.6-.32-6.85c.16-1.27 0-2.4-.03-2.67-.05-.27.2-3.98.2-5.02 0-1.04-.68-3.52-.77-4.43-.1-.9-.43-3.16-.8-3.75 0 0 .46-2.2.56-2.8 0 0 .57 1.5.57 1.7 0 .24-.1.92.1 1.73.18.83.52 1.64.52 2.27 0 .64-.4 2.35-.4 2.35-.17.64-.27 2 .77 1.1 0 0 .57-1.05.72-1.55.14-.5.23-1.54.04-2.03-.2-.5.2-3.07.3-3.66.1-.6-.3-1.68-.53-2.17-.24-.5.28-3.54-.42-5.27-.15-.36-2.2-1-2.76-1.14-.57-.15-1.05-1.4-1.05-1.9 0 0 .52-.5.75-.82.42-.55.6-2.53.6-3.4 0-.88-1.18-2.15-2.26-2.15-1 0-2.83.95-2.66 2.3.16 1.35.45 2.98 1.16 3.57.43.36.33.67.33.67 0 .63-.52 1.3-.66 1.63-.15.3-2.66 1.35-3.17 1.68-.5.8-1.75 7.14-2 7.54-.25.4-1.25 5.07-1.25 6.03 0 .95.1 1.74.34 2.14.24.4.65 1.5 1.15 1.26.5-.24.92-1.1.92-1.67 0-.56-1.1-1.2-1.17-1.67-.08-.48 1.6-4.53 1.84-5.56.25-1.03 1.33-3.57 1.33-3.57 0 1.1.33 2.2.3 2.52-.06.32-1.13 3.07-1.48 3.62-.68 1.04-1.2 2.8-.83 4.65.32 1.6.72 5.9.72 6.32 0 .4-.67 2.35-.48 3.4.2 1.03 1.23 5.33 1.32 5.82 0 0-.56.18-.67.42-.1.24-.57.44-.18 1 .4.54.64 1.3.74 1.66.1.38.8.93 1.3.83.5-.1.6-.14.75-.7.13-.54-.12-1.08-.2-1.6-.06-.5.1-1.2 0-1.74-.12-.67-.14-4.6.1-5.33.23-.72 0-3.12.04-3.57.05-.45.9-5.47.95-5.96.14.18.42 0 .7.54.3.54 1.76 5.15 1.8 6.15.06 1 .06 2.12.25 3.25.2 1.13 1.18 5.24 1.18 5.83 0 .6-.04 1.2.1 1.73.14.54.1 1.04 1 1.04.67 0 .88-.68 1.06-1.4.17-.72.4-1.13.46-1.6.07-.5-.1-.62-.32-.73-.22-.1-.6-.03-.6-.03"/><path fill="#fff" d="M28.23 42.3s-.46-5.6-.32-6.85c.16-1.27 0-2.4-.03-2.67-.05-.27.2-3.98.2-5.02 0-1.04-.68-3.52-.77-4.43-.1-.9-.43-3.16-.8-3.75 0 0 .46-2.2.56-2.8 0 0 .57 1.5.57 1.7 0 .24-.1.92.1 1.73.18.83.52 1.64.52 2.27 0 .64-.4 2.35-.4 2.35-.17.64-.27 2 .77 1.1 0 0 .57-1.05.72-1.55.14-.5.23-1.54.04-2.03-.2-.5.2-3.07.3-3.66.1-.6-.3-1.68-.53-2.17-.24-.5.28-3.54-.42-5.27-.15-.36-2.2-1-2.76-1.14-.57-.15-1.05-1.4-1.05-1.9 0 0 .52-.5.75-.82.42-.55.6-2.53.6-3.4 0-.88-1.18-2.15-2.26-2.15-1 0-2.83.95-2.66 2.3.16 1.35.45 2.98 1.16 3.57.43.36.33.67.33.67 0 .63-.52 1.3-.66 1.63-.15.3-2.66 1.35-3.17 1.68-.5.8-1.75 7.14-2 7.54-.25.4-1.25 5.07-1.25 6.03 0 .95.1 1.74.34 2.14.24.4.65 1.5 1.15 1.26.5-.24.92-1.1.92-1.67 0-.56-1.1-1.2-1.17-1.67-.08-.48 1.6-4.53 1.84-5.56.25-1.03 1.33-3.57 1.33-3.57 0 1.1.33 2.2.3 2.52-.06.32-1.13 3.07-1.48 3.62-.68 1.04-1.2 2.8-.83 4.65.32 1.6.72 5.9.72 6.32 0 .4-.67 2.35-.48 3.4.2 1.03 1.23 5.33 1.32 5.82 0 0-.56.18-.67.42-.1.24-.57.44-.18 1 .4.54.64 1.3.74 1.66.1.38.8.93 1.3.83.5-.1.6-.14.75-.7.13-.54-.12-1.08-.2-1.6-.06-.5.1-1.2 0-1.74-.12-.67-.14-4.6.1-5.33.23-.72 0-3.12.04-3.57.05-.45.9-5.47.95-5.96.14.18.42 0 .7.54.3.54 1.76 5.15 1.8 6.15.06 1 .06 2.12.25 3.25.2 1.13 1.18 5.24 1.18 5.83 0 .6-.04 1.2.1 1.73.14.54.1 1.04 1 1.04.67 0 .88-.68 1.06-1.4.17-.72.4-1.13.46-1.6.07-.5-.1-.62-.32-.73-.22-.1-.6-.03-.6-.03"/></g></svg>