<svg xmlns="http://www.w3.org/2000/svg" width="48" height="48"><defs><radialGradient id="a" cx="8.121" cy="181.171" r="37.883" gradientUnits="userSpaceOnUse" fy="181.171" fx="8.121" gradientTransform="matrix(1.034 0 0 1.034 -.42 -173.069)"><stop offset="0" stop-color="#fff"/><stop offset=".405" stop-color="#929292"/><stop offset=".816" stop-color="#2A2A2A"/><stop offset="1"/></radialGradient><radialGradient id="b" cx="7.693" cy="178.466" r="43.856" gradientUnits="userSpaceOnUse" fy="178.466" fx="7.693"><stop offset="0" stop-color="#fff"/><stop offset=".257" stop-color="#C8CACB"/><stop offset=".77" stop-color="#606468"/><stop offset="1" stop-color="#363B40"/></radialGradient></defs><g><path fill="url(#a)" d="M48.13 40.34c0 1.7-1.4 3.1-3.1 3.1H3.78c-1.7 0-3.1-1.4-3.1-3.1v-29.8c0-1.72 1.4-3.1 3.1-3.1h41.25c1.7 0 3.1 1.38 3.1 3.1v29.8z" opacity=".5"/><g><path fill="#3065a0" d="M.25 31.46h6.78v2.85H.25z"/><path d="M7.03 31.46v2.85H13.8v-2.84H7.04z"/><path fill="#c02ee6" d="M13.8 31.46v2.85h6.79v-2.84h-6.8z"/><path d="M20.6 31.46v2.85h6.75v-2.84H20.6z"/><path fill="#b3ddff" d="M27.36 31.46h6.78v2.85h-6.78z"/><path d="M34.14 31.46h6.78v2.85h-6.78z"/><path fill="#fff" d="M40.92 31.46h6.78v2.85h-6.78z"/><path fill="#fff" d="M7.03 6.25H3.35c-1.7 0-3.1 1.4-3.1 3.1v22.1h6.78V6.26z"/><path fill="#fff251" d="M7.03 6.25h6.78v25.2H7.04z"/><path fill="#b3ddff" d="M13.8 6.25h6.8v25.2h-6.8z"/><path fill="#afff3a" d="M20.6 6.25h6.77v25.2H20.6z"/><path fill="#c02ee6" d="M27.36 6.25h6.78v25.2h-6.78z"/><path fill="#ed2728" d="M34.14 6.25h6.78v25.2h-6.78z"/><path fill="#3065a0" d="M44.6 6.25h-3.68v25.2h6.78V9.36c0-1.7-1.4-3.1-3.1-3.1z"/><path fill="#224987" d="M7.03 34.3H.25v4.86c0 1.7 1.4 3.1 3.1 3.1h5.33V34.3H7.03z"/><path fill="#fff" d="M13.8 34.3H8.7v7.96h8.44V34.3h-3.3z"/><g><path fill="#309" d="M20.6 34.3H17.1v7.96h8.43V34.3H20.6z"/></g><path d="M34.14 34.3h-8.58v7.96H44.6c1.7 0 3.1-1.4 3.1-3.1V34.3H34.14z"/></g><g transform="matrix(1.034 0 0 1.034 -.848 -174.244)"><radialGradient cx="7.693" cy="178.466" r="43.856" gradientUnits="userSpaceOnUse" fy="178.466" fx="7.693"><stop offset="0" stop-color="#fff"/><stop offset=".257" stop-color="#C8CACB"/><stop offset=".77" stop-color="#606468"/><stop offset="1" stop-color="#363B40"/></radialGradient><path fill="url(#b)" d="M4.06 174.6c-1.6 0-2.9 1.3-2.9 2.9v28.8c0 1.6 1.3 2.9 2.9 2.9l39.88.02c1.6 0 2.9-1.3 2.9-2.9V177.5c0-1.6-1.3-2.9-2.9-2.9H4.06zm-1.22 31.14v-27.67c0-1.1.9-2 2.02-2h38.3c1.1 0 2 .9 2 2v27.67c0 1.1-.9 2.02-2 2.02H4.85c-1.12 0-2.02-.9-2.02-2.02z"/></g><path fill="none" stroke="#000" stroke-width=".5" d="M47.7 39.16c0 1.7-1.4 3.1-3.1 3.1H3.35c-1.7 0-3.1-1.4-3.1-3.1V9.36c0-1.72 1.4-3.1 3.1-3.1H44.6c1.7 0 3.1 1.38 3.1 3.1v29.8z"/></g></svg>