<svg xmlns="http://www.w3.org/2000/svg" width="48" height="48"><defs><linearGradient id="a" x1="152.475" x2="182.339" y1="3690.983" y2="3690.983" gradientTransform="matrix(-1.045 0 0 -1.045 190.853 3867.464)" gradientUnits="userSpaceOnUse"><stop offset="0" stop-color="#fff"/><stop offset="1" stop-color="#72BD22"/></linearGradient><linearGradient id="b" x1="157.481" x2="197.538" y1="3711.073" y2="3711.073" gradientTransform="matrix(-1.045 0 0 -1.045 211.959 3909.435)" gradientUnits="userSpaceOnUse"><stop offset="0" stop-color="#fff"/><stop offset="1" stop-color="#F17912"/></linearGradient><linearGradient id="c" x1="-3524.766" x2="-3515.48" y1="122.025" y2="115.282" gradientTransform="matrix(0 1.045 -1.045 0 158.059 3695.115)" gradientUnits="userSpaceOnUse"><stop offset="0" stop-color="#E86712"/><stop offset=".622" stop-color="#D52E0C"/><stop offset="1" stop-color="#CB1009"/></linearGradient></defs><g><path fill="url(#a)" stroke="#1f400e" stroke-width=".8" d="M.4 2.1h31.2v19.4H.4z"/><path fill="none" stroke="#fff" stroke-width="1.2" d="M1.44 3.14c0 1.77 0 15.55 0 17.3 1.88 0 27.22 0 29.1 0 0-1.75 0-15.53 0-17.3-1.88 0-27.22 0-29.1 0z"/><path fill="url(#b)" stroke="#402005" d="M5.62 19.77h41.84V45.8H5.62z"/><path fill="none" stroke="#fff" stroke-width="1.4" d="M6.87 21.02c0 2.24 0 21.28 0 23.52 2.3 0 37.05 0 39.35 0 0-2.24 0-21.28 0-23.52-2.3 0-37.05 0-39.35 0z"/><path fill="url(#c)" stroke="#590b08" stroke-width="1.2" d="M27.14 17h3.8c.8 0 1.43.62 1.43 1.4v3.56h-4.4c-.16 0-.3.13-.3.3 0 .06.05.14.1.2 1.47 1.5 8.22 9.38 8.22 9.38.2.23.58.23.8 0l8.23-9.4v.02c.05-.06.08-.13.08-.2 0-.17-.12-.3-.28-.3h-4.4v-6.6c0-3.44-2.78-6.22-6.22-6.22h-7.06"/><path fill="none" stroke="#ed2829" d="M27.14 9.77h7.06c3.08 0 5.6 2.5 5.6 5.6v7.23s3.33 0 4.13 0c-1 .9-7 8.26-7.5 8.73-.04.03-.07.03-.1 0-.44-.42-5.75-7.04-7.5-8.73.8 0 4.17 0 4.17 0v-4.2c0-1.13-.92-2.05-2.06-2.05h-3.8"/></g></svg>