<svg xmlns="http://www.w3.org/2000/svg" width="48" height="48" xmlns:xlink="http://www.w3.org/1999/xlink"><defs><linearGradient id="a"><stop offset="0" stop-color="#fff"/><stop offset="1" stop-color="#fff" stop-opacity="0"/></linearGradient><radialGradient id="b" cx="270" cy="270" r="270" xlink:href="#a" fx="270" fy="270" gradientUnits="userSpaceOnUse"/></defs><g fill-rule="evenodd"><path fill="#0247fe" d="M17.8 46.78c-4.18-1.12-7.5-3.04-10.56-6.12l16.68-16.72-6.1 22.84z"/><path fill="#0391ce" d="M30.02 46.78c-4.2 1.13-8.02 1.13-12.2 0l6.1-22.84 6.1 22.84z"/><path fill="#66b032" d="M40.6 40.66c-3.07 3.08-6.38 5-10.58 6.12l-6.1-22.84L40.6 40.66z"/><path fill="#d0ea2b" d="M46.7 30.06c-1.12 4.2-3.03 7.52-6.1 10.6L23.92 23.94l22.78 6.12z"/><path fill="#fefe33" d="M46.7 17.8c1.13 4.22 1.13 8.05 0 12.26l-22.78-6.12L46.7 17.8z"/><path fill="#fabc02" d="M40.6 7.2c3.07 3.1 4.98 6.4 6.1 10.6l-22.78 6.14L40.6 7.2z"/><path fill="#fb9902" d="M30.02 1.1c4.2 1.12 7.5 3.03 10.58 6.1L23.92 23.95l6.1-22.85z"/><path fill="#fd5308" d="M17.8 1.1c4.2-1.14 8.03-1.14 12.22 0l-6.1 22.84-6.1-22.85z"/><path fill="#3d01a4" d="M7.24 40.66c-3.07-3.08-5-6.4-6.1-10.6l22.78-6.12L7.24 40.66z"/><path fill="#8601af" d="M1.13 30.06C0 25.86 0 22.02 1.13 17.8l22.8 6.14-22.8 6.12z"/><path fill="#fe2712" d="M7.24 7.2c3.07-3.07 6.38-4.98 10.57-6.1l6.12 22.84L7.24 7.2z"/><path fill="#a7194b" d="M1.13 17.8c1.12-4.2 3.04-7.5 6.1-10.6l16.7 16.74-22.8-6.13z"/></g><path fill="url(#b)" d="M540 270a270 270 0 1 1-540 0 270 270 0 1 1 540 0z" transform="matrix(.088 0 0 .088 .363 .417)" color="#000" overflow="visible"/></svg>