<svg xmlns="http://www.w3.org/2000/svg" width="48" height="48"><defs><linearGradient id="a" x1="41.724" x2="12.373" y1="613.762" y2="589.696" gradientUnits="userSpaceOnUse"><stop offset=".303" stop-color="#fff"/><stop offset="1" stop-color="#E6EAF2"/></linearGradient><radialGradient id="b" cx="13.062" cy="586.702" r="30.062" gradientUnits="userSpaceOnUse" fy="586.702" fx="13.062" gradientTransform="matrix(1.096 0 0 1.096 -3.656 -633.551)"><stop offset="0" stop-color="#45484C"/><stop offset=".775"/></radialGradient></defs><g><circle cx="25.093" cy="600.126" r="20.845" fill="url(#a)" stroke="#000" stroke-width="1.825" transform="matrix(1.096 0 0 1.096 -3.656 -633.551)"/><path fill="url(#b)" d="M26.1 43.65c-.74.1-1.5.13-2.25.13-10.85 0-19.63-8.8-19.63-19.63 0-10.83 8.8-19.62 19.63-19.62.76 0 1.5.04 2.25.12v39z"/><path fill="#fff" d="M26.1 4.65c9.78 1.12 17.37 9.43 17.37 19.5 0 10.08-7.6 18.38-17.37 19.5v-39z"/></g></svg>