<svg xmlns="http://www.w3.org/2000/svg" width="48" height="48" xmlns:xlink="http://www.w3.org/1999/xlink"><defs><linearGradient id="c" x1="-1183.599" x2="-1189.533" y1="3331.431" y2="3331.431" gradientTransform="matrix(.004 1.363 -1.368 .004 4587.361 1623.926)" gradientUnits="userSpaceOnUse"><stop offset=".006" stop-color="#F17912"/><stop offset="1" stop-color="#CB1009"/></linearGradient><linearGradient id="d" x1="-1934.531" x2="-1937.352" y1="1862.517" y2="1857.539" gradientTransform="matrix(-.259 .966 -.966 -.259 1319.47 2747.625)" gradientUnits="userSpaceOnUse"><stop offset=".303" stop-color="#FAAF3E"/><stop offset="1" stop-color="#F62724"/></linearGradient><linearGradient id="e" x1="438.765" x2="432.831" y1="695.427" y2="695.427" gradientTransform="matrix(-.004 -1.363 1.368 -.004 -925.744 623.641)" gradientUnits="userSpaceOnUse"><stop offset=".006" stop-color="#F17912"/><stop offset="1" stop-color="#CB1009"/></linearGradient><linearGradient id="f" x1="1159.494" x2="1156.674" y1="1949.596" y2="1944.618" gradientTransform="matrix(.259 -.966 .966 .259 -2162.617 1012.673)" gradientUnits="userSpaceOnUse"><stop offset=".303" stop-color="#FAAF3E"/><stop offset="1" stop-color="#F62724"/></linearGradient><linearGradient id="a"><stop offset="0"/><stop offset="1" stop-color="#fff"/></linearGradient><linearGradient id="b" x1="1" x2="47" y1="34" y2="34" xlink:href="#a" gradientUnits="userSpaceOnUse" gradientTransform="translate(0 3)"/></defs><g><path fill="none" stroke="#2e3436" d="M.5.5h47v21H.5z" color="#000" overflow="visible" enable-background="accumulate"/><path d="M1 1h7v20H1z" color="#000" overflow="visible" enable-background="accumulate"/><path fill="#2e3436" d="M8 1h8v20H8z" color="#000" overflow="visible" enable-background="accumulate"/><path fill="#555753" d="M16 1h8v20h-8z" color="#000" overflow="visible" enable-background="accumulate"/><path fill="#888a85" d="M24 1h8v20h-8z" color="#000" overflow="visible" enable-background="accumulate"/><path fill="#babdb6" d="M32 1h8v20h-8z" color="#000" overflow="visible" enable-background="accumulate"/><path fill="#d3d7cf" d="M40 1h7v20h-7z" color="#000" overflow="visible" enable-background="accumulate"/><path fill="url(#b)" d="M1 27h46v20H1z" color="#000" overflow="visible" enable-background="accumulate"/><path fill="none" stroke="#2e3436" d="M.5 26.5h47v21H.5z" color="#000" overflow="visible" enable-background="accumulate"/><path fill="none" stroke="#fff" stroke-opacity=".502" d="M1.5 1.5h45v19h-45z" color="#000" overflow="visible" enable-background="accumulate"/><path fill="none" stroke="#fff" stroke-opacity=".502" d="M1.5 27.5h45v19h-45z" color="#000" overflow="visible" enable-background="accumulate"/><path fill="url(#c)" stroke="#530704" d="M27.94 23.1v-6.23h4.18c.2 0 .34-.17.34-.35 0-.1-.04-.18-.1-.24l-7.67-7c-.28-.25-.7-.25-.97 0l-7.64 7.04c-.07.06-.1.14-.1.24 0 .2.14.34.33.34h4.2l.02 6.23"/><g transform="matrix(.351 -1.318 1.323 .349 -508.417 -88.478)"><linearGradient x1="-1934.531" x2="-1937.352" y1="1862.517" y2="1857.539" gradientTransform="matrix(-.259 .966 -.966 -.259 1319.47 2747.625)" gradientUnits="userSpaceOnUse"><stop offset=".303" stop-color="#FAAF3E"/><stop offset="1" stop-color="#F62724"/></linearGradient><path fill="url(#d)" d="M30.34 394.5l-6.53-4.17s-.16-.05-.12.07l.84 3.15c-.55.14-4.73 1.26-4.73 1.26l.15.64L25.3 394s-.45-1.73-.62-2.35c1.04.66 4.54 2.88 4.94 3.14-.22.4-2.14 4.1-2.7 5.2-.17-.62-.63-2.34-.63-2.34l-5.37 1.43.17.62 4.73-1.27.8 3.03c.12.35.27-.03.27-.03l3.48-6.7-.04-.25z"/></g><path fill="url(#e)" stroke="#530704" d="M20.54 22.77l.02 5.88-4.2.02c-.2 0-.34.15-.34.34 0 .1.04.18.1.24l7.67 7c.26.26.7.25.96 0l7.63-7.04c.05-.06.1-.15.1-.24 0-.2-.16-.34-.35-.34l-4.2.02v-5.9"/><g transform="matrix(.351 -1.318 1.323 .349 -508.417 -88.478)"><linearGradient x1="1159.494" x2="1156.674" y1="1949.596" y2="1944.618" gradientTransform="matrix(.259 -.966 .966 .259 -2162.617 1012.673)" gradientUnits="userSpaceOnUse"><stop offset=".303" stop-color="#FAAF3E"/><stop offset="1" stop-color="#F62724"/></linearGradient><path fill="url(#f)" d="M11.36 399.8l6.53 4.2s.15.03.12-.1l-.84-3.13c.55-.15 4.32-1.16 4.32-1.16l-.16-.62-4.95 1.33s.45 1.74.62 2.36c-1.04-.66-4.54-2.88-4.94-3.13.22-.43 2.13-4.12 2.7-5.2.16.6.63 2.32.63 2.32l4.96-1.32-.17-.63-4.33 1.16-.82-3.02c-.1-.35-.25.03-.25.03l-3.5 6.7.05.24z"/></g></g></svg>