<svg xmlns="http://www.w3.org/2000/svg" width="48" height="48" xmlns:xlink="http://www.w3.org/1999/xlink"><defs><linearGradient id="a" x1="438.765" x2="432.831" y1="695.427" y2="695.427" gradientTransform="matrix(-.699 -.715 .715 -.699 -178.119 812.942)" gradientUnits="userSpaceOnUse"><stop offset=".006" stop-color="#F17912"/><stop offset="1" stop-color="#CB1009"/></linearGradient><linearGradient id="b" x1="1159.494" x2="1156.674" y1="1949.596" y2="1944.618" gradientTransform="matrix(.259 -.966 .966 .259 -2162.617 1012.673)" gradientUnits="userSpaceOnUse"><stop offset=".303" stop-color="#FAAF3E"/><stop offset="1" stop-color="#F62724"/></linearGradient><linearGradient x1="438.765" x2="432.831" y1="695.427" y2="695.427" xlink:href="#a" gradientUnits="userSpaceOnUse" gradientTransform="matrix(-.699 -.715 .715 -.699 -178.119 812.942)"/><linearGradient x1="1159.494" x2="1156.674" y1="1949.596" y2="1944.618" xlink:href="#b" gradientUnits="userSpaceOnUse" gradientTransform="matrix(.259 -.966 .966 .259 -2162.617 1012.673)"/><linearGradient id="c" x1="438.765" x2="432.831" y1="695.427" y2="695.427" xlink:href="#a" gradientUnits="userSpaceOnUse" gradientTransform="matrix(-1.269 -1.299 1.299 -1.269 -335.533 1463.33)"/><linearGradient x1="1159.494" x2="1156.674" y1="1949.596" y2="1944.618" xlink:href="#b" gradientUnits="userSpaceOnUse" gradientTransform="matrix(.259 -.966 .966 .259 -2162.617 1012.673)"/><linearGradient id="d" x1="8.039" x2="31.357" y1="3.553" y2="3.553" xlink:href="#b" gradientUnits="userSpaceOnUse" gradientTransform="matrix(.909 0 0 .909 -4.266 10.296)"/></defs><g><path fill="#eeeeec" stroke="#2e3436" d="M.5.5h46v46H.5z" color="#000" overflow="visible" enable-background="accumulate"/><path fill="#f17912" d="M1 1h15v15H1z" color="#000" overflow="visible" enable-background="accumulate"/><path fill="#ad7fa8" d="M16 1h15v15H16z" color="#000" overflow="visible" enable-background="accumulate"/><path fill="#75507b" d="M31 1h15v15H31z" color="#000" overflow="visible" enable-background="accumulate"/><path fill="#f57900" d="M31 16H16v15h15z" color="#000" overflow="visible" enable-background="accumulate"/><path fill="#73d216" d="M46 16H31v15h15z" color="#000" overflow="visible" enable-background="accumulate"/><path fill="#fce94f" d="M16 16H1v15h15z" color="#000" overflow="visible" enable-background="accumulate"/><path fill="#729fcf" d="M1 31h15v15H1z" color="#000" overflow="visible" enable-background="accumulate"/><path fill="#204a87" d="M16 31h15v15H16z" color="#000" overflow="visible" enable-background="accumulate"/><path fill="#4e9a06" d="M31 31h15v15H31z" color="#000" overflow="visible" enable-background="accumulate"/><path fill="none" stroke="#fff" stroke-opacity=".502" d="M1.5 1.5h44v44h-44z" color="#000" overflow="visible" enable-background="accumulate"/><path fill="url(#c)" stroke="#590b08" d="M8.97 15.45l4 4.4L9 23.72c-.2.17-.2.46-.02.64.1.1.2.13.32.13l13.8-.4c.5 0 .9-.4.9-.9l.74-13.77c0-.12-.04-.24-.13-.33-.16-.18-.44-.18-.62 0l-4 3.9-4.55-3.56.03-6.9H2.53l-.1 12.93 6.54-.02z"/><g transform="matrix(-.889 -1.583 1.583 -.889 -599.194 397.069)"><linearGradient x1="1159.494" x2="1156.674" y1="1949.596" y2="1944.618" gradientTransform="matrix(.259 -.966 .966 .259 -2162.617 1012.673)" gradientUnits="userSpaceOnUse"><stop offset=".303" stop-color="#FAAF3E"/><stop offset="1" stop-color="#F62724"/></linearGradient></g><path fill="none" stroke="url(#d)" d="M9.48 14.47l4.64 5.63-3.44 3.34 12.3-.36.7-12.26-3.36 3.33-6-4.14.02-6.46H3.6L3.5 14.5l5.98-.03z"/></g></svg>