<svg xmlns="http://www.w3.org/2000/svg" width="32" height="32" xmlns:xlink="http://www.w3.org/1999/xlink" version="1"><defs><linearGradient id="q"><stop offset="0" stop-color="#720000"/><stop offset="1" stop-color="#720000" stop-opacity="0"/></linearGradient><linearGradient id="p"><stop offset="0" stop-color="#efa424"/><stop offset="1" stop-color="#ef2929"/></linearGradient><linearGradient><stop offset="0" stop-color="#b3c1d6"/><stop offset="1" stop-color="#849abc" stop-opacity="0"/></linearGradient><linearGradient x1="359.477" x2="360.143" y1="165.859" y2="190.359" gradientUnits="userSpaceOnUse"><stop offset="0" stop-color="#b3c1d6"/><stop offset="1" stop-color="#224987"/></linearGradient><linearGradient id="o"><stop offset="0" stop-color="#c6c6bf"/><stop offset="1" stop-color="#292925"/></linearGradient><linearGradient id="n" x1="110.121" x2="121.872" y1="292.456" y2="301.456" gradientUnits="userSpaceOnUse"><stop offset=".006" stop-color="#212326"/><stop offset=".698" stop-color="#7a878d"/><stop offset="1" stop-color="#596669"/></linearGradient><linearGradient><stop offset="0" stop-color="#fff"/><stop offset="1" stop-color="#3465a4"/></linearGradient><linearGradient id="a" x1="116.365" x2="117.487" y1="315.413" y2="317.743" gradientUnits="userSpaceOnUse"><stop offset="0"/><stop offset=".163" stop-color="#070707"/><stop offset=".302" stop-color="#111"/><stop offset=".432" stop-color="#1D1D1D"/><stop offset=".557" stop-color="#2F3030"/><stop offset=".678" stop-color="#444"/><stop offset=".797" stop-color="#565859"/><stop offset=".91" stop-color="#616569"/><stop offset="1" stop-color="#626B73"/></linearGradient><linearGradient id="b" x1="115.039" x2="116.658" y1="317.404" y2="314.497" gradientUnits="userSpaceOnUse"><stop offset="0" stop-color="#6D7780"/><stop offset=".138" stop-color="#717B84"/><stop offset=".274" stop-color="#7E878E"/><stop offset=".408" stop-color="#939CA2"/><stop offset=".542" stop-color="#B2BDC1"/><stop offset=".646" stop-color="#D3E0E4"/><stop offset=".819" stop-color="#A3AEB4"/><stop offset="1" stop-color="#7A858F"/></linearGradient><linearGradient id="V" x1="117.931" x2="112.091" y1="301.457" y2="302.191" gradientUnits="userSpaceOnUse"><stop offset="0" stop-color="#B6C1CA"/><stop offset=".295" stop-color="#B9C4CC"/><stop offset=".547" stop-color="#C5CED5"/><stop offset=".783" stop-color="#D7DEE2"/><stop offset="1" stop-color="#F0F5F5"/></linearGradient><linearGradient id="U" x1="107.249" x2="107.311" y1="310.911" y2="304.16" gradientUnits="userSpaceOnUse"><stop offset="0" stop-color="#A5AEB8"/><stop offset=".424" stop-color="#A1AAB5"/><stop offset=".786" stop-color="#96A1AB"/><stop offset="1" stop-color="#8B97A3"/></linearGradient><linearGradient id="T" x1="115.32" x2="109.787" y1="309.503" y2="302.446" gradientUnits="userSpaceOnUse"><stop offset="0" stop-color="#ACB5BE"/><stop offset=".479" stop-color="#848B93"/><stop offset="1" stop-color="#596169"/></linearGradient><linearGradient id="c" x1="117.953" x2="115.538" y1="298" y2="295.644" gradientUnits="userSpaceOnUse"><stop offset="0" stop-color="#121414"/><stop offset="1" stop-color="#2B3033"/></linearGradient><linearGradient id="d" x1="102.519" x2="99.309" y1="307.758" y2="303.465" gradientUnits="userSpaceOnUse"><stop offset="0" stop-color="#121414"/><stop offset="1" stop-color="#2B3033"/></linearGradient><linearGradient id="e" x1="100.924" x2="98.381" y1="302.737" y2="306.53" gradientUnits="userSpaceOnUse"><stop offset=".006" stop-color="#2C2F33"/><stop offset=".506" stop-color="#5A6166"/><stop offset=".638" stop-color="#585E63"/><stop offset=".751" stop-color="#50565A"/><stop offset=".856" stop-color="#43484C"/><stop offset=".957" stop-color="#34373B"/><stop offset="1" stop-color="#2C2F33"/></linearGradient><linearGradient id="P" x1="104.598" x2="105.609" y1="313.838" y2="320.968" gradientUnits="userSpaceOnUse"><stop offset="0" stop-color="#CFDDE2"/><stop offset=".152" stop-color="#CBD8DD"/><stop offset=".281" stop-color="#BCC9CD"/><stop offset=".402" stop-color="#A7B1B5"/><stop offset=".519" stop-color="#899297"/><stop offset=".63" stop-color="#677077"/><stop offset=".646" stop-color="#626B73"/><stop offset="1" stop-color="#121212"/></linearGradient><linearGradient id="O" x1="105.425" x2="104.552" y1="320.149" y2="314.416" gradientUnits="userSpaceOnUse"><stop offset="0"/><stop offset=".123" stop-color="#070707"/><stop offset=".225" stop-color="#111"/><stop offset=".319" stop-color="#1C1C1C"/><stop offset=".409" stop-color="#2F2F2F"/><stop offset=".496" stop-color="#434444"/><stop offset=".58" stop-color="#555757"/><stop offset=".661" stop-color="#606467"/><stop offset=".73" stop-color="#626B73"/><stop offset=".751" stop-color="#596167"/><stop offset=".838" stop-color="#383B3D"/><stop offset=".912" stop-color="#232323"/><stop offset=".968" stop-color="#171616"/><stop offset="1" stop-color="#121212"/></linearGradient><linearGradient id="f" x1="108.432" x2="107.471" y1="318.345" y2="314.445" gradientUnits="userSpaceOnUse"><stop offset="0"/><stop offset=".123" stop-color="#070707"/><stop offset=".225" stop-color="#111"/><stop offset=".319" stop-color="#1C1C1C"/><stop offset=".409" stop-color="#2F2F2F"/><stop offset=".496" stop-color="#434444"/><stop offset=".58" stop-color="#555757"/><stop offset=".661" stop-color="#606467"/><stop offset=".73" stop-color="#626B73"/><stop offset=".751" stop-color="#596167"/><stop offset=".838" stop-color="#383B3D"/><stop offset=".912" stop-color="#232323"/><stop offset=".968" stop-color="#171616"/><stop offset="1" stop-color="#121212"/></linearGradient><linearGradient id="g" x1="101.549" x2="104.147" y1="318.713" y2="316.779" gradientUnits="userSpaceOnUse"><stop offset="0" stop-color="#87959F"/><stop offset=".071" stop-color="#939EA6"/><stop offset=".489" stop-color="#D6D5D5"/><stop offset=".573" stop-color="#CECECE"/><stop offset=".673" stop-color="#B9B9B9"/><stop offset=".781" stop-color="#9A9C9C"/><stop offset=".894" stop-color="#737779"/><stop offset="1" stop-color="#4D5359"/></linearGradient><linearGradient id="L" x1="110.47" x2="111.507" y1="323.062" y2="325.202" gradientUnits="userSpaceOnUse"><stop offset="0" stop-color="#161617"/><stop offset=".208" stop-color="#171718"/><stop offset=".385" stop-color="#1B1C1D"/><stop offset=".551" stop-color="#232425"/><stop offset=".711" stop-color="#2E2F32"/><stop offset=".864" stop-color="#3E4145"/><stop offset="1" stop-color="#52585E"/></linearGradient><linearGradient id="K" x1="115.234" x2="116.434" y1="322.629" y2="325.482" gradientUnits="userSpaceOnUse"><stop offset="0" stop-color="#1C1C1F"/><stop offset=".208" stop-color="#1E1E21"/><stop offset=".385" stop-color="#222326"/><stop offset=".551" stop-color="#2B2C30"/><stop offset=".711" stop-color="#383A3E"/><stop offset=".864" stop-color="#4B4F55"/><stop offset="1" stop-color="#626B73"/></linearGradient><linearGradient id="J" x1="111.698" x2="111.512" y1="321.808" y2="313.356" gradientUnits="userSpaceOnUse"><stop offset="0" stop-color="#616973"/><stop offset=".417" stop-color="#5E666F"/><stop offset=".772" stop-color="#565D64"/><stop offset="1" stop-color="#4D5359"/></linearGradient><linearGradient id="I" x1="112.503" x2="119.393" y1="312.623" y2="311.58" gradientUnits="userSpaceOnUse"><stop offset="0" stop-color="#6C7680"/><stop offset=".355" stop-color="#69727C"/><stop offset=".659" stop-color="#5F6870"/><stop offset=".942" stop-color="#51575E"/><stop offset="1" stop-color="#4D5359"/></linearGradient><linearGradient id="H" x1="118.09" x2="114.701" y1="320.286" y2="313.285" gradientUnits="userSpaceOnUse"><stop offset="0" stop-color="#6C7680"/><stop offset=".355" stop-color="#69727C"/><stop offset=".659" stop-color="#5F6870"/><stop offset=".942" stop-color="#51575E"/><stop offset="1" stop-color="#4D5359"/></linearGradient><linearGradient id="h" x1="115.751" x2="117.563" y1="299.183" y2="295.308" gradientUnits="userSpaceOnUse"><stop offset=".006" stop-color="#2C2F33"/><stop offset=".506" stop-color="#5A6166"/><stop offset=".638" stop-color="#585E63"/><stop offset=".751" stop-color="#50565A"/><stop offset=".856" stop-color="#43484C"/><stop offset=".957" stop-color="#34373B"/><stop offset="1" stop-color="#2C2F33"/></linearGradient><linearGradient id="F" x1="115.693" x2="111.95" y1="296.266" y2="290.414" gradientUnits="userSpaceOnUse"><stop offset="0" stop-color="#161719"/><stop offset="1" stop-color="#B2B2B2"/></linearGradient><linearGradient id="m" x1="110.121" x2="121.872" y1="292.456" y2="301.456" gradientUnits="userSpaceOnUse"><stop offset=".006" stop-color="#212326"/><stop offset="1" stop-color="#596669"/></linearGradient><linearGradient id="i" x1="99.238" x2="94.868" y1="304.31" y2="297.577" gradientUnits="userSpaceOnUse"><stop offset="0" stop-color="#161719"/><stop offset="1" stop-color="#ccc"/></linearGradient><linearGradient id="j" x1="95.831" x2="104.749" y1="300.837" y2="310.642" gradientUnits="userSpaceOnUse"><stop offset=".006" stop-color="#212326"/><stop offset="1" stop-color="#596669"/></linearGradient><linearGradient id="k" x1="99.486" x2="90.171" y1="295.642" y2="308.361" gradientUnits="userSpaceOnUse"><stop offset="0" stop-color="#141617"/><stop offset=".483" stop-color="#566063"/><stop offset="1" stop-color="#232729"/></linearGradient><linearGradient id="l" x1="113.933" x2="109.224" y1="286.865" y2="299.691" gradientUnits="userSpaceOnUse"><stop offset="0" stop-color="#141617"/><stop offset=".483" stop-color="#566063"/><stop offset="1" stop-color="#232729"/></linearGradient><radialGradient id="z" cx="109.941" cy="312.073" r="9.655" fx="109.941" fy="312.073" gradientUnits="userSpaceOnUse"><stop offset="0" stop-color="#828E99"/><stop offset="1" stop-color="#373C40"/></radialGradient><radialGradient id="y" cx="109.94" cy="312.074" r="9.655" fx="109.94" fy="312.074" gradientUnits="userSpaceOnUse"><stop offset="0" stop-color="#828E99"/><stop offset="1" stop-color="#373C40"/></radialGradient><linearGradient id="x" x1="109.501" x2="124.153" y1="309.648" y2="309.648" gradientUnits="userSpaceOnUse"><stop offset="0" stop-color="#121314"/><stop offset=".19" stop-color="#131415"/><stop offset=".352" stop-color="#17191A"/><stop offset=".504" stop-color="#1F2022"/><stop offset=".65" stop-color="#2A2C2E"/><stop offset=".791" stop-color="#3A3E42"/><stop offset=".927" stop-color="#52595F"/><stop offset="1" stop-color="#626B73"/></linearGradient><linearGradient id="w" x1="106.022" x2="108.701" y1="312.679" y2="325.27" gradientUnits="userSpaceOnUse"><stop offset="0" stop-color="#161617"/><stop offset=".195" stop-color="#171718"/><stop offset=".361" stop-color="#1C1C1D"/><stop offset=".516" stop-color="#242426"/><stop offset=".665" stop-color="#2F3033"/><stop offset=".81" stop-color="#404447"/><stop offset=".95" stop-color="#585E65"/><stop offset="1" stop-color="#626B73"/></linearGradient><linearGradient id="v" x1="113.713" x2="122.957" y1="315.036" y2="322.672" gradientUnits="userSpaceOnUse"><stop offset="0" stop-color="#11100F"/><stop offset=".171" stop-color="#121110"/><stop offset=".316" stop-color="#181817"/><stop offset=".453" stop-color="#242322"/><stop offset=".584" stop-color="#323130"/><stop offset=".711" stop-color="#414141"/><stop offset=".835" stop-color="#515356"/><stop offset=".954" stop-color="#5E646A"/><stop offset="1" stop-color="#626B73"/></linearGradient><linearGradient id="u" x1="124.724" x2="123.134" y1="313.892" y2="309.237" gradientUnits="userSpaceOnUse"><stop offset=".006" stop-color="#3D4247"/><stop offset=".596" stop-color="#1E2024"/><stop offset="1" stop-color="#121314"/></linearGradient><linearGradient id="t" x1="121.422" x2="122.305" y1="306.692" y2="309.137" gradientUnits="userSpaceOnUse"><stop offset=".006" stop-color="#3D4247"/><stop offset=".596" stop-color="#1E2024"/><stop offset="1" stop-color="#121314"/></linearGradient><linearGradient x1="127.034" x2="129.194" y1="304.143" y2="313.917" gradientUnits="userSpaceOnUse"><stop offset=".006" stop-color="#3D4247"/><stop offset=".202" stop-color="#121314"/><stop offset=".27" stop-color="#131415"/><stop offset=".298" stop-color="#151718"/><stop offset=".32" stop-color="#1A1C1D"/><stop offset=".338" stop-color="#222426"/><stop offset=".353" stop-color="#2D3032"/><stop offset=".367" stop-color="#3C4044"/><stop offset=".379" stop-color="#50575C"/><stop offset=".388" stop-color="#626B73"/><stop offset=".413" stop-color="#4F565C"/><stop offset=".447" stop-color="#3E4248"/><stop offset=".485" stop-color="#313439"/><stop offset=".531" stop-color="#282B2F"/><stop offset=".586" stop-color="#222529"/><stop offset=".665" stop-color="#1F2125"/><stop offset=".882" stop-color="#1E2024"/><stop offset="1" stop-color="#121314"/></linearGradient><linearGradient id="X" x1="116.365" x2="117.487" y1="315.413" y2="317.743" xlink:href="#a" gradientUnits="userSpaceOnUse" gradientTransform="matrix(.581 0 0 .582 -51.048 -162.963)"/><linearGradient id="W" x1="115.039" x2="116.658" y1="317.404" y2="314.497" xlink:href="#b" gradientUnits="userSpaceOnUse" gradientTransform="matrix(.581 0 0 .582 -51.048 -162.963)"/><linearGradient id="S" x1="117.953" x2="115.538" y1="298" y2="295.644" xlink:href="#c" gradientUnits="userSpaceOnUse" gradientTransform="matrix(.581 0 0 .582 -51.048 -162.963)"/><linearGradient id="R" x1="102.519" x2="99.309" y1="307.758" y2="303.465" xlink:href="#d" gradientUnits="userSpaceOnUse" gradientTransform="matrix(.581 0 0 .582 -51.048 -162.963)"/><linearGradient id="Q" x1="100.924" x2="98.381" y1="302.737" y2="306.53" xlink:href="#e" gradientUnits="userSpaceOnUse" gradientTransform="matrix(.581 0 0 .582 -51.048 -162.963)"/><linearGradient id="N" x1="108.432" x2="107.471" y1="318.345" y2="314.445" xlink:href="#f" gradientUnits="userSpaceOnUse" gradientTransform="matrix(.581 0 0 .582 -51.048 -162.963)"/><linearGradient id="M" x1="101.549" x2="104.147" y1="318.713" y2="316.779" xlink:href="#g" gradientUnits="userSpaceOnUse" gradientTransform="matrix(.581 0 0 .582 -51.048 -162.963)"/><linearGradient id="G" x1="115.751" x2="117.563" y1="299.183" y2="295.308" xlink:href="#h" gradientUnits="userSpaceOnUse" gradientTransform="matrix(.581 0 0 .582 -51.048 -162.963)"/><linearGradient id="D" x1="99.238" x2="94.868" y1="304.31" y2="297.577" xlink:href="#i" gradientUnits="userSpaceOnUse" gradientTransform="matrix(.581 0 0 .582 -51.048 -162.963)"/><linearGradient id="C" x1="95.831" x2="104.749" y1="300.837" y2="310.642" xlink:href="#j" gradientUnits="userSpaceOnUse" gradientTransform="matrix(.581 0 0 .582 -51.048 -162.963)"/><linearGradient id="B" x1="99.486" x2="90.171" y1="295.642" y2="308.361" xlink:href="#k" gradientUnits="userSpaceOnUse" gradientTransform="matrix(.581 0 0 .582 -51.048 -162.963)"/><linearGradient id="A" x1="113.933" x2="109.224" y1="286.865" y2="299.691" xlink:href="#l" gradientUnits="userSpaceOnUse" gradientTransform="matrix(.581 0 0 .582 -51.048 -162.963)"/><linearGradient id="E" x1="110.121" x2="121.872" y1="292.456" y2="301.456" xlink:href="#m" gradientUnits="userSpaceOnUse"/><linearGradient x1="20.65" x2="19.344" y1="6.677" y2="1.638" xlink:href="#n" gradientUnits="userSpaceOnUse" gradientTransform="translate(-5.642 11.711)"/><linearGradient x1="10.059" x2="11.794" y1="13.694" y2="19.811" xlink:href="#o" gradientUnits="userSpaceOnUse" gradientTransform="matrix(.995 .104 -.104 .995 -5.536 .79)"/><linearGradient id="s" x1="10.059" x2="11.794" y1="13.694" y2="19.811" xlink:href="#o" gradientUnits="userSpaceOnUse" gradientTransform="matrix(.906 .095 -.095 .907 7.308 2.454)"/><linearGradient id="r" x1="20.65" x2="19.344" y1="6.677" y2="1.638" xlink:href="#n" gradientUnits="userSpaceOnUse" gradientTransform="matrix(.911 0 0 .912 7.211 12.414)"/><linearGradient id="Y" x1="23.196" x2="27.49" y1="7.562" y2="22.108" xlink:href="#p" gradientUnits="userSpaceOnUse" gradientTransform="matrix(.99 .142 -.142 .99 2.497 -3.867)"/><linearGradient id="Z" x1="27.515" x2="28.178" y1="18.762" y2="21.917" xlink:href="#q" gradientUnits="userSpaceOnUse"/></defs><g><path fill="url(#r)" fill-rule="evenodd" stroke="#000" d="M25.73 13.16c1.3-.47 2.8.37 3.33 1.87.53 1.5-.1 3.1-1.42 3.55l-5.2 1.56c-1.4.46-2.96-.42-3.52-1.98-.55-1.57.12-3.23 1.5-3.7l5.32-1.3" color="#000" overflow="visible"/><path fill="none" stroke="#d3d7cf" stroke-width=".5" d="M23.27 14.53l1.5-.38"/><path fill="none" stroke="#eeeeec" stroke-width=".5" d="M24.06 15.55l1.5-.38"/><path fill="none" stroke="#d3d7cf" stroke-width=".5" d="M24.48 16.7l1.5-.36"/><path fill="none" stroke="#babdb6" stroke-width=".5" d="M24.6 17.88l1.5-.37"/><path fill="none" stroke="#888a85" stroke-width=".5" d="M24.36 19.13l1.5-.38"/><path fill="none" stroke="url(#s)" stroke-width=".5" d="M22.1 14.44c.74.36 1.4 1.24 1.54 2.3.16 1.25-.15 2.28-.7 2.8" color="#000" stroke-linecap="round" overflow="visible"/><path fill="none" stroke="#000" stroke-width="1.5" d="M9.38 19.66v.3l-1.05.02c-.14 0-.27.15-.35.43-.2.68-.04 1.9.34 2.72.28.6.6.84.83.67l.8-.42 2.7 2.55.44-.14.83.76 4.55-1.45v-.98l1.8-.55.05-4.16 1.38-.26"/><path fill="url(#t)" d="M122.26 309.26l-4-1.88 3.17-.6 4.03 1.7-3.2.78z" transform="matrix(.581 0 0 .582 -51.048 -162.963)"/><path fill="url(#u)" d="M122.12 313.84l3.05-.73.3-4.63-3.2.8-.15 4.57z" transform="matrix(.581 0 0 .582 -51.048 -162.963)"/><path fill="url(#v)" d="M122.7 320.68l-13.13 4.06-.16-12.2 13.7-2.9-.4 11.04z" transform="matrix(.581 0 0 .582 -51.048 -162.963)"/><path fill="url(#w)" d="M109.57 324.74l-5.5-5.25-.2-10.44 5.54 3.5.17 12.18z" transform="matrix(.581 0 0 .582 -51.048 -162.963)"/><path fill="url(#x)" d="M123.1 309.65l-13.7 2.9-5.55-3.5 13.07-2.3 6.17 2.9z" transform="matrix(.581 0 0 .582 -51.048 -162.963)"/><g transform="matrix(.581 0 0 .582 -51.048 -162.963)"><radialGradient cx="109.94" cy="312.074" r="9.655" gradientUnits="userSpaceOnUse" fy="312.074" fx="109.94"><stop offset="0" stop-color="#828E99"/><stop offset="1" stop-color="#373C40"/></radialGradient><path fill="url(#y)" d="M103.72 309.27l5.64 3.55 13.78-2.93-.1-.5s-13.4 2.85-13.58 2.9c-.17-.1-5.47-3.45-5.47-3.45l-.28.42z"/></g><g transform="matrix(.581 0 0 .582 -51.048 -162.963)"><radialGradient cx="109.941" cy="312.073" r="9.655" gradientUnits="userSpaceOnUse" fy="312.073" fx="109.941"><stop offset="0" stop-color="#828E99"/><stop offset="1" stop-color="#373C40"/></radialGradient><path fill="url(#z)" d="M109.24 312.56h.5v12.18h-.5z"/></g><path fill="none" stroke="#73797f" stroke-width=".49879999999999997" d="M9.3 16.82l7.6-1.35 3.58 1.7-.2 6.4"/><path fill="url(#A)" stroke="#000" stroke-width=".8" d="M17.28 4.6l-2-.15c-.07 0-.13 0-.2 0-.13 0-.26 0-.4 0-2.17.27-4.05 2.47-4.3 5.13-.02.37-.02.73.02 1.08.2 2.3 1.75 4 3.78 4"/><path fill="url(#B)" stroke="#000" stroke-width=".8" d="M10.24 9.73L8.2 8.85c-.6-.3-1.26-.46-1.98-.5-.16 0-.32 0-.47.02-2.68.15-5 2.37-5.3 5.17-.02.4-.02.77.02 1.14.12 1.16.62 2.2 1.38 2.98L3 18.76l7.24-9.03z"/><path fill="url(#C)" d="M12.48 14.8c-.32 3.1-3.04 5.55-6.07 5.44-2.62-.1-4.62-2.08-4.9-4.64-.04-.4-.04-.8 0-1.2.3-2.95 2.74-5.3 5.57-5.45.16 0 .33 0 .5 0 3.03.1 5.23 2.72 4.9 5.84z" enable-background="new"/><path fill="url(#D)" d="M7.06 8.8c-2.94.17-5.4 2.57-5.7 5.58-.04.4-.04.83 0 1.23.3 2.68 2.4 4.7 5.05 4.78 3.1.1 5.9-2.4 6.22-5.58.16-1.58-.3-3.08-1.3-4.23-.94-1.1-2.27-1.72-3.75-1.77h-.5zm-.64 11.3c-2.5-.1-4.5-2-4.77-4.52-.04-.38-.04-.78 0-1.17.3-2.86 2.63-5.15 5.43-5.3 0 0 .48 0 .48 0 1.4.04 2.66.63 3.55 1.67.95 1.08 1.4 2.5 1.23 4-.3 3.04-2.96 5.43-5.9 5.32z"/><g transform="matrix(.581 0 0 .582 -51.048 -162.963)"><linearGradient x1="110.121" x2="121.872" y1="292.456" y2="301.456" gradientUnits="userSpaceOnUse"><stop offset=".006" stop-color="#212326"/><stop offset="1" stop-color="#596669"/></linearGradient><path fill="url(#E)" d="M123.83 297.1c-.44 5.03-4.2 9.14-8.37 9.17-3.63.03-6.4-3.02-6.77-7.12-.07-.62-.07-1.27 0-1.94.4-4.74 3.77-8.67 7.66-9.1.23-.04.46-.06.7-.06 4.18-.03 7.2 4.02 6.77 9.06z" enable-background="new"/><linearGradient x1="115.693" x2="111.95" y1="296.266" y2="290.414" gradientUnits="userSpaceOnUse"><stop offset="0" stop-color="#161719"/><stop offset="1" stop-color="#B2B2B2"/></linearGradient><path fill="url(#F)" d="M117.05 288l-.7.04c-4.1.47-7.48 4.3-7.9 9.15v1.98c.4 4.28 3.34 7.37 7 7.34 4.3-.03 8.18-4.25 8.63-9.4.24-2.8-.56-5.42-2.2-7.2-1.28-1.38-3-1.94-4.83-1.93zm-8.1 11.13v-1.9c.4-4.55 3.66-8.46 7.44-8.9l.66-.04c1.68-.02 3.27.68 4.45 1.96 1.56 1.68 2.3 4.16 2.08 6.82-.43 4.9-4.07 8.9-8.12 8.94-3.4.02-6.15-2.87-6.52-6.9z"/></g><g><path fill="#f0efed" d="M7.4 12.63c-1.08.06-1.97.93-2.08 2.02v.45c.1 1 .9 1.74 1.88 1.77 1.13.04 2.14-.86 2.26-2.02 0-.07.02-.15.02-.23 0-.5-.18-.96-.5-1.33-.35-.42-.85-.65-1.4-.67h-.2zm.15.87c.3 0 .58.14.78.36.2.24.3.56.27.9-.08.7-.7 1.26-1.37 1.24-.55-.02-.98-.43-1.04-1 0 0 0-.27 0-.27.05-.65.6-1.2 1.24-1.23 0 0 .1 0 .1 0zm1.9 1.35z"/></g><g><path fill="#f0efed" d="M16.86 8.17h-.15c-.8.1-1.48.9-1.56 1.83 0 0 0 .38 0 .38.08.87.7 1.5 1.46 1.5.88-.02 1.63-.82 1.72-1.84.05-.54-.1-1.06-.44-1.42-.27-.3-.63-.45-1.02-.45zm-.07.7s.06 0 .06 0c.24 0 .4.12.5.23.2.2.3.53.26.88-.05.64-.52 1.2-1.03 1.2-.4 0-.72-.36-.77-.86 0 0 0-.26 0-.26.05-.6.47-1.13.96-1.2z"/></g><path fill="url(#G)" d="M17.97 10c-.07.84-.7 1.52-1.37 1.52-.6 0-1.05-.5-1.12-1.17 0-.1 0-.2 0-.32.07-.78.62-1.43 1.27-1.5.03 0 .07 0 .1 0 .7 0 1.2.65 1.12 1.48z"/><path fill="url(#H)" d="M120.6 319.8l-8.7 2.5v-8.98l9-2.02-.3 8.5z" transform="matrix(.581 0 0 .582 -51.048 -162.963)"/><path fill="url(#I)" d="M120.9 311.3l-9 2.02-.65-.43 9.06-2.06.6.46z" transform="matrix(.581 0 0 .582 -51.048 -162.963)"/><path fill="url(#J)" d="M111.9 313.32v9l-.6-.48-.05-8.95.65.42z" transform="matrix(.581 0 0 .582 -51.048 -162.963)"/><path fill="url(#K)" d="M119.6 323.33l-7.82 2.5v-1.77l7.83-2.43v1.7z" transform="matrix(.581 0 0 .582 -51.048 -162.963)"/><path fill="url(#L)" d="M111.78 325.83l-1.44-1.33 1.44-.44v1.77z" transform="matrix(.581 0 0 .582 -51.048 -162.963)"/><path fill="url(#M)" d="M9.36 23.42c-.2.66-.66.53-1.04-.3-.38-.83-.54-2.04-.34-2.7.2-.68.66-.55 1.04.28.4.84.54 2.05.34 2.72z"/><path fill="url(#N)" d="M10.78 20.1l.78-.15c.16-.04.38.1.56.4.3.5.4 1.18.24 1.56-.04.13-.1.2-.2.23h.03l-.83.3"/><g transform="matrix(.581 0 0 .582 -51.048 -162.963)"><linearGradient x1="105.425" x2="104.552" y1="320.149" y2="314.416" gradientUnits="userSpaceOnUse"><stop offset="0"/><stop offset=".123" stop-color="#070707"/><stop offset=".225" stop-color="#111"/><stop offset=".319" stop-color="#1C1C1C"/><stop offset=".409" stop-color="#2F2F2F"/><stop offset=".496" stop-color="#434444"/><stop offset=".58" stop-color="#555757"/><stop offset=".661" stop-color="#606467"/><stop offset=".73" stop-color="#626B73"/><stop offset=".751" stop-color="#596167"/><stop offset=".838" stop-color="#383B3D"/><stop offset=".912" stop-color="#232323"/><stop offset=".968" stop-color="#171616"/><stop offset="1" stop-color="#121212"/></linearGradient><path fill="url(#O)" d="M107.05 319.28l-3.6 1.84h-.02c.2-.06.38-.3.5-.7.33-1.15.06-3.23-.6-4.66-.37-.8-.8-1.24-1.15-1.24l3.66-.08c.27 0 .62.3.94.92.55 1.05.8 2.58.58 3.43-.07.24-.18.4-.3.48z"/><linearGradient x1="104.598" x2="105.609" y1="313.838" y2="320.968" gradientUnits="userSpaceOnUse"><stop offset="0" stop-color="#CFDDE2"/><stop offset=".152" stop-color="#CBD8DD"/><stop offset=".281" stop-color="#BCC9CD"/><stop offset=".402" stop-color="#A7B1B5"/><stop offset=".519" stop-color="#899297"/><stop offset=".63" stop-color="#677077"/><stop offset=".646" stop-color="#626B73"/><stop offset="1" stop-color="#121212"/></linearGradient><path fill="url(#P)" d="M105.82 314.2l-3.65.07v.5c.2 0 .57.3.94 1.1.46.97.72 2.27.72 3.33 0 .44-.04.83-.14 1.15-.08.3-.2.5-.34.54l.17.46c.03 0 .04-.03.06-.04 0 0 0 .02 0 .02l3.6-1.84c.2-.1.36-.33.44-.65.25-.9-.02-2.5-.6-3.6-.36-.7-.78-1.07-1.18-1.06zm.02.5c.1 0 .4.15.72.77.4.75.63 1.8.63 2.6 0 .24-.03.47-.08.65-.07.26-.16.32-.2.34 0 0-1.78.92-2.75 1.4.1-.35.15-.8.15-1.27 0-1.14-.27-2.5-.76-3.55-.18-.4-.38-.67-.58-.9.97-.02 2.86-.06 2.86-.06z"/></g><path fill="url(#Q)" d="M8.4 13.3l-.3-.13h-.06c-.15-.07-.3-.1-.48-.1-.05 0-.1 0-.15 0-.83.04-1.56.74-1.65 1.62 0 .1 0 .23 0 .35.04.37.2.7.44.94h.02l.34.32 1.85-3z"/><path fill="url(#R)" d="M9.44 15.02c-.1.97-.95 1.73-1.9 1.7-.8-.03-1.42-.65-1.5-1.44-.02-.12-.02-.25 0-.38.1-.9.84-1.64 1.72-1.7.05 0 .1 0 .15 0 .95.05 1.64.86 1.54 1.82z"/><path fill="url(#S)" d="M18.7 10.17c-.1.9-.77 1.65-1.52 1.66-.66 0-1.16-.55-1.22-1.3 0-.1 0-.22 0-.34.07-.87.68-1.57 1.38-1.66.04 0 .08 0 .13 0 .75 0 1.3.72 1.22 1.63z"/><path fill="none" stroke="#000" stroke-width=".8" d="M15.28 4.45l2.05.14c2.34.1 4 2.4 3.75 5.26-.26 2.92-2.44 5.3-4.87 5.33-.25 0-.5-.03-.75-.1l-2.17-.57"/><path fill="none" stroke="#000" stroke-width=".8" d="M12.5 14.2c0 .2 0 .4-.02.6-.32 3.1-3.04 5.55-6.07 5.44-1.35-.05-2.54-.6-3.4-1.5l-1.26-1.2" enable-background="new"/><path fill="none" stroke="#000" stroke-width=".6" d="M7.53 8.6s.9.3 1.08.4c.2.08 1.42.66 1.42.66 1.52.9 2.5 2.6 2.5 4.55"/><path fill="none" stroke="#121212" stroke-width="1.16.064" d="M17.6 16.93l.1-4.48-.4-.18-6.2.87.12 4.77"/><path fill="url(#T)" d="M118.08 309.27l-10.4 2.16-.23-8.4 10.8-1.47-.17 7.7z" transform="matrix(.581 0 0 .582 -51.048 -162.963)"/><path fill="url(#U)" d="M107.67 311.43l-.22-8.4-.55-.28.2 8.2.57.48z" transform="matrix(.581 0 0 .582 -51.048 -162.963)"/><path fill="url(#V)" d="M118.26 301.56l-10.8 1.47-.56-.28 10.68-1.5.68.3z" transform="matrix(.581 0 0 .582 -51.048 -162.963)"/><path fill="none" stroke="#565b66" stroke-width=".5" d="M11.42 22.4l.77-.28"/><path fill="url(#W)" d="M16.44 22.06l-.6-.4c-.2-.1-.3-.35-.32-.64 0-.06 0-.13.02-.2.1-.48.46-.88.86-.92.02 0 .05 0 .07 0 .1 0 .2 0 .28.06h-.02l.62.3"/><path fill="#d6e0e4" d="M17.72 21.16c-.1.54-.53.97-.97.98-.38 0-.65-.32-.65-.76 0-.06 0-.13.02-.2.08-.5.48-.92.9-.97.02 0 .04 0 .07 0 .43 0 .7.43.62.96z"/><path fill="url(#X)" d="M17.52 21.17c-.07.4-.4.72-.73.72-.3 0-.5-.25-.5-.57 0-.05 0-.1.02-.16.07-.37.36-.68.67-.72 0 0 .03 0 .04 0 .33 0 .55.32.48.72z"/><path fill="none" stroke="#8b99a3" stroke-width=".25" d="M14 24.52V19.3"/><path fill="none" stroke="#8b99a3" stroke-width=".24939999999999998" d="M19.23 18.1L14 19.3l-.38-.26"/><path fill="none" stroke="#cdd8de" stroke-width=".5" d="M10.77 20.1l.78-.15"/><path fill="none" stroke="#52585e" stroke-width=".5" d="M13.93 25.53v1.03"/><path fill="none" stroke="#52585e" stroke-width=".5" d="M12.64 25.93l7.64-2.36"/><path fill="url(#Y)" fill-rule="evenodd" stroke="url(#Z)" stroke-width=".8" d="M24.44 22.92c4.8-5.63 2.44-9.27-.34-11.26l-2.2.7.3-4.88c2.75.34 6.98 1.5 9.14 2.75l-2.66.73C31.63 14 31.7 19 29.25 21.5l-4.8 1.42z"/></g></svg>