<svg xmlns="http://www.w3.org/2000/svg" width="48" height="48"><defs><linearGradient id="a" x1="9.29" x2="66.117" y1="7.003" y2="66.159" gradientUnits="userSpaceOnUse" gradientTransform="matrix(1.048 0 0 1.048 -1.617 .406)"><stop offset=".028" stop-color="#fff"/><stop offset="1" stop-color="#94A1AF"/></linearGradient><radialGradient id="b" cx="23.552" cy="38.054" r="10.037" gradientUnits="userSpaceOnUse" fy="38.054" fx="23.552" gradientTransform="matrix(1.048 0 0 1.048 -1.617 .406)"><stop offset="0" stop-color="#709EC3"/><stop offset="1" stop-color="#3065A0"/></radialGradient><radialGradient id="c" cx="23.393" cy="30.989" r="9.478" gradientUnits="userSpaceOnUse" fy="30.989" fx="23.393" gradientTransform="matrix(1.048 0 0 1.048 -1.617 .406)"><stop offset="0" stop-color="#fff"/><stop offset=".225" stop-color="#DEE9F1"/><stop offset="1" stop-color="#709EC3"/></radialGradient><radialGradient id="d" cx="17.793" cy="15.256" r="14.806" gradientUnits="userSpaceOnUse" fy="15.256" fx="17.793" gradientTransform="matrix(1.048 0 0 1.048 -1.617 .406)"><stop offset="0" stop-color="#C17D10"/><stop offset="1" stop-color="#8F5810"/></radialGradient><radialGradient id="e" cx="22.607" cy="11.884" r="30.062" gradientUnits="userSpaceOnUse" fy="11.884" fx="22.607" gradientTransform="matrix(1.048 0 0 1.048 -1.617 .406)"><stop offset="0" stop-color="#fff"/><stop offset="1" stop-color="#FFD5B3"/></radialGradient></defs><g><path fill="url(#a)" d="M.55.93h46.77V47.5H.55z"/><path fill="url(#b)" stroke="#363a40" stroke-width=".8" d="M30.68 38.4c2.82 3.25 3.26 7.57 4.78 9.1H12c3.9-5.65 7.14-11.37 8.22-12.24.82 1.3 1.92 2.7 2.65 2.7.8 0 2.6-3.04 3.47-3.04.62 0 .65 3.9 1.52 4.12.45.1 1.74-.2 2.84-.63h-.02z"/><path fill="url(#c)" stroke="#363c40" stroke-width=".8" d="M22.43 31.95s-3.34.48-3.34 1.08c0 .5 2.46 4.92 3.77 4.92.8 0 2.6-3.03 3.47-3.03.62 0 .65 3.9 1.52 4.12.87.22 4.77-1.08 4.56-1.95-.22-.88-2.4-2.73-2.4-2.73-1.2-.1-2.43-.38-3.68-.8-1.36-.48-2.67-1.02-3.9-1.62z"/><path fill="url(#d)" stroke="#59370a" stroke-width=".8" d="M44.4 19.5c-.07-1.15 0 0 0-.76s.94-1.1.94-1.1.3-2.98 1.17-4.46c.87-1.48 0 0-.85 1.48-.86 1.5 0-.62-.55-1.17-.54-.55-1-1.02-1.8-1.8-.77-.78 0 0 0-1.87 0-1.88 0 0 .8-.78.77-.8 0 0 .93-.94.93-.93-.94-4.52-.94-4.52l-.32 1.72-.63.62-3.6 1.1s.17-1.25-3.34-1.95c-3.5-.7-.62-.63.16-1.4.78-.8 0 0-1.17-1.18-1.18-1.18-.63-.8-1.88-.8s0 0-1.25 0-1.25.46-1.25.46l-2.65.96-3.12-.63L23.33 2s-.78.78-1.4.78c-.63 0 0 0-1.4 0s0 0-1.88 0c-1.87 0-.78 1-1.56 1-.8 0-1.15 0-2.1 0-.93 0 0 .93-.95 1.9-.97.96 0 0-.86.85-.87.86 0 0-1.57.62-1.56.63-.63-.62-.63-2.03 0-1.4 0 0 .63-.62.62-.62-.47-1.4-1.1-2.03-.62-.64-.62.6-1.56 1.55-.93.94-.55 1.48-2.03 2.97C5.46 8.5 7.5 8.97 8.2 9.67s.85 1.8 1.4 2.34c.54.56 0 4.07 0 4.07s-.8 2.8-1.4 2.2c-.63-.64-.32-1.9.15-2.35.46-.47.62-2.04.62-2.04l-1.87-.62-1.4-1.72-.63-1.25-.92 1.66s1.54 2.24 2 2.7c.48.47 1.67 2.87.48 4.06-1.2 1.2 1.33 3.98 2.2 3.12.84-.85 2.04 0 3.3 1.25l-.02-.02c-.54-.97-.95-1.96-1.23-3C7.75 8.5 19.22 3.8 27.47 3.8c7.66 0 16.1 6.85 16.92 14.95v.77z"/><path fill="url(#e)" stroke="#331d00" stroke-width=".8" d="M44.45 20.66c-.52 10.7-9.16 16-18.1 12.9-7.8-2.7-13.92-7.67-15.48-13.47C7.75 8.5 19.22 3.76 27.47 3.76c8.26 0 17.4 7.97 16.98 16.9z"/><g stroke="#331d00" stroke-width=".764" transform="matrix(1.048 0 0 1.048 -1.617 .406)"><circle cx="17.138" cy="13.915" r="2.483" fill="#fff"/><path fill="#fff" d="M35.35 11.9c-.05 1.15-.47 2.76-2.1 2.85-3.13.18-4.28-1.6-4.62-2.9-.5-1.82-.13-3.62 2.9-3.74 1.38-.04 3.9 1.7 3.82 3.8z"/><path fill="none" d="M34.3 9.5L36.12 8"/><path fill="none" d="M30.73 8.1L29.7 6.3"/><path fill="none" d="M28.97 9.06l-3.2-1.38"/><path fill="none" d="M18.16 11.7l.7-2"/><path fill="none" d="M15.1 12.54l-1.45-1.06"/><path fill="none" d="M14.65 13.9H12.3"/></g><path fill="#663f0b" d="M33.6 12.4c.22.97-.47 1.98-1.65 1.8-1-.14-1.73-.84-1.97-1.8-.24-1 .8-1.83 1.82-1.83.74 0 1.6.82 1.8 1.82z"/><circle cx="17.083" cy="13.625" r="1.429" fill="#663f0b" transform="matrix(1.048 0 0 1.048 -1.617 .406)"/><path fill="none" stroke="#ed2728" d="M14.84 20.37c1.73 3.04 8.46 5 18.23 4.13 8.22-.73 8.68-5.86 8.68-6.5"/><g fill="none" stroke="#fff" stroke-width=".764"><path d="M16.9 47.6c2.27-17.6-.08-29.86-.5-31.1-3-8.5.38-15.1.42-15.18"/><path d="M32.3 47.3c-1.27-5.33.93-8.6 3.73-12.73l2-3.06C44.8 20.58 40.07 14.46 33.2 7.6c-1.45-1.45-2.18-2.85-2.1-4.05.1-1.22.96-1.9 1-1.93"/><path d="M.4 17.27c6.4 1.2 13 2.46 19.72-1.4 5.97-3.3 13.4-3.62 19-.8l1.38.56c1.7.74 3.8 1.66 6.62 1.66"/><path d="M1.08 32.63c.04-.04 4.22-3.3 9.63-2.6 4.82.77 8.8 2.46 12.67 4.1 7.92 3.37 14.77 6.28 24.28-1.5"/></g><g fill="none" stroke="#363a40" stroke-width=".764"><path d="M16.08.93s-3.63 6.86-.48 15.85c.26.76 2.8 12.68.48 30.7"/><path d="M31.6.93s-3.6 2.64 1 7.24c6.4 6.4 11.3 12.25 4.72 22.9-3.58 5.78-7.5 9.45-5.84 16.42"/><path d="M.55 16.45c6.58 1.24 12.77 2.36 19.16-1.3 5.88-3.24 13.7-3.9 19.7-.87 1.85.65 4.25 2.17 7.72 2.17"/><path d="M.55 31.97s4.42-3.54 10.3-2.76c14.97 2.36 22.7 13.88 36.27 2.77"/></g><path fill="none" stroke="#363a40" d="M.55.93h46.77V47.5H.55z"/></g></svg>