<svg xmlns="http://www.w3.org/2000/svg" width="48" height="48"><defs><radialGradient id="a" cx="145.63" cy="362.414" r="20.433" gradientUnits="userSpaceOnUse" gradientTransform="matrix(-.766 0 0 1 472.879 0)" fy="362.414" fx="145.63"><stop offset="0" stop-color="#545652"/><stop offset="1" stop-color="#fff"/></radialGradient><radialGradient id="c" cx="-616.157" cy="334.606" r="39.065" gradientUnits="userSpaceOnUse" gradientTransform="translate(994.633)" fy="334.606" fx="-616.157"><stop offset="0" stop-color="#fff"/><stop offset="1" stop-color="#8D9BA6"/></radialGradient><radialGradient id="b" cx="-624.602" cy="343.686" r="31.808" gradientUnits="userSpaceOnUse" gradientTransform="translate(994.633)" fy="343.686" fx="-624.602"><stop offset="0" stop-color="#fff"/><stop offset=".09" stop-color="#F9FAFA"/><stop offset=".21" stop-color="#E8EBED"/><stop offset=".348" stop-color="#CCD3D7"/><stop offset=".497" stop-color="#A5B1B9"/><stop offset=".579" stop-color="#8D9CA6"/><stop offset="1" stop-color="#505359"/></radialGradient><linearGradient id="d" x1="368.388" x2="350.091" y1="354.863" y2="354.863" gradientUnits="userSpaceOnUse"><stop offset="0" stop-color="#fff"/><stop offset=".29" stop-color="#FEFDFD"/><stop offset=".417" stop-color="#FCF6F6"/><stop offset=".512" stop-color="#F7E9E9"/><stop offset=".591" stop-color="#F0D8D7"/><stop offset=".661" stop-color="#E8C1C0"/><stop offset=".723" stop-color="#DDA5A3"/><stop offset=".781" stop-color="#D08381"/><stop offset=".834" stop-color="#C15C59"/><stop offset=".882" stop-color="#B1312E"/><stop offset=".916" stop-color="#A40E0A"/><stop offset="1"/></linearGradient><linearGradient id="e" x1="349.746" x2="366.519" y1="354.863" y2="354.863" gradientUnits="userSpaceOnUse"><stop offset="0" stop-color="#fff"/><stop offset=".397" stop-color="#FAAF3D"/><stop offset=".649" stop-color="#F6972A"/><stop offset="1" stop-color="#F17912"/></linearGradient></defs><g transform="matrix(1.045 0 0 1.045 -353.689 -343.042)"><ellipse cx="360.789" cy="371.581" fill="url(#a)" ry="2.488" rx="14.756"/><g><path fill="#d9dddf" d="M360.8 329.05h2.25v1.1h-2.24z"/></g><g><path fill="#d9dddf" d="M358.56 329.05h2.25v1.1h-2.24z"/></g><g><path fill="#d9dddf" d="M356.32 329.58l2.25-.4v.96h-2.25v-.56z"/></g><g><path fill="#a9adb0" d="M360.8 330.14h2.25v2.24h-2.24z"/></g><g><path fill="#999d9f" d="M358.56 330.14h2.25v2.24h-2.24z"/></g><g><path fill="#afb2b4" d="M356.32 330.14h2.25v2.24h-2.25z"/></g><g><path fill="#cfd2d4" d="M354.08 330.14h2.24v2.24h-2.24z"/></g><g><path fill="#d0d3d5" d="M351.84 331.17l2.24-1.03v2.24h-2.24v-1.2z"/></g><g><path fill="#1d2a3d" d="M351.84 331.17v1.2h-2.24l2.24-1.2z"/></g><g><path fill="#ccd4d9" d="M360.8 332.38h2.25v2.24h-2.24z"/></g><g><path fill="#d1d9dd" d="M358.56 332.38h2.25v2.24h-2.24z"/></g><g><path fill="#b7bdc1" d="M356.32 332.38h2.25v2.24h-2.25z"/></g><g><path fill="#bfc1c3" d="M354.08 332.38h2.24v2.24h-2.24z"/></g><g><path fill="#b7b9ba" d="M351.84 332.38h2.24v2.24h-2.24z"/></g><g><path fill="#dddfde" d="M349.6 332.38h2.24v2.24h-2.24z"/></g><g><path fill="#a0a1a2" d="M349.6 332.38v2.24h-2.25l2.25-2.24z"/></g><g><path fill="#a9aeb1" d="M360.8 334.62h2.25v2.24h-2.24z"/></g><g><path fill="#c2c7ca" d="M358.56 334.62h2.25v2.24h-2.24z"/></g><g><path fill="#a2a5a8" d="M356.32 334.62h2.25v2.24h-2.25z"/></g><g><path fill="#e5ebee" d="M354.08 334.62h2.24v2.24h-2.24z"/></g><g><path fill="#b8bdc0" d="M351.84 334.62h2.24v2.24h-2.24z"/></g><g><path fill="#cacccb" d="M349.6 334.62h2.24v2.24h-2.24z"/></g><g><path fill="#c2c4c3" d="M347.35 334.62h2.24v2.24h-2.25z"/></g><g><path fill="#c9ced0" d="M360.8 336.86h2.25v2.25h-2.24z"/></g><g><path fill="#a9aeb1" d="M358.56 336.86h2.25v2.25h-2.24z"/></g><g><path fill="#dfe2e3" d="M356.32 336.86h2.25v2.25h-2.25z"/></g><g><path fill="#eef2f3" d="M354.08 336.86h2.24v2.25h-2.24z"/></g><g><path fill="#edf1f3" d="M351.84 336.86h2.24v2.25h-2.24z"/></g><g><path fill="#cfd4d6" d="M349.6 336.86h2.24v2.25h-2.24z"/></g><g><path fill="#e9ebec" d="M347.35 336.86h2.24v2.25h-2.25z"/></g><g><path fill="#d9dddf" d="M360.8 339.1h2.25v2.25h-2.24z"/></g><g><path fill="#bbbdbe" d="M358.56 339.1h2.25v2.25h-2.24z"/></g><g><path fill="#dddfe0" d="M356.32 339.1h2.25v2.25h-2.25z"/></g><g><path fill="#eceeed" d="M354.08 339.1h2.24v2.25h-2.24z"/></g><g><path fill="#adafb0" d="M351.84 339.1h2.24v2.25h-2.24z"/></g><g><path fill="#96989a" d="M349.6 339.1h2.24v2.25h-2.24z"/></g><g><path fill="#d0d6d9" d="M347.35 339.1h2.24v2.25h-2.25z"/></g><g><path fill="#9d9fa0" d="M345.1 339.1h2.25v2.25h-2.24z"/></g><g><path fill="#a6a8aa" d="M360.8 341.35h2.25v2.24h-2.24z"/></g><g><path fill="#bbbdbe" d="M358.56 341.35h2.25v2.24h-2.24z"/></g><g><path fill="#c4c5c6" d="M356.32 341.35h2.25v2.24h-2.25z"/></g><g><path fill="#eff1f0" d="M354.08 341.35h2.24v2.24h-2.24z"/></g><g><path fill="#f5f7f8" d="M351.84 341.35h2.24v2.24h-2.24z"/></g><g><path fill="#cacecf" d="M349.6 341.35h2.24v2.24h-2.24z"/></g><g><path fill="#f5f7f6" d="M347.35 341.35h2.24v2.24h-2.25z"/></g><g><path fill="#e4e7e9" d="M360.8 343.6h2.25v2.23h-2.24z"/></g><g><path fill="#ced0d1" d="M358.56 343.6h2.25v2.23h-2.24z"/></g><g><path fill="#dfdfdf" d="M356.32 343.6h2.25v2.23h-2.25z"/></g><g><path fill="#adafae" d="M354.08 343.6h2.24v2.23h-2.24z"/></g><g><path fill="#dbddde" d="M351.84 343.6h2.24v2.23h-2.24z"/></g><g><path fill="#a9abad" d="M349.6 343.6h2.24v2.23h-2.24z"/></g><g><path fill="#a3a6a9" d="M347.35 343.6h2.24v2.23h-2.25z"/></g><g><path fill="#b1b3b5" d="M360.8 345.83h2.25v2.25h-2.24z"/></g><g><path fill="#9ea0a1" d="M358.56 345.83h2.25v2.25h-2.24z"/></g><g><path fill="#cccecd" d="M356.32 345.83h2.25v2.25h-2.25z"/></g><g><path fill="#bfc1c2" d="M354.08 345.83h2.24v2.25h-2.24z"/></g><g><path fill="#f1f4f5" d="M351.84 345.83h2.24v2.25h-2.24z"/></g><g><path fill="#c2c5c7" d="M349.6 345.83h2.24v2.25h-2.24z"/></g><g><path fill="#c9cfd2" d="M347.35 345.83h2.24v2.25h-2.25z"/></g><g><path fill="#bfc6cb" d="M345.1 345.83h2.25v2.25h-2.24z"/></g><g><path fill="#97999c" d="M360.8 348.07h2.25v2.25h-2.24z"/></g><g><path fill="#e7ebed" d="M358.56 348.07h2.25v2.25h-2.24z"/></g><g><path fill="#d0d3d5" d="M356.32 348.07h2.25v2.25h-2.25z"/></g><g><path fill="#9d9fa1" d="M354.08 348.07h2.24v2.25h-2.24z"/></g><g><path fill="#9ea0a2" d="M351.84 348.07h2.24v2.25h-2.24z"/></g><g><path fill="#c9ced1" d="M349.6 348.07h2.24v2.25h-2.24z"/></g><g><path fill="#e9edef" d="M347.35 348.07h2.24v2.25h-2.25z"/></g><g><path fill="#c3c8cb" d="M345.1 348.07h2.25v2.25h-2.24z"/></g><g><path fill="#bec3c6" d="M360.8 350.32h2.25v2.24h-2.24z"/></g><g><path fill="#9ea2a5" d="M358.56 350.32h2.25v2.24h-2.24z"/></g><g><path fill="#b8bcbf" d="M356.32 350.32h2.25v2.24h-2.25z"/></g><g><path fill="#a2a6a8" d="M354.08 350.32h2.24v2.24h-2.24z"/></g><g><path fill="#a7abae" d="M351.84 350.32h2.24v2.24h-2.24z"/></g><g><path fill="#c3c8cc" d="M349.6 350.32h2.24v2.24h-2.24z"/></g><g><path fill="#999fa2" d="M347.35 350.32h2.24v2.24h-2.25z"/></g><g><path fill="#b4bdc3" d="M345.1 350.32h2.25v2.24h-2.24z"/></g><g><path fill="#868c8f" d="M360.8 352.56h2.25v2.24h-2.24z"/></g><g><path fill="#d9e2e6" d="M358.56 352.56h2.25v2.24h-2.24z"/></g><g><path fill="#888d90" d="M356.32 352.56h2.25v2.24h-2.25z"/></g><g><path fill="#ced6da" d="M354.08 352.56h2.24v2.24h-2.24z"/></g><g><path fill="#d1dade" d="M351.84 352.56h2.24v2.24h-2.24z"/></g><g><path fill="#bec5ca" d="M349.6 352.56h2.24v2.24h-2.24z"/></g><g><path fill="#9ca5a9" d="M347.35 352.56h2.24v2.24h-2.25z"/></g><g><path fill="#7e868b" d="M345.1 352.56h2.25v2.24h-2.24z"/></g><g><path fill="#adb7bd" d="M360.8 354.8h2.25v2.25h-2.24z"/></g><g><path fill="#7b8285" d="M358.56 354.8h2.25v2.25h-2.24z"/></g><g><path fill="#b3bbc0" d="M356.32 354.8h2.25v2.25h-2.25z"/></g><g><path fill="#ced6da" d="M354.08 354.8h2.24v2.25h-2.24z"/></g><g><path fill="#8b9297" d="M351.84 354.8h2.24v2.25h-2.24z"/></g><g><path fill="#a3acb2" d="M349.6 354.8h2.24v2.25h-2.24z"/></g><g><path fill="#b3bfc6" d="M347.35 354.8h2.24v2.25h-2.25z"/></g><g><path fill="#a0adb5" d="M345.1 354.8h2.25v2.25h-2.24z"/></g><g><path fill="#a3afb7" d="M360.8 357.05h2.25v2.24h-2.24z"/></g><g><path fill="#727a7f" d="M358.56 357.05h2.25v2.24h-2.24z"/></g><g><path fill="#858e93" d="M356.32 357.05h2.25v2.24h-2.25z"/></g><g><path fill="#7a8287" d="M354.08 357.05h2.24v2.24h-2.24z"/></g><g><path fill="#9ba5ac" d="M351.84 357.05h2.24v2.24h-2.24z"/></g><g><path fill="#96a1a8" d="M349.6 357.05h2.24v2.24h-2.24z"/></g><g><path fill="#6c757b" d="M347.35 357.05h2.24v2.24h-2.25z"/></g><g><path fill="#667178" d="M360.8 359.3h2.25v2.23h-2.24z"/></g><g><path fill="#79858c" d="M358.56 359.3h2.25v2.23h-2.24z"/></g><g><path fill="#87939b" d="M356.32 359.3h2.25v2.23h-2.25z"/></g><g><path fill="#8c99a0" d="M354.08 359.3h2.24v2.23h-2.24z"/></g><g><path fill="#838f97" d="M351.84 359.3h2.24v2.23h-2.24z"/></g><g><path fill="#92a1ab" d="M349.6 359.3h2.24v2.23h-2.24z"/></g><g><path fill="#99abb6" d="M347.35 359.3h2.24v2.23h-2.25z"/></g><g><path fill="#a3b6c0" d="M360.8 361.53h2.25v2.24h-2.24z"/></g><g><path fill="#7e8c95" d="M358.56 361.53h2.25v2.24h-2.24z"/></g><g><path fill="#8b9aa4" d="M356.32 361.53h2.25v2.24h-2.25z"/></g><g><path fill="#5b656c" d="M354.08 361.53h2.24v2.24h-2.24z"/></g><g><path fill="#6b777e" d="M351.84 361.53h2.24v2.24h-2.24z"/></g><g><path fill="#626e74" d="M349.6 361.53h2.24v2.24h-2.24z"/></g><g><path fill="#7f8d96" d="M347.35 361.53h2.24v2.24h-2.25z"/></g><g><path fill="#8d969b" d="M345.1 361.53h2.25v2.24h-2.24z"/></g><g><path fill="#586268" d="M360.8 363.77h2.25v2.25h-2.24z"/></g><g><path fill="#646e75" d="M358.56 363.77h2.25v2.25h-2.24z"/></g><g><path fill="#8896a0" d="M356.32 363.77h2.25v2.25h-2.25z"/></g><g><path fill="#555e64" d="M354.08 363.77h2.24v2.25h-2.24z"/></g><g><path fill="#93a3ad" d="M351.84 363.77h2.24v2.25h-2.24z"/></g><g><path fill="#525a60" d="M349.6 363.77h2.24v2.25h-2.24z"/></g><g><path fill="#7a8389" d="M347.35 363.77h2.24v2.25h-2.25z"/></g><g><path fill="#95a0a7" d="M345.1 363.77h2.25v2.25h-2.24z"/></g><g><path fill="#88959f" d="M360.8 366.02h2.25v2.24h-2.24z"/></g><g><path fill="#8996a1" d="M358.56 366.02h2.25v2.24h-2.24z"/></g><g><path fill="#6e7981" d="M356.32 366.02h2.25v2.24h-2.25z"/></g><g><path fill="#626b73" d="M354.08 366.02h2.24v2.24h-2.24z"/></g><g><path fill="#565f65" d="M351.84 366.02h2.24v2.24h-2.24z"/></g><g><path fill="#bac8d1" d="M349.6 366.02h2.24v2.24h-2.24z"/></g><g><path fill="#9faab2" d="M347.35 366.02h2.24v2.24h-2.25z"/></g><g><path fill="#5a6269" d="M360.8 368.26h2.25v2.24h-2.24z"/></g><g><path fill="#667076" d="M358.56 368.26h2.25v2.24h-2.24z"/></g><g><path fill="#9eabb4" d="M356.32 368.26h2.25v2.24h-2.25z"/></g><g><path fill="#afbec9" d="M354.08 368.26h2.24v2.24h-2.24z"/></g><g><path fill="#929fa7" d="M351.84 368.26h2.24v2.24h-2.24z"/></g><g><path fill="#9eabb5" d="M349.6 368.26h2.24v2.24l-2.24-1.2v-1.04z"/></g><g><path fill="#314665" d="M347.35 368.26h2.25v1.04l-2.25-1.04z"/></g><g><path fill="#7b8790" d="M360.8 370.5h2.25v2.24h-2.24z"/></g><g><path fill="#7d8991" d="M358.56 370.5h2.25v2.24h-2.24z"/></g><g><path fill="#748088" d="M356.32 370.5h2.25v2.24l-2.25-.6v-1.64z"/></g><g><path fill="#8d9ba4" d="M354.08 370.5h2.24v1.65l-2.24-.66v-1z"/></g><g><path fill="#2b3f5a" d="M351.84 370.5h2.24v1l-2.24-1z"/></g><g><path fill="#eef0f2" d="M345.1 336.86h2.25v2.25h-2.24z"/></g><g><path fill="#a3a5a7" d="M345.1 336.86v2.25h-2.23l2.24-2.24z"/></g><g><path fill="#d9dbdc" d="M347.35 334.62v2.24h-2.24l2.25-2.24z"/></g><g><path fill="#cad1d5" d="M345.1 341.35h2.25v2.24h-2.24z"/></g><g><path fill="#d1d5d7" d="M342.87 341.35h2.24v2.24h-2.23z"/></g><g><path fill="#949799" d="M341.67 341.35h1.2v2.24h-2.25l1.05-2.25z"/></g><g><path fill="#dbe2e7" d="M345.1 343.6h2.25v2.23h-2.24z"/></g><g><path fill="#aeb1b4" d="M342.87 343.6h2.24v2.23h-2.23z"/></g><g><path fill="#d2d8db" d="M340.63 343.6h2.24v2.23h-2.25z"/></g><g><path fill="#d8dcdd" d="M342.87 345.83h2.24v2.25h-2.23z"/></g><g><path fill="#b7bcc0" d="M340.63 345.83h2.24v2.25h-2.25z"/></g><g><path fill="#141c29" d="M339.85 345.83h.77v2.25h-.77z"/></g><g><path fill="#9ba4a9" d="M342.87 348.07h2.24v2.25h-2.23z"/></g><g><path fill="#eaeef0" d="M340.63 348.07h2.24v2.25h-2.25z"/></g><g><path fill="#25364d" d="M339.85 348.07h.77v2.25h-.77z"/></g><g><path fill="#848e93" d="M342.87 350.32h2.24v2.24h-2.23z"/></g><g><path fill="#bec5ca" d="M340.63 350.32h2.24v2.24h-2.25z"/></g><g><path fill="#3a5478" d="M339.85 350.32h.77v2.24h-.77z"/></g><g><path fill="#9aa5ab" d="M342.87 352.56h2.24v2.24h-2.23z"/></g><g><path fill="#878d91" d="M340.63 352.56h2.24v2.24h-2.25z"/></g><g><path fill="#111823" d="M339.85 352.56h.77v2.24h-.77z"/></g><g><path fill="#c7d0d8" d="M342.87 354.8h2.24v2.25h-2.23z"/></g><g><path fill="#b2b9bf" d="M340.63 354.8h2.24v2.25h-2.25z"/></g><g><path fill="#344b6b" d="M339.85 354.8h.77v2.25h-.77z"/></g><g><path fill="#7a888f" d="M345.1 357.05h2.25v2.24h-2.24z"/></g><g><path fill="#9fa8ad" d="M342.87 357.05h2.24v2.24h-2.23z"/></g><g><path fill="#9fa8ad" d="M340.63 357.05h2.24v2.24h-2.25z"/></g><g><path fill="#7f8e97" d="M345.1 359.3h2.25v2.23h-2.24z"/></g><g><path fill="#767d82" d="M342.87 359.3h2.24v2.23h-2.23z"/></g><g><path fill="#7f868c" d="M340.63 359.3h2.24v2.23l-2.25-2.24z"/></g><g><path fill="#bdc8d0" d="M342.87 361.53h2.24v2.24h-1.4l-.83-2.24z"/></g><g><path fill="#1f2c40" d="M343.7 363.77h1.4v2.25l-1.4-2.25z"/></g><g><path fill="#e9ecee" d="M342.87 339.1h2.24v2.25h-2.23z"/></g><g><path fill="#324968" d="M342.87 339.1v2.25h-1.2l1.2-2.24z"/></g><g><path fill="#b6c4ce" d="M345.1 366.02h2.25v2.24l-2.24-2.24z"/></g><g><radialGradient cx="-624.602" cy="343.686" r="31.808" gradientUnits="userSpaceOnUse" gradientTransform="translate(994.633)" fy="343.686" fx="-624.602"><stop offset="0" stop-color="#fff"/><stop offset=".09" stop-color="#F9FAFA"/><stop offset=".21" stop-color="#E8EBED"/><stop offset=".348" stop-color="#CCD3D7"/><stop offset=".497" stop-color="#A5B1B9"/><stop offset=".579" stop-color="#8D9CA6"/><stop offset="1" stop-color="#505359"/></radialGradient><path fill="url(#b)" d="M361.37 328.98c12.07 0 21.87 9.8 21.87 21.87 0 12.08-9.8 21.87-21.88 21.87"/><g><radialGradient cx="-616.157" cy="334.606" r="39.065" gradientUnits="userSpaceOnUse" gradientTransform="translate(994.633)" fy="334.606" fx="-616.157"><stop offset="0" stop-color="#fff"/><stop offset="1" stop-color="#8D9BA6"/></radialGradient><path fill="url(#c)" d="M361.37 372.15c11.74 0 21.3-9.56 21.3-21.3s-9.56-21.3-21.3-21.3v1.15c11.1 0 20.14 9.04 20.14 20.15 0 11.1-9.03 20.14-20.13 20.14v1.15z"/></g></g><g><linearGradient x1="368.388" x2="350.091" y1="354.863" y2="354.863" gradientUnits="userSpaceOnUse"><stop offset="0" stop-color="#fff"/><stop offset=".29" stop-color="#FEFDFD"/><stop offset=".417" stop-color="#FCF6F6"/><stop offset=".512" stop-color="#F7E9E9"/><stop offset=".591" stop-color="#F0D8D7"/><stop offset=".661" stop-color="#E8C1C0"/><stop offset=".723" stop-color="#DDA5A3"/><stop offset=".781" stop-color="#D08381"/><stop offset=".834" stop-color="#C15C59"/><stop offset=".882" stop-color="#B1312E"/><stop offset=".916" stop-color="#A40E0A"/><stop offset="1"/></linearGradient><path fill="url(#d)" stroke="#000" stroke-width=".957" d="M349.64 360.1h11.52v6.18c0 .25.2.45.45.45.13 0 .24-.05.32-.14l.02-.02c2.33-2.27 12.27-11.08 12.27-11.08.36-.35.36-.92 0-1.27l-12.28-11.1c-.07-.08-.18-.13-.3-.13-.26 0-.46.2-.46.44v6.18h-11.52"/><path fill="none" stroke="#ed2728" stroke-width=".957" d="M349.64 350.37h12.2s.07-.02.07-.07c0-.6 0-4.95 0-6.1 0-.02.05-.05.07-.02 1.18 1.05 11 9.96 11.7 10.57.02.03.04.1.04.12 0 .05 0 .07-.02.1-.3.26-8.8 7.8-11.7 10.53-.02.02-.07 0-.07-.05 0-1.22 0-5.44 0-6.02 0-.05-.06-.07-.06-.07h-12.2"/></g><g><linearGradient x1="349.746" x2="366.519" y1="354.863" y2="354.863" gradientUnits="userSpaceOnUse"><stop offset="0" stop-color="#fff"/><stop offset=".397" stop-color="#FAAF3D"/><stop offset=".649" stop-color="#F6972A"/><stop offset="1" stop-color="#F17912"/></linearGradient><path fill="url(#e)" stroke="#662900" stroke-width=".957" d="M349.64 360.1h11.52v6.18c0 .25.2.45.45.45.13 0 .24-.05.32-.14l.02-.02c2.33-2.27 12.27-11.08 12.27-11.08.36-.35.36-.92 0-1.27l-12.28-11.1c-.07-.08-.18-.13-.3-.13-.26 0-.46.2-.46.44v6.18h-11.52"/><path fill="none" stroke="#ffb33e" stroke-width=".957" d="M349.64 350.37h12.2s.07-.02.07-.07c0-.6 0-4.95 0-6.1 0-.02.05-.05.07-.02 1.18 1.05 11 9.96 11.7 10.57.02.03.04.1.04.12 0 .05 0 .07-.02.1-.3.26-8.8 7.8-11.7 10.53-.02.02-.07 0-.07-.05 0-1.22 0-5.44 0-6.02 0-.05-.06-.07-.06-.07h-12.2"/></g><circle cx="361.365" cy="350.864" r="21.871" fill="none" stroke="#192333" stroke-width=".957"/></g></svg>