<svg xmlns="http://www.w3.org/2000/svg" width="48" height="48"><defs><radialGradient id="c" cx="-616.157" cy="166.621" r="39.065" gradientUnits="userSpaceOnUse" gradientTransform="translate(994.633)" fy="166.621" fx="-616.157"><stop offset="0" stop-color="#fff"/><stop offset="1" stop-color="#8D9BA6"/></radialGradient><radialGradient id="b" cx="-624.602" cy="175.702" r="31.808" gradientUnits="userSpaceOnUse" gradientTransform="translate(994.633)" fy="175.702" fx="-624.602"><stop offset="0" stop-color="#fff"/><stop offset=".09" stop-color="#F9FAFA"/><stop offset=".21" stop-color="#E8EBED"/><stop offset=".348" stop-color="#CCD3D7"/><stop offset=".497" stop-color="#A5B1B9"/><stop offset=".579" stop-color="#8D9CA6"/><stop offset="1" stop-color="#505359"/></radialGradient><radialGradient id="a" cx="144.879" cy="194.429" r="20.433" gradientUnits="userSpaceOnUse" gradientTransform="matrix(-.766 0 0 1 472.879 0)" fy="194.429" fx="144.879"><stop offset="0" stop-color="#545652"/><stop offset="1" stop-color="#fff"/></radialGradient><linearGradient id="d" x1="368.388" x2="350.091" y1="186.865" y2="186.865" gradientUnits="userSpaceOnUse"><stop offset="0" stop-color="#fff"/><stop offset=".29" stop-color="#FEFDFD"/><stop offset=".417" stop-color="#FCF6F6"/><stop offset=".512" stop-color="#F7E9E9"/><stop offset=".591" stop-color="#F0D8D7"/><stop offset=".661" stop-color="#E8C1C0"/><stop offset=".723" stop-color="#DDA5A3"/><stop offset=".781" stop-color="#D08381"/><stop offset=".834" stop-color="#C15C59"/><stop offset=".882" stop-color="#B1312E"/><stop offset=".916" stop-color="#A40E0A"/><stop offset="1"/></linearGradient><linearGradient id="e" x1="349.746" x2="366.519" y1="186.865" y2="186.865" gradientUnits="userSpaceOnUse"><stop offset="0" stop-color="#fff"/><stop offset=".397" stop-color="#E86712"/><stop offset=".772" stop-color="#D52E0C"/><stop offset="1" stop-color="#CB1009"/></linearGradient></defs><g transform="matrix(1.048 0 0 1.048 -355.057 -168.025)"><g><radialGradient cx="144.879" cy="194.429" r="20.433" gradientUnits="userSpaceOnUse" gradientTransform="matrix(-.766 0 0 1 472.879 0)" fy="194.429" fx="144.879"><stop offset="0" stop-color="#545652"/><stop offset="1" stop-color="#fff"/></radialGradient><ellipse cx="361.364" cy="203.597" fill="url(#a)" ry="2.488" rx="14.756"/><radialGradient cx="-624.602" cy="175.702" r="31.808" gradientUnits="userSpaceOnUse" gradientTransform="translate(994.633)" fy="175.702" fx="-624.602"><stop offset="0" stop-color="#fff"/><stop offset=".09" stop-color="#F9FAFA"/><stop offset=".21" stop-color="#E8EBED"/><stop offset=".348" stop-color="#CCD3D7"/><stop offset=".497" stop-color="#A5B1B9"/><stop offset=".579" stop-color="#8D9CA6"/><stop offset="1" stop-color="#505359"/></radialGradient><path fill="url(#b)" d="M361.37 161c12.07 0 21.87 9.8 21.87 21.87s-9.8 21.87-21.88 21.87"/><g><radialGradient cx="-616.157" cy="166.621" r="39.065" gradientUnits="userSpaceOnUse" gradientTransform="translate(994.633)" fy="166.621" fx="-616.157"><stop offset="0" stop-color="#fff"/><stop offset="1" stop-color="#8D9BA6"/></radialGradient><path fill="url(#c)" d="M361.37 204.16c11.74 0 21.3-9.55 21.3-21.3 0-11.74-9.56-21.3-21.3-21.3v1.16c11.1 0 20.14 9.04 20.14 20.14 0 11.1-9.03 20.15-20.13 20.15v1.16z"/></g></g><g><g><path fill="#00003e" d="M358.56 204.56l-2.24-.4v-.54h2.25v.94z"/></g><g><path fill="#000010" d="M360.8 204.73l-2.24-.17v-.94h2.25v1.1z"/></g><g><path fill="#003b1d" d="M363.05 204.67l-2.24.06v-1.1h2.25v1.04z"/></g><g><path d="M351.84 202.56l-2.24-1.18h2.24v1.18z"/></g><g><path fill="#65ceff" d="M354.08 203.62l-2.24-1.06v-1.18h2.24v2.24z"/></g><g><path fill="#519bee" d="M354.08 201.38h2.24v2.24h-2.24z"/></g><g><path fill="#6366ff" d="M356.32 201.38h2.25v2.24h-2.25z"/></g><g><path fill="#fe9cb4" d="M358.56 201.38h2.25v2.24h-2.24z"/></g><g><path fill="#79c0ea" d="M360.8 201.38h2.25v2.24h-2.24z"/></g><g><path fill="#9fd3ff" d="M349.6 201.38l-2.25-1.72v-.52h2.25v2.24z"/></g><g><path fill="#d1fffc" d="M349.6 199.14h2.24v2.24h-2.24z"/></g><g><path fill="#f2ff9f" d="M351.84 199.14h2.24v2.24h-2.24z"/></g><g><path fill="#6b5770" d="M354.08 199.14h2.24v2.24h-2.24z"/></g><g><path fill="#a1b854" d="M356.32 199.14h2.25v2.24h-2.25z"/></g><g><path fill="#9d92ce" d="M358.56 199.14h2.25v2.24h-2.24z"/></g><g><path fill="#2049d1" d="M360.8 199.14h2.25v2.24h-2.24z"/></g><g><path fill="#63e1ff" d="M347.35 196.9h2.25v2.24h-2.25z"/></g><g><path fill="#80cee7" d="M349.6 196.9h2.24v2.24h-2.24z"/></g><g><path fill="#3cb18a" d="M351.84 196.9h2.24v2.24h-2.24z"/></g><g><path fill="#b85c7f" d="M354.08 196.9h2.24v2.24h-2.24z"/></g><g><path fill="#32623a" d="M356.32 196.9h2.25v2.24h-2.25z"/></g><g><path fill="#78d0c4" d="M358.56 196.9h2.25v2.24h-2.24z"/></g><g><path fill="#bf8894" d="M360.8 196.9h2.25v2.24h-2.24z"/></g><g><path fill="#bdeaff" d="M347.35 194.65h2.25v2.24h-2.25z"/></g><g><path fill="#b35cb8" d="M349.6 194.65h2.24v2.24h-2.24z"/></g><g><path fill="#35e9cf" d="M351.84 194.65h2.24v2.24h-2.24z"/></g><g><path fill="#c1cac2" d="M354.08 194.65h2.24v2.24h-2.24z"/></g><g><path fill="#9f4bc2" d="M356.32 194.65h2.25v2.24h-2.25z"/></g><g><path fill="#7c87a3" d="M358.56 194.65h2.25v2.24h-2.24z"/></g><g><path fill="#78e4cc" d="M360.8 194.65h2.25v2.24h-2.24z"/></g><g><path fill="#844767" d="M347.35 192.4h2.25v2.25h-2.25z"/></g><g><path fill="#d55b56" d="M349.6 192.4h2.24v2.25h-2.24z"/></g><g><path fill="#4e99df" d="M351.84 192.4h2.24v2.25h-2.24z"/></g><g><path fill="#4ad0f1" d="M354.08 192.4h2.24v2.25h-2.24z"/></g><g><path fill="#c050d4" d="M356.32 192.4h2.25v2.25h-2.25z"/></g><g><path fill="#707277" d="M358.56 192.4h2.25v2.25h-2.24z"/></g><g><path fill="#ab646e" d="M360.8 192.4h2.25v2.25h-2.24z"/></g><g><path fill="#7598b3" d="M347.35 190.17h2.25v2.24h-2.25z"/></g><g><path fill="#7bdeff" d="M349.6 190.17h2.24v2.24h-2.24z"/></g><g><path fill="#a2ede8" d="M351.84 190.17h2.24v2.24h-2.24z"/></g><g><path fill="#5fd09f" d="M354.08 190.17h2.24v2.24h-2.24z"/></g><g><path fill="#a6e8ec" d="M356.32 190.17h2.25v2.24h-2.25z"/></g><g><path fill="#a2a6fb" d="M358.56 190.17h2.25v2.24h-2.24z"/></g><g><path fill="#54ff7e" d="M360.8 190.17h2.25v2.24h-2.24z"/></g><g><path fill="#c8cf96" d="M347.35 187.93h2.25v2.24h-2.25z"/></g><g><path fill="#9fea76" d="M349.6 187.93h2.24v2.24h-2.24z"/></g><g><path fill="#a7ff76" d="M351.84 187.93h2.24v2.24h-2.24z"/></g><g><path fill="#fff77a" d="M354.08 187.93h2.24v2.24h-2.24z"/></g><g><path fill="#ad97e8" d="M356.32 187.93h2.25v2.24h-2.25z"/></g><g><path fill="#a98f76" d="M358.56 187.93h2.25v2.24h-2.24z"/></g><g><path fill="#dd9b82" d="M360.8 187.93h2.25v2.24h-2.24z"/></g><g><path fill="#a176c2" d="M347.35 185.68h2.25v2.24h-2.25z"/></g><g><path fill="#9effd0" d="M349.6 185.68h2.24v2.24h-2.24z"/></g><g><path fill="#fff2fa" d="M351.84 185.68h2.24v2.24h-2.24z"/></g><g><path fill="#fba" d="M354.08 185.68h2.24v2.24h-2.24z"/></g><g><path fill="#ffcdf4" d="M356.32 185.68h2.25v2.24h-2.25z"/></g><g><path fill="#e4ff8b" d="M358.56 185.68h2.25v2.24h-2.24z"/></g><g><path fill="#ff938d" d="M360.8 185.68h2.25v2.24h-2.24z"/></g><g><path fill="#9a93e7" d="M347.35 183.44h2.25v2.24h-2.25z"/></g><g><path fill="#b8ffae" d="M349.6 183.44h2.24v2.24h-2.24z"/></g><g><path fill="#ffffb5" d="M351.84 183.44h2.24v2.24h-2.24z"/></g><g><path fill="#9dff95" d="M354.08 183.44h2.24v2.24h-2.24z"/></g><g><path fill="#a2beff" d="M356.32 183.44h2.25v2.24h-2.25z"/></g><g><path fill="#fff" d="M358.56 183.44h2.25v2.24h-2.24z"/></g><g><path fill="#ffaefe" d="M360.8 183.44h2.25v2.24h-2.24z"/></g><g><path fill="#cee1ff" d="M347.35 181.2h2.25v2.24h-2.25z"/></g><g><path fill="#ffff9b" d="M349.6 181.2h2.24v2.24h-2.24z"/></g><g><path fill="#ffffb5" d="M351.84 181.2h2.24v2.24h-2.24z"/></g><g><path fill="#ffffde" d="M354.08 181.2h2.24v2.24h-2.24z"/></g><g><path fill="#fffdff" d="M356.32 181.2h2.25v2.24h-2.25z"/></g><g><path fill="#d3b9ab" d="M358.56 181.2h2.25v2.24h-2.24z"/></g><g><path fill="#ffffa8" d="M360.8 181.2h2.25v2.24h-2.24z"/></g><g><path fill="#b5e8bd" d="M347.35 178.96h2.25v2.24h-2.25z"/></g><g><path fill="#fffff2" d="M349.6 178.96h2.24v2.24h-2.24z"/></g><g><path fill="#aeffe2" d="M351.84 178.96h2.24v2.24h-2.24z"/></g><g><path fill="#d6ffe8" d="M354.08 178.96h2.24v2.24h-2.24z"/></g><g><path fill="#b5ffe6" d="M356.32 178.96h2.25v2.24h-2.25z"/></g><g><path fill="#e7e8ff" d="M358.56 178.96h2.25v2.24h-2.24z"/></g><g><path fill="#ecffa1" d="M360.8 178.96h2.25v2.24h-2.24z"/></g><g><path fill="#d6ffed" d="M347.35 176.7h2.25v2.25h-2.25z"/></g><g><path fill="#ffffd6" d="M349.6 176.7h2.24v2.25h-2.24z"/></g><g><path fill="#ffa3e3" d="M351.84 176.7h2.24v2.25h-2.24z"/></g><g><path fill="#c9ffca" d="M354.08 176.7h2.24v2.25h-2.24z"/></g><g><path fill="#c0ffb8" d="M356.32 176.7h2.25v2.25h-2.25z"/></g><g><path fill="#dbffad" d="M358.56 176.7h2.25v2.25h-2.24z"/></g><g><path fill="#ffffa6" d="M360.8 176.7h2.25v2.25h-2.24z"/></g><g><path fill="#a2a8ff" d="M347.35 174.47h2.25v2.24h-2.25z"/></g><g><path fill="#c6ffbf" d="M349.6 174.47h2.24v2.24h-2.24z"/></g><g><path fill="#b5ffd5" d="M351.84 174.47h2.24v2.24h-2.24z"/></g><g><path fill="#fffff8" d="M354.08 174.47h2.24v2.24h-2.24z"/></g><g><path fill="#fff" d="M356.32 174.47h2.25v2.24h-2.25z"/></g><g><path fill="#fff" d="M358.56 174.47h2.25v2.24h-2.24z"/></g><g><path fill="#fff" d="M360.8 174.47h2.25v2.24h-2.24z"/></g><g><path fill="#fff" d="M347.35 172.23h2.25v2.24h-2.25z"/></g><g><path fill="#ded1ff" d="M349.6 172.23h2.24v2.24h-2.24z"/></g><g><path fill="#ffdce6" d="M351.84 172.23h2.24v2.24h-2.24z"/></g><g><path fill="#e5ffaa" d="M354.08 172.23h2.24v2.24h-2.24z"/></g><g><path fill="#b6d7ff" d="M356.32 172.23h2.25v2.24h-2.25z"/></g><g><path fill="#ffceff" d="M358.56 172.23h2.25v2.24h-2.24z"/></g><g><path fill="#c1ffff" d="M360.8 172.23h2.25v2.24h-2.24z"/></g><g><path fill="#ffdfa8" d="M347.35 170h2.25v2.23h-2.25z"/></g><g><path fill="#d0ffe3" d="M349.6 170h2.24v2.23h-2.24z"/></g><g><path fill="#f1fbff" d="M351.84 170h2.24v2.23h-2.24z"/></g><g><path fill="#ffc4d3" d="M354.08 170h2.24v2.23h-2.24z"/></g><g><path fill="#ffffc0" d="M356.32 170h2.25v2.23h-2.25z"/></g><g><path fill="#beffb5" d="M358.56 170h2.25v2.23h-2.24z"/></g><g><path fill="#ffedf1" d="M360.8 170h2.25v2.23h-2.24z"/></g><g><path fill="#b8fffa" d="M347.35 167.74h2.25v2.24h-2.25z"/></g><g><path fill="#96c9ff" d="M349.6 167.74h2.24v2.24h-2.24z"/></g><g><path fill="#ffaba8" d="M351.84 167.74h2.24v2.24h-2.24z"/></g><g><path fill="#9bffb2" d="M354.08 167.74h2.24v2.24h-2.24z"/></g><g><path fill="#d3e7fb" d="M356.32 167.74h2.25v2.24h-2.25z"/></g><g><path fill="#ffcdb5" d="M358.56 167.74h2.25v2.24h-2.24z"/></g><g><path fill="#d3cab0" d="M360.8 167.74h2.25v2.24h-2.24z"/></g><g><path fill="#ffedbd" d="M347.35 165.5h2.25v2.24h-2.25z"/></g><g><path fill="#d4ffb7" d="M349.6 165.5h2.24v2.24h-2.24z"/></g><g><path fill="#dffcbb" d="M351.84 165.5h2.24v2.24h-2.24z"/></g><g><path fill="#ccfff6" d="M354.08 165.5h2.24v2.24h-2.24z"/></g><g><path fill="#b0ffff" d="M356.32 165.5h2.25v2.24h-2.25z"/></g><g><path fill="#eac0ef" d="M358.56 165.5h2.25v2.24h-2.24z"/></g><g><path fill="#ffe4ef" d="M360.8 165.5h2.25v2.24h-2.24z"/></g><g><path fill="#280d7c" d="M349.6 165.5h-2.25l1.6-.64.65-.43v1.07z"/></g><g><path fill="#ffaba4" d="M351.84 165.5h-2.24v-1.07l2.24-1.17v2.24z"/></g><g><path fill="#a2ffd0" d="M351.84 163.26h2.24v2.24h-2.24z"/></g><g><path fill="#ffa2c7" d="M354.08 163.26h2.24v2.24h-2.24z"/></g><g><path fill="#ffb7ff" d="M356.32 163.26h2.25v2.24h-2.25z"/></g><g><path fill="#8bd4ba" d="M358.56 163.26h2.25v2.24h-2.24z"/></g><g><path fill="#aec4ef" d="M360.8 163.26h2.25v2.24h-2.24z"/></g><g><path fill="#e77a8a" d="M345.1 196.9l-1.1-1.13-1.13-1.12h2.24v2.25z"/></g><g><path fill="#a9e885" d="M345.1 194.65h2.25v2.24h-2.24z"/></g><g><path fill="#eae7cd" d="M354.08 163.26h-2.24l2.24-1.02v1.02z"/></g><g><path fill="#ffe0ff" d="M356.32 163.26h-2.24v-1.02l2.24-.72v1.74z"/></g><g><path fill="#dbffff" d="M356.32 161h2.25v2.26h-2.25z"/></g><g><path fill="#ffeb98" d="M358.56 161h2.25v2.26h-2.24z"/></g><g><path fill="#ffb3ff" d="M360.8 161h2.25v2.26h-2.24z"/></g><g><path fill="#82d393" d="M342.87 192.4h2.24v2.25h-2.23z"/></g><g><path fill="#87fbff" d="M345.1 192.4h2.25v2.25h-2.24z"/></g><g><path fill="#6affa7" d="M342.87 190.17h2.24v2.24h-2.23z"/></g><g><path fill="#5eac95" d="M345.1 190.17h2.25v2.24h-2.24z"/></g><g><path fill="#80ffc3" d="M342.87 187.93h2.24v2.24h-2.23z"/></g><g><path fill="#c7efe3" d="M345.1 187.93h2.25v2.24h-2.24z"/></g><g><path fill="#4861ff" d="M342.87 185.68h2.24v2.24h-2.23z"/></g><g><path fill="#76b76e" d="M345.1 185.68h2.25v2.24h-2.24z"/></g><g><path fill="#73ffcd" d="M342.87 183.44h2.24v2.24h-2.23z"/></g><g><path fill="#89ffff" d="M345.1 183.44h2.25v2.24h-2.24z"/></g><g><path fill="#ff8474" d="M342.87 181.2h2.24v2.24h-2.23z"/></g><g><path fill="#ffb796" d="M345.1 181.2h2.25v2.24h-2.24z"/></g><g><path fill="#7cffc8" d="M342.87 178.96h2.24v2.24h-2.23z"/></g><g><path fill="#9ec0da" d="M345.1 178.96h2.25v2.24h-2.24z"/></g><g><path fill="#e59ee1" d="M342.87 176.7h2.24v2.25h-2.23z"/></g><g><path fill="#ff8ee7" d="M345.1 176.7h2.25v2.25h-2.24z"/></g><g><path fill="#a5ffff" d="M342.87 174.47h2.24v2.24h-2.23z"/></g><g><path fill="#e797d7" d="M345.1 174.47h2.25v2.24h-2.24z"/></g><g><path fill="#aeffad" d="M342.87 172.23h2.24v2.24h-2.23z"/></g><g><path fill="#a29b98" d="M345.1 172.23h2.25v2.24h-2.24z"/></g><g><path fill="#f1f4ff" d="M342.87 170h2.24v2.23h-2.23z"/></g><g><path fill="#ffffc2" d="M345.1 170h2.25v2.23h-2.24z"/></g><g><path fill="#ffb6ff" d="M345.1 170h-1.4l.7-.93.7-.9v1.82z"/></g><g><path fill="#ffe3ff" d="M345.1 167.74h2.25v2.24h-2.24z"/></g><g><path fill="#fff8ff" d="M347.35 167.74h-2.24l1.13-1.12 1.12-1.12v2.24z"/></g><g><path fill="#5d1481" d="M340.63 187.93h-.55l-.5-2.25h1.05v2.25z"/></g><g><path fill="#a3d9ff" d="M340.63 185.68h2.24v2.24h-2.25z"/></g><g><path fill="#053800" d="M340.63 185.68h-1.05l-.08-2.24h1.13v2.24z"/></g><g><path fill="#ff8388" d="M340.63 183.44h2.24v2.24h-2.25z"/></g><g><path fill="#001600" d="M339.5 181.2h1.13v2.24h-1.13z"/></g><g><path fill="#fff3bf" d="M340.63 181.2h2.24v2.24h-2.25z"/></g><g><path fill="#00610d" d="M339.5 178.96h1.13v2.24h-1.13z"/></g><g><path fill="#cdf4ff" d="M340.63 178.96h2.24v2.24h-2.25z"/></g><g><path fill="#1c0010" d="M339.85 176.7h.77v2.25h-.77z"/></g><g><path fill="#a0fec4" d="M340.63 176.7h2.24v2.25h-2.25z"/></g><g><path fill="#a9eea3" d="M340.63 174.47h2.24v2.24h-2.25z"/></g><g><path fill="#fff7ff" d="M341.16 172.23h1.7v2.24h-1.7z"/></g><g><path fill="#100053" d="M342.87 194.65l-.8-1.46-.3-.8h1.1v2.25z"/></g><g><path fill="#ffc8aa" d="M342.87 192.4l-1.52-.7-.73-1.53h2.25v2.24z"/></g><g><path fill="#ffcc94" d="M340.63 187.93h2.24v2.24h-2.25z"/></g><g><path fill="#b068ab" d="M347.35 199.14l-2.24-1.64v-.6h2.25v2.24z"/></g></g><g><linearGradient x1="368.388" x2="350.091" y1="186.865" y2="186.865" gradientUnits="userSpaceOnUse"><stop offset="0" stop-color="#fff"/><stop offset=".29" stop-color="#FEFDFD"/><stop offset=".417" stop-color="#FCF6F6"/><stop offset=".512" stop-color="#F7E9E9"/><stop offset=".591" stop-color="#F0D8D7"/><stop offset=".661" stop-color="#E8C1C0"/><stop offset=".723" stop-color="#DDA5A3"/><stop offset=".781" stop-color="#D08381"/><stop offset=".834" stop-color="#C15C59"/><stop offset=".882" stop-color="#B1312E"/><stop offset=".916" stop-color="#A40E0A"/><stop offset="1"/></linearGradient><path fill="url(#d)" stroke="#000" stroke-width=".954" d="M349.64 192.1h11.52v6.18c0 .25.2.45.45.45.13 0 .24-.05.32-.14l.02-.02c2.33-2.27 12.27-11.08 12.27-11.08.36-.35.36-.92 0-1.27l-12.28-11.1c-.07-.08-.18-.13-.3-.13-.26 0-.46.2-.46.45v6.17h-11.52"/><path fill="none" stroke="#ed2728" stroke-width=".954" d="M349.64 182.37h12.2s.07-.02.07-.06c0-.6 0-4.95 0-6.1 0-.02.05-.04.07-.02 1.18 1.06 11 9.96 11.7 10.57.02.03.04.1.04.12 0 .05 0 .07-.02.1-.3.27-8.8 7.8-11.7 10.53-.02.02-.07 0-.07-.04 0-1.23 0-5.44 0-6.03 0-.05-.06-.07-.06-.07h-12.2"/></g><circle cx="361.365" cy="182.864" r="21.871" fill="none" stroke="#192333" stroke-width=".954"/><g><linearGradient x1="349.746" x2="366.519" y1="186.865" y2="186.865" gradientUnits="userSpaceOnUse"><stop offset="0" stop-color="#fff"/><stop offset=".397" stop-color="#E86712"/><stop offset=".772" stop-color="#D52E0C"/><stop offset="1" stop-color="#CB1009"/></linearGradient><path fill="url(#e)" stroke="#590b08" stroke-width=".954" d="M349.64 192.1h11.52v6.18c0 .25.2.45.45.45.13 0 .24-.05.32-.14l.02-.02c2.33-2.27 12.27-11.08 12.27-11.08.36-.35.36-.92 0-1.27l-12.28-11.1c-.07-.08-.18-.13-.3-.13-.26 0-.46.2-.46.45v6.17h-11.52"/><path fill="none" stroke="#ff2825" stroke-width=".954" d="M349.64 182.37h12.2s.07-.02.07-.06c0-.6 0-4.95 0-6.1 0-.02.05-.04.07-.02 1.18 1.06 11 9.96 11.7 10.57.02.03.04.1.04.12 0 .05 0 .07-.02.1-.3.27-8.8 7.8-11.7 10.53-.02.02-.07 0-.07-.04 0-1.23 0-5.44 0-6.03 0-.05-.06-.07-.06-.07h-12.2"/></g></g></svg>