<svg xmlns="http://www.w3.org/2000/svg" width="48" height="48" xmlns:xlink="http://www.w3.org/1999/xlink"><defs><linearGradient id="b"><stop offset="0" stop-color="#646661"/><stop offset="1" stop-color="#373836"/></linearGradient><linearGradient id="c" x1="328.675" x2="347.951" y1="480.227" y2="509.46" gradientUnits="userSpaceOnUse"><stop offset=".006" stop-color="#F6F8F9"/><stop offset=".528" stop-color="#DBE2E6"/><stop offset="1" stop-color="#B8C0CA"/></linearGradient><linearGradient id="d" x1="329.464" x2="346" y1="482.165" y2="506.987" gradientUnits="userSpaceOnUse"><stop offset="0" stop-color="#ECEEF0"/><stop offset=".506" stop-color="#BCC2CA"/><stop offset="1" stop-color="#A4ADB8"/></linearGradient><linearGradient id="a" x1="328.543" x2="336.869" y1="480.264" y2="500.872" gradientUnits="userSpaceOnUse"><stop offset=".006" stop-color="#BCC2CA"/><stop offset="1" stop-color="#848d98"/></linearGradient><linearGradient id="f" x1="316.16" x2="334.601" y1="484.642" y2="517.181" gradientUnits="userSpaceOnUse"><stop offset=".006" stop-color="#F6F8F9"/><stop offset=".528" stop-color="#DBE2E6"/><stop offset="1" stop-color="#B8C0CA"/></linearGradient><linearGradient id="g" x1="316.182" x2="334.238" y1="485.529" y2="517.128" gradientUnits="userSpaceOnUse"><stop offset=".006" stop-color="#fff"/><stop offset=".506" stop-color="#C3CAD4"/><stop offset="1" stop-color="#9FA8B2"/></linearGradient><linearGradient x1="314.076" x2="323.125" y1="483.576" y2="504.659" gradientUnits="userSpaceOnUse"><stop offset=".006" stop-color="#BCC2CA"/><stop offset="1" stop-color="#777E85"/></linearGradient><linearGradient id="i" x1="304.333" x2="320.845" y1="491.85" y2="525.835" gradientUnits="userSpaceOnUse"><stop offset="0" stop-color="#fff"/><stop offset=".528" stop-color="#EEF2F2"/><stop offset="1" stop-color="#DBDFE0"/></linearGradient><linearGradient id="j" x1="303.556" x2="320.244" y1="490.728" y2="525.883" gradientUnits="userSpaceOnUse"><stop offset=".006" stop-color="#fff"/><stop offset=".506" stop-color="#C3CAD4"/><stop offset="1" stop-color="#9FA8B2"/></linearGradient><linearGradient x1="300.064" x2="311.712" y1="488.223" y2="516.815" gradientUnits="userSpaceOnUse"><stop offset=".006" stop-color="#BCC2CA"/><stop offset="1" stop-color="#505559"/></linearGradient><linearGradient x1="328.543" x2="336.869" y1="480.264" y2="500.872" xlink:href="#a" gradientUnits="userSpaceOnUse"/><linearGradient x1="328.543" x2="336.869" y1="480.264" y2="500.872" gradientUnits="userSpaceOnUse"><stop offset=".006" stop-color="#BCC2CA"/><stop offset="1" stop-color="#959DA6"/></linearGradient><linearGradient id="k" x1="328.543" x2="336.869" y1="480.264" y2="500.872" xlink:href="#a" gradientUnits="userSpaceOnUse" gradientTransform="matrix(1.009 .22 0 1.009 -331.001 -544.265)"/><linearGradient x1="328.543" x2="336.869" y1="480.264" y2="500.872" xlink:href="#a" gradientUnits="userSpaceOnUse"/><linearGradient x1="328.543" x2="336.869" y1="480.264" y2="500.872" gradientUnits="userSpaceOnUse"><stop offset=".006" stop-color="#BCC2CA"/><stop offset="1" stop-color="#959DA6"/></linearGradient><linearGradient id="e" x1="328.543" x2="336.869" y1="480.264" y2="500.872" xlink:href="#a" gradientUnits="userSpaceOnUse" gradientTransform="matrix(1.009 0 0 1.009 -304.481 -484.417)"/><radialGradient cx="324.13" cy="504.364" r="5.836" xlink:href="#b" gradientUnits="userSpaceOnUse" gradientTransform="matrix(1 0 0 1.619 0 -312.236)" fx="324.13" fy="504.364"/><linearGradient x1="314.076" x2="323.125" y1="483.576" y2="504.659" fill="url(#radialGradient9782)" gradientUnits="userSpaceOnUse"><stop fill="url(#radialGradient9782)" offset=".006" stop-color="#BCC2CA"/><stop fill="url(#radialGradient9782)" offset="1" stop-color="#777E85"/></linearGradient><radialGradient id="h" cx="324.13" cy="504.364" r="5.836" xlink:href="#b" gradientUnits="userSpaceOnUse" gradientTransform="matrix(1.009 0 0 1.634 -304.481 -799.506)" fx="324.13" fy="504.364"/></defs><g><path fill="none" stroke="#000" stroke-width=".25" d="M46.26 5.35v25.4"/><path fill="url(#c)" stroke="#888a85" stroke-width=".793" d="M347.56 510.5l-20-8.44v-21.5l20 4.77v25.18z" transform="matrix(1.009 0 0 1.009 -304.481 -484.417)"/><path fill="url(#d)" d="M329.13 482.93v17.8l16.32 6.62V487.1l-16.32-4.17z" transform="matrix(1.009 0 0 1.009 -304.481 -484.417)"/><path fill="url(#e)" d="M40.58 26.13c.07-.22.04-.57-.1-.9l-2.58-6.25c-.16-.65-.43-1.35-.82-1.5l-.48-.17c.9-.28 1.5-1.28 1.5-2.7 0-2.06-1.25-4.2-2.8-4.8-1.55-.57-2.8.6-2.8 2.66 0 1.43.6 2.9 1.5 3.86l-.13-.05c-.32-.12-.64.14-.82.58-.06.04.04-.07 0 0l-2.78 4.5c-.1.16-.13.35-.13.54l1.7.68 1.52-2.46v3.08l4.22 1.72v-2.87L39 25.5l1.58.63z"/><path fill="none" stroke="#000" stroke-width=".25" d="M18.93 17.78V47.6"/><path fill="none" stroke="#000" stroke-width=".25" d="M33 11.38v27.54"/><path fill="url(#f)" stroke="#2e3436" stroke-width=".793" d="M334.43 518.6l-19.37-10.33v-23l19.37 6.04v27.3z" transform="matrix(1.009 0 0 1.009 -304.481 -484.417)"/><path fill="url(#g)" d="M316.57 506.95l15.8 8.1v-21.93l-15.8-5.25v19.08z" transform="matrix(1.009 0 0 1.009 -304.481 -484.417)"/><path fill="url(#h)" d="M28.5 34.1c-.02-.16-.07-.32-.13-.5l-2.9-7.47c-.18-.76-.5-1.6-.93-1.83L24 24c1-.14 1.7-1.17 1.7-2.78 0-2.3-1.42-4.93-3.16-5.87-1.75-.93-3.17.18-3.17 2.48 0 1.6.7 3.38 1.7 4.62l-.14-.08c-.36-.2-.73.04-.93.5-.06.04.05-.07 0 0l-3.12 4.6c-.1.15-.16.36-.16.58l1.96 1 1.67-2.44.02 3.32 4.73 2.43v-2.82l1.37 3.52 2.03 1.04z"/><path fill="url(#i)" stroke="#888a85" stroke-width=".793" d="M320.48 527.2l-18.36-12.48v-24.6l18.36 7.53v29.55z" transform="matrix(1.009 0 0 1.009 -304.481 -484.417)"/><path fill="url(#j)" d="M318.5 499.5v23.7l-14.96-9.8V493l14.96 6.5z" transform="matrix(1.009 0 0 1.009 -304.481 -484.417)"/><path fill="url(#k)" d="M14.06 41.5c.07-.2.04-.55-.1-.92l-2.58-6.8c-.16-.7-.43-1.44-.82-1.68l-.48-.28c.9-.1 1.5-.96 1.5-2.4 0-2.04-1.25-4.45-2.8-5.38-1.55-.92-2.8 0-2.8 2.04 0 1.43.6 3.03 1.5 4.2l-.13-.1c-.32-.18-.64 0-.82.4-.06.04.04-.05 0 0l-2.78 3.9c-.1.15-.13.32-.14.5l1.72 1.08 1.52-2.13V37l4.22 2.64v-2.86l1.43 3.75 1.56.98z"/></g></svg>