<svg xmlns="http://www.w3.org/2000/svg" width="48" height="48"><g><path fill="#eeeeec" fill-rule="evenodd" d="M12.18 9.17l5.2-2.73 6.45 1.74-5 2.95-6.65-1.96z"/><path fill="#eeeeec" fill-rule="evenodd" d="M6.67 14l5.8-3.13 4.5 1.43-3.73 3.95L6.67 14z"/><path fill="#eeeeec" fill-rule="evenodd" d="M.76 20.55l6.43-3.78 4.52 1.75-4.34 4.72-6.62-2.7z"/><path fill="none" d="M23.77 7.44l4.25-2.52 6.7 1.65-4.03 2.78-6.93-1.9z"/><path fill="#eeeeec" fill-rule="evenodd" d="M25.87 12.3l4.6 1.48-4.55 3.38-.05-4.86z" overflow="visible" enable-background="accumulate"/><path fill="#eeeeec" fill-rule="evenodd" d="M23.77 7.44l4.25-2.52 6.7 1.65-4.03 2.78-6.93-1.9z"/><path fill="#eeeeec" fill-rule="evenodd" d="M7.03 20.1l6.42-3.94 7.4 2.57-6.2 4.34-7.62-2.96z"/><path fill="#babdb6" fill-rule="evenodd" d="M.65 20.55l6.78 2.7-.4-3.1 7.6 2.87.96 10.86-13.5-6.3-1.45-7.03z"/><path fill="#babdb6" fill-rule="evenodd" d="M7.12 16.73L6.7 14l6.54 2.3-2.82 1.73-3.3-1.3z" overflow="visible" enable-background="accumulate"/><path fill="#babdb6" fill-rule="evenodd" d="M12.42 10.82l-.1-1.56 5.4 1.48-2.1 1.13-3.2-1.05z" overflow="visible" enable-background="accumulate"/><path fill="#babdb6" fill-rule="evenodd" d="M13.33 16.12l-.13-2.78 7.55 2.4.05 2.94-7.47-2.56z" overflow="visible" enable-background="accumulate"/><path fill="#888a85" fill-rule="evenodd" d="M15.46 33.8l18.62-15.9.6-11.33-4.16 2.82-.04 4.42-4.56 3.34.04-5-5.3 3.6.1 3.05-6.17 4.35.86 10.64z"/><path fill="#888a85" fill-rule="evenodd" d="M23.8 8.22l.08 3.26-3.74-1.13 3.65-2.13z" overflow="visible" enable-background="accumulate"/><path fill="none" stroke="#000" d="M2.04 27.58l13.55 6.3 18.48-16.02.6-11.3-6.8-1.6-4.22 2.52.04.83-6.33-1.82-5.08 2.8.12 1.67L6.72 14l.4 2.77L.7 20.64l1.34 6.94z"/><path fill="#babdb6" fill-rule="evenodd" d="M23.83 11.65l-.08-4.2 6.86 1.9-.12 4.43-6.65-2.13z" overflow="visible" enable-background="accumulate"/><path fill="#eeeeec" fill-rule="evenodd" d="M13.2 13.26L18.83 10l7.22 2.13-5.38 3.7-7.5-2.57z"/><path fill="none" stroke="#000" stroke-width=".5" d="M7.87 30.1c0-.32-.87-10.04-.87-10.04l6.33-3.87-.25-2.93 5.78-3.43 1.33.45 3.1-1.86"/><path fill="none" stroke="#000" stroke-width=".5" d="M15.56 33.65c.06-.25-.9-10.65-.9-10.65l6.23-4.4-.27-2.98 5.4-3.5.07 4.83 4.44-3.1V9.2l3.94-2.47" stroke-linejoin="bevel"/><path fill="none" stroke="#000" stroke-width=".5" d="M7.05 16.76l3.55 1.34"/><path fill="none" stroke="#000" stroke-width=".5" d="M12.44 10.92l3.24 1.02"/><path fill="none" stroke="#000" stroke-width=".5" d="M23.62 7.43l.2 4.13"/><path fill="none" stroke="#000" stroke-width=".5" d="M13.33 16.2l7.5 2.47"/><path fill="none" stroke="#000" stroke-width=".5" d="M26.17 12.44l4.32 1.34"/><path fill="none" stroke="#4e4e4e" stroke-width=".5" d="M20.9 18.6l.3 10.4"/><path fill="none" stroke="#4e4e4e" stroke-width=".5" d="M26.1 16.95v7.68"/><path fill="none" stroke="#4e4e4e" stroke-width=".5" d="M30.6 13.7l-.2 7.25"/><path fill="#d3d7cf" fill-rule="evenodd" d="M15.5 33.97l5.83-5.08 7.5 3.23-5.53 5.46-7.8-3.63z"/><path fill="#babdb6" fill-rule="evenodd" d="M21.4 28.9l4.57-4.2 7.43 2.8-4.64 4.75-7.36-3.36z"/><path fill="#888a85" fill-rule="evenodd" d="M25.97 24.7l4.38-3.8 7.05 2.6-4.13 4.06-7.3-2.86z"/><path fill="#555753" fill-rule="evenodd" d="M30.22 20.95l3.8-3.1 6.87 2.1-3.76 3.67-6.92-2.67z"/><path fill="#babdb6" fill-rule="evenodd" d="M22.83 37.58l5.54-5.54L37 35.57l-5.13 5.95-9.04-3.94z"/><path fill="#888a85" fill-rule="evenodd" d="M28.44 32.04l4.3-4.57 8.5 3.05-4.3 5.2-8.5-3.68z"/><path fill="#555753" fill-rule="evenodd" d="M32.74 27.47l4.15-4.15 8.04 2.84-3.84 4.43-8.36-3.13z"/><path fill="#2e3436" fill-rule="evenodd" d="M36.76 23.4L40.4 20l7.77 2.28-3.5 4.02-7.9-2.9z"/><path fill="none" stroke="#000" stroke-width=".5" d="M23.4 37.48l17.28-17.45"/><path fill="none" stroke="#000" stroke-width=".5" d="M21.27 29l15.54 6.4"/><path fill="none" stroke="#000" stroke-width=".5" d="M26.22 24.9l14.63 5.46"/><path fill="none" stroke="#000" stroke-width=".5" d="M30.4 21.16l14.23 4.9"/><path fill="none" stroke="#000" d="M15.6 33.8l18.48-15.9 13.85 4.34L32 41.4l-16.4-7.6z"/></g></svg>