<svg xmlns="http://www.w3.org/2000/svg" width="48" height="48" xmlns:xlink="http://www.w3.org/1999/xlink"><defs><linearGradient id="c" x1="278.053" x2="345.854" y1="582.148" y2="639.101" gradientUnits="userSpaceOnUse"><stop offset="0" stop-color="#fff"/><stop offset="1" stop-color="#B0BAC2"/></linearGradient><linearGradient id="a" x1="294.852" x2="516.095" y1="598.32" y2="775.181" gradientUnits="userSpaceOnUse"><stop offset="0" stop-color="#fff"/><stop offset="1" stop-color="#A1A8B3"/></linearGradient><linearGradient id="d" x1="317.765" x2="317.841" y1="599.984" y2="616.2" gradientUnits="userSpaceOnUse" gradientTransform="matrix(1.025 0 0 1.025 -295.348 -602.952)"><stop offset=".006" stop-color="#DB9F3E"/><stop offset="1" stop-color="#9E671C"/></linearGradient><radialGradient id="e" cx="297.758" cy="610.812" r="23.535" gradientUnits="userSpaceOnUse" fy="610.812" fx="297.758"><stop offset="0" stop-color="#E5A845"/><stop offset="1" stop-color="#8F5813"/></radialGradient><radialGradient id="f" cx="310.666" cy="626.915" r="22.331" gradientUnits="userSpaceOnUse" fy="626.915" fx="310.666"><stop offset="0" stop-color="#A66C14"/><stop offset="1" stop-color="#804E0E"/></radialGradient><radialGradient id="g" cx="300.419" cy="619.895" r="18.13" gradientUnits="userSpaceOnUse" fy="619.895" fx="300.419"><stop offset="0" stop-color="#A66C14"/><stop offset="1" stop-color="#804E0E"/></radialGradient><radialGradient id="h" cx="311.459" cy="613" r="22.235" gradientUnits="userSpaceOnUse" fy="613" fx="311.459"><stop offset="0" stop-color="#A66C14"/><stop offset="1" stop-color="#804E0E"/></radialGradient><radialGradient id="i" cx="306.821" cy="615.375" r="12.386" gradientUnits="userSpaceOnUse" fy="615.375" fx="306.821"><stop offset="0" stop-color="#A66C14"/><stop offset="1" stop-color="#804E0E"/></radialGradient><radialGradient id="j" cx="318.118" cy="614.606" r="11.591" gradientUnits="userSpaceOnUse" fy="614.606" fx="318.118"><stop offset="0" stop-color="#A66C14"/><stop offset="1" stop-color="#804E0E"/></radialGradient><linearGradient id="k" x1="310.594" x2="316.478" y1="595.635" y2="616.851" gradientUnits="userSpaceOnUse"><stop offset=".006" stop-color="#DB9F3E"/><stop offset="1" stop-color="#9E671C"/></linearGradient><radialGradient id="l" cx="311.629" cy="602.25" r="17.361" gradientUnits="userSpaceOnUse" fy="602.25" fx="311.629"><stop offset="0" stop-color="#A66C14"/><stop offset="1" stop-color="#804E0E"/></radialGradient><linearGradient id="m" x1="312.334" x2="318.595" y1="598.782" y2="599.913" gradientUnits="userSpaceOnUse" gradientTransform="matrix(1.025 0 0 1.025 -295.348 -602.952)"><stop offset=".006" stop-color="#D29539"/><stop offset=".573" stop-color="#BA7F2C"/><stop offset=".725" stop-color="#BA802D"/><stop offset="1" stop-color="#D4983B"/></linearGradient><radialGradient id="n" cx="319.547" cy="617.363" r="16.443" gradientUnits="userSpaceOnUse" fy="617.363" fx="319.547"><stop offset="0" stop-color="#A66C14"/><stop offset="1" stop-color="#804E0E"/></radialGradient><radialGradient id="o" cx="305.164" cy="618.919" r="8.364" gradientUnits="userSpaceOnUse" fy="618.919" fx="305.164"><stop offset="0" stop-color="#A66C14"/><stop offset="1" stop-color="#73460E"/></radialGradient><radialGradient id="p" cx="307.613" cy="617.016" r="16.386" gradientUnits="userSpaceOnUse" fy="617.016" fx="307.613"><stop offset="0" stop-color="#A66C14"/><stop offset="1" stop-color="#804E0E"/></radialGradient><radialGradient id="q" cx="307.575" cy="612.472" r="10.746" gradientUnits="userSpaceOnUse" fy="612.472" fx="307.575"><stop offset="0" stop-color="#A66C14"/><stop offset="1" stop-color="#804E0E"/></radialGradient><radialGradient id="r" cx="313.911" cy="617.412" r="5.654" gradientUnits="userSpaceOnUse" fy="617.412" fx="313.911"><stop offset="0" stop-color="#A66C14"/><stop offset="1" stop-color="#73460E"/></radialGradient><radialGradient id="s" cx="318.498" cy="608.606" r="8.968" gradientUnits="userSpaceOnUse" fy="608.606" fx="318.498" gradientTransform="matrix(1.025 0 0 1.025 -295.348 -602.952)"><stop offset="0" stop-color="#A66C14"/><stop offset="1" stop-color="#804E0E"/></radialGradient></defs><g><g><path fill="#d4d4d4" d="M44.2 1.54L8.1 2.6 7.77 48l37.8-1.13L44.2 1.54z"/><g transform="matrix(1.025 0 0 1.025 -295.348 -602.952)"><linearGradient x1="294.852" x2="516.095" y1="598.32" y2="775.181" gradientUnits="userSpaceOnUse"><stop offset="0" stop-color="#fff"/><stop offset="1" stop-color="#A1A8B3"/></linearGradient><path fill="url(#a)" stroke="#1b2433" stroke-width=".488" d="M330.18 633.07l-36.83 1-1-44.26 36.83-1 1 44.27z"/><g><defs><path id="b" d="M297.35 593.3h27.77v33.46h-27.77z"/></defs><linearGradient x1="278.053" x2="345.854" y1="582.148" y2="639.101" gradientUnits="userSpaceOnUse"><stop offset="0" stop-color="#fff"/><stop offset="1" stop-color="#B0BAC2"/></linearGradient><use width="439.993" height="635.24" fill="url(#c)" xlink:href="#b"/><clipPath><use width="439.993" height="635.24" xlink:href="#XMLID_202_"/></clipPath></g></g></g><g fill="none" stroke="#ed2728" stroke-width="2.44"><path d="M30.56 20.76L32.66 8l-.54-.18-.66-.07-.16.8c-1.28-.5-3.46-.84-5.05-1.02l.1-.6-.63-.17-.58-.05-2.1 11.7-9.82 1.25.02.37.2.1.66 12.38.56.5.82-.28-.24-9.64 4.02 2.5.38 11.78.72.63 1-.45-.07-11.75 2.2-.6.58 4.4.4.26.7-.22-.38-4.8 3.7-1.04 1 9.34.74.47.77-.33-.64-10 .2-2.5zm-1.76-.52l-4.14-1.7.7-4.8c1.45.3 3.46.9 4.55 1.33l-1.1 5.17z"/><path d="M26.25 7.53z"/></g><path fill="url(#d)" d="M28.7 20.77l2.76-13.02.66.07-2.65 13.57c-.17 1.27.1 4.75.1 4.75l.67 7.46-.73-.46-1-9.34.2-3.03z"/><path fill="url(#e)" d="M301.1 607.56l9.58-1.2.7.27.9-.13 4.03 1.65-.1.5.84.35-9.27 2.4-6.66-3.84z" transform="matrix(1.025 0 0 1.025 -295.348 -602.952)"/><path fill="url(#f)" d="M309.04 625.04l-.07-13.6-1.13.32.24 13.7.96-.42z" transform="matrix(1.025 0 0 1.025 -295.348 -602.952)"/><path fill="url(#g)" d="M301.96 620.1l-.64-12.06.7.4.5 12.15-.56-.5z" transform="matrix(1.025 0 0 1.025 -295.348 -602.952)"/><path fill="url(#h)" d="M311.13 612.98l.57 4.3.4.25-.42-4.7-.56.15z" transform="matrix(1.025 0 0 1.025 -295.348 -602.952)"/><path fill="url(#i)" d="M307 613.35l-4.9-3.04-.1-1.86 4.93 2.86.07 2.05z" transform="matrix(1.025 0 0 1.025 -295.348 -602.952)"/><path fill="url(#j)" d="M316.84 611.4l-7.86 2.17v-2.12l7.98-2.18-.12 2.12z" transform="matrix(1.025 0 0 1.025 -295.348 -602.952)"/><path fill="url(#k)" d="M311.37 606.63L313.3 595l-.56-.06-2.06 11.4.7.3z" transform="matrix(1.025 0 0 1.025 -295.348 -602.952)"/><path fill="url(#l)" d="M313.3 595l.6.15-1.63 11.35-.9.13L313.3 595z" transform="matrix(1.025 0 0 1.025 -295.348 -602.952)"/><path fill="url(#m)" d="M31.3 8.54c-1.47-.57-4.1-.93-5.7-1.08l-1.02 6.16c1.4.17 4.02.95 5.33 1.45l1.4-6.53z"/><path fill="url(#n)" d="M317.04 609.25l-9.27 2.53v-.4l9.27-2.38v.25z" transform="matrix(1.025 0 0 1.025 -295.348 -602.952)"/><path fill="none" stroke="#efce91" stroke-width=".5" d="M20.05 23.57l9.5-2.46"/><path fill="url(#o)" d="M303.3 620.33l-.22-9.4-1-.62.43 10.3.8-.27z" transform="matrix(1.025 0 0 1.025 -295.348 -602.952)"/><path fill="url(#p)" d="M307.84 611.76l.24 13.7-.7-.6-.45-13.56.9.46z" transform="matrix(1.025 0 0 1.025 -295.348 -602.952)"/><path fill="url(#q)" d="M307.77 611.78l-6.64-3.85-.02-.37 6.67 3.83v.38z" transform="matrix(1.025 0 0 1.025 -295.348 -602.952)"/><path fill="url(#r)" d="M311.68 612.82l.43 4.7.68-.2-.38-4.7-.72.2z" transform="matrix(1.025 0 0 1.025 -295.348 -602.952)"/><path fill="url(#s)" d="M29.47 21.4c-.17 1.27.1 4.75.1 4.75l.67 7.46.77-.33-.64-10 .2-2.5 2.1-12.78-.54-.18-2.6 13.28-.05.3z"/><path fill="none" stroke="#efce91" stroke-width=".5" d="M29.52 21.1l2.6-13.28"/><path fill="none" stroke="#b38b47" stroke-width=".5" d="M20.36 38l-.3-14.43"/><path fill="none" stroke="#d8b982" stroke-width=".5" d="M13.22 19.64l6.83 3.93"/></g></svg>