<svg xmlns="http://www.w3.org/2000/svg" width="48" height="48" xmlns:xlink="http://www.w3.org/1999/xlink"><defs><linearGradient><stop offset="0" stop-color="#eeeeec"/><stop offset="1" stop-color="#204a87"/></linearGradient><linearGradient id="b"><stop offset="0" stop-color="#0e57c1"/><stop offset="1" stop-color="#6d9dce"/></linearGradient><linearGradient id="c"><stop offset="0" stop-color="#e9b96e"/><stop offset="1" stop-color="#c17d11"/></linearGradient><linearGradient id="a"><stop offset="0" stop-color="#091526"/><stop offset="1" stop-color="#204a87"/></linearGradient><linearGradient id="d"><stop offset="0" stop-color="#fff"/><stop offset="1" stop-color="#2e6cc5"/></linearGradient><linearGradient id="g" x1="-1.857" x2="-1.857" y1="-.929" y2="48.643" xlink:href="#a" gradientUnits="userSpaceOnUse"/><linearGradient id="h" x1="22.714" x2="22.5" y1="10.821" y2="36.393" xlink:href="#b" gradientUnits="userSpaceOnUse" gradientTransform="matrix(-1 0 0 1 48.214 .357)"/><linearGradient id="i" x1="-1.857" x2="-1.857" y1="-.929" y2="48.643" xlink:href="#a" gradientUnits="userSpaceOnUse" gradientTransform="matrix(-1 0 0 1 48.214 .357)"/><radialGradient id="j" cx="23.714" cy="42.357" r="24.714" xlink:href="#c" fx="23.714" fy="42.357" gradientTransform="matrix(.988 0 0 .228 .708 32.686)" gradientUnits="userSpaceOnUse"/><radialGradient id="f" cx="10.357" cy="26.511" r="5.643" xlink:href="#d" fx="10.357" fy="26.511" gradientTransform="matrix(.194 -4.704 3.206 .132 -76.644 82.135)" gradientUnits="userSpaceOnUse"/><radialGradient id="e" cx="10" cy="36.672" r="14.036" xlink:href="#d" fx="10" fy="36.672" gradientTransform="matrix(1.926 .031 -.03 1.901 -8.157 -33.395)" gradientUnits="userSpaceOnUse"/></defs><g fill-rule="evenodd"><path fill="url(#e)" stroke="#204a87" d="M10.5 10.43h27.07v26.93H10.5z" color="#000" overflow="visible" enable-background="accumulate"/><path fill="#0a4eae" stroke="#0b1b34" d="M10.87 10.3L.43.3h46.43L36.7 10.56l-25.83-.28z" stroke-linejoin="bevel"/><path fill="url(#f)" stroke="url(#g)" d="M10.5 37.42l-10 9.72L.64.57l10.15 9.57-.3 27.28z" stroke-linejoin="bevel" color="#000" overflow="visible" enable-background="accumulate"/><path fill="url(#h)" stroke="url(#i)" d="M37.7 37.77l10 9.73V-.07L37.44 10.5l.28 27.27z" color="#000" stroke-linejoin="bevel" overflow="visible" enable-background="accumulate"/><path fill="url(#j)" stroke="#5e3900" d="M37.33 37.5l10.74 10H.2l10.74-10.3 26.4.3z" stroke-linejoin="bevel"/><path fill="#fce94f" stroke="#9a7e00" d="M10.57 25.43C5.6 27.86 3.8 38.13 4.43 43.3l6.28-5.87 10.44.14c.05-6.75-4.8-11.96-10.57-12.14z"/><path fill="#cdb700" d="M10.3 26.04C5.83 29.58 4.45 36.78 4.7 42.4l5.6-5.22V26.04z"/><path fill="#d3d7cf" stroke="#babdb6" d="M37 14.42c-.85 0-1.64.23-2.35.6-.63-.45-1.4-.72-2.22-.72-1.85 0-3.4 1.3-3.78 3.03-.12-.02-.25-.03-.37-.03-1.58 0-2.85 1.27-2.85 2.84 0 1.58 1.27 2.85 2.85 2.85.46 0 .9-.13 1.28-.33.43 1.66 1.92 2.9 3.72 2.9 1 0 1.9-.37 2.6-1 .35.1.73.14 1.12.14" color="#000" overflow="visible" enable-background="accumulate"/><path fill="#eeeeec" stroke="#babdb6" d="M36.93 14.16c.57.28 1.1.76 1.56 1.36.4-.24.92-.26 1.47 0 1.24.62 2.28 2.42 2.52 4.28.07.03.16.05.24.1 1.05.5 1.9 2.2 1.9 3.77 0 1.58-.85 2.43-1.9 1.9-.3-.14-.6-.4-.85-.72-.3 1.52-1.3 2.27-2.5 1.7-.65-.34-1.26-1.02-1.72-1.87-.24-.03-.5-.1-.75-.24" color="#000" overflow="visible" enable-background="accumulate"/><path fill="#d3d7cf" stroke="#babdb6" d="M28.07 2.5c-1 0-1.9.17-2.6.45-1.17-.15-2.2.02-3.3.2-.64-.2-1.4-.33-2.23-.33-1.85 0-3.4.58-3.78 1.37-.12-.02-.25-.02-.37-.02-1.6 0-2.86.57-2.86 1.28 0 .72 1.27 1.3 2.85 1.3.45 0 .88-.06 1.27-.15.43.76 1.92 1.32 3.72 1.32.98 0 1.9-.17 2.58-.45 1.18.15 2.2-.02 3.3-.2.64.2 1.4.33 2.23.33 1.86 0 3.42-.58 3.8-1.37.1 0 .24 0 .37 0 1.57 0 2.84-.56 2.84-1.27 0-.72-1.26-1.3-2.83-1.3-.46 0-.9.06-1.28.15-.45-.74-1.94-1.3-3.73-1.3z" color="#000" overflow="visible" enable-background="accumulate"/></g></svg>