<svg xmlns="http://www.w3.org/2000/svg" width="48" height="48"><defs><radialGradient id="a" cx="8.835" cy="278.839" r="9.09" gradientUnits="userSpaceOnUse" fy="278.839" fx="8.835" gradientTransform="matrix(1.1 0 0 1.1 -2.335 -277.967)"><stop offset="0" stop-color="#fff"/><stop offset=".305" stop-color="#F9B9BA"/><stop offset=".785" stop-color="#F05152"/><stop offset="1" stop-color="#ED2728"/></radialGradient><radialGradient id="b" cx="23.88" cy="-148.641" r="9.154" gradientUnits="userSpaceOnUse" gradientTransform="matrix(1.1 0 0 .876 -2.335 156.971)" fy="-148.641" fx="23.88"><stop offset="0" stop-color="#fff"/><stop offset=".283" stop-color="#DCEFC0"/><stop offset=".779" stop-color="#A1D458"/><stop offset="1" stop-color="#8AC92E"/></radialGradient><radialGradient id="c" cx="39.05" cy="276.725" r="10.94" gradientUnits="userSpaceOnUse" fy="276.725" fx="39.05" gradientTransform="matrix(1.1 0 0 1.1 -2.335 -277.967)"><stop offset="0" stop-color="#fff"/><stop offset=".685" stop-color="#9ABAD4"/><stop offset="1" stop-color="#709EC3"/></radialGradient></defs><g><path fill="none" stroke="#8f0000" stroke-width=".7" d="M14.4 41.87c0 .9-.73 1.65-1.64 1.65H2c-.9 0-1.65-.74-1.65-1.65V8.5c0-.9.74-1.64 1.65-1.64h10.76c.9 0 1.65.74 1.65 1.65v33.37z"/><path fill="url(#a)" d="M2 15.7c0 1.07 0 26.17 0 26.17h10.76s0-25.1 0-26.16c-.95 0-9.8 0-10.76 0z" opacity=".5"/><path fill="url(#b)" d="M18.6 21.03c0 .84 0 20.84 0 20.84h10.77s0-20 0-20.84c-.95 0-9.8 0-10.76 0z" opacity=".5"/><path fill="#cb1009" d="M2 25.74c0 1.03 0 16.13 0 16.13h10.76s0-15.1 0-16.13c-.95 0-9.8 0-10.76 0z"/><path fill="none" stroke="#3e801c" stroke-width=".7" d="M31.02 41.87c0 .9-.74 1.65-1.65 1.65H18.6c-.9 0-1.64-.74-1.64-1.65V8.5c0-.9.74-1.64 1.65-1.64h10.77c.9 0 1.65.74 1.65 1.65v33.37z"/><path fill="none" stroke="#224987" stroke-width=".7" d="M47.64 41.87c0 .9-.74 1.65-1.65 1.65H35.22c-.9 0-1.65-.74-1.65-1.65V8.5c0-.9.74-1.64 1.65-1.64H46c.9 0 1.64.74 1.64 1.65v33.37z"/><path fill="url(#c)" d="M35.23 11.06c0 1.06 0 30.8 0 30.8H46s0-29.74 0-30.8c-.97 0-9.82 0-10.77 0z" opacity=".5"/><path fill="#3065a0" d="M35.23 25.74c0 1.03 0 16.13 0 16.13H46s0-15.1 0-16.13c-.97 0-9.82 0-10.77 0z"/><path fill="#72bd22" d="M18.6 25.74c0 1.03 0 16.13 0 16.13h10.77s0-15.1 0-16.13c-.95 0-9.8 0-10.76 0z"/></g></svg>