<svg xmlns="http://www.w3.org/2000/svg" width="48" height="48"><defs><linearGradient id="a" x1="26.088" x2="-3.578" y1="610.246" y2="610.246" gradientUnits="userSpaceOnUse" gradientTransform="matrix(1.021 0 0 1.022 -.682 -599.129)"><stop offset="0" stop-color="#fff"/><stop offset="1" stop-color="#B8C0CA"/></linearGradient><linearGradient id="b" x1="20.624" x2="-13.156" y1="615.371" y2="603.986" gradientUnits="userSpaceOnUse" gradientTransform="matrix(1.021 0 0 1.022 -.682 -599.129)"><stop offset="0" stop-color="#fff"/><stop offset="1" stop-color="#B8C0CA"/></linearGradient><linearGradient id="c" x1="-6585.26" x2="-6599.858" y1="3283.122" y2="3278.202" gradientTransform="matrix(-1.021 0 0 -1.022 -6698.167 3376.399)" gradientUnits="userSpaceOnUse"><stop offset="0" stop-color="#fff"/><stop offset="1" stop-color="#B8C0CA"/></linearGradient><linearGradient id="d" x1="14.097" x2="37.254" y1="610.245" y2="610.245" gradientUnits="userSpaceOnUse" gradientTransform="matrix(1.021 0 0 1.022 -.682 -599.129)"><stop offset=".056" stop-color="#fff"/><stop offset=".139" stop-color="#FFFDFB"/><stop offset=".219" stop-color="#FEF6EF"/><stop offset=".3" stop-color="#FDEBDC"/><stop offset=".38" stop-color="#FBDBC0"/><stop offset=".459" stop-color="#F8C69C"/><stop offset=".538" stop-color="#F5AD71"/><stop offset=".616" stop-color="#F2903E"/><stop offset=".67" stop-color="#EF7916"/><stop offset="1" stop-color="#CB130C"/></linearGradient><linearGradient id="e" x1="13.184" x2="43.175" y1="610.233" y2="610.233" gradientUnits="userSpaceOnUse" gradientTransform="matrix(1.021 0 0 1.022 -.682 -599.129)"><stop offset=".006" stop-color="#fff"/><stop offset=".065" stop-color="#FFFDF9"/><stop offset=".142" stop-color="#FEF6E9"/><stop offset=".231" stop-color="#FDEACD"/><stop offset=".327" stop-color="#FBDBA7"/><stop offset=".429" stop-color="#F9C677"/><stop offset=".531" stop-color="#F7AF3E"/><stop offset="1" stop-color="#F12523"/></linearGradient><linearGradient id="f" x1="40.397" x2="-1.325" y1="614.61" y2="606.057" gradientUnits="userSpaceOnUse" gradientTransform="matrix(1.021 0 0 1.022 -.682 -599.129)"><stop offset="0" stop-color="#fff"/><stop offset="1" stop-color="#B8C0CA"/></linearGradient></defs><g><path d="M0 29.2v1.02h.75c.08 0 .14.06.14.13v1.07c0 .07-.07.13-.15.13H0v1.08h27.04v-1.07h-.7c-.08 0-.14-.06-.14-.13v-1.07c0-.07.06-.13.13-.13h.7v-11.7h-.7c-.08 0-.14-.06-.14-.13v-1.06c0-.07.05-.13.13-.13h.7v-1.13H0v1.13h.75c.07 0 .13.06.13.13v1.06c0 .06-.06.12-.13.12H0V29.2z"/><g><path fill="#fff" d="M2.04 18.52c-.08 0-.14-.06-.14-.13v-1.07c0-.07.06-.14.13-.13H3.8c.06 0 .12.05.12.13v1.06c0 .06-.06.12-.14.12H2.04zm0 0c-.08 0-.14-.05-.14-.13v-1.07c0-.07.06-.13.14-.13H3.8c.06 0 .12.06.12.13v1.06c0 .07-.06.13-.13.13H2.03zm3.03 0c-.07 0-.13-.05-.13-.13v-1.07c0-.07.06-.13.13-.13h1.76c.07 0 .13.06.13.13v1.06c0 .07-.06.13-.14.13H5.07zm3.04 0c-.07 0-.13-.05-.12-.13v-1.06c0-.08.05-.14.13-.14h1.76c.07 0 .13.06.13.14v1.06c0 .07-.07.13-.14.13H8.1zm3.04 0c-.07 0-.13-.05-.13-.12v-1.06c0-.08.07-.14.14-.14h1.76c.07 0 .13.06.13.13v1.07c0 .07-.06.13-.13.13h-1.76zm3.04 0c-.07 0-.13-.05-.13-.12v-1.06c0-.08.06-.14.13-.14h1.75c.08 0 .14.06.14.14v1.06c0 .07-.06.13-.14.13h-1.75zm3.04 0c-.08 0-.14-.05-.14-.12v-1.06c0-.08.06-.14.14-.14h1.75c.07 0 .13.06.13.14v1.06c0 .07-.06.13-.13.13h-1.75zm3.03 0c-.07 0-.13-.05-.13-.12v-1.06c0-.08.06-.14.13-.14H22c.08 0 .14.06.14.14v1.06c0 .07-.06.13-.13.13h-1.75zm3.04 0c-.1 0-.14-.05-.14-.12v-1.06c0-.08.05-.13.13-.14h1.74c.08 0 .14.07.13.14v1.06c0 .07-.05.13-.13.13H23.3zm1.74 11.7c.08 0 .14.07.14.15v1.06c0 .07-.06.13-.13.13H23.3c-.08 0-.14-.06-.14-.13v-1.07c0-.07.06-.13.13-.13h1.74zm-3.03 0c.08 0 .14.07.14.15v1.06c0 .07-.06.13-.13.13h-1.74c-.08 0-.14-.06-.14-.13v-1.07c0-.07.06-.13.14-.13H22zm-3.03 0c.08 0 .13.07.13.14v1.06c0 .08-.05.14-.13.14h-1.75c-.07 0-.14-.06-.13-.14v-1.06c0-.07.05-.13.12-.13h1.75zm-3.04 0c.08 0 .14.07.14.14v1.06c0 .08-.06.14-.13.14h-1.76c-.07 0-.13-.06-.13-.13v-1.07c0-.07.06-.13.13-.13h1.75zm-3.03 0c.07 0 .13.07.13.14v1.06c0 .08-.06.14-.13.14h-1.75c-.08 0-.14-.06-.14-.14v-1.06c0-.07.07-.13.15-.13h1.75zm-3.04 0c.08 0 .14.07.14.14v1.06c0 .08-.06.14-.14.14H8.1c-.06 0-.12-.06-.12-.14v-1.06c0-.07.06-.13.13-.13h1.76zm-3.03 0c.07 0 .13.07.13.14v1.06c0 .08-.06.14-.13.14H5.07c-.07 0-.13-.06-.13-.14v-1.06c0-.07.06-.14.13-.13h1.76zm-3.04 0c.06 0 .12.07.12.14v1.06c0 .08-.06.14-.13.14H2.03c-.08 0-.14-.07-.14-.14v-1.06c0-.07.06-.13.14-.13H3.8zm0 0c.06 0 .12.06.12.14v1.06c0 .07-.06.13-.13.13H2.03c-.08 0-.14-.06-.14-.13v-1.06c0-.08.06-.14.14-.14H3.8z"/></g><path d="M27.04 29.2v1.03h1.06c.08 0 .14.05.14.12v1.06c0 .08-.06.15-.14.15h-1.06v1.08h9.13v-1.08h-.7c-.08 0-.14-.06-.14-.13v-1.06c0-.08.06-.14.13-.14h.72v-11.7h-.72c-.07 0-.13-.05-.13-.13v-1.07c0-.07.06-.13.13-.13h.72v-1.14l-9.14.02v1.13h1.06c.07 0 .13.05.13.13v1.06c0 .06-.06.12-.13.12l-1.06.02V29.2z"/><g><path fill="#fff" d="M29.4 18.52c-.1 0-.15-.06-.15-.13v-1.07c0-.08.06-.14.14-.14h1.74c.07 0 .13.05.13.13v1.06c0 .06-.06.12-.13.12H29.4zm0 0c-.1 0-.15-.05-.15-.13v-1.07c0-.07.06-.13.14-.13h1.74c.07 0 .13.06.13.13v1.06c0 .07-.06.13-.13.13H29.4zm3.02 0c-.07 0-.13-.05-.13-.13v-1.07c0-.07.05-.13.12-.13h1.76c.07 0 .13.06.13.13v1.06c0 .07-.05.13-.13.13h-1.75zm3.04 0c-.08 0-.14-.05-.13-.13v-1.07c0-.07.05-.13.13-.13h-1.3c.1 0 .15.06.15.13v1.06c0 .07-.05.13-.13.13h1.3zm-1.28 11.7c.07 0 .13.07.13.14v1.06c0 .07-.05.13-.12.14h-1.75c-.08 0-.14-.07-.14-.14v-1.06c0-.07.05-.14.13-.13h1.75zm-3.04 0c.07 0 .13.07.13.14v1.06c0 .07-.06.13-.13.14H29.4c-.1 0-.15-.07-.15-.14v-1.06c0-.07.06-.14.14-.13h1.74zm0 0c.07 0 .13.06.13.14v1.06c0 .07-.06.13-.13.13H29.4c-.1 0-.15-.06-.15-.13v-1.06c0-.08.06-.14.14-.14h1.74z"/></g><path fill="#fff" d="M34.9 20.73H13.3c-.12 0-.22 0-.3 0 0 1.2 0 6.04 0 7.25.07 0 .17 0 .28 0H34.9s0 2.88 0 4.28c0 0 10.05-7.15 11.04-7.9-1-.77-11.05-7.9-11.05-7.9 0 1.38 0 4.27 0 4.27z"/><path fill="url(#a)" d="M12.2 29.2c-.12 0-.22-.1-.22-.22v-9.25c0-.13.1-.23.22-.23h13.37c.13 0 .22.1.23.22v9.26c0 .12-.1.22-.23.22H12.2z"/><path fill="url(#b)" d="M0 19.5h9.67c.12 0 .22.1.22.23v9.25c0 .12-.1.22-.23.22H0v-9.7z"/><path fill="url(#c)" d="M36.15 29.2H33.9c-.1 0-.2-.1-.2-.22v-9.26c0-.12.1-.22.2-.22h2.25v9.7z"/><path fill="url(#d)" stroke="#000" stroke-width=".43" d="M13.3 29.4h20.17v5.1c0 .2.14.33.33.33.08 0 .17-.03.23-.1l13.64-9.9c.26-.27.26-.7 0-.95l-13.64-9.9c-.06-.08-.15-.12-.24-.12-.2 0-.34.15-.34.33v5.1H13.3"/><path fill="url(#e)" d="M47.38 23.92L34 14.2c-.3-.25-.35-.12-.33.33 0 1.27 0 4.24 0 4.97-1.2 0-20.37 0-20.37 0h-1.1c-.12 0-.22.1-.22.23v9.25c0 .12.1.22.23.22h1.1s19.2 0 20.37 0c0 .8 0 4.25 0 5.27.06.24.27.08.27.08l13.44-9.77s.27-.2.27-.42c0-.22-.27-.44-.27-.44zM34.9 32.26c0-1.4 0-4.28 0-4.28H13.28c-.1 0-.2 0-.28 0 0-1.2 0-6.04 0-7.25.08 0 .18 0 .3 0h21.6s0-2.9 0-4.28c0 0 10.05 7.14 11.04 7.9-1 .76-11.04 7.9-11.04 7.9z"/><path fill="url(#f)" d="M12.2 29.2c-.12 0-.22-.1-.22-.22v-9.24c0-.12.1-.22.22-.22h13.35c.12 0 .22.1.22.22v9.24c0 .12-.1.22-.22.22H12.2z"/></g></svg>