<svg xmlns="http://www.w3.org/2000/svg" width="48" height="48" xmlns:xlink="http://www.w3.org/1999/xlink"><defs><linearGradient id="v" x1="-2238.106" x2="-2226.048" y1="799.509" y2="850.939" gradientTransform="matrix(.372 .573 -.573 .372 1333.632 1009.495)" gradientUnits="userSpaceOnUse"><stop offset="0" stop-color="#fff"/><stop offset="1" stop-color="#B8C0CA"/></linearGradient><linearGradient id="w" x1="45.409" x2="3.606" y1="524.394" y2="515.824" gradientUnits="userSpaceOnUse" gradientTransform="matrix(.642 -.234 .234 .642 -109.485 -294.563)"><stop offset="0" stop-color="#fff"/><stop offset="1" stop-color="#B8C0CA"/></linearGradient><linearGradient id="x" x1="-2251.493" x2="-2239.436" y1="802.65" y2="854.077" gradientTransform="matrix(.372 .573 -.573 .372 1333.632 1009.495)" gradientUnits="userSpaceOnUse"><stop offset="0" stop-color="#fff"/><stop offset="1" stop-color="#B8C0CA"/></linearGradient><radialGradient cx="294.624" cy="80.627" r="48.777" fx="294.624" fy="80.627" gradientUnits="userSpaceOnUse"><stop offset="0" stop-color="#BAD1D7"/><stop offset=".826" stop-color="#6D7580"/><stop offset="1" stop-color="#41454C"/></radialGradient><radialGradient cx="257.459" cy="35.376" r="68.717" fx="257.459" fy="35.376" gradientUnits="userSpaceOnUse"><stop offset="0" stop-color="#fff"/><stop offset="1" stop-color="#8794A0"/></radialGradient><radialGradient cx="264.957" cy="80.291" r="53.348" fx="264.957" fy="80.291" gradientUnits="userSpaceOnUse"><stop offset="0" stop-color="#BAD1D7"/><stop offset="1" stop-color="#8794A0"/></radialGradient><linearGradient><stop offset="0" stop-opacity=".633"/><stop offset="1" stop-opacity="0"/></linearGradient><linearGradient id="j" x1="776.865" x2="777.995" y1="541.731" y2="543.105" gradientUnits="userSpaceOnUse"><stop offset=".247" stop-color="#fff"/><stop offset=".301" stop-color="#F3F4F5"/><stop offset=".508" stop-color="#CBD0D6"/><stop offset=".701" stop-color="#AFB9C2"/><stop offset=".871" stop-color="#9EAAB6"/><stop offset="1" stop-color="#99A5B3"/></linearGradient><linearGradient id="i" x1="779.324" x2="780.542" y1="541.802" y2="543.042" gradientUnits="userSpaceOnUse"><stop offset=".247" stop-color="#fff"/><stop offset=".301" stop-color="#F3F4F5"/><stop offset=".508" stop-color="#CBD0D6"/><stop offset=".701" stop-color="#AFB9C2"/><stop offset=".871" stop-color="#9EAAB6"/><stop offset="1" stop-color="#99A5B3"/></linearGradient><linearGradient id="h" x1="781.786" x2="783.049" y1="541.8" y2="543.019" gradientUnits="userSpaceOnUse"><stop offset=".247" stop-color="#fff"/><stop offset=".301" stop-color="#F3F4F5"/><stop offset=".508" stop-color="#CBD0D6"/><stop offset=".701" stop-color="#AFB9C2"/><stop offset=".871" stop-color="#9EAAB6"/><stop offset="1" stop-color="#99A5B3"/></linearGradient><linearGradient id="g" x1="777.438" x2="777.438" y1="541.401" y2="543.071" gradientUnits="userSpaceOnUse"><stop offset=".455" stop-color="#D0D5DA"/><stop offset=".826" stop-color="#99A5B3"/><stop offset="1" stop-color="#9DA9B6"/></linearGradient><linearGradient id="f" x1="779.938" x2="779.938" y1="541.401" y2="543.071" gradientUnits="userSpaceOnUse"><stop offset=".455" stop-color="#D0D5DA"/><stop offset=".826" stop-color="#99A5B3"/><stop offset="1" stop-color="#9DA9B6"/></linearGradient><linearGradient id="e" x1="782.435" x2="782.435" y1="541.401" y2="543.071" gradientUnits="userSpaceOnUse"><stop offset=".455" stop-color="#D0D5DA"/><stop offset=".826" stop-color="#99A5B3"/><stop offset="1" stop-color="#9DA9B6"/></linearGradient><linearGradient id="d" x1="771.22" x2="771.22" y1="561.378" y2="544.373" gradientUnits="userSpaceOnUse"><stop offset="0" stop-color="#fff"/><stop offset=".41" stop-color="#fff"/><stop offset=".592" stop-color="#FBFCFA"/><stop offset=".775" stop-color="#EEEFEB"/><stop offset=".957" stop-color="#D9DCD5"/><stop offset="1" stop-color="#D3D7CF"/></linearGradient><linearGradient id="c" x1="771.219" x2="771.219" y1="542.046" y2="562.616" gradientUnits="userSpaceOnUse"><stop offset="0" stop-color="#ADBBCA"/><stop offset=".348" stop-color="#fff"/><stop offset=".674" stop-color="#fff"/><stop offset=".759" stop-color="#FBFCFC"/><stop offset=".844" stop-color="#EFF2F5"/><stop offset=".929" stop-color="#DAE2E8"/><stop offset="1" stop-color="#C3D2DD"/></linearGradient><linearGradient id="b" x1="771.219" x2="771.219" y1="540.617" y2="562.616" gradientUnits="userSpaceOnUse"><stop offset="0" stop-color="#E8ECED"/><stop offset=".348" stop-color="#fff"/><stop offset=".674" stop-color="#fff"/></linearGradient><linearGradient id="k" x1="784.5" x2="784.5" y1="586.057" y2="551.017" gradientUnits="userSpaceOnUse" gradientTransform="translate(-757.06 -539.628)"><stop offset="0" stop-color="#709EC3"/><stop offset=".383" stop-color="#72A0C4"/><stop offset=".521" stop-color="#79A3C6"/><stop offset=".619" stop-color="#83ABCA"/><stop offset=".698" stop-color="#94B5D0"/><stop offset=".766" stop-color="#A9C3D9"/><stop offset=".827" stop-color="#C6D6E5"/><stop offset=".88" stop-color="#E5ECF2"/><stop offset=".916" stop-color="#fff"/></linearGradient><linearGradient id="l" x1="784.5" x2="784.5" y1="556.36" y2="586.157" gradientUnits="userSpaceOnUse" gradientTransform="translate(-757.06 -539.628)"><stop offset="0" stop-color="#6395BF"/><stop offset=".09" stop-color="#CCDBE8"/><stop offset=".674" stop-color="#fff"/><stop offset=".728" stop-color="#FBFDFE"/><stop offset=".781" stop-color="#EFF5F8"/><stop offset=".835" stop-color="#DBEAF2"/><stop offset=".889" stop-color="#BED9E8"/><stop offset=".943" stop-color="#9AC6DC"/><stop offset=".997" stop-color="#6FAFCE"/><stop offset="1" stop-color="#6CADCD"/></linearGradient><linearGradient id="m" x1="800.531" x2="800.531" y1="556.321" y2="557.73" gradientUnits="userSpaceOnUse"><stop offset=".455" stop-color="#D9ADAE"/><stop offset=".944" stop-color="#CB1009"/></linearGradient><linearGradient id="n" x1="799.813" x2="801.373" y1="556.137" y2="558.064" gradientUnits="userSpaceOnUse"><stop offset=".247" stop-color="#fff"/><stop offset=".34" stop-color="#E8C8B7"/><stop offset=".472" stop-color="#CE896F"/><stop offset=".599" stop-color="#BA5942"/><stop offset=".719" stop-color="#AB3825"/><stop offset=".829" stop-color="#A22214"/><stop offset=".926" stop-color="#9B150B"/><stop offset="1" stop-color="#991109"/></linearGradient><linearGradient id="o" x1="797.254" x2="797.254" y1="556.27" y2="557.833" gradientUnits="userSpaceOnUse"><stop offset=".455" stop-color="#A0C6DE"/><stop offset=".944" stop-color="#3165A1"/></linearGradient><linearGradient id="p" x1="796.481" x2="797.996" y1="556.142" y2="557.876" gradientUnits="userSpaceOnUse"><stop offset=".247" stop-color="#fff"/><stop offset=".253" stop-color="#FCFDFE"/><stop offset=".401" stop-color="#AEBDD5"/><stop offset=".533" stop-color="#7392BA"/><stop offset=".644" stop-color="#4875A9"/><stop offset=".731" stop-color="#3066A0"/><stop offset=".781" stop-color="#27609D"/><stop offset="1" stop-color="#355787"/></linearGradient><linearGradient id="q" x1="793.975" x2="793.975" y1="556.27" y2="557.833" gradientUnits="userSpaceOnUse"><stop offset=".455" stop-color="#A0C6DE"/><stop offset=".944" stop-color="#3165A1"/></linearGradient><linearGradient id="r" x1="793.256" x2="794.664" y1="556.108" y2="557.905" gradientUnits="userSpaceOnUse"><stop offset=".247" stop-color="#fff"/><stop offset=".253" stop-color="#FCFDFE"/><stop offset=".401" stop-color="#AEBDD5"/><stop offset=".533" stop-color="#7392BA"/><stop offset=".644" stop-color="#4875A9"/><stop offset=".731" stop-color="#3066A0"/><stop offset=".781" stop-color="#27609D"/><stop offset="1" stop-color="#355787"/></linearGradient><linearGradient id="t" x1="767.066" x2="802.103" y1="559.555" y2="584.711" gradientUnits="userSpaceOnUse"><stop offset="0" stop-color="#263D4C"/><stop offset=".348" stop-color="#446D8C"/><stop offset="1" stop-color="#698499"/></linearGradient><linearGradient id="s" x1="784.5" x2="784.5" y1="584.578" y2="559.512" gradientUnits="userSpaceOnUse"><stop offset="0" stop-color="#fff"/><stop offset=".41" stop-color="#fff"/><stop offset=".592" stop-color="#FBFCFA"/><stop offset=".775" stop-color="#EEEFEB"/><stop offset=".957" stop-color="#D9DCD5"/><stop offset="1" stop-color="#D3D7CF"/></linearGradient><linearGradient id="a" x1="84.022" x2="75.07" y1="233.44" y2="233.44" gradientTransform="matrix(0 -1 -1 0 259.812 95.129)" gradientUnits="userSpaceOnUse"><stop offset="0" stop-color="#E96712"/><stop offset=".648" stop-color="#D4290C"/><stop offset="1" stop-color="#CB1009"/></linearGradient><linearGradient id="u" x1="84.022" x2="75.07" y1="233.44" y2="233.44" xlink:href="#a" gradientUnits="userSpaceOnUse" gradientTransform="matrix(0 -1 -1 0 259.812 95.129)"/></defs><g><g transform="translate(-757.06 -539.628)"><path fill="none" stroke="#3e444c" stroke-width="1.5" d="M784.63 561.65c0 .52-.42.94-.94.94h-24.95c-.52 0-.94-.43-.94-.95v-20.1c0-.5.43-.93.95-.93h24.94c.5 0 .93.4.93.93v20.1z"/><linearGradient x1="771.219" x2="771.219" y1="540.617" y2="562.616" gradientUnits="userSpaceOnUse"><stop offset="0" stop-color="#E8ECED"/><stop offset=".348" stop-color="#fff"/><stop offset=".674" stop-color="#fff"/></linearGradient><path fill="url(#b)" d="M784.63 561.65c0 .52-.42.94-.94.94h-24.95c-.52 0-.94-.43-.94-.95v-20.1c0-.5.43-.93.95-.93h24.94c.5 0 .93.4.93.93v20.1z"/><linearGradient x1="771.219" x2="771.219" y1="542.046" y2="562.616" gradientUnits="userSpaceOnUse"><stop offset="0" stop-color="#ADBBCA"/><stop offset=".348" stop-color="#fff"/><stop offset=".674" stop-color="#fff"/><stop offset=".759" stop-color="#FBFCFC"/><stop offset=".844" stop-color="#EFF2F5"/><stop offset=".929" stop-color="#DAE2E8"/><stop offset="1" stop-color="#C3D2DD"/></linearGradient><path fill="url(#c)" d="M784.63 561.65c0 .52-.42.94-.94.94h-24.95c-.52 0-.94-.43-.94-.95v-18.6c0-.5.43-.93.95-.93h24.94c.5 0 .93.4.93.93v18.6z"/><linearGradient x1="771.22" x2="771.22" y1="561.378" y2="544.373" gradientUnits="userSpaceOnUse"><stop offset="0" stop-color="#fff"/><stop offset=".41" stop-color="#fff"/><stop offset=".592" stop-color="#FBFCFA"/><stop offset=".775" stop-color="#EEEFEB"/><stop offset=".957" stop-color="#D9DCD5"/><stop offset="1" stop-color="#D3D7CF"/></linearGradient><path fill="url(#d)" stroke="#77818c" stroke-width=".7" d="M783.53 561.13c0 .17-.14.3-.3.3h-24c-.2 0-.33-.13-.33-.3v-16.48c0-.17.14-.3.32-.3h24c.17 0 .3.13.3.3v16.48z"/><linearGradient x1="782.435" x2="782.435" y1="541.401" y2="543.071" gradientUnits="userSpaceOnUse"><stop offset=".455" stop-color="#D0D5DA"/><stop offset=".826" stop-color="#99A5B3"/><stop offset="1" stop-color="#9DA9B6"/></linearGradient><circle cx="782.436" cy="542.427" r="1.02" fill="url(#e)" stroke="#3e444c" stroke-width=".25"/><linearGradient x1="779.938" x2="779.938" y1="541.401" y2="543.071" gradientUnits="userSpaceOnUse"><stop offset=".455" stop-color="#D0D5DA"/><stop offset=".826" stop-color="#99A5B3"/><stop offset="1" stop-color="#9DA9B6"/></linearGradient><circle cx="779.938" cy="542.427" r="1.02" fill="url(#f)" stroke="#3e444c" stroke-width=".25"/><linearGradient x1="777.438" x2="777.438" y1="541.401" y2="543.071" gradientUnits="userSpaceOnUse"><stop offset=".455" stop-color="#D0D5DA"/><stop offset=".826" stop-color="#99A5B3"/><stop offset="1" stop-color="#9DA9B6"/></linearGradient><circle cx="777.438" cy="542.427" r="1.02" fill="url(#g)" stroke="#3e444c" stroke-width=".25"/><g><linearGradient x1="781.786" x2="783.049" y1="541.8" y2="543.019" gradientUnits="userSpaceOnUse"><stop offset=".247" stop-color="#fff"/><stop offset=".301" stop-color="#F3F4F5"/><stop offset=".508" stop-color="#CBD0D6"/><stop offset=".701" stop-color="#AFB9C2"/><stop offset=".871" stop-color="#9EAAB6"/><stop offset="1" stop-color="#99A5B3"/></linearGradient><path fill="url(#h)" d="M781.54 542.43c0 .5.4.9.9.9s.9-.4.9-.9-.4-.9-.9-.9-.9.4-.9.9zm.25 0c0-.36.28-.65.64-.65.35 0 .64.3.64.65 0 .35-.3.64-.64.64-.36 0-.65-.3-.65-.64z"/></g><g><linearGradient x1="779.324" x2="780.542" y1="541.802" y2="543.042" gradientUnits="userSpaceOnUse"><stop offset=".247" stop-color="#fff"/><stop offset=".301" stop-color="#F3F4F5"/><stop offset=".508" stop-color="#CBD0D6"/><stop offset=".701" stop-color="#AFB9C2"/><stop offset=".871" stop-color="#9EAAB6"/><stop offset="1" stop-color="#99A5B3"/></linearGradient><path fill="url(#i)" d="M779.04 542.43c0 .5.4.9.9.9s.9-.4.9-.9-.4-.9-.9-.9-.9.4-.9.9zm.25 0c0-.36.28-.65.64-.65.35 0 .64.3.64.65 0 .35-.3.64-.64.64-.36 0-.65-.3-.65-.64z"/></g><g><linearGradient x1="776.865" x2="777.995" y1="541.731" y2="543.105" gradientUnits="userSpaceOnUse"><stop offset=".247" stop-color="#fff"/><stop offset=".301" stop-color="#F3F4F5"/><stop offset=".508" stop-color="#CBD0D6"/><stop offset=".701" stop-color="#AFB9C2"/><stop offset=".871" stop-color="#9EAAB6"/><stop offset="1" stop-color="#99A5B3"/></linearGradient><path fill="url(#j)" d="M776.54 542.43c0 .5.4.9.9.9s.9-.4.9-.9-.4-.9-.9-.9-.9.4-.9.9zm.25 0c0-.36.28-.65.64-.65.35 0 .64.3.64.65 0 .35-.3.64-.64.64-.36 0-.65-.3-.65-.64z"/></g></g><path fill="none" stroke="#192433" stroke-width="2" d="M46.35 45.25c0 .68-.55 1.23-1.23 1.23H9.76c-.68 0-1.23-.55-1.23-1.23v-29c0-.68.55-1.23 1.23-1.23h35.36c.68 0 1.23.55 1.23 1.23v29z"/><path fill="url(#k)" d="M46.35 45.25c0 .68-.55 1.23-1.23 1.23H9.76c-.68 0-1.23-.55-1.23-1.23v-29c0-.68.55-1.23 1.23-1.23h35.36c.68 0 1.23.55 1.23 1.23v29z"/><path fill="url(#l)" d="M46.35 45.25c0 .68-.55 1.23-1.23 1.23H9.76c-.68 0-1.23-.55-1.23-1.23V18c0-.68.55-1.23 1.23-1.23h35.36c.68 0 1.23.55 1.23 1.23v27.25z"/><circle cx="800.532" cy="557.024" r="1.337" fill="url(#m)" stroke="#4c0b08" stroke-width=".4" transform="translate(-757.06 -539.628)"/><g transform="translate(-757.06 -539.628)"><linearGradient x1="799.813" x2="801.373" y1="556.137" y2="558.064" gradientUnits="userSpaceOnUse"><stop offset=".247" stop-color="#fff"/><stop offset=".34" stop-color="#E8C8B7"/><stop offset=".472" stop-color="#CE896F"/><stop offset=".599" stop-color="#BA5942"/><stop offset=".719" stop-color="#AB3825"/><stop offset=".829" stop-color="#A22214"/><stop offset=".926" stop-color="#9B150B"/><stop offset="1" stop-color="#991109"/></linearGradient><path fill="url(#n)" d="M799.4 557.02c0 .63.5 1.14 1.13 1.14.63 0 1.14-.5 1.14-1.14 0-.62-.5-1.13-1.14-1.13-.62 0-1.13.5-1.13 1.12zm.43 0c0-.38.3-.7.7-.7.4 0 .7.32.7.7 0 .4-.3.7-.7.7-.4 0-.7-.3-.7-.7z"/></g><circle cx="797.253" cy="557.024" r="1.337" fill="url(#o)" stroke="#1f324c" stroke-width=".4" transform="translate(-757.06 -539.628)"/><g transform="translate(-757.06 -539.628)"><linearGradient x1="796.481" x2="797.996" y1="556.142" y2="557.876" gradientUnits="userSpaceOnUse"><stop offset=".247" stop-color="#fff"/><stop offset=".253" stop-color="#FCFDFE"/><stop offset=".401" stop-color="#AEBDD5"/><stop offset=".533" stop-color="#7392BA"/><stop offset=".644" stop-color="#4875A9"/><stop offset=".731" stop-color="#3066A0"/><stop offset=".781" stop-color="#27609D"/><stop offset="1" stop-color="#355787"/></linearGradient><path fill="url(#p)" d="M796.1 557.02c0 .64.52 1.15 1.15 1.15.64 0 1.15-.5 1.15-1.15 0-.63-.5-1.14-1.15-1.14-.63 0-1.15.5-1.15 1.14zm.45 0c0-.38.3-.7.7-.7.4 0 .7.32.7.7 0 .4-.3.7-.7.7-.4 0-.7-.3-.7-.7z"/></g><circle cx="793.974" cy="557.024" r="1.337" fill="url(#q)" stroke="#1f324c" stroke-width=".4" transform="translate(-757.06 -539.628)"/><g transform="translate(-757.06 -539.628)"><linearGradient x1="793.256" x2="794.664" y1="556.108" y2="557.905" gradientUnits="userSpaceOnUse"><stop offset=".247" stop-color="#fff"/><stop offset=".253" stop-color="#FCFDFE"/><stop offset=".401" stop-color="#AEBDD5"/><stop offset=".533" stop-color="#7392BA"/><stop offset=".644" stop-color="#4875A9"/><stop offset=".731" stop-color="#3066A0"/><stop offset=".781" stop-color="#27609D"/><stop offset="1" stop-color="#355787"/></linearGradient><path fill="url(#r)" d="M792.84 557.02c0 .63.5 1.14 1.13 1.14.63 0 1.14-.5 1.14-1.14 0-.62-.5-1.13-1.13-1.13-.62 0-1.13.5-1.13 1.12zm.43 0c0-.38.32-.7.7-.7.4 0 .7.32.7.7 0 .4-.3.7-.7.7-.38 0-.7-.3-.7-.7z"/></g><g transform="translate(-757.06 -539.628)"><linearGradient x1="784.5" x2="784.5" y1="584.578" y2="559.512" gradientUnits="userSpaceOnUse"><stop offset="0" stop-color="#fff"/><stop offset=".41" stop-color="#fff"/><stop offset=".592" stop-color="#FBFCFA"/><stop offset=".775" stop-color="#EEEFEB"/><stop offset=".957" stop-color="#D9DCD5"/><stop offset="1" stop-color="#D3D7CF"/></linearGradient><path fill="url(#s)" d="M801.97 584.2c0 .22-.18.4-.4.4h-34.13c-.23 0-.4-.18-.4-.4v-24.25c0-.23.17-.4.4-.4h34.13c.22 0 .4.17.4.4v24.25z" enable-background="new"/><linearGradient x1="767.066" x2="802.103" y1="559.555" y2="584.711" gradientUnits="userSpaceOnUse"><stop offset="0" stop-color="#263D4C"/><stop offset=".348" stop-color="#446D8C"/><stop offset="1" stop-color="#698499"/></linearGradient><path fill="url(#t)" d="M767.44 559.04c-.5 0-.9.4-.9.9v24.25c0 .5.4.9.9.9h34.13c.5 0 .9-.4.9-.9v-24.25c0-.5-.4-.9-.9-.9h-34.13zm34.27.83c0 .18 0 24.22 0 24.4-.17 0-34.23 0-34.4 0 0-.18 0-24.22 0-24.4.17 0 34.23 0 34.4 0z"/></g><g><path fill="#cb1009" stroke="#590b08" stroke-width=".5" d="M25.67 27.35c.33.34.88.34 1.22 0l9.72-8.94c.08-.06.13-.17.13-.3 0-.23-.2-.43-.43-.43H16.24c-.24 0-.43.2-.43.43 0 .12.05.23.13.3l.02.02c2.2 2.25 9.72 8.93 9.72 8.93z"/><path fill="url(#u)" d="M23.06 23.62v-7.37s-1.13-3.97-1.8-4.4c-.97-.63-2-.74-2-.74h8.77s3.24.35 4.46 1.9c.42.56 1 1.77 1 1.77v8.85H23.05z" transform="translate(-2 -1.856)"/><path fill="none" stroke="#590b08" stroke-width=".5" d="M21.06 17.67V14.4v.37c0-3.26-2.37-5.52-3.8-5.52h7.77c3.93 0 6.46 1.72 6.46 4.66v3.77"/><path fill="none" stroke="#f62724" d="M26.28 26.87c-1.12-1-6.7-6.12-9.28-8.57"/><path fill="none" stroke="#f62724" d="M21.84 17.67V14.4"/></g><g><path d="M44.48 33.4l-.25-.66-.45.16c-.04.02-.1 0-.1-.05l-.25-.67c-.02-.05 0-.1.05-.12l.45-.16-2.68-7.35-.45.16c-.04.03-.1 0-.1-.04l-.25-.67c-.02-.05 0-.1.05-.12l.45-.16-.26-.72-30.37 11.04.26.7.46-.16c.05-.02.1 0 .12.05l.24.67c.02.05 0 .1-.05.1l-.48.2 2.67 7.34.47-.18c.05 0 .1 0 .12.06l.24.67c.02.03 0 .08-.05.1l-.48.17.25.68L44.48 33.4zm-32.3 1.72c-.05.02-.1 0-.12-.05l-.24-.67c-.02-.05 0-.1.05-.1l1.1-.4c.05-.03.1 0 .1.04l.26.67c0 .05 0 .1-.06.12l-1.1.4zm1.9-.7c-.04.02-.1 0-.1-.05l-.26-.66c0-.04 0-.1.06-.1l1.1-.4c.05-.03.1 0 .1.05l.26.66c0 .06 0 .1-.06.13l-1.1.4zm1.9-.7c-.04.03-.1 0-.1-.04l-.25-.67c0-.03 0-.08.06-.1l1.1-.4c.04-.02.1 0 .1.05l.25.67c0 .04 0 .1-.06.1l-1.1.4zm1.92-.68c-.05.02-.1 0-.1-.05l-.26-.68c0-.05 0-.1.06-.12l1.1-.4c.04 0 .1 0 .1.06l.25.66c.02.05 0 .1-.05.12l-1.1.4zm1.9-.7c-.04.02-.1 0-.1-.05l-.25-.68c-.02-.04 0-.1.05-.1l1.1-.4c.05-.03.1 0 .12.04l.24.67c.02.05 0 .1-.05.12l-1.1.4zm1.92-.7c-.05.03-.1 0-.12-.04l-.24-.67c-.02-.04 0-.1.05-.1l1.12-.4c.04-.03.1 0 .1.04l.25.67c.02.04 0 .1-.05.1l-1.1.4zm1.9-.68c-.04 0-.1 0-.1-.06l-.25-.66c-.02-.05 0-.1.05-.12l1.1-.4c.05-.02.1 0 .12.06l.24.66c.02.05 0 .1-.05.12l-1.1.4zm1.9-.7c-.03.02-.08 0-.1-.05l-.24-.66c-.02-.04 0-.1.05-.1l1.1-.4c.05-.03.1 0 .12.04l.24.67c0 .05-.02.1-.06.1l-1.1.4zm1.92-.7c-.04.03-.1 0-.1-.04l-.25-.67c-.03-.05 0-.1.04-.1l1.1-.42c.05 0 .1 0 .12.06l.24.66c0 .04 0 .1-.06.1l-1.1.4zm1.9-.68c-.03 0-.1 0-.1-.06l-.24-.66c-.02-.05 0-.1.05-.12l1.1-.4c.05-.02.1 0 .1.06l.26.66c.02.05 0 .1-.05.12l-1.1.4zm1.92-.7c-.05.02-.1 0-.1-.05l-.26-.67c0-.04 0-.1.06-.1l1.1-.4c.04-.03.1 0 .1.04l.26.67c0 .04 0 .1-.06.1l-1.1.4zm1.9-.7c-.04.03-.1 0-.1-.04l-.25-.67c0-.05.02-.1.07-.12l1.1-.4c.04 0 .1 0 .1.06l.25.67c.02.05 0 .1-.05.12l-1.1.4zm1.92-.7c-.05.03-.1 0-.12-.04l-.24-.67c-.02-.04 0-.1.05-.1l1.1-.4c.05-.03.1 0 .12.04l.23.68c.02.05 0 .1-.05.1l-1.1.4zm1.9-.68c-.04.02-.1 0-.1-.05l-.25-.67c-.02-.05 0-.1.05-.1l1.1-.4c.05-.03.1 0 .12.04l.24.67c.02.03 0 .08-.05.1l-1.1.4zm1.9-.7c-.03.02-.08 0-.1-.05l-.24-.66c-.02-.06 0-.1.05-.13l1.1-.4c.04-.02.1 0 .1.06l.25.66c.02.04 0 .1-.05.1l-1.1.4zm3.8 6.96c.04-.02.1 0 .1.05l.25.68c.02.05 0 .1-.05.1l-1.1.4c-.05.03-.1 0-.12-.04l-.24-.67c-.02-.04 0-.1.05-.1l1.1-.4zm-1.92.7c.05-.02.1 0 .12.05l.24.67c.02.05 0 .1-.05.12l-1.1.4c-.05 0-.1-.02-.12-.06l-.24-.67c0-.05.02-.1.06-.12l1.1-.4zm-1.9.7c.04-.03.1 0 .1.04l.25.67c.03.04 0 .1-.04.1l-1.1.4c-.05.03-.1 0-.12-.04l-.24-.67c-.02-.05 0-.1.06-.1l1.1-.4zm-1.9.68c.03-.02.08 0 .1.05l.24.66c.02.05 0 .1-.05.1l-1.1.42c-.05 0-.1 0-.12-.06l-.24-.66c-.03-.05 0-.1.05-.12l1.1-.4zm-1.92.7c.04-.02.1 0 .1.05l.26.65c0 .05 0 .1-.06.12l-1.1.4c-.05.02-.1 0-.1-.05l-.26-.67c0-.05 0-.1.06-.12l1.1-.4zm-1.9.7c.04-.03.1 0 .1.04l.25.67c0 .04-.02.1-.07.1l-1.1.4c-.05.03-.1 0-.1-.04l-.26-.66c0-.04 0-.1.06-.1l1.1-.4zm-1.92.68c.05-.02.1 0 .12.05l.24.67c0 .05 0 .1-.06.12l-1.1.4c-.04 0-.1 0-.1-.06l-.25-.66c-.02-.05 0-.1.05-.12l1.1-.4zm-1.9.7c.04-.02.1 0 .1.05l.25.67c.02.04 0 .1-.05.1l-1.1.4c-.05.03-.1 0-.12-.04l-.24-.67c-.02-.05 0-.1.05-.1l1.1-.42zm-1.92.7c.05-.03.1 0 .12.04l.24.67c.02.05 0 .1-.05.1l-1.1.4c-.04.03-.1 0-.1-.04l-.25-.68c-.02-.04 0-.1.05-.1l1.1-.4zm-1.9.68c.04-.02.1 0 .1.06l.25.66c.02.05 0 .1-.05.12l-1.1.4c-.05.02-.1 0-.12-.06l-.24-.66c-.02-.05 0-.1.05-.12l1.1-.4zm-1.9.7c.03-.02.08 0 .1.05l.24.67c.02.04 0 .1-.05.1l-1.1.4c-.06.03-.1 0-.13-.04l-.24-.67c-.02-.04 0-.1.05-.1l1.1-.4zm-1.92.7c.04-.03.1 0 .1.04l.25.67c.02.06 0 .1-.05.12l-1.1.4c-.05.02-.1 0-.12-.05l-.24-.67c-.02-.04 0-.1.06-.1l1.1-.4zm-1.9.68c.03 0 .08 0 .1.06l.24.66c.02.05 0 .1-.05.12l-1.1.4c-.05.02-.1 0-.1-.05l-.26-.67c0-.05.02-.1.07-.12l1.1-.4zm-4.63 2.63c-.04.02-.1 0-.1-.05l-.26-.66c-.02-.06 0-.1.05-.13l1.1-.4c.05-.02.1 0 .12.05l.24.67c.02.04 0 .1-.05.1l-1.1.4zm1.56-1.4c0-.06 0-.1.06-.12l1.1-.4c.05-.02.1 0 .1.05l.26.67c0 .04 0 .1-.06.1l-1.1.4c-.04.03-.1 0-.1-.04l-.25-.67z"/></g><path fill="url(#v)" d="M34.37 34.65c-.08.02-.17-.02-.2-.1l-2.1-5.8c-.04-.1 0-.17.08-.2l8.4-3.06c.08-.04.17 0 .2.08l2.1 5.82c.04.07 0 .16-.08.2l-8.4 3.05z"/><path fill="url(#w)" d="M24.37 38.28c-.08.03-.16 0-.2-.1l-2.1-5.8c-.04-.08 0-.17.08-.2l8.4-3.05c.08-.03.17 0 .2.1l2.1 5.8c.04.08 0 .17-.08.2l-8.4 3.05z"/><path fill="url(#x)" d="M14.37 41.92c-.08.03-.16 0-.2-.1l-2.1-5.8c-.03-.08 0-.17.08-.2l8.4-3.05c.1-.03.17 0 .2.1l2.1 5.8c.04.08 0 .16-.08.2l-8.4 3.05z"/></g></svg>