<svg xmlns="http://www.w3.org/2000/svg" width="48" height="48"><defs><linearGradient x1="-1183.599" x2="-1189.533" y1="3331.431" y2="3331.431" gradientTransform="matrix(-2.188 .006 -.006 -2.188 -2568.652 7318.153)" gradientUnits="userSpaceOnUse"><stop offset=".006" stop-color="#F17912"/><stop offset="1" stop-color="#CB1009"/></linearGradient><linearGradient x1="-1934.531" x2="-1937.352" y1="1862.517" y2="1857.539" gradientTransform="matrix(-.259 .966 -.966 -.259 1319.47 2747.625)" gradientUnits="userSpaceOnUse"><stop offset=".303" stop-color="#FAAF3E"/><stop offset="1" stop-color="#F62724"/></linearGradient><linearGradient><stop offset="0" stop-color="#204a87"/><stop offset="1" stop-color="#729fcf"/></linearGradient></defs><g><path fill="#729fcf" stroke="#000" d="M.5 3.5h21v6H.5z" color="#000" overflow="visible" enable-background="accumulate"/><path fill="#729fcf" stroke="#000" d="M.5 15.5h21v6H.5z" color="#000" overflow="visible" enable-background="accumulate"/><path fill="#73d216" stroke="#000" d="M26.5 21.5h21v6h-21z" color="#000" overflow="visible" enable-background="accumulate"/><path fill="#729fcf" stroke="#000" d="M.5 27.5h21v6H.5z" color="#000" overflow="visible" enable-background="accumulate"/><path fill="#73d216" stroke="#000" d="M26.5 9.5h21v6h-21z" color="#000" overflow="visible" enable-background="accumulate"/><path fill="#73d216" stroke="#000" d="M26.5 33.5h21v6h-21z" color="#000" overflow="visible" enable-background="accumulate"/><path fill="#729fcf" stroke="#000" d="M.5 39.5h21v6H.5z" color="#000" overflow="visible" enable-background="accumulate"/><path fill-rule="evenodd" stroke="#fff" stroke-width="2" d="M30.73 20.16l.02-6.73L43 24.73l-12.18 11.7v-5.77l-13.6.1-.04 5.74L5 24.8l12.25-11.3v6.76l13.48-.1z"/></g></svg>