<svg xmlns="http://www.w3.org/2000/svg" width="48" height="48" xmlns:xlink="http://www.w3.org/1999/xlink"><defs><linearGradient id="a"><stop offset="0" stop-color="#ff5353"/><stop offset="1" stop-color="#a40000"/></linearGradient><linearGradient x1="18.286" x2="39.286" y1="36.603" y2="33.143" xlink:href="#a" gradientUnits="userSpaceOnUse" gradientTransform="translate(19.62 -19.695)"/><linearGradient x1="-1183.599" x2="-1189.533" y1="3331.431" y2="3331.431" gradientTransform="matrix(-2.188 .006 -.006 -2.188 -2568.652 7318.153)" gradientUnits="userSpaceOnUse"><stop offset=".006" stop-color="#F17912"/><stop offset="1" stop-color="#CB1009"/></linearGradient><linearGradient x1="-1934.531" x2="-1937.352" y1="1862.517" y2="1857.539" gradientTransform="matrix(-.259 .966 -.966 -.259 1319.47 2747.625)" gradientUnits="userSpaceOnUse"><stop offset=".303" stop-color="#FAAF3E"/><stop offset="1" stop-color="#F62724"/></linearGradient><linearGradient><stop offset="0" stop-color="#204a87"/><stop offset="1" stop-color="#729fcf"/></linearGradient><linearGradient x1="18.286" x2="39.286" y1="36.603" y2="33.143" xlink:href="#a" gradientUnits="userSpaceOnUse" gradientTransform="translate(19.62 -19.695)"/><linearGradient x1="18.286" x2="39.286" y1="36.603" y2="33.143" xlink:href="#a" gradientUnits="userSpaceOnUse" gradientTransform="matrix(0 1 1 0 22.921 -.523)"/><linearGradient id="b" x1="18.286" x2="39.286" y1="36.603" y2="33.143" xlink:href="#a" gradientUnits="userSpaceOnUse" gradientTransform="matrix(0 1 1 0 22.921 -.523)"/></defs><g><path fill="#729fcf" stroke="#000" d="M.5 2.5h39v6H.5z" color="#000" overflow="visible" enable-background="accumulate"/><path fill="#73d216" stroke="#000" d="M8.5 8.5h39v6h-39z" color="#000" overflow="visible" enable-background="accumulate"/><path fill="#729fcf" stroke="#000" d="M.5 14.5h39v6H.5z" color="#000" overflow="visible" enable-background="accumulate"/><path fill="#73d216" stroke="#000" d="M8.5 20.5h39v6h-39z" color="#000" overflow="visible" enable-background="accumulate"/><path fill="#729fcf" stroke="#000" d="M.5 26.5h39v6H.5z" color="#000" overflow="visible" enable-background="accumulate"/><path fill="#73d216" stroke="#000" d="M8.5 32.5h39v6h-39z" color="#000" overflow="visible" enable-background="accumulate"/><path fill="#729fcf" stroke="#000" d="M.5 38.5h39v6H.5z" color="#000" overflow="visible" enable-background="accumulate"/><path fill="#8ae234" d="M23 3h16v5H23z" color="#000" overflow="visible" enable-background="accumulate"/><path fill="#729fcf" d="M23 9h24v5H23z" color="#000" overflow="visible" enable-background="accumulate"/><path fill="#8ae234" d="M23 15h16v5H23z" color="#000" overflow="visible" enable-background="accumulate"/><path fill="#729fcf" d="M23 21h24v5H23z" color="#000" overflow="visible" enable-background="accumulate"/><path fill="#8ae234" d="M23 27h16v5H23z" color="#000" overflow="visible" enable-background="accumulate"/><path fill="#729fcf" d="M23 33h24v5H23z" color="#000" overflow="visible" enable-background="accumulate"/><path fill="#8ae234" d="M23 39h16v5H23z" color="#000" overflow="visible" enable-background="accumulate"/><path fill="none" stroke="#000" stroke-width="2" stroke-dashoffset="2.2" d="M23 0v48" stroke-dasharray="4,2"/><g stroke-width=".884"><path fill="url(#b)" stroke="#440805" d="M53.37 14c2.55-.45 4.87 5.7 3.33 15.8l-3.26-3.15 1.28 12.84 10.96-1-3.7-3.62c5.2-21.77-5.6-30.58-8.5-27.7l-.1 6.8z" transform="matrix(1.131 0 0 1.131 -27.96 -3.02)"/><path fill="none" stroke="#ec2628" stroke-width="1.13" d="M32.25 11.9c.63-.1 1.58-.03 2.55.92 2.65 2.6 3.53 9.67 2.25 18.02l-.26 1.72s-2.77-2.7-3.32-3.23l1.32 11.33c1.34-.12 6.98-.64 9.5-.87-1.24-1.22-3.15-3.08-3.15-3.08l.12-.5c4.2-17.62-1-27.77-5.5-30.3-1.12-.62-2.08-.68-2.6-.17"/></g></g></svg>