<svg xmlns="http://www.w3.org/2000/svg" width="48" height="48" xmlns:xlink="http://www.w3.org/1999/xlink"><defs><linearGradient id="c" x1="219.174" x2="248.416" y1="455.632" y2="479.557" gradientUnits="userSpaceOnUse" gradientTransform="translate(-216.016 -443.219)"><stop offset="0" stop-color="#fff"/><stop offset=".074" stop-color="#FEF2DF"/><stop offset=".235" stop-color="#FCD18F"/><stop offset=".388" stop-color="#FAAF3E"/><stop offset="1" stop-color="#CE5C0B"/></linearGradient><linearGradient id="d" x1="222.849" x2="252.586" y1="459.717" y2="481.389" gradientUnits="userSpaceOnUse"><stop offset="0" stop-color="#fff"/><stop offset=".074" stop-color="#FEF2DF"/><stop offset=".235" stop-color="#FCD18F"/><stop offset=".388" stop-color="#FAAF3E"/><stop offset="1" stop-color="#CE5C0B"/></linearGradient><linearGradient id="e" x1="235.056" x2="240.632" y1="460.675" y2="481.961" gradientUnits="userSpaceOnUse" gradientTransform="translate(-216.016 -443.219)"><stop offset=".399" stop-color="#fff"/><stop offset=".561" stop-color="#FCFDFD"/><stop offset=".678" stop-color="#F3F7F8"/><stop offset=".782" stop-color="#E3ECEF"/><stop offset=".877" stop-color="#CDDDE2"/><stop offset=".966" stop-color="#B0CAD2"/><stop offset="1" stop-color="#A3C1CB"/></linearGradient><linearGradient id="a" x1="-1936.649" x2="-1949.212" y1="1282.36" y2="1282.36" gradientTransform="matrix(-.5 -.866 -.866 .5 382.857 -1864.536)" gradientUnits="userSpaceOnUse"><stop offset="0" stop-color="#FAAF3E"/><stop offset="1" stop-color="#E96712"/></linearGradient><linearGradient id="h" x1="225.629" x2="225.803" y1="453.475" y2="454.137" gradientUnits="userSpaceOnUse"><stop offset=".399" stop-color="#fff"/><stop offset=".561" stop-color="#FCFDFD"/><stop offset=".678" stop-color="#F3F7F8"/><stop offset=".782" stop-color="#E3ECEF"/><stop offset=".877" stop-color="#CDDDE2"/><stop offset=".966" stop-color="#B0CAD2"/><stop offset="1" stop-color="#A3C1CB"/></linearGradient><linearGradient id="b" x1="-1936.649" x2="-1949.212" y1="1282.36" y2="1282.36" gradientUnits="userSpaceOnUse" gradientTransform="matrix(-.5 -.866 -.866 .5 382.857 -1864.536)"><stop offset="0" stop-color="#FAAF3E"/><stop offset="1" stop-color="#E96712"/></linearGradient><linearGradient id="f" x1="-1936.649" x2="-1949.212" y1="1282.36" y2="1282.36" xlink:href="#a" gradientUnits="userSpaceOnUse" gradientTransform="matrix(-.5 -.866 -.866 .5 166.841 -2307.755)"/><linearGradient id="g" x1="28.823" x2="35.566" y1="11.716" y2="20.47" xlink:href="#b" gradientUnits="userSpaceOnUse"/></defs><g><path fill="url(#c)" stroke="#7f390b" stroke-width="1.5" d="M17.77 9.9L33.1 6.67c.47-.1.9.22.93.7l2.37 27.48c.05.48-.3.95-.77 1.04l-30.94 8c-.48.08-.9-.23-.94-.7L1.3 13.92c-.02-.12 0-.24.03-.35l1.75-4.55 11.98-2.3 2.7 3.16z" stroke-linecap="round" stroke-linejoin="round"/><g transform="translate(-216.016 -443.219)"><linearGradient x1="222.849" x2="252.586" y1="459.717" y2="481.389" gradientUnits="userSpaceOnUse"><stop offset="0" stop-color="#fff"/><stop offset=".074" stop-color="#FEF2DF"/><stop offset=".235" stop-color="#FCD18F"/><stop offset=".388" stop-color="#FAAF3E"/><stop offset="1" stop-color="#CE5C0B"/></linearGradient><path fill="url(#d)" d="M249.04 450.2s-14.83 3.1-15.3 3.2c-.3-.33-2.7-3.13-2.7-3.13l-11.7 2.24-1.74 4.5V457.15l2.45 29.1s.23.45.23.45.5.1.5.1l30.7-7.92c.4-.07.68-.45.64-.85l-2.35-27.28s-.24-.44-.24-.44-.5-.1-.5-.1l-.08-.02.1.02zm-15.38 4.08s14.8-3.1 15.3-3.2c.03.5 2.33 27.02 2.33 27.02s-29.9 7.68-30.43 7.82c-.05-.54-2.43-28.7-2.43-28.74.04-.12 1.36-3.54 1.5-3.93.37-.07 10.32-1.98 10.78-2.06.28.3 2.7 3.13 2.7 3.13l.24-.05z"/></g><path fill="url(#e)" stroke="#525b66" stroke-width="1.5" d="M36.65 34.8c-.07.48-.53.97-1.02 1.1l-30.94 8c-.5.12-.86-.16-.8-.65L7 21.33c.06-.48.52-.97 1.02-1.1l30.93-8c.5-.1.85.17.78.65L36.65 34.8z"/><path fill="url(#f)" d="M32.6 26.25l-4.15-7.17s-1.73-2.16-4.22-3c-4.56-1.58-8.9-.14-8.9-.14l7.66-2.53s5.67-2.02 11.74-.66c3.85.86 5.4 3.14 5.4 3.14l2.6 4.5-10.15 5.87z"/><path fill="url(#g)" stroke="#590b08" d="M41.3 18.47L46.74 16c.25-.08.52.06.6.32.04.12.02.26-.04.37v-.02l-7.17 13.8c-.25.5-.84.67-1.3.42 0 0-13.73-7.33-13.7-7.32h-.03c-.1-.06-.2-.17-.24-.3-.08-.25.06-.52.32-.6l4.45-1.62c-2.74-5.63-9.02-6.12-13.7-5.35-.27.1-.47.17-.6.24l7.66-2.53c3.58-1.23 14.14-3.38 18.3 5.07z"/><path fill="none" stroke="#faaf3e" d="M39.5 30l-13.38-7.13"/><path fill="none" stroke="#faaf3e" d="M30.43 20.9l-1.24-2.03"/><path fill="none" stroke="#faaf3e" d="M29.2 18.87c-1.56-2.48-3.42-3.62-8.54-4.2" stroke-linecap="round"/><path fill="url(#h)" stroke="#faaf3e" stroke-width="2" d="M4.6 11.56l10.2-1.95"/></g></svg>