<svg xmlns="http://www.w3.org/2000/svg" width="48" height="48" xmlns:xlink="http://www.w3.org/1999/xlink"><defs><linearGradient id="h"><stop offset="0" stop-color="#636363"/><stop offset="1" stop-color="#bdbdbd"/></linearGradient><linearGradient id="f"><stop offset="0" stop-color="#ff5353"/><stop offset="1" stop-color="#a40000"/></linearGradient><clipPath><use width="48.25" height="50.691" xlink:href="#a"/></clipPath><clipPath><use width="48.25" height="50.691" xlink:href="#b"/></clipPath><clipPath><use width="48.25" height="50.691" xlink:href="#c"/></clipPath><clipPath><use width="48.25" height="50.691" xlink:href="#d"/></clipPath><clipPath><use width="48.25" height="50.691" xlink:href="#e"/></clipPath><defs><path id="e" d="M15.22 30.18c-.42 2.4 5.35 4.57 14.86 3.12l-2.97-3.05 12.07 1.2-.93 10.3-3.4-3.48C14.4 43.15 6.12 33 8.85 30.3l6.38-.12z"/></defs><clipPath><use width="48.25" height="50.691" xlink:href="#e"/></clipPath><linearGradient id="i" x1="18.286" x2="39.286" y1="36.603" y2="33.143" xlink:href="#f" gradientUnits="userSpaceOnUse"/><defs><path id="d" d="M1.55 12.92h19.8v9.68H1.54z"/></defs><clipPath><use width="48.25" height="50.691" xlink:href="#d"/></clipPath><defs><path id="g" d="M1.55 18.27c0 1.62 3.54 3.66 6.62 3.66 4.66 0 5.8-3.04 8.12-3.04l5.04 3.64s-1.85-2.56-1.85-4.6c0-2.03 1.84-4.6 1.84-4.6L16.3 17c-.88 0-4.66-2.53-7.92-2.53-2.97 0-6.83 2.7-6.83 3.8"/></defs><clipPath><use width="48.25" height="50.691" xlink:href="#g"/></clipPath><defs><path id="b" d="M4.75 21.2c.95.95 1.7 1.13 2.7 1.4-.65-.5-1.34-.92-.86-.84"/></defs><clipPath><use width="48.25" height="50.691" xlink:href="#b"/></clipPath><defs><path id="a" d="M10.74 21.56c1.1.24 1.22.32 3.92-1.1-.37 0-1.4-.15-.8-.56"/></defs><clipPath><use width="48.25" height="50.691" xlink:href="#a"/></clipPath><defs><path id="c" d="M8.38 14.47c.64.1 4.32-1.5 4.83-1.55.5-.07-2.23 1.98-1.3 2.28"/></defs><clipPath><use width="48.25" height="50.691" xlink:href="#c"/></clipPath><radialGradient id="j" cx="8.286" cy="17" r="10.531" xlink:href="#h" fx="8.286" fy="17" gradientTransform="matrix(1.38 0 0 .49 -3.147 8.675)" gradientUnits="userSpaceOnUse"/></defs><g><path fill="url(#i)" stroke="#590c08" stroke-width=".5" d="M14.5 30.45c-.43 2.55 5.7 4.87 15.84 3.32l-3.16-3.25L40 31.8l-1 10.96-3.6-3.7c-21.77 5.2-30.58-5.6-27.7-8.5l6.8-.1z"/><path fill="none" stroke="#6c7680" stroke-width=".7" d="M23.96 5.56V28.8"/><path d="M35.53 12c-.54-.07 2.38 2.1 1.4 2.44-2.2.8-4.1 1.94-4.68 1.94l-5.38-3.9s1.97 2.73 1.97 4.9c0 2.16-1.96 4.87-1.96 4.87l5.37-3.88c.95 0 1.75.5 2.63 1.1.54.4-.5.56-.88.56 2.88 1.52 3 1.43 4.16 1.2.77.23 1.67.36 2.75.36.66 0 1.32-.1 1.98-.26l-.3.1c.53-.1-.22.35-.92.87 1.06-.27 1.87-.45 2.87-1.46 1.92-.78 3.4-2.03 3.4-3.12 0-1.16-4.08-4.06-7.24-4.06-.7.1-4.64-1.6-5.17-1.66z"/><path fill="none" stroke="#ec2628" d="M13.73 30.3c-.1.57-.04 1.42.8 2.27 2.3 2.34 8.54 3.12 15.93 2l1.52-.24s-2.38-2.44-2.85-2.93l10 1.17c-.1 1.18-.55 6.17-.75 8.4-1.07-1.1-2.72-2.78-2.72-2.78l-.44.1C19.64 42 10.66 37.4 8.42 33.4c-.54-.98-.6-1.83-.15-2.28"/><path fill="url(#j)" d="M12.88 11.84c.53-.06-2.4 2.12-1.4 2.44 2.2.8 4.08 1.94 4.68 1.94l5.37-3.9s-1.97 2.73-1.97 4.9c0 2.16 1.97 4.87 1.97 4.87l-5.37-3.88c-.96 0-1.76.5-2.63 1.1-.54.4.5.56.88.56-2.87 1.52-2.98 1.43-4.15 1.18-.78.24-1.67.38-2.75.38-.65 0-1.3-.1-1.97-.25l.28.08c-.5-.1.24.36.95.88-1.06-.3-1.87-.47-2.87-1.47-1.93-.8-3.4-2.05-3.4-3.14 0-1.15 4.08-4.06 7.24-4.06.7.1 4.62-1.6 5.16-1.66z"/></g></svg>