<svg xmlns="http://www.w3.org/2000/svg" width="48" height="48" xmlns:xlink="http://www.w3.org/1999/xlink"><defs><marker orient="auto" overflow="visible"><path fill-rule="evenodd" stroke="#000" stroke-width=".2pt" d="M1.15 0L-.58 1v-2l1.73 1z"/></marker><marker orient="auto" overflow="visible"><path fill-rule="evenodd" stroke="#000" stroke-width=".4pt" d="M2.3 0l-3.45 2v-4L2.3 0z"/></marker><marker orient="auto" overflow="visible"><path fill-rule="evenodd" stroke="#000" stroke-width=".8pt" d="M4.62 0L-2.3 4v-8l6.92 4z"/></marker><marker orient="auto" overflow="visible"><path fill-rule="evenodd" stroke="#000" stroke-width=".2pt" d="M-1.2 0l-1 1 3.5-1-3.5-1 1 1z"/></marker><marker orient="auto" overflow="visible"><path fill-rule="evenodd" stroke="#000" stroke-width=".8pt" d="M-10 0l-4 4L0 0l-14-4 4 4z"/></marker><linearGradient id="k"><stop offset="0" stop-color="#8c8c8c"/><stop offset=".5" stop-color="#d1d1d1"/><stop offset="1" stop-color="#8c8c8c"/></linearGradient><linearGradient id="j"><stop offset="0" stop-color="#6d6d6d" stop-opacity=".647"/><stop offset="1" stop-opacity="0"/></linearGradient><linearGradient id="i"><stop offset="0" stop-color="#834300"/><stop offset="1" stop-color="#831200" stop-opacity="0"/></linearGradient><linearGradient id="h"><stop offset="0" stop-color="#2e3436"/><stop offset="1" stop-color="#2e3436" stop-opacity="0"/></linearGradient><linearGradient id="g"><stop offset="0" stop-color="#2e3436"/><stop offset="1" stop-color="#2e3436" stop-opacity="0"/></linearGradient><linearGradient id="e"><stop offset="0" stop-color="#babdb6" stop-opacity="0"/><stop offset="1" stop-color="#d3d7cf"/></linearGradient><linearGradient id="f"><stop offset="0" stop-color="#babdb6" stop-opacity="0"/><stop offset="1" stop-color="#d3d7cf"/></linearGradient><linearGradient id="d"><stop offset="0" stop-color="#eeeeec"/><stop offset="1" stop-color="#d3d7cf"/></linearGradient><linearGradient id="a"><stop offset="0" stop-color="#e02b2b"/><stop offset="1" stop-color="#e02b2b" stop-opacity="0"/></linearGradient><linearGradient x1="9.757" x2="17.85" y1="12.525" y2="31.675" xlink:href="#a" gradientUnits="userSpaceOnUse" gradientTransform="matrix(-.95 0 0 -1.251 51.681 56.182)"/><linearGradient id="c"><stop offset="0" stop-color="#fedba7"/><stop offset="1" stop-color="#fdbf64"/></linearGradient><linearGradient id="b"><stop offset="0" stop-color="#ffa54c"/><stop offset="1" stop-color="#f57900"/></linearGradient><linearGradient x1="14.929" x2="35.357" y1="17.929" y2="27.929" xlink:href="#b" gradientUnits="userSpaceOnUse" gradientTransform="matrix(.864 0 0 .863 3.346 6.117)"/><linearGradient x1="2.131" x2="46.011" y1="26.143" y2="26.143" xlink:href="#c" gradientUnits="userSpaceOnUse" gradientTransform="matrix(.967 0 0 .966 .802 .898)"/><linearGradient x1="14.929" x2="35.357" y1="17.929" y2="27.929" xlink:href="#b" gradientUnits="userSpaceOnUse" gradientTransform="matrix(.597 0 0 .857 9.751 4.118)"/><linearGradient x1="9.757" x2="17.85" y1="12.525" y2="31.675" xlink:href="#a" gradientUnits="userSpaceOnUse" gradientTransform="matrix(.95 0 0 1.251 -3.168 -4.812)"/><linearGradient x1="40.576" x2="36.091" y1="26.92" y2="9.11" xlink:href="#d" gradientUnits="userSpaceOnUse"/><linearGradient x1="16.882" x2="36.203" y1="5.504" y2="9.123" xlink:href="#e" gradientUnits="userSpaceOnUse"/><linearGradient x1="40.576" x2="36.091" y1="26.92" y2="9.11" xlink:href="#d" gradientUnits="userSpaceOnUse" gradientTransform="matrix(-1 0 0 -1 47.996 48.004)"/><linearGradient x1="17.359" x2="36.203" y1="5.694" y2="9.123" xlink:href="#f" gradientUnits="userSpaceOnUse" gradientTransform="matrix(-1 0 0 -1 47.996 48.004)"/><linearGradient x1="14.929" x2="35.357" y1="17.929" y2="27.929" xlink:href="#b" gradientUnits="userSpaceOnUse" gradientTransform="matrix(.597 0 0 .857 9.751 4.118)"/><linearGradient x1="29.93" x2="14.502" y1="9.599" y2="8.171" xlink:href="#g" gradientUnits="userSpaceOnUse"/><linearGradient x1="15.222" x2="29.304" y1="40.977" y2="44.31" xlink:href="#h" gradientUnits="userSpaceOnUse"/><linearGradient x1="10.567" x2="37.472" y1="27.863" y2="6.681" xlink:href="#b" gradientUnits="userSpaceOnUse" gradientTransform="matrix(1.1 0 0 -1.571 4.94 56.242)"/><linearGradient id="m" x1="27.56" x2="27.691" y1="25.429" y2="40" xlink:href="#i" gradientUnits="userSpaceOnUse" gradientTransform="matrix(.62 0 0 .908 12.775 3.832)"/><linearGradient id="l" x1="10.567" x2="37.472" y1="27.863" y2="6.681" xlink:href="#b" gradientUnits="userSpaceOnUse" gradientTransform="matrix(1.1 0 0 -1.571 4.94 56.242)"/><linearGradient x1="12.606" x2="18.216" y1="25.663" y2="25.663" xlink:href="#j" gradientUnits="userSpaceOnUse" gradientTransform="matrix(1.06 0 0 1.011 1.077 -.304)"/><linearGradient x1="15.988" x2="15.988" y1="23.143" y2="28.396" xlink:href="#k" gradientUnits="userSpaceOnUse"/><linearGradient x1="7.705" x2="11.947" y1="18.294" y2="29.473" xlink:href="#k" gradientUnits="userSpaceOnUse" gradientTransform="matrix(1.173 0 0 1 -.059 .007)"/></defs><g><g color="#000"><path fill="url(#l)" fill-rule="evenodd" stroke="#5f2a00" stroke-width="1.592" d="M14.97 39.1l32.24 8.06.05-46.2-32.02 10.97-.26 27.17z" stroke-linejoin="round" overflow="visible" transform="matrix(.888 0 0 1 5.388 0)"/><path fill="none" stroke="#fdc676" stroke-width="1.061" d="M16.18 38.17l29.75 7.25-.03-42.76-29.4 10.18-.32 25.33z" overflow="visible" transform="matrix(.888 0 0 1 5.388 0)"/></g><path fill="url(#m)" fill-rule="evenodd" d="M28.8 26.9H32v13.23L28.8 39V26.9z" color="#000" overflow="visible" enable-background="accumulate"/><path fill-rule="evenodd" stroke="#eeeeec" d="M12.56 17.17L.64 26.03l11.92 8.86v-6.65h18.28c1.03-1.26.86-3.26 0-4.43H12.56v-6.65z"/></g></svg>