<svg xmlns="http://www.w3.org/2000/svg" width="48" height="48" xmlns:xlink="http://www.w3.org/1999/xlink"><defs><linearGradient x1="3.327" x2="18.313" y1="1.805" y2="20.801" xlink:href="#a" gradientUnits="userSpaceOnUse" gradientTransform="matrix(2.155 0 0 2.198 -13.537 -.753)"/><linearGradient id="a"><stop offset="0" stop-color="#ebebeb"/><stop offset="1" stop-color="#b2b2a9"/></linearGradient><linearGradient x1="1.439" x2="20.093" y1=".075" y2="22.484" xlink:href="#b" gradientUnits="userSpaceOnUse" gradientTransform="matrix(2.155 0 0 2.198 -13.537 -.753)"/><linearGradient id="b"><stop offset="0" stop-color="#546063"/><stop offset="1" stop-color="#2e3436"/></linearGradient><linearGradient id="h" x1="4.588" x2="17.253" y1="4.954" y2="4.954" xlink:href="#c" gradientUnits="userSpaceOnUse" gradientTransform="matrix(2.132 0 0 1.913 .622 .618)"/><linearGradient id="c"><stop offset="0" stop-color="#78a211"/><stop offset="1" stop-color="#c0ed52"/></linearGradient><linearGradient id="i" x1="7.249" x2="7.301" y1="5.395" y2="8" xlink:href="#d" gradientUnits="userSpaceOnUse" gradientTransform="matrix(.961 0 0 1.152 14.432 -.117)"/><linearGradient id="d"><stop offset="0" stop-color="#516e0b"/><stop offset="1" stop-color="#516e0b" stop-opacity="0"/></linearGradient><linearGradient id="j" x1="8.907" x2="9.221" y1="5" y2="15" gradientTransform="translate(14.194 .097)" xlink:href="#e" gradientUnits="userSpaceOnUse"/><linearGradient id="e"><stop offset="0" stop-color="#575757"/><stop offset="1" stop-opacity="0"/></linearGradient><linearGradient id="f" x1="3.327" x2="18.313" y1="1.805" y2="20.801" gradientTransform="matrix(2.155 0 0 2.198 .657 -.656)" gradientUnits="userSpaceOnUse" xlink:href="#a"/><linearGradient id="g" x1="1.439" x2="20.093" y1=".075" y2="22.484" gradientTransform="matrix(2.155 0 0 2.198 .657 -.656)" gradientUnits="userSpaceOnUse" xlink:href="#b"/></defs><g><rect width="37.501" height="46.512" x="5.106" y=".887" fill="url(#f)" stroke="url(#g)" stroke-width="1.409" ry="3.26"/><rect width="27" height="8" x="10.402" y="6.097" fill="url(#h)" fill-rule="evenodd" ry="0" color="#000" overflow="visible"/><rect width="27" height="3" x="10.402" y="6.097" fill="url(#i)" fill-rule="evenodd" ry="0" color="#000" overflow="visible"/><path fill="#eeeeec" fill-rule="evenodd" stroke="#555753" d="M10.9 17.6h26v24h-26z" color="#000" overflow="visible"/><path fill="none" stroke="#babdb6" d="M20.9 18.6v21.93" stroke-linecap="square"/><rect width="34.601" height="43.692" x="6.566" y="2.252" fill="none" stroke="#fff" stroke-opacity=".502" stroke-width="1.409" ry="2.015"/><path fill="none" stroke="#babdb6" d="M25.9 18.6v21.93" stroke-linecap="square"/><path fill="none" stroke="#babdb6" d="M30.9 18.6v21.93" stroke-linecap="square"/><path fill="none" stroke="#babdb6" d="M15.9 18.6v21.93" stroke-linecap="square"/><path fill="none" stroke="#babdb6" d="M35.9 27.6H11.97" stroke-linecap="square"/><path fill="none" stroke="#babdb6" d="M35.9 32.6H11.97" stroke-linecap="square"/><path fill="none" stroke="#babdb6" d="M31 37.6H11.87" stroke-linecap="square"/><path fill="none" stroke="#babdb6" d="M35.9 22.6H11.97" stroke-linecap="square"/><path fill="none" stroke="url(#j)" stroke-dashoffset="2.2" d="M9.9 5.6h28v9h-28z" color="#000" stroke-linecap="square" stroke-linejoin="bevel" overflow="visible" enable-background="accumulate"/><path fill="#888a85" fill-rule="evenodd" d="M10.4 42.1h27v1h-27z" color="#000" overflow="visible" enable-background="accumulate"/></g></svg>