<svg xmlns="http://www.w3.org/2000/svg" width="48" height="48" xmlns:xlink="http://www.w3.org/1999/xlink" version="1"><defs><linearGradient id="f" x1="105.57" x2="115.738" y1="226.415" y2="240.775" gradientUnits="userSpaceOnUse"><stop offset="0" stop-color="#FAFAFA"/><stop offset=".579" stop-color="#F6E94F"/><stop offset=".693" stop-color="#F3E54B"/><stop offset=".793" stop-color="#EAD740"/><stop offset=".888" stop-color="#DBC32F"/><stop offset=".98" stop-color="#C8A61A"/><stop offset="1" stop-color="#C3A016"/></linearGradient><linearGradient id="e" x1="107.77" x2="105.604" y1="228.699" y2="227.569" gradientUnits="userSpaceOnUse"><stop offset="0" stop-color="#EFEEEC"/><stop offset="1" stop-color="#F6E94F"/></linearGradient><linearGradient id="d" x1="103.99" x2="118.07" y1="229.561" y2="229.189" gradientUnits="userSpaceOnUse"><stop offset="0" stop-color="#fff"/><stop offset=".078" stop-color="#FEFDEC"/><stop offset=".236" stop-color="#FCF7BB"/><stop offset=".459" stop-color="#F8ED6D"/><stop offset=".539" stop-color="#F6E94F"/><stop offset=".641" stop-color="#F5E84A"/><stop offset=".755" stop-color="#F3E43E"/><stop offset=".876" stop-color="#F0DD29"/><stop offset="1" stop-color="#EBD30F"/><stop offset="1" stop-color="#EBD30F"/></linearGradient><radialGradient id="i" cx="96.07" cy="217.459" r="30.602" fx="96.07" fy="217.459" gradientTransform="matrix(1 0 0 .847 0 28.519)" gradientUnits="userSpaceOnUse"><stop offset="0" stop-color="#fff"/><stop offset=".066" stop-color="#F4F7FA"/><stop offset=".182" stop-color="#D7E1EC"/><stop offset=".335" stop-color="#A7BDD7"/><stop offset=".516" stop-color="#668DB9"/><stop offset=".652" stop-color="#3065A0"/><stop offset=".916" stop-color="#1A3A6B"/></radialGradient><radialGradient id="c" cx="-38.266" cy="214.142" r="20.102" fx="-38.266" fy="214.142" gradientTransform="matrix(-1 0 0 1 55.653 0)" gradientUnits="userSpaceOnUse"><stop offset="0" stop-color="#fff"/><stop offset="1" stop-color="#3065A0"/></radialGradient><radialGradient id="g" cx="-37.291" cy="214.005" r="19.446" gradientUnits="userSpaceOnUse" gradientTransform="matrix(-1 0 0 .847 55.653 28.519)" fy="214.005" fx="-37.291"><stop offset="0" stop-color="#fff"/><stop offset="1" stop-color="#224987"/></radialGradient><linearGradient id="h" x1="-100.206" x2="-83.826" y1="222.647" y2="222.647" gradientTransform="translate(191.69)" gradientUnits="userSpaceOnUse"><stop offset=".028" stop-color="#84A8C9"/><stop offset=".108" stop-color="#88ABCB"/><stop offset=".191" stop-color="#95B5CE"/><stop offset=".253" stop-color="#A3C0D3"/><stop offset=".294" stop-color="#9CBBD0"/><stop offset=".355" stop-color="#88ACCA"/><stop offset=".427" stop-color="#6A94BE"/><stop offset=".508" stop-color="#4177AF"/><stop offset=".511" stop-color="#3F76AF"/><stop offset=".736" stop-color="#224987"/><stop offset=".829" stop-color="#244D8A"/><stop offset=".924" stop-color="#2A5794"/><stop offset="1" stop-color="#3065A0"/></linearGradient><radialGradient id="b" cx="-62.017" cy="217.679" r="17.176" fx="-62.017" fy="217.679" gradientTransform="matrix(-1 0 0 1 55.359 0)" gradientUnits="userSpaceOnUse"><stop offset="0" stop-color="#fff"/><stop offset="1" stop-color="#A42522"/></radialGradient><radialGradient id="a" cx="-64.877" cy="220.876" r="14.119" gradientUnits="userSpaceOnUse" gradientTransform="matrix(-1 0 0 1 55.359 0)" fy="220.876" fx="-64.877"><stop offset="0" stop-color="#ff8e6b"/><stop offset=".826" stop-color="#A40E0A"/><stop offset="1" stop-color="#660D0B"/></radialGradient><radialGradient cx="-64.877" cy="220.876" r="14.119" xlink:href="#a" gradientUnits="userSpaceOnUse" gradientTransform="matrix(-1 0 0 1 55.359 0)" fx="-64.877" fy="220.876"/><radialGradient cx="-62.017" cy="217.679" r="17.176" xlink:href="#b" gradientUnits="userSpaceOnUse" gradientTransform="matrix(-1 0 0 1 55.359 0)" fx="-62.017" fy="217.679"/><radialGradient cx="-38.266" cy="214.142" r="20.102" xlink:href="#c" gradientUnits="userSpaceOnUse" gradientTransform="matrix(-1 0 0 1 55.653 0)" fx="-38.266" fy="214.142"/><linearGradient x1="103.99" x2="118.07" y1="229.561" y2="229.189" xlink:href="#d" gradientUnits="userSpaceOnUse" gradientTransform="matrix(1.137 0 0 1.137 -103.079 -229.983)"/><linearGradient x1="107.77" x2="105.604" y1="228.699" y2="227.569" xlink:href="#e" gradientUnits="userSpaceOnUse" gradientTransform="matrix(1.137 0 0 1.137 -103.079 -229.983)"/><linearGradient x1="105.57" x2="115.738" y1="226.415" y2="240.775" xlink:href="#f" gradientUnits="userSpaceOnUse"/><radialGradient cx="-37.291" cy="214.005" r="19.446" xlink:href="#g" gradientUnits="userSpaceOnUse" gradientTransform="matrix(-1.177 0 0 .997 -40.407 -205.716)" fx="-37.291" fy="214.005"/><linearGradient x1="-100.206" x2="-83.826" y1="222.647" y2="222.647" xlink:href="#h" gradientUnits="userSpaceOnUse" gradientTransform="matrix(1.177 0 0 1.177 119.683 -239.278)"/><radialGradient cx="96.07" cy="217.459" r="30.602" xlink:href="#i" gradientUnits="userSpaceOnUse" gradientTransform="matrix(1 0 0 .847 0 28.519)" fx="96.07" fy="217.459"/><linearGradient x1="103.99" x2="118.07" y1="229.561" y2="229.189" xlink:href="#d" gradientUnits="userSpaceOnUse" gradientTransform="matrix(1.137 0 0 1.137 -103.079 -229.983)"/><linearGradient x1="107.77" x2="105.604" y1="228.699" y2="227.569" xlink:href="#e" gradientUnits="userSpaceOnUse" gradientTransform="matrix(1.137 0 0 1.137 -103.079 -229.983)"/><linearGradient x1="105.57" x2="115.738" y1="226.415" y2="240.775" xlink:href="#f" gradientUnits="userSpaceOnUse"/><linearGradient x1="107.77" x2="105.604" y1="228.699" y2="227.569" xlink:href="#e" gradientUnits="userSpaceOnUse" gradientTransform="matrix(1.177 0 0 1.177 -107.601 -240.043)"/><linearGradient x1="103.99" x2="118.07" y1="229.561" y2="229.189" xlink:href="#d" gradientUnits="userSpaceOnUse" gradientTransform="matrix(1.177 0 0 1.177 -107.601 -240.043)"/><radialGradient cx="-64.877" cy="220.876" r="14.119" xlink:href="#a" gradientUnits="userSpaceOnUse" gradientTransform="matrix(-1.177 0 0 1.177 -44.154 -239.023)" fx="-64.877" fy="220.876"/></defs><g><path stroke="#fff" stroke-width="1.2" d="M11.4 5.3c-2.46 0-4.93.47-6.8 1.4-1.9.9-2.85 2.1-2.85 3.3v19.97c0 1.7.93 3.07 2.8 4.37 2.08 1.43 4.85 2.08 7.54 1.94-.3.48-.44 1-.44 1.53 0 3.02 5.23 5.32 11.71 5.33 6.5 0 11.75-2.3 11.75-5.32 0-.45-.1-.9-.34-1.33.2 0 .42.03.63.03 6.14 0 11.1-4.96 11.1-11.1 0-6.13-4.96-11.12-11.1-11.12-4.3 0-8.02 2.44-9.87 6l-2.12-3.72-2.37 4.16V10c0-1.2-.93-2.4-2.8-3.3-1.9-.93-4.36-1.4-6.82-1.4z"/></g></svg>