<svg xmlns="http://www.w3.org/2000/svg" width="48" height="48" xmlns:xlink="http://www.w3.org/1999/xlink"><defs><linearGradient id="a"><stop offset="0"/><stop offset="1" stop-color="#fff"/></linearGradient><linearGradient id="b" x1="4.143" x2="29.429" y1="6.964" y2="4.107" xlink:href="#a" gradientUnits="userSpaceOnUse" gradientTransform="translate(-1 -1.429)"/><linearGradient id="c" x1="4.143" x2="29.429" y1="6.964" y2="4.107" xlink:href="#a" gradientUnits="userSpaceOnUse" gradientTransform="matrix(.951 -.309 .309 .951 11.655 16.828)"/><linearGradient id="d" x1="4.143" x2="29.429" y1="6.964" y2="4.107" xlink:href="#a" gradientUnits="userSpaceOnUse" gradientTransform="matrix(.757 -.653 .653 .757 17.982 42.364)"/><linearGradient id="e" x1="4.143" x2="29.429" y1="6.964" y2="4.107" xlink:href="#a" gradientUnits="userSpaceOnUse" gradientTransform="matrix(.944 .211 -.204 .978 .733 20.767)"/></defs><g fill-rule="evenodd" stroke="#000"><path fill="url(#b)" d="M.43 5.64l4.36-4.5c4.05 3.4 9.47 4.93 15.5 2.5L18.35.5l11.14.8-4.43 11.34L22.5 8.7C15.46 12.97 5.22 10.26.43 5.65z"/><path fill="url(#c)" d="M15.2 23.1l2.75-5.62c4.92 2 10.54 1.76 15.52-2.4l-2.8-2.4 10.83-2.7-.7 12.17-3.66-2.94c-5.38 6.22-15.96 6.8-21.94 3.9z"/><path fill="url(#d)" d="M23.68 46.8l.36-6.27c5.3-.07 10.4-2.46 13.37-8.23l-3.5-1.12 8.95-6.68L46.92 36l-4.52-1.3c-2.56 7.8-12.08 12.45-18.72 12.1z"/><path fill="url(#e)" d="M.64 27.98l5.03-3.48c3.15 4.2 7.95 6.8 14.13 5.7l-1.18-3.47 10.36 3.12-6.5 10.17-1.62-4.4C13.34 38.3 4.23 33.5.64 28z"/></g></svg>