<svg xmlns="http://www.w3.org/2000/svg" width="48" height="48" xmlns:xlink="http://www.w3.org/1999/xlink"><defs><linearGradient id="e"><stop offset="0"/><stop offset="1" stop-color="#888a85"/></linearGradient><linearGradient id="c"><stop offset="0" stop-color="#2e3436" stop-opacity=".359"/><stop offset="1" stop-color="#2e3436" stop-opacity="0"/></linearGradient><linearGradient id="d"><stop offset="0"/><stop offset="1" stop-color="#888a85" stop-opacity="0"/></linearGradient><linearGradient id="b"><stop offset="0" stop-color="#2e3436"/><stop offset="1" stop-color="#2e3436" stop-opacity="0"/></linearGradient><linearGradient id="a"><stop offset="0" stop-color="#252625"/><stop offset="1" stop-color="#555753"/></linearGradient><linearGradient id="i" x1="4.321" x2="9.964" y1="20.652" y2="20.652" xlink:href="#a" gradientUnits="userSpaceOnUse" gradientTransform="matrix(.917 0 0 .917 -3.971 1.513)"/><linearGradient id="h" x1="4.321" x2="9.964" y1="20.652" y2="20.652" xlink:href="#a" gradientUnits="userSpaceOnUse" gradientTransform="matrix(-.917 0 0 .917 37.547 -3.214)"/><radialGradient id="g" cx="24.286" cy="43.929" r="20.714" xlink:href="#b" fx="24.286" fy="43.929" gradientTransform="matrix(1 0 0 .197 0 35.294)" gradientUnits="userSpaceOnUse"/><radialGradient id="k" cx="24.286" cy="43.929" r="20.714" xlink:href="#c" gradientUnits="userSpaceOnUse" gradientTransform="matrix(1 0 0 .197 0 35.294)" fx="24.286" fy="43.929"/><linearGradient id="j" x1="41.536" x2="41.536" y1="31" y2="28.357" xlink:href="#d" gradientUnits="userSpaceOnUse" gradientTransform="matrix(1.092 0 0 1.219 -4.857 -15.806)"/><linearGradient id="f" x1="48.112" x2="48.112" y1="29.3" y2="27.244" xlink:href="#e" gradientUnits="userSpaceOnUse" gradientTransform="matrix(1.092 0 0 1.219 -6 -15.734)"/></defs><g><path fill="url(#f)" fill-rule="evenodd" stroke="#000" d="M45.43 17.2h2.2v3.23h-2.2z" color="#000" stroke-linejoin="bevel" overflow="visible" enable-background="accumulate"/><path fill="#555753" fill-rule="evenodd" stroke="#000" d="M30.5 26.84c-.07-3.14.7-6.44 3.9-9.67L46.3 17l-.2 5.75-9.53-.1c-1.5.74-2.33 4.83-2.7 6.54l-3.37-2.36z"/><path fill="none" stroke="#babdb6" d="M34.75 18.04H45.5"/><path fill="url(#g)" fill-rule="evenodd" d="M45 43.93a20.7 4.07 0 1 1-41.43 0 20.7 4.07 0 1 1 41.43 0z" transform="matrix(.776 -.127 .127 .776 -8.8 7.058)" color="#000" overflow="visible" enable-background="accumulate"/><path fill="url(#h)" fill-rule="evenodd" d="M28.4 20.86c1.82-.28 5.04.82 5.04 2.54l.14-12.62c.03-1.82-3.95-2.2-5.17-2.17v12.26z" color="#000" overflow="visible" enable-background="accumulate"/><path fill="url(#i)" fill-rule="evenodd" d="M5.17 25.6c-1.8-.3-5.03.8-5.03 2.52L0 15.5c-.03-1.82 3.94-2.2 5.17-2.16V25.6z" color="#000" overflow="visible" enable-background="accumulate"/><path fill="#a40000" fill-rule="evenodd" stroke="#790000" d="M3.64 10l-.27 29.54 1.16 1.3 26.7-34.18-1.53-.97L3.64 10z" stroke-linejoin="bevel"/><path fill="#ef2929" fill-rule="evenodd" stroke="#790000" d="M5.2 11.4l-.26 29.53 25.54-6.35.8-27.5L5.2 11.4z"/><path fill="none" stroke="#ffa1a1" d="M6.2 12.18l-.44 27.44 23.63-5.84.7-25.47L6.2 12.2z"/><path fill-rule="evenodd" d="M3.9 17.3c9.5-.47 19.03-2.35 28.55-5.38L32 24.56c-5.2.72-9.85-1.32-13.04-.93-3.23.38-9.9 5.9-15.07 6.17V17.3z"/><path fill="#fff" fill-rule="evenodd" d="M5.88 19c3.36 1.24 6.72 2.64 10.08 2.88 0 0-4.6 3.47-7.14 2.75C6.3 23.9 5.88 19 5.88 19z"/><path fill="#fff" fill-rule="evenodd" d="M29.9 15.8c-3 1.98-5.96 4.1-9.2 5.08 0 0 5.3 2.35 7.6 1.08 2.28-1.27 1.6-6.15 1.6-6.15z"/><path fill-rule="evenodd" d="M3.95 17.3c-1.8.27-3.08-.4-3.86-1.58l.06 12.44c1.28 1.95 2.64 1.67 3.86 1.62l-.07-12.5z" color="#000" overflow="visible" enable-background="accumulate"/><path fill-rule="evenodd" d="M31.8 12c1.2-.17 1.97-.46 1.83-1.6l.16 12.53c-.37 1.02-1.4 1.52-2.07 1.57L31.8 12z" color="#000" overflow="visible" enable-background="accumulate"/><g stroke="#000" stroke-width="1.52"><path fill="#eeeeec" fill-rule="evenodd" d="M15.47 31.18l11.8 3.25s-.93-5.73-3.87-6.54c-2.95-.82-7.93 3.28-7.93 3.28z"/><path fill="none" d="M18.64 32.08l1.18-3.42"/><path fill="none" d="M21.7 32.65l1.6-4.56"/><path fill="none" d="M24.35 33.38l1.18-3.42"/></g><path fill="none" stroke="#000" d="M34.92 26.34c3.15 1.4 5.12-1.1 5.12-3.68"/><path fill="url(#j)" fill-rule="evenodd" d="M35.08 18.76h11.05v3.43h-10.2l-.85-3.44z" color="#000" overflow="visible" enable-background="accumulate"/><path fill="url(#k)" fill-rule="evenodd" d="M45 43.93a20.7 4.07 0 1 1-41.43 0 20.7 4.07 0 1 1 41.43 0z" transform="matrix(.471 .001 -.001 .471 23.893 12.076)" color="#000" overflow="visible" enable-background="accumulate"/><path fill-rule="evenodd" d="M36.3 23.14c-.43 1.48.37 2.23 1.06 2.5-.5-1.07-.2-2.05 1-2.93l-2.07.44z"/><path fill="#555753" fill-rule="evenodd" stroke="#000" d="M44 17l1.36-2.86h1.07v2.8L44 17z" color="#000" overflow="visible" enable-background="accumulate"/></g></svg>