<svg xmlns="http://www.w3.org/2000/svg" width="48" height="48" xmlns:xlink="http://www.w3.org/1999/xlink"><defs><linearGradient id="b" x1="245.925" x2="275.675" y1="380.283" y2="362.533" gradientUnits="userSpaceOnUse"><stop offset="0" stop-color="#fff" stop-opacity=".502"/><stop offset="1" stop-color="#b3bdca" stop-opacity=".502"/></linearGradient><linearGradient x1="237.088" x2="280.796" y1="383.691" y2="383.691" gradientUnits="userSpaceOnUse"><stop offset=".006" stop-color="#fff"/><stop offset=".421" stop-color="#C3CBD4"/><stop offset="1" stop-color="#A1A8B2"/></linearGradient><linearGradient x1="245.926" x2="275.676" y1="390.665" y2="372.915" gradientUnits="userSpaceOnUse"><stop offset="0" stop-color="#fff"/><stop offset=".528" stop-color="#DBE2E6"/><stop offset="1" stop-color="#B3BDCA"/></linearGradient><linearGradient id="a" x1="237.088" x2="280.796" y1="373.31" y2="373.31" gradientUnits="userSpaceOnUse"><stop offset=".006" stop-color="#fff"/><stop offset=".421" stop-color="#C3CBD4"/><stop offset="1" stop-color="#A1A8B2"/></linearGradient><linearGradient x1="245.925" x2="275.675" y1="380.283" y2="362.533" gradientUnits="userSpaceOnUse"><stop offset="0" stop-color="#fff"/><stop offset=".528" stop-color="#DBE2E6"/><stop offset="1" stop-color="#B3BDCA"/></linearGradient><linearGradient id="d" x1="14.429" x2="42.857" y1="14.571" y2="20" xlink:href="#a" gradientUnits="userSpaceOnUse" gradientTransform="matrix(1.166 0 0 1.169 -4.849 -3.378)"/><linearGradient id="c" x1="2.676" x2="48.538" y1="28.307" y2="29.317" xlink:href="#b" gradientUnits="userSpaceOnUse"/></defs><g><path fill="url(#c)" stroke="#31343a" stroke-width="1.5" d="M43.9 30.88L27.6 26.7s1.42-2.77-.86-4c-2.3-1.2-6.14-2.22-9.57 0-3.8 2.48-3.2 5.45-1.43 6.87 2.03 1.64 6.14.7 6.14.7l5.72 9.96-2.65 1.62-23.2-13.4 23.2-11.67 23.2 11.67-4.26 2.43z" stroke-dasharray="3,1.5"/><path fill="#2e3436" d="M27.62 40.02L22.2 30.3s-4.12.93-6.15-.7c-1.76-1.43-2.37-4.4 1.43-6.87 3.43-2.23 7.28-1.2 9.57 0 2.28 1.22.85 4 .85 4l16 4-16.28 9.3z" color="#000" overflow="visible" enable-background="accumulate"/><path fill="url(#d)" stroke="#31343a" stroke-width=".8" d="M27.2 30.87l-6.33-11.35s-4.8 1.08-7.17-.84c-2.05-1.66-2.76-5.13 1.67-8 4-2.62 8.5-1.43 11.16 0 2.67 1.4 1 4.66 1 4.66l18.66 4.68-19 10.85z" color="#000" overflow="visible" enable-background="accumulate"/><path fill="none" stroke="#eeeeec" stroke-opacity=".753" stroke-width=".8" d="M27.55 29.83l-6.25-11.2s-4.9 1.23-7.06-.5c-1.86-1.52-2.35-4.26 1.67-6.88 3.64-2.36 9.08-1.12 10.85.6 1.38 1.36-.36 4.05-.36 4.05l17.64 4.44-16.5 9.5z" color="#000" overflow="visible" enable-background="accumulate"/></g></svg>