<svg xmlns="http://www.w3.org/2000/svg" width="48" height="48" xmlns:xlink="http://www.w3.org/1999/xlink"><defs><linearGradient id="d" x1="237.088" x2="280.796" y1="373.31" y2="373.31" gradientUnits="userSpaceOnUse"><stop offset=".006" stop-color="#fff"/><stop offset=".421" stop-color="#C3CBD4"/><stop offset="1" stop-color="#b4bac2"/></linearGradient><linearGradient id="e" x1="237.088" x2="280.796" y1="373.31" y2="373.31" gradientUnits="userSpaceOnUse"><stop offset=".006" stop-color="#fff"/><stop offset=".421" stop-color="#C3CBD4"/><stop offset="1" stop-color="#c8ccd2"/></linearGradient><linearGradient id="c" x1="237.088" x2="280.796" y1="373.31" y2="373.31" gradientUnits="userSpaceOnUse"><stop offset=".006" stop-color="#fff"/><stop offset=".421" stop-color="#d5dae0"/><stop offset="1" stop-color="#d0d5da"/></linearGradient><linearGradient id="f" x1="237.088" x2="280.796" y1="383.691" y2="383.691" gradientUnits="userSpaceOnUse"><stop offset=".006" stop-color="#fff"/><stop offset=".421" stop-color="#C3CBD4"/><stop offset="1" stop-color="#A1A8B2"/></linearGradient><linearGradient id="g" x1="245.926" x2="275.676" y1="390.665" y2="372.915" gradientUnits="userSpaceOnUse"><stop offset="0" stop-color="#fff"/><stop offset=".528" stop-color="#DBE2E6"/><stop offset="1" stop-color="#B3BDCA"/></linearGradient><linearGradient id="a" x1="237.088" x2="280.796" y1="373.31" y2="373.31" gradientUnits="userSpaceOnUse"><stop offset=".006" stop-color="#fff"/><stop offset=".421" stop-color="#C3CBD4"/><stop offset="1" stop-color="#A1A8B2"/></linearGradient><linearGradient id="b" x1="245.925" x2="275.675" y1="380.283" y2="362.533" gradientUnits="userSpaceOnUse"><stop offset="0" stop-color="#fff"/><stop offset=".528" stop-color="#DBE2E6"/><stop offset="1" stop-color="#B3BDCA"/></linearGradient><linearGradient x1="237.088" x2="280.796" y1="373.31" y2="373.31" xlink:href="#a" gradientUnits="userSpaceOnUse"/><linearGradient x1="245.925" x2="275.675" y1="380.283" y2="362.533" xlink:href="#b" gradientUnits="userSpaceOnUse"/><linearGradient x1="237.088" x2="280.796" y1="373.31" y2="373.31" xlink:href="#a" gradientUnits="userSpaceOnUse"/><linearGradient x1="245.925" x2="275.675" y1="380.283" y2="362.533" xlink:href="#b" gradientUnits="userSpaceOnUse"/><linearGradient id="l" x1="237.088" x2="280.796" y1="373.31" y2="373.31" xlink:href="#c" gradientUnits="userSpaceOnUse"/><linearGradient id="m" x1="245.925" x2="275.675" y1="380.283" y2="362.533" xlink:href="#b" gradientUnits="userSpaceOnUse"/><linearGradient id="h" x1="237.088" x2="280.796" y1="373.31" y2="373.31" xlink:href="#d" gradientUnits="userSpaceOnUse"/><linearGradient id="i" x1="245.925" x2="275.675" y1="380.283" y2="362.533" xlink:href="#b" gradientUnits="userSpaceOnUse"/><linearGradient id="j" x1="237.088" x2="280.796" y1="373.31" y2="373.31" xlink:href="#e" gradientUnits="userSpaceOnUse"/><linearGradient id="k" x1="245.925" x2="275.675" y1="380.283" y2="362.533" xlink:href="#b" gradientUnits="userSpaceOnUse"/></defs><g><g><path fill="url(#f)" stroke="#737b87" stroke-width=".753" d="M258.94 371.9l21.86 10.97-21.86 12.62-21.85-12.63 21.84-10.98z" transform="matrix(1.062 0 0 1.062 -250.951 -372.577)"/><g transform="matrix(1.062 0 0 1.062 -250.951 -372.577)"><linearGradient x1="245.926" x2="275.676" y1="390.665" y2="372.915" gradientUnits="userSpaceOnUse"><stop offset="0" stop-color="#fff"/><stop offset=".528" stop-color="#DBE2E6"/><stop offset="1" stop-color="#B3BDCA"/></linearGradient><path fill="url(#g)" d="M237.93 382.9l21 12.13 21.02-12.13-21-10.56-21.02 10.56zm21-9.67c.35.18 18.1 9.1 19.34 9.72-1.15.66-18.95 10.94-19.33 11.16-.38-.22-18.2-10.5-19.32-11.15 1.22-.62 18.98-9.54 19.32-9.72z"/></g><path fill="none" stroke="#31343a" stroke-width=".79818" d="M24.04 22.37l23.2 11.67-23.2 13.4-23.2-13.4 23.2-11.67z"/></g><g><path fill="url(#h)" d="M258.94 361.5l21.86 11-21.86 12.6-21.85-12.6 21.84-11z" transform="matrix(1.062 0 0 1.062 -250.951 -368.246)"/><g transform="matrix(1.062 0 0 1.062 -250.951 -368.246)"><linearGradient x1="245.925" x2="275.675" y1="380.283" y2="362.533" gradientUnits="userSpaceOnUse"><stop offset="0" stop-color="#fff"/><stop offset=".528" stop-color="#DBE2E6"/><stop offset="1" stop-color="#B3BDCA"/></linearGradient><path fill="url(#i)" d="M237.93 372.52l21 12.13 21.02-12.13-21-10.56-21.02 10.56zm21-9.67c.35.17 18.1 9.1 19.34 9.72-1.15.66-18.95 10.93-19.33 11.15-.38-.22-18.2-10.5-19.32-11.15 1.22-.62 18.98-9.55 19.32-9.72z"/></g><path fill="none" stroke="#31343a" stroke-width=".79818" d="M24.04 15.68l23.2 11.66-23.2 13.4-23.2-13.4 23.2-11.66z"/></g><g><path fill="url(#j)" d="M258.94 361.5l21.86 11-21.86 12.6-21.85-12.6 21.84-11z" transform="matrix(1.062 0 0 1.062 -250.736 -375.675)"/><g transform="matrix(1.062 0 0 1.062 -250.736 -375.675)"><linearGradient x1="245.925" x2="275.675" y1="380.283" y2="362.533" gradientUnits="userSpaceOnUse"><stop offset="0" stop-color="#fff"/><stop offset=".528" stop-color="#DBE2E6"/><stop offset="1" stop-color="#B3BDCA"/></linearGradient><path fill="url(#k)" d="M237.93 372.52l21 12.13 21.02-12.13-21-10.56-21.02 10.56zm21-9.67c.35.17 18.1 9.1 19.34 9.72-1.15.66-18.95 10.93-19.33 11.15-.38-.22-18.2-10.5-19.32-11.15 1.22-.62 18.98-9.55 19.32-9.72z"/></g><path fill="none" stroke="#31343a" stroke-width=".79818" d="M24.26 8.25l23.2 11.66-23.2 13.4-23.2-13.4 23.2-11.65z"/></g><g><path fill="url(#l)" d="M258.94 361.5l21.86 11-21.86 12.6-21.85-12.6 21.84-11z" transform="matrix(1.062 0 0 1.062 -250.736 -383.469)"/><g transform="matrix(1.062 0 0 1.062 -250.736 -383.469)"><linearGradient x1="245.925" x2="275.675" y1="380.283" y2="362.533" gradientUnits="userSpaceOnUse"><stop offset="0" stop-color="#fff"/><stop offset=".528" stop-color="#DBE2E6"/><stop offset="1" stop-color="#B3BDCA"/></linearGradient><path fill="url(#m)" d="M237.93 372.52l21 12.13 21.02-12.13-21-10.56-21.02 10.56zm21-9.67c.35.17 18.1 9.1 19.34 9.72-1.15.66-18.95 10.93-19.33 11.15-.38-.22-18.2-10.5-19.32-11.15 1.22-.62 18.98-9.55 19.32-9.72z"/></g><path fill="none" stroke="#31343a" stroke-width=".79818" d="M24.26.45l23.2 11.67-23.2 13.4-23.2-13.4L24.25.45z"/></g></g></svg>