<svg xmlns="http://www.w3.org/2000/svg" width="48" height="48" xmlns:xlink="http://www.w3.org/1999/xlink"><defs><radialGradient id="g" cx="835.94" cy="1478.765" r="24.089" fx="835.94" fy="1478.765" gradientTransform="matrix(.983 .185 -.185 .983 -217.796 -717.533)" gradientUnits="userSpaceOnUse"><stop offset="0" stop-color="#f6e94e" stop-opacity=".125"/><stop offset=".5" stop-color="#fff"/><stop offset="1" stop-color="#f6e94e" stop-opacity=".125"/></radialGradient><linearGradient id="f"><stop offset="0" stop-color="#edd400"/><stop offset=".33" stop-color="#edd400" stop-opacity="0"/><stop offset=".66" stop-color="#edd400" stop-opacity="0"/><stop offset="1" stop-color="#edd400"/></linearGradient><radialGradient id="h" cx="831.441" cy="1460.027" r="39.629" gradientUnits="userSpaceOnUse" gradientTransform="matrix(.983 .185 -.185 .983 -217.796 -717.533)" fy="1460.027" fx="831.441"><stop offset=".006" stop-color="#fff"/><stop offset=".326" stop-color="#EBF0F7"/><stop offset=".551" stop-color="#DFE4EB"/><stop offset=".871" stop-color="#C4CBD9"/></radialGradient><radialGradient id="i" cx="830.91" cy="1465.858" r="32.507" gradientUnits="userSpaceOnUse" gradientTransform="matrix(.94 .531 -.531 .94 27.751 -1803.557)" fy="1465.858" fx="830.91"><stop offset=".006" stop-color="#fff"/><stop offset=".697" stop-color="#EBF0F7"/><stop offset="1" stop-color="#DFE4EB"/></radialGradient><radialGradient cx="835.94" cy="1478.765" r="24.089" xlink:href="#a" gradientUnits="userSpaceOnUse" gradientTransform="matrix(.94 .531 -.531 .94 24.893 -1806.605)" fx="835.94" fy="1478.765"/><radialGradient id="a" cx="835.94" cy="1478.765" r="24.089" gradientUnits="userSpaceOnUse" gradientTransform="matrix(.983 .185 -.185 .983 -217.796 -717.533)" fy="1478.765" fx="835.94"><stop offset="0" stop-color="#fff"/><stop offset=".354" stop-color="#F6F4DD"/><stop offset=".719" stop-color="#F6E94E"/><stop offset="1" stop-color="#f6e94e"/></radialGradient><radialGradient cx="835.94" cy="1478.765" r="24.089" xlink:href="#a" gradientUnits="userSpaceOnUse" gradientTransform="matrix(.94 .531 -.531 .94 24.893 -1806.605)" fx="835.94" fy="1478.765"/><radialGradient id="b" cx="818.065" cy="1469.815" r="4.967" gradientUnits="userSpaceOnUse" gradientTransform="matrix(.983 .185 -.185 .983 -217.796 -717.533)" fy="1469.815" fx="818.065"><stop offset=".006" stop-color="#fff"/><stop offset=".326" stop-color="#EBF0F7"/><stop offset=".551" stop-color="#DFE4EB"/><stop offset=".871" stop-color="#B8BFCC"/></radialGradient><linearGradient id="c" x1="810.044" x2="811.746" y1="1472.97" y2="1466.985" gradientTransform="matrix(.983 .185 -.185 .983 -217.796 -717.533)" gradientUnits="userSpaceOnUse"><stop offset=".006" stop-color="#CED2D9"/><stop offset=".225" stop-color="#B8BFCC"/><stop offset=".332" stop-color="#B8BFCC"/><stop offset=".447" stop-color="#C8CDD7"/><stop offset=".67" stop-color="#F0F2F5"/><stop offset=".742" stop-color="#fff"/><stop offset="1" stop-color="#EBF0F7"/></linearGradient><linearGradient id="e" x1="807.93" x2="806.645" y1="1466.693" y2="1471.262" gradientTransform="matrix(.983 .185 -.185 .983 -217.796 -717.533)" gradientUnits="userSpaceOnUse"><stop offset=".376" stop-color="#C4CBD9"/><stop offset=".666" stop-color="#D4DAE5"/><stop offset="1" stop-color="#EBF0F7"/></linearGradient><linearGradient id="d" x1="815.763" x2="820.467" y1="1478.423" y2="1466.056" gradientTransform="matrix(.983 .185 -.185 .983 -217.796 -717.533)" gradientUnits="userSpaceOnUse"><stop offset=".006" stop-color="#DFE4EB"/><stop offset=".264" stop-color="#D8E0F0"/><stop offset=".486" stop-color="#E8ECF6"/><stop offset=".742" stop-color="#fff"/></linearGradient><radialGradient id="p" cx="818.065" cy="1469.815" r="4.967" xlink:href="#b" gradientUnits="userSpaceOnUse" gradientTransform="matrix(1.013 .572 -.572 1.013 26.501 -1947.421)" fx="818.065" fy="1469.815"/><linearGradient id="o" x1="810.044" x2="811.746" y1="1472.97" y2="1466.985" xlink:href="#c" gradientUnits="userSpaceOnUse" gradientTransform="matrix(1.013 .572 -.572 1.013 26.776 -1947.016)"/><linearGradient id="m" x1="815.763" x2="820.467" y1="1478.423" y2="1466.056" xlink:href="#d" gradientUnits="userSpaceOnUse" gradientTransform="matrix(1.013 .572 -.572 1.013 26.776 -1947.016)"/><linearGradient id="n" x1="807.93" x2="806.645" y1="1466.693" y2="1471.262" xlink:href="#e" gradientUnits="userSpaceOnUse" gradientTransform="matrix(.983 .185 -.185 .983 -217.796 -717.533)"/><linearGradient id="j" x1="25.629" x2="26.262" y1="35.43" y2="10.935" xlink:href="#f" gradientUnits="userSpaceOnUse"/><radialGradient id="l" cx="24.886" cy="27.67" r="14.894" xlink:href="#a" fx="24.886" fy="27.67" gradientTransform="matrix(1.239 -.962 .6 .773 -21.076 28.968)" gradientUnits="userSpaceOnUse"/><linearGradient id="k" x1="40.68" x2="52.717" y1="18.286" y2="4.381" xlink:href="#g" gradientUnits="userSpaceOnUse" gradientTransform="translate(-27.556 8.317)"/></defs><g><path fill="url(#h)" d="M327.08 873.35l21.4 7.14-16.2 28.7-19.04-16.33 13.84-19.52z" transform="matrix(1.022 .348 -.348 1.022 -2.106 -997.417)"/><path fill="none" stroke="#2e3436" stroke-width=".69984" d="M28.38 9.06l19.4 14.73-26.55 23.7L7.45 24.2 28.38 9.05z"/><path fill="none" stroke="#fff" stroke-width=".7" d="M28.3 10.2l18.23 13.7L21.47 46.2 8.53 24.5 28.3 10.2z"/><path fill="url(#i)" d="M30.62 31.27c-5.48 4.7-11.7 6.48-13.86 3.95-2.17-2.53.53-8.4 6-13.1 5.5-4.7 11.7-6.48 13.87-3.95 2.17 2.52-.52 8.4-6 13.1z"/><path fill="none" stroke="url(#j)" stroke-width=".929" d="M30.77 23.2a4.74 11.83 0 1 1-9.48 0 4.74 11.83 0 1 1 9.47 0z" transform="matrix(.714 .805 -.805 .714 26.633 -10.851)" color="#000" overflow="visible"/><path fill="url(#k)" d="M14.74 7.5l20.32 9.77c.33.18.63.4.87.68 2.1 2.45-.5 8.12-5.8 12.67-5.32 4.55-11.3 6.26-13.4 3.82-.16-.18-.3-.38-.4-.6L7.66 15.48"/><path fill="url(#l)" stroke="#f6e94e" stroke-width=".8" d="M14.64 7.65l20.3 9.78c.35.17.64.4.88.67 2.1 2.45-.5 8.12-5.8 12.67-5.3 4.55-11.3 6.26-13.4 3.82-.16-.2-.3-.38-.4-.6L7.57 15.63" opacity=".5"/><path fill="none" stroke="#2e3436" stroke-width="1.4" d="M15.53 6.95c-2.05-.74-3.83-.78-4.88-.6L5.7.88C5.3.5 3.9 1.32 2.57 2.7 1.26 4.1.5 5.56.9 5.94L6 10.7c-.3 1.37.07 3.3.5 4.7-.07.94.14 1.76.68 2.35 1.54 1.66 5.2.77 8.15-1.98 2.96-2.75 4.1-6.32 2.56-7.98-.56-.6-1.4-.88-2.37-.85z"/><path fill="url(#m)" d="M15.33 15.77c-2.96 2.75-6.6 3.64-8.15 1.98-1.54-1.66-.4-5.24 2.57-8 2.96-2.74 6.6-3.62 8.15-1.96 1.54 1.65.4 5.22-2.57 7.97z"/><ellipse cx="303.262" cy="875.747" fill="url(#n)" ry="2.992" rx=".855" transform="matrix(.801 .844 -.844 .801 499.577 -954.016)"/><path d="M1.38 6c.03-.58.68-1.66 1.68-2.72 1.05-1.1 2.15-1.85 2.7-1.85-.15.64-.8 1.66-1.74 2.65-.98 1.05-2 1.78-2.64 1.92z"/><path fill="url(#o)" d="M10.65 6.36L5.7.86C6.1 1.25 5.34 2.7 4 4.1c-1.3 1.4-2.7 2.23-3.1 1.85l5.07 4.76c.62.66 2.16.23 3.45-.96 1.3-1.2 1.82-2.7 1.2-3.38z"/><path fill="#737b87" stroke="#fff" stroke-width=".1" d="M9.9 6.82L9 5.87c-.03.1-.07.2-.12.28l.92.95c.04-.1.07-.2.1-.28z"/><path fill="#737b87" stroke="#fff" stroke-width=".1" d="M7.02 4.23L5.72 2.9c.07-.1.12-.2.17-.3l1.26 1.33c-.04.1-.08.2-.14.3z"/><path fill="#737b87" stroke="#fff" stroke-width=".1" d="M9 8.36c.06-.1.12-.2.2-.28l-.97-.94c-.07.1-.14.16-.22.25l1 .96z"/><path fill="#737b87" stroke="#fff" stroke-width=".1" d="M4.76 4.22l1.33 1.3c.07-.1.14-.18.22-.27L5 3.95c-.08.08-.16.17-.24.27z"/><path fill="#737b87" stroke="#fff" stroke-width=".1" d="M8.5 6.8l.94.96c.06-.1.12-.18.17-.27l-.93-.98c-.05.1-.1.18-.18.27z"/><path fill="#737b87" stroke="#fff" stroke-width=".1" d="M5.3 3.53c.08-.1.15-.2.22-.3l1.3 1.35c-.06.1-.13.2-.2.3l-1.3-1.35z"/><path fill="url(#p)" d="M10.37 5.95c.63.67.1 2.18-1.2 3.38-1.28 1.2-2.83 1.62-3.45.95-.46 2.1.66 5.47 1.15 6.3.08.13.17.25.26.35 1.45 1.56 4.88.73 7.66-1.86 2.77-2.58 3.84-5.94 2.4-7.5-.2-.2-.45-.38-.72-.5-2.56-1.24-4.85-1.35-6.1-1.12z"/></g></svg>