<svg xmlns="http://www.w3.org/2000/svg" width="48" height="48" version="1"><g><path fill="#eeeeec" fill-rule="evenodd" stroke="#2e3436" stroke-width="2" d="M1.1 1h45.76v46H1.1z" color="#000" overflow="visible" enable-background="accumulate"/><path fill="none" stroke="#2e3436" stroke-width="1.5" d="M1 16.38h46"/><path fill="none" stroke="#2e3436" stroke-width="1.5" d="M1 31.67h46"/><path fill="#ef2929" fill-rule="evenodd" d="M3 2.92v11.5h16.64l5.74-5.64-5.9-5.86H3z"/><path fill="#729fcf" fill-rule="evenodd" d="M2.96 18.32v11.5H19.6l5.73-5.64-5.9-5.86H2.95z"/><path fill="#4e9a06" fill-rule="evenodd" d="M2.96 33.6v11.5H19.6l5.73-5.64-5.9-5.86H2.95z"/><path fill="#edd400" fill-rule="evenodd" d="M44.88 2.9v11.5H24.3l6.3-5.65-6.12-5.86h20.4z"/><path fill="#ad7fa8" fill-rule="evenodd" d="M44.93 18.3v11.5H24.36l6.2-5.65-6.03-5.86h20.4z"/><path fill="#8ae234" fill-rule="evenodd" d="M44.93 33.57v11.5H24.27l6.12-5.63-5.96-5.87h20.5z"/></g></svg>