<svg xmlns="http://www.w3.org/2000/svg" width="48" height="48" xmlns:xlink="http://www.w3.org/1999/xlink"><defs><linearGradient id="a"><stop offset="0" stop-color="#eeeeec"/><stop offset="1" stop-color="#eeeeec" stop-opacity="0"/></linearGradient><linearGradient x1="22.639" x2="23.278" y1="8.028" y2="44.889" xlink:href="#a" gradientUnits="userSpaceOnUse" gradientTransform="matrix(1.207 0 0 1.208 -4.139 -4.874)"/><linearGradient id="b"><stop offset="0" stop-color="#d3d3d3"/><stop offset="1" stop-color="#a8bebb"/></linearGradient><linearGradient x1="10.045" x2="31.233" y1="19.226" y2="39.559" xlink:href="#b" gradientUnits="userSpaceOnUse" gradientTransform="matrix(1.042 0 0 1.042 -.587 1.649)"/><radialGradient cx="13.437" cy="10.699" r="9.063" xlink:href="#c" gradientUnits="userSpaceOnUse" gradientTransform="matrix(1.454 .004 -.002 .731 16.928 12.385)" fx="13.437" fy="10.699"/><linearGradient id="c"><stop offset="0" stop-color="#fff"/><stop offset=".5" stop-color="#fff"/><stop offset="1" stop-color="#b6f9ff"/></linearGradient><radialGradient cx="14.144" cy="11.762" r="9.063" xlink:href="#c" gradientUnits="userSpaceOnUse" gradientTransform="matrix(1.402 -.021 .013 .854 -5.872 2.441)" fx="14.144" fy="11.762"/><linearGradient id="d"><stop offset="0" stop-color="#729fcf"/><stop offset="1" stop-color="#376da5"/></linearGradient><linearGradient x1="28.707" x2="28.735" y1="40.594" y2="9.414" xlink:href="#d" gradientUnits="userSpaceOnUse" gradientTransform="matrix(1.189 0 0 1.189 -3.783 -4.536)"/><linearGradient id="e"><stop offset="0" stop-color="#fff" stop-opacity="0"/><stop offset="1"/></linearGradient><linearGradient id="f" x2="48" y1="24" y2="24" xlink:href="#e" gradientUnits="userSpaceOnUse"/></defs><g><path fill="#fff" d="M0 0h48v48H0z" color="#000" overflow="visible" enable-background="accumulate"/><path fill="#babdb6" d="M0 24h8v8H0z" color="#000" overflow="visible" enable-background="accumulate"/><path fill="#babdb6" d="M8 32h8v8H8z" color="#000" overflow="visible" enable-background="accumulate"/><path fill="#babdb6" d="M16 40h8v8h-8z" color="#000" overflow="visible" enable-background="accumulate"/><path fill="#babdb6" d="M16 24h8v8h-8z" color="#000" overflow="visible" enable-background="accumulate"/><path fill="#babdb6" d="M24 32h8v8h-8z" color="#000" overflow="visible" enable-background="accumulate"/><path fill="#babdb6" d="M32 40h8v8h-8z" color="#000" overflow="visible" enable-background="accumulate"/><path fill="#babdb6" d="M8 0h8v8H8z" color="#000" overflow="visible" enable-background="accumulate"/><path fill="#babdb6" d="M0 8h8v8H0z" color="#000" overflow="visible" enable-background="accumulate"/><path fill="#babdb6" d="M8 16h8v8H8z" color="#000" overflow="visible" enable-background="accumulate"/><path fill="#babdb6" d="M16 8h8v8h-8z" color="#000" overflow="visible" enable-background="accumulate"/><path fill="#babdb6" d="M24 16h8v8h-8z" color="#000" overflow="visible" enable-background="accumulate"/><path fill="#babdb6" d="M32 24h8v8h-8z" color="#000" overflow="visible" enable-background="accumulate"/><path fill="#babdb6" d="M0 40h8v8H0z" color="#000" overflow="visible" enable-background="accumulate"/><path fill="#babdb6" d="M40 32h8v8h-8z" color="#000" overflow="visible" enable-background="accumulate"/><path fill="#babdb6" d="M40 0h8v8h-8z" color="#000" overflow="visible" enable-background="accumulate"/><path fill="#babdb6" d="M40 16h8v8h-8z" color="#000" overflow="visible" enable-background="accumulate"/><path fill="#babdb6" d="M32 8h8v8h-8z" color="#000" overflow="visible" enable-background="accumulate"/><path fill="#babdb6" d="M24 0h8v8h-8z" color="#000" overflow="visible" enable-background="accumulate"/><path fill="url(#f)" d="M0 0h48v48H0z"/></g></svg>