<svg xmlns="http://www.w3.org/2000/svg" width="48" height="48"><defs><linearGradient id="a" x1="237.088" x2="280.796" y1="383.691" y2="383.691" gradientUnits="userSpaceOnUse"><stop offset=".006" stop-color="#fff"/><stop offset=".421" stop-color="#C3CBD4"/><stop offset="1" stop-color="#A1A8B2"/></linearGradient><linearGradient id="b" x1="245.926" x2="275.676" y1="390.665" y2="372.915" gradientUnits="userSpaceOnUse"><stop offset="0" stop-color="#fff"/><stop offset=".528" stop-color="#DBE2E6"/><stop offset="1" stop-color="#B3BDCA"/></linearGradient><linearGradient id="c" x1="237.088" x2="280.796" y1="373.31" y2="373.31" gradientUnits="userSpaceOnUse"><stop offset=".006" stop-color="#fff"/><stop offset=".421" stop-color="#C3CBD4"/><stop offset="1" stop-color="#A1A8B2"/></linearGradient><linearGradient id="d" x1="245.925" x2="275.675" y1="380.283" y2="362.533" gradientUnits="userSpaceOnUse"><stop offset="0" stop-color="#fff"/><stop offset=".528" stop-color="#DBE2E6"/><stop offset="1" stop-color="#B3BDCA"/></linearGradient></defs><g><path fill="url(#a)" stroke="#737b87" stroke-width=".753" d="M258.94 371.9l21.86 10.97-21.86 12.62-21.85-12.63 21.84-10.98z" transform="matrix(1.062 0 0 1.062 -250.951 -378.006)"/><g transform="matrix(1.062 0 0 1.062 -250.951 -378.006)"><linearGradient x1="245.926" x2="275.676" y1="390.665" y2="372.915" gradientUnits="userSpaceOnUse"><stop offset="0" stop-color="#fff"/><stop offset=".528" stop-color="#DBE2E6"/><stop offset="1" stop-color="#B3BDCA"/></linearGradient><path fill="url(#b)" d="M237.93 382.9l21 12.13 21.02-12.13-21-10.56-21.02 10.56zm21-9.67c.35.18 18.1 9.1 19.34 9.72-1.15.66-18.95 10.94-19.33 11.16-.38-.22-18.2-10.5-19.32-11.15 1.22-.62 18.98-9.54 19.32-9.72z"/></g><path fill="none" stroke="#31343a" stroke-width=".79818" d="M24.07 17.1l23.2 11.67-23.2 13.4-23.2-13.4 23.2-11.67z"/><path fill="url(#c)" d="M258.94 361.5l21.86 11-21.86 12.6-21.85-12.6 21.84-11z" transform="matrix(1.062 0 0 1.062 -250.951 -378.006)"/><g transform="matrix(1.062 0 0 1.062 -250.951 -378.006)"><linearGradient x1="245.925" x2="275.675" y1="380.283" y2="362.533" gradientUnits="userSpaceOnUse"><stop offset="0" stop-color="#fff"/><stop offset=".528" stop-color="#DBE2E6"/><stop offset="1" stop-color="#B3BDCA"/></linearGradient><path fill="url(#d)" d="M237.93 372.52l21 12.13 21.02-12.13-21-10.56-21.02 10.56zm21-9.67c.35.17 18.1 9.1 19.34 9.72-1.15.66-18.95 10.93-19.33 11.15-.38-.22-18.2-10.5-19.32-11.15 1.22-.62 18.98-9.55 19.32-9.72z"/></g><path fill="none" stroke="#31343a" stroke-width=".79818" d="M24.07 6.07l23.2 11.67-23.2 13.4-23.2-13.4 23.2-11.67z"/><path stroke="#fff" stroke-dashoffset="1" d="M28.57 43.5h19v4h-19z" color="#000" overflow="visible" enable-background="accumulate"/><path stroke="#fff" stroke-dashoffset="1" d="M28.5 36.5h9v6h-9z" color="#000" overflow="visible" enable-background="accumulate"/><path fill="#ef2929" stroke="#fff" stroke-dashoffset="1" d="M38.57 28.5h9v14h-9z" color="#000" overflow="visible" enable-background="accumulate"/></g></svg>