<svg xmlns="http://www.w3.org/2000/svg" width="48" height="48" xmlns:xlink="http://www.w3.org/1999/xlink"><defs><linearGradient x1="237.088" x2="280.796" y1="383.691" y2="383.691" gradientUnits="userSpaceOnUse"><stop offset=".006" stop-color="#fff"/><stop offset=".421" stop-color="#C3CBD4"/><stop offset="1" stop-color="#A1A8B2"/></linearGradient><linearGradient x1="245.926" x2="275.676" y1="390.665" y2="372.915" gradientUnits="userSpaceOnUse"><stop offset="0" stop-color="#fff"/><stop offset=".528" stop-color="#DBE2E6"/><stop offset="1" stop-color="#B3BDCA"/></linearGradient><linearGradient id="a" x1="237.088" x2="280.796" y1="373.31" y2="373.31" gradientUnits="userSpaceOnUse"><stop offset=".006" stop-color="#fff"/><stop offset=".421" stop-color="#C3CBD4"/><stop offset="1" stop-color="#A1A8B2"/></linearGradient><linearGradient id="b" x1="245.925" x2="275.675" y1="380.283" y2="362.533" gradientUnits="userSpaceOnUse"><stop offset="0" stop-color="#fff"/><stop offset=".528" stop-color="#DBE2E6"/><stop offset="1" stop-color="#B3BDCA"/></linearGradient><linearGradient x1="237.088" x2="280.796" y1="373.31" y2="373.31" xlink:href="#a" gradientUnits="userSpaceOnUse"/><linearGradient x1="245.925" x2="275.675" y1="380.283" y2="362.533" xlink:href="#b" gradientUnits="userSpaceOnUse"/><linearGradient x1="237.088" x2="280.796" y1="373.31" y2="373.31" xlink:href="#a" gradientUnits="userSpaceOnUse"/><linearGradient id="c" x1="237.088" x2="280.796" y1="373.31" y2="373.31" xlink:href="#a" gradientUnits="userSpaceOnUse"/><linearGradient id="d" x1="237.088" x2="280.796" y1="373.31" y2="373.31" xlink:href="#a" gradientUnits="userSpaceOnUse"/><linearGradient id="e" x1="237.088" x2="280.796" y1="373.31" y2="373.31" xlink:href="#a" gradientUnits="userSpaceOnUse"/><linearGradient id="f" x1="237.088" x2="280.796" y1="373.31" y2="373.31" xlink:href="#a" gradientUnits="userSpaceOnUse"/></defs><g><path fill="#cb1009" stroke="#590b08" d="M40.97 13.84c1.5 6.1-3.54 13.22-3.54 13.22l2.37 3.68L31.3 29l1.2-10.15 2.33 3.55c1.9-.2 4.03-4.52 6.14-8.56z" color="#000" overflow="visible"/><path fill="#cb1009" stroke="#590b08" d="M8.88 14.26C7.2 19.92 11.6 26.8 11.6 26.8l-2.38 3.35 8.04-1.25-.67-9.56-2.35 3.22c-1.78-.27-3.58-4.42-5.37-8.3z" color="#000" overflow="visible"/><g><path fill="url(#c)" d="M258.94 361.5l21.86 11-21.86 12.6-21.85-12.6 21.84-11z" transform="matrix(.502 0 0 .503 -118.475 -180.239)"/><path fill="none" stroke="#31343a" stroke-width=".76.048" d="M11.6 1.4l10.96 5.52-10.97 6.33-11-6.33 11-5.52z"/><path fill="none" stroke="#fff" stroke-opacity=".502" stroke-width=".76.048" d="M11.62 2.35l9.28 4.62-9.35 5.32L2.25 7l9.37-4.65z"/></g><g><path fill="url(#d)" d="M258.94 361.5l21.86 11-21.86 12.6-21.85-12.6 21.84-11z" transform="matrix(.502 0 0 .503 -93.688 -180.239)"/><path fill="none" stroke="#31343a" stroke-width=".76.048" d="M36.37 1.4l10.97 5.52-10.97 6.33L25.4 6.92 36.37 1.4z"/><path fill="none" stroke="#fff" stroke-opacity=".502" stroke-width=".76.048" d="M36.4 2.35l9.3 4.62-9.37 5.32L27.05 7l9.36-4.65z"/></g><g><path fill="url(#e)" d="M258.94 361.5l21.86 11-21.86 12.6-21.85-12.6 21.84-11z" transform="matrix(.502 0 0 .503 -105.935 -147.239)"/><path fill="none" stroke="#31343a" stroke-width=".76.048" d="M24.13 34.4l10.97 5.52-10.97 6.33-10.98-6.33 10.98-5.52z"/><path fill="none" stroke="#fff" stroke-opacity=".502" stroke-width=".76.048" d="M24.16 35.35l9.28 4.62-9.35 5.32-9.3-5.3 9.36-4.65z"/></g><g><path fill="url(#f)" d="M258.94 361.5l21.86 11-21.86 12.6-21.85-12.6 21.84-11z" transform="matrix(.502 0 0 .503 -106.148 -150.239)"/><path fill="none" stroke="#31343a" stroke-width=".76.048" d="M23.9 31.4l11 5.52-11 6.33-10.96-6.33L23.9 31.4z"/><path fill="none" stroke="#fff" stroke-opacity=".502" stroke-width=".76.048" d="M23.95 32.35l9.28 4.62-9.35 5.32-9.3-5.3 9.37-4.65z"/></g></g></svg>