<svg xmlns="http://www.w3.org/2000/svg" width="48" height="48" xmlns:xlink="http://www.w3.org/1999/xlink"><defs><linearGradient id="d"><stop offset="0" stop-opacity=".667"/><stop offset="1" stop-opacity=".121"/></linearGradient><linearGradient id="c"><stop offset="0" stop-color="#729fcf"/><stop offset="1" stop-color="#edf2f9"/></linearGradient><linearGradient id="b"><stop offset="0" stop-color="#fff"/><stop offset="1" stop-color="#fdf9ca"/></linearGradient><linearGradient id="a"><stop offset="0" stop-color="#c4a000"/><stop offset="1" stop-color="#655300"/></linearGradient><linearGradient id="g" x1="5.129" x2="37.665" y1="5.886" y2="39.625" xlink:href="#a" gradientUnits="userSpaceOnUse" gradientTransform="matrix(.97 0 0 .97 .803 -.326)"/><linearGradient id="f" x1="3.31" x2="46.706" y1="15.684" y2="29.827" xlink:href="#b" gradientUnits="userSpaceOnUse" gradientTransform="matrix(.97 0 0 .97 .803 -.326)"/><linearGradient id="h" x1="27.051" x2="44.067" y1="45.013" y2="27.032" xlink:href="#c" gradientUnits="userSpaceOnUse" gradientTransform="matrix(.97 0 0 .97 .803 -.326)"/><linearGradient id="e" x1="3.887" x2="27.646" y1="12.782" y2="46.673" xlink:href="#d" gradientUnits="userSpaceOnUse"/></defs><g><path fill="url(#e)" d="M20.48 4S6.62 5.67 6.28 5.7c-.85.04-2.12 1.04-2.2 1.9L1.93 20.48C8.66 30.72 17.1 39.64 26.3 47.94l18.57-16.5C36.07 23.35 28 14.12 20.47 4zM9.43 7.7c.8.9.72 2.3-.2 3.1-.9.8-2.3.73-3.1-.18-.8-.9-.72-2.3.2-3.1.9-.8 2.3-.73 3.1.18z" style="isolation:auto;mix-blend-mode:normal;solid-color:#000000;solid-opacity:1" color="#000" overflow="visible" enable-background="accumulate"/><path fill="url(#f)" stroke="url(#g)" d="M21.05 2.6S7.3 5.1 6.98 5.1c-.85.1-2.06 1.18-2.08 2.04L3.5 20.14c7.33 9.83 16.28 18.23 25.96 25.97l17.56-17.54C37.75 21 29.14 12.24 21.05 2.6zM10.23 6.94c.86.85.86 2.25 0 3.1-.86.86-2.25.86-3.1 0-.87-.85-.87-2.25 0-3.1.85-.86 2.24-.86 3.1 0z" style="isolation:auto;mix-blend-mode:normal;solid-color:#000000;solid-opacity:1" color="#000" overflow="visible" enable-background="accumulate"/><path fill="none" stroke="#000" stroke-opacity=".469" stroke-width="2" d="M4.57 8.85c-.9-.2-2.06-2.33-1.76-4.36.3-2.04 2.17-3.57 4.27-3.44 2.1.13 3.77 2.25 3.48 4.26-.3 2.02-2.4 3.62-3.72 3.97"/><path fill="none" stroke="#fff" d="M4.57 8.85c-.9-.2-2.06-2.33-1.76-4.36.3-2.04 2.17-3.57 4.27-3.44 2.1.13 3.77 2.25 3.48 4.26-.3 2.02-2.4 3.62-3.72 3.97"/><path fill="url(#h)" fill-rule="evenodd" stroke="#50709d" d="M41.23 23.6L23.33 41c2 1.75 4.05 3.45 6.13 5.1l17.56-17.54c-1.96-1.6-3.9-3.27-5.8-4.97z"/></g></svg>