<svg xmlns="http://www.w3.org/2000/svg" width="48" height="48" xmlns:xlink="http://www.w3.org/1999/xlink"><defs><linearGradient id="v"><stop offset="0" stop-color="#fff"/><stop offset="1" stop-color="#e1e5de"/></linearGradient><linearGradient id="u"><stop offset="0" stop-color="#d3d7cf"/><stop offset="1" stop-color="#d3d7cf" stop-opacity="0"/></linearGradient><linearGradient id="t"><stop offset="0" stop-color="#eeeeec"/><stop offset="1" stop-color="#eeeeec" stop-opacity="0"/></linearGradient><linearGradient id="s"><stop offset="0" stop-color="#d3d7cf"/><stop offset="1" stop-color="#d3d7cf" stop-opacity="0"/></linearGradient><linearGradient id="r"><stop offset="0" stop-color="#babdb6"/><stop offset="1" stop-color="#babdb6" stop-opacity="0"/></linearGradient><linearGradient id="q"><stop offset="0" stop-color="#729fcf"/><stop offset="1" stop-color="#729fcf" stop-opacity="0"/></linearGradient><linearGradient id="p"><stop offset="0" stop-color="#b4e234"/><stop offset="1" stop-color="#b4e234" stop-opacity="0"/></linearGradient><linearGradient id="o"><stop offset="0" stop-color="#fce94f"/><stop offset="1" stop-color="#fce94f" stop-opacity="0"/></linearGradient><linearGradient id="n"><stop offset="0" stop-color="#fcaf3e"/><stop offset="1" stop-color="#fcaf3e" stop-opacity="0"/></linearGradient><linearGradient id="m"><stop offset="0" stop-color="#ff1919"/><stop offset="1" stop-color="#ef2929" stop-opacity="0"/></linearGradient><clipPath><path d="M14.97 49.38h32.06V12.84H32.97l-18 36.55z"/></clipPath><defs><path id="a" d="M15.37 13.08h31.4v36.05h-31.4z"/></defs><clipPath><use width="61.669" height="62.205" xlink:href="#a"/></clipPath><defs><path id="b" d="M14.97 12.83h32.06v36.55H14.97z"/></defs><clipPath><use width="61.669" height="62.205" xlink:href="#b"/></clipPath><defs><path id="c" d="M31.14 41.1c0 .63-.08 1.24-.23 1.82h3.2c.1-.6.17-1.2.17-1.82 0-5.6-4.56-10.15-10.15-10.15-.03 0-.05 0-.07 0L22.4 34.3c.55-.14 1.12-.22 1.72-.22 3.87 0 7.02 3.15 7.02 7.02"/></defs><clipPath><use width="61.669" height="62.205" xlink:href="#c"/></clipPath><defs><path id="d" d="M25.55 27.9l-1.5 3.06c.02 0 .04 0 .07 0 5.6 0 10.15 4.55 10.15 10.14 0 .63-.06 1.23-.17 1.82h3.16c.08-.6.13-1.2.13-1.82 0-6.83-5.2-12.48-11.85-13.2"/></defs><clipPath><use width="61.669" height="62.205" xlink:href="#d"/></clipPath><defs><path id="e" d="M27 24.98l-1.45 2.93c6.64.73 11.84 6.37 11.84 13.2 0 .62-.05 1.23-.14 1.83h3.15c.08-.6.12-1.2.12-1.83 0-8.07-5.85-14.77-13.53-16.13"/></defs><clipPath><use width="61.669" height="62.205" xlink:href="#e"/></clipPath><defs><path id="f" d="M28.42 22.08L27 24.98c7.67 1.35 13.5 8.05 13.5 16.12 0 .62-.02 1.23-.1 1.82h3.15c.06-.6.1-1.2.1-1.82 0-9.28-6.53-17.06-15.23-19.02"/></defs><clipPath><use width="61.669" height="62.205" xlink:href="#f"/></clipPath><defs><path id="g" d="M43.64 41.1c0 .62-.03 1.23-.1 1.82h3.15c.03-.6.06-1.2.06-1.82 0-10.5-7.2-19.37-16.92-21.9l-1.42 2.88c8.7 1.96 15.22 9.74 15.22 19.02"/></defs><clipPath><use width="61.669" height="62.205" xlink:href="#g"/></clipPath><defs><path id="h" d="M13.97 41.1c0 .63.06 1.23.16 1.82h3.2c-.15-.58-.24-1.2-.24-1.82 0-3.28 2.25-6.03 5.3-6.8l1.65-3.34c-5.57.04-10.08 4.57-10.08 10.14"/></defs><clipPath><use width="61.669" height="62.205" xlink:href="#h"/></clipPath><defs><path id="i" d="M24.05 30.96l1.5-3.05c-.47-.04-.95-.07-1.43-.07-7.32 0-13.28 5.96-13.28 13.27 0 .62.05 1.23.13 1.82h3.16c-.1-.6-.16-1.2-.16-1.82 0-5.57 4.5-10.1 10.08-10.14"/></defs><clipPath><use width="61.669" height="62.205" xlink:href="#i"/></clipPath><defs><path id="j" d="M24.12 27.83c.48 0 .96.03 1.43.08L27 24.98c-.95-.16-1.9-.26-2.88-.26-9.06 0-16.4 7.35-16.4 16.4 0 .62.04 1.23.1 1.82h3.15c-.08-.6-.13-1.2-.13-1.82 0-7.3 5.96-13.27 13.28-13.27"/></defs><clipPath><use width="61.669" height="62.205" xlink:href="#j"/></clipPath><defs><path id="k" d="M24.12 24.7c.98 0 1.94.1 2.87.28l1.42-2.9c-1.4-.3-2.82-.5-4.3-.5-10.77 0-19.52 8.76-19.52 19.53 0 .62.03 1.23.08 1.83h3.14c-.06-.6-.1-1.2-.1-1.82 0-9.05 7.34-16.4 16.4-16.4"/></defs><clipPath><use width="61.669" height="62.205" xlink:href="#k"/></clipPath><defs><path id="l" d="M24.12 21.59c1.48-.02 2.9.16 4.3.48l1.42-2.88c-1.83-.48-3.75-.74-5.72-.74-12.5 0-22.64 10.16-22.64 22.64 0 .62.02 1.23.07 1.83h3.13c-.05-.6-.08-1.2-.08-1.83 0-10.76 8.76-19.52 19.52-19.52"/></defs><clipPath><use width="61.669" height="62.205" xlink:href="#l"/></clipPath><linearGradient id="x" x1="2.304" x2="1.402" y1="29.532" y2="37.411" xlink:href="#m" gradientUnits="userSpaceOnUse"/><linearGradient id="y" x1="5.571" x2="4.571" y1="30.571" y2="37.412" xlink:href="#n" gradientUnits="userSpaceOnUse"/><linearGradient id="z" x1="9" x2="8.286" y1="32.571" y2="37.409" xlink:href="#o" gradientUnits="userSpaceOnUse"/><linearGradient id="A" x1="11.714" x2="11.286" y1="33.143" y2="37.41" xlink:href="#p" gradientUnits="userSpaceOnUse"/><linearGradient id="B" x1="15.286" x2="14.286" y1="33.714" y2="37.41" xlink:href="#q" gradientUnits="userSpaceOnUse"/><linearGradient id="C" x1="45.571" x2="45.571" y1="33.571" y2="37.41" xlink:href="#r" gradientUnits="userSpaceOnUse"/><linearGradient id="G" x1="32.286" x2="32.286" y1="34.857" y2="37.41" xlink:href="#r" gradientUnits="userSpaceOnUse"/><linearGradient id="F" x1="35.571" x2="36" y1="33.714" y2="37.41" xlink:href="#s" gradientUnits="userSpaceOnUse"/><linearGradient id="E" x1="39.571" x2="39.571" y1="33.714" y2="37.411" xlink:href="#t" gradientUnits="userSpaceOnUse"/><linearGradient id="D" x1="42.429" x2="42.429" y1="33.714" y2="37.41" xlink:href="#u" gradientUnits="userSpaceOnUse"/><linearGradient id="w" x1="37.804" x2="37.101" y1="13.819" y2="48.648" xlink:href="#v" gradientUnits="userSpaceOnUse"/></defs><g><path fill="url(#w)" stroke="#486880" stroke-width=".96" d="M32.97 12.83l-18 36.55h32.06V12.84H32.97z" transform="matrix(1.041 0 0 1.041 -1.374 -7.286)"/><path fill="url(#x)" d="M23.74 15.2c1.53 0 3.03.18 4.47.5l1.5-3c-1.9-.5-3.9-.76-5.96-.76C10.74 11.94.16 22.5.16 35.5c0 .65.03 1.3.08 1.9H3.5c-.06-.6-.1-1.25-.1-1.9 0-11.2 9.13-20.3 20.34-20.3"/><path fill="url(#y)" d="M23.74 18.44c1.02 0 2 .1 3 .28l1.47-3.02c-1.43-.32-2.93-.5-4.46-.5-11.2 0-20.33 9.1-20.33 20.32 0 .63.04 1.27.1 1.9h3.27c-.07-.63-.1-1.26-.1-1.9 0-9.43 7.64-17.08 17.07-17.08"/><path fill="url(#z)" d="M23.74 21.7c.5 0 1 .02 1.48.08l1.5-3.06c-.97-.17-1.96-.28-2.98-.28-9.43 0-17.07 7.64-17.07 17.07 0 .65.03 1.3.1 1.9h3.28c-.1-.6-.13-1.24-.13-1.9 0-7.6 6.2-13.8 13.82-13.8"/><path fill="url(#A)" d="M23.66 24.95l1.56-3.17c-.5-.06-.98-.1-1.48-.1-7.62 0-13.82 6.2-13.82 13.83 0 .66.04 1.3.13 1.9h3.3c-.12-.6-.18-1.24-.18-1.9 0-5.8 4.7-10.5 10.5-10.55"/><path fill="url(#B)" d="M13.17 35.5c0 .66.06 1.3.17 1.9h3.33c-.16-.6-.25-1.23-.25-1.9 0-3.4 2.36-6.27 5.53-7.07l1.7-3.48C17.88 25 13.18 29.7 13.18 35.5"/><path fill="url(#C)" d="M44.06 35.5c0 .65-.03 1.3-.1 1.9h3.27c.05-.62.08-1.25.08-1.9 0-10.93-7.5-20.16-17.6-22.8l-1.5 3c9.07 2.05 15.86 10.15 15.86 19.8"/><path fill="url(#D)" d="M28.2 15.7l-1.47 3.02c8 1.4 14.08 8.4 14.08 16.8 0 .63-.03 1.27-.1 1.9h3.27c.06-.63.1-1.27.1-1.9 0-9.67-6.8-17.77-15.86-19.82"/><path fill="url(#E)" d="M26.73 18.72l-1.5 3.06c6.9.74 12.32 6.62 12.32 13.73 0 .66-.04 1.3-.13 1.9h3.28c.07-.6.1-1.24.1-1.9 0-8.4-6.08-15.36-14.07-16.78"/><path fill="url(#F)" d="M25.22 21.78l-1.56 3.17c.02 0 .05 0 .08 0 5.82 0 10.56 4.74 10.56 10.56 0 .66-.06 1.3-.17 1.9h3.3c.07-.6.12-1.24.12-1.9 0-7.1-5.4-12.98-12.33-13.72"/><path fill="url(#G)" d="M31.05 35.5c0 .67-.1 1.3-.25 1.9h3.33c.1-.6.17-1.24.17-1.9 0-5.82-4.74-10.55-10.56-10.55-.03 0-.05 0-.08 0l-1.7 3.48c.56-.15 1.16-.23 1.78-.23 4.03 0 7.3 3.28 7.3 7.3"/><path fill="none" stroke="#fff" stroke-width=".9984" d="M33.52 7.18l-17.6 35.85 30.67.15V7.1L33.5 7.2z"/></g></svg>