<svg xmlns="http://www.w3.org/2000/svg" width="48" height="48"><defs><radialGradient id="a" cx="144.878" cy="110.428" r="20.434" gradientUnits="userSpaceOnUse" gradientTransform="matrix(-.766 0 0 1 472.879 0)" fy="110.428" fx="144.878"><stop offset="0" stop-color="#545652"/><stop offset="1" stop-color="#fff"/></radialGradient><radialGradient id="b" cx="182.707" cy="91.702" r="31.807" gradientUnits="userSpaceOnUse" gradientTransform="matrix(-1.048 0 0 1.048 206.403 -79.928)" fy="91.702" fx="182.707"><stop offset="0" stop-color="#fff"/><stop offset=".09" stop-color="#F9FAFA"/><stop offset=".21" stop-color="#E8EBED"/><stop offset=".348" stop-color="#CCD3D7"/><stop offset=".497" stop-color="#A5B1B9"/><stop offset=".579" stop-color="#8D9CA6"/><stop offset="1" stop-color="#505359"/></radialGradient><radialGradient id="c" cx="191.153" cy="82.621" r="39.064" gradientUnits="userSpaceOnUse" gradientTransform="matrix(-1 0 0 1 535.407 0)" fy="82.621" fx="191.153"><stop offset="0" stop-color="#fff"/><stop offset="1" stop-color="#8D9BA6"/></radialGradient><linearGradient id="d" x1="368.388" x2="350.091" y1="102.865" y2="102.865" gradientUnits="userSpaceOnUse"><stop offset="0" stop-color="#fff"/><stop offset=".29" stop-color="#FEFDFD"/><stop offset=".417" stop-color="#FCF6F6"/><stop offset=".512" stop-color="#F7E9E9"/><stop offset=".591" stop-color="#F0D8D7"/><stop offset=".661" stop-color="#E8C1C0"/><stop offset=".723" stop-color="#DDA5A3"/><stop offset=".781" stop-color="#D08381"/><stop offset=".834" stop-color="#C15C59"/><stop offset=".882" stop-color="#B1312E"/><stop offset=".916" stop-color="#A40E0A"/><stop offset="1"/></linearGradient><linearGradient id="e" x1="349.746" x2="366.519" y1="102.865" y2="102.865" gradientUnits="userSpaceOnUse"><stop offset="0" stop-color="#fff"/><stop offset=".397" stop-color="#E86712"/><stop offset=".772" stop-color="#D52E0C"/><stop offset="1" stop-color="#CB1009"/></linearGradient></defs><g><ellipse cx="361.365" cy="119.596" fill="url(#a)" transform="matrix(1.048 0 0 1.048 -354.744 -79.928)" ry="2.489" rx="14.756"/><g><path fill="#003b1d" d="M25.76 46.54l-2.35.06v-1.16h2.36v1.1z"/></g><g><path fill="#003a33" d="M28.1 46.24l-2.34.3v-1.1h2.35v.8z"/></g><g><path fill="#79c0ea" d="M23.4 43.1h2.36v2.34H23.4z"/></g><g><path fill="#c78aca" d="M25.76 43.1h2.35v2.34h-2.34z"/></g><g><path fill="#f186ab" d="M28.1 43.1h2.36v2.34H28.1z"/></g><g><path fill="#5bf394" d="M30.46 43.1h2.35v2.34h-2.34z"/></g><g><path fill="#edc3a0" d="M35.16 43.7l-2.35 1.15V43.1h2.36v.6z"/></g><g><path fill="#2049d1" d="M23.4 40.74h2.36v2.35H23.4z"/></g><g><path fill="#a57fc0" d="M25.76 40.74h2.35v2.35h-2.34z"/></g><g><path fill="#ca93ff" d="M28.1 40.74h2.36v2.35H28.1z"/></g><g><path fill="#8bbba4" d="M30.46 40.74h2.35v2.35h-2.34z"/></g><g><path fill="#d35c72" d="M32.8 40.74h2.36v2.35H32.8z"/></g><g><path fill="#9dd986" d="M35.16 40.74h2.35v2.35h-2.34z"/></g><g><path fill="#000124" d="M37.5 42.2v-1.46h1.94L37.5 42.2z"/></g><g><path fill="#bf8894" d="M23.4 38.4h2.36v2.34H23.4z"/></g><g><path fill="#334d70" d="M25.76 38.4h2.35v2.34h-2.34z"/></g><g><path fill="#4abfa4" d="M28.1 38.4h2.36v2.34H28.1z"/></g><g><path fill="#62ac2d" d="M30.46 38.4h2.35v2.34h-2.34z"/></g><g><path fill="#8d2a26" d="M32.8 38.4h2.36v2.34H32.8z"/></g><g><path fill="#e26d5e" d="M35.16 38.4h2.35v2.34h-2.34z"/></g><g><path fill="#79dffc" d="M37.5 38.4h2.36v2.34H37.5z"/></g><g><path fill="#78e4cc" d="M23.4 36.04h2.36v2.35H23.4z"/></g><g><path fill="#72759a" d="M25.76 36.04h2.35v2.35h-2.34z"/></g><g><path fill="#a3b83d" d="M28.1 36.04h2.36v2.35H28.1z"/></g><g><path fill="#2b45c2" d="M30.46 36.04h2.35v2.35h-2.34z"/></g><g><path fill="#729ad1" d="M32.8 36.04h2.36v2.35H32.8z"/></g><g><path fill="#b5429e" d="M35.16 36.04h2.35v2.35h-2.34z"/></g><g><path fill="#94da9f" d="M37.5 36.04h2.36v2.35H37.5z"/></g><g><path fill="#ab646e" d="M23.4 33.7h2.36v2.34H23.4z"/></g><g><path fill="#d2ec94" d="M25.76 33.7h2.35v2.34h-2.34z"/></g><g><path fill="#38b6df" d="M28.1 33.7h2.36v2.34H28.1z"/></g><g><path fill="#e044ee" d="M30.46 33.7h2.35v2.34h-2.34z"/></g><g><path fill="#ad6859" d="M32.8 33.7h2.36v2.34H32.8z"/></g><g><path fill="#50924a" d="M35.16 33.7h2.35v2.34h-2.34z"/></g><g><path fill="#9a9257" d="M37.5 33.7h2.36v2.34H37.5z"/></g><g><path fill="#54ff7e" d="M23.4 31.34h2.36v2.35H23.4z"/></g><g><path fill="#c4ac86" d="M25.76 31.34h2.35v2.35h-2.34z"/></g><g><path fill="#6fe3ff" d="M28.1 31.34h2.36v2.35H28.1z"/></g><g><path fill="#92fdb0" d="M30.46 31.34h2.35v2.35h-2.34z"/></g><g><path fill="#457949" d="M32.8 31.34h2.36v2.35H32.8z"/></g><g><path fill="#535fc0" d="M35.16 31.34h2.35v2.35h-2.34z"/></g><g><path fill="#535fc0" d="M37.5 31.34h2.36v2.35H37.5z"/></g><g><path fill="#dd9b82" d="M23.4 29h2.36v2.34H23.4z"/></g><g><path fill="#b799b3" d="M25.76 29h2.35v2.34h-2.34z"/></g><g><path fill="#d8f18f" d="M28.1 29h2.36v2.34H28.1z"/></g><g><path fill="#de9465" d="M30.46 29h2.35v2.34h-2.34z"/></g><g><path fill="#59d0dd" d="M32.8 29h2.36v2.34H32.8z"/></g><g><path fill="#d3b15e" d="M35.16 29h2.35v2.34h-2.34z"/></g><g><path fill="#3c8fd4" d="M37.5 29h2.36v2.34H37.5z"/></g><g><path fill="#ff938d" d="M23.4 26.64h2.36V29H23.4z"/></g><g><path fill="#f3bf84" d="M25.76 26.64h2.35V29h-2.34z"/></g><g><path fill="#ebffd0" d="M28.1 26.64h2.36V29H28.1z"/></g><g><path fill="#9cda7e" d="M30.46 26.64h2.35V29h-2.34z"/></g><g><path fill="#d778ff" d="M32.8 26.64h2.36V29H32.8z"/></g><g><path fill="#8d6288" d="M35.16 26.64h2.35V29h-2.34z"/></g><g><path fill="#c0bcc7" d="M37.5 26.64h2.36V29H37.5z"/></g><g><path fill="#ffaefe" d="M23.4 24.3h2.36v2.34H23.4z"/></g><g><path fill="#ff7b7e" d="M25.76 24.3h2.35v2.34h-2.34z"/></g><g><path fill="#e2f9b5" d="M28.1 24.3h2.36v2.34H28.1z"/></g><g><path fill="#d4a6d0" d="M30.46 24.3h2.35v2.34h-2.34z"/></g><g><path fill="#8ba5fb" d="M32.8 24.3h2.36v2.34H32.8z"/></g><g><path fill="#a0d55f" d="M35.16 24.3h2.35v2.34h-2.34z"/></g><g><path fill="#4bad57" d="M37.5 24.3h2.36v2.34H37.5z"/></g><g><path fill="#ffffa8" d="M23.4 21.94h2.36v2.35H23.4z"/></g><g><path fill="#b396ea" d="M25.76 21.94h2.35v2.35h-2.34z"/></g><g><path fill="#d9ffff" d="M28.1 21.94h2.36v2.35H28.1z"/></g><g><path fill="#c6a19a" d="M30.46 21.94h2.35v2.35h-2.34z"/></g><g><path fill="#7e836c" d="M32.8 21.94h2.36v2.35H32.8z"/></g><g><path fill="#7359f9" d="M35.16 21.94h2.35v2.35h-2.34z"/></g><g><path fill="#b84bfb" d="M37.5 21.94h2.36v2.35H37.5z"/></g><g><path fill="#ecffa1" d="M23.4 19.6h2.36v2.34H23.4z"/></g><g><path fill="#ffbcef" d="M25.76 19.6h2.35v2.34h-2.34z"/></g><g><path fill="#b799e9" d="M28.1 19.6h2.36v2.34H28.1z"/></g><g><path fill="#ffc1d0" d="M30.46 19.6h2.35v2.34h-2.34z"/></g><g><path fill="#f48bf4" d="M32.8 19.6h2.36v2.34H32.8z"/></g><g><path fill="#a18a5f" d="M35.16 19.6h2.35v2.34h-2.34z"/></g><g><path fill="#8ce9ff" d="M37.5 19.6h2.36v2.34H37.5z"/></g><g><path fill="#ffffa6" d="M23.4 17.24h2.36v2.35H23.4z"/></g><g><path fill="#fba3ff" d="M25.76 17.24h2.35v2.35h-2.34z"/></g><g><path fill="#dba0c4" d="M28.1 17.24h2.36v2.35H28.1z"/></g><g><path fill="#bcffb2" d="M30.46 17.24h2.35v2.35h-2.34z"/></g><g><path fill="#fbccfd" d="M32.8 17.24h2.36v2.35H32.8z"/></g><g><path fill="#d59599" d="M35.16 17.24h2.35v2.35h-2.34z"/></g><g><path fill="#c77bd6" d="M37.5 17.24h2.36v2.35H37.5z"/></g><g><path fill="#fff" d="M23.4 14.9h2.36v2.34H23.4z"/></g><g><path fill="#caccff" d="M25.76 14.9h2.35v2.34h-2.34z"/></g><g><path fill="#c6ff9b" d="M28.1 14.9h2.36v2.34H28.1z"/></g><g><path fill="#ad92e5" d="M30.46 14.9h2.35v2.34h-2.34z"/></g><g><path fill="#68908c" d="M32.8 14.9h2.36v2.34H32.8z"/></g><g><path fill="#aaaeb6" d="M35.16 14.9h2.35v2.34h-2.34z"/></g><g><path fill="#87e360" d="M37.5 14.9h2.36v2.34H37.5z"/></g><g><path fill="#c1ffff" d="M23.4 12.54h2.36v2.35H23.4z"/></g><g><path fill="#c1ffb9" d="M25.76 12.54h2.35v2.35h-2.34z"/></g><g><path fill="#ffa2ff" d="M28.1 12.54h2.36v2.35H28.1z"/></g><g><path fill="#74f7ff" d="M30.46 12.54h2.35v2.35h-2.34z"/></g><g><path fill="#cfff9a" d="M32.8 12.54h2.36v2.35H32.8z"/></g><g><path fill="#e26cff" d="M35.16 12.54h2.35v2.35h-2.34z"/></g><g><path fill="#447d93" d="M37.5 12.54h2.36v2.35H37.5z"/></g><g><path fill="#ffedf1" d="M23.4 10.2h2.36v2.34H23.4z"/></g><g><path fill="#ffbbf5" d="M25.76 10.2h2.35v2.34h-2.34z"/></g><g><path fill="#c2ffda" d="M28.1 10.2h2.36v2.34H28.1z"/></g><g><path fill="#c6ffdd" d="M30.46 10.2h2.35v2.34h-2.34z"/></g><g><path fill="#eff8be" d="M32.8 10.2h2.36v2.34H32.8z"/></g><g><path fill="#4985ff" d="M35.16 10.2h2.35v2.34h-2.34z"/></g><g><path fill="#634770" d="M37.5 10.2h2.36v2.34H37.5z"/></g><g><path fill="#d3cab0" d="M23.4 7.84h2.36v2.35H23.4z"/></g><g><path fill="#cac6ff" d="M25.76 7.84h2.35v2.35h-2.34z"/></g><g><path fill="#99ffbd" d="M28.1 7.84h2.36v2.35H28.1z"/></g><g><path fill="#cdbaff" d="M30.46 7.84h2.35v2.35h-2.34z"/></g><g><path fill="#60ff93" d="M32.8 7.84h2.36v2.35H32.8z"/></g><g><path fill="#507a83" d="M35.16 7.84h2.35v2.35h-2.34z"/></g><g><path fill="#afffe8" d="M37.5 7.84h2.36v2.35H37.5z"/></g><g><path fill="#ffe4ef" d="M23.4 5.5h2.36v2.34H23.4z"/></g><g><path fill="#8efff5" d="M25.76 5.5h2.35v2.34h-2.34z"/></g><g><path fill="#fff9c5" d="M28.1 5.5h2.36v2.34H28.1z"/></g><g><path fill="#bcdaff" d="M30.46 5.5h2.35v2.34h-2.34z"/></g><g><path fill="#9ee78f" d="M32.8 5.5h2.36v2.34H32.8z"/></g><g><path fill="#ffc9bd" d="M35.16 5.5h2.35v2.34h-2.34z"/></g><g><path fill="#8d84f2" d="M39.86 7.84H37.5V5.5l1.5.86.86 1.48z"/></g><g><path fill="#aec4ef" d="M23.4 3.14h2.36V5.5H23.4z"/></g><g><path fill="#ffbdc5" d="M25.76 3.14h2.35V5.5h-2.34z"/></g><g><path fill="#d9ffff" d="M28.1 3.14h2.36V5.5H28.1z"/></g><g><path fill="#ffbfe3" d="M30.46 3.14h2.35V5.5h-2.34z"/></g><g><path fill="#d68cbe" d="M32.8 3.14h2.36V5.5H32.8z"/></g><g><path fill="#c6cb8e" d="M37.5 5.5h-2.34V3.13l1.18 1.17 1.17 1.2z"/></g><g><path fill="#ffb3ff" d="M23.4.8h2.36v2.34H23.4z"/></g><g><path fill="#e8f3fb" d="M25.76.8h2.35v2.34h-2.34z"/></g><g><path fill="#7bc4ff" d="M28.1 1.7h2.36v1.44H28.1z"/></g><g><path fill="#f4bfff" d="M30.46 2.08h2.35v1.06h-2.34z"/></g><g><path fill="#d7ff98" d="M39.86 36.04h2.35v2.35h-2.34z"/></g><g><path fill="#471200" d="M42.2 37.6v-1.56h1.1l-1.1 1.56z"/></g><g><path fill="#a05fe7" d="M39.86 40.74V38.4h2.35l-2.34 2.34z"/></g><g><path fill="#ded58b" d="M39.86 31.34h2.35v2.35h-2.34z"/></g><g><path fill="#e89990" d="M42.2 31.34h2.36v2.35H42.2z"/></g><g><path fill="#010004" d="M44.56 33.7v-2.36h1.05l-1.04 2.35z"/></g><g><path fill="#43bf82" d="M39.86 29h2.35v2.34h-2.34z"/></g><g><path fill="#c0aa63" d="M42.2 29h2.36v2.34H42.2z"/></g><g><path fill="#3fb292" d="M45.6 31.33h-1.04V29l1.75-.03-.7 2.36z"/></g><g><path fill="#4d9d8a" d="M39.86 26.64h2.35V29h-2.34z"/></g><g><path fill="#c7ff73" d="M42.2 26.64h2.36V29H42.2z"/></g><g><path fill="#57b78d" d="M44.56 26.64h2.35V29h-2.34z"/></g><g><path fill="#29b145" d="M39.86 24.3h2.35v2.34h-2.34z"/></g><g><path fill="#bdfde6" d="M42.2 24.3h2.36v2.34H42.2z"/></g><g><path fill="#599d94" d="M44.56 24.3h2.35v2.34h-2.34z"/></g><g><path fill="#7c524c" d="M39.86 21.94h2.35v2.35h-2.34z"/></g><g><path fill="#4eb29a" d="M42.2 21.94h2.36v2.35H42.2z"/></g><g><path fill="#4bc190" d="M44.56 21.94h2.35v2.35h-2.34z"/></g><g><path fill="#77df76" d="M39.86 19.6h2.35v2.34h-2.34z"/></g><g><path fill="#ee7cff" d="M42.2 19.6h2.36v2.34H42.2z"/></g><g><path fill="#95f495" d="M44.56 19.6h2.35v2.34h-2.34z"/></g><g><path fill="#c4a486" d="M39.86 17.24h2.35v2.35h-2.34z"/></g><g><path fill="#ffebc4" d="M42.2 17.24h2.36v2.35H42.2z"/></g><g><path fill="#c669d5" d="M46.55 19.6h-2v-2.36l1.42-.06.58 2.4z"/></g><g><path fill="#db4552" d="M39.86 14.9h2.35v2.34h-2.34z"/></g><g><path fill="#94ffd5" d="M42.2 14.9h2.36v2.34H42.2z"/></g><g><path fill="#c3e0de" d="M45.97 17.18l-1.4.06V14.9l1.17 1.16.23 1.12z"/></g><g><path fill="#e694ff" d="M39.86 12.54h2.35v2.35h-2.34z"/></g><g><path fill="#79ff8d" d="M42.2 12.54h2.36v2.35H42.2z"/></g><g><path fill="#7bda9c" d="M39.86 10.2h2.35v2.34h-2.34z"/></g><g><path fill="#ffad8c" d="M44.56 12.54H42.2V10.2l1.2 1.17 1.16 1.17z"/></g><g><path fill="#ff83fd" d="M42.2 10.2h-2.34V7.83l1.48.87.87 1.5z"/></g><g><path fill="#6064b3" d="M39.86 33.7h2.35v2.34h-2.34z"/></g><g><path fill="#efaeb5" d="M43.3 36.04h-1.1V33.7h2.36l-1.26 2.34z"/></g><path fill="url(#b)" d="M24 .77C11.33.77 1.06 11.03 1.06 23.7c0 12.65 10.27 22.9 22.92 22.9"/><g transform="matrix(1.048 0 0 1.048 -354.744 -79.928)"><radialGradient cx="191.153" cy="82.621" r="39.064" gradientUnits="userSpaceOnUse" gradientTransform="matrix(-1 0 0 1 535.407 0)" fy="82.621" fx="191.153"><stop offset="0" stop-color="#fff"/><stop offset="1" stop-color="#8D9BA6"/></radialGradient><path fill="url(#c)" d="M361.37 119c-11.1 0-20.15-9.03-20.15-20.14 0-11.1 9.04-20.14 20.15-20.14v-1.15c-11.75 0-21.3 9.55-21.3 21.3 0 11.74 9.55 21.3 21.3 21.3V119z"/></g><g transform="matrix(1.048 0 0 1.048 -354.744 -79.928)"><linearGradient x1="368.388" x2="350.091" y1="102.865" y2="102.865" gradientUnits="userSpaceOnUse"><stop offset="0" stop-color="#fff"/><stop offset=".29" stop-color="#FEFDFD"/><stop offset=".417" stop-color="#FCF6F6"/><stop offset=".512" stop-color="#F7E9E9"/><stop offset=".591" stop-color="#F0D8D7"/><stop offset=".661" stop-color="#E8C1C0"/><stop offset=".723" stop-color="#DDA5A3"/><stop offset=".781" stop-color="#D08381"/><stop offset=".834" stop-color="#C15C59"/><stop offset=".882" stop-color="#B1312E"/><stop offset=".916" stop-color="#A40E0A"/><stop offset="1"/></linearGradient><path fill="url(#d)" stroke="#000" stroke-width=".954" d="M349.64 108.1h11.52v6.18c0 .25.2.45.45.45.13 0 .24-.05.32-.14l.02-.02c2.33-2.27 12.27-11.08 12.27-11.08.36-.35.36-.92 0-1.27l-12.28-11.1c-.07-.08-.2-.13-.3-.13-.26 0-.46.2-.46.45v6.17h-11.52"/><path fill="none" stroke="#ed2728" stroke-width=".954" d="M349.64 98.37h12.2s.07-.02.07-.06c0-.6 0-4.95 0-6.1 0-.02.05-.04.07-.02 1.18 1.06 11 9.96 11.7 10.57.02.03.04.1.04.12 0 .05 0 .07-.02.1-.3.26-8.8 7.8-11.7 10.53-.02.02-.07 0-.07-.04 0-1.23 0-5.44 0-6.03 0-.05-.06-.07-.06-.07h-12.2"/></g><g transform="matrix(1.048 0 0 1.048 -354.744 -79.928)"><linearGradient x1="349.746" x2="366.519" y1="102.865" y2="102.865" gradientUnits="userSpaceOnUse"><stop offset="0" stop-color="#fff"/><stop offset=".397" stop-color="#E86712"/><stop offset=".772" stop-color="#D52E0C"/><stop offset="1" stop-color="#CB1009"/></linearGradient><path fill="url(#e)" stroke="#590b08" stroke-width=".954" d="M349.64 108.1h11.52v6.18c0 .25.2.45.45.45.13 0 .24-.05.32-.14l.02-.02c2.33-2.27 12.27-11.08 12.27-11.08.36-.35.36-.92 0-1.27l-12.28-11.1c-.07-.08-.2-.13-.3-.13-.26 0-.46.2-.46.45v6.17h-11.52"/><path fill="none" stroke="#ff2825" stroke-width=".954" d="M349.64 98.37h12.2s.07-.02.07-.06c0-.6 0-4.95 0-6.1 0-.02.05-.04.07-.02 1.18 1.06 11 9.96 11.7 10.57.02.03.04.1.04.12 0 .05 0 .07-.02.1-.3.26-8.8 7.8-11.7 10.53-.02.02-.07 0-.07-.04 0-1.23 0-5.44 0-6.03 0-.05-.06-.07-.06-.07h-12.2"/></g><circle cx="361.365" cy="98.865" r="21.871" fill="none" stroke="#192333" stroke-width=".954" transform="matrix(1.048 0 0 1.048 -354.744 -79.928)"/></g></svg>