<svg xmlns="http://www.w3.org/2000/svg" width="48" height="48" xmlns:xlink="http://www.w3.org/1999/xlink"><defs><linearGradient id="d" x1="2.676" x2="48.538" y1="28.307" y2="29.317" xlink:href="#a" gradientUnits="userSpaceOnUse" gradientTransform="translate(-.165 1.754)"/><linearGradient id="a" x1="245.925" x2="275.675" y1="380.283" y2="362.533" gradientUnits="userSpaceOnUse"><stop offset="0" stop-color="#fff" stop-opacity=".502"/><stop offset="1" stop-color="#b3bdca" stop-opacity=".502"/></linearGradient><linearGradient x1="237.088" x2="280.796" y1="383.691" y2="383.691" gradientUnits="userSpaceOnUse"><stop offset=".006" stop-color="#fff"/><stop offset=".421" stop-color="#C3CBD4"/><stop offset="1" stop-color="#A1A8B2"/></linearGradient><linearGradient x1="245.926" x2="275.676" y1="390.665" y2="372.915" gradientUnits="userSpaceOnUse"><stop offset="0" stop-color="#fff"/><stop offset=".528" stop-color="#DBE2E6"/><stop offset="1" stop-color="#B3BDCA"/></linearGradient><linearGradient id="c" x1="237.088" x2="280.796" y1="373.31" y2="373.31" gradientUnits="userSpaceOnUse"><stop offset=".006" stop-color="#fff"/><stop offset=".421" stop-color="#C3CBD4"/><stop offset="1" stop-color="#A1A8B2"/></linearGradient><linearGradient id="b" x1="245.925" x2="275.675" y1="380.283" y2="362.533" gradientUnits="userSpaceOnUse"><stop offset="0" stop-color="#fff"/><stop offset=".528" stop-color="#DBE2E6"/><stop offset="1" stop-color="#B3BDCA"/></linearGradient><linearGradient id="f" x1=".841" x2="48.016" y1="6.429" y2="6.429" xlink:href="#b" gradientUnits="userSpaceOnUse" gradientTransform="translate(1.429 10.485)"/><linearGradient x1="237.088" x2="280.796" y1="373.31" y2="373.31" xlink:href="#c" gradientUnits="userSpaceOnUse"/><linearGradient x1="237.088" x2="280.796" y1="373.31" y2="373.31" xlink:href="#c" gradientUnits="userSpaceOnUse" gradientTransform="matrix(1.062 0 0 1.062 -250.951 -378.006)"/><linearGradient id="e" x1="237.088" x2="280.796" y1="373.31" y2="373.31" xlink:href="#c" gradientUnits="userSpaceOnUse" gradientTransform="matrix(1.062 0 0 1.062 -250.951 -380.006)"/></defs><g><path fill="url(#d)" stroke="#31343a" stroke-width="1.5" d="M43.73 32.63l-16.3-4.16s1.43-2.8-.86-4c-2.28-1.22-6.14-2.24-9.57 0-3.8 2.46-3.2 5.43-1.43 6.85 2.04 1.65 6.14.72 6.14.72l5.74 9.94-2.66 1.63-23.2-13.4 23.2-11.67L48 30.2l-4.27 2.43z" stroke-dasharray="3, 1.5"/><path fill="#2e3436" d="M27.45 41.77l-5.43-9.7s-4.1.92-6.14-.73c-1.76-1.42-2.36-4.4 1.43-6.85 3.44-2.25 7.3-1.23 9.58 0 2.3 1.2.86 4 .86 4l16 4-16.3 9.27z" color="#000" overflow="visible" enable-background="accumulate"/><path fill="url(#e)" d="M24.06 4.06L.88 15.76l23.18 13.4 2.53-1.47-5.54-10.17s-4.1.93-6.12-.72c-1.76-1.4-2.4-4.36 1.4-6.83 3.44-2.23 7.3-1.22 9.6 0 2.28 1.2.84 4 .84 4l16.34 4.2 4.16-2.42-23.22-11.7z"/><g transform="matrix(1.062 0 0 1.062 -250.951 -378.006)"><linearGradient x1="245.925" x2="275.675" y1="380.283" y2="362.533" gradientUnits="userSpaceOnUse"><stop offset="0" stop-color="#fff"/><stop offset=".528" stop-color="#DBE2E6"/><stop offset="1" stop-color="#B3BDCA"/></linearGradient></g><path fill="none" stroke="#31343a" stroke-width=".753" d="M43 18.17L26.7 14s1.44-2.8-.84-4c-2.3-1.2-6.14-2.23-9.57 0-3.8 2.47-3.2 5.44-1.44 6.86 2.03 1.64 6.14.7 6.14.7l5.72 9.96-2.65 1.62-23.2-13.4 23.2-11.67 23.2 11.67-4.26 2.43z"/><path fill="none" stroke="url(#f)" stroke-width=".753" d="M43 17.4l-15.14-3.95s.7-2.54-1.43-4c-2.5-1.7-7.7-2.16-11.14.07-3.8 2.47-2.63 6.5-.87 7.93 2.03 1.64 6.28 1 6.28 1l5.02 8.73-1.58 1.13L2.57 15.7 24.14 4.87l21.7 10.95-2.83 1.57z"/></g></svg>