<svg xmlns="http://www.w3.org/2000/svg" width="48" height="48"><defs><linearGradient id="a" x1="237.088" x2="280.796" y1="383.691" y2="383.691" gradientUnits="userSpaceOnUse"><stop offset=".006" stop-color="#fff"/><stop offset=".421" stop-color="#C3CBD4"/><stop offset="1" stop-color="#A1A8B2"/></linearGradient><linearGradient id="b" x1="245.926" x2="275.676" y1="390.665" y2="372.915" gradientUnits="userSpaceOnUse"><stop offset="0" stop-color="#fff"/><stop offset=".528" stop-color="#DBE2E6"/><stop offset="1" stop-color="#B3BDCA"/></linearGradient><linearGradient x1="237.088" x2="280.796" y1="373.31" y2="373.31" gradientUnits="userSpaceOnUse"><stop offset=".006" stop-color="#fff"/><stop offset=".421" stop-color="#C3CBD4"/><stop offset="1" stop-color="#A1A8B2"/></linearGradient><linearGradient x1="245.925" x2="275.675" y1="380.283" y2="362.533" gradientUnits="userSpaceOnUse"><stop offset="0" stop-color="#fff"/><stop offset=".528" stop-color="#DBE2E6"/><stop offset="1" stop-color="#B3BDCA"/></linearGradient></defs><g><path fill="url(#a)" stroke="#737b87" stroke-width=".753" d="M258.94 371.9l21.86 10.97-21.86 12.62-21.85-12.63 21.84-10.98z" transform="matrix(1.062 0 0 1.062 -250.951 -378.006)"/><g transform="matrix(1.062 0 0 1.062 -250.951 -378.006)"><linearGradient x1="245.926" x2="275.676" y1="390.665" y2="372.915" gradientUnits="userSpaceOnUse"><stop offset="0" stop-color="#fff"/><stop offset=".528" stop-color="#DBE2E6"/><stop offset="1" stop-color="#B3BDCA"/></linearGradient><path fill="url(#b)" d="M237.93 382.9l21 12.13 21.02-12.13-21-10.56-21.02 10.56zm21-9.67c.35.18 18.1 9.1 19.34 9.72-1.15.66-18.95 10.94-19.33 11.16-.38-.22-18.2-10.5-19.32-11.15 1.22-.62 18.98-9.54 19.32-9.72z"/></g><path fill="none" stroke="#31343a" stroke-width=".79818" d="M24.07 17.1l23.2 11.67-23.2 13.4-23.2-13.4 23.2-11.67z"/><path fill="#2e3436" stroke="#31343a" stroke-width=".8" d="M27.2 30.87l-6.33-11.35s-4.8 1.08-7.17-.84c-2.05-1.66-2.76-5.13 1.67-8 4-2.62 8.5-1.43 11.16 0 2.67 1.4 1 4.66 1 4.66l18.66 4.68-19 10.85z" color="#000" overflow="visible" enable-background="accumulate"/><path fill="none" stroke="#eeeeec" stroke-opacity=".217" stroke-width=".8" d="M27.55 29.83l-6.25-11.2s-4.9 1.23-7.06-.5c-1.86-1.52-2.35-4.26 1.67-6.88 3.64-2.36 9.08-1.12 10.85.6 1.38 1.36-.36 4.05-.36 4.05l17.64 4.44-16.5 9.5z" color="#000" overflow="visible" enable-background="accumulate"/></g></svg>