<svg xmlns="http://www.w3.org/2000/svg" width="48" height="48"><defs><linearGradient id="a" x1="322.706" x2="274.555" y1="536.288" y2="485.789" gradientUnits="userSpaceOnUse" gradientTransform="matrix(.964 0 0 .964 -276.73 -485.073)"><stop offset=".028" stop-color="#fff"/><stop offset="1" stop-color="#94A1AF"/></linearGradient></defs><g><path fill="none" stroke="#575d66" stroke-width="2" d="M15.22 12.98c6.13 1.16 14.18 4 30.52-6.52-5.75 9.9-7.07 20.67-.68 37.92-20.43-8.46-26.6-8.65-40.6-6.32 4.1-5.25 12.67-15.32 10.76-25.08z"/><path fill="url(#a)" d="M15.22 12.98c6.13 1.16 14.18 4 30.52-6.52-5.75 9.9-7.07 20.67-.68 37.92-20.43-8.46-26.6-8.65-40.6-6.32 4.1-5.25 12.67-15.32 10.76-25.08z"/><path fill="none" stroke="#575d66" stroke-width=".6" d="M18.32 36.82c4.12-10.07 5.38-19 5.38-22.6" stroke-linecap="square"/><path fill="none" stroke="#575d66" stroke-width=".6" d="M31.38 39.28c-1.24-8.84-1.1-18.84 2.2-26.72" stroke-linecap="square"/><path fill="none" stroke="#575d66" stroke-width=".6" d="M14.9 20.4c1.88 1.88 18.86.4 26.3-1.5" stroke-linecap="square"/><path fill="none" stroke="#575d66" stroke-width=".6" d="M10.7 29.54c9.54-2.54 20.84-1.73 30.84 2.32" stroke-linecap="square"/><g fill="none" stroke="#fff" stroke-width="1.037"><path d="M15.94 15.2L13.7 9.87l1.42-.6 2.24 5.3z"/><path d="M10.63 6.48l4.7 4.7.13-6.4-4.83 1.7z"/><path d="M13.46 7.13c.18.18.2.2.4.4 0-.27 0-.3 0-.55-.2.07-.2.07-.4.15z"/><path d="M41.16 6.95h1.54v4.74h-1.54z"/><path d="M41.96 8.9l3.6-5.27-4.98-1.2 1.38 6.48z"/><path d="M42.7 5.05c.17-.22.2-.25.32-.45-.2-.05-.22-.05-.43-.1.05.25.05.28.1.55z"/><path d="M41.17 32.74h1.54v7.66h-1.53z"/><path d="M42.38 35.3l4.53-4.5-4.64-2.12.12 6.63z"/><path d="M43.86 31.67c.2-.2.22-.22.4-.4-.2-.08-.22-.08-.4-.17 0 .25 0 .28 0 .57z"/><path d="M7.86 36.32L4.3 31.4l1.24-.92 3.57 4.94z"/><path d="M.5 28.76l5.64 3.52-1.3-6.26L.5 28.76z"/><path d="M3.4 28.75c.23.14.25.15.5.3-.06-.26-.07-.3-.12-.53-.18.1-.2.12-.37.23z"/></g><g fill="none" stroke="#ed2728" stroke-width="1.037"><path d="M14.6 9.35l2.1 4.97"/><path d="M12.04 6.8l2.62-.92-.07 3.47-2.56-2.54z"/><path d="M42.33 6.98l-.75 4.3"/><path d="M41.6 3.46l2.68.66-1.95 2.86-.74-3.52z"/><path d="M43.12 33.5l-2.44 6.38"/><path d="M43.06 29.9l2.52 1.14-2.46 2.45-.06-3.6z"/><path d="M5.02 30.67l3.32 4.6"/><path d="M1.96 28.76l2.35-1.5.72 3.4-3.06-1.9z"/></g></g></svg>