<svg xmlns="http://www.w3.org/2000/svg" width="48" height="48"><defs><linearGradient x1="237.088" x2="280.796" y1="383.691" y2="383.691" gradientUnits="userSpaceOnUse"><stop offset=".006" stop-color="#fff"/><stop offset=".421" stop-color="#C3CBD4"/><stop offset="1" stop-color="#A1A8B2"/></linearGradient><linearGradient x1="245.926" x2="275.676" y1="390.665" y2="372.915" gradientUnits="userSpaceOnUse"><stop offset="0" stop-color="#fff"/><stop offset=".528" stop-color="#DBE2E6"/><stop offset="1" stop-color="#B3BDCA"/></linearGradient><linearGradient x1="237.088" x2="280.796" y1="373.31" y2="373.31" gradientUnits="userSpaceOnUse"><stop offset=".006" stop-color="#fff"/><stop offset=".421" stop-color="#C3CBD4"/><stop offset="1" stop-color="#A1A8B2"/></linearGradient><linearGradient x1="245.925" x2="275.675" y1="380.283" y2="362.533" gradientUnits="userSpaceOnUse"><stop offset="0" stop-color="#fff"/><stop offset=".528" stop-color="#DBE2E6"/><stop offset="1" stop-color="#B3BDCA"/></linearGradient><linearGradient x1="245.925" x2="275.675" y1="380.283" y2="362.533" gradientUnits="userSpaceOnUse"><stop offset="0" stop-color="#fff"/><stop offset=".528" stop-color="#DBE2E6"/><stop offset="1" stop-color="#B3BDCA"/></linearGradient></defs><g><path stroke="#fff" stroke-opacity=".502" stroke-width="3" d="M15.35 11.63h2.9l-.38 1.08h-2.9l-2.86 8.5c-.13.37-.13.65 0 .8.18.2.5.3.93.3h1.6l-.33.94H7.2l.32-.93h.98c.43 0 .76-.06 1-.2.2-.16.38-.4.48-.7l2.95-8.7h-2l.36-1.07h2l.3-.87c.68-2.05 1.64-3.6 2.85-4.7 1.22-1.07 2.45-1.6 3.7-1.6.93 0 1.58.22 1.95.67.37.46.43 1.05.18 1.8-.16.47-.4.84-.76 1.12-.34.28-.7.42-1.1.42-.34 0-.6-.12-.74-.34-.15-.22-.17-.5-.06-.84.13-.4.4-.72.77-.97.3-.2.47-.34.5-.44.05-.15 0-.28-.15-.4-.14-.1-.4-.17-.77-.17-.7 0-1.4.3-2.1.94-.7.62-1.24 1.55-1.66 2.78l-.87 2.58zm15.05-10l.1.7c-1.6 1.24-2.85 2.36-3.74 3.37-.9 1-1.7 2.15-2.44 3.43-.72 1.28-1.37 2.75-1.94 4.43-.55 1.6-.88 3.05-1 4.32-.13 1.27-.08 2.43.14 3.47.22 1.05.7 2.15 1.4 3.32l-.54.64c-.93-1.16-1.6-2.16-2-3-.64-1.32-1-2.73-1.07-4.2-.06-1.47.18-3 .72-4.6.53-1.6 1.3-3.1 2.32-4.5 1-1.43 2.26-2.8 3.74-4.08 1-.9 2.46-2 4.32-3.28zm7.92 0c1 1.32 1.7 2.4 2.08 3.2.6 1.3.93 2.65 1 4.1.05 1.44-.2 2.96-.73 4.56-.54 1.56-1.3 3.04-2.3 4.44-1 1.4-2.26 2.76-3.77 4.1-1.07.95-2.5 2.04-4.3 3.27l-.1-.63c1.48-1.16 2.7-2.26 3.63-3.3.93-1.06 1.77-2.22 2.5-3.48.73-1.28 1.37-2.7 1.92-4.33.57-1.68.93-3.16 1.06-4.44.15-1.28.1-2.42-.1-3.43-.22-1.02-.7-2.14-1.44-3.38l.56-.68z" font-size="25.355" font-style="italic" font-family="Bernard MT Condensed"/><path fill="#babdb6" fill-rule="evenodd" d="M24 38.22l8.03 4.5-8.03 4.8-8.18-5L24 38.2z"/><path fill="#888a85" fill-rule="evenodd" d="M31.9 33.9l8.1 4.35-8.18 4.66-8.1-4.72 8.17-4.3z"/><path fill="#555753" fill-rule="evenodd" d="M39 29.98l7.97 3.93-7.33 4.36-7.9-4.37 7.27-3.92z"/><path fill="#d3d7cf" fill-rule="evenodd" d="M16.24 34.1L23.88 38l-8.34 4.28-7.37-4.14 8.07-4.07z"/><path fill="#ef2929" fill-rule="evenodd" stroke="#fcaf3e" d="M23.88 30.84l5.78 3.07-6.06 3.3-5.86-3.22 6.14-3.14z"/><path fill="#888a85" fill-rule="evenodd" d="M31.32 26.05l7.5 4-7.22 3.86-7.44-4.13 7.16-3.72z"/><path fill="#eeeeec" fill-rule="evenodd" d="M9 30l7.43 3.93-8.57 4.28L.7 34.08 9 30z"/><path fill="#d3d7cf" fill-rule="evenodd" d="M17 25.9l7.43 3.92-8.57 4.3-7.15-4.16L17 25.9z"/><path fill="#babdb6" fill-rule="evenodd" d="M24.2 22.18l7.3 4-7.43 3.86-7.2-4.15 7.34-3.72z"/><path fill="none" stroke="#fff" stroke-opacity=".502" stroke-width=".80289" d="M24.14 23.36l21.5 10.83-21.5 12.3L2.57 34.1l21.57-10.76z"/><path fill="none" stroke="#31343a" stroke-width=".79818" d="M24.07 22.4l23.2 11.67-23.2 13.4-23.2-13.4 23.2-11.67z"/><path fill="none" stroke="#31343a" stroke-width=".8" d="M9 30l22.86 12.8" color="#000" overflow="visible" enable-background="accumulate"/><path fill="none" stroke="#31343a" stroke-width=".8" d="M16.5 25.93l23.2 12.43" color="#000" overflow="visible" enable-background="accumulate"/><path fill="none" stroke="#31343a" stroke-width=".8" d="M39 29.93l-23.57 12.5" color="#000" overflow="visible" enable-background="accumulate"/><path fill="none" stroke="#31343a" stroke-width=".8" d="M31.5 25.86L7.93 38.2" color="#000" overflow="visible" enable-background="accumulate"/><path d="M15.35 11.63h2.9l-.38 1.08h-2.9l-2.86 8.5c-.13.37-.13.65 0 .8.18.2.5.3.93.3h1.6l-.33.94H7.2l.32-.93h.98c.43 0 .76-.06 1-.2.2-.16.38-.4.48-.7l2.95-8.7h-2l.36-1.07h2l.3-.87c.68-2.05 1.64-3.6 2.85-4.7 1.22-1.07 2.45-1.6 3.7-1.6.93 0 1.58.22 1.95.67.37.46.43 1.05.18 1.8-.16.47-.4.84-.76 1.12-.34.28-.7.42-1.1.42-.34 0-.6-.12-.74-.34-.15-.22-.17-.5-.06-.84.13-.4.4-.72.77-.97.3-.2.47-.34.5-.44.05-.15 0-.28-.15-.4-.14-.1-.4-.17-.77-.17-.7 0-1.4.3-2.1.94-.7.62-1.24 1.55-1.66 2.78l-.87 2.58zm15.05-10l.1.7c-1.6 1.24-2.85 2.36-3.74 3.37-.9 1-1.7 2.15-2.44 3.43-.72 1.28-1.37 2.75-1.94 4.43-.55 1.6-.88 3.05-1 4.32-.13 1.27-.08 2.43.14 3.47.22 1.05.7 2.15 1.4 3.32l-.54.64c-.93-1.16-1.6-2.16-2-3-.64-1.32-1-2.73-1.07-4.2-.06-1.47.18-3 .72-4.6.53-1.6 1.3-3.1 2.32-4.5 1-1.43 2.26-2.8 3.74-4.08 1-.9 2.46-2 4.32-3.28zm7.92 0c1 1.32 1.7 2.4 2.08 3.2.6 1.3.93 2.65 1 4.1.05 1.44-.2 2.96-.73 4.56-.54 1.56-1.3 3.04-2.3 4.44-1 1.4-2.26 2.76-3.77 4.1-1.07.95-2.5 2.04-4.3 3.27l-.1-.63c1.48-1.16 2.7-2.26 3.63-3.3.93-1.06 1.77-2.22 2.5-3.48.73-1.28 1.37-2.7 1.92-4.33.57-1.68.93-3.16 1.06-4.44.15-1.28.1-2.42-.1-3.43-.22-1.02-.7-2.14-1.44-3.38l.56-.68z" font-size="25.355" font-style="italic" font-family="Bernard MT Condensed"/></g></svg>