<svg xmlns="http://www.w3.org/2000/svg" width="48" height="48" xmlns:xlink="http://www.w3.org/1999/xlink"><defs><linearGradient x1="-2238.106" x2="-2226.048" y1="799.509" y2="850.939" gradientTransform="matrix(.231 1.37 -.989 .32 1358.555 2825.354)" gradientUnits="userSpaceOnUse"><stop offset="0" stop-color="#fff"/><stop offset="1" stop-color="#B8C0CA"/></linearGradient><linearGradient x1="45.409" x2="3.606" y1="524.394" y2="515.824" gradientUnits="userSpaceOnUse" gradientTransform="matrix(1.016 -.004 .003 1.407 -1.814 -709.791)"><stop offset="0" stop-color="#fff"/><stop offset="1" stop-color="#B8C0CA"/></linearGradient><linearGradient x1="-2251.493" x2="-2239.436" y1="802.65" y2="854.077" gradientTransform="matrix(.231 1.37 -.989 .32 1358.555 2825.354)" gradientUnits="userSpaceOnUse"><stop offset="0" stop-color="#fff"/><stop offset="1" stop-color="#B8C0CA"/></linearGradient><linearGradient x1="776.865" x2="777.995" y1="541.731" y2="543.105" gradientUnits="userSpaceOnUse"><stop offset=".247" stop-color="#fff"/><stop offset=".301" stop-color="#F3F4F5"/><stop offset=".508" stop-color="#CBD0D6"/><stop offset=".701" stop-color="#AFB9C2"/><stop offset=".871" stop-color="#9EAAB6"/><stop offset="1" stop-color="#99A5B3"/></linearGradient><linearGradient x1="779.324" x2="780.542" y1="541.802" y2="543.042" gradientUnits="userSpaceOnUse"><stop offset=".247" stop-color="#fff"/><stop offset=".301" stop-color="#F3F4F5"/><stop offset=".508" stop-color="#CBD0D6"/><stop offset=".701" stop-color="#AFB9C2"/><stop offset=".871" stop-color="#9EAAB6"/><stop offset="1" stop-color="#99A5B3"/></linearGradient><linearGradient x1="781.786" x2="783.049" y1="541.8" y2="543.019" gradientUnits="userSpaceOnUse"><stop offset=".247" stop-color="#fff"/><stop offset=".301" stop-color="#F3F4F5"/><stop offset=".508" stop-color="#CBD0D6"/><stop offset=".701" stop-color="#AFB9C2"/><stop offset=".871" stop-color="#9EAAB6"/><stop offset="1" stop-color="#99A5B3"/></linearGradient><linearGradient x1="777.438" x2="777.438" y1="541.401" y2="543.071" gradientUnits="userSpaceOnUse"><stop offset=".455" stop-color="#D0D5DA"/><stop offset=".826" stop-color="#99A5B3"/><stop offset="1" stop-color="#9DA9B6"/></linearGradient><linearGradient x1="779.938" x2="779.938" y1="541.401" y2="543.071" gradientUnits="userSpaceOnUse"><stop offset=".455" stop-color="#D0D5DA"/><stop offset=".826" stop-color="#99A5B3"/><stop offset="1" stop-color="#9DA9B6"/></linearGradient><linearGradient x1="782.435" x2="782.435" y1="541.401" y2="543.071" gradientUnits="userSpaceOnUse"><stop offset=".455" stop-color="#D0D5DA"/><stop offset=".826" stop-color="#99A5B3"/><stop offset="1" stop-color="#9DA9B6"/></linearGradient><linearGradient x1="771.22" x2="771.22" y1="561.378" y2="544.373" gradientUnits="userSpaceOnUse"><stop offset="0" stop-color="#fff"/><stop offset=".41" stop-color="#fff"/><stop offset=".592" stop-color="#FBFCFA"/><stop offset=".775" stop-color="#EEEFEB"/><stop offset=".957" stop-color="#D9DCD5"/><stop offset="1" stop-color="#D3D7CF"/></linearGradient><linearGradient x1="771.219" x2="771.219" y1="542.046" y2="562.616" gradientUnits="userSpaceOnUse"><stop offset="0" stop-color="#ADBBCA"/><stop offset=".348" stop-color="#fff"/><stop offset=".674" stop-color="#fff"/><stop offset=".759" stop-color="#FBFCFC"/><stop offset=".844" stop-color="#EFF2F5"/><stop offset=".929" stop-color="#DAE2E8"/><stop offset="1" stop-color="#C3D2DD"/></linearGradient><linearGradient x1="771.219" x2="771.219" y1="540.617" y2="562.616" gradientUnits="userSpaceOnUse"><stop offset="0" stop-color="#E8ECED"/><stop offset=".348" stop-color="#fff"/><stop offset=".674" stop-color="#fff"/></linearGradient><linearGradient x1="784.5" x2="784.5" y1="586.057" y2="551.017" gradientUnits="userSpaceOnUse" gradientTransform="translate(-757.06 -539.628)"><stop offset="0" stop-color="#709EC3"/><stop offset=".383" stop-color="#72A0C4"/><stop offset=".521" stop-color="#79A3C6"/><stop offset=".619" stop-color="#83ABCA"/><stop offset=".698" stop-color="#94B5D0"/><stop offset=".766" stop-color="#A9C3D9"/><stop offset=".827" stop-color="#C6D6E5"/><stop offset=".88" stop-color="#E5ECF2"/><stop offset=".916" stop-color="#fff"/></linearGradient><linearGradient x1="784.5" x2="784.5" y1="556.36" y2="586.157" gradientUnits="userSpaceOnUse" gradientTransform="translate(-757.06 -539.628)"><stop offset="0" stop-color="#6395BF"/><stop offset=".09" stop-color="#CCDBE8"/><stop offset=".674" stop-color="#fff"/><stop offset=".728" stop-color="#FBFDFE"/><stop offset=".781" stop-color="#EFF5F8"/><stop offset=".835" stop-color="#DBEAF2"/><stop offset=".889" stop-color="#BED9E8"/><stop offset=".943" stop-color="#9AC6DC"/><stop offset=".997" stop-color="#6FAFCE"/><stop offset="1" stop-color="#6CADCD"/></linearGradient><linearGradient x1="800.531" x2="800.531" y1="556.321" y2="557.73" gradientUnits="userSpaceOnUse"><stop offset=".455" stop-color="#D9ADAE"/><stop offset=".944" stop-color="#CB1009"/></linearGradient><linearGradient x1="799.813" x2="801.373" y1="556.137" y2="558.064" gradientUnits="userSpaceOnUse"><stop offset=".247" stop-color="#fff"/><stop offset=".34" stop-color="#E8C8B7"/><stop offset=".472" stop-color="#CE896F"/><stop offset=".599" stop-color="#BA5942"/><stop offset=".719" stop-color="#AB3825"/><stop offset=".829" stop-color="#A22214"/><stop offset=".926" stop-color="#9B150B"/><stop offset="1" stop-color="#991109"/></linearGradient><linearGradient x1="797.254" x2="797.254" y1="556.27" y2="557.833" gradientUnits="userSpaceOnUse"><stop offset=".455" stop-color="#A0C6DE"/><stop offset=".944" stop-color="#3165A1"/></linearGradient><linearGradient x1="796.481" x2="797.996" y1="556.142" y2="557.876" gradientUnits="userSpaceOnUse"><stop offset=".247" stop-color="#fff"/><stop offset=".253" stop-color="#FCFDFE"/><stop offset=".401" stop-color="#AEBDD5"/><stop offset=".533" stop-color="#7392BA"/><stop offset=".644" stop-color="#4875A9"/><stop offset=".731" stop-color="#3066A0"/><stop offset=".781" stop-color="#27609D"/><stop offset="1" stop-color="#355787"/></linearGradient><linearGradient x1="793.975" x2="793.975" y1="556.27" y2="557.833" gradientUnits="userSpaceOnUse"><stop offset=".455" stop-color="#A0C6DE"/><stop offset=".944" stop-color="#3165A1"/></linearGradient><linearGradient x1="793.256" x2="794.664" y1="556.108" y2="557.905" gradientUnits="userSpaceOnUse"><stop offset=".247" stop-color="#fff"/><stop offset=".253" stop-color="#FCFDFE"/><stop offset=".401" stop-color="#AEBDD5"/><stop offset=".533" stop-color="#7392BA"/><stop offset=".644" stop-color="#4875A9"/><stop offset=".731" stop-color="#3066A0"/><stop offset=".781" stop-color="#27609D"/><stop offset="1" stop-color="#355787"/></linearGradient><linearGradient x1="767.066" x2="802.103" y1="559.555" y2="584.711" gradientUnits="userSpaceOnUse"><stop offset="0" stop-color="#263D4C"/><stop offset=".348" stop-color="#446D8C"/><stop offset="1" stop-color="#698499"/></linearGradient><linearGradient x1="784.5" x2="784.5" y1="584.578" y2="559.512" gradientUnits="userSpaceOnUse"><stop offset="0" stop-color="#fff"/><stop offset=".41" stop-color="#fff"/><stop offset=".592" stop-color="#FBFCFA"/><stop offset=".775" stop-color="#EEEFEB"/><stop offset=".957" stop-color="#D9DCD5"/><stop offset="1" stop-color="#D3D7CF"/></linearGradient><linearGradient id="a" x1="84.022" x2="75.07" y1="233.44" y2="233.44" gradientTransform="matrix(0 -1 -1 0 259.812 95.129)" gradientUnits="userSpaceOnUse"><stop offset="0" stop-color="#E96712"/><stop offset=".648" stop-color="#D4290C"/><stop offset="1" stop-color="#CB1009"/></linearGradient><linearGradient x1="84.022" x2="75.07" y1="233.44" y2="233.44" xlink:href="#a" gradientUnits="userSpaceOnUse" gradientTransform="matrix(0 -1 -1 0 259.812 95.129)"/></defs><g><g fill="#babdb6"><path d="M48.07 40.26V38.8h-.7c-.08 0-.14-.1-.14-.2v-1.46c0-.1.05-.18.13-.18h.7l-.03-16.1h-.7c-.08 0-.14-.1-.14-.2V19.2c0-.1.04-.18.12-.18h.7v-1.57L0 17.63v1.55h.75c.08 0 .14.08.14.18v1.46c0 .1-.07.2-.14.2H0l.04 16.1H.8c.07 0 .13.08.13.18v1.47c0 .1-.06.18-.14.18H.03v1.5l48.03-.18zM2.03 21c-.07 0-.13-.08-.13-.18v-1.46c0-.1.06-.2.13-.18h1.74c.08 0 .14.07.14.17v1.46c0 .1-.05.2-.13.2H2.03zm3.02 0c-.07 0-.13-.1-.13-.2v-1.45c0-.1.06-.18.13-.2H6.8c.07 0 .13.1.13.2v1.45c0 .1-.06.2-.13.2H5.05zm3.02 0c-.07-.02-.13-.1-.13-.2v-1.47c0-.1.06-.18.13-.17H9.8c.1 0 .14.07.15.17v1.46c0 .1-.06.18-.14.18H8.08zm3.02-.03c-.08 0-.14-.08-.14-.18v-1.47c0-.1.05-.2.13-.2h1.73c.07 0 .13.1.13.2v1.45c0 .1-.05.2-.13.2H11.1zm3 0c-.06 0-.12-.1-.12-.2v-1.45c0-.1.05-.2.13-.2h1.75c.07 0 .13.1.13.2v1.45c0 .1-.05.2-.13.2H14.1zm3.03-.02c-.07 0-.13-.08-.13-.18V19.3c0-.1.06-.18.13-.18h1.74c.07 0 .13.08.13.18v1.46c0 .1-.06.2-.13.18h-1.74zm3.02 0c-.07 0-.13-.1-.13-.2V19.3c0-.1.05-.2.13-.2h1.74c.06 0 .12.1.12.2v1.45c0 .1-.05.2-.13.2h-1.75zm3.02-.02c-.08 0-.14-.08-.14-.18V19.3c0-.12.06-.2.14-.2h1.74c.08 0 .14.08.14.18v1.46c0 .1-.06.2-.13.2h-1.73zm3.02 0c-.08 0-.15-.1-.15-.2V19.3c0-.1.06-.2.13-.2h1.75c.07 0 .13.1.13.2v1.45c0 .1-.06.2-.13.2H26.2zm3-.02c-.07 0-.13-.07-.12-.17v-1.46c0-.1.05-.2.12-.2h1.75c.07 0 .13.1.13.2v1.45c0 .1-.06.2-.13.2H29.2zm3.03 0c-.08 0-.14-.08-.14-.18v-1.46c0-.1.05-.2.12-.2h1.74c.08 0 .14.1.14.2v1.45c0 .1-.06.2-.13.2h-1.74zm3.02 0c-.08 0-.14-.1-.14-.2v-1.46c0-.1.07-.18.14-.18h1.74c.08 0 .14.08.14.18v1.46c0 .1-.06.18-.13.18h-1.75zm3-.02c-.06 0-.12-.08-.12-.18v-1.47c0-.1.06-.18.13-.18H40c.08 0 .14.08.14.18v1.46c0 .1-.06.17-.13.17h-1.74zm3.03 0c-.07 0-.13-.1-.13-.2v-1.46c0-.1.06-.18.13-.18h1.74c.07 0 .13.07.14.18v1.46c0 .1-.06.18-.13.18h-1.75zm3.02-.02c-.07 0-.13-.1-.13-.18v-1.46c0-.1.06-.2.13-.2h1.74c.07 0 .13.1.13.2v1.45c0 .1-.05.18-.13.18H44.3zm1.78 16.1c.07 0 .13.1.13.2l.02 1.45c0 .1-.06.2-.14.2h-1.74c-.07 0-.13-.08-.13-.18v-1.47c0-.1.06-.18.14-.18h1.74zm-3.02 0c.07.02.13.1.13.2v1.46c0 .1-.06.2-.14.2h-1.74c-.07 0-.13-.1-.13-.2l-.02-1.46c0-.1.06-.18.14-.18h1.74zm-3.02.03c.08 0 .13.07.13.17v1.46c0 .1-.05.18-.13.2H38.3c-.07 0-.13-.1-.13-.2V37.2c0-.1.06-.2.13-.2h1.74zm-3.02 0c.08 0 .14.08.14.18v1.46c0 .1-.06.2-.13.2h-1.75c-.07 0-.13-.1-.13-.2V37.2c0-.1.06-.2.13-.2h1.74zM34 37c.08 0 .14.1.13.2v1.45c0 .1-.05.2-.12.2h-1.74c-.07 0-.13-.1-.13-.2V37.2c0-.1.06-.2.13-.2H34zm-3.02.02c.08 0 .14.08.14.18v1.46c0 .1-.06.2-.13.2h-1.76c-.07 0-.13-.1-.13-.2v-1.45c0-.1.07-.18.14-.18h1.74zm-3 0c.06 0 .12.1.12.2v1.45c0 .1-.06.2-.13.2h-1.74c-.08 0-.14-.1-.14-.2v-1.45c0-.1.05-.2.12-.2h1.75zm-3.03.02c.07 0 .13.08.13.18v1.46c0 .1-.06.2-.13.2H23.2c-.07 0-.13-.1-.13-.2v-1.45c0-.1.06-.2.13-.18h1.75zm-3.02 0c.07 0 .13.1.13.2v1.45c0 .1-.06.18-.13.18H20.2c-.08 0-.15-.08-.14-.18v-1.46c0-.1.05-.18.12-.2h1.75zm-3.02.02c.08 0 .14.08.14.18v1.46c0 .1-.06.2-.13.2h-1.73c-.08 0-.13-.1-.14-.2v-1.45c0-.1.06-.2.14-.2h1.74zm-3 0c.06 0 .12.1.12.2v1.45c0 .1-.06.2-.13.2h-1.75c-.08 0-.13-.08-.13-.18v-1.46c0-.1.05-.2.13-.2h1.74zm-3.03.02c.07 0 .13.08.13.18v1.47c0 .1-.05.18-.13.18l-1.74.02c-.07 0-.13-.1-.13-.2v-1.45c0-.1.05-.2.13-.18l1.74-.02zm-3.02 0c.07 0 .13.1.13.2v1.45c0 .1-.05.2-.13.2H8.1c-.06 0-.12-.1-.12-.2V37.3c0-.1.05-.18.13-.2h1.75zm-7.78 1.87c-.07 0-.13-.1-.13-.2V37.3c0-.1.06-.18.13-.18H3.8c.08 0 .14.07.15.17v1.46c0 .1-.06.18-.13.18H2.07zm2.9-1.66c0-.1.04-.2.12-.2h1.73c.07 0 .13.08.13.18v1.46c0 .1-.05.2-.13.2H5.1c-.08 0-.14-.1-.14-.2V37.3z"/></g><path fill="#eeeeec" d="M33.3 35.6c-.1 0-.2-.14-.2-.3l-.04-12.76c0-.17.1-.3.22-.3l13.3-.06c.12 0 .22.14.22.3l.02 12.75c0 .17-.1.3-.22.3l-13.3.06z"/><path fill="#eeeeec" d="M17.5 35.65c-.13 0-.23-.13-.23-.3l-.02-12.75c0-.17.1-.3.22-.3l13.3-.06c.1 0 .2.14.2.3l.04 12.76c0 .16-.1.3-.2.3l-13.3.05z"/><path fill="#eeeeec" d="M1.68 35.7c-.12 0-.22-.12-.22-.3l-.03-12.74c0-.17.1-.3.22-.3l13.3-.06c.12 0 .22.14.22.3l.02 12.75c0 .17-.1.3-.23.3l-13.3.06z"/><path fill="none" stroke="#ef2929" stroke-width="2" d="M1 16V7"/><path fill="none" stroke="#ef2929" stroke-width="2" d="M47 16V7"/><path fill="none" stroke="#ef2929" d="M2 11.5h44"/><path fill="#ef2929" fill-rule="evenodd" d="M2 11.42L6.42 7v9L2 11.42z"/><path fill="#ef2929" fill-rule="evenodd" d="M46 11.42L41.58 7v9L46 11.42z"/><path fill="none" stroke="#ef2929" d="M16.98 38.5h13.15"/><path fill="#ef2929" fill-rule="evenodd" d="M16.58 38.42L21 34v9l-4.42-4.58z"/><path fill="#ef2929" fill-rule="evenodd" d="M31 38.42L26.58 34v9L31 38.42z"/><path fill="none" stroke="#ef2929" d="M35.5 34.55V22.8"/><path fill="#ef2929" fill-rule="evenodd" d="M35.42 36L31 31.58h9L35.42 36z"/><path fill="#ef2929" fill-rule="evenodd" d="M35.42 22L31 26.42h9L35.42 22z"/></g></svg>