<svg xmlns="http://www.w3.org/2000/svg" width="48" height="48"><defs><linearGradient id="a" x1="-2238.106" x2="-2226.048" y1="799.509" y2="850.939" gradientTransform="matrix(.228 .986 -.986 .228 1348.567 2036.566)" gradientUnits="userSpaceOnUse"><stop offset="0" stop-color="#fff"/><stop offset="1" stop-color="#B8C0CA"/></linearGradient><linearGradient id="b" x1="45.409" x2="3.606" y1="524.394" y2="515.824" gradientUnits="userSpaceOnUse" gradientTransform="matrix(1.012 0 0 1.012 -.177 -509.896)"><stop offset="0" stop-color="#fff"/><stop offset="1" stop-color="#B8C0CA"/></linearGradient><linearGradient id="c" x1="-2251.493" x2="-2239.436" y1="802.65" y2="854.077" gradientTransform="matrix(.228 .986 -.986 .228 1348.567 2036.566)" gradientUnits="userSpaceOnUse"><stop offset="0" stop-color="#fff"/><stop offset="1" stop-color="#B8C0CA"/></linearGradient><linearGradient id="d" x1="162.628" x2="140.251" y1="-36.543" y2="-36.543" gradientTransform="matrix(1.012 0 0 1.012 -121.844 69.528)" gradientUnits="userSpaceOnUse"><stop offset=".006" stop-color="#EF7916"/><stop offset="1" stop-color="#CB130C"/></linearGradient><linearGradient id="e" x1="42.747" x2="5.151" y1="535.887" y2="535.887" gradientUnits="userSpaceOnUse"><stop offset=".303" stop-color="#F7AF3E"/><stop offset="1" stop-color="#F12523"/></linearGradient></defs><g><g><path d="M48.07 24.7v-1.06h-.7c-.07 0-.13-.06-.13-.13v-1.04c0-.08.06-.14.13-.14h.7V10.74h-.7c-.08 0-.14-.07-.14-.14V9.55c0-.07.06-.13.14-.13h.7V8.3H.2v1.1h.76c.07 0 .13.07.13.14v1.05c0 .06-.07.12-.14.12H.2v11.6h.76c.08 0 .14.05.14.13v1.05c0 .07-.06.13-.14.13H.2v1.07h47.87zM2.23 10.72c-.07 0-.13-.06-.13-.13V9.53c0-.07.06-.13.13-.13h1.74c.07 0 .13.07.13.14v1.05c0 .06-.06.12-.13.13H2.23zm3 0c-.06 0-.12-.06-.12-.13V9.53c0-.07.07-.13.14-.13h1.74c.07 0 .13.07.13.14v1.05c0 .07-.05.12-.12.12H5.24zm3.02 0c-.07 0-.13-.05-.13-.13V9.53c0-.07.06-.13.13-.13H10c.06 0 .12.07.12.14v1.05c0 .07-.06.13-.13.13H8.24zm3 0c-.06 0-.12-.05-.12-.13V9.53c0-.07.06-.13.13-.13H13c.07 0 .13.07.13.14v1.05c0 .07-.06.13-.13.13h-1.74zm3.02 0c-.08 0-.14-.05-.14-.13V9.53c0-.07.06-.13.14-.13H16c.08 0 .13.07.14.14v1.05c0 .07-.06.13-.13.13h-1.73zm3 0c-.07 0-.13-.05-.12-.12V9.54c0-.07.06-.13.13-.13H19c.1 0 .15.07.15.14v1.05c0 .07-.06.13-.14.13H17.3zm3.02 0c-.1 0-.15-.05-.15-.12V9.54c0-.07.06-.13.14-.13H22c.08 0 .13.07.14.15v1.05c0 .07-.06.13-.14.13H20.3zm3 0c-.08 0-.14-.05-.14-.12V9.55c0-.08.06-.14.14-.14h1.73c.07 0 .13.07.13.15v1.05c0 .07-.06.13-.13.13H23.3zm3 0c-.07 0-.13-.05-.13-.12V9.55c0-.08.06-.14.13-.14h1.74c.07.02.13.07.13.15v1.05c0 .07-.06.13-.13.13H26.3zm3 0c-.06 0-.12-.05-.12-.12V9.55c0-.08.06-.14.13-.13h1.75c.07 0 .13.05.13.13v1.05c0 .07-.06.13-.13.13H29.3zm3.02 0c-.07 0-.13-.05-.13-.12V9.55c0-.08.05-.13.12-.14l1.74.02c.07 0 .13.06.13.13v1.05c0 .07-.07.13-.14.13h-1.74zm3 0c-.06 0-.12-.05-.12-.12V9.55c0-.07.06-.14.13-.13h1.74c.07 0 .13.06.13.13v1.05c0 .07-.06.13-.13.13h-1.74zm3.02 0c-.07 0-.13-.05-.13-.12V9.55c0-.07.07-.13.14-.13h1.74c.07 0 .13.06.13.13v1.05c0 .07-.05.13-.12.13h-1.74zm3 0c-.07 0-.12-.05-.12-.12V9.55c0-.07.05-.13.13-.13h1.73c.08 0 .14.06.14.13v1.05c0 .07-.06.13-.14.13h-1.73zm3 .02c-.06 0-.12-.07-.1-.14l-.02-1.05c0-.07.06-.13.14-.13h1.73c.07 0 .13.06.13.13v1.05c0 .07-.06.14-.14.13h-1.75zm1.76 11.58c.07 0 .13.06.13.14v1.05c0 .08-.06.14-.13.14h-1.74c-.07 0-.13-.06-.13-.13v-1.04c0-.08.06-.14.13-.14h1.74zm-3 0c.06 0 .12.06.12.14v1.05c0 .08-.06.14-.13.14h-1.75c-.07 0-.13-.06-.13-.13v-1.05c0-.07.06-.13.13-.13h1.74zm-3.02 0c.07 0 .13.06.13.14v1.05c0 .08-.05.14-.12.14h-1.74c-.07 0-.13-.06-.13-.13v-1.04c0-.08.07-.14.14-.14h1.74zm-3 0c.06 0 .12.06.12.13v1.05c0 .08-.06.14-.13.14h-1.74c-.07 0-.13-.06-.13-.13v-1.04c0-.08.06-.14.13-.14h1.74zm-3.02 0c.07 0 .13.06.13.13v1.05c0 .08-.07.14-.14.14h-1.74c-.07 0-.13-.06-.13-.14v-1.05c0-.07.05-.13.12-.13h1.74zm-3 0c.07 0 .12.06.12.13v1.05c0 .08-.06.14-.13.14H29.3c-.06 0-.12-.06-.12-.14v-1.05c0-.07.06-.13.14-.13h1.73zm-3.02 0c.08 0 .13.06.14.13v1.05c0 .08-.06.14-.14.14H26.3c-.07 0-.13-.06-.13-.14v-1.05c0-.07.06-.13.14-.13h1.74zm-3 0c.07 0 .13.06.12.13v1.05c0 .08-.05.14-.13.14H23.3c-.08 0-.14-.07-.13-.14v-1.05c0-.07.06-.13.13-.13h1.73zm-3 0c.06 0 .12.06.12.13v1.05c0 .07-.06.13-.14.13H20.3c-.08 0-.14-.06-.14-.13v-1.05c0-.07.06-.13.13-.13h1.73zm-3.02 0c.07 0 .13.06.13.13v1.05c0 .07-.06.13-.13.13h-1.74c-.07 0-.13-.06-.13-.13v-1.05c0-.07.06-.13.13-.13h1.74zm-3 0c.06 0 .12.05.12.13v1.05c0 .07-.06.13-.13.13h-1.73c-.07 0-.13-.06-.13-.13v-1.05c0-.07.06-.14.13-.13H16zm-3.02 0c.07 0 .13.05.13.13v1.05c0 .07-.06.13-.13.13h-1.74c-.07 0-.13-.06-.13-.13v-1.05c0-.08.06-.14.13-.13H13zm-3 0c.06 0 .12.05.12.13v1.05c0 .07-.06.13-.13.13H8.24c-.07 0-.13-.06-.13-.13v-1.05c0-.07.06-.14.13-.14H10zm-7.76 1.3c-.08 0-.14-.05-.14-.12v-1.06c0-.07.06-.13.14-.13h1.73c.08 0 .13.07.13.14v1.06c0 .07-.06.13-.13.13H2.24zm2.87-1.17c0-.08.07-.14.14-.14h1.74c.07 0 .13.07.13.15v1.05c0 .07-.05.13-.12.13H5.25c-.08 0-.14-.06-.14-.13v-1.05z"/></g><path fill="url(#a)" d="M33.37 21.3c-.12 0-.22-.1-.22-.22V11.9c0-.1.1-.2.22-.2h13.25c.12 0 .22.1.22.2v9.18c0 .12-.1.22-.22.22H33.37z"/><path fill="url(#b)" d="M17.6 21.3c-.1 0-.2-.1-.2-.22V11.9c0-.1.1-.2.2-.2h13.26c.12 0 .22.1.22.2v9.18c0 .12-.1.22-.22.22H17.6z"/><path fill="url(#c)" d="M1.85 21.3c-.12 0-.22-.1-.22-.22V11.9c0-.1.1-.2.22-.2H15.1c.12 0 .22.1.22.2v9.18c0 .12-.1.22-.22.22H1.85z"/><g><path fill="none" stroke="#fff" stroke-width="2.02.964" d="M43.1 28.97H16.4v-5.05c0-.18-.14-.33-.32-.33-.1 0-.17.03-.23.1L5.02 32.06c-.26.26-.26.67 0 .93l10.82 8.38c.06.07.14.1.24.1.18 0 .32-.14.32-.32V36.1h26.7"/></g><path fill="url(#d)" stroke="#590c08" stroke-width=".43" d="M43.1 28.97H16.4v-5.05c0-.18-.14-.33-.32-.33-.1 0-.17.03-.23.1L5.02 32.06c-.26.26-.26.67 0 .93l10.82 8.38c.06.07.14.1.24.1.18 0 .32-.14.32-.32V36.1h26.7"/><g transform="matrix(1.012 0 0 1.012 -.177 -509.896)"><linearGradient x1="42.747" x2="5.151" y1="535.887" y2="535.887" gradientUnits="userSpaceOnUse"><stop offset=".303" stop-color="#F7AF3E"/><stop offset="1" stop-color="#F12523"/></linearGradient><path fill="url(#e)" d="M15.92 527.32l-10.5 8.13s-.27.2-.27.4c0 .23.26.45.26.45l10.46 8.1c.3.23.34.1.32-.33 0-1.25 0-4.16 0-4.87 1.16 0 26.56 0 26.56 0V538H14.98s0 2.83 0 4.2c-1.46-1.14-7.2-5.58-8.15-6.32.96-.75 6.7-5.2 8.15-6.32 0 1.36 0 4.2 0 4.2h27.77v-1.2s-25.4 0-26.57 0c0-.8 0-4.16 0-5.16-.06-.24-.26-.08-.26-.08z"/></g></g></svg>