<svg xmlns="http://www.w3.org/2000/svg" width="48" height="48" xmlns:xlink="http://www.w3.org/1999/xlink"><defs><linearGradient id="a"><stop offset="0" stop-color="#babdb6"/><stop offset="1" stop-color="#e1e3e0"/></linearGradient><linearGradient id="b" x1="8.006" x2="38.762" y1="7.256" y2="40.827" xlink:href="#a" gradientUnits="userSpaceOnUse" gradientTransform="matrix(.964 0 0 .964 1.55 .86)"/></defs><g><path fill="url(#b)" fill-rule="evenodd" stroke="#2e3436" stroke-width="2" d="M6.7 6.32c12.58-6.46 18.75 8.7 34.62 0 5.3 11.37-7.57 24.37 0 35.3-10.16 5.58-21.28-8.1-34.6 0-5.86-11.93 7.03-23.16 0-35.3z" color="#000" overflow="visible"/><path fill="none" stroke="#eeeeec" stroke-width="1.5" d="M8.2 7.6c11.46-5.87 17.36 8.23 31.83.3 4.83 10.36-7.18 22.5-.28 32.45-9.26 5.1-19.4-7.67-31.55-.28C2.86 29.2 14.62 18.7 8.2 7.6z" color="#000" overflow="visible"/><path fill="none" stroke="#ef2929" stroke-width=".5" d="M35.7 26.5L41 41.35l-14.87 5.3"/><path fill="#ef2929" fill-rule="evenodd" d="M37.82 27.62a1.6 1.6 0 1 1-3.22 0 1.6 1.6 0 1 1 3.22 0z" color="#000" overflow="visible"/><path fill="#ef2929" fill-rule="evenodd" d="M28.96 46.2a1.6 1.6 0 1 1-3.22 0 1.6 1.6 0 1 1 3.22 0z" color="#000" overflow="visible"/><path fill="none" stroke="#ef2929" stroke-width=".5" d="M21.6 36.04l-14.84 5.3-5.3-14.86"/><path fill="#ef2929" fill-rule="evenodd" d="M20.5 38.16c-1.25 0-2.02-1.34-1.4-2.4.28-.5.8-.8 1.4-.8 1.22-.02 2 1.32 1.38 2.4-.3.5-.82.8-1.4.8z" color="#000" overflow="visible"/><path fill="#ef2929" fill-rule="evenodd" d="M1.9 29.3c-1.24 0-2.02-1.34-1.4-2.4.3-.5.82-.8 1.4-.8 1.23 0 2 1.32 1.4 2.4-.3.5-.83.8-1.4.8z" color="#000" overflow="visible"/><path fill="none" stroke="#ef2929" stroke-width=".5" d="M12.08 21.32L6.78 6.47l14.87-5.3"/><path fill="#ef2929" fill-rule="evenodd" d="M9.96 20.2c0-1.24 1.34-2 2.4-1.4.5.3.82.82.82 1.4 0 1.23-1.34 2-2.4 1.4-.5-.3-.82-.83-.82-1.4z" color="#000" overflow="visible"/><path fill="#ef2929" fill-rule="evenodd" d="M18.82 1.6c0-1.23 1.34-2 2.4-1.4.5.3.82.83.82 1.4 0 1.24-1.34 2.02-2.4 1.4-.5-.3-.82-.82-.82-1.4z" color="#000" overflow="visible"/><path fill="none" stroke="#ef2929" stroke-width=".5" d="M26.17 11.78l14.85-5.3 5.3 14.87"/><path fill="#ef2929" fill-rule="evenodd" d="M27.3 9.66c1.23 0 2 1.34 1.38 2.4-.28.5-.8.82-1.4.82-1.23 0-2-1.34-1.38-2.4.3-.5.82-.82 1.4-.82z" color="#000" overflow="visible"/><path fill="#ef2929" fill-rule="evenodd" d="M45.88 18.52c1.24 0 2 1.34 1.4 2.4-.3.5-.82.82-1.4.82-1.23 0-2-1.34-1.4-2.4.3-.5.83-.82 1.4-.82z" color="#000" overflow="visible"/><path fill="#fcaf3e" fill-rule="evenodd" stroke="#ce5c00" stroke-width=".7.426" d="M9.12 41.2a2.2 2.2 0 1 1-4.4 0 2.2 2.2 0 1 1 4.4 0z" color="#000" overflow="visible"/><path fill="#fcaf3e" fill-rule="evenodd" stroke="#ce5c00" stroke-width=".7.426" d="M9.12 6.5a2.2 2.2 0 1 1-4.4 0 2.2 2.2 0 1 1 4.4 0z" color="#000" overflow="visible"/><path fill="#fcaf3e" fill-rule="evenodd" stroke="#ce5c00" stroke-width=".7.426" d="M43.42 6.78a2.2 2.2 0 1 1-4.4 0 2.2 2.2 0 1 1 4.4 0z" color="#000" overflow="visible"/><path fill="#fcaf3e" fill-rule="evenodd" stroke="#ce5c00" stroke-width=".7.426" d="M43.55 41.62a2.2 2.2 0 1 1-4.4 0 2.2 2.2 0 1 1 4.4 0z" color="#000" overflow="visible"/></g></svg>