<svg xmlns="http://www.w3.org/2000/svg" width="48" height="48"><defs><linearGradient id="b" x1="492.522" x2="508.248" y1="1316.236" y2="1316.236" gradientTransform="matrix(.707 -.707 .707 .707 -1248.436 -316.274)" gradientUnits="userSpaceOnUse"><stop offset=".006" stop-color="#fff"/><stop offset=".065" stop-color="#FFFDF9"/><stop offset=".142" stop-color="#FEF6E9"/><stop offset=".231" stop-color="#FDEACD"/><stop offset=".327" stop-color="#FBDBA7"/><stop offset=".429" stop-color="#F9C677"/><stop offset=".531" stop-color="#F7AF3E"/><stop offset="1" stop-color="#F12523"/></linearGradient><linearGradient id="a" x1="493.065" x2="505.171" y1="1316.243" y2="1316.243" gradientTransform="matrix(.707 -.707 .707 .707 -1248.436 -316.274)" gradientUnits="userSpaceOnUse"><stop offset=".056" stop-color="#fff"/><stop offset=".139" stop-color="#FFFDFB"/><stop offset=".219" stop-color="#FEF6EF"/><stop offset=".3" stop-color="#FDEBDC"/><stop offset=".38" stop-color="#FBDBC0"/><stop offset=".459" stop-color="#F8C69C"/><stop offset=".538" stop-color="#F5AD71"/><stop offset=".616" stop-color="#F2903E"/><stop offset=".67" stop-color="#EF7916"/><stop offset="1" stop-color="#CB130C"/></linearGradient><linearGradient id="c" x1="6.858" x2="165.445" y1="271.361" y2="398.134" gradientUnits="userSpaceOnUse" gradientTransform="matrix(1.038 0 0 1.038 -1.341 -261.371)"><stop offset="0" stop-color="#fff"/><stop offset="1" stop-color="#A1A8B3"/></linearGradient><linearGradient id="d" x1="-5.172" x2="43.454" y1="259.752" y2="300.598" gradientUnits="userSpaceOnUse" gradientTransform="matrix(1.038 0 0 1.038 -1.341 -261.371)"><stop offset="0" stop-color="#fff"/><stop offset="1" stop-color="#B0BAC2"/></linearGradient><radialGradient id="t" cx="25.797" cy="279.065" r="8.336" gradientUnits="userSpaceOnUse" fy="279.065" fx="25.797"><stop offset="0" stop-color="#A66C14"/><stop offset="1" stop-color="#804E0E"/></radialGradient><radialGradient id="s" cx="21.535" cy="287.248" r="5.259" gradientUnits="userSpaceOnUse" fy="287.248" fx="21.535"><stop offset="0" stop-color="#A66C14"/><stop offset="1" stop-color="#73460E"/></radialGradient><radialGradient id="r" cx="15.645" cy="282.659" r="9.984" gradientUnits="userSpaceOnUse" fy="282.659" fx="15.645"><stop offset="0" stop-color="#A66C14"/><stop offset="1" stop-color="#804E0E"/></radialGradient><radialGradient id="q" cx="15.681" cy="286.88" r="15.231" gradientUnits="userSpaceOnUse" fy="286.88" fx="15.681"><stop offset="0" stop-color="#A66C14"/><stop offset="1" stop-color="#804E0E"/></radialGradient><radialGradient id="p" cx="13.403" cy="288.651" r="7.77" gradientUnits="userSpaceOnUse" fy="288.651" fx="13.403"><stop offset="0" stop-color="#A66C14"/><stop offset="1" stop-color="#73460E"/></radialGradient><radialGradient id="o" cx="26.772" cy="287.207" r="15.288" gradientUnits="userSpaceOnUse" fy="287.207" fx="26.772"><stop offset="0" stop-color="#A66C14"/><stop offset="1" stop-color="#804E0E"/></radialGradient><linearGradient id="n" x1="20.069" x2="25.888" y1="269.935" y2="270.987" gradientUnits="userSpaceOnUse"><stop offset=".006" stop-color="#D29539"/><stop offset=".573" stop-color="#BA7F2C"/><stop offset=".725" stop-color="#BA802D"/><stop offset="1" stop-color="#D4983B"/></linearGradient><radialGradient id="m" cx="19.414" cy="273.158" r="16.139" gradientUnits="userSpaceOnUse" fy="273.158" fx="19.414"><stop offset="0" stop-color="#A66C14"/><stop offset="1" stop-color="#804E0E"/></radialGradient><linearGradient id="l" x1="18.452" x2="23.919" y1="267.011" y2="286.727" gradientUnits="userSpaceOnUse"><stop offset=".006" stop-color="#DB9F3E"/><stop offset="1" stop-color="#9E671C"/></linearGradient><radialGradient id="k" cx="25.443" cy="284.642" r="10.767" gradientUnits="userSpaceOnUse" fy="284.642" fx="25.443"><stop offset="0" stop-color="#A66C14"/><stop offset="1" stop-color="#804E0E"/></radialGradient><radialGradient id="j" cx="14.944" cy="285.356" r="11.504" gradientUnits="userSpaceOnUse" fy="285.356" fx="14.944"><stop offset="0" stop-color="#A66C14"/><stop offset="1" stop-color="#804E0E"/></radialGradient><radialGradient id="i" cx="19.256" cy="283.149" r="20.659" gradientUnits="userSpaceOnUse" fy="283.149" fx="19.256"><stop offset="0" stop-color="#A66C14"/><stop offset="1" stop-color="#804E0E"/></radialGradient><radialGradient id="h" cx="8.998" cy="289.557" r="16.827" gradientUnits="userSpaceOnUse" fy="289.557" fx="8.998"><stop offset="0" stop-color="#A66C14"/><stop offset="1" stop-color="#804E0E"/></radialGradient><radialGradient id="g" cx="18.521" cy="296.082" r="20.76" gradientUnits="userSpaceOnUse" fy="296.082" fx="18.521"><stop offset="0" stop-color="#A66C14"/><stop offset="1" stop-color="#804E0E"/></radialGradient><radialGradient id="f" cx="6.523" cy="281.116" r="21.872" gradientUnits="userSpaceOnUse" fy="281.116" fx="6.523"><stop offset="0" stop-color="#E5A845"/><stop offset="1" stop-color="#8F5813"/></radialGradient><linearGradient id="e" x1="25.115" x2="25.185" y1="271.05" y2="286.123" gradientUnits="userSpaceOnUse"><stop offset=".006" stop-color="#DB9F3E"/><stop offset="1" stop-color="#9E671C"/></linearGradient></defs><g><path fill="#edc9ca" stroke="#ed2728" stroke-width=".7" d="M4.26.45h40.4v46.07H4.25z"/><path fill="#d4d4d4" d="M5.83 14.78h27.4v33.24H5.82z"/><g transform="matrix(1.038 0 0 1.038 -1.341 -261.371)"><path fill="#fff" d="M36.7 257.15l-7.36 7.36c-.05.06-.1.1-.12.13.48.48 2.4 2.4 2.88 2.87.02-.02.06-.06.1-.1h.02l7.35-7.37s1.85 1.85 2.4 2.4c0 0 .46-7.53.55-8.23-.7.1-8.24.55-8.24.55.56.55 2.4 2.4 2.4 2.4z"/><linearGradient x1="493.065" x2="505.171" y1="1316.243" y2="1316.243" gradientTransform="matrix(.707 -.707 .707 .707 -1248.436 -316.274)" gradientUnits="userSpaceOnUse"><stop offset=".056" stop-color="#fff"/><stop offset=".139" stop-color="#FFFDFB"/><stop offset=".219" stop-color="#FEF6EF"/><stop offset=".3" stop-color="#FDEBDC"/><stop offset=".38" stop-color="#FBDBC0"/><stop offset=".459" stop-color="#F8C69C"/><stop offset=".538" stop-color="#F5AD71"/><stop offset=".616" stop-color="#F2903E"/><stop offset=".67" stop-color="#EF7916"/><stop offset="1" stop-color="#CB130C"/></linearGradient><path fill="url(#a)" stroke="#4c0705" stroke-width="1.445" d="M32.78 267.95l6.8-6.78 2.72 2.73c.07.07.2.07.26 0 .04-.04.06-.08.06-.13l.77-10.07c0-.2-.18-.37-.38-.37l-10.07.77c-.04 0-.1.02-.13.06-.07.07-.07.2 0 .26l2.73 2.73-6.78 6.8"/><linearGradient x1="492.522" x2="508.248" y1="1316.236" y2="1316.236" gradientTransform="matrix(.707 -.707 .707 .707 -1248.436 -316.274)" gradientUnits="userSpaceOnUse"><stop offset=".006" stop-color="#fff"/><stop offset=".065" stop-color="#FFFDF9"/><stop offset=".142" stop-color="#FEF6E9"/><stop offset=".231" stop-color="#FDEACD"/><stop offset=".327" stop-color="#FBDBA7"/><stop offset=".429" stop-color="#F9C677"/><stop offset=".531" stop-color="#F7AF3E"/><stop offset="1" stop-color="#F12523"/></linearGradient><path fill="url(#b)" d="M42.92 253.46l-9.9.75c-.2.03-.17.1 0 .27.52.5 2.4 2.4 2.7 2.68-.48.48-6.87 6.87-6.87 6.87l-.44.44c-.04.05-.04.13 0 .18l3.7 3.67c.04.06.12.06.17 0l.43-.43s6.4-6.4 6.87-6.86c.32.32 2.4 2.4 2.8 2.8.12.07.14-.07.14-.07l.77-9.93s.02-.18-.07-.27c-.1-.1-.28-.07-.28-.07zm-.94 8.98c-.56-.56-2.4-2.4-2.4-2.4l-7.36 7.35c-.06.04-.1.08-.12.1-.48-.47-2.4-2.4-2.88-2.87.03-.03.07-.07.12-.12l7.35-7.35s-1.86-1.85-2.42-2.4c0 0 7.55-.46 8.24-.55-.1.7-.54 8.24-.54 8.24z"/></g><path fill="url(#c)" stroke="#1b2433" d="M4.26 13.5h27.47v33.02H4.26z"/><path fill="url(#d)" d="M7.64 16.48h20.7v24.94H7.64z"/><g transform="matrix(1.038 0 0 1.038 -1.341 -261.371)"><g fill="#8f5813" stroke="#58370e" stroke-width="1.445"><path d="M25.36 279.1l1.9-11.58-.5-.15-.58-.06-.16.72c-1.16-.44-3.13-.75-4.57-.9l.08-.56-.57-.15-.5-.04-1.93 10.6-8.9 1.14.02.33.18.1.6 11.23.5.44.75-.24-.2-8.75 3.63 2.27.35 10.7.66.57.9-.4-.05-10.66 2-.55.53 4 .38.23.62-.2-.35-4.36 3.36-.94.9 8.47.67.43.7-.3-.6-9.07.2-2.3zm-1.6-.46L20 277.1l.64-4.35c1.32.26 3.14.8 4.13 1.2l-1 4.7z"/><path d="M21.45 267.1z"/></g><linearGradient x1="25.115" x2="25.185" y1="271.05" y2="286.123" gradientUnits="userSpaceOnUse"><stop offset=".006" stop-color="#DB9F3E"/><stop offset="1" stop-color="#9E671C"/></linearGradient><path fill="url(#e)" d="M23.66 279.12l2.52-11.8.6.05-2.4 12.3c-.16 1.17.1 4.33.1 4.33l.6 6.76-.67-.43-.9-8.47.16-2.74z"/><radialGradient cx="6.523" cy="281.116" r="21.872" gradientUnits="userSpaceOnUse" fy="281.116" fx="6.523"><stop offset="0" stop-color="#E5A845"/><stop offset="1" stop-color="#8F5813"/></radialGradient><path fill="url(#f)" d="M9.63 278.1l8.9-1.13.64.26.84-.12 3.76 1.54-.1.48.8.3-8.64 2.23-6.2-3.55z"/><radialGradient cx="18.521" cy="296.082" r="20.76" gradientUnits="userSpaceOnUse" fy="296.082" fx="18.521"><stop offset="0" stop-color="#A66C14"/><stop offset="1" stop-color="#804E0E"/></radialGradient><path fill="url(#g)" d="M17 294.34l-.05-12.63-1.05.3.2 12.74.9-.4z"/><radialGradient cx="8.998" cy="289.557" r="16.827" gradientUnits="userSpaceOnUse" fy="289.557" fx="8.998"><stop offset="0" stop-color="#A66C14"/><stop offset="1" stop-color="#804E0E"/></radialGradient><path fill="url(#h)" d="M10.43 289.75l-.6-11.2.65.36.46 11.3-.5-.44z"/><radialGradient cx="19.256" cy="283.149" r="20.659" gradientUnits="userSpaceOnUse" fy="283.149" fx="19.256"><stop offset="0" stop-color="#A66C14"/><stop offset="1" stop-color="#804E0E"/></radialGradient><path fill="url(#i)" d="M18.95 283.13l.53 4 .38.23-.4-4.37-.52.13z"/><radialGradient cx="14.944" cy="285.356" r="11.504" gradientUnits="userSpaceOnUse" fy="285.356" fx="14.944"><stop offset="0" stop-color="#A66C14"/><stop offset="1" stop-color="#804E0E"/></radialGradient><path fill="url(#j)" d="M15.1 283.47l-4.55-2.82-.07-1.74 4.57 2.67.06 1.9z"/><radialGradient cx="25.443" cy="284.642" r="10.767" gradientUnits="userSpaceOnUse" fy="284.642" fx="25.443"><stop offset="0" stop-color="#A66C14"/><stop offset="1" stop-color="#804E0E"/></radialGradient><path fill="url(#k)" d="M24.26 281.65l-7.3 2.03-.02-1.97 7.42-2.02-.1 1.97z"/><linearGradient x1="18.452" x2="23.919" y1="267.011" y2="286.727" gradientUnits="userSpaceOnUse"><stop offset=".006" stop-color="#DB9F3E"/><stop offset="1" stop-color="#9E671C"/></linearGradient><path fill="url(#l)" d="M19.17 277.23l1.8-10.82-.52-.04-1.92 10.6.64.27z"/><radialGradient cx="19.414" cy="273.158" r="16.139" gradientUnits="userSpaceOnUse" fy="273.158" fx="19.414"><stop offset="0" stop-color="#A66C14"/><stop offset="1" stop-color="#804E0E"/></radialGradient><path fill="url(#m)" d="M20.97 266.4l.56.16L20 277.1l-.83.13 1.8-10.82z"/><linearGradient x1="20.069" x2="25.888" y1="269.935" y2="270.987" gradientUnits="userSpaceOnUse"><stop offset=".006" stop-color="#D29539"/><stop offset=".573" stop-color="#BA7F2C"/><stop offset=".725" stop-color="#BA802D"/><stop offset="1" stop-color="#D4983B"/></linearGradient><path fill="url(#n)" d="M26.02 268.02c-1.32-.5-3.7-.84-5.16-.98l-.93 5.6c1.3.15 3.65.85 4.83 1.3l1.26-5.92z"/><radialGradient cx="26.772" cy="287.207" r="15.288" gradientUnits="userSpaceOnUse" fy="287.207" fx="26.772"><stop offset="0" stop-color="#A66C14"/><stop offset="1" stop-color="#804E0E"/></radialGradient><path fill="url(#o)" d="M24.44 279.66l-8.62 2.36v-.37l8.63-2.22v.23z"/><path fill="none" stroke="#efce91" stroke-width=".482" d="M15.82 281.65l8.63-2.22"/><radialGradient cx="13.403" cy="288.651" r="7.77" gradientUnits="userSpaceOnUse" fy="288.651" fx="13.403"><stop offset="0" stop-color="#A66C14"/><stop offset="1" stop-color="#73460E"/></radialGradient><path fill="url(#p)" d="M11.68 289.96l-.2-8.75-.93-.55.4 9.56.73-.24z"/><radialGradient cx="15.681" cy="286.88" r="15.231" gradientUnits="userSpaceOnUse" fy="286.88" fx="15.681"><stop offset="0" stop-color="#A66C14"/><stop offset="1" stop-color="#804E0E"/></radialGradient><path fill="url(#q)" d="M15.9 282l.2 12.74-.65-.58-.4-12.6.84.44z"/><radialGradient cx="15.645" cy="282.659" r="9.984" gradientUnits="userSpaceOnUse" fy="282.659" fx="15.645"><stop offset="0" stop-color="#A66C14"/><stop offset="1" stop-color="#804E0E"/></radialGradient><path fill="url(#r)" d="M15.82 282.02l-6.17-3.6-.02-.32 6.2 3.55v.37z"/><radialGradient cx="21.535" cy="287.248" r="5.259" gradientUnits="userSpaceOnUse" fy="287.248" fx="21.535"><stop offset="0" stop-color="#A66C14"/><stop offset="1" stop-color="#73460E"/></radialGradient><path fill="url(#s)" d="M19.46 283l.4 4.36.62-.2-.35-4.36-.67.2z"/><radialGradient cx="25.797" cy="279.065" r="8.336" gradientUnits="userSpaceOnUse" fy="279.065" fx="25.797"><stop offset="0" stop-color="#A66C14"/><stop offset="1" stop-color="#804E0E"/></radialGradient><path fill="url(#t)" d="M24.36 279.68c-.14 1.16.1 4.32.1 4.32l.6 6.76.7-.3-.58-9.07.18-2.3 1.92-11.58-.5-.15-2.36 12.05-.06.26z"/><path fill="none" stroke="#efce91" stroke-width=".482" d="M24.42 279.42l2.35-12.05"/><path fill="none" stroke="#b38b47" stroke-width=".482" d="M16.1 294.74l-.28-13.1"/><path fill="none" stroke="#d8b982" stroke-width=".482" d="M9.63 278.1l6.2 3.55"/></g></g></svg>