<svg xmlns="http://www.w3.org/2000/svg" width="48" height="48"><defs><linearGradient id="a" x1="332.018" x2="310.517" y1="436.861" y2="436.861" gradientUnits="userSpaceOnUse" gradientTransform="matrix(1.035 0 0 1.036 -299.512 -432.935)"><stop offset="0" stop-color="#fff"/><stop offset="1" stop-color="#B8C0CA"/></linearGradient><linearGradient id="b" x1="335.195" x2="297.777" y1="436.861" y2="436.861" gradientUnits="userSpaceOnUse" gradientTransform="matrix(1.035 0 0 1.036 -299.512 -432.935)"><stop offset="0" stop-color="#fff"/><stop offset="1" stop-color="#B8C0CA"/></linearGradient><linearGradient id="c" x1="333.882" x2="296.464" y1="436.86" y2="436.86" gradientUnits="userSpaceOnUse" gradientTransform="matrix(1.035 0 0 1.036 -299.512 -432.935)"><stop offset="0" stop-color="#fff"/><stop offset="1" stop-color="#B8C0CA"/></linearGradient><linearGradient id="d" x1="290.2" x2="308.426" y1="451.288" y2="451.288" gradientUnits="userSpaceOnUse" gradientTransform="matrix(1.035 0 0 1.036 -299.512 -432.935)"><stop offset="0" stop-color="#EF7916"/><stop offset=".961" stop-color="#CB130C"/></linearGradient><linearGradient id="e" x1="-2534.708" x2="-2540.244" y1="2080.817" y2="2071.048" gradientTransform="matrix(-.5 .866 -.866 -.5 824.735 3686.669)" gradientUnits="userSpaceOnUse"><stop offset=".303" stop-color="#F7AF3E"/><stop offset="1" stop-color="#F12523"/></linearGradient><linearGradient id="f" x1="-6685.978" x2="-6667.752" y1="4610.02" y2="4610.02" gradientTransform="matrix(-1.035 0 0 -1.036 -6878.681 4809.367)" gradientUnits="userSpaceOnUse"><stop offset="0" stop-color="#EF7916"/><stop offset=".961" stop-color="#CB130C"/></linearGradient><linearGradient id="g" x1="4555.154" x2="4549.618" y1="6042.995" y2="6033.226" gradientTransform="matrix(.5 -.866 .866 .5 -7179.434 1374.578)" gradientUnits="userSpaceOnUse"><stop offset=".303" stop-color="#F7AF3E"/><stop offset="1" stop-color="#F12523"/></linearGradient></defs><g><g fill="none" stroke="#96ff00" stroke-width="4.346" stroke-linecap="round"><path d="M21.46 11.16v1.14H20.3v1.35h1.16V25.5H20.3v1.35h1.16v1.1"/><path d="M22.5 11.16v1.14h1.77v1.35H22.5V25.5h1.77v1.36H22.5v1.1"/></g><g><path d="M7.98 13.64c-.08 0-.13-.06-.13-.13v-1.07c0-.07.06-.13.13-.13h1.78c.07 0 .13.06.13.13v1.08c0 .08-.07.15-.15.15H7.98zm3.08 0c-.08 0-.14-.06-.14-.13v-1.06c0-.08.06-.14.14-.14h1.78c.07 0 .13.06.13.14v1.07c0 .1-.06.15-.13.14h-1.78zm3.08 0c-.08 0-.14-.05-.14-.13v-1.07c0-.07.06-.13.14-.13h1.77c.1 0 .15.06.15.14v1.07c0 .1-.06.15-.14.15h-1.76zm3.07 0c-.06 0-.12-.05-.12-.13v-1.06c0-.08.06-.14.13-.14H19c.06 0 .13.06.13.14v1.07c0 .1-.07.15-.14.15h-1.8zm8.37 0c-.08 0-.14-.05-.14-.12v-1.08c0-.08.07-.13.14-.14h1.78c.07 0 .13.06.13.14v1.08c0 .07-.06.13-.13.13h-1.78zm3.08 0c-.08 0-.14-.05-.14-.12v-1.08c0-.07.07-.14.15-.14h1.78c.07 0 .13.07.13.14v1.08c0 .07-.06.13-.14.13h-1.77zm3.07 0c-.07 0-.13-.05-.13-.12v-1.08c0-.08.05-.14.13-.13h1.77c.08 0 .14.07.14.14v1.08c0 .07-.06.13-.14.13h-1.78zm3.08 0c-.07 0-.13-.05-.13-.12v-1.08c0-.07.06-.13.13-.13h1.78c.07 0 .13.07.13.14v1.08c0 .07-.05.13-.12.13H34.8zm3.08.02c-.07 0-.14-.07-.14-.14v-1.08c0-.07.07-.13.14-.13h1.78c.07 0 .13.07.13.14v1.08c0 .08-.07.14-.14.14h-1.78zm3.08 0c-.08 0-.14-.06-.14-.14v-1.08c0-.07.06-.13.14-.13h1.77c.08 0 .14.07.14.14v1.08c0 .08-.06.13-.14.14h-1.77zm3.07 0c-.07 0-.13-.06-.13-.14v-1.07c0-.08.06-.14.14-.14h1.77c.1 0 .15.07.15.15v1.07c0 .08-.06.14-.14.14h-1.77zM45.8 25.5c.1 0 .15.08.15.15v1.08c0 .07-.06.13-.14.13h-1.76c-.08 0-.14-.06-.14-.13v-1.08c0-.07.06-.13.14-.13h1.77zm-3.06.02c.07 0 .13.05.13.13v1.08c0 .07-.06.13-.13.13h-1.78c-.07 0-.14-.06-.13-.13v-1.08c0-.08.06-.14.13-.14l1.78.02zm-3.08 0c.07 0 .13.05.14.13v1.07c0 .08-.07.14-.14.14h-1.78c-.07 0-.13-.06-.13-.13v-1.08c0-.08.06-.14.13-.14h1.78zm-3.08 0c.08 0 .14.05.14.13v1.07c0 .08-.07.14-.14.14H34.8c-.07 0-.13-.06-.13-.14v-1.07c0-.08.06-.14.14-.14h1.78zm-3.07 0c.08 0 .14.05.14.13v1.07c0 .08-.06.14-.14.14h-1.77c-.08 0-.14-.06-.14-.14v-1.07c0-.08.05-.14.13-.14h1.78zm-3.07 0c.07 0 .13.05.13.13v1.07c0 .08-.06.14-.13.14h-1.78c-.07 0-.14-.06-.13-.14v-1.07c0-.08.06-.14.13-.14h1.78zm-3.08 0c.07 0 .13.05.13.13v1.07c0 .08-.06.14-.13.14h-1.78c-.07 0-.13-.06-.13-.14v-1.07c0-.08.06-.14.13-.14h1.78zm-4.86 2.43h25.34v-1.1h-.73c-.06 0-.12-.05-.12-.12v-1.08c0-.07.06-.14.13-.13h.74V13.65h-.73c-.06 0-.12-.06-.12-.14v-1.07c0-.08.06-.14.13-.14h.74v-1.14H22.5v1.14h1.77c.07 0 .13.06.13.14v1.07c0 .1-.06.15-.13.15H22.5V25.5h1.77c.08 0 .14.07.14.14v1.08c0 .08-.05.14-.13.14H22.5v1.1zm-1.04-1.1H20.3c-.08 0-.14-.06-.14-.13v-1.08c0-.07.06-.13.13-.13h1.16V13.66H20.3c-.08 0-.14-.06-.14-.14v-1.06c0-.08.06-.14.13-.14h1.16v-1.14H5.16v1.14h1.52c.07 0 .13.06.14.13v1.08c0 .1-.07.14-.14.15H5.16V25.5h1.52c.08 0 .14.06.14.14v1.08c0 .07-.06.13-.14.13H5.16v1.1h16.3v-1.1zM19 25.5c.07 0 .13.07.13.14v1.08c0 .07-.06.13-.14.13H17.2c-.08 0-.14-.06-.14-.13v-1.08c0-.07.06-.13.14-.13H19zm-3.08 0c.07 0 .13.07.13.14v1.08c0 .07-.06.13-.13.13h-1.78c-.07 0-.14-.06-.14-.13v-1.08c0-.07.07-.13.14-.14h1.78zm-7.94 1.35c-.07 0-.13-.06-.13-.13v-1.08c0-.08.06-.14.14-.14h1.76c.07 0 .14.06.13.14v1.08c0 .07-.07.13-.14.13H7.98zm2.95-1.2c0-.1.06-.14.13-.15h1.78c.07 0 .13.07.13.14v1.08c0 .07-.06.13-.13.13h-1.78c-.07 0-.13-.06-.13-.14v-1.06z"/></g><path fill="url(#a)" d="M40.02 24.47c-.13 0-.23-.1-.23-.23v-9.38c0-.12.1-.22.22-.22h7.82v9.83h-7.82z"/><path fill="url(#b)" d="M23.9 24.47c-.13 0-.23-.1-.23-.23v-9.38c0-.12.1-.22.23-.22h13.55c.12 0 .22.1.22.22v9.4c0 .1-.1.2-.22.2H23.9z"/><path fill="url(#c)" d="M6.42 24.47c-.13 0-.23-.1-.23-.23v-9.38c0-.12.1-.22.22-.22h13.55c.12 0 .22.1.22.22v9.38c0 .13-.1.23-.23.23H6.42z"/><path fill="none" stroke="#fff" stroke-width="3" d="M9.84 38.57v4.63c0 .2.17.37.38.37.1 0 .2-.04.26-.1l9.82-8.44c.3-.3.3-.77 0-1.06l-9.82-8.44c-.06-.07-.16-.1-.27-.1-.2 0-.36.16-.36.36v4.62"/><path fill="url(#d)" stroke="#590c08" stroke-width=".5" d="M.23 38.57h9.6v4.63c0 .2.18.37.4.37.1 0 .18-.04.25-.1l9.82-8.44c.3-.3.3-.77 0-1.06l-9.82-8.44c-.06-.07-.16-.1-.27-.1-.2 0-.36.16-.36.36v4.62H.24"/><g transform="matrix(1.035 0 0 1.036 -299.512 -432.935)"><linearGradient x1="-2534.708" x2="-2540.244" y1="2080.817" y2="2071.048" gradientTransform="matrix(-.5 .866 -.866 -.5 824.735 3686.669)" gradientUnits="userSpaceOnUse"><stop offset=".303" stop-color="#F7AF3E"/><stop offset="1" stop-color="#F12523"/></linearGradient><path fill="url(#e)" d="M308.87 451.13l-9.62-8.34s-.2-.13-.2.05v4.74c-.84 0-9.54 0-9.54 0v.93H300s0-2.6 0-3.55c1.2 1.32 7.3 5.77 7.76 6.28-.47.5-6.55 4.98-7.76 6.3 0-.92 0-3.52 0-3.52H289.5v.95h9.54v4.55c0 .53.36.05.36.05l9.43-8.1.04-.37z"/></g><path fill="none" stroke="#fff" stroke-width="3" d="M34.56 30.36v-4.63c0-.2-.16-.37-.37-.37-.1 0-.2.04-.27.1L24.1 33.9c-.3.3-.3.77 0 1.06l9.82 8.44c.07.07.16.1.27.1.2 0 .37-.15.36-.36V38.5"/><path fill="url(#f)" stroke="#590c08" stroke-width=".5" d="M44.18 30.36h-9.62v-4.63c0-.2-.16-.37-.37-.37-.1 0-.2.04-.27.1L24.1 33.9c-.3.3-.3.77 0 1.06l9.82 8.44c.07.07.16.1.27.1.2 0 .37-.16.36-.36V38.5h9.62"/><g transform="matrix(1.035 0 0 1.036 -299.512 -432.935)"><linearGradient x1="4555.154" x2="4549.618" y1="6042.995" y2="6033.226" gradientTransform="matrix(.5 -.866 .866 .5 -7179.434 1374.578)" gradientUnits="userSpaceOnUse"><stop offset=".303" stop-color="#F7AF3E"/><stop offset="1" stop-color="#F12523"/></linearGradient><path fill="url(#g)" d="M312.6 451.38l9.63 8.34s.2.12.2-.06v-4.74c.83 0 9.53 0 9.53 0V454l-10.46-.02s0 2.62 0 3.55c-1.2-1.32-7.3-5.76-7.76-6.27.46-.5 6.55-5 7.76-6.3 0 .9 0 3.5 0 3.5h10.46v-.93h-9.52v-4.56c0-.53-.36-.06-.36-.06l-9.44 8.13-.03.35z"/></g></g></svg>