<svg xmlns="http://www.w3.org/2000/svg" width="48" height="48"><defs><linearGradient id="a" x1="-1545.849" x2="-1533.792" y1="803.499" y2="854.926" gradientTransform="matrix(.469 .883 -.883 .469 1483.067 1005.048)" gradientUnits="userSpaceOnUse"><stop offset="0" stop-color="#fff"/><stop offset="1" stop-color="#B8C0CC"/></linearGradient><linearGradient id="b" x1="-1559.235" x2="-1547.178" y1="806.64" y2="858.063" gradientTransform="matrix(.469 .883 -.883 .469 1483.067 1005.048)" gradientUnits="userSpaceOnUse"><stop offset="0" stop-color="#fff"/><stop offset="1" stop-color="#B8C0CC"/></linearGradient><linearGradient id="c" x1="-1183.599" x2="-1189.533" y1="3331.431" y2="3331.431" gradientTransform="matrix(-.966 .259 -.259 -.966 -260.924 3537.361)" gradientUnits="userSpaceOnUse"><stop offset=".006" stop-color="#F17912"/><stop offset="1" stop-color="#CB1009"/></linearGradient><linearGradient id="d" x1="-1934.531" x2="-1937.352" y1="1862.517" y2="1857.539" gradientTransform="matrix(-.259 .966 -.966 -.259 1319.47 2747.625)" gradientUnits="userSpaceOnUse"><stop offset=".303" stop-color="#FAAF3E"/><stop offset="1" stop-color="#F62724"/></linearGradient><linearGradient id="e" x1="438.765" x2="432.831" y1="695.427" y2="695.427" gradientTransform="matrix(.966 -.259 .259 .966 -583.804 -544.9)" gradientUnits="userSpaceOnUse"><stop offset=".006" stop-color="#F17912"/><stop offset="1" stop-color="#CB1009"/></linearGradient><linearGradient id="f" x1="1159.494" x2="1156.674" y1="1949.596" y2="1944.618" gradientTransform="matrix(.259 -.966 .966 .259 -2162.617 1012.673)" gradientUnits="userSpaceOnUse"><stop offset=".303" stop-color="#FAAF3E"/><stop offset="1" stop-color="#F62724"/></linearGradient></defs><g><g><path d="M49.08 30.76l-.27-1-.67.17c-.07.02-.14-.02-.16-.1l-.27-1c0-.07.03-.14.1-.16l.67-.18-2.96-11.07-.67.18c-.07.03-.14 0-.16-.08l-.27-1c-.02-.07.02-.14.1-.16l.67-.18-.3-1.08L-.78 27.34l.3 1.06.7-.2c.08 0 .15.04.17.1l.27 1c0 .08-.03.15-.1.17l-.7.2L2.78 40.7l.7-.2c.08 0 .15.03.17.1l.27 1c.02.07-.02.15-.1.16l-.7.2L3.4 43l45.68-12.24zM1.76 29.14c-.07.02-.14-.02-.16-.1l-.27-1c-.02-.06.02-.13.1-.15l1.65-.46c.07 0 .14.03.16.1l.27 1c.03.07 0 .14-.1.16l-1.64.44zm2.87-.76c-.07 0-.14-.03-.16-.1l-.27-1c-.02-.07.02-.14.1-.16l1.65-.44c.07-.02.14.02.16.1l.28 1c.02.06-.02.13-.1.15l-1.65.45zm2.87-.77c-.07.03-.14-.02-.16-.1l-.27-1c-.02-.06.02-.13.1-.15l1.65-.44c.07 0 .14.03.16.1l.27 1c.02.07-.02.14-.1.16l-1.65.45zm2.87-.76c-.07.02-.14-.02-.16-.1l-.26-1c-.02-.07.03-.14.1-.16l1.65-.44c.06-.02.13.02.15.1l.27 1c.02.07-.02.14-.1.16l-1.65.44zm2.88-.77c-.08.02-.15-.02-.17-.1l-.27-1c0-.07.04-.14.1-.16l1.66-.43c.07-.02.14.02.16.1l.27 1c0 .07-.03.14-.1.16l-1.65.44zm2.86-.77c-.05.02-.13-.02-.14-.1l-.27-1c-.03-.07 0-.14.08-.15l1.66-.45c.07-.02.14.02.16.1l.26 1c.02.07-.02.14-.1.16l-1.65.44zm2.9-.77c-.08.02-.16-.02-.17-.1l-.27-1c-.02-.06.02-.14.1-.15l1.65-.45c.08-.02.15.03.17.1l.27 1c.02.07-.03.14-.1.16l-1.65.43zm2.86-.77c-.07.02-.14-.02-.16-.1l-.27-1c-.02-.06.02-.13.1-.15l1.65-.44c.07 0 .14.03.16.1l.27 1c.03.07-.02.14-.1.16l-1.64.44zm2.87-.77c-.07 0-.14-.03-.16-.1l-.27-1c-.02-.07.02-.14.1-.16l1.65-.45c.07-.02.14.02.16.1l.28 1c.02.06-.02.13-.1.15l-1.65.44zm2.87-.77c-.07.02-.14-.03-.16-.1l-.27-1c-.02-.07.02-.14.1-.16l1.65-.44c.07-.02.14.02.16.1l.27 1c.02.06-.02.13-.1.15l-1.65.45zm2.87-.77c-.07.02-.14-.02-.16-.1l-.26-1c0-.07.03-.14.1-.16l1.65-.44c.06-.02.14.02.15.1l.27 1c.02.07-.02.14-.1.15l-1.65.46zm2.88-.77c-.07 0-.15-.03-.16-.1l-.28-1c-.02-.08.02-.15.1-.17l1.65-.44c.07-.03.14 0 .15.08l.27 1c0 .08-.03.15-.1.17l-1.65.44zm2.87-.78c-.07.02-.15-.02-.16-.1l-.27-1c-.03-.07 0-.14.08-.15l1.66-.45c.07-.02.14.02.16.1l.27 1c0 .07-.03.14-.1.16l-1.65.44zm2.87-.77c-.08.02-.15-.02-.17-.1l-.27-1c-.02-.06.02-.14.1-.16l1.65-.45c.08-.02.15.02.17.1l.27 1c.02.07-.02.14-.1.16l-1.65.45zm2.86-.77c-.07.02-.14-.02-.16-.1l-.27-1c-.02-.06.02-.13.1-.15l1.65-.45c.07 0 .14.03.16.1l.27 1c.03.07 0 .14-.08.16l-1.66.44zM46.58 29c.07-.02.14.02.16.1l.27 1c.03.06 0 .14-.08.15l-1.66.45c-.07.02-.14-.02-.16-.1l-.27-1c-.02-.07.03-.14.1-.16l1.65-.44zm-2.87.77c.08-.02.15.02.17.1l.27 1c.02.06-.02.13-.1.15l-1.65.45c-.08.02-.15-.03-.17-.1l-.27-1c-.02-.07.02-.14.1-.16l1.65-.43zm-2.86.77c.07-.02.14.02.16.1l.27 1c.02.06-.02.13-.1.15l-1.65.43c-.07.02-.14-.02-.16-.1l-.27-1c-.03-.06 0-.13.08-.15l1.66-.44zm-2.87.76c.07-.02.14.03.16.1l.27 1c.02.07-.03.14-.1.16l-1.65.44c-.07.02-.14-.02-.16-.1l-.28-1c-.02-.06.02-.14.1-.15l1.65-.45zm-2.87.77c.07-.02.14.02.16.1l.27 1c0 .07-.03.14-.1.16l-1.65.44c-.07.02-.15-.02-.16-.1l-.27-1c-.02-.06.02-.14.1-.16l1.65-.43zm-2.87.77c.06-.02.14.02.15.1l.27 1c.02.07-.02.14-.1.16l-1.65.44c-.07.02-.14-.02-.16-.1l-.26-1c-.02-.06.02-.14.1-.16l1.65-.44zm-2.88.77c.07 0 .14.03.16.1l.28 1c.02.07-.02.15-.1.17l-1.65.44c-.07.03-.14 0-.16-.1l-.27-1c0-.06.03-.13.1-.15l1.65-.44zm-2.87.78c.07-.02.14.02.16.1l.27 1c.03.07 0 .14-.08.15l-1.66.45c-.07.02-.14-.02-.16-.1l-.27-1c-.02-.07.02-.14.1-.16l1.65-.44zm-2.87.77c.08-.02.15.02.17.1l.27 1c.02.06-.02.13-.1.15l-1.65.45c-.08.02-.15-.03-.17-.1l-.27-1c-.02-.07.02-.14.1-.16l1.65-.45zm-2.86.76c.07 0 .14.04.16.1l.27 1c.02.08-.03.15-.1.17l-1.65.45c-.07 0-.14-.03-.16-.1l-.27-1c-.03-.07 0-.14.08-.16l1.66-.45zm-2.87.8c.07-.03.14 0 .16.08l.27 1c0 .07-.03.14-.1.16l-1.65.44c-.07.02-.14-.02-.16-.1l-.28-1c-.02-.06.02-.14.1-.15l1.65-.45zm-2.87.75c.07-.02.14.02.15.1l.27 1c.02.07-.02.14-.1.16l-1.64.45c-.07.02-.15-.02-.16-.1l-.27-1c-.02-.06.02-.14.1-.15l1.65-.45zm-2.88.77c.07-.02.14.03.16.1l.27 1c.02.07-.02.14-.1.16l-1.65.44c-.07.02-.14-.02-.16-.1l-.27-1c0-.06.03-.14.1-.15l1.65-.45zm-7.06 3.24c-.07.02-.14-.02-.16-.1l-.27-1c-.02-.07.02-.14.1-.16l1.65-.44c.07-.02.14.02.16.1l.27 1c.03.06 0 .14-.08.15l-1.66.46zM7.5 39.6c-.02-.08.02-.15.1-.17L9.25 39c.07-.03.14 0 .16.08l.28 1c.02.07-.02.15-.1.17l-1.65.44c-.07 0-.14-.03-.16-.1l-.27-1z"/></g><path fill="url(#a)" d="M34.18 31.28c-.12.03-.24-.04-.27-.16l-2.33-8.74c-.03-.12.03-.24.15-.27l12.64-3.38c.12-.03.24.04.27.15l2.35 8.75c.03.12-.04.24-.16.27l-12.64 3.38z"/><path fill="#ed2728" d="M19.14 35.3c-.12.04-.24-.03-.27-.15l-2.34-8.74c-.03-.1.03-.23.15-.26l12.64-3.4c.12-.02.24.05.27.16l2.34 8.75c.03.12-.04.24-.16.27l-12.64 3.4z"/><path fill="url(#b)" d="M4.1 39.33c-.12.04-.24-.03-.27-.15L1.5 30.44c-.04-.12.02-.24.14-.27l12.64-3.4c.12-.02.24.05.27.16l2.34 8.75c.03.12-.04.24-.16.27L4.1 39.33z"/><path fill="url(#c)" stroke="#590b08" stroke-width=".43" d="M20.76 15.85l4.17-1.1.8 2.95c.02.13.16.2.3.17.06-.02.1-.06.14-.12l3.52-6.73c.13-.23.05-.54-.2-.67l-6.4-4.08c-.06-.03-.12-.04-.2-.02-.12.03-.2.17-.17.3l.8 2.97-4.17 1.1"/><g transform="translate(-.792 -383.918)"><linearGradient x1="-1934.531" x2="-1937.352" y1="1862.517" y2="1857.539" gradientTransform="matrix(-.259 .966 -.966 -.259 1319.47 2747.625)" gradientUnits="userSpaceOnUse"><stop offset=".303" stop-color="#FAAF3E"/><stop offset="1" stop-color="#F62724"/></linearGradient><path fill="url(#d)" d="M30.34 394.5l-6.53-4.17s-.16-.05-.12.07l.84 3.15c-.55.14-4.33 1.15-4.33 1.15l.16.63L25.3 394s-.45-1.73-.62-2.35c1.04.66 4.54 2.88 4.94 3.14-.22.4-2.14 4.1-2.7 5.2-.17-.62-.63-2.34-.63-2.34l-4.96 1.32.17.63 4.33-1.15.8 3.03c.12.35.27-.03.27-.03l3.48-6.7-.04-.25z"/></g><path fill="url(#e)" stroke="#590b08" stroke-width=".43" d="M19.36 10.63l-4.17 1.1-.8-2.95c-.04-.13-.18-.2-.3-.17-.07.02-.13.07-.16.12l-3.52 6.74c-.13.23-.05.54.2.67L17 20.2c.05.04.12.05.2.03.12-.03.2-.17.16-.3l-.8-2.97 4.18-1.1"/><g transform="translate(-.792 -383.918)"><linearGradient x1="1159.494" x2="1156.674" y1="1949.596" y2="1944.618" gradientTransform="matrix(.259 -.966 .966 .259 -2162.617 1012.673)" gradientUnits="userSpaceOnUse"><stop offset=".303" stop-color="#FAAF3E"/><stop offset="1" stop-color="#F62724"/></linearGradient><path fill="url(#f)" d="M11.36 399.8l6.53 4.2s.15.03.12-.1l-.84-3.13c.55-.15 4.32-1.16 4.32-1.16l-.16-.62-4.95 1.33s.45 1.74.62 2.36c-1.04-.66-4.54-2.88-4.94-3.13.22-.43 2.13-4.12 2.7-5.2.16.6.63 2.32.63 2.32l4.96-1.32-.17-.63-4.33 1.16-.82-3.02c-.1-.35-.25.03-.25.03l-3.5 6.7.05.24z"/></g><g fill="none" stroke="#ed2728" stroke-width="1.5"><path d="M11.74 26.12l-1-3.77c-.08-.27.08-.55.35-.62l3.76-1"/><path d="M28.2 17.15l3.76-1.02c.27-.07.55.1.62.36l1 3.76"/><path d="M36.72 31.94l1 3.77c.08.28-.08.55-.35.63l-3.77 1"/><path d="M20.27 40.9l-3.77 1.02c-.27.07-.54-.1-.62-.36l-1-3.77"/></g></g></svg>