<svg xmlns="http://www.w3.org/2000/svg" width="48" height="48"><defs><linearGradient id="a" x1="328.217" x2="290.803" y1="359.729" y2="359.729" gradientUnits="userSpaceOnUse" gradientTransform="matrix(1.019 0 0 1.019 -293.588 -341.532)"><stop offset="0" stop-color="#fff"/><stop offset="1" stop-color="#B8C0CA"/></linearGradient><linearGradient id="b" x1="328.218" x2="290.801" y1="359.728" y2="359.728" gradientUnits="userSpaceOnUse" gradientTransform="matrix(1.019 0 0 1.019 -293.588 -341.532)"><stop offset="0" stop-color="#fff"/><stop offset="1" stop-color="#B8C0CA"/></linearGradient><linearGradient id="c" x1="328.217" x2="290.801" y1="359.728" y2="359.728" gradientUnits="userSpaceOnUse" gradientTransform="matrix(1.019 0 0 1.019 -293.588 -341.532)"><stop offset="0" stop-color="#fff"/><stop offset="1" stop-color="#B8C0CA"/></linearGradient><linearGradient id="d" x1="305.886" x2="295.517" y1="341.781" y2="351.869" gradientUnits="userSpaceOnUse" gradientTransform="matrix(1.019 0 0 1.019 -293.588 -341.532)"><stop offset=".006" stop-color="#EF7916"/><stop offset="1" stop-color="#CB130C"/></linearGradient><linearGradient id="e" x1="315.221" x2="330.362" y1="339.841" y2="352.936" gradientUnits="userSpaceOnUse" gradientTransform="matrix(1.019 0 0 1.019 -293.588 -341.532)"><stop offset=".006" stop-color="#EF7916"/><stop offset="1" stop-color="#fff"/></linearGradient><linearGradient id="f" x1="327.451" x2="296.118" y1="349.663" y2="349.663" gradientUnits="userSpaceOnUse"><stop offset=".006" stop-color="#fff"/><stop offset=".303" stop-color="#F7AF3E"/><stop offset="1" stop-color="#F12523"/></linearGradient><linearGradient id="g" x1="-6801.53" x2="-6809.429" y1="4029.635" y2="4037.32" gradientTransform="matrix(-1.019 0 0 -1.019 -6893.809 4146.216)" gradientUnits="userSpaceOnUse"><stop offset=".006" stop-color="#EF7916"/><stop offset="1" stop-color="#CB130C"/></linearGradient><linearGradient id="h" x1="315.307" x2="311.15" y1="376.07" y2="365.117" gradientUnits="userSpaceOnUse" gradientTransform="matrix(1.019 0 0 1.019 -293.588 -341.532)"><stop offset=".006" stop-color="#EF7916"/><stop offset=".088" stop-color="#F18A34"/><stop offset=".19" stop-color="#F39B51"/><stop offset=".291" stop-color="#F5A767"/><stop offset=".389" stop-color="#F6AF74"/><stop offset=".48" stop-color="#F6B178"/><stop offset=".771" stop-color="#DBDFE4"/></linearGradient><linearGradient id="i" x1="-6790.932" x2="-6809.581" y1="4035.411" y2="4035.411" gradientTransform="matrix(-1 0 0 -1 -6479.575 4405.206)" gradientUnits="userSpaceOnUse"><stop offset="0" stop-color="#fff"/><stop offset=".303" stop-color="#F7AF3E"/><stop offset="1" stop-color="#F12523"/></linearGradient></defs><g><g><path d="M48.15 33.2v-1.07h-.7c-.08 0-.14-.06-.14-.14v-1.07c0-.07.07-.13.14-.13h.7V19.14h-.7c-.07 0-.13-.06-.13-.14v-1.05c0-.08.07-.14.14-.14h.7V16.7H0v1.12h.74c.07 0 .13.06.13.13V19c0 .07-.06.12-.13.13H0V30.8h.74c.08 0 .14.05.14.12v1.06c0 .07-.06.13-.14.13H0v1.1h48.15zM2.02 19.1c-.07 0-.13-.05-.13-.13v-1.07c0-.07.05-.13.12-.13h1.75c.07 0 .13.06.13.13V19c0 .07-.06.13-.13.13H2.02zm3.03 0c-.07 0-.13-.05-.13-.13v-1.06c0-.08.06-.14.13-.14H6.8c.07 0 .13.06.13.14V19c0 .07-.06.13-.13.13H5.05zm3.03 0c-.08 0-.14-.05-.13-.13v-1.07c0-.07.05-.13.13-.13h1.74c.08 0 .14.06.14.14V19c0 .07-.06.13-.14.13H8.08zm3.03 0c-.07 0-.13-.05-.13-.12v-1.06c0-.08.06-.14.14-.14h1.75c.08 0 .14.06.14.14V19c0 .07-.07.13-.15.13H11.1zm3.03 0c-.07 0-.13-.05-.13-.12v-1.06c0-.08.06-.14.13-.13h1.75c.07 0 .13.06.13.14V19c0 .07-.05.13-.12.13h-1.75zm3.03 0c-.07 0-.13-.05-.13-.12v-1.06c0-.07.06-.14.13-.13h1.75c.08 0 .14.07.14.14V19c0 .07-.06.13-.13.13h-1.74zm3.03 0c-.08 0-.14-.05-.14-.12v-1.06c0-.07.06-.13.13-.13h1.74c.07 0 .13.07.13.14V19c0 .07-.06.13-.13.13H20.2zm3.02 0c-.08 0-.14-.05-.14-.12v-1.06c0-.07.06-.13.14-.13h1.74c.08 0 .14.07.14.14V19c0 .07-.06.13-.14.13h-1.74zm3.03 0c-.08 0-.14-.05-.14-.12v-1.06c0-.07.07-.13.15-.13H28c.07 0 .12.07.13.14V19c0 .07-.06.13-.14.13h-1.75zm3.02 0c-.07 0-.13-.05-.13-.12v-1.06c0-.07.06-.13.13-.13h1.75c.07 0 .13.07.13.14V19c0 .07-.06.13-.13.13h-1.75zm3.03 0c-.07.02-.13-.05-.13-.12v-1.05c0-.08.06-.14.13-.14h1.75c.07 0 .13.07.13.14V19c0 .07-.06.13-.13.13H32.3zm3.03.02c-.07 0-.13-.07-.13-.14v-1.06c0-.07.06-.13.13-.13h1.75c.07 0 .13.07.13.14V19c0 .08-.05.14-.12.14h-1.75zm3.03 0c-.08 0-.14-.06-.14-.14v-1.06c0-.07.06-.13.14-.13h1.74c.08 0 .14.07.14.14V19c0 .08-.06.14-.14.14h-1.74zm3.02 0c-.07 0-.13-.06-.13-.14v-1.05c0-.08.06-.14.14-.14h1.73c.08 0 .13.07.13.15V19c0 .08-.05.14-.13.14h-1.75zm3.03 0c-.06 0-.12-.06-.12-.14v-1.05c0-.08.06-.14.13-.14h1.76c.07 0 .13.07.13.15V19c0 .08-.07.14-.14.14H44.4zm1.76 11.66c.08 0 .13.06.14.14V32c0 .07-.06.13-.14.13h-1.74c-.08 0-.14-.07-.14-.14v-1.07c0-.07.06-.13.14-.13h1.74zm-3.03 0c.08 0 .14.06.14.14V32c0 .06-.06.13-.13.12H41.4c-.1 0-.15-.06-.15-.13v-1.07c0-.07.06-.13.14-.13h1.73zm-3.02 0c.08 0 .14.06.14.13V32c0 .06-.06.12-.13.12h-1.74c-.07 0-.14-.06-.13-.13v-1.07c0-.07.06-.13.13-.13h1.75zm-3.02 0c.07 0 .13.06.13.13V32c0 .06-.05.12-.12.12h-1.75c-.07 0-.13-.06-.13-.13v-1.07c0-.07.06-.13.13-.13h1.75zm-3.03 0c.08 0 .13.06.13.13V32c0 .06-.06.12-.13.12H32.3c-.07 0-.13-.06-.13-.13v-1.07c0-.07.06-.13.13-.13h1.75zm-3.03 0c.08 0 .14.06.14.13V32c0 .06-.07.12-.14.12h-1.75c-.07 0-.13-.06-.13-.13v-1.07c0-.07.06-.13.13-.13h1.75zm-3.02 0c.07 0 .13.06.13.13V32c0 .06-.06.12-.14.12h-1.75c-.08 0-.14-.06-.14-.13v-1.07c0-.07.08-.14.15-.13H28zm-3.03 0c.07 0 .13.06.13.13V32c0 .06-.06.12-.13.12h-1.75c-.07 0-.13-.06-.13-.13v-1.07c0-.07.05-.13.12-.13h1.75zm-3.03 0c.07 0 .13.06.13.13V32c0 .06-.06.12-.13.12H20.2c-.08 0-.14-.06-.14-.13v-1.07c0-.08.06-.13.13-.14h1.74zm-3.03 0c.1 0 .14.05.14.13V32c0 .06-.06.12-.13.12h-1.74c-.07 0-.13-.06-.13-.14v-1.05c0-.08.06-.14.13-.14h1.75zm-3.02 0c.08 0 .14.05.14.13v1.05c0 .08-.06.14-.14.14h-1.75c-.07 0-.13-.06-.13-.14v-1.05c0-.08.06-.14.14-.14h1.74zm-3.03 0c.08 0 .14.05.14.13v1.05c0 .08-.07.14-.15.14H11.1c-.07 0-.13-.06-.13-.14v-1.06c0-.07.06-.13.14-.13h1.75zm-3.02 0c.07 0 .13.05.13.13v1.05c0 .08-.06.14-.13.14H8.08c-.07 0-.13-.06-.13-.14v-1.06c0-.07.06-.13.13-.13h1.75zm-7.8 1.3c-.08 0-.14-.05-.14-.12v-1.06c0-.07.05-.13.13-.13h1.74c.07 0 .14.05.13.12v1.06c0 .07-.06.14-.13.13H2.02zm2.9-1.18c0-.07.05-.13.12-.13H6.8c.07 0 .13.05.13.12v1.06c0 .07-.06.14-.13.13l-1.75.02c-.07 0-.13-.07-.13-.14v-1.06z"/></g><path fill="url(#a)" d="M33.36 29.77c-.12 0-.22-.1-.22-.22v-9.23c0-.12.1-.22.22-.22H46.7c.1 0 .2.1.2.22v9.23c0 .12-.1.22-.2.22H33.35z"/><path fill="url(#b)" d="M17.5 29.77c-.13 0-.22-.1-.22-.22v-9.23c0-.12.1-.22.22-.22h13.33c.12 0 .22.1.22.22v9.23c0 .12-.1.22-.22.22H17.5z"/><path fill="url(#c)" d="M1.64 29.77c-.13 0-.23-.1-.22-.22v-9.23c0-.12.1-.22.22-.22h13.33c.12 0 .22.1.22.22v9.23c0 .12-.1.22-.23.22H1.64z"/><path fill="none" stroke="#fff" stroke-width="2" d="M42.93 20.78V9.68c0-1.8-1.47-3.28-3.27-3.28H8.8C7 6.4 5.53 7.87 5.53 9.67V16H2.4c-.13 0-.25.12-.25.26 0 .07.03.13.08.18l5.7 6.26c.2.2.5.2.7 0l5.7-6.26c.05-.04.08-.1.08-.18 0-.14-.1-.25-.24-.25h-3.13v-3.85c0-.4.34-.75.76-.75h25.23c.42 0 .75.34.75.75v8.63"/><path fill="url(#d)" d="M23.9 6.4H8.8C7 6.4 5.53 7.87 5.53 9.67V16H2.4c-.13 0-.25.12-.25.26 0 .07.03.13.08.18l5.7 6.26c.2.2.5.2.7 0l5.7-6.26c.05-.04.08-.1.08-.18 0-.14-.1-.25-.24-.25h-3.13v-3.85c0-.4.34-.75.76-.75h12.1v-5z"/><path fill="url(#e)" d="M42.93 20.78V9.68c0-1.8-1.47-3.28-3.27-3.28H23.9v5h13.13c.42 0 .75.34.75.75v8.63h5.15z"/><path fill="none" stroke="#590b08" stroke-width=".5" d="M42.93 20.78V9.68c0-1.8-1.47-3.28-3.27-3.28H8.8C7 6.4 5.53 7.87 5.53 9.67V16H2.4c-.13 0-.25.12-.25.26 0 .07.03.13.08.18l5.7 6.26c.2.2.5.2.7 0l5.7-6.26c.05-.04.08-.1.08-.18 0-.14-.1-.25-.24-.25h-3.13v-3.85c0-.4.34-.75.76-.75h25.23c.42 0 .75.34.75.75v8.63"/><g transform="matrix(1.019 0 0 1.019 -293.588 -341.532)"><linearGradient x1="327.451" x2="296.118" y1="349.663" y2="349.663" gradientUnits="userSpaceOnUse"><stop offset=".006" stop-color="#fff"/><stop offset=".303" stop-color="#F7AF3E"/><stop offset="1" stop-color="#F12523"/></linearGradient><path fill="url(#f)" d="M296.86 341.78c-1.63 0-2.96 1.33-2.96 2.97 0 0 0 5.56 0 6.46-.66 0-3.3 0-3.3 0l5.75 6.34 5.77-6.33s-2.66 0-3.32 0c0-.86 0-4.02 0-4.02 0-.55.45-1 1-1h24.78c.54 0 1 .45 1 1l-.02 8.47s.66 0 1 0v-8.47c0-1.1-.9-2-1.98-2h-24.8c-1.08 0-1.97.9-1.97 2v5.03s1.3 0 2.06 0c-.97 1.07-3 3.3-3.5 3.86-.24-.26-2.53-2.78-3.5-3.85.75 0 2.04 0 2.04 0v-7.45c0-1.1.88-1.97 1.96-1.97h30.3c1.08 0 1.95.88 1.95 1.97v10.9c.36 0 1 0 1 0v-10.9c0-1.64-1.3-2.97-2.95-2.97h-30.3zm29.7 13.87h2.55c-.86 0-2.54 0-2.54 0z"/></g><path fill="none" stroke="#fff" stroke-width="2" d="M21.7 29.1v11.1c0 1.8 1.46 3.27 3.27 3.27h14.56c1.8 0 3.27-1.46 3.27-3.27v-6.33h3.12c.14 0 .25-.12.25-.26 0-.05-.02-.12-.07-.16l-5.7-6.26c-.2-.2-.52-.2-.7 0L34 33.43c-.06.05-.1.1-.1.2 0 .13.13.24.27.24h3.12v3.85c0 .42-.35.75-.76.75H27.6c-.42 0-.76-.33-.76-.75V29.1"/><path fill="url(#g)" d="M32 43.47h7.53c1.8 0 3.27-1.46 3.27-3.27v-6.33h3.12c.14 0 .25-.12.25-.26 0-.05-.02-.12-.07-.16l-5.7-6.26c-.2-.2-.52-.2-.7 0L34 33.43c-.06.05-.1.1-.1.2 0 .13.13.24.27.24h3.12v3.85c0 .42-.35.75-.76.75H32v5z"/><path fill="url(#h)" d="M21.7 29.1v11.1c0 1.8 1.46 3.27 3.27 3.27H32v-5h-4.4c-.42 0-.76-.33-.76-.75V29.1H21.7z"/><path fill="none" stroke="#590b08" stroke-width=".5" d="M21.7 29.1v11.1c0 1.8 1.46 3.27 3.27 3.27h14.56c1.8 0 3.27-1.46 3.27-3.27v-6.33h3.12c.14 0 .25-.12.25-.26 0-.05-.02-.12-.07-.16l-5.7-6.26c-.2-.2-.52-.2-.7 0L34 33.43c-.06.05-.1.1-.1.2 0 .13.13.24.27.24h3.12v3.85c0 .42-.35.75-.76.75H27.6c-.42 0-.76-.33-.76-.75V29.1"/><g transform="matrix(1.019 0 0 1.019 -293.588 -341.532)"><linearGradient x1="-6790.932" x2="-6809.581" y1="4035.411" y2="4035.411" gradientTransform="matrix(-1 0 0 -1 -6479.575 4405.206)" gradientUnits="userSpaceOnUse"><stop offset="0" stop-color="#fff"/><stop offset=".303" stop-color="#F7AF3E"/><stop offset="1" stop-color="#F12523"/></linearGradient><path fill="url(#i)" d="M327.02 377.67c1.64 0 2.97-1.32 2.97-2.96 0 0 0-5.55 0-6.46.65 0 3.3 0 3.3 0l-5.76-6.32-5.77 6.32s2.65 0 3.3 0c0 .88 0 4.04 0 4.04 0 .55-.43 1-.98 1h-8.8c-.54 0-.98-.46-.98-1v-8.47s-.65 0-1 0v8.48c0 1.1.9 2 2 2h8.77c1.1 0 1.98-.9 1.98-2v-5.03s-1.3 0-2.05 0c.96-1.06 3-3.3 3.5-3.85.24.26 2.53 2.78 3.5 3.85-.75 0-2.04 0-2.04 0v7.46c0 1.1-.9 1.97-1.98 1.97h-14.3c-1.07 0-1.95-.88-1.95-1.96v-10.9c-.34 0-1 0-1 0v10.9c0 1.65 1.33 2.97 2.96 2.97h14.3z"/></g></g></svg>