<svg xmlns="http://www.w3.org/2000/svg" width="48" height="48" xmlns:xlink="http://www.w3.org/1999/xlink" version="1" viewBox="0 0 612 792" enable-background="new 0 0 612 792"><defs><linearGradient id="j"><stop offset="0" stop-color="#fff"/><stop offset="1" stop-color="#75a1d0"/></linearGradient><linearGradient id="i"><stop offset="0" stop-color="#fff"/><stop offset=".764" stop-color="#fcf1a4"/><stop offset="1" stop-color="#fac649"/></linearGradient><linearGradient x1="289.845" x2="324.625" y1="393.876" y2="399.833" xlink:href="#a" gradientUnits="userSpaceOnUse"/><radialGradient cx="310.102" cy="403.39" r="31.119" xlink:href="#b" gradientUnits="userSpaceOnUse"/><radialGradient cx="297.526" cy="405.529" r="53.263" xlink:href="#c" gradientUnits="userSpaceOnUse"/><radialGradient cx="294.597" cy="388.885" r="19.389" xlink:href="#d" gradientUnits="userSpaceOnUse"/><radialGradient cx="295.666" cy="392.09" r="13.591" xlink:href="#e" gradientUnits="userSpaceOnUse" gradientTransform="matrix(.777 -.629 .44 .544 -106.822 364.668)"/><linearGradient x1="300.235" x2="327.648" y1="399.974" y2="416.156" xlink:href="#f" gradientUnits="userSpaceOnUse"/><radialGradient cx="314.435" cy="413.179" r="33.701" xlink:href="#g" gradientUnits="userSpaceOnUse" gradientTransform="matrix(1 0 0 .25 0 309.884)"/><radialGradient cx="298.613" cy="420.383" r="41.933" xlink:href="#h" gradientUnits="userSpaceOnUse"/><linearGradient id="a" x1="289.845" x2="324.625" y1="393.876" y2="399.833" gradientUnits="userSpaceOnUse"><stop offset="0" stop-color="#fff"/><stop offset="1" stop-color="#AAE0F4"/></linearGradient><radialGradient id="b" cx="310.102" cy="403.39" r="31.119" gradientUnits="userSpaceOnUse"><stop offset=".485" stop-color="#fff" stop-opacity="0"/><stop offset=".706" stop-color="#AAE0F4"/></radialGradient><radialGradient id="c" cx="297.526" cy="405.529" r="53.263" gradientUnits="userSpaceOnUse"><stop offset="0" stop-color="#3ABBE1"/><stop offset=".503" stop-color="#fff" stop-opacity="0"/></radialGradient><radialGradient cx="297.526" cy="405.529" r="53.263" xlink:href="#c" gradientUnits="userSpaceOnUse" gradientTransform="matrix(16.841 0 0 16.841 -4842.924 -6195.318)"/><radialGradient cx="310.102" cy="403.39" r="31.119" xlink:href="#b" gradientUnits="userSpaceOnUse" gradientTransform="matrix(16.841 0 0 16.841 -4842.924 -6195.318)"/><linearGradient x1="289.845" x2="324.625" y1="393.876" y2="399.833" xlink:href="#a" gradientUnits="userSpaceOnUse" gradientTransform="matrix(16.841 0 0 16.841 -4842.924 -6195.318)"/><linearGradient x1="300.235" x2="327.648" y1="399.974" y2="416.156" xlink:href="#f" gradientUnits="userSpaceOnUse"/><radialGradient cx="314.435" cy="413.179" r="33.701" xlink:href="#g" gradientUnits="userSpaceOnUse" gradientTransform="matrix(1 0 0 .25 0 309.884)"/><radialGradient cx="298.613" cy="420.383" r="41.933" xlink:href="#h" gradientUnits="userSpaceOnUse"/><radialGradient cx="294.597" cy="388.885" r="19.389" xlink:href="#d" gradientUnits="userSpaceOnUse"/><radialGradient cx="295.666" cy="392.09" r="13.591" xlink:href="#e" gradientUnits="userSpaceOnUse" gradientTransform="matrix(.777 -.629 .44 .544 -106.822 364.668)"/><radialGradient cx="294.597" cy="388.885" r="19.389" xlink:href="#d" gradientUnits="userSpaceOnUse"/><radialGradient cx="295.666" cy="392.09" r="13.591" xlink:href="#e" gradientUnits="userSpaceOnUse" gradientTransform="matrix(.777 -.629 .44 .544 -106.822 364.668)"/><radialGradient id="d" cx="294.597" cy="388.885" r="19.389" gradientUnits="userSpaceOnUse"><stop offset="0" stop-color="#FBBA84" stop-opacity=".63"/><stop offset=".368" stop-color="#fff" stop-opacity="0"/></radialGradient><radialGradient id="e" cx="295.666" cy="392.09" r="13.591" gradientUnits="userSpaceOnUse" gradientTransform="matrix(.777 -.629 .44 .544 -106.822 364.668)"><stop offset="0" stop-color="#FFFEF0"/><stop offset=".368" stop-color="#fff" stop-opacity="0"/></radialGradient><radialGradient cx="295.666" cy="392.09" r="13.591" xlink:href="#e" gradientUnits="userSpaceOnUse" gradientTransform="matrix(13.092 -10.591 7.415 9.165 -5664.261 -95.572)"/><radialGradient cx="294.597" cy="388.885" r="19.389" xlink:href="#d" gradientUnits="userSpaceOnUse" gradientTransform="matrix(16.841 0 0 16.841 -4010.263 -6277.523)"/><radialGradient id="l" cx="298.716" cy="395.608" r="7.752" xlink:href="#i" fx="298.716" fy="395.608" gradientUnits="userSpaceOnUse"/><linearGradient id="m" x1="289.845" x2="324.625" y1="393.876" y2="399.833" xlink:href="#a" gradientUnits="userSpaceOnUse" gradientTransform="matrix(16.841 0 0 16.841 -4842.924 -6195.318)"/><radialGradient id="n" cx="310.102" cy="403.39" r="31.119" xlink:href="#b" gradientUnits="userSpaceOnUse" gradientTransform="matrix(16.841 0 0 16.841 -4842.924 -6195.318)"/><radialGradient id="o" cx="297.526" cy="405.529" r="53.263" xlink:href="#c" gradientUnits="userSpaceOnUse" gradientTransform="matrix(16.841 0 0 16.841 -4842.924 -6195.318)"/><linearGradient id="p" x1="300.235" x2="327.648" y1="399.974" y2="416.156" xlink:href="#f" gradientUnits="userSpaceOnUse"/><radialGradient id="q" cx="314.435" cy="413.179" r="33.701" xlink:href="#g" gradientUnits="userSpaceOnUse" gradientTransform="matrix(1 0 0 .25 0 309.884)"/><radialGradient id="r" cx="298.613" cy="420.383" r="41.933" xlink:href="#h" gradientUnits="userSpaceOnUse"/><radialGradient id="k" cx="71.317" cy="152.22" r="420.308" xlink:href="#j" fx="71.317" fy="152.22" gradientTransform="matrix(1.484 -.005 .005 1.339 -29.174 -40.385)" gradientUnits="userSpaceOnUse"/></defs><path fill="url(#k)" d="M-88.23 1.77h789.35v787.58H-88.23z" overflow="visible" enable-background="accumulate"/><circle cx="298.716" cy="395.608" r="7.752" fill="url(#l)" transform="matrix(16.841 0 0 16.841 -4964.022 -6508.228)"/><g><path fill="url(#m)" d="M-17.13 745.4H678.6s-54.03-111.78-55.38-122.36c-1.36-10.62.04-45.86 19-68.9 19-23.07 10.88-32.56-4.06-69.16-14.9-36.6-52.88-88.14-59.65-105.78-6.78-17.63-1.34-61-27.12-86.76-25.73-25.75-56.97-17-56.97-17s-31.9-67.24-47.1-78.67c-15.22-11.44-55.9-16.84-76.22-11.44-20.36 5.43-31.22 35.25-43.43 58.3-12.18 23.06-23 12.22-39.3 4.05-16.26-8.12-28.45-29.83-52.9-5.4-24.37 24.4-5.04 23.32-14.54 26.06-9.47 2.75-20.68-10.47-43.05-.3-22.38 10.17-39.64 14.25-41.7 34.57-2.02 20.36 10.16 69.16 8.12 76.27-2.02 7.12-8.12-12.2-36.6-8.14-28.47 4.08-31.54 34.58-41.7 51.87-10.15 17.3-13.2 25.43-10.15 36.62 3.05 11.16 23.38 48.8 32.52 69.14 9.16 20.3 19.32 52.9 16.3 63.06-3.08 10.17-13.37 22.78-23.98 31.25-10.6 8.4-1.46 17.55-1.46 28.73 0 11.17 5.08 19.3-20.33 16.24-25.45-3-31.52-8.1-46.78 4.1-15.27 12.18-28.96 46.65-29.23 73.67z" transform="matrix(1 0 0 .864 10.607 87.658)"/><path fill="url(#n)" d="M-16.9 745.3h695.75s-54.1-111.78-55.4-122.38c-1.37-10.6.04-45.84 19-68.9 18.97-23.03 10.85-32.53-4.05-69.16-14.92-36.57-52.88-88.1-59.65-105.74-6.82-17.6-1.38-61-27.15-86.76-25.75-25.77-56.97-17-56.97-17s-31.92-67.26-47.1-78.7c-15.25-11.4-55.88-16.83-76.25-11.4-20.36 5.4-31.22 35.24-43.38 58.3-12.22 23.03-23.05 12.18-39.32 4.03-16.3-8.12-28.48-29.83-52.9-5.4-24.4 24.4-5.05 23.3-14.56 26.06-9.5 2.7-20.7-10.5-43.07-.32-22.38 10.17-39.66 14.23-41.68 34.57-2.05 20.36 10.16 69.18 8.12 76.28-2.05 7.13-8.13-12.2-36.6-8.13-28.48 4.08-31.53 34.57-41.7 51.87-10.17 17.3-13.24 25.4-10.17 36.6 3.04 11.2 23.4 48.82 32.55 69.18 9.14 20.3 19.3 52.9 16.25 63-3.07 10.17-13.35 22.83-23.96 31.3-10.6 8.36-1.45 17.54-1.45 28.72 0 11.16 5.08 19.3-20.35 16.25-25.4-3.03-31.52-8.12-46.78 4.1-15.25 12.15-28.9 46.62-29.2 73.64z" transform="matrix(1 0 0 .864 10.607 87.658)"/><path fill="url(#o)" d="M-16.9 746.65h695.75s-54.1-111.75-55.4-122.4c-1.37-10.6.04-45.8 19-68.9 18.97-23 10.85-32.53-4.05-69.1-14.92-36.63-52.88-88.13-59.65-105.77-6.82-17.63-1.38-61-27.15-86.78-25.75-25.73-56.97-17-56.97-17s-31.92-67.25-47.1-78.7c-15.25-11.4-55.88-16.83-76.25-11.4-20.36 5.4-31.22 35.24-43.38 58.28-12.22 23.1-23.05 12.2-39.32 4.08-16.3-8.14-28.48-29.8-52.9-5.4-24.4 24.43-5.05 23.33-14.56 26.06-9.5 2.73-20.7-10.5-43.07-.32-22.38 10.17-39.66 14.23-41.68 34.58-2.05 20.34 10.16 69.14 8.12 76.25-2.05 7.12-8.13-12.2-36.6-8.13-28.48 4.06-31.53 34.57-41.7 51.87-10.17 17.3-13.24 25.4-10.17 36.6 3.04 11.2 23.4 48.8 32.55 69.16 9.14 20.36 19.3 52.88 16.25 63.05-3.07 10.15-13.35 22.8-23.96 31.22-10.6 8.4-1.45 17.58-1.45 28.77 0 11.18 5.08 19.3-20.35 16.26-25.43-3.04-31.52-8.15-46.78 4.03-15.25 12.24-28.9 46.68-29.2 73.7z" transform="matrix(1 0 0 .864 10.607 87.658)"/><g transform="matrix(16.841 0 0 14.551 -4832.317 -5265.097)"><linearGradient id="f" x1="300.235" x2="327.648" y1="399.974" y2="416.156" gradientUnits="userSpaceOnUse"><stop offset="0" stop-color="#fff"/><stop offset="1" stop-color="#84C6DF"/></linearGradient><path fill="url(#p)" d="M293.4 412.6s.37-3.25 2.22-3.17c1.85.08.92.36 1.6.32.7-.03.65-.16.7-.36.03-.2-.4-.93-.05-1.4.36-.5.36-.06.84-.66.5-.6.3-.96-.03-2.3-.32-1.32-.8-2.7 0-3.7s2.7-1.25 3.14-1.25c.46 0 1.42 0 2.07.4.64.4-1.57-.97-1.45-2.7.12-1.73 1.04-2.17 1.37-2.42.3-.24 1.3-.48 1.56.08.24.57.44-.96.96-1.32.52-.37.85-.2 1.17-.04.3.16 1.04.84 1.4.96.36.12.52 0 .6-.28.08-.28.08-1.3.65-1.77.56-.47 1.37-.23 1.9-.3.5-.1.75-.9 1.4-1.1.64-.2.84-.04 1.25.28.4.33 1.24 2.02 1.6 2.46.37.44 2.02.97 2.62 1.57.6.6.36 1.54.77 2.26.4.73.5 1.17 1.6 1.65 1.08.5 1.6 1.18 1.77 1.95.16.76.56 1.04.24 1.9-.3.84-.68 1.76-.47 2.56.2.82 1.12 2.23 1.5 3.07.35.85 1.3 2.74 1.28 3.26-.56.3-1.4.53-1.93.6 0 0-4.2.5-6.4.33-2.2-.16-3.14-.52-4.35-.72-1.2-.2-4.8-.33-5.83-.25-1.06.07-2.4.52-3.23.52-.85 0-3.87-.4-4.87-.4s-5.6 0-5.6 0z"/><radialGradient id="g" cx="314.435" cy="413.179" r="33.701" gradientUnits="userSpaceOnUse" gradientTransform="matrix(1 0 0 .25 0 309.884)"><stop offset="0" stop-color="#77B4CA"/><stop offset="1" stop-color="#fff" stop-opacity="0"/></radialGradient><path fill="url(#q)" d="M293.4 412.53s.37-3.26 2.22-3.18c1.85.08.92.36 1.6.32.7-.03.65-.16.7-.36.03-.2-.4-.9-.05-1.4.36-.48.36-.04.84-.64.5-.6.3-.97-.03-2.3-.32-1.32-.8-2.7 0-3.7s2.7-1.25 3.14-1.25c.46 0 1.42 0 2.07.42.64.4-1.57-.97-1.45-2.7.12-1.73 1.04-2.17 1.37-2.42.3-.24 1.3-.48 1.56.08.24.57.44-.96.96-1.32.52-.37.85-.2 1.17-.05.3.18 1.04.86 1.4.98.36.12.52 0 .6-.28.08-.28.08-1.3.65-1.77.56-.48 1.37-.24 1.9-.32.5-.08.75-.88 1.4-1.08.64-.2.84-.04 1.25.28.4.32 1.24 2 1.6 2.46.37.44 2.02.96 2.62 1.57.6.6.36 1.53.77 2.25.4.73.5 1.17 1.6 1.65 1.08.48 1.6 1.17 1.77 1.93.16.77.56 1.05.24 1.9-.3.84-.68 1.77-.47 2.57.2.8 1.12 2.22 1.5 3.06.35.84 1.3 2.73 1.28 3.25-.56.28-1.4.53-1.93.6 0 0-4.2.5-6.4.33-2.2-.16-3.14-.52-4.35-.73-1.2-.2-4.8-.32-5.83-.24-1.06.1-2.4.54-3.23.54-.85 0-3.87-.4-4.87-.4s-5.6 0-5.6 0z"/><radialGradient id="h" cx="298.613" cy="420.383" r="41.933" gradientUnits="userSpaceOnUse"><stop offset=".454" stop-color="#fff" stop-opacity="0"/><stop offset=".767" stop-color="#87CBE4"/></radialGradient><path fill="url(#r)" d="M293.4 412.45s.37-3.26 2.22-3.18c1.85.08.92.37 1.6.32.7-.04.65-.17.7-.37.03-.2-.4-.92-.05-1.4.36-.5.36-.04.84-.65.5-.6.3-.97-.02-2.3-.33-1.32-.8-2.7 0-3.7s2.7-1.25 3.14-1.25c.44 0 1.4 0 2.05.4.64.4-1.57-.96-1.45-2.7.12-1.72 1.05-2.17 1.37-2.4.3-.25 1.32-.5 1.56.07.24.57.44-.96.96-1.32.53-.37.85-.2 1.17-.05.3.17 1.04.85 1.4.97.36.12.53 0 .6-.28.08-.28.08-1.3.65-1.77.56-.48 1.37-.24 1.9-.32.5-.08.76-.9 1.4-1.1.64-.2.85-.03 1.25.3.4.3 1.24 2 1.6 2.45.37.44 2.02.96 2.63 1.57.6.6.35 1.53.76 2.25.4.73.5 1.17 1.6 1.65 1.1.5 1.6 1.17 1.77 1.94.16.75.56 1.03.24 1.88-.3.84-.68 1.77-.47 2.57.2.8 1.13 2.22 1.5 3.06.35.86 1.32 2.75 1.28 3.27-.56.28-1.4.53-1.93.6 0 0-4.2.5-6.4.33-2.2-.16-3.14-.52-4.34-.73-1.2-.2-4.8-.32-5.84-.24-1.06.08-2.4.53-3.23.53-.85 0-3.87-.4-4.87-.4s-5.6 0-5.6 0z"/></g></g></svg>