<svg xmlns="http://www.w3.org/2000/svg" width="48" height="48"><defs><linearGradient id="a" x1="-1314.221" x2="-1302.164" y1="474.844" y2="526.268" gradientTransform="matrix(.682 .731 -.731 .682 1287.63 643.196)" gradientUnits="userSpaceOnUse"><stop offset="0" stop-color="#fff"/><stop offset="1" stop-color="#B8C0CC"/></linearGradient><linearGradient id="b" x1="-1320.913" x2="-1308.856" y1="476.414" y2="527.838" gradientTransform="matrix(.682 .731 -.731 .682 1287.63 643.196)" gradientUnits="userSpaceOnUse"><stop offset="0" stop-color="#fff"/><stop offset="1" stop-color="#B8C0CC"/></linearGradient><linearGradient id="c" x1="-1327.604" x2="-1315.547" y1="477.984" y2="529.408" gradientTransform="matrix(.682 .731 -.731 .682 1287.63 643.196)" gradientUnits="userSpaceOnUse"><stop offset="0" stop-color="#fff"/><stop offset="1" stop-color="#B8C0CC"/></linearGradient></defs><g><g><path d="M48.63 18.36l-.53-.9-.6.34c-.06.03-.14 0-.18-.05l-.52-.9c-.03-.06 0-.14.05-.18l.6-.35-5.72-9.9-.6.34c-.07.04-.15 0-.18-.05l-.52-.9c-.04-.05-.02-.13.04-.17l.6-.35-.55-.96L-.43 27.96l.55.95.64-.36c.06-.03.14 0 .18.05l.52.9c.04.06 0 .13-.05.17l-.63.37 5.73 9.9.64-.36c.06-.03.14 0 .18.05l.52.9c.03.06 0 .14-.05.18l-.65.38.53.92 40.95-23.64zM2.5 29.04c-.06.04-.14.02-.18-.04l-.52-.9c-.03-.07 0-.15.05-.18l1.5-.86c.05-.04.13-.02.16.05l.53.9c.04.07.02.15-.04.2l-1.5.84zm2.58-1.48c-.07.03-.15 0-.18-.05l-.52-.9c-.04-.05-.02-.13.05-.17l1.48-.86c.07-.03.15 0 .2.05l.5.9c.05.06.02.14-.04.18l-1.48.86zm2.57-1.5c-.06.05-.14.02-.18-.04l-.52-.9c-.03-.06 0-.14.05-.18l1.5-.85c.05-.05.13-.03.16.03l.52.9c.04.07.02.15-.04.18l-1.5.87zm2.57-1.48c-.06.04-.14.02-.17-.04l-.52-.9c-.04-.07-.02-.14.04-.18l1.5-.86c.05-.03.13 0 .17.05l.52.9c.03.06 0 .14-.05.18l-1.48.85zm2.58-1.48c-.06.04-.14.02-.18-.05l-.52-.9c-.03-.06 0-.14.05-.18l1.48-.85c.07-.04.15-.02.18.05l.53.9c.04.06.02.14-.04.17l-1.5.86zm2.57-1.5c-.06.05-.14.03-.17-.03l-.52-.9c-.04-.07-.02-.15.05-.18l1.48-.87c.07-.04.15 0 .2.05l.5.9c.04.06.02.14-.04.18l-1.5.85zm2.58-1.47c-.06.04-.14 0-.18-.05l-.52-.9c-.04-.06 0-.14.05-.18l1.48-.85c.07-.04.15-.02.18.04l.52.9c.04.06.02.14-.05.17l-1.48.86zm2.57-1.5c-.06.05-.14.03-.17-.03l-.52-.9c-.04-.07-.02-.15.04-.18l1.5-.86c.05-.04.13-.02.17.05l.52.9c.03.07 0 .15-.05.2l-1.48.84zm2.58-1.47c-.06.03-.14 0-.18-.05l-.52-.9c-.04-.05 0-.13.05-.17l1.48-.86c.07-.03.15 0 .18.05l.53.9c.04.06.02.14-.05.18l-1.48.86zm2.57-1.5c-.06.05-.14.03-.17-.04l-.52-.9c-.04-.06-.02-.14.04-.17l1.5-.86c.05-.05.13-.03.17.04l.5.9c.04.06.02.14-.04.17l-1.5.87zm2.58-1.47c-.06.02-.14 0-.18-.06l-.52-.9c-.04-.06-.02-.14.05-.18l1.48-.86c.07-.03.15 0 .18.05l.52.9c.04.06 0 .14-.05.18l-1.48.86zm2.57-1.5c-.06.04-.14.02-.18-.05l-.52-.9c-.03-.06 0-.14.05-.18l1.5-.85c.05-.04.13-.02.17.04l.5.9c.05.07.03.15-.03.18l-1.48.86zm2.58-1.48c-.07.03-.15 0-.18-.05l-.52-.9c-.04-.07-.02-.14.05-.18l1.48-.87c.07-.03.15 0 .18.05l.53.9c.04.06.02.14-.05.18l-1.48.86zm2.57-1.5c-.06.05-.14.02-.18-.04l-.53-.9c-.03-.06 0-.14.05-.18l1.5-.85c.05-.04.13-.02.16.05l.52.9c.04.06.02.14-.04.17l-1.5.86zm2.58-1.48c-.07.04-.14.02-.18-.04l-.52-.9c-.04-.07-.02-.15.05-.18l1.48-.86c.07-.04.15 0 .18.05l.52.9c.04.07.02.15-.05.2l-1.48.84zm7.2 9.06c.07-.04.15 0 .2.05l.5.9c.04.06.02.14-.04.18l-1.47.85c-.07.04-.15.02-.18-.04l-.52-.9c-.04-.07-.02-.15.04-.18l1.5-.86zm-2.57 1.5c.07-.05.15-.03.18.03l.52.9c.04.07.02.14-.04.18l-1.5.87c-.05.04-.13 0-.17-.05l-.52-.9c-.03-.06 0-.14.05-.18l1.48-.85zm-2.57 1.47c.07-.03.15 0 .2.05l.5.9c.04.06.02.14-.04.18l-1.48.85c-.07.04-.15.02-.18-.04l-.52-.9c-.04-.06-.02-.14.05-.17l1.48-.86zm-2.56 1.5c.06-.05.14-.03.17.03l.53.9c.04.07.02.15-.04.18l-1.5.86c-.06.04-.14 0-.18-.05l-.52-.9c-.03-.07 0-.15.05-.2l1.5-.84zm-2.58 1.47c.06-.03.14 0 .18.05l.52.9c.03.05 0 .13-.05.17l-1.47.86c-.07.03-.15 0-.18-.05l-.52-.9c-.04-.07-.02-.15.05-.18l1.48-.86zm-2.57 1.5c.05-.05.13-.03.16.04l.52.9c.04.06.02.14-.04.17l-1.5.86c-.05.05-.13.03-.17-.04l-.52-.9c-.03-.06 0-.14.05-.18l1.5-.85zm-2.6 1.47c.07-.02.15 0 .2.06l.5.9c.05.06.02.14-.04.18l-1.48.86c-.07.03-.15 0-.18-.05l-.52-.9c-.04-.06-.02-.14.05-.18l1.48-.86zm-2.56 1.5c.06-.04.14-.02.17.05l.53.9c.04.06.02.14-.04.17l-1.5.86c-.06.04-.14.02-.18-.05l-.52-.9c-.03-.06 0-.14.05-.17l1.5-.86zm-2.58 1.5c.06-.05.14-.03.18.03l.52.9c.04.06.02.14-.05.18l-1.47.87c-.07.03-.14 0-.18-.05l-.52-.9c-.04-.06-.02-.14.05-.18l1.48-.85zm-2.57 1.47c.05-.04.13 0 .17.05l.52.9c.02.06 0 .14-.06.18l-1.5.85c-.05.04-.13.02-.17-.04l-.52-.9c-.03-.06 0-.14.05-.17l1.5-.86zm-2.6 1.5c.08-.05.15-.03.2.03l.5.9c.05.07.02.15-.04.18l-1.48.86c-.07.04-.14 0-.18-.05l-.52-.9c-.04-.07-.02-.15.05-.2l1.48-.84zm-2.56 1.47c.06-.03.14 0 .18.05l.52.9c.03.05 0 .13-.05.17l-1.5.85c-.06.04-.14.02-.18-.04l-.52-.9c-.03-.06 0-.15.05-.18l1.5-.86zm-2.58 1.5c.07-.05.14-.03.18.04l.52.9c.04.06.02.14-.05.17l-1.47.86c-.07.05-.14.02-.18-.04l-.52-.9c-.04-.06 0-.14.05-.18l1.48-.85zm-5.98 4.94c-.07.04-.15.02-.18-.05l-.52-.9c-.04-.06 0-.14.05-.18l1.48-.85c.08-.04.16-.02.2.05l.5.9c.05.06.03.14-.04.17l-1.48.86zm1.87-2.43c-.03-.06 0-.14.05-.18l1.5-.86c.05-.02.13 0 .17.06l.52.9c.02.06 0 .14-.06.18l-1.5.86c-.05.03-.13 0-.17-.05l-.52-.9z"/></g><path fill="url(#a)" d="M34.37 22.7c-.1.07-.24.03-.3-.07l-4.53-7.84c-.06-.12-.02-.25.08-.3l11.34-6.55c.1-.07.23-.03.3.07l4.52 7.85c.06.1.03.24-.08.3L34.37 22.7z"/><path fill="url(#b)" d="M20.88 30.5c-.1.06-.23.02-.3-.1l-4.52-7.83c-.06-.1-.03-.23.08-.3l11.33-6.54c.1-.06.24-.02.3.08l4.53 7.85c.06.1.02.24-.08.3L20.88 30.5z"/><path fill="url(#c)" d="M7.4 38.28c-.1.06-.24.03-.3-.08l-4.53-7.84c-.06-.1-.02-.24.08-.3L14 23.52c.1-.07.23-.03.3.08l4.5 7.84c.07.1.04.24-.07.3L7.4 38.28z"/><path fill="#fff" stroke="#fff" d="M11.34 20.24c.86 1.48 8.1 14.04 8.96 15.5 1.5-.86 15.5-8.94 17-9.8-.85-1.46-8.1-14.03-8.96-15.5-1.5.86-15.5 8.94-17 9.8z" opacity=".2"/><path fill="none" stroke="#ed2728" stroke-width="2.145" d="M15.26 20.72l16.95 5.4"/><path fill="none" stroke="#ed2728" stroke-width="2.145" d="M21.03 31.9l5.4-16.95"/><path fill="none" stroke="#ed2728" stroke-width="2" d="M20.2 37.54c-.25.15-.56.07-.7-.18L9.55 20.13c-.14-.24-.06-.55.2-.7l18.7-10.8c.24-.14.55-.05.7.2l9.94 17.22c.13.24.04.55-.2.7l-18.7 10.8z"/><path fill="none" stroke="#fff" d="M11.34 20.24c.86 1.48 8.1 14.04 8.96 15.5 1.5-.86 15.5-8.94 17-9.8-.85-1.46-8.1-14.03-8.96-15.5-1.5.86-15.5 8.94-17 9.8z"/></g></svg>