<svg xmlns="http://www.w3.org/2000/svg" width="48" height="48" xmlns:xlink="http://www.w3.org/1999/xlink"><defs><linearGradient id="r"><stop offset="0" stop-color="#555753"/><stop offset="1"/></linearGradient><linearGradient id="q"><stop offset="0" stop-color="#fff"/><stop offset="1" stop-color="#d3d7cf"/></linearGradient><linearGradient x1="21.933" x2="21.933" y1="24.627" y2="7.109" gradientUnits="userSpaceOnUse"><stop offset="0" stop-color="#D0D6E5"/><stop offset="1" stop-color="#093A80"/></linearGradient><linearGradient x1="21.933" x2="21.933" y1="24.627" y2="7.109" gradientUnits="userSpaceOnUse"><stop offset="0" stop-color="#8595bc"/><stop offset="1" stop-color="#041a3b"/></linearGradient><linearGradient id="a"><stop offset="0" stop-color="#2e3436"/><stop offset="1" stop-color="#2e3436" stop-opacity="0"/></linearGradient><radialGradient cx="34.73" cy="31.048" r="5.841" xlink:href="#a" fx="34.73" fy="31.048" gradientTransform="matrix(1 0 0 .359 0 19.911)" gradientUnits="userSpaceOnUse"/><radialGradient id="b" cx="-64.877" cy="220.876" r="14.119" gradientUnits="userSpaceOnUse" gradientTransform="matrix(-1 0 0 1 55.359 0)" fy="220.876" fx="-64.877"><stop offset="0" stop-color="#ff8e6b"/><stop offset=".826" stop-color="#A40E0A"/><stop offset="1" stop-color="#660D0B"/></radialGradient><radialGradient cx="-64.877" cy="220.876" r="14.119" xlink:href="#b" gradientUnits="userSpaceOnUse" gradientTransform="matrix(-1 0 0 1 55.359 0)" fx="-64.877" fy="220.876"/><radialGradient id="c" cx="-62.017" cy="217.679" r="17.176" fx="-62.017" fy="217.679" gradientTransform="matrix(-1 0 0 1 55.359 0)" gradientUnits="userSpaceOnUse"><stop offset="0" stop-color="#fff"/><stop offset="1" stop-color="#A42522"/></radialGradient><radialGradient cx="-62.017" cy="217.679" r="17.176" xlink:href="#c" gradientUnits="userSpaceOnUse" gradientTransform="matrix(-1 0 0 1 55.359 0)" fx="-62.017" fy="217.679"/><linearGradient x1="11.476" x2="15.159" y1="31.183" y2="33.468" xlink:href="#d" gradientUnits="userSpaceOnUse" gradientTransform="matrix(.975 0 0 .975 .572 1.403)"/><linearGradient id="e" x1="-100.206" x2="-83.826" y1="222.647" y2="222.647" gradientTransform="translate(191.69)" gradientUnits="userSpaceOnUse"><stop offset=".028" stop-color="#84A8C9"/><stop offset=".108" stop-color="#88ABCB"/><stop offset=".191" stop-color="#95B5CE"/><stop offset=".253" stop-color="#A3C0D3"/><stop offset=".294" stop-color="#9CBBD0"/><stop offset=".355" stop-color="#88ACCA"/><stop offset=".427" stop-color="#6A94BE"/><stop offset=".508" stop-color="#4177AF"/><stop offset=".511" stop-color="#3F76AF"/><stop offset=".736" stop-color="#224987"/><stop offset=".829" stop-color="#244D8A"/><stop offset=".924" stop-color="#2A5794"/><stop offset="1" stop-color="#3065A0"/></linearGradient><linearGradient x1="-100.206" x2="-83.826" y1="222.647" y2="222.647" xlink:href="#e" gradientUnits="userSpaceOnUse" gradientTransform="matrix(.794 0 0 .792 88.409 -152.964)"/><radialGradient id="f" cx="-37.291" cy="214.005" r="19.446" gradientUnits="userSpaceOnUse" gradientTransform="matrix(-1 0 0 .847 55.653 28.519)" fy="214.005" fx="-37.291"><stop offset="0" stop-color="#fff"/><stop offset="1" stop-color="#224987"/></radialGradient><radialGradient cx="-37.291" cy="214.005" r="19.446" xlink:href="#f" gradientUnits="userSpaceOnUse" gradientTransform="matrix(-.794 0 0 .671 -19.546 -130.377)" fx="-37.291" fy="214.005"/><radialGradient id="g" cx="-38.266" cy="214.142" r="20.102" fx="-38.266" fy="214.142" gradientTransform="matrix(-1 0 0 1 55.653 0)" gradientUnits="userSpaceOnUse"><stop offset="0" stop-color="#fff"/><stop offset="1" stop-color="#3065A0"/></radialGradient><radialGradient cx="-38.266" cy="214.142" r="20.102" xlink:href="#g" gradientUnits="userSpaceOnUse" gradientTransform="matrix(-1 0 0 1 55.653 0)" fx="-38.266" fy="214.142"/><linearGradient id="d"><stop offset="0" stop-color="#2e3436"/><stop offset="1" stop-color="#2e3436" stop-opacity="0"/></linearGradient><linearGradient x1="26.968" x2="33.587" y1="33.468" y2="36.857" xlink:href="#d" gradientUnits="userSpaceOnUse" gradientTransform="matrix(.975 0 0 .975 .572 1.403)"/><linearGradient id="h" x1="103.99" x2="118.07" y1="229.561" y2="229.189" gradientUnits="userSpaceOnUse"><stop offset="0" stop-color="#fff"/><stop offset=".078" stop-color="#FEFDEC"/><stop offset=".236" stop-color="#FCF7BB"/><stop offset=".459" stop-color="#F8ED6D"/><stop offset=".539" stop-color="#F6E94F"/><stop offset=".641" stop-color="#F5E84A"/><stop offset=".755" stop-color="#F3E43E"/><stop offset=".876" stop-color="#F0DD29"/><stop offset="1" stop-color="#EBD30F"/><stop offset="1" stop-color="#EBD30F"/></linearGradient><linearGradient x1="103.99" x2="118.07" y1="229.561" y2="229.189" xlink:href="#h" gradientUnits="userSpaceOnUse" gradientTransform="matrix(.794 0 0 .792 -64.857 -153.479)"/><linearGradient id="i" x1="107.77" x2="105.604" y1="228.699" y2="227.569" gradientUnits="userSpaceOnUse"><stop offset="0" stop-color="#EFEEEC"/><stop offset="1" stop-color="#F6E94F"/></linearGradient><linearGradient x1="107.77" x2="105.604" y1="228.699" y2="227.569" xlink:href="#i" gradientUnits="userSpaceOnUse" gradientTransform="matrix(.794 0 0 .792 -64.857 -153.479)"/><linearGradient id="j" x1="105.57" x2="115.738" y1="226.415" y2="240.775" gradientUnits="userSpaceOnUse"><stop offset="0" stop-color="#FAFAFA"/><stop offset=".579" stop-color="#F6E94F"/><stop offset=".693" stop-color="#F3E54B"/><stop offset=".793" stop-color="#EAD740"/><stop offset=".888" stop-color="#DBC32F"/><stop offset=".98" stop-color="#C8A61A"/><stop offset="1" stop-color="#C3A016"/></linearGradient><linearGradient x1="105.57" x2="115.738" y1="226.415" y2="240.775" xlink:href="#j" gradientUnits="userSpaceOnUse"/><radialGradient id="k" cx="96.07" cy="217.459" r="30.602" fx="96.07" fy="217.459" gradientTransform="matrix(1 0 0 .847 0 28.519)" gradientUnits="userSpaceOnUse"><stop offset="0" stop-color="#fff"/><stop offset=".066" stop-color="#F4F7FA"/><stop offset=".182" stop-color="#D7E1EC"/><stop offset=".335" stop-color="#A7BDD7"/><stop offset=".516" stop-color="#668DB9"/><stop offset=".652" stop-color="#3065A0"/><stop offset=".916" stop-color="#1A3A6B"/></radialGradient><radialGradient cx="96.07" cy="217.459" r="30.602" xlink:href="#k" gradientUnits="userSpaceOnUse" gradientTransform="matrix(1 0 0 .847 0 28.519)" fx="96.07" fy="217.459"/><linearGradient id="l"><stop offset="0" stop-color="#ffae00"/><stop offset="1" stop-color="#ff3600"/></linearGradient><radialGradient cx="21.483" cy="22.169" r="21.156" xlink:href="#l" fx="21.483" fy="22.169" gradientTransform="matrix(.732 0 0 .732 -12.239 5.306)" gradientUnits="userSpaceOnUse"/><linearGradient id="p"><stop offset="0" stop-color="#2e3436" stop-opacity=".502"/><stop offset="1" stop-color="#2e3436" stop-opacity="0"/></linearGradient><linearGradient id="o"><stop offset="0" stop-color="#d0d0ca"/><stop offset=".25" stop-color="#e6e6e4"/><stop offset="1" stop-color="#fdfdfd"/></linearGradient><linearGradient id="n"><stop offset="0" stop-color="#fff"/><stop offset="1" stop-color="#fff" stop-opacity="0"/></linearGradient><linearGradient id="m"><stop offset="0" stop-color="#555753"/><stop offset="1"/></linearGradient><linearGradient x1="4.725" x2="37.09" y1="47.933" y2="6.704" xlink:href="#m" gradientUnits="userSpaceOnUse" gradientTransform="matrix(0 1.051 -.989 0 47.745 1.173)"/><radialGradient cx="37.379" cy="3.948" r="5.413" xlink:href="#n" fx="37.379" fy="3.948" gradientTransform="matrix(-1.221 1.167 -1.634 -1.71 94.619 -.456)" gradientUnits="userSpaceOnUse"/><linearGradient x1="7.415" x2="37.837" y1="43.7" y2="3.624" xlink:href="#o" gradientUnits="userSpaceOnUse" gradientTransform="matrix(0 1.111 -1.057 0 47.778 -4.474)"/><linearGradient x1="28.201" x2="35.259" y1="10.586" y2="4.185" xlink:href="#m" gradientUnits="userSpaceOnUse" gradientTransform="matrix(0 1.126 -1.114 0 47.798 -1.491)"/><radialGradient cx="23.714" cy="44.19" r="23.27" xlink:href="#p" fx="23.714" fy="44.19" gradientTransform="matrix(1 0 0 .142 0 37.921)" gradientUnits="userSpaceOnUse"/><radialGradient cx="10.075" cy="41.236" r="16.472" xlink:href="#l" fx="10.075" fy="41.236" gradientTransform="matrix(1.77 .032 -.032 1.783 -6.039 -33.187)" gradientUnits="userSpaceOnUse"/><linearGradient id="s" x1="2.107" x2="45.893" y1="14.571" y2="30.714" xlink:href="#q" gradientUnits="userSpaceOnUse" gradientTransform="matrix(1.008 .185 -.185 1.007 4.657 -5.187)"/><linearGradient id="t" x1="14.59" x2="43.711" y1="6.638" y2="36.638" xlink:href="#r" gradientUnits="userSpaceOnUse"/></defs><g><path fill="url(#s)" fill-rule="evenodd" stroke="url(#t)" stroke-width="1.5" d="M2.34 12.26L32.17.76l13.93 34.9-30.7 11.42L2.33 12.26z"/><g><path fill="#a7cdf0" d="M10.16 26.83c-1.68-4.3-3.36-8.63-5.04-12.95 8.63-3.36 17.27-6.7 25.9-10.07 3.36 8.64 6.72 17.27 10.08 25.9-8.64 3.36-17.27 6.72-25.9 10.08-1.68-4.32-3.36-8.63-5.04-12.95z"/><path fill="#91ccf5" d="M10.16 26.83c-1.68-4.3-3.36-8.63-5.04-12.95 8.63-3.36 17.27-6.7 25.9-10.07 3.36 8.64 6.72 17.27 10.08 25.9-8.64 3.36-17.27 6.72-25.9 10.08-1.68-4.32-3.36-8.63-5.04-12.95zm11.53-1.4c-.07-1.1-.9-1.92-1.25-2.93-.83-1.92-1.38-3.95-2.17-5.88-.44-.5-.68.37-.54.72.15.82 1.1 1.25 1.13 2.1-.23.46-.85.74-.7 1.38-.02.93.27 1.93 1.02 2.54.03.5-.88.82-.33 1.34.4.58 1.16.62 1.78.83.43.1.6.84.95.86.2-.3.05-.66.1-.98zm4.13-1.94c0-.68.75-.9 1.24-1.16.5-.24.87-.83.75-1.4-.16-.5-.7-.72-.93-1.2-.34-.57-.72-1.13-1.17-1.63-.6-.73-1.17-1.52-1.52-2.42-.24-.45-.75-1.42-1.34-1.02-.15.53.2 1.07.3 1.6.73 2.46 1.7 4.87 2.32 7.37.03.27.42.54.35.08v-.2z"/><path fill="#63a9d9" d="M10.16 26.83c-1.68-4.3-3.36-8.63-5.04-12.95 8.63-3.36 17.27-6.7 25.9-10.07 3.36 8.64 6.72 17.27 10.08 25.9-8.64 3.36-17.27 6.72-25.9 10.08-1.68-4.32-3.36-8.63-5.04-12.95zM26.73 24c-.04-.72.6-1.1 1.2-1.23.6-.5.53-1.34.53-2.03-.04-1.08-.2-2.17-.56-3.2-.33-.66-.8-1.25-1.1-1.94-.2-.78-1.1-.4-1.53-.9-.54-.43-.97-.98-1.54-1.36-.63-.46-1.37.28-1.14.95.55 2.2 1.33 4.34 2.03 6.5.27.83.53 1.65.75 2.5.07.5.5.7.77 1.1.12.24.45.68.48.14.04-.18.06-.37.1-.55zM21.7 25.4c-.06-1.08-.9-1.9-1.23-2.9-.88-2-1.43-4.13-2.32-6.13-.18-.7-.9-.5-1.04.08-.37.7-.7 1.46-.97 2.22-.24.87.6 1.54.54 2.38-.25.4-.33.9.14 1.2.87 1.02 1.14 2.44 2.14 3.37.48.42 1.12.13 1.67.23.4.05 1.02.97 1.1.2 0-.22-.03-.44 0-.66z"/><path fill="#a0a196" d="M10.16 26.83c-1.68-4.3-3.36-8.63-5.04-12.95 8.63-3.36 17.27-6.7 25.9-10.07 3.36 8.64 6.72 17.27 10.08 25.9-8.64 3.36-17.27 6.72-25.9 10.08-1.68-4.32-3.36-8.63-5.04-12.95zm18.66-3c.55-1.23.2-2.6.05-3.86-.27-1.7-.46-3.5-1.42-5-.78-1.1-2.03-1.73-3.25-2.24-.58-.2-1.4-.12-1.68.52-.16.56.08 1.13.2 1.68.7 2.6 1.96 5.02 2.44 7.68.25 1.06.86 2.18 1.98 2.47.65.2 1.27-.28 1.5-.86.07-.12.13-.25.18-.38zm-7.3 2.72c.46-.95 0-2.04-.5-2.9-.78-1.45-1.3-3.04-1.86-4.6-.42-1.2-.83-2.4-1.25-3.62-.64.23-1.34.5-1.72 1.12-.78 1.1-.9 2.52-.72 3.82.13 1.37.7 2.65 1.5 3.76.66 1 1.34 2.05 2.3 2.82.55.4 1.3.26 1.87 0 .16-.1.3-.23.38-.4z"/><path fill="#e66159" d="M15 39.25c-.38-.7.7-.64 1.1-.77.73-.18 1.5-.3 2.15-.67.53-.6-.4-1.38-1.03-1.06-.53.2-1.07-.02-1.38-.47-.4-.4-.67-.88-1-1.33-.54-.34-1.3-.4-1.6-1.07-.43-.38-.58-.94-.8-1.46C10.52 27.9 8.8 23.3 7 18.74c-.62-1.62-1.25-3.23-1.88-4.85 6.76-2.6 13.48-5.3 20.28-7.8.65-.23 1.3-.45 1.96-.64.62.12.87-.68 1.47-.75.7-.34 1.46-.6 2.2-.9 3.35 8.64 6.7 17.27 10.05 25.9-2.65 1-5.28 2.1-7.98 3-.58.12.22-.5.23-.8.32-.62.5-1.37 1.1-1.8.47-.5.76-1.2.8-1.88.03-.57.5-1 .5-1.56.08-.57-.22-1.32-.88-1.34-.68-.06-1.3.53-1.32 1.2.05.45-.26 1.6-.78.94-.37-.5-.7.23-.97.45-.4.46-.84.86-1.37 1.13-.87.7-1.45 1.68-2.32 2.37-.6.3-1.3.27-1.93.48-1.07.25-2.2.7-3.3.37-.7-.22-1.44-.37-2.2-.4-.93-.04-1.56-.82-2.12-1.47-.38-.37-.83-1-1.43-.83-.67.4-.3 1.26.1 1.72.45.5 1.06.82 1.34 1.47.45.75.8 1.67 1.65 2.05.66.3 1.28.72 1.92 1.1.36.18.74.36 1.12.52-.35.5-1.03.52-1.53.8-2.16.87-4.33 1.7-6.5 2.56-.07-.18-.14-.35-.2-.53zm13.14-13.82c-.4-.06-.44-.42-.04-.5.56-.5.84-1.3.98-2.03.14-1.18-.16-2.35-.3-3.5-.25-1.55-.48-3.18-1.37-4.5-.78-1.03-1.98-1.66-3.16-2.13-.6-.3-1.48-.16-1.7.55-.26.93-.34 1.98.1 2.87.68 1.62 1.45 3.23 1.84 4.97.3 1.26.45 2.6 1.22 3.7.6.7 1.55.8 2.4.93.2.05.9.04.04-.37zm-6.07.62c.18-1.1-.58-2.04-1-3-.98-2.1-1.6-4.32-2.46-6.45-.2-.42-.44-1-.98-.98-.9.05-1.5.9-1.83 1.65-.6 1.3-.45 2.8-.14 4.18.33 1.37 1.2 2.52 1.96 3.68.46.62.9 1.28 1.54 1.75.5.37 1.13.3 1.7.18.65 0-.3 1.02.2.8.55-.45 1-1.08 1-1.8zM23.2 22c-.24-.55-.8.17-.2.28.14 0 .24-.14.2-.27zm8.53-6.84c.44-.47.2-1.12.27-1.67.17-1-.12-2-.4-2.96-.27-.73-.55-1.56-1.25-2-.6-.26-1.23.23-1.75.5-.45.32-.24.9-.1 1.3.16.4.35.84.7 1.08.67.27.38 1 .14 1.47-.3.56-.47 1.35.14 1.78.48.4.9.86 1.46 1.15.4.12.57-.44.8-.67zm-5.37 19.18c-.56.08-1.58-.02-1.6-.74.1-.65.78-.77 1.3-.87 1.13-.33 2.2-.87 3.32-1.2.75.04.5 1.08-.05 1.28-.84.77-1.84 1.37-2.97 1.54zm4.75-2.9c.17-.86 1.08-1.42 1.02-2.33.05-.46.72-1.52 1.05-.7.15.6.3 1.3-.04 1.86-.32.5-.83.8-1.3 1.13-.2.12-.5.22-.72.03z"/><path fill="#668e97" d="M15 39.25c-.38-.7.7-.64 1.1-.77.73-.18 1.5-.3 2.15-.67.53-.6-.4-1.38-1.03-1.06-.53.2-1.07-.03-1.4-.47-.38-.4-.68-.9-.97-1.36-.23-.1-.74-.52-.14-.4.46.23 1.1.92 1.55.34.25-.65-.4-1.22-.64-1.77-.52-.85-.95-1.75-1.5-2.6-.52-.65-1.35-.97-2.13-1.2-.48.05-.97-.1-1.02-.65-1.16-2.6-2.12-5.27-3.18-7.92-.88-2.27-1.76-4.54-2.65-6.82 6.76-2.6 13.48-5.3 20.28-7.8.65-.23 1.3-.45 1.96-.64.62.12.87-.68 1.47-.75.7-.34 1.46-.6 2.2-.9 3.35 8.64 6.7 17.27 10.05 25.9-2.65 1-5.28 2.1-7.98 3-.58.12.22-.5.23-.8.32-.62.5-1.37 1.1-1.8.47-.5.76-1.2.8-1.88.03-.57.5-1 .5-1.56.08-.57-.22-1.32-.88-1.34-.68-.06-1.3.53-1.32 1.2.05.43-.25 1.58-.77.96-.32-.54-.68.1-.9.37-.4.45-.86.82-1.36 1.13-.25.17-.7.75-.93.53 0-.83.26-1.7-.02-2.52-.37-.74-1-1.3-1.73-1.7-.02-.38.66-.4.7-.84.6-.94.7-2.1.52-3.18-.23-1.82-.45-3.66-1.1-5.4-.37-.95-1.1-1.74-2-2.24-.75-.48-1.58-.94-2.5-1-.68.04-1.07.73-1.04 1.36-.1.33.06 1.1-.18 1.14-.6-.22-1.1-.82-1.64-1-.37.1-.47.93.02.55.67-.25 1 .62 1.27 1.07.83 1.57 1.54 3.22 2.15 4.9.26.7.3 1.47.45 2.22.24 1.18.8 2.37 1.85 3.06.43.24.35.76-.16.8-1.13.57-2.4.88-3.46 1.55-.4.54.68.58 1 .66.6.1 1.04.6 1.44.96.43-.84.75-1.8 1.48-2.43.5-.33.62-1.1 1.28-1.18.76-.17 1.57.5 1.47 1.3.05 1.26-.47 2.67-1.67 3.25-.8.38-1.7.35-2.52.64-.67.22-1.4.63-2.12.32-.6-.2-1.15-.54-1.76-.7-.17.25.6.82-.1.75-1.02.1-1.93-.54-2.54-1.3-.38-.44-.77-1-1.4-1.07-.7.12-.6 1.06-.26 1.5.3.6 1 .8 1.32 1.4.53.73.8 1.7 1.6 2.23.67.37 1.35.72 1.98 1.14.43.24.88.45 1.34.65-.35.5-1.03.52-1.53.8-2.16.87-4.33 1.7-6.5 2.56-.07-.18-.14-.35-.2-.53zm6.38-10.96c.63-.42.8-1.22 1-1.9.2-.96-.04-1.98-.6-2.77-.93-1.6-1.45-3.37-1.98-5.12-.2-.72-.4-1.46-.43-2.2.17-.36-.1-1.06-.3-.36-.33.65-.9-.3-1.37-.3-.78-.07-1.36.62-1.72 1.24-.6 1.05-.7 2.3-.52 3.5.13 1.4.74 2.7 1.54 3.82.62.94 1.24 1.92 2.1 2.65.58.43 1.3.3 1.95.2.35-.05-.16.57-.2.8-.08.32-.38.77-.28 1.02.3-.14.47-.52.8-.58zm2.4-5.5c.08-1-.56-1.86-.98-2.73-.27-.5-.52-1.04-.97-1.4-.7.1-.3 1-.2 1.44.46 1.56 1.08 3.1 2.1 4.36.25-.34-.1-.94.04-1.4 0-.07 0-.16 0-.25zm7.95-7.64c.44-.47.2-1.12.27-1.67.17-1-.12-2-.4-2.96-.27-.73-.55-1.56-1.25-2-.6-.26-1.23.23-1.75.5-.45.32-.24.9-.1 1.3.16.4.35.84.7 1.08.67.27.38 1 .14 1.47-.3.56-.47 1.35.14 1.78.48.4.9.86 1.46 1.15.4.12.57-.44.8-.67zm-.62 16.27c.17-.85 1.08-1.4 1.02-2.32.05-.46.72-1.52 1.05-.7.15.6.3 1.3-.04 1.86-.32.5-.83.8-1.3 1.13-.2.12-.5.22-.72.03z"/><path fill="#f54931" d="M15.83 39.3c.35-.15.78-.56 1.17-.32-.5.3-1.17.55-1.67.65.15-.13.33-.22.5-.33zm2.5-1.44c.22-.6-.28-1.4-.97-1.15-.54.2-1.13.1-1.47-.37-.43-.42-.74-.92-1.05-1.42-.23-.1-.74-.52-.14-.4.46.23 1.1.92 1.55.34.25-.65-.4-1.22-.64-1.77-.52-.85-.95-1.75-1.5-2.6-.52-.65-1.35-.97-2.13-1.2-.48.05-.97-.1-1.02-.65-1.16-2.6-2.13-5.28-3.18-7.93C6.9 18.4 6 16.13 5.12 13.86c4.6-1.73 9.18-3.55 13.83-5.14.4-.22.8-.12.53.36-.16.3-.74 1.12 0 1 .46-.22 1.05-.75.83-1.3-.13-.27-.67-.2-.28-.55.45-.35 1.02-.52 1.53-.76.58-.24 1.16-.48 1.76-.63.4.17-.32 1.07.4.9.67-.04 1.2-.6 1.24-1.27.32-.6 1.06-.72 1.65-.94.62-.16 1.28-.04 1.72-.6.75-.45 1.58-.7 2.37-1.02.56-.4.5.64.76.98 3.2 8.26 6.4 16.53 9.6 24.8-2.65 1-5.27 2.1-7.96 2.97-.57.12.22-.5.23-.8.32-.62.5-1.37 1.1-1.8.45-.5.76-1.15.8-1.82.03-.66.57-1.16.5-1.85.07-.6-.4-1-.87-1.24-.5-.3-1.07-.48-1.62-.66-.64-.1-.65.64-.47 1.06.12.5.34 1 .25 1.54-.42.24-1.07-.16-1.3.46-.7.75-1.38 1.5-2.14 2.16-.1-.95.32-1.93-.07-2.84-.14-.4-.46-.7-.77-.96-.06-.42.62.1.75.25.48.53 1.06.12 1.25-.42.43-.5 0-.93-.47-1.13-.5-.4-.12-1.12-.42-1.65-.28-.84-.6-1.67-.67-2.56-.1-1.22-.34-2.42-.55-3.62 0-.48-.32-1.2.17-1.5.63-.15 1.1.35 1.63.56.7.14 1.24-.53 1.52-1.08.18-.6-.1-1.2.1-1.83-.07-1.34-.4-2.72-1.12-3.87-.32-.6-1.04-.82-1.62-.43-.48.17-1.15.53-.95 1.15.1.53.35 1.05.7 1.47.47.26.8.75.4 1.24-.18.58-.77.82-1.32.92-.6.18-1.32.23-1.85-.18-.9-.46-1.8-1.04-2.84-1.1-.76.05-1.3.82-1.26 1.55-.05.46.15 1.18.05 1.48-.56-.36-1.07-.9-1.75-1-.44.14-.18.92.2.44.68-.1.93.72 1.23 1.17.84 1.6 1.56 3.26 2.16 4.95.32.96.27 2 .64 2.95.3.88.84 1.7 1.62 2.22.43.24.35.76-.16.8-1.13.57-2.4.88-3.46 1.55-.4.54.68.58 1 .66.6.1 1.04.6 1.44.96.43-.84.75-1.8 1.48-2.43.5-.33.62-1.1 1.28-1.18.76-.17 1.57.5 1.47 1.3.05 1.26-.47 2.67-1.67 3.25-.8.38-1.7.35-2.52.64-.67.22-1.4.63-2.12.32-.6-.2-1.16-.54-1.78-.7-.14.26.67.88-.06.73-.95-.2-1.76-.75-2.53-1.3-.43-.4-.76-.98-1.37-1.05-.75.05-.7 1.05-.33 1.5.3.6 1 .8 1.32 1.4.53.73.8 1.7 1.6 2.23.7.38 1.38.75 2.04 1.17.4.24.85.44 1.3.6-.24.5-.92.5-1.34.76-1.24.48-2.47.96-3.7 1.45.03-.24.07-.5.1-.74zm3.05-9.57c.63-.42.8-1.22 1-1.9.2-.96-.04-1.98-.6-2.77-.93-1.6-1.45-3.37-1.98-5.12-.2-.72-.4-1.46-.43-2.2.14-.3-.05-1.06-.28-.42-.32.74-.87-.36-1.22-.56-.6-.32-1.25.12-1.6.6-1.05 1.25-1.45 3-1.1 4.6.35 1.97 1.5 3.67 2.65 5.3.52.73 1 1.53 1.75 2.05.36.26 1-.13 1.23.07-.13.38-.32.75-.42 1.15.33-.28.6-.66 1-.8zm2.4-5.5c.08-1-.56-1.86-.98-2.73-.27-.5-.52-1.04-.97-1.4-.7.1-.3 1-.2 1.44.46 1.56 1.08 3.1 2.1 4.36.25-.34-.1-.94.04-1.4 0-.07 0-.16 0-.25zm7.3 8.72c.04-.56.43-1.05.82-1.42.45-.18.5-.62.2-.96-.1-.5.68-.9.68-.22-.04.6-.24 1.23-.4 1.8-.34.34-.76.9-1.25.9l-.04-.1z"/><path fill="#8c9051" d="M15.83 39.3c.35-.15.78-.56 1.17-.32-.5.3-1.17.55-1.67.65.15-.13.33-.22.5-.33zm2.5-1.44c.22-.6-.28-1.4-.97-1.15-.54.2-1.13.1-1.47-.37-.43-.42-.74-.92-1.05-1.42-.23-.1-.74-.52-.14-.4.46.23 1.1.92 1.55.34.25-.65-.4-1.22-.64-1.77-.52-.85-.95-1.75-1.5-2.6-.52-.65-1.35-.97-2.13-1.2-.48.05-.97-.1-1.02-.65-1.16-2.6-2.13-5.28-3.18-7.93C6.9 18.4 6 16.13 5.12 13.86c4.6-1.73 9.18-3.55 13.83-5.14.4-.22.8-.12.53.36-.16.3-.74 1.12 0 1 .46-.22 1.05-.75.83-1.3-.13-.27-.67-.2-.28-.55.45-.35 1.02-.52 1.53-.76.58-.24 1.16-.48 1.76-.63.4.17-.32 1.07.4.9.67-.04 1.2-.6 1.24-1.27.32-.6 1.06-.72 1.65-.94.62-.16 1.28-.04 1.72-.6.75-.45 1.58-.7 2.37-1.02.56-.4.5.64.76.98 3.2 8.26 6.4 16.53 9.6 24.8-2.65 1-5.27 2.1-7.96 2.97-.57.12.22-.5.23-.8.32-.62.5-1.37 1.1-1.8.45-.5.76-1.15.8-1.82.03-.66.57-1.16.5-1.85.07-.6-.4-1-.87-1.24-.5-.3-1.07-.48-1.62-.66-.64-.1-.65.64-.47 1.06.12.5.34 1 .25 1.54-.42.24-1.07-.16-1.3.46-.7.75-1.38 1.5-2.14 2.16-.1-.95.32-1.93-.07-2.84-.14-.4-.46-.7-.77-.96-.06-.42.62.1.75.25.48.53 1.06.12 1.25-.42.43-.5 0-.93-.47-1.13-.5-.4-.12-1.12-.42-1.65-.28-.84-.6-1.67-.67-2.56-.1-1.22-.34-2.42-.55-3.62 0-.48-.32-1.2.17-1.5.63-.15 1.1.35 1.63.56.7.14 1.24-.53 1.52-1.08.18-.6-.1-1.2.1-1.83-.07-1.34-.4-2.72-1.12-3.87-.32-.6-1.04-.82-1.62-.43-.48.17-1.15.53-.95 1.15.1.53.35 1.05.7 1.47.47.26.8.75.4 1.24-.18.58-.77.82-1.32.92-.6.18-1.32.23-1.85-.18-.9-.46-1.8-1.04-2.84-1.1-.76.05-1.3.82-1.26 1.55 0 .5.07 1 .1 1.5-.6-.3-1.1-1.04-1.83-.96-.33.44-.35 1.1-1 1.28-.4.18-.53.98-.96.4-.3-.43-.77-.9-1.35-.7-.7.26-1.12.97-1.48 1.6-.68 1.25-.77 2.76-.4 4.12.53 2.12 1.9 3.86 3.1 5.62.38.46.73 1 1.25 1.3.35.23.94-.18 1.17.06-.3.7-.58 1.52-.23 2.25.24.62.77 1.06 1 1.67-.5.17-.97-.3-1.43-.46-.76-.4-1.54-.8-2.07-1.5-.36-.6-1.42-.5-1.34.3.06.66.48 1.24 1.03 1.58.97.75 1.13 2.15 2.15 2.85.83.42 1.6.9 2.4 1.37.37.13 1.4.5.58.75-1.08.48-2.2.88-3.3 1.32-.4.1-1.1.55-1.35.44.03-.2.07-.42.1-.64zm12.76-6.34c.02-.56.4-1.05.8-1.42.45-.18.5-.62.2-.96-.1-.5.68-.9.68-.22-.04.6-.24 1.23-.4 1.8-.34.34-.76.9-1.25.9l-.04-.1z"/><path fill="#73896f" d="M15.83 39.3c.35-.15.78-.56 1.17-.32-.5.3-1.17.55-1.67.65.15-.13.33-.22.5-.33zm2.5-1.52c-.13-.53.4-.95.88-.67.58-.2.07-1.25.87-1.3.8-.1 1.5.45 2.2.8.22.14.64.28.16.37-1.4.54-2.8 1.08-4.2 1.63.04-.28.07-.55.1-.82zm16.23-6.33c.87-1.23 1.96-2.43 2.17-3.98.1-.52.03-1.5-.7-1.4-.5 0-.53-.63-1-.77-.54-.35-1.17-.56-1.8-.76-.64-.1-.64.64-.46 1.06.12.5.34 1 .25 1.54-.4.24-1.07-.17-1.3.46-.64.7-1.32 1.4-2 2.07.14-1.1.12-2.28-.47-3.25-.06-.2-.86-.65-.36-.62.47.2.84.9 1.42.56.32-.34.85-1.03.4-1.47-.73-.1-.73-.85-.76-1.4-.24-1.04-.73-2-.8-3.08-.1-1.26-.35-2.5-.56-3.75 0-.44-.3-1.18.27-1.36.67-.13 1.08.46 1.65.6.67.04 1.17-.57 1.44-1.12.2-.57-.25-1.33.47-1.7.58-.15 1.26-.64.95-1.34-.46-1.72-1.3-3.32-1.98-4.96-.36-.82-.77-1.62-1-2.5.04-.62.84-.15.8.3 1.05 2.28 1.9 4.65 2.82 7 2.35 6.04 4.7 12.1 7.04 18.14-2.45.95-4.9 1.9-7.34 2.85.28-.37.56-.75.84-1.12zm-3.47.07c.02-.56.4-1.05.8-1.42.45-.18.5-.62.2-.96-.1-.5.68-.9.68-.22-.04.6-.24 1.23-.4 1.8-.34.34-.76.9-1.25.9l-.04-.1zm-11-.12c-.77-.36-1.5-.83-2.04-1.5-.35-.47-1.2-.6-1.3.13-.26.75-.18 1.56-.05 2.33.1.52-.6 1-.82.35-.97-1.66-1.77-3.42-2.52-5.2-.17-.4-.3-.87-.64-1.17-.55-.33-1.22-.24-1.82-.2-.4.02-1 .6-1.05-.1C8.27 22 6.7 17.94 5.12 13.9c.94-.34 1.85-.8 2.83-1 .44.14-.35.55-.47.7-.48.5-.42 1.23-.2 1.83.27 1 .58 1.96.82 2.95.43 1.03 1.3 1.84 2.22 2.43.35.4 1.4-.1 1.2.66-.43.82.6 1.1 1.15 1.33.5.32 1.36.2 1.13-.55-.2-.97-.5-1.93-.96-2.8-.43-.54.1-1.3-.3-1.85-.37-.46-.83-.82-1.2-1.3-.32-.4-.7-.75-1.13-1.06-.5-.52-.58-1.33-.37-2 .16-.53-.86-.54-.78-.68 1.43-.72 2.95-1.23 4.43-1.82 1.93-.74 3.87-1.47 5.84-2.1.6.14-.14.93-.25 1.26.23.64.97-.1 1.16-.44.34-.4.1-.8-.36-.9.14-.5.9-.64 1.35-.9.66-.25 1.32-.53 2-.74.65-.05-.37.93.43.9.57 0 1.1-.43 1.22-1 .08-.73.88-.9 1.43-1.14.4-.1.98-.6 1.05.07.34.85.8 1.65 1.1 2.5.08.65-.17 1.3.03 1.93.13.57.4 1.22.97 1.45.43.48-.06 1.27-.48 1.6-.62.26-1.32.48-2 .4-.6-.14-1.1-.57-1.66-.8-.62-.3-1.3-.64-2-.6-.66.17-1.12.85-1.17 1.5.17.43.17 1.24-.5.94-.44-.06-.98-.65-1.28-.54-.07.62-.33 1.26-.94 1.5-.52.47-1.08.1-1.5-.28-.6-.3-1.22.1-1.58.57-.8.96-1.3 2.2-1.26 3.46.03 2.08 1.04 4 2.2 5.66.63.86 1.2 1.8 1.93 2.57.28.3.67.48 1.08.37.3-.07.67-.18.4.23-.28.6-.45 1.34-.1 1.96.24.63.55 1.23 1 1.73-.33.17-.88-.24-1.27-.36-.06-.03-.13-.06-.2-.1z"/><path fill="#546f6d" d="M15.3 39.6c.13-.26 1.05-.3.4-.06-.06 0-.47.24-.4.05zm3.7-1.46c.62-.38.42-1.22.56-1.83.16-.6.9-.67 1.37-.4.63.26 1.2.64 1.78.96-1.23.44-2.47.96-3.72 1.33-.1.02-.02-.07 0-.06zm15.26-6.3c.8-1.15 1.8-2.17 2.25-3.5.3-.73.38-1.56.04-2.28-.18-.57-.45-1.22-1.08-1.4-.65-.26-1.3-.58-2-.68-.63.12-.82.9-.8 1.47.07.6-.26 1.12-.67 1.52-.44.48-.9.96-1.5 1.26-.22.02-.5-.4-.65-.02-.04-.38-.35-1.26-.22-1.35.13.17.58.5.35.05.04-.55.72-.76.86-1.3.4-.76-.74-.75-.82-1.34.03-.58-.12-1.13-.32-1.66-.3-.8-.5-1.6-.55-2.44-.12-1.24-.4-2.45-.6-3.67-.2-.48.2-1.03.63-.55.55.43.63 1.26 1.3 1.57.56.38 1.27.07 1.6-.46.75-.84 1.16-1.93 1.2-3.05.15-1 .22-2.04-.16-3-.7-2.14-1.73-4.14-2.6-6.2-.28-.32-.07-1.14.4-.7.38.44.5 1.03.75 1.54 1.36 3.26 2.6 6.58 3.9 9.86.77 2.02 1.58 4.03 2.28 6.08.2.5.44 1.16-.2 1.46-.4.5-.82 1.2-.6 1.87.25.85.66 1.63.95 2.45.2.42.33.9.66 1.23.52.15.9-.42 1.36-.56.5-.48.5.38.7.7.04.32.47.8.26 1.03-2.4.94-4.82 1.87-7.22 2.8.16-.23.33-.48.5-.72zm-14.04-.54c-1.02-.4-1.55-1.4-2.32-2.1-.57-.43-1.3.1-1.5.67-.18.9.36 1.75.26 2.65.03.57-.7.7-.84.12-1.07-1.93-1.98-3.95-2.82-6-.33-.6-1.1-.56-1.7-.55-.45-.1-1 .38-1.35.22-1.03-2.7-2.1-5.4-3.14-8.1-.55-1.44-1.1-2.9-1.68-4.34.94-.34 1.85-.8 2.83-1 .44.14-.35.55-.47.7-.48.5-.42 1.23-.2 1.83.27 1 .58 1.96.82 2.95.43 1.03 1.3 1.84 2.22 2.43.35.4 1.4-.1 1.2.66-.33.6.18.96.68 1.13.4.18.85.38 1.3.33.74-.33.16-1.24.2-1.8-.1-.6.72-1.22.24-1.72-.45-.2-1.45.24-1.28-.63.13-.7.1-1.45.48-2.06-.03-.7-.83-.85-1.33-1.1-.5-.17-1.13.17-1.5-.3-.5-.5-.7-1.3-.47-1.98.1-.62-.6-.7-1-.78.45-.3 1-.5 1.52-.6.5.02.72.7 1.32.46.65-.06.62-.72.73-1.17.42-.4 1.02-.66 1.6-.73.58.2 1-.2 1.46-.52 1.2-.6 2.47-1.1 3.78-1.4.74.1-.07.93-.16 1.32.26.55 1.06-.16 1.2-.56.3-.4-.12-.73-.4-.84.18-.54.9-.6 1.33-.86.7-.3 1.4-.58 2.1-.77.4.2-.46 1.28.4.94.67-.2 1.24-.6 1.78-1 .64-.32 1.4-.35 2.08-.24.64.36.08 1.18-.07 1.68-.43 1.12-.5 2.47.2 3.5.48.36.85 1.1.17 1.5-.43.5-1.1.3-1.6.05-.6-.27-1.18-.6-1.73-.95-.37-.55-1.1-.3-1.57 0-.6.25-.8.9-.87 1.5-.14.32.1 1.3-.42.86-.42-.15-1.02-.7-1.33-.62-.07.62-.33 1.26-.94 1.52-.67.53-1.18-.28-1.8-.4-.74-.1-1.23.57-1.6 1.1-.64.94-1 2.08-.94 3.22.1 2.1 1.16 4 2.34 5.66.62.86 1.2 1.76 1.93 2.52.3.4 1.02.02 1.12.68.1.45-.2.9-.02 1.35.1.47.4.87.6 1.3.18.68-.46.36-.8.27zm5.14-20.52c.36-.26.53-1.22 0-1.2-.37.46-.53 1.12-.6 1.68.22.1.43-.36.6-.48z"/><path fill="#6d724f" d="M19.45 37.53c.03-.6-.05-1.56.7-1.77.7-.06 1.3.42 1.9.72.22.18.98.4.36.5-.98.38-1.96.76-2.94 1.14 0-.2 0-.4 0-.6zm14.8-5.7c.76-1.1 1.73-2.06 2.2-3.33.2-.54.44-1.14.35-1.73-.16-.5-.63-1-.44-1.58.44-.3 1 .25 1.12.68.26.72.42 1.48.8 2.16.2.42.43.8.66 1.2.56-.14 1.17-.8 1.74-.53.12.32.46.77.3 1.06-1.07.38-2.13.83-3.2 1.24-1.34.52-2.68 1.04-4.02 1.56.16-.24.33-.5.5-.73zm-4.55-4.26c-.1-.22-.16-1.16.1-.5.13.25.42 1 .04.97-.08-.15-.1-.3-.14-.47zM20.2 31c-.82-.65-1.52-1.45-2.35-2.1-.58-.26-1.23.3-1.5.77-.13.55.1 1.1.18 1.65.1.52.2 1.08.02 1.6-.6.46-.85-.64-1.12-1-.93-1.74-1.7-3.55-2.48-5.35-.4-.55-1.16-.5-1.76-.47-.5-.1-1.3.7-1.37-.1-1.57-4.05-3.14-8.08-4.7-12.12.93-.34 1.84-.8 2.82-1 .44.14-.35.55-.47.7-.48.5-.42 1.23-.2 1.83.27 1 .58 1.96.82 2.95.43 1.03 1.3 1.84 2.22 2.43.35.4 1.4-.1 1.2.66-.33.6.18.96.68 1.13.4.18.85.37 1.3.33.7-.3.2-1.16.22-1.7-.13-.5.36-1.56.88-.9.42.77.6 1.64 1.04 2.4.97 1.85 2.35 3.45 3.16 5.38.3.56.4 1.23.8 1.72.48-.08.38-.9.63-1.26.47-.58.12.68.15.97.05.7.64 1.2.7 1.87-.34.16-.6-.25-.87-.38zm15.08-6.45c-.65-.1 0-.98-.66-1.1-.57-.22-1.16-.53-1.8-.48-.62 0-.8 1-1.5.7-.54-.23-.86-.77-1.24-1.2-.44-.54-.68-1.23-.67-1.93-.05-1.1-.2-2.22-.36-3.32-.2-.44.27-.94.5-.33.42.78 1.65 1.1 2.32.43.82-.87 1.38-2.02 1.42-3.23.14-1.03.24-2.1-.16-3.1-.7-2.14-1.73-4.14-2.6-6.2-.28-.32-.07-1.14.4-.7.38.44.5 1.03.75 1.54 1.35 3.24 2.58 6.53 3.87 9.8.86 2.24 1.77 4.47 2.5 6.75.22.64-.58.9-.82 1.42-.33.3-.8-.17-.92.43-.14.4-.6.75-1 .5h-.02zM13.52 19.3c-.5.22-1.07-.13-.8-.7.03-.58.04-1.18.3-1.7.27-.1.68.44.8-.1.33-.56.27-1.45-.37-1.74-.7-.2-1.37.27-2.04.44-.54.2-1.15-.1-1.4-.6-.33-.5-.33-1.14-.17-1.7.08-.6-.88-.54-1-.66.43-.33.98-.45 1.47-.63.5-.02.64.6 1.14.6.6.1 1.2-.1 1.68-.48.2-.5-.42-1.36.47-1.45.48-.33.83.4 1.26.02.93-.48 1.87-.93 2.83-1.34.36-.28 1.28-.3.9.38-.34.66-1.16.68-1.77.9-.55.06-.42.77.1.62.78-.13 1.52-.45 2.26-.74.56-.24 1.08-.57 1.56-.95 1.23-.7 2.6-1.15 3.85-1.8.65-.2 1-.84 1.6-1.1.54-.04 1.44-.26 1.7.37-.03.67-.42 1.26-.82 1.78-.47.38-.66.95-.34 1.5.1.4-.4 1.12.36 1 .47.38 1.18.88 1.17 1.5-.44.35-1.07.08-1.58 0-.6-.13-1.17-.33-1.7-.64-.3-.54.72-.53.88-.33.22-.4-.3-.88 0-1.33.27-.42.05-1.28-.55-.9-.3.42-.32 1-.75 1.34-.5.6-1.2 1.06-1.96 1.25-.73.33-1.06 1.34-.6 2.02.2.72-.67.6-1 .24-.3-.15-.77-.65-.73 0-.07.64-.55 1.15-1.14 1.36-.7.23-.92-.7-1.34-1.08-.35-.68-.92-.16-1.25.24-1.08 1.24-1.55 2.85-2.4 4.22-.12.24-.43.17-.65.2z"/><path fill="#6f6e33" d="M19.86 37.8c.54-.48-.15-1.33.4-1.8.57-.26 1.17.2 1.68.43.25.2 1.14.43.43.55-.83.3-1.65.66-2.5.87-.08.03-.05-.05 0-.04zm14.57-6.2c.73-1.02 1.86-1.92 3.16-1.9.66.2 1.3-.05 1.72-.57.38-.25 1.14-.84 1.46-.24.1.33.56.92-.07.95-2.3.9-4.64 1.8-6.96 2.7.23-.3.46-.64.7-.96zm-18.58 1.13c-.98-1.74-1.8-3.56-2.57-5.4-.18-.54-.48-1.14-1.08-1.3-.58-.23-1.22-.36-1.7-.78-.35-.52-1.25-.46-1.35-1.2-.98-2.18-1.77-4.44-2.66-6.65-.47-1.17-.92-2.34-1.38-3.52.94-.34 1.85-.8 2.83-1 .44.14-.35.55-.47.7-.48.5-.42 1.24-.2 1.84.28 1.04.62 2.05.88 3.1.4 1 1.36 1.58 2.1 2.3.32.22.58.45.27.8-.2.4-.5.85.15.87.7.2 1.32.55 1.97.85.7.33 1.6-.06 1.8-.82.2-.65-.04-1.32-.1-1.97.03-.72.52.14.6.44.7 2.42 2.52 4.28 3.6 6.52.4.72.55 1.54 1 2.24.6-.13.7.6.68 1.06-.4.06-.76-.53-1.1-.77-.47-.4-.87-.9-1.42-1.2-.58-.1-1.12.4-1.4.88-.34.8-.03 1.7.27 2.46.27.54-.3 1.2-.72.53zm4.8-1.93c-.23-.1-.43-1.07-.07-.55.1.13.64 1.1.07.55zm14.6-6.84c-.67-.6-1.53-1-2.42-1-.6.18-1.14 1.18-1.8.54-.48-.4-.88-.9-1.23-1.42-.55-.93-.34-2.05-.52-3.08-.08-.7-.2-1.4-.28-2.1.2-.7.64.1.82.37.44.6 1.2 1.16 1.97.9.64-.3.94-1 1.34-1.53.43-.66.9-1.3 1.18-2.05.05-.63-.66-1.1-.4-1.74.1-.25.25-1.2.4-.54.28.72.6 1.44.73 2.2-.24.53.05 1.06.5 1.27.64 1.1 1.02 2.35 1.5 3.53.18.53.45 1.05.46 1.6-.2.5-.65.92-.6 1.53-.15.7-.4 1.4-.86 1.96-.33.16-.57-.3-.8-.46zM33.7 11.5c-.36-.2.16-.74.23-.22.2.3.05.64-.23.23zm-19.9 7.3c-.58-.42-.45-1.3-.1-1.84.36-.55.47-1.42-.1-1.9-.6-.42-1.15.24-1.74.27-.78.05-1.5-.4-2-1-.14-.66.5-1.17 1.06-1.4.8-.36 1.62-.64 2.42-.96-.15-.4-.56-1.06.03-1.3.56-.2 1.2.46 1.67-.1.52-.5 1.2-.73 1.84-1.03.5-.2 1-.4 1.54-.48.7.3-.16 1.13-.63 1.2-.4.18-1.57.18-1.25.83.56.23 1.15-.17 1.7-.3.92-.37 1.86-.77 2.57-1.48.64-.45 1.46-.5 2.14-.86 1.1-.5 2.1-1.17 3.23-1.6.7-.22 1.44.43 1.1 1.17 0 .66-.8 1-.7 1.67.23.54 0 1.15.3 1.67.2.47 1.22.92.8 1.43-.5.1-1-.08-1.47-.2-.45-.18-1-.27-1.32-.63.1-.44.72-.42.94-.2.34-.33-.3-.87.04-1.3.27-.44.06-1.37-.6-.92-.5.4-.45 1.12-.9 1.54-.47.54-1.14.87-1.82 1.03-.67.34-.93 1.23-.63 1.9.03.25-.4.36-.37.52-.44.03-.9-.64-1.22-.46-.08.53-.2 1.23-.8 1.4-.4-.02-.32-1.1-.74-.52-.23.64-.95-.07-1.1-.45-.32-.7-.97.2-1.27.5-.94 1.15-1.37 2.6-2.1 3.86-.17.13-.37-.05-.52-.1zm7.3-5.3c-.03-.46-.92-.66-.5-.06.15.2.58.73.72.5-.06-.16-.15-.3-.23-.45zM33 9.42c-.18-.17-.08-.6.07-.2.18.2.1.78-.07.24v-.03zm-.65-1.3c-.72-1.22-1.2-2.56-1.97-3.74-.2-.7.97-.5.87.12.53 1.22 1 2.46 1.4 3.73.08.53-.2 0-.3-.13zM8.74 12.55c.13-.26 1.05-.3.4-.06-.06 0-.47.25-.4.06z"/><path fill="#53684f" d="M20.33 37.54c.37-.24 1.24-.67 1.42-.4-.52.3-1.13.46-1.7.7-.57.16.2-.23.28-.3zm14.7-5.8c.6-.8 1.7-1.03 2.28-1.88.5-.3 1.2.16 1.6-.38.45-.4.96-.8 1.57-.87.4.17.43.7.6 1.07-.4.28-.98.38-1.45.6-1.45.56-2.9 1.17-4.38 1.64-.15.07-.4.06-.2-.15zm-16-1.78c-.53-.36-1-1.2-1.68-1.1-.48.23-1.1.57-1.14 1.16.08.44-.3 1.1-.64.48-.75-.8-.92-1.98-1.63-2.82-.27-.34-.43-.78-.32-1.2-.04-.67-.8-.8-1.34-.84-.58-.06-1.32-.08-1.6-.7-.2-.55-.7-.8-1.27-.76-.54-.16-.42-.76.07-.85.28-.46.78-.57 1.18-.17.77.45 1.72.88 2.6.5.7-.27 1.34-.9 1.3-1.7.04-.54-.38-1.3-.1-1.68.5.32.5 1 .77 1.5.96 2.4 2.87 4.28 3.75 6.72.23.4.28 1.15.77 1.3.5-.08.43.72.55 1.06-.07.33-.52-.32-.73-.43-.18-.15-.35-.32-.53-.47zm16.2-6c-.65-.6-1.5-1-2.4-1-.6.18-1.14 1.18-1.8.54-.48-.4-.88-.9-1.23-1.42-.55-.93-.34-2.05-.52-3.08-.08-.7-.2-1.4-.28-2.1.24-.74.67.2.9.48.43.56 1.2 1.1 1.93.74.7-.38 1.06-1.15 1.5-1.78.44-.68.96-1.38 1.02-2.2.02-.37-.28-1 .04-1.2.47.33.55 1.02.65 1.55-.15.5-.1 1.03.44 1.23.4.6.63 1.3.92 1.96.34.85.7 1.72.88 2.63-.08.37-.1.83-.1 1.13-.4.5-.22 1.2-.5 1.76-.2.44-.54 1.63-1.15 1.04-.1-.1-.2-.2-.3-.3zm-26.8-1.64c-.26-.43.4-.78.54-.25.46.46-.5.95-.53.25zm5.38-3.52c-.58-.42-.44-1.3-.12-1.83.37-.5.5-1.27 0-1.75-.36-.54-.95-.24-1.38 0-.66.2-1.5.1-1.94-.47-.3-.62.2-1.25.65-1.64.6-.5 1.37-.75 2.07-1.05.32-.43-.4-1.47.57-1.43.56.15 1.2.35 1.6-.22.58-.44 1.27-.68 1.92-.97.46-.1 1-.52 1.47-.27.23.65-.62 1.1-1.16 1.2-.43-.04-1.5.53-.7.8.68 0 1.3-.34 1.94-.56.77-.32 1.54-.7 2.12-1.28.64-.45 1.46-.5 2.14-.86 1.1-.5 2.1-1.17 3.23-1.6.7-.22 1.44.43 1.1 1.17 0 .66-.8 1-.7 1.67.23.54 0 1.15.3 1.67.2.47 1.22.92.8 1.43-.5.1-1-.08-1.47-.2-.45-.18-1-.27-1.32-.63.1-.44.72-.42.94-.2.34-.33-.3-.87.04-1.3.27-.44.06-1.37-.6-.92-.5.4-.45 1.12-.9 1.54-.47.54-1.14.87-1.83 1.03-.65.33-.92 1.2-.62 1.87-.06.6-.73-.27-.87-.52-.24-.6-.98-.7-1.26-.08-.44.57-.72 1.25-1.2 1.8-.7.23-.68-1.03-1.34-.9-.75.4-1.15 1.18-1.58 1.86-.5.9-.84 1.9-1.4 2.78-.17.02-.33-.07-.47-.14zm2.2-5c.43-.66-.6-.88-1.03-.6-.47.03-1.1.65-.44.94.47.3 1.23.23 1.46-.34zm8.2-3.22c.38-.54-.18-1.52-.85-1.1-.43.18-1.33.32-1.06.96.2.56.87.64 1.4.6.25-.04.4-.24.5-.46zM7.78 20.68c-.25-.54.4-.06.13.18-.06-.04-.1-.12-.12-.2zm-.67-1.7c-.14-.17-.27-.97.1-.47.18.15.4 1.08.03.76-.04-.1-.08-.18-.12-.27zm-1.5-3.84c-.1-.4-.46-.94-.4-1.28.33-.07 1.14-.68 1.06 0-.06.57-.04 1.14.02 1.72.12.5-.35.6-.44.1-.1-.18-.15-.36-.23-.54z"/><path fill="#4a594a" d="M20.56 37.44c.27-.32 1.14-.52 1.26-.32-.43.23-1.03.53-1.44.52.04-.08.12-.14.18-.2zm14.47-5.67c.7-.7 1.54-1.26 2.43-1.7.55-.1 1.23.44 1.66-.15.46-.43.8-.98 1.35-1.32.4.16.53.8.56 1.14-1.93.7-3.82 1.54-5.8 2.15-.1.04-.37.06-.2-.13zm-16.15-2.03c-.48-.35-.9-1.15-1.57-1-.75.3-1.26 1.04-1.5 1.8-.12.5-.42-.37-.62-.53-.33-.44-.56-.95-.7-1.5-.23-.6-.87-1-.9-1.68.22-.62-.4-1.13-.98-1.13-.6-.13-1.33-.04-1.8-.53-.27-.52-.65-1.1-1.32-.97-.52-.07-.62-.72-.07-.82.3-.4.76-.7 1.18-.26.8.48 1.8.88 2.75.6.63-.14 1.2-.6 1.3-1.28.12-.56.1-1.14.13-1.7.4 1.07.9 2.1 1.52 3.07 1.03 1.63 2.2 3.2 2.83 5.04.2.4.3.92.75 1.06.42.17.4 1.05-.13.57-.3-.2-.56-.48-.84-.73zm15.52-6.77c-.64-.17-1.4-.48-2.02-.05-.33.33-.73 1.12-1.27.62-.56-.43-1.02-1-1.38-1.6-.42-.9-.3-1.95-.36-2.9.05-.4-.47-1.06-.1-1.28.58.48.7 1.35 1.32 1.82.57.3.67.96 1.08 1.4.48.4.64-.27.68-.64.23-.5.95-.6.85-1.28.22-.55 1.2-.16 1.37-.87.13-.54-.57-1.22.03-1.62.43-.12.77-.44 1.14-.7.55 1.56 1.1 3.1 1.67 4.65-.4.28-1.1.5-1 1.13.07.56.2 1.52-.57 1.64-.48-.02-.96-.2-1.43-.33zm1.28-2.4c-.32-.4-.9-1.05-1.45-.74-.43.5.18 1.15.72 1.2.28.07.86-.08.73-.46zm-1.36-7.08c-.3-.34.2-.95.36-.34.22.27-.03 1.06-.36.33zM8.44 22.3c-.27-.43.4-.78.53-.25.46.46-.5.95-.53.25zm5.78-3.75c-.75-.2-.28-1.15-.13-1.64.1-.48.54-1.06.46-1.47-.5-.35-1.05-.94-1.72-.73-.6.13-1.24.6-1.86.28-.57-.16-.93-.82-.47-1.3.44-.57 1.2-.7 1.8-1 .7-.2 1.25-.6 1.6-1.2.46-.36 1.03-.54 1.5-.88.9-.55 1.8-1.2 2.9-1.3.4.3-.38.64-.63.8-.53.28-1.1.48-1.6.83.3.53 1.1.36 1.57.17 1.14-.37 2.2-.9 3.2-1.6 1.2-.66 2.5-1.17 3.8-1.7.63-.27 1.28-.5 1.94-.7.75.02.5 1.03.2 1.43-.24.66-.92.6-1.48.63-.5 0-.72 1.18-1.16.48-.34-.64-1-.02-1.48.08-.83.23-.36 1.3.34 1.3.28.07 1.14-.4 1 .16-.35.43-.94.56-1.44.74-.38.18-1.16.12-.87.74 0 .4.25 1.13-.1 1.32-.4-.3-.18-1.16-.82-1.22-.78.06-1.18.8-1.53 1.4-.24.36-.53.94-1.03.85-.62-.13-.27-1.2-.8-1.22-.44.4-.8.9-1.37 1.17-.72.26-.38 1-.64 1.55-.3.7-.55 1.46-1.1 2.02-.02 0-.05.02-.08.03zM16 13.8c.43-.66-.6-.88-1.03-.6-.47.03-1.1.65-.44.94.47.3 1.23.23 1.46-.34zm-8.22 6.87c-.25-.53.4-.05.13.2-.06-.05-.1-.13-.12-.2zM7.1 19c-.14-.2-.27-1 .1-.5.18.15.4 1.08.03.76-.04-.1-.08-.18-.12-.27zm18.12-6.76c-.67-.38.7-.37.38.12-.14 0-.26-.06-.38-.12zm-19.6 2.9c-.12-.4-.48-.94-.43-1.28.33-.07 1.14-.68 1.06 0-.06.57-.04 1.14.02 1.72.12.5-.35.6-.44.1-.1-.18-.15-.36-.23-.54z"/><path fill="#4d5232" d="M20.56 37.44c.27-.32 1.14-.52 1.26-.32-.43.23-1.03.53-1.44.52.04-.08.12-.14.18-.2zm14.47-5.67c.6-.6 1.3-1.13 2.1-1.46.6-.13 1.2.13 1.77.25-1.28.48-2.53 1.04-3.84 1.42-.15 0-.1-.15-.03-.2zm4.03-1.36c.5-.47 1-.92 1.58-1.3.66.08.16.97-.34.9-.4.17-.8.36-1.24.4zM15.18 30c-.38-.46-.55-1.05-.74-1.6-.28-.56-.88-.98-.86-1.64.22-.65-.5-1.08-1.05-1.08-.58-.1-1.3-.04-1.73-.5-.27-.53-.65-1.1-1.32-.98-.53-.08-.6-.72-.07-.83.33-.46.85-.63 1.28-.2.84.5 1.88.84 2.83.47.5-.17.9-.47 1.28-.82.6.03.9.65 1.24 1.04.82 1.1 1.55 2.28 2.2 3.5.3.55-.22.92-.72.93-.67.3-1.3.83-1.58 1.53 0 .27-.14 1.04-.48.53-.1-.1-.18-.23-.26-.35zm20.2-7.25c-.5-.38.24-1.3.7-1.22.37.4.2 1.46-.5 1.3l-.1-.02-.1-.05zm-1.83-.47c-.66-.42.6-.9.8-.3.24.43-.6.53-.8.3zm2.12-2c-.38-.58-.48-1.27-.53-1.94-.3-.5-.4-1.1-.06-1.6.15-.4.58-1.03.76-.32.62 1.3 1.04 2.7 1.54 4.04-.2.25-.8.6-1.2.53-.26-.16-.34-.5-.5-.72zm-5.35 1.56c-.55-.38-.7-1.12-.6-1.75.58-.4.7.74.86 1.12.07.34.8.7.56.94-.3.07-.6-.16-.82-.32zm2.6-1.18c-.25-.67.82-.18.34.2-.15.08-.3-.07-.34-.2zm1.4-7.17c-.3-.34.2-.95.36-.34.22.27-.03 1.06-.36.33zM8.44 22.3c-.27-.43.4-.78.53-.25.46.46-.5.95-.53.25zm-.66-1.65c-.25-.53.4-.05.13.2-.06-.05-.1-.13-.12-.2zM7.1 19c-.14-.2-.27-1 .1-.5.18.15.4 1.08.03.76-.04-.1-.08-.18-.12-.27zm11.47-4.54c-.63.07-.57-1.33-1.2-.8-.75.58-1.48 1.44-2.52 1.42-.67-.03-1.15-.64-1.8-.7-.57.14-1.03.57-1.64.53-.62.16-1.37-.36-1-1.04.33-.7 1.2-.68 1.82-.95.85-.26 1.7-.6 2.4-1.17.54-.36 1.18-.27 1.78-.2.75.1 1.5-.08 2.17-.42.74-.3 1.44-.7 2.07-1.2 1.75-.94 3.58-1.73 5.43-2.46.6-.37 1.15.4.6.83-.52.58-1.35.67-1.95 1.14-.32.8-.8-.4-1.33-.06-.44.28-1.4.4-1.1 1.12.2.55.82.53 1.28.62.38.32-.55.4-.75.52-.66.2-1.34.36-1.94.7-.3.53-.97.7-1.24 1.23-.24.43-.44 1.17-1.1.93zM16 13.8c.43-.66-.6-.88-1.03-.6-.47.03-1.1.65-.44.94.47.3 1.23.23 1.46-.34zM5.6 15.14c-.1-.4-.46-.94-.4-1.28.33-.07 1.14-.68 1.06 0-.06.57-.04 1.14.02 1.72.12.5-.35.6-.44.1-.1-.18-.15-.36-.23-.54z"/><path fill="#2e301f" d="M35.73 31.63c.25-.12.6-.38.85-.25-.18.07-.9.46-.85.25zm4.25-1.66c.25-.1.6-.38.85-.25-.18.08-.9.47-.85.25zm-25.12-1.3c-.4-1.2-.96-2.35-1.3-3.58.16-.47.94-.32 1.04-.9.15-.56.8-1.12 1.25-.5.64.7 1.08 1.56 1.6 2.34.35.56.74 1.13.86 1.78-.14.6-1 .05-1.34.52-.52.37-.93.95-1.57 1.1-.38-.03-.4-.5-.54-.77zm15.1-7.04c-.15-.3-.4-1.16.02-1.16.3.3.76 1.14.2 1.3-.1-.03-.15-.08-.2-.14zM18.3 13.58c-.2-.52-1.16-1.04-1.24-.17-.07.28-.58 1.03-.76.54.2-.5.12-1.37-.62-1.1-.6.08-1.43.15-1.7.8-.27.53.4.77.6 1.05-.6-.2-1.25-.78-1.9-.43-.37.35-1.45.58-1.28-.2.3-.58 1-.8 1.53-1.12.95-.47 1.9-1 2.95-1.23.7-.03 1.4 0 2.07-.2.95-.23 1.88-.62 2.65-1.24.3-.1-.22.5-.22.67-.27.48-.15 1.07-.52 1.5-.3.48-.66.96-1.14 1.28-.16.06-.36 0-.42-.15zm3.6-1.94c-.5-.17-.53-1.36.1-.8.4.12.97.72.24.8-.1.02-.23.03-.35 0zm2.2-2.55c-.4-.5.65-.7.97-.87.35-.1.92-.46 1.2-.23-.2.55-.92.62-1.38.9-.25.1-.5.2-.78.2zM5.53 14.77c-.18-.18-.08-.6.07-.2.18.2.08.77-.07.23v-.02z"/></g><path fill="none" stroke="#fff" d="M3.64 12.98L31.6 2.2l13.06 32.7-28.8 10.72L3.65 12.98z"/></g></svg>