<svg xmlns="http://www.w3.org/2000/svg" width="48" height="48" xmlns:xlink="http://www.w3.org/1999/xlink"><defs><linearGradient id="a"><stop offset="0" stop-color="#720000"/><stop offset="1" stop-color="#720000" stop-opacity="0"/></linearGradient><linearGradient id="d" x1="27.515" x2="28.178" y1="18.762" y2="21.917" xlink:href="#a" gradientUnits="userSpaceOnUse" gradientTransform="matrix(1.21 -.123 .123 1.216 7.951 17.943)"/><linearGradient id="b"><stop offset="0" stop-color="#efa424"/><stop offset="1" stop-color="#ef2929"/></linearGradient><linearGradient id="c" x1="23.196" x2="27.49" y1="7.562" y2="22.108" xlink:href="#b" gradientUnits="userSpaceOnUse" gradientTransform="matrix(1.215 .051 -.05 1.221 10.498 12.934)"/><linearGradient x1="237.088" x2="280.796" y1="383.691" y2="383.691" gradientUnits="userSpaceOnUse"><stop offset=".006" stop-color="#fff"/><stop offset=".421" stop-color="#C3CBD4"/><stop offset="1" stop-color="#A1A8B2"/></linearGradient><linearGradient x1="245.926" x2="275.676" y1="390.665" y2="372.915" gradientUnits="userSpaceOnUse"><stop offset="0" stop-color="#fff"/><stop offset=".528" stop-color="#DBE2E6"/><stop offset="1" stop-color="#B3BDCA"/></linearGradient><linearGradient x1="237.088" x2="280.796" y1="373.31" y2="373.31" gradientUnits="userSpaceOnUse"><stop offset=".006" stop-color="#fff"/><stop offset=".421" stop-color="#C3CBD4"/><stop offset="1" stop-color="#A1A8B2"/></linearGradient><linearGradient x1="245.925" x2="275.675" y1="380.283" y2="362.533" gradientUnits="userSpaceOnUse"><stop offset="0" stop-color="#fff"/><stop offset=".528" stop-color="#DBE2E6"/><stop offset="1" stop-color="#B3BDCA"/></linearGradient><linearGradient id="e" x1="23.196" x2="27.49" y1="7.562" y2="22.108" xlink:href="#b" gradientUnits="userSpaceOnUse" gradientTransform="matrix(-1.215 -.051 .05 -1.221 37.904 51.828)"/><linearGradient id="f" x1="27.515" x2="28.178" y1="18.762" y2="21.917" xlink:href="#a" gradientUnits="userSpaceOnUse" gradientTransform="matrix(-1.21 .123 -.123 -1.216 40.451 46.819)"/></defs><g><path fill="#3465a4" stroke="#31343a" stroke-width=".79818" d="M24.07 20.96l23.2 11.66-23.2 13.4-23.2-13.4 23.2-11.66z"/><path fill="none" stroke="#fff" stroke-opacity=".502" stroke-width=".8" d="M24.03 21.86l21.43 10.8L24.1 45.15 2.4 32.6l21.63-10.74z"/><path fill="#73d216" stroke="#31343a" stroke-width=".79818" d="M24.07 11.86l23.2 11.66-23.2 13.4-23.2-13.4 23.2-11.66z"/><path fill="none" stroke="#fff" stroke-opacity=".502" stroke-width=".8" d="M24.1 12.75l21.44 10.8-21.36 12.5-21.7-12.56L24.1 12.74z"/><path fill="#ef2929" stroke="#31343a" stroke-width=".79818" d="M24.14 2.18l23.2 11.67-23.2 13.4-23.2-13.4 23.2-11.67z"/><path fill="none" stroke="#fff" stroke-opacity=".502" stroke-width=".8" d="M24.18 3.07l21.43 10.8-21.35 12.5L2.55 13.8 24.17 3.08z"/><path fill="url(#c)" fill-rule="evenodd" stroke="url(#d)" stroke-width=".8" d="M40.33 42.8c5.1-7.44 1.82-11.58-1.78-13.65l-2.6 1.1-.23-5.95c3.4.07 8.64.98 11.4 2.2L44 27.74c3.94 3.35 4.65 9.4 2 12.74l-5.67 2.32z"/><path fill="url(#e)" fill-rule="evenodd" stroke="url(#f)" stroke-width=".8" d="M8.07 21.97c-5.1 7.43-1.82 11.57 1.8 13.65l2.57-1.1.24 5.94c-3.38-.07-8.64-.98-11.4-2.2l3.12-1.23c-3.94-3.34-4.64-9.4-2-12.73l5.67-2.33z"/></g></svg>