<svg xmlns="http://www.w3.org/2000/svg" width="48" height="48" xmlns:xlink="http://www.w3.org/1999/xlink"><defs><linearGradient id="d"><stop offset="0" stop-color="#96b6de"/><stop offset="1" stop-color="#3465a4"/></linearGradient><linearGradient id="c"><stop offset="0" stop-color="#12294a"/><stop offset="1" stop-color="#c0d8ff"/></linearGradient><linearGradient id="b"><stop offset="0" stop-color="#dbeeff"/><stop offset="1" stop-color="#fff" stop-opacity="0"/></linearGradient><linearGradient><stop offset="0" stop-color="#12294a"/><stop offset="1" stop-color="#12294a" stop-opacity="0"/></linearGradient><linearGradient id="a"><stop offset="0" stop-color="#fff"/><stop offset="1" stop-color="#b6cce8"/></linearGradient><linearGradient id="h" x1="24.967" x2="25.158" y1="9.139" y2="14.846" xlink:href="#a" gradientUnits="userSpaceOnUse"/><linearGradient id="f" x1="20.638" x2="20.607" y1="8.553" y2="14.26" xlink:href="#a" gradientUnits="userSpaceOnUse"/><linearGradient id="i" x1="25.254" x2="26.82" y1="15.448" y2="24.994" xlink:href="#b" gradientUnits="userSpaceOnUse"/><linearGradient id="e" x1="13.793" x2="17.355" y1="23.95" y2="20.111" xlink:href="#c" gradientUnits="userSpaceOnUse"/><linearGradient id="g" x1="28.655" x2="30.024" y1="18.958" y2="24.867" xlink:href="#d" gradientUnits="userSpaceOnUse"/></defs><g><path fill="url(#e)" stroke="#204a87" stroke-width=".25" d="M8.05 15.14l2.23 2.64-.08-1.32 2.45 2.8-.2-4.9 2.8 3.02.17 4.74 2.98 3.4.1 3.28-3-3.56-.65.22-2.02-2.4v-.67l-2.5-2.95V18.4l-2.37-2.73z" color="#000" stroke-linejoin="bevel" overflow="visible" enable-background="accumulate"/><path fill="#12294a" stroke="#204a87" stroke-width=".25" d="M6.77 15.9l-.7-.93.04 1.14z" color="#000" stroke-linejoin="bevel" overflow="visible" enable-background="accumulate"/><path fill="#12294a" stroke="#204a87" stroke-width=".25" d="M16.2 13.56l2.86-.6-2.9-2.9z" color="#000" stroke-linejoin="bevel" overflow="visible" enable-background="accumulate"/><path fill="url(#f)" stroke="#afc8e4" stroke-width=".25" d="M19.06 12.95l-.22-5.84 3.12 2.64.1 6.02z" color="#000" stroke-linejoin="bevel" overflow="visible" enable-background="accumulate"/><path fill="#12294a" stroke="#204a87" stroke-width=".25" d="M22.14 15.76l3.24 2.9-.04 5.1-3.25-3.3z" color="#000" stroke-linejoin="bevel" overflow="visible" enable-background="accumulate"/><path fill="#12294a" stroke="#204a87" stroke-width=".25" d="M18.58 32.18l-.1-2.9 3.3 3.82v3.2z" color="#000" stroke-linejoin="bevel" overflow="visible" enable-background="accumulate"/><path fill="#12294a" stroke="#204a87" stroke-width=".25" d="M31.84 26.3v-1.36l3.82 3.55-.1 1.3z" color="#000" stroke-linejoin="bevel" overflow="visible" enable-background="accumulate"/><path fill="#729fcf" stroke="#204a87" stroke-width=".25" d="M11.56 34.25l7.06-2.02 3.16 4-7.24 2.14z" color="#000" stroke-linejoin="bevel" overflow="visible" enable-background="accumulate"/><path fill="#729fcf" stroke="#204a87" stroke-width=".25" d="M28.85 14.44l5.88-1.27-.17 3.77-2.37.57z" color="#000" stroke-linejoin="bevel" overflow="visible" enable-background="accumulate"/><path fill="url(#g)" stroke="#204a87" stroke-width=".25" d="M11.6 34.3l-.04-3.66 6.98-1.84-.05-3.3 6.84-1.7.04-5.1 6.76-1.54-.22 4.35 6.4-1.57-.25 3.56-6.2 1.6-.03 1.24-6.2 1.63-7.15 1.5.08 2.84z" color="#000" stroke-linejoin="bevel" overflow="visible" enable-background="accumulate"/><path fill="#729fcf" stroke="#204a87" stroke-width=".25" d="M25.74 27.92l6.1-1.62 3.73 3.55-6.72 1.9z" color="#000" stroke-linejoin="bevel" overflow="visible" enable-background="accumulate"/><path fill="#729fcf" stroke="#204a87" stroke-width=".25" d="M18.58 29.37l6.76-1.9 3.42 3.7-6.93 1.9z" color="#000" stroke-linejoin="bevel" overflow="visible" enable-background="accumulate"/><path fill="#729fcf" stroke="#204a87" stroke-width=".25" d="M40.4 25.3l3.42-1.02 4.17 3.3-6.02 1.62z" color="#000" stroke-linejoin="bevel" overflow="visible" enable-background="accumulate"/><path fill="#3465a4" stroke="#204a87" stroke-width=".25" d="M14.63 40.92l-.1-2.63 7.2-2.03V33.1l7.03-2.02.05.66 6.8-1.97.06-1.32 6.45-1.76-.25 2.5 6.05-1.63-.26 3.43z" color="#000" stroke-linejoin="bevel" overflow="visible" enable-background="accumulate"/><path fill="#729fcf" stroke="#204a87" stroke-width=".25" d="M31.92 25.02l6.2-1.62 4 3.34-6.46 1.7z" color="#000" stroke-linejoin="bevel" overflow="visible" enable-background="accumulate"/><path fill="#3465a4" stroke="#204a87" stroke-width=".25" d="M38.47 23.7l5.57-1.44-.22 2.1-3.42.93z" color="#000" stroke-linejoin="bevel" overflow="visible" enable-background="accumulate"/><path fill="#729fcf" stroke="#204a87" stroke-width=".25" d="M.2 17.38l1.66-.4.13 2.9z" color="#000" stroke-linejoin="bevel" overflow="visible" enable-background="accumulate"/><path fill="#729fcf" stroke="#204a87" stroke-width=".25" d="M1.8 17.07l6.1-1.3 2.43 2.67-6.6 1.36z" color="#000" stroke-linejoin="bevel" overflow="visible" enable-background="accumulate"/><path fill="#729fcf" stroke="#204a87" stroke-width=".25" d="M3.96 20.9l6.32-1.45 2.5 2.94-6.67 1.53z" color="#000" stroke-linejoin="bevel" overflow="visible" enable-background="accumulate"/><path fill="#729fcf" stroke="#204a87" stroke-width=".25" d="M6.25 24.67c.17 0 6.58-1.45 6.58-1.45l2.02 2.24-6.1 2.46z" color="#000" stroke-linejoin="bevel" overflow="visible" enable-background="accumulate"/><path fill="#729fcf" stroke="#204a87" stroke-width=".25" d="M8.66 26.96l6.9-1.67 2.98 3.5-7.03 1.84z" color="#000" stroke-linejoin="bevel" overflow="visible" enable-background="accumulate"/><path fill="#12294a" stroke="#204a87" stroke-width=".25" d="M.2 17.38l1.88 2.64-.22-2.95 1.97 2.77.1 1.1 2.27 3 .05.73 2.54 3.38-.1-1.1 2.86 3.6.04 3.7 2.9 4.04.1 2.62L.4 19.67z" stroke-linejoin="bevel"/><path fill="#3465a4" stroke="#204a87" stroke-width=".25" d="M6.2 23.93l6.67-1.45-.04.83-6.58 1.42z" color="#000" stroke-linejoin="bevel" overflow="visible" enable-background="accumulate"/><path fill="#3465a4" stroke="#204a87" stroke-width=".25" d="M3.8 19.75l6.62-1.36-.05 1.13-6.4 1.45z" color="#000" stroke-linejoin="bevel" overflow="visible" enable-background="accumulate"/><path fill="#729fcf" stroke="#204a87" stroke-width=".25" d="M15.3 17.25l6.8-1.5-.05 4.7-6.6 1.6z" color="#000" stroke-linejoin="bevel" overflow="visible" enable-background="accumulate"/><path fill="#9dbcde" stroke="#204a87" stroke-width=".25" d="M15.5 22.08l6.68-1.62 3.2 3.38-6.93 1.7z" color="#000" stroke-linejoin="bevel" overflow="visible" enable-background="accumulate"/><path fill="#9dbcde" stroke="#204a87" stroke-width=".25" d="M32.2 17.56l2.45-.62 3.73 3-6.4 1.57z" color="#000" stroke-linejoin="bevel" overflow="visible" enable-background="accumulate"/><path fill="#729fcf" stroke="#204a87" stroke-width=".25" d="M38.3 19.93l2-.53 3.83 2.86-5.58 1.45-.4-.35z" color="#000" stroke-linejoin="bevel" overflow="visible" enable-background="accumulate"/><path fill="#c4d7eb" stroke="#204a87" stroke-width=".25" d="M22.1 15.67l6.44-1.54 3.6 3.12-6.67 1.45z" color="#000" stroke-linejoin="bevel" overflow="visible" enable-background="accumulate"/><path fill="#c4d7eb" stroke="#204a87" stroke-width=".25" d="M12.48 14.4l6.58-1.4 3 2.7-6.86 1.68z" color="#000" stroke-linejoin="bevel" overflow="visible" enable-background="accumulate"/><path fill="#729fcf" stroke="#204a87" stroke-width=".25" d="M10.24 16.5l2.28-.57.13 3.38z" color="#000" stroke-linejoin="bevel" overflow="visible" enable-background="accumulate"/><path fill="#729fcf" stroke="#204a87" stroke-width=".25" d="M8.1 15.14l4.47-.92-.1 1.8-2.23.53v1.14z" color="#000" stroke-linejoin="bevel" overflow="visible" enable-background="accumulate"/><path fill="#729fcf" stroke="#204a87" stroke-width=".25" d="M6.9 16.02l-.87-1.05 5.7-1.14.4.43L8 15.2v.56z" color="#000" stroke-linejoin="bevel" overflow="visible" enable-background="accumulate"/><path fill="#c4d7eb" stroke="#204a87" stroke-width=".25" d="M16.25 10.18l2.68-.66.1 3.43z" color="#000" stroke-linejoin="bevel" overflow="visible" enable-background="accumulate"/><path fill="#fff" stroke="#afc8e4" stroke-width=".25" d="M18.93 7.15l6.4-1.2 3.3 2.47L22 9.74z" color="#000" stroke-linejoin="bevel" overflow="visible" enable-background="accumulate"/><path fill="#c4d7eb" stroke="#204a87" stroke-width=".25" d="M28.6 11.2l2.75-.67 3.47 2.64-5.92 1.27-.4-.4z" color="#000" stroke-linejoin="bevel" overflow="visible" enable-background="accumulate"/><path fill="url(#h)" stroke="#afc8e4" stroke-width=".25" d="M22.14 15.7l-.18-5.96 6.76-1.32-.22 5.76z" color="#000" stroke-linejoin="bevel" overflow="visible" enable-background="accumulate"/><path fill="url(#i)" d="M12.48 14.46l.15 3.7.65-1.63.3 5 .66-3.78.46 3.73.65-2.27 1.06 1.37.77-2.52 1.1 2.63.92-3.2.85 2.9 1.1-3.4 1.02 2.18.86-1.2.46 2.82.84-1.77 1.12 2.8 1.1-1.58L28 23.6l.6-4.6 1.27 3.65.4-3.64.8 1.12 1.07-1.57-.1-1.36-1.4-1.32.44-1 1.32 1.75.6-2.22.9 1.02.82-1.16-.05-1.1-5.76 1.25L32 17.3l-6.67 1.5-3.23-3.12-6.87 1.76z"/></g></svg>