<svg xmlns="http://www.w3.org/2000/svg" width="48" height="48"><g stroke-width=".25"><path fill="#729fcf" stroke="#204a87" d="M.2 10.63L32.68 4.7l2.3 1.5-33.36 6.46z"/><path fill="#edd400" stroke="#917600" d="M1.9 14.73L35.04 8.1l2.45 1.68-34.05 7.07z" color="#000" overflow="visible" enable-background="accumulate"/><path fill="#fdf086" stroke="#917600" d="M4.2 22.4l33.05-7.72 2.64 2.08-34.1 8.3z" color="#000" overflow="visible" enable-background="accumulate"/><path fill="#edd400" stroke="#917600" d="M6.38 29.25l33.18-8.72 2.78 2.26-34.22 9.37z" color="#000" overflow="visible" enable-background="accumulate"/><path fill="#b0cf72" stroke="#204a87" d="M8.3 33.82l33.9-9.57 3.02 2.45L10.2 37.12z" color="#000" overflow="visible" enable-background="accumulate"/><path fill="#729fcf" stroke="#204a87" d="M10.34 38.53l34.7-10.5 3.2 2.6L12.4 42.15z" color="#000" overflow="visible" enable-background="accumulate"/><path fill="#0f223d" stroke="#204a87" d="M.2 10.58l1.5 2.17.34 1.93L3.4 16.9l.86 5.6 1.5 2.6.66 4.2 1.75 2.87.14 1.7 1.94 3.25.1 1.46-7.88-13.7z" color="#000" overflow="visible" enable-background="accumulate"/><path fill="#3465a4" stroke="#204a87" d="M1.7 12.7l33.34-6.45-.15 1.84-32.86 6.58z" color="#000" overflow="visible" enable-background="accumulate"/><path fill="#c4a000" stroke="#917600" d="M3.4 16.9L37.6 9.83l-.42 4.9L4.3 22.4z" color="#000" overflow="visible" enable-background="accumulate"/><path fill="#e5bb00" stroke="#917600" d="M5.76 25.05L40 16.8l-.5 3.78-33.03 8.67z" color="#000" overflow="visible" enable-background="accumulate"/><path fill="#c4a000" stroke="#917600" d="M8.12 32.17l34.32-9.38-.24 1.45-33.9 9.62z" color="#000" overflow="visible" enable-background="accumulate"/><path fill="#3465a4" stroke="#204a87" d="M10.24 37.07l34.98-10.32-.2 1.32L10.35 38.5z" color="#000" overflow="visible" enable-background="accumulate"/></g></svg>