<svg xmlns="http://www.w3.org/2000/svg" width="48" height="48" xmlns:xlink="http://www.w3.org/1999/xlink"><defs><linearGradient x1="-2238.106" x2="-2226.048" y1="799.509" y2="850.939" gradientTransform="matrix(.182 1.081 -.78 .253 1070.246 2219.892)" gradientUnits="userSpaceOnUse"><stop offset="0" stop-color="#fff"/><stop offset="1" stop-color="#B8C0CA"/></linearGradient><linearGradient x1="45.409" x2="3.606" y1="524.394" y2="515.824" gradientUnits="userSpaceOnUse" gradientTransform="matrix(.801 -.003 .002 1.11 -2.56 -567.974)"><stop offset="0" stop-color="#fff"/><stop offset="1" stop-color="#B8C0CA"/></linearGradient><linearGradient x1="-2251.493" x2="-2239.436" y1="802.65" y2="854.077" gradientTransform="matrix(.182 1.081 -.78 .253 1070.246 2219.892)" gradientUnits="userSpaceOnUse"><stop offset="0" stop-color="#fff"/><stop offset="1" stop-color="#B8C0CA"/></linearGradient><linearGradient x1="776.865" x2="777.995" y1="541.731" y2="543.105" gradientUnits="userSpaceOnUse"><stop offset=".247" stop-color="#fff"/><stop offset=".301" stop-color="#F3F4F5"/><stop offset=".508" stop-color="#CBD0D6"/><stop offset=".701" stop-color="#AFB9C2"/><stop offset=".871" stop-color="#9EAAB6"/><stop offset="1" stop-color="#99A5B3"/></linearGradient><linearGradient x1="779.324" x2="780.542" y1="541.802" y2="543.042" gradientUnits="userSpaceOnUse"><stop offset=".247" stop-color="#fff"/><stop offset=".301" stop-color="#F3F4F5"/><stop offset=".508" stop-color="#CBD0D6"/><stop offset=".701" stop-color="#AFB9C2"/><stop offset=".871" stop-color="#9EAAB6"/><stop offset="1" stop-color="#99A5B3"/></linearGradient><linearGradient x1="781.786" x2="783.049" y1="541.8" y2="543.019" gradientUnits="userSpaceOnUse"><stop offset=".247" stop-color="#fff"/><stop offset=".301" stop-color="#F3F4F5"/><stop offset=".508" stop-color="#CBD0D6"/><stop offset=".701" stop-color="#AFB9C2"/><stop offset=".871" stop-color="#9EAAB6"/><stop offset="1" stop-color="#99A5B3"/></linearGradient><linearGradient x1="777.438" x2="777.438" y1="541.401" y2="543.071" gradientUnits="userSpaceOnUse"><stop offset=".455" stop-color="#D0D5DA"/><stop offset=".826" stop-color="#99A5B3"/><stop offset="1" stop-color="#9DA9B6"/></linearGradient><linearGradient x1="779.938" x2="779.938" y1="541.401" y2="543.071" gradientUnits="userSpaceOnUse"><stop offset=".455" stop-color="#D0D5DA"/><stop offset=".826" stop-color="#99A5B3"/><stop offset="1" stop-color="#9DA9B6"/></linearGradient><linearGradient x1="782.435" x2="782.435" y1="541.401" y2="543.071" gradientUnits="userSpaceOnUse"><stop offset=".455" stop-color="#D0D5DA"/><stop offset=".826" stop-color="#99A5B3"/><stop offset="1" stop-color="#9DA9B6"/></linearGradient><linearGradient x1="771.22" x2="771.22" y1="561.378" y2="544.373" gradientUnits="userSpaceOnUse"><stop offset="0" stop-color="#fff"/><stop offset=".41" stop-color="#fff"/><stop offset=".592" stop-color="#FBFCFA"/><stop offset=".775" stop-color="#EEEFEB"/><stop offset=".957" stop-color="#D9DCD5"/><stop offset="1" stop-color="#D3D7CF"/></linearGradient><linearGradient x1="771.219" x2="771.219" y1="542.046" y2="562.616" gradientUnits="userSpaceOnUse"><stop offset="0" stop-color="#ADBBCA"/><stop offset=".348" stop-color="#fff"/><stop offset=".674" stop-color="#fff"/><stop offset=".759" stop-color="#FBFCFC"/><stop offset=".844" stop-color="#EFF2F5"/><stop offset=".929" stop-color="#DAE2E8"/><stop offset="1" stop-color="#C3D2DD"/></linearGradient><linearGradient x1="771.219" x2="771.219" y1="540.617" y2="562.616" gradientUnits="userSpaceOnUse"><stop offset="0" stop-color="#E8ECED"/><stop offset=".348" stop-color="#fff"/><stop offset=".674" stop-color="#fff"/></linearGradient><linearGradient x1="784.5" x2="784.5" y1="586.057" y2="551.017" gradientUnits="userSpaceOnUse" gradientTransform="translate(-757.06 -539.628)"><stop offset="0" stop-color="#709EC3"/><stop offset=".383" stop-color="#72A0C4"/><stop offset=".521" stop-color="#79A3C6"/><stop offset=".619" stop-color="#83ABCA"/><stop offset=".698" stop-color="#94B5D0"/><stop offset=".766" stop-color="#A9C3D9"/><stop offset=".827" stop-color="#C6D6E5"/><stop offset=".88" stop-color="#E5ECF2"/><stop offset=".916" stop-color="#fff"/></linearGradient><linearGradient x1="784.5" x2="784.5" y1="556.36" y2="586.157" gradientUnits="userSpaceOnUse" gradientTransform="translate(-757.06 -539.628)"><stop offset="0" stop-color="#6395BF"/><stop offset=".09" stop-color="#CCDBE8"/><stop offset=".674" stop-color="#fff"/><stop offset=".728" stop-color="#FBFDFE"/><stop offset=".781" stop-color="#EFF5F8"/><stop offset=".835" stop-color="#DBEAF2"/><stop offset=".889" stop-color="#BED9E8"/><stop offset=".943" stop-color="#9AC6DC"/><stop offset=".997" stop-color="#6FAFCE"/><stop offset="1" stop-color="#6CADCD"/></linearGradient><linearGradient x1="800.531" x2="800.531" y1="556.321" y2="557.73" gradientUnits="userSpaceOnUse"><stop offset=".455" stop-color="#D9ADAE"/><stop offset=".944" stop-color="#CB1009"/></linearGradient><linearGradient x1="799.813" x2="801.373" y1="556.137" y2="558.064" gradientUnits="userSpaceOnUse"><stop offset=".247" stop-color="#fff"/><stop offset=".34" stop-color="#E8C8B7"/><stop offset=".472" stop-color="#CE896F"/><stop offset=".599" stop-color="#BA5942"/><stop offset=".719" stop-color="#AB3825"/><stop offset=".829" stop-color="#A22214"/><stop offset=".926" stop-color="#9B150B"/><stop offset="1" stop-color="#991109"/></linearGradient><linearGradient x1="797.254" x2="797.254" y1="556.27" y2="557.833" gradientUnits="userSpaceOnUse"><stop offset=".455" stop-color="#A0C6DE"/><stop offset=".944" stop-color="#3165A1"/></linearGradient><linearGradient x1="796.481" x2="797.996" y1="556.142" y2="557.876" gradientUnits="userSpaceOnUse"><stop offset=".247" stop-color="#fff"/><stop offset=".253" stop-color="#FCFDFE"/><stop offset=".401" stop-color="#AEBDD5"/><stop offset=".533" stop-color="#7392BA"/><stop offset=".644" stop-color="#4875A9"/><stop offset=".731" stop-color="#3066A0"/><stop offset=".781" stop-color="#27609D"/><stop offset="1" stop-color="#355787"/></linearGradient><linearGradient x1="793.975" x2="793.975" y1="556.27" y2="557.833" gradientUnits="userSpaceOnUse"><stop offset=".455" stop-color="#A0C6DE"/><stop offset=".944" stop-color="#3165A1"/></linearGradient><linearGradient x1="793.256" x2="794.664" y1="556.108" y2="557.905" gradientUnits="userSpaceOnUse"><stop offset=".247" stop-color="#fff"/><stop offset=".253" stop-color="#FCFDFE"/><stop offset=".401" stop-color="#AEBDD5"/><stop offset=".533" stop-color="#7392BA"/><stop offset=".644" stop-color="#4875A9"/><stop offset=".731" stop-color="#3066A0"/><stop offset=".781" stop-color="#27609D"/><stop offset="1" stop-color="#355787"/></linearGradient><linearGradient x1="767.066" x2="802.103" y1="559.555" y2="584.711" gradientUnits="userSpaceOnUse"><stop offset="0" stop-color="#263D4C"/><stop offset=".348" stop-color="#446D8C"/><stop offset="1" stop-color="#698499"/></linearGradient><linearGradient x1="784.5" x2="784.5" y1="584.578" y2="559.512" gradientUnits="userSpaceOnUse"><stop offset="0" stop-color="#fff"/><stop offset=".41" stop-color="#fff"/><stop offset=".592" stop-color="#FBFCFA"/><stop offset=".775" stop-color="#EEEFEB"/><stop offset=".957" stop-color="#D9DCD5"/><stop offset="1" stop-color="#D3D7CF"/></linearGradient><linearGradient id="a" x1="84.022" x2="75.07" y1="233.44" y2="233.44" gradientTransform="matrix(0 -1 -1 0 259.812 95.129)" gradientUnits="userSpaceOnUse"><stop offset="0" stop-color="#E96712"/><stop offset=".648" stop-color="#D4290C"/><stop offset="1" stop-color="#CB1009"/></linearGradient><linearGradient x1="84.022" x2="75.07" y1="233.44" y2="233.44" xlink:href="#a" gradientUnits="userSpaceOnUse" gradientTransform="matrix(0 -1 -1 0 259.812 95.129)"/></defs><g><path fill="none" stroke="#fff" stroke-opacity=".502" stroke-width="3" d="M13.07 10.73c1.18.3 2.08.83 2.7 1.58.6.77.9 1.73.9 2.9 0 1.73-.65 3.04-1.98 3.95-1.34.9-3.27 1.35-5.82 1.35-.9 0-1.8-.07-2.7-.22-.9-.14-1.8-.36-2.68-.65v-3.48c.84.42 1.68.74 2.5.96.85.22 1.66.33 2.47.33 1.2 0 2.1-.2 2.75-.62.63-.4.95-1 .95-1.77 0-.8-.32-1.4-.98-1.8-.66-.42-1.62-.63-2.9-.63H6.5V9.7h1.9c1.13 0 1.97-.18 2.53-.54.55-.35.83-.9.83-1.62 0-.67-.27-1.2-.8-1.56-.55-.37-1.3-.55-2.3-.55-.72 0-1.45.08-2.2.25-.74.16-1.48.4-2.2.72V3.1c.88-.25 1.76-.44 2.64-.56.87-.13 1.73-.2 2.58-.2 2.27 0 3.97.38 5.1 1.13 1.13.74 1.7 1.87 1.7 3.37 0 1.02-.28 1.86-.82 2.5-.53.66-1.33 1.12-2.4 1.4zm8.2-3.7h4.23v4.54h-4.23V7.04zm0 8.6h4.23v4.53h-4.23v-4.54zm13.84 1.2h7.7v3.33H30.1v-3.32l6.38-5.63c.57-.5 1-1 1.26-1.5.28-.5.4-1 .4-1.54 0-.82-.26-1.48-.8-1.98-.56-.5-1.3-.75-2.2-.75-.7 0-1.48.15-2.32.45-.84.3-1.73.75-2.68 1.34V3.38c1-.34 2.02-.6 3-.77 1-.16 1.97-.25 2.93-.25 2.1 0 3.72.46 4.88 1.38 1.16.92 1.74 2.2 1.74 3.86 0 .94-.26 1.83-.75 2.65-.5.83-1.53 1.93-3.1 3.3l-3.74 3.3z" font-size="24" font-weight="bold" font-family="Bitstream Vera Sans"/><g><path d="M48 19.68V18.4h-.7c-.08 0-.14-.06-.14-.15V17c0-.1.05-.17.13-.17h.7l-.04-13.9h-.7c-.08.02-.14-.06-.14-.14V1.52c0-.1.05-.16.13-.16h.7V.02L0 .17V1.5h.75c.08 0 .13.08.13.17v1.26c0 .08-.05.15-.12.15H0L.05 17H.8c.06 0 .12.06.12.15v1.26c0 .07-.05.14-.13.15H.03v1.28L48 19.68zM2.03 3.08c-.07 0-.13-.07-.13-.16V1.66c0-.08.05-.16.13-.15h1.74c.07 0 .13.07.13.16v1.26c0 .08-.05.16-.13.16H2.03zm3.02 0c-.08 0-.14-.08-.14-.17V1.67c0-.1.07-.16.14-.16h1.74c.08 0 .14.06.13.15l.02 1.26c0 .1-.06.17-.13.17H5.04zm3-.02c-.06 0-.12-.07-.12-.15V1.65c0-.08.05-.15.13-.15l1.74-.02c.07 0 .13.07.13.16V2.9c0 .1-.06.16-.13.16H8.06zm3.03 0c-.08 0-.14-.08-.14-.16V1.64c0-.1.06-.16.13-.16h1.74c.1 0 .15.06.14.15V2.9c0 .08-.05.15-.13.15H11.1zm3 0c-.06 0-.12-.08-.12-.17V1.62c0-.1.05-.16.13-.16h1.73c.07 0 .13.06.13.15v1.26c0 .1-.06.16-.13.16H14.1zm3.02-.02c-.07 0-.13-.07-.13-.16V1.62c0-.1.06-.16.13-.16h1.74c.07 0 .13.07.13.15v1.27c0 .1-.05.16-.12.16H17.1zm3.02 0c-.07 0-.13-.08-.13-.17l-.02-1.26c0-.08.06-.15.14-.15h1.74c.07 0 .13.07.13.16v1.26c0 .1-.07.16-.14.16h-1.74zm3-.02c-.06 0-.12-.07-.12-.16V1.6c0-.1.06-.16.13-.16h1.74c.07 0 .13.07.13.16v1.26c0 .08-.05.15-.13.15l-1.74.02zm3.03 0c-.07 0-.13-.08-.13-.17V1.6c0-.1.05-.17.13-.17h1.74c.06 0 .12.07.12.16v1.25c0 .08-.06.16-.13.15h-1.75zm3-.02c-.06 0-.12-.07-.12-.16V1.58c0-.1.06-.16.13-.15h1.74c.07 0 .13.06.13.15v1.26c0 .08-.05.16-.13.16h-1.74zm3.03 0c-.07 0-.13-.08-.13-.17V1.58c0-.1.05-.16.12-.17h1.74c.1 0 .15.08.15.17v1.26c0 .1-.06.16-.13.16h-1.74zm3-.02c-.06 0-.12-.07-.12-.16V1.56c0-.08.06-.16.13-.15h1.73c.07 0 .13.07.13.16v1.26c0 .1-.05.16-.13.16H35.2zm3.03 0c-.07 0-.12-.08-.12-.17V1.56c0-.08.05-.15.12-.15h1.74c.08 0 .14.06.14.15V2.8c0 .1-.06.17-.13.17H38.2zm3.02-.02c-.07 0-.13-.07-.13-.16V1.55c0-.1.05-.16.12-.16l1.74-.02c.07 0 .13.07.13.16V2.8c0 .1-.07.16-.14.16h-1.74zm3.02 0c-.08 0-.14-.08-.13-.16V1.54c0-.1.06-.16.14-.16h1.74c.07 0 .13.07.13.15V2.8c0 .08-.05.15-.12.15h-1.74zM46 16.83c.08 0 .14.07.14.16v1.25c0 .1-.05.16-.12.16l-1.74.02c-.08 0-.14-.08-.14-.16V17c0-.1.06-.16.13-.16H46zm-3 0c.07 0 .13.08.13.17v1.26c0 .1-.06.16-.13.16h-1.74c-.07 0-.13-.07-.13-.15V17c0-.08.05-.15.13-.15H43zm-3.02.03c.08 0 .13.06.13.15l.02 1.27c0 .1-.06.16-.13.16h-1.75c-.08 0-.14-.07-.14-.15v-1.26c0-.1.07-.16.14-.16h1.74zm-3 0c.06 0 .12.07.12.16v1.26c0 .08-.06.16-.13.16h-1.74c-.07 0-.13-.07-.13-.15v-1.27c0-.1.05-.16.13-.16h1.74zm-3.03 0c.08 0 .14.08.13.17v1.26c0 .07-.05.15-.13.15h-1.73c-.08 0-.14-.07-.14-.16v-1.27c0-.08.06-.15.13-.16h1.75zm-3 .02c.06 0 .12.07.12.16v1.26c0 .08-.06.15-.13.15H29.2c-.07 0-.13-.06-.13-.15v-1.26c0-.08.06-.16.13-.16h1.74zm-3.03 0c.08 0 .14.08.14.16v1.26c0 .1-.06.16-.13.16H26.2c-.1 0-.15-.06-.14-.15v-1.25c0-.1.05-.16.12-.16h1.74zm-3 0c.06.02.12.1.12.17v1.26c0 .1-.05.17-.13.17h-1.73c-.07 0-.13-.06-.13-.15v-1.26c0-.1.06-.16.13-.16h1.74zm-3.03.02c.07 0 .13.08.13.16v1.26c0 .1-.06.16-.13.16h-1.74c-.07 0-.14-.06-.13-.15v-1.26c0-.1.05-.16.12-.16h1.74zm-3.02 0c.07 0 .13.08.13.17v1.26c0 .1-.05.16-.12.16h-1.74c-.07 0-.13-.07-.13-.16v-1.26c0-.1.07-.16.14-.16h1.74zm-3.02.02c.08 0 .14.07.14.16v1.26c0 .1-.06.16-.13.16h-1.74c-.08 0-.13-.06-.14-.15V17.1c0-.1.05-.17.13-.17h1.73zm-3 0c.06 0 .12.08.12.17v1.25c0 .1-.05.16-.13.16l-1.74.02c-.06 0-.12-.08-.12-.17V17.1c0-.1.06-.16.13-.16h1.75zm-3.02.02c.07 0 .13.07.13.16v1.26c0 .1-.06.16-.13.16H8.1c-.08 0-.13-.07-.13-.15V17.1c0-.08.05-.15.13-.15h1.74zm-7.77 1.6c-.07 0-.13-.07-.13-.16v-1.26c0-.1.05-.16.13-.16H3.8c.08 0 .14.07.14.16v1.26c0 .08-.06.16-.13.16H2.08zm2.88-1.43c0-.08.06-.14.13-.15h1.74c.07 0 .13.07.13.16v1.27c0 .08-.05.16-.13.16H5.1c-.1 0-.15-.07-.15-.16V17.1z"/></g><path fill="#888a85" d="M25.14 15.65c-.1 0-.18-.12-.18-.26l-.02-11c0-.14.08-.26.18-.26L35.6 4.1c.1 0 .18.1.18.26l.02 10.98c0 .15-.08.27-.18.27l-10.48.05z"/><path fill="#babdb6" d="M12.67 15.7c-.1 0-.18-.12-.18-.26l-.03-10.98c0-.15.08-.27.18-.27l10.48-.05c.1 0 .17.12.17.26l.02 11c0 .14-.07.26-.17.26l-10.48.04z"/><path fill="#eeeeec" d="M.2 15.75c-.1 0-.18-.1-.18-.26L0 4.5c0-.14.08-.25.18-.26l10.48-.04c.1 0 .17.12.17.26l.02 10.98c0 .15-.07.27-.17.27L.2 15.76z"/><path fill="#555753" d="M37.34 15.63c-.1 0-.17-.12-.17-.26L37.15 4.4c0-.16.08-.28.17-.28l10.48-.04c.1 0 .18.12.18.26L48 15.32c0 .15-.08.27-.17.27l-10.5.03z"/><path fill="#eeeeec" stroke="#000" stroke-width="2" d="M10.5 21.5h25v25h-25z" color="#000" stroke-linecap="square" overflow="visible" enable-background="accumulate"/><path fill="#555753" d="M11 22h12v12H11z" color="#000" overflow="visible" enable-background="accumulate"/><path fill="#eeeeec" d="M23 34h12v12H23z" color="#000" overflow="visible" enable-background="accumulate"/><path fill="#babdb6" d="M23 22h12v12H23z" color="#000" overflow="visible" enable-background="accumulate"/><path fill="#888a85" d="M11 34h12v12H11z" color="#000" overflow="visible" enable-background="accumulate"/></g></svg>