<svg xmlns="http://www.w3.org/2000/svg" width="48" height="48"><defs><linearGradient id="a" x1="-2659.469" x2="-2647.979" y1="403.946" y2="452.954" gradientTransform="matrix(.233 1.008 -1.008 .233 1079.927 2601.921)" gradientUnits="userSpaceOnUse"><stop offset="0" stop-color="#fff"/><stop offset="1" stop-color="#B8C0CA"/></linearGradient><linearGradient id="b" x1="338.416" x2="283.207" y1="29.041" y2="11.382" gradientUnits="userSpaceOnUse" gradientTransform="matrix(1.035 0 0 1.035 -298.921 -1.948)"><stop offset="0" stop-color="#fff"/><stop offset="1" stop-color="#B8C0CA"/></linearGradient><linearGradient id="c" x1="-2672.935" x2="-2663.227" y1="421.171" y2="462.574" gradientTransform="matrix(.233 1.008 -1.008 .233 1079.927 2601.921)" gradientUnits="userSpaceOnUse"><stop offset="0" stop-color="#fff"/><stop offset="1" stop-color="#B8C0CA"/></linearGradient><linearGradient id="d" x1="291.269" x2="327.719" y1="35.121" y2="35.121" gradientUnits="userSpaceOnUse" gradientTransform="matrix(1.035 0 0 1.035 -298.921 -1.948)"><stop offset=".05" stop-color="#CB130C"/><stop offset=".355" stop-color="#E45B13"/><stop offset=".503" stop-color="#EF7916"/><stop offset=".961" stop-color="#CB130C"/></linearGradient><linearGradient id="e" x1="-2905.114" x2="-2910.65" y1="2271.605" y2="2261.836" gradientTransform="matrix(-.5 .866 -.866 -.5 824.735 3686.669)" gradientUnits="userSpaceOnUse"><stop offset=".303" stop-color="#F7AF3E"/><stop offset="1" stop-color="#F12523"/></linearGradient><linearGradient id="f" x1="2098.747" x2="2093.211" y1="1271.747" y2="1261.977" gradientTransform="matrix(.5 -.866 .866 .5 -1841.798 1216.845)" gradientUnits="userSpaceOnUse"><stop offset=".303" stop-color="#F7AF3E"/><stop offset="1" stop-color="#F12523"/></linearGradient></defs><g><g><path d="M48.06 33.45v-1.87h-.45c-.12 0-.23-.1-.22-.24V29.5c0-.14.1-.25.23-.24h.46V8.82h-.46c-.12 0-.23-.1-.23-.24V6.73c0-.13.1-.23.24-.23h.46V4.53H.2V6.5h2.74c.13 0 .23.1.24.22v1.85c0 .13-.1.24-.24.24H.2v20.44h2.75c.13 0 .23.1.23.23v1.85c0 .13-.1.24-.23.24H.2v1.9h47.86zM5.2 8.82c-.15 0-.25-.1-.25-.24V6.73c0-.13.1-.24.23-.23h3.06c.13 0 .24.1.24.23v1.85c0 .13-.1.24-.23.24H5.2zm5.28 0c-.12 0-.23-.1-.22-.23V6.72c0-.13.1-.24.23-.23h3.05c.13 0 .23.1.23.23v1.85c0 .13-.1.24-.23.23l-3.07.02zm5.3 0c-.12 0-.22-.1-.22-.24V6.73c0-.13.1-.23.23-.23h3.05c.13 0 .23.1.23.23v1.85c0 .13-.1.24-.23.24H15.8zm5.3 0c-.12 0-.22-.1-.22-.23V6.72c0-.13.1-.23.23-.23h3.05c.13 0 .24.1.24.23V8.6c0 .1-.12.22-.25.22H21.1zm5.3 0c-.1 0-.22-.1-.22-.23V6.72c0-.12.1-.23.24-.23h3.06c.12 0 .23.1.23.23V8.6c0 .12-.12.22-.25.22H26.4zm5.32 0c-.13 0-.24-.1-.23-.23V6.73c0-.14.1-.24.23-.24h3.06c.12 0 .23.1.23.24V8.6c0 .12-.1.22-.25.22H31.7zm5.3 0c-.13 0-.23-.1-.23-.23V6.73c0-.13.1-.24.23-.24h3.06c.13 0 .23.1.23.24V8.6c0 .12-.1.22-.24.22H37zm5.3 0c-.13 0-.23-.1-.23-.23V6.73c0-.13.1-.24.23-.24h3.06c.13 0 .24.1.23.24V8.6c0 .12-.1.23-.24.23H42.3zm3.07 20.43c.13 0 .23.1.23.23v1.86c0 .13-.1.23-.23.23H42.3c-.12 0-.23-.1-.23-.23V29.5c0-.14.1-.25.24-.25h3.07zm-5.3 0c.12 0 .23.1.23.23v1.86c0 .13-.1.23-.24.23H37c-.12 0-.23-.1-.23-.23v-1.86c0-.13.1-.23.24-.23h3.06zm-5.3 0c.12 0 .22.1.22.23v1.86c0 .13-.1.23-.24.23H31.7c-.13 0-.23-.1-.23-.23v-1.86c0-.12.1-.23.23-.23h3.06zm-5.3 0c.12 0 .22.1.22.23v1.85c0 .14-.1.24-.24.24H26.4c-.13 0-.23-.1-.23-.24v-1.85c0-.13.1-.23.23-.23h3.06zm-5.3 0c.12 0 .22.1.22.23v1.85c0 .14-.1.24-.24.24H21.1c-.13 0-.24-.1-.24-.24v-1.85c0-.13.1-.23.24-.23h3.06zm-5.3 0c.12 0 .22.1.22.23v1.85c0 .13-.1.24-.25.24H15.8c-.13 0-.24-.1-.24-.24v-1.85c0-.13.1-.23.23-.23h3.06zm-5.32 0c.13 0 .24.1.23.23v1.85c0 .13-.1.24-.23.23H10.5c-.14 0-.24-.1-.24-.23v-1.85c0-.13.1-.24.23-.24h3.05zm-5.3 0c.13 0 .23.1.23.23v1.85c0 .13-.1.23-.23.23H5.2c-.14 0-.24-.1-.24-.23v-1.85c0-.13.1-.24.23-.24h3.05z"/></g><path fill="url(#a)" d="M48.06 27.46h-9.2c-.22 0-.4-.18-.4-.4V10.92c0-.2.18-.38.4-.38h9.2v16.94z"/><path fill="url(#b)" d="M10.04 27.45c-.2 0-.4-.17-.4-.4V10.92c0-.2.18-.38.4-.38h25.42c.2 0 .4.17.4.4v16.15c0 .2-.2.38-.4.38H10.04z"/><path fill="#ec2628" d="M10.08 27.45c-.24 0-.43-.17-.43-.4V10.92c0-.2.2-.38.43-.38h25.35c.23 0 .42.17.42.4v16.15c0 .2-.2.38-.42.4l-25.35-.02z"/><path fill="url(#c)" d="M.2 10.52h6.45c.2 0 .4.17.4.4v16.14c0 .22-.2.4-.4.4H.2V10.5z"/><path fill="#ed2728" d="M3.32 27.45c-.33 0-.6-.17-.6-.4V10.92c0-.2.27-.38.6-.38h38.86c.33 0 .6.17.6.4v16.15c0 .2-.27.38-.6.4l-38.86-.02z" opacity=".6"/><path fill="none" stroke="#fff" stroke-width="3" d="M30.95 38.48v4.62c0 .2.17.37.37.37.1 0 .2-.03.26-.1l9.82-8.43c.3-.3.3-.77 0-1.06l-9.8-8.43c-.08-.07-.17-.12-.28-.1-.2-.02-.37.15-.37.36v4.63H11.73V25.7c0-.2-.17-.37-.37-.37-.1 0-.2.04-.26.12l-9.82 8.42c-.3.3-.3.77 0 1.06l9.8 8.43c.08.07.17.1.28.1.2 0 .37-.15.37-.36v-4.62h19.22z"/><path fill="url(#d)" stroke="#590c08" stroke-width=".5" d="M21.34 38.48h9.6v4.62c0 .2.18.37.38.37.1 0 .2-.03.26-.1l9.82-8.43c.3-.3.3-.77 0-1.06l-9.8-8.43c-.08-.07-.17-.12-.28-.1-.2-.02-.37.15-.37.36v4.63H11.73V25.7c0-.2-.17-.37-.37-.37-.1 0-.2.04-.26.12l-9.82 8.42c-.3.3-.3.77 0 1.06l9.8 8.43c.08.07.17.1.28.1.2 0 .37-.15.37-.36v-4.62h9.6z"/><g transform="matrix(1.035 0 0 1.035 -298.921 -1.948)"><linearGradient x1="-2905.114" x2="-2910.65" y1="2271.605" y2="2261.836" gradientTransform="matrix(-.5 .866 -.866 -.5 824.735 3686.669)" gradientUnits="userSpaceOnUse"><stop offset=".303" stop-color="#F7AF3E"/><stop offset="1" stop-color="#F12523"/></linearGradient><path fill="url(#e)" d="M328.85 34.97l-9.62-8.34s-.2-.12-.2.06v4.72c-.84 0-9.53 0-9.53 0v.94h10.46s0-2.6 0-3.54c1.2 1.32 7.3 5.76 7.76 6.27-.47.5-6.55 4.98-7.76 6.3 0-.92 0-3.52 0-3.52H309.5v.94H319v4.56c0 .53.36.06.36.06l9.43-8.12.05-.35z"/></g><g transform="matrix(1.035 0 0 1.035 -298.921 -1.948)"><linearGradient x1="2098.747" x2="2093.211" y1="1271.747" y2="1261.977" gradientTransform="matrix(.5 -.866 .866 .5 -1841.798 1216.845)" gradientUnits="userSpaceOnUse"><stop offset=".303" stop-color="#F7AF3E"/><stop offset="1" stop-color="#F12523"/></linearGradient><path fill="url(#f)" d="M290.14 35.27l9.62 8.34s.2.14.2-.05v-4.73c.84 0 9.53 0 9.53 0v-.94h-10.47s0 2.6 0 3.54c-1.2-1.3-7.3-5.76-7.76-6.27.47-.5 6.55-4.98 7.76-6.3 0 .9 0 3.5 0 3.5h10.46v-.93h-9.53v-4.56c0-.53-.37-.06-.37-.06l-9.43 8.12-.03.35z"/></g></g></svg>