<svg xmlns="http://www.w3.org/2000/svg" width="48" height="48" xmlns:xlink="http://www.w3.org/1999/xlink"><defs><linearGradient id="a"><stop offset="0" stop-opacity=".549"/><stop offset="1" stop-opacity="0"/></linearGradient><linearGradient x1="36.149" x2="10.525" y1="12.773" y2="38.409" xlink:href="#a" gradientUnits="userSpaceOnUse" gradientTransform="matrix(.241 0 0 .241 14.832 32)"/><linearGradient id="b"><stop offset="0" stop-color="#fff" stop-opacity=".502"/><stop offset="1" stop-color="#fff" stop-opacity="0"/></linearGradient><linearGradient x1="36.149" x2="10.525" y1="12.773" y2="38.409" xlink:href="#b" gradientUnits="userSpaceOnUse" gradientTransform="matrix(.195 0 0 .195 16.692 32.381)"/><linearGradient id="c"><stop offset="0" stop-color="#fff"/><stop offset="1"/></linearGradient><radialGradient cx="35.47" cy="5.544" r="9.459" xlink:href="#c" fx="35.47" fy="5.544" gradientUnits="userSpaceOnUse" gradientTransform="matrix(1.918 -.042 .042 1.918 -32.782 -3.588)"/><linearGradient id="d"><stop offset="0" stop-color="#fff"/><stop offset="1" stop-color="#fff" stop-opacity="0"/></linearGradient><linearGradient x1="36" x2="71.602" y1="34.461" y2="34.461" xlink:href="#d" gradientUnits="userSpaceOnUse" gradientTransform="matrix(-.168 .173 -.098 -.095 32.854 30.5)"/><linearGradient id="f" x1="-2238.106" x2="-2226.048" y1="799.509" y2="850.939" gradientTransform="matrix(.231 1.37 -.989 .32 1358.555 2825.906)" gradientUnits="userSpaceOnUse"><stop offset="0" stop-color="#fff"/><stop offset="1" stop-color="#B8C0CA"/></linearGradient><linearGradient id="g" x1="45.409" x2="3.606" y1="524.394" y2="515.824" gradientUnits="userSpaceOnUse" gradientTransform="matrix(1.016 -.004 .003 1.407 -1.814 -709.238)"><stop offset="0" stop-color="#fff"/><stop offset="1" stop-color="#B8C0CA"/></linearGradient><linearGradient id="h" x1="-2251.493" x2="-2239.436" y1="802.65" y2="854.077" gradientTransform="matrix(.231 1.37 -.989 .32 1358.555 2825.906)" gradientUnits="userSpaceOnUse"><stop offset="0" stop-color="#fff"/><stop offset="1" stop-color="#B8C0CA"/></linearGradient><linearGradient x1="776.865" x2="777.995" y1="541.731" y2="543.105" gradientUnits="userSpaceOnUse"><stop offset=".247" stop-color="#fff"/><stop offset=".301" stop-color="#F3F4F5"/><stop offset=".508" stop-color="#CBD0D6"/><stop offset=".701" stop-color="#AFB9C2"/><stop offset=".871" stop-color="#9EAAB6"/><stop offset="1" stop-color="#99A5B3"/></linearGradient><linearGradient x1="779.324" x2="780.542" y1="541.802" y2="543.042" gradientUnits="userSpaceOnUse"><stop offset=".247" stop-color="#fff"/><stop offset=".301" stop-color="#F3F4F5"/><stop offset=".508" stop-color="#CBD0D6"/><stop offset=".701" stop-color="#AFB9C2"/><stop offset=".871" stop-color="#9EAAB6"/><stop offset="1" stop-color="#99A5B3"/></linearGradient><linearGradient x1="781.786" x2="783.049" y1="541.8" y2="543.019" gradientUnits="userSpaceOnUse"><stop offset=".247" stop-color="#fff"/><stop offset=".301" stop-color="#F3F4F5"/><stop offset=".508" stop-color="#CBD0D6"/><stop offset=".701" stop-color="#AFB9C2"/><stop offset=".871" stop-color="#9EAAB6"/><stop offset="1" stop-color="#99A5B3"/></linearGradient><linearGradient x1="777.438" x2="777.438" y1="541.401" y2="543.071" gradientUnits="userSpaceOnUse"><stop offset=".455" stop-color="#D0D5DA"/><stop offset=".826" stop-color="#99A5B3"/><stop offset="1" stop-color="#9DA9B6"/></linearGradient><linearGradient x1="779.938" x2="779.938" y1="541.401" y2="543.071" gradientUnits="userSpaceOnUse"><stop offset=".455" stop-color="#D0D5DA"/><stop offset=".826" stop-color="#99A5B3"/><stop offset="1" stop-color="#9DA9B6"/></linearGradient><linearGradient x1="782.435" x2="782.435" y1="541.401" y2="543.071" gradientUnits="userSpaceOnUse"><stop offset=".455" stop-color="#D0D5DA"/><stop offset=".826" stop-color="#99A5B3"/><stop offset="1" stop-color="#9DA9B6"/></linearGradient><linearGradient x1="771.22" x2="771.22" y1="561.378" y2="544.373" gradientUnits="userSpaceOnUse"><stop offset="0" stop-color="#fff"/><stop offset=".41" stop-color="#fff"/><stop offset=".592" stop-color="#FBFCFA"/><stop offset=".775" stop-color="#EEEFEB"/><stop offset=".957" stop-color="#D9DCD5"/><stop offset="1" stop-color="#D3D7CF"/></linearGradient><linearGradient x1="771.219" x2="771.219" y1="542.046" y2="562.616" gradientUnits="userSpaceOnUse"><stop offset="0" stop-color="#ADBBCA"/><stop offset=".348" stop-color="#fff"/><stop offset=".674" stop-color="#fff"/><stop offset=".759" stop-color="#FBFCFC"/><stop offset=".844" stop-color="#EFF2F5"/><stop offset=".929" stop-color="#DAE2E8"/><stop offset="1" stop-color="#C3D2DD"/></linearGradient><linearGradient x1="771.219" x2="771.219" y1="540.617" y2="562.616" gradientUnits="userSpaceOnUse"><stop offset="0" stop-color="#E8ECED"/><stop offset=".348" stop-color="#fff"/><stop offset=".674" stop-color="#fff"/></linearGradient><linearGradient x1="784.5" x2="784.5" y1="586.057" y2="551.017" gradientUnits="userSpaceOnUse" gradientTransform="translate(-757.06 -539.628)"><stop offset="0" stop-color="#709EC3"/><stop offset=".383" stop-color="#72A0C4"/><stop offset=".521" stop-color="#79A3C6"/><stop offset=".619" stop-color="#83ABCA"/><stop offset=".698" stop-color="#94B5D0"/><stop offset=".766" stop-color="#A9C3D9"/><stop offset=".827" stop-color="#C6D6E5"/><stop offset=".88" stop-color="#E5ECF2"/><stop offset=".916" stop-color="#fff"/></linearGradient><linearGradient x1="784.5" x2="784.5" y1="556.36" y2="586.157" gradientUnits="userSpaceOnUse" gradientTransform="translate(-757.06 -539.628)"><stop offset="0" stop-color="#6395BF"/><stop offset=".09" stop-color="#CCDBE8"/><stop offset=".674" stop-color="#fff"/><stop offset=".728" stop-color="#FBFDFE"/><stop offset=".781" stop-color="#EFF5F8"/><stop offset=".835" stop-color="#DBEAF2"/><stop offset=".889" stop-color="#BED9E8"/><stop offset=".943" stop-color="#9AC6DC"/><stop offset=".997" stop-color="#6FAFCE"/><stop offset="1" stop-color="#6CADCD"/></linearGradient><linearGradient x1="800.531" x2="800.531" y1="556.321" y2="557.73" gradientUnits="userSpaceOnUse"><stop offset=".455" stop-color="#D9ADAE"/><stop offset=".944" stop-color="#CB1009"/></linearGradient><linearGradient x1="799.813" x2="801.373" y1="556.137" y2="558.064" gradientUnits="userSpaceOnUse"><stop offset=".247" stop-color="#fff"/><stop offset=".34" stop-color="#E8C8B7"/><stop offset=".472" stop-color="#CE896F"/><stop offset=".599" stop-color="#BA5942"/><stop offset=".719" stop-color="#AB3825"/><stop offset=".829" stop-color="#A22214"/><stop offset=".926" stop-color="#9B150B"/><stop offset="1" stop-color="#991109"/></linearGradient><linearGradient x1="797.254" x2="797.254" y1="556.27" y2="557.833" gradientUnits="userSpaceOnUse"><stop offset=".455" stop-color="#A0C6DE"/><stop offset=".944" stop-color="#3165A1"/></linearGradient><linearGradient x1="796.481" x2="797.996" y1="556.142" y2="557.876" gradientUnits="userSpaceOnUse"><stop offset=".247" stop-color="#fff"/><stop offset=".253" stop-color="#FCFDFE"/><stop offset=".401" stop-color="#AEBDD5"/><stop offset=".533" stop-color="#7392BA"/><stop offset=".644" stop-color="#4875A9"/><stop offset=".731" stop-color="#3066A0"/><stop offset=".781" stop-color="#27609D"/><stop offset="1" stop-color="#355787"/></linearGradient><linearGradient x1="793.975" x2="793.975" y1="556.27" y2="557.833" gradientUnits="userSpaceOnUse"><stop offset=".455" stop-color="#A0C6DE"/><stop offset=".944" stop-color="#3165A1"/></linearGradient><linearGradient x1="793.256" x2="794.664" y1="556.108" y2="557.905" gradientUnits="userSpaceOnUse"><stop offset=".247" stop-color="#fff"/><stop offset=".253" stop-color="#FCFDFE"/><stop offset=".401" stop-color="#AEBDD5"/><stop offset=".533" stop-color="#7392BA"/><stop offset=".644" stop-color="#4875A9"/><stop offset=".731" stop-color="#3066A0"/><stop offset=".781" stop-color="#27609D"/><stop offset="1" stop-color="#355787"/></linearGradient><linearGradient x1="767.066" x2="802.103" y1="559.555" y2="584.711" gradientUnits="userSpaceOnUse"><stop offset="0" stop-color="#263D4C"/><stop offset=".348" stop-color="#446D8C"/><stop offset="1" stop-color="#698499"/></linearGradient><linearGradient x1="784.5" x2="784.5" y1="584.578" y2="559.512" gradientUnits="userSpaceOnUse"><stop offset="0" stop-color="#fff"/><stop offset=".41" stop-color="#fff"/><stop offset=".592" stop-color="#FBFCFA"/><stop offset=".775" stop-color="#EEEFEB"/><stop offset=".957" stop-color="#D9DCD5"/><stop offset="1" stop-color="#D3D7CF"/></linearGradient><linearGradient id="e" x1="84.022" x2="75.07" y1="233.44" y2="233.44" gradientTransform="matrix(0 -1 -1 0 259.812 95.129)" gradientUnits="userSpaceOnUse"><stop offset="0" stop-color="#E96712"/><stop offset=".648" stop-color="#D4290C"/><stop offset="1" stop-color="#CB1009"/></linearGradient><linearGradient x1="84.022" x2="75.07" y1="233.44" y2="233.44" xlink:href="#e" gradientUnits="userSpaceOnUse" gradientTransform="matrix(0 -1 -1 0 259.812 95.129)"/><linearGradient id="m" x1="36.149" x2="10.525" y1="12.773" y2="38.409" xlink:href="#a" gradientUnits="userSpaceOnUse" gradientTransform="matrix(.241 0 0 .241 34.869 16.145)"/><linearGradient id="n" x1="36.149" x2="10.525" y1="12.773" y2="38.409" xlink:href="#b" gradientUnits="userSpaceOnUse" gradientTransform="matrix(.195 0 0 .195 36.729 16.527)"/><radialGradient id="o" cx="35.47" cy="5.544" r="9.459" xlink:href="#c" gradientUnits="userSpaceOnUse" gradientTransform="matrix(1.918 -.042 .042 1.918 -32.782 -3.588)" fx="35.47" fy="5.544"/><linearGradient id="p" x1="36" x2="71.602" y1="34.461" y2="34.461" xlink:href="#d" gradientUnits="userSpaceOnUse" gradientTransform="matrix(-.168 .173 -.098 -.095 52.891 14.646)"/><radialGradient id="q" cx="35.47" cy="5.544" r="9.459" xlink:href="#c" gradientUnits="userSpaceOnUse" gradientTransform="matrix(1.918 -.042 .042 1.918 -32.782 -3.588)" fx="35.47" fy="5.544"/><linearGradient id="l" x1="36" x2="71.602" y1="34.461" y2="34.461" xlink:href="#d" gradientUnits="userSpaceOnUse" gradientTransform="matrix(-.168 .173 -.098 -.095 32.854 18.5)"/><radialGradient id="k" cx="35.47" cy="5.544" r="9.459" xlink:href="#c" gradientUnits="userSpaceOnUse" gradientTransform="matrix(1.918 -.042 .042 1.918 -32.782 -3.588)" fx="35.47" fy="5.544"/><linearGradient id="j" x1="36.149" x2="10.525" y1="12.773" y2="38.409" xlink:href="#b" gradientUnits="userSpaceOnUse" gradientTransform="matrix(.195 0 0 .195 16.692 20.381)"/><linearGradient id="i" x1="36.149" x2="10.525" y1="12.773" y2="38.409" xlink:href="#a" gradientUnits="userSpaceOnUse" gradientTransform="matrix(.241 0 0 .241 14.832 20)"/></defs><g><g><path d="M48.07 33.82v-1.48h-.7c-.08 0-.14-.08-.14-.18V30.7c0-.1.05-.2.13-.2h.7l-.03-16.1h-.7c-.08 0-.14-.08-.14-.18v-1.46c0-.1.04-.2.12-.2h.7V11L0 11.18v1.55h.75c.08 0 .14.08.14.18v1.48c0 .1-.07.18-.14.18H0l.04 16.12H.8c.07 0 .13.07.13.18v1.46c0 .1-.06.18-.14.18H.03V34l48.03-.18zM2.03 14.55c-.07 0-.13-.07-.13-.17V12.9c0-.1.06-.17.13-.17h1.74c.08 0 .14.07.14.17v1.46c0 .1-.05.2-.13.2H2.03zm3.02 0c-.07 0-.13-.1-.13-.2V12.9c0-.1.06-.18.13-.18H6.8c.07 0 .13.07.13.17v1.46c0 .1-.06.18-.13.18H5.05zm3.02 0c-.07 0-.13-.1-.13-.2V12.9c0-.1.06-.2.13-.2H9.8c.1 0 .14.08.15.18v1.46c0 .1-.06.2-.14.2H8.08zm3.02-.02c-.08 0-.14-.1-.14-.2V12.9c0-.1.05-.2.13-.18h1.73c.07 0 .13.07.13.17v1.47c0 .1-.05.18-.13.18H11.1zm3 0c-.06-.02-.12-.1-.12-.2v-1.46c0-.1.05-.18.13-.18l1.75-.02c.07 0 .13.08.13.18v1.46c0 .1-.05.2-.13.2H14.1zm3.03-.03c-.07 0-.13-.08-.13-.18v-1.46c0-.1.06-.2.13-.18h1.74c.07 0 .13.07.13.17v1.46c0 .1-.06.2-.13.2h-1.74zm3.02 0c-.07 0-.13-.1-.13-.2v-1.45c0-.1.05-.18.13-.18h1.74c.06 0 .12.07.12.17v1.46c0 .1-.05.2-.13.2h-1.75zm3.02-.02c-.08 0-.14-.08-.14-.18v-1.46c0-.1.06-.18.14-.18h1.74c.08 0 .14.07.14.17v1.46c0 .1-.06.18-.13.18h-1.73zm3.02 0c-.08 0-.15-.1-.15-.2v-1.45c0-.1.06-.2.13-.2h1.75c.07 0 .13.1.13.2v1.45c0 .1-.06.2-.13.2H26.2zm3-.02c-.07 0-.13-.08-.12-.18v-1.46c0-.1.05-.2.12-.2h1.75c.07 0 .13.1.13.2v1.45c0 .1-.06.2-.13.2H29.2zm3.03 0c-.08 0-.14-.1-.14-.2v-1.45c0-.1.05-.17.12-.18h1.74c.08 0 .14.08.14.18v1.46c0 .1-.06.2-.13.2h-1.74zm3.02-.02c-.08 0-.14-.08-.14-.18V12.8c0-.1.07-.2.14-.2h1.74c.08 0 .14.1.14.2v1.45c0 .1-.06.2-.13.2h-1.75zm3 0c-.06 0-.12-.1-.12-.2V12.8c0-.12.06-.2.13-.2H40c.08 0 .14.08.14.18v1.46c0 .1-.06.18-.13.18h-1.74zm3.03-.02c-.07 0-.13-.08-.13-.18v-1.46c0-.1.06-.2.13-.2h1.74c.07 0 .13.1.14.2v1.45c0 .1-.06.18-.13.2h-1.75zm3.02 0c-.07 0-.13-.1-.13-.2v-1.45c0-.1.06-.2.13-.2h1.74c.07 0 .13.1.13.2v1.45c0 .1-.05.2-.13.18H44.3zm1.78 16.1c.07 0 .13.08.13.18l.02 1.46c0 .1-.06.2-.14.2h-1.74c-.07 0-.13-.1-.13-.2v-1.45c0-.1.06-.17.14-.18h1.74zm-3.02 0c.07 0 .13.1.13.2v1.45c0 .1-.06.2-.14.2h-1.74c-.07 0-.13-.1-.13-.2l-.02-1.45c0-.1.06-.18.14-.2h1.74zm-3.02.02c.08 0 .13.08.13.18v1.46c0 .1-.05.2-.13.2H38.3c-.07 0-.13-.1-.13-.2v-1.45c0-.1.06-.2.13-.2h1.74zm-3.02 0c.08 0 .14.1.14.2v1.45c0 .1-.06.18-.13.18h-1.75c-.07 0-.13-.08-.13-.18v-1.46c0-.1.06-.18.13-.18h1.74zm-3.02.02c.08 0 .14.08.13.18v1.46c0 .1-.05.2-.12.2h-1.74c-.07 0-.13-.1-.13-.2v-1.45c0-.1.06-.18.13-.2H34zm-3.02 0c.08 0 .14.1.14.2v1.45c0 .12-.06.2-.13.2h-1.76c-.07 0-.13-.08-.13-.18v-1.46c0-.1.07-.18.14-.18h1.74zm-3 .02c.06 0 .12.08.12.18v1.46c0 .1-.06.2-.13.2h-1.74c-.08 0-.14-.1-.14-.2v-1.45c0-.1.05-.2.12-.18l1.75-.02zm-3.03 0c.07 0 .13.1.13.2v1.46c0 .1-.06.18-.13.18H23.2c-.07 0-.13-.08-.13-.18v-1.46c0-.1.06-.18.13-.18h1.75zm-3.02.02c.07 0 .13.08.13.18v1.47c0 .1-.06.18-.13.18H20.2c-.08 0-.15-.08-.14-.18V30.8c0-.1.05-.2.12-.2h1.75zm-3.02 0c.08 0 .14.1.14.2v1.46c0 .1-.06.18-.13.18h-1.73c-.08 0-.13-.07-.14-.18V30.8c0-.1.06-.18.14-.18h1.74zm-3 .02c.06 0 .12.08.12.18v1.47c0 .1-.06.18-.13.18h-1.75c-.08 0-.13-.07-.13-.18V30.8c0-.1.05-.17.13-.17h1.74zm-3.03 0c.07 0 .13.1.13.2v1.46c0 .1-.05.18-.13.18h-1.74c-.07 0-.13-.07-.13-.18v-1.46c0-.1.05-.18.13-.18h1.74zm-3.02.02c.07 0 .13.08.13.2v1.45c0 .1-.05.17-.13.17H8.1c-.06 0-.12-.07-.12-.17v-1.47c0-.1.05-.18.13-.18h1.75zM2.07 32.5c-.07 0-.13-.08-.13-.18v-1.47c0-.1.06-.18.13-.18H3.8c.08 0 .14.07.15.17v1.47c0 .1-.06.2-.13.2H2.07zm2.9-1.66c0-.1.04-.18.12-.18h1.73c.07 0 .13.07.13.18v1.46c0 .1-.05.18-.13.18H5.1c-.08 0-.14-.07-.14-.18v-1.46z"/></g><path fill="url(#f)" d="M33.3 29.15c-.1 0-.2-.14-.2-.3l-.04-12.76c0-.18.1-.3.22-.3l13.3-.06c.12 0 .22.13.22.3l.02 12.75c0 .16-.1.3-.22.3l-13.3.05z"/><path fill="url(#g)" d="M17.5 29.2c-.13 0-.23-.13-.23-.3l-.02-12.75c0-.16.1-.3.22-.3l13.3-.05c.1 0 .2.13.2.3l.04 12.75c0 .17-.1.3-.2.3l-13.3.05z"/><path fill="url(#h)" d="M1.68 29.26c-.12 0-.22-.13-.22-.3L1.43 16.2c0-.16.1-.3.22-.3l13.3-.04c.12 0 .22.13.22.3l.02 12.74c0 .17-.1.3-.23.3l-13.3.06z"/><path fill="url(#i)" fill-rule="evenodd" d="M22.3 20.72l-6.74 6.76 3.37 3.37 6.76-6.75-3.4-3.38z"/><path d="M26.4 22.4a2.4 2.4 0 1 1-4.8 0 2.4 2.4 0 1 1 4.8 0z" color="#000" overflow="visible" enable-background="accumulate"/><path fill="url(#j)" fill-rule="evenodd" d="M22.72 20.96l-5.44 5.45L20 29.14l5.45-5.44-2.73-2.74z"/><path fill="url(#k)" d="M47.82 10a9.46 9.46 0 1 1-18.9 0 9.46 9.46 0 1 1 18.9 0z" transform="matrix(.206 0 0 .206 16.097 20.338)" color="#000" overflow="visible" enable-background="accumulate"/><path fill="url(#l)" d="M23.77 21.8l-5.98 6.16-.68-.66 5.97-6.17c.35-.08.67-.02.67.66z" color="#000" overflow="visible" enable-background="accumulate"/><path fill="url(#m)" fill-rule="evenodd" d="M42.35 16.87l-6.76 6.75L38.96 27l6.75-6.75-3.37-3.38z"/><path d="M46.44 18.54a2.4 2.4 0 1 1-4.8 0 2.4 2.4 0 1 1 4.8 0z" color="#000" overflow="visible" enable-background="accumulate"/><path fill="url(#n)" fill-rule="evenodd" d="M42.76 17.1l-5.45 5.46 2.74 2.72 5.44-5.45-2.72-2.72z"/><path fill="url(#o)" d="M47.82 10a9.46 9.46 0 1 1-18.9 0 9.46 9.46 0 1 1 18.9 0z" transform="matrix(.206 0 0 .206 36.135 16.484)" color="#000" overflow="visible" enable-background="accumulate"/><path fill="url(#p)" d="M43.8 17.94l-5.97 6.17-.68-.65 5.98-6.17c.36-.1.68-.02.68.66z" color="#000" overflow="visible" enable-background="accumulate"/><path d="M7 26.4a2.4 2.4 0 1 1-4.8 0 2.4 2.4 0 1 1 4.8 0z" color="#000" overflow="visible" enable-background="accumulate"/><path fill="url(#q)" d="M47.82 10a9.46 9.46 0 1 1-18.9 0 9.46 9.46 0 1 1 18.9 0z" transform="matrix(.206 0 0 .206 -3.306 24.338)" color="#000" overflow="visible" enable-background="accumulate"/></g></svg>