<svg xmlns="http://www.w3.org/2000/svg" width="48" height="48" xmlns:xlink="http://www.w3.org/1999/xlink"><defs><linearGradient id="d" x1="-2591.314" x2="-2578.879" y1="428.596" y2="481.634" gradientTransform="matrix(.225 .974 -.974 .225 1332.493 2515.675)" gradientUnits="userSpaceOnUse"><stop offset="0" stop-color="#fff"/><stop offset="1" stop-color="#B8C0CA"/></linearGradient><linearGradient id="c" x1="336.031" x2="289.04" y1="110.251" y2="100.617" xlink:href="#a" gradientUnits="userSpaceOnUse"/><linearGradient id="b" x1="-2577.186" x2="-2564.89" y1="424.394" y2="476.839" gradientTransform="matrix(.225 .974 -.974 .225 1332.493 2515.675)" gradientUnits="userSpaceOnUse"><stop offset="0" stop-color="#fff"/><stop offset="1" stop-color="#B8C0CA"/></linearGradient><linearGradient id="g" x1="-2585.299" x2="-2579.445" y1="444.732" y2="469.7" gradientTransform="matrix(.225 .974 -.974 .225 1332.493 2515.675)" gradientUnits="userSpaceOnUse"><stop offset="0" stop-color="#fff"/><stop offset="1" stop-color="#B8C0CA"/></linearGradient><linearGradient id="a" x1="336.031" x2="289.04" y1="110.251" y2="100.617" gradientUnits="userSpaceOnUse"><stop offset="0" stop-color="#fff"/><stop offset="1" stop-color="#B8C0CA"/></linearGradient><linearGradient id="f" x1="336.031" x2="289.04" y1="110.251" y2="100.617" xlink:href="#a" gradientUnits="userSpaceOnUse"/><linearGradient id="e" x1="-2576.879" x2="-2570.892" y1="434.82" y2="460.356" gradientTransform="matrix(.225 .974 -.974 .225 1332.493 2515.675)" gradientUnits="userSpaceOnUse"><stop offset="0" stop-color="#fff"/><stop offset="1" stop-color="#B8C0CA"/></linearGradient></defs><g><g transform="matrix(1.035 0 0 1.036 -298.993 -86.061)" opacity=".5"><g><path d="M335.23 114.45v-1.17h-.8c-.06 0-.13-.07-.13-.15v-1.17c0-.08.06-.15.14-.15h.8V98.95h-.8c-.08 0-.15-.06-.14-.14v-1.17c0-.08.06-.15.14-.15h.8v-1.25h-46.48v1.24h.83c.07 0 .13.07.13.15v1.16c0 .1-.06.15-.14.15h-.85v12.87h.84c.07 0 .14.07.14.15v1.17c0 .07-.07.14-.15.14h-.84v1.2h46.47zM291 98.93c-.08 0-.14-.06-.14-.14v-1.2c0-.06.06-.13.14-.13h1.93c.08 0 .15.06.15.14v1.18c0 .08-.07.15-.15.15H291zm3.34 0c-.08 0-.14-.06-.14-.14V97.6c0-.08.06-.15.14-.15h1.93c.08 0 .15.07.15.15v1.17c0 .07-.07.13-.15.13h-1.93zm3.35 0c-.1 0-.16-.06-.16-.14V97.6c0-.08.06-.15.15-.15h1.9c.1 0 .16.07.16.15v1.17c0 .07-.07.14-.15.13h-1.92zm3.33 0c-.08 0-.15-.06-.15-.14V97.6c0-.08.07-.15.15-.15h1.92c.1 0 .15.07.15.15v1.17c0 .07-.06.14-.14.14h-1.93zm3.34 0c-.08 0-.15-.06-.15-.14V97.6c0-.08.07-.15.15-.15h1.93c.08 0 .14.07.14.15v1.17c0 .07-.06.13-.14.13h-1.93zm3.34 0c-.07 0-.14-.06-.14-.14V97.6c0-.08.07-.14.15-.14h1.94c.08 0 .14.06.15.14l-.02 1.17c0 .07-.06.14-.14.14h-1.93zm3.35 0c-.08 0-.15-.06-.15-.14V97.6c0-.08.07-.14.15-.14h1.93c.08 0 .15.06.15.14v1.17c0 .07-.07.14-.15.14h-1.93zm3.34 0c-.1 0-.15-.06-.15-.14V97.6c0-.08.06-.14.14-.14h1.92c.08 0 .15.06.15.14v1.17c0 .07-.07.14-.15.14h-1.93zm3.33 0c-.08 0-.14-.06-.14-.14v-1.17c0-.1.05-.15.13-.15h1.93c.08 0 .15.06.15.15v1.16c0 .07-.06.14-.14.14h-1.93zm3.35 0c-.08 0-.15-.06-.15-.14v-1.17c0-.1.07-.15.15-.15H323c.1 0 .15.07.15.15v1.16c0 .08-.06.14-.14.14h-1.92zm3.34 0c-.08 0-.15-.06-.15-.14v-1.17c0-.08.07-.15.15-.15h1.93c.08 0 .14.07.14.15v1.17c0 .08-.07.14-.15.14h-1.93zm3.34 0c-.08 0-.15-.05-.15-.14v-1.17c0-.08.08-.15.16-.15h1.93c.07 0 .13.07.13.15v1.17c0 .08-.06.14-.14.14h-1.94zm3.34 0c-.08 0-.15-.05-.15-.14v-1.17c0-.08.07-.15.15-.15h1.93c.08 0 .15.07.15.15v1.17c0 .08-.07.14-.15.14h-1.93zm1.93 12.88c.08 0 .15.08.15.16v1.17c0 .08-.07.15-.15.14h-1.93c-.08 0-.14-.06-.14-.14v-1.17c0-.08.06-.15.14-.15h1.93zm-3.34.02c.07 0 .14.06.14.14v1.17c0 .08-.07.14-.15.15h-1.94c-.08 0-.14-.07-.14-.15v-1.17c0-.08.06-.15.14-.15l1.93.02zm-3.35 0c.08 0 .15.06.15.14v1.17c0 .08-.07.14-.15.14h-1.93c-.08 0-.15-.06-.15-.14v-1.17c0-.08.07-.15.15-.15h1.93zm-3.34 0c.1 0 .15.06.15.14v1.17c0 .08-.06.14-.14.14h-1.92c-.08 0-.15-.06-.15-.14v-1.17c0-.1.07-.15.15-.15H323zm-3.33 0c.08 0 .14.06.14.14v1.16c0 .08-.05.15-.13.15h-1.93c-.08 0-.15-.06-.15-.15v-1.16c0-.08.06-.15.14-.15h1.93zm-3.35 0c.1 0 .15.05.15.14v1.16c0 .08-.06.15-.15.15h-1.92c-.08 0-.15-.06-.15-.15v-1.17c0-.08.07-.14.15-.14h1.93zm-3.34 0c.08 0 .15.05.15.14v1.16c0 .08-.06.15-.15.15h-1.92c-.1 0-.15-.07-.15-.15v-1.17c0-.08.08-.14.16-.14h1.92zm-3.34 0c.08 0 .15.05.15.13v1.17c0 .08-.08.15-.16.15h-1.93c-.07 0-.13-.07-.13-.15v-1.17c0-.08.06-.14.14-.14h1.94zm-3.34 0c.08 0 .15.05.15.13v1.17c0 .08-.07.15-.15.15h-1.93c-.08 0-.14-.07-.14-.15v-1.17c0-.08.06-.14.14-.14h1.93zm-3.34 0c.08 0 .14.05.14.13v1.17c0 .08-.06.15-.14.15h-1.93c-.08 0-.15-.07-.15-.15v-1.17c0-.08.07-.14.15-.14h1.93zm-3.34 0c.08 0 .14.05.14.13v1.17c0 .08-.06.15-.14.15h-1.93c-.1 0-.16-.07-.16-.15v-1.17c0-.08.07-.15.15-.14h1.92zm-3.34-.02c.08 0 .14.07.14.15v1.17c0 .08-.06.14-.14.14h-1.93c-.08 0-.15-.06-.15-.14v-1.17c0-.08.07-.15.15-.15h1.93zm-5.27 1.46c-.07 0-.14-.06-.14-.14v-1.17c0-.1.06-.15.15-.15h1.93c.08 0 .15.06.15.15v1.17c0 .08-.07.14-.15.14H291z"/></g><linearGradient x1="-2577.186" x2="-2564.89" y1="424.394" y2="476.839" gradientTransform="matrix(.225 .974 -.974 .225 1332.493 2515.675)" gradientUnits="userSpaceOnUse"><stop offset="0" stop-color="#fff"/><stop offset="1" stop-color="#B8C0CA"/></linearGradient><path fill="url(#b)" d="M322.24 110.68c-.13 0-.24-.1-.24-.25v-10.18c0-.13.1-.24.24-.24h13v10.68h-13z"/><linearGradient x1="336.031" x2="289.04" y1="110.251" y2="100.617" gradientUnits="userSpaceOnUse"><stop offset="0" stop-color="#fff"/><stop offset="1" stop-color="#B8C0CA"/></linearGradient><path fill="url(#c)" d="M304.74 110.68c-.14 0-.24-.1-.24-.25v-10.18c0-.13.1-.24.24-.24h14.7c.15 0 .26.12.26.25v10.2c0 .12-.1.23-.25.23h-14.7z"/><linearGradient x1="-2591.314" x2="-2578.879" y1="428.596" y2="481.634" gradientTransform="matrix(.225 .974 -.974 .225 1332.493 2515.675)" gradientUnits="userSpaceOnUse"><stop offset="0" stop-color="#fff"/><stop offset="1" stop-color="#B8C0CA"/></linearGradient><path fill="url(#d)" d="M288.76 110.68V100h13.2c.13 0 .23.12.23.25v10.18c0 .14-.12.25-.25.25h-13.2z"/></g><path fill="#fff" d="M10.16 13.67H38.3V32.5H10.17z"/><g transform="matrix(1.035 0 0 1.036 -298.993 -86.061)"><g><path d="M298.6 96.23v1.24h1c.1 0 .16.07.16.15v1.17c0 .07-.07.14-.15.13h-1v12.88h1.02c.08 0 .14.07.14.15v1.17c0 .08-.06.15-.14.15h-1.02v1.2l27.2-.02v-1.18h-1.38c-.08 0-.14-.06-.15-.14v-1.17c0-.08.07-.15.15-.15h1.38V98.95h-1.38c-.08 0-.15-.06-.15-.15v-1.17c0-.08.07-.15.15-.15h1.38v-1.25h-27.2zm2.28 1.4c0-.1.06-.16.15-.16h1.92c.1 0 .15.07.15.15v1.17c0 .07-.06.14-.15.14h-1.92c-.1 0-.15-.07-.15-.15V97.6zm2.23 15.5c0 .07-.06.14-.14.14h-1.93c-.08 0-.15-.07-.15-.15v-1.17c0-.08.07-.14.15-.14h1.93c.08 0 .15.07.15.15v1.17zm1.12-15.5c0-.1.07-.16.15-.15h1.93c.08 0 .14.06.14.14v1.17c0 .07-.06.13-.14.13h-1.93c-.08 0-.15-.06-.15-.14V97.6zm2.08 15.64h-1.93c-.08 0-.14-.07-.15-.15v-1.17c0-.08.07-.14.15-.14h1.93c.08 0 .15.07.15.16v1.16c0 .08-.07.15-.15.15zm1.26-15.65c0-.08.07-.14.15-.14h1.94c.08 0 .14.06.15.14l-.02 1.17c0 .07-.06.14-.14.14h-1.93c-.07 0-.14-.07-.14-.15V97.6zm2.08 15.65h-1.93c-.07 0-.13-.07-.13-.15v-1.17c0-.08.06-.14.14-.14h1.94c.08 0 .15.07.15.15v1.17c0 .08-.08.15-.16.15zm1.26-15.65c0-.08.07-.14.15-.14h1.93c.08 0 .15.06.15.14v1.17c0 .07-.07.14-.15.14h-1.93c-.08 0-.15-.07-.15-.15V97.6zm2.08 15.65h-1.92c-.1 0-.15-.07-.15-.15v-1.17c0-.08.08-.14.16-.14h1.92c.08 0 .15.07.15.16v1.16c0 .1-.06.15-.15.15zm1.27-15.65c0-.08.06-.14.14-.14h1.92c.08 0 .15.06.15.14v1.17c0 .07-.07.14-.15.14h-1.93c-.08 0-.15-.06-.15-.15V97.6zm2.22 15.5c0 .1-.06.15-.15.15h-1.92c-.08 0-.15-.06-.15-.15v-1.16c0-.1.07-.15.15-.15h1.93c.08 0 .14.07.14.16v1.16zm1.12-15.5c0-.08.05-.14.13-.14h1.93c.08 0 .15.06.15.15v1.16c0 .07-.06.14-.14.14h-1.93c-.08 0-.14-.07-.14-.15v-1.17zm2.07 15.65h-1.93c-.08 0-.15-.06-.15-.15v-1.16c0-.08.06-.15.14-.15h1.93c.08 0 .14.08.14.16v1.16c0 .1-.05.15-.13.15zm1.26-15.64c0-.1.07-.15.15-.15H323c.08 0 .15.06.15.14v1.17c0 .07-.06.14-.14.14h-1.92c-.08 0-.15-.07-.15-.15v-1.17zm2.08 15.64h-1.92c-.08 0-.15-.06-.15-.14v-1.17c0-.08.07-.15.15-.15H323c.1 0 .15.08.15.16v1.17c0 .08-.06.14-.14.14z"/><path fill="none" d="M317.73 98.94h1.93c.08 0 .15-.07.15-.15v-1.17c0-.1-.06-.15-.14-.15h-1.93c-.08 0-.14.06-.14.15v1.16c0 .07.05.14.13.14z"/><path fill="none" d="M319.67 111.8h-1.93c-.08 0-.15.08-.15.16v1.16c0 .1.06.15.14.15h1.93c.08 0 .14-.06.14-.15v-1.16c0-.08-.05-.15-.13-.15z"/><path fill="none" d="M304.37 98.94h1.93c.08 0 .14-.07.14-.15V97.6c0-.08-.06-.15-.14-.15h-1.93c-.08 0-.15.07-.15.15v1.17c0 .07.07.14.15.14z"/><path fill="none" d="M323 111.8h-1.92c-.08 0-.15.07-.15.16v1.17c0 .08.07.14.15.14H323c.1 0 .15-.06.15-.14v-1.17c0-.08-.06-.15-.14-.15z"/><path fill="none" d="M321.08 98.94H323c.1 0 .15-.06.15-.15v-1.17c0-.08-.06-.15-.14-.15h-1.92c-.08 0-.15.06-.15.15v1.16c0 .07.07.14.15.14z"/><path fill="none" d="M309.64 111.8h-1.93c-.07 0-.13.07-.13.15v1.17c0 .08.06.15.14.15h1.94c.08 0 .15-.07.15-.15v-1.16c0-.1-.08-.15-.16-.15z"/><path fill="none" d="M312.98 111.8h-1.93c-.07 0-.14.07-.14.16v1.16c0 .08.07.15.16.15h1.92c.08 0 .15-.06.15-.15v-1.16c0-.1-.06-.15-.15-.15z"/><path fill="none" d="M316.32 111.8h-1.92c-.08 0-.15.07-.15.16v1.16c0 .08.06.15.15.15h1.92c.1 0 .15-.06.15-.15v-1.17c0-.08-.06-.14-.15-.14z"/><path fill="none" d="M314.4 98.94h1.92c.08 0 .15-.07.15-.15V97.6c0-.08-.07-.14-.15-.14h-1.93c-.1 0-.15.06-.15.14v1.17c0 .08.06.14.14.14z"/><path fill="none" d="M311.05 98.94h1.93c.08 0 .15-.07.15-.15V97.6c0-.08-.07-.14-.15-.14h-1.93c-.08 0-.14.06-.15.14v1.17c0 .07.07.14.15.14z"/><path fill="none" d="M302.96 111.8h-1.93c-.08 0-.15.07-.15.15v1.17c0 .08.07.15.15.14h1.93c.08 0 .14-.06.14-.14v-1.17c0-.08-.06-.14-.14-.14z"/><path fill="none" d="M306.3 111.8h-1.93c-.08 0-.15.07-.14.15v1.17c0 .08.06.15.14.15h1.93c.08 0 .15-.07.15-.15v-1.17c0-.08-.07-.14-.15-.14z"/><path fill="none" d="M324.27 111.96v1.17c0 .08.07.14.15.14h1.38v-1.46h-1.38c-.08 0-.15.08-.15.16z"/><path fill="none" d="M307.7 98.94h1.94c.08 0 .15-.07.14-.15V97.6c0-.08-.06-.15-.14-.14h-1.93c-.07 0-.14.06-.14.14v1.17c0 .07.07.14.15.14z"/><path fill="none" d="M324.27 97.63v1.16c0 .07.07.14.15.14h1.38v-1.46h-1.38c-.08 0-.15.06-.15.15z"/><path fill="none" d="M301.03 98.94h1.93c.08 0 .14-.07.14-.15V97.6c0-.08-.06-.15-.15-.14h-1.92c-.08 0-.15.06-.15.14v1.17c0 .07.06.13.15.14z"/><path fill="none" d="M299.62 113.27c.08 0 .14-.07.14-.15v-1.17c0-.08-.06-.14-.14-.14h-1.02v1.47h1.02z"/><path fill="none" d="M299.6 98.93c.1 0 .16-.06.16-.14V97.6c0-.08-.06-.15-.15-.15h-1v1.46h1z"/></g><linearGradient x1="-2576.879" x2="-2570.892" y1="434.82" y2="460.356" gradientTransform="matrix(.225 .974 -.974 .225 1332.493 2515.675)" gradientUnits="userSpaceOnUse"><stop offset="0" stop-color="#fff"/><stop offset="1" stop-color="#B8C0CA"/></linearGradient><path fill="url(#e)" d="M322.24 110.68c-.13 0-.24-.1-.24-.25v-10.18c0-.13.1-.24.24-.24h3.56v10.68h-3.56z"/><path fill="url(#f)" d="M304.74 110.68c-.14 0-.24-.1-.24-.25v-10.18c0-.13.1-.24.24-.24h14.7c.15 0 .26.12.26.25v10.2c0 .12-.1.23-.25.23h-14.7z"/><linearGradient x1="-2585.299" x2="-2579.445" y1="444.732" y2="469.7" gradientTransform="matrix(.225 .974 -.974 .225 1332.493 2515.675)" gradientUnits="userSpaceOnUse"><stop offset="0" stop-color="#fff"/><stop offset="1" stop-color="#B8C0CA"/></linearGradient><path fill="url(#g)" d="M298.6 110.68V100h3.35c.14 0 .24.12.24.25v10.18c0 .14-.1.25-.25.25h-3.35z"/></g><path fill="none" stroke="#fff" stroke-width="4" d="M10.16 9.55v27.08"/><path fill="none" stroke="#fff" stroke-width="4" d="M38.3 9.55v27.08"/><path fill="none" stroke="#ed2728" d="M10.16 9.55v27.08" stroke-dasharray="2.2"/><path fill="none" stroke="#ed2728" stroke-width="1.00464" d="M13.78 42H6.53l3.63-5.37L13.78 42z" stroke-linejoin="round"/><path fill="none" stroke="#ed2728" d="M38.3 9.55v27.08" stroke-dasharray="2.2"/><path fill="none" stroke="#ed2728" stroke-width="1.00464" d="M41.94 42H34.7l3.6-5.37L41.95 42z" stroke-linejoin="round"/></g></svg>