<svg xmlns="http://www.w3.org/2000/svg" width="48" height="48" xmlns:xlink="http://www.w3.org/1999/xlink"><defs><linearGradient id="a" x1="322.706" x2="274.555" y1="536.288" y2="485.789" gradientUnits="userSpaceOnUse" gradientTransform="matrix(.964 0 0 .964 -278.873 -486.452)"><stop offset=".028" stop-color="#fff"/><stop offset="1" stop-color="#94A1AF"/></linearGradient><linearGradient id="b" x1="11.357" x2="43.357" y1="13.929" y2="38.214" xlink:href="#a" gradientUnits="userSpaceOnUse" gradientTransform="matrix(1.078 0 0 1.144 -5.081 -5.864)"/></defs><g><path fill="url(#b)" stroke="#575d66" stroke-width="1.5" d="M6.62 9.5h35.42v28.93H6.62z" color="#000" overflow="visible" enable-background="accumulate"/><path fill="#ef2929" stroke="#fff" stroke-width="1.00368" d="M16.32 13.3a3.18 3.18 0 1 1-6.36 0 3.18 3.18 0 1 1 6.36 0z" opacity=".5" color="#000" overflow="visible" enable-background="accumulate"/><path fill="#ef2929" stroke="#fff" stroke-width="1.00368" d="M48.18 3.3a3.18 3.18 0 1 1-6.36 0 3.18 3.18 0 1 1 6.36 0z" opacity=".5" color="#000" overflow="visible" enable-background="accumulate"/><path fill="#ef2929" stroke="#fff" stroke-width="1.00368" d="M46.86 44.32a3.18 3.18 0 1 1-6.36 0 3.18 3.18 0 1 1 6.36 0z" opacity=".5" color="#000" overflow="visible" enable-background="accumulate"/><path fill="#ef2929" stroke="#fff" stroke-width="1.00368" d="M6.18 35a3.18 3.18 0 1 1-6.36 0 3.18 3.18 0 1 1 6.36 0z" opacity=".5" color="#000" overflow="visible" enable-background="accumulate"/><path fill="none" stroke="#575d66" stroke-width="1.25" d="M13.7 13.44l31.6-9.8-1.34 41.43L2.9 36.1l10.8-22.66z" stroke-dasharray="2.5,1.25"/><path fill="#ef2929" stroke="#fff" stroke-width="1.00368" d="M10.1 9.73a3.18 3.18 0 1 1-6.36 0 3.18 3.18 0 1 1 6.35 0z" color="#000" overflow="visible" enable-background="accumulate"/><path fill="#ef2929" stroke="#fff" stroke-width="1.00368" d="M44.44 9.73a3.18 3.18 0 1 1-6.35 0 3.18 3.18 0 1 1 6.34 0z" color="#000" overflow="visible" enable-background="accumulate"/><path fill="#ef2929" stroke="#fff" stroke-width="1.00368" d="M10.1 38.5a3.18 3.18 0 1 1-6.36 0 3.18 3.18 0 1 1 6.35 0z" color="#000" overflow="visible" enable-background="accumulate"/><path fill="#ef2929" stroke="#fff" stroke-width="1.00368" d="M44.44 38.5a3.18 3.18 0 1 1-6.35 0 3.18 3.18 0 1 1 6.34 0z" color="#000" overflow="visible" enable-background="accumulate"/></g></svg>