<svg xmlns="http://www.w3.org/2000/svg" width="48" height="48" xmlns:xlink="http://www.w3.org/1999/xlink"><defs><linearGradient id="a"><stop offset="0" stop-color="#ae7cbb"/><stop offset="1" stop-color="#5c3566"/></linearGradient><linearGradient x1="6.758" x2="10.429" y1="32.271" y2="35.906" xlink:href="#a" gradientUnits="userSpaceOnUse"/><radialGradient id="b" cx="1723.045" cy="823.962" r="18.517" gradientUnits="userSpaceOnUse" fy="823.962" fx="1723.045"><stop offset="0" stop-color="#575F66"/><stop offset=".039" stop-color="#595E64"/><stop offset=".168" stop-color="#545657"/><stop offset=".301" stop-color="#454545"/><stop offset=".435" stop-color="#323232"/><stop offset=".571" stop-color="#1E1E1E"/><stop offset=".709" stop-color="#121111"/><stop offset=".85" stop-color="#090909"/><stop offset="1"/></radialGradient><radialGradient id="c" cx="1723.045" cy="823.962" r="12.596" gradientUnits="userSpaceOnUse" fy="823.962" fx="1723.045"><stop offset="0" stop-color="#fff"/><stop offset=".259" stop-color="#FCFDFD"/><stop offset="1" stop-color="#F8FAFA"/></radialGradient><radialGradient id="d" cx="1723.044" cy="823.962" r="12.597" gradientUnits="userSpaceOnUse" fy="823.962" fx="1723.044"><stop offset="0" stop-color="#fff"/><stop offset=".259" stop-color="#FCFDFD"/><stop offset="1" stop-color="#F8FAFA"/></radialGradient><radialGradient id="e" cx="1723.044" cy="823.962" r="18.517" gradientUnits="userSpaceOnUse" fy="823.962" fx="1723.044"><stop offset="0" stop-color="#575F66"/><stop offset=".039" stop-color="#595E64"/><stop offset=".168" stop-color="#545657"/><stop offset=".301" stop-color="#454545"/><stop offset=".435" stop-color="#323232"/><stop offset=".571" stop-color="#1E1E1E"/><stop offset=".709" stop-color="#121111"/><stop offset=".85" stop-color="#090909"/><stop offset="1"/></radialGradient><linearGradient x1="6.758" x2="10.429" y1="32.271" y2="35.906" xlink:href="#a" gradientUnits="userSpaceOnUse"/><radialGradient cx="1724.168" cy="825.261" r="18.517" xlink:href="#b" gradientUnits="userSpaceOnUse" fx="1724.168" fy="825.261"/><radialGradient cx="1723.045" cy="823.962" r="12.596" xlink:href="#c" gradientUnits="userSpaceOnUse" fx="1723.045" fy="823.962"/><radialGradient cx="1723.044" cy="823.962" r="12.597" xlink:href="#d" gradientUnits="userSpaceOnUse" fx="1723.044" fy="823.962"/><radialGradient cx="1723.044" cy="823.962" r="18.517" xlink:href="#e" gradientUnits="userSpaceOnUse" fx="1723.044" fy="823.962"/><linearGradient x1="6.758" x2="10.429" y1="32.271" y2="35.906" xlink:href="#a" gradientUnits="userSpaceOnUse"/><linearGradient x1="6.758" x2="10.429" y1="32.271" y2="35.906" xlink:href="#a" gradientUnits="userSpaceOnUse"/><linearGradient x1="6.758" x2="10.429" y1="32.271" y2="35.906" xlink:href="#a" gradientUnits="userSpaceOnUse"/><radialGradient cx="1724.168" cy="825.261" r="18.517" xlink:href="#b" gradientUnits="userSpaceOnUse" fx="1724.168" fy="825.261"/><radialGradient id="f" cx="1720.327" cy="827.034" r="18.517" xlink:href="#b" gradientUnits="userSpaceOnUse" fx="1720.327" fy="827.034" gradientTransform="matrix(1.241 0 0 1.241 -2110.362 -1002.104)"/><radialGradient cx="1720.251" cy="827.061" r="18.517" xlink:href="#e" gradientUnits="userSpaceOnUse" fx="1720.251" fy="827.061"/><radialGradient id="g" cx="1723.045" cy="823.962" r="12.596" xlink:href="#c" gradientUnits="userSpaceOnUse" fx="1723.045" fy="823.962"/><radialGradient id="h" cx="1723.044" cy="823.962" r="12.597" xlink:href="#d" gradientUnits="userSpaceOnUse" fx="1723.044" fy="823.962"/><radialGradient id="i" cx="1720.251" cy="827.061" r="18.517" xlink:href="#e" gradientUnits="userSpaceOnUse" fx="1720.251" fy="827.061" gradientTransform="matrix(1.241 0 0 1.241 -2110.362 -1002.104)"/></defs><g><path fill="url(#f)" d="M24 47.5H.5V24l23.6-.03L24 47.5z"/><path fill="url(#g)" d="M1723.04 823.96l-21.73 3.1v-18.94h18.95l2.8 15.84z" transform="matrix(1.241 0 0 1.241 -2110.362 -1002.104)"/><path fill="url(#h)" d="M1739.2 846h-18.95l2.8-22.04 16.14 3.1V846z" transform="matrix(1.241 0 0 1.241 -2110.362 -1002.104)"/><path fill="url(#i)" d="M47.5 24l-23.4-.03L24 .5h23.5V24z"/><path fill="none" stroke="#000" d="M.5.5h47v47H.5z"/></g></svg>