<svg xmlns="http://www.w3.org/2000/svg" width="48" height="48" xmlns:xlink="http://www.w3.org/1999/xlink"><defs><linearGradient id="a"><stop offset="0"/><stop offset="1" stop-opacity="0"/></linearGradient><linearGradient id="b" x1="6.786" x2="15.929" y1="29.429" y2="49.5" xlink:href="#a" gradientUnits="userSpaceOnUse"/></defs><g><path fill="none" stroke="#fff" stroke-opacity=".502" stroke-width="4" d="M18.52 6.63l8.83 7.74L29.3 3.05 18.52 6.63z"/><path fill="none" stroke="#fff" stroke-opacity=".502" stroke-width="6" d="M6.44 27.87l18.95-20" stroke-linecap="round"/><path fill="none" stroke="#fff" stroke-opacity=".502" stroke-width="5.92.397" d="M9 28.77a3.08 3.1 0 1 1-6.15 0 3.08 3.1 0 1 1 6.16 0z" color="#000" stroke-linecap="round" overflow="visible" enable-background="accumulate"/><path fill="url(#b)" fill-rule="evenodd" d="M4.57 29.57L30 47.43 38 45 8 29l-3.43.57z"/><path fill="none" stroke="#000" stroke-width="3" d="M6.44 27.87l18.95-20" stroke-linecap="round"/><path fill-rule="evenodd" d="M18.77 6.5l8.84 7.74 1.96-11.32-10.8 3.58z"/><path fill="#fff" stroke="#000" stroke-width="2.96.198" d="M9.08 28.7a3.08 3.1 0 1 1-6.17 0 3.08 3.1 0 1 1 6.18 0z" color="#000" stroke-linecap="round" overflow="visible" enable-background="accumulate"/></g></svg>