<svg xmlns="http://www.w3.org/2000/svg" width="48" height="48" xmlns:xlink="http://www.w3.org/1999/xlink"><defs><linearGradient id="d"><stop offset="0" stop-color="#fff"/><stop offset="1"/></linearGradient><linearGradient id="c"><stop offset="0" stop-color="#fff"/><stop offset="1" stop-color="#fff" stop-opacity="0"/></linearGradient><linearGradient id="b"><stop offset="0" stop-color="#fff" stop-opacity=".502"/><stop offset="1" stop-color="#fff" stop-opacity="0"/></linearGradient><linearGradient id="a"><stop offset="0" stop-opacity=".549"/><stop offset="1" stop-opacity="0"/></linearGradient><linearGradient id="e" x1="36.149" x2="10.525" y1="12.773" y2="38.409" xlink:href="#a" gradientUnits="userSpaceOnUse" gradientTransform="matrix(1.098 0 0 1.098 -4.712 0)"/><linearGradient id="f" x1="36.149" x2="10.525" y1="12.773" y2="38.409" xlink:href="#b" gradientUnits="userSpaceOnUse" gradientTransform="matrix(.886 0 0 .886 3.759 1.736)"/><linearGradient x1="36" x2="71.602" y1="34.461" y2="34.461" xlink:href="#c" gradientUnits="userSpaceOnUse" gradientTransform="matrix(1 0 0 .567 -56.442 -49.348)"/><radialGradient id="g" cx="35.47" cy="5.544" r="9.459" xlink:href="#d" fx="35.47" fy="5.544" gradientUnits="userSpaceOnUse" gradientTransform="matrix(1.918 -.042 .042 1.918 -32.782 -3.588)"/><linearGradient id="h" x1="36" x2="71.602" y1="34.461" y2="34.461" xlink:href="#c" gradientUnits="userSpaceOnUse" gradientTransform="matrix(-.764 .789 -.447 -.433 77.341 -6.828)"/></defs><g><path fill="url(#e)" fill-rule="evenodd" d="M35.34.2C18.14 2.77-.58 19.92-1.42 34.04l15.38 15.38C15.56 29.27 27 26.24 41.44 20.8L35.34.2z"/><path d="M47.97 10.92a10.92 10.92 0 1 1-21.84 0 10.92 10.92 0 1 1 21.84 0z" color="#000" overflow="visible" enable-background="accumulate"/><path fill="url(#f)" fill-rule="evenodd" d="M31.2 4.4C17.87 7.3 5.27 20.53.24 35.72l9.4 11.96c3.87-15.47 14.73-26.3 30.7-28.6L31.22 4.4z"/><path fill="url(#g)" d="M47.82 10a9.46 9.46 0 1 1-18.9 0 9.46 9.46 0 1 1 18.9 0z" transform="matrix(.939 0 0 .939 1.052 1.541)" color="#000" overflow="visible" enable-background="accumulate"/><path fill="url(#h)" d="M34.4 8.42C23.72 9.8 12.72 19.85 5.94 32.17l-1.6-2.28C9.16 20.7 18.64 8.3 32.9 5.15c1.64-.4 2.4 1.86 1.5 3.26z" color="#000" overflow="visible" enable-background="accumulate"/></g></svg>