<svg xmlns="http://www.w3.org/2000/svg" width="48" height="48" xmlns:xlink="http://www.w3.org/1999/xlink"><defs><linearGradient id="a"><stop offset="0" stop-color="#ffa6a6"/><stop offset="1" stop-color="#eeeeec" stop-opacity="0"/></linearGradient><linearGradient x1="-.002" x2="1.649" y1="-25.211" y2="34.03" xlink:href="#a" gradientUnits="userSpaceOnUse"/><linearGradient id="b"><stop offset="0" stop-color="#f15c2b"/><stop offset="1" stop-color="#c00"/></linearGradient><radialGradient cx=".438" cy=".425" r="25.584" xlink:href="#b" fx=".438" fy=".425" gradientUnits="userSpaceOnUse"/><linearGradient id="o" x1="237.088" x2="280.796" y1="373.31" y2="373.31" gradientUnits="userSpaceOnUse"><stop offset=".006" stop-color="#fff"/><stop offset=".421" stop-color="#C3CBD4"/><stop offset="1" stop-color="#A1A8B2"/></linearGradient><linearGradient id="p" x1="245.925" x2="275.675" y1="380.283" y2="362.533" gradientUnits="userSpaceOnUse"><stop offset="0" stop-color="#fff"/><stop offset=".528" stop-color="#DBE2E6"/><stop offset="1" stop-color="#B3BDCA"/></linearGradient><linearGradient id="c"><stop offset="0" stop-color="#ffd412"/><stop offset="1" stop-color="#c4a000" stop-opacity="0"/></linearGradient><linearGradient id="C" x1="33.046" x2="21.182" y1="4.195" y2="22.564" xlink:href="#c" gradientUnits="userSpaceOnUse"/><linearGradient id="B" x1="14.634" x2="26.324" y1="4.512" y2="22.746" xlink:href="#d" gradientUnits="userSpaceOnUse"/><linearGradient id="d"><stop offset="0" stop-color="#c4a000"/><stop offset="1" stop-color="#c4a000" stop-opacity="0"/></linearGradient><linearGradient id="A" x1="34.189" x2="47.531" y1="4.512" y2="10.175" xlink:href="#d" gradientUnits="userSpaceOnUse"/><linearGradient id="e"><stop offset="0" stop-color="#fce94f"/><stop offset="1" stop-color="#fce94f" stop-opacity="0"/></linearGradient><linearGradient id="z" x1="24.496" x2="24.018" y1="30.877" y2="44.528" xlink:href="#e" gradientUnits="userSpaceOnUse"/><linearGradient id="f"><stop offset="0" stop-color="#ffec6c"/><stop offset=".625" stop-color="#ffa337"/><stop offset="1" stop-color="#c36000"/></linearGradient><linearGradient id="y" x1="24.911" x2="23.853" y1="13.164" y2="46.705" xlink:href="#f" gradientUnits="userSpaceOnUse" gradientTransform="matrix(.956 0 0 .956 .997 -.003)"/><linearGradient id="g"><stop offset="0" stop-color="#ffd00d"/><stop offset=".5" stop-color="#ff8841"/><stop offset="1" stop-color="#a40000"/></linearGradient><linearGradient id="x" x1="27.069" x2="26.266" y1="13.164" y2="44.864" xlink:href="#g" gradientUnits="userSpaceOnUse" gradientTransform="matrix(.956 0 0 .956 .997 -.003)"/><linearGradient id="h"><stop offset="0" stop-color="#fff"/><stop offset="1" stop-color="#fff" stop-opacity="0"/></linearGradient><linearGradient id="w" x1="18.238" x2="24.573" y1="2.256" y2="29.779" xlink:href="#h" gradientUnits="userSpaceOnUse"/><linearGradient id="i"><stop offset="0" stop-color="#361f3c"/><stop offset="1" stop-color="#894f99"/></linearGradient><linearGradient id="v" x1="24.516" x2="32.563" y1="14.73" y2="1.016" xlink:href="#i" gradientUnits="userSpaceOnUse" gradientTransform="matrix(.956 0 0 .956 .997 -.003)"/><linearGradient id="j"><stop offset="0" stop-color="#6f2b8c"/><stop offset="1" stop-color="#ad7fa8"/></linearGradient><linearGradient id="u" x1="24.389" x2="33.325" y1="19.365" y2="5.016" xlink:href="#j" gradientUnits="userSpaceOnUse" gradientTransform="matrix(.956 0 0 .956 .997 -.003)"/><linearGradient id="k"><stop offset="0" stop-color="#361f3c"/><stop offset="1" stop-color="#6a3d76"/></linearGradient><linearGradient id="t" x1="12.77" x2="6.802" y1="8.325" y2="4.77" xlink:href="#k" gradientUnits="userSpaceOnUse" gradientTransform="matrix(.956 0 0 .956 .997 -.003)"/><linearGradient id="l"><stop offset="0" stop-color="#894f98"/><stop offset="1" stop-color="#321c37"/></linearGradient><linearGradient id="s" x1="32" x2="48.063" y1="7.746" y2="7.746" xlink:href="#l" gradientUnits="userSpaceOnUse" gradientTransform="matrix(.956 0 0 .956 .997 -.003)"/><linearGradient id="m"><stop offset="0" stop-color="#672179"/><stop offset="1" stop-color="#c666bc"/></linearGradient><linearGradient id="r" x1="24" x2="24" y1="29.167" y2="8.341" xlink:href="#m" gradientUnits="userSpaceOnUse" gradientTransform="matrix(.956 0 0 .956 .997 -.003)"/><linearGradient id="n"><stop offset="0" stop-color="#2e3436" stop-opacity=".691"/><stop offset="1" stop-color="#2e3436" stop-opacity="0"/></linearGradient><radialGradient id="q" cx="24.063" cy="42.698" r="21.016" xlink:href="#n" fx="24.063" fy="42.698" gradientTransform="matrix(1 0 0 .267 0 31.282)" gradientUnits="userSpaceOnUse"/><linearGradient x1="237.088" x2="280.796" y1="373.31" y2="373.31" xlink:href="#o" gradientUnits="userSpaceOnUse"/><linearGradient x1="245.925" x2="275.675" y1="380.283" y2="362.533" xlink:href="#p" gradientUnits="userSpaceOnUse"/><radialGradient cx=".438" cy=".425" r="25.584" xlink:href="#b" gradientUnits="userSpaceOnUse" fx=".438" fy=".425"/><linearGradient x1="-.002" x2="1.649" y1="-25.211" y2="34.03" xlink:href="#a" gradientUnits="userSpaceOnUse"/></defs><g><path fill="url(#q)" fill-rule="evenodd" d="M45.08 42.7a21.02 5.62 0 1 1-42.03 0 21.02 5.62 0 1 1 42.03 0z" transform="matrix(.796 0 0 .781 -.457 10.274)" color="#000" overflow="visible"/><g><path fill="url(#r)" fill-rule="evenodd" stroke="#361f3c" d="M23.9 45.46L46.42 14.3 34.77 7.16l-10.82 17.9-10.82-17.9L1.48 14.3l22.4 31.16z" transform="matrix(.798 0 0 .798 -.462 9.711)"/><path fill="url(#s)" fill-rule="evenodd" stroke="#361f3c" d="M46.5 14.28l-6.1-9.25-8-4.3 2.26 6.55 11.83 7z" color="#000" stroke-linejoin="bevel" overflow="visible" transform="matrix(.798 0 0 .798 -.462 9.711)"/><path fill="#5c3566" fill-rule="evenodd" stroke="#361f3c" stroke-width="0.8" d="M9.98 15.57L12 10.15l6.7 11-.05 8.48-8.67-14.06z" stroke-linejoin="bevel"/><path fill="#ad7fa8" fill-rule="evenodd" stroke="url(#t)" d="M1.17 14.3L7.5 4.9 15.65.74l-2.4 6.42L1.18 14.3z" stroke-linejoin="bevel" transform="matrix(.798 0 0 .798 -.462 9.711)"/><path fill="url(#u)" fill-rule="evenodd" stroke="url(#v)" d="M34.76 7.28L32.2.48l-8.07 14.15-.24 10.5L34.75 7.3z" color="#000" stroke-linejoin="bevel" overflow="visible" transform="matrix(.798 0 0 .798 -.462 9.711)"/><path fill="none" stroke="#fce94f" stroke-width="0.8" d="M18.6 44.7l16.87-23.36-7.94-4.76-8.88 14.67-8.92-14.67-7.9 4.76L18.6 44.7z"/><path fill="none" stroke="url(#w)" d="M23.9 42.26l19.73-27.44-8.18-4.9-11.3 18.58L12.37 9.93l-8.18 4.9 19.7 27.43z" transform="matrix(.798 0 0 .798 -.462 9.711)"/><path fill="url(#x)" fill-rule="evenodd" stroke="url(#y)" d="M39.83 21.74c.4-1.85.5-3.66-.84-5.7-.26 4.06-1.5 3-2.36 6.15-.43-4.4-1.98-5.4-2.05-9.13-3.1 5.3.15 9.22-3.67 13.92-.8-2.4 1.3-5.05-.6-7.48-1.85 7.04-4.1 3.4-5.9 10.35-.46-1.38-1.1-2.72-1.94-3.9-.92 1.9-2.06 3.55-1.46 5.74-4.33-4.9-.48-7.3-2.98-11.63-.68 4.1-1.97 2.54-2.83 6.33-1.1-1.38-.85-2.72-1.1-4.26-.66-1.8-1.37-2.03-2.38-3.63 1.05 6.4-1.9 4.1-1.28 6.52L23.9 43.78l15.93-22.04z" transform="matrix(.798 0 0 .798 -.462 9.711)"/><path fill="none" stroke="url(#z)" d="M39.43 21.3c-.1-1.08.42-1.95-.3-3.4-.9 3.38-2.07 2.3-2.82 5-.6-4.02-1.8-3.86-2.05-7.6-.3 4.86-.4 9.75-3.7 13.8-1.35-2.6-.03-5.35.1-8.3-2.93 7.62-3.92 2.56-6.3 11.76-.4-1.2-1.07-3.93-1.8-4.95-.78 1.65-1.76 3.92-1.24 5.8-5-4.88-2.65-7.63-3.1-11.6-1.07 3.53-2.12 2.32-2.87 6-2.57-2.64-.54-5.03-2.75-7.15.18 3.06-1.4 2.36-1.22 4.26L23.83 42.3l15.6-20.98z" transform="matrix(.798 0 0 .798 -.462 9.711)"/><path fill="none" stroke="#fce94f" stroke-width=".4" d="M2.17 19.5l3.77-5.38 4.92-2.62-1.36 3.64-7.33 4.37z"/><path fill="none" stroke="url(#A)" stroke-width=".5" d="M44.7 12.58l-4.85-7.1-6.2-3.27 1.74 4.74 9.3 5.64z" color="#000" overflow="visible" transform="matrix(.798 0 0 .798 -.462 9.711)"/><path fill="none" stroke="url(#B)" stroke-width=".5" d="M13.87 7.25l1.94-4.98 7.48 12.45v7.78l-9.4-15.25z" transform="matrix(.798 0 0 .798 -.462 9.711)"/><path fill="none" stroke="url(#C)" stroke-width=".5" d="M33.9 7.13L32.1 2.2l-7.24 12.46-.18 7.65L33.9 7.14z" color="#000" overflow="visible" transform="matrix(.798 0 0 .798 -.462 9.711)"/></g><path fill="#edd400" stroke="#907500" stroke-width="1.5" d="M39.74 2l-.3 6.6 6.56.82-5.35 3.9 3.45 5.62-6.37-1.75-2.25 6.2-2.6-6.08-6.27 2.1 3.15-5.8L24.2 10l6.5-1.17-.67-6.58L35 6.62 39.75 2z" color="#000" stroke-linecap="round" overflow="visible" enable-background="accumulate"/><path fill="none" stroke="#fff" stroke-width=".73.367" d="M38.67 4.75l-.22 4.83 4.8.6-3.9 2.84 2.5 4.12-4.65-1.3-1.65 4.56-1.9-4.45-4.58 1.55 2.3-4.26-4.07-2.62 4.75-.86-.48-4.8 3.64 3.17 3.47-3.38z" color="#000" stroke-linecap="round" overflow="visible" enable-background="accumulate"/></g></svg>