<svg xmlns="http://www.w3.org/2000/svg" width="48" height="48"><defs><linearGradient id="a" x1="336.12" x2="290.416" y1="193.985" y2="181.109" gradientUnits="userSpaceOnUse" gradientTransform="matrix(1.053 0 0 1.053 -304.598 -178.224)"><stop offset="0" stop-color="#fff"/><stop offset="1" stop-color="#B8C0CA"/></linearGradient><linearGradient id="b" x1="334.463" x2="288.757" y1="199.86" y2="186.983" gradientUnits="userSpaceOnUse" gradientTransform="matrix(1.053 0 0 1.053 -304.598 -178.224)"><stop offset="0" stop-color="#fff"/><stop offset="1" stop-color="#B8C0CA"/></linearGradient><linearGradient id="c" x1="333.63" x2="287.924" y1="202.818" y2="189.941" gradientUnits="userSpaceOnUse" gradientTransform="matrix(1.053 0 0 1.053 -304.598 -178.224)"><stop offset="0" stop-color="#fff"/><stop offset="1" stop-color="#B8C0CA"/></linearGradient><linearGradient id="d" x1="335.391" x2="289.686" y1="196.568" y2="183.692" gradientUnits="userSpaceOnUse" gradientTransform="matrix(1.053 0 0 1.053 -304.598 -178.224)"><stop offset="0" stop-color="#fff"/><stop offset="1" stop-color="#B8C0CA"/></linearGradient><linearGradient id="e" x1="336.504" x2="290.793" y1="192.624" y2="179.746" gradientUnits="userSpaceOnUse" gradientTransform="matrix(1.053 0 0 1.053 -304.598 -178.224)"><stop offset="0" stop-color="#fff"/><stop offset="1" stop-color="#B8C0CA"/></linearGradient></defs><g><g><path d="M48.14 35.26v-1.5h-1.8c-.1 0-.18-.08-.17-.18v-1.5c0-.1.08-.17.18-.17h1.8V15.56h-1.8c-.1 0-.2-.08-.2-.18V13.9c0-.12.1-.2.2-.2h1.8v-1.6L0 12.13v1.57h2.1c.1 0 .18.07.18.18v1.48c0 .1-.1.18-.2.2H0V31.9h2.1c.1 0 .18.08.18.2v1.47c0 .1-.08.2-.2.2H0v1.5h48.14zM3.9 15.56c-.12 0-.2-.1-.2-.2v-1.48c0-.1.08-.2.2-.2h2.43c.1 0 .2.1.2.2v1.48c0 .1-.1.2-.2.2H3.9zm4.23 0c-.1 0-.18-.1-.18-.2v-1.48c0-.1.08-.2.2-.2h2.44c.1 0 .17.1.17.2v1.48c0 .1-.08.2-.2.2H8.14zm4.25 0c-.1 0-.2-.1-.2-.2v-1.48c0-.1.1-.2.2-.18h2.45c.1 0 .2.08.2.18v1.48c0 .1-.1.2-.2.2h-2.45zm4.25 0c-.1 0-.2-.1-.2-.2V13.9c0-.1.1-.18.2-.18h2.45c.1 0 .18.08.18.18v1.5c0 .1-.08.17-.2.17h-2.43zm4.24 0c-.1 0-.2-.1-.2-.2l.02-1.48c-.02-.1.07-.2.17-.18h2.45c.1 0 .2.08.2.18v1.5c0 .1-.1.18-.2.17h-2.45zm4.25 0c-.1 0-.2-.1-.2-.2V13.9c0-.1.1-.18.2-.18h2.45c.1 0 .18.08.18.18v1.5c0 .1-.08.17-.2.17h-2.43zm4.24 0c-.1 0-.2-.1-.18-.2V13.9c0-.12.08-.2.18-.2h2.45c.12 0 .2.08.2.18v1.5c0 .1-.08.17-.2.17h-2.44zm4.25 0c-.1 0-.18-.1-.18-.2V13.9c0-.12.1-.2.2-.2h2.44c.1 0 .2.08.18.2v1.47c0 .1-.08.2-.18.2H33.6zm4.25 0c-.1 0-.18-.08-.18-.2V13.9c0-.12.08-.2.18-.2h2.45c.1 0 .2.08.2.2v1.47c0 .1-.1.2-.2.2h-2.45zm4.25 0c-.1 0-.2-.08-.2-.2V13.9c0-.12.1-.2.2-.2h2.45c.1 0 .2.08.2.2v1.47c0 .1-.1.2-.2.2H42.1zm2.45 16.35c.1 0 .2.1.2.2v1.48c0 .1-.1.2-.2.2H42.1c-.1 0-.18-.1-.18-.2V32.1c0-.1.08-.2.2-.2h2.43zm-4.24 0c.1 0 .2.1.2.2v1.48c0 .1-.1.2-.2.2h-2.44c-.1 0-.2-.1-.2-.2V32.1c0-.1.1-.2.2-.2h2.45zm-4.24 0c.1 0 .2.1.2.2v1.48c0 .1-.1.2-.2.2H33.6c-.1 0-.17-.1-.18-.2V32.1c0-.1.1-.2.2-.2h2.44zm-4.24 0c.1 0 .18.1.18.2v1.48c0 .1-.08.2-.18.2h-2.45c-.1 0-.2-.1-.2-.2V32.1c0-.1.1-.2.2-.2h2.45zm-4.25 0c.1 0 .2.1.2.2v1.48c0 .1-.1.18-.2.18h-2.45c-.1 0-.18-.08-.2-.18v-1.5c.02-.1.1-.17.2-.17h2.45zm-4.25 0c.1 0 .2.1.2.2v1.48c0 .1-.1.18-.2.18h-2.44c-.1 0-.2-.08-.2-.18v-1.5c0-.1.1-.18.2-.17h2.44zm-4.24 0c.1 0 .18.1.18.2v1.48c0 .1-.08.18-.18.18h-2.45c-.1 0-.2-.08-.2-.18v-1.5c0-.1.1-.17.2-.17h2.45zm-4.25 0c.1 0 .2.1.2.2v1.48c0 .1-.1.18-.2.18h-2.45c-.1 0-.18-.08-.18-.18v-1.5c0-.1.08-.17.18-.18h2.45zm-4.24 0c.1 0 .17.1.17.2v1.48c0 .1-.08.18-.18.18H8.13c-.1 0-.2-.08-.2-.2V32.1c0-.1.1-.2.2-.2h2.45zm-4.26 0c.1 0 .2.08.2.2v1.47c0 .1-.1.2-.2.2H3.9c-.1 0-.2-.1-.2-.2V32.1c0-.12.1-.2.2-.2h2.44z"/></g><path fill="url(#a)" d="M39.93 30.47c-.17 0-.3-.14-.3-.3V17.22c0-.18.13-.32.3-.32h2.03c.18 0 .3.15.32.32v12.94c0 .17-.14.3-.3.3h-2.05z"/><path fill="url(#b)" d="M13.37 30.47c-.18 0-.32-.14-.32-.3V17.2c0-.17.14-.3.3-.3h7.76c.2 0 .33.13.32.3v12.94c0 .17-.13.3-.3.3h-7.75z"/><path fill="url(#c)" d="M0 30.47V16.9h10.55c.2 0 .3.15.3.32v12.94c0 .17-.1.3-.3.3H0z"/><path fill="url(#d)" d="M23.95 30.47c-.18 0-.3-.14-.3-.3l-.02-12.94c0-.17.14-.3.32-.3l13.15-.02c.17 0 .3.15.3.32v12.94c0 .17-.13.3-.3.3H23.95z"/><path fill="url(#e)" d="M44.8 30.47c-.17 0-.3-.14-.3-.3l-.02-12.94c0-.18.14-.32.32-.32l3.34.02v13.55H44.8z"/><path fill="#ed2728" d="M14.44 41.15H9.56L12 37.53l2.44 3.62z"/><path fill="#ed2728" d="M24.92 41.15h-4.9l2.46-3.62 2.44 3.62z"/><path fill="#ed2728" d="M40.9 41.15h-4.88l2.44-3.62 2.45 3.62z"/><path fill="#ed2728" d="M45.77 41.15h-4.9l2.46-3.62 2.44 3.62z"/><path fill="#ed2728" d="M14.44 6.23H9.56L12 9.85l2.44-3.62z"/><path fill="#ed2728" d="M24.92 6.23h-4.9l2.46 3.62 2.44-3.62z"/><path fill="#ed2728" d="M40.9 6.24h-4.88l2.44 3.6 2.45-3.6z"/><path fill="#ed2728" d="M45.77 6.24h-4.9l2.46 3.6 2.44-3.6z"/></g></svg>