<svg xmlns="http://www.w3.org/2000/svg" width="48" height="48"><defs><radialGradient id="b" cx="636.368" cy="367.068" r="7.231" gradientUnits="userSpaceOnUse" gradientTransform="matrix(-1 0 0 1 638.495 0)" fy="367.068" fx="636.368"><stop offset="0" stop-color="#fff"/><stop offset="1" stop-color="#8D9BA6"/></radialGradient><radialGradient id="a" cx="635.165" cy="368.416" r="5.944" gradientUnits="userSpaceOnUse" gradientTransform="matrix(-1 0 0 1 638.495 0)" fy="368.416" fx="635.165"><stop offset="0" stop-color="#fff"/><stop offset=".09" stop-color="#F9FAFA"/><stop offset=".211" stop-color="#E8EBED"/><stop offset=".35" stop-color="#CCD2D7"/><stop offset=".5" stop-color="#A5B0B8"/><stop offset=".579" stop-color="#8E9CA6"/><stop offset="1" stop-color="#505359"/></radialGradient><radialGradient id="d" cx="634.169" cy="346.805" r="6.609" gradientUnits="userSpaceOnUse" gradientTransform="matrix(-1 0 0 1 638.495 0)" fy="346.805" fx="634.169"><stop offset="0" stop-color="#fff"/><stop offset="1" stop-color="#8D9BA6"/></radialGradient><radialGradient id="c" cx="633.068" cy="348.035" r="5.433" gradientUnits="userSpaceOnUse" gradientTransform="matrix(-1 0 0 1 638.495 0)" fy="348.035" fx="633.068"><stop offset="0" stop-color="#fff"/><stop offset=".09" stop-color="#F9FAFA"/><stop offset=".211" stop-color="#E8EBED"/><stop offset=".35" stop-color="#CCD2D7"/><stop offset=".5" stop-color="#A5B0B8"/><stop offset=".579" stop-color="#8E9CA6"/><stop offset="1" stop-color="#505359"/></radialGradient><radialGradient id="f" cx="597.214" cy="348.522" r="7.153" gradientUnits="userSpaceOnUse" gradientTransform="matrix(-1 0 0 1 638.495 0)" fy="348.522" fx="597.214"><stop offset="0" stop-color="#fff"/><stop offset="1" stop-color="#8D9BA6"/></radialGradient><radialGradient id="e" cx="596.023" cy="349.856" r="5.881" gradientUnits="userSpaceOnUse" gradientTransform="matrix(-1 0 0 1 638.495 0)" fy="349.856" fx="596.023"><stop offset="0" stop-color="#fff"/><stop offset=".09" stop-color="#F9FAFA"/><stop offset=".211" stop-color="#E8EBED"/><stop offset=".35" stop-color="#CCD2D7"/><stop offset=".5" stop-color="#A5B0B8"/><stop offset=".579" stop-color="#8E9CA6"/><stop offset="1" stop-color="#505359"/></radialGradient><linearGradient id="g" x1="6.723" x2="12.938" y1="367.195" y2="365.172" gradientUnits="userSpaceOnUse"><stop offset="0" stop-color="#A0C6DE"/><stop offset="1" stop-color="#fff"/></linearGradient><linearGradient id="h" x1="10.224" x2="17.122" y1="351.859" y2="357.298" gradientUnits="userSpaceOnUse"><stop offset="0" stop-color="#A0C6DE"/><stop offset="1" stop-color="#fff"/></linearGradient><linearGradient id="i" x1="38.643" x2="30.789" y1="356.029" y2="360.293" gradientUnits="userSpaceOnUse"><stop offset="0" stop-color="#A0C6DE"/><stop offset="1" stop-color="#fff"/></linearGradient><radialGradient id="j" cx="24.205" cy="361.856" r="14.261" gradientUnits="userSpaceOnUse" fy="361.856" fx="24.205" gradientTransform="translate(0 -336.211)"><stop offset=".702" stop-color="#fff"/><stop offset="1" stop-color="#A0C6DE"/></radialGradient><radialGradient id="k" cx="18.524" cy="354.704" r="22.825" gradientUnits="userSpaceOnUse" fy="354.704" fx="18.524"><stop offset="0" stop-color="#fff"/><stop offset="1" stop-color="#C2CED4"/></radialGradient><radialGradient id="l" cx="40.503" cy="382.765" r="21.824" gradientUnits="userSpaceOnUse" fy="382.765" fx="40.503"><stop offset="0" stop-color="#fff"/><stop offset="1" stop-color="#8794A0"/></radialGradient><radialGradient id="m" cx="26.959" cy="380.197" r="28.317" gradientUnits="userSpaceOnUse" fy="380.197" fx="26.959"><stop offset="0" stop-color="#fff"/><stop offset="1" stop-color="#8794A0"/></radialGradient></defs><g><g transform="translate(0 -336.211)"><radialGradient cx="635.165" cy="368.416" r="5.944" gradientUnits="userSpaceOnUse" gradientTransform="matrix(-1 0 0 1 638.495 0)" fy="368.416" fx="635.165"><stop offset="0" stop-color="#fff"/><stop offset=".09" stop-color="#F9FAFA"/><stop offset=".211" stop-color="#E8EBED"/><stop offset=".35" stop-color="#CCD2D7"/><stop offset=".5" stop-color="#A5B0B8"/><stop offset=".579" stop-color="#8E9CA6"/><stop offset="1" stop-color="#505359"/></radialGradient><circle cx="4.477" cy="370.021" r="3.977" fill="url(#a)" stroke="#192333"/><g><radialGradient cx="636.368" cy="367.068" r="7.231" gradientUnits="userSpaceOnUse" gradientTransform="matrix(-1 0 0 1 638.495 0)" fy="367.068" fx="636.368"><stop offset="0" stop-color="#fff"/><stop offset="1" stop-color="#8D9BA6"/></radialGradient><path fill="url(#b)" d="M4.48 366.15c-2.14 0-3.87 1.74-3.87 3.87 0 2.14 1.74 3.87 3.88 3.87 2.13 0 3.87-1.74 3.87-3.88 0-2.13-1.74-3.87-3.87-3.87zm0 7.1c-1.78 0-3.22-1.45-3.22-3.23 0-1.77 1.45-3.2 3.22-3.2 1.77 0 3.2 1.43 3.2 3.2 0 1.78-1.43 3.22-3.2 3.22z"/></g></g><path fill="#fff" stroke="#567c99" stroke-width=".7" d="M10.1 35.24c-.8-1.78-3.96-2.38-4.37-2.3.5-1.66-2.2-2.24-3.53-2.26 1.16-.1 2-.57 2.17-.8.26-.4 0-1.56-.52-3.15 2.87 3.43 3.26 3.46 3.6 3.66.16.1.82 0 1.14-.52-.03 1.25.52 3.06 2.65 4.95-1.8-1.44-1.15.4-1.15.4z"/><g transform="translate(0 -336.211)"><radialGradient cx="633.068" cy="348.035" r="5.433" gradientUnits="userSpaceOnUse" gradientTransform="matrix(-1 0 0 1 638.495 0)" fy="348.035" fx="633.068"><stop offset="0" stop-color="#fff"/><stop offset=".09" stop-color="#F9FAFA"/><stop offset=".211" stop-color="#E8EBED"/><stop offset=".35" stop-color="#CCD2D7"/><stop offset=".5" stop-color="#A5B0B8"/><stop offset=".579" stop-color="#8E9CA6"/><stop offset="1" stop-color="#505359"/></radialGradient><circle cx="6.475" cy="349.503" r="3.635" fill="url(#c)" stroke="#192333"/><g><radialGradient cx="634.169" cy="346.805" r="6.609" gradientUnits="userSpaceOnUse" gradientTransform="matrix(-1 0 0 1 638.495 0)" fy="346.805" fx="634.169"><stop offset="0" stop-color="#fff"/><stop offset="1" stop-color="#8D9BA6"/></radialGradient><path fill="url(#d)" d="M6.47 345.96c-1.95 0-3.53 1.6-3.53 3.54 0 1.96 1.58 3.54 3.53 3.54 1.96 0 3.54-1.58 3.54-3.54 0-1.95-1.57-3.54-3.53-3.54zm0 6.48c-1.6 0-2.93-1.32-2.93-2.94 0-1.62 1.32-2.93 2.93-2.93 1.63 0 2.94 1.3 2.94 2.93 0 1.62-1.3 2.94-2.93 2.94z"/></g></g><path fill="#fff" stroke="#567c99" stroke-width=".7" d="M3 16.55c3.98-.6 4.9-1.4 5.72-2.24.9-.9 1.3-1.96 1.37-2.75-.16 1.33.83.78 1.8.07-.88.85-1.1 2.44-1 2.76.08.3.68.8 1 .83-1.12.18-2.78 1.35-3.32 3.3.06-.8-1.55-.75-2.52.2 1.12-1.72-.74-2.24-3.06-2.15z"/><g transform="translate(0 -336.211)"><radialGradient cx="596.023" cy="349.856" r="5.881" gradientUnits="userSpaceOnUse" gradientTransform="matrix(-1 0 0 1 638.495 0)" fy="349.856" fx="596.023"><stop offset="0" stop-color="#fff"/><stop offset=".09" stop-color="#F9FAFA"/><stop offset=".211" stop-color="#E8EBED"/><stop offset=".35" stop-color="#CCD2D7"/><stop offset=".5" stop-color="#A5B0B8"/><stop offset=".579" stop-color="#8E9CA6"/><stop offset="1" stop-color="#505359"/></radialGradient><circle cx="43.606" cy="351.443" r="3.934" fill="url(#e)" stroke="#192333"/><g><radialGradient cx="597.214" cy="348.522" r="7.153" gradientUnits="userSpaceOnUse" gradientTransform="matrix(-1 0 0 1 638.495 0)" fy="348.522" fx="597.214"><stop offset="0" stop-color="#fff"/><stop offset="1" stop-color="#8D9BA6"/></radialGradient><path fill="url(#f)" d="M43.6 347.6c-2.1 0-3.82 1.73-3.82 3.84 0 2.12 1.7 3.83 3.83 3.83 2.12 0 3.84-1.7 3.84-3.83 0-2.1-1.72-3.83-3.83-3.83zm0 7.02c-1.75 0-3.17-1.42-3.17-3.18 0-1.75 1.42-3.18 3.18-3.18 1.76 0 3.2 1.43 3.2 3.18 0 1.76-1.44 3.18-3.2 3.18z"/></g></g><path fill="#fff" stroke="#567c99" stroke-width=".7" d="M38.03 13.66c.8 1.8 3.96 2.4 4.37 2.3-.5 1.66 2.2 2.25 3.54 2.26-1.17.1-2 .57-2.18.8-.26.4 0 1.56.52 3.15-2.87-3.43-3.26-3.46-3.6-3.66-.16-.1-.82 0-1.14.52.02-1.25-.53-3.06-2.66-4.94 1.8 1.43 1.15-.42 1.15-.42z"/><path fill="url(#g)" d="M4.47 365.7l8.53-4.85 5.9 6.68-10.45 2.37-3.98-4.2z" transform="translate(0 -336.211)"/><path fill="url(#h)" d="M6.47 353.04l8.4 10.82 9.04-9.56-13.43-4.8-4 3.54z" transform="translate(0 -336.211)"/><path fill="url(#i)" d="M39.3 351.2l-8.47 3.15 3.15 10.14 9.3-9.24-3.98-4.05z" transform="translate(0 -336.211)"/><path fill="url(#j)" stroke="#567c99" stroke-width=".7" d="M11.4 19.76c4.47.54 11.74-2.5 13.5-7.28.6 6.28 10.72 6.47 12.68 6.08-5.3 2-3.66 5.34-.43 8.25-1.12.37-3.32 1.15-2.72 2.6.46 1.1 4.3 4.43 6.37 4.9-3.55-.7-8.5-.27-11.44 1.02-1.07.47-4.13 3-4.5 4.03.3-1.85-2.53-3.7-3.78-4-2.65-.62-6.04-.64-10.35 1 5.57-4.26 3.3-6.76 2.62-7.34-.7-.6-2.46-1.42-4.48-1.57 1.66-.6 8.3-5 2.52-7.67"/><path fill="none" stroke="#fff" stroke-width="2" d="M16.83 30.9l7.42 4.05 8.06-3.83.07-9.14-7.53-3.7-8.15 3.5.13 9.13z"/><path fill="url(#k)" d="M24.2 361.86L16.7 358l8.14-3.5 7.53 3.7-8.16 3.66z" transform="translate(0 -336.211)"/><path fill="url(#l)" d="M32.3 367.33l-8.05 3.83-.05-9.3 8.17-3.67-.06 9.13z" transform="translate(0 -336.211)"/><path fill="none" stroke="#e9eaeb" d="M24.2 25.64l8.17-3.66"/><path fill="url(#m)" d="M24.2 361.86L16.7 358l.13 9.12 7.42 4.04-.05-9.3z" transform="translate(0 -336.211)"/><path fill="none" stroke="#e9eaeb" d="M16.7 21.78l7.5 3.86.05 9.3"/><path fill="none" stroke="#192333" stroke-width=".8" d="M16.83 30.9l7.42 4.05 8.06-3.83.07-9.14-7.53-3.7-8.15 3.5.13 9.13z"/><path fill="#fff" stroke="#567c99" stroke-width=".7" d="M35.5 12.8l1.42 1.3"/></g></svg>