<svg xmlns="http://www.w3.org/2000/svg" width="48" height="48"><defs><radialGradient id="a" cx="20.68" cy="99.084" r="10.43" gradientUnits="userSpaceOnUse" fy="99.084" fx="20.68"><stop offset="0" stop-color="#fff"/><stop offset="1" stop-color="#8794A0"/></radialGradient><radialGradient id="b" cx="15.056" cy="108.209" r="21.287" gradientUnits="userSpaceOnUse" fy="108.209" fx="15.056"><stop offset="0" stop-color="#fff"/><stop offset="1" stop-color="#8794A0"/></radialGradient><radialGradient id="c" cx="34.737" cy="109.547" r="12.698" gradientUnits="userSpaceOnUse" fy="109.547" fx="34.737"><stop offset="0" stop-color="#fff"/><stop offset="1" stop-color="#8794A0"/></radialGradient><radialGradient id="d" cx="29.061" cy="133.916" r="25.895" gradientUnits="userSpaceOnUse" fy="133.916" fx="29.061" gradientTransform="matrix(.993 -.573 .573 .993 -73.1 -81.441)"><stop offset="0" stop-color="#fff"/><stop offset="1" stop-color="#8794A0"/></radialGradient><radialGradient id="e" cx="17.557" cy="133.916" r="25.895" gradientUnits="userSpaceOnUse" fy="133.916" fx="17.557" gradientTransform="matrix(.993 -.573 .573 .993 -73.1 -81.441)"><stop offset="0" stop-color="#fff"/><stop offset="1" stop-color="#8794A0"/></radialGradient><radialGradient id="f" cx="21.355" cy="112.655" r="21.617" gradientUnits="userSpaceOnUse" fy="112.655" fx="21.355" gradientTransform="matrix(.993 -.573 .573 .993 -73.1 -81.441)"><stop offset="0" stop-color="#BAD1D7"/><stop offset="1" stop-color="#8794A0"/></radialGradient><radialGradient id="g" cx="31.08" cy="114.54" r="5.529" gradientUnits="userSpaceOnUse" fy="114.54" fx="31.08" gradientTransform="matrix(.993 -.573 .573 .993 -73.1 -81.441)"><stop offset="0" stop-color="#BAD1D7"/><stop offset="1" stop-color="#8794A0"/></radialGradient><radialGradient id="h" cx="16.43" cy="132.833" r="67.213" gradientUnits="userSpaceOnUse" fy="132.833" fx="16.43" gradientTransform="matrix(.993 -.573 .573 .993 -73.1 -81.441)"><stop offset="0" stop-color="#fff"/><stop offset="1" stop-color="#8794A0"/></radialGradient><radialGradient id="i" cx="16.43" cy="132.833" r="67.213" gradientUnits="userSpaceOnUse" fy="132.833" fx="16.43" gradientTransform="matrix(.993 -.573 .573 .993 -73.1 -81.441)"><stop offset="0" stop-color="#fff"/><stop offset="1" stop-color="#8794A0"/></radialGradient><radialGradient id="j" cx="31.758" cy="130.655" r="20.082" gradientUnits="userSpaceOnUse" fy="130.655" fx="31.758" gradientTransform="matrix(.993 -.573 .573 .993 -73.1 -81.441)"><stop offset="0" stop-color="#BAD1D7"/><stop offset="1" stop-color="#8794A0"/></radialGradient><radialGradient id="k" cx="21.069" cy="129.221" r="69.328" gradientUnits="userSpaceOnUse" fy="129.221" fx="21.069" gradientTransform="matrix(.993 -.573 .573 .993 -73.1 -81.441)"><stop offset="0" stop-color="#fff"/><stop offset="1" stop-color="#8794A0"/></radialGradient><radialGradient id="l" cx="21.566" cy="106.066" r="14.792" gradientUnits="userSpaceOnUse" fy="106.066" fx="21.566" gradientTransform="matrix(.993 -.573 .573 .993 -73.1 -81.441)"><stop offset="0" stop-color="#fff"/><stop offset="1" stop-color="#8794A0"/></radialGradient><radialGradient id="m" cx="32.614" cy="113.457" r="13.184" gradientUnits="userSpaceOnUse" fy="113.457" fx="32.614" gradientTransform="matrix(.993 -.573 .573 .993 -73.1 -81.441)"><stop offset="0" stop-color="#fff"/><stop offset="1" stop-color="#8794A0"/></radialGradient></defs><g><g transform="matrix(.993 -.573 .573 .993 -73.1 -81.441)"><radialGradient cx="20.68" cy="99.084" r="10.43" gradientUnits="userSpaceOnUse" fy="99.084" fx="20.68"><stop offset="0" stop-color="#fff"/><stop offset="1" stop-color="#8794A0"/></radialGradient><path fill="url(#a)" d="M23.3 96.63c-2.23 0-4.04 1.8-4.04 4.05 0 2.23 1.8 4.05 4.05 4.05s4.06-1.8 4.06-4.05c0-2.24-1.8-4.05-4.05-4.05zm0 6.2c-1.18 0-2.14-.96-2.14-2.15 0-1.2.96-2.15 2.15-2.15 1.2 0 2.16.96 2.16 2.15 0 1.2-.96 2.15-2.15 2.15z"/></g><path fill="#2d3335" d="M26.23 41.2c-5.75 1.08-12.33-1.7-14.04-7.8-1.48-5.3.34-8.34 3.76-14.45 3.08-5.5 3.05-7.68 1.37-9.82-2.5-3.2-5.73-2.3-7.04-2.15-2.18.26-2.44-1.35-1.78-2.1.94-1.07 3.68-1.67 7.26-.63 3.32.96 4.7 4.38 5.14 5.98.43 1.6.46 6.34-2.84 11.4-2.76 4.22-4.47 8.9-2.65 12.05 2.36 4.1 6.6 5.27 12.2 3.47"/><path fill="url(#b)" d="M21.45 109.4l-11.3.63 13.16.9-1.85-1.54z" transform="matrix(.993 -.573 .573 .993 -73.1 -81.441)"/><path fill="url(#c)" d="M25.17 109.4l11.3.63-13.16.9 1.87-1.54z" transform="matrix(.993 -.573 .573 .993 -73.1 -81.441)"/><path fill="url(#d)" d="M28.8 41.58l2.68 4.66c-3 .07-15.95 4.45-25.8-3.74l-1.56 3.8-1.2-9.24c6.02 6.55 15.7 10.4 25.8 4.56"/><path fill="url(#e)" d="M31.48 46.24c1.57-2.58 11.84-11.6 9.67-24.2l4.07.54-7.4-5.66c2.66 8.48 1.1 18.82-9.02 24.66l2.68 4.66z"/><path fill="url(#f)" d="M13.64 15.33L.06 22s2.88.9 4.43 0l7.84-4.2 1.3-2.47z"/><path fill="url(#g)" d="M13.64 15.33L26.2 6.9s-.66 2.95-2.2 3.85l-7.57 4.7-2.8-.12z"/><path fill="url(#h)" d="M28.73 41.62s-5.97.3-7.62-.16C17.58 43.5 10.43 42 7.85 39.7l3.3-2.58-8.22-.05c6.02 6.54 15.7 10.4 25.8 4.55z"/><path fill="url(#i)" d="M28.86 41.55s3.23-5.03 3.68-6.68c3.54-2.04 5.82-9 5.1-12.38l-3.9 1.57 4.08-7.15c2.66 8.48 1.16 18.78-8.96 24.63z"/><path fill="url(#j)" d="M28.86 41.55s3.23-5.03 3.68-6.68c-4.35 2.5-16.1-19.43-16.1-19.43l-2.8-.1 15.22 26.2z"/><path fill="url(#k)" d="M28.73 41.62s-5.97.3-7.62-.16c4.36-2.5-8.76-23.65-8.76-23.65l1.3-2.47L28.8 41.58l-.07.04z"/><path fill="url(#l)" d="M8.24 9.78c1.05 1.9 1.97 3.7 2.67 5.1l2.74.45-3.55-6.15"/><path fill="url(#m)" d="M11.53 7.88c1.12 1.86 2.2 3.55 3.08 4.87l-.96 2.58-3.55-6.15"/><path fill="none" stroke="#fff" stroke-width=".7014999999999999" d="M26.2 6.9l-12.56 8.43L.06 22"/><path fill="none" stroke="#fff" stroke-width=".7" d="M10.1 9.18l18.7 32.4s-5.98.3-7.63-.15"/><g><path fill="none" stroke="#2d3335" stroke-width=".7014999999999999" d="M9 7.3c-1.18.68-2.7.28-3.37-.9-.68-1.18-.27-2.7.9-3.37 1.18-.68 2.7-.28 3.37.9.7 1.18.28 2.7-.9 3.37zm28.82 9.62l-4.07 7.15 3.9-1.58c.7 3.38-1.57 10.33-5.1 12.37-4.36 2.5-16.1-19.43-16.1-19.43l7.54-4.7c1.55-.9 2.2-3.83 2.2-3.83l-11.6 5.85c-.86-1.32-1.95-3-3.07-4.87 1.04-1.43 1.2-3.4.26-5.04C10.5.62 7.66-.14 5.44 1.14c-2.22 1.3-2.98 4.13-1.7 6.35.94 1.62 2.73 2.46 4.5 2.28 0 0 1.96 3.7 2.66 5.1L.08 22s2.87.9 4.42 0l7.84-4.2s13.12 21.16 8.77 23.66C17.58 43.5 10.43 42 7.85 39.7l3.3-2.58-8.22-.05 1.2 9.24 1.57-3.8c9.83 8.2 22.77 3.8 25.78 3.74 1.57-2.58 11.84-11.6 9.67-24.2l4.07.54-7.4-5.66z"/></g></g></svg>