<svg xmlns="http://www.w3.org/2000/svg" width="48" height="48" xmlns:xlink="http://www.w3.org/1999/xlink"><defs><linearGradient id="d"><stop offset="0" stop-color="#2e3436"/><stop offset="1" stop-color="#2e3436" stop-opacity="0"/></linearGradient><linearGradient id="c"><stop offset="0" stop-color="#2e3436"/><stop offset="1" stop-color="#2e3436" stop-opacity="0"/></linearGradient><linearGradient id="b"><stop offset="0" stop-color="#babdb6"/><stop offset="1" stop-color="#888a85"/></linearGradient><linearGradient id="a"><stop offset="0"/><stop offset="1" stop-opacity="0"/></linearGradient><radialGradient id="f" cx="98.428" cy="15.948" r="19.588" gradientUnits="userSpaceOnUse" fy="15.948" fx="98.428"><stop offset="0" stop-color="#fff"/><stop offset="1" stop-color="#8794A0"/></radialGradient><radialGradient id="g" cx="108.535" cy="-1.444" r="32.544" gradientUnits="userSpaceOnUse" fy="-1.444" fx="108.535"><stop offset="0" stop-color="#fff"/><stop offset="1" stop-color="#8794A0"/></radialGradient><radialGradient id="i" cx="113.36" cy="23.414" r="20.93" gradientUnits="userSpaceOnUse" fy="23.414" fx="113.36"><stop offset="0" stop-color="#fff"/><stop offset="1" stop-color="#8794A0"/></radialGradient><radialGradient id="j" cx="125.836" cy="22.138" r="29.536" gradientUnits="userSpaceOnUse" fy="22.138" fx="125.836"><stop offset="0" stop-color="#fff"/><stop offset="1" stop-color="#8794A0"/></radialGradient><radialGradient id="k" cx="110.2" cy="37.086" r="27.944" gradientUnits="userSpaceOnUse" fy="37.086" fx="110.2"><stop offset="0" stop-color="#fff"/><stop offset="1" stop-color="#8794A0"/></radialGradient><linearGradient id="h" x1="22.929" x2="10.143" y1="25.179" y2="25.179" xlink:href="#a" gradientUnits="userSpaceOnUse" gradientTransform="matrix(.882 0 0 1 2.913 0)"/><linearGradient id="o" x1="25.043" x2="28.527" y1="18.137" y2="17.565" xlink:href="#b" gradientUnits="userSpaceOnUse"/><linearGradient id="m" x1="11.429" x2="17.67" y1="35.423" y2="35.351" xlink:href="#b" gradientUnits="userSpaceOnUse"/><linearGradient id="l" x1="14.718" x2="18.827" y1="41.701" y2="47.695" xlink:href="#c" gradientUnits="userSpaceOnUse" gradientTransform="translate(0 .429)"/><linearGradient id="n" x1="14.718" x2="18.827" y1="41.701" y2="47.695" xlink:href="#c" gradientUnits="userSpaceOnUse" gradientTransform="translate(11.681 -18.916)"/><linearGradient id="e" x1="20.571" x2="49.571" y1="41.571" y2="41.571" xlink:href="#d" gradientUnits="userSpaceOnUse" gradientTransform="matrix(.626 0 0 1 6.487 .214)"/></defs><g><path fill="url(#e)" fill-rule="evenodd" d="M19 37.93l18.57 1.5-.07 7.28-12 .94-6.5-9.7z" color="#000" overflow="visible" enable-background="accumulate"/><path fill="none" stroke="#192333" stroke-width="1.47.363" d="M15.05 21.64l15.56 8.6 9.64-15.6-4.94-6.4-12.86-7.2-8.27 12.5.88 8.1z"/><path fill="none" stroke="#192333" stroke-width="1.47.363" d="M24.55 27.87v18.8L4 47V27.93l1.05-5.13 17.7-.08 1.8 5.15z"/><path fill="url(#f)" d="M110.43 20l-1.23-3.53-12.05.05-.7 3.5 13.98-.03z" transform="matrix(1.469 0 0 1.465 -137.661 -1.414)"/><path fill="url(#g)" d="M111.04 5.3L109 1.7l-5.64 8.53.6 5.54 7.08-10.43z" transform="matrix(1.469 0 0 1.465 -137.661 -1.414)"/><path fill="url(#h)" fill-rule="evenodd" d="M24.64 27.57l-2.96-5.2h-9.5l-.32 5.2h12.78z"/><path fill="url(#i)" d="M121.12 10.96l-6.56 10.65-10.6-5.87 7.08-10.42 10.08 5.66z" transform="matrix(1.469 0 0 1.465 -137.661 -1.414)"/><path fill="url(#j)" d="M109 1.68l8.75 4.9 3.37 4.38-10.08-5.65L109 1.7z" transform="matrix(1.469 0 0 1.465 -137.661 -1.414)"/><path fill="url(#k)" d="M110.43 20V32.8l-14 .22v-13l14-.05z" transform="matrix(1.469 0 0 1.465 -137.661 -1.414)"/><path fill="none" stroke="#fff" stroke-width=".7" d="M25.44 6.37l-10.4 15.27"/><path fill="none" stroke="#fff" stroke-width=".7" d="M25.44 6.37l-3-5.33"/><path fill="none" stroke="#e0e1e2" stroke-width=".7" d="M25.44 6.37l14.8 8.27"/><path fill="none" stroke="#9a9999" stroke-width=".7" d="M15.05 21.64l15.56 8.6"/><path fill="none" stroke="#7e828c" stroke-width=".7" d="M4 47l20.55-.33v-18"/><path fill="none" stroke="#fff" stroke-width=".70119" d="M24.55 27.87l-20.04.06V47"/><path fill="none" stroke="url(#l)" stroke-width="3" d="M13.95 41.28c.1 1.9.96 4.2 1.73 5.27" stroke-linecap="round"/><path fill="#555753" fill-rule="evenodd" stroke="#000" d="M11.14 33.86h7.5l-.07 4.93L17 41.7h-4.7l-1.23-3.2.07-4.64z"/><path fill="none" stroke="#7e828c" stroke-width=".7" d="M19.42 33.05l-9.12.12v6.2"/><path fill="url(#m)" fill-rule="evenodd" d="M11.43 38.3l1.36 3.06V36.8h3.84l1.57-2.44h-6.7l-.07 3.93z" color="#000" overflow="visible" enable-background="accumulate"/><path fill="none" stroke="url(#n)" stroke-width="3" d="M26.2 21.22c.1 1.9-1.04 4.12-.26 5.85" stroke-linecap="round"/><path fill="#555753" fill-rule="evenodd" stroke="#000" d="M27 14.03l6.5 3.73L31 22l-1.9 2.33-4.1-2.35-.37-3.96 2.37-4z"/><path fill="none" stroke="#7e828c" stroke-width=".7" d="M34.58 17.45L26.6 13l-3.08 5.4"/><path fill="url(#o)" fill-rule="evenodd" d="M25.04 18l.37 3.64 2.28-3.54 3 1.7 2.2-1.82-5.82-3.34L25.04 18z"/><path fill="none" stroke="#2e3436" stroke-width="3.5" d="M14.67 39.14c-.62 6.34 11.3 9.34 14.42 3.28 3.34-6.5-4.33-9-.8-21.43" stroke-linecap="round"/><path fill="none" stroke="#d3d7cf" stroke-width="2" d="M14.64 39.14c-.57 6.37 11.64 9.6 14.43 3.3 2.86-6.52-4.04-10.1-.78-21.44" stroke-linecap="round"/><path fill="none" stroke="#fff" d="M14.66 39.15c-.58 6.37 11.64 9.6 14.42 3.28 2.86-6.5-4.04-10.07-.78-21.42" stroke-linecap="round"/></g></svg>