<svg xmlns="http://www.w3.org/2000/svg" width="48" height="48" xmlns:xlink="http://www.w3.org/1999/xlink"><defs><linearGradient id="a"><stop offset="0"/><stop offset="1" stop-opacity="0"/></linearGradient><radialGradient id="f" cx="21.762" cy="23.071" r="15.571" xlink:href="#a" fx="21.762" fy="23.071" gradientTransform="matrix(.977 0 0 .651 -.794 15.829)" gradientUnits="userSpaceOnUse"/><linearGradient id="b"><stop offset="0" stop-color="#d3d7cf"/><stop offset=".5" stop-color="#f5f5f5"/><stop offset="1" stop-color="#bebebe"/></linearGradient><linearGradient id="e" x1="23.506" x2="20.605" y1="5.775" y2="29.859" xlink:href="#b" gradientUnits="userSpaceOnUse" gradientTransform="matrix(1.273 0 0 1.276 -7.208 -6.667)"/><linearGradient id="d"><stop offset="0" stop-color="#555753"/><stop offset="1" stop-color="#1a1d1e"/></linearGradient><linearGradient id="c"><stop offset="0" stop-color="#fff"/><stop offset="1" stop-color="#fff" stop-opacity=".502"/></linearGradient><linearGradient x1="5.762" x2="43.09" y1="2.825" y2="39.079" xlink:href="#c" gradientUnits="userSpaceOnUse" gradientTransform="matrix(.988 0 0 .988 .293 .291)"/><linearGradient x1="4.025" x2="42.965" y1="2.77" y2="39.849" xlink:href="#d" gradientUnits="userSpaceOnUse" gradientTransform="matrix(.988 0 0 .988 .293 .291)"/></defs><g><path fill="none" stroke="#888a85" stroke-width="3" d="M19.95 5.23L6.1 28.98c-2.45 4.2-.98 9.6 3.26 12.04l2.66 1.53c4.25 2.42 9.72.97 12.17-3.23l14.96-25.67c2.45-4.2 1.54-9.3-2-11.33C33.6.3 28.68 2.07 26.23 6.27l-10.4 17.8c-2.44 4.2-2.7 8.64-.58 9.88 2.13 1.22 5.87-1.2 8.32-5.4l5.05-8.66" stroke-linecap="round" stroke-linejoin="round"/><path fill="none" stroke="url(#e)" d="M19.95 5.1L6.1 28.82c-2.45 4.2-.98 9.62 3.26 12.05l2.66 1.52c4.25 2.43 9.72.98 12.17-3.22L39.15 13.5c2.45-4.2 1.54-9.3-2-11.32-3.56-2.03-8.47-.26-10.92 3.94l-10.4 17.8c-2.44 4.2-2.7 8.65-.58 9.88 2.13 1.23 5.87-1.2 8.32-5.4l5.05-8.65" stroke-linecap="round" stroke-linejoin="round"/><path fill="url(#f)" d="M38.14 30.86a15.57 10.14 0 1 1-31.14 0 15.57 10.14 0 1 1 31.14 0z" transform="matrix(1.676 0 0 .314 -10.029 35.295)" opacity=".313" color="#000" overflow="visible"/></g></svg>