<svg xmlns="http://www.w3.org/2000/svg" width="48" height="48" xmlns:xlink="http://www.w3.org/1999/xlink"><defs><linearGradient id="b" x1="350.349" x2="345.082" y1="1590.582" y2="1598.346" gradientUnits="userSpaceOnUse" gradientTransform="translate(-316.534 -1570.115)"><stop offset=".006" stop-color="#B6BDBF"/><stop offset="1" stop-color="#969EA6"/></linearGradient><linearGradient id="a" x1="328.857" x2="337.695" y1="1601.793" y2="1591.603" gradientUnits="userSpaceOnUse" gradientTransform="translate(-316.534 -1570.115)"><stop offset="0" stop-color="#E8ECED"/><stop offset=".607" stop-color="#ACB1B2"/><stop offset=".775" stop-color="#ACB1B2"/><stop offset="1" stop-color="#C3C9CB"/></linearGradient><radialGradient id="c" cx="320.195" cy="430.994" r="25.116" gradientUnits="userSpaceOnUse" fy="430.994" fx="320.195"><stop offset="0" stop-color="#BABDB6"/><stop offset=".826" stop-color="#545652"/><stop offset="1" stop-color="#2D3335"/></radialGradient><radialGradient id="e" cx="307.004" cy="394.856" r="24.063" gradientUnits="userSpaceOnUse" fy="394.856" fx="307.004"><stop offset="0" stop-color="#fff"/><stop offset="1" stop-color="#545652"/></radialGradient><linearGradient id="d" x1="330.177" x2="331.303" y1="404.341" y2="405.121" gradientUnits="userSpaceOnUse"><stop offset="0" stop-color="#CFDBE6"/><stop offset=".876" stop-color="#6D7480"/><stop offset="1" stop-color="#828C99"/></linearGradient><linearGradient x1="328.857" x2="337.695" y1="1601.793" y2="1591.603" xlink:href="#a" gradientUnits="userSpaceOnUse" gradientTransform="matrix(.924 0 0 .924 -288.575 -1485.548)"/><linearGradient x1="350.349" x2="345.082" y1="1590.582" y2="1598.346" xlink:href="#b" gradientUnits="userSpaceOnUse" gradientTransform="matrix(.924 0 0 .924 -255.317 -1485.12)"/><radialGradient id="g" cx="320.195" cy="430.994" r="25.116" xlink:href="#c" gradientUnits="userSpaceOnUse" fx="320.195" fy="430.994"/><linearGradient x1="330.177" x2="331.303" y1="404.341" y2="405.121" xlink:href="#d" gradientUnits="userSpaceOnUse"/><linearGradient id="i" x1="328.857" x2="337.695" y1="1601.793" y2="1591.603" xlink:href="#a" gradientUnits="userSpaceOnUse" gradientTransform="matrix(.924 0 0 .924 -288.575 -1485.548)"/><linearGradient id="h" x1="350.349" x2="345.082" y1="1590.582" y2="1598.346" xlink:href="#b" gradientUnits="userSpaceOnUse" gradientTransform="matrix(.924 0 0 .924 -255.317 -1485.12)"/><radialGradient id="f" cx="307.004" cy="394.856" r="24.063" xlink:href="#e" gradientUnits="userSpaceOnUse" fx="307.004" fy="394.856"/><linearGradient id="j" x1="330.177" x2="331.303" y1="404.341" y2="405.121" xlink:href="#d" gradientUnits="userSpaceOnUse"/><linearGradient x1="330.177" x2="331.303" y1="404.341" y2="405.121" xlink:href="#d" gradientUnits="userSpaceOnUse"/></defs><g><g transform="matrix(1.178 0 0 1.178 -361.277 -462.424)" opacity=".4"><radialGradient cx="307.004" cy="394.856" r="24.063" fx="307.004" fy="394.856" gradientUnits="userSpaceOnUse"><stop offset="0" stop-color="#fff"/><stop offset="1" stop-color="#545652"/></radialGradient><path fill="url(#f)" d="M319.46 404.04l-11.82-10.56" enable-background="new"/></g><path fill="none" d="M1.25 1.23l13.93 12.44 1.05 27.72"/><g transform="matrix(1.178 0 0 1.178 -320.896 -464.71)" opacity=".4"><radialGradient cx="320.195" cy="430.994" r="25.116" fx="320.195" fy="430.994" gradientUnits="userSpaceOnUse"><stop offset="0" stop-color="#BABDB6"/><stop offset=".826" stop-color="#545652"/><stop offset="1" stop-color="#2D3335"/></radialGradient><path fill="url(#g)" d="M320.35 427.56l-.9-23.52" enable-background="new"/></g><g><path fill="none" stroke="#454a4d" stroke-width="1.93" d="M69.97-2.5c.44.17 2.97 0 5.38-1.26 2.46-1.3 4.53-4.06 5.25-4.45-.62.07-3.62-1.6-6.02-2.63-2.4-1.04-3.7-2.14-7.07-4.13-3.03-1.8-4.97-3.96-6.7-3.88-1.73.08-4.87 2.06-7.17 1.6 1.67 1.7 5.46 5.5 8.08 7.7 2.63 2.2 7.88 6.9 8.27 7.05z" transform="matrix(1.031 0 0 1.042 -36.391 34.455)"/><path fill="url(#h)" d="M69.97-2.5c.44.17 2.97 0 5.38-1.26 2.46-1.3 4.53-4.06 5.25-4.45-.62.07-3.62-1.6-6.02-2.63-2.4-1.04-3.7-2.14-7.07-4.13-3.03-1.8-4.97-3.96-6.7-3.88-1.73.08-4.87 2.06-7.17 1.6 1.67 1.7 5.46 5.5 8.08 7.7 2.63 2.2 7.88 6.9 8.27 7.05z" transform="matrix(1.031 0 0 1.042 -36.391 34.455)"/></g><g><path fill="none" stroke="#212426" stroke-width="1.903" d="M18.73-19.47c-1.7-1.53-3.62-1.96-6.04-.7-1.12.57-4.55 1.46-7.87 1.2 1.26 2.7 2.2 3.63 3.46 4.75 1.43 1.27 6.48 6.9 7.27 8.07.8 1.17 5.7 8.45 6.54 8.68 1.46.4 4.75.06 7.97-2.6 3.3-2.75 5-3.48 7.13-4.1-.3-.18-15.9-12.97-18.47-15.3z" transform="matrix(1 0 0 1.105 -3.143 38.758)"/><path fill="url(#i)" d="M18.94-19.8c-1.52-1.85-3.95-1.62-6.36-.5-1.14.52-4.54 1.46-7.87 1.22 1.28 2.7 2.2 3.62 3.47 4.74 1.45 1.27 6.5 6.9 7.28 8.07.8 1.16 5.7 8.44 6.54 8.68 1.44.42 4.7.07 7.95-2.6 1.5-1.23 5.52-4.1 7-4.2" transform="matrix(1 0 0 1.105 -3.143 38.758)"/></g><path fill="none" stroke="#eeeeec" stroke-width="2" d="M19.8 5.3c.73-2.7-1.74-3.5-3.23-.46-1.03 2.1-14.73 30.03-14.73 30.03L.07 40.53l3.45-4.7L19.8 5.3z"/><g><g transform="matrix(1.179 -.155 .155 1.179 -443.565 -405.122)"><linearGradient x1="330.177" x2="331.303" y1="404.341" y2="405.121" gradientUnits="userSpaceOnUse"><stop offset="0" stop-color="#CFDBE6"/><stop offset=".876" stop-color="#6D7480"/><stop offset="1" stop-color="#828C99"/></linearGradient><path fill="url(#j)" d="M338.5 391.52c-1.1 1.65-15.6 23.4-15.6 23.4l-2.1 4.53 3.38-3.54s15.6-21.64 16.38-22.7c2.17-2.94-.26-4.4-2.07-1.68zm.95 2.08c-.65.93-1.4 1.52-1.7 1.32-.3-.2-.02-1.13.62-2.07.65-.93 1.4-1.53 1.7-1.32.3.2.02 1.13-.62 2.07z"/></g><path fill="#fff" d="M18.03 6.3c-.6 1.2-1.42 2-1.8 1.82-.4-.2-.2-1.33.42-2.53.6-1.22 1.42-2.04 1.8-1.84.4.2.2 1.33-.42 2.54z"/><path fill="none" stroke="#2e3436" stroke-width=".49995" d="M19.9 4.55c.74-2.7-1.73-3.5-3.22-.47C15.65 6.18 1.95 34.1 1.95 34.1L.18 39.78l3.45-4.7L19.9 4.55z"/></g><g><path fill="#2e3436" fill-rule="evenodd" d="M32.06 33.68a1.33.8 0 1 1-2.66 0 1.33.8 0 1 1 2.66 0z" color="#000" overflow="visible"/><path fill="#2e3436" fill-rule="evenodd" d="M36.13 29.22a1.33.8 0 1 1-2.67 0 1.33.8 0 1 1 2.67 0z" color="#000" overflow="visible"/><path fill="none" stroke="#a40000" stroke-width=".951" d="M30.8 40.16c.34-2.3 2.22-4.4 3.82-4.2" stroke-linecap="round" transform="matrix(1 0 0 1.105 .381 -10.584)"/><path fill="none" stroke="#ef2929" stroke-width=".951" d="M30.33 39.8c.33-2.33 2.2-4.4 3.8-4.22" stroke-linecap="round" transform="matrix(1 0 0 1.105 .381 -10.584)"/></g><g><path fill="#2e3436" fill-rule="evenodd" d="M28.6 30.8a1.33.8 0 1 1-2.67 0 1.33.8 0 1 1 2.66 0z" color="#000" overflow="visible"/><path fill="#2e3436" fill-rule="evenodd" d="M32.66 26.33a1.33.8 0 1 1-2.67 0 1.33.8 0 1 1 2.66 0z" color="#000" overflow="visible"/><path fill="none" stroke="#a40000" stroke-width=".951" d="M30.8 40.16c.34-2.3 2.22-4.4 3.82-4.2" stroke-linecap="round" transform="matrix(1 0 0 1.105 -3.09 -13.474)"/><path fill="none" stroke="#ef2929" stroke-width=".951" d="M30.33 39.8c.33-2.33 2.2-4.4 3.8-4.22" stroke-linecap="round" transform="matrix(1 0 0 1.105 -3.09 -13.474)"/></g><g><path fill="#2e3436" fill-rule="evenodd" d="M25.8 28.26a1.33.8 0 1 1-2.67 0 1.33.8 0 1 1 2.67 0z" color="#000" overflow="visible"/><path fill="#2e3436" fill-rule="evenodd" d="M29.86 23.8a1.33.8 0 1 1-2.66 0 1.33.8 0 1 1 2.66 0z" color="#000" overflow="visible"/><path fill="none" stroke="#a40000" stroke-width=".951" d="M30.8 40.16c.34-2.3 2.22-4.4 3.82-4.2" stroke-linecap="round" transform="matrix(1 0 0 1.105 -5.884 -16)"/><path fill="none" stroke="#ef2929" stroke-width=".951" d="M30.33 39.8c.33-2.33 2.2-4.4 3.8-4.22" stroke-linecap="round" transform="matrix(1 0 0 1.105 -5.884 -16)"/></g><g><path fill="#2e3436" fill-rule="evenodd" d="M22.7 25.46a1.33.8 0 1 1-2.66 0 1.33.8 0 1 1 2.67 0z" color="#000" overflow="visible"/><path fill="#2e3436" fill-rule="evenodd" d="M26.77 21a1.33.8 0 1 1-2.66 0 1.33.8 0 1 1 2.67 0z" color="#000" overflow="visible"/><path fill="none" stroke="#a40000" stroke-width=".951" d="M30.8 40.16c.34-2.3 2.22-4.4 3.82-4.2" stroke-linecap="round" transform="matrix(1 0 0 1.105 -8.974 -18.806)"/><path fill="none" stroke="#ef2929" stroke-width=".951" d="M30.33 39.8c.33-2.33 2.2-4.4 3.8-4.22" stroke-linecap="round" transform="matrix(1 0 0 1.105 -8.974 -18.806)"/></g><g><path fill="#2e3436" fill-rule="evenodd" d="M19.58 22.56a1.33.8 0 1 1-2.67 0 1.33.8 0 1 1 2.68 0z" color="#000" overflow="visible"/><path fill="#2e3436" fill-rule="evenodd" d="M23.64 18.1a1.33.8 0 1 1-2.67 0 1.33.8 0 1 1 2.67 0z" color="#000" overflow="visible"/><path fill="none" stroke="#a40000" stroke-width=".951" d="M30.8 40.16c.34-2.3 2.22-4.4 3.82-4.2" stroke-linecap="round" transform="matrix(1 0 0 1.105 -12.106 -21.705)"/><path fill="none" stroke="#ef2929" stroke-width=".951" d="M30.33 39.8c.33-2.33 2.2-4.4 3.8-4.22" stroke-linecap="round" transform="matrix(1 0 0 1.105 -12.106 -21.705)"/></g><path fill="none" stroke="#a40000" d="M23 18.07c-12.04-4.93 1.66-9.5 9.28-9.12 10.66.53-.32-16.5-15.3-1.74" stroke-linecap="round"/><path fill="none" stroke="#ed2728" d="M22.4 17.62c-12.06-4.94 1.65-9.5 9.27-9.12 10.66.52-.32-16.5-15.3-1.75" stroke-linecap="round"/></g></svg>