<svg xmlns="http://www.w3.org/2000/svg" width="48" height="48" xmlns:xlink="http://www.w3.org/1999/xlink"><defs><linearGradient id="g" x1="8.89" x2="20.644" y1="9.889" y2="17.46" xlink:href="#a" gradientUnits="userSpaceOnUse" gradientTransform="matrix(-1 0 0 1 40.644 1.073)"/><linearGradient id="f" x1="8.89" x2="20.644" y1="9.889" y2="17.46" xlink:href="#a" gradientUnits="userSpaceOnUse"/><linearGradient id="e" x1="21.319" x2="32.073" y1="20.318" y2="13.746" xlink:href="#a" gradientUnits="userSpaceOnUse" gradientTransform="matrix(-1 0 0 1 57.602 10.983)"/><clipPath><path d="M42.13 8.35l-8.3 14-14.07-8.36 8.3-14z"/></clipPath><clipPath><path d="M28 5.47l-1.68 6.9-1.94-1.08.57 5.97 6.27-2.2-1.86-1.02 7.03-8.3-8.4-.28z"/></clipPath><clipPath><path d="M27.32 17.7H43v7.54H27.32z"/></clipPath><clipPath><path d="M40.8 18.68l-8.15.86-.67-1.98-4.35 3.58 6.72 3.44-.7-2.08 9.43.64-2.3-4.46z"/></clipPath><linearGradient id="a"><stop offset="0" stop-color="#f57900"/><stop offset="1" stop-color="#c00"/></linearGradient><linearGradient id="d" x1="21.319" x2="32.073" y1="20.318" y2="13.746" xlink:href="#a" gradientUnits="userSpaceOnUse" gradientTransform="translate(-14.176 11.931)"/><linearGradient id="b"><stop offset="0" stop-color="#fff"/><stop offset="1" stop-color="#bbd3dc"/></linearGradient><radialGradient cx="20.491" cy="22.247" r="23.86" xlink:href="#b" fx="20.491" fy="22.247" gradientTransform="matrix(1.156 -.32 .214 .772 46.14 17.705)" gradientUnits="userSpaceOnUse"/><radialGradient id="c" cx="20.491" cy="22.247" r="23.86" xlink:href="#b" gradientUnits="userSpaceOnUse" gradientTransform="matrix(1.156 -.32 .214 .772 -7.86 11.562)" fx="20.491" fy="22.247"/></defs><g><path fill="url(#c)" stroke="#575d66" stroke-width=".5" d="M1.92 40.1c2.96-.44 7 .53 10.87-2.5 3.85-3.02 7.48-4.22 7.72-5 .37-1.26 1.04-5.75-.42-10.88.83 3.14 6.58 9.5 7.42 9.72.83.2 9.1-1.25 12-2.82 2.94-1.57 5.97-4.6 7.95-4.7-1.04-1.25-4.07-2.2-8.98-3.97-4.92-1.78-7.22-4.08-7.64-5.02-.42-.93-1.04-3.02-.42-5.84-.94.93-8.67.1-14.83 3.33C9.45 15.67 2.87 15.88.26 15.88c.54 1.83 3.73 6.63 4 7.6.28.96.74 1.9.9 3.03.13.86.3 2.96.35 3.72.1 1.57-2.67 8.33-3.58 9.9z"/><path fill="url(#d)" stroke="#590c08" stroke-width=".5" d="M6.63 29.17l6.76-2.52-1.07-1.86 6.46.36-2.97 6.45-1-1.8-7.3 5.8-.9-6.43z"/><path fill="none" stroke="#ec2628" d="M7.5 34.6c1.13-.9 7.58-6.05 7.58-6.05s.48 1.1.66 1.52c.54-1.3 1.36-3.28 1.72-4.16-.9 0-2.6-.05-3.56-.07.17.4.56 1.3.56 1.3s-6.64 2.5-7.42 2.8"/><path fill="url(#e)" stroke="#590c08" stroke-width=".5" d="M38.5 22.22l-8.46.9-.66-2.13-4.74 3.78 7.53 4.17L31 26.43l9.6.65-2.1-4.86z"/><path fill="none" stroke="#ec2628" d="M38.4 23.05c-.75.08-8.8.93-8.8.93s-.36-1.06-.56-1.64c-.75.6-2.32 1.9-3.1 2.55.94.47 3.4 1.72 4.8 2.44-.14-.38-.55-1.58-.55-1.58s8.3.56 9.75.66"/><path fill="url(#f)" stroke="#590c08" stroke-width=".5" d="M13.24 8.96l4.6 5.33 1.24-1.73 1.3 5.37-5.8.88 1.3-1.8-11.45-5.78 8.8-2.28z" transform="translate(-2.674 3.856)"/><path fill="none" stroke="#ec2628" d="M3.4 15.3c1.57.8 10.3 5.2 10.3 5.2s-.6.83-.88 1.22c1.24-.2 3.2-.5 3.85-.58-.15-.64-.6-2.43-.87-3.54-.28.4-.9 1.26-.9 1.26s-4.42-5.1-4.82-5.55"/><path fill="url(#g)" stroke="#590c08" stroke-width=".5" d="M25.12 8.6l-1.75 7.2-2.24-1.58.83 7.36 7.54-2.54-2.87-1.23 7.6-8.34-9.1-.86z"/><path fill="none" stroke="#ec2628" d="M25.86 9.35c-.2.78-1.86 7.68-1.86 7.68s-1.14-.64-1.66-.93c.12 1.2.33 3.43.4 4.3.84-.3 3.17-1.1 4.5-1.57-.4-.23-1.38-.77-1.38-.77s6.02-7.12 7.17-8.48"/></g></svg>