<svg xmlns="http://www.w3.org/2000/svg" width="48" height="48" xmlns:xlink="http://www.w3.org/1999/xlink"><defs><linearGradient id="c"><stop offset="0" stop-color="#bc5d00"/><stop offset="1" stop-color="#f57900" stop-opacity="0"/></linearGradient><linearGradient id="b"><stop offset="0" stop-color="#f57900"/><stop offset="1" stop-color="#f57900" stop-opacity="0"/></linearGradient><radialGradient id="a" cx="1182.248" cy="1658.428" r="3.295" gradientUnits="userSpaceOnUse" fy="1658.428" fx="1182.248" gradientTransform="translate(-1156.642 -1655.956)"><stop offset="0" stop-color="#e6e6e6"/><stop offset="1" stop-color="#a5a5a5"/></radialGradient><radialGradient id="s" cx="1182.248" cy="1658.428" r="3.295" xlink:href="#a" gradientUnits="userSpaceOnUse" gradientTransform="matrix(1.915 0 0 1.915 -2233.831 -3171.069)" fx="1182.248" fy="1658.428"/><radialGradient id="r" cx="1181.263" cy="1662.666" r="1.542" xlink:href="#a" gradientUnits="userSpaceOnUse" gradientTransform="matrix(1.915 0 0 1.915 -2233.831 -3171.069)" fx="1181.263" fy="1662.666"/><linearGradient id="q" x1="1164.108" x2="1165.697" y1="1674.438" y2="1675.82" xlink:href="#a" gradientUnits="userSpaceOnUse" gradientTransform="matrix(1.817 -.604 .604 1.817 -3126.075 -2296.506)"/><radialGradient id="p" cx="1166.426" cy="1673.148" r=".612" xlink:href="#a" gradientUnits="userSpaceOnUse" gradientTransform="matrix(1.817 -.604 .604 1.817 -3126.075 -2296.506)" fx="1166.426" fy="1673.148"/><linearGradient id="o" x1="1168.026" x2="1169.255" y1="1670.603" y2="1671.928" xlink:href="#a" gradientUnits="userSpaceOnUse" gradientTransform="matrix(1.817 -.604 .604 1.817 -3126.075 -2296.506)"/><radialGradient id="n" cx="1171.076" cy="1668.957" r=".712" xlink:href="#a" gradientUnits="userSpaceOnUse" gradientTransform="matrix(1.817 -.604 .604 1.817 -3126.075 -2296.506)" fx="1171.076" fy="1668.957"/><linearGradient id="m" x1="1173.058" x2="1174.429" y1="1666.42" y2="1668.075" xlink:href="#a" gradientUnits="userSpaceOnUse" gradientTransform="matrix(1.817 -.604 .604 1.817 -3126.075 -2296.506)"/><radialGradient id="l" cx="1176.868" cy="1664.601" r="1.28" xlink:href="#a" gradientUnits="userSpaceOnUse" gradientTransform="matrix(1.817 -.604 .604 1.817 -3126.075 -2296.506)" fx="1176.868" fy="1664.601"/><radialGradient id="k" cx="1181.547" cy="1665.856" r="5.775" xlink:href="#a" gradientUnits="userSpaceOnUse" gradientTransform="matrix(2.148 0 0 2.35 -2509.54 -3895.285)" fx="1181.547" fy="1665.856"/><radialGradient id="j" cx="1181.392" cy="1672.234" r="2.981" xlink:href="#a" gradientUnits="userSpaceOnUse" gradientTransform="matrix(2.148 0 0 2.35 -2509.54 -3895.285)" fx="1181.392" fy="1672.234"/><radialGradient id="i" cx="1184.265" cy="1665.213" r="1.103" xlink:href="#a" gradientUnits="userSpaceOnUse" gradientTransform="matrix(1.831 .559 -.559 1.831 -1202.864 -3693.877)" fx="1184.265" fy="1665.213"/><linearGradient id="h" x1="1186.393" x2="1185.306" y1="1665.963" y2="1667.476" xlink:href="#a" gradientUnits="userSpaceOnUse" gradientTransform="matrix(1.831 .559 -.559 1.831 -1202.864 -3693.877)"/><linearGradient id="g" x1="1189.773" x2="1189.064" y1="1668.994" y2="1670.081" xlink:href="#a" gradientUnits="userSpaceOnUse" gradientTransform="matrix(1.831 .559 -.559 1.831 -1202.864 -3693.877)"/><radialGradient id="f" cx="1187.812" cy="1667.972" r=".517" xlink:href="#a" gradientUnits="userSpaceOnUse" gradientTransform="matrix(1.831 .559 -.559 1.831 -1202.864 -3693.877)" fx="1187.812" fy="1667.972"/><linearGradient id="e" x1="1192.739" x2="1192.124" y1="1671.622" y2="1672.399" xlink:href="#a" gradientUnits="userSpaceOnUse" gradientTransform="matrix(1.831 .559 -.559 1.831 -1202.864 -3693.877)"/><radialGradient id="d" cx="1190.832" cy="1670.785" r=".401" xlink:href="#a" gradientUnits="userSpaceOnUse" gradientTransform="matrix(1.831 .559 -.559 1.831 -1202.864 -3693.877)" fx="1190.832" fy="1670.785"/><linearGradient id="u" x1="27.224" x2="26.517" y1="22.165" y2="32.115" xlink:href="#b" gradientUnits="userSpaceOnUse" gradientTransform="translate(0 .556)"/><radialGradient id="t" cx="34.8" cy="23.102" r="2.323" xlink:href="#c" fx="34.8" fy="23.102" gradientTransform="matrix(1.456 .024 -.06 3.666 -14.477 -60.214)" gradientUnits="userSpaceOnUse"/></defs><g><path fill="#f57900" stroke="#5f2a00" d="M22.12 12.9l-.15 6.22 9.6.18-.56-6.25s-3.02.75-4.7.76c-1.65 0-4.18-.9-4.18-.9z" stroke-linejoin="bevel"/><path fill="#f57900" stroke="#4c2200" stroke-width="1.18" d="M20.3 26.9a4.27 1.74 0 1 1-8.53 0 4.27 1.74 0 1 1 8.53 0z" transform="matrix(.663 .522 -.504 .686 15.192 -.155)" color="#000" overflow="visible" enable-background="accumulate"/><path fill="none" stroke="#66330d" stroke-width="1.2" d="M44.15 31.43c.12.03.3.37.25.6-.06.25-.78.94-1.08.8-.3-.13-.55-.5-.52-.65.03-.17 1.2-.8 1.35-.75z"/><path fill="none" stroke="#2e3436" stroke-width="1.2" d="M43.22 32.83c.58-.12 1.06-.52 1.18-.8.12-.3 1.84 1.15 2.94 4.36.4 1.13.02 2.2-.07 2 0 0-.9-.54-2.45-2.82-.86-1.27-1.4-2.2-1.6-2.75z"/><path fill="none" stroke="#2e3436" stroke-width="1.2" d="M39.3 24.28c.4.06 1 .7 1.14 1.3.13.54-1.35 1.56-1.68 1.5-.33-.06-1-.93-.95-1.4.05-.44 1.33-1.43 1.5-1.4z"/><path fill="none" stroke="#2e3436" stroke-width="1.2" d="M39.7 26.25c.4-.35.7-.75.8-.73.5.02 3.74 5.56 3.68 5.85-.07.3-1.08 1-1.47.85-.24-.1-4.1-4.44-4.05-5.08 0-.1.6-.48 1.06-.9z"/><path fill="none" stroke="#2e3436" stroke-width="1.2" d="M36 17.94c.3.27 2.7 3.73 3.42 6.13.2.64-1.3 1.96-1.76 1.7-.48-.27-4-4.52-4-4.9 0-1.9 1.86-3.34 2.34-2.93z"/><path fill="none" stroke="#2e3436" stroke-width="1.2" d="M34.4 15.32c.4.17 1.6 1.07 1.6 2.2 0 1.15-1.6 3.2-2.47 3.3-.88.1.88-5.5.88-5.5z"/><path fill="none" stroke="#2e3436" stroke-width="1.2" d="M22.92 32.94c.75-.7 6.56-1.82 8.45-.28.45.37.97 3.78.6 4.12-1.45 1.34-7.16 1.93-9.86.25-.75-.48.4-3.72.82-4.1z"/><path fill="none" stroke="#2e3436" stroke-width="1.2" d="M18.9 14.43c.53-.53 8.83-2.3 14.64.37.74.35 1.27 6.87 1.17 7.38-.38 1.95-2.53 9.66-3.08 10.4-.48.62-5.8 1.1-8.88.4-.07-.03-.1.58-.27.4-.2-.23-1.1-1.5-1.6-2.36-.85-1.36-3.34-6.52-4-10.92-.37-2.43.84-4.48 2.04-5.67z"/><path fill="none" stroke="#2e3436" stroke-width="1.2" d="M18.06 15.12c1.6.03 3.4 2.97 2.72 4.53-.43 1-1.73 1.53-2.36 1.36-.7-.16-2.93-1.86-3.06-2.32-.34-1.17.4-2.23.92-2.75.72-.72 1.4-.82 1.78-.8z"/><path fill="none" stroke="#2e3436" stroke-width="1.2" d="M15.72 18c.97-.3 3.14 1.44 2.85 2.63-.26 1.04-5.14 7.76-6.2 8.3-.1.08-2.64-1.23-2.4-1.76 1.18-2.72 4.9-8.92 5.75-9.18z"/><path fill="none" stroke="#2e3436" stroke-width="1.2" d="M9.96 27.17c.66-.16 2.15.66 2.42 1.77.07.33-.52 1.23-1.03 1.37-.28.08-2.27-.92-2.4-1.34-.15-.53.48-1.65 1-1.8z"/><path fill="none" stroke="#2e3436" stroke-width="1.2" d="M8.66 29.08c.6-.4 2.27.1 2.8 1.1.25.5-4.85 7.98-5.38 8.24-1.07.5-2.55-.34-2.42-.72.63-1.9 3.9-7.9 5-8.62z"/><path fill="none" stroke="#2e3436" stroke-width="1.2" d="M3.78 37.8c.37-.16 1.4-.1 2.1.6.1.1-.2.93-.42.97-.2.04-2-.14-2.13-.34-.14-.2.06-1.06.45-1.23z"/><path fill="none" stroke="#2e3436" stroke-width="1.2" d="M3.33 39.03c.28-.2 1.64-.23 2.12.32.6.67 0 3.4-.34 4.32-.5 1.35-2.07 3.22-2.73 3.57-.44.24-1.83.06-1.95-.57-.13-.63-.08-2.57.73-4.35.8-1.78 1.93-3.13 2.18-3.3z"/><path fill="none" stroke="#2e3436" stroke-width="1.2" d="M25.23 13.66c.07.28 1.18.72 2.32.72 1.15 0 1.7-.35 1.87-.58.16-.22.2-2.68-.04-2.8-.35-.17-3.6-.23-4.05.03-.26.14-.16 2.4-.1 2.63z"/><path fill="none" stroke="#2e3436" stroke-width="1.2" d="M29.22.82c1.26.38 2.64 2.03 2.57 5-.08 2.98-1.26 4.82-1.96 5.3-.6.4-4.53.52-5.03-.23-1.53-2.3-2.16-6.52-.9-8.43C25 .82 27.78.4 29.22.82z"/><path fill="url(#d)" stroke="#729fcf" stroke-width=".25" d="M44.15 31.43c.12.03.3.37.25.6-.06.25-.78.95-1.08.8-.3-.13-.55-.5-.5-.65.02-.16 1.18-.8 1.33-.75z"/><path fill="url(#e)" stroke="#729fcf" stroke-width=".25" d="M43.22 32.83c.58-.12 1.06-.52 1.18-.8.12-.3 1.84 1.15 2.94 4.36.4 1.13.02 2.2-.06 2.02 0 0-.9-.55-2.46-2.84-.86-1.27-1.4-2.2-1.6-2.75z"/><path fill="url(#f)" stroke="#729fcf" stroke-width=".25" d="M39.3 24.28c.4.06 1 .7 1.14 1.3.13.54-1.34 1.56-1.68 1.5-.33-.05-1-.93-.95-1.4.05-.44 1.33-1.43 1.5-1.4z"/><path fill="url(#g)" stroke="#729fcf" stroke-width=".25" d="M39.7 26.25c.4-.35.7-.75.8-.73.5.02 3.74 5.56 3.68 5.85-.06.3-1.08 1-1.47.86-.24-.1-4.1-4.44-4.05-5.08 0-.1.6-.5 1.06-.9z"/><path fill="url(#h)" stroke="#729fcf" stroke-width=".25" d="M36 17.94c.32.27 2.7 3.73 3.42 6.13.2.64-1.3 1.96-1.76 1.7-.47-.27-4-4.52-4-4.9 0-1.9 1.86-3.34 2.34-2.93z"/><path fill="url(#i)" stroke="#729fcf" stroke-width=".25" d="M34.43 15.24c.4.17 1.6 1.07 1.6 2.2 0 1.15-1.6 3.2-2.5 3.3-.86.1.9-5.5.9-5.5z"/><path fill="url(#j)" stroke="#729fcf" stroke-width=".25" d="M22.92 32.94c.75-.7 6.57-1.82 8.45-.28.45.37.97 3.78.6 4.12-1.45 1.34-7.16 1.93-9.86.25-.75-.48.42-3.7.82-4.1z"/><path fill="url(#k)" stroke="#729fcf" stroke-width=".25" d="M18.9 14.43c.53-.53 8.83-2.3 14.64.38.74.35 1.27 6.87 1.17 7.38-.37 1.95-2.53 9.66-3.08 10.4-.47.62-5.8 1.1-8.88.4-.07-.02-.1.58-.27.4-.2-.23-1.08-1.5-1.6-2.36-.85-1.36-3.34-6.52-4-10.92-.37-2.43.84-4.47 2.04-5.67z"/><path fill="url(#l)" stroke="#729fcf" stroke-width=".25" d="M18.06 15.12c1.6.03 3.4 2.97 2.72 4.53-.43 1-1.73 1.53-2.36 1.36-.7-.16-2.93-1.86-3.06-2.32-.34-1.17.4-2.23.92-2.75.72-.72 1.4-.82 1.78-.8z"/><path fill="url(#m)" stroke="#729fcf" stroke-width=".25" d="M15.72 18c.97-.3 3.14 1.44 2.85 2.63-.26 1.04-5.14 7.76-6.2 8.3-.1.08-2.63-1.23-2.4-1.76 1.18-2.72 4.9-8.92 5.75-9.18z"/><path fill="url(#n)" stroke="#729fcf" stroke-width=".25" d="M9.96 27.18c.66-.17 2.15.65 2.42 1.76.07.33-.52 1.23-1.03 1.37-.27.1-2.27-.92-2.4-1.34-.15-.53.48-1.65 1-1.78z"/><path fill="url(#o)" stroke="#729fcf" stroke-width=".25" d="M8.66 29.08c.6-.4 2.27.1 2.8 1.1.25.5-4.85 8-5.38 8.24-1.07.5-2.55-.34-2.42-.7.63-1.93 3.9-7.9 5-8.64z"/><path fill="url(#p)" stroke="#729fcf" stroke-width=".25" d="M3.78 37.8c.37-.16 1.4-.1 2.1.6.1.1-.2.93-.42.97-.2.04-2-.14-2.13-.34-.14-.2.06-1.06.45-1.23z"/><path fill="url(#q)" stroke="#729fcf" stroke-width=".25" d="M3.33 39.03c.28-.2 1.64-.23 2.12.32.6.67 0 3.4-.34 4.32-.5 1.35-2.07 3.22-2.72 3.58-.45.23-1.83.05-1.96-.58-.13-.63-.08-2.57.73-4.35.8-1.78 1.93-3.13 2.18-3.3z"/><path fill="url(#r)" stroke="#729fcf" stroke-width=".25" d="M25.23 13.66c.08.28 1.18.72 2.33.72 1.14 0 1.7-.35 1.86-.58.16-.22.2-2.68-.04-2.8-.35-.17-3.6-.23-4.05.02-.26.15-.16 2.4-.1 2.64z"/><path fill="url(#s)" stroke="#729fcf" stroke-width=".25" d="M29.22.82c1.26.38 2.64 2.04 2.57 5-.08 3-1.26 4.83-1.95 5.3-.6.4-4.54.52-5.04-.23-1.53-2.3-2.16-6.52-.9-8.43C25 .82 27.78.4 29.22.82z"/><path fill="#fcaf3e" stroke="#833b00" d="M9.6 24.16c2.4-.5 5.95 2.26 5.45 4.75l2.02-2.37c.76 4.47 3.75 8.92 2.78 13.4 0 0 2.34 2.55 7.93 2.16 5.6-.4 6-3.7 6-3.7-1.93-4.43 1.08-8 1.12-12.62l1.62 1.16c2-.72 3.3-2.9 3.38-4.65-.6-1.82-2.03-4.57-4.34-7.08-1.4-.98-3.52-1.8-4.85-2.12 0 0 .76 4.27-3.32 4.24-4.1-.03-5.1-4.44-5.1-4.44-2.27.26-3.88 1.02-5.1 1.66-1.3 1.54-6.13 5.85-7.58 9.6z" stroke-linejoin="bevel"/><path fill="url(#t)" d="M34.5 25.73c.54-2.98-.13-5.6-1.06-8.34 1.68 2.58 3 6.45 4.64 7.72-.56.9-.94 1.16-1.5 1.4z"/><path fill="url(#u)" d="M19.65 27c4.3 1.04 10.68 2.25 14.95-1.43-.13 3.6-1.15 5.03-1.77 8.14l-12.27 1.02z"/><path fill="none" stroke="#eeeeec" d="M11.57 23.86c.87-1.74 5.33-7.04 6.05-7.8.92-.96 2.37-1.54 4.6-1.9"/><path fill="#f57900" d="M14.9 26.38l3.64-4.1c.36 1.57.26 3.02-1.52 4.05L15.4 27.8z"/><path fill="#eeeeec" d="M31.26 14.72l4.15.96c-1.27-.77-2.43-1.74-4.1-1.87z"/></g></svg>