<svg xmlns="http://www.w3.org/2000/svg" width="48" height="48"><defs><radialGradient id="a" cx="25.576" cy="58.74" r="24" gradientUnits="userSpaceOnUse" gradientTransform="matrix(1 0 0 .917 0 3.081)" fy="58.74" fx="25.576"><stop offset="0" stop-color="#D0CA96"/><stop offset=".693" stop-color="#F2F2EA"/><stop offset=".991" stop-color="#FFFFFE"/><stop offset="1" stop-color="#fff"/></radialGradient><radialGradient id="b" cx="27.513" cy="57.187" r="14.345" gradientUnits="userSpaceOnUse" fy="57.187" fx="27.513" gradientTransform="matrix(.925 0 0 .925 .28 -25.042)"><stop offset="0" stop-color="#D0CA96"/><stop offset="1" stop-color="#F2F2EA"/></radialGradient><radialGradient id="c" cx="26.901" cy="60.958" r="30.906" gradientUnits="userSpaceOnUse" fy="60.958" fx="26.901" gradientTransform="matrix(.925 0 0 .925 .28 -25.042)"><stop offset="0" stop-color="#D0C98B"/><stop offset="1" stop-color="#F2F2DC"/></radialGradient><linearGradient id="d" x1="16.669" x2="30.612" y1="74.27" y2="60.165" gradientUnits="userSpaceOnUse" gradientTransform="matrix(.925 0 0 .925 .28 -25.042)"><stop offset="0" stop-color="#EDEBD4"/><stop offset=".519" stop-color="#DBD074"/><stop offset=".677" stop-color="#D6CC73"/><stop offset=".852" stop-color="#C9C171"/><stop offset="1" stop-color="#B8B26E"/></linearGradient><linearGradient id="e" x1="32.903" x2="34.78" y1="57.956" y2="61.708" gradientUnits="userSpaceOnUse" gradientTransform="matrix(.925 0 0 .925 .28 -25.042)"><stop offset="0" stop-color="#DBD38F"/><stop offset=".279" stop-color="#DBD38F"/><stop offset=".602" stop-color="#C0B870"/><stop offset="1" stop-color="#999145"/></linearGradient><linearGradient id="f" x1="38.835" x2="13.528" y1="39.871" y2="42.341" gradientUnits="userSpaceOnUse" gradientTransform="matrix(.925 0 0 .925 .28 -25.042)"><stop offset="0" stop-color="#DBD38F"/><stop offset=".375" stop-color="#C1B974"/><stop offset=".75" stop-color="#ADA65F"/><stop offset="1" stop-color="#A69F58"/></linearGradient><linearGradient id="g" x1="33.062" x2="29.895" y1="73.014" y2="69.514" gradientUnits="userSpaceOnUse" gradientTransform="matrix(.925 0 0 .925 .28 -25.042)"><stop offset="0" stop-color="#DBD38F"/><stop offset=".279" stop-color="#DBD38F"/><stop offset=".602" stop-color="#C0B870"/><stop offset="1" stop-color="#999145"/></linearGradient><linearGradient id="h" x1="38.931" x2="32.027" y1="42.012" y2="37.583" gradientUnits="userSpaceOnUse"><stop offset="0" stop-color="#DBD38F"/><stop offset=".279" stop-color="#DBD38F"/><stop offset=".657" stop-color="#C7BE70"/><stop offset="1" stop-color="#B3A951"/></linearGradient><linearGradient id="i" x1="32.23" x2="20.475" y1="47.292" y2="41.715" gradientUnits="userSpaceOnUse"><stop offset="0" stop-color="#EDEBD4"/><stop offset=".519" stop-color="#DBD38F"/><stop offset=".666" stop-color="#D8D08A"/><stop offset=".829" stop-color="#D0C87D"/><stop offset=".999" stop-color="#C3BB67"/><stop offset="1" stop-color="#C3BB67"/></linearGradient><linearGradient id="j" x1="13.591" x2="38.84" y1="54.665" y2="54.914" gradientUnits="userSpaceOnUse" gradientTransform="matrix(.925 0 0 .925 .28 -25.042)"><stop offset="0" stop-color="#DBD38F"/><stop offset=".078" stop-color="#E2DCA2"/><stop offset=".185" stop-color="#EAE6B7"/><stop offset=".257" stop-color="#EDE9BE"/><stop offset=".531" stop-color="#DBD38F"/><stop offset=".723" stop-color="#C9C170"/><stop offset=".776" stop-color="#C3BB67"/><stop offset=".922" stop-color="#B8AF60"/><stop offset="1" stop-color="#C3BB67"/></linearGradient><linearGradient id="p" x1="25.865" x2="32.259" y1="47.265" y2="56.449" gradientUnits="userSpaceOnUse"><stop offset="0" stop-color="#EDEBD4"/><stop offset=".519" stop-color="#DBD38F"/><stop offset=".666" stop-color="#D8D08A"/><stop offset=".829" stop-color="#D0C87D"/><stop offset=".999" stop-color="#C3BB67"/><stop offset="1" stop-color="#C3BB67"/></linearGradient><linearGradient id="o" x1="30.375" x2="48.162" y1="43.226" y2="50.201" gradientUnits="userSpaceOnUse"><stop offset="0" stop-color="#EDEBD4"/><stop offset=".519" stop-color="#DBD38F"/><stop offset=".666" stop-color="#D8D08A"/><stop offset=".829" stop-color="#D0C87D"/><stop offset=".999" stop-color="#C3BB67"/><stop offset="1" stop-color="#C3BB67"/></linearGradient><linearGradient id="n" x1="34.516" x2="38.016" y1="41.37" y2="39.433" gradientUnits="userSpaceOnUse"><stop offset="0" stop-color="#EDEBD4"/><stop offset=".519" stop-color="#DBD38F"/><stop offset=".666" stop-color="#D8D08A"/><stop offset=".829" stop-color="#D0C87D"/><stop offset=".999" stop-color="#C3BB67"/><stop offset="1" stop-color="#C3BB67"/></linearGradient><linearGradient id="m" x1="20.647" x2="25.106" y1="43.548" y2="40.101" gradientUnits="userSpaceOnUse"><stop offset="0" stop-color="#fff"/><stop offset=".148" stop-color="#FCFBF7"/><stop offset=".679" stop-color="#F1EFDD"/><stop offset="1" stop-color="#EDEBD4"/></linearGradient><linearGradient id="l" x1="16.05" x2="23.675" y1="42.418" y2="37.106" gradientUnits="userSpaceOnUse"><stop offset="0" stop-color="#EDEBD4"/><stop offset=".519" stop-color="#DBD38F"/><stop offset=".666" stop-color="#D8D08A"/><stop offset=".829" stop-color="#D0C87D"/><stop offset=".999" stop-color="#C3BB67"/><stop offset="1" stop-color="#C3BB67"/></linearGradient><linearGradient id="k" x1="16.42" x2="20.336" y1="45.989" y2="37.239" gradientUnits="userSpaceOnUse"><stop offset="0" stop-color="#EDEBD4"/><stop offset=".519" stop-color="#DBD38F"/><stop offset=".666" stop-color="#D8D08A"/><stop offset=".829" stop-color="#D0C87D"/><stop offset=".999" stop-color="#C3BB67"/><stop offset="1" stop-color="#C3BB67"/></linearGradient><linearGradient id="v" x1="17.296" x2="42.111" y1="45.781" y2="36.378" gradientUnits="userSpaceOnUse"><stop offset="0" stop-color="#fff"/><stop offset="1" stop-color="#DBD38F"/></linearGradient><linearGradient id="u" x1="28.317" x2="45.58" y1="45.65" y2="37.481" gradientUnits="userSpaceOnUse"><stop offset="0" stop-color="#EDEBD4"/><stop offset=".519" stop-color="#DBD38F"/><stop offset=".666" stop-color="#D8D08A"/><stop offset=".829" stop-color="#D0C87D"/><stop offset=".999" stop-color="#C3BB67"/><stop offset="1" stop-color="#C3BB67"/></linearGradient><linearGradient id="t" x1="16.616" x2="41.491" y1="30.336" y2="42.336" gradientUnits="userSpaceOnUse"><stop offset="0" stop-color="#EDEBD4"/><stop offset=".519" stop-color="#DBD38F"/><stop offset=".666" stop-color="#D8D08A"/><stop offset=".829" stop-color="#D0C87D"/><stop offset=".999" stop-color="#C3BB67"/><stop offset="1" stop-color="#C3BB67"/></linearGradient><linearGradient id="s" x1="13.277" x2="19.893" y1="43.277" y2="36.562" gradientUnits="userSpaceOnUse"><stop offset="0" stop-color="#fff"/><stop offset="1" stop-color="#DBD38F"/></linearGradient><linearGradient id="r" x1="27.779" x2="37.798" y1="38.254" y2="33.476" gradientUnits="userSpaceOnUse"><stop offset="0" stop-color="#EDEBD4"/><stop offset=".519" stop-color="#DBD38F"/><stop offset=".666" stop-color="#D8D08A"/><stop offset=".829" stop-color="#D0C87D"/><stop offset=".999" stop-color="#C3BB67"/><stop offset="1" stop-color="#C3BB67"/></linearGradient><linearGradient id="q" x1="17.346" x2="35.225" y1="39.255" y2="27.849" gradientUnits="userSpaceOnUse"><stop offset="0" stop-color="#EDEBD4"/><stop offset=".519" stop-color="#DBD38F"/><stop offset=".666" stop-color="#D8D08A"/><stop offset=".829" stop-color="#D0C87D"/><stop offset=".999" stop-color="#C3BB67"/><stop offset="1" stop-color="#C3BB67"/></linearGradient><linearGradient id="w" x1="23.617" x2="14.277" y1="48.028" y2="42.145" gradientUnits="userSpaceOnUse"><stop offset="0" stop-color="#EDEBD4"/><stop offset=".519" stop-color="#DBD38F"/><stop offset=".666" stop-color="#D8D08A"/><stop offset=".829" stop-color="#D0C87D"/><stop offset=".999" stop-color="#C3BB67"/><stop offset="1" stop-color="#C3BB67"/></linearGradient><linearGradient id="x" x1="32.881" x2="20.881" y1="47.162" y2="46.162" gradientUnits="userSpaceOnUse"><stop offset="0" stop-color="#DBD38F"/><stop offset=".375" stop-color="#C1B974"/><stop offset=".75" stop-color="#ADA65F"/><stop offset="1" stop-color="#A69F58"/></linearGradient><linearGradient id="y" x1="21.954" x2="16.684" y1="38.383" y2="40.441" gradientUnits="userSpaceOnUse" gradientTransform="matrix(.925 0 0 .925 .28 -25.042)"><stop offset="0" stop-color="#DBD38F"/><stop offset=".375" stop-color="#C1B974"/><stop offset=".75" stop-color="#ADA65F"/><stop offset="1" stop-color="#A69F58"/></linearGradient><linearGradient id="z" x1="25.574" x2="40.034" y1="31.026" y2="42.003" gradientUnits="userSpaceOnUse" gradientTransform="matrix(.925 0 0 .925 .28 -25.042)"><stop offset=".006" stop-color="#B8CFE1"/><stop offset=".486" stop-color="#fff"/><stop offset=".642" stop-color="#fff"/><stop offset="1" stop-color="#8AAAC3"/></linearGradient></defs><g><ellipse cx="25.576" cy="56.952" fill="url(#a)" transform="matrix(.925 0 0 .925 .28 -25.042)" ry="22.011" rx="24"/><path fill="url(#b)" d="M44.3 32.6c1.8 4.94-5.14 9.82-15.53 10.88-10.4 1.06-20.3-2.1-22.1-7.06-1.83-4.96 5.12-9.84 15.5-10.9 10.4-1.05 20.3 2.1 22.12 7.07z"/><path fill="url(#c)" d="M42.6 32.25c1.1 1.7.37 4.7-2.14 6.55-1.13.83-3.33.78-4.97 1.4-2.2.83-6.03 2.1-8.9 2.52-5.92.84-9.44.25-13.22-1.83-1.42-.8-1.62-1.9-2.6-2.74-.93-.8-2.74-1.16-3.1-2.12-1.7-4.7 4.86-8.9 14.68-9.9s17.12 1.33 20.23 6.1z"/><path fill="url(#d)" d="M41.5 32.6c.45 1.25-.66 2.5-1.46 3.65-1.08 1.54-2.94 2.07-5.73 3.02-1.72.6-3.7 1.96-5.86 2.4-3.87.8-6.8.6-9.6-.08-5.6-1.36-3.88-3.1-5.54-4.3-1.37-.96-3.04-1.13-3.45-2.24-1.46-4 4.6-7.3 12.97-8.16 8.37-.85 17.2 1.7 18.67 5.7z" opacity=".4"/><path fill="url(#e)" d="M30.1 39.1s9.34-2.8 8.4-6.53c-.62-2.45-3.6-2.87-6.03-2.87s.3 6.15.3 6.15L30.1 39.1z"/><path fill="url(#f)" d="M22.68 8.75c-1.35.15-2.6.4-3.65.76l-.1 2.94c-1.3.46-2.3 1.06-2.83 1.7l-.1 2c.16.18.4.37.76.56l.05-1.2 1.58-.68c.33.13.7.25 1.07.35 1.33-.52 3.24-.84 5.37-.84 2 0 3.8.28 5.1.75.53-.15 1-.33 1.4-.52l1.52.78.05 1.2c.2-.15.57-.5.68-.8l-.08-1.68c-.52-.66-1.48-1.22-2.67-1.65l-.1-2.9c-1.15-.4-2.55-.68-4.03-.8l.04 2.84c-.55-.05-1.1-.08-1.64-.08-.84 0-1.66.06-2.45.15l.03-2.85z"/><path fill="url(#g)" d="M30.06 35.9s-.55-.33-2.2-.33c-3.1 0-6.2.4-9.3 3.52 0 0-.03-2.27.16-5.67.18-3.4 2.58-5.6 5.6-5.6 3.03 0 5.46 2.2 5.64 5.6.05.88.08 1.75.1 2.46z"/><path fill="#fff" d="M17.3 11.98L17.44 9l1.6.5-.1 2.94-1.62-.46z"/><path fill="url(#h)" d="M34.53 36.93l.12 2.86-1.62.7-.1-3.14 1.6-.43z" transform="matrix(.925 0 0 .925 .28 -25.042)"/><g transform="matrix(.925 0 0 .925 .28 -25.042)"><path fill="#f00" d="M17.82 29.14z"/><linearGradient x1="32.23" x2="20.475" y1="47.292" y2="41.715" gradientUnits="userSpaceOnUse"><stop offset="0" stop-color="#EDEBD4"/><stop offset=".519" stop-color="#DBD38F"/><stop offset=".666" stop-color="#D8D08A"/><stop offset=".829" stop-color="#D0C87D"/><stop offset=".999" stop-color="#C3BB67"/><stop offset="1" stop-color="#C3BB67"/></linearGradient><path fill="url(#i)" d="M20.73 43.5c1.03.28 2.22.48 3.5.58l-.03 3.23c.6.08 1.2.12 1.8.12 1.14 0 2.2-.07 3.2-.18l-.04-3.27c1.1-.13 2.06-.33 2.9-.58-1.4-.52-3.37-.83-5.52-.83-2.3 0-4.37.35-5.8.92z"/></g><path fill="url(#j)" d="M35.5 12.32l1.17 21.2c.02.16.05.33 0 .5-.45 1.96-2.7 4-6.56 5.07 0 0 .04-2.27-.14-5.67-.18-3.4-2.6-5.6-5.63-5.6s-5.43 2.2-5.6 5.6c-.17 2.92-.18 5-.18 5.53-3.57-1.17-5.87-3.36-5.68-5.54L14 12.32c-.03.42.06.8.28 1.2l-.18 3.05c.42.82 1.32 1.55 2.58 2.14l.13-3.2c1.64.8 3.24 1.17 5.3 1.26l-.05 3.27c.72.07 1.47.1 2.24.1 1.27 0 2.5-.1 3.65-.27l-.05-3.22c2-.1 3.63-.68 4.94-1.3l.13 3c1.2-.64 2.08-1.4 2.46-2.24l-.17-2.8c.16-.32.24-.65.24-.98z"/><g transform="matrix(.925 0 0 .925 .28 -25.042)"><linearGradient x1="16.42" x2="20.336" y1="45.989" y2="37.239" gradientUnits="userSpaceOnUse"><stop offset="0" stop-color="#EDEBD4"/><stop offset=".519" stop-color="#DBD38F"/><stop offset=".666" stop-color="#D8D08A"/><stop offset=".829" stop-color="#D0C87D"/><stop offset=".999" stop-color="#C3BB67"/><stop offset="1" stop-color="#C3BB67"/></linearGradient><path fill="url(#k)" d="M17.82 45.14c-.4-.2-.64-.42-.82-.62l-2.05.48c.45.9 1.43 1.68 2.8 2.3l.07-2.16z"/><linearGradient x1="16.05" x2="23.675" y1="42.418" y2="37.106" gradientUnits="userSpaceOnUse"><stop offset="0" stop-color="#EDEBD4"/><stop offset=".519" stop-color="#DBD38F"/><stop offset=".666" stop-color="#D8D08A"/><stop offset=".829" stop-color="#D0C87D"/><stop offset=".999" stop-color="#C3BB67"/><stop offset="1" stop-color="#C3BB67"/></linearGradient><path fill="url(#l)" d="M17.1 42.38c.57-.7 1.66-1.35 3.08-1.85l-1.76-.5c-.48.2-.92.43-1.3.66"/><linearGradient x1="20.647" x2="25.106" y1="43.548" y2="40.101" gradientUnits="userSpaceOnUse"><stop offset="0" stop-color="#fff"/><stop offset=".148" stop-color="#FCFBF7"/><stop offset=".679" stop-color="#F1EFDD"/><stop offset="1" stop-color="#EDEBD4"/></linearGradient><path fill="url(#m)" d="M28.62 39.56c-.6-.06-1.2-.08-1.78-.08-.9 0-1.8.05-2.65.15v-1c.9-.1 1.82-.15 2.77-.15.55 0 1.1.02 1.63.05l.02 1.03z"/><linearGradient x1="34.516" x2="38.016" y1="41.37" y2="39.433" gradientUnits="userSpaceOnUse"><stop offset="0" stop-color="#EDEBD4"/><stop offset=".519" stop-color="#DBD38F"/><stop offset=".666" stop-color="#D8D08A"/><stop offset=".829" stop-color="#D0C87D"/><stop offset=".999" stop-color="#C3BB67"/><stop offset="1" stop-color="#C3BB67"/></linearGradient><path fill="url(#n)" d="M35.98 40.96l-.1.18.04 1.15c-.55-.73-1.6-1.34-2.9-1.8l1.63-.7c.48.18.9.4 1.3.62l.03.54z"/><linearGradient x1="30.375" x2="48.162" y1="43.226" y2="50.201" gradientUnits="userSpaceOnUse"><stop offset="0" stop-color="#EDEBD4"/><stop offset=".519" stop-color="#DBD38F"/><stop offset=".666" stop-color="#D8D08A"/><stop offset=".829" stop-color="#D0C87D"/><stop offset=".999" stop-color="#C3BB67"/><stop offset="1" stop-color="#C3BB67"/></linearGradient><path fill="url(#o)" d="M36.02 44.1c-.13.32-.52.7-.75.87l.08 1.94c1.3-.68 2.25-1.5 2.67-2.4l-2-.4z"/><linearGradient x1="25.865" x2="32.259" y1="47.265" y2="56.449" gradientUnits="userSpaceOnUse"><stop offset="0" stop-color="#EDEBD4"/><stop offset=".519" stop-color="#DBD38F"/><stop offset=".666" stop-color="#D8D08A"/><stop offset=".829" stop-color="#D0C87D"/><stop offset=".999" stop-color="#C3BB67"/><stop offset="1" stop-color="#C3BB67"/></linearGradient><path fill="url(#p)" d="M29.93 48.56c-1.25.2-2.58.3-3.96.3-.83 0-1.64-.04-2.42-.12l.65-1.43c.6.08 1.2.12 1.8.12 1.14 0 2.2-.07 3.2-.18l.73 1.32z"/></g><g transform="matrix(.925 0 0 .925 .28 -25.042)"><linearGradient x1="17.346" x2="35.225" y1="39.255" y2="27.849" gradientUnits="userSpaceOnUse"><stop offset="0" stop-color="#EDEBD4"/><stop offset=".519" stop-color="#DBD38F"/><stop offset=".666" stop-color="#D8D08A"/><stop offset=".829" stop-color="#D0C87D"/><stop offset=".999" stop-color="#C3BB67"/><stop offset="1" stop-color="#C3BB67"/></linearGradient><path fill="url(#q)" d="M24.23 36.54c-1.46.16-2.8.44-3.95.82l-1.73-.55c1.38-.52 3.06-.9 4.9-1.1l.78.84z"/><linearGradient x1="27.779" x2="37.798" y1="38.254" y2="33.476" gradientUnits="userSpaceOnUse"><stop offset="0" stop-color="#EDEBD4"/><stop offset=".519" stop-color="#DBD38F"/><stop offset=".666" stop-color="#D8D08A"/><stop offset=".829" stop-color="#D0C87D"/><stop offset=".999" stop-color="#C3BB67"/><stop offset="1" stop-color="#C3BB67"/></linearGradient><path fill="url(#r)" d="M28.58 36.5c1.6.12 3.1.42 4.35.86l1.6-.43c-1.48-.63-3.3-1.1-5.22-1.3l-.72.86z"/><linearGradient x1="13.277" x2="19.893" y1="43.277" y2="36.562" gradientUnits="userSpaceOnUse"><stop offset="0" stop-color="#fff"/><stop offset="1" stop-color="#DBD38F"/></linearGradient><path fill="url(#s)" d="M17.15 41.53c-.35-.4-.58-.84-.53-1.3.04-.4.23-.77.56-1.13l-1.75-.18c-.33.45-.53.95-.58 1.48-.04.45.06.9.3 1.3l2-.17z"/><linearGradient x1="16.616" x2="41.491" y1="30.336" y2="42.336" gradientUnits="userSpaceOnUse"><stop offset="0" stop-color="#EDEBD4"/><stop offset=".519" stop-color="#DBD38F"/><stop offset=".666" stop-color="#D8D08A"/><stop offset=".829" stop-color="#D0C87D"/><stop offset=".999" stop-color="#C3BB67"/><stop offset="1" stop-color="#C3BB67"/></linearGradient><path fill="url(#t)" d="M35.9 39.06c.2.35.34.77.3 1.15-.03.33-.14.64-.32.94l1.96.3c.16-.33.25-.68.25-1.04 0-.52-.23-1.03-.63-1.52l-1.58.18z"/><linearGradient x1="28.317" x2="45.58" y1="45.65" y2="37.481" gradientUnits="userSpaceOnUse"><stop offset="0" stop-color="#EDEBD4"/><stop offset=".519" stop-color="#DBD38F"/><stop offset=".666" stop-color="#D8D08A"/><stop offset=".829" stop-color="#D0C87D"/><stop offset=".999" stop-color="#C3BB67"/><stop offset="1" stop-color="#C3BB67"/></linearGradient><path fill="url(#u)" d="M29.87 45.08c2.18-.1 3.93-.74 5.34-1.4l-1.62-.86c-1.13.53-2.62.93-4.42 1.15l.7 1.1z"/><linearGradient x1="17.296" x2="42.111" y1="45.781" y2="36.378" gradientUnits="userSpaceOnUse"><stop offset="0" stop-color="#fff"/><stop offset="1" stop-color="#DBD38F"/></linearGradient><path fill="url(#v)" d="M24.24 44.08l-.64 1.13c-2.23-.1-3.96-.5-5.72-1.35l1.7-.75c1.25.5 2.86.85 4.66.98z"/></g><path fill="url(#w)" d="M15.14 41.7l2-.17-.14 3-2.05.47.2-3.3z" transform="matrix(.925 0 0 .925 .28 -25.042)"/><path fill="url(#x)" d="M24.2 47.3l.04-3.22-.64 1.13-.05 3.54.65-1.43z" transform="matrix(.925 0 0 .925 .28 -25.042)"/><path fill="#fff" d="M33.58 15.75L33.45 13l1.82.3.16 2.8-1.85-.35z"/><path fill="#fff" d="M27.24 15.62l.03 3.02.68 1.22-.05-3.22-.66-1.02z"/><path fill="url(#y)" d="M16.07 13.28c-.3-.35-.47-.72-.43-1.1.04-.38.22-.73.53-1.07l-.1 2.18z"/><path fill="none" stroke="#80690f" stroke-width=".7" d="M16.1 12.6c.37-.23.77-.43 1.2-.62L17.44 9c1.27-.5 2.83-.84 4.54-1.04l.7.8v1.9c.8-.07 1.67-.12 2.55-.12.5 0 1 .02 1.5.05V8.7l.66-.8c1.78.2 3.46.63 4.83 1.2l.12 2.65c.44.18.84.37 1.2.58l.03.5-.1.17"/><path fill="#fff" stroke="#565d66" stroke-width=".5" d="M24.4 1.9v15.66c0 .16.2.3.42.3.23 0 .42-.14.42-.3V1.9"/><circle cx="26.542" cy="28.284" r=".957" fill="#fff" stroke="#565d66" stroke-width=".541" transform="matrix(.925 0 0 .925 .28 -25.042)"/><path fill="url(#z)" stroke="#193766" stroke-width=".5" d="M25.24 2.4c1.26 3.56 11.5 3.24 11.5 9.36-1.76-4.3-10.18-.7-11.5-3.33V2.4z"/><path fill="none" stroke="#80690f" stroke-width=".7" d="M12.87 33.42L14 12.32c.05-.5.24-.95.54-1.37l1.63.16-.1 2.18.06.08-.13 2.77c.16.2.4.38.76.57l.05-1.2 1.58-.68c1.16.46 2.64.78 4.3.9l-.02 3c.54.05 1.1.1 1.65.1 1.07 0 2.07-.07 2.97-.18l-.03-3.02c1.67-.2 3.04-.57 4.1-1.06l1.5.78.05 1.2c.2-.15.57-.5.68-.8L33.45 13c.17-.27.27-.56.3-.86.04-.35-.1-.74-.3-1.06l1.47-.16c.37.44.57.9.57 1.4l1.17 21.2c.02.17.05.33 0 .5"/><path fill="none" stroke="#80690f" stroke-width=".7" d="M30.1 39.1s.04-2.27-.14-5.67c-.18-3.4-2.6-5.6-5.63-5.6s-5.43 2.2-5.6 5.6c-.17 2.92-.18 5-.18 5.53"/></g></svg>