<svg xmlns="http://www.w3.org/2000/svg" width="48" height="48" xmlns:xlink="http://www.w3.org/1999/xlink"><defs><linearGradient id="a" x1="840.983" x2="854.574" y1="648.125" y2="648.125" gradientUnits="userSpaceOnUse"><stop offset="0" stop-color="#fff" stop-opacity="0"/><stop offset="1" stop-color="#89ABBF"/></linearGradient><linearGradient x1="840.917" x2="859.81" y1="648.129" y2="648.129" gradientUnits="userSpaceOnUse"><stop offset="0" stop-color="#fff"/><stop offset="1" stop-color="#B7D0DC"/></linearGradient><radialGradient id="h" cx="876.989" cy="656.185" r="17.945" gradientUnits="userSpaceOnUse" gradientTransform="matrix(0 1 1 0 199.669 -234.93)" fy="656.185" fx="876.989"><stop offset="0" stop-color="#fff"/><stop offset=".685" stop-color="#2E659E"/><stop offset="1" stop-color="#1D3E63"/></radialGradient><radialGradient id="g" cx="178.78" cy="658.733" r="10.178" gradientUnits="userSpaceOnUse" gradientTransform="matrix(0 -1 1 0 199.669 824.239)" fy="658.733" fx="178.78"><stop offset="0" stop-color="#fff"/><stop offset=".09" stop-color="#DBE8F2"/><stop offset=".248" stop-color="#A2C3DE"/><stop offset=".395" stop-color="#75A6CD"/><stop offset=".525" stop-color="#5591C2"/><stop offset=".634" stop-color="#4185BB"/><stop offset=".708" stop-color="#3A80B8"/><stop offset="1" stop-color="#244A87"/></radialGradient><linearGradient id="b" x1="888.744" x2="876.696" y1="648.2" y2="648.2" gradientUnits="userSpaceOnUse" gradientTransform="translate(-855.345 -636.771)"><stop offset="0" stop-color="#fff"/><stop offset="1" stop-color="#acd5f9"/></linearGradient><linearGradient id="f" x1="840.983" x2="854.574" y1="648.125" y2="648.125" xlink:href="#a" gradientUnits="userSpaceOnUse" gradientTransform="translate(-845.202 -623.771)"/><linearGradient id="d" x1="840.916" x2="859.809" y1="648.128" y2="648.128" xlink:href="#a" gradientUnits="userSpaceOnUse"/><linearGradient id="e" x1="840.916" x2="859.809" y1="648.128" y2="648.128" xlink:href="#a" gradientUnits="userSpaceOnUse"/><linearGradient x1="888.744" x2="876.696" y1="648.2" y2="648.2" xlink:href="#b" gradientUnits="userSpaceOnUse" gradientTransform="translate(-836.738 -614.057)"/><linearGradient x1="888.744" x2="876.696" y1="648.2" y2="648.2" xlink:href="#b" gradientUnits="userSpaceOnUse" gradientTransform="translate(-856.368 -626.771)"/><linearGradient x1="904.173" x2="876.696" y1="648.2" y2="648.2" xlink:href="#b" gradientUnits="userSpaceOnUse" gradientTransform="translate(-855.345 -636.771)"/><linearGradient x1="904.173" x2="876.696" y1="648.2" y2="648.2" xlink:href="#b" gradientUnits="userSpaceOnUse" gradientTransform="translate(-855.345 -636.771)"/><linearGradient x1="904.173" x2="876.696" y1="648.2" y2="648.2" xlink:href="#b" gradientUnits="userSpaceOnUse" gradientTransform="translate(-855.345 -636.771)"/><linearGradient x1="904.173" x2="876.696" y1="648.2" y2="648.2" xlink:href="#b" gradientUnits="userSpaceOnUse" gradientTransform="translate(-855.345 -636.771)"/><linearGradient x1="904.173" x2="876.696" y1="648.2" y2="648.2" xlink:href="#b" gradientUnits="userSpaceOnUse" gradientTransform="translate(-855.345 -636.771)"/><linearGradient x1="904.173" x2="876.696" y1="648.2" y2="648.2" xlink:href="#b" gradientUnits="userSpaceOnUse" gradientTransform="translate(-855.345 -636.771)"/><linearGradient id="c" x1="904.173" x2="876.696" y1="648.2" y2="648.2" xlink:href="#b" gradientUnits="userSpaceOnUse" gradientTransform="translate(-855.345 -636.771)"/><linearGradient x1="904.173" x2="876.696" y1="648.2" y2="648.2" xlink:href="#b" gradientUnits="userSpaceOnUse" gradientTransform="translate(-855.345 -636.771)"/></defs><g><g stroke-linejoin="round"><path fill="url(#c)" stroke="#9cc8f7" stroke-width="2.537" d="M50.26 18c-4.14 0-5.85-2.86-9.85-3-4-.14-5 2.86-11.14 2.67-5.28-.14-3.7-1.3-6.9-1.24l-.34 3.9c0 .2-.17.38-.38.38-.1 0-.2-.04-.28-.1l-7.92-8.63c-.3-.3-.3-.78 0-1.08 0 0 5.92-6.7 7.92-8.62v-.02c.08-.07.18-.1.28-.1.2 0 .38.16.38.37V6.1c3.86-.15 2.98 1.43 8.27 1.57 6.13.2 7.13-2.8 11.13-2.67 4 .14 5.7 3 9.86 3" transform="matrix(.788 0 0 .788 12.066 14.301)"/><path fill="none" stroke="#fff" stroke-width=".79.268" d="M51.43 27.08c-2.66 0-5-2.05-7.58-2.14-2.57-.1-4.8 2.16-8.74 2.04-3.4-.1-4.17-1.38-6.23-1.35l.12 3.5c0 .14-.12.25-.26.25-.07 0-.13-.03-.17-.08l-5.1-5.5c-.2-.2-.2-.5 0-.7 0 0 3.8-4.27 5.1-5.5v-.02c.05-.04.1-.07.17-.07.14 0 .25.12.25.25v2.28c3.26-.1 3.93 1.37 7.33 1.46 3.95.1 5.95-2.03 8.52-1.94 2.57.1 4.57 2.25 7.24 2.25"/></g><g fill="url(#d)" transform="translate(-845.202 -623.771)"><linearGradient x1="840.917" x2="859.81" y1="648.129" y2="648.129" gradientUnits="userSpaceOnUse"><stop fill="url(#d)" offset="0" stop-color="#fff"/><stop fill="url(#d)" offset="1" stop-color="#B7D0DC"/></linearGradient><path fill="url(#e)" d="M859.23 640.06l-18.3 1.66v12.68l18.88 1.84-.03-16.22-.54.04zm-.46 1.04c0 .97.03 13.07.04 14.05-1-.1-16.03-1.6-16.88-1.67 0-.82 0-10.02 0-10.84.86-.07 15.85-1.46 16.85-1.54z"/></g><path fill="url(#f)" d="M13.57 17.33c0 .97.03 13.07.04 14.05-1-.1-16.03-1.6-16.88-1.67 0-.8 0-10 0-10.83.85-.07 15.85-1.46 16.85-1.54z"/><g transform="translate(-845.202 -623.771)"><path fill="none" stroke="#152a4c" stroke-width="1.8" d="M860.07 640.87c4 0 7.24 3.23 7.24 7.24 0 4-3.23 7.25-7.23 7.25s-7.26-3.24-7.26-7.24 3.26-7.24 7.27-7.24z"/><radialGradient cx="178.78" cy="658.733" r="10.178" gradientUnits="userSpaceOnUse" gradientTransform="matrix(0 -1 1 0 199.669 824.239)" fy="658.733" fx="178.78"><stop offset="0" stop-color="#fff"/><stop offset=".09" stop-color="#DBE8F2"/><stop offset=".248" stop-color="#A2C3DE"/><stop offset=".395" stop-color="#75A6CD"/><stop offset=".525" stop-color="#5591C2"/><stop offset=".634" stop-color="#4185BB"/><stop offset=".708" stop-color="#3A80B8"/><stop offset="1" stop-color="#244A87"/></radialGradient><path fill="url(#g)" d="M860.07 640.87c4 0 7.24 3.23 7.24 7.24 0 4-3.23 7.25-7.23 7.25s-7.26-3.24-7.26-7.24 3.26-7.24 7.27-7.24z"/><g><radialGradient cx="876.989" cy="656.185" r="17.945" gradientUnits="userSpaceOnUse" gradientTransform="matrix(0 1 1 0 199.669 -234.93)" fy="656.185" fx="876.989"><stop offset="0" stop-color="#fff"/><stop offset=".685" stop-color="#2E659E"/><stop offset="1" stop-color="#1D3E63"/></radialGradient><path fill="url(#h)" d="M852.8 648.1c0 1.94.76 3.76 2.14 5.13 1.37 1.37 3.18 2.12 5.13 2.12 1.92 0 3.75-.75 5.12-2.12 1.36-1.37 2.1-3.18 2.1-5.12 0-4-3.24-7.24-7.23-7.24-4 0-7.26 3.25-7.26 7.25zm13.35 0c0 1.64-.63 3.16-1.78 4.3-1.15 1.17-2.68 1.8-4.3 1.8-1.64 0-3.17-.63-4.32-1.8-1.15-1.14-1.78-2.66-1.78-4.3 0-3.35 2.74-6.1 6.1-6.1 3.35 0 6.08 2.75 6.08 6.1z"/></g></g></g></svg>