<svg xmlns="http://www.w3.org/2000/svg" width="48" height="48" xmlns:xlink="http://www.w3.org/1999/xlink"><defs><linearGradient id="d"><stop offset="0" stop-color="#ffbe7e"/><stop offset="1" stop-color="#ca6400"/></linearGradient><radialGradient id="a" cx="332.941" cy="387.478" r="22.413" gradientUnits="userSpaceOnUse"><stop offset=".08" stop-color="#F9A57D" stop-opacity=".8"/><stop offset="1" stop-color="#fff" stop-opacity="0"/></radialGradient><radialGradient id="b" cx="334.825" cy="396.366" r="23.366" gradientUnits="userSpaceOnUse" gradientTransform="matrix(.521 -.853 .512 .313 -42.664 558.13)"><stop offset=".203" stop-color="#FFF200"/><stop offset="1" stop-color="#fff" stop-opacity="0"/></radialGradient><radialGradient id="c" cx="334.965" cy="402.084" r="17.147" gradientUnits="userSpaceOnUse"><stop offset="0" stop-color="#F9A57D"/><stop offset="1" stop-color="#fff" stop-opacity="0"/></radialGradient><radialGradient cx="334.576" cy="389.436" r=".697" gradientUnits="userSpaceOnUse" xlink:href="#SVGID_4_"/><radialGradient cx="332.941" cy="387.478" r="22.413" gradientUnits="userSpaceOnUse" xlink:href="#a"/><radialGradient cx="334.825" cy="396.366" r="23.366" gradientTransform="matrix(.521 -.853 .512 .313 -42.664 558.13)" gradientUnits="userSpaceOnUse" xlink:href="#b"/><radialGradient cx="334.965" cy="402.084" r="17.147" gradientUnits="userSpaceOnUse" xlink:href="#c"/><radialGradient id="e" cx="13.839" cy="22.243" r="11.606" xlink:href="#d" fx="13.839" fy="22.243" gradientTransform="matrix(1.182 0 0 1.283 -4.986 -5.637)" gradientUnits="userSpaceOnUse"/></defs><g><path fill="none" stroke="#2e3436" stroke-width="1.182" d="M27.6 21.76c-.2.6-1 .9-1.33 1.46-.2.33-.1.54-.27 1.07-.12.32-.48.5-.5.72-.13.96-.24 2.04-.34 3.03.28 1.3 1.13 2.38.9 3.47-.5 2.38-1.5 4.8-3.76 7.28 0 0-3.32 1.9-7.27 2.03-4.57.14-7.6-.84-9.04-2.28C2.96 35.53.75 31.6.75 27c0-8.47 6.87-15.35 15.35-15.35 3.8 0 7.26 1.37 9.93 3.64l1.58 6.46z"/><g fill="none" stroke="#2e3436"><path d="M34.3 14.58l-.1-3.02 2.06 2.26.72 1 2.55-1.53.35 1.75 1.45 1.5-2.37 1.12-.34 1.23-.73 1.56-1.64-.5-1.9 1.18-1.48-1.2 2.3-2.94-4.04-.45.4-1.96z"/></g><g fill="none" stroke="#2e3436"><path d="M29.32 25.37l-3-.84-.4 2.18.63 2.06 2.1.42 1.44 1.17.65-2.5 1.94.36.07-1.5-.97-.98-.4-1.28-1.3.88z"/></g><g fill="none" stroke="#2e3436"><path d="M30.95 34.72l-1.13.53-.7-.53.7-.58 1.13.58z"/></g><g fill="none" stroke="#2e3436"><path d="M35.3 31.16l.46 1.13 1.32-1.14-1.32-.7-.47.7z"/></g><g fill="none" stroke="#2e3436"><path d="M31.07 17.43l-1.82 1.6-.5-1.6.5-.57 1.82.57z"/></g><g fill="none" stroke="#2e3436"><path d="M28.37 22.17L26.8 20.3l1.6-.46.58.52-.6 1.8z"/></g><g fill="none" stroke="#2e3436"><path d="M24.28 9.7l-1.16-.33-1.53.7-.8-1.54.87-1.44 1.45.8.52.12.9.5z"/></g><g fill="none" stroke="#2e3436"><path d="M32.23 5.13l1.73.84 1.14-.84-1.14-1.8-1.73 1.8z"/></g><g fill="none" stroke="#2e3436"><path d="M42.97 9.96l-.5 1.25-.5-1.24.5-.96.5.96z"/></g><g fill="none" stroke="#2e3436"><path d="M47.02 15.46l-.44.42-.8-.42.8-.22.44.22z"/></g><g fill="none" stroke="#2e3436"><path d="M33.43 22.26l-1.96 1.8-.8-1.8.8-.55 1.96.56z"/></g><g fill="none" stroke="#2e3436"><path d="M33.53 26.03l2-.22.8-.97v-.8l-.1-.7-.7-1.66-1.9.44.24 1.93z"/></g><g fill="none" stroke="#2e3436"><path d="M27.9 16.27l-2.22 1.16-2.24-1.13.1-2.24 1.62-.53.52-1.47 1.96.04-.47 1.96z"/></g><g fill="none" stroke="#2e3436"><path d="M30.42 12.98l-.94 1.07-.6-1.07.6-.83.94.83z"/></g><g fill="none" stroke="#2e3436"><path d="M26.9 9.5l-.47.12-.4-.13.4-.25.48.24z"/></g><g fill="none" stroke="#2e3436" transform="matrix(1.234 0 0 1.234 -385.91 -466.652)"><radialGradient cx="334.576" cy="389.436" r=".697" gradientUnits="userSpaceOnUse"><stop offset="0" stop-color="#F9A57D" stop-opacity=".43"/><stop offset=".294" stop-color="#fff" stop-opacity="0"/></radialGradient><path d="M335.16 389.43l-.4.8-.77-.8.76-.8.4.8z"/></g><path fill="url(#e)" stroke="#eeeeec" stroke-width=".591" d="M27.6 21.76c-.2.6-1 .9-1.33 1.46-.2.33-.1.54-.27 1.07-.12.32-.48.5-.5.72-.13.96-.24 2.04-.34 3.03.28 1.3 1.13 2.38.9 3.47-.5 2.38-1.5 4.8-3.76 7.28 0 0-3.32 1.9-7.27 2.03-4.57.14-7.6-.84-9.04-2.28C2.96 35.53.75 31.6.75 27c0-8.47 6.87-15.35 15.35-15.35 3.8 0 7.26 1.37 9.93 3.64l1.58 6.46z"/><g><g><path fill="#fef7e0" d="M34.2 11.54l2.06 2.26.7 1 2.56-1.53.35 1.76 1.45 1.5-2.37 1.12-.34 1.23-.72 1.56-1.63-.5-1.9 1.18-1.48-1.2 2.3-2.94-4.04-.45.4-1.96h2.76l-.1-3.03m-.42-1l.04 1 .08 2.65H31.22l-.06.3-.4 1.96-.07.4.4.04 3.36.38-1.88 2.4-.22.3.28.22 1.48 1.2.2.18.23-.14 1.76-1.1 1.46.45.3.1.15-.3.74-1.56.02-.03V19l.3-1.07 2.22-1.04.47-.22-.36-.37-1.4-1.42-.32-1.66-.1-.52-.45.27-2.26 1.36-.5-.7-2.1-2.3-.7-.76z"/></g><g><path fill="#fef7e0" d="M31.4 24.42l.4 1.28.96 1-.08 1.5-1.94-.37-.66 2.5-1.43-1.17-2.1-.42-.64-2.05.4-2.2 3 .85.78-.05 1.3-.88m.22-.58l-.4.27-1.24.83-.6.05-2.95-.83-.38-.1-.08.4-.4 2.17v.1l.02.08.63 2.04.05.22.22.04 2.02.4 1.35 1.1.45.38.14-.56.57-2.16 1.62.3.4.07.04-.42.07-1.5v-.16l-.1-.1-.9-.93-.38-1.2-.15-.46z"/></g><g><path fill="#fef7e0" d="M29.82 34.12l1.12.58-1.12.53-.7-.53.7-.58m-.05-.44l-.2.15-.7.6-.36.28.4.3.7.53.17.13.2-.1 1.13-.52.68-.32-.66-.35L30 33.8l-.23-.12z"/></g><g><path fill="#fef7e0" d="M35.75 30.43l1.32.7-1.32 1.14-.47-1.14.47-.7m-.12-.5l-.18.3-.47.7-.1.17.06.18.47 1.13.2.48.4-.33 1.3-1.13.42-.36-.48-.25-1.3-.7-.3-.16z"/></g><g><path fill="#fef7e0" d="M29.24 16.84l1.82.57-1.82 1.6-.5-1.6.5-.56m-.12-.43l-.16.2-.5.56-.15.16.08.2.5 1.6.18.54.43-.37 1.8-1.6.5-.44-.63-.2-1.82-.58-.23-.07z"/></g><g><path fill="#fef7e0" d="M28.4 19.82l.57.52-.6 1.8-1.58-1.85 1.6-.48m.1-.42l-.2.06-1.6.48-.55.16.36.43 1.57 1.86.43.5.2-.63.62-1.82.08-.22-.18-.17-.56-.52-.16-.14z"/></g><g><path fill="#fef7e0" d="M21.67 7.07l1.44.8.53.13.9.5-.26 1.17-1.16-.33-1.52.7-.8-1.53.9-1.43m-.14-.5l-.2.3-.87 1.45-.1.18.08.18.8 1.54.16.3.33-.14 1.4-.64 1.04.3.37.1.1-.4.25-1.14.06-.27-.24-.14-.9-.53-.05-.02-.05-.02-.47-.1-1.4-.8-.3-.16z"/></g><g><path fill="#fef7e0" d="M33.95 3.32L35.1 5.1l-1.15.85-1.73-.85 1.73-1.78m.06-.6l-.3.35-1.74 1.78-.36.36.46.24 1.73.84.2.1.17-.13 1.14-.85.3-.2-.2-.3-1.13-1.78-.26-.4z"/></g><g><path fill="#fef7e0" d="M42.47 8.98l.5.95-.5 1.26-.52-1.27.52-.95m0-.8l-.33.62-.5.96-.1.15.07.18.53 1.25.35.86.33-.87.5-1.26.06-.16-.07-.13-.5-.96-.33-.62z"/></g><g><path fill="#fef7e0" d="M46.57 15.22l.44.22-.43.4-.8-.4.8-.22m.04-.4l-.13.05-.8.22-.9.24.83.43.8.4.23.13.2-.17.44-.42.4-.35-.5-.24-.44-.2-.12-.07z"/></g><g><path fill="#fef7e0" d="M27.4 13.06l.5.98-.5.98-.95-.98.95-.98m.1-.62l-.37.36-.95.98-.25.25.25.26.95.98.36.37.23-.46.5-1 .08-.16-.08-.17-.5-.97-.23-.46z"/></g><g><path fill="#fef7e0" d="M31.46 21.7l1.96.54-1.96 1.8-.8-1.8.8-.55m-.06-.4l-.15.1-.8.53-.25.18.12.3.8 1.8.2.47.4-.35 1.95-1.8.5-.46-.65-.18-1.96-.54-.16-.05z"/></g><g><path fill="#fef7e0" d="M35.53 21.65l.7 1.65.08.7.03.8-.8 1-2 .2.33-2-.25-1.9 1.93-.45m.22-.44l-.3.1-1.92.43-.33.08.04.34.25 1.86-.35 1.95-.08.48.5-.05 2-.22.15-.02.1-.1.8-1 .08-.1v-.14l-.02-.8-.1-.74v-.05l-.02-.04-.7-1.66-.1-.3z"/></g><g><path fill="#fef7e0" d="M25.67 12.04l1.96.04-.47 1.96.72 2.2-2.2 1.17-2.26-1.12.1-2.24 1.63-.52.52-1.48m-.26-.38l-.08.26-.46 1.3-1.45.46-.23.08-.02.26-.1 2.25v.24l.2.1 2.26 1.14.18.1.17-.1 2.2-1.17.3-.14-.1-.3-.7-2.1.44-1.87.1-.45h-.46l-1.96-.03h-.27z"/></g><g><path fill="#fef7e0" d="M29.47 12.13l.94.83-.93 1.07-.6-1.07.6-.83m-.06-.55l-.23.33-.6.85-.13.2.1.2.6 1.06.26.47.35-.4.94-1.06.23-.27-.27-.24-.95-.85-.3-.27z"/></g><g><path fill="#fef7e0" d="M26.42 9.23l.48.24-.48.13-.4-.13.4-.24m-.02-.42l-.17.12-.4.23-.7.4.77.27.4.13.1.04.1-.04.5-.14.95-.26-.9-.43-.47-.23-.18-.1z"/></g><g><path fill="#fef7e0" d="M27.28 13.04l.5.97-.5 1-.95-1 .95-.96m.1-.63l-.37.38-.94.97-.25.26.26.27.95.98.37.37.24-.46.5-.98.1-.17-.1-.16-.5-.97-.23-.46z"/></g></g><g fill="#f57900"><path d="M34.3 14.58l-.1-3.02 2.06 2.26.72 1 2.55-1.53.35 1.75 1.45 1.5-2.37 1.12-.34 1.23-.73 1.56-1.64-.5-1.9 1.18-1.48-1.2 2.3-2.94-4.04-.45.4-1.96z"/></g><g fill="#f57900"><path d="M29.32 25.37l-3-.84-.4 2.18.63 2.06 2.1.42 1.44 1.17.65-2.5 1.94.36.07-1.5-.97-.98-.4-1.28-1.3.88z"/></g><g fill="#f57900"><path d="M30.95 34.72l-1.13.53-.7-.53.7-.58 1.13.58z"/></g><g fill="#f57900"><path d="M35.3 31.16l.46 1.13 1.32-1.14-1.32-.7-.47.7z"/></g><g fill="#f57900"><path d="M31.07 17.43l-1.82 1.6-.5-1.6.5-.57 1.82.57z"/></g><g fill="#f57900"><path d="M28.37 22.17L26.8 20.3l1.6-.46.58.52-.6 1.8z"/></g><g fill="#f57900"><path d="M24.28 9.7l-1.16-.33-1.53.7-.8-1.54.87-1.44 1.45.8.52.12.9.5z"/></g><g fill="#f57900"><path d="M32.23 5.13l1.73.84 1.14-.84-1.14-1.8-1.73 1.8z"/></g><g fill="#f57900"><path d="M42.97 9.96l-.5 1.25-.5-1.24.5-.96.5.96z"/></g><g fill="#f57900"><path d="M47.02 15.46l-.44.42-.8-.42.8-.22.44.22z"/></g><g fill="#f57900"><path d="M33.43 22.26l-1.96 1.8-.8-1.8.8-.55 1.96.56z"/></g><g fill="#f57900"><path d="M33.53 26.03l2-.22.8-.97v-.8l-.1-.7-.7-1.66-1.9.44.24 1.93z"/></g><g fill="#f57900"><path d="M27.9 16.27l-2.22 1.16-2.24-1.13.1-2.24 1.62-.53.52-1.47 1.96.04-.47 1.96z"/></g><g fill="#f57900"><path d="M30.42 12.98l-.94 1.07-.6-1.07.6-.83.94.83z"/></g><g fill="#f57900"><path d="M26.9 9.5l-.47.12-.4-.13.4-.25.48.24z"/></g><g><path fill="#c60e55" d="M70.47 30.88l.67-.18.38.18-.38.35z"/></g><path fill="none" stroke="#6e3b00" stroke-width=".75" d="M17.28 11.1c.57.97-2.37 3.73-6.56 6.15-4.2 2.42-8.06 3.6-8.63 2.6" color="#000" stroke-linecap="round" stroke-linejoin="bevel" overflow="visible" enable-background="accumulate"/><path fill="none" stroke="#6e3b00" stroke-width=".5" d="M21.8 12.4c.8 1.35-3.28 5.16-9.1 8.52C6.9 24.27 1.58 25.88.8 24.52" color="#000" stroke-linejoin="bevel" stroke-dasharray="0.50000000000000000, 0.50000000000000000" overflow="visible" enable-background="accumulate"/><path fill="none" stroke="#6e3b00" stroke-width=".75" d="M24.92 17.36c-1.68 2.1-5.33 4.97-9.87 7.6C8.17 28.93 1.85 30.84.9 29.23" color="#000" stroke-linecap="round" stroke-linejoin="bevel" overflow="visible" enable-background="accumulate"/><path fill="none" stroke="#6e3b00" stroke-width=".75" d="M13.2 40.7c.55.97 4.4-.2 8.6-2.62.76-.43 1.48-.88 2.14-1.32" color="#000" stroke-linecap="round" stroke-linejoin="bevel" overflow="visible" enable-background="accumulate"/><path fill="none" stroke="#6e3b00" stroke-width=".5" d="M8.5 39.5c.78 1.35 6.12-.26 11.92-3.62 2.03-1.17 3.85-2.4 5.32-3.56" color="#000" stroke-linejoin="bevel" stroke-dasharray="0.50000000000000000, 0.50000000000000000" overflow="visible" enable-background="accumulate"/><path fill="none" stroke="#6e3b00" stroke-width=".75" d="M4.48 37.03c.93 1.6 7.26-.3 14.13-4.28 2.57-1.47 4.84-3.02 6.64-4.47" color="#000" stroke-linecap="round" stroke-linejoin="bevel" overflow="visible" enable-background="accumulate"/><path fill="none" stroke="#6e3b00" stroke-width=".5" d="M27.43 21.28c-2 2.2-5.66 5-10.13 7.58-7.4 4.28-14.23 6.34-15.24 4.6" color="#000" stroke-linejoin="bevel" stroke-dasharray="0.50000000000000000, 0.50000000000000000" overflow="visible" enable-background="accumulate"/><path fill="none" stroke="#6e3b00" stroke-width=".75" d="M22 39.15c-1.9-1.74-4.97-6.03-8-11.3-4.22-7.3-6.77-13.7-5.7-14.32" color="#000" stroke-linecap="round" stroke-linejoin="bevel" overflow="visible" enable-background="accumulate"/><path fill="none" stroke="#6e3b00" stroke-width=".5" d="M8.3 13.53c1.08-.62 5.37 4.8 9.58 12.08 2.8 4.84 4.85 9.3 5.6 11.92" color="#000" stroke-linejoin="bevel" overflow="visible" enable-background="accumulate" stroke-dasharray="0.50000000000000000, 0.50000000000000000"/><path fill="none" stroke="#6e3b00" stroke-width=".5" d="M20.23 40.05c-3.15-1.06-7.05-4.8-10.05-10-4.2-7.3-5.05-14.7-1.87-16.52" color="#000" stroke-linejoin="bevel" overflow="visible" enable-background="accumulate" stroke-dasharray="0.50000000000000000, 0.50000000000000000"/><path fill="none" stroke="#6e3b00" stroke-width=".75" d="M8.3 13.53c3.2-1.84 9.17 2.6 13.4 9.9 2.06 3.58 3.32 7.2 3.68 10.16" color="#000" stroke-linecap="round" stroke-linejoin="bevel" overflow="visible" enable-background="accumulate"/><path fill="none" stroke="#6e3b00" stroke-width=".75" d="M17.8 41c-4.25-.6-8.7-3.74-11.55-8.67-4.22-7.3-3.3-15.7 2.06-18.8" color="#000" stroke-linecap="round" stroke-linejoin="bevel" overflow="visible" enable-background="accumulate"/><path fill="none" stroke="#6e3b00" stroke-width=".5" d="M8.3 13.53c5.36-3.1 13.1.32 17.32 7.6.33.58.63 1.16.9 1.74" color="#000" stroke-linejoin="bevel" overflow="visible" enable-background="accumulate" stroke-dasharray="0.50000000000000000, 0.50000000000000000"/></g></svg>