<svg xmlns="http://www.w3.org/2000/svg" width="48" height="48" viewBox="0 0 45.004 44.236" overflow="visible" enable-background="new 0 0 45.004 44.236" version="1"><defs><linearGradient x1="-188.613" x2="-194.38" y1="-97.87" y2="-110.685" gradientTransform="matrix(.525 -.851 .851 .525 222.883 -77.157)" gradientUnits="userSpaceOnUse"><stop offset="0" stop-color="#A0C6DE"/><stop offset="1" stop-color="#fff"/></linearGradient><linearGradient x1="310.325" x2="304.558" y1="53.231" y2="40.416" gradientTransform="matrix(-.611 -.792 .792 -.611 170.929 282.773)" gradientUnits="userSpaceOnUse"><stop offset="0" stop-color="#A0C6DE"/><stop offset="1" stop-color="#fff"/></linearGradient><linearGradient x1="153.899" x2="148.133" y1="-71.644" y2="-84.458" gradientTransform="matrix(-.224 -.975 .975 -.224 141.98 147.987)" gradientUnits="userSpaceOnUse"><stop offset="0" stop-color="#A0C6DE"/><stop offset="1" stop-color="#fff"/></linearGradient><linearGradient id="a" x1="208.927" x2="208.064" y1="-201.51" y2="-186.55" gradientTransform="matrix(.961 -.961 .961 .961 4.935 413.357)" gradientUnits="userSpaceOnUse"><stop offset=".006" stop-color="#818B99"/><stop offset=".242" stop-color="#D9E5E8"/><stop offset=".68" stop-color="#C3D1DC"/><stop offset="1" stop-color="#818B99"/></linearGradient><linearGradient id="b" x1="220.77" x2="225.196" y1="-199.813" y2="-191.666" gradientTransform="matrix(.961 -.961 .961 .961 4.935 413.357)" gradientUnits="userSpaceOnUse"><stop offset="0" stop-color="#C3D1DC"/><stop offset=".343" stop-color="#E3E9EB"/><stop offset=".646" stop-color="#E3E9EB"/><stop offset="1" stop-color="#B4C1CA"/></linearGradient><linearGradient id="d" x1="212.153" x2="206.763" y1="-209.6" y2="-200.166" gradientTransform="matrix(.961 -.961 .961 .961 4.935 413.357)" gradientUnits="userSpaceOnUse"><stop offset="0" stop-color="#C3D1DC"/><stop offset=".343" stop-color="#E3E9EB"/><stop offset=".646" stop-color="#E3E9EB"/><stop offset="1" stop-color="#B4C1CA"/></linearGradient><linearGradient id="f" x1="213.316" x2="213.316" y1="-199.786" y2="-187.512" gradientTransform="matrix(.961 -.961 .961 .961 4.935 413.357)" gradientUnits="userSpaceOnUse"><stop offset=".006" stop-color="#97A2B2"/><stop offset=".242" stop-color="#E0EAEB"/><stop offset=".68" stop-color="#CBD9DD"/><stop offset="1" stop-color="#818B99"/></linearGradient><radialGradient id="h" cx="214" cy="-198.587" r="8.623" gradientUnits="userSpaceOnUse" gradientTransform="matrix(.961 -.961 .961 .961 4.935 413.357)" fy="-198.587" fx="214"><stop offset="0" stop-color="#fff"/><stop offset=".573" stop-color="#D3DFDF"/><stop offset="1" stop-color="#ACB9CA"/></radialGradient><linearGradient id="i" x1="207.471" x2="211.849" y1="-188.884" y2="-178.304" gradientTransform="matrix(.961 -.961 .961 .961 4.935 413.357)" gradientUnits="userSpaceOnUse"><stop offset="0" stop-color="#C3D1DC"/><stop offset=".343" stop-color="#E3E9EB"/><stop offset=".646" stop-color="#E3E9EB"/><stop offset="1" stop-color="#B4C1CA"/></linearGradient></defs><path fill="none" stroke="#3e5780" stroke-width="1.875" d="M13.52 10.64c1.74 1.82 4.7 4.78 4.7 4.78-1 .57-1.94 5.76-1.94 5.76-.38.38-6.34.68-8.2 1.03l-.1.02c-.6.04-1.12.05-1.5.06-1.06.05-1.8-.1-2.5-.4-2.84-1.13-3.7-5.73-2.2-9.45 1.5-3.7 5.03-5.74 7.86-4.6.7.3 1.25.6 1.86 1.08.75.54 1.78 1.5 2.02 1.74z"/><path fill="none" stroke="#3e5780" stroke-width="1.875" d="M25.25 6.4c-.38 1-1.33 3.18-1.3 5.38.04 1.32 1 3.22 1.8 4.02.8.8 3.17 2.23 4.5 2.26 2.2.04 4.9-1.4 5.36-1.74.5-.35 1.17-.8 1.7-1.35 2.17-2.16 1.06-5.18-1.77-8.02-2.84-2.83-6.77-4.86-8.94-2.7-.55.54-.98 1.16-1.35 2.16z"/><path fill="none" stroke="#3e5780" stroke-width="1.875" d="M23 32.88c1.44-2.92 2.03-5 2.2-5.2.2-.17 4 .35 5.6-1.27.28 0 2.92 4.4 4.02 6.6v-.02c.65 1.07 1.07 2.12 1.34 2.7.44 1 .57 1.72.57 2.48 0 3.06-3.44 5.9-7.45 5.9-4 0-7.7-2.84-7.7-5.9 0-.76.14-1.57.24-2.15.06-.4.5-1.9 1.28-3.28l-.1.16z"/><path fill="url(#a)" stroke="#3e5780" d="M25.56 31.8c-.05.05-.1.1-.15.15-2.56 2.57-7.43 1.86-10.86-1.57-2.58-2.58-3.62-5.97-2.9-8.58l5.6-5.4L28 28.4l-2.44 3.4z"/><path fill="url(#b)" stroke="#3e5780" stroke-width=".5" d="M25.25 6.4c-.38 1-1.33 3.18-1.3 5.38.04 1.32 1 3.22 1.8 4.02.8.8 3.17 2.23 4.5 2.26 2.2.04 4.9-1.4 5.36-1.74.5-.35 1.17-.8 1.7-1.35 2.17-2.16 1.06-5.18-1.77-8.02-2.84-2.83-6.77-4.86-8.94-2.7-.55.54-.98 1.16-1.35 2.16z"/><g transform="matrix(1.359 0 0 1.359 .17 -15.143)"><linearGradient id="c" x1="220.36" x2="226.163" y1="-200.06" y2="-190.732" gradientTransform="matrix(.707 -.707 .707 .707 3.507 315.401)" gradientUnits="userSpaceOnUse"><stop offset="0" stop-color="#fff"/><stop offset=".646" stop-color="#E3E9EB"/><stop offset="1" stop-color="#B4C1CA"/></linearGradient><path fill="url(#c)" d="M18.67 15.92l-.1.27c-.32.82-.86 2.2-.84 3.6.02.9.7 2.25 1.26 2.82.53.54 2.23 1.58 3.14 1.6 1.5.03 3.46-.98 3.82-1.24l.15-.1 1.06-.84c.73-.73.95-1.58.7-2.57-.26-.94-.94-2-2-3.04-2-2-4.8-3.47-6.25-2-.4.4-.7.86-.93 1.5zm6.9 6.25l-.12.1c-.26.18-2.02 1.1-3.3 1.07-.55 0-2.03-.84-2.54-1.34-.4-.43-.98-1.57-1-2.2 0-1.23.5-2.52.8-3.3l.1-.27c.2-.52.4-.86.73-1.2.94-.93 3.28.3 5 2.02.95.94 1.56 1.86 1.77 2.65.18.68.04 1.2-.43 1.68l-1 .8z"/></g><path fill="url(#d)" stroke="#3e5780" stroke-width=".5" d="M13.52 10.64c1.74 1.82 4.7 4.78 4.7 4.78-1 .57-1.94 5.76-1.94 5.76-.38.38-6.34.68-8.2 1.03l-.1.02c-.6.04-1.12.05-1.5.06-1.06.05-1.8-.1-2.5-.4-2.84-1.13-3.7-5.73-2.2-9.45 1.5-3.7 5.03-5.74 7.86-4.6.7.3 1.25.6 1.86 1.08.75.54 1.78 1.5 2.02 1.74z"/><g transform="matrix(1.359 0 0 1.359 .17 -15.143)"><linearGradient id="e" x1="205.421" x2="214.427" y1="-209.472" y2="-200.113" gradientTransform="matrix(.707 -.707 .707 .707 3.507 315.401)" gradientUnits="userSpaceOnUse"><stop offset="0" stop-color="#fff"/><stop offset=".646" stop-color="#E3E9EB"/><stop offset="1" stop-color="#B4C1CA"/></linearGradient><path fill="url(#e)" d="M1.4 20.4c-.65 1.6-.68 3.55-.08 4.95.2.45.44.83.73 1.13.25.25.53.43.84.56.55.22 1.06.3 1.74.27 0 0 .28 0 .28 0l.8-.03h.07c.56-.12 1.64-.22 2.8-.32 1-.1 2.37-.22 2.9-.33l.14-.04.03-.15c.2-1.04.6-2.9 1.17-3.78l.1-.16-3.32-3.4c-.2-.2-.92-.85-1.42-1.2-.45-.35-.83-.57-1.32-.77-.8-.32-1.67-.3-2.56.1-1.26.53-2.32 1.68-2.92 3.16zm3.2-2.5c.72-.3 1.45-.34 2.1-.08.42.18.74.37 1.15.68.46.33 1.1.92 1.3 1.1 0 0 2.42 2.48 2.94 3-.5.9-.88 2.46-1.07 3.45-.55.1-1.7.2-2.57.28-1.12.1-2.17.2-2.7.3l-.8.04s-.4.07-.4.07l.14-.06c-.6.02-1.02-.04-1.48-.23-.24-.1-.46-.24-.65-.44-.25-.23-.45-.55-.6-.92-.54-1.23-.5-2.96.07-4.4.53-1.3 1.45-2.3 2.55-2.78z"/></g><path fill="url(#f)" stroke="#3e5780" stroke-width=".8" d="M23.08 12.98c-1.75.32-5.04 2.18-5.86 3.43l.03-.03c-2 2.56-1.22 6.9 1.9 10.03 3.1 3.1 7.43 3.9 10 1.93 1.25-.82 3.1-4.1 3.43-5.86"/><g transform="matrix(1.359 0 0 1.359 .17 -15.143)"><linearGradient id="g" x1="213.509" x2="213.509" y1="-200.01" y2="-187.979" gradientTransform="matrix(.707 -.707 .707 .707 3.507 315.401)" gradientUnits="userSpaceOnUse"><stop offset=".006" stop-color="#EFEEEC"/><stop offset=".41" stop-color="#CBD9DD"/><stop offset="1" stop-color="#C3D1DC"/></linearGradient><path fill="url(#g)" d="M12.75 23.36c-1.4 1.77-.8 4.88 1.4 7.05 2.15 2.17 5.25 2.78 7.06 1.4.82-.54 2.18-2.87 2.42-4.15l.06-.34-6.77-6.37c-1.28.24-3.6 1.6-4.15 2.43zm8.03 7.87c-1.57 1.2-4.28.64-6.2-1.27-1.9-1.92-2.48-4.64-1.28-6.17.47-.72 2.6-1.95 3.7-2.15l5.9 5.9c-.2 1.1-1.43 3.23-2.12 3.68z"/></g><path fill="url(#h)" stroke="#fff" d="M22.13 23.43c2.84 2.84 6.87 3.42 9 1.3 2.12-2.13 1.53-6.15-1.3-9-2.85-2.84-6.88-3.42-9-1.3-2.12 2.13-1.54 6.15 1.3 9z"/><path fill="none" stroke="#3e5780" d="M29.15 28.33c1.25-.82 3.1-4.1 3.43-5.86"/><path fill="none" stroke="#3e5780" stroke-width=".938" d="M23.08 12.98c-1.75.32-5.04 2.18-5.86 3.43"/><path fill="url(#i)" stroke="#3e5780" stroke-width=".5" d="M23 32.88c1.44-2.92 2.03-5 2.2-5.2.2-.17 4 .35 5.6-1.27.28 0 2.92 4.4 4.02 6.6v-.02c.65 1.07 1.07 2.12 1.34 2.7.44 1 .57 1.72.57 2.48 0 3.06-3.44 5.9-7.45 5.9-4 0-7.7-2.84-7.7-5.9 0-.76.14-1.57.24-2.15.06-.4.5-1.9 1.28-3.28l-.1.16z"/><g transform="matrix(1.359 0 0 1.359 .17 -15.143)"><linearGradient id="j" x1="205.422" x2="212.544" y1="-186.577" y2="-181.829" gradientTransform="matrix(.707 -.707 .707 .707 3.507 315.401)" gradientUnits="userSpaceOnUse"><stop offset="0" stop-color="#fff"/><stop offset=".646" stop-color="#E3E9EB"/><stop offset="1" stop-color="#B4C1CA"/></linearGradient><path fill="url(#j)" d="M18.52 31.9l-.15.38c-.25.65-.66 1.74-1.3 3.07-.56 1.02-.86 2.1-.9 2.34l-.04.18c-.06.4-.14.9-.14 1.36 0 .8.38 1.65 1.1 2.37 1.07 1.08 2.73 1.75 4.32 1.75 2.75 0 5.25-1.96 5.25-4.1 0-.62-.12-1.12-.4-1.74 0 0 0 .02 0 .03-.03-.07-.06-.15-.12-.28-.2-.45-.47-1.07-.85-1.7-.7-1.37-2.05-3.63-2.62-4.45l-.13-.2-.2.14c-1.02.68-2.63.7-3.4.7 0 0-.36 0-.36 0l-.08.15zm.5.57s.04 0 .04 0c.73 0 2.2-.04 3.3-.64.57.86 1.72 2.8 2.34 4.03.36.6.62 1.17.8 1.6 0 0 .1.24.1.24.26.54.35.96.35 1.46 0 1.82-2.16 3.47-4.54 3.47-1.4 0-2.85-.6-3.8-1.53-.6-.6-.92-1.28-.92-1.94 0-.4.08-.85.14-1.22l.03-.18c.03-.18.3-1.17.82-2.08.62-1.3 1.02-2.36 1.25-2.98 0 0 .05-.13.1-.23z"/></g><path fill="none" stroke="#3e5780" stroke-width=".938" d="M31.46 25.23c.33-.5.74-1.64.74-1.64.95-2.32.1-5.54-2.3-7.94-2.42-2.42-5.66-3.26-7.97-2.3-.52.23-1.6.74-1.6.74"/><g transform="matrix(1.359 0 0 1.359 .17 -15.143)"><linearGradient id="k" x1="16.058" x2="6.382" y1="10.914" y2="14.66" gradientUnits="userSpaceOnUse"><stop offset="0" stop-color="#fff"/><stop offset="1" stop-color="#709EC3"/></linearGradient><path fill="url(#k)" d="M4.47 14.22l.7.7c2.7-2.7 7.05-3.52 11.6-2.18l.3-.96c-4.93-1.44-9.63-.53-12.6 2.44z"/></g><g transform="matrix(1.359 0 0 1.359 .17 -15.143)"><linearGradient id="l" x1="30.796" x2="30.172" y1="38.886" y2="23.746" gradientUnits="userSpaceOnUse"><stop offset="0" stop-color="#fff"/><stop offset="1" stop-color="#709EC3"/></linearGradient><path fill="url(#l)" d="M28.33 21.64c3.52 5.54 3.84 11.65.82 15.58l.8.6c3.27-4.26 2.97-10.82-.78-16.7l-.84.52z"/></g><g transform="matrix(1.359 0 0 1.359 .17 -15.143)"><linearGradient id="m" x1="2.537" x2="11.277" y1="29.448" y2="40.217" gradientUnits="userSpaceOnUse"><stop offset="0" stop-color="#fff"/><stop offset="1" stop-color="#709EC3"/></linearGradient><path fill="url(#m)" d="M1.94 30.24c1.06 2.4 2.6 4.6 4.56 6.56 2 2 4.37 3.63 6.84 4.68l.4-.92c-2.36-1-4.62-2.55-6.54-4.47-1.87-1.88-3.33-3.98-4.35-6.27l-.92.4z"/></g><g transform="matrix(1.359 0 0 1.359 .17 -15.143)"><linearGradient id="n" x1="17.033" x2="7.357" y1="13.433" y2="17.179" gradientUnits="userSpaceOnUse"><stop offset="0" stop-color="#fff"/><stop offset="1" stop-color="#709EC3"/></linearGradient><path fill="url(#n)" d="M6.84 16.58l.7.7c2-2 5.1-2.7 8.5-1.9l.22-1c-3.73-.85-7.16-.06-9.42 2.2z"/></g><g transform="matrix(1.359 0 0 1.359 .17 -15.143)"><linearGradient id="o" x1="28.224" x2="27.6" y1="38.993" y2="23.855" gradientUnits="userSpaceOnUse"><stop offset="0" stop-color="#fff"/><stop offset="1" stop-color="#709EC3"/></linearGradient><path fill="url(#o)" d="M26.16 23c2.4 4 2.76 8.36.9 11.4l.85.53c2.07-3.36 1.72-8.14-.88-12.46l-.86.52z"/></g><g transform="matrix(1.359 0 0 1.359 .17 -15.143)"><linearGradient id="p" x1="4.423" x2="13.164" y1="27.918" y2="38.687" gradientUnits="userSpaceOnUse"><stop offset="0" stop-color="#fff"/><stop offset="1" stop-color="#709EC3"/></linearGradient><path fill="url(#p)" d="M4.72 30.05c.86 1.8 2.05 3.5 3.54 4.98 1.8 1.8 3.94 3.2 6.17 4.04l.35-.94c-2.1-.8-4.1-2.1-5.8-3.8-1.42-1.4-2.54-3-3.35-4.7l-.9.42z"/></g></svg>