<svg xmlns="http://www.w3.org/2000/svg" width="48" height="48" xmlns:xlink="http://www.w3.org/1999/xlink"><defs><linearGradient id="c"><stop offset="0" stop-opacity=".342"/><stop offset="1" stop-opacity="0"/></linearGradient><linearGradient id="b"><stop offset="0" stop-opacity=".505"/><stop offset="1" stop-opacity="0"/></linearGradient><linearGradient id="a"><stop offset="0" stop-color="#2e3436"/><stop offset="1" stop-color="#2e3436" stop-opacity="0"/></linearGradient><radialGradient cx="24.032" cy="39.524" r="23.841" xlink:href="#a" fx="24.032" fy="39.524" gradientTransform="matrix(1 0 0 .345 0 25.893)" gradientUnits="userSpaceOnUse"/><radialGradient id="d" cx="10.73" cy="42.792" r="10.371" xlink:href="#b" fx="10.73" fy="42.792" gradientTransform="matrix(1 0 0 .333 0 28.528)" gradientUnits="userSpaceOnUse"/><radialGradient id="e" cx="10.73" cy="42.792" r="10.371" xlink:href="#c" gradientUnits="userSpaceOnUse" gradientTransform="matrix(1 0 0 .333 0 28.528)" fx="10.73" fy="42.792"/></defs><g><g stroke="#7c6500" stroke-linejoin="bevel"><path fill="#c4a000" d="M47.58 27.45l-8.3 12.5 6.52-27.3z"/><path fill="#e8da63" d="M45.9 12.7l-22.32 9.22 15.56 18.03z" color="#000" overflow="visible" enable-background="accumulate"/></g><path fill="#475563" stroke="#5c7281" d="M21.1 36.55l-10.34 6.88L.28 22.97z" color="#000" stroke-linejoin="bevel" overflow="visible" enable-background="accumulate"/><path fill="#adbdc6" stroke="#5c7281" d="M.2 23.03l23.7-1.24-3.05 14.94z" color="#000" stroke-linejoin="bevel" overflow="visible" enable-background="accumulate"/><path fill="#ef2929" stroke="#fff" stroke-width=".50055" d="M27.4 22a3.6 3.6 0 1 1-7.2 0 3.6 3.6 0 1 1 7.2 0z" color="#000" overflow="visible" enable-background="accumulate"/><path fill="none" stroke="#fff" stroke-width=".99953" d="M25.8 22a2 2 0 1 1-4 0 2 2 0 1 1 4 0z" color="#000" overflow="visible" enable-background="accumulate"/><path fill="url(#d)" d="M21.1 42.8a10.37 3.46 0 1 1-20.74 0 10.37 3.46 0 1 1 20.74 0z" transform="matrix(1.264 0 0 1.264 -.544 -12.003)" color="#000" overflow="visible" enable-background="accumulate"/><path fill="url(#e)" d="M21.1 42.8a10.37 3.46 0 1 1-20.74 0 10.37 3.46 0 1 1 20.74 0z" transform="matrix(1.199 0 0 1.199 22.915 -9.225)" color="#000" overflow="visible" enable-background="accumulate"/></g></svg>