<svg xmlns="http://www.w3.org/2000/svg" width="48" height="48"><defs><radialGradient id="a" cx="29.834" cy="11.196" r="5.518" gradientUnits="userSpaceOnUse" fy="11.196" fx="29.834"><stop offset=".006" stop-color="#8794A0"/><stop offset="1" stop-color="#4C5159"/></radialGradient><radialGradient id="b" cx="42.165" cy="35.444" r="15.941" gradientUnits="userSpaceOnUse" fy="35.444" fx="42.165"><stop offset="0" stop-color="#fff"/><stop offset="1" stop-color="#92CFFF"/></radialGradient><radialGradient id="c" cx="26.434" cy="52.096" r="27.917" gradientUnits="userSpaceOnUse" fy="52.096" fx="26.434"><stop offset="0" stop-color="#fff"/><stop offset="1" stop-color="#8794A0"/></radialGradient><radialGradient id="d" cx="6.1" cy="3.763" r="58.216" gradientUnits="userSpaceOnUse" fy="3.763" fx="6.1"><stop offset="0" stop-color="#fff"/><stop offset="1" stop-color="#8794A0"/></radialGradient><radialGradient id="e" cx="14.367" cy="63.23" r="55.51" gradientUnits="userSpaceOnUse" fy="63.23" fx="14.367"><stop offset="0" stop-color="#fff"/><stop offset="1" stop-color="#8794A0"/></radialGradient><radialGradient id="f" cx="49.834" cy="33.296" r="31.152" gradientUnits="userSpaceOnUse" fy="33.296" fx="49.834"><stop offset="0" stop-color="#fff"/><stop offset="1" stop-color="#8794A0"/></radialGradient><radialGradient id="g" cx="40.353" cy="24.574" r="16.762" gradientUnits="userSpaceOnUse" fy="24.574" fx="40.353"><stop offset="0" stop-color="#fff"/><stop offset=".174" stop-color="#FAFDFF"/><stop offset=".372" stop-color="#ECF7FF"/><stop offset=".583" stop-color="#D6EDFF"/><stop offset=".801" stop-color="#B6DFFF"/><stop offset="1" stop-color="#92CFFF"/></radialGradient><radialGradient id="h" cx="25.385" cy="42.157" r="23.56" gradientUnits="userSpaceOnUse" fy="42.157" fx="25.385"><stop offset="0" stop-color="#fff"/><stop offset=".174" stop-color="#FAFDFF"/><stop offset=".372" stop-color="#ECF7FF"/><stop offset=".583" stop-color="#D6EDFF"/><stop offset=".801" stop-color="#B6DFFF"/><stop offset="1" stop-color="#92CFFF"/></radialGradient><radialGradient id="i" cx="72.635" cy="21.096" r="69.062" gradientUnits="userSpaceOnUse" fy="21.096" fx="72.635"><stop offset="0" stop-color="#fff"/><stop offset="1" stop-color="#8794A0"/></radialGradient><radialGradient id="j" cx="35.434" cy="26.697" r="16.398" gradientUnits="userSpaceOnUse" fy="26.697" fx="35.434"><stop offset="0" stop-color="#fff"/><stop offset=".126" stop-color="#FAFDFF"/><stop offset=".271" stop-color="#ECF7FF"/><stop offset=".423" stop-color="#D6EDFF"/><stop offset=".581" stop-color="#B6DFFF"/><stop offset=".726" stop-color="#92CFFF"/><stop offset="1" stop-color="#75A6CC"/></radialGradient><radialGradient id="l" cx="38.515" cy="23.826" r="14.572" gradientUnits="userSpaceOnUse" fy="23.826" fx="38.515"><stop offset="0" stop-color="#fff"/><stop offset="1" stop-color="#F17912"/></radialGradient><linearGradient id="k" x1="27.196" x2="30.663" y1="24.762" y2="17.036" gradientUnits="userSpaceOnUse"><stop offset="0" stop-color="#fff"/><stop offset=".126" stop-color="#FFFDFA"/><stop offset=".27" stop-color="#FFF7EC"/><stop offset=".423" stop-color="#FEEED6"/><stop offset=".582" stop-color="#FDE1B6"/><stop offset=".746" stop-color="#FCD08C"/><stop offset=".912" stop-color="#FBBB5B"/><stop offset="1" stop-color="#FAAF3D"/></linearGradient></defs><g><path fill="url(#a)" d="M31.07 14.24l4.7-2.02-.2 4.53-4.5-2.5z" transform="matrix(1.012 0 0 1.012 -.35 -.024)"/><path fill="none" stroke="#41464c" stroke-width="1.01.482" d="M36.97 24.18l.7-14.56L21.35.8.75 7.47 2.48 29l14.25 12.14 3.26-1.6"/><g><path fill="none" stroke="#41464c" stroke-width="1.01.482" d="M26.32 47.25L45.76 36.9l1.13-13.55"/></g><path fill="none" stroke="#147bcc" stroke-width="1.01.482" d="M43.8 24.8l.12-2.95-4.46-2.66"/><path fill="url(#b)" d="M43.2 28.86l.53-7.26L28 28.8l-.13 7.6 15.34-7.54z" transform="matrix(1.012 0 0 1.012 -.35 -.024)"/><g transform="matrix(1.012 0 0 1.012 -.35 -.024)"><radialGradient cx="26.434" cy="52.096" r="27.917" gradientUnits="userSpaceOnUse" fy="52.096" fx="26.434"><stop offset="0" stop-color="#fff"/><stop offset="1" stop-color="#8794A0"/></radialGradient><path fill="url(#c)" d="M18.52 30.4l9.34 7.17-.12 7.8-9.06-7.44-.16-7.53z"/><path fill="none" stroke="#dfe7f2" stroke-width=".988" d="M18.52 30.4l9.34 7.17"/></g><path fill="url(#d)" d="M16.23 17.8l21.32-8.27L21.43.8 1.1 7.4l15.13 10.4z" transform="matrix(1.012 0 0 1.012 -.35 -.024)"/><path fill="url(#e)" d="M16.23 17.8L1.1 7.4l1.7 21.26 14.07 12-.64-22.85z" transform="matrix(1.012 0 0 1.012 -.35 -.024)"/><path fill="url(#f)" d="M36.87 23.9l.68-14.37-21.32 8.28.64 22.86 3.22-1.57-1.42-1.17-.4-18.77 17.48-6.94-.44 10.7 1.55 1z" transform="matrix(1.012 0 0 1.012 -.35 -.024)"/><path fill="url(#g)" d="M28 28.8l15.73-7.2-12.65-7.52-12.8 5.08.07 2.82L28 28.8z" transform="matrix(1.012 0 0 1.012 -.35 -.024)"/><path fill="url(#h)" d="M28 37.7l-9.48-7.3-.17-8.42L28 28.8v8.9z" transform="matrix(1.012 0 0 1.012 -.35 -.024)"/><path fill="none" stroke="#41464c" stroke-width=".75" d="M28 37.74l-9.6-7.4"/><g transform="matrix(1.012 0 0 1.012 -.35 -.024)"><path fill="none" stroke="#eef3fa" stroke-width="1.482" d="M46.66 23.1l-20.2 9.48"/><path fill="none" stroke="#737b87" stroke-width="1.482" d="M26.47 32.59l-.13 14.1"/><radialGradient cx="72.635" cy="21.096" r="69.062" gradientUnits="userSpaceOnUse" fy="21.096" fx="72.635"><stop offset="0" stop-color="#fff"/><stop offset="1" stop-color="#8794A0"/></radialGradient><path fill="url(#i)" d="M45.54 36.48l1.12-13.4-20.2 9.5-.12 14.1 19.2-10.2z"/></g><path fill="none" stroke="#41464c" stroke-width=".74841" d="M47.28 24.17l-.78-1.64-20.95 9.85-.14 14.86 1.83.02"/><g transform="matrix(1.012 0 0 1.012 -.35 -.024)"><radialGradient cx="35.434" cy="26.697" r="16.398" gradientUnits="userSpaceOnUse" fy="26.697" fx="35.434"><stop offset="0" stop-color="#fff"/><stop offset=".126" stop-color="#FAFDFF"/><stop offset=".271" stop-color="#ECF7FF"/><stop offset=".423" stop-color="#D6EDFF"/><stop offset=".581" stop-color="#B6DFFF"/><stop offset=".726" stop-color="#92CFFF"/><stop offset="1" stop-color="#75A6CC"/></radialGradient><path fill="url(#j)" d="M28.03 28.34c-.36-.26-9.37-6.6-9.37-6.6l.02 1 9.27 6.5 15.95-7.27-.33-.73s-15.13 6.9-15.54 7.1z"/></g><path fill="none" stroke="#147bcc" d="M27.98 29.13v1.57"/><path fill="none" stroke="#4db1ff" d="M41.46 20.96l-15.33 6.86"/><path fill="none" stroke="#459fe6" d="M34.83 16.6l-15.2 6.3"/><path fill="none" stroke="#147bcc" d="M32.45 15.17L18.2 20.93"/><path fill="none" stroke="#147bcc" d="M19.43 30.26l-.13-6.5"/><path fill="none" stroke="#147bcc" d="M21.07 31.7l-.02-6.55"/><path fill="none" stroke="#803b00" d="M23.02 33.45v-6.2"/><path fill="none" stroke="#459fe6" d="M26.14 31.46v-3.64"/><g transform="matrix(1.012 0 0 1.012 -.35 -.024)"><path fill="none" stroke="#803a00" stroke-width="1.975" d="M24.88 23.34c-.8.33-1.1 1.62-1.16 2.44l15.6-6.8c0-2.26.77-3.6 2.5-4.28-3.78 1-6.76 2.53-9.02 4.08l.05-.03-.06.04c-4 2.37-7.3 4.26-7.92 4.54z"/><linearGradient x1="27.196" x2="30.663" y1="24.762" y2="17.036" gradientUnits="userSpaceOnUse"><stop offset="0" stop-color="#fff"/><stop offset=".126" stop-color="#FFFDFA"/><stop offset=".27" stop-color="#FFF7EC"/><stop offset=".423" stop-color="#FEEED6"/><stop offset=".582" stop-color="#FDE1B6"/><stop offset=".746" stop-color="#FCD08C"/><stop offset=".912" stop-color="#FBBB5B"/><stop offset="1" stop-color="#FAAF3D"/></linearGradient><path fill="url(#k)" d="M32.8 18.78c-4 2.4-7.3 4.28-7.92 4.56.52-.22 1.24-.04 2.22.9 0 0 1.77-2.78 5.75-5.5l-.06.04z"/><radialGradient cx="38.515" cy="23.826" r="14.572" gradientUnits="userSpaceOnUse" fy="23.826" fx="38.515"><stop offset="0" stop-color="#fff"/><stop offset="1" stop-color="#F17912"/></radialGradient><path fill="url(#l)" d="M39.33 18.98l-15.6 6.8c.1-1.35.84-3.95 3.37-1.55 0 0 4.33-6.8 14.73-9.53-1.73.68-2.5 2.02-2.5 4.28z"/></g><path fill="none" stroke="#41464c" stroke-width=".74841" d="M25.44 44.02l-6.87-5.64-.4-19 17.7-7.04-.2 4.6"/><path fill="none" stroke="#41464c" stroke-width=".99788" d="M41.36 30.1l1.24.8-9.8 4.85-1.2-.88"/></g></svg>