<svg xmlns="http://www.w3.org/2000/svg" width="48" height="48" xmlns:xlink="http://www.w3.org/1999/xlink"><defs><linearGradient id="b"><stop offset="0" stop-color="#c4a000"/><stop offset="1" stop-color="#3b3000"/></linearGradient><linearGradient id="a"><stop offset="0" stop-color="#fffcdf"/><stop offset="1" stop-color="#fff07f"/></linearGradient><linearGradient x1=".204" x2="45.637" y1="23.287" y2="23.287" xlink:href="#a" gradientUnits="userSpaceOnUse"/><linearGradient id="c" x1=".143" x2="48.143" y1="12.857" y2="35.571" xlink:href="#a" gradientUnits="userSpaceOnUse" gradientTransform="matrix(.979 0 0 1 .36 0)"/><linearGradient id="d" x1=".5" x2="47.5" y1="12.857" y2="35.571" xlink:href="#b" gradientUnits="userSpaceOnUse"/></defs><g><path fill-opacity=".251" d="M1.5 16.85h45.14v20.88H1.5z" overflow="visible" enable-background="accumulate"/><path fill="url(#c)" stroke="url(#d)" d="M.5 12.86H42l5.5 5.57v17.14H.5v-22.7z" overflow="visible" enable-background="accumulate"/><rect width="25.286" height="18" x="3" y="15.214" fill="none" stroke="#c4a000" ry="4.576" overflow="visible" enable-background="accumulate"/><rect width="12.429" height="18" x="30.286" y="15.214" fill="none" stroke="#c4a000" ry="4.576" overflow="visible" enable-background="accumulate"/><g><rect width="2.857" height="5.857" x="5.571" y="17.286" fill="#fff" stroke="#c4a000" ry="0" overflow="visible" enable-background="accumulate"/><path fill="none" stroke="#000" d="M6.43 22.67v-4.6h1.54" overflow="visible" enable-background="accumulate"/></g><g transform="translate(4.617 .057)"><rect width="2.857" height="5.857" x="5.571" y="17.286" fill="#fff" stroke="#c4a000" ry="0" overflow="visible" enable-background="accumulate"/><path fill="none" stroke="#000" d="M6.43 22.67v-4.6h1.54" overflow="visible" enable-background="accumulate"/></g><g transform="translate(8.708 7.835)"><rect width="2.857" height="5.857" x="5.571" y="17.286" fill="#fff" stroke="#c4a000" ry="0" overflow="visible" enable-background="accumulate"/><path fill="none" stroke="#000" d="M6.43 22.67v-4.6h1.54" overflow="visible" enable-background="accumulate"/></g><g transform="translate(12.951 .158)"><rect width="2.857" height="5.857" x="5.571" y="17.286" fill="#fff" stroke="#c4a000" ry="0" overflow="visible" enable-background="accumulate"/><path fill="none" stroke="#000" d="M6.43 22.67v-4.6h1.54" overflow="visible" enable-background="accumulate"/></g><g transform="translate(17.143 7.734)"><rect width="2.857" height="5.857" x="5.571" y="17.286" fill="#fff" stroke="#c4a000" ry="0" overflow="visible" enable-background="accumulate"/><path fill="none" stroke="#000" d="M6.43 22.67v-4.6h1.54" overflow="visible" enable-background="accumulate"/></g><g transform="translate(27.194 .057)"><rect width="2.857" height="5.857" x="5.571" y="17.286" fill="#fff" stroke="#c4a000" ry="0" overflow="visible" enable-background="accumulate"/><path fill="none" stroke="#000" d="M6.43 22.67v-4.6h1.54" overflow="visible" enable-background="accumulate"/></g><g transform="translate(27.143 7.936)"><rect width="2.857" height="5.857" x="5.571" y="17.286" fill="#fff" stroke="#c4a000" ry="0" overflow="visible" enable-background="accumulate"/><path fill="none" stroke="#000" d="M6.43 22.67v-4.6h1.54" overflow="visible" enable-background="accumulate"/></g><g transform="translate(32.042 7.785)"><rect width="2.857" height="5.857" x="5.571" y="17.286" fill="#fff" stroke="#c4a000" ry="0" overflow="visible" enable-background="accumulate"/><path fill="none" stroke="#000" d="M6.43 22.67v-4.6h1.54" overflow="visible" enable-background="accumulate"/></g></g></svg>