<svg xmlns="http://www.w3.org/2000/svg" width="48" height="48" xmlns:xlink="http://www.w3.org/1999/xlink"><defs><linearGradient id="q"><stop offset="0" stop-color="#7cb0d9"/><stop offset="1" stop-color="#265d88"/></linearGradient><linearGradient id="p"><stop offset="0" stop-color="#eeeeec" stop-opacity="0"/><stop offset=".25" stop-color="#fff" stop-opacity=".502"/><stop offset=".75" stop-color="#f6f6f5" stop-opacity=".502"/><stop offset="1" stop-color="#eeeeec" stop-opacity="0"/></linearGradient><linearGradient id="r" x1="3.912" x2="43.757" y1="440.078" y2="440.078" gradientUnits="userSpaceOnUse" gradientTransform="translate(0 -414.765)"><stop offset="0" stop-color="#EBF5FF"/><stop offset=".162" stop-color="#fff"/><stop offset=".412" stop-color="#F6FAFF"/><stop offset=".609" stop-color="#EBF5FF"/><stop offset="1" stop-color="#fff"/></linearGradient><radialGradient id="d" cx="19.192" cy="445.312" r="7.848" gradientUnits="userSpaceOnUse" fy="445.312" fx="19.192"><stop offset="0" stop-color="#fff"/><stop offset="1" stop-color="#F5D9D9"/></radialGradient><radialGradient id="e" cx="22.238" cy="441.314" r="9.075" gradientUnits="userSpaceOnUse" fy="441.314" fx="22.238"><stop offset="0" stop-color="#fff"/><stop offset="1" stop-color="#F5D9D9"/></radialGradient><radialGradient id="f" cx="20.565" cy="442.681" r="6.598" gradientUnits="userSpaceOnUse" fy="442.681" fx="20.565"><stop offset="0" stop-color="#fff"/><stop offset="1" stop-color="#F5D9D9"/></radialGradient><radialGradient id="g" cx="19.647" cy="442.348" r="7.925" gradientUnits="userSpaceOnUse" fy="442.348" fx="19.647"><stop offset="0" stop-color="#fff"/><stop offset="1" stop-color="#F5D9D9"/></radialGradient><radialGradient id="h" cx="15.948" cy="443.328" r="6.207" gradientUnits="userSpaceOnUse" fy="443.328" fx="15.948"><stop offset="0" stop-color="#fff"/><stop offset="1" stop-color="#F5D9D9"/></radialGradient><radialGradient id="i" cx="21.485" cy="443.082" r="2.403" gradientUnits="userSpaceOnUse" fy="443.082" fx="21.485"><stop offset="0" stop-color="#fff"/><stop offset="1" stop-color="#F5D9D9"/></radialGradient><radialGradient id="j" cx="20.64" cy="443.564" r="4.183" gradientUnits="userSpaceOnUse" fy="443.564" fx="20.64"><stop offset="0" stop-color="#fff"/><stop offset="1" stop-color="#F5D9D9"/></radialGradient><radialGradient id="k" cx="20.398" cy="446.82" r="3.931" gradientUnits="userSpaceOnUse" fy="446.82" fx="20.398"><stop offset="0" stop-color="#fff"/><stop offset="1" stop-color="#F5D9D9"/></radialGradient><radialGradient id="l" cx="13.038" cy="447.566" r="3.966" gradientUnits="userSpaceOnUse" fy="447.566" fx="13.038"><stop offset=".006" stop-color="#F5CDCD"/><stop offset="1" stop-color="#F4B1B3"/></radialGradient><radialGradient id="m" cx="21.171" cy="441.88" r="7.109" gradientUnits="userSpaceOnUse" fy="441.88" fx="21.171"><stop offset=".006" stop-color="#F5CDCD"/><stop offset="1" stop-color="#F4B1B3"/></radialGradient><linearGradient id="A" x1="27.195" x2="26.97" y1="455.214" y2="453.636" gradientUnits="userSpaceOnUse"><stop offset="0" stop-color="#F79899"/><stop offset=".257" stop-color="#F39596"/><stop offset=".536" stop-color="#E58E8E"/><stop offset=".826" stop-color="#D08181"/><stop offset="1" stop-color="#BF7777"/></linearGradient><linearGradient id="n" x1="24.226" x2="25.24" y1="457.556" y2="455.358" gradientUnits="userSpaceOnUse"><stop offset="0" stop-color="#F79899"/><stop offset=".352" stop-color="#F39596"/><stop offset=".736" stop-color="#E58E8E"/><stop offset="1" stop-color="#D88686"/></linearGradient><linearGradient id="o" x1="11.868" x2="17.62" y1="439.17" y2="441.869" gradientUnits="userSpaceOnUse"><stop offset="0" stop-color="#F79899"/><stop offset=".352" stop-color="#F39596"/><stop offset=".736" stop-color="#E58E8E"/><stop offset="1" stop-color="#D88686"/></linearGradient><radialGradient id="v" cx="19.701" cy="428.036" r="17.531" gradientUnits="userSpaceOnUse" fy="428.036" fx="19.701"><stop offset="0" stop-color="#72BD22"/><stop offset=".316" stop-color="#6EB922"/><stop offset=".66" stop-color="#60AE22"/><stop offset="1" stop-color="#4C9C23"/></radialGradient><radialGradient id="b" cx="16.017" cy="445.532" r="38.861" gradientUnits="userSpaceOnUse" fy="445.532" fx="16.017"><stop offset=".006" stop-color="#fff" stop-opacity=".502"/><stop offset="1" stop-color="#4c9c23" stop-opacity="0"/></radialGradient><linearGradient id="c" x1="6.216" x2="41.45" y1="445.736" y2="445.736" gradientUnits="userSpaceOnUse"><stop offset="0" stop-color="#8AC92E"/><stop offset=".123" stop-color="#9AE034"/><stop offset=".246" stop-color="#9AE034"/><stop offset=".866" stop-color="#4C9C23"/><stop offset="1" stop-color="#72BD22"/></linearGradient><radialGradient id="w" cx="10.343" cy="429.65" r="51.649" gradientUnits="userSpaceOnUse" fy="429.65" fx="10.343"><stop offset=".006" stop-color="#fff"/><stop offset=".288" stop-color="#FCFDFF"/><stop offset=".492" stop-color="#F3F9FD"/><stop offset=".671" stop-color="#E3F0FB"/><stop offset=".836" stop-color="#CDE4F7"/><stop offset=".989" stop-color="#B0D5F2"/><stop offset="1" stop-color="#AED4F2"/></radialGradient><linearGradient id="x" x1="18.937" x2="38.503" y1="416.8" y2="442.729" gradientUnits="userSpaceOnUse"><stop offset=".006" stop-color="#fff"/><stop offset=".288" stop-color="#FCFDFF"/><stop offset=".492" stop-color="#F3F9FD"/><stop offset=".671" stop-color="#E3F0FB"/><stop offset=".836" stop-color="#CDE4F7"/><stop offset=".989" stop-color="#B0D5F2"/><stop offset="1" stop-color="#AED4F2"/></linearGradient><radialGradient id="a" cx="16.129" cy="439.289" r="42.297" gradientUnits="userSpaceOnUse" fy="439.289" fx="16.129"><stop offset=".006" stop-color="#fff"/><stop offset=".288" stop-color="#FCFDFF"/><stop offset=".492" stop-color="#F3F9FD"/><stop offset=".671" stop-color="#E3F0FB"/><stop offset=".836" stop-color="#CDE4F7"/><stop offset=".989" stop-color="#B0D5F2"/><stop offset="1" stop-color="#AED4F2"/></radialGradient><radialGradient cx="16.129" cy="439.289" r="42.297" fx="16.129" fy="439.289" gradientUnits="userSpaceOnUse"><stop offset=".006" stop-color="#fff"/><stop offset=".288" stop-color="#FCFDFF"/><stop offset=".492" stop-color="#F3F9FD"/><stop offset=".671" stop-color="#E3F0FB"/><stop offset=".836" stop-color="#CDE4F7"/><stop offset=".989" stop-color="#B0D5F2"/><stop offset="1" stop-color="#AED4F2"/></radialGradient><radialGradient cx="16.129" cy="439.289" r="42.297" xlink:href="#a" gradientUnits="userSpaceOnUse" fx="16.129" fy="439.289" gradientTransform="translate(-.271 -414.174)"/><linearGradient x1="6.216" x2="41.45" y1="445.736" y2="445.736" gradientUnits="userSpaceOnUse"><stop offset="0" stop-color="#8AC92E"/><stop offset=".123" stop-color="#9AE034"/><stop offset=".246" stop-color="#9AE034"/><stop offset=".866" stop-color="#4C9C23"/><stop offset="1" stop-color="#72BD22"/></linearGradient><radialGradient cx="16.017" cy="445.532" r="38.861" fx="16.017" fy="445.532" gradientUnits="userSpaceOnUse"><stop offset=".006" stop-color="#fff"/><stop offset=".38" stop-color="#72BD22"/><stop offset=".576" stop-color="#6EB922"/><stop offset=".789" stop-color="#60AE22"/><stop offset="1" stop-color="#4C9C23"/></radialGradient><radialGradient cx="19.701" cy="428.036" r="17.531" fx="19.701" fy="428.036" gradientUnits="userSpaceOnUse"><stop offset="0" stop-color="#72BD22"/><stop offset=".316" stop-color="#6EB922"/><stop offset=".66" stop-color="#60AE22"/><stop offset="1" stop-color="#4C9C23"/></radialGradient><radialGradient id="u" cx="16.017" cy="445.532" r="38.861" xlink:href="#b" gradientUnits="userSpaceOnUse" fx="16.017" fy="445.532" gradientTransform="translate(0 -414.765)"/><linearGradient id="t" x1="6.216" x2="41.45" y1="445.736" y2="445.736" xlink:href="#c" gradientUnits="userSpaceOnUse" gradientTransform="translate(0 -414.765)"/><linearGradient x1="11.868" x2="17.62" y1="439.17" y2="441.869" gradientUnits="userSpaceOnUse"><stop offset="0" stop-color="#F79899"/><stop offset=".352" stop-color="#F39596"/><stop offset=".736" stop-color="#E58E8E"/><stop offset="1" stop-color="#D88686"/></linearGradient><linearGradient x1="24.226" x2="25.24" y1="457.556" y2="455.358" gradientUnits="userSpaceOnUse"><stop offset="0" stop-color="#F79899"/><stop offset=".352" stop-color="#F39596"/><stop offset=".736" stop-color="#E58E8E"/><stop offset="1" stop-color="#D88686"/></linearGradient><radialGradient cx="21.171" cy="441.88" r="7.109" fx="21.171" fy="441.88" gradientUnits="userSpaceOnUse"><stop offset=".006" stop-color="#F5CDCD"/><stop offset="1" stop-color="#F4B1B3"/></radialGradient><radialGradient cx="13.038" cy="447.566" r="3.966" fx="13.038" fy="447.566" gradientUnits="userSpaceOnUse"><stop offset=".006" stop-color="#F5CDCD"/><stop offset="1" stop-color="#F4B1B3"/></radialGradient><radialGradient cx="20.398" cy="446.82" r="3.931" fx="20.398" fy="446.82" gradientUnits="userSpaceOnUse"><stop offset="0" stop-color="#fff"/><stop offset="1" stop-color="#F5D9D9"/></radialGradient><radialGradient cx="20.64" cy="443.564" r="4.183" fx="20.64" fy="443.564" gradientUnits="userSpaceOnUse"><stop offset="0" stop-color="#fff"/><stop offset="1" stop-color="#F5D9D9"/></radialGradient><radialGradient cx="21.485" cy="443.082" r="2.403" fx="21.485" fy="443.082" gradientUnits="userSpaceOnUse"><stop offset="0" stop-color="#fff"/><stop offset="1" stop-color="#F5D9D9"/></radialGradient><radialGradient cx="15.948" cy="443.328" r="6.207" fx="15.948" fy="443.328" gradientUnits="userSpaceOnUse"><stop offset="0" stop-color="#fff"/><stop offset="1" stop-color="#F5D9D9"/></radialGradient><radialGradient cx="19.647" cy="442.348" r="7.925" fx="19.647" fy="442.348" gradientUnits="userSpaceOnUse"><stop offset="0" stop-color="#fff"/><stop offset="1" stop-color="#F5D9D9"/></radialGradient><radialGradient cx="20.565" cy="442.681" r="6.598" fx="20.565" fy="442.681" gradientUnits="userSpaceOnUse"><stop offset="0" stop-color="#fff"/><stop offset="1" stop-color="#F5D9D9"/></radialGradient><radialGradient cx="22.238" cy="441.314" r="9.075" fx="22.238" fy="441.314" gradientUnits="userSpaceOnUse"><stop offset="0" stop-color="#fff"/><stop offset="1" stop-color="#F5D9D9"/></radialGradient><radialGradient cx="19.192" cy="445.312" r="7.848" fx="19.192" fy="445.312" gradientUnits="userSpaceOnUse"><stop offset="0" stop-color="#fff"/><stop offset="1" stop-color="#F5D9D9"/></radialGradient><radialGradient id="K" cx="19.192" cy="445.312" r="7.848" xlink:href="#d" gradientUnits="userSpaceOnUse" fx="19.192" fy="445.312" gradientTransform="translate(49.429 -421.193)"/><radialGradient id="J" cx="22.238" cy="441.314" r="9.075" xlink:href="#e" gradientUnits="userSpaceOnUse" fx="22.238" fy="441.314" gradientTransform="translate(49.429 -421.193)"/><radialGradient id="I" cx="20.565" cy="442.681" r="6.598" xlink:href="#f" gradientUnits="userSpaceOnUse" fx="20.565" fy="442.681" gradientTransform="translate(49.429 -421.193)"/><radialGradient id="H" cx="19.647" cy="442.348" r="7.925" xlink:href="#g" gradientUnits="userSpaceOnUse" fx="19.647" fy="442.348" gradientTransform="translate(49.429 -421.193)"/><radialGradient id="G" cx="15.948" cy="443.328" r="6.207" xlink:href="#h" gradientUnits="userSpaceOnUse" fx="15.948" fy="443.328" gradientTransform="translate(49.429 -421.193)"/><radialGradient id="F" cx="21.485" cy="443.082" r="2.403" xlink:href="#i" gradientUnits="userSpaceOnUse" fx="21.485" fy="443.082" gradientTransform="translate(49.429 -421.193)"/><radialGradient id="E" cx="20.64" cy="443.564" r="4.183" xlink:href="#j" gradientUnits="userSpaceOnUse" fx="20.64" fy="443.564" gradientTransform="translate(49.429 -421.193)"/><radialGradient id="D" cx="20.398" cy="446.82" r="3.931" xlink:href="#k" gradientUnits="userSpaceOnUse" fx="20.398" fy="446.82" gradientTransform="translate(49.429 -421.193)"/><radialGradient id="C" cx="13.038" cy="447.566" r="3.966" xlink:href="#l" gradientUnits="userSpaceOnUse" fx="13.038" fy="447.566" gradientTransform="translate(49.429 -421.193)"/><radialGradient id="B" cx="21.171" cy="441.88" r="7.109" xlink:href="#m" gradientUnits="userSpaceOnUse" fx="21.171" fy="441.88" gradientTransform="translate(49.429 -421.193)"/><linearGradient id="z" x1="24.226" x2="25.24" y1="457.556" y2="455.358" xlink:href="#n" gradientUnits="userSpaceOnUse" gradientTransform="translate(49.429 -421.193)"/><linearGradient id="y" x1="11.868" x2="17.62" y1="439.17" y2="441.869" xlink:href="#o" gradientUnits="userSpaceOnUse" gradientTransform="translate(49.429 -421.193)"/><linearGradient id="L" x1="7.286" x2="22.143" y1="28.651" y2="28.651" xlink:href="#p" gradientUnits="userSpaceOnUse"/><linearGradient id="s" x1="25.179" x2="25.203" y1="4.335" y2="47.093" xlink:href="#q" gradientUnits="userSpaceOnUse"/></defs><g><path fill="url(#r)" d="M43.66 8.75l-.02.02c-1.24 1.13-2.2 2.88-2.2 4.76v24.2c0 3.6-7.88 6.54-17.6 6.54-9.74 0-17.63-2.93-17.63-6.53v-24.2c0-1.9-.93-3.64-2.17-4.77-.08-.08-.12-.16-.12-.25 0-1.2 8.93-2.16 19.93-2.16s19.93.97 19.93 2.16c0 .08-.04.15-.1.23z"/><path fill="none" stroke="url(#s)" stroke-width="2" d="M23.83 5.34C11.1 5.34.75 6.76.75 8.52c0 .27.24.54.7.8l-.02-.02c1.6 1.03 3 3.1 3 5.38V38.9c0 3.98 8.7 7.2 19.4 7.2s19.4-3.22 19.4-7.2V14.7c0-2.27 1.42-4.35 3-5.4.44-.23.7-.5.7-.78 0-1.76-10.35-3.18-23.1-3.18z"/><path fill="url(#t)" d="M6.22 17.68c0 1.98 7.88 3.6 17.62 3.6 9.72 0 17.6-1.62 17.6-3.6v20.06c0 3.6-7.88 6.53-17.6 6.53-9.74 0-17.62-2.93-17.62-6.53V17.68z"/><path fill="url(#u)" d="M6.22 17.68c0 1.98 7.88 3.6 17.62 3.6 9.72 0 17.6-1.62 17.6-3.6v20.06c0 3.6-7.88 6.53-17.6 6.53-9.74 0-17.62-2.93-17.62-6.53V17.68z"/><ellipse cx="23.833" cy="432.44" fill="url(#v)" rx="17.617" ry="3.59" transform="translate(0 -414.765)"/><g transform="translate(0 -414.765)"><radialGradient cx="10.343" cy="429.65" r="51.649" gradientUnits="userSpaceOnUse" fy="429.65" fx="10.343"><stop offset=".006" stop-color="#fff"/><stop offset=".288" stop-color="#FCFDFF"/><stop offset=".492" stop-color="#F3F9FD"/><stop offset=".671" stop-color="#E3F0FB"/><stop offset=".836" stop-color="#CDE4F7"/><stop offset=".989" stop-color="#B0D5F2"/><stop offset="1" stop-color="#AED4F2"/></radialGradient><path fill="url(#w)" d="M23.83 420.1c-12.74 0-23.08 1.43-23.08 3.2 0 .26.24.52.7.77h-.02c1.6 1.02 3 3.1 3 5.38v24.22c0 3.97 8.7 7.2 19.4 7.2s19.4-3.23 19.4-7.2v-24.2c0-2.28 1.42-4.36 3-5.4.44-.24.7-.52.7-.78 0-1.77-10.35-3.2-23.1-3.2zm19.83 3.4l-.02.03c-1.24 1.13-2.2 2.9-2.2 4.77v24.2c0 3.6-7.88 6.53-17.6 6.53-9.74 0-17.63-2.92-17.63-6.53v-24.2c0-1.88-.93-3.64-2.17-4.77-.08-.08-.12-.16-.12-.24 0-1.2 8.93-2.18 19.93-2.18s19.93.97 19.93 2.17c0 .06-.04.14-.1.2z"/></g><g transform="translate(0 -414.765)"><linearGradient x1="18.937" x2="38.503" y1="416.8" y2="442.729" gradientUnits="userSpaceOnUse"><stop offset=".006" stop-color="#fff"/><stop offset=".288" stop-color="#FCFDFF"/><stop offset=".492" stop-color="#F3F9FD"/><stop offset=".671" stop-color="#E3F0FB"/><stop offset=".836" stop-color="#CDE4F7"/><stop offset=".989" stop-color="#B0D5F2"/><stop offset="1" stop-color="#AED4F2"/></linearGradient><path fill="url(#x)" d="M23.83 420.1c-12.74 0-23.08 1.43-23.08 3.2 0 1.75 10.34 3.18 23.08 3.18 12.75 0 23.1-1.43 23.1-3.2 0-1.75-10.35-3.18-23.1-3.18zm0 5.36c-11 0-19.92-.97-19.92-2.17s8.93-2.18 19.93-2.18 19.93.97 19.93 2.17-8.92 2.16-19.93 2.16z"/></g><path fill="none" stroke="#7cb0d9" d="M.62 8.66c0 2.08 11.8 3.32 23.2 3.32 11.43 0 23.23-1.24 23.23-3.32"/><circle cx="10.684" cy="437.19" r="1.407" fill="#9aff2e" stroke="#fff" transform="translate(0 -414.765)" opacity=".59"/><circle cx="8.98" cy="442.598" r=".593" fill="#9aff2e" stroke="#fff" transform="translate(0 -414.765)" opacity=".59"/><circle cx="29.499" cy="433.634" r="1.852" fill="#9aff2e" stroke="#fff" transform="translate(0 -414.765)" opacity=".59"/><g><path fill="#f79899" stroke="#f57e80" stroke-width=".5" d="M21.33 20.85c.54-.34 1.24-.34 1.35-.47.12-.13.7-.9.9-1.04.17-.15.86-.07 1.08-.2.23-.12.33-.48.52-.53.2-.04 1.03.16 1.4.1.34-.07.18-.2.37-.25.2-.05 1.7.07 2.02.13.3.06.78.3.94.3.18 0 .46 0 .75.1.3.07 2.23 1.02 2.55 1.2.32.17 1.1 1.04 1.4 1.4.37.1 1.06.43 1.25.54.2.12.96.9 1.07 1.18.1.27.06.6.2.85.12.24.2.4.23.6.03.2.03 1 .1 1.17.1.18.24.52.24 1.07 0 .53-.2 1.36-.27 1.8-.08.43-.45 1.15-.45 1.3 0 .17-.05.4-.14.53-.1.13-.13-.02-.23.35s-.43.85-.44.97c-.02.1-.03.27-.1.35-.06.08-.3.08-.3.23 0 .14.22.3.25.4.04.13.1.3.06.42-.03.1-.48.82-.7 1.2-.23.36-.8 1.05-.84 1.2-.03.17.06.25.06.5 0 .24.03.9-.05 1.12-.08.2-1.56 1.84-1.85 1.92-.3.07-1.88-.24-2.2-.17-.3.06-1.42.4-1.82.7-.4.28-1.07.67-1.34.7-.27.03-.77 0-.92-.05-.3-.06-.43-.2-.8-.5-.34-.3-.7-.64-.84-.73-.13-.08-.36-.6-.6-.7-.24-.07-1.13-.32-1.37-.42-.25-.1-.43-.24-.43-.24-.75.1-1.7.13-2.22.05-.53-.07-1.32-.6-1.45-.58-.13.02-.58-.05-1.37-.3-.78-.23-1.46-.5-1.7-.92-.27-.42-.3-.9-.32-1.04 0-.14-.16-.5-.05-1.33.04-.22-.15-.5-.15-.82 0-.33-.07-1 .26-2.06.82-2.7 1.3-3.02 1.33-3.3 0-.27-.04-.5.48-2 .53-1.5.95-1.17 1.2-1.54.23-.36.63-1.15 1.05-1.62.42-.48.9-.55 1.1-.8.24-.23.4-.53.8-.8z"/><path fill="url(#y)" stroke="#f57e80" stroke-width=".5" d="M65.76 31.04c-.05-.05-.1-.1-.14-.18-.26-.42-.3-.9-.3-1.04-.03-.15-.18-.5-.07-1.33.04-.23-.14-.5-.14-.83 0-.33-.07-1 .26-2.07.82-2.7 1.32-3 1.33-3.28.02-.28-.04-.5.5-2 .52-1.5.93-1.18 1.17-1.55.24-.36.64-1.14 1.06-1.62.42-.48.9-.55 1.12-.78.22-.24.37-.54.78-.8.53-.35 1.24-.34 1.35-.47.1-.13.7-.9.9-1.05.16-.14.86-.06 1.08-.2.23-.12.32-.47.52-.52.2-.05 1.03.14 1.38.08h-.02c-.3 0-.5-.07-.64-.2-.15-.15-.1-.25-1.48-.53-1.37-.27-2.97-.45-5.08.35-2.1.8-2.12 1.13-2.35 1.25-.24.13-1.9.98-2.3 1.36-.4.37-.6.47-.7.65-.14.17-.2.45-.44.6-.23.15-1.5 1.4-1.9 2.02-.4.63-.53.95-.7 1.23-.18.28-.83 1-1.18 1.65-.35.65-.7 1.58-.7 1.83 0 .26.32.8.32.96 0 .15-.42.48-.44.68-.03.2.04.75.1 1.17.05.44.02.72.12.92.1.2.38.3.43.47.06.17.2.6.46.82.25.22.47.3.72.55.25.25.73.68 1.08.77.35.1.9 0 1.13.15.2.14 1 .92 1.36 1.05.38.12 1.18-.08 1.4-.1z" transform="translate(-50 5.286)"/><path fill="#f57e80" stroke="#cb696b" stroke-width=".5" d="M26.4 40.48c-.3-.06-.43-.2-.8-.5-.34-.3-.7-.65-.84-.73-.13-.08-.35-.6-.6-.7-.2-.06-.84-.24-1.2-.36"/><path fill="url(#z)" stroke="#994f51" stroke-width=".5" d="M72.96 32.9c.1.38.6 1.1 1.14 1.52.56.4.25.64.36.78.1.15.18.22.52.27.34.06.55.3.85.3.3 0 .5-.14.52-.33.04-.2.05-.25.05-.25" transform="translate(-50 5.286)"/><path fill="none" stroke="#d96f71" stroke-width=".5" d="M22.38 37.88c.48-.07.97-.17 1.48-.26.52-.1 1.8-.04 3.07-.63.57-.28 1.16-1.08 2.5-1.74.5-.25 1.88-1.4 2.4-1.63.5-.24 1.6-.86 1.87-1.06.26-.2.6-.84.87-1.2.28-.35 1.9-1.02 2.03-1.04.12-.02.1.23.1.44"/><path fill="none" stroke="#d96f71" stroke-width=".5" d="M29.83 18.9c.17.07.58.28 1.12.65.55.38 1.46 1.24 1.55 1.34.1.1.8 1.7 1.17 2.24.35.55 1.57 2.56 1.65 2.77.07.22.22.8.24 1.07.03.26-.1 1.48-.15 1.73-.06.25-.38 1.13-.5 1.4-.1.28-.32 1.08-.44 1.26"/><g transform="translate(-50 5.286) translate(49.429 -421.193)"><path fill="#f57e80" d="M24.58 448.44c-.28-.14-1.26-2.2-1.92-2.82-.66-.6-1.16-1.2-2.97-1.52-1.8-.3-1.85-.28-2.1-.42-.24-.15-.33-.17-.35-.1 0 .08-.1.24-.14.3-.03.13.13.03.4.05.24.03.9.38 1.33.45.42.08 1.87.32 2.24.55.38.23 1.57 1.03 1.9 1.47.35.44.63 1.1.75 1.3.1.2.43.66.6.7.15.06.44.13.26.04z"/><path fill="#e47678" d="M19.76 440.77c.28-.23 2.74-.52 3.4.22.65.73 1.1 2.27 1.54 3.07.44.8.7 1.5 1.27 2.18.55.7 1 1.26 1 1.67-.03.4-.62 1.98-.65 2.2-.04.2-.36.37-.46.3-.1-.1-1.54-.87-1.96-.87-.42 0-1.8.13-2.1-.03-.3-.17-1.25-.7-1.48-1.05-.24-.33-.24-.84-1-.77-.75.07-2.1.34-2.35.45-.25.12-.4-.1-.2-.23.23-.12 1.95-.3 2.2-.44.25-.13.9-.18 1-.06.1.1.3.8.57 1 .25.2.82.57 1.4.7.56.1 1.6.06 1.9.1.33.06 1.73.77 1.94.75.22-.02 1-1.65.93-2.04-.06-.38-1.12-1.7-1.6-2.58-.96-1.74-1.5-3.45-1.72-3.7-.22-.26-.42-.74-1.33-.83-.9-.08-1.9.04-2.15.17-.27.12-.33-.08-.14-.23z"/><path fill="#e47678" d="M22.98 436.38c.4.03.96.36 1.3.5.32.16.86.5 1.13.76.28.26.2.4.06.57-.13.17-.2.53-.45.73-.24.2-1 .7-1.26 1.03-.24.34-.45.95-.76.9.14.05.3.28.3.28 0-.25.36-.74.57-.88.22-.15.77-.8.9-.96.14-.15.5-.38.55-.5.05-.12.18-.5.4-.68.2-.2.24-.26-.1-.55-.36-.28-.82-.66-1.07-.73-.26-.07-.72-.32-.93-.45-.22-.14-.2-.25-.18-.32-.08.14-.2.32-.44.3z"/><path fill="#e47678" d="M18.82 440.1c.38-.17.77-.36.98-.43.22-.06.9-.27 1.06-.4.17-.12.62-.32.8-.33.2 0 .66.23.9.22.23 0 .4-.23.25-.23-.13 0-.2.1-.46.03-.26-.06-.5-.13-.4-.16.1-.04.5-.2.56-.28.07-.1.4-.37.4-.46-.14.13-.32.33-.45.4-.13.05-.7.18-.85.27-.14.08-.82.5-1 .53-.2.04-.77.27-.92.33-.16.05-.38.27-.43.2-.05-.07-.03-.27-.03-.27-.1.2-.4.6-.4.6z"/><path fill="#e47678" d="M15.83 449.55c.12.2.24.4.4.47.15.06 1.36.55 1.8.6.46.07 1.4.3 1.54.38.13.1.75.9.7.96-.05.07-.27-.12-.4-.26-.14-.14-.3-.4-.52-.5-.23-.1-1.73-.4-2.16-.58-.43-.17-1.05-.46-1.13-.52-.07-.06-.26-.5-.26-.28 0-.13.03-.27.03-.27z"/><path fill="#f57e80" d="M26.24 441.02c-.07-.08-.2-.14-.43-.03-.23.1-.2.35-.12.47.07.1 1.02 1.96 1.02 2.34 0 .4-.38 1.34-.57 1.6-.2.28-.08.44-.06.47 0 .03.24-.44.34-.55.1-.1.5-.9.5-1.02 0-.13-.08-.8-.15-1-.07-.23-.75-1.47-.8-1.76-.03-.3.02-.32.08-.32.07 0 .22-.04.22-.1 0-.03 0-.1 0-.1z"/><path fill="#e47678" d="M27.34 443.64c.2-.3.7-1.3.73-1.4.03-.1.13-1.34.25-1.44.1-.1.33.04.6.2.25.13 1.05.53 1.24.58.2.05 1.18.34 1.36.4.18.05.3.28.37.4.06.1.5.9.55 1.03.06.12.16.35.03.43-.12.08-.26.25-.37.3-.1.03-.42.43-.67.42-.24 0-.66 0-.9-.25-.2-.24-.7-.22-.7-.4 0-.2-.07-.26-.14-.25-.07.03-.3.34-.16.47.14.14.8.4 1.02.54.2.14.2.24.18.32 0 .1.12.26.23.14.12-.13.12-.22.04-.33-.06-.13-.28-.13-.25-.2.04-.07.36.07.57.07.22 0 .4-.22.52-.27.14-.05.5-.08.67-.28.16-.2.27-.3.24-.48-.03-.16-.37-.78-.65-1.2-.3-.4-.46-.52-.46-.68 0-.17.02-.43-.12-.63-.14-.2-.16-.32-.14-.43.02-.12.05-.34-.02-.4-.06-.1-.22-.1-.24-.03-.03.08 0 .4.08.5.07.1.3.5.3.72 0 .2.03.3-.05.3-.1 0-.6-.2-.96-.32-.36-.14-1.36-.54-1.54-.63-.2-.08-.48-.17-.47-.36 0-.2.28-.7.58-.9.3-.2.37-.8.37-1.08 0-.3-.2-.66-.66-.95-.47-.3-1.56-1-1.9-1.22-.35-.23-.5-.33-.58-.43-.1-.1-.16-.23-.32-.2-.15.03.04.24.16.3.1.1 1.5 1.02 1.9 1.28.4.26 1 .64 1.03.97.03.34.06.8-.18 1.1-.22.27-.64.72-.72 1.03-.08.3-.3 1.18-.47 1.66-.15.48-.57 1.36-.54 1.5.03.12.08.18.14.08z"/><path fill="#e47678" d="M25.25 435.05c.16-.06.4-.04.6 0 .2.05.9.32 1.08.35.18.04.8.2.9.13.1-.05.1.12-.12.15-.2.03-.6-.1-.88-.17-.28-.06-.95-.34-1.14-.34-.2 0-.5-.06-.63-.05.1-.02.2-.05.2-.05z"/><path fill="#e47678" d="M27.13 434.62c.17 0 .93.24 1.1.3.17.07 1 .5 1.23.7.24.18.94 1.14 1.1 1.3.16.15.4.5.53.44s.06-.1-.05-.25c-.1-.14-.78-.86-1-1.1-.2-.23-.44-.48-.66-.6-.23-.13-1.1-.5-1.26-.57-.16-.08-.9-.25-.9-.25l-.1.04z"/><path fill="#e47678" d="M31.86 439.55c.05-.04.2.25.33.34.1.1.56.52.74.67.2.16.32.43.38.55.05.1.2.72.2.88.02.16.1 1.54.15 1.75.03.2.03.43.1.6.04.15.2.33.22.78 0 .45.1.9.08 1.6-.04.68-.1 1.25-.14 1.46-.03.2-.03.34.03.34.07 0 .14.06.25-.02-.18.1-.34.22-.46.28-.02-.12.1-.32.1-.5 0-.2 0-.93.05-1.37.04-.44.07-1.5 0-1.6-.06-.1-.03-.3-.05-.48-.02-.17-.3-.5-.3-.66 0-.16-.1-1.08-.14-1.53-.05-.46-.08-1.4-.25-1.54-.17-.15-.68-.86-.87-1-.2-.13-.37-.33-.4-.43-.03-.1-.08-.12-.02-.15z"/><path fill="#e47678" d="M28.45 445.05c.1-.04.14.07.1.15-.04.1-.1.1-.16.16s-.12.25-.06.36c.05.1.2.52.4.66.04.13.16.44.36.57.12.08.15.4.3.38.13-.02.57-.3.73-.4.16-.08.56-.24.74-.3.18-.05.4-.24.57-.25.2-.02.43-.13.55-.2.1-.07.1.06 0 .1-.12.07-.56.2-.7.3-.13.1-.45.27-.57.33-.12.08-.4.07-.83.33-.43.27-.5.46-.6.63-.1.18-.38.54-.45.86-.06.32-.02.48.06.56.1.07.2.4.27.5.07.08.26.13.3.07.07-.06.14.06.1.13-.03.06-.08.06-.2 0-.14-.06-.3-.08-.4-.3-.08-.2-.25-.4-.3-.53-.03-.12-.06-.38.02-.52.06-.14.5-.8.56-.94.06-.14-.03-.28-.15-.44-.1-.16-.26-.46-.38-.58-.13-.12-.27-.36-.36-.5-.1-.16-.16-.35-.17-.56-.02-.2-.08-.34.03-.4.1-.05.14.05.17-.03.04-.1.05-.15.05-.15z"/><path fill="#f57e80" d="M30.8 448.92c.13-.06.3.08.3.12 0 .03-.12-.06-.15.06-.02.1-.1.22.08.33.18.1.14.1.22.23.08.14.02.07-.13-.02-.17-.08-.4-.12-.42-.28-.02-.17-.06-.37.1-.44z"/><path fill="#f57e80" d="M32.66 448.18c.06-.07.03-.18-.1-.25-.1-.06-.14-.1-.06-.14.1-.03.2.03.23 0 .03-.04-.28-.15-.45-.13-.17 0-.27-.1-.27-.05 0 .06.22.17.3.26.07.1.28.37.36.3z"/><path fill="#d96f71" d="M21.8 452.16c.17-.03.6.56.87.64.26.08.44.35.7.46.28.12 1.07.2 1.24.2-.16.07-.6.15-.6.15-.48-.13-1.12-.34-1.32-.48-.2-.14-.46-.55-.64-.63-.18-.08-.4-.07-.37-.26.05-.1.06-.07.14-.08z"/><path fill="#e47678" d="M25.98 450.7c.15-.1.18.14.07.22-.1.08-.3.18-.46.6-.18.45-.2.83-.04.85.16.03.4.18.4.26-.02.08-.2-.08-.4-.14-.16-.06-.38-.32-.3-.55.06-.23.33-.7.53-.92.2-.2.1-.28.18-.34z"/><path fill="#d96f71" d="M29.35 451.5c-.2.05-.85.18-1.12.06-.27-.12-.8-.37-.8-.3 0 .04.5.38.6.4.1 0 .64.1.7.13.03.03 0 .18 0 .18.2-.18.62-.47.62-.47z"/><path fill="#d96f71" d="M15.66 448.98c-.13.2-.3.5-.5.5s-.36-.12-.5-.13c-.15 0-1 .03-1.2 0-.2-.05-1.44-.35-1.7-.46-.26-.12-.94-.2-.9-.33.02-.14.14-.08.3-.03.18.05.7.3.9.35.2.04 1.04.25 1.3.25.28 0 1.16 0 1.3.02.12.02.4.1.46 0 .08-.07.42-.28.46-.47.04-.2.08-.25.08-.25 0 .24 0 .53 0 .53z"/><path fill="#e47678" d="M10 445.8c.15-.22.43-.43.6-.48.17-.05.55-.14.68 0s.28.5.36.63c.1.12.32.08.38.14.06.05.53.63.53.72 0 .1-.1.3-.03.36.06.06.22-.04.25-.1.03-.08.05-.34 0-.4-.03-.08-.46-.72-.56-.74-.1-.02-.32-.02-.48-.2-.16-.18-.4-.67-.54-.67-.12 0-.3.1-.47.15-.15.06-.54.13-.58.12-.04 0-.33-.17-.4-.27.1.15.27.72.27.72z"/><path fill="#e47678" d="M10.44 443.53c.16-.16.34-.47.54-.56.2-.1.6-.5.8-.47.17.04.5.42.92.46.42.05 1.56.05 1.83.13.27.07 1.5 0 1.8-.14.34-.12.45.26.6.27.07.02-.2.2-.46.2s-.74-.23-.98-.2c-.25.03-1.47-.12-1.7-.12-.23 0-1.24.05-1.68-.15-.44-.2-.62-.1-.9.04-.26.15-.6.57-.8.74-.2.17-.37.3-.37.2 0-.07.23-.26.4-.4z"/><path fill="#d96f71" d="M18.32 440.45c-.25-.24-1.02-.7-1.18-1.28-.15-.58-.35-.9-.28-1.3.07-.37-.1-.25-.2-.24-.12 0-.56.13-.76.08-.2-.03-.3 0-.2.1.12.06.54.06.7 0 .18-.03.2.06.22.28.02.23-.05.96.18 1.15.25.18.43.64.74.78.3.16.56.5.56.56 0 .07-.05.27-.05.32.15-.3.27-.43.27-.43z"/><path fill="#cb676a" d="M18.4 437.1c0-.1.14-.18.2-.15.05.03.04.27.15.35.12.1.6.53.77.65.15.13.4.37.47.33.08-.04.04.05.04.05-.1.07-.26.3-.26.3-.07-.2-.4-.35-.46-.45-.07-.1-.24-.34-.47-.5-.22-.18-.48-.43-.46-.57z"/><path fill="#cb676a" d="M22.3 436.55c-.07 0-.44-.15-.7-.35-.25-.2-.6-.37-.9-.37-.3 0-1.5-.05-1.8.03-.27.1-.4.17-.48.27-.1.1.26-.1.46-.14.2-.04 1.26-.07 1.58-.02.33.04.78.08 1.06.34.28.25.38.44.38.44.14-.15.4-.2.4-.2z"/><path fill="#d96f71" d="M15.18 437.74c.04.03-.32.48-.28.62.04.14.38.58.58.7.2.13.3.42.28.53 0 .1-.17.53-.35.5-.18 0-.13-.06-.03-.12.1-.05.22-.2.2-.43 0-.23-.12-.36-.27-.48-.16-.13-.4-.48-.46-.55-.06-.07-.06-.16.06-.34.13-.18.28-.44.28-.44z"/><path fill="#d96f71" d="M12.76 440.25c.15-.1.28-.42.74-.65.47-.22.73-.4.86-.38.13.02.4.04.38-.1-.02-.14-.1-.2-.08-.3.02-.12.02-.3.1-.3s.15-.17 0-.12c-.13.06-.23.17-.23.3 0 .1.1.33 0 .34-.08 0-.3-.06-.45.04-.15.1-.85.5-.93.6-.1.1-.4.57-.4.57z"/><path fill="#cb696b" d="M25.75 434.52c.27-.04-1.54-.4-1.8-.45-.24-.04-2.55-.1-2.92 0-.36.1-1.02.35-1.3.46-.1.03.1.05.3.05.23 0 .7.04 1 .05.32 0 1.12.04 1.37.07.25.05 1.15.2 1.35.33.2.15.18.07.18.17s0 .25 0 .3c.1-.13.14-.23.25-.27.1-.04.2-.08.2-.08-.36-.14-.7-.4-1-.42-.3-.03-1.4-.13-1.68-.14-.27-.02-1.62-.02-1.6-.1.04-.06.2-.13.46-.22.25-.1.56-.2 1.08-.2s2.22.06 2.53.1c.3.07 1.17.25 1.2.34.03.08-.05.5-.12.53.14-.1.28-.3.34-.4.05-.06.07-.12.15-.13z"/><path fill="#f57e80" d="M17.6 435.46c.3-.06.7-.17.82-.23-.22.04-.62.13-.58.06.05-.08.1-.15.1-.15-.15.14-.35.3-.35.3z"/><path fill="#f57e80" d="M35.4 442.98c.1-.08.2.17.25.26.02.1.03.4.08.53.06.14.15.5.16.6 0 .08.06.3.08.2-.03.17-.1.38-.1.38-.04-.25-.1-.48-.12-.63-.03-.15-.1-.3-.15-.58-.05-.3-.1-.56-.18-.6-.07-.02-.06-.1 0-.16z"/><path fill="#f57e80" d="M34.05 439.66c0-.15-.34.2-.34.3 0 .08.1.2.18.05.1-.13.17-.28.17-.34z"/><path fill="#e47678" d="M35.56 437.77c-.08-.06-.23-.06-.22 0 0 .08.18.46.43.67.25.2.45.85.46.96.02.12.1 1.27.2 1.4.1.15.4.75.5.9.08.15.33.96.4 1.1.06.13.1.48.16 1.1.08.62.22.72.28.66.05-.05-.02-.03-.1-.34-.1-.3-.13-.86-.16-1.16-.04-.3-.35-1.08-.5-1.35-.15-.26-.3-.54-.32-.88-.04-.33-.2-.9-.3-1.3-.1-.4-.34-.87-.42-.98-.1-.12-.43-.46-.43-.56 0-.1 0-.2 0-.2z"/><path fill="#e47678" d="M36.84 438.8c.14-.03.3.2.24.22-.06.02-.08.1-.02.23.05.12.27.64.38.76.1.14.37.47.42.5.04 0 .05.27.05.3 0 .06.06.3-.1.1-.13-.2-.28-.45-.35-.62-.07-.17-.25-.58-.34-.76-.08-.18-.14-.4-.16-.5 0-.1-.2-.22-.1-.23z"/><path fill="#f57e80" d="M37.55 446.2c-.1-.12-.18-.22-.4-.1-.2.13-.66.15-.75.25-.1.1-.42.4-.5.43.34-.17 1.23-.6 1.3-.54.07.07.08.4.08.4.13-.06.27-.44.27-.44z"/><path fill="#d96f71" d="M34.9 452.26c.08-.05.2.1.15.17-.04.06-.04.08-.38.18-.34.1-.77.48-.86.6-.07.12-.4.06-.55.27-.16.22-.43.65-.5.74-.06.1-.6.4-.77.5-.17.1-.5.3-.57.3-.07 0-.36.03-.36.03.37-.22.9-.45 1-.52.1-.07.25-.13.48-.37.23-.23.46-.64.6-.72.14-.08.46-.1.53-.23.08-.13.42-.5.64-.6.2-.1.4-.08.46-.14.05-.07.14-.17.14-.17z"/><path fill="#d96f71" d="M32.2 453.1c.15-.06.55-.1.53-.05 0 .07-.23.34-.47.4-.23.05-.36.13-.48.23-.13.1-.4.07-.64.12-.23.06-.04-.16.08-.18.13 0 .3 0 .4-.1.12-.12.4-.33.57-.4z"/><path fill="#d96f71" d="M33.66 450.92c-.1.17-.35.48-.5.57-.16.07-.83.5-1.06.58-.24.1-.6.24-.72.4-.13.17-.36.35-.53.48-.17.12-.5.23-.72.4-.2.2-.6.57-.53.62.07.06.4-.3.54-.37.15-.07.6-.2.65-.27.05-.07.26-.36.52-.55.26-.2.7-.42.97-.58.25-.17 1-.63 1.1-.77.1-.14.26-.5.26-.5z"/><path fill="#d96f71" d="M36.35 448.54c0 .1-.1.5-.1.63s.13-.04.16-.2c.04-.17-.05-.44-.05-.44z"/><path fill="#d96f71" d="M35.9 447.84c.1-.1.26 0 .15.1-.1.1-.3.28-.3.46s-.1.65-.12.83c0 .18.02.5-.16.6-.18.12-.3-.06-.38.08-.08.15-.3.23-.5.87-.06.22-.16.23-.2.16-.07-.07-.13-.28-.25-.2-.13.06-.24.15-.33.24.1-.25.32-.44.4-.43.05.02.15.23.22.1.07-.1.25-.54.4-.66.13-.13.38-.13.5-.27.1-.13.2-.3.25-.7.03-.4.05-.77.13-.88.08-.1.18-.28.18-.28z"/><linearGradient x1="27.195" x2="26.97" y1="455.214" y2="453.636" gradientUnits="userSpaceOnUse"><stop offset="0" stop-color="#F79899"/><stop offset=".257" stop-color="#F39596"/><stop offset=".536" stop-color="#E58E8E"/><stop offset=".826" stop-color="#D08181"/><stop offset="1" stop-color="#BF7777"/></linearGradient><path fill="url(#A)" d="M30.6 450.8c-.8.72-.85.84-.96.93-.1.1-.46.02-.8.4-.32.4-.7.8-1.03 1.05-.32.24-.36.48-.56.48-.2 0-.45-.18-.7-.06-.23.1-.4.5-.5.82-.08.33-.12.67-.32.67s-.4.08-.52-.07c-.1-.15-.3-.48-.4-.52-.07-.03-1.1-.38-1.2-.38 0 0-.45-.14-.65-.33.32-.04 1.1-.22 1.22-.23.12-.02.4-.07.6-.08.2-.03 1.43-.1 2.28-.42.86-.32 1.6-1.08 1.75-1.17.15-.08 1.25-.8 1.8-1.08z"/><path fill="#d96f71" d="M27.73 454.16c.15-.17.24-.3.2.08-.07.38 0 .56.07.56s-.26-.17-.28-.08c-.03.1-.15.38-.02.5.07 0-.2.1-.24-.05-.03-.15.03-.32.1-.5.06-.2.06-.4.17-.5z"/></g><path fill="url(#B)" d="M66.25 26.56c.24-.2 1.28-.4 1.6-.44.3-.06 1.12-.32 1.33-.25.2.06.57.74.8 1.06.2.33 1.05.78 1.37.78.33 0 1.38-.04 1.6-.04.24 0 1.07-.03 1.16.06.1.1.72.57.96.5.23-.06.8-.93.8-1.34 0-.3-.67-1.04-.97-1.46-.3-.43-1.36-2.4-1.44-2.74-.07-.32-.85-2.34-1.14-2.5-.28-.15-1.2-.33-1.6-.33-.4 0-1.5.15-1.67.3-.2.14-.65-.14-.34-.47.32-.34 1.15-.48 1.5-.48.35 0 1.76.08 1.97.14.2.07.45-.08.7-.48.27-.4.3-.8.76-1.05.46-.23.75-.14.82-.34.06-.2.54-.63.3-.84-.22-.2-1.02-.62-1.22-.62-.2 0-.46.26-.72.14-.24-.1.05-.36-.18-.46-.23-.1-.73-.32-1.05-.03-.32.28-.58.72-.7.84-.1.1-.83.22-1.02.48-.2.26-.75 1.1-.63 1.16.1.05.84-.2 1.1-.3.26-.14.77-.6 1.02-.6.24 0 .44-.05.53-.17.1-.1.67-.5.73-.4.05.12-.17.6-.34.7-.17.08.22.12.24.23.03.12-.05.43-.3.5-.27.06-.72-.15-.95-.1-.24.03-1.5.4-1.83.6-.32.18-1.15.44-1.27.78-.1.34-1.24 2.45-.77 2.73.46.3 2.73.68 3.2.87.46.18 1.95 1.5 2.3 2.15.35.64.8 1.64.95 1.77.15.12.38.44.3.44-.07 0-.6 0-.67-.15-.07-.15-1.03-1.9-1.18-1.95-.14-.07-2.1-1.64-2.68-1.65-.58 0-1.56-.06-1.86-.24-.3-.2-.6-.4-.9-.13-.3.25-.72.8-.86 1.47-.15.68-.17 1.62-.27 1.9-.1.3-.22 1.42.05 1.6.27.2 1.16.74 1.8.83.67.1 1.37-.17 1.75.35.4.5.86 1.3.75 1.47-.12.17-.42.2-.63.08-.2-.12-.77-.6-1.13-.73-.37-.13-2.52-.94-2.65-.88-.13.06-.1.6.02.9.14.3.54.9 1.24 1.13.72.23 1.54.05 1.9.24.33.2.58.65 1.04.8.46.15 1.63.13 1.76-.1.13-.23.04-.65-.2-.65-.22 0-.74-.23-.58-.55.15-.33.5-.4.6-.33.12.08.5.67.7.67.18 0 .15-.6.47-.5.32.06.2.75.4.9.2.16 1.94.3 1.98-.05.04-.38-.7-.47-.65-.84.04-.36.8-1.28.73-1.45-.06-.16-.86-.62-1.4-.68-.53-.05-1.93-.05-2.37-.3-.44-.25-1.63-.98-1.75-1.17-.1-.2-.1-.67-.82-.65-.72.02-2.18.42-2.37.48-.2.06-.6.02-.52-.3.08-.33.28-.22.4-.32z" transform="translate(-50 5.286)"/><path fill="#f4b1b3" d="M25.68 35c-.13.13-.42.45-.33.9.1.43.54.72 1 .6.45-.1.87-.13.82-.34-.06-.2-.44-.06-.7-.3-.24-.26-.47-.5-.47-.62s.04-.46.2-.52c.18-.06.77.12 1.08.3.3.2 1.18.43 1.5.14.3-.3.37-.57.05-.7-.33-.1-.86-.7-.9-.98-.04-.27-.17-.67.02-.96.2-.28.6-.68.52-.93-.1-.26-.86-.78-.94-1.2-.08-.42-.27-.7-.13-1 .13-.32.26-.4.42-.43.15-.04.5 0 .5.2 0 .18-.27.35-.16.63.1.3.36 1.08.65 1.13.3.06.9-.1 1.3-.34.4-.26 1.14-.43 1.27-.6.14-.18.38-.43.4-.27.02.15.02.65-.15.74-.17.1-.6.14-.6.4.03.23.3.58.47.66.16.07.64-.08.75.1.12.2.15.43-.02.43-.17 0 .2.33.02.38-.17.06-.67-.05-.82-.34-.15-.3-.17-.6-.48-.73-.3-.13-.6-.1-1.1 0-.5.1-1.04.54-1.04.8 0 .27-.22.7-.07 1.04.16.35.56.45.6.6.03.15-.27.56-.04.7.22.16.73.22.92-.1.2-.3.24-.4.1-.58-.13-.2-.32-.35-.32-.56 0-.2.23-.45.38-.45s.6.22.5.43c-.1.2-.2.36.1.4.3.03 1.06-.37 1.43-.6.37-.26.7-.38.7-.63.03-.24.1-1.76.1-2.08-.03-.32-.05-.84-.1-1.17-.07-.32-.2-.78-.4-.88-.18-.1-.47-.2-.77.1-.3.3-.77.44-.96.6-.2.14-.28.5-.46.5-.16.03-.52.07-.52-.18 0-.26-.14-.5-.35-.55-.2-.05-.82-.1-.84-.42-.03-.3.03-.8.26-.82.23 0 .38.26.57.4.2.13.94.7 1.2.57.24-.14.5-.4.68-.56.18-.14.35-.26.05-.7-.3-.44-.35-1-.67-1.07-.33-.07-1.46-.2-1.76-.44-.3-.24-.92-.73-1.2-.6-.26.14-.12.86-.18 1.15-.06.28-.73 1.5-.86 1.62-.13.12-1.2 1.93-1.2 2.17 0 .22.4.97.68 1.3.27.36.4.6.1 1.3-.3.72-.67 1.72-.67 1.85 0 .13 0 .4-.12.5z"/><path fill="#f4b1b3" d="M25.33 29.5c.15-.3.54-1.3.52-1.57 0-.27-.65-1.1-.8-1.77-.17-.7-.2-1.05.08-1.15.27-.08.67-.1.67.1 0 .17-.32.26-.25.55.07.3.68 1.37.74 1.68.04.3.13.9.2.67.04-.22.04-.63.17-.98.13-.34.34-1.46.5-2 .17-.5.55-.97.73-1.2.18-.23.58-.9.45-1.4-.12-.48-1.2-1.04-1.52-1.32-.32-.27-1.55-1-1.55-1.2 0-.17.2-.24.38-.17.18.07.16.3.27.36.1.06 1.84 1.15 2.3 1.42.48.27 1.03.65 1.03 1 0 .38-.13 1.2-.36 1.24-.24.06-.5.04-.62.3-.13.25-.38.52-.07.65.32.13 1.37.64 1.62.7.25.05.87.16.87-.03 0-.18-.32-.57-.3-.86.02-.28.14-.4.3-.37.17.03.22.12.22.27 0 .14-.14.47-.07.56.07.1.33.34.33.5 0 .17 0 .44.07.57.07.13.74 1.23.83 1.25.1 0 .58-.02.58-.24s-.02-1.52-.16-1.7c-.15-.18-1.03-.94-1.14-1.1-.1-.17-.46-.38-.2-.8.3-.4.4.04.43.22 0 .18.84.9.97 1 .13.08.43-.2.45-.46.02-.27.3-.67.4-.67.1 0 .43.13.3.35-.12.2-.4.4-.55.6-.17.2-.37.35-.3.63.08.28.3.9.3 1.2 0 .3-.04 1.4.07 1.6.1.17.34 1.02.34 1.37 0 .34.22 1.12.15 1.5-.08.38-.26 1.2-.2 1.45.05.25.25-.1.5-.42.26-.3.24-.87.35-1.05.1-.18.27-.6.5-1.12.2-.5.13-1.05.1-1.4 0-.34-.1-.64-.24-.8-.15-.17-.22-.55 0-.62.22-.07.33-.05.34.13.02.2.17.56.17.7 0 .15.1.6.14.44.03-.16.2-1.25-.08-1.53-.27-.3-.58-1.65-.9-1.96-.3-.3-.76-1.18-.86-1.36-.1-.18-.63-1.3-.77-1.6-.16-.3-1.52-1.7-2.08-1.98-.56-.27-1.86-.96-2.6-1.05-.74-.1-1.27-.03-.22.28 1.05.3 1.32.7 1.46.9.15.2 1.27 1.36 1.34 1.53.08.17.15.4-.25.22-.4-.16-1.1-1.03-1.28-1.28-.18-.25-1.74-1.23-2-1.3-.28-.08-.97-.06-1.15-.1-.18-.03-.62-.25-.8-.14-.18.1-.3.34-.13.34.18 0 .94.3 1.06.35.13.02.82.13 1.1.13.26 0 .3.3 0 .35-.28.05-1.2-.2-1.35-.28-.14-.1-1.04-.28-1.33-.25-.3.04-.78-.02-1.14.47-.36.5-.5.62-.04.77.44.13 1.04.44 1.2.56.13.13.64.5.76.7.13.17-.14.37-.3.62-.13.26-.38.64-.7.85-.3.22-.84.95-1 1.07-.13.13-.58.64-.5.8.1.16.7 1.25.7 1.43.03.18.38 1.03.45 1.23.08.2.9 1.6 1.06 1.66.16.07.22.1.27-.02z"/><path fill="#f4b1b3" d="M31.47 19.6c.2.02 1.55.5 1.87.87.3.36.67.67.77 1.07.12.4 1.02.96.83 1.1-.2.1-.3.42.04.84.34.42.46 1.18.7 1.5.27.35.96 1.73.96 2.3 0 .56-.02 1.34-.2 1.72-.16.37-.56 1.25-.8 1.4-.26.15-.64.63-.68.42-.04-.2.17-.9.3-1.24.12-.33.48-.88.43-1-.04-.13.1-2.04-.1-2.33-.2-.3-1.18-2.26-1.45-2.57-.27-.32-.96-2.06-1.23-2.52-.28-.46-1.95-1.65-1.43-1.57z"/><path fill="#f4b1b3" d="M35.56 22.42c.08.02.56.64.77 1.13.2.48.63 1.8.74 2.22.1.42.42.6.42.9 0 .3.07.8-.06.98-.12.2-.04.6-.12.63-.1.02-.17-.37-.23-1.06-.08-.7-.8-1.56-.87-2.02-.08-.46-.27-1.88-.46-2.24-.2-.36-.32-.56-.2-.54z"/><path fill="#f4b1b3" d="M26.07 37.9c.26-.06.6.23.8.06.22-.16.96-.8 1.15-1.13.18-.33.5-.77.7-.82.18-.03.47.22.63-.03.17-.25.33-.65.5-.86.2-.2.74-.26 1.12-.6.38-.37 1.32-.87 1.76-1.15.44-.27.86-.37 1.1-.6.22-.23.66-.9.87-1.18.2-.27 1.1-.85 1.3-.92.2-.06.56-.06.44.36-.13.43-.38 1-.6 1.16-.2.15.18-.23-.05-.36-.24-.12-.37-.3-.77.23-.4.55-.18 1.4-.33 1.6-.15.2-.6.23-.7.35-.1.13-.35.44-.56.6-.2.18-.56.24-.7.5-.16.24-.62.62-.95.72-.35.1-.9.2-1.2.57-.28.38-.55.57-.9.8-.32.23-.74.48-.8.8-.07.3-.1 1.04-.63 1.06-.52.02-.8-.13-.8-.5 0-.38.13-.6-.04-.6-.17.03-.6.32-.6.56.03.2-.2.76-.1.9.1.15.82.2.82.47 0 .27.03.54-.54.52-.56-.03-.9-.26-1.33-.57-.44-.32-.27-.38-.17-.78s.2-1.06.57-1.15z"/><path fill="#f4b1b3" d="M31.05 36.8c.35-.23 1.28-.62 1.43-.78.14-.17.86-.82.98-.82.13 0 .28.23.6-.13.3-.35.5-.92.64-.92s.08.84-.48 1.22c-.57.37-.2.65-.6.8-.4.18-.7 0-.9.2-.18.2.1.63-.3.63s-1.03.06-1.26.27c-.23.2-.8.34-.92.55-.13.2-.53.6-.72.63-.18.02-.44-.28.17-.6.6-.3.8-.7 1.35-1.06z"/><path fill="url(#C)" d="M59.58 23.27c.1-.24.56-.84.73-.96.18-.12.7-.54 1-.45.3.08.85.18 1.2.18.37 0 1.18 0 1.43 0 .26 0 1.62.25 1.8.28.15.03-.18.5-.43 1.14-.25.65-.76 2.95-.84 3.4-.08.43-.32.8-.55.87-.22.1-1.18.16-1.66.03-.48-.12-1.4-.3-1.68-.5-.27-.2-.7-.27-.63.06.1.33.4.6.57.64.17.05.77 0 1.02.07.26.07 1.43.28 1.66.28.23 0 1.23-.04 1.28.1.04.15-.1.65 0 1.05.08.4.3 1.07.52 1.23.23.17.08.32-.34.2-.4-.1-.98-.45-1.4-.68-.42-.23-.84-.25-1.2-.37-.4-.12-1.02-.67-1.3-.83-.26-.17-.77-.5-.9-.92-.16-.42-.2-.57-.4-.86-.22-.3-.37-1.65-.2-1.92.17-.27.4-.75.65-.9.24-.15.56-.25.9.23.33.5.47.37.62.45.14.08.42.36.44.54.02.18-.1.48.1.5.2.02.38-.3.36-.48-.02-.2-.4-.7-.53-.82-.13-.13-.5-.15-.63-.34-.15-.18-.23-.62-.5-.64-.24-.03-.9.4-1.05.3-.15-.07-.36-.35-.34-.5.02-.18.1.1.3-.35z" transform="translate(-50 5.286)"/><path fill="#f4b1b3" d="M10.96 26.2c-.22-.3.36-1.04.7-1.27.37-.23 1.08-.54 1.3-.86.2-.3.6-.65.85-.65.26 0 .55.17.6 0 .04-.16.52.1.37.3-.14.18-.3.44-.25.52.06.08.42.3.55.06.12-.25.37-.56.23-.92-.15-.35-.8-.75-.76-.96.04-.2.1-.42.42-.42.34 0 .7-.06.82.1.12.17-.1.48.06.74.17.25.2.6.6.98.4.38.9.6.87.78-.04.2-.3.06-.62.52-.3.46-.42 1.5-.63 1.65-.2.17-1.05.28-1.3.32-.25.03-2.26-.12-2.68-.4-.42-.26-1.03-.4-1.1-.5z"/><path fill="#f4b1b3" d="M12.5 23.53c.1-.24.97-1.05 1.25-1.18.27-.12.2.1.12.23-.08.15 0 .34-.14.4-.15.07-1.05.48-1.07.57-.02.08-.23.1-.17-.02z"/><path fill="#f4b1b3" d="M17.52 24.1c.24.06.6-1.07.73-1.22.15-.15.2-.48.07-.74-.15-.25-.68-.73-.64-.9.05-.16.24-.46.42-.37.2.08.15.35.22.44.06.1.67.63.8.53.12-.1.5-.27.5-.5-.03-.23-.1-.57.1-.55.2.02.58.36.8.13.25-.22.3-.58-.07-.58-.36 0-1.36-.17-1.57-.17-.2 0-.75.2-.94.27-.2.07-.63.3-.78.45-.15.14-.58.5-.58 1.2 0 .68.08 1.18.33 1.48.26.3.3.46.62.54z"/><path fill="#f4b1b3" d="M15.26 21.54c0-.2.88-.93 1.17-1.07.3-.15 1.24-.32 1.17-.2-.06.1-.8.4-.9.64-.1.26-.2.55-.33.6-.13.08-1.1.35-1.1.04z"/><path fill="#f4b1b3" d="M17.46 19.76c.3-.23 1.7-.65 2.24-.65.52 0 2.05-.22 2.26.1.2.3.08.66-.15.77-.22.1-.28.3-.8.1-.53-.2-1.1-.3-1.58-.27-.46.04-1.3.06-1.55.06s-.58.02-.4-.1z"/><path fill="#f4b1b3" d="M23.26 18.8c.16 0 .56-.3.3-.36-.24-.07-1.96-.26-2.42-.2-.46.03-1.48.28-1.1.28.4 0 1.48.12 1.65.12.16 0 1.4.2 1.56.17z"/><path fill="#f4b1b3" d="M17.96 19.13c.23-.1.77-.4.98-.4.2 0 1 .04.84.1-.15.07-1.15.28-1.43.32-.27.04-.73.12-.4-.02z"/><path fill="#f79899" d="M25.15 18.33c-.1-.13-2.23-.73-3.84-.4-.24.02 1.06.1 1.56.1s2.03.4 2.12.4c.08 0 .33.13.17-.1z"/><path fill="#f4b1b3" d="M14.08 21.8c.1-.25.7-.77 1-.95.26-.2 1.7-1.07 1.85-1.05.15.02.57.27.36.27-.22 0-.85 0-1.14.23-.3.23-1 1.17-1.18 1.32-.17.15-1 .46-.9.2z"/><path fill="#f5d9d9" d="M27.83 28.82c-.34 0-.6.15-.63.73-.02.58.6 1.92.5 2.34-.13.4-.77.74-.55 1.2.22.47 1 1.15 1.07 1.5.07.38-.3.35-.48.1-.17-.28-1.27-.06-1.4-.33-.1-.27-.38-.63.13-1.3.5-.65.6-1.4.24-1.67-.35-.27-.84-1-.7-1.53.15-.54.88-1.78 1.18-2.12.3-.34.77-1.32.75-1.87-.02-.57.07-.66.3-.54.2.12 1.33.56 1.67.68.34.12 1.27.54 1.36 1.05.1.5-.07 1.05-.46 1.05-.4 0-.75-.1-1.2-.57-.43-.46-.55-.48-.84-.02-.3.46-.76.93-.37 1.05.38.12 1.26.3 1.3.6.06.32.57.78.8.6.2-.2.47-.64.74-.7.27-.1.76-.67 1.07-.6.33.07.72.24.72.97s-.3 1.15-.12 1.5c.17.33.3 1.4.02 1.55-.3.14-.4.1-.4-.27s.13-.76-.26-.88c-.4-.12-.95-.3-.68-.6.27-.3.46-.64.44-.88-.02-.25-.24-.5-.56-.32-.32.2-1.46.95-1.9.98-.44.02-1.12-.32-1.07-.86.04-.53.02-.87-.67-.85z"/><path fill="#f5d9d9" d="M28.93 32.6c-.04.36.56 1.24.75.94.2-.3.32-.95.66-.9.34.05.6.54 1.05.46.43-.07 1.25-.3.9-.4-.38-.06-1.1-.23-1.18-.52-.07-.3-.02-.7-.68-.68-.66.02-1.4.3-1.5 1.1z"/><path fill="url(#D)" d="M74.4 29.38c.3.1.14.57-.32 1.27-.16.23.47 1.13-.34 1.08-.78-.05-.8-.96-1.05-.97-1-.04-2.04-.27-2.44-.78-.6-.77-1.22-1.38-1.97-1.38-.77 0-2.15-.44-2.06-.83.1-.4 1.88-1 2.4-.8.5.2 1.04.68 1.6 1.14 1.25 1.05 3.83 1.15 4.17 1.28z" transform="translate(-50 5.286)"/><path fill="url(#E)" d="M67.17 24c.64-.24 2.14-.17 2.6.02.47.2 1.9.7 2.46 1.58.56.88 1.3 1.5 1.2 1.68-.1.2-1.1.27-1.5.03-.43-.24-1.1-.28-2.13-1.28-1.02-1-3.24.12-3.43.24-.2.12-.76-1.68.8-2.26z" transform="translate(-50 5.286)"/><path fill="url(#F)" d="M72.1 20.27c.47.28 1 2.07 1.4 2.87.42.8 1.9 3.07 2 3.56.1.5-.6 1.2-1.58-.2-.98-1.38-1.52-2.72-2.27-3.38-.76-.66-3.2-.66-3.6-1.17-.42-.5.4-1.6 1.12-1.68.73-.07 2.36-.36 2.94 0z" transform="translate(-50 5.286)"/><path fill="url(#G)" d="M61.86 22.62c1.07.2 1.44-.28 1.97.06.54.34 1.24 1.04 1 1.45-.24.4-.4 2.45-.77 2.7-.37.23-1.8.6-2.27.28-.47-.3-1.08-.37-1.25-.8-.17-.44-.6-1.44-.3-1.44s1.14.53 1.22.9c.07.36.56.67.73.5.18-.17.63-1.2.18-1.64-1.67-1.64-1.87-1.18-1.85-1.6.02-.45.86-.5 1.33-.4z" transform="translate(-50 5.286)"/><path fill="url(#H)" d="M62.57 19.47c.43-.23.9-1.24 1.22-1.12.3.12.5.53.62.68.12.15.5.5.83.02.34-.48-.07-1.1.2-1.16.26-.1 1 .98 1.26 1.2.28.22-.5.78-.65 1.3-.15.5-.36 1.26-.87 1.24-.52-.03-2.6-.1-2.83-.73-.22-.63-.73-.92.22-1.43z" transform="translate(-50 5.286)"/><path fill="url(#I)" d="M67.6 15.55c.32-.06-.2.24-.14.44.05.18.5.64.54.98.05.35-.05.73-.1 1.05-.05.32-.12.83-.36.68-.25-.13-.98-.74-.9-1.74.07-1 .43-1.32.97-1.4z" transform="translate(-50 5.286)"/><path fill="#f5d9d9" d="M11.62 33.54c.53.1 1.6.37 2.1.34.48-.02.48.18.36.56-.12.4.14.76-.17.86-.3.1-.9-.6-1.53-.6s-1.58-1.3-.75-1.16z"/><path fill="#f5d9d9" d="M34.18 32.62c0 .2-.34.88-.7 1.26-.35.37-.7.92-.98 1.15-.27.23-.76-.13-1.03.2-.27.34-1.3 1.08-1.76 1.6-.45.53-1.25 1.62-1.3 1.85-.07.23-.72.23-.74-.04-.02-.28-.2-.9.36-1.4.54-.53 1.27-.57 1.57-.95.28-.4.53-.97.9-1.23.4-.25.74-.65 1.06-.88.3-.24 1.36-.9 1.72-1.08.35-.18.5-.25.6-.35.1-.1.3-.27.3-.15z"/><path fill="url(#J)" d="M68.7 14.24c.46-.14 1.6-.34 2.2-.3.62 0 .45.3.54.47.08.17.1.43-.15.36-.26-.06-1-.37-1.5-.35-.5.03-2.28.17-1.1-.16z" transform="translate(-50 5.286)"/><path fill="#f5d9d9" d="M18.38 20.55c.34-.2 1.28-.2 1.23 0-.03.2-.24.94-.45 1.03-.2.08-.67-.17-.73-.42-.06-.25-.36-.42-.04-.6z"/><path fill="#f5d9d9" d="M23.3 18.44c-.25-.03-1.93-.1-2.16-.07-.23.02.32.2 1.1.25.8.05.87.22.98.13.1-.08.25-.3.08-.3z"/><path fill="#f5d9d9" d="M24.35 19.65c.23-.02.4.6.94.88.54.27 2.38 1.13 2.55 1.53.17.4.35.92-.13 1.3s-1.13.1-1.2.6c-.05.5.45.64.3 1.2-.15.57-.17 2-.33 2.03-.18.04-.7-1.2-.7-1.6 0-.4.54-.4.27-.73-.27-.34-1.45-.13-1.45.25s.25.92.36 1.3c.1.38.63 1.53.63 1.78s-.18 1.13-.37 1.17c-.2.04-1.05-1.3-1.2-1.76-.14-.45-.8-2.08-.83-2.46-.05-.38 1-1.1 1.27-1.5.28-.36.93-1.47 1.22-1.5.28-.02.64-.46.34-.58-.3-.13-1-.4-1.67-.74-.67-.33-1.22-.37-.98-.7.22-.3.55-.43.95-.47z"/><path fill="#f5d9d9" d="M28.16 24.53c-.03-.25.2-.52.44-.58.25-.07.65-.05.67-.3.02-.25.5-.92.2-1.4-.28-.48-3.43-2-3.43-2.22 0-.23.4-.15.78-.04.38.1 1.76.8 1.9.68.15-.13-1.27-1.15-1.04-1.28.23-.13 1.13.65 1.32.84.2.2.7 1.47 1.13 1.57.42.1 1.15-.1 1.03-.3-.13-.17-1.12-1.03-1.45-1.45-.33-.42-1.43-1.1-1.16-1.15.27-.04 1.82.7 2.2.96.37.27 1.73 1.64 1.82 1.93.08.28.7 1 .5 1.26-.2.28-.2 1.28-.48 1.2-.27-.08-.67-1.5-1.05-1.36-.37.13-.77 0-.8.48 0 .48-.52.3-.62.84-.1.54.57.96.4 1.07-.16.1-1.04-.08-1.36-.26-.3-.2-.96-.34-.98-.5z"/><path fill="#f5d9d9" d="M31.14 24.5c.12-.06 1.02.64 1.13.87.1.23.33 1.36.25 1.57-.08.2-.48.02-.75-.3-.28-.3-.32-.95-.47-1.27-.14-.3-.62-.67-.16-.88z"/><path fill="#f5d9d9" d="M33.13 24.87c.07-.22.54-.6.8-.36.3.26 1.06 1.52.8 1.75-.24.23-.5.46-.37.88s.48 1.17.44 1.9c-.04.7-.44 1.43-.52 1.7-.08.24-.38 1.14-.52 1.16-.15 0 .1-1.27.1-1.56 0-.3-.23-1.7-.34-2-.1-.3-.27-.8-.27-1.46 0-.65-.04-1.23-.14-1.5-.1-.24-.06-.26.03-.5z"/><path fill="#f5d9d9" d="M32.44 20.32c.18-.03 1.1.6 1.34.97.25.36.92 1.05.84 1.2-.1.15-.25.25-.1.6.14.36 1.08 1.92 1.25 2.2.17.26.7 1.47.73 1.75.02.27-.2.35-.2 1s-.2 1.43-.43 1.6c-.23.16-.63.77-.58.4.03-.38.1-.6.28-.97.17-.38.13-.54.17-.9.04-.36.1-1.76-.07-2-.16-.22-1.15-2.1-1.34-2.36-.18-.25-1.06-2.14-1.13-2.32-.05-.2-.53-.6-.64-.8-.1-.2-.27-.36-.12-.38z"/><path fill="#f5d9d9" d="M21.84 20.88c.17-.03.76.07.76.2 0 .1-.27.32.02.45.3.13.85-.1 1.12.04.28.13 1.13.24.9.63-.4.7-1.26.64-1.43.95-.16.32-.47 1.36-.86 1.37-.4 0-1.47-.24-2-.18-.52.06-1.54.52-1.6.24-.04-.28.2-.4.57-.5.38-.08 1.42-.6 1.76-.63.33-.03.95.26 1.26-.02.3-.28.4-.4.27-.68-.14-.28.34-.94-.16-.95-.28 0-.63.4-.83.5-.2.07-.45.03-.64.2-.2.15-.7.54-.9.63-.22.1-.8.3-.67.02.12-.3.6-.76.93-.92.34-.16.7-.34.8-.6.13-.25.4-.68.7-.75z"/><path fill="url(#K)" d="M65.73 29.6c.24-.04 1.54.3 1.97.5.43.2 1.67 1.27 1.97 1.4.3.1 1.8.64 1.24.76-.53.12-.9.06-1.57-.4-.68-.46-1.23-.54-1.75-.54-.5 0-1.4-.3-1.6-.82-.2-.5-.42-.85-.25-.9z" transform="translate(-50 5.286)"/><path fill="none" stroke="#cb696b" stroke-width=".5" d="M15.76 36.33c-.05-.06-.1-.12-.14-.18-.26-.42-.3-.9-.3-1.04-.03-.14-.18-.5-.07-1.33.04-.22-.14-.5-.14-.82 0-.33-.07-1 .26-2.06.82-2.7 1.32-3.02 1.33-3.3.02-.27-.04-.5.5-2 .52-1.5.93-1.17 1.17-1.54.24-.36.64-1.15 1.06-1.62.42-.48.9-.55 1.12-.8.22-.23.37-.53.78-.8.53-.33 1.24-.33 1.35-.46.1-.12.7-.9.9-1.04.16-.15.86-.07 1.08-.2.23-.12.32-.48.52-.53.2-.03 1.03.16 1.38.1"/><path fill="none" stroke="#994f51" stroke-width=".5" d="M22.8 38.13c-.25-.1-.42-.24-.42-.24-.75.1-1.7.13-2.23.05-.53-.07-1.32-.6-1.45-.58-.12.02-.58-.05-1.37-.3-.66-.2-1.25-.42-1.57-.74"/><path fill="none" stroke="#cb696b" stroke-width=".5" d="M26.4 40.48c-.3-.06-.43-.2-.8-.5-.34-.3-.7-.65-.84-.73-.13-.08-.35-.6-.6-.7-.24-.07-1.12-.33-1.36-.42"/><path fill="none" stroke="#994f51" stroke-width=".5" d="M26.56 18.7c.36-.07.2-.2.4-.25.18-.05 1.7.07 2 .13.3.06.8.3.95.3.17 0 .46 0 .75.1.3.07 2.23 1.02 2.55 1.2.32.17 1.1 1.04 1.4 1.4.37.1 1.06.43 1.25.54.2.12.96.9 1.07 1.18.1.27.06.6.2.85.12.24.2.4.23.6.03.2.03 1 .1 1.17.1.18.24.52.24 1.07 0 .53-.2 1.36-.27 1.8-.08.43-.45 1.15-.45 1.3 0 .17-.05.4-.15.53-.1.13-.12-.02-.22.35s-.43.85-.44.97c-.02.1-.03.27-.1.35-.06.08-.3.08-.3.23 0 .14.22.3.25.4.04.13.1.3.06.42-.03.1-.48.82-.7 1.2-.23.36-.8 1.05-.84 1.2-.04.17.06.25.06.5 0 .24.03.9-.05 1.12-.08.2-1.56 1.84-1.85 1.92-.3.07-1.9-.24-2.2-.17-.3.06-1.42.4-1.82.7-.4.28-1.07.67-1.34.7-.28.03-.77 0-.92-.05"/><path fill="none" stroke="#d97072" stroke-width=".5" d="M15.76 36.33c-.05-.06-.1-.12-.14-.18-.26-.42-.3-.9-.3-1.04-.03-.14-.18-.5-.07-1.33.04-.22-.14-.5-.14-.82 0-.33-.07-1 .26-2.06.82-2.7 1.32-3.02 1.33-3.3.02-.27-.04-.5.5-2 .52-1.5.93-1.17 1.17-1.54.24-.36.64-1.15 1.06-1.62.42-.48.9-.55 1.12-.8.22-.23.37-.53.78-.8.53-.33 1.24-.33 1.35-.46.1-.12.7-.9.9-1.04.16-.15.86-.07 1.08-.2.23-.12.32-.48.52-.53.2-.03 1.03.16 1.38.1"/><path fill="none" stroke="#994f51" stroke-width=".5" d="M26.56 18.7h-.02c-.3-.03-.5-.08-.64-.22-.15-.15-.1-.25-1.47-.53-1.38-.27-2.98-.44-5.1.36-2.1.8-2.1 1.13-2.34 1.26-.24.12-1.9.97-2.3 1.35-.4.4-.6.5-.7.66-.14.17-.2.45-.44.6-.23.15-1.5 1.4-1.9 2.03-.4.6-.53.94-.7 1.22-.18.27-.83 1-1.18 1.65-.35.65-.7 1.58-.7 1.82 0 .25.33.8.33.95 0 .15-.42.47-.44.67-.03.2.04.75.1 1.18.05.43.02.7.12.9.1.2.38.3.43.48.06.17.2.6.46.82.25.23.47.3.72.55.25.25.73.68 1.08.78.35.1.9 0 1.13.15.2.15 1 .92 1.36 1.05.38.13 1.18-.07 1.4-.1"/><path fill="#73d216" d="M15.73 36.86c-.45.16-1-.32-1.45-.3-.37-.12-1.15-.9-1.37-1.05-.22-.14-.77-.04-1.12-.14-.35-.1-.83-.52-1.08-.77-.25-.26-.47-.34-.72-.57-.25-.22-.4-.65-.45-.82-.05-.17-.33-.26-.43-.47-.1-.2-.07-.47-.12-.9-.06-.42-.13-.97-.1-1.17.02-.2.44-.53.44-.68 0-.15-.32-.7-.32-.95s.35-1.18.7-1.83c.35-.65 1-1.38 1.18-1.65.17-.28.3-.6.7-1.23.4-.62 1.67-1.88 1.9-2.03.23-.15.3-.43.43-.6.13-.18.33-.28.73-.66.4-.37 2.05-1.22 2.28-1.35.24-.13.26-.46 2.36-1.26 2.1-.8 3.7-.63 5.08-.35 1.38.26 1.33.36 1.93.45.65-.12 2.16 0 2.47.06.3.07.8.3.95.3.15 0 .44 0 .73.1.3.07 2.22 1.02 2.54 1.2.33.18 1.1 1.05 1.42 1.4.34.1 1.04.44 1.23.55.2.1.95.9 1.06 1.17.1.28.06.62.18.86.14.24.2.4.25.6.03.2.03 1 .1 1.17.1.18.23.5.23 1.06s-.17 1.38-.25 1.82c-.07.43-.44 1.16-.44 1.32 0 .16-.05.38-.15.5-.1.14-.12 0-.2.36-.1.38-.45.86-.47.97 0 .12-.03.28-.1.36-.06.08-.3.08-.3.22 0 .15.23.3.26.42.02.1.07.3.04.4-.03.12-.48.82-.7 1.2-.24.36-.82 1.06-.85 1.22-.04.15.06.23.06.47 0 .24.03.92-.05 1.13-.07.2-1.56 1.83-1.84 1.9-.3.1-1.9-.2-2.2-.15-.3.07-1.43.4-1.83.7-.4.28-1.06.67-1.83.47-.5-.24-.5-.2-.54 0-.04.2-.2.35-.52.35-.3 0-.52-.25-.85-.3-.35-.06-.42-.13-.53-.28-.1-.15.2-.38-.36-.8-.54-.4-1.02-1.13-1.34-1.25-.96.38-1.9.4-2.43.33-.53-.07-1.32-.6-1.45-.6-.13.03-.58-.04-1.37-.28-.65-.2-1.15-.32-1.47-.64z" opacity=".544"/></g><circle cx="9.953" cy="449.201" r=".676" fill="#9aff2e" stroke="#fff" transform="translate(0 -414.765)" opacity=".59"/><circle cx="14.018" cy="455.634" r="1.481" fill="#9aff2e" stroke="#fff" transform="translate(0 -414.765)" opacity=".59"/><circle cx="23.277" cy="448.746" r="2.593" fill="#9aff2e" stroke="#fff" transform="translate(0 -414.765)" opacity=".59"/><circle cx="35.145" cy="449.367" r=".691" fill="#9aff2e" stroke="#fff" transform="translate(0 -414.765)" opacity=".59"/><circle cx="38.832" cy="442.227" r="1.407" fill="#9aff2e" stroke="#fff" transform="translate(0 -414.765)" opacity=".59"/><circle cx="33.646" cy="438.82" r="1.259" fill="#9aff2e" stroke="#fff" transform="translate(0 -414.765)" opacity=".59"/><circle cx="38.536" cy="435.708" r="1.111" fill="#9aff2e" stroke="#fff" transform="translate(0 -414.765)" opacity=".59"/><circle cx="20.166" cy="432.154" r=".815" fill="#9aff2e" stroke="#fff" transform="translate(0 -414.765)" opacity=".59"/><circle cx="33.766" cy="448.822" r=".687" fill="#9aff2e" stroke="#fff" transform="translate(0 -414.765)" opacity=".59"/><circle cx="29.578" cy="453.861" r="1.486" fill="#9aff2e" stroke="#fff" transform="translate(0 -414.765)" opacity=".59"/><circle cx="39.054" cy="452.375" r=".741" fill="#9aff2e" stroke="#fff" transform="translate(0 -414.765)" opacity=".59"/><circle cx="38.921" cy="448.046" r="1.514" fill="#9aff2e" stroke="#fff" transform="translate(0 -414.765)" opacity=".59"/><circle cx="19.87" cy="455.117" r=".815" fill="#9aff2e" stroke="#fff" transform="translate(0 -414.765)" opacity=".59"/><path fill="url(#L)" fill-rule="evenodd" d="M7.3 12.02c4.32.95 9.83 1.1 13 .85 1.48.87 1.2.6 1.84 2.56V45.3C17.6 44.9 11.92 43.5 9.38 42l.05-26.86c.26-.96-.46-2.27-2.14-3.12z" color="#000" overflow="visible" enable-background="accumulate"/></g></svg>