<svg xmlns="http://www.w3.org/2000/svg" width="48" height="48"><defs><radialGradient id="a" cx="25.057" cy="143.685" r="24" gradientUnits="userSpaceOnUse" gradientTransform="matrix(1 0 0 .917 0 3.081)" fy="143.685" fx="25.057"><stop offset="0" stop-color="#709EC3"/><stop offset="1" stop-color="#fff" stop-opacity="0"/></radialGradient><linearGradient id="c" x1="27.851" x2="5.541" y1="122.728" y2="119.305" gradientUnits="userSpaceOnUse"><stop offset="0" stop-color="#72AB7C"/><stop offset=".944" stop-color="#fff"/></linearGradient><linearGradient id="b" x1="32.616" x2="4.273" y1="124.752" y2="118.096" gradientUnits="userSpaceOnUse"><stop offset="0" stop-color="#fff"/><stop offset=".095" stop-color="#F1F6F9"/><stop offset=".274" stop-color="#CDDDEA"/><stop offset=".497" stop-color="#98B9D4"/><stop offset=".922" stop-color="#fff"/></linearGradient><linearGradient id="e" x1="2.217" x2="40.444" y1="133.215" y2="158.328" gradientUnits="userSpaceOnUse"><stop offset="0" stop-color="#fff"/><stop offset=".042" stop-color="#F4F9F1"/><stop offset=".121" stop-color="#D6E9CD"/><stop offset=".229" stop-color="#A7CE92"/><stop offset=".36" stop-color="#65AA42"/><stop offset=".408" stop-color="#4C9C23"/><stop offset=".631" stop-color="#98B9D4"/><stop offset=".664" stop-color="#A4C1D9"/><stop offset=".818" stop-color="#D5E2ED"/><stop offset=".935" stop-color="#F4F7FA"/><stop offset="1" stop-color="#fff"/></linearGradient><linearGradient id="d" x1="-.369" x2="41.443" y1="131.814" y2="158.663" gradientUnits="userSpaceOnUse"><stop offset="0" stop-color="#fff"/><stop offset=".095" stop-color="#F1F6F9"/><stop offset=".274" stop-color="#CDDDEA"/><stop offset=".497" stop-color="#98B9D4"/><stop offset="1" stop-color="#fff"/></linearGradient><radialGradient id="f" cx="18.421" cy="119.61" r="29.102" gradientUnits="userSpaceOnUse" fy="119.61" fx="18.421" gradientTransform="matrix(.974 0 0 .974 .008 -107.671)"><stop offset="0" stop-color="#7FB348"/><stop offset="1" stop-color="#49802D"/></radialGradient><radialGradient id="g" cx="43.285" cy="130.887" r="2.444" gradientUnits="userSpaceOnUse" fy="130.887" fx="43.285"><stop offset="0" stop-color="#fff"/><stop offset=".192" stop-color="#F1F6F9"/><stop offset=".552" stop-color="#CDDDEA"/><stop offset="1" stop-color="#98B9D4"/></radialGradient><linearGradient id="i" x1="14.398" x2="46.082" y1="126.423" y2="126.423" gradientUnits="userSpaceOnUse"><stop offset="0" stop-color="#4C9C23"/><stop offset=".497" stop-color="#fff"/><stop offset=".567" stop-color="#F1F6F9"/><stop offset=".698" stop-color="#CDDDEA"/><stop offset=".86" stop-color="#98B9D4"/><stop offset="1" stop-color="#fff"/></linearGradient><linearGradient id="h" x1="13.765" x2="42.038" y1="129.268" y2="125.999" gradientUnits="userSpaceOnUse"><stop offset=".006"/><stop offset=".497" stop-color="#fff"/><stop offset=".567" stop-color="#F1F6F9"/><stop offset=".698" stop-color="#CDDDEA"/><stop offset=".86" stop-color="#98B9D4"/><stop offset="1" stop-color="#fff"/></linearGradient><radialGradient id="j" cx="28.875" cy="148.367" r="21.058" gradientUnits="userSpaceOnUse" fy="148.367" fx="28.875" gradientTransform="matrix(.974 0 0 .974 .008 -107.671)"><stop offset="0" stop-color="#224987"/><stop offset=".438" stop-color="#3065A0"/><stop offset=".45" stop-color="#3468A2"/><stop offset=".688" stop-color="#80A4C7"/><stop offset=".798" stop-color="#9EBCD5"/><stop offset="1" stop-color="#fff"/></radialGradient><radialGradient id="k" cx="20.687" cy="122.513" r="18.307" gradientUnits="userSpaceOnUse" fy="122.513" fx="20.687" gradientTransform="matrix(.974 0 0 .974 .008 -107.671)"><stop offset="0" stop-color="#224987"/><stop offset=".438" stop-color="#3065A0"/><stop offset=".45" stop-color="#3468A2"/><stop offset=".688" stop-color="#80A4C7"/><stop offset=".798" stop-color="#9EBCD5"/><stop offset="1" stop-color="#fff"/></radialGradient></defs><g><ellipse cx="25.057" cy="134.855" fill="url(#a)" transform="matrix(.974 0 0 .974 .008 -107.671)" ry="22.011" rx="24"/><g><g opacity=".8" transform="matrix(.974 0 0 .974 .008 -107.671)"><linearGradient x1="32.616" x2="4.273" y1="124.752" y2="118.096" gradientUnits="userSpaceOnUse"><stop offset="0" stop-color="#fff"/><stop offset=".095" stop-color="#F1F6F9"/><stop offset=".274" stop-color="#CDDDEA"/><stop offset=".497" stop-color="#98B9D4"/><stop offset=".922" stop-color="#fff"/></linearGradient><path fill="url(#b)" d="M4.6 119.4l-.48.18 1.02 2.82.47-.17c8.57-3.1 12.6-.9 15.82.84 2 1.08 4.05 2.2 6.55 1.52l4.9-.93s.25-3.93-.78-2.9c-1.04 1.04-4.9.92-4.9.92-1.35.35-2.55-.3-4.35-1.27-3.56-1.93-8.44-4.57-18.26-1.02zm17.77 1.9c1.7.92 3.06 1.63 4.58 1.42.1.33.16.58.26.97-1.88.3-3.48-.52-5.3-1.5-3.35-1.83-7.5-4.05-16.15-1.06-.13-.34-.2-.58-.34-.94 9.08-3.14 13.64-.7 16.97 1.1z"/></g><g opacity=".5" transform="matrix(.974 0 0 .974 .008 -107.671)"><linearGradient x1="27.851" x2="5.541" y1="122.728" y2="119.305" gradientUnits="userSpaceOnUse"><stop offset="0" stop-color="#72AB7C"/><stop offset=".944" stop-color="#fff"/></linearGradient><path fill="url(#c)" d="M4.93 120.35l.34.94c8.98-3.26 13.22-.96 16.62.9 1.98 1.06 3.7 2 5.8 1.42l-.25-.96c-1.73.47-3.2-.34-5.08-1.35-3.4-1.83-8.04-4.35-17.44-.95z"/></g></g><g><g opacity=".8" transform="matrix(.974 0 0 .974 .008 -107.671)"><linearGradient x1="-.369" x2="41.443" y1="131.814" y2="158.663" gradientUnits="userSpaceOnUse"><stop offset="0" stop-color="#fff"/><stop offset=".095" stop-color="#F1F6F9"/><stop offset=".274" stop-color="#CDDDEA"/><stop offset=".497" stop-color="#98B9D4"/><stop offset="1" stop-color="#fff"/></linearGradient><path fill="url(#d)" d="M.46 134l-.46.22 1.23 2.74.46-.2c1.75-.8 7.95-2.73 13.84 5.65 6.83 9.73 12.4 14.68 25.5 16.52l.5.07.42-2.98-.5-.07c-12.1-1.7-17-6.08-23.46-15.26C10.78 130.4 2.75 133 .46 134zm16.72 7.26c6.53 9.3 11.57 13.8 23.65 15.6-.05.35-.08.6-.14.98-12.38-1.85-17.77-6.66-24.34-16-5.92-8.43-12.24-7.1-14.62-6.2-.15-.32-.25-.55-.4-.9 2.55-1 9.46-2.55 15.84 6.52z"/></g><g opacity=".8" transform="matrix(.974 0 0 .974 .008 -107.671)"><linearGradient x1="2.217" x2="40.444" y1="133.215" y2="158.328" gradientUnits="userSpaceOnUse"><stop offset="0" stop-color="#fff"/><stop offset=".042" stop-color="#F4F9F1"/><stop offset=".121" stop-color="#D6E9CD"/><stop offset=".229" stop-color="#A7CE92"/><stop offset=".36" stop-color="#65AA42"/><stop offset=".408" stop-color="#4C9C23"/><stop offset=".631" stop-color="#98B9D4"/><stop offset=".664" stop-color="#A4C1D9"/><stop offset=".818" stop-color="#D5E2ED"/><stop offset=".935" stop-color="#F4F7FA"/><stop offset="1" stop-color="#fff"/></linearGradient><path fill="url(#e)" d="M.87 134.93l.4.9c1.94-.86 8.76-3 15.1 6 6.65 9.48 12.07 14.3 24.82 16.1l.12-1c-12.46-1.74-17.52-6.24-24.14-15.67-6.78-9.64-14.2-7.28-16.3-6.33z"/></g></g><path fill="url(#f)" d="M31.43 9.66c-.54-.65-.93-.63-1.35-.88-.44-.25-1.48-1.25-1.48-1.25.5.26 1 .8 1.45 1.88.44 1.1.7 1.2.96 1.35.27.14.12.48-.03 1.03-.15.56-.55.6-1.18.56-.64-.04-2.2-.26-2.94-.1-.74.13-2.18.65-2.18 2.17 0 1.53.9 1.45 1.48 1.45.6 0 2.04-.03 2.85-.03.82 0 1.3.5 1.53.8.22.3-.1.38-.26.9-.15.52-.37.77-.93.85-.55.07-.96-.37-1.48-.67-.5-.3-1.8-.74-2.48-.74-.66 0-.88-.48-1.4-.52-.52-.03-1.08-.92-1.44-1.18-.38-.26-.93-.67-1.85-.37-.94.3-1.64 1.2-1.42 2.9.22 1.72 1.37 2.12 2.04 2.23.66.1 1.7-.07 2.77.45 1.06.5.95.85.95 1.5 0 .68-2.1 1.24-3 .94-.88-.3-2.73-1.74-3.33-3.37-.6-1.63-1.77-2.96-2.4-3.62-.63-.67-2.8-.93-4.85-.15-2.03.77-3.26 2.85-3.26 4.18 0 1.33 1.5 4.14 2.27 4.25.1.03.2.05.27.08 0 0 .03.5.03.86 0 .7 1.18 2.6 1.85 2.74.66.15 1.88 0 2.18.04.3.03.44.37.5.56.18.47-1.3 1.8-2.02 2-.72.18-3.78.12-5.06-.13-1.28-.25-2.12-.6-2.78-.34-.65.26-1.03.6-1.53.98-.43.33-1.4 1.04-1.08 2.62.22 1.12 1.6 2.23 1.97 2.6.74.74 2.24.16 3.02.02.34-.06 1.3.35 1.93 1.38.63 1.03.9 1.4 1.04 1.8.1.42.24.6.86.9.62.33.84.42 1.2.73.33.32.5.9 2.42 2.22 1.1.76 4.5 3.16 4.5 3.16l1.1.25c-2.77-1.6-3.23-2.4-3.6-3.55-.35-1.13-2.17-1.45-1.58-2.36.6-.9.68-.18 1.18-.18.5 0 2.46-.96 3.1-1.46.63-.5 1.04-1.32.45-1.86-.6-.55-.32-1.1-.5-1.32-.18-.23-.5-.55-1.1-.64-.58-.1-.58.18-1.04.23-.46.05-2.28-1.27-2.78-2-.5-.72.77-1.5 1.38-1.97 1.64-1.28 2.83-1.26 4.04.2 1.22 1.47.6 1.68 1.88 2.54 1.26.86 3.7.6 4.5-.2.8-.82 1.77-2.23 1.72-3.1-.05-.86-.65-2.02-1.46-3.34-.8-1.3-.92-3.18-.05-3.8.86-.6 1.5-.75 2.48.06.97.8 1 1.88 3.1 1.76.94-.05 1.04-.95 1.96-1.16.86-.2 2.5-.26 2.64-.7.3-.93-.2-.77-.5-2.04-.3-1.26-1.42-1.52-2.33-2.12-.92-.6-2.24-1.47-2.28-1.98-.06-.66.24-1.16.65-1.47.4-.3.45.5 2.02-.1s2.03-.87 2.63-.92c.6-.05 1.02.05 1.32-.4.3-.46.6-1.88.3-2.33-.3-.46-.76-1.22-2.33-1.17-1.57.05-1.73.56-2.28.3-.56-.24-1.37-.5-1.47-1.46-.1-.96.76-.8 1.36-1C34.93 8.9 36 8.4 36 7.43c0-.97-.1-.92-.5-.96-.4-.06-.8.35-1.06.45-.26.1-.97-.05-1.37 0-.4.05-1.22.7-1.42 1.06 0 0-.2.37-.24 0-.08-.73-.43-1.46-.73-1.78-.54-.57-.6-1.06.3-1.47.92-.4 2.08-.7 2.08-1.36 0-.67.15-1.13-.4-1.63-.56-.5-1.02-.66-1.68.1-.65.76-1.2 1.42-1.36 2.23-.14.8-.25 1.06-.7.9-.46-.14-1.17-.55-1.77-.4-.6.15-.46.8-.05 1.07.4.25 1.52.4 1.97.4.46 0 .96.05 1.42.96.45.9.76 2 .76 2s.1.3.2.63z"/><path fill="none" stroke="#6dbf43" d="M31.53 2.35c-.68.78-1.1 1.3-1.2 1.9 0 .02-.02.06-.03.1.13-.1.22-.2.38-.26l.6-.25c.35-.15.94-.4 1.06-.54 0 0 0-.05 0-.1 0-.1 0-.2 0-.2 0-.1 0-.17 0-.24 0-.24-.04-.3-.18-.45-.23-.2-.32-.22-.33-.22 0 0-.1.04-.3.27zM13.47 31.2c-.9.22-4.12.12-5.38-.13l-.97-.2c-.65-.16-1.15-.28-1.42-.18-.43.16-.72.38-1.08.66l-.27.2c-.4.3-1.03.78-.8 1.9.13.72 1.06 1.58 1.5 2l.26.22c.33.32 1.24.1 1.85-.05l.54-.12c.38-.06.93.1 1.46.44M31.18 9.97c.06.06.1.1.16.12.35.2.54.53.54.9l-.14.75-.06.22c-.32 1.2-1.45 1.13-1.93 1.1 0 0-.63-.06-.63-.06-.62-.05-1.66-.15-2.1-.06-.6.12-1.6.47-1.6 1.47 0 .4.06.6.12.65.08.08.35.08.54.07.08 0 2.93-.03 2.93-.03.84 0 1.58.38 2.1 1.1.46.58.1 1.1 0 1.27l-.13.25c-.15.52-.47 1.23-1.53 1.37-.68.1-1.2-.26-1.6-.54l-.34-.22c-.46-.27-1.63-.64-2.1-.64-.6 0-.96-.24-1.2-.4l-.27-.12c-.63-.05-1.1-.57-1.5-1l-.3-.32c-.37-.25-.66-.45-1.22-.27-.72.22-1.04.98-.9 2.12.13.95.58 1.45 1.44 1.6 0 0 .6.03.6.03.62.02 1.48.04 2.37.47 1.3.63 1.4 1.26 1.38 2.02V22c0 .27-.1.67-.6 1.03-.75.54-2.38.9-3.36.58-1.13-.37-3.13-2-3.78-3.8-.4-1.08-1.13-2.2-2.25-3.37-.37-.38-2.23-.67-4.07.03-1.8.7-2.78 2.5-2.78 3.5 0 1.07 1.2 3.3 1.7 3.55.02.02.88.22.88.22l-.06.52.02.73M35.24 7.3c-.08.04-.56.3-.56.3s-1.04.08-1.04.08l-.52-.02c-.2.06-.76.5-.87.7-.1.2-.24.3-.37.38 0 .03.03.1.03.1m4.62 14.54c0-.02.02-.06.02-.06s-.1-.16-.1-.16l-.5-1.22c-.13-.62-.55-.87-1.27-1.26l-.74-.43-.13-.1c-1.5-.98-2.4-1.65-2.47-2.43 0-.06 0-.13 0-.2 0-.76.33-1.44.95-1.9.5-.38.95-.18 1.15-.1.16.08.36.17 1.06-.1l1.04-.4c.83-.35 1.25-.52 1.8-.56 0 0 .38-.02.38-.02l.37-.03c.2-.32.4-1.32.3-1.58-.28-.4-.56-.84-1.68-.8-.7.02-1.05.14-1.33.23-.34.1-.75.25-1.28 0l-.16-.06c-.4-.2-1.08-.48-1.46-1.13M16.53 43.24c-.12-.25-.4-.48-.7-.7-.34-.28-1-.77-1-1.46 0-.22.08-.47.26-.73.2-.32.48-.7.92-.78l.87.23c.34 0 2.06-.82 2.63-1.27.3-.23.45-.5.46-.65 0-.03 0-.05-.06-.1-.6-.56-.64-1.15-.66-1.47-.04-.08-.2-.24-.55-.3h-.13c-.07.03-.73.24-.73.24-.9.1-2.97-1.62-3.45-2.32-.84-1.2.6-2.27 1.28-2.78l.25-.18c1.25-.98 3.14-2 5.06.3.6.74.82 1.2.98 1.55.15.36.22.5.75.86 1 .7 3.05.42 3.58-.1.83-.83 1.55-2.03 1.52-2.54-.05-.77-.75-2-1.36-3-.95-1.54-1.12-3.88.15-4.78.88-.62 1.97-1.1 3.38.1l.74.8c.45.55.7.86 1.83.8"/><path fill="#456932" d="M30.18 9.7c-.66-.4-1.13-.32-1.38-.3-.25 0-.54.1-.95-.17-.42-.27-1-.83-1.22-1-.24-.17.06-.42.43-.7.37-.25 1.13-.37 1.54 0 .48.26 1 .8 1.44 1.88l.14.3z"/><path fill="#456932" d="M37.2 23.8c-.83.94-2.93 2.13-5.55 1.8l.95.07c.94-.06 1.04-.95 1.96-1.17.86-.2 2.5-.25 2.64-.7z"/><path fill="none" stroke="#223319" stroke-width=".5" d="M20.04 46.62c-3.72-2.86-5.87-3.7-6.98-5.82-.6-1.12-.97-2.98-.97-4.3 0-1.93 1.92-5.82 5.7-8.15 3.8-2.33 8.37-4.4 11.1-7.2 2.73-2.77 4.15-6.47 3.7-9.5-.46-3.04-.66-2.54-1.22-3.5"/><path fill="none" stroke="#223319" stroke-width=".5" d="M15.28 43.25c-1.84-1.4-2.1-1.9-2.43-2.2-.35-.33-.56-.42-1.2-.73-.6-.3-.74-.5-.86-.9-.14-.4-.42-.8-1.04-1.82-.63-1.03-1.6-1.44-1.94-1.37-.78.14-2.28.72-3.03-.03-.37-.36-1.76-1.47-1.98-2.6-.3-1.57.65-2.28 1.1-2.62.5-.37.87-.72 1.53-.97.65-.24 1.5.1 2.78.36 1.27.25 4.34.3 5.05.12.72-.2 2.2-1.52 2.03-2-.06-.2-.2-.52-.5-.56-.3-.04-1.52.1-2.18-.04-.67-.15-1.85-2.03-1.85-2.74 0-.37 0-.7 0-.7"/><path fill="none" stroke="#223319" stroke-width=".5" d="M31.53 9.78c-.6-.77-1-.74-1.45-1-.44-.25-1.48-1.25-1.48-1.25.5.26 1 .8 1.45 1.88.44 1.1.7 1.2.96 1.35.27.14.12.48-.03 1.03-.15.56-.55.6-1.18.56-.64-.04-2.2-.26-2.94-.1-.74.13-2.18.65-2.18 2.17 0 1.53.9 1.45 1.48 1.45.6 0 2.04-.03 2.85-.03.83 0 1.3.5 1.53.8.22.3-.1.38-.26.9-.15.52-.37.77-.93.85-.55.07-.96-.37-1.48-.67-.5-.3-1.8-.74-2.48-.74-.66 0-.88-.48-1.4-.52-.52-.03-1.08-.92-1.45-1.18-.37-.26-.92-.67-1.84-.37-.94.3-1.64 1.2-1.42 2.9.22 1.72 1.37 2.12 2.03 2.23.68.1 1.72-.07 2.8.45 1.06.5.95.85.95 1.5 0 .68-2.1 1.24-3 .94-.88-.3-2.73-1.74-3.33-3.37-.6-1.63-1.77-2.96-2.4-3.62-.63-.67-2.8-.93-4.85-.15-2.03.77-3.26 2.85-3.26 4.18 0 1.33 1.5 4.14 2.27 4.25.78.12 1.04.72 1.37 1.53"/><path fill="none" stroke="#223319" stroke-width=".5" d="M30.18 9.7c-.66-.4-1.13-.32-1.38-.3-.25 0-.53.1-.95-.17-.42-.27-1-.83-1.22-1-.23-.17.07-.42.43-.7.37-.25 1.13-.37 1.54 0"/><path fill="none" stroke="#223319" stroke-width=".5" d="M27.08 5.67c-.4-.25-.56-.9.05-1.06.6-.15 1.32.26 1.77.4.46.16.56-.1.7-.9.16-.8.72-1.47 1.38-2.23.65-.76 1.1-.6 1.67-.1.55.5.4.96.4 1.62 0 .65-1.16.95-2.07 1.36-.92.4-.85.9-.3 1.46.3.32.64 1.06.7 1.77.04.38.25 0 .25 0 .2-.36 1.02-1.02 1.42-1.07.4-.05 1.1.1 1.37 0 .25-.1.65-.5 1.06-.45.4.05.5 0 .5.96S34.93 8.9 34.33 9.1c-.6.2-1.47.06-1.37 1.02.1.96.9 1.22 1.47 1.47.55.24.7-.26 2.27-.3 1.56-.06 2.02.7 2.32 1.15.3.46 0 1.87-.3 2.33-.3.45-.7.35-1.32.4-.6.05-1.06.3-2.63.92-1.57.6-1.62-.2-2.02.1-.4.3-.7.8-.66 1.47.03.5 1.35 1.36 2.27 1.97.9.6 2.02.86 2.32 2.13.3 1.26.8 1.1.5 2.02-.15.45-1.78.5-2.64.7-.92.22-1.02 1.1-1.97 1.16-2.1.12-2.13-.96-3.1-1.77-.95-.82-1.6-.67-2.47-.06-.86.6-.76 2.48.05 3.8.8 1.3 1.4 2.48 1.47 3.34.05.86-.92 2.28-1.73 3.1-.8.8-3.24 1.05-4.5.2-1.27-.87-.66-1.07-1.87-2.54-1.22-1.47-2.4-1.5-4.05-.2-.6.47-1.88 1.24-1.38 1.97s2.32 2.05 2.77 2c.45-.04.45-.3 1.04-.22.6.1.9.4 1.1.64.17.23-.1.77.5 1.32.58.54.17 1.36-.46 1.86-.64.5-2.6 1.46-3.1 1.46s-.6-.73-1.18.18c-.6.9 1.23 1.23 1.6 2.37.36 1.14.8 1.96 3.6 3.56"/><path fill="none" stroke="#3b592b" stroke-width=".5" d="M31.43 9.66c-.13-.44-.2-.63-.2-.63s-.3-1.08-.76-2c-.46-.9-.96-.96-1.42-.96-.45 0-1.57-.15-1.97-.4"/><path fill="none" stroke="#6dbf43" stroke-width=".5" d="M12.28 40.65c-.74-.9-1.24-2.33-1-4.9.22-2.57 2.2-4.6 3.65-5.77 1.44-1.16 5.65-3.58 6.78-4.24 1.14-.66 6.8-4.2 7.8-5.77.88-1.37 1.57-2.02 1.8-3.07.24-1.24 1-3.33.6-5.22-.18-.93-.35-1.6-.47-2.02"/><path fill="none" stroke="#223319" stroke-width=".5" d="M37.2 23.8c-.83.94-2.93 2.13-5.55 1.8"/><path fill="none" stroke="#223319" stroke-width=".5" d="M7.75 36.2c.92-.2 2.27-.5 2.9-.06"/><path fill="none" stroke="#3b592b" stroke-width=".5" d="M12.83 40.27c.78.63 1 .78 1.28 1.32.3.52.94 1.7 1.5 1.93"/><circle cx="43.285" cy="130.887" r="2.444" fill="url(#g)" stroke="#fff" stroke-width="1.027" transform="matrix(.974 0 0 .974 .008 -107.671)"/><circle cx="28.353" cy="137.894" r="1.215" fill="none" stroke="#fff" stroke-width="1.027" transform="matrix(.974 0 0 .974 .008 -107.671)"/><circle cx="20.136" cy="141.199" r=".888" fill="none" stroke="#fff" stroke-width=".719" transform="matrix(.974 0 0 .974 .008 -107.671)"/><circle cx="8.418" cy="138.897" r=".514" fill="none" stroke="#fff" stroke-width="1.027" transform="matrix(.974 0 0 .974 .008 -107.671)"/><g opacity=".7"><g opacity=".8" transform="matrix(.974 0 0 .974 .008 -107.671)"><linearGradient x1="13.765" x2="42.038" y1="129.268" y2="125.999" gradientUnits="userSpaceOnUse"><stop offset=".006"/><stop offset=".497" stop-color="#fff"/><stop offset=".567" stop-color="#F1F6F9"/><stop offset=".698" stop-color="#CDDDEA"/><stop offset=".86" stop-color="#98B9D4"/><stop offset="1" stop-color="#fff"/></linearGradient><path fill="url(#h)" d="M44.15 120.5c-.84 3.23-2.98 5.83-6.2 7.5-5.72 2.98-13.83 2.76-22.85-.6l-.47-.18-1.05 2.8.47.2c9.83 3.65 18.8 3.82 25.27.45 4-2.1 6.68-5.34 7.73-9.4l.13-.5-2.9-.74-.13.48zm.8.73c.32.1.57.15.96.25-1.06 3.56-3.45 6.43-7.03 8.3-6.1 3.18-14.62 3.04-24-.35.14-.36.23-.6.35-.94 9.1 3.3 17.33 3.44 23.18.4 3.32-1.74 5.55-4.4 6.54-7.67zm-6.55 7.66z"/></g><g opacity=".8" transform="matrix(.974 0 0 .974 .008 -107.671)"><linearGradient x1="14.398" x2="46.082" y1="126.423" y2="126.423" gradientUnits="userSpaceOnUse"><stop offset="0" stop-color="#4C9C23"/><stop offset=".497" stop-color="#fff"/><stop offset=".567" stop-color="#F1F6F9"/><stop offset=".698" stop-color="#CDDDEA"/><stop offset=".86" stop-color="#98B9D4"/><stop offset="1" stop-color="#fff"/></linearGradient><path fill="url(#i)" d="M38.4 128.9c-5.96 3.1-14.36 2.9-23.65-.57l-.35.94c9.56 3.57 18.25 3.75 24.47.5 3.74-1.94 6.23-4.97 7.2-8.76l-.95-.24c-.9 3.5-3.23 6.32-6.72 8.13z"/></g></g><path fill="url(#j)" d="M48.04 31.57c.46 3.37-.27 5.85-.27 5.85-4 .82-10.55.9-15.37-1.82l-1.28 5.3-6.1-11.03 10.83-4.23-1.54 4.87c3.28.28 8.1-.9 11.56-4.45 0 0 1.75 2.32 2.18 5.52z"/><path fill="none" stroke="#fff" stroke-width=".7" d="M47.63 36.7c-4 .82-10.3.86-14.87-1.73l-.8-.45-1.07 4.6c-1.15-1.87-4-7.6-4.74-8.8L34.6 27l-1.38 4.15 1.03.08c3.23.28 8.35-.8 12.14-4.67"/><path fill="none" stroke="#153159" stroke-width=".5" d="M47.77 37.42c-4 .82-10.55.9-15.37-1.82l-1.28 5.3-6.1-11.03 10.83-4.23-1.54 4.87c3.28.28 8.1-.9 11.56-4.45"/><path fill="url(#k)" d="M3.96 3.73C3.32 6.08 4.5 8 4.5 8c2.42-.98 6.3-2.3 9.7 1.03l-1.94 3.33 9.07-.97-2.9-9.02-2.1 3.33C14.9 3.9 10.34.87 5.74 1c0 0-1.23.73-1.77 2.73z"/><path fill="none" stroke="#153159" stroke-width=".5" d="M4.5 8C6.9 7 10.8 5.7 14.2 9.02l-1.94 3.33 9.07-.97-2.9-9.02-2.1 3.33C14.9 3.9 10.34.87 5.74 1"/><path fill="none" stroke="#bfe3ff" stroke-width=".7" d="M5.76 1.72c4.38-.13 8.75 2.88 10.02 4.45l.64.8s1.2-1.9 1.8-2.87c.6 1.84 1.77 5.5 2.14 6.66-1.2.13-4.95.53-6.75.72.58-.97 1.5-2.57 1.5-2.57l-.4-.4C10.8 4.7 6.2 6.54 4.23 7.33"/></g></svg>