<svg xmlns="http://www.w3.org/2000/svg" width="48" height="48" xmlns:xlink="http://www.w3.org/1999/xlink"><defs><radialGradient cx="1605.673" cy="1675.435" r="26.715" gradientUnits="userSpaceOnUse" gradientTransform="matrix(-1 0 0 1 1624.84 -1655.907)" fy="1675.435" fx="1605.673"><stop offset="0" stop-color="#fff"/><stop offset=".064" stop-color="#FDEED5"/><stop offset=".172" stop-color="#FBD395"/><stop offset=".262" stop-color="#F9BF66"/><stop offset=".331" stop-color="#F7B349"/><stop offset=".371" stop-color="#F7AF3E"/><stop offset=".691" stop-color="#EF7916"/><stop offset="1" stop-color="#A65416"/></radialGradient><radialGradient cx="1476.977" cy="1690.262" r="20.142" gradientUnits="userSpaceOnUse" gradientTransform="matrix(-.996 -.094 -.094 .996 1654.682 -1545.643)" fy="1690.262" fx="1476.977"><stop offset="0" stop-color="#fff"/><stop offset=".064" stop-color="#FDEED5"/><stop offset=".172" stop-color="#FBD395"/><stop offset=".262" stop-color="#F9BF66"/><stop offset=".331" stop-color="#F7B349"/><stop offset=".371" stop-color="#F7AF3E"/><stop offset=".691" stop-color="#EF7916"/><stop offset="1" stop-color="#A65416"/></radialGradient><radialGradient cx="634.36" cy="1723.128" r="10.074" gradientUnits="userSpaceOnUse" gradientTransform="matrix(.959 .283 -.283 .959 -99.24 -1830.233)" fy="1723.128" fx="634.36"><stop offset="0" stop-color="#fff"/><stop offset=".064" stop-color="#FDEED5"/><stop offset=".172" stop-color="#FBD395"/><stop offset=".262" stop-color="#F9BF66"/><stop offset=".331" stop-color="#F7B349"/><stop offset=".371" stop-color="#F7AF3E"/><stop offset=".691" stop-color="#EF7916"/><stop offset="1" stop-color="#A65416"/></radialGradient><radialGradient cx="263.111" cy="1664.644" r="5.507" gradientUnits="userSpaceOnUse" fy="1664.644" fx="263.111"><stop offset="0" stop-color="#fff"/><stop offset=".064" stop-color="#FDEED5"/><stop offset=".172" stop-color="#FBD395"/><stop offset=".262" stop-color="#F9BF66"/><stop offset=".331" stop-color="#F7B349"/><stop offset=".371" stop-color="#F7AF3E"/><stop offset=".691" stop-color="#EF7916"/><stop offset="1" stop-color="#A65416"/></radialGradient><linearGradient x1="261.09" x2="263.681" y1="1669.586" y2="1667.567" gradientUnits="userSpaceOnUse"><stop offset=".006" stop-color="#F7AF3E"/><stop offset="1" stop-color="#994410"/></linearGradient><linearGradient x1="261.373" x2="266.339" y1="1664.008" y2="1665.902" gradientUnits="userSpaceOnUse"><stop offset=".006" stop-color="#F7AF3E"/><stop offset="1" stop-color="#994410"/></linearGradient><radialGradient id="d" cx="634.36" cy="1723.128" r="10.074" xlink:href="#a" gradientUnits="userSpaceOnUse" gradientTransform="matrix(1.001 .295 -.295 1.001 -104.582 -1910.411)" fx="634.36" fy="1723.128"/><radialGradient id="c" cx="1476.977" cy="1690.262" r="20.142" xlink:href="#a" gradientUnits="userSpaceOnUse" gradientTransform="matrix(-1.039 -.098 -.098 1.039 1725.187 -1613.514)" fx="1476.977" fy="1690.262"/><radialGradient id="b" cx="1605.673" cy="1675.435" r="26.715" xlink:href="#a" gradientUnits="userSpaceOnUse" gradientTransform="matrix(-1.043 0 0 1.043 1694.054 -1728.547)" fx="1605.673" fy="1675.435"/><radialGradient id="a" cx="263.111" cy="1664.644" r="5.507" fx="263.111" fy="1664.644" gradientUnits="userSpaceOnUse"><stop offset="0" stop-color="#fff"/><stop offset="1" stop-color="#5e5e5e"/></radialGradient><radialGradient id="g" cx="263.111" cy="1664.644" r="5.507" xlink:href="#a" gradientUnits="userSpaceOnUse" fx="263.111" fy="1664.644" gradientTransform="matrix(1.043 0 0 1.043 -242.745 -1728.547)"/><linearGradient id="f" x1="261.09" x2="263.681" y1="1669.586" y2="1667.567" xlink:href="#a" gradientUnits="userSpaceOnUse" gradientTransform="matrix(1.043 0 0 1.043 -242.745 -1728.547)"/><linearGradient id="e" x1="261.373" x2="266.339" y1="1664.008" y2="1665.902" xlink:href="#a" gradientUnits="userSpaceOnUse"/></defs><g><path fill="#555" d="M28.93 2.68l-.58 1.02-.75.24-.42.16-.06.32-.65.2s-.56.4-.62.43c-.06.04-1.1 1-1.1 1l-.35 1.03-.2.5-.12-.6.25-.86.6-.8 2.7-1.93 1.3-.72z"/><path fill="none" stroke="#555" stroke-width="1.5" d="M40.4 9.54c-.7-3.8-3.1-7.1-6.46-8.94l1.1 1.18.7.76.86.48.32.47.3.6 1.25 1.55.56.7.2.83.36.22.14.7.14.86.13.54.4.04z"/><path fill="#555" d="M36.13 3v.35l.4.44.54.74.68 1.04.85.28.47.98.13.5.26.38.35.53-.06 1.22.27.03v-.8l-.33-1.46-.7-1.17-2.1-2.97L33.95.6 35 2.56z"/><path fill="none" stroke="#555" stroke-width="2" d="M14.4 10.25C8.57 13.65 4.65 20 4.65 27.23c0 10.84 8.8 19.63 19.64 19.63 10.83 0 19.62-8.8 19.62-19.63 0-4.35-1.4-8.37-3.8-11.63l-1.62-1.25s-.43-.23-.46-.52l-.77-.32-1.74-.74-1.9-.1h-.6l-.8-.6-.35.15-.32-.32-1.43-.06-.23.45-.74-.03-.3-.57c-.42 0-1.16.4-1.16.4-.23-.35-1.22-.62-1.22-.62l-1.58.02c-.68-.32-1.8-.33-2.55-.36l-1.62-.4-1-.44-1.08-.2-.93-.12-1 .23-1.73.2-.6-.12z"/><path fill="url(#b)" d="M14.4 10.25C8.57 13.65 4.65 20 4.65 27.23c0 10.84 8.8 19.63 19.64 19.63 10.83 0 19.62-8.8 19.62-19.63 0-4.4-1.44-8.45-3.87-11.72l-1.74-1.1-1-.62-2.23-1.22-1.43.36-.8.1-.54-.55-.53.3-.38-.4h-1l-.26.3-1.17-.07-.32-.47-7.94-1.1-1.22-.54-.6-.54-1 .13-.62.34-.52.2-2.34-.4z"/><path fill="url(#c)" d="M40.4 9.54c-.7-3.8-3.1-7.1-6.46-8.94l1.1 1.18.7.76.86.48.32.47.3.6 1.25 1.55.56.7.2.83.36.22.14.7.14.86.13.54.4.04z"/><path fill="none" stroke="#555" stroke-width="1.5" d="M20.9 2.4l1 .07.5-.1c.54.02 1.67-.14 2-.2.3-.07 2-.75 2-.75s.87 1.84.82 2.03c-.06.2-1.1.56-1.37.72-.27.17-2.42 1.7-2.55 1.83-.13.14-.64.78-.7.88-.04.1-.23.88-.23.88l.13.58c-.1.13-.18.36-.18.36l-.37-1.02.02-.22-.42-.42-.67-1.26-.4.4-.25-.43-.38-.38.48-.58.2-.7.2-.76-.06-.6.22-.33z"/><path fill="url(#d)" d="M20.9 2.4l1 .07.5-.1c.54.02 1.67-.14 2-.2.3-.07 2-.75 2-.75s.87 1.84.82 2.03c0 0-1.1.56-1.37.72-.27.17-2.42 1.7-2.55 1.83 0 0-.54.83-.54.83l-.26.83v.68c-.1.13-.18.36-.18.36l-.37-1.02.02-.22-.42-.42-.67-1.26-.4.4-.25-.43-.38-.38.48-.58.2-.7.2-.76-.06-.6.22-.33z"/><path fill="none" stroke="#555" stroke-width="1.5" d="M30.4 9.36c-.12.17-.1.86-.17.93.32.22.65.94.78 1.15.14.2.72 1.14.72 1.14s1.47.02 1.62.06c.15.04.93.24.93.24s.02-1.04.13-1.28c.12-.25.6-1.08.66-1.42.05-.33.22-1.06.26-1.12.04-.05.18-.3.18-.3L33.7 7.1l-1.05.44-.8.6h-.13l-1.3 1.22z"/><path fill="url(#e)" d="M265 1663.7l1.7 1.6-.68.78-4.18-.2 1.25-1.2.1.03.78-.58z" transform="matrix(1.043 0 0 1.043 -242.745 -1728.547)"/><path fill="url(#f)" d="M31.27 9.2s-.72 0-.86.16c-.12.17-.1.86-.17.93.32.22.65.94.78 1.15.14.2.72 1.14.72 1.14s1.47.02 1.62.06c.15.04.93.24.93.24s.02-1.04.13-1.28c.12-.25.6-1.1.66-1.42.05-.34.22-1.06.26-1.12.04-.05.18-.32.18-.32l-.52.42h-3.7z"/><path fill="url(#g)" d="M31.27 9.2s1.5-.98 2.03-1.55c0 0 .8.72.9.72.1 0 .52-.3.52-.3.1.25.26.96.22 1.05-.04.1-.07.48-.07.7 0 .2-.32 1.22-.45 1.37-.13.14-.63.7-.63.8-.16-.27-.4-1.2-.4-1.2l-.47-.14s-.84.02-.9-.16c-.1-.2-.27-.77-.35-.86-.07-.1-.4-.45-.4-.45z"/><path fill="#555" d="M16.64 29.93l-1.64-.2-2-1.04-1.16-.85L13 28.92l2.6 1.4.54.68-.38.77L14.9 33s.7-.62 1.1-.92c.38-.3 1.22-1.54 1.6-1.77.4-.22 1.02-.37 1.4-.38l.5.6.7-.17c.5-.3 1.03-.8 1.33-.8.27 0 .8-.75 1.33-.98.54-.23 1.28-.57 1.28-.57s-.6.15-.8.2c-.23.05-.7.32-.96.5-.28.2-.8.54-.8.54s-.52-.07-.63-.07c-.12 0-.67.58-.88.58 0 0-.6-.26-.73-.33-.14-.07-.37.05-.9-.27-.2-.12-.53 0-.74-.07l-.3-.46c.02-.1.2-.83.16-.97l-.6-.72c.23.33.32.86.32.86l-.13.38c-.37-.33-.53-.2-.97-.5l.8.64-.1.46.15.4-.4.75z" opacity=".8"/><path fill="#464646" d="M17.26 29.35l-.02-.7.25.54.3.2.6-.1.98.26.67.42.7-.46.56-.2h.27l-.55.26-.65.5-.83.27-.5-.58-.5.07-1.44.4-.72 1.23-.7.58.63-1-.06-.47-1.03-.67 1.44.2z" opacity=".8"/><path fill="#994410" d="M37.42 27.4l-.03.1c0-.04.02-.07.02-.1z" opacity=".8"/><path fill="#555" d="M43.63 31.95l-1.43.48-.26-.3s-.3.34-.68.34c-.38 0-1.14.17-1.43.05-.3-.13-.47-.98-.47-.98l-.76-.42-.88-.97-.72-.85.08-.97.34-.93-.2-.27c-.12.25-.77 2.1-.7 2.43.1.33.44 1.8.52 2.15.08.35.2.9.2.9l-.63.88s-.14 1.1-.26 1.2c-.4.35-1.75.52-1.92.52 0 0-.68-1.12-.72-1.3-.04-.16-.55-1.34-.84-1.5-.3-.18-1.74-.48-1.74-.48l-1.35.1-.42.07-.42-.73s.08-1.22.25-1.52c.17-.3 1-1.6 1.35-1.94.34-.33 1.06-1.5 1.14-1.64.1-.13 2.07-1.14 2.07-1.14l1.14.3s-.16.46.05.54c.2.1 1.26.6 1.52.72.25.13.97.72.97.72l.6.38s.2-1.06.2-1.27c0-.2.55-1.26.55-1.26l.5-.8.73-.3.08-.6.34-.62.63-.84-.7.6-.48.96-.76.08-.4.84-1.7.47-.68.43-.63-.3-.6-.42c-.4 0-1.44-.05-1.78 0-.34.04-2.37 1.48-2.37 1.48s-.93.93-.93 1.18c0 .25.1.6-.12.6-.2 0-.5.08-.68.24-.17.17-.38.43-.5.55-.13.12-.6.42-.6.42l.1.63-.52.72-.25.76v.84l-1.36.85-.72.9-.17.37-.46.07-.6.55.6-.3.3.05.34-.1.54-.96.47-.12h.58l.85-.5.3-.6.33.26.67-.34 1.06-.04.96.08.1.5.8-.24c.3.04 1.34 1.56 1.34 1.56l.5 1.24c0 .17 1.03.2 1.03.2l1.13-.26.94.42.3.4-.52.66-.5.42.3.47c0 .06-.18.7-.18.7 0 .24.26 1.17.26 1.42s-.76 2-.76 2-.42.87-.64 1.04c-.2.17-.6.17-.76.34-.16.17-.42.76-.63.9-.2.12-2.2.96-2.2.96s.93-.17 1.27-.3c.34-.12.5-.38.68-.38.17 0 .12.22.12.22s.85-.22 1.44-.68c.04-.34-.68-.3.8-1.27.6-.33.47-.8.64-1.14.12-.37.34-.92.38-1.13.04-.2-.1-.55-.1-.9 0-.33-.28-.75-.2-.96.1-.2.72-.84.8-1.1h-.42l.1-.28.75-1.06.55-.1.7-.92.4.3s.5.38.54.6c.05.2.64 1.4.64 1.4l.12.5 1.15-1.77s-.85.35-.85.14c0-.2-.34-.14-.34-.4 0-.25-.46-.97-.46-1.1 0-.12 1.05-1.56 1.05-1.56.3-.3.77-.5 1.02-.5s.9-.13.9-.13l.28-.55zm-6.46-6.6c.1 0 .63-.05.76-.1.13-.07.4-.13.4-.13s-.43.73-.55.85c-.12.12-.56.63-.7.54-.12-.08-.6-.56-.6-.56s.6-.56.7-.58zm-9 6.13l-.42.44-.03-.6.24-.5.22.2-.02.46zm1.17-2.95l.37-.24.25.08-.4.75-.25-.3.04-.3zm-.82.82l.58-.56.24.5-.65.63-.18-.58zm2.9 3.24l-.1-.47.64.05.24.17-.77.24zm1.63.84l-.56-.85.45.1.5 1.03-.4-.3zm5.05-1.9h-.38l-.34-.16-.07-.38.64.07.16.46zm-1.06-.98l-.22-.34.07-.3h.3l.66.95-.82-.3zm.34 2.63l.25-.47-.26-1 .94.15s1.18.92 1.44 1.05c.25.12 1.78-.2 1.78-.2s-.92.8-1.22 1.78c0 0-1.46-.64-1.7-.64-.26 0-1.64-.37-1.64-.37l.42-.3zm.9 2.37c-.05.05-.58.1-.58.1l-.63-.4h-.7l-.1-.2 1.6-1.02s.88.38.92.54c.02.15-.46.9-.52.97z" opacity=".8"/><path fill="#555" d="M22.23 45.08l.14-.15s-.56.2-1 .17c-.47-.04-1.74-.5-1.74-.5l-1.06-.4h-.52l-.12-.2.18-.28.43-.74.57-.1h.4l1.05.38.52.42.04.34.68.4.3-.03c-.03-.13-1.12-1-1.12-1h.6l.02-.1s-.9-.2-1.06-.22c-.15-.02-1.06-.6-1.2-.73-.13-.1-.7-.22-.9-.26-.2-.07-.9-.17-.9-.17l-1.04.1-.1.24-.25.15-.5-.15-1.42.17c-.08 0-.85-.52-1.05-.66-.2-.13-.52-.13-.7-.25-.2-.12-.5-.5-.7-.66-.23-.16-2.07-1.7-2.07-1.7l-.08.14 1.88 1.62.32.56s-.38.3-.64.35c0 0 .5.47.85.66l.4-.38 1.32 1.03c.52.25 1 .28 1.33.43.32.15 1.04 1.2 1.04 1.2h.13l.07-.36.28.25.9-.05s.5-.13.8-.06c1.83.5 3.72.82 4.27.8l-.32-.28zm-8.66-2.37l-.78-.6v-.24l.93.64.78.62-.93-.4zm3.1 1.57l-.8-.35-.86-.75.54.1.3-.24.96 1.06.75.22-.87-.05zm.35-.45c-.3-.02-.77-.9-.93-1-.16-.08-.58-.2-.58-.2.66.07 1.45-.28 1.87-.3.4-.02.95.12 1.07.24 0 0-.3.2-.44.35-.14.16-.73.94-1 .92z" opacity=".8"/><path fill="#555" d="M23.68 35.67l.17-.3.22-.26-.3.08-.38.75-.35-.2-.1.8-.75.23-1.04 1.06-.8.1-.67.2-.55.45-.75-.12-1.1-.22-1.03-.7v-.3l-.82-.98-.14-.3.15-.36-.56-.77-.28-.64.3-.66-.36.05-.16.2h-.32l-.08-.23h-.8l.68.36.2.36.45.55.15.48-.24.48.04.16.37-.3.22.03v.26l.33.5.34.66.46.53-.07.22.07.24.58.04v.3l-.14.35.22-.1.24-.27.46.3.58.04.85.2.42.26v.33l.2.34.6-.34.8.27s1.74-.05 2.3-.12l.07-.1-.76-.08v-.58l-.68-.05-.43-.35-.58-.32.6-.58.5-.22.8-.48.4-.17-.6 2.15v.6l.82-2.82-.08-.38.26-.48.02-.17zm-2.44 3.2l.53.1.2.23.45.12.05.27h-.85l-.38-.4v-.34zm-.05.57l-.6-.07-.43-.22-.3-.46.6-.5.33.83.4.4z" opacity=".8"/><path fill="#555" d="M6.38 22.57l.14.4.55.48h.7l1.5.96.56.9-.18.22-.83-.1-.65-.54H7.7l.52.22.55.6.88.2.46.4.06-.27-.14-.28.27-.32.4.6.33 1 .5.56v-.28l-.3-.46-.57-1.3-.04-.46.37.1 1.7.87.9.56 1.77.83-.47-.46-.7-.3-2.2-1.13-.82-.68-.12.08-.5-.05-.32-.5-.05-.63-.18-.23-.13.1.1.22-.08.27-.33-.03-.37-.3-.07-.55-.3-.45-.1.05.14.36-.08.5-.45-.1-.78-.38-.27-.35.15-.25.35-.05-.1-.14-.07-.26-.07-.3h-.62l.07.28-.3.08-.3-.33-.03-.43-.18-.24-.25-.14-.37.14-.33.1-.08.16.42-.1z" opacity=".8"/><path fill="#555" d="M6.3 27.5h.73l.08.16h.3l.15-.3-.26-.4v-.5l.07.3.14.3.3.44.27.78s.38.58.55.74c.18.16.7.36.7.36l.34.48h.36v.28l-.26.28-.22-.18-.44-.5-.57-.32-1.14-.36-.17.14.4.48-.58-.42-.36-.18-.4-.54-.57-.22-.4-.26-.24-.54-.07-.62-.06-.56-.42-.58.32.12.42.72v.66l-.03.38.4.44s1.08.54 1.26.64c.18.1.48.02.48.02l-.25-.4-.32-.2v-.38l-.52-.26z" opacity=".8"/><path fill="#555" d="M19.27 40.48l.03.5.28.32-.02.46v.42l.02.33.16-.43-.05-.7.1-.35-.2-.12-.02-.4.16-.46.02-.44-.23-.05-.02.8z" opacity=".8"/><path fill="#555" d="M24.46 45.27h1.68l.1-.4.03-.45.1.5v.38h.17l.06-.57.26.34.35.2.84-.12.85-.27-.03.18-.63.16-.26.1.95-.05 1.3.1.8-.3.62.06s-.98.94-2.14 1.35c-1.16.4-3.36.47-4.26.48l.02-.57 1.1-.1.47-.14.3-.25-.25-.18-.6-.1.1-.14h-1.3l-1.1-.16.48-.05z" opacity=".8"/><path fill="#555" d="M20.63 46.34l.8-.06v-.13l.88-.06 1.37.03.1.2h.8l.95.2.04.33s-1.72.28-2.54.2c-.8-.07-2.64-.43-2.64-.43l.25-.3z" opacity=".8"/><path fill="#555" d="M27.1 29.5l-.35-.27-1.2-.35-.32-.33-.3.24h-.56s-.2.2-.56.32c.24-.12.4-.4.6-.5.2-.13.27-.3.27-.3h-.4l-.1-.2h-.2l.25-.16s-.03-.63.15-.7c.18-.1.4-.43.54-.37.15.05.2.3.48.3.27 0 .86-.58.95-.58.1 0 1.57-.74 1.9-.95.33-.2.7-.56.7-.56l.46-.17s.6-1.16.73-1.5c.12-.37.44-1.47.5-1.53.06-.06.6-.12.6-.12l.26.12.35-.53s-.1-.65 0-.7c.1-.07.4-.16.4-.3.04-.16-.07-1.2 0-1.34.1-.15.9-1.22.85-1.4 0 0 .35-.1.44-.2l-.24.73V19s-.65 1.42-.77 1.57c-.12.15-.38.32-.44.4-.07.1-.55 1.26-.7 1.5-.15.24-1.4 2.2-1.45 2.43-.06.24-.06 1.5-.06 1.5s.05.45.05.6c0 .15.07.4.07.4l.12.65-.85.23.02-.77s.22-.62.22-.8c0-.17-.03-.7-.03-.85h-.2l-.42.2-1.43.96s-2.04.9-2.07 1.05c-.03.15-.12.35.1.47.2.12.6.15.6.15l.5.18.7.18.53-.06v.2l-.64-.03-.06.36z" opacity=".8"/><path fill="#555" d="M13.9 10.3s4.2-.64 4.37-.64c.15 0 1 .36 1 .36s.3.07.68.2c.36.13.93.4 1.35.4.4 0 1.58.14 1.8.14.2 0 2.43.47 2.62.52.18.06 1.12.24 1.12.24l.8.3.36.06.37-.13.5-.07.38.44.73-.03.03-.27 1.77.1.2.2h.32s.67.56.9.53c.24-.02.86-.28 1.07-.3.2-.03.84.2.95.22.25.07 2.42 1 2.42 1s.47.33.73.46 2.1 1.63 2.2 1.8c-.35-.12-1.07-.06-1.07.5-.5-.7-.97-.97-.97-.97s-.53.05-.63-.1c-.1-.16-.54-.54-.54-.54l-.2.17.23.67-.32-.33-.2-.68-.5-.18s-.34 0-.42-.06c-.08-.05-.7-.16-.8-.06-.1.1-.53.46-.65.72-.13.26-.2.54-.2.54s-.26.3-.42.34c-.16.05-.36.13-.36.13l-.08.3s.3.16.3.26 0 .78-.12.88c-.02-.15-.23-.25-.23-.25-.12-.3-.3-.6-.3-.6s-.4.12-.47 0c-.08-.1-.52-.17-.62-.38-.1-.2-.33-.72-.33-.72l-.47.3-.05.37.34.44.38.35.1.3-.2-.12-.27-.23s-.27-.34-.6-.4c-.1-.1-.35-.54-.35-.54l-.96-.28s-.4-.16-.48-.13c-.08.02-1.48 0-1.48 0s-.3-.78-.44-.8c-.16-.03-4.8-1.23-5.17-1.18-.37.06-1.36 1-1.36 1s-.34.43-.44.5c-.1.1-.4.1-.44.22-.06.1.04.5 0 .6-.06.12-.7.14-.7.14s-.43.37-.7.73c-.3.36-.64 1-.64 1 .1-.45.6-1.23.76-1.42.15-.18.9-.75.96-1.04.05-.27.52-.9.7-1.05.18-.16.4-.47.4-.47s-.5-.44-.64-.47c-.13 0-.72-.14-.83-.06-.1.07.22.5.12.57-.1.1-.45-.4-.58-.54-.13-.13-.33-.65-.46-.72-.13-.08-.03-.37-.3-.58-.3-.2-.87-.2-.98-.36-.1-.16-.28-.83-.28-.83l-.52-.45-.42.08-.65.3-1.12-.4z"/><path fill="#7e7e7e" d="M18.32 11.2l.9.64.6.03.92.6 1.96.44.42-.46.6-.16.4.2.73.17h.8L23 12.1l-.5.18-1.6-.2-.5-.73-.85-.12-.3-.43-.62-.04-.55-.3-.8-.45.8.73z" opacity=".8"/><path fill="#959595" d="M28.3 14.4l-.2-.54.14-.22.83.3.35-.2.7.03.13-.22-1.26.1-.36-.3.65-.4 1.4.04h1.04l-1.36-.23-.65-.05-.26-.2.26-.36h-.88l-.48.17-.52-.35.1.22.2.3-.52.22-.26-.2-.35-.1-.48-.48-.3-.3h-.8l.58.2.34.62-.48-.04-.04.4-.57.08-.65.13 1.3.3.97.62.16-.35.8.44z" opacity=".8"/><path fill="#7e7e7e" d="M33.4 13.55l-.96-.26-.53.9h-.86l-.62.1 1.2.3 1.47.04.65-.17.7-.74.74-.1-.93-.5z" opacity=".8"/><path fill="#9a9a9a" d="M30.86 13.03l.44.22-.3.1-.53.07h-.96l-.6-.04.35-.3z" opacity=".8"/><path fill="#828282" d="M23.74 11.25l.54.28.9.1-.13.22-.65-.04-1.1-.12-.95-.57.9.36z" opacity=".8"/><path fill="#7e7e7e" d="M21.83 11.17l1.1.6-.88-.3-.86-.3-.46-.06-.92-.34.65-.1z" opacity=".8"/><path fill="#7e7e7e" d="M31.78 12.2l1.3.48.4.47h-1.43l-.08-.4-1.12-.22-.88-.27.77-.2z" opacity=".8"/><path fill="#555" d="M6.12 34.74l.54.66.5.35.26.34.36-.15-.07-.28.13-.12-.37-.1-.58-.3.12-.26.98.14.17-.2-.32-.32-.37-.3-1.1-1.17.2-.5-.17-.53.08-.93-.27-.97.16-.14.9 1.48-.04.44 1.35 1.65-.7-1.03v-.52h.35l.05-.44-.6-.6-.08-.5-.23.4-.44-.48-.25-.6-.5-.43-.14-.66.2-.24-.57-.38-.3.56-.02.3-.22-.2-.78-.64-.12-.4-.05-.46v1.22l.05.2.4.54.1.5.1-.4.3-.22.57.5.32.36-.15.6.25.43.07 1-.35.64-.4-.24v-.44l.23-.34-.35-.64-.22-.4.18.72.15.34-.2.22.05.57.35.68.26.5.14.5-.2.3-.2-.47-.48-.68.24.88.7 1.43-.28-.5z" opacity=".8"/><path fill="#3a3a3a" d="M27.04 32.7l.6-.47.95-.65-.1-.9-.37-.36.32-.4.07.37.34-.25-.07.44-.08 1.13.16.33-.48.25-.44-.02-.67.7-.62.32-.5.14-.56.44.4-.53z" opacity=".8"/><path fill="#3a3a3a" d="M22.47 46.33l1.04.1.75.23 1.4.05 1.55-.4.25-.42-.54-.34-.36-.24.2-.2.13.2.37.16 1.25.08h1.6l.96-.24-1.08.58-2.1.7-1.6.25-1.2.2-2.78.05-1.37-.25.75-.25z" opacity=".8"/><path fill="#3a3a3a" d="M6.2 34.14l-.15.18.62.73-.03.08.48.35.3.26.15-.02-.24-.22-.48-.3-.1-.25.14-.24 1 .1-.9-.34-.78-.88-.13-.68.14-.76-.05.12-.32.48-.22-.15-.27-.13.18.14.36.6z" opacity=".8"/><path fill="#555" d="M41.24 21.8l.42-.7.1-.43.34-.2.16-.36-.25-.84-.35-.5-.2-.63-.3-.02-.4.45-.17-.4-.1-.34-.03-.8.4-.18.23-.64c.4.44 2.22 4.65 2.63 6.02-.3-.66-.5-.8-.5-.8l-.2-.06-.27-.8-.23-.28-.13.4.16.53-.06 1.16.32 1.22.17.63.86.62.18.86-1.5-1.06-.1-.1.05-.15.2-.33-.1-.57-.3-.7-.07-.8-.33.28-.15-.55-.35.33-.32.1-.4.5v-.15l.6-.7z" opacity=".8"/><path fill="#3a3a3a" d="M32.53 25.3l.8-.38.62-.1 1.35.36.53.63.56.23.9.8.6.67-.5-.36-.63-.5-.77-.38h-.3l-.23.2.07-.34-.17-.15-.36-.24v-.42l-.63-.22-.85-.1-1.98 1.1-1.45 2.2 1.28-2.2z" opacity=".8"/><path fill="#3a3a3a" d="M39.1 24.3l.8-.3.2-.5.43-.93.32-.3-.5.4-.58 1.1-.6.1-.46.76-.74.25-1.06.28-.64.43.07.33.1-.13.57-.5.88-.3h.53l-.14.54-.72.92-.34.3.6.6.3-1.35z" opacity=".8"/><path fill="#3a3a3a" d="M36.76 29.8l.13-.06.4.05-.4-.47v-.7l.16-.62-.24.6z" opacity=".8"/><path fill="#3a3a3a" d="M38.27 31.67l.6.42.34.25.4.22-.13-.35-.3-.44-.9-.68-.1-.33-.87-.98.8 1.1z" opacity=".8"/><path fill="#3a3a3a" d="M39.56 34.5l.6.24.52 1.12.38.6.03.9-.62-.95-.15-.65-.8-.86-.52-.27-1.08-.57 1 .1z" opacity=".8"/><path fill="#3a3a3a" d="M36.7 39.76l-.62 1.95-.5.9.7-.56.4-1.58.16-.72-.1-.77-.18-.57.44-.66-.1-.48.45-.82-.46.5-.1.54-.35 1 .04.43z" opacity=".8"/><path fill="#555" d="M31.98 17.24l.64.5v.58l-.05.37.5-.83-.68-.4z"/><path fill="#555" d="M33.63 17.4l-.3.24-.04-.1.17-.38z"/><path fill="#555" d="M40.55 17.2l-.73-.48-.32-.4 1.05.7z"/><path fill="#3a3a3a" d="M30.16 23.8l-.63 1.26-.57.37-3.22 2.07-.97-.1-.27.47.34.2.46-.3.78-.3 2.2-1.24 1-.8.4-.27.48-1.07 1.17-2.02-.4.03z" opacity=".8"/><path fill="#3a3a3a" d="M11.78 41.1l.32.3.4.18.1.38.22.22.84.7 1.07.37.47.12.47.52.9.36-.38-.02-.08.3-.33-.4-.6-.57-.82-.32-.57-.18-.93-.64-.48-.3-.35.07-.32.08-.47-.35.7-.3z" opacity=".8"/><path fill="#3a3a3a" d="M15.65 42.36l.43.13-.56.06-.1.1.46.18.14.15-.3-.12-.5.2-.52-.13-.6-.36-.62-.4-.5-.45 1.2.74z" opacity=".8"/><path fill="#3a3a3a" d="M19.33 42.42l.74.5-1-.26-.5-.27-.84-.25-1.03.06 1-.17z" opacity=".8"/><path fill="#3a3a3a" d="M18.23 42.98l.1.1-.67.93.34.26.86.14 1.17.42-1.53-.38-.68-.1-.67-.33-.23-.1.6-.07z" opacity=".8"/><path fill="#3a3a3a" d="M29.68 26.43l-.04 1.34.2.3.1-.3-.16-.38v-1.04L29.7 25l-.43.34.37.24z" opacity=".8"/></g></svg>