<svg xmlns="http://www.w3.org/2000/svg" width="48" height="48" xmlns:xlink="http://www.w3.org/1999/xlink"><defs><linearGradient id="a"><stop offset="0" stop-color="#c7d9ec"/><stop offset="1" stop-color="#c7d9ec" stop-opacity="0"/></linearGradient><linearGradient id="c" x1="5.847" x2="35.996" y1="25.429" y2="23.929" xlink:href="#a" gradientUnits="userSpaceOnUse"/><linearGradient id="b" x1="35.776" x2="6.211" y1="21.429" y2="21.214" xlink:href="#a" gradientUnits="userSpaceOnUse" gradientTransform="translate(8.071)"/></defs><g><path fill="#fff" fill-opacity=".314" d="M19.93 35c.7-2.2 4.34-1.83 6.64-1.86 4.17-.05 17.75-4.87 18.72-14.85.52-5.55-6.22-15.4-6.22-15.4-.52-1.4-4.97-1.26-9.94.46-4.96 1.72-8.56 4.36-8 5.84 0 0 7.64 4.5 6.93 8-.53 2.63-4.6 2.9-7.2 3.5-5.42 1.27-14.97 4.2-15.73 11.44-.6 5.63 8.3 14.54 8.3 14.54.52.98 3.42.35 6.47-1.35 3.06-1.7 5.12-3.84 4.6-4.76 0 0-5.3-3.28-4.57-5.57z" color="#000" overflow="visible" enable-background="accumulate"/><path fill="url(#b)" d="M23.3 47.5s-10.62-9.42-9.16-16.07c1.38-6.25 21.6-6.87 23-12.14C39.46 10.62 18.36.06 18.36.06h17s9.06 11.72 8.5 19.14C43.14 28.63 19.1 30 18.8 36.58c-.23 4.37 4.5 10.93 4.5 10.93z"/><path fill="#c7d9ec" d="M23.3 47.7S9.45 38.1 10.92 31.44c1.37-6.25 21.58-6.87 23-12.14C36.25 10.62 15.13.06 15.13.06L28.94 0s13.78 12 11.7 19.2c-2.58 9.08-21.6 8.5-23.92 14.66-2.06 5.5 6.6 13.85 6.6 13.85z"/><path fill="#fff" stroke="#a2c0df" stroke-width=".5" d="M23.6 47.7S11.12 38.95 12.4 32.3c1.2-6.26 21.73-7.66 22.97-12.94 2.04-8.66-19-19.3-19-19.3L28.57 0S40.7 12 38.88 19.2c-2.28 9.08-21.4 7.7-23.44 13.87-1.83 5.5 8.15 14.64 8.15 14.64z"/><path fill="url(#c)" d="M23.43 47.86S4.6 38.08 6.07 31.43c1.38-6.25 21.6-6.87 23-12.14C31.4 10.62 10.3.06 10.3.06L24.06 0S37.85 12 35.8 19.2c-2.6 9.08-22.83 8.14-23.16 14.73-.2 4.37 10.8 13.93 10.8 13.93z"/><path fill="none" stroke="#ef2929" d="M19.8 40.96c2.36-1.03 4.34-1.3 4.76-.54.53.93-1.52 3.06-4.58 4.77-3.05 1.7-5.95 2.3-6.47 1.38-.3-.56.32-1.57 1.55-2.66" color="#000" overflow="visible" enable-background="accumulate"/><path fill="none" stroke="#ef2929" d="M17.8 32.78c1.43.7 2.27 1.46 2.15 2.13-.23 1.25-3.7 1.66-7.75.92-4.06-.74-7.16-2.35-6.94-3.6.12-.63 1.1-1.05 2.6-1.2" color="#000" overflow="visible" enable-background="accumulate"/><path fill="none" stroke="#ef2929" d="M20.7 24.55c-.57-2-.56-3.56.14-3.9 1.03-.48 3.17 1.86 4.78 5.24 1.6 3.38 2.07 6.52 1.04 7-.67.33-1.8-.53-2.95-2.1" color="#000" overflow="visible" enable-background="accumulate"/><path fill="none" stroke="#ef2929" d="M29.83 18.76c-1.13-.53-1.78-1.15-1.74-1.77.1-1.48 4-2.4 8.76-2.08 4.74.32 8.5 1.77 8.4 3.23-.04.7-.95 1.28-2.4 1.65" color="#000" overflow="visible" enable-background="accumulate"/><path fill="none" stroke="#ef2929" d="M26.3 10c-2.75.4-4.76.12-5.1-.88-.54-1.54 3.05-4.2 8-5.9 4.98-1.73 9.44-1.88 9.97-.34.22.64-.27 1.47-1.27 2.34" color="#000" overflow="visible" enable-background="accumulate"/><path fill="none" stroke="#ef2929" d="M21.57 9.7s7.28 3.87 6.57 7.37c-.53 2.62-4.6 2.9-7.2 3.5C15.5 21.83 5.97 24.75 5.2 32c-.58 5.63 8.3 14.5 8.3 14.5" color="#000" overflow="visible" enable-background="accumulate"/><path fill="none" stroke="#ef2929" d="M39.14 2.64s6.76 9.96 6.22 15.5c-.97 10-14.55 14.8-18.72 14.86-2.3.03-5.95-.34-6.64 1.86-.72 2.3 4.57 5.57 4.57 5.57" color="#000" overflow="visible" enable-background="accumulate"/></g></svg>