<svg xmlns="http://www.w3.org/2000/svg" width="48" height="48" xmlns:xlink="http://www.w3.org/1999/xlink"><defs><linearGradient id="e"><stop offset="0" stop-color="#623d01"/><stop offset="1" stop-color="#8f5902"/></linearGradient><linearGradient id="d"><stop offset="0" stop-color="#295103"/><stop offset="1" stop-color="#4e9a06"/></linearGradient><linearGradient id="c"><stop offset="0" stop-color="#a4a5a1"/><stop offset="1" stop-color="#c8c9c7"/></linearGradient><linearGradient id="b"><stop offset="0" stop-color="#2e3436"/><stop offset="1" stop-color="#2e3436" stop-opacity="0"/></linearGradient><linearGradient id="g"><stop offset="0" stop-color="#fff"/><stop offset="1" stop-color="#d2d5d8"/></linearGradient><linearGradient id="a"><stop offset="0" stop-color="#8ae234"/><stop offset="1" stop-color="#589d16"/></linearGradient><linearGradient x1="256.056" x2="256.056" y1="1607.681" y2="1595.831" gradientUnits="userSpaceOnUse"><stop offset="0" stop-color="#fff"/><stop offset=".668" stop-color="#FAAF3E"/><stop offset="1" stop-color="#F88017"/></linearGradient><radialGradient id="f" cx="1594.591" cy="1594.281" r="4.814" gradientUnits="userSpaceOnUse" gradientTransform="matrix(-1 0 0 1 1856.516 0)" fy="1594.281" fx="1594.591"><stop offset="0" stop-color="#fff"/><stop offset=".826" stop-color="#9198A1"/><stop offset="1" stop-color="#575D66"/></radialGradient><radialGradient cx="1595.566" cy="1593.191" r="5.857" gradientUnits="userSpaceOnUse" gradientTransform="matrix(-1 0 0 1 1856.516 0)" fy="1593.191" fx="1595.566"><stop offset="0" stop-color="#fff"/><stop offset="1" stop-color="#B9BFC2"/></radialGradient><linearGradient id="k" x1="256.056" x2="256.056" y1="1607.403" y2="1595.432" xlink:href="#a" gradientUnits="userSpaceOnUse"/><linearGradient id="l" x1="26.474" x2="36.539" y1="22.483" y2="22.483" xlink:href="#b" gradientUnits="userSpaceOnUse"/><linearGradient id="j" x1="24.833" x2="25.027" y1="33.238" y2="39.036" xlink:href="#c" gradientUnits="userSpaceOnUse" gradientTransform="matrix(1 0 0 .898 0 -.027)"/><linearGradient id="i" x1="22.317" x2="22.346" y1="39.257" y2="45.493" xlink:href="#d" gradientUnits="userSpaceOnUse" gradientTransform="translate(0 -3.554)"/><linearGradient id="h" x1="23.083" x2="23.222" y1="40.739" y2="47.685" xlink:href="#e" gradientUnits="userSpaceOnUse" gradientTransform="matrix(1 0 0 .75 -48 9.6)"/><radialGradient id="m" cx="1594.591" cy="1594.281" r="4.814" xlink:href="#f" gradientUnits="userSpaceOnUse" gradientTransform="matrix(-1 0 0 1 1856.516 0)" fx="1594.591" fy="1594.281"/><linearGradient x1="262.425" x2="262.289" y1="1592.016" y2="1599.15" xlink:href="#g" gradientUnits="userSpaceOnUse"/><linearGradient id="n" x1="262.425" x2="262.289" y1="1592.016" y2="1599.15" xlink:href="#g" gradientUnits="userSpaceOnUse"/></defs><g><path fill="url(#h)" fill-rule="evenodd" stroke="#4d3001" stroke-width=".8" d="M-47.6 38.4H-.4v7.2h-47.2z" transform="scale(-1 1)" color="#000" stroke-linejoin="round" overflow="visible"/><path fill="url(#i)" fill-rule="evenodd" stroke="#244902" d="M.55 33.95h46.93s.05-.05 0 5.8c-8.77 3.04-14.02 2.5-23.16.96C15.2 39.2 9.1 41.06.55 39.17c-.1-5.26 0-5.2 0-5.2z" color="#000" stroke-linejoin="round" overflow="visible"/><path fill="#73d216" fill-rule="evenodd" stroke="#4e9a06" d="M.55 33.46h46.93s.05-.02 0 3.3c-8.77 1.7-16.05 2.67-23.16 1.03C17.27 36.14 9.1 37.5.55 36.4c-.1-2.98 0-2.96 0-2.96z" color="#000" stroke-linejoin="round" overflow="visible"/><path fill="url(#j)" fill-rule="evenodd" stroke="#555753" d="M.55 28.27h46.93s.05 4.55 0 7.53c-8.82 1.1-22.82-.1-24.63-.4-1.32-.22-16.98-1.06-22.3-.4-.1-2.67 0-6.73 0-6.73z" color="#000" stroke-linejoin="round" overflow="visible"/><path fill="url(#k)" stroke="#316103" stroke-width=".79" d="M279.06 1607.83h-46l9-12h28l9 12z" transform="matrix(1.026 0 0 1 -238.735 -1580.938)" stroke-linejoin="round"/><path fill="url(#l)" fill-rule="evenodd" d="M36.54 22.48a5.03 2 0 1 1-10.07 0 5.03 2 0 1 1 10.07 0z" transform="matrix(1.728 0 0 1.124 -24.143 -6.512)" color="#000" overflow="visible"/><path fill="#4e9a06" fill-rule="evenodd" stroke="#316103" d="M.55 26.77h46.93s.05.03 0 3.34c-5.87 1.57-15.04.82-20.64-.2-5.42-1-20.37-1.94-26.3.2-.1-2.97 0-3.33 0-3.33z" color="#000" stroke-linejoin="round" overflow="visible"/><path fill="#555753" fill-rule="evenodd" d="M7 31.63a.85.85 0 1 1-1.7 0 .85.85 0 1 1 1.7 0z" color="#000" overflow="visible"/><path fill="#555753" fill-rule="evenodd" d="M9.58 33.5a.73.73 0 1 1-1.46 0 .73.73 0 1 1 1.46 0z" color="#000" overflow="visible"/><path fill="#555753" fill-rule="evenodd" d="M13.23 31.92a.38.38 0 1 1-.76 0 .38.38 0 1 1 .76 0z" color="#000" overflow="visible"/><path fill="#555753" fill-rule="evenodd" d="M20.7 32.1a1.85 1.85 0 1 1-3.7 0 1.85 1.85 0 1 1 3.7 0z" color="#000" overflow="visible"/><path fill="#555753" fill-rule="evenodd" d="M25.7 31.92a.85.85 0 1 1-1.7 0 .85.85 0 1 1 1.7 0z" color="#000" overflow="visible"/><path fill="#555753" fill-rule="evenodd" d="M32.57 33.63a1.42 1.42 0 1 1-2.84 0 1.42 1.42 0 1 1 2.84 0z" color="#000" overflow="visible"/><path fill="#555753" fill-rule="evenodd" d="M39.5 32.92a.66.66 0 1 1-1.3 0 .66.66 0 1 1 1.3 0z" color="#000" overflow="visible"/><path fill="#555753" fill-rule="evenodd" d="M44 33.92a1.15 1.15 0 1 1-2.3 0 1.15 1.15 0 1 1 2.3 0z" color="#000" overflow="visible"/><path fill="#555753" fill-rule="evenodd" d="M16 33.1a1.15 1.15 0 1 1-2.3 0 1.15 1.15 0 1 1 2.3 0z" color="#000" overflow="visible"/><path fill="#555753" fill-rule="evenodd" d="M17.3 30.85a1.15 1.15 0 1 1-2.3 0 1.15 1.15 0 1 1 2.3 0z" color="#000" overflow="visible"/><path fill="#c17d11" fill-rule="evenodd" d="M44.62 41.15c-.36.65.13 1.06.87.74.34-.17.66-.45.82-.75.36-.66-.12-1.07-.87-.74-.35.16-.66.44-.83.75z" color="#000" overflow="visible"/><path fill="#c17d11" fill-rule="evenodd" d="M42.1 43.73c-.3.57.1.92.75.64.3-.13.57-.38.72-.64.3-.56-.1-.9-.75-.63-.3.13-.57.37-.72.63z" color="#000" overflow="visible"/><path fill="#c17d11" fill-rule="evenodd" d="M35.18 43.38c-.16.3.06.48.4.33.15-.05.3-.18.37-.32.16-.3-.06-.48-.4-.33-.15.07-.3.2-.37.33z" color="#000" overflow="visible"/><path fill="#c17d11" fill-rule="evenodd" d="M5.26 42.58c-.78 1.42.27 2.3 1.9 1.6.75-.33 1.44-.94 1.8-1.6.78-1.43-.27-2.32-1.9-1.6-.75.32-1.44.94-1.8 1.6z" color="#000" overflow="visible"/><path fill="#c17d11" fill-rule="evenodd" d="M23.35 42.44c-.36.65.12 1.06.87.73.35-.15.67-.43.83-.73.36-.66-.12-1.07-.87-.74-.35.15-.66.43-.83.74z" color="#000" overflow="visible"/><path fill="#c17d11" fill-rule="evenodd" d="M18.96 43.58c-.6 1.1.2 1.78 1.45 1.23.6-.24 1.12-.7 1.4-1.22.6-1.1-.2-1.78-1.46-1.24-.58.26-1.1.73-1.38 1.24z" color="#000" overflow="visible"/><path fill="#c17d11" fill-rule="evenodd" d="M9 43.44c-.28.5.1.82.67.57.27-.1.5-.33.64-.56.3-.5-.1-.83-.66-.57-.27.1-.5.33-.64.57z" color="#000" overflow="visible"/><path fill="#c17d11" fill-rule="evenodd" d="M1.54 42.85c-.48.9.17 1.44 1.18 1 .47-.2.9-.6 1.12-1 .48-.88-.17-1.44-1.18-1-.47.2-.9.6-1.12 1z" color="#000" overflow="visible"/><path fill="#c17d11" fill-rule="evenodd" d="M32.4 43.62c-.48.9.17 1.44 1.18 1 .47-.2.9-.6 1.12-1 .48-.88-.17-1.43-1.18-1-.47.2-.9.6-1.12 1z" color="#000" overflow="visible"/><path fill="#c17d11" fill-rule="evenodd" d="M26.54 43.73c-.48.9.17 1.44 1.18 1 .47-.2.9-.58 1.12-1 .48-.88-.17-1.43-1.18-1-.47.2-.9.6-1.12 1z" color="#000" overflow="visible"/><path fill="#c17d11" fill-rule="evenodd" d="M21.7 44.3c-.26.54.1.87.62.6.25-.12.48-.35.6-.6.25-.53-.1-.86-.63-.6-.26.13-.48.36-.6.6z" color="#000" overflow="visible"/><path fill="#c17d11" fill-rule="evenodd" d="M14.16 42.85c-.48.9.17 1.44 1.18 1 .47-.2.9-.6 1.12-1 .48-.88-.17-1.44-1.18-1-.47.2-.9.6-1.12 1z" color="#000" overflow="visible"/><path fill="#555753" fill-rule="evenodd" d="M11.3 30.85a1.15 1.15 0 1 1-2.3 0 1.15 1.15 0 1 1 2.3 0z" color="#000" overflow="visible"/><path fill="#555753" fill-rule="evenodd" d="M3 32.38a.38.38 0 1 1-.77 0 .38.38 0 1 1 .77 0z" color="#000" overflow="visible"/><circle cx="262.853" cy="1595.583" r="3.22" fill="url(#m)" stroke="#2e3436" stroke-width=".451" transform="matrix(2.645 0 0 2.673 -669.223 -4253.723)"/><circle cx="262.853" cy="1595.583" r="3.22" fill="none" stroke="url(#n)" stroke-width=".434" transform="matrix(2.274 0 0 2.333 -571.466 -3710.962)"/></g></svg>