<svg xmlns="http://www.w3.org/2000/svg" width="48" height="48" xmlns:xlink="http://www.w3.org/1999/xlink"><defs><linearGradient id="c"><stop offset="0" stop-color="#fff"/><stop offset="1" stop-color="#fff" stop-opacity="0"/></linearGradient><linearGradient><stop offset="0" stop-color="#dce0e2"/><stop offset="1" stop-color="#d2d3d4"/></linearGradient><linearGradient><stop offset="0" stop-color="#9dbcde"/><stop offset="1" stop-color="#4a7cb3"/></linearGradient><linearGradient id="b"><stop offset="0"/><stop offset="1" stop-opacity="0"/></linearGradient><linearGradient id="a"><stop offset="0" stop-color="#fff"/><stop offset="1" stop-color="#fff" stop-opacity=".126"/></linearGradient><linearGradient><stop offset="0" stop-color="#eeeeec"/><stop offset="1" stop-color="#afafa5"/></linearGradient><linearGradient><stop offset="0" stop-color="#888a85"/><stop offset="1" stop-color="#e1e2e1"/></linearGradient><linearGradient><stop offset="0" stop-color="#a8aaa6"/><stop offset="1" stop-color="#555753"/></linearGradient><linearGradient><stop offset="0" stop-color="#e1f1f4"/><stop offset="1" stop-color="#7d9292"/></linearGradient><radialGradient id="f" cx="19.795" cy="6.147" r="13.521" xlink:href="#a" fx="19.795" fy="6.147" gradientTransform="matrix(1.552 -.018 .014 1.23 -13.579 -1.108)" gradientUnits="userSpaceOnUse"/><radialGradient id="e" cx="20.945" cy="23.063" r="11.278" xlink:href="#a" fx="20.945" fy="23.063" gradientTransform="matrix(1.55 -.118 .115 1.504 -16.594 -6.444)" gradientUnits="userSpaceOnUse"/><radialGradient id="d" cx="16.636" cy="42.975" r="21.818" xlink:href="#b" fx="16.636" fy="42.975" gradientTransform="matrix(1.403 -.403 .173 .602 -13.848 19.982)" gradientUnits="userSpaceOnUse"/><linearGradient id="g" x1="8.86" x2="24.487" y1="6.348" y2="32.461" xlink:href="#c" gradientUnits="userSpaceOnUse" gradientTransform="matrix(1.003 0 0 1.003 1.059 .148)"/></defs><g><path fill="url(#d)" d="M39.17 45.47l-22.2-10.84s12.82-11.4 26-8.27c13.18 3.15-3.8 19.1-3.8 19.1z"/><path fill="#cfd5d7" d="M8.5 12.64s-5.4-4.3-4.02-6.3c1.4-2 7.04 1.5 7.04 1.5C16.98 5.13 24 3.8 30.46 3.63c0 0 2.74-3.28 4.1-2.1 1.4 1.17-1.93 5.9-1.93 5.9 2.76 4.06 3.95 11.3 3.03 17.1 1.2 4.74 2.1 9.5 1.5 14.4 0 0 4.9 4.47 3.42 6.36-1.48 1.9-6.98-1.83-6.98-1.83-7.6 1.3-15.37 1.88-23.28 1.66 0 0-6 4.33-8.24 1.6-2.23-2.73 2.57-5.9 2.57-5.9.64-5.24 2.14-10.34 6.4-14.98-2.16-3.97-3.14-8.33-2.56-13.2z"/><path fill="url(#e)" d="M5.64 35.56c1.26 3.6 7.03 4.52 11.52 4.4 8.14.34 12-5 12.95-6.75.96-1.74 1.27-3.88.98-6.18-.3-2.3-6.67-3.14-10.1-3.4-3.46-.25-6.98.1-9.88 2.23-1.78 1.9-4.9 6.86-5.46 9.7z" color="#000" overflow="visible" enable-background="accumulate"/><path fill="url(#f)" d="M8.26 16.6c.74 1.94 2.63 4.3 5.34 4.23 2.72-.07 4.23-1.53 6.44-1.9 2.2-.36 4.8.83 6.95-.04 2.16-.87 4.4-3.16 5.13-4.82.73-1.66.4-6.64.4-6.64s3.52-4.65 2.15-5.86c-1.37-1.2-4.2 2.14-4.2 2.14-6.93.03-13.3 1.38-19.02 4.2 0 0-5.37-3.72-6.84-1.77-1.46 1.95 3.85 6.5 3.85 6.5z" color="#000" overflow="visible" enable-background="accumulate"/><path fill="#b6babd" d="M1.55 44.27c2.5.82 5.8.55 7.72-2.92 7.44 2 14.88 1.23 22.32-1.03 2.6 1.03 5.16 2.44 8.22 1.43 0 0 1.84 2.55.46 3.83-1.38 1.3-6.8-2.1-6.8-2.1-7.65 1.26-15.38 1.74-23.18 1.64-3.47 2.26-6.03 3.14-7.46 2.3-.8-.48-1.6-1.85-1.3-3.15z"/><path fill="none" stroke="#4d72aa" stroke-width=".5" d="M8.5 12.64s-5.4-4.3-4.02-6.3c1.4-2 7.04 1.5 7.04 1.5C16.98 5.13 24 3.8 30.46 3.63c0 0 2.74-3.28 4.1-2.1 1.4 1.17-1.93 5.9-1.93 5.9 2.76 4.06 3.95 11.3 3.03 17.1 1.2 4.74 2.1 9.5 1.5 14.4 0 0 4.9 4.47 3.42 6.36-1.48 1.9-6.98-1.83-6.98-1.83-7.76 1.3-15.52 1.88-23.28 1.66 0 0-6 4.33-8.24 1.6-2.23-2.73 2.57-5.9 2.57-5.9.64-5.24 2.14-10.34 6.4-14.98-2.16-3.97-3.14-8.33-2.56-13.2z"/><path fill="#a1bed7" d="M29.18 6.42l-.34.15c1.18 3.43 1.96 6.75 2.78 9.66.83 3 1.4 5.9.48 9.3l-.07.14.07.16c.74 1.54 1.63 4.6 1.64 7.37.02 2.74-.84 5.17-.76 6.7 2.76-4.95 1.2-10.2-.37-13.95 1.18-3.93.87-7.25.08-10.34-.74-2.92-1.9-5.66-2.65-8.52 1.28-.66 2.57-1.43 3.6-2.92-.85.74-3.15 1.6-4.45 2.26z" style="text-indent:0;text-align:start;line-height:normal;text-transform:none;block-progression:tb;-inkscape-font-specification:Sans" color="#000" overflow="visible" enable-background="accumulate" font-family="Sans"/><path fill="#a8cae8" d="M11.58 24.72s5.1-1.98 8.17-2.1c3.08-.1 9.72 2.03 9.72 2.03s-6.72-1.05-9.72-1c-3 .03-8.17 1.07-8.17 1.07z" color="#000" overflow="visible" enable-background="accumulate"/><path fill="none" stroke="#98b8d3" d="M33.6 36.98c1.78.64 3.5 3.58 4 6.4" color="#000" overflow="visible" enable-background="accumulate"/><path fill="none" stroke="url(#g)" stroke-width=".5" d="M33.8 1.8c-2.06.35-2.7 3.13-5.05 2.43-6.05.24-12.06 1.86-17.47 4.04-1.83-.82-4.48-2.93-6.43-1.6C4.57 9.33 7.82 10.8 9 12.7c-.6 4.6.4 9.2 2.66 13.22-4.15 4.1-5.82 9.98-6.74 15.36-1.9.98-4.43 4.24-1.63 5.74 3.7.88 6.12-3.45 9.92-2.35 6.9.12 13.87-.76 20.63-1.63 1.87.96 4.25 3 6.34 1.97.64-2.5-2.58-4.3-3.56-6.1.8-5.04-.7-10.03-1.4-14.92.63-5.63-.1-11.72-3.2-16.56.77-1.6 3-3.76 2.1-5.58-.1-.02-.2-.13-.35-.03z"/></g></svg>