<svg xmlns="http://www.w3.org/2000/svg" width="48" height="48" xmlns:xlink="http://www.w3.org/1999/xlink"><defs><linearGradient id="h"><stop offset="0" stop-color="#ce5c00"/><stop offset="1" stop-color="#ce5c00" stop-opacity="0"/></linearGradient><linearGradient id="g"><stop offset="0" stop-color="#ce5c00"/><stop offset="1" stop-color="#ce5c00" stop-opacity="0"/></linearGradient><linearGradient id="f"><stop offset="0" stop-color="#f57900"/><stop offset="1" stop-color="#f57900" stop-opacity="0"/></linearGradient><linearGradient id="e"><stop offset="0" stop-color="#fff"/><stop offset="1" stop-color="#a7bdce"/></linearGradient><linearGradient><stop offset="0" stop-opacity=".577"/><stop offset="1" stop-opacity="0"/></linearGradient><radialGradient cx="257.459" cy="35.376" r="68.717" fx="257.459" fy="35.376" gradientUnits="userSpaceOnUse"><stop offset="0" stop-opacity="0"/><stop offset="1" stop-color="#8794a0" stop-opacity="0"/></radialGradient><radialGradient id="d" cx="257.459" cy="35.376" r="68.717" gradientUnits="userSpaceOnUse" fy="35.376" fx="257.459"><stop offset="0"/><stop offset="1" stop-color="#8794a0" stop-opacity="0"/></radialGradient><linearGradient id="a"><stop offset="0" stop-opacity=".594"/><stop offset="1" stop-opacity="0"/></linearGradient><radialGradient cx="279.388" cy="41.553" r="19.813" xlink:href="#a" fx="279.388" fy="41.553" gradientTransform="matrix(.837 -.536 .375 .586 30.067 166.892)" gradientUnits="userSpaceOnUse"/><linearGradient id="c"><stop offset="0" stop-color="#fff"/><stop offset="1" stop-color="#bfd0dc"/></linearGradient><radialGradient id="b" cx="257.459" cy="35.376" r="68.717" fx="257.459" fy="35.376" gradientUnits="userSpaceOnUse"><stop offset="0" stop-color="#eeeff1"/><stop offset="1" stop-color="#8794A0"/></radialGradient><linearGradient><stop offset="0" stop-color="#fedba7"/><stop offset="1" stop-color="#fdbf64"/></linearGradient><linearGradient><stop offset="0" stop-color="#ffa54c"/><stop offset="1" stop-color="#f57900"/></linearGradient><linearGradient x1="14.243" x2="33.941" y1="21.433" y2="31.535" xlink:href="#b" gradientUnits="userSpaceOnUse"/><linearGradient x1="18.378" x2="37.729" y1="19.266" y2="29.671" xlink:href="#c" gradientUnits="userSpaceOnUse"/><linearGradient x1="14.243" x2="33.941" y1="21.433" y2="31.535" xlink:href="#b" gradientUnits="userSpaceOnUse"/><linearGradient x1="18.378" x2="37.729" y1="19.266" y2="29.671" xlink:href="#c" gradientUnits="userSpaceOnUse"/><linearGradient x1="14.243" x2="33.941" y1="21.433" y2="31.535" xlink:href="#b" gradientUnits="userSpaceOnUse"/><linearGradient x1="18.378" x2="37.729" y1="19.266" y2="29.671" xlink:href="#c" gradientUnits="userSpaceOnUse"/><linearGradient x1="14.243" x2="33.941" y1="21.433" y2="31.535" xlink:href="#b" gradientUnits="userSpaceOnUse"/><linearGradient x1="18.378" x2="37.729" y1="19.266" y2="29.671" xlink:href="#c" gradientUnits="userSpaceOnUse"/><linearGradient x1="14.243" x2="33.941" y1="21.433" y2="31.535" xlink:href="#b" gradientUnits="userSpaceOnUse" gradientTransform="matrix(.891 0 0 .887 24.89 18.069)"/><linearGradient x1="18.378" x2="37.729" y1="19.266" y2="29.671" xlink:href="#c" gradientUnits="userSpaceOnUse" gradientTransform="matrix(.891 0 0 .887 24.89 18.069)"/><linearGradient x1="14.243" x2="33.941" y1="21.433" y2="31.535" xlink:href="#b" gradientUnits="userSpaceOnUse" gradientTransform="matrix(.891 0 0 .887 2.857 4.299)"/><linearGradient x1="18.378" x2="37.729" y1="19.266" y2="29.671" xlink:href="#c" gradientUnits="userSpaceOnUse" gradientTransform="matrix(.891 0 0 .887 2.857 4.299)"/><radialGradient cx="24.293" cy="32.32" r="18.457" xlink:href="#d" fx="24.293" fy="32.32" gradientTransform="matrix(-1 0 0 -.5 48.586 46.99)" gradientUnits="userSpaceOnUse"/><radialGradient cx="24.293" cy="32.32" r="18.457" xlink:href="#d" gradientUnits="userSpaceOnUse" gradientTransform="matrix(-1 0 0 -.5 48.586 46.99)" fx="24.293" fy="32.32"/><linearGradient x1="14.243" x2="33.941" y1="21.433" y2="31.535" xlink:href="#b" gradientUnits="userSpaceOnUse" gradientTransform="matrix(.891 0 0 .887 2.857 4.299)"/><linearGradient x1="18.378" x2="37.729" y1="19.266" y2="29.671" xlink:href="#c" gradientUnits="userSpaceOnUse" gradientTransform="matrix(.891 0 0 .887 2.857 4.299)"/><linearGradient x1="6.541" x2="46.401" y1="25.639" y2="38.51" xlink:href="#b" gradientUnits="userSpaceOnUse" gradientTransform="matrix(1.038 0 0 1.042 -.972 -2.936)"/><linearGradient x1="6.541" x2="46.401" y1="25.639" y2="38.51" xlink:href="#c" gradientUnits="userSpaceOnUse" gradientTransform="matrix(1.038 0 0 1.042 -.972 -2.936)"/><linearGradient id="k" x1="6.541" x2="46.401" y1="25.639" y2="38.51" xlink:href="#b" gradientUnits="userSpaceOnUse" gradientTransform="matrix(.964 0 0 .771 .584 -2.165)"/><linearGradient id="l" x1="6.541" x2="46.401" y1="25.639" y2="38.51" xlink:href="#c" gradientUnits="userSpaceOnUse" gradientTransform="matrix(.964 0 0 .771 .584 -2.165)"/><linearGradient x1="5.649" x2="41.934" y1="29.75" y2="29.75" xlink:href="#e" gradientUnits="userSpaceOnUse"/><linearGradient x1="5.649" x2="41.934" y1="29.75" y2="29.75" xlink:href="#e" gradientUnits="userSpaceOnUse"/><linearGradient x1="5.649" x2="41.934" y1="29.75" y2="29.75" xlink:href="#e" gradientUnits="userSpaceOnUse"/><linearGradient x1="5.649" x2="41.934" y1="29.75" y2="29.75" xlink:href="#e" gradientUnits="userSpaceOnUse"/><linearGradient x1="5.649" x2="41.934" y1="29.75" y2="29.75" xlink:href="#e" gradientUnits="userSpaceOnUse"/><linearGradient x1="5.649" x2="41.934" y1="29.75" y2="29.75" xlink:href="#e" gradientUnits="userSpaceOnUse"/><radialGradient id="m" cx="96.268" cy="2226.303" r="8.426" gradientUnits="userSpaceOnUse" gradientTransform="matrix(-1.156 -.05 -.05 1.157 254.678 -2532.747)" fy="2226.303" fx="96.268"><stop offset="0" stop-color="#fff"/><stop offset=".736" stop-color="#F17912"/><stop offset=".882" stop-color="#BE5A0F"/><stop offset="1" stop-color="#D96A11"/></radialGradient><linearGradient x1="34.786" x2="4.429" y1="37.143" y2="4.357" xlink:href="#f" gradientUnits="userSpaceOnUse"/><linearGradient id="n" x1="34.786" x2="4.429" y1="37.143" y2="4.357" xlink:href="#f" gradientUnits="userSpaceOnUse" gradientTransform="matrix(.74 -.032 .043 .999 5.116 -.807)"/><linearGradient id="i" x1="34.786" x2="26.982" y1="37.143" y2="23.359" xlink:href="#f" gradientUnits="userSpaceOnUse" gradientTransform="matrix(.895 .167 -.167 .895 7.231 -.339)"/><linearGradient id="o" x1="28.929" x2="12.509" y1="19.836" y2="2.836" xlink:href="#g" gradientUnits="userSpaceOnUse" gradientTransform="matrix(.865 -.037 .043 .999 3.088 1.854)"/><linearGradient id="j" x1="34.482" x2="33.523" y1="32.619" y2="28.548" xlink:href="#h" gradientUnits="userSpaceOnUse"/></defs><g><path fill="url(#i)" stroke="url(#j)" d="M37.26 25.53c1.74 4.15 2.82 8.64 3.12 13.36l-13.04 2.07c-.7-8.53-2.3-13.03-5.3-18.63"/><path fill="url(#k)" stroke="url(#l)" d="M8.44 17.3l29.9-.17 7.6 10.96-44.03.13L8.45 17.3z" color="#000" stroke-linecap="round" stroke-linejoin="round" overflow="visible"/><path fill="none" stroke="#2e3436" d="M7.8 16.55l31.17-.06 8.54 12.4-47 .06 7.3-12.4z" color="#000" stroke-linecap="round" stroke-linejoin="round" overflow="visible"/><path fill="none" stroke="#fff" d="M34.25 32.25c-2.04-.1-4 .63-5.5 2-1.5 1.4-2.38 3.28-2.47 5.32-.1 2.04.62 4 2 5.5s3.27 2.4 5.3 2.48c2.05.1 4-.62 5.52-2 1.5-1.4 2.38-3.28 2.47-5.32.18-4.2-3.1-7.8-7.32-7.98z" opacity=".7"/><path fill="url(#m)" stroke="#3f1c08" d="M27.25 39.6c-.16 3.7 2.7 6.82 6.38 6.98 3.7.16 6.8-2.7 6.97-6.4.16-3.67-2.7-6.8-6.4-6.95-3.67-.16-6.8 2.7-6.95 6.38z"/><path fill="url(#n)" stroke="url(#o)" d="M22.7 19.95C20.64 13.25 13.8 9.3 6 6.38l4.72-6.2C21.02 3.6 30.92 7.6 33.9 19.82c-4.06 2.33-6.83 2.54-11.2.12z"/></g></svg>