<svg xmlns="http://www.w3.org/2000/svg" width="48" height="48" xmlns:xlink="http://www.w3.org/1999/xlink"><defs><linearGradient id="b"><stop offset="0" stop-color="#fff"/><stop offset="1" stop-color="#d0f8ff"/></linearGradient><linearGradient id="r"><stop offset="0" stop-color="#fd9c00"/><stop offset="1" stop-color="#ce5c00"/></linearGradient><linearGradient id="h"><stop offset="0" stop-color="#2e3436"/><stop offset="1" stop-color="#2e3436" stop-opacity="0"/></linearGradient><linearGradient id="q" x1="320.498" x2="328.231" y1="1666.47" y2="1670.438" gradientUnits="userSpaceOnUse" gradientTransform="translate(-307.269 -1655.985)"><stop offset="0" stop-color="#FAAF3E"/><stop offset="1" stop-color="#F17912"/></linearGradient><linearGradient id="p" x1="330.378" x2="337.982" y1="1666.647" y2="1670.483" gradientUnits="userSpaceOnUse" gradientTransform="translate(-307.269 -1655.985)"><stop offset="0" stop-color="#FAAF3E"/><stop offset="1" stop-color="#F17912"/></linearGradient><linearGradient id="o" x1="325.282" x2="332.887" y1="1672.295" y2="1676.334" gradientUnits="userSpaceOnUse" gradientTransform="translate(-307.269 -1655.985)"><stop offset="0" stop-color="#FAAF3E"/><stop offset="1" stop-color="#F17912"/></linearGradient><linearGradient id="a" x1="319.044" x2="323.373" y1="1672.282" y2="1676.424" gradientUnits="userSpaceOnUse" gradientTransform="translate(-315.412 -1650.271)"><stop offset="0" stop-color="#FAAF3E"/><stop offset="1" stop-color="#F17912"/></linearGradient><linearGradient id="c" x1="335.044" x2="339.486" y1="1672.203" y2="1676.376" gradientUnits="userSpaceOnUse" gradientTransform="translate(-307.269 -1655.985)"><stop offset="0" stop-color="#FAAF3E"/><stop offset="1" stop-color="#F17912"/></linearGradient><linearGradient id="n" x1="320.909" x2="328.447" y1="1678.346" y2="1682.182" gradientUnits="userSpaceOnUse" gradientTransform="translate(-307.269 -1655.985)"><stop offset="0" stop-color="#FAAF3E"/><stop offset="1" stop-color="#F17912"/></linearGradient><linearGradient id="m" x1="330.245" x2="337.943" y1="1678.3" y2="1682.045" gradientUnits="userSpaceOnUse" gradientTransform="translate(-307.269 -1655.985)"><stop offset="0" stop-color="#FAAF3E"/><stop offset="1" stop-color="#F17912"/></linearGradient><linearGradient id="l" x1="325.571" x2="332.945" y1="1684.063" y2="1688.052" gradientUnits="userSpaceOnUse" gradientTransform="translate(-307.269 -1655.985)"><stop offset="0" stop-color="#FAAF3E"/><stop offset="1" stop-color="#F17912"/></linearGradient><linearGradient id="e" x1="319.088" x2="323.352" y1="1683.885" y2="1688.137" gradientUnits="userSpaceOnUse" gradientTransform="translate(-307.269 -1655.985)"><stop offset="0" stop-color="#FAAF3E"/><stop offset="1" stop-color="#F17912"/></linearGradient><linearGradient id="d" x1="334.94" x2="339.776" y1="1683.931" y2="1688.117" gradientUnits="userSpaceOnUse" gradientTransform="translate(-307.269 -1655.985)"><stop offset="0" stop-color="#FAAF3E"/><stop offset="1" stop-color="#F17912"/></linearGradient><linearGradient id="k" x1="320.573" x2="328.444" y1="1690.075" y2="1693.59" gradientUnits="userSpaceOnUse" gradientTransform="translate(-307.269 -1655.985)"><stop offset="0" stop-color="#FAAF3E"/><stop offset="1" stop-color="#F17912"/></linearGradient><linearGradient id="j" x1="330.397" x2="338.002" y1="1690.056" y2="1693.69" gradientUnits="userSpaceOnUse" gradientTransform="translate(-307.269 -1655.985)"><stop offset="0" stop-color="#FAAF3E"/><stop offset="1" stop-color="#F17912"/></linearGradient><linearGradient id="i" x1="325.535" x2="332.969" y1="1695.768" y2="1699.636" gradientUnits="userSpaceOnUse" gradientTransform="translate(-307.269 -1655.985)"><stop offset="0" stop-color="#FAAF3E"/><stop offset="1" stop-color="#F17912"/></linearGradient><linearGradient id="f" x1="319.249" x2="323.152" y1="1695.584" y2="1699.69" gradientUnits="userSpaceOnUse" gradientTransform="translate(-307.269 -1655.985)"><stop offset="0" stop-color="#FAAF3E"/><stop offset="1" stop-color="#F17912"/></linearGradient><linearGradient id="g" x1="335.188" x2="339.697" y1="1695.509" y2="1700.018" gradientUnits="userSpaceOnUse" gradientTransform="translate(-307.269 -1655.985)"><stop offset="0" stop-color="#FAAF3E"/><stop offset="1" stop-color="#F17912"/></linearGradient><radialGradient id="s" cx="1503.709" cy="1679.003" r="9.817" gradientUnits="userSpaceOnUse" gradientTransform="matrix(-1 0 0 1 1856.516 0)" fy="1679.003" fx="1503.709"><stop offset="0" stop-color="#fff"/><stop offset=".09" stop-color="#F9FAFA"/><stop offset=".211" stop-color="#E8EBED"/><stop offset=".35" stop-color="#CCD2D7"/><stop offset=".5" stop-color="#A5B0B8"/><stop offset=".579" stop-color="#8E9CA6"/><stop offset="1" stop-color="#505359"/></radialGradient><linearGradient id="x" x1="319.044" x2="323.373" y1="1672.282" y2="1676.424" xlink:href="#a" gradientUnits="userSpaceOnUse" gradientTransform="translate(-315.412 -1650.271)"/><linearGradient x1="16.571" x2="29.829" y1="3.176" y2="6.89" xlink:href="#b" gradientUnits="userSpaceOnUse" gradientTransform="matrix(1 0 0 1.136 0 -.384)"/><linearGradient id="y" x1="335.044" x2="339.486" y1="1672.203" y2="1676.376" xlink:href="#c" gradientUnits="userSpaceOnUse" gradientTransform="translate(-307.269 -1655.985)"/><linearGradient id="D" x1="334.94" x2="339.776" y1="1683.931" y2="1688.117" xlink:href="#d" gradientUnits="userSpaceOnUse" gradientTransform="translate(-307.269 -1655.985)"/><linearGradient id="C" x1="319.088" x2="323.352" y1="1683.885" y2="1688.137" xlink:href="#e" gradientUnits="userSpaceOnUse" gradientTransform="translate(-307.269 -1655.985)"/><linearGradient id="H" x1="319.249" x2="323.152" y1="1695.584" y2="1699.69" xlink:href="#f" gradientUnits="userSpaceOnUse" gradientTransform="translate(-307.269 -1655.985)"/><linearGradient id="I" x1="335.188" x2="339.697" y1="1695.509" y2="1700.018" xlink:href="#g" gradientUnits="userSpaceOnUse" gradientTransform="translate(-307.269 -1655.985)"/><linearGradient id="K" x1="16.571" x2="29.829" y1="3.176" y2="6.89" xlink:href="#b" gradientUnits="userSpaceOnUse" gradientTransform="matrix(1.123 0 0 1.24 -10.102 -2.302)"/><linearGradient id="J" x1="21.286" x2="21.429" y1="8.571" y2="16.143" xlink:href="#h" gradientUnits="userSpaceOnUse" gradientTransform="matrix(1.137 0 0 .577 -10.793 3.054)"/><linearGradient id="G" x1="325.535" x2="332.969" y1="1695.768" y2="1699.636" xlink:href="#i" gradientUnits="userSpaceOnUse" gradientTransform="matrix(1.092 0 0 1.092 -345.101 -1811.161)"/><linearGradient id="F" x1="330.397" x2="338.002" y1="1690.056" y2="1693.69" xlink:href="#j" gradientUnits="userSpaceOnUse" gradientTransform="matrix(1.092 0 0 1.092 -345.101 -1811.161)"/><linearGradient id="E" x1="320.573" x2="328.444" y1="1690.075" y2="1693.59" xlink:href="#k" gradientUnits="userSpaceOnUse" gradientTransform="matrix(1.092 0 0 1.092 -345.101 -1811.161)"/><linearGradient id="B" x1="325.571" x2="332.945" y1="1684.063" y2="1688.052" xlink:href="#l" gradientUnits="userSpaceOnUse" gradientTransform="matrix(1.092 0 0 1.092 -345.101 -1811.161)"/><linearGradient id="A" x1="330.245" x2="337.943" y1="1678.3" y2="1682.045" xlink:href="#m" gradientUnits="userSpaceOnUse" gradientTransform="matrix(1.092 0 0 1.092 -345.101 -1811.161)"/><linearGradient id="z" x1="320.909" x2="328.447" y1="1678.346" y2="1682.182" xlink:href="#n" gradientUnits="userSpaceOnUse" gradientTransform="matrix(1.092 0 0 1.092 -345.101 -1811.161)"/><linearGradient id="w" x1="325.282" x2="332.887" y1="1672.295" y2="1676.334" xlink:href="#o" gradientUnits="userSpaceOnUse" gradientTransform="matrix(1.092 0 0 1.092 -345.101 -1811.161)"/><linearGradient id="v" x1="330.378" x2="337.982" y1="1666.647" y2="1670.483" xlink:href="#p" gradientUnits="userSpaceOnUse" gradientTransform="matrix(1.092 0 0 1.092 -345.101 -1811.161)"/><linearGradient id="u" x1="320.498" x2="328.231" y1="1666.47" y2="1670.438" xlink:href="#q" gradientUnits="userSpaceOnUse" gradientTransform="matrix(1.092 0 0 1.092 -345.101 -1811.161)"/><linearGradient id="t" x1="22.129" x2="22.129" y1="8.917" y2="45.489" xlink:href="#r" gradientUnits="userSpaceOnUse" gradientTransform="matrix(1.092 0 0 1.092 -9.494 -2.454)"/></defs><g><g transform="matrix(1.186 0 0 1.186 -380.79 -1968.658)"><radialGradient cx="1503.709" cy="1679.003" r="9.817" gradientUnits="userSpaceOnUse" gradientTransform="matrix(-1 0 0 1 1856.516 0)" fy="1679.003" fx="1503.709"><stop offset="0" stop-color="#fff"/><stop offset=".09" stop-color="#F9FAFA"/><stop offset=".211" stop-color="#E8EBED"/><stop offset=".35" stop-color="#CCD2D7"/><stop offset=".5" stop-color="#A5B0B8"/><stop offset=".579" stop-color="#8E9CA6"/><stop offset="1" stop-color="#505359"/></radialGradient><circle cx="354.7" cy="1681.658" r="6.565" fill="url(#s)" stroke="#676d73" stroke-width=".59"/></g><path fill="url(#t)" stroke="#b15011" d="M3.22 6.4h22.91v41.1H3.23z"/><path fill="url(#u)" d="M5.02 9.38c.1-.33.42-.38 1.17-.38.86 0 4.07 0 4.93 0 .5 0 .98 0 1.47 0 .27 0 .76-.1.97.06.37.26.18 1.34.18 1.75 0 .7 0 1.36 0 2.04 0 .86-.5.74-1.22.74-1.44 0-4.15 0-5.6 0-.43 0-1.43.06-1.62-.04-.46-.24-.32-.9-.32-1.33 0-.9-.18-1.95.04-2.82z"/><path fill="#faaf3e" d="M12.88 9.5l-.3.02h.02-6.4c-.5 0-.68.03-.73.05-.03.2-.05.45-.05.7 0 .34.02.7.04 1.04l.04.9v.3c-.02.06-.02.15-.02.25 0 .15 0 .3.07.33 0-.02.96 0 .96 0l.44-.02h5.83s.45-.02.46-.02c0 0 0-.02 0-.05 0-.07 0-.16 0-.16V10.8l.02-.38c0-.13.03-.36.03-.58 0-.17-.02-.3-.05-.4-.02.06-.35.06-.35.06z"/><path fill="url(#v)" d="M15.5 9.38c.1-.33.42-.38 1.18-.38.87 0 4.07 0 4.94 0 .5 0 .98 0 1.47 0 .26 0 .75-.1.96.06.36.26.18 1.34.18 1.75 0 .7 0 1.36 0 2.04 0 .86-.5.74-1.22.74-1.44 0-4.15 0-5.6 0-.43 0-1.43.06-1.62-.04-.47-.24-.33-.9-.33-1.33 0-.9-.2-1.95.04-2.82z"/><path fill="#faaf3e" d="M23.36 9.5l-.28.02h-6.4c-.5 0-.67.03-.72.05-.04.2-.05.45-.05.7 0 .34.03.7.05 1.04l.03.9v.3c0 .06 0 .16 0 .25 0 .16 0 .3.05.33 0-.02.97 0 .97 0l.42-.02h5.84s.45-.02.46-.02c0 0 0-.02 0-.05 0-.07 0-.16 0-.16s0-2.03 0-2.03l.02-.38c0-.12.03-.36.03-.58 0-.17-.02-.3-.05-.4-.02.06-.36.06-.36.06z"/><path fill="url(#w)" d="M10.1 15.74c.08-.33.4-.38 1.17-.38.87 0 4.07 0 4.94 0 .5 0 1 0 1.48 0 .27 0 .76-.1.97.06.36.26.17 1.34.17 1.75 0 .68 0 1.35 0 2.03 0 .86-.5.74-1.2.74-1.46 0-4.17 0-5.6 0-.44 0-1.44.06-1.64-.03-.47-.24-.33-.9-.33-1.33 0-.92-.18-1.96.05-2.83z"/><path fill="#faaf3e" d="M17.95 15.86l-.27.02h-6.4c-.52 0-.68.03-.73.06-.04.2-.06.44-.06.7 0 .33.02.7.04 1.04l.03.9v.27c0 .07-.02.17-.02.26 0 .17.02.3.07.34 0-.02.97 0 .97 0l.4-.02h5.84s.45-.02.47-.02c0 0 0-.02 0-.05 0-.06 0-.14 0-.14s0-2.03 0-2.03l.03-.4c0-.1.02-.35.02-.57 0-.16 0-.3-.04-.38 0 .04-.35.04-.35.04z"/><g><path fill="url(#x)" d="M3.62 22.02c.93 0 1.86 0 2.26 0 .45 0 .9 0 1.34 0 .25 0 .7-.08.9.06.32.24.15 1.23.15 1.6 0 .62 0 1.24 0 1.86 0 .8-.46.68-1.1.68-.9 0-2.32 0-3.55 0v-4.2z" transform="matrix(1.092 0 0 1.092 -1.224 -8.539)"/><path fill="#faaf3e" d="M6.47 16.02H6.2s-2.77 0-3.42 0c0 .72 0 2.84 0 3.55.78 0 3.34 0 3.34 0h.24s.45-.02.46-.02c0 0 0-.02 0-.05 0-.06 0-.15 0-.15v-2.03s.03-.4.03-.4c0-.1.02-.35.02-.56 0-.17 0-.32-.05-.4 0 .05-.35.06-.35.06z"/></g><g><path fill="url(#y)" d="M32.5 20.5c-1.18 0-2.46 0-3.3 0-.4 0-1.3.06-1.48-.03-.43-.22-.3-.82-.3-1.22 0-.84-.17-1.8.04-2.6.07-.3.38-.34 1.07-.34.66 0 2.8 0 3.96 0v4.2z" transform="matrix(1.092 0 0 1.092 -8.87 -2.298)"/><path fill="#faaf3e" d="M22.3 16.03c-.52 0-.7.03-.74.06-.03.2-.05.43-.05.7 0 .32.04.68.05 1.03l.04.9-.02.27c0 .07 0 .17 0 .27 0 .15 0 .3.06.32 0-.03.96-.02.96-.02h.43s2.3 0 3.06 0c0-.72 0-2.84 0-3.55-.82 0-3.8 0-3.8 0z"/></g><path fill="url(#z)" d="M5.02 22.1c.1-.32.42-.38 1.17-.38.86 0 4.07 0 4.93 0 .5 0 .98 0 1.47 0 .27 0 .76-.1.97.06.37.27.18 1.34.18 1.75 0 .68 0 1.36 0 2.04 0 .85-.5.73-1.22.73-1.44 0-4.15 0-5.6 0-.43 0-1.43.07-1.62-.03-.46-.25-.32-.9-.32-1.34 0-.9-.18-1.95.04-2.83z"/><path fill="#faaf3e" d="M12.87 22.23H6.2c-.5 0-.68.04-.73.07-.03.2-.05.45-.05.7 0 .34.02.7.04 1.04l.04.9v.27c-.02.08-.02.18-.02.27 0 .16 0 .3.07.34 0-.02.96 0 .96 0H12.78s.45-.03.46-.03c0 0 0-.02 0-.05 0-.06 0-.15 0-.15v-2.04l.02-.4c0-.1.03-.35.03-.56 0-.17-.02-.32-.05-.4-.02.05-.36.06-.36.06z"/><path fill="url(#A)" d="M15.5 22.1c.1-.32.42-.38 1.18-.38.87 0 4.07 0 4.94 0 .5 0 .98 0 1.47 0 .26 0 .75-.1.96.06.36.27.18 1.34.18 1.75 0 .68 0 1.36 0 2.04 0 .85-.5.73-1.22.73-1.44 0-4.15 0-5.6 0-.43 0-1.43.07-1.62-.03-.47-.25-.33-.9-.33-1.34 0-.9-.2-1.95.04-2.83z"/><path fill="#faaf3e" d="M23.36 22.23H16.68c-.5 0-.67.04-.72.07-.04.2-.05.45-.05.7 0 .33.03.7.05 1.04l.03.9v.27c0 .08 0 .18 0 .28 0 .15 0 .3.05.33 0-.02.97 0 .97 0h6.26s.45-.03.46-.03c0 0 0-.02 0-.05 0-.06 0-.15 0-.15v-2.04l.02-.4c0-.1.03-.35.03-.56 0-.17-.02-.32-.05-.4-.02.05-.36.06-.36.06z"/><path fill="url(#B)" d="M10.1 28.47c.08-.33.4-.4 1.17-.4.87 0 4.07 0 4.94 0 .5 0 1 0 1.48 0 .27 0 .76-.08.97.07.36.27.17 1.35.17 1.75 0 .67 0 1.35 0 2.03 0 .85-.5.74-1.2.74-1.46 0-4.17 0-5.6 0-.44 0-1.44.06-1.64-.04-.47-.24-.33-.9-.33-1.33 0-.92-.18-1.96.05-2.83z"/><path fill="#faaf3e" d="M17.95 28.6H11.27c-.5 0-.67.03-.72.06-.04.2-.06.45-.06.7 0 .34.02.7.04 1.04l.03.9v.27c0 .08-.02.17-.02.27 0 .15.02.3.07.33 0-.02.96 0 .96 0l.43-.02h5.85s.44-.02.45-.02c0 0 0-.02 0-.05 0-.06 0-.15 0-.15V29.9l.03-.4c0-.12.02-.36.02-.57 0-.17 0-.32-.04-.4 0 .06-.35.06-.35.06z"/><g><path fill="url(#C)" d="M11.76 27.96c.93 0 1.86 0 2.26 0 .45 0 .9 0 1.35 0 .24 0 .7-.1.9.06.32.24.15 1.22.15 1.6 0 .62 0 1.24 0 1.86 0 .78-.47.68-1.12.68-.9 0-2.3 0-3.54 0v-4.2z" transform="matrix(1.092 0 0 1.092 -10.118 -2.381)"/><path fill="#faaf3e" d="M6.93 28.65l-.28.02s-2.76 0-3.4 0c0 .7 0 2.83 0 3.54.77 0 3.34 0 3.34 0l.23.02s.45-.02.46-.03c-.02 0-.02-.03-.02-.05 0-.06 0-.16 0-.16v-2.04l.03-.4c.02-.1.04-.35.04-.56 0-.17-.02-.32-.05-.4-.03.05-.37.05-.37.05z"/></g><g><path fill="url(#D)" d="M32.5 32.16c-1.18 0-2.46 0-3.3 0-.4 0-1.3.05-1.48-.04-.43-.22-.3-.82-.3-1.22 0-.84-.17-1.8.04-2.6.07-.3.38-.34 1.07-.34.66 0 2.8 0 3.96 0v4.2z" transform="matrix(1.092 0 0 1.092 -8.87 -2.408)"/><path fill="#faaf3e" d="M22.3 28.64c-.52 0-.7.03-.74.06-.03.2-.05.45-.05.7 0 .33.04.7.05 1.04l.04.9-.02.27c0 .1 0 .18 0 .28 0 .15 0 .3.06.33 0 0 .96 0 .96 0h.43s2.3 0 3.06 0c0-.73 0-2.85 0-3.56-.82 0-3.8 0-3.8 0z"/></g><path fill="url(#E)" d="M5.02 34.83c.1-.33.42-.4 1.17-.4.86 0 4.07 0 4.93 0 .5 0 .98 0 1.47 0 .27 0 .76-.08.97.08.37.27.18 1.35.18 1.76 0 .68 0 1.35 0 2.03 0 .85-.5.73-1.22.73-1.44 0-4.15 0-5.6 0-.43 0-1.43.06-1.62-.04-.46-.25-.32-.9-.32-1.34 0-.92-.18-1.96.04-2.83z"/><path fill="#faaf3e" d="M12.87 34.95H6.2c-.5 0-.68.05-.73.07-.03.2-.05.45-.05.7 0 .34.02.7.04 1.04l.04.9v.28c-.02.07-.02.16-.02.26 0 .15 0 .3.07.33 0-.02.96 0 .96 0l.44-.02h5.83s.45 0 .46 0c0 0 0-.03 0-.06 0-.06 0-.15 0-.15v-2.05l.02-.38c0-.13.03-.37.03-.58 0-.18-.02-.33-.05-.4-.02.05-.36.05-.36.05z"/><path fill="url(#F)" d="M15.5 34.83c.1-.33.42-.4 1.18-.4.87 0 4.07 0 4.94 0 .5 0 .98 0 1.47 0 .26 0 .75-.08.96.08.36.27.18 1.35.18 1.76 0 .68 0 1.35 0 2.03 0 .85-.5.73-1.22.73-1.44 0-4.15 0-5.6 0-.43 0-1.43.06-1.62-.04-.47-.25-.33-.9-.33-1.34 0-.92-.2-1.96.04-2.83z"/><path fill="#faaf3e" d="M23.36 34.95H16.67c-.5 0-.67.05-.72.07-.04.2-.05.45-.05.7 0 .34.03.7.05 1.04l.03.9v.28c0 .07 0 .16 0 .26 0 .15 0 .3.05.33 0-.02.97 0 .97 0l.42-.02h5.84s.45 0 .46 0c0 0 0-.03 0-.06 0-.06 0-.15 0-.15v-2.05l.02-.38c0-.13.03-.36.03-.58 0-.18-.02-.32-.05-.4-.02.05-.36.05-.36.05z"/><path fill="url(#G)" d="M10.1 41.2c.08-.34.4-.4 1.17-.4.87 0 4.07 0 4.94 0 .5 0 1 0 1.48 0 .27 0 .76-.08.97.07.36.26.17 1.34.17 1.75 0 .68 0 1.35 0 2.03 0 .86-.5.74-1.2.74-1.46 0-4.17 0-5.6 0-.44 0-1.44.05-1.64-.05-.47-.24-.33-.9-.33-1.33 0-.92-.18-1.96.05-2.83z"/><path fill="#faaf3e" d="M17.95 41.3l-.28.03h-6.4c-.5 0-.67.03-.72.05-.04.2-.06.45-.06.7 0 .34.02.7.04 1.04l.03.9v.28c0 .07-.02.17-.02.26 0 .15.02.3.07.33 0-.03.96-.02.96-.02h6.27s.45-.03.47-.03c0 0 0-.02 0-.05 0-.06 0-.15 0-.15s0-2.03 0-2.03l.03-.4c0-.1.02-.35.02-.57 0-.17 0-.3-.04-.4 0 .06-.35.06-.35.06z"/><g><path fill="url(#H)" d="M11.76 39.6c.93 0 1.86 0 2.26 0 .45 0 .9 0 1.35 0 .24 0 .7-.08.9.07.32.24.15 1.22.15 1.6 0 .62 0 1.24 0 1.86 0 .78-.47.68-1.12.68-.9 0-2.3 0-3.54 0v-4.2z" transform="matrix(1.092 0 0 1.092 -9.962 -2.454)"/><path fill="#faaf3e" d="M7.1 41.3l-.3.02h.02s-2.77 0-3.42 0c0 .7 0 2.83 0 3.54.78 0 3.34 0 3.34 0h.24s.45-.02.47-.02c0 0 0-.02 0-.05 0-.07 0-.16 0-.16s0-2.03 0-2.03l.02-.38c0-.12.02-.36.02-.58 0-.16-.02-.3-.06-.38 0 .04-.35.04-.35.04z"/></g><g><path fill="url(#I)" d="M32.5 43.8c-1.18 0-2.46 0-3.3 0-.4 0-1.3.06-1.48-.03-.43-.22-.3-.82-.3-1.22 0-.84-.17-1.8.04-2.6.07-.3.38-.34 1.07-.34.66 0 2.8 0 3.96 0v4.2z" transform="matrix(1.092 0 0 1.092 -9.026 -2.454)"/><path fill="#faaf3e" d="M22.13 41.32c-.5 0-.67.03-.72.06-.03.2-.04.44-.04.7 0 .33.02.7.04 1.04l.03.9v.27c0 .06-.02.16-.02.25 0 .16.03.3.08.33 0-.02.97 0 .97 0l.42-.02s2.3 0 3.06 0c0-.7 0-2.83 0-3.54-.8 0-3.8 0-3.8 0z"/></g><path fill="url(#J)" fill-rule="evenodd" d="M2.52 8h24.03v4.37H2.52z" color="#000" overflow="visible"/><path fill="url(#K)" stroke="#888a85" stroke-width="2" d="M1.7 1.2h26.1v6.54H1.7z"/></g></svg>