<svg xmlns="http://www.w3.org/2000/svg" width="48" height="48"><defs><radialGradient id="b" cx="76.483" cy="2226.415" r="8.426" gradientUnits="userSpaceOnUse" gradientTransform="matrix(-1.271 .007 .007 1.271 112.553 -2809.769)" fy="2226.415" fx="76.483"><stop offset="0" stop-color="#fff"/><stop offset=".736" stop-color="#F17912"/><stop offset=".882" stop-color="#BE5A0F"/><stop offset="1" stop-color="#D96A11"/></radialGradient><radialGradient id="c" cx="84.727" cy="2226.368" r="8.426" gradientUnits="userSpaceOnUse" gradientTransform="matrix(-1.271 .007 .007 1.271 112.553 -2809.769)" fy="2226.368" fx="84.727"><stop offset="0" stop-color="#fff"/><stop offset=".736" stop-color="#F17912"/><stop offset=".882" stop-color="#BE5A0F"/><stop offset="1" stop-color="#D96A11"/></radialGradient><radialGradient id="d" cx="91.322" cy="2226.331" r="8.426" gradientUnits="userSpaceOnUse" gradientTransform="matrix(-1.271 .007 .007 1.271 112.553 -2809.769)" fy="2226.331" fx="91.322"><stop offset="0" stop-color="#fff"/><stop offset=".736" stop-color="#F17912"/><stop offset=".882" stop-color="#BE5A0F"/><stop offset="1" stop-color="#D96A11"/></radialGradient><linearGradient id="a" x1="46.64" x2="9.164" y1="442.763" y2="442.763" gradientUnits="userSpaceOnUse"><stop offset=".028" stop-color="#fff"/><stop offset="1" stop-color="#F4A754"/></linearGradient><radialGradient id="e" cx="96.268" cy="2226.303" r="8.426" gradientUnits="userSpaceOnUse" gradientTransform="matrix(-1.271 .007 .007 1.271 112.553 -2809.769)" fy="2226.303" fx="96.268"><stop offset="0" stop-color="#fff"/><stop offset=".736" stop-color="#F17912"/><stop offset=".882" stop-color="#BE5A0F"/><stop offset="1" stop-color="#D96A11"/></radialGradient></defs><g><path fill="url(#a)" d="M46.98 435.43H9.12l.08 14.67h37.78v-14.67z" transform="translate(-.731 -419.334)"/><path fill="url(#b)" stroke="#3f1c08" stroke-width=".6" d="M26.25 23.47c.02 4.05 3.32 7.32 7.37 7.3 4.06-.03 7.32-3.33 7.3-7.38-.02-4.06-3.33-7.33-7.38-7.3-4.05.02-7.32 3.32-7.3 7.37z" opacity=".2"/><path fill="url(#c)" stroke="#3f1c08" stroke-width=".6" d="M15.77 23.47c.02 4.05 3.32 7.32 7.38 7.3 4.05-.03 7.32-3.33 7.3-7.38-.03-4.06-3.34-7.33-7.4-7.3-4.04.02-7.3 3.32-7.28 7.37z" opacity=".4"/><path fill="url(#d)" stroke="#3f1c08" stroke-width=".6" d="M7.4 23.47c0 4.05 3.3 7.32 7.36 7.3 4.05-.03 7.32-3.33 7.3-7.38-.02-4.06-3.33-7.33-7.38-7.3-4.05.02-7.32 3.32-7.3 7.37z" opacity=".65"/><path fill="none" stroke="#fff" d="M8.4 15.5c-2.13 0-4.12.84-5.6 2.35-1.5 1.5-2.3 3.5-2.3 5.62s.85 4.1 2.35 5.6 3.5 2.3 5.63 2.3c2.12-.02 4.1-.85 5.6-2.36 1.5-1.5 2.3-3.5 2.3-5.62-.03-4.37-3.6-7.9-8-7.9z" opacity=".7"/><path fill="url(#e)" stroke="#3f1c08" stroke-width=".6" d="M1.1 23.47c.02 4.05 3.32 7.32 7.37 7.3 4.06-.03 7.32-3.33 7.3-7.38-.02-4.06-3.33-7.33-7.38-7.3-4.06.02-7.33 3.32-7.3 7.37z"/></g></svg>