<svg xmlns="http://www.w3.org/2000/svg" width="48" height="48" xmlns:xlink="http://www.w3.org/1999/xlink"><defs><linearGradient id="i"><stop offset="0" stop-color="#a6c2e1"/><stop offset="1" stop-color="#498acf"/></linearGradient><linearGradient id="h"><stop offset="0" stop-color="#204a87"/><stop offset="1" stop-color="#204a87" stop-opacity="0"/></linearGradient><linearGradient id="f"><stop offset="0" stop-color="#3465a4"/><stop offset="1" stop-color="#c2deea"/></linearGradient><linearGradient><stop offset="0" stop-color="#3465a4"/><stop offset="1" stop-color="#3465a4"/></linearGradient><linearGradient id="d"><stop offset="0" stop-color="#c7dfe0"/><stop offset="1" stop-color="#b1efff" stop-opacity="0"/></linearGradient><linearGradient id="b"><stop offset="0" stop-color="#2f4664"/><stop offset="1" stop-color="#3e5d84" stop-opacity="0"/></linearGradient><linearGradient id="a"><stop offset="0" stop-color="#fff"/><stop offset="1" stop-color="#fff" stop-opacity="0"/></linearGradient><linearGradient id="c"><stop offset="0" stop-color="#b8c7d9"/><stop offset=".321" stop-color="#54769c"/><stop offset=".491" stop-color="#b8c8d9"/><stop offset=".691" stop-color="#54769c"/><stop offset="1" stop-color="#b8c8d9"/></linearGradient><radialGradient cx="24.277" cy="30.201" r="7.528" xlink:href="#a" gradientUnits="userSpaceOnUse" gradientTransform="matrix(1 0 0 .295 0 21.304)" fx="24.277" fy="30.201"/><radialGradient cx="24.277" cy="30.201" r="7.528" xlink:href="#a" gradientUnits="userSpaceOnUse" gradientTransform="matrix(1 0 0 .295 0 21.304)" fx="24.277" fy="30.201"/><radialGradient cx="19.998" cy="41.295" r="5.494" xlink:href="#b" gradientUnits="userSpaceOnUse" gradientTransform="matrix(1.371 0 0 -.363 -3.148 41.369)" fx="19.998" fy="41.295"/><radialGradient cx="19.998" cy="41.295" r="5.494" xlink:href="#b" gradientUnits="userSpaceOnUse" gradientTransform="matrix(.83 0 0 .363 7.717 6.189)" fx="19.998" fy="41.295"/><radialGradient cx="23.402" cy="37.269" r="24.405" xlink:href="#c" gradientUnits="userSpaceOnUse" gradientTransform="matrix(1 0 0 .573 0 1.625)" spreadMethod="pad" fx="23.402" fy="37.269"/><radialGradient cx="24.277" cy="30.201" r="7.528" xlink:href="#a" gradientUnits="userSpaceOnUse" gradientTransform="matrix(1 0 0 .295 0 21.304)" fx="24.277" fy="30.201"/><radialGradient cx="23.402" cy="37.269" r="24.405" xlink:href="#c" gradientUnits="userSpaceOnUse" gradientTransform="matrix(1 0 0 .573 0 1.625)" spreadMethod="pad" fx="23.402" fy="37.269"/><radialGradient cx="24.277" cy="30.201" r="7.528" xlink:href="#a" gradientUnits="userSpaceOnUse" gradientTransform="matrix(1 0 0 .295 0 21.304)" fx="24.277" fy="30.201"/><radialGradient cx="19.998" cy="41.295" r="5.494" xlink:href="#b" gradientUnits="userSpaceOnUse" gradientTransform="matrix(.83 0 0 .363 7.717 6.189)" fx="19.998" fy="41.295"/><radialGradient cx="19.998" cy="41.295" r="5.494" xlink:href="#b" gradientUnits="userSpaceOnUse" gradientTransform="matrix(1.371 0 0 -.363 -3.148 41.369)" fx="19.998" fy="41.295"/><linearGradient id="l" x1="14.236" x2="4.506" y1="19.527" y2="19.201" xlink:href="#d" gradientUnits="userSpaceOnUse" gradientTransform="translate(0 -6.596)"/><linearGradient id="m" x1="14.236" x2="4.506" y1="19.527" y2="19.201" xlink:href="#d" gradientUnits="userSpaceOnUse" gradientTransform="translate(9.534 -10.579)"/><linearGradient id="n" x1="14.236" x2="4.506" y1="19.527" y2="19.201" xlink:href="#d" gradientUnits="userSpaceOnUse" gradientTransform="translate(17.24 -12.538)"/><linearGradient id="p" x1="12.865" x2="6.269" y1="22.205" y2="16.458" xlink:href="#d" gradientUnits="userSpaceOnUse" gradientTransform="translate(17.893 -4.637)"/><linearGradient id="q" x1="14.171" x2="4.963" y1="18.156" y2="13.258" xlink:href="#d" gradientUnits="userSpaceOnUse" gradientTransform="translate(25.599 -6.596)"/><linearGradient id="o" x1="2.024" x2="-4.506" y1="27.625" y2="21.356" xlink:href="#e" gradientUnits="userSpaceOnUse" gradientTransform="translate(17.893 -4.637)"/><linearGradient id="e"><stop offset="0" stop-color="#c7dfe0"/><stop offset="1" stop-color="#b1efff" stop-opacity="0"/></linearGradient><linearGradient x1="14.236" x2="4.506" y1="19.527" y2="19.201" gradientTransform="translate(2.087 -14.893)" gradientUnits="userSpaceOnUse" xlink:href="#e"/><linearGradient id="s" x1="6.792" x2="3.069" y1="25.862" y2="20.376" xlink:href="#d" gradientUnits="userSpaceOnUse" gradientTransform="translate(29.452 -2.677)"/><linearGradient id="t" x1="37.289" x2="48.064" y1="19.135" y2="21.944" xlink:href="#f" gradientUnits="userSpaceOnUse" gradientTransform="translate(0 -6.596)"/><linearGradient id="g"><stop offset="0" stop-color="#3465a4"/><stop offset="1" stop-color="#3465a4" stop-opacity="0"/></linearGradient><linearGradient x1="36.636" x2="48.064" y1="19.005" y2="21.944" gradientTransform="translate(-36.443 -14.175)" gradientUnits="userSpaceOnUse" xlink:href="#g"/><linearGradient id="r" x1="20.832" x2="26.71" y1="29.127" y2="35.2" xlink:href="#f" gradientUnits="userSpaceOnUse" gradientTransform="translate(0 -6.596)"/><radialGradient id="j" cx="23.901" cy="38.139" r="23.706" xlink:href="#h" fx="23.901" fy="38.139" gradientTransform="matrix(1 0 0 .413 0 22.379)" gradientUnits="userSpaceOnUse"/><radialGradient id="k" cx="23.844" cy="22.417" r="24.062" xlink:href="#i" fx="23.844" fy="22.417" gradientTransform="matrix(1.176 -.02 .012 .672 -4.555 10.554)" gradientUnits="userSpaceOnUse"/></defs><g><path fill="url(#j)" d="M47.6 38.14a23.7 9.8 0 1 1-47.4 0 23.7 9.8 0 1 1 47.4 0z" transform="matrix(1 0 0 1.397 0 -19.014)" color="#000" overflow="visible" enable-background="accumulate"/><path fill="url(#k)" stroke="#204a87" stroke-width=".75" d="M.4 15.54v14.7l23.1 13.43 24.27-14.1V15.1z" color="#000" stroke-linejoin="round" overflow="visible" enable-background="accumulate"/><path fill="#204a87" fill-opacity=".268" d="M23.5 43.3V15.8l24.17-.13-.26 13.72z"/><path fill="#729fcf" d="M24.38 2.26c2.07 1.8 5.1 1.88 6.7 1.25 2.83 4.77 5.6 6.32 11.4 4.36 1.12 4.32 1.74 6.34 5.65 7.35-2.22 1.63-4.45 3.26-6.33.46-3.33 5.7-3.85 9.68-11.53 7.64-.88 4.74-3.85 7.77-6.5 10.07-2.55.04-6.14-3.23-7.57-7.8-5 .45-9.33-4.12-10.15-9.52l-5.73-.42c3.3-2.33 6.36-4.74 6.83-8C12.3 10 14.93 9.16 16.7 4.3c1.8 1.38 6.04-.18 7.68-2.04z"/><path fill="url(#l)" d="M.2 15.6c3.44-1.93 6.24-4.3 6.92-8.15 1.78 4.1 5.44 5.57 8.23 4.44-.7 3.57-3.93 7.34-9.08 4.3z"/><path fill="url(#m)" d="M7.5 7.64c4.04 2.83 8.28.77 9.15-3.26C18.9 9.5 24.32 8.25 27.1 6.92c-1.87 4.56-6.54 6.96-11.5 4.7-3.24 1.95-7.7-.93-8.1-3.98z"/><path fill="url(#n)" d="M16.9 4.3c2.15 1.2 5.8-.13 7.46-1.88 1.33 1.28 4.13 1.9 6.72 1.24-.36 3.2-2.1 4.6-4.04 2.94-4.5 2.92-9.42 1.35-10.13-2.3z"/><path fill="url(#o)" d="M6.14 16.26c5.8 2.76 8.66 0 9.34-4.63 1.65 4.15 6.3 6.94 9.07 5.8-.04 5.55-3.6 7.7-8.3 8.04-5.96.4-9.32-4.8-10.1-9.2z" color="#000" overflow="visible" enable-background="accumulate"/><path fill="url(#p)" d="M15.67 11.56c4.04 2.83 10.5-.6 11.37-4.64 2.04 4.1 6.74 6.5 9.53 5.16-1.33 5.88-8.02 8.95-11.95 5.5-2.72.5-7.4-1.46-8.95-6.02z"/><path fill="url(#q)" d="M26.97 6.92c2.34 1.32 4.2-.8 4.18-3.52 2.33 5.12 5.98 6.53 11.56 4.18-.36 3.2-3.6 6.83-6.13 4.57-3.64 1.5-8.05-1.78-9.6-5.23z"/><path fill="url(#r)" d="M16.06 25.47c4.04-.12 8.18-1.55 8.5-7.9.2 3.57 2.82 6.1 5.74 5.55-.63 4.23-2.95 7.48-6.46 10.5-2.46-.57-7.14-4.16-7.78-8.15z" color="#000" overflow="visible" enable-background="accumulate"/><path fill="url(#s)" d="M24.62 17.5c4.5 3.6 11.27-.33 11.95-5.22.74 2.2 3.22 3.94 5.22 3.46-1.8 3.84-4.26 10.36-11.43 7.3-2.53.9-5.37-1.64-5.75-5.54z"/><path fill="url(#t)" d="M36.5 12.34c3.2 1.66 5.73-1.38 6.34-4.7.02 4.1 2.37 7.27 5.42 7.5-2.2 1.96-4 3.38-6.53.66-2.2.38-4.46-.8-5.22-3.46z"/><path fill="none" stroke="#204a87" stroke-width=".5" d="M30.3 23.12c-2.5.7-6.04-1.56-5.78-5.53-4.35.92-8.13-3.84-9.17-5.78-3.33 1.26-6.37.1-8.36-4.05" opacity=".5"/><path fill="none" stroke="#204a87" stroke-width=".5" d="M41.8 15.67c-2.5.7-5.07-1.68-5.33-3.37-5.65 1.06-8.53-3.3-9.56-5.25-4.76 1.66-8.26 1.98-10.25-3.07" opacity=".5"/><path fill="none" stroke="#204a87" stroke-width=".5" d="M16.13 25.4c5.3-.1 7.8-2.86 8.4-7.67C30.36 21 34.74 16.9 36.7 12.4c3 1.07 5.32-1.2 5.8-4.7" opacity=".5"/><path fill="none" stroke="#204a87" stroke-width=".5" d="M6.4 16c3.4 2.78 8.2.86 9.04-4.15 4.88 1.84 9.5.08 11.6-4.93 2.35 1.13 3.88-1.15 3.85-3.26" opacity=".5"/><path fill="none" stroke="#204a87" stroke-width=".75" d="M24.5 2.2c2.08 1.78 5.1 1.87 6.7 1.24 2.84 4.77 5.6 6.3 11.4 4.36 1.13 4.32 1.75 6.33 5.66 7.35-2.22 1.6-4.45 3.24-6.33.44-3.33 5.7-3.85 9.68-11.53 7.64-.88 4.74-3.85 7.76-6.5 10.07-2.55.04-6.13-3.22-7.57-7.8-5 .46-9.33-4.12-10.15-9.5l-5.73-.44c3.3-2.33 6.36-4.74 6.83-8 5.16 2.4 7.78 1.53 9.56-3.32 1.78 1.38 6.03-.18 7.67-2.05z" stroke-linejoin="round"/></g></svg>