<svg xmlns="http://www.w3.org/2000/svg" width="48" height="48"><defs><radialGradient id="a" cx="22.335" cy="19.427" r="26.042" gradientUnits="userSpaceOnUse" fy="19.427" fx="22.335" gradientTransform="matrix(1.074 0 0 1.073 -3.594 -.487)"><stop offset="0" stop-color="#fff"/><stop offset=".635" stop-color="#3A80B8"/><stop offset=".876" stop-color="#295591"/><stop offset="1" stop-color="#3068A2"/></radialGradient><radialGradient id="c" cx="31.435" cy="41.049" r="33.475" gradientUnits="userSpaceOnUse" gradientTransform="matrix(0 1 1 0 -23.738 -11.524)" fy="41.049" fx="31.435"><stop offset="0" stop-color="#CED7E4"/><stop offset=".685" stop-color="#2E659E"/><stop offset="1" stop-color="#1D3E63"/></radialGradient><radialGradient id="b" cx="600.328" cy="45.813" r="17.392" gradientUnits="userSpaceOnUse" gradientTransform="matrix(0 -1 1 0 -23.738 626.971)" fy="45.813" fx="600.328"><stop offset="0" stop-color="#fff"/><stop offset=".071" stop-color="#DBE8F2"/><stop offset=".195" stop-color="#A2C3DE"/><stop offset=".31" stop-color="#75A6CD"/><stop offset=".413" stop-color="#5591C2"/><stop offset=".498" stop-color="#4185BB"/><stop offset=".556" stop-color="#3A80B8"/><stop offset=".876" stop-color="#295591"/><stop offset="1" stop-color="#3068A2"/></radialGradient></defs><g><path fill="url(#a)" stroke="#152a4c" d="M23.44 47.5c10.15 0 14.5-8.7 14.5-14.02 0-4.14-1.26-8.38-4.94-13.84-3.3-4.9-7.78-12.35-9.56-18.2-1.8 5.85-6.28 13.3-9.57 18.2-3.68 5.46-4.95 9.7-4.95 13.84 0 5.3 4.2 14.02 14.52 14.02z"/><g transform="matrix(1.074 0 0 1.073 -3.594 -.487)"><radialGradient cx="600.328" cy="45.813" r="17.392" gradientUnits="userSpaceOnUse" gradientTransform="matrix(0 -1 1 0 -23.738 626.971)" fy="45.813" fx="600.328"><stop offset="0" stop-color="#fff"/><stop offset=".071" stop-color="#DBE8F2"/><stop offset=".195" stop-color="#A2C3DE"/><stop offset=".31" stop-color="#75A6CD"/><stop offset=".413" stop-color="#5591C2"/><stop offset=".498" stop-color="#4185BB"/><stop offset=".556" stop-color="#3A80B8"/><stop offset=".876" stop-color="#295591"/><stop offset="1" stop-color="#3068A2"/></radialGradient><path fill="url(#b)" d="M25.16 17.92c7.34 0 13.29 5.94 13.29 13.27 0 7.33-5.95 13.28-13.3 13.28-7.33 0-13.28-5.95-13.28-13.3 0-7.32 5.95-13.26 13.3-13.26z"/><g><radialGradient cx="31.435" cy="41.049" r="33.475" gradientUnits="userSpaceOnUse" gradientTransform="matrix(0 1 1 0 -23.738 -11.524)" fy="41.049" fx="31.435"><stop offset="0" stop-color="#CED7E4"/><stop offset=".685" stop-color="#2E659E"/><stop offset="1" stop-color="#1D3E63"/></radialGradient><path fill="url(#c)" d="M11.63 31.2c0 3.6 1.4 7 3.96 9.55 2.56 2.56 5.94 3.96 9.56 3.96 3.6 0 7-1.4 9.56-3.95 2.57-2.55 3.96-5.93 3.96-9.55 0-7.45-6.06-13.52-13.52-13.52-7.45 0-13.53 6.07-13.53 13.52zm26 0c0 3.33-1.3 6.44-3.65 8.8-2.37 2.36-5.5 3.65-8.82 3.65-3.34 0-6.46-1.3-8.8-3.65-2.37-2.36-3.67-5.47-3.67-8.8 0-6.87 5.6-12.47 12.46-12.47 6.87 0 12.46 5.6 12.46 12.46z"/></g></g><g opacity=".6"><path fill="#fff" d="M22.94 4.4c-2.48 6.15-6.86 12.92-8.63 15.54-3.35 5-4.85 9.17-4.85 13.54 0 4.4 3.42 13.48 14 13.48 9.52 0 13.96-8.04 13.96-13.48 0-4.38-1.5-8.56-4.84-13.54-1.77-2.62-6.15-9.4-8.62-15.53l-.5-1.23-.5 1.24zM10.54 33.5c0-4.14 1.43-8.13 4.67-12.94 1.68-2.5 5.67-8.68 8.24-14.6 2.56 5.92 6.55 12.1 8.23 14.6 3.23 4.8 4.66 8.78 4.66 12.94 0 5-4.1 12.4-12.9 12.4-9.75 0-12.9-8.35-12.9-12.4z"/></g></g></svg>