<svg xmlns="http://www.w3.org/2000/svg" width="48" height="48"><defs><radialGradient id="h" cx="339.498" cy="428.408" r="5.153" gradientUnits="userSpaceOnUse" fy="428.408" fx="339.498"><stop offset="0" stop-color="#fff"/><stop offset=".685" stop-color="#2E659E"/><stop offset="1" stop-color="#1D3E63"/></radialGradient><radialGradient id="g" cx="195.265" cy="429.267" r="3.637" gradientUnits="userSpaceOnUse" gradientTransform="matrix(-1 0 0 1 535.407 0)" fy="429.267" fx="195.265"><stop offset="0" stop-color="#fff"/><stop offset=".09" stop-color="#DBE8F2"/><stop offset=".248" stop-color="#A2C3DE"/><stop offset=".395" stop-color="#75A6CD"/><stop offset=".525" stop-color="#5590C2"/><stop offset=".634" stop-color="#4184BB"/><stop offset=".708" stop-color="#3A7FB8"/><stop offset="1" stop-color="#244A87"/></radialGradient><radialGradient id="f" cx="351.189" cy="435.25" r="9.462" gradientUnits="userSpaceOnUse" fy="435.25" fx="351.189"><stop offset="0" stop-color="#FAFAFA"/><stop offset=".332" stop-color="#F8E1CE"/><stop offset=".567" stop-color="#F6D2B3"/><stop offset="1" stop-color="#FAAF3D"/></radialGradient><radialGradient id="e" cx="348.873" cy="709.792" r="9.091" gradientUnits="userSpaceOnUse" gradientTransform="matrix(1 0 0 1.334 0 -511.113)" fy="709.792" fx="348.873"><stop offset="0" stop-color="#fff"/><stop offset=".458" stop-color="#FFAF33"/><stop offset=".559" stop-color="#F8A32D"/><stop offset=".739" stop-color="#E6841C"/><stop offset=".854" stop-color="#D96D10"/></radialGradient><radialGradient id="d" cx="367.341" cy="431.806" r="12.984" gradientUnits="userSpaceOnUse" fy="431.806" fx="367.341"><stop offset="0" stop-color="#FAFAFA"/><stop offset=".238" stop-color="#F7E2CF"/><stop offset=".596" stop-color="#F4C093"/><stop offset=".861" stop-color="#F2AB6E"/><stop offset="1" stop-color="#F1A360"/></radialGradient><radialGradient id="c" cx="366.193" cy="708.806" r="8.033" gradientUnits="userSpaceOnUse" gradientTransform="matrix(1 0 0 1.334 0 -511.113)" fy="708.806" fx="366.193"><stop offset="0" stop-color="#FFAF33"/><stop offset=".184" stop-color="#FEAB30"/><stop offset=".378" stop-color="#FB9E29"/><stop offset=".575" stop-color="#F5891C"/><stop offset=".693" stop-color="#F17912"/><stop offset="1" stop-color="#B35A0D"/></radialGradient><linearGradient id="b" x1="5849.694" x2="5854.938" y1="-4379.211" y2="-4378.933" gradientTransform="matrix(1.479 .033 -.022 1 -8406.498 4615.077)" gradientUnits="userSpaceOnUse"><stop offset="0" stop-color="#C7DCEB"/><stop offset=".273" stop-color="#DAE8F2"/><stop offset=".73" stop-color="#F5F9FB"/><stop offset="1" stop-color="#fff"/></linearGradient><linearGradient id="a" x1="5849.391" x2="5858.448" y1="-4379.257" y2="-4379.267" gradientTransform="matrix(1.479 .033 -.022 1 -8406.498 4615.077)" gradientUnits="userSpaceOnUse"><stop offset="0" stop-color="#DAE8F2"/><stop offset="1" stop-color="#fff"/></linearGradient><linearGradient id="i" x1="5857.932" x2="5872.464" y1="-4037.211" y2="-4037.227" gradientTransform="matrix(1.479 .033 -.031 1.389 -8771.637 5446.559)" gradientUnits="userSpaceOnUse"><stop offset="0" stop-color="#DAE8F2"/><stop offset="1" stop-color="#fff"/></linearGradient><linearGradient id="j" x1="5857.868" x2="5867.949" y1="-4037.277" y2="-4036.741" gradientTransform="matrix(1.479 .033 -.031 1.389 -8771.637 5446.559)" gradientUnits="userSpaceOnUse"><stop offset="0" stop-color="#C7DCEB"/><stop offset=".273" stop-color="#DAE8F2"/><stop offset=".73" stop-color="#F5F9FB"/><stop offset="1" stop-color="#fff"/></linearGradient><radialGradient id="k" cx="380.638" cy="444.215" r="13.944" gradientUnits="userSpaceOnUse" fy="444.215" fx="380.638" gradientTransform="translate(-337.375 -410.294)"><stop offset="0" stop-color="#FFAF33"/><stop offset=".184" stop-color="#FEAB30"/><stop offset=".378" stop-color="#FB9E29"/><stop offset=".575" stop-color="#F5891C"/><stop offset=".693" stop-color="#F17912"/><stop offset="1" stop-color="#B35A0D"/></radialGradient><radialGradient id="l" cx="384.492" cy="452.616" r="4.353" gradientUnits="userSpaceOnUse" fy="452.616" fx="384.492"><stop offset="0" stop-color="#FAFAFA"/><stop offset=".238" stop-color="#F7E2CF"/><stop offset=".596" stop-color="#F4C093"/><stop offset=".861" stop-color="#F2AB6E"/><stop offset="1" stop-color="#F1A360"/></radialGradient><radialGradient id="n" cx="347.954" cy="439.334" r="7.354" gradientUnits="userSpaceOnUse" fy="439.334" fx="347.954"><stop offset="0" stop-color="#fff"/><stop offset=".685" stop-color="#2E659E"/><stop offset="1" stop-color="#1D3E63"/></radialGradient><radialGradient id="m" cx="186.534" cy="440.559" r="5.19" gradientUnits="userSpaceOnUse" gradientTransform="matrix(-1 0 0 1 535.407 0)" fy="440.559" fx="186.534"><stop offset="0" stop-color="#fff"/><stop offset=".09" stop-color="#DBE8F2"/><stop offset=".248" stop-color="#A2C3DE"/><stop offset=".395" stop-color="#75A6CD"/><stop offset=".525" stop-color="#5590C2"/><stop offset=".634" stop-color="#4184BB"/><stop offset=".708" stop-color="#3A7FB8"/><stop offset="1" stop-color="#244A87"/></radialGradient><radialGradient id="o" cx="371.492" cy="434.116" r="21.842" gradientUnits="userSpaceOnUse" fy="434.116" fx="371.492" gradientTransform="translate(-337.375 -410.294)"><stop offset="0" stop-color="#fff"/><stop offset=".458" stop-color="#FFAF33"/><stop offset=".559" stop-color="#F8A32D"/><stop offset=".739" stop-color="#E6841C"/><stop offset=".854" stop-color="#D96D10"/></radialGradient><radialGradient id="p" cx="370.349" cy="437.49" r="15.957" gradientUnits="userSpaceOnUse" fy="437.49" fx="370.349"><stop offset="0" stop-color="#FAFAFA"/><stop offset=".332" stop-color="#F8E1CE"/><stop offset=".567" stop-color="#F6D2B3"/><stop offset="1" stop-color="#FAAF3D"/></radialGradient><radialGradient id="w" cx="365.051" cy="421.44" r="9.5" gradientUnits="userSpaceOnUse" fy="421.44" fx="365.051"><stop offset="0" stop-color="#FAFAFA"/><stop offset=".458" stop-color="#FAD59D"/><stop offset=".828" stop-color="#FABA58"/><stop offset="1" stop-color="#FAAF3D"/></radialGradient><radialGradient id="v" cx="366.91" cy="419.203" r="17.418" gradientUnits="userSpaceOnUse" fy="419.203" fx="366.91"><stop offset="0" stop-color="#fff"/><stop offset=".458" stop-color="#FFAF33"/><stop offset=".559" stop-color="#F8A32D"/><stop offset=".739" stop-color="#E6841C"/><stop offset=".854" stop-color="#D96D10"/></radialGradient><radialGradient id="u" cx="381.826" cy="425.953" r="10.384" gradientUnits="userSpaceOnUse" fy="425.953" fx="381.826"><stop offset="0" stop-color="#FFAF33"/><stop offset=".184" stop-color="#FEAB30"/><stop offset=".378" stop-color="#FB9E29"/><stop offset=".575" stop-color="#F5891C"/><stop offset=".693" stop-color="#F17912"/><stop offset="1" stop-color="#B35A0D"/></radialGradient><radialGradient id="t" cx="354.766" cy="423.349" r="5.702" gradientUnits="userSpaceOnUse" fy="423.349" fx="354.766"><stop offset="0" stop-color="#fff"/><stop offset=".685" stop-color="#2E659E"/><stop offset="1" stop-color="#1D3E63"/></radialGradient><radialGradient id="s" cx="179.929" cy="424.299" r="4.024" gradientUnits="userSpaceOnUse" gradientTransform="matrix(-1 0 0 1 535.407 0)" fy="424.299" fx="179.929"><stop offset="0" stop-color="#fff"/><stop offset=".09" stop-color="#DBE8F2"/><stop offset=".248" stop-color="#A2C3DE"/><stop offset=".395" stop-color="#75A6CD"/><stop offset=".525" stop-color="#5590C2"/><stop offset=".634" stop-color="#4184BB"/><stop offset=".708" stop-color="#3A7FB8"/><stop offset="1" stop-color="#244A87"/></radialGradient><linearGradient id="r" x1="5860.417" x2="5865.66" y1="-4240.178" y2="-4239.899" gradientTransform="matrix(1.479 .033 -.025 1.135 -8415.959 5042.373)" gradientUnits="userSpaceOnUse"><stop offset="0" stop-color="#C7DCEB"/><stop offset=".273" stop-color="#DAE8F2"/><stop offset=".73" stop-color="#F5F9FB"/><stop offset="1" stop-color="#fff"/></linearGradient><linearGradient id="q" x1="5860.114" x2="5869.17" y1="-4240.223" y2="-4240.232" gradientTransform="matrix(1.479 .033 -.025 1.135 -8415.959 5042.373)" gradientUnits="userSpaceOnUse"><stop offset="0" stop-color="#DAE8F2"/><stop offset="1" stop-color="#fff"/></linearGradient></defs><g><g transform="translate(-337.375 -410.294)" opacity=".7"><linearGradient x1="5849.391" x2="5858.448" y1="-4379.257" y2="-4379.267" gradientTransform="matrix(1.479 .033 -.022 1 -8406.498 4615.077)" gradientUnits="userSpaceOnUse"><stop offset="0" stop-color="#DAE8F2"/><stop offset="1" stop-color="#fff"/></linearGradient><path fill="url(#a)" d="M339.96 427.8c2.22.04 3.68 1.43 3.65 2.93-.03 1.5-1 2.85-3.22 2.8l14.8-.95c1.3.03 2.36-.66 2.38-1.53.02-.87-1-1.6-2.3-1.63l-15.3-1.63z"/><linearGradient x1="5849.694" x2="5854.938" y1="-4379.211" y2="-4378.933" gradientTransform="matrix(1.479 .033 -.022 1 -8406.498 4615.077)" gradientUnits="userSpaceOnUse"><stop offset="0" stop-color="#C7DCEB"/><stop offset=".273" stop-color="#DAE8F2"/><stop offset=".73" stop-color="#F5F9FB"/><stop offset="1" stop-color="#fff"/></linearGradient><path fill="url(#b)" d="M342.6 428.98s1.04.62 1 1.75c-.02 1.05-.9 1.66-.9 1.66l9.9-.3c.5 0 1.36-.5 1.38-1.14 0-.65-.74-1.2-1.33-1.2l-10.05-.78z"/><path fill="none" stroke="#994408" stroke-width="1.5" d="M358 427.6c1.95-.87 3.63-1.5 6.3-.57.3 1.67.3 3.53 1.96 5.87-3.43-4.44-8.36-5.18-11.45-2.8.87-.88 1.53-1.6 3.2-2.5"/><path fill="none" stroke="#994408" stroke-width="1.5" d="M354.58 429.94c1-1 1.75-1.83 3.67-2.88-5.68 3.12-8.7 1.92-9.8.43-.7.77-2.63 2.75-2.63 2.75 0 .27 2.16 2.6 3.1 3.65 1.05-1.38 1.8.56 5.66-3.96z"/><radialGradient cx="366.193" cy="708.806" r="8.033" gradientUnits="userSpaceOnUse" gradientTransform="matrix(1 0 0 1.334 0 -511.113)" fy="708.806" fx="366.193"><stop offset="0" stop-color="#FFAF33"/><stop offset=".184" stop-color="#FEAB30"/><stop offset=".378" stop-color="#FB9E29"/><stop offset=".575" stop-color="#F5891C"/><stop offset=".693" stop-color="#F17912"/><stop offset="1" stop-color="#B35A0D"/></radialGradient><path fill="url(#c)" d="M358 427.6c1.95-.87 3.63-1.5 6.3-.57.3 1.67.3 3.53 1.96 5.87-3.43-4.44-8.36-5.18-11.45-2.8.87-.88 1.53-1.6 3.2-2.5"/><g><radialGradient cx="367.341" cy="431.806" r="12.984" gradientUnits="userSpaceOnUse" fy="431.806" fx="367.341"><stop offset="0" stop-color="#FAFAFA"/><stop offset=".238" stop-color="#F7E2CF"/><stop offset=".596" stop-color="#F4C093"/><stop offset=".861" stop-color="#F2AB6E"/><stop offset="1" stop-color="#F1A360"/></radialGradient><path fill="url(#d)" d="M358.02 427.58c-.8.45-1.43.87-2 1.36l-.93.88 1.14-.52c1.1-.46 2.32-.63 3.52-.47 1.84.24 3.64 1.16 5.22 2.67l1.28 1.4-.94-1.64c-.55-1.22-.74-2.3-.9-3.4 0 0-.1-.82-.1-.82l-.13-.04c-2.57-.85-4.25-.26-6.18.58zm.2.4c1.84-.83 3.36-1.34 5.7-.6.04.17.1.53.1.53.1.9.26 1.8.6 2.75-1.48-1.24-3.12-2.03-4.8-2.24-.87-.1-1.73-.05-2.57.14.3-.2.6-.38.96-.57z"/></g><g><radialGradient cx="348.873" cy="709.792" r="9.091" gradientUnits="userSpaceOnUse" gradientTransform="matrix(1 0 0 1.334 0 -511.113)" fy="709.792" fx="348.873"><stop offset="0" stop-color="#fff"/><stop offset=".458" stop-color="#FFAF33"/><stop offset=".559" stop-color="#F8A32D"/><stop offset=".739" stop-color="#E6841C"/><stop offset=".854" stop-color="#D96D10"/></radialGradient><path fill="url(#e)" d="M348.44 427.5c-.7.77-2.63 2.75-2.63 2.75 0 .27 2.18 2.6 3.13 3.65 1.04-1.38 1.8.56 5.65-3.96 1-1 1.75-1.83 3.67-2.88-5.67 3.12-8.7 1.92-9.8.43zm.2 3.8c-.4-.07-.66-.44-.63-.84.05-.4.4-.66.76-.6.38.07.65.44.6.83-.03.4-.36.66-.74.6z"/><g><radialGradient cx="351.189" cy="435.25" r="9.462" gradientUnits="userSpaceOnUse" fy="435.25" fx="351.189"><stop offset="0" stop-color="#FAFAFA"/><stop offset=".332" stop-color="#F8E1CE"/><stop offset=".567" stop-color="#F6D2B3"/><stop offset="1" stop-color="#FAAF3D"/></radialGradient><path fill="url(#f)" d="M345.8 430.26l.1.16c.25.4 1.32 1.6 2.44 2.83l.6.65.17-.2c.32-.3.62-.38 1-.46.8-.16 2.02-.4 4.48-3.3 0 0 .1-.1.1-.1l1.26-1.2 1.6-1.2-1.85.78c-4.48 1.66-6.44.17-7.07-.54l-.18-.2-2.65 2.78zm2.65-2.08c.78.77 2.64 1.93 6.38.84-.23.23-.5.48-.5.48l-.1.12c-2.38 2.77-3.5 3-4.22 3.15-.36.07-.7.2-1.02.46-.13-.14-.28-.3-.28-.3-.63-.7-1.86-2.06-2.27-2.6.22-.25 1.75-1.86 2.02-2.15z"/></g></g><path fill="none" stroke="#152a4c" stroke-width=".7" d="M348.3 430.7c-.7-.3-3.92-.57-4.66-.17"/><g><path fill="none" stroke="#152a4c" stroke-width="1.5" d="M338.13 430.62c0 1.46 1.18 2.63 2.62 2.63 1.46 0 2.63-1.17 2.63-2.63 0-1.45-1.17-2.62-2.63-2.62-1.45 0-2.63 1.17-2.63 2.62z"/><radialGradient cx="195.265" cy="429.267" r="3.637" gradientUnits="userSpaceOnUse" gradientTransform="matrix(-1 0 0 1 535.407 0)" fy="429.267" fx="195.265"><stop offset="0" stop-color="#fff"/><stop offset=".09" stop-color="#DBE8F2"/><stop offset=".248" stop-color="#A2C3DE"/><stop offset=".395" stop-color="#75A6CD"/><stop offset=".525" stop-color="#5590C2"/><stop offset=".634" stop-color="#4184BB"/><stop offset=".708" stop-color="#3A7FB8"/><stop offset="1" stop-color="#244A87"/></radialGradient><path fill="url(#g)" d="M338.13 430.62c0 1.46 1.18 2.63 2.62 2.63 1.46 0 2.63-1.17 2.63-2.63 0-1.45-1.17-2.62-2.63-2.62-1.45 0-2.63 1.17-2.63 2.62z"/><g><radialGradient cx="339.498" cy="428.408" r="5.153" gradientUnits="userSpaceOnUse" fy="428.408" fx="339.498"><stop offset="0" stop-color="#fff"/><stop offset=".685" stop-color="#2E659E"/><stop offset="1" stop-color="#1D3E63"/></radialGradient><path fill="url(#h)" d="M338.13 430.62c0 1.45 1.18 2.63 2.62 2.63.7 0 1.36-.27 1.86-.77s.78-1.15.78-1.86c0-.7-.27-1.36-.77-1.85-.5-.5-1.14-.77-1.85-.77-1.45 0-2.63 1.18-2.63 2.62zm.35 0c0-1.25 1.02-2.27 2.27-2.27.6 0 1.18.24 1.6.67.44.43.68 1 .68 1.6 0 .6-.24 1.2-.67 1.6-.43.44-1 .68-1.6.68-1.26 0-2.28-1.02-2.28-2.28z"/></g></g><path fill="none" stroke="#994408" stroke-width=".7" d="M359 426.47c-1.65.76-4.1 3.15-4.2 3.63"/></g><g><g><path fill="#fff" stroke="#fff" stroke-width="1.5" d="M15.87 15.5c0 1.6 1.3 2.9 2.9 2.9 1.62 0 2.92-1.3 2.92-2.9 0-1.6-1.3-2.9-2.92-2.9-1.6 0-2.9 1.3-2.9 2.9z"/></g><path fill="#fff" stroke="#fff" stroke-width="1.5" d="M32.13 17.4c1.06.65 2.15 1.07 3.98 1.2 3.45.24 8.16.1 8.16.1-1.3-.7-1.7-2-1.7-3.2-.92.92-5.4 3.55-10.43 1.9z"/><path fill="#fff" stroke="#fff" stroke-width="1.5" d="M38.13 17.62c-3.68-.97-4.5-3.15-10.95-5.57 0 0-1.9.36-2.9 1.36 0 0 2.9.7 3.83 1.6 1.14 0 2.36 1.38 4.03 2.4"/><path fill="#fff" stroke="#fff" stroke-width=".5" d="M31.78 17.65c1.46.86 5.84 0 6.84-.47"/><path fill="#fff" stroke="#fff" stroke-width=".7" d="M27 13.4c-3.04 0-4.92 1.7-5.3 2.1"/></g><path fill="url(#i)" d="M12.4 28.24c2.22.05 3.67 1.96 3.63 4.05-.05 2.08-1.03 3.97-3.26 3.9l25.5-1.44c1.3.03 2.36-.93 2.4-2.15.02-1.2-1-2.2-2.3-2.24L12.4 28.24z"/><path fill="url(#j)" d="M15.03 29.87s1.03.84 1 2.42c-.04 1.45-.93 2.3-.93 2.3l20.6-.5c.48.03 1.35-.68 1.37-1.58.02-.9-.72-1.65-1.3-1.66l-20.74-1z"/><path fill="none" stroke="#994408" stroke-width="1.5" d="M28 27.7c3.65-1.87 7.4.7 9.3 2.98.33.37.73.88 1.17 1.35.24.27 1.56.1 3.04.77 2.66 1.18 5.9 1.06 5.9 1.06-5.96-1.12-8.1-6.86-11.84-7.26-6.77-.44-8.55 5.8-11.18 6.55 0 0-2.6-.62-4.42-1.9.62 0 3.18-2 3.18-2 1.7.62 3.4-.67 4.86-1.56 2.3-1.4 5.92-1.34 7.56-1.1"/><path fill="url(#k)" d="M28 27.7c2.3-1.4 5.92-1.34 7.56-1.1 3.74.4 5.88 6.14 11.84 7.26 0 0-3.24.12-5.9-1.06-1.47-.66-2.8-.5-3.03-.77-.44-.47-.84-.98-1.16-1.36-1.9-2.28-5.65-4.84-9.3-2.98z"/><g transform="translate(-337.375 -410.294)"><radialGradient cx="384.492" cy="452.616" r="4.353" gradientUnits="userSpaceOnUse" fy="452.616" fx="384.492"><stop offset="0" stop-color="#FAFAFA"/><stop offset=".238" stop-color="#F7E2CF"/><stop offset=".596" stop-color="#F4C093"/><stop offset=".861" stop-color="#F2AB6E"/><stop offset="1" stop-color="#F1A360"/></radialGradient><path fill="url(#l)" d="M369.7 436.8l-.07.8c1.8.47 3.66 1.7 5.06 3.37-.06-.08.24.3.24.3l1 1.16.2.02.48.07c.57.08 1.4.2 2.27.58.78.35 1.67.6 2.8.8 0 0 1.68.3 3.07.26-1.98-.44-2.8-1-2.8-1-1.76-.9-3.14-2.15-4.4-3.34-1.58-1.47-2.93-2.75-4.64-2.93-.9-.14-2.12-.17-3.23-.1zm5.6 3.66c-1.02-1.2-2.26-2.18-3.56-2.86.5.03.93.06 1.1.1 1.44.14 2.7 1.33 4.17 2.7.75.7 1.55 1.4 2.42 2.04-.07-.03-.15-.05-.2-.07-.98-.44-1.88-.55-2.48-.63-.18-.04-.28-.05-.4-.06-.15-.18-.8-.92-.8-.92s-.24-.3-.24-.3z"/></g><g transform="translate(-337.375 -410.294)"><path fill="none" stroke="#152a4c" stroke-width="1.5" d="M346 442.5c0 2.07 1.68 3.75 3.74 3.75 2.08 0 3.75-1.68 3.75-3.75 0-2.07-1.68-3.75-3.76-3.75-2.06 0-3.75 1.68-3.75 3.75z"/><radialGradient cx="186.534" cy="440.559" r="5.19" gradientUnits="userSpaceOnUse" gradientTransform="matrix(-1 0 0 1 535.407 0)" fy="440.559" fx="186.534"><stop offset="0" stop-color="#fff"/><stop offset=".09" stop-color="#DBE8F2"/><stop offset=".248" stop-color="#A2C3DE"/><stop offset=".395" stop-color="#75A6CD"/><stop offset=".525" stop-color="#5590C2"/><stop offset=".634" stop-color="#4184BB"/><stop offset=".708" stop-color="#3A7FB8"/><stop offset="1" stop-color="#244A87"/></radialGradient><path fill="url(#m)" d="M346 442.5c0 2.07 1.68 3.75 3.74 3.75 2.08 0 3.75-1.68 3.75-3.75 0-2.07-1.68-3.75-3.76-3.75-2.06 0-3.75 1.68-3.75 3.75z"/><g><radialGradient cx="347.954" cy="439.334" r="7.354" gradientUnits="userSpaceOnUse" fy="439.334" fx="347.954"><stop offset="0" stop-color="#fff"/><stop offset=".685" stop-color="#2E659E"/><stop offset="1" stop-color="#1D3E63"/></radialGradient><path fill="url(#n)" d="M346 442.5c0 2.06 1.68 3.75 3.74 3.75 1 0 1.95-.4 2.65-1.1.7-.7 1.1-1.65 1.1-2.65s-.4-1.94-1.1-2.65c-.7-.7-1.65-1.1-2.66-1.1-2.06 0-3.75 1.68-3.75 3.75zm.5 0c0-1.8 1.45-3.25 3.24-3.25.87 0 1.68.34 2.3.96.6.62.95 1.43.95 2.3 0 .87-.35 1.68-.96 2.3-.62.6-1.43.94-2.3.94-1.78 0-3.24-1.46-3.24-3.24z"/></g></g><path fill="url(#o)" d="M35.56 26.6c-6.77-.44-8.55 5.8-11.18 6.55 0 0-2.6-.62-4.43-1.9.63 0 3.2-2 3.2-2 1.7.63 3.38-.67 4.85-1.56 2.3-1.4 5.92-1.34 7.56-1.1z"/><g transform="translate(-337.375 -410.294)"><radialGradient cx="370.349" cy="437.49" r="15.957" gradientUnits="userSpaceOnUse" fy="437.49" fx="370.349"><stop offset="0" stop-color="#FAFAFA"/><stop offset=".332" stop-color="#F8E1CE"/><stop offset=".567" stop-color="#F6D2B3"/><stop offset="1" stop-color="#FAAF3D"/></radialGradient><path fill="url(#p)" d="M365.37 437.98l-.55.34c-1.17.74-2.62 1.66-4.1 1.26l-.2-.06-.14.13c-.42.32-1.5 1.13-2.34 1.6l-.63.34.63.34c1.7.98 3.56 1.46 3.58 1.46l.13.03.1-.03c.9-.3 1.75-1.25 2.58-2.18 1.03-1.16 2.3-2.6 4.08-3.48 0 0 1.67-1 4.45-.85-2.28-.33-4.7.1-4.7.1-1.15.2-2.1.53-2.86.98zm-.12 1.02s.33-.2.45-.28c-.72.66-1.34 1.35-1.9 1.97-.72.8-1.47 1.63-2.14 1.9-.3-.1-1.4-.44-2.6-1.04.66-.42 1.3-.9 1.68-1.18 1.72.35 3.33-.63 4.5-1.38z"/></g><g transform="translate(-337.375 -410.294)" opacity=".85"><linearGradient x1="5860.114" x2="5869.17" y1="-4240.223" y2="-4240.232" gradientTransform="matrix(1.479 .033 -.025 1.135 -8415.959 5042.373)" gradientUnits="userSpaceOnUse"><stop offset="0" stop-color="#DAE8F2"/><stop offset="1" stop-color="#fff"/></linearGradient><path fill="url(#q)" d="M356 422.47c2.2.05 3.67 1.6 3.63 3.32-.04 1.7-1 3.23-3.24 3.18l14.8-1.13c1.3.03 2.36-.75 2.38-1.74.02-.98-1-1.8-2.3-1.84l-15.3-1.8z"/><linearGradient x1="5860.417" x2="5865.66" y1="-4240.178" y2="-4239.899" gradientTransform="matrix(1.479 .033 -.025 1.135 -8415.959 5042.373)" gradientUnits="userSpaceOnUse"><stop offset="0" stop-color="#C7DCEB"/><stop offset=".273" stop-color="#DAE8F2"/><stop offset=".73" stop-color="#F5F9FB"/><stop offset="1" stop-color="#fff"/></linearGradient><path fill="url(#r)" d="M358.62 423.8s1.04.7 1 2c-.02 1.2-.9 1.88-.9 1.88l9.9-.36c.5 0 1.36-.56 1.38-1.3 0-.73-.73-1.35-1.32-1.36l-10.06-.85z"/><g><path fill="none" stroke="#152a4c" stroke-width="1.5" d="M353.25 425.8c0 1.6 1.3 2.9 2.9 2.9 1.6 0 2.9-1.3 2.9-2.9 0-1.6-1.3-2.9-2.9-2.9-1.6 0-2.9 1.3-2.9 2.9z"/><radialGradient cx="179.929" cy="424.299" r="4.024" gradientUnits="userSpaceOnUse" gradientTransform="matrix(-1 0 0 1 535.407 0)" fy="424.299" fx="179.929"><stop offset="0" stop-color="#fff"/><stop offset=".09" stop-color="#DBE8F2"/><stop offset=".248" stop-color="#A2C3DE"/><stop offset=".395" stop-color="#75A6CD"/><stop offset=".525" stop-color="#5590C2"/><stop offset=".634" stop-color="#4184BB"/><stop offset=".708" stop-color="#3A7FB8"/><stop offset="1" stop-color="#244A87"/></radialGradient><path fill="url(#s)" d="M353.25 425.8c0 1.6 1.3 2.9 2.9 2.9 1.6 0 2.9-1.3 2.9-2.9 0-1.6-1.3-2.9-2.9-2.9-1.6 0-2.9 1.3-2.9 2.9z"/><g><radialGradient cx="354.766" cy="423.349" r="5.702" gradientUnits="userSpaceOnUse" fy="423.349" fx="354.766"><stop offset="0" stop-color="#fff"/><stop offset=".685" stop-color="#2E659E"/><stop offset="1" stop-color="#1D3E63"/></radialGradient><path fill="url(#t)" d="M353.25 425.8c0 1.6 1.3 2.9 2.9 2.9.78 0 1.5-.3 2.06-.84.56-.55.86-1.28.86-2.06 0-.77-.3-1.5-.85-2.06-.54-.55-1.27-.85-2.05-.85-1.6 0-2.9 1.3-2.9 2.9zm.4 0c0-1.4 1.12-2.5 2.5-2.5.68 0 1.3.25 1.8.72.46.48.72 1.1.72 1.78 0 .68-.26 1.3-.74 1.78-.47.47-1.1.74-1.78.74-1.38 0-2.5-1.13-2.5-2.52z"/></g></g><path fill="none" stroke="#994408" stroke-width="1.5" d="M369.5 427.7c1.06.65 2.15 1.07 4 1.2 3.43.23 8.13.1 8.13.1-1.3-.7-1.7-2-1.7-3.2-.92.9-5.38 3.55-10.42 1.9z"/><path fill="none" stroke="#994408" stroke-width="1.5" d="M375.5 427.92c-3.68-.98-4.5-3.15-10.94-5.57 0 0-1.92.36-2.9 1.35 0 0 2.9.68 3.82 1.6 1.14 0 2.35 1.38 4.03 2.4"/><radialGradient cx="381.826" cy="425.953" r="10.384" gradientUnits="userSpaceOnUse" fy="425.953" fx="381.826"><stop offset="0" stop-color="#FFAF33"/><stop offset=".184" stop-color="#FEAB30"/><stop offset=".378" stop-color="#FB9E29"/><stop offset=".575" stop-color="#F5891C"/><stop offset=".693" stop-color="#F17912"/><stop offset="1" stop-color="#B35A0D"/></radialGradient><path fill="url(#u)" d="M369.5 427.7c1.06.65 2.15 1.07 4 1.2 3.43.23 8.13.1 8.13.1-1.3-.7-1.7-2-1.7-3.2-.92.9-5.38 3.55-10.42 1.9z"/><radialGradient cx="366.91" cy="419.203" r="17.418" gradientUnits="userSpaceOnUse" fy="419.203" fx="366.91"><stop offset="0" stop-color="#fff"/><stop offset=".458" stop-color="#FFAF33"/><stop offset=".559" stop-color="#F8A32D"/><stop offset=".739" stop-color="#E6841C"/><stop offset=".854" stop-color="#D96D10"/></radialGradient><path fill="url(#v)" d="M369.5 427.7c2.2.72 4.28.62 6 .2-3.68-.96-4.5-3.13-10.94-5.56 0 0-1.92.37-2.9 1.36 0 0 2.9.68 3.82 1.6 1.14 0 2.35 1.38 4.03 2.4z"/><g><radialGradient cx="365.051" cy="421.44" r="9.5" gradientUnits="userSpaceOnUse" fy="421.44" fx="365.051"><stop offset="0" stop-color="#FAFAFA"/><stop offset=".458" stop-color="#FAD59D"/><stop offset=".828" stop-color="#FABA58"/><stop offset="1" stop-color="#FAAF3D"/></radialGradient><path fill="url(#w)" d="M364.44 422.37c-.12.02-1.16.26-2.1.82l-.78.46.9.26c1.4.4 2.45.88 2.95 1.34l.1.1h.14c.72.08 1.46.6 2.28 1.22l1.62 1.14.38.35c1.24.4 2.3.2 3.9.05l1.54-.14-1.4-.63c-.96-.42-1.77-.94-2.65-1.52-1.38-.9-3.28-2.17-6.63-3.44l-.12-.05-.1.02zm.03.67c3.4 1.3 5.3 2.54 6.8 3.54.48.3.95.62 1.44.9-.88-.02-2.18-.14-2.94-.38-.12-.08-1.6-1.12-1.6-1.12-.9-.7-1.76-1.24-2.67-1.4-.6-.5-1.52-.93-2.4-1.24.4-.16 1.2-.26 1.37-.3z"/></g><path fill="none" stroke="#994408" stroke-width=".5" d="M369.16 427.95c1.45.85 5.84 0 6.83-.47"/><path fill="none" stroke="#152a4c" stroke-width=".7" d="M364.37 423.7c-3.04 0-4.92 1.7-5.3 2.1"/></g><path fill="none" stroke="#152a4c" stroke-width=".7" d="M21.42 31.2c-1.7.57-4.82.57-4.82.57"/></g></svg>