<svg xmlns="http://www.w3.org/2000/svg" width="48" height="48" xmlns:xlink="http://www.w3.org/1999/xlink"><defs><linearGradient id="a"><stop offset="0" stop-color="#fff"/><stop offset="1" stop-color="#eeeeec" stop-opacity="0"/></linearGradient><linearGradient x1="14.107" x2="39.69" y1="4.772" y2="43.606" xlink:href="#a" gradientUnits="userSpaceOnUse" gradientTransform="matrix(.414 0 0 .427 53.647 2.102)"/><linearGradient id="b" x1="362.336" x2="359.451" y1="46.517" y2=".278" gradientUnits="userSpaceOnUse"><stop offset=".028" stop-color="#fff"/><stop offset="1" stop-color="#94A1AF"/></linearGradient><linearGradient id="c" x1="339.46" x2="377.681" y1="20.356" y2="4.765" gradientUnits="userSpaceOnUse"><stop offset=".028" stop-color="#fff"/><stop offset="1" stop-color="#94A1AF"/></linearGradient><linearGradient id="d" x1="371.907" x2="337.374" y1="15.06" y2="40.373" gradientUnits="userSpaceOnUse"><stop offset=".028" stop-color="#fff"/><stop offset="1" stop-color="#94A1AF"/></linearGradient><linearGradient x1="14.107" x2="39.69" y1="4.772" y2="43.606" xlink:href="#a" gradientUnits="userSpaceOnUse" gradientTransform="matrix(.414 0 0 .427 53.647 2.102)"/><linearGradient id="e" x1="14.107" x2="39.69" y1="4.772" y2="43.606" xlink:href="#a" gradientUnits="userSpaceOnUse" gradientTransform="matrix(.478 0 0 .491 13.965 7.264)"/></defs><g><path fill="url(#b)" d="M362.45 45.5L342 32.92l18.85-9.87 20.1 9.1-18.5 13.33z" transform="matrix(1.022 0 0 1.022 -344.19 .699)"/><path fill="url(#c)" d="M360.85 23.06l-18.87 9.87-4.9-25.2L359.7.25l1.15 22.8z" transform="matrix(1.022 0 0 1.022 -344.19 .699)"/><path fill="url(#d)" d="M360.85 23.06l20.1 9.1 2.5-25.15L359.7.27l1.15 22.8z" transform="matrix(1.022 0 0 1.022 -344.19 .699)"/><g fill="none" stroke="#626973" stroke-width=".489"><path d="M5.25 34.35L.25 8.6 23.36.96l24.24 6.9-2.54 25.7-18.9 13.6-20.9-12.82z"/><path d="M2.1 18.2L23.8 9.5"/><path d="M3.77 26.7l20.4-9.47"/><path d="M5.25 34.35l19.28-10.1"/><path d="M23.37.97l1.16 23.3"/><path d="M45.06 33.57l-20.53-9.3"/><path d="M33.2 42.12L12.32 30.65"/><path d="M39.47 37.6L18.74 27.3"/><path d="M30.73 27.07l-19.27 11.1"/><path d="M37.56 30.17L18.4 42.42"/><path d="M16.4 3.26l2.5 23.95"/><path d="M8.86 5.75l3.47 24.9"/><path d="M38.55 5.3l-1 24.87"/><path d="M30.54 3l.2 24.07"/><path d="M23.8 9.52l22.86 7.92"/><path d="M45.82 25.95l-21.64-8.72"/></g><path fill="#babdb6" d="M22.4 29.6l-6-7.4-1-11.84 6.54 5.97.45 13.28z"/><path fill="#d3d7cf" d="M35.2 12.5l-13.26 3.83-6.54-5.97 11.78-2.62 8.02 4.76z"/><path fill="#888a85" d="M34.07 24.92l-11.68 4.7-.46-13.3L35.2 12.5l-1.13 12.42z"/><path fill="none" stroke="#f0f0f0" d="M22.08 16.5l12.64-3.68" stroke-linecap="round"/><path fill="none" stroke="#eeeeec" d="M15.72 10.77l6.4 5.66" stroke-linecap="round"/><path fill="none" stroke="url(#e)" stroke-width="1.5" d="M15.84 10.9l11.3-2.44 7.64 4.6-1.13 11.76-11.1 4.36-5.7-7.13-1-11.16z"/><path fill="none" stroke="#555753" d="M15.27 10.48l11.9-2.56 8.06 4.84-1.2 12.42-11.67 4.6-6-7.52-1.1-11.78z"/><path fill="#ef2929" fill-rule="evenodd" stroke="#a40000" stroke-width=".9996200000000001" d="M25.85 17.08a3.46 3.45 0 1 1-6.92 0 3.46 3.45 0 1 1 6.92 0z" color="#000" stroke-linejoin="round" overflow="visible"/><path fill="none" stroke="#f4b3b3" stroke-width="1.167" d="M11.3 34a2.73 2.65 0 1 1-5.45 0 2.73 2.65 0 1 1 5.45 0z" transform="matrix(.846 0 0 .868 15.132 -12.435)" color="#000" stroke-linejoin="round" overflow="visible"/><path fill-opacity=".263" fill-rule="evenodd" d="M17.04 32.44l4.56 7.85 13.35-3.6-7.15-6.9-10.76 2.64z"/></g></svg>