<svg xmlns="http://www.w3.org/2000/svg" width="48" height="48" xmlns:xlink="http://www.w3.org/1999/xlink"><defs><linearGradient id="a"><stop offset="0" stop-color="#ef2929"/><stop offset="1" stop-color="#ef2929" stop-opacity="0"/></linearGradient><linearGradient id="g" x1="28.955" x2="14.911" y1="30.252" y2="30.252" gradientUnits="userSpaceOnUse" gradientTransform="matrix(1.188 0 0 1.188 -3.354 -2.575)"><stop offset=".006" stop-color="#9DA1A5"/><stop offset=".455" stop-color="#C3D1D5"/><stop offset="1" stop-color="#CED4D6"/></linearGradient><linearGradient id="f" x1="21.019" x2="21.302" y1="-12.681" y2="33.599" gradientUnits="userSpaceOnUse" gradientTransform="matrix(1.188 0 0 1.188 -3.354 -2.575)"><stop offset=".213" stop-color="#DBDFE1"/><stop offset="1" stop-color="#A1ACB3"/></linearGradient><linearGradient id="e" x1="22.356" x2="24.596" y1=".226" y2="41.866" gradientUnits="userSpaceOnUse" gradientTransform="matrix(1.188 0 0 1.188 -3.354 -2.575)"><stop offset=".006" stop-color="#dbdfe1" stop-opacity="0"/><stop offset="1" stop-color="#8A9399"/></linearGradient><linearGradient id="d" x1="23.915" x2="23.915" y1="13.391" y2="42.51" gradientUnits="userSpaceOnUse" gradientTransform="matrix(1.188 0 0 1.188 -3.354 -2.575)"><stop offset="0" stop-color="#AFBBC2"/><stop offset=".309" stop-color="#E8ECED"/><stop offset=".433" stop-color="#E8ECED"/><stop offset="1" stop-color="#AAAFB2"/></linearGradient><linearGradient id="c" x1="39.254" x2="16.775" y1="35.097" y2="19.378" gradientUnits="userSpaceOnUse" gradientTransform="matrix(1.188 0 0 1.188 -3.378 3.157)"><stop offset=".213" stop-color="#DBDFE1"/><stop offset="1" stop-color="#A1ACB3"/></linearGradient><linearGradient id="b" x1="17.081" x2="23.943" y1="-6.99" y2="41.953" gradientUnits="userSpaceOnUse" gradientTransform="matrix(1.188 0 0 1.188 -3.354 -2.575)"><stop offset=".006" stop-color="#DBDFE1"/><stop offset="1" stop-color="#8A9399"/></linearGradient><linearGradient id="j" x1="25.143" x2="25.112" y1="11.533" y2="2.139" xlink:href="#a" gradientUnits="userSpaceOnUse"/><linearGradient id="i" x1="24.436" x2="24.051" y1="27.744" y2="16.885" xlink:href="#a" gradientUnits="userSpaceOnUse"/><linearGradient id="h" x1="24.804" x2="24.491" y1="42.192" y2="33.302" xlink:href="#a" gradientUnits="userSpaceOnUse" gradientTransform="matrix(.866 0 0 1 4.55 1.717)"/></defs><g><path fill="none" stroke="#eeeeec" stroke-width="2" d="M15.27 39.52l3.75-3.9 5.62 3.07 5.4-3.17 5.75 3.23-3.32 4.38-2.78-2.96-6.26 3.52-2.3-3.03-4.96 1.75z"/><path fill="none" stroke="#eeeeec" stroke-width="2" d="M9.88 22.38l3.97-3.86 3.53.15 2.38-2.7 4.6 4.32 4.23-1.94 4.7-.25 2.42 4.32-3.63 1.45-2.9 2.55L25 24.9l-4.4 2.3-6.6-1.53 1.32-3.2z"/><path fill="none" stroke="#eeeeec" stroke-width="2" d="M10.84 6.37l5.68-4.47 5.23-.03 3.3 3.55 8.2-3.63 2.53 3.1 4.44.95-2.8 1.9-.5 2.78-4.2-3.4-4.1 2.96-5.4 1.07-.76-2.56-3.7 1.32-2.87-2.46L12.2 9.7z"/><path fill="url(#b)" d="M24.03 41.57c-.34-1.16-.78-1.85-.78-3.1 0-.98.13-1.76.22-2.68.2-2 0-4.1 0-6.12 0-1.07-.06-2.16 0-3.23.07-1.2.56-1.46 1.25-2.3 1.37-1.7 1.42-3.27 1.42-5.5 0-2.4-.74-4.33-1.1-6.5 0 4.3.23 8.62-2.32 12.2-1 1.38-2.58 1.9-3.5 3.3-1.18 1.76-1.28 3.76-1.2 5.92.04.95.23 2 .56 2.9.4 1.1 1 1.2 1.9 1.77.6.38 1.65.72 2.14 1.2.55.5.4 1.7 1.52 1.9"/><path fill="url(#c)" d="M30.2 28.28c.07 1.35.48 6.53-3.1 10.77-.4.45-.37-.7-.77-1.14-1.15-1.27-2.94-2.68-3.5-3.15-.68-.57-5.28-3.68-8.1-2.53-.3.14-.3-.35.35-.62.66-.28 3.03-2.32 10.1.32.66.28 1.9-.5 2.92-1.13 1.04-.67 2.1-1.8 2.1-2.52z"/><path fill="url(#d)" d="M30.14 47.24c-1.48-3.66-8.1-6-9.73-8.58-1.25-2.3-1.5-6.96-1-8.6.8-2.7 2.73-3.72 5.53-7.86.5-.72 1.8-2.34 1.62-4.26-.16-1.92-1.07-2.7-1.04-3.45.03-.75.2-.8.14-1.28.25 1.16 1.35 3.43 1.4 4.15.06.7 0 3.6-2.44 6.17-2.44 2.58-4.4 6.2-4.6 7.14-.32 1.45-.23 6.45 1.03 8.06 1.27 1.62 6.4 3.73 9.8 8.15.45.6-.64.47-.7.34z"/><path fill="url(#e)" d="M31.36 43.95c0-.95-.54-1.7-.82-2-.27-.3-1.24-1.2-2-2.67-.76-1.5-2-3.94-6.1-5.13-.96-.28-2.8-.5-4.6-1.4-1.47-.75-1.05-1.95-.74-2.67.32-.73 1.56-2.63 4.32-3.46 2.76-.82 8.2-2.1 7.97-5.14-.25-3.04-2.05-5.83-1.1-6.38.92-.56.63-3.15.57-3.77-.18-1.66-.67-3.44-.53-4.12.27-1.2.7-3.8-.26-4.45-.97-.66-2.7 1.3-3.5.96-.8-.33-1.26-3.03-2.02-2.8-.76.25-.66 5.2-1.6 7.47-.92 2.27 2.87 4.9 3.5 6.8.62 1.9-.38 3-1.32 3.86-.93.86-7.87 5.1-8.25 6.5-.4 1.37-.32 4.75.03 5.58.34.84-.14 2.8.62 3.9.76 1.12 2.97 1.74 3.7 2.26.72.5 1.3 1.24 2.27 2s5.32 3.3 6.35 4.86c1.04 1.56 1.62 2.9 2.04 2.97.42.06 1.73-.04 1.8-.6.07-.55.07-1.3-.03-1.58s-.3-.86-.3-.97z"/><path fill="url(#f)" d="M23.78.47c.85.03 2.62.68 2.62 1.37 0 .68-.9 1.9-1.47 2.28-.6.4-2.9 1.2-3.13 2.1-.23.87-.5 1.5 1.07 2.57 1.57 1.06 2.94 4.33 3.07 5.96.13 1.63.26 2.87-.23 3.78-.48.9-.58 1.73.14 2.12.72.4 2.28.98 2.32 1.66-.5-.58-3.43-1.37-3.43-2.35 0-.97.72-1.85.6-3-.14-1.14-1.02-3.78-2.52-5.5-1.5-1.74-2.28-1.45-2.57-2.13.42 1.92 2.06 4.88 1.76 6.1-.3 1.2-1.08 2.5-1.77 4.1-.68 1.6-3.98 4.68-4.08 7.32-.1 2.64-.1 3.36.2 3.88-.88-1.56.96-6.65 1.8-9.58.85-2.94 2.9-4.55 2.9-6.15 0-1.6-2.45-6.83-1.73-8.46 1.04-2.4 3.8-2.22 4.95-2.94 1.32-.82 1.34-1.24 1.1-1.53-.2-.3-1.06-.88-1.65-1.08-.6-.2-1.63-.27-2.35-.14 1.3-.26 2.4-.4 2.4-.4z"/><path fill="#dbdede" d="M18.45 30.8c.1-1.06-.76-2.37-.5-3.66.27-1.3 1.42-2.6 2.26-3.56 2.4-2.7 7.62-5.4 8.6-9.1.88-3.38-1.96-6.17-2.12-9.24-1.4-.02-3.3-.92-4.77-.7 2.12.06 3.7-.78 5.46.28 1.4.85 1.77 2.05 2.27 3.56 1.08 3.23.72 6.56-.96 9.47-1.84 3.16-5.6 4.97-8.26 7.47-2.4 2.26-2.32 4.4-1.43 7.47.15.5.35 1 .53 1.52"/><path fill="url(#g)" d="M30.85 44.43c.08-1.15-.46-1.75-.94-2.54-.47-.8-1.73-1.64-4.35-4.18-3.1-3-4.1-2.27-7.14-3.1-.95-.84-2.94-3.83-2.52-5.04.42-1.2 4.4-5.7 5.7-6.37 1.34-.65 4.58-3.7 4.88-4.5-.72.67-6.3 4.7-7.5 5.9-1.2 1.2-4.28 3.42-4.34 4.2-.06.78 0 2.17.9 3.3.9 1.15 3 4.22 4.75 5 1.74.78 3.78 1.33 4.5 2 .72.65 2.72 1.97 2.78 3.23.06 1.26.66 2.52 1.38 3.18.72.68 1.56 1.46 1.5 2.3.06.48.96 0 .96-.42s-.6-2.1-.55-2.95z"/><path fill="none" stroke="url(#h)" d="M15.27 39.52l3.75-3.9 5.62 3.07 5.4-3.17 5.75 3.23-3.32 4.38-2.78-2.96-6.26 3.52-2.3-3.03-4.96 1.75z"/><path fill="none" stroke="url(#i)" d="M9.88 22.38l3.97-3.86 3.53.15 2.38-2.7 4.6 4.32 4.23-1.94 4.7-.25 2.42 4.32-3.63 1.45-2.9 2.55L25 24.9l-4.4 2.3-6.6-1.53 1.32-3.2z"/><path fill="none" stroke="url(#j)" d="M10.84 6.37l5.68-4.47 5.23-.03 3.3 3.55 8.2-3.63 2.53 3.1 4.44.95-2.8 1.9-.5 2.78-4.2-3.4-4.1 2.96-5.4 1.07-.76-2.56-3.7 1.32-2.87-2.46L12.2 9.7z"/></g></svg>