<svg xmlns="http://www.w3.org/2000/svg" width="48" height="48" xmlns:xlink="http://www.w3.org/1999/xlink"><defs><radialGradient id="a" cx="17.95" cy="175.731" r="12.523" gradientUnits="userSpaceOnUse" fy="175.731" fx="17.95"><stop offset="0" stop-color="#fff"/><stop offset="1" stop-color="#F5D9D9"/></radialGradient><radialGradient id="b" cx="22.811" cy="169.34" r="14.467" gradientUnits="userSpaceOnUse" fy="169.34" fx="22.811"><stop offset="0" stop-color="#fff"/><stop offset="1" stop-color="#F5D9D9"/></radialGradient><radialGradient id="c" cx="20.141" cy="171.534" r="10.533" gradientUnits="userSpaceOnUse" fy="171.534" fx="20.141"><stop offset="0" stop-color="#fff"/><stop offset="1" stop-color="#F5D9D9"/></radialGradient><radialGradient id="d" cx="18.676" cy="170.998" r="12.647" gradientUnits="userSpaceOnUse" fy="170.998" fx="18.676"><stop offset="0" stop-color="#fff"/><stop offset="1" stop-color="#F5D9D9"/></radialGradient><radialGradient id="e" cx="12.774" cy="172.564" r="9.904" gradientUnits="userSpaceOnUse" fy="172.564" fx="12.774"><stop offset="0" stop-color="#fff"/><stop offset="1" stop-color="#F5D9D9"/></radialGradient><radialGradient id="f" cx="21.608" cy="172.17" r="3.835" gradientUnits="userSpaceOnUse" fy="172.17" fx="21.608"><stop offset="0" stop-color="#fff"/><stop offset="1" stop-color="#F5D9D9"/></radialGradient><radialGradient id="g" cx="20.26" cy="172.94" r="6.674" gradientUnits="userSpaceOnUse" fy="172.94" fx="20.26"><stop offset="0" stop-color="#fff"/><stop offset="1" stop-color="#F5D9D9"/></radialGradient><radialGradient id="h" cx="19.875" cy="178.137" r="6.273" gradientUnits="userSpaceOnUse" fy="178.137" fx="19.875"><stop offset="0" stop-color="#fff"/><stop offset="1" stop-color="#F5D9D9"/></radialGradient><radialGradient id="i" cx="8.127" cy="179.328" r="6.328" gradientUnits="userSpaceOnUse" fy="179.328" fx="8.127"><stop offset=".006" stop-color="#F5CDCD"/><stop offset="1" stop-color="#F4B1B3"/></radialGradient><radialGradient id="j" cx="21.108" cy="170.255" r="11.345" gradientUnits="userSpaceOnUse" fy="170.255" fx="21.108"><stop offset=".006" stop-color="#F5CDCD"/><stop offset="1" stop-color="#F4B1B3"/></radialGradient><linearGradient id="k" x1="30.721" x2="30.361" y1="191.532" y2="189.013" gradientUnits="userSpaceOnUse"><stop offset="0" stop-color="#F79899"/><stop offset=".285" stop-color="#F29596"/><stop offset=".596" stop-color="#E08B8B"/><stop offset=".918" stop-color="#C77B7C"/><stop offset="1" stop-color="#BF7777"/></linearGradient><linearGradient id="l" x1="25.98" x2="27.6" y1="195.272" y2="191.762" gradientUnits="userSpaceOnUse"><stop offset="0" stop-color="#F79899"/><stop offset=".387" stop-color="#F29596"/><stop offset=".809" stop-color="#E28C8C"/><stop offset="1" stop-color="#D88686"/></linearGradient><linearGradient id="m" x1="6.26" x2="15.438" y1="165.928" y2="170.234" gradientUnits="userSpaceOnUse"><stop offset="0" stop-color="#F79899"/><stop offset=".387" stop-color="#F29596"/><stop offset=".809" stop-color="#E28C8C"/><stop offset="1" stop-color="#D88686"/></linearGradient><radialGradient id="n" cx="20.836" cy="192.154" r="25.122" gradientUnits="userSpaceOnUse" fy="192.154" fx="20.836"><stop offset="0" stop-opacity=".804"/><stop offset="1" stop-opacity="0"/></radialGradient><radialGradient id="C" cx="17.95" cy="175.731" r="12.523" xlink:href="#a" gradientUnits="userSpaceOnUse" fx="17.95" fy="175.731" gradientTransform="matrix(1.034 0 0 1.034 -2.345 -159.91)"/><radialGradient id="B" cx="22.811" cy="169.34" r="14.467" xlink:href="#b" gradientUnits="userSpaceOnUse" fx="22.811" fy="169.34" gradientTransform="matrix(1.034 0 0 1.034 -2.345 -159.91)"/><radialGradient id="A" cx="20.141" cy="171.534" r="10.533" xlink:href="#c" gradientUnits="userSpaceOnUse" fx="20.141" fy="171.534" gradientTransform="matrix(1.034 0 0 1.034 -2.345 -159.91)"/><radialGradient id="z" cx="18.676" cy="170.998" r="12.647" xlink:href="#d" gradientUnits="userSpaceOnUse" fx="18.676" fy="170.998" gradientTransform="matrix(1.034 0 0 1.034 -2.345 -159.91)"/><radialGradient id="y" cx="12.774" cy="172.564" r="9.904" xlink:href="#e" gradientUnits="userSpaceOnUse" fx="12.774" fy="172.564" gradientTransform="matrix(1.034 0 0 1.034 -2.345 -159.91)"/><radialGradient id="x" cx="21.608" cy="172.17" r="3.835" xlink:href="#f" gradientUnits="userSpaceOnUse" fx="21.608" fy="172.17" gradientTransform="matrix(1.034 0 0 1.034 -2.345 -159.91)"/><radialGradient id="w" cx="20.26" cy="172.94" r="6.674" xlink:href="#g" gradientUnits="userSpaceOnUse" fx="20.26" fy="172.94" gradientTransform="matrix(1.034 0 0 1.034 -2.345 -159.91)"/><radialGradient id="v" cx="19.875" cy="178.137" r="6.273" xlink:href="#h" gradientUnits="userSpaceOnUse" fx="19.875" fy="178.137" gradientTransform="matrix(1.034 0 0 1.034 -2.345 -159.91)"/><radialGradient id="u" cx="8.127" cy="179.328" r="6.328" xlink:href="#i" gradientUnits="userSpaceOnUse" fx="8.127" fy="179.328" gradientTransform="matrix(1.034 0 0 1.034 -2.345 -159.91)"/><radialGradient id="t" cx="21.108" cy="170.255" r="11.345" xlink:href="#j" gradientUnits="userSpaceOnUse" fx="21.108" fy="170.255" gradientTransform="matrix(1.034 0 0 1.034 -2.345 -159.91)"/><linearGradient id="s" x1="30.721" x2="30.361" y1="191.532" y2="189.013" xlink:href="#k" gradientUnits="userSpaceOnUse" gradientTransform="matrix(1.034 0 0 1.034 -2.345 -159.91)"/><linearGradient id="r" x1="25.98" x2="27.6" y1="195.272" y2="191.762" xlink:href="#l" gradientUnits="userSpaceOnUse" gradientTransform="matrix(1.034 0 0 1.034 -2.345 -159.91)"/><linearGradient id="q" x1="6.26" x2="15.438" y1="165.928" y2="170.234" xlink:href="#m" gradientUnits="userSpaceOnUse" gradientTransform="matrix(1.034 0 0 1.034 -2.345 -159.91)"/><radialGradient id="p" cx="26.126" cy="32.449" r="22.073" xlink:href="#n" fx="26.126" fy="32.449" gradientTransform="matrix(1 0 0 .62 0 12.318)" gradientUnits="userSpaceOnUse"/><linearGradient x1="16.134" x2="1.776" y1="8.811" y2="13.802" xlink:href="#o" gradientUnits="userSpaceOnUse" gradientTransform="matrix(1.478 0 0 1.478 12.432 19.456)"/><linearGradient id="o"><stop offset="0" stop-color="#fcaf3e"/><stop offset="1" stop-color="#fce94f"/></linearGradient><linearGradient id="D" x1="16.134" x2="1.776" y1="8.811" y2="13.802" xlink:href="#o" gradientUnits="userSpaceOnUse" gradientTransform="matrix(1.478 0 0 1.478 12.432 19.456)"/></defs><g><g><path fill="url(#p)" d="M7.9 30.22c-.83.08-1.7 1.14-2.12 1.8-.18.27-.54.6-.63.9-.14.44.1.85.14 1.28-1.26.35-1.5 2.18-1 3.23.18.4.27.54.4.93.16.53.34.94.7 1.4.38.48.6.55 1.14.8.74.3.98.9 1.57 1.37 1.06.8 2.9 1 4.2.86.5-.07 1.18-.52 1.65-.46.8.1.36.82.66 1.3.36.54 1.45.8 2.02 1 .48.2.97.35 1.44.55.5.2.98.57 1.5.67.96.18 2.12.06 3.1.06 1.25 0 2.98.46 4.13.02.75-.3 1.34-.7 2.2-.83.83-.13 1.4.08 2.2.22 1.8.3 3.25-.42 4.8-1.1.95-.4 1.84-.88 2.8-1.3 1.12-.46 2.32-.78 3.28-1.6.7-.6 1.64-1.47 2.12-2.27.62-1.03 1.45-2 1.83-3.16.46-1.42 1.2-2.6 1.27-4.16.04-.82-.04-1.3.37-1.98.52-.9.7-1.75.35-2.8-.4-1.2-1.4-2.23-2.38-2.95-.68-.48-1.55-.7-2.33-1.04-.87-.36-1.3-.8-2.04-1.33-.76-.55-1.64-.53-2.53-.68-1.2-.2-2.33-.78-3.52-1.06-3.23-.78-6.48-1.23-9.82-1.13-1.5.04-2.88.07-4.27.7-1.43.62-2.84 1.34-4.28 1.98-1.76.77-2.47 1.72-3.67 3.07-.73.83-1.52 1.58-2.24 2.45-.68.85-2.65 1.86-2.8 3.05" transform="matrix(.789 0 0 .789 .433 -1.529)"/><path fill="#f79899" stroke="#f57e80" stroke-width=".5008600000000001" d="M16.75 4.5c.7-.45 1.6-.45 1.76-.6.16-.18.93-1.2 1.16-1.38.23-.18 1.13-.08 1.43-.25.28-.16.4-.63.66-.7.25-.05 1.34.2 1.8.12.46-.1.25-.27.5-.33s2.22.1 2.62.17c.4.08 1.03.4 1.24.4.2 0 .58 0 .96.1s2.9 1.34 3.3 1.57c.43.24 1.46 1.38 1.86 1.84.46.14 1.36.56 1.6.7.26.16 1.25 1.18 1.4 1.54.14.36.08.8.25 1.1.15.32.26.53.3.78.04.26.04 1.3.15 1.53.1.22.3.66.3 1.38 0 .7-.24 1.78-.34 2.34-.1.57-.58 1.5-.58 1.72 0 .2-.06.5-.2.67-.12.18-.16 0-.28.47-.13.48-.57 1.1-.6 1.26 0 .15-.03.36-.1.46-.1.1-.4.1-.4.28 0 .2.28.4.32.55.04.15.1.38.07.52-.05.15-.63 1.07-.93 1.55-.3.5-1.04 1.4-1.1 1.6-.03.2.1.3.1.62s.04 1.2-.07 1.47c-.1.26-2.03 2.38-2.4 2.5-.38.1-2.46-.3-2.86-.22-.4.08-1.86.52-2.38.9-.54.37-1.4.88-1.75.92-.36.04-1 0-1.2-.06-.37-.1-.56-.26-1.03-.65-.46-.4-.94-.85-1.1-.96-.17-.1-.47-.8-.78-.9-.32-.1-1.47-.44-1.78-.56-.32-.13-.55-.32-.55-.32-.97.16-2.2.2-2.9.1-.68-.1-1.7-.8-1.87-.77-.16.02-.76-.08-1.78-.4-1.02-.3-1.9-.65-2.23-1.2-.34-.55-.38-1.17-.4-1.36-.03-.18-.22-.64-.08-1.73.05-.28-.2-.63-.2-1.06 0-.43-.08-1.3.34-2.68 1.07-3.52 1.7-3.93 1.74-4.28.02-.36-.05-.67.64-2.62.7-1.95 1.24-1.52 1.55-2 .3-.47.84-1.5 1.38-2.1.55-.63 1.17-.72 1.45-1.03.3-.3.5-.7 1.02-1.04z"/><path fill="url(#q)" stroke="#f57e80" stroke-width=".634" d="M11.5 33.17c-.1-.1-.18-.2-.24-.3-.42-.7-.48-1.48-.5-1.72-.04-.24-.3-.8-.1-2.2.06-.36-.25-.8-.25-1.36 0-.55-.1-1.64.44-3.4 1.35-4.47 2.17-4.98 2.2-5.43.02-.45-.07-.84.8-3.3.88-2.48 1.57-1.94 1.97-2.54.4-.6 1.06-1.9 1.75-2.68.7-.8 1.48-.9 1.84-1.3.35-.4.6-.9 1.28-1.32.88-.56 2.04-.55 2.23-.77.2-.2 1.18-1.48 1.47-1.72.3-.24 1.44-.1 1.8-.32.38-.2.54-.8.86-.88.32-.08 1.7.24 2.28.13h-.03c-.5-.04-.83-.13-1.05-.35-.25-.24-.16-.4-2.44-.86-2.27-.46-4.9-.75-8.38.57-3.47 1.33-3.5 1.86-3.88 2.07-.37.2-3.1 1.6-3.76 2.23-.66.62-1 .78-1.2 1.07-.2.3-.32.75-.7 1-.37.24-2.47 2.3-3.13 3.34-.67 1.03-.87 1.57-1.16 2.02-.3.46-1.36 1.65-1.94 2.73-.58 1.06-1.16 2.6-1.16 3 0 .4.54 1.32.54 1.57s-.7.8-.73 1.12c-.04.32.08 1.22.16 1.93.08.7.04 1.15.2 1.48.17.34.63.5.7.8.1.3.34 1 .75 1.36.42.37.8.5 1.2.9.4.42 1.2 1.12 1.78 1.3.57.15 1.48 0 1.85.24.4.24 1.67 1.52 2.3 1.73.6.2 1.92-.12 2.3-.16z" transform="matrix(.789 0 0 .789 .433 -1.529)"/><path fill="#f57e80" stroke="#cb696b" stroke-width=".5008600000000001" d="M23.35 30.04c-.38-.08-.56-.25-1.03-.65-.46-.4-.94-.85-1.1-.95-.17-.1-.47-.8-.78-.9-.26-.1-1.1-.34-1.56-.5"/><path fill="url(#r)" stroke="#994f51" stroke-width=".634" d="M23.37 36.23c.18.62.97 1.83 1.88 2.5.9.68.4 1.07.6 1.3.17.24.3.36.84.45.55.08.9.5 1.4.5.5 0 .8-.24.86-.56.06-.33.08-.4.08-.4" transform="matrix(.789 0 0 .789 .433 -1.529)"/><path fill="none" stroke="#d96f71" stroke-width=".5008600000000001" d="M18.1 26.67c.64-.1 1.28-.24 1.95-.35.67-.12 2.33-.05 3.98-.82.74-.35 1.52-1.4 3.27-2.26.66-.32 2.44-1.8 3.1-2.12.66-.3 2.1-1.1 2.45-1.37.34-.25.77-1.1 1.13-1.56.36-.48 2.48-1.34 2.64-1.37.16-.03.12.3.12.57"/><path fill="none" stroke="#d96f71" stroke-width=".5008600000000001" d="M27.8 1.94c.24.1.76.37 1.47.87.7.5 1.9 1.6 2 1.75.13.13 1.08 2.2 1.53 2.92.46.7 2.05 3.33 2.15 3.6.1.28.3 1.05.32 1.4.04.33-.12 1.92-.2 2.24-.08.33-.5 1.48-.64 1.84-.14.35-.44 1.4-.6 1.64"/><path fill="#f57e80" d="M20.24 19.7c-.37-.2-1.65-2.88-2.5-3.67-.86-.8-1.52-1.57-3.87-1.98-2.35-.4-2.4-.37-2.72-.55-.3-.2-.43-.22-.45-.12-.02.1-.12.3-.18.37-.05.18.15.05.48.08.34.04 1.2.5 1.75.6.55.1 2.43.4 2.92.7.5.3 2.05 1.34 2.48 1.9.44.58.8 1.45.96 1.7.16.26.58.86.78.93.2.07.6.15.36.03z"/><path fill="#e47678" d="M13.96 9.7c.36-.28 3.57-.66 4.42.3.86.96 1.45 2.98 2.02 4 .57 1.03.92 1.95 1.64 2.85.72.9 1.3 1.64 1.3 2.17-.03.52-.8 2.58-.84 2.84-.05.26-.46.5-.6.4-.12-.12-2-1.12-2.56-1.12-.54 0-2.32.17-2.7-.05-.4-.22-1.65-.93-1.96-1.36-.3-.44-.3-1.1-1.3-1-.97.08-2.72.43-3.05.58-.33.15-.53-.15-.24-.3.27-.16 2.5-.4 2.83-.57.33-.18 1.18-.24 1.32-.1.13.16.4 1.06.72 1.32.32.26 1.07.75 1.8.9.76.15 2.1.1 2.5.15.43.07 2.24 1 2.53.97.28-.03 1.3-2.16 1.2-2.66-.1-.5-1.47-2.23-2.1-3.37-1.25-2.26-1.95-4.5-2.23-4.82-.3-.33-.55-.96-1.73-1.07-1.18-.1-2.45.04-2.8.22-.35.17-.42-.1-.18-.3z"/><path fill="#e47678" d="M18.16 4c.53.04 1.25.47 1.68.67.42.2 1.13.62 1.47.97.36.34.25.53.08.74-.17.22-.27.68-.6.94-.3.25-1.32.9-1.64 1.34-.32.44-.58 1.24-.98 1.17.17.07.37.38.37.38 0-.33.48-.97.76-1.15.27-.2 1-1.04 1.16-1.24.18-.2.64-.48.7-.64.07-.16.25-.66.53-.9.27-.24.3-.33-.15-.7-.45-.38-1.05-.87-1.38-.96-.33-.1-.93-.4-1.2-.6-.3-.16-.25-.3-.24-.4-.1.2-.27.43-.57.4z"/><path fill="#e47678" d="M12.74 8.86c.5-.24 1-.5 1.28-.57.28-.1 1.17-.37 1.38-.53.2-.16.8-.43 1.04-.44.24 0 .85.3 1.16.3.3-.02.52-.3.33-.3-.2 0-.28.1-.6.03-.35-.08-.68-.18-.54-.22.12-.04.64-.24.73-.36.1-.12.53-.48.53-.6-.2.18-.42.43-.6.5-.17.1-.9.26-1.1.37-.2.1-1.07.64-1.3.7-.25.04-1 .35-1.2.43-.2.08-.5.36-.56.27-.07-.1-.04-.35-.04-.35-.12.27-.52.76-.52.76z"/><path fill="#e47678" d="M8.85 21.14c.15.24.3.54.5.6.2.1 1.8.73 2.37.8.58.1 1.82.37 2 .5.16.12.98 1.15.9 1.24-.06.1-.34-.16-.52-.34-.18-.18-.37-.5-.67-.65-.3-.14-2.26-.54-2.8-.76-.56-.23-1.37-.6-1.47-.7-.1-.06-.35-.64-.35-.34 0-.17.05-.36.05-.36z"/><path fill="#f57e80" d="M22.4 10.04c-.1-.1-.26-.2-.57-.04-.3.15-.26.47-.16.62.1.15 1.32 2.55 1.32 3.05s-.5 1.73-.75 2.08c-.26.35-.1.57-.08.6 0 .05.32-.58.44-.7.13-.15.66-1.17.66-1.35 0-.17-.1-1.02-.2-1.3-.1-.3-.97-1.9-1.03-2.3-.05-.36.02-.4.1-.4s.28-.06.28-.1c0-.07 0-.16 0-.16z"/><path fill="#e47678" d="M23.83 13.45c.26-.4.9-1.7.94-1.83.04-.12.18-1.74.32-1.86.14-.13.43.05.76.24.34.2 1.38.7 1.64.77.25.07 1.53.44 1.76.5.23.08.4.4.5.52.08.13.64 1.2.72 1.34.08.15.2.45.04.56-.16.1-.34.32-.5.37-.14.06-.54.57-.86.56-.33-.02-.87-.02-1.16-.33-.3-.3-.92-.28-.92-.52s-.1-.34-.2-.3c-.07 0-.38.42-.2.6.2.17 1.06.52 1.33.7.28.17.27.3.25.4 0 .12.15.35.3.2.15-.17.15-.3.05-.44-.1-.15-.37-.15-.33-.24.04-.1.46.1.74.1.3 0 .5-.3.68-.36.18-.07.66-.1.87-.37.2-.25.35-.4.3-.62-.03-.2-.48-1.02-.84-1.56-.36-.55-.6-.7-.6-.9 0-.22.05-.56-.14-.8-.2-.27-.2-.43-.18-.58.02-.15.06-.44-.02-.54-.08-.1-.3-.1-.32 0-.03.08 0 .5.1.64.1.13.38.66.38.93s.06.4-.05.4c-.1 0-.78-.24-1.24-.42-.46-.17-1.75-.7-2-.8-.24-.1-.62-.24-.6-.48 0-.24.37-.9.76-1.14.4-.25.47-1.03.47-1.4 0-.4-.25-.88-.85-1.25-.6-.38-2.03-1.3-2.47-1.6-.45-.3-.65-.4-.76-.55-.12-.13-.2-.3-.4-.25-.22.04.04.3.2.4.14.1 1.94 1.3 2.46 1.65.5.33 1.3.83 1.35 1.27.06.43.1 1.05-.2 1.4-.3.38-.85.96-.95 1.36-.1.4-.4 1.54-.6 2.16-.2.6-.75 1.76-.7 1.93.03.18.1.25.18.12z"/><path fill="#e47678" d="M21.1 2.27c.2-.08.54-.06.8 0 .23.07 1.15.42 1.4.46.23.04 1.04.24 1.16.17.12-.06.12.15-.15.2-.26.03-.8-.14-1.15-.23-.37-.1-1.24-.46-1.48-.46-.25 0-.65-.07-.82-.05.1-.03.26-.08.26-.08z"/><path fill="#e47678" d="M23.55 1.7c.22 0 1.2.33 1.43.4.23.1 1.3.66 1.6.9.32.24 1.23 1.5 1.44 1.7.2.2.52.64.7.57.16-.06.07-.1-.06-.3-.13-.2-1.02-1.15-1.3-1.46-.27-.3-.58-.62-.86-.78-.3-.17-1.42-.63-1.63-.74-.22-.1-1.17-.33-1.17-.33l-.15.05z"/><path fill="#e47678" d="M29.7 8.12c.08-.04.3.34.43.46.15.1.75.67 1 .88.22.2.4.56.47.7.08.15.27.95.3 1.15 0 .22.12 2 .16 2.3.05.27.05.55.12.76.07.2.3.44.3 1.03.02.58.16 1.16.1 2.06-.03.9-.12 1.64-.17 1.9-.03.3-.03.47.06.47.1 0 .18.07.32-.03-.23.13-.44.28-.6.37-.03-.16.12-.43.12-.66 0-.23.03-1.2.07-1.77.05-.58.1-1.96 0-2.1-.1-.13-.04-.4-.07-.6-.03-.23-.4-.66-.4-.86.03-.2-.1-1.4-.18-2-.07-.58-.1-1.8-.33-2-.24-.18-.9-1.1-1.15-1.28-.25-.2-.47-.46-.5-.6-.06-.12-.12-.13-.04-.18z"/><path fill="#e47678" d="M25.27 15.3c.12-.07.18.07.13.18-.05.1-.13.14-.2.2-.08.08-.15.33-.08.48.08.14.28.67.5.86.08.17.24.57.5.74.16.1.2.5.38.5.18-.03.75-.4.96-.52.2-.1.73-.32.96-.4.23-.06.5-.3.75-.33.24 0 .55-.15.7-.24.16-.1.15.07 0 .14-.14.07-.7.26-.88.4-.2.12-.6.33-.76.4-.16.1-.53.08-1.08.43-.56.35-.66.6-.8.82-.13.23-.48.7-.56 1.12-.1.42-.04.62.07.72.1.1.24.5.34.63.1.12.34.18.42.1.07-.07.16.1.12.17-.05.1-.1.08-.28 0-.17-.07-.4-.1-.5-.37-.1-.26-.34-.55-.4-.7-.04-.16-.08-.5.02-.68.1-.18.67-1.06.75-1.23.07-.17-.04-.35-.2-.55-.15-.2-.36-.6-.5-.76-.17-.15-.36-.46-.48-.65-.12-.2-.2-.45-.22-.7 0-.28-.1-.46.05-.53.14-.07.18.06.23-.05.06-.1.07-.18.07-.18z"/><path fill="#f57e80" d="M28.33 20.32c.17-.08.4.1.4.15 0 .04-.17-.07-.2.08-.03.14-.13.3.1.44.23.13.18.1.3.28.1.18.02.1-.2-.02-.2-.1-.5-.15-.53-.37-.03-.23-.1-.48.13-.58z"/><path fill="#f57e80" d="M30.74 19.36c.1-.1.05-.23-.1-.32-.16-.08-.2-.15-.1-.18.12-.04.26.04.3 0 .04-.05-.37-.2-.6-.17-.2 0-.34-.15-.34-.07 0 .07.28.23.37.35.1.12.37.48.47.38z"/><path fill="#d96f71" d="M16.63 24.53c.2-.03.8.74 1.12.84.33.1.57.45.92.6.35.15 1.4.25 1.6.27-.22.08-.8.18-.8.18-.62-.18-1.45-.45-1.7-.63-.25-.2-.6-.73-.84-.83-.23-.1-.53-.08-.48-.33.06-.12.08-.1.18-.1z"/><path fill="#e47678" d="M22.06 22.63c.2-.1.23.2.08.3-.14.1-.38.23-.6.8-.2.56-.24 1.05-.03 1.1.22.02.54.2.52.32-.02.1-.26-.1-.5-.18-.22-.07-.5-.4-.42-.7.1-.3.45-.93.7-1.2.27-.26.13-.37.26-.44z"/><path fill="#d96f71" d="M26.45 23.7c-.27.04-1.1.22-1.47.06-.35-.16-1.05-.48-1.05-.4 0 .06.66.5.8.52.1.02.83.12.9.18.04.05 0 .24 0 .24.27-.22.82-.6.82-.6z"/><path fill="#d96f71" d="M8.63 20.4c-.17.26-.42.66-.66.64-.25 0-.46-.15-.65-.16-.2-.02-1.3.04-1.56-.02-.27-.05-1.87-.44-2.2-.58-.34-.14-1.24-.23-1.2-.42.04-.18.2-.1.42-.03.22.06.9.4 1.16.45.28.06 1.35.34 1.7.34.35 0 1.5 0 1.66.02.17.03.54.12.63.02.1-.1.54-.38.6-.63.05-.24.1-.32.1-.32 0 .32 0 .7 0 .7z"/><path fill="#e47678" d="M1.24 16.24c.2-.27.57-.54.8-.6.22-.07.72-.2.9 0 .16.17.34.66.46.8.12.17.4.12.5.2.07.07.68.82.68.95 0 .12-.12.38-.04.46.08.08.3-.05.32-.14.04-.1.07-.44.02-.53-.05-.1-.6-.94-.74-.96-.13-.03-.43-.03-.64-.26-.2-.23-.54-.87-.7-.87-.15 0-.4.13-.62.2-.2.08-.7.18-.77.16-.04 0-.42-.22-.5-.35.13.2.34.94.34.94z"/><path fill="#e47678" d="M1.83 13.3c.2-.2.44-.6.7-.73.26-.13.8-.66 1.03-.6.24.05.66.55 1.2.6.56.05 2.05.05 2.4.17.35.1 1.93 0 2.35-.17.43-.17.58.33.76.35.1.02-.25.24-.6.24-.32 0-.94-.28-1.25-.24-.3.04-1.9-.17-2.2-.17-.3 0-1.6.06-2.18-.2-.57-.25-.8-.15-1.16.06-.35.2-.8.76-1.07.98-.26.22-.48.4-.48.28 0-.1.3-.35.5-.55z"/><path fill="#d96f71" d="M12.08 9.3c-.3-.3-1.32-.92-1.52-1.67-.2-.75-.46-1.18-.37-1.67.08-.5-.14-.35-.3-.33-.13 0-.7.16-.96.1-.26-.05-.4 0-.26.1.15.1.7.1.92.04.22-.06.26.05.28.34.02.3-.08 1.26.24 1.5.3.24.55.85.95 1.03.4.2.74.63.74.72 0 .1-.07.35-.07.4.2-.38.35-.55.35-.55z"/><path fill="#cb686a" d="M12.17 4.95c.02-.13.2-.24.28-.2.07.03.05.34.2.45.15.12.8.68 1 .85.2.16.5.48.62.42.1-.05.05.08.05.08-.1.1-.33.4-.33.4-.1-.3-.52-.48-.6-.6-.1-.13-.33-.45-.62-.67-.3-.22-.63-.55-.6-.73z"/><path fill="#cb686a" d="M17.28 4.23c-.1-.02-.6-.2-.92-.46-.33-.26-.77-.48-1.17-.48-.42 0-1.98-.08-2.35.03-.37.1-.53.22-.64.35-.1.13.36-.15.62-.18.25-.04 1.63-.08 2.05-.02.43.05 1 .1 1.38.44.37.33.5.57.5.57.18-.2.53-.27.53-.27z"/><path fill="#d96f71" d="M8 5.77c.06.04-.42.63-.36.8.05.2.5.76.75.93.25.16.37.53.36.68-.02.15-.22.7-.46.68-.24-.02-.2-.1-.06-.17.13-.08.3-.28.28-.58-.02-.3-.17-.46-.37-.62-.2-.17-.5-.63-.6-.72-.08-.1-.08-.2.1-.44.15-.24.35-.57.35-.57z"/><path fill="#d96f71" d="M4.84 9.04c.2-.13.37-.55.98-.84.6-.3.95-.52 1.12-.5.16.02.53.06.5-.13-.04-.18-.14-.25-.12-.4.02-.15.02-.4.13-.4.1 0 .2-.2.02-.13-.2.07-.3.22-.3.36 0 .15.1.44 0 .46-.12.02-.4-.07-.6.06-.2.13-1.1.64-1.2.77-.12.12-.53.74-.53.74z"/><path fill="#cb696b" d="M21.76 1.58c.35-.05-2-.53-2.33-.6-.33-.04-3.34-.12-3.8 0-.5.15-1.35.47-1.7.6-.12.05.1.08.4.08.28 0 .9.05 1.3.07.4 0 1.44.04 1.77.1.33.05 1.5.22 1.75.4.26.2.24.1.24.23 0 .12 0 .33-.03.38.14-.16.2-.28.34-.34.15-.05.3-.1.3-.1-.5-.18-.95-.52-1.33-.55-.4-.03-1.83-.16-2.18-.18-.37 0-2.12 0-2.08-.1.04-.1.26-.18.6-.3.3-.13.7-.28 1.4-.28.67 0 2.88.1 3.28.16.4.06 1.52.3 1.56.42.05.1-.06.64-.15.7.2-.14.37-.42.45-.5.08-.1.1-.18.2-.2z"/><path fill="#f57e80" d="M11.14 2.8c.38-.08.93-.22 1.08-.3-.3.06-.8.18-.75.08.05-.1.13-.17.13-.17-.2.18-.46.4-.46.4z"/><path fill="#f57e80" d="M34.33 12.6c.1-.1.27.2.3.32.04.12.05.53.12.7.07.18.2.63.2.76.02.13.1.4.12.3-.04.2-.13.47-.13.47-.05-.33-.13-.62-.16-.8-.03-.2-.1-.4-.2-.78-.07-.36-.15-.72-.24-.76-.1-.03-.08-.14 0-.2z"/><path fill="#f57e80" d="M32.56 8.26c0-.2-.44.26-.44.4 0 .1.1.25.22.07s.22-.38.22-.47z"/><path fill="#e47678" d="M34.52 5.8c-.1-.06-.3-.06-.28.02.02.1.24.6.56.85.32.27.6 1.12.6 1.27 0 .14.12 1.65.25 1.83.13.17.53.97.65 1.16.1.2.44 1.24.52 1.42.1.17.12.63.22 1.44.1.8.3.92.37.85.08-.07 0-.04-.12-.44s-.16-1.12-.2-1.5c-.05-.38-.46-1.4-.65-1.76-.2-.35-.38-.72-.43-1.16-.04-.44-.26-1.17-.4-1.68-.13-.52-.42-1.15-.53-1.3-.12-.14-.56-.58-.56-.7 0-.14.02-.3.02-.3z"/><path fill="#e47678" d="M36.2 7.13c.16-.02.37.28.3.3-.07.04-.1.14-.03.3.07.16.35.84.5 1 .15.16.48.6.54.6.07.03.1.38.1.44s.04.36-.15.12c-.2-.26-.38-.6-.46-.82-.1-.22-.34-.76-.46-1-.1-.23-.2-.52-.22-.66 0-.13-.24-.28-.13-.3z"/><path fill="#f57e80" d="M37.12 16.78c-.13-.15-.24-.28-.52-.12-.27.16-.86.2-.98.32-.12.13-.56.52-.64.56.44-.22 1.6-.8 1.68-.7.1.08.1.5.1.5.17-.07.36-.56.36-.56z"/><path fill="#d96f71" d="M33.66 24.68c.1-.07.26.12.2.2-.05.1-.05.12-.5.25-.43.13-1 .6-1.1.76-.12.15-.55.06-.75.35-.18.28-.54.85-.62.96-.1.13-.8.52-1.02.65-.22.13-.64.4-.74.38-.1 0-.48.04-.48.04.48-.28 1.17-.58 1.3-.68.13-.1.33-.18.63-.5.3-.3.6-.82.77-.94.2-.1.6-.14.7-.3.1-.18.55-.67.83-.8.3-.1.54-.1.6-.17.08-.1.2-.22.2-.22z"/><path fill="#d96f71" d="M30.14 25.78c.2-.1.73-.17.7-.08 0 .1-.3.44-.6.5-.3.08-.47.2-.64.32-.16.12-.52.1-.83.16-.3.07-.05-.22.1-.24.17 0 .4 0 .54-.14.15-.15.5-.42.74-.52z"/><path fill="#d96f71" d="M32.06 22.92c-.15.22-.47.64-.67.74-.2.1-1.08.65-1.38.78-.3.13-.78.3-.94.52-.16.22-.47.46-.7.62-.2.16-.65.3-.92.54-.27.23-.78.72-.7.8.1.07.5-.4.7-.5.2-.1.8-.27.86-.35.07-.1.34-.47.7-.73.33-.25.9-.54 1.25-.75.34-.23 1.3-.83 1.44-1 .16-.2.36-.68.36-.68z"/><path fill="#d96f71" d="M35.56 19.82c0 .13-.13.67-.13.83 0 .16.16-.05.2-.27.04-.22-.07-.56-.07-.56z"/><path fill="#d96f71" d="M34.98 18.92c.13-.15.33 0 .18.12-.14.13-.4.37-.4.6 0 .23-.12.85-.14 1.08-.02.24.02.65-.22.8-.23.14-.4-.1-.48.1-.1.17-.38.27-.64 1.1-.1.3-.2.3-.28.22-.08-.1-.15-.36-.3-.27-.17.1-.32.2-.44.33.12-.33.4-.58.5-.56.1 0 .22.3.3.14.1-.14.33-.72.5-.88.2-.16.52-.16.66-.35.15-.18.3-.4.35-.93.05-.53.07-1 .18-1.14.1-.15.23-.36.23-.36z"/><path fill="url(#s)" d="M35.04 30.82c-1.33 1.16-1.4 1.37-1.6 1.5-.17.16-.76.04-1.3.68-.54.65-1.18 1.33-1.72 1.73-.54.4-.6.78-.93.78-.33 0-.76-.27-1.15-.1-.4.2-.7.83-.83 1.37-.14.53-.2 1.1-.54 1.1-.32 0-.68.15-.86-.1-.18-.25-.52-.8-.64-.86-.13-.05-1.83-.63-2-.63 0 0-.73-.22-1.07-.54.54-.05 1.83-.35 2.03-.37.2-.03.67-.1 1-.13.32-.03 2.33-.13 3.75-.67 1.4-.54 2.64-1.78 2.88-1.94.25-.15 2.06-1.34 2.98-1.8z" transform="matrix(.789 0 0 .789 .433 -1.529)"/><path fill="#d96f71" d="M24.33 27.14c.2-.22.32-.38.25.1-.07.5.02.74.1.74.1 0-.33-.23-.36-.1-.04.12-.2.48-.02.62.1.04-.28.14-.3-.05-.05-.2.02-.42.1-.66.1-.26.1-.5.23-.66z"/><path fill="url(#t)" d="M12.3 25.76c.4-.3 2.1-.64 2.63-.72.5-.1 1.86-.52 2.2-.4.34.1.94 1.2 1.3 1.74.36.54 1.75 1.28 2.3 1.28.52 0 2.25-.08 2.64-.08.38 0 1.75-.05 1.9.1.15.16 1.17.95 1.56.84.38-.1 1.3-1.54 1.3-2.22 0-.5-1.1-1.7-1.58-2.42-.5-.7-2.22-3.97-2.35-4.5-.13-.54-1.4-3.87-1.88-4.13-.47-.26-1.96-.55-2.63-.55-.67 0-2.48.25-2.8.5-.3.22-1.05-.23-.54-.78.5-.56 1.88-.8 2.46-.8.57 0 2.9.14 3.24.24.35.1.75-.13 1.18-.8.43-.65.5-1.3 1.24-1.72.75-.4 1.24-.26 1.35-.58.1-.32.9-1.04.5-1.4-.38-.33-1.68-1-2.02-1-.33 0-.74.42-1.17.22-.42-.2.07-.6-.32-.76-.37-.18-1.18-.52-1.72-.05-.53.47-.96 1.2-1.15 1.4-.2.2-1.37.38-1.7.8-.3.43-1.23 1.82-1.04 1.9.18.1 1.38-.3 1.8-.5.44-.22 1.3-1 1.7-1 .4 0 .72-.05.87-.25.15-.2 1.1-.8 1.2-.64.1.17-.28.96-.56 1.1-.26.16.38.23.42.42.04.2-.1.7-.5.8-.44.12-1.2-.22-1.57-.16-.4.07-2.48.66-3.02.98-.53.33-1.9.75-2.1 1.3-.18.56-2.04 4.05-1.27 4.52.77.47 4.5 1.1 5.28 1.4.76.3 3.22 2.48 3.8 3.55.58 1.06 1.3 2.7 1.56 2.92.26.2.64.75.5.75-.1 0-.97-.02-1.1-.26-.13-.22-1.7-3.1-1.94-3.2-.24-.1-3.46-2.7-4.43-2.7-.96-.03-2.58-.1-3.07-.4-.5-.3-1-.65-1.5-.23-.5.43-1.17 1.33-1.4 2.44-.24 1.12-.3 2.68-.44 3.15-.16.47-.38 2.33.06 2.65.44.3 1.92 1.2 3 1.35 1.07.16 2.23-.28 2.86.57.64.85 1.42 2.15 1.23 2.43-.2.3-.7.32-1.04.13-.34-.2-1.26-.98-1.86-1.2-.6-.22-4.13-1.55-4.35-1.45-.22.1-.2.98.03 1.48.22.52.88 1.5 2.05 1.87 1.17.38 2.52.1 3.1.4.56.33.97 1.1 1.73 1.34.75.26 2.68.23 2.9-.15.22-.38.06-1.07-.32-1.07-.37 0-1.22-.38-.97-.92.26-.53.83-.66 1-.53.2.12.84 1.1 1.15 1.1.32 0 .25-.98.8-.85.53.12.34 1.26.65 1.5.32.26 3.22.52 3.28-.08.08-.6-1.12-.76-1.06-1.36.06-.6 1.3-2.1 1.2-2.4-.1-.28-1.42-1.04-2.3-1.13-.9-.1-3.2-.1-3.9-.5-.74-.4-2.7-1.6-2.9-1.92-.18-.32-.14-1.1-1.34-1.07-1.2.04-3.6.7-3.9.8-.33.1-1 .03-.86-.5.12-.55.44-.37.66-.54z" transform="matrix(.789 0 0 .789 .433 -1.529)"/><path fill="#f4b1b3" d="M22.4 22.92c-.16.16-.54.57-.42 1.15.12.57.7.94 1.3.8.6-.16 1.14-.18 1.06-.46-.07-.26-.57-.06-.9-.38-.3-.33-.6-.65-.6-.8 0-.15.04-.6.26-.67.22-.08 1 .15 1.4.4.4.24 1.54.54 1.93.17.4-.37.5-.75.08-.9-.4-.15-1.1-.94-1.16-1.3-.05-.34-.22-.86.02-1.23.25-.4.8-.9.68-1.23-.13-.33-1.12-1-1.22-1.55-.1-.54-.35-.92-.18-1.32.18-.4.35-.5.55-.54.2-.05.66 0 .66.25 0 .26-.37.48-.22.85s.47 1.4.84 1.47c.38.08 1.15-.12 1.67-.45.52-.32 1.5-.54 1.67-.77.17-.22.5-.55.52-.35.03.2.03.85-.2.97-.22.13-.8.18-.77.5.03.32.37.77.6.87.22.1.84-.1 1 .14.14.25.2.55-.03.55-.22 0 .25.4.02.5-.22.06-.87-.1-1.07-.46-.2-.38-.23-.77-.63-.95-.4-.18-.8-.13-1.44 0-.65.12-1.35.7-1.35 1.04 0 .35-.3.9-.1 1.34.2.45.73.57.78.77.05.2-.35.72-.05.92.3.2.98.28 1.23-.12.24-.4.3-.52.12-.77s-.42-.45-.42-.72c0-.28.3-.6.5-.6s.76.27.64.55-.27.48.12.53c.4.05 1.4-.47 1.86-.8.47-.32.9-.47.92-.8.03-.32.13-2.28.1-2.7-.02-.43-.05-1.1-.12-1.52-.08-.42-.25-1-.5-1.14-.25-.12-.62-.25-1.02.13-.4.36-1 .56-1.24.76-.25.2-.38.64-.6.67-.23.02-.7.07-.7-.25s-.17-.62-.45-.7c-.27-.07-1.07-.15-1.1-.55-.02-.4.06-1.04.36-1.07.3-.02.5.33.75.5.25.18 1.22.92 1.55.75.32-.17.67-.52.9-.7.22-.2.44-.36.04-.93-.4-.58-.45-1.3-.87-1.4-.42-.1-1.9-.27-2.3-.57-.4-.3-1.18-.95-1.53-.77-.35.17-.18 1.12-.25 1.5-.1.36-.96 1.96-1.13 2.1-.17.16-1.54 2.52-1.54 2.82 0 .3.52 1.27.87 1.72.35.44.52.77.12 1.7-.4.9-.87 2.2-.87 2.38 0 .17 0 .52-.15.67z"/><path fill="#f4b1b3" d="M21.95 15.75c.2-.38.7-1.7.7-2.05-.04-.35-.86-1.4-1.07-2.3-.2-.9-.24-1.37.12-1.5.35-.1.87-.13.87.1 0 .24-.43.36-.33.74.1.37.9 1.8.96 2.2.07.4.2 1.14.26.86.07-.28.07-.83.24-1.27.16-.45.45-1.9.66-2.6.2-.68.7-1.27.94-1.57.24-.3.75-1.18.6-1.82-.18-.63-1.57-1.36-2-1.72-.4-.35-2.02-1.32-2.02-1.55 0-.24.26-.33.5-.24.23.1.2.38.35.47.14.1 2.4 1.5 3.02 1.86.6.36 1.32.85 1.32 1.32 0 .47-.17 1.53-.47 1.6-.3.08-.64.05-.8.38-.17.33-.5.7-.1.85.4.17 1.77.83 2.1.9.33.08 1.13.22 1.13-.02 0-.23-.4-.75-.38-1.13.02-.38.2-.54.4-.5.2.05.28.17.28.36 0 .2-.18.62-.1.74.1.12.43.45.43.66 0 .2 0 .57.1.73.1.17.97 1.6 1.08 1.63.12.02.76-.03.76-.3 0-.3-.03-2-.22-2.22-.18-.24-1.34-1.23-1.48-1.44-.14-.2-.6-.5-.24-1.04s.52.05.55.28c.03.24 1.1 1.18 1.28 1.3.16.12.56-.24.6-.6 0-.34.36-.86.5-.86.15 0 .57.16.4.45-.16.28-.5.54-.72.8-.22.26-.48.44-.38.8.1.35.38 1.18.38 1.55 0 .38-.05 1.84.1 2.08.13.23.44 1.34.44 1.8 0 .43.28 1.45.2 1.94-.1.5-.34 1.55-.27 1.88.07.34.33-.14.66-.54.32-.4.3-1.13.43-1.36.15-.24.36-.8.64-1.46.28-.66.2-1.37.16-1.82-.02-.45-.14-.84-.33-1.06-.18-.2-.28-.7 0-.8.3-.1.43-.07.45.17.03.24.2.74.2.93 0 .18.16.77.2.56.05-.22.26-1.63-.1-2-.34-.4-.75-2.16-1.14-2.56-.4-.4-1-1.53-1.13-1.76-.1-.24-.82-1.7-1-2.1-.2-.4-1.96-2.2-2.7-2.57-.72-.34-2.42-1.23-3.4-1.35-.95-.12-1.63-.02-.27.38 1.37.4 1.72.9 1.9 1.17.2.26 1.66 1.77 1.75 1.98.1.2.2.5-.33.28-.52-.2-1.43-1.34-1.67-1.67-.23-.34-2.26-1.6-2.6-1.7-.37-.1-1.26-.07-1.5-.12-.23-.05-.8-.33-1.03-.2-.24.15-.4.46-.17.46.24 0 1.23.4 1.4.44.16.05 1.05.2 1.4.2.36 0 .4.37.03.44-.38.07-1.58-.23-1.77-.35-.18-.12-1.36-.38-1.73-.33-.38.04-1.02-.03-1.5.6-.46.65-.62.8-.03 1 .6.2 1.36.6 1.55.75.18.16.84.65 1 .9.17.22-.18.48-.37.8-.2.34-.52.84-.92 1.12-.4.28-1.1 1.22-1.3 1.4-.17.15-.76.8-.65 1.03.12.2.9 1.62.92 1.86.02.24.47 1.35.57 1.6.1.27 1.15 2.08 1.36 2.17.2.1.28.12.35-.02z"/><path fill="#f4b1b3" d="M29.95 2.85c.27.04 2.02.68 2.43 1.15.4.46.87.87 1 1.4.14.5 1.3 1.24 1.07 1.4-.25.17-.38.58.05 1.12.44.55.6 1.53.93 1.96.33.44 1.23 2.24 1.23 2.98 0 .73-.03 1.74-.25 2.23-.2.48-.73 1.63-1.05 1.82-.33.2-.82.82-.88.55-.05-.28.22-1.18.4-1.6.15-.45.6-1.16.56-1.32-.05-.17.14-2.65-.14-3.03-.28-.38-1.53-2.94-1.9-3.35-.34-.4-1.24-2.68-1.6-3.28-.35-.6-2.53-2.16-1.85-2.05z"/><path fill="#f4b1b3" d="M35.27 6.53c.1.02.73.85 1 1.47.28.63.82 2.35.96 2.9.14.54.54.76.54 1.17 0 .4.1 1.03-.05 1.28-.16.25-.05.8-.16.82-.1.02-.22-.5-.3-1.4-.08-.9-1-2-1.12-2.6-.1-.6-.36-2.46-.6-2.93-.25-.46-.4-.74-.27-.7z"/><path fill="#f4b1b3" d="M22.9 26.68c.35-.08.8.3 1.08.1.27-.23 1.22-1.05 1.47-1.5.25-.42.65-1 .9-1.05.25-.05.63.27.84-.05.2-.33.42-.85.65-1.12.23-.27.95-.36 1.45-.82.5-.46 1.7-1.12 2.3-1.47.56-.36 1.1-.5 1.4-.8.3-.3.88-1.17 1.15-1.52.27-.36 1.42-1.12 1.7-1.2.26-.08.73-.08.56.46-.15.56-.48 1.32-.75 1.5-.27.2.22-.3-.08-.45-.3-.17-.47-.4-1 .3-.5.7-.23 1.82-.42 2.07-.2.25-.77.3-.9.46-.14.17-.46.58-.74.8-.26.2-.72.3-.9.62-.2.33-.8.82-1.24.96-.44.13-1.15.24-1.53.73-.38.48-.74.73-1.17 1.03-.44.3-.98.63-1.07 1.04-.1.4-.14 1.36-.82 1.4-.7 0-1.04-.18-1.04-.67 0-.5.16-.8-.05-.76-.23.03-.8.4-.78.7.03.3-.27 1.02-.13 1.2.12.2 1.05.25 1.05.6 0 .36.03.72-.7.7-.75-.04-1.18-.34-1.76-.75-.58-.42-.36-.5-.22-1.02.13-.5.27-1.4.73-1.5z"/><path fill="#f4b1b3" d="M29.4 25.24c.45-.28 1.67-.8 1.86-1 .2-.23 1.12-1.07 1.28-1.07.16 0 .35.3.76-.17.4-.46.66-1.2.85-1.2.2 0 .1 1.1-.63 1.58-.74.5-.24.85-.76 1.07-.52.22-.93-.03-1.18.24-.24.27.1.8-.4.8-.52 0-1.34.1-1.64.37-.3.27-1.04.43-1.2.7-.16.28-.68.8-.93.82-.23.02-.56-.36.23-.77.8-.4 1.04-.93 1.77-1.4z"/><path fill="url(#u)" d="M1.3 20.34c.15-.4.93-1.38 1.2-1.58.28-.2 1.14-.9 1.63-.77.48.13 1.4.3 2 .3.6 0 1.93 0 2.35 0 .4 0 2.66.42 2.94.46.27.03-.28.8-.7 1.86-.4 1.07-1.24 4.87-1.38 5.6-.13.73-.5 1.3-.9 1.45-.38.14-1.96.24-2.76.04-.8-.2-2.3-.5-2.76-.82-.45-.3-1.18-.45-1.04.1.14.55.66 1 .93 1.07.3.07 1.3 0 1.7.1.42.1 2.35.46 2.74.46.38 0 2.04-.06 2.1.18.07.24-.13 1.07 0 1.73.14.66.5 1.77.87 2.05.4.27.15.52-.55.34-.7-.18-1.62-.77-2.3-1.15-.7-.38-1.4-.4-2-.62-.64-.2-1.67-1.1-2.12-1.38-.45-.28-1.28-.83-1.52-1.52-.24-.7-.3-.94-.65-1.42-.35-.48-.6-2.7-.3-3.14.27-.45.65-1.24 1.06-1.48.42-.25.94-.42 1.5.38.55.8.8.58 1.03.72.24.14.7.6.73.9.03.3-.17.8.17.83.35.04.62-.47.6-.8-.05-.3-.67-1.13-.88-1.33-.2-.2-.8-.25-1.03-.56-.24-.3-.38-1.02-.8-1.06-.4-.03-1.52.66-1.76.52s-.6-.6-.55-.86c.04-.28.18.2.5-.56z" transform="matrix(.789 0 0 .789 .433 -1.529)"/><path fill="#f4b1b3" d="M3.25 11.44c-.3-.36.47-1.34.93-1.64.46-.3 1.4-.7 1.66-1.1.28-.42.8-.86 1.12-.86.33 0 .7.22.77 0 .05-.22.68.14.5.38-.2.25-.42.58-.34.7.07.1.53.4.7.07.16-.34.5-.75.3-1.2-.2-.48-1.04-1-.98-1.27.05-.27.1-.54.54-.54.44 0 .9-.1 1.07.12.16.22-.14.63.08.96.23.33.25.8.77 1.28.52.5 1.2.76 1.15 1-.06.25-.4.1-.82.7-.4.6-.55 1.93-.82 2.14-.27.22-1.36.36-1.7.4-.32.07-2.94-.12-3.48-.48-.55-.35-1.34-.54-1.45-.68z"/><path fill="#f4b1b3" d="M5.24 7.98c.16-.3 1.3-1.37 1.64-1.53.35-.16.27.1.16.3-.1.2 0 .44-.2.52-.18.08-1.35.63-1.38.73-.03.1-.3.14-.22-.02z"/><path fill="#f4b1b3" d="M11.8 8.7c.3.1.75-1.38.94-1.57.2-.2.28-.63.08-.95-.2-.33-.87-.96-.8-1.17.04-.2.3-.6.53-.5.25.12.2.48.27.6.1.1.88.8 1.04.67.16-.14.68-.36.65-.66 0-.3-.1-.72.15-.7.25.03.77.47 1.06.17.32-.3.37-.77-.1-.77-.46 0-1.77-.22-2.04-.22s-.98.28-1.23.36c-.24.08-.8.38-1 .57-.2.2-.77.67-.77 1.57s.1 1.55.44 1.93c.32.4.38.6.8.7z"/><path fill="#f4b1b3" d="M8.84 5.4c0-.26 1.15-1.2 1.53-1.4.38-.2 1.6-.4 1.53-.28-.1.14-1.04.52-1.18.85-.13.33-.27.7-.43.8-.18.07-1.46.43-1.46.02z"/><path fill="#f4b1b3" d="M11.7 3.07c.4-.3 2.24-.85 2.92-.85.7 0 2.68-.3 2.95.1.27.42.1.88-.2 1.02-.3.14-.37.4-1.06.14-.67-.28-1.43-.4-2.03-.36-.6.06-1.7.08-2.02.08-.33 0-.76.03-.54-.13z"/><path fill="#f4b1b3" d="M19.26 1.84c.2-.03.73-.4.4-.5-.32-.07-2.56-.32-3.15-.26-.6.05-1.93.38-1.4.38.5 0 1.9.16 2.1.16.23 0 1.87.25 2.06.22z"/><path fill="#f4b1b3" d="M12.36 2.25c.3-.13 1-.52 1.28-.52.27 0 1.28.06 1.1.14-.2.08-1.5.35-1.86.4-.36.06-.96.17-.52-.02z"/><path fill="#f79899" d="M21.7 1.2c-.1-.16-2.88-.94-4.98-.5-.32.02 1.37.13 2.02.13.66 0 2.65.5 2.76.5.1 0 .43.18.2-.12z"/><path fill="#f4b1b3" d="M7.32 5.74c.12-.33.92-1 1.28-1.25.35-.26 2.23-1.4 2.42-1.38.2.03.74.36.47.36-.28 0-1.1 0-1.5.3-.37.3-1.3 1.52-1.5 1.7-.23.2-1.32.62-1.18.26z"/><path fill="#f5d9d9" d="M25.2 14.87c-.44 0-.78.18-.8.95-.04.76.78 2.5.62 3.04-.16.54-.98.98-.7 1.58.3.6 1.3 1.5 1.4 1.97.1.48-.4.45-.63.1-.24-.35-1.66-.06-1.82-.4-.16-.36-.5-.84.16-1.7.66-.85.8-1.83.3-2.18-.46-.35-1.1-1.3-.9-2 .2-.7 1.14-2.3 1.52-2.75.38-.44 1-1.7.98-2.44-.03-.73.1-.86.38-.7.3.16 1.74.73 2.2.9.43.15 1.63.7 1.76 1.35.13.67-.1 1.37-.6 1.37s-.98-.13-1.55-.73c-.57-.6-.73-.64-1.1-.03-.4.6-1 1.2-.5 1.35.52.16 1.66.38 1.72.8.07.4.73 1 1.02.75.28-.25.63-.82.98-.92.35-.1.98-.85 1.4-.76.4.1.9.32.9 1.27 0 .94-.37 1.48-.14 1.92.23.44.42 1.84.04 2.03-.38.2-.54.13-.54-.35s.2-.98-.32-1.14c-.5-.16-1.23-.4-.9-.8.36-.37.62-.82.58-1.13-.03-.32-.3-.67-.73-.42-.4.27-1.9 1.25-2.47 1.28-.57.03-1.45-.4-1.4-1.1.07-.7.04-1.15-.85-1.1z"/><path fill="#f5d9d9" d="M26.64 19.78c-.06.47.73 1.6.98 1.23.26-.37.4-1.22.86-1.16.44.06.8.7 1.36.6.57-.1 1.65-.4 1.17-.5-.46-.1-1.4-.32-1.5-.7-.1-.38-.04-.92-.9-.9-.85.04-1.83.4-1.96 1.44z"/><path fill="url(#v)" d="M25.77 30.4c.5.2.2.97-.56 2.12-.24.38.78 1.85-.55 1.78-1.3-.08-1.3-1.6-1.72-1.6-1.63-.06-3.36-.45-4-1.28-1.02-1.28-2.02-2.3-3.26-2.3-1.25 0-3.54-.7-3.38-1.35.15-.65 3.08-1.65 3.93-1.33.84.32 1.74 1.14 2.65 1.9 2.07 1.7 6.33 1.87 6.9 2.07z" transform="matrix(.789 0 0 .789 .433 -1.529)"/><path fill="url(#w)" d="M13.82 21.54c1.04-.4 3.53-.28 4.3.04.76.32 3.13 1.17 4.05 2.6.92 1.46 2.13 2.46 1.97 2.78-.16.32-1.8.44-2.5.04-.68-.4-1.8-.48-3.5-2.13-1.67-1.64-5.33.2-5.65.4-.33.2-1.25-2.77 1.32-3.73z" transform="matrix(.789 0 0 .789 .433 -1.529)"/><path fill="url(#x)" d="M21.97 15.4c.75.46 1.6 3.4 2.3 4.74.67 1.32 3.12 5.06 3.28 5.86.16.8-1 1.97-2.6-.32-1.62-2.3-2.5-4.5-3.74-5.58-1.24-1.1-5.25-1.1-5.94-1.93-.68-.84.65-2.65 1.85-2.77 1.22-.12 3.9-.6 4.87 0z" transform="matrix(.789 0 0 .789 .433 -1.529)"/><path fill="url(#y)" d="M5.05 19.27c1.78.33 2.38-.46 3.26.1.9.56 2.06 1.7 1.66 2.4-.4.67-.68 4.03-1.28 4.43-.6.4-2.98 1-3.74.48-.76-.52-1.76-.62-2.04-1.35-.28-.72-.98-2.36-.5-2.36.5 0 1.88.88 2 1.48.13.6.95 1.1 1.23.83.28-.28 1.02-1.97.28-2.7-2.74-2.7-3.07-1.95-3.03-2.67.03-.72 1.42-.77 2.18-.63z" transform="matrix(.789 0 0 .789 .433 -1.529)"/><path fill="url(#z)" d="M6.23 14.07c.7-.38 1.48-2.04 2-1.85.53.2.85.9 1.05 1.13.2.24.8.84 1.36.04.57-.8-.12-1.82.33-1.94.44-.12 1.64 1.65 2.08 2 .45.37-.84 1.3-1.08 2.14-.24.84-.6 2.1-1.44 2.05-.85-.04-4.3-.16-4.66-1.2-.37-1.05-1.2-1.53.36-2.38z" transform="matrix(.789 0 0 .789 .433 -1.529)"/><path fill="url(#A)" d="M14.54 7.6c.5-.1-.32.4-.24.73.08.32.8 1.08.88 1.65.08.56-.08 1.2-.16 1.72s-.2 1.37-.6 1.13c-.4-.24-1.6-1.25-1.5-2.9.13-1.64.74-2.16 1.62-2.32z" transform="matrix(.789 0 0 .789 .433 -1.529)"/><path fill="#f5d9d9" d="M4.1 21c.7.13 2.1.5 2.74.46.63-.03.63.22.47.72-.15.5.2 1-.2 1.1-.42.14-1.18-.75-2-.75-.83 0-2.07-1.7-1-1.52z"/><path fill="#f5d9d9" d="M33.47 19.8c0 .28-.44 1.16-.9 1.65-.47.5-.93 1.2-1.3 1.5-.34.3-.97-.17-1.32.27-.36.44-1.7 1.4-2.3 2.07-.6.67-1.63 2.1-1.7 2.4-.1.3-.94.3-.96-.06-.04-.36-.26-1.15.45-1.83.7-.67 1.66-.72 2.04-1.22.38-.5.7-1.25 1.2-1.58.5-.32.95-.84 1.36-1.14.4-.3 1.77-1.15 2.23-1.4.46-.24.65-.32.78-.46.14-.13.4-.35.4-.2z"/><path fill="url(#B)" d="M16.33 5.45C17.1 5.22 19 4.9 20 4.93c1 .03.72.52.85.8.14.27.18.7-.24.58-.4-.1-1.6-.6-2.44-.58-.83.04-3.77.28-1.83-.27z" transform="matrix(.789 0 0 .789 .433 -1.529)"/><path fill="#f5d9d9" d="M12.9 4.1c.45-.26 1.67-.27 1.6 0-.04.28-.3 1.23-.6 1.34-.26.1-.86-.22-.94-.54-.08-.33-.46-.55-.05-.8z"/><path fill="#f5d9d9" d="M19.3 1.35c-.3-.04-2.5-.1-2.8-.08-.3.03.4.27 1.45.33 1.04.05 1.12.27 1.25.16.14-.1.33-.38.1-.4z"/><path fill="#f5d9d9" d="M20.68 2.93c.3-.03.5.8 1.22 1.15.7.35 3.1 1.47 3.33 2 .22.5.46 1.2-.16 1.68-.63.5-1.48.1-1.56.76-.07.66.6.85.4 1.58-.2.74-.22 2.6-.44 2.65-.22.05-.87-1.56-.87-2.07 0-.52.67-.52.3-.96-.34-.44-1.87-.16-1.87.33 0 .5.33 1.2.46 1.7.13.48.8 1.98.8 2.3 0 .33-.23 1.48-.48 1.53-.24.06-1.36-1.7-1.55-2.3-.2-.6-1.04-2.7-1.1-3.2-.05-.5 1.32-1.45 1.67-1.94.35-.5 1.2-1.94 1.58-1.96.38-.03.85-.6.46-.77-.38-.15-1.3-.5-2.18-.94-.87-.44-1.58-.5-1.28-.9.3-.4.74-.57 1.26-.63z"/><path fill="#f5d9d9" d="M25.64 9.3c-.04-.34.24-.7.57-.78.34-.08.86-.05.88-.38.03-.33.66-1.2.28-1.83-.4-.6-4.48-2.58-4.48-2.88 0-.3.52-.2 1-.05.5.13 2.3 1.06 2.5.9.2-.16-1.67-1.5-1.37-1.66.3-.16 1.48.85 1.73 1.1.24.24.93 1.9 1.47 2.04.55.14 1.5-.13 1.34-.38-.16-.25-1.45-1.36-1.88-1.9-.44-.55-1.88-1.45-1.53-1.5.35-.06 2.37.9 2.86 1.24.48.36 2.26 2.13 2.37 2.5.1.4.92 1.32.65 1.68-.27.35-.27 1.66-.63 1.55-.36-.1-.88-1.93-1.37-1.77-.5.16-1 0-1.04.63-.03.6-.7.37-.83 1.08-.13.7.74 1.25.52 1.4-.23.12-1.37-.1-1.78-.34-.4-.24-1.25-.43-1.28-.65z"/><path fill="#f5d9d9" d="M29.5 9.23c.17-.07 1.35.85 1.48 1.15.14.3.44 1.77.33 2.04-.1.27-.62.03-.97-.38-.36-.4-.4-1.25-.6-1.66-.2-.4-.82-.87-.22-1.15z"/><path fill="#f5d9d9" d="M32.1 9.72c.1-.28.7-.8 1.07-.46.35.33 1.36 1.96 1.03 2.26-.33.3-.65.6-.5 1.15.17.54.64 1.52.58 2.45-.05.93-.57 1.88-.68 2.2-.1.34-.5 1.5-.68 1.54-.2.02.14-1.64.14-2.02 0-.38-.3-2.2-.44-2.6-.14-.37-.36-1.05-.36-1.9 0-.85-.05-1.6-.2-1.94-.12-.32-.07-.35.04-.68z"/><path fill="#f5d9d9" d="M31.2 3.8c.24-.03 1.42.77 1.75 1.26.33.5 1.2 1.4 1.1 1.58-.12.2-.34.33-.15.8.2.45 1.42 2.47 1.64 2.83.22.35.93 1.93.95 2.3.02.34-.25.45-.25 1.3 0 .84-.28 1.85-.57 2.07-.3.22-.82 1-.77.52.07-.5.17-.77.4-1.26.2-.5.16-.7.2-1.17.07-.46.15-2.3-.07-2.6-.22-.3-1.5-2.74-1.75-3.07-.24-.33-1.4-2.78-1.47-3.03-.07-.24-.7-.8-.83-1.03-.14-.25-.36-.47-.17-.5z"/><path fill="#f5d9d9" d="M17.4 4.54c.23-.05 1 .1 1 .24 0 .16-.35.43.03.6.4.16 1.1-.12 1.46.05.35.16 1.46.32 1.17.82-.53.92-1.66.83-1.88 1.24-.23.4-.62 1.76-1.14 1.77-.52 0-1.9-.3-2.6-.23-.68.08-2 .67-2.07.3-.08-.35.25-.52.72-.64.48-.1 1.84-.78 2.27-.82.43-.04 1.23.33 1.63-.03.4-.36.53-.52.36-.9-.17-.35.44-1.2-.2-1.2-.37-.02-.83.52-1.08.62-.26.1-.6.05-.85.26-.25.2-.92.72-1.2.83-.26.12-1 .4-.84.03.16-.38.78-1 1.22-1.2.44-.22.9-.45 1.05-.78.15-.34.5-.9.9-.98z"/><path fill="url(#C)" d="M11.45 30.8c.38-.08 2.53.48 3.24.82.7.33 2.74 2.08 3.24 2.27.5.2 2.96 1.08 2.05 1.27-.9.2-1.5.1-2.63-.66-1.1-.75-2-.88-2.87-.88-.86 0-2.33-.5-2.65-1.34-.32-.84-.7-1.4-.4-1.47z" transform="matrix(.789 0 0 .789 .433 -1.529)"/><path fill="none" stroke="#cb696b" stroke-width=".5008600000000001" d="M9.5 24.64c-.07-.08-.13-.15-.18-.24-.34-.54-.4-1.16-.4-1.35-.03-.2-.22-.64-.08-1.74.05-.27-.2-.63-.2-1.06 0-.43-.08-1.3.34-2.68 1.07-3.52 1.7-3.92 1.74-4.28.02-.36-.05-.66.64-2.6.7-1.96 1.24-1.53 1.54-2 .3-.48.84-1.5 1.38-2.12.55-.62 1.17-.72 1.45-1.03.3-.3.5-.7 1.02-1.04.7-.45 1.6-.45 1.76-.6.16-.18.93-1.2 1.16-1.38.23-.18 1.13-.08 1.43-.25.28-.16.4-.63.66-.7.25-.05 1.34.2 1.8.12"/><path fill="none" stroke="#994f51" stroke-width=".5008600000000001" d="M18.66 26.98c-.32-.13-.55-.32-.55-.32-.97.17-2.2.2-2.9.1-.68-.1-1.7-.8-1.87-.77-.17.02-.76-.08-1.78-.4-.87-.25-1.63-.55-2.05-.96"/><path fill="none" stroke="#cb696b" stroke-width=".5008600000000001" d="M23.35 30.04c-.38-.08-.56-.25-1.03-.65-.46-.4-.94-.85-1.1-.95-.17-.1-.47-.8-.78-.9-.32-.1-1.47-.44-1.78-.57"/><path fill="none" stroke="#994f51" stroke-width=".5008600000000001" d="M23.56 1.7c.46-.1.25-.27.5-.33s2.22.1 2.62.17c.4.08 1.03.4 1.24.4.2 0 .6 0 .96.1.38.1 2.9 1.34 3.3 1.57.43.24 1.46 1.38 1.86 1.84.46.14 1.36.56 1.6.7.26.16 1.25 1.18 1.4 1.54.14.36.08.8.25 1.1.16.32.26.53.3.78.04.26.04 1.3.15 1.54.1.22.3.67.3 1.38 0 .7-.24 1.78-.34 2.35-.1.56-.58 1.5-.58 1.7 0 .22-.06.52-.2.68-.1.18-.16 0-.28.47-.13.48-.57 1.1-.6 1.26 0 .15-.03.36-.1.46-.1.1-.4.1-.4.3 0 .17.28.38.32.53.05.15.1.38.07.52-.05.15-.63 1.07-.93 1.55-.3.5-1.04 1.4-1.1 1.6-.03.2.1.3.1.63 0 .3.04 1.2-.06 1.46s-2.04 2.38-2.4 2.5c-.4.1-2.47-.3-2.86-.22-.4.08-1.87.52-2.4.9-.52.37-1.38.88-1.73.92-.36.04-1 0-1.2-.06"/><path fill="none" stroke="#d97072" stroke-width=".5008600000000001" d="M9.5 24.64c-.07-.08-.13-.15-.18-.24-.34-.54-.4-1.16-.4-1.35-.03-.2-.22-.64-.08-1.74.05-.27-.2-.63-.2-1.06 0-.43-.08-1.3.34-2.68 1.07-3.52 1.7-3.92 1.74-4.28.02-.36-.05-.66.64-2.6.7-1.96 1.24-1.53 1.54-2 .3-.48.84-1.5 1.38-2.12.55-.62 1.17-.72 1.45-1.03.3-.3.5-.7 1.02-1.04.7-.45 1.6-.45 1.76-.6.16-.18.93-1.2 1.16-1.38.23-.18 1.13-.08 1.43-.25.28-.16.4-.63.66-.7.25-.05 1.34.2 1.8.12"/><path fill="none" stroke="#994f51" stroke-width=".5008600000000001" d="M23.56 1.7h-.03c-.4-.04-.65-.12-.83-.3-.2-.2-.13-.32-1.92-.68-1.8-.35-3.88-.58-6.62.46-2.73 1.04-2.76 1.47-3.06 1.63-.3.17-2.44 1.28-2.96 1.77-.52.5-.8.62-.95.85-.17.22-.27.58-.56.78-.3.2-1.96 1.82-2.48 2.64-.52.8-.68 1.24-.9 1.6-.24.35-1.08 1.3-1.54 2.14-.46.85-.9 2.06-.9 2.38 0 .33.4 1.04.4 1.24 0 .2-.54.62-.58.88-.03.26.07.98.13 1.53.07.57.04.92.17 1.18.13.27.5.4.55.62.06.23.25.8.58 1.08.32.3.62.4.94.7.33.34.95.9 1.4 1.02.46.14 1.18 0 1.47.2.28.2 1.3 1.2 1.78 1.37.5.16 1.53-.1 1.82-.13"/></g><g><path d="M11.33 33.54c7.24 6.68 13.24 7 18.97.02l-7.1-2.6 1.18-4.4 16-5.35 8.1 15.9-1.92 3.14-8.8-3.67c-6 12.9-20.27 15.15-31.1 5.68l.47-5.1z"/><path fill="none" stroke="url(#D)" stroke-width="3.411" d="M15.6 39.52c7.93 6.98 19.3 2.82 21.54-9.93" transform="matrix(1.155 .203 -.203 1.155 -.205 -12.664)"/><path fill="#fcaf3e" d="M39.98 22.25l-15.2 5.3 22.76 9.18z"/></g></g></svg>