<svg xmlns="http://www.w3.org/2000/svg" width="48.25" height="48.25" xmlns:xlink="http://www.w3.org/1999/xlink" overflow="visible"><defs><linearGradient id="y" x1="33.852" x2="24.255" y1="33.825" y2="32.281" gradientUnits="userSpaceOnUse" gradientTransform="matrix(1.02 0 0 1.02 -.088 -9.41)"><stop offset="0" stop-color="#A0C6DE"/><stop offset="1" stop-color="#fff"/></linearGradient><linearGradient id="A" x1="14.137" x2="23.266" y1="14.35" y2="15.759" gradientUnits="userSpaceOnUse" gradientTransform="matrix(1.02 0 0 1.02 -.088 -9.41)"><stop offset="0" stop-color="#A0C6DE"/><stop offset="1" stop-color="#fff"/></linearGradient><linearGradient id="C" x1="5.08" x2="1.858" y1="22.922" y2="16.546" gradientUnits="userSpaceOnUse" gradientTransform="matrix(1.02 0 0 1.02 -.088 -9.41)"><stop offset="0" stop-color="#A0C6DE"/><stop offset="1" stop-color="#fff"/></linearGradient><linearGradient id="E" x1="42.033" x2="45.926" y1="24.269" y2="29.839" gradientUnits="userSpaceOnUse" gradientTransform="matrix(1.02 0 0 1.02 -.088 -9.41)"><stop offset="0" stop-color="#A0C6DE"/><stop offset="1" stop-color="#fff"/></linearGradient><radialGradient cx="17.95" cy="175.731" r="12.523" fy="175.731" fx="17.95" gradientTransform="matrix(.476 0 0 .474 -.188 -58.854)" gradientUnits="userSpaceOnUse" xlink:href="#a"/><radialGradient cx="22.811" cy="169.34" r="14.467" fy="169.34" fx="22.811" gradientTransform="matrix(.476 0 0 .474 -.188 -58.854)" gradientUnits="userSpaceOnUse" xlink:href="#b"/><radialGradient cx="20.141" cy="171.534" r="10.533" fy="171.534" fx="20.141" gradientTransform="matrix(.476 0 0 .474 -.188 -58.854)" gradientUnits="userSpaceOnUse" xlink:href="#b"/><radialGradient cx="18.676" cy="170.998" r="12.647" fy="170.998" fx="18.676" gradientTransform="matrix(.476 0 0 .474 -.188 -58.854)" gradientUnits="userSpaceOnUse" xlink:href="#a"/><radialGradient cx="12.774" cy="172.564" r="9.904" fy="172.564" fx="12.774" gradientTransform="matrix(.476 0 0 .474 -.188 -58.854)" gradientUnits="userSpaceOnUse" xlink:href="#b"/><radialGradient cx="21.608" cy="172.17" r="3.835" fy="172.17" fx="21.608" gradientTransform="matrix(.476 0 0 .474 -.188 -58.854)" gradientUnits="userSpaceOnUse" xlink:href="#c"/><radialGradient cx="20.26" cy="172.94" r="6.674" fy="172.94" fx="20.26" gradientTransform="matrix(.476 0 0 .474 -.188 -58.854)" gradientUnits="userSpaceOnUse" xlink:href="#a"/><radialGradient cx="19.875" cy="178.137" r="6.273" fy="178.137" fx="19.875" gradientTransform="matrix(.476 0 0 .474 -.188 -58.854)" gradientUnits="userSpaceOnUse" xlink:href="#a"/><radialGradient cx="8.127" cy="179.328" r="6.328" fy="179.328" fx="8.127" gradientTransform="matrix(.476 0 0 .474 -.056 -58.831)" gradientUnits="userSpaceOnUse" xlink:href="#d"/><radialGradient cx="21.108" cy="170.255" r="11.345" fy="170.255" fx="21.108" gradientTransform="matrix(.476 0 0 .474 -.188 -58.854)" gradientUnits="userSpaceOnUse" xlink:href="#e"/><linearGradient x1="30.721" x2="30.361" y1="191.532" y2="189.013" gradientTransform="matrix(.476 0 0 .474 -.188 -58.854)" gradientUnits="userSpaceOnUse" xlink:href="#f"/><radialGradient cx="17.95" cy="175.731" r="12.523" fy="175.731" fx="17.95" gradientTransform="matrix(.476 0 0 .474 -.188 -58.854)" gradientUnits="userSpaceOnUse" xlink:href="#a"/><radialGradient cx="22.811" cy="169.34" r="14.467" fy="169.34" fx="22.811" gradientTransform="matrix(.476 0 0 .474 -.188 -58.854)" gradientUnits="userSpaceOnUse" xlink:href="#b"/><radialGradient cx="20.141" cy="171.534" r="10.533" fy="171.534" fx="20.141" gradientTransform="matrix(.476 0 0 .474 -.188 -58.854)" gradientUnits="userSpaceOnUse" xlink:href="#b"/><radialGradient cx="18.676" cy="170.998" r="12.647" fy="170.998" fx="18.676" gradientTransform="matrix(.476 0 0 .474 -.188 -58.854)" gradientUnits="userSpaceOnUse" xlink:href="#a"/><radialGradient cx="12.774" cy="172.564" r="9.904" fy="172.564" fx="12.774" gradientTransform="matrix(.476 0 0 .474 -.188 -58.854)" gradientUnits="userSpaceOnUse" xlink:href="#b"/><radialGradient cx="21.608" cy="172.17" r="3.835" fy="172.17" fx="21.608" gradientTransform="matrix(.476 0 0 .474 -.188 -58.854)" gradientUnits="userSpaceOnUse" xlink:href="#c"/><radialGradient cx="20.26" cy="172.94" r="6.674" fy="172.94" fx="20.26" gradientTransform="matrix(.476 0 0 .474 -.188 -58.854)" gradientUnits="userSpaceOnUse" xlink:href="#a"/><radialGradient cx="19.875" cy="178.137" r="6.273" fy="178.137" fx="19.875" gradientTransform="matrix(.476 0 0 .474 -.188 -58.854)" gradientUnits="userSpaceOnUse" xlink:href="#a"/><radialGradient cx="8.127" cy="179.328" r="6.328" fy="179.328" fx="8.127" gradientTransform="matrix(.476 0 0 .474 -.056 -58.831)" gradientUnits="userSpaceOnUse" xlink:href="#d"/><radialGradient cx="21.108" cy="170.255" r="11.345" fy="170.255" fx="21.108" gradientTransform="matrix(.476 0 0 .474 -.188 -58.854)" gradientUnits="userSpaceOnUse" xlink:href="#e"/><linearGradient x1="30.721" x2="30.361" y1="191.532" y2="189.013" gradientTransform="matrix(.476 0 0 .474 -.188 -58.854)" gradientUnits="userSpaceOnUse" xlink:href="#f"/><radialGradient cx="17.95" cy="175.731" r="12.523" fy="175.731" fx="17.95" gradientTransform="matrix(.389 0 0 .389 28.918 -47.311)" gradientUnits="userSpaceOnUse" xlink:href="#g"/><radialGradient cx="22.811" cy="169.34" r="14.467" fy="169.34" fx="22.811" gradientTransform="matrix(.389 0 0 .389 28.918 -47.311)" gradientUnits="userSpaceOnUse" xlink:href="#h"/><radialGradient cx="20.141" cy="171.534" r="10.533" fy="171.534" fx="20.141" gradientTransform="matrix(.389 0 0 .389 28.918 -47.311)" gradientUnits="userSpaceOnUse" xlink:href="#i"/><radialGradient cx="18.676" cy="170.998" r="12.647" fy="170.998" fx="18.676" gradientTransform="matrix(.389 0 0 .389 28.918 -47.311)" gradientUnits="userSpaceOnUse" xlink:href="#j"/><radialGradient cx="12.774" cy="172.564" r="9.904" fy="172.564" fx="12.774" gradientTransform="matrix(.389 0 0 .389 28.918 -47.311)" gradientUnits="userSpaceOnUse" xlink:href="#k"/><radialGradient cx="21.608" cy="172.17" r="3.835" fy="172.17" fx="21.608" gradientTransform="matrix(.389 0 0 .389 28.918 -47.311)" gradientUnits="userSpaceOnUse" xlink:href="#l"/><radialGradient cx="20.26" cy="172.94" r="6.674" fy="172.94" fx="20.26" gradientTransform="matrix(.389 0 0 .389 28.918 -47.311)" gradientUnits="userSpaceOnUse" xlink:href="#m"/><radialGradient cx="19.875" cy="178.137" r="6.273" fy="178.137" fx="19.875" gradientTransform="matrix(.389 0 0 .389 28.918 -47.311)" gradientUnits="userSpaceOnUse" xlink:href="#n"/><radialGradient cx="8.127" cy="179.328" r="6.328" fy="179.328" fx="8.127" gradientTransform="matrix(.389 0 0 .389 28.918 -47.311)" gradientUnits="userSpaceOnUse" xlink:href="#o"/><radialGradient cx="21.108" cy="170.255" r="11.345" fy="170.255" fx="21.108" gradientTransform="matrix(.389 0 0 .389 28.918 -47.311)" gradientUnits="userSpaceOnUse" xlink:href="#p"/><linearGradient x1="30.721" x2="30.361" y1="191.532" y2="189.013" gradientTransform="matrix(.389 0 0 .389 28.918 -47.311)" gradientUnits="userSpaceOnUse" xlink:href="#q"/><linearGradient x1="25.98" x2="27.6" y1="195.272" y2="191.762" gradientTransform="matrix(.389 0 0 .389 28.918 -47.311)" gradientUnits="userSpaceOnUse" xlink:href="#r"/><linearGradient x1="6.26" x2="15.438" y1="165.928" y2="170.234" gradientTransform="matrix(.389 0 0 .389 28.918 -47.311)" gradientUnits="userSpaceOnUse" xlink:href="#s"/><radialGradient cx="26.126" cy="32.449" r="22.073" fy="32.449" fx="26.126" gradientTransform="matrix(.377 0 0 .233 29.801 17.42)" gradientUnits="userSpaceOnUse" xlink:href="#t"/><radialGradient id="t" cx="20.836" cy="192.154" r="25.122" fx="20.836" fy="192.154" gradientUnits="userSpaceOnUse"><stop offset="0" stop-opacity=".804"/><stop offset="1" stop-opacity="0"/></radialGradient><linearGradient id="s" x1="6.26" x2="15.438" y1="165.928" y2="170.234" gradientUnits="userSpaceOnUse"><stop offset="0" stop-color="#F79899"/><stop offset=".387" stop-color="#F29596"/><stop offset=".809" stop-color="#E28C8C"/><stop offset="1" stop-color="#D88686"/></linearGradient><linearGradient id="r" x1="25.98" x2="27.6" y1="195.272" y2="191.762" gradientUnits="userSpaceOnUse"><stop offset="0" stop-color="#F79899"/><stop offset=".387" stop-color="#F29596"/><stop offset=".809" stop-color="#E28C8C"/><stop offset="1" stop-color="#D88686"/></linearGradient><linearGradient id="q" x1="30.721" x2="30.361" y1="191.532" y2="189.013" gradientUnits="userSpaceOnUse"><stop offset="0" stop-color="#F79899"/><stop offset=".285" stop-color="#F29596"/><stop offset=".596" stop-color="#E08B8B"/><stop offset=".918" stop-color="#C77B7C"/><stop offset="1" stop-color="#BF7777"/></linearGradient><radialGradient id="p" cx="21.108" cy="170.255" r="11.345" fx="21.108" fy="170.255" gradientUnits="userSpaceOnUse"><stop offset=".006" stop-color="#F5CDCD"/><stop offset="1" stop-color="#F4B1B3"/></radialGradient><radialGradient id="o" cx="8.127" cy="179.328" r="6.328" fx="8.127" fy="179.328" gradientUnits="userSpaceOnUse"><stop offset=".006" stop-color="#F5CDCD"/><stop offset="1" stop-color="#F4B1B3"/></radialGradient><radialGradient id="n" cx="19.875" cy="178.137" r="6.273" fx="19.875" fy="178.137" gradientUnits="userSpaceOnUse"><stop offset="0" stop-color="#fff"/><stop offset="1" stop-color="#F5D9D9"/></radialGradient><radialGradient id="m" cx="20.26" cy="172.94" r="6.674" fx="20.26" fy="172.94" gradientUnits="userSpaceOnUse"><stop offset="0" stop-color="#fff"/><stop offset="1" stop-color="#F5D9D9"/></radialGradient><radialGradient id="l" cx="21.608" cy="172.17" r="3.835" fx="21.608" fy="172.17" gradientUnits="userSpaceOnUse"><stop offset="0" stop-color="#fff"/><stop offset="1" stop-color="#F5D9D9"/></radialGradient><radialGradient id="k" cx="12.774" cy="172.564" r="9.904" fx="12.774" fy="172.564" gradientUnits="userSpaceOnUse"><stop offset="0" stop-color="#fff"/><stop offset="1" stop-color="#F5D9D9"/></radialGradient><radialGradient id="j" cx="18.676" cy="170.998" r="12.647" fx="18.676" fy="170.998" gradientUnits="userSpaceOnUse"><stop offset="0" stop-color="#fff"/><stop offset="1" stop-color="#F5D9D9"/></radialGradient><radialGradient id="i" cx="20.141" cy="171.534" r="10.533" fx="20.141" fy="171.534" gradientUnits="userSpaceOnUse"><stop offset="0" stop-color="#fff"/><stop offset="1" stop-color="#F5D9D9"/></radialGradient><radialGradient id="h" cx="22.811" cy="169.34" r="14.467" fx="22.811" fy="169.34" gradientUnits="userSpaceOnUse"><stop offset="0" stop-color="#fff"/><stop offset="1" stop-color="#F5D9D9"/></radialGradient><radialGradient id="g" cx="17.95" cy="175.731" r="12.523" fx="17.95" fy="175.731" gradientUnits="userSpaceOnUse"><stop offset="0" stop-color="#fff"/><stop offset="1" stop-color="#F5D9D9"/></radialGradient><radialGradient id="c" cx="19.875" cy="178.137" r="6.273" gradientUnits="userSpaceOnUse" fy="178.137" fx="19.875"><stop offset="0" stop-color="#fff"/><stop offset="1" stop-color="#e7e7e7"/></radialGradient><linearGradient id="e" x1="6.26" x2="15.438" y1="165.928" y2="170.234" gradientUnits="userSpaceOnUse"><stop offset="0" stop-color="#c8c8c8"/><stop offset="1" stop-color="#afafaf"/></linearGradient><radialGradient id="b" cx="19.875" cy="178.137" r="6.273" gradientUnits="userSpaceOnUse" fy="178.137" fx="19.875"><stop offset="0" stop-color="#fff"/><stop offset="1" stop-color="#e7e7e7"/></radialGradient><radialGradient id="d" cx="8.127" cy="179.328" r="6.328" gradientUnits="userSpaceOnUse" fy="179.328" fx="8.127"><stop offset=".006" stop-color="#e1e1e1"/><stop offset="1" stop-color="#d3d3d3"/></radialGradient><radialGradient id="a" cx="19.875" cy="178.137" r="6.273" gradientUnits="userSpaceOnUse" fy="178.137" fx="19.875"><stop offset="0" stop-color="#fff"/><stop offset="1" stop-color="#e7e7e7"/></radialGradient><linearGradient id="f" x1="30.721" x2="30.361" y1="191.532" y2="189.013" gradientUnits="userSpaceOnUse"><stop offset="0" stop-color="#c8c8c8"/><stop offset="1" stop-color="#9b9b9b"/></linearGradient><linearGradient id="x" x1="12.892" x2="40.674" y1="9.608" y2="31.921" gradientTransform="matrix(.891 0 0 .887 4.933 29.376)" gradientUnits="userSpaceOnUse"><stop offset="0" stop-color="#D0DADE"/><stop offset="1" stop-color="#858B8E"/></linearGradient><linearGradient id="w" x1="6.959" x2="31.809" y1="14.822" y2="14.822" gradientTransform="matrix(.891 0 0 .887 4.933 29.376)" gradientUnits="userSpaceOnUse"><stop offset=".006" stop-color="#4C5259"/><stop offset="1" stop-color="#9CA3AC"/></linearGradient><linearGradient x1="20.774" x2="39.217" y1="9.771" y2="20.694" gradientUnits="userSpaceOnUse"><stop offset=".006" stop-color="#E5ECEC"/><stop offset=".562" stop-color="#CED4D6"/><stop offset="1" stop-color="#9CA3AC"/></linearGradient><linearGradient x1="40.625" x2="35.686" y1="14.823" y2="14.823" gradientUnits="userSpaceOnUse"><stop offset="0" stop-color="#BCC8CD"/><stop offset=".764" stop-color="#899099"/><stop offset="1" stop-color="#8D939D"/></linearGradient><linearGradient x1="17.923" x2="22.925" y1="14.943" y2="14.943" gradientUnits="userSpaceOnUse"><stop offset="0" stop-color="#B7C1CA"/><stop offset=".764" stop-color="#899099"/><stop offset="1" stop-color="#9198A1"/></linearGradient><linearGradient x1="25.075" x2="33.574" y1="11.017" y2="18.764" gradientUnits="userSpaceOnUse"><stop offset="0" stop-color="#B7C1CA"/><stop offset="1" stop-color="#9CA3AC"/></linearGradient><radialGradient cx="28.801" cy="1.961" r="2.598" gradientUnits="userSpaceOnUse" gradientTransform="matrix(.557 .499 -.596 .659 16.831 17.585)" fy="1.961" fx="28.801" xlink:href="#u"/><linearGradient id="u"><stop offset="0" stop-color="#fdea6e"/><stop offset="1" stop-color="#f57900"/></linearGradient><radialGradient cx="28.395" cy="1.88" r="2.598" fy="1.88" fx="28.395" gradientTransform="matrix(.752 .609 -.562 .687 3.028 14.569)" gradientUnits="userSpaceOnUse" xlink:href="#v"/><linearGradient id="v" x1="9.302" x2="9.302" y1=".611" y2="2.704" gradientUnits="userSpaceOnUse"><stop offset=".455" stop-color="#D0D5DA"/><stop offset="1" stop-color="#556372"/></linearGradient><radialGradient cx="28.395" cy="1.88" r="2.598" fy="1.88" fx="28.395" gradientTransform="matrix(.752 .609 -.562 .687 -4.996 14.569)" gradientUnits="userSpaceOnUse" xlink:href="#v"/><radialGradient cx="28.395" cy="1.88" r="2.598" xlink:href="#v" gradientUnits="userSpaceOnUse" gradientTransform="matrix(.752 .609 -.562 .687 -89.846 -11.293)" fx="28.395" fy="1.88"/><radialGradient cx="28.395" cy="1.88" r="2.598" xlink:href="#v" gradientUnits="userSpaceOnUse" gradientTransform="matrix(.752 .609 -.562 .687 -81.821 -11.293)" fx="28.395" fy="1.88"/><radialGradient cx="28.801" cy="1.961" r="2.598" xlink:href="#u" gradientUnits="userSpaceOnUse" gradientTransform="matrix(.557 .499 -.596 .659 -68.018 -8.278)" fx="28.801" fy="1.961"/><linearGradient x1="6.959" x2="31.809" y1="14.822" y2="14.822" xlink:href="#w" gradientUnits="userSpaceOnUse" gradientTransform="matrix(.891 0 0 .887 -79.916 3.513)"/><linearGradient x1="12.892" x2="40.674" y1="9.608" y2="31.921" xlink:href="#x" gradientUnits="userSpaceOnUse" gradientTransform="matrix(.891 0 0 .887 -79.916 3.513)"/><radialGradient cx="17.95" cy="175.731" r="12.523" xlink:href="#g" gradientUnits="userSpaceOnUse" gradientTransform="matrix(.389 0 0 .389 -55.931 -73.174)" fx="17.95" fy="175.731"/><radialGradient cx="22.811" cy="169.34" r="14.467" xlink:href="#h" gradientUnits="userSpaceOnUse" gradientTransform="matrix(.389 0 0 .389 -55.931 -73.174)" fx="22.811" fy="169.34"/><radialGradient cx="20.141" cy="171.534" r="10.533" xlink:href="#i" gradientUnits="userSpaceOnUse" gradientTransform="matrix(.389 0 0 .389 -55.931 -73.174)" fx="20.141" fy="171.534"/><radialGradient cx="18.676" cy="170.998" r="12.647" xlink:href="#j" gradientUnits="userSpaceOnUse" gradientTransform="matrix(.389 0 0 .389 -55.931 -73.174)" fx="18.676" fy="170.998"/><radialGradient cx="12.774" cy="172.564" r="9.904" xlink:href="#k" gradientUnits="userSpaceOnUse" gradientTransform="matrix(.389 0 0 .389 -55.931 -73.174)" fx="12.774" fy="172.564"/><radialGradient cx="21.608" cy="172.17" r="3.835" xlink:href="#l" gradientUnits="userSpaceOnUse" gradientTransform="matrix(.389 0 0 .389 -55.931 -73.174)" fx="21.608" fy="172.17"/><radialGradient cx="20.26" cy="172.94" r="6.674" xlink:href="#m" gradientUnits="userSpaceOnUse" gradientTransform="matrix(.389 0 0 .389 -55.931 -73.174)" fx="20.26" fy="172.94"/><radialGradient cx="19.875" cy="178.137" r="6.273" xlink:href="#n" gradientUnits="userSpaceOnUse" gradientTransform="matrix(.389 0 0 .389 -55.931 -73.174)" fx="19.875" fy="178.137"/><radialGradient cx="8.127" cy="179.328" r="6.328" xlink:href="#o" gradientUnits="userSpaceOnUse" gradientTransform="matrix(.389 0 0 .389 -55.931 -73.174)" fx="8.127" fy="179.328"/><radialGradient cx="21.108" cy="170.255" r="11.345" xlink:href="#p" gradientUnits="userSpaceOnUse" gradientTransform="matrix(.389 0 0 .389 -55.931 -73.174)" fx="21.108" fy="170.255"/><linearGradient x1="30.721" x2="30.361" y1="191.532" y2="189.013" xlink:href="#q" gradientUnits="userSpaceOnUse" gradientTransform="matrix(.389 0 0 .389 -55.931 -73.174)"/><linearGradient x1="25.98" x2="27.6" y1="195.272" y2="191.762" xlink:href="#r" gradientUnits="userSpaceOnUse" gradientTransform="matrix(.389 0 0 .389 -55.931 -73.174)"/><linearGradient x1="6.26" x2="15.438" y1="165.928" y2="170.234" xlink:href="#s" gradientUnits="userSpaceOnUse" gradientTransform="matrix(.389 0 0 .389 -55.931 -73.174)"/><radialGradient cx="26.126" cy="32.449" r="22.073" xlink:href="#t" gradientUnits="userSpaceOnUse" gradientTransform="matrix(.377 0 0 .233 -55.048 -8.442)" fx="26.126" fy="32.449"/><radialGradient id="P" cx="26.126" cy="32.449" r="22.073" xlink:href="#t" gradientUnits="userSpaceOnUse" gradientTransform="matrix(.377 0 0 .233 -55.048 -8.442)" fx="26.126" fy="32.449"/><linearGradient id="Q" x1="6.26" x2="15.438" y1="165.928" y2="170.234" xlink:href="#s" gradientUnits="userSpaceOnUse" gradientTransform="matrix(.389 0 0 .389 -55.931 -73.174)"/><linearGradient id="R" x1="25.98" x2="27.6" y1="195.272" y2="191.762" xlink:href="#r" gradientUnits="userSpaceOnUse" gradientTransform="matrix(.389 0 0 .389 -55.931 -73.174)"/><linearGradient id="S" x1="30.721" x2="30.361" y1="191.532" y2="189.013" xlink:href="#q" gradientUnits="userSpaceOnUse" gradientTransform="matrix(.389 0 0 .389 -55.931 -73.174)"/><radialGradient id="T" cx="21.108" cy="170.255" r="11.345" xlink:href="#p" gradientUnits="userSpaceOnUse" gradientTransform="matrix(.389 0 0 .389 -55.931 -73.174)" fx="21.108" fy="170.255"/><radialGradient id="U" cx="8.127" cy="179.328" r="6.328" xlink:href="#o" gradientUnits="userSpaceOnUse" gradientTransform="matrix(.389 0 0 .389 -55.931 -73.174)" fx="8.127" fy="179.328"/><radialGradient id="V" cx="19.875" cy="178.137" r="6.273" xlink:href="#n" gradientUnits="userSpaceOnUse" gradientTransform="matrix(.389 0 0 .389 -55.931 -73.174)" fx="19.875" fy="178.137"/><radialGradient id="W" cx="20.26" cy="172.94" r="6.674" xlink:href="#m" gradientUnits="userSpaceOnUse" gradientTransform="matrix(.389 0 0 .389 -55.931 -73.174)" fx="20.26" fy="172.94"/><radialGradient id="X" cx="21.608" cy="172.17" r="3.835" xlink:href="#l" gradientUnits="userSpaceOnUse" gradientTransform="matrix(.389 0 0 .389 -55.931 -73.174)" fx="21.608" fy="172.17"/><radialGradient id="Y" cx="12.774" cy="172.564" r="9.904" xlink:href="#k" gradientUnits="userSpaceOnUse" gradientTransform="matrix(.389 0 0 .389 -55.931 -73.174)" fx="12.774" fy="172.564"/><radialGradient id="Z" cx="18.676" cy="170.998" r="12.647" xlink:href="#j" gradientUnits="userSpaceOnUse" gradientTransform="matrix(.389 0 0 .389 -55.931 -73.174)" fx="18.676" fy="170.998"/><radialGradient id="aa" cx="20.141" cy="171.534" r="10.533" xlink:href="#i" gradientUnits="userSpaceOnUse" gradientTransform="matrix(.389 0 0 .389 -55.931 -73.174)" fx="20.141" fy="171.534"/><radialGradient id="ab" cx="22.811" cy="169.34" r="14.467" xlink:href="#h" gradientUnits="userSpaceOnUse" gradientTransform="matrix(.389 0 0 .389 -55.931 -73.174)" fx="22.811" fy="169.34"/><radialGradient id="ac" cx="17.95" cy="175.731" r="12.523" xlink:href="#g" gradientUnits="userSpaceOnUse" gradientTransform="matrix(.389 0 0 .389 -55.931 -73.174)" fx="17.95" fy="175.731"/><linearGradient id="ad" x1="33.852" x2="24.255" y1="33.825" y2="32.281" xlink:href="#y" gradientUnits="userSpaceOnUse" gradientTransform="matrix(1.02 0 0 1.02 -.088 -9.41)"/><linearGradient id="ae" x1="-212.98" x2="-202.601" y1="-193.304" y2="-191.67" xlink:href="#z" gradientUnits="userSpaceOnUse" gradientTransform="matrix(.5 .866 -.866 .5 -31.719 310.988)"/><linearGradient id="af" x1="14.137" x2="23.266" y1="14.35" y2="15.759" xlink:href="#A" gradientUnits="userSpaceOnUse" gradientTransform="matrix(1.02 0 0 1.02 -.088 -9.41)"/><linearGradient id="ag" x1="-643.854" x2="-633.474" y1="401.295" y2="402.929" xlink:href="#B" gradientUnits="userSpaceOnUse" gradientTransform="matrix(-.5 -.866 .866 -.5 -650.587 -338.792)"/><linearGradient id="ah" x1="5.08" x2="1.858" y1="22.922" y2="16.546" xlink:href="#C" gradientUnits="userSpaceOnUse" gradientTransform="matrix(1.02 0 0 1.02 -.088 -9.41)"/><linearGradient id="ai" x1="-516.134" x2="-505.755" y1="-237.943" y2="-236.309" xlink:href="#D" gradientUnits="userSpaceOnUse" gradientTransform="matrix(-.278 .96 -.96 -.278 -365.302 448.032)"/><linearGradient id="aj" x1="42.033" x2="45.926" y1="24.269" y2="29.839" xlink:href="#E" gradientUnits="userSpaceOnUse" gradientTransform="matrix(1.02 0 0 1.02 -.088 -9.41)"/><linearGradient id="ak" x1="-385.746" x2="-375.366" y1="460.689" y2="462.323" xlink:href="#F" gradientUnits="userSpaceOnUse" gradientTransform="matrix(.278 -.96 .96 .278 -294.445 -469.356)"/><linearGradient id="al" x1="2.025" x2="46.227" y1="24.125" y2="24.125" xlink:href="#G" gradientUnits="userSpaceOnUse"/><radialGradient id="am" cx="81.7" cy="138.319" r="2.956" xlink:href="#H" gradientUnits="userSpaceOnUse" gradientTransform="matrix(0 -1 1 0 -101.816 115.209)" fx="81.7" fy="138.319"/><radialGradient id="an" cx="-34.035" cy="137.579" r="5.213" xlink:href="#I" gradientUnits="userSpaceOnUse" gradientTransform="matrix(0 1 1 0 -101.816 66.555)" fx="-34.035" fy="137.579"/><radialGradient id="ao" cx="102.16" cy="112.407" r="2.956" xlink:href="#J" gradientUnits="userSpaceOnUse" gradientTransform="matrix(0 -1 1 0 -101.816 115.209)" fx="102.16" fy="112.407"/><radialGradient id="ap" cx="-54.495" cy="111.667" r="5.213" xlink:href="#K" gradientUnits="userSpaceOnUse" gradientTransform="matrix(0 1 1 0 -101.816 66.555)" fx="-54.495" fy="111.667"/><radialGradient id="aq" cx="89.917" cy="108.655" r="2.957" xlink:href="#L" gradientUnits="userSpaceOnUse" gradientTransform="matrix(0 -1 1 0 -101.816 115.209)" fx="89.917" fy="108.655"/><radialGradient id="ar" cx="-42.251" cy="107.915" r="5.213" xlink:href="#M" gradientUnits="userSpaceOnUse" gradientTransform="matrix(0 1 1 0 -101.816 66.555)" fx="-42.251" fy="107.915"/><radialGradient id="as" cx="94.228" cy="141.655" r="2.957" xlink:href="#N" gradientUnits="userSpaceOnUse" gradientTransform="matrix(0 -1 1 0 -101.816 115.209)" fx="94.228" fy="141.655"/><radialGradient id="at" cx="-46.563" cy="140.915" r="5.213" xlink:href="#O" gradientUnits="userSpaceOnUse" gradientTransform="matrix(0 1 1 0 -101.816 66.555)" fx="-46.563" fy="140.915"/></defs><path fill="none" stroke="#000" stroke-width=".28"/><path fill="none" stroke="#000" stroke-width=".28"/><g><path fill="url(#P)" d="M-52.08-1.7c-.3.02-.63.42-.8.66-.06.1-.2.23-.23.35-.06.17.03.32.04.48-.47.13-.56.82-.37 1.22.07.14.1.2.15.35.06.2.13.35.27.52.13.18.2.2.42.3.27.12.36.34.6.52.38.3 1.07.36 1.56.3.2 0 .45-.18.63-.16.3.04.14.3.25.5.14.2.54.3.76.37.2.08.37.14.55.2.2.1.37.23.57.27.36.07.8.02 1.16.02.47 0 1.13.17 1.56 0 .28-.1.5-.27.83-.3.3-.06.53.02.83.07.67.1 1.23-.16 1.8-.4.37-.16.7-.35 1.06-.5.42-.18.87-.3 1.24-.6.27-.23.6-.56.8-.86.23-.37.54-.74.68-1.17.18-.54.45-1 .48-1.57.02-.3 0-.5.14-.75.2-.32.26-.64.13-1.04-.14-.45-.52-.84-.9-1.1-.25-.2-.58-.28-.87-.4-.33-.14-.5-.3-.77-.5-.3-.2-.63-.2-.96-.26-.45-.07-.88-.3-1.33-.4-1.2-.3-2.43-.45-3.7-.42-.56.02-1.08.03-1.6.26-.54.24-1.07.5-1.62.75-.66.28-.93.64-1.37 1.14-.27.32-.57.6-.84.93-.26.3-1 .7-1.06 1.14" transform="matrix(1.776 0 0 1.776 105.842 36.464)"/><path fill="#f79899" stroke="#f57e80" stroke-width=".89" d="M21.9 18.34c.6-.37 1.37-.37 1.5-.5.12-.15.78-1 .97-1.16.2-.16.96-.07 1.2-.22.26-.14.37-.53.58-.58.2-.05 1.14.16 1.53.1.4-.08.2-.23.42-.28.22-.05 1.9.07 2.22.14.34.07.87.34 1.05.34.18 0 .5 0 .82.1.3.08 2.44 1.12 2.8 1.32.35.2 1.22 1.15 1.56 1.54.4.12 1.15.48 1.37.6.2.13 1.05 1 1.17 1.3.12.3.07.67.2.94.16.26.24.44.28.65.03.22.03 1.1.12 1.3.1.2.25.56.25 1.17 0 .6-.2 1.5-.28 1.98-.1.48-.5 1.28-.5 1.46 0 .17-.05.42-.16.56-.1.14-.13 0-.24.4-.1.4-.48.93-.5 1.06 0 .12-.03.3-.1.4-.07.08-.34.08-.34.24 0 .15.25.33.3.46.02.12.08.3.04.44-.04.12-.53.9-.78 1.3-.25.42-.9 1.18-.93 1.36-.03.17.08.26.08.53 0 .26.03 1-.06 1.23-.1.23-1.72 2.02-2.04 2.1-.32.1-2.08-.24-2.42-.17-.32.07-1.57.45-2 .77-.46.3-1.18.74-1.5.78-.3.04-.84 0-1-.05-.32-.07-.48-.2-.87-.55-.4-.33-.8-.7-.94-.8-.15-.08-.4-.67-.67-.76-.26-.1-1.24-.37-1.5-.47-.27-.1-.47-.27-.47-.27-.83.13-1.87.15-2.46.07-.58-.08-1.45-.66-1.6-.64-.13.02-.64-.06-1.5-.32-.87-.25-1.6-.55-1.9-1.02-.28-.46-.32-.98-.34-1.14-.02-.16-.18-.54-.06-1.47.04-.24-.16-.54-.16-.9 0-.37-.08-1.1.28-2.28.9-2.98 1.45-3.32 1.47-3.63 0-.3-.05-.56.54-2.2.58-1.66 1.05-1.3 1.3-1.7.27-.4.7-1.26 1.18-1.78.46-.54.98-.62 1.22-.88s.42-.6.87-.88z"/><path fill="url(#Q)" stroke="#f57e80" stroke-width=".5" d="M-50.72-.6c-.03-.04-.07-.08-.1-.12-.15-.26-.17-.55-.18-.64 0-.1-.1-.3-.04-.83.03-.13-.1-.3-.1-.5s-.03-.6.17-1.28c.5-1.68.82-1.87.83-2.04 0-.17-.02-.3.3-1.24.34-.93.6-.73.74-.95.15-.24.4-.73.66-1.02.26-.3.56-.34.7-.5.13-.14.23-.32.48-.48.33-.22.77-.2.84-.3.07-.07.44-.55.55-.64.1-.1.54-.04.68-.12.15-.08.2-.3.33-.33.12-.02.64.1.86.06h-.03c-.2-.02-.3-.05-.4-.13-.1-.1-.05-.16-.9-.33-.86-.17-1.86-.28-3.17.22-1.3.5-1.32.7-1.46.77-.14.07-1.16.6-1.4.83-.26.24-.4.3-.46.4-.08.1-.13.3-.27.38-.13.1-.92.88-1.17 1.27-.25.38-.33.6-.43.76-.1.17-.52.62-.74 1.02-.2.4-.43.98-.43 1.13 0 .16.2.5.2.6 0 .1-.26.3-.28.4 0 .14.03.48.06.74.05.27.03.44.1.56.05.12.23.2.26.3.03.1.12.37.28.5.15.15.3.2.45.35.14.15.44.42.66.48.2.07.56 0 .7.1.14.1.62.58.85.65.24.08.74-.04.88-.06z" transform="matrix(1.776 0 0 1.776 105.842 36.464)"/><path fill="#f57e80" stroke="#cb696b" stroke-width=".89" d="M27.5 39.95c-.32-.07-.48-.2-.87-.54-.4-.33-.8-.7-.94-.8-.15-.08-.4-.67-.67-.75-.22-.08-.93-.3-1.32-.42"/><path fill="url(#R)" stroke="#994f51" stroke-width=".5" d="M-46.25.55c.07.23.37.68.7.94.35.24.16.4.23.47.07.1.1.14.32.17.2.03.35.2.54.2.18 0 .3-.1.32-.22.02-.12.03-.15.03-.15" transform="matrix(1.776 0 0 1.776 105.842 36.464)"/><path fill="none" stroke="#d96f71" stroke-width=".89" d="M23.06 37.1c.53-.08 1.07-.2 1.64-.3.57-.1 1.97-.03 3.38-.7.63-.28 1.3-1.16 2.77-1.9.56-.27 2.07-1.52 2.63-1.8.55-.25 1.78-.93 2.07-1.15.3-.2.66-.93.96-1.32.3-.4 2.1-1.13 2.25-1.15.14-.03.1.25.1.48"/><path fill="none" stroke="#d96f71" stroke-width=".89" d="M31.28 16.18c.2.1.64.32 1.24.73.6.43 1.6 1.37 1.7 1.5.1.1.9 1.86 1.3 2.46.38.6 1.73 2.82 1.8 3.05.1.24.26.9.3 1.18.02.3-.1 1.63-.2 1.9-.06.28-.42 1.25-.53 1.55-.12.3-.38 1.2-.5 1.4"/><path fill="#f57e80" d="M24.86 31.2c-.3-.15-1.4-2.43-2.12-3.1-.72-.66-1.28-1.33-3.27-1.67-2-.34-2.04-.3-2.3-.47-.28-.16-.38-.18-.4-.1 0 .1-.1.26-.15.3-.04.17.13.06.42.08.28.03 1 .42 1.48.5.47.1 2.06.34 2.47.6.4.25 1.73 1.14 2.1 1.62.37.48.68 1.22.8 1.43.14.2.5.72.66.77.17.06.5.13.3.03z"/><path fill="#e47678" d="M19.54 22.76c.3-.25 3.03-.57 3.75.24.7.82 1.22 2.52 1.7 3.4.48.86.78 1.64 1.4 2.4.6.76 1.1 1.4 1.08 1.83-.02.44-.67 2.18-.7 2.4-.04.23-.4.43-.5.34-.1-.1-1.7-.94-2.17-.94-.46 0-1.96.14-2.3-.04-.33-.2-1.4-.8-1.64-1.16-.27-.37-.27-.93-1.1-.85-.83.06-2.32.36-2.6.5-.28.12-.44-.14-.2-.27s2.13-.33 2.4-.48c.3-.15 1-.2 1.12-.08.1.13.34.9.6 1.12.3.2.92.6 1.56.74.63.13 1.76.08 2.1.13.36.06 1.9.84 2.14.82.25-.03 1.1-1.83 1.02-2.25-.07-.43-1.24-1.9-1.78-2.85-1.05-1.9-1.65-3.8-1.9-4.08-.23-.27-.45-.8-1.45-.9-1-.1-2.08.03-2.38.18-.3.15-.36-.07-.16-.24z"/><path fill="#e47678" d="M23.1 17.93c.45.03 1.06.4 1.42.56.36.16.96.52 1.25.8.3.3.2.46.06.64-.15.18-.22.58-.5.8-.27.2-1.12.76-1.4 1.13-.27.37-.5 1.05-.83 1 .15.05.32.3.32.3 0-.28.4-.82.64-.97.24-.16.85-.88 1-1.05.14-.17.53-.42.6-.55.05-.14.2-.56.43-.76.23-.2.26-.28-.12-.6-.4-.3-.9-.73-1.18-.8-.28-.1-.8-.36-1.02-.5-.24-.15-.2-.26-.2-.34-.1.15-.22.35-.48.33z"/><path fill="#e47678" d="M18.5 22.04c.42-.2.85-.42 1.1-.5.23-.05.98-.3 1.16-.43.18-.12.68-.35.88-.36.2 0 .73.26.98.25.26-.02.44-.27.3-.27-.17 0-.25.1-.53.03-.3-.06-.58-.14-.46-.18.1-.03.55-.2.63-.3.08-.1.45-.4.45-.5-.17.14-.36.35-.5.42-.15.07-.8.22-.94.3-.16.1-.9.55-1.1.6-.2.04-.86.3-1.03.36-.17.07-.4.3-.47.23-.06-.1-.04-.3-.04-.3-.1.22-.43.64-.43.64z"/><path fill="#e47678" d="M15.2 32.42c.13.2.27.46.44.53.17.06 1.5.6 2 .67.5.07 1.54.3 1.7.4.13.1.82 1 .77 1.06-.05.08-.3-.13-.44-.28-.15-.15-.3-.44-.57-.55-.27-.12-1.92-.45-2.4-.64-.45-.18-1.14-.5-1.22-.57-.1-.07-.3-.55-.3-.3 0-.15.03-.3.03-.3z"/><path fill="#f57e80" d="M26.7 23.04c-.1-.1-.23-.16-.5-.04-.25.13-.2.4-.12.53.07.12 1.12 2.15 1.12 2.58 0 .43-.42 1.47-.63 1.77-.22.3-.08.47-.07.5 0 .04.27-.48.38-.6.1-.1.54-.98.54-1.13 0-.15-.1-.86-.17-1.1-.08-.24-.82-1.6-.87-1.93-.04-.3.02-.35.08-.35.07 0 .24-.04.24-.1 0-.04 0-.1 0-.1z"/><path fill="#e47678" d="M27.9 25.92c.23-.33.77-1.45.8-1.55.04-.1.15-1.47.28-1.57.13-.1.37.04.65.2.3.16 1.17.6 1.38.65.23.06 1.32.38 1.5.44.2.04.34.3.43.42.07.1.54 1.02.6 1.14.08.13.18.38.05.47-.14.1-.3.27-.4.32-.14.04-.48.48-.76.47-.27 0-.73 0-.98-.28-.25-.26-.78-.24-.78-.44s-.1-.3-.16-.27c-.07.03-.33.37-.17.52.16.15.9.44 1.12.6.23.14.22.25.2.35 0 .1.13.28.26.14.13-.13.13-.24.05-.36-.08-.13-.32-.13-.28-.2.03-.1.4.07.63.07.24 0 .42-.24.57-.3.15-.05.56-.08.73-.3.17-.22.3-.34.26-.53-.03-.18-.4-.86-.72-1.32-.3-.46-.5-.57-.5-.75 0-.2.03-.47-.13-.7-.15-.2-.17-.34-.15-.47.03-.12.06-.37 0-.46-.08-.08-.26-.1-.28 0-.03.07 0 .43.1.54.07.12.3.56.3.8 0 .22.05.33-.04.33-.1 0-.66-.2-1.05-.36-.4-.15-1.48-.6-1.7-.7-.2-.08-.52-.18-.5-.4 0-.2.32-.74.65-.96.33-.2.4-.88.4-1.2 0-.32-.2-.73-.72-1.05-.5-.3-1.7-1.1-2.1-1.34-.36-.26-.54-.37-.63-.48-.1-.1-.17-.25-.34-.22-.17.04.04.27.17.35.13.07 1.66 1.1 2.1 1.4.43.27 1.1.7 1.14 1.06.04.38.07.9-.2 1.2-.24.32-.7.8-.8 1.15-.08.34-.33 1.3-.5 1.83-.17.52-.63 1.5-.6 1.64.04.15.1.2.16.1z"/><path fill="#e47678" d="M25.6 16.46c.17-.07.45-.04.66 0 .2.06 1 .36 1.2.4.2.03.88.2.98.14.1-.06.1.12-.13.16-.22.03-.66-.1-.97-.2-.3-.07-1.05-.38-1.26-.38-.2 0-.55-.07-.7-.05.1-.03.23-.07.23-.07z"/><path fill="#e47678" d="M27.67 15.98c.2 0 1.03.28 1.22.35.17.07 1.08.54 1.34.75.27.2 1.04 1.27 1.22 1.44.18.17.44.54.58.48.15-.05.07-.1-.04-.27-.1-.16-.86-.96-1.1-1.22-.23-.25-.5-.52-.73-.66-.25-.14-1.2-.53-1.38-.63-.2-.08-1-.26-1-.26l-.13.04z"/><path fill="#e47678" d="M32.9 21.4c.05-.03.23.3.35.4.13.1.64.57.84.74.2.18.34.48.4.6.06.13.22.8.24.97 0 .2.1 1.7.14 1.94.04.24.04.47.1.65.07.16.25.36.27.86 0 .5.12 1 .08 1.75-.03.77-.1 1.4-.15 1.63-.03.24-.03.4.04.4.08 0 .15.05.28-.04-.2.1-.38.23-.52.3-.02-.13.1-.36.1-.55 0-.2.03-1.03.07-1.5.03-.5.07-1.67 0-1.78-.08-.1-.04-.33-.07-.52-.02-.2-.33-.55-.32-.72 0-.18-.1-1.2-.16-1.68-.06-.5-.1-1.53-.3-1.7-.18-.16-.74-.94-.95-1.1-.2-.14-.4-.36-.44-.48-.02-.1-.07-.12 0-.16z"/><path fill="#e47678" d="M29.13 27.48c.1-.05.15.07.1.16-.03.1-.1.1-.16.17-.07.08-.13.3-.07.4.07.13.24.58.43.74.06.15.2.48.4.62.15.1.18.44.34.42.15-.02.64-.33.8-.43.2-.1.63-.27.83-.33.2-.06.43-.27.63-.3.2 0 .47-.12.6-.2.13-.08.12.06 0 .12s-.6.22-.75.33c-.16.1-.5.28-.63.35-.14.08-.45.07-.92.36-.47.3-.56.5-.67.7-.12.2-.4.58-.48.94-.08.36-.04.53.06.6.1.1.2.45.28.55.08.1.3.15.35.1.06-.07.14.06.1.13-.04.08-.1.06-.23 0-.15-.06-.34-.1-.43-.3-.08-.24-.28-.48-.32-.6-.04-.14-.07-.43 0-.58.1-.16.58-.9.64-1.04.06-.14-.03-.3-.16-.47-.13-.16-.3-.5-.44-.63-.13-.13-.3-.4-.4-.56-.1-.15-.17-.37-.18-.6 0-.2-.08-.37.04-.43s.15.05.2-.04c.04-.1.05-.15.05-.15z"/><path fill="#f57e80" d="M31.72 31.73c.15-.07.34.1.34.13 0 .04-.14-.06-.17.07-.04.12-.12.25.07.37.2.12.15.1.25.25s.03.07-.15-.02c-.18-.1-.43-.13-.46-.32-.02-.17-.06-.4.12-.47z"/><path fill="#f57e80" d="M33.77 30.92c.07-.07.03-.2-.1-.27s-.16-.13-.07-.16c.1-.03.2.03.25 0 .04-.04-.3-.16-.5-.14-.18 0-.3-.12-.3-.06s.24.2.32.3c.08.1.3.4.4.32z"/><path fill="#d96f71" d="M21.8 35.3c.17-.03.67.62.95.7.3.1.5.4.78.5.3.14 1.18.23 1.36.24-.2.06-.7.16-.7.16-.5-.16-1.22-.4-1.43-.54-.2-.16-.5-.6-.7-.7-.2-.08-.46-.06-.42-.28.06-.1.07-.07.16-.08z"/><path fill="#e47678" d="M26.4 33.7c.17-.1.2.15.08.24-.12.1-.33.2-.5.67-.2.5-.22.9-.04.94.18.03.45.2.43.28 0 .1-.22-.1-.4-.15-.2-.06-.45-.34-.37-.6.07-.25.37-.8.6-1 .22-.23.1-.32.2-.38z"/><path fill="#d96f71" d="M30.12 34.58c-.22.05-.94.2-1.24.06-.3-.13-.9-.4-.9-.34s.57.43.68.45c.1 0 .72.1.76.14.05.04.02.2.02.2.22-.2.68-.52.68-.52z"/><path fill="#d96f71" d="M15.02 31.8c-.14.22-.35.56-.56.55-.2 0-.38-.14-.55-.15-.15 0-1.08.04-1.3 0-.24-.05-1.6-.38-1.88-.5-.3-.12-1.04-.2-1-.35.02-.16.15-.1.34-.04.2.07.76.34 1 .4.22.05 1.14.28 1.43.28.3 0 1.26 0 1.4.03.14.03.45.1.53.02.08-.1.46-.32.5-.53.05-.22.1-.28.1-.28-.02.26 0 .58 0 .58z"/><path fill="#e47678" d="M8.76 28.28c.18-.23.5-.46.67-.5.2-.07.62-.17.76 0 .14.14.3.55.4.68.1.13.34.1.4.15.07.08.6.72.6.83 0 .1-.1.33-.04.4.06.06.24-.05.27-.13.04-.08.06-.37 0-.45-.03-.08-.5-.78-.6-.8-.12-.02-.38-.02-.55-.22-.18-.2-.46-.74-.6-.74-.13 0-.35.1-.52.16-.18.06-.6.15-.65.13-.04-.02-.36-.2-.44-.3.12.16.3.78.3.78z"/><path fill="#e47678" d="M9.26 25.8c.18-.18.37-.5.6-.62.2-.1.66-.56.86-.52.2.05.57.47 1.03.52.47.04 1.73.04 2.03.14.3.1 1.63 0 2-.14.35-.14.47.28.63.3.1 0-.2.2-.5.2-.27 0-.8-.24-1.07-.2-.26.02-1.6-.15-1.86-.15-.25 0-1.37.05-1.86-.17-.47-.22-.67-.12-.97.05-.3.18-.68.64-.9.83-.22.2-.4.33-.4.23s.26-.3.43-.46z"/><path fill="#d96f71" d="M17.95 22.4c-.27-.25-1.12-.77-1.3-1.4-.16-.64-.38-1-.3-1.42.07-.42-.1-.3-.24-.28-.1.02-.6.14-.8.1-.23-.05-.36 0-.23.07.12.08.6.08.78.03.2-.04.22.05.23.3.02.25-.06 1.06.2 1.26.27.2.47.7.8.87.36.15.64.53.64.6 0 .08-.07.3-.07.35.17-.33.3-.47.3-.47z"/><path fill="#cb686a" d="M18.03 18.73c0-.1.17-.2.23-.17s.05.3.17.38c.13.1.67.58.84.72.17.14.44.4.53.36.1-.05.05.06.05.06-.1.08-.28.34-.28.34-.08-.25-.44-.4-.5-.5-.1-.12-.28-.4-.53-.57-.25-.2-.53-.47-.5-.62z"/><path fill="#cb686a" d="M22.35 18.12c-.1-.02-.5-.17-.77-.4-.28-.2-.66-.4-1-.4-.34 0-1.67-.06-1.98.04-.3.1-.45.2-.54.3-.1.1.3-.13.5-.16.23-.03 1.4-.06 1.76-.02.35.05.85.1 1.16.38.3.28.42.48.42.48.16-.16.45-.22.45-.22z"/><path fill="#d96f71" d="M14.5 19.43c.04.03-.37.52-.32.68.05.16.42.65.64.8.22.13.33.44.3.56 0 .13-.18.6-.38.58-.2-.02-.15-.08-.05-.14.1-.07.24-.24.23-.5-.02-.23-.14-.37-.3-.5-.18-.15-.43-.54-.5-.62-.1-.08-.1-.17.05-.37.14-.2.3-.47.3-.47z"/><path fill="#d96f71" d="M11.8 22.2c.2-.12.33-.48.84-.72.5-.25.8-.44.95-.42.13 0 .44.04.4-.1-.02-.17-.1-.23-.08-.35 0-.12 0-.32.1-.32s.18-.2.02-.12c-.16.06-.27.18-.27.3 0 .13.1.38 0 .4-.1 0-.32-.07-.5.04-.17.1-.93.55-1.02.65-.1.1-.44.64-.44.64z"/><path fill="#cb696b" d="M26.15 15.88c.3-.05-1.7-.45-1.97-.5-.28-.04-2.83-.1-3.23 0-.4.12-1.13.4-1.43.5-.1.04.1.07.33.07.24 0 .77.04 1.1.05.34 0 1.23.04 1.5.08.28.05 1.28.2 1.5.36.2.16.2.08.2.18 0 .1 0 .28-.02.33.1-.14.17-.25.3-.3.1-.04.22-.07.22-.07-.4-.16-.8-.45-1.12-.47-.32-.02-1.55-.13-1.85-.14-.3 0-1.78 0-1.75-.1.04-.08.22-.14.5-.25.27-.1.6-.22 1.2-.22.56 0 2.44.08 2.78.14.34.06 1.3.26 1.33.36.04.1-.06.54-.13.58.16-.1.3-.34.38-.42.06-.08.08-.15.17-.16z"/><path fill="#f57e80" d="M17.15 16.9c.32-.06.8-.17.9-.24-.23.04-.67.15-.62.07.04-.08.1-.15.1-.15-.16.15-.38.33-.38.33z"/><path fill="#f57e80" d="M36.8 25.2c.1-.1.23.18.27.28.03.1.03.44.1.58.05.15.15.54.17.65 0 .12.08.35.1.26-.04.18-.1.4-.1.4-.05-.28-.12-.53-.15-.7-.04-.15-.1-.33-.17-.63s-.14-.62-.2-.65c-.1-.03-.08-.13-.02-.2z"/><path fill="#f57e80" d="M35.3 21.53c0-.16-.37.22-.37.33 0 .1.1.22.2.06.1-.15.17-.32.17-.4z"/><path fill="#e47678" d="M36.97 19.46c-.1-.07-.25-.07-.24 0 0 .08.2.5.48.73.28.2.5.93.5 1.05.03.13.1 1.4.23 1.56.1.16.44.82.54 1 .1.15.38 1.04.45 1.2.07.14.1.52.2 1.2.07.7.23.8.3.74.06-.07-.02-.04-.1-.38-.1-.33-.15-.95-.2-1.27-.03-.34-.37-1.2-.54-1.5-.16-.3-.32-.6-.36-.98-.03-.37-.22-1-.33-1.43-.12-.44-.37-.98-.47-1.1-.1-.12-.47-.5-.47-.6 0-.12 0-.24 0-.24z"/><path fill="#e47678" d="M38.4 20.57c.13 0 .3.24.25.26-.07.03-.1.12-.03.25.06.14.3.7.42.85.13.13.42.5.46.52.05 0 .07.3.07.36 0 .05.05.32-.1.1-.18-.2-.34-.5-.4-.68-.1-.18-.3-.64-.4-.84-.1-.2-.16-.45-.17-.56 0-.1-.2-.23-.1-.25z"/><path fill="#f57e80" d="M39.17 28.73c-.1-.12-.2-.23-.44-.1-.23.14-.73.17-.83.28-.1.12-.47.44-.54.48.37-.2 1.35-.67 1.42-.6.08.08.1.44.1.44.13-.06.3-.5.3-.5z"/><path fill="#d96f71" d="M36.24 35.42c.1-.06.22.1.17.18-.04.07-.04.1-.4.2-.38.1-.86.52-.96.65-.1.13-.45.06-.62.3-.17.24-.47.72-.54.8-.07.1-.68.44-.86.55-.18.1-.54.34-.63.33-.1-.02-.42.03-.42.03.4-.24 1-.5 1.1-.57.12-.1.28-.16.54-.42.25-.26.5-.7.66-.8.15-.1.5-.12.58-.27.1-.13.47-.55.7-.65.25-.1.47-.08.53-.15.05-.07.14-.18.14-.18z"/><path fill="#d96f71" d="M33.26 36.35c.17-.08.6-.14.6-.06-.02.06-.26.35-.52.42-.26.06-.4.15-.54.25s-.44.08-.7.14c-.26.07-.05-.17.1-.2.13 0 .3 0 .43-.1.12-.13.43-.36.63-.45z"/><path fill="#d96f71" d="M34.88 33.94c-.12.18-.4.53-.57.62-.15.1-.9.55-1.15.66-.26.1-.66.26-.8.44-.13.2-.4.38-.57.52-.2.14-.57.26-.8.46-.23.2-.66.6-.58.67.07.07.43-.3.6-.4.16-.1.65-.23.7-.3.08-.08.3-.4.6-.62.3-.2.78-.46 1.07-.64.3-.18 1.1-.7 1.22-.84.1-.15.28-.56.28-.56z"/><path fill="#d96f71" d="M37.85 31.3c0 .12-.1.57-.1.7 0 .15.13-.03.16-.22.04-.18-.05-.47-.05-.47z"/><path fill="#d96f71" d="M37.36 30.55c.1-.13.27 0 .15.1-.1.1-.32.3-.32.5s-.1.72-.13.92c0 .2.02.55-.18.68-.2.12-.34-.08-.4.07-.1.15-.34.24-.55.95-.08.24-.18.26-.24.18-.07-.08-.13-.3-.26-.23-.14.08-.26.17-.37.28.1-.28.35-.5.43-.48.07.02.18.25.26.13.07-.13.27-.6.43-.75.15-.14.42-.14.55-.3.12-.15.24-.34.3-.8.03-.43.05-.83.14-.95.1-.12.2-.3.2-.3z"/><path fill="url(#S)" d="M-41.85-1.5c-.5.45-.53.53-.6.58-.07.05-.3 0-.5.25s-.44.5-.64.65c-.2.15-.22.3-.34.3-.12 0-.3-.1-.43-.04-.15.06-.26.3-.32.5-.04.2-.07.42-.2.42-.1 0-.24.06-.3-.04-.08-.1-.2-.3-.25-.32-.05-.02-.7-.24-.76-.24 0 0-.28-.08-.4-.2.2-.02.68-.13.75-.14.07 0 .25-.04.38-.05.12 0 .88-.05 1.4-.25.54-.2 1-.67 1.1-.73.1-.07.77-.52 1.12-.7z" transform="matrix(1.776 0 0 1.776 105.842 36.464)"/><path fill="#d96f71" d="M28.34 37.5c.16-.18.26-.32.2.1-.06.4.02.6.1.6.07 0-.3-.18-.32-.08-.03.1-.16.42 0 .54.06.02-.25.1-.28-.05-.03-.15.03-.34.1-.55.08-.2.08-.4.2-.55z"/><path fill="url(#T)" d="M-50.42-3.4c.15-.1.8-.23 1-.26.18-.03.7-.2.82-.15.13.03.35.44.5.64.13.2.65.48.85.48.2 0 .86-.03 1-.03s.66-.02.72.03c.05.06.44.36.58.32.15-.04.5-.58.5-.84 0-.17-.42-.63-.6-.9-.2-.26-.84-1.5-.9-1.7-.03-.2-.52-1.44-.7-1.54-.17-.1-.73-.2-.98-.2s-.94.1-1.05.18c-.1.08-.4-.08-.2-.3.18-.2.7-.3.92-.3.2 0 1.1.06 1.22.1.13.04.28-.05.44-.3.16-.25.2-.5.47-.65.28-.16.47-.1.5-.23.05-.12.34-.4.2-.52-.15-.13-.64-.38-.76-.38s-.28.16-.44.08c-.16-.07.03-.22-.12-.28-.14-.07-.45-.2-.65-.02-.2.18-.37.45-.44.52-.08.07-.52.15-.64.3-.12.17-.47.7-.4.72.08.02.53-.12.7-.2.15-.08.47-.37.63-.37.15 0 .27-.02.32-.1.06-.07.42-.3.46-.24.03.06-.1.35-.2.4-.12.07.12.1.14.16.02.07-.03.27-.2.3-.15.05-.44-.08-.58-.06-.16.03-.94.25-1.15.37-.2.12-.7.28-.78.5-.08.2-.78 1.5-.5 1.7.3.16 1.7.4 2 .52.3.1 1.22.92 1.43 1.32.22.4.5 1.02.6 1.1.1.08.23.28.18.28-.04 0-.37 0-.42-.1-.04-.08-.64-1.16-.73-1.2-.1-.04-1.3-1-1.66-1.02-.36 0-.98-.04-1.16-.15-.18-.1-.37-.24-.55-.08-.2.16-.45.5-.54.9-.07.43-.1 1.02-.15 1.2-.06.17-.14.87.02 1 .17.1.73.44 1.13.5.4.06.85-.1 1.08.2.24.33.54.82.47.92-.08.1-.27.12-.4.05-.13-.07-.47-.37-.7-.45-.22-.08-1.55-.58-1.64-.54-.07.03-.06.36.03.55.08.2.33.56.77.7.44.15.95.04 1.16.16.22.12.37.4.65.5.3.1 1.02.08 1.1-.06.1-.15.03-.4-.1-.4-.15 0-.47-.15-.38-.35.1-.2.3-.25.38-.2.07.04.3.4.43.4.12 0 .1-.36.3-.3.2.04.13.47.24.56.12.1 1.22.18 1.24-.04.03-.23-.42-.3-.4-.5.03-.24.5-.8.46-.9-.04-.12-.54-.4-.87-.44-.34-.04-1.2-.04-1.48-.2-.28-.15-1-.6-1.08-.7-.07-.13-.06-.43-.5-.42-.46 0-1.37.26-1.5.3-.1.04-.35 0-.3-.2.04-.2.16-.13.24-.2z" transform="matrix(1.776 0 0 1.776 105.842 36.464)"/><path fill="#f4b1b3" d="M26.7 33.93c-.14.14-.47.5-.36.97.1.5.6.8 1.1.68.5-.13.97-.15.9-.38-.06-.23-.48-.07-.76-.34-.27-.27-.52-.55-.52-.67 0-.14.04-.52.23-.58.18-.07.83.12 1.17.33.34.2 1.3.47 1.65.15.33-.3.42-.63.06-.76-.36-.12-.95-.8-1-1.1-.04-.3-.18-.73.03-1.04.22-.32.68-.76.58-1.04-.1-.27-.95-.84-1.04-1.3-.08-.46-.3-.78-.14-1.12.14-.33.3-.42.46-.46.17-.04.57 0 .57.2 0 .22-.32.4-.2.73.14.32.4 1.18.73 1.25.3.06.97-.1 1.4-.38.45-.27 1.28-.46 1.42-.65.15-.2.43-.47.45-.3.02.17.02.72-.17.82-.2.1-.68.15-.66.42.03.28.32.66.5.74.2.08.73-.08.85.13.13.2.17.46-.02.46-.2 0 .2.35.02.4-.18.07-.73-.05-.9-.37-.17-.3-.2-.65-.53-.8-.34-.15-.68-.1-1.22 0-.55.1-1.14.6-1.14.9 0 .28-.26.74-.1 1.12.18.38.62.5.67.66.04.17-.3.62-.05.78.26.17.83.24 1.04-.1.2-.34.25-.44.1-.65-.15-.2-.36-.38-.36-.6 0-.25.26-.52.43-.52.15 0 .64.24.53.47-.1.24-.23.4.1.45.35.04 1.2-.4 1.6-.68.4-.27.75-.4.77-.67.02-.27.1-1.94.1-2.3-.03-.35-.06-.92-.12-1.28-.06-.37-.2-.87-.42-.98-.2-.1-.53-.2-.87.1-.34.32-.85.5-1.06.66-.2.17-.32.55-.5.57-.2.02-.6.06-.6-.2 0-.3-.14-.54-.38-.6-.23-.07-.9-.13-.93-.47-.02-.33.05-.88.3-.9.25-.02.42.27.63.42.2.15 1.04.78 1.3.63.3-.15.58-.44.77-.6.2-.18.38-.3.04-.8-.33-.47-.38-1.08-.73-1.17-.36-.08-1.6-.23-1.95-.48-.34-.25-1.02-.8-1.3-.65-.3.14-.16.94-.22 1.26-.07.3-.8 1.65-.95 1.78-.15.13-1.3 2.12-1.3 2.38 0 .25.43 1.07.73 1.45.3.4.44.66.1 1.44-.34.78-.74 1.88-.74 2.02 0 .15 0 .45-.12.57z"/><path fill="#f4b1b3" d="M26.32 27.87c.16-.32.6-1.44.58-1.73-.02-.3-.72-1.2-.9-1.96-.18-.76-.2-1.15.1-1.25.3-.1.74-.12.74.08s-.36.3-.28.62c.08.32.76 1.52.82 1.86.06.34.16.97.22.74.06-.24.06-.7.2-1.08.14-.38.37-1.62.55-2.2.18-.57.6-1.07.8-1.33.2-.25.64-.98.5-1.52s-1.3-1.16-1.67-1.46c-.36-.3-1.72-1.1-1.72-1.3 0-.2.22-.3.42-.2.2.07.18.3.3.4.12.07 2.03 1.26 2.55 1.56.52.3 1.12.72 1.12 1.1 0 .4-.14 1.3-.4 1.37-.26.06-.54.04-.68.32s-.42.58-.08.72c.33.13 1.5.68 1.77.74.28.06.96.18.96 0 0-.2-.34-.65-.32-.97.03-.32.17-.46.35-.42.18.04.24.14.24.3 0 .16-.17.52-.1.62.1.1.37.38.37.55 0 .18 0 .48.08.62s.82 1.36.92 1.38c.1.02.63-.02.63-.26 0-.24 0-1.68-.17-1.87-.16-.2-1.14-1.05-1.26-1.23-.12-.18-.5-.42-.2-.88.3-.47.44.03.46.23.02.2.93 1 1.08 1.1.15.1.48-.2.5-.5.02-.3.32-.74.44-.74s.48.13.34.37c-.14.24-.44.46-.62.68-.18.22-.4.38-.32.68.08.3.32 1 .32 1.3 0 .33-.04 1.57.08 1.76.12.2.38 1.13.38 1.5 0 .4.24 1.24.16 1.66-.08.42-.28 1.32-.22 1.6.06.28.28-.12.56-.46s.26-.96.38-1.16c.12-.2.3-.67.54-1.23.24-.55.16-1.15.14-1.53-.02-.38-.12-.7-.28-.9-.16-.17-.24-.6 0-.67.24-.08.36-.06.38.14.02.2.18.62.18.78 0 .15.12.65.16.47.04-.2.22-1.38-.08-1.7-.3-.32-.64-1.8-.98-2.15-.34-.34-.86-1.3-.96-1.5-.1-.2-.7-1.43-.85-1.77-.16-.34-1.66-1.87-2.28-2.17-.62-.3-2.06-1.05-2.88-1.15-.82-.1-1.4-.02-.25.32 1.16.34 1.46.78 1.62 1 .16.22 1.4 1.5 1.48 1.67.08.18.16.42-.28.24-.44-.18-1.22-1.14-1.42-1.4-.2-.3-1.9-1.37-2.2-1.45-.3-.08-1.07-.06-1.27-.1-.2-.04-.68-.28-.88-.16-.2.12-.34.38-.14.38s1.04.34 1.18.38c.14.04.9.16 1.2.16.3 0 .34.3.02.37-.32.06-1.34-.2-1.5-.3-.16-.1-1.16-.32-1.48-.28-.32.03-.86-.03-1.26.5-.4.54-.54.68-.04.84.5.16 1.16.5 1.32.64.16.14.72.56.86.76.14.2-.16.42-.32.7-.16.28-.44.7-.78.93-.34.24-.94 1.04-1.1 1.18-.16.14-.66.7-.56.87.1.18.76 1.38.78 1.58.02.2.4 1.14.48 1.35.08.22.98 1.76 1.16 1.84.18.07.24.1.3-.03z"/><path fill="#f4b1b3" d="M33.1 16.95c.22.04 1.7.58 2.05.97.35.4.74.74.85 1.18.12.44 1.1 1.06.9 1.2-.2.14-.32.48.05.94.37.47.5 1.3.8 1.66.27.37 1.03 1.9 1.03 2.52 0 .62-.02 1.48-.2 1.9-.2.4-.63 1.38-.9 1.54-.3.16-.7.7-.75.46-.05-.23.2-1 .32-1.36.14-.37.54-.97.5-1.1-.06-.15.1-2.25-.13-2.57-.23-.33-1.3-2.5-1.6-2.85-.3-.34-1.05-2.26-1.36-2.77-.3-.5-2.14-1.82-1.57-1.73z"/><path fill="#f4b1b3" d="M37.6 20.07c.1.02.62.7.86 1.24.23.54.7 2 .8 2.46.12.46.47.65.47 1 0 .34.1.87-.05 1.08-.14.2-.05.67-.14.7-.1 0-.18-.43-.25-1.2-.08-.75-.87-1.7-.96-2.2-.1-.5-.3-2.08-.5-2.47-.22-.4-.35-.63-.24-.6z"/><path fill="#f4b1b3" d="M27.13 37.12c.3-.07.67.25.9.07.23-.2 1.04-.9 1.25-1.26.2-.37.56-.85.76-.9.2-.05.54.23.72-.05.18-.28.36-.72.55-.95.2-.23.82-.3 1.24-.7.42-.4 1.46-.94 1.94-1.24.5-.3.95-.4 1.2-.66.26-.25.74-1 .97-1.3.24-.3 1.2-.94 1.44-1 .22-.08.6-.08.47.4-.14.45-.4 1.1-.65 1.25-.23.16.2-.26-.07-.4-.25-.14-.4-.34-.83.26-.44.6-.2 1.54-.37 1.75-.16.22-.64.26-.76.4-.13.14-.4.5-.63.67-.24.2-.63.25-.8.53-.15.28-.66.7-1.03.8-.37.13-.97.22-1.3.63-.32.42-.62.63-1 .88-.36.26-.82.54-.9.9-.06.33-.1 1.14-.68 1.16-.58.03-.88-.14-.88-.55 0-.4.14-.66-.05-.64-.18.03-.67.35-.65.6.03.26-.23.86-.1 1.02.1.16.9.2.9.5s0 .6-.6.58c-.63-.02-1-.28-1.5-.62-.47-.35-.3-.42-.17-.85.12-.45.24-1.2.63-1.28z"/><path fill="#f4b1b3" d="M32.63 35.9c.38-.24 1.4-.67 1.57-.86.16-.18.95-.9 1.1-.9.13 0 .3.25.64-.14.34-.4.55-1 .7-1 .17 0 .1.9-.52 1.33-.62.4-.2.7-.65.9-.44.18-.78-.03-1 .2-.2.23.1.7-.34.7-.44 0-1.13.06-1.38.3-.26.23-.88.36-1.02.6-.14.23-.58.66-.8.7-.2 0-.47-.3.2-.66.67-.34.88-.78 1.5-1.18z"/><path fill="url(#U)" d="M-54.56-5.43c.06-.14.35-.52.45-.6.1-.07.42-.33.6-.28.2.04.54.1.76.1.22 0 .73 0 .88 0 .16 0 1 .16 1.1.18.12 0-.1.3-.25.7-.17.4-.48 1.83-.53 2.1-.05.28-.2.5-.34.55-.14.05-.74.1-1.04 0-.3-.07-.88-.18-1.05-.3-.17-.12-.44-.17-.4.04.06.2.26.38.36.4.1.03.5 0 .65.04.15.05.88.18 1.03.18.14 0 .76-.03.8.06.02.1-.06.4 0 .65.04.24.17.66.32.76.14.1.05.2-.2.13-.27-.07-.62-.3-.88-.44s-.53-.15-.76-.23c-.23-.08-.62-.42-.8-.52-.16-.1-.47-.3-.57-.56-.1-.26-.12-.35-.25-.54-.13-.18-.22-1-.12-1.18.1-.17.25-.47.4-.56.16-.1.35-.15.56.15.2.3.3.23.38.28.1.05.26.22.28.34 0 .1-.07.3.06.3.13.02.24-.17.22-.3 0-.1-.24-.42-.32-.5-.08-.08-.3-.1-.4-.2-.08-.12-.14-.4-.3-.4-.15-.02-.57.24-.66.2-.1-.07-.22-.23-.2-.34 0-.1.06.08.18-.2z" transform="matrix(1.776 0 0 1.776 105.842 36.464)"/><path fill="#f4b1b3" d="M10.47 24.22c-.25-.3.4-1.13.78-1.38.4-.26 1.18-.6 1.4-.95.24-.36.68-.72.96-.72.3 0 .6.18.66 0 .04-.2.57.1.4.32-.15.2-.33.48-.26.58.07.1.46.34.6.06.13-.27.4-.62.25-1-.16-.4-.88-.84-.83-1.07.05-.23.1-.46.46-.46.37 0 .76-.06.9.12.14.2-.1.53.07.8.2.3.2.68.65 1.1.44.4 1.02.64.97.85-.05.2-.35.07-.7.57-.34.5-.46 1.64-.7 1.83-.22.18-1.14.3-1.42.34-.28.06-2.5-.1-2.96-.4-.47-.3-1.14-.46-1.23-.58z"/><path fill="#f4b1b3" d="M12.15 21.3c.13-.27 1.1-1.16 1.4-1.3.3-.14.22.1.13.25-.1.16 0 .37-.16.44-.16.06-1.16.52-1.18.6-.02.1-.26.13-.2 0z"/><path fill="#f4b1b3" d="M17.7 21.9c.27.1.65-1.16.8-1.32.17-.17.24-.54.08-.8-.16-.3-.74-.82-.7-1 .05-.2.26-.5.47-.42.2.1.16.4.23.5.07.08.74.68.88.56.14-.1.58-.3.55-.55 0-.26-.08-.62.13-.6.2.02.65.4.9.14.25-.25.3-.64-.1-.64s-1.5-.2-1.73-.2c-.23 0-.83.25-1.04.32-.2.06-.7.32-.85.48-.15.16-.64.55-.64 1.3 0 .78.1 1.33.37 1.65.28.34.32.52.67.6z"/><path fill="#f4b1b3" d="M15.2 19.1c0-.2.97-1.02 1.3-1.18.32-.16 1.36-.34 1.3-.23-.08.1-.9.43-1 .7-.12.28-.23.6-.37.68-.14.06-1.23.36-1.23.02z"/><path fill="#f4b1b3" d="M17.63 17.14c.33-.25 1.9-.72 2.47-.72.58 0 2.27-.25 2.5.1.23.34.1.73-.16.85-.26.1-.33.34-.9.1-.58-.22-1.23-.33-1.74-.3-.5.06-1.43.08-1.7.08-.28 0-.65.03-.47-.1z"/><path fill="#f4b1b3" d="M24.03 16.1c.18-.03.63-.35.35-.42s-2.17-.27-2.68-.23c-.5.05-1.64.33-1.2.33.44 0 1.6.13 1.8.13.18 0 1.57.22 1.73.2z"/><path fill="#f4b1b3" d="M18.2 16.45c.24-.12.84-.44 1.07-.44.23 0 1.1.05.93.12-.17.07-1.28.3-1.58.35-.3.04-.8.14-.43-.02z"/><path fill="#f79899" d="M26.1 15.57c-.1-.15-2.44-.8-4.22-.44-.27.02 1.16.12 1.7.12.57 0 2.26.4 2.35.4.1 0 .37.17.18-.08z"/><path fill="#f4b1b3" d="M13.9 19.4c.12-.28.8-.86 1.1-1.06.3-.2 1.9-1.18 2.05-1.16.17.03.63.3.4.3-.23 0-.93 0-1.25.26-.33.25-1.1 1.3-1.3 1.45-.18.15-1.1.5-1 .2z"/><path fill="#f5d9d9" d="M29.08 27.12c-.38 0-.67.16-.7.8-.03.65.67 2.12.54 2.57-.14.45-.83.83-.6 1.33.25.5 1.1 1.26 1.2 1.67.07.4-.36.37-.55.08-.2-.3-1.4-.06-1.53-.35-.13-.3-.43-.7.14-1.42.56-.72.67-1.55.26-1.84-.4-.3-.94-1.1-.77-1.7.16-.58.96-1.95 1.28-2.32.33-.38.86-1.45.84-2.07-.04-.6.07-.72.3-.6.25.15 1.5.63 1.86.76.38.14 1.4.6 1.5 1.16.1.55-.07 1.14-.5 1.14s-.84-.1-1.32-.62c-.48-.5-.62-.53-.94-.02-.32.5-.83 1.02-.4 1.15.43.13 1.4.32 1.45.67.05.35.62.86.86.64.25-.2.54-.7.84-.77.3-.1.83-.74 1.18-.66.35.08.78.27.78 1.07 0 .82-.32 1.27-.13 1.65.18.37.35 1.55.02 1.7-.33.17-.46.12-.46-.28s.16-.83-.27-.97c-.43-.13-1.05-.34-.75-.67.3-.32.5-.7.48-.96-.03-.27-.27-.56-.62-.35-.35.2-1.6 1.05-2.1 1.07-.48.02-1.23-.36-1.18-.95.06-.58.03-.96-.72-.93z"/><path fill="#f5d9d9" d="M30.3 31.27c-.06.4.6 1.37.82 1.05.22-.32.35-1.05.73-1 .37.06.67.6 1.15.5.48-.07 1.4-.33 1-.4-.4-.1-1.2-.28-1.3-.6-.07-.33-.02-.78-.75-.75-.72.02-1.55.32-1.66 1.2z"/><path fill="url(#V)" d="M-45.34-1.64c.18.07.07.36-.2.8-.1.13.28.7-.23.66-.48-.03-.5-.6-.64-.6-.63-.03-1.28-.17-1.52-.48-.38-.5-.76-.86-1.23-.86s-1.33-.27-1.27-.52c.06-.24 1.16-.6 1.48-.5.32.13.66.43 1 .72.78.64 2.38.7 2.6.78z" transform="matrix(1.776 0 0 1.776 105.842 36.464)"/><path fill="url(#W)" d="M-49.85-4.98c.4-.14 1.34-.1 1.62.02.3.12 1.18.44 1.53.98.35.54.8.92.74 1.04-.06.12-.68.17-.94.02-.25-.15-.68-.18-1.3-.8-.65-.62-2.02.07-2.14.15-.13.07-.47-1.04.5-1.4z" transform="matrix(1.776 0 0 1.776 105.842 36.464)"/><path fill="url(#X)" d="M-46.78-7.3c.3.2.6 1.3.87 1.8.24.5 1.17 1.9 1.23 2.2.06.3-.38.74-1-.12-.6-.86-.92-1.7-1.4-2.1-.46-.4-1.97-.4-2.23-.72-.26-.32.24-1 .7-1.05.45-.03 1.46-.2 1.82 0z" transform="matrix(1.776 0 0 1.776 105.842 36.464)"/><path fill="url(#Y)" d="M-53.15-5.83c.67.12.9-.17 1.23.04.33.22.77.65.62.9-.15.26-.25 1.52-.48 1.68-.23.15-1.12.37-1.4.18-.3-.2-.67-.24-.78-.5-.1-.28-.36-.9-.18-.9s.7.33.75.56c.06.22.36.4.47.3.1-.1.4-.73.1-1-1.03-1.02-1.15-.74-1.14-1 .02-.28.54-.3.82-.25z" transform="matrix(1.776 0 0 1.776 105.842 36.464)"/><path fill="url(#Z)" d="M-52.7-7.78c.26-.15.56-.77.75-.7.2.08.32.33.4.43.07.1.3.3.5 0 .22-.3-.04-.67.13-.7.17-.06.62.6.8.74.15.13-.33.47-.42.8-.1.3-.23.78-.55.76-.3 0-1.6-.06-1.74-.45-.14-.4-.45-.57.14-.88z" transform="matrix(1.776 0 0 1.776 105.842 36.464)"/><path fill="url(#aa)" d="M-49.57-10.2c.2-.05-.12.14-.1.26.04.12.3.4.34.62.03.2-.03.45-.06.65-.02.2-.07.5-.22.42-.15-.1-.6-.47-.56-1.1.05-.6.27-.8.6-.86z" transform="matrix(1.776 0 0 1.776 105.842 36.464)"/><path fill="#f5d9d9" d="M11.2 32.32c.58.1 1.77.4 2.3.37.54-.03.54.18.4.6-.13.44.17.84-.18.95-.35.1-1-.65-1.7-.65s-1.74-1.44-.83-1.28z"/><path fill="#f5d9d9" d="M36.07 31.3c0 .23-.36.97-.76 1.4-.38.4-.77 1-1.07 1.26-.3.25-.84-.14-1.14.23-.3.36-1.44 1.16-1.95 1.74-.5.58-1.4 1.78-1.45 2.03-.07.25-.8.25-.8-.05-.04-.3-.22-.96.38-1.54.6-.58 1.4-.62 1.73-1.04.34-.42.6-1.06 1.03-1.34.42-.27.8-.7 1.16-.97.33-.25 1.5-.97 1.88-1.17.4-.2.56-.28.67-.4.12-.1.32-.3.32-.16z"/><path fill="url(#ab)" d="M-48.9-11.02c.3-.1 1-.2 1.38-.2.38 0 .27.2.32.3.06.1.07.26-.1.22-.14-.04-.6-.23-.9-.22-.32 0-1.43.1-.7-.1z" transform="matrix(1.776 0 0 1.776 105.842 36.464)"/><path fill="#f5d9d9" d="M18.65 18c.37-.2 1.4-.22 1.36 0-.03.25-.27 1.05-.5 1.15-.23.1-.74-.2-.8-.47-.08-.27-.4-.46-.05-.67z"/><path fill="#f5d9d9" d="M24.08 15.7c-.28-.05-2.13-.1-2.38-.08-.26.02.35.23 1.22.27.88.04.95.22 1.07.13.1-.1.26-.32.08-.34z"/><path fill="#f5d9d9" d="M25.23 17.02c.26-.02.44.67 1.04.97.6.3 2.64 1.24 2.82 1.67.18.44.4 1.02-.14 1.44-.54.42-1.25.1-1.32.65-.07.56.48.72.32 1.34-.16.6-.18 2.18-.37 2.23-.2.04-.75-1.32-.75-1.76 0-.43.58-.43.28-.8-.3-.37-1.6-.14-1.6.27 0 .42.28 1.02.4 1.43.1.42.7 1.7.7 1.96 0 .28-.22 1.25-.42 1.3-.2.04-1.15-1.43-1.3-1.94-.17-.52-.9-2.32-.94-2.73-.04-.42 1.1-1.23 1.4-1.64.3-.42 1.03-1.64 1.35-1.66.34-.03.73-.5.4-.65-.32-.14-1.1-.44-1.84-.8-.74-.38-1.34-.42-1.1-.77.27-.34.64-.48 1.07-.53z"/><path fill="#f5d9d9" d="M29.44 22.4c-.03-.28.2-.58.5-.65.26-.07.7-.04.73-.32.02-.28.55-1.02.23-1.55-.33-.53-3.8-2.2-3.8-2.44 0-.26.45-.16.86-.05.42.1 1.94.9 2.1.75.17-.13-1.4-1.27-1.15-1.4.26-.14 1.26.7 1.46.92.2.2.8 1.6 1.25 1.73.48.12 1.28-.12 1.15-.32-.14-.2-1.23-1.16-1.6-1.62-.37-.46-1.6-1.22-1.3-1.27.3-.05 2.02.75 2.43 1.05.42.3 1.92 1.8 2 2.13.1.32.8 1.1.57 1.4-.23.3-.23 1.4-.53 1.32-.3-.1-.74-1.64-1.16-1.5-.42.14-.85 0-.88.53-.02.53-.57.32-.7.92-.1.6.63 1.06.45 1.18-.2.1-1.16-.07-1.5-.28-.35-.2-1.07-.37-1.1-.55z"/><path fill="#f5d9d9" d="M32.72 22.35c.14-.06 1.14.72 1.25.97.12.25.37 1.5.28 1.73-.1.23-.53.02-.83-.32-.3-.35-.35-1.06-.5-1.4-.17-.36-.7-.75-.2-.98z"/><path fill="#f5d9d9" d="M34.92 22.77c.08-.24.6-.67.9-.4.3.28 1.16 1.67.88 1.92-.28.24-.56.5-.42.96.14.46.53 1.3.5 2.07-.06.8-.5 1.6-.6 1.87-.08.28-.4 1.27-.57 1.3-.15.02.13-1.4.13-1.7 0-.34-.26-1.88-.37-2.2-.12-.33-.3-.9-.3-1.62 0-.7-.05-1.36-.17-1.64-.12-.27-.07-.3.02-.57z"/><path fill="#f5d9d9" d="M34.16 17.76c.2-.03 1.2.65 1.48 1.06.27.42 1 1.18.92 1.34-.1.16-.28.28-.12.67.17.4 1.2 2.1 1.4 2.4.18.3.78 1.64.8 1.94.02.3-.2.4-.2 1.1 0 .72-.24 1.57-.5 1.76-.25.18-.7.85-.64.44.05-.42.14-.65.32-1.07.2-.4.14-.6.2-1 .03-.38.1-1.93-.08-2.18-.2-.25-1.27-2.33-1.48-2.6-.2-.28-1.18-2.36-1.25-2.57-.06-.2-.6-.67-.7-.87-.12-.2-.3-.4-.14-.42z"/><path fill="#f5d9d9" d="M22.47 18.38c.18-.04.83.08.83.2 0 .14-.3.37.03.5.33.15.93-.1 1.24.05.3.14 1.24.27 1 .7-.45.78-1.4.7-1.6 1.05-.18.35-.52 1.5-.95 1.5-.44.02-1.62-.26-2.2-.2-.58.07-1.7.58-1.76.27-.06-.3.22-.45.62-.54.4-.1 1.55-.66 1.92-.7.38-.03 1.05.3 1.4 0 .33-.32.44-.46.3-.77-.14-.3.38-1.02-.16-1.03-.32 0-.7.44-.92.53-.22.1-.52.04-.72.22-.2.17-.78.6-1 .7-.24.1-.87.35-.73.03.14-.32.67-.84 1.04-1.02.38-.17.76-.37.9-.65.13-.27.42-.74.77-.82z"/><path fill="url(#ac)" d="M-50.74-1.5c.15-.03.96.18 1.22.3.27.14 1.04.8 1.23.87.2.07 1.12.4.78.48-.34.07-.57.03-1-.25-.4-.3-.75-.34-1.07-.34-.3 0-.86-.18-1-.5-.1-.32-.25-.53-.14-.55z" transform="matrix(1.776 0 0 1.776 105.842 36.464)"/><path fill="none" stroke="#cb696b" stroke-width=".89" d="M15.76 35.4c-.06-.08-.1-.14-.15-.2-.28-.48-.32-1-.34-1.16-.02-.16-.18-.54-.06-1.47.04-.24-.16-.54-.16-.9 0-.37-.08-1.1.28-2.27.9-2.98 1.45-3.32 1.47-3.62 0-.3-.05-.57.54-2.2.58-1.66 1.04-1.3 1.3-1.7.27-.4.7-1.27 1.17-1.8.48-.52 1-.6 1.24-.86s.42-.6.87-.88c.6-.37 1.37-.37 1.5-.5.12-.15.78-1 .97-1.16.2-.16.96-.07 1.2-.22.26-.14.37-.53.58-.58.2-.05 1.14.16 1.53.1"/><path fill="none" stroke="#994f51" stroke-width=".89" d="M23.52 37.37c-.26-.1-.46-.27-.46-.27-.83.14-1.88.16-2.46.08-.6-.08-1.45-.67-1.6-.65-.13.02-.64-.06-1.5-.32-.74-.2-1.38-.46-1.74-.8"/><path fill="none" stroke="#cb696b" stroke-width=".89" d="M27.5 39.95c-.32-.07-.48-.2-.87-.54-.4-.33-.8-.7-.94-.8-.15-.08-.4-.67-.67-.75-.26-.1-1.24-.38-1.5-.48"/><path fill="none" stroke="#994f51" stroke-width=".89" d="M27.68 15.97c.4-.07.2-.22.42-.27.22-.05 1.9.07 2.22.14.34.07.88.34 1.05.34.18 0 .5 0 .82.1.3.08 2.44 1.12 2.8 1.32.35.2 1.22 1.15 1.56 1.54.4.13 1.15.48 1.37.6.2.13 1.05 1 1.17 1.3.12.3.07.67.2.94.16.26.24.44.28.65.04.22.04 1.1.12 1.3.1.2.25.57.25 1.17s-.2 1.5-.28 1.98c-.1.48-.5 1.28-.5 1.46 0 .17-.05.42-.16.56-.1.15-.13 0-.24.4-.1.4-.48.93-.5 1.06 0 .12-.03.3-.1.4-.07.08-.34.08-.34.24 0 .15.25.33.3.46.02.12.08.32.04.44s-.53.9-.78 1.3c-.25.42-.9 1.18-.93 1.36-.03.18.08.26.08.53 0 .26.03 1-.06 1.23-.1.23-1.72 2.02-2.04 2.1-.32.1-2.08-.24-2.42-.17-.32.08-1.57.45-2 .77-.46.3-1.18.74-1.48.78-.3.04-.86 0-1.02-.05"/><path fill="none" stroke="#d97072" stroke-width=".89" d="M15.76 35.4c-.06-.08-.1-.14-.15-.2-.28-.48-.32-1-.34-1.16-.02-.16-.18-.54-.06-1.47.04-.24-.16-.54-.16-.9 0-.37-.08-1.1.28-2.27.9-2.98 1.45-3.32 1.47-3.62 0-.3-.05-.57.54-2.2.58-1.66 1.04-1.3 1.3-1.7.27-.4.7-1.27 1.17-1.8.48-.52 1-.6 1.24-.86s.42-.6.87-.88c.6-.37 1.37-.37 1.5-.5.12-.15.78-1 .97-1.16.2-.16.96-.07 1.2-.22.26-.14.37-.53.58-.58.2-.05 1.14.16 1.53.1"/><path fill="none" stroke="#994f51" stroke-width=".89" d="M27.68 15.97h-.03c-.34-.03-.55-.1-.7-.24-.17-.16-.1-.27-1.63-.58-1.52-.3-3.3-.5-5.6.4-2.32.87-2.35 1.23-2.6 1.37-.25.14-2.07 1.07-2.5 1.5-.46.4-.68.5-.82.7-.13.2-.22.5-.47.67-.24.15-1.65 1.53-2.1 2.22-.43.7-.57 1.05-.77 1.35-.2.3-.9 1.1-1.3 1.82-.38.7-.77 1.72-.77 2s.35.88.35 1.05c0 .16-.47.52-.5.74-.02.2.06.82.12 1.3.05.46.02.76.13.98.1.22.42.33.47.52.06.2.22.67.5.9.28.26.53.34.8.62.28.27.8.74 1.2.85.38.1.98 0 1.23.17.25.16 1.1 1.02 1.52 1.16.4.13 1.3-.1 1.54-.1"/></g><g><path fill="url(#ad)" d="M25.9 22.8c.83.06 9.87.63 10.9.72-.14.86-.36 3.06-.5 3.86-.93-.15-10.76-2.24-11.8-2.4l1.4-2.2z" transform="translate(0 1.418)"/><g transform="matrix(1.02 0 0 1.02 -.088 -7.992)"><linearGradient id="z" x1="-212.98" x2="-202.601" y1="-193.304" y2="-191.67" gradientUnits="userSpaceOnUse" gradientTransform="matrix(.5 .866 -.866 .5 -31.719 310.988)"><stop offset="0" stop-color="#fff"/><stop offset="1" stop-color="#B7D0DC"/></linearGradient><path fill="url(#ae)" d="M23.46 34.7l13.1 2.57.87-5.98-11.27-.8-2.7 4.2zm2.02-3.14c.8.06 9.67.62 10.7.7-.16.86-.37 3-.5 3.8-.92-.16-10.56-2.2-11.57-2.36l1.38-2.14z"/></g><path fill="url(#af)" d="M22.9 7.57c-.82-.07-9.86-.64-10.9-.73.15-.86.37-3.06.5-3.86.94.15 10.77 2.24 11.8 2.4l-1.4 2.2z" transform="translate(0 1.418)"/><g transform="matrix(1.02 0 0 1.02 -.088 -7.992)"><linearGradient id="B" x1="-643.854" x2="-633.474" y1="401.295" y2="402.929" gradientUnits="userSpaceOnUse" gradientTransform="matrix(-.5 -.866 .866 -.5 -650.587 -338.792)"><stop offset="0" stop-color="#fff"/><stop offset="1" stop-color="#B7D0DC"/></linearGradient><path fill="url(#ag)" d="M24.57 13.48l-13.1-2.56-.87 5.98 11.27.78 2.7-4.2zm-2.03 3.16c-.8-.07-9.67-.63-10.68-.7.14-.86.36-3.02.5-3.8.9.15 10.55 2.2 11.56 2.36l-1.38 2.14z"/></g><path fill="url(#ah)" d="M1.9 7.77c.5.64 5.85 6.92 6.5 7.73-.72.5-2.46 1.86-3.13 2.3-.54-.77-3.42-5.55-4.02-6.4l.64-3.63z" transform="translate(0 1.418)"/><g transform="matrix(1.02 0 0 1.02 -.088 -7.992)"><linearGradient id="D" x1="-516.134" x2="-505.755" y1="-237.943" y2="-236.309" gradientUnits="userSpaceOnUse" gradientTransform="matrix(-.278 .96 -.96 -.278 -365.302 448.032)"><stop offset="0" stop-color="#fff"/><stop offset="1" stop-color="#B7D0DC"/></linearGradient><path fill="url(#ai)" d="M.13 20.62l4.85 7.54 4.92-3.52-7.25-8.67-2.52 4.65zm1.8-3.78c.52.63 5.75 6.78 6.4 7.57-.72.5-2.42 1.83-3.08 2.27-.53-.76-3.36-5.45-3.94-6.28l.64-3.56z"/></g><path fill="url(#aj)" d="M46.4 22.33c-.5-.64-5.85-6.9-6.5-7.72.72-.5 2.46-1.85 3.13-2.3.53.77 3.42 5.56 4.02 6.4l-.65 3.63z" transform="translate(0 1.418)"/><g transform="matrix(1.02 0 0 1.02 -.088 -7.992)"><linearGradient id="F" x1="-385.746" x2="-375.366" y1="460.689" y2="462.323" gradientUnits="userSpaceOnUse" gradientTransform="matrix(.278 -.96 .96 .278 -294.445 -469.356)"><stop offset="0" stop-color="#fff"/><stop offset="1" stop-color="#B7D0DC"/></linearGradient><path fill="url(#ak)" d="M47.4 27.33l-4.86-7.54-4.92 3.5L44.87 32l2.52-4.65zm-1.82 3.78c-.5-.62-5.74-6.77-6.38-7.56.7-.48 2.4-1.82 3.07-2.26.52.76 3.35 5.44 3.94 6.28l-.62 3.55z"/></g><path fill="none" stroke="#709ec3" d="M1.63 10.5C.18 15.9 9.1 22.84 21.93 26.3c12.84 3.43 24.04 1.88 25.48-3.54 1.47-5.42-7.45-12.35-20.3-15.8C14.28 3.53 3.1 5.07 1.64 10.5z" opacity=".2"/><g transform="matrix(1.02 0 0 1.02 -.088 -7.992)" opacity=".5"><linearGradient id="G" x1="2.025" x2="46.227" y1="24.125" y2="24.125" gradientUnits="userSpaceOnUse"><stop offset="0" stop-color="#fff"/><stop offset=".129" stop-color="#A0C6DE"/><stop offset=".522" stop-color="#fff"/><stop offset=".848" stop-color="#A0C6DE"/><stop offset="1" stop-color="#fff"/></linearGradient><path fill="url(#al)" d="M2.17 18.24C.8 23.28 9.4 29.8 21.71 33.1c12.3 3.3 23.02 1.95 24.37-3.1 1.34-5.03-7.25-11.56-19.57-14.86-12.3-3.3-23.02-1.94-24.37 3.1zm24.1-2.13c11.38 3.06 20.02 9.3 18.85 13.65-1.16 4.35-11.76 5.44-23.14 2.4-11.38-3.05-20-9.3-18.85-13.65 1.17-4.35 11.76-5.44 23.14-2.4z"/></g><path fill="none" stroke="#709ec3" d="M3.6 11.02c-.06.2-.1.43-.1.66 0 3.7 7.35 9.52 18.96 12.64 12.33 3.3 22 1.55 22.98-2.1.98-3.62-6.53-9.98-18.86-13.28-12.33-3.3-22-1.56-22.98 2.08z" opacity=".2"/><g transform="matrix(1.02 0 0 1.02 -.088 -7.992)"><circle cx="36.985" cy="34.278" r="2.104" fill="none" stroke="#152a4c" stroke-width="1.47"/><radialGradient id="H" cx="81.7" cy="138.319" r="2.956" fx="81.7" fy="138.319" gradientTransform="matrix(0 -1 1 0 -101.816 115.209)" gradientUnits="userSpaceOnUse"><stop offset="0" stop-color="#fff"/><stop offset=".09" stop-color="#DBE8F2"/><stop offset=".248" stop-color="#A2C3DE"/><stop offset=".395" stop-color="#75A6CD"/><stop offset=".525" stop-color="#5591C2"/><stop offset=".634" stop-color="#4185BB"/><stop offset=".708" stop-color="#3A80B8"/><stop offset="1" stop-color="#244A87"/></radialGradient><circle cx="36.985" cy="34.278" r="2.104" fill="url(#am)"/><g><radialGradient id="I" cx="-34.035" cy="137.579" r="5.213" fx="-34.035" fy="137.579" gradientTransform="matrix(0 1 1 0 -101.816 66.555)" gradientUnits="userSpaceOnUse"><stop offset="0" stop-color="#fff"/><stop offset=".685" stop-color="#2E659E"/><stop offset="1" stop-color="#1D3E63"/></radialGradient><path fill="url(#an)" d="M34.88 34.28c0 .56.22 1.1.6 1.48.4.4.94.62 1.5.62.57 0 1.1-.22 1.5-.62.4-.4.6-.92.6-1.48 0-1.16-.93-2.1-2.1-2.1-1.16 0-2.1.94-2.1 2.1zm3.87 0c0 .47-.18.9-.5 1.25-.35.33-.8.52-1.26.52-.5 0-.93-.2-1.27-.52-.33-.34-.52-.78-.52-1.25 0-.98.8-1.77 1.78-1.77s1.77.8 1.77 1.78z"/></g></g><g transform="matrix(1.02 0 0 1.02 -.088 -7.992)"><circle cx="11.073" cy="13.818" r="2.104" fill="none" stroke="#152a4c" stroke-width="1.47"/><radialGradient id="J" cx="102.16" cy="112.407" r="2.956" fx="102.16" fy="112.407" gradientTransform="matrix(0 -1 1 0 -101.816 115.209)" gradientUnits="userSpaceOnUse"><stop offset="0" stop-color="#fff"/><stop offset=".09" stop-color="#DBE8F2"/><stop offset=".248" stop-color="#A2C3DE"/><stop offset=".395" stop-color="#75A6CD"/><stop offset=".525" stop-color="#5591C2"/><stop offset=".634" stop-color="#4185BB"/><stop offset=".708" stop-color="#3A80B8"/><stop offset="1" stop-color="#244A87"/></radialGradient><circle cx="11.073" cy="13.818" r="2.104" fill="url(#ao)"/><g><radialGradient id="K" cx="-54.495" cy="111.667" r="5.213" fx="-54.495" fy="111.667" gradientTransform="matrix(0 1 1 0 -101.816 66.555)" gradientUnits="userSpaceOnUse"><stop offset="0" stop-color="#fff"/><stop offset=".685" stop-color="#2E659E"/><stop offset="1" stop-color="#1D3E63"/></radialGradient><path fill="url(#ap)" d="M8.97 13.82c0 .56.2 1.1.6 1.48.4.4.94.62 1.5.62s1.1-.22 1.5-.62c.4-.4.6-.92.6-1.48 0-1.16-.94-2.1-2.1-2.1-1.16 0-2.1.94-2.1 2.1zm3.87 0c0 .47-.18.9-.52 1.25-.33.33-.78.52-1.25.52s-.92-.2-1.25-.53c-.33-.34-.52-.78-.52-1.25 0-.98.8-1.77 1.77-1.77.98 0 1.77.8 1.77 1.77z"/></g></g><g transform="matrix(1.02 0 0 1.02 -.088 -7.992)"><circle cx="7.321" cy="26.062" r="2.104" fill="none" stroke="#152a4c" stroke-width="1.47"/><radialGradient id="L" cx="89.917" cy="108.655" r="2.957" fx="89.917" fy="108.655" gradientTransform="matrix(0 -1 1 0 -101.816 115.209)" gradientUnits="userSpaceOnUse"><stop offset="0" stop-color="#fff"/><stop offset=".09" stop-color="#DBE8F2"/><stop offset=".248" stop-color="#A2C3DE"/><stop offset=".395" stop-color="#75A6CD"/><stop offset=".525" stop-color="#5591C2"/><stop offset=".634" stop-color="#4185BB"/><stop offset=".708" stop-color="#3A80B8"/><stop offset="1" stop-color="#244A87"/></radialGradient><circle cx="7.321" cy="26.062" r="2.104" fill="url(#aq)"/><g><radialGradient id="M" cx="-42.251" cy="107.915" r="5.213" fx="-42.251" fy="107.915" gradientTransform="matrix(0 1 1 0 -101.816 66.555)" gradientUnits="userSpaceOnUse"><stop offset="0" stop-color="#fff"/><stop offset=".685" stop-color="#2E659E"/><stop offset="1" stop-color="#1D3E63"/></radialGradient><path fill="url(#ar)" d="M5.2 26.06c0 .56.23 1.1.63 1.5.4.4.93.6 1.5.6.55 0 1.08-.2 1.48-.6.4-.4.63-.93.63-1.5 0-1.16-.95-2.1-2.1-2.1-1.17 0-2.12.94-2.12 2.1zm3.9 0c0 .48-.2.92-.53 1.25-.33.35-.78.53-1.25.53s-.92-.18-1.25-.52c-.34-.32-.52-.76-.52-1.24 0-.97.8-1.77 1.77-1.77s1.77.8 1.77 1.76z"/></g></g><g transform="matrix(1.02 0 0 1.02 -.088 -7.992)"><circle cx="40.321" cy="21.75" r="2.104" fill="none" stroke="#152a4c" stroke-width="1.47"/><radialGradient id="N" cx="94.228" cy="141.655" r="2.957" fx="94.228" fy="141.655" gradientTransform="matrix(0 -1 1 0 -101.816 115.209)" gradientUnits="userSpaceOnUse"><stop offset="0" stop-color="#fff"/><stop offset=".09" stop-color="#DBE8F2"/><stop offset=".248" stop-color="#A2C3DE"/><stop offset=".395" stop-color="#75A6CD"/><stop offset=".525" stop-color="#5591C2"/><stop offset=".634" stop-color="#4185BB"/><stop offset=".708" stop-color="#3A80B8"/><stop offset="1" stop-color="#244A87"/></radialGradient><circle cx="40.321" cy="21.75" r="2.104" fill="url(#as)"/><g><radialGradient id="O" cx="-46.563" cy="140.915" r="5.213" fx="-46.563" fy="140.915" gradientTransform="matrix(0 1 1 0 -101.816 66.555)" gradientUnits="userSpaceOnUse"><stop offset="0" stop-color="#fff"/><stop offset=".685" stop-color="#2E659E"/><stop offset="1" stop-color="#1D3E63"/></radialGradient><path fill="url(#at)" d="M38.22 21.75c0 .56.2 1.1.6 1.5.4.4.94.6 1.5.6s1.1-.22 1.5-.6c.4-.4.6-.94.6-1.5 0-1.16-.94-2.1-2.1-2.1-1.16 0-2.1.94-2.1 2.1zm3.87 0c0 .47-.2.92-.53 1.25-.33.34-.78.52-1.25.52s-.92-.18-1.25-.52c-.33-.34-.52-.78-.52-1.25 0-.98.8-1.77 1.77-1.77.98 0 1.77.8 1.77 1.77z"/></g></g></g></svg>