<svg xmlns="http://www.w3.org/2000/svg" width="48" height="48"><defs><linearGradient id="a" x1="362.336" x2="359.451" y1="46.517" y2=".278" gradientUnits="userSpaceOnUse"><stop offset=".028" stop-color="#fff"/><stop offset="1" stop-color="#94A1AF"/></linearGradient><linearGradient id="b" x1="339.46" x2="377.681" y1="20.356" y2="4.765" gradientUnits="userSpaceOnUse"><stop offset=".028" stop-color="#fff"/><stop offset="1" stop-color="#94A1AF"/></linearGradient><linearGradient id="c" x1="371.907" x2="337.374" y1="15.06" y2="40.373" gradientUnits="userSpaceOnUse"><stop offset=".028" stop-color="#fff"/><stop offset="1" stop-color="#94A1AF"/></linearGradient></defs><g><path fill="url(#a)" d="M362.45 45.5L342 32.92l18.85-9.87 20.1 9.1-18.5 13.33z" transform="matrix(1.022 0 0 1.022 -344.19 .699)"/><path fill="url(#b)" d="M360.85 23.06l-18.87 9.87-4.9-25.2L359.7.25l1.15 22.8z" transform="matrix(1.022 0 0 1.022 -344.19 .699)"/><path fill="url(#c)" d="M360.85 23.06l20.1 9.1 2.5-25.15L359.7.27l1.15 22.8z" transform="matrix(1.022 0 0 1.022 -344.19 .699)"/><g fill="none" stroke="#626973" stroke-width=".489"><path d="M5.25 34.35L.25 8.6 23.36.96l24.24 6.9-2.54 25.7-18.9 13.6-20.9-12.82z"/><path d="M2.1 18.2L23.8 9.5"/><path d="M3.77 26.7l20.4-9.47"/><path d="M5.25 34.35l19.28-10.1"/><path d="M23.37.97l1.16 23.3"/><path d="M45.06 33.57l-20.53-9.3"/><path d="M33.2 42.12L12.32 30.65"/><path d="M39.47 37.6L18.74 27.3"/><path d="M30.73 27.07l-19.27 11.1"/><path d="M37.56 30.17L18.4 42.42"/><path d="M16.4 3.26l2.5 23.95"/><path d="M8.86 5.75l3.47 24.9"/><path d="M38.55 5.3l-1 24.87"/><path d="M30.54 3l.2 24.07"/><path d="M23.8 9.52l22.86 7.92"/><path d="M45.82 25.95l-21.64-8.72"/></g><path fill="#ed2728" stroke="#fff" d="M28.05 9.32h5.1v5.1h-5.1z"/></g></svg>