<svg xmlns="http://www.w3.org/2000/svg" width="48" height="48" xmlns:xlink="http://www.w3.org/1999/xlink"><defs><radialGradient id="a" cx="17.95" cy="175.731" r="12.523" gradientUnits="userSpaceOnUse" fy="175.731" fx="17.95"><stop offset="0" stop-color="#fff"/><stop offset="1" stop-color="#F5D9D9"/></radialGradient><radialGradient id="b" cx="22.811" cy="169.34" r="14.467" gradientUnits="userSpaceOnUse" fy="169.34" fx="22.811"><stop offset="0" stop-color="#fff"/><stop offset="1" stop-color="#F5D9D9"/></radialGradient><radialGradient id="c" cx="20.141" cy="171.534" r="10.533" gradientUnits="userSpaceOnUse" fy="171.534" fx="20.141"><stop offset="0" stop-color="#fff"/><stop offset="1" stop-color="#F5D9D9"/></radialGradient><radialGradient id="d" cx="18.676" cy="170.998" r="12.647" gradientUnits="userSpaceOnUse" fy="170.998" fx="18.676"><stop offset="0" stop-color="#fff"/><stop offset="1" stop-color="#F5D9D9"/></radialGradient><radialGradient id="e" cx="12.774" cy="172.564" r="9.904" gradientUnits="userSpaceOnUse" fy="172.564" fx="12.774"><stop offset="0" stop-color="#fff"/><stop offset="1" stop-color="#F5D9D9"/></radialGradient><radialGradient id="f" cx="21.608" cy="172.17" r="3.835" gradientUnits="userSpaceOnUse" fy="172.17" fx="21.608"><stop offset="0" stop-color="#fff"/><stop offset="1" stop-color="#F5D9D9"/></radialGradient><radialGradient id="g" cx="20.26" cy="172.94" r="6.674" gradientUnits="userSpaceOnUse" fy="172.94" fx="20.26"><stop offset="0" stop-color="#fff"/><stop offset="1" stop-color="#F5D9D9"/></radialGradient><radialGradient id="h" cx="19.875" cy="178.137" r="6.273" gradientUnits="userSpaceOnUse" fy="178.137" fx="19.875"><stop offset="0" stop-color="#fff"/><stop offset="1" stop-color="#F5D9D9"/></radialGradient><radialGradient id="i" cx="8.127" cy="179.328" r="6.328" gradientUnits="userSpaceOnUse" fy="179.328" fx="8.127"><stop offset=".006" stop-color="#F5CDCD"/><stop offset="1" stop-color="#F4B1B3"/></radialGradient><radialGradient id="j" cx="21.108" cy="170.255" r="11.345" gradientUnits="userSpaceOnUse" fy="170.255" fx="21.108"><stop offset=".006" stop-color="#F5CDCD"/><stop offset="1" stop-color="#F4B1B3"/></radialGradient><linearGradient id="k" x1="30.721" x2="30.361" y1="191.532" y2="189.013" gradientUnits="userSpaceOnUse"><stop offset="0" stop-color="#F79899"/><stop offset=".285" stop-color="#F29596"/><stop offset=".596" stop-color="#E08B8B"/><stop offset=".918" stop-color="#C77B7C"/><stop offset="1" stop-color="#BF7777"/></linearGradient><linearGradient id="l" x1="25.98" x2="27.6" y1="195.272" y2="191.762" gradientUnits="userSpaceOnUse"><stop offset="0" stop-color="#F79899"/><stop offset=".387" stop-color="#F29596"/><stop offset=".809" stop-color="#E28C8C"/><stop offset="1" stop-color="#D88686"/></linearGradient><linearGradient id="m" x1="6.26" x2="15.438" y1="165.928" y2="170.234" gradientUnits="userSpaceOnUse"><stop offset="0" stop-color="#F79899"/><stop offset=".387" stop-color="#F29596"/><stop offset=".809" stop-color="#E28C8C"/><stop offset="1" stop-color="#D88686"/></linearGradient><radialGradient id="n" cx="20.836" cy="192.154" r="25.122" gradientUnits="userSpaceOnUse" fy="192.154" fx="20.836"><stop offset="0" stop-opacity=".804"/><stop offset="1" stop-opacity="0"/></radialGradient><radialGradient cx="17.95" cy="175.731" r="12.523" xlink:href="#a" gradientUnits="userSpaceOnUse" fx="17.95" fy="175.731" gradientTransform="matrix(1.034 0 0 1.034 -2.345 -159.91)"/><radialGradient cx="22.811" cy="169.34" r="14.467" xlink:href="#b" gradientUnits="userSpaceOnUse" fx="22.811" fy="169.34" gradientTransform="matrix(1.034 0 0 1.034 -2.345 -159.91)"/><radialGradient cx="20.141" cy="171.534" r="10.533" xlink:href="#c" gradientUnits="userSpaceOnUse" fx="20.141" fy="171.534" gradientTransform="matrix(1.034 0 0 1.034 -2.345 -159.91)"/><radialGradient cx="18.676" cy="170.998" r="12.647" xlink:href="#d" gradientUnits="userSpaceOnUse" fx="18.676" fy="170.998" gradientTransform="matrix(1.034 0 0 1.034 -2.345 -159.91)"/><radialGradient cx="12.774" cy="172.564" r="9.904" xlink:href="#e" gradientUnits="userSpaceOnUse" fx="12.774" fy="172.564" gradientTransform="matrix(1.034 0 0 1.034 -2.345 -159.91)"/><radialGradient cx="21.608" cy="172.17" r="3.835" xlink:href="#f" gradientUnits="userSpaceOnUse" fx="21.608" fy="172.17" gradientTransform="matrix(1.034 0 0 1.034 -2.345 -159.91)"/><radialGradient cx="20.26" cy="172.94" r="6.674" xlink:href="#g" gradientUnits="userSpaceOnUse" fx="20.26" fy="172.94" gradientTransform="matrix(1.034 0 0 1.034 -2.345 -159.91)"/><radialGradient cx="19.875" cy="178.137" r="6.273" xlink:href="#h" gradientUnits="userSpaceOnUse" fx="19.875" fy="178.137" gradientTransform="matrix(1.034 0 0 1.034 -2.345 -159.91)"/><radialGradient cx="8.127" cy="179.328" r="6.328" xlink:href="#i" gradientUnits="userSpaceOnUse" fx="8.127" fy="179.328" gradientTransform="matrix(1.034 0 0 1.034 -2.345 -159.91)"/><radialGradient cx="21.108" cy="170.255" r="11.345" xlink:href="#j" gradientUnits="userSpaceOnUse" fx="21.108" fy="170.255" gradientTransform="matrix(1.034 0 0 1.034 -2.345 -159.91)"/><linearGradient x1="30.721" x2="30.361" y1="191.532" y2="189.013" xlink:href="#k" gradientUnits="userSpaceOnUse" gradientTransform="matrix(1.034 0 0 1.034 -2.345 -159.91)"/><linearGradient x1="25.98" x2="27.6" y1="195.272" y2="191.762" xlink:href="#l" gradientUnits="userSpaceOnUse" gradientTransform="matrix(1.034 0 0 1.034 -2.345 -159.91)"/><linearGradient x1="6.26" x2="15.438" y1="165.928" y2="170.234" xlink:href="#m" gradientUnits="userSpaceOnUse" gradientTransform="matrix(1.034 0 0 1.034 -2.345 -159.91)"/><radialGradient cx="26.126" cy="32.449" r="22.073" xlink:href="#n" fx="26.126" fy="32.449" gradientTransform="matrix(1 0 0 .62 0 12.318)" gradientUnits="userSpaceOnUse"/><linearGradient id="r" x1="25.197" x2="25.197" y1="190.424" y2="169.442" gradientUnits="userSpaceOnUse" gradientTransform="translate(-.345 -157.279)"><stop offset=".124" stop-color="#fff"/><stop offset=".205" stop-color="#FBF6B8"/><stop offset=".303" stop-color="#F8ED6C"/><stop offset=".348" stop-color="#F6E94F"/><stop offset=".607" stop-color="#FAAF3E"/><stop offset="1" stop-color="#F17912"/></linearGradient><linearGradient id="q" x1="24.223" x2="24.223" y1="201.565" y2="176.179" gradientUnits="userSpaceOnUse" gradientTransform="translate(-.345 -157.279)"><stop offset=".124" stop-color="#fff"/><stop offset=".205" stop-color="#FBF6B8"/><stop offset=".303" stop-color="#F8ED6C"/><stop offset=".348" stop-color="#F6E94F"/><stop offset=".607" stop-color="#FAAF3E"/><stop offset="1" stop-color="#F17912"/></linearGradient><linearGradient id="p" x1="23.875" x2="23.875" y1="199.295" y2="156.129" gradientUnits="userSpaceOnUse" gradientTransform="translate(-.345 -157.279)"><stop offset="0" stop-color="#EBD30F"/><stop offset=".393" stop-color="#E96712"/><stop offset=".786" stop-color="#D4290C"/><stop offset="1" stop-color="#CB1009"/></linearGradient><linearGradient id="o" x1="23.775" x2="23.775" y1="202.3" y2="158.049" gradientUnits="userSpaceOnUse" gradientTransform="translate(.226 -156.565)"><stop offset="0" stop-color="#E96712"/><stop offset=".648" stop-color="#D4290C"/><stop offset="1" stop-color="#CB1009"/></linearGradient><linearGradient x1="23.775" x2="23.775" y1="202.3" y2="158.049" gradientTransform="translate(-.345 -157.279)" gradientUnits="userSpaceOnUse" xlink:href="#o"/><radialGradient cx="26.126" cy="32.449" r="22.073" xlink:href="#n" gradientUnits="userSpaceOnUse" gradientTransform="matrix(1 0 0 .62 0 12.318)" fx="26.126" fy="32.449"/><linearGradient x1="6.26" x2="15.438" y1="165.928" y2="170.234" xlink:href="#m" gradientUnits="userSpaceOnUse" gradientTransform="matrix(1.034 0 0 1.034 -2.345 -159.91)"/><linearGradient x1="25.98" x2="27.6" y1="195.272" y2="191.762" xlink:href="#l" gradientUnits="userSpaceOnUse" gradientTransform="matrix(1.034 0 0 1.034 -2.345 -159.91)"/><linearGradient x1="30.721" x2="30.361" y1="191.532" y2="189.013" xlink:href="#k" gradientUnits="userSpaceOnUse" gradientTransform="matrix(1.034 0 0 1.034 -2.345 -159.91)"/><radialGradient cx="21.108" cy="170.255" r="11.345" xlink:href="#j" gradientUnits="userSpaceOnUse" gradientTransform="matrix(1.034 0 0 1.034 -2.345 -159.91)" fx="21.108" fy="170.255"/><radialGradient cx="8.127" cy="179.328" r="6.328" xlink:href="#i" gradientUnits="userSpaceOnUse" gradientTransform="matrix(1.034 0 0 1.034 -2.345 -159.91)" fx="8.127" fy="179.328"/><radialGradient cx="19.875" cy="178.137" r="6.273" xlink:href="#h" gradientUnits="userSpaceOnUse" gradientTransform="matrix(1.034 0 0 1.034 -2.345 -159.91)" fx="19.875" fy="178.137"/><radialGradient cx="20.26" cy="172.94" r="6.674" xlink:href="#g" gradientUnits="userSpaceOnUse" gradientTransform="matrix(1.034 0 0 1.034 -2.345 -159.91)" fx="20.26" fy="172.94"/><radialGradient cx="21.608" cy="172.17" r="3.835" xlink:href="#f" gradientUnits="userSpaceOnUse" gradientTransform="matrix(1.034 0 0 1.034 -2.345 -159.91)" fx="21.608" fy="172.17"/><radialGradient cx="12.774" cy="172.564" r="9.904" xlink:href="#e" gradientUnits="userSpaceOnUse" gradientTransform="matrix(1.034 0 0 1.034 -2.345 -159.91)" fx="12.774" fy="172.564"/><radialGradient cx="18.676" cy="170.998" r="12.647" xlink:href="#d" gradientUnits="userSpaceOnUse" gradientTransform="matrix(1.034 0 0 1.034 -2.345 -159.91)" fx="18.676" fy="170.998"/><radialGradient cx="20.141" cy="171.534" r="10.533" xlink:href="#c" gradientUnits="userSpaceOnUse" gradientTransform="matrix(1.034 0 0 1.034 -2.345 -159.91)" fx="20.141" fy="171.534"/><radialGradient cx="22.811" cy="169.34" r="14.467" xlink:href="#b" gradientUnits="userSpaceOnUse" gradientTransform="matrix(1.034 0 0 1.034 -2.345 -159.91)" fx="22.811" fy="169.34"/><radialGradient cx="17.95" cy="175.731" r="12.523" xlink:href="#a" gradientUnits="userSpaceOnUse" gradientTransform="matrix(1.034 0 0 1.034 -2.345 -159.91)" fx="17.95" fy="175.731"/><linearGradient id="s" x1="23.775" x2="23.775" y1="202.3" y2="158.049" xlink:href="#o" gradientUnits="userSpaceOnUse" gradientTransform="translate(-.345 -157.279)"/><linearGradient id="t" x1="23.875" x2="23.875" y1="199.295" y2="156.129" xlink:href="#p" gradientUnits="userSpaceOnUse" gradientTransform="translate(-.345 -157.279)"/><linearGradient id="u" x1="24.223" x2="24.223" y1="201.565" y2="176.179" xlink:href="#q" gradientUnits="userSpaceOnUse" gradientTransform="translate(-.345 -157.279)"/><linearGradient id="v" x1="25.197" x2="25.197" y1="190.424" y2="169.442" xlink:href="#r" gradientUnits="userSpaceOnUse" gradientTransform="translate(-.345 -157.279)"/><radialGradient cx="17.95" cy="175.731" r="12.523" xlink:href="#a" gradientUnits="userSpaceOnUse" gradientTransform="matrix(.77 0 0 .77 4.534 -102.287)" fx="17.95" fy="175.731"/><radialGradient cx="22.811" cy="169.34" r="14.467" xlink:href="#b" gradientUnits="userSpaceOnUse" gradientTransform="matrix(.77 0 0 .77 4.534 -102.287)" fx="22.811" fy="169.34"/><radialGradient cx="20.141" cy="171.534" r="10.533" xlink:href="#c" gradientUnits="userSpaceOnUse" gradientTransform="matrix(.77 0 0 .77 4.534 -102.287)" fx="20.141" fy="171.534"/><radialGradient cx="18.676" cy="170.998" r="12.647" xlink:href="#d" gradientUnits="userSpaceOnUse" gradientTransform="matrix(.77 0 0 .77 4.534 -102.287)" fx="18.676" fy="170.998"/><radialGradient cx="12.774" cy="172.564" r="9.904" xlink:href="#e" gradientUnits="userSpaceOnUse" gradientTransform="matrix(.77 0 0 .77 4.534 -102.287)" fx="12.774" fy="172.564"/><radialGradient cx="21.608" cy="172.17" r="3.835" xlink:href="#f" gradientUnits="userSpaceOnUse" gradientTransform="matrix(.77 0 0 .77 4.534 -102.287)" fx="21.608" fy="172.17"/><radialGradient cx="20.26" cy="172.94" r="6.674" xlink:href="#g" gradientUnits="userSpaceOnUse" gradientTransform="matrix(.77 0 0 .77 4.534 -102.287)" fx="20.26" fy="172.94"/><radialGradient cx="19.875" cy="178.137" r="6.273" xlink:href="#h" gradientUnits="userSpaceOnUse" gradientTransform="matrix(.77 0 0 .77 4.534 -102.287)" fx="19.875" fy="178.137"/><radialGradient cx="8.127" cy="179.328" r="6.328" xlink:href="#i" gradientUnits="userSpaceOnUse" gradientTransform="matrix(.77 0 0 .77 4.534 -102.287)" fx="8.127" fy="179.328"/><radialGradient cx="21.108" cy="170.255" r="11.345" xlink:href="#j" gradientUnits="userSpaceOnUse" gradientTransform="matrix(.77 0 0 .77 4.534 -102.287)" fx="21.108" fy="170.255"/><linearGradient x1="30.721" x2="30.361" y1="191.532" y2="189.013" xlink:href="#k" gradientUnits="userSpaceOnUse" gradientTransform="matrix(.77 0 0 .77 4.534 -102.287)"/><linearGradient x1="25.98" x2="27.6" y1="195.272" y2="191.762" xlink:href="#l" gradientUnits="userSpaceOnUse" gradientTransform="matrix(.77 0 0 .77 4.534 -102.287)"/><linearGradient x1="6.26" x2="15.438" y1="165.928" y2="170.234" xlink:href="#m" gradientUnits="userSpaceOnUse" gradientTransform="matrix(.77 0 0 .77 4.534 -102.287)"/><radialGradient id="w" cx="26.126" cy="32.449" r="22.073" xlink:href="#n" gradientUnits="userSpaceOnUse" gradientTransform="matrix(.81 0 0 .366 4.591 28.378)" fx="26.126" fy="32.449"/><linearGradient id="x" x1="6.26" x2="15.438" y1="165.928" y2="170.234" xlink:href="#m" gradientUnits="userSpaceOnUse" gradientTransform="matrix(.77 0 0 .77 4.534 -102.287)"/><linearGradient id="y" x1="25.98" x2="27.6" y1="195.272" y2="191.762" xlink:href="#l" gradientUnits="userSpaceOnUse" gradientTransform="matrix(.77 0 0 .77 4.534 -102.287)"/><linearGradient id="z" x1="30.721" x2="30.361" y1="191.532" y2="189.013" xlink:href="#k" gradientUnits="userSpaceOnUse" gradientTransform="matrix(.77 0 0 .77 4.534 -102.287)"/><radialGradient id="A" cx="21.108" cy="170.255" r="11.345" xlink:href="#j" gradientUnits="userSpaceOnUse" gradientTransform="matrix(.77 0 0 .77 4.534 -102.287)" fx="21.108" fy="170.255"/><radialGradient id="B" cx="8.127" cy="179.328" r="6.328" xlink:href="#i" gradientUnits="userSpaceOnUse" gradientTransform="matrix(.77 0 0 .77 4.534 -102.287)" fx="8.127" fy="179.328"/><radialGradient id="C" cx="19.875" cy="178.137" r="6.273" xlink:href="#h" gradientUnits="userSpaceOnUse" gradientTransform="matrix(.77 0 0 .77 4.534 -102.287)" fx="19.875" fy="178.137"/><radialGradient id="D" cx="20.26" cy="172.94" r="6.674" xlink:href="#g" gradientUnits="userSpaceOnUse" gradientTransform="matrix(.77 0 0 .77 4.534 -102.287)" fx="20.26" fy="172.94"/><radialGradient id="E" cx="21.608" cy="172.17" r="3.835" xlink:href="#f" gradientUnits="userSpaceOnUse" gradientTransform="matrix(.77 0 0 .77 4.534 -102.287)" fx="21.608" fy="172.17"/><radialGradient id="F" cx="12.774" cy="172.564" r="9.904" xlink:href="#e" gradientUnits="userSpaceOnUse" gradientTransform="matrix(.77 0 0 .77 4.534 -102.287)" fx="12.774" fy="172.564"/><radialGradient id="G" cx="18.676" cy="170.998" r="12.647" xlink:href="#d" gradientUnits="userSpaceOnUse" gradientTransform="matrix(.77 0 0 .77 4.534 -102.287)" fx="18.676" fy="170.998"/><radialGradient id="H" cx="20.141" cy="171.534" r="10.533" xlink:href="#c" gradientUnits="userSpaceOnUse" gradientTransform="matrix(.77 0 0 .77 4.534 -102.287)" fx="20.141" fy="171.534"/><radialGradient id="I" cx="22.811" cy="169.34" r="14.467" xlink:href="#b" gradientUnits="userSpaceOnUse" gradientTransform="matrix(.77 0 0 .77 4.534 -102.287)" fx="22.811" fy="169.34"/><radialGradient id="J" cx="17.95" cy="175.731" r="12.523" xlink:href="#a" gradientUnits="userSpaceOnUse" gradientTransform="matrix(.77 0 0 .77 4.534 -102.287)" fx="17.95" fy="175.731"/></defs><g><g><path fill="url(#s)" stroke="#99140d" stroke-width="1.138" d="M23.43 45.53c-5.97 0-16.88-3.66-16.88-15.5 0-1.2.1-2.56.34-4.02-.2 1.4 3.52 5.86 3.52 3.65 0-1.62-2.5-5.77-2.5-8.2 0-4.65 2.57-5.55 4.78-8.72-.7 2.34-1.62 5.66 1.2 7.7 0 0 3.47 0 3.9-6.66.44-6.66-4.06-6.75-4.06-13.58 1.55 4.5 12.6 6.3 16.3 14.78 0-1.2-.15-5.84-2.7-8.4 3.13 1.14 6.23 3.52 9 8.93 1.7 3.3.7 7.94 2.04 9.86.77-.78.6-3.1.95-4.18.6 2.3.97 6.28.97 8.84 0 11.85-10.33 15.5-16.87 15.5z" transform="matrix(1.149 0 0 .672 -2.698 .663)"/><path fill="url(#t)" d="M20.83 12.9c0 .34 0 .7-.03 1.07-.6 9.36-6.63 9.46-6.9 9.46h-.96l-.78-.56c-.48-.34-.83-.72-1.18-1.1.13.86.73 2.36 1.16 3.42.72 1.75 1.28 3.14 1.28 4.45 0 2.06-1.27 2.95-1.82 3.23-.3.16-.9.38-1.66.35 1.84 7.53 10.07 11.05 13.5 11.05.55 0 11.96.1 13.4-10.6.5-3.54.2-4.9.1-5.48-.23.48-.43 1.25-1.03 1.85-1.4-1.68-1.23-6.55-1.38-8.63-.12-1.66-.24-3.37-.85-4.54-.34-.66-.68-1.27-1.02-1.8 0 3.18-1.7 4.73-3 7.6-.72-5.95-6.56-11.8-9.42-13.6.35 1.1.6 2.3.6 3.82z" transform="matrix(1.149 0 0 .672 -2.698 .663)"/><path fill="url(#u)" d="M30.8 40.58c-.52.65-.54-.86-.16-2.84-2.48 2.48-1.65 4.98-4 6.06-4.25 1.25 1.43-4.82-1.45-8.58 0 3.18-2.98 9.4-3.97 8.9-.52-.1-1.03-.22-1.3-.43-1.5-.72-1.56-3.93-2.52-5.27 0 1.1-.25 2.62-.6 2.23-1.36-1.64-2.34-3.63-2.34-5.78 0-5.5 3.4-8.74 1.7-11.87 1.44.68 5 5 5 6.2 1.1-2.3-.23-3.47-.66-5.34-.4-1.8.1-3.15.92-5.27.18 6.45 5.85 8.9 5.85 12.2.68-.67 2.55-2.28 1.95-5.25-.34-1.78-.8-3.52 0-4.33 0 2.12 3.22 4.2 3.9 8.4.23 1.4.2 4.25.1 5.43-.18 2.06-1.14 3.96-2.4 5.53z" transform="matrix(1.149 0 0 .672 -2.698 .663)"/><path fill="url(#v)" d="M27.1 26.82c-1.12-3.58-4.8-6.77-4.8-9.1 0-1.43.4-2.72 1-4.46 1.22 5.97 3.5 7.2 4 10.2.2 1.25.04 2.42-.2 3.36z" transform="matrix(1.149 0 0 .672 -2.698 .663)"/></g><path fill="url(#w)" d="M10.98 38.95c-.66.05-1.36.68-1.7 1.07-.15.16-.44.35-.52.54-.1.25.1.5.1.75-1 .2-1.2 1.3-.8 1.9.16.24.23.33.33.56.13.3.28.56.57.83.3.27.48.3.92.45.58.2.78.55 1.26.82.85.47 2.34.6 3.38.5.43-.03.97-.3 1.35-.26.64.07.28.5.53.78.28.32 1.16.47 1.62.6.4.1.8.2 1.17.3.4.13.8.36 1.22.42.77.1 1.7.03 2.5.03 1 0 2.42.28 3.35 0 .6-.16 1.1-.4 1.78-.48.67-.07 1.14.05 1.78.13 1.45.18 2.64-.25 3.9-.64.76-.24 1.48-.53 2.25-.77.92-.28 1.9-.47 2.67-.95.58-.35 1.33-.87 1.72-1.34.5-.6 1.16-1.18 1.47-1.86.37-.85.97-1.55 1.03-2.47.04-.48-.03-.76.3-1.17.42-.53.56-1.03.28-1.65-.3-.7-1.13-1.32-1.92-1.74-.56-.3-1.26-.44-1.9-.63-.7-.22-1.06-.48-1.65-.8-.6-.32-1.32-.3-2.04-.4-.97-.1-1.9-.45-2.85-.62-2.62-.45-5.25-.72-7.95-.66-1.22 0-2.34.03-3.47.4-1.16.37-2.3.8-3.47 1.17-1.4.46-2 1.02-2.95 1.8-.6.5-1.24.95-1.82 1.47-.56.5-2.15 1.1-2.28 1.8"/><g><path fill="#f79899" stroke="#f57e80" stroke-width=".5" d="M21.7 21.56c.65-.42 1.52-.4 1.65-.57.14-.17.88-1.12 1.1-1.3.2-.18 1.06-.08 1.34-.24.26-.15.38-.6.62-.65.24-.05 1.27.2 1.7.1.44-.07.24-.23.48-.3.24-.05 2.1.1 2.47.17.38.08.97.38 1.17.38.2 0 .55 0 .9.1.37.1 2.74 1.26 3.14 1.48.4.22 1.36 1.3 1.74 1.72.44.14 1.3.54 1.52.67.24.14 1.17 1.1 1.3 1.45.15.34.1.75.25 1.05.15.3.25.5.3.73.03.24.03 1.23.12 1.45.1.2.28.63.28 1.3s-.22 1.68-.3 2.22c-.1.53-.57 1.42-.57 1.62 0 .2-.06.48-.18.63-.12.16-.16-.02-.27.44-.12.46-.54 1.06-.56 1.2-.02.14-.04.33-.12.43-.08.1-.37.1-.37.28 0 .2.27.38.3.52.05.14.1.36.07.5-.04.14-.6 1-.87 1.46-.27.46-1 1.3-1.03 1.5-.04.2.08.3.08.6s.04 1.13-.06 1.4c-.1.24-1.92 2.24-2.27 2.34-.36.1-2.32-.28-2.7-.2-.37.08-1.76.5-2.25.85-.5.36-1.3.84-1.64.88-.34.04-.95 0-1.13-.06-.36-.1-.54-.25-.97-.63-.44-.37-.9-.8-1.05-.9-.15-.1-.43-.74-.72-.84-.3-.1-1.4-.4-1.7-.53-.28-.12-.5-.3-.5-.3-.92.15-2.1.17-2.74.08-.65-.08-1.62-.74-1.78-.7-.15 0-.7-.08-1.68-.37-.96-.28-1.8-.62-2.1-1.14-.32-.5-.37-1.1-.4-1.28 0-.18-.2-.6-.06-1.64.05-.27-.18-.6-.18-1s-.08-1.22.32-2.54c1-3.32 1.6-3.7 1.64-4.04.02-.34-.05-.63.6-2.47.65-1.85 1.17-1.45 1.46-1.9.3-.44.8-1.4 1.3-2 .52-.58 1.1-.67 1.37-.96.27-.3.46-.66.96-.98z"/><path fill="url(#x)" stroke="#f57e80" stroke-width=".5" d="M14.85 41.6c-.07-.08-.13-.16-.18-.24-.3-.5-.36-1.1-.38-1.27-.03-.2-.2-.62-.08-1.65.05-.27-.18-.6-.18-1 0-.42-.08-1.23.32-2.55 1-3.32 1.6-3.7 1.63-4.04.02-.34-.05-.63.6-2.47.65-1.85 1.17-1.44 1.46-1.9.3-.44.8-1.4 1.3-2 .52-.57 1.1-.66 1.37-.96.27-.3.46-.66.96-.98.65-.42 1.52-.4 1.65-.57.14-.17.88-1.12 1.1-1.3.2-.18 1.06-.08 1.34-.24.26-.15.38-.6.62-.65.24-.05 1.27.2 1.7.1h-.02c-.38-.02-.62-.1-.8-.25-.17-.2-.1-.3-1.8-.65-1.7-.34-3.67-.55-6.25.43-2.58 1-2.62 1.4-2.9 1.54-.27.16-2.3 1.2-2.8 1.66-.5.46-.73.6-.9.8-.14.22-.23.56-.5.74-.28.2-1.85 1.72-2.35 2.5-.5.76-.64 1.16-.86 1.5-.2.34-1 1.23-1.44 2.03-.44.8-.87 1.94-.87 2.25 0 .3.4.98.4 1.17 0 .18-.52.58-.55.83-.03.25.06.92.12 1.45.06.52.03.86.16 1.1.12.25.46.37.52.6.06.2.25.73.55 1 .3.28.6.37.9.68.3.3.9.83 1.32.95.43.13 1.1 0 1.38.2.28.17 1.24 1.13 1.7 1.28.46.17 1.44-.08 1.72-.1z" transform="translate(0 -1)"/><path fill="#f57e80" stroke="#cb696b" stroke-width=".5" d="M27.93 45.7c-.36-.1-.54-.25-.97-.63-.44-.37-.9-.8-1.05-.9-.15-.08-.43-.74-.72-.84-.25-.08-1.05-.3-1.48-.46"/><path fill="url(#y)" stroke="#994f51" stroke-width=".5" d="M23.7 43.87c.13.46.72 1.37 1.4 1.87.68.5.3.8.44.97.13.18.22.27.63.34.42.06.68.37 1.06.37.37 0 .6-.17.63-.4.05-.25.06-.3.06-.3" transform="translate(0 -1)"/><path fill="none" stroke="#d96f71" stroke-width=".5" d="M22.98 42.5c.6-.1 1.2-.22 1.83-.33.64-.1 2.2-.04 3.77-.77.7-.33 1.44-1.3 3.08-2.13.63-.3 2.32-1.7 2.94-2 .6-.3 1.97-1.06 2.3-1.3.32-.24.73-1.04 1.07-1.48.33-.44 2.33-1.26 2.5-1.3.14-.02.1.3.1.55"/><path fill="none" stroke="#d96f71" stroke-width=".5" d="M32.14 19.15c.2.1.7.35 1.38.82.67.46 1.8 1.5 1.9 1.64.1.14 1 2.1 1.43 2.78.44.67 1.94 3.14 2.03 3.4.1.25.28 1 .3 1.3.04.33-.1 1.83-.18 2.13-.08.32-.48 1.4-.6 1.74-.14.33-.43 1.32-.57 1.55"/><path fill="#f57e80" d="M24.98 35.92c-.34-.17-1.55-2.7-2.36-3.46-.8-.74-1.42-1.5-3.64-1.87-2.22-.4-2.27-.36-2.57-.53-.3-.18-.4-.2-.42-.12-.02.1-.1.3-.17.35-.04.18.15.05.47.08.3.04 1.12.46 1.64.56.54.1 2.3.38 2.77.66.46.3 1.94 1.27 2.35 1.8.4.55.76 1.38.9 1.6.15.25.54.82.73.9.2.05.56.13.33.02z"/><path fill="#e47678" d="M19.06 26.5c.34-.3 3.37-.65 4.18.26.8.9 1.36 2.8 1.9 3.78.53.98.87 1.84 1.55 2.7.67.84 1.23 1.54 1.2 2.04 0 .5-.74 2.44-.78 2.7-.04.23-.43.46-.56.36-.12-.1-1.9-1.06-2.42-1.06-.5 0-2.2.17-2.56-.04-.37-.2-1.55-.87-1.84-1.28-.3-.4-.3-1.03-1.22-.95-.93.1-2.58.42-2.9.57-.3.14-.5-.15-.22-.3.27-.14 2.38-.36 2.7-.53.3-.17 1.1-.23 1.23-.08.12.14.37 1 .68 1.24.32.25 1.02.7 1.72.85.7.14 1.97.08 2.36.14.4.05 2.1.92 2.38.9.27-.02 1.22-2.02 1.14-2.5-.1-.48-1.4-2.1-2-3.18-1.17-2.13-1.83-4.24-2.1-4.55-.26-.3-.5-.9-1.63-1-1.1-.12-2.3.03-2.65.2-.33.16-.4-.1-.16-.28z"/><path fill="#e47678" d="M23.02 21.1c.5.03 1.18.44 1.6.63.4.18 1.06.6 1.38.9.33.34.23.52.07.72-.17.2-.26.64-.56.88-.3.24-1.25.85-1.55 1.27-.3.4-.55 1.17-.93 1.1.17.07.35.36.35.36.02-.32.46-.92.72-1.1.26-.17.93-.98 1.1-1.17.16-.2.6-.47.66-.62.07-.15.23-.62.5-.85.26-.22.3-.3-.13-.66-.43-.35-1-.82-1.3-.9-.32-.1-.9-.4-1.15-.56-.27-.16-.23-.28-.2-.37-.12.17-.27.4-.56.37z"/><path fill="#e47678" d="M17.9 25.7c.47-.24.95-.48 1.2-.55.27-.08 1.12-.34 1.32-.5.2-.14.75-.4.98-.4.22-.02.8.28 1.1.27.28-.02.48-.3.3-.3-.17 0-.26.12-.57.05-.32-.08-.63-.17-.5-.2.12-.04.6-.23.7-.35.1-.1.5-.45.5-.56-.2.16-.4.4-.56.48-.17.07-.87.24-1.05.34-.17.1-1 .6-1.23.65-.24.05-.95.34-1.14.42-.2.07-.47.33-.53.25-.06-.1-.04-.33-.04-.33-.12.25-.5.72-.5.72z"/><path fill="#e47678" d="M14.23 37.28c.14.23.3.5.48.58.2.08 1.7.68 2.24.76.55.07 1.72.34 1.88.45.16.12.93 1.1.87 1.18-.07.08-.34-.15-.5-.32-.18-.17-.36-.5-.65-.6-.28-.14-2.13-.5-2.64-.72-.5-.2-1.28-.57-1.37-.64-.1-.08-.33-.62-.33-.34 0-.16.03-.34.03-.34z"/><path fill="#f57e80" d="M27.03 26.8c-.1-.1-.25-.18-.54-.04-.3.14-.25.45-.16.6.1.13 1.25 2.4 1.25 2.87 0 .47-.47 1.63-.7 1.96-.26.32-.1.53-.1.56.02.04.3-.54.43-.67.1-.14.6-1.1.6-1.27 0-.17-.1-.97-.18-1.24-.1-.28-.92-1.8-.97-2.16-.05-.36 0-.4.1-.4.07 0 .26-.05.26-.1s0-.14 0-.14z"/><path fill="#e47678" d="M28.38 30.02c.24-.37.85-1.6.9-1.73.03-.12.15-1.65.3-1.77.13-.1.4.05.72.23.32.18 1.3.66 1.54.73.24.05 1.46.4 1.67.47.23.07.38.36.47.5.1.1.6 1.12.7 1.26.07.14.18.42.03.52-.16.1-.32.3-.46.36s-.52.55-.83.53c-.3 0-.8 0-1.1-.3-.27-.3-.85-.27-.85-.5 0-.23-.1-.32-.18-.3-.08.03-.37.4-.2.58.2.18 1 .5 1.26.67.25.17.24.3.23.4-.02.1.14.32.28.16.14-.15.14-.26.05-.4-.1-.14-.37-.14-.33-.23.04-.1.43.1.7.1.27 0 .47-.28.64-.34.17-.07.63-.1.82-.35.2-.23.33-.37.3-.58-.04-.2-.46-.96-.8-1.47-.35-.5-.57-.64-.57-.85 0-.2.04-.52-.14-.76-.17-.24-.2-.4-.17-.53.03-.14.07-.42 0-.5-.1-.1-.3-.1-.3-.02-.04.1 0 .5.1.6.08.14.34.64.34.9 0 .25.05.38-.05.38s-.74-.23-1.17-.4c-.43-.17-1.66-.66-1.88-.76-.23-.1-.6-.22-.58-.45 0-.23.35-.84.72-1.08.37-.24.44-.98.44-1.34 0-.36-.23-.82-.8-1.17-.57-.36-1.9-1.23-2.33-1.5-.42-.3-.6-.4-.7-.53-.12-.13-.2-.28-.4-.24-.2.03.05.28.2.37.13.1 1.84 1.24 2.33 1.56.48.3 1.22.8 1.27 1.2.05.4.08 1-.2 1.33-.28.35-.8.9-.9 1.28-.1.38-.38 1.45-.57 2.04-.2.58-.7 1.66-.66 1.83.04.18.1.24.18.12z"/><path fill="#e47678" d="M25.8 19.46c.2-.07.5-.05.74 0 .23.06 1.1.4 1.33.44.22.04 1 .22 1.1.16.12-.06.12.14-.14.18-.25.04-.75-.12-1.1-.2-.34-.1-1.16-.45-1.4-.45-.22 0-.6-.08-.76-.06.1-.03.24-.08.24-.08z"/><path fill="#e47678" d="M28.1 18.93c.22 0 1.16.3 1.37.38.2.1 1.2.62 1.5.85.3.23 1.17 1.42 1.37 1.6.2.2.48.6.65.55.15-.07.07-.1-.06-.3-.12-.2-.96-1.07-1.22-1.36-.26-.3-.55-.6-.82-.76-.28-.15-1.34-.6-1.54-.7-.2-.1-1.1-.3-1.1-.3l-.15.05z"/><path fill="#e47678" d="M33.93 25c.07-.05.27.3.4.42.14.1.7.64.93.83.23.2.4.53.46.67.07.14.25.9.27 1.08 0 .2.1 1.9.15 2.16.05.26.05.52.1.72.1.2.3.42.3.97.02.56.15 1.1.1 1.96-.04.86-.12 1.55-.16 1.82-.05.26-.05.43.03.43s.17.07.3-.03c-.22.12-.4.26-.57.35-.02-.16.12-.4.12-.63 0-.22.02-1.14.07-1.68.04-.54.08-1.85 0-1.97-.1-.14-.05-.4-.07-.6-.03-.2-.38-.6-.36-.8 0-.2-.12-1.32-.18-1.88-.07-.55-.12-1.7-.32-1.9-.2-.17-.84-1.04-1.08-1.2-.23-.18-.44-.43-.48-.55-.04-.13-.1-.14-.03-.18z"/><path fill="#e47678" d="M29.74 31.76c.1-.06.17.08.12.18-.04.1-.12.13-.2.2-.06.06-.13.3-.06.44.07.13.26.63.48.82.07.15.2.53.45.7.16.1.2.48.37.45.17-.02.7-.37.9-.47.2-.1.7-.3.92-.38.2-.07.47-.3.7-.3.23-.04.52-.16.67-.26.14-.1.13.07 0 .14-.15.07-.68.24-.85.37-.17.12-.56.3-.7.4-.15.07-.5.06-1.03.4-.52.32-.62.55-.75.76-.12.23-.45.67-.53 1.07-.08.4-.04.6.07.68.1.1.23.5.32.6.1.12.32.18.4.1.06-.06.15.1.1.17-.04.08-.1.07-.26 0s-.37-.1-.47-.36c-.12-.25-.33-.52-.38-.67-.04-.15-.08-.47 0-.64.1-.17.65-1 .72-1.16.07-.16-.04-.33-.18-.52-.15-.2-.34-.57-.5-.72-.14-.15-.32-.44-.44-.63-.1-.18-.2-.42-.2-.67 0-.25-.1-.42.05-.48.13-.07.17.05.2-.05.06-.1.07-.17.07-.17z"/><path fill="#f57e80" d="M32.63 36.5c.16-.07.38.1.38.15 0 .04-.15-.06-.18.08-.03.13-.13.27.1.4.2.15.16.12.26.3.1.16.03.07-.16-.03-.2-.1-.48-.15-.5-.35-.04-.2-.1-.45.1-.54z"/><path fill="#f57e80" d="M34.9 35.6c.1-.08.05-.22-.1-.3-.14-.08-.18-.14-.08-.17.1-.03.24.04.28 0 .04-.04-.35-.18-.56-.16-.2.02-.32-.13-.32-.06 0 .08.25.23.35.34.1.1.35.45.44.36z"/><path fill="#d96f71" d="M21.58 40.5c.2-.04.74.7 1.06.78.3.1.53.43.87.57.34.14 1.32.24 1.52.25-.2.07-.76.17-.76.17-.58-.17-1.37-.42-1.6-.6-.24-.17-.57-.67-.8-.77-.22-.1-.5-.08-.45-.32.07-.1.1-.07.18-.1z"/><path fill="#e47678" d="M26.7 38.7c.2-.1.22.17.1.27-.15.1-.38.22-.58.75-.2.54-.23 1-.03 1.04.2.03.5.2.47.3 0 .1-.25-.1-.46-.16-.2-.06-.48-.38-.4-.66.1-.28.42-.88.67-1.13.25-.24.12-.34.23-.4z"/><path fill="#d96f71" d="M30.85 39.7c-.25.04-1.05.2-1.38.06-.33-.15-1-.45-1-.4 0 .08.63.5.75.5.12.03.8.13.85.18.05.05 0 .23 0 .23.26-.2.78-.58.78-.58z"/><path fill="#d96f71" d="M14.02 36.58c-.16.25-.4.63-.62.6-.24 0-.43-.13-.62-.14-.18-.02-1.2.03-1.47-.02-.24-.05-1.75-.4-2.07-.55-.32-.13-1.17-.22-1.13-.4.04-.16.18-.1.4-.03.2.06.84.37 1.1.43.25.06 1.27.32 1.6.32.33 0 1.4 0 1.57.02.16.02.5.1.6 0 .08-.1.5-.35.55-.58.05-.23.1-.3.1-.3 0 .3 0 .64 0 .64z"/><path fill="#e47678" d="M7.05 32.66c.2-.26.54-.52.74-.58.2-.06.68-.17.84 0 .16.17.33.63.44.78.1.14.4.1.47.17.07.07.65.78.65.9 0 .13-.1.37-.04.45.08.07.27-.05.3-.14.04-.1.07-.42.02-.5-.05-.1-.58-.87-.7-.9-.12-.02-.4-.02-.6-.24-.2-.22-.5-.82-.66-.82-.15 0-.4.1-.6.18-.2.08-.66.16-.7.15-.06 0-.42-.2-.5-.32.13.18.33.88.33.88z"/><path fill="#e47678" d="M7.6 29.88c.2-.2.42-.57.66-.7.24-.1.75-.6.97-.56.23.05.63.52 1.15.57.52.04 1.92.04 2.25.15.33.1 1.82 0 2.22-.16.4-.17.54.3.72.32.1.02-.25.23-.56.23-.3 0-.9-.26-1.2-.23-.28.04-1.8-.16-2.07-.16-.28 0-1.52.06-2.06-.2-.54-.23-.77-.13-1.1.06-.33.2-.76.72-1 .92-.25.2-.45.37-.45.26 0-.1.3-.32.48-.52z"/><path fill="#d96f71" d="M17.28 26.1c-.3-.3-1.25-.87-1.44-1.58-.2-.7-.43-1.1-.34-1.58.08-.46-.13-.33-.26-.3-.14 0-.68.15-.92.1-.25-.06-.4 0-.25.08.14.1.66.1.87.04.2-.05.24.05.26.33.02.26-.07 1.17.23 1.4.3.22.52.8.9.96.38.18.7.6.7.68 0 .1-.08.33-.08.38.2-.36.33-.52.33-.52z"/><path fill="#cb686a" d="M17.37 22c0-.13.2-.24.26-.2.07.03.05.33.2.43.13.1.74.65.93.8.2.16.48.45.6.4.1-.05.04.07.04.07-.1.1-.3.38-.3.38-.1-.28-.5-.45-.58-.57-.1-.1-.3-.4-.58-.62-.28-.2-.6-.52-.57-.7z"/><path fill="#cb686a" d="M22.2 21.3c-.1 0-.56-.18-.87-.42-.32-.24-.73-.45-1.1-.45-.4 0-1.87-.07-2.22.03-.34.1-.5.2-.6.33-.1.1.33-.15.58-.18.24-.04 1.54-.07 1.94-.02.4.05.95.1 1.3.42.35.3.47.54.47.54.16-.18.5-.25.5-.25z"/><path fill="#d96f71" d="M13.43 22.77c.05.03-.4.6-.35.76.06.18.47.7.72.87.24.16.36.5.34.64 0 .14-.2.66-.43.64-.22 0-.16-.08-.04-.15.12-.07.27-.26.26-.54-.02-.3-.16-.44-.35-.6-.2-.16-.47-.6-.55-.68-.1-.08-.1-.2.06-.4.16-.24.35-.55.35-.55z"/><path fill="#d96f71" d="M10.45 25.86c.2-.12.34-.52.92-.8.57-.28.9-.5 1.05-.47.16 0 .5.04.47-.13-.04-.17-.13-.24-.1-.38 0-.15 0-.38.1-.38s.2-.2.03-.13c-.18.06-.3.2-.3.33 0 .14.1.42 0 .44-.1 0-.36-.07-.55.05-.2.12-1.05.6-1.15.73-.1.12-.48.7-.48.7z"/><path fill="#cb696b" d="M26.42 18.8c.33-.04-1.9-.5-2.2-.54-.3-.06-3.15-.13-3.6 0-.45.12-1.26.43-1.6.56-.1.04.1.07.38.07.27 0 .86.04 1.24.05.37 0 1.36.04 1.67.1.32.04 1.42.2 1.66.4.25.17.22.08.22.2 0 .1.02.3 0 .35.12-.15.18-.27.3-.32.14-.05.27-.1.27-.1-.45-.17-.9-.5-1.25-.5-.36-.04-1.72-.17-2.05-.18-.34 0-2 0-1.96-.1.03-.1.24-.17.54-.3.3-.1.7-.24 1.33-.24.64 0 2.74.1 3.1.15.38.07 1.45.3 1.5.4.03.1-.08.62-.16.66.18-.12.35-.38.43-.47.07-.1.1-.17.2-.2z"/><path fill="#f57e80" d="M16.4 19.96c.35-.07.87-.2 1-.28-.26.05-.75.17-.7.08.05-.1.13-.17.13-.17-.2.16-.44.36-.44.36z"/><path fill="#f57e80" d="M38.3 29.2c.1-.1.25.22.3.33.02.1.03.5.1.65.06.17.17.6.2.72 0 .12.07.38.1.28-.04.2-.13.45-.13.45-.04-.3-.12-.6-.15-.77-.03-.18-.1-.38-.18-.72-.08-.35-.15-.7-.23-.72-.08-.04-.07-.15 0-.2z"/><path fill="#f57e80" d="M36.62 25.12c0-.18-.4.25-.4.36 0 .12.08.25.2.08.1-.17.2-.36.2-.44z"/><path fill="#e47678" d="M38.48 22.8c-.1-.06-.28-.06-.27.02.03.08.24.55.54.8.3.25.55 1.05.57 1.2.02.13.12 1.56.24 1.72.13.17.5.92.6 1.1.12.18.43 1.17.5 1.34.1.17.12.6.22 1.36.1.76.28.88.34.82.07-.07 0-.05-.12-.42-.1-.37-.15-1.07-.2-1.43-.03-.35-.42-1.32-.6-1.65-.18-.33-.36-.68-.4-1.1-.05-.4-.25-1.1-.38-1.58-.12-.5-.4-1.08-.5-1.22-.12-.14-.54-.56-.54-.68 0-.13.02-.27.02-.27z"/><path fill="#e47678" d="M40.06 24.05c.16-.02.36.26.3.3-.08.02-.1.12-.04.27.07.15.33.8.47.94.13.15.45.57.5.58.06.02.07.35.07.4 0 .06.06.35-.12.1-.18-.22-.36-.54-.45-.75-.08-.2-.3-.73-.4-.95-.12-.22-.2-.5-.22-.62 0-.13-.24-.26-.12-.28z"/><path fill="#f57e80" d="M40.93 33.16c-.13-.14-.22-.26-.5-.1-.25.14-.8.17-.9.3-.12.12-.54.48-.62.52.42-.2 1.52-.74 1.6-.66.08.08.1.48.1.48.15-.07.33-.54.33-.54z"/><path fill="#d96f71" d="M37.67 40.62c.1-.06.24.12.2.2-.07.08-.07.1-.48.23-.43.12-.96.58-1.07.72-.1.15-.5.07-.7.34-.18.28-.52.8-.6.92-.08.1-.76.48-.96.6-.2.12-.6.37-.7.36-.1 0-.45.04-.45.04.46-.27 1.1-.55 1.23-.64.12-.1.3-.16.6-.46.27-.3.55-.78.73-.9.17-.1.56-.12.65-.28.1-.17.52-.63.8-.74.26-.1.5-.1.57-.17.06-.1.17-.2.17-.2z"/><path fill="#d96f71" d="M34.34 41.66c.2-.1.7-.15.67-.07 0 .08-.28.4-.57.47-.3.07-.44.17-.6.3-.15.1-.5.08-.78.14-.3.08-.05-.2.1-.2.15-.02.36 0 .5-.14.13-.14.47-.4.7-.5z"/><path fill="#d96f71" d="M36.15 38.97c-.14.2-.44.6-.63.7-.2.1-1 .6-1.3.73-.3.12-.73.3-.88.5-.16.2-.45.42-.65.58-.2.15-.64.3-.9.5-.25.23-.73.7-.64.76.08.06.47-.36.66-.46.2-.1.73-.26.8-.34.07-.1.33-.45.65-.7.32-.23.87-.5 1.2-.7.32-.2 1.22-.77 1.36-.94.13-.17.32-.63.32-.63z"/><path fill="#d96f71" d="M39.46 36.04c0 .12-.12.63-.12.78 0 .16.15-.05.18-.25.04-.2-.06-.53-.06-.53z"/><path fill="#d96f71" d="M38.9 35.2c.13-.15.32 0 .18.1-.14.12-.37.35-.37.57 0 .22-.1.8-.13 1.02-.02.2.02.6-.2.74-.23.14-.38-.1-.47.08-.08.18-.35.28-.6 1.06-.08.27-.2.3-.26.2-.07-.08-.14-.33-.3-.25-.15.08-.28.2-.4.3.12-.3.4-.54.47-.52.1.02.22.28.3.14.1-.13.3-.68.48-.83.17-.14.48-.14.62-.3.13-.18.27-.4.32-.9.05-.5.07-.94.17-1.07.1-.14.2-.34.2-.34z"/><path fill="url(#z)" d="M32.4 39.84c-1 .87-1.06 1.02-1.2 1.13-.12.1-.57.02-.97.5s-.88 1-1.28 1.28c-.4.3-.45.6-.7.6-.23 0-.55-.23-.85-.1-.3.14-.5.62-.6 1.02-.12.4-.17.83-.4.83-.25 0-.52.1-.65-.08-.14-.2-.4-.6-.48-.64-.1-.05-1.36-.48-1.5-.48 0 0-.54-.17-.8-.4.4-.03 1.37-.26 1.5-.28.16-.02.52-.07.76-.1.24 0 1.74-.1 2.8-.5 1.05-.4 1.96-1.32 2.15-1.43.18-.13 1.52-1.02 2.22-1.36z" transform="translate(0 -1)"/><path fill="#d96f71" d="M28.86 42.95c.18-.2.3-.36.23.1-.08.46 0 .7.1.7.07 0-.33-.22-.36-.1-.03.1-.18.46-.02.6.1.02-.26.12-.3-.06-.03-.2.04-.4.12-.64.08-.23.08-.46.22-.6z"/><path fill="url(#A)" d="M15.45 36.07c.3-.22 1.57-.48 1.95-.54.4-.06 1.4-.38 1.65-.3.25.08.7.9.97 1.3s1.3.96 1.7.96c.4 0 1.7-.07 1.97-.07.28 0 1.3-.04 1.4.07.12.12.9.7 1.17.63.3-.08.98-1.15.98-1.66 0-.37-.82-1.27-1.18-1.8-.37-.53-1.66-2.96-1.75-3.36-.1-.4-1.05-2.87-1.4-3.06-.36-.2-1.47-.42-1.96-.42-.5 0-1.85.2-2.07.37-.24.17-.8-.17-.43-.58.38-.42 1.4-.6 1.83-.6.43 0 2.17.1 2.42.18.26.08.56-.1.88-.58.32-.5.37-1 .92-1.3.56-.3.93-.2 1-.42.1-.24.68-.8.4-1.04-.3-.25-1.27-.77-1.52-.77-.26 0-.56.3-.88.17-.32-.14.05-.45-.24-.57-.3-.13-.9-.38-1.3-.03s-.7.9-.85 1.03c-.14.15-1.02.3-1.26.6-.24.32-.92 1.36-.78 1.42.14.07 1.03-.22 1.35-.38.32-.16.95-.73 1.25-.73.3 0 .55-.04.66-.18.1-.15.83-.6.9-.48.05.13-.22.72-.42.83-.2.1.27.16.3.3.03.14-.07.53-.38.6-.32.1-.88-.17-1.17-.12-.3.05-1.85.5-2.25.73-.4.24-1.42.56-1.56.97-.16.42-1.54 3-.97 3.36.58.36 3.36.84 3.94 1.06.57.22 2.4 1.85 2.83 2.65.43.8.97 2.03 1.16 2.2.2.15.48.54.38.54-.1 0-.73 0-.82-.2-.1-.16-1.28-2.3-1.45-2.37-.18-.08-2.58-2-3.3-2.03-.7 0-1.92-.08-2.3-.3-.36-.22-.74-.48-1.1-.16-.37.32-.88 1-1.06 1.82-.16.82-.2 1.98-.3 2.34-.13.35-.3 1.73.04 1.97.33.25 1.43.9 2.23 1.02s1.67-.2 2.14.42c.48.64 1.06 1.6.92 1.8-.14.23-.5.25-.77.1-.26-.13-.94-.72-1.4-.88-.44-.17-3.07-1.16-3.23-1.08-.17.06-.14.72.02 1.1.16.37.66 1.1 1.53 1.4.87.27 1.88.06 2.3.3.42.23.73.8 1.3.98.56.2 2 .16 2.16-.12.16-.28.04-.8-.24-.8-.3 0-.93-.28-.74-.68.2-.4.6-.5.76-.4.14.1.6.82.84.82s.2-.73.6-.63c.4.1.25.94.48 1.13.24.18 2.4.37 2.45-.07.03-.44-.86-.56-.8-1 .04-.45.95-1.58.88-1.8-.07-.2-1.05-.77-1.7-.84-.67-.07-2.4-.07-2.93-.37-.54-.32-2-1.2-2.14-1.45-.13-.23-.1-.82-1-.8-.9.03-2.68.52-2.9.6-.25.06-.74 0-.65-.38.1-.4.33-.27.5-.4z" transform="translate(0 -1)"/><path fill="#f4b1b3" d="M27.03 38.97c-.15.15-.5.54-.4 1.08.12.54.66.9 1.22.75.57-.14 1.1-.17 1.02-.42-.07-.26-.55-.07-.85-.38-.3-.3-.6-.6-.6-.75 0-.14.06-.57.27-.64.2-.06.93.16 1.3.4.38.22 1.46.5 1.84.15.38-.35.47-.7.07-.84-.4-.13-1.05-.88-1.1-1.2-.04-.34-.2-.84.03-1.2.23-.34.75-.84.63-1.14-.1-.3-1.05-.94-1.15-1.46-.08-.52-.32-.87-.15-1.24.16-.38.33-.47.5-.52.2-.05.65 0 .65.23 0 .24-.35.45-.2.8.13.36.43 1.32.8 1.4.34.06 1.07-.13 1.56-.43.5-.3 1.4-.52 1.58-.73.16-.2.47-.5.5-.32 0 .2 0 .8-.2.92-.2.1-.75.16-.73.46.04.3.37.73.58.83.2.08.8-.1.94.13.14.23.2.52-.03.52-.22 0 .23.4.02.47-.2.07-.82-.07-1-.43-.2-.36-.23-.73-.6-.9-.38-.17-.75-.12-1.37 0-.6.12-1.26.66-1.26 1 0 .32-.3.83-.1 1.26.18.42.67.54.72.72.05.2-.33.7-.05.87.28.2.92.26 1.16-.1.23-.4.28-.5.1-.74-.15-.23-.4-.42-.4-.67 0-.26.3-.57.48-.57.2 0 .74.26.62.52-.1.26-.26.45.12.5.38.04 1.32-.45 1.76-.76.45-.3.85-.45.87-.75.03-.3.12-2.16.1-2.56-.03-.4-.05-1.03-.12-1.43-.07-.4-.24-.96-.47-1.08-.24-.13-.6-.24-.96.1-.38.36-.94.55-1.18.74-.23.2-.35.6-.56.63-.2.03-.66.07-.66-.23 0-.3-.17-.6-.42-.66-.26-.07-1-.14-1.04-.52-.02-.37.05-.98.33-1 .27-.03.46.3.7.46.23.17 1.15.87 1.45.7.3-.16.64-.5.85-.68.2-.18.42-.33.05-.87-.38-.54-.43-1.22-.83-1.3-.4-.1-1.78-.27-2.16-.55-.37-.28-1.13-.9-1.46-.73-.33.15-.16 1.05-.23 1.4-.07.35-.9 1.86-1.06 2-.15.14-1.45 2.37-1.45 2.65 0 .3.5 1.2.83 1.62.33.43.5.73.1 1.6-.36.87-.8 2.1-.8 2.26 0 .16 0 .5-.15.64z"/><path fill="#f4b1b3" d="M26.6 32.2c.2-.36.68-1.6.65-1.94-.02-.33-.8-1.33-1-2.18-.2-.85-.22-1.3.1-1.4.35-.1.84-.14.84.1 0 .2-.4.32-.32.68.08.35.84 1.7.9 2.07.07.37.2 1.1.25.82.07-.27.07-.78.22-1.2.16-.42.43-1.8.63-2.45.2-.64.67-1.2.9-1.5.2-.28.7-1.1.54-1.7-.15-.6-1.46-1.3-1.86-1.63-.4-.33-1.92-1.24-1.92-1.46 0-.22.25-.3.47-.22.23.1.2.36.34.45.14.1 2.27 1.42 2.85 1.75.57.34 1.24.8 1.24 1.25 0 .45-.16 1.45-.45 1.5-.3.08-.6.06-.76.37-.16.3-.47.65-.1.8.38.15 1.67.78 2 .85.3.06 1.05.2 1.05-.03 0-.22-.38-.7-.36-1.06.02-.36.18-.52.38-.47.2.03.26.14.26.32s-.17.58-.1.7c.1.1.42.4.42.62 0 .2 0 .53.08.7.1.14.92 1.5 1.03 1.52.12.02.72-.02.72-.3 0-.26-.02-1.86-.2-2.08-.18-.22-1.27-1.16-1.4-1.36-.14-.2-.56-.46-.22-.98.33-.5.5.05.5.27.03.23 1.05 1.12 1.2 1.23.16.12.54-.22.57-.55.02-.34.35-.83.5-.83.12 0 .52.16.36.43-.15.26-.5.5-.7.75-.2.25-.43.43-.34.76.08.32.34 1.1.34 1.46 0 .35-.04 1.73.1 1.96.13.22.4 1.26.4 1.7 0 .4.28 1.37.2 1.83-.1.47-.32 1.47-.25 1.78.05.3.3-.13.6-.5.32-.4.3-1.08.43-1.3.14-.22.34-.76.6-1.38.27-.62.18-1.3.16-1.7-.03-.44-.14-.8-.32-1-.18-.2-.27-.68 0-.77.27-.1.4-.07.42.16.02.22.2.7.2.86 0 .18.14.74.18.54.04-.2.24-1.54-.1-1.9-.32-.35-.7-2.02-1.08-2.4-.38-.37-.96-1.44-1.07-1.66-.1-.23-.78-1.6-.95-1.98-.18-.38-1.85-2.1-2.54-2.43-.7-.33-2.3-1.18-3.2-1.3-.92-.1-1.56 0-.27.37 1.3.37 1.62.86 1.8 1.1.18.25 1.56 1.68 1.65 1.88.1.2.18.46-.3.26-.5-.2-1.37-1.26-1.6-1.57-.22-.3-2.13-1.5-2.46-1.6-.34-.1-1.18-.06-1.4-.1-.23-.05-.76-.32-.98-.2-.23.15-.38.44-.16.44s1.16.37 1.3.42c.17.04 1.02.18 1.35.18.33 0 .38.35.02.42s-1.5-.22-1.68-.33c-.17-.12-1.3-.36-1.64-.32-.36.06-.96 0-1.4.6-.45.6-.6.75-.05.93.56.17 1.3.55 1.47.7.18.16.8.63.95.86.16.2-.17.45-.35.76-.18.3-.5.78-.87 1.05-.38.28-1.04 1.17-1.22 1.32-.17.16-.73.78-.62.98.12.2.85 1.54.87 1.76.02.22.45 1.27.54 1.5.07.26 1.08 1.97 1.28 2.06.2.1.26.1.33-.02z"/><path fill="#f4b1b3" d="M34.16 20c.25.05 1.9.65 2.3 1.1.38.43.8.82.94 1.3.13.5 1.24 1.2 1 1.34-.22.16-.35.54.06 1.06.4.52.57 1.44.87 1.85.3.42 1.16 2.12 1.16 2.8 0 .7-.03 1.66-.24 2.12-.2.47-.7 1.55-1 1.73-.3.18-.78.77-.83.5-.05-.24.2-1.1.36-1.5.15-.42.6-1.1.53-1.24-.05-.16.13-2.5-.12-2.86-.25-.36-1.44-2.78-1.77-3.17-.34-.38-1.2-2.52-1.52-3.1-.33-.55-2.4-2.02-1.74-1.92z"/><path fill="#f4b1b3" d="M39.18 23.5c.1 0 .7.78.95 1.38.26.6.78 2.2.9 2.73.13.52.52.73.52 1.12 0 .38.1.97-.05 1.2-.16.24-.05.75-.16.78-.1.02-.2-.47-.28-1.3-.08-.86-.95-1.92-1.05-2.5-.1-.55-.33-2.3-.56-2.74-.23-.44-.4-.7-.26-.67z"/><path fill="#f4b1b3" d="M27.5 42.52c.33-.07.76.28 1.02.08s1.16-.98 1.4-1.4c.22-.4.6-.95.84-1 .23-.05.6.26.8-.05.2-.3.4-.8.62-1.06.22-.26.9-.34 1.36-.78.46-.43 1.62-1.05 2.17-1.4.55-.32 1.06-.45 1.34-.74.3-.28.83-1.1 1.1-1.44.24-.33 1.32-1.05 1.58-1.13.26-.07.7-.07.54.45-.15.5-.46 1.23-.72 1.4-.26.2.2-.27-.08-.42-.28-.16-.43-.4-.92.28-.5.68-.24 1.73-.4 1.97-.2.23-.74.28-.87.43-.12.16-.43.54-.7.75-.25.2-.7.28-.87.6-.18.3-.74.77-1.16.9-.4.12-1.08.23-1.44.7-.36.45-.7.7-1.1.97-.42.28-.93.6-1 .98-.1.38-.14 1.3-.78 1.3-.65.04-.98-.14-.98-.6 0-.47.15-.75-.05-.73-.22.03-.76.4-.73.67.02.28-.26.95-.13 1.13.13.2 1 .24 1 .57 0 .34.03.67-.67.64-.7-.02-1.1-.3-1.65-.7-.54-.38-.33-.45-.2-.94.13-.5.26-1.32.7-1.42z"/><path fill="#f4b1b3" d="M33.64 41.16c.43-.27 1.57-.75 1.75-.96.17-.2 1.05-1 1.2-1 .16 0 .34.28.73-.15.38-.44.6-1.14.8-1.14.17 0 .1 1.04-.6 1.5-.7.47-.23.8-.72 1-.48.22-.87-.02-1.1.24-.23.26.1.77-.38.77-.5 0-1.27.1-1.55.35-.28.26-.98.4-1.13.67-.16.25-.65.74-.88.77-.23.02-.54-.34.2-.73.76-.4 1-.88 1.68-1.3z"/><path fill="url(#B)" d="M7.24 32.03c.12-.3.7-1.03.9-1.18.2-.16.86-.67 1.22-.57.36.1 1.05.23 1.5.23.43 0 1.43 0 1.74 0 .3 0 1.98.32 2.2.35.2.03-.22.6-.52 1.4-.3.8-.93 3.62-1.04 4.16-.1.55-.38 1-.66 1.1-.3.1-1.47.17-2.06.02-.6-.15-1.73-.4-2.07-.62-.33-.23-.87-.33-.77.08.1.4.5.75.7.8.2.05.95 0 1.26.08.3.07 1.75.33 2.03.33.3 0 1.52-.06 1.57.12.06.18-.1.8 0 1.3.1.48.37 1.3.65 1.5.27.2.1.4-.42.26-.52-.12-1.2-.56-1.73-.85-.5-.28-1.03-.3-1.5-.46-.46-.15-1.23-.82-1.56-1.03-.35-.2-.97-.62-1.15-1.13-.18-.5-.23-.7-.5-1.05-.24-.36-.42-2-.22-2.34.2-.33.5-.92.8-1.1.3-.18.7-.3 1.1.28.42.6.6.44.78.54.2.1.52.44.55.67.03.23-.13.6.13.6.26.04.46-.35.44-.58-.03-.23-.5-.85-.65-1-.15-.16-.6-.2-.77-.42-.18-.23-.28-.77-.6-.8-.3-.02-1.13.5-1.3.4-.2-.1-.44-.45-.42-.65.03-.2.13.15.36-.42z" transform="translate(0 -1)"/><path fill="#f4b1b3" d="M8.94 28.12c-.27-.34.44-1.26.88-1.54s1.3-.67 1.57-1.06c.25-.38.74-.8 1.05-.8.3 0 .67.2.72 0 .05-.2.64.13.46.36-.18.24-.38.55-.3.65.07.1.5.4.66.08.15-.3.46-.7.28-1.13-.18-.44-.98-.92-.93-1.18.05-.27.1-.53.5-.53.43 0 .87-.07 1.02.13.15.2-.13.6.08.9.2.3.23.75.72 1.2.5.48 1.13.73 1.08.97-.05.23-.4.07-.77.64-.4.58-.52 1.84-.78 2.04-.25.2-1.28.34-1.6.4-.3.04-2.77-.14-3.3-.47-.5-.34-1.25-.52-1.36-.65z"/><path fill="#f4b1b3" d="M10.83 24.85c.14-.3 1.2-1.28 1.54-1.44.34-.14.26.1.16.3-.1.17 0 .4-.18.48-.2.08-1.3.6-1.32.7-.02.1-.28.13-.2-.03z"/><path fill="#f4b1b3" d="M17 25.55c.3.08.73-1.32.9-1.5.2-.18.27-.6.1-.9-.2-.3-.84-.9-.8-1.1.06-.2.3-.57.53-.47.23.1.18.44.26.54.06.1.8.77.96.65.16-.13.65-.34.62-.62-.02-.3-.1-.7.13-.67.24.02.73.44 1.02.15.28-.28.33-.72-.1-.72-.45 0-1.68-.2-1.94-.2s-.93.26-1.16.34c-.23.08-.77.36-.95.54-.18.18-.72.62-.72 1.47s.1 1.47.4 1.83c.32.36.37.56.76.67z"/><path fill="#f4b1b3" d="M14.22 22.4c0-.23 1.1-1.13 1.45-1.3.36-.2 1.52-.4 1.44-.27-.07.13-.97.5-1.1.8-.13.3-.26.67-.4.75-.17.08-1.38.4-1.38.03z"/><path fill="#f4b1b3" d="M16.93 20.22c.37-.28 2.1-.8 2.75-.8.65 0 2.53-.28 2.8.1.24.4.1.82-.2.95-.28.13-.36.4-1 .13-.64-.26-1.36-.38-1.93-.33-.57.05-1.6.07-1.9.07-.32 0-.73.03-.52-.12z"/><path fill="#f4b1b3" d="M24.06 19.06c.2-.03.7-.4.4-.47-.32-.08-2.43-.32-3-.26-.57.05-1.83.36-1.34.36.5 0 1.8.15 2 .15.22 0 1.76.23 1.94.2z"/><path fill="#f4b1b3" d="M17.55 19.44c.28-.12.95-.5 1.2-.5.26 0 1.22.07 1.04.14-.2.08-1.43.34-1.76.4-.34.04-.9.14-.5-.04z"/><path fill="#f79899" d="M26.38 18.47c-.12-.17-2.73-.9-4.7-.5-.32.03 1.28.13 1.9.13.6 0 2.5.47 2.6.47.1 0 .4.18.2-.1z"/><path fill="#f4b1b3" d="M12.78 22.74c.12-.32.88-.95 1.2-1.18.35-.24 2.12-1.32 2.3-1.3.2.03.7.34.44.34-.25 0-1.03 0-1.4.3-.35.27-1.22 1.43-1.43 1.6-.22.2-1.25.58-1.12.24z"/><path fill="#f5d9d9" d="M29.7 31.36c-.44 0-.76.18-.8.9-.02.7.76 2.36.6 2.87-.14.5-.92.92-.65 1.5.27.56 1.22 1.4 1.3 1.85.1.45-.37.42-.58.1-.2-.34-1.56-.07-1.7-.4-.16-.33-.5-.78.14-1.6.64-.8.76-1.72.3-2.05-.44-.33-1.04-1.23-.86-1.9.18-.65 1.08-2.17 1.44-2.6.36-.4.95-1.6.93-2.3-.02-.68.1-.8.36-.65.27.15 1.65.7 2.07.84.42.14 1.56.65 1.68 1.28.12.63-.08 1.3-.56 1.3-.48 0-.93-.13-1.47-.7-.54-.57-.7-.6-1.05-.03-.36.57-.92 1.14-.44 1.3.47.14 1.55.35 1.6.74.07.4.7.96.97.72s.6-.77.93-.86c.33-.1.92-.8 1.3-.72.4.1.88.3.88 1.2 0 .9-.36 1.4-.15 1.82.22.42.4 1.74.04 1.92-.36.17-.5.12-.5-.33s.17-.93-.3-1.08c-.5-.15-1.17-.4-.84-.75.32-.36.56-.78.53-1.08-.03-.3-.3-.62-.68-.4-.4.25-1.8 1.18-2.34 1.2-.53.04-1.36-.38-1.3-1.04.05-.65.02-1.07-.8-1.04z"/><path fill="#f5d9d9" d="M31.03 36c-.05.44.7 1.52.93 1.16.24-.36.4-1.16.8-1.1.43.05.76.65 1.3.56.53-.1 1.55-.38 1.1-.48-.45-.1-1.34-.3-1.43-.65-.1-.37-.03-.88-.84-.85-.82.03-1.75.36-1.87 1.35z"/><path fill="url(#C)" d="M25.48 39.54c.37.13.16.7-.4 1.57-.2.3.56 1.4-.43 1.33-.96-.06-.98-1.18-1.28-1.2-1.2-.03-2.5-.32-3-.94-.74-.97-1.5-1.72-2.4-1.72-.94 0-2.65-.54-2.53-1.02.12-.47 2.3-1.22 2.93-.98.63.24 1.3.84 1.98 1.4 1.55 1.28 4.7 1.4 5.13 1.56z" transform="translate(0 -1)"/><path fill="url(#D)" d="M16.58 32.93c.78-.3 2.63-.2 3.2.03.57.24 2.33.86 3.02 1.94.7 1.08 1.6 1.83 1.47 2.07-.12.24-1.35.33-1.86.03-.5-.3-1.33-.36-2.6-1.6-1.25-1.22-3.97.16-4.2.3-.25.16-.94-2.06.98-2.77z" transform="translate(0 -1)"/><path fill="url(#E)" d="M22.65 28.35c.56.35 1.2 2.54 1.7 3.53.52 1 2.34 3.77 2.46 4.37.13.6-.74 1.46-1.93-.24-1.2-1.7-1.86-3.34-2.78-4.15-.94-.8-3.93-.8-4.44-1.44-.5-.62.48-1.96 1.37-2.05.9-.1 2.9-.45 3.62 0z" transform="translate(0 -1)"/><path fill="url(#F)" d="M10.04 31.23c1.33.25 1.78-.34 2.44.08.65.43 1.52 1.28 1.22 1.8-.3.5-.5 3-.95 3.3-.45.3-2.22.75-2.78.36-.57-.4-1.32-.47-1.53-1-.2-.55-.72-1.77-.37-1.77.36 0 1.4.64 1.5 1.1.08.44.7.82.9.6.2-.2.77-1.46.2-2-2.04-2.02-2.28-1.45-2.25-2 .03-.53 1.06-.57 1.62-.47z" transform="translate(0 -1)"/><path fill="url(#G)" d="M10.92 27.36c.53-.28 1.1-1.53 1.5-1.38.4.15.63.66.78.84.15.18.6.63 1 .03.43-.6-.08-1.34.25-1.43.33-.1 1.23 1.22 1.56 1.5.34.26-.62.95-.8 1.58-.18.63-.45 1.55-1.07 1.52-.63-.03-3.2-.12-3.48-.9-.27-.77-.9-1.13.27-1.76z" transform="translate(0 -1)"/><path fill="url(#H)" d="M17.12 22.54c.38-.07-.24.3-.18.54.06.24.6.8.66 1.23.06.43-.06.9-.12 1.3-.06.38-.15 1-.45.83-.3-.18-1.2-.92-1.1-2.15.08-1.23.53-1.62 1.2-1.74z" transform="translate(0 -1)"/><path fill="#f5d9d9" d="M9.76 37.16c.65.12 1.97.45 2.57.42.6-.03.6.2.45.7-.15.47.18.92-.2 1.04-.4.12-1.12-.72-1.9-.72-.77 0-1.94-1.62-.92-1.44z"/><path fill="#f5d9d9" d="M37.48 36.03c0 .25-.4 1.08-.85 1.55-.44.46-.87 1.13-1.2 1.4-.35.3-.94-.14-1.27.27-.34.4-1.6 1.3-2.17 1.96-.57.65-1.55 2-1.63 2.27-.07.3-.87.3-.9-.05-.02-.33-.23-1.08.44-1.72.68-.65 1.58-.7 1.94-1.16.36-.47.67-1.2 1.13-1.5.47-.3.9-.8 1.3-1.08.38-.28 1.67-1.08 2.1-1.3.44-.24.62-.32.75-.45.13-.12.36-.32.36-.17z"/><path fill="url(#I)" d="M18.45 20.93c.58-.16 1.98-.4 2.73-.38.75.02.54.38.64.6.1.2.13.5-.18.43-.3-.08-1.2-.47-1.83-.44-.6.02-2.8.2-1.35-.2z" transform="translate(0 -1)"/><path fill="#f5d9d9" d="M18.06 21.2c.42-.26 1.57-.26 1.52 0-.05.25-.3 1.15-.56 1.26-.26.1-.83-.2-.9-.52-.08-.3-.44-.5-.06-.74z"/><path fill="#f5d9d9" d="M24.1 18.6c-.3-.04-2.36-.1-2.64-.08-.28.02.4.25 1.37.3.97.06 1.05.26 1.18.16.14-.1.32-.36.1-.4z"/><path fill="#f5d9d9" d="M25.4 20.1c.28-.04.5.73 1.16 1.07.67.33 2.94 1.4 3.14 1.88.2.5.44 1.13-.15 1.6-.6.46-1.4.1-1.47.72-.08.62.54.8.36 1.5-.18.68-.2 2.44-.4 2.5-.22.04-.84-1.48-.84-1.97 0-.5.65-.5.3-.9-.32-.4-1.76-.15-1.76.3 0 .47.3 1.14.43 1.6.13.47.78 1.9.78 2.2 0 .3-.24 1.4-.47 1.44-.23.05-1.28-1.6-1.47-2.17-.17-.56-.96-2.57-1.02-3.04-.05-.46 1.24-1.36 1.58-1.82.33-.46 1.13-1.82 1.5-1.85.35-.02.8-.56.43-.72-.37-.15-1.25-.5-2.07-.9-.83-.4-1.5-.47-1.2-.85.27-.4.68-.54 1.17-.6z"/><path fill="#f5d9d9" d="M30.1 26.1c-.05-.32.22-.66.53-.73.3-.08.8-.05.82-.36.03-.3.62-1.13.26-1.72-.35-.6-4.2-2.45-4.2-2.73 0-.28.48-.18.94-.05.46.13 2.16 1 2.34.85.18-.15-1.57-1.42-1.28-1.57.28-.16 1.4.8 1.62 1.03.23.24.87 1.8 1.4 1.94.5.13 1.4-.13 1.25-.36-.15-.23-1.36-1.3-1.78-1.8-.42-.52-1.78-1.37-1.45-1.42.34-.05 2.24.85 2.7 1.18.47.34 2.14 2 2.25 2.37.1.38.87 1.25.6 1.58-.24.34-.24 1.58-.58 1.47-.33-.1-.82-1.82-1.3-1.67-.45.15-.94 0-.96.6-.03.58-.65.35-.78 1.02s.7 1.2.5 1.32c-.2.12-1.3-.08-1.68-.3-.4-.25-1.2-.42-1.2-.63z"/><path fill="#f5d9d9" d="M33.75 26.04c.14-.07 1.26.8 1.4 1.08.12.28.4 1.67.3 1.93-.1.26-.6.03-.93-.36-.34-.4-.4-1.2-.57-1.58-.18-.4-.77-.82-.2-1.08z"/><path fill="#f5d9d9" d="M36.2 26.5c.08-.26.66-.75 1-.44.33.3 1.28 1.86.98 2.14-.3.28-.62.57-.47 1.08.17.52.6 1.44.55 2.32-.05.88-.54 1.78-.64 2.1-.1.3-.46 1.4-.64 1.43-.18.02.13-1.55.13-1.9 0-.37-.3-2.1-.42-2.45-.13-.37-.33-1-.33-1.8s-.06-1.53-.18-1.84c-.13-.3-.08-.33.02-.64z"/><path fill="#f5d9d9" d="M35.34 20.9c.23-.02 1.34.73 1.65 1.2.3.46 1.13 1.3 1.02 1.5-.1.17-.3.3-.13.74.17.43 1.33 2.34 1.54 2.68.2.33.87 1.82.9 2.16.03.33-.23.44-.23 1.24s-.25 1.75-.53 1.95c-.3.2-.78.95-.72.5.05-.47.15-.73.36-1.2.2-.46.16-.66.2-1.1.06-.44.14-2.16-.06-2.45-.2-.28-1.42-2.6-1.65-2.9-.25-.32-1.33-2.63-1.4-2.87-.08-.23-.67-.74-.8-.97-.13-.24-.34-.44-.16-.47z"/><path fill="#f5d9d9" d="M22.32 21.6c.2-.04.93.1.93.23 0 .15-.33.4.03.57.37.15 1.04-.1 1.38.04.34.16 1.38.3 1.1.78-.5.87-1.55.78-1.76 1.17-.2.38-.58 1.66-1.07 1.67-.5.02-1.8-.3-2.45-.2-.65.06-1.9.62-1.96.28-.06-.34.24-.5.7-.6.44-.12 1.72-.75 2.14-.8.4-.03 1.17.33 1.54-.02.38-.34.5-.5.34-.84-.15-.35.43-1.15-.18-1.16-.35 0-.78.5-1.02.6-.24.1-.57.04-.8.24-.24.2-.87.68-1.13.8-.24.1-.95.37-.8 0 .17-.34.75-.92 1.17-1.12.4-.2.84-.4.98-.73.15-.32.48-.84.87-.93z"/><path fill="url(#J)" d="M14.8 39.83c.3-.06 1.9.35 2.43.6.53.26 2.05 1.56 2.42 1.7.37.14 2.2.8 1.53.95-.68.14-1.12.07-1.95-.5-.83-.56-1.5-.65-2.14-.65-.65 0-1.75-.38-2-1-.23-.63-.5-1.05-.3-1.1z" transform="translate(0 -1)"/><path fill="none" stroke="#cb696b" stroke-width=".5" d="M14.85 40.6c-.07-.08-.13-.16-.18-.24-.3-.5-.36-1.1-.38-1.27-.03-.2-.2-.62-.08-1.65.05-.27-.18-.6-.18-1 0-.42-.08-1.23.32-2.55 1-3.32 1.6-3.7 1.63-4.04.02-.34-.05-.63.6-2.47.65-1.85 1.17-1.44 1.46-1.9.3-.44.8-1.4 1.3-2 .52-.57 1.1-.66 1.37-.96.27-.3.46-.66.96-.98.65-.42 1.52-.4 1.65-.57.14-.17.88-1.12 1.1-1.3.2-.18 1.06-.08 1.34-.24.26-.15.38-.6.62-.65.24-.05 1.27.2 1.7.1"/><path fill="none" stroke="#994f51" stroke-width=".5" d="M23.5 42.8c-.3-.12-.52-.3-.52-.3-.93.15-2.1.18-2.74.1-.65-.1-1.62-.75-1.78-.73-.15.02-.72-.07-1.68-.36-.82-.24-1.54-.52-1.93-.9"/><path fill="none" stroke="#cb696b" stroke-width=".5" d="M27.93 45.7c-.36-.1-.54-.25-.97-.63-.44-.37-.9-.8-1.05-.9-.15-.08-.43-.74-.72-.84-.3-.1-1.4-.4-1.7-.53"/><path fill="none" stroke="#994f51" stroke-width=".5" d="M28.12 18.9c.44-.07.24-.23.48-.3.24-.05 2.1.1 2.47.17.38.08.97.38 1.17.38.2 0 .56 0 .9.1.37.1 2.74 1.26 3.14 1.48.4.22 1.36 1.3 1.74 1.72.44.14 1.3.54 1.53.68.23.13 1.16 1.1 1.3 1.44.14.34.08.75.24 1.05.15.3.25.5.3.73.03.24.03 1.23.13 1.45.1.2.27.63.27 1.3 0 .68-.22 1.7-.3 2.22-.1.53-.57 1.42-.57 1.62 0 .2-.06.48-.18.64-.12.15-.16-.02-.27.43-.12.46-.54 1.06-.56 1.2-.02.14-.04.33-.12.43-.08.1-.37.1-.37.28 0 .2.27.4.3.52.05.14.1.36.07.5-.04.14-.6 1-.87 1.46-.27.46-1 1.3-1.03 1.5-.04.2.08.3.08.6s.04 1.13-.06 1.4c-.1.24-1.92 2.24-2.27 2.34-.36.1-2.32-.27-2.7-.2-.37.08-1.76.5-2.25.86-.5.35-1.3.83-1.64.87-.34.04-.95 0-1.13-.06"/><path fill="none" stroke="#d97072" stroke-width=".5" d="M14.85 40.6c-.07-.08-.13-.16-.18-.24-.3-.5-.36-1.1-.38-1.27-.03-.2-.2-.62-.08-1.65.05-.27-.18-.6-.18-1 0-.42-.08-1.23.32-2.55 1-3.32 1.6-3.7 1.63-4.04.02-.34-.05-.63.6-2.47.65-1.85 1.17-1.44 1.46-1.9.3-.44.8-1.4 1.3-2 .52-.57 1.1-.66 1.37-.96.27-.3.46-.66.96-.98.65-.42 1.52-.4 1.65-.57.14-.17.88-1.12 1.1-1.3.2-.18 1.06-.08 1.34-.24.26-.15.38-.6.62-.65.24-.05 1.27.2 1.7.1"/><path fill="none" stroke="#994f51" stroke-width=".5" d="M28.12 18.9l-.02.02c-.38-.04-.62-.1-.8-.27-.17-.2-.1-.3-1.8-.65-1.7-.34-3.66-.55-6.25.43-2.58 1-2.6 1.4-2.9 1.54-.27.16-2.3 1.2-2.8 1.66-.48.47-.73.6-.88.8-.16.22-.25.56-.53.74-.27.2-1.84 1.73-2.34 2.5-.5.76-.64 1.16-.86 1.5-.2.34-1 1.23-1.44 2.03-.43.8-.86 1.94-.86 2.25 0 .3.4.98.4 1.17 0 .18-.53.58-.56.83-.03.25.06.92.12 1.45.07.52.04.86.16 1.1.12.25.46.37.52.6.06.2.25.73.55 1 .3.28.6.37.9.68.3.3.9.83 1.32.95.43.13 1.1 0 1.4.2.26.17 1.22 1.13 1.68 1.28.46.16 1.44-.08 1.72-.1"/></g></g></svg>