<svg xmlns="http://www.w3.org/2000/svg" width="48" height="48" xmlns:xlink="http://www.w3.org/1999/xlink" version="1"><defs><linearGradient id="a"><stop offset="0" stop-color="#fff" stop-opacity=".502"/><stop offset="1" stop-color="#ef2929" stop-opacity=".502"/></linearGradient><radialGradient cx="10.068" cy="27.38" r="8.714" xlink:href="#a" fx="10.068" fy="27.38" gradientTransform="matrix(1.147 .023 -.086 4.345 23.053 -106.186)" gradientUnits="userSpaceOnUse"/><radialGradient id="E" cx="264.885" cy="1499.855" r="8.559" xlink:href="#b" gradientUnits="userSpaceOnUse" gradientTransform="translate(9.073 -1121.746)" fx="264.885" fy="1499.855"/><linearGradient id="D" x1="260.883" x2="274.926" y1="1494.385" y2="1509.797" xlink:href="#c" gradientUnits="userSpaceOnUse" gradientTransform="translate(9.073 -1121.746)"/><linearGradient id="C" x1="264.233" x2="266.049" y1="1505.209" y2="1503.704" xlink:href="#d" gradientUnits="userSpaceOnUse" gradientTransform="translate(9.073 -1121.746)"/><linearGradient id="B" x1="255.886" x2="263.778" y1="1504.661" y2="1513.642" xlink:href="#e" gradientUnits="userSpaceOnUse" gradientTransform="translate(9.073 -1121.746)"/><linearGradient id="A" x1="250.594" x2="260.634" y1="1507.167" y2="1518.866" xlink:href="#f" gradientUnits="userSpaceOnUse" gradientTransform="translate(9.073 -1121.746)"/><radialGradient id="z" cx="247.017" cy="1513.643" r="14.582" xlink:href="#g" gradientUnits="userSpaceOnUse" gradientTransform="translate(9.073 -1121.746)" fx="247.017" fy="1513.643"/><linearGradient id="y" x1="244.283" x2="261.463" y1="1505.286" y2="1525.255" xlink:href="#h" gradientUnits="userSpaceOnUse" gradientTransform="translate(9.073 -1121.746)"/><linearGradient id="x" x1="242.98" x2="260.03" y1="1506.586" y2="1526.39" xlink:href="#i" gradientUnits="userSpaceOnUse" gradientTransform="translate(9.073 -1121.746)"/><linearGradient id="w" x1="238.486" x2="240.81" y1="1525.703" y2="1528.29" xlink:href="#j" gradientUnits="userSpaceOnUse"/><radialGradient id="b" cx="264.885" cy="1499.855" r="8.559" gradientUnits="userSpaceOnUse" fy="1499.855" fx="264.885" gradientTransform="translate(9.073 -1121.746)"><stop offset=".006" stop-color="#FCDFA8"/><stop offset="1" stop-color="#F3841A"/></radialGradient><linearGradient id="c" x1="260.883" x2="274.926" y1="1494.385" y2="1509.797" gradientUnits="userSpaceOnUse" gradientTransform="translate(9.073 -1121.746)"><stop offset=".006" stop-color="#F17912"/><stop offset=".292" stop-color="#FAAF3E"/><stop offset=".59" stop-color="#F17912"/><stop offset="1" stop-color="#73340F"/></linearGradient><linearGradient id="d" x1="264.233" x2="266.049" y1="1505.209" y2="1503.704" gradientUnits="userSpaceOnUse" gradientTransform="translate(9.073 -1121.746)"><stop offset=".006" stop-color="#a82900" stop-opacity="0"/><stop offset="1" stop-color="#8a3e0e"/></linearGradient><linearGradient id="e" x1="255.886" x2="263.778" y1="1504.661" y2="1513.642" gradientUnits="userSpaceOnUse" gradientTransform="translate(9.073 -1121.746)"><stop offset=".006" stop-color="#F17912"/><stop offset=".022" stop-color="#F27D15"/><stop offset=".098" stop-color="#F78E21"/><stop offset=".157" stop-color="#F99326"/><stop offset=".674" stop-color="#C56417"/><stop offset="1" stop-color="#994511"/></linearGradient><linearGradient id="f" x1="250.594" x2="260.634" y1="1507.167" y2="1518.866" gradientUnits="userSpaceOnUse" gradientTransform="translate(9.073 -1121.746)"><stop offset=".006" stop-color="#F17912"/><stop offset=".315" stop-color="#FAAF3E"/><stop offset=".59" stop-color="#F17912"/><stop offset="1" stop-color="#6E290A"/></linearGradient><radialGradient id="g" cx="247.017" cy="1513.643" r="14.582" gradientUnits="userSpaceOnUse" fy="1513.643" fx="247.017" gradientTransform="translate(9.073 -1121.746)"><stop offset=".006" stop-color="#FAAF3E"/><stop offset=".337" stop-color="#FAAF3E"/><stop offset=".652" stop-color="#F17912"/><stop offset="1" stop-color="#73340F"/></radialGradient><linearGradient id="h" x1="244.283" x2="261.463" y1="1505.286" y2="1525.255" gradientUnits="userSpaceOnUse" gradientTransform="translate(9.073 -1121.746)"><stop offset=".006" stop-color="#F17912"/><stop offset=".292" stop-color="#FAAF3E"/><stop offset=".545" stop-color="#FAAF3E"/><stop offset=".652" stop-color="#F17912"/><stop offset="1" stop-color="#73340F"/></linearGradient><linearGradient id="i" x1="242.98" x2="260.03" y1="1506.586" y2="1526.39" gradientUnits="userSpaceOnUse" gradientTransform="translate(9.073 -1121.746)"><stop offset=".006" stop-color="#73340F"/><stop offset=".461" stop-color="#F17912"/><stop offset="1" stop-color="#73340F"/></linearGradient><linearGradient id="j" x1="238.486" x2="240.81" y1="1525.703" y2="1528.29" gradientUnits="userSpaceOnUse"><stop offset=".006" stop-color="#3E444C"/><stop offset=".298" stop-color="#ADBECA"/><stop offset=".477" stop-color="#ADBECA"/><stop offset=".702" stop-color="#828F99"/><stop offset="1" stop-color="#292E33"/></linearGradient><linearGradient id="k" x1="100.512" x2="122.106" y1="48.775" y2="75.352" gradientUnits="userSpaceOnUse"><stop offset="0" stop-color="#FAFAFA"/><stop offset=".579" stop-color="#828B99"/><stop offset=".78" stop-color="#868F9D"/><stop offset=".957" stop-color="#939EAD"/><stop offset="1" stop-color="#98A4B2"/></linearGradient><linearGradient id="v" x1="100.512" x2="122.106" y1="48.775" y2="75.352" xlink:href="#k" gradientUnits="userSpaceOnUse"/><linearGradient id="l" x1="105.015" x2="100.976" y1="53.14" y2="51.033" gradientUnits="userSpaceOnUse" gradientTransform="translate(-65.05 -40.617)"><stop offset="0" stop-color="#EFEEEC"/><stop offset="1" stop-color="#98A7B2"/></linearGradient><linearGradient id="u" x1="105.015" x2="100.976" y1="53.14" y2="51.033" xlink:href="#l" gradientUnits="userSpaceOnUse" gradientTransform="translate(-65.05 -40.617)"/><linearGradient id="m" x1="97.967" x2="124.216" y1="54.748" y2="54.054" gradientUnits="userSpaceOnUse" gradientTransform="translate(-65.05 -40.617)"><stop offset="0" stop-color="#fff"/><stop offset=".105" stop-color="#ECEEF0"/><stop offset=".317" stop-color="#BBC2C8"/><stop offset=".539" stop-color="#828F99"/><stop offset=".858" stop-color="#8895A0"/><stop offset="1" stop-color="#8D9BA6"/></linearGradient><linearGradient id="t" x1="97.967" x2="124.216" y1="54.748" y2="54.054" xlink:href="#m" gradientUnits="userSpaceOnUse" gradientTransform="translate(-65.05 -40.617)"/><linearGradient id="q"><stop offset="0" stop-color="#f0f0f0"/><stop offset="1" stop-color="#f0f0f0" stop-opacity="0"/></linearGradient><linearGradient id="r"><stop offset="0" stop-color="#fff"/><stop offset="1" stop-color="#eeeeec" stop-opacity="0"/></linearGradient><radialGradient id="p" cx="294.624" cy="80.627" r="48.777" fx="294.624" fy="80.627" gradientUnits="userSpaceOnUse"><stop offset="0" stop-color="#BAD1D7"/><stop offset=".826" stop-color="#6D7580"/><stop offset="1" stop-color="#41454C"/></radialGradient><radialGradient id="o" cx="257.459" cy="35.376" r="68.717" fx="257.459" fy="35.376" gradientUnits="userSpaceOnUse"><stop offset="0" stop-color="#fff"/><stop offset="1" stop-color="#8794A0"/></radialGradient><radialGradient id="n" cx="264.957" cy="80.291" r="53.348" fx="264.957" fy="80.291" gradientUnits="userSpaceOnUse"><stop offset="0" stop-color="#BAD1D7"/><stop offset="1" stop-color="#8794A0"/></radialGradient><radialGradient cx="264.957" cy="80.291" r="53.348" xlink:href="#n" gradientUnits="userSpaceOnUse" fx="264.957" fy="80.291"/><radialGradient cx="257.459" cy="35.376" r="68.717" xlink:href="#o" gradientUnits="userSpaceOnUse" fx="257.459" fy="35.376"/><radialGradient cx="294.624" cy="80.627" r="48.777" xlink:href="#p" gradientUnits="userSpaceOnUse" fx="294.624" fy="80.627"/><linearGradient x1="16.601" x2="17.363" y1="19.142" y2="45.175" xlink:href="#q" gradientUnits="userSpaceOnUse"/><linearGradient x1="14.107" x2="39.69" y1="4.772" y2="43.606" xlink:href="#r" gradientUnits="userSpaceOnUse"/><radialGradient id="s" cx="10.068" cy="27.38" r="8.714" xlink:href="#a" gradientUnits="userSpaceOnUse" gradientTransform="matrix(1.147 .023 -.086 4.345 23.053 -106.186)" fx="10.068" fy="27.38"/></defs><g><g><path fill="url(#s)" fill-rule="evenodd" d="M32.54 26.17l-9-17.15c5.07-3.66 13.7-3.17 17.43-.14l-8.43 17.3z" transform="matrix(.459 -.932 .932 .459 -17.743 45.575)"/><path fill="none" stroke="#ef2929" stroke-width="1.04.926" stroke-dashoffset="2.503" d="M20.52 27.06L2.28 18.08" stroke-dasharray="1.9257039, 1.9257039"/><path fill="none" stroke="#ef2929" stroke-width="2.08.889" stroke-dashoffset=".578" d="M1.57 27.74c-.88-5.9 2.58-13.3 7.74-16.5" color="#000" stroke-dasharray="1.44427804, 1.44427804" overflow="visible"/></g><g><path fill="url(#t)" d="M65.07 25.5c0 5.35-6.6 9.27-19.1 9.27-11 0-18.1-4.16-18.1-9.15.02-.2.07-.4.16-.58L46.08-6.94c.22-.4.57-.4.8 0l18.04 31.9c.1.14.14.34.15.55z" transform="matrix(.306 -.635 .636 .304 6.604 56.924)"/><path fill="url(#u)" d="M46.76-7.28l-12.46 40c-5.28-1.7-7-5.9-6.27-7.68L46.5-7.28h.26z" transform="matrix(.306 -.635 .636 .304 6.604 56.924)"/><path fill="none" stroke="#192333" stroke-width=".7.418" d="M41.7 23.28c.57-.04 1.1.05 1.58.28 3.04 1.45 2.83 7.85-.3 14.38-3.15 6.52-8.04 10.68-11.08 9.23-.56-.27-1.02-.7-1.37-1.3L16.2 25.1l25.5-1.82z"/><g transform="matrix(.306 -.635 .636 .304 -39.134 85.883)"><linearGradient x1="100.512" x2="122.106" y1="48.775" y2="75.352" gradientUnits="userSpaceOnUse"><stop offset="0" stop-color="#FAFAFA"/><stop offset=".579" stop-color="#828B99"/><stop offset=".78" stop-color="#868F9D"/><stop offset=".957" stop-color="#939EAD"/><stop offset="1" stop-color="#98A4B2"/></linearGradient><path fill="url(#v)" d="M111.2 35.07l-16.95 29.6c-.5.74-.74 1.5-.74 2.27 0 4.4 8.12 7.95 18.1 7.95 9.98 0 18.1-3.57 18.1-7.96 0-.65-.2-1.3-.54-1.94 0 0-17.52-30.7-17.52-30.7l-.43.77zM94.5 66.94c0-.57.2-1.15.58-1.72l.06-.1s15.68-27.36 16.5-28.8c.83 1.45 16.65 29.17 16.65 29.17.26.47.4.96.4 1.44 0 3.7-8 6.95-17.1 6.95-9.1 0-17.1-3.25-17.1-6.96z"/></g></g><g transform="matrix(.34 -.101 .101 .34 -120.392 -97.336)"><path fill="none" stroke="#3e444c" stroke-width="2.818" d="M255.28 401.7l-9.12 7.4-2.8 1.04 1.37-2.8 8.22-8.23"/><path fill="url(#w)" d="M246.2 1523.44l-9.1 7.4-2.8 1.04 1.36-2.8 8.22-8.22" transform="translate(9.073 -1121.746)"/><path fill="none" stroke="#99440f" stroke-width="2.818" d="M267.38 389.34c3.82 4.48 5.48 12.32 1.72 15.3-3.75 2.98-10.6.97-15.32-4.5-4.7-5.47-5.48-12.32-1.72-15.3 3.75-2.98 11.02-.53 15.32 4.5z"/><path fill="none" stroke="#99440f" stroke-width="2.818" d="M268.74 388.12c3.86 4.52 5.55 12.4 1.8 15.4-3.76 2.97-10.65.92-15.4-4.6-4.74-5.5-5.54-12.4-1.78-15.38 3.75-2.98 11.05-.5 15.38 4.58z"/><ellipse cx="253.555" cy="1514.673" fill="none" stroke="#99440f" stroke-width="2.818" transform="matrix(.783 -.622 .622 .783 -877.939 -635.486)" rx="7.751" ry="11.967"/><path fill="none" stroke="#99440f" stroke-width="2.818" d="M269.8 395.6c-1.6 1.3-4.92.05-7.37-2.78-2.46-2.84-3.14-6.2-1.52-7.5l.2-.14c.53-.33 8.13-6.05 8.43-6.3.36-.26 1.1-1.2 1.47-1.76l8.45 9.5c-.62.28-1.7.94-2.02 1.26-.28.26-7 7-7.4 7.5l-.22.2z"/><path fill="none" stroke="#99440f" stroke-width="2.818" d="M285.07 387.08l1.3-1.1c-2.17 1.64-6.9-.45-10.66-4.73-3.7-4.22-5.13-9.02-3.28-10.9l-1.28 1.3c-1.85 1.88-.45 6.65 3.24 10.84 3.8 4.3 8.6 6.35 10.7 4.58z"/><ellipse cx="270.451" cy="1499.792" fill="none" stroke="#99440f" stroke-width="2.818" transform="matrix(.765 -.644 .644 .765 -893.213 -595.2)" rx="4.981" ry="10.488"/><path fill="url(#x)" d="M267.38 389.34c3.82 4.48 5.48 12.32 1.72 15.3-3.75 2.98-10.6.97-15.32-4.5-4.7-5.47-5.48-12.32-1.72-15.3 3.75-2.98 11.02-.53 15.32 4.5z"/><path fill="url(#y)" d="M268.74 388.12c3.86 4.52 5.55 12.4 1.8 15.4-3.76 2.97-10.65.92-15.4-4.6-4.74-5.5-5.54-12.4-1.78-15.38 3.75-2.98 11.05-.5 15.38 4.58z"/><path fill="url(#z)" d="M268.7 388.1c4.3 5.02 5.08 11.24 1.73 13.9-3.36 2.66-9.57.76-13.87-4.25-4.3-5.02-5.08-11.24-1.73-13.9s9.56-.76 13.87 4.26z"/><path fill="url(#A)" d="M268.55 388.2c2.77 3.23 3.3 7.23 1.16 8.92-2.13 1.7-6.1.45-8.87-2.78-2.77-3.23-3.3-7.23-1.16-8.92 2.13-1.7 6.1-.45 8.88 2.78z"/><path fill="url(#B)" d="M269.8 395.6c-1.6 1.3-4.92.05-7.37-2.78-2.46-2.84-3.14-6.2-1.53-7.5l.2-.14c.53-.33 8.13-6.05 8.43-6.3.36-.26 1.1-1.2 1.46-1.76l8.45 9.5c-.62.28-1.7.94-2.02 1.26-.28.26-7 7-7.4 7.5l-.22.2z"/><path fill="none" d="M269.8 395.6c-1.6 1.3-4.92.05-7.37-2.78-2.46-2.84-3.14-6.2-1.53-7.5l.2-.14c.53-.33 8.13-6.05 8.43-6.3.36-.26 1.1-1.2 1.46-1.76l8.45 9.5c-.62.28-1.7.94-2.02 1.26-.28.26-7 7-7.4 7.5l-.22.2z"/><path fill="url(#C)" d="M279.26 386.7c-1.93-.18-4.13-1.33-5.9-3.24-1.76-1.93-2.66-4.17-2.58-6.02l.22-.32 8.45 9.5-.2.1z"/><path fill="url(#D)" d="M285.07 387.08l1.3-1.1c-2.17 1.64-6.9-.45-10.66-4.73-3.7-4.22-5.13-9.02-3.28-10.9l-1.28 1.3c-1.85 1.88-.45 6.65 3.24 10.84 3.8 4.3 8.6 6.35 10.7 4.58z"/><path fill="url(#E)" d="M283.34 374.84c3.82 4.34 5.22 9.3 3.12 11.07-2.1 1.78-6.92-.3-10.75-4.65-3.8-4.34-5.2-9.3-3.1-11.07 2.1-1.77 6.9.3 10.74 4.66z"/></g></g></svg>