<svg xmlns="http://www.w3.org/2000/svg" width="48" height="48"><defs><radialGradient id="a" cx="1605.673" cy="1675.435" r="26.715" gradientUnits="userSpaceOnUse" gradientTransform="matrix(-1 0 0 1 1624.84 -1655.907)" fy="1675.435" fx="1605.673"><stop offset="0" stop-color="#fff"/><stop offset=".064" stop-color="#FDEED5"/><stop offset=".172" stop-color="#FBD395"/><stop offset=".262" stop-color="#F9BF66"/><stop offset=".331" stop-color="#F7B349"/><stop offset=".371" stop-color="#F7AF3E"/><stop offset=".691" stop-color="#EF7916"/><stop offset="1" stop-color="#A65416"/></radialGradient><radialGradient id="b" cx="1476.977" cy="1690.262" r="20.142" gradientUnits="userSpaceOnUse" gradientTransform="matrix(-.996 -.094 -.094 .996 1654.682 -1545.643)" fy="1690.262" fx="1476.977"><stop offset="0" stop-color="#fff"/><stop offset=".064" stop-color="#FDEED5"/><stop offset=".172" stop-color="#FBD395"/><stop offset=".262" stop-color="#F9BF66"/><stop offset=".331" stop-color="#F7B349"/><stop offset=".371" stop-color="#F7AF3E"/><stop offset=".691" stop-color="#EF7916"/><stop offset="1" stop-color="#A65416"/></radialGradient><radialGradient id="c" cx="634.36" cy="1723.128" r="10.074" gradientUnits="userSpaceOnUse" gradientTransform="matrix(.959 .283 -.283 .959 -99.24 -1830.233)" fy="1723.128" fx="634.36"><stop offset="0" stop-color="#fff"/><stop offset=".064" stop-color="#FDEED5"/><stop offset=".172" stop-color="#FBD395"/><stop offset=".262" stop-color="#F9BF66"/><stop offset=".331" stop-color="#F7B349"/><stop offset=".371" stop-color="#F7AF3E"/><stop offset=".691" stop-color="#EF7916"/><stop offset="1" stop-color="#A65416"/></radialGradient><radialGradient id="f" cx="263.111" cy="1664.644" r="5.507" gradientUnits="userSpaceOnUse" fy="1664.644" fx="263.111"><stop offset="0" stop-color="#fff"/><stop offset=".064" stop-color="#FDEED5"/><stop offset=".172" stop-color="#FBD395"/><stop offset=".262" stop-color="#F9BF66"/><stop offset=".331" stop-color="#F7B349"/><stop offset=".371" stop-color="#F7AF3E"/><stop offset=".691" stop-color="#EF7916"/><stop offset="1" stop-color="#A65416"/></radialGradient><linearGradient id="e" x1="261.09" x2="263.681" y1="1669.586" y2="1667.567" gradientUnits="userSpaceOnUse"><stop offset=".006" stop-color="#F7AF3E"/><stop offset="1" stop-color="#994410"/></linearGradient><linearGradient id="d" x1="261.373" x2="266.339" y1="1664.008" y2="1665.902" gradientUnits="userSpaceOnUse"><stop offset=".006" stop-color="#F7AF3E"/><stop offset="1" stop-color="#994410"/></linearGradient></defs><g><g><path fill="#994410" d="M28.93 2.68l-.58 1.02-.75.24-.42.16-.06.32-.65.2s-.56.4-.62.43c-.06.04-1.1 1-1.1 1l-.35 1.03-.2.5-.12-.6.25-.86.6-.8 2.7-1.93 1.3-.72z"/><path fill="none" stroke="#994410" stroke-width="1.04.438" d="M40.4 9.54c-.7-3.8-3.1-7.1-6.46-8.94l1.1 1.18.7.76.86.48.32.47.3.6 1.25 1.55.56.7.2.83.36.22.14.7.14.86.13.54.4.04z"/><path fill="#994410" d="M33.88.2l1.05 1.96 1.13.44v.34l.4.44.54.75.68 1.04.85.28.47 1 .13.5.27.36.35.54-.08 1.23.28.02v-.82l-.35-1.45-.7-1.16-2.08-2.98L33.88.2z"/><path fill="none" stroke="#994410" stroke-width="1.04.917" d="M14.4 10.25C8.57 13.65 4.65 20 4.65 27.23c0 10.84 8.8 19.63 19.64 19.63 10.83 0 19.62-8.8 19.62-19.63 0-4.35-1.4-8.37-3.8-11.63l-1.62-1.25s-.43-.23-.46-.52l-.77-.32-1.74-.74-1.9-.1h-.6l-.8-.6-.35.15-.32-.32-1.43-.06-.23.45-.74-.03-.3-.57c-.42 0-1.16.4-1.16.4-.23-.35-1.22-.62-1.22-.62l-1.58.02c-.68-.32-1.8-.33-2.55-.36l-1.62-.4-1-.44-1.08-.2-.93-.12-1 .23-1.73.2-.6-.12z"/><path fill="url(#a)" d="M14.8 10.8c-5.58 3.28-9.34 9.35-9.34 16.3 0 10.38 8.43 18.8 18.83 18.8 10.38 0 18.8-8.42 18.8-18.8 0-4.22-1.37-8.1-3.7-11.24l-1.67-1.07-.98-.6-2.13-1.17-1.37.35-.76.08-.54-.52-.5.28-.37-.37h-.95l-.25.3-1.12-.1-.3-.44-7.62-1.05-1.18-.5-.58-.52-.95.13-.6.33-.5.2-2.24-.4z" transform="matrix(1.043 0 0 1.043 -1.05 -1.032)"/><path fill="url(#b)" d="M39.74 10.13c-.7-3.65-3-6.8-6.2-8.57L34.6 2.7l.65.72.84.46.3.45.3.6 1.18 1.47.54.68.2.8.33.2.15.68.13.82.13.52.38.03z" transform="matrix(1.043 0 0 1.043 -1.05 -1.032)"/><path fill="none" stroke="#994410" stroke-width="1.04.438" d="M20.9 2.4l1 .07.48-.1c.55.02 1.7-.14 2-.2.3-.08 2-.75 2-.75s.9 1.84.83 2.03c-.04.18-1.08.56-1.36.72-.27.17-2.4 1.7-2.54 1.83-.14.14-.64.78-.7.88-.05.1-.23.88-.23.88l.12.58c-.1.13-.18.36-.18.36l-.38-1.02.02-.22-.42-.42-.67-1.26-.4.4-.24-.43-.4-.38.5-.58.2-.7.18-.76-.04-.6.23-.33z"/><path fill="url(#c)" d="M21.03 3.3l.98.05.47-.1c.53.03 1.6-.13 1.9-.2.3-.05 1.93-.7 1.93-.7s.85 1.77.8 1.94c0 0-1.05.53-1.3.7-.28.15-2.33 1.6-2.46 1.74 0 0-.5.8-.5.8l-.26.8v.64c-.1.13-.17.35-.17.35l-.36-.98.02-.2-.4-.4-.64-1.22-.4.38-.22-.4-.37-.37.47-.55.2-.66.16-.73-.04-.6.2-.3z" transform="matrix(1.043 0 0 1.043 -1.05 -1.032)"/><g transform="matrix(1.043 0 0 1.043 -242.688 -1728.143)"><path fill="none" stroke="#994410" stroke-width="1.438" d="M261.84 1665.87c-.13.16-.1.82-.18.9.3.2.62.9.75 1.1.13.2.7 1.1.7 1.1s1.4.03 1.54.06c.15.04.9.23.9.23s0-1 .12-1.23c.1-.23.57-1.04.63-1.36.04-.32.2-1.02.24-1.07.03-.05.17-.3.17-.3l-1.7-1.6-1.02.42-.77.6-.1-.03-1.26 1.17z"/><linearGradient x1="261.373" x2="266.339" y1="1664.008" y2="1665.902" gradientUnits="userSpaceOnUse"><stop offset=".006" stop-color="#F7AF3E"/><stop offset="1" stop-color="#994410"/></linearGradient><path fill="url(#d)" d="M261.84 1665.87l1.25-1.18h.1l.78-.58 1.02-.4 1.7 1.58-.68.78-4.18-.2z"/><linearGradient x1="261.09" x2="263.681" y1="1669.586" y2="1667.567" gradientUnits="userSpaceOnUse"><stop offset=".006" stop-color="#F7AF3E"/><stop offset="1" stop-color="#994410"/></linearGradient><path fill="url(#e)" d="M262.66 1665.7s-.7 0-.82.17c-.13.16-.1.82-.18.9.3.2.62.9.75 1.1.13.2.7 1.1.7 1.1s1.4.02 1.54.06c.15.04.9.23.9.23s0-1 .12-1.23c.1-.23.57-1.04.63-1.36.04-.32.2-1.02.24-1.07.03-.05.17-.3.17-.3l-.5.4h-3.54z"/><radialGradient cx="263.111" cy="1664.644" r="5.507" fx="263.111" fy="1664.644" gradientUnits="userSpaceOnUse"><stop offset="0" stop-color="#fff"/><stop offset=".064" stop-color="#FDEED5"/><stop offset=".172" stop-color="#FBD395"/><stop offset=".262" stop-color="#F9BF66"/><stop offset=".331" stop-color="#F7B349"/><stop offset=".371" stop-color="#F7AF3E"/><stop offset=".691" stop-color="#EF7916"/><stop offset="1" stop-color="#A65416"/></radialGradient><path fill="url(#f)" d="M262.66 1665.7s1.45-.92 1.95-1.47c0 0 .77.7.86.7.1 0 .5-.3.5-.3.1.24.25.92.22 1-.04.1-.07.47-.07.67 0 .2-.3 1.18-.42 1.32-.13.14-.6.68-.6.8-.15-.28-.38-1.16-.38-1.16l-.45-.14s-.8.02-.88-.16c-.07-.18-.25-.74-.32-.83-.07-.08-.4-.42-.4-.42z"/></g><path fill="#994410" d="M16.63 29.92l-1.63-.2-2-1.04-1.17-.84L13 28.92l2.6 1.38.54.7-.38.76L14.9 33s.7-.63 1.1-.93c.37-.3 1.22-1.54 1.6-1.77.4-.23 1.02-.38 1.4-.4l.5.6.7-.16c.5-.3 1.02-.8 1.32-.8.28 0 .8-.75 1.34-.98.53-.23 1.28-.57 1.28-.57s-.62.15-.8.2c-.23.04-.7.32-.97.5-.27.2-.8.53-.8.53s-.5-.07-.63-.07c-.1 0-.66.58-.87.58 0 0-.6-.26-.74-.33-.14-.05-.37.06-.9-.26-.2-.12-.53 0-.73-.07l-.3-.46c.02-.08.2-.82.16-.96l-.6-.7c.23.3.32.84.32.84l-.14.4c-.37-.33-.53-.22-.97-.52l.8.65-.1.47.16.4-.4.75z" opacity=".8"/><path fill="#7f380d" d="M15.15 29.5l1.43.18.62-.74-.02-.7.25.54.3.2.62-.08.97.25.67.42.68-.47.57-.18h.26l-.55.25-.64.5-.82.26-.5-.57-.52.07-1.42.4-.72 1.23-.7.58.63-1.02-.07-.46-1.03-.66z" opacity=".8"/><g fill="#994410"><path d="M37.35 27l-.03.1c.02-.05.03-.08.03-.1z" opacity=".8"/><path d="M43.56 31.53l-1.43.5-.26-.3s-.3.33-.67.33c-.38 0-1.14.17-1.44.04-.3-.12-.46-.97-.46-.97l-.76-.42-.9-.96-.7-.85.08-.98.33-.93-.18-.28c-.13.25-.8 2.1-.7 2.42.08.34.42 1.82.5 2.16.1.34.2.9.2.9l-.62.87s-.16 1.1-.27 1.2c-.4.34-1.75.52-1.92.52 0 0-.68-1.13-.72-1.3-.05-.17-.55-1.36-.85-1.52-.3-.17-1.74-.47-1.74-.47l-1.35.1-.4.08-.44-.72s.1-1.22.26-1.52c.17-.3 1-1.6 1.35-1.94.34-.34 1.05-1.52 1.14-1.65.1-.13 2.08-1.14 2.08-1.14l1.14.3s-.17.47.04.55c.2.1 1.27.6 1.52.72.26.13.97.72.97.72l.6.37s.2-1.06.2-1.27c0-.2.56-1.27.56-1.27l.5-.8.73-.3.1-.6.32-.62.64-.83-.73.6-.46.96-.75.08-.43.85-1.7.47-.66.42-.64-.3-.6-.4c-.37 0-1.43-.06-1.76 0-.34.03-2.37 1.47-2.37 1.47s-.94.94-.94 1.2c0 .24.1.58-.13.58-.2 0-.5.1-.67.25-.17.17-.38.43-.5.55-.14.13-.6.42-.6.42l.1.64-.52.72-.26.76v.84l-1.35.85-.72.9-.16.37-.46.1-.6.54.6-.3.3.05.33-.08.56-.97.47-.13h.6l.83-.5.3-.6.34.26.67-.34 1.06-.05.97.08.08.5.8-.25c.3.05 1.36 1.57 1.36 1.57l.48 1.24c0 .16 1.05.2 1.05.2l1.13-.27.93.42.3.38-.5.68-.52.43.3.46c.02.05-.16.68-.16.68 0 .25.25 1.17.25 1.43s-.77 2-.77 2-.42.88-.63 1.05c-.2.17-.6.17-.76.34-.17.15-.42.75-.63.87-.2.13-2.2.98-2.2.98s.94-.17 1.28-.3c.34-.13.5-.38.67-.38.17 0 .13.2.13.2s.84-.2 1.44-.66c.04-.33-.68-.3.8-1.26.6-.34.46-.8.63-1.14.13-.38.34-.93.38-1.14.04-.22-.08-.55-.08-.9 0-.33-.3-.75-.2-.96.07-.2.7-.85.8-1.1H37l.1-.3.76-1.06.55-.08.73-.93.38.3s.52.38.56.6c.04.2.63 1.38.63 1.38l.12.52 1.14-1.76s-.85.35-.85.14c0-.22-.32-.16-.32-.4 0-.26-.47-.98-.47-1.1 0-.14 1.07-1.57 1.07-1.57.3-.3.76-.5 1-.5.27 0 .9-.14.9-.14l.3-.57zm-6.45-6.58c.1-.03.64-.06.77-.12s.4-.12.4-.12-.44.74-.55.86c-.12.12-.57.63-.7.54-.13-.1-.6-.58-.6-.58s.6-.55.7-.57zm-9 6.12l-.42.43-.02-.6.24-.48.22.2-.03.45zm1.18-2.95l.36-.24.25.1-.4.74-.27-.3.05-.3zm-.82.82l.58-.56.24.5-.65.64-.17-.58zm2.9 3.24l-.1-.46.63.05.24.17-.78.24zm1.62.85l-.55-.85.46.1.5 1.04-.42-.3zm5.06-1.9h-.4l-.33-.16-.06-.4.63.1.17.45zm-1.06-.98l-.22-.34.07-.3.3.02.67.94-.82-.3zm.33 2.63l.27-.46-.27-1 .94.15s1.18.92 1.43 1.04c.26.14 1.78-.2 1.78-.2s-.9.82-1.22 1.8c0 0-1.45-.65-1.7-.65-.26 0-1.64-.37-1.64-.37l.4-.3zm.92 2.37c-.06.06-.58.1-.58.1l-.63-.4h-.68l-.1-.2 1.6-1s.86.36.9.53c.04.16-.45.92-.5.97z" opacity=".8"/></g><g><path fill="#994410" d="M22.17 44.67l.14-.16s-.55.2-1 .18c-.46-.03-1.73-.5-1.73-.5l-1.06-.4H18l-.1-.2.17-.28.42-.74.57-.08h.4l1.05.37.5.42.05.33.67.4.3-.02c-.03-.12-1.13-1-1.13-1h.58l.04-.08s-.9-.22-1.06-.24c-.16 0-1.06-.6-1.2-.72-.13-.12-.7-.22-.9-.27-.2-.05-.9-.15-.9-.15l-1.04.08-.1.26-.25.15-.5-.14-1.42.16c-.1 0-.86-.52-1.06-.65-.2-.14-.53-.14-.72-.25-.18-.12-.48-.5-.7-.66-.22-.17-2.06-1.7-2.06-1.7l-.08.14 1.88 1.6.32.56s-.38.3-.63.36c0 0 .5.47.85.65l.38-.37 1.33 1.03c.52.25 1 .3 1.33.44.3.15 1.03 1.2 1.03 1.2h.14l.07-.36.28.26.9-.05s.5-.13.8-.06c1.83.5 3.72.83 4.27.8l-.33-.27zM13.5 42.3l-.77-.62.02-.23.92.64.78.6-.94-.4zm3.12 1.55l-.82-.34-.85-.75.53.12.3-.25.96 1.05.75.23-.88-.05zm.34-.45c-.3 0-.78-.9-.93-1-.15-.07-.57-.2-.57-.2.66.08 1.45-.28 1.87-.3.42 0 .96.12 1.07.24 0 0-.3.2-.43.36-.14.15-.73.92-1 .9z" opacity=".8"/></g><g><path fill="#994410" d="M23.62 35.25l.17-.3.2-.25-.28.07-.4.75-.33-.2-.1.8-.76.22-1.04 1.07-.8.1-.68.2-.53.46-.76-.12-1.1-.22-1.03-.7v-.3l-.8-1-.15-.28.14-.36-.57-.77-.27-.62.3-.65-.36.05-.16.2h-.32l-.08-.22h-.8l.68.35.2.38.45.55.15.5-.24.47.04.15.37-.32.2.05v.27l.34.5.34.66.46.54-.07.22.07.24.58.02v.3l-.14.36.22-.1.24-.27.46.33.58.02.84.22.44.24v.35l.2.34.6-.35.8.27s1.74-.05 2.3-.13l.07-.13-.75-.07v-.58l-.68-.05-.43-.34-.58-.3.6-.6.5-.2.77-.5.42-.16-.62 2.15v.58l.82-2.8-.07-.4.27-.48.02-.17zm-2.45 3.2l.54.12.2.22.46.1.05.27h-.84l-.4-.38v-.35zm-.04.58l-.6-.07-.42-.22-.3-.46.6-.48.34.82.4.4z" opacity=".8"/></g><path fill="#994410" d="M5.17 21.15l.4-.1.75 1.1.14.42.55.47h.7l1.52.96.55.88-.18.23-.84-.08-.64-.56h-.46l.5.23.55.6.9.18.45.4.05-.26-.14-.28.28-.32.4.6.33 1 .5.56v-.27l-.3-.45-.57-1.3-.04-.46.37.1 1.7.86.92.56 1.76.83-.46-.46-.7-.3-2.2-1.14-.82-.68-.12.1-.5-.06-.32-.5-.05-.63-.17-.24-.13.1.1.22-.07.28-.33-.03-.36-.3-.07-.55-.3-.44-.1.05.14.35-.08.5-.45-.1-.76-.38-.27-.35.15-.25.35-.05-.1-.14-.07-.25-.06-.3h-.62l.07.28-.3.1-.3-.34-.04-.43-.18-.24-.24-.15-.37.14-.33.1-.07.15z" opacity=".8"/><path fill="#994410" d="M6.3 27.5h.73l.07.15h.28l.16-.3-.26-.4v-.5l.08.3.14.3.28.44.28.77s.38.58.56.74c.18.17.7.37.7.37l.34.48h.36v.28l-.26.28-.22-.17-.44-.5-.58-.32-1.13-.35-.17.14.4.47-.58-.42-.36-.18-.4-.54-.57-.22-.4-.25-.24-.54-.07-.6-.06-.57-.42-.58.32.12.42.72v.65l-.03.38.4.44s1.08.54 1.26.64c.18.1.48.03.48.03l-.25-.4-.32-.2v-.38l-.52-.26z" opacity=".8"/><path fill="#994410" d="M19.47 39.14l-.02.8-.24.13.03.5.3.3-.03.48v.42l.02.33.16-.45-.05-.7.12-.35-.2-.1-.03-.4.16-.48.02-.44-.23-.04z" opacity=".8"/><path fill="#994410" d="M24.45 45.26h1.68l.1-.4.04-.45.1.5v.4h.17l.06-.58.26.34.34.2.83-.12.85-.27v.18l-.65.16-.26.1.96-.04 1.28.1.83-.3.6.06s-.97.94-2.13 1.35c-1.16.4-3.37.47-4.26.48v-.57l1.12-.08.47-.15.28-.26-.23-.2-.6-.08.12-.15h-1.33l-1.1-.17.48-.04z" opacity=".8"/><path fill="#994410" d="M20.63 46.33l.8-.06v-.13l.88-.07 1.37.05.1.2h.8l.94.2.05.32s-1.72.3-2.53.22c-.82-.08-2.65-.44-2.65-.44l.26-.3z" opacity=".8"/><path fill="#994410" d="M27.1 29.5l-.36-.27-1.2-.36-.3-.33-.3.24h-.57s-.2.2-.57.33c.24-.1.4-.38.6-.5.2-.1.26-.3.26-.3h-.38l-.12-.2h-.2l.26-.15s-.03-.62.15-.7c.17-.1.38-.43.53-.37.15.06.2.33.48.33.26 0 .86-.6.94-.6.1 0 1.58-.73 1.9-.93.33-.2.7-.57.7-.57l.46-.18s.62-1.15.74-1.5c.12-.37.45-1.46.5-1.52.07-.06.6-.12.6-.12l.27.12.34-.54s-.1-.65 0-.7c.1-.07.4-.16.42-.3.03-.15-.1-1.2 0-1.34.1-.15.9-1.22.83-1.4 0 0 .34-.08.43-.2l-.23.74V19s-.66 1.4-.78 1.56c-.12.15-.38.33-.44.42-.06.1-.54 1.24-.68 1.48-.15.24-1.4 2.2-1.46 2.43-.06.23-.06 1.5-.06 1.5s.06.45.06.6c0 .14.07.4.07.4l.13.65-.84.23.02-.77s.2-.62.2-.8c0-.18-.02-.7-.02-.85h-.2l-.43.2-1.42.95s-2.05.9-2.08 1.04c-.03.15-.12.36.1.47.2.13.6.16.6.16l.5.18.7.18.54-.06v.2l-.65-.02-.05.35z" opacity=".8"/><path fill="#994410" d="M13.9 10.3s4.2-.65 4.36-.65c.16 0 1 .36 1 .36s.32.1.68.22c.37.13.94.4 1.35.4.4 0 1.58.14 1.8.14.2 0 2.43.47 2.6.52.2.05 1.13.24 1.13.24l.8.3.37.06.36-.13.5-.08.4.44h.7l.04-.27 1.77.1.2.2h.32s.66.56.9.53c.23-.02.85-.3 1.06-.3.2-.04.84.2.95.22.26.07 2.43 1 2.43 1s.47.33.73.46 2.1 1.63 2.2 1.8c-.35-.12-1.07-.06-1.07.5-.5-.7-.97-.98-.97-.98s-.54.06-.64-.1c-.1-.16-.55-.53-.55-.53l-.2.16.23.67-.3-.34-.22-.67-.5-.18s-.33 0-.4-.06c-.08-.06-.7-.17-.8-.06-.1.1-.53.45-.66.7-.13.27-.2.56-.2.56s-.27.28-.43.33c-.15.06-.36.14-.36.14l-.07.3s.3.15.3.26c0 .1 0 .78-.12.88 0-.15-.22-.26-.22-.26-.1-.28-.3-.57-.3-.57s-.38.1-.45 0c-.08-.1-.52-.17-.63-.38-.1-.2-.34-.73-.34-.73l-.46.3-.06.37.34.44.4.35.1.28-.2-.1-.27-.24s-.28-.34-.62-.4c-.1-.1-.34-.54-.34-.54l-.96-.3s-.4-.14-.47-.12c-.06.03-1.47 0-1.47 0s-.28-.78-.44-.8c-.16-.03-4.82-1.22-5.18-1.17-.36.05-1.35 1-1.35 1s-.34.43-.44.5c-.1.08-.4.1-.45.2-.05.12.06.53 0 .64-.05.1-.7.14-.7.14s-.4.36-.7.73c-.28.36-.62 1-.62 1 .1-.46.6-1.24.75-1.42.17-.18.92-.75.97-1.04.05-.28.52-.9.7-1.05.2-.16.42-.47.42-.47s-.53-.44-.66-.47c-.13-.02-.73-.15-.83-.07-.1.08.22.5.1.57-.1.08-.43-.4-.56-.54-.13-.13-.34-.65-.47-.73-.13-.08-.02-.36-.3-.57-.3-.2-.87-.2-.97-.36-.1-.16-.3-.84-.3-.84l-.5-.44-.42.08-.65.28-1.13-.4z"/><path fill="#e57617" d="M17.23 9.6l.78.72.26.48.9.64.6.02.92.6 1.96.44.42-.46.6-.17.4.2.72.18h.8l-2.64-.55-.5.17-1.6-.2-.5-.73-.85-.12-.3-.42-.63-.04-.55-.3-.8-.46z" opacity=".8"/><path fill="#f0a93b" d="M27 13.2l.8.43.42.35-.17-.53.13-.22.83.3.36-.2.7.04.13-.22-1.28.08-.35-.3.66-.4 1.4.05h1.04l-1.35-.22-.66-.04-.26-.22.26-.35h-.87l-.5.17-.5-.34.07.2.22.32-.53.22-.26-.22-.34-.1-.48-.47-.3-.3h-.8l.57.2.35.63-.48-.05-.04.4-.57.1-.65.12 1.32.3.96.62.17-.35z" opacity=".8"/><path fill="#e57617" d="M35.12 13.23l-.9-.52-.9.45-.95-.26-.52.9h-.88l-.6.08 1.18.3 1.48.06.65-.17.7-.75.74-.1z" opacity=".8"/><path fill="#f7af3e" d="M28.83 12.97l.35-.3 1.62-.05.44.22-.3.1-.53.08h-.95l-.62-.05z" opacity=".8"/><path fill="#ef7916" d="M22.28 10.7l.92.35.48-.2.54.27.9.12-.13.2-.66-.04-1.1-.13-.96-.57z" opacity=".8"/><path fill="#e57617" d="M19.76 10.35l.65-.1 1.37.52 1.1.58-.88-.3-.87-.3-.45-.05-.92-.35z" opacity=".8"/><path fill="#e57617" d="M29.9 11.85l.78-.2 1.04.13 1.3.5.4.46h-1.44l-.07-.4-1.1-.22-.9-.27z" opacity=".8"/><path fill="#994410" d="M6.03 35.1l-.27-.48.3-.3.54.67.5.34.26.34.37-.15-.08-.27.12-.12-.36-.1-.58-.32.12-.24.98.14.17-.2-.33-.3-.36-.3-1.1-1.18.2-.5-.17-.53.1-.92-.27-.96.14-.15.9 1.5-.04.44 1.35 1.65-.7-1.03.02-.5h.35l.05-.45-.62-.62-.07-.5-.22.4-.43-.46-.25-.62-.5-.42L6 28.3l.2-.25-.57-.38-.28.55-.02.32-.22-.22-.8-.63-.1-.4-.06-.47v1.22l.05.2.4.54.1.48.1-.4.3-.22.57.5.32.36-.15.6.26.43.07 1-.34.65-.4-.25v-.44l.22-.33-.35-.64-.22-.4.17.72.15.34-.2.2.05.58.35.68.27.5.14.5-.2.3-.2-.46-.48-.7.25.9.68 1.4z" opacity=".8"/><path fill="#652d0e" d="M25.55 33.37l.42-.54 1-.53.6-.48.96-.65-.1-.9-.36-.36.3-.4.1.38.33-.24-.08.44-.07 1.13.17.35-.48.24-.44-.03-.68.7-.6.32-.5.13-.57.44z" opacity=".8"/><path fill="#652d0e" d="M20.87 46.42l.75-.25.8-.25 1.02.08.75.25 1.4.04 1.54-.42.25-.42-.55-.33-.37-.24.2-.23.13.2.38.18 1.24.08h1.62l.96-.25-1.08.58-2.12.7-1.58.26-1.2.2-2.78.05-1.37-.25z" opacity=".8"/><path fill="#652d0e" d="M5.52 32.2l.36.58.26.95-.15.18.6.74-.02.08.48.34.3.27.15-.03-.23-.2-.48-.33-.12-.23.15-.24 1 .08-.9-.33-.77-.88-.12-.68.14-.77-.05.1-.3.5-.23-.15-.26-.12.18.14z" opacity=".8"/><path fill="#994410" d="M41.23 21.8l.42-.7.1-.43.34-.2.15-.37-.25-.84-.36-.5-.2-.64h-.3l-.4.43-.17-.4-.1-.34-.03-.8.4-.18.23-.65c.4.44 2.22 4.66 2.63 6.02-.32-.67-.5-.8-.5-.8l-.2-.07-.28-.8-.23-.27-.14.4.16.53-.06 1.15.32 1.23.18.63.86.62.17.86-1.5-1.07-.12-.1.06-.14.2-.33-.1-.56-.3-.7-.07-.8-.33.27-.15-.55-.36.32-.32.1-.4.5v-.14l.6-.7z" opacity=".8"/><path fill="#652d0e" d="M30.03 27.87l1.28-2.2 1.17-.77.8-.4.6-.1 1.37.37.52.63.57.22.9.8.6.67-.48-.37-.65-.5-.77-.4h-.3l-.23.22.08-.34-.17-.14-.35-.24-.02-.42-.62-.23-.84-.1-1.98 1.1-1.45 2.2z" opacity=".8"/><path fill="#652d0e" d="M37.72 26.94l.32-1.34 1-1.72.8-.28.2-.5.42-.94.32-.3-.5.4-.57 1.1-.6.1-.45.76-.76.25-1.06.28-.65.43.07.34.1-.13.56-.52.9-.28h.52l-.16.53-.72.92-.34.3.58.6z" opacity=".8"/><path fill="#652d0e" d="M37 27.6l-.24.6-.07 1.2.12-.07.42.04-.42-.46.02-.7.16-.6z" opacity=".8"/><path fill="#652d0e" d="M37.24 29.37l.8 1.12.16.76.6.42.35.26.4.22-.14-.35-.3-.43-.9-.68-.1-.34-.86-1z" opacity=".8"/><path fill="#652d0e" d="M37.85 33.65l1 .1.65.34.6.23.5 1.12.4.6.02.9-.6-.96-.16-.66-.8-.86-.5-.26-1.1-.57z" opacity=".8"/><path fill="#652d0e" d="M36.38 38.08l.05.4.2.87L36 41.3l-.47.9.68-.57.42-1.58.16-.72-.1-.77-.2-.57.45-.67-.1-.48.45-.82-.46.5-.1.54-.34 1z" opacity=".8"/><path fill="#994410" d="M33 17.46l-.68-.4-.4-.23.63.5v.58l-.04.38.5-.82z"/><path fill="#994410" d="M33.23 17.14l.17-.4.16.26-.28.23-.05-.1z"/><path fill="#994410" d="M39.43 15.92l1.05.68v.2l-.72-.5-.33-.38z"/><path fill="#652d0e" d="M31.27 21.67l-.4.03-.77 1.67-.64 1.28-.57.36-3.22 2.1-.97-.1-.26.46.34.2.46-.3.77-.3 2.22-1.24 1-.8.4-.27.48-1.07 1.17-2z" opacity=".8"/><path fill="#652d0e" d="M11.2 41.52l.7-.3-.18-.52.32.27.4.2.1.37.22.23.84.7 1.07.36.47.13.47.52.9.37-.37-.03-.07.3-.33-.4-.6-.57-.8-.32-.58-.17-.94-.65-.47-.3-.34.1-.33.06-.47-.34z" opacity=".8"/><path fill="#652d0e" d="M12.9 41.33l1.22.74 1.47-.12.42.12-.57.08-.1.1.47.17.14.16-.3-.1-.5.18-.52-.13-.6-.35-.62-.4-.5-.45z" opacity=".8"/><path fill="#652d0e" d="M16.64 41.8l1-.18 1.63.38.74.52-1-.27-.5-.27-.83-.25-1.03.07z" opacity=".8"/><path fill="#652d0e" d="M16.86 43.5l.6-.08.7-.86.12.1-.68.94.34.25.85.13 1.16.43-1.53-.37-.67-.1-.67-.33-.24-.1z" opacity=".8"/><path fill="#652d0e" d="M29.2 24.93l.38.24.03.85-.02 1.33.2.3.1-.3-.16-.37v-1.03l-.07-1.36-.45.33z" opacity=".8"/></g></g></svg>