<svg xmlns="http://www.w3.org/2000/svg" width="48" height="48" xmlns:xlink="http://www.w3.org/1999/xlink"><defs><linearGradient id="e"><stop offset="0" stop-color="#ce5c00"/><stop offset="1" stop-color="#ce5c00" stop-opacity="0"/></linearGradient><linearGradient id="c"><stop offset="0" stop-color="#fce94f"/><stop offset="1" stop-color="#fce94f" stop-opacity="0"/></linearGradient><linearGradient id="d"><stop offset="0" stop-color="#fff"/><stop offset="1" stop-color="#fff" stop-opacity="0"/></linearGradient><linearGradient id="b"><stop offset="0" stop-color="#ffca95"/><stop offset="1" stop-color="#f57900" stop-opacity="0"/></linearGradient><linearGradient id="a"><stop offset="0"/><stop offset="1" stop-opacity="0"/></linearGradient><linearGradient id="j"><stop offset="0" stop-color="#b89500"/><stop offset="1" stop-color="#655200"/></linearGradient><linearGradient id="f"><stop offset="0" stop-color="#c4a000" stop-opacity="0"/><stop offset=".5" stop-color="#c4a000" stop-opacity="0"/><stop offset=".75" stop-color="#c4a000" stop-opacity=".498"/><stop offset="1" stop-color="#c4a000" stop-opacity="0"/></linearGradient><linearGradient id="g"><stop offset="0" stop-color="#c4a000"/><stop offset="1" stop-color="#c4a000" stop-opacity="0"/></linearGradient><linearGradient id="k"><stop offset="0" stop-color="#fff"/><stop offset=".5" stop-color="#fff"/><stop offset="1" stop-color="#c8c8c8"/></linearGradient><linearGradient id="h"><stop offset="0" stop-color="#fd7121"/><stop offset="1" stop-color="#b24202"/></linearGradient><linearGradient id="i"><stop offset="0" stop-color="#ffef63"/><stop offset=".5" stop-color="#f6e131"/><stop offset="1" stop-color="#cab500"/></linearGradient><radialGradient id="w" cx="26.893" cy="45.357" r="16.893" xlink:href="#a" fx="26.893" fy="45.357" gradientTransform="matrix(1 0 0 .173 0 37.494)" gradientUnits="userSpaceOnUse"/><linearGradient id="t" x1="7.571" x2="7.643" y1="17.75" y2="6.25" xlink:href="#b" gradientUnits="userSpaceOnUse" gradientTransform="translate(-61.857 -2.071)"/><radialGradient id="n" cx="19.255" cy="11.037" r="9.571" xlink:href="#c" fx="19.255" fy="11.037" gradientTransform="matrix(1.537 .005 -.003 1.108 -72.206 -4.857)" gradientUnits="userSpaceOnUse"/><radialGradient id="l" cx="18.396" cy="13.279" r="9.571" xlink:href="#c" gradientUnits="userSpaceOnUse" gradientTransform="matrix(1.305 -.005 .005 1.332 -51.789 3.437)" fx="18.396" fy="13.279"/><linearGradient id="o" x1="5.643" x2="5.643" y1="10.107" y2="3.821" xlink:href="#d" gradientUnits="userSpaceOnUse" gradientTransform="translate(-53.286 -3.929)"/><linearGradient id="p" x1="5.643" x2="5.643" y1="10.107" y2="3.821" xlink:href="#d" gradientUnits="userSpaceOnUse" gradientTransform="translate(-43.143 -4.214)"/><linearGradient id="q" x1="5.643" x2="5.643" y1="10.107" y2="3.821" xlink:href="#d" gradientUnits="userSpaceOnUse" gradientTransform="matrix(1 0 0 1.624 -36.286 2.184)"/><linearGradient id="r" x1="5.643" x2="5.643" y1="10.107" y2="3.821" xlink:href="#d" gradientUnits="userSpaceOnUse" gradientTransform="matrix(.55 0 0 1.387 -42.886 -7.009)"/><linearGradient id="s" x1="5.643" x2="5.643" y1="10.107" y2="3.821" xlink:href="#d" gradientUnits="userSpaceOnUse" gradientTransform="matrix(.55 0 0 1.086 -28.671 6.538)"/><linearGradient id="m" x1="5.643" x2="5.643" y1="10.107" y2="3.821" xlink:href="#d" gradientUnits="userSpaceOnUse" gradientTransform="matrix(.55 0 0 1.086 -31.957 7.466)"/><linearGradient id="u" x1="7.5" x2="7.5" y1="19.036" y2="5.25" xlink:href="#e" gradientUnits="userSpaceOnUse" gradientTransform="translate(-61.857 -3)"/><linearGradient id="v" x1="5.571" x2="5.571" y1="21.464" y2="8.679" xlink:href="#e" gradientUnits="userSpaceOnUse" gradientTransform="translate(-61.857 -3)"/><radialGradient id="z" cx="16.64" cy="9.727" r="9.75" xlink:href="#f" gradientUnits="userSpaceOnUse" gradientTransform="matrix(-1.59 -.601 .604 -1.456 37.217 33.948)" fx="16.64" fy="9.727"/><linearGradient id="D" x1="26.464" x2="14.964" y1="19.565" y2="22.958" xlink:href="#g" gradientUnits="userSpaceOnUse" gradientTransform="matrix(.993 -.136 .136 .993 -1.532 1.458)"/><radialGradient id="C" cx="7.053" cy="13.672" r="5.445" xlink:href="#h" gradientUnits="userSpaceOnUse" gradientTransform="matrix(1.735 .88 -.908 1.79 8.66 -18.743)" fx="7.053" fy="13.672"/><radialGradient id="B" cx="29.257" cy="35.182" r="11.09" xlink:href="#i" gradientUnits="userSpaceOnUse" gradientTransform="matrix(1.79 -.345 .185 .958 -28.976 10.015)" fx="29.257" fy="35.182"/><radialGradient id="x" cx="22.21" cy="22.346" r="21.273" xlink:href="#i" gradientUnits="userSpaceOnUse" gradientTransform="matrix(1.309 -.328 .318 1.268 -13.291 -.569)" fx="22.21" fy="22.346"/><linearGradient id="y" x1="23.314" x2="24.995" y1="5.513" y2="45.655" xlink:href="#j" gradientUnits="userSpaceOnUse" gradientTransform="matrix(1.096 0 0 1.096 -1.639 -4.206)"/><radialGradient id="A" cx="17.755" cy="14.521" r="2.415" xlink:href="#k" gradientUnits="userSpaceOnUse" gradientTransform="matrix(1.038 -.016 .02 1.157 -.961 -2.016)" fx="17.755" fy="14.521"/></defs><g><path fill="url(#l)" d="M-35.7 20.36V8.14h18.56l-.65 19.22z"/><path fill="url(#m)" d="M-29.3 11.5h.8v7.2h-.8z" color="#000" overflow="visible" enable-background="accumulate"/><path fill="url(#n)" d="M-51.57 9.14v-12.2h18.14V12z"/><path fill="url(#o)" d="M-48.43-.2H-47v6.63h-1.43z" color="#000" overflow="visible" enable-background="accumulate"/><path fill="url(#p)" d="M-38.3-.5h1.44v6.64h-1.43z" color="#000" overflow="visible" enable-background="accumulate"/><path fill="url(#q)" d="M-31.43 8.2H-30V19h-1.43z" color="#000" overflow="visible" enable-background="accumulate"/><path fill="url(#r)" d="M-40.2-1.86h.77v9.22h-.78z" color="#000" overflow="visible" enable-background="accumulate"/><path fill="url(#s)" d="M-26 10.57h.8v7.2h-.8z" color="#000" overflow="visible" enable-background="accumulate"/><path fill="url(#t)" d="M-58.43 11.64v-9l7.22-2V9.7l-4.16 2.73z"/><path fill="url(#u)" d="M-54.64 2.7h.78v9.23h-.78z" color="#000" overflow="visible" enable-background="accumulate"/><path fill="url(#v)" d="M-57 5.5h1.43v6.64H-57z" color="#000" overflow="visible" enable-background="accumulate"/><path fill="url(#w)" d="M43.8 45.36a16.9 2.93 0 1 1-33.8 0 16.9 2.93 0 1 1 33.8 0z" transform="matrix(1.286 0 0 1.476 -10.374 -22.998)" color="#000" overflow="visible" enable-background="accumulate"/><path fill="url(#x)" stroke="url(#y)" stroke-width=".75" d="M19.3 1.77c6.87-.22 9.95 6.08 9.95 9.6 0 3.5-2.65 7.5-2.65 7.5 2.74-.86 6.15-1.3 8.04-1.5 1.44-.17 3.96-4.6 6.13-4.53 2.13.08 6.07 7.82 6.1 13.85.05 8.43-3.03 12.53-6.3 14.82-1.4 1-6.12 3.05-11.17 3.83-5.37.82-11.07.3-13.33-.4C11.7 43.6 4.9 39.03 4.5 31.63c-.36-6.22 2.74-7.97 3.87-9.17 1.2-1.28 2.55-1.86 2.55-3.36 0-1.5-1.65-3.66-1.65-7.8 0-4.16 3.8-9.68 10.03-9.53z"/><path fill="url(#z)" d="M28.6 13.98a9.75 9.63 0 1 1-19.5 0 9.75 9.63 0 1 1 19.5 0z" transform="matrix(1.034 0 0 1.083 -.253 -3.024)" opacity=".578" color="#000" overflow="visible" enable-background="accumulate"/><path fill="url(#A)" stroke="#917600" stroke-width=".223" d="M20.15 15.07a2.26 2.3 0 1 1-4.52 0 2.26 2.3 0 1 1 4.52 0z" transform="matrix(2.269 0 0 2.223 -21.146 -20.064)" color="#000" overflow="visible" enable-background="accumulate"/><path d="M21.73 15.02a3.16 3.34 0 1 1-6.33 0 3.16 3.34 0 1 1 6.33 0z" color="#000" overflow="visible" enable-background="accumulate"/><path fill="#eeeeec" d="M18.6 13.75a1.07 1.17 0 1 1-2.13 0 1.07 1.17 0 1 1 2.13 0z" color="#000" overflow="visible" enable-background="accumulate"/><path fill="url(#B)" stroke="#c4a000" stroke-width=".5" d="M19.5 38.87c-.22-2.13.5-6.12 2.74-7.28 2.22-1.16 6.67-1.08 8.3-1.6 1.62-.5 7-3.63 8.55-3.6 1.53.06 1.96 1.85 2.1 2.63.12.77-.78 3.12-.78 3.12s.86 1.5.73 2.57c-.13 1.03-1.5 2.44-1.5 2.44s.64 1.15-.98 2.52c-1.05.88-3.38 3.64-8.94 4.58-3.97.68-9.8-1.27-10.23-5.4z" color="#000" overflow="visible" enable-background="accumulate"/><path fill="#c4a000" d="M40.75 30.1c-2.52 3.28-5.57 5.22-8.76 7.4 2.96-1.8 5.92-2.6 8.88-5.94z" color="#000" overflow="visible" enable-background="accumulate"/><path fill="#c4a000" d="M41.1 34.28c-3.6 3.8-5.95 5.47-8.8 7.2 2.67-.86 4.83-1.6 7.4-4.28 1.23-1.35 1.28-2.12 1.4-2.92z" color="#000" overflow="visible" enable-background="accumulate"/><path fill="none" stroke="#fef5b1" stroke-width=".5" d="M19.4 2.26c6.6-.2 9.42 5.95 9.42 9.32S25.6 19.8 25.6 19.8c2.62-.84 7.54-1.88 9.36-2.07 1.38-.15 3.62-4.44 5.7-4.37 2.05.07 5.7 7.7 5.74 13.5.05 8.1-3.3 12.24-6.44 14.44-1.35.95-6 2.8-10.85 3.53-5.15.8-10.9.33-13.07-.35-4.2-1.3-10.57-6.07-10.97-13.16-.33-5.97 2.75-7.7 3.84-8.84 1.14-1.23 2.54-1.86 2.54-3.3 0-1.44-1.68-3.83-1.68-7.8 0-4 3.67-9.25 9.65-9.12z"/><path fill="url(#C)" stroke="#ae4d00" stroke-width=".5" d="M9.74 8.65c-.78-.2-2.57 1.32-3.87 1.74-1.3.4-3.47-.53-3.53.9-.06 1.4 2.43 5.08 3.7 5.87 1.27.8 5.72 1.98 6.27 1.57.57-.4.55-.95.23-1.96-.45-1.38-1.66-3.23-1.95-4.37-.3-1.14-.06-3.53-.84-3.75z"/><path fill="#fff" d="M12.3 16.13c-2.96 1.03-4.77-.08-6.82-.75 1.3 1.16 2.73 2.26 7.1 1.6z"/><path fill="url(#D)" d="M28.83 13.7c-2.25 5.1-5.62 7.93-12.43 8.7 4.83.3 8.8-.7 10.58-3.77 1.54-3.06 1.46-3.64 1.85-4.94z"/></g></svg>