<svg xmlns="http://www.w3.org/2000/svg" width="48" height="48" xmlns:xlink="http://www.w3.org/1999/xlink"><defs><linearGradient id="c" x1="27.577" x2="36.023" y1="224.166" y2="212.129" gradientUnits="userSpaceOnUse"><stop offset="0" stop-color="#A0C6DE"/><stop offset="1" stop-color="#fff" stop-opacity="0"/></linearGradient><linearGradient id="b" x1="27.481" x2="35.937" y1="223.883" y2="211.616" gradientUnits="userSpaceOnUse"><stop offset="0" stop-color="#CEE4F2"/><stop offset="1" stop-color="#fff" stop-opacity="0"/></linearGradient><linearGradient id="a" x1="22.823" x2="31.279" y1="224.44" y2="212.172" gradientUnits="userSpaceOnUse"><stop offset="0" stop-color="#CEE4F2"/><stop offset="1" stop-color="#fff" stop-opacity="0"/></linearGradient><linearGradient id="f" x1="8.739" x2="26.854" y1="229.807" y2="213.778" gradientUnits="userSpaceOnUse"><stop offset=".022" stop-color="#D9E8F2"/><stop offset=".197" stop-color="#A0C6DE"/><stop offset=".35" stop-color="#ACCDE2"/><stop offset=".625" stop-color="#CBE0ED"/><stop offset=".988" stop-color="#fdfefe" stop-opacity=".469"/><stop offset="1" stop-color="#fff" stop-opacity="0"/></linearGradient><linearGradient id="e" x1="30.777" x2="11.254" y1="217.268" y2="233.465" gradientUnits="userSpaceOnUse"><stop offset=".006" stop-color="#fff" stop-opacity="0"/><stop offset=".832" stop-color="#CEE4F2"/><stop offset="1" stop-color="#fff" stop-opacity="0"/></linearGradient><linearGradient id="d" x1="27.726" x2="8.203" y1="213.433" y2="229.63" gradientUnits="userSpaceOnUse"><stop offset=".006" stop-color="#fff" stop-opacity="0"/><stop offset=".832" stop-color="#CEE4F2"/><stop offset="1" stop-color="#fff" stop-opacity="0"/></linearGradient><radialGradient id="v" cx="-80.391" cy="195.997" r="3.379" gradientUnits="userSpaceOnUse" gradientTransform="translate(104.198)" fy="195.997" fx="-80.391"><stop offset=".006" stop-color="#FCDFA8"/><stop offset=".388" stop-color="#FAAF3E"/><stop offset="1" stop-color="#F3841A"/></radialGradient><linearGradient id="u" x1="-81.97" x2="-76.426" y1="193.838" y2="199.923" gradientTransform="translate(104.198)" gradientUnits="userSpaceOnUse"><stop offset=".006" stop-color="#F17912"/><stop offset=".292" stop-color="#FAAF3E"/><stop offset=".59" stop-color="#F17912"/><stop offset="1" stop-color="#73340E"/></linearGradient><linearGradient id="t" x1="-80.706" x2="-79.931" y1="198.169" y2="197.516" gradientTransform="translate(104.198)" gradientUnits="userSpaceOnUse"><stop offset=".006" stop-color="#fff"/><stop offset=".132" stop-color="#F2DDD0"/><stop offset=".302" stop-color="#E3B497"/><stop offset=".468" stop-color="#D69368"/><stop offset=".624" stop-color="#CC7844"/><stop offset=".769" stop-color="#C56529"/><stop offset=".898" stop-color="#C15A1A"/><stop offset="1" stop-color="#BF5614"/></linearGradient><linearGradient id="s" x1="-83.942" x2="-81.284" y1="197.85" y2="200.925" gradientTransform="translate(104.198)" gradientUnits="userSpaceOnUse"><stop offset=".006" stop-color="#fff"/><stop offset=".567" stop-color="#fff"/><stop offset=".611" stop-color="#FDFBF9"/><stop offset=".667" stop-color="#F9EFE9"/><stop offset=".732" stop-color="#F1DBCD"/><stop offset=".802" stop-color="#E7C0A7"/><stop offset=".876" stop-color="#DA9D77"/><stop offset=".954" stop-color="#CA723C"/><stop offset="1" stop-color="#BF5615"/></linearGradient><linearGradient id="r" x1="-83.942" x2="-80.827" y1="197.894" y2="201.44" gradientTransform="translate(104.198)" gradientUnits="userSpaceOnUse"><stop offset=".006" stop-color="#F17912"/><stop offset=".023" stop-color="#F27E16"/><stop offset=".098" stop-color="#F78D22"/><stop offset=".157" stop-color="#F99326"/><stop offset=".674" stop-color="#C46317"/><stop offset="1" stop-color="#994511"/></linearGradient><linearGradient id="q" x1="-86.032" x2="-82.069" y1="198.883" y2="203.501" gradientTransform="translate(104.198)" gradientUnits="userSpaceOnUse"><stop offset=".006" stop-color="#F17912"/><stop offset=".315" stop-color="#FAAF3E"/><stop offset=".59" stop-color="#F17912"/><stop offset="1" stop-color="#6E290A"/></linearGradient><radialGradient id="p" cx="-87.444" cy="201.439" r="5.756" gradientUnits="userSpaceOnUse" gradientTransform="translate(104.198)" fy="201.439" fx="-87.444"><stop offset=".006" stop-color="#FAAF3E"/><stop offset=".337" stop-color="#FAAF3E"/><stop offset=".652" stop-color="#F17912"/><stop offset="1" stop-color="#73340E"/></radialGradient><linearGradient id="o" x1="-88.525" x2="-81.743" y1="198.141" y2="206.023" gradientTransform="translate(104.198)" gradientUnits="userSpaceOnUse"><stop offset=".006" stop-color="#F17912"/><stop offset=".292" stop-color="#FAAF3E"/><stop offset=".545" stop-color="#FAAF3E"/><stop offset=".652" stop-color="#F17912"/><stop offset="1" stop-color="#73340E"/></linearGradient><linearGradient id="n" x1="-89.038" x2="-82.307" y1="198.653" y2="206.471" gradientTransform="translate(104.198)" gradientUnits="userSpaceOnUse"><stop offset=".006" stop-color="#73340E"/><stop offset=".461" stop-color="#F17912"/><stop offset="1" stop-color="#73340E"/></linearGradient><linearGradient id="m" x1="-90.812" x2="-89.894" y1="206.2" y2="207.221" gradientTransform="translate(104.198)" gradientUnits="userSpaceOnUse"><stop offset=".006" stop-color="#3E434C"/><stop offset=".298" stop-color="#ADBECA"/><stop offset=".477" stop-color="#ADBECA"/><stop offset=".702" stop-color="#828F99"/><stop offset="1" stop-color="#292D33"/></linearGradient><linearGradient id="w" x1="13.829" x2="19.276" y1="232.114" y2="222.257" gradientUnits="userSpaceOnUse" gradientTransform="matrix(1.015 0 0 1.015 2.37 -194.921)"><stop offset=".006" stop-color="#ACB5BE"/><stop offset=".197" stop-color="#C3CDD4"/><stop offset=".742" stop-color="#C3CDD4"/><stop offset="1" stop-color="#A0A9B2"/></linearGradient><linearGradient id="x" x1="13.783" x2="18.283" y1="227.773" y2="223.023" gradientUnits="userSpaceOnUse" gradientTransform="matrix(1.015 0 0 1.015 2.37 -194.921)"><stop offset="0" stop-color="#C8D2D8"/><stop offset=".421" stop-color="#D4DCDF"/><stop offset=".612" stop-color="#D4DCDF"/><stop offset="1" stop-color="#B7C1CA"/></linearGradient><linearGradient id="y" x1="13.802" x2="16.677" y1="227.025" y2="223.65" gradientUnits="userSpaceOnUse" gradientTransform="matrix(1.015 0 0 1.015 2.37 -194.921)"><stop offset="0" stop-color="#D4DCDF"/><stop offset=".528" stop-color="#fff"/><stop offset="1" stop-color="#D4DCDF"/></linearGradient><linearGradient id="z" x1="35.002" x2="21.48" y1="232.355" y2="229.982" gradientUnits="userSpaceOnUse" gradientTransform="matrix(1.015 0 0 1.015 2.37 -194.921)"><stop offset="0" stop-color="#C3CDD4"/><stop offset="1" stop-color="#A0A9B2"/></linearGradient><linearGradient x1="22.823" x2="31.279" y1="224.44" y2="212.172" xlink:href="#a" gradientUnits="userSpaceOnUse"/><linearGradient x1="27.481" x2="35.937" y1="223.883" y2="211.616" xlink:href="#b" gradientUnits="userSpaceOnUse"/><linearGradient x1="27.577" x2="36.023" y1="224.166" y2="212.129" xlink:href="#c" gradientUnits="userSpaceOnUse"/><linearGradient x1="22.823" x2="31.279" y1="224.44" y2="212.172" gradientUnits="userSpaceOnUse"><stop offset="0" stop-color="#CEE4F2"/><stop offset=".139" stop-color="#D7E9F4"/><stop offset=".688" stop-color="#F4F9FC"/><stop offset="1" stop-color="#fff"/></linearGradient><linearGradient x1="27.481" x2="35.937" y1="223.883" y2="211.616" gradientUnits="userSpaceOnUse"><stop offset="0" stop-color="#CEE4F2"/><stop offset=".139" stop-color="#D7E9F4"/><stop offset=".688" stop-color="#F4F9FC"/><stop offset="1" stop-color="#fff"/></linearGradient><linearGradient x1="27.577" x2="36.023" y1="224.166" y2="212.129" gradientUnits="userSpaceOnUse"><stop offset="0" stop-color="#A0C6DE"/><stop offset="1" stop-color="#fff"/></linearGradient><linearGradient id="l" x1="27.577" x2="36.023" y1="224.166" y2="212.129" xlink:href="#c" gradientUnits="userSpaceOnUse" gradientTransform="matrix(1.015 0 0 1.015 2.37 -194.921)"/><linearGradient id="k" x1="27.481" x2="35.937" y1="223.883" y2="211.616" xlink:href="#b" gradientUnits="userSpaceOnUse" gradientTransform="matrix(1.015 0 0 1.015 2.37 -194.921)"/><linearGradient id="j" x1="22.823" x2="31.279" y1="224.44" y2="212.172" xlink:href="#a" gradientUnits="userSpaceOnUse" gradientTransform="matrix(1.015 0 0 1.015 2.37 -194.921)"/><linearGradient x1="27.726" x2="8.203" y1="213.433" y2="229.63" xlink:href="#d" gradientUnits="userSpaceOnUse"/><linearGradient x1="30.777" x2="11.254" y1="217.268" y2="233.465" xlink:href="#e" gradientUnits="userSpaceOnUse"/><linearGradient x1="8.739" x2="26.854" y1="229.807" y2="213.778" xlink:href="#f" gradientUnits="userSpaceOnUse"/><linearGradient x1="27.726" x2="8.203" y1="213.433" y2="229.63" gradientUnits="userSpaceOnUse"><stop offset=".006" stop-color="#fff"/><stop offset=".832" stop-color="#CEE4F2"/><stop offset="1" stop-color="#fff"/></linearGradient><linearGradient x1="30.777" x2="11.254" y1="217.268" y2="233.465" gradientUnits="userSpaceOnUse"><stop offset=".006" stop-color="#fff"/><stop offset=".832" stop-color="#CEE4F2"/><stop offset="1" stop-color="#fff"/></linearGradient><linearGradient x1="8.739" x2="26.854" y1="229.807" y2="213.778" gradientUnits="userSpaceOnUse"><stop offset=".022" stop-color="#D9E8F2"/><stop offset=".197" stop-color="#A0C6DE"/><stop offset=".35" stop-color="#ACCDE2"/><stop offset=".625" stop-color="#CBE0ED"/><stop offset=".988" stop-color="#FDFEFE"/><stop offset="1" stop-color="#fff"/></linearGradient><linearGradient id="i" x1="8.739" x2="26.854" y1="229.807" y2="213.778" xlink:href="#f" gradientUnits="userSpaceOnUse" gradientTransform="matrix(1.015 0 0 1.015 2.37 -194.921)"/><linearGradient id="h" x1="30.777" x2="11.254" y1="217.268" y2="233.465" xlink:href="#e" gradientUnits="userSpaceOnUse" gradientTransform="matrix(1.015 0 0 1.015 2.37 -194.921)"/><linearGradient id="g" x1="27.726" x2="8.203" y1="213.433" y2="229.63" xlink:href="#d" gradientUnits="userSpaceOnUse" gradientTransform="matrix(1.015 0 0 1.015 2.37 -194.921)"/></defs><g><path fill="url(#g)" d="M27 20.62c-4.6 8.15-9.1 12.95-13.73 14.68-1.16.38-1.7.4-1.85.38-.54-.34-1.24-.35-1.75.05-.64.5-.77 1.4-.3 2.06 1.15 1.62 3.98.68 4.9.37 5.4-2 10.42-7.25 15.4-16.05.4-.73.14-1.66-.58-2.07-.75-.42-1.68-.16-2.1.57z"/><path fill="url(#h)" d="M30.1 24.5c-4.6 8.16-9.1 12.96-13.73 14.7-1.16.37-1.7.38-1.85.37-.54-.33-1.24-.35-1.75.06-.64.5-.78 1.4-.3 2.06 1.15 1.6 3.98.67 4.9.36 5.4-2 10.42-7.25 15.4-16.05.4-.72.14-1.65-.6-2.06-.72-.4-1.65-.16-2.06.57z"/><path fill="url(#i)" d="M27.9 21.12c-4.73 8.37-9.4 13.32-14.28 15.13-1.7.56-2.5.48-2.6.36-.18-.2-.5-.24-.72-.07-.2.16-.27.45-.1.67.47.68 1.74.68 3.76 0 5.13-1.9 9.97-7 14.8-15.58.15-.25.07-.56-.18-.7-.24-.13-.55-.05-.7.2z"/><path fill="url(#j)" d="M32.34 20.72c-1.42 3.5-3.04 5.95-5.4 8.14-.58.6-1.12 1.02-1.26 1.1 0 0-1.05 1.08-2.02 1.56.06 0 2.34 1.38 2.34 1.38.68.07 1.44-.22 3.07-1.85 2.66-2.48 4.5-5.24 6.1-9.18.3-.78-.07-1.67-.85-2-.77-.3-1.66.07-1.98.85z"/><path fill="url(#k)" d="M37.07 20.15c-1.43 3.52-3.04 5.95-5.4 8.15-.6.6-1.12 1.02-1.26 1.1 0 0-1.04 1.07-2 1.55.04 0 2.33 1.4 2.33 1.4.68.05 1.44-.23 3.07-1.86 2.66-2.5 4.5-5.25 6.1-9.2.3-.77-.07-1.66-.85-1.98-.78-.32-1.66.06-1.98.83z"/><path fill="url(#l)" d="M38 20.54c-1.47 3.65-3.16 6.2-5.63 8.5-.62.62-1.34 1.22-1.54 1.28.07-.02-.57.52-.46.7.1.16 1-.13.9.04-.1.17-.25.3-.45.27.18 0 .64.06 2.26-1.56 2.57-2.4 4.33-5.05 5.87-8.85.1-.26-.02-.56-.28-.66-.26-.1-.56.02-.66.28z"/><path fill="none" stroke="#ed2728" stroke-width=".7" d="M14.28 16.9c-1.06 1.2-2.6 5.13-2.08 10.5"/><g transform="matrix(1.015 0 0 1.015 2.37 -194.921)"><path fill="none" stroke="#343940" stroke-width="1.182" d="M16.43 205.3l-3.6 2.93-1.1.4.54-1.1 3.25-3.24"/><linearGradient x1="-90.812" x2="-89.894" y1="206.2" y2="207.221" gradientTransform="translate(104.198)" gradientUnits="userSpaceOnUse"><stop offset=".006" stop-color="#3E434C"/><stop offset=".298" stop-color="#ADBECA"/><stop offset=".477" stop-color="#ADBECA"/><stop offset=".702" stop-color="#828F99"/><stop offset="1" stop-color="#292D33"/></linearGradient><path fill="url(#m)" d="M16.43 205.3l-3.6 2.93-1.1.4.54-1.1 3.25-3.24"/><path fill="none" stroke="#652d0e" stroke-width="1.182" d="M21.2 200.43c1.52 1.77 2.17 4.86.7 6.04-1.5 1.18-4.2.38-6.06-1.78-1.86-2.16-2.16-4.87-.68-6.04 1.48-1.18 4.35-.22 6.05 1.77z"/><path fill="none" stroke="#652d0e" stroke-width="1.182" d="M21.75 199.95c1.52 1.78 2.2 4.9.7 6.07-1.48 1.18-4.2.37-6.07-1.8-1.87-2.18-2.2-4.9-.7-6.08 1.48-1.17 4.36-.2 6.07 1.8z"/><ellipse cx="19.335" cy="201.846" fill="none" stroke="#652d0e" stroke-width="1.182" ry="4.723" rx="3.059" transform="matrix(.783 -.622 .622 .783 -121.325 55.796)"/><path fill="none" stroke="#652d0e" stroke-width="1.182" d="M22.17 202.9c-.64.5-1.95.02-2.92-1.1-.96-1.12-1.23-2.44-.6-2.96l.08-.05c.2-.14 3.2-2.4 3.33-2.5.14-.1.44-.47.58-.7l3.34 3.76c-.25.1-.68.37-.8.5-.1.1-2.77 2.76-2.93 2.95l-.08.1z"/><path fill="none" stroke="#652d0e" stroke-width="1.182" d="M28.2 199.54l.5-.43c-.85.65-2.7-.17-4.2-1.86-1.47-1.67-2.03-3.56-1.3-4.3l-.5.5c-.74.75-.18 2.63 1.27 4.28 1.5 1.7 3.4 2.52 4.22 1.82z"/><ellipse cx="26.004" cy="195.972" fill="none" stroke="#652d0e" stroke-width="1.182" ry="4.141" rx="1.966" transform="matrix(.765 -.644 .644 .765 -120.07 62.767)"/><linearGradient x1="-89.038" x2="-82.307" y1="198.653" y2="206.471" gradientTransform="translate(104.198)" gradientUnits="userSpaceOnUse"><stop offset=".006" stop-color="#73340E"/><stop offset=".461" stop-color="#F17912"/><stop offset="1" stop-color="#73340E"/></linearGradient><path fill="url(#n)" d="M21.2 200.43c1.52 1.77 2.17 4.86.7 6.04-1.5 1.18-4.2.38-6.06-1.78-1.86-2.16-2.16-4.87-.68-6.04 1.48-1.18 4.35-.22 6.05 1.77z"/><linearGradient x1="-88.525" x2="-81.743" y1="198.141" y2="206.023" gradientTransform="translate(104.198)" gradientUnits="userSpaceOnUse"><stop offset=".006" stop-color="#F17912"/><stop offset=".292" stop-color="#FAAF3E"/><stop offset=".545" stop-color="#FAAF3E"/><stop offset=".652" stop-color="#F17912"/><stop offset="1" stop-color="#73340E"/></linearGradient><path fill="url(#o)" d="M21.75 199.95c1.52 1.78 2.2 4.9.7 6.07-1.48 1.18-4.2.37-6.07-1.8-1.87-2.18-2.2-4.9-.7-6.08 1.48-1.17 4.36-.2 6.07 1.8z"/><radialGradient cx="-87.444" cy="201.439" r="5.756" gradientUnits="userSpaceOnUse" gradientTransform="translate(104.198)" fy="201.439" fx="-87.444"><stop offset=".006" stop-color="#FAAF3E"/><stop offset=".337" stop-color="#FAAF3E"/><stop offset=".652" stop-color="#F17912"/><stop offset="1" stop-color="#73340E"/></radialGradient><path fill="url(#p)" d="M21.73 199.94c1.7 1.98 2 4.44.68 5.5-1.3 1.04-3.76.3-5.46-1.7-1.7-1.97-2-4.43-.7-5.48 1.34-1.05 3.8-.3 5.5 1.68z"/><linearGradient x1="-86.032" x2="-82.069" y1="198.883" y2="203.501" gradientTransform="translate(104.198)" gradientUnits="userSpaceOnUse"><stop offset=".006" stop-color="#F17912"/><stop offset=".315" stop-color="#FAAF3E"/><stop offset=".59" stop-color="#F17912"/><stop offset="1" stop-color="#6E290A"/></linearGradient><path fill="url(#q)" d="M21.67 199.98c1.1 1.28 1.3 2.85.46 3.52-.84.67-2.4.18-3.5-1.1-1.1-1.27-1.3-2.85-.46-3.52.84-.67 2.4-.17 3.5 1.1z"/><linearGradient x1="-83.942" x2="-80.827" y1="197.894" y2="201.44" gradientTransform="translate(104.198)" gradientUnits="userSpaceOnUse"><stop offset=".006" stop-color="#F17912"/><stop offset=".023" stop-color="#F27E16"/><stop offset=".098" stop-color="#F78D22"/><stop offset=".157" stop-color="#F99326"/><stop offset=".674" stop-color="#C46317"/><stop offset="1" stop-color="#994511"/></linearGradient><path fill="url(#r)" d="M22.17 202.9c-.64.5-1.95.02-2.92-1.1-.96-1.12-1.23-2.44-.6-2.96l.08-.05c.2-.14 3.2-2.4 3.33-2.5.14-.1.44-.47.58-.7l3.34 3.76c-.25.1-.68.37-.8.5-.1.1-2.77 2.76-2.93 2.95l-.08.1z"/><linearGradient x1="-83.942" x2="-81.284" y1="197.85" y2="200.925" gradientTransform="translate(104.198)" gradientUnits="userSpaceOnUse"><stop offset=".006" stop-color="#fff"/><stop offset=".567" stop-color="#fff"/><stop offset=".611" stop-color="#FDFBF9"/><stop offset=".667" stop-color="#F9EFE9"/><stop offset=".732" stop-color="#F1DBCD"/><stop offset=".802" stop-color="#E7C0A7"/><stop offset=".876" stop-color="#DA9D77"/><stop offset=".954" stop-color="#CA723C"/><stop offset="1" stop-color="#BF5615"/></linearGradient><path fill="url(#s)" d="M22.17 202.9c-.64.5-1.95.02-2.92-1.1-.96-1.12-1.23-2.44-.6-2.96l.08-.05c.2-.14 3.2-2.4 3.33-2.5.14-.1.44-.47.58-.7l3.34 3.76c-.25.1-.68.37-.8.5-.1.1-2.77 2.76-2.93 2.95l-.08.1z"/><linearGradient x1="-80.706" x2="-79.931" y1="198.169" y2="197.516" gradientTransform="translate(104.198)" gradientUnits="userSpaceOnUse"><stop offset=".006" stop-color="#fff"/><stop offset=".132" stop-color="#F2DDD0"/><stop offset=".302" stop-color="#E3B497"/><stop offset=".468" stop-color="#D69368"/><stop offset=".624" stop-color="#CC7844"/><stop offset=".769" stop-color="#C56529"/><stop offset=".898" stop-color="#C15A1A"/><stop offset="1" stop-color="#BF5614"/></linearGradient><path fill="url(#t)" d="M25.9 199.4c-.76-.08-1.63-.54-2.32-1.3-.7-.75-1.06-1.64-1.03-2.36l.1-.13 3.33 3.76-.08.03z"/><linearGradient x1="-81.97" x2="-76.426" y1="193.838" y2="199.923" gradientTransform="translate(104.198)" gradientUnits="userSpaceOnUse"><stop offset=".006" stop-color="#F17912"/><stop offset=".292" stop-color="#FAAF3E"/><stop offset=".59" stop-color="#F17912"/><stop offset="1" stop-color="#73340E"/></linearGradient><path fill="url(#u)" d="M28.2 199.54l.5-.43c-.85.65-2.7-.17-4.2-1.86-1.47-1.67-2.03-3.56-1.3-4.3l-.5.5c-.74.75-.18 2.63 1.27 4.28 1.5 1.7 3.4 2.52 4.22 1.82z"/><radialGradient cx="-80.391" cy="195.997" r="3.379" gradientUnits="userSpaceOnUse" gradientTransform="translate(104.198)" fy="195.997" fx="-80.391"><stop offset=".006" stop-color="#FCDFA8"/><stop offset=".388" stop-color="#FAAF3E"/><stop offset="1" stop-color="#F3841A"/></radialGradient><path fill="url(#v)" d="M27.5 194.7c1.52 1.72 2.07 3.68 1.24 4.38-.83.7-2.73-.13-4.24-1.84-1.5-1.72-2.06-3.68-1.23-4.37.83-.7 2.73.12 4.24 1.84z"/></g><path fill="url(#w)" d="M33.27 31.2c-4.2-.52-14.55.37-21.07-3.8.54 5.56 3.3 12.66 11.14 19.76-2-1.53-1.07-6.24 2.06-10.5 2.52-3.43 5.7-5.54 7.87-5.45z"/><path fill="url(#x)" d="M22.38 43.34C16.8 38.3 14.08 32 12.2 27.4c5.35 5.34 10.83 7.2 14.1 8.12"/><path fill="url(#y)" d="M23.07 40.83C19.1 38.58 15.4 33.9 12.2 27.4c3.95 4.97 10.67 8.85 12.76 9.87"/><path fill="url(#z)" d="M32.63 42.2c-3.14 4.28-7.3 6.5-9.3 4.96-2-1.53-1.06-6.24 2.07-10.5 3.14-4.28 7.3-6.5 9.3-4.97 2 1.53 1.06 6.23-2.07 10.5z"/><path fill="none" stroke="#e6ebf2" stroke-width=".5" d="M23.34 47.16c-2-1.53-1.07-6.24 2.06-10.5 3.14-4.28 7.3-6.5 9.3-4.97"/><path fill="none" stroke="#737880" stroke-width=".7" d="M33.24 31.2c.55.02 1.05.18 1.45.5 2 1.53 1.06 6.23-2.07 10.5-3.14 4.28-7.3 6.5-9.3 4.96-7.83-7.1-10.6-14.2-11.13-19.77 6.52 4.17 16.88 3.28 21.07 3.8"/></g></svg>