<svg xmlns="http://www.w3.org/2000/svg" width="48" height="48" xmlns:xlink="http://www.w3.org/1999/xlink"><defs><linearGradient id="n"><stop offset="0" stop-opacity=".495"/><stop offset="1" stop-opacity="0"/></linearGradient><linearGradient id="m"><stop offset="0" stop-color="#427dd2"/><stop offset="1" stop-color="#204a87"/></linearGradient><linearGradient id="l"><stop offset="0" stop-color="#ca0000"/><stop offset="1" stop-color="#ef5429"/></linearGradient><linearGradient id="k"><stop offset="0" stop-color="#653f01"/><stop offset="1" stop-color="#653f01" stop-opacity="0"/></linearGradient><linearGradient id="g"><stop offset="0" stop-color="#eeeeec"/><stop offset="1" stop-color="#a8a89e"/></linearGradient><linearGradient id="e"><stop offset="0" stop-color="#88c1ff"/><stop offset="1" stop-color="#2985ea"/></linearGradient><linearGradient id="d"><stop offset="0" stop-color="#fff"/><stop offset="1" stop-color="#c7c7c0"/></linearGradient><linearGradient id="c"><stop offset="0" stop-color="#cacbc9"/><stop offset="1" stop-color="#888a85"/></linearGradient><linearGradient id="b"><stop offset="0" stop-color="#eb9c1f"/><stop offset="1" stop-color="#a0680e"/></linearGradient><linearGradient id="a"><stop offset="0" stop-color="#fff"/><stop offset="1"/></linearGradient><radialGradient cx="5.712" cy="4.626" r="2.424" xlink:href="#a" fx="5.712" fy="4.626" gradientTransform="matrix(.595 -.009 .024 .488 2.199 2.651)" gradientUnits="userSpaceOnUse"/><linearGradient id="j"><stop offset="0" stop-color="#fff"/><stop offset="1"/></linearGradient><radialGradient id="t" cx="13.281" cy="11.233" r="10.442" xlink:href="#b" fx="13.281" fy="11.233" gradientUnits="userSpaceOnUse" gradientTransform="matrix(1.199 -.01 .008 1.152 -2.731 -1.567)"/><linearGradient id="s" x1="15.41" x2="25.249" y1="9.361" y2="9.361" xlink:href="#c" gradientUnits="userSpaceOnUse" gradientTransform="matrix(1.025 0 0 1.088 3.58 -.366)"/><linearGradient id="H" x1="8.9" x2="13.441" y1="14.66" y2="20.165" xlink:href="#c" gradientUnits="userSpaceOnUse" gradientTransform="matrix(1.051 0 0 1.051 2.786 -.05)"/><linearGradient id="D" x1="15.104" x2="21.514" y1="10.523" y2="16.988" xlink:href="#d" gradientUnits="userSpaceOnUse" gradientTransform="matrix(.991 0 0 .991 3.512 .004)"/><linearGradient id="w" x1="15.508" x2="13.516" y1="22.998" y2="18.301" xlink:href="#d" gradientUnits="userSpaceOnUse" gradientTransform="matrix(.991 0 0 .991 3.512 .004)"/><radialGradient id="u" cx="21.791" cy="18.395" r="10.933" xlink:href="#e" fx="21.791" fy="18.395" gradientTransform="matrix(.832 -.576 .606 .875 -4.565 14.917)" gradientUnits="userSpaceOnUse"/><radialGradient id="r" cx="28.52" cy="7.103" r="12.313" xlink:href="#b" fx="28.52" fy="7.103" gradientTransform="matrix(1.034 -.273 .13 .488 1.233 13.565)" gradientUnits="userSpaceOnUse"/><radialGradient id="y" cx="5.171" cy="26.35" r="12.313" xlink:href="#f" fx="5.171" fy="26.35" gradientTransform="matrix(.471 -.984 .489 .234 -7.038 25.301)" gradientUnits="userSpaceOnUse"/><linearGradient id="f"><stop offset="0" stop-color="#eb9c1f"/><stop offset="1" stop-color="#a0680e"/></linearGradient><linearGradient id="G" x1="9.741" x2="13.813" y1="16.377" y2="16.983" xlink:href="#g" gradientUnits="userSpaceOnUse" gradientTransform="matrix(.991 0 0 .991 3.31 .963)"/><radialGradient id="z" cx="14.822" cy="32.318" r="10.933" xlink:href="#e" fx="14.822" fy="32.318" gradientTransform="matrix(-.317 -1.18 .466 -.125 16.448 57.574)" gradientUnits="userSpaceOnUse"/><radialGradient id="p" cx="32.417" cy="34.106" r="10.933" xlink:href="#e" fx="32.417" fy="34.106" gradientTransform="matrix(-.706 -.767 .458 -.421 46.505 64.798)" gradientUnits="userSpaceOnUse"/><linearGradient id="i"><stop offset="0" stop-color="#eeeeec"/><stop offset="1" stop-color="#a8a89e"/></linearGradient><linearGradient id="J" x1="22.91" x2="27.88" y1="41.434" y2="46.082" xlink:href="#h" gradientUnits="userSpaceOnUse" gradientTransform="matrix(1.013 0 0 1.051 4.159 -1.009)"/><linearGradient id="h"><stop offset="0" stop-color="#cacbc9"/><stop offset="1" stop-color="#888a85"/></linearGradient><linearGradient x1="9.741" x2="13.813" y1="16.377" y2="16.983" gradientTransform="translate(-3.831 -12.283)" gradientUnits="userSpaceOnUse" xlink:href="#i"/><linearGradient x1="8.9" x2="13.441" y1="14.66" y2="20.165" gradientTransform="matrix(1.06 0 0 1.06 -4.36 -13.305)" gradientUnits="userSpaceOnUse" xlink:href="#h"/><radialGradient id="I" cx="29.8" cy="43.364" r="4.947" xlink:href="#i" fx="29.8" fy="43.364" gradientTransform="matrix(1.696 -.467 .312 1.22 -33.89 4.667)" gradientUnits="userSpaceOnUse"/><radialGradient id="K" cx="29.8" cy="43.364" r="4.947" xlink:href="#i" gradientUnits="userSpaceOnUse" gradientTransform="matrix(1.258 -1.351 .912 .894 -34.201 33.34)" fx="29.8" fy="43.364"/><linearGradient id="L" x1="22.91" x2="27.88" y1="41.434" y2="46.082" xlink:href="#h" gradientUnits="userSpaceOnUse" gradientTransform="matrix(.897 -.562 .548 .92 -3.47 7.242)"/><radialGradient id="B" cx="5.712" cy="4.626" r="2.424" xlink:href="#a" gradientUnits="userSpaceOnUse" gradientTransform="matrix(.595 -.009 .024 .488 2.199 2.651)" fx="5.712" fy="4.626"/><radialGradient id="C" cx="5.712" cy="4.626" r="2.424" xlink:href="#j" gradientUnits="userSpaceOnUse" gradientTransform="matrix(.595 -.009 .024 .488 2.199 2.651)" fx="5.712" fy="4.626"/><linearGradient x1="5.081" x2="6.404" y1="28.923" y2="29.883" xlink:href="#k" gradientUnits="userSpaceOnUse" gradientTransform="matrix(.914 -.407 .407 .914 -10.752 5.227)"/><linearGradient id="F" x1="22.19" x2="24.839" y1="13.063" y2="15.79" xlink:href="#l" gradientUnits="userSpaceOnUse"/><linearGradient id="E" x1="16.19" x2="23.077" y1="11.308" y2="19.086" xlink:href="#m" gradientUnits="userSpaceOnUse"/><linearGradient id="v" x1="15.967" x2="31.091" y1="11.355" y2="27.719" xlink:href="#m" gradientUnits="userSpaceOnUse"/><linearGradient id="x" x1="15.644" x2="20.287" y1="14.451" y2="21.623" xlink:href="#m" gradientUnits="userSpaceOnUse"/><linearGradient id="q" x1="33.57" x2="41.091" y1="22.19" y2="30.473" xlink:href="#m" gradientUnits="userSpaceOnUse"/><linearGradient id="A" x1="26.04" x2="28.717" y1="26.939" y2="38.051" xlink:href="#m" gradientUnits="userSpaceOnUse"/><radialGradient id="o" cx="24.117" cy="25.625" r="24.016" xlink:href="#n" fx="24.117" fy="25.625" gradientTransform="matrix(1 0 0 .536 0 11.883)" gradientUnits="userSpaceOnUse"/></defs><g><path fill="url(#o)" d="M48.13 25.63a24.02 12.88 0 1 1-48.03 0 24.02 12.88 0 1 1 48.03 0z" transform="matrix(.668 .744 -.744 .668 24.402 -10.248)" color="#000" overflow="visible" enable-background="accumulate"/><path d="M17.6 2.47c3.43-2.26 7.7-1.18 9.43 2-3.42.88-6.9-.42-8.85-1z" color="#000" overflow="visible" enable-background="accumulate"/><path fill="url(#p)" stroke="url(#q)" stroke-width=".5" d="M46.4 34.57c2.33-2.68 1.18-5.4-2.47-9.73-3.7-4.4-10.1-7.53-13.2-4.72-1.97 1.8 3.98 9.5 6.26 11.72 2.6 2.55 6.9 5.6 9.4 2.73z" color="#000" overflow="visible" enable-background="accumulate"/><path fill="url(#r)" stroke="#653f01" stroke-width=".75" d="M38.56 5.86c-1 .04-2.17.35-3.46 1.04-1.35.72-2.47 1.64-3.28 2.6-1.2-.76-3.15-1.17-5.46-1.17-3.9 0-6.1 1.18-6.1 3.32 0 2.15 3.17 3.9 7.1 3.9 1.75 0 3.1-.38 4.07-.98 1.27.93 3.45.6 6.23-.87 3.45-1.83 5.5-4.1 4.48-6-.64-1.18-1.9-1.9-3.58-1.84z" color="#000" overflow="visible" enable-background="accumulate"/><path fill="none" stroke="#8f5902" d="M25.83 10.2c2.52-1.33 5.2.75 6.28 1.36 1.85-1.26 4.1-3.85 9.94-3.45" stroke-dasharray="2, 1"/><path fill="#eeeeec" stroke="url(#s)" stroke-width=".5" d="M19.9 10.7c.4-2 5.85-3.43 9.06-2.64C28 9.2 27.4 10.3 27 11.8z" color="#000" overflow="visible" enable-background="accumulate"/><path fill="#ef2929" stroke="#a40000" stroke-width=".5" d="M18.48 4c.46-.73.5-1.82 0-2.37l-1.9-.04c.5.73.15 1.78-.02 2.35z" color="#000" overflow="visible" enable-background="accumulate"/><path fill="url(#t)" stroke="#653f01" stroke-width="1.348" d="M25.15 12.85a9.8 9.8 0 1 1-19.6 0 9.8 9.8 0 1 1 19.6 0z" transform="matrix(.716 -.285 .231 .676 -1.761 4.172)" color="#000" overflow="visible" enable-background="accumulate"/><path fill="none" stroke="#e9b96e" stroke-width=".751" d="M25.15 12.85a9.8 9.8 0 1 1-19.6 0 9.8 9.8 0 1 1 19.6 0z" transform="matrix(.643 -.255 .208 .607 -.334 4.615)" color="#000" overflow="visible" enable-background="accumulate"/><path fill="url(#u)" stroke="url(#v)" stroke-width=".75" d="M30.87 32.42c-4.37 2.62-8.63-1.14-12.13-6.97-3.5-5.84-6.37-11.83-2-14.45 4.36-2.6 13.05-.23 16.55 5.6 3.5 5.84 1.93 13.2-2.43 15.82z" color="#000" overflow="visible" enable-background="accumulate"/><path fill="url(#w)" stroke="url(#x)" stroke-width=".5" d="M16.38 14.74c.57-.1 3.58 4.6 3.6 6.86-.86.62-1.86 1.9-2.15 2.36l-3.5-6.36z" color="#000" overflow="visible" enable-background="accumulate"/><path fill="url(#y)" stroke="#653f01" stroke-width=".75" d="M14.14 13.8c-2.28.04-5.96 3.53-6.44 7.8-.18 1.62-.02 3.4.5 4.76-1.14.88-2.32 2.2-3.3 3.66-1.42 2.17-1.53 4.87.2 5.76 1.73.9 4.46-.67 6.1-2.5 1.44-1.62 1.86-3.7 1.64-5.34 1.28-.96 2.38-2.73 2.88-4.7 1.14-4.44 1.08-8.97-1.14-9.42-.14-.03-.28-.04-.44-.03z" color="#000" overflow="visible" enable-background="accumulate"/><path fill="url(#z)" stroke="url(#A)" stroke-width=".5" d="M32.4 47.08c-3.4 1.03-6.3-.8-7.86-6.23-1.57-5.43-1.44-13.25 1.1-13.98 2.55-.74 7.04 7.52 8.13 10.5 1.25 3.43 2.3 8.6-1.36 9.7z" color="#000" overflow="visible" enable-background="accumulate"/><path fill="url(#B)" d="M8.6 5.8a2.42 1.94 0 1 1-4.86 0 2.42 1.94 0 1 1 4.85 0z" transform="matrix(.28 -.191 .331 .564 6.828 3.892)" color="#000" overflow="visible" enable-background="accumulate"/><path fill="url(#C)" d="M8.6 5.8a2.42 1.94 0 1 1-4.86 0 2.42 1.94 0 1 1 4.85 0z" transform="matrix(.295 -.201 .349 .595 9.985 2.157)" color="#000" overflow="visible" enable-background="accumulate"/><path fill="url(#D)" stroke="url(#E)" stroke-width=".5" d="M15.48 11.8c3.6 1.66 4.96 4.53 6.46 8.25 1.6-1.5 6.28-3.78 8.36-3.9-2-3.15-5.07-4.9-10.76-6.4-1.5.12-3.76 1.3-4.06 2.04z" color="#000" overflow="visible" enable-background="accumulate"/><path fill="url(#F)" stroke="#a40000" stroke-width=".5" d="M25.14 16.1c-1.27-.6-3.43-.4-4.54-1.08-1.2-.73-.8-1.8-.3-2.05.75-.37 2.12.03 2.12.03s-.17-.92.62-1.1c.93-.22 1.75.34 2.2 1.2.28.47.3 1.5-.1 3z"/><path fill="none" stroke="#204a87" d="M27.2 17.25c5.1 3.9 6.55 9.22 4.65 14.37" stroke-dasharray="2, 1"/><path fill="none" stroke="#8f5902" d="M14.38 18.66c.04 3.05-.4 6-3.66 8.26-.64 4.68-2.88 7.04-5.5 8.8" stroke-dasharray="2, 1"/><path fill="url(#G)" stroke="url(#H)" stroke-width=".5" d="M7.36 21.23c3.28-1.93 6.3-1.63 9.02.98 0 0 1.55-7.9-1.6-8.7-4.38-1.08-7.08 5.8-7.42 7.73z"/><path fill="none" stroke="#204a87" d="M25.65 27C29.5 33 33.47 41 29.85 47.3" stroke-dasharray="2, 1"/><path fill="none" stroke="#204a87" d="M46.73 33.92c-.72-5.3-7.8-12.1-11.52-12.47" stroke-dasharray="2, 1"/><path d="M3.62 8.1C.8 9.3-1.18 11.72 1.04 17.97c2.54-2.04 3.94-6.3 3.57-9.15z"/><path d="M4.6 8.83c.38-1.87 1.82-2 2.67-1.4.46-1.54.53-4.12 2.65-4.86.17-.35.07-.72 0-1.2-1-.72-3.33-.4-4.86 1.26-1.18 1.3-1.8 3.62-1.44 5.46z"/><path d="M9.77 1.42c.57.15.3.52.88.68 1.8.48 4.6.7 6.83.48-.73-1.46-2-2.45-3.5-2.5-2.38-.1-3.68.44-4.2 1.34z" color="#000" overflow="visible" enable-background="accumulate"/><path fill="none" stroke="#000" d="M10.12 9.7c4.57 1.34 6.76-.8 7.06-3.97" stroke-dasharray="2, 1"/><path fill="url(#I)" stroke="url(#J)" stroke-width=".5" d="M25.8 44.24c2.36-2.2 6.9-3.53 9.26-2.1.53 4.13-1.46 5.24-3.18 5.5-2.66.4-4.7-1.33-6.08-3.4z" color="#000" overflow="visible" enable-background="accumulate"/><path fill="url(#K)" stroke="url(#L)" stroke-width=".5" d="M39.64 34.26c.95-3.25 3.92-6.35 6.76-6.42 2.62 3.33 1.14 5.77-.15 7.06-1.9 1.87-4.3 1.03-6.6-.64z" color="#000" overflow="visible" enable-background="accumulate"/><path fill="#ef2929" stroke="#a40000" stroke-width=".5" d="M3.5 7c.85-.07 1.84.38 2.1 1.06L4.8 9.8c-.45-.8-1.55-.96-2.13-1.06z" color="#000" overflow="visible" enable-background="accumulate"/></g></svg>