<svg xmlns="http://www.w3.org/2000/svg" width="48" height="48" xmlns:xlink="http://www.w3.org/1999/xlink"><defs><linearGradient id="p"><stop offset="0" stop-color="#fff"/><stop offset="1" stop-color="#fff" stop-opacity="0"/></linearGradient><linearGradient id="o"><stop offset="0" stop-color="#2e3436"/><stop offset="1" stop-color="#2e3436" stop-opacity="0"/></linearGradient><linearGradient id="n"><stop offset="0" stop-color="#555753"/><stop offset="1" stop-color="#2e3436"/></linearGradient><linearGradient id="m"><stop offset="0" stop-opacity=".619"/><stop offset="1" stop-opacity="0"/></linearGradient><linearGradient><stop offset="0" stop-color="#4881d4"/><stop offset="1" stop-color="#204a87" stop-opacity="0"/></linearGradient><radialGradient id="a" cx="264.885" cy="1499.855" r="8.559" gradientUnits="userSpaceOnUse" fy="1499.855" fx="264.885" gradientTransform="translate(9.073 -1121.746)"><stop offset=".006" stop-color="#FCDFA8"/><stop offset="1" stop-color="#F3841A"/></radialGradient><radialGradient id="L" cx="264.885" cy="1499.855" r="8.559" xlink:href="#a" gradientUnits="userSpaceOnUse" gradientTransform="translate(9.073 -1121.746)" fx="264.885" fy="1499.855"/><linearGradient id="b" x1="260.883" x2="274.926" y1="1494.385" y2="1509.797" gradientUnits="userSpaceOnUse" gradientTransform="translate(9.073 -1121.746)"><stop offset=".006" stop-color="#F17912"/><stop offset=".292" stop-color="#FAAF3E"/><stop offset=".59" stop-color="#F17912"/><stop offset="1" stop-color="#73340F"/></linearGradient><linearGradient id="K" x1="260.883" x2="274.926" y1="1494.385" y2="1509.797" xlink:href="#b" gradientUnits="userSpaceOnUse" gradientTransform="translate(9.073 -1121.746)"/><linearGradient id="c" x1="264.233" x2="266.049" y1="1505.209" y2="1503.704" gradientUnits="userSpaceOnUse" gradientTransform="translate(9.073 -1121.746)"><stop offset=".006" stop-color="#a82900" stop-opacity="0"/><stop offset="1" stop-color="#8a3e0e"/></linearGradient><linearGradient id="J" x1="264.233" x2="266.049" y1="1505.209" y2="1503.704" xlink:href="#c" gradientUnits="userSpaceOnUse" gradientTransform="translate(9.073 -1121.746)"/><linearGradient id="d" x1="255.886" x2="263.778" y1="1504.661" y2="1513.642" gradientUnits="userSpaceOnUse" gradientTransform="translate(9.073 -1121.746)"><stop offset=".006" stop-color="#F17912"/><stop offset=".022" stop-color="#F27D15"/><stop offset=".098" stop-color="#F78E21"/><stop offset=".157" stop-color="#F99326"/><stop offset=".674" stop-color="#C56417"/><stop offset="1" stop-color="#994511"/></linearGradient><linearGradient id="I" x1="255.886" x2="263.778" y1="1504.661" y2="1513.642" xlink:href="#d" gradientUnits="userSpaceOnUse" gradientTransform="translate(9.073 -1121.746)"/><linearGradient id="e" x1="250.594" x2="260.634" y1="1507.167" y2="1518.866" gradientUnits="userSpaceOnUse" gradientTransform="translate(9.073 -1121.746)"><stop offset=".006" stop-color="#F17912"/><stop offset=".315" stop-color="#FAAF3E"/><stop offset=".59" stop-color="#F17912"/><stop offset="1" stop-color="#6E290A"/></linearGradient><linearGradient id="H" x1="250.594" x2="260.634" y1="1507.167" y2="1518.866" xlink:href="#e" gradientUnits="userSpaceOnUse" gradientTransform="translate(9.073 -1121.746)"/><radialGradient id="f" cx="247.017" cy="1513.643" r="14.582" gradientUnits="userSpaceOnUse" fy="1513.643" fx="247.017" gradientTransform="translate(9.073 -1121.746)"><stop offset=".006" stop-color="#FAAF3E"/><stop offset=".337" stop-color="#FAAF3E"/><stop offset=".652" stop-color="#F17912"/><stop offset="1" stop-color="#73340F"/></radialGradient><radialGradient id="G" cx="247.017" cy="1513.643" r="14.582" xlink:href="#f" gradientUnits="userSpaceOnUse" gradientTransform="translate(9.073 -1121.746)" fx="247.017" fy="1513.643"/><linearGradient id="g" x1="244.283" x2="261.463" y1="1505.286" y2="1525.255" gradientUnits="userSpaceOnUse" gradientTransform="translate(9.073 -1121.746)"><stop offset=".006" stop-color="#F17912"/><stop offset=".292" stop-color="#FAAF3E"/><stop offset=".545" stop-color="#FAAF3E"/><stop offset=".652" stop-color="#F17912"/><stop offset="1" stop-color="#73340F"/></linearGradient><linearGradient id="F" x1="244.283" x2="261.463" y1="1505.286" y2="1525.255" xlink:href="#g" gradientUnits="userSpaceOnUse" gradientTransform="translate(9.073 -1121.746)"/><linearGradient id="h" x1="242.98" x2="260.03" y1="1506.586" y2="1526.39" gradientUnits="userSpaceOnUse" gradientTransform="translate(9.073 -1121.746)"><stop offset=".006" stop-color="#73340F"/><stop offset=".461" stop-color="#F17912"/><stop offset="1" stop-color="#73340F"/></linearGradient><linearGradient id="E" x1="242.98" x2="260.03" y1="1506.586" y2="1526.39" xlink:href="#h" gradientUnits="userSpaceOnUse" gradientTransform="translate(9.073 -1121.746)"/><linearGradient id="i" x1="238.486" x2="240.81" y1="1525.703" y2="1528.29" gradientUnits="userSpaceOnUse"><stop offset=".006" stop-color="#3E444C"/><stop offset=".298" stop-color="#ADBECA"/><stop offset=".477" stop-color="#ADBECA"/><stop offset=".702" stop-color="#828F99"/><stop offset="1" stop-color="#292E33"/></linearGradient><linearGradient id="D" x1="238.486" x2="240.81" y1="1525.703" y2="1528.29" xlink:href="#i" gradientUnits="userSpaceOnUse"/><linearGradient x1="937.803" x2="924.399" y1="376.572" y2="395.616" gradientUnits="userSpaceOnUse"><stop offset="0" stop-color="#fff" stop-opacity="0"/><stop offset="1" stop-color="#709EC3"/></linearGradient><radialGradient id="l" cx="814.914" cy="380.268" r="21.943" gradientUnits="userSpaceOnUse" gradientTransform="matrix(.98 -.202 .202 .98 58.608 187.58)" fy="380.268" fx="814.914"><stop offset="0" stop-color="#BAD1D7"/><stop offset=".826" stop-color="#6D7580"/><stop offset="1" stop-color="#41454C"/></radialGradient><radialGradient id="k" cx="798.023" cy="360.035" r="31.231" gradientUnits="userSpaceOnUse" gradientTransform="matrix(.98 -.202 .202 .98 58.608 187.58)" fy="360.035" fx="798.023"><stop offset="0" stop-color="#fff"/><stop offset="1" stop-color="#8794A0"/></radialGradient><radialGradient id="j" cx="801.416" cy="380.12" r="24.061" gradientUnits="userSpaceOnUse" gradientTransform="matrix(.98 -.202 .202 .98 58.608 187.58)" fy="380.12" fx="801.416"><stop offset="0" stop-color="#BAD1D7"/><stop offset="1" stop-color="#8794A0"/></radialGradient><radialGradient id="q" cx="801.416" cy="380.12" r="24.061" xlink:href="#j" gradientUnits="userSpaceOnUse" gradientTransform="matrix(.98 -.202 .202 .98 58.608 187.58)" fx="801.416" fy="380.12"/><radialGradient id="r" cx="798.023" cy="360.035" r="31.231" xlink:href="#k" gradientUnits="userSpaceOnUse" gradientTransform="matrix(.98 -.202 .202 .98 58.608 187.58)" fx="798.023" fy="360.035"/><radialGradient id="s" cx="814.914" cy="380.268" r="21.943" xlink:href="#l" gradientUnits="userSpaceOnUse" gradientTransform="matrix(.98 -.202 .202 .98 58.608 187.58)" fx="814.914" fy="380.268"/><linearGradient id="t" x1="20.254" x2="17.794" y1="29.714" y2="34.794" xlink:href="#m" gradientUnits="userSpaceOnUse" gradientTransform="matrix(1.07 0 0 1.07 2.963 -3.138)"/><linearGradient id="u" x1="22.159" x2="34.76" y1="25.678" y2="37.297" xlink:href="#n" gradientUnits="userSpaceOnUse" gradientTransform="matrix(.808 .467 -.466 .808 15.023 -13.308)"/><linearGradient id="v" x1="9.969" x2="22.823" y1="16.345" y2="25.043" xlink:href="#n" gradientUnits="userSpaceOnUse" gradientTransform="matrix(.808 .467 -.466 .808 15.023 -13.308)"/><linearGradient id="w" x1="2.921" x2="10.315" y1="10.567" y2="15.011" xlink:href="#n" gradientUnits="userSpaceOnUse" gradientTransform="matrix(.808 .467 -.466 .808 15.023 -13.308)"/><linearGradient id="x" x1="6.349" x2="16.698" y1="20.635" y2="15.556" xlink:href="#o" gradientUnits="userSpaceOnUse" gradientTransform="matrix(.808 .467 -.466 .808 15.023 -13.308)"/><linearGradient id="y" x1="6.349" x2="15.576" y1="20.635" y2="15.863" xlink:href="#o" gradientUnits="userSpaceOnUse" gradientTransform="matrix(.809 .464 -.464 .81 21.52 .599)"/><linearGradient id="z" x1="6.349" x2="12.193" y1="20.635" y2="21.09" xlink:href="#o" gradientUnits="userSpaceOnUse" gradientTransform="matrix(.809 .464 -.464 .81 29.011 13.683)"/><radialGradient id="A" cx="10.159" cy="19.429" r="12.063" xlink:href="#p" gradientUnits="userSpaceOnUse" gradientTransform="matrix(1 0 0 .142 0 16.668)" fx="10.159" fy="19.429"/><radialGradient id="B" cx="10.159" cy="19.429" r="12.063" xlink:href="#p" gradientUnits="userSpaceOnUse" gradientTransform="matrix(1 0 0 .142 0 16.668)" fx="10.159" fy="19.429"/><radialGradient id="C" cx="10.159" cy="19.429" r="12.063" xlink:href="#p" gradientUnits="userSpaceOnUse" gradientTransform="matrix(1 0 0 .142 0 16.668)" fx="10.159" fy="19.429"/></defs><g><g><path fill="url(#q)" d="M923.65 395.5l-6.57-5.05-3-10.07 6.9 3.97 2.67 11.14z" transform="matrix(1.174 -.298 .298 1.174 -1172.627 -141.515)"/><path fill="url(#r)" d="M932.1 378.6l-11.13 5.75-6.88-3.97 10-4.44 8 2.66z" transform="matrix(1.174 -.298 .298 1.174 -1172.627 -141.515)"/><path fill="url(#s)" d="M933.3 389.56l-9.65 5.93-2.67-11.15 11.13-5.75 1.2 10.96z" transform="matrix(1.174 -.298 .298 1.174 -1172.627 -141.515)"/><path fill="none" stroke="#eeeeec" stroke-width=".9994599999999999" d="M23.2 35.25l10.74-9.6" stroke-linecap="round"/><path fill="none" stroke="#eeeeec" stroke-width=".9994599999999999" d="M15 32.9l8.15 2.42" stroke-linecap="round"/><path fill="none" stroke="#eeeeec" stroke-width=".9994599999999999" d="M23.17 35.24l5.9 11.4" stroke-linecap="round"/><path fill="none" stroke="#192333" stroke-width=".9994599999999999" d="M14.35 32.56l10.44-8.2 10.18.74 4.67 12.52-9.57 9.84-9.22-3.97-6.5-10.94z"/></g><path fill="url(#t)" fill-rule="evenodd" d="M23.42 29.16l2.15-.17-1.92 5.83-2.7-.5 2.47-5.17z"/><g><path fill="#d3d7cf" fill-rule="evenodd" stroke="#2e3436" stroke-width="1.869" d="M37.3 32.9c-4.4-3.02-14.2-1.5-21.62-.33-1.75.72-.83 4.83.97 4.55 7.3-1.1 12.63-3.03 17.86-.34 2.57 1.32 4.94-2.4 2.8-3.87z" transform="matrix(.433 -.043 .058 .406 6.739 16.173)"/><path fill="none" stroke="#fff" stroke-width=".934" d="M36.47 33.58c-4.23-2.45-12.9-1.36-19.4-.7-1.53.42-1.9 3.43-.34 3.18 6.4-1.02 12.4-3.16 18.37-.04 1.46.77 2.87-1.57 1.37-2.44z" transform="matrix(.433 -.043 .058 .406 6.739 16.173)"/><path fill="#d3d7cf" fill-rule="evenodd" stroke="url(#u)" stroke-width="1.869" d="M28.82 23.15c.98 2.33-10.7 7.62-13.58 9.67-1.92 1.37-.46 5.35 2.08 4.24 3.57-1.56 14.36-7.1 16.76-12.88.52-1.24-.56-4.24-2.1-5.13-2.94-1.7-12.44-1.1-21.45-.2-1.75.72-.73 4.24.62 4.42 5.64.76 16.87-2.03 17.67-.12z" color="#000" overflow="visible" transform="matrix(.433 -.043 .058 .406 6.739 16.173)"/><path fill="none" stroke="#fff" stroke-width=".934" d="M29.68 22.75c1.47 3.26-10.95 9.43-13.73 10.78-1.28.62-.32 3.78 1.9 2.8C21 34.97 30.7 28.7 33.2 23.98c.55-1.04-.66-3.5-2-4.3-2.6-1.47-10.92-.94-18.83-.17-1.54.64-1.72 2.8-.53 2.94 5.28.54 16.67-2.35 17.86.3z" color="#000" overflow="visible" transform="matrix(.433 -.043 .058 .406 6.739 16.173)"/><path fill="#d3d7cf" fill-rule="evenodd" stroke="url(#v)" stroke-width="1.869" d="M29.66 10.65c-4.16 5.5-14.85 10.72-17.54 12.5-1.75 1.16-3.53-2.23-2.64-3.38 2.47-3.22 15.07-9.08 14.44-10.57-.62-1.46-12.03 1.1-18.07.02C4.5 8.98 3.7 5.72 5.45 5c9.32-.07 14.5-1.27 21.83.14 2.34.45 3.8 3.6 2.38 5.5z" color="#000" overflow="visible" transform="matrix(.433 -.043 .058 .406 6.739 16.173)"/><path fill="none" stroke="#fff" stroke-width=".934" d="M28.77 10.2c-3.63 4.88-14.88 10.33-17.02 12-.77.6-1.85-1.42-1.48-1.9 2.12-2.68 15.6-8.9 14.62-11.45-1-2.62-12.93.43-17.8-.56-1.13-.23-2.2-2.1-.7-2.7 7.83-.04 14.23-.8 20.4.37 1.98.38 3.16 2.6 1.97 4.22z" color="#000" overflow="visible" transform="matrix(.433 -.043 .058 .406 6.739 16.173)"/><path fill="#d3d7cf" fill-rule="evenodd" stroke="url(#w)" stroke-width="1.869" d="M22.05-8.7c1.1.6 2.78 2.8 1.96 4.58C21.3 1.82 11.3 5.1 7 9.36 5.2 9.86 3.94 7 4.6 5.83 7.26 1.1 20.15-3.97 19.1-5.5c-1.34-1.97 1.18-4.15 2.93-3.2z" transform="matrix(.433 -.043 .058 .406 6.739 16.173)"/><path fill="url(#x)" fill-rule="evenodd" d="M7.16 9.76l3.88-3.33L15.1 4.1l8.8.24-3.06 4.73c-4.3.4-8.05 1.2-13.68.7z" transform="matrix(.433 -.043 .058 .406 6.739 16.173)"/><path fill="url(#y)" fill-rule="evenodd" d="M11.88 23.74L22.1 17.5l6.75.24-2.56 5.13c-4.8.37-9.62 1-14.42.87z" transform="matrix(.433 -.043 .058 .406 6.739 16.173)"/><path fill="url(#z)" fill-rule="evenodd" d="M19.43 36.25l7.97-4.85 6.06.03-2.4 4.03-11.63.8z" transform="matrix(.433 -.043 .058 .406 6.739 16.173)"/><path fill="url(#A)" fill-rule="evenodd" d="M22.22 19.43a12.06 1.7 0 1 1-24.12 0 12.06 1.7 0 1 1 24.12 0z" transform="matrix(.28 -.216 .145 .287 7.192 12.465)" color="#000" overflow="visible"/><path fill="url(#B)" fill-rule="evenodd" d="M22.22 19.43a12.06 1.7 0 1 1-24.12 0 12.06 1.7 0 1 1 24.12 0z" transform="matrix(.341 -.273 .186 .352 8.953 17.541)" color="#000" overflow="visible"/><path fill="url(#C)" fill-rule="evenodd" d="M22.22 19.43a12.06 1.7 0 1 1-24.12 0 12.06 1.7 0 1 1 24.12 0z" transform="matrix(.311 -.25 .171 .321 12.324 23.797)" color="#000" overflow="visible"/><path fill="none" stroke="#fff" stroke-width=".934" d="M21.76-7.8c.78.44 1.9 2.2 1.3 3.48C20.77.6 9.72 5.18 6.67 8.2c-1.3.38-1.67-1.13-1.2-1.96 1.9-3.36 15.57-10.4 14.8-11.46-1.3-1.73.25-3.24 1.5-2.57z" transform="matrix(.433 -.043 .058 .406 6.739 16.173)"/></g><g transform="matrix(-.273 0 0 .273 81.059 -100.14)"><path fill="none" stroke="#3e444c" stroke-width="3.232" d="M255.28 401.7l-9.12 7.4-2.8 1.04 1.37-2.8 8.22-8.23"/><path fill="url(#D)" d="M246.2 1523.44l-9.1 7.4-2.8 1.04 1.36-2.8 8.22-8.22" transform="translate(9.073 -1121.746)"/><path fill="none" stroke="#99440f" stroke-width="3.232" d="M267.38 389.34c3.82 4.48 5.48 12.32 1.72 15.3-3.75 2.98-10.6.97-15.32-4.5-4.7-5.47-5.48-12.32-1.72-15.3 3.75-2.98 11.02-.53 15.32 4.5z"/><path fill="none" stroke="#99440f" stroke-width="3.232" d="M268.74 388.12c3.86 4.52 5.55 12.4 1.8 15.4-3.76 2.97-10.65.92-15.4-4.6-4.74-5.5-5.54-12.4-1.78-15.38 3.75-2.98 11.05-.5 15.38 4.58z"/><ellipse cx="253.555" cy="1514.673" fill="none" stroke="#99440f" stroke-width="3.232" transform="matrix(.783 -.622 .622 .783 -877.939 -635.486)" rx="7.751" ry="11.967"/><path fill="none" stroke="#99440f" stroke-width="3.232" d="M269.8 395.6c-1.6 1.3-4.92.05-7.37-2.78-2.46-2.84-3.14-6.2-1.52-7.5l.2-.14c.53-.33 8.13-6.05 8.43-6.3.36-.26 1.1-1.2 1.47-1.76l8.45 9.5c-.62.28-1.7.94-2.02 1.26-.28.26-7 7-7.4 7.5l-.22.2z"/><path fill="none" stroke="#99440f" stroke-width="3.232" d="M285.07 387.08l1.3-1.1c-2.17 1.64-6.9-.45-10.66-4.73-3.7-4.22-5.13-9.02-3.28-10.9l-1.28 1.3c-1.85 1.88-.45 6.65 3.24 10.84 3.8 4.3 8.6 6.35 10.7 4.58z"/><ellipse cx="270.451" cy="1499.792" fill="none" stroke="#99440f" stroke-width="3.232" transform="matrix(.765 -.644 .644 .765 -893.213 -595.2)" rx="4.981" ry="10.488"/><path fill="url(#E)" d="M267.38 389.34c3.82 4.48 5.48 12.32 1.72 15.3-3.75 2.98-10.6.97-15.32-4.5-4.7-5.47-5.48-12.32-1.72-15.3 3.75-2.98 11.02-.53 15.32 4.5z"/><path fill="url(#F)" d="M268.74 388.12c3.86 4.52 5.55 12.4 1.8 15.4-3.76 2.97-10.65.92-15.4-4.6-4.74-5.5-5.54-12.4-1.78-15.38 3.75-2.98 11.05-.5 15.38 4.58z"/><path fill="url(#G)" d="M268.7 388.1c4.3 5.02 5.08 11.24 1.73 13.9-3.36 2.66-9.57.76-13.87-4.25-4.3-5.02-5.08-11.24-1.73-13.9s9.56-.76 13.87 4.26z"/><path fill="url(#H)" d="M268.55 388.2c2.77 3.23 3.3 7.23 1.16 8.92-2.13 1.7-6.1.45-8.87-2.78-2.77-3.23-3.3-7.23-1.16-8.92 2.13-1.7 6.1-.45 8.88 2.78z"/><path fill="url(#I)" d="M269.8 395.6c-1.6 1.3-4.92.05-7.37-2.78-2.46-2.84-3.14-6.2-1.53-7.5l.2-.14c.53-.33 8.13-6.05 8.43-6.3.36-.26 1.1-1.2 1.46-1.76l8.45 9.5c-.62.28-1.7.94-2.02 1.26-.28.26-7 7-7.4 7.5l-.22.2z"/><path fill="none" d="M269.8 395.6c-1.6 1.3-4.92.05-7.37-2.78-2.46-2.84-3.14-6.2-1.53-7.5l.2-.14c.53-.33 8.13-6.05 8.43-6.3.36-.26 1.1-1.2 1.46-1.76l8.45 9.5c-.62.28-1.7.94-2.02 1.26-.28.26-7 7-7.4 7.5l-.22.2z"/><path fill="url(#J)" d="M279.26 386.7c-1.93-.18-4.13-1.33-5.9-3.24-1.76-1.93-2.66-4.17-2.58-6.02l.22-.32 8.45 9.5-.2.1z"/><path fill="url(#K)" d="M285.07 387.08l1.3-1.1c-2.17 1.64-6.9-.45-10.66-4.73-3.7-4.22-5.13-9.02-3.28-10.9l-1.28 1.3c-1.85 1.88-.45 6.65 3.24 10.84 3.8 4.3 8.6 6.35 10.7 4.58z"/><path fill="url(#L)" d="M283.34 374.84c3.82 4.34 5.22 9.3 3.12 11.07-2.1 1.78-6.92-.3-10.75-4.65-3.8-4.34-5.2-9.3-3.1-11.07 2.1-1.77 6.9.3 10.74 4.66z"/></g></g></svg>