<svg xmlns="http://www.w3.org/2000/svg" width="48" height="48"><defs><radialGradient id="a" cx="46.623" cy="361.079" r="15.874" gradientUnits="userSpaceOnUse" fy="361.079" fx="46.623"><stop offset="0" stop-color="#fff"/><stop offset="1" stop-color="#C4D6E6"/></radialGradient><radialGradient id="b" cx="38.1" cy="361.732" r="8.095" gradientUnits="userSpaceOnUse" fy="361.732" fx="38.1" gradientTransform="matrix(1.018 0 0 1.019 -.007 -338.992)"><stop offset="0" stop-color="#BCD1E6"/><stop offset="1" stop-color="#fff"/></radialGradient><radialGradient id="c" cx="45.611" cy="353.579" r="36.805" gradientUnits="userSpaceOnUse" fy="353.579" fx="45.611"><stop offset="0" stop-color="#fff"/><stop offset="1" stop-color="#D4E0EB"/></radialGradient><radialGradient id="d" cx="21.319" cy="355.757" r="14.054" gradientUnits="userSpaceOnUse" fy="355.757" fx="21.319" gradientTransform="matrix(1.018 0 0 1.019 -.007 -338.992)"><stop offset="0" stop-color="#D8E5F0"/><stop offset="1" stop-color="#fff"/></radialGradient><linearGradient id="e" x1="31.289" x2="21.022" y1="354.564" y2="356.925" gradientUnits="userSpaceOnUse" gradientTransform="matrix(1.018 0 0 1.019 -.007 -338.992)"><stop offset="0" stop-color="#fff"/><stop offset="1" stop-color="#F5D9D9"/></linearGradient><radialGradient id="r" cx="1023.72" cy="-627.435" r="5.676" gradientUnits="userSpaceOnUse" gradientTransform="matrix(.965 -.264 .264 .965 -815.011 1231.086)" fy="-627.435" fx="1023.72"><stop offset="0" stop-color="#fff"/><stop offset="1" stop-color="#F5D9D9"/></radialGradient><radialGradient id="q" cx="1025.922" cy="-630.327" r="6.556" gradientUnits="userSpaceOnUse" gradientTransform="matrix(.965 -.264 .264 .965 -815.011 1231.086)" fy="-630.327" fx="1025.922"><stop offset="0" stop-color="#fff"/><stop offset="1" stop-color="#F5D9D9"/></radialGradient><radialGradient id="p" cx="1024.713" cy="-629.333" r="4.772" gradientUnits="userSpaceOnUse" gradientTransform="matrix(.965 -.264 .264 .965 -815.011 1231.086)" fy="-629.333" fx="1024.713"><stop offset="0" stop-color="#fff"/><stop offset="1" stop-color="#F5D9D9"/></radialGradient><radialGradient id="o" cx="1024.051" cy="-629.578" r="5.729" gradientUnits="userSpaceOnUse" gradientTransform="matrix(.965 -.264 .264 .965 -815.011 1231.086)" fy="-629.578" fx="1024.051"><stop offset="0" stop-color="#fff"/><stop offset="1" stop-color="#F5D9D9"/></radialGradient><radialGradient id="n" cx="1021.376" cy="-628.868" r="4.487" gradientUnits="userSpaceOnUse" gradientTransform="matrix(.965 -.264 .264 .965 -815.011 1231.086)" fy="-628.868" fx="1021.376"><stop offset="0" stop-color="#fff"/><stop offset="1" stop-color="#F5D9D9"/></radialGradient><radialGradient id="m" cx="1025.377" cy="-629.045" r="1.737" gradientUnits="userSpaceOnUse" gradientTransform="matrix(.965 -.264 .264 .965 -815.011 1231.086)" fy="-629.045" fx="1025.377"><stop offset="0" stop-color="#fff"/><stop offset="1" stop-color="#F5D9D9"/></radialGradient><radialGradient id="l" cx="1024.766" cy="-628.697" r="3.024" gradientUnits="userSpaceOnUse" gradientTransform="matrix(.965 -.264 .264 .965 -815.011 1231.086)" fy="-628.697" fx="1024.766"><stop offset="0" stop-color="#fff"/><stop offset="1" stop-color="#F5D9D9"/></radialGradient><radialGradient id="k" cx="1024.593" cy="-626.342" r="2.841" gradientUnits="userSpaceOnUse" gradientTransform="matrix(.965 -.264 .264 .965 -815.011 1231.086)" fy="-626.342" fx="1024.593"><stop offset="0" stop-color="#fff"/><stop offset="1" stop-color="#F5D9D9"/></radialGradient><radialGradient id="j" cx="1019.27" cy="-625.804" r="2.867" gradientUnits="userSpaceOnUse" gradientTransform="matrix(.965 -.264 .264 .965 -815.011 1231.086)" fy="-625.804" fx="1019.27"><stop offset=".006" stop-color="#F5CDCD"/><stop offset="1" stop-color="#F4B1B3"/></radialGradient><radialGradient id="i" cx="1025.151" cy="-629.913" r="5.14" gradientUnits="userSpaceOnUse" gradientTransform="matrix(.965 -.264 .264 .965 -815.011 1231.086)" fy="-629.913" fx="1025.151"><stop offset=".006" stop-color="#F5CDCD"/><stop offset="1" stop-color="#F4B1B3"/></radialGradient><linearGradient id="h" x1="1029.506" x2="1029.343" y1="-620.274" y2="-621.415" gradientTransform="matrix(.965 -.264 .264 .965 -815.011 1231.086)" gradientUnits="userSpaceOnUse"><stop offset="0" stop-color="#F79899"/><stop offset=".257" stop-color="#F39596"/><stop offset=".536" stop-color="#E58E8E"/><stop offset=".826" stop-color="#D08181"/><stop offset="1" stop-color="#BF7777"/></linearGradient><linearGradient id="g" x1="1027.358" x2="1028.092" y1="-618.58" y2="-620.17" gradientTransform="matrix(.965 -.264 .264 .965 -815.011 1231.086)" gradientUnits="userSpaceOnUse"><stop offset="0" stop-color="#F79899"/><stop offset=".352" stop-color="#F39596"/><stop offset=".736" stop-color="#E58E8E"/><stop offset="1" stop-color="#D88686"/></linearGradient><linearGradient id="f" x1="1018.425" x2="1022.583" y1="-631.873" y2="-629.922" gradientTransform="matrix(.965 -.264 .264 .965 -815.011 1231.086)" gradientUnits="userSpaceOnUse"><stop offset="0" stop-color="#F79899"/><stop offset=".352" stop-color="#F39596"/><stop offset=".736" stop-color="#E58E8E"/><stop offset="1" stop-color="#D88686"/></linearGradient></defs><g><path fill="#fff" stroke="#3065a0" stroke-width=".50082" d="M29.35 35.3l7.87-.4-5.1 2.13 6.43-1.73 4.3 2.45-2.05-2.86 6.84-1.55-7.05-.3 2.55-2.46-4.7 2.55-4.5-1.13 2.14 1.54-6.75 1.74z"/><path fill="#fff" stroke="#224987" d="M47.67 28.84c-1.24-3.4-3.3-5.47-6.06-5.02-1.34.22-4 1.18-4.2 7.88l.64 1.2 1.5.08.1-.67c.67-3.58 2.13-6.05 3.73-6.27 1.25-.17 3.17.5 4.3 2.8"/><path fill="#fff" stroke="#224987" d="M3.92 17.7l-.7.7 16.15 8.17.37-.4c2.04-2.2 4.6-3.18 7.18-2.78 4.08.63 8.5 3.93 11.5 10.27l.12.23 1-.92-.33-.25c-2.97-7.95-10.03-18.18-19.45-20.23-5.67-1.25-11.14.56-15.83 5.2z"/><g transform="matrix(1.018 0 0 1.019 -.007 -338.992)"><radialGradient cx="46.623" cy="361.079" r="15.874" gradientUnits="userSpaceOnUse" fy="361.079" fx="46.623"><stop offset="0" stop-color="#fff"/><stop offset="1" stop-color="#C4D6E6"/></radialGradient><path fill="url(#a)" d="M40.87 356.2c-1.33.22-3.93 1.16-4.12 7.75l.62 1.16 1.45.1.13-.66c.65-3.53 2.08-5.95 3.65-6.16 1.23-.17 2.63 1.08 3.74 3.36l.15.3 1.25-.54-.12-.3c-1.22-3.34-4.06-5.44-6.76-5zm5.95 4.93s0 0-.02 0c-1.24-2.38-2.8-3.66-4.3-3.45-1.93.26-3.52 2.78-4.24 6.74-.37-.06-1.3-.18-1.3-.18.16-6.06 2.87-7.16 4.02-7.34 2.3-.37 4.68 1.4 5.84 4.23z"/></g><path fill="url(#b)" d="M38.95 32.18c1.4-7.63 5.63-9.04 8.88-3.04-2.22-6.03-9.92-7.32-10.2 2.86l1.32.18z"/><g transform="matrix(1.018 0 0 1.019 -.007 -338.992)" opacity=".8"><radialGradient cx="45.611" cy="353.579" r="36.805" gradientUnits="userSpaceOnUse" fy="353.579" fx="45.611"><stop offset="0" stop-color="#fff"/><stop offset="1" stop-color="#D4E0EB"/></radialGradient><path fill="url(#c)" d="M3.85 350.2l-.7.7 15.88 8 .36-.38c2-2.16 4.5-3.13 7.05-2.73 4 .6 8.3 4.94 11.24 11.16l1.56-1.32-.23-1.18-.08-.2c-2.94-7.82-10.3-17.15-19.54-19.17-5.56-1.23-10.94.54-15.55 5.1zm15.4-4.43c9 1.97 16.17 11.08 19.04 18.72 0 0-.25.87-.45 1.6-3.04-6.44-7.05-10.35-11.3-11-2.77-.44-5.5.6-7.67 2.94-.45-.23-13.72-6.93-14.53-7.34 4.43-4.4 9.58-6.1 14.9-4.93z"/></g><path fill="url(#d)" d="M38.54 33.9c-5.74-12.15-14.06-13.87-19.32-8.2L4.42 18.2c13.54-13.42 29.6.84 34.56 14.04l-.44 1.64z"/><path fill="url(#e)" d="M38.54 33.9c-5.74-12.15-14.06-13.87-19.32-8.2L4.42 18.2c13.54-13.42 29.6.84 34.56 14.04l-.44 1.64z"/><g transform="matrix(1.018 0 0 1.019 -.007 -338.992)"><path fill="#f79899" stroke="#f57e80" stroke-width=".491" d="M7.27 349.43c.3-.34.8-.48.86-.6.05-.1.32-.75.4-.88.1-.14.6-.2.74-.35.14-.13.14-.4.26-.47.13-.07.75-.1.98-.2.25-.12.1-.18.23-.25s1.2-.28 1.43-.3c.23 0 .6.07.73.04.1-.03.3-.08.52-.08.2 0 1.74.3 2 .35.26.06.97.5 1.25.7.27 0 .82.1.97.15.16.04.84.44.97.6.14.18.17.43.3.57.14.14.23.24.3.37.05.12.2.68.3.8.08.1.25.3.35.7.1.37.14.97.17 1.3.02.3-.1.9-.07 1 .03.1.04.28 0 .4-.04.1-.1 0-.1.28 0 .27-.13.68-.12.76 0 .08.03.2 0 .26-.03.07-.2.12-.17.22s.2.17.26.24c.04.07.1.2.1.27 0 .1-.17.67-.26.97-.08.3-.36.9-.35 1 .02.13.1.17.15.33.05.18.2.64.18.8-.02.16-.74 1.58-.93 1.7-.18.1-1.35.2-1.55.3-.2.1-.93.55-1.15.83-.23.28-.62.67-.8.75-.18.08-.54.15-.65.15-.2 0-.34-.05-.64-.2-.3-.14-.62-.3-.73-.34-.1-.02-.36-.35-.54-.36-.2 0-.85-.02-1.04-.04-.2-.02-.35-.1-.35-.1-.5.24-1.16.43-1.54.48-.37.05-1.02-.17-1.1-.13-.1.04-.43.07-1.02.06-.6 0-1.12-.07-1.37-.32-.25-.24-.37-.56-.4-.66-.05-.1-.22-.3-.3-.92-.02-.16-.2-.32-.26-.55-.06-.23-.24-.67-.2-1.48.04-2.05.33-2.36.3-2.55-.05-.2-.13-.35-.05-1.5.08-1.14.43-1 .53-1.3.1-.3.22-.9.43-1.33.2-.42.5-.56.62-.76.1-.2.16-.45.4-.7z"/><linearGradient x1="1018.425" x2="1022.583" y1="-631.873" y2="-629.922" gradientTransform="matrix(.965 -.264 .264 .965 -815.011 1231.086)" gradientUnits="userSpaceOnUse"><stop offset="0" stop-color="#F79899"/><stop offset=".352" stop-color="#F39596"/><stop offset=".736" stop-color="#E58E8E"/><stop offset="1" stop-color="#D88686"/></linearGradient><path fill="url(#f)" stroke="#f57e80" stroke-width=".491" d="M6.34 361.28c-.05-.03-.1-.06-.13-.1-.25-.24-.37-.56-.4-.66-.05-.1-.22-.3-.3-.92-.02-.16-.2-.32-.26-.55-.06-.23-.24-.68-.2-1.48.04-2.05.33-2.36.3-2.55-.05-.2-.13-.35-.05-1.5.07-1.14.43-1 .52-1.3.1-.3.23-.92.43-1.33.2-.42.52-.56.63-.77.1-.2.16-.44.4-.7.3-.34.8-.48.85-.6.05-.1.32-.75.42-.88.1-.14.6-.2.72-.35.14-.13.14-.4.26-.47.13-.07.75-.1.98-.2-.22.04-.37.04-.5-.03-.12-.07-.1-.15-1.12-.08-1 .07-2.16.25-3.48 1.2-1.3.97-1.27 1.2-1.4 1.33-.13.13-1.12 1.04-1.33 1.38-.2.34-.33.45-.38.6-.07.14-.07.35-.2.5-.12.14-.78 1.26-.94 1.77-.15.5-.18.76-.25 1-.06.2-.37.84-.5 1.36-.12.53-.18 1.24-.14 1.4.05.18.38.5.4.6.04.12-.2.43-.17.57 0 .15.16.52.28.8.1.3.15.5.26.6.1.13.32.14.4.26.06.1.24.37.46.48.22.1.4.12.6.24.23.13.65.34.9.34.27 0 .64-.17.82-.1.2.05.88.44 1.16.46.3 0 .8-.28.96-.34z"/><path fill="#f57e80" stroke="#cb696b" stroke-width=".491" d="M14.55 362.15c-.2 0-.34-.05-.64-.2-.3-.14-.62-.3-.73-.34-.1-.02-.36-.35-.54-.36-.16 0-.64-.02-.9-.03"/><linearGradient x1="1027.358" x2="1028.092" y1="-618.58" y2="-620.17" gradientTransform="matrix(.965 -.264 .264 .965 -815.011 1231.086)" gradientUnits="userSpaceOnUse"><stop offset="0" stop-color="#F79899"/><stop offset=".352" stop-color="#F39596"/><stop offset=".736" stop-color="#E58E8E"/><stop offset="1" stop-color="#D88686"/></linearGradient><path fill="url(#g)" stroke="#994f51" stroke-width=".491" d="M11.72 361.2c.14.25.62.67 1.08.85.46.18.3.4.4.48.1.08.16.1.4.1.26-.04.45.1.67.03.2-.05.3-.2.3-.33-.02-.14-.02-.18-.02-.18"/><path fill="none" stroke="#d96f71" stroke-width=".491" d="M11.25 361.1c.32-.14.65-.3 1-.46.33-.16 1.23-.37 2-1.02.35-.3.6-.97 1.42-1.7.3-.26 1.05-1.32 1.35-1.58.3-.26.97-.9 1.1-1.1.16-.18.27-.7.4-1 .12-.3 1.12-1.07 1.2-1.1.1-.05.12.13.15.27"/><path fill="none" stroke="#d96f71" stroke-width=".491" d="M12.83 346.44c.13.02.45.1.9.25.46.15 1.26.57 1.34.63.08.05.9 1.03 1.24 1.34.36.32 1.6 1.5 1.7 1.62.1.12.3.5.36.68.07.18.23 1.05.23 1.24 0 .18-.07.86-.1 1.07 0 .2-.02.8-.07.96"/><g><path fill="#f57e80" d="M11.37 357.06c-.22-.04-1.3-1.3-1.88-1.6-.58-.3-1.05-.62-2.37-.5-1.32.14-1.34.16-1.54.1-.2-.04-.27-.04-.26 0 0 .07-.02.2-.05.24 0 .1.08 0 .26-.03.2-.02.7.1 1.02.06.3-.02 1.37-.14 1.67-.04.3.07 1.3.4 1.6.65.33.24.66.65.77.76.12.13.44.4.55.4.12 0 .34 0 .2-.04z"/><path fill="#e47678" d="M6.55 352.63c.14-.2 1.8-.88 2.4-.5.6.4 1.2 1.4 1.67 1.86.46.46.78.9 1.3 1.27.52.38.94.7 1 .98.07.28-.04 1.5-.02 1.64 0 .14-.18.33-.26.3-.1-.05-1.24-.3-1.54-.23-.3.08-1.2.43-1.46.37-.24-.06-1-.25-1.24-.44-.23-.2-.32-.54-.84-.35-.52.2-1.4.63-1.55.76-.15.14-.3 0-.17-.12.13-.12 1.3-.58 1.44-.72.15-.14.6-.3.7-.23.08.06.36.5.57.6.22.1.7.23 1.1.2.43-.02 1.13-.25 1.37-.28.24-.02 1.35.2 1.5.15.14-.05.37-1.34.25-1.6-.12-.25-1.1-.98-1.62-1.5-1-1.02-1.7-2.1-1.9-2.25-.2-.13-.43-.43-1.08-.32-.65.12-1.3.38-1.47.53-.16.14-.24 0-.13-.13z"/><path fill="#e47678" d="M7.96 348.96c.3-.06.73.06 1 .1.25.05.7.18.93.3.22.15.2.26.13.4-.06.14-.04.4-.18.6-.13.17-.58.67-.68.95-.1.3-.14.76-.36.78.1 0 .26.15.26.15-.04-.18.12-.6.24-.73.12-.14.38-.7.45-.84.06-.13.27-.36.28-.45 0-.1.03-.38.15-.55.1-.16.12-.22-.18-.35-.3-.14-.7-.3-.88-.3-.2-.02-.56-.1-.73-.15-.2-.05-.2-.13-.2-.18-.02.1-.08.26-.24.3z"/><path fill="#e47678" d="M5.76 352.35c.23-.2.47-.4.6-.5.15-.07.58-.35.67-.47.1-.12.37-.34.5-.4.12-.03.5.05.66 0 .15-.05.22-.24.12-.2-.1 0-.13.1-.32.1-.2 0-.38 0-.32-.04.07-.04.32-.22.35-.3.03-.08.2-.34.2-.4-.08.12-.17.3-.25.36-.08.07-.46.27-.54.35-.08.1-.48.5-.6.57-.12.06-.48.33-.57.4-.1.08-.22.27-.27.23-.05-.04-.07-.18-.07-.18-.02.16-.17.48-.17.48z"/><path fill="#e47678" d="M5.48 359.5c.1.1.24.25.36.26.12 0 1.06.12 1.4.08.3-.04 1-.07 1.12-.03.1.05.7.48.68.54-.03.06-.2-.03-.34-.1-.12-.07-.27-.23-.45-.25-.2-.04-1.3.03-1.62 0-.32-.05-.8-.13-.88-.16-.06-.03-.28-.3-.24-.14-.02-.1-.02-.2-.02-.2z"/><path fill="#f57e80" d="M11.1 351.57c-.05-.04-.15-.06-.3.06-.14.13-.07.3 0 .36.08.06 1.1 1.17 1.16 1.43.07.27 0 1-.1 1.22-.08.23.04.32.05.34.03 0 .1-.37.15-.46.04-.1.17-.7.15-.8-.03-.1-.2-.54-.3-.68-.1-.14-.8-.88-.9-1.07-.07-.2-.04-.24 0-.25.05 0 .15-.07.14-.1 0-.03-.03-.08-.03-.08z"/><path fill="#e47678" d="M12.38 353.2c.08-.26.23-1.06.24-1.13 0-.07-.16-.96-.1-1.04.06-.1.23-.04.44 0 .2.07.84.2 1 .2.14-.02.88 0 1 0 .14 0 .28.15.35.2.08.07.53.56.6.62.06.07.17.2.1.3-.07.07-.14.22-.2.26-.08.07-.22.4-.4.44-.17.04-.46.12-.67 0-.2-.13-.53-.02-.56-.15-.04-.14-.1-.17-.15-.15-.04.03-.15.3-.02.36.13.07.64.13.8.2.18.04.2.12.2.18s.13.16.2.05c.04-.1.03-.18-.05-.24-.07-.08-.22-.04-.2-.1 0-.05.25 0 .4-.05.15-.04.22-.23.3-.3.1-.05.35-.14.42-.3.07-.18.13-.28.07-.4-.05-.1-.4-.47-.68-.7-.28-.24-.42-.28-.45-.4-.02-.1-.05-.3-.2-.4-.13-.1-.16-.2-.17-.28 0-.08-.03-.25-.1-.3-.05-.02-.16 0-.16.05 0 .06.08.28.15.34.07.05.3.3.34.44.04.14.08.2.03.22-.07.02-.47 0-.74-.04-.27-.03-1.04-.12-1.2-.14-.14-.02-.35-.03-.38-.17-.03-.13.07-.53.24-.72.17-.2.1-.63.04-.83-.05-.2-.25-.43-.63-.54-.38-.12-1.27-.4-1.56-.5-.28-.1-.4-.12-.48-.18-.1-.06-.16-.13-.27-.08-.1.06.08.16.17.2.1.02 1.24.4 1.56.5.33.12.82.27.9.5.1.2.2.54.1.78s-.3.63-.3.86c0 .24 0 .9 0 1.25-.03.37-.15 1.07-.1 1.15.05.1.1.12.12.04z"/><path fill="#e47678" d="M9.28 347.6c.1-.07.28-.1.42-.1.14-.02.7.04.82.03.13-.02.6-.03.65-.08.06-.06.1.06-.05.12-.14.06-.45.05-.66.05-.2 0-.73-.07-.86-.03-.13.02-.36.04-.44.08.05-.04.12-.08.12-.08z"/><path fill="#e47678" d="M10.5 346.94c.13-.04.7 0 .84 0 .13.02.78.16 1 .25.2.07.86.6 1 .7.14.07.37.25.46.2.08-.07.02-.08-.08-.17-.1-.1-.7-.46-.9-.58-.2-.13-.4-.25-.6-.3-.17-.05-.83-.13-.96-.16-.14-.03-.68 0-.68 0l-.07.04z"/><path fill="#e47678" d="M14.75 349.48c.03-.04.2.13.3.17.1.05.5.26.65.34.16.06.3.22.36.3.07.06.28.46.32.56.04.1.37 1.06.43 1.2.07.14.1.3.2.4.06.1.2.2.3.5.1.3.25.6.36 1.1.1.48.17.9.2 1.05 0 .16.03.26.08.25.04-.02.1 0 .16-.07-.1.1-.2.22-.26.3-.04-.1 0-.26-.04-.38-.03-.13-.16-.66-.22-.97-.06-.3-.24-1.06-.3-1.12-.07-.05-.1-.2-.14-.3-.05-.12-.3-.3-.33-.4 0-.12-.26-.74-.38-1.05-.13-.3-.33-.95-.47-1.02-.15-.07-.64-.47-.8-.52-.16-.05-.32-.16-.36-.23-.05-.06-.08-.06-.05-.1z"/><path fill="#e47678" d="M13.42 353.96c.06-.04.1.02.1.1 0 .06-.05.08-.08.13-.03.04-.03.18.03.25s.25.32.4.4c.06.07.2.26.36.3.1.05.2.26.28.22.1-.04.36-.32.45-.4.1-.1.35-.3.46-.36.12-.07.23-.24.36-.28.13-.05.27-.17.34-.24.07-.08.1.02.02.07-.06.06-.34.24-.42.34-.07.1-.26.26-.33.32-.07.07-.27.12-.52.4-.25.26-.27.4-.3.55-.04.14-.17.44-.15.68.02.24.07.34.14.38.08.03.2.24.28.3.07.04.2.04.24 0 .02-.06.1 0 .08.06 0 .04-.04.04-.15.03-.1-.02-.23 0-.33-.13-.1-.12-.26-.25-.3-.32-.06-.08-.13-.25-.1-.36.02-.1.2-.67.22-.77 0-.1-.08-.18-.2-.27-.1-.1-.28-.27-.4-.33-.1-.06-.24-.2-.34-.3-.1-.07-.17-.2-.2-.34-.06-.12-.13-.2-.06-.27.06-.06.1 0 .1-.06.03-.06.02-.1.02-.1z"/><path fill="#f57e80" d="M15.8 356.2c.08-.06.23 0 .23.03s-.1 0-.1.07c0 .08-.02.18.12.22.15.05.1.04.2.12.1.08.03.04-.1 0-.13 0-.3 0-.34-.1-.04-.12-.1-.25 0-.33z"/><path fill="#f57e80" d="M16.95 355.34c.03-.06 0-.13-.1-.15-.1-.03-.13-.06-.08-.1.05-.03.14 0 .16-.04.02-.03-.23-.05-.34 0-.13.04-.22-.03-.2 0 0 .06.17.1.24.15.07.06.27.2.3.14z"/><path fill="#d96f71" d="M10.15 360.18c.1-.04.52.28.72.3.2 0 .37.14.58.17.2.03.78-.06.9-.1-.1.1-.4.23-.4.23-.36 0-.85-.03-1-.1-.17-.06-.44-.3-.58-.3-.14-.03-.3.03-.3-.12 0-.07.03-.05.08-.08z"/><path fill="#e47678" d="M12.77 358.37c.1-.1.16.07.1.15-.07.07-.18.18-.2.5-.04.34 0 .6.13.6.12 0 .32.05.32.1 0 .06-.15 0-.28-.02-.14 0-.34-.14-.34-.3 0-.2.1-.58.2-.76.1-.18.02-.22.07-.27z"/><path fill="#d96f71" d="M15.28 358.3c-.13.06-.56.28-.77.25-.2-.04-.63-.1-.62-.07 0 .04.44.18.5.17.07 0 .47-.06.5-.04.05.03.06.14.06.14.1-.16.34-.45.34-.45z"/><path fill="#d96f71" d="M5.25 359.14c-.05.16-.12.4-.26.44-.14.03-.28 0-.38 0-.1.03-.68.22-.84.23-.15.02-1.06.05-1.27.02-.2-.03-.68.06-.7-.05 0-.1.1-.08.23-.08s.54.07.7.06c.15 0 .77-.02.95-.07.2-.06.8-.22.9-.24.1 0 .3 0 .33-.08.05-.07.25-.28.24-.42 0-.14 0-.2 0-.2.05.18.1.38.1.38z"/><path fill="#e47678" d="M.7 358c.06-.18.2-.38.32-.45.1-.06.36-.2.48-.13s.3.3.37.37c.1.06.24 0 .3.02.04.03.48.34.5.4.02.08 0 .23.05.27.05.02.14-.08.15-.14 0-.06-.03-.25-.07-.3-.04-.02-.46-.4-.53-.38-.08 0-.24.05-.38-.05-.16-.1-.43-.4-.5-.36-.1.02-.22.12-.32.2-.1.06-.36.2-.4.2-.02 0-.25-.07-.32-.12.1.08.33.44.33.44z"/><path fill="#e47678" d="M.57 356.33c.08-.14.15-.4.27-.5.12-.1.32-.46.46-.47.14 0 .44.2.74.15.3-.04 1.1-.26 1.3-.25.2 0 1.04-.3 1.24-.44.2-.14.35.1.45.1.06-.02-.1.16-.28.2-.18.05-.55 0-.7.06-.17.07-1.06.2-1.22.24-.16.04-.86.26-1.2.2-.34-.05-.45.05-.6.2-.17.17-.33.53-.44.7-.1.14-.2.26-.23.2 0-.06.12-.23.2-.37z"/><path fill="#d96f71" d="M5.48 352.7c-.22-.13-.85-.3-1.07-.7-.2-.36-.4-.55-.42-.83-.03-.28-.13-.17-.2-.13-.08.03-.36.2-.5.2-.15 0-.22.06-.13.08.1.03.4-.05.5-.1.1-.07.14-.02.2.13.05.16.14.68.34.77.2.08.4.37.65.4.25.05.5.24.5.28.02.05 0 .2.02.23.05-.23.1-.34.1-.34z"/><path fill="#cb676a" d="M4.9 350.34c-.02-.07.06-.16.1-.15.05 0 .08.17.18.2.1.05.52.26.66.32.13.06.34.18.4.13.04-.04.03.03.03.03-.04.07-.1.27-.1.27-.1-.15-.36-.18-.43-.24-.06-.04-.23-.18-.42-.25-.2-.08-.42-.2-.43-.3z"/><path fill="#cb676a" d="M7.52 349.2c-.06 0-.34 0-.56-.1-.22-.1-.48-.15-.7-.1-.22.07-1.06.26-1.25.37-.17.12-.24.2-.28.3-.04.07.17-.14.3-.2.13-.06.86-.28 1.1-.3.24-.05.56-.1.8.02.25.1.35.23.35.23.08-.13.25-.22.25-.22z"/><path fill="#d96f71" d="M2.77 351.4c.04 0-.13.4-.07.48.05.1.37.33.53.38.17.05.3.23.3.3 0 .1-.02.42-.15.44-.13.03-.1-.02-.05-.08.06-.05.12-.2.06-.34-.06-.15-.16-.22-.3-.28-.13-.06-.35-.26-.4-.3-.08-.04-.1-.1-.04-.25.05-.15.1-.36.1-.36z"/><path fill="#d96f71" d="M1.56 353.6c.1-.1.12-.34.4-.6.28-.23.43-.4.53-.42.08 0 .28-.05.23-.14-.04-.1-.1-.12-.12-.2 0-.08-.03-.2.03-.23.06 0 .07-.13-.02-.07-.07.07-.12.17-.1.25.02.07.13.22.07.24-.06.03-.22.02-.3.12-.1.1-.5.5-.54.6-.04.07-.17.47-.17.47z"/><path fill="#cb696b" d="M9.53 347.13c.18-.08-1.15 0-1.34.03-.2.02-1.8.4-2.05.56-.23.14-.64.44-.8.56-.07.05.06.03.2-.02.16-.04.5-.1.72-.15.2-.04.78-.18.96-.2.18-.02.84-.1 1-.03.17.06.14.02.16.08 0 .07.04.18.04.2.05-.1.07-.17.13-.22.06-.05.13-.1.13-.1-.28-.02-.58-.14-.8-.1-.2.04-1 .18-1.18.22-.2.05-1.13.3-1.12.25 0-.06.1-.13.27-.25.15-.1.34-.25.7-.35.37-.1 1.58-.37 1.8-.4.22 0 .86-.05.9 0 .04.06.05.36 0 .4.1-.1.15-.28.18-.34s.03-.1.08-.13z"/><path fill="#f57e80" d="M4.02 349.34c.2-.1.46-.25.53-.32-.14.08-.4.22-.4.16.03-.06.06-.12.06-.12-.07.13-.18.28-.18.28z"/><path fill="#f57e80" d="M17.88 351.2c.04-.08.18.07.2.13.05.05.12.27.18.35.06.1.2.3.22.38.03.06.1.2.1.14 0 .12 0 .28 0 .28-.07-.18-.16-.32-.2-.42-.05-.1-.12-.2-.22-.38s-.2-.37-.25-.37c-.04 0-.05-.06-.02-.1z"/><path fill="#f57e80" d="M16.3 349.13c-.03-.1-.2.2-.18.27 0 .06.1.13.13 0 .03-.1.06-.22.05-.27z"/><path fill="#e47678" d="M17 347.53c-.07-.02-.18 0-.16.05.02.04.2.28.43.37.2.1.47.5.5.6.03.07.3.86.4.94.1.06.43.43.52.5.08.1.4.6.48.7.07.08.16.32.33.74.18.4.3.45.33.4.03-.04 0-.02-.13-.2-.12-.2-.25-.6-.33-.8-.1-.2-.46-.68-.6-.84-.16-.16-.32-.33-.4-.56-.1-.23-.32-.6-.47-.84-.14-.26-.4-.56-.47-.62-.1-.06-.4-.23-.4-.3-.03-.07-.04-.15-.04-.15z"/><path fill="#e47678" d="M18.08 348c.1-.04.24.1.2.1-.03.04-.03.1.04.17.06.08.3.4.4.46.1.07.36.26.4.25.02 0 .08.2.1.22 0 .03.08.2-.06.1-.14-.12-.3-.28-.37-.38-.1-.1-.3-.36-.4-.47-.1-.1-.18-.25-.2-.32-.04-.07-.18-.1-.12-.14z"/><path fill="#f57e80" d="M19.98 353.03c-.1-.06-.16-.12-.3 0-.1.14-.42.24-.46.33-.05.08-.23.35-.27.4.2-.2.74-.67.8-.64.06.04.13.26.13.26.08-.06.1-.35.1-.35z"/><path fill="#d96f71" d="M19.3 357.76c.04-.05.15.04.13.1-.02.04 0 .06-.23.2-.22.12-.45.46-.48.56-.04.1-.28.12-.35.3-.06.18-.17.54-.2.6-.03.08-.36.4-.45.5-.1.1-.3.3-.34.3-.06.02-.25.1-.25.1.2-.22.54-.48.6-.55.05-.07.15-.14.26-.35.1-.2.2-.53.27-.62.08-.1.3-.16.32-.27.02-.1.2-.44.33-.54.13-.1.27-.14.3-.2.02-.05.06-.14.06-.14z"/><path fill="#d96f71" d="M17.57 358.87c.1-.08.36-.2.36-.14 0 .05-.1.27-.25.36-.15.07-.22.15-.3.24-.06.1-.26.13-.4.2-.17.1-.08-.1 0-.13.1-.02.2-.04.27-.14.05-.1.2-.3.32-.4z"/><path fill="#d96f71" d="M18.18 357.06c-.05.14-.16.4-.25.5-.1.08-.48.5-.62.6-.14.13-.37.3-.42.43-.06.13-.18.3-.28.42-.1.12-.3.26-.42.43-.1.16-.3.5-.25.52.06.03.2-.27.3-.36.1-.08.38-.25.4-.3.03-.07.12-.3.27-.5.14-.18.4-.42.56-.6.15-.15.58-.6.63-.73.04-.12.08-.4.08-.4z"/><path fill="#d96f71" d="M19.6 354.9c.02.05.03.36.05.45.03.1.08-.06.07-.18-.02-.12-.12-.3-.12-.3z"/><path fill="#d96f71" d="M19.15 354.5c.05-.1.18-.06.12.03-.06.1-.16.25-.13.38.04.13.06.48.1.6 0 .13.1.35 0 .46-.12.12-.24 0-.26.12-.02.1-.16.2-.18.7 0 .17-.07.2-.12.15-.05-.03-.13-.17-.2-.1-.08.07-.14.15-.2.24.03-.2.15-.37.2-.38.05 0 .16.12.18.03.03-.1.08-.44.15-.55.08-.1.25-.16.3-.28.06-.12.1-.26.05-.55-.05-.3-.1-.54-.07-.64.04-.08.07-.2.07-.2z"/><linearGradient x1="1029.506" x2="1029.343" y1="-620.274" y2="-621.415" gradientTransform="matrix(.965 -.264 .264 .965 -815.011 1231.086)" gradientUnits="userSpaceOnUse"><stop offset="0" stop-color="#F79899"/><stop offset=".257" stop-color="#F39596"/><stop offset=".536" stop-color="#E58E8E"/><stop offset=".826" stop-color="#D08181"/><stop offset="1" stop-color="#BF7777"/></linearGradient><path fill="url(#h)" d="M16.03 357.57c-.44.65-.44.75-.5.82-.06.07-.33.1-.48.43-.15.33-.35.7-.53.93-.18.23-.16.4-.3.44-.14.03-.35-.04-.5.08-.14.13-.2.43-.2.67 0 .25.05.5-.1.54-.12.02-.26.13-.36.04-.1-.1-.32-.28-.37-.3-.08 0-.86-.05-.94-.03 0 0-.33 0-.5-.1.2-.08.72-.35.8-.38.08-.04.28-.13.4-.18.15-.04.98-.32 1.52-.7.53-.4.9-1.07 1-1.16.08-.1.7-.8 1.05-1.1z"/><path fill="#d96f71" d="M14.65 360.45c.08-.14.12-.25.15.02s.12.4.16.38c.05 0-.2-.07-.2 0s-.04.3.07.34c.06 0-.13.1-.17 0-.05-.1-.04-.22-.03-.37 0-.14-.03-.27.02-.38z"/></g><radialGradient cx="1025.151" cy="-629.913" r="5.14" gradientUnits="userSpaceOnUse" gradientTransform="matrix(.965 -.264 .264 .965 -815.011 1231.086)" fy="-629.913" fx="1025.151"><stop offset=".006" stop-color="#F5CDCD"/><stop offset="1" stop-color="#F4B1B3"/></radialGradient><path fill="url(#i)" d="M5.82 358.06c.14-.17.82-.52 1.03-.6.2-.1.73-.44.9-.44.14 0 .52.4.74.6.2.18.88.33 1.1.27.23-.07.95-.3 1.1-.35.18-.04.75-.22.83-.18.08.05.6.27.76.18.13-.1.36-.8.28-1.1-.06-.2-.66-.6-.95-.83-.3-.24-1.4-1.43-1.5-1.64-.13-.2-1.06-1.47-1.3-1.52-.2-.06-.88 0-1.16.06-.28.08-1.02.4-1.12.53-.1.14-.47.04-.32-.26.15-.3.7-.56.95-.62.24-.07 1.24-.3 1.4-.28.16 0 .3-.14.4-.47.1-.33.06-.62.33-.88.28-.25.5-.25.5-.4.02-.14.27-.54.06-.64-.2-.1-.83-.23-.97-.2-.16.05-.28.28-.48.25-.2-.04-.04-.27-.23-.3-.2-.02-.57-.07-.74.2-.17.25-.27.6-.33.7-.06.1-.53.33-.62.55-.08.22-.3.9-.2.93.08 0 .54-.3.7-.43.15-.14.42-.57.6-.6.17-.06.3-.13.34-.22.04-.1.37-.48.43-.4.05.05 0 .43-.1.52-.1.1.17.05.2.13.05.07.05.3-.1.4-.18.1-.53.03-.7.1-.15.08-.96.57-1.15.77-.2.2-.72.54-.74.8 0 .25-.4 1.94-.02 2.05.38.1 2.04-.06 2.4-.02.36.04 1.65.68 2.02 1.06.36.38.86 1 1 1.05.13.06.35.24.3.26-.06.02-.42.1-.5.03-.08-.08-1.08-1.1-1.2-1.13-.1-.02-1.77-.74-2.18-.64-.4.1-1.1.26-1.34.2-.25-.08-.5-.17-.66.07-.16.24-.35.7-.32 1.2.03.5.2 1.15.18 1.37 0 .22.1 1.03.33 1.1.22.1.95.3 1.42.24s.9-.38 1.28-.1c.36.3.85.75.8.9-.05.14-.26.2-.43.17-.17-.03-.64-.26-.92-.3-.28 0-1.93-.16-2-.1-.1.07.02.44.17.63.15.2.55.52 1.1.55.52.02 1.06-.25 1.34-.18.28.06.54.33.9.35.34.02 1.14-.2 1.2-.4.04-.2-.1-.46-.26-.4-.16.03-.56-.03-.52-.3.04-.25.27-.37.36-.33.1.03.48.37.6.33.14-.04 0-.44.24-.45.24 0 .3.5.46.56.16.07 1.42-.15 1.37-.4-.03-.28-.55-.2-.6-.46-.04-.27.3-1.05.24-1.15-.08-.12-.72-.28-1.1-.22-.4.06-1.37.33-1.72.24-.35-.1-1.32-.37-1.44-.48-.1-.13-.2-.46-.7-.3-.5.14-1.44.7-1.56.78-.12.07-.4.12-.4-.12-.02-.24.13-.2.2-.3z"/><path fill="#f4b1b3" d="M13 358.47c-.06.1-.2.4-.06.68.15.3.5.4.8.24.3-.18.6-.27.52-.4-.08-.15-.3.03-.54-.1-.22-.12-.43-.25-.45-.33-.02-.08-.06-.33.05-.4.1-.07.56-.06.8 0 .26.1.9.08 1.07-.18.15-.27.15-.48-.1-.5-.25-.02-.74-.34-.8-.52-.1-.18-.26-.44-.18-.67.07-.23.3-.6.18-.75-.12-.15-.75-.36-.88-.64-.14-.27-.32-.43-.3-.67.05-.24.13-.32.23-.38.1-.05.36-.1.4.04.03.12-.14.3 0 .47.13.18.45.68.66.67.23-.02.6-.24.84-.5.23-.24.72-.5.78-.65.06-.15.2-.37.23-.27.04.1.14.45.04.55-.1.1-.4.2-.35.38.06.17.3.36.44.38.13.02.43-.18.55-.07.12.12.2.27.07.3-.12.04.2.2.08.26-.1.08-.48.1-.64-.08-.16-.17-.23-.38-.47-.4-.25-.05-.46.04-.78.2-.33.16-.62.57-.57.75.05.2-.03.53.14.74.17.2.46.2.52.3.06.1-.08.44.1.5.2.06.57 0 .64-.24.08-.25.1-.33-.04-.44-.13-.1-.3-.17-.34-.32-.04-.15.08-.36.18-.4.1-.02.46.04.43.2-.04.17-.1.3.13.27.23-.03.68-.45.9-.7.2-.24.4-.38.37-.56-.04-.17-.27-1.24-.35-1.47-.07-.22-.2-.57-.3-.8-.1-.2-.27-.5-.42-.53-.15-.03-.37-.04-.53.22-.16.26-.45.45-.55.6-.1.14-.1.4-.23.44-.1.05-.36.14-.4-.03-.05-.18-.2-.3-.35-.3-.16 0-.6.07-.67-.14-.06-.2-.12-.57.04-.63.15-.05.3.1.47.16.17.06.8.3.95.18.14-.15.28-.38.37-.52.1-.14.2-.26-.1-.5-.3-.25-.44-.63-.68-.63-.24 0-1.05.13-1.3.03-.27-.1-.8-.34-.95-.2-.17.15.06.63.08.85 0 .2-.22 1.2-.3 1.3-.07.1-.45 1.56-.4 1.73.04.16.46.6.7.8.26.18.4.33.32.9-.08.54-.14 1.3-.12 1.4.03.08.08.27.02.37z"/><path fill="#f4b1b3" d="M11.7 354.7c.06-.23.14-1 .08-1.2-.07-.2-.66-.63-.9-1.08-.25-.45-.33-.7-.16-.8.17-.13.44-.22.48-.1.03.13-.18.26-.07.45.1.2.74.82.84 1.03.1.2.27.6.26.43 0-.16-.08-.45-.06-.72.03-.25-.04-1.07-.02-1.47 0-.4.2-.8.27-1 .08-.18.23-.73.05-1.04-.18-.33-1.03-.52-1.3-.64-.3-.13-1.3-.42-1.32-.54-.04-.13.1-.22.23-.2.14.02.17.17.26.2.1.03 1.5.46 1.88.56.38.1.83.26.9.5.07.26.14.86-.02.94-.15.08-.33.12-.37.32-.04.2-.16.44.07.47.24.03 1.07.2 1.26.18.2 0 .64-.05.6-.18-.03-.13-.32-.35-.37-.55-.05-.2 0-.32.14-.32.12 0 .17.04.2.14s0 .36.06.4c.06.06.3.2.32.3.03.1.08.3.16.38.07.07.75.7.82.7.06 0 .4-.1.35-.27-.04-.15-.3-1.05-.43-1.15-.14-.1-.9-.46-1-.55-.12-.1-.4-.18-.3-.52.12-.35.3-.05.34.07.05.12.77.47.88.5.1.05.26-.2.22-.4-.03-.2.08-.52.16-.54.07-.03.32 0 .28.17-.05.18-.2.37-.28.54-.07.18-.18.32-.08.5.1.17.37.57.43.77.05.2.24 1 .35 1.1.1.1.44.65.5.9.07.23.37.73.4 1 0 .3.04.9.13 1.06.1.17.15-.12.27-.4.12-.25 0-.64.04-.78.04-.15.07-.5.13-.88.04-.4-.1-.76-.2-1-.07-.23-.2-.43-.32-.52-.14-.08-.26-.33-.12-.43.14-.1.22-.1.27.03.04.12.22.36.24.46.03.1.2.4.2.28-.02-.12-.1-.9-.36-1.06-.23-.15-.7-1.04-.98-1.2-.27-.15-.76-.66-.86-.77-.1-.1-.7-.8-.85-.98-.15-.2-1.36-.9-1.8-.98-.45-.1-1.5-.32-2.02-.25-.54.08-.9.23-.1.25.8 0 1.05.24 1.2.35.13.1 1.14.7 1.22.8.08.1.17.24-.14.2-.3-.03-.96-.5-1.14-.64-.17-.14-1.44-.52-1.65-.52-.2 0-.68.14-.8.15-.14 0-.5-.06-.6.05-.1.1-.14.3-.02.27.13-.03.72.04.8.04.1 0 .6-.07.8-.12.2-.05.27.14.08.24-.2.1-.88.1-1 .06-.12-.03-.8 0-.98.08-.2.1-.55.14-.7.55-.17.42-.23.53.1.55.36 0 .83.1.95.17.13.06.56.23.68.33s-.03.3-.08.5-.16.52-.33.73c-.18.2-.42.8-.5.93-.07.13-.3.57-.2.66.1.1.72.74.77.87.05.12.45.65.54.77.1.13.92.94 1.05.96.12.02.17.02.18-.06z"/><path fill="#f4b1b3" d="M14.1 346.6c.15 0 1.2.08 1.47.27.3.2.6.34.75.6.14.26.88.48.78.6-.1.13-.13.37.2.6.3.22.53.73.77.9.24.2 1 1.03 1.1 1.43.1.4.24.93.2 1.23-.05.3-.16.98-.3 1.13-.16.15-.33.56-.4.43-.07-.15-.05-.68-.03-.93.02-.26.17-.7.1-.8-.04-.07-.3-1.43-.5-1.6-.2-.16-1.25-1.35-1.5-1.5-.25-.18-1.06-1.26-1.34-1.53s-1.68-.8-1.3-.83z"/><path fill="#f4b1b3" d="M17.5 347.8c.05 0 .5.35.75.65.24.3.78 1.14.93 1.4.16.28.4.34.47.56.06.23.2.55.16.7-.05.16.1.44.04.46-.05.03-.2-.23-.36-.7-.18-.47-.84-.93-1-1.24-.13-.3-.54-1.26-.74-1.47-.2-.22-.32-.34-.25-.34z"/><path fill="#f4b1b3" d="M13.83 360.42c.17-.1.46.04.58-.12.12-.15.5-.73.58-1 .07-.27.2-.64.32-.7.13-.07.4.05.45-.15.07-.2.1-.52.2-.7.08-.18.45-.33.64-.65.2-.32.75-.85 1-1.13.26-.27.53-.42.65-.63.12-.2.3-.75.4-.98.1-.23.6-.8.72-.9.14-.07.4-.14.38.17 0 .32-.07.77-.2.92-.1.14.08-.2-.1-.24-.2-.03-.3-.14-.5.32-.16.45.15 1 .08 1.17-.06.15-.36.26-.4.37-.06.1-.18.38-.3.53-.1.16-.34.27-.4.48-.05.2-.3.55-.5.7-.23.12-.6.28-.72.6-.13.32-.28.5-.47.73-.2.24-.44.5-.42.72.03.23.14.75-.22.87-.36.1-.58.05-.65-.2-.07-.28-.03-.46-.14-.4-.13.04-.38.32-.32.48.06.15 0 .58.1.66.1.08.6-.02.66.17.05.2.12.38-.28.48-.4.1-.68 0-1.04-.14-.37-.14-.26-.2-.27-.5 0-.3-.05-.8.18-.92z"/><path fill="#f4b1b3" d="M17.1 358.7c.2-.23.77-.68.84-.82.07-.15.44-.74.53-.76.1-.02.23.1.4-.2.14-.3.16-.74.26-.77.1-.02.22.57-.1.94-.33.36 0 .48-.26.67-.24.2-.5.13-.6.3-.08.2.2.43-.1.5-.27.08-.7.24-.8.44-.13.2-.5.4-.55.56-.05.17-.25.53-.38.58-.13.05-.36-.1 0-.44.37-.34.43-.65.75-1z"/><radialGradient cx="1019.27" cy="-625.804" r="2.867" gradientUnits="userSpaceOnUse" gradientTransform="matrix(.965 -.264 .264 .965 -815.011 1231.086)" fy="-625.804" fx="1019.27"><stop offset=".006" stop-color="#F5CDCD"/><stop offset="1" stop-color="#F4B1B3"/></radialGradient><path fill="url(#j)" d="M.55 357.04c.02-.18.23-.7.32-.8.1-.13.38-.52.6-.52.22 0 .64-.03.9-.1.23-.07.8-.23.98-.27.17-.05 1.17-.13 1.3-.15.1-.02-.03.37-.08.87s.04 2.2.06 2.52c.03.32-.06.6-.2.7-.16.12-.82.34-1.18.35-.36 0-1.04.05-1.26-.03-.24-.08-.56-.06-.44.16.12.22.4.35.52.35.13 0 .54-.15.73-.16.2 0 1.06-.08 1.22-.12.16-.05.85-.27.9-.17.06.1.07.46.2.73.14.27.4.7.6.77.2.07.13.2-.18.2-.32.02-.78-.13-1.12-.2-.33-.1-.63-.02-.92-.04-.28 0-.83-.27-1.05-.34-.22-.07-.63-.2-.82-.47-.18-.27-.23-.36-.44-.53-.2-.16-.57-1.07-.5-1.3.06-.2.13-.6.28-.74.15-.15.35-.3.67-.02.33.28.4.16.52.2.12.02.36.16.42.3.03.12 0 .34.15.32.15-.03.2-.28.16-.4-.04-.13-.4-.4-.5-.48-.12-.06-.37 0-.5-.1-.15-.1-.3-.4-.47-.37-.18.04-.57.46-.7.43-.1-.03-.3-.18-.32-.3 0-.12.1.07.15-.3z"/><path fill="#f4b1b3" d="M1.06 355.13c-.2-.15.05-.8.26-1.02.2-.2.64-.57.72-.83.1-.26.3-.57.48-.62.18-.04.4.02.4-.1 0-.13.4-.04.33.13-.07.16-.14.36-.08.4.06.05.35.15.4-.05.03-.2.15-.47-.02-.7-.17-.2-.7-.36-.7-.52-.02-.14-.03-.3.2-.36.24-.06.47-.18.6-.08.1.1 0 .35.18.5.16.14.24.4.6.57.34.2.75.24.75.37 0 .15-.2.1-.33.5-.13.37 0 1.1-.13 1.26-.1.16-.68.4-.84.47-.17.08-1.6.36-1.94.25-.35-.1-.8-.1-.88-.15z"/><path fill="#f4b1b3" d="M1.62 352.98c.04-.2.48-.92.65-1.06.17-.14.17.02.13.14-.03.12.06.23-.02.3-.1.08-.64.54-.64.6 0 .06-.14.12-.12.02z"/><path fill="#f4b1b3" d="M5.23 352.42c.18 0 .2-.86.28-1 .1-.12.07-.37-.1-.5-.14-.16-.6-.4-.6-.52 0-.13.08-.37.23-.35.14.02.17.22.22.27.07.05.6.3.66.22.08-.1.33-.3.27-.45-.06-.17-.17-.4-.03-.4.13-.03.47.13.6-.08.1-.2.07-.46-.18-.4-.25.08-.98.15-1.13.2-.14.03-.48.28-.6.36-.12.08-.4.32-.46.46-.08.13-.3.46-.18.94.12.48.27.82.5.97.24.16.3.27.53.27z"/><path fill="#f4b1b3" d="M3.17 351.06c-.04-.13.44-.8.6-.96.2-.16.8-.46.8-.38-.03.1-.5.43-.52.63-.02.2-.04.42-.1.5-.1.06-.72.43-.78.2z"/><path fill="#f4b1b3" d="M4.36 349.4c.17-.2 1.08-.78 1.44-.88.37-.1 1.4-.55 1.6-.37.2.18.18.45.04.57-.14.12-.15.27-.55.23-.4-.05-.84 0-1.16.1-.3.12-.9.3-1.07.34-.17.04-.4.12-.3 0z"/><path fill="#f4b1b3" d="M8.23 347.64c.1-.05.33-.33.15-.32-.2 0-1.43.2-1.74.3-.3.13-.98.5-.7.42.27-.07 1.04-.2 1.16-.22.12-.03 1.03-.14 1.13-.18z"/><path fill="#f4b1b3" d="M4.6 348.87c.14-.12.46-.43.6-.47.15-.04.7-.15.6-.08-.08.07-.74.4-.92.5-.2.07-.5.22-.3.05z"/><path fill="#f79899" d="M9.45 346.94c-.1-.07-1.68-.08-2.75.46-.17.06.75-.13 1.1-.23.36-.1 1.5-.12 1.55-.14.06 0 .26.04.1-.1z"/><path fill="#f4b1b3" d="M2.4 351.48c.02-.2.35-.68.5-.86.16-.2 1-1.07 1.1-1.1.1 0 .45.1.3.13-.14.04-.58.16-.74.38-.16.22-.48 1-.57 1.15-.1.13-.62.5-.6.3z"/><path fill="#f5d9d9" d="M13.33 353.75c-.24.07-.4.2-.3.63.1.4.8 1.22.78 1.53 0 .32-.37.68-.13.96.24.28.9.6 1.03.85.12.25-.15.3-.32.16-.17-.16-.9.2-1.03.04-.14-.16-.4-.37-.16-.92.22-.56.14-1.1-.16-1.22-.3-.12-.8-.53-.8-.94 0-.4.3-1.4.42-1.7.14-.3.3-1.06.17-1.45-.12-.38-.07-.47.1-.43.18.05 1.05.14 1.3.16.27.02 1 .13 1.16.47.15.34.14.74-.14.82-.27.06-.54.06-.93-.18-.4-.24-.48-.23-.6.15s-.35.8-.06.8c.3 0 .94-.04 1.03.17.1.22.54.44.66.26.1-.17.22-.53.4-.63.16-.1.4-.6.63-.6.22-.02.53.02.67.53.14.5 0 .85.2 1.06.18.2.48.92.3 1.08-.17.16-.26.15-.33-.1-.07-.26-.05-.56-.34-.57-.3 0-.72-.04-.6-.3.14-.25.2-.53.15-.7-.06-.16-.27-.3-.45-.1-.2.2-.84.94-1.14 1.04-.3.1-.84 0-.9-.38-.08-.4-.16-.62-.63-.48z"/><path fill="#f5d9d9" d="M14.8 356.17c.05.26.64.76.72.52.08-.26.04-.74.28-.77.25-.03.53.26.82.13.3-.14.82-.47.56-.45-.27.03-.8.05-.92-.14-.1-.2-.15-.48-.6-.34-.46.14-.93.47-.85 1.05z"/><radialGradient cx="1024.593" cy="-626.342" r="2.841" gradientUnits="userSpaceOnUse" gradientTransform="matrix(.965 -.264 .264 .965 -815.011 1231.086)" fy="-626.342" fx="1024.593"><stop offset="0" stop-color="#fff"/><stop offset="1" stop-color="#F5D9D9"/></radialGradient><path fill="url(#k)" d="M12.06 358.47c.23.02.2.38 0 .95-.06.2.55.7-.02.82-.56.12-.74-.52-.92-.48-.7.17-1.47.2-1.84-.07-.58-.44-1.12-.75-1.64-.6-.53.14-1.58.1-1.6-.2 0-.28 1.13-1.05 1.53-1 .4.03.86.27 1.33.48 1.08.5 2.9.07 3.16.1z"/><radialGradient cx="1024.766" cy="-628.697" r="3.024" gradientUnits="userSpaceOnUse" gradientTransform="matrix(.965 -.264 .264 .965 -815.011 1231.086)" fy="-628.697" fx="1024.766"><stop offset="0" stop-color="#fff"/><stop offset="1" stop-color="#F5D9D9"/></radialGradient><path fill="url(#l)" d="M5.98 356.1c.4-.3 1.46-.53 1.82-.48.36.05 1.46.13 2.02.64.55.5 1.18.8 1.15.94-.03.16-.7.4-1.05.3-.33-.1-.82 0-1.72-.5s-2.24.7-2.35.83c-.1.13-.85-1.03.13-1.73z"/><radialGradient cx="1025.377" cy="-629.045" r="1.737" gradientUnits="userSpaceOnUse" gradientTransform="matrix(.965 -.264 .264 .965 -815.011 1231.086)" fy="-629.045" fx="1025.377"><stop offset="0" stop-color="#fff"/><stop offset="1" stop-color="#F5D9D9"/></radialGradient><path fill="url(#m)" d="M8.72 352.56c.37.1 1.07 1.26 1.5 1.74.45.48 1.92 1.78 2.08 2.1.16.32-.2.95-1.14.16-.94-.78-1.57-1.6-2.22-1.93-.66-.3-2.35.15-2.74-.12-.4-.27-.03-1.2.46-1.38.5-.2 1.58-.7 2.06-.56z"/><radialGradient cx="1021.376" cy="-628.868" r="4.487" gradientUnits="userSpaceOnUse" gradientTransform="matrix(.965 -.264 .264 .965 -815.011 1231.086)" fy="-628.868" fx="1021.376"><stop offset="0" stop-color="#fff"/><stop offset="1" stop-color="#F5D9D9"/></radialGradient><path fill="url(#n)" d="M2 356.15c.8-.06.96-.47 1.4-.33.44.13 1.06.48.98.82-.1.33.17 1.78-.03 2.02s-1.14.77-1.53.64c-.38-.13-.8-.06-1.02-.34-.2-.27-.68-.88-.48-.94.2-.05.9.16 1.02.4.12.24.52.36.6.2.1-.14.22-.94-.2-1.17-1.46-.83-1.5-.47-1.58-.77-.07-.3.5-.5.85-.53z"/><radialGradient cx="1024.051" cy="-629.578" r="5.729" gradientUnits="userSpaceOnUse" gradientTransform="matrix(.965 -.264 .264 .965 -815.011 1231.086)" fy="-629.578" fx="1024.051"><stop offset="0" stop-color="#fff"/><stop offset="1" stop-color="#F5D9D9"/></radialGradient><path fill="url(#o)" d="M1.9 353.82c.26-.24.4-1.04.65-1 .24 0 .45.26.56.34.13.08.45.26.6-.14.14-.4-.26-.75-.1-.85.18-.1.9.5 1.12.6.23.1-.2.65-.2 1.03s-.02.95-.38 1.03c-.36.08-1.84.43-2.1.03-.3-.4-.7-.5-.13-1.04z"/><radialGradient cx="1024.713" cy="-629.333" r="4.772" gradientUnits="userSpaceOnUse" gradientTransform="matrix(.965 -.264 .264 .965 -815.011 1231.086)" fy="-629.333" fx="1024.713"><stop offset="0" stop-color="#fff"/><stop offset="1" stop-color="#F5D9D9"/></radialGradient><path fill="url(#p)" d="M4.67 350.13c.2-.1-.08.2 0 .33.06.13.45.36.55.6.1.22.1.5.13.74.03.23.08.6-.12.55-.2-.06-.83-.34-.97-1.06-.13-.7.06-1 .4-1.17z"/><path fill="#f5d9d9" d="M2.92 360.13c.4-.04 1.2-.05 1.53-.16.33-.1.37.02.35.32 0 .28.25.5.05.62s-.74-.24-1.18-.12c-.44.12-1.35-.6-.75-.67z"/><path fill="#f5d9d9" d="M18.48 355.2c.04.13-.07.67-.25 1-.17.33-.32.78-.46 1-.15.2-.55.04-.68.33-.14.3-.7 1-.94 1.44-.22.46-.56 1.37-.56 1.54 0 .2-.46.3-.52.12-.07-.2-.3-.57-.02-1.05.28-.46.78-.63.9-.95.15-.32.2-.78.43-1.02.2-.25.37-.6.55-.82.17-.22.78-.87 1-1.07.2-.2.3-.26.35-.35.05-.1.15-.25.18-.16z"/><radialGradient cx="1025.922" cy="-630.327" r="6.556" gradientUnits="userSpaceOnUse" gradientTransform="matrix(.965 -.264 .264 .965 -815.011 1231.086)" fy="-630.327" fx="1025.922"><stop offset="0" stop-color="#fff"/><stop offset="1" stop-color="#F5D9D9"/></radialGradient><path fill="url(#q)" d="M5.18 349c.3-.18 1.06-.54 1.5-.64.42-.1.36.14.45.24.1.1.15.27-.04.27-.2 0-.77-.07-1.1.04-.36.12-1.57.56-.82.1z"/><path fill="#f5d9d9" d="M5.16 349.78c.2-.2.85-.4.86-.23 0 .15 0 .7-.13.8-.14.1-.5 0-.6-.15-.1-.16-.33-.23-.14-.42z"/><path fill="#f5d9d9" d="M8.2 347.37c-.2.02-1.37.3-1.53.37-.16.06.26.08.82-.04.55-.12.63-.02.7-.1.05-.07.1-.25 0-.23z"/><path fill="#f5d9d9" d="M9.15 348.02c.15-.07.4.34.82.43.44.1 1.9.33 2.08.58.2.25.42.58.16.93-.26.35-.76.27-.7.64.04.36.42.36.42.8 0 .4.27 1.4.16 1.47-.1.06-.7-.7-.78-.98-.07-.3.3-.4.04-.57-.25-.2-1.03.18-.96.45.07.26.35.6.5.84.14.24.73.94.77 1.12.05.17.1.82-.04.9-.1.05-.96-.72-1.15-1-.2-.3-.96-1.32-1.06-1.57-.1-.26.48-.97.6-1.3.12-.3.35-1.2.56-1.27.2-.07.36-.44.13-.48-.23-.03-.78-.08-1.3-.2-.54-.1-.93-.02-.83-.28.1-.27.3-.42.58-.52z"/><path fill="#f5d9d9" d="M12.74 350.7c-.07-.18.03-.4.2-.5.16-.1.44-.15.4-.33-.03-.18.18-.74-.12-1.02s-2.77-.74-2.82-.9c-.04-.15.25-.17.54-.17.28 0 1.38.23 1.46.12.08-.12-1.1-.56-.98-.7.14-.13.92.24 1.1.34.15.1.76.88 1.08.88.3 0 .78-.3.65-.4-.12-.1-.97-.52-1.28-.75-.32-.23-1.23-.5-1.04-.58.18-.1 1.4.13 1.7.24.33.12 1.54.8 1.65 1 .12.2.7.57.6.8-.1.23.1.93-.1.92-.2 0-.76-.9-1-.75-.24.17-.54.16-.46.5.07.34-.3.3-.28.7.03.4.58.57.48.67-.1.1-.74.16-1 .1-.25-.1-.73-.06-.78-.18z"/><path fill="#f5d9d9" d="M14.8 350.1c.08-.06.85.25.96.4.12.13.5.88.48 1.04-.02.16-.33.1-.58-.06-.25-.17-.4-.6-.57-.8-.17-.2-.57-.35-.3-.58z"/><path fill="#f5d9d9" d="M16.27 349.98c0-.16.26-.53.5-.4.23.12 1.02.85.9 1.06-.15.2-.28.42-.1.68.16.27.55.73.66 1.24.1.5-.04 1.1-.05 1.28 0 .2-.04.87-.14.92-.1.04-.16-.9-.22-1.1-.06-.2-.48-1.15-.6-1.33-.14-.18-.36-.52-.48-.97-.13-.45-.27-.85-.4-1-.1-.17-.1-.2-.07-.38z"/><path fill="#f5d9d9" d="M14.92 346.94c.12-.05.87.2 1.12.42.24.2.84.57.8.7-.02.1-.1.2.05.43.17.2 1.12 1.1 1.3 1.27.16.16.77.9.83 1.1.07.17-.06.27.06.73.12.45.12 1.03 0 1.2-.14.15-.3.65-.34.38-.05-.27-.03-.44.02-.73.05-.3-.02-.4-.06-.66-.04-.27-.26-1.26-.42-1.4-.16-.12-1.2-1.24-1.4-1.38-.17-.14-1.14-1.3-1.22-1.4-.08-.13-.5-.33-.6-.44-.1-.1-.26-.2-.16-.24z"/><path fill="#f5d9d9" d="M7.64 349.35c.1-.05.54-.1.56 0 .02.07-.13.27.1.3.24.04.58-.22.8-.18.2.03.83-.05.74.27-.14.56-.76.68-.82.94-.05.25-.07 1.03-.34 1.12-.28.08-1.07.1-1.43.25-.35.14-.98.65-1.07.47-.08-.18.07-.32.3-.45.24-.14.87-.7 1.1-.78.23-.1.7 0 .87-.26.17-.25.2-.36.07-.53-.15-.16.06-.7-.3-.62-.2.05-.35.4-.47.5-.13.1-.32.12-.42.26-.1.15-.4.52-.52.63-.12.1-.47.36-.44.13.04-.22.28-.64.48-.82.2-.17.42-.36.45-.57.02-.2.13-.54.34-.65z"/><radialGradient cx="1023.72" cy="-627.435" r="5.676" gradientUnits="userSpaceOnUse" gradientTransform="matrix(.965 -.264 .264 .965 -815.011 1231.086)" fy="-627.435" fx="1023.72"><stop offset="0" stop-color="#fff"/><stop offset="1" stop-color="#F5D9D9"/></radialGradient><path fill="url(#r)" d="M6.05 360.3c.15-.1 1.13-.1 1.46-.04.36.06 1.42.56 1.65.6.23 0 1.38.1 1 .3-.35.18-.6.2-1.17 0-.56-.18-.96-.13-1.3-.03-.38.1-1.06.06-1.3-.26-.22-.32-.45-.52-.33-.58z"/><path fill="none" stroke="#cb696b" stroke-width=".491" d="M6.34 361.28c-.05-.03-.1-.06-.13-.1-.25-.24-.37-.56-.4-.66-.05-.1-.22-.3-.3-.92-.02-.16-.2-.32-.26-.55-.06-.23-.24-.68-.2-1.48.04-2.05.33-2.36.3-2.55-.05-.2-.13-.35-.05-1.5.07-1.14.43-1 .52-1.3.1-.3.23-.92.43-1.33.2-.42.52-.56.63-.77.1-.2.16-.44.4-.7.3-.34.8-.48.85-.6.05-.1.32-.75.42-.88.1-.14.6-.2.72-.35.14-.13.14-.4.26-.47.13-.07.75-.1.98-.2"/><path fill="none" stroke="#994f51" stroke-width=".491" d="M11.6 361.2c-.2-.02-.35-.1-.35-.1-.5.24-1.16.43-1.54.48-.38.05-1.02-.17-1.1-.13-.1.04-.43.07-1.02.06-.5 0-.96-.05-1.24-.22"/><path fill="none" stroke="#cb696b" stroke-width=".491" d="M14.55 362.15c-.2 0-.34-.05-.64-.2-.3-.14-.62-.3-.73-.34-.1-.02-.36-.35-.54-.36-.2 0-.85-.02-1.04-.04"/><path fill="none" stroke="#994f51" stroke-width=".491" d="M10.5 346.93c.25-.12.1-.18.23-.25s1.2-.28 1.43-.3c.23 0 .6.07.73.04.1-.03.3-.08.52-.08.2 0 1.74.3 2 .35.26.06.97.5 1.26.7.27 0 .8.1.96.15.16.04.84.44.97.6.14.18.17.43.3.57.14.14.23.24.3.37.05.12.2.68.3.8.1.1.25.3.35.7.1.37.14.97.17 1.3.03.3-.1.9-.07 1 .04.1.05.28 0 .4-.04.1-.1 0-.1.28.02.27-.13.68-.12.76 0 .08.03.2 0 .26-.03.07-.2.12-.17.22s.22.17.26.24c.04.07.1.2.1.27 0 .1-.17.67-.26.97-.08.3-.35.9-.35 1 .02.13.1.17.15.33.05.18.2.64.18.8-.02.16-.74 1.58-.93 1.7-.18.1-1.35.2-1.55.3-.2.1-.92.55-1.15.83-.23.28-.62.67-.8.75-.18.08-.54.15-.65.15"/><path fill="none" stroke="#d97072" stroke-width=".491" d="M6.34 361.28c-.05-.03-.1-.06-.13-.1-.25-.24-.37-.56-.4-.66-.05-.1-.22-.3-.3-.92-.02-.16-.2-.32-.26-.55-.06-.23-.24-.68-.2-1.48.04-2.05.33-2.36.3-2.55-.05-.2-.13-.35-.05-1.5.07-1.14.43-1 .52-1.3.1-.3.23-.92.43-1.33.2-.42.52-.56.63-.77.1-.2.16-.44.4-.7.3-.34.8-.48.85-.6.05-.1.32-.75.42-.88.1-.14.6-.2.72-.35.14-.13.14-.4.26-.47.13-.07.75-.1.98-.2"/><path fill="none" stroke="#994f51" stroke-width=".491" d="M10.5 346.93c-.22.04-.37.04-.5-.03-.12-.07-.1-.15-1.12-.08-1 .07-2.16.25-3.48 1.2-1.3.97-1.27 1.2-1.4 1.33-.13.13-1.12 1.04-1.33 1.38-.2.34-.33.45-.38.6-.07.14-.07.35-.2.5-.12.14-.78 1.26-.94 1.77-.15.5-.18.76-.25 1-.06.2-.37.84-.5 1.36-.12.53-.18 1.24-.14 1.4.05.18.38.5.4.6.04.12-.2.43-.17.57 0 .15.16.52.28.8.1.3.15.5.26.6.1.13.32.14.4.26.06.1.24.37.46.48.22.1.4.12.6.24.23.13.65.34.9.34.27 0 .64-.17.82-.1.2.05.88.44 1.16.46.3.02.8-.28.96-.34"/></g></g></svg>