<svg xmlns="http://www.w3.org/2000/svg" width="48" height="48" xmlns:xlink="http://www.w3.org/1999/xlink"><defs><linearGradient id="d"><stop offset="0" stop-color="#b4c0be"/><stop offset="1" stop-color="#788e8a"/></linearGradient><linearGradient><stop offset="0" stop-color="#73d216"/><stop offset="1" stop-color="#3b7405"/></linearGradient><linearGradient id="c"><stop offset="0" stop-color="#2e3436"/><stop offset="1" stop-color="#2e3436" stop-opacity="0"/></linearGradient><linearGradient id="b"><stop offset="0" stop-color="#87afd7" stop-opacity=".82"/><stop offset="1" stop-color="#c6d9ec"/></linearGradient><linearGradient><stop offset="0" stop-color="#fff"/><stop offset="1" stop-color="#c6d9ec"/></linearGradient><linearGradient id="a"><stop offset="0" stop-color="#fff"/><stop offset="1" stop-color="#c6d9ec" stop-opacity="0"/></linearGradient><radialGradient id="g" cx="23.89" cy="9.059" r="8.99" xlink:href="#a" fx="23.89" fy="9.059" gradientUnits="userSpaceOnUse"/><radialGradient id="h" cx="20.759" cy="24.792" r="3.94" xlink:href="#a" fx="20.759" fy="24.792" gradientTransform="matrix(1 -.01 .064 6.634 -4.821 -139.564)" gradientUnits="userSpaceOnUse"/><radialGradient id="f" cx="28.34" cy=".165" r="9.263" xlink:href="#b" fx="28.34" fy=".165" gradientTransform="matrix(1 .009 -.027 3.127 -3.283 33.676)" gradientUnits="userSpaceOnUse"/><linearGradient id="e" x1="20.954" x2="39.706" y1="47.848" y2="33.201" xlink:href="#c" gradientUnits="userSpaceOnUse" gradientTransform="translate(.556)"/><radialGradient id="i" cx="19.269" cy="16.003" r="6.586" xlink:href="#d" fx="19.269" fy="16.003" gradientUnits="userSpaceOnUse"/></defs><g><path fill="url(#e)" fill-rule="evenodd" d="M16.57 44.76c-2.15 1.65.08 3 4.98 3s10.62-1.35 12.77-3l13.1-10.08c2.15-1.66-.08-3-4.98-3s-10.62 1.34-12.77 3l-13.1 10.08"/><path fill="url(#f)" fill-rule="evenodd" stroke="#204a87" d="M12.15 38.78c0 4.84 3.92 8.77 8.76 8.77 4.85 0 8.77-3.93 8.77-8.77V9.28c0-4.83-3.92-8.76-8.76-8.76-4.83 0-8.75 3.93-8.75 8.77v29.48"/><path fill="url(#g)" d="M32.88 9.06a9 9 0 1 1-17.98 0 9 9 0 1 1 17.98 0z" transform="matrix(.822 0 0 .822 -1.145 -.708)"/><rect width="7.879" height="33.082" x="13.587" y="8.149" fill="url(#h)" ry="4.089"/><path fill="none" stroke="#eeeeec" stroke-width=".938" d="M12.87 38.2c0 4.63 3.6 8.4 8.04 8.4 4.45 0 8.05-3.77 8.05-8.4V9.87c0-4.65-3.6-8.4-8.04-8.4-4.43 0-8.03 3.75-8.03 8.4v28.3"/><path fill="url(#i)" stroke="#5e6f6c" d="M26.82 17.57a6.1 6.1 0 1 1-12.17 0 6.1 6.1 0 1 1 12.17 0z" transform="matrix(1.027 0 0 1.027 -.38 -.295)"/><path fill="none" stroke="#c4cecc" stroke-width="0.88" d="M26.25 17.75a5.34 5.34 0 1 1-10.68 0 5.34 5.34 0 1 1 10.68 0z"/></g></svg>