<svg xmlns="http://www.w3.org/2000/svg" width="48" height="48" xmlns:xlink="http://www.w3.org/1999/xlink"><defs><linearGradient><stop offset="0" stop-color="#729fcf" stop-opacity=".495"/><stop offset="1" stop-color="#2d6aaa" stop-opacity=".485"/></linearGradient><linearGradient id="h"><stop offset="0" stop-color="#eeeeec"/><stop offset="1" stop-color="#eeeeec" stop-opacity="0"/></linearGradient><linearGradient id="g"><stop offset="0" stop-color="#eeeeec"/><stop offset="1" stop-color="#eeeeec" stop-opacity="0"/></linearGradient><linearGradient id="f"><stop offset="0" stop-color="#25356e"/><stop offset="1" stop-color="#25356e" stop-opacity=".153"/></linearGradient><linearGradient id="e"><stop offset="0" stop-color="#fff"/><stop offset="1" stop-color="#eeeeec" stop-opacity=".67"/></linearGradient><linearGradient id="i"><stop offset="0" stop-color="#95b8dc" stop-opacity=".733"/><stop offset="1" stop-color="#28609a" stop-opacity=".576"/></linearGradient><linearGradient id="d"><stop offset="0" stop-color="#378be5" stop-opacity=".454"/><stop offset="1" stop-color="#adc7e3" stop-opacity=".68"/></linearGradient><linearGradient id="c"><stop offset="0" stop-color="#eeeeec" stop-opacity=".753"/><stop offset="1" stop-color="#eeeeec" stop-opacity="0"/></linearGradient><radialGradient id="b" cx="294.624" cy="80.627" r="48.777" gradientUnits="userSpaceOnUse" fy="80.627" fx="294.624"><stop offset="0" stop-color="#e3f0f3"/><stop offset="1" stop-color="#b3cdd7"/></radialGradient><linearGradient id="a"><stop offset="0" stop-color="#fff"/><stop offset="1" stop-color="#eeeeec" stop-opacity="0"/></linearGradient><linearGradient x1="14.107" x2="39.69" y1="4.772" y2="43.606" xlink:href="#a" gradientUnits="userSpaceOnUse" gradientTransform="matrix(.665 0 0 .666 15.553 13.934)"/><radialGradient cx="294.624" cy="80.627" r="48.777" fx="294.624" fy="80.627" gradientUnits="userSpaceOnUse"><stop offset="0" stop-color="#c2e9f3"/><stop offset="1" stop-color="#3b8fb1"/></radialGradient><radialGradient cx="257.459" cy="35.376" r="68.717" fx="257.459" fy="35.376" gradientUnits="userSpaceOnUse"><stop offset="0" stop-color="#fff"/><stop offset="1" stop-color="#8794A0"/></radialGradient><radialGradient cx="264.957" cy="80.291" r="53.348" fx="264.957" fy="80.291" gradientUnits="userSpaceOnUse"><stop offset="0" stop-color="#BAD1D7"/><stop offset="1" stop-color="#8794A0"/></radialGradient><radialGradient cx="289.834" cy="61.701" r="48.777" xlink:href="#b" gradientUnits="userSpaceOnUse" gradientTransform="matrix(.548 -.126 .104 .451 121.382 77.666)" fx="289.834" fy="61.701"/><radialGradient cx="289.834" cy="61.701" r="48.777" xlink:href="#b" gradientUnits="userSpaceOnUse" gradientTransform="matrix(.637 -.165 .121 .47 -155.831 58.191)" fx="289.834" fy="61.701"/><radialGradient cx="260.054" cy="50.502" r="6.304" xlink:href="#c" fx="260.054" fy="50.502" gradientTransform="matrix(1.138 3.198 -1.872 .667 -182.543 -845.318)" gradientUnits="userSpaceOnUse"/><linearGradient x1="9.19" x2="30.786" y1="24.181" y2="9.324" xlink:href="#d" gradientUnits="userSpaceOnUse" gradientTransform="matrix(.665 0 0 .666 16.906 14.486)"/><linearGradient x1="9.19" x2="30.786" y1="24.181" y2="9.324" xlink:href="#d" gradientUnits="userSpaceOnUse" gradientTransform="translate(31.298 4.295)"/><linearGradient x1="8.595" x2="8.595" y1="11.654" y2="41.368" xlink:href="#e" gradientUnits="userSpaceOnUse" gradientTransform="matrix(.665 0 0 .666 16.906 14.486)"/><linearGradient x1="18.975" x2="18.889" y1="47.084" y2=".079" xlink:href="#f" gradientUnits="userSpaceOnUse" gradientTransform="translate(1.429)"/><linearGradient x1="32.286" x2="24.714" y1="2.643" y2="39.929" xlink:href="#g" gradientUnits="userSpaceOnUse"/><linearGradient x1="32.286" x2="24.714" y1="2.643" y2="39.929" xlink:href="#g" gradientUnits="userSpaceOnUse" gradientTransform="translate(-13.071 3.643)"/><radialGradient cx="25.571" cy="27.357" r="6.857" xlink:href="#h" fx="25.571" fy="27.357" gradientTransform="matrix(1 0 0 .969 0 .855)" gradientUnits="userSpaceOnUse"/><radialGradient cx="25.314" cy="32.805" r="12.792" xlink:href="#i" gradientUnits="userSpaceOnUse" gradientTransform="matrix(1.457 -.433 .297 1 -16.364 14.937)" fx="25.314" fy="32.805"/><radialGradient cx="289.834" cy="61.701" r="48.777" xlink:href="#b" gradientUnits="userSpaceOnUse" gradientTransform="matrix(.637 -.165 .121 .47 -229.9 44.59)" fx="289.834" fy="61.701"/><linearGradient x1="9.19" x2="30.786" y1="24.181" y2="9.324" xlink:href="#d" gradientUnits="userSpaceOnUse" gradientTransform="matrix(.665 0 0 .666 -57.163 .885)"/><linearGradient x1="14.107" x2="39.69" y1="4.772" y2="43.606" xlink:href="#a" gradientUnits="userSpaceOnUse" gradientTransform="matrix(.665 0 0 .666 -58.516 .334)"/><radialGradient cx="25.314" cy="32.805" r="12.792" xlink:href="#i" gradientUnits="userSpaceOnUse" gradientTransform="matrix(1.457 -.433 .297 1 -90.433 1.336)" fx="25.314" fy="32.805"/><radialGradient cx="260.054" cy="50.502" r="6.304" xlink:href="#c" gradientUnits="userSpaceOnUse" gradientTransform="matrix(1.138 3.198 -1.872 .667 -256.612 -858.918)" fx="260.054" fy="50.502"/><linearGradient x1="8.595" x2="8.595" y1="11.654" y2="41.368" xlink:href="#e" gradientUnits="userSpaceOnUse" gradientTransform="matrix(.665 0 0 .666 -57.163 .885)"/><radialGradient id="j" cx="289.834" cy="61.701" r="48.777" xlink:href="#b" gradientUnits="userSpaceOnUse" gradientTransform="matrix(.637 -.165 .121 .47 -155.831 58.191)" fx="289.834" fy="61.701"/><linearGradient id="k" x1="9.19" x2="30.786" y1="24.181" y2="9.324" xlink:href="#d" gradientUnits="userSpaceOnUse" gradientTransform="matrix(.665 0 0 .666 16.906 14.486)"/><linearGradient id="l" x1="14.107" x2="39.69" y1="4.772" y2="43.606" xlink:href="#a" gradientUnits="userSpaceOnUse" gradientTransform="matrix(.665 0 0 .666 15.553 13.934)"/><radialGradient id="m" cx="25.314" cy="32.805" r="12.792" xlink:href="#i" gradientUnits="userSpaceOnUse" gradientTransform="matrix(1.457 -.433 .297 1 -16.364 14.937)" fx="25.314" fy="32.805"/><radialGradient id="n" cx="260.054" cy="50.502" r="6.304" xlink:href="#c" gradientUnits="userSpaceOnUse" gradientTransform="matrix(1.138 3.198 -1.872 .667 -182.543 -845.318)" fx="260.054" fy="50.502"/><linearGradient id="o" x1="8.595" x2="8.595" y1="11.654" y2="41.368" xlink:href="#e" gradientUnits="userSpaceOnUse" gradientTransform="matrix(.665 0 0 .666 16.906 14.486)"/><radialGradient cx="289.834" cy="61.701" r="48.777" xlink:href="#b" gradientUnits="userSpaceOnUse" gradientTransform="matrix(1.053 -.272 .2 .776 -285.224 71.128)" fx="289.834" fy="61.701"/></defs><g><g fill="none" stroke="#fff" stroke-opacity=".502" stroke-width="3"><path d="M27.96 24.52l15.38 12.26" stroke-linecap="round"/><path d="M4.9 31.08l23.13-6.45" stroke-linecap="round"/><path d="M28.44 1.55l-.38 23.02" stroke-linecap="round"/><path d="M2.55 6.08l14.43 12.35.83 28.7" stroke-linecap="round"/><path d="M16.85 18.56l29.08-7.8" stroke-linecap="round"/><path d="M2.5 6.03l26-5.45 17.58 10.27-2.6 26.36L17.98 47 4.84 31.02l-2.35-25z"/></g><path fill="none" stroke="#ef2929" d="M27.67 24.63L43.05 36.9" stroke-linecap="round"/><path fill="none" stroke="#ef2929" d="M4.62 31.2l23.12-6.45" stroke-linecap="round"/><path fill="none" stroke="#ef2929" d="M28.15 1.67l-.38 23" stroke-linecap="round"/><path fill="none" stroke="#ef2929" d="M2.26 6.2L16.7 18.53l.82 28.7" stroke-linecap="round"/><g><path fill="url(#j)" d="M43.54 37.86l-16.26 6.37-7.92-10-1.78-15.6 16.26-3.5L45 21.5l-1.46 16.36z" transform="matrix(.914 0 0 .914 3.626 2.517)"/><path fill="#b1c8c9" fill-opacity=".506" fill-rule="evenodd" d="M21 33.66l13.28-3.9 9.1 7.46-14.75 5.65-7.64-9.2z"/><path fill="none" stroke="#fff" stroke-width=".91.094" d="M34.3 29.98l8.52 6.78" stroke-linecap="round"/><path fill="none" stroke="#fff" stroke-width=".91.094" d="M21.56 33.6l12.8-3.56" stroke-linecap="round"/><path fill="none" stroke="#fff" stroke-width=".91.094" d="M34.58 17.27L34.38 30" stroke-linecap="round"/><path fill="url(#k)" fill-rule="evenodd" stroke="#204a87" stroke-opacity=".735" stroke-width="1.094" d="M19.42 27.3c7.54-1.9 6.28-9.8 14.5-9.23l9.72 6.04c-8.9-.18-7.22 10.24-16.4 10.9l-7.82-7.7z" stroke-linejoin="round" transform="matrix(.914 0 0 .914 3.626 2.517)"/><path fill="none" stroke="#f0f0f0" stroke-width=".91.094" d="M28.16 26.68l16.4-4.4" stroke-linecap="round"/><path fill="none" stroke="url(#l)" stroke-width="1.64" d="M18.16 18.85l15.74-3.3 10.64 6.22-1.57 15.96-15.44 5.92-7.95-9.67-1.42-15.13z" transform="matrix(.914 0 0 .914 3.626 2.517)"/><path fill="#185863" fill-opacity=".136" d="M43 37.06l-14.28 5.58L28.55 27l15.96-4.74-1.5 14.8z"/><path fill="url(#m)" stroke="#204a87" stroke-opacity=".556" stroke-width="1.094" d="M43.55 24.18c-8.9-.2-7.16 10.04-16.35 10.7l.34 8 14.93-5.54 1.08-13.16zM19.7 27.35l7.47 7.42.25 8-7.22-9.14-.5-6.28z" stroke-linejoin="round" transform="matrix(.914 0 0 .914 3.626 2.517)"/><path fill="url(#n)" d="M27.3 44.1l-8.1-9.87L18.52 19 27 26.4l.3 17.7z" transform="matrix(.914 0 0 .914 3.626 2.517)"/><path fill="none" stroke="url(#o)" stroke-width="1.094" d="M18.2 18.88l8.73 7.48.5 17.37" stroke-linecap="round" transform="matrix(.914 0 0 .914 3.626 2.517)"/><path fill="none" stroke="#eeeeec" stroke-opacity=".556" stroke-width=".91.094" d="M22.58 27.73c7.1-3.5 5.46-8.46 11.83-8.12l7.55 4.58c-7.1.7-5.5 8.74-13.38 9.6l-6-6.05z" stroke-linejoin="round"/></g><path fill="none" stroke="#ef2929" d="M16.56 18.67l29.08-7.8" stroke-linecap="round"/><path fill="none" stroke="#ef2929" d="M2.2 6.14L28.2.7l17.6 10.27-2.6 26.35-25.52 9.78L4.56 31.14l-2.35-25z"/></g></svg>