<svg xmlns="http://www.w3.org/2000/svg" width="48" height="48"><defs><radialGradient id="a" cx="298.68" cy="421.86" r="41.28" gradientUnits="userSpaceOnUse" fy="421.86" fx="298.68" gradientTransform="matrix(1.016 0 0 1.016 -293.349 -423.351)"><stop offset="0" stop-color="#F3F9FE"/><stop offset=".844" stop-color="#2E94E6"/></radialGradient><radialGradient id="b" cx="313.579" cy="435.871" r="21.212" gradientUnits="userSpaceOnUse" fy="435.871" fx="313.579" gradientTransform="matrix(1.016 0 0 1.016 -293.349 -423.351)"><stop offset="0" stop-color="#F3F9FE"/><stop offset=".198" stop-color="#DAECFB"/><stop offset=".844" stop-color="#2E94E6"/></radialGradient><radialGradient id="c" cx="313.81" cy="438.791" r="30.869" gradientUnits="userSpaceOnUse" fy="438.791" fx="313.81" gradientTransform="matrix(1.016 0 0 1.016 -293.349 -423.351)"><stop offset="0" stop-color="#fff"/><stop offset=".102" stop-color="#F8FCFF"/><stop offset=".247" stop-color="#E6F4FF"/><stop offset=".417" stop-color="#C8E6FF"/><stop offset=".604" stop-color="#9ED3FF"/><stop offset=".721" stop-color="#80C5FF"/><stop offset="1" stop-color="#0078FF"/></radialGradient><radialGradient id="d" cx="306.885" cy="446.483" r="45.334" gradientUnits="userSpaceOnUse" fy="446.483" fx="306.885"><stop offset="0" stop-color="#fff"/><stop offset=".182" stop-color="#FBFDFF"/><stop offset=".344" stop-color="#F1F8FD"/><stop offset=".5" stop-color="#DEEEFB"/><stop offset=".651" stop-color="#C5E1F8"/><stop offset=".799" stop-color="#A3D0F4"/><stop offset=".943" stop-color="#7BBBEF"/><stop offset="1" stop-color="#69B2ED"/></radialGradient><radialGradient id="e" cx="310.163" cy="433.172" r="25.382" gradientUnits="userSpaceOnUse" fy="433.172" fx="310.163" gradientTransform="matrix(1.016 0 0 1.016 -293.349 -423.351)"><stop offset="0" stop-color="#F3F9FE"/><stop offset=".844" stop-color="#2E94E6"/></radialGradient><radialGradient id="f" cx="338.37" cy="445.448" r="31.973" gradientUnits="userSpaceOnUse" fy="445.448" fx="338.37"><stop offset="0" stop-color="#F3F9FE"/><stop offset=".844" stop-color="#2E94E6"/></radialGradient></defs><g><path fill="url(#a)" stroke="#3d81cc" stroke-width="2" d="M20.43 46.22L45.9 33.18l1.03-15.28c-2.04-2.2-2.67-3.56-7.66-4.3-10.27-1.53-8.45-3.94-11.6-5.18-4.14-.22-6.9 3.2-12.02 6.35C9.55 18.52 4 13.23.93 13.9l1.72 20.34 17.78 11.98z"/><path fill="url(#b)" d="M.93 13.9c3.86.8 7.03 6.7 11.3 10.5C16 27.72 17.4 27 19.8 28.97c.7 1.2 3.44 1.97 6.8-.36 3.34-2.34 5.38-7.37 10.4-10.43 4.14-2.52 9.93-.3 9.93-.3-2.04-2.2-2.67-3.56-7.65-4.3-10.28-1.53-8.46-3.94-11.6-5.18-4.15-.22-6.92 3.2-12.02 6.35C9.54 18.52 4 13.23.93 13.9z"/><path fill="none" stroke="#fff" d="M20 12.37l-4.1 2.82c-4.15 2.54-8.15 1.08-11.06.02-.36-.13-.67-.23-1-.34 1.5 1.15 2.94 2.77 4.42 4.52 1.35 1.6 2.75 3.25 4.3 4.62 2.1 1.86 3.46 2.43 4.66 2.93.94.4 1.82.77 2.9 1.65l.07.06.04.07c.2.38.7.68 1.33.82 1.35.3 3.08-.2 4.74-1.34 1.4-.96 2.6-2.46 3.86-4.04 1.72-2.16 3.66-4.6 6.6-6.4 2.9-1.75 6.53-1.3 8.63-.82-1.3-1.4-2.45-2.3-6.2-2.85-7.16-1.08-8.64-2.62-9.83-3.86-.53-.55-.96-.98-1.8-1.33-2.7-.1-4.85 1.48-7.56 3.47z"/><path fill="url(#c)" d="M.93 13.9c3.86.8 7.03 6.7 11.3 10.5C16 27.72 17.4 27 19.8 28.97l.63 17.24L2.65 34.24.93 13.9z"/><g transform="matrix(1.016 0 0 1.016 -293.349 -423.351)"><radialGradient cx="306.885" cy="446.483" r="45.334" gradientUnits="userSpaceOnUse" fy="446.483" fx="306.885"><stop offset="0" stop-color="#fff"/><stop offset=".182" stop-color="#FBFDFF"/><stop offset=".344" stop-color="#F1F8FD"/><stop offset=".5" stop-color="#DEEEFB"/><stop offset=".651" stop-color="#C5E1F8"/><stop offset=".799" stop-color="#A3D0F4"/><stop offset=".943" stop-color="#7BBBEF"/><stop offset="1" stop-color="#69B2ED"/></radialGradient><path fill="url(#d)" d="M291.46 450.52l17.5 11.8-.6-16.96-.2-.14c-.9-.72-1.7-1.07-2.55-1.43-1.2-.52-2.58-1.1-4.72-3-1.54-1.35-2.93-3-4.28-4.58-2.2-2.6-4.06-4.66-6.12-5.44l-.72-.28 1.7 20.02zm-.6-18.43c1.6.9 3.23 2.66 5 4.75 1.37 1.6 2.78 3.28 4.38 4.7 2.26 2 3.7 2.6 5 3.14.75.3 1.4.62 2.15 1.17 0 .48.47 13.2.52 14.57-1.42-.96-15.18-10.23-15.53-10.47-.05-.43-1.4-16.35-1.53-17.88z"/></g><path fill="url(#e)" d="M19.8 28.98c.7 1.2 3.44 1.97 6.8-.36 3.34-2.34 5.38-7.37 10.4-10.43 4.14-2.52 9.93-.3 9.93-.3L45.9 33.18 20.42 46.22l-.62-17.24z"/><g transform="matrix(1.016 0 0 1.016 -293.349 -423.351)"><radialGradient cx="338.37" cy="445.448" r="31.973" gradientUnits="userSpaceOnUse" fy="445.448" fx="338.37"><stop offset="0" stop-color="#F3F9FE"/><stop offset=".844" stop-color="#2E94E6"/></radialGradient><path fill="url(#f)" d="M325.3 434.72c-2.82 1.7-4.7 4.08-6.38 6.17-1.27 1.6-2.47 3.1-3.9 4.08-2.38 1.66-4.18 1.6-5.04 1.4l-1.56-.65-.03.73.56 15.85 25.07-12.83 1.02-15.05-.36-.1c-1.34-.45-5.96-1.7-9.4.4zm8.73.4c-.05.7-.9 13.22-.93 13.73-.34.18-21.94 11.24-23.22 11.9-.05-1.3-.45-12.3-.5-13.58.17.07.38.16.38.16 1.02.22 3.13.32 5.82-1.55 1.54-1.07 2.78-2.63 4.1-4.28 1.6-2.03 3.44-4.33 6.1-5.95 2.9-1.75 6.72-.88 8.25-.43z"/></g></g></svg>