<svg xmlns="http://www.w3.org/2000/svg" width="48" height="48" xmlns:xlink="http://www.w3.org/1999/xlink"><defs><linearGradient id="j" x1="349.868" x2="344.602" y1="1514.99" y2="1522.754" gradientUnits="userSpaceOnUse" gradientTransform="translate(-317.033 -1490.904)"><stop offset=".006" stop-color="#B6BDBF"/><stop offset="1" stop-color="#969EA6"/></linearGradient><linearGradient id="k" x1="346.49" x2="350.741" y1="1531.678" y2="1527.083" gradientUnits="userSpaceOnUse" gradientTransform="translate(-317.033 -1490.904)"><stop offset=".006" stop-color="#CBD3D4"/><stop offset="1" stop-color="#969EA6"/></linearGradient><linearGradient id="l" x1="328.498" x2="337.368" y1="1526.379" y2="1516.151" gradientUnits="userSpaceOnUse" gradientTransform="translate(-317.033 -1490.904)"><stop offset="0" stop-color="#E8ECED"/><stop offset=".607" stop-color="#ACB1B2"/><stop offset=".775" stop-color="#ACB1B2"/><stop offset="1" stop-color="#C3C9CB"/></linearGradient><radialGradient id="a" cx="264.885" cy="1499.855" r="8.559" gradientUnits="userSpaceOnUse" fy="1499.855" fx="264.885" gradientTransform="translate(9.073 -1121.746)"><stop offset=".006" stop-color="#FCDFA8"/><stop offset="1" stop-color="#F3841A"/></radialGradient><radialGradient id="u" cx="264.885" cy="1499.855" r="8.559" xlink:href="#a" gradientUnits="userSpaceOnUse" gradientTransform="translate(9.073 -1121.746)" fx="264.885" fy="1499.855"/><linearGradient id="b" x1="260.883" x2="274.926" y1="1494.385" y2="1509.797" gradientUnits="userSpaceOnUse" gradientTransform="translate(9.073 -1121.746)"><stop offset=".006" stop-color="#F17912"/><stop offset=".292" stop-color="#FAAF3E"/><stop offset=".59" stop-color="#F17912"/><stop offset="1" stop-color="#73340F"/></linearGradient><linearGradient id="t" x1="260.883" x2="274.926" y1="1494.385" y2="1509.797" xlink:href="#b" gradientUnits="userSpaceOnUse" gradientTransform="translate(9.073 -1121.746)"/><linearGradient id="c" x1="264.233" x2="266.049" y1="1505.209" y2="1503.704" gradientUnits="userSpaceOnUse" gradientTransform="translate(9.073 -1121.746)"><stop offset=".006" stop-color="#a82900" stop-opacity="0"/><stop offset="1" stop-color="#8a3e0e"/></linearGradient><linearGradient id="s" x1="264.233" x2="266.049" y1="1505.209" y2="1503.704" xlink:href="#c" gradientUnits="userSpaceOnUse" gradientTransform="translate(9.073 -1121.746)"/><linearGradient id="d" x1="255.886" x2="263.778" y1="1504.661" y2="1513.642" gradientUnits="userSpaceOnUse" gradientTransform="translate(9.073 -1121.746)"><stop offset=".006" stop-color="#F17912"/><stop offset=".022" stop-color="#F27D15"/><stop offset=".098" stop-color="#F78E21"/><stop offset=".157" stop-color="#F99326"/><stop offset=".674" stop-color="#C56417"/><stop offset="1" stop-color="#994511"/></linearGradient><linearGradient id="r" x1="255.886" x2="263.778" y1="1504.661" y2="1513.642" xlink:href="#d" gradientUnits="userSpaceOnUse" gradientTransform="translate(9.073 -1121.746)"/><linearGradient id="e" x1="250.594" x2="260.634" y1="1507.167" y2="1518.866" gradientUnits="userSpaceOnUse" gradientTransform="translate(9.073 -1121.746)"><stop offset=".006" stop-color="#F17912"/><stop offset=".315" stop-color="#FAAF3E"/><stop offset=".59" stop-color="#F17912"/><stop offset="1" stop-color="#6E290A"/></linearGradient><linearGradient id="q" x1="250.594" x2="260.634" y1="1507.167" y2="1518.866" xlink:href="#e" gradientUnits="userSpaceOnUse" gradientTransform="translate(9.073 -1121.746)"/><radialGradient id="f" cx="247.017" cy="1513.643" r="14.582" gradientUnits="userSpaceOnUse" fy="1513.643" fx="247.017" gradientTransform="translate(9.073 -1121.746)"><stop offset=".006" stop-color="#FAAF3E"/><stop offset=".337" stop-color="#FAAF3E"/><stop offset=".652" stop-color="#F17912"/><stop offset="1" stop-color="#73340F"/></radialGradient><radialGradient id="p" cx="247.017" cy="1513.643" r="14.582" xlink:href="#f" gradientUnits="userSpaceOnUse" gradientTransform="translate(9.073 -1121.746)" fx="247.017" fy="1513.643"/><linearGradient id="g" x1="244.283" x2="261.463" y1="1505.286" y2="1525.255" gradientUnits="userSpaceOnUse" gradientTransform="translate(9.073 -1121.746)"><stop offset=".006" stop-color="#F17912"/><stop offset=".292" stop-color="#FAAF3E"/><stop offset=".545" stop-color="#FAAF3E"/><stop offset=".652" stop-color="#F17912"/><stop offset="1" stop-color="#73340F"/></linearGradient><linearGradient id="o" x1="244.283" x2="261.463" y1="1505.286" y2="1525.255" xlink:href="#g" gradientUnits="userSpaceOnUse" gradientTransform="translate(9.073 -1121.746)"/><linearGradient id="h" x1="242.98" x2="260.03" y1="1506.586" y2="1526.39" gradientUnits="userSpaceOnUse" gradientTransform="translate(9.073 -1121.746)"><stop offset=".006" stop-color="#73340F"/><stop offset=".461" stop-color="#F17912"/><stop offset="1" stop-color="#73340F"/></linearGradient><linearGradient id="n" x1="242.98" x2="260.03" y1="1506.586" y2="1526.39" xlink:href="#h" gradientUnits="userSpaceOnUse" gradientTransform="translate(9.073 -1121.746)"/><linearGradient id="i" x1="238.486" x2="240.81" y1="1525.703" y2="1528.29" gradientUnits="userSpaceOnUse"><stop offset=".006" stop-color="#3E444C"/><stop offset=".298" stop-color="#ADBECA"/><stop offset=".477" stop-color="#ADBECA"/><stop offset=".702" stop-color="#828F99"/><stop offset="1" stop-color="#292E33"/></linearGradient><linearGradient id="m" x1="238.486" x2="240.81" y1="1525.703" y2="1528.29" xlink:href="#i" gradientUnits="userSpaceOnUse"/></defs><g><path fill="none" stroke="#292d2e" stroke-width="2" d="M14.67 19.3c-1.35-1.42-4.64-1.32-6.4-.67-1.27.46-5.05 1.74-7 .23.13 3.34.48 4.02 1.57 5.5 1.44 1.92 6.84 9.22 7.87 10.33 5.77 6.2 6.86 8.24 7.76 8.5 1.57.44 5.1.06 8.6-2.83 1.62-1.33 4.6-4.6 6.2-4.73.87-.08.13.68.9 1.64.05.06.13.1.22.15-.18-.07-.35-.4-.35-.58.03-.93.07-1.36-.2-1.52-.34-.2-5.6-3.5-8.74-6.08-2.55-2.1-7.63-6.9-10.43-9.95"/><path fill="none" stroke="#454a4d" stroke-width="2" d="M34.38 37.43c.48.18 3.22 0 5.83-1.37 2.67-1.4 4.9-4.4 5.68-4.82-.67.1-3.9-1.72-6.5-2.83-2.6-1.1-4.02-2.3-7.66-4.45-3.3-1.94-5.38-4.3-7.25-4.2-1.87.08-5.27 2.22-7.76 1.7 1.8 1.85 5.92 6 8.75 8.37 2.84 2.38 8.52 7.45 8.93 7.6z"/><path fill="none" stroke="#454a4d" stroke-width="1.5" d="M34.38 37.43c-.36-.1-1.2-.36-2.63-1.12.34-.22 1-.63 1.57-.67.5-.07.43.43.43.55 0 .6.36 1.17.63 1.25z"/><path fill="url(#j)" d="M34.38 37.43c.48.18 3.22 0 5.83-1.37 2.67-1.4 4.9-4.4 5.68-4.82-.67.1-3.9-1.72-6.5-2.84-2.6-1.1-4.02-2.3-7.66-4.45-3.3-1.94-5.38-4.3-7.25-4.2-1.87.08-5.27 2.22-7.76 1.7 1.8 1.85 5.92 6 8.75 8.37 2.84 2.37 8.52 7.45 8.93 7.6z"/><path fill="url(#k)" d="M34.38 37.43c-.36-.1-1.2-.36-2.63-1.12.34-.22 1-.63 1.57-.67.5-.07.43.43.43.55 0 .6.36 1.17.63 1.25z"/><path fill="none" stroke="#454b4e" stroke-width=".5" d="M31.85 36.55c.34-.23 1-.64 1.57-.68"/><path fill="url(#l)" d="M14.67 19.3c-1.35-1.42-4.64-1.32-6.4-.67-1.27.46-5.05 1.74-7 .23.13 3.34.48 4.02 1.57 5.5 1.44 1.92 6.84 9.22 7.87 10.33 5.77 6.2 6.86 8.24 7.76 8.5 1.57.44 5.1.06 8.6-2.83 1.62-1.33 4.6-4.6 6.2-4.73.87-.08.13.68.9 1.64.05.06.13.1.22.15-.18-.07-.35-.4-.35-.58.03-.93.07-1.36-.2-1.52-.34-.2-5.6-3.5-8.74-6.08-2.55-2.1-7.63-6.9-10.43-9.95"/><path fill="none" stroke="#454b4e" d="M2.5 19.84c-.03 1.12.2 1.86 1.4 2.1"/><g transform="matrix(.45 0 0 .45 -106.496 -163.844)"><path fill="none" stroke="#3e444c" stroke-width="2.222" d="M255.28 401.7l-9.12 7.4-2.8 1.04 1.37-2.8 8.22-8.23"/><path fill="url(#m)" d="M246.2 1523.44l-9.1 7.4-2.8 1.04 1.36-2.8 8.22-8.22" transform="translate(9.073 -1121.746)"/><path fill="none" stroke="#99440f" stroke-width="2.222" d="M267.38 389.34c3.82 4.48 5.48 12.32 1.72 15.3-3.75 2.98-10.6.97-15.32-4.5-4.7-5.47-5.48-12.32-1.72-15.3 3.75-2.98 11.02-.53 15.32 4.5z"/><path fill="none" stroke="#99440f" stroke-width="2.222" d="M268.74 388.12c3.86 4.52 5.55 12.4 1.8 15.4-3.76 2.97-10.65.92-15.4-4.6-4.74-5.5-5.54-12.4-1.78-15.38 3.75-2.98 11.05-.5 15.38 4.58z"/><ellipse cx="253.555" cy="1514.673" fill="none" stroke="#99440f" stroke-width="2.222" transform="matrix(.783 -.622 .622 .783 -877.939 -635.486)" rx="7.751" ry="11.967"/><path fill="none" stroke="#99440f" stroke-width="2.222" d="M269.8 395.6c-1.6 1.3-4.92.05-7.37-2.78-2.46-2.84-3.14-6.2-1.52-7.5l.2-.14c.53-.33 8.13-6.05 8.43-6.3.36-.26 1.1-1.2 1.47-1.76l8.45 9.5c-.62.28-1.7.94-2.02 1.26-.28.26-7 7-7.4 7.5l-.22.2z"/><path fill="none" stroke="#99440f" stroke-width="2.222" d="M285.07 387.08l1.3-1.1c-2.17 1.64-6.9-.45-10.66-4.73-3.7-4.22-5.13-9.02-3.28-10.9l-1.28 1.3c-1.85 1.88-.45 6.65 3.24 10.84 3.8 4.3 8.6 6.35 10.7 4.58z"/><ellipse cx="270.451" cy="1499.792" fill="none" stroke="#99440f" stroke-width="2.222" transform="matrix(.765 -.644 .644 .765 -893.213 -595.2)" rx="4.981" ry="10.488"/><path fill="url(#n)" d="M267.38 389.34c3.82 4.48 5.48 12.32 1.72 15.3-3.75 2.98-10.6.97-15.32-4.5-4.7-5.47-5.48-12.32-1.72-15.3 3.75-2.98 11.02-.53 15.32 4.5z"/><path fill="url(#o)" d="M268.74 388.12c3.86 4.52 5.55 12.4 1.8 15.4-3.76 2.97-10.65.92-15.4-4.6-4.74-5.5-5.54-12.4-1.78-15.38 3.75-2.98 11.05-.5 15.38 4.58z"/><path fill="url(#p)" d="M268.7 388.1c4.3 5.02 5.08 11.24 1.73 13.9-3.36 2.66-9.57.76-13.87-4.25-4.3-5.02-5.08-11.24-1.73-13.9s9.56-.76 13.87 4.26z"/><path fill="url(#q)" d="M268.55 388.2c2.77 3.23 3.3 7.23 1.16 8.92-2.13 1.7-6.1.45-8.87-2.78-2.77-3.23-3.3-7.23-1.16-8.92 2.13-1.7 6.1-.45 8.88 2.78z"/><path fill="url(#r)" d="M269.8 395.6c-1.6 1.3-4.92.05-7.37-2.78-2.46-2.84-3.14-6.2-1.53-7.5l.2-.14c.53-.33 8.13-6.05 8.43-6.3.36-.26 1.1-1.2 1.46-1.76l8.45 9.5c-.62.28-1.7.94-2.02 1.26-.28.26-7 7-7.4 7.5l-.22.2z"/><path fill="none" d="M269.8 395.6c-1.6 1.3-4.92.05-7.37-2.78-2.46-2.84-3.14-6.2-1.53-7.5l.2-.14c.53-.33 8.13-6.05 8.43-6.3.36-.26 1.1-1.2 1.46-1.76l8.45 9.5c-.62.28-1.7.94-2.02 1.26-.28.26-7 7-7.4 7.5l-.22.2z"/><path fill="url(#s)" d="M279.26 386.7c-1.93-.18-4.13-1.33-5.9-3.24-1.76-1.93-2.66-4.17-2.58-6.02l.22-.32 8.45 9.5-.2.1z"/><path fill="url(#t)" d="M285.07 387.08l1.3-1.1c-2.17 1.64-6.9-.45-10.66-4.73-3.7-4.22-5.13-9.02-3.28-10.9l-1.28 1.3c-1.85 1.88-.45 6.65 3.24 10.84 3.8 4.3 8.6 6.35 10.7 4.58z"/><path fill="url(#u)" d="M283.34 374.84c3.82 4.34 5.22 9.3 3.12 11.07-2.1 1.78-6.92-.3-10.75-4.65-3.8-4.34-5.2-9.3-3.1-11.07 2.1-1.77 6.9.3 10.74 4.66z"/></g></g></svg>