<svg xmlns="http://www.w3.org/2000/svg" width="48" height="48" xmlns:xlink="http://www.w3.org/1999/xlink"><defs><radialGradient id="h" cx="114.888" cy="165.633" r="36.407" fx="114.888" fy="165.633" gradientUnits="userSpaceOnUse"><stop offset="0" stop-color="#efeeec" stop-opacity=".433"/><stop offset="1" stop-color="#8794A0"/></radialGradient><radialGradient cx="87.105" cy="220.009" r="5.976" gradientUnits="userSpaceOnUse" gradientTransform="translate(29.871 -24.189)" fy="220.009" fx="87.105"><stop offset="0" stop-color="#fff"/><stop offset=".219" stop-color="#F9D0AE"/><stop offset=".415" stop-color="#F5AB6D"/><stop offset=".579" stop-color="#F2903E"/><stop offset=".704" stop-color="#F07F21"/><stop offset=".775" stop-color="#EF7916"/><stop offset="1" stop-color="#CE5B0E"/></radialGradient><radialGradient cx="56.94" cy="220.716" r="3.676" fx="56.94" fy="220.716" gradientTransform="matrix(-1 0 0 1 174.769 -24.189)" gradientUnits="userSpaceOnUse"><stop offset="0" stop-color="#fff"/><stop offset=".219" stop-color="#F9D0AE"/><stop offset=".415" stop-color="#F5AB6D"/><stop offset=".579" stop-color="#F2903E"/><stop offset=".704" stop-color="#F07F21"/><stop offset=".775" stop-color="#EF7916"/><stop offset="1" stop-color="#CE5B0E"/></radialGradient><radialGradient cx="108.365" cy="211.694" r="5.976" gradientUnits="userSpaceOnUse" gradientTransform="translate(29.871 -24.189)" fy="211.694" fx="108.365"><stop offset="0" stop-color="#fff"/><stop offset=".219" stop-color="#F9D0AE"/><stop offset=".415" stop-color="#F5AB6D"/><stop offset=".579" stop-color="#F2903E"/><stop offset=".704" stop-color="#F07F21"/><stop offset=".775" stop-color="#EF7916"/><stop offset="1" stop-color="#CE5B0E"/></radialGradient><radialGradient cx="35.68" cy="212.401" r="3.676" fx="35.68" fy="212.401" gradientTransform="matrix(-1 0 0 1 174.769 -24.189)" gradientUnits="userSpaceOnUse"><stop offset="0" stop-color="#fff"/><stop offset=".219" stop-color="#F9D0AE"/><stop offset=".415" stop-color="#F5AB6D"/><stop offset=".579" stop-color="#F2903E"/><stop offset=".704" stop-color="#F07F21"/><stop offset=".775" stop-color="#EF7916"/><stop offset="1" stop-color="#CE5B0E"/></radialGradient><radialGradient cx="76.195" cy="206.884" r="5.977" gradientUnits="userSpaceOnUse" gradientTransform="translate(29.871 -24.189)" fy="206.884" fx="76.195"><stop offset="0" stop-color="#fff"/><stop offset=".219" stop-color="#F9D0AE"/><stop offset=".415" stop-color="#F5AB6D"/><stop offset=".579" stop-color="#F2903E"/><stop offset=".704" stop-color="#F07F21"/><stop offset=".775" stop-color="#EF7916"/><stop offset="1" stop-color="#CE5B0E"/></radialGradient><radialGradient cx="67.85" cy="207.592" r="3.676" fx="67.85" fy="207.592" gradientTransform="matrix(-1 0 0 1 174.769 -24.189)" gradientUnits="userSpaceOnUse"><stop offset="0" stop-color="#fff"/><stop offset=".219" stop-color="#F9D0AE"/><stop offset=".415" stop-color="#F5AB6D"/><stop offset=".579" stop-color="#F2903E"/><stop offset=".704" stop-color="#F07F21"/><stop offset=".775" stop-color="#EF7916"/><stop offset="1" stop-color="#CE5B0E"/></radialGradient><radialGradient cx="86.291" cy="196.491" r="5.977" gradientUnits="userSpaceOnUse" gradientTransform="translate(29.871 -24.189)" fy="196.491" fx="86.291"><stop offset="0" stop-color="#fff"/><stop offset=".219" stop-color="#F9D0AE"/><stop offset=".415" stop-color="#F5AB6D"/><stop offset=".579" stop-color="#F2903E"/><stop offset=".704" stop-color="#F07F21"/><stop offset=".775" stop-color="#EF7916"/><stop offset="1" stop-color="#CE5B0E"/></radialGradient><radialGradient cx="57.752" cy="197.199" r="3.676" fx="57.752" fy="197.199" gradientTransform="matrix(-1 0 0 1 174.769 -24.189)" gradientUnits="userSpaceOnUse"><stop offset="0" stop-color="#fff"/><stop offset=".219" stop-color="#F9D0AE"/><stop offset=".415" stop-color="#F5AB6D"/><stop offset=".579" stop-color="#F2903E"/><stop offset=".704" stop-color="#F07F21"/><stop offset=".775" stop-color="#EF7916"/><stop offset="1" stop-color="#CE5B0E"/></radialGradient><radialGradient cx="110.441" cy="189.72" r="5.976" gradientUnits="userSpaceOnUse" gradientTransform="translate(29.871 -24.189)" fy="189.72" fx="110.441"><stop offset="0" stop-color="#fff"/><stop offset=".219" stop-color="#F9D0AE"/><stop offset=".415" stop-color="#F5AB6D"/><stop offset=".579" stop-color="#F2903E"/><stop offset=".704" stop-color="#F07F21"/><stop offset=".775" stop-color="#EF7916"/><stop offset="1" stop-color="#CE5B0E"/></radialGradient><radialGradient cx="33.604" cy="190.427" r="3.676" fx="33.604" fy="190.427" gradientTransform="matrix(-1 0 0 1 174.769 -24.189)" gradientUnits="userSpaceOnUse"><stop offset="0" stop-color="#fff"/><stop offset=".219" stop-color="#F9D0AE"/><stop offset=".415" stop-color="#F5AB6D"/><stop offset=".579" stop-color="#F2903E"/><stop offset=".704" stop-color="#F07F21"/><stop offset=".775" stop-color="#EF7916"/><stop offset="1" stop-color="#CE5B0E"/></radialGradient><radialGradient cx="95.831" cy="181.284" r="5.976" gradientUnits="userSpaceOnUse" gradientTransform="translate(29.871 -24.189)" fy="181.284" fx="95.831"><stop offset="0" stop-color="#fff"/><stop offset=".219" stop-color="#F9D0AE"/><stop offset=".415" stop-color="#F5AB6D"/><stop offset=".579" stop-color="#F2903E"/><stop offset=".704" stop-color="#F07F21"/><stop offset=".775" stop-color="#EF7916"/><stop offset="1" stop-color="#CE5B0E"/></radialGradient><radialGradient cx="48.213" cy="181.991" r="3.676" fx="48.213" fy="181.991" gradientTransform="matrix(-1 0 0 1 174.769 -24.189)" gradientUnits="userSpaceOnUse"><stop offset="0" stop-color="#fff"/><stop offset=".219" stop-color="#F9D0AE"/><stop offset=".415" stop-color="#F5AB6D"/><stop offset=".579" stop-color="#F2903E"/><stop offset=".704" stop-color="#F07F21"/><stop offset=".775" stop-color="#EF7916"/><stop offset="1" stop-color="#CE5B0E"/></radialGradient><radialGradient cx="74.396" cy="185.927" r="5.977" gradientUnits="userSpaceOnUse" gradientTransform="translate(29.871 -24.189)" fy="185.927" fx="74.396"><stop offset="0" stop-color="#fff"/><stop offset=".219" stop-color="#F9D0AE"/><stop offset=".415" stop-color="#F5AB6D"/><stop offset=".579" stop-color="#F2903E"/><stop offset=".704" stop-color="#F07F21"/><stop offset=".775" stop-color="#EF7916"/><stop offset="1" stop-color="#CE5B0E"/></radialGradient><radialGradient cx="69.649" cy="186.635" r="3.676" fx="69.649" fy="186.635" gradientTransform="matrix(-1 0 0 1 174.769 -24.189)" gradientUnits="userSpaceOnUse"><stop offset="0" stop-color="#fff"/><stop offset=".219" stop-color="#F9D0AE"/><stop offset=".415" stop-color="#F5AB6D"/><stop offset=".579" stop-color="#F2903E"/><stop offset=".704" stop-color="#F07F21"/><stop offset=".775" stop-color="#EF7916"/><stop offset="1" stop-color="#CE5B0E"/></radialGradient><radialGradient id="g" cx="114.328" cy="171.99" r="55.614" gradientUnits="userSpaceOnUse" fy="171.99" fx="114.328"><stop offset=".006" stop-color="#fff"/><stop offset="1" stop-color="#EFEEEC"/></radialGradient><radialGradient id="f" cx="118.36" cy="201.173" r="25.109" gradientUnits="userSpaceOnUse" fy="201.173" fx="118.36"><stop offset="0" stop-color="#BABDB6"/><stop offset=".826" stop-color="#545652"/><stop offset="1" stop-color="#2D3335"/></radialGradient><radialGradient id="e" cx="114.324" cy="171.986" r="55.631" gradientUnits="userSpaceOnUse" fy="171.986" fx="114.324"><stop offset="0" stop-color="#fff"/><stop offset="1" stop-color="#EFEEEC"/></radialGradient><radialGradient id="d" cx="105.153" cy="165.035" r="24.157" gradientUnits="userSpaceOnUse" fy="165.035" fx="105.153"><stop offset="0" stop-color="#fff"/><stop offset="1" stop-color="#545652"/></radialGradient><radialGradient id="c" cx="137.673" cy="202.162" r="44.368" fx="137.673" fy="202.162" gradientUnits="userSpaceOnUse"><stop offset="0" stop-color="#BAD1D7"/><stop offset=".826" stop-color="#6D7580"/><stop offset="1" stop-color="#41454C"/></radialGradient><radialGradient id="b" cx="103.865" cy="160.998" r="62.509" fx="103.865" fy="160.998" gradientUnits="userSpaceOnUse"><stop offset="0" stop-color="#fff"/><stop offset="1" stop-color="#8794A0"/></radialGradient><radialGradient id="a" cx="110.686" cy="201.857" r="48.528" fx="110.686" fy="201.857" gradientUnits="userSpaceOnUse"><stop offset="0" stop-color="#BAD1D7"/><stop offset="1" stop-color="#8794A0"/></radialGradient><radialGradient cx="95.96" cy="202.196" r="5.977" gradientUnits="userSpaceOnUse" gradientTransform="translate(29.871 -24.189)" fy="202.196" fx="95.96"><stop offset="0" stop-color="#fff"/><stop offset=".219" stop-color="#F9D0AE"/><stop offset=".415" stop-color="#F5AB6D"/><stop offset=".579" stop-color="#F2903E"/><stop offset=".704" stop-color="#F07F21"/><stop offset=".775" stop-color="#EF7916"/><stop offset="1" stop-color="#CE5B0E"/></radialGradient><radialGradient cx="48.084" cy="202.904" r="3.676" fx="48.084" fy="202.904" gradientTransform="matrix(-1 0 0 1 174.769 -24.189)" gradientUnits="userSpaceOnUse"><stop offset="0" stop-color="#fff"/><stop offset=".219" stop-color="#F9D0AE"/><stop offset=".415" stop-color="#F5AB6D"/><stop offset=".579" stop-color="#F2903E"/><stop offset=".704" stop-color="#F07F21"/><stop offset=".775" stop-color="#EF7916"/><stop offset="1" stop-color="#CE5B0E"/></radialGradient><radialGradient cx="110.686" cy="201.857" r="48.528" xlink:href="#a" gradientUnits="userSpaceOnUse" fx="110.686" fy="201.857"/><radialGradient cx="103.865" cy="160.998" r="62.509" xlink:href="#b" gradientUnits="userSpaceOnUse" fx="103.865" fy="160.998"/><radialGradient cx="137.673" cy="202.162" r="44.368" xlink:href="#c" gradientUnits="userSpaceOnUse" fx="137.673" fy="202.162"/><radialGradient cx="105.153" cy="165.035" r="24.157" xlink:href="#d" gradientUnits="userSpaceOnUse" fx="105.153" fy="165.035"/><radialGradient cx="114.324" cy="171.986" r="55.631" xlink:href="#e" gradientUnits="userSpaceOnUse" fx="114.324" fy="171.986"/><radialGradient cx="118.36" cy="201.173" r="25.109" xlink:href="#f" gradientUnits="userSpaceOnUse" fx="118.36" fy="201.173"/><radialGradient cx="114.328" cy="171.99" r="55.614" xlink:href="#g" gradientUnits="userSpaceOnUse" fx="114.328" fy="171.99"/><radialGradient id="i" cx="28.52" cy="25.868" r="17.591" xlink:href="#h" fx="28.52" fy="25.868" gradientTransform="matrix(1 .02 -.025 1.233 .66 -6.972)" gradientUnits="userSpaceOnUse"/><radialGradient cx="110.686" cy="201.857" r="48.528" xlink:href="#a" gradientUnits="userSpaceOnUse" fx="110.686" fy="201.857"/><radialGradient cx="103.865" cy="160.998" r="62.509" xlink:href="#b" gradientUnits="userSpaceOnUse" fx="103.865" fy="160.998"/><radialGradient cx="137.673" cy="202.162" r="44.368" xlink:href="#c" gradientUnits="userSpaceOnUse" fx="137.673" fy="202.162"/><radialGradient cx="105.153" cy="165.035" r="24.157" xlink:href="#d" gradientUnits="userSpaceOnUse" fx="105.153" fy="165.035"/><radialGradient cx="114.324" cy="171.986" r="55.631" xlink:href="#e" gradientUnits="userSpaceOnUse" fx="114.324" fy="171.986"/><radialGradient cx="118.36" cy="201.173" r="25.109" xlink:href="#f" gradientUnits="userSpaceOnUse" fx="118.36" fy="201.173"/><radialGradient cx="114.328" cy="171.99" r="55.614" xlink:href="#g" gradientUnits="userSpaceOnUse" fx="114.328" fy="171.99"/><radialGradient id="o" cx="118.36" cy="201.173" r="25.109" xlink:href="#f" gradientUnits="userSpaceOnUse" fx="118.36" fy="201.173"/><radialGradient id="p" cx="114.328" cy="171.99" r="55.614" xlink:href="#g" gradientUnits="userSpaceOnUse" fx="114.328" fy="171.99"/><radialGradient id="m" cx="105.153" cy="165.035" r="24.157" xlink:href="#d" gradientUnits="userSpaceOnUse" fx="105.153" fy="165.035"/><radialGradient id="n" cx="114.324" cy="171.986" r="55.631" xlink:href="#e" gradientUnits="userSpaceOnUse" fx="114.324" fy="171.986"/><radialGradient id="j" cx="28.52" cy="25.868" r="17.591" xlink:href="#h" gradientUnits="userSpaceOnUse" gradientTransform="matrix(1 .02 -.025 1.233 .66 -6.972)" fx="28.52" fy="25.868"/><radialGradient id="k" cx="28.52" cy="25.868" r="17.591" xlink:href="#h" gradientUnits="userSpaceOnUse" gradientTransform="matrix(1 .02 -.025 1.233 .66 -6.972)" fx="28.52" fy="25.868"/><radialGradient id="l" cx="28.52" cy="25.868" r="17.591" xlink:href="#h" gradientUnits="userSpaceOnUse" gradientTransform="matrix(1 .02 -.025 1.233 .66 -6.972)" fx="28.52" fy="25.868"/></defs><g><g fill="none" stroke="url(#i)" stroke-width=".947" transform="matrix(1.056 0 0 1.056 -4.062 -.835)"><path stroke="url(#j)" d="M29 25.46L8 30.48"/><path stroke="url(#k)" d="M28.6 25.5L42.2 35.5"/><path stroke="url(#l)" d="M28.7 3.3l.05 22.22"/></g><g transform="matrix(1.105 0 0 1.105 -114.071 -173.336)" opacity=".3"><radialGradient cx="105.153" cy="165.035" r="24.157" fx="105.153" fy="165.035" gradientUnits="userSpaceOnUse"><stop offset="0" stop-color="#fff"/><stop offset="1" stop-color="#545652"/></radialGradient><path fill="url(#m)" d="M117.7 174.22l-11.9-10.56" enable-background="new"/><radialGradient cx="114.324" cy="171.986" r="55.631" fx="114.324" fy="171.986" gradientUnits="userSpaceOnUse"><stop offset="0" stop-color="#fff"/><stop offset="1" stop-color="#EFEEEC"/></radialGradient><path fill="url(#n)" d="M105.5 164l11.88 10.56.6-.68-11.9-10.57-.6.7z"/></g><g transform="matrix(1.105 0 0 1.105 -114.071 -173.336)" opacity=".3"><radialGradient cx="118.36" cy="201.173" r="25.109" fx="118.36" fy="201.173" gradientUnits="userSpaceOnUse"><stop offset="0" stop-color="#BABDB6"/><stop offset=".826" stop-color="#545652"/><stop offset="1" stop-color="#2D3335"/></radialGradient><path fill="url(#o)" d="M118.5 197.74l-.8-23.52" enable-background="new"/><radialGradient cx="114.328" cy="171.99" r="55.614" fx="114.328" fy="171.99" gradientUnits="userSpaceOnUse"><stop offset=".006" stop-color="#fff"/><stop offset="1" stop-color="#EFEEEC"/></radialGradient><path fill="url(#p)" d="M117.64 174.22h.9v23.52h-.9z"/></g><path fill="none" stroke="#192333" stroke-opacity=".502" stroke-width=".9955000000000002" d="M2.8 7.45l23.68-5.13 16.15 9.32-2.3 24.28-23.5 9.18L4.8 30.6l-2-23.15z"/><path fill="#2e3436" fill-opacity=".502" fill-rule="evenodd" stroke="#eeeeec" stroke-width=".87.15" d="M28.53 2.66a2.1 2.1 0 1 1-4.23 0 2.1 2.1 0 1 1 4.23 0z" color="#000" overflow="visible" enable-background="accumulate"/><path fill="#2e3436" fill-rule="evenodd" stroke="#eeeeec" stroke-width=".87.15" d="M44.54 11.64a2.1 2.1 0 1 1-4.22 0 2.1 2.1 0 1 1 4.22 0z" color="#000" overflow="visible" enable-background="accumulate"/><path fill="#2e3436" fill-rule="evenodd" stroke="#eeeeec" stroke-width=".87.15" d="M41.9 36.18a2.1 2.1 0 1 1-4.22 0 2.1 2.1 0 1 1 4.22 0z" color="#000" overflow="visible" enable-background="accumulate"/><path fill="#2e3436" fill-opacity=".502" fill-rule="evenodd" stroke="#eeeeec" stroke-width=".87.15" d="M28.02 26.22a2.1 2.1 0 1 1-4.22 0 2.1 2.1 0 1 1 4.22 0z" color="#000" overflow="visible" enable-background="accumulate"/><path fill="#2e3436" fill-rule="evenodd" stroke="#eeeeec" stroke-width=".87.15" d="M7.1 31.45a2.1 2.1 0 1 1-4.22 0 2.1 2.1 0 1 1 4.22 0z" color="#000" overflow="visible" enable-background="accumulate"/><path fill="#2e3436" fill-rule="evenodd" stroke="#eeeeec" stroke-width=".87.15" d="M30.54 40.6a2.1 2.1 0 1 1-4.23 0 2.1 2.1 0 1 1 4.24 0z" color="#000" overflow="visible" enable-background="accumulate"/><path fill="#2e3436" fill-rule="evenodd" stroke="#eeeeec" stroke-width=".87.15" d="M43.4 24.1a2.1 2.1 0 1 1-4.2 0 2.1 2.1 0 1 1 4.2 0z" color="#000" overflow="visible" enable-background="accumulate"/><path fill="#2e3436" fill-opacity=".753" fill-rule="evenodd" stroke="#eeeeec" stroke-width=".87.15" d="M36.57 7.1a2.1 2.1 0 1 1-4.22 0 2.1 2.1 0 1 1 4.22 0z" color="#000" overflow="visible" enable-background="accumulate"/><path fill="none" stroke="#192333" stroke-opacity=".502" d="M16.96 19.78l-.3 25.45" color="#000" overflow="visible" enable-background="accumulate"/><path fill="none" stroke="#192333" stroke-opacity=".502" d="M42.5 11.64l-25.54 7.94L2.68 8.12" color="#000" overflow="visible" enable-background="accumulate"/><path fill="#2e3436" fill-rule="evenodd" stroke="#eeeeec" stroke-width=".87.15" d="M31.04 15.76a2.1 2.1 0 1 1-4.22 0 2.1 2.1 0 1 1 4.22 0z" color="#000" overflow="visible" enable-background="accumulate"/><path fill="#2e3436" fill-rule="evenodd" stroke="#eeeeec" stroke-width=".87.15" d="M4.9 8.14a2.1 2.1 0 1 1-4.2 0 2.1 2.1 0 1 1 4.2 0z" color="#000" overflow="visible" enable-background="accumulate"/><path fill-rule="evenodd" stroke="#eeeeec" stroke-width=".87.15" d="M18.87 19.58a2.1 2.1 0 1 1-4.22 0 2.1 2.1 0 1 1 4.22 0z" color="#000" overflow="visible" enable-background="accumulate"/><path fill-rule="evenodd" stroke="#eeeeec" stroke-width=".87.15" d="M18.77 45.13a2.1 2.1 0 1 1-4.22 0 2.1 2.1 0 1 1 4.22 0z" color="#000" overflow="visible" enable-background="accumulate"/><path fill="none" stroke="#192333" stroke-opacity=".502" d="M41.4 24.2l-24.64 8.56L3.88 20.4" color="#000" overflow="visible" enable-background="accumulate"/><path fill-rule="evenodd" stroke="#eeeeec" stroke-width=".87.15" d="M18.77 32.45a2.1 2.1 0 1 1-4.22 0 2.1 2.1 0 1 1 4.22 0z" color="#000" overflow="visible" enable-background="accumulate"/><path fill="#2e3436" fill-rule="evenodd" stroke="#eeeeec" stroke-width=".87.15" d="M5.7 20.28a2.1 2.1 0 1 1-4.23 0 2.1 2.1 0 1 1 4.22 0z" color="#000" overflow="visible" enable-background="accumulate"/><path fill="none" stroke="#192333" stroke-opacity=".502" d="M28.22 40.65l1-25.04L14.56 4.86" color="#000" overflow="visible" enable-background="accumulate"/><path fill="#2e3436" fill-rule="evenodd" stroke="#eeeeec" stroke-width=".87.15" d="M30.84 28.63a2.1 2.1 0 1 1-4.23 0 2.1 2.1 0 1 1 4.24 0z" color="#000" overflow="visible" enable-background="accumulate"/><path fill="#2e3436" fill-opacity=".753" fill-rule="evenodd" stroke="#eeeeec" stroke-width=".87.15" d="M16.66 4.9a2.1 2.1 0 1 1-4.23 0 2.1 2.1 0 1 1 4.23 0z" color="#000" overflow="visible" enable-background="accumulate"/><path fill="none" stroke="#192333" stroke-opacity=".502" d="M10.52 38.1l-1-23.75L34.86 7.2" color="#000" overflow="visible" enable-background="accumulate"/><path fill="#2e3436" fill-rule="evenodd" stroke="#eeeeec" stroke-width=".87.15" d="M24 10.33a2.1 2.1 0 1 1-4.22 0 2.1 2.1 0 1 1 4.22 0z" color="#000" overflow="visible" enable-background="accumulate"/><path fill="#2e3436" fill-rule="evenodd" stroke="#eeeeec" stroke-width=".87.15" d="M11.83 14.25a2.1 2.1 0 1 1-4.22 0 2.1 2.1 0 1 1 4.23 0z" color="#000" overflow="visible" enable-background="accumulate"/><path fill="#2e3436" fill-rule="evenodd" stroke="#eeeeec" stroke-width=".87.15" d="M11.93 26.42a2.1 2.1 0 1 1-4.22 0 2.1 2.1 0 1 1 4.23 0z" color="#000" overflow="visible" enable-background="accumulate"/><path fill="#2e3436" fill-rule="evenodd" stroke="#eeeeec" stroke-width=".87.15" d="M12.53 37.88a2.1 2.1 0 1 1-4.22 0 2.1 2.1 0 1 1 4.23 0z" color="#000" overflow="visible" enable-background="accumulate"/><path fill="#2b5503" stroke="#eeeeec" stroke-width="3" d="M37.12 36.07h.5v7.05h1.7v.64h-1.7v1.6c0 .13.04.24.15.32.16.12.35.17.56.17h.63v.56h-4.14v-.55h.77c.25 0 .44-.05.56-.16.12-.12.18-.28.18-.5v-1.44h-4.22v-.72l5-6.97zm-.78 2.02l-3.6 5.02h3.6V38.1z" style="text-align:start;line-height:125%" font-size="15.277" stroke-linejoin="bevel" font-family="Century"/><path fill="#2b5503" stroke="#eeeeec" stroke-width="3" d="M41.3 44.78c-.22.3.9.44 3.4.44.37 0 .64-.1.8-.3.15-.2.34-.72.54-1.6h.5l-.23 3.1h-6.67V46l2.17-2.48c1.2-1.3 1.93-2.14 2.17-2.48.35-.48.6-.94.76-1.4.16-.44.24-.85.24-1.22 0-.6-.17-1.1-.5-1.44-.34-.36-.8-.53-1.4-.53-.7 0-1.24.16-1.67.48-.43.33-.64.67-.64 1.03 0 .13.03.22.1.3.06.05.18.1.38.16.5.12.76.4.76.88 0 .25-.1.46-.26.63-.17.17-.38.25-.65.25-.3 0-.57-.14-.8-.42-.23-.28-.35-.65-.35-1.1 0-.5.13-.97.4-1.4.26-.4.65-.74 1.18-1 .52-.27 1.1-.4 1.7-.4.6 0 1.16.12 1.67.38.52.26.9.6 1.16 1.02.26.42.4.88.4 1.38 0 .34-.07.7-.2 1.04-.13.35-.32.68-.57 1-.44.52-.88.98-1.33 1.36L42.4 43.7c-.5.43-.86.8-1.1 1.08z" style="text-align:start;line-height:125%" font-size="15.277" stroke-linejoin="bevel" font-family="Century"/><path fill="#2b5503" d="M37.7 36.64h.48v7.05h1.72v.63h-1.72v1.6c0 .13.06.24.16.32.16.12.35.18.56.18h.63v.55H35.4v-.55h.76c.26 0 .45-.06.57-.17.12-.1.18-.27.18-.48v-1.45h-4.2v-.72l5-6.96zm-.8 2.02l-3.6 5.03h3.6v-5.04z" style="text-align:start;line-height:125%" font-size="15.277" font-family="Century"/><path fill="#2b5503" d="M41.88 45.35c-.23.3.9.44 3.4.44.36 0 .63-.1.8-.3.15-.2.33-.73.53-1.6h.52l-.24 3.08H40.2v-.4l2.17-2.47c1.2-1.3 1.93-2.13 2.18-2.46.34-.5.6-.95.76-1.4.17-.45.25-.86.25-1.23 0-.6-.17-1.08-.5-1.43-.35-.35-.82-.53-1.42-.53-.68 0-1.23.16-1.66.5-.43.3-.64.65-.64 1.02 0 .12.03.2.1.28.06.06.2.12.4.17.5.13.74.42.74.9 0 .24-.1.45-.25.62-.17.17-.4.25-.65.25-.3 0-.57-.14-.8-.42-.23-.28-.35-.65-.35-1.1 0-.5.14-.97.4-1.38.26-.42.65-.76 1.18-1.03.53-.26 1.1-.4 1.7-.4.6 0 1.16.13 1.67.4.52.25.9.6 1.16 1 .26.43.4.9.4 1.4 0 .33-.07.68-.2 1.03s-.32.68-.57 1c-.43.53-.87.98-1.32 1.36l-1.97 1.65c-.5.42-.86.78-1.1 1.07z" style="text-align:start;line-height:125%" font-size="15.277" font-family="Century"/></g></svg>