<svg xmlns="http://www.w3.org/2000/svg" width="48" height="48" xmlns:xlink="http://www.w3.org/1999/xlink"><defs><linearGradient id="d"><stop offset="0" stop-opacity=".484"/><stop offset="1" stop-opacity="0"/></linearGradient><linearGradient id="b"><stop offset="0" stop-color="#fef8da"/><stop offset="1" stop-color="#52af28"/></linearGradient><linearGradient id="c"><stop offset="0" stop-color="#f5e2e2"/><stop offset="1" stop-color="#d44747"/></linearGradient><linearGradient id="a"><stop offset="0" stop-color="#e2ebf5"/><stop offset="1" stop-color="#4781d4"/></linearGradient><radialGradient id="f" cx="22.5" cy="18.643" r="5.286" xlink:href="#a" gradientUnits="userSpaceOnUse" fx="22.5" fy="18.643"/><radialGradient id="A" cx="22.5" cy="18.643" r="5.286" xlink:href="#a" gradientUnits="userSpaceOnUse" fx="22.5" fy="18.643"/><radialGradient id="am" cx="22.5" cy="18.643" r="5.286" xlink:href="#b" gradientUnits="userSpaceOnUse" fx="22.5" fy="18.643"/><radialGradient id="aq" cx="22.5" cy="18.643" r="5.286" xlink:href="#b" gradientUnits="userSpaceOnUse" fx="22.5" fy="18.643"/><radialGradient id="as" cx="22.5" cy="18.643" r="5.286" xlink:href="#b" gradientUnits="userSpaceOnUse" fx="22.5" fy="18.643"/><radialGradient id="ap" cx="22.5" cy="18.643" r="5.286" xlink:href="#b" gradientUnits="userSpaceOnUse" fx="22.5" fy="18.643"/><radialGradient id="C" cx="22.5" cy="18.643" r="5.286" xlink:href="#a" gradientUnits="userSpaceOnUse" fx="22.5" fy="18.643"/><radialGradient id="B" cx="22.5" cy="18.643" r="5.286" xlink:href="#a" gradientUnits="userSpaceOnUse" fx="22.5" fy="18.643"/><radialGradient id="E" cx="22.5" cy="18.643" r="5.286" xlink:href="#a" gradientUnits="userSpaceOnUse" fx="22.5" fy="18.643"/><radialGradient id="ao" cx="22.5" cy="18.643" r="5.286" xlink:href="#b" gradientUnits="userSpaceOnUse" fx="22.5" fy="18.643"/><radialGradient id="an" cx="22.5" cy="18.643" r="5.286" xlink:href="#b" gradientUnits="userSpaceOnUse" fx="22.5" fy="18.643"/><radialGradient id="D" cx="22.5" cy="18.643" r="5.286" xlink:href="#a" gradientUnits="userSpaceOnUse" fx="22.5" fy="18.643"/><radialGradient id="al" cx="22.5" cy="18.643" r="5.286" xlink:href="#b" gradientUnits="userSpaceOnUse" fx="22.5" fy="18.643"/><radialGradient id="ak" cx="22.5" cy="18.643" r="5.286" xlink:href="#b" gradientUnits="userSpaceOnUse" fx="22.5" fy="18.643"/><radialGradient id="aj" cx="22.5" cy="18.643" r="5.286" xlink:href="#b" gradientUnits="userSpaceOnUse" fx="22.5" fy="18.643"/><radialGradient id="ar" cx="22.5" cy="18.643" r="5.286" xlink:href="#b" gradientUnits="userSpaceOnUse" fx="22.5" fy="18.643"/><radialGradient id="z" cx="22.5" cy="18.643" r="5.286" xlink:href="#a" gradientUnits="userSpaceOnUse" fx="22.5" fy="18.643"/><radialGradient id="y" cx="22.5" cy="18.643" r="5.286" xlink:href="#a" gradientUnits="userSpaceOnUse" fx="22.5" fy="18.643"/><radialGradient id="x" cx="22.5" cy="18.643" r="5.286" xlink:href="#a" gradientUnits="userSpaceOnUse" fx="22.5" fy="18.643"/><radialGradient id="ai" cx="22.5" cy="18.643" r="5.286" xlink:href="#b" gradientUnits="userSpaceOnUse" fx="22.5" fy="18.643"/><radialGradient id="w" cx="22.5" cy="18.643" r="5.286" xlink:href="#a" gradientUnits="userSpaceOnUse" fx="22.5" fy="18.643"/><radialGradient id="ah" cx="22.5" cy="18.643" r="5.286" xlink:href="#b" gradientUnits="userSpaceOnUse" fx="22.5" fy="18.643"/><radialGradient id="ag" cx="22.5" cy="18.643" r="5.286" xlink:href="#b" gradientUnits="userSpaceOnUse" fx="22.5" fy="18.643"/><radialGradient id="af" cx="22.5" cy="18.643" r="5.286" xlink:href="#b" gradientUnits="userSpaceOnUse" fx="22.5" fy="18.643"/><radialGradient id="at" cx="22.5" cy="18.643" r="5.286" xlink:href="#b" gradientUnits="userSpaceOnUse" fx="22.5" fy="18.643"/><radialGradient id="ae" cx="22.5" cy="18.643" r="5.286" xlink:href="#b" gradientUnits="userSpaceOnUse" fx="22.5" fy="18.643"/><radialGradient id="ad" cx="22.5" cy="18.643" r="5.286" xlink:href="#b" gradientUnits="userSpaceOnUse" fx="22.5" fy="18.643"/><radialGradient id="au" cx="22.5" cy="18.643" r="5.286" xlink:href="#b" gradientUnits="userSpaceOnUse" fx="22.5" fy="18.643"/><radialGradient id="v" cx="22.5" cy="18.643" r="5.286" xlink:href="#a" gradientUnits="userSpaceOnUse" fx="22.5" fy="18.643"/><radialGradient id="u" cx="22.5" cy="18.643" r="5.286" xlink:href="#a" gradientUnits="userSpaceOnUse" fx="22.5" fy="18.643"/><radialGradient id="t" cx="22.5" cy="18.643" r="5.286" xlink:href="#a" gradientUnits="userSpaceOnUse" fx="22.5" fy="18.643"/><radialGradient id="ac" cx="22.5" cy="18.643" r="5.286" xlink:href="#b" gradientUnits="userSpaceOnUse" fx="22.5" fy="18.643"/><radialGradient id="ab" cx="22.5" cy="18.643" r="5.286" xlink:href="#b" gradientUnits="userSpaceOnUse" fx="22.5" fy="18.643"/><radialGradient id="aa" cx="22.5" cy="18.643" r="5.286" xlink:href="#b" gradientUnits="userSpaceOnUse" fx="22.5" fy="18.643"/><radialGradient id="s" cx="22.5" cy="18.643" r="5.286" xlink:href="#a" gradientUnits="userSpaceOnUse" fx="22.5" fy="18.643"/><radialGradient id="r" cx="22.5" cy="18.643" r="5.286" xlink:href="#a" gradientUnits="userSpaceOnUse" fx="22.5" fy="18.643"/><radialGradient id="q" cx="22.5" cy="18.643" r="5.286" xlink:href="#a" gradientUnits="userSpaceOnUse" fx="22.5" fy="18.643"/><radialGradient id="p" cx="22.5" cy="18.643" r="5.286" xlink:href="#a" gradientUnits="userSpaceOnUse" fx="22.5" fy="18.643"/><radialGradient id="o" cx="22.5" cy="18.643" r="5.286" xlink:href="#a" gradientUnits="userSpaceOnUse" fx="22.5" fy="18.643"/><radialGradient id="n" cx="22.5" cy="18.643" r="5.286" xlink:href="#a" gradientUnits="userSpaceOnUse" fx="22.5" fy="18.643"/><radialGradient id="m" cx="22.5" cy="18.643" r="5.286" xlink:href="#a" gradientUnits="userSpaceOnUse" fx="22.5" fy="18.643"/><radialGradient id="l" cx="22.5" cy="18.643" r="5.286" xlink:href="#a" gradientUnits="userSpaceOnUse" fx="22.5" fy="18.643"/><radialGradient id="k" cx="22.5" cy="18.643" r="5.286" xlink:href="#a" gradientUnits="userSpaceOnUse" fx="22.5" fy="18.643"/><radialGradient id="Z" cx="22.5" cy="18.643" r="5.286" xlink:href="#b" gradientUnits="userSpaceOnUse" fx="22.5" fy="18.643"/><radialGradient id="Y" cx="22.5" cy="18.643" r="5.286" xlink:href="#b" gradientUnits="userSpaceOnUse" fx="22.5" fy="18.643"/><radialGradient id="X" cx="22.5" cy="18.643" r="5.286" xlink:href="#b" gradientUnits="userSpaceOnUse" fx="22.5" fy="18.643"/><radialGradient id="W" cx="22.5" cy="18.643" r="5.286" xlink:href="#b" gradientUnits="userSpaceOnUse" fx="22.5" fy="18.643"/><radialGradient id="V" cx="22.5" cy="18.643" r="5.286" xlink:href="#b" gradientUnits="userSpaceOnUse" fx="22.5" fy="18.643"/><radialGradient id="U" cx="22.5" cy="18.643" r="5.286" xlink:href="#b" gradientUnits="userSpaceOnUse" fx="22.5" fy="18.643"/><radialGradient id="j" cx="22.5" cy="18.643" r="5.286" xlink:href="#a" gradientUnits="userSpaceOnUse" fx="22.5" fy="18.643"/><radialGradient id="i" cx="22.5" cy="18.643" r="5.286" xlink:href="#a" gradientUnits="userSpaceOnUse" fx="22.5" fy="18.643"/><radialGradient id="h" cx="22.5" cy="18.643" r="5.286" xlink:href="#a" gradientUnits="userSpaceOnUse" fx="22.5" fy="18.643"/><radialGradient id="g" cx="22.5" cy="18.643" r="5.286" xlink:href="#a" gradientUnits="userSpaceOnUse" fx="22.5" fy="18.643"/><radialGradient id="F" cx="22.5" cy="18.643" r="5.286" xlink:href="#c" gradientUnits="userSpaceOnUse" fx="22.5" fy="18.643"/><radialGradient id="G" cx="22.5" cy="18.643" r="5.286" xlink:href="#c" gradientUnits="userSpaceOnUse" fx="22.5" fy="18.643"/><radialGradient id="H" cx="22.5" cy="18.643" r="5.286" xlink:href="#c" gradientUnits="userSpaceOnUse" fx="22.5" fy="18.643"/><radialGradient id="I" cx="22.5" cy="18.643" r="5.286" xlink:href="#c" gradientUnits="userSpaceOnUse" fx="22.5" fy="18.643"/><radialGradient id="J" cx="22.5" cy="18.643" r="5.286" xlink:href="#c" gradientUnits="userSpaceOnUse" fx="22.5" fy="18.643"/><radialGradient id="K" cx="22.5" cy="18.643" r="5.286" xlink:href="#c" gradientUnits="userSpaceOnUse" fx="22.5" fy="18.643"/><radialGradient id="L" cx="22.5" cy="18.643" r="5.286" xlink:href="#c" gradientUnits="userSpaceOnUse" fx="22.5" fy="18.643"/><radialGradient id="M" cx="22.5" cy="18.643" r="5.286" xlink:href="#c" gradientUnits="userSpaceOnUse" fx="22.5" fy="18.643"/><radialGradient id="N" cx="22.5" cy="18.643" r="5.286" xlink:href="#c" gradientUnits="userSpaceOnUse" fx="22.5" fy="18.643"/><radialGradient id="O" cx="22.5" cy="18.643" r="5.286" xlink:href="#c" gradientUnits="userSpaceOnUse" fx="22.5" fy="18.643"/><radialGradient id="P" cx="22.5" cy="18.643" r="5.286" xlink:href="#c" gradientUnits="userSpaceOnUse" fx="22.5" fy="18.643"/><radialGradient id="Q" cx="22.5" cy="18.643" r="5.286" xlink:href="#c" gradientUnits="userSpaceOnUse" fx="22.5" fy="18.643"/><radialGradient id="R" cx="22.5" cy="18.643" r="5.286" xlink:href="#c" gradientUnits="userSpaceOnUse" fx="22.5" fy="18.643"/><radialGradient id="S" cx="22.5" cy="18.643" r="5.286" xlink:href="#c" gradientUnits="userSpaceOnUse" fx="22.5" fy="18.643"/><radialGradient id="T" cx="22.5" cy="18.643" r="5.286" xlink:href="#c" gradientUnits="userSpaceOnUse" fx="22.5" fy="18.643"/><radialGradient id="av" cx="22.5" cy="18.643" r="5.286" xlink:href="#b" gradientUnits="userSpaceOnUse" fx="22.5" fy="18.643"/><radialGradient id="aw" cx="22.5" cy="18.643" r="5.286" xlink:href="#b" gradientUnits="userSpaceOnUse" fx="22.5" fy="18.643"/><radialGradient id="e" cx="20" cy="41.206" r="15.302" xlink:href="#d" fx="20" fy="41.206" gradientTransform="matrix(1 0 0 .278 0 29.751)" gradientUnits="userSpaceOnUse"/></defs><g><path fill="url(#e)" fill-rule="evenodd" d="M35.3 41.2a15.3 4.25 0 1 1-30.6 0 15.3 4.25 0 1 1 30.6 0z" transform="translate(.063 1.46)" overflow="visible" enable-background="accumulate"/><path fill="url(#f)" fill-rule="evenodd" d="M28.43 19.8a4.8 4.8 0 1 1-9.57 0 4.8 4.8 0 1 1 9.57 0z" transform="matrix(.524 0 0 .523 1.022 2.029)" overflow="visible" enable-background="accumulate"/><path fill="url(#g)" fill-rule="evenodd" d="M28.43 19.8a4.8 4.8 0 1 1-9.57 0 4.8 4.8 0 1 1 9.57 0z" transform="matrix(.524 0 0 .523 -4.528 19.688)" overflow="visible" enable-background="accumulate"/><path fill="url(#h)" fill-rule="evenodd" d="M28.43 19.8a4.8 4.8 0 1 1-9.57 0 4.8 4.8 0 1 1 9.57 0z" transform="matrix(.524 0 0 .523 -2.738 22.243)" overflow="visible" enable-background="accumulate"/><path fill="url(#i)" fill-rule="evenodd" d="M28.43 19.8a4.8 4.8 0 1 1-9.57 0 4.8 4.8 0 1 1 9.57 0z" transform="matrix(.524 0 0 .523 -.488 24.695)" overflow="visible" enable-background="accumulate"/><path fill="url(#j)" fill-rule="evenodd" d="M28.43 19.8a4.8 4.8 0 1 1-9.57 0 4.8 4.8 0 1 1 9.57 0z" transform="matrix(.524 0 0 .523 2.785 26.432)" overflow="visible" enable-background="accumulate"/><path fill="url(#k)" fill-rule="evenodd" d="M28.43 19.8a4.8 4.8 0 1 1-9.57 0 4.8 4.8 0 1 1 9.57 0z" transform="matrix(.524 0 0 .523 4.524 7.937)" overflow="visible" enable-background="accumulate"/><path fill="url(#l)" fill-rule="evenodd" d="M28.43 19.8a4.8 4.8 0 1 1-9.57 0 4.8 4.8 0 1 1 9.57 0z" transform="matrix(.524 0 0 .523 -1.408 8.653)" overflow="visible" enable-background="accumulate"/><path fill="url(#m)" fill-rule="evenodd" d="M28.43 19.8a4.8 4.8 0 1 1-9.57 0 4.8 4.8 0 1 1 9.57 0z" transform="matrix(.524 0 0 .523 -3.863 7.835)" overflow="visible" enable-background="accumulate"/><path fill="url(#n)" fill-rule="evenodd" d="M28.43 19.8a4.8 4.8 0 1 1-9.57 0 4.8 4.8 0 1 1 9.57 0z" transform="matrix(.524 0 0 .523 -4.886 10.39)" overflow="visible" enable-background="accumulate"/><path fill="url(#o)" fill-rule="evenodd" d="M28.43 19.8a4.8 4.8 0 1 1-9.57 0 4.8 4.8 0 1 1 9.57 0z" transform="matrix(.524 0 0 .523 -5.499 13.455)" overflow="visible" enable-background="accumulate"/><path fill="url(#p)" fill-rule="evenodd" d="M28.43 19.8a4.8 4.8 0 1 1-9.57 0 4.8 4.8 0 1 1 9.57 0z" transform="matrix(.524 0 0 .523 -5.499 16.929)" overflow="visible" enable-background="accumulate"/><path fill="url(#q)" fill-rule="evenodd" d="M28.43 19.8a4.8 4.8 0 1 1-9.57 0 4.8 4.8 0 1 1 9.57 0z" transform="matrix(.524 0 0 .523 -2.226 15.192)" overflow="visible" enable-background="accumulate"/><path fill="url(#r)" fill-rule="evenodd" d="M28.43 19.8a4.8 4.8 0 1 1-9.57 0 4.8 4.8 0 1 1 9.57 0z" transform="matrix(.524 0 0 .523 -1.408 11.616)" overflow="visible" enable-background="accumulate"/><path fill="url(#s)" fill-rule="evenodd" d="M28.43 19.8a4.8 4.8 0 1 1-9.57 0 4.8 4.8 0 1 1 9.57 0z" transform="matrix(.524 0 0 .523 2.069 11.411)" overflow="visible" enable-background="accumulate"/><path fill="url(#t)" fill-rule="evenodd" d="M28.43 19.8a4.8 4.8 0 1 1-9.57 0 4.8 4.8 0 1 1 9.57 0z" transform="matrix(.524 0 0 .523 2.683 21.936)" overflow="visible" enable-background="accumulate"/><path fill="url(#u)" fill-rule="evenodd" d="M28.43 19.8a4.8 4.8 0 1 1-9.57 0 4.8 4.8 0 1 1 9.57 0z" transform="matrix(.524 0 0 .523 -.488 19.688)" overflow="visible" enable-background="accumulate"/><path fill="url(#v)" fill-rule="evenodd" d="M28.43 19.8a4.8 4.8 0 1 1-9.57 0 4.8 4.8 0 1 1 9.57 0z" transform="matrix(.524 0 0 .523 1.251 15.294)" overflow="visible" enable-background="accumulate"/><path fill="url(#w)" fill-rule="evenodd" d="M28.43 19.8a4.8 4.8 0 1 1-9.57 0 4.8 4.8 0 1 1 9.57 0z" transform="matrix(.524 0 0 .523 -1.439 17.289)" overflow="visible" enable-background="accumulate"/><path fill="url(#x)" fill-rule="evenodd" d="M28.43 19.8a4.8 4.8 0 1 1-9.57 0 4.8 4.8 0 1 1 9.57 0z" transform="matrix(.524 0 0 .523 -.323 6.538)" overflow="visible" enable-background="accumulate"/><path fill="url(#y)" fill-rule="evenodd" d="M28.43 19.8a4.8 4.8 0 1 1-9.57 0 4.8 4.8 0 1 1 9.57 0z" transform="matrix(.524 0 0 .523 2.544 5.264)" overflow="visible" enable-background="accumulate"/><path fill="url(#z)" fill-rule="evenodd" d="M28.43 19.8a4.8 4.8 0 1 1-9.57 0 4.8 4.8 0 1 1 9.57 0z" transform="matrix(.524 0 0 .523 -1.825 4.49)" overflow="visible" enable-background="accumulate"/><path fill="url(#A)" fill-rule="evenodd" d="M28.43 19.8a4.8 4.8 0 1 1-9.57 0 4.8 4.8 0 1 1 9.57 0z" transform="matrix(.524 0 0 .523 .161 4.275)" overflow="visible" enable-background="accumulate"/><path fill="url(#B)" fill-rule="evenodd" d="M28.43 19.8a4.8 4.8 0 1 1-9.57 0 4.8 4.8 0 1 1 9.57 0z" transform="matrix(.524 0 0 .523 3.178 2.624)" overflow="visible" enable-background="accumulate"/><path fill="url(#C)" fill-rule="evenodd" d="M28.43 19.8a4.8 4.8 0 1 1-9.57 0 4.8 4.8 0 1 1 9.57 0z" transform="matrix(.524 0 0 .523 3.571 8.359)" overflow="visible" enable-background="accumulate"/><path fill="url(#D)" fill-rule="evenodd" d="M28.43 19.8a4.8 4.8 0 1 1-9.57 0 4.8 4.8 0 1 1 9.57 0z" transform="matrix(.524 0 0 .523 5.138 .485)" overflow="visible" enable-background="accumulate"/><path fill="url(#E)" fill-rule="evenodd" d="M28.43 19.8a4.8 4.8 0 1 1-9.57 0 4.8 4.8 0 1 1 9.57 0z" transform="matrix(.524 0 0 .523 5.411 6.129)" overflow="visible" enable-background="accumulate"/><path fill="#d3d7cf" fill-opacity=".502" fill-rule="evenodd" stroke="#000" d="M11.05 9.48V48L34.3 35V.3l-23.25 9.2z" stroke-linejoin="bevel"/><path fill="none" stroke="#fff" d="M12 10.18V46.6l21.27-12.24V1.56L12 10.17z"/><g fill-rule="evenodd"><path fill="url(#F)" d="M28.43 19.8a4.8 4.8 0 1 1-9.57 0 4.8 4.8 0 1 1 9.57 0z" transform="matrix(.523 0 0 .523 9.443 26.774)" overflow="visible" enable-background="accumulate"/><path fill="url(#G)" d="M28.43 19.8a4.8 4.8 0 1 1-9.57 0 4.8 4.8 0 1 1 9.57 0z" transform="matrix(.523 0 0 .523 12.921 25.65)" overflow="visible" enable-background="accumulate"/><path fill="url(#H)" d="M28.43 19.8a4.8 4.8 0 1 1-9.57 0 4.8 4.8 0 1 1 9.57 0z" transform="matrix(.523 0 0 .523 16.09 23.198)" overflow="visible" enable-background="accumulate"/><path fill="url(#I)" d="M28.43 19.8a4.8 4.8 0 1 1-9.57 0 4.8 4.8 0 1 1 9.57 0z" transform="matrix(.523 0 0 .523 18.75 20.234)" overflow="visible" enable-background="accumulate"/><path fill="url(#J)" d="M28.43 19.8a4.8 4.8 0 1 1-9.57 0 4.8 4.8 0 1 1 9.57 0z" transform="matrix(.523 0 0 .523 19.977 16.863)" overflow="visible" enable-background="accumulate"/><path fill="url(#K)" d="M28.43 19.8a4.8 4.8 0 1 1-9.57 0 4.8 4.8 0 1 1 9.57 0z" transform="matrix(.523 0 0 .523 15.989 17.17)" overflow="visible" enable-background="accumulate"/><path fill="url(#L)" d="M28.43 19.8a4.8 4.8 0 1 1-9.57 0 4.8 4.8 0 1 1 9.57 0z" transform="matrix(.523 0 0 .523 13.739 20.439)" overflow="visible" enable-background="accumulate"/><path fill="url(#M)" d="M28.43 19.8a4.8 4.8 0 1 1-9.57 0 4.8 4.8 0 1 1 9.57 0z" transform="matrix(.523 0 0 .523 9.097 22.933)" overflow="visible" enable-background="accumulate"/><path fill="url(#N)" d="M28.43 19.8a4.8 4.8 0 1 1-9.57 0 4.8 4.8 0 1 1 9.57 0z" transform="matrix(.523 0 0 .523 6.273 22.891)" overflow="visible" enable-background="accumulate"/><path fill="url(#O)" d="M28.43 19.8a4.8 4.8 0 1 1-9.57 0 4.8 4.8 0 1 1 9.57 0z" transform="matrix(.523 0 0 .523 6.912 19.52)" overflow="visible" enable-background="accumulate"/><path fill="url(#P)" d="M28.43 19.8a4.8 4.8 0 1 1-9.57 0 4.8 4.8 0 1 1 9.57 0z" transform="matrix(.523 0 0 .523 10.492 18.396)" overflow="visible" enable-background="accumulate"/><path fill="url(#Q)" d="M28.43 19.8a4.8 4.8 0 1 1-9.57 0 4.8 4.8 0 1 1 9.57 0z" transform="matrix(.523 0 0 .523 11.45 22.19)" overflow="visible" enable-background="accumulate"/><path fill="url(#R)" d="M28.43 19.8a4.8 4.8 0 1 1-9.57 0 4.8 4.8 0 1 1 9.57 0z" transform="matrix(.523 0 0 .523 3.787 20.522)" overflow="visible" enable-background="accumulate"/><path fill="url(#S)" d="M28.43 19.8a4.8 4.8 0 1 1-9.57 0 4.8 4.8 0 1 1 9.57 0z" transform="matrix(.523 0 0 .523 5.761 26.774)" overflow="visible" enable-background="accumulate"/><path fill="url(#T)" d="M28.43 19.8a4.8 4.8 0 1 1-9.57 0 4.8 4.8 0 1 1 9.57 0z" transform="matrix(.523 0 0 .523 3.82 24.081)" overflow="visible" enable-background="accumulate"/></g><path fill="#d3d7cf" fill-opacity=".502" fill-rule="evenodd" stroke="#000" d="M11.17 25.73l13.33 7.35 23.42-12.93-13.63-4.57-23.13 10.15z" stroke-linejoin="bevel"/><path fill="none" stroke="#fff" d="M13.46 25.64l11.17 6.32 20.7-11.54-11.14-3.85-20.74 9.07z"/><path fill="url(#U)" fill-rule="evenodd" d="M28.43 19.8a4.8 4.8 0 1 1-9.57 0 4.8 4.8 0 1 1 9.57 0z" transform="matrix(.524 0 0 .523 20.479 13.966)" overflow="visible" enable-background="accumulate"/><path fill="url(#V)" fill-rule="evenodd" d="M28.43 19.8a4.8 4.8 0 1 1-9.57 0 4.8 4.8 0 1 1 9.57 0z" transform="matrix(.524 0 0 .523 19.865 9.981)" overflow="visible" enable-background="accumulate"/><path fill="url(#W)" fill-rule="evenodd" d="M28.43 19.8a4.8 4.8 0 1 1-9.57 0 4.8 4.8 0 1 1 9.57 0z" transform="matrix(.524 0 0 .523 17.615 5.792)" overflow="visible" enable-background="accumulate"/><path fill="url(#X)" fill-rule="evenodd" d="M28.43 19.8a4.8 4.8 0 1 1-9.57 0 4.8 4.8 0 1 1 9.57 0z" transform="matrix(.524 0 0 .523 17.819 8.55)" overflow="visible" enable-background="accumulate"/><path fill="url(#Y)" fill-rule="evenodd" d="M28.43 19.8a4.8 4.8 0 1 1-9.57 0 4.8 4.8 0 1 1 9.57 0z" transform="matrix(.524 0 0 .523 14.24 8.55)" overflow="visible" enable-background="accumulate"/><path fill="url(#Z)" fill-rule="evenodd" d="M28.43 19.8a4.8 4.8 0 1 1-9.57 0 4.8 4.8 0 1 1 9.57 0z" transform="matrix(.524 0 0 .523 7.387 6.507)" overflow="visible" enable-background="accumulate"/><path fill="url(#aa)" fill-rule="evenodd" d="M28.43 19.8a4.8 4.8 0 1 1-9.57 0 4.8 4.8 0 1 1 9.57 0z" transform="matrix(.524 0 0 .523 10.047 10.083)" overflow="visible" enable-background="accumulate"/><path fill="url(#ab)" fill-rule="evenodd" d="M28.43 19.8a4.8 4.8 0 1 1-9.57 0 4.8 4.8 0 1 1 9.57 0z" transform="matrix(.524 0 0 .523 14.035 11.003)" overflow="visible" enable-background="accumulate"/><path fill="url(#ac)" fill-rule="evenodd" d="M28.43 19.8a4.8 4.8 0 1 1-9.57 0 4.8 4.8 0 1 1 9.57 0z" transform="matrix(.524 0 0 .523 17.513 13.353)" overflow="visible" enable-background="accumulate"/><path fill="url(#ad)" fill-rule="evenodd" d="M28.43 19.8a4.8 4.8 0 1 1-9.57 0 4.8 4.8 0 1 1 9.57 0z" transform="matrix(.524 0 0 .523 13.626 15.601)" overflow="visible" enable-background="accumulate"/><path fill="url(#ae)" fill-rule="evenodd" d="M28.43 19.8a4.8 4.8 0 1 1-9.57 0 4.8 4.8 0 1 1 9.57 0z" transform="matrix(.524 0 0 .523 8.103 16.725)" overflow="visible" enable-background="accumulate"/><path fill="url(#af)" fill-rule="evenodd" d="M28.43 19.8a4.8 4.8 0 1 1-9.57 0 4.8 4.8 0 1 1 9.57 0z" transform="matrix(.524 0 0 .523 7.797 13.353)" overflow="visible" enable-background="accumulate"/><path fill="url(#ag)" fill-rule="evenodd" d="M28.43 19.8a4.8 4.8 0 1 1-9.57 0 4.8 4.8 0 1 1 9.57 0z" transform="matrix(.524 0 0 .523 12.535 17.627)" overflow="visible" enable-background="accumulate"/><path fill="url(#ah)" fill-rule="evenodd" d="M28.43 19.8a4.8 4.8 0 1 1-9.57 0 4.8 4.8 0 1 1 9.57 0z" transform="matrix(.524 0 0 .523 6.337 18.078)" overflow="visible" enable-background="accumulate"/><path fill="url(#ai)" fill-rule="evenodd" d="M28.43 19.8a4.8 4.8 0 1 1-9.57 0 4.8 4.8 0 1 1 9.57 0z" transform="matrix(.524 0 0 .523 15.352 14.133)" overflow="visible" enable-background="accumulate"/><path fill="url(#aj)" fill-rule="evenodd" d="M28.43 19.8a4.8 4.8 0 1 1-9.57 0 4.8 4.8 0 1 1 9.57 0z" transform="matrix(.524 0 0 .523 9.916 4.627)" overflow="visible" enable-background="accumulate"/><path fill="url(#ak)" fill-rule="evenodd" d="M28.43 19.8a4.8 4.8 0 1 1-9.57 0 4.8 4.8 0 1 1 9.57 0z" transform="matrix(.524 0 0 .523 13.192 5.264)" overflow="visible" enable-background="accumulate"/><path fill="url(#al)" fill-rule="evenodd" d="M28.43 19.8a4.8 4.8 0 1 1-9.57 0 4.8 4.8 0 1 1 9.57 0z" transform="matrix(.524 0 0 .523 15.601 3.261)" overflow="visible" enable-background="accumulate"/><path fill="url(#am)" fill-rule="evenodd" d="M28.43 19.8a4.8 4.8 0 1 1-9.57 0 4.8 4.8 0 1 1 9.57 0z" transform="matrix(.524 0 0 .523 13.131 2.343)" overflow="visible" enable-background="accumulate"/><path fill="url(#an)" fill-rule="evenodd" d="M28.43 19.8a4.8 4.8 0 1 1-9.57 0 4.8 4.8 0 1 1 9.57 0z" transform="matrix(.524 0 0 .523 8.005 .712)" overflow="visible" enable-background="accumulate"/><path fill="url(#ao)" fill-rule="evenodd" d="M28.43 19.8a4.8 4.8 0 1 1-9.57 0 4.8 4.8 0 1 1 9.57 0z" transform="matrix(.524 0 0 .523 10.823 .712)" overflow="visible" enable-background="accumulate"/><path fill="url(#ap)" fill-rule="evenodd" d="M28.43 19.8a4.8 4.8 0 1 1-9.57 0 4.8 4.8 0 1 1 9.57 0z" transform="matrix(.524 0 0 .523 10.353 8.04)" overflow="visible" enable-background="accumulate"/><path fill="url(#aq)" fill-rule="evenodd" d="M28.43 19.8a4.8 4.8 0 1 1-9.57 0 4.8 4.8 0 1 1 9.57 0z" transform="matrix(.524 0 0 .523 10.967 13.966)" overflow="visible" enable-background="accumulate"/><path fill="url(#ar)" fill-rule="evenodd" d="M28.43 19.8a4.8 4.8 0 1 1-9.57 0 4.8 4.8 0 1 1 9.57 0z" transform="matrix(.524 0 0 .523 6.045 3.807)" overflow="visible" enable-background="accumulate"/><path fill="url(#as)" fill-rule="evenodd" d="M28.43 19.8a4.8 4.8 0 1 1-9.57 0 4.8 4.8 0 1 1 9.57 0z" transform="matrix(.524 0 0 .523 6.262 10.696)" overflow="visible" enable-background="accumulate"/><path fill="url(#at)" fill-rule="evenodd" d="M28.43 19.8a4.8 4.8 0 1 1-9.57 0 4.8 4.8 0 1 1 9.57 0z" transform="matrix(.524 0 0 .523 4.319 14.783)" overflow="visible" enable-background="accumulate"/><path fill="url(#au)" fill-rule="evenodd" d="M28.43 19.8a4.8 4.8 0 1 1-9.57 0 4.8 4.8 0 1 1 9.57 0z" transform="matrix(.524 0 0 .523 3.492 16.464)" overflow="visible" enable-background="accumulate"/><path fill="url(#av)" fill-rule="evenodd" d="M28.43 19.8a4.8 4.8 0 1 1-9.57 0 4.8 4.8 0 1 1 9.57 0z" transform="matrix(.524 0 0 .523 4.701 8.614)" overflow="visible" enable-background="accumulate"/><path fill="url(#aw)" fill-rule="evenodd" d="M28.43 19.8a4.8 4.8 0 1 1-9.57 0 4.8 4.8 0 1 1 9.57 0z" transform="matrix(.524 0 0 .523 3.288 12.332)" overflow="visible" enable-background="accumulate"/></g></svg>