<svg xmlns="http://www.w3.org/2000/svg" width="48" height="48" xmlns:xlink="http://www.w3.org/1999/xlink"><defs><linearGradient id="a"><stop offset="0" stop-color="#fff"/><stop offset="1" stop-color="#fff" stop-opacity="0"/></linearGradient><linearGradient id="i" x1="240.074" x2="245.827" y1="-393.407" y2="-388.55" xlink:href="#a" gradientUnits="userSpaceOnUse"/><linearGradient id="b"><stop offset="0" stop-color="#fff"/><stop offset="1" stop-color="#fff" stop-opacity="0"/></linearGradient><linearGradient id="h" x1="246.74" x2="252.698" y1="-391.314" y2="-385.352" xlink:href="#b" gradientUnits="userSpaceOnUse"/><linearGradient id="c"><stop offset="0" stop-color="#fff"/><stop offset="1" stop-color="#fff" stop-opacity="0"/></linearGradient><linearGradient id="j" x1="230.876" x2="235.257" y1="-390.44" y2="-386.959" xlink:href="#c" gradientUnits="userSpaceOnUse"/><linearGradient id="d"><stop offset="0" stop-color="#fff"/><stop offset="1" stop-color="#fff" stop-opacity="0"/></linearGradient><linearGradient id="k" x1="238.005" x2="245.655" y1="-388.475" y2="-382.645" xlink:href="#d" gradientUnits="userSpaceOnUse"/><linearGradient id="e"><stop offset="0" stop-color="#fff"/><stop offset="1" stop-color="#fff" stop-opacity="0"/></linearGradient><linearGradient x1="286.666" x2="289.766" y1="-439.484" y2="-436.707" xlink:href="#e" gradientUnits="userSpaceOnUse"/><radialGradient cx="17.95" cy="175.731" r="12.523" gradientUnits="userSpaceOnUse" fy="175.731" fx="17.95"><stop offset="0" stop-color="#fff"/><stop offset="1" stop-color="#F5D9D9"/></radialGradient><radialGradient cx="22.811" cy="169.34" r="14.467" gradientUnits="userSpaceOnUse" fy="169.34" fx="22.811"><stop offset="0" stop-color="#fff"/><stop offset="1" stop-color="#F5D9D9"/></radialGradient><radialGradient cx="20.141" cy="171.534" r="10.533" gradientUnits="userSpaceOnUse" fy="171.534" fx="20.141"><stop offset="0" stop-color="#fff"/><stop offset="1" stop-color="#F5D9D9"/></radialGradient><radialGradient cx="18.676" cy="170.998" r="12.647" gradientUnits="userSpaceOnUse" fy="170.998" fx="18.676"><stop offset="0" stop-color="#fff"/><stop offset="1" stop-color="#F5D9D9"/></radialGradient><radialGradient cx="12.774" cy="172.564" r="9.904" gradientUnits="userSpaceOnUse" fy="172.564" fx="12.774"><stop offset="0" stop-color="#fff"/><stop offset="1" stop-color="#F5D9D9"/></radialGradient><radialGradient cx="21.608" cy="172.17" r="3.835" gradientUnits="userSpaceOnUse" fy="172.17" fx="21.608"><stop offset="0" stop-color="#fff"/><stop offset="1" stop-color="#F5D9D9"/></radialGradient><radialGradient cx="20.26" cy="172.94" r="6.674" gradientUnits="userSpaceOnUse" fy="172.94" fx="20.26"><stop offset="0" stop-color="#fff"/><stop offset="1" stop-color="#F5D9D9"/></radialGradient><radialGradient cx="19.875" cy="178.137" r="6.273" gradientUnits="userSpaceOnUse" fy="178.137" fx="19.875"><stop offset="0" stop-color="#fff"/><stop offset="1" stop-color="#F5D9D9"/></radialGradient><radialGradient cx="8.127" cy="179.328" r="6.328" gradientUnits="userSpaceOnUse" fy="179.328" fx="8.127"><stop offset=".006" stop-color="#F5CDCD"/><stop offset="1" stop-color="#F4B1B3"/></radialGradient><radialGradient cx="21.108" cy="170.255" r="11.345" gradientUnits="userSpaceOnUse" fy="170.255" fx="21.108"><stop offset=".006" stop-color="#F5CDCD"/><stop offset="1" stop-color="#F4B1B3"/></radialGradient><linearGradient x1="30.721" x2="30.361" y1="191.532" y2="189.013" gradientUnits="userSpaceOnUse"><stop offset="0" stop-color="#F79899"/><stop offset=".285" stop-color="#F29596"/><stop offset=".596" stop-color="#E08B8B"/><stop offset=".918" stop-color="#C77B7C"/><stop offset="1" stop-color="#BF7777"/></linearGradient><linearGradient x1="25.98" x2="27.6" y1="195.272" y2="191.762" gradientUnits="userSpaceOnUse"><stop offset="0" stop-color="#F79899"/><stop offset=".387" stop-color="#F29596"/><stop offset=".809" stop-color="#E28C8C"/><stop offset="1" stop-color="#D88686"/></linearGradient><linearGradient x1="6.26" x2="15.438" y1="165.928" y2="170.234" gradientUnits="userSpaceOnUse"><stop offset="0" stop-color="#F79899"/><stop offset=".387" stop-color="#F29596"/><stop offset=".809" stop-color="#E28C8C"/><stop offset="1" stop-color="#D88686"/></linearGradient><radialGradient id="f" cx="20.836" cy="192.154" r="25.122" gradientUnits="userSpaceOnUse" fy="192.154" fx="20.836"><stop offset="0" stop-opacity=".804"/><stop offset="1" stop-opacity="0"/></radialGradient><radialGradient id="g" cx="26.126" cy="32.449" r="22.073" xlink:href="#f" fx="26.126" fy="32.449" gradientTransform="matrix(1 0 0 .62 0 12.318)" gradientUnits="userSpaceOnUse"/><linearGradient id="l" x1="240.074" x2="245.827" y1="-393.407" y2="-388.55" xlink:href="#a" gradientUnits="userSpaceOnUse"/><linearGradient id="m" x1="246.74" x2="252.698" y1="-391.314" y2="-385.352" xlink:href="#b" gradientUnits="userSpaceOnUse"/><linearGradient id="n" x1="230.876" x2="235.257" y1="-390.44" y2="-386.959" xlink:href="#c" gradientUnits="userSpaceOnUse"/><linearGradient id="o" x1="238.005" x2="245.655" y1="-388.475" y2="-382.645" xlink:href="#d" gradientUnits="userSpaceOnUse"/><linearGradient id="p" x1="240.074" x2="245.827" y1="-393.407" y2="-388.55" xlink:href="#a" gradientUnits="userSpaceOnUse"/><linearGradient id="q" x1="246.74" x2="252.698" y1="-391.314" y2="-385.352" xlink:href="#b" gradientUnits="userSpaceOnUse"/><linearGradient id="r" x1="230.876" x2="235.257" y1="-390.44" y2="-386.959" xlink:href="#c" gradientUnits="userSpaceOnUse"/><linearGradient id="s" x1="238.005" x2="245.655" y1="-388.475" y2="-382.645" xlink:href="#d" gradientUnits="userSpaceOnUse"/><linearGradient id="t" x1="240.074" x2="245.827" y1="-393.407" y2="-388.55" xlink:href="#a" gradientUnits="userSpaceOnUse"/><linearGradient id="u" x1="246.74" x2="252.698" y1="-391.314" y2="-385.352" xlink:href="#b" gradientUnits="userSpaceOnUse"/><linearGradient id="v" x1="230.876" x2="235.257" y1="-390.44" y2="-386.959" xlink:href="#c" gradientUnits="userSpaceOnUse"/><linearGradient id="w" x1="238.005" x2="245.655" y1="-388.475" y2="-382.645" xlink:href="#d" gradientUnits="userSpaceOnUse"/></defs><g><path fill="url(#g)" d="M7.9 30.22c-.83.08-1.7 1.14-2.12 1.8-.18.27-.54.6-.63.9-.14.44.1.85.14 1.28-1.26.35-1.5 2.18-1 3.23.18.4.27.54.4.93.16.53.34.94.7 1.4.38.48.6.55 1.14.8.74.3.98.9 1.57 1.37 1.06.8 2.9 1 4.2.86.5-.07 1.18-.52 1.65-.46.8.1.36.82.66 1.3.36.54 1.45.8 2.02 1 .48.2.97.35 1.44.55.5.2.98.57 1.5.67.96.18 2.12.06 3.1.06 1.25 0 2.98.46 4.13.02.75-.3 1.34-.7 2.2-.83.83-.13 1.4.08 2.2.22 1.8.3 3.25-.42 4.8-1.1.95-.4 1.84-.88 2.8-1.3 1.12-.46 2.32-.78 3.28-1.6.7-.6 1.64-1.47 2.12-2.27.62-1.03 1.45-2 1.83-3.16.46-1.42 1.2-2.6 1.27-4.16.04-.82-.04-1.3.37-1.98.52-.9.7-1.75.35-2.8-.4-1.2-1.4-2.23-2.38-2.95-.68-.48-1.55-.7-2.33-1.04-.87-.36-1.3-.8-2.04-1.33-.76-.55-1.64-.53-2.53-.68-1.2-.2-2.33-.78-3.52-1.06-3.23-.78-6.48-1.23-9.82-1.13-1.5.04-2.88.07-4.27.7-1.43.62-2.84 1.34-4.28 1.98-1.76.77-2.47 1.72-3.67 3.07-.73.83-1.52 1.58-2.24 2.45-.68.85-2.65 1.86-2.8 3.05"/><path fill="#d3d7cf" stroke="#2e3436" d="M20.68 7.63c.88-.56 2.04-.55 2.23-.77.2-.2 1.18-1.48 1.47-1.72.3-.24 1.44-.1 1.8-.32.38-.2.54-.8.86-.88.32-.08 1.7.24 2.28.13.6-.1.33-.32.65-.4.32-.07 2.8.1 3.32.22.5.1 1.3.5 1.57.5.26 0 .74 0 1.22.13s3.66 1.7 4.2 2c.53.28 1.83 1.7 2.33 2.3.58.18 1.72.72 2.04.9.32.2 1.57 1.5 1.75 1.94.18.45.1 1 .3 1.4.22.4.35.67.4 1 .06.3.06 1.64.2 1.93.13.3.37.85.37 1.75s-.3 2.26-.43 2.98c-.13.7-.74 1.9-.74 2.17s-.08.64-.24.85c-.16.2-.2-.02-.37.6-.17.6-.73 1.4-.76 1.58-.02.2-.05.45-.16.58-.1.15-.5.15-.5.4 0 .22.37.5.42.68.06.18.14.47.08.66-.05.2-.8 1.36-1.16 1.97-.38.62-1.33 1.76-1.4 2.02-.04.27.12.4.12.8s.05 1.52-.08 1.86c-.13.35-2.58 3.03-3.05 3.16-.47.13-3.1-.37-3.6-.26-.5.1-2.37.66-3.03 1.14-.67.47-1.76 1.1-2.2 1.17-.46.04-1.28 0-1.52-.1-.48-.1-.72-.3-1.3-.82-.6-.5-1.2-1.06-1.4-1.2-.22-.12-.6-1-1-1.13-.4-.14-1.85-.56-2.25-.72-.4-.16-.7-.4-.7-.4-1.23.2-2.8.23-3.67.1-.88-.1-2.17-.98-2.38-.95-.2.03-.97-.1-2.26-.48-1.3-.4-2.42-.84-2.84-1.54-.42-.7-.48-1.47-.5-1.7-.04-.25-.28-.83-.1-2.2.06-.37-.24-.82-.24-1.37 0-.55-.12-1.64.42-3.4 1.35-4.47 2.17-4.98 2.2-5.43.03-.45-.06-.85.8-3.32.88-2.47 1.58-1.92 1.97-2.53.4-.6 1.06-1.9 1.75-2.68.7-.78 1.48-.9 1.84-1.3.35-.38.6-.88 1.28-1.3z" color="#000" overflow="visible" enable-background="accumulate"/><path fill="#888a85" d="M38.57 32.93a7.07 7.07 0 1 1-14.14 0 7.07 7.07 0 1 1 14.14 0z"/><path fill="#d3d7cf" stroke="#f57e80" stroke-width=".5" d="M11.5 33.17c-.1-.1-.18-.2-.24-.3-.42-.7-.48-1.48-.5-1.72-.04-.24-.3-.8-.1-2.2.06-.36-.25-.8-.25-1.36 0-.55-.1-1.64.44-3.4 1.35-4.47 2.17-4.98 2.2-5.43.02-.45-.07-.84.8-3.3.88-2.48 1.57-1.94 1.97-2.54.4-.6 1.06-1.9 1.75-2.68.7-.8 1.48-.9 1.84-1.3.35-.4.6-.9 1.28-1.32.88-.56 2.04-.55 2.23-.77.2-.2 1.18-1.48 1.47-1.72.3-.24 1.44-.1 1.8-.32.38-.2.54-.8.86-.88.32-.08 1.7.24 2.28.13h-.03c-.5-.04-.83-.13-1.05-.35-.25-.24-.16-.4-2.44-.86-2.27-.46-4.9-.75-8.38.57-3.47 1.33-3.5 1.86-3.88 2.07-.37.2-3.1 1.6-3.76 2.23-.66.62-1 .78-1.2 1.07-.2.3-.32.75-.7 1-.37.24-2.47 2.3-3.13 3.34-.67 1.03-.87 1.57-1.16 2.02-.3.46-1.36 1.65-1.94 2.73-.58 1.06-1.16 2.6-1.16 3 0 .4.54 1.32.54 1.57s-.7.8-.73 1.12c-.04.32.08 1.22.16 1.93.08.7.04 1.15.2 1.48.17.34.63.5.7.8.1.3.34 1 .75 1.36.42.37.8.5 1.2.9.4.42 1.2 1.12 1.78 1.3.57.15 1.48 0 1.85.24.4.24 1.67 1.52 2.3 1.73.6.2 1.92-.12 2.3-.16z"/><path fill="#888a85" d="M32.14 15.93a7.07 7.07 0 1 1-14.14 0 7.07 7.07 0 1 1 14.14 0z"/><g><path fill="#888a85" d="M26 9.1a5.98 5.98 0 1 1-11.97 0A5.98 5.98 0 1 1 26 9.1z"/><path fill="url(#h)" d="M257.25-385.8a6.03 6.03 0 1 1-12.06 0 6.03 6.03 0 1 1 12.05 0z" transform="matrix(.992 0 0 .992 -229.197 391.763)" opacity=".494"/></g><path fill="#888a85" d="M35.57 25.07a7.07 7.07 0 1 1-14.14 0 7.07 7.07 0 1 1 14.14 0z"/><g><path fill="#888a85" d="M19.92 11.85a5.98 6 0 1 1-11.97 0 5.98 6 0 1 1 11.97 0z"/><path fill="url(#i)" d="M250.18-389.3a6.23 6.23 0 1 1-12.46 0 6.23 6.23 0 1 1 12.46 0z" transform="matrix(.961 0 0 .961 -220.262 385.924)" opacity=".494"/></g><g><path fill="#888a85" d="M14.9 15.37a5.44 5.44 0 1 1-10.87 0 5.44 5.44 0 1 1 10.87 0z"/><path fill="url(#j)" d="M237.8-387.9a4.38 4.38 0 1 1-8.74 0 4.38 4.38 0 1 1 8.75 0z" transform="matrix(1.244 0 0 1.244 -280.694 497.817)" opacity=".494"/></g><g><path fill="#888a85" d="M24.2 20.55a7.62 7.62 0 1 1-15.22 0 7.62 7.62 0 1 1 15.23 0z"/><path fill="url(#k)" d="M248.55-383.67a6.74 6.74 0 1 1-13.48 0 6.74 6.74 0 1 1 13.48 0z" transform="matrix(1.13 0 0 1.13 -256.646 454.027)" opacity=".494"/></g><g><path fill="#888a85" d="M12.92 25.28a5.98 6 0 1 1-11.97 0 5.98 6 0 1 1 11.97 0z"/><path fill="url(#l)" d="M250.18-389.3a6.23 6.23 0 1 1-12.46 0 6.23 6.23 0 1 1 12.46 0z" transform="matrix(.961 0 0 .961 -227.262 399.353)" opacity=".494"/></g><g><path fill="#888a85" d="M18 27.54a5.98 5.98 0 1 1-11.97 0 5.98 5.98 0 1 1 11.97 0z"/><path fill="url(#m)" d="M257.25-385.8a6.03 6.03 0 1 1-12.06 0 6.03 6.03 0 1 1 12.05 0z" transform="matrix(.992 0 0 .992 -237.197 410.191)" opacity=".494"/></g><g><path fill="#888a85" d="M11.9 20.37a5.44 5.44 0 1 1-10.87 0 5.44 5.44 0 1 1 10.87 0z"/><path fill="url(#n)" d="M237.8-387.9a4.38 4.38 0 1 1-8.74 0 4.38 4.38 0 1 1 8.75 0z" transform="matrix(1.244 0 0 1.244 -283.694 502.817)" opacity=".494"/></g><g><path fill="#888a85" d="M27.2 27.98a7.62 7.62 0 1 1-15.22 0 7.62 7.62 0 1 1 15.23 0z"/><path fill="url(#o)" d="M248.55-383.67a6.74 6.74 0 1 1-13.48 0 6.74 6.74 0 1 1 13.48 0z" transform="matrix(1.13 0 0 1.13 -253.646 461.456)" opacity=".494"/></g><path fill="#888a85" d="M47.14 20.35a7.07 7.07 0 1 1-14.14 0 7.07 7.07 0 1 1 14.14 0z"/><g><path fill="#888a85" d="M42.92 11.85a5.98 6 0 1 1-11.97 0 5.98 6 0 1 1 11.97 0z"/><path fill="url(#p)" d="M250.18-389.3a6.23 6.23 0 1 1-12.46 0 6.23 6.23 0 1 1 12.46 0z" transform="matrix(.961 0 0 .961 -197.262 385.924)" opacity=".494"/></g><g><path fill="#888a85" d="M47 15.1a5.98 5.98 0 1 1-11.97 0 5.98 5.98 0 1 1 11.97 0z"/><path fill="url(#q)" d="M257.25-385.8a6.03 6.03 0 1 1-12.06 0 6.03 6.03 0 1 1 12.05 0z" transform="matrix(.992 0 0 .992 -208.197 397.763)" opacity=".494"/></g><g><path fill="#888a85" d="M36.9 8.94a5.44 5.44 0 1 1-10.87 0 5.44 5.44 0 1 1 10.87 0z"/><path fill="url(#r)" d="M237.8-387.9a4.38 4.38 0 1 1-8.74 0 4.38 4.38 0 1 1 8.75 0z" transform="matrix(1.244 0 0 1.244 -258.694 491.389)" opacity=".494"/></g><g><path fill="#888a85" d="M37.2 19.55a7.62 7.62 0 1 1-15.22 0 7.62 7.62 0 1 1 15.23 0z"/><path fill="url(#s)" d="M248.55-383.67a6.74 6.74 0 1 1-13.48 0 6.74 6.74 0 1 1 13.48 0z" transform="matrix(1.13 0 0 1.13 -243.646 453.027)" opacity=".494"/></g><path fill="#888a85" d="M44.14 26.36a7.07 7.07 0 1 1-14.14 0 7.07 7.07 0 1 1 14.14 0z"/><g><path fill="#888a85" d="M31.35 30.28a5.98 6 0 1 1-11.97 0 5.98 6 0 1 1 11.97 0z"/><path fill="url(#t)" d="M250.18-389.3a6.23 6.23 0 1 1-12.46 0 6.23 6.23 0 1 1 12.46 0z" transform="matrix(.961 0 0 .961 -208.833 404.353)" opacity=".494"/></g><g><path fill="#888a85" d="M43 32.1a5.98 5.98 0 1 1-11.97 0 5.98 5.98 0 1 1 11.97 0z"/><path fill="url(#u)" d="M257.25-385.8a6.03 6.03 0 1 1-12.06 0 6.03 6.03 0 1 1 12.05 0z" transform="matrix(.992 0 0 .992 -212.197 414.763)" opacity=".494"/></g><g><path fill="#888a85" d="M30.26 8.48a5.44 5.44 0 1 1-10.88 0 5.44 5.44 0 1 1 10.88 0z"/><path fill="url(#v)" d="M237.8-387.9a4.38 4.38 0 1 1-8.74 0 4.38 4.38 0 1 1 8.75 0z" transform="matrix(1.244 0 0 1.244 -265.337 490.933)" opacity=".494"/></g><g><path fill="#888a85" d="M40.2 22.55a7.62 7.62 0 1 1-15.22 0 7.62 7.62 0 1 1 15.23 0z"/><path fill="url(#w)" d="M248.55-383.67a6.74 6.74 0 1 1-13.48 0 6.74 6.74 0 1 1 13.48 0z" transform="matrix(1.13 0 0 1.13 -240.646 456.027)" opacity=".494"/></g><path fill="none" stroke="#555753" stroke-width=".5" d="M22.4 35.73c.8-.12 1.6-.3 2.46-.44.85-.16 2.95-.07 5.05-1.05.95-.44 1.94-1.76 4.15-2.85.84-.42 3.1-2.3 3.93-2.7.83-.38 2.67-1.4 3.1-1.73.44-.32.98-1.4 1.44-1.98.45-.6 3.14-1.7 3.34-1.73.2-.04.16.37.16.72"/><path fill="none" stroke="#555753" stroke-width=".5" d="M34.7 4.4c.28.13.95.47 1.85 1.1.9.6 2.4 2.03 2.55 2.2.15.17 1.35 2.8 1.93 3.7.58.9 2.6 4.23 2.72 4.57.13.35.37 1.33.4 1.76.05.43-.14 2.44-.25 2.85-.1.4-.64 1.87-.8 2.32-.2.45-.57 1.78-.76 2.08"/><path fill="#555753" d="M25.1 26.9c-.46-.23-2.1-3.64-3.17-4.64-1.1-1-1.92-2-4.9-2.5-2.97-.52-3.04-.48-3.44-.7-.42-.25-.56-.3-.6-.16 0 .12-.14.38-.22.46-.06.24.2.07.62.1.42.05 1.5.63 2.2.76.7.12 3.1.5 3.7.9.63.37 2.6 1.7 3.16 2.42.55.72 1.02 1.83 1.2 2.14.2.32.74 1.1 1 1.17.25.1.74.2.44.05z"/><path fill="#555753" d="M17.15 14.25c.45-.38 4.52-.86 5.6.36 1.08 1.23 1.83 3.78 2.55 5.1.72 1.3 1.17 2.46 2.08 3.6.92 1.13 1.67 2.07 1.64 2.74-.03.67-1 3.27-1.05 3.6-.06.34-.6.64-.75.5-.17-.14-2.56-1.4-3.25-1.4-.7 0-2.94.2-3.44-.07s-2.08-1.16-2.47-1.72c-.4-.55-.4-1.38-1.64-1.27-1.24.1-3.46.55-3.88.75-.42.2-.67-.2-.3-.4.36-.2 3.18-.5 3.6-.7.42-.23 1.5-.32 1.67-.12.17.2.5 1.34.92 1.67.42.33 1.36.94 2.3 1.14.95.2 2.64.12 3.17.2.5.1 2.82 1.25 3.18 1.23.36-.03 1.63-2.72 1.52-3.36-.1-.64-1.86-2.83-2.66-4.27-1.58-2.86-2.47-5.7-2.83-6.1-.35-.42-.68-1.23-2.18-1.36-1.5-.14-3.1.05-3.55.27-.45.23-.53-.1-.22-.35z"/><path fill="#555753" d="M22.46 7c.68.06 1.6.6 2.13.85.53.26 1.43.8 1.86 1.23.44.44.3.68.1.95-.23.27-.35.86-.75 1.18-.4.33-1.68 1.16-2.1 1.7-.4.57-.73 1.58-1.24 1.5.22.08.48.47.48.47 0-.42.6-1.23.96-1.47.35-.23 1.27-1.3 1.48-1.57.22-.25.8-.62.9-.82.08-.2.3-.82.66-1.12.35-.3.4-.43-.17-.9-.58-.47-1.33-1.1-1.76-1.2-.4-.13-1.17-.54-1.52-.76-.36-.22-.3-.38-.3-.5-.12.22-.33.52-.72.5z"/><path fill="#555753" d="M15.6 13.17c.62-.3 1.26-.63 1.62-.73.35-.1 1.48-.45 1.75-.65.27-.22 1-.56 1.32-.57.3-.02 1.07.4 1.45.37.4-.02.66-.4.43-.4-.24 0-.36.16-.78.06-.42-.1-.84-.22-.67-.27.16-.06.82-.3.94-.46.12-.16.67-.6.67-.76-.25.22-.54.54-.75.64-.23.1-1.18.32-1.4.45-.25.14-1.36.8-1.67.88-.3.07-1.27.46-1.52.56-.24.1-.6.46-.7.35-.08-.12-.05-.44-.05-.44-.15.34-.65.97-.65.97z"/><path fill="#555753" d="M10.67 28.73c.18.3.38.68.64.78.26.1 2.27.92 3 1.02.75.1 2.3.45 2.52.6.22.17 1.26 1.48 1.17 1.6-.1.1-.45-.2-.68-.44-.23-.22-.47-.65-.85-.82-.38-.17-2.86-.67-3.56-.96-.68-.28-1.7-.76-1.84-.86-.12-.1-.44-.83-.44-.46 0-.2.05-.45.05-.45z"/><path fill="#555753" d="M27.84 14.66c-.12-.13-.33-.24-.72-.05-.4.2-.33.6-.2.8.1.2 1.67 3.23 1.67 3.86 0 .63-.63 2.2-.95 2.64-.33.44-.12.72-.1.77 0 .05.4-.74.56-.9.16-.18.83-1.48.83-1.7 0-.22-.14-1.3-.26-1.66-.1-.35-1.23-2.4-1.3-2.88-.06-.48.02-.53.13-.53.1 0 .35-.08.35-.15 0-.07 0-.2 0-.2z"/><path fill="#555753" d="M29.65 19c.33-.5 1.15-2.18 1.2-2.34.05-.15.22-2.2.4-2.36.2-.15.55.07.98.3.43.25 1.75.9 2.07 1 .32.07 1.95.55 2.24.64.3.08.5.48.62.65.12.16.82 1.5.92 1.7.1.18.26.56.05.7-.2.13-.42.4-.6.48-.2.07-.7.72-1.13.7-.4-.02-1.1-.02-1.47-.4-.37-.4-1.16-.37-1.16-.68 0-.3-.14-.43-.24-.4-.1.04-.5.55-.25.78.24.22 1.33.66 1.67.88.34.23.33.4.3.54 0 .13.2.42.4.22.17-.2.17-.36.05-.55-.12-.2-.48-.2-.42-.3.05-.13.58.1.94.1s.63-.35.85-.43c.22-.1.84-.14 1.1-.46.25-.33.44-.52.4-.8-.06-.26-.63-1.3-1.1-1.98-.45-.68-.74-.85-.74-1.12 0-.28.05-.7-.2-1.03-.23-.32-.26-.53-.23-.72.04-.2.1-.56 0-.68-.12-.12-.4-.14-.43-.02-.03.12.02.65.14.82.13.17.5.84.5 1.18 0 .35.06.5-.08.5-.13 0-1-.3-1.57-.52-.58-.2-2.22-.87-2.53-1-.3-.15-.8-.3-.77-.6.02-.32.48-1.14.97-1.46.5-.33.6-1.32.6-1.8s-.3-1.1-1.08-1.57c-.76-.48-2.56-1.64-3.12-2.02-.57-.37-.83-.53-.96-.7-.14-.17-.26-.38-.52-.33-.25.06.07.4.26.52.2.12 2.48 1.66 3.13 2.08.65.43 1.64 1.07 1.7 1.6.08.56.1 1.35-.26 1.8-.38.47-1.06 1.2-1.2 1.72-.14.5-.5 1.95-.77 2.73-.26.8-.94 2.24-.9 2.47.06.22.15.3.25.15z"/><path fill="#555753" d="M26.2 4.8c.26-.1.68-.06 1 .02.3.08 1.47.53 1.77.58.3.05 1.33.3 1.5.22.14-.1.14.18-.2.23-.35.06-1.02-.16-1.48-.27-.47-.12-1.58-.6-1.9-.6-.3 0-.8-.1-1.02-.07.14-.03.32-.1.32-.1z"/><path fill="#555753" d="M29.3 4.1c.28 0 1.53.4 1.82.5.28.12 1.63.83 2.03 1.14.4.3 1.55 1.9 1.82 2.16.26.25.65.8.87.72.22-.08.1-.15-.06-.4-.17-.25-1.3-1.44-1.65-1.83-.34-.4-.73-.8-1.1-1.02-.37-.2-1.8-.8-2.06-.94-.27-.13-1.48-.4-1.48-.4l-.2.06z"/><path fill="#555753" d="M37.1 12.23c.1-.05.36.43.54.58.2.16.95.87 1.25 1.13.3.26.52.7.6.9.1.18.34 1.2.36 1.45.02.26.17 2.53.23 2.9.04.34.04.7.14.95.1.27.37.56.4 1.3 0 .76.17 1.5.12 2.64-.06 1.14-.17 2.07-.23 2.42-.05.35-.05.57.06.57.1 0 .2.1.4-.03-.3.16-.56.35-.76.46-.04-.2.15-.54.15-.84 0-.3.02-1.53.08-2.26.06-.72.1-2.48 0-2.64-.1-.17-.06-.5-.1-.8-.03-.27-.5-.8-.48-1.07.02-.27-.15-1.78-.24-2.53-.1-.74-.15-2.3-.43-2.53-.28-.24-1.12-1.42-1.44-1.64-.32-.22-.6-.56-.66-.73-.05-.16-.13-.18-.04-.24z"/><path fill="#555753" d="M31.48 21.32c.15-.08.22.1.16.24-.06.14-.16.17-.25.26-.1.1-.2.4-.1.6.1.18.34.85.63 1.1.1.2.3.7.6.92.23.14.27.66.5.63.23-.03.96-.5 1.22-.64s.93-.4 1.22-.5c.3-.1.64-.4.95-.43.3-.03.7-.2.9-.32.2-.12.18.1 0 .18-.2.1-.9.32-1.13.5-.24.16-.76.42-.96.52-.2.1-.67.1-1.37.54-.7.44-.84.74-1 1.03-.17.3-.62.9-.72 1.42-.1.54-.05.8.1.92.13.1.3.64.42.8.12.15.42.23.5.13.1-.1.23.1.17.22-.07.1-.14.1-.35 0-.23-.1-.52-.14-.65-.48-.14-.33-.43-.7-.5-.9-.05-.2-.1-.62.02-.85.13-.23.86-1.34.95-1.56.1-.2-.05-.44-.24-.7-.2-.26-.46-.76-.66-.96-.2-.2-.44-.6-.6-.84-.15-.24-.26-.56-.27-.9-.02-.33-.12-.56.06-.65.2-.08.24.08.3-.05.06-.14.08-.23.08-.23z"/><path fill="#888a85" d="M35.36 27.7c.22-.1.5.13.5.18 0 .06-.2-.08-.25.1-.03.18-.16.38.14.56.3.18.22.15.36.37.14.24.04.12-.22 0-.27-.15-.64-.2-.7-.5-.03-.27-.1-.6.18-.7z"/><path fill="#888a85" d="M38.42 26.47c.1-.1.05-.3-.14-.4-.2-.1-.25-.2-.1-.23.12-.04.3.05.36 0 .06-.06-.47-.24-.75-.2-.28.02-.45-.2-.45-.1s.35.3.47.45c.13.14.47.6.6.47z"/><path fill="#555753" d="M20.53 33.03c.25-.04 1 .94 1.42 1.06.42.12.72.57 1.16.76.46.2 1.77.3 2.05.33-.3.1-1.02.23-1.02.23-.78-.24-1.84-.57-2.16-.8-.32-.24-.76-.92-1.06-1.04-.28-.14-.67-.12-.6-.44.08-.15.1-.1.23-.13z"/><path fill="#888a85" d="M27.4 30.62c.25-.14.3.25.12.38s-.5.3-.76 1c-.27.72-.3 1.35-.05 1.4.28.03.68.28.66.4-.02.15-.33-.12-.62-.2-.3-.1-.65-.52-.54-.9.1-.38.56-1.2.9-1.52.33-.34.15-.47.3-.56z"/><path fill="#555753" d="M32.97 31.96c-.34.07-1.4.3-1.85.1-.45-.2-1.35-.6-1.35-.52 0 .1.85.64 1 .67.17.03 1.08.16 1.15.23.07.07.02.3.02.3.34-.28 1.03-.77 1.03-.77z"/><path fill="#555753" d="M10.4 27.8c-.23.32-.54.83-.85.8-.3 0-.58-.2-.83-.2-.24-.02-1.62.05-1.97-.02-.34-.06-2.37-.56-2.8-.74-.42-.18-1.56-.3-1.5-.53.04-.22.24-.12.52-.03.28.08 1.13.5 1.48.57.34.08 1.7.43 2.15.43.45 0 1.9 0 2.1.03.22.03.68.15.8.02.1-.13.7-.48.76-.8.06-.3.13-.4.13-.4-.03.4 0 .87 0 .87z"/><path fill="#555753" d="M1.03 22.52c.26-.34.72-.7 1-.77.28-.08.92-.23 1.14 0 .2.23.44.84.6 1.04.14.2.5.12.6.22.1.1.9 1.05.9 1.22 0 .16-.16.5-.06.6.1.1.37-.08.42-.2.05-.1.08-.55 0-.67-.05-.1-.76-1.16-.92-1.2-.17-.03-.55-.03-.8-.33-.27-.3-.7-1.1-.9-1.1-.2 0-.52.15-.8.25-.25.1-.9.2-.96.2-.06-.03-.55-.3-.66-.46.18.25.45 1.18.45 1.18z"/><path fill="#555753" d="M1.77 18.8c.27-.27.56-.77.9-.93.3-.16 1-.84 1.3-.77.3.07.83.7 1.53.77.7.07 2.58.07 3.02.2.45.15 2.45 0 2.98-.2.54-.2.73.42.96.44.14.03-.33.32-.75.32-.4 0-1.2-.35-1.6-.3-.4.04-2.42-.22-2.8-.22-.36 0-2.04.07-2.76-.25-.72-.33-1.02-.2-1.46.07-.45.25-1.03.95-1.36 1.23-.32.28-.6.5-.6.35 0-.14.4-.44.65-.7z"/><path fill="#555753" d="M14.76 13.72c-.4-.4-1.67-1.16-1.93-2.1-.26-.97-.58-1.5-.46-2.13.1-.64-.17-.46-.35-.43-.2.02-.9.2-1.24.14-.32-.06-.5 0-.32.13.18.1.88.1 1.16.04.28-.07.33.07.35.44.02.4-.1 1.6.3 1.9.4.3.7 1.07 1.2 1.3.53.24.94.8.94.9 0 .13-.08.46-.08.52.26-.5.44-.7.44-.7z"/><path fill="#555753" d="M14.88 8.2c.02-.15.26-.3.35-.25.1.05.07.44.25.58.2.14 1 .87 1.26 1.07.26.2.66.6.8.54.13-.07.06.1.06.1-.14.1-.4.5-.4.5-.13-.37-.67-.6-.78-.76-.12-.16-.4-.56-.77-.84-.37-.28-.8-.7-.77-.93z"/><path fill="#555753" d="M21.35 7.3c-.14-.02-.74-.26-1.16-.58-.43-.33-1-.6-1.5-.6s-2.5-.1-2.96.04c-.46.14-.67.28-.8.44-.15.16.43-.2.75-.23.32-.05 2.07-.1 2.6-.03.54.07 1.28.14 1.75.56.46.42.63.73.63.73.23-.24.67-.33.67-.33z"/><path fill="#555753" d="M9.6 9.25c.06.05-.54.8-.47 1.03.07.23.63.95.95 1.16.33.2.5.68.47.86-.02.2-.28.9-.58.87-.3-.03-.24-.12-.07-.2.16-.1.37-.36.35-.74-.03-.37-.2-.58-.47-.8-.26-.2-.63-.78-.74-.9-.12-.1-.12-.25.1-.56.2-.3.45-.72.45-.72z"/><path fill="#555753" d="M5.6 13.4c.25-.16.46-.7 1.22-1.07.77-.37 1.2-.65 1.42-.63.2.02.68.07.63-.16-.05-.24-.16-.33-.14-.5.02-.2.02-.5.16-.5.13 0 .25-.28.02-.2-.24.1-.4.3-.4.47 0 .2.14.57 0 .6-.14.02-.5-.1-.74.07-.26.16-1.4.8-1.54.97-.14.17-.65.96-.65.96z"/><path fill="#555753" d="M27.03 3.94c.44-.07-2.54-.67-2.96-.74-.4-.07-4.22-.18-4.82 0-.6.17-1.7.58-2.14.76-.15.05.15.08.5.08.37 0 1.16.07 1.66.1.5 0 1.83.04 2.25.1.42.08 1.9.3 2.23.54.33.24.3.12.3.28 0 .15 0 .4-.03.48.18-.2.26-.36.44-.43.17-.06.34-.1.34-.1-.6-.25-1.2-.68-1.67-.72-.48-.03-2.3-.2-2.75-.22-.45-.02-2.67-.02-2.62-.14.05-.12.32-.22.74-.38.4-.15.9-.34 1.78-.34.86 0 3.67.12 4.17.2.5.1 1.93.4 1.98.54.05.14-.1.82-.2.87.24-.15.46-.5.56-.62.1-.12.13-.22.27-.24z"/><path fill="#f57e80" d="M13.57 5.5c.48-.1 1.17-.3 1.36-.4-.36.08-1 .24-.95.1.07-.1.18-.2.18-.2-.26.2-.6.5-.6.5z"/><path fill="#888a85" d="M42.96 17.9c.14-.14.34.27.4.42.04.15.05.66.14.88.08.22.24.8.26.97.02.16.1.5.14.37-.05.26-.16.6-.16.6-.06-.4-.17-.8-.2-1.03-.04-.23-.14-.5-.25-.96-.1-.46-.2-.92-.33-.97-.1-.04-.1-.2 0-.28z"/><path fill="#555753" d="M40.72 12.4c0-.23-.56.34-.56.5 0 .15.12.33.28.1.15-.23.28-.48.28-.6z"/><path fill="#555753" d="M43.2 9.3c-.13-.1-.37-.1-.35.02.02.1.3.74.7 1.08.42.33.75 1.4.77 1.6.02.18.15 2.1.32 2.32.16.22.66 1.22.8 1.47.16.23.57 1.57.68 1.8.1.2.15.8.28 1.8.13 1.03.37 1.2.46 1.1.1-.1 0-.05-.16-.55-.15-.5-.2-1.43-.26-1.9-.06-.5-.58-1.8-.82-2.24-.24-.44-.48-.9-.54-1.46-.05-.56-.33-1.5-.5-2.14-.17-.65-.54-1.45-.7-1.63-.14-.2-.7-.75-.7-.9 0-.18.02-.37.02-.37z"/><path fill="#888a85" d="M45.32 10.97c.22-.02.5.36.4.4-.1.03-.14.16-.04.37.1.2.44 1.05.63 1.26.2.2.62.76.7.78.07.02.1.46.1.54 0 .07.06.46-.18.15-.24-.32-.48-.75-.6-1.02-.1-.28-.4-.97-.55-1.27-.15-.3-.26-.67-.28-.83-.03-.17-.33-.36-.18-.38z"/><path fill="#888a85" d="M46.5 23.2c-.17-.2-.3-.35-.66-.15-.35.2-1.1.24-1.24.4-.15.18-.7.66-.82.72.56-.28 2.03-1 2.14-.9.1.12.13.66.13.66.2-.1.44-.73.44-.73z"/><path fill="#888a85" d="M42.12 33.2c.12-.08.32.17.25.28-.07.1-.07.15-.63.3-.55.17-1.27.78-1.42.98-.14.2-.68.1-.93.44-.26.37-.7 1.08-.82 1.23-.1.14-1.02.64-1.3.8-.26.17-.8.5-.92.5-.13-.03-.6.04-.6.04.6-.36 1.48-.73 1.64-.86.16-.1.4-.2.8-.6.37-.4.74-1.06.98-1.2.23-.14.75-.18.88-.4.12-.2.7-.84 1.06-.98.35-.15.68-.13.77-.24.07-.1.22-.27.22-.27z"/><path fill="#888a85" d="M37.66 34.6c.26-.1.9-.2.9-.08-.03.1-.4.54-.8.64-.38.1-.58.22-.8.38-.2.17-.65.12-1.04.2-.4.1-.07-.26.14-.3.2 0 .48 0 .66-.17.18-.18.64-.53.94-.66z"/><path fill="#555753" d="M40.08 31c-.18.27-.6.8-.84.93-.26.14-1.35.82-1.74.98-.4.17-1 .4-1.2.68-.2.27-.6.57-.86.78-.28.2-.85.38-1.2.68-.33.3-.97.92-.86 1 .1.1.64-.47.9-.6.24-.15.98-.35 1.07-.47.1-.1.43-.6.87-.9.43-.33 1.16-.7 1.6-.97.43-.28 1.64-1.03 1.83-1.26.18-.23.43-.85.43-.85z"/><path fill="#888a85" d="M44.52 27.06c0 .16-.16.84-.16 1.05 0 .22.2-.06.25-.33.06-.28-.08-.7-.08-.7z"/><path fill="#888a85" d="M43.8 25.92c.15-.2.4 0 .22.16-.2.16-.5.45-.5.75s-.17 1.07-.2 1.37c0 .3.03.83-.27 1-.3.2-.5-.1-.6.12-.13.23-.5.37-.8 1.42-.13.37-.3.4-.38.28-.1-.12-.18-.46-.4-.35-.2.12-.38.25-.54.4.16-.4.53-.72.64-.7.12.03.28.37.4.2.1-.2.4-.93.63-1.13.23-.2.64-.2.83-.44.18-.23.36-.52.43-1.2.07-.65.1-1.25.23-1.43.13-.18.3-.45.3-.45z"/><path fill="#888a85" d="M30.3 36.34c.24-.28.4-.5.3.13-.1.62.02.93.14.93.1 0-.42-.3-.47-.13-.04.15-.24.62-.02.8.1.04-.35.17-.4-.07-.04-.25.05-.53.16-.84.12-.3.12-.62.3-.82z"/><path fill="none" stroke="#cb696b" stroke-width=".5" d="M11.5 33.17c-.1-.1-.18-.2-.24-.3-.42-.7-.48-1.48-.5-1.72-.04-.24-.3-.8-.1-2.2.06-.36-.25-.8-.25-1.36 0-.55-.1-1.64.44-3.4 1.35-4.47 2.17-4.98 2.2-5.43.02-.45-.07-.84.8-3.3.88-2.48 1.57-1.94 1.97-2.54.4-.6 1.06-1.9 1.75-2.68.7-.8 1.48-.9 1.84-1.3.35-.4.6-.9 1.28-1.32.88-.56 2.04-.55 2.23-.77.2-.2 1.18-1.48 1.47-1.72.3-.24 1.44-.1 1.8-.32.38-.2.54-.8.86-.88.32-.08 1.7.24 2.28.13"/><path fill="none" stroke="#2e3436" d="M29.3 4.07c.6-.1.33-.3.65-.4.32-.07 2.8.1 3.32.22.5.1 1.3.5 1.57.5.26 0 .74 0 1.22.13s3.66 1.7 4.2 2c.53.28 1.83 1.7 2.33 2.3.58.18 1.72.72 2.04.9.32.2 1.57 1.5 1.75 1.94.18.45.1 1 .3 1.4.22.4.36.67.4 1 .06.3.06 1.64.2 1.93.13.3.37.85.37 1.75s-.3 2.26-.43 2.98c-.13.7-.74 1.9-.74 2.17s-.08.64-.24.85c-.16.22-.2-.02-.37.6-.17.6-.73 1.4-.76 1.58-.02.2-.05.45-.16.6-.1.12-.5.12-.5.36 0 .23.37.5.43.68.06.18.14.48.08.66-.05.2-.8 1.36-1.16 1.97-.38.62-1.33 1.76-1.4 2.03-.04.26.12.4.12.8s.05 1.5-.08 1.85c-.13.35-2.57 3.03-3.05 3.16-.47.13-3.1-.37-3.6-.26-.5.1-2.37.66-3.03 1.14-.67.48-1.76 1.1-2.2 1.17-.46.04-1.28 0-1.52-.1"/><path fill="none" stroke="#2e3436" d="M11.5 33.17c-.1-.1-.18-.2-.24-.3-.42-.7-.48-1.48-.5-1.72-.04-.24-.3-.8-.1-2.2.06-.36-.25-.8-.25-1.36 0-.55-.1-1.64.44-3.4 1.35-4.47 2.17-4.98 2.2-5.43.02-.45-.07-.84.8-3.3.88-2.48 1.57-1.94 1.97-2.54.4-.6 1.06-1.9 1.75-2.68.7-.8 1.48-.9 1.84-1.3.35-.4.6-.9 1.28-1.32.88-.56 2.04-.55 2.23-.77.2-.2 1.18-1.48 1.47-1.72.3-.24 1.44-.1 1.8-.32.38-.2.54-.8.86-.88.32-.08 1.7.24 2.28.13"/><path fill="none" stroke="#2e3436" d="M29.3 4.07h-.03c-.5-.03-.83-.12-1.05-.35-.25-.24-.16-.4-2.43-.86-2.3-.46-4.93-.75-8.4.58-3.46 1.32-3.5 1.85-3.88 2.06-.37.2-3.1 1.6-3.76 2.23-.66.62-1 .78-1.2 1.07-.2.3-.32.75-.7 1-.37.24-2.47 2.3-3.13 3.34-.66 1.03-.87 1.57-1.16 2.02-.3.46-1.36 1.65-1.94 2.73-.58 1.06-1.16 2.6-1.16 3 0 .4.54 1.32.54 1.57s-.7.8-.73 1.12c-.04.32.08 1.23.16 1.93s.04 1.15.2 1.48c.17.34.63.5.7.8.1.3.34 1 .75 1.36.42.37.8.5 1.2.9.4.42 1.2 1.12 1.78 1.3.58.15 1.48 0 1.86.24.37.24 1.65 1.52 2.27 1.73.6.2 1.93-.12 2.3-.16"/><path fill="none" stroke="#2e3436" d="M23.1 36.13c-.4-.16-.7-.4-.7-.4-1.23.2-2.8.24-3.67.12-.88-.12-2.17-1-2.38-.97-.2.03-.97-.1-2.26-.48-1.1-.33-2.08-.7-2.6-1.23"/></g></svg>