<svg xmlns="http://www.w3.org/2000/svg" width="48" height="48" xmlns:xlink="http://www.w3.org/1999/xlink"><defs><linearGradient id="a"><stop offset="0" stop-color="#ef2929"/><stop offset="1" stop-color="#ef2929" stop-opacity="0"/></linearGradient><linearGradient x1="28.955" x2="14.911" y1="30.252" y2="30.252" gradientUnits="userSpaceOnUse" gradientTransform="matrix(1.188 0 0 1.188 -11.839 -2.575)"><stop offset=".006" stop-color="#9DA1A5"/><stop offset=".455" stop-color="#C3D1D5"/><stop offset="1" stop-color="#CED4D6"/></linearGradient><linearGradient x1="21.019" x2="21.302" y1="-12.681" y2="33.599" gradientUnits="userSpaceOnUse" gradientTransform="matrix(1.188 0 0 1.188 -11.839 -2.575)"><stop offset=".213" stop-color="#DBDFE1"/><stop offset="1" stop-color="#A1ACB3"/></linearGradient><linearGradient x1="22.356" x2="24.596" y1=".226" y2="41.866" gradientUnits="userSpaceOnUse" gradientTransform="matrix(1.188 0 0 1.188 -11.839 -2.575)"><stop offset=".006" stop-color="#dbdfe1" stop-opacity="0"/><stop offset="1" stop-color="#8A9399"/></linearGradient><linearGradient x1="23.915" x2="23.915" y1="13.391" y2="42.51" gradientUnits="userSpaceOnUse" gradientTransform="matrix(1.188 0 0 1.188 -11.839 -2.575)"><stop offset="0" stop-color="#AFBBC2"/><stop offset=".309" stop-color="#E8ECED"/><stop offset=".433" stop-color="#E8ECED"/><stop offset="1" stop-color="#AAAFB2"/></linearGradient><linearGradient x1="39.254" x2="16.775" y1="35.097" y2="19.378" gradientUnits="userSpaceOnUse" gradientTransform="matrix(1.188 0 0 1.188 -11.864 3.157)"><stop offset=".213" stop-color="#DBDFE1"/><stop offset="1" stop-color="#A1ACB3"/></linearGradient><linearGradient x1="17.081" x2="23.943" y1="-6.99" y2="41.953" gradientUnits="userSpaceOnUse" gradientTransform="matrix(1.188 0 0 1.188 -11.839 -2.575)"><stop offset=".006" stop-color="#DBDFE1"/><stop offset="1" stop-color="#8A9399"/></linearGradient><linearGradient id="r" x1="25.143" x2="25.112" y1="11.533" y2="2.139" xlink:href="#a" gradientUnits="userSpaceOnUse" gradientTransform="translate(-.758 .404)"/><linearGradient id="q" x1="24.436" x2="24.051" y1="27.744" y2="16.885" xlink:href="#a" gradientUnits="userSpaceOnUse" gradientTransform="translate(-.758 2.172)"/><linearGradient id="p" x1="24.804" x2="24.491" y1="42.192" y2="33.302" xlink:href="#a" gradientUnits="userSpaceOnUse" gradientTransform="matrix(.866 0 0 1 1.065 4.091)"/><radialGradient cx="26.126" cy="32.449" r="22.073" gradientUnits="userSpaceOnUse" gradientTransform="matrix(1 0 0 .62 0 12.318)" fy="32.449" fx="26.126" xlink:href="#b"/><linearGradient x1="6.26" x2="15.438" y1="165.928" y2="170.234" gradientTransform="matrix(1.034 0 0 1.034 -2.345 -159.91)" gradientUnits="userSpaceOnUse" xlink:href="#c"/><linearGradient x1="25.98" x2="27.6" y1="195.272" y2="191.762" gradientTransform="matrix(1.034 0 0 1.034 -2.345 -159.91)" gradientUnits="userSpaceOnUse" xlink:href="#d"/><linearGradient x1="30.721" x2="30.361" y1="191.532" y2="189.013" gradientTransform="matrix(1.034 0 0 1.034 -2.345 -159.91)" gradientUnits="userSpaceOnUse" xlink:href="#e"/><radialGradient cx="21.108" cy="170.255" r="11.345" gradientTransform="matrix(1.034 0 0 1.034 -2.345 -159.91)" fy="170.255" fx="21.108" gradientUnits="userSpaceOnUse" xlink:href="#f"/><radialGradient cx="8.127" cy="179.328" r="6.328" gradientTransform="matrix(1.034 0 0 1.034 -2.345 -159.91)" fy="179.328" fx="8.127" gradientUnits="userSpaceOnUse" xlink:href="#g"/><radialGradient cx="19.875" cy="178.137" r="6.273" gradientTransform="matrix(1.034 0 0 1.034 -2.345 -159.91)" fy="178.137" fx="19.875" gradientUnits="userSpaceOnUse" xlink:href="#h"/><radialGradient cx="20.26" cy="172.94" r="6.674" gradientTransform="matrix(1.034 0 0 1.034 -2.345 -159.91)" fy="172.94" fx="20.26" gradientUnits="userSpaceOnUse" xlink:href="#i"/><radialGradient cx="21.608" cy="172.17" r="3.835" gradientTransform="matrix(1.034 0 0 1.034 -2.345 -159.91)" fy="172.17" fx="21.608" gradientUnits="userSpaceOnUse" xlink:href="#j"/><radialGradient cx="12.774" cy="172.564" r="9.904" gradientTransform="matrix(1.034 0 0 1.034 -2.345 -159.91)" fy="172.564" fx="12.774" gradientUnits="userSpaceOnUse" xlink:href="#k"/><radialGradient cx="18.676" cy="170.998" r="12.647" gradientTransform="matrix(1.034 0 0 1.034 -2.345 -159.91)" fy="170.998" fx="18.676" gradientUnits="userSpaceOnUse" xlink:href="#l"/><radialGradient cx="20.141" cy="171.534" r="10.533" gradientTransform="matrix(1.034 0 0 1.034 -2.345 -159.91)" fy="171.534" fx="20.141" gradientUnits="userSpaceOnUse" xlink:href="#m"/><radialGradient cx="22.811" cy="169.34" r="14.467" gradientTransform="matrix(1.034 0 0 1.034 -2.345 -159.91)" fy="169.34" fx="22.811" gradientUnits="userSpaceOnUse" xlink:href="#n"/><radialGradient cx="17.95" cy="175.731" r="12.523" gradientTransform="matrix(1.034 0 0 1.034 -2.345 -159.91)" fy="175.731" fx="17.95" gradientUnits="userSpaceOnUse" xlink:href="#o"/><radialGradient id="b" cx="20.836" cy="192.154" r="25.122" fx="20.836" fy="192.154" gradientUnits="userSpaceOnUse"><stop offset="0" stop-opacity=".804"/><stop offset="1" stop-opacity="0"/></radialGradient><linearGradient id="c" x1="6.26" x2="15.438" y1="165.928" y2="170.234" gradientUnits="userSpaceOnUse"><stop offset="0" stop-color="#F79899"/><stop offset=".387" stop-color="#F29596"/><stop offset=".809" stop-color="#E28C8C"/><stop offset="1" stop-color="#D88686"/></linearGradient><linearGradient id="d" x1="25.98" x2="27.6" y1="195.272" y2="191.762" gradientUnits="userSpaceOnUse"><stop offset="0" stop-color="#F79899"/><stop offset=".387" stop-color="#F29596"/><stop offset=".809" stop-color="#E28C8C"/><stop offset="1" stop-color="#D88686"/></linearGradient><linearGradient id="e" x1="30.721" x2="30.361" y1="191.532" y2="189.013" gradientUnits="userSpaceOnUse"><stop offset="0" stop-color="#F79899"/><stop offset=".285" stop-color="#F29596"/><stop offset=".596" stop-color="#E08B8B"/><stop offset=".918" stop-color="#C77B7C"/><stop offset="1" stop-color="#BF7777"/></linearGradient><radialGradient id="f" cx="21.108" cy="170.255" r="11.345" fx="21.108" fy="170.255" gradientUnits="userSpaceOnUse"><stop offset=".006" stop-color="#F5CDCD"/><stop offset="1" stop-color="#F4B1B3"/></radialGradient><radialGradient id="g" cx="8.127" cy="179.328" r="6.328" fx="8.127" fy="179.328" gradientUnits="userSpaceOnUse"><stop offset=".006" stop-color="#F5CDCD"/><stop offset="1" stop-color="#F4B1B3"/></radialGradient><radialGradient id="h" cx="19.875" cy="178.137" r="6.273" fx="19.875" fy="178.137" gradientUnits="userSpaceOnUse"><stop offset="0" stop-color="#fff"/><stop offset="1" stop-color="#F5D9D9"/></radialGradient><radialGradient id="i" cx="20.26" cy="172.94" r="6.674" fx="20.26" fy="172.94" gradientUnits="userSpaceOnUse"><stop offset="0" stop-color="#fff"/><stop offset="1" stop-color="#F5D9D9"/></radialGradient><radialGradient id="j" cx="21.608" cy="172.17" r="3.835" fx="21.608" fy="172.17" gradientUnits="userSpaceOnUse"><stop offset="0" stop-color="#fff"/><stop offset="1" stop-color="#F5D9D9"/></radialGradient><radialGradient id="k" cx="12.774" cy="172.564" r="9.904" fx="12.774" fy="172.564" gradientUnits="userSpaceOnUse"><stop offset="0" stop-color="#fff"/><stop offset="1" stop-color="#F5D9D9"/></radialGradient><radialGradient id="l" cx="18.676" cy="170.998" r="12.647" fx="18.676" fy="170.998" gradientUnits="userSpaceOnUse"><stop offset="0" stop-color="#fff"/><stop offset="1" stop-color="#F5D9D9"/></radialGradient><radialGradient id="m" cx="20.141" cy="171.534" r="10.533" fx="20.141" fy="171.534" gradientUnits="userSpaceOnUse"><stop offset="0" stop-color="#fff"/><stop offset="1" stop-color="#F5D9D9"/></radialGradient><radialGradient id="n" cx="22.811" cy="169.34" r="14.467" fx="22.811" fy="169.34" gradientUnits="userSpaceOnUse"><stop offset="0" stop-color="#fff"/><stop offset="1" stop-color="#F5D9D9"/></radialGradient><radialGradient id="o" cx="17.95" cy="175.731" r="12.523" fx="17.95" fy="175.731" gradientUnits="userSpaceOnUse"><stop offset="0" stop-color="#fff"/><stop offset="1" stop-color="#F5D9D9"/></radialGradient></defs><g fill="none"><path stroke="#eeeeec" stroke-width="2.5" d="M11.8 41.9l3.73-3.9 5.62 3.07 5.42-3.17 5.74 3.23-3.3 4.4-2.78-2.98-6.27 3.53-2.3-3.04-4.96 1.75z"/><path stroke="#eeeeec" stroke-width="2.5" d="M9.13 24.55l3.96-3.86 3.52.14 2.4-2.7 4.6 4.32 4.2-1.93 4.73-.25 2.42 4.3-3.64 1.46-2.9 2.55-4.2-1.53-4.38 2.3-6.62-1.52 1.33-3.2z"/><path stroke="#eeeeec" stroke-width="2.5" d="M10.1 6.77l5.66-4.46L21 2.3l3.28 3.55 8.2-3.64 2.54 3.1 4.44.96-2.8 1.9-.5 2.78-4.2-3.4-4.1 2.96-5.4 1.08-.75-2.56-3.7 1.3-2.87-2.45-3.67 2.23z"/><path stroke="url(#p)" stroke-width="1.5" d="M11.8 41.9l3.73-3.9 5.62 3.07 5.42-3.17 5.74 3.23-3.3 4.4-2.78-2.98-6.27 3.53-2.3-3.04-4.96 1.75z"/><path stroke="url(#q)" stroke-width="1.5" d="M9.13 24.55l3.96-3.86 3.52.14 2.4-2.7 4.6 4.32 4.2-1.93 4.73-.25 2.42 4.3-3.64 1.46-2.9 2.55-4.2-1.53-4.38 2.3-6.62-1.52 1.33-3.2z"/><path stroke="url(#r)" stroke-width="1.5" d="M10.1 6.77l5.66-4.46L21 2.3l3.28 3.55 8.2-3.64 2.54 3.1 4.44.96-2.8 1.9-.5 2.78-4.2-3.4-4.1 2.96-5.4 1.08-.75-2.56-3.7 1.3-2.87-2.45-3.67 2.23z"/></g></svg>