<svg xmlns="http://www.w3.org/2000/svg" width="48" height="48" xmlns:xlink="http://www.w3.org/1999/xlink"><defs><linearGradient id="a"><stop offset="0" stop-color="#a4a5a1"/><stop offset="1" stop-color="#c8c9c7"/></linearGradient><linearGradient id="s" x1="26.048" x2="26.741" y1="-.273" y2="20.797" xlink:href="#a" gradientUnits="userSpaceOnUse" gradientTransform="matrix(1 0 0 .898 -2.063 24.854)"/><linearGradient id="f"><stop offset="0" stop-color="#623d01"/><stop offset="1" stop-color="#8f5902"/></linearGradient><linearGradient id="g"><stop offset="0" stop-color="#295103"/><stop offset="1" stop-color="#4e9a06"/></linearGradient><linearGradient id="e"><stop offset="0" stop-opacity=".502"/><stop offset="1" stop-opacity="0"/></linearGradient><linearGradient><stop offset="0" stop-color="#eeeeec" stop-opacity=".502"/><stop offset="1" stop-color="#eeeeec" stop-opacity="0"/></linearGradient><linearGradient id="d"><stop offset="0" stop-color="#eeeeec" stop-opacity=".502"/><stop offset="1" stop-color="#eeeeec" stop-opacity="0"/></linearGradient><linearGradient><stop offset="0" stop-color="#590b08"/><stop offset="1" stop-opacity="0"/></linearGradient><linearGradient x1="-95.827" x2="-81.455" y1="297.608" y2="297.608" gradientTransform="matrix(0 -1.064 -1.352 0 410.498 -83.416)" gradientUnits="userSpaceOnUse"><stop offset="0" stop-color="#e96712" stop-opacity="0"/><stop offset=".622" stop-color="#D52E0C"/><stop offset="1" stop-color="#CB1009"/></linearGradient><linearGradient id="c"><stop offset="0" stop-color="#fedba7"/><stop offset="1" stop-color="#fdbf64"/></linearGradient><linearGradient id="b"><stop offset="0" stop-color="#ffa54c"/><stop offset="1" stop-color="#f57900"/></linearGradient><linearGradient x1="14.929" x2="35.357" y1="17.929" y2="27.929" xlink:href="#b" gradientUnits="userSpaceOnUse" gradientTransform="matrix(.864 0 0 .863 51.703 -8.597)"/><linearGradient x1="2.131" x2="46.011" y1="26.143" y2="26.143" xlink:href="#c" gradientUnits="userSpaceOnUse" gradientTransform="matrix(.967 0 0 .966 49.159 -13.817)"/><linearGradient x1="13.664" x2="34.635" y1="19.056" y2="31.123" xlink:href="#b" gradientUnits="userSpaceOnUse" gradientTransform="matrix(.395 0 0 .38 .518 13.558)"/><linearGradient x1="13.664" x2="34.635" y1="19.056" y2="31.123" xlink:href="#b" gradientUnits="userSpaceOnUse" gradientTransform="matrix(.395 0 0 .38 10.571 8.425)"/><linearGradient x1="13.664" x2="34.635" y1="19.056" y2="31.123" xlink:href="#b" gradientUnits="userSpaceOnUse" gradientTransform="matrix(.395 0 0 .38 10.34 18.492)"/><linearGradient x1="13.664" x2="34.635" y1="19.056" y2="31.123" xlink:href="#b" gradientUnits="userSpaceOnUse" gradientTransform="matrix(.395 0 0 .38 20.393 13.359)"/><linearGradient x1="13.664" x2="34.635" y1="19.056" y2="31.123" xlink:href="#b" gradientUnits="userSpaceOnUse" gradientTransform="matrix(.395 0 0 .38 20.241 3.387)"/><linearGradient x1="13.664" x2="34.635" y1="19.056" y2="31.123" xlink:href="#b" gradientUnits="userSpaceOnUse" gradientTransform="matrix(.395 0 0 .38 30.063 8.321)"/><linearGradient x1="13.664" x2="34.635" y1="19.056" y2="31.123" xlink:href="#b" gradientUnits="userSpaceOnUse" gradientTransform="matrix(.395 0 0 .38 19.933 23.297)"/><linearGradient x1="13.664" x2="34.635" y1="19.056" y2="31.123" xlink:href="#b" gradientUnits="userSpaceOnUse" gradientTransform="matrix(.395 0 0 .38 29.986 18.164)"/><linearGradient x1="13.664" x2="34.635" y1="19.056" y2="31.123" xlink:href="#b" gradientUnits="userSpaceOnUse" gradientTransform="matrix(.395 0 0 .38 39.656 13.126)"/><linearGradient x1="16.5" x2="9.929" y1="36.643" y2="40.214" xlink:href="#d" gradientUnits="userSpaceOnUse" gradientTransform="translate(0 -.286)"/><linearGradient x1="14.5" x2="13.357" y1="35.571" y2="40.357" xlink:href="#d" gradientUnits="userSpaceOnUse" gradientTransform="translate(4.179 1.857)"/><linearGradient x1="14.214" x2="13.643" y1="35.5" y2="44.5" xlink:href="#d" gradientUnits="userSpaceOnUse" gradientTransform="translate(9.964 -11)"/><linearGradient x1="15.786" x2="10.643" y1="35.786" y2="41.643" xlink:href="#d" gradientUnits="userSpaceOnUse" gradientTransform="translate(6.393 -11.607)"/><linearGradient x1="17.143" x2="13.357" y1="35.357" y2="40.357" xlink:href="#d" gradientUnits="userSpaceOnUse" gradientTransform="translate(13.321 -2.357)"/><linearGradient x1="18.5" x2="19" y1="34.786" y2="40.714" xlink:href="#d" gradientUnits="userSpaceOnUse" gradientTransform="translate(15.893 .214)"/><linearGradient x1="23.643" x2="15.714" y1="35.714" y2="36.857" xlink:href="#d" gradientUnits="userSpaceOnUse" gradientTransform="translate(-6.964 -4.107)"/><linearGradient x1="44.786" x2="36.214" y1="35.893" y2="34.214" xlink:href="#e" gradientUnits="userSpaceOnUse" gradientTransform="translate(0 -.286)"/><linearGradient x1="44.5" x2="38.143" y1="38.036" y2="33" xlink:href="#e" gradientUnits="userSpaceOnUse" gradientTransform="translate(-12.214 -8.107)"/><linearGradient x1="44.714" x2="37.143" y1="37.464" y2="32.786" xlink:href="#e" gradientUnits="userSpaceOnUse" gradientTransform="translate(-17.286 3.393)"/><linearGradient id="q" x1="44.714" x2="37.143" y1="37.464" y2="32.786" xlink:href="#e" gradientUnits="userSpaceOnUse" gradientTransform="matrix(1.019 0 0 1.364 -18.058 -26.454)"/><linearGradient id="p" x1="43.429" x2="38.143" y1="38.893" y2="33" xlink:href="#e" gradientUnits="userSpaceOnUse" gradientTransform="matrix(1.019 0 0 1.364 -12.891 -42.14)"/><linearGradient id="o" x1="44.786" x2="36.214" y1="35.893" y2="34.214" xlink:href="#e" gradientUnits="userSpaceOnUse" gradientTransform="matrix(1.019 0 0 1.364 -.449 -31.471)"/><linearGradient id="n" x1="23.643" x2="15.714" y1="35.714" y2="36.857" xlink:href="#d" gradientUnits="userSpaceOnUse" gradientTransform="matrix(1.019 0 0 1.364 -7.543 -36.684)"/><linearGradient id="m" x1="18.5" x2="19" y1="34.786" y2="40.714" xlink:href="#d" gradientUnits="userSpaceOnUse" gradientTransform="matrix(1.019 0 0 1.364 15.74 -30.789)"/><linearGradient id="l" x1="17.143" x2="13.357" y1="35.357" y2="40.357" xlink:href="#d" gradientUnits="userSpaceOnUse" gradientTransform="matrix(1.019 0 0 1.364 13.121 -34.297)"/><linearGradient id="k" x1="14.208" x2="10.643" y1="37.985" y2="41.643" xlink:href="#d" gradientUnits="userSpaceOnUse" gradientTransform="matrix(1.019 0 0 1.364 6.063 -46.914)"/><linearGradient id="j" x1="14.214" x2="13.643" y1="35.5" y2="44.5" xlink:href="#d" gradientUnits="userSpaceOnUse" gradientTransform="matrix(1.019 0 0 1.364 9.701 -46.086)"/><linearGradient id="i" x1="14.5" x2="13.357" y1="35.571" y2="40.357" xlink:href="#d" gradientUnits="userSpaceOnUse" gradientTransform="matrix(1.019 0 0 1.364 3.807 -28.548)"/><linearGradient id="h" x1="16.5" x2="9.929" y1="36.643" y2="40.214" xlink:href="#d" gradientUnits="userSpaceOnUse" gradientTransform="matrix(1.019 0 0 1.364 -.449 -31.471)"/><linearGradient id="r" x1="51.693" x2="99.7" y1="74.024" y2="74.543" xlink:href="#f" gradientUnits="userSpaceOnUse" gradientTransform="matrix(-.991 0 0 .75 99.063 -24.049)"/><linearGradient x1="22.317" x2="22.346" y1="39.257" y2="45.493" xlink:href="#g" gradientUnits="userSpaceOnUse" gradientTransform="translate(131.357 -24.453)"/></defs><g><path fill="#63e400" fill-rule="evenodd" d="M23.82.8l-4.8 4.55-6.34 4.35-6.2 2.17-5.87 5.58 6.25 7.62 5.3.16 6.52 1.7 5.44 6.4 4.95-.9 5.85-5.95 6.97-2.16 5.52-7.07L41.67 11l-6.92-1.6-6.18-4.04L23.82.8z"/><path fill="none" stroke="#000" stroke-opacity=".502" d="M12.8 9.5l6.05 1.96 5 5.82 5.7 8.85 5.82-.17" color="#000" overflow="visible"/><path fill="none" stroke="#000" stroke-opacity=".502" d="M34.75 9.4l-7.4 2.38-3.6 5.38-5.4-.04-6.23 8.26" color="#000" overflow="visible"/><path fill="none" stroke="#000" stroke-opacity=".502" d="M6.28 11.8l4.86 8.3 7.16-2.9 3.44 6.7 7.4 8.54"/><path fill="none" stroke="#000" stroke-opacity=".502" d="M41.64 11.5l-7.7 2.86-4.67 11.82-7.6-2.4-2.95 3.5" color="#000" overflow="visible"/><path fill="none" stroke="#000" stroke-opacity=".502" d="M6.75 25.04l4.37-4.97 7.7-8.87 5.05-9.7" color="#000" overflow="visible"/><path fill="none" stroke="#000" stroke-opacity=".502" d="M23.77.74l3.7 11.1 6.64 2.4 7.7 10.3" color="#000" overflow="visible"/><path fill="none" stroke="#4e9a06" d="M23.76.5l-5.84 5.92-5.3 3.4-6.32 2.12-5.62 5.7L6.8 25.2l5.32.17 6.47 1.88 5.58 6.26 4.97-1.27 5.85-5.9 6.9-1.93 5.56-6.95-5.78-6.04-6.92-1.93-6.1-3.9L23.75.5z"/><path fill="url(#h)" fill-rule="evenodd" d="M8.5 22.1l3.27-1.64 4.95-1.95L12 24.56 8.5 22.1z"/><path fill="url(#i)" fill-rule="evenodd" d="M12.76 25.04l5.53-6.73 2.82 5.57-2.4 2.73-5.96-1.56z"/><path fill="url(#j)" fill-rule="evenodd" d="M19.38 11.1L24.18.8l2.4 10.62-3.05 4.48-4.15-4.77z"/><path fill="url(#k)" fill-rule="evenodd" d="M18 7.35l4.33-4.7-3.75 8.1-4.15-1.35L18 7.35z"/><path fill="url(#l)" fill-rule="evenodd" d="M24.4 17.24l3.2-4.67 5.6 2.04-3.93 9.66-4.87-7.02z"/><path fill="url(#m)" fill-rule="evenodd" d="M30.22 25.62l4-10.23 6.2 8.37-5.7 1.66-4.5.2z"/><path fill="url(#n)" fill-rule="evenodd" d="M7.45 14.08l5.6-3.9 4.44 1.75-6.42 7.12-3.63-4.97z"/><path fill="url(#o)" fill-rule="evenodd" d="M35.42 14.47l6.15-2.63L47 17.78l-5.32 6-6.26-9.3z"/><path fill="url(#p)" fill-rule="evenodd" d="M25.77 2.7l2.6 3.34 5.27 3.4-5.93 1.47-1.93-8.2z"/><path fill="url(#q)" fill-rule="evenodd" d="M19.05 17.73l4.44-.1 5 7.7-6.4-1.95-3.05-5.65z"/><path fill="#4e9a06" fill-rule="evenodd" stroke="#285001" d="M.7 31.78L.67 17.53l6.13 7.55 5.3.18 6.47 1.9 5.6 6.25 4.97-1.28 5.84-5.88 6.9-1.95 5.57-6.96-.05 14.24-23.24 16L.7 31.8z" stroke-linejoin="bevel"/><path fill="url(#r)" fill-rule="evenodd" stroke="#4d3001" stroke-width=".8" d="M47.44 24.74l-10.96 7.02-12.16 10.98-23.65-18v7.2L23.9 47.7l23.54-15.76v-7.2z" color="#000" stroke-linejoin="round" overflow="visible"/><path fill="url(#s)" fill-rule="evenodd" stroke="#555753" d="M.52 21.98l6.12 5.73 9.6 3.44 7.9 7.28 6.5-3.76 4.77-6.17 6.16-2.03 5.9-5.03-.1 5.17C38.5 27.7 26 43.35 24.2 43.04 22.9 42.83 5.85 27.5.53 28.18v-6.2z" color="#000" stroke-linejoin="round" overflow="visible"/><path fill="#555753" fill-rule="evenodd" d="M9.2 28.78a.85.85 0 1 1-1.7 0 .85.85 0 1 1 1.7 0z" color="#000" overflow="visible"/><path fill="#555753" fill-rule="evenodd" d="M16.28 34.95a.73.73 0 1 1-1.46 0 .73.73 0 1 1 1.46 0z" color="#000" overflow="visible"/><path fill="#555753" fill-rule="evenodd" d="M18.43 36.58a.38.38 0 1 1-.77 0 .38.38 0 1 1 .77 0z" color="#000" overflow="visible"/><path fill="#555753" fill-rule="evenodd" d="M15.72 31.73a1.85 1.85 0 1 1-3.7 0 1.85 1.85 0 1 1 3.7 0z" color="#000" overflow="visible"/><path fill="#555753" fill-rule="evenodd" d="M21.36 37.12a.85.85 0 1 1-1.7 0 .85.85 0 1 1 1.7 0z" color="#000" overflow="visible"/><path fill="#555753" fill-rule="evenodd" d="M23.73 40.43a1.42 1.42 0 1 1-2.84 0 1.42 1.42 0 1 1 2.83 0z" color="#000" overflow="visible"/><path fill="#555753" fill-rule="evenodd" d="M25.95 38.65a.66.66 0 1 1-1.3 0 .66.66 0 1 1 1.3 0z" color="#000" overflow="visible"/><path fill="#555753" fill-rule="evenodd" d="M29.8 38.15a1.15 1.15 0 1 1-2.3 0 1.15 1.15 0 1 1 2.3 0z" color="#000" overflow="visible"/><path fill="#555753" fill-rule="evenodd" d="M18.95 34.02a1.15 1.15 0 1 1-2.3 0 1.15 1.15 0 1 1 2.3 0z" color="#000" overflow="visible"/><path fill="#555753" fill-rule="evenodd" d="M11.78 31.54a1.15 1.15 0 1 1-2.3 0 1.15 1.15 0 1 1 2.3 0z" color="#000" overflow="visible"/><path fill="#c17d11" fill-rule="evenodd" d="M31.6 40.77c-.36.66.13 1.07.88.74.34-.14.66-.42.83-.73.36-.65-.12-1.06-.87-.74-.34.15-.66.44-.83.74z" color="#000" overflow="visible"/><path fill="#c17d11" fill-rule="evenodd" d="M34 37.9c-.3.55.12.9.76.62.3-.13.57-.37.72-.63.3-.57-.1-.93-.75-.65-.3.14-.57.38-.72.64z" color="#000" overflow="visible"/><path fill="#c17d11" fill-rule="evenodd" d="M20.98 42.68c-.16.3.06.48.4.34.15-.07.3-.2.37-.34.16-.3-.06-.48-.4-.33-.15.07-.3.2-.37.33z" color="#000" overflow="visible"/><path fill="#c17d11" fill-rule="evenodd" d="M4.56 33.1c-.73 1.34.26 2.18 1.8 1.5.7-.3 1.35-.88 1.7-1.5.73-1.35-.27-2.2-1.8-1.52-.7.3-1.36.9-1.7 1.5z" color="#000" overflow="visible"/><path fill="#c17d11" fill-rule="evenodd" d="M21.26 44.2c-.36.66.13 1.07.87.74.35-.15.67-.43.83-.74.36-.65-.12-1.06-.87-.74-.36.15-.67.44-.84.74z" color="#000" overflow="visible"/><path fill="#c17d11" fill-rule="evenodd" d="M14.72 39.77c-.6 1.1.22 1.78 1.46 1.23.58-.25 1.1-.72 1.4-1.23.6-1.1-.22-1.78-1.47-1.23-.57.25-1.1.72-1.38 1.23z" color="#000" overflow="visible"/><path fill="#c17d11" fill-rule="evenodd" d="M8.1 36.1c-.3.5.08.82.66.56.27-.1.5-.33.64-.57.28-.5-.1-.83-.67-.58-.27.12-.52.34-.64.57z" color="#000" overflow="visible"/><path fill="#c17d11" fill-rule="evenodd" d="M1.6 30.8c-.5.88.17 1.43 1.17 1 .47-.2.9-.6 1.12-1 .48-.9-.18-1.44-1.18-1-.47.2-.9.58-1.12 1z" color="#000" overflow="visible"/><path fill="#c17d11" fill-rule="evenodd" d="M23.46 45.17c-.5.9.17 1.44 1.17 1 .47-.2.9-.58 1.12-1 .5-.88-.17-1.43-1.18-1-.46.2-.9.6-1.1 1z" color="#000" overflow="visible"/><path fill="#c17d11" fill-rule="evenodd" d="M26.5 42.93c-.5.88.16 1.44 1.17 1 .46-.2.9-.6 1.12-1 .47-.9-.18-1.44-1.2-1-.46.2-.9.6-1.1 1z" color="#000" overflow="visible"/><path fill="#c17d11" fill-rule="evenodd" d="M18.75 42.1c-.26.54.1.87.62.6.25-.12.48-.35.6-.6.26-.53-.1-.86-.63-.6-.24.13-.47.36-.6.6z" color="#000" overflow="visible"/><path fill="#c17d11" fill-rule="evenodd" d="M11 37.22c-.48.9.17 1.44 1.18 1 .47-.2.9-.6 1.12-1 .48-.88-.17-1.43-1.18-1-.47.2-.9.6-1.12 1z" color="#000" overflow="visible"/><path fill="#555753" fill-rule="evenodd" d="M3.96 25.12a1.15 1.15 0 1 1-2.3 0 1.15 1.15 0 1 1 2.3 0z" color="#000" overflow="visible"/><path fill="#555753" fill-rule="evenodd" d="M5.3 27.93a.38.38 0 1 1-.76 0 .38.38 0 1 1 .76 0z" color="#000" overflow="visible"/><path fill="#555753" fill-rule="evenodd" d="M37.14 29.1a-.85.85 0 1 1 1.7 0-.85.85 0 1 1-1.7 0z" color="#000" overflow="visible"/><path fill="#555753" fill-rule="evenodd" d="M32.3 34.4a-.73.73 0 1 1 1.47 0-.73.73 0 1 1-1.47 0z" color="#000" overflow="visible"/><path fill="#555753" fill-rule="evenodd" d="M30.15 36.04a-.38.38 0 1 1 .77 0-.38.38 0 1 1-.77 0z" color="#000" overflow="visible"/><path fill="#555753" fill-rule="evenodd" d="M25.93 39.68a-.85.85 0 1 1 1.7 0-.85.85 0 1 1-1.7 0z" color="#000" overflow="visible"/><path fill="#555753" fill-rule="evenodd" d="M34.98 30.58a-1.15 1.15 0 1 1 2.3 0-1.15 1.15 0 1 1-2.3 0z" color="#000" overflow="visible"/><path fill="#555753" fill-rule="evenodd" d="M44.63 24.58a-1.15 1.15 0 1 1 2.3 0-1.15 1.15 0 1 1-2.3 0z" color="#000" overflow="visible"/><path fill="#555753" fill-rule="evenodd" d="M43.17 26.64a-.38.38 0 1 1 .77 0-.38.38 0 1 1-.77 0z" color="#000" overflow="visible"/><path fill="#c17d11" fill-rule="evenodd" d="M35.1 34.7c-.72 1.36.27 2.2 1.8 1.53.7-.32 1.36-.9 1.7-1.52.74-1.33-.26-2.17-1.8-1.5-.7.3-1.35.9-1.7 1.5z" color="#000" overflow="visible"/><path fill="#c17d11" fill-rule="evenodd" d="M37.85 36.1c-.48.9.17 1.44 1.18 1 .47-.2.9-.58 1.12-1 .48-.88-.17-1.43-1.18-1-.47.22-.9.6-1.12 1z" color="#000" overflow="visible"/><path fill="#c17d11" fill-rule="evenodd" d="M43.96 29.58c-.6 1.1.2 1.78 1.45 1.24.6-.26 1.12-.73 1.4-1.24.6-1.1-.2-1.78-1.46-1.23-.58.25-1.1.72-1.38 1.23z" color="#000" overflow="visible"/><path fill="#c17d11" fill-rule="evenodd" d="M43.48 33.2c-.25.54.1.87.63.6.26-.12.48-.35.6-.6.26-.53-.1-.86-.62-.6-.25.13-.48.36-.6.6z" color="#000" overflow="visible"/><path fill="#c17d11" fill-rule="evenodd" d="M40.34 31.64c-.48.9.17 1.44 1.18 1 .47-.2.9-.6 1.12-1 .48-.88-.17-1.43-1.18-1-.47.2-.9.6-1.12 1z" color="#000" overflow="visible"/></g></svg>