<svg xmlns="http://www.w3.org/2000/svg" width="48" height="48"><defs><linearGradient id="a" x1="346.783" x2="374.305" y1="111.756" y2="111.756" gradientUnits="userSpaceOnUse" gradientTransform="matrix(1.02 0 0 1.019 -342.571 -84.578)"><stop offset="0" stop-color="#A2BBD5"/><stop offset=".449" stop-color="#fff"/><stop offset=".652" stop-color="#fff"/><stop offset="1" stop-color="#A2BBD5"/></linearGradient><radialGradient id="e" cx="361.706" cy="94.525" r="7.103" gradientUnits="userSpaceOnUse" fy="94.525" fx="361.706" gradientTransform="matrix(1.02 0 0 1.019 -342.571 -84.578)"><stop offset=".556" stop-color="#C1DEEA"/><stop offset=".699" stop-color="#BEDCE9"/><stop offset=".787" stop-color="#B6D5E5"/><stop offset=".859" stop-color="#A8CADE"/><stop offset=".923" stop-color="#93B9D3"/><stop offset=".982" stop-color="#7AA5C7"/><stop offset="1" stop-color="#709EC3"/></radialGradient><radialGradient id="d" cx="361.586" cy="94.791" r="15.771" gradientUnits="userSpaceOnUse" fy="86.03" fx="374.7" gradientTransform="matrix(1.02 0 0 1.019 -342.571 -84.578)"><stop offset="0" stop-color="#C1DEEA"/><stop offset=".477" stop-color="#fff"/><stop offset=".629" stop-color="#fff"/><stop offset="1" stop-color="#A2BBD5"/></radialGradient><linearGradient id="c" x1="352.217" x2="358.723" y1="119.342" y2="119.342" gradientUnits="userSpaceOnUse"><stop offset="0" stop-color="#567C99"/><stop offset=".522" stop-color="#C1DEEA"/><stop offset="1" stop-color="#A2BBD5"/></linearGradient><linearGradient id="b" x1="351.653" x2="369.077" y1="110.189" y2="110.189" gradientUnits="userSpaceOnUse"><stop offset="0" stop-color="#567C99"/><stop offset=".522" stop-color="#C1DEEA"/><stop offset="1" stop-color="#A2BBD5"/></linearGradient></defs><g><path fill="url(#a)" d="M23.35 20.26C10.9 18.73 11 11.16 11 11.16c1.1 8.25 9.5 10.92 10.66 17.14.94 4.98-5.2 10.94-5.2 19.2 2.6-5.8 9.4-10.17 13.88-14.66 8.45-8.45 7.2-13.96 8.74-18.97 0 0-5.87 7.6-15.73 6.4z"/><path fill="#c1deea" d="M32.03 16.95c-2.1.5-4.42.7-7.22.7-7.23 0-10.95-3.84-10.95-6.54 0-3.07 4.37-5.93 10.03-5.93 6.8 0 11.47 4.97 5.95 7.5.33-.5.5-1.07.5-1.67 0-2.4-2.9-4.32-6.46-4.32-3.57 0-6.47 1.93-6.47 4.32 0 1.08 1.04 4.24 6.9 4.65 5.4.38 10.05-1.46 13.06-5.4-.43 2.48-6.96 8.6-17 5.9 4.38 1.23 8.23 1.22 11.3.47l.37.33z"/><g transform="matrix(1.02 0 0 1.019 -342.571 -84.578)"><linearGradient x1="351.653" x2="369.077" y1="110.189" y2="110.189" gradientUnits="userSpaceOnUse"><stop offset="0" stop-color="#567C99"/><stop offset=".522" stop-color="#C1DEEA"/><stop offset="1" stop-color="#A2BBD5"/></linearGradient><path fill="url(#b)" d="M355.44 106.92c1.5 1.72 10 2.4 7.66 10.7l5.94-6.2c.8-5.6-14.25-5.33-17.4-8.68l3.8 4.18z"/><linearGradient x1="352.217" x2="358.723" y1="119.342" y2="119.342" gradientUnits="userSpaceOnUse"><stop offset="0" stop-color="#567C99"/><stop offset=".522" stop-color="#C1DEEA"/><stop offset="1" stop-color="#A2BBD5"/></linearGradient><path fill="url(#c)" d="M355.64 117.58c-.33 2.54.6 4.46-3.42 10.37l5.1-5.18c3.2-7.3-.1-9.84-.1-12.03l-1.58 6.84z"/></g><path fill="none" stroke="#3065a0" d="M23.35 20.26C10.9 18.73 11 11.16 11 11.16c1.1 8.25 9.5 10.92 10.66 17.14.94 4.98-5.2 10.94-5.2 19.2 2.6-5.8 9.4-10.17 13.88-14.66 8.45-8.45 7.2-13.96 8.74-18.97 0 0-5.87 7.6-15.73 6.4z"/><path fill="none" stroke="#fff" d="M16.98 19.67c.23.25.46.5.7.74 2.26 2.36 4.4 4.57 4.98 7.7v.06-.05l.12 1.27c0 2.32-1.1 4.77-2.27 7.35-.86 1.94-1.76 4.05-2.35 6.33 2.03-2.53 4.6-4.82 7.15-7.02 1.55-1.35 3.03-2.62 4.3-3.9 6.23-6.22 7-10.74 7.68-14.73.02-.14.05-.27.07-.4" opacity=".8"/><path fill="none" stroke="#3065a0" stroke-width="2" d="M17.4 11c0 1.08 1.04 4.24 6.9 4.65 5.4.38 10.05-1.46 13.06-5.4-.43 2.48-6.96 8.6-17 5.9 11.05 3.12 18.8-1.7 18.8-6.5 0-4.54-8.18-10.6-21.73-7.67C28.4.36 30.55 3.28 29.4 3.06c-1.15-.22-13.83-2.38-18 3.62 2.02-1.57 2.73-1.24 2.73-1.24-7.74 6.16.08 14.86 10.4 14.86 3.94 0 7.45-.38 8.52-.87 0 0-3.15.38-3.15-.27 7.46-1.35 9.17-5.3 9.17-5.3-4.37 2.82-8.17 3.8-14.26 3.8-7.23 0-10.95-3.85-10.95-6.55 0-3.07 4.37-5.93 10.03-5.93 6.8 0 11.47 4.97 5.95 7.5.33-.5.5-1.07.5-1.67 0-2.4-2.9-4.32-6.46-4.32-3.58 0-6.47 1.93-6.47 4.32z"/><path fill="none" stroke="#709ec3" stroke-width="2" d="M24.8 17.65c-7.23 0-10.95-3.84-10.95-6.54 0-3.07 4.37-5.93 10.03-5.93 6.8 0 11.47 4.97 5.95 7.5.33-.5.5-1.07.5-1.67 0-2.4-2.9-4.32-6.46-4.32-3.57 0-6.47 1.93-6.47 4.32 0 1.08 1.04 4.24 6.9 4.65 5.4.38 10.05-1.46 13.06-5.4-.43 2.48-6.96 8.6-17 5.9"/><path fill="url(#d)" d="M17.4 11c0 1.08 1.04 4.24 6.9 4.65 5.4.38 10.05-1.46 13.06-5.4-.43 2.48-6.96 8.6-17 5.9 11.05 3.12 18.8-1.7 18.8-6.5 0-4.54-8.18-10.6-21.73-7.67C28.4.36 30.55 3.28 29.4 3.06c-1.15-.22-13.83-2.38-18 3.62 2.02-1.57 2.73-1.24 2.73-1.24-7.74 6.16.08 14.86 10.4 14.86 3.94 0 7.45-.38 8.52-.87 0 0-3.15.38-3.15-.27 7.46-1.35 9.17-5.3 9.17-5.3-4.37 2.82-8.17 3.8-14.26 3.8-7.23 0-10.95-3.85-10.95-6.55 0-3.07 4.37-5.93 10.03-5.93 6.8 0 11.47 4.97 5.95 7.5.33-.5.5-1.07.5-1.67 0-2.4-2.9-4.32-6.46-4.32-3.58 0-6.47 1.93-6.47 4.32z"/><path fill="none" stroke="#fff" d="M30.07 2.58c.08.12.12.26.12.38s-.05.24-.12.34c-.07.1-.3.35-.77.26-.46-.1-9.95-1.8-15.22 1.36.1.02.22.03.26.05l.77.34-.65.54c-1.93 1.53-2.93 3.33-2.93 5.18 0 .6.1 1.2.3 1.8 1.4 3.98 6.86 6.97 12.7 6.97 1.96 0 3.66-.1 5.05-.25-.07-.15-.45-1-.45-1l.7.1c3.57-.64 5.77-1.9 7.08-3-3.5 1.76-7.05 2.5-12.1 2.5-7.82 0-11.46-4.2-11.46-7.04 0-3.5 4.82-6.45 10.54-6.45 4.4 0 8.26 2.02 8.83 4.6.2.9.13 2.6-2.66 3.9l-1.57.72.93-1.46c.28-.44.43-.9.43-1.4 0-2.1-2.67-3.8-5.96-3.8-3.3 0-5.96 1.7-5.96 3.8 0 .04.08 3.7 6.44 4.14 5.3.37 9.76-1.48 12.6-5.2l.92.4c-.24 1.37-1.82 3.2-3.94 4.55-.62.4-1.48.82-2.47 1.22 1.74-.42 3.3-1.08 4.58-2.04 1.68-1.27 2.6-2.85 2.6-4.43 0-1.46-.97-3.1-2.66-4.45-1.62-1.3-3.7-2.2-6.05-2.78.06.05.12.1.15.16z" opacity=".8"/><path fill="url(#e)" d="M29.83 12.68c0-1.8-1.93-3.6-5-3.07-2.97.52-3.23 3.84.95 4.44 4.18.6 11.76-2.8 7.42-7.5-4.5-4.86-13.13-3.07-14.75-1.62 6.05-2.22 14.5 0 14.5 3.84 0 3.4-3.12 3.92-3.12 3.92z"/><path fill="none" stroke="#c1deea" stroke-width=".5" d="M11.55 13.24c1.65 3.76 6.88 6.8 12.98 6.8 3.94 0 7.45-.38 8.53-.86 0 0-3.16.37-3.16-.27 7.46-1.34 9.18-5.3 9.18-5.3"/></g></svg>