<svg xmlns="http://www.w3.org/2000/svg" width="16" height="16" xmlns:xlink="http://www.w3.org/1999/xlink" version="1"><defs><linearGradient id="a"><stop offset="0" stop-color="#fff"/><stop offset="1" stop-color="#fff" stop-opacity="0"/></linearGradient><linearGradient x1="20.133" x2="20.796" y1="33.647" y2="50.771" xlink:href="#a" gradientUnits="userSpaceOnUse" gradientTransform="matrix(.51 0 -.017 .35 -15.261 -2.759)"/><linearGradient id="g"><stop offset="0" stop-color="#eeeeec" stop-opacity=".615"/><stop offset="1" stop-color="#eeeeec" stop-opacity="0"/></linearGradient><linearGradient id="f"><stop offset="0" stop-opacity=".67"/><stop offset="1" stop-opacity="0"/></linearGradient><linearGradient id="e"><stop offset="0" stop-color="#4f84c8"/><stop offset="1" stop-color="#729fcf"/></linearGradient><linearGradient id="d"><stop offset="0" stop-color="#424242"/><stop offset="1" stop-color="#777"/></linearGradient><linearGradient id="c"><stop offset="0" stop-color="#fff"/><stop offset="1" stop-color="#fff" stop-opacity="0"/></linearGradient><linearGradient id="b"><stop offset="0" stop-color="#202020"/><stop offset="1" stop-color="#b9b9b9"/></linearGradient><radialGradient id="h" cx="20.706" cy="37.518" r="30.905" xlink:href="#b" gradientUnits="userSpaceOnUse" gradientTransform="matrix(.395 -.01 .067 .443 -2.158 -3.228)" fx="20.706" fy="37.518"/><linearGradient><stop offset="0" stop-color="#fff" stop-opacity=".876"/><stop offset="1" stop-color="#fffffe" stop-opacity="0"/></linearGradient><linearGradient id="m" x1="13.036" x2="12.854" y1="32.567" y2="46.689" gradientUnits="userSpaceOnUse" gradientTransform="matrix(.444 0 0 .279 -.138 .094)" xlink:href="#c"/><linearGradient id="i" x1="18.113" x2="15.515" y1="31.368" y2="6.18" gradientUnits="userSpaceOnUse" xlink:href="#d" gradientTransform="matrix(.375 0 0 .372 -.819 -.579)"/><linearGradient id="l" x1="22.176" x2="22.065" y1="36.988" y2="32.05" xlink:href="#e" gradientUnits="userSpaceOnUse" gradientTransform="matrix(.375 0 0 .372 -.819 -.579)"/><radialGradient id="k" cx="24.351" cy="41.592" r="19.136" xlink:href="#f" fx="24.351" fy="41.592" gradientTransform="matrix(1 0 0 .242 0 31.506)" gradientUnits="userSpaceOnUse"/><linearGradient id="j" x1=".957" x2="1.202" y1="1.271" y2="9.874" xlink:href="#g" gradientUnits="userSpaceOnUse" gradientTransform="matrix(1.019 0 0 1.019 .08 .634)"/></defs><g><path fill="url(#h)" stroke="url(#i)" d="M.88 13.8c0 .16.17.32.32.32h11.75c.15 0 .3-.16.3-.3l-.7-10.03c0-.17-.17-.32-.33-.32H7.6c-.2 0-.48-.12-.54-.4l-.23-1.2c-.05-.27-.33-.38-.48-.38H.8c-.15 0-.3.15-.3.3l.38 12z" stroke-linecap="round" stroke-linejoin="round"/><path fill="none" stroke="url(#j)" d="M1.9 13.6L1.57 2.5H5.9c.18 1.14.7 1.85 1.4 1.95l4.8.06"/><path fill="url(#k)" d="M43.5 41.6a19.14 4.64 0 1 1-38.3 0 19.14 4.64 0 1 1 38.3 0z" transform="matrix(.417 0 0 .376 -2.184 -1.251)" opacity=".557" color="#000" overflow="visible"/><path fill="url(#l)" stroke="#204a87" d="M14.1 14.1c.42 0 .73-.4.76-.85.3-4.3.62-7.53.62-7.53.03-.1-.06-.2-.18-.2H2.55s-.82 7.78-.82 7.78c-.05.37-.18.67-.6.8H14.1z" color="#000" stroke-linejoin="round" display="block"/><path fill="none" stroke="url(#m)" d="M3.48 6.57h10.96l-.53 6.48c-.02.36-.14.5-.62.5-.63 0-9.66-.03-10.57-.03.1-.1.12-.33.12-.34l.66-6.6z" opacity=".466" stroke-linecap="round"/><path fill="#fff" fill-opacity=".089" fill-rule="evenodd" d="M3 6.03l-.54 5.43S5.5 9.9 9.32 9.9c3.82 0 5.65-3.84 5.65-3.84L3 6.03z"/></g></svg>