<svg xmlns="http://www.w3.org/2000/svg" width="16" height="16" xmlns:xlink="http://www.w3.org/1999/xlink"><defs><linearGradient id="c"><stop offset="0" stop-color="#fff" stop-opacity=".649"/><stop offset="1" stop-color="#eeeeec" stop-opacity="0"/></linearGradient><linearGradient id="b"><stop offset="0"/><stop offset="1" stop-opacity="0"/></linearGradient><linearGradient id="a"><stop offset="0" stop-color="#fff"/><stop offset="1" stop-color="#fff" stop-opacity=".251"/></linearGradient><linearGradient><stop offset="0" stop-color="#fff" stop-opacity="0"/><stop offset=".5" stop-color="#fff" stop-opacity="0"/><stop offset="1" stop-color="#fff" stop-opacity=".722"/></linearGradient><linearGradient><stop offset="0" stop-color="#2e3436"/><stop offset=".75" stop-color="#2e3436"/><stop offset="1" stop-color="#2e3436" stop-opacity="0"/></linearGradient><linearGradient><stop offset="0" stop-color="#cdff9b"/><stop offset="1" stop-color="#437810"/></linearGradient><linearGradient x1="20.786" x2="20.786" y1="-.3" y2="41.585" xlink:href="#a" gradientUnits="userSpaceOnUse"/><radialGradient id="d" cx="20.786" cy="20.643" r="20.214" xlink:href="#b" fx="20.786" fy="20.643" gradientUnits="userSpaceOnUse"/><linearGradient id="e" x1="20.786" x2="20.786" y1="-1.553" y2="42.839" xlink:href="#c" gradientUnits="userSpaceOnUse"/></defs><g><path fill="url(#d)" d="M41 20.64a20.2 20.2 0 1 1-40.43 0 20.2 20.2 0 1 1 40.43 0z" transform="matrix(.322 0 0 .101 1.245 11.885)" color="#000" overflow="visible"/><path fill="#3d76c0" stroke="#204a87" stroke-width=".96.11" d="M14.52 8A6.5 6.5 0 1 1 1.5 8a6.5 6.5 0 1 1 13.02 0z" color="#000" overflow="visible"/><path fill="none" stroke="url(#e)" stroke-width="3.699" d="M41 20.64a20.2 20.2 0 1 1-40.43 0 20.2 20.2 0 1 1 40.43 0z" transform="matrix(.27 0 0 .27 2.381 2.42)" color="#000" overflow="visible"/><path fill="#fff" d="M6.07 5.03h4.28v1.2h-2.7v1.15h2.54v1.2H7.65v2.6h-1.6V5.03z" style="text-align:start;line-height:100%" font-size="28" font-weight="bold" font-family="Bitstream Vera Sans"/></g></svg>