<svg xmlns="http://www.w3.org/2000/svg" width="16" height="16" xmlns:xlink="http://www.w3.org/1999/xlink"><defs><linearGradient id="b"><stop offset="0" stop-color="#fff" stop-opacity=".649"/><stop offset="1" stop-color="#eeeeec" stop-opacity="0"/></linearGradient><linearGradient id="a"><stop offset="0"/><stop offset="1" stop-opacity="0"/></linearGradient><linearGradient><stop offset="0" stop-color="#fff" stop-opacity="0"/><stop offset=".5" stop-color="#fff" stop-opacity="0"/><stop offset="1" stop-color="#fff" stop-opacity=".722"/></linearGradient><linearGradient><stop offset="0" stop-color="#2e3436"/><stop offset=".75" stop-color="#2e3436"/><stop offset="1" stop-color="#2e3436" stop-opacity="0"/></linearGradient><linearGradient><stop offset="0" stop-color="#cdff9b"/><stop offset="1" stop-color="#437810"/></linearGradient><radialGradient id="c" cx="20.786" cy="20.643" r="20.214" xlink:href="#a" fx="20.786" fy="20.643" gradientUnits="userSpaceOnUse"/><linearGradient id="d" x1="20.786" x2="20.786" y1="-1.553" y2="42.839" xlink:href="#b" gradientUnits="userSpaceOnUse"/></defs><g><path fill="url(#c)" d="M41 20.64a20.2 20.2 0 1 1-40.43 0 20.2 20.2 0 1 1 40.43 0z" transform="matrix(.322 0 0 .101 1.245 11.885)" color="#000" overflow="visible"/><path fill="#75507b" stroke="#5c3566" stroke-width=".96.11" d="M14.52 8A6.5 6.5 0 1 1 1.5 8a6.5 6.5 0 1 1 13.02 0z" color="#000" overflow="visible"/><path fill="none" stroke="url(#d)" stroke-width="3.699" d="M41 20.64a20.2 20.2 0 1 1-40.43 0 20.2 20.2 0 1 1 40.43 0z" transform="matrix(.27 0 0 .27 2.381 2.42)" color="#000" overflow="visible"/><path fill="#fff" d="M5.17 5.32h1.7l1.2 2.78 1.18-2.78h1.7v5.2H9.7V6.7L8.5 9.5h-.86l-1.2-2.8v3.8H5.17V5.3z" style="text-align:start;line-height:100%" font-size="28" font-weight="bold" font-family="Bitstream Vera Sans"/></g></svg>