<svg xmlns="http://www.w3.org/2000/svg" width="16" height="16" xmlns:xlink="http://www.w3.org/1999/xlink" version="1"><defs><linearGradient id="h"><stop offset="0" stop-color="#fff" stop-opacity=".748"/><stop offset="1" stop-color="#fff" stop-opacity="0"/></linearGradient><linearGradient id="c"><stop offset="0" stop-opacity=".67"/><stop offset="1" stop-opacity="0"/></linearGradient><linearGradient><stop offset="0" stop-color="#424242"/><stop offset="1" stop-color="#777"/></linearGradient><linearGradient id="b"><stop offset="0" stop-color="#fff"/><stop offset="1" stop-color="#fff" stop-opacity="0"/></linearGradient><linearGradient id="a"><stop offset="0" stop-color="#939393"/><stop offset="1" stop-color="#e6e6e6"/></linearGradient><radialGradient id="i" cx="20.706" cy="37.518" r="30.905" xlink:href="#a" gradientUnits="userSpaceOnUse" gradientTransform="matrix(.395 -.01 .067 .443 -2.158 -3.228)" fx="20.706" fy="37.518"/><linearGradient x1="13.036" x2="12.854" y1="32.567" y2="46.689" gradientUnits="userSpaceOnUse" gradientTransform="matrix(.444 0 0 .279 4.895 10.59)" xlink:href="#b"/><radialGradient cx="24.351" cy="41.592" r="19.136" xlink:href="#c" fx="24.351" fy="41.592" gradientTransform="matrix(1 0 0 .242 0 31.506)" gradientUnits="userSpaceOnUse"/><linearGradient x1="9.577" x2="12.694" y1=".522" y2="4.892" gradientTransform="translate(17.713 -1.247)" xlink:href="#d" gradientUnits="userSpaceOnUse"/><linearGradient id="d"><stop offset="0" stop-color="#6c7a7f"/><stop offset="1" stop-color="#2e3436"/></linearGradient><linearGradient x1="5.334" x2="9" y1=".206" y2="15.523" xlink:href="#e" gradientUnits="userSpaceOnUse"/><linearGradient id="e"><stop offset="0" stop-color="#e4b1ff"/><stop offset="1" stop-color="#f5ebfc"/></linearGradient><linearGradient x1="2" x2="14" y1="8" y2="8" xlink:href="#d" gradientUnits="userSpaceOnUse"/><linearGradient><stop offset="0" stop-color="#6c7a7f"/><stop offset="1" stop-color="#2e3436"/></linearGradient><linearGradient x1="5.334" x2="9" y1=".206" y2="15.523" gradientTransform="translate(17.713 -1.247)" gradientUnits="userSpaceOnUse" xlink:href="#e"/><linearGradient x1="2" x2="14" y1="8" y2="8" gradientTransform="translate(17.713 -1.247)" gradientUnits="userSpaceOnUse" xlink:href="#d"/><linearGradient id="j" x1="5.334" x2="9" y1=".206" y2="15.523" gradientTransform="translate(17.713 -1.247)" gradientUnits="userSpaceOnUse" xlink:href="#f"/><linearGradient id="f"><stop offset="0" stop-color="#e4b1ff"/><stop offset="1" stop-color="#f5ebfc"/></linearGradient><linearGradient id="g"><stop offset="0" stop-color="#6c7a7f"/><stop offset="1" stop-color="#2e3436"/></linearGradient><linearGradient x1="5.334" x2="9" y1=".206" y2="15.523" gradientTransform="translate(-2)" gradientUnits="userSpaceOnUse" xlink:href="#f"/><linearGradient x1="2" x2="14" y1="8" y2="8" gradientTransform="translate(-2)" gradientUnits="userSpaceOnUse" xlink:href="#g"/><linearGradient id="k" x1="9.099" x2="8.577" y1="6.382" y2="13.561" xlink:href="#h" gradientUnits="userSpaceOnUse" gradientTransform="matrix(1 0 0 .978 0 .294)"/></defs><g><path fill="url(#i)" stroke="#888a85" d="M.88 13.8c0 .16.17.32.32.32h11.75c.15 0 .3-.16.3-.3l-.7-10.03c0-.17-.17-.32-.33-.32H7.6c-.2 0-.48-.12-.54-.4l-.23-1.2c-.05-.27-.33-.38-.48-.38H.8c-.15 0-.3.15-.3.3l.38 12z" stroke-linecap="round" stroke-linejoin="round"/><path fill="url(#j)" fill-rule="evenodd" stroke="#555753" stroke-dashoffset=".5" d="M14.1 14.1c.42 0 .73-.4.76-.85.3-4.3.62-7.53.62-7.53.03-.1-.06-.2-.18-.2H2.55s-.82 7.78-.82 7.78c-.05.37-.18.67-.6.8H14.1z" color="#000" overflow="visible" enable-background="accumulate"/><path fill="none" stroke="url(#k)" d="M2.7 13.3l.73-6.82 10.93.04-.6 6.75"/><path fill="none" stroke="#75507b" stroke-width=".5" d="M6.95 5.92l1.8 1.3 1.8-1.25" color="#000" overflow="visible" enable-background="accumulate"/><path fill="none" stroke="#75507b" stroke-width=".5" d="M8.73 7v1.64" color="#000" overflow="visible" enable-background="accumulate"/><rect width="4.927" height="1.989" x="6.301" y="8.66" fill="none" stroke="#75507b" stroke-width=".5" ry="0" overflow="visible" enable-background="accumulate" color="#000"/><path fill="none" stroke="#75507b" stroke-width=".5" d="M7.3 13.66c0-.8.68-1.46 1.52-1.46s1.52.65 1.52 1.46" color="#000" overflow="visible" enable-background="accumulate"/><path fill="none" stroke="#75507b" stroke-width=".5" d="M8.76 10.66v1.4" color="#000" overflow="visible" enable-background="accumulate"/><path fill="none" stroke="#75507b" stroke-width=".5" d="M11.18 9.52h3.57" color="#000" overflow="visible" enable-background="accumulate"/></g></svg>