<svg xmlns="http://www.w3.org/2000/svg" width="16" height="16" xmlns:xlink="http://www.w3.org/1999/xlink"><defs><linearGradient id="b"><stop offset="0" stop-color="#c4a000"/><stop offset="1" stop-color="#3b3000"/></linearGradient><linearGradient id="a"><stop offset="0" stop-color="#fffcdf"/><stop offset="1" stop-color="#fff07f"/></linearGradient><linearGradient x1=".204" x2="45.637" y1="23.287" y2="23.287" xlink:href="#a" gradientUnits="userSpaceOnUse"/><linearGradient id="c" x1=".143" x2="48.143" y1="12.857" y2="35.571" xlink:href="#a" gradientUnits="userSpaceOnUse" gradientTransform="matrix(.216 -.214 .219 .217 -2.464 39.365)"/><linearGradient id="d" x1=".5" x2="47.5" y1="12.857" y2="35.571" xlink:href="#b" gradientUnits="userSpaceOnUse" gradientTransform="matrix(.22 -.218 .219 .217 -2.544 39.443)"/></defs><g transform="translate(0 -32)"><path fill="url(#c)" stroke="url(#d)" stroke-width=".5" d="M.38 42.13l9.15-9.07h2.43l3.76 3.74L5.36 47.06.38 42.13z" overflow="visible" enable-background="accumulate"/><rect width="7.565" height="5.357" x="-28.66" y="31.035" fill="none" stroke="#c4a000" stroke-width=".5" ry="1.362" overflow="visible" enable-background="accumulate" transform="matrix(.71 -.704 .71 .704 0 0)"/><rect width="3.718" height="5.357" x="-20.497" y="31.035" fill="none" stroke="#c4a000" stroke-width=".5" ry="1.362" overflow="visible" enable-background="accumulate" transform="matrix(.71 -.704 .71 .704 0 0)"/><rect width=".855" height="1.743" x="-27.891" y="31.652" fill="#2e3436" ry="0" transform="matrix(.71 -.704 .71 .704 0 0)" overflow="visible" enable-background="accumulate"/><rect width=".855" height="1.743" x="-26.51" y="31.669" fill="#2e3436" ry="0" transform="matrix(.71 -.704 .71 .704 0 0)" overflow="visible" enable-background="accumulate"/><rect width=".855" height="1.743" x="-25.286" y="33.984" fill="#2e3436" ry="0" transform="matrix(.71 -.704 .71 .704 0 0)" overflow="visible" enable-background="accumulate"/><rect width=".855" height="1.743" x="-24.016" y="31.699" fill="#2e3436" ry="0" transform="matrix(.71 -.704 .71 .704 0 0)" overflow="visible" enable-background="accumulate"/><rect width=".855" height="1.743" x="-22.762" y="33.954" fill="#2e3436" ry="0" transform="matrix(.71 -.704 .71 .704 0 0)" overflow="visible" enable-background="accumulate"/><rect width=".855" height="1.743" x="-19.755" y="31.669" fill="#2e3436" ry="0" transform="matrix(.71 -.704 .71 .704 0 0)" overflow="visible" enable-background="accumulate"/><rect width=".855" height="1.743" x="-19.77" y="34.014" fill="#2e3436" ry="0" transform="matrix(.71 -.704 .71 .704 0 0)" overflow="visible" enable-background="accumulate"/><rect width=".855" height="1.743" x="-18.305" y="33.969" fill="#2e3436" ry="0" transform="matrix(.71 -.704 .71 .704 0 0)" overflow="visible" enable-background="accumulate"/></g></svg>