<svg xmlns="http://www.w3.org/2000/svg" width="16" height="16" xmlns:xlink="http://www.w3.org/1999/xlink"><defs><linearGradient id="e"><stop offset="0"/><stop offset="1" stop-opacity="0"/></linearGradient><linearGradient id="d"><stop offset="0" stop-color="#8b0000"/><stop offset="1" stop-color="#a40000" stop-opacity="0"/></linearGradient><linearGradient id="c"><stop offset="0"/><stop offset="1" stop-opacity=".052"/></linearGradient><linearGradient id="b"><stop offset="0" stop-color="#fff"/><stop offset="1" stop-color="#babab1"/></linearGradient><linearGradient id="a"><stop offset="0" stop-color="#838681"/><stop offset="1"/></linearGradient><linearGradient><stop offset="0" stop-color="#444"/><stop offset="1"/></linearGradient><linearGradient><stop offset="0" stop-color="#4b5558"/><stop offset="1"/></linearGradient><linearGradient><stop offset="0" stop-color="#fff"/><stop offset="1" stop-color="#cecec8"/></linearGradient><linearGradient><stop offset="0" stop-color="#c6cdcf"/><stop offset="1" stop-color="#2e3436"/></linearGradient><linearGradient x1="7.999" x2="7.999" y1="3" y2="13" xlink:href="#a" gradientUnits="userSpaceOnUse" gradientTransform="matrix(.867 0 0 .889 1.067 .389)"/><linearGradient x1="10.226" x2="10.276" y1="4.036" y2="11.829" xlink:href="#b" gradientUnits="userSpaceOnUse" gradientTransform="matrix(.867 0 0 .889 1.067 .389)"/><radialGradient cx="8" cy="8.75" r="8" xlink:href="#c" fx="8" fy="8.75" gradientTransform="matrix(1.163 0 0 .689 -1.306 2.717)" gradientUnits="userSpaceOnUse"/><linearGradient id="f" x1="11.724" x2="5.777" y1="5.003" y2="11.135" xlink:href="#d" gradientUnits="userSpaceOnUse"/><linearGradient id="g" x1="6.397" x2="11.803" y1="11.72" y2="15.91" xlink:href="#e" gradientUnits="userSpaceOnUse"/></defs><g><path fill="none" stroke="#2e3436" d="M13.3 11.33H5.77l.06-7.65"/><path fill="#2e3436" fill-rule="evenodd" d="M5.96 0l2.2 4.17-4.53-.08L5.96 0z" color="#000" overflow="visible"/><path fill="#2e3436" fill-rule="evenodd" d="M16 11.38l-3.97 2.05.06-4.2 3.9 2.15z" color="#000" overflow="visible"/><path fill="none" stroke="#2e3436" d="M6 11l-5 4" color="#000" overflow="visible"/><path fill="#2e3436" fill-rule="evenodd" d="M0 16l1.48-4.2 2.84 3.08L0 16z" color="#000" overflow="visible"/><path fill="#ef2929" fill-rule="evenodd" stroke="url(#f)" d="M5.8 11.1l4.74-7.13-2.04-1.5L15.58.63l.06 6.8-2-1.4-7.83 5.05z"/><path fill="url(#g)" fill-rule="evenodd" d="M6.67 11.6l-.88.15 3.25 2.63-2.1.85 5.44.68-.06-2.74-1.53.54-4.13-2.1z"/></g></svg>