<svg xmlns="http://www.w3.org/2000/svg" width="16" height="16"><g><rect width="15" height="9.166" x=".5" y="3.481" fill="#fff" stroke="#2e3436" ry="0" color="#000" overflow="visible" enable-background="accumulate"/><path fill="#2e3436" d="M1.52 10.3l1.5-5.38H4L2.5 10.3z" style="line-height:125%" font-size="7.266" letter-spacing="0" word-spacing="0" font-family="Sans"/><path fill="#555753" d="M6.7 9.74c-.24.2-.47.35-.68.43-.22.08-.46.12-.7.12-.42 0-.74-.1-.96-.3-.23-.2-.34-.47-.34-.78 0-.2.05-.36.13-.5.08-.16.2-.3.33-.38.14-.1.3-.16.46-.2.12-.04.3-.07.57-.1.52-.06.9-.14 1.15-.22 0-.1 0-.15 0-.17 0-.26-.06-.44-.18-.55-.16-.14-.4-.22-.73-.22-.3 0-.52.06-.66.16-.15.1-.25.3-.32.56l-.63-.08c.06-.27.15-.5.28-.65.14-.17.33-.3.58-.38.24-.1.53-.14.85-.14.32 0 .6.03.8.1.2.08.34.18.43.3.1.1.16.25.2.43.02.1.03.3.03.58v.85c0 .6 0 .97.03 1.13.03.15.08.3.16.45h-.67c-.07-.12-.1-.28-.13-.46zm-.05-1.42c-.24.1-.58.17-1.05.24-.26.04-.45.08-.55.13-.1.03-.2.1-.26.2-.07.1-.1.2-.1.3 0 .17.07.3.2.42s.32.17.56.17c.25 0 .47-.06.66-.17.2-.1.33-.25.42-.44.07-.15.1-.37.1-.65z" style="line-height:125%" font-size="7.266" letter-spacing="0" word-spacing="0" font-family="Sans"/><path fill="#555753" d="M11.77 10.2h-.6V5h.64v1.86c.28-.34.63-.5 1.05-.5.23 0 .45.04.65.14s.38.22.52.4c.13.16.23.36.3.6.08.24.12.5.12.77 0 .64-.16 1.14-.48 1.5-.32.35-.7.52-1.15.52-.43 0-.78-.2-1.03-.56zm0-1.9c0 .45.05.77.17.98.2.32.48.5.82.5.28 0 .52-.13.72-.37.2-.24.3-.6.3-1.08 0-.5-.1-.85-.28-1.1-.2-.22-.43-.34-.7-.34-.3 0-.53.12-.73.36-.2.25-.3.6-.3 1.06z" style="line-height:125%" font-size="7.266" letter-spacing="0" word-spacing="0" font-family="Sans"/><path fill="#2e3436" d="M8 10.3l1.5-5.38h.95l-1.5 5.38z" style="line-height:125%" font-size="7.266" letter-spacing="0" word-spacing="0" font-family="Sans"/></g></svg>