<svg xmlns="http://www.w3.org/2000/svg" width="16" height="16" xmlns:xlink="http://www.w3.org/1999/xlink"><defs><linearGradient id="f"><stop offset="0" stop-opacity=".117"/><stop offset="1" stop-opacity="0"/></linearGradient><linearGradient id="e"><stop offset="0" stop-color="#2e3436"/><stop offset="1" stop-color="#2e3436" stop-opacity="0"/></linearGradient><linearGradient id="d"><stop offset="0"/><stop offset="1" stop-opacity="0"/></linearGradient><linearGradient id="c"><stop offset="0" stop-color="#eeeeec"/><stop offset="1" stop-color="#eeeeec" stop-opacity="0"/></linearGradient><linearGradient><stop offset="0" stop-color="#fff"/><stop offset="1" stop-color="#cecec8"/></linearGradient><linearGradient id="b"><stop offset="0" stop-color="#c6cdcf"/><stop offset="1" stop-color="#2e3436"/></linearGradient><linearGradient id="a"><stop offset="0" stop-color="#eeeeec"/><stop offset="1" stop-color="#eeeeec" stop-opacity="0"/></linearGradient><linearGradient x1="7.757" x2="8.513" y1="5" y2="11" xlink:href="#a" gradientUnits="userSpaceOnUse"/><radialGradient cx="8" cy="8" r="8" xlink:href="#b" fx="8" fy="8" gradientUnits="userSpaceOnUse" gradientTransform="matrix(.875 0 0 .875 1 1)"/><linearGradient x1="8" x2="8" y1="1" y2="18.649" xlink:href="#c" gradientUnits="userSpaceOnUse"/><linearGradient x1="7.997" x2="12.861" y1="7.959" y2="12.959" xlink:href="#d" gradientUnits="userSpaceOnUse"/><linearGradient x1="8.154" x2="12.829" y1="7.752" y2="13.383" xlink:href="#e" gradientUnits="userSpaceOnUse"/><linearGradient id="g" x2="16" y1="8" y2="8" xlink:href="#f" gradientUnits="userSpaceOnUse"/></defs><g><path fill="url(#g)" fill-rule="evenodd" d="M.5.5h15v15H.5z" color="#000" overflow="visible"/><path fill="none" stroke="#000" stroke-width=".7" d="M1.56 14.4c3.6-.4 8.5-.74 10.33-3.22 1.83-2.53 2.1-6.13 2.5-9.58" stroke-linecap="round"/><g fill="#204a87" font-size="12" font-family="Century"><path d="M6.5 6.87c.2 0 .4.07.54.23.14.15.22.33.22.54 0 .22-.08.4-.22.56-.15.15-.33.23-.55.23-.22 0-.4-.08-.55-.23-.15-.15-.22-.34-.22-.55 0-.22.07-.4.22-.55.15-.16.33-.23.55-.23z" style="text-align:start;line-height:125%"/><path d="M8.1 4.76c.26-.34.53-.58.8-.73.3-.15.6-.22.93-.22.54 0 1 .2 1.36.56.36.37.54.83.54 1.4 0 .66-.22 1.22-.65 1.67-.44.45-.98.67-1.62.67-.45 0-.85-.12-1.2-.36s-.64-.6-.86-1.12c-.23-.5-.34-1.1-.34-1.78 0-.73.14-1.4.4-2 .3-.6.64-1.04 1.06-1.34.43-.3.87-.44 1.33-.44.48 0 .88.13 1.22.4.26.2.4.45.4.75 0 .2-.06.37-.18.5s-.27.2-.45.2c-.16 0-.3-.06-.42-.17-.1-.1-.17-.24-.17-.38 0-.1.04-.2.12-.33.07-.12.1-.2.1-.27 0-.1-.04-.17-.13-.23-.12-.07-.28-.1-.48-.1-.33 0-.62.1-.88.3-.26.2-.48.53-.66 1-.18.5-.27 1.04-.27 1.64 0 .1 0 .22 0 .4zm1.46-.47c-.4 0-.74.14-1 .43-.26.3-.4.7-.4 1.24 0 .58.14 1.03.4 1.33.24.3.56.46.95.46.4 0 .7-.14.94-.43.23-.3.35-.73.35-1.3 0-.6-.12-1.06-.34-1.33-.2-.28-.52-.4-.9-.4z" style="text-align:start;line-height:125%"/><path d="M3.5 1.15c.62 0 1.14.24 1.56.73.5.6.77 1.5.77 2.74 0 1.13-.22 2-.67 2.6-.45.58-1 .88-1.63.88-.62 0-1.13-.25-1.54-.75-.53-.63-.8-1.53-.8-2.72 0-1.12.26-2.02.74-2.68.4-.54.9-.8 1.55-.8zm.02.34c-.43 0-.76.2-1 .6-.24.4-.35 1.25-.35 2.53 0 1.26.12 2.1.36 2.5.25.43.58.64 1 .64.4 0 .74-.2.96-.58.26-.47.4-1.3.4-2.53 0-1.26-.13-2.1-.38-2.53-.26-.43-.6-.65-1-.65z" style="text-align:start;line-height:125%"/></g></g></svg>