<svg xmlns="http://www.w3.org/2000/svg" width="16" height="16"><g fill="#204a87" font-size="12" font-family="Century"><path d="M8 10.8c.33 0 .6.12.83.36.23.23.34.5.34.83 0 .32-.1.6-.34.84-.22.23-.5.34-.83.34-.32 0-.6-.1-.82-.34-.23-.24-.35-.52-.35-.84 0-.33.12-.6.35-.84.23-.24.5-.35.83-.35z" style="text-align:start;line-height:125%"/><path d="M10.46 7.6c.4-.53.8-.9 1.22-1.12.43-.23.9-.34 1.4-.34.84 0 1.53.28 2.1.84.55.56.83 1.27.83 2.12 0 1.03-.32 1.9-.98 2.57-.66.68-1.48 1.02-2.46 1.02-.68 0-1.3-.2-1.83-.56-.54-.37-.97-.94-1.3-1.7-.36-.8-.53-1.7-.53-2.72 0-1.12.2-2.14.63-3.05.42-.9.95-1.6 1.6-2.04.65-.46 1.32-.68 2.03-.68.73 0 1.34.2 1.85.6.43.32.64.7.64 1.16 0 .3-.1.56-.28.75-.18.2-.4.3-.68.3-.25 0-.46-.1-.64-.25-.17-.17-.26-.36-.26-.6 0-.13.06-.3.18-.5.1-.17.16-.3.16-.4 0-.14-.07-.26-.2-.35-.18-.1-.42-.17-.74-.17-.48 0-.92.15-1.32.46-.4.3-.73.82-1 1.56-.28.74-.42 1.57-.42 2.5 0 .12 0 .32.02.6zm2.22-.73c-.62 0-1.13.23-1.52.68-.4.45-.6 1.08-.6 1.9 0 .88.2 1.56.58 2.02.38.47.87.7 1.46.7.6 0 1.06-.22 1.42-.66.36-.43.53-1.1.53-1.97 0-.94-.16-1.6-.5-2.03-.32-.42-.78-.63-1.37-.63z" style="text-align:start;line-height:125%"/><path d="M3.42 2.08c.96 0 1.76.37 2.4 1.12C6.62 4.12 7 5.5 7 7.37c0 1.74-.34 3.05-1.03 3.96-.7.9-1.52 1.36-2.5 1.36-.93 0-1.7-.4-2.34-1.15C.35 10.6-.04 9.2-.04 7.4c0-1.7.37-3.08 1.1-4.1.6-.8 1.4-1.22 2.36-1.22zm.05.53c-.65 0-1.16.32-1.52.94-.36.62-.54 1.9-.54 3.86 0 1.9.2 3.18.57 3.82.37.64.88.96 1.5.96.65 0 1.14-.3 1.48-.88.4-.7.6-2 .6-3.85 0-1.92-.18-3.2-.56-3.86-.4-.66-.9-1-1.53-1z" style="text-align:start;line-height:125%"/></g></svg>