<svg xmlns="http://www.w3.org/2000/svg" width="16" height="16" xmlns:xlink="http://www.w3.org/1999/xlink" version="1"><defs><linearGradient id="d"><stop offset="0" stop-color="#ffe167"/><stop offset="1" stop-color="#fc0"/></linearGradient><linearGradient id="b"><stop offset="0" stop-opacity=".67"/><stop offset="1" stop-opacity="0"/></linearGradient><linearGradient><stop offset="0" stop-color="#424242"/><stop offset="1" stop-color="#777"/></linearGradient><linearGradient id="c"><stop offset="0" stop-color="#fff"/><stop offset="1" stop-color="#fff" stop-opacity="0"/></linearGradient><linearGradient id="a"><stop offset="0" stop-color="#939393"/><stop offset="1" stop-color="#e6e6e6"/></linearGradient><radialGradient id="e" cx="20.706" cy="37.518" r="30.905" xlink:href="#a" gradientUnits="userSpaceOnUse" gradientTransform="matrix(.395 -.01 .067 .443 -2.158 -3.228)" fx="20.706" fy="37.518"/><radialGradient cx="24.351" cy="41.592" r="19.136" xlink:href="#b" fx="24.351" fy="41.592" gradientTransform="matrix(1 0 0 .242 0 31.506)" gradientUnits="userSpaceOnUse"/><linearGradient id="g" x1="13.036" x2="12.854" y1="32.567" y2="46.689" xlink:href="#c" gradientUnits="userSpaceOnUse" gradientTransform="matrix(.444 0 0 .279 -.216 .094)"/><linearGradient id="f" x1="9.072" x2="9.275" y1="6" y2="13.687" xlink:href="#d" gradientUnits="userSpaceOnUse"/></defs><g><path fill="url(#e)" stroke="#888a85" d="M.88 13.8c0 .16.17.32.32.32h11.75c.15 0 .3-.16.3-.3l-.7-10.03c0-.17-.17-.32-.33-.32H7.6c-.2 0-.48-.12-.54-.4l-.23-1.2c-.05-.27-.33-.38-.48-.38H.8c-.15 0-.3.15-.3.3l.38 12z" stroke-linecap="round" stroke-linejoin="round"/><path fill="url(#f)" stroke="#ae8c00" d="M14.1 14.1c.42 0 .73-.4.76-.85.3-4.3.62-7.53.62-7.53.03-.1-.06-.2-.18-.2H2.55s-.82 7.78-.82 7.78c-.05.37-.18.67-.6.8H14.1z" color="#000" stroke-linejoin="round" display="block"/><path fill="none" stroke="url(#g)" d="M3.4 6.57h10.96l-.53 6.48c-.03.36-.15.5-.63.5-.63 0-9.66-.03-10.57-.03.08-.1.1-.33.1-.34l.67-6.6z" opacity=".466" stroke-linecap="round"/></g></svg>