<svg xmlns="http://www.w3.org/2000/svg" width="16" height="16" xmlns:xlink="http://www.w3.org/1999/xlink"><defs><linearGradient id="f"><stop offset="0" stop-opacity=".117"/><stop offset="1" stop-opacity="0"/></linearGradient><linearGradient id="e"><stop offset="0" stop-color="#2e3436"/><stop offset="1" stop-color="#2e3436" stop-opacity="0"/></linearGradient><linearGradient id="d"><stop offset="0"/><stop offset="1" stop-opacity="0"/></linearGradient><linearGradient id="c"><stop offset="0" stop-color="#eeeeec"/><stop offset="1" stop-color="#eeeeec" stop-opacity="0"/></linearGradient><linearGradient><stop offset="0" stop-color="#fff"/><stop offset="1" stop-color="#cecec8"/></linearGradient><linearGradient id="b"><stop offset="0" stop-color="#c6cdcf"/><stop offset="1" stop-color="#2e3436"/></linearGradient><linearGradient id="a"><stop offset="0" stop-color="#eeeeec"/><stop offset="1" stop-color="#eeeeec" stop-opacity="0"/></linearGradient><linearGradient x1="7.757" x2="8.513" y1="5" y2="11" xlink:href="#a" gradientUnits="userSpaceOnUse"/><radialGradient cx="8" cy="8" r="8" xlink:href="#b" fx="8" fy="8" gradientUnits="userSpaceOnUse" gradientTransform="matrix(.875 0 0 .875 1 1)"/><linearGradient x1="8" x2="8" y1="1" y2="18.649" xlink:href="#c" gradientUnits="userSpaceOnUse"/><linearGradient x1="7.997" x2="12.861" y1="7.959" y2="12.959" xlink:href="#d" gradientUnits="userSpaceOnUse"/><linearGradient x1="8.154" x2="12.829" y1="7.752" y2="13.383" xlink:href="#e" gradientUnits="userSpaceOnUse"/><linearGradient id="g" x2="16" y1="8" y2="8" xlink:href="#f" gradientUnits="userSpaceOnUse"/></defs><g><path fill="url(#g)" fill-rule="evenodd" d="M.5.5h15v15H.5z" color="#000" overflow="visible"/><path fill="none" stroke="#000" stroke-width=".7" d="M1.56 14.4c3.6-.4 8.5-.74 10.33-3.22 1.83-2.53 2.1-6.13 2.5-9.58" stroke-linecap="round"/><g fill="#2b5503" font-size="15.277" font-family="Century"><path d="M4.76 1.3h.33v4.8h1.16v.44H5.1v1.1c0 .08.02.16.1.22.1.07.23.1.38.1H6v.4H3.2v-.4h.53c.18 0 .3-.02.4-.1.08-.07.12-.18.12-.32v-1H1.34v-.5L4.76 1.3zm-.54 1.38L1.76 6.1h2.46V2.7z" style="text-align:start;line-height:125%"/><path d="M7.6 7.24c-.14.2.63.3 2.32.3.26 0 .44-.07.55-.2.1-.13.23-.5.37-1.1h.35L11 8.34H6.46V8.1L7.94 6.4c.83-.9 1.32-1.46 1.5-1.7.23-.32.4-.64.5-.95.12-.3.17-.58.17-.84 0-.4-.1-.73-.33-.97-.24-.24-.56-.36-.97-.36-.46 0-.83.1-1.13.33-.3.22-.43.46-.43.7 0 .1.02.15.06.2.04.04.13.08.27.1.34.1.5.3.5.62 0 .17-.05.3-.16.43-.1.1-.26.17-.44.17-.2 0-.38-.1-.54-.3-.16-.18-.23-.43-.23-.74 0-.35.08-.66.25-.95.18-.28.45-.5.8-.7.37-.18.76-.27 1.17-.27.4 0 .8.1 1.14.27.35.18.62.4.8.7.17.28.26.6.26.93 0 .24-.05.47-.13.7-.1.26-.23.48-.4.7-.3.35-.6.67-.9.92L8.36 6.5c-.34.3-.6.54-.75.74z" style="text-align:start;line-height:125%"/></g></g></svg>