<svg xmlns="http://www.w3.org/2000/svg" width="16" height="16"><g><path d="M0 3.33h4v.44h-.95c-.15 0-.26.04-.33.12-.08.07-.1.2-.1.37v6.84c0 .17.03.3.13.36.1.07.27.1.55.1h1.22c.65 0 1.18-.22 1.6-.65.4-.42.7-1.17.9-2.23h.4L7.22 12H0v-.44h.7c.25 0 .42-.05.52-.14.1-.1.15-.24.15-.44V4.2c0-.13-.05-.24-.13-.32-.08-.07-.2-.1-.36-.1H0v-.45z" style="text-align:start;line-height:125%" font-size="12" font-family="Century"/><path fill="none" stroke="#2e3436" stroke-dashoffset=".5" d="M10.5 1.5h6v12h-6z" color="#000" stroke-dasharray="1.00000024,1.00000024" overflow="visible"/></g></svg>