<svg xmlns="http://www.w3.org/2000/svg" width="16" height="16" xmlns:xlink="http://www.w3.org/1999/xlink"><defs><linearGradient id="d"><stop offset="0" stop-color="#bec6c8"/><stop offset="1" stop-color="#444c4f"/></linearGradient><linearGradient id="c"><stop offset="0" stop-color="#b0c9e4"/><stop offset="1" stop-color="#729fcf"/></linearGradient><linearGradient><stop offset="0" stop-color="#ff4242"/><stop offset=".135" stop-color="#fff942"/><stop offset=".505" stop-color="#42fff9"/><stop offset=".78" stop-color="#40b1ff"/><stop offset="1" stop-color="#ff4242"/></linearGradient><linearGradient id="b"><stop offset="0" stop-color="#eab8b8"/><stop offset="1" stop-color="#f2d5d5"/></linearGradient><linearGradient id="a"><stop offset="0" stop-color="#fff"/><stop offset="1" stop-color="#c87070"/></linearGradient><linearGradient id="h" x1="7.626" x2="14.492" y1=".005" y2=".005" xlink:href="#a" gradientUnits="userSpaceOnUse" gradientTransform="matrix(.806 0 0 .806 16.486 -12.346)"/><linearGradient x1="1.873" x2="20.755" y1=".037" y2=".037" xlink:href="#b" gradientUnits="userSpaceOnUse" gradientTransform="matrix(.806 0 0 .806 16.307 -12.321)"/><radialGradient id="e" cx="3.233" cy="2.836" r="6.432" xlink:href="#c" fx="3.233" fy="2.836" gradientTransform="matrix(1 0 0 .853 0 .859)" gradientUnits="userSpaceOnUse"/><linearGradient id="f" x1="2.328" x2="11.987" y1=".963" y2="12.766" xlink:href="#d" gradientUnits="userSpaceOnUse"/><linearGradient id="g" x1="1.873" x2="20.755" y1=".037" y2=".037" xlink:href="#b" gradientUnits="userSpaceOnUse" gradientTransform="matrix(.806 0 0 .806 16.307 -12.321)"/></defs><g><path fill="#c00" fill-rule="evenodd" d="M13.3 3.53c.73 1.1 1.15 2.42 1.15 3.83 0 3.87-3.13 7-7 7-2.4 0-4.5-1.2-5.76-3.03" color="#000" overflow="visible" enable-background="accumulate"/><path fill="url(#e)" fill-rule="evenodd" d="M1.7 11.33C.9 10.2.44 8.83.44 7.36c0-3.87 3.13-7 7-7 2.45 0 4.6 1.26 5.86 3.17" color="#000" overflow="visible" enable-background="accumulate"/><path fill="#eeeeec" d="M.68 9.06C5.13 8.3 9.46 5.5 11.44 1.8c1.22.9 1.97 1.8 2.7 3.66C12 9.58 7.1 13.04 3.52 13.34 2.28 12.17 1.2 10.84.7 9.06z"/><path fill="none" stroke="url(#f)" stroke-width=".75" d="M14 7A7 7 0 1 1 0 7a7 7 0 1 1 14 0z" transform="translate(.405 .36)" color="#000" overflow="visible" enable-background="accumulate"/><g transform="matrix(.957 .289 -.289 .957 -12.491 -7.8)" color="#000"><rect width="14.816" height="6.742" x="18.018" y="-15.662" fill="url(#g)" fill-rule="evenodd" stroke="#d59191" stroke-width=".5" ry="3.371" transform="rotate(45)" overflow="visible" enable-background="accumulate"/><rect width="5.131" height="5.415" x="22.834" y="-15.049" fill="none" stroke="url(#h)" stroke-width=".75" ry="1.154" overflow="visible" enable-background="accumulate" transform="rotate(45)"/><path fill="#b98585" d="M24.85 4.26c0 .33-.26.6-.6.6-.33 0-.6-.27-.6-.6 0-.33.27-.6.6-.6.34 0 .6.27.6.6z" overflow="visible" enable-background="accumulate"/><path fill="#b98585" d="M24.2 5.9c0 .32-.27.6-.6.6-.33 0-.6-.28-.6-.6 0-.34.27-.6.6-.6.33 0 .6.26.6.6z" overflow="visible" enable-background="accumulate"/><path fill="#b98585" d="M22.42 6.47c0 .33-.27.6-.6.6-.33 0-.6-.27-.6-.6 0-.33.27-.6.6-.6.33 0 .6.27.6.6z" overflow="visible" enable-background="accumulate"/><path fill="#b98585" d="M23.62 7.67c0 .33-.27.6-.6.6-.33 0-.6-.27-.6-.6 0-.33.27-.6.6-.6.33 0 .6.27.6.6z" overflow="visible" enable-background="accumulate"/><path fill="#b98585" d="M26.02 5.46c0 .33-.27.6-.6.6-.33 0-.6-.27-.6-.6 0-.33.27-.6.6-.6.33 0 .6.27.6.6z" overflow="visible" enable-background="accumulate"/><path fill="#b98585" d="M31.1 10.72c0 .33-.27.6-.6.6-.33 0-.6-.27-.6-.6 0-.33.27-.6.6-.6.33 0 .6.27.6.6z" overflow="visible" enable-background="accumulate"/><path fill="#b98585" d="M30.45 12.36c0 .33-.27.6-.6.6-.33 0-.6-.27-.6-.6 0-.34.27-.6.6-.6.33 0 .6.26.6.6z" overflow="visible" enable-background="accumulate"/><path fill="#b98585" d="M28.67 12.94c0 .33-.27.6-.6.6-.33 0-.6-.27-.6-.6 0-.33.27-.6.6-.6.33 0 .6.27.6.6z" overflow="visible" enable-background="accumulate"/><path fill="#b98585" d="M29.86 14.14c0 .33-.26.6-.6.6-.33 0-.6-.27-.6-.6 0-.34.27-.6.6-.6.34 0 .6.26.6.6z" overflow="visible" enable-background="accumulate"/><path fill="#b98585" d="M32.26 11.92c0 .33-.27.6-.6.6-.33 0-.6-.27-.6-.6 0-.33.27-.6.6-.6.33 0 .6.27.6.6z" overflow="visible" enable-background="accumulate"/><path fill="#b98585" d="M31.64 13.52c0 .33-.26.6-.6.6-.33 0-.6-.27-.6-.6 0-.33.27-.6.6-.6.34 0 .6.27.6.6z" overflow="visible" enable-background="accumulate"/><path fill="#b98585" d="M22.9 4.7c0 .33-.28.6-.6.6-.34 0-.6-.27-.6-.6 0-.34.26-.6.6-.6.32 0 .6.26.6.6z" overflow="visible" enable-background="accumulate"/></g></g></svg>