<svg xmlns="http://www.w3.org/2000/svg" width="16" height="16" xmlns:xlink="http://www.w3.org/1999/xlink"><defs><linearGradient id="d"><stop offset="0" stop-color="#2e3436"/><stop offset="1" stop-color="#aeaeae"/></linearGradient><linearGradient id="c"><stop offset="0" stop-color="#5c5c5c"/><stop offset="1" stop-color="#2e3436"/></linearGradient><linearGradient id="a"><stop offset="0" stop-color="#99a28f"/><stop offset="1" stop-color="#fff"/></linearGradient><linearGradient id="b"><stop offset="0" stop-color="#fff"/><stop offset="1" stop-color="#999e93"/></linearGradient><linearGradient><stop offset="0" stop-color="#d3d7cf"/><stop offset="1" stop-color="#b3baac"/></linearGradient><linearGradient><stop offset="0" stop-color="#888a85"/><stop offset="1" stop-color="#bbbcb9"/></linearGradient><linearGradient id="e" x1="6.981" x2="8.999" y1="11" y2="11" xlink:href="#a" gradientUnits="userSpaceOnUse" gradientTransform="matrix(1 0 0 1.667 -2.983 -10.333)"/><linearGradient id="g" x1="4.001" x2="12.039" y1="3.5" y2="3.5" xlink:href="#b" gradientUnits="userSpaceOnUse" gradientTransform="translate(-2.983 3)"/><linearGradient id="h" x1="4.722" x2="12.88" y1="3" y2="10" xlink:href="#c" gradientUnits="userSpaceOnUse" gradientTransform="translate(-2.983)"/><linearGradient id="f" x1="6" x2="10" y1="8" y2="8" xlink:href="#d" gradientUnits="userSpaceOnUse" gradientTransform="translate(-2.983)"/></defs><g color="#000"><path fill="url(#e)" fill-rule="evenodd" stroke="url(#f)" d="M3.52.5h3v15h-3z" stroke-linecap="round" overflow="visible"/><path fill-opacity=".251" fill-rule="evenodd" d="M1.02 6h10v4h-10z" overflow="visible"/><path fill="url(#g)" fill-rule="evenodd" stroke="url(#h)" d="M1.8 3.5L.52 5.02v3.46h9V5L8.24 3.5H1.8z" stroke-linecap="round" overflow="visible"/><path fill="#eeeeec" fill-rule="evenodd" d="M2.02 4h6v3h-6z" overflow="visible"/><path fill-opacity=".251" fill-rule="evenodd" d="M3.02 9h4v2h-4z" overflow="visible"/><path fill="#2e3436" stroke="#eeeeec" stroke-width=".5" d="M5.82 10.78c-.57.8-.12 2.3 1.05 3.48 1.26 1.25 2.88 1.66 3.64.9.56-.55.47-1.57-.12-2.58l1.07-1.1.9.9 1.26-1.27-.9-.9.6-.6.9.9 1.3-1.2-2.7-2.74-4.22 4.2c-1.02-.6-2.05-.68-2.62-.12-.04.05-.1.1-.14.14zm1.96 1.68c.25-.25.65-.25.9 0 .26.25.26.65 0 .9-.25.25-.65.25-.9 0s-.25-.65 0-.9z" stroke-linecap="round" overflow="visible"/></g></svg>