<svg xmlns="http://www.w3.org/2000/svg" width="16" height="16" xmlns:xlink="http://www.w3.org/1999/xlink"><defs><linearGradient id="b"><stop offset="0" stop-color="#eab8b8"/><stop offset="1" stop-color="#f2d5d5"/></linearGradient><linearGradient id="a"><stop offset="0" stop-color="#fff"/><stop offset="1" stop-color="#c87070"/></linearGradient><linearGradient id="d" x1="7.626" x2="14.492" y1=".005" y2=".005" xlink:href="#a" gradientUnits="userSpaceOnUse" gradientTransform="translate(.223 -.032)"/><linearGradient id="c" x1="1.873" x2="20.755" y1=".037" y2=".037" xlink:href="#b" gradientUnits="userSpaceOnUse"/></defs><g color="#000"><rect width="18.382" height="8.365" x="2.123" y="-4.145" fill="url(#c)" fill-rule="evenodd" stroke="#d59191" stroke-width=".5" transform="rotate(45)" ry="4.183" overflow="visible" enable-background="accumulate"/><rect width="6.366" height="6.718" x="8.099" y="-3.386" fill="none" stroke="url(#d)" stroke-width=".75" ry="1.432" overflow="visible" enable-background="accumulate" transform="rotate(45)"/><path fill="#b98585" d="M5.72 1.8a.74.74 0 1 1-1.5 0 .74.74 0 1 1 1.5 0z" overflow="visible" enable-background="accumulate"/><path fill="#b98585" d="M4.9 3.8a.74.74 0 1 1-1.48 0 .74.74 0 1 1 1.5 0z" overflow="visible" enable-background="accumulate"/><path fill="#b98585" d="M2.7 4.53a.74.74 0 1 1-1.48 0 .74.74 0 1 1 1.48 0z" overflow="visible" enable-background="accumulate"/><path fill="#b98585" d="M4.2 6.02a.74.74 0 1 1-1.5 0 .74.74 0 1 1 1.5 0z" overflow="visible" enable-background="accumulate"/><path fill="#b98585" d="M7.16 3.27a.74.74 0 1 1-1.48 0 .74.74 0 1 1 1.48 0z" overflow="visible" enable-background="accumulate"/><path fill="#b98585" d="M13.47 9.8a.74.74 0 1 1-1.5 0 .74.74 0 1 1 1.5 0z" overflow="visible" enable-background="accumulate"/><path fill="#b98585" d="M12.66 11.83a.74.74 0 1 1-1.5 0 .74.74 0 1 1 1.5 0z" overflow="visible" enable-background="accumulate"/><path fill="#b98585" d="M10.45 12.55a.74.74 0 1 1-1.5 0 .74.74 0 1 1 1.5 0z" overflow="visible" enable-background="accumulate"/><path fill="#b98585" d="M11.94 14.04a.74.74 0 1 1-1.5 0 .74.74 0 1 1 1.5 0z" overflow="visible" enable-background="accumulate"/><path fill="#b98585" d="M14.9 11.3a.74.74 0 1 1-1.48 0 .74.74 0 1 1 1.5 0z" overflow="visible" enable-background="accumulate"/><path fill="#b98585" d="M14.15 13.27a.74.74 0 1 1-1.5 0 .74.74 0 1 1 1.5 0z" overflow="visible" enable-background="accumulate"/><path fill="#b98585" d="M3.3 2.33a.74.74 0 1 1-1.5 0 .74.74 0 1 1 1.5 0z" overflow="visible" enable-background="accumulate"/></g></svg>