<svg xmlns="http://www.w3.org/2000/svg" width="16" height="16" xmlns:xlink="http://www.w3.org/1999/xlink"><defs><linearGradient id="b"><stop offset="0" stop-color="#747672"/><stop offset="1" stop-color="#2e3436"/></linearGradient><linearGradient id="a"><stop offset="0" stop-color="#f3f4f2"/><stop offset="1" stop-color="#b7bdb0"/></linearGradient><linearGradient x1="21.43" x2="21.493" y1="2.328" y2="11.175" xlink:href="#a" gradientUnits="userSpaceOnUse" gradientTransform="matrix(.757 0 0 .535 -13.415 -.107)"/><linearGradient x1="24.328" x2="24.26" y1=".859" y2="12.796" xlink:href="#b" gradientUnits="userSpaceOnUse" gradientTransform="matrix(.83 0 0 .586 -13.975 -.504)"/><linearGradient x1="21.43" x2="21.493" y1="2.328" y2="11.175" xlink:href="#a" gradientUnits="userSpaceOnUse" gradientTransform="matrix(.757 0 0 .535 -13.415 -.107)"/><linearGradient x1="24.328" x2="24.26" y1=".859" y2="12.796" xlink:href="#b" gradientUnits="userSpaceOnUse" gradientTransform="matrix(.83 0 0 .586 -13.975 -.504)"/></defs><g fill-opacity=".5" fill-rule="evenodd" stroke-width=".891" stroke-dashoffset="4.2" color="#000" stroke-linecap="square"><path fill="#ef2929" stroke="#a40000" stroke-width="1.12" d="M12.5 4.98a4.5 4.52 0 1 1-9 0 4.5 4.52 0 1 1 9 0z" overflow="visible"/><path fill="#8ae234" stroke="#4e9a06" stroke-width="1.12" d="M15.5 10.02a4.5 4.52 0 1 1-9 0 4.5 4.52 0 1 1 9 0z" overflow="visible"/><path fill="#729fcf" stroke="#204a87" stroke-width="1.12" d="M9.5 10.06a4.5 4.52 0 1 1-9 0 4.5 4.52 0 1 1 9 0z" overflow="visible"/></g></svg>