<svg xmlns="http://www.w3.org/2000/svg" width="16" height="16" xmlns:xlink="http://www.w3.org/1999/xlink"><defs><linearGradient id="c"><stop offset="0" stop-color="#fff"/><stop offset="1" stop-color="#fff" stop-opacity="0"/></linearGradient><linearGradient id="b"><stop offset="0" stop-color="#747672"/><stop offset="1" stop-color="#2e3436"/></linearGradient><linearGradient id="a"><stop offset="0" stop-color="#f3f4f2"/><stop offset="1" stop-color="#b7bdb0"/></linearGradient><linearGradient x1="21.43" x2="21.493" y1="2.328" y2="11.175" xlink:href="#a" gradientUnits="userSpaceOnUse" gradientTransform="matrix(.757 0 0 .535 -13.415 -.107)"/><linearGradient x1="24.328" x2="24.26" y1=".859" y2="12.796" xlink:href="#b" gradientUnits="userSpaceOnUse" gradientTransform="matrix(.83 0 0 .586 -13.975 -.504)"/><linearGradient x1="21.43" x2="21.493" y1="2.328" y2="11.175" xlink:href="#a" gradientUnits="userSpaceOnUse" gradientTransform="matrix(.757 0 0 .535 -13.415 -.107)"/><linearGradient x1="24.328" x2="24.26" y1=".859" y2="12.796" xlink:href="#b" gradientUnits="userSpaceOnUse" gradientTransform="matrix(.83 0 0 .586 -13.975 -.504)"/><linearGradient id="d" x1="7.737" x2="7.737" y1="7.961" y2=".938" xlink:href="#c" gradientUnits="userSpaceOnUse"/></defs><g fill-rule="evenodd" stroke-dashoffset="4.2" color="#000" stroke-linecap="square"><path fill="#ef2929" fill-opacity=".5" stroke="#a40000" stroke-width="1.145" d="M11.76 4.4a4.02 4.02 0 1 1-8.04 0 4.02 4.02 0 1 1 8.04 0z" transform="matrix(.871 0 0 .876 1.265 .117)" overflow="visible"/><path fill="#8ae234" fill-opacity=".5" stroke="#4e9a06" stroke-width=".87.149" d="M14.5 8a3.5 3.5 0 1 1-7 0 3.5 3.5 0 1 1 7 0z" overflow="visible"/><path fill="#729fcf" fill-opacity=".5" stroke="#204a87" stroke-width=".87.152" d="M8.5 8.02a3.5 3.48 0 1 1-7 0 3.5 3.48 0 1 1 7 0z" overflow="visible"/><path fill="url(#d)" stroke="#2e3436" stroke-width="1.145" d="M11.76 4.4a4.02 4.02 0 1 1-8.04 0 4.02 4.02 0 1 1 8.04 0z" transform="matrix(.871 0 0 .876 1.265 8.117)" overflow="visible"/></g></svg>