<svg xmlns="http://www.w3.org/2000/svg" width="16" height="16"><g fill="#a40000" font-size="12" font-family="Berling Antiqua"><path d="M11.33 7.3c.87-.52 1.58-.78 2.15-.78.67 0 1.25.28 1.74.84.48.57.73 1.26.73 2.1 0 .9-.3 1.64-.9 2.24-.62.6-1.43.9-2.45.9-.3 0-.8-.06-1.48-.18-.23-.05-.53-.1-.9-.16.04-.4.06-.85.06-1.38V4.55c0-.9-.15-1.36-.44-1.36-.12 0-.32.05-.62.17v-.43c.77-.28 1.43-.6 2-.94h.1v5.3zm0 .47v3.98c.53.3 1.06.47 1.6.47.56 0 1.03-.23 1.4-.68.38-.45.57-1.04.57-1.77 0-.74-.2-1.35-.62-1.83-.4-.47-.9-.7-1.48-.7-.48 0-.97.17-1.47.53z" style="text-align:start;line-height:125%"/><path d="M4.58 2.66h.32l3 7.24c.45 1.07.78 1.7 1 1.92.22.2.56.3 1.04.3v.4c-.85-.04-1.47-.05-1.87-.05-.42 0-1.04 0-1.86.04v-.37c.38 0 .64-.04.8-.1.13-.07.2-.18.2-.33 0-.15-.04-.34-.13-.56l-1-2.44H3.04l-.6 1.9c-.13.47-.2.8-.2 1.03 0 .33.2.5.6.5h.18v.38c-.72-.02-1.23-.03-1.5-.03-.36 0-.87 0-1.52.04v-.37c.33 0 .6-.07.82-.2.2-.15.4-.44.57-.88l3.18-8.4zM4.42 4.6L3.2 8.2h2.66L4.42 4.6z" style="text-align:start;line-height:125%"/></g></svg>