<svg xmlns="http://www.w3.org/2000/svg" width="16" height="16" xmlns:xlink="http://www.w3.org/1999/xlink" version="1"><defs><linearGradient id="b"><stop offset="0" stop-color="#fff"/><stop offset="1" stop-color="#fff" stop-opacity="0"/></linearGradient><linearGradient id="a"><stop offset="0" stop-color="#939393"/><stop offset="1" stop-color="#e6e6e6"/></linearGradient><radialGradient id="g" cx="20.706" cy="37.518" r="30.905" xlink:href="#a" gradientUnits="userSpaceOnUse" gradientTransform="matrix(.395 -.01 .067 .443 -2.158 -3.228)" fx="20.706" fy="37.518"/><linearGradient id="j" x1="13.036" x2="12.854" y1="32.567" y2="46.689" gradientUnits="userSpaceOnUse" gradientTransform="matrix(.444 0 0 .279 -.138 .094)" xlink:href="#b"/><linearGradient x1="9.577" x2="12.694" y1=".522" y2="4.892" gradientTransform="translate(-2)" xlink:href="#c" gradientUnits="userSpaceOnUse"/><linearGradient id="c"><stop offset="0" stop-color="#6c7a7f"/><stop offset="1" stop-color="#2e3436"/></linearGradient><linearGradient id="d"><stop offset="0" stop-color="#ffcd35"/><stop offset="1" stop-color="#ffe0a8"/></linearGradient><linearGradient x1="5.334" x2="9" y1=".206" y2="15.523" gradientTransform="translate(16.035 1.991)" gradientUnits="userSpaceOnUse" xlink:href="#d"/><linearGradient x1="2" x2="14" y1="8" y2="8" gradientTransform="translate(16.035 1.991)" gradientUnits="userSpaceOnUse" xlink:href="#c"/><linearGradient x1="9.577" x2="12.694" y1=".522" y2="4.892" xlink:href="#c" gradientUnits="userSpaceOnUse" gradientTransform="translate(16.035 1.991)"/><linearGradient id="h" x1="5.334" x2="9" y1=".206" y2="15.523" gradientTransform="translate(16.035 1.991)" gradientUnits="userSpaceOnUse" xlink:href="#e"/><linearGradient id="e"><stop offset="0" stop-color="#ffcd35"/><stop offset="1" stop-color="#ffe0a8"/></linearGradient><linearGradient id="i" x1="2" x2="14" y1="8" y2="8" gradientTransform="translate(16.035 1.991)" gradientUnits="userSpaceOnUse" xlink:href="#f"/><linearGradient id="f"><stop offset="0" stop-color="#6c7a7f"/><stop offset="1" stop-color="#2e3436"/></linearGradient></defs><g><path fill="url(#g)" stroke="#888a85" d="M.88 13.8c0 .16.17.32.32.32h11.75c.15 0 .3-.16.3-.3l-.7-10.03c0-.17-.17-.32-.33-.32H7.6c-.2 0-.48-.12-.54-.4l-.23-1.2c-.05-.27-.33-.38-.48-.38H.8c-.15 0-.3.15-.3.3l.38 12z" stroke-linecap="round" stroke-linejoin="round"/><path fill="url(#h)" fill-rule="evenodd" stroke="url(#i)" stroke-dashoffset=".5" d="M14.1 14.1c.42 0 .73-.4.76-.85.3-4.3.62-7.53.62-7.53.03-.1-.06-.2-.18-.2H2.55s-.82 7.78-.82 7.78c-.05.37-.18.67-.6.8H14.1z" color="#000" overflow="visible" enable-background="accumulate"/><path fill="#edd400" fill-rule="evenodd" stroke="url(#j)" d="M3.48 6.57h10.96l-.53 6.48c-.02.36-.14.5-.62.5-.63 0-9.66-.03-10.57-.03.1-.1.12-.33.12-.34l.66-6.6z" opacity=".466" stroke-linecap="round"/><path fill="#2e3436" d="M6.85 5.96c-1.88 1-2.26 2.9-3.02 4.6C5.27 8.65 6.93 7.2 9.2 6z"/><path fill="#2e3436" d="M11.37 5.93C9.64 7.45 8.42 9.3 7.75 12c1.13-1.8 3.6-4.63 5.95-6.03z"/><path fill="#2e3436" d="M14.87 7.56c-.74 2.03-1.74 2.9-2.64 4.2.93-.36 1.93-.77 2.44-1.76z"/><path fill="#2e3436" d="M10.27 13.64L12 9.52l-3.88 4.12z"/><path fill="#2e3436" d="M5.22 13.7c1.22-1.8.57-2.4 2-4.15-1.84 1.07-2.58 4.08-4.04 4.08z"/></g></svg>