<svg xmlns="http://www.w3.org/2000/svg" width="16" height="16" xmlns:xlink="http://www.w3.org/1999/xlink"><defs><linearGradient id="b"><stop offset="0" stop-color="#6c7a7f"/><stop offset="1" stop-color="#2e3436"/></linearGradient><linearGradient id="a"><stop offset="0" stop-color="#ffcd35"/><stop offset="1" stop-color="#ffe0a8"/></linearGradient><linearGradient><stop offset="0"/><stop offset="1" stop-opacity=".052"/></linearGradient><linearGradient><stop offset="0" stop-color="#fff"/><stop offset="1" stop-color="#babab1"/></linearGradient><linearGradient><stop offset="0" stop-color="#838681"/><stop offset="1"/></linearGradient><linearGradient><stop offset="0" stop-color="#444"/><stop offset="1"/></linearGradient><linearGradient><stop offset="0" stop-color="#4b5558"/><stop offset="1"/></linearGradient><linearGradient><stop offset="0" stop-color="#fff"/><stop offset="1" stop-color="#cecec8"/></linearGradient><linearGradient><stop offset="0" stop-color="#c6cdcf"/><stop offset="1" stop-color="#2e3436"/></linearGradient><linearGradient id="c" x1="5.334" x2="9" y1=".206" y2="15.523" xlink:href="#a" gradientUnits="userSpaceOnUse"/><linearGradient id="d" x1="2" x2="14" y1="8" y2="8" xlink:href="#b" gradientUnits="userSpaceOnUse"/><linearGradient id="e" x1="9.577" x2="12.694" y1=".522" y2="4.892" xlink:href="#b" gradientUnits="userSpaceOnUse"/></defs><g><path fill="url(#c)" fill-rule="evenodd" stroke="url(#d)" stroke-dashoffset=".5" d="M2.5.5h6.58l4.42 4.55V15.5h-11V.5z" color="#000" overflow="visible"/><path fill="#2e3436" d="M6.3 1c-1.88 1-2.25 2.9-3 4.6C4.7 3.7 6.5 2.1 8.77.9z"/><path fill="#2e3436" d="M10.9 1.8C9.17 3.35 7.84 5.47 7.16 8.17c1.13-1.8 2.76-3.2 5.1-4.6z"/><path fill="#2e3436" d="M13.3 4.74C11.72 9 9.62 10.8 7.74 13.57c1.94-1.67 3.92-2.44 5.8-5.68z"/><path fill="#2e3436" d="M11.17 15l.72-2.7-3.25 2.66z"/><path fill="#2e3436" d="M4.53 15.06c-.3-2.25 2.8-2.35 4.84-6.8-2.63 2.86-5.86 3.42-6.7 5.9l.17.93z"/><path fill="#2e3436" d="M3 10.9c0-.72.76-1.03 1.7-2.4 1.22-1.8.82-2.5 2.24-4.26-1.83 1.07-2.55 4-4 4z"/><path fill="#fff" fill-rule="evenodd" stroke="url(#e)" d="M9.54.5l.04 4.1h3.92L9.54.5z" stroke-linejoin="round"/></g></svg>