<svg xmlns="http://www.w3.org/2000/svg" width="16" height="16" xmlns:xlink="http://www.w3.org/1999/xlink"><defs><linearGradient id="f"><stop offset="0" stop-color="#2e3436"/><stop offset="1" stop-color="#2e3436" stop-opacity="0"/></linearGradient><linearGradient id="e"><stop offset="0"/><stop offset="1" stop-opacity="0"/></linearGradient><linearGradient id="d"><stop offset="0" stop-color="#eeeeec"/><stop offset="1" stop-color="#eeeeec" stop-opacity="0"/></linearGradient><linearGradient id="c"><stop offset="0" stop-color="#fff"/><stop offset="1" stop-color="#cecec8"/></linearGradient><linearGradient id="b"><stop offset="0" stop-color="#c6cdcf"/><stop offset="1" stop-color="#2e3436"/></linearGradient><linearGradient id="a"><stop offset="0" stop-color="#eeeeec"/><stop offset="1" stop-color="#eeeeec" stop-opacity="0"/></linearGradient><linearGradient x1="7.757" x2="8.513" y1="5" y2="11" xlink:href="#a" gradientUnits="userSpaceOnUse"/><radialGradient id="h" cx="8" cy="8" r="8" xlink:href="#b" fx="8" fy="8" gradientUnits="userSpaceOnUse" gradientTransform="matrix(.875 0 0 .875 1 1)"/><radialGradient id="g" cx="8" cy="8" r="8" xlink:href="#c" fx="8" fy="8" gradientUnits="userSpaceOnUse"/><linearGradient x1="8" x2="8" y1="1" y2="18.649" xlink:href="#d" gradientUnits="userSpaceOnUse"/><linearGradient x1="7.997" x2="12.861" y1="7.959" y2="12.959" xlink:href="#e" gradientUnits="userSpaceOnUse"/><linearGradient id="i" x1="8.154" x2="12.829" y1="7.752" y2="13.383" xlink:href="#f" gradientUnits="userSpaceOnUse"/></defs><g><path fill="url(#g)" fill-rule="evenodd" stroke="#2e3436" stroke-dashoffset="4.2" d="M.5.5h15v15H.5z" color="#000" stroke-linecap="square" overflow="visible"/><path fill="url(#h)" fill-rule="evenodd" d="M1 1h7v7H1V1zm7 7h7v7H8V8z" color="#000" overflow="visible"/><path fill="url(#i)" fill-rule="evenodd" d="M7.48 8L12 14l2-2-5.4-4.28L7.48 8z"/><path fill="none" stroke="#a40000" d="M8.23 8L12 3.5" stroke-linecap="round"/><path fill="#ef2929" fill-rule="evenodd" d="M13.02.4L8 3l4.4 3.23"/><path fill="none" stroke="#a40000" d="M8.53 3.2l3.64 2.84.86-5.28" stroke-linecap="round" stroke-linejoin="round"/><path fill="none" stroke="#ef2929" d="M8 8l3.5-5" stroke-linecap="round"/></g></svg>