<svg xmlns="http://www.w3.org/2000/svg" width="16" height="16" xmlns:xlink="http://www.w3.org/1999/xlink"><defs><linearGradient id="b"><stop offset="0" stop-color="#4e585c"/><stop offset="1" stop-color="#2e3436"/></linearGradient><linearGradient id="a"><stop offset="0" stop-color="#6e7c81"/><stop offset="1" stop-color="#2e3436"/></linearGradient><linearGradient id="c" x1="10.196" x2="13.946" y1=".496" y2="3.22" xlink:href="#a" gradientUnits="userSpaceOnUse"/><linearGradient id="d" x1="4.126" x2="14.7" y1="3.565" y2="12.305" xlink:href="#b" gradientUnits="userSpaceOnUse"/></defs><g><path fill="#d3d7cf" stroke="url(#c)" stroke-width=".617" d="M14 2a2 2 0 1 1-4 0 2 2 0 1 1 4 0z" transform="matrix(.81 0 0 .81 2.409 .285)" color="#000" overflow="visible" enable-background="accumulate"/><path fill="#fff" stroke="url(#d)" stroke-width=".5" d="M9.33 2.8l-3.45-.7c-.17-.05-.3.04-.4.15L2.96 5.17c-.4.68.78 1.83 1.4 1.02l2.02-2.27 1.85.38-4.24 5.78-2.8-.83c-1.06-.22-1.2 1.38-.57 1.6l3.96 1.14L6.8 9.2l1.26 2.63-2 2.74c-.46.66.8 1.62 1.46.9l2.5-3.4-1.42-2.9 2.26-2.95 1.02 2.5c.1.2.43.33.6.37l2.3.62c1.12.2 1.33-1.42.48-1.68l-2.04-.5-1.34-2.72z"/><path fill="#d3d7cf" d="M8.3 9.14l-.48-1.12 2.5-3.52.97.8 1.2 2.98L15 9.53l-2.63-.75c-.12 0-.23-.08-.32-.24l-1.1-2.8z"/><path fill="#d3d7cf" d="M6.52 15.32l2.85-4.03.38.73-2.42 3.27c-.28.23-.55.23-.8.02z" color="#000" overflow="visible" enable-background="accumulate"/><path fill="#d3d7cf" d="M6.85 8.77l-.24-.6-2.35 2.97-3.18-.9-.4.36 3.8 1.12z" color="#000" overflow="visible" enable-background="accumulate"/><path fill="#d3d7cf" d="M3.42 6.03l2.6-2.98 3 .62-.4.5-2.34-.5L4.1 6.08c-.26.12-.5.14-.68-.07z" color="#000" overflow="visible" enable-background="accumulate"/><path fill="#fff" d="M12.92 1.7a1.03 1.03 0 1 1-2.07 0 1.03 1.03 0 1 1 2.07 0z" color="#000" overflow="visible" enable-background="accumulate"/></g></svg>