<svg xmlns="http://www.w3.org/2000/svg" width="16" height="16"><g><path fill="none" stroke="#000" stroke-width="2" d="M8 4c.02.52 0 1.2.02 1.47.05.74 2.26.68 2.26 1.4 0 1.17-4.62.87-4.62 2.12 0 .7 2.52.3 2.45 1.03C8.1 10.45 8 11.4 8 12"/><path fill="#2e3436" fill-rule="evenodd" stroke="#000" stroke-width="1.873" d="M6.06 6.9v3.51l-1.52-.87-1.52-.87 1.52-.88z" transform="matrix(0 1 -1.141 0 17.873 -2.021)" color="#000" overflow="visible" enable-background="accumulate"/><path fill="#2e3436" fill-rule="evenodd" stroke="#000" stroke-width="1.873" d="M6.06 6.9v3.51l-1.52-.87-1.52-.87 1.52-.88z" transform="matrix(0 -1 -1.141 0 17.873 18.021)" color="#000" overflow="visible" enable-background="accumulate"/><g fill-rule="evenodd" color="#000"><path fill="#2e3436" d="M14 2V1H2v1z" overflow="visible" enable-background="accumulate"/><path fill="#eeeeec" d="M14 1V0H2v1z" overflow="visible" enable-background="accumulate"/></g><g fill-rule="evenodd" color="#000"><path fill="#2e3436" d="M14 14v1H2v-1z" overflow="visible" enable-background="accumulate"/><path fill="#eeeeec" d="M14 15v1H2v-1z" overflow="visible" enable-background="accumulate"/></g><path fill="#fff" fill-rule="evenodd" d="M10 4.04H6l1-1.52L8 1l1 1.52z" color="#000" overflow="visible" enable-background="accumulate"/><path fill="#fff" fill-rule="evenodd" d="M10 11.96H6l1 1.52L8 15l1-1.52z" color="#000" overflow="visible" enable-background="accumulate"/><path fill="none" stroke="#fff" d="M8 4c.02.52 0 1.2.02 1.47.05.74 2.26.68 2.26 1.4 0 1.17-4.62.87-4.62 2.12 0 .7 2.52.3 2.45 1.03C8.1 10.45 8 11.4 8 12"/></g></svg>