<svg xmlns="http://www.w3.org/2000/svg" width="16" height="16" xmlns:xlink="http://www.w3.org/1999/xlink"><defs><linearGradient id="h"><stop offset="0" stop-color="#c3c3c1"/><stop offset=".881" stop-color="#b3b5b1"/><stop offset="1" stop-color="#747671"/></linearGradient><linearGradient id="g"><stop offset="0" stop-color="#fff"/><stop offset=".13" stop-color="#dedfde"/><stop offset=".883" stop-color="#dedfde"/><stop offset="1" stop-color="#a0a19d"/></linearGradient><linearGradient id="f"><stop offset="0" stop-color="#79888d"/><stop offset="1" stop-color="#2e3436"/></linearGradient><linearGradient id="e"><stop offset="0" stop-color="#6c7a7f"/><stop offset="1" stop-color="#2e3436"/></linearGradient><linearGradient id="d"><stop offset="0" stop-color="#d3d7cf"/><stop offset=".5" stop-color="#eeeeec"/><stop offset="1" stop-color="#aab2a2"/></linearGradient><linearGradient><stop offset="0" stop-color="#fff"/><stop offset=".13" stop-color="#dedfde"/><stop offset=".833" stop-color="#dedfde"/><stop offset="1" stop-color="#a0a19d"/></linearGradient><linearGradient id="c"><stop offset="0" stop-color="#fff" stop-opacity="0"/><stop offset=".615" stop-color="#fff" stop-opacity="0"/><stop offset=".75" stop-color="#fff" stop-opacity=".444"/><stop offset="1" stop-color="#fff" stop-opacity=".504"/></linearGradient><linearGradient id="b"><stop offset="0" stop-color="#808e93"/><stop offset="1" stop-color="#2e3436"/></linearGradient><linearGradient><stop offset="0" stop-color="#2e3436"/><stop offset="1" stop-color="#808e93"/></linearGradient><linearGradient id="a"><stop offset="0" stop-color="#4f7682"/><stop offset="1" stop-color="#bdd5dc"/></linearGradient><radialGradient id="l" cx="7.26" cy="8.24" r="3.581" xlink:href="#a" fx="7.26" fy="8.24" gradientUnits="userSpaceOnUse"/><linearGradient id="o" x1="8.516" x2="8.585" y1="13.455" y2="5.73" xlink:href="#b" gradientUnits="userSpaceOnUse"/><linearGradient id="m" x1="8.537" x2="8.456" y1="5.831" y2="13.335" xlink:href="#b" gradientUnits="userSpaceOnUse"/><radialGradient id="n" cx="10.904" cy="12.114" r="3.936" xlink:href="#c" fx="10.904" fy="12.114" gradientUnits="userSpaceOnUse" gradientTransform="matrix(1.879 .012 -.012 1.771 -9.584 -9.53)"/><linearGradient id="p" x1="10.699" x2="15.429" y1="2.485" y2="2.485" xlink:href="#d" gradientUnits="userSpaceOnUse" gradientTransform="matrix(.791 0 0 .764 3.166 .64)"/><linearGradient id="q" x1="12.206" x2="12.233" y1="2.541" y2="4.929" xlink:href="#e" gradientUnits="userSpaceOnUse" gradientTransform="matrix(.791 0 0 .764 3.166 .64)"/><linearGradient id="j" x1="8.264" x2="8.224" y1="2.699" y2="14.164" xlink:href="#f" gradientUnits="userSpaceOnUse"/><linearGradient id="i" x1=".583" x2="15.409" y1="8.915" y2="9.013" xlink:href="#g" gradientUnits="userSpaceOnUse" gradientTransform="matrix(1 0 0 1.05 0 -.711)"/><linearGradient id="k" x1=".496" x2="15.497" y1="10.526" y2="10.526" xlink:href="#h" gradientUnits="userSpaceOnUse"/></defs><g color="#000"><path fill="url(#i)" stroke="url(#j)" stroke-width=".5" d="M.25 4.3h4.53l.96-1.6 4.06.03.97 1.56h4.97v9.92H.24z" stroke-linecap="round" overflow="visible" enable-background="accumulate"/><path fill="url(#k)" d="M.5 7.04h15v6.98H.5z" overflow="visible" enable-background="accumulate"/><path fill="url(#l)" d="M12.16 9.63a3.58 3.58 0 1 1-7.16 0 3.58 3.58 0 1 1 7.16 0z" transform="matrix(1.149 0 0 1.149 -1.861 -1.516)" overflow="visible" enable-background="accumulate"/><path fill="#ef2929" d="M8.57 4.03a.8.8 0 1 1-1.58 0 .8.8 0 1 1 1.57 0z" overflow="visible" enable-background="accumulate"/><path fill="#d3d7cf" d="M3.84 9.76a.8.8 0 1 1-1.58 0 .8.8 0 1 1 1.58 0z" overflow="visible" enable-background="accumulate"/><path fill="none" stroke="url(#m)" stroke-width=".435" d="M12.16 9.63a3.58 3.58 0 1 1-7.16 0 3.58 3.58 0 1 1 7.16 0z" transform="matrix(1.149 0 0 1.149 -1.861 -1.516)" overflow="visible" enable-background="accumulate"/><path fill="none" stroke="#2e3436" stroke-width=".98.016" d="M11.52 9.54a3.53 3.53 0 1 1-7.05 0 3.53 3.53 0 1 1 7.05 0z" overflow="visible" enable-background="accumulate"/><path fill="url(#n)" stroke="url(#o)" stroke-width=".611" d="M12.16 9.63a3.58 3.58 0 1 1-7.16 0 3.58 3.58 0 1 1 7.16 0z" transform="matrix(.819 0 0 .819 .97 1.658)" overflow="visible" enable-background="accumulate"/><path fill="url(#p)" stroke="url(#q)" stroke-width=".5" d="M11.85 2.7h3.33v1.54h-3.33z" stroke-linecap="round" overflow="visible" enable-background="accumulate"/><path fill="#eeeeec" d="M7.83 8.6a.64.64 0 1 1-1.28 0 .64.64 0 1 1 1.28 0z" overflow="visible" enable-background="accumulate"/><path fill="#eeeeec" d="M8.78 9.96a.32.32 0 1 1-.63 0 .32.32 0 1 1 .63 0z" overflow="visible" enable-background="accumulate"/></g></svg>