<svg xmlns="http://www.w3.org/2000/svg" width="16" height="16" xmlns:xlink="http://www.w3.org/1999/xlink"><defs><linearGradient id="c"><stop offset="0" stop-color="#fff"/><stop offset=".5" stop-color="#fff" stop-opacity=".685"/><stop offset="1" stop-color="#fff" stop-opacity="0"/></linearGradient><linearGradient><stop offset="0" stop-color="#bc0000"/><stop offset=".14" stop-color="#ffec10"/><stop offset=".254" stop-color="#37ff10"/><stop offset=".396" stop-color="#10ff91"/><stop offset=".509" stop-color="#10fff9"/><stop offset=".635" stop-color="#1051ff"/><stop offset=".731" stop-color="#5730ff"/><stop offset=".832" stop-color="#b120ff"/><stop offset=".915" stop-color="#f618b4"/><stop offset="1" stop-color="#ff1010"/></linearGradient><linearGradient x1="11.668" x2="14.418" y1="10.009" y2="17.051" xlink:href="#a" gradientUnits="userSpaceOnUse"/><linearGradient id="a" x1="11.668" x2="14.418" y1="10.009" y2="17.051" gradientUnits="userSpaceOnUse"><stop offset="0" stop-color="#888A85"/><stop offset="1"/></linearGradient><linearGradient id="b"><stop offset="0" stop-color="#eeeeec"/><stop offset=".5" stop-color="#e2e2df"/><stop offset="1" stop-color="#b3b3aa"/></linearGradient><radialGradient cx="120.043" cy="222.044" r="10.265" xlink:href="#b" fx="120.043" fy="222.044" gradientUnits="userSpaceOnUse"/><linearGradient><stop offset="0" stop-color="#eeeeec"/><stop offset=".5" stop-color="#e2e2df"/><stop offset="1" stop-color="#b3b3aa"/></linearGradient><radialGradient id="d" cx="122.958" cy="224.694" r="10.3" xlink:href="#c" fx="122.958" fy="224.694" gradientUnits="userSpaceOnUse"/></defs><g><g><path fill="#ca0500" d="M8.02 8L8 2.33l3 .96z"/><path fill="#ffa510" d="M8.02 8.02l2.83-4.93 2.1 2.3z"/><path fill="#f8ed10" d="M8 8.02l4.93-2.85.67 3.07z"/><path fill="#bcf210" d="M8 8.03L13.7 8l-.97 3z"/><path fill="#10ffdd" d="M8 8v5.7l-3-.96z"/><path fill="#106dfe" d="M8 8l-2.84 4.93-2.1-2.32z"/><path fill="#6d2cff" d="M8 8l-4.92 2.85-.67-3.07z"/><path fill="#c21eed" d="M8 8H2.32l.95-2.98z"/><path fill="#eb19c0" d="M8 8L3.1 5.17 5.4 3.05z"/><path fill="#fa1466" d="M8.02 8L5.16 3.1l3.07-.68z"/><path fill="#31ff23" d="M8 8.02l4.93 2.83-2.33 2.12z"/><path fill="#10ffa4" d="M8 8.02l2.85 4.9-3.07.68z"/></g><circle cx="122.958" cy="224.694" r="9.443" fill="url(#d)" stroke="#2e3436" stroke-width="1.714" transform="matrix(.505 -.292 .292 .505 -119.712 -69.67)"/></g></svg>