<svg xmlns="http://www.w3.org/2000/svg" width="16" height="16" xmlns:xlink="http://www.w3.org/1999/xlink" viewBox="0 0 20.417 22.542" overflow="visible" enable-background="new 0 0 20.417 22.542" version="1"><defs><linearGradient id="a" x1="11.668" x2="14.418" y1="10.009" y2="17.051" gradientUnits="userSpaceOnUse"><stop offset="0" stop-color="#888A85"/><stop offset="1"/></linearGradient><linearGradient id="b" x1="11.668" x2="14.418" y1="10.009" y2="17.051" xlink:href="#a" gradientUnits="userSpaceOnUse"/></defs><rect width="16.898" height="16.906" x="2.46" y="2.113" fill="#fff" stroke="#2e3436" stroke-width="1.409" ry="0"/><path fill="#edd400" d="M4.54 4.26H8.8V8.5H4.55z" color="#000" overflow="visible" enable-background="accumulate"/><path fill="#f14343" d="M8.85 4.26h4.28V8.5H8.85z" color="#000" overflow="visible" enable-background="accumulate"/><path fill="#4e9a06" d="M13.05 4.26h4.28V8.5h-4.28z" color="#000" overflow="visible" enable-background="accumulate"/><path fill="#3465a4" d="M4.54 8.5H8.8v4.24H4.55z" color="#000" overflow="visible" enable-background="accumulate"/><path fill="#ad7fa8" d="M8.85 8.5h4.28v4.24H8.85z" color="#000" overflow="visible" enable-background="accumulate"/><path fill="#73d216" d="M13.05 8.5h4.28v4.24h-4.28z" color="#000" overflow="visible" enable-background="accumulate"/><path fill="#fcaf3e" d="M4.54 12.66H8.8v4.24H4.55z" color="#000" overflow="visible" enable-background="accumulate"/><path fill="#729fcf" d="M8.85 12.66h4.28v4.24H8.85z" color="#000" overflow="visible" enable-background="accumulate"/><path fill="#729fcf" d="M13.05 12.66h4.28v4.24h-4.28z" color="#000" overflow="visible" enable-background="accumulate"/><path fill="url(#b)" stroke="#fff" stroke-width="1.192" d="M11.05 8.7v13.34l3.62-4.46 5.25-.06-8.87-8.8z" transform="matrix(1.215 0 0 1.151 -2.587 -2.28)" stroke-linejoin="bevel"/></svg>