<svg xmlns="http://www.w3.org/2000/svg" width="16" height="16" xmlns:xlink="http://www.w3.org/1999/xlink"><defs><linearGradient id="e"><stop offset="0" stop-color="#eeeeec"/><stop offset="1" stop-color="#96968a"/></linearGradient><linearGradient id="d"><stop offset="0" stop-color="#fff"/><stop offset="1" stop-color="#fff" stop-opacity="0"/></linearGradient><linearGradient id="c"><stop offset="0" stop-color="#fef088"/><stop offset=".5" stop-color="#fde63a"/><stop offset="1" stop-color="#dac203"/></linearGradient><linearGradient id="b"><stop offset="0" stop-color="#dac203"/><stop offset=".5" stop-color="#fdec69"/><stop offset="1" stop-color="#fdef7e"/></linearGradient><linearGradient><stop offset="0"/><stop offset="1" stop-opacity="0"/></linearGradient><linearGradient id="a"><stop offset="0" stop-color="#c4a000"/><stop offset="1" stop-color="#c4a000" stop-opacity="0"/></linearGradient><linearGradient id="h" x1="9.105" x2="10.147" y1="38.828" y2="30.141" xlink:href="#a" gradientUnits="userSpaceOnUse" gradientTransform="matrix(.319 -.184 .294 .509 -6.314 28.719)"/><linearGradient id="i" x1="19.616" x2="18.486" y1="39.253" y2="29.909" xlink:href="#a" gradientUnits="userSpaceOnUse" gradientTransform="matrix(.319 -.184 .294 .509 -6.325 28.7)"/><linearGradient id="j" x1="15.097" x2="14.045" y1="36.968" y2="29" xlink:href="#a" gradientUnits="userSpaceOnUse" gradientTransform="matrix(.319 -.184 .311 .538 -7.802 28.017)"/><linearGradient id="k" x1="14.045" x2="14.045" y1="37.576" y2="29" xlink:href="#a" gradientUnits="userSpaceOnUse" gradientTransform="matrix(.319 -.184 .295 .511 -5.253 28.013)"/><linearGradient id="l" x1="16.929" x2="14.045" y1="34.011" y2="29" xlink:href="#a" gradientUnits="userSpaceOnUse" gradientTransform="matrix(.319 -.184 .317 .549 -7.116 26.994)"/><linearGradient id="m" x1="11.997" x2="17.774" y1="19.592" y2="16.235" xlink:href="#b" gradientUnits="userSpaceOnUse" gradientTransform="matrix(.374 0 0 .37 -.657 32.064)"/><radialGradient id="g" cx="20.764" cy="19.541" r="14.8" xlink:href="#c" fx="20.764" fy="19.541" gradientTransform="matrix(.165 -.08 .208 .431 -1.062 33.053)" gradientUnits="userSpaceOnUse"/><linearGradient id="f" x1="7.063" x2="14.767" y1="2.155" y2="14.2" xlink:href="#d" gradientUnits="userSpaceOnUse" gradientTransform="matrix(.414 0 0 .413 -1.107 31.623)"/><linearGradient id="n" x1="-17.469" x2="-12.035" y1="36.736" y2="36.736" xlink:href="#e" gradientUnits="userSpaceOnUse" gradientTransform="matrix(1.091 0 0 1.091 1.428 -2.828)"/></defs><g transform="translate(0 -32)"><path fill="#babdb6" fill-rule="evenodd" stroke="#2e3436" stroke-width=".381" d="M1.76 32.36c.7-.37 1.7 0 2.07.64l1.73 3.92c.36.64.26 1.4-.24 1.68-.5.3-1.2 0-1.56-.63L1.3 34.5c-.35-.63-.25-1.8.46-2.14z" stroke-linecap="round"/><path fill="none" stroke="url(#f)" stroke-width=".381" d="M1.97 32.75c.6-.32 1.17-.08 1.53.56l1.84 4.18-1 .58-2.6-3.64c-.37-.64-.37-1.33.23-1.67z" stroke-linecap="round"/><path fill="url(#g)" fill-rule="evenodd" stroke="#9f8200" stroke-width=".5" d="M4.9 40.5c-.3 1.6.24 5.14 2.3 7.26 1.6.05 5.16-1.26 7.57-3.76-3.4-1.66-5.72-5.78-7.52-4.9L4.9 40.5z"/><path fill="none" stroke="url(#h)" stroke-width=".379" d="M5.48 41.1c.86 2.3.92 4.7 2.64 6.58" stroke-linecap="round"/><path fill="none" stroke="#fff" stroke-width=".379" d="M5.33 40.74c-.34.18-.06 4.6 2.05 6.62 2.72-.07 5.72-2.35 6.77-3.25-3.5-2.2-5.5-5.43-6.8-4.62l-2.02 1.26z" opacity=".462"/><path fill="none" stroke="url(#i)" stroke-width=".379" d="M8.24 40.32c.32-.28 2.12 2.24 5.53 4.55" stroke-linecap="round"/><path fill="none" stroke="url(#j)" stroke-width=".379" d="M6.1 40.53c1.36 1.97 1.1 4.58 3.25 6.66" stroke-linecap="round"/><path fill="none" stroke="url(#k)" stroke-width=".379" d="M7.93 40.5s3 4.8 4.1 5.56" stroke-linecap="round"/><path fill="none" stroke="url(#l)" stroke-width=".379" d="M6.57 40.3c1.27 1.06 3.2 5.2 4.16 6.42" stroke-linecap="round"/><path fill="url(#m)" fill-rule="evenodd" stroke="#9f8200" stroke-width=".5" d="M2.6 38.77l4.22-2.42c.22.88-.13 1.2.66 2.63l-2.9 1.67c-.55-1.28-1.33-1.26-1.98-1.88z" stroke-linecap="round" stroke-linejoin="round"/><path fill="none" stroke="#fff" stroke-width=".379" d="M4.64 39.94c-.3-.53-.95-.83-1.36-1.15l3.22-1.83c0 .54.2 1.14.33 1.66l-2.2 1.3z" opacity=".247"/><rect width="5.385" height="1.431" x="-17.364" y="36.525" fill="url(#n)" fill-rule="evenodd" stroke="#2e3436" stroke-width=".5" ry=".413" stroke-linecap="round" rx=".414" transform="rotate(-30.003)"/><path fill="#fff" fill-rule="evenodd" stroke="#2e3436" stroke-width=".5.001" d="M3.25 34.18c-.1.4-.6.54-.9.24-.13-.13-.2-.33-.14-.5.12-.4.62-.55.9-.26.15.14.2.34.15.52z" stroke-linecap="round" stroke-linejoin="round"/><path fill="#fff" fill-rule="evenodd" d="M9.68 47.05s.55-.2.8-.35c-.46-.72-1.26-2.17-2-3.27.45 2.4 1.2 3.62 1.2 3.62z" opacity=".317"/><path fill="#fff" fill-rule="evenodd" d="M10.93 46.5l.75-.4c-.72-.7-2.75-3.73-2.75-3.73l2 4.13z" opacity=".317"/><path fill="#fff" fill-rule="evenodd" d="M12.6 45.5l.9-.63c-1.18-.5-4.28-3.64-4.28-3.64.88 1.1 2.5 3.17 3.37 4.28z" opacity=".317"/><path fill="#fff" fill-rule="evenodd" d="M13.88 44.6l.62-.52c-1.22-.55-4.6-3.65-4.6-3.65s2.24 3.4 3.98 4.17z" opacity=".317"/><path fill="#fff" fill-rule="evenodd" d="M8.44 47.42s.44-.1.75-.17c-.55-.45-1.4-1.63-1.88-3.17.2 2.54 1.12 3.34 1.12 3.34z" opacity=".317"/><path fill="#fff" fill-rule="evenodd" d="M7.33 47.57s.46 0 .46 0c-.85-.94-1.16-1.98-1.64-3.47-.05 1.72 1.17 3.47 1.17 3.47z" opacity=".317"/></g></svg>