<svg xmlns="http://www.w3.org/2000/svg" width="16" height="16" xmlns:xlink="http://www.w3.org/1999/xlink"><defs><linearGradient id="k"><stop offset="0" stop-color="#ffd419"/><stop offset=".361" stop-color="#d64747"/><stop offset=".781" stop-color="#5998db"/><stop offset="1" stop-color="#236cba"/></linearGradient><linearGradient id="j"><stop offset="0" stop-color="#616e72"/><stop offset="1" stop-color="#2e3436"/></linearGradient><linearGradient id="i"><stop offset="0" stop-color="#eeeeec"/><stop offset="1" stop-color="#eeeeec" stop-opacity="0"/></linearGradient><linearGradient id="h"><stop offset="0" stop-color="#c6c6c6"/><stop offset=".5" stop-color="#fff"/><stop offset="1" stop-color="#a8a8a8"/></linearGradient><linearGradient x1="25.38" x2="19.875" y1="27.241" y2="27.241" xlink:href="#a" gradientUnits="userSpaceOnUse" gradientTransform="matrix(1.032 0 0 1.032 11.959 -50.744)"/><linearGradient id="a"><stop offset="0" stop-opacity=".422"/><stop offset="1" stop-opacity="0"/></linearGradient><linearGradient x1="25.38" x2="19.875" y1="27.241" y2="27.241" xlink:href="#b" gradientUnits="userSpaceOnUse" gradientTransform="matrix(1.032 0 0 1.032 11.959 -50.744)"/><linearGradient id="b"><stop offset="0" stop-color="#fff"/><stop offset="1" stop-color="#fff" stop-opacity="0"/></linearGradient><linearGradient x1="25.38" x2="19.875" y1="27.241" y2="27.241" xlink:href="#b" gradientUnits="userSpaceOnUse" gradientTransform="translate(-.013 -6.369)"/><linearGradient x1="25.38" x2="19.875" y1="27.241" y2="27.241" xlink:href="#a" gradientUnits="userSpaceOnUse" gradientTransform="translate(-.013 -6.369)"/><linearGradient x1="25.38" x2="19.875" y1="27.241" y2="27.241" xlink:href="#b" gradientUnits="userSpaceOnUse" gradientTransform="translate(.038 .652)"/><linearGradient x1="25.38" x2="19.875" y1="27.241" y2="27.241" xlink:href="#a" gradientUnits="userSpaceOnUse" gradientTransform="translate(.038 .652)"/><linearGradient x1="25.38" x2="19.875" y1="27.241" y2="27.241" xlink:href="#b" gradientUnits="userSpaceOnUse" gradientTransform="translate(0 3.839)"/><linearGradient x1="25.38" x2="19.875" y1="27.241" y2="27.241" xlink:href="#a" gradientUnits="userSpaceOnUse" gradientTransform="translate(0 3.839)"/><linearGradient x1="18.385" x2="23.436" y1="19.817" y2="19.817" xlink:href="#c" gradientUnits="userSpaceOnUse" gradientTransform="matrix(1.032 0 0 1.032 11.92 -38.251)"/><linearGradient id="c"><stop offset="0" stop-color="#fff" stop-opacity="0"/><stop offset=".5" stop-color="#fff"/><stop offset="1" stop-color="#fff" stop-opacity="0"/></linearGradient><radialGradient cx="21.516" cy="40.02" r="5.455" xlink:href="#d" gradientUnits="userSpaceOnUse" fx="21.516" fy="40.02"/><linearGradient id="d"><stop offset="0" stop-color="#fff"/><stop offset="1" stop-color="#fff" stop-opacity="0"/></linearGradient><radialGradient cx="20.909" cy="33.204" r="6.078" xlink:href="#e" gradientUnits="userSpaceOnUse" gradientTransform="matrix(1.031 .044 -.052 1.235 13.628 -40.616)" fx="20.909" fy="33.204"/><linearGradient id="e"><stop offset="0" stop-color="#f13e3e"/><stop offset="1" stop-color="#e61111"/></linearGradient><linearGradient x1="29.312" x2="41.116" y1="22.994" y2="30.709" xlink:href="#f" gradientUnits="userSpaceOnUse" gradientTransform="matrix(.934 -.44 .44 .934 -10.499 -19.172)"/><linearGradient id="f"><stop offset="0" stop-color="#5d5d5d"/><stop offset="1"/></linearGradient><linearGradient id="g"><stop offset="0"/><stop offset="1" stop-opacity="0"/></linearGradient><radialGradient cx="34.714" cy="43.357" r="7.429" fy="43.357" fx="34.714" gradientTransform="matrix(1 0 0 .596 0 17.51)" gradientUnits="userSpaceOnUse" xlink:href="#g"/><linearGradient id="l" x1="6.005" x2="9.962" y1="8.076" y2="8.121" xlink:href="#h" gradientUnits="userSpaceOnUse"/><radialGradient cx="6.509" cy="12.15" r="2.695" xlink:href="#i" fx="6.509" fy="12.15" gradientUnits="userSpaceOnUse"/><linearGradient id="m" x1="8.055" x2="7.958" y1=".08" y2="16.05" xlink:href="#j" gradientUnits="userSpaceOnUse"/><linearGradient id="n" x1="8.067" x2="8.053" y1="6.966" y2="14.895" xlink:href="#k" gradientUnits="userSpaceOnUse"/></defs><g><path fill="none" stroke="#555753" d="M10.02 2.5h2.13"/><path fill="none" stroke="#babdb6" d="M10.02 3.48h2.13"/><path fill="none" stroke="#555753" d="M10.02 5.53h2.13"/><path fill="none" stroke="#babdb6" d="M10.02 6.5h2.13"/><path fill="none" stroke="#555753" d="M10.02 8.5h2.13"/><path fill="none" stroke="#babdb6" d="M10.02 9.47h2.13"/><path fill="url(#l)" stroke="url(#m)" stroke-width=".5" d="M8 .25c-.97 0-1.75.78-1.75 1.75v8.75c-.64.52-1.03 1.3-1.03 2.2 0 1.56 1.27 2.86 2.84 2.86 1.58 0 2.85-1.3 2.85-2.86 0-.9-.42-1.7-1.1-2.22V2c0-.97-.77-1.75-1.74-1.75H8z" color="#000" overflow="visible" enable-background="accumulate"/><path fill="#eeeeec" stroke="url(#m)" stroke-width=".5" d="M8 .25c-.97 0-1.75.78-1.75 1.75v8.75c-.64.52-1.03 1.3-1.03 2.2 0 1.56 1.27 2.86 2.84 2.86 1.58 0 2.85-1.3 2.85-2.86 0-.9-.42-1.7-1.1-2.22V2c0-.97-.77-1.75-1.74-1.75H8z" color="#000" overflow="visible" enable-background="accumulate"/><path fill="url(#n)" d="M8.07 6.18C7.52 6.18 7 5.9 7 5.68v5.54c-.57.36-.94 1-.94 1.72 0 1.12.9 2.03 2.03 2.03 1.1 0 2.03-.9 2.03-2.03 0-.8-.47-1.48-1.13-1.8V5.67c0 .23-.38.5-.93.5z" color="#000" overflow="visible" enable-background="accumulate"/><path fill="#fff" d="M8.3 1.56a.83.83 0 1 1-1.66 0 .83.83 0 1 1 1.67 0z" color="#000" overflow="visible" enable-background="accumulate"/><path fill="#fff" fill-opacity=".758" d="M7.46 12.22a.83.83 0 1 1-1.67 0 .83.83 0 1 1 1.66 0z" color="#000" overflow="visible" enable-background="accumulate"/></g></svg>