<svg xmlns="http://www.w3.org/2000/svg" width="16" height="16" i:viewOrigin="0.8389 47.2588" i:rulerOrigin="0 0" i:pageBounds="0 48 48 0" xmlns:xlink="http://www.w3.org/1999/xlink" viewBox="0 0 46.899 46.899" overflow="visible" enable-background="new 0 0 46.899 46.899" version="1"><defs><radialGradient cx="4.048" cy="4.46" r="48.88" gradientUnits="userSpaceOnUse" fy="4.46" fx="4.048"><stop offset="0" stop-color="#fff"/><stop offset="1" stop-color="#b11212"/></radialGradient><linearGradient x1="-165.394" x2="-170.38" y1="-93.119" y2="-104.198" gradientTransform="matrix(-.574 -.819 .819 -.574 -3.236 298.158)" gradientUnits="userSpaceOnUse"><stop offset="0" stop-color="#ff7171"/><stop offset="1" stop-color="#fff" stop-opacity="0"/></linearGradient><linearGradient x1="-165.82" x2="-170.229" y1="-93.99" y2="-103.786" gradientTransform="matrix(-.574 -.819 .819 -.574 -6.75 -152.536)" gradientUnits="userSpaceOnUse"><stop offset="0" stop-color="#ffa410"/><stop offset="1" stop-color="#fff" stop-opacity="0"/></linearGradient><radialGradient cx="25.575" cy="10.989" r="29.296" gradientUnits="userSpaceOnUse" gradientTransform="matrix(-1 0 0 1 40.871 0)" fy="10.989" fx="25.575"><stop offset="0" stop-color="#f66"/><stop offset="1" stop-color="#ba0000"/></radialGradient><linearGradient id="o"><stop offset="0" stop-color="#fff"/><stop offset="1" stop-color="#fff" stop-opacity="0"/></linearGradient><linearGradient id="q"><stop offset="0" stop-color="#729fcf"/><stop offset="1" stop-color="#2b5582"/></linearGradient><linearGradient id="r"><stop offset="0" stop-color="#aeaeae"/><stop offset="1" stop-color="#c4c4c4" stop-opacity="0"/></linearGradient><linearGradient id="p"><stop offset="0" stop-color="#f2f2f2"/><stop offset="1" stop-color="#c3c3c3"/></linearGradient><linearGradient id="s"><stop offset="0" stop-color="#729fcf"/><stop offset="1" stop-color="#3c74b1"/></linearGradient><linearGradient id="a"><stop offset="0" stop-color="#fff"/><stop offset="1" stop-color="#fff" stop-opacity="0"/></linearGradient><radialGradient cx="270" cy="270" r="153.796" xlink:href="#a" gradientUnits="userSpaceOnUse" gradientTransform="matrix(1.546 0 0 1.546 -147.412 -147.412)" fx="270" fy="270"/><linearGradient id="n"><stop offset="0" stop-color="#cee14b"/><stop offset="1" stop-color="#9db029"/></linearGradient><linearGradient><stop offset="0"/><stop offset="1" stop-opacity="0"/></linearGradient><linearGradient id="m"><stop offset="0" stop-color="#fff"/><stop offset="1" stop-color="#727e0a"/></linearGradient><radialGradient cx="40.541" cy="486.093" r="2.869" fx="40.541" fy="486.093" gradientTransform="matrix(-1 0 0 1 55.359 0)" gradientUnits="userSpaceOnUse"><stop offset="0" stop-color="#2E659E"/><stop offset="1" stop-color="#193766"/></radialGradient><linearGradient id="l"><stop offset="0" stop-color="#cee14b"/><stop offset="1" stop-color="#9db029"/></linearGradient><linearGradient id="k"><stop offset="0" stop-color="#729fcf"/><stop offset="1" stop-color="#35679d"/></linearGradient><linearGradient id="j"><stop offset="0" stop-color="#fc0"/><stop offset="1" stop-color="#f60"/></linearGradient><linearGradient id="g" x1="-165.394" x2="-170.38" y1="-93.119" y2="-104.198" gradientUnits="userSpaceOnUse" gradientTransform="matrix(-.574 -.819 .819 -.574 -3.236 298.158)"><stop offset="0" stop-color="#ffc971"/><stop offset="1" stop-color="#fff" stop-opacity="0"/></linearGradient><linearGradient id="f" x1="-165.82" x2="-170.229" y1="-93.99" y2="-103.786" gradientUnits="userSpaceOnUse" gradientTransform="matrix(-.574 -.819 .819 -.574 -6.75 -152.536)"><stop offset="0" stop-color="#ffa410"/><stop offset="1" stop-color="#fff" stop-opacity="0"/></linearGradient><radialGradient id="i" cx="4.048" cy="4.46" r="48.88" fx="4.048" fy="4.46" gradientUnits="userSpaceOnUse"><stop offset="0" stop-color="#fff"/><stop offset=".064" stop-color="#FEEED5"/><stop offset=".172" stop-color="#FCD395"/><stop offset=".262" stop-color="#FBBF66"/><stop offset=".331" stop-color="#FAB349"/><stop offset=".371" stop-color="#FAAF3E"/><stop offset=".691" stop-color="#F17912"/><stop offset="1" stop-color="#B15A12"/></radialGradient><radialGradient id="h" cx="25.575" cy="10.989" r="29.296" fx="25.575" fy="10.989" gradientTransform="matrix(-1 0 0 1 40.871 0)" gradientUnits="userSpaceOnUse"><stop offset="0" stop-color="#fff"/><stop offset=".064" stop-color="#FEEED5"/><stop offset=".172" stop-color="#FCD395"/><stop offset=".262" stop-color="#FBBF66"/><stop offset=".331" stop-color="#FAB349"/><stop offset=".371" stop-color="#FAAF3E"/><stop offset=".691" stop-color="#F17912"/><stop offset="1" stop-color="#A65414"/></radialGradient><radialGradient id="d" cx="14.31" cy="485.416" r="4.065" gradientUnits="userSpaceOnUse" fy="485.416" fx="14.31"><stop offset="0" stop-color="#fff"/><stop offset=".685" stop-color="#2E659E"/><stop offset="1" stop-color="#1D3E63"/></radialGradient><radialGradient id="c" cx="40.541" cy="486.093" r="2.869" gradientUnits="userSpaceOnUse" gradientTransform="matrix(-1 0 0 1 55.359 0)" fy="486.093" fx="40.541"><stop offset="0" stop-color="#fff"/><stop offset=".004" stop-color="#FDFDFE"/><stop offset=".107" stop-color="#C7D5E5"/><stop offset=".212" stop-color="#98B3CF"/><stop offset=".315" stop-color="#7297BD"/><stop offset=".417" stop-color="#5481B0"/><stop offset=".517" stop-color="#3F72A6"/><stop offset=".615" stop-color="#3268A0"/><stop offset=".708" stop-color="#2E659E"/><stop offset="1" stop-color="#193766"/></radialGradient><linearGradient id="e" x1="-165.394" x2="-170.38" y1="-93.119" y2="-104.198" gradientTransform="matrix(-.574 -.819 .819 -.574 -3.236 298.158)" gradientUnits="userSpaceOnUse"><stop offset="0" stop-color="#88A9C3"/><stop offset="1" stop-color="#fff" stop-opacity="0"/></linearGradient><linearGradient id="b" x1="-165.82" x2="-170.229" y1="-93.99" y2="-103.786" gradientTransform="matrix(-.574 -.819 .819 -.574 -6.75 -152.536)" gradientUnits="userSpaceOnUse"><stop offset="0" stop-color="#6F87A0"/><stop offset="1" stop-color="#fff" stop-opacity="0"/></linearGradient><linearGradient x1="-165.82" x2="-170.229" y1="-93.99" y2="-103.786" xlink:href="#b" gradientUnits="userSpaceOnUse" gradientTransform="matrix(-.76 -1.768 1.768 -.76 65.898 -346.931)"/><radialGradient cx="40.541" cy="486.093" r="2.869" xlink:href="#c" gradientUnits="userSpaceOnUse" gradientTransform="matrix(-1 0 0 1 55.359 0)" fx="40.541" fy="486.093"/><radialGradient cx="14.31" cy="485.416" r="4.065" xlink:href="#d" gradientUnits="userSpaceOnUse" fx="14.31" fy="485.416"/><linearGradient x1="-165.82" x2="-170.229" y1="-93.99" y2="-103.786" xlink:href="#b" gradientUnits="userSpaceOnUse" gradientTransform="matrix(-.76 -1.768 1.768 -.76 65.898 -346.931)"/><linearGradient x1="-165.394" x2="-170.38" y1="-93.119" y2="-104.198" xlink:href="#e" gradientUnits="userSpaceOnUse" gradientTransform="matrix(-.574 -.819 .819 -.574 -3.236 298.158)"/><radialGradient cx="40.541" cy="486.093" r="2.869" xlink:href="#c" gradientUnits="userSpaceOnUse" gradientTransform="matrix(-1 0 0 1 55.359 0)" fx="40.541" fy="486.093"/><radialGradient cx="14.31" cy="485.416" r="4.065" xlink:href="#d" gradientUnits="userSpaceOnUse" fx="14.31" fy="485.416"/><linearGradient x1="-165.82" x2="-170.229" y1="-93.99" y2="-103.786" xlink:href="#b" gradientUnits="userSpaceOnUse" gradientTransform="matrix(-.76 -1.768 1.768 -.76 65.898 -346.931)"/><linearGradient x1="-165.394" x2="-170.38" y1="-93.119" y2="-104.198" xlink:href="#e" gradientUnits="userSpaceOnUse" gradientTransform="matrix(-.574 -.819 .819 -.574 -3.236 298.158)"/><radialGradient cx="40.541" cy="486.093" r="2.869" xlink:href="#c" gradientUnits="userSpaceOnUse" gradientTransform="matrix(-1 0 0 1 55.359 0)" fx="40.541" fy="486.093"/><radialGradient cx="14.31" cy="485.416" r="4.065" xlink:href="#d" gradientUnits="userSpaceOnUse" fx="14.31" fy="485.416"/><linearGradient x1="-165.82" x2="-170.229" y1="-93.99" y2="-103.786" xlink:href="#b" gradientUnits="userSpaceOnUse" gradientTransform="matrix(-.76 -1.768 1.768 -.76 65.898 -346.931)"/><linearGradient x1="-165.394" x2="-170.38" y1="-93.119" y2="-104.198" xlink:href="#e" gradientUnits="userSpaceOnUse" gradientTransform="matrix(-.574 -.819 .819 -.574 -3.236 298.158)"/><radialGradient cx="40.541" cy="486.093" r="2.869" xlink:href="#c" gradientUnits="userSpaceOnUse" gradientTransform="matrix(-1 0 0 1 55.359 0)" fx="40.541" fy="486.093"/><radialGradient cx="14.31" cy="485.416" r="4.065" xlink:href="#d" gradientUnits="userSpaceOnUse" fx="14.31" fy="485.416"/><linearGradient x1="-165.82" x2="-170.229" y1="-93.99" y2="-103.786" xlink:href="#f" gradientUnits="userSpaceOnUse" gradientTransform="matrix(-.76 -1.768 1.768 -.76 51.413 -351.946)"/><linearGradient x1="-165.394" x2="-170.38" y1="-93.119" y2="-104.198" xlink:href="#e" gradientUnits="userSpaceOnUse" gradientTransform="matrix(-.574 -.819 .819 -.574 -3.236 298.158)"/><linearGradient x1="-165.394" x2="-170.38" y1="-93.119" y2="-104.198" gradientUnits="userSpaceOnUse" gradientTransform="matrix(-.574 -.819 .819 -.574 -3.236 298.158)"><stop offset="0" stop-color="#88A9C3"/><stop offset="1" stop-color="#fff"/></linearGradient><linearGradient x1="-165.394" x2="-170.38" y1="-93.119" y2="-104.198" xlink:href="#g" gradientUnits="userSpaceOnUse" gradientTransform="matrix(-.76 -1.768 1.768 -.76 51.413 -351.946)"/><linearGradient x1="-165.82" x2="-170.229" y1="-93.99" y2="-103.786" xlink:href="#f" gradientUnits="userSpaceOnUse" gradientTransform="matrix(-.76 -1.768 1.768 -.76 51.413 -351.946)"/><linearGradient x1="-165.394" x2="-170.38" y1="-93.119" y2="-104.198" xlink:href="#g" gradientUnits="userSpaceOnUse" gradientTransform="matrix(-.76 -1.768 1.768 -.76 51.413 -351.946)"/><radialGradient cx="25.575" cy="10.989" r="29.296" xlink:href="#h" gradientUnits="userSpaceOnUse" gradientTransform="matrix(-1 0 0 1 40.871 0)" fx="25.575" fy="10.989"/><radialGradient cx="4.048" cy="4.46" r="48.88" xlink:href="#i" gradientUnits="userSpaceOnUse" fx="4.048" fy="4.46"/><linearGradient x1="-165.82" x2="-170.229" y1="-93.99" y2="-103.786" xlink:href="#b" gradientUnits="userSpaceOnUse" gradientTransform="matrix(-.76 -1.768 1.768 -.76 68.229 -357.625)"/><linearGradient x1="-165.394" x2="-170.38" y1="-93.119" y2="-104.198" xlink:href="#e" gradientUnits="userSpaceOnUse" gradientTransform="matrix(-.574 -.819 .819 -.574 -3.236 298.158)"/><linearGradient x1="-165.394" x2="-170.38" y1="-93.119" y2="-104.198" gradientUnits="userSpaceOnUse" gradientTransform="matrix(-.574 -.819 .819 -.574 -3.236 298.158)"><stop offset="0" stop-color="#88A9C3"/><stop offset="1" stop-color="#fff"/></linearGradient><linearGradient x1="-165.394" x2="-170.38" y1="-93.119" y2="-104.198" xlink:href="#e" gradientUnits="userSpaceOnUse" gradientTransform="matrix(-.76 -1.768 1.768 -.76 68.229 -357.625)"/><linearGradient x1="-165.394" x2="-170.38" y1="-93.119" y2="-104.198" xlink:href="#g" gradientUnits="userSpaceOnUse" gradientTransform="matrix(-.76 -1.768 1.768 -.76 54.235 -333.08)"/><linearGradient x1="-165.82" x2="-170.229" y1="-93.99" y2="-103.786" xlink:href="#f" gradientUnits="userSpaceOnUse" gradientTransform="matrix(-.76 -1.768 1.768 -.76 54.235 -333.08)"/><linearGradient x1="-165.82" x2="-170.229" y1="-93.99" y2="-103.786" xlink:href="#f" gradientUnits="userSpaceOnUse" gradientTransform="matrix(-.76 -1.768 1.768 -.76 54.235 -333.08)"/><linearGradient x1="-165.394" x2="-170.38" y1="-93.119" y2="-104.198" xlink:href="#g" gradientUnits="userSpaceOnUse" gradientTransform="matrix(-.76 -1.768 1.768 -.76 54.235 -333.08)"/><radialGradient cx="25.575" cy="10.989" r="29.296" xlink:href="#h" gradientUnits="userSpaceOnUse" gradientTransform="matrix(-1 0 0 1 40.871 0)" fx="25.575" fy="10.989"/><radialGradient cx="4.048" cy="4.46" r="48.88" xlink:href="#i" gradientUnits="userSpaceOnUse" fx="4.048" fy="4.46"/><linearGradient x1="-165.82" x2="-170.229" y1="-93.99" y2="-103.786" xlink:href="#b" gradientUnits="userSpaceOnUse" gradientTransform="matrix(-.76 -1.768 1.768 -.76 68.229 -357.625)"/><linearGradient x1="-165.394" x2="-170.38" y1="-93.119" y2="-104.198" xlink:href="#e" gradientUnits="userSpaceOnUse" gradientTransform="matrix(-.76 -1.768 1.768 -.76 68.229 -357.625)"/><radialGradient cx="40.541" cy="486.093" r="2.869" xlink:href="#c" gradientUnits="userSpaceOnUse" gradientTransform="matrix(-1 0 0 1 55.359 0)" fx="40.541" fy="486.093"/><radialGradient cx="14.31" cy="485.416" r="4.065" xlink:href="#d" gradientUnits="userSpaceOnUse" fx="14.31" fy="485.416"/><linearGradient x1="24.734" x2="34.836" y1="24.244" y2="35.089" xlink:href="#j" gradientUnits="userSpaceOnUse"/><linearGradient x1="34.91" x2="45.755" y1="24.244" y2="35.089" xlink:href="#k" gradientUnits="userSpaceOnUse"/><linearGradient x1="34.91" x2="45.755" y1="35.015" y2="45.859" xlink:href="#l" gradientUnits="userSpaceOnUse"/><linearGradient x1="-165.82" x2="-170.229" y1="-93.99" y2="-103.786" xlink:href="#b" gradientUnits="userSpaceOnUse" gradientTransform="matrix(-.76 -1.768 1.768 -.76 65.898 -346.931)"/><linearGradient x1="-165.394" x2="-170.38" y1="-93.119" y2="-104.198" xlink:href="#e" gradientUnits="userSpaceOnUse" gradientTransform="matrix(-.574 -.819 .819 -.574 -3.236 298.158)"/><radialGradient cx="40.541" cy="486.093" r="2.869" xlink:href="#c" gradientUnits="userSpaceOnUse" gradientTransform="matrix(-1 0 0 1 55.359 0)" fx="40.541" fy="486.093"/><radialGradient cx="14.31" cy="485.416" r="4.065" xlink:href="#d" gradientUnits="userSpaceOnUse" fx="14.31" fy="485.416"/><linearGradient x1="34.91" x2="45.755" y1="35.015" y2="45.859" xlink:href="#l" gradientUnits="userSpaceOnUse"/><linearGradient x1="34.91" x2="45.755" y1="24.244" y2="35.089" xlink:href="#k" gradientUnits="userSpaceOnUse"/><linearGradient x1="24.734" x2="34.836" y1="24.244" y2="35.089" xlink:href="#j" gradientUnits="userSpaceOnUse"/><linearGradient x1="24.734" x2="34.836" y1="24.244" y2="35.089" xlink:href="#j" gradientUnits="userSpaceOnUse" gradientTransform="translate(-.893 -.893)"/><linearGradient x1="34.91" x2="45.755" y1="24.244" y2="35.089" xlink:href="#k" gradientUnits="userSpaceOnUse" gradientTransform="translate(-.893 -.893)"/><linearGradient x1="34.91" x2="45.755" y1="35.015" y2="45.859" xlink:href="#l" gradientUnits="userSpaceOnUse" gradientTransform="translate(-.893 -.893)"/><linearGradient x1="-165.82" x2="-170.229" y1="-93.99" y2="-103.786" xlink:href="#b" gradientUnits="userSpaceOnUse" gradientTransform="matrix(-.76 -1.768 1.768 -.76 65.898 -346.931)"/><linearGradient x1="-165.394" x2="-170.38" y1="-93.119" y2="-104.198" xlink:href="#e" gradientUnits="userSpaceOnUse" gradientTransform="matrix(-.574 -.819 .819 -.574 -3.236 298.158)"/><radialGradient cx="40.541" cy="486.093" r="2.869" xlink:href="#c" gradientUnits="userSpaceOnUse" gradientTransform="matrix(-1 0 0 1 55.359 0)" fx="40.541" fy="486.093"/><radialGradient cx="14.31" cy="485.416" r="4.065" xlink:href="#d" gradientUnits="userSpaceOnUse" fx="14.31" fy="485.416"/><linearGradient x1="-165.82" x2="-170.229" y1="-93.99" y2="-103.786" xlink:href="#b" gradientUnits="userSpaceOnUse" gradientTransform="matrix(-.76 -1.768 1.768 -.76 79.473 -351.831)"/><radialGradient cx="14.693" cy="486.682" r="2.072" xlink:href="#m" fx="14.693" fy="486.682" gradientUnits="userSpaceOnUse"/><radialGradient cx="14.31" cy="485.416" r="4.065" xlink:href="#d" gradientUnits="userSpaceOnUse" fx="14.31" fy="485.416"/><linearGradient x1="13.228" x2="17.372" y1="487.164" y2="487.164" xlink:href="#n" gradientUnits="userSpaceOnUse"/><radialGradient cx="270" cy="270" r="153.796" xlink:href="#a" gradientUnits="userSpaceOnUse" gradientTransform="matrix(1.546 0 0 1.546 -147.412 -147.412)" fx="270" fy="270"/><linearGradient x1="-165.82" x2="-170.229" y1="-93.99" y2="-103.786" xlink:href="#b" gradientUnits="userSpaceOnUse" gradientTransform="matrix(-.76 -1.768 1.768 -.76 65.898 -346.931)"/><linearGradient x1="-165.394" x2="-170.38" y1="-93.119" y2="-104.198" xlink:href="#e" gradientUnits="userSpaceOnUse" gradientTransform="matrix(-.574 -.819 .819 -.574 -3.236 298.158)"/><radialGradient cx="40.541" cy="486.093" r="2.869" xlink:href="#c" gradientUnits="userSpaceOnUse" gradientTransform="matrix(-1 0 0 1 55.359 0)" fx="40.541" fy="486.093"/><radialGradient cx="14.31" cy="485.416" r="4.065" xlink:href="#d" gradientUnits="userSpaceOnUse" fx="14.31" fy="485.416"/><radialGradient cx="25.575" cy="10.989" r="29.296" xlink:href="#h" gradientUnits="userSpaceOnUse" gradientTransform="matrix(-1 0 0 1 40.871 0)" fx="25.575" fy="10.989"/><radialGradient cx="4.048" cy="4.46" r="48.88" xlink:href="#i" gradientUnits="userSpaceOnUse" fx="4.048" fy="4.46"/><radialGradient cx="25.575" cy="10.989" r="29.296" gradientUnits="userSpaceOnUse" gradientTransform="matrix(-1 0 0 1 40.871 0)" fy="10.989" fx="25.575"><stop offset="0" stop-color="#fff"/><stop offset=".064" stop-color="#FEEED5"/><stop offset=".172" stop-color="#FCD395"/><stop offset=".262" stop-color="#FBBF66"/><stop offset=".331" stop-color="#FAB349"/><stop offset=".371" stop-color="#FAAF3E"/><stop offset=".691" stop-color="#F17912"/><stop offset="1" stop-color="#A65414"/></radialGradient><radialGradient cx="4.048" cy="4.46" r="48.88" xlink:href="#i" gradientUnits="userSpaceOnUse" fx="4.048" fy="4.46"/><radialGradient cx="4.048" cy="4.46" r="48.88" fx="4.048" fy="4.46" gradientUnits="userSpaceOnUse"><stop offset="0" stop-color="#fff"/><stop offset=".064" stop-color="#FEEED5"/><stop offset=".172" stop-color="#FCD395"/><stop offset=".262" stop-color="#FBBF66"/><stop offset=".331" stop-color="#FAB349"/><stop offset=".371" stop-color="#FAAF3E"/><stop offset=".691" stop-color="#F17912"/><stop offset="1" stop-color="#B15A12"/></radialGradient><linearGradient id="y" x1="48.25" x2="48.25" y1="54.75" y2="71.25" xlink:href="#o" gradientUnits="userSpaceOnUse" gradientTransform="matrix(.74 .532 -.532 .74 19.049 -53.114)"/><linearGradient id="x" x1="60.169" x2="60.441" y1="40.12" y2="43.87" xlink:href="#p" gradientUnits="userSpaceOnUse" gradientTransform="matrix(.934 0 0 .977 -23.939 -19.006)"/><linearGradient id="w" x1="49.853" x2="62.768" y1="64.26" y2="64.26" xlink:href="#q" gradientUnits="userSpaceOnUse" gradientTransform="matrix(.74 .532 -.532 .74 20.336 -54.904)"/><linearGradient id="v" x1="61.872" x2="61.872" y1="29.615" y2="41.459" xlink:href="#r" gradientUnits="userSpaceOnUse" gradientTransform="matrix(.914 .657 -.532 .74 -20.134 -34.21)"/><linearGradient id="u" x1="53.169" x2="69.691" y1="24.245" y2="24.245" xlink:href="#p" gradientUnits="userSpaceOnUse" gradientTransform="matrix(.74 .532 -.532 .74 -9.225 -26.369)"/><linearGradient id="t" x1="52.718" x2="67.466" y1="2.316" y2="2.316" xlink:href="#s" gradientUnits="userSpaceOnUse" gradientTransform="matrix(.888 .638 -.43 .598 -19.175 -31.114)"/></defs><path fill="url(#t)" stroke="#204a87" stroke-width="1.466" d="M36.4 3.12C33.2.95 30 .15 29.13 1.35c-.2.3-2.43 3.4-2.64 3.68-.9 1.26 1.1 4.26 4.47 6.68 3.37 2.43 6.83 3.36 7.74 2.1.2-.3 2.42-3.4 2.63-3.67.9-1.27-1.08-4.25-4.45-6.67-.15-.1-.3-.23-.47-.34z" stroke-linecap="round" overflow="visible"/><path fill="#3465a4" d="M37.22 13.47c-.4.56-4.74-2.03-7.8-4.66-1.43-1.2-2.2-2.12-2-2.38.4-.56 4.73 2.03 7.8 4.66 1.42 1.22 2.18 2.13 2 2.4z" overflow="visible"/><path fill="url(#u)" stroke="#5a5a5a" stroke-width="1.466" d="M5.48 30.53l16.87-21.2 5.27-1.93c2.5.8 7.4 4.32 8.75 6.3l.32 4.95-13.95 25.08-17.27-13.2z" stroke-linecap="round" overflow="visible"/><path fill="url(#v)" d="M6.6 30.93s9.7-7.9 14.8-4.23c5.26 3.77 1.08 16.24 1.08 16.24l-15.88-12z" overflow="visible"/><path fill="url(#w)" d="M20.57 12.25l-5.1 6.45c2.5.12 13.28 7.57 14.48 11l4.16-7.3c-.73-2.02-9.8-9.35-13.53-10.15z" overflow="visible"/><path fill="none" stroke="#fff" d="M7.32 30.4l15.84-20.14L27.3 8.5c2.3.74 6.82 3.98 8.08 5.8l.14 4.06-13.2 23.7-15-11.66z" opacity=".594" stroke-linecap="round" overflow="visible"/><rect width="25.314" height="4.978" x="20.474" y="19.539" fill="url(#x)" stroke="#5a5a5a" stroke-width="1.466" rx="1.12" ry="1.12" overflow="visible" stroke-linecap="round" transform="rotate(35.707)"/><path fill="#fff" d="M22.64 9.84c2.94-.02 10.6 5.02 13.54 8.78l-.27-4.7c-2.05-2.52-5.8-4.76-8.56-6.05l-4.7 1.97z" overflow="visible"/><path fill="url(#y)" d="M24.9 10.56l-11.43 15.9 5.98-1.3 8.94-13.22-3.5-1.38z" opacity=".861" overflow="visible"/><g fill="#e6e7e6"><path d="M30.67 2.17l-2.4 3.33s.9.1 1.3.36l2.4-3.35c-.54-.28-1.3-.33-1.3-.33z" opacity=".411" overflow="visible"/><path d="M33.2 3l-2.4 3.34s.68.37 1.1.64l2.44-3.42C33.8 3.2 33.2 3 33.2 3z" overflow="visible"/><path d="M35.4 4.28l-2.44 3.4s.58.4 1 .74L36.45 5c-.48-.44-1.04-.72-1.04-.72z" opacity=".444" overflow="visible"/></g></svg>