<svg xmlns="http://www.w3.org/2000/svg" width="16" height="16" xmlns:xlink="http://www.w3.org/1999/xlink"><defs><linearGradient id="a"><stop offset="0" stop-color="#fff"/><stop offset="1" stop-color="#a7cde8"/></linearGradient><radialGradient id="b" cx="8.017" cy="4.434" r="7.984" xlink:href="#a" fx="8.017" fy="4.434" gradientTransform="matrix(3.28 .006 -.003 1.935 -18.28 -5.05)" gradientUnits="userSpaceOnUse"/></defs><g><path fill="url(#b)" fill-rule="evenodd" stroke="#474747" stroke-dashoffset="2.6" d="M4.06.56C2.12.56.53 2.12.53 4.06v3.9c0 1.96 1.6 3.54 3.53 3.54h2.47v3.38l3.78-3.38h1.67c1.95 0 3.53-1.58 3.53-3.53v-3.9c0-1.95-1.58-3.5-3.53-3.5h-7.9z" stroke-linecap="round" overflow="visible" enable-background="accumulate"/><path d="M8.9 5.32H7.34L6.9 7.1h1.56L8.9 5.3zm-.8-3l-.55 2.2H9.1l.55-2.2h.85l-.55 2.2h1.65v.8H9.75L9.3 7.1H11v.8H9.1l-.55 2.2H7.7l.55-2.2H6.7l-.54 2.2H5.3l.56-2.2H4.2v-.8h1.85L6.5 5.3H4.8v-.8h1.9l.54-2.2h.86z" font-size="10.839" font-family="Bitstream Vera Sans"/></g></svg>