<svg xmlns="http://www.w3.org/2000/svg" width="16" height="16" xmlns:xlink="http://www.w3.org/1999/xlink"><defs><linearGradient id="b"><stop offset="0" stop-color="#2e3436"/><stop offset="1" stop-color="#aeaeae"/></linearGradient><linearGradient id="d"><stop offset="0" stop-color="#5c5c5c"/><stop offset="1" stop-color="#2e3436"/></linearGradient><linearGradient id="a"><stop offset="0" stop-color="#99a28f"/><stop offset="1" stop-color="#fff"/></linearGradient><linearGradient id="c"><stop offset="0" stop-color="#fff"/><stop offset="1" stop-color="#999e93"/></linearGradient><linearGradient><stop offset="0" stop-color="#d3d7cf"/><stop offset="1" stop-color="#b3baac"/></linearGradient><linearGradient><stop offset="0" stop-color="#888a85"/><stop offset="1" stop-color="#bbbcb9"/></linearGradient><linearGradient id="e" x1="6.981" x2="8.999" y1="11" y2="11" xlink:href="#a" gradientUnits="userSpaceOnUse" gradientTransform="matrix(1 0 0 1.667 -2.99 -26.34)"/><linearGradient id="f" x1="6" x2="10" y1="8" y2="8" xlink:href="#b" gradientUnits="userSpaceOnUse" gradientTransform="translate(-2.99 -16.007)"/><linearGradient id="g" x1="4.001" x2="12.039" y1="3.5" y2="3.5" xlink:href="#c" gradientUnits="userSpaceOnUse" gradientTransform="matrix(0 .996 .804 0 3.159 -2.956)"/><linearGradient id="h" x1="4.722" x2="12.88" y1="3" y2="10" xlink:href="#d" gradientUnits="userSpaceOnUse" gradientTransform="matrix(0 .996 .804 0 .748 -2.956)"/></defs><g color="#000"><path fill="#2e3436" d="M9.02 11h7v3.05h-7z" overflow="visible" enable-background="accumulate"/><path fill="#2e3436" d="M14 8.96v7.1h-3v-7.1z" overflow="visible" enable-background="accumulate"/><path fill="url(#e)" fill-rule="evenodd" stroke="url(#f)" d="M3.5-15.5h3v15h-3z" transform="rotate(90)" stroke-linecap="round" overflow="visible"/><path fill-opacity=".251" fill-rule="evenodd" d="M4.08 1.02V11h4.94V1z" overflow="visible"/><path fill="url(#g)" fill-rule="evenodd" stroke="url(#h)" d="M3.54.53h4.02V9.5H3.54z" stroke-linecap="round" overflow="visible"/><path fill="#eeeeec" fill-rule="evenodd" d="M4.04 1.08v6.9h1.98v-6.9z" overflow="visible"/><path fill-opacity=".251" fill-rule="evenodd" d="M8.08 3.03v4.94h1.94V3.03z" overflow="visible"/><path fill="none" d="M21.87 9v2.8H19.1v1.66h2.77v2.78h1.67v-2.78h2.78V11.8h-2.78V9h-1.67z" overflow="visible"/><path fill="#eeeeec" d="M9.56 11.5h5.88v1.96H9.56z" overflow="visible" enable-background="accumulate"/><path fill="#eeeeec" d="M13.48 9.5v6.04h-2V9.5z" overflow="visible" enable-background="accumulate"/></g></svg>