<svg xmlns="http://www.w3.org/2000/svg" width="16" height="16" xmlns:xlink="http://www.w3.org/1999/xlink" version="1"><defs><linearGradient id="j"><stop offset="0"/><stop offset="1" stop-opacity="0"/></linearGradient><linearGradient id="i"><stop offset="0" stop-color="#9a0c00"/><stop offset="1" stop-color="#9a0c00" stop-opacity="0"/></linearGradient><linearGradient id="h"><stop offset="0" stop-color="#df2a2a"/><stop offset="1" stop-color="#df2a2a" stop-opacity="0"/></linearGradient><linearGradient id="g"><stop offset="0" stop-color="#e2e2e2"/><stop offset="1" stop-color="#d8d8d8"/></linearGradient><radialGradient id="f" cx="165.061" cy="23.333" r="7.285" gradientUnits="userSpaceOnUse" gradientTransform="matrix(1 0 0 1.01 0 -.16)"><stop offset="0" stop-color="#EF3535"/><stop offset="1" stop-color="#a40000" stop-opacity="0"/></radialGradient><linearGradient id="e" x1="292.972" x2="296.94" y1="4.759" y2="10.711" gradientUnits="userSpaceOnUse"><stop offset="0" stop-color="#EEEEEC"/><stop offset="1" stop-color="#fff"/></linearGradient><linearGradient id="a" x1="1668.765" x2="1679.599" y1="185.302" y2="175.789" gradientUnits="userSpaceOnUse" gradientTransform="matrix(1.214 0 .282 -1.671 46.726 447.944)"><stop offset="0" stop-color="#fff"/><stop offset="1" stop-color="#CFCFCF"/></linearGradient><linearGradient id="b" x1="1420.547" x2="1420.654" y1="-50.919" y2="-79.574" gradientUnits="userSpaceOnUse" gradientTransform="matrix(2.051 0 .167 -.989 -799.205 221.072)"><stop offset="0" stop-color="#C4A000"/><stop offset="1" stop-color="#957A00"/></linearGradient><radialGradient id="d" cx="165.061" cy="23.333" r="7.285" gradientTransform="matrix(1 0 0 1.01 0 -.16)" gradientUnits="userSpaceOnUse"><stop offset="0" stop-color="#EF3535"/><stop offset="0" stop-color="#c91a1a"/><stop offset="1" stop-color="#ff4c4c"/></radialGradient><linearGradient id="c" x1="68.175" x2="74.587" y1="21.425" y2="27.837" gradientUnits="userSpaceOnUse"><stop offset="0" stop-color="#BABDB6"/><stop offset="1" stop-color="#EEEEEC"/></linearGradient><linearGradient x1="1668.765" x2="1679.599" y1="185.302" y2="175.789" xlink:href="#a" gradientUnits="userSpaceOnUse" gradientTransform="matrix(1.214 0 .282 -1.671 -1712.251 391.532)"/><linearGradient x1="1668.765" x2="1679.599" y1="185.302" y2="175.789" xlink:href="#a" gradientUnits="userSpaceOnUse" gradientTransform="matrix(1.214 0 .282 -1.671 -1385.251 394.532)"/><linearGradient x1="1420.547" x2="1420.654" y1="-50.919" y2="-79.574" xlink:href="#b" gradientUnits="userSpaceOnUse" gradientTransform="matrix(2.051 0 .167 -.989 -2231.169 167.664)"/><linearGradient x1="22.225" x2="24.19" y1="23.843" y2="22.861" xlink:href="#c" gradientUnits="userSpaceOnUse"/><linearGradient x1="294.595" x2="297.185" y1="12.188" y2="13.34" xlink:href="#d" gradientUnits="userSpaceOnUse"/><linearGradient x1="296.762" x2="297.798" y1="12.012" y2="10.947" xlink:href="#d" gradientUnits="userSpaceOnUse" gradientTransform="matrix(3.624 0 0 3.624 -1053.179 -16.847)"/><linearGradient x1="296.486" x2="296.529" y1="15.507" y2="9.877" xlink:href="#d" gradientUnits="userSpaceOnUse" gradientTransform="matrix(3.638 0 0 3.47 -1056.116 -16.007)"/><linearGradient x1="292.972" x2="296.94" y1="4.759" y2="10.711" xlink:href="#e" gradientUnits="userSpaceOnUse" gradientTransform="matrix(-4.128 0 0 4.137 1244.465 -11.905)"/><linearGradient x1="292.972" x2="296.94" y1="4.759" y2="10.711" xlink:href="#e" gradientUnits="userSpaceOnUse" gradientTransform="matrix(4.053 0 0 4.137 -1175.535 -11.905)"/><linearGradient x1="39.62" x2="-3.533" y1="44.541" y2="-11.889" xlink:href="#f" gradientUnits="userSpaceOnUse" gradientTransform="matrix(1.162 0 0 .992 -5.112 .064)"/><linearGradient x1="13.825" x2="7.67" y1="40.069" y2="2.326" xlink:href="#d" gradientUnits="userSpaceOnUse" gradientTransform="matrix(1.162 0 0 .992 -2.667 .064)"/><linearGradient x1="7.185" x2="25.152" y1="31.057" y2="50.775" xlink:href="#d" gradientUnits="userSpaceOnUse" gradientTransform="matrix(1.162 0 0 .992 -2.431 .266)"/><linearGradient x1="20.288" x2="24.326" y1="6.46" y2="23.943" xlink:href="#g" gradientUnits="userSpaceOnUse"/><linearGradient x1="20.288" x2="24.326" y1="6.46" y2="23.943" xlink:href="#g" gradientUnits="userSpaceOnUse"/><radialGradient cx="34.376" cy="37.5" r="8.389" xlink:href="#d" fx="34.376" fy="37.5" gradientTransform="matrix(1 0 0 1.06 0 -2.3)" gradientUnits="userSpaceOnUse"/><linearGradient x1="298.479" x2="298.869" y1="13.6" y2="13.803" xlink:href="#h" gradientUnits="userSpaceOnUse"/><linearGradient x1="298.479" x2="298.869" y1="13.6" y2="13.803" xlink:href="#i" gradientUnits="userSpaceOnUse"/><radialGradient cx="25.188" cy="41.625" r="18.063" xlink:href="#j" fx="25.188" fy="41.625" gradientTransform="matrix(1 0 0 .325 0 28.086)" gradientUnits="userSpaceOnUse"/><linearGradient x1="292.972" x2="296.94" y1="4.759" y2="10.711" xlink:href="#e" gradientUnits="userSpaceOnUse" gradientTransform="matrix(-4.128 0 0 4.137 1244.465 -11.905)"/><linearGradient x1="20.288" x2="24.326" y1="6.46" y2="23.943" xlink:href="#g" gradientUnits="userSpaceOnUse"/><linearGradient id="m" x1="294.595" x2="297.185" y1="12.188" y2="13.34" xlink:href="#d" gradientUnits="userSpaceOnUse"/><linearGradient x1="296.486" x2="296.529" y1="15.507" y2="9.877" xlink:href="#d" gradientUnits="userSpaceOnUse" gradientTransform="matrix(3.638 0 0 3.47 -1056.116 -16.007)"/><linearGradient x1="292.972" x2="296.94" y1="4.759" y2="10.711" xlink:href="#e" gradientUnits="userSpaceOnUse" gradientTransform="matrix(4.053 0 0 4.137 -1175.535 -11.905)"/><linearGradient x1="20.288" x2="24.326" y1="6.46" y2="23.943" xlink:href="#g" gradientUnits="userSpaceOnUse"/><linearGradient id="q" x1="22.225" x2="24.19" y1="23.843" y2="22.861" xlink:href="#c" gradientUnits="userSpaceOnUse"/><linearGradient x1="7.185" x2="25.152" y1="31.057" y2="50.775" xlink:href="#d" gradientUnits="userSpaceOnUse" gradientTransform="matrix(1.162 0 0 .992 -2.431 .266)"/><linearGradient x1="13.825" x2="7.67" y1="40.069" y2="2.326" xlink:href="#d" gradientUnits="userSpaceOnUse" gradientTransform="matrix(1.162 0 0 .992 -2.667 .064)"/><radialGradient cx="34.376" cy="37.5" r="8.389" xlink:href="#d" gradientUnits="userSpaceOnUse" gradientTransform="matrix(1 0 0 1.06 0 -2.3)" fx="34.376" fy="37.5"/><linearGradient id="u" x1="298.479" x2="298.869" y1="13.6" y2="13.803" xlink:href="#h" gradientUnits="userSpaceOnUse"/><linearGradient id="v" x1="298.479" x2="298.869" y1="13.6" y2="13.803" xlink:href="#i" gradientUnits="userSpaceOnUse"/><linearGradient x1="296.762" x2="297.798" y1="12.012" y2="10.947" xlink:href="#d" gradientUnits="userSpaceOnUse" gradientTransform="matrix(3.624 0 0 3.624 -1053.179 -16.847)"/><linearGradient x1="39.62" x2="-3.533" y1="44.541" y2="-11.889" xlink:href="#f" gradientUnits="userSpaceOnUse" gradientTransform="matrix(1.162 0 0 .992 -5.112 .064)"/><linearGradient id="x" x1="39.62" x2="-3.533" y1="44.541" y2="-11.889" xlink:href="#f" gradientUnits="userSpaceOnUse" gradientTransform="matrix(.406 0 0 .347 -1.925 -.405)"/><linearGradient id="w" x1="296.762" x2="297.798" y1="12.012" y2="10.947" xlink:href="#d" gradientUnits="userSpaceOnUse" gradientTransform="matrix(1.266 0 0 1.266 -367.872 -6.309)"/><radialGradient id="t" cx="34.376" cy="37.5" r="8.389" xlink:href="#d" gradientUnits="userSpaceOnUse" gradientTransform="matrix(.349 0 0 .37 -.141 -1.23)" fx="34.376" fy="37.5"/><linearGradient id="s" x1="13.825" x2="7.67" y1="40.069" y2="2.326" xlink:href="#d" gradientUnits="userSpaceOnUse" gradientTransform="matrix(.406 0 0 .347 -1.072 -.405)"/><linearGradient id="r" x1="7.185" x2="25.152" y1="31.057" y2="50.775" xlink:href="#d" gradientUnits="userSpaceOnUse" gradientTransform="matrix(.406 0 0 .347 -.989 -.334)"/><linearGradient id="p" x1="20.288" x2="24.326" y1="6.46" y2="23.943" xlink:href="#g" gradientUnits="userSpaceOnUse" gradientTransform="matrix(.349 0 0 .349 -.141 -.427)"/><linearGradient id="o" x1="292.972" x2="296.94" y1="4.759" y2="10.711" xlink:href="#e" gradientUnits="userSpaceOnUse" gradientTransform="matrix(1.415 0 0 1.444 -410.594 -4.584)"/><linearGradient id="n" x1="296.486" x2="296.529" y1="15.507" y2="9.877" xlink:href="#d" gradientUnits="userSpaceOnUse" gradientTransform="matrix(1.27 0 0 1.212 -368.897 -6.016)"/><linearGradient id="l" x1="20.288" x2="24.326" y1="6.46" y2="23.943" xlink:href="#g" gradientUnits="userSpaceOnUse" gradientTransform="matrix(.349 0 0 .349 -.141 -.427)"/><linearGradient id="k" x1="292.972" x2="296.94" y1="4.759" y2="10.711" xlink:href="#e" gradientUnits="userSpaceOnUse" gradientTransform="matrix(-1.441 0 0 1.444 434.381 -4.584)"/></defs><g><path fill="url(#k)" stroke="#373836" stroke-width=".5" d="M11.8.14c.07.02.14.05.2.08.24.76 1.3 1.54.9 2.3-1.35 2.23-2.67 4.5-4 6.73-.26.05-.52.08-.78.1-.56 0-1.13-.08-1.65-.27C8.23 6.1 10 3.1 11.8.14z" stroke-linecap="round" stroke-linejoin="round"/><path fill="url(#l)" d="M11.83 1.06c-.08.1-.16.3-.24.4-1.42 2.36-2.86 4.7-4.28 7.06-.02.1-.28.35 0 .33.4.07.8.12 1.18.02 1.3-2.17 2.6-4.36 3.9-6.53.13-.14.15-.32.03-.46-.2-.28-.38-.58-.57-.86l-.02.03z"/><path fill="url(#m)" stroke="#9a0c00" stroke-width=".281" d="M297.04 12.3l-.64 1.08-1.27 1.34-.4-1.05 1.02-1.7 1.3.33z" transform="matrix(1.27 0 0 1.212 -368.897 -6.016)" stroke-linecap="round" stroke-linejoin="round"/><path fill="url(#n)" d="M6.98 9c-.42.16-.42.7-.67 1.02-.1.25-.32.47-.4.74 0 .18.15.47.35.3.5-.4.9-.87 1.2-1.43.1-.17.28-.3.3-.5-.18-.2-.52-.17-.77-.14z"/><path fill="url(#o)" stroke="#373836" stroke-width=".5" d="M4.38.14c-.07.02-.14.05-.2.08-.23.76-1.27 1.54-.87 2.3 1.32 2.23 2.62 4.5 3.92 6.73.26.05.52.08.77.1.54 0 1.1-.08 1.6-.27C7.9 6.1 6.16 3.1 4.4.14z" stroke-linecap="round" stroke-linejoin="round"/><path fill="url(#p)" d="M4.3 1.06c-.13.4-.5.68-.6 1.1C5 4.4 6.3 6.62 7.6 8.86c.42.08.85.02 1.27-.07-.07-.27-.26-.47-.36-.72C7.16 5.78 5.78 3.5 4.44 1.2c0-.05-.08-.17-.13-.14z"/><path fill="url(#q)" d="M24.2 23.84a.98.98 0 1 1-1.97 0 .98.98 0 1 1 1.96 0z" transform="matrix(.342 0 0 .349 -.032 -.366)" overflow="visible"/><path fill="url(#r)" stroke="#a40000" stroke-width=".349" d="M6.04 10.15c1.13.6 1.22 2.3.2 3.8s-2.76 2.24-3.9 1.64c-1.12-.6-1.2-2.32-.2-3.82 1.03-1.5 2.77-2.23 3.9-1.63zm-.65.96c-.5-.26-1.58.2-2.27 1.2-.68 1-.63 2.07-.13 2.34.5.26 1.57-.2 2.26-1.2.68-1 .63-2.07.13-2.33z"/><path fill="url(#s)" d="M4.86 10.25c-.67.14-1.27.5-1.76.87-.26.24-.43.5-.67.78-.6.83-.85 1.9-.37 2.82.2.5.92.72 1.52.6.5-.1.94-.42 1.33-.64.33-.28.55-.57.83-.9.63-.87.97-2 .45-2.98-.25-.4-.78-.6-1.32-.55zm.17.34c.7.07 1.17.7 1.1 1.3 0 .8-.4 1.54-.96 2.16-.5.5-1.17.96-1.98.92-.5 0-.86-.3-1-.68-.2-.88.07-1.84.7-2.56.47-.53 1.1-1 1.9-1.13.08 0 .15 0 .23 0z"/><path fill="url(#t)" stroke="#a40000" stroke-width=".349" d="M10.45 10.15c-1.13.6-1.22 2.3-.2 3.8s2.76 2.24 3.9 1.64c1.12-.6 1.2-2.32.2-3.82-1.03-1.5-2.77-2.23-3.9-1.63zm.65.96c.5-.26 1.57.2 2.26 1.2.68 1 .63 2.07.13 2.34-.5.26-1.58-.2-2.27-1.2-.68-1-.63-2.07-.13-2.33z"/><path fill="url(#u)" stroke="url(#v)" stroke-width=".276" d="M296.96 12.3l.64 1.08 1.27 1.34.4-1.05-1.02-1.7-1.3.33z" transform="matrix(1.266 0 0 1.266 -367.872 -6.309)" stroke-linecap="round" stroke-linejoin="round"/><path fill="url(#w)" d="M9 9.33c-.16.07-.36.07-.48.17.33.5.66 1.02 1 1.47.23.27.47.53.74.76.25-.5.05-1.07-.3-1.46-.2-.32-.28-.74-.63-.9-.1-.05-.23-.07-.34-.04z"/><path fill="url(#x)" d="M11.13 10.2c-.53.08-1 .38-1.13.84-.4.83-.08 1.78.45 2.52.38.47.67 1.02 1.27 1.32.5.32 1.16.66 1.82.45.53-.15.83-.58.93-1.03.22-.8-.1-1.64-.6-2.32-.22-.32-.46-.66-.73-.94-.42-.32-.92-.58-1.43-.78-.17-.04-.38-.08-.57-.06zm.15.43c.62-.03 1.13.26 1.53.6.37.35.72.64.94 1.06.38.63.48 1.38.3 2.07-.2.47-.78.7-1.33.57-.68-.08-1.1-.6-1.57-.98-.53-.5-.85-1.22-.88-1.92 0-.35 0-.76.25-1.06.14-.2.48-.36.78-.35z"/></g></svg>