<svg xmlns="http://www.w3.org/2000/svg" width="11" height="11" xmlns:xlink="http://www.w3.org/1999/xlink" version="1"><defs><linearGradient id="b"><stop offset="0" stop-color="#fff"/><stop offset="1" stop-color="#eeeeec" stop-opacity="0"/></linearGradient><linearGradient id="a"><stop offset="0" stop-color="#eeeeec" stop-opacity=".196"/><stop offset="1" stop-color="#eeeeec" stop-opacity="0"/></linearGradient><linearGradient x1="-4.5" x2="-4.5" y1="4.152" y2="-2.563" xlink:href="#a" gradientUnits="userSpaceOnUse" gradientTransform="translate(12 3.531)"/><linearGradient x1="13.929" x2="1.071" y1="7.483" y2="7.278" xlink:href="#b" gradientUnits="userSpaceOnUse" gradientTransform="matrix(.548 .548 -.548 .548 5.522 -2.749)"/></defs><g fill-rule="evenodd"><path fill="#2e3436" fill-opacity=".502" d="M-.03 1.03L0 2l3.47 3.5-3.4 3.46-.1 1.07h3.07L5.5 7.75 8 10.03h3.04l-.04-1-3.4-3.5 3.44-3.55v-.95H8.02L5.5 3.43 2.92 1l-2.95.03z"/><path fill="#eeeeec" d="M1 2l3.47 3.5L1 9h2.03L5.5 6.53 7.97 9H10L6.53 5.5 10 2H7.94L5.5 4.47 3.06 2H1z"/></g></svg>