<svg xmlns="http://www.w3.org/2000/svg" width="16" height="16" xmlns:xlink="http://www.w3.org/1999/xlink"><defs><linearGradient id="a"><stop offset="0" stop-color="#ff4c4c"/><stop offset="1" stop-color="#f20000"/></linearGradient><linearGradient x1="8" x2="8" y1="4" y2="12" xlink:href="#a" gradientUnits="userSpaceOnUse"/></defs><g><path fill="#eeeeec" stroke="#2e3436" stroke-width=".5" d="M4.42 4.56a1.23 1.23 45 0 0-.1.13 1.23 1.23 45 0 0 .2 1.54l1.75 1.74-1.74 1.74a1.23 1.23 45 0 0-.1.1 1.23 1.23 45 1 0 1.84 1.65L8 9.72l1.75 1.75a1.23 1.23 45 1 0 1.74-1.75L9.74 7.98l1.74-1.74A1.23 1.23 45 1 0 9.74 4.5L8 6.24 6.28 4.5a1.23 1.23 45 0 0-1.85.06z" style="text-indent:0;text-align:start;line-height:normal;text-transform:none;block-progression:tb;-inkscape-font-specification:Sans" color="#000" overflow="visible" enable-background="accumulate" font-family="Sans"/></g></svg>