<svg xmlns="http://www.w3.org/2000/svg" width="16" height="16"><g color="#000"><path fill="#eeeeec" stroke="#2e3436" stroke-width="2" d="M8 2.04C4.7 2.04 2.04 4.7 2.04 8c0 3.3 2.67 5.96 5.96 5.96 3.3 0 5.96-2.67 5.96-5.96 0-3.3-2.67-5.96-5.96-5.96zm0 1.58c2.4 0 4.38 1.97 4.38 4.38 0 2.4-1.97 4.38-4.38 4.38-2.4 0-4.38-1.97-4.38-4.38C3.62 5.6 5.6 3.62 8 3.62z" overflow="visible" enable-background="accumulate"/><path fill="#2e3436" stroke="#2e3436" stroke-width="2" d="M11.2 3.8l1 1-7.37 7.4-1-1z" overflow="visible" enable-background="accumulate"/><path fill="#eeeeec" d="M8 2.04C4.7 2.04 2.04 4.7 2.04 8c0 3.3 2.67 5.96 5.96 5.96 3.3 0 5.96-2.67 5.96-5.96 0-3.3-2.67-5.96-5.96-5.96zm0 1.58c2.4 0 4.38 1.97 4.38 4.38 0 2.4-1.97 4.38-4.38 4.38-2.4 0-4.38-1.97-4.38-4.38C3.62 5.6 5.6 3.62 8 3.62z" overflow="visible" enable-background="accumulate"/><path fill="#eeeeec" d="M11.2 3.8l1 1-7.37 7.4-1-1z" overflow="visible" enable-background="accumulate"/></g></svg>