<svg xmlns="http://www.w3.org/2000/svg" width="16" height="16" xmlns:xlink="http://www.w3.org/1999/xlink"><defs><linearGradient id="b"><stop offset="0"/><stop offset="1" stop-color="#fff"/></linearGradient><linearGradient id="c"><stop offset="0" stop-color="#d3fed3"/><stop offset="1" stop-color="#f19aee"/></linearGradient><linearGradient id="a"><stop offset="0" stop-color="#ffe9a3"/><stop offset="1" stop-color="#69daf4"/></linearGradient><linearGradient id="d" x1="1.924" x2="13.964" y1="2.962" y2="2.962" xlink:href="#a" gradientUnits="userSpaceOnUse" gradientTransform="matrix(1 0 0 .396 .045 2.825)"/><linearGradient id="f" x1="2.036" x2="14.009" y1="12.893" y2="12.893" xlink:href="#b" gradientUnits="userSpaceOnUse" gradientTransform="matrix(1 0 0 .414 0 6.645)"/><linearGradient id="e" x1="1.5" x2="14.5" y1="8" y2="8" xlink:href="#c" gradientUnits="userSpaceOnUse"/></defs><g color="#000"><path fill="#2e3436" d="M1 2h14.05v11.95H1z" overflow="visible" enable-background="accumulate"/><path fill="url(#d)" d="M1.54 3.02h13V5h-13z" overflow="visible" enable-background="accumulate"/><path fill="url(#e)" d="M1.5 7h13v2h-13z" overflow="visible" enable-background="accumulate"/><path fill="url(#f)" d="M1.5 11h13v2.07h-13z" overflow="visible" enable-background="accumulate"/><g><path fill="#eeeeec" d="M6 2h2v4H6z" overflow="visible" enable-background="accumulate"/><path fill="#2e3436" d="M6.96 2H8v4H6.96z" overflow="visible" enable-background="accumulate"/></g><g><path fill="#eeeeec" d="M8.85 6.04h2v4h-2z" overflow="visible" enable-background="accumulate"/><path fill="#2e3436" d="M9.82 6.04h1.04v4H9.82z" overflow="visible" enable-background="accumulate"/></g><g><path fill="#eeeeec" d="M11.74 10h2v3.97h-2z" overflow="visible" enable-background="accumulate"/><path fill="#2e3436" d="M12.7 10h1.04v3.97H12.7z" overflow="visible" enable-background="accumulate"/></g></g></svg>