<svg xmlns="http://www.w3.org/2000/svg" width="16" height="16" xmlns:xlink="http://www.w3.org/1999/xlink"><defs><linearGradient id="b"><stop offset="0" stop-color="#bfbfbf"/><stop offset="1" stop-color="#ccc"/></linearGradient><linearGradient id="g"><stop offset="0"/><stop offset="1" stop-opacity="0"/></linearGradient><linearGradient id="f"><stop offset="0" stop-color="#ff9595"/><stop offset=".5" stop-color="#e60000"/><stop offset="1" stop-color="#8f0808"/></linearGradient><linearGradient id="e"><stop offset="0" stop-color="#6e7c81"/><stop offset="1" stop-color="#2e3436"/></linearGradient><linearGradient id="d"><stop offset="0" stop-color="#888a85"/><stop offset="1" stop-color="#babdb6"/></linearGradient><linearGradient id="c"><stop offset="0" stop-color="#d1d1d1"/><stop offset="1" stop-color="#efefef"/></linearGradient><linearGradient id="a"><stop offset="0" stop-color="#fff"/><stop offset="1" stop-color="#ddd"/></linearGradient><linearGradient id="i" x1="9.956" x2="4.936" y1="3.634" y2="7.012" xlink:href="#a" gradientUnits="userSpaceOnUse" gradientTransform="matrix(1.11 0 0 1.007 -1.7 -.002)"/><linearGradient id="j" x1="7.185" x2="7.143" y1="3.634" y2="9.332" xlink:href="#b" gradientUnits="userSpaceOnUse" gradientTransform="matrix(1.11 0 0 1.007 1.1 4.604)"/><linearGradient id="k" x1=".338" x2="4.148" y1="1.696" y2="10.323" xlink:href="#c" gradientUnits="userSpaceOnUse" gradientTransform="matrix(1.11 0 0 1.007 1.1 4.604)"/><linearGradient id="l" x1="7.183" x2="10.502" y1="8.798" y2="4.451" xlink:href="#d" gradientUnits="userSpaceOnUse" gradientTransform="matrix(1.11 0 0 1.007 -1.7 -.002)"/><linearGradient id="m" x1="10.735" x2="4.985" y1="3.937" y2="13.87" xlink:href="#e" gradientUnits="userSpaceOnUse" gradientTransform="matrix(1.11 0 0 1.007 -1.7 -.002)"/><radialGradient id="n" cx="33.33" cy="2.882" r="3.702" xlink:href="#f" fx="33.33" fy="2.882" gradientUnits="userSpaceOnUse" gradientTransform="matrix(-.999 .038 -.037 -.955 66.745 4.373)"/><linearGradient id="h" x1="7.726" x2="15.632" y1="12.261" y2="12.982" xlink:href="#g" gradientUnits="userSpaceOnUse" gradientTransform="matrix(1.11 0 0 1.007 -1.7 -.002)"/></defs><g><path fill="url(#h)" d="M6.07 15.98c.1-.05 9.95-2.93 9.95-2.93l-7.7-2.68z"/><path fill="#d3d7cf" d="M1.07 5.7L12.7.8l-1.5 12.02-5.13 2.88-4.42-3.9z"/><path fill="url(#i)" d="M1.02 5.7L6.22 9s6.85-7.97 6.68-7.88c-.18.1-11.88 4.58-11.88 4.58z"/><path fill="url(#j)" d="M6.1 8.9l-.13 6.88 5.25-2.93L12.4 1.7z"/><path fill="url(#k)" d="M1.02 5.63l.5 6.17 4.6 3.9.17-6.85z"/><path fill="none" stroke="url(#l)" stroke-width=".5" d="M6.17 8.94l6.58-7.65"/><path fill="none" stroke="#888a85" stroke-width=".5" d="M1.3 5.84L6.16 8.9l-.1 6.53" stroke-linecap="round"/><path fill="none" stroke="url(#m)" stroke-width=".5" d="M1.07 5.7l11.2-4.4-1.06 11.52-5.13 2.88-4.42-3.9z"/><path fill="url(#n)" fill-rule="evenodd" stroke="#eeeeec" stroke-width=".906" d="M37.53 3.82a3.25 3.25 0 1 1-6.5 0 3.25 3.25 0 1 1 6.5 0z" transform="matrix(.549 0 0 .555 -7.084 -.059)" color="#000" stroke-linecap="round" overflow="visible"/></g></svg>