<svg xmlns="http://www.w3.org/2000/svg" width="16" height="16" xmlns:xlink="http://www.w3.org/1999/xlink"><defs><linearGradient x1="-40.276" x2="-24.453" y1="27.911" y2="59.39" xlink:href="#a" gradientUnits="userSpaceOnUse" gradientTransform="matrix(.951 0 0 .907 52.28 -12.812)"/><radialGradient id="a" cx="257.459" cy="35.376" r="68.717" fx="257.459" fy="35.376" gradientUnits="userSpaceOnUse"><stop offset="0" stop-color="#ebecee"/><stop offset="1" stop-color="#b2bac2"/></radialGradient><linearGradient x1="-34.865" x2="-17.038" y1="22.848" y2="56.963" xlink:href="#b" gradientUnits="userSpaceOnUse" gradientTransform="matrix(.951 0 0 .907 52.28 -12.812)"/><linearGradient id="b"><stop offset="0" stop-color="#fff"/><stop offset="1" stop-color="#bfd0dc"/></linearGradient><linearGradient id="g" x1="28.76" x2="21.157" y1="26.147" y2="13.877" xlink:href="#c" gradientUnits="userSpaceOnUse" gradientTransform="matrix(.214 0 0 .213 3.819 2.186)"/><linearGradient id="c"><stop offset="0" stop-opacity=".351"/><stop offset="1" stop-opacity="0"/></linearGradient><linearGradient x1="-40.276" x2="-24.453" y1="27.911" y2="59.39" gradientTransform="matrix(.951 0 0 .907 52.28 -12.812)" gradientUnits="userSpaceOnUse" xlink:href="#a"/><linearGradient x1="-34.865" x2="-17.038" y1="22.848" y2="56.963" gradientTransform="matrix(.951 0 0 .907 52.28 -12.812)" gradientUnits="userSpaceOnUse" xlink:href="#b"/><linearGradient id="e" x1="-40.276" x2="-24.453" y1="27.911" y2="59.39" xlink:href="#a" gradientUnits="userSpaceOnUse" gradientTransform="matrix(.292 0 0 .282 16.391 -4.192)"/><linearGradient id="f" x1="-34.865" x2="-17.038" y1="22.848" y2="56.963" xlink:href="#b" gradientUnits="userSpaceOnUse" gradientTransform="matrix(.292 0 0 .282 16.391 -4.192)"/><radialGradient cx="33.33" cy="2.882" r="3.702" xlink:href="#d" fx="33.33" fy="2.882" gradientUnits="userSpaceOnUse" gradientTransform="matrix(-.999 .038 -.037 -.955 66.745 4.373)"/><linearGradient id="d"><stop offset="0" stop-color="#ff9595"/><stop offset=".5" stop-color="#e60000"/><stop offset="1" stop-color="#8f0808"/></linearGradient><radialGradient id="h" cx="33.33" cy="2.882" r="3.702" fy="2.882" fx="33.33" gradientTransform="matrix(-.999 .038 -.037 -.955 66.745 4.373)" gradientUnits="userSpaceOnUse" xlink:href="#d"/></defs><g><path fill="none" stroke="#2e3436" stroke-width=".5" d="M.27 5.1C2.27 4 7.72 1.44 8.92.88c4.6 1.53 6.6 5.72 6.74 9.7-1.3.7-7.73 4.05-8.88 4.65-.13-2.88-1.27-8.28-6.5-10.1z" color="#000" stroke-linecap="round" stroke-linejoin="round" overflow="visible"/><path fill="url(#e)" stroke="url(#f)" stroke-width=".5" d="M1 5.05c1.75-1 6.8-3.24 7.85-3.74 3.8 1.18 6.16 4.92 6.4 9-1.17.64-7.1 3.88-8.12 4.43C7.1 11.38 5 6.15 1 5.05z" color="#000" stroke-linecap="round" stroke-linejoin="round" overflow="visible"/><path fill="url(#g)" fill-rule="evenodd" stroke="#eeeeec" stroke-width=".5" d="M6.74 5.2C8 5.8 8.77 6.92 9.1 8.3L6.4 9.78l5.34 1.94 1.98-5.4-2.2 1c-.42-1.25-1.47-2.47-3-2.95z"/><path fill="url(#h)" fill-rule="evenodd" stroke="#eeeeec" stroke-width=".906" d="M37.53 3.82a3.25 3.25 0 1 1-6.5 0 3.25 3.25 0 1 1 6.5 0z" transform="matrix(.549 0 0 .555 -11.538 1.964)" color="#000" stroke-linecap="round" overflow="visible"/></g></svg>