<svg xmlns="http://www.w3.org/2000/svg" width="16" height="16"><title>world</title><desc>Created with Sketch.</desc><defs><radialGradient id="a" cx="31.148%" cy="36.199%" r="64.446%" fx="31.148%" fy="36.199%"><stop stop-color="#fff" offset="0%"/><stop stop-color="#B9B7B7" offset="100%"/></radialGradient></defs><g fill="none"><g><path id="Path" fill="url(#a)" d="M8 1.5C4.4 1.5 1.5 4.4 1.5 8s2.9 6.5 6.5 6.5 6.5-2.9 6.5-6.5S11.6 1.5 8 1.5z"/><path fill="#000" d="M8.3 14.35c0-.06-.02-.18-.02-.2 0-.17.18-.3.17-.48-.12-.03-.16-.16-.14-.3.04-.2.2-.33.35-.46.14-.12.17-.4.14-.55-.07-.28-.07-.57-.1-.85 0 .07.2.05.23.14.05-.08.07-.18.13-.26.04-.07.12-.1.2-.15.1-.07.35-.34.5-.18.1.14-.18.3-.03.42.05-.1 0-.23.1-.33.18-.2.3.03.5.1.2.04.26.1.4.24-.04-.05.2-.13.22-.14.22-.04.3.08.46.2.17.12.43.2.4.43.12.02.2.06.3.1.08.04.2 0 .28.08-1.07 1.13-2.5 1.92-4.08 2.2zM11.05 5.82c.1-.07.3-.16.43-.12.1.03.2.07.07.16-.06.04-.15 0-.22.02.1.02.22.06.18.15.27.15-.07.33-.24.3.08.02-.17.17-.17.16-.1.04-.22.04-.3.14-.07.1.04.3-.12.26-.06.13-.3.06-.4.2.12.12-.1.3-.2.14-.1.04-.06.15-.16.2.04.07.05.13-.02.17.02 0 .14.1.17.1-.02.06-.06.1-.1.1.04.13-.07.27-.16.35-.1.08-.32.16-.35.18-.18.18-.3.43.02.5 0 0 0 .33.02.34 0 .12.06.47-.15.34-.1-.04-.16-.32-.2-.43-.02-.12-.03-.12-.1-.24-.14.15-.16.04-.28-.03-.1-.06-.27-.04-.33-.1-.15.1-.26.08-.3-.1-.03.1.05.2.04.24-.05.1-.14.08-.22.02-.13-.1-.4.07-.56 0 0 0 .05.04.08.06-.03.12-.1.05-.16.1-.07.04-.13.14-.2.2.14.24 0 .48 0 .75 0 .2.14.56.33.67.1.05.4.07.48.03.14-.06.12-.17.17-.3.05-.13.1-.2.26-.2.43-.02.1.34.05.52-.02.12-.03.27-.05.4.05 0 .1 0 .15 0 0-.04.03-.1.03-.12.06.1.26.13.33 0 .07.13.2.22.23.36 0 .14.14.3-.05.3-.14 0 .02.27.04.32.1.2.28.3.48.18 0 .08-.03.3-.14.33-.1.02-.3-.2-.25-.3-.02.03-.05.06-.08.1-.1-.14-.27-.2-.37-.32-.02-.03-.3-.44-.23-.46-.14.05-.42-.05-.55-.12-.2-.1-.24-.4-.5-.36-.18.03-.23.1-.44.02-.15-.05-.27-.15-.4-.22-.17-.1-.45-.18-.5-.38-.07-.17-.05-.36-.14-.5-.07-.1-.25-.3-.38-.3.12 0-.1-.3-.14-.34-.1-.13-.52-.48-.44-.68.02-.03-.2-.1-.24-.12.04.1.05.2.1.3.05.1.1.2.17.3.12.17.27.4.25.6-.13.05-.1-.14-.13-.22-.08-.13-.28-.13-.33-.27.02 0 .03 0 .05 0 0-.18-.24-.32-.2-.44-.14-.1-.14-.33-.24-.47-.1-.14-.24-.2-.37-.3-.04-.02-.4-.48-.27-.5-.2.04-.3-.43-.27-.55 0 0-.02 0-.02 0 .04-.13-.03-.76.13-.77-.1 0-.14-.26-.1-.3 0-.05.16.1.17.12.06-.03.12-.1.1-.18-.03-.08-.14-.15-.2-.2-.04-.03-.45-.3-.46-.28.05-.07.04-.14-.03-.2-.2.16-.1-.13-.2-.16-.03 0-.07-.04-.1-.08.58-.93 1.4-1.7 2.36-2.24.07 0 .15 0 .23 0 .18 0 .28.16.4.26.03-.05 0-.14-.04-.2.02-.07.14-.1.2-.1.1-.02.23-.04.3 0-.05-.1-.12-.17-.2-.25 0 0-.03.03-.04.05-.1-.1-.32.03-.42.07-.08.03-.15.08-.23.1-.04.03-.07.03-.1.02.3-.16.6-.3.93-.4.06.03.12.1.2.17-.05-.06-.05.17-.03.2.1.16.35.06.5.06 0 0 .45.06.36-.05.07.1.07.27.16.36.1-.1-.04-.2.02-.3.02-.03.2-.08.26-.1.07-.06-.05-.13-.08-.15-.1-.05-.5-.08-.3-.3.07-.1.32-.05.4 0 .1.06.23.17.08.27.07 0 .4.1.35.23.03-.06.08-.15.16-.15.1 0 .12.22.16.27.14.26.4-.25.43-.23-.2-.08.15-.17.24-.14.07.03.18.27.05.26.1.1.1.33-.1.32-.13 0-.3-.2-.43-.05-.1.1-.13.24-.22.33-.14.14-.33.13-.5.1.07.02-.15.25-.17.3-.06.06-.1.14-.12.22-.02.1 0 .2-.05.3.18-.04.27.27.2.28.2-.03.38-.03.58.04.14.05.35.1.4.27.05-.07.25-.04.3-.02.13.07.14.2.17.3.04.16.17.4.34.33.02-.02.24-.12.16-.18-.08-.07-.17-.25-.1-.35.1-.12.28-.15.33-.3.07-.22-.25-.2-.25-.36 0-.1.13-.13.12-.25 0-.1-.15-.3-.03-.36.1-.06.58.04.67.1.1.06.4.14.4.23h-.04c.08.07.15.22 0 .26.1-.02.36.08.18.14.06-.03.1 0 .17-.05.08-.04.12-.1.2-.06.03 0 .14-.2.2-.2.1 0 .1.14.15.2.04.1.15.12.2.2.06.18.03.34.26.4.08.03.27-.1.26.07.04-.04.06-.07.06-.08 0 .14.08.3.25.28 0 0 0 .2-.02.22-.06.1-.22.07-.3.12-.04 0-.28.22-.25.25-.13-.15-.34-.15-.5-.1-.2.02-.36.04-.53.1-.08.05-.16.1-.22.16-.03.04-.08.22-.13.23.1 0 .15-.12.23-.18z"/></g></g></svg>