<svg xmlns="http://www.w3.org/2000/svg" width="16" height="16" xmlns:xlink="http://www.w3.org/1999/xlink"><defs><linearGradient id="f"><stop offset="0" stop-color="#a3a398"/><stop offset=".5" stop-color="#eeeeec"/><stop offset="1" stop-color="#7e7e71"/></linearGradient><linearGradient id="e"><stop offset="0"/><stop offset="1" stop-opacity="0"/></linearGradient><linearGradient id="d"><stop offset="0" stop-color="#393939" stop-opacity="0"/><stop offset=".5" stop-color="#434343"/><stop offset="1" stop-color="#393939" stop-opacity="0"/></linearGradient><linearGradient id="c"><stop offset="0" stop-color="#393939" stop-opacity="0"/><stop offset=".5" stop-color="#717171"/><stop offset="1" stop-color="#393939" stop-opacity="0"/></linearGradient><linearGradient id="b"><stop offset="0" stop-color="#414141"/><stop offset="1"/></linearGradient><linearGradient id="a"><stop offset="0" stop-color="#eeeeec"/><stop offset="1" stop-color="#57574c"/></linearGradient><radialGradient id="k" cx=".49" cy="9.947" r=".749" xlink:href="#a" fx=".49" fy="9.947" gradientTransform="matrix(1 0 0 2.043 0 -10.205)" gradientUnits="userSpaceOnUse"/><radialGradient cx=".49" cy="9.947" r=".749" xlink:href="#a" gradientUnits="userSpaceOnUse" gradientTransform="matrix(1 0 0 2.043 0 -10.205)" fx=".49" fy="9.947"/><radialGradient id="i" cx="7.567" cy="9.903" r="3.667" xlink:href="#b" fx="7.567" fy="9.903" gradientTransform="matrix(1.162 .578 -.275 .552 1.697 -1.989)" gradientUnits="userSpaceOnUse"/><linearGradient id="j" x1="1.94" x2="2.958" y1="6.449" y2="9.019" xlink:href="#c" gradientUnits="userSpaceOnUse" gradientTransform="matrix(.979 0 0 .979 .009 -.474)"/><linearGradient id="h" x1="1.94" x2="2.958" y1="6.449" y2="9.019" xlink:href="#d" gradientUnits="userSpaceOnUse" gradientTransform="matrix(.953 .228 -.228 .952 8.254 -2.365)"/><radialGradient id="l" cx=".49" cy="9.947" r=".749" xlink:href="#a" gradientUnits="userSpaceOnUse" gradientTransform="matrix(1 0 0 2.043 0 -10.205)" fx=".49" fy="9.947"/><radialGradient id="g" cx="11.468" cy="11.063" r="7.358" xlink:href="#e" fx="11.468" fy="11.063" gradientTransform="matrix(1 0 0 .333 0 7.375)" gradientUnits="userSpaceOnUse"/><linearGradient x1="1.516" x2="2.703" y1="3.043" y2="2.629" xlink:href="#f" gradientUnits="userSpaceOnUse"/></defs><g><path fill="url(#g)" fill-rule="evenodd" d="M18.83 11.06a7.36 2.45 0 1 1-14.72 0 7.36 2.45 0 1 1 14.73 0z" transform="matrix(.94 .34 -.34 .94 .436 -3.88)" color="#000" overflow="visible" enable-background="accumulate"/><path fill-rule="evenodd" d="M14.24 7.08c-.34-.1-1 .05-1.3.1-.43.1-1.05.87-1.15 2.02-.1 1.16.33 1.86.97 2.1.42.16.77.1 1.13 0 .68-.18 1.26-.8 1.37-1.95.1-1.16-.43-2.1-1.03-2.27z" color="#000" overflow="visible" enable-background="accumulate"/><path fill-rule="evenodd" d="M9.24 4.02c-.57-.03-1.15.13-1.7.22-.7 0-1.27 1.2-1.28 2.63 0 1.4.5 2.54 1.18 2.6.74.27 1.4-.1 2.1-.37.56-.24 1.02-1.26 1.03-2.5 0-1.32-.33-2-1.33-2.58z" color="#000" overflow="visible" enable-background="accumulate"/><path fill="url(#h)" fill-rule="evenodd" d="M7.8 4.75l1.95-.48c.6.5.9 1.44.74 2.1l-2.2.36c.17-.7.12-1.38-.5-1.98z"/><path fill="#c00" fill-rule="evenodd" stroke="#390000" stroke-width=".5" d="M1.95 8.26c1.9 1.87 5.17 3.1 8.62 3.9.98.23 2.1.62 3.54.17 1.78-.56 1.88-1.62 1.47-2.1-.67-.8-2.43-2.25-3.84-2.74l-1.3-.25L8.9 6.17l-.26-.63c-.92-.47-1.75-.85-2.36-1.06-1.84-.63-3.8-.05-4.54.85-.48.58-.4 2.32.2 2.93z"/><path fill="#ef2929" fill-rule="evenodd" d="M1.68 6.5C6.02 8 9.33 10.17 12.32 11.7c.5.24.03-.28.58-.02-1.75-2.1-4.66-4.8-9.64-7.06-.43.23-1.76.47-1.58 1.87z"/><path fill="#eeeeec" fill-rule="evenodd" d="M2.1 5.9c4.12 1.6 8.38 4.16 10.46 5.83.55.45-.22-.4.4-.02C10 9.55 7.8 7.4 2.8 5.15c-.55.03-.74.38-.7.75z"/><path fill-rule="evenodd" d="M15.25 10.72c.1.52-1.37 1.24-2.64 1.3-.58 0-.97-.13-1.02-.37-.1-.53 1.38-1.24 2.65-1.3.6-.02.98.12 1.02.37z" color="#000" overflow="visible" enable-background="accumulate"/><path fill="url(#i)" fill-rule="evenodd" d="M8.47 5.38c-.88-.1-2.65.14-2.98.9-.18 1.08 1.57 3.06 3.15 1.93.63-.44 1.74-.72 3.5-.7l-1.1-.15c-.7-.2-1.8-.74-2.1-1.28l-.48-.7z"/><path fill="none" stroke="#555753" stroke-width="1.5" d="M4.74 5.4l-.6-2.18c-.44-1.66 2.38-2.2 2.56-.7l.15 1.97" stroke-linecap="round"/><path fill="none" stroke="#eeeeec" stroke-width=".5" d="M4.75 5.4l-.6-2.15c-.44-1.67 2.38-2.2 2.56-.7l.16 1.97" stroke-linecap="round"/><path fill-rule="evenodd" d="M2.38 5.4c-.56.1-1.1.4-1.6.62-.67.16-.96 1.45-.63 2.86.3 1.37 1.08 2.35 1.74 2.26.77.08 1.32-.45 1.94-.86.5-.36.7-1.47.43-2.68-.3-1.27-.78-1.84-1.9-2.2z" color="#000" overflow="visible" enable-background="accumulate"/><path fill="url(#j)" fill-rule="evenodd" d="M1.22 6.55l1.8-.92c.68.34 1.2 1.2 1.2 1.88l-2.05.86c0-.72-.2-1.37-.95-1.8z"/><path fill="url(#k)" fill-rule="evenodd" d="M1.02 9.8a.75 1.53 0 1 1-1.5 0 .75 1.53 0 1 1 1.5 0z" transform="matrix(.665 -.119 .119 .665 -.182 2.119)" color="#000" overflow="visible" enable-background="accumulate"/><path fill-rule="evenodd" d="M7.65 9.1c-.35.05-.9.42-1.16.6-.4.24-.68 1.18-.35 2.3.33 1.1 1 1.58 1.7 1.57.44 0 .74-.2 1.04-.42.55-.4.87-1.2.54-2.3-.33-1.12-1.18-1.8-1.8-1.74z" color="#000" overflow="visible" enable-background="accumulate"/><path fill="url(#l)" fill-rule="evenodd" d="M1.02 9.8a.75 1.53 0 1 1-1.5 0 .75 1.53 0 1 1 1.5 0z" transform="matrix(.654 -.171 .171 .653 5.176 5.379)" color="#000" overflow="visible" enable-background="accumulate"/></g></svg>