<svg xmlns="http://www.w3.org/2000/svg" width="16" height="16" xmlns:xlink="http://www.w3.org/1999/xlink"><defs><linearGradient id="a"><stop offset="0" stop-color="#c00"/><stop offset="1" stop-color="#2e3436"/></linearGradient><linearGradient id="b" x1="3.481" x2="11.33" y1="4.637" y2="9.412" xlink:href="#a" gradientUnits="userSpaceOnUse" gradientTransform="translate(1.123 -.123)"/></defs><g><path fill="#fff" stroke="#eeeeec" stroke-width="3.496" stroke-dashoffset=".717" d="M12.7 8.57a5.64 6 0 1 1-11.28 0 5.64 6 0 1 1 11.27 0z" transform="matrix(.886 0 0 .831 1.241 2.382)" color="#000" overflow="visible"/><path fill="none" stroke="#2e3436" stroke-width="1.227" stroke-dashoffset=".717" d="M7.65 14.4c-2.8 0-5.06-2.2-5.06-4.9s2.26-4.9 5.05-4.9" color="#000" overflow="visible"/><path fill="url(#b)" fill-rule="evenodd" stroke="#eeeeec" d="M8.06.65L3.84 4.6l4.24 3.9-.06-2.38c2.07-.03 3.25 1.3 3.28 3.85.37.18 1.9.1 2.2.12.27-4.35-1.75-7.12-5.42-7.12L8.06.65z"/><path fill="none" stroke="#2e3436" stroke-width="1.227" stroke-dashoffset=".717" d="M12.4 9.5c0 2.7-2.22 4.9-4.84 4.9" color="#000" overflow="visible"/><path fill="none" stroke="#555753" d="M5 8.52h2.53V12"/></g></svg>