<svg xmlns="http://www.w3.org/2000/svg" width="16" height="16" xmlns:xlink="http://www.w3.org/1999/xlink" version="1"><defs><linearGradient><stop offset="0" stop-color="#fff" stop-opacity=".251"/><stop offset="1" stop-color="#fff" stop-opacity="0"/></linearGradient><linearGradient id="a"><stop offset="0"/><stop offset="1" stop-color="#012e5e"/></linearGradient><linearGradient id="b" x1="13.731" x2="13.646" y1="3.144" y2="20.919" xlink:href="#a" gradientUnits="userSpaceOnUse" gradientTransform="matrix(.744 0 0 .745 -1.659 6.687)"/></defs><g color="#000" stroke-linecap="square"><path fill="none" stroke="#000" stroke-opacity=".502" stroke-width="1.25" d="M3.26 1.3l-.6 5.28-.38 3.54-.6 5.33H5.2l.6-5.33h4.05l-.6 5.33h3.52l.6-5.33.38-3.54.6-5.28h-3.52l-.6 5.28H6.2l.6-5.28H3.25z" overflow="visible" enable-background="accumulate"/><path fill="url(#b)" stroke="#fff" d="M2.5 8.55l-.6 5.3-.4 3.53-.58 5.33h3.5l.6-5.32h4.06l-.6 5.33H12l.6-5.32.38-3.54.6-5.3h-3.53l-.58 5.3H5.4l.6-5.3H2.5z" overflow="visible" enable-background="accumulate" transform="translate(0 -8)"/></g></svg>