<svg xmlns="http://www.w3.org/2000/svg" width="16" height="16" xmlns:xlink="http://www.w3.org/1999/xlink"><defs><linearGradient id="h"><stop offset="0" stop-color="#c3c3c1"/><stop offset=".881" stop-color="#b3b5b1"/><stop offset="1" stop-color="#747671"/></linearGradient><linearGradient id="g"><stop offset="0" stop-color="#fff"/><stop offset=".13" stop-color="#dedfde"/><stop offset=".883" stop-color="#dedfde"/><stop offset="1" stop-color="#a0a19d"/></linearGradient><linearGradient id="f"><stop offset="0" stop-color="#79888d"/><stop offset="1" stop-color="#2e3436"/></linearGradient><linearGradient id="e"><stop offset="0" stop-color="#6c7a7f"/><stop offset="1" stop-color="#2e3436"/></linearGradient><linearGradient id="d"><stop offset="0" stop-color="#d3d7cf"/><stop offset=".5" stop-color="#eeeeec"/><stop offset="1" stop-color="#aab2a2"/></linearGradient><linearGradient id="c"><stop offset="0" stop-color="#fff" stop-opacity="0"/><stop offset=".615" stop-color="#fff" stop-opacity="0"/><stop offset=".75" stop-color="#fff" stop-opacity=".444"/><stop offset="1" stop-color="#fff" stop-opacity=".504"/></linearGradient><linearGradient id="b"><stop offset="0" stop-color="#808e93"/><stop offset="1" stop-color="#2e3436"/></linearGradient><linearGradient id="a"><stop offset="0" stop-color="#4f7682"/><stop offset="1" stop-color="#bdd5dc"/></linearGradient><radialGradient cx="7.26" cy="8.24" r="3.581" xlink:href="#a" fx="7.26" fy="8.24" gradientUnits="userSpaceOnUse"/><linearGradient x1="8.516" x2="8.585" y1="13.455" y2="5.73" xlink:href="#b" gradientUnits="userSpaceOnUse"/><linearGradient x1="8.537" x2="8.456" y1="5.831" y2="13.335" xlink:href="#b" gradientUnits="userSpaceOnUse"/><radialGradient cx="10.904" cy="12.114" r="3.936" xlink:href="#c" fx="10.904" fy="12.114" gradientUnits="userSpaceOnUse" gradientTransform="matrix(1.879 .012 -.012 1.771 -9.584 -9.53)"/><linearGradient x1="10.699" x2="15.429" y1="2.485" y2="2.485" xlink:href="#d" gradientUnits="userSpaceOnUse" gradientTransform="matrix(.791 0 0 .764 3.166 .64)"/><linearGradient x1="12.206" x2="12.233" y1="2.541" y2="4.929" xlink:href="#e" gradientUnits="userSpaceOnUse" gradientTransform="matrix(.791 0 0 .764 3.166 .64)"/><linearGradient x1="8.264" x2="8.224" y1="2.699" y2="14.164" xlink:href="#f" gradientUnits="userSpaceOnUse"/><linearGradient x1=".583" x2="15.409" y1="8.915" y2="9.013" xlink:href="#g" gradientUnits="userSpaceOnUse" gradientTransform="matrix(1 0 0 1.05 0 -.711)"/><linearGradient x1=".496" x2="15.497" y1="10.526" y2="10.526" xlink:href="#h" gradientUnits="userSpaceOnUse"/><linearGradient><stop offset="0" stop-color="#5c9ae6"/><stop offset="1" stop-color="#2171ce"/></linearGradient><linearGradient x1="4.345" x2="6.084" y1="9.71" y2="11.219" xlink:href="#i" gradientUnits="userSpaceOnUse" gradientTransform="matrix(1.04 0 0 1.039 -.003 -.009)"/><linearGradient id="i"><stop offset="0" stop-color="#fff"/><stop offset="1" stop-color="#b1b1a8"/></linearGradient><linearGradient x1="4.818" x2="7.21" y1="8.471" y2="10.679" xlink:href="#j" gradientUnits="userSpaceOnUse" gradientTransform="matrix(1.04 0 0 1.039 -.003 -.009)"/><linearGradient id="j"><stop offset="0" stop-color="#909090"/><stop offset="1" stop-color="#535353"/></linearGradient><radialGradient cx="11.952" cy="2.031" r="3.077" xlink:href="#k" fx="11.952" fy="2.031" gradientTransform="matrix(.468 .421 -.651 .723 14.882 -11.977)" gradientUnits="userSpaceOnUse"/><linearGradient id="k"><stop offset="0" stop-color="#728187"/><stop offset="1" stop-color="#24292a"/></linearGradient><linearGradient x1="10.494" x2="13.495" y1="1.516" y2="4.602" xlink:href="#l" gradientUnits="userSpaceOnUse" gradientTransform="matrix(1.04 0 0 1.039 6.961 -7.508)"/><linearGradient id="l"><stop offset="0" stop-color="#7c7c7c"/><stop offset="1"/></linearGradient><linearGradient x1="11.053" x2="12.976" y1="2.08" y2="4.197" gradientTransform="translate(6.964 -7.499)" xlink:href="#m" gradientUnits="userSpaceOnUse"/><linearGradient id="m"><stop offset="0" stop-color="#a2a4a0"/><stop offset="1" stop-color="#888a85" stop-opacity="0"/></linearGradient><linearGradient x1="9.28" x2="7.411" y1="5.971" y2="7.762" xlink:href="#n" gradientUnits="userSpaceOnUse" gradientTransform="matrix(1.04 0 0 1.039 6.961 -7.508)"/><linearGradient id="n"><stop offset="0" stop-color="#2e3436" stop-opacity=".658"/><stop offset="1" stop-color="#2e3436" stop-opacity="0"/></linearGradient><linearGradient x1="8.006" x2="12.63" y1="-3.411" y2="-3.427" xlink:href="#o" gradientUnits="userSpaceOnUse" gradientTransform="matrix(.735 .735 -.735 .735 6.961 -7.508)"/><linearGradient id="o"><stop offset="0" stop-color="#464f53"/><stop offset=".221" stop-color="#788185"/><stop offset=".487" stop-color="#5e666b"/><stop offset="1" stop-color="#1a1d1f"/></linearGradient><linearGradient x1="8.006" x2="12.63" y1="-3.411" y2="-3.427" xlink:href="#l" gradientUnits="userSpaceOnUse" gradientTransform="matrix(.735 .735 -.735 .735 6.961 -7.508)"/><linearGradient><stop offset="0" stop-color="#7c7c7c"/><stop offset="1"/></linearGradient><linearGradient x1="9.677" x2="8.975" y1="3.663" y2="5.983" gradientTransform="translate(6.964 -7.499)" xlink:href="#p" gradientUnits="userSpaceOnUse"/><linearGradient id="p"><stop offset="0" stop-color="#d3d7cf"/><stop offset="1" stop-color="#d3d7cf" stop-opacity="0"/></linearGradient><linearGradient x1="4.345" x2="6.084" y1="9.71" y2="11.219" gradientTransform="matrix(1.04 0 0 1.039 6.961 -7.508)" gradientUnits="userSpaceOnUse" xlink:href="#i"/><linearGradient x1="4.818" x2="7.21" y1="8.471" y2="10.679" gradientTransform="matrix(1.04 0 0 1.039 6.961 -7.508)" gradientUnits="userSpaceOnUse" xlink:href="#j"/><linearGradient id="q" x1="4.345" x2="6.084" y1="9.71" y2="11.219" xlink:href="#i" gradientUnits="userSpaceOnUse" gradientTransform="matrix(1.04 0 0 1.039 6.961 -7.508)"/><linearGradient id="r" x1="4.818" x2="7.21" y1="8.471" y2="10.679" xlink:href="#j" gradientUnits="userSpaceOnUse" gradientTransform="matrix(1.04 0 0 1.039 6.961 -7.508)"/><radialGradient id="s" cx="11.952" cy="2.031" r="3.077" xlink:href="#k" gradientUnits="userSpaceOnUse" gradientTransform="matrix(.468 .421 -.651 .723 14.882 -11.977)" fx="11.952" fy="2.031"/><linearGradient id="t" x1="10.494" x2="13.495" y1="1.516" y2="4.602" xlink:href="#l" gradientUnits="userSpaceOnUse" gradientTransform="matrix(1.04 0 0 1.039 6.961 -7.508)"/><linearGradient id="u" x1="11.053" x2="12.976" y1="2.08" y2="4.197" xlink:href="#m" gradientUnits="userSpaceOnUse" gradientTransform="translate(6.964 -7.499)"/><linearGradient id="v" x1="9.28" x2="7.411" y1="5.971" y2="7.762" xlink:href="#n" gradientUnits="userSpaceOnUse" gradientTransform="matrix(1.04 0 0 1.039 6.961 -7.508)"/><linearGradient id="w" x1="8.006" x2="12.63" y1="-3.411" y2="-3.427" xlink:href="#o" gradientUnits="userSpaceOnUse" gradientTransform="matrix(.735 .735 -.735 .735 6.961 -7.508)"/><linearGradient id="x" x1="8.006" x2="12.63" y1="-3.411" y2="-3.427" xlink:href="#l" gradientUnits="userSpaceOnUse" gradientTransform="matrix(.735 .735 -.735 .735 6.961 -7.508)"/><linearGradient id="y" x1="9.677" x2="8.975" y1="3.663" y2="5.983" xlink:href="#p" gradientUnits="userSpaceOnUse" gradientTransform="translate(6.964 -7.499)"/></defs><g><path fill="#729fcf" stroke="#c9c9c9" d="M.5 2.53h13v13H.5z"/><path fill="#8bceca" d="M5.18 10.94l3.96-4.96 3.2 4.03v4.35H1.5V12.5l2.47-3.1z"/><path fill="#f8e81c" d="M5.66 6.2c0 .5-.18.95-.54 1.3-.36.37-.8.55-1.32.55-.5 0-.95-.18-1.3-.54-.38-.35-.56-.8-.56-1.3 0-.52.18-.96.55-1.32.35-.37.8-.55 1.3-.55.52 0 .96.18 1.32.55.36.36.54.8.54 1.3z"/><g><path fill="url(#q)" stroke="url(#r)" stroke-width=".67" d="M8 7.13c.56-.5 1.17-1.23 1.54-2.7l6.33-7.14 2.07 2.1-6.3 7.16C10.6 6.82 9.53 7.8 9 8.16c-.58.1-1.02-.23-1-1.03z" transform="matrix(.746 0 0 .746 -.838 5.642)"/><path fill="url(#s)" stroke="url(#t)" stroke-width=".67" d="M16.4-4.22l3.07-3.05c1.92 0 2.95.96 2.97 2.93l-3.07 3.02z" transform="matrix(.746 0 0 .746 -.838 5.642)"/><path fill="none" stroke="url(#u)" stroke-width=".67" d="M16.8-3.97l2.84-2.8c1.5-.02 2.3.73 2.3 2.26L19.1-1.7z" transform="matrix(.746 0 0 .746 -.838 5.642)"/><path fill="url(#v)" d="M15.07-2.2L17.54.26l-1.52 1.7-2.5-2.42z" transform="matrix(.746 0 0 .746 -.838 5.642)"/><path fill="none" stroke="#eeeeec" stroke-width=".5025000000000001" d="M6.76 9.33l4.4-4.8" stroke-linecap="round"/><path fill="url(#w)" stroke="url(#x)" stroke-width=".67" d="M15.9-5.05l4.2 4.28-1.7 1.7-4.23-4.32z" color="#000" overflow="visible" enable-background="accumulate" transform="matrix(.746 0 0 .746 -.838 5.642)"/><path fill="none" stroke="url(#y)" stroke-width=".67" d="M15.9-4.34L19.44-.8 18.42.23l-3.58-3.57z" color="#000" overflow="visible" enable-background="accumulate" transform="matrix(.746 0 0 .746 -.838 5.642)"/></g></g></svg>