<svg xmlns="http://www.w3.org/2000/svg" width="16" height="16" xmlns:xlink="http://www.w3.org/1999/xlink"><defs><linearGradient id="a"><stop offset="0" stop-color="#424242"/><stop offset="1" stop-color="#777"/></linearGradient><linearGradient id="g" x1="18.113" x2="15.515" y1="31.368" y2="6.18" gradientUnits="userSpaceOnUse" xlink:href="#a" gradientTransform="matrix(.375 0 0 .372 -.811 -1.697)"/><linearGradient id="b"><stop offset="0" stop-color="#202020"/><stop offset="1" stop-color="#b9b9b9"/></linearGradient><radialGradient id="f" cx="20.706" cy="37.518" r="30.905" xlink:href="#b" gradientUnits="userSpaceOnUse" gradientTransform="matrix(.395 -.01 .067 .443 -2.15 -4.347)" fx="20.706" fy="37.518"/><linearGradient id="c"><stop offset="0" stop-color="#eeeeec" stop-opacity=".615"/><stop offset="1" stop-color="#eeeeec" stop-opacity="0"/></linearGradient><linearGradient id="h" x1=".957" x2="1.202" y1="1.271" y2="9.874" xlink:href="#c" gradientUnits="userSpaceOnUse" gradientTransform="matrix(1.019 0 0 1.019 .088 -.485)"/><linearGradient id="d"><stop offset="0" stop-opacity=".67"/><stop offset="1" stop-opacity="0"/></linearGradient><radialGradient id="i" cx="24.351" cy="41.592" r="19.136" xlink:href="#d" fx="24.351" fy="41.592" gradientTransform="matrix(1 0 0 .242 0 31.506)" gradientUnits="userSpaceOnUse"/><linearGradient id="e"><stop offset="0" stop-color="#fff"/><stop offset="1" stop-color="#fff" stop-opacity="0"/></linearGradient><linearGradient id="j" x1="13.036" x2="12.854" y1="32.567" y2="46.689" gradientUnits="userSpaceOnUse" gradientTransform="matrix(.444 0 0 .279 -.13 -1.024)" xlink:href="#e"/></defs><g><path fill="url(#f)" stroke="url(#g)" d="M.88 12.7c0 .14.18.3.33.3h11.75c.16 0 .3-.16.3-.3l-.7-10.03c0-.16-.16-.3-.32-.3H7.6c-.2 0-.47-.13-.53-.42L6.84.77C6.8.5 6.5.37 6.34.37H.83C.66.38.52.55.52.7l.36 12z" stroke-linecap="round" stroke-linejoin="round"/><path fill="none" stroke="url(#h)" d="M1.92 12.48l-.35-11.1H5.9c.18 1.14.7 1.85 1.4 1.95l4.8.06"/><path fill="url(#i)" d="M43.5 41.6a19.14 4.64 0 1 1-38.3 0 19.14 4.64 0 1 1 38.3 0z" transform="matrix(.417 0 0 .376 -2.176 -2.37)" opacity=".557" color="#000" overflow="visible"/><path fill="#fc0" stroke="#ae8c00" d="M14.1 13c.43-.02.74-.4.77-.87.3-4.3.62-7.53.62-7.53.02-.1-.07-.18-.2-.18H2.57s-.83 7.76-.83 7.76c-.04.37-.17.67-.58.8H14.1z" color="#000" stroke-linejoin="round" display="block"/><path fill="#edd400" fill-rule="evenodd" stroke="url(#j)" d="M3.48 5.45h10.97l-.53 6.48c-.03.36-.15.5-.63.5-.64 0-9.67-.02-10.58-.02.07-.1.1-.33.1-.34l.66-6.6z" opacity=".466" stroke-linecap="round"/><path fill="#eeeeec" d="M8 10h7.96v3.97H8z" color="#000" overflow="visible" enable-background="accumulate"/><path fill="#fff" fill-opacity=".376" fill-rule="evenodd" d="M3.02 4.9l-.56 5.44S5.52 8.8 9.33 8.8c3.8 0 5.64-3.86 5.64-3.86L3.02 4.9z"/><path fill="#eeeeec" d="M14 8v8.04h-4V8z" color="#000" overflow="visible" enable-background="accumulate"/><path fill="#2e3436" d="M9 11h6v2H9z" color="#000" overflow="visible" enable-background="accumulate"/><path fill="#2e3436" d="M13 9v6h-2V9z" color="#000" overflow="visible" enable-background="accumulate"/></g></svg>