<svg xmlns="http://www.w3.org/2000/svg" width="16" height="16" xmlns:xlink="http://www.w3.org/1999/xlink" version="1"><defs><linearGradient id="c"><stop offset="0" stop-color="#5d696d"/><stop offset="1" stop-color="#2e3436"/></linearGradient><linearGradient id="a"><stop offset="0" stop-opacity=".608"/><stop offset="1" stop-opacity="0"/></linearGradient><radialGradient id="d" cx="26.517" cy="24.665" r="19.799" xlink:href="#a" gradientUnits="userSpaceOnUse" fx="26.517" fy="24.665"/><linearGradient id="b"><stop offset="0"/><stop offset="1" stop-opacity="0"/></linearGradient><radialGradient cx="17.313" cy="25.531" r="9.688" xlink:href="#b" fx="17.313" fy="25.531" gradientTransform="matrix(1 0 0 .352 0 16.554)" gradientUnits="userSpaceOnUse"/><radialGradient id="e" cx="24.13" cy="23.428" r="23.671" xlink:href="#c" fx="24.13" fy="23.428" gradientTransform="matrix(1 0 0 .966 0 .787)" gradientUnits="userSpaceOnUse"/></defs><g><path fill="url(#d)" fill-rule="evenodd" d="M46.32 24.67a19.8 19.8 0 1 1-39.6 0 19.8 19.8 0 1 1 39.6 0z" transform="matrix(.325 0 0 .12 -.619 10.652)" color="#000" overflow="visible"/><path fill="url(#e)" stroke="#eeeeec" stroke-width="3.324" d="M46.14 23.43a22 21.2 0 1 1-44.02 0 22 21.2 0 1 1 44.02 0z" transform="matrix(.295 0 0 .306 .873 -.179)" stroke-linecap="round" stroke-linejoin="round"/><path fill="#eeeeec" d="M8.18 2.33c.84-.18 1.55.86 1.1 1.6-.4.77-1.67.66-1.93-.17-.26-.6.18-1.34.83-1.43z" style="text-align:start;line-height:125%" font-size="45.145" font-style="italic" font-family="Bell MT"/><path fill="#eeeeec" d="M8.64 10.37c.28-.23.6-.5.83-.77.4-.2.17.4 0 .52-.44.5-1.72 1.43-2.43 1.43-.37.03-.67-.32-.55-.68.2-1.5.68-2.93.87-4.42.1-.47-.34-.17-.54 0-.24.24-.47.45-.72.67-.38.02.08-.5.2-.65.4-.43 1.57-1.32 2.18-1.37.37.02.6.4.54.74-.1.7-.3 1.36-.45 2.04-.2.87-.43 2.03-.54 2.62-.06.3.3.1.6-.13z" style="text-align:start;line-height:125%" font-size="45.145" font-style="italic" font-family="Bell MT"/></g></svg>