<svg xmlns="http://www.w3.org/2000/svg" width="48" height="48" xmlns:xlink="http://www.w3.org/1999/xlink"><defs><linearGradient id="X"><stop offset="0" stop-color="#d2d2d2"/><stop offset="0" stop-color="#d2d2d2"/><stop offset=".75" stop-color="#6b6b6b"/><stop offset="1" stop-color="#494949"/></linearGradient><linearGradient id="e"><stop offset="0" stop-color="#e6e6e6"/><stop offset=".379" stop-color="#e5e5e5"/><stop offset="1" stop-color="#1a1a1a"/></linearGradient><linearGradient id="d"><stop offset="0" stop-color="#e6e6e6"/><stop offset="1" stop-color="#e6e6e6" stop-opacity="0"/></linearGradient><linearGradient id="c"><stop offset="0" stop-color="#e6e6e6"/><stop offset="1" stop-color="#e6e6e6" stop-opacity=".165"/></linearGradient><linearGradient id="b"><stop offset="0"/><stop offset="1" stop-opacity="0"/></linearGradient><linearGradient id="a"><stop offset="0" stop-color="#d2d2d2"/><stop offset=".155" stop-color="#d2d2d2"/><stop offset=".75" stop-color="#6b6b6b"/><stop offset="1" stop-color="#494949"/></linearGradient><radialGradient cx="18.248" cy="15.716" r="29.993" xlink:href="#a" fx="18.248" fy="15.716" gradientUnits="userSpaceOnUse"/><radialGradient cx="15.116" cy="63.965" r="12.289" xlink:href="#b" gradientTransform="scale(1.644 .608)" fx="15.116" fy="63.965" gradientUnits="userSpaceOnUse"/><radialGradient cx="15.601" cy="12.142" r="43.527" xlink:href="#c" fx="15.601" fy="12.142" gradientUnits="userSpaceOnUse"/><radialGradient cx="11.827" cy="10.476" r="32.665" xlink:href="#d" gradientTransform="scale(1.18 .848)" fx="11.827" fy="10.476" gradientUnits="userSpaceOnUse"/><radialGradient cx="18.634" cy="17.486" r="40.693" xlink:href="#e" gradientTransform="scale(1.037 .964)" fx="18.934" fy="17.81" gradientUnits="userSpaceOnUse"/><radialGradient cx="18.634" cy="17.486" r="40.693" fy="17.81" fx="18.934" gradientTransform="scale(1.037 .964)" gradientUnits="userSpaceOnUse" xlink:href="#e"/><radialGradient cx="18.634" cy="17.486" r="40.693" fy="17.81" fx="18.934" gradientTransform="scale(1.037 .964)" gradientUnits="userSpaceOnUse" xlink:href="#e"/><radialGradient cx="18.634" cy="17.486" r="40.693" fy="17.81" fx="18.934" gradientTransform="scale(1.037 .964)" gradientUnits="userSpaceOnUse" xlink:href="#e"/><radialGradient cx="18.634" cy="17.486" r="40.693" fy="17.81" fx="18.934" gradientTransform="scale(1.037 .964)" gradientUnits="userSpaceOnUse" xlink:href="#e"/><radialGradient cx="18.634" cy="17.486" r="40.693" fy="17.81" fx="18.934" gradientTransform="scale(1.037 .964)" gradientUnits="userSpaceOnUse" xlink:href="#e"/><radialGradient cx="18.634" cy="17.486" r="40.693" fy="17.81" fx="18.934" gradientTransform="scale(1.037 .964)" gradientUnits="userSpaceOnUse" xlink:href="#e"/><radialGradient cx="18.634" cy="17.486" r="40.693" fy="17.81" fx="18.934" gradientTransform="scale(1.037 .964)" gradientUnits="userSpaceOnUse" xlink:href="#e"/><radialGradient cx="18.634" cy="17.486" r="40.693" fy="17.81" fx="18.934" gradientTransform="scale(1.037 .964)" gradientUnits="userSpaceOnUse" xlink:href="#e"/><radialGradient cx="18.634" cy="17.486" r="40.693" fy="17.81" fx="18.934" gradientTransform="scale(1.037 .964)" gradientUnits="userSpaceOnUse" xlink:href="#e"/><radialGradient cx="18.634" cy="17.486" r="40.693" fy="17.81" fx="18.934" gradientTransform="scale(1.037 .964)" gradientUnits="userSpaceOnUse" xlink:href="#e"/><radialGradient cx="18.634" cy="17.486" r="40.693" fy="17.81" fx="18.934" gradientTransform="scale(1.037 .964)" gradientUnits="userSpaceOnUse" xlink:href="#e"/><radialGradient cx="18.634" cy="17.486" r="40.693" fy="17.81" fx="18.934" gradientTransform="scale(1.037 .964)" gradientUnits="userSpaceOnUse" xlink:href="#e"/><radialGradient cx="18.634" cy="17.486" r="40.693" fy="17.81" fx="18.934" gradientTransform="scale(1.037 .964)" gradientUnits="userSpaceOnUse" xlink:href="#e"/><radialGradient cx="18.634" cy="17.486" r="40.693" fy="17.81" fx="18.934" gradientTransform="scale(1.037 .964)" gradientUnits="userSpaceOnUse" xlink:href="#e"/><radialGradient cx="18.634" cy="17.486" r="40.693" fy="17.81" fx="18.934" gradientTransform="scale(1.037 .964)" gradientUnits="userSpaceOnUse" xlink:href="#e"/><radialGradient cx="18.634" cy="17.486" r="40.693" fy="17.81" fx="18.934" gradientTransform="scale(1.037 .964)" gradientUnits="userSpaceOnUse" xlink:href="#e"/><radialGradient cx="18.634" cy="17.486" r="40.693" fy="17.81" fx="18.934" gradientTransform="scale(1.037 .964)" gradientUnits="userSpaceOnUse" xlink:href="#e"/><radialGradient cx="18.634" cy="17.486" r="40.693" fy="17.81" fx="18.934" gradientTransform="scale(1.037 .964)" gradientUnits="userSpaceOnUse" xlink:href="#e"/><radialGradient cx="18.634" cy="17.486" r="40.693" fy="17.81" fx="18.934" gradientTransform="scale(1.037 .964)" gradientUnits="userSpaceOnUse" xlink:href="#e"/><radialGradient cx="18.634" cy="17.486" r="40.693" fy="17.81" fx="18.934" gradientTransform="scale(1.037 .964)" gradientUnits="userSpaceOnUse" xlink:href="#e"/><radialGradient cx="18.634" cy="17.486" r="40.693" fy="17.81" fx="18.934" gradientTransform="scale(1.037 .964)" gradientUnits="userSpaceOnUse" xlink:href="#e"/><radialGradient cx="18.634" cy="17.486" r="40.693" fy="17.81" fx="18.934" gradientTransform="scale(1.037 .964)" gradientUnits="userSpaceOnUse" xlink:href="#e"/><radialGradient cx="18.634" cy="17.486" r="40.693" fy="17.81" fx="18.934" gradientTransform="scale(1.037 .964)" gradientUnits="userSpaceOnUse" xlink:href="#e"/><radialGradient cx="18.634" cy="17.486" r="40.693" fy="17.81" fx="18.934" gradientTransform="scale(1.037 .964)" gradientUnits="userSpaceOnUse" xlink:href="#e"/><radialGradient cx="18.634" cy="17.486" r="40.693" fy="17.81" fx="18.934" gradientTransform="scale(1.037 .964)" gradientUnits="userSpaceOnUse" xlink:href="#e"/><radialGradient cx="18.634" cy="17.486" r="40.693" fy="17.81" fx="18.934" gradientTransform="scale(1.037 .964)" gradientUnits="userSpaceOnUse" xlink:href="#e"/><radialGradient cx="18.634" cy="17.486" r="40.693" fy="17.81" fx="18.934" gradientTransform="scale(1.037 .964)" gradientUnits="userSpaceOnUse" xlink:href="#e"/><radialGradient cx="18.634" cy="17.486" r="40.693" fy="17.81" fx="18.934" gradientTransform="scale(1.037 .964)" gradientUnits="userSpaceOnUse" xlink:href="#e"/><radialGradient cx="18.634" cy="17.486" r="40.693" fy="17.81" fx="18.934" gradientTransform="scale(1.037 .964)" gradientUnits="userSpaceOnUse" xlink:href="#e"/><radialGradient cx="18.634" cy="17.486" r="40.693" fy="17.81" fx="18.934" gradientTransform="scale(1.037 .964)" gradientUnits="userSpaceOnUse" xlink:href="#e"/><radialGradient cx="18.634" cy="17.486" r="40.693" fy="17.81" fx="18.934" gradientTransform="scale(1.037 .964)" gradientUnits="userSpaceOnUse" xlink:href="#e"/><radialGradient cx="18.634" cy="17.486" r="40.693" fy="17.81" fx="18.934" gradientTransform="scale(1.037 .964)" gradientUnits="userSpaceOnUse" xlink:href="#e"/><radialGradient cx="18.634" cy="17.486" r="40.693" fy="17.81" fx="18.934" gradientTransform="scale(1.037 .964)" gradientUnits="userSpaceOnUse" xlink:href="#e"/><radialGradient cx="18.634" cy="17.486" r="40.693" fy="17.81" fx="18.934" gradientTransform="scale(1.037 .964)" gradientUnits="userSpaceOnUse" xlink:href="#e"/><radialGradient cx="18.634" cy="17.486" r="40.693" fy="17.81" fx="18.934" gradientTransform="scale(1.037 .964)" gradientUnits="userSpaceOnUse" xlink:href="#e"/><radialGradient cx="18.634" cy="17.486" r="40.693" fy="17.81" fx="18.934" gradientTransform="scale(1.037 .964)" gradientUnits="userSpaceOnUse" xlink:href="#e"/><radialGradient cx="18.634" cy="17.486" r="40.693" fy="17.81" fx="18.934" gradientTransform="scale(1.037 .964)" gradientUnits="userSpaceOnUse" xlink:href="#e"/><radialGradient cx="18.634" cy="17.486" r="40.693" fy="17.81" fx="18.934" gradientTransform="scale(1.037 .964)" gradientUnits="userSpaceOnUse" xlink:href="#e"/><radialGradient cx="18.634" cy="17.486" r="40.693" fy="17.81" fx="18.934" gradientTransform="scale(1.037 .964)" gradientUnits="userSpaceOnUse" xlink:href="#e"/><radialGradient cx="18.634" cy="17.486" r="40.693" fy="17.81" fx="18.934" gradientTransform="scale(1.037 .964)" gradientUnits="userSpaceOnUse" xlink:href="#e"/><radialGradient cx="15.116" cy="63.965" r="12.289" xlink:href="#f" gradientTransform="scale(1.644 .608)" fx="15.116" fy="63.965" gradientUnits="userSpaceOnUse"/><linearGradient id="f"><stop offset="0"/><stop offset="1" stop-opacity="0"/></linearGradient><radialGradient cx="18.248" cy="15.716" r="29.993" xlink:href="#g" fx="18.248" fy="15.716" gradientUnits="userSpaceOnUse"/><linearGradient id="g"><stop offset="0" stop-color="#d2d2d2"/><stop offset=".155" stop-color="#d2d2d2"/><stop offset=".75" stop-color="#6b6b6b"/><stop offset="1" stop-color="#494949"/></linearGradient><radialGradient cx="11.827" cy="10.476" r="32.665" xlink:href="#h" gradientTransform="scale(1.18 .848)" fx="11.827" fy="10.476" gradientUnits="userSpaceOnUse"/><linearGradient id="h"><stop offset="0" stop-color="#e6e6e6"/><stop offset="1" stop-color="#e6e6e6" stop-opacity="0"/></linearGradient><radialGradient cx="18.634" cy="17.486" r="40.693" fy="17.81" fx="18.934" gradientTransform="scale(1.037 .964)" gradientUnits="userSpaceOnUse" xlink:href="#i"/><linearGradient id="i"><stop offset="0" stop-color="#e6e6e6"/><stop offset=".379" stop-color="#e5e5e5"/><stop offset="1" stop-color="#1a1a1a"/></linearGradient><radialGradient cx="18.634" cy="17.486" r="40.693" fy="17.81" fx="18.934" gradientTransform="scale(1.037 .964)" gradientUnits="userSpaceOnUse" xlink:href="#j"/><linearGradient id="j"><stop offset="0" stop-color="#e6e6e6"/><stop offset=".379" stop-color="#e5e5e5"/><stop offset="1" stop-color="#1a1a1a"/></linearGradient><radialGradient cx="18.634" cy="17.486" r="40.693" fy="17.81" fx="18.934" gradientTransform="scale(1.037 .964)" gradientUnits="userSpaceOnUse" xlink:href="#k"/><linearGradient id="k"><stop offset="0" stop-color="#e6e6e6"/><stop offset=".379" stop-color="#e5e5e5"/><stop offset="1" stop-color="#1a1a1a"/></linearGradient><radialGradient cx="18.634" cy="17.486" r="40.693" fy="17.81" fx="18.934" gradientTransform="scale(1.037 .964)" gradientUnits="userSpaceOnUse" xlink:href="#l"/><linearGradient id="l"><stop offset="0" stop-color="#e6e6e6"/><stop offset=".379" stop-color="#e5e5e5"/><stop offset="1" stop-color="#1a1a1a"/></linearGradient><radialGradient cx="18.634" cy="17.486" r="40.693" fy="17.81" fx="18.934" gradientTransform="scale(1.037 .964)" gradientUnits="userSpaceOnUse" xlink:href="#j"/><linearGradient><stop offset="0" stop-color="#e6e6e6"/><stop offset=".379" stop-color="#e5e5e5"/><stop offset="1" stop-color="#1a1a1a"/></linearGradient><radialGradient cx="18.634" cy="17.486" r="40.693" fy="17.81" fx="18.934" gradientTransform="scale(1.037 .964)" gradientUnits="userSpaceOnUse" xlink:href="#m"/><linearGradient id="m"><stop offset="0" stop-color="#e6e6e6"/><stop offset=".379" stop-color="#e5e5e5"/><stop offset="1" stop-color="#1a1a1a"/></linearGradient><radialGradient cx="18.634" cy="17.486" r="40.693" fy="17.81" fx="18.934" gradientTransform="scale(1.037 .964)" gradientUnits="userSpaceOnUse" xlink:href="#n"/><linearGradient id="n"><stop offset="0" stop-color="#e6e6e6"/><stop offset=".379" stop-color="#e5e5e5"/><stop offset="1" stop-color="#1a1a1a"/></linearGradient><radialGradient cx="18.634" cy="17.486" r="40.693" fy="17.81" fx="18.934" gradientTransform="scale(1.037 .964)" gradientUnits="userSpaceOnUse" xlink:href="#o"/><linearGradient id="o"><stop offset="0" stop-color="#e6e6e6"/><stop offset=".379" stop-color="#e5e5e5"/><stop offset="1" stop-color="#1a1a1a"/></linearGradient><radialGradient cx="18.634" cy="17.486" r="40.693" fy="17.81" fx="18.934" gradientTransform="scale(1.037 .964)" gradientUnits="userSpaceOnUse" xlink:href="#p"/><linearGradient id="p"><stop offset="0" stop-color="#e6e6e6"/><stop offset=".379" stop-color="#e5e5e5"/><stop offset="1" stop-color="#1a1a1a"/></linearGradient><radialGradient cx="18.634" cy="17.486" r="40.693" fy="17.81" fx="18.934" gradientTransform="scale(1.037 .964)" gradientUnits="userSpaceOnUse" xlink:href="#q"/><linearGradient id="q"><stop offset="0" stop-color="#e6e6e6"/><stop offset=".379" stop-color="#e5e5e5"/><stop offset="1" stop-color="#1a1a1a"/></linearGradient><radialGradient cx="18.634" cy="17.486" r="40.693" fy="17.81" fx="18.934" gradientTransform="scale(1.037 .964)" gradientUnits="userSpaceOnUse" xlink:href="#r"/><linearGradient id="r"><stop offset="0" stop-color="#e6e6e6"/><stop offset=".379" stop-color="#e5e5e5"/><stop offset="1" stop-color="#1a1a1a"/></linearGradient><radialGradient cx="18.634" cy="17.486" r="40.693" fy="17.81" fx="18.934" gradientTransform="scale(1.037 .964)" gradientUnits="userSpaceOnUse" xlink:href="#s"/><linearGradient id="s"><stop offset="0" stop-color="#e6e6e6"/><stop offset=".379" stop-color="#e5e5e5"/><stop offset="1" stop-color="#1a1a1a"/></linearGradient><radialGradient cx="18.634" cy="17.486" r="40.693" fy="17.81" fx="18.934" gradientTransform="scale(1.037 .964)" gradientUnits="userSpaceOnUse" xlink:href="#t"/><linearGradient id="t"><stop offset="0" stop-color="#e6e6e6"/><stop offset=".379" stop-color="#e5e5e5"/><stop offset="1" stop-color="#1a1a1a"/></linearGradient><radialGradient cx="18.634" cy="17.486" r="40.693" fy="17.81" fx="18.934" gradientTransform="scale(1.037 .964)" gradientUnits="userSpaceOnUse" xlink:href="#u"/><linearGradient id="u"><stop offset="0" stop-color="#e6e6e6"/><stop offset=".379" stop-color="#e5e5e5"/><stop offset="1" stop-color="#1a1a1a"/></linearGradient><radialGradient cx="18.634" cy="17.486" r="40.693" fy="17.81" fx="18.934" gradientTransform="scale(1.037 .964)" gradientUnits="userSpaceOnUse" xlink:href="#v"/><linearGradient id="v"><stop offset="0" stop-color="#e6e6e6"/><stop offset=".379" stop-color="#e5e5e5"/><stop offset="1" stop-color="#1a1a1a"/></linearGradient><radialGradient cx="18.634" cy="17.486" r="40.693" fy="17.81" fx="18.934" gradientTransform="scale(1.037 .964)" gradientUnits="userSpaceOnUse" xlink:href="#w"/><linearGradient id="w"><stop offset="0" stop-color="#e6e6e6"/><stop offset=".379" stop-color="#e5e5e5"/><stop offset="1" stop-color="#1a1a1a"/></linearGradient><radialGradient cx="18.634" cy="17.486" r="40.693" fy="17.81" fx="18.934" gradientTransform="scale(1.037 .964)" gradientUnits="userSpaceOnUse" xlink:href="#x"/><linearGradient id="x"><stop offset="0" stop-color="#e6e6e6"/><stop offset=".379" stop-color="#e5e5e5"/><stop offset="1" stop-color="#1a1a1a"/></linearGradient><radialGradient cx="18.634" cy="17.486" r="40.693" fy="17.81" fx="18.934" gradientTransform="scale(1.037 .964)" gradientUnits="userSpaceOnUse" xlink:href="#y"/><linearGradient id="y"><stop offset="0" stop-color="#e6e6e6"/><stop offset=".379" stop-color="#e5e5e5"/><stop offset="1" stop-color="#1a1a1a"/></linearGradient><radialGradient cx="18.634" cy="17.486" r="40.693" fy="17.81" fx="18.934" gradientTransform="scale(1.037 .964)" gradientUnits="userSpaceOnUse" xlink:href="#z"/><linearGradient id="z"><stop offset="0" stop-color="#e6e6e6"/><stop offset=".379" stop-color="#e5e5e5"/><stop offset="1" stop-color="#1a1a1a"/></linearGradient><radialGradient cx="18.634" cy="17.486" r="40.693" fy="17.81" fx="18.934" gradientTransform="scale(1.037 .964)" gradientUnits="userSpaceOnUse" xlink:href="#A"/><linearGradient id="A"><stop offset="0" stop-color="#e6e6e6"/><stop offset=".379" stop-color="#e5e5e5"/><stop offset="1" stop-color="#1a1a1a"/></linearGradient><radialGradient cx="18.634" cy="17.486" r="40.693" fy="17.81" fx="18.934" gradientTransform="scale(1.037 .964)" gradientUnits="userSpaceOnUse" xlink:href="#B"/><linearGradient id="B"><stop offset="0" stop-color="#e6e6e6"/><stop offset=".379" stop-color="#e5e5e5"/><stop offset="1" stop-color="#1a1a1a"/></linearGradient><radialGradient cx="18.634" cy="17.486" r="40.693" fy="17.81" fx="18.934" gradientTransform="scale(1.037 .964)" gradientUnits="userSpaceOnUse" xlink:href="#C"/><linearGradient id="C"><stop offset="0" stop-color="#e6e6e6"/><stop offset=".379" stop-color="#e5e5e5"/><stop offset="1" stop-color="#1a1a1a"/></linearGradient><radialGradient cx="18.634" cy="17.486" r="40.693" fy="17.81" fx="18.934" gradientTransform="scale(1.037 .964)" gradientUnits="userSpaceOnUse" xlink:href="#D"/><linearGradient id="D"><stop offset="0" stop-color="#e6e6e6"/><stop offset=".379" stop-color="#e5e5e5"/><stop offset="1" stop-color="#1a1a1a"/></linearGradient><radialGradient cx="18.634" cy="17.486" r="40.693" fy="17.81" fx="18.934" gradientTransform="scale(1.037 .964)" gradientUnits="userSpaceOnUse" xlink:href="#E"/><linearGradient id="E"><stop offset="0" stop-color="#e6e6e6"/><stop offset=".379" stop-color="#e5e5e5"/><stop offset="1" stop-color="#1a1a1a"/></linearGradient><radialGradient cx="18.634" cy="17.486" r="40.693" fy="17.81" fx="18.934" gradientTransform="scale(1.037 .964)" gradientUnits="userSpaceOnUse" xlink:href="#F"/><linearGradient id="F"><stop offset="0" stop-color="#e6e6e6"/><stop offset=".379" stop-color="#e5e5e5"/><stop offset="1" stop-color="#1a1a1a"/></linearGradient><radialGradient cx="18.634" cy="17.486" r="40.693" fy="17.81" fx="18.934" gradientTransform="scale(1.037 .964)" gradientUnits="userSpaceOnUse" xlink:href="#G"/><linearGradient id="G"><stop offset="0" stop-color="#e6e6e6"/><stop offset=".379" stop-color="#e5e5e5"/><stop offset="1" stop-color="#1a1a1a"/></linearGradient><radialGradient cx="18.634" cy="17.486" r="40.693" fy="17.81" fx="18.934" gradientTransform="scale(1.037 .964)" gradientUnits="userSpaceOnUse" xlink:href="#H"/><linearGradient id="H"><stop offset="0" stop-color="#e6e6e6"/><stop offset=".379" stop-color="#e5e5e5"/><stop offset="1" stop-color="#1a1a1a"/></linearGradient><radialGradient cx="18.634" cy="17.486" r="40.693" fy="17.81" fx="18.934" gradientTransform="scale(1.037 .964)" gradientUnits="userSpaceOnUse" xlink:href="#I"/><linearGradient id="I"><stop offset="0" stop-color="#e6e6e6"/><stop offset=".379" stop-color="#e5e5e5"/><stop offset="1" stop-color="#1a1a1a"/></linearGradient><radialGradient cx="18.634" cy="17.486" r="40.693" fy="17.81" fx="18.934" gradientTransform="scale(1.037 .964)" gradientUnits="userSpaceOnUse" xlink:href="#J"/><linearGradient id="J"><stop offset="0" stop-color="#e6e6e6"/><stop offset=".379" stop-color="#e5e5e5"/><stop offset="1" stop-color="#1a1a1a"/></linearGradient><radialGradient cx="18.634" cy="17.486" r="40.693" fy="17.81" fx="18.934" gradientTransform="scale(1.037 .964)" gradientUnits="userSpaceOnUse" xlink:href="#K"/><linearGradient id="K"><stop offset="0" stop-color="#e6e6e6"/><stop offset=".379" stop-color="#e5e5e5"/><stop offset="1" stop-color="#1a1a1a"/></linearGradient><radialGradient cx="18.634" cy="17.486" r="40.693" fy="17.81" fx="18.934" gradientTransform="scale(1.037 .964)" gradientUnits="userSpaceOnUse" xlink:href="#L"/><linearGradient id="L"><stop offset="0" stop-color="#e6e6e6"/><stop offset=".379" stop-color="#e5e5e5"/><stop offset="1" stop-color="#1a1a1a"/></linearGradient><radialGradient cx="18.634" cy="17.486" r="40.693" fy="17.81" fx="18.934" gradientTransform="scale(1.037 .964)" gradientUnits="userSpaceOnUse" xlink:href="#M"/><linearGradient id="M"><stop offset="0" stop-color="#e6e6e6"/><stop offset=".379" stop-color="#e5e5e5"/><stop offset="1" stop-color="#1a1a1a"/></linearGradient><radialGradient cx="18.634" cy="17.486" r="40.693" fy="17.81" fx="18.934" gradientTransform="scale(1.037 .964)" gradientUnits="userSpaceOnUse" xlink:href="#N"/><linearGradient id="N"><stop offset="0" stop-color="#e6e6e6"/><stop offset=".379" stop-color="#e5e5e5"/><stop offset="1" stop-color="#1a1a1a"/></linearGradient><radialGradient cx="18.634" cy="17.486" r="40.693" fy="17.81" fx="18.934" gradientTransform="scale(1.037 .964)" gradientUnits="userSpaceOnUse" xlink:href="#O"/><linearGradient id="O"><stop offset="0" stop-color="#e6e6e6"/><stop offset=".379" stop-color="#e5e5e5"/><stop offset="1" stop-color="#1a1a1a"/></linearGradient><radialGradient cx="18.634" cy="17.486" r="40.693" fy="17.81" fx="18.934" gradientTransform="scale(1.037 .964)" gradientUnits="userSpaceOnUse" xlink:href="#P"/><linearGradient id="P"><stop offset="0" stop-color="#e6e6e6"/><stop offset=".379" stop-color="#e5e5e5"/><stop offset="1" stop-color="#1a1a1a"/></linearGradient><radialGradient cx="18.634" cy="17.486" r="40.693" fy="17.81" fx="18.934" gradientTransform="scale(1.037 .964)" gradientUnits="userSpaceOnUse" xlink:href="#Q"/><linearGradient id="Q"><stop offset="0" stop-color="#e6e6e6"/><stop offset=".379" stop-color="#e5e5e5"/><stop offset="1" stop-color="#1a1a1a"/></linearGradient><radialGradient cx="18.634" cy="17.486" r="40.693" fy="17.81" fx="18.934" gradientTransform="scale(1.037 .964)" gradientUnits="userSpaceOnUse" xlink:href="#R"/><linearGradient id="R"><stop offset="0" stop-color="#e6e6e6"/><stop offset=".379" stop-color="#e5e5e5"/><stop offset="1" stop-color="#1a1a1a"/></linearGradient><radialGradient cx="18.634" cy="17.486" r="40.693" fy="17.81" fx="18.934" gradientTransform="scale(1.037 .964)" gradientUnits="userSpaceOnUse" xlink:href="#S"/><linearGradient id="S"><stop offset="0" stop-color="#e6e6e6"/><stop offset=".379" stop-color="#e5e5e5"/><stop offset="1" stop-color="#1a1a1a"/></linearGradient><radialGradient cx="18.634" cy="17.486" r="40.693" fy="17.81" fx="18.934" gradientTransform="scale(1.037 .964)" gradientUnits="userSpaceOnUse" xlink:href="#T"/><linearGradient id="T"><stop offset="0" stop-color="#e6e6e6"/><stop offset=".379" stop-color="#e5e5e5"/><stop offset="1" stop-color="#1a1a1a"/></linearGradient><radialGradient cx="18.634" cy="17.486" r="40.693" fy="17.81" fx="18.934" gradientTransform="scale(1.037 .964)" gradientUnits="userSpaceOnUse" xlink:href="#U"/><linearGradient id="U"><stop offset="0" stop-color="#e6e6e6"/><stop offset=".379" stop-color="#e5e5e5"/><stop offset="1" stop-color="#1a1a1a"/></linearGradient><radialGradient cx="18.634" cy="17.486" r="40.693" xlink:href="#V" gradientTransform="scale(1.037 .964)" fx="18.934" fy="17.81" gradientUnits="userSpaceOnUse"/><linearGradient id="V"><stop offset="0" stop-color="#e6e6e6"/><stop offset=".379" stop-color="#e5e5e5"/><stop offset="1" stop-color="#1a1a1a"/></linearGradient><radialGradient cx="15.601" cy="12.142" r="43.527" xlink:href="#W" gradientTransform="matrix(1.15 0 0 1.15 -4.255 -3.009)" fx="15.601" fy="12.142" gradientUnits="userSpaceOnUse"/><linearGradient id="W"><stop offset="0" stop-color="#e6e6e6"/><stop offset="1" stop-color="#e6e6e6" stop-opacity=".165"/></linearGradient><radialGradient cx="18.248" cy="15.716" r="29.993" fy="15.716" fx="18.248" gradientTransform="matrix(1.15 0 0 1.15 -4.255 -3.009)" gradientUnits="userSpaceOnUse" xlink:href="#X"/><radialGradient id="aP" cx="18.248" cy="15.716" r="29.993" fy="15.716" fx="18.248" gradientTransform="matrix(1.15 0 0 1.15 -4.255 -3.009)" gradientUnits="userSpaceOnUse" xlink:href="#Y"/><linearGradient id="Y"><stop offset="0" stop-color="#bdbdbd"/><stop offset="0" stop-color="#bdbdbd"/><stop offset=".75" stop-color="#606060"/><stop offset="1" stop-color="#424242"/></linearGradient><radialGradient id="aQ" cx="18.634" cy="17.486" r="40.693" fy="17.81" fx="18.934" gradientTransform="scale(1.037 .964)" gradientUnits="userSpaceOnUse" xlink:href="#Z"/><linearGradient id="Z"><stop offset="0" stop-color="#cfcfcf"/><stop offset=".379" stop-color="#cecece"/><stop offset="1" stop-color="#171717"/></linearGradient><radialGradient id="aR" cx="18.634" cy="17.486" r="40.693" fy="17.81" fx="18.934" gradientTransform="scale(1.037 .964)" gradientUnits="userSpaceOnUse" xlink:href="#aa"/><linearGradient id="aa"><stop offset="0" stop-color="#cfcfcf"/><stop offset=".379" stop-color="#cecece"/><stop offset="1" stop-color="#171717"/></linearGradient><radialGradient id="aS" cx="18.634" cy="17.486" r="40.693" fy="17.81" fx="18.934" gradientTransform="scale(1.037 .964)" gradientUnits="userSpaceOnUse" xlink:href="#ab"/><linearGradient id="ab"><stop offset="0" stop-color="#cfcfcf"/><stop offset=".379" stop-color="#cecece"/><stop offset="1" stop-color="#171717"/></linearGradient><radialGradient id="aT" cx="18.634" cy="17.486" r="40.693" fy="17.81" fx="18.934" gradientTransform="scale(1.037 .964)" gradientUnits="userSpaceOnUse" xlink:href="#ac"/><linearGradient id="ac"><stop offset="0" stop-color="#cfcfcf"/><stop offset=".379" stop-color="#cecece"/><stop offset="1" stop-color="#171717"/></linearGradient><radialGradient id="aU" cx="18.634" cy="17.486" r="40.693" fy="17.81" fx="18.934" gradientTransform="scale(1.037 .964)" gradientUnits="userSpaceOnUse" xlink:href="#ad"/><linearGradient id="ad"><stop offset="0" stop-color="#cfcfcf"/><stop offset=".379" stop-color="#cecece"/><stop offset="1" stop-color="#171717"/></linearGradient><radialGradient id="aV" cx="18.634" cy="17.486" r="40.693" fy="17.81" fx="18.934" gradientTransform="scale(1.037 .964)" gradientUnits="userSpaceOnUse" xlink:href="#ae"/><linearGradient id="ae"><stop offset="0" stop-color="#cfcfcf"/><stop offset=".379" stop-color="#cecece"/><stop offset="1" stop-color="#171717"/></linearGradient><radialGradient id="aW" cx="18.634" cy="17.486" r="40.693" fy="17.81" fx="18.934" gradientTransform="scale(1.037 .964)" gradientUnits="userSpaceOnUse" xlink:href="#af"/><linearGradient id="af"><stop offset="0" stop-color="#cfcfcf"/><stop offset=".379" stop-color="#cecece"/><stop offset="1" stop-color="#171717"/></linearGradient><radialGradient id="aX" cx="18.634" cy="17.486" r="40.693" fy="17.81" fx="18.934" gradientTransform="scale(1.037 .964)" gradientUnits="userSpaceOnUse" xlink:href="#ag"/><linearGradient id="ag"><stop offset="0" stop-color="#cfcfcf"/><stop offset=".379" stop-color="#cecece"/><stop offset="1" stop-color="#171717"/></linearGradient><radialGradient id="aY" cx="18.634" cy="17.486" r="40.693" fy="17.81" fx="18.934" gradientTransform="scale(1.037 .964)" gradientUnits="userSpaceOnUse" xlink:href="#ah"/><linearGradient id="ah"><stop offset="0" stop-color="#cfcfcf"/><stop offset=".379" stop-color="#cecece"/><stop offset="1" stop-color="#171717"/></linearGradient><radialGradient id="aZ" cx="18.634" cy="17.486" r="40.693" fy="17.81" fx="18.934" gradientTransform="scale(1.037 .964)" gradientUnits="userSpaceOnUse" xlink:href="#ai"/><linearGradient id="ai"><stop offset="0" stop-color="#cfcfcf"/><stop offset=".379" stop-color="#cecece"/><stop offset="1" stop-color="#171717"/></linearGradient><radialGradient id="ba" cx="18.634" cy="17.486" r="40.693" fy="17.81" fx="18.934" gradientTransform="scale(1.037 .964)" gradientUnits="userSpaceOnUse" xlink:href="#aj"/><linearGradient id="aj"><stop offset="0" stop-color="#cfcfcf"/><stop offset=".379" stop-color="#cecece"/><stop offset="1" stop-color="#171717"/></linearGradient><radialGradient id="bb" cx="18.634" cy="17.486" r="40.693" fy="17.81" fx="18.934" gradientTransform="scale(1.037 .964)" gradientUnits="userSpaceOnUse" xlink:href="#ak"/><linearGradient id="ak"><stop offset="0" stop-color="#cfcfcf"/><stop offset=".379" stop-color="#cecece"/><stop offset="1" stop-color="#171717"/></linearGradient><radialGradient id="bc" cx="18.634" cy="17.486" r="40.693" fy="17.81" fx="18.934" gradientTransform="scale(1.037 .964)" gradientUnits="userSpaceOnUse" xlink:href="#al"/><linearGradient id="al"><stop offset="0" stop-color="#cfcfcf"/><stop offset=".379" stop-color="#cecece"/><stop offset="1" stop-color="#171717"/></linearGradient><radialGradient id="bd" cx="18.634" cy="17.486" r="40.693" fy="17.81" fx="18.934" gradientTransform="scale(1.037 .964)" gradientUnits="userSpaceOnUse" xlink:href="#am"/><linearGradient id="am"><stop offset="0" stop-color="#cfcfcf"/><stop offset=".379" stop-color="#cecece"/><stop offset="1" stop-color="#171717"/></linearGradient><radialGradient id="be" cx="18.634" cy="17.486" r="40.693" fy="17.81" fx="18.934" gradientTransform="scale(1.037 .964)" gradientUnits="userSpaceOnUse" xlink:href="#an"/><linearGradient id="an"><stop offset="0" stop-color="#cfcfcf"/><stop offset=".379" stop-color="#cecece"/><stop offset="1" stop-color="#171717"/></linearGradient><radialGradient id="bf" cx="18.634" cy="17.486" r="40.693" fy="17.81" fx="18.934" gradientTransform="scale(1.037 .964)" gradientUnits="userSpaceOnUse" xlink:href="#ao"/><linearGradient id="ao"><stop offset="0" stop-color="#cfcfcf"/><stop offset=".379" stop-color="#cecece"/><stop offset="1" stop-color="#171717"/></linearGradient><radialGradient id="bg" cx="18.634" cy="17.486" r="40.693" fy="17.81" fx="18.934" gradientTransform="scale(1.037 .964)" gradientUnits="userSpaceOnUse" xlink:href="#ap"/><linearGradient id="ap"><stop offset="0" stop-color="#cfcfcf"/><stop offset=".379" stop-color="#cecece"/><stop offset="1" stop-color="#171717"/></linearGradient><radialGradient id="bh" cx="18.634" cy="17.486" r="40.693" fy="17.81" fx="18.934" gradientTransform="scale(1.037 .964)" gradientUnits="userSpaceOnUse" xlink:href="#aq"/><linearGradient id="aq"><stop offset="0" stop-color="#cfcfcf"/><stop offset=".379" stop-color="#cecece"/><stop offset="1" stop-color="#171717"/></linearGradient><radialGradient id="bi" cx="18.634" cy="17.486" r="40.693" fy="17.81" fx="18.934" gradientTransform="scale(1.037 .964)" gradientUnits="userSpaceOnUse" xlink:href="#ar"/><linearGradient id="ar"><stop offset="0" stop-color="#cfcfcf"/><stop offset=".379" stop-color="#cecece"/><stop offset="1" stop-color="#171717"/></linearGradient><radialGradient id="bj" cx="18.634" cy="17.486" r="40.693" fy="17.81" fx="18.934" gradientTransform="scale(1.037 .964)" gradientUnits="userSpaceOnUse" xlink:href="#as"/><linearGradient id="as"><stop offset="0" stop-color="#cfcfcf"/><stop offset=".379" stop-color="#cecece"/><stop offset="1" stop-color="#171717"/></linearGradient><radialGradient id="bk" cx="18.634" cy="17.486" r="40.693" fy="17.81" fx="18.934" gradientTransform="scale(1.037 .964)" gradientUnits="userSpaceOnUse" xlink:href="#at"/><linearGradient id="at"><stop offset="0" stop-color="#cfcfcf"/><stop offset=".379" stop-color="#cecece"/><stop offset="1" stop-color="#171717"/></linearGradient><radialGradient id="bl" cx="18.634" cy="17.486" r="40.693" fy="17.81" fx="18.934" gradientTransform="scale(1.037 .964)" gradientUnits="userSpaceOnUse" xlink:href="#au"/><linearGradient id="au"><stop offset="0" stop-color="#cfcfcf"/><stop offset=".379" stop-color="#cecece"/><stop offset="1" stop-color="#171717"/></linearGradient><radialGradient id="bm" cx="18.634" cy="17.486" r="40.693" fy="17.81" fx="18.934" gradientTransform="scale(1.037 .964)" gradientUnits="userSpaceOnUse" xlink:href="#av"/><linearGradient id="av"><stop offset="0" stop-color="#cfcfcf"/><stop offset=".379" stop-color="#cecece"/><stop offset="1" stop-color="#171717"/></linearGradient><radialGradient id="bn" cx="18.634" cy="17.486" r="40.693" fy="17.81" fx="18.934" gradientTransform="scale(1.037 .964)" gradientUnits="userSpaceOnUse" xlink:href="#aw"/><linearGradient id="aw"><stop offset="0" stop-color="#cfcfcf"/><stop offset=".379" stop-color="#cecece"/><stop offset="1" stop-color="#171717"/></linearGradient><radialGradient id="bo" cx="18.634" cy="17.486" r="40.693" fy="17.81" fx="18.934" gradientTransform="scale(1.037 .964)" gradientUnits="userSpaceOnUse" xlink:href="#ax"/><linearGradient id="ax"><stop offset="0" stop-color="#cfcfcf"/><stop offset=".379" stop-color="#cecece"/><stop offset="1" stop-color="#171717"/></linearGradient><radialGradient id="bp" cx="18.634" cy="17.486" r="40.693" fy="17.81" fx="18.934" gradientTransform="scale(1.037 .964)" gradientUnits="userSpaceOnUse" xlink:href="#ay"/><linearGradient id="ay"><stop offset="0" stop-color="#cfcfcf"/><stop offset=".379" stop-color="#cecece"/><stop offset="1" stop-color="#171717"/></linearGradient><radialGradient id="bq" cx="18.634" cy="17.486" r="40.693" fy="17.81" fx="18.934" gradientTransform="scale(1.037 .964)" gradientUnits="userSpaceOnUse" xlink:href="#az"/><linearGradient id="az"><stop offset="0" stop-color="#cfcfcf"/><stop offset=".379" stop-color="#cecece"/><stop offset="1" stop-color="#171717"/></linearGradient><radialGradient id="br" cx="18.634" cy="17.486" r="40.693" fy="17.81" fx="18.934" gradientTransform="scale(1.037 .964)" gradientUnits="userSpaceOnUse" xlink:href="#aA"/><linearGradient id="aA"><stop offset="0" stop-color="#cfcfcf"/><stop offset=".379" stop-color="#cecece"/><stop offset="1" stop-color="#171717"/></linearGradient><radialGradient id="bs" cx="18.634" cy="17.486" r="40.693" fy="17.81" fx="18.934" gradientTransform="scale(1.037 .964)" gradientUnits="userSpaceOnUse" xlink:href="#aB"/><linearGradient id="aB"><stop offset="0" stop-color="#cfcfcf"/><stop offset=".379" stop-color="#cecece"/><stop offset="1" stop-color="#171717"/></linearGradient><radialGradient id="bt" cx="18.634" cy="17.486" r="40.693" fy="17.81" fx="18.934" gradientTransform="scale(1.037 .964)" gradientUnits="userSpaceOnUse" xlink:href="#aC"/><linearGradient id="aC"><stop offset="0" stop-color="#cfcfcf"/><stop offset=".379" stop-color="#cecece"/><stop offset="1" stop-color="#171717"/></linearGradient><radialGradient id="bu" cx="18.634" cy="17.486" r="40.693" fy="17.81" fx="18.934" gradientTransform="scale(1.037 .964)" gradientUnits="userSpaceOnUse" xlink:href="#aD"/><linearGradient id="aD"><stop offset="0" stop-color="#cfcfcf"/><stop offset=".379" stop-color="#cecece"/><stop offset="1" stop-color="#171717"/></linearGradient><radialGradient id="bv" cx="18.634" cy="17.486" r="40.693" fy="17.81" fx="18.934" gradientTransform="scale(1.037 .964)" gradientUnits="userSpaceOnUse" xlink:href="#aE"/><linearGradient id="aE"><stop offset="0" stop-color="#cfcfcf"/><stop offset=".379" stop-color="#cecece"/><stop offset="1" stop-color="#171717"/></linearGradient><radialGradient id="bw" cx="18.634" cy="17.486" r="40.693" fy="17.81" fx="18.934" gradientTransform="scale(1.037 .964)" gradientUnits="userSpaceOnUse" xlink:href="#aF"/><linearGradient id="aF"><stop offset="0" stop-color="#cfcfcf"/><stop offset=".379" stop-color="#cecece"/><stop offset="1" stop-color="#171717"/></linearGradient><radialGradient id="bx" cx="18.634" cy="17.486" r="40.693" fy="17.81" fx="18.934" gradientTransform="scale(1.037 .964)" gradientUnits="userSpaceOnUse" xlink:href="#aG"/><linearGradient id="aG"><stop offset="0" stop-color="#cfcfcf"/><stop offset=".379" stop-color="#cecece"/><stop offset="1" stop-color="#171717"/></linearGradient><radialGradient id="by" cx="18.634" cy="17.486" r="40.693" fy="17.81" fx="18.934" gradientTransform="scale(1.037 .964)" gradientUnits="userSpaceOnUse" xlink:href="#aH"/><linearGradient id="aH"><stop offset="0" stop-color="#cfcfcf"/><stop offset=".379" stop-color="#cecece"/><stop offset="1" stop-color="#171717"/></linearGradient><radialGradient id="bz" cx="18.634" cy="17.486" r="40.693" fy="17.81" fx="18.934" gradientTransform="scale(1.037 .964)" gradientUnits="userSpaceOnUse" xlink:href="#aI"/><linearGradient id="aI"><stop offset="0" stop-color="#cfcfcf"/><stop offset=".379" stop-color="#cecece"/><stop offset="1" stop-color="#171717"/></linearGradient><radialGradient id="bA" cx="18.634" cy="17.486" r="40.693" fy="17.81" fx="18.934" gradientTransform="scale(1.037 .964)" gradientUnits="userSpaceOnUse" xlink:href="#aJ"/><linearGradient id="aJ"><stop offset="0" stop-color="#cfcfcf"/><stop offset=".379" stop-color="#cecece"/><stop offset="1" stop-color="#171717"/></linearGradient><radialGradient id="bB" cx="18.634" cy="17.486" r="40.693" fy="17.81" fx="18.934" gradientTransform="scale(1.037 .964)" gradientUnits="userSpaceOnUse" xlink:href="#aK"/><linearGradient id="aK"><stop offset="0" stop-color="#cfcfcf"/><stop offset=".379" stop-color="#cecece"/><stop offset="1" stop-color="#171717"/></linearGradient><radialGradient id="bC" cx="18.634" cy="17.486" r="40.693" fy="17.81" fx="18.934" gradientTransform="scale(1.037 .964)" gradientUnits="userSpaceOnUse" xlink:href="#aL"/><linearGradient id="aL"><stop offset="0" stop-color="#cfcfcf"/><stop offset=".379" stop-color="#cecece"/><stop offset="1" stop-color="#171717"/></linearGradient><radialGradient id="bD" cx="18.634" cy="17.486" r="40.693" fy="17.81" fx="18.934" gradientTransform="scale(1.037 .964)" gradientUnits="userSpaceOnUse" xlink:href="#aM"/><linearGradient id="aM"><stop offset="0" stop-color="#cfcfcf"/><stop offset=".379" stop-color="#cecece"/><stop offset="1" stop-color="#171717"/></linearGradient><radialGradient id="bE" cx="18.634" cy="17.486" r="40.693" xlink:href="#aN" gradientTransform="scale(1.037 .964)" fx="18.934" fy="17.81" gradientUnits="userSpaceOnUse"/><linearGradient id="aN"><stop offset="0" stop-color="#cfcfcf"/><stop offset=".379" stop-color="#cecece"/><stop offset="1" stop-color="#171717"/></linearGradient><radialGradient id="bF" cx="15.601" cy="12.142" r="43.527" xlink:href="#aO" gradientTransform="matrix(1.15 0 0 1.15 -4.255 -3.009)" fx="15.601" fy="12.142" gradientUnits="userSpaceOnUse"/><linearGradient id="aO"><stop offset="0" stop-color="#cfcfcf"/><stop offset="1" stop-color="#cfcfcf" stop-opacity=".165"/></linearGradient></defs><g><path fill="url(#aP)" stroke="#4a4a4a" stroke-width="1.15" d="M46.3 24c0 12.32-10 22.3-22.3 22.3-12.32 0-22.3-9.98-22.3-22.3S11.68 1.7 24 1.7c12.3 0 22.3 9.98 22.3 22.3z"/><g fill-opacity=".713"><g><g><path d="M45.67 20.66c0 .3 0 0 0 0l-.6.7c-.4-.45-.8-.82-1.24-1.2l-.95.13-.86-1v1.22l.74.56.5.56.65-.75c.17.3.34.6.5.92v.93l-.74.84-1.35.92-1.02 1.02-.66-.74.33-.84-.66-.74-1.1-2.37-.96-1.07-.25.28.37 1.34.7.8c.4 1.14.78 2.24 1.3 3.34.82 0 1.58-.08 2.4-.2V26l-1 2.42-.9 1.02-.74 1.58c0 .87 0 1.74 0 2.6l.25 1.03-.4.46-.92.57-.94.8.78.87-1.07.94.2.6-1.6 1.8h-1.06l-.9.57h-.58v-.74l-.26-1.48c-.3-.94-.65-1.86-.98-2.8 0-.67.04-1.35.08-2.04l.4-.92-.56-1.12.04-1.53-.78-.88.4-1.27-.65-.73h-1.12l-.37-.4L29 28l-.45-.5-1.03.87c-.7-.8-1.4-1.58-2.1-2.37l-.8-1.95.73-1.1-.4-.48.9-2.14c.73-.92 1.5-1.8 2.3-2.7l1.4-.36 1.55-.2 1.06.3 1.52 1.52.54-.6.74-.1 1.4.46h1.06l.74-.65.33-.45-.75-.47-1.23-.1c-.35-.47-.66-.96-1.07-1.4l-.4.2-.18 1.2-.73-.83-.17-.93-.82-.65h-.33l.82.93-.33.84-.64.18.4-.83-.73-.38-.66-.75-1.23.28-.16.37-.74.47-.4 1-1.04.52-.45-.5h-.5v-1.68l1.07-.56h.82l-.16-.65-.66-.65 1.1-.24.63-.7.5-.83h.9l-.25-.64.57-.37v.73l1.23.28 1.23-1 .1-.48 1.05-.74c-.38.05-.77.08-1.15.2v-.85l.42-.93h-.42l-.9.84-.24.46.23.65-.4 1.12-.67-.37-.57-.65-.9.65-.34-1.5 1.56-1v-.57l.98-.65 1.56-.37 1.07.38 1.97.37-.5.56h-1.06L37 8.63l.83-.93.25-.42s3.15 2.83 4.95 5.9c1.8 3.1 2.64 6.74 2.64 7.48z"/></g></g><g><g><path d="M25.34 7.7l-.1.55.6.37.97-.65-.48-.56-.66.4-.32-.1"/></g></g><g><g><path d="M26.24 3.88l-2.14-.83-2.46.27-3.04.84-.57.56 1.9 1.3v.74l-.75.75.98 1.96.66-.37.82-1.3c1.27-.4 2.4-.85 3.6-1.4l1-2.52"/></g></g><g><g><path d="M28.46 11.7l-.33-.85-.58.2.17 1 .74-.36"/></g></g><g><g><path d="M28.8 11.5l-.18 1.12.9-.2.66-.64-.57-.55c-.2-.52-.4-1-.65-1.5h-.5v.57l.34.37v.83"/></g></g><g><g><path d="M16.63 29.16l-.66-1.3-1.23-.28-.65-1.76-1.66.18-1.4-1.02-1.47 1.3v.2c-.45-.12-1-.14-1.4-.38l-.33-.93v-1.02l-.98.1c.08-.66.16-1.3.25-1.96h-.57l-.57.73-.58.28-.82-.46-.08-1.02.16-1.1 1.23-.94h1l.15-.56 1.24.28.9 1.1.16-1.85 1.56-1.3.58-1.4 1.15-.46.66-.93 1.48-.3.74-1.1c-.74 0-1.48 0-2.22 0l1.4-.65h1l1.38-.47.17-.55-.5-.47-.56-.18.16-.56-.4-.85-1 .37.17-.74-1.15-.65-.9 1.58.08.57-.9.37-.58 1.2-.24-1.1-1.56-.66-.25-.83 2.05-1.2.9-.85.1-1.02-.5-.28-.66-.1-.4 1.03s-.7.13-.88.18C7.93 9.5 3.38 13.98 2.3 22.45c.06.2.78 1.33.78 1.33L4.8 24.8l1.73.46.74.93 1.15.83.66-.1.5.23v.15l-.67 1.77-.48.75.16.37-.4 1.38 1.47 2.7 1.48 1.3.66.93-.1 1.96.5 1.1-.5 2.15s-.03 0 .03.2c.06.23 2.63 1.65 2.8 1.53.16-.12.3-.23.3-.23l-.17-.46.66-.65.24-.67 1.07-.37.82-2.04-.24-.56.58-.84 1.23-.28.67-1.48L19.5 34l1-1.4.16-1.4c-1.35-.66-2.7-1.35-4.03-2.04"/></g></g><g><g><path d="M14.83 8.06l.82.56h.65v-.65l-.82-.37-.65.46"/></g></g><g><g><path d="M12.7 7.32l-.42 1.02h.82l.4-.93c.37-.24.72-.5 1.08-.73l.82.28c.55.37 1.1.74 1.64 1.1l.82-.73-.9-.37-.4-.84-1.57-.17-.1-.47-.73.2-.33.64-.4-.84-.17.37.08.93-.66.56"/></g></g><g><g opacity=".75"><path transform="matrix(1.13 0 0 1.13 -4.115 -2.741)"/></g><g><path transform="matrix(1.13 0 0 1.13 -4.115 -2.741)"/></g></g><g><g opacity=".75"><path transform="matrix(1.13 0 0 1.13 -4.115 -2.741)"/></g><g><path transform="matrix(1.13 0 0 1.13 -4.115 -2.741)"/></g></g><g><g><path d="M15.65 5l.4-.37.83-.2C17.45 4.18 18 4 18.6 3.8l-.32-.57-1.06.16-.5.48-.83.12-.74.35-.36.17-.22.3 1.07.18"/></g></g><g><g><path d="M17.05 13.83l.5-.74-.75-.57.25 1.3"/></g></g></g><g fill="url(#aQ)" transform="matrix(1.13 0 0 1.13 -4.348 -2.974)" color="#000" overflow="visible"><g fill="url(#aR)" overflow="visible"><g fill="url(#aS)" overflow="visible"><path fill="url(#aT)" d="M44.07 20.7c0 .28 0 0 0 0l-.54.63c-.34-.4-.7-.72-1.1-1.07l-.83.12-.76-.86v1.07l.65.48.43.5.58-.66c.16.27.3.55.45.82v.83l-.66.74-1.2.83-.92.9-.58-.66.3-.74-.6-.65-.97-2.1-.84-.95-.23.25.33 1.2.62.7c.35 1 .7 1.98 1.16 2.95.72 0 1.4-.07 2.1-.16v.57l-.86 2.14-.8.9-.66 1.4c0 .78 0 1.54 0 2.3l.22.92-.36.4-.8.5-.84.7.7.78-.95.83.18.54-1.4 1.6h-.95l-.8.5h-.5v-.66l-.23-1.32c-.28-.82-.57-1.64-.87-2.46 0-.6.04-1.2.07-1.8l.37-.84-.52-.98.03-1.36-.68-.78.35-1.13-.56-.63h-.98l-.32-.37-.98.6-.4-.44-.9.78c-.63-.7-1.25-1.4-1.87-2.1l-.72-1.72.65-1-.36-.4.8-1.9c.65-.8 1.34-1.6 2.03-2.38l1.24-.33 1.37-.15.94.24 1.36 1.35.47-.53.65-.1 1.24.42h.95l.65-.57.3-.4-.66-.42-1.1-.1c-.3-.4-.58-.85-.94-1.22l-.36.16-.15 1.06-.64-.74-.15-.82-.7-.57h-.3l.72.82-.3.74-.57.15.36-.74-.64-.32-.58-.65-1.1.24-.14.33-.65.4-.38.92-.9.45-.4-.45h-.44v-1.48l.95-.5h.72l-.14-.57-.57-.58.98-.22.55-.6.44-.75h.8l-.23-.58.5-.33v.66l1.1.25 1.1-.9.06-.42.95-.65c-.35.05-.7.08-1.02.17v-.74l.36-.83h-.36l-.8.74-.22.4.22.58-.36 1-.6-.34-.5-.58-.8.58-.3-1.32 1.4-.9v-.5l.87-.57 1.38-.33.94.33 1.74.33-.44.5h-.94l.94.98.73-.82.22-.37s2.8 2.5 4.38 5.24c1.6 2.74 2.34 5.96 2.34 6.6z" overflow="visible"/></g></g><g fill="url(#aU)" overflow="visible"><g fill="url(#aV)" overflow="visible"><path fill="url(#aW)" d="M26.07 9.24l-.07.5.5.32.88-.58-.44-.5-.58.34-.3-.08" overflow="visible"/></g></g><g fill="url(#aX)" overflow="visible"><g fill="url(#aY)" overflow="visible"><path fill="url(#aZ)" d="M26.87 5.86l-1.9-.74-2.17.25-2.7.74-.5.5 1.67 1.15v.66l-.65.67.87 1.73.57-.33.73-1.15c1.12-.35 2.13-.74 3.2-1.24l.87-2.22" overflow="visible"/></g></g><g fill="url(#ba)" overflow="visible"><g fill="url(#bb)" overflow="visible"><path fill="url(#bc)" d="M28.83 12.77l-.3-.74-.5.17.15.9.65-.33" overflow="visible"/></g></g><g fill="url(#bd)" overflow="visible"><g fill="url(#be)" overflow="visible"><path fill="url(#bf)" d="M29.12 12.6l-.14 1 .8-.17.58-.57-.5-.5c-.18-.45-.38-.88-.6-1.3h-.43v.48l.3.33v.74" overflow="visible"/></g></g><g fill="url(#bg)" overflow="visible"><g fill="url(#bh)" overflow="visible"><path fill="url(#bi)" d="M18.37 28.24l-.6-1.15-1.08-.26-.6-1.56-1.44.16-1.24-.9-1.3 1.15v.17c-.4-.1-.9-.13-1.24-.34l-.3-.83v-.9l-.87.08c.1-.57.16-1.15.23-1.73h-.5l-.5.66-.52.26-.72-.4-.07-.92.15-.98 1.1-.83h.86l.16-.5 1.1.26.8.97.14-1.64 1.38-1.15.5-1.24 1.02-.4.58-.83 1.3-.24.67-1c-.66 0-1.3 0-1.97 0l1.24-.56h.87l1.23-.4.14-.5-.43-.42-.5-.16.13-.5-.36-.74-.86.33.14-.65-1-.57-.8 1.4.06.5-.8.32-.5 1.07-.23-1-1.37-.57-.22-.74 1.83-1.07.8-.75.07-.9-.43-.25-.58-.08-.38.9s-.6.12-.76.16c-2 1.84-6.03 5.8-6.97 13.3.03.18.67 1.2.67 1.2l1.53.9 1.52.4.66.83 1.02.75.58-.08.43.2v.13l-.57 1.56-.43.66.14.33-.36 1.23 1.3 2.4 1.3 1.14.6.82-.08 1.73.44 1-.44 1.88s-.03 0 .02.18c.06.2 2.33 1.45 2.48 1.34.14-.1.27-.2.27-.2l-.15-.4.58-.6.22-.57.94-.33.73-1.8-.23-.5.5-.74 1.1-.25.58-1.3-.14-1.66.88-1.23.15-1.25c-1.2-.6-2.38-1.2-3.57-1.8" overflow="visible"/></g></g><g fill="url(#bj)" overflow="visible"><g fill="url(#bk)" overflow="visible"><path fill="url(#bl)" d="M16.77 9.56l.72.5h.57v-.58l-.72-.33-.58.4" overflow="visible"/></g></g><g fill="url(#bm)" overflow="visible"><g fill="url(#bn)" overflow="visible"><path fill="url(#bo)" d="M14.88 8.9l-.37.9h.74l.36-.8c.32-.23.63-.46.95-.67l.72.25c.5.33.97.66 1.46.98l.73-.65-.8-.32-.37-.74-1.4-.17-.06-.4-.66.16-.3.57-.35-.74-.15.33.08.8-.58.5" overflow="visible"/></g></g><g fill="url(#bp)" overflow="visible"><g fill="url(#bq)" opacity=".75" overflow="visible"><path fill="url(#br)" overflow="visible"/></g><g fill="url(#bs)" overflow="visible"><path fill="url(#bt)" overflow="visible"/></g></g><g fill="url(#bu)" overflow="visible"><g fill="url(#bv)" opacity=".75" overflow="visible"><path fill="url(#bw)" overflow="visible"/></g><g fill="url(#bx)" overflow="visible"><path fill="url(#by)" overflow="visible"/></g></g><g fill="url(#bz)" overflow="visible"><g fill="url(#bA)" overflow="visible"><path fill="url(#bB)" d="M17.5 6.85l.36-.33.72-.16c.5-.25 1-.4 1.53-.58l-.28-.5-.94.14-.44.44-.73.1-.64.3-.32.17-.2.26.95.15" overflow="visible"/></g></g><g fill="url(#bC)" overflow="visible"><g fill="url(#bD)" overflow="visible"><path fill="url(#bE)" d="M18.73 14.67l.43-.66-.65-.48.23 1.15" overflow="visible"/></g></g></g><path fill="none" stroke="url(#bF)" stroke-width="1.15" d="M45.17 24c0 11.7-9.48 21.17-21.17 21.17C12.3 45.17 2.83 35.7 2.83 24 2.83 12.3 12.3 2.83 24 2.83c11.7 0 21.17 9.48 21.17 21.17z"/></g></svg>