<svg xmlns="http://www.w3.org/2000/svg" width="16" height="16" xmlns:xlink="http://www.w3.org/1999/xlink" viewBox="0 0 20.417 22.542" overflow="visible" enable-background="new 0 0 20.417 22.542" version="1"><defs><linearGradient id="c"><stop offset="0" stop-color="#2e3436"/><stop offset="1" stop-color="#2e3436" stop-opacity="0"/></linearGradient><linearGradient id="b"><stop offset="0" stop-color="#fff"/><stop offset="1" stop-color="#fff" stop-opacity="0"/></linearGradient><linearGradient id="a" x1="1.872" x2="16.492" y1="1.25" y2="4.914" gradientTransform="matrix(.813 0 0 2.54 6.423 3.701)" gradientUnits="userSpaceOnUse"><stop offset="0" stop-color="#fff"/><stop offset="1" stop-color="#acada9"/></linearGradient><linearGradient x1="11.668" x2="14.418" y1="10.009" y2="17.051" gradientUnits="userSpaceOnUse"><stop offset="0" stop-color="#545552"/><stop offset="1"/></linearGradient><linearGradient id="e" x1="21.681" x2="8.273" y1="19.057" y2="7.762" xlink:href="#a" gradientUnits="userSpaceOnUse" gradientTransform="matrix(.95 0 0 .95 .175 .272)"/><linearGradient id="f" x1="6.286" x2="3.735" y1="10.058" y2="12.025" xlink:href="#b" gradientUnits="userSpaceOnUse" gradientTransform="translate(.073 -.146)"/><linearGradient id="d" x1="-.062" x2="1.71" y1="17.143" y2="21.439" xlink:href="#c" gradientUnits="userSpaceOnUse" gradientTransform="matrix(.998 -.06 .06 .998 -1.083 -.056)"/></defs><g><path fill="url(#d)" fill-rule="evenodd" d="M-.1 17.4l.78-.93 10.88 1.42 3.1-1.8 5.77 5.26-17.25.37 3.16-1.66L-.1 17.4z" transform="matrix(1.039 0 0 1.039 -.573 -1.186)"/><path fill="url(#e)" fill-rule="evenodd" stroke="#2e3436" stroke-width="1.357" d="M8.62 19.4l12.05-.02V7.2l-3.54 3.3s-3.08-3.4-7.85-3.27C3.8 7.37.2 16.9.2 16.9s5.4-4.48 8.52-4.48c2.94 0 4.15 2.56 4.15 2.56L8.62 19.4z" stroke-linejoin="round" transform="matrix(1.039 0 0 1.039 -.573 -1.186)"/><path fill="none" stroke="url(#f)" stroke-width=".844" d="M11.2 18.32l8.3-.02-.02-8.7-2.26 2.17s-3.96-3.62-7.64-3.5c-3.66.15-6.88 5.66-6.88 5.66s3.06-2.68 6.18-2.68c3.8 0 5.22 3.88 5.22 3.88l-2.9 3.2z" transform="matrix(1.039 0 0 1.039 -.573 -1.186)"/></g></svg>