<svg xmlns="http://www.w3.org/2000/svg" width="16" height="16" xmlns:xlink="http://www.w3.org/1999/xlink"><defs><linearGradient id="a"><stop offset="0" stop-color="#edc195"/><stop offset=".292" stop-color="#d27a23"/><stop offset=".79" stop-color="#d27a23"/><stop offset="1" stop-color="#ad651d"/></linearGradient><linearGradient id="b" x1="8.039" x2="11.385" y1="4.737" y2="7.89" xlink:href="#a" gradientUnits="userSpaceOnUse" gradientTransform="matrix(1.015 0 0 1.015 -.834 -.23)"/><linearGradient id="c" x1="12.021" x2="8.902" y1="6.966" y2="3.971" xlink:href="#a" gradientUnits="userSpaceOnUse" gradientTransform="matrix(.69 0 0 .689 2.446 1.806)"/></defs><g><path fill="#dcdcdc" stroke="#888a85" stroke-width=".5" d="M1.77 10.6l.13 5 5.48-4.72-4.1-1.7z"/><path fill="#fff" d="M2.14 15.02l-.05-1.55 3.6-3.25.55 1.4z"/><path fill="url(#b)" stroke="#914000" stroke-width=".5" d="M3.26 8.4l7.3-7.38c1-1 2.62-1 3.62 0s1 2.62 0 3.62L8 10.9c-1 1-4.1.14-5.1-.86-.65-.64-.1-1.18.36-1.63z" color="#000" stroke-linecap="round" overflow="visible" enable-background="accumulate"/><path fill="none" stroke="#fdd395" stroke-width=".5" d="M2.92 9.27l7.9-7.94c.34-.36.86-.58 1.5-.73" stroke-linecap="round"/><path fill="url(#c)" d="M4.6 8.46L11 1.83c.66-.7 1.77-.68 2.45 0 .68.68.66 1.77 0 2.46l-5.62 5.84c-.67.7-2.8.1-3.48-.57-.44-.44-.05-.8.25-1.1z" color="#000" overflow="visible" enable-background="accumulate"/><path fill="#eeeeec" stroke="#888a85" stroke-width=".50127" d="M8.33 8.4a1.54 1.54 0 1 1-3.1 0 1.54 1.54 0 1 1 3.1 0z" color="#000" stroke-linecap="round" overflow="visible" enable-background="accumulate"/><path fill="none" stroke="#babdb6" stroke-width=".5" d="M5.58 7.96L8 8.8"/></g></svg>