<svg xmlns="http://www.w3.org/2000/svg" width="16" height="16"><g stroke-width="1.6" color="#000" stroke-linecap="round" stroke-linejoin="bevel"><path fill="#fce94f" stroke="#c4a000" stroke-width="0.62" d="M6.53 4a2.5 2.5 0 1 1-5 0 2.5 2.5 0 1 1 5 0z" overflow="visible" enable-background="accumulate"/><path fill="#eeeeec" stroke="#2e3436" stroke-width="0.62" d="M13.48 5.06a2.5 2.5 0 1 1-5 0 2.5 2.5 0 1 1 5 0z" overflow="visible" enable-background="accumulate"/><path fill="#eeeeec" stroke="#2e3436" stroke-width="0.62" d="M7.52 11.05a2.5 2.5 0 1 1-5 0 2.5 2.5 0 1 1 5 0z" overflow="visible" enable-background="accumulate"/><path fill="#eeeeec" stroke="#2e3436" stroke-width="0.62" d="M14.5 12.03a2.5 2.5 0 1 1-5 0 2.5 2.5 0 1 1 5 0z" overflow="visible" enable-background="accumulate"/></g></svg>