<svg xmlns="http://www.w3.org/2000/svg" width="16" height="16" xmlns:xlink="http://www.w3.org/1999/xlink"><defs><linearGradient id="d"><stop offset="0" stop-color="#fff"/><stop offset="1" stop-color="#c5c5be"/></linearGradient><linearGradient id="c"><stop offset="0" stop-color="#fff"/><stop offset="1" stop-color="#aeaea5"/></linearGradient><linearGradient id="b"><stop offset="0" stop-color="#2e3436"/><stop offset="1" stop-color="#2e3436" stop-opacity="0"/></linearGradient><linearGradient id="a"><stop offset="0" stop-color="#636363"/><stop offset="1" stop-color="#313131"/></linearGradient><linearGradient id="f" x1="1.561" x2="8.79" y1="7.56" y2="14.472" xlink:href="#a" gradientUnits="userSpaceOnUse"/><linearGradient id="g" x1="8.059" x2="14.874" y1=".998" y2="8.229" xlink:href="#a" gradientUnits="userSpaceOnUse"/><linearGradient id="i" x1="-.041" x2="-.039" y1="10.185" y2="12.949" xlink:href="#a" gradientUnits="userSpaceOnUse" gradientTransform="matrix(1.107 0 0 1.107 .012 -1.265)"/><linearGradient id="j" x1="8.219" x2="8.282" y1="9.82" y2="12.114" xlink:href="#b" gradientUnits="userSpaceOnUse" gradientTransform="translate(0 .159)"/><linearGradient id="k" x1="8.219" x2="8.282" y1="9.82" y2="12.114" xlink:href="#b" gradientUnits="userSpaceOnUse" gradientTransform="matrix(.07 .998 .998 -.07 -.201 .571)"/><radialGradient id="h" cx="-.033" cy="9.757" r="4.908" xlink:href="#c" fx="-.033" fy="9.757" gradientTransform="matrix(1.46 .017 -.002 .202 .027 9.027)" gradientUnits="userSpaceOnUse"/><radialGradient id="e" cx="3.28" cy="9.471" r="5" xlink:href="#d" fx="3.28" fy="9.471" gradientTransform="translate(0 0)" gradientUnits="userSpaceOnUse"/></defs><g fill-rule="evenodd"><path fill="url(#e)" stroke="url(#f)" stroke-width=".947" d="M8.2 7.8c1.77 1.77 1.77 4.63 0 6.4-1.77 1.77-4.63 1.77-6.4 0-1.77-1.77-1.77-4.63 0-6.4 1.77-1.77 4.63-1.77 6.4 0zM6.8 9.2c.97 1 .97 2.6 0 3.6-1 .97-2.6.97-3.6 0-.97-1-.97-2.6 0-3.6 1-.97 2.6-.97 3.6 0z" color="#000" overflow="visible" enable-background="accumulate"/><path fill="#eeeeec" stroke="url(#g)" stroke-width=".947" d="M14.2 1.8c1.77 1.77 1.77 4.63 0 6.4-1.77 1.77-4.63 1.77-6.4 0-1.77-1.77-1.77-4.63 0-6.4 1.77-1.77 4.63-1.77 6.4 0zm-1.4 1.4c.97 1 .97 2.6 0 3.6-1 .97-2.6.97-3.6 0-.97-1-.97-2.6 0-3.6 1-.97 2.6-.97 3.6 0z" color="#000" overflow="visible" enable-background="accumulate"/><rect width="8.868" height="2.661" x="-4.434" y="9.983" fill="url(#h)" stroke="url(#i)" stroke-width=".947" ry="1.33" transform="rotate(-45.009)" enable-background="accumulate" overflow="visible" color="#000"/><path fill="url(#j)" d="M7.3 10.94L9.13 9.1l.54 2.9-2.48.8.1-1.86z"/><path fill="url(#k)" d="M11.06 7.1l-1.7 1.97 2.92.33.65-2.53-1.87.22z"/></g></svg>