<svg xmlns="http://www.w3.org/2000/svg" width="16" height="16"><title>Artboard</title><desc>Created with Sketch.</desc><g fill="none"><g><path id="Path" fill="#4A90E2" d="M14 8c0 1.1-.27 2.1-.8 3-.54.93-1.27 1.66-2.2 2.2-.9.53-1.9.8-3 .8s-2.1-.27-3-.8c-.93-.54-1.66-1.27-2.2-2.2-.53-.9-.8-1.9-.8-3s.27-2.1.8-3c.54-.93 1.27-1.66 2.2-2.2.9-.53 1.9-.8 3-.8s2.1.27 3 .8c.93.54 1.66 1.27 2.2 2.2.53.9.8 1.9.8 3z"/><path fill="#fff" fill-opacity=".792" d="M12 8.5v-1c0-.14-.05-.25-.15-.35-.1-.1-.2-.15-.35-.15H7.58l1.47-1.48c.1-.1.15-.2.15-.35 0-.13-.05-.25-.15-.35l-.7-.7c-.1-.1-.22-.15-.36-.15-.15 0-.27.05-.36.14L4.1 7.66c-.1.1-.14.2-.14.35 0 .14.05.26.14.35l3.54 3.54c.1.08.2.13.35.13.13 0 .25-.05.34-.14l.7-.72c.1-.1.16-.2.16-.35 0-.14-.05-.26-.15-.35L7.58 9h3.92c.14 0 .25-.05.35-.15.1-.1.15-.2.15-.35z"/></g></g></svg>