<svg xmlns="http://www.w3.org/2000/svg" width="16" height="16"><title>Artboard</title><desc>Created with Sketch.</desc><g fill="none"><g><path id="Path" fill="#FF6868" d="M14 8c0 1.1-.27 2.1-.8 3-.54.93-1.27 1.66-2.2 2.2-.9.53-1.9.8-3 .8s-2.1-.27-3-.8c-.93-.54-1.66-1.27-2.2-2.2-.53-.9-.8-1.9-.8-3s.27-2.1.8-3c.54-.93 1.27-1.66 2.2-2.2.9-.53 1.9-.8 3-.8s2.1.27 3 .8c.93.54 1.66 1.27 2.2 2.2.53.9.8 1.9.8 3z"/><path fill="#000" d="M11.5 8.5v-1c0-.14-.05-.25-.15-.35-.1-.1-.2-.15-.35-.15H5c-.14 0-.25.05-.35.15-.1.1-.15.2-.15.35v1c0 .14.05.25.15.35.1.1.2.15.35.15h6c.14 0 .25-.05.35-.15.1-.1.15-.2.15-.35z"/></g></g></svg>