<svg xmlns="http://www.w3.org/2000/svg" width="16" height="16"><title>Artboard</title><desc>Created with Sketch.</desc><g fill="none"><g><path id="Path" fill="#4A90E2" d="M14 8c0 1.1-.27 2.1-.8 3-.54.93-1.27 1.66-2.2 2.2-.9.53-1.9.8-3 .8s-2.1-.27-3-.8c-.93-.54-1.66-1.27-2.2-2.2-.53-.9-.8-1.9-.8-3s.27-2.1.8-3c.54-.93 1.27-1.66 2.2-2.2.9-.53 1.9-.8 3-.8s2.1.27 3 .8c.93.54 1.66 1.27 2.2 2.2.53.9.8 1.9.8 3z"/><path fill="#fff" fill-opacity=".792" d="M7.48 12.02h1c.14 0 .25-.05.35-.15.1-.1.15-.2.15-.35V7.6l1.48 1.47c.1.1.2.15.35.15.14 0 .26-.05.36-.15l.7-.7c.1-.1.15-.22.15-.36 0-.13-.04-.25-.13-.34L8.33 4.12c-.1-.1-.2-.14-.35-.14-.14 0-.26.05-.35.14L4.1 7.66c-.1.1-.15.2-.15.35 0 .15.05.27.14.36l.7.7c.1.1.2.16.35.16.14 0 .26-.05.35-.15L6.98 7.6v3.92c0 .14.05.25.15.35.1.1.2.15.35.15z"/></g></g></svg>