<svg xmlns="http://www.w3.org/2000/svg" width="16" height="16" xmlns:xlink="http://www.w3.org/1999/xlink"><defs><linearGradient id="d"><stop offset="0" stop-color="#8f7500"/><stop offset="1" stop-color="#4f4100"/></linearGradient><linearGradient id="c"><stop offset="0" stop-color="#745f00"/><stop offset="1" stop-color="#3f3400"/></linearGradient><linearGradient id="b"><stop offset="0" stop-color="#fff38f"/><stop offset="1" stop-color="#ebd200"/></linearGradient><linearGradient id="a"><stop offset="0" stop-color="#fef295"/><stop offset="1" stop-color="#fdf086"/></linearGradient><linearGradient id="e" x1="1" x2="9" y1="1" y2="9.261" xlink:href="#a" gradientUnits="userSpaceOnUse"/><linearGradient id="g" x1="10.357" x2="12.477" y1="10.227" y2="12.66" xlink:href="#b" gradientUnits="userSpaceOnUse"/><linearGradient id="h" x1="10" x2="12.612" y1="10.631" y2="13.381" xlink:href="#c" gradientUnits="userSpaceOnUse"/><linearGradient id="f" x2="8.603" y2="9.572" xlink:href="#d" gradientUnits="userSpaceOnUse"/></defs><g><path fill-opacity=".251" fill-rule="evenodd" d="M1 1h15v10c0 2.3-2.42 5-5.05 5H1V1z" overflow="visible" enable-background="accumulate"/><path fill="url(#e)" fill-rule="evenodd" stroke="url(#f)" stroke-dashoffset=".5" d="M.5.5h14V8l-7.25 6.5H.5V.5z" overflow="visible" enable-background="accumulate"/><path fill="url(#g)" fill-rule="evenodd" stroke="url(#h)" stroke-dashoffset=".5" d="M14.5 7.94C14 13 10.53 14.56 7.03 14.5c1.5-.87 2.63-2.5 2.72-4.87 2.25-.1 3.75.04 4.75-1.7z" overflow="visible" enable-background="accumulate"/><path fill="none" stroke="#000" d="M3 3.5h9"/><path fill="none" stroke="#000" d="M2.94 5.5h7.46"/><path fill="none" stroke="#000" d="M2.8 7.5h5.3"/></g></svg>