<svg xmlns="http://www.w3.org/2000/svg" width="16" height="16" xmlns:xlink="http://www.w3.org/1999/xlink"><defs><linearGradient id="a"><stop offset="0" stop-color="#ff4c4c"/><stop offset="1" stop-color="#f20000"/></linearGradient><linearGradient x1="8" x2="8" y1="4" y2="12" xlink:href="#a" gradientUnits="userSpaceOnUse"/></defs><g><path fill="#eeeeec" stroke="#2e3436" stroke-width=".5" d="M7.9 3.04a1.23 1.23 0 0 0-.17.04 1.23 1.23 0 0 0-.96 1.23v2.47H4.3a1.23 1.23 0 0 0-.1 0 1.23 1.23 0 1 0 .1 2.46h2.47v2.47a1.23 1.23 0 1 0 2.46 0V9.23h2.47a1.23 1.23 0 1 0 0-2.46H9.23V4.3A1.23 1.23 0 0 0 7.9 3.05z" style="text-indent:0;text-align:start;line-height:normal;text-transform:none;block-progression:tb;-inkscape-font-specification:Sans" color="#000" overflow="visible" enable-background="accumulate" font-family="Sans"/></g></svg>