<svg xmlns="http://www.w3.org/2000/svg" width="16" height="16" xmlns:xlink="http://www.w3.org/1999/xlink"><defs><linearGradient id="d"><stop offset="0" stop-color="#5f6c70"/><stop offset="1" stop-color="#4a5457"/></linearGradient><linearGradient id="c"><stop offset="0" stop-color="#535353"/><stop offset=".343" stop-color="#989898"/><stop offset="1" stop-color="#010002"/></linearGradient><linearGradient id="b"><stop offset="0" stop-color="#babdb6"/><stop offset="1" stop-color="#868b7f"/></linearGradient><linearGradient id="a"><stop offset="0" stop-color="#596468"/><stop offset="1" stop-color="#2e3436"/></linearGradient><linearGradient id="e" x1="3.265" x2="14.795" y1="2.438" y2="13.227" xlink:href="#a" gradientUnits="userSpaceOnUse" gradientTransform="matrix(1.072 0 0 1.072 -.446 -.749)"/><linearGradient id="f" x1="10.896" x2="12.23" y1="3.816" y2="5.213" xlink:href="#b" gradientUnits="userSpaceOnUse"/><linearGradient id="g" x1="3.434" x2="5.148" y1="10.982" y2="12.713" xlink:href="#c" gradientUnits="userSpaceOnUse"/><linearGradient id="h" x1="3.935" x2="6.305" y1="9.819" y2="12.272" xlink:href="#d" gradientUnits="userSpaceOnUse"/></defs><g><path fill="#888a85" d="M.5 3.82c.13-.04.36.74.45.83l1.9 1.9 2.1-.67.66-2.1-2.2-2.14.37-1.18 3.25 1.98c1.12 1.12 1.4 2.75.9 4.14.05.05.1.1.16.15l6.33 5.97.92 1.45-.9 1.26c-.75.75-1.95.74-2.7 0L5.8 9c-.06-.04-.1-.1-.16-.16-1.4.53-2.97.18-4.14-.88C.56 7.1.03 5.36.5 3.82z"/><path fill="#eeeeec" stroke="url(#e)" stroke-width=".5" d="M.72 3.9c0-.13.1-.24.22-.28.12-.05.26-.02.35.08l1.9 1.9 2.1-.67.65-2.1-1.9-1.9C3.98.83 3.96.7 4 .58c.05-.13.16-.2.3-.22 1.14-.1 2.27.3 3.08 1.12 1.12 1.12 1.42 2.75.9 4.14.05.05.1.1.16.16l6.33 5.96c.75.76.75 1.97 0 2.7-.74.75-1.94.75-2.7 0l-5.9-6.38c-.07-.06-.12-.1-.16-.17-1.4.5-3.04.22-4.15-.9C1.03 6.18.62 5.06.72 3.9z"/><path fill="#babdb6" stroke="#555753" stroke-width=".5" d="M12.72 13.6c.34.34.9.34 1.24 0 .34-.35.34-.9 0-1.25-.35-.34-.9-.34-1.24 0-.35.35-.35.9 0 1.24z"/><path fill-opacity=".263" d="M7.32 9.64L9.9 6.8l.73.7L8 10.4z"/><path fill="#eeeeec" stroke="url(#f)" stroke-width=".5" d="M5.63 9.64l1.05 1.04 5.8-6.07 2.12-1.08 1.1-2.15L14.67.34l-2.14 1.1-1.1 2.12z"/><path fill="none" stroke="#fff" stroke-width=".5" d="M6.8 9.48l5.2-5.4" stroke-linecap="round"/><path fill="url(#g)" stroke="url(#h)" stroke-width=".5" d="M.87 13.22c-.58.58-.58 1.5 0 2.1.3.28.67.43 1.04.43.4 0 .77-.15 1.06-.44l4.8-4.84-2.1-2.1z"/></g></svg>