<svg xmlns="http://www.w3.org/2000/svg" width="16" height="16" xmlns:xlink="http://www.w3.org/1999/xlink"><defs><linearGradient id="a"><stop offset="0" stop-color="#977a00"/><stop offset="1" stop-color="#493c00"/></linearGradient><linearGradient><stop offset="0" stop-color="#fff"/><stop offset="1" stop-color="#fcffff"/></linearGradient><linearGradient id="b" x1="5.827" x2="12.912" y1="6.704" y2="13.2" xlink:href="#a" gradientUnits="userSpaceOnUse"/></defs><g fill="none"><path stroke="url(#b)" stroke-width=".854" d="M13.5 5.1c.45.77-2.17 2.9-2.28 3.76-.1.88 1.95 3.55 1.36 4.2-.6.64-3.43-1.2-4.3-1.02-.86.17-2.76 2.95-3.56 2.58-.8-.36.07-3.62-.36-4.4C3.93 9.47.7 8.53.8 7.63c.1-.86 3.47-1.04 4.06-1.7.6-.63.5-4 1.38-4.17C7.1 1.57 8.3 4.72 9.1 5.1c.8.36 3.98-.77 4.4 0z" transform="matrix(1.169 .072 -.072 1.169 .126 -1.982)" overflow="visible" enable-background="accumulate"/><path stroke="#fff" stroke-width=".7461" d="M14.54 5.44l-2.96 3.5 1.67 4.58-4.5-1.87-3.68 2.98.23-4.84-3.83-2.6L6.1 6.03l1.28-4.56 2.6 4.17 4.56-.2z" stroke-linejoin="round" overflow="visible" enable-background="accumulate"/></g></svg>