<svg xmlns="http://www.w3.org/2000/svg" width="16" height="16"><g fill-rule="evenodd" transform="translate(0 -1036.362)" color="#000"><rect width="2" height="1" y="1044.375" fill="#fff" ry="0" overflow="visible" enable-background="accumulate"/><rect width="2" height="1" x="12.97" y="1044.397" fill="#fff" ry="0" overflow="visible" enable-background="accumulate"/><rect width="2" height="1" x="-258.217" y="1009.851" fill="#fff" transform="rotate(-15)" ry="0" overflow="visible" enable-background="accumulate"/><rect width="2" height="1" x="-897.297" y="529.066" fill="#fff" ry="0" transform="rotate(-60)" overflow="visible" enable-background="accumulate"/><rect width="2" height="1" x="-1041.361" y="6.996" fill="#fff" transform="rotate(-90)" ry="0" overflow="visible" enable-background="accumulate"/><rect width="2" height="1" x="-272.685" y="1005.974" fill="#fff" ry="0" transform="matrix(-.966 -.259 -.259 .966 0 0)" overflow="visible" enable-background="accumulate"/><rect width="2" height="1" x="-904.641" y="516.214" fill="#fff" transform="matrix(-.5 -.866 -.866 .5 0 0)" ry="0" overflow="visible" enable-background="accumulate"/><rect width="2" height="1" x="282.662" y="-1008.735" fill="#fff" ry="0" transform="matrix(.966 .259 .259 -.966 0 0)" overflow="visible" enable-background="accumulate"/><rect width="2" height="1" x="912.528" y="-515.989" fill="#fff" transform="matrix(.5 .866 .866 -.5 0 0)" ry="0" overflow="visible" enable-background="accumulate"/><rect width="2" height="1" x="268.193" y="-1012.612" fill="#fff" transform="matrix(-.966 .259 -.259 -.966 0 0)" ry="0" overflow="visible" enable-background="accumulate"/><rect width="2" height="1" x="905.107" y="-528.975" fill="#fff" ry="0" transform="matrix(-.5 .866 -.866 -.5 0 0)" overflow="visible" enable-background="accumulate"/><rect width="2" height="1" x="-1050.367" y="6.996" fill="#fff" ry="0" transform="rotate(-90)" overflow="visible" enable-background="accumulate"/><rect width="2" height="1" y="1043.362" fill="#555753" ry="0" overflow="visible" enable-background="accumulate"/><rect width="2" height="1" x="12.97" y="1043.384" fill="#555753" ry="0" overflow="visible" enable-background="accumulate"/><rect width="2" height="1" x="-257.955" y="1008.873" fill="#555753" ry="0" transform="rotate(-15)" overflow="visible" enable-background="accumulate"/><rect width="2" height="1" x="-896.42" y="528.56" fill="#555753" transform="rotate(-60)" ry="0" overflow="visible" enable-background="accumulate"/><rect width="2" height="1" x="-1040.348" y="6.996" fill="#555753" ry="0" transform="rotate(-90)" overflow="visible" enable-background="accumulate"/><rect width="2" height="1" x="-272.423" y="1004.996" fill="#555753" transform="matrix(-.966 -.259 -.259 .966 0 0)" ry="0" overflow="visible" enable-background="accumulate"/><rect width="2" height="1" x="-903.764" y="515.707" fill="#555753" ry="0" transform="matrix(-.5 -.866 -.866 .5 0 0)" overflow="visible" enable-background="accumulate"/><rect width="2" height="1" x="282.399" y="-1007.757" fill="#555753" transform="matrix(.966 .259 .259 -.966 0 0)" ry="0" overflow="visible" enable-background="accumulate"/><rect width="2" height="1" x="911.651" y="-515.483" fill="#555753" ry="0" transform="matrix(.5 .866 .866 -.5 0 0)" overflow="visible" enable-background="accumulate"/><rect width="2" height="1" x="267.931" y="-1011.634" fill="#555753" ry="0" transform="matrix(-.966 .259 -.259 -.966 0 0)" overflow="visible" enable-background="accumulate"/><rect width="2" height="1" x="904.229" y="-528.469" fill="#555753" transform="matrix(-.5 .866 -.866 -.5 0 0)" ry="0" overflow="visible" enable-background="accumulate"/><rect width="2" height="1" x="-1049.354" y="6.996" fill="#555753" transform="rotate(-90)" ry="0" overflow="visible" enable-background="accumulate"/></g></svg>