<svg xmlns="http://www.w3.org/2000/svg" width="16" height="16" xmlns:xlink="http://www.w3.org/1999/xlink"><defs><linearGradient id="c"><stop offset="0" stop-color="#b70000"/><stop offset="1"/></linearGradient><linearGradient id="b"><stop offset="0" stop-color="#cdcdcd"/><stop offset="1" stop-color="#535353"/></linearGradient><linearGradient><stop offset="0"/><stop offset="1" stop-opacity=".203"/></linearGradient><linearGradient id="a"><stop offset="0" stop-color="#3b3b3b"/><stop offset="1" stop-color="#a6a6a6"/></linearGradient><radialGradient id="e" cx="4.667" cy="5.667" r="5" xlink:href="#a" fx="4.667" fy="5.667" gradientUnits="userSpaceOnUse" gradientTransform="matrix(1.667 0 0 2 -3.111 -5.667)"/><radialGradient id="d" cx="7.2" cy="8.271" r="5" xlink:href="#b" fx="7.2" fy="8.271" gradientUnits="userSpaceOnUse" gradientTransform="matrix(1.639 -.031 .031 1.667 -7.802 -7.809)"/><linearGradient id="f" x1="15.857" x2="-1.164" y1="8.46" y2="8.595" xlink:href="#c" gradientUnits="userSpaceOnUse"/></defs><g><path fill-rule="evenodd" d="M12.55 10.1a5 5 0 1 1-10 0 5 5 0 1 1 10 0z" color="#000" overflow="visible" enable-background="accumulate"/><path fill="url(#d)" fill-rule="evenodd" d="M13 9A5 5 0 1 1 3 9a5 5 0 1 1 10 0z" transform="translate(-.45 .09)" color="#000" overflow="visible" enable-background="accumulate"/><path fill="url(#e)" fill-rule="evenodd" d="M13 9A5 5 0 1 1 3 9a5 5 0 1 1 10 0z" transform="matrix(.708 0 0 .708 1.885 2.717)" color="#000" overflow="visible" enable-background="accumulate"/><path fill="url(#f)" fill-rule="evenodd" d="M8 0C3.58 0 0 3.58 0 8c0 .18.02.35.03.53C.27 4.88 3.7 1.77 7.4 1.77c3.88 0 6.42 2.82 6.54 7.3L16 9c0-5-3.58-9-8-9z" color="#000" overflow="visible" enable-background="accumulate"/><path fill="#fff" fill-rule="evenodd" d="M11.18 6.97a1 1 0 1 1-2 0 1 1 0 1 1 2 0z" color="#000" overflow="visible" enable-background="accumulate"/><path fill="#eeeeec" d="M9.64 6.13L7.2 9.23 11 7.68z"/></g></svg>