<svg xmlns="http://www.w3.org/2000/svg" width="16" height="16" xmlns:xlink="http://www.w3.org/1999/xlink" version="1"><defs><linearGradient id="c"><stop offset="0" stop-color="#97978a"/><stop offset=".5" stop-color="#c2c2b9"/><stop offset="1" stop-color="#7d7d6f"/></linearGradient><linearGradient id="b"><stop offset="0" stop-color="#f0f0ef"/><stop offset=".599" stop-color="#e8e8e8"/><stop offset=".828" stop-color="#fff"/><stop offset="1" stop-color="#d8d8d3"/></linearGradient><linearGradient id="a"><stop offset="0" stop-color="#f1f1f1"/><stop offset="1" stop-color="#c1c1c1"/></linearGradient><linearGradient id="d" x1="6.107" x2="33.857" y1="10.451" y2="37.88" xlink:href="#a" gradientUnits="userSpaceOnUse" gradientTransform="matrix(.359 0 0 .34 -1.041 -.013)"/><linearGradient id="e" x1="22.308" x2="35.785" y1="18.992" y2="39.498" xlink:href="#b" gradientUnits="userSpaceOnUse" gradientTransform="matrix(.344 0 0 .299 -.736 1.595)"/><linearGradient id="g" x1="25.405" x2="25.405" y1="3.818" y2="6.481" xlink:href="#c" gradientUnits="userSpaceOnUse" gradientTransform="matrix(.226 0 0 .186 2.494 .289)"/><linearGradient id="f" x1="25.405" x2="25.464" y1="3.818" y2="9.323" xlink:href="#c" gradientUnits="userSpaceOnUse" gradientTransform="matrix(.384 0 0 .412 -1.419 .081)"/></defs><g fill-rule="evenodd"><rect width="13.996" height="13.936" x=".56" y="1.515" fill="url(#d)" stroke="#474747" rx=".498" ry=".471"/><rect width="9.989" height="10.89" x="2.523" y="3.549" fill="url(#e)" stroke="#a0a19d" rx=".183" ry=".171"/><rect width="6.018" height="1.45" x="5.012" fill="#5c5c5c" rx=".493" ry=".357"/><rect width="6.908" height="2.883" x="4.53" y="1.522" fill="url(#f)" stroke="#5c5c5c" ry=".572" rx=".506"/><rect width="4.071" height="1.299" x="6" y=".939" fill="url(#g)" ry=".118" rx=".137"/><path fill="#b0b0b0" d="M4.04 6h7v1h-7z" overflow="visible"/><path fill="#b0b0b0" d="M4.04 8.03h5V9h-5z" overflow="visible"/><path fill="#b0b0b0" d="M4.04 10.03h5.98V11H4.04z" overflow="visible"/><path fill="#b0b0b0" d="M4.04 12H11v1H4.04z" overflow="visible"/></g></svg>