<svg xmlns="http://www.w3.org/2000/svg" width="16" height="16"><title>pin_in copy</title><desc>Created with Sketch.</desc><defs><radialGradient id="b" cx="29.93%" cy="40.55%" r="67.148%" fx="29.93%" fy="40.55%"><stop stop-color="#CFCFCF" offset="0%"/><stop stop-color="#888" offset="100%"/></radialGradient><linearGradient id="a" x1="14.272%" x2="88.876%" y1="17.772%" y2="84.893%"><stop stop-color="#838383" offset="0%"/><stop stop-color="#282828" offset="100%"/></linearGradient><linearGradient id="c" x1="25.686%" x2="55.734%" y1="46.811%" y2="84.647%"><stop stop-color="#1A1A1A" stop-opacity=".431" offset="0%"/><stop stop-opacity="0" offset="100%"/></linearGradient></defs><g fill="none"><g><path fill="url(#b)" stroke="url(#a)" stroke-width="1.409" d="M12.4 9.7c0 2-1.1 3.86-2.86 4.86-1.76 1-3.93 1-5.7 0C2.1 13.56 1 11.7 1 9.7 1 7.67 2.08 5.8 3.85 4.8c1.76-1 3.93-1 5.7 0 1.75 1 2.84 2.86 2.84 4.87z"/><path fill="url(#c)" d="M6 10.38s.87 1.3 1.15 2.2c.1 1.1-.95 3.13-.95 3.13s1.35.3 3.44-1.35c1.7-1.33 2.16-2.7 2.16-2.7l1.16-3.77L8.36 7 6 10.38z"/><path fill="#DADADA" stroke="url(#a)" stroke-width="1.409" d="M15.28 6.3c0 2.45-1.98 4.42-4.43 4.42-2.44 0-4.43-1.97-4.43-4.4 0-2.45 2-4.43 4.43-4.43 2.45 0 4.43 1.97 4.43 4.4z"/><path fill="#fff" d="M5.7 8.58c0 .46-.24.87-.63 1.1-.4.23-.88.23-1.27 0-.4-.23-.63-.64-.63-1.1 0-.45.24-.87.63-1.1.4-.22.88-.22 1.27 0 .4.23.63.65.63 1.1z"/></g></g></svg>