<svg xmlns="http://www.w3.org/2000/svg" width="16" height="16" xmlns:xlink="http://www.w3.org/1999/xlink" viewBox="0 0 20.417 22.542" overflow="visible" enable-background="new 0 0 20.417 22.542" version="1"><defs><linearGradient id="d"><stop offset="0" stop-color="#fff"/><stop offset="1" stop-color="#edd400"/></linearGradient><linearGradient id="b"><stop offset="0" stop-color="#ba9600"/><stop offset="1" stop-color="#4f4000"/></linearGradient><linearGradient id="e"><stop offset="0" stop-color="#422900" stop-opacity=".431"/><stop offset="1" stop-opacity="0"/></linearGradient><linearGradient id="c"><stop offset="0" stop-color="#515151"/><stop offset="1" stop-color="#bcbcbc" stop-opacity="0"/></linearGradient><linearGradient id="a" x1="1.872" x2="16.492" y1="1.25" y2="4.914" gradientUnits="userSpaceOnUse" gradientTransform="matrix(.813 0 0 2.54 6.423 3.701)"><stop offset="0" stop-color="#f2f2f2"/><stop offset="1" stop-color="#edd400"/></linearGradient><radialGradient id="g" cx="4.938" cy="12.716" r="8.069" xlink:href="#a" fx="4.938" fy="12.716" gradientTransform="matrix(1 0 0 1.014 0 -.209)" gradientUnits="userSpaceOnUse"/><linearGradient id="h" x1="5.003" x2="14.134" y1="8.658" y2="21.062" xlink:href="#b" gradientUnits="userSpaceOnUse"/><linearGradient id="f" x1="5.873" x2="12.87" y1="20.003" y2="24.493" xlink:href="#c" gradientUnits="userSpaceOnUse" gradientTransform="matrix(1.126 -.391 .4 .981 -10.825 2.077)"/><linearGradient id="j" x1="11.838" x2="17.388" y1="4.681" y2="12.098" xlink:href="#d" gradientUnits="userSpaceOnUse"/><linearGradient id="i" x1="15.414" x2="17.656" y1="11.067" y2="14.608" xlink:href="#e" gradientUnits="userSpaceOnUse" gradientTransform="translate(-4.308 1.207)"/></defs><g><path fill="url(#f)" fill-rule="evenodd" d="M2.95 19.08l12.86-.3-4.03 5.14-8.82-4.84z" transform="matrix(1.039 0 0 1.039 -.573 -1.186)"/><path fill="#fff" fill-rule="evenodd" stroke="#000" stroke-width=".7051200000000001" d="M6 11.63l-3.45 6.8 6.63-3.93L6 11.63z" stroke-linejoin="bevel"/><path fill="url(#g)" fill-rule="evenodd" stroke="url(#h)" stroke-width="1.722" d="M17.25 14.86a7.64 7.76 0 1 1-15.3 0 7.64 7.76 0 1 1 15.3 0z" transform="matrix(.83 0 0 .807 2.24 -2.211)" stroke-linecap="round"/><path fill="none" stroke="#eeeeec" stroke-width="1.443" d="M19.83 8.4a5.03 5.07 0 1 1-10.07 0 5.03 5.07 0 1 1 10.07 0z" transform="matrix(.98 0 0 .973 -4.287 1.706)" stroke-linecap="round"/><path fill="url(#i)" fill-rule="evenodd" d="M9.2 11.52s.92 1.4 1.23 2.35c.1 1.2-1.02 3.36-1.02 3.36s1.45.32 3.7-1.45c1.8-1.43 2.3-2.92 2.3-2.92l1.25-4.03-4.94-.94-2.5 3.62z" transform="matrix(1.039 0 0 1.039 -.573 -1.186)"/><path fill="url(#j)" fill-rule="evenodd" stroke="#8e7300" stroke-width="1.446" d="M19.83 8.4a5.03 5.07 0 1 1-10.07 0 5.03 5.07 0 1 1 10.07 0z" transform="matrix(.98 0 0 .969 -.059 -2.483)" stroke-linecap="round"/><path fill="#fff" d="M8.8 8.45a1.4 1.4 0 1 1-2.82 0 1.4 1.4 0 1 1 2.82 0z" color="#000" overflow="visible"/><path fill="none" stroke="#eeeeec" stroke-width="2.021" d="M19.83 8.4a5.03 5.07 0 1 1-10.07 0 5.03 5.07 0 1 1 10.07 0z" transform="matrix(.7 0 0 .695 4.084 -.191)" stroke-linecap="round"/></g></svg>