<svg xmlns="http://www.w3.org/2000/svg" width="16" height="16" xmlns:xlink="http://www.w3.org/1999/xlink" version="1"><defs><linearGradient id="d"><stop offset="0" stop-color="#fff"/><stop offset="1" stop-color="#fff" stop-opacity="0"/></linearGradient><linearGradient id="c"><stop offset="0" stop-color="#3d3d3d"/><stop offset="1" stop-color="#626262" stop-opacity="0"/></linearGradient><linearGradient id="b"><stop offset="0" stop-color="#5b5b5b"/><stop offset="1" stop-color="#767676" stop-opacity="0"/></linearGradient><linearGradient id="a"><stop offset="0"/><stop offset="1" stop-opacity="0"/></linearGradient><radialGradient cx="24.837" cy="36.421" r="15.645" xlink:href="#a" fx="24.837" fy="36.421" gradientTransform="matrix(1 0 0 .537 0 16.873)" gradientUnits="userSpaceOnUse"/><linearGradient id="e" x1="26.5" x2="26.25" y1="34.25" y2="43.572" xlink:href="#b" gradientUnits="userSpaceOnUse" gradientTransform="matrix(-.372 0 0 .376 16.661 -.147)"/><linearGradient id="f" x1="26.5" x2="26.25" y1="34.25" y2="43.572" xlink:href="#c" gradientUnits="userSpaceOnUse" gradientTransform="matrix(-.372 0 0 .376 16.661 -.147)"/><radialGradient id="g" cx="15.094" cy="13.283" r="10.165" xlink:href="#d" fx="15.094" fy="13.283" gradientTransform="matrix(-.929 0 0 .865 26.011 -6.851)" gradientUnits="userSpaceOnUse"/></defs><g><path fill="url(#e)" stroke="url(#f)" stroke-width="1.2" d="M13.1 16.8C-1.8 17.3.54 4.47 8.3 4.54V1.03l6.2 5.48-6.2 5.77s0-3.64 0-3.64c-5.23-.22-6.76 8.06 4.8 8.16z" display="block" overflow="visible"/><path fill="none" stroke="#bababa" stroke-width=".7" stroke-miterlimit="10" d="M5.1 14.64c-4.35-2.3-3.04-9.87 3.58-9.7V1.9s5.23 4.6 5.23 4.6L8.7 11.4s0-3.1 0-3.1c-5.52-.14-5.27 4.8-3.57 6.36z" display="block" overflow="visible"/><path fill="url(#g)" fill-rule="evenodd" d="M14.2 6.5l-2.1 2.03c-2.35-.07-1.3-2.4-5.47-3.56l1.84-.23.03-3.26 5.7 5.02z" opacity=".511" overflow="visible"/></g></svg>