<svg xmlns="http://www.w3.org/2000/svg" width="16" height="16" xmlns:xlink="http://www.w3.org/1999/xlink" version="1"><defs><linearGradient id="a"><stop offset="0" stop-color="#ffb434"/><stop offset="1" stop-color="#ff9327"/></linearGradient><linearGradient id="b"><stop offset="0" stop-color="#fff"/><stop offset="1" stop-color="#fff" stop-opacity="0"/></linearGradient><linearGradient><stop offset="0" stop-color="#ff801f"/><stop offset="1" stop-color="#ffd03f"/></linearGradient><linearGradient x1="174.894" x2="249.224" y1="200.774" y2="241.19" xlink:href="#a" gradientUnits="userSpaceOnUse" gradientTransform="translate(-80)"/><linearGradient x1="84.96" x2="12.837" y1="78.89" y2="73.196" xlink:href="#b" gradientUnits="userSpaceOnUse" gradientTransform="translate(78.857 154.076)"/><linearGradient id="d" x1="84.96" x2="12.837" y1="78.89" y2="73.196" xlink:href="#b" gradientUnits="userSpaceOnUse" gradientTransform="matrix(.139 0 0 .139 157.918 264.325)"/><linearGradient id="c" x1="16.105" x2="111.392" y1="27.512" y2="32.21" xlink:href="#b" gradientUnits="userSpaceOnUse" gradientTransform="matrix(.139 0 0 .139 158.653 265.731)"/></defs><g fill-rule="evenodd"><path fill="#d3d7cf" stroke="#2e3436" stroke-width=".557" d="M4.73 2.95C9.35 7.3 9.35 7.3 9.35 7.3l.38-2.25c.92-.02 4.5 2.2 3.06 5.9h2.9c.87-5.05-2.85-8.16-5.53-8.84L10.4.27l-5.67 2.7z" stroke-linecap="round" stroke-linejoin="round"/><path fill="url(#c)" d="M164.77 268.9c3.98-1.88 3.98-1.88 3.98-1.88l-.2 1.45c2.66.5 4.58 2.08 5.62 4.95l-1.03-.05c-2.48-4.28-3.8-3.44-5.47-4.16l.28-1.1-3.18.8z" transform="translate(-158.857 -266.076)"/><path fill="#babdb6" d="M9.3 4.04c-.12.06-.18.2-.2.3-.05.18-.05.37-.1.55-.02.25-.06.52-.1.8-.03.07-.13.02-.17-.04-.14-.16-.3-.32-.45-.47-.16-.17-.32-.33-.48-.5-.05 0-.06.07-.1.1-.1.1-.18.2-.27.3 0 .07.07.08.1.12.25.24.5.46.76.7.06.07.16.08.22.16.12.1.2.2.3.3.07.1.13.2.25.24.14.28.2.02.22-.14.02-.1.03-.22.02-.34 0-.15.02-.3.07-.45.05-.2.08-.4.12-.6.03-.1.03-.28.17-.33.1-.03.17.07.27.1.14.06.28.12.42.2.25.13.5.27.78.4.16.1.32.22.48.34.16.15.33.3.5.44.16.17.3.35.45.53.1.12.18.24.26.37.1.2.17.4.25.62.1.18.15.36.18.55.03.27.07.53.08.8 0 .22.03.46 0 .7 0 .15-.02.3-.05.44 0 .13-.03.25-.06.37.14 0 .28 0 .42.03.07 0 .15.02.22 0 .03-.37.07-.75.1-1.13 0-.16 0-.3-.03-.46 0-.18-.04-.36-.06-.54-.04-.18-.07-.35-.1-.53-.06-.14-.1-.3-.15-.43-.07-.17-.14-.35-.2-.5-.08-.18-.17-.33-.25-.5-.08-.13-.17-.25-.26-.38-.12-.13-.24-.27-.35-.4-.12-.1-.22-.2-.33-.3-.16-.13-.34-.24-.5-.36-.13-.1-.26-.18-.4-.26-.1-.1-.24-.16-.38-.22-.27-.1-.52-.23-.77-.34-.2-.06-.37-.14-.55-.2-.12-.04-.26-.1-.38-.04z"/><path fill="#d3d7cf" stroke="#2e3436" stroke-width=".557" d="M11.37 13.05C6.74 8.7 6.74 8.7 6.74 8.7l-.37 2.24c-.93.03-4.5-2.2-3.06-5.9H.4c-.88 5.06 2.84 8.17 5.52 8.85l-.23 1.84 5.67-2.7z" stroke-linecap="round" stroke-linejoin="round"/><path fill="#babdb6" d="M.62 5.54c-.6 6.1 3.9 7.8 5.6 7.98L6 15.3l4.03-2.06-3.27.8.14-.9c-5.25-.78-5.43-4.37-6.28-7.6z"/><path fill="url(#d)" d="M159.54 271.5c1.32.58 1.32.58 1.32.58-.46 4.92 2.4 5.7 5.4 6.3l.15-1.28 3 2.05.28-.1-3.86-3.67-.37 1.98c-3.73-1.14-4.04-3.2-3.83-5.88l-2.08.03z" transform="translate(-158.857 -266.076)"/></g></svg>