<svg xmlns="http://www.w3.org/2000/svg" width="16" height="16" xmlns:xlink="http://www.w3.org/1999/xlink" version="1"><defs><linearGradient id="f"><stop offset="0" stop-opacity=".703"/><stop offset="1" stop-opacity="0"/></linearGradient><linearGradient id="e"><stop offset="0" stop-color="#fff"/><stop offset="1" stop-color="#fff" stop-opacity="0"/></linearGradient><linearGradient id="d"><stop offset="0" stop-color="#888a85"/><stop offset="1" stop-color="#b8b9b6"/></linearGradient><linearGradient id="c"><stop offset="0"/><stop offset="1" stop-opacity="0"/></linearGradient><linearGradient id="b"><stop offset="0" stop-color="#888a85"/><stop offset="1" stop-color="#888a85" stop-opacity="0"/></linearGradient><radialGradient id="a" cx="9.342" cy="22.614" r="14.152" fx="9.342" fy="22.614" gradientUnits="userSpaceOnUse"><stop offset="0" stop-color="#767676"/><stop offset="1" stop-color="#484848"/></radialGradient><radialGradient id="i" cx="20.656" cy="24.735" r="14.152" fy="24.735" fx="20.656" gradientUnits="userSpaceOnUse" xlink:href="#a" gradientTransform="matrix(.347 0 0 .373 -.237 1.766)"/><linearGradient id="k" x1="46.545" x2="40.82" y1="35.245" y2="34.14" xlink:href="#b" gradientUnits="userSpaceOnUse" gradientTransform="matrix(.307 0 0 .33 .923 .544)"/><radialGradient id="h" cx="23.158" cy="26.964" r="21.567" xlink:href="#c" fx="23.158" fy="26.964" gradientTransform="matrix(1 0 0 .664 0 9.062)" gradientUnits="userSpaceOnUse"/><linearGradient id="j" x1="23.816" x2="29.049" y1="12.75" y2="25.772" xlink:href="#d" gradientUnits="userSpaceOnUse"/><linearGradient id="l" x1="43.688" x2="26.625" y1="32.133" y2="32.133" xlink:href="#e" gradientUnits="userSpaceOnUse" gradientTransform="matrix(.252 0 0 .373 3.529 -.841)"/><radialGradient id="g" cx="25.75" cy="21" r="14.75" xlink:href="#f" fx="25.75" fy="21" gradientTransform="matrix(1 0 0 .559 0 9.254)" gradientUnits="userSpaceOnUse"/></defs><g><path fill="url(#g)" fill-rule="evenodd" d="M40.5 21A14.75 8.25 0 1 1 11 21a14.75 8.25 0 1 1 29.5 0z" transform="matrix(.435 0 0 .575 -4.318 -.639)" overflow="visible"/><path fill="url(#h)" fill-rule="evenodd" d="M44.72 26.96a21.57 14.32 0 1 1-43.13 0 21.57 14.32 0 1 1 43.12 0z" transform="matrix(.347 0 0 .373 -.492 -1.387)" opacity=".703" overflow="visible"/><path fill="#babbb8" fill-rule="evenodd" stroke="#51524f" stroke-width="1.4" d="M40.5 21A14.75 8.25 0 1 1 11 21a14.75 8.25 0 1 1 29.5 0z" transform="matrix(.435 0 0 .575 -4.318 -3.396)" stroke-linecap="round" stroke-linejoin="round" overflow="visible"/><path fill="#555753" fill-rule="evenodd" d="M10.6 7.12a3.9 3.08 0 1 1-7.8 0 3.9 3.08 0 1 1 7.8 0z" overflow="visible"/><path fill="url(#i)" stroke="#3b3d39" d="M15.04 13.7s-2.9-1.4-4.74-1.22c-1.97.18-5.26.3-6.55-1.88 5.48 1.78 8-1.17 11.7.5 0 0-.4 2.6-.4 2.6z"/><path fill="url(#j)" fill-rule="evenodd" stroke="#757972" stroke-width="3.433" d="M40.5 21A14.75 8.25 0 1 1 11 21a14.75 8.25 0 1 1 29.5 0z" transform="matrix(.264 0 0 .368 .086 -1.453)" stroke-linecap="round" stroke-linejoin="round" overflow="visible"/><path fill="#e6e8e4" fill-rule="evenodd" stroke="#5f615d" stroke-width=".6" d="M6.4 1.2C3.07 1.4.46 3.6.46 6.26c0 2.78 2.87 5.04 6.4 5.04 3.55 0 6.43-2.27 6.43-5.05S10.42 1.2 6.88 1.2c0 0-.03 0-.04 0-.1 0-.17 0-.25 0-.05 0-.1 0-.13 0s-.05 0-.08 0zm-.48.82c.02 0 .04 0 .06 0 .05 0 .1 0 .14 0 1 0 1.83.64 1.83 1.4 0 .8-.82 1.4-1.83 1.4-1 0-1.83-.6-1.83-1.4 0-.7.7-1.32 1.62-1.4zm3.98 1.7c.03 0 .05.02.07 0 .04 0 .08 0 .12 0 0 0 0 0 .03 0 1.08 0 1.95.7 1.95 1.52 0 .82-.87 1.5-1.95 1.5-1.07 0-1.95-.68-1.95-1.5 0-.77.76-1.4 1.72-1.5zm-6.66 1.2c.08-.02.16 0 .24 0 1.1 0 2 .68 2 1.53S4.58 8 3.48 8s-2-.7-2-1.55c0-.8.76-1.45 1.76-1.54zm4 1.9s0 0 .02 0c0 0 .02 0 .02 0 .02 0 .04 0 .05 0 .1 0 .17 0 .26 0 1.2 0 2.2.76 2.2 1.7 0 .95-1 1.7-2.2 1.7-1.24 0-2.24-.75-2.24-1.7 0-.85.82-1.57 1.88-1.7z" stroke-linecap="round" stroke-linejoin="round" overflow="visible"/><path fill="url(#k)" fill-rule="evenodd" d="M15.33 11.2l-.37 2.24c-.9-.33-1.45-.58-2.45-.84l.12-1.83c.66-.08 1.7.05 2.7.42z" overflow="visible"/><path fill="url(#l)" fill-rule="evenodd" d="M15.33 11.2l-.12.67c-2.03-1.13-3.83-.42-5.8-.34 2.67-.33 3.55-1.4 5.93-.33z" opacity=".703" overflow="visible"/></g></svg>