<svg xmlns="http://www.w3.org/2000/svg" width="16" height="16" xmlns:xlink="http://www.w3.org/1999/xlink" version="1"><defs><linearGradient id="c"><stop offset="0" stop-color="#97978a"/><stop offset=".5" stop-color="#c2c2b9"/><stop offset="1" stop-color="#7d7d6f"/></linearGradient><linearGradient id="b"><stop offset="0" stop-color="#f0f0ef"/><stop offset=".599" stop-color="#e8e8e8"/><stop offset=".828" stop-color="#fff"/><stop offset="1" stop-color="#d8d8d3"/></linearGradient><linearGradient id="a"><stop offset="0" stop-color="#f1f1f1"/><stop offset="1" stop-color="#c1c1c1"/></linearGradient><linearGradient id="d" x1="6.107" x2="33.857" y1="10.451" y2="37.88" xlink:href="#a" gradientUnits="userSpaceOnUse" gradientTransform="matrix(.359 0 0 .34 -1.041 -.013)"/><linearGradient id="e" x1="22.308" x2="35.785" y1="18.992" y2="39.498" xlink:href="#b" gradientUnits="userSpaceOnUse" gradientTransform="matrix(.344 0 0 .299 -.736 1.595)"/><linearGradient id="g" x1="25.405" x2="25.405" y1="3.818" y2="6.481" xlink:href="#c" gradientUnits="userSpaceOnUse" gradientTransform="matrix(.226 0 0 .186 2.494 .289)"/><linearGradient id="f" x1="25.405" x2="25.464" y1="3.818" y2="9.323" xlink:href="#c" gradientUnits="userSpaceOnUse" gradientTransform="matrix(.384 0 0 .412 -1.419 .081)"/></defs><g><rect width="13.996" height="13.936" x=".56" y="1.515" fill="url(#d)" fill-rule="evenodd" stroke="#474747" rx=".498" ry=".471"/><rect width="9.989" height="10.89" x="2.523" y="3.549" fill="url(#e)" fill-rule="evenodd" stroke="#a0a19d" rx=".183" ry=".171"/><rect width="6.018" height="1.45" x="5.012" fill="#5c5c5c" fill-rule="evenodd" rx=".493" ry=".357"/><rect width="6.908" height="2.883" x="4.53" y="1.522" fill="url(#f)" fill-rule="evenodd" stroke="#5c5c5c" ry=".572" rx=".506"/><rect width="4.071" height="1.299" x="6" y=".939" fill="url(#g)" fill-rule="evenodd" ry=".118" rx=".137"/><path fill="#b0b0b0" fill-rule="evenodd" d="M4.04 6h7v1h-7z" overflow="visible"/><path fill="#b0b0b0" fill-rule="evenodd" d="M4.04 8.03h5V9h-5z" overflow="visible"/><path fill="#b0b0b0" fill-rule="evenodd" d="M4.04 10.03h5.98V11H4.04z" overflow="visible"/><path fill="#b0b0b0" fill-rule="evenodd" d="M4.04 12H11v1H4.04z" overflow="visible"/><g fill="#fff" stroke="#000" stroke-width=".19" style="line-height:125%" font-size="9.835" letter-spacing="0" word-spacing="0" font-family="Sans"><path d="M9.04 9.37c.2.07.38.23.56.48.18.25.36.6.55 1.03l.9 2.12h-.96l-.85-2c-.22-.5-.44-.85-.64-1.02-.2-.17-.48-.26-.83-.26H6.8V13h-.9V5.25H7.9c.76 0 1.32.18 1.7.55.37.37.55.93.55 1.68 0 .5-.1.9-.3 1.22-.18.32-.46.54-.83.67M6.8 6.1v2.76H7.9c.43 0 .76-.1.97-.35.22-.22.33-.57.33-1.02 0-.45-.1-.8-.34-1.02-.22-.23-.55-.35-.98-.35H6.8"/></g><path d="M5.8 5.14V13.1H6.9V9.84h.9c.34 0 .6.1.77.24.2.15.4.47.6.98l.88 2v.06h1.17l-.07-.16-.9-2.1c-.2-.43-.4-.78-.58-1.04-.15-.2-.3-.34-.46-.44.3-.14.56-.3.74-.6.2-.35.32-.8.32-1.3 0-.76-.18-1.36-.58-1.75-.4-.38-1-.56-1.76-.56H5.8zm.18.2h1.94c.74 0 1.3.2 1.65.54.35.35.52.86.52 1.6 0 .46-.12.87-.3 1.17-.18.3-.43.5-.78.6l.03.1-.03.1c.17.08.34.25.52.48.17.24.34.55.52.98l.86 2h-.75L9.33 11c-.22-.52-.43-.9-.66-1.08-.22-.2-.53-.27-.9-.27H6.7V12.9h-.72V5.35zm.8.67v.12H6.7v2.83H7.92c.44 0 .8-.1 1.04-.37.24-.25.35-.64.35-1.1 0-.5-.1-.84-.34-1.1-.24-.25-.6-.37-1.04-.37H6.8zm.1.22h1.04c.42 0 .73.1.92.3.2.2.3.5.3.95 0 .43-.1.76-.3.98-.2.2-.5.3-.92.3H6.88V6.22z" style="text-indent:0;text-align:start;line-height:125%;text-transform:none;block-progression:tb;-inkscape-font-specification:Sans" font-size="9.835" letter-spacing="0" word-spacing="0" color="#000" overflow="visible" enable-background="accumulate" font-family="Sans"/></g></svg>