<svg xmlns="http://www.w3.org/2000/svg" width="16" height="16" xmlns:xlink="http://www.w3.org/1999/xlink" version="1"><defs><radialGradient id="a" cx="17.95" cy="175.731" r="12.523" gradientUnits="userSpaceOnUse" fy="175.731" fx="17.95"><stop offset="0" stop-color="#fff"/><stop offset="1" stop-color="#F5D9D9"/></radialGradient><radialGradient id="b" cx="22.811" cy="169.34" r="14.467" gradientUnits="userSpaceOnUse" fy="169.34" fx="22.811"><stop offset="0" stop-color="#fff"/><stop offset="1" stop-color="#F5D9D9"/></radialGradient><radialGradient id="c" cx="20.141" cy="171.534" r="10.533" gradientUnits="userSpaceOnUse" fy="171.534" fx="20.141"><stop offset="0" stop-color="#fff"/><stop offset="1" stop-color="#F5D9D9"/></radialGradient><radialGradient id="d" cx="18.676" cy="170.998" r="12.647" gradientUnits="userSpaceOnUse" fy="170.998" fx="18.676"><stop offset="0" stop-color="#fff"/><stop offset="1" stop-color="#F5D9D9"/></radialGradient><radialGradient id="e" cx="12.774" cy="172.564" r="9.904" gradientUnits="userSpaceOnUse" fy="172.564" fx="12.774"><stop offset="0" stop-color="#fff"/><stop offset="1" stop-color="#F5D9D9"/></radialGradient><radialGradient id="f" cx="21.608" cy="172.17" r="3.835" gradientUnits="userSpaceOnUse" fy="172.17" fx="21.608"><stop offset="0" stop-color="#fff"/><stop offset="1" stop-color="#F5D9D9"/></radialGradient><radialGradient id="g" cx="20.26" cy="172.94" r="6.674" gradientUnits="userSpaceOnUse" fy="172.94" fx="20.26"><stop offset="0" stop-color="#fff"/><stop offset="1" stop-color="#F5D9D9"/></radialGradient><radialGradient id="h" cx="19.875" cy="178.137" r="6.273" gradientUnits="userSpaceOnUse" fy="178.137" fx="19.875"><stop offset="0" stop-color="#fff"/><stop offset="1" stop-color="#F5D9D9"/></radialGradient><radialGradient id="i" cx="8.127" cy="179.328" r="6.328" gradientUnits="userSpaceOnUse" fy="179.328" fx="8.127"><stop offset=".006" stop-color="#F5CDCD"/><stop offset="1" stop-color="#F4B1B3"/></radialGradient><radialGradient id="j" cx="21.108" cy="170.255" r="11.345" gradientUnits="userSpaceOnUse" fy="170.255" fx="21.108"><stop offset=".006" stop-color="#F5CDCD"/><stop offset="1" stop-color="#F4B1B3"/></radialGradient><linearGradient id="k" x1="30.721" x2="30.361" y1="191.532" y2="189.013" gradientUnits="userSpaceOnUse"><stop offset="0" stop-color="#F79899"/><stop offset=".285" stop-color="#F29596"/><stop offset=".596" stop-color="#E08B8B"/><stop offset=".918" stop-color="#C77B7C"/><stop offset="1" stop-color="#BF7777"/></linearGradient><linearGradient id="n" x1="25.98" x2="27.6" y1="195.272" y2="191.762" gradientUnits="userSpaceOnUse"><stop offset="0" stop-color="#F79899"/><stop offset=".387" stop-color="#F29596"/><stop offset=".809" stop-color="#E28C8C"/><stop offset="1" stop-color="#D88686"/></linearGradient><linearGradient id="l" x1="6.26" x2="15.438" y1="165.928" y2="170.234" gradientUnits="userSpaceOnUse"><stop offset="0" stop-color="#F79899"/><stop offset=".387" stop-color="#F29596"/><stop offset=".809" stop-color="#E28C8C"/><stop offset="1" stop-color="#D88686"/></linearGradient><radialGradient id="m" cx="20.836" cy="192.154" r="25.122" gradientUnits="userSpaceOnUse" fy="192.154" fx="20.836"><stop offset="0" stop-opacity=".804"/><stop offset="1" stop-opacity="0"/></radialGradient><radialGradient id="B" cx="17.95" cy="175.731" r="12.523" xlink:href="#a" gradientUnits="userSpaceOnUse" gradientTransform="matrix(.342 0 0 .341 -.612 -52.292)" fx="17.95" fy="175.731"/><radialGradient id="A" cx="22.811" cy="169.34" r="14.467" xlink:href="#b" gradientUnits="userSpaceOnUse" gradientTransform="matrix(.342 0 0 .341 -.612 -52.292)" fx="22.811" fy="169.34"/><radialGradient id="z" cx="20.141" cy="171.534" r="10.533" xlink:href="#c" gradientUnits="userSpaceOnUse" gradientTransform="matrix(.342 0 0 .341 -.612 -52.292)" fx="20.141" fy="171.534"/><radialGradient id="y" cx="18.676" cy="170.998" r="12.647" xlink:href="#d" gradientUnits="userSpaceOnUse" gradientTransform="matrix(.342 0 0 .341 -.612 -52.292)" fx="18.676" fy="170.998"/><radialGradient id="x" cx="12.774" cy="172.564" r="9.904" xlink:href="#e" gradientUnits="userSpaceOnUse" gradientTransform="matrix(.342 0 0 .341 -.612 -52.292)" fx="12.774" fy="172.564"/><radialGradient id="w" cx="21.608" cy="172.17" r="3.835" xlink:href="#f" gradientUnits="userSpaceOnUse" gradientTransform="matrix(.342 0 0 .341 -.612 -52.292)" fx="21.608" fy="172.17"/><radialGradient id="v" cx="20.26" cy="172.94" r="6.674" xlink:href="#g" gradientUnits="userSpaceOnUse" gradientTransform="matrix(.342 0 0 .341 -.612 -52.292)" fx="20.26" fy="172.94"/><radialGradient id="u" cx="19.875" cy="178.137" r="6.273" xlink:href="#h" gradientUnits="userSpaceOnUse" gradientTransform="matrix(.342 0 0 .341 -.612 -52.292)" fx="19.875" fy="178.137"/><radialGradient id="t" cx="8.127" cy="179.328" r="6.328" xlink:href="#i" gradientUnits="userSpaceOnUse" gradientTransform="matrix(.342 0 0 .341 -.612 -52.292)" fx="8.127" fy="179.328"/><radialGradient id="s" cx="21.108" cy="170.255" r="11.345" xlink:href="#j" gradientUnits="userSpaceOnUse" gradientTransform="matrix(.342 0 0 .341 -.612 -52.292)" fx="21.108" fy="170.255"/><linearGradient id="r" x1="30.721" x2="30.361" y1="191.532" y2="189.013" xlink:href="#k" gradientUnits="userSpaceOnUse" gradientTransform="matrix(.342 0 0 .341 -.612 -52.292)"/><linearGradient id="p" x1="6.26" x2="15.438" y1="165.928" y2="170.234" xlink:href="#l" gradientUnits="userSpaceOnUse" gradientTransform="matrix(.342 0 0 .341 -.612 -52.292)"/><radialGradient id="o" cx="26.126" cy="32.449" r="22.073" xlink:href="#m" gradientUnits="userSpaceOnUse" gradientTransform="matrix(.33 0 0 .205 .163 4.496)" fx="26.126" fy="32.449"/><linearGradient id="q" x1="25.98" x2="27.6" y1="195.272" y2="191.762" xlink:href="#n" gradientUnits="userSpaceOnUse" gradientTransform="matrix(.342 0 0 .341 -.612 -52.292)"/></defs><g><path fill="url(#o)" d="M2.77 10.4c-.8.22-.86 1.18-1.22 1.8-.2 1.07.85 1.76 1.64 2.23.72.42 1.73-.47 2.04.6.83.32 1.73.7 2.66.56.76.26 1.46-.3 2.2-.27.8.2 1.6-.1 2.32-.47.76-.37 1.65-.6 2.17-1.3.57-.7.9-1.53 1.16-2.38 0-.85.73-1.8-.12-2.5-.72-.54-1.57-.94-2.4-1.3-.9-.14-1.75-.53-2.67-.62-1.32-.18-2.77-.32-4 .34-.73.33-1.5.67-2 1.33C4.1 9 3.6 9.53 3.02 10c-.07.1-.14.2-.16.33"/><path fill="#f79899" stroke="#f57e80" stroke-width=".5" d="M7 2.95c.77-.18 1.3-.93 2.02-1.13.67-.08 1.35-.23 2.03-.1 1.18.2 2.44.63 3.18 1.63.9.2 1.46 1.03 1.5 1.9.25.84.2 1.74-.13 2.56-.24.76-.8 1.37-.66 2.17-.6.53-.77 1.35-.83 2.06-.4.8-1.22 1.13-2.07.87-.9 0-1.57 1.13-2.47.62-.7-.58-1.34-1.37-2.4-1.26-.98.05-1.88-.4-2.82-.66-.93-.4-.57-1.56-.74-2.35.06-.93.46-1.8.87-2.63 0-.95.6-1.65 1.13-2.33.36-.55.93-.9 1.4-1.35z"/><path fill="url(#p)" stroke="#f57e80" stroke-width=".5" d="M3.96 11.37c-.43-.7-.28-1.6-.33-2.38.1-.85.47-1.63.84-2.38 0-.95.6-1.65 1.13-2.33.55-.76 1.3-1.28 2.1-1.67.6-.48 1.16-.9 1.9-.87.34.03-.7-.38-.93-.4-1.5-.33-3.05.1-4.25 1-.82.34-1.4.97-2 1.6-.7.63-1.06 1.5-1.63 2.23C.2 6.92.5 7.8.24 8.62c.07 1.12 1 2 2.07 2.26.53.22.96.8 1.64.47z"/><path fill="url(#q)" stroke="#994f51" stroke-width=".5" d="M7.9 12.38c.36.56.73 1.3 1.37 1.5.23.13.5.03.5-.25m-1.98-1.28c-.9-.13-1.8-.08-2.62-.48-.43-.1-.87-.22-1.22-.5m5.9-9.6c.72-.36 1.52.1 2.27.2.86.22 1.5.8 2.16 1.35.9.3 1.4 1.12 1.45 2.05.24.83.15 1.7-.17 2.5-.1.65-.88 1.22-.55 1.88-.47.7-.94 1.38-.92 2.22-.3.9-1.22 1.12-2.04.94-.88-.04-1.43.96-2.3.73m.1-11.85C8.2.94 6.1 1.14 4.62 2.23c-.8.4-1.54.92-2.1 1.63C1.8 4.5 1.4 5.42.8 6.2.2 6.92.5 7.8.24 8.62c.07 1.12 1 2 2.07 2.26.53.22.96.8 1.64.47"/><path fill="#f57e80" stroke="#cb696b" stroke-width=".5" d="M9.76 13.63c-.7-.27-1.02-1.17-1.84-1.24l-.03-.02"/><path fill="none" stroke="#d96f71" stroke-width=".5" d="M7.57 12.22c1.02-.26 2.24-.08 3.04-.9.78-.52 1.54-1.05 2.34-1.53.87-.28 1.15-1.2 1.95-1.55.14-.1.52-.24.47.1"/><path fill="none" stroke="#d96f71" stroke-width=".5" d="M11.63 1.88c.78.4 1.52.98 1.82 1.83.4.85 1.1 1.56 1.3 2.5.1.86-.32 1.67-.6 2.47"/><path fill="#f57e80" d="M8.46 9.3c-.6-.84-1.07-1.97-2.2-2.25-.57-.05-1.42-.4-1.83-.28.54.36 1.34.3 1.96.58.76.3 1.33.9 1.65 1.65.1.14.22.3.4.3z"/><path fill="#e47678" d="M5.83 5.13c.8-.3 2-.22 2.23.8.43.98.92 1.95 1.6 2.8.2.54-.16 2.04-.9 1.42-.73-.52-1.78.15-2.36-.63-.46-.86-1.38-.55-2.12-.4.25-.14 1.55-.78 1.83-.03.53.88 1.7.38 2.45.86.84.5 1.34-.86.8-1.4-.72-.84-1.04-1.92-1.54-2.88-.3-.87-1.47-.36-2-.52l.03-.03z"/><path fill="#e47678" d="M7.58 2.75c.6.14 1.87.63 1.1 1.36-.3.28-1.1.9-.93 1.1.36-.6 1.56-1.1 1.18-1.87-.35-.28-.88-.68-1.35-.58z"/><path fill="#e47678" d="M5.32 4.78c.6-.33 1.65-.68 2.1-.63-.65-.03-.18-.16.07-.4-.68.27-1.35.7-2.05.84-.04.06-.1.12-.13.18z"/><path fill="#e47678" d="M3.7 9.9c.53.83 1.88.3 2.34 1.2-.34-.2-1.26-.57-1.88-.7-.18-.08-.53-.27-.47-.5z"/><path fill="#f57e80" d="M9.36 5.27c-.8.24.47 1.1.23 1.67-.07.3-.6 1.28-.04.54.58-.72-.6-1.66-.2-2.2z"/><path fill="#e47678" d="M9.96 6.7c.53-.42.2-2.02 1.15-1.27.7.1 2.06.7 1.47 1.54-.48.5-1-.07-1.4-.16.05.27.63.56.76.6-.02-.27 1.52-.37.77-1.06-.34-.32-.5-1.43-.66-1.34.2.35.24.96-.3.53-.6-.1-1.6-.6-.74-1.15.43-.85-.72-1.26-1.26-1.65-.32-.26-.68-.4-.17 0 .65.38 1.88 1 1.06 1.84-.25.65-.7 1.56-.67 2.13z"/><path fill="#e47678" d="M8.82 2.02c.4 0 1.2.23 1.32.33-.46 0-.88-.25-1.32-.33z"/><path fill="#e47678" d="M9.84 1.8c.9.08 1.53.73 2.03 1.4.33 0-.47-.7-.66-.86-.38-.28-.87-.55-1.36-.55z"/><path fill="#e47678" d="M12.42 4.47c.9.5 1 1.57 1.04 2.48.26.8.12 1.6.14 2.4-.27-.24.1-1.25-.1-1.78-.26-.76-.12-1.62-.45-2.33-.2-.27-.5-.46-.63-.77z"/><path fill="#e47678" d="M10.56 7.46c-.17.75.58 1.57 1.23.9.24-.18 1.03-.33.36-.06-.65.18-1.75.82-1.23 1.6.5.6-.55-.15-.17-.54.62-.67-.43-1.08-.32-1.75l.05-.07.06-.07z"/><path fill="#f57e80" d="M11.85 9.56c.13.1.35.74-.03.28-.1-.07-.06-.2.03-.28z"/><path fill="#f57e80" d="M12.86 9.16c.03-.4-.6-.35-.1-.04l.1.04z"/><path fill="#d96f71" d="M6.95 11.33c.28.4 1.22.65 1.33.76-.5 0-1.12-.3-1.33-.77z"/><path fill="#e47678" d="M9.22 10.53c-.27.25-.18 1.1-.2 1-.5-.24.08-.7.2-1z"/><path fill="#d96f71" d="M11.06 10.97c-.33.2-1.48-.3-.58.1.23.13.4.14.58-.1z"/><path fill="#d96f71" d="M3.6 9.6c-.72.57-1.7 0-2.47-.15-.17-.23.8.24 1.06.2.45.37 1.42-.27 1.4-.2v.15z"/><path fill="#e47678" d="M.5 7.86c.55-.8 1.28.44 1.47.7C2.1 7.8.95 7.46.44 7.52c-.25-.18.13.28.06.34z"/><path fill="#e47678" d="M.75 6.63c.35-.76 1.16-.38 1.74-.24.42.04 1.66-.18 1.58.1-.8.03-1.6-.13-2.4-.2-.4-.2-1.1.57-1.1.48l.1-.1.07-.05z"/><path fill="#d96f71" d="M5.04 4.96C4.2 4.8 4.6 3.3 3.78 3.46c-.37.08.64.04.37.48-.1.6.67.83.83 1.16l.06-.14z"/><path fill="#cb686a" d="M5.08 3.14c.3.02 1.3 1.1.52.62-.2-.2-.34-.42-.52-.62z"/><path fill="#cb686a" d="M7.22 2.84c-.5-.5-1.9-.47-2-.27.7-.27 1.37.15 2 .27z"/><path fill="#d96f71" d="M3.33 3.5c-.54.4.8 1 .06 1.25.57-.4-.74-.86-.07-1.26z"/><path fill="#d96f71" d="M2 4.85c.18-.45 1.35-.48 1.05-.95-.08.52-.88.35-1.04.95z"/><path fill="#cb696b" d="M9.1 1.73c-.88-.3-1.86-.37-2.77-.18-.4.08-.65.3-.07.24.7-.12 1.55.18 2 .33-.33-.6-1.53-.16-2.16-.46.8-.33 1.7-.15 2.55-.03.42 0 .05.64.37.15l.07-.07z"/><path fill="#f57e80" d="M4.65 2.24c.6-.03.2-.28 0 0z"/><path fill="#f57e80" d="M14.36 6.33c.3.2.32 1.48.15.6 0-.2-.13-.4-.14-.6z"/><path fill="#f57e80" d="M13.6 4.53c-.33.03-.03.45 0 0z"/><path fill="#e47678" d="M14.44 3.5c.13.52.53 1.05.5 1.66.35.55.55 1.55.67 1.92-.03-.82-.48-1.52-.63-2.32-.03-.5-.4-.84-.53-1.26z"/><path fill="#e47678" d="M15.14 4.05c.14.26.7 1.2.47 1.06-.2-.3-.32-.7-.46-1.05z"/><path fill="#f57e80" d="M15.52 8.08c-.3-.3-1.2.55-.48.13.2-.34.4.38.48-.12z"/><path fill="#d96f71" d="M14.08 11.4c-.3.48-1.1.6-1.36 1.2-.3.2-1 .4-.3.04.6-.38 1-.97 1.66-1.25z"/><path fill="#d96f71" d="M12.6 11.85c.85-.04-1.24.66-.27.18.1-.07.17-.14.27-.18z"/><path fill="#d96f71" d="M13.4 10.65c-.5.6-1.32.82-1.9 1.33-.65.66.42-.17.64-.3.44-.3 1-.54 1.27-1.03z"/><path fill="#d96f71" d="M14.87 9.36c-.18.48.1.44 0 0z"/><path fill="#d96f71" d="M14.63 8.98c-.03.74-.37 1.28-.92 1.68-.48-.07.47-.24.5-.62.35-.28.25-.73.43-1.06z"/><path fill="url(#r)" d="M11.74 10.6c-.6.5-1.22 1-1.8 1.48-.7-.1-.6.62-.98.83-.4-.26-.88-.5-1.27-.67.74-.3 1.63-.08 2.34-.52.6-.33 1.07-.82 1.7-1.1z"/><path fill="#d96f71" d="M10.17 12.42c.27-.1.07.45-.02.42-.1.54-.17-.38.02-.42z"/><path fill="url(#s)" d="M4.23 8.93c.72-.24 1.75-.7 2.1.3.64.62 1.57.08 2.28.42.95.57.96-1.06.32-1.4-.68-.75-.76-1.8-1.28-2.63-.42-.8-1.83.12-2.05-.4.58-.68 1.6.1 2.18-.43.18-.62.98-.68 1.08-1.2-.36-.5-1.1-.3-1.46-.68-.5.35-1.13.64-1.47 1.18-.02.64.93-.3 1.3-.33.36-.14.47-.22.32.18.14.72-1.07.13-1.45.57-.8.24-1.43 1.18-1.2 2 .77.35 1.8.27 2.4 1 .44.46 1.13 1.42 1.04 1.8-.62-.5-.8-1.4-1.64-1.72-.77-.15-2.06-.98-2.52 0-.06.8-.76 1.95.14 2.47.7.3 2.04.03 1.9 1.2-.7-.05-1.34-.76-2.13-.76-.66.1.2 1.15.72 1.05.83-.07 1.5 1.07 2.3.45.1-.35-.8-.45-.17-.75.38.02.44.52.78.07-.14.82 1.74.74 1 .06 0-.3.56-1.24-.35-1.18-.8-.07-1.7-.1-2.24-.82-.58-.75-1.38-.04-2.1-.16-.16-.1.12-.24.2-.3z"/><path fill="#f4b1b3" d="M9.36 10.65c-.86.58.92 1.15.65.57-.67-.05-.38-1.2.2-.54.43.45 1.43-.25.58-.56-.68-.52.64-1.45-.37-1.84-.4-.35.22-1.33.36-.68-.23 1 1.02.95 1.5.42.53-.47.5.18.06.32-.1.52 1.18.48.46.88-.43-.3-.8-.94-1.4-.43-.7.35-.22 1.52.3 1.64.46-.1-.17-1.4.44-.8.5.6 1.6-.4 1.32-1.07.3-.8-.33-2.28-1.14-1.2-.45.56-.7-.13-1.13-.23-.36-.48.22-.68.46-.24.83.65 1.45-.8.47-1.05-.54.04-1.17-.8-1.57-.4 0 .83-.6 1.4-1 2.1-.4.77.8 1.42.1 2.23-.1.28-.24.56-.27.87z"/><path fill="#f4b1b3" d="M9.18 7.66c.78-.76-.55-1.72-.08-2.46.54-.07.07.57.42.85.17.33.3 1.17.38.35-.04-.97.8-1.67.9-2.53-.22-.78-1.45-.82-1.57-1.52.62.45 1.38.8 1.98 1.3.58.63-.75 1-.35 1.46.42.3 1.53.64 1.1-.2.4-.4.28.84.55 1.08.28.73 1 .28.63-.35-.04-.5-1.07-.88-.67-1.3.25.3.85 1.1.95.26.47-.4.27.3 0 .45-.1.78.12 1.58.25 2.34.28.5-.14 1.4.1 1.7.42-.66.78-1.44.67-2.24-.18-.3-.15-1 .13-.42.18.94.2-.5-.07-.75-.4-.82-.9-1.58-1.3-2.38-.58-.9-1.6-1.43-2.63-1.6-.52.16.97.3.96.82.3.12.9 1.07.26.6-.58-.57-1.16-1.25-2.03-1.28-.32-.2-1.05.1-.35.22.34 0 1.4.37.53.3-.55-.2-1.9-.56-1.82.38.55.25 1.62.7.77 1.35-.7.5-1.28 1.28-.62 2.06.23.43.43 1.46.95 1.5z"/><path fill="#f4b1b3" d="M12.52 2.26c.83.12 1.33.82 1.76 1.44.08.8.53 1.43.87 2.14.4.82.16 2-.64 2.5-.17-.47.6-1.44.3-2.16-.2-.94-.94-1.65-1.25-2.55-.13-.6-.83-.93-1.03-1.37z"/><path fill="#f4b1b3" d="M14.75 3.8c.6.75.85 1.77 1.06 2.67.03.4-.24.62-.2.08-.36-.87-.56-1.8-.85-2.66v-.1z"/><path fill="#f4b1b3" d="M9.58 12.22c.87.24 1.12-1.1 1.87-1.18.56-.77 1.55-1.05 2.3-1.6.4-.33.92-1.43 1.45-1.03.04.42-.3.84-.53.48-.5.38-.25 1.3-1 1.46-.57.64-1.43.8-2 1.4-.6.17-.66 1.6-1.3.9-.12-1-.85.67.02.66-.48.82-1.72-.4-.93-1l.1-.08z"/><path fill="#f4b1b3" d="M12.3 11.62c.68-.4 1.45-.78 1.96-1.38.1.78-.9 1-1.22 1.5-.58-.26-1.45.94-1.6.58.25-.27.6-.44.85-.7z"/><path fill="url(#t)" d="M.6 7.14c.3-.9 1.34-.77 2.07-.65.53-.1 1.67-.02 1.03.76-.42.8-.08 2.48-1.38 2.35-.47.14-1.32-.64-1.47-.18.47.5 1.36.33 2 .43.76.06.26.98.67 1.4-.68-.16-1.47-.5-2.12-.88C.64 9.93.2 8.95.45 8.1c.48-.92 1.3.22 1.55.5.12-.56-.8-1.3-1.35-1.02C.4 7.56.4 7.26.6 7.14z"/><path fill="#f4b1b3" d="M1.34 5.85c.15-.78 1.14-1.16 1.73-1.5.58-.13.03.83.6.38.25-.5-.86-1.2.1-1.17.42.26.16.96.77 1.16.5.36-.28.63-.24 1.1-.4.76-1.4.56-2.08.4-.3-.1-.6-.22-.88-.37z"/><path fill="#f4b1b3" d="M2.18 4.4c.08-.34 1.12-.9.6-.27-.2.05-.4.33-.6.28z"/><path fill="#f4b1b3" d="M4.92 4.7c.6-.4.42-1.2.14-1.63.3-.17.92.93.97.04 0-.28 1.04 0 .45-.44-.78-.2-2.03 0-2.08 1-.02.4.12.87.52 1.05z"/><path fill="#f4b1b3" d="M3.68 3.32c.1-.4 1.1-.85 1.12-.6-.37.2-.6 1-1.12.6z"/><path fill="#f4b1b3" d="M4.88 2.36c.72-.3 1.93-.7 2.48-.14-.2.7-1.14 0-1.64.17-.28 0-.57.07-.84-.04z"/><path fill="#f4b1b3" d="M8.05 1.84c.28-.48-.95-.23-1.26-.3-.72.07-.35.22.1.2.4.02.77.07 1.15.1z"/><path fill="#f4b1b3" d="M5.16 2c.27-.35 1.46-.13.47-.03-.1 0-.5.18-.47.04z"/><path fill="#f79899" d="M9.07 1.58c-.53-.3-1.84-.32-1.97-.2.63 0 1.53.2 1.97.2z"/><path fill="#f4b1b3" d="M3.05 3.47c.36-.45 1.25-1.18 1.68-.94-.9-.16-.9 1.1-1.68.94z"/><path fill="#f5d9d9" d="M10.54 7.3c-.9.4.46 1.56-.4 2.1-.03.37 1.1 1.28.2 1.05-.67.02-.96-.62-.38-1.04.3-.76-.92-1.37-.16-2.12.3-.53.82-1.03.8-1.7.48-.4 1.2.37 1.72.54.44.8-.7 1.02-.96.32-.6-.02-.77.97-.03.87.35.44.84.7 1.12.03.66-.55 1.15.26.84.86.1.28.18 1.28-.17.96.2-.54-.95-.6-.36-1.03.04-1.07-.87.3-1.42.03-.7.02-.2-.94-.8-.87z"/><path fill="#f5d9d9" d="M11.14 9.34c-.03.62.6.5.77.02.3.47 1.58.1.65-.08-.26-.65-1.16-.74-1.4-.03v.1z"/><path fill="url(#u)" d="M8.68 10.46c.07.4-.23.97-.28 1.25-.56-.1-.87-.8-1.55-.62-.67-.5-1.2-1.22-2.14-1.13-1.08-.5.7-1.16 1.14-.6.63.54 1.38.95 2.23 1 .2.05.4.08.6.1z"/><path fill="url(#v)" d="M4.73 7.54c1.12-.3 2.4.2 3 1.2.44.3.45.9-.23.66-.9-.15-1.56-1.38-2.56-.83-.76.44-1.1-.5-.46-.9l.12-.08.13-.06z"/><path fill="url(#w)" d="M7.42 5.5c.53.72.67 1.65 1.2 2.36.32.32 1.04 1.53.16 1.4-.9-.6-.94-1.98-1.97-2.4-.87.13-2.43-.8-1-1.34.52-.1 1.12-.17 1.62 0z"/><path fill="url(#x)" d="M1.83 6.8c.83-.26 2.02.3 1.5 1.3.07.92-.86 1.48-1.67 1.08-.5 0-1.12-1.34-.38-1.05.24.32.8 1.04.94.23C2.5 7.6.77 7.4 1.34 6.8c.16-.05.33-.03.5 0z"/><path fill="url(#y)" d="M2.22 5.07c.26-.54.93-.7 1.2-.1.47.07.22-1.24.7-.48.72.42-.1 1.5-.53 1.72-.64.18-2-.25-1.54-1.05l.08-.05.08-.05z"/><path fill="url(#z)" d="M4.97 2.94c-.02.5.57 1.6-.15 1.66-.5-.4-.6-1.48.15-1.66z"/><path fill="#f5d9d9" d="M1.7 9.85c.53.08 1.8.12 1.25.96-.35-.2-1.74-.43-1.25-.95z"/><path fill="#f5d9d9" d="M14 9.35c-.25.83-.94 1.33-1.67 1.6-.67.45-1.12 1.27-1.65 1.75-.72-.38.27-1.22.74-1.33.5-.56.97-1.15 1.65-1.5.3-.17.6-.35.93-.52z"/><path fill="url(#A)" d="M5.56 2.23c.38-.24 1.83-.25 1.32.24-.2-.23-1.72-.02-1.32-.24z"/><path fill="#f5d9d9" d="M5.4 2.8c.6-.6.85.77.15.48-.13-.1-.33-.34-.16-.5z"/><path fill="#f5d9d9" d="M8.07 1.64c-.4-.1-1.63 0-.64.08.15-.03.73.28.64-.08z"/><path fill="#f5d9d9" d="M8.64 2.3c.48.7 1.52.73 1.98 1.44.23.8-1.16.6-.67 1.38.1.43-.14 1.8-.43.8-.05-.44.17-1.14-.53-.82-.53.62.4 1.27.3 1.95-.1 1.1-.84-.25-.94-.7-.35-.67-.42-1.3.23-1.8.16-.44 1.15-.92.86-1.26-.37-.22-2.18-.68-.82-1z"/><path fill="#f5d9d9" d="M10.72 4.95c.47-.37 1.22-1 .4-1.52-.37-.34-1.46-.55-1.4-.98.4-.06 1 .48 1.24.32-.3-.2-.72-.9-.05-.43.3.36.97 1.66 1.38.9-.4-.48-1.04-.84-1.3-1.34 1.08.27 1.98 1.1 2.42 2.1.06.4-.38 1.16-.54.4-.45-.86-1.44.46-.9.97-.4.04-.9-.2-1.24-.42z"/><path fill="#f5d9d9" d="M12.34 4.93c.58-.02 1.12 1.44.44 1.25-.27-.32-.5-.9-.44-1.25z"/><path fill="#f5d9d9" d="M13.42 5.14c.73-.65 1.06.85.72 1.23.3.76.17 1.93-.38 2.43.2-.88-.14-1.67-.26-2.53-.04-.38-.06-.76-.08-1.13z"/><path fill="#f5d9d9" d="M13.05 2.66c.92.3 1.13 1.25 1.4 2 .46.73 1 1.56.68 2.45.1.45-.75 1.3-.4.43.4-.98.03-2-.55-2.8-.35-.7-.76-1.43-1.13-2.07z"/><path fill="#f5d9d9" d="M7.27 2.97c.43 0 .54.64 1.05.35.76.05.25.85-.23.86-.23.58-.74 1.02-1.35.64-.27.04-1.5.4-.92-.1.6-.45 2.26 0 1.8-1.2-.58-.04-1.06.78-1.7.68.36-.5.98-.73 1.34-1.23z"/><path fill="url(#B)" d="M3.94 10.6c.87-.03 1.5.6 2.2 1 .3.1.97.54.22.44-.66-.65-1.96-.25-2.38-1.16-.03-.08-.1-.2-.04-.3z"/><path fill="none" stroke="#cb696b" stroke-width=".5" d="M3.96 11.37c-.43-.7-.28-1.6-.33-2.38.1-.85.47-1.63.84-2.38 0-.95.6-1.65 1.13-2.33.55-.76 1.3-1.28 2.1-1.67.6-.53 1.35-.98 2.15-.85"/><path fill="none" stroke="#cb696b" stroke-width=".5" d="M9.76 13.63c-.73-.3-1.08-1.22-1.93-1.27H7.8"/><path fill="none" stroke="#d97072" stroke-width=".5" d="M3.96 11.37c-.43-.7-.28-1.6-.33-2.38.1-.85.47-1.63.84-2.38 0-.95.6-1.65 1.13-2.33.55-.76 1.3-1.28 2.1-1.67.6-.53 1.35-.98 2.15-.85"/></g></svg>