<svg xmlns="http://www.w3.org/2000/svg" width="16" height="16"><g fill-rule="evenodd"><path fill-opacity=".627" d="M1 16L16 1v1L2 16H1z"/><path fill="#fff" fill-opacity=".627" d="M2 16L16 2v1L3 16H2z"/><path fill-opacity=".376" d="M16 1L1 16H0L16 0v1z"/><path fill-opacity=".627" d="M6 16L16 6v1l-9 9H6z"/><path fill="#fff" fill-opacity=".627" d="M7 16l9-9v1l-8 8H7z"/><path fill-opacity=".376" d="M16 6L6 16H5L16 5v1z"/><path fill-opacity=".627" d="M11 16l5-5v1l-4 4h-1z"/><path fill="#fff" fill-opacity=".627" d="M12 16l4-4v1l-3 3h-1z"/><path fill-opacity=".376" d="M16 11l-5 5h-1l6-6v1z"/></g></svg>