<svg xmlns="http://www.w3.org/2000/svg" width="16" height="16" xmlns:xlink="http://www.w3.org/1999/xlink"><defs><linearGradient x1="2.107" x2="45.893" y1="14.571" y2="30.714" xlink:href="#a" gradientUnits="userSpaceOnUse" gradientTransform="matrix(.819 .248 -.248 .819 62.133 5.142)"/><linearGradient id="a"><stop offset="0" stop-color="#fff"/><stop offset="1" stop-color="#d3d7cf"/></linearGradient><linearGradient x1="14.59" x2="43.711" y1="6.638" y2="36.638" xlink:href="#b" gradientUnits="userSpaceOnUse" gradientTransform="matrix(.83 .094 -.094 .83 57.783 9.011)"/><linearGradient id="b"><stop offset="0" stop-color="#686a65"/><stop offset="1" stop-color="#3c3c3c"/></linearGradient><linearGradient x1="19.011" x2="54.218" y1="25.521" y2="40.471" xlink:href="#c" gradientUnits="userSpaceOnUse" gradientTransform="matrix(.83 .094 -.094 .83 -19.436 -30.909)"/><linearGradient id="c"><stop offset="0" stop-color="#a6c2e1"/><stop offset="1" stop-color="#336397"/></linearGradient><linearGradient x1="2.107" x2="45.893" y1="14.571" y2="30.714" gradientTransform="matrix(.819 .248 -.248 .819 -4.879 -24.255)" gradientUnits="userSpaceOnUse" xlink:href="#a"/><linearGradient x1="14.59" x2="43.711" y1="6.638" y2="36.638" gradientTransform="matrix(.83 .094 -.094 .83 -9.23 -20.386)" gradientUnits="userSpaceOnUse" xlink:href="#b"/><radialGradient cx="23.202" cy="27.096" r="23.555" gradientUnits="userSpaceOnUse" gradientTransform="matrix(1 0 0 .651 0 9.456)" fy="27.096" fx="23.202" xlink:href="#d"/><linearGradient id="d"><stop offset="0"/><stop offset="1" stop-opacity="0"/></linearGradient><linearGradient id="i" x1="7.605" x2="36.183" y1="28.481" y2="40.944" gradientUnits="userSpaceOnUse" xlink:href="#e" gradientTransform="matrix(.355 0 0 .355 -.382 1.5)"/><linearGradient id="e"><stop offset="0" stop-color="#bbb"/><stop offset="1" stop-color="#9f9f9f"/></linearGradient><radialGradient id="j" cx="15.571" cy="2.959" r="20.936" gradientUnits="userSpaceOnUse" gradientTransform="matrix(.457 .278 -.252 .415 -1.218 -.232)" fy="2.959" fx="15.571" xlink:href="#f"/><linearGradient id="f"><stop offset="0" stop-color="#e4e4e4"/><stop offset="1" stop-color="#c3c3c3"/></linearGradient><linearGradient id="k" x1="12.378" x2="44.096" y1="4.433" y2="47.621" gradientUnits="userSpaceOnUse" xlink:href="#g" gradientTransform="matrix(.355 0 0 .355 -.382 1.5)"/><linearGradient id="g"><stop offset="0" stop-color="#fff"/><stop offset="1" stop-color="#fff" stop-opacity="0"/></linearGradient><radialGradient id="h" cx="23.202" cy="27.096" r="23.555" fy="27.096" fx="23.202" gradientTransform="matrix(1 0 0 .651 0 9.456)" gradientUnits="userSpaceOnUse" xlink:href="#d"/><linearGradient x1="2.107" x2="45.893" y1="14.571" y2="30.714" xlink:href="#a" gradientUnits="userSpaceOnUse" gradientTransform="matrix(.819 .248 -.248 .819 -4.879 -24.255)"/><linearGradient x1="14.59" x2="43.711" y1="6.638" y2="36.638" xlink:href="#b" gradientUnits="userSpaceOnUse" gradientTransform="matrix(.83 .094 -.094 .83 -9.23 -20.386)"/><linearGradient x1="19.011" x2="54.218" y1="25.521" y2="40.471" xlink:href="#c" gradientUnits="userSpaceOnUse" gradientTransform="matrix(.83 .094 -.094 .83 -19.436 -30.909)"/><linearGradient x1="19.011" x2="54.218" y1="25.521" y2="40.471" xlink:href="#c" gradientUnits="userSpaceOnUse" gradientTransform="matrix(.287 .032 -.032 .288 -1.04 -9.724)"/><linearGradient x1="2.107" x2="45.893" y1="14.571" y2="30.714" xlink:href="#a" gradientUnits="userSpaceOnUse" gradientTransform="matrix(.301 .091 -.091 .301 3.671 -7.834)"/><linearGradient x1="14.59" x2="43.711" y1="6.638" y2="36.638" xlink:href="#b" gradientUnits="userSpaceOnUse" gradientTransform="matrix(.305 .034 -.034 .305 2.073 -6.414)"/><linearGradient id="n" x1="19.011" x2="54.218" y1="25.521" y2="40.471" xlink:href="#c" gradientUnits="userSpaceOnUse" gradientTransform="matrix(.212 .024 -.024 .212 1.339 -2.847)"/><linearGradient id="l" x1="2.107" x2="45.893" y1="14.571" y2="30.714" xlink:href="#a" gradientUnits="userSpaceOnUse" gradientTransform="matrix(.233 .071 -.071 .234 4.623 -1.801)"/><linearGradient id="m" x1="14.59" x2="43.711" y1="6.638" y2="36.638" xlink:href="#b" gradientUnits="userSpaceOnUse" gradientTransform="matrix(.237 .027 -.027 .237 3.383 -.697)"/></defs><g><path fill="url(#h)" fill-rule="evenodd" d="M46.76 27.1a23.56 15.34 0 1 1-47.1 0 23.56 15.34 0 1 1 47.1 0z" transform="matrix(.374 0 0 .129 -.564 11.046)" opacity=".56" color="#000" overflow="visible"/><path fill="none" stroke="#555753" d="M3.55 4.25c-.22 0-.37.1-.46.3 0 0-2.34 6.18-2.34 6.18s-.1.24-.1.64c0 0 0 3.48 0 3.48 0 .4.24.6.6.6h13.9c.37 0 .6-.27.6-.67v-3.5s.03-.27-.05-.46l-2.4-6.2c-.08-.2-.24-.37-.4-.37H3.54z" stroke-linejoin="round"/><path fill="url(#i)" fill-rule="evenodd" d="M.78 11.1l.27-.25 13.36.02 1.24.1v3.72c0 .4-.22.64-.57.64H1.37c-.35 0-.6-.2-.6-.57V11.1z"/><path fill="url(#j)" fill-rule="evenodd" d="M.88 10.7c-.26.53 0 .86.37.86 0 0 13.85 0 13.85 0 .4 0 .65-.36.5-.76l-2.38-6.12c-.07-.18-.23-.35-.4-.35H3.6c-.2 0-.36.1-.45.3 0 0-2.3 6.08-2.3 6.08z"/><path fill="#fff" fill-rule="evenodd" d="M15.53 10.44c.02.55-.15.94-.47.96 0 0-13.54 0-13.54 0-.46 0-.66-.06-.74-.3.03.4.3.73.74.73 0 0 13.54 0 13.54 0 .38-.02.62-.64.48-1.33v-.06z"/><path fill="none" stroke="url(#k)" stroke-width=".331" d="M3.75 4.5c-.2 0-.35.1-.44.28 0 0-2.26 5.9-2.26 5.9s-.1.22-.1.6c0 0 0 3.3 0 3.3 0 .48.17.58.58.58H14.9c.47 0 .55-.1.55-.65v-3.3s.03-.26-.04-.44L13.08 4.8c-.06-.2-.2-.3-.36-.3H3.76z" stroke-linecap="round" stroke-linejoin="round"/><path fill="url(#l)" fill-rule="evenodd" stroke="url(#m)" stroke-width=".5" d="M3.6 2.27L10.98.34l2.37 8.64-7.57 1.88-2.16-8.6z"/><path fill="url(#n)" stroke="#204a87" stroke-width=".5" d="M4.7 2.9l5.68-1.47 1.54 5.75L6.17 8.7z" color="#000" overflow="visible" enable-background="accumulate"/><path fill="#d3d7cf" d="M6.04 7.1l1.34-1.75 1.32.8 1.1-2.2 1.26.9.54 2.2-5.22 1.36z"/><path fill="#fce94f" d="M8.86 3.6a.73.73 0 1 1-1.46 0 .73.73 0 1 1 1.46 0z" color="#000" overflow="visible" enable-background="accumulate"/></g></svg>