<svg xmlns="http://www.w3.org/2000/svg" width="16" height="16" xmlns:xlink="http://www.w3.org/1999/xlink" version="1"><defs><linearGradient id="f"><stop offset="0"/><stop offset="1" stop-opacity="0"/></linearGradient><linearGradient id="c"><stop offset="0" stop-color="#fff"/><stop offset="1" stop-color="#f8f8f8"/></linearGradient><radialGradient id="e" cx="20.892" cy="64.568" r="5.257" fx="20.892" fy="64.568" gradientUnits="userSpaceOnUse"><stop offset="0" stop-color="#F0F0F0"/><stop offset="1" stop-color="#9a9a9a"/></radialGradient><radialGradient id="d" cx="20.892" cy="114.568" r="5.256" fx="20.892" fy="114.568" gradientUnits="userSpaceOnUse"><stop offset="0" stop-color="#F0F0F0"/><stop offset="1" stop-color="#9a9a9a"/></radialGradient><linearGradient id="a"><stop offset="0" stop-color="#a3a3a3"/><stop offset="1" stop-color="#4c4c4c"/></linearGradient><linearGradient id="b"><stop offset="0" stop-color="#fafafa"/><stop offset="1" stop-color="#bbb"/></linearGradient><radialGradient cx="8.824" cy="3.756" r="37.752" xlink:href="#a" gradientUnits="userSpaceOnUse" gradientTransform="matrix(.968 0 0 1.033 3.354 .646)" fx="8.824" fy="3.756"/><radialGradient cx="33.967" cy="35.737" r="86.708" xlink:href="#b" gradientUnits="userSpaceOnUse" gradientTransform="scale(.96 1.041)" fx="33.967" fy="35.737"/><radialGradient cx="8.144" cy="7.268" r="38.159" xlink:href="#c" gradientUnits="userSpaceOnUse" gradientTransform="matrix(.968 0 0 1.033 3.354 .646)" fx="8.144" fy="7.268"/><radialGradient cx="20.892" cy="114.568" r="5.256" fy="114.568" fx="20.892" gradientTransform="matrix(.23 0 0 .23 4.614 3.98)" gradientUnits="userSpaceOnUse" xlink:href="#d"/><radialGradient cx="20.892" cy="64.568" r="5.257" fy="64.568" fx="20.892" gradientTransform="matrix(.23 0 0 .23 4.614 3.98)" gradientUnits="userSpaceOnUse" xlink:href="#e"/><radialGradient cx="24.307" cy="42.078" r="15.822" xlink:href="#f" fx="24.307" fy="42.078" gradientTransform="matrix(1 0 0 .285 0 30.089)" gradientUnits="userSpaceOnUse"/><linearGradient id="n"><stop offset="0"/><stop offset=".5" stop-color="#b1b1b1"/><stop offset="1"/></linearGradient><linearGradient id="p"><stop offset="0" stop-color="#729fcf" stop-opacity=".208"/><stop offset="1" stop-color="#729fcf" stop-opacity=".676"/></linearGradient><linearGradient id="q"><stop offset="0" stop-color="#fff"/><stop offset="1" stop-color="#fff" stop-opacity=".248"/></linearGradient><linearGradient id="g"><stop offset="0"/><stop offset="1" stop-opacity="0"/></linearGradient><linearGradient id="o"><stop offset="0" stop-color="#fff"/><stop offset=".5" stop-color="#fff" stop-opacity=".219"/><stop offset="1" stop-color="#fff"/></linearGradient><linearGradient id="m"><stop offset="0" stop-color="#8a8a8a"/><stop offset="1" stop-color="#484848"/></linearGradient><linearGradient id="h"><stop offset="0"/><stop offset="1" stop-opacity="0"/></linearGradient><linearGradient id="i"><stop offset="0" stop-color="#ffd1d1"/><stop offset=".5" stop-color="#ff1d1d"/><stop offset="1" stop-color="#6f0000"/></linearGradient><linearGradient id="j"><stop offset="0" stop-color="#c1c1c1"/><stop offset="1" stop-color="#acacac"/></linearGradient><linearGradient id="k"><stop offset="0" stop-color="#e7e2b8"/><stop offset="1" stop-color="#e7e2b8" stop-opacity="0"/></linearGradient><linearGradient id="l"><stop offset="0"/><stop offset="1" stop-color="#c9c9c9"/></linearGradient><radialGradient cx="24.13" cy="37.968" r="16.529" xlink:href="#g" gradientUnits="userSpaceOnUse" gradientTransform="matrix(1 0 0 .238 0 28.933)" fx="24.13" fy="37.968"/><radialGradient cx="23.563" cy="40.438" r="19.563" xlink:href="#h" gradientUnits="userSpaceOnUse" gradientTransform="matrix(1 0 0 .348 0 26.355)" fx="23.563" fy="40.438"/><linearGradient x1="48.906" x2="50.988" y1="17.376" y2="22.251" xlink:href="#i" gradientUnits="userSpaceOnUse" gradientTransform="translate(-5.669)"/><linearGradient x1="46" x2="47.688" y1="19.813" y2="22.625" xlink:href="#j" gradientUnits="userSpaceOnUse" gradientTransform="translate(-5.669)"/><radialGradient cx="29.053" cy="27.641" r="3.241" xlink:href="#k" gradientUnits="userSpaceOnUse" gradientTransform="matrix(2.924 0 0 2.03 -61.555 -27.884)" fx="29.053" fy="27.641"/><linearGradient x1="25.719" x2="25.515" y1="31.047" y2="30.703" xlink:href="#l" gradientUnits="userSpaceOnUse" gradientTransform="translate(-5.826 .125)"/><linearGradient x1="27.366" x2="31.336" y1="26.58" y2="30.558" xlink:href="#m" gradientUnits="userSpaceOnUse" gradientTransform="matrix(-1 0 0 1 48.184 0)"/><linearGradient x1="30.656" x2="33.219" y1="34" y2="31.063" xlink:href="#n" gradientUnits="userSpaceOnUse" gradientTransform="matrix(-1.335 0 0 1.291 55.158 -7.461)"/><linearGradient x1="18.293" x2="17.501" y1="13.602" y2="25.743" xlink:href="#o" gradientUnits="userSpaceOnUse" gradientTransform="matrix(-1 0 0 1 44.178 0)"/><radialGradient cx="18.241" cy="21.818" r="8.309" xlink:href="#p" gradientUnits="userSpaceOnUse" gradientTransform="matrix(-1 0 0 1 43.352 0)" fx="18.241" fy="21.818"/><radialGradient cx="15.414" cy="13.078" r="6.656" xlink:href="#q" gradientUnits="userSpaceOnUse" gradientTransform="matrix(2.593 0 0 2.252 -25.06 -18.941)" fx="15.414" fy="13.078"/><linearGradient x1="25.719" x2="25.515" y1="31.047" y2="30.703" xlink:href="#l" gradientUnits="userSpaceOnUse" gradientTransform="matrix(.399 -.107 .107 .398 -7.574 5.259)"/><radialGradient cx="29.053" cy="27.641" r="3.241" xlink:href="#k" gradientUnits="userSpaceOnUse" gradientTransform="matrix(1.167 -.312 .217 .808 -32.824 .051)" fx="29.053" fy="27.641"/><linearGradient x1="46" x2="47.688" y1="19.813" y2="22.625" xlink:href="#j" gradientUnits="userSpaceOnUse" gradientTransform="matrix(.399 -.107 .107 .398 -7.525 5.193)"/><linearGradient x1="48.906" x2="50.988" y1="17.376" y2="22.251" xlink:href="#i" gradientUnits="userSpaceOnUse" gradientTransform="matrix(.399 -.107 .107 .398 -7.525 5.193)"/><radialGradient cx="15.414" cy="13.078" r="6.656" xlink:href="#q" gradientUnits="userSpaceOnUse" gradientTransform="matrix(.906 0 0 .785 -5.115 -6.656)" fx="15.414" fy="13.078"/><linearGradient x1="30.656" x2="33.219" y1="34" y2="31.063" xlink:href="#n" gradientUnits="userSpaceOnUse" gradientTransform="matrix(.466 0 0 .45 -2.79 -2.655)"/><linearGradient x1="27.366" x2="31.336" y1="26.58" y2="30.558" xlink:href="#m" gradientUnits="userSpaceOnUse" gradientTransform="matrix(.349 0 0 .348 -.354 -.056)"/><radialGradient cx="18.241" cy="21.818" r="8.309" xlink:href="#p" gradientUnits="userSpaceOnUse" gradientTransform="matrix(-1 0 0 1 43.352 0)" fx="18.241" fy="21.818"/><linearGradient x1="18.293" x2="17.501" y1="13.602" y2="25.743" xlink:href="#o" gradientUnits="userSpaceOnUse" gradientTransform="matrix(-1 0 0 1 44.178 0)"/><linearGradient x1="27.366" x2="31.336" y1="26.58" y2="30.558" xlink:href="#m" gradientUnits="userSpaceOnUse" gradientTransform="matrix(.349 0 0 .348 -.354 -.056)"/><linearGradient x1="30.656" x2="33.219" y1="34" y2="31.063" xlink:href="#n" gradientUnits="userSpaceOnUse" gradientTransform="matrix(.466 0 0 .45 -2.79 -2.655)"/><linearGradient id="t" x1="18.293" x2="17.501" y1="13.602" y2="25.743" xlink:href="#o" gradientUnits="userSpaceOnUse" gradientTransform="matrix(-1 0 0 1 44.178 0)"/><radialGradient id="u" cx="18.241" cy="21.818" r="8.309" xlink:href="#p" gradientUnits="userSpaceOnUse" gradientTransform="matrix(-1 0 0 1 43.352 0)" fx="18.241" fy="21.818"/><radialGradient cx="15.414" cy="13.078" r="6.656" xlink:href="#q" gradientUnits="userSpaceOnUse" gradientTransform="matrix(.906 0 0 .785 -5.115 -6.656)" fx="15.414" fy="13.078"/><linearGradient id="w" x1="48.906" x2="50.988" y1="17.376" y2="22.251" xlink:href="#i" gradientUnits="userSpaceOnUse" gradientTransform="matrix(.399 -.107 .107 .398 -7.525 5.193)"/><linearGradient id="x" x1="46" x2="47.688" y1="19.813" y2="22.625" xlink:href="#j" gradientUnits="userSpaceOnUse" gradientTransform="matrix(.399 -.107 .107 .398 -7.525 5.193)"/><radialGradient id="y" cx="29.053" cy="27.641" r="3.241" xlink:href="#k" gradientUnits="userSpaceOnUse" gradientTransform="matrix(1.167 -.312 .217 .808 -32.824 .051)" fx="29.053" fy="27.641"/><linearGradient id="z" x1="25.719" x2="25.515" y1="31.047" y2="30.703" xlink:href="#l" gradientUnits="userSpaceOnUse" gradientTransform="matrix(.399 -.107 .107 .398 -7.574 5.259)"/><radialGradient id="v" cx="15.414" cy="13.078" r="6.656" xlink:href="#q" gradientUnits="userSpaceOnUse" gradientTransform="matrix(.729 0 0 .631 -3.92 -5.192)" fx="15.414" fy="13.078"/><linearGradient id="s" x1="12.56" x2="15.954" y1="30.121" y2="33.757" xlink:href="#n" gradientUnits="userSpaceOnUse" gradientTransform="matrix(.375 0 0 .362 -2.049 -1.973)"/><linearGradient id="r" x1="27.366" x2="31.336" y1="26.58" y2="30.558" xlink:href="#m" gradientUnits="userSpaceOnUse" gradientTransform="matrix(.281 0 0 .28 -.089 .119)"/></defs><g><path fill="none" stroke="#000" stroke-opacity=".018" stroke-width=".989" d="M1 .73v20.53"/></g><g><path fill="#dcdcdc" fill-rule="evenodd" stroke="url(#r)" stroke-width="2" stroke-miterlimit="10" d="M8.22 1c2.3 0 4.14 1.85 4.14 4.13 0 2.3-1.85 4.14-4.14 4.14-.98 0-1.84-.4-2.55-.96.06.3.02.6-.2.8l-3.1 2.66c-.34.3-.86.26-1.16-.08-.3-.35-.26-.87.1-1.17l3.07-2.66c.2-.17.42-.2.65-.18-.56-.7-.95-1.56-.95-2.53C4.07 2.85 5.93 1 8.22 1zm.02.34C6.1 1.34 4.5 2.7 4.5 5.07 4.5 7.5 6.14 8.8 8.24 8.8c2.05 0 3.74-1.54 3.74-3.73 0-2.24-1.64-3.73-3.74-3.73z" stroke-linecap="round" overflow="visible"/><path fill="#dcdcdc" fill-rule="evenodd" d="M8.23.98c2.3 0 4.16 1.86 4.16 4.15 0 2.3-1.88 4.15-4.17 4.15-.98 0-1.85-.4-2.56-.96.06.28.02.57-.22.78l-3.1 2.68c-.34.3-.86.26-1.16-.1-.3-.33-.27-.86.07-1.16l3.1-2.68c.2-.16.42-.2.65-.18-.56-.7-.95-1.56-.95-2.53 0-2.3 1.86-4.15 4.16-4.15zm.02.9c-1.77 0-3.2 1.43-3.2 3.2 0 1.75 1.43 3.18 3.2 3.18 1.76 0 3.2-1.43 3.2-3.2 0-1.75-1.44-3.18-3.2-3.18z" overflow="visible"/><path fill="url(#s)" fill-rule="evenodd" d="M2.35 11.78c.13-.64-.4-1.35-1-1.35 0 0 3.02-2.6 3.02-2.6.83 0 1.2.65 1.06 1.3l-3.08 2.65z" overflow="visible"/><path fill="none" stroke="url(#t)" stroke-width="2.859" stroke-miterlimit="10" d="M28.55 18.92a11.05 11.05 0 1 1-22.1 0 11.05 11.05 0 1 1 22.1 0z" transform="matrix(-.35 0 0 .349 14.419 -1.613)" stroke-linecap="round" overflow="visible"/><path fill="url(#u)" fill-rule="evenodd" stroke="#3063a3" stroke-width="1.91" stroke-miterlimit="10" d="M25.9 18.48a8.3 8.3 0 1 1-16.62 0 8.3 8.3 0 1 1 16.62 0z" transform="matrix(-.393 0 0 .392 15.206 -2.208)" stroke-linecap="round"/><path fill="url(#v)" fill-rule="evenodd" d="M8.23 2.2c-1.47 0-2.65 1.17-2.65 2.64 0 .42.12.8.3 1.16.35.13.72.22 1.12.22 1.73 0 3.12-1.37 3.22-3.07-.48-.57-1.18-.96-2-.96z" opacity=".834" overflow="visible"/><g fill-rule="evenodd"><path fill="#cb9022" stroke="#5c410c" stroke-width=".5014000000000001" d="M4.36 15.66l1.8-3.1 7.58-6.54c1.27-.92 2.65.86 1.6 1.9L7.7 14.3l-3.36 1.36z" overflow="visible"/><path fill="url(#w)" d="M12.18 8.46s.6-.1.95.32c.37.46.28 1.06.28 1.06l1.75-1.52s.5-.5-.04-1.2c-.5-.7-1.18-.17-1.18-.17l-1.74 1.5z" overflow="visible" transform="matrix(1.087 0 0 1.087 -1.227 -1.393)"/><path fill="url(#x)" d="M12.18 8.46s.6-.1.95.32c.37.46.28 1.06.28 1.06l.7-.6s.2-.62-.2-1.1c-.4-.5-1.02-.3-1.02-.3l-.7.62z" overflow="visible" transform="matrix(1.087 0 0 1.087 -1.227 -1.393)"/><path fill="url(#y)" d="M5.63 15.24l1.32-2.27c.68.16 1.14.62 1.14 1.28l-2.47 1z" overflow="visible" transform="matrix(1.087 0 0 1.087 -1.227 -1.393)"/><path fill="url(#z)" d="M6.02 14.54l-.48.8.9-.37c0-.3-.2-.4-.42-.43z" overflow="visible" transform="matrix(1.087 0 0 1.087 -1.227 -1.393)"/><path fill="#fff" fill-opacity=".364" d="M6.32 12.7l.83.35 5.82-4.95c-.3-.32-.66-.33-.96-.28L6.33 12.7z" overflow="visible"/><path fill-opacity=".364" d="M7.58 14.12v-.34l5.77-4.85s.03.27 0 .34l-5.77 4.85z" overflow="visible"/></g></g></svg>