<svg xmlns="http://www.w3.org/2000/svg" width="16" height="16" xmlns:xlink="http://www.w3.org/1999/xlink"><defs><linearGradient id="c"><stop offset="0" stop-color="#afb0ad"/><stop offset="1" stop-color="#555753"/></linearGradient><linearGradient id="b"><stop offset="0" stop-color="#c8c8c8"/><stop offset="1" stop-color="#fff"/></linearGradient><linearGradient><stop offset="0" stop-color="#6e716c"/><stop offset="1" stop-color="#3c3d3a"/></linearGradient><linearGradient><stop offset="0" stop-color="#dadad6"/><stop offset="1" stop-color="#fff"/></linearGradient><linearGradient><stop offset="0" stop-color="#fff"/><stop offset=".14" stop-color="#c6c6c6"/><stop offset=".878" stop-color="#c6c6c6"/><stop offset="1" stop-color="#8e8e8e"/></linearGradient><linearGradient><stop offset="0" stop-color="#acaeaa"/><stop offset="1" stop-color="#555753"/></linearGradient><linearGradient><stop offset="0" stop-color="#c6efff" stop-opacity=".479"/><stop offset=".5" stop-color="#c6efff" stop-opacity=".35"/><stop offset="1" stop-color="#c6efff" stop-opacity=".231"/></linearGradient><linearGradient><stop offset="0" stop-color="#929292"/><stop offset=".5" stop-color="#fff"/><stop offset="1" stop-color="#c5c5c3"/></linearGradient><linearGradient><stop offset="0" stop-color="#eeeeec"/><stop offset="1" stop-color="#ccccc5"/></linearGradient><linearGradient id="a"><stop offset="0" stop-color="#616d72"/><stop offset="1" stop-color="#2e3436"/></linearGradient><linearGradient x1="12.433" x2="13.778" y1="10.357" y2="15.763" xlink:href="#a" gradientUnits="userSpaceOnUse"/><linearGradient><stop offset="0" stop-color="#616d72"/><stop offset="1" stop-color="#2e3436"/></linearGradient><linearGradient id="d" x1=".326" x2="10.253" y1="2.805" y2="13.166" xlink:href="#b" gradientUnits="userSpaceOnUse"/><linearGradient id="e" x1=".326" x2="10.253" y1="2.805" y2="13.166" xlink:href="#c" gradientUnits="userSpaceOnUse"/></defs><g><path d="M3.32 2.68h9.24c.93.03 1.3.6 1.5 1.27l1.9 8.08c.26 1.25-.5 2.02-2.03 2H1.95c-1.8 0-2.02-1.27-1.9-2l1.82-8.06c.17-.78.6-1.27 1.45-1.3z" color="#000" overflow="visible" enable-background="accumulate"/><path fill="url(#d)" stroke="url(#e)" d="M3.65 1.5c2.94.35 5.86.43 8.74 0l2.1 9.12-.02 1.84h-13l.06-1.87z" color="#000" stroke-linecap="round" stroke-linejoin="round" overflow="visible" enable-background="accumulate"/><path fill="#888a85" d="M2 12.94l-.02-2.26c3.37.5 8.72.42 12.03 0l.03 2.2z"/><g fill="none" stroke="#000" stroke-linecap="round"><path stroke-width=".749" d="M7.88 4.2c0 .73-.6 1.33-1.34 1.33-.74 0-1.34-.6-1.34-1.34 0-.75.6-1.35 1.34-1.35.74 0 1.34.6 1.34 1.34z" transform="matrix(1.459 0 0 1.222 -2.174 .627)" color="#000" stroke-linejoin="round" overflow="visible" enable-background="accumulate"/><path stroke-width="1.0033" d="M9 6.92l1.97 1.72"/></g></g></svg>