<svg xmlns="http://www.w3.org/2000/svg" width="16" height="16" xmlns:xlink="http://www.w3.org/1999/xlink"><defs><linearGradient id="c"><stop offset="0" stop-color="#848482"/><stop offset="1" stop-color="#fff"/></linearGradient><linearGradient id="b"><stop offset="0" stop-color="#ee7eff"/><stop offset="1" stop-color="#fff"/></linearGradient><linearGradient id="a"><stop offset="0" stop-color="#10f9ff"/><stop offset="1" stop-color="#fff"/></linearGradient><linearGradient x1="1.924" x2="13.964" y1="2.962" y2="2.962" xlink:href="#a" gradientUnits="userSpaceOnUse" gradientTransform="matrix(1 0 0 .396 .045 2.825)"/><linearGradient x1="1.5" x2="14.5" y1="8" y2="8" xlink:href="#b" gradientUnits="userSpaceOnUse"/><linearGradient id="d" x1="1.5" x2="14.5" y1="12.031" y2="12.031" xlink:href="#c" gradientUnits="userSpaceOnUse"/></defs><g><path fill="#2e3436" d="M1 9.3h14.05v4.65H1z" color="#000" overflow="visible" enable-background="accumulate"/><path fill="url(#d)" d="M1.5 11h13v2.07h-13z" color="#000" overflow="visible" enable-background="accumulate"/><g color="#000"><path fill="#eeeeec" d="M8.9 10h2v3.97h-2z" overflow="visible" enable-background="accumulate"/><path fill="#2e3436" d="M9.88 10h1.03v3.97H9.9z" overflow="visible" enable-background="accumulate"/></g><g fill-rule="evenodd"><path fill="#fff" stroke="#2e3436" stroke-width=".582" d="M.43-6.8h14.42v4.6H.43z" overflow="visible" enable-background="accumulate" transform="matrix(.916 0 0 1.541 1.001 12.571)"/><path fill="#c00" d="M1.87 3.27h3.85V7.9H1.87z" overflow="visible" enable-background="accumulate"/><path fill="#f57900" d="M6 3.27h3.84V7.9H6z" overflow="visible" enable-background="accumulate"/><path fill="#edd400" d="M10.1 3.27h3.86V7.9H10.1z" overflow="visible" enable-background="accumulate"/></g></g></svg>