<svg xmlns="http://www.w3.org/2000/svg" width="16" height="16" xmlns:xlink="http://www.w3.org/1999/xlink"><defs><linearGradient id="g"><stop offset="0" stop-color="#729fcf"/><stop offset="1" stop-color="#c1d4ea"/></linearGradient><linearGradient id="f"><stop offset="0" stop-color="#8c8f89"/><stop offset="1" stop-color="#3c3d3a"/></linearGradient><linearGradient id="e"><stop offset="0" stop-color="#fff"/><stop offset="1" stop-color="#d6d6d1"/></linearGradient><linearGradient id="d"><stop offset="0" stop-color="#9ca096"/><stop offset="1" stop-color="#babdb6" stop-opacity="0"/></linearGradient><linearGradient id="c"><stop offset="0" stop-color="#d3d7cf"/><stop offset=".279" stop-color="#fff"/><stop offset=".578" stop-color="#bfc5b9"/><stop offset=".848" stop-color="#eff0ed"/><stop offset="1" stop-color="#a8b0a0"/></linearGradient><linearGradient id="b"><stop offset="0" stop-color="#888a85"/><stop offset="1" stop-color="#888a85" stop-opacity="0"/></linearGradient><linearGradient id="a"><stop offset="0" stop-color="#ef2929"/><stop offset="1" stop-color="#ef2929" stop-opacity="0"/></linearGradient><radialGradient cx="9.891" cy="6.556" r="6.976" xlink:href="#a" fx="9.891" fy="6.556" gradientTransform="matrix(-1.315 1.018 -.616 -.796 26.939 1.687)" gradientUnits="userSpaceOnUse"/><radialGradient cx="9.899" cy="6.071" r="2.302" xlink:href="#b" fx="9.899" fy="6.071" gradientTransform="matrix(-1.374 1.135 -.679 -.822 27.622 -.229)" gradientUnits="userSpaceOnUse"/><linearGradient id="k" x2="12.933" y1="8.912" y2="14.758" xlink:href="#c" gradientUnits="userSpaceOnUse" gradientTransform="translate(0 1.115)"/><radialGradient id="l" cx="9.477" cy="3.574" r="3.265" xlink:href="#d" fx="9.477" fy="3.574" gradientTransform="matrix(1.318 -.147 .064 .578 -3.241 4.423)" gradientUnits="userSpaceOnUse"/><radialGradient id="i" cx="8.089" cy="2.266" r="7.497" xlink:href="#e" fx="8.089" fy="2.266" gradientTransform="matrix(-1.979 -.023 .011 -.941 24.077 5.52)" gradientUnits="userSpaceOnUse"/><linearGradient id="j" x1="10.215" x2="10.269" y1="1.134" y2="9.544" xlink:href="#f" gradientUnits="userSpaceOnUse" gradientTransform="translate(0 1.115)"/><linearGradient id="h" x1="3.671" x2="3.655" y1="5.594" y2="4.78" xlink:href="#g" gradientUnits="userSpaceOnUse"/></defs><g><rect width="3.507" height="2.308" x="1.906" y="4.51" fill="url(#h)" stroke="#204a87" stroke-width=".5" overflow="visible" ry=".872" transform="matrix(.893 -.451 .441 .897 0 0)" enable-background="accumulate" color="#000"/><path fill="url(#i)" stroke="url(#j)" stroke-width=".5" d="M12.1 4.97c-.44-.12-5.02.13-5.8 2.24-.1.26.07.72.3.74.26.02 3-.05 3.3-.05.7-.02 1.74-.5 2.14-.94.44-.52.46-1.88.06-2zM1 10.57c.73-5.5 6.62-9.03 13.16-7.96 1.14 1.86 1.22 3.96 1.33 6.06.02.32 0 .57-.35.68-.56.2-2.06.4-2.23 1.3z" color="#000" overflow="visible" enable-background="accumulate"/><path fill="url(#k)" stroke="#555753" stroke-width=".5" d="M.97 10.64l-.44 2.12c.04.6.2.64.3.82l12.13.03c.2-.15.44-.28.36-.78l-.4-2.14z" color="#000" overflow="visible" enable-background="accumulate"/><path fill="url(#l)" d="M6 7.3s.8-2.03 1.96-2.86c.66-.48 2.18-.85 3.56-.4.45.14 1 1 1 1-.77-.62-2.08-.23-3.14 0-1.62.35-2.46.74-3.4 2.25z"/><path fill="#fff" fill-rule="evenodd" d="M6.5 8.16s2.46 1.08 4.1.77c1.4-.27 1.73-1.23 1.97-2.55-.3 1-1.35 1.63-2.18 1.7-1.05.1-2.57.1-3.9.08z"/></g></svg>