<svg xmlns="http://www.w3.org/2000/svg" width="16" height="16" xmlns:xlink="http://www.w3.org/1999/xlink"><defs><linearGradient id="a"><stop offset="0" stop-opacity=".464"/><stop offset="1" stop-opacity="0"/></linearGradient><radialGradient id="e" cx="25.125" cy="36.75" r="15.75" xlink:href="#a" fx="25.125" fy="36.75" gradientTransform="matrix(1 0 0 .595 0 14.875)" gradientUnits="userSpaceOnUse"/><linearGradient id="d"><stop offset="0" stop-color="#a40000"/><stop offset="1" stop-color="#4f0000"/></linearGradient><linearGradient><stop offset="0" stop-color="#ff0202"/><stop offset="1" stop-color="#ff9b9b"/></linearGradient><linearGradient id="b"><stop offset="0" stop-color="#fff"/><stop offset="1" stop-color="#dbdbdb"/></linearGradient><radialGradient cx="24.302" cy="33.302" r="12.302" xlink:href="#b" fx="24.302" fy="33.302" gradientUnits="userSpaceOnUse" gradientTransform="matrix(.459 0 0 .459 -3.226 -4.775)"/><linearGradient id="c"><stop offset="0" stop-color="#ff8b8b"/><stop offset="1" stop-color="#ec1b1b" stop-opacity="0"/></linearGradient><linearGradient x1="15.737" x2="53.57" y1="12.504" y2="47.374" xlink:href="#c" gradientUnits="userSpaceOnUse" gradientTransform="translate(13.25 -11)"/><linearGradient x1="2.027" x2="2.027" y1="-3.891" y2="8.411" xlink:href="#d" gradientUnits="userSpaceOnUse"/><linearGradient id="f" x1="2.027" x2="2.027" y1="-3.891" y2="8.411" xlink:href="#d" gradientUnits="userSpaceOnUse"/><linearGradient id="g" x1="15.737" x2="53.57" y1="12.504" y2="47.374" xlink:href="#c" gradientUnits="userSpaceOnUse" gradientTransform="translate(13.25 -11)"/><radialGradient cx="24.302" cy="33.302" r="12.302" xlink:href="#b" gradientUnits="userSpaceOnUse" gradientTransform="matrix(.459 0 0 .459 -3.226 -4.775)" fx="24.302" fy="33.302"/><radialGradient id="h" cx="24.302" cy="33.302" r="12.302" xlink:href="#b" gradientUnits="userSpaceOnUse" gradientTransform="matrix(.401 0 0 .401 -1.691 -4.215)" fx="24.302" fy="33.302"/></defs><g><path fill="url(#e)" fill-rule="evenodd" d="M40.88 36.75a15.75 9.38 0 1 1-31.5 0 15.75 9.38 0 1 1 31.5 0z" transform="matrix(.511 0 0 .261 -4.857 3.937)" color="#000" overflow="visible"/><path fill="#ef2929" stroke="url(#f)" stroke-width=".88" stroke-dashoffset=".717" d="M4.37 8.03L-.4 8l-3.34-3.4.03-4.76L-.33-3.5l4.77.03L7.8-.07l-.04 4.75-3.4 3.35z" transform="matrix(1.136 0 0 1.136 5.63 4.422)" color="#000" stroke-linejoin="bevel" overflow="visible"/><path fill="#eeeeec" fill-opacity=".259" fill-rule="evenodd" d="M5.52.78l-3.74 3.7v4.93l.85.85c4.85 0 4.76-3.77 11.44-3.44V4.54L10.4.78H5.52z"/><path fill="none" stroke="url(#g)" stroke-width="1.015" d="M4.37 8.03L-.4 8l-3.34-3.4.03-4.76L-.33-3.5l4.77.03L7.8-.07l-.04 4.75-3.4 3.35z" transform="matrix(.986 0 0 .986 5.911 4.743)" color="#000" overflow="visible"/><path fill="url(#h)" fill-rule="evenodd" d="M6.27 4.2l-1 1.02L7.03 7 5.26 8.8l1 1L8.07 8l1.77 1.8 1-1L9.07 7l1.78-1.78-1-1-1.8 1.77-1.77-1.8z"/></g></svg>