<svg xmlns="http://www.w3.org/2000/svg" width="16" height="16" xmlns:xlink="http://www.w3.org/1999/xlink"><defs><linearGradient id="d"><stop offset="0" stop-color="#8b8b8b"/><stop offset="1" stop-color="#353535"/></linearGradient><linearGradient id="c"><stop offset="0" stop-opacity=".609"/><stop offset="1" stop-opacity="0"/></linearGradient><linearGradient id="b"><stop offset="0" stop-color="#7e8d91"/><stop offset="1" stop-color="#2e3436"/></linearGradient><linearGradient id="a"><stop offset="0" stop-color="#fff"/><stop offset="1" stop-color="#c0c0b8"/></linearGradient><linearGradient><stop offset="0" stop-color="#d3d3d3"/><stop offset="1" stop-color="#a8bebb"/></linearGradient><linearGradient><stop offset="0" stop-color="#fff"/><stop offset=".5" stop-color="#fff"/><stop offset="1" stop-color="#b6f9ff"/></linearGradient><linearGradient id="e" x1="3.963" x2="11.952" y1="2.025" y2="13.89" xlink:href="#a" gradientUnits="userSpaceOnUse"/><linearGradient id="f" x1="3" x2="13" y1="2.365" y2="13.861" xlink:href="#b" gradientUnits="userSpaceOnUse"/><radialGradient id="g" cx="9.387" cy="7.774" r="1.515" xlink:href="#c" fx="9.387" fy="7.774" gradientTransform="matrix(1 0 0 1.523 0 -4.069)" gradientUnits="userSpaceOnUse"/><linearGradient id="h" x1="7.373" x2="10.278" y1="3.419" y2="8.25" xlink:href="#d" gradientUnits="userSpaceOnUse"/></defs><g><path fill="url(#e)" fill-rule="evenodd" stroke="url(#f)" d="M3.5 1.5h9v13h-9z" color="#000" overflow="visible" enable-background="accumulate"/><path fill-rule="evenodd" d="M6.43 4.43h3.14v7.05H6.43z" color="#000" overflow="visible" enable-background="accumulate"/><path fill="none" stroke="#fff" stroke-opacity=".502" d="M4.5 2.5h7v11h-7z" color="#000" overflow="visible" enable-background="accumulate"/><path fill="#fff" fill-rule="evenodd" d="M7 4.66l1-1.7h2v1.67L9 8H7V4.66"/><path fill="url(#g)" fill-rule="evenodd" d="M10.9 7.77a1.5 2.3 0 1 1-3.03 0 1.5 2.3 0 1 1 3.03 0z" transform="matrix(.864 0 0 1.3 1.068 -3.107)" color="#000" overflow="visible" enable-background="accumulate"/><path fill="#888a85" fill-rule="evenodd" d="M7 8l1-3h2L9 8H7z"/><path fill="#d3d7cf" fill-rule="evenodd" d="M8 3h2.02v2H8z" color="#000" overflow="visible" enable-background="accumulate"/><path fill="none" stroke="url(#h)" stroke-width=".5" d="M6.75 5.03L8.08 2.9l1.95-.04L10 5 9 8H6.75V5.03z"/></g></svg>