<svg xmlns="http://www.w3.org/2000/svg" width="16" height="16" xmlns:xlink="http://www.w3.org/1999/xlink"><defs><linearGradient id="c"><stop offset="0" stop-color="#3465a4" stop-opacity="0"/><stop offset=".75" stop-color="#9bc7ff" stop-opacity="0"/><stop offset="1" stop-color="#8badda"/></linearGradient><linearGradient><stop offset="0" stop-color="#3465a4" stop-opacity="0"/><stop offset=".67" stop-color="#8fb1dc" stop-opacity="0"/><stop offset="1" stop-color="#3465a4"/></linearGradient><linearGradient><stop offset="0" stop-color="#f57900"/><stop offset=".25" stop-color="#f57900"/><stop offset="1" stop-color="#f57900" stop-opacity="0"/></linearGradient><linearGradient id="b"><stop offset="0" stop-color="#fff"/><stop offset=".5" stop-color="#fff"/><stop offset="1" stop-color="#fff" stop-opacity="0"/></linearGradient><linearGradient id="a"><stop offset="0" stop-color="#a5c2e1"/><stop offset="1" stop-color="#275ba6"/></linearGradient><radialGradient id="e" cx="7.027" cy="6.998" r="2.403" xlink:href="#a" fx="7.027" fy="6.998" gradientUnits="userSpaceOnUse"/><radialGradient cx="7.588" cy="7.431" r="2.002" xlink:href="#b" fx="7.588" fy="7.431" gradientUnits="userSpaceOnUse"/><radialGradient id="f" cx="8.32" cy="8.36" r="5" xlink:href="#c" fx="8.32" fy="8.36" gradientUnits="userSpaceOnUse"/><radialGradient id="d" cx="8.461" cy="8.501" r="8" xlink:href="#c" fx="8.461" fy="8.501" gradientUnits="userSpaceOnUse"/></defs><g color="#000"><path fill="url(#d)" d="M7.98 0C3.5 0 0 3.63 0 7.98 0 12.33 3.5 16 7.98 16 12.45 16 16 12.33 16 7.98S12.45 0 7.98 0zm0 2C11.2 2 14 4.6 14 7.98 14 11.36 11.2 14 7.98 14 4.74 14 2 11.36 2 7.98 2 4.6 4.74 2 7.98 2z" overflow="visible"/><path fill="url(#e)" d="M9.6 7.43a2 2 0 1 1-4 0 2 2 0 1 1 4 0z" transform="matrix(.999 0 0 .999 .42 .578)" overflow="visible"/><path fill="url(#f)" d="M8 3C5.15 3 3 5.3 3 8c0 2.67 2.16 5 5 5 2.82 0 5-2.33 5-5 0-2.7-2.18-5-5-5zm0 2c1.57 0 3 1.27 3 3s-1.43 3-3 3c-1.6 0-3-1.27-3-3s1.4-3 3-3z" overflow="visible"/></g></svg>