<svg xmlns="http://www.w3.org/2000/svg" width="16" height="16" xmlns:xlink="http://www.w3.org/1999/xlink"><defs><linearGradient id="d"><stop offset="0" stop-color="#eeeeec"/><stop offset="1" stop-color="#ffff93"/></linearGradient><linearGradient id="c"><stop offset="0" stop-color="#d3d7cf"/><stop offset="1" stop-color="#babdb6"/></linearGradient><linearGradient id="b"><stop offset="0" stop-color="#868686"/><stop offset="1"/></linearGradient><linearGradient id="a"><stop offset="0" stop-color="#fff"/><stop offset="1" stop-color="#ddddd8"/></linearGradient><linearGradient id="e" x1="9.566" x2="9.562" y1="1.993" y2="13.947" xlink:href="#a" gradientUnits="userSpaceOnUse" gradientTransform="matrix(1 0 0 .846 0 1.231)"/><linearGradient id="f" x1="12.089" x2="11.947" y1="5.454" y2="14" xlink:href="#b" gradientUnits="userSpaceOnUse"/><linearGradient id="g" x1="10" x2="10" y1="4" y2="12" xlink:href="#c" gradientUnits="userSpaceOnUse" gradientTransform="matrix(.875 0 0 1 1.75 0)"/><linearGradient x1="3.355" x2="3.366" y1="10.259" y2="15.466" xlink:href="#d" gradientUnits="userSpaceOnUse"/></defs><g><path fill="#2e3436" fill-opacity=".502" fill-rule="evenodd" d="M5.05 4L1.42 8.38c-.4.58-.7 1.2 0 2.18L5.05 15h11V4h-11zM4.5 8C5.35 8 6 8.67 6 9.5S5.35 11 4.5 11C3.7 11 3 10.33 3 9.5S3.7 8 4.5 8z"/><path fill="url(#e)" fill-rule="evenodd" stroke="url(#f)" d="M4.53 2.5L.9 6.88c-.4.58-.7 1.2 0 2.18l3.63 4.44h11v-11h-11zM4 6.5c.83 0 1.5.67 1.5 1.5S4.83 9.5 4 9.5 2.5 8.83 2.5 8 3.17 6.5 4 6.5z"/><path fill="url(#g)" fill-rule="evenodd" d="M7 4h7v8H7z" color="#000" overflow="visible"/><path fill="none" stroke="#000" stroke-opacity=".251" stroke-dashoffset="2" d="M7.5 4.5h6v7h-6z" color="#000" stroke-linecap="round" overflow="visible"/></g></svg>