<svg xmlns="http://www.w3.org/2000/svg" width="16" height="16" xmlns:xlink="http://www.w3.org/1999/xlink"><defs><radialGradient cx="605.714" cy="486.648" r="117.143" xlink:href="#a" gradientUnits="userSpaceOnUse" gradientTransform="matrix(-2.774 0 0 1.97 112.762 -872.885)" fx="605.714" fy="486.648"/><linearGradient id="a"><stop offset="0"/><stop offset="1" stop-opacity="0"/></linearGradient><radialGradient cx="605.714" cy="486.648" r="117.143" xlink:href="#a" gradientUnits="userSpaceOnUse" gradientTransform="matrix(2.774 0 0 1.97 -1891.633 -872.885)" fx="605.714" fy="486.648"/><linearGradient id="b"><stop offset="0" stop-opacity="0"/><stop offset=".5"/><stop offset="1" stop-opacity="0"/></linearGradient><linearGradient x1="302.857" x2="302.857" y1="366.648" y2="609.505" xlink:href="#b" gradientUnits="userSpaceOnUse" gradientTransform="matrix(2.774 0 0 1.97 -1892.179 -872.885)"/><linearGradient id="f"><stop offset="0" stop-color="#939393"/><stop offset="1" stop-color="#d9d9d9"/></linearGradient><linearGradient id="e"><stop offset="0"/><stop offset="1" stop-opacity="0"/></linearGradient><linearGradient id="d"><stop offset="0" stop-color="#fff"/><stop offset="1" stop-color="#fff" stop-opacity="0"/></linearGradient><linearGradient id="c"><stop offset="0" stop-color="#5d5d5d"/><stop offset="1"/></linearGradient><linearGradient id="g"><stop offset="0" stop-color="#fdfdfd"/><stop offset="1" stop-color="#d4d4d4"/></linearGradient><radialGradient id="h" cx="27.216" cy="35.673" r="19.571" gradientUnits="userSpaceOnUse" gradientTransform="matrix(1.042 0 0 .66 -24.242 17.228)" fy="35.673" fx="27.216" xlink:href="#c"/><linearGradient x1="5.464" x2="21.536" y1="13.143" y2="49.143" gradientUnits="userSpaceOnUse" xlink:href="#d" gradientTransform="matrix(.339 0 0 .34 .45 32.371)"/><radialGradient cx="24.643" cy="44.286" r="22.071" gradientUnits="userSpaceOnUse" gradientTransform="matrix(1 0 0 .207 0 35.113)" fy="44.286" fx="24.643" xlink:href="#e"/><linearGradient id="k" x1="10.679" x2="7.929" y1="15.929" y2="11.107" gradientUnits="userSpaceOnUse" xlink:href="#f" gradientTransform="matrix(.351 0 0 .353 -.339 32.598)"/><linearGradient x1="2.761" x2="18.773" y1="6.11" y2="18.693" gradientUnits="userSpaceOnUse" xlink:href="#g"/><linearGradient id="j" x1="2.761" x2="18.773" y1="6.11" y2="18.693" gradientTransform="matrix(.352 0 0 .353 -7.831 31.474)" gradientUnits="userSpaceOnUse" xlink:href="#g"/><linearGradient x1="2.761" x2="18.773" y1="6.11" y2="18.693" xlink:href="#g" gradientUnits="userSpaceOnUse"/><linearGradient id="i" x1="2.761" x2="18.773" y1="6.11" y2="18.693" xlink:href="#g" gradientUnits="userSpaceOnUse" gradientTransform="matrix(.347 0 0 .353 -15.328 34.521)"/></defs><g transform="translate(0 -32)"><rect width="13.788" height="8.657" x="1.206" y="38.579" fill="url(#h)" stroke="#2e3436" stroke-width=".5" ry=".353" rx=".413" color="#000" display="block"/><rect width="13.823" height="2.3" x="-14.736" y="38.18" fill="url(#i)" stroke="#888a85" stroke-width=".5" color="#000" rx=".397" ry=".404" display="block" transform="matrix(-1 .008 .007 1 0 0)"/><path fill-rule="evenodd" d="M13.34 38.24l1.37 2.06-1.7-.05-1.35-1.97 1.7-.04z"/><path fill-rule="evenodd" d="M10.05 38.28l1.3 2.05h-1.7l-1.3-2 1.7-.05z"/><path fill-rule="evenodd" d="M6.6 38.3l1.3 2.03H6.2l-1.3-1.98 1.7-.05z"/><path d="M2.44 38.33c-.06.07-.1.16-.1.26v1.1l.4.64h1.7l-1.3-2h-.7z" color="#000" display="block"/><rect width="14.09" height="2.453" x="-7.384" y="35.101" fill="url(#j)" stroke="#888a85" stroke-width=".5" color="#000" rx=".402" transform="matrix(.974 -.226 .224 .975 0 0)" ry=".404" display="block"/><path fill-rule="evenodd" d="M3.23 35.48l-.86 2.32 1.66-.46.85-2.22-1.65.36z"/><path fill-rule="evenodd" d="M6.5 34.64l-.94 2.48 1.66-.4.93-2.43-1.66.34z"/><path fill-rule="evenodd" d="M9.88 33.9l-.9 2.5 1.65-.4.9-2.47-1.65.36z"/><path d="M14.17 32.94c.1.06.15.13.17.24l.23.93-.38 1-1.8.43.82-2.37.95-.22z" color="#000" display="block"/><path fill="url(#k)" fill-rule="evenodd" stroke="#1b1b1b" stroke-width=".5" d="M1.96 36.45v2.75c0 .16.14.32.3.33h2.77c.3 0 .45-.45.22-.68l-2.2-2.58c-.33-.5-1.1-.25-1.1.18z"/><path fill="#fff" d="M2.8 36.92a.17.17 0 1 1-.33 0 .17.17 0 1 1 .34 0z" color="#000" display="block"/><path fill="#fff" d="M2.8 38.8a.17.17 0 1 1-.33 0 .17.17 0 1 1 .34 0z" color="#000" display="block"/><path fill="#fff" d="M4.58 38.8a.17.17 0 1 1-.34 0 .17.17 0 1 1 .34 0z" color="#000" display="block"/></g></svg>