<svg xmlns="http://www.w3.org/2000/svg" width="16" height="16" xmlns:xlink="http://www.w3.org/1999/xlink"><defs><linearGradient id="e"><stop offset="0" stop-color="#eeeeec"/><stop offset=".281" stop-color="#eeeeec"/><stop offset=".602" stop-color="#eeeeec" stop-opacity="0"/><stop offset="1" stop-color="#eeeeec" stop-opacity="0"/></linearGradient><linearGradient id="d"><stop offset="0" stop-color="#4b5558"/><stop offset="1" stop-color="#2e3436"/></linearGradient><linearGradient id="c"><stop offset="0" stop-color="#cbcbc5"/><stop offset="1" stop-color="#fff"/></linearGradient><linearGradient id="b"><stop offset="0" stop-color="#2e3436"/><stop offset="1" stop-color="#2e3436" stop-opacity="0"/></linearGradient><linearGradient id="a"><stop offset="0" stop-color="#eeeeec"/><stop offset="1" stop-color="#b2b2a9"/></linearGradient><radialGradient id="h" cx="7.918" cy="7.177" r="5.97" xlink:href="#a" fx="7.918" fy="7.177" gradientTransform="matrix(-.929 .8 -.415 -.475 18.682 5.418)" gradientUnits="userSpaceOnUse"/><radialGradient id="f" cx="8.5" cy="8.5" r="6.5" xlink:href="#b" fx="8.5" fy="8.5" gradientTransform="matrix(-1.029 .896 -.614 -.601 22.466 6.497)" gradientUnits="userSpaceOnUse"/><linearGradient id="g" x1="2.051" x2="8.234" y1="4.106" y2="9.933" xlink:href="#c" gradientUnits="userSpaceOnUse" gradientTransform="matrix(.851 0 0 .846 1.224 1.232)"/><linearGradient id="i" x1="7.007" x2="10" y1="7.138" y2="10.802" xlink:href="#d" gradientUnits="userSpaceOnUse" gradientTransform="matrix(.925 0 0 .92 1.079 1.115)"/><linearGradient x2="15" y2="15" xlink:href="#e" gradientUnits="userSpaceOnUse"/></defs><g fill-rule="evenodd" color="#000"><path fill="url(#f)" d="M2 3h13v12H2z" overflow="visible"/><path fill="url(#g)" stroke="#2e3436" d="M13.5 2.5l-.02.7-.13 1.06-.67 2.6-5.54 5.8-3 .78-.94.04-.7.02.05-10.96L13.5 2.5z" stroke-linecap="square" overflow="visible"/><path fill="#2e3436" d="M2.48 3h10.95v2H2.48z" overflow="visible"/><path fill="url(#h)" stroke="url(#i)" d="M13.5 2.05C13.5 5.72 11.55 8.02 8 8c-.06 3.48-2.18 5.5-5.95 5.5 8.58.05 11.35-3.95 11.45-11.45z" stroke-linecap="square" overflow="visible"/></g></svg>