<svg xmlns="http://www.w3.org/2000/svg" width="16" height="16" xmlns:xlink="http://www.w3.org/1999/xlink"><defs><linearGradient><stop offset="0" stop-color="#204a87"/><stop offset=".5" stop-color="#6e9bdd"/><stop offset="1" stop-color="#204a87"/></linearGradient><linearGradient id="f"><stop offset="0" stop-color="#c0d4ea"/><stop offset="1" stop-color="#c0d4ea" stop-opacity="0"/></linearGradient><linearGradient id="e"><stop offset="0" stop-color="#4978bd"/><stop offset="1" stop-color="#204a87"/></linearGradient><linearGradient id="d"><stop offset="0" stop-color="#8fbae5"/><stop offset=".657" stop-color="#31669d"/><stop offset="1" stop-color="#4d8fd4"/></linearGradient><linearGradient id="b"><stop offset="0" stop-color="#5797d8"/><stop offset=".377" stop-color="#9abfe4"/><stop offset=".571" stop-color="#90b9e4"/><stop offset="1" stop-color="#4d8fd4"/></linearGradient><linearGradient x1="4.441" x2="12.191" y1="6.083" y2="9.046" xlink:href="#a" gradientUnits="userSpaceOnUse"/><linearGradient id="a"><stop offset="0" stop-color="#a2c0df"/><stop offset="1" stop-color="#729fcf"/></linearGradient><linearGradient x1="4.441" x2="12.191" y1="6.083" y2="9.046" gradientTransform="translate(15.839 -1.033)" gradientUnits="userSpaceOnUse" xlink:href="#a"/><linearGradient id="h" x1="-10.2" x2="-4.59" y1="12.232" y2="6.298" gradientTransform="translate(15.839 -1.033)" gradientUnits="userSpaceOnUse" xlink:href="#b"/><linearGradient id="c"><stop offset="0" stop-color="#5797d8"/><stop offset=".5" stop-color="#c1d8ef"/><stop offset=".75" stop-color="#90b9e4"/><stop offset="1" stop-color="#4d8fd4"/></linearGradient><linearGradient x1="4.441" x2="12.191" y1="6.083" y2="9.046" gradientTransform="translate(-2.02 -1.962)" gradientUnits="userSpaceOnUse" xlink:href="#c"/><linearGradient id="j" x1="-1.02" x2="-.823" y1="17.017" y2="13.064" xlink:href="#d" gradientUnits="userSpaceOnUse" gradientTransform="translate(15.839 -1.033)"/><linearGradient id="i" x1="3.317" x2="14.091" y1="3.065" y2="13.976" xlink:href="#e" gradientUnits="userSpaceOnUse"/><linearGradient id="k" x1="6.792" x2="10.385" y1="6.191" y2="10.826" xlink:href="#f" gradientUnits="userSpaceOnUse"/><linearGradient id="g"><stop offset="0" stop-color="#204a87"/><stop offset=".5" stop-color="#6e9bdd"/><stop offset="1" stop-color="#204a87"/></linearGradient><linearGradient x1="4.967" x2="11.065" y1="10.731" y2="5.443" gradientTransform="translate(-4.489 -4.458)" gradientUnits="userSpaceOnUse" xlink:href="#g"/></defs><g><path fill="url(#h)" stroke="url(#i)" stroke-width=".75" d="M9.95 3.77C5.67-.43-.55 4.77 3.2 9.5l6.96 4.56c.2-2.44 1.78-3.9 3.9-3.7z" color="#000" overflow="visible" enable-background="accumulate"/><path fill="url(#j)" stroke="#204a87" stroke-width=".645" d="M16.47 13.97a1.67 2.23 0 1 1-3.34 0 1.67 2.23 0 1 1 3.34 0z" transform="matrix(.879 .761 -.762 .879 10.063 -11.009)" color="#000" overflow="visible" enable-background="accumulate"/><path fill="none" stroke="url(#k)" stroke-width=".5" d="M9.45 4.18C5.65.45.27 4.82 3.62 9.06l6 3.9c.17-1.86 1.6-3.18 3.27-3.33z" color="#000" overflow="visible" enable-background="accumulate"/><path fill="none" stroke="#204a87" stroke-width=".5" d="M8 12.9c-1.92-3.13 1.86-6.7 4.73-4.8" color="#000" overflow="visible" enable-background="accumulate"/><path fill="none" stroke="#204a87" stroke-width=".5" d="M5.05 10.77c-1.47-4.4 2.53-7.57 6.07-5.32"/></g></svg>