<svg xmlns="http://www.w3.org/2000/svg" width="16" height="16" xmlns:xlink="http://www.w3.org/1999/xlink"><defs><linearGradient id="b"><stop offset="0" stop-color="#888a85"/><stop offset="1" stop-color="#888a85" stop-opacity="0"/></linearGradient><linearGradient id="a"><stop offset="0" stop-color="#ef2929"/><stop offset="1" stop-color="#ef2929" stop-opacity="0"/></linearGradient><radialGradient id="c" cx="9.891" cy="6.556" r="6.976" xlink:href="#a" fx="9.891" fy="6.556" gradientTransform="matrix(-1.315 1.018 -.616 -.796 26.939 1.687)" gradientUnits="userSpaceOnUse"/><radialGradient id="d" cx="9.899" cy="6.071" r="2.302" xlink:href="#b" fx="9.899" fy="6.071" gradientTransform="matrix(-1.374 1.135 -.679 -.822 27.622 -.229)" gradientUnits="userSpaceOnUse"/></defs><g><path fill="#eeeeec" stroke="#888a85" stroke-width="1.00084" d="M3.5 2a1.5 1.5 0 1 1-3 0 1.5 1.5 0 1 1 3 0z" color="#000" overflow="visible" enable-background="accumulate"/><path fill="#eeeeec" stroke="#888a85" stroke-width="1.00084" d="M13.5 14.03a1.5 1.5 0 1 1-3 0 1.5 1.5 0 1 1 3 0z" color="#000" overflow="visible" enable-background="accumulate"/><path fill="#fff" fill-opacity=".51" stroke="#eeeeec" stroke-width="2" d="M14.56 6.52a5 5 0 1 1-10 0 5 5 0 1 1 10 0z" color="#000" overflow="visible" enable-background="accumulate"/><path fill="none" stroke="#ef2929" d="M14.5 6.5a5 5 0 1 1-10 0 5 5 0 1 1 10 0z" color="#000" stroke-dasharray="1, 1" overflow="visible" enable-background="accumulate"/><path fill="url(#c)" d="M7.3 2.02L-.04 7.88 0 16.05h5.94l7.96-7-3.13 2.44-3.2-.26-2.25-1.66L4.3 5.82l.84-1.78z"/><path fill="url(#d)" d="M8.67 4.48l-2.8 2.7.5 1.74 1.57.73 3.42-2.2z"/><path fill="#eeeeec" stroke="#888a85" stroke-width="1.00084" d="M11.48 6a1.5 1.5 0 1 1-3 0 1.5 1.5 0 1 1 3 0z" color="#000" overflow="visible" enable-background="accumulate"/></g></svg>