<svg xmlns="http://www.w3.org/2000/svg" width="16" height="16" xmlns:xlink="http://www.w3.org/1999/xlink" version="1"><defs><linearGradient id="d"><stop offset="0" stop-color="#fff"/><stop offset="1" stop-color="#fff" stop-opacity="0"/></linearGradient><linearGradient id="c"><stop offset="0" stop-color="#7b6500"/><stop offset="1" stop-color="#c4a000" stop-opacity="0"/></linearGradient><linearGradient id="b"><stop offset="0" stop-color="#edd400"/><stop offset="1" stop-color="#edd400" stop-opacity="0"/></linearGradient><linearGradient id="a"><stop offset="0"/><stop offset="1" stop-opacity="0"/></linearGradient><radialGradient cx="24.837" cy="36.421" r="15.645" xlink:href="#a" fx="24.837" fy="36.421" gradientTransform="matrix(1 0 0 .537 0 16.873)" gradientUnits="userSpaceOnUse"/><linearGradient id="e" x1="26.5" x2="26.25" y1="34.25" y2="43.572" xlink:href="#b" gradientUnits="userSpaceOnUse" gradientTransform="matrix(.372 0 0 .376 .017 -.147)"/><linearGradient id="f" x1="26.5" x2="26.25" y1="34.25" y2="43.572" xlink:href="#c" gradientUnits="userSpaceOnUse" gradientTransform="matrix(.372 0 0 .376 .017 -.147)"/><radialGradient id="g" cx="15.094" cy="13.283" r="10.165" xlink:href="#d" fx="15.094" fy="13.283" gradientTransform="matrix(.929 0 0 .865 -9.333 -6.851)" gradientUnits="userSpaceOnUse"/></defs><g><path fill="url(#e)" stroke="url(#f)" stroke-width="1.2" d="M3.58 16.8c14.9.5 12.55-12.32 4.8-12.25V1.03L2.18 6.5l6.2 5.77s0-3.64 0-3.64c5.23-.22 6.76 8.06-4.8 8.16z" display="block" overflow="visible"/><path fill="none" stroke="#fff" stroke-width=".7" stroke-miterlimit="10" d="M11.57 14.64c4.36-2.3 3.04-9.87-3.57-9.7V1.9S2.77 6.5 2.77 6.5L8 11.4s0-3.1 0-3.1c5.52-.14 5.27 4.8 3.57 6.36z" display="block" overflow="visible"/><path fill="url(#g)" fill-rule="evenodd" d="M2.48 6.5l2.1 2.03c2.35-.07 1.3-2.4 5.47-3.56L8.2 4.74 8.2 1.48 2.48 6.5z" opacity=".511" overflow="visible"/></g></svg>