<svg xmlns="http://www.w3.org/2000/svg" width="16" height="16" xmlns:xlink="http://www.w3.org/1999/xlink"><defs><linearGradient id="c"><stop offset="0" stop-color="#2e3436"/><stop offset="1" stop-color="#2e3436" stop-opacity="0"/></linearGradient><linearGradient id="b"><stop offset="0" stop-color="#555753"/><stop offset="1" stop-color="#2e3436"/></linearGradient><linearGradient id="a"><stop offset="0" stop-color="#eeeeec"/><stop offset="1" stop-color="#b0b0a6"/></linearGradient><linearGradient id="e" x1="2" x2="14.049" y1="10.587" y2="10.587" xlink:href="#a" gradientUnits="userSpaceOnUse" gradientTransform="matrix(1 0 0 1.007 0 -.035)"/><linearGradient id="f" x1="4.853" x2="12.517" y1="5.909" y2="14.888" xlink:href="#b" gradientUnits="userSpaceOnUse" gradientTransform="matrix(1 0 0 1.007 0 -.035)"/><radialGradient id="d" cx="12.333" cy="13.237" r="3.733" xlink:href="#c" fx="12.333" fy="13.237" gradientTransform="matrix(1 -.009 .008 .893 -.106 1.526)" gradientUnits="userSpaceOnUse"/></defs><g><path fill="url(#d)" fill-rule="evenodd" d="M9.17 16l6.16-.97c1-.96.97-2.47 0-3.33L13 10.5 9.17 16z"/><rect width="15" height="8" x=".5" y=".5" fill="#fff" stroke="#555753" ry="0" color="#000" overflow="visible"/><path fill="#888a85" d="M5.46 7.08H3.02v-.5h.9V3.2h-.9v-.44c.34 0 .6-.05.76-.15.16-.1.25-.27.27-.54h.52v4.5h.9v.52z" style="text-align:start;line-height:125%" font-size="6.881" font-family="Tahoma"/><path fill="#888a85" d="M9.72 7.08h-3.1v-.7c.23-.22.44-.42.64-.6.2-.2.4-.4.58-.6.38-.43.64-.77.78-1.02s.2-.5.2-.78c0-.14-.02-.26-.06-.37-.04-.1-.1-.18-.18-.25-.08-.07-.17-.12-.27-.15s-.2-.05-.33-.05c-.12 0-.24.02-.36.05-.1.03-.23.06-.34.1-.1.05-.2.1-.28.15-.08.05-.15.1-.2.13h-.04v-.7c.13-.08.33-.15.58-.2.24-.08.48-.1.7-.1.46 0 .83.1 1.1.36.26.25.4.58.4 1 0 .2-.03.38-.08.55-.04.15-.1.3-.2.45-.07.14-.17.3-.3.43-.1.14-.23.3-.36.42-.2.23-.44.47-.7.72-.26.24-.47.44-.62.58h2.46v.58z" style="text-align:start;line-height:125%" font-size="6.881" font-family="Tahoma"/><path fill="#888a85" d="M12.38 2.55c-.13 0-.25 0-.37.04-.1.02-.23.06-.34.1-.1.05-.2.1-.28.15-.08.05-.15.1-.22.14h-.04v-.72c.15-.08.35-.15.6-.22.25-.06.48-.1.7-.1.24 0 .43.03.6.08.17.04.32.1.46.2.15.12.26.25.34.4.07.15.1.33.1.54 0 .27-.08.5-.26.72-.2.2-.4.34-.66.4v.04c.1.02.22.06.34.1.12.06.23.13.34.23.1.1.18.22.25.37.06.15.1.33.1.55 0 .22-.04.42-.12.6-.07.2-.18.37-.32.52-.14.15-.32.26-.53.34-.2.08-.44.12-.7.12-.25 0-.5-.03-.74-.1-.24-.05-.45-.12-.62-.2v-.72h.05c.14.1.33.2.57.3.24.1.47.14.7.14.15 0 .3-.02.42-.07.14-.04.26-.1.35-.2.1-.1.16-.22.2-.34.05-.12.07-.27.07-.46 0-.18-.02-.33-.08-.44-.05-.12-.12-.2-.22-.28-.1-.07-.2-.1-.33-.14-.12-.02-.26-.04-.4-.04H12V4.1h.23c.3 0 .55-.1.74-.23.18-.14.28-.35.28-.62 0-.13-.03-.24-.07-.33-.05-.1-.12-.16-.2-.22-.08-.05-.17-.1-.27-.12-.1-.02-.2-.03-.32-.03z" style="text-align:start;line-height:125%" font-size="6.881" font-family="Tahoma"/><path fill="url(#e)" stroke="url(#f)" stroke-width=".866" d="M13.62 12.54l-1.23-5.1c-.23-.42-.52-.6-.83-.88l-.26-1.23-2.32.4c-.22-.05-.53-.05-.98-.05-2.14 0-3.94.78-4.43 1.84l-1.14 5c0 1.7 2.5 3.05 5.57 3.05 3.08 0 5.62-1.36 5.62-3.03z" color="#000" stroke-linejoin="round" overflow="visible"/><path fill="#fff" d="M12 8c0 1.1-1.8 2-4 2s-4-.9-4-2 1.8-2 4-2c.4 0 .8-.1 1.16-.04l1.95-.48.08 1.3c.52.35.82.77.82 1.22z" color="#000" overflow="visible"/><path fill="none" stroke="#d3d7cf" d="M1.5 8.02V1.5H15"/></g></svg>