<svg xmlns="http://www.w3.org/2000/svg" width="10" height="10" xmlns:xlink="http://www.w3.org/1999/xlink" version="1"><defs><linearGradient><stop offset="0" stop-color="#226c29"/><stop offset="1" stop-color="#a1de97"/></linearGradient><linearGradient id="a"><stop offset="0" stop-color="#ddddd8"/><stop offset="1" stop-color="#fff"/></linearGradient><linearGradient id="b" x1="21.016" x2="21.016" y1="18.442" y2="32.728" xlink:href="#a" gradientUnits="userSpaceOnUse" gradientTransform="matrix(.26 -.024 .036 .381 -1.419 -2.87)"/></defs><g><path fill="url(#b)" fill-rule="evenodd" d="M.17 6.4c3.56-5.6 7.37-2.98 9.6-.1-1.5 5.44-7.73 3.87-9.6.1z"/><path fill="#fff" fill-opacity=".75" fill-rule="evenodd" d="M.26 6.62c2.85.2 6 .2 8.72-.53-3.14-2.15-7.1-1-8.72.52z"/><path fill="#3465a4" d="M6.97 6.28a2 2-5.35 1 1-4 .37 2 2-5.35 1 1 4-.37z" color="#000" overflow="visible"/><path fill="#2e3436" d="M5.5 6.45c.05.5-.46.85-.9.64-.2-.1-.35-.3-.37-.53-.05-.5.45-.84.9-.64.2.1.35.3.37.52z" color="#000" overflow="visible"/><path fill="#eeeeec" fill-opacity=".716" fill-rule="evenodd" d="M4.86 6.03s-.16-.56-.23-.8c-.42.04-1.1.34-1.26.57.13.25.34.55.44.75.38-.3.68-.47 1.06-.52z"/><path fill="#2e3436" fill-rule="evenodd" d="M0 6.62c3.6-3 6.64-3 9.26-.3l.7-.65c-1.8-2.22-2.92-3-5.5-2.75-2.6.24-4.47 3.78-4.47 3.7z"/><path fill="#2e3436" fill-rule="evenodd" d="M.12 6.56c3.8 3.43 6.27 2.87 9 .1l1.03.83c-3.9 3.8-7.43 3-10.03-.94z"/><path fill="#2e3436" fill-rule="evenodd" d="M9.97 3.97c-2.6-5.55-8.07-4.93-10 .08 2.76-2.67 6.4-3.78 10-.08z"/></g></svg>