<svg xmlns="http://www.w3.org/2000/svg" width="48" height="48" xmlns:xlink="http://www.w3.org/1999/xlink"><defs><linearGradient id="e"><stop offset="0" stop-color="#eeeeec"/><stop offset="1" stop-color="#fff"/></linearGradient><linearGradient id="d"><stop offset="0" stop-color="#2e3436"/><stop offset="1" stop-color="#2e3436" stop-opacity="0"/></linearGradient><linearGradient id="c"><stop offset="0" stop-color="#007400"/><stop offset="1" stop-color="#2a392a"/></linearGradient><linearGradient id="b"><stop offset="0" stop-color="#fff"/><stop offset="1" stop-color="#eeeeec" stop-opacity=".21"/></linearGradient><linearGradient id="a"><stop offset="0" stop-color="#eeeeec"/><stop offset="1" stop-color="#616157"/></linearGradient><linearGradient id="g" x1="23.997" x2="24.133" y1="3.979" y2="42.321" xlink:href="#a" gradientUnits="userSpaceOnUse"/><linearGradient x1="27.513" x2="27.574" y1="41.754" y2="2.377" xlink:href="#a" gradientUnits="userSpaceOnUse"/><linearGradient id="h" x1="23.837" x2="23.492" y1="-.149" y2="45.217" xlink:href="#b" gradientUnits="userSpaceOnUse"/><radialGradient id="i" cx="18.19" cy="17.156" r="21.812" xlink:href="#c" fx="18.19" fy="17.156" gradientUnits="userSpaceOnUse" gradientTransform="matrix(.805 -.651 .679 .84 -8.108 14.586)"/><radialGradient id="f" cx="29.302" cy="45.016" r="17.746" xlink:href="#d" fx="29.302" fy="45.016" gradientTransform="matrix(1 0 0 .254 0 33.581)" gradientUnits="userSpaceOnUse"/><linearGradient id="j" x1="23.492" x2="23.492" y1="43.794" y2="-.199" xlink:href="#e" gradientUnits="userSpaceOnUse"/></defs><g><path fill="url(#f)" fill-rule="evenodd" d="M47.05 45.02a17.75 4.5 0 1 1-35.5 0 17.75 4.5 0 1 1 35.5 0z" transform="matrix(1.074 0 0 1.044 -8.098 -3.297)" color="#000" overflow="visible"/><path fill="url(#g)" fill-rule="evenodd" stroke="#2e3436" stroke-width=".967" d="M44.7 21.6a21.2 21.2 0 1 1-42.4 0 21.2 21.2 0 1 1 42.4 0z" transform="matrix(1.034 0 0 1.034 -.793 .053)" color="#000" overflow="visible"/><path fill="none" stroke="url(#h)" stroke-width="1.015" d="M44.7 21.6a21.2 21.2 0 1 1-42.4 0 21.2 21.2 0 1 1 42.4 0z" transform="matrix(.985 0 0 .985 .364 1.116)" color="#000" overflow="visible"/><path fill="url(#i)" fill-rule="evenodd" d="M44.7 21.6a21.2 21.2 0 1 1-42.4 0 21.2 21.2 0 1 1 42.4 0z" transform="matrix(.838 0 0 .838 3.818 4.29)" color="#000" overflow="visible"/><g fill="none" stroke="#8ae234" stroke-opacity=".179"><path d="M11.5 9.7v25.22"/><path d="M17.5 6.1v32.5"/><path d="M23.5 5.02v34.65"/><path d="M35.5 10.1V35.1"/><path d="M29.5 6.13v32.43"/><path d="M37.3 10.5H11.04"/><path d="M39.67 16.5H7.17"/><path d="M41.26 22.5H5.98"/><path d="M36.43 34.5H11.08"/><path d="M39.58 28.5H7.15"/></g><path fill="none" stroke="#57a10f" stroke-width="3" d="M39.06 30.4c-2.3-3.9-2.05-16.8-5.23-16.82-3.75 0-2.7 17.97-6.77 17.94-4.05-.04-3.02-18-6.77-18.02-3.76 0-2.72 17.97-6.76 18.02-3.62.04-3.15-14.46-5.74-17.42"/><path fill="none" stroke="#eeeeec" d="M39.04 30.35c-2.3-3.9-2.04-16.8-5.22-16.82-3.75 0-2.72 17.97-6.77 17.94-4.05-.04-3.02-18-6.77-18.02-3.75 0-2.72 17.97-6.75 18.02C9.9 31.5 10.37 17 7.8 14.05"/><path fill="none" stroke="url(#j)" stroke-width="1.16" d="M44.7 21.6a21.2 21.2 0 1 1-42.4 0 21.2 21.2 0 1 1 42.4 0z" transform="matrix(.838 0 0 .838 3.571 4.22)" color="#000" overflow="visible"/></g></svg>