<svg xmlns="http://www.w3.org/2000/svg" width="48" height="48" xmlns:xlink="http://www.w3.org/1999/xlink"><defs><linearGradient id="b"><stop offset="0" stop-color="#729fcf"/><stop offset="1" stop-color="#386da5"/></linearGradient><linearGradient><stop offset="0" stop-color="#9f6" stop-opacity=".753"/><stop offset="1" stop-color="#54a300" stop-opacity=".714"/></linearGradient><linearGradient><stop offset="0" stop-color="#6689ff" stop-opacity=".753"/><stop offset="1" stop-color="#004fe2" stop-opacity=".714"/></linearGradient><linearGradient><stop offset="0" stop-color="#729fcf" stop-opacity=".649"/><stop offset="1" stop-color="#729fcf"/></linearGradient><linearGradient id="a"><stop offset="0" stop-color="#fff" stop-opacity=".753"/><stop offset="1" stop-color="#bebebe" stop-opacity=".714"/></linearGradient><linearGradient><stop offset="0" stop-color="#d3d3d3"/><stop offset="1" stop-color="#a8bebb"/></linearGradient><linearGradient><stop offset="0" stop-color="#fff"/><stop offset=".5" stop-color="#fff"/><stop offset="1" stop-color="#b6f9ff"/></linearGradient><linearGradient><stop offset="0" stop-color="#729fcf"/><stop offset="1" stop-color="#376da5"/></linearGradient><linearGradient id="c" x1="9.167" x2="25.296" y1="30.667" y2="38.75" xlink:href="#a" gradientUnits="userSpaceOnUse"/><linearGradient id="e" x1="9.167" x2="25.296" y1="30.667" y2="38.75" xlink:href="#a" gradientUnits="userSpaceOnUse"/><linearGradient id="f" x1="9.167" x2="25.296" y1="30.667" y2="38.75" xlink:href="#a" gradientUnits="userSpaceOnUse"/><linearGradient id="d" x1="19.667" x2="27.083" y1="30.292" y2="40.5" xlink:href="#b" gradientUnits="userSpaceOnUse"/></defs><g><g fill="#2e3436" fill-opacity=".125" fill-rule="evenodd" color="#000"><path d="M23.5 29.76l23 8.16L23.4 48 1.52 37.92l21.97-8.16z" overflow="visible"/><path d="M23.54 30.9l20.87 7.23-20.94 8.9-19.85-8.9 19.94-7.22z" overflow="visible"/><path d="M23.6 32.07l18.72 6.18-18.8 7.64-17.8-7.65 17.87-6.18z" overflow="visible"/><path d="M23.12 33.22l16.06 5.15-16.12 6.37L7.8 38.37l15.32-5.15z" overflow="visible"/></g><path fill="#729fcf" fill-opacity=".438" fill-rule="evenodd" d="M15 42.37l1.23-4.06 10.42 1.75-1.6-5.43 8.55.5 7.82 3.12-17.74 7.9L15 42.36z"/><g stroke-width=".868" color="#000"><path fill="url(#c)" fill-rule="evenodd" stroke="#2e3436" d="M20.07 25.33l19.98 7.84L20 41.92 1 33.17l19.07-7.84z" overflow="visible" transform="matrix(1.152 0 0 1.152 .371 -7.292)"/><path fill="none" stroke="#fff" stroke-width="1.15" d="M23.53 23.24l20.04 7.6-20.2 8.8-18.97-8.8 19.13-7.6z" overflow="visible"/></g><path fill="url(#d)" fill-rule="evenodd" stroke="#204a87" d="M13.58 35.67L15 31l12 2-1.83-6.25 9.83.58 9 3.6L23.58 40l-10-4.33z"/><g stroke-width=".868" color="#000"><path fill="url(#e)" fill-rule="evenodd" stroke="#2e3436" d="M20.07 25.33l19.98 7.84L20 41.92 1 33.17l19.07-7.84z" overflow="visible" transform="matrix(1.152 0 0 1.152 .348 -17.682)"/><path fill="none" stroke="#fff" stroke-width="1.15" d="M23.5 12.85l20.05 7.6-20.2 8.8-18.97-8.8 19.13-7.6z" overflow="visible"/></g><path fill="#fff" fill-rule="evenodd" stroke="#babdb6" d="M25.18 14.5c-3.4 0-6.18 1.14-6.18 2.5 0 .32.15.6.4.86-1.5.15-2.8.52-3.65 1.02-.1 0-.2-.03-.3-.03-3.4 0-6.2 1.14-6.2 2.5 0 1.4 2.8 2.5 6.2 2.5 2.13 0 4-.43 5.1-1.1.1 0 .2 0 .3 0 1.2 0 2.3-.16 3.25-.4.95.24 2.05.4 3.25.4 3.4 0 6.15-1.1 6.15-2.47 0-.9-1.16-1.67-2.9-2.1.46-.36.74-.74.74-1.17 0-1.36-2.75-2.5-6.16-2.5z" color="#000" overflow="visible"/><g stroke-width=".868" color="#000"><path fill="url(#f)" fill-rule="evenodd" stroke="#2e3436" d="M20.07 25.33l19.98 7.84L20 41.92 1 33.17l19.07-7.84z" overflow="visible" transform="matrix(1.152 0 0 1.152 .371 -28.682)"/><path fill="none" stroke="#fff" stroke-width="1.15" d="M23.53 1.85l20.04 7.6-20.2 8.8L4.4 9.46l19.13-7.6z" overflow="visible"/></g><path fill="#2e3436" fill-rule="evenodd" stroke="#eeeeec" d="M27.67 16.75c-4-3-3.44-6.84-1.34-7.58 2.6-.92 7.75-.6 12.75 2.4-2.9 1.18-9.16 4.1-11.4 5.18z"/><path fill="#8f5902" fill-rule="evenodd" stroke="#eeeeec" d="M28.08 8.04a4.3 2.46 0 1 1-8.58 0 4.3 2.46 0 1 1 8.58 0z" color="#000" overflow="visible"/><path fill="#c0c6bb" fill-rule="evenodd" d="M25.17 10.92l3.75.5-.84-2.17-2.9 1.67z"/></g></svg>