<svg xmlns="http://www.w3.org/2000/svg" width="48" height="48" xmlns:xlink="http://www.w3.org/1999/xlink"><defs><linearGradient id="a"><stop offset="0" stop-color="#2e3436"/><stop offset="1" stop-color="#2e3436" stop-opacity="0"/></linearGradient><radialGradient id="c" cx="95.605" cy="27.98" r="10.859" gradientUnits="userSpaceOnUse" fy="27.98" fx="95.605"><stop offset="0" stop-color="#fff"/><stop offset="1" stop-color="#8794A0"/></radialGradient><linearGradient id="d" x1="99.025" x2="95.838" y1="46.495" y2="29.741" gradientUnits="userSpaceOnUse"><stop offset="0" stop-color="#C7DDDE"/><stop offset="1" stop-color="#A3B3BE"/></linearGradient><radialGradient id="e" cx="98.428" cy="15.948" r="19.588" gradientUnits="userSpaceOnUse" fy="15.948" fx="98.428"><stop offset="0" stop-color="#fff"/><stop offset="1" stop-color="#8794A0"/></radialGradient><radialGradient id="f" cx="108.535" cy="-1.444" r="32.544" gradientUnits="userSpaceOnUse" fy="-1.444" fx="108.535"><stop offset="0" stop-color="#fff"/><stop offset="1" stop-color="#8794A0"/></radialGradient><radialGradient id="g" cx="113.36" cy="23.414" r="20.93" gradientUnits="userSpaceOnUse" fy="23.414" fx="113.36"><stop offset="0" stop-color="#fff"/><stop offset="1" stop-color="#8794A0"/></radialGradient><radialGradient id="h" cx="125.836" cy="22.138" r="29.536" gradientUnits="userSpaceOnUse" fy="22.138" fx="125.836"><stop offset="0" stop-color="#fff"/><stop offset="1" stop-color="#8794A0"/></radialGradient><radialGradient id="i" cx="109.172" cy="43.535" r="17.837" gradientUnits="userSpaceOnUse" fy="43.535" fx="109.172"><stop offset="0" stop-color="#DEE0E1"/><stop offset="1" stop-color="#8794A0"/></radialGradient><radialGradient id="j" cx="110.2" cy="37.086" r="27.944" gradientUnits="userSpaceOnUse" fy="37.086" fx="110.2"><stop offset="0" stop-color="#fff"/><stop offset="1" stop-color="#8794A0"/></radialGradient><radialGradient id="b" cx="15.718" cy="43.624" r="14.071" xlink:href="#a" fx="15.718" fy="43.624" gradientTransform="matrix(2.244 .081 -.012 .325 -20.753 27.703)" gradientUnits="userSpaceOnUse"/></defs><g><path fill="url(#b)" fill-rule="evenodd" d="M17.57 47.7l-.14-9.13 28 2.14-1 6.6-26.86.4z"/><g fill="none" stroke="#192333" stroke-width="2"><path d="M21.28 15.63l10.6 5.88 6.56-10.64-3.37-4.38-8.75-4.9-5.64 8.53.6 5.53z"/><path d="M29.3 31.17l-6.54-4.93-11.2 2.65v11.57L17.73 47l11.55-4.3.02-11.53z"/><path d="M27.75 19.88v12.84l-14 .22v-13l.72-3.52 12.05-.05 1.23 3.5z"/></g><path fill="url(#c)" d="M111.98 31.28l-6.54-4.93L94.24 29l6.17 5.57 11.58-3.3z" transform="translate(-82.681 -.102)"/><path fill="url(#d)" d="M94.25 29v11.57l6.16 6.53V34.57L94.26 29z" transform="translate(-82.681 -.102)"/><path fill="url(#e)" d="M110.43 20l-1.23-3.53-12.05.05-.7 3.5 13.98-.03z" transform="translate(-82.681 -.102)"/><path fill="url(#f)" d="M111.04 5.3L109 1.7l-5.64 8.53.6 5.54 7.08-10.43z" transform="translate(-82.681 -.102)"/><path fill="url(#g)" d="M121.12 10.96l-6.56 10.65-10.6-5.87 7.08-10.42 10.08 5.66z" transform="translate(-82.681 -.102)"/><path fill="url(#h)" d="M109 1.68l8.75 4.9 3.37 4.38-10.08-5.65L109 1.7z" transform="translate(-82.681 -.102)"/><path fill="url(#i)" d="M100.4 34.57V47.1l11.56-4.3.02-11.52-11.57 3.3z" transform="translate(-82.681 -.102)"/><path fill="none" stroke="#fff" stroke-width=".7" d="M17.73 34.47l-6.17-5.58" stroke-linecap="round"/><path fill="none" stroke="#dbdee1" stroke-width=".7" d="M17.73 34.47l11.57-3.3"/><path fill="url(#j)" d="M110.43 20V32.8l-14 .22v-13l14-.05z" transform="translate(-82.681 -.102)"/><path fill="none" stroke="#fff" stroke-width=".7" d="M28.36 5.2L21.3 15.64"/><path fill="none" stroke="#fff" stroke-width=".7" d="M28.36 5.2l-2.04-3.63"/><path fill="none" stroke="#e0e1e2" stroke-width=".7" d="M28.36 5.2l10.08 5.66"/><path fill="none" stroke="#9a9999" stroke-width=".7" d="M21.29 15.63l10.58 5.88"/><path fill="none" stroke="#7e828c" stroke-width=".7" d="M13.76 32.94l14-.22v-2.7"/><path fill="none" stroke="#edefef" stroke-width=".7" d="M17.73 34.47V47"/><path fill="none" stroke="#fff" stroke-width=".7" d="M27.75 19.88l-13.64.05v13"/></g></svg>