<svg xmlns="http://www.w3.org/2000/svg" width="48" height="48" xmlns:i="&ns_ai;" xmlns:xlink="http://www.w3.org/1999/xlink" version="1"><defs><linearGradient id="e"><stop offset="0" stop-color="#2e3436" stop-opacity=".567"/><stop offset="1" stop-color="#2e3436" stop-opacity="0"/></linearGradient><radialGradient id="a" cx="14.31" cy="485.416" r="4.065" gradientUnits="userSpaceOnUse" fy="485.416" fx="14.31"><stop offset="0" stop-color="#fff"/><stop offset=".685" stop-color="#2E659E"/><stop offset="1" stop-color="#1D3E63"/></radialGradient><radialGradient cx="14.31" cy="485.416" r="4.065" xlink:href="#a" gradientUnits="userSpaceOnUse" fx="14.31" fy="485.416"/><radialGradient id="b" cx="40.541" cy="486.093" r="2.869" gradientUnits="userSpaceOnUse" gradientTransform="matrix(-1 0 0 1 55.359 0)" fy="486.093" fx="40.541"><stop offset="0" stop-color="#fff"/><stop offset=".004" stop-color="#FDFDFE"/><stop offset=".107" stop-color="#C7D5E5"/><stop offset=".212" stop-color="#98B3CF"/><stop offset=".315" stop-color="#7297BD"/><stop offset=".417" stop-color="#5481B0"/><stop offset=".517" stop-color="#3F72A6"/><stop offset=".615" stop-color="#3268A0"/><stop offset=".708" stop-color="#2E659E"/><stop offset="1" stop-color="#193766"/></radialGradient><radialGradient cx="40.541" cy="486.093" r="2.869" xlink:href="#b" gradientUnits="userSpaceOnUse" gradientTransform="matrix(-1 0 0 1 55.359 0)" fx="40.541" fy="486.093"/><linearGradient id="c" x1="-165.394" x2="-170.38" y1="-93.119" y2="-104.198" gradientTransform="matrix(-.574 -.819 .819 -.574 -3.236 298.158)" gradientUnits="userSpaceOnUse"><stop offset="0" stop-color="#88A9C3"/><stop offset="1" stop-color="#fff" stop-opacity="0"/></linearGradient><linearGradient x1="-165.394" x2="-170.38" y1="-93.119" y2="-104.198" xlink:href="#c" gradientUnits="userSpaceOnUse" gradientTransform="matrix(-.574 -.819 .819 -.574 -3.236 298.158)"/><linearGradient id="d" x1="-165.82" x2="-170.229" y1="-93.99" y2="-103.786" gradientTransform="matrix(-.574 -.819 .819 -.574 -6.75 -152.536)" gradientUnits="userSpaceOnUse"><stop offset="0" stop-color="#6F87A0"/><stop offset="1" stop-color="#fff" stop-opacity="0"/></linearGradient><linearGradient x1="-165.82" x2="-170.229" y1="-93.99" y2="-103.786" xlink:href="#d" gradientUnits="userSpaceOnUse" gradientTransform="matrix(-.76 -1.768 1.768 -.76 65.898 -346.931)"/><linearGradient x1="-165.82" x2="-170.229" y1="-93.99" y2="-103.786" xlink:href="#d" gradientUnits="userSpaceOnUse" gradientTransform="matrix(.288 -2.463 2.467 .293 298.071 -372.516)"/><radialGradient cx="40.541" cy="486.093" r="2.869" xlink:href="#b" gradientUnits="userSpaceOnUse" gradientTransform="matrix(-1 0 0 1 55.359 0)" fx="40.541" fy="486.093"/><radialGradient cx="14.31" cy="485.416" r="4.065" xlink:href="#a" gradientUnits="userSpaceOnUse" fx="14.31" fy="485.416"/><radialGradient cx="14.31" cy="485.416" r="4.065" xlink:href="#a" gradientUnits="userSpaceOnUse" fx="14.31" fy="485.416"/><linearGradient x1="-165.394" x2="-170.38" y1="-93.119" y2="-104.198" xlink:href="#c" gradientUnits="userSpaceOnUse" gradientTransform="matrix(-.574 -.819 .819 -.574 -3.236 298.158)"/><radialGradient cx="40.541" cy="486.093" r="2.869" xlink:href="#b" gradientUnits="userSpaceOnUse" gradientTransform="matrix(-1 0 0 1 55.359 0)" fx="40.541" fy="486.093"/><linearGradient x1="-165.82" x2="-170.229" y1="-93.99" y2="-103.786" xlink:href="#d" gradientUnits="userSpaceOnUse" gradientTransform="matrix(.42 -3.62 3.596 .431 439.543 -537.551)"/><linearGradient x1="-165.394" x2="-170.38" y1="-93.119" y2="-104.198" xlink:href="#c" gradientUnits="userSpaceOnUse" gradientTransform="matrix(-.574 -.819 .819 -.574 -3.236 298.158)"/><radialGradient cx="40.541" cy="486.093" r="2.869" xlink:href="#b" gradientUnits="userSpaceOnUse" gradientTransform="matrix(-1 0 0 1 55.359 0)" fx="40.541" fy="486.093"/><linearGradient x1="-165.82" x2="-170.229" y1="-93.99" y2="-103.786" xlink:href="#d" gradientUnits="userSpaceOnUse" gradientTransform="matrix(.288 -2.463 2.467 .293 317.717 -355.585)"/><linearGradient x1="-165.394" x2="-170.38" y1="-93.119" y2="-104.198" xlink:href="#c" gradientUnits="userSpaceOnUse" gradientTransform="matrix(-.574 -.819 .819 -.574 -3.236 298.158)"/><radialGradient cx="40.541" cy="486.093" r="2.869" xlink:href="#b" gradientUnits="userSpaceOnUse" gradientTransform="matrix(-1 0 0 1 55.359 0)" fx="40.541" fy="486.093"/><linearGradient x1="-165.82" x2="-170.229" y1="-93.99" y2="-103.786" xlink:href="#d" gradientUnits="userSpaceOnUse" gradientTransform="matrix(.288 -2.463 2.467 .293 289.285 -359.247)"/><linearGradient x1="-165.394" x2="-170.38" y1="-93.119" y2="-104.198" xlink:href="#c" gradientUnits="userSpaceOnUse" gradientTransform="matrix(-.574 -.819 .819 -.574 -3.236 298.158)"/><radialGradient cx="40.541" cy="486.093" r="2.869" xlink:href="#b" gradientUnits="userSpaceOnUse" gradientTransform="matrix(-1 0 0 1 55.359 0)" fx="40.541" fy="486.093"/><linearGradient x1="-165.82" x2="-170.229" y1="-93.99" y2="-103.786" xlink:href="#d" gradientUnits="userSpaceOnUse" gradientTransform="matrix(.288 -2.463 2.467 .293 317.65 -372.63)"/><linearGradient x1="-165.394" x2="-170.38" y1="-93.119" y2="-104.198" xlink:href="#c" gradientUnits="userSpaceOnUse" gradientTransform="matrix(-.574 -.819 .819 -.574 -3.236 298.158)"/><radialGradient cx="40.541" cy="486.093" r="2.869" xlink:href="#b" gradientUnits="userSpaceOnUse" gradientTransform="matrix(-1 0 0 1 55.359 0)" fx="40.541" fy="486.093"/><radialGradient cx="25.169" cy="44.771" r="6.126" xlink:href="#e" fx="25.169" fy="44.771" gradientTransform="matrix(1 0 0 .353 0 28.955)" gradientUnits="userSpaceOnUse"/><radialGradient cx="25.169" cy="44.771" r="6.126" xlink:href="#e" gradientUnits="userSpaceOnUse" gradientTransform="matrix(1 0 0 .353 0 28.955)" fx="25.169" fy="44.771"/><radialGradient cx="25.169" cy="44.771" r="6.126" xlink:href="#e" gradientUnits="userSpaceOnUse" gradientTransform="matrix(1 0 0 .353 0 28.955)" fx="25.169" fy="44.771"/><radialGradient cx="25.169" cy="44.771" r="6.126" xlink:href="#e" gradientUnits="userSpaceOnUse" gradientTransform="matrix(1 0 0 .353 0 28.955)" fx="25.169" fy="44.771"/><radialGradient cx="25.169" cy="44.771" r="6.126" xlink:href="#e" gradientUnits="userSpaceOnUse" gradientTransform="matrix(1 0 0 .353 0 28.955)" fx="25.169" fy="44.771"/><linearGradient x1="-165.82" x2="-170.229" y1="-93.99" y2="-103.786" xlink:href="#d" gradientUnits="userSpaceOnUse" gradientTransform="matrix(.42 -3.62 3.596 .431 439.543 -537.551)"/><linearGradient x1="-165.394" x2="-170.38" y1="-93.119" y2="-104.198" xlink:href="#c" gradientUnits="userSpaceOnUse" gradientTransform="matrix(-.574 -.819 .819 -.574 -3.236 298.158)"/><radialGradient cx="25.169" cy="44.771" r="6.126" xlink:href="#e" gradientUnits="userSpaceOnUse" gradientTransform="matrix(1 0 0 .353 0 28.955)" fx="25.169" fy="44.771"/><radialGradient cx="25.169" cy="44.771" r="6.126" xlink:href="#e" gradientUnits="userSpaceOnUse" gradientTransform="matrix(1 0 0 .353 0 28.955)" fx="25.169" fy="44.771"/><linearGradient x1="-165.82" x2="-170.229" y1="-93.99" y2="-103.786" xlink:href="#d" gradientUnits="userSpaceOnUse" gradientTransform="matrix(.42 -3.62 3.596 .431 439.543 -537.551)"/><linearGradient x1="-165.394" x2="-170.38" y1="-93.119" y2="-104.198" xlink:href="#c" gradientUnits="userSpaceOnUse" gradientTransform="matrix(-.574 -.819 .819 -.574 -3.236 298.158)"/><radialGradient cx="40.541" cy="486.093" r="2.869" xlink:href="#b" gradientUnits="userSpaceOnUse" gradientTransform="matrix(-1 0 0 1 55.359 0)" fx="40.541" fy="486.093"/><linearGradient x1="-165.82" x2="-170.229" y1="-93.99" y2="-103.786" xlink:href="#d" gradientUnits="userSpaceOnUse" gradientTransform="matrix(.42 -3.62 3.596 .431 439.543 -537.551)"/><linearGradient x1="-165.394" x2="-170.38" y1="-93.119" y2="-104.198" xlink:href="#c" gradientUnits="userSpaceOnUse" gradientTransform="matrix(-.574 -.819 .819 -.574 -3.236 298.158)"/><radialGradient cx="40.541" cy="486.093" r="2.869" xlink:href="#b" gradientUnits="userSpaceOnUse" gradientTransform="matrix(-1 0 0 1 55.359 0)" fx="40.541" fy="486.093"/><linearGradient x1="-165.82" x2="-170.229" y1="-93.99" y2="-103.786" xlink:href="#d" gradientUnits="userSpaceOnUse" gradientTransform="matrix(.42 -3.62 3.596 .431 439.543 -537.551)"/><linearGradient x1="-165.394" x2="-170.38" y1="-93.119" y2="-104.198" xlink:href="#c" gradientUnits="userSpaceOnUse" gradientTransform="matrix(-.574 -.819 .819 -.574 -3.236 298.158)"/><radialGradient cx="40.541" cy="486.093" r="2.869" xlink:href="#b" gradientUnits="userSpaceOnUse" gradientTransform="matrix(-1 0 0 1 55.359 0)" fx="40.541" fy="486.093"/><linearGradient x1="-165.82" x2="-170.229" y1="-93.99" y2="-103.786" xlink:href="#d" gradientUnits="userSpaceOnUse" gradientTransform="matrix(.42 -3.62 3.596 .431 439.543 -537.551)"/><linearGradient x1="-165.394" x2="-170.38" y1="-93.119" y2="-104.198" xlink:href="#c" gradientUnits="userSpaceOnUse" gradientTransform="matrix(-.574 -.819 .819 -.574 -3.236 298.158)"/><radialGradient cx="40.541" cy="486.093" r="2.869" xlink:href="#b" gradientUnits="userSpaceOnUse" gradientTransform="matrix(-1 0 0 1 55.359 0)" fx="40.541" fy="486.093"/><linearGradient x1="-165.82" x2="-170.229" y1="-93.99" y2="-103.786" xlink:href="#d" gradientUnits="userSpaceOnUse" gradientTransform="matrix(.42 -3.62 3.596 .431 439.543 -537.551)"/><linearGradient x1="-165.394" x2="-170.38" y1="-93.119" y2="-104.198" xlink:href="#c" gradientUnits="userSpaceOnUse" gradientTransform="matrix(-.574 -.819 .819 -.574 -3.236 298.158)"/><radialGradient cx="40.541" cy="486.093" r="2.869" xlink:href="#b" gradientUnits="userSpaceOnUse" gradientTransform="matrix(-1 0 0 1 55.359 0)" fx="40.541" fy="486.093"/><radialGradient cx="40.541" cy="486.093" r="2.869" xlink:href="#b" gradientUnits="userSpaceOnUse" gradientTransform="matrix(-1 0 0 1 55.359 0)" fx="40.541" fy="486.093"/><linearGradient x1="-165.82" x2="-170.229" y1="-93.99" y2="-103.786" xlink:href="#d" gradientUnits="userSpaceOnUse" gradientTransform="matrix(.42 -3.62 3.596 .431 439.543 -537.551)"/><linearGradient x1="-165.394" x2="-170.38" y1="-93.119" y2="-104.198" xlink:href="#c" gradientUnits="userSpaceOnUse" gradientTransform="matrix(-.574 -.819 .819 -.574 -3.236 298.158)"/><linearGradient x1="-165.82" x2="-170.229" y1="-93.99" y2="-103.786" xlink:href="#d" gradientUnits="userSpaceOnUse" gradientTransform="matrix(.42 -3.62 3.596 .431 439.543 -537.551)"/><linearGradient x1="-165.394" x2="-170.38" y1="-93.119" y2="-104.198" xlink:href="#c" gradientUnits="userSpaceOnUse" gradientTransform="matrix(-.574 -.819 .819 -.574 -3.236 298.158)"/><radialGradient cx="40.541" cy="486.093" r="2.869" xlink:href="#b" gradientUnits="userSpaceOnUse" gradientTransform="matrix(-1 0 0 1 55.359 0)" fx="40.541" fy="486.093"/><linearGradient id="f" x1="-165.82" x2="-170.229" y1="-93.99" y2="-103.786" xlink:href="#d" gradientUnits="userSpaceOnUse" gradientTransform="matrix(.42 -3.62 3.596 .431 439.543 -537.551)"/><linearGradient id="g" x1="-165.394" x2="-170.38" y1="-93.119" y2="-104.198" xlink:href="#c" gradientUnits="userSpaceOnUse" gradientTransform="matrix(-.574 -.819 .819 -.574 -3.236 298.158)"/><radialGradient id="h" cx="40.541" cy="486.093" r="2.869" xlink:href="#b" gradientUnits="userSpaceOnUse" gradientTransform="matrix(-1 0 0 1 55.359 0)" fx="40.541" fy="486.093"/><linearGradient id="i" x1="-165.82" x2="-170.229" y1="-93.99" y2="-103.786" xlink:href="#d" gradientUnits="userSpaceOnUse" gradientTransform="matrix(.42 -3.62 3.596 .431 439.543 -537.551)"/><linearGradient id="j" x1="-165.394" x2="-170.38" y1="-93.119" y2="-104.198" xlink:href="#c" gradientUnits="userSpaceOnUse" gradientTransform="matrix(-.574 -.819 .819 -.574 -3.236 298.158)"/><radialGradient id="k" cx="40.541" cy="486.093" r="2.869" xlink:href="#b" gradientUnits="userSpaceOnUse" gradientTransform="matrix(-1 0 0 1 55.359 0)" fx="40.541" fy="486.093"/><linearGradient id="l" x1="-165.82" x2="-170.229" y1="-93.99" y2="-103.786" xlink:href="#d" gradientUnits="userSpaceOnUse" gradientTransform="matrix(.42 -3.62 3.596 .431 439.543 -537.551)"/><linearGradient id="m" x1="-165.394" x2="-170.38" y1="-93.119" y2="-104.198" xlink:href="#c" gradientUnits="userSpaceOnUse" gradientTransform="matrix(-.574 -.819 .819 -.574 -3.236 298.158)"/><radialGradient id="n" cx="40.541" cy="486.093" r="2.869" xlink:href="#b" gradientUnits="userSpaceOnUse" gradientTransform="matrix(-1 0 0 1 55.359 0)" fx="40.541" fy="486.093"/><linearGradient x1="-165.82" x2="-170.229" y1="-93.99" y2="-103.786" xlink:href="#d" gradientUnits="userSpaceOnUse" gradientTransform="matrix(.42 -3.62 3.596 .431 439.543 -537.551)"/><linearGradient x1="-165.394" x2="-170.38" y1="-93.119" y2="-104.198" xlink:href="#c" gradientUnits="userSpaceOnUse" gradientTransform="matrix(-.574 -.819 .819 -.574 -3.236 298.158)"/><radialGradient id="q" cx="40.541" cy="486.093" r="2.869" xlink:href="#b" gradientUnits="userSpaceOnUse" gradientTransform="matrix(-1 0 0 1 55.359 0)" fx="40.541" fy="486.093"/><linearGradient id="o" x1="-165.82" x2="-170.229" y1="-93.99" y2="-103.786" xlink:href="#d" gradientUnits="userSpaceOnUse" gradientTransform="matrix(.42 -3.62 3.596 .431 439.543 -537.551)"/><linearGradient id="p" x1="-165.394" x2="-170.38" y1="-93.119" y2="-104.198" xlink:href="#c" gradientUnits="userSpaceOnUse" gradientTransform="matrix(-.574 -.819 .819 -.574 -3.236 298.158)"/></defs><g><g transform="matrix(.763 0 0 .763 14.829 -.514)"><g><path fill="url(#f)" d="M-3.54 29.77c2.54-.98 30.17-12.44 33.38-13.7.8 2.8 3.35 9.7 4.1 12.28-2.98.9-35.18 8.97-38.47 9.98l1-8.56z" i:knockout="Off" transform="matrix(.83 -.483 .483 .83 -28.125 10.168)"/><g transform="matrix(3.418 .71 -.685 3.419 292.252 -1665.192)"><linearGradient x1="-165.394" x2="-170.38" y1="-93.119" y2="-104.198" gradientTransform="matrix(-.574 -.819 .819 -.574 -3.236 298.158)" gradientUnits="userSpaceOnUse"><stop offset="0" stop-color="#88A9C3"/><stop offset="1" stop-color="#fff"/></linearGradient><path fill="url(#g)" d="M10.96 498.84l6.7-10.4-4.57-2.83-4.8 9.44 2.66 3.8zm-2-2.85c.34-.68 3.94-8.12 4.38-8.96.68.42 2.46 1.37 3.08 1.76-.45.73-5.6 8.3-6.1 9.13L8.96 496z" i:knockout="Off"/></g></g><circle cx="15.3" cy="487.164" r="2.072" fill="url(#h)" stroke="#132e54" stroke-width=".463" i:knockout="Off" transform="matrix(3.162 2.839 -2.813 3.177 1333.297 -1580.609)"/></g><g transform="matrix(.763 0 0 .763 5.4 18.856)"><g><path fill="url(#i)" d="M-3.54 29.77c2.54-.98 30.17-12.44 33.38-13.7.8 2.8 3.35 9.7 4.1 12.28-2.98.9-35.18 8.97-38.47 9.98l1-8.56z" i:knockout="Off" transform="matrix(.83 -.483 .483 .83 -28.125 10.168)"/><g transform="matrix(3.418 .71 -.685 3.419 292.252 -1665.192)"><linearGradient x1="-165.394" x2="-170.38" y1="-93.119" y2="-104.198" gradientTransform="matrix(-.574 -.819 .819 -.574 -3.236 298.158)" gradientUnits="userSpaceOnUse"><stop offset="0" stop-color="#88A9C3"/><stop offset="1" stop-color="#fff"/></linearGradient><path fill="url(#j)" d="M10.96 498.84l6.7-10.4-4.57-2.83-4.8 9.44 2.66 3.8zm-2-2.85c.34-.68 3.94-8.12 4.38-8.96.68.42 2.46 1.37 3.08 1.76-.45.73-5.6 8.3-6.1 9.13L8.96 496z" i:knockout="Off"/></g></g><circle cx="15.3" cy="487.164" r="2.072" fill="url(#k)" stroke="#132e54" stroke-width=".463" i:knockout="Off" transform="matrix(3.162 2.839 -2.813 3.177 1333.297 -1580.609)"/></g><g transform="matrix(.763 0 0 .763 31.918 9.118)"><g><path fill="url(#l)" d="M-3.54 29.77c2.54-.98 30.17-12.44 33.38-13.7.8 2.8 3.35 9.7 4.1 12.28-2.98.9-35.18 8.97-38.47 9.98l1-8.56z" i:knockout="Off" transform="matrix(.83 -.483 .483 .83 -28.125 10.168)"/><g transform="matrix(3.418 .71 -.685 3.419 292.252 -1665.192)"><linearGradient x1="-165.394" x2="-170.38" y1="-93.119" y2="-104.198" gradientTransform="matrix(-.574 -.819 .819 -.574 -3.236 298.158)" gradientUnits="userSpaceOnUse"><stop offset="0" stop-color="#88A9C3"/><stop offset="1" stop-color="#fff"/></linearGradient><path fill="url(#m)" d="M10.96 498.84l6.7-10.4-4.57-2.83-4.8 9.44 2.66 3.8zm-2-2.85c.34-.68 3.94-8.12 4.38-8.96.68.42 2.46 1.37 3.08 1.76-.45.73-5.6 8.3-6.1 9.13L8.96 496z" i:knockout="Off"/></g></g><circle cx="15.3" cy="487.164" r="2.072" fill="url(#n)" stroke="#132e54" stroke-width=".463" i:knockout="Off" transform="matrix(3.162 2.839 -2.813 3.177 1333.297 -1580.609)"/></g><g><path fill="url(#o)" d="M-3.54 29.77c2.54-.98 30.17-12.44 33.38-13.7.8 2.8 3.35 9.7 4.1 12.28-2.98.9-35.18 8.97-38.47 9.98l1-8.56z" i:knockout="Off" transform="matrix(.667 -.335 .388 .576 1.862 32.633)"/><g transform="matrix(2.747 .493 -.551 2.372 259.517 -1129.805)"><linearGradient x1="-165.394" x2="-170.38" y1="-93.119" y2="-104.198" gradientUnits="userSpaceOnUse" gradientTransform="matrix(-.574 -.819 .819 -.574 -3.236 298.158)"><stop offset="0" stop-color="#88A9C3"/><stop offset="1" stop-color="#fff"/></linearGradient><path fill="url(#p)" d="M10.96 498.84l6.7-10.4-4.57-2.83-4.8 9.44 2.66 3.8zm-2-2.85c.34-.68 3.94-8.12 4.38-8.96.68.42 2.46 1.37 3.08 1.76-.45.73-5.6 8.3-6.1 9.13L8.96 496z" i:knockout="Off"/></g></g><circle cx="15.3" cy="487.164" r="2.072" fill="url(#q)" stroke="#132e54" stroke-width=".463" transform="matrix(2.411 2.165 -2.145 2.423 1040.222 -1178.333)" i:knockout="Off"/></g></svg>