<svg xmlns="http://www.w3.org/2000/svg" width="48" height="48" xmlns:xlink="http://www.w3.org/1999/xlink"><defs><linearGradient id="f"><stop offset="0" stop-color="#fff"/><stop offset="1" stop-color="#fff" stop-opacity="0"/></linearGradient><linearGradient id="e"><stop offset="0" stop-color="#888a85"/><stop offset="1" stop-color="#b8b9b6"/></linearGradient><linearGradient id="d"><stop offset="0"/><stop offset="1" stop-opacity="0"/></linearGradient><linearGradient id="c"><stop offset="0" stop-color="#888a85"/><stop offset="1" stop-color="#888a85" stop-opacity="0"/></linearGradient><radialGradient id="a" cx="9.342" cy="22.614" r="14.152" fx="9.342" fy="22.614" gradientUnits="userSpaceOnUse"><stop offset="0" stop-color="#767676"/><stop offset="1" stop-color="#484848"/></radialGradient><radialGradient id="h" cx="20.656" cy="24.735" r="14.152" fy="24.735" fx="20.656" gradientUnits="userSpaceOnUse" xlink:href="#a" gradientTransform="matrix(1.066 0 0 1.066 -1.015 7.476)"/><linearGradient id="b"><stop offset="0" stop-color="#fff"/><stop offset="1" stop-color="#fff" stop-opacity="0"/></linearGradient><linearGradient id="j" x1="21.032" x2="21.108" y1="31.868" y2="-4.599" xlink:href="#b" gradientUnits="userSpaceOnUse"/><linearGradient id="k" x1="46.545" x2="40.82" y1="35.245" y2="34.14" xlink:href="#c" gradientUnits="userSpaceOnUse" gradientTransform="matrix(.943 0 0 .944 2.552 3.981)"/><radialGradient id="g" cx="23.158" cy="26.964" r="21.567" xlink:href="#d" fx="23.158" fy="26.964" gradientTransform="matrix(1 0 0 .664 0 9.062)" gradientUnits="userSpaceOnUse"/><linearGradient id="i" x1="23.816" x2="29.049" y1="12.75" y2="25.772" xlink:href="#e" gradientUnits="userSpaceOnUse"/><linearGradient id="l" x1="43.688" x2="26.625" y1="32.133" y2="32.133" xlink:href="#f" gradientUnits="userSpaceOnUse" gradientTransform="matrix(1.066 0 0 1.066 -3.117 -.224)"/></defs><g><path fill="url(#g)" fill-rule="evenodd" d="M44.72 26.96a21.57 14.32 0 1 1-43.13 0 21.57 14.32 0 1 1 43.12 0z" transform="matrix(1.066 0 0 1.066 -1.798 -1.543)" opacity=".703" color="#000" overflow="visible"/><path fill="#a1a39f" fill-rule="evenodd" stroke="#6d6f6a" stroke-width=".674" d="M40.5 21A14.75 8.25 0 1 1 11 21a14.75 8.25 0 1 1 29.5 0z" transform="matrix(1.337 0 0 1.644 -13.56 -9.053)" color="#000" stroke-linecap="round" stroke-linejoin="round" overflow="visible"/><path fill="#555753" fill-rule="evenodd" d="M32.33 22.8a12 8.8 0 1 1-24.03 0 12 8.8 0 1 1 24.03 0z" color="#000" overflow="visible"/><path fill="url(#h)" stroke="#3b3d39" d="M45.95 41.6s-8.88-3.98-14.56-3.48c-6.07.54-16.2.9-20.16-5.37 16.84 5.08 24.6-3.35 36 1.4 0 0-1.3 7.46-1.3 7.46z"/><path fill="url(#i)" fill-rule="evenodd" stroke="#757972" stroke-width="1.157" d="M40.5 21A14.75 8.25 0 1 1 11 21a14.75 8.25 0 1 1 29.5 0z" transform="matrix(.811 0 0 1.052 -.02 -1.734)" color="#000" stroke-linecap="round" stroke-linejoin="round" overflow="visible"/><path fill="#d3d7cf" fill-rule="evenodd" stroke="#888a85" d="M19.37 5.87C9.17 6.44 1.15 12.72 1.15 20.3c0 7.96 8.83 14.44 19.72 14.44 10.88 0 19.72-6.48 19.72-14.44 0-7.95-8.85-14.43-19.73-14.43-.05 0-.1 0-.14 0-.25 0-.5 0-.76 0-.12 0-.25 0-.37 0-.08 0-.15 0-.23 0zM17.9 8.2c.07 0 .13 0 .2 0 .15 0 .3 0 .44 0 3.1 0 5.63 1.82 5.63 4.04 0 2.22-2.53 4-5.63 4s-5.63-1.78-5.63-4c0-2.06 2.2-3.8 5-4.03zm12.26 4.9c.07 0 .13 0 .2 0 .13 0 .24 0 .37 0 .05 0 .08 0 .13 0 3.3 0 6 1.94 6 4.3 0 2.37-2.7 4.27-6 4.27s-6-1.9-6-4.26c0-2.18 2.34-4.03 5.3-4.3zm-20.5 3.37c.25-.02.5 0 .75 0 3.4 0 6.17 1.97 6.17 4.4 0 2.44-2.76 4.4-6.16 4.4-3.4 0-6.16-1.96-6.16-4.4 0-2.26 2.36-4.15 5.43-4.4zm12.3 5.47c.03 0 .05 0 .07 0 0 0 .03 0 .04 0 0 0 .03 0 .03 0s.03 0 .03 0c.03 0 .08 0 .1 0 0 0 .03 0 .04 0 .25-.02.5 0 .76 0 3.77 0 6.83 2.16 6.83 4.86s-3.06 4.9-6.83 4.9c-3.76 0-6.83-2.2-6.83-4.9 0-2.43 2.52-4.48 5.77-4.86z" color="#000" stroke-linecap="round" stroke-linejoin="round" overflow="visible"/><path fill="none" stroke="url(#j)" stroke-width=".994" d="M40.66 19A18.47 13.44 0 1 1 3.7 19a18.47 13.44 0 1 1 36.96 0z" transform="matrix(1.013 0 0 1 -1.57 1.185)" color="#000" stroke-linecap="round" stroke-linejoin="round" overflow="visible"/><path fill="url(#k)" fill-rule="evenodd" d="M46.85 34.43l-1.15 6.45c-2.78-.93-4.46-1.67-7.54-2.4l.35-5.25c2.04-.2 5.2.16 8.35 1.2z" color="#000" overflow="visible"/><path fill="url(#l)" fill-rule="evenodd" d="M46.85 34.24l-.2.93c-8.64-3.23-16.6-.24-24.92 0 11.3-.94 15.02-3.96 25.12-.93z" opacity=".703" color="#000" overflow="visible"/></g></svg>