<svg xmlns="http://www.w3.org/2000/svg" width="48" height="48" xmlns:ns="&ns_ai;" xmlns:xlink="http://www.w3.org/1999/xlink" version="1"><defs><radialGradient cx="40.541" cy="486.093" r="2.869" xlink:href="#a" gradientUnits="userSpaceOnUse" gradientTransform="matrix(-1 0 0 1 55.359 0)" fx="40.541" fy="486.093"/><linearGradient x1="-165.394" x2="-170.38" y1="-93.119" y2="-104.198" xlink:href="#b" gradientUnits="userSpaceOnUse" gradientTransform="matrix(-.574 -.819 .819 -.574 -3.236 298.158)"/><linearGradient x1="-165.82" x2="-170.229" y1="-93.99" y2="-103.786" xlink:href="#c" gradientUnits="userSpaceOnUse" gradientTransform="matrix(.42 -3.62 3.596 .431 439.543 -537.551)"/><radialGradient cx="40.541" cy="486.093" r="2.869" xlink:href="#a" gradientUnits="userSpaceOnUse" gradientTransform="matrix(-1 0 0 1 55.359 0)" fx="40.541" fy="486.093"/><linearGradient x1="-165.394" x2="-170.38" y1="-93.119" y2="-104.198" xlink:href="#b" gradientUnits="userSpaceOnUse" gradientTransform="matrix(-.574 -.819 .819 -.574 -3.236 298.158)"/><linearGradient x1="-165.82" x2="-170.229" y1="-93.99" y2="-103.786" xlink:href="#c" gradientUnits="userSpaceOnUse" gradientTransform="matrix(.42 -3.62 3.596 .431 439.543 -537.551)"/><radialGradient cx="40.541" cy="486.093" r="2.869" xlink:href="#a" gradientUnits="userSpaceOnUse" gradientTransform="matrix(-1 0 0 1 55.359 0)" fx="40.541" fy="486.093"/><linearGradient x1="-165.394" x2="-170.38" y1="-93.119" y2="-104.198" xlink:href="#b" gradientUnits="userSpaceOnUse" gradientTransform="matrix(-.574 -.819 .819 -.574 -3.236 298.158)"/><linearGradient x1="-165.82" x2="-170.229" y1="-93.99" y2="-103.786" xlink:href="#c" gradientUnits="userSpaceOnUse" gradientTransform="matrix(.42 -3.62 3.596 .431 439.543 -537.551)"/><linearGradient id="b" x1="-165.394" x2="-170.38" y1="-93.119" y2="-104.198" gradientTransform="matrix(-.574 -.819 .819 -.574 -3.236 298.158)" gradientUnits="userSpaceOnUse"><stop offset="0" stop-color="#88A9C3"/><stop offset="1" stop-color="#fff" stop-opacity="0"/></linearGradient><linearGradient x1="-165.394" x2="-170.38" y1="-93.119" y2="-104.198" xlink:href="#b" gradientUnits="userSpaceOnUse" gradientTransform="matrix(-.574 -.819 .819 -.574 -3.236 298.158)"/><linearGradient id="c" x1="-165.82" x2="-170.229" y1="-93.99" y2="-103.786" gradientTransform="matrix(-.574 -.819 .819 -.574 -6.75 -152.536)" gradientUnits="userSpaceOnUse"><stop offset="0" stop-color="#6F87A0"/><stop offset="1" stop-color="#fff" stop-opacity="0"/></linearGradient><linearGradient x1="-165.82" x2="-170.229" y1="-93.99" y2="-103.786" xlink:href="#c" gradientUnits="userSpaceOnUse" gradientTransform="matrix(.42 -3.62 3.596 .431 439.543 -537.551)"/><radialGradient id="a" cx="40.541" cy="486.093" r="2.869" gradientUnits="userSpaceOnUse" gradientTransform="matrix(-1 0 0 1 55.359 0)" fy="486.093" fx="40.541"><stop offset="0" stop-color="#fff"/><stop offset=".004" stop-color="#FDFDFE"/><stop offset=".107" stop-color="#C7D5E5"/><stop offset=".212" stop-color="#98B3CF"/><stop offset=".315" stop-color="#7297BD"/><stop offset=".417" stop-color="#5481B0"/><stop offset=".517" stop-color="#3F72A6"/><stop offset=".615" stop-color="#3268A0"/><stop offset=".708" stop-color="#2E659E"/><stop offset="1" stop-color="#193766"/></radialGradient><radialGradient cx="40.541" cy="486.093" r="2.869" xlink:href="#a" gradientUnits="userSpaceOnUse" gradientTransform="matrix(-1 0 0 1 55.359 0)" fx="40.541" fy="486.093"/><linearGradient id="d"><stop offset="0" stop-color="#ffd412"/><stop offset="1" stop-color="#c4a000" stop-opacity="0"/></linearGradient><linearGradient x1="33.046" x2="21.182" y1="4.195" y2="22.564" xlink:href="#d" gradientUnits="userSpaceOnUse"/><linearGradient x1="14.634" x2="26.324" y1="4.512" y2="22.746" xlink:href="#e" gradientUnits="userSpaceOnUse"/><linearGradient id="e"><stop offset="0" stop-color="#c4a000"/><stop offset="1" stop-color="#c4a000" stop-opacity="0"/></linearGradient><linearGradient x1="34.189" x2="47.531" y1="4.512" y2="10.175" xlink:href="#e" gradientUnits="userSpaceOnUse"/><linearGradient id="f"><stop offset="0" stop-color="#fce94f"/><stop offset="1" stop-color="#fce94f" stop-opacity="0"/></linearGradient><linearGradient x1="24.496" x2="24.018" y1="30.877" y2="44.528" xlink:href="#f" gradientUnits="userSpaceOnUse"/><linearGradient id="g"><stop offset="0" stop-color="#ffec6c"/><stop offset=".625" stop-color="#ffa337"/><stop offset="1" stop-color="#c36000"/></linearGradient><linearGradient x1="24.911" x2="23.853" y1="13.164" y2="46.705" xlink:href="#g" gradientUnits="userSpaceOnUse" gradientTransform="matrix(.956 0 0 .956 .997 -.003)"/><linearGradient id="h"><stop offset="0" stop-color="#ffd00d"/><stop offset=".5" stop-color="#ff8841"/><stop offset="1" stop-color="#a40000"/></linearGradient><linearGradient x1="27.069" x2="26.266" y1="13.164" y2="44.864" xlink:href="#h" gradientUnits="userSpaceOnUse" gradientTransform="matrix(.956 0 0 .956 .997 -.003)"/><linearGradient id="i"><stop offset="0" stop-color="#fff"/><stop offset="1" stop-color="#fff" stop-opacity="0"/></linearGradient><linearGradient x1="18.238" x2="24.573" y1="2.256" y2="29.779" xlink:href="#i" gradientUnits="userSpaceOnUse"/><linearGradient id="j"><stop offset="0" stop-color="#361f3c"/><stop offset="1" stop-color="#894f99"/></linearGradient><linearGradient x1="24.516" x2="32.563" y1="14.73" y2="1.016" xlink:href="#j" gradientUnits="userSpaceOnUse" gradientTransform="matrix(.956 0 0 .956 .997 -.003)"/><linearGradient id="k"><stop offset="0" stop-color="#6f2b8c"/><stop offset="1" stop-color="#ad7fa8"/></linearGradient><linearGradient x1="24.389" x2="33.325" y1="19.365" y2="5.016" xlink:href="#k" gradientUnits="userSpaceOnUse" gradientTransform="matrix(.956 0 0 .956 .997 -.003)"/><linearGradient id="l"><stop offset="0" stop-color="#361f3c"/><stop offset="1" stop-color="#6a3d76"/></linearGradient><linearGradient x1="12.77" x2="6.802" y1="8.325" y2="4.77" xlink:href="#l" gradientUnits="userSpaceOnUse" gradientTransform="matrix(.956 0 0 .956 .997 -.003)"/><linearGradient id="m"><stop offset="0" stop-color="#894f98"/><stop offset="1" stop-color="#321c37"/></linearGradient><linearGradient x1="32" x2="48.063" y1="7.746" y2="7.746" xlink:href="#m" gradientUnits="userSpaceOnUse" gradientTransform="matrix(.956 0 0 .956 .997 -.003)"/><linearGradient id="n"><stop offset="0" stop-color="#672179"/><stop offset="1" stop-color="#c666bc"/></linearGradient><linearGradient x1="24" x2="24" y1="29.167" y2="8.341" xlink:href="#n" gradientUnits="userSpaceOnUse" gradientTransform="matrix(.956 0 0 .956 .997 -.003)"/><linearGradient id="o"><stop offset="0"/><stop offset="1" stop-opacity="0"/></linearGradient><radialGradient id="p" cx="33.161" cy="46.365" r="28.435" fx="33.161" fy="46.365" gradientTransform="matrix(-1 0 0 1 55.359 0)" gradientUnits="userSpaceOnUse"><stop offset="0" stop-color="#fff"/><stop offset=".09" stop-color="#F9FAFA"/><stop offset=".211" stop-color="#E8EBED"/><stop offset=".35" stop-color="#CCD2D7"/><stop offset=".5" stop-color="#A5B0B8"/><stop offset=".579" stop-color="#8E9CA6"/><stop offset="1" stop-color="#505359"/></radialGradient><radialGradient id="q" cx="38.921" cy="39.927" r="34.589" fx="38.921" fy="39.927" gradientTransform="matrix(-1 0 0 1 55.359 0)" gradientUnits="userSpaceOnUse"><stop offset="0" stop-color="#fff"/><stop offset="1" stop-color="#8D9BA6"/></radialGradient><radialGradient cx="24.205" cy="40.568" r="18.837" xlink:href="#o" fx="24.205" fy="40.568" gradientTransform="matrix(1 0 0 .263 0 29.898)" gradientUnits="userSpaceOnUse"/><radialGradient cx="24.205" cy="40.568" r="18.837" xlink:href="#o" gradientUnits="userSpaceOnUse" gradientTransform="matrix(1 0 0 .263 0 29.898)" fx="24.205" fy="40.568"/><radialGradient cx="33.161" cy="46.365" r="28.435" xlink:href="#p" gradientUnits="userSpaceOnUse" gradientTransform="matrix(-1 0 0 1 55.359 0)" fx="33.161" fy="46.365"/><radialGradient cx="38.921" cy="39.927" r="34.589" xlink:href="#q" gradientUnits="userSpaceOnUse" gradientTransform="matrix(-1 0 0 1 55.359 0)" fx="38.921" fy="39.927"/><linearGradient x1="33.046" x2="21.182" y1="4.195" y2="22.564" xlink:href="#d" gradientUnits="userSpaceOnUse" gradientTransform="matrix(.762 0 0 .762 12.07 12.55)"/><linearGradient x1="14.634" x2="26.324" y1="4.512" y2="22.746" xlink:href="#e" gradientUnits="userSpaceOnUse" gradientTransform="matrix(.762 0 0 .762 12.07 12.55)"/><linearGradient x1="34.189" x2="47.531" y1="4.512" y2="10.175" xlink:href="#e" gradientUnits="userSpaceOnUse" gradientTransform="matrix(.762 0 0 .762 12.07 12.55)"/><linearGradient x1="24.496" x2="24.018" y1="30.877" y2="44.528" xlink:href="#f" gradientUnits="userSpaceOnUse" gradientTransform="matrix(.762 0 0 .762 12.07 12.55)"/><linearGradient x1="27.069" x2="26.266" y1="13.164" y2="44.864" xlink:href="#h" gradientUnits="userSpaceOnUse" gradientTransform="matrix(.729 0 0 .729 12.83 12.548)"/><linearGradient x1="24.911" x2="23.853" y1="13.164" y2="46.705" xlink:href="#g" gradientUnits="userSpaceOnUse" gradientTransform="matrix(.729 0 0 .729 12.83 12.548)"/><linearGradient x1="18.238" x2="24.573" y1="2.256" y2="29.779" xlink:href="#i" gradientUnits="userSpaceOnUse" gradientTransform="matrix(.762 0 0 .702 12.07 13.462)"/><linearGradient x1="24.389" x2="33.325" y1="19.365" y2="5.016" xlink:href="#k" gradientUnits="userSpaceOnUse" gradientTransform="matrix(.729 0 0 .729 12.83 12.548)"/><linearGradient x1="24.516" x2="32.563" y1="14.73" y2="1.016" xlink:href="#j" gradientUnits="userSpaceOnUse" gradientTransform="matrix(.729 0 0 .729 12.83 12.548)"/><linearGradient x1="12.77" x2="6.802" y1="8.325" y2="4.77" xlink:href="#l" gradientUnits="userSpaceOnUse" gradientTransform="matrix(.729 0 0 .729 12.83 12.548)"/><linearGradient x1="32" x2="48.063" y1="7.746" y2="7.746" xlink:href="#m" gradientUnits="userSpaceOnUse" gradientTransform="matrix(.729 0 0 .729 12.83 12.548)"/><linearGradient x1="24" x2="24" y1="29.167" y2="8.341" xlink:href="#n" gradientUnits="userSpaceOnUse" gradientTransform="matrix(.729 0 0 .729 12.83 12.548)"/><linearGradient id="r" x1="-165.82" x2="-170.229" y1="-93.99" y2="-103.786" xlink:href="#c" gradientUnits="userSpaceOnUse" gradientTransform="matrix(.42 -3.62 3.596 .431 439.543 -537.551)"/><linearGradient id="s" x1="-165.394" x2="-170.38" y1="-93.119" y2="-104.198" xlink:href="#b" gradientUnits="userSpaceOnUse" gradientTransform="matrix(-.574 -.819 .819 -.574 -3.236 298.158)"/><radialGradient id="t" cx="40.541" cy="486.093" r="2.869" xlink:href="#a" gradientUnits="userSpaceOnUse" gradientTransform="matrix(-1 0 0 1 55.359 0)" fx="40.541" fy="486.093"/><linearGradient id="u" x1="-165.82" x2="-170.229" y1="-93.99" y2="-103.786" xlink:href="#c" gradientUnits="userSpaceOnUse" gradientTransform="matrix(.42 -3.62 3.596 .431 439.543 -537.551)"/><linearGradient id="v" x1="-165.394" x2="-170.38" y1="-93.119" y2="-104.198" xlink:href="#b" gradientUnits="userSpaceOnUse" gradientTransform="matrix(-.574 -.819 .819 -.574 -3.236 298.158)"/><radialGradient id="w" cx="40.541" cy="486.093" r="2.869" xlink:href="#a" gradientUnits="userSpaceOnUse" gradientTransform="matrix(-1 0 0 1 55.359 0)" fx="40.541" fy="486.093"/><linearGradient id="x" x1="-165.82" x2="-170.229" y1="-93.99" y2="-103.786" xlink:href="#c" gradientUnits="userSpaceOnUse" gradientTransform="matrix(.42 -3.62 3.596 .431 439.543 -537.551)"/><linearGradient id="y" x1="-165.394" x2="-170.38" y1="-93.119" y2="-104.198" xlink:href="#b" gradientUnits="userSpaceOnUse" gradientTransform="matrix(-.574 -.819 .819 -.574 -3.236 298.158)"/><radialGradient id="z" cx="40.541" cy="486.093" r="2.869" xlink:href="#a" gradientUnits="userSpaceOnUse" gradientTransform="matrix(-1 0 0 1 55.359 0)" fx="40.541" fy="486.093"/><linearGradient id="A" x1="-165.82" x2="-170.229" y1="-93.99" y2="-103.786" xlink:href="#c" gradientUnits="userSpaceOnUse" gradientTransform="matrix(.42 -3.62 3.596 .431 439.543 -537.551)"/><linearGradient id="B" x1="-165.394" x2="-170.38" y1="-93.119" y2="-104.198" xlink:href="#b" gradientUnits="userSpaceOnUse" gradientTransform="matrix(-.574 -.819 .819 -.574 -3.236 298.158)"/><radialGradient id="C" cx="40.541" cy="486.093" r="2.869" xlink:href="#a" gradientUnits="userSpaceOnUse" gradientTransform="matrix(-1 0 0 1 55.359 0)" fx="40.541" fy="486.093"/><linearGradient id="D" x1="24" x2="24" y1="29.167" y2="8.341" xlink:href="#n" gradientUnits="userSpaceOnUse" gradientTransform="matrix(.729 0 0 .729 12.83 12.548)"/><linearGradient id="E" x1="32" x2="48.063" y1="7.746" y2="7.746" xlink:href="#m" gradientUnits="userSpaceOnUse" gradientTransform="matrix(.729 0 0 .729 12.83 12.548)"/><linearGradient id="F" x1="12.77" x2="6.802" y1="8.325" y2="4.77" xlink:href="#l" gradientUnits="userSpaceOnUse" gradientTransform="matrix(.729 0 0 .729 12.83 12.548)"/><linearGradient id="G" x1="24.389" x2="33.325" y1="19.365" y2="5.016" xlink:href="#k" gradientUnits="userSpaceOnUse" gradientTransform="matrix(.729 0 0 .729 12.83 12.548)"/><linearGradient id="H" x1="24.516" x2="32.563" y1="14.73" y2="1.016" xlink:href="#j" gradientUnits="userSpaceOnUse" gradientTransform="matrix(.729 0 0 .729 12.83 12.548)"/><linearGradient id="I" x1="18.238" x2="24.573" y1="2.256" y2="29.779" xlink:href="#i" gradientUnits="userSpaceOnUse" gradientTransform="matrix(.762 0 0 .702 12.07 13.462)"/><linearGradient id="J" x1="27.069" x2="26.266" y1="13.164" y2="44.864" xlink:href="#h" gradientUnits="userSpaceOnUse" gradientTransform="matrix(.729 0 0 .729 12.83 12.548)"/><linearGradient id="K" x1="24.911" x2="23.853" y1="13.164" y2="46.705" xlink:href="#g" gradientUnits="userSpaceOnUse" gradientTransform="matrix(.729 0 0 .729 12.83 12.548)"/><linearGradient id="L" x1="24.496" x2="24.018" y1="30.877" y2="44.528" xlink:href="#f" gradientUnits="userSpaceOnUse" gradientTransform="matrix(.762 0 0 .762 12.07 12.55)"/><linearGradient id="M" x1="34.189" x2="47.531" y1="4.512" y2="10.175" xlink:href="#e" gradientUnits="userSpaceOnUse" gradientTransform="matrix(.762 0 0 .762 12.07 12.55)"/><linearGradient id="N" x1="14.634" x2="26.324" y1="4.512" y2="22.746" xlink:href="#e" gradientUnits="userSpaceOnUse" gradientTransform="matrix(.762 0 0 .762 12.07 12.55)"/><linearGradient id="O" x1="33.046" x2="21.182" y1="4.195" y2="22.564" xlink:href="#d" gradientUnits="userSpaceOnUse" gradientTransform="matrix(.762 0 0 .762 12.07 12.55)"/></defs><g><g transform="matrix(.781 0 0 .781 26.296 20.384)"><g transform="matrix(.763 0 0 .763 -17.258 -26.712)"><g><path fill="url(#r)" d="M-3.54 29.77c2.54-.98 30.17-12.44 33.38-13.7.8 2.8 3.35 9.7 4.1 12.28-2.98.9-35.18 8.97-38.47 9.98l1-8.56z" ns:knockout="Off" transform="matrix(.83 -.483 .483 .83 -28.125 10.168)"/><g transform="matrix(3.418 .71 -.685 3.419 292.252 -1665.192)"><linearGradient x1="-165.394" x2="-170.38" y1="-93.119" y2="-104.198" gradientUnits="userSpaceOnUse" gradientTransform="matrix(-.574 -.819 .819 -.574 -3.236 298.158)"><stop offset="0" stop-color="#88A9C3"/><stop offset="1" stop-color="#fff"/></linearGradient><path fill="url(#s)" d="M10.96 498.84l6.7-10.4-4.57-2.83-4.8 9.44 2.66 3.8zm-2-2.85c.34-.68 3.94-8.12 4.38-8.96.68.42 2.46 1.37 3.08 1.76-.45.73-5.6 8.3-6.1 9.13L8.96 496z" ns:knockout="Off"/></g></g><circle cx="15.3" cy="487.164" r="2.072" fill="url(#t)" stroke="#132e54" stroke-width=".593" transform="matrix(3.162 2.839 -2.813 3.177 1333.297 -1580.609)" ns:knockout="Off"/></g><g transform="matrix(.763 0 0 .763 -26.687 -7.341)"><g><path fill="url(#u)" d="M-3.54 29.77c2.54-.98 30.17-12.44 33.38-13.7.8 2.8 3.35 9.7 4.1 12.28-2.98.9-35.18 8.97-38.47 9.98l1-8.56z" ns:knockout="Off" transform="matrix(.83 -.483 .483 .83 -28.125 10.168)"/><g transform="matrix(3.418 .71 -.685 3.419 292.252 -1665.192)"><linearGradient x1="-165.394" x2="-170.38" y1="-93.119" y2="-104.198" gradientUnits="userSpaceOnUse" gradientTransform="matrix(-.574 -.819 .819 -.574 -3.236 298.158)"><stop offset="0" stop-color="#88A9C3"/><stop offset="1" stop-color="#fff"/></linearGradient><path fill="url(#v)" d="M10.96 498.84l6.7-10.4-4.57-2.83-4.8 9.44 2.66 3.8zm-2-2.85c.34-.68 3.94-8.12 4.38-8.96.68.42 2.46 1.37 3.08 1.76-.45.73-5.6 8.3-6.1 9.13L8.96 496z" ns:knockout="Off"/></g></g><circle cx="15.3" cy="487.164" r="2.072" fill="url(#w)" stroke="#132e54" stroke-width=".593" transform="matrix(3.162 2.839 -2.813 3.177 1333.297 -1580.609)" ns:knockout="Off"/></g><g transform="matrix(.763 0 0 .763 -.169 -17.079)"><g><path fill="url(#x)" d="M-3.54 29.77c2.54-.98 30.17-12.44 33.38-13.7.8 2.8 3.35 9.7 4.1 12.28-2.98.9-35.18 8.97-38.47 9.98l1-8.56z" ns:knockout="Off" transform="matrix(.83 -.483 .483 .83 -28.125 10.168)"/><g transform="matrix(3.418 .71 -.685 3.419 292.252 -1665.192)"><linearGradient x1="-165.394" x2="-170.38" y1="-93.119" y2="-104.198" gradientUnits="userSpaceOnUse" gradientTransform="matrix(-.574 -.819 .819 -.574 -3.236 298.158)"><stop offset="0" stop-color="#88A9C3"/><stop offset="1" stop-color="#fff"/></linearGradient><path fill="url(#y)" d="M10.96 498.84l6.7-10.4-4.57-2.83-4.8 9.44 2.66 3.8zm-2-2.85c.34-.68 3.94-8.12 4.38-8.96.68.42 2.46 1.37 3.08 1.76-.45.73-5.6 8.3-6.1 9.13L8.96 496z" ns:knockout="Off"/></g></g><circle cx="15.3" cy="487.164" r="2.072" fill="url(#z)" stroke="#132e54" stroke-width=".593" transform="matrix(3.162 2.839 -2.813 3.177 1333.297 -1580.609)" ns:knockout="Off"/></g><g><path fill="url(#A)" d="M-3.54 29.77c2.54-.98 30.17-12.44 33.38-13.7.8 2.8 3.35 9.7 4.1 12.28-2.98.9-35.18 8.97-38.47 9.98l1-8.56z" ns:knockout="Off" transform="matrix(.667 -.335 .388 .576 -30.225 6.435)"/><g transform="matrix(2.747 .493 -.551 2.372 227.43 -1156.003)"><linearGradient x1="-165.394" x2="-170.38" y1="-93.119" y2="-104.198" gradientTransform="matrix(-.574 -.819 .819 -.574 -3.236 298.158)" gradientUnits="userSpaceOnUse"><stop offset="0" stop-color="#88A9C3"/><stop offset="1" stop-color="#fff"/></linearGradient><path fill="url(#B)" d="M10.96 498.84l6.7-10.4-4.57-2.83-4.8 9.44 2.66 3.8zm-2-2.85c.34-.68 3.94-8.12 4.38-8.96.68.42 2.46 1.37 3.08 1.76-.45.73-5.6 8.3-6.1 9.13L8.96 496z" ns:knockout="Off"/></g></g><circle cx="15.3" cy="487.164" r="2.072" fill="url(#C)" stroke="#132e54" stroke-width=".593" ns:knockout="Off" transform="matrix(2.411 2.165 -2.145 2.423 1008.135 -1204.531)"/></g><g><path fill="url(#D)" fill-rule="evenodd" stroke="#361f3c" stroke-width="1.039" d="M30.28 47.2l17.18-23.76-8.9-5.42-8.23 13.64-8.25-13.64-8.9 5.42L30.3 47.2z" transform="matrix(.863 0 0 .863 6.584 6.542)"/><path fill="url(#E)" fill-rule="evenodd" stroke="#361f3c" stroke-width="1.039" d="M47.5 23.43l-4.64-7.05-6.1-3.28 1.73 5 9 5.33z" stroke-linejoin="bevel" overflow="visible" transform="matrix(.863 0 0 .863 6.584 6.542)"/><path fill="#5c3566" fill-rule="evenodd" stroke="#361f3c" stroke-width=".86.039" d="M25.6 22.2l1.68-4.47 5.52 9.07-.04 7-7.15-11.6z" stroke-linejoin="bevel"/><path fill="#ad7fa8" fill-rule="evenodd" stroke="url(#F)" stroke-width="1.039" d="M12.96 23.44l4.83-7.14 6.2-3.2-1.83 4.9-9.2 5.44z" stroke-linejoin="bevel" transform="matrix(.863 0 0 .863 6.584 6.542)"/><path fill="url(#G)" fill-rule="evenodd" stroke="url(#H)" stroke-width="1.039" d="M38.56 18.1l-1.94-5.18-6.16 10.78-.18 8 8.28-13.6z" stroke-linejoin="bevel" overflow="visible" transform="matrix(.863 0 0 .863 6.584 6.542)"/><path fill="none" stroke="#fce94f" stroke-width=".86.039" d="M32.72 46.22l13.9-19.26-6.55-3.93-7.3 12.1-7.37-12.1-6.5 3.93L32.7 46.22z"/><path fill="none" stroke="url(#I)" stroke-width="1.039" d="M30.28 43.1l15.04-19.24-6.23-3.43-8.84 14.06-8.75-14.07-6.23 3.43 15 19.25z" transform="matrix(.863 0 0 .863 6.584 6.542)"/><path fill="url(#J)" fill-rule="evenodd" stroke="url(#K)" stroke-width="1.039" d="M42.43 29.12c.3-1.4.4-2.8-.64-4.34-.2 3.1-1.15 2.3-1.8 4.68-.33-3.34-1.52-4.12-1.57-6.95-2.35 4.06.12 7.04-2.8 10.62-.6-1.82 1-3.84-.44-5.7-1.42 5.37-3.14 2.6-4.5 7.9-.36-1.05-.85-2.08-1.5-2.98-.68 1.45-1.55 2.7-1.1 4.38-3.3-3.73-.36-5.58-2.27-8.87-.5 3.12-1.5 1.93-2.15 4.82-.83-1.05-.65-2.07-.84-3.24-.5-1.37-1.05-1.56-1.82-2.77.8 4.86-1.44 3.1-.97 4.96l10.23 14.3 12.15-16.8z" transform="matrix(.863 0 0 .863 6.584 6.542)"/><path fill="none" stroke="url(#L)" stroke-width="1.039" d="M42.12 28.78c-.08-.82.32-1.48-.22-2.58-.68 2.57-1.58 1.75-2.15 3.8-.46-3.06-1.4-2.94-1.58-5.8-.22 3.72-.3 7.44-2.82 10.53-1.03-2-.02-4.08.08-6.32-2.23 5.8-3 1.95-4.8 8.96-.3-.9-.82-3-1.37-3.77-.6 1.25-1.34 2.98-.95 4.4-3.8-3.7-2.02-5.8-2.36-8.83-.82 2.7-1.62 1.76-2.18 4.57-1.97-2-.42-3.84-2.1-5.45.13 2.32-1.06 1.8-.93 3.24l9.5 13.23 11.9-16z" transform="matrix(.863 0 0 .863 6.584 6.542)"/><path fill="none" stroke="#fce94f" stroke-width=".4472" d="M19.17 25.45l3.1-4.44 4.06-2.15-1.12 3-6.03 3.6z"/><path fill="none" stroke="url(#M)" stroke-width=".52" d="M46.14 22.13l-3.7-5.4-4.72-2.5 1.32 3.6 7.1 4.3z" overflow="visible" transform="matrix(.863 0 0 .863 6.584 6.542)"/><path fill="none" stroke="url(#N)" stroke-width=".52" d="M22.64 18.08l1.48-3.8 5.7 9.5v5.92l-7.18-11.62z" transform="matrix(.863 0 0 .863 6.584 6.542)"/><path fill="none" stroke="url(#O)" stroke-width=".52" d="M37.9 18l-1.37-3.76-5.5 9.5-.15 5.82L37.9 18z" overflow="visible" transform="matrix(.863 0 0 .863 6.584 6.542)"/></g></g></svg>