<svg xmlns="http://www.w3.org/2000/svg" width="48" height="48" xmlns:xlink="http://www.w3.org/1999/xlink" version="1" viewBox="0 0 612 792" enable-background="new 0 0 612 792"><defs><linearGradient x1="297.807" x2="307.318" y1="398.467" y2="398.799" xlink:href="#a" gradientUnits="userSpaceOnUse"/><linearGradient x1="285.26" x2="296.233" y1="395.689" y2="397.924" xlink:href="#b" gradientUnits="userSpaceOnUse"/><linearGradient x1="297.931" x2="307.236" y1="416.285" y2="416.611" xlink:href="#c" gradientUnits="userSpaceOnUse"/><linearGradient x1="285.31" x2="296.084" y1="413.75" y2="415.945" xlink:href="#d" gradientUnits="userSpaceOnUse"/><linearGradient x1="294.255" x2="295.843" y1="398.066" y2="398.13" xlink:href="#e" gradientUnits="userSpaceOnUse"/><linearGradient x1="294.278" x2="295.887" y1="415.917" y2="415.981" xlink:href="#f" gradientUnits="userSpaceOnUse"/><linearGradient x1="285.241" x2="284.96" y1="404.596" y2="404.596" xlink:href="#g" gradientUnits="userSpaceOnUse"/><linearGradient x1="296.048" x2="295.767" y1="406.585" y2="406.585" xlink:href="#h" gradientUnits="userSpaceOnUse"/><linearGradient x1="310.266" x2="309.985" y1="407.215" y2="407.215" xlink:href="#i" gradientUnits="userSpaceOnUse"/><linearGradient x1="321.836" x2="321.555" y1="404.695" y2="404.695" xlink:href="#j" gradientUnits="userSpaceOnUse"/><linearGradient x1="304.576" x2="310.237" y1="378.983" y2="386.623" xlink:href="#k" gradientUnits="userSpaceOnUse" gradientTransform="matrix(1.122 .16 .16 1.209 -96.836 -127.514)"/><linearGradient x1="312.753" x2="314.5" y1="382.413" y2="386.246" xlink:href="#l" gradientUnits="userSpaceOnUse" gradientTransform="matrix(1.075 .157 .157 1.329 -82.674 -173.356)"/><linearGradient id="a" x1="297.807" x2="307.318" y1="398.467" y2="398.799" gradientUnits="userSpaceOnUse"><stop offset="0" stop-color="#fff"/><stop offset=".096" stop-color="#F5F5F6" stop-opacity=".904"/><stop offset=".357" stop-color="#E7E8E8" stop-opacity=".643"/><stop offset=".643" stop-color="#DEDFE1" stop-opacity=".357"/><stop offset="1" stop-color="#DCDDDE" stop-opacity="0"/></linearGradient><linearGradient id="b" x1="285.26" x2="296.233" y1="395.689" y2="397.924" gradientUnits="userSpaceOnUse"><stop offset="0" stop-color="#fff"/><stop offset=".096" stop-color="#F5F5F6" stop-opacity=".904"/><stop offset=".357" stop-color="#E7E8E8" stop-opacity=".643"/><stop offset=".643" stop-color="#DEDFE1" stop-opacity=".357"/><stop offset="1" stop-color="#DCDDDE" stop-opacity="0"/></linearGradient><linearGradient id="c" x1="297.931" x2="307.236" y1="416.285" y2="416.611" gradientUnits="userSpaceOnUse"><stop offset="0" stop-color="#fff"/><stop offset=".096" stop-color="#F5F5F6" stop-opacity=".904"/><stop offset=".357" stop-color="#E7E8E8" stop-opacity=".643"/><stop offset=".643" stop-color="#DEDFE1" stop-opacity=".357"/><stop offset="1" stop-color="#DCDDDE" stop-opacity="0"/></linearGradient><linearGradient id="d" x1="285.31" x2="296.084" y1="413.75" y2="415.945" gradientUnits="userSpaceOnUse"><stop offset="0" stop-color="#fff"/><stop offset=".096" stop-color="#F5F5F6" stop-opacity=".904"/><stop offset=".357" stop-color="#E7E8E8" stop-opacity=".643"/><stop offset=".643" stop-color="#DEDFE1" stop-opacity=".357"/><stop offset="1" stop-color="#DCDDDE" stop-opacity="0"/></linearGradient><linearGradient id="e" x1="294.255" x2="295.843" y1="398.066" y2="398.13" gradientUnits="userSpaceOnUse"><stop offset="0" stop-color="#fff"/><stop offset=".096" stop-color="#F5F5F6" stop-opacity=".904"/><stop offset=".357" stop-color="#E7E8E8" stop-opacity=".643"/><stop offset=".643" stop-color="#DEDFE1" stop-opacity=".357"/><stop offset="1" stop-color="#DCDDDE" stop-opacity="0"/></linearGradient><linearGradient id="f" x1="294.278" x2="295.887" y1="415.917" y2="415.981" gradientUnits="userSpaceOnUse"><stop offset="0" stop-color="#fff"/><stop offset=".096" stop-color="#F5F5F6" stop-opacity=".904"/><stop offset=".357" stop-color="#E7E8E8" stop-opacity=".643"/><stop offset=".643" stop-color="#DEDFE1" stop-opacity=".357"/><stop offset="1" stop-color="#DCDDDE" stop-opacity="0"/></linearGradient><linearGradient id="g" x1="285.241" x2="284.96" y1="404.596" y2="404.596" gradientUnits="userSpaceOnUse"><stop offset="0" stop-color="#8C907A"/><stop offset=".016" stop-color="#90947E" stop-opacity=".984"/><stop offset=".154" stop-color="#AFB29C" stop-opacity=".846"/><stop offset=".298" stop-color="#CACCB5" stop-opacity=".702"/><stop offset=".449" stop-color="#E0E0CA" stop-opacity=".551"/><stop offset=".609" stop-color="#F0EED8" stop-opacity=".392"/><stop offset=".783" stop-color="#FBF8E2" stop-opacity=".217"/><stop offset="1" stop-color="#FFFDE7" stop-opacity="0"/></linearGradient><linearGradient id="h" x1="296.048" x2="295.767" y1="406.585" y2="406.585" gradientUnits="userSpaceOnUse"><stop offset="0" stop-color="#8C907A"/><stop offset=".016" stop-color="#90947E" stop-opacity=".984"/><stop offset=".154" stop-color="#AFB29C" stop-opacity=".846"/><stop offset=".298" stop-color="#CACCB5" stop-opacity=".702"/><stop offset=".449" stop-color="#E0E0CA" stop-opacity=".551"/><stop offset=".609" stop-color="#F0EED8" stop-opacity=".392"/><stop offset=".783" stop-color="#FBF8E2" stop-opacity=".217"/><stop offset="1" stop-color="#FFFDE7" stop-opacity="0"/></linearGradient><linearGradient id="i" x1="310.266" x2="309.985" y1="407.215" y2="407.215" gradientUnits="userSpaceOnUse"><stop offset="0" stop-color="#8C907A"/><stop offset=".016" stop-color="#90947E" stop-opacity=".984"/><stop offset=".154" stop-color="#AFB29C" stop-opacity=".846"/><stop offset=".298" stop-color="#CACCB5" stop-opacity=".702"/><stop offset=".449" stop-color="#E0E0CA" stop-opacity=".551"/><stop offset=".609" stop-color="#F0EED8" stop-opacity=".392"/><stop offset=".783" stop-color="#FBF8E2" stop-opacity=".217"/><stop offset="1" stop-color="#FFFDE7" stop-opacity="0"/></linearGradient><linearGradient id="j" x1="321.836" x2="321.555" y1="404.695" y2="404.695" gradientUnits="userSpaceOnUse"><stop offset="0" stop-color="#8C907A"/><stop offset=".016" stop-color="#90947E" stop-opacity=".984"/><stop offset=".154" stop-color="#AFB29C" stop-opacity=".846"/><stop offset=".298" stop-color="#CACCB5" stop-opacity=".702"/><stop offset=".449" stop-color="#E0E0CA" stop-opacity=".551"/><stop offset=".609" stop-color="#F0EED8" stop-opacity=".392"/><stop offset=".783" stop-color="#FBF8E2" stop-opacity=".217"/><stop offset="1" stop-color="#FFFDE7" stop-opacity="0"/></linearGradient><linearGradient id="k" x1="304.576" x2="310.237" y1="378.983" y2="386.623" gradientUnits="userSpaceOnUse" gradientTransform="matrix(1.122 .16 .16 1.209 -96.836 -127.514)"><stop offset="0" stop-color="#FFE2A2"/><stop offset=".063" stop-color="#DEC99A" stop-opacity=".937"/><stop offset=".16" stop-color="#B4A78B" stop-opacity=".84"/><stop offset=".262" stop-color="#908979" stop-opacity=".738"/><stop offset=".367" stop-color="#746F67" stop-opacity=".633"/><stop offset=".475" stop-color="#5B5854" stop-opacity=".525"/><stop offset=".588" stop-color="#454342" stop-opacity=".412"/><stop offset=".707" stop-color="#292929" stop-opacity=".293"/><stop offset=".838" stop-color="#0D0D0D" stop-opacity=".162"/><stop offset="1" stop-opacity="0"/></linearGradient><linearGradient id="l" x1="312.753" x2="314.5" y1="382.413" y2="386.246" gradientUnits="userSpaceOnUse" gradientTransform="matrix(1.075 .157 .157 1.329 -82.674 -173.356)"><stop offset="0" stop-color="#FFE2A2"/><stop offset=".063" stop-color="#DEC99A" stop-opacity=".937"/><stop offset=".16" stop-color="#B4A78B" stop-opacity=".84"/><stop offset=".262" stop-color="#908979" stop-opacity=".738"/><stop offset=".367" stop-color="#746F67" stop-opacity=".633"/><stop offset=".475" stop-color="#5B5854" stop-opacity=".525"/><stop offset=".588" stop-color="#454342" stop-opacity=".412"/><stop offset=".707" stop-color="#292929" stop-opacity=".293"/><stop offset=".838" stop-color="#0D0D0D" stop-opacity=".162"/><stop offset="1" stop-opacity="0"/></linearGradient><linearGradient id="x" x1="312.753" x2="314.5" y1="382.413" y2="386.246" xlink:href="#l" gradientUnits="userSpaceOnUse" gradientTransform="matrix(18.117 2.639 2.639 22.405 -6217.114 -9185.477)"/><linearGradient x1="304.576" x2="310.237" y1="378.983" y2="386.623" xlink:href="#k" gradientUnits="userSpaceOnUse" gradientTransform="matrix(18.92 2.696 2.696 20.39 -6467.392 -8431.087)"/><linearGradient id="v" x1="321.836" x2="321.555" y1="404.695" y2="404.695" xlink:href="#j" gradientUnits="userSpaceOnUse" gradientTransform="matrix(16.861 0 0 16.861 -4834.635 -6281.061)"/><linearGradient id="u" x1="310.266" x2="309.985" y1="407.215" y2="407.215" xlink:href="#i" gradientUnits="userSpaceOnUse" gradientTransform="matrix(16.861 0 0 16.861 -4834.635 -6281.061)"/><linearGradient id="t" x1="296.048" x2="295.767" y1="406.585" y2="406.585" xlink:href="#h" gradientUnits="userSpaceOnUse" gradientTransform="matrix(16.861 0 0 16.861 -4834.635 -6281.061)"/><linearGradient id="s" x1="285.241" x2="284.96" y1="404.596" y2="404.596" xlink:href="#g" gradientUnits="userSpaceOnUse" gradientTransform="matrix(16.861 0 0 16.861 -4834.635 -6281.061)"/><linearGradient id="r" x1="294.278" x2="295.887" y1="415.917" y2="415.981" xlink:href="#f" gradientUnits="userSpaceOnUse" gradientTransform="matrix(16.861 0 0 16.861 -4834.635 -6281.061)"/><linearGradient id="q" x1="294.255" x2="295.843" y1="398.066" y2="398.13" xlink:href="#e" gradientUnits="userSpaceOnUse" gradientTransform="matrix(16.861 0 0 16.861 -4834.635 -6281.061)"/><linearGradient id="p" x1="285.31" x2="296.084" y1="413.75" y2="415.945" xlink:href="#d" gradientUnits="userSpaceOnUse" gradientTransform="matrix(16.861 0 0 16.861 -4834.635 -6281.061)"/><linearGradient id="o" x1="297.931" x2="307.236" y1="416.285" y2="416.611" xlink:href="#c" gradientUnits="userSpaceOnUse" gradientTransform="matrix(16.861 0 0 16.861 -4834.635 -6281.061)"/><linearGradient id="n" x1="285.26" x2="296.233" y1="395.689" y2="397.924" xlink:href="#b" gradientUnits="userSpaceOnUse" gradientTransform="matrix(16.861 0 0 16.861 -4834.635 -6281.061)"/><linearGradient id="m" x1="297.807" x2="307.318" y1="398.467" y2="398.799" xlink:href="#a" gradientUnits="userSpaceOnUse" gradientTransform="matrix(16.861 0 0 16.861 -4834.635 -6281.061)"/><linearGradient id="w" x1="304.576" x2="310.237" y1="378.983" y2="386.623" xlink:href="#k" gradientUnits="userSpaceOnUse" gradientTransform="matrix(18.92 2.696 2.696 20.39 -6467.392 -8431.087)"/></defs><path fill="#37419a" stroke="#132b51" stroke-width="16.5" d="M623.2 644.58c-21.68 124.98-663.72 119.48-682.52 0v-298.4c27.1 126.2 664.13 124.4 682.52 0v298.4z"/><ellipse cx="303.463" cy="393.12" fill="#d7caa1" rx="20.241" ry="5.549" transform="matrix(16.861 0 0 16.861 -4834.635 -6281.061)"/><path fill="#fef6e0" d="M625.16 360.83c0 51.68-117.68 93.56-306.15 93.56-188.48 0-341.3-41.9-341.3-93.57 0-51.66 152.84-96.92 341.3-93.55 251.93 4.5 306.16 34.23 306.16 93.55z"/><path fill="#595958" stroke="#2e3436" stroke-width="16.5" d="M282.34 253.73c172.37 0 314.52 35.07 337.67 80.58.5-.94.52 1.9 1.08 1 2.14-3.52 7.2-10 8.3-15.34.33-1.6 1.9-4.08 1.48-5.6-6.5-9.44-14.66-15.5-23.53-22.12-46.62-34.85-170.17-64.46-325-64.46-128.88 0-241.1 19.57-299.16 48.47-21.04 10.5-30.25 16.7-40.33 26.9-2.85 2.86-6.86 7.97-6.86 11.5 0 4.4 6.57 15.4 8.75 19.66 23.08-45.5 165.24-80.57 337.6-80.57z"/><path fill="#4d4d4c" d="M630.86 617.62s-1.82-5.8-7.66-8.73c0 7.64 0 26.2 0 26.2s6.6-8.15 7.66-17.48z"/><path fill="#4d4d4c" d="M-66.2 617.72s2.83-6.76 6.66-9.7c0 7.65 0 25.34 0 25.34s-5.93-9.13-6.66-15.64z"/><path fill="#251c5c" d="M-1.1 682s1.6 6.73-6.1 6.73c-7.72 0-5.7-6.73-5.7-6.73V383.3s-1.47-5.14 6.3-5.14c7.15 0 5.5 5.13 5.5 5.13V682z"/><path fill="#251c5c" d="M181.1 731.9s1.62 6.72-6.12 6.72c-7.72 0-5.68-6.7-5.68-6.7V433.17s-1.48-5.14 6.3-5.14c7.16 0 5.5 5.14 5.5 5.14V731.9z"/><path fill="#251c5c" d="M420.8 735.08s1.64 6.73-6.12 6.73c-7.7 0-5.68-6.72-5.68-6.72v-298.7s-1.5-5.16 6.3-5.16c7.17 0 5.5 5.15 5.5 5.15v298.7z"/><path fill="#251c5c" d="M615.56 689.1s1.62 6.7-6.12 6.7c-7.72 0-5.7-6.7-5.7-6.7V390.37s-1.46-5.13 6.3-5.13c7.18 0 5.52 5.13 5.52 5.13V689.1z"/><path fill="#818280" stroke="#2e3436" stroke-width="16.5" d="M-64.04 313.87v57.62c13.78 64.04 143.7 104.14 349.5 104.14 220.2 0 336-40.7 345.4-104.15v-57.63c-9.38 63.3-176.22 95.43-344.16 95.65-167.92.24-336.93-31.43-350.74-95.65z"/><path fill="url(#m)" d="M129.24 466.45c45.07 6.02 97.07 9.2 155.12 9.2l1.25-66.13c-52.43.1-108.22-3.44-156.14-9.6l-.22 66.53z"/><path fill="url(#n)" d="M30.63 379.73c-31.34-9.9-58.2-22.54-75.97-36.45l-.1 61.6c16.1 15.7 41.17 29.13 74.27 39.95l1.8-65.1z"/><path fill="#818280" stroke="#2e3436" stroke-width="16.5" d="M-66.22 617.62v57.6c9.58 60.82 131.5 98.8 347.43 98.8 205.63 0 338.58-35.17 349.66-98.8v-57.6c-22.18 127.22-677.87 121.64-697.08 0z"/><path fill="url(#o)" d="M132.22 766.57c44.55 5.05 94.1 7.78 152.14 7.78l1.25-63.64c-52.43.1-104.95-2.82-152.85-8.77l-.53 64.64z"/><path fill="url(#p)" d="M31 682.7c-32.8-9.28-57.47-19.53-75.25-33.44l-1.18 61.05C-29.33 726-4.27 737 28.83 747.84L31 682.7z"/><path fill="url(#q)" d="M116.93 397.8l.35 66.86s-7.72-.34-16.03-2.46v-66.72s5.34 1.25 15.68 2.3z"/><path fill="url(#r)" d="M116.93 699.7l.67 65.02s-7.5-.74-16.35-2.34v-65s5.34 1.24 15.68 2.32z"/><path fill="#fed206" d="M-23.24 682s1.62 6.73-6.12 6.73c-7.72 0-5.68-6.73-5.68-6.73V383.3s-1.48-5.14 6.3-5.14c7.16 0 5.5 5.13 5.5 5.13V682z"/><path fill="url(#s)" d="M-23.24 689.44s1.62 6.7-6.12 6.7c-7.72 0-5.68-6.7-5.68-6.7V390.72s-1.48-5.14 6.3-5.14c7.16 0 5.5 5.14 5.5 5.14v298.72z"/><ellipse cx="285.049" cy="395.165" fill="#464544" rx=".94" ry=".903" transform="matrix(16.861 0 0 16.861 -4834.635 -6281.061)"/><ellipse cx="284.983" cy="413.216" fill="#464544" rx=".941" ry=".903" transform="matrix(16.861 0 0 16.861 -4834.635 -6281.061)"/><path fill="#fed206" d="M158.96 731.9s1.62 6.72-6.1 6.72-5.7-6.7-5.7-6.7V433.17s-1.48-5.14 6.3-5.14c7.16 0 5.5 5.14 5.5 5.14V731.9z"/><path fill="#fed206" d="M398.68 735.08s1.63 6.73-6.1 6.73c-7.74 0-5.7-6.72-5.7-6.72v-298.7s-1.5-5.16 6.3-5.16c7.17 0 5.5 5.15 5.5 5.15v298.7z"/><path fill="#fed206" d="M593.44 689.1s1.62 6.7-6.14 6.7c-7.68 0-5.68-6.7-5.68-6.7V390.37s-1.47-5.13 6.3-5.13c7.17 0 5.52 5.13 5.52 5.13V689.1z"/><path fill="url(#t)" d="M159 722.97s1.62 6.73-6.1 6.73c-7.73 0-5.7-6.73-5.7-6.73v-298.7s-1.45-5.15 6.3-5.15c7.17 0 5.52 5.14 5.52 5.14v298.7H159z"/><path fill="url(#u)" d="M398.73 733.58s1.63 6.73-6.1 6.73c-7.73 0-5.7-6.72-5.7-6.72v-298.7s-1.5-5.14 6.3-5.14c7.17 0 5.5 5.14 5.5 5.14v298.7z"/><path fill="url(#v)" d="M593.8 691.1s1.66 6.73-6.07 6.73-5.7-6.74-5.7-6.74V392.4s-1.5-5.15 6.3-5.15c7.17 0 5.48 5.14 5.48 5.14v298.7z"/><ellipse cx="295.855" cy="398.125" fill="#464544" rx=".941" ry=".903" transform="matrix(16.861 0 0 16.861 -4834.635 -6281.061)"/><ellipse cx="295.79" cy="416.176" fill="#464544" rx=".941" ry=".903" transform="matrix(16.861 0 0 16.861 -4834.635 -6281.061)"/><ellipse cx="310.072" cy="398.313" fill="#464544" rx=".941" ry=".903" transform="matrix(16.861 0 0 16.861 -4834.635 -6281.061)"/><ellipse cx="310.006" cy="416.364" fill="#464544" rx=".941" ry=".903" transform="matrix(16.861 0 0 16.861 -4834.635 -6281.061)"/><ellipse cx="321.622" cy="395.585" fill="#464544" rx=".941" ry=".903" transform="matrix(16.861 0 0 16.861 -4834.635 -6281.061)"/><ellipse cx="321.557" cy="413.637" fill="#464544" rx=".94" ry=".903" transform="matrix(16.861 0 0 16.861 -4834.635 -6281.061)"/><path fill="#674b19" d="M677.45 171.63s32.1 2.83 14.77-31.72c-17.67-35.16-34.88-8.82-34.88-8.82S290.86 297.98 275.67 305.4c-13.98 13.46-28.97 23.54-20.42 37.37 6.5 10.54 19.9 6.2 40.6 3.17 17.22-7.98 381.6-174.3 381.6-174.3z"/><g><path fill="#674b19" d="M513.93 51.6s30.94-5.83 6.14-33.22c-25.27-27.9-35 1-35 1s-304.03 250.9-316.5 261.74c-9.85 16.12-21.48 29.4-10.02 39.96 8.7 8.03 20.23.48 38.97-7.75 14.26-11.9 316.4-261.72 316.4-261.72z"/><path fill="url(#w)" stroke="#3b301d" stroke-width="12.375" d="M537.07 61.93s31.23-4 8.08-32.8c-23.6-29.35-35-1.07-35-1.07S191.93 260.7 178.85 270.8c-10.8 15.5-23.17 28.08-12.35 39.3 8.2 8.53 20.17 1.66 39.36-5.45 14.93-11.05 331.2-242.72 331.2-242.72z" transform="matrix(.998 -.059 .059 .998 -25.853 21.284)"/></g><path fill="url(#x)" stroke="#3b301d" stroke-width="12.375" d="M677.45 171.63s32.1 2.83 14.77-31.72c-17.67-35.16-34.88-8.82-34.88-8.82S290.86 297.98 275.67 305.4c-14 13.46-28.97 23.54-20.4 37.37 6.5 10.54 19.9 6.2 40.58 3.17 17.22-7.98 381.6-174.3 381.6-174.3z"/></svg>