<svg xmlns="http://www.w3.org/2000/svg" width="48" height="48" xmlns:xlink="http://www.w3.org/1999/xlink" version="1" viewBox="0 0 612 792" enable-background="new 0 0 612 792"><defs><linearGradient x1="287.038" x2="289.038" y1="473.747" y2="478.081" xlink:href="#a" gradientUnits="userSpaceOnUse"/><linearGradient x1="273.854" x2="275.756" y1="482.853" y2="490.459" xlink:href="#b" gradientUnits="userSpaceOnUse"/><linearGradient x1="271.183" x2="275.34" y1="474.168" y2="479.027" xlink:href="#c" gradientUnits="userSpaceOnUse"/><linearGradient id="d" x1="285.858" x2="287.129" y1="468.999" y2="472.604" gradientUnits="userSpaceOnUse"><stop offset="0" stop-color="#f9f8fc" stop-opacity=".784"/><stop offset="1" stop-color="#fff" stop-opacity="0"/></linearGradient><linearGradient id="j" x1="285.858" x2="287.129" y1="468.999" y2="472.604" xlink:href="#d" gradientUnits="userSpaceOnUse" gradientTransform="matrix(16.858 0 0 16.858 -4496.748 -7625.984)"/><linearGradient id="i" x1="283.413" x2="285.164" y1="464.811" y2="468.599" xlink:href="#d" gradientUnits="userSpaceOnUse" gradientTransform="matrix(16.858 0 0 16.858 -4496.748 -7625.984)"/><linearGradient id="c" x1="271.183" x2="275.34" y1="474.168" y2="479.027" gradientUnits="userSpaceOnUse"><stop offset="0" stop-color="#312B87"/><stop offset=".063" stop-color="#494192" stop-opacity=".937"/><stop offset=".16" stop-color="#6961A5" stop-opacity=".84"/><stop offset=".262" stop-color="#8880B7" stop-opacity=".738"/><stop offset=".367" stop-color="#A59FCA" stop-opacity=".633"/><stop offset=".475" stop-color="#C1BDDB" stop-opacity=".525"/><stop offset=".588" stop-color="#D9D6EA" stop-opacity=".412"/><stop offset=".707" stop-color="#ECEAF4" stop-opacity=".293"/><stop offset=".838" stop-color="#F9F8FC" stop-opacity=".162"/><stop offset="1" stop-color="#fff" stop-opacity="0"/></linearGradient><linearGradient id="g" x1="271.183" x2="275.34" y1="474.168" y2="479.027" xlink:href="#d" gradientUnits="userSpaceOnUse" gradientTransform="matrix(16.858 0 0 16.858 -4496.748 -7625.984)"/><linearGradient id="b" x1="273.854" x2="275.756" y1="482.853" y2="490.459" gradientUnits="userSpaceOnUse"><stop offset="0" stop-color="#312B87"/><stop offset=".063" stop-color="#494192" stop-opacity=".937"/><stop offset=".16" stop-color="#6961A5" stop-opacity=".84"/><stop offset=".262" stop-color="#8880B7" stop-opacity=".738"/><stop offset=".367" stop-color="#A59FCA" stop-opacity=".633"/><stop offset=".475" stop-color="#C1BDDB" stop-opacity=".525"/><stop offset=".588" stop-color="#D9D6EA" stop-opacity=".412"/><stop offset=".707" stop-color="#ECEAF4" stop-opacity=".293"/><stop offset=".838" stop-color="#F9F8FC" stop-opacity=".162"/><stop offset="1" stop-color="#fff" stop-opacity="0"/></linearGradient><linearGradient id="f" x1="273.854" x2="275.756" y1="482.853" y2="490.459" xlink:href="#d" gradientUnits="userSpaceOnUse" gradientTransform="matrix(16.858 0 0 16.858 -4496.748 -7625.984)"/><linearGradient id="a" x1="287.038" x2="289.038" y1="473.747" y2="478.081" gradientUnits="userSpaceOnUse"><stop offset="0" stop-color="#312B87"/><stop offset=".063" stop-color="#494192" stop-opacity=".937"/><stop offset=".16" stop-color="#6961A5" stop-opacity=".84"/><stop offset=".262" stop-color="#8880B7" stop-opacity=".738"/><stop offset=".367" stop-color="#A59FCA" stop-opacity=".633"/><stop offset=".475" stop-color="#C1BDDB" stop-opacity=".525"/><stop offset=".588" stop-color="#D9D6EA" stop-opacity=".412"/><stop offset=".707" stop-color="#ECEAF4" stop-opacity=".293"/><stop offset=".838" stop-color="#F9F8FC" stop-opacity=".162"/><stop offset="1" stop-color="#fff" stop-opacity="0"/></linearGradient><linearGradient id="e" x1="287.038" x2="289.038" y1="473.747" y2="478.081" xlink:href="#d" gradientUnits="userSpaceOnUse" gradientTransform="matrix(16.858 0 0 16.858 -4496.748 -7625.984)"/><linearGradient id="h" x1="297.874" x2="298.255" y1="479.371" y2="482.255" xlink:href="#d" gradientUnits="userSpaceOnUse"/></defs><path fill="#fff" stroke="#1f4f4c" stroke-width="13.486" stroke-miterlimit="10" d="M-80.97 256.36L613.6 17.02c118.86 107.2 79.9 457.02 46.75 491.65L-42 771.87C8.63 639.73 6.7 363.58-80.98 256.36z" stroke-linecap="round" stroke-linejoin="round"/><path d="M-.2 291.72C47.2 343.88 73.5 570.1 27.53 704.4l149.62-56.9c38-103.2 40.56-347.7-22.9-411.54L-.2 291.72z"/><path d="M212.46 217.08c50.57 75.86 67.7 273.65 21.75 407.96l150-55.53c38.6-73.4 41.43-352.96-21.08-405.26l-150.66 52.84z"/><path d="M415.28 136.28c51.64 32.67 81.66 318.7 30.56 409L593 489.82c38-103.17 43.27-334.83-23.9-408.63l-153.82 55.1z"/><path fill="none" stroke="#415d5b" stroke-width="5.057" stroke-miterlimit="10" d="M-12.8 295.35c46.28 67.7 65.16 293.48 21.43 421.28l189-72.03c36.15-98.1 38.95-336.8-21.9-416.2L-12.8 295.35z" stroke-linecap="round" stroke-linejoin="round"/><path fill="#545e5e" d="M182.8 209.54l-200.55 71.3c3.4 2.7 9.35 11.25 9.35 11.25l184.38-65.25 6.8-17.3z"/><path fill="#bcbfbf" d="M212.9 633.6l-11.38 4.52c33.78-109.22 35.55-327.06-25.58-411.55l6.58-16.24c58.94 73.84 73.72 295.47 30.38 423.26z"/><path fill="none" stroke="#415d5b" stroke-width="5.057" stroke-miterlimit="10" d="M197.88 221.12c46.27 67.67 64.82 285.54 21.07 413.36l189.3-71.63c33.85-98.4 36.5-328.88-22.84-408.23l-187.52 66.5z" stroke-linecap="round" stroke-linejoin="round"/><path fill="#545e5e" d="M392.8 135.42l-200.54 70.6c3.4 2.7 9 12.3 9 12.3l184.37-65.25 7.18-17.65z"/><path fill="#bcbfbf" d="M425.1 552.77l-12.77 4.6c31.93-110.82 34.42-320.1-26.7-404.6l6.57-16.24c58.94 73.85 76.25 288.46 32.9 416.24z"/><path fill="none" stroke="#415d5b" stroke-width="5.057" stroke-miterlimit="10" d="M407.56 148.43c46.27 67.67 65.85 277.8 22.13 405.64l185.8-70.6c35.62-91.95 40.02-322.9-19.33-402.25l-188.6 67.2z" stroke-linecap="round" stroke-linejoin="round"/><path fill="#545e5e" d="M603.18 61.68l-201.94 70.94c3.4 2.7 9.82 12.9 9.82 12.9l185.3-65.87 6.82-17.97z"/><path fill="#bcbfbf" d="M633.9 473.5l-15.4 5.8c35.44-95.97 37-320.3-22.13-399.92l6.8-17.7c58.64 74.2 72.36 285.32 30.74 411.82z"/><path fill="none" stroke="#6f7c7b" stroke-width="10.115" stroke-miterlimit="10" d="M185.03 203.57c60.7 72.7 77.2 299.82 31.22 434.17l209.36-79.6c38-103.2 38.16-339.53-31.68-427.97l-208.9 73.4z" stroke-linecap="round" stroke-linejoin="round"/><path fill="none" stroke="#6f7c7b" stroke-width="10.115" stroke-miterlimit="10" d="M394.22 130c60.68 72.73 79.83 292.86 33.85 427.14l209.35-79.56c38-103.18 36.98-333.15-32.82-421.6L394.22 130z" stroke-linecap="round" stroke-linejoin="round"/><path fill="none" stroke="#6f7c7b" stroke-width="10.115" stroke-miterlimit="10" d="M-24.48 278.05c60.7 72.73 78.36 304.6 32.4 438.94l209.34-79.62c38.04-103.17 36.7-344.9-33.14-433.35l-208.6 74.02z" stroke-linecap="round" stroke-linejoin="round"/><path fill="url(#e)" d="M275.15 363.54c9.65 4.77 26.3 2.9 47.3-.07 26.3-3.7 61-23.18 54.92-39.45-5.47-14.65 10.04-48.46 14.75-36.34 3.7 9.5 8.07 45.46 7.72 53.9-1.6 37.94 2.46 76.93-47.05 99.05-25.76 11.52-50.6 35.8-56.93-4.92-6.32-40.72-20.72-72.16-20.72-72.16z"/><path fill="url(#f)" d="M123.06 501.03l35.5-28.1c-1.78 18.6-11.27 103.6-20.75 126.44l-39.3 24.6c18.24-60.78 22.82-115.22 24.56-122.94z"/><path fill="url(#g)" d="M129.2 388.83c-12.98 13.9-54.5 51.9-54.5 51.9-1.32-22.4-6.4-73.8-6.4-73.8l35.1-35.8c10.54.63 24.77 36.62 25.8 57.7z" opacity=".66"/><g fill="url(#h)" transform="matrix(16.858 0 0 16.858 -4496.748 -7625.984)"><linearGradient x1="298.334" x2="299.584" y1="479.287" y2="482.579" gradientUnits="userSpaceOnUse"><stop fill="url(#h)" offset="0" stop-color="#312B87"/><stop fill="url(#h)" offset=".063" stop-color="#494192" stop-opacity=".937"/><stop fill="url(#h)" offset=".16" stop-color="#6961A5" stop-opacity=".84"/><stop fill="url(#h)" offset=".262" stop-color="#8880B7" stop-opacity=".738"/><stop fill="url(#h)" offset=".367" stop-color="#A59FCA" stop-opacity=".633"/><stop fill="url(#h)" offset=".475" stop-color="#C1BDDB" stop-opacity=".525"/><stop fill="url(#h)" offset=".588" stop-color="#D9D6EA" stop-opacity=".412"/><stop fill="url(#h)" offset=".707" stop-color="#ECEAF4" stop-opacity=".293"/><stop fill="url(#h)" offset=".838" stop-color="#F9F8FC" stop-opacity=".162"/><stop fill="url(#h)" offset="1" stop-color="#fff" stop-opacity="0"/></linearGradient><path d="M302.2 477.3c-.03.58-.43 1.93-.6 2.7l-1.14 1.98-2.46.94 1.3-2.06v-.03l-4.3 1.8c.14-.52.5-2.02.54-2.57l6.65-2.77z"/></g><g fill="#eeeeec"><path d="M103.5 331.9l-.65.1-34.58 34.88c-1.55-20.76-11.6-39.13-11.6-39.13l37.46-40.5 34.56-14.3c21.92 19.65 40.38 102.7 28.8 209.83l-35.13 18.96c9.84-135.55-11.95-167.87-18.86-169.83z"/></g><g fill="#eeeeec"><path d="M595.8 393.04c3.52 6.32 4.4 26.35-1.42 36.14l-42.5 76.24-41.44 15.8 41.44-77.8v-.5l-67.08 29.7c2.9-18.97.36-26.17-1.58-33.73l112.58-45.86z"/></g><path fill="url(#i)" d="M248.42 223.18s17.6 18.3 20.4 23.57c2.8 5.26 41.8-15.45 50.23-12.65 8.43 2.8 1.77-14.4 2.46-10.53.7 3.87 7.74-19.32-21.75-24.25-29.52-4.9-51.33 23.86-51.33 23.86z"/><path fill="url(#j)" d="M291.25 284.3s8.13 23.93 13.05 40.8c1.67 5.72 41.52-10.9 50.22-12.66 8.8-1.75 13-33.02-16.5-37.93-29.5-4.9-46.77 9.8-46.77 9.8z"/><g fill="#eeeeec"><path d="M284.93 327.38c8.6 4.77 21.66 9.52 40.4 6.57 23.4-3.7 36.3-23.16 30.9-39.43-6.16-18.46-28.28-21.7-47.02-16.27l-18.06 6.4c-.64-7.88-7.22-22.33-13.3-30.06l20.2-5.43c41.75-18.24 21.05-52.26-7.06-47.33-16.63 2.93-34.3 16.23-42.55 21.34l-14.12-12.95s88.23-31.8 108.94-38.45c7.9 4.94 38.44 49.3 0 79.2v.66c19.54-1.8 40.77 9.37 48.15 33.02 9.1 29.16-4.46 71.46-50.28 82.82-25.98 6.43-53.95 3.88-66.05-3.45l9.86-36.65z"/></g></svg>