<svg xmlns="http://www.w3.org/2000/svg" width="48" height="48" xmlns:xlink="http://www.w3.org/1999/xlink" version="1" viewBox="0 0 612 792" enable-background="new 0 0 612 792"><defs><linearGradient x1="290.424" x2="300.941" y1="421.21" y2="421.294" xlink:href="#a" gradientUnits="userSpaceOnUse"/><linearGradient x1="307.943" x2="268.788" y1="423.144" y2="423.144" xlink:href="#b" gradientUnits="userSpaceOnUse"/><linearGradient id="a" x1="290.424" x2="300.941" y1="421.21" y2="421.294" gradientUnits="userSpaceOnUse"><stop offset="0" stop-color="#A0CC3A"/><stop offset=".08" stop-color="#8EC24B" stop-opacity=".92"/><stop offset=".236" stop-color="#6FB663" stop-opacity=".764"/><stop offset=".4" stop-color="#50AD75" stop-opacity=".6"/><stop offset=".574" stop-color="#33A77F" stop-opacity=".426"/><stop offset=".763" stop-color="#14A484" stop-opacity=".236"/><stop offset="1" stop-color="#00A386" stop-opacity="0"/></linearGradient><linearGradient id="b" x1="307.943" x2="268.788" y1="423.144" y2="423.144" gradientUnits="userSpaceOnUse"><stop offset="0" stop-color="#5F64AD"/><stop offset=".14" stop-color="#545EAA" stop-opacity=".902"/><stop offset=".388" stop-color="#4657A6" stop-opacity=".728"/><stop offset=".661" stop-color="#3D53A4" stop-opacity=".537"/><stop offset="1" stop-color="#3A52A4" stop-opacity=".3"/></linearGradient><linearGradient id="d" x1="307.943" x2="268.788" y1="423.144" y2="423.144" xlink:href="#b" gradientUnits="userSpaceOnUse" gradientTransform="matrix(16.392 0 0 16.392 -4685.844 -6525.436)"/><linearGradient id="c" x1="290.424" x2="300.941" y1="421.21" y2="421.294" xlink:href="#a" gradientUnits="userSpaceOnUse" gradientTransform="matrix(16.392 0 0 16.392 -4685.844 -6525.436)"/></defs><path fill="none" stroke="#2d4583" stroke-width="41.25" stroke-miterlimit="10" d="M209.14 752.93C47.74 721.73-69.4 579.5-69.4 414.83c0-13.9 1.07-28.42 3.38-45.75.75-6.13 1.68-12.26 2.78-18.34 0 0 1.07-5.96 1.38-7.5 6.44-31.38 17.5-61.75 32.85-90.16l2.07-3.95c3.7-6.6 7.6-12.97 11.7-19.24 17.46-27.4 38.8-52.24 63.38-73.8 60.6-59.25 142.87-97.75 225.4-105.38 10.88-1.1 21.73-1.7 32.2-1.7 49.8 0 98.06 8.83 143.58 26.28 2.17.8 14.58 5.9 14.58 5.9 4.45 1.88 8.84 3.9 13.18 5.98 36.84 17.64 68 39.73 93.88 66.24 4.07 4.2 7.18 7.6 10.23 11.05l1.82 2.1c2.74 3.16 5.38 6.37 7.92 9.63l2.33 2.94c2.4 3.14 4.7 6.34 6.97 9.54l2.16 3.14c2.3 3.38 4.47 6.8 6.57 10.25l1.46 2.4c2.38 3.98 4.64 8 6.8 12.1 15 28.7 23.87 58.7 26.54 89.52l37.88 9.22-11.9 54.3-2.13 8.2S521.64 596.06 520.78 596.6c-.83.46-3.4.72-5.72-.28-2.3-1-3.16-7.03-3.16-7.03l-38.82-259.6 14.13-61.67 22.73 5.5C476.97 198 416.4 147 338.15 129.32c-13.75-2.68-27.36-4.1-40.37-4.1-26.95 0-53.28 4.88-78.26 14.42C133.52 175 82.1 258.36 82.1 362.58c0 96.63 35.92 158.64 113.06 195.16 32.77 15.4 72.93 26.3 122.76 33.3 0 0 6.4.32 7.4 2.55 1.06 2.35-2.53 7.87-2.53 7.87l-4.5 5.97-30.54 50.86-71.47 91.58-1.07 1.07-1.48 2.4-4.6-.42z" stroke-linecap="round" stroke-linejoin="round"/><path fill="none" stroke="#e4e5f3" stroke-width="16.392" stroke-miterlimit="10" d="M662.3 373.9l11.8-53.86-36.3-8.83c-2.16-32.2-11.2-62.97-26.06-91.36-.05-.1-.1-.2-.14-.3-2.1-3.98-4.32-7.93-6.64-11.83-.43-.78-.94-1.55-1.38-2.32-2.07-3.36-4.2-6.72-6.46-9.98-.67-1.05-1.4-2.07-2.1-3.08-2.2-3.13-4.46-6.25-6.82-9.3-.73-.98-1.5-1.92-2.24-2.88-2.5-3.18-5.1-6.33-7.75-9.4-.58-.7-1.17-1.4-1.76-2.06-3-3.4-6.05-6.72-9.23-9.98-.27-.28-.55-.54-.8-.84-25.03-25.62-55.76-47.54-90.94-64.42-.36-.16-.74-.33-1.1-.5-4.3-2.02-8.6-4-12.98-5.9-2.06-.9-4.18-1.7-6.26-2.58-2.7-1.08-5.36-2.18-8.08-3.2-43.32-16.62-91.35-25.86-141.3-25.86-10.46 0-21 .57-31.62 1.67-80.42 7.46-161.74 45.1-221.83 103.82-24.02 21.07-45 45.4-62.26 72.48-4 6.16-7.86 12.42-11.45 18.82-.7 1.3-1.38 2.62-2.07 3.9-14.77 27.34-25.77 57.02-32.23 88.48-.5 2.4-.87 4.88-1.34 7.33-1.08 5.96-2 11.96-2.74 18.04-1.97 14.72-3.34 29.65-3.34 44.9 0 164.62 117.64 301.73 273.43 331.88l.25-.4c.1 0 .15.04.23.05l.66-.67 70.78-90.63 30.93-51.4 4.5-5.94c-.3-.03-.53-.1-.83-.13l.13-.23c-48.34-6.82-90.05-17.65-124.6-33.86-75.75-35.86-116.68-97.9-116.68-200.9 0-122.3 66.27-197.94 141.5-228.87 25.94-9.92 53.4-14.82 80.52-14.82 13.48 0 27.53 1.46 41.78 4.26 86.6 19.54 149.7 78.68 180.98 159.54l-28.54-6.95L479.48 330l38.63 258.37.36-.5.1.75L662.3 374.35l-.3-.1.3-.36z" stroke-linecap="round" stroke-linejoin="round"/><path fill="#eef2c0" d="M317.04 596.26c-155.04-21.85-242-84.98-242-235.1 0-164.8 114.12-243.36 222.74-243.36 108.6 0 251.8 92.27 251.8 257.1 0 39.18 78.85 20.2 83.28 0C670.02 205.8 514.23 54.53 303.28 54.53 138.3 54.54-42.27 188.17-42.27 374.9c0 164.5 117.25 303.8 276.64 331.48l82.67-110.12z"/><path fill="#363a96" d="M211.52 744.6l70.78-90.66 34.74-57.68-82.65 110.12-22.88 38.2z"/><path fill="url(#c)" d="M305.8 54.3c-162.73 0-347.35 134.23-347.35 320.93 0 164.56 117.25 303.84 276.66 331.5l82.62-110.13c-155.03-21.85-242-85-242-235.1 0-164.82 120.3-245.08 220.78-245.08" opacity=".48"/><path fill="#f2f5d1" d="M235.03 705.56c-144.35-21-255.57-145.64-255.57-295.73 0-164.8 134.07-298.87 298.87-298.87S545.6 245.06 545.6 409.83h6.94c0-186.7-99.22-331.08-274.2-331.08-186.72 0-340.7 144.4-340.7 331.1 0 164.5 113.78 304.3 273.2 335.4l24.2-39.7z"/><path fill="url(#d)" d="M232.52 709.6C87.78 688.93-23.83 564.1-23.83 413.73c0-164.82 134.07-298.9 298.87-298.9 164.84 0 267.94 126.15 267.94 290.97 0 39.2 14.57 22.66 14.57 2 0-186.78-99.43-332.16-282.5-332.16C88.36 75.64-63 226.97-63 413.72c0 164.64 117.64 301.74 273.43 331.88l22.12-36z"/><path fill="#005ead" d="M662.38 373.18l-143.7 214.3-38.42-258.6 182.12 44.3z"/><path fill="#eef2c0" d="M674.1 318.94L533.7 516.36 492 274.66l182.1 44.28z"/><path fill="#363a96" d="M674.1 318.94l-11.77 53.87L518.2 587.25l15.5-70.88 140.4-197.42z"/><path fill="#6977b9" d="M492.02 274.65l-12.44 54.2 38.62 258.4 15.5-70.9L492 274.66z"/></svg>