<svg xmlns="http://www.w3.org/2000/svg" width="48" height="48" xmlns:xlink="http://www.w3.org/1999/xlink" version="1" viewBox="0 0 612 792" enable-background="new 0 0 612 792"><defs><linearGradient x1="294.094" x2="317.563" y1="376.802" y2="376.802" xlink:href="#a" gradientUnits="userSpaceOnUse"/><linearGradient x1="313.938" x2="315.522" y1="396.382" y2="396.382" xlink:href="#b" gradientUnits="userSpaceOnUse"/><linearGradient x1="294.063" x2="317.563" y1="416.625" y2="416.625" xlink:href="#c" gradientUnits="userSpaceOnUse"/><linearGradient x1="296.083" x2="297.666" y1="396.404" y2="396.404" xlink:href="#d" gradientUnits="userSpaceOnUse"/><linearGradient id="a" x1="294.094" x2="317.563" y1="376.802" y2="376.802" gradientUnits="userSpaceOnUse"><stop offset=".037" stop-color="#D2B594"/><stop offset=".046" stop-color="#D1B493" stop-opacity=".991"/><stop offset=".25" stop-color="#C2A47E" stop-opacity=".779"/><stop offset=".466" stop-color="#B79970" stop-opacity=".554"/><stop offset=".704" stop-color="#B19369" stop-opacity=".307"/><stop offset="1" stop-color="#AF9166" stop-opacity="0"/></linearGradient><linearGradient id="b" x1="313.938" x2="315.522" y1="396.382" y2="396.382" gradientUnits="userSpaceOnUse"><stop offset=".037" stop-color="#D2B594"/><stop offset=".046" stop-color="#D1B493" stop-opacity=".991"/><stop offset=".25" stop-color="#C2A47E" stop-opacity=".779"/><stop offset=".466" stop-color="#B79970" stop-opacity=".554"/><stop offset=".704" stop-color="#B19369" stop-opacity=".307"/><stop offset="1" stop-color="#AF9166" stop-opacity="0"/></linearGradient><linearGradient id="c" x1="294.063" x2="317.563" y1="416.625" y2="416.625" gradientUnits="userSpaceOnUse"><stop offset=".037" stop-color="#D2B594"/><stop offset=".046" stop-color="#D1B493" stop-opacity=".991"/><stop offset=".25" stop-color="#C2A47E" stop-opacity=".779"/><stop offset=".466" stop-color="#B79970" stop-opacity=".554"/><stop offset=".704" stop-color="#B19369" stop-opacity=".307"/><stop offset="1" stop-color="#AF9166" stop-opacity="0"/></linearGradient><linearGradient id="d" x1="296.083" x2="297.666" y1="396.404" y2="396.404" gradientUnits="userSpaceOnUse"><stop offset=".037" stop-color="#D2B594"/><stop offset=".046" stop-color="#D1B493" stop-opacity=".991"/><stop offset=".25" stop-color="#C2A47E" stop-opacity=".779"/><stop offset=".466" stop-color="#B79970" stop-opacity=".554"/><stop offset=".704" stop-color="#B19369" stop-opacity=".307"/><stop offset="1" stop-color="#AF9166" stop-opacity="0"/></linearGradient><linearGradient id="h" x1="296.083" x2="297.666" y1="396.404" y2="396.404" xlink:href="#d" gradientUnits="userSpaceOnUse" gradientTransform="matrix(16.572 0 0 16.572 -4762.537 -6166.376)"/><linearGradient id="g" x1="294.063" x2="317.563" y1="416.625" y2="416.625" xlink:href="#c" gradientUnits="userSpaceOnUse" gradientTransform="matrix(16.572 0 0 16.572 -4762.537 -6166.376)"/><linearGradient id="f" x1="313.938" x2="315.522" y1="396.382" y2="396.382" xlink:href="#b" gradientUnits="userSpaceOnUse" gradientTransform="matrix(16.572 0 0 16.572 -4762.537 -6166.376)"/><linearGradient id="e" x1="294.094" x2="317.563" y1="376.802" y2="376.802" xlink:href="#a" gradientUnits="userSpaceOnUse" gradientTransform="matrix(16.572 0 0 16.572 -4762.537 -6166.376)"/></defs><path fill="none" stroke="#66441c" stroke-width="24.802" stroke-miterlimit="10" d="M305.73 779.17c-68.5 0-198.06-5.6-198.06-26.78 0-4.95 7.76-37.8 17.36-54.24.7-4.1 5.68-7.32 15.77-10.27V101.2c-5.86-2.2-9.43-4.48-11.17-7.08-4.1-6.13-16.17-34.7-20.65-48-.64-.34-1.3-1.92-1.3-3.56 0-21.2 129.54-26.8 198.05-26.8 68.5 0 197.12 5.1 197.12 26.3 0 2.82-1.3 5.4-2.06 6.05-2.23 5.65-5.76 13.8-9.04 21.42-7.16 16.56-10.17 23.47-11.38 25.2-1.74 2.5-5.3 4.77-10.8 6.9v586c5.06 1.4 8.9 2.9 11.6 4.5 0 0 2.35 1.24 4.73 4.58 5.2 8.4 17.86 50.93 17.86 55.7 0 21.16-129.54 26.77-198.03 26.77zM173.68 681.6c13.47-1.8 29.56-3.32 47.3-4.5-21.8-12.28-37.65-30.72-47.3-55.1v59.6zm213.73-4.72c18.3 1.15 35.1 2.7 49.3 4.56v-64.68c-9.5 26.8-26 46.93-49.3 60.12zm49.3-408.74c-8.9 17.02-23.17 30.2-40.24 45.92-16.18 14.9-34.5 31.82-52.72 56.3-.83 1-17.22 21.06-2.02 48.28 18.43 32.4 40.63 49.3 60.22 64.2 14.02 10.66 26.58 20.2 34.75 33.46V268.14zM173.67 512.1c8.58-12.7 21.33-22 35.58-32.45 19.5-14.26 41.6-30.45 63.37-60.64 15.58-19.96-3.45-47.35-3.64-47.64-19.07-24.07-37.8-40.86-54.35-55.68-17.24-15.44-31.62-28.33-41-44.62V512.1h.03zm224.2-398.44c18.1 11.35 30.94 27.37 38.83 48.47v-52.88c-11.3 1.74-24.32 3.2-38.82 4.4zm-224.2 44.5c8.12-19.32 20.68-34.13 37.97-44.8-14.07-1.2-26.78-2.72-37.97-4.5v49.3z" stroke-linecap="round" stroke-linejoin="round"/><path fill="none" stroke="#ece5dd" stroke-width="4.972" stroke-miterlimit="10" d="M483 698.8c-.47-3.1-6.45-6.02-16.74-8.66V99.27c5.9-2.04 9.82-4.2 11.4-6.46 1.82-2.6 13.07-29.67 20.9-47.14 1.1-1.03.92-2.57.92-3.6 0-12.97-86.22-22.98-193.74-22.98C198.2 19.08 111 29.58 111 42.56c0 .85.4 1.68 1.13 2.5 4.53 13.43 16.4 41.43 20.3 47.23 1.5 2.26 5.55 4.5 11.7 6.6V690.4c-10.1 2.7-15.87 5.67-15.87 8.8v.02C118.73 715.04 111 747.9 111 752.4c0 12.98 87.2 23.47 194.74 23.47 107.52 0 194.72-10.5 194.72-23.47 0-3.7-9-41.43-17.28-53.86-.04.1-.15.17-.17.27zm-108.24-19.3c38.9-16.92 58.35-49.25 65.26-88.74v94.5c-17.7-2.48-39.93-4.46-65.26-5.76zm-204.4-423.6c14.04 40.26 56.8 57.3 101.34 113.56 0 0 20.88 29.4 3.63 51.5-43.55 60.36-90.2 66.82-104.96 104.5V255.9zm269.65 275.65c-13-42.08-64.72-47.23-101.16-111.3-16.58-29.7 2.27-51.87 2.27-51.87 43.08-57.95 87.2-74.12 98.92-117.82v281zm0-344.25c-5.98-33.84-21.54-60.5-53.42-76.13 21.15-1.43 39.08-3.43 53.43-5.82v81.95zM223 110.92c-29.58 14.3-45.47 38.08-52.6 68.36v-74.3c14.2 2.4 31.85 4.45 52.6 5.94zm-52.6 489c8 35.43 27.13 64.2 63.3 79.75-24.55 1.32-46.16 3.28-63.3 5.73v-85.5z" stroke-linecap="round" stroke-linejoin="round"/><path fill="#8f6738" d="M500.43 752.4c0 12.96-87.2 23.47-194.72 23.47-107.54 0-194.7-10.5-194.7-23.48 0-4.5 7.7-37.4 17.26-53.18 4.84 14.5 106.4 21.4 176.77 21.4 76.88 0 176.77-7.6 178.15-22.1 8.27 12.44 17.25 50.17 17.25 53.87z"/><path fill="#d2bfaa" d="M483.18 699.2c0 2.44-3.4 4.8-9.66 6.98-24.03 8.4-90.1 14.42-167.8 14.42-78.33 0-144.77-6.1-168.33-14.6-5.94-2.14-9.16-4.42-9.16-6.8 0-11.8 79.45-21.4 177.47-21.4 98 0 177.48 9.6 177.48 21.4z"/><path fill="#87918c" d="M428.6 697.13c0 1.33-1.83 2.62-5.26 3.8-13.1 4.57-49.17 7.9-91.56 7.9-42.74 0-79-3.34-91.86-7.98-3.23-1.16-5-2.42-5-3.72 0-6.44 43.36-11.68 96.86-11.68 53.47 0 96.83 5.24 96.83 11.68z"/><path fill="#c3e8f6" d="M271.7 369.46c-54.4-68.66-106.2-78.85-106.2-144.28 0-76.64 30.4-129.46 138.8-129.46 110.48 0 138.8 53.85 138.8 130.5 0 63.93-51.8 74.58-102.03 142.16 0 0-18.82 22.2-2.25 51.9C380.78 494.05 443.1 489.6 443.1 553.5c0 76.65-33.15 138.8-138.8 138.8-107.02 0-138.8-62.15-138.8-138.8 0-65.5 57.25-59.72 109.8-132.57 17.28-22.1-3.6-51.5-3.6-51.5z"/><path fill="#eef8fc" d="M277.1 369.58c-46.54-65.4-90.86-75.1-90.86-137.42 0-73 26-123.3 118.77-123.3 94.54 0 118.77 51.28 118.77 124.3 0 60.88-44.3 71.02-87.3 135.4 0 0-16.1 21.13-1.93 49.4 35.9 70.3 89.23 66.06 89.23 126.95 0 73.02-28.36 132.22-118.76 132.22-91.58 0-118.76-59.18-118.76-132.2 0-62.42 48.97-56.9 93.95-126.3 14.77-21.04-3.1-49.04-3.1-49.04z"/><path fill="#c7eaf7" d="M383.73 640.87c0 14.3-42.13 31.42-80.44 31.42-40.4 0-80.45-17.1-80.45-31.43 0-8.63 36-19 80.44-19 44.4 0 80.43 12.44 80.43 19z"/><path fill="#c3ac90" d="M417.57 246.6c0 31.76-81.32 104.38-105.3 137.4-1.3 1.82-4.94 101.7-5.87 103.24-.94-1.53-4.27-101.84-5.5-103.58C275 347.44 191.44 269.33 191.44 246.6c0-7.53 50.62-13.63 113.07-13.63 62.44 0 113.05 6.08 113.05 13.63z"/><path fill="#c3ac90" d="M373.55 646.62c0-20.66-57.5-71.34-68.57-89.63-12.78 20.42-70.9 74.9-70.9 89.62 0 4.64 31.23 19.46 69.74 19.46 38.5 0 69.73-14.82 69.73-19.46z"/><ellipse cx="305.761" cy="386.979" fill="#d2bfaa" rx="6.823" ry=".823" transform="matrix(16.572 0 0 16.572 -4762.537 -6166.376)"/><path fill="#8f6738" d="M477.64 92.8c-7.95 11.4-73.93 20.87-171.93 20.87s-165.8-10.1-173.32-21.4c-4.14-6.2-17.6-38.16-21.23-50.06 2.6 16.07 116.06 23.84 195.24 23.84 69.77 0 184.86-6.2 193.68-23.83-7.77 17.1-20.5 47.8-22.44 50.6z"/><ellipse cx="305.834" cy="374.666" fill="#d2bfaa" rx="11.75" ry="1.417" transform="matrix(16.572 0 0 16.572 -4762.537 -6166.376)"/><path fill="#8f6738" d="M170.37 699.9c-5.52 7.24-21.76 5.52-26.24 0V98.8c8.47 2.38 14.16 4.28 26.24 6v595.1z"/><path fill="#8f6738" d="M440 700.93c5.54 7.26 21.77 5.53 26.26 0V99.1c-8.64 2.6-13.82 3.63-26.25 6.22v595.6z"/><path fill="url(#e)" d="M477.64 92.8c-7.95 11.4-73.93 20.87-171.93 20.87s-165.8-10.1-173.32-21.4c-4.14-6.2-17.6-38.16-21.23-50.06 2.6 16.07 116.06 23.84 195.24 23.84 69.77 0 184.86-6.2 193.68-23.83-7.77 17.1-20.5 47.8-22.44 50.6z"/><path fill="url(#f)" d="M440 700.93c5.54 7.26 21.77 5.53 26.26 0V99.1c-8.64 2.6-13.82 3.63-26.25 6.22v595.6z"/><path fill="url(#g)" d="M500.08 753.07c0 12.97-87.18 23.48-194.72 23.48-107.55 0-194.72-10.5-194.72-23.48 0-4.5 7.7-37.4 17.25-53.17 4.83 14.5 106.4 21.4 176.76 21.4 76.88 0 176.78-7.6 178.15-22.1 8.3 12.44 17.28 50.17 17.28 53.87z"/><path fill="url(#h)" d="M170.37 700.95c-5.52 7.24-21.76 5.5-26.24 0V99.85c8.47 2.37 14.16 4.28 26.24 5.98v595.12z"/><path fill="#c3e8f6" d="M235.96 131.98c-30.05 23.83-56.15 73.1-27.98 132.58 9.33 19.7 42.48 27.97 42.48 27.97S201.8 191 235.96 131.98z" opacity=".6"/><path fill="#c3e8f6" d="M240.1 485.5c-30.04 23.84-56.14 73.08-27.97 132.6 9.33 19.67 42.47 27.96 42.47 27.96s-48.67-101.52-14.5-160.55z" opacity=".6"/><ellipse cx="300.781" cy="384.187" fill="#fff" transform="matrix(16.53 -1.177 1.177 16.53 -5202.207 -5796.215)" rx=".656" ry="1.437"/><ellipse cx="301.063" cy="404.25" fill="#fff" transform="matrix(16.119 3.845 -3.845 16.119 -3072.022 -7141.159)" rx=".657" ry="1.437"/></svg>