<svg xmlns="http://www.w3.org/2000/svg" width="48" height="48" xmlns:xlink="http://www.w3.org/1999/xlink"><defs><linearGradient id="t"><stop offset="0" stop-color="#fcaf3e"/><stop offset="1" stop-color="#fced3e"/></linearGradient><linearGradient id="s"><stop offset="0" stop-color="#2e3436"/><stop offset=".5" stop-color="#88959a"/><stop offset="1" stop-color="#2e3436"/></linearGradient><linearGradient id="r"><stop offset="0" stop-color="#efca29"/><stop offset="1" stop-color="#ef2929"/></linearGradient><linearGradient id="q"><stop offset="0" stop-color="#9fa19c"/><stop offset="1" stop-color="#555753"/></linearGradient><linearGradient id="l"><stop offset="0" stop-color="#729fcf"/><stop offset="1" stop-color="#729fcf" stop-opacity="0"/></linearGradient><linearGradient id="k"><stop offset="0" stop-color="#ef2929"/><stop offset="1" stop-color="#ef2929" stop-opacity="0"/></linearGradient><linearGradient id="g"><stop offset="0" stop-color="#a5a5a5"/><stop offset="1" stop-color="#1e1e1e"/></linearGradient><linearGradient id="e"><stop offset="0"/><stop offset="1" stop-opacity="0"/></linearGradient><linearGradient id="p"><stop offset="0" stop-color="#a1a39f"/><stop offset="1" stop-color="#3e3f3d"/></linearGradient><linearGradient id="m"><stop offset="0" stop-color="#fff"/><stop offset="1" stop-color="#dadada"/></linearGradient><linearGradient id="h"><stop offset="0" stop-color="#959595"/><stop offset="1" stop-color="#4c4c4c"/></linearGradient><linearGradient id="i"><stop offset="0" stop-color="#939393"/><stop offset="1" stop-color="#fff"/></linearGradient><linearGradient id="j"><stop offset="0" stop-color="#ddd"/><stop offset="1" stop-color="#9d9d9d"/></linearGradient><linearGradient id="n"><stop offset="0" stop-color="#888a85" stop-opacity="0"/><stop offset="1" stop-opacity=".117"/></linearGradient><linearGradient id="f"><stop offset="0"/><stop offset="1" stop-opacity="0"/></linearGradient><linearGradient id="o"><stop offset="0" stop-color="#f4f4f4"/><stop offset=".736" stop-color="#e8e8e8"/><stop offset="1" stop-color="#d1d1d1"/></linearGradient><linearGradient id="b"><stop offset="0" stop-color="#d3d7cf"/><stop offset="1" stop-color="#d3d7cf" stop-opacity="0"/></linearGradient><linearGradient id="a"><stop offset="0" stop-color="#838383"/><stop offset="1"/></linearGradient><linearGradient id="c"><stop offset="0" stop-color="#1c1c1b"/><stop offset="1" stop-color="#888a85"/></linearGradient><linearGradient x1="14.951" x2="21.701" y1="18.491" y2="25.563" xlink:href="#a" gradientUnits="userSpaceOnUse"/><linearGradient x1="20.36" x2="15.256" y1="24.116" y2="19.116" xlink:href="#a" gradientUnits="userSpaceOnUse"/><radialGradient cx="16.549" cy="20.652" r="3.341" xlink:href="#b" gradientUnits="userSpaceOnUse" gradientTransform="matrix(1.492 -.022 .021 1.459 -8.58 -9.128)" fx="16.549" fy="20.652"/><radialGradient cx="28.499" cy="19.141" r="3.67" xlink:href="#c" gradientUnits="userSpaceOnUse" gradientTransform="matrix(1.614 -.017 .021 1.988 -17.888 -18.434)" fx="28.499" fy="19.141"/><radialGradient cx="21.483" cy="22.169" r="21.156" xlink:href="#d" gradientUnits="userSpaceOnUse" gradientTransform="matrix(1.087 0 0 1.087 24.073 3.327)" fx="21.483" fy="22.169"/><linearGradient id="d"><stop offset="0" stop-color="#ffae00"/><stop offset="1" stop-color="#ff3600"/></linearGradient><radialGradient cx="23.75" cy="25.786" r="22.393" xlink:href="#e" fx="23.75" fy="25.786" gradientTransform="matrix(1 0 0 .762 0 6.128)" gradientUnits="userSpaceOnUse"/><radialGradient id="x" cx="18.587" cy="21.433" r="3.384" xlink:href="#f" gradientUnits="userSpaceOnUse" fx="18.587" fy="21.433"/><linearGradient x1="20.36" x2="15.256" y1="24.116" y2="19.116" xlink:href="#g" gradientUnits="userSpaceOnUse" gradientTransform="matrix(1.245 .141 -.141 1.245 -7.378 -6.275)"/><radialGradient cx="16.549" cy="20.652" r="3.341" xlink:href="#b" gradientUnits="userSpaceOnUse" gradientTransform="matrix(1.86 .183 -.179 1.82 -16.769 -18.846)" fx="16.549" fy="20.652"/><linearGradient id="E" x1="30.407" x2="34.45" y1="14.179" y2="14.179" xlink:href="#h" gradientUnits="userSpaceOnUse"/><linearGradient id="F" x1="30.94" x2="34.363" y1="12.467" y2="15.778" xlink:href="#i" gradientUnits="userSpaceOnUse"/><radialGradient id="G" cx="31.663" cy="13.362" r="1.786" xlink:href="#j" gradientUnits="userSpaceOnUse" fx="31.663" fy="13.362"/><linearGradient id="H" x1="30.407" x2="34.45" y1="14.179" y2="14.179" xlink:href="#h" gradientUnits="userSpaceOnUse"/><linearGradient id="I" x1="30.94" x2="34.363" y1="12.467" y2="15.778" xlink:href="#i" gradientUnits="userSpaceOnUse"/><radialGradient id="J" cx="31.663" cy="13.362" r="1.786" xlink:href="#j" gradientUnits="userSpaceOnUse" fx="31.663" fy="13.362"/><linearGradient id="K" x1="30.407" x2="34.45" y1="14.179" y2="14.179" xlink:href="#h" gradientUnits="userSpaceOnUse"/><linearGradient id="L" x1="30.94" x2="34.363" y1="12.467" y2="15.778" xlink:href="#i" gradientUnits="userSpaceOnUse"/><radialGradient cx="31.663" cy="13.362" r="1.786" xlink:href="#j" gradientUnits="userSpaceOnUse" fx="31.663" fy="13.362"/><linearGradient id="N" x1="30.407" x2="34.45" y1="14.179" y2="14.179" xlink:href="#h" gradientUnits="userSpaceOnUse"/><linearGradient id="O" x1="30.94" x2="34.363" y1="12.467" y2="15.778" xlink:href="#i" gradientUnits="userSpaceOnUse"/><radialGradient id="P" cx="31.663" cy="13.362" r="1.786" xlink:href="#j" gradientUnits="userSpaceOnUse" fx="31.663" fy="13.362"/><radialGradient id="R" cx="18.587" cy="21.433" r="3.384" xlink:href="#f" gradientUnits="userSpaceOnUse" fx="18.587" fy="21.433"/><radialGradient id="S" cx="28.499" cy="19.141" r="3.67" xlink:href="#c" gradientUnits="userSpaceOnUse" gradientTransform="matrix(1.614 -.017 .021 1.988 -17.888 -18.434)" fx="28.499" fy="19.141"/><linearGradient id="U" x1="28.82" x2="26.424" y1="22.097" y2="4.518" xlink:href="#k" gradientUnits="userSpaceOnUse"/><linearGradient id="T" x1="36.011" x2="16.019" y1="15.141" y2="11.845" xlink:href="#l" gradientUnits="userSpaceOnUse"/><linearGradient id="Q" x1="24.916" x2="24.686" y1="7.224" y2="46.224" xlink:href="#m" gradientUnits="userSpaceOnUse" gradientTransform="matrix(.755 0 0 .755 7 19.415)"/><linearGradient id="z" x1="20.36" x2="15.256" y1="24.116" y2="19.116" xlink:href="#g" gradientUnits="userSpaceOnUse" gradientTransform="matrix(.905 .103 -.102 .906 2.251 8.469)"/><radialGradient id="A" cx="16.549" cy="20.652" r="3.341" xlink:href="#b" gradientUnits="userSpaceOnUse" gradientTransform="matrix(1.353 .133 -.13 1.324 -4.581 -.676)" fx="16.549" fy="20.652"/><linearGradient id="y" x1="14.951" x2="21.701" y1="18.491" y2="25.563" xlink:href="#a" gradientUnits="userSpaceOnUse" gradientTransform="matrix(.905 .103 -.102 .906 2.251 8.469)"/><radialGradient id="w" cx="23.489" cy="17.3" r="22.621" xlink:href="#n" gradientUnits="userSpaceOnUse" gradientTransform="matrix(1.324 -.005 .002 .61 -6.418 23.954)" fx="23.489" fy="17.3"/><radialGradient id="u" cx="23.994" cy="15.351" r="22.863" xlink:href="#o" gradientUnits="userSpaceOnUse" gradientTransform="matrix(1.017 .007 -.003 .532 .771 24.045)" fx="23.994" fy="15.351"/><linearGradient id="v" x1="22.703" x2="21.25" y1="4.688" y2="42.509" xlink:href="#p" gradientUnits="userSpaceOnUse" gradientTransform="matrix(.755 0 0 .755 7 19.415)"/><radialGradient id="D" cx="28.499" cy="19.141" r="3.67" xlink:href="#c" gradientUnits="userSpaceOnUse" gradientTransform="matrix(1.614 -.017 .021 1.988 -17.888 -18.434)" fx="28.499" fy="19.141"/><radialGradient id="B" cx="28.44" cy="19.334" r="3.232" xlink:href="#q" fx="28.44" fy="19.334" gradientUnits="userSpaceOnUse"/><radialGradient cx="26.408" cy="12.692" r="4.551" xlink:href="#r" gradientUnits="userSpaceOnUse" gradientTransform="matrix(2.703 -1.402 1.314 2.522 -61.377 18.102)" fx="26.408" fy="12.692"/><radialGradient id="M" cx="31.663" cy="13.362" r="1.786" xlink:href="#j" gradientUnits="userSpaceOnUse" fx="31.663" fy="13.362"/><linearGradient id="C" x1="19.193" x2="21.036" y1="36.935" y2="34.663" xlink:href="#s" gradientUnits="userSpaceOnUse"/><radialGradient cx="26.408" cy="12.692" r="4.551" xlink:href="#r" gradientUnits="userSpaceOnUse" gradientTransform="matrix(2.703 -1.402 1.314 2.522 -61.377 18.102)" fx="26.408" fy="12.692"/><radialGradient id="V" cx="26.408" cy="12.692" r="4.551" xlink:href="#r" gradientUnits="userSpaceOnUse" gradientTransform="matrix(2.703 -1.402 1.314 2.522 -61.377 18.102)" fx="26.408" fy="12.692"/><linearGradient id="W" x1="19.214" x2="27.923" y1="7.563" y2="7.563" xlink:href="#t" gradientUnits="userSpaceOnUse"/></defs><g><path fill="#fff" fill-opacity=".251" stroke="#8ae234" d="M35.56 11.76a11.2 11.2 0 1 1-22.38 0 11.2 11.2 0 1 1 22.38 0z" color="#000" overflow="visible" enable-background="accumulate"/><path fill="#555753" stroke="#888a85" stroke-width=".5" d="M12.17 27.06c.43-.84 2.57-4.05 4.7-4.4 2.5-.38 4.18 1.1 8.2 1.1 4 0 5.67-1.48 8.18-1.1 2.13.35 4.3 3.67 4.74 4.5z"/><path fill="url(#u)" stroke="url(#v)" d="M17.78 40.8c-.9.35-2.7 2.97-3.02 3.67-.32.7-2.13 3.12-3.45 3.1-1.3-.03-3.46-2.13-3.3-5.9.16-3.78 3.77-13.4 4.2-14.25.43-.83 2.54-3.38 4.67-3.72 2.5-.4 4.18 1.08 8.2 1.08 4 0 5.67-1.47 8.18-1.08 2.13.34 4.23 2.9 4.67 3.72.43.84 4.04 10.47 4.2 14.24.16 3.78-2 5.88-3.32 5.9-1.32.03-3.15-2.2-3.47-2.9-.33-.7-2.13-3.5-3.05-3.86-.92-.35-5.47.38-7.27.38-1.8 0-6.3-.73-7.22-.38z"/><path fill="url(#w)" d="M12.46 26.96c-.15.2-.3.38-.36.5-.43.85-4.06 10.5-4.22 14.27-.16 3.77 2 5.87 3.33 5.9 1.33.02 3.13-2.42 3.45-3.12.32-.7 2.1-3.3 3.02-3.65.92-.35 5.42.38 7.22.38 1.8 0 6.36-.73 7.28-.38.9.35 2.72 3.15 3.04 3.85.32.7 2.15 2.95 3.47 2.93 1.3-.03 3.48-2.13 3.32-5.9-.17-3.78-3.77-13.42-4.2-14.26-.07-.13-.2-.3-.36-.5 1.1 2.95 2.98 8.52 3.1 11.1.14 3.45-1.82 5.38-3.03 5.4-1.2.03-2.9-2.02-3.18-2.66-.3-.63-1.95-3.2-2.8-3.5-.82-.33-5 .32-6.64.32-1.64 0-5.75-.65-6.6-.33-.83.3-2.46 2.7-2.75 3.34-.3.64-1.96 2.86-3.16 2.83-1.22-.02-3.2-1.95-3.06-5.4.1-2.58 2-8.15 3.12-11.1z"/><path fill="url(#x)" d="M21.97 21.43a3.38 3.38 0 1 1-6.77 0 3.38 3.38 0 1 1 6.77 0z" transform="matrix(1.007 0 0 1.007 1.915 15.113)" color="#000" overflow="visible" enable-background="accumulate"/><path fill="url(#y)" d="M16.4 26.52c-.56-.06-1.07.32-1.13.88l-.13 1.16-1.16-.13c-.56-.07-1.05.35-1.1.9l-.06.46c-.06.54.32 1.03.88 1.1l1.16.12-.13 1.16c-.07.56.34 1.07.9 1.13l.45.07c.56.06 1.05-.36 1.1-.9l.14-1.17 1.16.13c.55.06 1.07-.32 1.13-.88l.06-.45c.06-.55-.35-1.07-.9-1.13l-1.16-.13.13-1.16c.06-.56-.32-1.04-.88-1.1l-.45-.06z" color="#000" overflow="visible" enable-background="accumulate"/><path fill="url(#z)" stroke="url(#A)" stroke-width=".25" d="M16.38 27c-.48-.04-.8.3-.84.77l-.14 1.2-1.12-.13c-.48-.06-.88.1-.93.58l-.04.4c-.05.46.3.67.78.72l1.13.13-.13 1.2c-.05.48.17.9.65.96l.38.05c.48.05.75-.32.8-.8l.14-1.2 1.14.13c.48.06.9-.06.95-.53l.04-.4c.06-.47-.32-.72-.8-.77l-1.13-.13.13-1.2c.06-.46-.13-.86-.6-.92z" color="#000" overflow="visible" enable-background="accumulate"/><path fill="#fff" d="M23.1 35.92a2.66 2.66 0 1 1-5.32 0 2.66 2.66 0 1 1 5.32 0z" color="#000" overflow="visible" enable-background="accumulate"/><path d="M22.75 35.92a2.3 2.3 0 1 1-4.62 0 2.3 2.3 0 1 1 4.62 0z" color="#000" overflow="visible" enable-background="accumulate"/><path fill="url(#B)" d="M33.36 21.02a3.23 3.23 0 1 1-6.47 0 3.23 3.23 0 1 1 6.46 0z" transform="matrix(.615 0 0 .615 1.922 23)" color="#000" overflow="visible" enable-background="accumulate"/><path fill="url(#C)" d="M20 38c-.62-.3-.96-1.02-1.1-2 .13-.82.6-1.28 1.35-1.44 1.12-.06 1.84.33 2.35.94z"/><path fill="url(#D)" stroke="#f57900" stroke-width=".889" d="M33.36 21.02a3.23 3.23 0 1 1-6.47 0 3.23 3.23 0 1 1 6.46 0z" transform="matrix(.424 -.424 .372 .372 .935 41.79)" color="#000" overflow="visible" enable-background="accumulate"/><g color="#000"><path fill="url(#E)" stroke="url(#F)" stroke-width=".625" d="M34.2 14.18c0 .98-.8 1.78-1.77 1.78-1 0-1.8-.8-1.8-1.78 0-1 .8-1.8 1.8-1.8.98 0 1.78.8 1.78 1.8z" transform="matrix(.8 0 0 .8 5.342 18.207)" overflow="visible" enable-background="accumulate"/><path fill="url(#G)" d="M34.2 14.18c0 .98-.8 1.78-1.77 1.78-1 0-1.8-.8-1.8-1.78 0-1 .8-1.8 1.8-1.8.98 0 1.78.8 1.78 1.8z" transform="matrix(.619 0 0 .619 11.218 20.372)" overflow="visible" enable-background="accumulate"/></g><g color="#000"><path fill="url(#H)" stroke="url(#I)" stroke-width=".625" d="M34.2 14.18c0 .98-.8 1.78-1.77 1.78-1 0-1.8-.8-1.8-1.78 0-1 .8-1.8 1.8-1.8.98 0 1.78.8 1.78 1.8z" transform="matrix(.8 0 0 .8 8.416 16.185)" overflow="visible" enable-background="accumulate"/><path fill="url(#J)" d="M34.2 14.18c0 .98-.8 1.78-1.77 1.78-1 0-1.8-.8-1.8-1.78 0-1 .8-1.8 1.8-1.8.98 0 1.78.8 1.78 1.8z" transform="matrix(.619 0 0 .619 14.292 18.35)" overflow="visible" enable-background="accumulate"/></g><path fill="url(#K)" stroke="url(#L)" stroke-width=".625" d="M34.2 14.18a1.8 1.8 0 1 1-3.56 0 1.8 1.8 0 1 1 3.57 0z" transform="matrix(.8 0 0 .8 10.761 19.474)" color="#000" overflow="visible" enable-background="accumulate"/><path fill="url(#M)" d="M34.2 14.18a1.8 1.8 0 1 1-3.56 0 1.8 1.8 0 1 1 3.57 0z" transform="matrix(.619 0 0 .619 16.637 21.639)" color="#000" overflow="visible" enable-background="accumulate"/><g color="#000"><path fill="url(#N)" stroke="url(#O)" stroke-width=".625" d="M34.2 14.18c0 .98-.8 1.78-1.77 1.78-1 0-1.8-.8-1.8-1.78 0-1 .8-1.8 1.8-1.8.98 0 1.78.8 1.78 1.8z" transform="matrix(.8 0 0 .8 7.507 21.47)" overflow="visible" enable-background="accumulate"/><path fill="url(#P)" d="M34.2 14.18c0 .98-.8 1.78-1.77 1.78-1 0-1.8-.8-1.8-1.78 0-1 .8-1.8 1.8-1.8.98 0 1.78.8 1.78 1.8z" transform="matrix(.619 0 0 .619 13.383 23.635)" overflow="visible" enable-background="accumulate"/></g><path fill="#babdb6" d="M26 28.7c-.12-.5-.65-1.1-1.23-1.22-.6-.14-1-.14-1.5.17-.13.1-.36.25-.58.48v.78c.3-.65 1-1.2 1.8-1 1.33.34 1.1 1.26.95 1.63-.3.67-1.35.96-1.67.32-.36-.7.43-.8.43-.8s-.2.18.07.44c.18.17.52 0 .63-.3.1-.28-.12-.66-.6-.7-.4-.04-1.03.27-1.1.87-.05.58.2.82.6 1.07.38.26 1.2.35 1.67-.1.5-.48.66-.98.52-1.64zm-3.3-2.72v1.52c.22-.2.42-.3.43-.3.85-.5 1.6-.25 2.04-.12.7.22 1.25.75 1.5 1.3.27.64.03 1.87-.9 2.48-.05.03-.1.05-.13.08h2v-4.96H22.7zm0 4.14v.82h.86c-.06-.04-.12-.07-.17-.1-.27-.18-.54-.42-.7-.72z"/><path fill="none" stroke="url(#Q)" stroke-width=".5" d="M17.64 40.45c-.9.34-2.62 2.87-2.94 3.55-.3.68-2.05 3.24-3.34 3.2-1.28 0-3.12-2.05-2.96-5.7.16-3.66 3.7-13.1 4.13-13.9.42-.8 2.36-3.22 4.44-3.55 2.44-.38 4.18 1.08 8.1 1.08 3.9 0 5.66-1.43 8.1-1.05 2.08.32 4.03 2.7 4.45 3.5.42.8 3.92 10.2 4.1 13.86.18 3.74-1.52 5.75-2.8 5.77-1.3.04-3.2-2.3-3.5-3-.32-.67-2.08-3.4-2.97-3.73-.9-.34-5.85.34-7.6.34-1.76 0-6.3-.7-7.2-.35z"/><path fill="url(#R)" d="M21.97 21.43a3.38 3.38 0 1 1-6.77 0 3.38 3.38 0 1 1 6.77 0z" transform="matrix(1.007 0 0 1.007 10.731 15.113)" color="#000" overflow="visible" enable-background="accumulate"/><g color="#000"><path fill="#fff" d="M31.92 35.92c0 1.47-1.2 2.66-2.66 2.66-1.47 0-2.66-1.2-2.66-2.66 0-1.47 1.2-2.66 2.66-2.66 1.47 0 2.66 1.2 2.66 2.66z" overflow="visible" enable-background="accumulate"/><path d="M31.56 35.9c0 1.3-1.04 2.32-2.3 2.32-1.3 0-2.32-1.03-2.32-2.3 0-1.28 1.03-2.3 2.3-2.3 1.28 0 2.32 1.02 2.32 2.3z" overflow="visible" enable-background="accumulate"/><path fill="#555753" d="M31.25 35.93c0 1.1-.9 1.98-2 1.98-1.08 0-1.97-.88-1.97-1.97 0-1.1.9-2 1.98-2 1.1 0 2 .9 2 2z" overflow="visible" enable-background="accumulate"/><path fill="url(#S)" stroke="#888a85" stroke-width="1.064" d="M33.36 21.02c0 1.78-1.45 3.23-3.23 3.23-1.8 0-3.24-1.45-3.24-3.23 0-1.8 1.44-3.23 3.23-3.23 1.78 0 3.23 1.43 3.23 3.22z" transform="matrix(.47 0 0 .47 15.1 26.044)" overflow="visible" enable-background="accumulate"/></g><path fill="none" stroke="#8ae234" d="M35.56 11.76a11.2 11.2 0 1 1-22.38 0 11.2 11.2 0 1 1 22.38 0z" color="#000" overflow="visible" enable-background="accumulate"/><path fill="none" stroke="url(#T)" stroke-width="1.523" d="M35.56 12.1a11.2 11.2 0 1 1-22.38 0 11.2 11.2 0 1 1 22.38 0z" transform="matrix(.416 .112 -.259 .966 17.356 -2.66)" color="#000" overflow="visible" enable-background="accumulate"/><path fill="none" stroke="url(#U)" stroke-width="1.898" d="M35.56 12.1a11.2 11.2 0 1 1-22.38 0 11.2 11.2 0 1 1 22.38 0z" transform="matrix(.966 .259 -.072 .268 1.701 2.204)" color="#000" overflow="visible" enable-background="accumulate"/><path fill="url(#V)" stroke="#a40000" d="M18.35 3.4c2.3 1.33 4.38 3.22 5.47 5.62l-2.55 1.6c1.48.62 3.8 1.87 5.26 2.95 1.23-2.05 1.9-4.35 1.7-7.06l-2.2 1.12c-.6-2.77-3.68-5.32-4.84-5.9z"/><path fill="none" stroke="url(#W)" stroke-width=".5" d="M19.46 3.5c1.7 1 4.13 4 4.94 5.77l-1.9 1.2c1.1.44 2.8 1.38 3.9 2.18.9-1.52 1.4-3.23 1.25-5.24l-1.95.96c-.46-2.54-3.65-5.44-4.5-5.88z"/></g></svg>