<svg xmlns="http://www.w3.org/2000/svg" width="48" height="48" xmlns:xlink="http://www.w3.org/1999/xlink"><defs><linearGradient id="f"><stop offset="0" stop-color="#fcaf3e" stop-opacity=".515"/><stop offset="1" stop-color="#fcaf3e" stop-opacity="0"/></linearGradient><linearGradient id="e"><stop offset="0" stop-color="#ffab66" stop-opacity=".67"/><stop offset="1" stop-color="#ce5c00" stop-opacity="0"/></linearGradient><linearGradient id="d"><stop offset="0" stop-color="#fcaf3e"/><stop offset="1" stop-color="#fcaf3e" stop-opacity="0"/></linearGradient><linearGradient id="c"><stop offset="0" stop-color="#eeeeec"/><stop offset="1" stop-color="#eeeeec" stop-opacity="0"/></linearGradient><linearGradient id="m" x1="404.497" x2="412.232" y1="1666.469" y2="1670.438" gradientUnits="userSpaceOnUse" gradientTransform="matrix(1.102 0 0 1.1 -450.425 -1823.944)"><stop offset="0" stop-color="#B9BFC2"/><stop offset="1" stop-color="#7E858C"/></linearGradient><linearGradient id="n" x1="414.377" x2="421.982" y1="1666.646" y2="1670.482" gradientUnits="userSpaceOnUse" gradientTransform="matrix(1.102 0 0 1.1 -450.425 -1823.944)"><stop offset="0" stop-color="#B9BFC2"/><stop offset="1" stop-color="#7E858C"/></linearGradient><linearGradient id="o" x1="409.281" x2="416.887" y1="1672.295" y2="1676.334" gradientUnits="userSpaceOnUse" gradientTransform="matrix(1.102 0 0 1.1 -450.425 -1823.944)"><stop offset="0" stop-color="#B9BFC2"/><stop offset="1" stop-color="#7E858C"/></linearGradient><linearGradient id="p" x1="403.044" x2="407.373" y1="1672.282" y2="1676.424" gradientUnits="userSpaceOnUse" gradientTransform="matrix(1.102 0 0 1.1 -450.425 -1823.944)"><stop offset="0" stop-color="#B9BFC2"/><stop offset="1" stop-color="#7E858C"/></linearGradient><linearGradient id="q" x1="419.044" x2="423.485" y1="1672.203" y2="1676.375" gradientUnits="userSpaceOnUse" gradientTransform="matrix(1.102 0 0 1.1 -450.425 -1823.944)"><stop offset="0" stop-color="#B9BFC2"/><stop offset="1" stop-color="#7E858C"/></linearGradient><linearGradient id="r" x1="404.908" x2="412.446" y1="1678.346" y2="1682.182" gradientUnits="userSpaceOnUse" gradientTransform="matrix(1.102 0 0 1.1 -450.425 -1823.944)"><stop offset="0" stop-color="#B9BFC2"/><stop offset="1" stop-color="#7E858C"/></linearGradient><linearGradient id="s" x1="414.245" x2="421.943" y1="1678.299" y2="1682.044" gradientUnits="userSpaceOnUse" gradientTransform="matrix(1.102 0 0 1.1 -450.425 -1823.944)"><stop offset="0" stop-color="#B9BFC2"/><stop offset="1" stop-color="#7E858C"/></linearGradient><linearGradient id="t" x1="409.571" x2="416.945" y1="1684.063" y2="1688.052" gradientUnits="userSpaceOnUse" gradientTransform="matrix(1.102 0 0 1.1 -450.425 -1823.944)"><stop offset="0" stop-color="#B9BFC2"/><stop offset="1" stop-color="#7E858C"/></linearGradient><linearGradient id="u" x1="403.088" x2="407.351" y1="1683.885" y2="1688.136" gradientUnits="userSpaceOnUse" gradientTransform="matrix(1.102 0 0 1.1 -450.425 -1823.944)"><stop offset="0" stop-color="#B9BFC2"/><stop offset="1" stop-color="#7E858C"/></linearGradient><linearGradient id="v" x1="418.94" x2="423.777" y1="1683.931" y2="1688.117" gradientUnits="userSpaceOnUse" gradientTransform="matrix(1.102 0 0 1.1 -450.425 -1823.944)"><stop offset="0" stop-color="#B9BFC2"/><stop offset="1" stop-color="#7E858C"/></linearGradient><linearGradient id="w" x1="404.572" x2="412.443" y1="1690.075" y2="1693.59" gradientUnits="userSpaceOnUse" gradientTransform="matrix(1.102 0 0 1.1 -450.425 -1823.944)"><stop offset="0" stop-color="#B9BFC2"/><stop offset="1" stop-color="#7E858C"/></linearGradient><linearGradient id="x" x1="414.397" x2="422.002" y1="1690.056" y2="1693.69" gradientUnits="userSpaceOnUse" gradientTransform="matrix(1.102 0 0 1.1 -450.425 -1823.944)"><stop offset="0" stop-color="#B9BFC2"/><stop offset="1" stop-color="#7E858C"/></linearGradient><linearGradient id="y" x1="409.536" x2="416.969" y1="1695.769" y2="1699.637" gradientUnits="userSpaceOnUse" gradientTransform="matrix(1.102 0 0 1.1 -450.425 -1823.944)"><stop offset="0" stop-color="#B9BFC2"/><stop offset="1" stop-color="#7E858C"/></linearGradient><linearGradient id="z" x1="403.25" x2="407.152" y1="1695.584" y2="1699.689" gradientUnits="userSpaceOnUse" gradientTransform="matrix(1.102 0 0 1.1 -450.425 -1823.944)"><stop offset="0" stop-color="#B9BFC2"/><stop offset="1" stop-color="#7E858C"/></linearGradient><linearGradient id="A" x1="419.188" x2="423.697" y1="1695.509" y2="1700.018" gradientUnits="userSpaceOnUse" gradientTransform="matrix(1.102 0 0 1.1 -450.425 -1823.944)"><stop offset="0" stop-color="#B9BFC2"/><stop offset="1" stop-color="#7E858C"/></linearGradient><radialGradient id="b" cx="1419.312" cy="1679.043" r="8.971" gradientUnits="userSpaceOnUse" gradientTransform="matrix(-1 0 0 1 1856.516 0)" fy="1679.043" fx="1419.312"><stop offset="0" stop-color="#fff"/><stop offset=".764" stop-color="#F17912"/><stop offset="1" stop-color="#8C3E0C"/></radialGradient><linearGradient id="a"><stop offset="0" stop-color="#fff"/><stop offset="1" stop-color="#d0f8ff"/></linearGradient><linearGradient><stop offset="0" stop-color="#fd9c00"/><stop offset="1" stop-color="#ce5c00"/></linearGradient><linearGradient x1="320.498" x2="328.231" y1="1666.47" y2="1670.438" gradientUnits="userSpaceOnUse" gradientTransform="translate(-307.269 -1655.985)"><stop offset="0" stop-color="#FAAF3E"/><stop offset="1" stop-color="#F17912"/></linearGradient><linearGradient x1="330.378" x2="337.982" y1="1666.647" y2="1670.483" gradientUnits="userSpaceOnUse" gradientTransform="translate(-307.269 -1655.985)"><stop offset="0" stop-color="#FAAF3E"/><stop offset="1" stop-color="#F17912"/></linearGradient><linearGradient x1="325.282" x2="332.887" y1="1672.295" y2="1676.334" gradientUnits="userSpaceOnUse" gradientTransform="translate(-307.269 -1655.985)"><stop offset="0" stop-color="#FAAF3E"/><stop offset="1" stop-color="#F17912"/></linearGradient><linearGradient x1="319.044" x2="323.373" y1="1672.282" y2="1676.424" gradientUnits="userSpaceOnUse" gradientTransform="translate(-315.412 -1650.271)"><stop offset="0" stop-color="#FAAF3E"/><stop offset="1" stop-color="#F17912"/></linearGradient><linearGradient x1="335.044" x2="339.486" y1="1672.203" y2="1676.376" gradientUnits="userSpaceOnUse" gradientTransform="translate(-307.269 -1655.985)"><stop offset="0" stop-color="#FAAF3E"/><stop offset="1" stop-color="#F17912"/></linearGradient><linearGradient x1="320.909" x2="328.447" y1="1678.346" y2="1682.182" gradientUnits="userSpaceOnUse" gradientTransform="translate(-307.269 -1655.985)"><stop offset="0" stop-color="#FAAF3E"/><stop offset="1" stop-color="#F17912"/></linearGradient><linearGradient x1="330.245" x2="337.943" y1="1678.3" y2="1682.045" gradientUnits="userSpaceOnUse" gradientTransform="translate(-307.269 -1655.985)"><stop offset="0" stop-color="#FAAF3E"/><stop offset="1" stop-color="#F17912"/></linearGradient><linearGradient x1="325.571" x2="332.945" y1="1684.063" y2="1688.052" gradientUnits="userSpaceOnUse" gradientTransform="translate(-307.269 -1655.985)"><stop offset="0" stop-color="#FAAF3E"/><stop offset="1" stop-color="#F17912"/></linearGradient><linearGradient x1="319.088" x2="323.352" y1="1683.885" y2="1688.137" gradientUnits="userSpaceOnUse" gradientTransform="translate(-307.269 -1655.985)"><stop offset="0" stop-color="#FAAF3E"/><stop offset="1" stop-color="#F17912"/></linearGradient><linearGradient x1="334.94" x2="339.776" y1="1683.931" y2="1688.117" gradientUnits="userSpaceOnUse" gradientTransform="translate(-307.269 -1655.985)"><stop offset="0" stop-color="#FAAF3E"/><stop offset="1" stop-color="#F17912"/></linearGradient><linearGradient x1="320.573" x2="328.444" y1="1690.075" y2="1693.59" gradientUnits="userSpaceOnUse" gradientTransform="translate(-307.269 -1655.985)"><stop offset="0" stop-color="#FAAF3E"/><stop offset="1" stop-color="#F17912"/></linearGradient><linearGradient x1="330.397" x2="338.002" y1="1690.056" y2="1693.69" gradientUnits="userSpaceOnUse" gradientTransform="translate(-307.269 -1655.985)"><stop offset="0" stop-color="#FAAF3E"/><stop offset="1" stop-color="#F17912"/></linearGradient><linearGradient x1="325.535" x2="332.969" y1="1695.768" y2="1699.636" gradientUnits="userSpaceOnUse" gradientTransform="translate(-307.269 -1655.985)"><stop offset="0" stop-color="#FAAF3E"/><stop offset="1" stop-color="#F17912"/></linearGradient><linearGradient x1="319.249" x2="323.152" y1="1695.584" y2="1699.69" gradientUnits="userSpaceOnUse" gradientTransform="translate(-307.269 -1655.985)"><stop offset="0" stop-color="#FAAF3E"/><stop offset="1" stop-color="#F17912"/></linearGradient><linearGradient x1="335.188" x2="339.697" y1="1695.509" y2="1700.018" gradientUnits="userSpaceOnUse" gradientTransform="translate(-307.269 -1655.985)"><stop offset="0" stop-color="#FAAF3E"/><stop offset="1" stop-color="#F17912"/></linearGradient><radialGradient cx="1503.709" cy="1679.003" r="9.817" gradientUnits="userSpaceOnUse" gradientTransform="matrix(-1 0 0 1 1856.516 0)" fy="1679.003" fx="1503.709"><stop offset="0" stop-color="#fff"/><stop offset=".09" stop-color="#F9FAFA"/><stop offset=".211" stop-color="#E8EBED"/><stop offset=".35" stop-color="#CCD2D7"/><stop offset=".5" stop-color="#A5B0B8"/><stop offset=".579" stop-color="#8E9CA6"/><stop offset="1" stop-color="#505359"/></radialGradient><linearGradient x1="16.571" x2="29.829" y1="3.176" y2="6.89" xlink:href="#a" gradientUnits="userSpaceOnUse" gradientTransform="matrix(1 0 0 1.136 0 -.384)"/><radialGradient id="k" cx="1419.312" cy="1679.043" r="8.971" xlink:href="#b" gradientUnits="userSpaceOnUse" gradientTransform="matrix(-1 0 0 1 1856.516 0)" fx="1419.312" fy="1679.043"/><linearGradient id="l" x1="439.093" x2="439.093" y1="1674.27" y2="1689.133" xlink:href="#c" gradientUnits="userSpaceOnUse"/><linearGradient id="i" x1="29.286" x2="13.357" y1="33.393" y2="24.179" xlink:href="#d" gradientUnits="userSpaceOnUse" gradientTransform="matrix(1.02 0 0 1 -.846 0)"/><linearGradient id="j" x1="31.5" x2="17.5" y1="29.393" y2="20.321" xlink:href="#e" gradientUnits="userSpaceOnUse"/><linearGradient id="g" x1="29.286" x2="13.357" y1="33.393" y2="24.179" xlink:href="#f" gradientUnits="userSpaceOnUse" gradientTransform="matrix(-1.204 .075 -.316 1.055 67.835 -15.846)"/><linearGradient id="h" x1="31.5" x2="17.5" y1="29.393" y2="20.321" xlink:href="#e" gradientUnits="userSpaceOnUse" gradientTransform="matrix(-1.18 .073 -.316 1.055 66.837 -15.784)"/></defs><g><path fill="url(#g)" fill-rule="evenodd" stroke="url(#h)" stroke-width="2" d="M16.06 32c-.15-1.34.03-11.6 0-13.03C24 5.77 46.7 2.57 46.7 2.57l-.77 8.97S23.67 15.1 16.06 32z" stroke-linejoin="round"/><path fill="url(#i)" fill-rule="evenodd" stroke="url(#j)" stroke-width="2" d="M30.14 42.86c1-1.3 10.52-12.9 11.3-13.72-9.96-8.1-25.44-9.7-25.44-9.7l-.14 12.06s8.34 3.93 14.28 11.36z" stroke-linejoin="round"/><g transform="translate(1 1.999)"><circle cx="439.093" cy="1681.701" r="7.065" fill="url(#k)" stroke="#3f1c08" stroke-width=".744" transform="matrix(1.345 0 0 1.345 -554.43 -2226.241)"/><circle cx="439.093" cy="1681.701" r="7.065" fill="none" stroke="url(#l)" stroke-width=".831" transform="matrix(1.203 0 0 1.203 -492.281 -1988.297)"/></g><g><path fill="#fff" d="M-6.5 6.33h23.12v41.4H-6.5z"/><path fill="url(#m)" d="M-4.68 9.35c.08-.33.42-.4 1.18-.4.88 0 4.1 0 4.98 0 .5 0 1 0 1.48 0 .27 0 .77-.08 1 .08.35.26.16 1.35.16 1.76 0 .67 0 1.35 0 2.03 0 .87-.5.75-1.23.75-1.46 0-4.2 0-5.65 0-.44 0-1.45.06-1.64-.04-.47-.24-.33-.9-.33-1.34 0-.93-.18-1.97.05-2.85z"/><path fill="#b9bfc2" d="M3.24 9.47l-.3.02h.02-6.46c-.5 0-.68.02-.73.04-.04.2-.05.45-.05.72 0 .33.02.68.04 1.04l.04.9v.28c-.02.07-.02.17-.02.26 0 .16 0 .3.07.33 0-.02.97 0 .97 0l.43-.02h5.87s.46 0 .47-.02c0 0 0-.02 0-.04 0-.07 0-.17 0-.17v-2.05l.02-.4c0-.1.03-.35.03-.57 0-.16-.02-.3-.05-.38-.02.05-.36.05-.36.05z"/><path fill="url(#n)" d="M5.9 9.35c.08-.33.42-.4 1.18-.4.87 0 4.1 0 4.98 0 .5 0 1 0 1.48 0 .27 0 .77-.08.98.08.37.26.18 1.35.18 1.76 0 .67 0 1.35 0 2.03 0 .87-.5.75-1.23.75-1.45 0-4.2 0-5.64 0-.44 0-1.45.06-1.64-.04-.5-.24-.35-.9-.35-1.34 0-.93-.18-1.97.05-2.85z"/><path fill="#b9bfc2" d="M13.82 9.47l-.3.02h.02-6.46c-.5 0-.68.02-.73.04-.04.2-.05.45-.05.7 0 .35.02.7.04 1.06l.04.9v.28c-.02.07-.02.17-.02.26 0 .16 0 .3.07.33 0-.02.97 0 .97 0l.43-.02h5.88s.47-.02.48-.02c0 0 0-.02 0-.04 0-.08 0-.17 0-.17s0-2.05 0-2.05l.02-.4c0-.1.03-.35.03-.56 0-.18-.02-.32-.05-.4-.02.05-.36.05-.36.05z"/><path fill="url(#o)" d="M.44 15.76c.08-.34.42-.4 1.18-.4.87 0 4.1 0 4.98 0 .5 0 1 0 1.48 0 .27 0 .77-.08.98.07.37.27.18 1.35.18 1.76 0 .68 0 1.36 0 2.04 0 .86-.5.74-1.23.74-1.44 0-4.18 0-5.63 0-.44 0-1.45.07-1.65-.03-.47-.25-.33-.9-.33-1.34 0-.92-.2-1.97.04-2.84z"/><path fill="#b9bfc2" d="M8.36 15.88H1.62c-.5 0-.68.04-.73.07-.05.2-.06.45-.06.7 0 .34.02.7.04 1.05l.04.9v.28c-.02.08-.02.17-.02.27 0 .15 0 .3.06.33 0-.02.98 0 .98 0l.43-.02h5.89s.46-.02.47-.02c0 0 0-.02 0-.05 0-.07 0-.16 0-.16s0-2.05 0-2.05l.02-.4c0-.12.03-.36.03-.58 0-.17-.02-.32-.05-.4-.02.06-.36.06-.36.06z"/><path fill="url(#p)" d="M-6.37 15.37c1.03 0 2.06 0 2.5 0 .5 0 .98 0 1.48 0 .28 0 .77-.1 1 .06.35.27.16 1.35.16 1.76 0 .67 0 1.36 0 2.04 0 .86-.5.74-1.23.74-.98 0-2.54 0-3.9 0v-4.6z"/><path fill="#b9bfc2" d="M-2.12 15.88h-.28s-2.8 0-3.44 0c0 .73 0 2.86 0 3.58.78 0 3.37 0 3.37 0h.24s.46-.02.47-.02c0 0 0-.02 0-.05 0-.07 0-.16 0-.16V17.2s.02-.4.02-.4c0-.12.03-.36.03-.58 0-.17-.03-.32-.06-.4-.02.06-.36.06-.36.06z"/><path fill="url(#q)" d="M16.47 20c-1.3 0-2.7 0-3.6 0-.45 0-1.46.05-1.65-.05-.48-.25-.34-.9-.34-1.34 0-.92-.18-1.97.05-2.84.08-.34.42-.4 1.18-.4.74 0 3.1 0 4.37 0V20z"/><path fill="#b9bfc2" d="M12.1 15.9c-.5 0-.67.02-.72.05-.04.2-.05.45-.05.7 0 .34.02.7.04 1.05l.04.9v.3c0 .06 0 .16 0 .25 0 .16 0 .3.06.33 0-.02.97 0 .97 0l.43-.02s2.32 0 3.08 0c0-.7 0-2.85 0-3.57-.8 0-3.83 0-3.83 0z"/><path fill="url(#r)" d="M-4.68 22.16c.08-.33.42-.4 1.18-.4.88 0 4.1 0 4.98 0 .5 0 1 0 1.48 0 .27 0 .77-.08 1 .08.35.26.16 1.35.16 1.76 0 .68 0 1.36 0 2.05 0 .86-.5.74-1.23.74-1.46 0-4.2 0-5.65 0-.44 0-1.45.05-1.64-.05-.47-.24-.33-.9-.33-1.34 0-.9-.18-1.96.05-2.84z"/><path fill="#b9bfc2" d="M3.24 22.28l-.3.02h.02-6.46c-.5 0-.68.03-.73.06-.04.2-.05.45-.05.7 0 .34.02.7.04 1.05l.04.9v.3c-.02.06-.02.16-.02.26 0 .15 0 .3.07.33 0-.03.97-.02.97-.02h6.31s.45-.03.46-.03c0 0 0-.02 0-.05 0-.06 0-.15 0-.15V23.6l.02-.4c0-.12.03-.36.03-.57 0-.17-.02-.32-.05-.4-.02.05-.36.05-.36.05z"/><path fill="url(#s)" d="M5.9 22.16c.08-.33.42-.4 1.18-.4.87 0 4.1 0 4.98 0 .5 0 1 0 1.48 0 .27 0 .77-.08.98.08.37.26.18 1.35.18 1.76 0 .68 0 1.36 0 2.05 0 .86-.5.74-1.23.74-1.45 0-4.2 0-5.64 0-.44 0-1.45.05-1.64-.05-.5-.24-.35-.9-.35-1.34 0-.9-.18-1.96.05-2.84z"/><path fill="#b9bfc2" d="M13.82 22.28l-.3.02h.02-6.46c-.5 0-.68.03-.73.06-.04.2-.05.45-.05.7 0 .34.02.7.04 1.05l.04.9v.3c-.02.06-.02.16-.02.26 0 .15 0 .3.07.33 0-.03.97-.02.97-.02h6.31s.47-.03.48-.03c0 0 0-.02 0-.05 0-.06 0-.15 0-.15V23.6l.02-.4c0-.12.03-.36.03-.57 0-.17-.02-.32-.05-.4-.02.05-.36.05-.36.05z"/><path fill="url(#t)" d="M.44 28.57c.08-.33.42-.4 1.18-.4.87 0 4.1 0 4.98 0 .5 0 1 0 1.48 0 .27 0 .77-.08.98.07.37.27.18 1.35.18 1.77 0 .7 0 1.37 0 2.05 0 .86-.5.75-1.23.75-1.44 0-4.18 0-5.63 0-.44 0-1.45.06-1.65-.04-.47-.24-.33-.9-.33-1.34 0-.93-.2-1.97.04-2.85z"/><path fill="#b9bfc2" d="M8.36 28.7h-.3.02-6.46c-.5 0-.68.04-.73.06-.05.2-.06.45-.06.72 0 .33.02.7.04 1.04l.04.9v.28c-.02.07-.02.17-.02.26 0 .16 0 .3.07.33 0-.03.97-.02.97-.02H8.26s.45-.02.47-.03c0 0 0 0 0-.04 0-.05 0-.15 0-.15V30l.02-.38c0-.13.03-.37.03-.58 0-.18-.02-.32-.05-.4-.02.05-.36.05-.36.05z"/><path fill="url(#u)" d="M-6.37 28.18c1.03 0 2.06 0 2.5 0 .5 0 .98 0 1.48 0 .28 0 .77-.1 1 .07.35.26.16 1.35.16 1.76 0 .7 0 1.37 0 2.05 0 .87-.5.75-1.23.75-.98 0-2.54 0-3.9 0v-4.62z"/><path fill="#b9bfc2" d="M-2.12 28.7h-.3.02s-2.8 0-3.44 0c0 .72 0 2.86 0 3.58.78 0 3.37 0 3.37 0h.25s.44-.02.46-.02c0 0 0-.02 0-.05 0-.05 0-.15 0-.15V30l.02-.38c0-.13.03-.37.03-.6 0-.15-.03-.3-.06-.38-.02.05-.36.05-.36.05z"/><path fill="url(#v)" d="M16.47 32.8c-1.3 0-2.7 0-3.6 0-.45 0-1.46.06-1.65-.04-.48-.24-.34-.9-.34-1.34 0-.92-.18-1.97.05-2.85.08-.33.42-.4 1.18-.4.74 0 3.1 0 4.37 0v4.63z"/><path fill="#b9bfc2" d="M12.1 28.7c-.5 0-.67.04-.72.06-.04.2-.05.45-.05.7 0 .35.02.7.04 1.06l.04.9v.28c0 .07 0 .17 0 .26 0 .16 0 .3.06.34 0-.03.97-.02.97-.02h.43s2.32 0 3.08 0c0-.72 0-2.86 0-3.58-.8 0-3.83 0-3.83 0z"/><path fill="url(#w)" d="M-4.68 34.98c.08-.33.42-.4 1.18-.4.88 0 4.1 0 4.98 0 .5 0 1 0 1.48 0 .27 0 .77-.08 1 .07.35.27.16 1.35.16 1.76 0 .7 0 1.38 0 2.06 0 .86-.5.75-1.23.75-1.46 0-4.2 0-5.65 0-.44 0-1.45.07-1.64-.03-.47-.25-.33-.9-.33-1.34 0-.93-.18-1.98.05-2.85z"/><path fill="#b9bfc2" d="M3.24 35.1H-3.5c-.5 0-.68.04-.73.07-.04.2-.05.45-.05.72 0 .3.02.67.04 1.02l.04.9v.28c-.02.08-.02.17-.02.27 0 .15 0 .3.07.33 0-.02.97 0 .97 0l.43-.02h5.88s.45-.02.46-.02c0 0 0-.02 0-.05 0-.05 0-.14 0-.14V36.4l.02-.38c0-.12.03-.36.03-.58 0-.17-.02-.32-.05-.4-.02.06-.36.06-.36.06z"/><path fill="url(#x)" d="M5.9 34.98c.08-.33.42-.4 1.18-.4.87 0 4.1 0 4.98 0 .5 0 1 0 1.48 0 .27 0 .77-.08.98.07.37.27.18 1.35.18 1.76 0 .7 0 1.38 0 2.06 0 .86-.5.75-1.23.75-1.45 0-4.2 0-5.64 0-.44 0-1.45.07-1.64-.03-.5-.25-.35-.9-.35-1.34 0-.93-.18-1.98.05-2.85z"/><path fill="#b9bfc2" d="M13.82 35.1H7.08c-.5 0-.68.04-.73.07-.04.2-.05.45-.05.7 0 .34.02.7.04 1.05l.04.9v.3c-.02.06-.02.15-.02.25 0 .15 0 .3.07.33 0-.02.97 0 .97 0l.43-.02h5.88s.47-.02.48-.02c0 0 0-.02 0-.04 0-.07 0-.16 0-.16V36.4l.02-.38c0-.12.03-.36.03-.58 0-.17-.02-.32-.05-.4-.02.06-.36.06-.36.06z"/><path fill="url(#y)" d="M.44 41.38c.08-.33.42-.4 1.18-.4.87 0 4.1 0 4.98 0 .5 0 1 0 1.48 0 .27 0 .77-.08.98.08.37.27.18 1.35.18 1.76 0 .68 0 1.37 0 2.05 0 .86-.5.74-1.23.74-1.44 0-4.18 0-5.63 0-.44 0-1.45.07-1.65-.03-.47-.24-.33-.9-.33-1.34 0-.92-.2-1.97.04-2.85z"/><path fill="#b9bfc2" d="M8.36 41.5l-.3.02h.02-6.46c-.5 0-.68.03-.73.06-.05.2-.06.45-.06.7 0 .34.02.7.04 1.05l.04.9v.28c-.02.08-.02.18-.02.27 0 .16 0 .3.07.34 0 0 .97 0 .97 0H8.26s.46-.03.47-.03c0 0 0-.02 0-.05 0-.06 0-.15 0-.15s0-2.05 0-2.05l.02-.4c0-.12.03-.36.03-.57 0-.17-.02-.32-.05-.4-.02.05-.36.05-.36.05z"/><path fill="url(#z)" d="M-6.37 41c1.03 0 2.06 0 2.5 0 .5 0 .98 0 1.48 0 .28 0 .77-.1 1 .06.35.26.16 1.35.16 1.76 0 .68 0 1.37 0 2.05 0 .86-.5.74-1.23.74-.98 0-2.54 0-3.9 0V41z"/><path fill="#b9bfc2" d="M-2.12 41.5l-.3.02h.02s-2.8 0-3.44 0c0 .7 0 2.85 0 3.57.78 0 3.37 0 3.37 0h.24s.46-.03.47-.03c0 0 0-.02 0-.05 0-.06 0-.15 0-.15s0-2.05 0-2.05l.02-.4c0-.12.03-.36.03-.57 0-.17-.03-.32-.06-.4-.02.05-.36.05-.36.05z"/><path fill="url(#A)" d="M16.47 45.6c-1.3 0-2.7 0-3.6 0-.45 0-1.46.08-1.65-.03-.48-.24-.34-.9-.34-1.34 0-.92-.18-1.97.05-2.85.08-.33.42-.38 1.18-.38.74 0 3.1 0 4.37 0v4.6z"/><path fill="#b9bfc2" d="M12.1 41.52c-.5 0-.67.03-.72.06-.04.2-.05.45-.05.7 0 .34.02.7.04 1.05l.04.9v.28c0 .1 0 .18 0 .28 0 .15 0 .3.06.33 0 0 .97 0 .97 0h.43s2.32 0 3.08 0c0-.73 0-2.86 0-3.58-.8 0-3.83 0-3.83 0z"/><path fill="none" stroke="#7e858c" d="M-6.5 6.33h23.12v41.4H-6.5z"/><path fill="#fff" stroke="#7e858c" d="M-7.76.55h25.63v5.78H-7.76z"/></g></g></svg>