<svg xmlns="http://www.w3.org/2000/svg" width="48" height="48" xmlns:xlink="http://www.w3.org/1999/xlink"><defs><linearGradient id="d"><stop offset="0" stop-color="#bebeb6"/><stop offset="1" stop-color="#fff"/></linearGradient><linearGradient id="c"><stop offset="0" stop-color="#3a5159"/><stop offset="1" stop-color="#5c676a"/></linearGradient><linearGradient id="b"><stop offset="0" stop-color="#21221f"/><stop offset="1" stop-color="#60635a"/></linearGradient><linearGradient id="a"><stop offset="0" stop-color="#94600d"/><stop offset=".333" stop-color="#a1680e"/><stop offset="1" stop-color="#d78b13"/></linearGradient><radialGradient id="e" cx="-6.394" cy="13.417" r="8.699" xlink:href="#a" fx="-6.394" fy="13.417" gradientTransform="matrix(3.537 -2.158 .735 1.203 41.789 -15.232)" gradientUnits="userSpaceOnUse"/><radialGradient id="f" cx="11.175" cy="29.444" r="15.284" xlink:href="#b" fx="11.175" fy="29.444" gradientTransform="matrix(1.189 1.189 -.548 .548 14.028 -1.532)" gradientUnits="userSpaceOnUse"/><linearGradient id="g" x1="7.245" x2="37.24" y1="30.538" y2="47.408" xlink:href="#c" gradientUnits="userSpaceOnUse" gradientTransform="translate(0 -1.717)"/><linearGradient id="h" x1="15.602" x2="21.959" y1="30.863" y2="27.403" xlink:href="#d" gradientUnits="userSpaceOnUse"/></defs><g><path fill="url(#e)" stroke="#8f5902" stroke-width=".5" d="M14.8 19.28l3-2.46c1.46-4.3 8.1-11.65 9.4-14.85 1.67-4.18 4.2-10.1 11.73-16.2L50.33-.5c-10.28 7.8-19 15.67-25.15 25.14L20.7 29l-8.6-7.38z" color="#000" overflow="visible" enable-background="accumulate"/><path fill="none" stroke="#e9b96e" stroke-width=".5" d="M15.64 18.7l2.44-1.45c1.4-4.1 8-11.44 9.22-14.5C28.9-1.3 31.6-7.63 38.82-13.5L49.47-.58c-9.87 7.46-18.5 15.34-24.4 24.43l-3.74 4.2c-5.26-.36-7.15-3.4-8.27-7.1z" color="#000" overflow="visible" enable-background="accumulate"/><path fill="url(#f)" stroke="#d3d7cf" stroke-width=".5" d="M15.23 16.48s1.48.63 1.13 1.64c-.74 2.15-1.44 5.54 1.22 7.2 2.5 1.54 6.17-.76 8.1-1.6.9-.38 1.3.47 1.3.47.38 5 3.45 8.67 3.3 13.15.4.27.74.93 1.22 1.2 2.56 1.54 4.16 3.63 5.42 5.75-2.8.78-6.42.5-8.23-.3-5.65-2.33-13.52-11.37-21.85-17.7-.15-5.45 6.64-7.98 8.38-9.82z"/><path fill="url(#g)" stroke="#888a85" stroke-width=".5" d="M4.62 28.44c.47-1.24 1.26-1.95 2.15-2.15 9.3 6.83 19.18 16.2 21.94 17.45 2.7 1.22 6.38.95 8.25.3.47.87.58 1.67 0 2.34l-7.98.2C21.8 44.46 14.34 35.4 4.62 28.45z" color="#000" overflow="visible" enable-background="accumulate"/><path fill="#eeeeec" stroke="#babdb6" stroke-width=".5" d="M25.22 27.48l3.08-1.26.32 1.18-3.16 1.15z" color="#000" overflow="visible" enable-background="accumulate"/><path fill="#eeeeec" stroke="#babdb6" stroke-width=".5" d="M26.16 29.6l2.78-1.14.4 1.27-2.87 1.03z" color="#000" overflow="visible" enable-background="accumulate"/><path fill="#eeeeec" stroke="#babdb6" stroke-width=".5" d="M27.04 32.06l2.76-1.03.3 1.17-2.85.94z" color="#000" overflow="visible" enable-background="accumulate"/><path fill="#eeeeec" stroke="#babdb6" stroke-width=".5" d="M28.02 34.77l2.34-.98.4 1.16-2.4.88z" color="#000" overflow="visible" enable-background="accumulate"/><path fill="#e9b96e" fill-opacity=".521" d="M18.08 20.22c1.2-1.33 3.47-1.52 5.3-.96 0 0-1.96-2.07-3.03-1.77-1.3.36-2.27 2.72-2.27 2.72z"/><path fill="url(#h)" d="M21.26 26.78l-6.47 3.54 1.6 1.38 2.36-1.28 1.4 1.2-2.34 1.28 1.6 1.4 6.48-3.55-1.62-1.38-2.12 1.16-1.4-1.2 2.12-1.17-1.62-1.38z" color="#000" overflow="visible" enable-background="accumulate"/><path fill="none" stroke="#ef2929" stroke-width="2" d="M-6.67 30.63c6.6-.54 26.32 4.22 35.36 15.6C34.7 38.05 43 32.38 52 27.5" stroke-dasharray="4, 2"/><path fill="#fff" stroke="#2e3436" stroke-width=".49646999999999997" d="M30.5 46.23a1.57 1.57 0 1 1-3.12 0 1.57 1.57 0 1 1 3.13 0z" color="#000" overflow="visible" enable-background="accumulate"/></g></svg>