<svg xmlns="http://www.w3.org/2000/svg" width="48" height="48" xmlns:xlink="http://www.w3.org/1999/xlink"><defs><linearGradient id="n"><stop offset="0" stop-color="#a5a5a5"/><stop offset="1" stop-color="#1e1e1e"/></linearGradient><linearGradient id="m"><stop offset="0"/><stop offset="1" stop-opacity="0"/></linearGradient><linearGradient id="l"><stop offset="0" stop-color="#a1a39f"/><stop offset="1" stop-color="#3e3f3d"/></linearGradient><linearGradient id="k"><stop offset="0" stop-color="#fff"/><stop offset="1" stop-color="#dadada"/></linearGradient><linearGradient id="f"><stop offset="0" stop-color="#ff8a2c"/><stop offset="1" stop-color="#984400"/></linearGradient><linearGradient id="g"><stop offset="0" stop-color="#939393"/><stop offset="1" stop-color="#fff"/></linearGradient><linearGradient id="h"><stop offset="0" stop-color="#fee3bb"/><stop offset="1" stop-color="#fcaf3e"/></linearGradient><linearGradient id="e"><stop offset="0" stop-color="#888a85" stop-opacity="0"/><stop offset="1" stop-opacity=".117"/></linearGradient><linearGradient id="d"><stop offset="0"/><stop offset="1" stop-opacity="0"/></linearGradient><linearGradient id="c"><stop offset="0" stop-color="#f4f4f4"/><stop offset=".736" stop-color="#e8e8e8"/><stop offset="1" stop-color="#d1d1d1"/></linearGradient><linearGradient id="b"><stop offset="0" stop-color="#d3d7cf"/><stop offset="1" stop-color="#d3d7cf" stop-opacity="0"/></linearGradient><linearGradient id="a"><stop offset="0" stop-color="#838383"/><stop offset="1"/></linearGradient><linearGradient id="i"><stop offset="0" stop-color="#1c1c1b"/><stop offset="1" stop-color="#888a85"/></linearGradient><linearGradient x1="14.951" x2="21.701" y1="18.491" y2="25.563" xlink:href="#a" gradientUnits="userSpaceOnUse"/><linearGradient x1="20.36" x2="15.256" y1="24.116" y2="19.116" xlink:href="#a" gradientUnits="userSpaceOnUse"/><radialGradient cx="16.549" cy="20.652" r="3.341" xlink:href="#b" gradientUnits="userSpaceOnUse" gradientTransform="matrix(1.492 -.022 .021 1.459 -8.58 -9.128)" fx="16.549" fy="20.652"/><radialGradient id="o" cx="23.994" cy="15.351" r="22.863" xlink:href="#c" fx="23.994" fy="15.351" gradientTransform="matrix(1.398 .009 -.005 .731 -9.412 6.195)" gradientUnits="userSpaceOnUse"/><radialGradient id="r" cx="18.587" cy="21.433" r="3.384" xlink:href="#d" gradientUnits="userSpaceOnUse" fx="18.587" fy="21.433"/><radialGradient id="q" cx="23.489" cy="17.3" r="22.621" xlink:href="#e" fx="23.489" fy="17.3" gradientTransform="matrix(1.82 -.007 .003 .838 -19.294 6.07)" gradientUnits="userSpaceOnUse"/><linearGradient id="w" x1="30.407" x2="34.45" y1="14.179" y2="14.179" xlink:href="#f" gradientUnits="userSpaceOnUse"/><linearGradient id="x" x1="30.94" x2="34.363" y1="12.467" y2="15.778" xlink:href="#g" gradientUnits="userSpaceOnUse"/><radialGradient id="y" cx="31.663" cy="13.362" r="1.786" xlink:href="#h" gradientUnits="userSpaceOnUse" fx="31.663" fy="13.362"/><linearGradient id="z" x1="30.407" x2="34.45" y1="14.179" y2="14.179" xlink:href="#f" gradientUnits="userSpaceOnUse"/><linearGradient id="A" x1="30.94" x2="34.363" y1="12.467" y2="15.778" xlink:href="#g" gradientUnits="userSpaceOnUse"/><radialGradient id="B" cx="31.663" cy="13.362" r="1.786" xlink:href="#h" gradientUnits="userSpaceOnUse" fx="31.663" fy="13.362"/><linearGradient id="C" x1="30.407" x2="34.45" y1="14.179" y2="14.179" xlink:href="#f" gradientUnits="userSpaceOnUse"/><linearGradient id="D" x1="30.94" x2="34.363" y1="12.467" y2="15.778" xlink:href="#g" gradientUnits="userSpaceOnUse"/><radialGradient id="E" cx="31.663" cy="13.362" r="1.786" xlink:href="#h" gradientUnits="userSpaceOnUse" fx="31.663" fy="13.362"/><linearGradient id="F" x1="30.407" x2="34.45" y1="14.179" y2="14.179" xlink:href="#f" gradientUnits="userSpaceOnUse"/><linearGradient id="G" x1="30.94" x2="34.363" y1="12.467" y2="15.778" xlink:href="#g" gradientUnits="userSpaceOnUse"/><radialGradient id="H" cx="31.663" cy="13.362" r="1.786" xlink:href="#h" gradientUnits="userSpaceOnUse" fx="31.663" fy="13.362"/><radialGradient id="v" cx="28.499" cy="19.141" r="3.67" xlink:href="#i" gradientUnits="userSpaceOnUse" gradientTransform="matrix(1.614 -.017 .021 1.988 -17.888 -18.434)" fx="28.499" fy="19.141"/><radialGradient cx="28.499" cy="19.141" r="3.67" xlink:href="#i" gradientUnits="userSpaceOnUse" gradientTransform="matrix(1.614 -.017 .021 1.988 -17.888 -18.434)" fx="28.499" fy="19.141"/><radialGradient cx="21.483" cy="22.169" r="21.156" xlink:href="#j" gradientUnits="userSpaceOnUse" gradientTransform="matrix(1.087 0 0 1.087 24.073 3.327)" fx="21.483" fy="22.169"/><linearGradient id="j"><stop offset="0" stop-color="#ffae00"/><stop offset="1" stop-color="#ff3600"/></linearGradient><linearGradient id="I" x1="24.916" x2="24.686" y1="7.224" y2="46.224" xlink:href="#k" gradientUnits="userSpaceOnUse" gradientTransform="matrix(1.038 0 0 1.038 -.85 -.169)"/><linearGradient id="p" x1="22.703" x2="21.25" y1="4.688" y2="42.509" xlink:href="#l" gradientUnits="userSpaceOnUse" gradientTransform="matrix(1.038 0 0 1.038 -.85 -.169)"/><radialGradient id="J" cx="18.587" cy="21.433" r="3.384" xlink:href="#d" gradientUnits="userSpaceOnUse" fx="18.587" fy="21.433"/><radialGradient id="K" cx="28.499" cy="19.141" r="3.67" xlink:href="#i" gradientUnits="userSpaceOnUse" gradientTransform="matrix(1.614 -.017 .021 1.988 -17.888 -18.434)" fx="28.499" fy="19.141"/><radialGradient cx="23.75" cy="25.786" r="22.393" xlink:href="#m" fx="23.75" fy="25.786" gradientTransform="matrix(1 0 0 .762 0 6.128)" gradientUnits="userSpaceOnUse"/><linearGradient id="t" x1="20.36" x2="15.256" y1="24.116" y2="19.116" xlink:href="#n" gradientUnits="userSpaceOnUse" gradientTransform="matrix(1.245 .141 -.141 1.245 -7.378 -15.215)"/><radialGradient id="u" cx="16.549" cy="20.652" r="3.341" xlink:href="#b" gradientUnits="userSpaceOnUse" gradientTransform="matrix(1.86 .183 -.179 1.82 -16.769 -27.786)" fx="16.549" fy="20.652"/><linearGradient id="s" x1="14.951" x2="21.701" y1="18.491" y2="25.563" xlink:href="#a" gradientUnits="userSpaceOnUse" gradientTransform="matrix(1.245 .141 -.141 1.245 -7.378 -15.215)"/></defs><g><path fill="#555753" stroke="#888a85" stroke-width=".5" d="M6.25 10.34C6.85 9.2 9.8 4.77 12.7 4.3c3.46-.53 5.76 1.5 11.27 1.5 5.52 0 7.8-2.03 11.26-1.5 2.93.47 5.92 5.04 6.52 6.2z"/><path fill="url(#o)" stroke="url(#p)" d="M13.97 29.22c-1.26.5-3.7 4.08-4.15 5.05-.44.96-2.93 4.3-4.74 4.26C3.26 38.5.3 35.6.52 30.4.74 25.23 5.72 12 6.3 10.85c.6-1.15 3.5-4.66 6.4-5.12 3.46-.54 5.76 1.5 11.27 1.5 5.52 0 7.8-2.04 11.26-1.5 2.93.46 5.82 3.97 6.4 5.12.6 1.15 5.57 14.38 5.8 19.57.22 5.2-2.75 8.1-4.56 8.13-1.82.04-4.34-3.04-4.78-4-.46-.97-2.94-4.82-4.2-5.3-1.26-.5-7.52.5-10 .5-2.48 0-8.67-1-9.93-.5z"/><path fill="url(#q)" d="M6.65 10.2c-.2.28-.4.52-.5.7C5.58 12.07.6 25.3.36 30.5c-.2 5.2 2.76 8.07 4.58 8.1 1.82.04 4.3-3.3 4.74-4.27.44-.97 2.9-4.55 4.15-5.03 1.26-.48 7.44.52 9.92.52 2.48 0 8.76-1 10.02-.52 1.26.48 3.74 4.32 4.18 5.3.45.95 2.95 4.04 4.77 4 1.82-.03 4.8-2.9 4.58-8.1-.22-5.2-5.18-18.44-5.77-19.6-.1-.18-.27-.42-.48-.7 1.52 4.07 4.1 11.72 4.25 15.27.2 4.75-2.5 7.4-4.15 7.43-1.66.03-3.97-2.78-4.38-3.67-.4-.88-2.67-4.4-3.82-4.83-1.16-.44-6.88.46-9.15.46-2.27 0-7.93-.9-9.08-.46-1.16.44-3.4 3.73-3.8 4.6-.4.9-2.7 3.93-4.35 3.9-1.66-.03-4.38-2.68-4.18-7.43.15-3.55 2.76-11.2 4.28-15.27z"/><path fill="url(#r)" d="M21.97 21.43a3.38 3.38 0 1 1-6.77 0 3.38 3.38 0 1 1 6.77 0z" transform="matrix(1.384 0 0 1.385 -7.84 -6.083)" color="#000" overflow="visible" enable-background="accumulate"/><path fill="url(#s)" d="M12.07 9.6c-.76-.1-1.47.44-1.56 1.2l-.17 1.6-1.6-.18c-.75-.1-1.42.48-1.5 1.24l-.08.63c-.1.75.44 1.42 1.2 1.5l1.6.18-.18 1.6c-.1.76.48 1.47 1.24 1.56l.63.07c.77.1 1.44-.48 1.52-1.24l.18-1.6 1.6.2c.76.07 1.47-.45 1.55-1.22l.07-.62c.1-.76-.47-1.47-1.24-1.56l-1.58-.18.18-1.6c.08-.76-.45-1.42-1.2-1.5l-.63-.08z" color="#000" overflow="visible" enable-background="accumulate"/><path fill="url(#t)" stroke="url(#u)" stroke-width=".25" d="M12.04 10.27c-.66-.07-1.1.4-1.16 1.05l-.18 1.64-1.55-.18c-.65-.07-1.2.15-1.27.8l-.06.54c-.08.65.4.93 1.07 1l1.53.18-.2 1.66c-.06.65.25 1.24.9 1.32l.53.06c.66.07 1.03-.44 1.1-1.1l.2-1.65 1.56.17c.66.07 1.23-.1 1.3-.75l.06-.53c.08-.66-.44-1-1.1-1.08l-1.56-.18.2-1.63c.06-.65-.2-1.2-.85-1.27z" color="#000" overflow="visible" enable-background="accumulate"/><g color="#000"><path fill="#fff" d="M21.27 22.5c0 2.03-1.63 3.67-3.65 3.67s-3.66-1.64-3.66-3.66c0-2 1.64-3.64 3.66-3.64 2.02 0 3.65 1.63 3.65 3.65z" overflow="visible" enable-background="accumulate"/><path d="M20.8 22.52c0 1.75-1.42 3.17-3.17 3.17s-3.17-1.43-3.17-3.18c0-1.75 1.42-3.17 3.17-3.17s3.17 1.42 3.17 3.17z" overflow="visible" enable-background="accumulate"/><path fill="#555753" d="M20.36 22.52c0 1.5-1.23 2.73-2.73 2.73s-2.74-1.22-2.74-2.73c0-1.5 1.22-2.73 2.73-2.73 1.5 0 2.73 1.2 2.73 2.72z" overflow="visible" enable-background="accumulate"/><path fill="url(#v)" stroke="#888a85" stroke-width=".774" d="M33.36 21.02c0 1.78-1.45 3.23-3.23 3.23-1.8 0-3.24-1.45-3.24-3.23 0-1.8 1.44-3.23 3.23-3.23 1.78 0 3.23 1.43 3.23 3.22z" transform="matrix(.646 0 0 .646 -1.835 8.939)" overflow="visible" enable-background="accumulate"/></g><g color="#000"><path fill="url(#w)" stroke="url(#x)" stroke-width=".455" d="M34.2 14.18c0 .98-.8 1.78-1.77 1.78-1 0-1.8-.8-1.8-1.78 0-1 .8-1.8 1.8-1.8.98 0 1.78.8 1.78 1.8z" transform="matrix(1.1 0 0 1.1 -3.13 -1.831)" overflow="visible" enable-background="accumulate"/><path fill="url(#y)" d="M34.2 14.18c0 .98-.8 1.78-1.77 1.78-1 0-1.8-.8-1.8-1.78 0-1 .8-1.8 1.8-1.8.98 0 1.78.8 1.78 1.8z" transform="matrix(.851 0 0 .851 4.949 1.146)" overflow="visible" enable-background="accumulate"/></g><g color="#000"><path fill="url(#z)" stroke="url(#A)" stroke-width=".455" d="M34.2 14.18c0 .98-.8 1.78-1.77 1.78-1 0-1.8-.8-1.8-1.78 0-1 .8-1.8 1.8-1.8.98 0 1.78.8 1.78 1.8z" transform="matrix(1.1 0 0 1.1 1.095 -4.611)" overflow="visible" enable-background="accumulate"/><path fill="url(#B)" d="M34.2 14.18c0 .98-.8 1.78-1.77 1.78-1 0-1.8-.8-1.8-1.78 0-1 .8-1.8 1.8-1.8.98 0 1.78.8 1.78 1.8z" transform="matrix(.851 0 0 .851 9.174 -1.634)" overflow="visible" enable-background="accumulate"/></g><g color="#000"><path fill="url(#C)" stroke="url(#D)" stroke-width=".455" d="M34.2 14.18c0 .98-.8 1.78-1.77 1.78-1 0-1.8-.8-1.8-1.78 0-1 .8-1.8 1.8-1.8.98 0 1.78.8 1.78 1.8z" transform="matrix(1.1 0 0 1.1 4.319 -.089)" overflow="visible" enable-background="accumulate"/><path fill="url(#E)" d="M34.2 14.18c0 .98-.8 1.78-1.77 1.78-1 0-1.8-.8-1.8-1.78 0-1 .8-1.8 1.8-1.8.98 0 1.78.8 1.78 1.8z" transform="matrix(.851 0 0 .851 12.398 2.888)" overflow="visible" enable-background="accumulate"/></g><g color="#000"><path fill="url(#F)" stroke="url(#G)" stroke-width=".455" d="M34.2 14.18c0 .98-.8 1.78-1.77 1.78-1 0-1.8-.8-1.8-1.78 0-1 .8-1.8 1.8-1.8.98 0 1.78.8 1.78 1.8z" transform="matrix(1.1 0 0 1.1 -.155 2.654)" overflow="visible" enable-background="accumulate"/><path fill="url(#H)" d="M34.2 14.18c0 .98-.8 1.78-1.77 1.78-1 0-1.8-.8-1.8-1.78 0-1 .8-1.8 1.8-1.8.98 0 1.78.8 1.78 1.8z" transform="matrix(.851 0 0 .851 7.924 5.631)" overflow="visible" enable-background="accumulate"/></g><path fill="#babdb6" d="M25.25 12.6c-.15-.7-.87-1.5-1.68-1.7-.83-.17-1.38-.18-2.04.25-.2.13-.5.34-.8.66v1.08c.4-.9 1.38-1.65 2.46-1.38 1.83.46 1.54 1.72 1.32 2.23-.4.93-1.86 1.32-2.3.44-.5-.95.6-1.1.6-1.1s-.3.26.06.6c.25.26.72.03.88-.4.14-.37-.16-.9-.84-.95-.56-.05-1.4.36-1.5 1.2-.07.8.3 1.12.82 1.47.53.34 1.65.47 2.3-.14.7-.67.9-1.35.7-2.27zm-4.53-3.75v2.1c.32-.3.6-.43.6-.43 1.17-.67 2.2-.34 2.8-.15.97.3 1.73 1.03 2.05 1.8.38.87.05 2.55-1.23 3.4-.05.04-.1.07-.16.1h2.76V8.85h-6.82zm0 5.7v1.12h1.2c-.1-.05-.17-.1-.24-.14-.36-.24-.73-.57-.96-.98z"/><path fill="none" stroke="url(#I)" stroke-width=".5" d="M13.78 28.74c-1.23.47-3.6 3.95-4.04 4.88-.44.93-2.82 4.46-4.6 4.42C3.4 38 .87 35.2 1.1 30.18c.2-5.02 5.1-17.98 5.67-19.1.58-1.1 3.25-4.43 6.1-4.87C16.2 5.7 18.6 7.7 23.97 7.7c5.38 0 7.8-1.96 11.16-1.44 2.85.45 5.53 3.7 6.1 4.8.58 1.12 5.4 14.05 5.64 19.07.25 5.15-2.08 7.9-3.85 7.94-1.77.04-4.37-3.2-4.8-4.13-.44-.93-2.86-4.66-4.1-5.12-1.22-.47-8.03.46-10.44.46-2.42 0-8.67-.97-9.9-.5z"/><path fill="url(#J)" d="M21.97 21.43a3.38 3.38 0 1 1-6.77 0 3.38 3.38 0 1 1 6.77 0z" transform="matrix(1.384 0 0 1.385 4.279 -6.083)" color="#000" overflow="visible" enable-background="accumulate"/><g color="#000"><path fill="#fff" d="M33.4 22.5c0 2.03-1.65 3.67-3.66 3.67-2.02 0-3.66-1.64-3.66-3.66 0-2 1.64-3.64 3.66-3.64 2 0 3.65 1.63 3.65 3.65z" overflow="visible" enable-background="accumulate"/><path d="M32.92 22.52c0 1.75-1.42 3.17-3.17 3.17-1.76 0-3.18-1.43-3.18-3.18 0-1.75 1.42-3.17 3.18-3.17 1.75 0 3.17 1.42 3.17 3.17z" overflow="visible" enable-background="accumulate"/><path fill="#555753" d="M32.47 22.52c0 1.5-1.22 2.73-2.73 2.73-1.5 0-2.73-1.22-2.73-2.73 0-1.5 1.24-2.73 2.74-2.73 1.5 0 2.73 1.2 2.73 2.72z" overflow="visible" enable-background="accumulate"/><path fill="url(#K)" stroke="#888a85" stroke-width=".774" d="M33.36 21.02c0 1.78-1.45 3.23-3.23 3.23-1.8 0-3.24-1.45-3.24-3.23 0-1.8 1.44-3.23 3.23-3.23 1.78 0 3.23 1.43 3.23 3.22z" transform="matrix(.646 0 0 .646 10.283 8.939)" overflow="visible" enable-background="accumulate"/></g></g></svg>