<svg xmlns="http://www.w3.org/2000/svg" width="48" height="48" xmlns:xlink="http://www.w3.org/1999/xlink" version="1"><defs><linearGradient id="f"><stop offset="0" stop-color="#f0f0f0"/><stop offset="1" stop-color="#f0f0f0" stop-opacity="0"/></linearGradient><linearGradient id="e"><stop offset="0" stop-color="#fff"/><stop offset="1" stop-color="#eeeeec" stop-opacity="0"/></linearGradient><linearGradient id="a"><stop offset="0" stop-opacity=".633"/><stop offset="1" stop-opacity="0"/></linearGradient><radialGradient id="d" cx="294.624" cy="80.627" r="48.777" fx="294.624" fy="80.627" gradientUnits="userSpaceOnUse"><stop offset="0" stop-color="#BAD1D7"/><stop offset=".826" stop-color="#6D7580"/><stop offset="1" stop-color="#41454C"/></radialGradient><radialGradient id="c" cx="257.459" cy="35.376" r="68.717" fx="257.459" fy="35.376" gradientUnits="userSpaceOnUse"><stop offset="0" stop-color="#fff"/><stop offset="1" stop-color="#8794A0"/></radialGradient><radialGradient id="b" cx="264.957" cy="80.291" r="53.348" fx="264.957" fy="80.291" gradientUnits="userSpaceOnUse"><stop offset="0" stop-color="#BAD1D7"/><stop offset="1" stop-color="#8794A0"/></radialGradient><linearGradient id="g" x1="26.22" x2="43.015" y1="36.124" y2="42.537" xlink:href="#a" gradientUnits="userSpaceOnUse" gradientTransform="translate(2.138 .238)"/><radialGradient id="h" cx="264.957" cy="80.291" r="53.348" xlink:href="#b" gradientUnits="userSpaceOnUse" fx="264.957" fy="80.291"/><radialGradient id="i" cx="257.459" cy="35.376" r="68.717" xlink:href="#c" gradientUnits="userSpaceOnUse" fx="257.459" fy="35.376"/><radialGradient id="j" cx="294.624" cy="80.627" r="48.777" xlink:href="#d" gradientUnits="userSpaceOnUse" fx="294.624" fy="80.627"/><linearGradient id="l" x1="14.107" x2="39.69" y1="4.772" y2="43.606" xlink:href="#e" gradientUnits="userSpaceOnUse"/><linearGradient id="k" x1="16.601" x2="17.363" y1="19.142" y2="45.175" xlink:href="#f" gradientUnits="userSpaceOnUse"/></defs><g><path fill="url(#g)" fill-rule="evenodd" d="M17.58 46.1l24.1-17.22 10.1 2.6-11.4 16.28-22.8-1.66z"/><path fill="url(#h)" d="M273.55 75.76l-12-14.42-1.98-23.04 13.08 11.6.9 25.86z" transform="matrix(1.046 0 0 1.046 -268.591 -33.763)"/><path fill="url(#i)" d="M299.2 42.47l-26.55 7.44-13.07-11.6 23.56-5.1 16.06 9.27z" transform="matrix(1.046 0 0 1.046 -268.591 -33.763)"/><path fill="url(#j)" d="M296.92 66.62l-23.37 9.14-.9-25.85 26.55-7.43-2.28 24.15z" transform="matrix(1.046 0 0 1.046 -268.591 -33.763)"/><path fill="none" stroke="#f0f0f0" d="M16.98 18.8l26.5-7.5" stroke-linecap="round"/><path fill="none" stroke="url(#k)" d="M3.68 7.15L17.1 18.67l.48 26" stroke-linecap="round"/><path fill="none" stroke="url(#l)" stroke-width="1.5" d="M3.92 7.4l23.66-4.96 16 9.34-2.36 23.97L18 44.65 6.06 30.1 3.92 7.4z"/><path fill="none" stroke="#3f3131" d="M2.73 6.55l24.94-5.22 16.86 9.86-2.5 25.28-24.45 9.38-12.6-15.32-2.25-24z"/></g></svg>