<svg xmlns="http://www.w3.org/2000/svg" width="48" height="48"><defs><linearGradient><stop offset="0" stop-color="#fff"/><stop offset=".554" stop-color="#fff"/><stop offset="1" stop-color="#d0d0cb"/></linearGradient></defs><g><path fill="#e2e4de" fill-rule="evenodd" stroke="#2e3436" stroke-opacity=".502" d="M.5.5h47v47H.5z" color="#000" stroke-linecap="square" overflow="visible"/><path fill="#ef2929" fill-rule="evenodd" d="M37 24a13 13 0 1 1-26 0 13 13 0 1 1 26 0z" color="#000" overflow="visible"/><path fill="#eeeeec" fill-rule="evenodd" d="M35.27 20.95l-6.9 5.12 2.5 8.22-7-5-7.03 4.93 2.57-8.2-6.85-5.18 8.6-.08 2.8-8.13 2.73 8.15 8.6.15z" color="#000" overflow="visible"/><path fill="#204a87" fill-rule="evenodd" d="M14 1a13 13 0 1 1-26 0 13 13 0 1 1 26 0z" color="#000" overflow="visible"/><path fill="#eeeeec" fill-rule="evenodd" d="M12.25-1.86L5.47 3.17l2.46 8.07-6.88-4.9-6.9 4.85 2.5-8.07-6.72-5.08 8.44-.1L1.12-10l2.7 8 8.43.16z" color="#000" overflow="visible"/><path fill="#204a87" fill-rule="evenodd" d="M60 1a13 13 0 1 1-26 0 13 13 0 1 1 26 0z" color="#000" overflow="visible"/><path fill="#eeeeec" fill-rule="evenodd" d="M57-1.36l-6.35 4.72 2.3 7.57-6.44-4.6-6.48 4.54 2.37-7.54-6.32-4.77 7.9-.08L46.6-9l2.5 7.5 7.92.14z" color="#000" overflow="visible"/><path fill="#204a87" fill-rule="evenodd" d="M59 46a13 13 0 1 1-26 0 13 13 0 1 1 26 0z" color="#000" overflow="visible"/><path fill="#eeeeec" fill-rule="evenodd" d="M56.32 42.48l-6.47 4.8L52.2 55l-6.57-4.67-6.6 4.62 2.4-7.7L35 42.4l8.06-.1 2.63-7.6 2.56 7.63 8.06.15z" color="#000" overflow="visible"/><path fill="#204a87" fill-rule="evenodd" d="M15 46a13 13 0 1 1-26 0 13 13 0 1 1 26 0z" color="#000" overflow="visible"/><path fill="#eeeeec" fill-rule="evenodd" d="M12.72 42.83l-6.3 4.67 2.3 7.5-6.4-4.54-6.4 4.5 2.33-7.5-6.25-4.7 7.84-.1 2.55-7.4 2.5 7.43 7.82.13z" color="#000" overflow="visible"/><path fill="none" stroke="#2e3436" d="M24 .5v47" stroke-linecap="square"/><path fill="none" stroke="#2e3436" d="M.5 24h47" stroke-linecap="square"/><path fill="none" stroke="#2e3436" d="M.5.5h47v47H.5z" color="#000" stroke-linecap="square" overflow="visible"/><path fill="none" stroke="#fff" stroke-opacity=".753" d="M1.5 1.5h21.45v21.45H1.5z" color="#000" stroke-linecap="square" overflow="visible"/><path fill="none" stroke="#fff" stroke-opacity=".753" d="M25.05 1.5H46.5v21.45H25.05z" color="#000" stroke-linecap="square" overflow="visible"/><path fill="none" stroke="#fff" stroke-opacity=".753" d="M1.5 25.05h21.45V46.5H1.5z" color="#000" stroke-linecap="square" overflow="visible"/><path fill="none" stroke="#fff" stroke-opacity=".753" d="M25 25.05h21.44V46.5H25z" color="#000" stroke-linecap="square" overflow="visible"/></g></svg>