<svg xmlns="http://www.w3.org/2000/svg" width="48" height="48"><defs><radialGradient id="a" cx="14.759" cy="173.233" r="20.816" gradientUnits="userSpaceOnUse" gradientTransform="matrix(2.319 -.546 .023 .327 -29.195 -3.588)" fy="173.233" fx="14.759"><stop offset="0" stop-color="#676f76"/><stop offset="1" stop-color="#fff" stop-opacity="0"/></radialGradient><linearGradient id="b" x1="-16.576" x2="-43.303" y1="-112.343" y2="-67.684" gradientTransform="matrix(.966 .259 -.259 .966 29.153 118.347)" gradientUnits="userSpaceOnUse"><stop offset=".006" stop-color="#FCFDFD"/><stop offset=".59" stop-color="#fff"/><stop offset=".865" stop-color="#DCE5E8"/><stop offset=".91" stop-color="#fff"/><stop offset="1" stop-color="#fff"/></linearGradient><linearGradient id="c" x1="-19.776" x2="-33.969" y1="-112.929" y2="-81.227" gradientTransform="matrix(.966 .259 -.259 .966 29.153 118.347)" gradientUnits="userSpaceOnUse"><stop offset="0" stop-color="#A7C1D5"/><stop offset=".343" stop-color="#CFD9DE"/><stop offset=".871" stop-color="#8196A6"/><stop offset="1" stop-color="#8DA2B2"/></linearGradient><linearGradient id="d" x1="-38.447" x2="-36.153" y1="-85.105" y2="-60.733" gradientTransform="matrix(.966 .259 -.259 .966 29.153 118.347)" gradientUnits="userSpaceOnUse"><stop offset=".006" stop-color="#647380"/><stop offset=".528" stop-color="#798B99"/><stop offset="1" stop-color="#C2D0D6"/></linearGradient><linearGradient id="e" x1="-15.086" x2="-12.835" y1="-115.149" y2="-108.492" gradientTransform="matrix(.966 .259 -.259 .966 29.153 118.347)" gradientUnits="userSpaceOnUse"><stop offset="0" stop-color="#8CA0B2"/><stop offset="1" stop-color="#505D66"/></linearGradient><linearGradient id="f" x1="-14.521" x2="-34.002" y1="-110.934" y2="-75.682" gradientTransform="matrix(.966 .259 -.259 .966 29.153 118.347)" gradientUnits="userSpaceOnUse"><stop offset="0" stop-color="#8294A6"/><stop offset="1" stop-color="#505D66"/></linearGradient><linearGradient id="g" x1="-21.218" x2="-20.694" y1="-106.789" y2="-111.928" gradientTransform="matrix(.966 .259 -.259 .966 29.153 118.347)" gradientUnits="userSpaceOnUse"><stop offset="0" stop-color="#A7C1D5"/><stop offset="1" stop-color="#788999"/></linearGradient><linearGradient id="h" x1="-21.644" x2="-21.249" y1="-109.37" y2="-110.907" gradientTransform="matrix(.966 .259 -.259 .966 29.153 118.347)" gradientUnits="userSpaceOnUse"><stop offset="0" stop-color="#8196A6"/><stop offset="1" stop-color="#505D66"/></linearGradient><linearGradient id="i" x1="-23.409" x2="-30.892" y1="-106.002" y2="-87.952" gradientTransform="matrix(.966 .259 -.259 .966 29.153 118.347)" gradientUnits="userSpaceOnUse"><stop offset="0" stop-color="#9EB6CB"/><stop offset=".871" stop-color="#8AA0B2"/><stop offset="1" stop-color="#657580"/></linearGradient><linearGradient id="j" x1="5.475" x2="5.15" y1="118.341" y2="123.084" gradientUnits="userSpaceOnUse" gradientTransform="translate(-.73 -83.999)"><stop offset="0" stop-color="#A7C1D5"/><stop offset=".343" stop-color="#CFD9DE"/><stop offset="1" stop-color="#96AEBF"/></linearGradient></defs><g><path fill="url(#a)" d="M49.16 35.64c0 1.6-9.9 5.34-22.08 8.33-12.2 3-22.08 4.1-22.08 2.5 0-1.6 9.88-5.34 22.08-8.33 12.2-3 22.08-4.1 22.08-2.5z"/><path fill="url(#b)" stroke="#282f33" stroke-width=".5" d="M10.5 30.56c.95-.82 2.7-2.9 3.92-3.92 1.2-1.02 9.34-8.77 11.27-10.62 1.9-1.85 6.46-5.72 7.77-7.64 1.32-1.92 1.17-3.65 1.5-4.23.34-.57 1.33-1.47 2.02-2.04.68-.56 1.24-1.17 1.45-1.3.2-.1.65-.1.7.24.05.32.7.76 1 .72.33-.05.74-.88 1.55-.75 1.52.15 4.6 2.13 5.3 5.98.72 3.84-4.2 7.17-4.57 7.28-.4.12-1.2-.9-2.03-.6-.84.32-2 .64-5.02 3.26-3.02 2.63-6.95 5.98-8.98 7.76-2.04 1.77-8.35 8.2-10.34 10.1-1.7 1.8-3.54 3.66-3 7.65.1.4.86 1.94.25 3.28-.6 1.34-2.18 1.84-4.02.42-1.84-1.42-3.34-.84-3.88-1.7-.54-.88-.15-2.53-.93-3.1-.77-.56-4.3-2.8-4.22-4.84.08-2.04 1.3-4.3 1.8-4.26.52.03 1.5.65 2.04.54.76-.16 2.2-.16 3.4-.6 1.3-.46 2.24-.94 3-1.6z"/><path fill="url(#c)" d="M40.14 13.42c-2.1 0-19.22 15.94-22.54 19.42-.67.7-2.83 2.9-3.44 3.65-.58.7-.96 2.06-1.2 2.95-.32 1.18-.36 1.97-.06 3.14.25.97.72 2.53-.02 3.35-1.72 1.92-2.82-.1-3.87-.4-.7-.2-1.36-.53-2.17-.8-.5-.15-.9-.63-1.14-1.16-.24-.53-.43-1.15-.66-1.7-.25-.57-.66-.82-1.17-1.14-.93-.58-2-1.57-2.74-2.53-.9-1.17-.07-1.9.87-2.2 1.8-.6 2.64 0 3.64.43 1.16.5 2.4-.16 3.65-.38.8-.15 2.02-1.12 2.74-1.6 1.32-.86 2.17-.87 3.16-1.94 1.62-1.75 3.15-3.4 4.63-5.28 1.35-1.73 2.55-3.6 3.72-5.48.54-.87 1-1.72 1.63-2.52.54-.68 1.2-1.23 1.75-1.9 1.16-1.34 2.27-2.8 3.5-4.1.98-1 2.1-1.6 3.07-2.57.5-.5 1.07-.85 1.58-1.34.63-.6 1.1-1.4 1.75-1.94.3-.2.8.52.37 1.1-.42.56-3.5 3.35-5 5.32-1.48 1.98-2.26 3.55-2.38 4.16-.12.6 3.37-2.16 5.43-4.26 2.07-2.1 3.7-4.03 4.2-4.58.5-.55.6-1.17 1.2-1.4.6-.26 1.94-.27 2.34-.9.38-.62 1.23-1.9 1.4-1.9.2 0 2.66 3.64 1.33 5.65-1.34 2.03-2.7 3.58-3.36 3.5-.66-.1-1.88-.8-2.23-.68"/><path fill="url(#d)" d="M26.4 24.68c-2.04 1.77-8.35 8.2-10.34 10.1-1.7 1.8-3.54 3.66-3 7.66.1.4.86 1.93.25 3.27-.6 1.34-2.18 1.84-4.02.42-1.84-1.42-3.34-.84-3.88-1.7-.54-.88-.15-2.53-.93-3.1-.77-.56-4.3-2.8-4.22-4.84.08-2.04 1.3-4.3 1.8-4.26.52.03 1.5.65 2.04.54.76-.16 2.2-.16 3.4-.58"/><path fill="#aec8d5" d="M3.38 32.84c-.28-.12.4.95 1 1 .6.06 1.56-.2 2.1-.57.54-.37 1.48-.74 1.85-.9.37-.15 1.2-.77 1.5-1.02-.94.44-3.15 1.3-3.72 1.38-.56.07-2.5.2-2.72.1z"/><path fill="#525e66" d="M1.2 33.32c-.12.3-.03.65.6.8.1.08.03.24-.36.47-.4.2-.9.66-1.04 1.13.14-1.05.8-2.4.8-2.4z"/><path fill="#cfdadf" d="M7.84 39.12c.24.06.78 1 1.07 1.16.3.15 1.06.32 1.2.5.13.2.73 2.48-1.2 3.78-.93.62-1.8.14-2.32-.48-.53-.6-.55-2.6-.02-3.48.53-.88 1.1-1.53 1.28-1.48z"/><path fill="url(#e)" d="M43.28 1.9c-.3-.14.38.46.6.7.2.2.2.35.3.63.18.47.78.68.6 1.27-.13.46-.68.84-1 1.22-.34.44-.46 1.07-.5 1.6-.2.34-.27 1.32-.23 1.67-.18.62-.06 1.38-.1 2.02 0 .38 0 .8-.03 1.18-.02.27-.16.57-.1.84.07.37.56.5 1.58-.4.78-.82 3-3.16 2.36-5.78-.14-1.3-1.26-3.96-3.48-4.96z"/><path fill="#525e66" d="M46.75 6.86c-.17-.57-.12.62-.3.12-.2-.5-.43-1.94-.75-2.27-.32-.33.23 1.13-.04 1.83-.27.7-.67.84-.93.44-.26-.4-.56-1.1-.77-.94-.3.25-.52 1.65-.66 2.92-.13 1.27-.13 3.68-.2 3.98-.1.3.66.1 1.32-.54.7-.76 2.8-2.85 2.33-5.54z"/><path fill="url(#f)" d="M35.53 16.13c-1.93 1.78-6.46 5.56-8.24 7.26-1.8 1.7-4.74 4.3-7.26 6.7-2.53 2.42-5.94 6.1-6.87 7.55-.93 1.45-1.27 3.18-1.82 2.48-.54-.7-.23-2.06.6-3.4.86-1.35 2.42-2.55 3.4-3.68.96-1.13 4.2-4.96 6.25-7.68-1.1 1.83-1.45 3.27 2.13.88 2.14-1.42 1.87-2.9 3.34-4.07 1.46-1.18 7.47-6.66 9.05-8.24 0 0 .32-.3.83-.8.87-1 2.37-3.17 2.55-3.82.17-.65.37-.63.65-.6.27.03.33-.48.67-.68.33-.2.66.1.9-.13.2-.2.92-.6 1.1-.46.17.25-.23 1.73-.4 2.7-.18.97-.4 3.24-.2 3.5.17.24.26.35.26.35-.2.14-.73-.45-1.52-.54-.8-.1-4 1.5-5.43 2.67z"/><path fill="#525e66" d="M42.2 8.17c.17.23.26 1.33-.12 3.06s-.07 2.1-.16 2.28c-.1.2-.62-.28-1.2-.26-.56 0-3.35 1.58-3.68 1.78-.34.2.1-1 .85-2.14.75-1.14 2.26-2.7 2.1-3.14-.17-.45-.16-.94.1-.87.27.07.47 1.02.65.95.18-.08 1.1-2.15 1.46-1.65z"/><path fill="url(#g)" d="M38.82 2.06c.22.03.43 0 .65.03 0 .2-.05.63-.23.74-.2.13-.5-.1-.65.1-.1.1-.02.26-.03.37-.02.18.03.16-.04.3-.1.2-.35.2-.1.52.67.22 1.33.35 1.94.68-.1.46-.2.56-.54.85-.3.25-.67.6-.86.94-.22.42-.17.9-.48 1.3-.16.2-.73.87-.98.65.07-.34.3-.8.15-1.12-.14-.27-.77-.43-1.03-.28-.2.12-.17.53-.26.73-.1.22-.3.42-.43.6-.28.4-.58.8-.9 1.15-.18-.04-.32-.5-1.02.2-.22.25 1-1.67 1.54-2.4.55-.75 1.32-2.32 1.74-2.75.44-.43.36-.57.47-1 .12-.43.06-.64.37-1.1.32-.46.68-.52.68-.52z"/><path fill="url(#h)" d="M38.4 4.35c.07.18-.55.35-.56.5 0 .16.28.43.14.78-.13.35-.66.6-.73.85-.06.25-.4.36-.75.38-.36.02-.6.3-.6.3.52-.9 1.55-2.6 2.04-2.82.5-.22.46 0 .46 0z"/><path fill="url(#i)" d="M34.77 9.84c-.34.36-.88.53-1.26.86-.4.36-.75.8-1.16 1.2-.88.83-1.78 1.67-2.55 2.6-.85 1.04-1.75 1.96-2.63 3-.86 1.05-2.04 2.28-2.4 3.62-.06.2-.1.42-.16.62 1.1-.16 1.66-1.83 2.44-2.53 1.2-1.07 2.5-1.76 3.26-3.3.58-1.2 1.12-2.5 1.94-3.5.7-.86 2.02-1.2 2.16-2.46"/><path fill="none" stroke="#505e66" stroke-width=".5" d="M10.5 30.56c.95-.82 2.7-2.9 3.92-3.92 1.2-1.02 9.34-8.77 11.27-10.62 1.9-1.85 6.46-5.72 7.77-7.64 1.32-1.92 1.17-3.65 1.5-4.23.34-.57 1.33-1.47 2.02-2.04.68-.56 1.24-1.17 1.45-1.3.2-.1.65-.1.7.24.05.32.7.76 1 .72.33-.05.74-.88 1.55-.75 1.52.15 4.6 2.13 5.3 5.98.72 3.84-4.2 7.17-4.57 7.28-.4.12-1.2-.9-2.03-.6-.84.32-2 .64-5.02 3.26-3.02 2.63-6.95 5.98-8.98 7.76-2.04 1.77-8.35 8.2-10.34 10.1-1.7 1.8-3.54 3.66-3 7.65.1.4.86 1.94.25 3.28-.6 1.34-2.18 1.84-4.02.42-1.84-1.42-3.34-.84-3.88-1.7-.54-.88-.15-2.53-.93-3.1-.77-.56-4.3-2.8-4.22-4.84.08-2.04 1.3-4.3 1.8-4.26.52.03 1.5.65 2.04.54.76-.16 2.2-.16 3.4-.6 1.3-.46 2.24-.94 3-1.6z"/><path fill="url(#j)" d="M.97 35.4c-.03.12 0 .28 0 .4.68.1 1.3-.26 1.94-.32.72-.06 1.46 0 2.17 0 .8 0 1.44.07 2.17.27.54.15 1.68-.03 1.45.82-.9.38-2 .34-2.93.62-.5.13-1.13.25-1.57.47-.48.24-.77.68-1.27.93-.97.47-1.5-.37-1.98-1.16-.3-.48-.4-.67-.44-1.25 0-.28.15-1.5.47-.8"/><path fill="#667680" d="M9.45 36.1c.27 0 0 .33-.07.4-.15.15-.33.23-.44.43-.27.5.25.85.63 1.1.47.3.84.86.57 1.42-.3.63-1 .5-1.47.1-.27-.23-.47-.56-.75-.78-.24-.2-.38-.38-.46-.67-.16-.57-.6-.98-1-1.4.2.05.4-.02.57-.08.27-.08.5-.05.77-.05.58 0 1.17-.18 1.63-.48"/></g></svg>