<svg xmlns="http://www.w3.org/2000/svg" width="48" height="48" xmlns:xlink="http://www.w3.org/1999/xlink" version="1" viewBox="0 0 612 792" enable-background="new 0 0 612 792"><defs><linearGradient id="c"><stop offset="0" stop-color="#d35cc2"/><stop offset="1" stop-color="#a22c91"/></linearGradient><linearGradient id="b"><stop offset="0" stop-color="#c539c8"/><stop offset="1" stop-color="#8d288f"/></linearGradient><linearGradient id="a"><stop offset="0" stop-color="#c844cb"/><stop offset="1" stop-color="#8d288f"/></linearGradient><radialGradient id="d" cx="302.278" cy="519.211" r="329.997" xlink:href="#a" fx="302.278" fy="519.211" gradientTransform="matrix(1 0 0 .668 0 172.395)" gradientUnits="userSpaceOnUse"/><linearGradient id="e" x1="55.381" x2="481.091" y1="303.316" y2="303.316" xlink:href="#b" gradientUnits="userSpaceOnUse"/><radialGradient id="f" cx="308.028" cy="131.634" r="172.684" xlink:href="#c" fx="308.028" fy="131.634" gradientTransform="matrix(1 0 0 .625 0 49.405)" gradientUnits="userSpaceOnUse"/></defs><path fill="none" stroke="#630851" stroke-width="16.979" stroke-miterlimit="10" d="M307 778.6c-217.43 0-387.7-67.14-387.7-152.88 0-29.65 17.1-53.5 55.07-77.5 9.46-26.45 24.47-55.67 34.57-72.9 13.3-24.05 37.73-53.83 44.2-63.6-20.28-76.8 4.16-193.78 16.64-218.53 15.23-30.23 35.82-31.7 55.9-32.58.06-.52.13-1.05.23-1.58 4.98-34.84 69.35-114.08 87.5-125.8 5-3.24 8.37-6 11.16-8.3 6.4-5.26 11.95-9.83 24.67-10.7 2.17-.18 4.07-.25 5.87-.25 8.97 0 14.16 1.8 18 4.03.15-.12.32-.24.44-.36 3.8-3 8.2-5.95 16.9-5.95 1.97 0 4.24.15 6.87.5 10.17 1.3 16.55 5.6 21.22 8.73 1.48.97 3.5 2.33 4.16 2.45.1 0 .15 0 .22 0 3.75 0 6.4-.44 8.9-.82 3.28-.5 6.38-.93 9.37-.93 2.34 0 4.52.24 6.6.76 10.13 2.5 15.25 7.3 18.65 10.47.7.66 1.68 1.56 2.05 1.77l6.56.42c10.9.78 17.9 1.44 22.73 3.47 11.17 4.66 15.54 9.7 18.17 14.3 27.7 4.07 37.7 14.36 44.6 29.48.8 1.7 2.1 2.58 5.9 4.87 3.77 2.23 8.4 5 13.12 10.2 11.92 12.9 14.67 77.74 9.27 106.82 6.4 31.42 4.8 56.94-2.04 94.72 5.78 6.7 18.3 23.5 34.12 31.48 11.83 5.43 30.98 8.84 37.15 12.56 22.4 13.47 64.67 132.4 79.66 204.62 38.6 24.13 56.96 48.24 56.96 78.14.03 85.74-170.25 152.9-387.67 152.9z"/><path fill="none" stroke="#f0e5f1" stroke-width="8.49" stroke-miterlimit="10" d="M632.25 553.76c-15.47-77.94-56.16-190.9-73.44-201.2-7.5-4.55-22.47-11.24-35.4-13.77-16.14-5.45-38.03-31.1-45.58-35.26 7.54-25.62 10.8-68.75 2.55-102.34 6.5-28.76 1.7-91.5-5.93-99.75-8.47-9.2-17.18-9.1-21.44-18.3-5.12-11.12-11.8-20.2-39.55-23.8-7.13-.98-.68-7.38-18.6-14.8-4.97-2.07-17.67-2.48-27.2-3.3-7.43-.67-8.18-9.07-22.17-12.52-6.98-1.68-14.55 1.6-23.5 1.25-7.5-.16-12.44-9.5-26.8-11.35-16.2-2.14-14.73 4.4-22.5 6.62-5.27 1.54-3.23-6.06-24.5-4.55-14.78 1.07-15.34 7.06-31.77 17.67-18.3 11.77-97.6 109.8-82.14 129.06-1.68.4-3.26 1-5.23 1.07-23.1 1.26-39.63-.53-53.67 27.2-14.2 28-39.15 154-14.38 219.5-21.16 20.96-31.94 44.9-41.02 56.97C8 489.5-8.52 521.65-19.96 554.73c-35.86 21.7-55.73 47.1-55.73 74.47 0 78.92 170.64 143 382.62 143 211.97 0 380.42-65.7 380.42-144.62.05-27.82-18.25-51.9-55.1-73.82z"/><path fill="#00a7d5" d="M683.84 626.04c0 77.97-168.92 141.2-377.26 141.2-208.35 0-377.24-63.25-377.24-141.2 0-78.05 168.9-141.28 377.24-141.28S683.84 548 683.84 626.04z"/><path fill="#b8e4f0" d="M34.22 550.87C-88.4 578.53-86.84 672.9 108.72 731.43c88.77 26.6 249.9 24.45 304.2 17.95-240.56-8.14-336.8-45.6-370.96-65.08-34.13-19.55-85.37-74.85-7.74-133.43z"/><path fill="url(#d)" d="M627.1 622.12c25.16-25.1-48.3-254.86-72.94-269.68-22-13.2-38.24-7.46-52.3-23.45-16.88-19.23-37.73-42.2-89.48-22.97-46.03 17.08-18.86 20.94-59.15 30.72-10.33 2.48-26.1 21.05-44.3 25.38-14.55 3.5-19.04.94-47.48 2.96-14.17 1-26.14 12.52-42.9 17.6-14.2 4.34-29.6-11.38-57.68-6.05-31.57 6.06-24.5 18.4-37.44 27.86-8.9 6.5-10.2-10.24-48.85 6.5-26.9 11.6-23.9 24.13-47.6 56.1-27 36.6-84.68 167.16-35.5 187.16 44.4 18.08-4.4 7.23 45.92 23.92 19.74 6.6 58.66 5.6 79.85 11.18 27.7 7.25 26.45 33.36 63.57 39.4 59.7 9.75 77.48 2.36 123.83-4.6 30.1-4.53 45.38 17.97 93.67 15.25 58.7-3.23 62.83-28.55 88.8-39.4 18.3-7.62 39.9 6.52 72.96-6.96 33.98-13.8 26.42-33.42 33.04-41.74 11.08-13.9 18.27-13.56 33.98-29.18z" opacity=".77"/><path fill="#fff" d="M279.77 373.46c-5.68-7.17-27.35-6.7-41.34 5.46-13.96 12.2 13.4 14.66 13.4 14.66s33.77-12.82 27.94-20.12z"/><path fill="#fff" d="M373.48 351.9c-8.13-1.06-41.94 4.88-46.57 13.44-4.66 8.56 10.47 15.86 16.3 14.62 5.85-1.2 1.18-6.06 9.3-12.17 8.15-6.14 22.17-12.24 30.27-9.78 8.13 2.45 0-4.87-9.3-6.1z"/><path fill="#fff" d="M143.58 388.1c3.5-6.46 23.27-11.62 32.6-7.94 9.3 3.64 20.34 7.93 20.34 7.93s-21.52 1.23-30.83 0c-9.33-1.2-16.3 3.66-19.8 4.88-3.47 1.23-6.97 3.7-2.32-4.9z"/><path fill="#fff" d="M61.68 429.98c6.38-11.32 32.97-27.5 51.05-18.7 40.14 19.52 66.44 25.1 62.86 26.2-13.4 4.32-49.54-12.86-68.67-13.4-19.17-.52-32.93 11.05-39.94 13.6-6.94 2.62-13.8 7.3-5.32-7.7z"/><path fill="#fff" d="M446.27 306.85c-20.2 0-45.62 43.45-48.7 48.32-3.14 4.9 4.5-24.72 15.34-31.24 10.86-6.5 24.85-11.4 33.37-11.4 8.56 0 17.88 0 17.88 0s-10.85-5.68-17.88-5.68z"/><path fill="#fff" d="M514.56 347.55c-17.04-2.43-22.48-7.32-33.33-.84-10.88 6.53-14.8 7.37-10.88 10.6 3.87 3.25 4.63 4.02 13.97-1.64 9.3-5.7 18.6-7.32 25.6-5.7 7 1.63 12.42 3.26 12.42 3.26l-7.78-5.67z"/><path fill="#fff" d="M202.74 477.17c-7.74-2.43-30.26-16.25-72.18-14.64-10.44.4-27.62 2.84-36.44 9-26.54 18.4-77.6 91.06-82.28 141.47 26.4-48.8 50.45-76.42 62.08-92.72 11.66-16.3 31.83-34.15 41.92-39.84 10.1-5.7 37.24-2.46 47.32 1.63 10.1 4.04 39.58-4.9 39.58-4.9z"/><path fill="#fde9f1" d="M316.84 507.3c-20.2-9.98-32.58-12.24-53.55-9.8-10.4 1.18-27.64 2.84-36.5 8.97-26.5 18.37-81.47 93.52-87.66 135.82 17.08-32.53 58.2-76.45 69.83-92.75 11.65-16.25 37.44-38.2 48.88-38.2 18.02 0 39.07-4.03 49.9 6.7 13.88 13.8 18.24 109.38 22.3 120.98 4.07-21.94-4.6-102.4.95-117.94 3.04-8.4 18.35-11.95 19.8-12.18 15.7-2.45 33.24 5.16 41.3 6.1 10.48 1.2 5.3-37.23-49.42-22.6-7.93 2.12-22.26 16.65-25.84 14.87z"/><path fill="#f2ebf5" d="M414.47 406.92c11.2-11.76 26.78-8.55 40.75-19.52 13.94-11 29.1-13.43 34.9-13.43 5.83 0 44.24 8.54 50.06 40.27 5.8 31.7 1.16 20.73-8.13 6.1-9.34-14.67-24.48-34.22-41.92-31.74-25.2 3.53-68.66 18.32-75.66 18.32z" opacity=".77"/><path fill="url(#e)" d="M462.76 346.77c15.62-21.92 27.8-144.63 8.15-154.85-17.55-9.02-28.82-3.25-40.86-15.12-14.48-14.26-24.13-40.4-63.32-30.73-14.58 3.62-6.18-10.6-34.62-11.37-21.1-.58-24.58 7.52-37.44 12.3-10.3 3.83-13.5-13.6-34.36-12.2-19.88 1.36-19.9 8.72-28.07 10.86-22.85 5.86-30.32-10.62-47.95-8.6-24 2.78-26.25 33.9-51.85 35.28-22.77 1.22-40.12-.46-53.9 26.93C62.76 230.6 28.76 422.87 93.3 468.6c20.1 14.27 34.58-21.6 50.73-18.57 21.1 3.9 14.3 19.02 42.15 21.3 44.78 3.6 57.1-13.42 90.33-22.28 21.58-5.8 16.23 11.87 51.6 8.5 48-4.5 33.87-22.17 51.72-32.73 12.6-7.44 23.58-3.24 46.3-16.37 23.33-13.45 14.36-29.3 18.32-36.5 6.55-11.96 8.45-11.48 18.32-25.18z" opacity=".77"/><path fill="#fff" d="M325.72 145.95c-3.16-4.4-15.86-7.13-24.33-2.83-8.52 4.3 7.43 9.25 7.43 9.25s20.12-1.92 16.9-6.42z"/><path fill="#fff" d="M375.2 155.56c-4.74-1.64-24.6-3.22-27.58.48-2.95 3.73 5.7 9.5 9.17 9.7 3.4.15.8-2.96 5.75-4.96 4.92-1.97 13.24-3.2 18-.85 4.66 2.36.1-2.48-5.34-4.37z"/><path fill="#fff" d="M196.63 151.15c4.04-4.9 20-9.5 30.36-2.55 22.98 15.37 38.22 21.75 36.12 21.87-7.97.37-28.66-13.26-39.9-16.15-11.14-2.85-19.5 1.16-23.66 1.5-4.16.37-8.25 1.8-2.93-4.67z"/><path fill="#fff" d="M420.7 173.68c-11.88-2.75-24.65-3.63-26.54-1.58-2 2.07.05 7.54 6.6 5.74 6.44-1.85 14.8-2.43 19.82-1.3 4.96 1.16 10.4 2.47 10.4 2.47s-6.15-4.4-10.28-5.32z"/><path fill="#fff" d="M459.6 203.65c-9.92-3.53-12.97-6.78-19.47-4.96-6.47 1.8-8.83 1.72-6.6 3.9 2.16 2.15 2.57 2.7 8.16 1.05 5.6-1.6 11.07-1.16 15.1.6 4.07 1.78 7.22 3.34 7.22 3.34l-4.42-3.95z"/><path fill="#fff" d="M278 188.2c-4.47-2.26-17.3-12.36-41.9-17.2-6.1-1.24-16.23-2.3-21.54-.44-16 5.77-23.88 24.2-31.5 32.46 5.82 2.65 13.36-.63 20.56-7.35 7.24-6.7 17.37-16.06 23.42-17.58 6.06-1.55 21.88 3.8 27.67 7.24 5.82 3.45 23.3 2.87 23.3 2.87z"/><path fill="#fef3f7" d="M343.96 219.05c-11.53-7.8-18.75-10.6-31.06-12.23-6.13-.8-16.25-2.34-21.58-.42-16 5.8-23.86 24.2-31.48 32.46 5.82 2.63 13.35-.66 20.6-7.37 7.2-6.7 22.22-19.94 28.93-18.4 10.5 2.47 22.95 3.28 29.02 10.2 7.73 8.92 7.98 32.02 10.07 38.48 2.97-10.6-.2-26.64 3.45-33.77 1.97-3.86 11.05-3.57 11.9-3.52 9.3.9 19.27 7.17 24.03 8.75 6.06 2.05 4-18.24-28.38-18.2-4.7 0-13.43 5.43-15.5 4.02z"/><path fill="#fff" d="M399.5 220.24c6.9-4.45 15.9-.7 24.36-4.4 8.44-3.67 17.4-2.85 20.76-2.07 3.42.8 25.7 10.36 28.3 27.28 2.57 16.93.18 10.7-4.93 2.04-5.14-8.74-13.46-20.72-23.7-21.88-14.84-1.65-40.7-.03-44.8-.98z"/><path fill="url(#f)" d="M470.6 218.47c15.76-7.22 10.65-102.2 1.23-112.4-8.3-9.1-16.83-9-21-18.1-5.02-11-11.62-19.97-38.86-23.52-7.06-.95-.74-7.3-18.32-14.63-4.85-2.06-17.32-2.4-26.7-3.26-7.32-.67-8.04-8.97-21.77-12.36-6.88-1.7-14.33 1.56-23.1 1.24-7.38-.17-12.22-9.4-26.33-11.26-15.93-2.1-14.5 4.36-22.1 6.55-5.2 1.5-3.2-6-24.12-4.5-14.5 1.04-15.07 6.96-31.22 17.46-18.55 11.94-100.73 114.34-79.47 129.2 8.3 5.82 48.25 10.63 57.4 16.26 12.04 7.37 19.07 9.7 35.7 17.9 26.74 13.23 47.06 3.75 70.1 7.68 14.96 2.5 18.73 14.65 41.98 20.74 28.3 7.4 34.2-3.1 48.16-3.95 9.86-.58 17.95 8.84 35.64 7.9 18.22-.9 17.67-10.67 22.1-13.34 7.4-4.37 10.72-3.16 20.7-7.63z" opacity=".64"/><path fill="#e7deee" d="M444.2 105.42c8.37-.6 10.54-3.38 5-8.38-4.9-4.47-9.62-5.54-12.27-9.48-3.1-4.68-7.06-8.9-22.22-13.8-3.8-1.24-.57-2.8-10.5-7.8-2.77-1.4-9.68-3.2-14.83-4.75-4.04-1.2-4.72-4.34-12.4-7.43-3.8-1.53-7.83-1.32-12.62-2.58-4.08-1.06-7.08-5.07-14.9-7.65-8.84-2.9-7.8-.3-11.95-.5-2.75-.1-1.93-2.62-13.4-4.83-7.97-1.53-8 .6-16.5 2.33-9.74 2-2.88 5.77 2.38 9.08 6.86 4.3 4.67 7.83 14.13 13.07 15.22 8.44 20.47 9.5 33.25 13.98 8.3 2.9 7.37 6.8 20.4 12.12 15.78 6.45 16.2 4.92 23.88 6.45 5.42 1.07 14.44 8.25 24.18 10.45 15.77 3.53 13.12.06 18.4-.28z" opacity=".65"/><path fill="#fff" d="M382.14 54.37c-1.36-3.16-8.86-6.7-14.7-5.28-5.8 1.38 3.38 6.76 3.38 6.76s12.7 1.75 11.32-1.5z"/><path fill="#fff" d="M411.48 67.53c-2.72-1.7-14.82-5.57-17.16-3.76-2.35 1.87 2.24 6.7 4.38 7.32 2.08.6.9-1.72 4.22-2.18 3.35-.53 8.66-.04 11.28 2.1 2.58 2.13.37-1.52-2.72-3.5z"/><path fill="#fff" d="M301.5 38.64c3.17-2.4 13.66-2.88 19.14 2.9 12.18 12.8 20.75 19 19.44 18.74-4.95-.94-15.96-12.38-22.5-15.78-6.56-3.4-12.24-2.15-14.87-2.54-2.67-.4-5.4-.1-1.2-3.32z"/><path fill="#fff" d="M437.22 85.32c-6.98-3.4-14.74-5.84-16.25-4.87-1.46 1-.93 4.67 3.3 4.53 4.3-.2 9.54.68 12.5 2.1 2.9 1.43 6.12 3.05 6.12 3.05s-3.23-3.62-5.68-4.8z"/><path fill="#fff" d="M457.33 109.43c-5.68-3.63-7.15-6.06-11.45-5.9-4.26.18-5.65-.2-4.6 1.44 1.07 1.66 1.22 2.02 4.92 1.85 3.67-.17 7.05.9 9.3 2.58 2.32 1.68 4.02 3.1 4.02 3.1l-2.2-3.07z"/><path fill="#fff" d="M346.93 73.33c-2.47-2.02-9.05-10.1-23.62-16.7-3.64-1.65-9.74-3.8-13.3-3.42-10.67 1.2-57.5 38.98-60.42 55.45 13.37-18.92 27.34-25.62 37.48-34.98 4.55-4.24 25.74-14 29.68-14.02 3.92-.05 13.02 5.53 16.1 8.5 3.17 2.98 14.1 5.18 14.1 5.18z"/><path fill="#fde9f1" d="M383.7 101.96c-6.14-6.5-10.25-9.3-17.65-12.07-3.7-1.42-9.75-3.83-13.3-3.44-10.68 1.2-18 11.34-23.82 15.3 3.24 2.46 8.34 1.56 13.73-1.5 5.35-3.04 16.4-8.98 20.36-7.03 6.18 3.06 13.8 5.38 16.6 10.53 3.6 6.6.7 20.83 1.13 25.1 3.23-6.08 3.43-16.36 6.67-20.2 1.73-2.1 7.3-.6 7.8-.43 5.6 1.9 11.03 7.2 13.73 8.88 3.55 2.18 4.94-10.6-15.13-15.33-2.95-.7-9.1 1.34-10.13.2z"/><path fill="#fde9f1" d="M417.85 110.82c4.84-1.7 9.93 1.9 15.77.87 5.66-1.03 11.1.77 13.08 1.77 2.03 1 14.53 10.1 13.8 20.87-.6 10.8-1.32 6.62-3.28.53-1.97-6.08-5.48-14.7-11.75-16.88-9-3.2-25.16-5.97-27.62-7.18z"/><path fill="#fff" d="M272.27 40.33c9.25 1.22-12.8-7.32-23.28-3.66-10.45 3.66-52.97 44.54-60.52 65.27-4.86 13.28 17.47-21.97 36.67-37.22 12.07-9.6 37.8-25.62 47.12-24.4z"/><path fill="#fff" d="M171 208.7s-20.93 9.75-32.6-6.1c-11.63-15.86-23.26 10.98-30.25 34.16-7 23.17-22.26 91.62-24.45 119.57-2.35 29.7 0 58.56 0 58.56s10.86-96.4 22.53-130.55c11.63-34.18 17.05-62.25 38-57.34 20.95 4.88 26.78-18.3 26.78-18.3z"/><path fill="#fef3f7" d="M255.22 246.95c-15.52 5.07-19.6-5.3-30.07-11.4-14.38-8.4-36.67-17.1-52.96 43.9-16.32 61.02-18.45 68.74-19.2 81.77-.8 13.02 14.5-36.22 19.96-54.12 5.43-17.88 17.64-52.45 32.4-55.7 14.75-3.25 27.35 17.7 49.86-4.45z"/><path fill="#fde9f1" d="M344.46 272.75c-6.38 16.47-36.1 10.97-47.76 31.13-11.65 20.13-11.03 34.16-13.36 47.57-2.34 13.42 6.4-9.76 13.36-27.44 7-17.68 51.82-36 47.76-51.25z"/><path fill="#9f52a0" d="M400.38 255.35c-.04 11.12 16.93 34.28 13.1 57.46-3.75 23.22-22.05 40.33-28.7 52.07-6.6 11.73 10.5-23.32 16.3-41.47 5.83-18.15-13.34-59.36-.7-68.05z" opacity=".77"/><path fill="#9f52a0" d="M544.1 452.04c1.3 13.95 11.7 22.04 20.16 45.57 7 19.52 17.34 99.9 22.48 114.72 4.47 12.8 11.67-35.42-8.13-114.7-4.02-16.26-19.2-38.16-34.5-45.58z" opacity=".77"/><path fill="#9f52a0" d="M408.02 527.54c2.77 13.74 13.92 20.6 24.7 43 8.95 18.67 27.4 97.44 34.05 111.58 5.72 12.24 8-36.5-19.8-113.1-5.67-15.72-22.94-35.77-38.95-41.48z" opacity=".77"/></svg>