<svg xmlns="http://www.w3.org/2000/svg" width="48" height="48" xmlns:xlink="http://www.w3.org/1999/xlink"><defs><linearGradient id="e"><stop offset="0" stop-color="#c9c9c9"/><stop offset="1" stop-color="#8b8b8b"/></linearGradient><linearGradient id="d"><stop offset="0" stop-color="#f57900"/><stop offset="1" stop-color="#ce5c00"/></linearGradient><linearGradient id="c"><stop offset="0" stop-color="#588acb"/><stop offset="1" stop-color="#3465a4"/></linearGradient><linearGradient id="b"><stop offset="0" stop-color="#fff"/><stop offset="1" stop-color="#babdb6"/></linearGradient><linearGradient id="a"><stop offset="0" stop-color="#2e3436"/><stop offset=".101" stop-color="#2e3436"/><stop offset=".257" stop-color="#7e8c91"/><stop offset=".488" stop-color="#2e3436"/><stop offset="1"/></linearGradient><linearGradient id="i" x1="9.861" x2="12.927" y1="35.177" y2="47.654" xlink:href="#a" gradientUnits="userSpaceOnUse" gradientTransform="matrix(1.09 0 0 1 -6.03 0)"/><linearGradient id="h" x1="34.399" x2="36.428" y1="30.379" y2="43.617" xlink:href="#a" gradientUnits="userSpaceOnUse" gradientTransform="matrix(1.012 0 0 .929 -3.476 2.436)"/><linearGradient id="m" x1="40.688" x2="38.856" y1="10.092" y2="19.711" xlink:href="#a" gradientUnits="userSpaceOnUse"/><linearGradient id="n" x1="40.688" x2="38.856" y1="10.092" y2="19.711" xlink:href="#a" gradientUnits="userSpaceOnUse"/><radialGradient id="j" cx="19.159" cy="21.603" r="2.643" xlink:href="#b" fx="19.159" fy="21.603" gradientUnits="userSpaceOnUse"/><linearGradient id="f" x1="27.488" x2="22.597" y1="1.525" y2="10.794" xlink:href="#c" gradientUnits="userSpaceOnUse" gradientTransform="matrix(1.09 0 0 1 -6.03 0)"/><linearGradient id="l" x1="12.886" x2="34.276" y1="38.405" y2="40.31" xlink:href="#d" gradientUnits="userSpaceOnUse" gradientTransform="matrix(1.09 0 0 1 -6.03 0)"/><linearGradient id="g" x1="33.323" x2="34.172" y1="3.036" y2="11.798" xlink:href="#c" gradientUnits="userSpaceOnUse" gradientTransform="matrix(1.09 0 0 1 -6.03 0)"/><linearGradient id="k" x1="18.294" x2="22.056" y1="20.46" y2="24.27" xlink:href="#e" gradientUnits="userSpaceOnUse"/></defs><g><path fill-opacity=".125" fill-rule="evenodd" d="M26.35 26.3l5.12.05 6.16-.83c3.84-.97 5.38-2.82 6.23-6.15l.62-4.07c.25-1.6.3-3.1-1.45-3.87l-21.52 9.9 4.85 4.96z"/><path fill-opacity=".125" fill-rule="evenodd" d="M27.3 25.08l4.5.06 5.42-.73c3.38-.85 4.73-2.48 5.48-5.4l.55-3.6c.22-1.4.26-2.72-1.28-3.4l-18.94 8.72 4.26 4.36z"/><path fill-opacity=".356" fill-rule="evenodd" d="M10.5 44.4l20.13-5.28 1.65 4-23.3 4.9 1.52-3.63z"/><path fill="#2e3436" fill-rule="evenodd" stroke="#000" stroke-width="1.247" d="M35.9 21.1a2.9 6.8 0 1 1-5.8 0 2.9 6.8 0 1 1 5.8 0z" transform="matrix(.836 0 0 .769 -14.275 .697)" stroke-linejoin="bevel" overflow="visible" enable-background="accumulate"/><path fill="#3465a4" fill-rule="evenodd" stroke="#163766" d="M28.16 2.84l-13.66 7.5c-4.95 3.87-3 5.74-2.75 8.97l13.38 3.64c.04.1.06.22.1.34l16.2-9.44 2.53-4.43c-.87-2.17-2.46-3.37-3.74-3.7L28.16 2.85z" stroke-linejoin="bevel"/><path fill="#417ac3" fill-rule="evenodd" stroke="#204a87" d="M17.36 10.98c-2.55 1.1-3.83 3.1-3.46 5.02 1.46 1.85 5 2.64 8.02 2.35.42-1.92 1.43-4.22 4.08-5.4l-8.64-1.97z"/><path fill="url(#f)" fill-rule="evenodd" stroke="#163766" d="M20.77.56c-7.72 2-5.66 6.6-5.96 9.75l13.43 3.17 2.9-10.9-10.36-2z" stroke-linejoin="bevel"/><path fill="url(#g)" fill-rule="evenodd" stroke="#163766" d="M37.48 7.3c.12-1.7-5.07-4.8-6.64-4.74-4.2 1.5-3.7 4.95-2.75 10.83l1.74 7.64 8.64-5.14-1-8.6z" stroke-linejoin="bevel" overflow="visible" enable-background="accumulate"/><path fill="url(#h)" fill-rule="evenodd" d="M30.22 30.17c3.2.85 5.3 3.63 5.2 7.24-.1 3.55-2 5.42-3.12 5.66l-2.6.48c-.93-.2-2.33-1.25-2.43-2.23l2.95-11.13z"/><path fill="url(#i)" fill-rule="evenodd" d="M7.64 34.56c-1.6-.08-2.97.24-4 1.37-.84 4.12 1.07 9.1 3.8 12.25l4.96-.94c2.3-10.63-3.17-8.45-4.76-12.68z" overflow="visible" enable-background="accumulate"/><path fill="url(#j)" fill-rule="evenodd" stroke="url(#k)" stroke-width=".834" d="M22.2 22.62a2.14 2.14 0 1 1-4.3 0 2.14 2.14 0 1 1 4.3 0z" transform="matrix(1.251 0 0 1.148 -8.956 -4.018)" stroke-linejoin="bevel" overflow="visible" enable-background="accumulate"/><path fill="#fcaf3e" fill-rule="evenodd" stroke="#8b3c00" d="M6.24 24.3l15.47-3.08L32.2 32.55 7.3 37.73 6.25 24.3z" stroke-linejoin="bevel"/><path fill="url(#l)" fill-rule="evenodd" stroke="#8b3c00" d="M7.52 37.93l3.12 7.73 21.22-4.85.37-8.25-24.7 5.38z" stroke-linejoin="bevel"/><path fill="#fff" fill-rule="evenodd" d="M26.22 6.08l-9.2-2.1c-.84 1.9-.88 3.83-.93 5.3l10.2 2.5c-.45-1.97-.44-3.87-.08-5.7z"/><path fill="#fff" fill-rule="evenodd" d="M36.02 8.75c-.4-1.82-.74-3.7-3.2-4.24L29.22 6c-.87 1.82-.14 4.46.23 6.12l6.57-3.37z" overflow="visible" enable-background="accumulate"/><g fill-rule="evenodd"><path fill="url(#m)" stroke="#000" stroke-width=".958" d="M40 9.8c-1.23 0-2.22 2.37-2.22 5.26 0 2.9 1 5.22 2.22 5.22l1.38.38c1.23 0 2.2-2.36 2.2-5.25 0-3.1-.8-4.92-1.87-5.17L40 9.8z" stroke-linejoin="bevel" overflow="visible" enable-background="accumulate" transform="matrix(1.09 0 0 1 -5.141 -.19)"/><path fill="#2e3436" d="M42.18 15.3a1.83 4.3 0 1 1-3.66 0 1.83 4.3 0 1 1 3.66 0z" overflow="visible" enable-background="accumulate"/><path fill="#888a85" d="M41.7 15.44a1.3 3.04 0 1 1-2.56 0 1.3 3.04 0 1 1 2.57 0z" overflow="visible" enable-background="accumulate"/><path fill="#eeeeec" d="M41.65 15.67a.96 2.27 0 1 1-1.93 0 .96 2.27 0 1 1 1.93 0z" overflow="visible" enable-background="accumulate"/></g><g fill-rule="evenodd"><path fill="url(#n)" stroke="#000" stroke-width=".958" d="M40 9.8c-1.23 0-2.22 2.37-2.22 5.26 0 2.9 1 5.22 2.22 5.22l1.38.38c1.23 0 2.2-2.36 2.2-5.25 0-3.1-.8-4.92-1.87-5.17L40 9.8z" stroke-linejoin="bevel" overflow="visible" enable-background="accumulate" transform="matrix(1.09 0 0 1 -15.182 5.333)"/><path fill="#2e3436" d="M32.14 20.83a1.83 4.3 0 1 1-3.66 0 1.83 4.3 0 1 1 3.66 0z" overflow="visible" enable-background="accumulate"/><path fill="#888a85" d="M31.67 20.96a1.3 3.04 0 1 1-2.57 0 1.3 3.04 0 1 1 2.57 0z" overflow="visible" enable-background="accumulate"/><path fill="#eeeeec" d="M31.6 21.2a.96 2.27 0 1 1-1.92 0 .96 2.27 0 1 1 1.93 0z" overflow="visible" enable-background="accumulate"/></g><path fill="none" stroke="#ffce89" d="M7.43 24.96l13.95-2.75 8.73 9.7L8.26 36.5l-.82-11.56z"/><path fill="none" stroke="#fcaf3e" d="M9.07 38.65l2.2 5.82 19.53-4.4.08-6.2-21.8 4.78z"/></g></svg>