<svg xmlns="http://www.w3.org/2000/svg" width="48" height="48" xmlns:xlink="http://www.w3.org/1999/xlink" version="1" viewBox="0 0 612 792" enable-background="new 0 0 612 792"><defs><linearGradient id="b"><stop offset="0"/><stop offset="1" stop-color="#3f6c98"/></linearGradient><linearGradient id="a"><stop offset="0" stop-color="#fff"/><stop offset="1" stop-color="#e2e2e2"/></linearGradient><linearGradient id="d" x1="318.641" x2="340.672" y1="194.557" y2="298.998" xlink:href="#a" gradientUnits="userSpaceOnUse"/><radialGradient id="c" cx="317.025" cy="444.128" r="11.995" xlink:href="#b" fx="317.025" fy="444.128" gradientTransform="matrix(.554 -.017 .025 .79 130.873 96.192)" gradientUnits="userSpaceOnUse"/></defs><path fill="none" stroke="#204a87" stroke-width="16.88.6" stroke-miterlimit="10" d="M86.34 37.28L555.48 15.6l1.23 707.16L86.55 773.8l-.2-736.52z"/><path fill="none" stroke="#d9dfea" stroke-width="18.573" stroke-miterlimit="10" d="M545.94 25.6L95.88 46.4l.22 716.77 451.07-48.93-1.23-688.6z"/><path fill="url(#c)" d="M305.9 411.7l23.78-1.18-.05 38.24-23.94 2.6.2-39.66z" transform="matrix(16.885 0 0 16.885 -5035.03 -6881.644)"/><path fill="#7197c2" d="M228.57 154.78L430.55 144l.6 460.84-204.52 18 1.94-468.06z"/><path fill="#4b7eb0" d="M130.2 69.86l-30.1-21.1.23 710.3 26.6-19.77 3.27-669.44z"/><path fill="#79a3d2" d="M531.6 49.97l10.86-21.86L100.1 48.77l30.1 21.1 401.4-19.9z"/><path fill="#2c5174" d="M126.94 739.3l403.82-44.87 12.92 16.16-443.35 48.45 26.6-19.76z"/><path fill="#39648c" d="M530.76 694.43l.83-644.46 10.86-21.86 1.22 682.5-12.92-16.17z"/><path fill="#39648c" d="M403.9 175.6l-.37 234.47-12.15-18.2.4-197.68 12.13-18.6z"/><path fill="url(#d)" d="M278.67 403.44s-10.06-194.67-21.02-203.58l115.06-5.3c16.9 11.7 18.36 196.87 18.36 196.87"/><path fill="#b1b3b6" d="M392 658.95l12.2-128.13 122.02-17.78-24.9 126.9-109.32 19z"/><path fill="#cdcfd0" d="M257.65 199.86c10.8 8.05 21.02 203.58 21.02 203.58l127.3 128.27-11.32 128.13-136.4-94.75-.6-365.22z"/><path fill="#314a69" d="M391.77 194.2l-.38 55.52s-1.32-48.48-9.85-55.18l10.22-.35"/><path fill="#2c5174" d="M403.9 175.6l-12.13 18.6-134.93 5.66 2.08-16.5 145-7.76z"/><path fill="#79a3d2" d="M258.26 565.85l20.17 23.42-20.53 1.5.36-24.92z"/><path fill="#fff" fill-rule="evenodd" d="M277.7 403.07l126.42 128.17 121.1-17.68-134.36-121.98-113.15 11.5z"/></svg>