<svg xmlns="http://www.w3.org/2000/svg" width="48" height="48" xmlns:xlink="http://www.w3.org/1999/xlink"><defs><linearGradient id="e" x1="305.154" x2="315.381" y1="801.974" y2="806.49" gradientUnits="userSpaceOnUse"><stop offset=".096" stop-color="#B8C0CC"/><stop offset=".189" stop-color="#AFB7C3"/><stop offset=".346" stop-color="#959DA9"/><stop offset=".511" stop-color="#737B87"/><stop offset=".854" stop-color="#737B87"/><stop offset="1" stop-color="#8D9299"/></linearGradient><linearGradient id="d" x1="308.612" x2="311.236" y1="804.033" y2="800.277" gradientUnits="userSpaceOnUse"><stop offset="0" stop-color="#fff"/><stop offset=".601" stop-color="#E6EBF2"/><stop offset="1" stop-color="#C0C5CC"/></linearGradient><linearGradient id="c" x1="311.151" x2="308.016" y1="807.487" y2="802.884" gradientUnits="userSpaceOnUse"><stop offset=".022" stop-color="#ECF0F5"/><stop offset=".736" stop-color="#CDD2D9"/><stop offset="1" stop-color="#C1C5CC"/></linearGradient><radialGradient id="b" cx="309.559" cy="807.63" r="8.197" gradientUnits="userSpaceOnUse" fy="807.63" fx="309.559"><stop offset="0" stop-color="#fff"/><stop offset=".601" stop-color="#F2F4F7"/><stop offset="1" stop-color="#CCD1D9"/></radialGradient><radialGradient id="a" cx="309.903" cy="808.347" r="9.208" gradientUnits="userSpaceOnUse" fy="808.347" fx="309.903"><stop offset="0" stop-color="#fff"/><stop offset=".601" stop-color="#F2F4F7"/><stop offset="1" stop-color="#CCD1D9"/></radialGradient><linearGradient id="z" x1="315.353" x2="313.046" y1="782.954" y2="785.383" gradientUnits="userSpaceOnUse"><stop offset=".006" stop-color="#B8C0CC"/><stop offset="1" stop-color="#737B87"/></linearGradient><linearGradient id="y" x1="315.201" x2="313.966" y1="780.805" y2="782.104" gradientUnits="userSpaceOnUse"><stop offset=".006" stop-color="#B8C0CC"/><stop offset="1" stop-color="#737B87"/></linearGradient><linearGradient id="x" x1="303.91" x2="313.575" y1="779.087" y2="783.713" gradientUnits="userSpaceOnUse"><stop offset="0" stop-color="#fff"/><stop offset=".551" stop-color="#E0E3E8"/><stop offset="1" stop-color="#CBD1D9"/></linearGradient><linearGradient id="w" x1="307.275" x2="310.005" y1="786.494" y2="787.599" gradientUnits="userSpaceOnUse"><stop offset=".006" stop-color="#9DA3AC"/><stop offset=".315" stop-color="#B8C0CC"/><stop offset=".65" stop-color="#A5ABB5"/><stop offset="1" stop-color="#8D9299"/></linearGradient><linearGradient id="v" x1="308.537" x2="308.537" y1="782.054" y2="787.611" gradientUnits="userSpaceOnUse"><stop offset="0" stop-color="#F2F4F7"/><stop offset=".376" stop-color="#C4CCD9"/><stop offset=".47" stop-color="#C1C9D6"/><stop offset=".551" stop-color="#B6BECB"/><stop offset=".628" stop-color="#A4ACB9"/><stop offset=".701" stop-color="#8C94A0"/><stop offset=".758" stop-color="#737B87"/><stop offset=".854" stop-color="#737B87"/><stop offset="1" stop-color="#8D9299"/></linearGradient><linearGradient id="u" x1="313.743" x2="315.995" y1="781.97" y2="784.828" gradientUnits="userSpaceOnUse"><stop offset=".376" stop-color="#C4CBD9"/><stop offset=".701" stop-color="#D4DAE4"/><stop offset="1" stop-color="#E6EBF2"/></linearGradient><radialGradient id="t" cx="308.669" cy="785.159" r="5.135" gradientUnits="userSpaceOnUse" fy="785.159" fx="308.669"><stop offset="0" stop-color="#D6DCE6"/><stop offset=".284" stop-color="#C2C9D4"/><stop offset=".861" stop-color="#8F98A5"/><stop offset="1" stop-color="#828B99"/></radialGradient><radialGradient id="s" cx="304.271" cy="780.7" r="10.87" gradientUnits="userSpaceOnUse" fy="780.7" fx="304.271"><stop offset="0" stop-color="#fff"/><stop offset=".309" stop-color="#F7F8F9"/><stop offset=".789" stop-color="#E1E4E9"/><stop offset="1" stop-color="#D5DAE1"/></radialGradient><radialGradient id="f" cx="338.484" cy="804.236" r="12.28" gradientUnits="userSpaceOnUse" fy="804.236" fx="338.484"><stop offset="0" stop-color="#fff"/><stop offset=".601" stop-color="#F2F4F7"/><stop offset="1" stop-color="#CCD1D9"/></radialGradient><radialGradient id="g" cx="338.026" cy="803.28" r="10.93" gradientUnits="userSpaceOnUse" fy="803.28" fx="338.026"><stop offset="0" stop-color="#fff"/><stop offset=".601" stop-color="#F2F4F7"/><stop offset="1" stop-color="#CCD1D9"/></radialGradient><linearGradient id="i" x1="336.764" x2="340.261" y1="798.483" y2="793.476" gradientUnits="userSpaceOnUse"><stop offset="0" stop-color="#fff"/><stop offset=".601" stop-color="#E6EBF2"/><stop offset="1" stop-color="#C0C5CC"/></linearGradient><linearGradient id="h" x1="340.15" x2="335.97" y1="803.088" y2="796.95" gradientUnits="userSpaceOnUse"><stop offset=".022" stop-color="#ECF0F5"/><stop offset=".736" stop-color="#CDD2D9"/><stop offset="1" stop-color="#C1C5CC"/></linearGradient><linearGradient id="j" x1="332.153" x2="345.789" y1="795.736" y2="801.758" gradientUnits="userSpaceOnUse" gradientTransform="matrix(1.011 0 0 1.011 -318.079 -776.78)"><stop offset=".096" stop-color="#B8C0CC"/><stop offset=".189" stop-color="#AFB7C3"/><stop offset=".346" stop-color="#959DA9"/><stop offset=".511" stop-color="#737B87"/><stop offset=".854" stop-color="#737B87"/><stop offset="1" stop-color="#8D9299"/></linearGradient><radialGradient id="k" cx="331.014" cy="789.617" r="14.494" gradientUnits="userSpaceOnUse" fy="789.617" fx="331.014" gradientTransform="matrix(1.011 0 0 1.011 -318.079 -776.78)"><stop offset="0" stop-color="#fff"/><stop offset=".309" stop-color="#F7F8F9"/><stop offset=".789" stop-color="#E1E4E9"/><stop offset="1" stop-color="#D5DAE1"/></radialGradient><radialGradient id="l" cx="336.285" cy="795.262" r="6.919" gradientUnits="userSpaceOnUse" fy="795.262" fx="336.285" gradientTransform="matrix(1.011 0 0 1.011 -318.079 -776.78)"><stop offset="0" stop-color="#D6DCE6"/><stop offset=".284" stop-color="#C2C9D4"/><stop offset=".861" stop-color="#8F98A5"/><stop offset="1" stop-color="#828B99"/></radialGradient><linearGradient id="m" x1="343.644" x2="346.647" y1="791.311" y2="795.122" gradientUnits="userSpaceOnUse" gradientTransform="matrix(1.011 0 0 1.011 -318.079 -776.78)"><stop offset=".376" stop-color="#C4CBD9"/><stop offset=".701" stop-color="#D4DAE4"/><stop offset="1" stop-color="#E6EBF2"/></linearGradient><linearGradient id="n" x1="336.703" x2="336.703" y1="791.422" y2="798.831" gradientUnits="userSpaceOnUse" gradientTransform="matrix(1.011 0 0 1.011 -318.079 -776.78)"><stop offset="0" stop-color="#F2F4F7"/><stop offset=".376" stop-color="#C4CCD9"/><stop offset=".47" stop-color="#C1C9D6"/><stop offset=".551" stop-color="#B6BECB"/><stop offset=".628" stop-color="#A4ACB9"/><stop offset=".701" stop-color="#8C94A0"/><stop offset=".758" stop-color="#737B87"/><stop offset=".854" stop-color="#737B87"/><stop offset="1" stop-color="#8D9299"/></linearGradient><linearGradient id="o" x1="335.019" x2="338.659" y1="797.341" y2="798.814" gradientUnits="userSpaceOnUse" gradientTransform="matrix(1.011 0 0 1.011 -318.079 -776.78)"><stop offset=".006" stop-color="#9DA3AC"/><stop offset=".315" stop-color="#B8C0CC"/><stop offset=".65" stop-color="#A5ABB5"/><stop offset="1" stop-color="#8D9299"/></linearGradient><linearGradient id="p" x1="330.533" x2="343.419" y1="787.467" y2="793.635" gradientUnits="userSpaceOnUse" gradientTransform="matrix(1.011 0 0 1.011 -318.079 -776.78)"><stop offset="0" stop-color="#fff"/><stop offset=".551" stop-color="#E0E3E8"/><stop offset="1" stop-color="#CBD1D9"/></linearGradient><linearGradient id="q" x1="345.587" x2="343.94" y1="789.756" y2="791.489" gradientUnits="userSpaceOnUse" gradientTransform="matrix(1.011 0 0 1.011 -318.079 -776.78)"><stop offset=".006" stop-color="#B8C0CC"/><stop offset="1" stop-color="#737B87"/></linearGradient><linearGradient id="r" x1="345.791" x2="342.714" y1="792.622" y2="795.861" gradientUnits="userSpaceOnUse" gradientTransform="matrix(1.011 0 0 1.011 -318.079 -776.78)"><stop offset=".006" stop-color="#B8C0CC"/><stop offset="1" stop-color="#737B87"/></linearGradient><radialGradient id="A" cx="309.903" cy="808.347" r="9.208" xlink:href="#a" gradientUnits="userSpaceOnUse" fx="309.903" fy="808.347"/><radialGradient id="B" cx="309.559" cy="807.63" r="8.197" xlink:href="#b" gradientUnits="userSpaceOnUse" fx="309.559" fy="807.63"/><linearGradient id="C" x1="311.151" x2="308.016" y1="807.487" y2="802.884" xlink:href="#c" gradientUnits="userSpaceOnUse"/><linearGradient id="D" x1="308.612" x2="311.236" y1="804.033" y2="800.277" xlink:href="#d" gradientUnits="userSpaceOnUse"/><linearGradient id="E" x1="305.154" x2="315.381" y1="801.974" y2="806.49" xlink:href="#e" gradientUnits="userSpaceOnUse"/><radialGradient id="N" cx="338.484" cy="804.236" r="12.28" xlink:href="#f" gradientUnits="userSpaceOnUse" fx="338.484" fy="804.236"/><radialGradient id="O" cx="338.026" cy="803.28" r="10.93" xlink:href="#g" gradientUnits="userSpaceOnUse" fx="338.026" fy="803.28"/><linearGradient id="P" x1="340.15" x2="335.97" y1="803.088" y2="796.95" xlink:href="#h" gradientUnits="userSpaceOnUse"/><linearGradient id="Q" x1="336.764" x2="340.261" y1="798.483" y2="793.476" xlink:href="#i" gradientUnits="userSpaceOnUse"/><linearGradient id="R" x1="332.153" x2="345.789" y1="795.736" y2="801.758" xlink:href="#j" gradientUnits="userSpaceOnUse" gradientTransform="matrix(1.011 0 0 1.011 -318.079 -776.78)"/><radialGradient id="S" cx="331.014" cy="789.617" r="14.494" xlink:href="#k" gradientUnits="userSpaceOnUse" gradientTransform="matrix(1.011 0 0 1.011 -318.079 -776.78)" fx="331.014" fy="789.617"/><radialGradient id="T" cx="336.285" cy="795.262" r="6.919" xlink:href="#l" gradientUnits="userSpaceOnUse" gradientTransform="matrix(1.011 0 0 1.011 -318.079 -776.78)" fx="336.285" fy="795.262"/><linearGradient id="U" x1="343.644" x2="346.647" y1="791.311" y2="795.122" xlink:href="#m" gradientUnits="userSpaceOnUse" gradientTransform="matrix(1.011 0 0 1.011 -318.079 -776.78)"/><linearGradient id="V" x1="336.703" x2="336.703" y1="791.422" y2="798.831" xlink:href="#n" gradientUnits="userSpaceOnUse" gradientTransform="matrix(1.011 0 0 1.011 -318.079 -776.78)"/><linearGradient id="W" x1="335.019" x2="338.659" y1="797.341" y2="798.814" xlink:href="#o" gradientUnits="userSpaceOnUse" gradientTransform="matrix(1.011 0 0 1.011 -318.079 -776.78)"/><linearGradient id="X" x1="330.533" x2="343.419" y1="787.467" y2="793.635" xlink:href="#p" gradientUnits="userSpaceOnUse" gradientTransform="matrix(1.011 0 0 1.011 -318.079 -776.78)"/><linearGradient id="Y" x1="345.587" x2="343.94" y1="789.756" y2="791.489" xlink:href="#q" gradientUnits="userSpaceOnUse" gradientTransform="matrix(1.011 0 0 1.011 -318.079 -776.78)"/><linearGradient id="Z" x1="345.791" x2="342.714" y1="792.622" y2="795.861" xlink:href="#r" gradientUnits="userSpaceOnUse" gradientTransform="matrix(1.011 0 0 1.011 -318.079 -776.78)"/><radialGradient id="F" cx="304.271" cy="780.7" r="10.87" xlink:href="#s" gradientUnits="userSpaceOnUse" fx="304.271" fy="780.7"/><radialGradient id="G" cx="308.669" cy="785.159" r="5.135" xlink:href="#t" gradientUnits="userSpaceOnUse" fx="308.669" fy="785.159"/><linearGradient id="H" x1="313.743" x2="315.995" y1="781.97" y2="784.828" xlink:href="#u" gradientUnits="userSpaceOnUse"/><linearGradient id="I" x1="308.537" x2="308.537" y1="782.054" y2="787.611" xlink:href="#v" gradientUnits="userSpaceOnUse"/><linearGradient id="J" x1="307.275" x2="310.005" y1="786.494" y2="787.599" xlink:href="#w" gradientUnits="userSpaceOnUse"/><linearGradient id="K" x1="303.91" x2="313.575" y1="779.087" y2="783.713" xlink:href="#x" gradientUnits="userSpaceOnUse"/><linearGradient id="L" x1="315.201" x2="313.966" y1="780.805" y2="782.104" xlink:href="#y" gradientUnits="userSpaceOnUse"/><linearGradient id="M" x1="315.353" x2="313.046" y1="782.954" y2="785.383" xlink:href="#z" gradientUnits="userSpaceOnUse"/></defs><g><g opacity=".75"><path fill="none" stroke="#2b2e33" stroke-width="1.6016000000000001" d="M25.8 43.83v.5c-.04 1.7-5.67 3.05-12.58 2.85C6.32 46.98.75 45.3.8 43.62v-.5c.05-1.7 5.7-2.92 12.6-2.72 6.9.2 12.46 1.73 12.4 3.43z"/><g transform="matrix(1.839 0 0 1.839 -554.302 -1433.855)"><radialGradient cx="309.903" cy="808.347" r="9.208" fx="309.903" fy="808.347" gradientUnits="userSpaceOnUse"><stop offset="0" stop-color="#fff"/><stop offset=".601" stop-color="#F2F4F7"/><stop offset="1" stop-color="#CCD1D9"/></radialGradient><ellipse cx="308.624" cy="803.124" fill="url(#A)" rx="6.803" ry="1.672"/><radialGradient cx="309.559" cy="807.63" r="8.197" fx="309.559" fy="807.63" gradientUnits="userSpaceOnUse"><stop offset="0" stop-color="#fff"/><stop offset=".601" stop-color="#F2F4F7"/><stop offset="1" stop-color="#CCD1D9"/></radialGradient><ellipse cx="308.42" cy="802.98" fill="url(#B)" rx="6.055" ry="1.488"/><g><linearGradient x1="311.151" x2="308.016" y1="807.487" y2="802.884" gradientUnits="userSpaceOnUse"><stop offset=".022" stop-color="#ECF0F5"/><stop offset=".736" stop-color="#CDD2D9"/><stop offset="1" stop-color="#C1C5CC"/></linearGradient><path fill="url(#C)" d="M310.85 803.84c0-.3-.98-.58-2.2-.6-1.24-.05-2.25.17-2.25.47 0 .15.2.3.57.4-.05-.04-.08-.1-.08-.13 0-.24.78-.4 1.74-.38.95.02 1.72.23 1.72.47 0 .04-.03.08-.08.12.35-.1.57-.22.57-.36z"/><linearGradient x1="308.612" x2="311.236" y1="804.033" y2="800.277" gradientUnits="userSpaceOnUse"><stop offset="0" stop-color="#fff"/><stop offset=".601" stop-color="#E6EBF2"/><stop offset="1" stop-color="#C0C5CC"/></linearGradient><path fill="url(#D)" d="M310.36 804.06c0-.23-.77-.44-1.72-.47-.96-.04-1.74.13-1.75.37 0 .04.02.1.07.13.4.12 1 .2 1.64.22.67.02 1.27-.03 1.68-.13.05-.05.07-.1.08-.14z"/></g><linearGradient x1="305.154" x2="315.381" y1="801.974" y2="806.49" gradientUnits="userSpaceOnUse"><stop offset=".096" stop-color="#B8C0CC"/><stop offset=".189" stop-color="#AFB7C3"/><stop offset=".346" stop-color="#959DA9"/><stop offset=".511" stop-color="#737B87"/><stop offset=".854" stop-color="#737B87"/><stop offset="1" stop-color="#8D9299"/></linearGradient><path fill="url(#E)" d="M315.42 803.32c-.02.92-3.1 1.58-6.85 1.47-3.75-.1-6.77-.94-6.75-1.87v.27c-.02.93 3 1.83 6.75 1.94 3.76.1 6.83-.63 6.85-1.55v-.28z"/></g></g><g opacity=".75"><g fill="none" stroke="#2b2e33" stroke-width=".874"><path d="M20.08 5.66c-.26.66-.58 1.28-.94 1.88.57-.46 1.86-.56 2.3-.63.44-.05 1.2-.1 1.8-.15 1.03-.1 2-.8 2-2.32 0-1.53-.9-2.17-1.42-2.17-.72 0-1.05.68-1.62 1.44-.4.5-1.2 1.7-1.43 1.93-.23.24-.47.1-.7.03z"/><path d="M18 9.14c-.28.35-.57.67-.86.95-1.44 1.4-2.57 1.6-2.9 2.03-.06.1-.13.17-.03.26.28.14.53.3.53.58 0 .55-1.75 1-3.9 1-2.16 0-3.9-.45-3.9-1 0-.17.14-.37.4-.6.1-.08.03-.15-.03-.25-.33-.44-1.6-.64-3.02-2.04C2.52 8.37.65 5.3.65 2.44.65 1.6 5.32.9 10.88.9c5.55 0 9.88.7 9.88 1.55 0 .27-.02.6-.05.87 0 .4.4.2.6-.03.18-.23 1.24-1.75 1.6-1.88.4-.14 1.06-.2 1.57 0 .5.2 1.7.64 1.7 2.94s-1.46 3-2.38 3.25c-.93.26-3.18.1-3.95.9-.42.43-.36.9-.5 1.05-.2.23-.53.4-.85.03-.32-.37-.24-.6-.5-.45z"/></g><g transform="matrix(1.829 0 0 1.83 -553.607 -1427.344)"><path fill="none" stroke="#ed2728" stroke-width=".137" d="M310.36 786.8c0 .17-.82.3-1.8.27-.88-.03-1.6-.16-1.77-.3"/><radialGradient cx="304.271" cy="780.7" r="10.87" fx="304.271" fy="780.7" gradientUnits="userSpaceOnUse"><stop offset="0" stop-color="#fff"/><stop offset=".309" stop-color="#F7F8F9"/><stop offset=".789" stop-color="#E1E4E9"/><stop offset="1" stop-color="#D5DAE1"/></radialGradient><path fill="url(#F)" d="M314.04 781.3c0 .47-2.47.75-5.5.75-3.04 0-5.5-.28-5.5-.74 0-.46 2.56-.83 5.6-.83 3.03 0 5.4.37 5.4.84z"/><radialGradient cx="308.669" cy="785.159" r="5.135" fx="308.669" fy="785.159" gradientUnits="userSpaceOnUse"><stop offset="0" stop-color="#D6DCE6"/><stop offset=".284" stop-color="#C2C9D4"/><stop offset=".861" stop-color="#8F98A5"/><stop offset="1" stop-color="#828B99"/></radialGradient><path fill="url(#G)" d="M308.63 780.6c-1.44 0-2.82.08-3.87.24-1.5.22-1.6.46-1.6.47 0 0 .08.24 1.5.43 1 .12 2.37.2 3.88.2 1.5 0 2.88-.08 3.87-.2 1.44-.2 1.5-.42 1.5-.42s-.06-.24-1.45-.46c-1-.15-2.36-.24-3.82-.24z"/><linearGradient x1="313.743" x2="315.995" y1="781.97" y2="784.828" gradientUnits="userSpaceOnUse"><stop offset=".376" stop-color="#C4CBD9"/><stop offset=".701" stop-color="#D4DAE4"/><stop offset="1" stop-color="#E6EBF2"/></linearGradient><path fill="url(#H)" d="M313.15 784.08c.3-.24 1.02-.3 1.26-.33.24-.04.66-.06 1-.1.56-.05 1.08-.42 1.08-1.26 0-.85-.5-1.2-.77-1.2-.4 0-.56.37-.88.8-.2.27-.65.92-.78 1.05s-.26.05-.38 0l.34-1.26c0 .2.22.1.32-.03s.7-.95.9-1.03c.2-.07.56-.1.84 0 .28.1.94.36.94 1.6 0 1.27-.8 1.65-1.3 1.8-.5.13-1.74.03-2.17.47-.22.25-.2.5-.27.6-.1.1-.28.2-.46 0s-.13-.32-.27-.24l.62-.88z"/><linearGradient x1="308.537" x2="308.537" y1="782.054" y2="787.611" gradientUnits="userSpaceOnUse"><stop offset="0" stop-color="#F2F4F7"/><stop offset=".376" stop-color="#C4CCD9"/><stop offset=".47" stop-color="#C1C9D6"/><stop offset=".551" stop-color="#B6BECB"/><stop offset=".628" stop-color="#A4ACB9"/><stop offset=".701" stop-color="#8C94A0"/><stop offset=".758" stop-color="#737B87"/><stop offset=".854" stop-color="#737B87"/><stop offset="1" stop-color="#8D9299"/></linearGradient><path fill="url(#I)" d="M314.04 781.3c0 .47-2.47.75-5.5.75-3.04 0-5.5-.28-5.5-.74 0 1.56 1.02 3.25 1.98 4.2.8.75 1.48.86 1.66 1.1.03.05.07.1 0 .14-.13.12-.2.23-.2.32 0 .3.94.55 2.12.55 1.18 0 2.14-.24 2.14-.54 0-.15-.14-.24-.3-.32-.04-.05 0-.1.03-.14.18-.24.8-.35 1.58-1.1.96-.95 2-2.64 2-4.2z"/><linearGradient x1="307.275" x2="310.005" y1="786.494" y2="787.599" gradientUnits="userSpaceOnUse"><stop offset=".006" stop-color="#9DA3AC"/><stop offset=".315" stop-color="#B8C0CC"/><stop offset=".65" stop-color="#A5ABB5"/><stop offset="1" stop-color="#8D9299"/></linearGradient><path fill="url(#J)" d="M310.5 786.97c.2.17-.86.48-1.9.48s-2.03-.26-1.88-.48c.17-.27.58.2 1.87.2 1.28 0 1.6-.45 1.9-.2z"/><linearGradient x1="303.91" x2="313.575" y1="779.087" y2="783.713" gradientUnits="userSpaceOnUse"><stop offset="0" stop-color="#fff"/><stop offset=".551" stop-color="#E0E3E8"/><stop offset="1" stop-color="#CBD1D9"/></linearGradient><path fill="url(#K)" d="M308.63 780.6c-1.44 0-2.82.08-3.87.24-1.5.22-1.6.46-1.6.47 0 0 .08.24 1.5.43 1 .12 2.37.2 3.88.2 1.5 0 2.88-.08 3.87-.2 1.44-.2 1.5-.42 1.5-.42s-.06-.24-1.45-.46c-1-.15-2.36-.24-3.82-.24z"/><linearGradient x1="315.201" x2="313.966" y1="780.805" y2="782.104" gradientUnits="userSpaceOnUse"><stop offset=".006" stop-color="#B8C0CC"/><stop offset="1" stop-color="#737B87"/></linearGradient><path fill="url(#L)" d="M315.2 780.74c.25-.12-.34.4-.54.78-.16.33-.5.7-.64.66-.13-.06-.1-.23-.02-.4 0 .22.22.1.32 0 .1-.13.7-.96.9-1.04z"/><linearGradient x1="315.353" x2="313.046" y1="782.954" y2="785.383" gradientUnits="userSpaceOnUse"><stop offset=".006" stop-color="#B8C0CC"/><stop offset="1" stop-color="#737B87"/></linearGradient><path fill="url(#M)" d="M316.08 783.38c-.18.22-.93.43-1.28.47-.36.04-1 .28-1.25.42-.25.13-.82.45-.75.94-.18-.2-.13-.32-.27-.24l.62-.88c.3-.24 1.02-.3 1.26-.33.24-.04.66-.06 1-.1.24-.02.5-.1.68-.27z"/></g></g><g transform="matrix(1.704 0 0 1.704 -10.026 -19.024)"><g fill="none" stroke="#2b2e33" stroke-width=".928"><path d="M29.26 24.9c-.2.5-.43.96-.7 1.4.43-.34 1.38-.4 1.7-.46.33-.05.9-.08 1.33-.12.76-.07 1.46-.6 1.46-1.7 0-1.14-.66-1.6-1.04-1.6-.53 0-.77.5-1.2 1.05-.28.37-.87 1.25-1.04 1.42-.18.17-.36.06-.52 0z"/><path d="M27.73 27.48c-.2.26-.42.5-.64.7-1.07 1.03-1.9 1.18-2.14 1.5-.04.07-.1.12-.02.2.2.1.38.22.38.42 0 .4-1.3.74-2.88.74-1.58 0-2.87-.33-2.87-.74 0-.1.1-.27.3-.43.07-.07.02-.12-.03-.2-.24-.3-1.16-.46-2.22-1.5-1.3-1.26-2.68-3.53-2.68-5.62 0-.63 3.45-1.13 7.54-1.13 4.1 0 7.3.5 7.3 1.13 0 .2-.03.44-.06.64 0 .28.3.14.44-.03.13-.17.9-1.28 1.2-1.38.27-.12.77-.17 1.14-.02.38.15 1.26.48 1.26 2.18 0 1.7-1.08 2.2-1.76 2.4-.68.18-2.34.05-2.9.64-.32.32-.27.68-.37.78-.16.17-.4.3-.63.03-.24-.27-.17-.43-.36-.33z"/></g><path fill="none" stroke="#2b2e33" stroke-width=".939" d="M31.6 29.73v.36c-.03 1.24-4.17 2.23-9.23 2.1-5.06-.16-9.14-1.38-9.1-2.63v-.36c.03-1.24 4.16-2.13 9.23-2 5.06.16 9.14 1.28 9.1 2.53z"/><ellipse cx="336.78" cy="797.271" fill="url(#N)" rx="9.071" ry="2.229" transform="matrix(1.011 0 0 1.011 -318.079 -776.78)"/><ellipse cx="336.509" cy="797.079" fill="url(#O)" rx="8.074" ry="1.984" transform="matrix(1.011 0 0 1.011 -318.079 -776.78)"/><g transform="matrix(1.011 0 0 1.011 -318.079 -776.78)"><linearGradient x1="340.15" x2="335.97" y1="803.088" y2="796.95" gradientUnits="userSpaceOnUse"><stop offset=".022" stop-color="#ECF0F5"/><stop offset=".736" stop-color="#CDD2D9"/><stop offset="1" stop-color="#C1C5CC"/></linearGradient><path fill="url(#P)" d="M339.75 798.22c0-.4-1.3-.76-2.95-.8-1.64-.06-2.98.23-3 .64 0 .2.3.37.77.5-.06-.04-.1-.1-.1-.16 0-.32 1.05-.54 2.33-.5 1.27.03 2.3.3 2.3.63 0 .05-.05.1-.1.16.45-.13.74-.3.75-.48z"/><linearGradient x1="336.764" x2="340.261" y1="798.483" y2="793.476" gradientUnits="userSpaceOnUse"><stop offset="0" stop-color="#fff"/><stop offset=".601" stop-color="#E6EBF2"/><stop offset="1" stop-color="#C0C5CC"/></linearGradient><path fill="url(#Q)" d="M339.1 798.52c0-.3-1.03-.6-2.3-.63-1.28-.04-2.32.18-2.33.5 0 .05.04.1.1.17.54.16 1.32.27 2.2.3.87.02 1.67-.05 2.22-.18.05-.06.1-.12.1-.18z"/></g><path fill="url(#R)" d="M31.6 29.73c-.03 1.24-4.17 2.13-9.23 2-5.06-.15-9.14-1.28-9.1-2.52v.37c-.04 1.25 4.04 2.47 9.1 2.62 5.06.13 9.2-.86 9.23-2.1v-.37z"/><path fill="none" stroke="#ed2728" stroke-width=".147" d="M24.8 29.95c0 .23-1.1.4-2.43.36-1.17-.02-2.14-.2-2.37-.4"/><path fill="url(#S)" d="M29.77 22.55c0 .62-3.32 1-7.4 1-4.1 0-7.43-.38-7.43-1 0-.63 3.45-1.13 7.54-1.13 4.1 0 7.3.5 7.3 1.13z"/><path fill="url(#T)" d="M22.48 21.6c-1.95 0-3.8.1-5.22.3-2.02.3-2.14.64-2.14.65 0 0 .1.3 2.02.56 1.33.18 3.18.28 5.22.28 2.03 0 3.88-.1 5.2-.27 1.94-.24 2.03-.55 2.03-.55s-.1-.34-1.97-.63c-1.36-.2-3.2-.33-5.15-.33z"/><path fill="url(#U)" d="M28.57 26.3c.42-.34 1.37-.42 1.7-.46.32-.05.88-.08 1.32-.12.76-.07 1.46-.6 1.46-1.7 0-1.14-.66-1.6-1.04-1.6-.53 0-.77.5-1.2 1.05-.28.37-.87 1.25-1.04 1.42-.18.17-.35.06-.52 0l.47-1.7c0 .28.3.14.43-.03.14-.17.9-1.28 1.2-1.38.27-.1.77-.17 1.14-.02.38.15 1.26.48 1.26 2.18 0 1.7-1.08 2.2-1.76 2.4-.68.18-2.33.05-2.9.64-.32.33-.27.68-.37.78-.16.17-.4.3-.63.03-.23-.27-.17-.43-.36-.33l.83-1.18z"/><path fill="url(#V)" d="M29.77 22.55c0 .62-3.32 1-7.4 1-4.1 0-7.43-.38-7.43-1 0 2.1 1.38 4.36 2.68 5.63 1.06 1.03 2 1.18 2.23 1.5.04.07.1.12.02.2-.2.15-.3.3-.3.42 0 .4 1.3.74 2.87.74 1.6 0 2.88-.33 2.88-.74 0-.2-.18-.32-.38-.43-.08-.07-.02-.12.02-.2.24-.3 1.08-.46 2.13-1.5 1.3-1.26 2.67-3.53 2.67-5.62z"/><path fill="url(#W)" d="M25 30.18c.26.23-1.15.65-2.56.65-1.4 0-2.74-.35-2.54-.65.24-.36.8.25 2.53.25 1.73 0 2.18-.58 2.56-.25z"/><path fill="url(#X)" d="M22.48 21.6c-1.95 0-3.8.1-5.22.3-2.02.3-2.14.64-2.14.65 0 0 .1.3 2.02.56 1.33.18 3.18.28 5.22.28 2.03 0 3.88-.1 5.2-.27 1.94-.24 2.03-.55 2.03-.55s-.1-.34-1.97-.63c-1.36-.2-3.2-.33-5.15-.33z"/><path fill="url(#Y)" d="M31.35 21.8c.33-.18-.47.53-.74 1.04-.2.44-.67.96-.85.88-.18-.07-.13-.3-.03-.53 0 .28.3.14.44-.03s.9-1.28 1.2-1.38z"/><path fill="url(#Z)" d="M32.52 25.34c-.23.3-1.25.58-1.73.63-.5.05-1.37.4-1.7.57-.32.18-1.1.6-1 1.26-.24-.27-.17-.43-.36-.33l.83-1.18c.42-.34 1.37-.42 1.7-.46.32-.05.88-.08 1.32-.12.33-.04.66-.16.92-.38z"/></g><path fill="#cb1009" stroke="#590b08" d="M15.5 5.3c6.3 0 12 6.56 12 6.56l4.14-1.43-3.7 7.86-9.58-3.6 4-1.4c.26-1.92-3.44-5-6.86-8z" color="#000" overflow="visible"/><path fill="#cb1009" stroke="#590b08" d="M15.5 43.43c5.66 1.67 12.54-2.72 12.54-2.72l3.35 2.4-1.27-8.05-9.56.67 3.22 2.34c-.27 1.78-4.42 3.58-8.3 5.37z" color="#000" overflow="visible"/></g></svg>