<svg xmlns="http://www.w3.org/2000/svg" width="48" height="48" xmlns:xlink="http://www.w3.org/1999/xlink"><defs><linearGradient id="o"><stop offset="0"/><stop offset="1" stop-opacity="0"/></linearGradient><linearGradient id="n"><stop offset="0" stop-color="#71746f"/><stop offset="1" stop-color="#4e524e"/></linearGradient><linearGradient id="k"><stop offset="0" stop-color="#656763"/><stop offset="1" stop-color="#434441"/></linearGradient><linearGradient id="j"><stop offset="0" stop-color="#9f9f9f"/><stop offset="1" stop-color="#303030"/></linearGradient><linearGradient id="i"><stop offset="0" stop-color="#fff"/><stop offset="1" stop-color="#d3d7cf"/></linearGradient><linearGradient id="h"><stop offset="0" stop-color="#fee7c4"/><stop offset="1" stop-color="#fcaf3e"/></linearGradient><linearGradient id="g"><stop offset="0" stop-color="#555753"/><stop offset="1" stop-color="#171816"/></linearGradient><linearGradient id="l"><stop offset="0" stop-color="#f57900"/><stop offset=".5" stop-color="#ffc743"/><stop offset="1" stop-color="#f57900"/></linearGradient><linearGradient><stop offset="0" stop-color="#757872"/><stop offset="1" stop-color="#373836"/></linearGradient><linearGradient id="a"><stop offset="0"/><stop offset="1" stop-opacity="0"/></linearGradient><linearGradient id="b"><stop offset="0" stop-color="#888a85"/><stop offset="1" stop-color="#30312f"/></linearGradient><linearGradient id="f"><stop offset="0" stop-color="#63685e"/><stop offset=".496" stop-color="#aeaeae"/><stop offset=".587" stop-color="#ffb902"/><stop offset="1" stop-color="#ffe29e"/></linearGradient><linearGradient id="d"><stop offset="0" stop-color="#babdb6"/><stop offset="1" stop-color="#4a4d46"/></linearGradient><linearGradient><stop offset="0" stop-color="#77868b"/><stop offset="1" stop-color="#2e3436"/></linearGradient><linearGradient><stop offset="0"/><stop offset="1"/></linearGradient><linearGradient><stop offset="0" stop-color="#fff"/><stop offset="1" stop-color="#d3d7cf"/></linearGradient><linearGradient id="c"><stop offset="0"/><stop offset=".29" stop-color="#535353"/><stop offset=".423" stop-color="#606060"/><stop offset="1"/></linearGradient><linearGradient id="e"><stop offset="0" stop-color="#676767"/><stop offset=".5" stop-color="#4a4d4e"/><stop offset="1" stop-color="#2e3436"/></linearGradient><linearGradient id="m"><stop offset="0" stop-color="#2e3436"/><stop offset=".25" stop-color="#6e6e6e"/><stop offset="1" stop-color="#2e3436"/></linearGradient><radialGradient id="x" cx="29.118" cy="28.049" r="9.874" xlink:href="#a" gradientUnits="userSpaceOnUse" gradientTransform="matrix(1 0 0 .486 0 14.419)" fx="29.118" fy="28.049"/><linearGradient id="y" x1="20.963" x2="34.747" y1="17.367" y2="17.367" xlink:href="#b" gradientUnits="userSpaceOnUse"/><linearGradient id="B" x1="21.213" x2="33.335" y1="16.003" y2="21.256" xlink:href="#c" gradientUnits="userSpaceOnUse"/><linearGradient id="C" x1="20.963" x2="34.747" y1="17.367" y2="17.367" xlink:href="#d" gradientUnits="userSpaceOnUse"/><radialGradient id="D" cx="26.662" cy="13.041" r="5.354" xlink:href="#e" gradientUnits="userSpaceOnUse" gradientTransform="matrix(1.197 .047 -.028 .697 -4.803 4.577)" fx="26.662" fy="13.041"/><linearGradient id="E" x1="28.177" x2="28.067" y1="14.269" y2="18.698" xlink:href="#f" gradientUnits="userSpaceOnUse"/><radialGradient id="v" cx="28.063" cy="34.743" r="3.488" xlink:href="#g" gradientUnits="userSpaceOnUse" gradientTransform="matrix(1.851 .047 -.038 1.495 -22.56 -18.711)" fx="28.063" fy="34.743"/><radialGradient id="s" cx="33.821" cy="16.786" r="11.393" xlink:href="#h" fx="33.821" fy="16.786" gradientTransform="matrix(.9 .301 -.141 .422 4.924 -1.597)" gradientUnits="userSpaceOnUse"/><radialGradient id="u" cx="28.063" cy="34.743" r="3.488" xlink:href="#g" gradientUnits="userSpaceOnUse" gradientTransform="matrix(1.851 .047 -.038 1.495 -22.56 -18.711)" fx="28.063" fy="34.743"/><radialGradient id="q" cx="19.95" cy="28.306" r="23.159" xlink:href="#i" fx="19.95" fy="28.306" gradientTransform="matrix(.618 .031 -.033 .658 8.56 7.435)" gradientUnits="userSpaceOnUse"/><linearGradient id="r" x1="15.29" x2="35.752" y1="19.251" y2="28.465" xlink:href="#j" gradientUnits="userSpaceOnUse"/><radialGradient id="w" cx="8.5" cy="29.792" r="9.286" xlink:href="#k" fx="8.5" fy="29.792" gradientTransform="matrix(1.246 .5 -.176 .439 3.156 14.848)" gradientUnits="userSpaceOnUse"/><linearGradient id="F" x1="18.642" x2="37.623" y1="23" y2="23" xlink:href="#l" gradientUnits="userSpaceOnUse" gradientTransform="matrix(.841 0 0 .841 -3.442 9.634)"/><linearGradient id="z" x1="21.617" x2="34.093" y1="21.843" y2="21.843" xlink:href="#m" gradientUnits="userSpaceOnUse" gradientTransform="matrix(1.208 0 0 1.208 -13.465 -1.605)"/><linearGradient id="A" x1="16.368" x2="34.796" y1="21.355" y2="21.355" xlink:href="#d" gradientUnits="userSpaceOnUse" gradientTransform="matrix(.841 0 0 .841 -1.319 6.831)"/><linearGradient id="t" x1="23.721" x2="42.444" y1="12.421" y2="17.825" xlink:href="#n" gradientUnits="userSpaceOnUse"/><radialGradient id="p" cx="24.976" cy="32.822" r="21.44" xlink:href="#o" fx="24.976" fy="32.822" gradientTransform="matrix(1 0 0 .519 0 15.773)" gradientUnits="userSpaceOnUse"/></defs><g><path fill="url(#p)" d="M46.42 32.82a21.44 11.14 0 1 1-42.88 0 21.44 11.14 0 1 1 42.88 0z" transform="matrix(1.122 -.255 0 .984 -3.823 5.637)" color="#000" overflow="visible" enable-background="accumulate"/><path fill="#555753" stroke="#000" d="M46.6 15.57c1.64 3.95.97 11.35-.83 12.45L24.37 41.1C13.9 40.87 5.2 38.9 1.34 31.54l-.55-2.9z"/><path fill="url(#q)" stroke="url(#r)" d="M.93 28.56L19.7 16.72l4.6-7.94c7.54-.02 14.8 2.7 21.95 6.46 0 0-2.98 6.83-5.1 9.63-2.6 3.5-17.9 13.32-17.9 13.32-12.33.8-19.2-2.9-22.32-9.64z"/><path fill="none" stroke="#a2a69d" d="M3.94 26.7c2.1-.36 3.43.24 4.7.95l5.5-3.9-.55-3.13z" color="#000" overflow="visible" enable-background="accumulate"/><path fill="url(#s)" stroke="url(#t)" d="M22.45 15.4l2.9-4.97c5.86.28 12.2 2.32 18.2 5.04l-3.17 5.8c-5.65-3.16-11.7-4.8-17.93-5.87z"/><g color="#000" stroke-linecap="round"><path fill="#2e3436" stroke="#2e3436" stroke-width=".527" d="M30.25 33.98c0 1.25-1.42 2.25-3.18 2.25-1.76 0-3.18-1-3.18-2.25 0-1.24 1.4-2.24 3.17-2.24 1.76 0 3.18 1 3.18 2.24z" transform="matrix(.945 0 0 .953 1.247 -10.008)" overflow="visible" enable-background="accumulate"/><path fill="none" stroke="#f57900" stroke-width=".639" d="M30.25 33.98c0 1.25-1.42 2.25-3.18 2.25-1.76 0-3.18-1-3.18-2.25 0-1.24 1.4-2.24 3.17-2.24 1.76 0 3.18 1 3.18 2.24z" transform="matrix(.815 0 0 .751 4.809 -3.539)" overflow="visible" enable-background="accumulate"/><path fill="url(#u)" stroke="#888a85" stroke-width=".612" d="M30.25 33.98c0 1.25-1.42 2.25-3.18 2.25-1.76 0-3.18-1-3.18-2.25 0-1.24 1.4-2.24 3.17-2.24 1.76 0 3.18 1 3.18 2.24z" transform="matrix(.815 0 0 .818 4.809 -6.487)" overflow="visible" enable-background="accumulate"/></g><g color="#000" stroke-linecap="round"><path fill="#2e3436" stroke="#2e3436" stroke-width=".527" d="M30.25 33.98c0 1.25-1.42 2.25-3.18 2.25-1.76 0-3.18-1-3.18-2.25 0-1.24 1.4-2.24 3.17-2.24 1.76 0 3.18 1 3.18 2.24z" transform="matrix(.945 0 0 .953 8.105 -6.865)" overflow="visible" enable-background="accumulate"/><path fill="none" stroke="#f57900" stroke-width=".639" d="M30.25 33.98c0 1.25-1.42 2.25-3.18 2.25-1.76 0-3.18-1-3.18-2.25 0-1.24 1.4-2.24 3.17-2.24 1.76 0 3.18 1 3.18 2.24z" transform="matrix(.815 0 0 .751 11.667 -.396)" overflow="visible" enable-background="accumulate"/><path fill="url(#v)" stroke="#888a85" stroke-width=".612" d="M30.25 33.98c0 1.25-1.42 2.25-3.18 2.25-1.76 0-3.18-1-3.18-2.25 0-1.24 1.4-2.24 3.17-2.24 1.76 0 3.18 1 3.18 2.24z" transform="matrix(.815 0 0 .818 11.667 -3.344)" overflow="visible" enable-background="accumulate"/></g><path fill="url(#w)" stroke="#2e3436" d="M1.93 30.63s7.43-.03 10.5 1.37c3.07 1.4 7.43 6.2 7.43 6.2s-6.5 1.13-11.5-1.8c-5-2.92-6.43-5.77-6.43-5.77z"/><path fill="none" stroke="#000" stroke-width="1.5" d="M39.3 21.43l-3.34-1.4" stroke-linecap="round"/><path fill="none" stroke="#000" stroke-width="1.5" d="M33.64 19.16L30.3 18.1" stroke-linecap="round"/><path fill="none" stroke="#000" stroke-width="1.5" d="M28.4 17.5l-3.15-1.02" stroke-linecap="round"/><path fill="none" stroke="#babdb6" stroke-width=".5" d="M27.32 16.8l-2.98-.97" stroke-linecap="round"/><path fill="url(#x)" d="M39 28.05a9.87 4.8 0 1 1-19.76 0 9.87 4.8 0 1 1 19.75 0z" transform="matrix(.841 0 0 .841 -2.72 6.025)" color="#000" overflow="visible" enable-background="accumulate"/><path stroke="url(#y)" stroke-width=".414" d="M34.5 17.37a6.64 2.85 0 1 1-13.3 0 6.64 2.85 0 1 1 13.3 0z" transform="matrix(1.208 0 0 1.208 -13.465 7.427)" color="#000" overflow="visible" enable-background="accumulate"/><path fill="url(#z)" stroke="url(#A)" stroke-width=".5" d="M12.65 19.1h15.08v8.56c-1.23 1.7-4.02 2.95-7.93 2.8-3.92-.15-6.4-1.55-7.15-2.8z" color="#000" overflow="visible" enable-background="accumulate"/><path fill="url(#B)" stroke="url(#C)" stroke-width=".414" d="M34.5 17.37a6.64 2.85 0 1 1-13.3 0 6.64 2.85 0 1 1 13.3 0z" transform="matrix(1.208 0 0 1.208 -13.465 -1.605)" color="#000" overflow="visible" enable-background="accumulate"/><path fill="url(#D)" stroke="url(#E)" stroke-width=".828" d="M33.34 16.48a5.35 2.12 0 1 1-10.7 0 5.35 2.12 0 1 1 10.7 0z" transform="matrix(1.208 0 0 1.208 -13.465 -1.971)" color="#000" overflow="visible" enable-background="accumulate"/><path fill="none" stroke="url(#F)" d="M12.65 27.4c1.2 2.2 4.84 3.08 7.48 3.1 2.4.02 6.04-.75 7.64-3.1" stroke-linecap="round"/><path fill="none" stroke="#babdb6" stroke-width=".5" d="M38.8 20.78l-3.04-1.17" stroke-linecap="round"/><path fill="none" stroke="#babdb6" stroke-width=".5" d="M33.08 18.7l-2.98-.95" stroke-linecap="round"/><path fill="none" stroke="#eeeeec" stroke-width=".5" d="M23.5 14.84l2.33-3.73c4.68.23 11.98 2.6 16.77 4.75l-2.54 4.4c-4.5-2.5-11.58-4.55-16.55-5.4z"/><path fill="none" stroke="#888a85" d="M25.15 37.04c-.64-1.08-2.05-2.4-3.68-2.88 4.35-1.55 7.66-3.1 9.14-5.9 1.25.6 2.94.7 3.8 2.3z"/></g></svg>