<svg xmlns="http://www.w3.org/2000/svg" width="48" height="48"><g><path fill="none" stroke="#000" stroke-opacity=".251" stroke-width="3" d="M23.68 23.56L17.33 41.9" stroke-linecap="round"/><path fill="none" stroke="#000" stroke-opacity=".251" stroke-width="3" d="M22.1 15.24L4.95 25.34" stroke-linecap="round"/><path fill="#fce94f" stroke="#000" stroke-opacity=".251" stroke-width="3" d="M22.16 5.08L3.1 1.98" stroke-linecap="round"/><g><path fill="#709ec3" stroke="#224b87" stroke-width="1.00062" d="M9.9 28.83l-4.48-2L6.5 31.5l11.23 11.38z"/><path fill="#fff" d="M9.9 28.83l7.83 14.05-9.67-12.6z"/><path fill="#8ae234" d="M8.06 30.28l-2.64-3.46 4.5 2z"/><path fill="#4e9a06" d="M8.06 30.28L6.5 31.5l-1.08-4.68z"/><path fill="#73d216" d="M17.73 42.88l-9.67-12.6L6.5 31.5z"/></g><g><path fill="#709ec3" stroke="#224b87" stroke-width="1.00062" d="M2.6.25L5.4 4.2l-.97 20.55L.23 4.92z"/><path fill="#fff" d="M.23 4.92l2.68-.37 1.53 20.2L.23 4.92z"/><path fill="#fce94f" d="M2.9 4.55L2.6.25.24 4.92l2.68-.37z"/><path fill="#edd400" d="M5.4 4.2l-2.5.35 1.53 20.2L5.4 4.2z"/><path fill="#c4a000" d="M2.6.25L5.4 4.2l-2.5.35-.3-4.3z"/></g><g><path fill="#709ec3" stroke="#224b87" stroke-width="1.00062" d="M37.26 48.3l-14.7-6.5-4.8 1.12L21.43 46l15.82 2.3z"/><path fill="#fff" d="M22.55 41.8l14.7 6.5-15.3-4.22.6-2.27z"/><path fill="#a0c6de" d="M21.95 44.08l-4.2-1.16 4.8-1.1-.6 2.26z"/><path fill="#6b8599" d="M21.95 44.08l-.5 1.92-3.7-3.08 4.2 1.16z"/><path fill="#a0c6de" d="M37.26 48.3l-15.3-4.22-.52 1.92 15.82 2.3z"/></g><g color="#000"><path fill="#fff" fill-opacity=".502" fill-rule="evenodd" d="M-7.42 10.92c-.8 5.58-7.35 8.2-11.8 4.7-2.05-1.6-3.08-4.2-2.7-6.8.8-5.58 7.35-8.2 11.78-4.7 2.06 1.6 3.1 4.2 2.72 6.8z" overflow="visible" enable-background="accumulate"/><path fill="none" stroke="#8ae234" stroke-width=".97.006" d="M-8.87 10.7c-.65 4.47-5.88 6.56-9.43 3.78-1.64-1.3-2.47-3.37-2.17-5.45.64-4.46 5.88-6.55 9.42-3.76 1.65 1.3 2.48 3.37 2.18 5.44z" overflow="visible" enable-background="accumulate"/><path fill="none" stroke="#ef2929" stroke-width="1.606" d="M31.68 11.14a6.06 6.06 0 1 1-12.12 0 6.06 6.06 0 1 1 12.12 0z" transform="matrix(.349 .15 -.381 .888 -19.362 -3.853)" overflow="visible" enable-background="accumulate"/><path fill="none" stroke="#3465a4" stroke-width="1.606" d="M31.68 11.14a6.06 6.06 0 1 1-12.12 0 6.06 6.06 0 1 1 12.12 0z" transform="matrix(.15 -.349 -.888 -.381 -8.61 23.045)" overflow="visible" enable-background="accumulate"/></g><path fill-rule="evenodd" d="M22.16 0h25.97v9.65H22.16z" color="#000" overflow="visible" enable-background="accumulate"/><path fill-rule="evenodd" d="M22.16 10.92h25.97v9.65H22.16z" color="#000" overflow="visible" enable-background="accumulate"/><path fill-rule="evenodd" d="M22.16 21.9h25.97v9.66H22.16z" color="#000" overflow="visible" enable-background="accumulate"/><path fill="none" stroke="#fce94f" d="M22.22 5.4l1.53-3.88 3.42 6.3 3.3-7.06 3.94 8.13 4.08-5.8 3.5 4.9 3.6-6.48 2.67 3.75" stroke-linejoin="bevel"/><path fill="none" stroke="#8ae234" d="M22.22 15.37l1.53 3.87 3.42-6.3 3.3 7.06 3.94-8.13 4.08 5.78 3.5-4.9 3.6 6.5 2.67-3.76" stroke-linejoin="bevel"/><path fill="none" stroke="#729fcf" d="M22.16 27.24l1.52-3.87 3.43 6.28 3.3-3.62 3.95 4.7 4.06-2.86 3.5 1.97 3.62-6.47 2.67 3.74" stroke-linejoin="bevel"/><path fill="#fce94f" stroke="#fce94f" d="M22.35 5.14L3.17 2.04"/><path fill="none" stroke="#8ae234" d="M22.1 15.37L4.76 25.65"/><path fill="none" stroke="#729fcf" d="M22.3 26.86L17.45 41.9"/></g></svg>