<svg xmlns="http://www.w3.org/2000/svg" width="46.482" height="46.083" xmlns:xlink="http://www.w3.org/1999/xlink" overflow="visible"><defs><linearGradient x1="-214.199" x2="-217.639" y1="206.071" y2="198.426" gradientTransform="matrix(.937 .35 .35 -.937 135.92 307.341)" gradientUnits="userSpaceOnUse"><stop offset="0" stop-color="#6F87A0"/><stop offset="1" stop-color="#fff"/></linearGradient><linearGradient id="b" x1="-200.626" x2="-205.62" y1="204.752" y2="193.655" gradientTransform="matrix(.937 .35 .35 -.937 135.92 307.341)" gradientUnits="userSpaceOnUse"><stop offset="0" stop-color="#6F87A0"/><stop offset="1" stop-color="#fff" stop-opacity="0"/></linearGradient><linearGradient x1="-220.665" x2="-225.315" y1="216.466" y2="206.133" gradientTransform="matrix(.937 .35 .35 -.937 135.92 307.341)" gradientUnits="userSpaceOnUse"><stop offset="0" stop-color="#6F87A0"/><stop offset="1" stop-color="#fff"/></linearGradient><linearGradient id="a" x1="-200.051" x2="-205.697" y1="205.697" y2="193.152" gradientUnits="userSpaceOnUse" gradientTransform="matrix(.937 .35 .35 -.937 135.921 307.341)"><stop offset="0" stop-color="#88A9C3"/><stop offset="1" stop-color="#fff" stop-opacity="0"/></linearGradient><radialGradient id="c" cx="80.432" cy="115.436" r="3.168" fx="80.432" fy="115.436" gradientTransform="matrix(0 -1 1 0 -101.929 112.774)" gradientUnits="userSpaceOnUse"><stop offset="0" stop-color="#fff"/><stop offset=".09" stop-color="#DBE8F2"/><stop offset=".248" stop-color="#A2C3DE"/><stop offset=".395" stop-color="#75A6CD"/><stop offset=".525" stop-color="#5591C2"/><stop offset=".634" stop-color="#4185BB"/><stop offset=".708" stop-color="#3A80B8"/><stop offset="1" stop-color="#244A87"/></radialGradient><radialGradient cx="-35.105" cy="114.564" r="6.077" gradientUnits="userSpaceOnUse" gradientTransform="matrix(.707 .707 .707 -.707 -37.876 150.148)" fy="114.564" fx="-35.105"><stop offset="0" stop-color="#fff"/><stop offset=".685" stop-color="#2E659E"/><stop offset="1" stop-color="#1D3E63"/></radialGradient><linearGradient id="l" x1="-200.051" x2="-205.697" y1="205.697" y2="193.152" xlink:href="#a" gradientUnits="userSpaceOnUse" gradientTransform="matrix(.937 .35 .35 -.937 135.921 307.341)"/><linearGradient id="m" x1="-200.626" x2="-205.62" y1="204.752" y2="193.655" xlink:href="#b" gradientUnits="userSpaceOnUse" gradientTransform="matrix(.937 .35 .35 -.937 135.92 307.341)"/><radialGradient id="n" cx="80.432" cy="115.436" r="3.168" xlink:href="#c" gradientUnits="userSpaceOnUse" gradientTransform="matrix(0 -1 1 0 -101.929 112.774)" fx="80.432" fy="115.436"/><linearGradient id="o" x1="13.978" x2="14.573" y1="30.397" y2="36.267" xlink:href="#c" gradientUnits="userSpaceOnUse"/><linearGradient id="p" x1="-200.051" x2="-205.697" y1="205.697" y2="193.152" xlink:href="#a" gradientUnits="userSpaceOnUse" gradientTransform="matrix(.937 .35 .35 -.937 135.921 307.341)"/><linearGradient id="q" x1="-200.626" x2="-205.62" y1="204.752" y2="193.655" xlink:href="#b" gradientUnits="userSpaceOnUse" gradientTransform="matrix(.937 .35 .35 -.937 135.92 307.341)"/><radialGradient id="r" cx="80.432" cy="115.436" r="3.168" xlink:href="#c" gradientUnits="userSpaceOnUse" gradientTransform="matrix(0 -1 1 0 -101.929 112.774)" fx="80.432" fy="115.436"/><linearGradient id="s" x1="13.978" x2="14.573" y1="30.397" y2="36.267" xlink:href="#c" gradientUnits="userSpaceOnUse"/><linearGradient id="t" x1="-200.051" x2="-205.697" y1="205.697" y2="193.152" xlink:href="#a" gradientUnits="userSpaceOnUse" gradientTransform="matrix(.937 .35 .35 -.937 135.921 307.341)"/><linearGradient id="u" x1="-200.626" x2="-205.62" y1="204.752" y2="193.655" xlink:href="#b" gradientUnits="userSpaceOnUse" gradientTransform="matrix(.937 .35 .35 -.937 135.92 307.341)"/><radialGradient id="v" cx="80.432" cy="115.436" r="3.168" xlink:href="#c" gradientUnits="userSpaceOnUse" gradientTransform="matrix(0 -1 1 0 -101.929 112.774)" fx="80.432" fy="115.436"/><linearGradient id="w" x1="13.978" x2="14.573" y1="30.397" y2="36.267" xlink:href="#c" gradientUnits="userSpaceOnUse"/><linearGradient id="x" x1="-200.051" x2="-205.697" y1="205.697" y2="193.152" xlink:href="#a" gradientUnits="userSpaceOnUse" gradientTransform="matrix(.937 .35 .35 -.937 135.921 307.341)"/><linearGradient id="y" x1="-200.626" x2="-205.62" y1="204.752" y2="193.655" xlink:href="#b" gradientUnits="userSpaceOnUse" gradientTransform="matrix(.937 .35 .35 -.937 135.92 307.341)"/><radialGradient id="z" cx="80.432" cy="115.436" r="3.168" xlink:href="#c" gradientUnits="userSpaceOnUse" gradientTransform="matrix(0 -1 1 0 -101.929 112.774)" fx="80.432" fy="115.436"/><linearGradient id="A" x1="13.978" x2="14.573" y1="30.397" y2="36.267" xlink:href="#c" gradientUnits="userSpaceOnUse"/><linearGradient id="B" x1="-200.051" x2="-205.697" y1="205.697" y2="193.152" xlink:href="#a" gradientUnits="userSpaceOnUse" gradientTransform="matrix(.937 .35 .35 -.937 135.921 307.341)"/><linearGradient id="C" x1="-200.626" x2="-205.62" y1="204.752" y2="193.655" xlink:href="#b" gradientUnits="userSpaceOnUse" gradientTransform="matrix(.937 .35 .35 -.937 135.92 307.341)"/><radialGradient id="D" cx="80.432" cy="115.436" r="3.168" xlink:href="#c" gradientUnits="userSpaceOnUse" gradientTransform="matrix(0 -1 1 0 -101.929 112.774)" fx="80.432" fy="115.436"/><linearGradient id="E" x1="13.978" x2="14.573" y1="30.397" y2="36.267" xlink:href="#c" gradientUnits="userSpaceOnUse"/><linearGradient id="F" x1="-200.051" x2="-205.697" y1="205.697" y2="193.152" xlink:href="#a" gradientUnits="userSpaceOnUse" gradientTransform="matrix(.937 .35 .35 -.937 135.921 307.341)"/><linearGradient id="G" x1="-200.626" x2="-205.62" y1="204.752" y2="193.655" xlink:href="#b" gradientUnits="userSpaceOnUse" gradientTransform="matrix(.937 .35 .35 -.937 135.92 307.341)"/><radialGradient id="H" cx="80.432" cy="115.436" r="3.168" xlink:href="#c" gradientUnits="userSpaceOnUse" gradientTransform="matrix(0 -1 1 0 -101.929 112.774)" fx="80.432" fy="115.436"/><linearGradient id="I" x1="13.978" x2="14.573" y1="30.397" y2="36.267" xlink:href="#c" gradientUnits="userSpaceOnUse"/><linearGradient id="J" x1="-200.051" x2="-205.697" y1="205.697" y2="193.152" xlink:href="#a" gradientUnits="userSpaceOnUse" gradientTransform="matrix(.937 .35 .35 -.937 135.921 307.341)"/><linearGradient id="K" x1="-200.626" x2="-205.62" y1="204.752" y2="193.655" xlink:href="#b" gradientUnits="userSpaceOnUse" gradientTransform="matrix(.937 .35 .35 -.937 135.92 307.341)"/><radialGradient id="L" cx="80.432" cy="115.436" r="3.168" xlink:href="#c" gradientUnits="userSpaceOnUse" gradientTransform="matrix(0 -1 1 0 -101.929 112.774)" fx="80.432" fy="115.436"/><linearGradient id="M" x1="13.978" x2="14.573" y1="30.397" y2="36.267" xlink:href="#c" gradientUnits="userSpaceOnUse"/><linearGradient id="N" x1="-200.051" x2="-205.697" y1="205.697" y2="193.152" xlink:href="#a" gradientUnits="userSpaceOnUse" gradientTransform="matrix(.937 .35 .35 -.937 135.921 307.341)"/><linearGradient id="O" x1="-200.626" x2="-205.62" y1="204.752" y2="193.655" xlink:href="#b" gradientUnits="userSpaceOnUse" gradientTransform="matrix(.937 .35 .35 -.937 135.92 307.341)"/><radialGradient id="P" cx="80.432" cy="115.436" r="3.168" xlink:href="#c" gradientUnits="userSpaceOnUse" gradientTransform="matrix(0 -1 1 0 -101.929 112.774)" fx="80.432" fy="115.436"/><linearGradient id="Q" x1="13.978" x2="14.573" y1="30.397" y2="36.267" xlink:href="#c" gradientUnits="userSpaceOnUse"/><linearGradient id="R" x1="-200.051" x2="-205.697" y1="205.697" y2="193.152" xlink:href="#a" gradientUnits="userSpaceOnUse" gradientTransform="matrix(.937 .35 .35 -.937 135.921 307.341)"/><linearGradient id="S" x1="-200.626" x2="-205.62" y1="204.752" y2="193.655" xlink:href="#b" gradientUnits="userSpaceOnUse" gradientTransform="matrix(.937 .35 .35 -.937 135.92 307.341)"/><radialGradient id="T" cx="80.432" cy="115.436" r="3.168" xlink:href="#c" gradientUnits="userSpaceOnUse" gradientTransform="matrix(0 -1 1 0 -101.929 112.774)" fx="80.432" fy="115.436"/><linearGradient id="U" x1="13.978" x2="14.573" y1="30.397" y2="36.267" xlink:href="#c" gradientUnits="userSpaceOnUse"/><linearGradient id="V" x1="-200.051" x2="-205.697" y1="205.697" y2="193.152" xlink:href="#a" gradientUnits="userSpaceOnUse" gradientTransform="matrix(.937 .35 .35 -.937 135.921 307.341)"/><linearGradient id="W" x1="-200.626" x2="-205.62" y1="204.752" y2="193.655" xlink:href="#b" gradientUnits="userSpaceOnUse" gradientTransform="matrix(.937 .35 .35 -.937 135.92 307.341)"/><radialGradient id="X" cx="80.432" cy="115.436" r="3.168" xlink:href="#c" gradientUnits="userSpaceOnUse" gradientTransform="matrix(0 -1 1 0 -101.929 112.774)" fx="80.432" fy="115.436"/><linearGradient id="Y" x1="13.978" x2="14.573" y1="30.397" y2="36.267" xlink:href="#c" gradientUnits="userSpaceOnUse"/><linearGradient id="Z" x1="-200.051" x2="-205.697" y1="205.697" y2="193.152" xlink:href="#a" gradientUnits="userSpaceOnUse" gradientTransform="matrix(.937 .35 .35 -.937 135.921 307.341)"/><linearGradient id="aa" x1="-200.626" x2="-205.62" y1="204.752" y2="193.655" xlink:href="#b" gradientUnits="userSpaceOnUse" gradientTransform="matrix(.937 .35 .35 -.937 135.92 307.341)"/><radialGradient id="ab" cx="80.432" cy="115.436" r="3.168" xlink:href="#c" gradientUnits="userSpaceOnUse" gradientTransform="matrix(0 -1 1 0 -101.929 112.774)" fx="80.432" fy="115.436"/><linearGradient id="ac" x1="13.978" x2="14.573" y1="30.397" y2="36.267" xlink:href="#c" gradientUnits="userSpaceOnUse"/><linearGradient id="ad" x1="-200.051" x2="-205.697" y1="205.697" y2="193.152" xlink:href="#a" gradientUnits="userSpaceOnUse" gradientTransform="matrix(.937 .35 .35 -.937 135.921 307.341)"/><linearGradient id="ae" x1="-200.626" x2="-205.62" y1="204.752" y2="193.655" xlink:href="#b" gradientUnits="userSpaceOnUse" gradientTransform="matrix(.937 .35 .35 -.937 135.92 307.341)"/><radialGradient id="af" cx="80.432" cy="115.436" r="3.168" xlink:href="#c" gradientUnits="userSpaceOnUse" gradientTransform="matrix(0 -1 1 0 -101.929 112.774)" fx="80.432" fy="115.436"/><linearGradient id="ag" x1="13.978" x2="14.573" y1="30.397" y2="36.267" xlink:href="#c" gradientUnits="userSpaceOnUse"/><linearGradient id="h" x1="-200.051" x2="-205.697" y1="205.697" y2="193.152" xlink:href="#a" gradientUnits="userSpaceOnUse" gradientTransform="matrix(.937 .35 .35 -.937 135.921 307.341)"/><linearGradient id="i" x1="-200.626" x2="-205.62" y1="204.752" y2="193.655" xlink:href="#b" gradientUnits="userSpaceOnUse" gradientTransform="matrix(.937 .35 .35 -.937 135.92 307.341)"/><radialGradient id="j" cx="80.432" cy="115.436" r="3.168" xlink:href="#c" gradientUnits="userSpaceOnUse" gradientTransform="matrix(0 -1 1 0 -101.929 112.774)" fx="80.432" fy="115.436"/><linearGradient id="k" x1="13.978" x2="14.573" y1="30.397" y2="36.267" xlink:href="#c" gradientUnits="userSpaceOnUse"/><linearGradient id="d" x1="-200.051" x2="-205.697" y1="205.697" y2="193.152" xlink:href="#a" gradientUnits="userSpaceOnUse" gradientTransform="matrix(.937 .35 .35 -.937 135.921 307.341)"/><linearGradient id="e" x1="-200.626" x2="-205.62" y1="204.752" y2="193.655" xlink:href="#b" gradientUnits="userSpaceOnUse" gradientTransform="matrix(.937 .35 .35 -.937 135.92 307.341)"/><radialGradient id="f" cx="80.432" cy="115.436" r="3.168" xlink:href="#c" gradientUnits="userSpaceOnUse" gradientTransform="matrix(0 -1 1 0 -101.929 112.774)" fx="80.432" fy="115.436"/><linearGradient id="g" x1="13.978" x2="14.573" y1="30.397" y2="36.267" xlink:href="#c" gradientUnits="userSpaceOnUse"/></defs><g transform="matrix(.997 -.076 .076 .997 3.396 -33.395)"><path fill="url(#d)" d="M13.78 54.52l9.02-7.76-4.36-4.36-9.58 10.28 4.92 1.84zm-3.74-1.4c.76-.76 7.6-8.57 8.3-9.27.6.57 2.13 2.25 2.8 2.88-.82.7-7.95 6.77-8.58 7.33l-2.52-.93z"/><path fill="url(#e)" d="M12.56 54.06c.63-.56 7.76-6.62 8.57-7.33-.66-.63-2.2-2.3-2.8-2.88-.68.7-7.53 8.5-8.28 9.27l2.5.94z"/><circle cx="14.083" cy="33.366" r="2.347" fill="none" stroke="#152a4c" stroke-width="1.5" transform="matrix(.707 -.707 .707 .707 -12.942 30.932)"/><circle cx="14.083" cy="33.366" r="2.347" fill="url(#f)" transform="matrix(.707 -.707 .707 .707 -12.942 30.932)"/><circle cx="14.083" cy="33.366" r="2.347" fill="none" stroke="url(#g)" stroke-width="1.232" transform="matrix(.574 -.574 .574 .574 -6.614 33.496)"/></g><g transform="matrix(.997 -.076 .076 .997 15.786 -29.299)"><path fill="url(#h)" d="M13.78 54.52l9.02-7.76-4.36-4.36-9.58 10.28 4.92 1.84zm-3.74-1.4c.76-.76 7.6-8.57 8.3-9.27.6.57 2.13 2.25 2.8 2.88-.82.7-7.95 6.77-8.58 7.33l-2.52-.93z"/><path fill="url(#i)" d="M12.56 54.06c.63-.56 7.76-6.62 8.57-7.33-.66-.63-2.2-2.3-2.8-2.88-.68.7-7.53 8.5-8.28 9.27l2.5.94z"/><circle cx="14.083" cy="33.366" r="2.347" fill="none" stroke="#152a4c" stroke-width="1.5" transform="matrix(.707 -.707 .707 .707 -12.942 30.932)"/><circle cx="14.083" cy="33.366" r="2.347" fill="url(#j)" transform="matrix(.707 -.707 .707 .707 -12.942 30.932)"/><circle cx="14.083" cy="33.366" r="2.347" fill="none" stroke="url(#k)" stroke-width="1.232" transform="matrix(.574 -.574 .574 .574 -6.614 33.496)"/></g><g transform="matrix(.997 -.076 .076 .997 -15.748 -4.266)"><path fill="url(#l)" d="M13.78 54.52l9.02-7.76-4.36-4.36-9.58 10.28 4.92 1.84zm-3.74-1.4c.76-.76 7.6-8.57 8.3-9.27.6.57 2.13 2.25 2.8 2.88-.82.7-7.95 6.77-8.58 7.33l-2.52-.93z"/><path fill="url(#m)" d="M12.56 54.06c.63-.56 7.76-6.62 8.57-7.33-.66-.63-2.2-2.3-2.8-2.88-.68.7-7.53 8.5-8.28 9.27l2.5.94z"/><circle cx="14.083" cy="33.366" r="2.347" fill="none" stroke="#152a4c" stroke-width="1.5" transform="matrix(.707 -.707 .707 .707 -12.942 30.932)"/><circle cx="14.083" cy="33.366" r="2.347" fill="url(#n)" transform="matrix(.707 -.707 .707 .707 -12.942 30.932)"/><circle cx="14.083" cy="33.366" r="2.347" fill="none" stroke="url(#o)" stroke-width="1.232" transform="matrix(.574 -.574 .574 .574 -6.614 33.496)"/></g><g transform="matrix(.997 -.076 .076 .997 -4.993 -8.972)"><path fill="url(#p)" d="M13.78 54.52l9.02-7.76-4.36-4.36-9.58 10.28 4.92 1.84zm-3.74-1.4c.76-.76 7.6-8.57 8.3-9.27.6.57 2.13 2.25 2.8 2.88-.82.7-7.95 6.77-8.58 7.33l-2.52-.93z"/><path fill="url(#q)" d="M12.56 54.06c.63-.56 7.76-6.62 8.57-7.33-.66-.63-2.2-2.3-2.8-2.88-.68.7-7.53 8.5-8.28 9.27l2.5.94z"/><circle cx="14.083" cy="33.366" r="2.347" fill="none" stroke="#152a4c" stroke-width="1.5" transform="matrix(.707 -.707 .707 .707 -12.942 30.932)"/><circle cx="14.083" cy="33.366" r="2.347" fill="url(#r)" transform="matrix(.707 -.707 .707 .707 -12.942 30.932)"/><circle cx="14.083" cy="33.366" r="2.347" fill="none" stroke="url(#s)" stroke-width="1.232" transform="matrix(.574 -.574 .574 .574 -6.614 33.496)"/></g><g transform="matrix(.997 -.076 .076 .997 -11.622 -14.544)"><path fill="url(#t)" d="M13.78 54.52l9.02-7.76-4.36-4.36-9.58 10.28 4.92 1.84zm-3.74-1.4c.76-.76 7.6-8.57 8.3-9.27.6.57 2.13 2.25 2.8 2.88-.82.7-7.95 6.77-8.58 7.33l-2.52-.93z"/><path fill="url(#u)" d="M12.56 54.06c.63-.56 7.76-6.62 8.57-7.33-.66-.63-2.2-2.3-2.8-2.88-.68.7-7.53 8.5-8.28 9.27l2.5.94z"/><circle cx="14.083" cy="33.366" r="2.347" fill="none" stroke="#152a4c" stroke-width="1.5" transform="matrix(.707 -.707 .707 .707 -12.942 30.932)"/><circle cx="14.083" cy="33.366" r="2.347" fill="url(#v)" transform="matrix(.707 -.707 .707 .707 -12.942 30.932)"/><circle cx="14.083" cy="33.366" r="2.347" fill="none" stroke="url(#w)" stroke-width="1.232" transform="matrix(.574 -.574 .574 .574 -6.614 33.496)"/></g><g transform="matrix(.997 -.076 .076 .997 -2.456 -19.069)"><path fill="url(#x)" d="M13.78 54.52l9.02-7.76-4.36-4.36-9.58 10.28 4.92 1.84zm-3.74-1.4c.76-.76 7.6-8.57 8.3-9.27.6.57 2.13 2.25 2.8 2.88-.82.7-7.95 6.77-8.58 7.33l-2.52-.93z"/><path fill="url(#y)" d="M12.56 54.06c.63-.56 7.76-6.62 8.57-7.33-.66-.63-2.2-2.3-2.8-2.88-.68.7-7.53 8.5-8.28 9.27l2.5.94z"/><circle cx="14.083" cy="33.366" r="2.347" fill="none" stroke="#152a4c" stroke-width="1.5" transform="matrix(.707 -.707 .707 .707 -12.942 30.932)"/><circle cx="14.083" cy="33.366" r="2.347" fill="url(#z)" transform="matrix(.707 -.707 .707 .707 -12.942 30.932)"/><circle cx="14.083" cy="33.366" r="2.347" fill="none" stroke="url(#A)" stroke-width="1.232" transform="matrix(.574 -.574 .574 .574 -6.614 33.496)"/></g><g transform="matrix(.997 -.076 .076 .997 -7.164 -27.164)"><path fill="url(#B)" d="M13.78 54.52l9.02-7.76-4.36-4.36-9.58 10.28 4.92 1.84zm-3.74-1.4c.76-.76 7.6-8.57 8.3-9.27.6.57 2.13 2.25 2.8 2.88-.82.7-7.95 6.77-8.58 7.33l-2.52-.93z"/><path fill="url(#C)" d="M12.56 54.06c.63-.56 7.76-6.62 8.57-7.33-.66-.63-2.2-2.3-2.8-2.88-.68.7-7.53 8.5-8.28 9.27l2.5.94z"/><circle cx="14.083" cy="33.366" r="2.347" fill="none" stroke="#152a4c" stroke-width="1.5" transform="matrix(.707 -.707 .707 .707 -12.942 30.932)"/><circle cx="14.083" cy="33.366" r="2.347" fill="url(#D)" transform="matrix(.707 -.707 .707 .707 -12.942 30.932)"/><circle cx="14.083" cy="33.366" r="2.347" fill="none" stroke="url(#E)" stroke-width="1.232" transform="matrix(.574 -.574 .574 .574 -6.614 33.496)"/></g><g transform="matrix(.997 -.076 .076 .997 7.247 -16.502)"><path fill="url(#F)" d="M13.78 54.52l9.02-7.76-4.36-4.36-9.58 10.28 4.92 1.84zm-3.74-1.4c.76-.76 7.6-8.57 8.3-9.27.6.57 2.13 2.25 2.8 2.88-.82.7-7.95 6.77-8.58 7.33l-2.52-.93z"/><path fill="url(#G)" d="M12.56 54.06c.63-.56 7.76-6.62 8.57-7.33-.66-.63-2.2-2.3-2.8-2.88-.68.7-7.53 8.5-8.28 9.27l2.5.94z"/><circle cx="14.083" cy="33.366" r="2.347" fill="none" stroke="#152a4c" stroke-width="1.5" transform="matrix(.707 -.707 .707 .707 -12.942 30.932)"/><circle cx="14.083" cy="33.366" r="2.347" fill="url(#H)" transform="matrix(.707 -.707 .707 .707 -12.942 30.932)"/><circle cx="14.083" cy="33.366" r="2.347" fill="none" stroke="url(#I)" stroke-width="1.232" transform="matrix(.574 -.574 .574 .574 -6.614 33.496)"/></g><g transform="matrix(.997 -.076 .076 .997 10.852 -24.699)"><path fill="url(#J)" d="M13.78 54.52l9.02-7.76-4.36-4.36-9.58 10.28 4.92 1.84zm-3.74-1.4c.76-.76 7.6-8.57 8.3-9.27.6.57 2.13 2.25 2.8 2.88-.82.7-7.95 6.77-8.58 7.33l-2.52-.93z"/><path fill="url(#K)" d="M12.56 54.06c.63-.56 7.76-6.62 8.57-7.33-.66-.63-2.2-2.3-2.8-2.88-.68.7-7.53 8.5-8.28 9.27l2.5.94z"/><circle cx="14.083" cy="33.366" r="2.347" fill="none" stroke="#152a4c" stroke-width="1.5" transform="matrix(.707 -.707 .707 .707 -12.942 30.932)"/><circle cx="14.083" cy="33.366" r="2.347" fill="url(#L)" transform="matrix(.707 -.707 .707 .707 -12.942 30.932)"/><circle cx="14.083" cy="33.366" r="2.347" fill="none" stroke="url(#M)" stroke-width="1.232" transform="matrix(.574 -.574 .574 .574 -6.614 33.496)"/></g><g transform="matrix(.997 -.076 .076 .997 2.219 -27.083)"><path fill="url(#N)" d="M13.78 54.52l9.02-7.76-4.36-4.36-9.58 10.28 4.92 1.84zm-3.74-1.4c.76-.76 7.6-8.57 8.3-9.27.6.57 2.13 2.25 2.8 2.88-.82.7-7.95 6.77-8.58 7.33l-2.52-.93z"/><path fill="url(#O)" d="M12.56 54.06c.63-.56 7.76-6.62 8.57-7.33-.66-.63-2.2-2.3-2.8-2.88-.68.7-7.53 8.5-8.28 9.27l2.5.94z"/><circle cx="14.083" cy="33.366" r="2.347" fill="none" stroke="#152a4c" stroke-width="1.5" transform="matrix(.707 -.707 .707 .707 -12.942 30.932)"/><circle cx="14.083" cy="33.366" r="2.347" fill="url(#P)" transform="matrix(.707 -.707 .707 .707 -12.942 30.932)"/><circle cx="14.083" cy="33.366" r="2.347" fill="none" stroke="url(#Q)" stroke-width="1.232" transform="matrix(.574 -.574 .574 .574 -6.614 33.496)"/></g><g transform="matrix(.997 -.076 .076 .997 3.214 -39.981)"><path fill="url(#R)" d="M13.78 54.52l9.02-7.76-4.36-4.36-9.58 10.28 4.92 1.84zm-3.74-1.4c.76-.76 7.6-8.57 8.3-9.27.6.57 2.13 2.25 2.8 2.88-.82.7-7.95 6.77-8.58 7.33l-2.52-.93z"/><path fill="url(#S)" d="M12.56 54.06c.63-.56 7.76-6.62 8.57-7.33-.66-.63-2.2-2.3-2.8-2.88-.68.7-7.53 8.5-8.28 9.27l2.5.94z"/><circle cx="14.083" cy="33.366" r="2.347" fill="none" stroke="#152a4c" stroke-width="1.5" transform="matrix(.707 -.707 .707 .707 -12.942 30.932)"/><circle cx="14.083" cy="33.366" r="2.347" fill="url(#T)" transform="matrix(.707 -.707 .707 .707 -12.942 30.932)"/><circle cx="14.083" cy="33.366" r="2.347" fill="none" stroke="url(#U)" stroke-width="1.232" transform="matrix(.574 -.574 .574 .574 -6.614 33.496)"/></g><g transform="matrix(.997 -.076 .076 .997 16.199 -38.805)"><path fill="url(#V)" d="M13.78 54.52l9.02-7.76-4.36-4.36-9.58 10.28 4.92 1.84zm-3.74-1.4c.76-.76 7.6-8.57 8.3-9.27.6.57 2.13 2.25 2.8 2.88-.82.7-7.95 6.77-8.58 7.33l-2.52-.93z"/><path fill="url(#W)" d="M12.56 54.06c.63-.56 7.76-6.62 8.57-7.33-.66-.63-2.2-2.3-2.8-2.88-.68.7-7.53 8.5-8.28 9.27l2.5.94z"/><circle cx="14.083" cy="33.366" r="2.347" fill="none" stroke="#152a4c" stroke-width="1.5" transform="matrix(.707 -.707 .707 .707 -12.942 30.932)"/><circle cx="14.083" cy="33.366" r="2.347" fill="url(#X)" transform="matrix(.707 -.707 .707 .707 -12.942 30.932)"/><circle cx="14.083" cy="33.366" r="2.347" fill="none" stroke="url(#Y)" stroke-width="1.232" transform="matrix(.574 -.574 .574 .574 -6.614 33.496)"/></g><g transform="matrix(.997 -.076 .076 .997 16.824 -19.077)"><path fill="url(#Z)" d="M13.78 54.52l9.02-7.76-4.36-4.36-9.58 10.28 4.92 1.84zm-3.74-1.4c.76-.76 7.6-8.57 8.3-9.27.6.57 2.13 2.25 2.8 2.88-.82.7-7.95 6.77-8.58 7.33l-2.52-.93z"/><path fill="url(#aa)" d="M12.56 54.06c.63-.56 7.76-6.62 8.57-7.33-.66-.63-2.2-2.3-2.8-2.88-.68.7-7.53 8.5-8.28 9.27l2.5.94z"/><circle cx="14.083" cy="33.366" r="2.347" fill="none" stroke="#152a4c" stroke-width="1.5" transform="matrix(.707 -.707 .707 .707 -12.942 30.932)"/><circle cx="14.083" cy="33.366" r="2.347" fill="url(#ab)" transform="matrix(.707 -.707 .707 .707 -12.942 30.932)"/><circle cx="14.083" cy="33.366" r="2.347" fill="none" stroke="url(#ac)" stroke-width="1.232" transform="matrix(.574 -.574 .574 .574 -6.614 33.496)"/></g><g transform="matrix(.997 -.076 .076 .997 -6.536 -36.045)"><path fill="url(#ad)" d="M13.78 54.52l9.02-7.76-4.36-4.36-9.58 10.28 4.92 1.84zm-3.74-1.4c.76-.76 7.6-8.57 8.3-9.27.6.57 2.13 2.25 2.8 2.88-.82.7-7.95 6.77-8.58 7.33l-2.52-.93z"/><path fill="url(#ae)" d="M12.56 54.06c.63-.56 7.76-6.62 8.57-7.33-.66-.63-2.2-2.3-2.8-2.88-.68.7-7.53 8.5-8.28 9.27l2.5.94z"/><circle cx="14.083" cy="33.366" r="2.347" fill="none" stroke="#152a4c" stroke-width="1.5" transform="matrix(.707 -.707 .707 .707 -12.942 30.932)"/><circle cx="14.083" cy="33.366" r="2.347" fill="url(#af)" transform="matrix(.707 -.707 .707 .707 -12.942 30.932)"/><circle cx="14.083" cy="33.366" r="2.347" fill="none" stroke="url(#ag)" stroke-width="1.232" transform="matrix(.574 -.574 .574 .574 -6.614 33.496)"/></g></svg>