<svg xmlns="http://www.w3.org/2000/svg" width="48" height="48" xmlns:xlink="http://www.w3.org/1999/xlink" version="1" viewBox="0 0 612 792" enable-background="new 0 0 612 792"><defs><radialGradient cx="331.24" cy="629.977" r="16.251" xlink:href="#a" gradientUnits="userSpaceOnUse"/><radialGradient cx="331.449" cy="629.542" r=".792" xlink:href="#b" gradientUnits="userSpaceOnUse"/><radialGradient cx="331.418" cy="629.526" r="1.558" xlink:href="#c" gradientUnits="userSpaceOnUse"/><radialGradient cx="331.418" cy="629.511" r="2.667" xlink:href="#d" gradientUnits="userSpaceOnUse"/><radialGradient cx="331.419" cy="629.676" r="5.25" xlink:href="#e" gradientUnits="userSpaceOnUse"/><radialGradient cx="331.418" cy="629.749" r="9.083" xlink:href="#f" gradientUnits="userSpaceOnUse"/><radialGradient cx="331.419" cy="629.833" r="10.666" xlink:href="#g" gradientUnits="userSpaceOnUse"/><radialGradient cx="331.454" cy="629.977" r="12.106" xlink:href="#h" gradientUnits="userSpaceOnUse"/><radialGradient cx="331.241" cy="629.977" r="16.251" xlink:href="#i" gradientUnits="userSpaceOnUse"/><linearGradient x1="336.503" x2="327.253" y1="644.475" y2="634.391" xlink:href="#j" gradientUnits="userSpaceOnUse"/><radialGradient id="a" cx="331.24" cy="629.977" r="16.251" gradientUnits="userSpaceOnUse"><stop offset=".797" stop-color="#FFF9E3" stop-opacity=".95"/><stop offset=".871" stop-color="#FFF8D1" stop-opacity=".5"/><stop offset="1" stop-color="#FDF9D1" stop-opacity="0"/></radialGradient><radialGradient id="b" cx="331.449" cy="629.542" r=".792" gradientUnits="userSpaceOnUse"><stop offset=".574" stop-color="#CDA5CD" stop-opacity="0"/><stop offset=".618" stop-color="#C198C6" stop-opacity=".128"/><stop offset=".703" stop-color="#A478B5" stop-opacity=".375"/><stop offset=".798" stop-color="#8453A1" stop-opacity=".651"/><stop offset="1" stop-color="#8453A1" stop-opacity=".95"/></radialGradient><radialGradient id="c" cx="331.418" cy="629.526" r="1.558" gradientUnits="userSpaceOnUse"><stop offset=".574" stop-color="#CDA5CD" stop-opacity="0"/><stop offset=".618" stop-color="#C198C6" stop-opacity=".128"/><stop offset=".703" stop-color="#A478B5" stop-opacity=".375"/><stop offset=".798" stop-color="#8453A1" stop-opacity=".651"/><stop offset="1" stop-color="#8453A1" stop-opacity=".95"/></radialGradient><radialGradient id="d" cx="331.418" cy="629.511" r="2.667" gradientUnits="userSpaceOnUse"><stop offset=".574" stop-color="#CDA5CD" stop-opacity="0"/><stop offset=".618" stop-color="#C198C6" stop-opacity=".128"/><stop offset=".703" stop-color="#A478B5" stop-opacity=".375"/><stop offset=".798" stop-color="#8453A1" stop-opacity=".651"/><stop offset="1" stop-color="#8453A1" stop-opacity=".95"/></radialGradient><radialGradient id="e" cx="331.419" cy="629.676" r="5.25" gradientUnits="userSpaceOnUse"><stop offset=".574" stop-color="#CDA5CD" stop-opacity="0"/><stop offset=".633" stop-color="#C198C6" stop-opacity=".128"/><stop offset=".745" stop-color="#A478B5" stop-opacity=".375"/><stop offset=".871" stop-color="#8453A1" stop-opacity=".651"/><stop offset="1" stop-color="#8453A1" stop-opacity=".95"/></radialGradient><radialGradient id="f" cx="331.418" cy="629.749" r="9.083" gradientUnits="userSpaceOnUse"><stop offset=".712" stop-color="#CDA5CD" stop-opacity="0"/><stop offset=".75" stop-color="#C198C6" stop-opacity=".128"/><stop offset=".825" stop-color="#A478B5" stop-opacity=".375"/><stop offset=".908" stop-color="#8453A1" stop-opacity=".651"/><stop offset="1" stop-color="#8453A1" stop-opacity=".95"/></radialGradient><radialGradient id="g" cx="331.419" cy="629.833" r="10.666" gradientUnits="userSpaceOnUse"><stop offset=".859" stop-color="#CDA5CD" stop-opacity="0"/><stop offset=".879" stop-color="#C198C6" stop-opacity=".128"/><stop offset=".919" stop-color="#A478B5" stop-opacity=".375"/><stop offset=".963" stop-color="#8453A1" stop-opacity=".651"/><stop offset="1" stop-color="#8453A1" stop-opacity=".95"/></radialGradient><radialGradient id="h" cx="331.454" cy="629.977" r="12.106" gradientUnits="userSpaceOnUse"><stop offset=".859" stop-color="#CDA5CD" stop-opacity="0"/><stop offset=".879" stop-color="#C198C6" stop-opacity=".128"/><stop offset=".919" stop-color="#A478B5" stop-opacity=".375"/><stop offset=".963" stop-color="#8453A1" stop-opacity=".651"/><stop offset="1" stop-color="#8453A1" stop-opacity=".95"/></radialGradient><radialGradient id="i" cx="331.241" cy="629.977" r="16.251" gradientUnits="userSpaceOnUse"><stop offset=".859" stop-color="#CDA5CD" stop-opacity="0"/><stop offset=".879" stop-color="#C198C6" stop-opacity=".128"/><stop offset=".919" stop-color="#A478B5" stop-opacity=".375"/><stop offset=".963" stop-color="#8453A1" stop-opacity=".651"/><stop offset="1" stop-color="#8453A1" stop-opacity=".95"/></radialGradient><linearGradient id="j" x1="336.503" x2="327.253" y1="644.475" y2="634.391" gradientUnits="userSpaceOnUse"><stop offset="0" stop-color="#E8D4AC"/><stop offset=".124" stop-color="#EEDEC0" stop-opacity=".876"/><stop offset=".311" stop-color="#F4EAD7" stop-opacity=".689"/><stop offset=".511" stop-color="#F9F3EA" stop-opacity=".489"/><stop offset=".729" stop-color="#FDFCF8" stop-opacity=".271"/><stop offset="1" stop-color="#fff" stop-opacity="0"/></linearGradient><linearGradient id="k" x1="336.503" x2="327.253" y1="644.475" y2="634.391" xlink:href="#j" gradientUnits="userSpaceOnUse" gradientTransform="matrix(16.656 0 0 16.656 -5220.49 -10218.379)"/><radialGradient cx="331.241" cy="629.977" r="16.251" xlink:href="#i" gradientUnits="userSpaceOnUse"/><radialGradient cx="331.454" cy="629.977" r="12.106" xlink:href="#h" gradientUnits="userSpaceOnUse"/><radialGradient cx="331.419" cy="629.833" r="10.666" xlink:href="#g" gradientUnits="userSpaceOnUse"/><radialGradient cx="331.418" cy="629.749" r="9.083" xlink:href="#f" gradientUnits="userSpaceOnUse"/><radialGradient cx="331.419" cy="629.676" r="5.25" xlink:href="#e" gradientUnits="userSpaceOnUse"/><radialGradient cx="331.418" cy="629.511" r="2.667" xlink:href="#d" gradientUnits="userSpaceOnUse"/><radialGradient cx="331.418" cy="629.526" r="1.558" xlink:href="#c" gradientUnits="userSpaceOnUse"/><radialGradient cx="331.449" cy="629.542" r=".792" xlink:href="#b" gradientUnits="userSpaceOnUse"/><radialGradient cx="331.24" cy="629.977" r="16.251" xlink:href="#a" gradientUnits="userSpaceOnUse"/></defs><path fill="#fff" fill-opacity=".392" fill-rule="evenodd" stroke="#26aeff" stroke-width="16.5" d="M694.04 376.1a368.16 368.16 0 1 1-736.3 0 368.16 368.16 0 1 1 736.3 0z" stroke-linecap="round" overflow="visible" enable-background="accumulate"/><path fill="#fff" fill-opacity=".392" fill-rule="evenodd" stroke="#26aeff" stroke-width="15.77.776" d="M633.05 376.1a307.17 307.17 0 1 1-614.33 0 307.17 307.17 0 1 1 614.33 0z" stroke-linecap="round" overflow="visible" enable-background="accumulate"/><path fill="#fff" fill-opacity=".392" fill-rule="evenodd" stroke="#26aeff" stroke-width="16.25.5" d="M564.1 376.1a238.22 238.22 0 1 1-476.43 0 238.22 238.22 0 1 1 476.44 0z" stroke-linecap="round" overflow="visible" enable-background="accumulate"/><path fill="#fff" fill-opacity=".392" fill-rule="evenodd" stroke="#26aeff" stroke-width="16.1.516" d="M496.93 376.1a171.04 171.04 0 1 1-342.08 0 171.04 171.04 0 1 1 342.08 0z" stroke-linecap="round" overflow="visible" enable-background="accumulate"/><path fill="#fff" fill-opacity=".392" fill-rule="evenodd" stroke="#26aeff" stroke-width="16.24.1" d="M434.17 376.1a108.28 108.28 0 1 1-216.56 0 108.28 108.28 0 1 1 216.57 0z" stroke-linecap="round" overflow="visible" enable-background="accumulate"/><path fill="#fff" fill-opacity=".392" fill-rule="evenodd" stroke="#26aeff" stroke-width="16.65.744" d="M380.25 376.1a54.36 54.36 0 1 1-108.72 0 54.36 54.36 0 1 1 108.72 0z" stroke-linecap="round" overflow="visible" enable-background="accumulate"/><path fill="none" stroke="#8f7221" stroke-width="11.659" stroke-miterlimit="10" d="M321.1 627.95c-.33 0-.65 0-.96 0-48.94 0-92.18-33-112.85-86.2-16.68-42.9-66.63-306-68.74-317.2l-1.1-5.82 42.47-24.3 54.33-8.13 1.33 8.13c.34 2.33 38.02 234.2 60.92 291.56l2.42 6.04c12.2 30.86 18.9 47.85 49.73 47.85 6.26 0 13.5-.75 21.57-2.2 1.83-.33 3.5-.73 5.15-1.14 3.13-6.77 5.03-15.7 6.13-28.92 1.1-13.7-26.76-190.04-45.77-305.23l-.9-5.56 41.5-25.16 56.2-8.42 1.44 7.98c2.15 11.98 52.28 293.48 49.15 329.82-3.5 40.88-25.37 75.22-57.6 91.28l33.47 162.08-37.65 25.1-64.64 9.27-35.64-160.85z" stroke-linecap="round" stroke-linejoin="round"/><path fill="none" stroke="#f3e8d4" stroke-width="16.656" stroke-miterlimit="10" d="M425.8 172.7l-46.57 6.97-35.27 21.37s47.48 287.8 45.85 307.3c-1.2 14.3-3.37 26.02-8.75 35.3-2.98.8-5.9 1.66-9.36 2.28-59.5 10.7-67-17-82.92-56.83-23.52-58.9-61.43-293.34-61.43-293.34l-44.66 6.68L146.72 223s51.72 273.05 68.33 315.72c20.8 53.52 64.6 84.2 112.66 80.62l35.47 160.1 57-8.15-.06-.26 29.6-20.36-33.66-163.1c.06-.06.13-.12.2-.2 33.9-13.9 55.3-48.82 58.6-87.07 3.04-35.6-49.1-327.6-49.1-327.6z" stroke-linecap="round" stroke-linejoin="round"/><path fill="#e0b93b" d="M420.17 770.67l-57 8.16-35.47-160.1c-48.07 3.57-91.86-27.1-112.66-80.62-16.6-42.68-68.32-315.7-68.32-315.7l50.8-6.67S235.45 450.15 259 509.06c15.92 39.82 23.4 67.5 82.9 56.8 38.65-6.93 45.26-26.42 47.9-58.13 1.65-19.5-45.84-307.3-45.84-307.3l52.45-7.83s51.94 292.02 48.9 327.68c-3.3 38.33-24.78 73.32-58.82 87.2l33.7 163.2z"/><path fill="#937522" d="M259.06 509c15.9 39.82 23.4 67.46 82.9 56.75 21.18-3.78 32.54-11.47 39.12-22.73-2.98.82-5.9 1.66-9.38 2.28-59.47 10.7-66.97-17-82.9-56.83-23.53-58.88-61.43-293.33-61.43-293.33l-29.74 20.5c0-.03 37.9 234.42 61.43 293.35z"/><path fill="url(#k)" d="M259.06 509c15.9 39.82 23.4 67.46 82.9 56.75 21.18-3.78 32.54-11.47 39.12-22.73-2.98.82-5.9 1.66-9.38 2.28-59.47 10.7-66.97-17-82.9-56.83-23.53-58.88-61.43-293.33-61.43-293.33l-29.74 20.5c0-.03 37.9 234.42 61.43 293.35z"/><path fill="#937522" d="M474.84 499.7c3.08-35.65-48.9-327.67-48.9-327.67L396.2 192.5s51.97 292.02 48.9 327.68c-3.3 38.36-24.74 73.32-58.8 87.18l33.4 163.38 30.04-20.66-33.68-163.17c34.03-13.87 55.48-48.86 58.78-87.2z"/><path fill="#e7d3ab" d="M146.73 222.4l50.9-6.8 29.72-20.47-44.66 6.7-35.97 20.56z"/><path fill="#e7d3ab" d="M344.14 200.42l51.92-7.82 29.73-20.5-46.57 6.95-35.1 21.37z"/></svg>