<svg xmlns="http://www.w3.org/2000/svg" width="48" height="48" xmlns:xlink="http://www.w3.org/1999/xlink" version="1" viewBox="0 0 612 792" enable-background="new 0 0 612 792"><defs><linearGradient id="E" x1="282.675" x2="284.059" y1="392.629" y2="391.832" gradientUnits="userSpaceOnUse"><stop offset="0"/><stop offset=".526" stop-color="#fff" stop-opacity=".914"/><stop offset=".789"/></linearGradient><linearGradient x1="278.821" x2="286.195" y1="397.251" y2="387.95" xlink:href="#a" gradientUnits="userSpaceOnUse"/><linearGradient x1="320.488" x2="327.861" y1="396.25" y2="386.95" xlink:href="#b" gradientUnits="userSpaceOnUse"/><linearGradient x1="277.28" x2="296.273" y1="413.185" y2="402.251" xlink:href="#c" gradientUnits="userSpaceOnUse"/><linearGradient x1="261.502" x2="319.254" y1="402.679" y2="369.435" xlink:href="#d" gradientUnits="userSpaceOnUse"/><linearGradient x1="267.121" x2="313.032" y1="407.095" y2="380.666" xlink:href="#e" gradientUnits="userSpaceOnUse"/><linearGradient x1="262.674" x2="319.255" y1="403.137" y2="370.566" xlink:href="#f" gradientUnits="userSpaceOnUse"/><linearGradient x1="272.774" x2="298.498" y1="411.952" y2="397.145" xlink:href="#g" gradientUnits="userSpaceOnUse"/><linearGradient x1="263.783" x2="319.483" y1="403.776" y2="371.714" xlink:href="#h" gradientUnits="userSpaceOnUse"/><linearGradient x1="286.202" x2="305.182" y1="411.472" y2="400.546" xlink:href="#i" gradientUnits="userSpaceOnUse"/><linearGradient x1="291.314" x2="307.066" y1="411.598" y2="402.53" xlink:href="#j" gradientUnits="userSpaceOnUse"/><linearGradient x1="295.102" x2="303.712" y1="412.603" y2="407.646" xlink:href="#k" gradientUnits="userSpaceOnUse"/><linearGradient x1="280.59" x2="300.515" y1="412.786" y2="401.316" xlink:href="#l" gradientUnits="userSpaceOnUse"/><linearGradient x1="288.224" x2="308.095" y1="411.271" y2="399.832" xlink:href="#m" gradientUnits="userSpaceOnUse"/><linearGradient x1="284.231" x2="304.19" y1="412.063" y2="400.573" xlink:href="#n" gradientUnits="userSpaceOnUse"/><linearGradient x1="282.556" x2="302.444" y1="412.4" y2="400.952" xlink:href="#o" gradientUnits="userSpaceOnUse"/><linearGradient x1="318.945" x2="337.939" y1="412.183" y2="401.249" xlink:href="#p" gradientUnits="userSpaceOnUse"/><linearGradient x1="303.168" x2="360.92" y1="401.678" y2="368.434" xlink:href="#q" gradientUnits="userSpaceOnUse"/><linearGradient x1="308.787" x2="354.699" y1="406.095" y2="379.666" xlink:href="#r" gradientUnits="userSpaceOnUse"/><linearGradient x1="304.34" x2="360.923" y1="402.137" y2="369.565" xlink:href="#s" gradientUnits="userSpaceOnUse"/><linearGradient x1="314.44" x2="340.163" y1="410.951" y2="396.144" xlink:href="#t" gradientUnits="userSpaceOnUse"/><linearGradient x1="305.45" x2="361.148" y1="402.774" y2="370.712" xlink:href="#u" gradientUnits="userSpaceOnUse"/><linearGradient x1="327.868" x2="346.848" y1="410.469" y2="399.543" xlink:href="#v" gradientUnits="userSpaceOnUse"/><linearGradient x1="332.979" x2="348.732" y1="410.596" y2="401.528" xlink:href="#w" gradientUnits="userSpaceOnUse"/><linearGradient x1="336.768" x2="345.378" y1="411.601" y2="406.644" xlink:href="#x" gradientUnits="userSpaceOnUse"/><linearGradient x1="322.256" x2="342.181" y1="411.785" y2="400.315" xlink:href="#y" gradientUnits="userSpaceOnUse"/><linearGradient x1="329.891" x2="349.761" y1="410.269" y2="398.831" xlink:href="#z" gradientUnits="userSpaceOnUse"/><linearGradient x1="325.897" x2="345.856" y1="411.061" y2="399.572" xlink:href="#A" gradientUnits="userSpaceOnUse"/><linearGradient x1="324.223" x2="344.111" y1="411.399" y2="399.951" xlink:href="#B" gradientUnits="userSpaceOnUse"/><linearGradient x1="282.675" x2="284.059" y1="392.629" y2="391.832" xlink:href="#C" gradientUnits="userSpaceOnUse"/><linearGradient x1="324.341" x2="325.726" y1="391.627" y2="390.83" xlink:href="#D" gradientUnits="userSpaceOnUse"/><linearGradient id="a" x1="278.821" x2="286.195" y1="397.251" y2="387.95" gradientUnits="userSpaceOnUse"><stop offset=".147" stop-color="#fff" stop-opacity=".74"/><stop offset=".274" stop-color="#E6E7E8" stop-opacity=".636"/><stop offset=".429" stop-color="#D3D4D6" stop-opacity=".509"/><stop offset=".594" stop-color="#C5C7C9" stop-opacity=".373"/><stop offset=".775" stop-color="#BCBEC1" stop-opacity=".225"/><stop offset="1" stop-color="#BABCBE" stop-opacity=".04"/></linearGradient><linearGradient id="b" x1="320.488" x2="327.861" y1="396.25" y2="386.95" gradientUnits="userSpaceOnUse"><stop offset=".147" stop-color="#fff" stop-opacity=".74"/><stop offset=".274" stop-color="#E6E7E8" stop-opacity=".636"/><stop offset=".429" stop-color="#D3D4D6" stop-opacity=".509"/><stop offset=".594" stop-color="#C5C7C9" stop-opacity=".373"/><stop offset=".775" stop-color="#BCBEC1" stop-opacity=".225"/><stop offset="1" stop-color="#BABCBE" stop-opacity=".04"/></linearGradient><linearGradient id="c" x1="277.28" x2="296.273" y1="413.185" y2="402.251" gradientUnits="userSpaceOnUse"><stop offset="0"/><stop offset=".054" stop-opacity=".91"/><stop offset=".601" stop-opacity="0"/></linearGradient><linearGradient id="d" x1="261.502" x2="319.254" y1="402.679" y2="369.435" gradientUnits="userSpaceOnUse"><stop offset="0" stop-color="#321D0A"/><stop offset=".036" stop-color="#462F1C" stop-opacity=".951"/><stop offset=".135" stop-color="#665243" stop-opacity=".817"/><stop offset=".237" stop-color="#7D6E63" stop-opacity=".678"/><stop offset=".344" stop-color="#8D847E" stop-opacity=".532"/><stop offset=".458" stop-color="#9A9593" stop-opacity=".378"/><stop offset=".582" stop-color="#A1A1A1" stop-opacity=".21"/><stop offset=".736" stop-color="#A3A5A8" stop-opacity="0"/></linearGradient><linearGradient id="e" x1="267.121" x2="313.032" y1="407.095" y2="380.666" gradientUnits="userSpaceOnUse"><stop offset="0" stop-color="#321D0A"/><stop offset=".036" stop-color="#462F1C" stop-opacity=".951"/><stop offset=".135" stop-color="#665243" stop-opacity=".817"/><stop offset=".237" stop-color="#7D6E63" stop-opacity=".678"/><stop offset=".344" stop-color="#8D847E" stop-opacity=".532"/><stop offset=".458" stop-color="#9A9593" stop-opacity=".378"/><stop offset=".582" stop-color="#A1A1A1" stop-opacity=".21"/><stop offset=".736" stop-color="#A3A5A8" stop-opacity="0"/></linearGradient><linearGradient id="f" x1="262.674" x2="319.255" y1="403.137" y2="370.566" gradientUnits="userSpaceOnUse"><stop offset="0" stop-color="#321D0A"/><stop offset=".036" stop-color="#462F1C" stop-opacity=".951"/><stop offset=".135" stop-color="#665243" stop-opacity=".817"/><stop offset=".237" stop-color="#7D6E63" stop-opacity=".678"/><stop offset=".344" stop-color="#8D847E" stop-opacity=".532"/><stop offset=".458" stop-color="#9A9593" stop-opacity=".378"/><stop offset=".582" stop-color="#A1A1A1" stop-opacity=".21"/><stop offset=".736" stop-color="#A3A5A8" stop-opacity="0"/></linearGradient><linearGradient id="g" x1="272.774" x2="298.498" y1="411.952" y2="397.145" gradientUnits="userSpaceOnUse"><stop offset="0" stop-color="#321D0A"/><stop offset=".036" stop-color="#462F1C" stop-opacity=".951"/><stop offset=".135" stop-color="#665243" stop-opacity=".817"/><stop offset=".237" stop-color="#7D6E63" stop-opacity=".678"/><stop offset=".344" stop-color="#8D847E" stop-opacity=".532"/><stop offset=".458" stop-color="#9A9593" stop-opacity=".378"/><stop offset=".582" stop-color="#A1A1A1" stop-opacity=".21"/><stop offset=".736" stop-color="#A3A5A8" stop-opacity="0"/></linearGradient><linearGradient id="h" x1="263.783" x2="319.483" y1="403.776" y2="371.714" gradientUnits="userSpaceOnUse"><stop offset="0" stop-color="#321D0A"/><stop offset=".036" stop-color="#462F1C" stop-opacity=".951"/><stop offset=".135" stop-color="#665243" stop-opacity=".817"/><stop offset=".237" stop-color="#7D6E63" stop-opacity=".678"/><stop offset=".344" stop-color="#8D847E" stop-opacity=".532"/><stop offset=".458" stop-color="#9A9593" stop-opacity=".378"/><stop offset=".582" stop-color="#A1A1A1" stop-opacity=".21"/><stop offset=".736" stop-color="#A3A5A8" stop-opacity="0"/></linearGradient><linearGradient id="i" x1="286.202" x2="305.182" y1="411.472" y2="400.546" gradientUnits="userSpaceOnUse"><stop offset="0"/><stop offset=".054" stop-opacity=".91"/><stop offset=".601" stop-opacity="0"/></linearGradient><linearGradient id="j" x1="291.314" x2="307.066" y1="411.598" y2="402.53" gradientUnits="userSpaceOnUse"><stop offset="0"/><stop offset=".054" stop-opacity=".91"/><stop offset=".601" stop-opacity="0"/></linearGradient><linearGradient id="k" x1="295.102" x2="303.712" y1="412.603" y2="407.646" gradientUnits="userSpaceOnUse"><stop offset="0"/><stop offset=".054" stop-opacity=".91"/><stop offset=".601" stop-opacity="0"/></linearGradient><linearGradient id="l" x1="280.59" x2="300.515" y1="412.786" y2="401.316" gradientUnits="userSpaceOnUse"><stop offset="0"/><stop offset=".054" stop-opacity=".91"/><stop offset=".601" stop-opacity="0"/></linearGradient><linearGradient id="m" x1="288.224" x2="308.095" y1="411.271" y2="399.832" gradientUnits="userSpaceOnUse"><stop offset="0"/><stop offset=".054" stop-opacity=".91"/><stop offset=".601" stop-opacity="0"/></linearGradient><linearGradient id="n" x1="284.231" x2="304.19" y1="412.063" y2="400.573" gradientUnits="userSpaceOnUse"><stop offset="0"/><stop offset=".054" stop-opacity=".91"/><stop offset=".601" stop-opacity="0"/></linearGradient><linearGradient id="o" x1="282.556" x2="302.444" y1="412.4" y2="400.952" gradientUnits="userSpaceOnUse"><stop offset="0"/><stop offset=".054" stop-opacity=".91"/><stop offset=".601" stop-opacity="0"/></linearGradient><linearGradient id="p" x1="318.945" x2="337.939" y1="412.183" y2="401.249" gradientUnits="userSpaceOnUse"><stop offset="0" stop-color="#5F6062"/><stop offset=".054" stop-color="#5F6062" stop-opacity=".91"/><stop offset=".601" stop-color="#5F6062" stop-opacity="0"/></linearGradient><linearGradient id="q" x1="303.168" x2="360.92" y1="401.678" y2="368.434" gradientUnits="userSpaceOnUse"><stop offset="0" stop-color="#6B4A30"/><stop offset=".036" stop-color="#77573F" stop-opacity=".951"/><stop offset=".135" stop-color="#927864" stop-opacity=".817"/><stop offset=".237" stop-color="#A99687" stop-opacity=".678"/><stop offset=".344" stop-color="#BCB0A6" stop-opacity=".532"/><stop offset=".458" stop-color="#C9C3BE" stop-opacity=".378"/><stop offset=".582" stop-color="#D1D0CF" stop-opacity=".21"/><stop offset=".736" stop-color="#D3D5D6" stop-opacity="0"/></linearGradient><linearGradient id="r" x1="308.787" x2="354.699" y1="406.095" y2="379.666" gradientUnits="userSpaceOnUse"><stop offset="0" stop-color="#6B4A30"/><stop offset=".036" stop-color="#77573F" stop-opacity=".951"/><stop offset=".135" stop-color="#927864" stop-opacity=".817"/><stop offset=".237" stop-color="#A99687" stop-opacity=".678"/><stop offset=".344" stop-color="#BCB0A6" stop-opacity=".532"/><stop offset=".458" stop-color="#C9C3BE" stop-opacity=".378"/><stop offset=".582" stop-color="#D1D0CF" stop-opacity=".21"/><stop offset=".736" stop-color="#D3D5D6" stop-opacity="0"/></linearGradient><linearGradient id="s" x1="304.34" x2="360.923" y1="402.137" y2="369.565" gradientUnits="userSpaceOnUse"><stop offset="0" stop-color="#6B4A30"/><stop offset=".036" stop-color="#77573F" stop-opacity=".951"/><stop offset=".135" stop-color="#927864" stop-opacity=".817"/><stop offset=".237" stop-color="#A99687" stop-opacity=".678"/><stop offset=".344" stop-color="#BCB0A6" stop-opacity=".532"/><stop offset=".458" stop-color="#C9C3BE" stop-opacity=".378"/><stop offset=".582" stop-color="#D1D0CF" stop-opacity=".21"/><stop offset=".736" stop-color="#D3D5D6" stop-opacity="0"/></linearGradient><linearGradient id="t" x1="314.44" x2="340.163" y1="410.951" y2="396.144" gradientUnits="userSpaceOnUse"><stop offset="0" stop-color="#6B4A30"/><stop offset=".036" stop-color="#77573F" stop-opacity=".951"/><stop offset=".135" stop-color="#927864" stop-opacity=".817"/><stop offset=".237" stop-color="#A99687" stop-opacity=".678"/><stop offset=".344" stop-color="#BCB0A6" stop-opacity=".532"/><stop offset=".458" stop-color="#C9C3BE" stop-opacity=".378"/><stop offset=".582" stop-color="#D1D0CF" stop-opacity=".21"/><stop offset=".736" stop-color="#D3D5D6" stop-opacity="0"/></linearGradient><linearGradient id="u" x1="305.45" x2="361.148" y1="402.774" y2="370.712" gradientUnits="userSpaceOnUse"><stop offset="0" stop-color="#6B4A30"/><stop offset=".036" stop-color="#77573F" stop-opacity=".951"/><stop offset=".135" stop-color="#927864" stop-opacity=".817"/><stop offset=".237" stop-color="#A99687" stop-opacity=".678"/><stop offset=".344" stop-color="#BCB0A6" stop-opacity=".532"/><stop offset=".458" stop-color="#C9C3BE" stop-opacity=".378"/><stop offset=".582" stop-color="#D1D0CF" stop-opacity=".21"/><stop offset=".736" stop-color="#D3D5D6" stop-opacity="0"/></linearGradient><linearGradient id="v" x1="327.868" x2="346.848" y1="410.469" y2="399.543" gradientUnits="userSpaceOnUse"><stop offset="0" stop-color="#5F6062"/><stop offset=".054" stop-color="#5F6062" stop-opacity=".91"/><stop offset=".601" stop-color="#5F6062" stop-opacity="0"/></linearGradient><linearGradient id="w" x1="332.979" x2="348.732" y1="410.596" y2="401.528" gradientUnits="userSpaceOnUse"><stop offset="0" stop-color="#5F6062"/><stop offset=".054" stop-color="#5F6062" stop-opacity=".91"/><stop offset=".601" stop-color="#5F6062" stop-opacity="0"/></linearGradient><linearGradient id="x" x1="336.768" x2="345.378" y1="411.601" y2="406.644" gradientUnits="userSpaceOnUse"><stop offset="0" stop-color="#5F6062"/><stop offset=".054" stop-color="#5F6062" stop-opacity=".91"/><stop offset=".601" stop-color="#5F6062" stop-opacity="0"/></linearGradient><linearGradient id="y" x1="322.256" x2="342.181" y1="411.785" y2="400.315" gradientUnits="userSpaceOnUse"><stop offset="0" stop-color="#5F6062"/><stop offset=".054" stop-color="#5F6062" stop-opacity=".91"/><stop offset=".601" stop-color="#5F6062" stop-opacity="0"/></linearGradient><linearGradient id="z" x1="329.891" x2="349.761" y1="410.269" y2="398.831" gradientUnits="userSpaceOnUse"><stop offset="0" stop-color="#5F6062"/><stop offset=".054" stop-color="#5F6062" stop-opacity=".91"/><stop offset=".601" stop-color="#5F6062" stop-opacity="0"/></linearGradient><linearGradient id="A" x1="325.897" x2="345.856" y1="411.061" y2="399.572" gradientUnits="userSpaceOnUse"><stop offset="0" stop-color="#5F6062"/><stop offset=".054" stop-color="#5F6062" stop-opacity=".91"/><stop offset=".601" stop-color="#5F6062" stop-opacity="0"/></linearGradient><linearGradient id="B" x1="324.223" x2="344.111" y1="411.399" y2="399.951" gradientUnits="userSpaceOnUse"><stop offset="0" stop-color="#5F6062"/><stop offset=".054" stop-color="#5F6062" stop-opacity=".91"/><stop offset=".601" stop-color="#5F6062" stop-opacity="0"/></linearGradient><linearGradient id="C" x1="282.675" x2="284.059" y1="392.629" y2="391.832" gradientUnits="userSpaceOnUse"><stop offset="0"/><stop offset=".317" stop-color="#fff" stop-opacity=".914"/><stop offset=".601"/></linearGradient><linearGradient id="D" x1="324.341" x2="325.726" y1="391.627" y2="390.83" gradientUnits="userSpaceOnUse"><stop offset="0"/><stop offset=".054" stop-opacity=".91"/><stop offset=".601" stop-opacity="0"/></linearGradient><linearGradient x1="324.223" x2="344.111" y1="411.399" y2="399.951" xlink:href="#B" gradientUnits="userSpaceOnUse" gradientTransform="translate(-247.5 -372.134)"/><linearGradient x1="325.897" x2="345.856" y1="411.061" y2="399.572" xlink:href="#A" gradientUnits="userSpaceOnUse" gradientTransform="translate(-247.5 -372.134)"/><linearGradient x1="329.891" x2="349.761" y1="410.269" y2="398.831" xlink:href="#z" gradientUnits="userSpaceOnUse" gradientTransform="translate(-247.5 -372.134)"/><linearGradient x1="322.256" x2="342.181" y1="411.785" y2="400.315" xlink:href="#y" gradientUnits="userSpaceOnUse" gradientTransform="translate(-247.5 -372.134)"/><linearGradient x1="336.768" x2="345.378" y1="411.601" y2="406.644" xlink:href="#x" gradientUnits="userSpaceOnUse" gradientTransform="translate(-247.5 -372.134)"/><linearGradient x1="332.979" x2="348.732" y1="410.596" y2="401.528" xlink:href="#w" gradientUnits="userSpaceOnUse" gradientTransform="translate(-247.5 -372.134)"/><linearGradient x1="327.868" x2="346.848" y1="410.469" y2="399.543" xlink:href="#v" gradientUnits="userSpaceOnUse" gradientTransform="translate(-247.5 -372.134)"/><linearGradient x1="305.45" x2="361.148" y1="402.774" y2="370.712" xlink:href="#u" gradientUnits="userSpaceOnUse" gradientTransform="translate(-247.5 -372.134)"/><linearGradient x1="314.44" x2="340.163" y1="410.951" y2="396.144" xlink:href="#t" gradientUnits="userSpaceOnUse" gradientTransform="translate(-247.5 -372.134)"/><linearGradient x1="304.34" x2="360.923" y1="402.137" y2="369.565" xlink:href="#s" gradientUnits="userSpaceOnUse" gradientTransform="translate(-247.5 -372.134)"/><linearGradient x1="308.787" x2="354.699" y1="406.095" y2="379.666" xlink:href="#r" gradientUnits="userSpaceOnUse" gradientTransform="translate(-247.5 -372.134)"/><linearGradient x1="303.168" x2="360.92" y1="401.678" y2="368.434" xlink:href="#q" gradientUnits="userSpaceOnUse" gradientTransform="translate(-247.5 -372.134)"/><linearGradient x1="318.945" x2="337.939" y1="412.183" y2="401.249" xlink:href="#p" gradientUnits="userSpaceOnUse" gradientTransform="translate(-247.5 -372.134)"/><linearGradient id="R" x1="282.556" x2="302.444" y1="412.4" y2="400.952" xlink:href="#o" gradientUnits="userSpaceOnUse" gradientTransform="matrix(16.888 0 0 16.885 -4532.928 -6302.007)"/><linearGradient id="Q" x1="284.231" x2="304.19" y1="412.063" y2="400.573" xlink:href="#n" gradientUnits="userSpaceOnUse" gradientTransform="matrix(16.888 0 0 16.885 -4532.928 -6302.007)"/><linearGradient id="P" x1="288.224" x2="308.095" y1="411.271" y2="399.832" xlink:href="#m" gradientUnits="userSpaceOnUse" gradientTransform="matrix(16.888 0 0 16.885 -4532.928 -6302.007)"/><linearGradient id="O" x1="280.59" x2="300.515" y1="412.786" y2="401.316" xlink:href="#l" gradientUnits="userSpaceOnUse" gradientTransform="matrix(16.888 0 0 16.885 -4532.928 -6302.007)"/><linearGradient id="N" x1="295.102" x2="303.712" y1="412.603" y2="407.646" xlink:href="#k" gradientUnits="userSpaceOnUse" gradientTransform="matrix(16.888 0 0 16.885 -4532.928 -6302.007)"/><linearGradient id="M" x1="291.314" x2="307.066" y1="411.598" y2="402.53" xlink:href="#j" gradientUnits="userSpaceOnUse" gradientTransform="matrix(16.888 0 0 16.885 -4532.928 -6302.007)"/><linearGradient id="L" x1="286.202" x2="305.182" y1="411.472" y2="400.546" xlink:href="#i" gradientUnits="userSpaceOnUse" gradientTransform="matrix(16.888 0 0 16.885 -4532.928 -6302.007)"/><linearGradient id="K" x1="263.783" x2="319.483" y1="403.776" y2="371.714" xlink:href="#h" gradientUnits="userSpaceOnUse" gradientTransform="matrix(16.888 0 0 16.885 -4532.928 -6302.007)"/><linearGradient id="J" x1="272.774" x2="298.498" y1="411.952" y2="397.145" xlink:href="#g" gradientUnits="userSpaceOnUse" gradientTransform="matrix(16.888 0 0 16.885 -4532.928 -6302.007)"/><linearGradient id="I" x1="262.674" x2="319.255" y1="403.137" y2="370.566" xlink:href="#f" gradientUnits="userSpaceOnUse" gradientTransform="matrix(16.888 0 0 16.885 -4532.928 -6302.007)"/><linearGradient id="H" x1="267.121" x2="313.032" y1="407.095" y2="380.666" xlink:href="#e" gradientUnits="userSpaceOnUse" gradientTransform="matrix(16.888 0 0 16.885 -4532.928 -6302.007)"/><linearGradient id="G" x1="261.502" x2="319.254" y1="402.679" y2="369.435" xlink:href="#d" gradientUnits="userSpaceOnUse" gradientTransform="matrix(16.888 0 0 16.885 -4532.928 -6302.007)"/><linearGradient id="F" x1="277.28" x2="296.273" y1="413.185" y2="402.251" xlink:href="#c" gradientUnits="userSpaceOnUse" gradientTransform="matrix(16.888 0 0 16.885 -4532.928 -6302.007)"/><linearGradient x1="320.488" x2="327.861" y1="396.25" y2="386.95" xlink:href="#b" gradientUnits="userSpaceOnUse" gradientTransform="translate(-247.5 -372.134)"/><linearGradient x1="278.821" x2="286.195" y1="397.251" y2="387.95" xlink:href="#a" gradientUnits="userSpaceOnUse" gradientTransform="matrix(16.654 0 0 16.654 -4514.876 -6275.772)"/><linearGradient x1="324.341" x2="325.726" y1="391.627" y2="390.83" xlink:href="#D" gradientUnits="userSpaceOnUse"/><linearGradient x1="282.675" x2="284.059" y1="392.629" y2="391.832" xlink:href="#C" gradientUnits="userSpaceOnUse"/><linearGradient x1="281.323" x2="283.298" y1="390.567" y2="389.375" xlink:href="#E" gradientUnits="userSpaceOnUse"/></defs><path fill="none" stroke="#45341a" stroke-width="16.65354" stroke-miterlimit="10" d="M168.84 756.53V742.8L33.76 612.16 227.33 14.83l63.02-4.96 51.24 14.6 198.66 666.2-18.14 3.6 2.87 22.75-48.6 11.2-24.2-17.7-206.3 38.7 1 22.75-52.47 12.54-25.6-27.97z" stroke-linecap="round" stroke-linejoin="round"/><path fill="none" stroke="#ebe6e1" stroke-width="16.65354" stroke-miterlimit="10" d="M527.27 682.86L333.43 32.72l-44.1-12.55-54.4 4.3L45.4 609.28l133.64 129.2v14.1l18.85 20.63 38.44-9.2-1-23.08 223.45-42.1.7 4.42 19.15 14.02 35.4-8.16-2.93-23.04 16.15-3.2z" stroke-linecap="round" stroke-linejoin="round"/><path fill="#493c25" d="M511.72 686.17l2.66 23.4-36.6 8.8-2.6-25 36.54-7.2z"/><path fill="#9a8d7f" d="M460.1 705.46l17.8 13.05-1.36-25.78-19.12-3.73 2.67 16.46z"/><path fill="#493c25" d="M197.17 749.27l1.43 25.35 38.45-9.2-1.06-24.4-38.83 8.25z"/><path fill="#9a8d7f" d="M179.74 736.76l17.43 12.5 1.43 25.36-18.86-20.64v-17.22z"/><path fill="#4d3420" d="M264.58 43.8l69.17-9.67 194.23 650.15-336.56 66.92L46.1 610.68l189.08-584.8 29.4 17.9z"/><path fill="#3c3627" d="M274.1 57.62l54.06-5.67L451 468.25 225.86 504.8 274.1 57.6z"/><path fill="#ddd7d2" d="M451 468.25l-22.95-5.74-201.48 32.95-.7 9.34L451 468.24z"/><path fill="#9a8d7f" d="M328.3 52.54L451 468.24l-22.57-5.73L319.08 70.1l.96-16.26 8.26-1.3z"/><path fill="#836c4a" d="M232.07 35.7l32.02 14.8-72.68 700.7L46.1 610.68l185.97-575z"/><path fill="#e8e4e2" d="M272.25 57.84l39.8-2.14 44.3 418.5-45.9 7.54-38.2-423.9z"/><path fill="#b3c0c3" d="M283.4 56.52l21.2 1.46 45.3 416.96-27.24 4.05L283.4 56.5z"/><path fill="#596b6f" d="M281.13 58.7l4.37-.34 39.8 421.78-4.8.5L281.13 58.7z"/><path fill="#596b6f" d="M299.83 53.6l4.25 2.1 45.1 419.7-4.77 1.03L299.84 53.6z"/><path fill="#4d3420" d="M334.26 34.6l-69.22 9.68-73.14 707.37 336.53-66.9L334.26 34.58zM227.04 495.97l.3-.04L274.6 58.08l10.97-.83 1.02 18.07 32.24-4.53 1.44-12.54.23-3.95.25-.02.1-.86 7.8-1.03L451.5 468.72l-225.15 36.54.7-9.3z"/><path fill="#857868" d="M286.57 75.33l-1-18.08-4.3.57v9.56l5.3 7.95z"/><path fill="url(#F)" d="M234.03 506.14s-31.83 206.9-9.54 238.76l19.1-4.24 11.66-237.7-21.23 3.18z"/><path fill="url(#G)" d="M237.22 39.25S52.56 581.5 61.05 624.98l16 15.13L243.6 43.5l-6.38-4.25z"/><path fill="url(#H)" d="M249.96 185.7C224.5 158.1 121.6 648.32 130.1 691.83l16.35 15.84s72.72-490.1 93.95-446.62l9.56-75.35z"/><path fill="url(#I)" d="M242.53 40.3S82.28 610.13 90.76 653.65l8.46 7.83C98.15 622.2 245.7 42.44 245.7 42.44l-3.17-2.13z"/><path fill="url(#J)" d="M224.5 435.06c-22.3 1.06-76.43 238.74-67.93 282.25l13.9 13.3c-1.07-39.26 37.03-255.22 50.83-259.48l3.2-36.06z"/><path fill="url(#K)" d="M246.76 42.44S106.83 633.78 115.3 677.3l8.72 8.45c-1.06-39.26 125.94-641.2 125.94-641.2l-3.2-2.1z"/><path fill="url(#L)" d="M384.74 477.5s-32.3 205.9-10.03 237.72l19.7-3.87 11.56-237.02-21.22 3.18z"/><path fill="url(#M)" d="M473.53 504.22s-53.5 99.86-27.74 196.9l17.94-3.85c-8.9-65.38 19.7-157.4 19.7-157.4l-9.9-35.65z"/><path fill="url(#N)" d="M498.17 586.4s-29.33 54.34-15.2 107.56l9.76-2.18c-4.88-35.85 10.9-85.83 10.9-85.83l-5.46-19.55z"/><path fill="url(#O)" d="M305.15 494.48s-31.8 207.9-25.44 239.73l20.07-4.2c-2.1-21.23 1.14-128.35 7.5-171.87 6.37-43.5 11.67-65.78 11.67-65.78l-13.8 2.13z"/><path fill="url(#P)" d="M433.54 469S402.1 676.7 408.48 708.54l20.06-3.87c-2.12-21.22.78-128.48 7.15-172 6.35-43.5 11.66-65.77 11.66-65.77l-13.82 2.1z"/><path fill="url(#Q)" d="M366.68 481.74s-31.86 208.32-25.5 240.16l20.6-3.95c-2.14-21.22.67-129.04 7.03-172.53 6.38-43.5 11.68-65.8 11.68-65.8l-13.8 2.12z"/><path fill="url(#R)" d="M338.04 488.1s-31.7 207.5-25.35 239.34l20.3-3.95c-2.12-21.24.8-128.22 7.17-171.72S351.82 486 351.82 486l-13.78 2.1z"/><path fill="#eeeeec" fill-rule="evenodd" stroke="#536e6c" stroke-width="12.375" d="M325.13 478.46L92.03 113.68c2.45-20.47 9.02-24.8 30.46-22.4l234.9 381.75-32.27 5.43z"/><path fill="#482f1f" d="M264.23 50.63l-32.65-14 3.6-11.1 30.46 13.62-1.4 11.48z"/><path fill="#341f0e" d="M334.14 34.13l2.5 9.66-72.4 6.83 1.4-11.48 68.5-5.02z"/><path fill="#cabeb0" d="M290.03 21.57l44.1 12.56-68.5 5.02-30.8-13.63 55.2-3.95z"/><path fill="#2e3436" stroke="#2e3436" stroke-width="18.067" d="M255.3 224.7l-94.1 72.6L219 366.5l14.13 5.38.67.67h.67l63.86-51.75-28.23-84.02-14.8-12.1z"/><path fill="#b1b3b6" d="M160.96 297.14l94.4-72.23 14.73 11.82 28.02 84.04-63.6 51.68-14.55-6.95-59-68.36z"/><path fill="#e9e9ea" d="M255.36 224.9l14.73 11.82-89.5 68.3-19.64-7.88 94.4-72.23z"/><path fill="#c9cacc" d="M233.72 372.37l-53.1-66.6-19.66-8.63 58 69.32 14.76 5.9z"/><circle cx="282.505" cy="389.439" r=".272" fill="#6b6c6f" transform="matrix(34.734 0 0 34.729 -9554.075 -13249.761)"/><circle cx="281.207" cy="390.445" r=".272" fill="#6b6c6f" transform="matrix(34.734 0 0 34.729 -9554.075 -13249.761)"/><path fill="#596b6f" d="M313.83 360.63l18.37-4.36v3.63l-17.67 4.26-.7-3.53z"/><path fill="#596b6f" d="M304.27 259.28l18.4-4.35v3.64l-17.7 4.24-.7-3.52z"/><path fill="#596b6f" d="M296.84 193.5l18.4-4.36v3.66l-17.7 4.24-.7-3.54z"/><path fill="#596b6f" d="M292.6 147.86l18.4-4.34v3.63l-17.7 4.25-.7-3.54z"/><path fill="#596b6f" d="M288.87 108.6l18.4-4.36v3.67l-17.7 4.24-.7-3.54z"/></svg>