<svg xmlns="http://www.w3.org/2000/svg" width="48" height="48"><defs><marker orient="auto" overflow="visible"><path fill-rule="evenodd" stroke="#000" stroke-width=".4pt" d="M2.3 0l-3.45 2v-4L2.3 0z"/></marker><marker orient="auto" overflow="visible"><path fill-rule="evenodd" stroke="#000" stroke-width=".2pt" d="M1.15 0L-.58 1v-2l1.73 1z"/></marker><marker orient="auto" overflow="visible"><path fill-rule="evenodd" stroke="#000" stroke-width=".8pt" d="M4.62 0L-2.3 4v-8l6.92 4z"/></marker></defs><g><path fill="#2e3436" fill-rule="evenodd" stroke="#eeeeec" stroke-width="2" d="M2.72 30.23h11.3v11.3H2.73z" color="#000" overflow="visible"/><path fill="#2e3436" fill-rule="evenodd" stroke="#eeeeec" stroke-width="2" d="M11.2 7.6h11.3v11.32H11.2z" color="#000" overflow="visible"/><path fill="#2e3436" fill-rule="evenodd" stroke="#eeeeec" stroke-width="2" d="M25.34 33.05h11.3v11.3h-11.3z" color="#000" overflow="visible"/><path fill="#2e3436" fill-rule="evenodd" stroke="#eeeeec" stroke-width="2" d="M33.82 4.78h11.3v11.3h-11.3z" color="#000" overflow="visible"/><path fill="none" stroke="#204a87" stroke-width="2.827" d="M7.9 37.2c4.14-16.96 4.73-24.2 9.67-23.58 4.15.5 5.73 25.36 14.14 25.32 6.82-.04 6.76-17.24 7.78-28.5" stroke-linecap="round"/></g></svg>