<svg xmlns="http://www.w3.org/2000/svg" width="48" height="48" xmlns:xlink="http://www.w3.org/1999/xlink"><defs><linearGradient id="b"><stop offset="0" stop-color="#fff"/><stop offset=".819" stop-color="#e9ebe7"/><stop offset="1" stop-color="#acb4a5"/></linearGradient><linearGradient id="a"><stop offset="0"/><stop offset="1" stop-opacity="0"/></linearGradient><radialGradient id="c" cx="28.486" cy="34.767" r="30.748" xlink:href="#a" fx="28.486" fy="34.767" gradientTransform="matrix(1 0 0 .648 0 12.221)" gradientUnits="userSpaceOnUse"/><radialGradient id="d" cx="28.486" cy="34.767" r="30.748" xlink:href="#b" fx="28.486" fy="34.767" gradientTransform="matrix(1 0 0 .648 0 12.221)" gradientUnits="userSpaceOnUse"/></defs><g><path fill="url(#c)" d="M58.6 34.77a30.1 19.3 0 1 1-60.22 0 30.1 19.3 0 1 1 60.2 0z" transform="matrix(.781 0 0 .656 1.807 7.821)" color="#000" overflow="visible" enable-background="accumulate"/><path fill="url(#d)" stroke="#2e3436" stroke-width="1.292" d="M58.6 34.77a30.1 19.3 0 1 1-60.22 0 30.1 19.3 0 1 1 60.2 0z" transform="matrix(.781 0 0 .791 1.807 -3.77)" color="#000" overflow="visible" enable-background="accumulate"/><path fill="#2e3436" d="M14.68 19.73s2.34 1 9.15 1.08c5.67.08 9-1.1 9-1.1s-2.48 3.2-9.04 3.04c-7.4-.17-9.12-3-9.12-3z"/></g></svg>