<svg xmlns="http://www.w3.org/2000/svg" width="48" height="48" xmlns:xlink="http://www.w3.org/1999/xlink" version="1" viewBox="0 0 612 792" enable-background="new 0 0 612 792"><defs><radialGradient id="h" cx="417.595" cy="388.21" r="45.114" xlink:href="#a" gradientUnits="userSpaceOnUse" gradientTransform="matrix(1.047 0 0 1 -15.894 0)"/><radialGradient id="i" cx="404.099" cy="373.601" r="19.907" xlink:href="#b" gradientUnits="userSpaceOnUse" gradientTransform="matrix(.059 -.998 .732 .04 109.912 762.274)"/><radialGradient id="k" cx="415.745" cy="367.705" r="49.738" xlink:href="#c" gradientUnits="userSpaceOnUse" gradientTransform="matrix(1.03 -.181 .019 .098 -15.675 406.77)"/><radialGradient id="l" cx="411.537" cy="363.609" r="14.345" xlink:href="#d" gradientUnits="userSpaceOnUse" gradientTransform="matrix(1.047 0 0 .4 -15.894 218.165)"/><radialGradient id="e" cx="400.725" cy="364.601" r="38.566" gradientUnits="userSpaceOnUse" gradientTransform="matrix(1.047 0 0 1 -15.894 0)"><stop offset=".025" stop-color="#00B9F2"/><stop offset=".039" stop-color="#00B4ED"/><stop offset=".178" stop-color="#0092D0"/><stop offset=".319" stop-color="#0078BB"/><stop offset=".459" stop-color="#0065AB"/><stop offset=".598" stop-color="#0057A0"/><stop offset=".735" stop-color="#004C99"/><stop offset=".87" stop-color="#084694"/><stop offset="1" stop-color="#0B4393"/></radialGradient><radialGradient id="j" cx="400.725" cy="364.601" r="38.566" xlink:href="#e" gradientUnits="userSpaceOnUse" gradientTransform="matrix(17.763 0 0 16.966 -6992.696 -5919.895)"/><radialGradient id="g" cx="398.849" cy="378.017" r="19.734" gradientUnits="userSpaceOnUse" gradientTransform="matrix(1.047 0 0 1 -15.894 0)"><stop offset="0" stop-color="#fff"/><stop offset=".066" stop-color="#FFFDEC"/><stop offset=".224" stop-color="#FEF9CA"/><stop offset=".383" stop-color="#FEF6AC"/><stop offset=".541" stop-color="#FEF495"/><stop offset=".698" stop-color="#FEF385"/><stop offset=".852" stop-color="#FEF27A"/><stop offset="1" stop-color="#FEF276"/></radialGradient><radialGradient id="f" cx="412.648" cy="371.189" r="13.284" gradientUnits="userSpaceOnUse" gradientTransform="matrix(1.047 0 0 1 -15.894 0)"><stop offset="0" stop-color="#fff"/><stop offset=".066" stop-color="#FAF8E8"/><stop offset=".224" stop-color="#F2EEC1"/><stop offset=".383" stop-color="#EDE6A2"/><stop offset=".541" stop-color="#E9E18A"/><stop offset=".698" stop-color="#E6DD7A"/><stop offset=".852" stop-color="#E4DB70"/><stop offset="1" stop-color="#E3DA6C"/></radialGradient><radialGradient id="n" cx="412.648" cy="371.189" r="13.284" xlink:href="#f" gradientUnits="userSpaceOnUse" gradientTransform="matrix(17.763 0 0 16.966 -6992.696 -5919.895)"/><radialGradient id="m" cx="398.849" cy="378.017" r="19.734" xlink:href="#g" gradientUnits="userSpaceOnUse" gradientTransform="matrix(17.763 0 0 16.966 -6992.696 -5919.895)"/></defs><path fill="none" stroke="#225aa9" stroke-width="23.752" stroke-miterlimit="10" d="M315.42 780.82c-115.2 0-211.35-38.66-218.87-88.07l-36.68-169.8c-8.9-48.9-107.5-323.4-114.07-359.08 0-104.05 185.64-150.62 369.63-150.62 184 0 369.6 46.57 369.6 150.62 0 3.26-.18 6.5-.57 9.67-.3 30.4-10.32 57.64-29.73 81.1-.4 12.88-6.95 25.8-18.18 34.82-1.82 1.5-3.86 2.85-6.06 4.07L534 694.2c-8.48 47.33-106.63 86.62-218.58 86.62zM-7.18 265.36c-.2 14.07.9 40.1 6.7 66.26 7.15 32.37 28.46 72.2 42.7 92.78l-30.5-146.3c-3.88-2.73-15.37-9.9-18.9-12.74z" stroke-linecap="round" stroke-linejoin="round"/><path fill="none" d="M28.9 272.96l88 415.3c5.4 35.3 89.36 72.4 199.57 72.4 110.2 0 193.4-38.22 199.57-72.4L616.4 265.6c-121.54 85.2-441.65 96.6-587.5 7.36z"/><path fill="none" stroke="#e1f3f8" stroke-width="23.752" stroke-miterlimit="10" d="M665.54 172.42c.34-2.8.5-5.65.5-8.53 0-91.05-181.76-132.53-350.62-132.53-168.92 0-350.7 41.46-350.7 132.52 0 9.73 2.23 18.86 6.13 27.5-2.78-5.52 16.7 54.45 53.8 78.63l41.96 194.5C28.04 442-.4 400.97-14.93 335.3c-12.76-57.45-5.8-82.86-4.06-97.22-6.92-9.38-17.3-25.43-19.65-51.37-6.8 21.93-23.66 89.96-4.05 182.83C-27.8 440.1 16.15 487.46 76.43 510l38.87 180.2c5.4 35.35 89.58 72.55 200.12 72.55 110.5 0 193.95-38.3 200.1-72.56l98.58-409.45c3.5-1.12 7.3-2.76 10.25-5.12 9.28-7.47 12.87-18.32 10.92-26.93 19.06-20.7 30.13-45.9 30.27-76.28z" stroke-linecap="round" stroke-linejoin="round"/><g transform="matrix(16.966 0 0 16.966 -6723.042 -5919.895)"><path fill="#00ade8" d="M403.16 389.87c.2 1.36 2.38 2.76 5.66 3.57 2.4.6 4.92.78 7.4.67 3.92-.18 7.14-1.17 8.93-2.38.88-.6 1.42-1.23 1.53-1.85.26-1.18.5-2.36.77-3.54.47-2.2 1.2-4.37 1.66-6.56.52-2.36 1.13-4.7 1.64-7.06 1-4.57 2.5-9.13 3.5-13.72-1.9 0-4.64-.04-6.52-.04-3.78 0-7.56 0-11.34 0-2.8 0-5.6 0-8.38 0-3.84 0-7.68 0-11.52 0 1 4.58 1.98 9.16 2.97 13.74.5 2.36 1.02 4.7 1.52 7.06.48 2.2.95 4.4 1.42 6.6.25 1.17.5 2.35.76 3.53z"/><radialGradient id="a" cx="417.595" cy="388.21" r="45.114" gradientUnits="userSpaceOnUse" gradientTransform="matrix(1.047 0 0 1 -15.894 0)"><stop offset="0" stop-color="#0B4393"/><stop offset=".871" stop-color="#00B9F2" stop-opacity="0"/></radialGradient><path fill="url(#h)" d="M403.02 389.2c.2 1.34 2.33 2.7 5.55 3.5 2.35.58 4.8.77 7.24.66 3.84-.18 7-1.16 8.75-2.34.87-.58 1.4-1.2 1.5-1.8.25-1.17.5-2.33.75-3.48.47-2.15 1.16-4.28 1.63-6.43.5-2.3 1.1-4.6 1.6-6.9.97-4.48 2.45-8.95 3.42-13.43-1.85 0-4.54-.05-6.38-.05-3.7 0-7.4 0-11.1 0-2.74 0-5.47 0-8.2 0-3.76 0-7.53 0-11.28 0 .95 4.5 1.92 8.97 2.9 13.46.5 2.3 1 4.6 1.48 6.9.46 2.16.93 4.3 1.4 6.46.24 1.16.5 2.3.74 3.47z"/><radialGradient id="b" cx="404.099" cy="373.601" r="19.907" gradientUnits="userSpaceOnUse" gradientTransform="matrix(.059 -.998 .732 .04 109.912 762.274)"><stop offset="0" stop-color="#14BDEB"/><stop offset=".908" stop-color="#00B9F2" stop-opacity="0"/></radialGradient><path fill="url(#i)" d="M403.16 389.75c.2 1.35 2.38 2.75 5.66 3.56 2.4.6 4.92.8 7.4.68 3.92-.18 7.14-1.18 8.93-2.38.88-.6 1.42-1.24 1.53-1.85.26-1.2.5-2.37.77-3.55.47-2.2 1.2-4.37 1.66-6.56.52-2.35 1.13-4.7 1.64-7.06 1-4.58 2.5-9.14 3.5-13.72-1.9 0-4.64-.05-6.52-.05-3.78 0-7.56 0-11.34 0-2.8 0-5.6 0-8.38 0-3.84 0-7.68 0-11.52 0 1 4.6 1.98 9.18 2.97 13.76.5 2.35 1.02 4.7 1.52 7.06.48 2.2.95 4.4 1.42 6.58.25 1.18.5 2.37.76 3.55z"/></g><path fill="#5eb4e4" d="M316.45 333.18c-168.45 0-349.68-38.2-349.68-169.7C-33.23 72.67 148 31.3 316.45 31.3c168.4 0 349.65 41.35 349.65 132.15 0 133.7-181.25 169.7-349.65 169.7z"/><path fill="none" d="M-31.33 161.48c0-89.88 180.38-130.82 347.98-130.82 167.6 0 347.94 40.94 347.94 130.82"/><path fill="#3e5eab" d="M343.66 349.36c-28.77-.5-108.27-1-171.4-25 90.65 16 157.6 12 175.7 11.34 152.62-5.56 257.33-48.62 287.35-90.58-52.98 68.6-138.96 104.24-291.64 104.24z"/><path fill="#f4fbfe" d="M428.92 59.3c231.5 16.66 359.8 195.14-129 207.06 108-3.18 307.97-17.64 326.17-98.94 9.46-42.47-67.48-86.14-197.18-108.12z" opacity=".91"/><path fill="#fbfdff" d="M261.53 37.65c-234.3-6-449.78 146.85-117.1 214.46-101.5-22.64-244.8-95.57-91.04-165.5 40.27-18.3 82.07-35.74 208.13-48.95z" opacity=".91"/><path fill="#eaf6f8" d="M-35.73 216.8c-5.77 12.65-24.6 109.03 15.37 191.3-13.08-53.07-16.6-74.74-17.7-102.63-1.1-29.2 2.33-88.68 2.33-88.68z"/><path fill="url(#j)" d="M45.03 209.3c34.24 20.9 91.9 37.3 163 45.66 33.57 3.96 70.1 6.13 108.6 6.13 119.85 0 220.36-20.9 270.7-51.6 5.4-3.3 10.3-6.74 14.5-10.27 35.85-29.93 14.98-64.22-18.63-85.2-51.55-32.15-149.87-56.3-266.58-56.3-37.4 0-72.97 2.5-105.7 6.9-69.52 9.43-126.46 27.63-161.6 49.53C15.82 135-5.16 169.12 30.54 199c4.24 3.56 9.08 6.98 14.5 10.3z"/><path fill="none" stroke="#474fa1" stroke-width="3.393" stroke-miterlimit="10" d="M621.56 163.65c0 53.5-132.57 96.88-305.3 96.88-172.74 0-306.04-43.37-306.04-96.88 0-53.52 133.3-106.42 306.03-106.42 172.74 0 305.3 52.9 305.3 106.42z" stroke-linecap="round" stroke-linejoin="round"/><path fill="#eff8f9" d="M55.57 304.08c27.7 14.7 43.3 29.67 92.14 38.16-42.65 93.65 2.28 276.66 33.43 383.5-18.46-6.6-25.38-8.8-37.27-19.84-17.34-53.26-88.3-401.82-88.3-401.82z" opacity=".62"/><path fill="#3e5eab" d="M45.78 350.07c3.86 20.58 3.86 22.57 16.15 76.4 22.63 99 20.78 192.8 152.62 169.3C413.02 560.4 558.7 351.52 613.3 278.1c0 0-60.77 35.26-45 27.93-74.18 65.56-165.78 197.94-346.04 237.6-121.87 26.78-136.04-27.7-160.32-136.97-1.96-8.66-14.62-54.4-16.16-56.6z"/><g transform="matrix(16.966 0 0 16.966 -6723.042 -5919.895)"><radialGradient id="c" cx="415.745" cy="367.705" r="49.738" gradientUnits="userSpaceOnUse" gradientTransform="matrix(1.03 -.181 .019 .098 -15.675 406.77)"><stop offset="0" stop-color="#006AA7"/><stop offset=".908" stop-color="#00B9F2" stop-opacity="0"/></radialGradient><path fill="url(#k)" d="M397.4 364.4c3.9 2.87 10.23 4.36 17.6 4.18 1.08-.03 2.16-.1 3.25-.2 6.17-.6 10.02-.83 14.05-3.9.9-.66 1.74-1.44 2.26-2.3.6-1 .92-2.1.92-3.37-.57 4.1-7.53 6.44-15.55 7.1-1.65.15-3.34.22-5.03.22-9.93 0-19.6-2.6-20.62-7.4 0 1.23.3 2.34.9 3.33.53.9 1.27 1.67 2.2 2.36z"/><radialGradient id="d" cx="411.537" cy="363.609" r="14.345" gradientUnits="userSpaceOnUse" gradientTransform="matrix(1.047 0 0 .4 -15.894 218.165)"><stop offset="0" stop-color="#F6F6F6"/><stop offset=".908" stop-color="#00B9F2" stop-opacity="0"/></radialGradient><path fill="url(#l)" d="M397.5 364.37c3.9 2.86 10.24 4.35 17.6 4.16 1.08-.02 2.17-.1 3.26-.2 6.16-.6 10.02-.82 14.05-3.9.92-.65 1.75-1.43 2.27-2.3.6-.98.92-2.1.92-3.36-.58 4.1-7.54 6.42-15.57 7.1-1.64.14-3.34.2-5.02.2-9.92 0-19.6-2.6-20.62-7.4 0 1.24.32 2.35.9 3.34.54.9 1.28 1.68 2.22 2.37z"/></g><path fill="url(#m)" d="M11 465.04c49.7 48.87 127.07 66.96 214.36 51.4 55.34-9.9 105.1-28.62 149.22-51.57 49.38-25.76 91.75-56.87 127.07-86.85 7.67-6.53 15.05-13 22-19.36 35.24-31.9 62.12-60.82 80.42-78.37 0-.02 12.73-1.47 20-7.35 19.23-15.4 14.65-45.6-15.33-39.67-14.63 2.22-22.77 18-20.82 23.53-44.9 39.75-99.94 96.55-176.44 144-49.7 30.88-108.55 57.75-179.6 73.4C110 501 17.43 471.55-13.4 332.4c-12.7-57.23-5.75-82.6-4.02-96.9-6.9-9.36-17.3-25.36-19.6-51.25-6.77 21.87-23.63 89.7-4.05 182.32 6.43 30.45 18.22 56.6 34.46 78.26 5.35 7.24 11.25 13.98 17.6 20.2z"/><path fill="url(#n)" d="M168.6 522.02c10.38.53 36.27-.96 55.95-5 59.36-12 105.03-28.57 149.2-51.53 49.38-25.8 91.76-56.88 127.05-86.85 7.7-6.54 15.05-13 22.07-19.36 35.23-31.93 62.03-60.84 80.37-78.36 0-.02 12.7-1.46 20-7.36 19.23-15.4 14.65-45.6-15.3-39.65-14.62 2.2-22.46 18.54-20.37 24.3-43.6 42.08-92.47 109.9-168.97 157.35-49.74 30.84-107.75 57.96-177.9 76.8-101.83 27.27-144.38 13.32-200.85-5.36 59.27 34.66 86.67 31.32 93.44 32.65 9.05 1.86 24.9.13 35.3 2.35z"/><path fill="none" stroke="#9e8a31" stroke-width="12.375" stroke-miterlimit="10" d="M-34.6 179.87c-10.95 36.9-25.88 94.08-6.32 186.75 25.42 120.05 134.6 173.3 266.47 149.84 198.4-35.4 324.86-184.74 378.7-236.15 0 0 12.68-1.45 20-7.35 19.23-15.42 14.62-45.6-15.36-39.65-14.62 2.2-22.76 17.98-20.8 23.5-74.17 65.6-175.78 177.78-356.06 217.4-121.86 26.82-214.44-2.6-245.27-141.74-12.67-57.27-5.2-87.57-3.46-101.9-6.34-9.92-15.02-24.8-17.9-50.7z" stroke-linecap="round" stroke-linejoin="round"/></svg>