<svg xmlns="http://www.w3.org/2000/svg" width="48" height="48" version="1" viewBox="0 0 612 792" enable-background="new 0 0 612 792"><path fill="none" stroke="#7f4397" stroke-width="20.218" stroke-miterlimit="10" d="M301.65 777.46c-9.82 0-44.87-2.8-83.58-38.92-32.1-29.94-52.6-58.65-61.16-85.6-27.7 8.77-61.93 13.7-96.17 13.7-31.76 0-102.2-10.42-129.2-55.93-13-21.96-12.58-52.72 1.34-89 18.45-48.14 56.04-101.1 106.2-126.8-17.2-13.5-33.9-29.15-49.74-46.77-55.84-62.06-76.07-111.68-60.1-147.5 15-33.73 60.74-50.85 135.87-50.85 12.33 0 25.67.46 39.68 1.37 20.53 1.35 38.88 4.3 54.8 8.83 8.3-71.4 78.43-132.13 142.85-144.43l.92-.2 3.05-.05c26.46 0 46.56 15.1 55.74 28.07 2.68 3.77 4.92 7.14 6.9 10.1 7.42 11.2 9.04 13.32 15.78 14.92 15.53 3.6 33.22 35.07 41.3 55.35 5.74 14.32 12.53 36.83 11.08 60.15 33.82-17.6 76.54-20 97.4-20 15.03 0 51 1.2 60.12 12.7 5.3 6.68 11.37 9.3 34.74 10.54 26.96 1.4 43.94 12.43 53.34 34.7 21.17 31.06-2.27 55.47-10 63.52-10.18 10.64-10.3 12.9-10.77 21.28-.1 1.82-.22 3.83-.4 6.04-1.6 17.64-43.96 70.02-94.76 95.6 49.23 16 95.16 48.6 95.16 73.5-.02 13.47-.02 23.48 11.96 36 21.84 22.84 16 43.97 7.37 61.63-9.48 23.76-25.63 35.3-51.94 36.7-15.44.8-20 3.8-27.55 8.75-2.22 1.48-4.57 3-7.26 4.62-11.68 6.9-30.14 8.35-43.57 8.35-30.18 0-76.93-8.07-112.55-28.54 2.7 28.86-6 56.68-11.36 70.5-3.72 9.63-17.15 41.34-33.14 45.08-10.55 2.43-18.85 7.38-27.68 24.47-13.1 25.17-38.4 28.07-56.3 28.07-1.68 0-3.33 0-5-.07-.87.07-2 .13-3.37.13z"/><path fill="none" stroke="#f1eaf4" stroke-width="20.218" stroke-miterlimit="10" d="M304.67 765.35c21 .67 40.87-1.95 51.03-21.52 10.16-19.6 21.1-27.26 35.6-30.6 14.5-3.38 58.5-91.9 20.8-142.55 35.82 51.8 148.5 65.02 176.45 48.47 12.64-7.4 16.94-13.74 40.27-15 23.25-1.2 34.44-11.6 41.8-29.97 8.7-17.85 10.2-31.9-5.27-48.12-15.6-16.27-15.28-30.32-15.28-44.26 0-23.18-76.77-72.85-141.9-71.17 66.97 3.93 139.93-81 141.53-99 1.24-13.9-1.07-18.26 14.44-34.5 15.58-16.26 20.92-31.53 8.08-49.5-7.38-18.4-20.17-27.3-43.42-28.5-23.33-1.26-34.55-3.84-43.47-15.04-8.86-11.18-135.98-19.8-173.1 36.55 37.6-50.67-15.7-137.25-30.16-140.6-14.5-3.4-16.86-11.6-29.7-29.76-8.53-12.02-26.7-23.66-47.72-23C237 40.22 169.2 107.95 170.72 176.36c-16.3-6.45-38-11.42-66.74-13.26-197.08-12.74-204.7 67.14-105.8 177.04C20.8 365.18 43.1 384 63.22 397.8-13.27 421.76-92.3 547.17-58.2 604.6c31.94 53.8 156.02 59.25 223.56 32.67 4 23.82 20.6 55.02 60.84 92.56 37.64 35.07 71.93 36.33 78.47 35.52z"/><path fill="none" stroke="#808285" stroke-width="6.739" stroke-miterlimit="10" d="M304.55 487.84c-41.55 0-75.2-31.4-75.2-70.1 0-38.75 33.65-70.17 75.2-70.17v140.27z"/><path fill="#973d94" d="M304.15 763.5c21 .7 40.9-1.23 51.05-20.83 10.14-19.58 21.1-27.26 35.6-30.6 14.47-3.37 58.45-91.87 20.8-142.52 35.8 51.8 148.48 65 176.46 48.48 12.64-7.45 16.92-13.8 40.24-15.02 23.28-1.18 34.42-11.58 41.8-29.94 8.73-17.86 10.24-31.93-5.27-48.14-15.6-16.26-15.3-30.33-15.3-44.28 0-23.18-76.75-72.84-141.9-71.13 67 3.93 139.9-81.02 141.54-99.03 1.23-13.88-1.04-18.25 14.46-34.5 15.57-16.25 20.9-31.5 8.05-49.5-7.34-18.36-20.1-27.3-43.4-28.5-23.32-1.26-34.52-3.8-43.43-15-8.88-11.2-136-19.83-173.14 36.55 37.6-50.7-15.66-137.25-30.15-140.62-14.5-3.4-16.85-11.6-29.7-29.75-8.5-12.02-26.7-23.66-47.72-22.97V763.5h.02z"/><path fill="#95268c" d="M669.1 223.98c-16.37-19.96-35.58-18.68-59.08-21.55-23.5-2.83-33.43-11.37-33.43-15.65 0-4.26-139.53-24.92-197.9 86.1l-5 19.95s57.65-17.8 64.8-17.8c7.1 0 29.2-19.2 46.26-28.45 17.07-9.27 110.33-41.13 184.35-22.6z"/><path fill="#86268c" d="M666.44 223.98c-16.74-14.96-34.18-11.6-57.7-14.42-23.46-2.85-30-6.4-30-10.68 0-4.28-139.52-24.92-197.88 86.1l-5 19.96S419.27 285 426.4 285c7.1 0 32.74-24.9 49.8-34.14 17.1-9.27 116.2-45.4 190.24-26.88z"/><path fill="#95268c" d="M307.16 762.6c25.3-5.02 33.28-22.52 46.9-41.92 13.56-19.3 25.8-24.07 29.6-22.03 3.74 1.97 73.88-106.9 3.58-210.8l-15.18-13.8s2.38 54.86-1 61.15c-3.36 6.28 3.14 34.82 3.2 54.23.1 19.46-15.84 116.68-67.1 173.16z"/><path fill="#86268c" d="M308.43 760.26c21.07-7.7 26.33-24.63 39.93-44 13.56-19.38 19.8-23.46 23.62-21.4 3.76 1.95 72.33-109.18 2.02-213.1l-15.23-13.8s12.57 45.64 9.18 51.92c-3.33 6.27 6.54 40.62 6.64 60.03.06 19.46-14.9 123.82-66.17 180.36z"/><path fill="#95268c" d="M669.2 577.34c2.45-25.63-7.5-42.45-22.15-61-14.64-18.6-10.92-32.67-7.95-35.73 3.05-3-90.5-110.98-210.2-73.5l-17.6 10.6s53.4 28.08 58.44 33.08c5.05 5.06 34.25 7 52.88 12.5 18.65 5.48 107.16 48.75 146.57 114.06z"/><path fill="#86268c" d="M667.3 575.48c-1.28-22.4-11.52-36.4-26.16-55.03-14.66-18.58-12.05-26.72-9.05-29.73 3.02-3.02-90.52-111.04-210.22-73.55l-17.6 10.63s44.82 16.48 49.9 21.52c5.04 5 40.78 5.47 59.38 10.93 18.67 5.53 114.33 49.9 153.74 115.23z"/><path fill="#984a99" d="M669.1 224.5c10.15 28.3-5.84 40.33-19.47 59.63-13.63 19.3-14.2 32.22-11.14 34.97 3.06 2.74-75.34 119.86-193.94 91.84l-17.62-9.13s51.3-31.43 56.04-36.72c4.73-5.3 33.27-9.4 51.32-16.15 18.04-6.74 98.6-57.47 134.8-124.42z"/><path fill="#9c62a5" d="M668.03 226.63c6.94 24.03-10.36 35.13-24.03 54.45-13.65 19.3-15.8 25.87-12.74 28.65 3.07 2.7-75.38 119.84-193.93 91.8l-17.6-9.1s43.25-19.5 48.05-24.8c4.74-5.28 39.68-8.33 57.77-15.1 18.03-6.73 106.27-58.93 142.48-125.9z"/><path fill="#984a99" d="M308.36 30.07c30.02 1.6 34.9 20.98 47.44 41.05 12.5 20.05 24.22 25.56 27.96 23.8 3.7-1.75 69.83 114.46-1.94 212.95L366.6 320.6s2.38-58.07-.65-64.5c-3.05-6.44 4.23-34.3 4.98-53.56.8-19.26-14.84-113.18-62.57-172.47z"/><path fill="#9c62a5" d="M309.9 31.86c24.86 2.9 28.38 23.2 40.93 43.23 12.5 20.04 17.76 24.6 21.47 22.82 3.72-1.75 67.75 112.92-4 211.37L353.08 322s12.42-44.47 9.4-50.9c-3.04-6.44 7.66-39.84 8.4-59.13.8-19.22-13.2-120.77-60.96-180.1z"/><path fill="#984a99" d="M668.95 576.64c-14.94 26.07-34.5 21.7-58 23.8-23.58 2.13-33.75 10.07-33.85 14.2-.14 4.1-140.14 20.3-195.64-88.24L377 507.1s57.17 18.66 64.3 18.85c7.12.18 28.65 19.3 45.52 28.64 16.85 9.4 107.68 37.88 182.13 22.04z"/><path fill="#9c62a5" d="M666.66 577.2c-13.8 20.86-33.48 14.88-57.06 17-23.52 2.1-29.94 4.74-30.06 8.85-.1 4.1-140.13 20.27-195.56-88.2l-4.5-19.33s42.86 20.33 50 20.54c7.13.2 32.08 24.83 48.95 34.22 16.83 9.35 113.74 42.78 188.23 26.92z"/><path fill="#cbc3df" d="M669.3 224.17c-41-11.22-161.64-24-227.63 45.04-65.93 69 17.2 91.76 43.45 97.54 37.8 8.24 152.83-60.8 184.17-142.57z"/><path fill="#cbc3df" d="M669.3 577.86c-16.8-36.6-83.1-131.52-182.18-134.94-99.05-3.5-64.93 70.78-52.97 93.34 17.3 32.4 147.6 71.12 235.16 41.6z"/><path fill="#cbc3df" d="M305.6 763.16c29.45-28.83 96.84-123.06 61.26-209.3-17.83-43.18-41.7-50.1-63.24-43.9l1.97 253.2z"/><path fill="#cbc3df" d="M305.6 27.55c29.45 28.82 96.84 123.06 61.26 209.32-17.83 43.17-41.7 50.1-63.24 43.84l1.97-253.15z"/><path fill="#562c8e" d="M304.38 651.05c12.44.37 22.17-2.04 28.2-13.58 6-11.6 9-15.62 17.56-17.6 8.5-1.96 47.16-72.63 24.92-102.58 21.18 30.67 80.54 27.2 97.07 17.43 7.46-4.37 9.97-8.08 23.72-8.87 13.83-.64 20.4-6.82 24.75-17.72 5.17-10.52 6.05-18.8-3.15-28.43-9.17-9.6-8.95-17.9-8.95-26.12 0-13.7-27.46-43.06-65.96-42.04 39.58 2.35 64.73-47.86 65.7-58.5.7-8.18-.6-10.8 8.57-20.4 9.16-9.55 12.33-18.6 4.7-29.25-4.32-10.84-11.82-16.1-25.65-16.84-13.75-.7-20.4-2.26-25.64-8.83-5.2-6.64-73.17-22.7-95.12 10.62 22.27-29.94-16.4-98.9-24.92-100.9-8.56-2.02-9.92-6.85-17.56-17.58-5.07-7.1-15.77-14-28.2-13.57v494.75h-.02z"/><path fill="#602b8d" d="M312.42 170.27l-3.17 154.37s31.95 4.87 43.7-5.78c11.68-10.62 22.47-40.66 21.9-60.54-.63-20.33-16.27-52.52-33.97-61-5.4-2.57-8.53-16.1-11.78-21.03-7.06-10.66-16.68-6.03-16.68-6.03z"/><path fill="#69308f" d="M312.7 178.24L310 309.27s27.16 4.15 37.1-4.88c9.97-9 19.1-34.55 18.6-51.44-.54-17.27-13.8-44.58-28.86-51.8-4.6-2.16-7.22-13.62-10-17.8-5.96-9.1-14.1-5.12-14.1-5.12z"/><path fill="#6f4196" d="M312.17 193.27l-2.2 105s21.74 3.32 29.78-3.9c7.97-7.2 15.28-27.7 14.87-41.2-.42-13.84-11.06-35.74-23.13-41.5-3.7-1.75-5.77-10.95-8-14.3-4.8-7.27-11.33-4.1-11.33-4.1z"/><path fill="#2d2f8f" d="M311.66 629.75l.9-152.78s32.7-5.06 44.36 5.36c11.66 10.4 21.83 40.08 20.7 59.76-1.2 20.16-17.97 52.1-36.27 60.64-5.58 2.6-9.08 16-12.54 20.9-7.45 10.63-17.14 6.1-17.14 6.1z"/><path fill="#2d2f8f" d="M312.17 621.85l.74-129.68s27.8-4.3 37.68 4.56c9.9 8.78 18.53 34.02 17.52 50.7-1 17.12-15.24 44.26-30.78 51.5-4.7 2.2-7.67 13.6-10.6 17.75-6.35 9.05-14.55 5.17-14.55 5.17z"/><path fill="#332f8f" d="M312 606.96l.6-103.9s22.26-3.5 30.2 3.65c7.93 7.08 14.84 27.25 14.05 40.66-.83 13.7-12.23 35.45-24.68 41.23-3.8 1.76-6.15 10.9-8.5 14.2-5.08 7.27-11.67 4.16-11.67 4.16z"/><path fill="#602b8d" d="M509.35 509.47L378.75 452s-16.76 25.98-12.3 39.9c4.45 13.88 25.83 33.86 43.07 40.37 17.62 6.68 51.3 4.54 65.54-7.82 4.33-3.74 17.12-1.65 22.6-2.68 11.9-2.33 11.7-12.3 11.7-12.3z"/><path fill="#69308f" d="M502.46 506.86l-110.9-48.78s-14.22 22.07-10.45 33.88c3.78 11.8 21.98 28.76 36.6 34.27 14.97 5.68 43.54 3.86 55.6-6.62 3.7-3.2 14.5-1.4 19.2-2.33 10.14-1.92 9.96-10.4 9.96-10.4z"/><path fill="#6f4196" d="M489.8 501.08L400.96 462s-11.4 17.66-8.36 27.12c3.02 9.46 17.57 23.04 29.3 27.48 11.98 4.56 34.9 3.08 44.58-5.33 2.95-2.53 11.63-1.08 15.34-1.82 8.17-1.6 7.98-8.37 7.98-8.37z"/><path fill="#2d2f8f" d="M514.54 509.77l-139.8-61.7s8.4-32 22.6-38.5c14.18-6.57 45.45-4.07 63.04 4.8 18.03 9.14 40.66 37.26 41.18 57.43.17 6.14 11.07 14.7 14.22 19.8 6.8 11.13-1.24 18.17-1.24 18.17z"/><path fill="#2d2f8f" d="M507.5 506.2l-118.67-52.35s7.14-27.23 19.2-32.74c12.04-5.53 38.6-3.42 53.53 4.14 15.27 7.72 34.5 31.6 34.93 48.75.14 5.23 9.4 12.45 12.05 16.8 5.8 9.4-1.06 15.4-1.06 15.4z"/><path fill="#332f8f" d="M493.78 500.4l-95.08-41.95s5.66-21.78 15.4-26.25c9.62-4.43 30.88-2.75 42.88 3.32 12.25 6.18 27.63 25.36 28 39.04.1 4.2 7.53 10.02 9.64 13.5 4.63 7.54-.84 12.34-.84 12.34z"/><path fill="#602b8d" d="M511.25 311l-129 60.95s8.63 29.7 22.03 35.45c13.43 5.74 42.56 2.66 58.75-6.05 16.6-8.95 37.03-35.77 37.03-54.6 0-5.75 10-14 12.8-18.84 6.06-10.52-1.6-16.9-1.6-16.9z"/><path fill="#69308f" d="M504.76 314.5l-109.5 51.74s7.32 25.24 18.7 30.1c11.36 4.9 36.13 2.28 49.86-5.15 14.1-7.6 31.46-30.37 31.46-46.36 0-4.87 8.47-11.88 10.8-16 5.2-8.94-1.32-14.33-1.32-14.33z"/><path fill="#6f4196" d="M492.1 320.22l-87.77 41.47s5.86 20.22 15 24.12c9.13 3.94 28.96 1.83 40-4.1 11.28-6.1 25.18-24.36 25.18-37.17 0-3.9 6.78-9.48 8.7-12.8 4.12-7.18-1.1-11.53-1.1-11.53z"/><path fill="#2d2f8f" d="M509.2 307.62l-138.23 65.16s-18.65-27.38-14.3-42.36c4.37-15 26.78-37 45-44.43 18.7-7.64 54.77-6.3 70.36 6.52 4.75 3.9 18.36 1.27 24.24 2.28 12.84 2.14 12.92 12.82 12.92 12.82z"/><path fill="#2d2f8f" d="M501.87 310.6l-117.32 55.3s-15.87-23.22-12.15-35.97c3.7-12.7 22.7-31.4 38.2-37.7 15.85-6.5 46.48-5.32 59.7 5.55 4.05 3.32 15.6 1.06 20.6 1.92 10.92 1.8 10.97 10.9 10.97 10.9z"/><path fill="#332f8f" d="M488.47 317.17l-93.98 44.3s-12.75-18.58-9.73-28.83c2.98-10.17 18.18-25.14 30.6-30.2 12.7-5.2 37.26-4.27 47.84 4.46 3.25 2.68 12.5.84 16.53 1.53 8.7 1.47 8.74 8.74 8.74 8.74z"/><path fill="#8a7db8" d="M308.43 174.8l-.54 155.82c3.9 1.75 7.94-2.1 12.8-8.54C336 301.78 345.96 216 308.44 174.8z"/><path fill="#8a7db8" d="M308.68 633.95c14.32-16.45 36.6-74.1 23.6-119.14-13-44.98-18.58-30.96-27.33-20.23l3.73 139.38z"/><path fill="#8a7db8" d="M508.8 307.8c-21.15-8.05-82.33-5.37-120.87 27.64-18.24 15.63-23.36 25.86-22.3 32.84l143.03-60.22c.08-.1.13-.17.15-.27z"/><path fill="#8a7db8" d="M511.15 315.83L365.53 369.5c.8 7.82 9.36 11.92 16.4 14.67 27.52 10.7 103.36-10.13 129.22-68.34z"/><path fill="#8a7db8" d="M515.72 506.35c-7.23-21.4-48.04-67.1-98.03-75.94-23.63-4.18-34.82-1.64-39.54 3.6l137.24 72.4c.1 0 .25 0 .32-.05z"/><path fill="#8a7db8" d="M510.98 513.26L377.1 434.7c-5.5 5.57-3.25 14.8-.9 21.97 9.17 28.08 73.38 73.5 134.78 56.6z"/><path fill="#76c8ac" d="M311.78 347.57c37.7 0 68.2 31.42 68.2 70.16 0 38.72-30.5 70.1-68.2 70.1V347.58z"/><path fill="#99d4bf" d="M321.72 333.72c0 15.7-4.52 28.4-10.13 28.4v-56.8c5.6 0 10.12 12.7 10.12 28.4z"/><ellipse cx="337.919" cy="392.68" fill="#76c8ac" rx=".808" ry="1.472" transform="matrix(16.849 0 0 16.849 -5362.682 -6279.921)"/><ellipse cx="339.249" cy="393.752" fill="#99d4bf" rx="1.016" ry="1.258" transform="matrix(16.849 0 0 16.849 -5362.682 -6279.921)"/><ellipse cx="340.446" cy="395.135" fill="#76c8ac" rx="1.226" ry="1.046" transform="matrix(16.849 0 0 16.849 -5362.682 -6279.921)"/><ellipse cx="341.264" cy="396.475" fill="#99d4bf" rx="1.433" ry=".831" transform="matrix(16.849 0 0 16.849 -5362.682 -6279.921)"/><path fill="#76c8ac" d="M391.3 428.5c-15.2 0-27.64-4.64-27.64-10.44 0-5.7 12.4-10.37 27.63-10.37 15.27 0 27.64 4.67 27.64 10.36-.02 5.8-12.37 10.43-27.65 10.43z"/><path fill="#99d4bf" d="M391.35 453.03c-13.24 0-24.07-6.27-24.07-14.02 0-7.7 10.83-14 24.07-14 13.37 0 24.17 6.3 24.17 14-.02 7.76-10.8 14.03-24.17 14.03z"/><ellipse cx="340.65" cy="400.127" fill="#76c8ac" rx="1.224" ry="1.045" transform="matrix(16.849 0 0 16.849 -5362.682 -6279.921)"/><ellipse cx="339.599" cy="401.603" fill="#99d4bf" rx="1.017" ry="1.259" transform="matrix(16.849 0 0 16.849 -5362.682 -6279.921)"/><ellipse cx="338.032" cy="402.142" fill="#76c8ac" rx=".809" ry="1.471" transform="matrix(16.849 0 0 16.849 -5362.682 -6279.921)"/><path fill="#99d4bf" d="M321.82 503.5c0 15.7-5.66 28.43-12.6 28.43V475.1c6.94 0 12.6 12.75 12.6 28.4z"/><path fill="#f9ad6b" d="M311.44 447.36c14.7 0 26.64-12.26 26.64-27.4 0-15.1-11.93-27.37-26.64-27.37v54.76z"/><ellipse cx="337.287" cy="395.536" fill="#e8c11f" rx=".553" ry=".567" transform="matrix(16.849 0 0 16.849 -5362.682 -6279.921)"/><ellipse cx="338.295" cy="396.037" fill="#e8c11f" rx=".552" ry=".566" transform="matrix(16.849 0 0 16.849 -5362.682 -6279.921)"/><path fill="#e8c11f" d="M353.93 396c0 5.27-4.23 9.53-9.3 9.53-5.17 0-9.3-4.26-9.3-9.54 0-5.28 4.13-9.54 9.3-9.54 5.07-.02 9.3 4.26 9.3 9.53z"/><ellipse cx="338.878" cy="397.005" fill="#ffe500" rx=".552" ry=".569" transform="matrix(16.849 0 0 16.849 -5362.682 -6279.921)"/><path fill="#e8c11f" d="M356.88 428.24c0 5.27-4.2 9.55-9.3 9.55-5.2 0-9.37-4.3-9.37-9.56 0-5.26 4.2-9.54 9.37-9.54 5.1 0 9.3 4.28 9.3 9.54z"/><path fill="#e8c11f" d="M347.57 445.1c0 5.3-4.2 9.58-9.36 9.58-5.1 0-9.3-4.28-9.3-9.6 0-5.2 4.2-9.53 9.3-9.53 5.17 0 9.37 4.33 9.37 9.54z"/><ellipse cx="337.384" cy="399.71" fill="#ffe500" rx=".552" ry=".568" transform="matrix(16.849 0 0 16.849 -5362.682 -6279.921)"/><ellipse cx="338.328" cy="400.278" fill="#ffe500" rx=".552" ry=".566" transform="matrix(16.849 0 0 16.849 -5362.682 -6279.921)"/><path fill="#ffe500" d="M366.17 445.1c0 5.3-4.2 9.58-9.3 9.58-5.2 0-9.3-4.28-9.3-9.6 0-5.2 4.1-9.53 9.3-9.53 5.1 0 9.3 4.33 9.3 9.54z"/><path fill="#ffe500" d="M372.72 418.06c0 5.33-4.16 9.6-9.33 9.6-5.12 0-9.3-4.27-9.3-9.6 0-5.24 4.18-9.53 9.3-9.53 5.16 0 9.32 4.3 9.32 9.53z"/><path fill="#e8c11f" d="M365.07 391.68c0 5.26-4.16 9.57-9.33 9.57-5.1 0-9.3-4.33-9.3-9.57 0-5.3 4.2-9.57 9.3-9.57 5.17 0 9.33 4.27 9.33 9.58z"/><ellipse cx="338.449" cy="396.352" fill="#e8c11f" rx=".553" ry=".566" transform="matrix(16.849 0 0 16.849 -5362.682 -6279.921)"/><path fill="#e8c11f" d="M340 391.12c0 5.26-4.16 9.56-9.33 9.56-5.1 0-9.32-4.32-9.32-9.56 0-5.27 4.2-9.58 9.32-9.58 5.17 0 9.33 4.3 9.33 9.58z"/><ellipse cx="337.278" cy="395.812" fill="#e8c11f" rx=".553" ry=".567" transform="matrix(16.849 0 0 16.849 -5362.682 -6279.921)"/><path fill="#e8c11f" d="M330.4 371.92c0 5.27-4.18 9.55-9.34 9.55-5.1 0-9.32-4.3-9.32-9.55 0-5.28 4.22-9.56 9.32-9.56 5.16 0 9.34 4.27 9.34 9.56z"/><path fill="#ffe500" d="M342.33 372.2c0 5.3-4.2 9.6-9.3 9.6-5.14 0-9.32-4.3-9.32-9.6 0-5.27 4.2-9.52 9.34-9.52 5.1 0 9.3 4.27 9.3 9.52z"/><path fill="#ffe500" d="M320.17 471.58c0 5.25-4.18 9.55-9.32 9.55v-19.17c5.14 0 9.32 4.3 9.32 9.62z"/><path fill="#e8c11f" d="M335.2 471.37c0 5.24-4.2 9.54-9.32 9.54s-9.28-4.3-9.28-9.53c0-5.32 4.16-9.57 9.28-9.57 5.12 0 9.32 4.25 9.32 9.57z"/><path fill="#e8c11f" d="M322.38 473.5c0 5.27-4.18 9.57-9.32 9.57-5.1 0-9.28-4.32-9.28-9.56 0-5.3 4.17-9.56 9.28-9.56 5.14 0 9.32 4.25 9.32 9.57z"/><ellipse cx="339.123" cy="399.96" fill="#e8c11f" rx=".552" ry=".566" transform="matrix(16.849 0 0 16.849 -5362.682 -6279.921)"/><path fill="#e8c11f" d="M355.94 452.44c0 5.3-4.16 9.55-9.3 9.55-5.1 0-9.3-4.27-9.3-9.56 0-5.28 4.2-9.52 9.3-9.52 5.14 0 9.3 4.26 9.3 9.52z"/><ellipse cx="337.623" cy="400.434" fill="#e8c11f" rx=".552" ry=".566" transform="matrix(16.849 0 0 16.849 -5362.682 -6279.921)"/><path fill="#e8c11f" d="M325.53 460.46c0 5.27-4.15 9.55-9.32 9.55-5.08 0-9.3-4.27-9.3-9.54 0-5.28 4.22-9.56 9.3-9.56 5.18 0 9.33 4.28 9.33 9.56z"/><ellipse cx="337.275" cy="398.469" fill="#e8c11f" rx=".552" ry=".567" transform="matrix(16.849 0 0 16.849 -5362.682 -6279.921)"/><ellipse cx="338.226" cy="397.962" fill="#e8c11f" rx=".553" ry=".566" transform="matrix(16.849 0 0 16.849 -5362.682 -6279.921)"/><path fill="#e8c11f" d="M344.2 405.46c0 5.28-4.13 9.54-9.3 9.54-5.08 0-9.3-4.26-9.3-9.54 0-5.27 4.22-9.53 9.3-9.53 5.17 0 9.3 4.28 9.3 9.53z"/><ellipse cx="337.466" cy="397.201" fill="#e8c11f" rx=".553" ry=".567" transform="matrix(16.849 0 0 16.849 -5362.682 -6279.921)"/><ellipse cx="337.275" cy="397.803" fill="#e8c11f" rx=".552" ry=".567" transform="matrix(16.849 0 0 16.849 -5362.682 -6279.921)"/><ellipse cx="337.117" cy="397.043" fill="#e8c11f" rx=".552" ry=".567" transform="matrix(16.849 0 0 16.849 -5362.682 -6279.921)"/><ellipse cx="337.117" cy="396.536" fill="#e8c11f" rx=".552" ry=".566" transform="matrix(16.849 0 0 16.849 -5362.682 -6279.921)"/><path fill="#e8c11f" d="M368.4 430.04c0 5.3-4.17 9.57-9.33 9.57-5.1 0-9.3-4.27-9.3-9.56 0-5.25 4.2-9.53 9.3-9.53 5.16 0 9.34 4.3 9.34 9.54z"/><ellipse cx="338.099" cy="399.546" fill="#e8c11f" rx=".552" ry=".567" transform="matrix(16.849 0 0 16.849 -5362.682 -6279.921)"/><ellipse cx="339.018" cy="398.753" fill="#e8c11f" rx=".552" ry=".567" transform="matrix(16.849 0 0 16.849 -5362.682 -6279.921)"/><ellipse cx="339.493" cy="396.916" fill="#e8c11f" rx=".552" ry=".567" transform="matrix(16.849 0 0 16.849 -5362.682 -6279.921)"/><ellipse cx="339.983" cy="398.424" fill="#ffe500" rx=".553" ry=".568" transform="matrix(16.849 0 0 16.849 -5362.682 -6279.921)"/><path fill="#ffe500" d="M371.4 404.8c0 5.28-4.14 9.54-9.36 9.54-5.07 0-9.23-4.28-9.23-9.54 0-5.3 4.17-9.55 9.24-9.55 5.22 0 9.37 4.26 9.37 9.55z"/><path fill="#ffe500" d="M352.7 406.93c0 5.27-4.1 9.55-9.33 9.55-5.1 0-9.23-4.3-9.23-9.55 0-5.26 4.12-9.56 9.23-9.56 5.22 0 9.33 4.28 9.33 9.56z"/><path fill="#ffe500" d="M338.26 395.72c0 5.28-4.1 9.54-9.3 9.54-5.1 0-9.25-4.28-9.25-9.54 0-5.27 4.16-9.53 9.25-9.53 5.22 0 9.3 4.23 9.3 9.52z"/><path fill="#ffe500" d="M354.84 417.1c0 5.26-4.1 9.52-9.33 9.52-5.08 0-9.22-4.28-9.22-9.53 0-5.3 4.14-9.58 9.23-9.58 5.23-.02 9.34 4.28 9.34 9.57z"/><path fill="#ffe500" d="M332.96 419.75c0 5.27-4.13 9.55-9.34 9.55-5.1 0-9.25-4.28-9.25-9.55 0-5.27 4.16-9.57 9.25-9.57 5.2-.02 9.34 4.28 9.34 9.57z"/><path fill="#ffe500" d="M326.02 401.06c0 5.28-4.13 9.54-9.34 9.54-5.1 0-9.25-4.28-9.25-9.54 0-5.27 4.16-9.58 9.25-9.58 5.2 0 9.34 4.3 9.34 9.58z"/><path fill="#ffe500" d="M329.8 385.18c0 5.27-4.12 9.55-9.34 9.55-5.1 0-9.24-4.3-9.24-9.55 0-5.28 4.13-9.57 9.24-9.57 5.22 0 9.33 4.3 9.33 9.58z"/><path fill="#ffe500" d="M355.92 388.92c0 5.27-4.08 9.57-9.3 9.57-5.1 0-9.25-4.3-9.25-9.58s4.16-9.57 9.25-9.57c5.22-.02 9.3 4.3 9.3 9.57z"/><path fill="#ffe500" d="M331.9 466.88c0 5.25-4.08 9.53-9.3 9.53-5.1 0-9.25-4.28-9.25-9.52 0-5.28 4.14-9.6 9.25-9.6 5.22-.03 9.3 4.3 9.3 9.6z"/><path fill="#f9db00" d="M338.55 457.22c0 3.22-2.5 5.83-5.68 5.83-3.1 0-5.62-2.6-5.62-5.83 0-3.2 2.52-5.83 5.62-5.83 3.17 0 5.68 2.62 5.68 5.82z"/><ellipse cx="338.1" cy="398.659" fill="#f9db00" rx=".335" ry=".346" transform="matrix(16.849 0 0 16.849 -5362.682 -6279.921)"/><path fill="#ffe500" d="M349 433.2c0 5.3-4.1 9.6-9.34 9.6-5.1 0-9.23-4.3-9.23-9.6 0-5.25 4.14-9.54 9.23-9.54 5.23-.02 9.34 4.3 9.34 9.55z"/><path fill="#ffe500" d="M338.85 442.3c0 5.27-4.12 9.56-9.3 9.56-5.12 0-9.28-4.3-9.28-9.57 0-5.26 4.16-9.58 9.27-9.58 5.2 0 9.3 4.32 9.3 9.57z"/><path fill="#ffe500" d="M329.23 449.77c0 5.28-4.1 9.56-9.3 9.56-5.1 0-9.25-4.28-9.25-9.56 0-5.27 4.15-9.57 9.25-9.57 5.2 0 9.3 4.28 9.3 9.57z"/><path fill="#ffe500" d="M355.77 381.33c0 5.28-4.14 9.56-9.3 9.56-5.07 0-9.28-4.3-9.28-9.57 0-5.3 4.2-9.55 9.27-9.55 5.16 0 9.3 4.26 9.3 9.55z"/><ellipse cx="337.239" cy="394.4" fill="#ffe500" rx=".553" ry=".568" transform="matrix(16.849 0 0 16.849 -5362.682 -6279.921)"/><ellipse cx="338.348" cy="395.129" fill="#ffe500" rx=".552" ry=".568" transform="matrix(16.849 0 0 16.849 -5362.682 -6279.921)"/><ellipse cx="337.783" cy="398.943" fill="#f9db00" rx=".335" ry=".346" transform="matrix(16.849 0 0 16.849 -5362.682 -6279.921)"/><ellipse cx="338.575" cy="398.151" fill="#f9db00" rx=".335" ry=".346" transform="matrix(16.849 0 0 16.849 -5362.682 -6279.921)"/><path fill="#f9db00" d="M330.95 402.26c0 3.2-2.5 5.83-5.68 5.83-3.1 0-5.6-2.62-5.6-5.84 0-3.22 2.5-5.85 5.6-5.85 3.17 0 5.68 2.64 5.68 5.86z"/><path fill="#f9db00" d="M341.08 378.8c0 3.2-2.48 5.8-5.65 5.8-3.15 0-5.6-2.6-5.6-5.8 0-3.24 2.45-5.86 5.6-5.86 3.17 0 5.65 2.62 5.65 5.85z"/><ellipse cx="338.859" cy="395.935" fill="#f9db00" rx=".335" ry=".345" transform="matrix(16.849 0 0 16.849 -5362.682 -6279.921)"/><path fill="#f9db00" d="M369.38 405.46c0 3.2-2.5 5.85-5.66 5.85-3.1 0-5.6-2.62-5.6-5.84 0-3.22 2.5-5.83 5.6-5.83 3.17 0 5.66 2.6 5.66 5.83z"/><path fill="#f9db00" d="M350.72 403.84c0 3.2-2.5 5.87-5.68 5.87-3.1 0-5.6-2.64-5.6-5.86 0-3.2 2.5-5.83 5.6-5.83 3.17.03 5.68 2.64 5.68 5.84z"/><path fill="#f9db00" d="M336.82 396.38c0 3.18-2.5 5.85-5.68 5.85-3.1 0-5.6-2.65-5.6-5.85 0-3.22 2.5-5.83 5.6-5.83 3.18 0 5.68 2.6 5.68 5.83z"/><path fill="#f9db00" d="M325.07 386.24c0 3.2-2.5 5.86-5.68 5.86-3.12 0-5.6-2.64-5.6-5.86s2.48-5.83 5.6-5.83c3.18.02 5.67 2.64 5.67 5.84z"/><ellipse cx="337.529" cy="394.572" fill="#f9db00" rx=".335" ry=".346" transform="matrix(16.849 0 0 16.849 -5362.682 -6279.921)"/><ellipse cx="338.859" cy="398.024" fill="#f9db00" rx=".335" ry=".347" transform="matrix(16.849 0 0 16.849 -5362.682 -6279.921)"/><path fill="#f9db00" d="M368.3 432.67c0 3.2-2.45 5.85-5.64 5.85-3.1 0-5.6-2.63-5.6-5.85 0-3.18 2.5-5.84 5.6-5.84 3.17 0 5.65 2.66 5.65 5.84z"/><path fill="#f9db00" d="M326.67 446.57c0 3.2-2.47 5.85-5.68 5.85-3.1 0-5.6-2.63-5.6-5.85 0-3.18 2.5-5.84 5.6-5.84 3.18 0 5.67 2.64 5.67 5.84z"/><path fill="#f9db00" d="M334.68 443.9c0 3.2-2.5 5.84-5.68 5.84-3.1 0-5.6-2.63-5.6-5.85 0-3.22 2.5-5.85 5.6-5.85 3.17 0 5.68 2.64 5.68 5.84z"/><path fill="#f9db00" d="M330.95 459.38c0 3.18-2.5 5.84-5.68 5.84-3.1 0-5.6-2.64-5.6-5.84 0-3.2 2.5-5.85 5.6-5.85 3.17.02 5.68 2.65 5.68 5.85z"/><path fill="#f9db00" d="M357.64 454.6c0 3.18-2.5 5.82-5.66 5.82-3.12 0-5.6-2.63-5.6-5.83 0-3.24 2.48-5.85 5.6-5.85 3.15 0 5.66 2.6 5.66 5.84z"/><path fill="#f9db00" d="M351.24 444.96c0 3.2-2.5 5.84-5.68 5.84-3.1 0-5.6-2.63-5.6-5.84 0-3.2 2.5-5.85 5.6-5.85 3.17 0 5.68 2.65 5.68 5.86z"/><ellipse cx="338.227" cy="397.74" fill="#f9db00" rx=".335" ry=".345" transform="matrix(16.849 0 0 16.849 -5362.682 -6279.921)"/><path fill="#f9db00" d="M324 434.3c0 3.2-2.47 5.84-5.65 5.84-3.12 0-5.6-2.63-5.6-5.85 0-3.2 2.48-5.86 5.6-5.86 3.17 0 5.66 2.67 5.66 5.85z"/><path fill="#f9db00" d="M355.5 432.67c0 3.2-2.5 5.85-5.68 5.85-3.1 0-5.6-2.63-5.6-5.85 0-3.18 2.5-5.84 5.6-5.84 3.17 0 5.68 2.66 5.68 5.84z"/><path fill="none" stroke="#b22d16" stroke-width="16.849" stroke-miterlimit="10" d="M305.32 10.97v769.78" stroke-linecap="round" stroke-linejoin="round"/></svg>