<svg xmlns="http://www.w3.org/2000/svg" width="48" height="48" xmlns:xlink="http://www.w3.org/1999/xlink" version="1" viewBox="0 0 612 792" enable-background="new 0 0 612 792"><defs><linearGradient id="d"><stop offset="0" stop-color="#fff"/><stop offset="1" stop-color="#b1f1ff"/></linearGradient><linearGradient id="c"><stop offset="0" stop-color="#84cdb8"/><stop offset="1" stop-color="#cce5de"/></linearGradient><linearGradient id="b"><stop offset="0" stop-color="#6ab163"/><stop offset="1" stop-color="#add6b6"/></linearGradient><linearGradient id="a"><stop offset="0" stop-color="#0ba647"/><stop offset="1" stop-color="#86c5b9"/></linearGradient><linearGradient><stop offset="0" stop-opacity=".559"/><stop offset="1" stop-opacity="0"/></linearGradient><linearGradient><stop offset="0" stop-opacity=".351"/><stop offset="1" stop-opacity="0"/></linearGradient><linearGradient id="h" x1="527.759" x2="523.75" y1="777.299" y2="508.111" xlink:href="#a" gradientUnits="userSpaceOnUse"/><linearGradient id="g" x1="496.623" x2="498.886" y1="535.103" y2="368.041" xlink:href="#b" gradientUnits="userSpaceOnUse"/><linearGradient id="f" x1="285.505" x2="286.335" y1="454.44" y2="242.298" xlink:href="#c" gradientUnits="userSpaceOnUse"/><linearGradient id="e" x1="296.65" x2="297.05" y1="240.63" y2="17.88" xlink:href="#d" gradientUnits="userSpaceOnUse"/></defs><path fill="url(#e)" d="M-85.2 10.23h779.13V418H-85.2z"/><path fill="url(#SVGID_1_)" d="M-68.4 19.73h747.3V404.5H-68.4z"/><path fill="url(#f)" d="M689.4 328.02c-47.5-9.55-72.9-20.48-123.12-35.5-50.25-15.03-59.67-12.57-82.84-19.13-43.42-12.3-50.64-24.2-81.46-43.7-36.66-23.23-57.03-24.6-78.75-8.2-21.72 16.38-80.1 34.13-122.2 13.64-42.08-20.48-134.42-87.4-199.6-32.77-65.16 54.62-73.3 53.26-80.1 62.8l.16 256.05 384.1 124.95 382.54-1.36 1.27-316.78z"/><path fill="url(#SVGID_2_)" d="M-68.4 21.05h747.64v532.98H-68.4z"/><path fill="url(#g)" d="M689.24 393.9c-52.95-26.97-93.1-45.33-137.9-37.22-44.8 8.12-73.32 20.24-80.12 27-6.8 6.74-66.52 78.22-99.1 74.18-32.6-4.04-110-5.38-133.07-1.35-23.1 4.06-58.38 8.12-80.12 35.1-21.72 27-74.7 41.85-80.1 40.5-5.44-1.37-130.36 10.8-137.15 9.43-6.8-1.36 202.3 147.05 298.7 145.7 96.4-1.34 195.52 87.7 247.12 87.7 51.6 0 202.3 2.4 202.3 2.4l-.56-383.43z"/><path fill="url(#h)" d="M689.4 559.58s-91.9-48.6-132.64-51.3c-40.73-2.7-57.02 28.35-69.24 32.4-12.22 4.07-40.72 2.68-58.38 0-17.66-2.7-39.37 4.06-57.03 10.8-17.65 6.76-100.47 97.2-192.8 98.56-92.3 1.36 175.17 44.57 210.47 67.5 35.3 22.97 88.26 58.05 104.56 58.05 16.3 0 195.6 1.7 195.6 1.7l-.52-217.72z"/><path fill="url(#SVGID_3_)" d="M-68.4 20.07h747.97v749.27H-68.4z"/><path fill="#49943e" d="M-78.33 509.65c100.9 1.4 143.6 52.5 238.63 65.55 149.36 20.48 153.68 111.63 259.34 139.3 105 27.47 79.6 62.54 125.93 62.54 46.4 0-623.72-.4-623.72-.4l-.18-267z"/><path fill="none" stroke="#007786" stroke-width="16.5" stroke-miterlimit="10" d="M-82.42 8.65h776v774.78h-776z"/></svg>