<svg xmlns="http://www.w3.org/2000/svg" width="48" height="48" xmlns:xlink="http://www.w3.org/1999/xlink"><defs><linearGradient id="g"><stop offset="0" stop-color="#c8c9c7"/><stop offset="1" stop-color="#7a7c77"/></linearGradient><linearGradient id="f"><stop offset="0" stop-color="#354d6c"/><stop offset="1" stop-color="#888a85"/></linearGradient><linearGradient id="e"><stop offset="0" stop-color="#5b7786"/><stop offset="1" stop-color="#656763"/></linearGradient><linearGradient id="d"><stop offset="0" stop-color="#d6d8d4"/><stop offset="1" stop-color="#7d8276"/></linearGradient><linearGradient id="c"><stop offset="0" stop-color="#d3d7cf"/><stop offset="1" stop-color="#868f92"/></linearGradient><linearGradient id="b"><stop offset="0" stop-color="#555753"/><stop offset="1" stop-color="#30312f"/></linearGradient><linearGradient id="a"><stop offset="0" stop-color="#afb1ad"/><stop offset=".229" stop-color="#7f827b"/><stop offset=".687" stop-color="#737670"/><stop offset="1" stop-color="#404040"/></linearGradient><linearGradient id="k" x1="14.804" x2="24.239" y1="7.953" y2="27.903" xlink:href="#a" gradientUnits="userSpaceOnUse" gradientTransform="matrix(1.1 0 0 1.1 -2.333 2.562)"/><radialGradient id="m" cx="14.391" cy="24.187" r="13.48" xlink:href="#b" fx="14.391" fy="24.187" gradientTransform="matrix(1.252 .466 -.209 .56 .69 9.838)" gradientUnits="userSpaceOnUse"/><radialGradient id="n" cx="14.391" cy="24.187" r="13.48" xlink:href="#b" gradientUnits="userSpaceOnUse" gradientTransform="matrix(1.113 .415 -.185 .498 2.342 12.161)" fx="14.391" fy="24.187"/><linearGradient id="o" x1="15.356" x2="9.501" y1="16.109" y2="29.717" xlink:href="#c" gradientUnits="userSpaceOnUse" gradientTransform="matrix(1.1 0 0 1.1 -2.333 2.562)"/><linearGradient id="l" x1="9.753" x2="31.663" y1="12.751" y2="37.348" xlink:href="#d" gradientUnits="userSpaceOnUse" gradientTransform="matrix(1.1 0 0 1.1 -.056 .95)"/><linearGradient id="h" x1="14.602" x2="34.917" y1="13.38" y2="13.273" xlink:href="#e" gradientUnits="userSpaceOnUse" gradientTransform="matrix(1.155 0 0 1.215 -2.454 .075)"/><linearGradient id="i" x1="33.845" x2="43.634" y1="23.984" y2="23.984" xlink:href="#f" gradientUnits="userSpaceOnUse" gradientTransform="matrix(1.128 0 0 1.114 -1.295 .746)"/><linearGradient id="j" x1="32.31" x2="26.744" y1="1.604" y2="15.493" xlink:href="#g" gradientUnits="userSpaceOnUse" gradientTransform="matrix(1.103 0 0 1 -4.503 0)"/></defs><g><path fill="#555753" stroke="#2e3436" d="M43.55 13.14l-5.36-1.76S34.13 1.18 30.43.82l5.16 1.02c5.2.83 7.95 11.3 7.95 11.3z"/><path fill="url(#h)" stroke="#2e3436" d="M15 14.58s13.43-6.5 25.14-2.95c7.84 2.38 8.28 6.5 6.2 10.36-1-1.7-3.1-2.95-6.3-3.92-11.72-3.55-24.33 1.35-24.33 1.35z" color="#000" overflow="visible" enable-background="accumulate"/><path fill="none" stroke="#729fcf" stroke-width=".5" d="M15.82 14.68s12.83-5.65 23.6-2.75c7.18 1.94 8 5.57 6.83 8.93-.94-1.37-4-2.87-6.95-3.67-10.75-2.9-22.05 1.4-22.05 1.4z" color="#000" overflow="visible" enable-background="accumulate"/><path fill="url(#i)" stroke="#2e3436" d="M37.46 29.35v8.33c3.97-3.16 9.5-8.27 9.86-13.34l.06-7.1c-1.98 6.3-5.75 8.96-9.92 12.1z"/><path fill="none" stroke="#729fcf" stroke-width=".5" d="M37.15 30.36l.2 6.18c2.67-2.2 9.03-7.92 9.28-11.46l.07-4.74c-1.33 4.38-6.75 7.82-9.55 10.02z"/><path fill="url(#j)" stroke="#2e3436" d="M19.38 15.1C19.33 10.66 23.03 1 30.25.83L36 1.92c-6.22.45-8.12 10.55-7.8 15.42z"/><path fill="none" stroke="#729fcf" stroke-width=".5" d="M19.83 15.43c-.04-4.4 3.6-13.28 10.2-14.36l3.84.8c-4.65 2.43-6.85 10.5-6.47 15.75z" color="#000" overflow="visible" enable-background="accumulate"/><path fill="url(#k)" stroke="#2e3436" d="M13.5 13.1l20.67 5.58c1.94.52 3.38 2.9 3.38 4.92l-.06 15.95c0 1-.38 1.86-1.03 2.25l-8.3 4.85L2.72 15.9l8.18-2.48c.76-.23 1.52-.62 2.6-.33z" color="#000" overflow="visible" enable-background="accumulate"/><path fill="none" stroke="url(#l)" d="M13.9 14.1l19.42 5.25c2.08.56 3.18 2.44 3.17 4.63l-.06 14.98c0 .95-.35 1.75-.96 2.12l-7.8 4.55-23.9-28.87 7.68-2.34c.7-.22 1.43-.58 2.43-.3z" color="#000" overflow="visible" enable-background="accumulate"/><path fill="url(#m)" stroke="#2e3436" d="M3.93 16.2c6.67 2.48 13.77 4.66 21.8 6.2 1.97.38 3.38 2.92 3.38 4.93v17.1c0 2.02-1.52 3.1-3.37 2.33-7.7-3.2-15.43-6.37-21.8-10.7-1.66-1.12-3.37-2.9-3.37-4.9V18.5c0-2 1.5-3 3.37-2.32z" color="#000" overflow="visible" enable-background="accumulate"/><path fill="url(#n)" stroke="url(#o)" d="M3.77 17.27c6.42 2.62 14.08 4.4 21.73 6.22 1.73.4 2.5 2.7 2.5 4.48l-.1 16.83c0 1.25-.8 1.38-1.8.98-7.63-3-14.98-6.2-21.35-10.34-1.5-.96-3.2-2.6-3.2-4.37V19.3c0-1.8.57-2.7 2.22-2.03z" color="#000" overflow="visible" enable-background="accumulate"/><path fill="none" stroke="#729fcf" stroke-opacity=".531" stroke-width="2.7" d="M1.32 25.12c7.4 4.52 16.12 7.93 26.55 9.94" stroke-linecap="round"/><path fill="none" stroke="#729fcf" stroke-width="1.4" d="M1.32 25.12c7.4 4.52 16.12 7.93 26.55 9.94" stroke-linecap="round"/><path fill="none" stroke="#eeeeec" stroke-width=".5" d="M1.32 25.12c7.4 4.52 16.12 7.93 26.55 9.94" stroke-linecap="round"/><path fill="#eeeeec" stroke="#8ae234" stroke-width=".5" d="M33.54 28a.86.86 0 1 1-1.72 0 .86.86 0 1 1 1.72 0z" color="#000" overflow="visible" enable-background="accumulate"/><path fill="#eeeeec" stroke="#ef2929" stroke-width=".5" d="M33.54 31.53a.86.86 0 1 1-1.72 0 .86.86 0 1 1 1.72 0z" color="#000" overflow="visible" enable-background="accumulate"/></g></svg>